<?xml version="1.0" encoding="utf-8" standalone="no"?>
<!DOCTYPE svg PUBLIC "-//W3C//DTD SVG 1.1//EN"
  "http://www.w3.org/Graphics/SVG/1.1/DTD/svg11.dtd">
<!-- Created with matplotlib (https://matplotlib.org/) -->
<svg height="345.6pt" version="1.1" viewBox="0 0 460.8 345.6" width="460.8pt" xmlns="http://www.w3.org/2000/svg" xmlns:xlink="http://www.w3.org/1999/xlink">
 <defs>
  <style type="text/css">
*{stroke-linecap:butt;stroke-linejoin:round;}
  </style>
 </defs>
 <g id="figure_1">
  <g id="patch_1">
   <path d="M 0 345.6 
L 460.8 345.6 
L 460.8 0 
L 0 0 
z
" style="fill:#ffffff;"/>
  </g>
  <g id="axes_1">
   <g id="patch_2">
    <path d="M 57.6 307.584 
L 414.72 307.584 
L 414.72 41.472 
L 57.6 41.472 
z
" style="fill:#ffffff;"/>
   </g>
   <g id="matplotlib.axis_1">
    <g id="xtick_1">
     <g id="line2d_1">
      <path clip-path="url(#p3431cb2b28)" d="M 73.832727 307.584 
L 73.832727 41.472 
" style="fill:none;stroke:#b0b0b0;stroke-linecap:square;stroke-width:0.8;"/>
     </g>
     <g id="line2d_2">
      <defs>
       <path d="M 0 0 
L 0 3.5 
" id="mbab50441fa" style="stroke:#000000;stroke-width:0.8;"/>
      </defs>
      <g>
       <use style="stroke:#000000;stroke-width:0.8;" x="73.832727" xlink:href="#mbab50441fa" y="307.584"/>
      </g>
     </g>
     <g id="text_1">
      <!-- 0 -->
      <defs>
       <path d="M 31.78125 66.40625 
Q 24.171875 66.40625 20.328125 58.90625 
Q 16.5 51.421875 16.5 36.375 
Q 16.5 21.390625 20.328125 13.890625 
Q 24.171875 6.390625 31.78125 6.390625 
Q 39.453125 6.390625 43.28125 13.890625 
Q 47.125 21.390625 47.125 36.375 
Q 47.125 51.421875 43.28125 58.90625 
Q 39.453125 66.40625 31.78125 66.40625 
z
M 31.78125 74.21875 
Q 44.046875 74.21875 50.515625 64.515625 
Q 56.984375 54.828125 56.984375 36.375 
Q 56.984375 17.96875 50.515625 8.265625 
Q 44.046875 -1.421875 31.78125 -1.421875 
Q 19.53125 -1.421875 13.0625 8.265625 
Q 6.59375 17.96875 6.59375 36.375 
Q 6.59375 54.828125 13.0625 64.515625 
Q 19.53125 74.21875 31.78125 74.21875 
z
" id="DejaVuSans-48"/>
      </defs>
      <g transform="translate(70.651477 322.182437)scale(0.1 -0.1)">
       <use xlink:href="#DejaVuSans-48"/>
      </g>
     </g>
    </g>
    <g id="xtick_2">
     <g id="line2d_3">
      <path clip-path="url(#p3431cb2b28)" d="M 128.122785 307.584 
L 128.122785 41.472 
" style="fill:none;stroke:#b0b0b0;stroke-linecap:square;stroke-width:0.8;"/>
     </g>
     <g id="line2d_4">
      <g>
       <use style="stroke:#000000;stroke-width:0.8;" x="128.122785" xlink:href="#mbab50441fa" y="307.584"/>
      </g>
     </g>
     <g id="text_2">
      <!-- 50 -->
      <defs>
       <path d="M 10.796875 72.90625 
L 49.515625 72.90625 
L 49.515625 64.59375 
L 19.828125 64.59375 
L 19.828125 46.734375 
Q 21.96875 47.46875 24.109375 47.828125 
Q 26.265625 48.1875 28.421875 48.1875 
Q 40.625 48.1875 47.75 41.5 
Q 54.890625 34.8125 54.890625 23.390625 
Q 54.890625 11.625 47.5625 5.09375 
Q 40.234375 -1.421875 26.90625 -1.421875 
Q 22.3125 -1.421875 17.546875 -0.640625 
Q 12.796875 0.140625 7.71875 1.703125 
L 7.71875 11.625 
Q 12.109375 9.234375 16.796875 8.0625 
Q 21.484375 6.890625 26.703125 6.890625 
Q 35.15625 6.890625 40.078125 11.328125 
Q 45.015625 15.765625 45.015625 23.390625 
Q 45.015625 31 40.078125 35.4375 
Q 35.15625 39.890625 26.703125 39.890625 
Q 22.75 39.890625 18.8125 39.015625 
Q 14.890625 38.140625 10.796875 36.28125 
z
" id="DejaVuSans-53"/>
      </defs>
      <g transform="translate(121.760285 322.182437)scale(0.1 -0.1)">
       <use xlink:href="#DejaVuSans-53"/>
       <use x="63.623047" xlink:href="#DejaVuSans-48"/>
      </g>
     </g>
    </g>
    <g id="xtick_3">
     <g id="line2d_5">
      <path clip-path="url(#p3431cb2b28)" d="M 182.412843 307.584 
L 182.412843 41.472 
" style="fill:none;stroke:#b0b0b0;stroke-linecap:square;stroke-width:0.8;"/>
     </g>
     <g id="line2d_6">
      <g>
       <use style="stroke:#000000;stroke-width:0.8;" x="182.412843" xlink:href="#mbab50441fa" y="307.584"/>
      </g>
     </g>
     <g id="text_3">
      <!-- 100 -->
      <defs>
       <path d="M 12.40625 8.296875 
L 28.515625 8.296875 
L 28.515625 63.921875 
L 10.984375 60.40625 
L 10.984375 69.390625 
L 28.421875 72.90625 
L 38.28125 72.90625 
L 38.28125 8.296875 
L 54.390625 8.296875 
L 54.390625 0 
L 12.40625 0 
z
" id="DejaVuSans-49"/>
      </defs>
      <g transform="translate(172.869093 322.182437)scale(0.1 -0.1)">
       <use xlink:href="#DejaVuSans-49"/>
       <use x="63.623047" xlink:href="#DejaVuSans-48"/>
       <use x="127.246094" xlink:href="#DejaVuSans-48"/>
      </g>
     </g>
    </g>
    <g id="xtick_4">
     <g id="line2d_7">
      <path clip-path="url(#p3431cb2b28)" d="M 236.702901 307.584 
L 236.702901 41.472 
" style="fill:none;stroke:#b0b0b0;stroke-linecap:square;stroke-width:0.8;"/>
     </g>
     <g id="line2d_8">
      <g>
       <use style="stroke:#000000;stroke-width:0.8;" x="236.702901" xlink:href="#mbab50441fa" y="307.584"/>
      </g>
     </g>
     <g id="text_4">
      <!-- 150 -->
      <g transform="translate(227.159151 322.182437)scale(0.1 -0.1)">
       <use xlink:href="#DejaVuSans-49"/>
       <use x="63.623047" xlink:href="#DejaVuSans-53"/>
       <use x="127.246094" xlink:href="#DejaVuSans-48"/>
      </g>
     </g>
    </g>
    <g id="xtick_5">
     <g id="line2d_9">
      <path clip-path="url(#p3431cb2b28)" d="M 290.992958 307.584 
L 290.992958 41.472 
" style="fill:none;stroke:#b0b0b0;stroke-linecap:square;stroke-width:0.8;"/>
     </g>
     <g id="line2d_10">
      <g>
       <use style="stroke:#000000;stroke-width:0.8;" x="290.992958" xlink:href="#mbab50441fa" y="307.584"/>
      </g>
     </g>
     <g id="text_5">
      <!-- 200 -->
      <defs>
       <path d="M 19.1875 8.296875 
L 53.609375 8.296875 
L 53.609375 0 
L 7.328125 0 
L 7.328125 8.296875 
Q 12.9375 14.109375 22.625 23.890625 
Q 32.328125 33.6875 34.8125 36.53125 
Q 39.546875 41.84375 41.421875 45.53125 
Q 43.3125 49.21875 43.3125 52.78125 
Q 43.3125 58.59375 39.234375 62.25 
Q 35.15625 65.921875 28.609375 65.921875 
Q 23.96875 65.921875 18.8125 64.3125 
Q 13.671875 62.703125 7.8125 59.421875 
L 7.8125 69.390625 
Q 13.765625 71.78125 18.9375 73 
Q 24.125 74.21875 28.421875 74.21875 
Q 39.75 74.21875 46.484375 68.546875 
Q 53.21875 62.890625 53.21875 53.421875 
Q 53.21875 48.921875 51.53125 44.890625 
Q 49.859375 40.875 45.40625 35.40625 
Q 44.1875 33.984375 37.640625 27.21875 
Q 31.109375 20.453125 19.1875 8.296875 
z
" id="DejaVuSans-50"/>
      </defs>
      <g transform="translate(281.449208 322.182437)scale(0.1 -0.1)">
       <use xlink:href="#DejaVuSans-50"/>
       <use x="63.623047" xlink:href="#DejaVuSans-48"/>
       <use x="127.246094" xlink:href="#DejaVuSans-48"/>
      </g>
     </g>
    </g>
    <g id="xtick_6">
     <g id="line2d_11">
      <path clip-path="url(#p3431cb2b28)" d="M 345.283016 307.584 
L 345.283016 41.472 
" style="fill:none;stroke:#b0b0b0;stroke-linecap:square;stroke-width:0.8;"/>
     </g>
     <g id="line2d_12">
      <g>
       <use style="stroke:#000000;stroke-width:0.8;" x="345.283016" xlink:href="#mbab50441fa" y="307.584"/>
      </g>
     </g>
     <g id="text_6">
      <!-- 250 -->
      <g transform="translate(335.739266 322.182437)scale(0.1 -0.1)">
       <use xlink:href="#DejaVuSans-50"/>
       <use x="63.623047" xlink:href="#DejaVuSans-53"/>
       <use x="127.246094" xlink:href="#DejaVuSans-48"/>
      </g>
     </g>
    </g>
    <g id="xtick_7">
     <g id="line2d_13">
      <path clip-path="url(#p3431cb2b28)" d="M 399.573074 307.584 
L 399.573074 41.472 
" style="fill:none;stroke:#b0b0b0;stroke-linecap:square;stroke-width:0.8;"/>
     </g>
     <g id="line2d_14">
      <g>
       <use style="stroke:#000000;stroke-width:0.8;" x="399.573074" xlink:href="#mbab50441fa" y="307.584"/>
      </g>
     </g>
     <g id="text_7">
      <!-- 300 -->
      <defs>
       <path d="M 40.578125 39.3125 
Q 47.65625 37.796875 51.625 33 
Q 55.609375 28.21875 55.609375 21.1875 
Q 55.609375 10.40625 48.1875 4.484375 
Q 40.765625 -1.421875 27.09375 -1.421875 
Q 22.515625 -1.421875 17.65625 -0.515625 
Q 12.796875 0.390625 7.625 2.203125 
L 7.625 11.71875 
Q 11.71875 9.328125 16.59375 8.109375 
Q 21.484375 6.890625 26.8125 6.890625 
Q 36.078125 6.890625 40.9375 10.546875 
Q 45.796875 14.203125 45.796875 21.1875 
Q 45.796875 27.640625 41.28125 31.265625 
Q 36.765625 34.90625 28.71875 34.90625 
L 20.21875 34.90625 
L 20.21875 43.015625 
L 29.109375 43.015625 
Q 36.375 43.015625 40.234375 45.921875 
Q 44.09375 48.828125 44.09375 54.296875 
Q 44.09375 59.90625 40.109375 62.90625 
Q 36.140625 65.921875 28.71875 65.921875 
Q 24.65625 65.921875 20.015625 65.03125 
Q 15.375 64.15625 9.8125 62.3125 
L 9.8125 71.09375 
Q 15.4375 72.65625 20.34375 73.4375 
Q 25.25 74.21875 29.59375 74.21875 
Q 40.828125 74.21875 47.359375 69.109375 
Q 53.90625 64.015625 53.90625 55.328125 
Q 53.90625 49.265625 50.4375 45.09375 
Q 46.96875 40.921875 40.578125 39.3125 
z
" id="DejaVuSans-51"/>
      </defs>
      <g transform="translate(390.029324 322.182437)scale(0.1 -0.1)">
       <use xlink:href="#DejaVuSans-51"/>
       <use x="63.623047" xlink:href="#DejaVuSans-48"/>
       <use x="127.246094" xlink:href="#DejaVuSans-48"/>
      </g>
     </g>
    </g>
    <g id="text_8">
     <!-- Generations -->
     <defs>
      <path d="M 59.515625 10.40625 
L 59.515625 29.984375 
L 43.40625 29.984375 
L 43.40625 38.09375 
L 69.28125 38.09375 
L 69.28125 6.78125 
Q 63.578125 2.734375 56.6875 0.65625 
Q 49.8125 -1.421875 42 -1.421875 
Q 24.90625 -1.421875 15.25 8.5625 
Q 5.609375 18.5625 5.609375 36.375 
Q 5.609375 54.25 15.25 64.234375 
Q 24.90625 74.21875 42 74.21875 
Q 49.125 74.21875 55.546875 72.453125 
Q 61.96875 70.703125 67.390625 67.28125 
L 67.390625 56.78125 
Q 61.921875 61.421875 55.765625 63.765625 
Q 49.609375 66.109375 42.828125 66.109375 
Q 29.4375 66.109375 22.71875 58.640625 
Q 16.015625 51.171875 16.015625 36.375 
Q 16.015625 21.625 22.71875 14.15625 
Q 29.4375 6.6875 42.828125 6.6875 
Q 48.046875 6.6875 52.140625 7.59375 
Q 56.25 8.5 59.515625 10.40625 
z
" id="DejaVuSans-71"/>
      <path d="M 56.203125 29.59375 
L 56.203125 25.203125 
L 14.890625 25.203125 
Q 15.484375 15.921875 20.484375 11.0625 
Q 25.484375 6.203125 34.421875 6.203125 
Q 39.59375 6.203125 44.453125 7.46875 
Q 49.3125 8.734375 54.109375 11.28125 
L 54.109375 2.78125 
Q 49.265625 0.734375 44.1875 -0.34375 
Q 39.109375 -1.421875 33.890625 -1.421875 
Q 20.796875 -1.421875 13.15625 6.1875 
Q 5.515625 13.8125 5.515625 26.8125 
Q 5.515625 40.234375 12.765625 48.109375 
Q 20.015625 56 32.328125 56 
Q 43.359375 56 49.78125 48.890625 
Q 56.203125 41.796875 56.203125 29.59375 
z
M 47.21875 32.234375 
Q 47.125 39.59375 43.09375 43.984375 
Q 39.0625 48.390625 32.421875 48.390625 
Q 24.90625 48.390625 20.390625 44.140625 
Q 15.875 39.890625 15.1875 32.171875 
z
" id="DejaVuSans-101"/>
      <path d="M 54.890625 33.015625 
L 54.890625 0 
L 45.90625 0 
L 45.90625 32.71875 
Q 45.90625 40.484375 42.875 44.328125 
Q 39.84375 48.1875 33.796875 48.1875 
Q 26.515625 48.1875 22.3125 43.546875 
Q 18.109375 38.921875 18.109375 30.90625 
L 18.109375 0 
L 9.078125 0 
L 9.078125 54.6875 
L 18.109375 54.6875 
L 18.109375 46.1875 
Q 21.34375 51.125 25.703125 53.5625 
Q 30.078125 56 35.796875 56 
Q 45.21875 56 50.046875 50.171875 
Q 54.890625 44.34375 54.890625 33.015625 
z
" id="DejaVuSans-110"/>
      <path d="M 41.109375 46.296875 
Q 39.59375 47.171875 37.8125 47.578125 
Q 36.03125 48 33.890625 48 
Q 26.265625 48 22.1875 43.046875 
Q 18.109375 38.09375 18.109375 28.8125 
L 18.109375 0 
L 9.078125 0 
L 9.078125 54.6875 
L 18.109375 54.6875 
L 18.109375 46.1875 
Q 20.953125 51.171875 25.484375 53.578125 
Q 30.03125 56 36.53125 56 
Q 37.453125 56 38.578125 55.875 
Q 39.703125 55.765625 41.0625 55.515625 
z
" id="DejaVuSans-114"/>
      <path d="M 34.28125 27.484375 
Q 23.390625 27.484375 19.1875 25 
Q 14.984375 22.515625 14.984375 16.5 
Q 14.984375 11.71875 18.140625 8.90625 
Q 21.296875 6.109375 26.703125 6.109375 
Q 34.1875 6.109375 38.703125 11.40625 
Q 43.21875 16.703125 43.21875 25.484375 
L 43.21875 27.484375 
z
M 52.203125 31.203125 
L 52.203125 0 
L 43.21875 0 
L 43.21875 8.296875 
Q 40.140625 3.328125 35.546875 0.953125 
Q 30.953125 -1.421875 24.3125 -1.421875 
Q 15.921875 -1.421875 10.953125 3.296875 
Q 6 8.015625 6 15.921875 
Q 6 25.140625 12.171875 29.828125 
Q 18.359375 34.515625 30.609375 34.515625 
L 43.21875 34.515625 
L 43.21875 35.40625 
Q 43.21875 41.609375 39.140625 45 
Q 35.0625 48.390625 27.6875 48.390625 
Q 23 48.390625 18.546875 47.265625 
Q 14.109375 46.140625 10.015625 43.890625 
L 10.015625 52.203125 
Q 14.9375 54.109375 19.578125 55.046875 
Q 24.21875 56 28.609375 56 
Q 40.484375 56 46.34375 49.84375 
Q 52.203125 43.703125 52.203125 31.203125 
z
" id="DejaVuSans-97"/>
      <path d="M 18.3125 70.21875 
L 18.3125 54.6875 
L 36.8125 54.6875 
L 36.8125 47.703125 
L 18.3125 47.703125 
L 18.3125 18.015625 
Q 18.3125 11.328125 20.140625 9.421875 
Q 21.96875 7.515625 27.59375 7.515625 
L 36.8125 7.515625 
L 36.8125 0 
L 27.59375 0 
Q 17.1875 0 13.234375 3.875 
Q 9.28125 7.765625 9.28125 18.015625 
L 9.28125 47.703125 
L 2.6875 47.703125 
L 2.6875 54.6875 
L 9.28125 54.6875 
L 9.28125 70.21875 
z
" id="DejaVuSans-116"/>
      <path d="M 9.421875 54.6875 
L 18.40625 54.6875 
L 18.40625 0 
L 9.421875 0 
z
M 9.421875 75.984375 
L 18.40625 75.984375 
L 18.40625 64.59375 
L 9.421875 64.59375 
z
" id="DejaVuSans-105"/>
      <path d="M 30.609375 48.390625 
Q 23.390625 48.390625 19.1875 42.75 
Q 14.984375 37.109375 14.984375 27.296875 
Q 14.984375 17.484375 19.15625 11.84375 
Q 23.34375 6.203125 30.609375 6.203125 
Q 37.796875 6.203125 41.984375 11.859375 
Q 46.1875 17.53125 46.1875 27.296875 
Q 46.1875 37.015625 41.984375 42.703125 
Q 37.796875 48.390625 30.609375 48.390625 
z
M 30.609375 56 
Q 42.328125 56 49.015625 48.375 
Q 55.71875 40.765625 55.71875 27.296875 
Q 55.71875 13.875 49.015625 6.21875 
Q 42.328125 -1.421875 30.609375 -1.421875 
Q 18.84375 -1.421875 12.171875 6.21875 
Q 5.515625 13.875 5.515625 27.296875 
Q 5.515625 40.765625 12.171875 48.375 
Q 18.84375 56 30.609375 56 
z
" id="DejaVuSans-111"/>
      <path d="M 44.28125 53.078125 
L 44.28125 44.578125 
Q 40.484375 46.53125 36.375 47.5 
Q 32.28125 48.484375 27.875 48.484375 
Q 21.1875 48.484375 17.84375 46.4375 
Q 14.5 44.390625 14.5 40.28125 
Q 14.5 37.15625 16.890625 35.375 
Q 19.28125 33.59375 26.515625 31.984375 
L 29.59375 31.296875 
Q 39.15625 29.25 43.1875 25.515625 
Q 47.21875 21.78125 47.21875 15.09375 
Q 47.21875 7.46875 41.1875 3.015625 
Q 35.15625 -1.421875 24.609375 -1.421875 
Q 20.21875 -1.421875 15.453125 -0.5625 
Q 10.6875 0.296875 5.421875 2 
L 5.421875 11.28125 
Q 10.40625 8.6875 15.234375 7.390625 
Q 20.0625 6.109375 24.8125 6.109375 
Q 31.15625 6.109375 34.5625 8.28125 
Q 37.984375 10.453125 37.984375 14.40625 
Q 37.984375 18.0625 35.515625 20.015625 
Q 33.0625 21.96875 24.703125 23.78125 
L 21.578125 24.515625 
Q 13.234375 26.265625 9.515625 29.90625 
Q 5.8125 33.546875 5.8125 39.890625 
Q 5.8125 47.609375 11.28125 51.796875 
Q 16.75 56 26.8125 56 
Q 31.78125 56 36.171875 55.265625 
Q 40.578125 54.546875 44.28125 53.078125 
z
" id="DejaVuSans-115"/>
     </defs>
     <g transform="translate(205.662344 335.860562)scale(0.1 -0.1)">
      <use xlink:href="#DejaVuSans-71"/>
      <use x="77.490234" xlink:href="#DejaVuSans-101"/>
      <use x="139.013672" xlink:href="#DejaVuSans-110"/>
      <use x="202.392578" xlink:href="#DejaVuSans-101"/>
      <use x="263.916016" xlink:href="#DejaVuSans-114"/>
      <use x="305.029297" xlink:href="#DejaVuSans-97"/>
      <use x="366.308594" xlink:href="#DejaVuSans-116"/>
      <use x="405.517578" xlink:href="#DejaVuSans-105"/>
      <use x="433.300781" xlink:href="#DejaVuSans-111"/>
      <use x="494.482422" xlink:href="#DejaVuSans-110"/>
      <use x="557.861328" xlink:href="#DejaVuSans-115"/>
     </g>
    </g>
   </g>
   <g id="matplotlib.axis_2">
    <g id="ytick_1">
     <g id="line2d_15">
      <path clip-path="url(#p3431cb2b28)" d="M 57.6 283.761182 
L 414.72 283.761182 
" style="fill:none;stroke:#b0b0b0;stroke-linecap:square;stroke-width:0.8;"/>
     </g>
     <g id="line2d_16">
      <defs>
       <path d="M 0 0 
L -3.5 0 
" id="ma39b030299" style="stroke:#000000;stroke-width:0.8;"/>
      </defs>
      <g>
       <use style="stroke:#000000;stroke-width:0.8;" x="57.6" xlink:href="#ma39b030299" y="283.761182"/>
      </g>
     </g>
     <g id="text_9">
      <!-- 200 -->
      <g transform="translate(31.5125 287.560401)scale(0.1 -0.1)">
       <use xlink:href="#DejaVuSans-50"/>
       <use x="63.623047" xlink:href="#DejaVuSans-48"/>
       <use x="127.246094" xlink:href="#DejaVuSans-48"/>
      </g>
     </g>
    </g>
    <g id="ytick_2">
     <g id="line2d_17">
      <path clip-path="url(#p3431cb2b28)" d="M 57.6 249.82527 
L 414.72 249.82527 
" style="fill:none;stroke:#b0b0b0;stroke-linecap:square;stroke-width:0.8;"/>
     </g>
     <g id="line2d_18">
      <g>
       <use style="stroke:#000000;stroke-width:0.8;" x="57.6" xlink:href="#ma39b030299" y="249.82527"/>
      </g>
     </g>
     <g id="text_10">
      <!-- 400 -->
      <defs>
       <path d="M 37.796875 64.3125 
L 12.890625 25.390625 
L 37.796875 25.390625 
z
M 35.203125 72.90625 
L 47.609375 72.90625 
L 47.609375 25.390625 
L 58.015625 25.390625 
L 58.015625 17.1875 
L 47.609375 17.1875 
L 47.609375 0 
L 37.796875 0 
L 37.796875 17.1875 
L 4.890625 17.1875 
L 4.890625 26.703125 
z
" id="DejaVuSans-52"/>
      </defs>
      <g transform="translate(31.5125 253.624488)scale(0.1 -0.1)">
       <use xlink:href="#DejaVuSans-52"/>
       <use x="63.623047" xlink:href="#DejaVuSans-48"/>
       <use x="127.246094" xlink:href="#DejaVuSans-48"/>
      </g>
     </g>
    </g>
    <g id="ytick_3">
     <g id="line2d_19">
      <path clip-path="url(#p3431cb2b28)" d="M 57.6 215.889357 
L 414.72 215.889357 
" style="fill:none;stroke:#b0b0b0;stroke-linecap:square;stroke-width:0.8;"/>
     </g>
     <g id="line2d_20">
      <g>
       <use style="stroke:#000000;stroke-width:0.8;" x="57.6" xlink:href="#ma39b030299" y="215.889357"/>
      </g>
     </g>
     <g id="text_11">
      <!-- 600 -->
      <defs>
       <path d="M 33.015625 40.375 
Q 26.375 40.375 22.484375 35.828125 
Q 18.609375 31.296875 18.609375 23.390625 
Q 18.609375 15.53125 22.484375 10.953125 
Q 26.375 6.390625 33.015625 6.390625 
Q 39.65625 6.390625 43.53125 10.953125 
Q 47.40625 15.53125 47.40625 23.390625 
Q 47.40625 31.296875 43.53125 35.828125 
Q 39.65625 40.375 33.015625 40.375 
z
M 52.59375 71.296875 
L 52.59375 62.3125 
Q 48.875 64.0625 45.09375 64.984375 
Q 41.3125 65.921875 37.59375 65.921875 
Q 27.828125 65.921875 22.671875 59.328125 
Q 17.53125 52.734375 16.796875 39.40625 
Q 19.671875 43.65625 24.015625 45.921875 
Q 28.375 48.1875 33.59375 48.1875 
Q 44.578125 48.1875 50.953125 41.515625 
Q 57.328125 34.859375 57.328125 23.390625 
Q 57.328125 12.15625 50.6875 5.359375 
Q 44.046875 -1.421875 33.015625 -1.421875 
Q 20.359375 -1.421875 13.671875 8.265625 
Q 6.984375 17.96875 6.984375 36.375 
Q 6.984375 53.65625 15.1875 63.9375 
Q 23.390625 74.21875 37.203125 74.21875 
Q 40.921875 74.21875 44.703125 73.484375 
Q 48.484375 72.75 52.59375 71.296875 
z
" id="DejaVuSans-54"/>
      </defs>
      <g transform="translate(31.5125 219.688576)scale(0.1 -0.1)">
       <use xlink:href="#DejaVuSans-54"/>
       <use x="63.623047" xlink:href="#DejaVuSans-48"/>
       <use x="127.246094" xlink:href="#DejaVuSans-48"/>
      </g>
     </g>
    </g>
    <g id="ytick_4">
     <g id="line2d_21">
      <path clip-path="url(#p3431cb2b28)" d="M 57.6 181.953445 
L 414.72 181.953445 
" style="fill:none;stroke:#b0b0b0;stroke-linecap:square;stroke-width:0.8;"/>
     </g>
     <g id="line2d_22">
      <g>
       <use style="stroke:#000000;stroke-width:0.8;" x="57.6" xlink:href="#ma39b030299" y="181.953445"/>
      </g>
     </g>
     <g id="text_12">
      <!-- 800 -->
      <defs>
       <path d="M 31.78125 34.625 
Q 24.75 34.625 20.71875 30.859375 
Q 16.703125 27.09375 16.703125 20.515625 
Q 16.703125 13.921875 20.71875 10.15625 
Q 24.75 6.390625 31.78125 6.390625 
Q 38.8125 6.390625 42.859375 10.171875 
Q 46.921875 13.96875 46.921875 20.515625 
Q 46.921875 27.09375 42.890625 30.859375 
Q 38.875 34.625 31.78125 34.625 
z
M 21.921875 38.8125 
Q 15.578125 40.375 12.03125 44.71875 
Q 8.5 49.078125 8.5 55.328125 
Q 8.5 64.0625 14.71875 69.140625 
Q 20.953125 74.21875 31.78125 74.21875 
Q 42.671875 74.21875 48.875 69.140625 
Q 55.078125 64.0625 55.078125 55.328125 
Q 55.078125 49.078125 51.53125 44.71875 
Q 48 40.375 41.703125 38.8125 
Q 48.828125 37.15625 52.796875 32.3125 
Q 56.78125 27.484375 56.78125 20.515625 
Q 56.78125 9.90625 50.3125 4.234375 
Q 43.84375 -1.421875 31.78125 -1.421875 
Q 19.734375 -1.421875 13.25 4.234375 
Q 6.78125 9.90625 6.78125 20.515625 
Q 6.78125 27.484375 10.78125 32.3125 
Q 14.796875 37.15625 21.921875 38.8125 
z
M 18.3125 54.390625 
Q 18.3125 48.734375 21.84375 45.5625 
Q 25.390625 42.390625 31.78125 42.390625 
Q 38.140625 42.390625 41.71875 45.5625 
Q 45.3125 48.734375 45.3125 54.390625 
Q 45.3125 60.0625 41.71875 63.234375 
Q 38.140625 66.40625 31.78125 66.40625 
Q 25.390625 66.40625 21.84375 63.234375 
Q 18.3125 60.0625 18.3125 54.390625 
z
" id="DejaVuSans-56"/>
      </defs>
      <g transform="translate(31.5125 185.752664)scale(0.1 -0.1)">
       <use xlink:href="#DejaVuSans-56"/>
       <use x="63.623047" xlink:href="#DejaVuSans-48"/>
       <use x="127.246094" xlink:href="#DejaVuSans-48"/>
      </g>
     </g>
    </g>
    <g id="ytick_5">
     <g id="line2d_23">
      <path clip-path="url(#p3431cb2b28)" d="M 57.6 148.017532 
L 414.72 148.017532 
" style="fill:none;stroke:#b0b0b0;stroke-linecap:square;stroke-width:0.8;"/>
     </g>
     <g id="line2d_24">
      <g>
       <use style="stroke:#000000;stroke-width:0.8;" x="57.6" xlink:href="#ma39b030299" y="148.017532"/>
      </g>
     </g>
     <g id="text_13">
      <!-- 1000 -->
      <g transform="translate(25.15 151.816751)scale(0.1 -0.1)">
       <use xlink:href="#DejaVuSans-49"/>
       <use x="63.623047" xlink:href="#DejaVuSans-48"/>
       <use x="127.246094" xlink:href="#DejaVuSans-48"/>
       <use x="190.869141" xlink:href="#DejaVuSans-48"/>
      </g>
     </g>
    </g>
    <g id="ytick_6">
     <g id="line2d_25">
      <path clip-path="url(#p3431cb2b28)" d="M 57.6 114.08162 
L 414.72 114.08162 
" style="fill:none;stroke:#b0b0b0;stroke-linecap:square;stroke-width:0.8;"/>
     </g>
     <g id="line2d_26">
      <g>
       <use style="stroke:#000000;stroke-width:0.8;" x="57.6" xlink:href="#ma39b030299" y="114.08162"/>
      </g>
     </g>
     <g id="text_14">
      <!-- 1200 -->
      <g transform="translate(25.15 117.880839)scale(0.1 -0.1)">
       <use xlink:href="#DejaVuSans-49"/>
       <use x="63.623047" xlink:href="#DejaVuSans-50"/>
       <use x="127.246094" xlink:href="#DejaVuSans-48"/>
       <use x="190.869141" xlink:href="#DejaVuSans-48"/>
      </g>
     </g>
    </g>
    <g id="ytick_7">
     <g id="line2d_27">
      <path clip-path="url(#p3431cb2b28)" d="M 57.6 80.145708 
L 414.72 80.145708 
" style="fill:none;stroke:#b0b0b0;stroke-linecap:square;stroke-width:0.8;"/>
     </g>
     <g id="line2d_28">
      <g>
       <use style="stroke:#000000;stroke-width:0.8;" x="57.6" xlink:href="#ma39b030299" y="80.145708"/>
      </g>
     </g>
     <g id="text_15">
      <!-- 1400 -->
      <g transform="translate(25.15 83.944926)scale(0.1 -0.1)">
       <use xlink:href="#DejaVuSans-49"/>
       <use x="63.623047" xlink:href="#DejaVuSans-52"/>
       <use x="127.246094" xlink:href="#DejaVuSans-48"/>
       <use x="190.869141" xlink:href="#DejaVuSans-48"/>
      </g>
     </g>
    </g>
    <g id="ytick_8">
     <g id="line2d_29">
      <path clip-path="url(#p3431cb2b28)" d="M 57.6 46.209795 
L 414.72 46.209795 
" style="fill:none;stroke:#b0b0b0;stroke-linecap:square;stroke-width:0.8;"/>
     </g>
     <g id="line2d_30">
      <g>
       <use style="stroke:#000000;stroke-width:0.8;" x="57.6" xlink:href="#ma39b030299" y="46.209795"/>
      </g>
     </g>
     <g id="text_16">
      <!-- 1600 -->
      <g transform="translate(25.15 50.009014)scale(0.1 -0.1)">
       <use xlink:href="#DejaVuSans-49"/>
       <use x="63.623047" xlink:href="#DejaVuSans-54"/>
       <use x="127.246094" xlink:href="#DejaVuSans-48"/>
       <use x="190.869141" xlink:href="#DejaVuSans-48"/>
      </g>
     </g>
    </g>
    <g id="text_17">
     <!-- Fitness -->
     <defs>
      <path d="M 9.8125 72.90625 
L 51.703125 72.90625 
L 51.703125 64.59375 
L 19.671875 64.59375 
L 19.671875 43.109375 
L 48.578125 43.109375 
L 48.578125 34.8125 
L 19.671875 34.8125 
L 19.671875 0 
L 9.8125 0 
z
" id="DejaVuSans-70"/>
     </defs>
     <g transform="translate(19.070312 192.202219)rotate(-90)scale(0.1 -0.1)">
      <use xlink:href="#DejaVuSans-70"/>
      <use x="57.410156" xlink:href="#DejaVuSans-105"/>
      <use x="85.193359" xlink:href="#DejaVuSans-116"/>
      <use x="124.402344" xlink:href="#DejaVuSans-110"/>
      <use x="187.78125" xlink:href="#DejaVuSans-101"/>
      <use x="249.304688" xlink:href="#DejaVuSans-115"/>
      <use x="301.404297" xlink:href="#DejaVuSans-115"/>
     </g>
    </g>
   </g>
   <g id="line2d_31">
    <path clip-path="url(#p3431cb2b28)" d="M 73.832727 282.414779 
L 74.918528 281.676248 
L 76.00433 275.237618 
L 77.090131 272.483214 
L 78.175932 267.366586 
L 79.261733 253.875047 
L 80.347534 246.245338 
L 81.433335 234.736844 
L 82.519137 224.902165 
L 83.604938 226.840219 
L 84.690739 222.458755 
L 85.77654 226.278136 
L 86.862341 226.529052 
L 87.948142 222.122091 
L 89.033943 209.817236 
L 90.119745 207.592519 
L 91.205546 215.393698 
L 92.291347 222.056022 
L 93.377148 193.358391 
L 94.462949 198.573221 
L 95.54875 189.781248 
L 96.634552 174.057959 
L 97.720353 184.82883 
L 98.806154 178.189023 
L 99.891955 177.636325 
L 100.977756 168.307576 
L 102.063557 170.517662 
L 103.149358 170.264975 
L 104.23516 153.293527 
L 105.320961 160.171625 
L 106.406762 150.447779 
L 107.492563 181.804691 
L 108.578364 159.990545 
L 109.664165 143.344789 
L 110.749967 159.796838 
L 111.835768 158.334388 
L 112.921569 176.785063 
L 114.00737 146.799928 
L 115.093171 157.108559 
L 116.178972 174.615856 
L 117.264773 148.553504 
L 118.350575 161.654651 
L 119.436376 169.887366 
L 120.522177 145.710937 
L 121.607978 148.736482 
L 122.693779 163.795865 
L 123.77958 145.691293 
L 124.865382 174.319047 
L 125.951183 171.370417 
L 127.036984 155.421791 
L 128.122785 162.597955 
L 129.208586 125.67619 
L 130.294387 142.406694 
L 131.380189 152.33185 
L 132.46599 169.381662 
L 133.551791 153.922228 
L 134.637592 174.370073 
L 135.723393 166.2595 
L 136.809194 145.370842 
L 137.894995 171.086593 
L 138.980797 160.10266 
L 140.066598 158.300984 
L 141.152399 160.842952 
L 142.2382 161.731381 
L 143.324001 142.773105 
L 144.409802 147.17106 
L 145.495604 147.99755 
L 146.581405 155.209699 
L 147.667206 167.743042 
L 148.753007 168.483285 
L 149.838808 146.713206 
L 150.924609 166.83945 
L 152.01041 142.49852 
L 153.096212 178.201868 
L 154.182013 168.798031 
L 155.267814 165.121234 
L 156.353615 168.027274 
L 157.439416 151.665867 
L 158.525217 164.257171 
L 159.611019 148.814242 
L 160.69682 145.364156 
L 161.782621 156.903971 
L 162.868422 165.014705 
L 163.954223 157.110882 
L 165.040024 164.540107 
L 166.125825 175.105119 
L 167.211627 156.474468 
L 168.297428 158.599826 
L 169.383229 184.79323 
L 170.46903 170.931123 
L 171.554831 143.064978 
L 172.640632 141.045736 
L 173.726434 143.175581 
L 175.898036 165.396604 
L 176.983837 150.650896 
L 178.069638 155.778107 
L 179.155439 140.08489 
L 180.24124 143.520964 
L 181.327042 158.651836 
L 182.412843 160.78868 
L 183.498644 121.127125 
L 184.584445 139.567965 
L 185.670246 143.9653 
L 186.756047 132.971523 
L 187.841849 148.295548 
L 188.92765 169.260774 
L 190.013451 136.784639 
L 191.099252 169.315138 
L 192.185053 156.700616 
L 193.270854 153.687395 
L 194.356656 140.225545 
L 196.528258 175.505536 
L 197.614059 134.06001 
L 198.69986 144.042663 
L 199.785661 129.905226 
L 200.871462 150.504459 
L 201.957264 133.198238 
L 203.043065 169.068244 
L 204.128866 166.792733 
L 205.214667 158.693431 
L 206.300468 163.23146 
L 207.386269 150.446315 
L 208.472071 153.340121 
L 209.557872 161.11154 
L 210.643673 146.268388 
L 211.729474 146.213342 
L 212.815275 145.138776 
L 213.901076 159.422135 
L 214.986877 147.232825 
L 216.072679 181.82748 
L 217.15848 159.147801 
L 218.244281 164.918243 
L 219.330082 147.444806 
L 220.415883 153.502 
L 221.501684 157.060329 
L 222.587486 155.819411 
L 223.673287 149.270702 
L 224.759088 148.804207 
L 225.844889 160.783878 
L 226.93069 154.348261 
L 228.016491 135.710284 
L 229.102292 165.391712 
L 230.188094 147.253636 
L 231.273895 150.599371 
L 232.359696 155.714569 
L 233.445497 140.721186 
L 234.531298 156.59207 
L 235.617099 147.126253 
L 236.702901 153.577401 
L 237.788702 134.509834 
L 238.874503 159.484132 
L 239.960304 157.336284 
L 241.046105 129.765505 
L 242.131906 128.280083 
L 243.217708 149.51058 
L 244.303509 148.446102 
L 245.38931 150.47973 
L 246.475111 138.972931 
L 247.560912 153.120986 
L 248.646713 147.696697 
L 249.732514 124.57829 
L 250.818316 142.824875 
L 251.904117 133.334648 
L 252.989918 134.533809 
L 254.075719 144.5064 
L 255.16152 148.266672 
L 256.247321 124.804709 
L 257.333123 146.26254 
L 258.418924 147.331973 
L 259.504725 155.058248 
L 260.590526 146.765931 
L 261.676327 145.601423 
L 262.762128 155.00631 
L 263.847929 158.332172 
L 264.933731 180.710279 
L 266.019532 190.021916 
L 267.105333 148.056549 
L 268.191134 146.965799 
L 269.276935 155.667306 
L 270.362736 151.661389 
L 271.448538 164.149915 
L 272.534339 157.530119 
L 273.62014 163.566007 
L 274.705941 176.176678 
L 275.791742 161.507006 
L 276.877543 174.21395 
L 277.963344 175.767557 
L 279.049146 155.302835 
L 280.134947 154.539771 
L 281.220748 180.291073 
L 282.306549 163.620973 
L 283.39235 166.509371 
L 284.478151 151.605924 
L 285.563953 142.072043 
L 286.649754 159.481811 
L 287.735555 166.62652 
L 288.821356 142.153752 
L 289.907157 141.852511 
L 290.992958 158.031331 
L 292.07876 142.223014 
L 293.164561 175.595328 
L 294.250362 151.484492 
L 295.336163 147.601416 
L 296.421964 168.3829 
L 297.507765 164.25166 
L 298.593566 148.79259 
L 299.679368 142.4098 
L 300.765169 144.86251 
L 301.85097 142.348743 
L 302.936771 146.736665 
L 304.022572 128.126186 
L 305.108373 133.299186 
L 306.194175 133.445959 
L 307.279976 159.755328 
L 308.365777 168.112147 
L 309.451578 146.085606 
L 310.537379 128.922052 
L 311.62318 129.396077 
L 312.708981 158.416323 
L 313.794783 136.319316 
L 314.880584 148.578171 
L 315.966385 143.684806 
L 317.052186 150.68112 
L 318.137987 139.314773 
L 319.223788 134.915631 
L 320.30959 152.261898 
L 321.395391 151.176469 
L 322.481192 153.113464 
L 323.566993 174.989831 
L 324.652794 149.345172 
L 325.738595 165.479778 
L 326.824396 145.831385 
L 327.910198 155.611451 
L 328.995999 148.571836 
L 330.0818 149.108197 
L 331.167601 152.852928 
L 332.253402 153.329483 
L 333.339203 152.26591 
L 334.425005 158.029995 
L 335.510806 133.42743 
L 336.596607 160.211588 
L 337.682408 163.362373 
L 338.768209 156.101092 
L 339.85401 178.49761 
L 340.939811 169.520744 
L 342.025613 145.63246 
L 343.111414 148.622894 
L 344.197215 148.625543 
L 345.283016 165.421754 
L 346.368817 141.608573 
L 347.454618 165.305142 
L 348.54042 173.015948 
L 349.626221 161.69571 
L 350.712022 155.712274 
L 351.797823 173.881313 
L 352.883624 145.791955 
L 353.969425 166.690727 
L 355.055227 174.193968 
L 356.141028 149.145189 
L 357.226829 179.831445 
L 358.31263 163.352532 
L 359.398431 176.696599 
L 360.484232 173.869796 
L 361.570033 159.423839 
L 362.655835 159.321285 
L 363.741636 150.563526 
L 364.827437 149.185942 
L 365.913238 166.271517 
L 366.999039 164.750241 
L 368.08484 159.262117 
L 369.170642 173.134601 
L 370.256443 171.103428 
L 371.342244 168.667224 
L 372.428045 188.934008 
L 373.513846 158.444366 
L 374.599647 152.379442 
L 375.685448 152.765315 
L 376.77125 146.136997 
L 377.857051 157.847965 
L 378.942852 149.830233 
L 380.028653 144.932169 
L 381.114454 156.562546 
L 382.200255 160.61198 
L 383.286057 160.238108 
L 384.371858 152.665648 
L 385.457659 153.14528 
L 386.54346 137.950298 
L 387.629261 150.979672 
L 388.715062 149.527717 
L 389.800863 156.942678 
L 390.886665 153.097795 
L 391.972466 164.737567 
L 393.058267 166.456103 
L 394.144068 172.075388 
L 395.229869 158.162428 
L 396.31567 159.569489 
L 397.401472 184.266816 
L 398.487273 186.847571 
L 398.487273 186.847571 
" style="fill:none;stroke:#0000ff;stroke-linecap:square;stroke-width:1.5;"/>
   </g>
   <g id="line2d_32">
    <path clip-path="url(#p3431cb2b28)" d="M 73.832727 293.512299 
L 74.918528 295.488 
L 76.00433 284.382386 
L 77.090131 287.38004 
L 78.175932 282.780376 
L 79.261733 281.87159 
L 80.347534 279.658757 
L 81.433335 273.276249 
L 82.519137 263.261734 
L 83.604938 263.338401 
L 84.690739 262.293785 
L 85.77654 266.158684 
L 86.862341 271.860091 
L 87.948142 263.550499 
L 89.033943 264.027991 
L 90.119745 257.463016 
L 91.205546 266.723378 
L 92.291347 270.470344 
L 93.377148 246.501213 
L 94.462949 253.764806 
L 95.54875 249.214728 
L 96.634552 225.842095 
L 97.720353 248.870682 
L 98.806154 239.020844 
L 99.891955 234.172788 
L 102.063557 220.349238 
L 103.149358 235.61603 
L 104.23516 212.166608 
L 105.320961 220.493738 
L 106.406762 210.586691 
L 107.492563 238.788167 
L 108.578364 218.578606 
L 109.664165 213.416357 
L 110.749967 221.706923 
L 111.835768 224.452502 
L 112.921569 224.999097 
L 114.00737 201.333563 
L 115.093171 220.507369 
L 116.178972 220.95794 
L 117.264773 215.299016 
L 118.350575 223.299109 
L 119.436376 232.772729 
L 120.522177 205.399889 
L 121.607978 213.383728 
L 122.693779 219.895327 
L 123.77958 209.33923 
L 124.865382 226.100165 
L 125.951183 225.103657 
L 127.036984 215.418076 
L 128.122785 226.24342 
L 129.208586 187.59212 
L 130.294387 199.890589 
L 131.380189 217.728892 
L 132.46599 224.958607 
L 133.551791 217.210654 
L 134.637592 225.037044 
L 135.723393 223.409965 
L 136.809194 200.393289 
L 137.894995 230.47218 
L 138.980797 222.559146 
L 140.066598 207.426917 
L 141.152399 208.598721 
L 142.2382 210.11531 
L 143.324001 197.747596 
L 144.409802 208.554111 
L 145.495604 204.370202 
L 146.581405 212.560196 
L 147.667206 225.345601 
L 148.753007 221.178074 
L 149.838808 214.644268 
L 150.924609 226.793301 
L 152.01041 196.161052 
L 153.096212 244.669598 
L 154.182013 225.307237 
L 155.267814 225.311942 
L 156.353615 223.745768 
L 157.439416 207.314694 
L 158.525217 223.804858 
L 159.611019 216.343709 
L 160.69682 203.925777 
L 161.782621 203.90632 
L 162.868422 220.105394 
L 163.954223 213.30073 
L 165.040024 217.568271 
L 166.125825 231.240634 
L 167.211627 212.49272 
L 168.297428 215.714277 
L 169.383229 251.216353 
L 170.46903 229.34952 
L 171.554831 200.280863 
L 172.640632 189.735267 
L 173.726434 207.14388 
L 174.812235 210.007183 
L 175.898036 216.892956 
L 176.983837 215.288196 
L 178.069638 207.106722 
L 179.155439 206.42831 
L 180.24124 215.999477 
L 181.327042 214.963486 
L 182.412843 222.587961 
L 183.498644 175.741198 
L 184.584445 187.176676 
L 185.670246 200.08148 
L 186.756047 190.757592 
L 187.841849 208.233457 
L 188.92765 220.670335 
L 190.013451 186.478232 
L 191.099252 231.199097 
L 192.185053 210.533538 
L 193.270854 220.585716 
L 194.356656 207.147841 
L 195.442457 211.761147 
L 196.528258 237.151413 
L 197.614059 201.027804 
L 198.69986 208.666448 
L 199.785661 191.252094 
L 200.871462 211.293453 
L 201.957264 202.491752 
L 203.043065 238.127536 
L 204.128866 238.540272 
L 205.214667 233.974268 
L 206.300468 230.06013 
L 207.386269 225.650132 
L 208.472071 219.327556 
L 209.557872 226.67207 
L 210.643673 208.026372 
L 211.729474 212.123561 
L 212.815275 201.546287 
L 213.901076 212.249355 
L 214.986877 214.478025 
L 216.072679 236.887976 
L 217.15848 224.560661 
L 218.244281 233.995317 
L 219.330082 220.930715 
L 220.415883 223.12958 
L 221.501684 233.912888 
L 222.587486 215.02194 
L 223.673287 217.631176 
L 224.759088 213.958497 
L 225.844889 229.134768 
L 226.93069 215.01623 
L 228.016491 189.705485 
L 229.102292 224.903261 
L 230.188094 216.298636 
L 231.273895 214.769422 
L 232.359696 218.411676 
L 233.445497 205.517176 
L 235.617099 218.146603 
L 236.702901 209.821015 
L 237.788702 195.772495 
L 238.874503 223.600726 
L 239.960304 230.369468 
L 241.046105 189.556492 
L 242.131906 184.560871 
L 243.217708 211.614889 
L 244.303509 206.444415 
L 245.38931 216.53665 
L 246.475111 193.014968 
L 247.560912 210.508227 
L 248.646713 207.58438 
L 249.732514 185.047155 
L 250.818316 208.786916 
L 251.904117 199.22953 
L 252.989918 199.465309 
L 254.075719 205.366384 
L 255.16152 210.187234 
L 256.247321 184.294159 
L 257.333123 214.397494 
L 258.418924 199.225695 
L 259.504725 221.102161 
L 260.590526 212.658784 
L 261.676327 218.499382 
L 262.762128 211.872904 
L 263.847929 204.105112 
L 264.933731 239.407352 
L 266.019532 236.319768 
L 267.105333 201.39375 
L 268.191134 208.521016 
L 269.276935 216.56902 
L 270.362736 210.732666 
L 271.448538 222.323024 
L 272.534339 212.482433 
L 273.62014 214.950841 
L 274.705941 228.923027 
L 275.791742 217.623837 
L 276.877543 227.068178 
L 279.049146 213.88553 
L 280.134947 209.42903 
L 281.220748 227.435785 
L 282.306549 211.557937 
L 283.39235 213.714794 
L 284.478151 201.57636 
L 285.563953 192.596825 
L 286.649754 212.244826 
L 287.735555 219.841662 
L 288.821356 191.597499 
L 289.907157 192.218837 
L 290.992958 216.831632 
L 292.07876 206.787099 
L 293.164561 226.625946 
L 294.250362 206.4668 
L 295.336163 200.048461 
L 296.421964 227.499072 
L 297.507765 221.430484 
L 298.593566 200.705168 
L 299.679368 199.411433 
L 300.765169 193.801297 
L 301.85097 201.096859 
L 302.936771 200.293343 
L 304.022572 172.358599 
L 305.108373 195.935833 
L 306.194175 192.118229 
L 307.279976 217.639478 
L 308.365777 223.832713 
L 309.451578 204.300926 
L 310.537379 189.288877 
L 311.62318 181.443109 
L 312.708981 221.166162 
L 313.794783 195.124274 
L 314.880584 216.894389 
L 315.966385 201.054647 
L 317.052186 211.468741 
L 318.137987 193.085982 
L 319.223788 192.690641 
L 320.30959 218.790432 
L 321.395391 213.231121 
L 322.481192 209.610175 
L 323.566993 241.997363 
L 324.652794 199.611793 
L 325.738595 228.431392 
L 326.824396 224.285071 
L 327.910198 217.172853 
L 328.995999 211.368564 
L 330.0818 216.105447 
L 331.167601 207.332284 
L 332.253402 214.667611 
L 333.339203 209.721464 
L 334.425005 216.029332 
L 335.510806 198.460173 
L 336.596607 219.202796 
L 337.682408 223.747735 
L 338.768209 208.348669 
L 339.85401 227.594674 
L 340.939811 232.88383 
L 342.025613 204.993357 
L 343.111414 211.790371 
L 344.197215 206.424751 
L 345.283016 214.834929 
L 346.368817 194.661307 
L 347.454618 227.449886 
L 348.54042 218.541997 
L 349.626221 212.669747 
L 350.712022 212.909433 
L 351.797823 227.388929 
L 352.883624 200.869109 
L 353.969425 222.227152 
L 355.055227 221.493525 
L 356.141028 211.761381 
L 357.226829 230.38025 
L 358.31263 219.740351 
L 359.398431 238.495718 
L 360.484232 232.08012 
L 361.570033 213.94031 
L 362.655835 220.612709 
L 363.741636 212.606008 
L 364.827437 203.378633 
L 365.913238 225.116257 
L 366.999039 223.046085 
L 368.08484 212.179552 
L 369.170642 219.094475 
L 370.256443 223.657295 
L 371.342244 215.946946 
L 372.428045 239.816862 
L 373.513846 210.513886 
L 374.599647 197.289004 
L 375.685448 205.161033 
L 376.77125 200.692228 
L 377.857051 215.656551 
L 378.942852 194.355129 
L 380.028653 195.942696 
L 381.114454 210.606592 
L 382.200255 212.392837 
L 383.286057 212.624271 
L 384.371858 210.014255 
L 385.457659 210.552079 
L 386.54346 187.678948 
L 387.629261 204.494457 
L 388.715062 199.743772 
L 389.800863 206.855285 
L 390.886665 201.330875 
L 391.972466 206.4071 
L 393.058267 213.651962 
L 394.144068 224.756 
L 395.229869 217.300253 
L 396.31567 222.032585 
L 397.401472 236.493068 
L 398.487273 239.720715 
L 398.487273 239.720715 
" style="fill:none;stroke:#008000;stroke-dasharray:9.6,2.4,1.5,2.4;stroke-dashoffset:0;stroke-width:1.5;"/>
   </g>
   <g id="line2d_33">
    <path clip-path="url(#p3431cb2b28)" d="M 73.832727 271.317259 
L 74.918528 267.864495 
L 76.00433 266.092849 
L 77.090131 257.586387 
L 78.175932 251.952796 
L 79.261733 225.878504 
L 80.347534 212.831918 
L 81.433335 196.19744 
L 82.519137 186.542597 
L 83.604938 190.342036 
L 84.690739 182.623725 
L 85.77654 186.397588 
L 86.862341 181.198013 
L 87.948142 180.693683 
L 89.033943 155.606481 
L 90.119745 157.722022 
L 91.205546 164.064019 
L 92.291347 173.6417 
L 93.377148 140.215569 
L 94.462949 143.381637 
L 95.54875 130.347767 
L 96.634552 122.273823 
L 97.720353 120.786978 
L 98.806154 117.357202 
L 99.891955 121.099862 
L 100.977756 109.346363 
L 102.063557 120.686086 
L 103.149358 104.913919 
L 104.23516 94.420445 
L 105.320961 99.849513 
L 106.406762 90.308867 
L 107.492563 124.821215 
L 108.578364 101.402485 
L 109.664165 73.273221 
L 110.749967 97.886752 
L 111.835768 92.216274 
L 112.921569 128.571029 
L 114.00737 92.266292 
L 115.093171 93.709749 
L 116.178972 128.273771 
L 117.264773 81.807993 
L 118.350575 100.010192 
L 119.436376 107.002003 
L 120.522177 86.021985 
L 121.607978 84.089236 
L 122.693779 107.696403 
L 123.77958 82.043356 
L 124.865382 122.537929 
L 125.951183 117.637177 
L 127.036984 95.425505 
L 128.122785 98.95249 
L 129.208586 63.760261 
L 130.294387 84.9228 
L 131.380189 86.934809 
L 132.46599 113.804716 
L 133.551791 90.633801 
L 134.637592 123.703102 
L 135.723393 109.109036 
L 136.809194 90.348395 
L 137.894995 111.701006 
L 138.980797 97.646174 
L 140.066598 109.175051 
L 141.152399 113.087182 
L 142.2382 113.347452 
L 143.324001 87.798614 
L 144.409802 85.788009 
L 146.581405 97.859202 
L 147.667206 110.140483 
L 148.753007 115.788495 
L 149.838808 78.782143 
L 150.924609 106.8856 
L 152.01041 88.835989 
L 153.096212 111.734138 
L 154.182013 112.288825 
L 155.267814 104.930525 
L 156.353615 112.308781 
L 157.439416 96.017041 
L 158.525217 104.709485 
L 159.611019 81.284775 
L 160.69682 86.802535 
L 161.782621 109.901622 
L 162.868422 109.924016 
L 163.954223 100.921033 
L 165.040024 111.511942 
L 166.125825 118.969604 
L 167.211627 100.456216 
L 168.297428 101.485376 
L 169.383229 118.370107 
L 170.46903 112.512726 
L 171.554831 85.849092 
L 172.640632 92.356205 
L 173.726434 79.207282 
L 174.812235 98.842459 
L 175.898036 113.900252 
L 176.983837 86.013596 
L 178.069638 104.449491 
L 179.155439 73.741469 
L 180.24124 71.042452 
L 181.327042 102.340186 
L 182.412843 98.989399 
L 183.498644 66.513053 
L 184.584445 91.959254 
L 185.670246 87.84912 
L 186.756047 75.185454 
L 187.841849 88.357639 
L 188.92765 117.851213 
L 190.013451 87.091047 
L 191.099252 107.431179 
L 192.185053 102.867694 
L 193.270854 86.789074 
L 194.356656 73.303249 
L 195.442457 105.331159 
L 196.528258 113.859659 
L 197.614059 67.092215 
L 198.69986 79.418877 
L 199.785661 68.558359 
L 200.871462 89.715465 
L 201.957264 63.904725 
L 203.043065 100.008951 
L 204.128866 95.045193 
L 205.214667 83.412593 
L 206.300468 96.402791 
L 207.386269 75.242498 
L 208.472071 87.352685 
L 209.557872 95.551011 
L 210.643673 84.510403 
L 211.729474 80.303123 
L 212.815275 88.731265 
L 213.901076 106.594916 
L 214.986877 79.987624 
L 216.072679 126.766984 
L 217.15848 93.734941 
L 218.244281 95.841169 
L 219.330082 73.958896 
L 220.415883 83.874419 
L 221.501684 80.20777 
L 222.587486 96.616881 
L 223.673287 80.910229 
L 224.759088 83.649917 
L 225.844889 92.432988 
L 226.93069 93.680293 
L 228.016491 81.715084 
L 229.102292 105.880163 
L 230.188094 78.208636 
L 231.273895 86.42932 
L 232.359696 93.017463 
L 233.445497 75.925196 
L 234.531298 101.274674 
L 235.617099 76.105903 
L 236.702901 97.333787 
L 237.788702 73.247174 
L 238.874503 95.367538 
L 239.960304 84.303099 
L 241.046105 69.974518 
L 242.131906 71.999294 
L 243.217708 87.406271 
L 244.303509 90.447788 
L 245.38931 84.422809 
L 246.475111 84.930894 
L 247.560912 95.733746 
L 248.646713 87.809013 
L 249.732514 64.109424 
L 250.818316 76.862834 
L 251.904117 67.439766 
L 252.989918 69.602309 
L 254.075719 83.646416 
L 255.16152 86.34611 
L 256.247321 65.315259 
L 257.333123 78.127587 
L 258.418924 95.438251 
L 259.504725 89.014335 
L 261.676327 72.703464 
L 262.762128 98.139717 
L 263.847929 112.559232 
L 264.933731 122.013205 
L 266.019532 143.724064 
L 267.105333 94.719348 
L 268.191134 85.410582 
L 269.276935 94.765591 
L 270.362736 92.590112 
L 271.448538 105.976806 
L 272.534339 102.577804 
L 273.62014 112.181173 
L 274.705941 123.430329 
L 275.791742 105.390174 
L 276.877543 121.359722 
L 277.963344 131.4017 
L 279.049146 96.72014 
L 280.134947 99.650512 
L 281.220748 133.146361 
L 282.306549 115.68401 
L 283.39235 119.303947 
L 284.478151 101.635489 
L 285.563953 91.54726 
L 286.649754 106.718796 
L 287.735555 113.411378 
L 288.821356 92.710004 
L 289.907157 91.486185 
L 290.992958 99.23103 
L 292.07876 77.658929 
L 293.164561 124.564709 
L 294.250362 96.502184 
L 295.336163 95.15437 
L 296.421964 109.266727 
L 297.507765 107.072836 
L 298.593566 96.880012 
L 299.679368 85.408167 
L 300.765169 95.923723 
L 301.85097 83.600626 
L 302.936771 93.179988 
L 304.022572 83.893773 
L 305.108373 70.66254 
L 306.194175 74.77369 
L 307.279976 101.871178 
L 308.365777 112.391581 
L 309.451578 87.870285 
L 310.537379 68.555227 
L 311.62318 77.349045 
L 312.708981 95.666483 
L 313.794783 77.514358 
L 314.880584 80.261953 
L 315.966385 86.314966 
L 317.052186 89.893499 
L 318.137987 85.543565 
L 319.223788 77.14062 
L 320.30959 85.733363 
L 321.395391 89.121817 
L 322.481192 96.616754 
L 323.566993 107.982299 
L 324.652794 99.078551 
L 325.738595 102.528164 
L 326.824396 67.377699 
L 327.910198 94.05005 
L 328.995999 85.775109 
L 330.0818 82.110947 
L 331.167601 98.373573 
L 332.253402 91.991355 
L 333.339203 94.810355 
L 334.425005 100.030658 
L 335.510806 68.394687 
L 336.596607 101.22038 
L 337.682408 102.97701 
L 338.768209 103.853516 
L 339.85401 129.400545 
L 340.939811 106.157659 
L 342.025613 86.271563 
L 343.111414 85.455417 
L 344.197215 90.826335 
L 345.283016 116.008578 
L 346.368817 88.55584 
L 347.454618 103.160398 
L 348.54042 127.4899 
L 349.626221 110.721672 
L 350.712022 98.515115 
L 351.797823 120.373697 
L 352.883624 90.714802 
L 353.969425 111.154302 
L 355.055227 126.89441 
L 356.141028 86.528998 
L 357.226829 129.282639 
L 358.31263 106.964714 
L 359.398431 114.89748 
L 360.484232 115.659472 
L 361.570033 104.907368 
L 362.655835 98.029861 
L 363.741636 88.521043 
L 364.827437 94.99325 
L 365.913238 107.426777 
L 366.999039 106.454398 
L 368.08484 106.344682 
L 369.170642 127.174726 
L 370.256443 118.549561 
L 371.342244 121.387503 
L 372.428045 138.051154 
L 373.513846 106.374845 
L 374.599647 107.46988 
L 375.685448 100.369596 
L 376.77125 91.581766 
L 377.857051 100.039379 
L 378.942852 105.305337 
L 380.028653 93.921642 
L 381.114454 102.5185 
L 382.200255 108.831122 
L 383.286057 107.851944 
L 384.371858 95.31704 
L 385.457659 95.738482 
L 386.54346 88.221647 
L 387.629261 97.464887 
L 388.715062 99.311661 
L 389.800863 107.030072 
L 390.886665 104.864715 
L 391.972466 123.068035 
L 393.058267 119.260243 
L 394.144068 119.394775 
L 395.229869 99.024603 
L 396.31567 97.106393 
L 397.401472 132.040564 
L 398.487273 133.974426 
L 398.487273 133.974426 
" style="fill:none;stroke:#008000;stroke-dasharray:9.6,2.4,1.5,2.4;stroke-dashoffset:0;stroke-width:1.5;"/>
   </g>
   <g id="line2d_34">
    <path clip-path="url(#p3431cb2b28)" d="M 73.832727 270.73593 
L 74.918528 258.946686 
L 76.00433 264.63496 
L 77.090131 237.543713 
L 78.175932 232.185799 
L 79.261733 198.572706 
L 80.347534 179.257756 
L 81.433335 164.497329 
L 82.519137 164.414556 
L 83.604938 143.677452 
L 84.690739 144.179773 
L 85.77654 158.795734 
L 86.862341 132.096134 
L 87.948142 120.064615 
L 89.033943 118.47893 
L 90.119745 124.995736 
L 91.205546 124.913511 
L 92.291347 132.508924 
L 93.377148 106.046086 
L 94.462949 111.847113 
L 95.54875 92.97278 
L 96.634552 101.108255 
L 97.720353 83.08702 
L 98.806154 99.953416 
L 99.891955 111.854647 
L 100.977756 101.153528 
L 102.063557 103.732188 
L 103.149358 93.661826 
L 104.23516 91.091205 
L 105.320961 90.223858 
L 106.406762 81.330309 
L 107.492563 106.278619 
L 108.578364 91.886302 
L 109.664165 71.6981 
L 110.749967 89.332903 
L 111.835768 87.926335 
L 112.921569 118.942614 
L 114.00737 86.478695 
L 115.093171 89.249386 
L 116.178972 114.250285 
L 117.264773 70.879592 
L 118.350575 88.486688 
L 119.436376 99.392471 
L 121.607978 68.99543 
L 122.693779 100.618832 
L 123.77958 68.754072 
L 124.865382 116.148252 
L 125.951183 108.609655 
L 127.036984 87.323256 
L 128.122785 88.289911 
L 129.208586 67.26779 
L 130.294387 83.04969 
L 131.380189 72.99629 
L 132.46599 112.985505 
L 133.551791 81.043617 
L 134.637592 118.648744 
L 135.723393 96.926392 
L 136.809194 85.22464 
L 137.894995 98.650015 
L 138.980797 96.922118 
L 140.066598 111.748192 
L 141.152399 117.121117 
L 142.2382 112.073883 
L 143.324001 93.84167 
L 144.409802 85.684629 
L 145.495604 99.96817 
L 146.581405 104.062972 
L 147.667206 96.192546 
L 148.753007 115.572198 
L 149.838808 76.962777 
L 150.924609 80.862129 
L 152.01041 89.797154 
L 153.096212 78.234825 
L 154.182013 98.852681 
L 155.267814 99.499225 
L 156.353615 102.770482 
L 157.439416 89.723933 
L 158.525217 99.530196 
L 159.611019 87.259171 
L 160.69682 80.471418 
L 161.782621 113.513044 
L 162.868422 111.152188 
L 163.954223 99.09605 
L 165.040024 93.436916 
L 166.125825 109.501629 
L 167.211627 99.521392 
L 168.297428 102.138942 
L 169.383229 106.572779 
L 170.46903 103.688699 
L 171.554831 89.421695 
L 172.640632 100.483623 
L 173.726434 81.084668 
L 174.812235 103.028973 
L 175.898036 112.263055 
L 176.983837 77.392903 
L 178.069638 104.035354 
L 179.155439 74.614835 
L 180.24124 62.187042 
L 181.327042 90.986759 
L 182.412843 83.028498 
L 183.498644 76.164049 
L 184.584445 91.534892 
L 185.670246 83.978532 
L 186.756047 69.460452 
L 187.841849 85.639049 
L 188.92765 104.728484 
L 190.013451 87.409911 
L 191.099252 91.813407 
L 192.185053 97.854051 
L 193.270854 78.777736 
L 194.356656 74.19451 
L 195.442457 93.5967 
L 196.528258 80.618612 
L 198.69986 72.779171 
L 199.785661 65.512355 
L 200.871462 75.208161 
L 201.957264 63.945868 
L 203.043065 88.947354 
L 204.128866 82.674158 
L 205.214667 61.238191 
L 206.300468 77.800451 
L 207.386269 56.936027 
L 208.472071 79.577017 
L 209.557872 75.384218 
L 210.643673 78.271318 
L 211.729474 86.611139 
L 212.815275 86.795765 
L 213.901076 88.271146 
L 214.986877 71.791438 
L 216.072679 99.722987 
L 217.15848 75.458949 
L 218.244281 85.672784 
L 219.330082 60.635337 
L 220.415883 74.153564 
L 221.501684 74.450989 
L 222.587486 85.200919 
L 223.673287 73.421683 
L 224.759088 58.989008 
L 225.844889 85.108449 
L 226.93069 82.526398 
L 228.016491 74.356834 
L 229.102292 85.947329 
L 230.188094 62.043365 
L 231.273895 78.973022 
L 232.359696 78.983449 
L 233.445497 83.532174 
L 234.531298 102.790595 
L 235.617099 68.098335 
L 236.702901 82.322419 
L 237.788702 82.031154 
L 238.874503 87.649246 
L 239.960304 62.974414 
L 241.046105 60.341985 
L 242.131906 74.373459 
L 243.217708 78.502034 
L 244.303509 85.902203 
L 245.38931 69.877174 
L 247.560912 90.550664 
L 248.646713 82.514864 
L 249.732514 63.759443 
L 250.818316 72.523464 
L 251.904117 65.211518 
L 252.989918 73.365884 
L 254.075719 75.760344 
L 255.16152 74.282857 
L 256.247321 58.690779 
L 257.333123 63.930896 
L 258.418924 87.891123 
L 259.504725 77.831848 
L 260.590526 76.260226 
L 261.676327 69.120328 
L 262.762128 87.790814 
L 263.847929 102.498399 
L 264.933731 112.8599 
L 266.019532 130.38225 
L 267.105333 83.885205 
L 268.191134 79.565756 
L 269.276935 88.422259 
L 270.362736 82.100576 
L 271.448538 92.546549 
L 272.534339 93.94436 
L 273.62014 113.212647 
L 274.705941 97.776848 
L 275.791742 85.255718 
L 276.877543 117.265441 
L 277.963344 116.5905 
L 279.049146 77.87392 
L 280.134947 94.068051 
L 281.220748 123.75756 
L 282.306549 110.497413 
L 283.39235 99.486465 
L 284.478151 92.512668 
L 285.563953 86.474214 
L 286.649754 91.546202 
L 287.735555 105.052328 
L 288.821356 89.851803 
L 289.907157 79.735639 
L 290.992958 83.837266 
L 292.07876 76.619974 
L 293.164561 100.819539 
L 294.250362 86.910499 
L 295.336163 86.673638 
L 296.421964 93.389661 
L 297.507765 95.070656 
L 298.593566 86.070662 
L 299.679368 78.23399 
L 300.765169 94.325752 
L 301.85097 73.039735 
L 302.936771 101.286879 
L 305.108373 75.968252 
L 307.279976 94.908187 
L 308.365777 93.816847 
L 310.537379 74.125121 
L 311.62318 83.752903 
L 312.708981 82.092551 
L 313.794783 76.010922 
L 314.880584 64.501466 
L 315.966385 90.848487 
L 317.052186 90.974541 
L 319.223788 74.860975 
L 320.30959 76.32287 
L 321.395391 96.694515 
L 322.481192 94.330924 
L 323.566993 88.321389 
L 324.652794 91.690822 
L 325.738595 74.16074 
L 326.824396 53.568 
L 327.910198 80.269775 
L 328.995999 73.966941 
L 330.0818 80.353758 
L 331.167601 85.818469 
L 332.253402 88.698777 
L 333.339203 87.510382 
L 334.425005 94.302631 
L 335.510806 80.574704 
L 336.596607 87.344351 
L 337.682408 90.501929 
L 338.768209 84.805235 
L 339.85401 97.63596 
L 340.939811 92.264893 
L 342.025613 78.491156 
L 343.111414 76.329757 
L 344.197215 82.154564 
L 345.283016 100.806263 
L 346.368817 86.418859 
L 347.454618 90.407198 
L 348.54042 109.469765 
L 349.626221 103.946608 
L 350.712022 80.752717 
L 351.797823 103.344454 
L 352.883624 89.250245 
L 353.969425 89.91281 
L 355.055227 117.924466 
L 356.141028 82.467391 
L 357.226829 111.238523 
L 358.31263 101.5432 
L 359.398431 87.313155 
L 360.484232 95.274408 
L 361.570033 81.2258 
L 362.655835 94.197384 
L 363.741636 73.253979 
L 364.827437 90.91162 
L 365.913238 100.487714 
L 366.999039 95.979818 
L 368.08484 100.778536 
L 369.170642 125.215298 
L 370.256443 104.523435 
L 371.342244 117.246737 
L 372.428045 121.32801 
L 373.513846 112.671881 
L 374.599647 116.792117 
L 375.685448 88.984607 
L 376.77125 87.470371 
L 377.857051 99.821514 
L 378.942852 102.270397 
L 380.028653 95.86627 
L 382.200255 100.225099 
L 383.286057 103.280632 
L 384.371858 92.557799 
L 385.457659 87.325176 
L 386.54346 91.580472 
L 387.629261 100.793604 
L 388.715062 104.002861 
L 389.800863 105.650435 
L 390.886665 114.702691 
L 391.972466 118.90425 
L 393.058267 115.30677 
L 394.144068 119.032319 
L 395.229869 92.552727 
L 396.31567 87.959811 
L 397.401472 127.179063 
L 398.487273 119.599129 
L 398.487273 119.599129 
" style="fill:none;stroke:#ff0000;stroke-linecap:square;stroke-width:1.5;"/>
   </g>
   <g id="patch_3">
    <path d="M 57.6 307.584 
L 57.6 41.472 
" style="fill:none;stroke:#000000;stroke-linecap:square;stroke-linejoin:miter;stroke-width:0.8;"/>
   </g>
   <g id="patch_4">
    <path d="M 414.72 307.584 
L 414.72 41.472 
" style="fill:none;stroke:#000000;stroke-linecap:square;stroke-linejoin:miter;stroke-width:0.8;"/>
   </g>
   <g id="patch_5">
    <path d="M 57.6 307.584 
L 414.72 307.584 
" style="fill:none;stroke:#000000;stroke-linecap:square;stroke-linejoin:miter;stroke-width:0.8;"/>
   </g>
   <g id="patch_6">
    <path d="M 57.6 41.472 
L 414.72 41.472 
" style="fill:none;stroke:#000000;stroke-linecap:square;stroke-linejoin:miter;stroke-width:0.8;"/>
   </g>
   <g id="text_18">
    <!-- Population's average and best fitness -->
    <defs>
     <path d="M 19.671875 64.796875 
L 19.671875 37.40625 
L 32.078125 37.40625 
Q 38.96875 37.40625 42.71875 40.96875 
Q 46.484375 44.53125 46.484375 51.125 
Q 46.484375 57.671875 42.71875 61.234375 
Q 38.96875 64.796875 32.078125 64.796875 
z
M 9.8125 72.90625 
L 32.078125 72.90625 
Q 44.34375 72.90625 50.609375 67.359375 
Q 56.890625 61.8125 56.890625 51.125 
Q 56.890625 40.328125 50.609375 34.8125 
Q 44.34375 29.296875 32.078125 29.296875 
L 19.671875 29.296875 
L 19.671875 0 
L 9.8125 0 
z
" id="DejaVuSans-80"/>
     <path d="M 18.109375 8.203125 
L 18.109375 -20.796875 
L 9.078125 -20.796875 
L 9.078125 54.6875 
L 18.109375 54.6875 
L 18.109375 46.390625 
Q 20.953125 51.265625 25.265625 53.625 
Q 29.59375 56 35.59375 56 
Q 45.5625 56 51.78125 48.09375 
Q 58.015625 40.1875 58.015625 27.296875 
Q 58.015625 14.40625 51.78125 6.484375 
Q 45.5625 -1.421875 35.59375 -1.421875 
Q 29.59375 -1.421875 25.265625 0.953125 
Q 20.953125 3.328125 18.109375 8.203125 
z
M 48.6875 27.296875 
Q 48.6875 37.203125 44.609375 42.84375 
Q 40.53125 48.484375 33.40625 48.484375 
Q 26.265625 48.484375 22.1875 42.84375 
Q 18.109375 37.203125 18.109375 27.296875 
Q 18.109375 17.390625 22.1875 11.75 
Q 26.265625 6.109375 33.40625 6.109375 
Q 40.53125 6.109375 44.609375 11.75 
Q 48.6875 17.390625 48.6875 27.296875 
z
" id="DejaVuSans-112"/>
     <path d="M 8.5 21.578125 
L 8.5 54.6875 
L 17.484375 54.6875 
L 17.484375 21.921875 
Q 17.484375 14.15625 20.5 10.265625 
Q 23.53125 6.390625 29.59375 6.390625 
Q 36.859375 6.390625 41.078125 11.03125 
Q 45.3125 15.671875 45.3125 23.6875 
L 45.3125 54.6875 
L 54.296875 54.6875 
L 54.296875 0 
L 45.3125 0 
L 45.3125 8.40625 
Q 42.046875 3.421875 37.71875 1 
Q 33.40625 -1.421875 27.6875 -1.421875 
Q 18.265625 -1.421875 13.375 4.4375 
Q 8.5 10.296875 8.5 21.578125 
z
M 31.109375 56 
z
" id="DejaVuSans-117"/>
     <path d="M 9.421875 75.984375 
L 18.40625 75.984375 
L 18.40625 0 
L 9.421875 0 
z
" id="DejaVuSans-108"/>
     <path d="M 17.921875 72.90625 
L 17.921875 45.796875 
L 9.625 45.796875 
L 9.625 72.90625 
z
" id="DejaVuSans-39"/>
     <path id="DejaVuSans-32"/>
     <path d="M 2.984375 54.6875 
L 12.5 54.6875 
L 29.59375 8.796875 
L 46.6875 54.6875 
L 56.203125 54.6875 
L 35.6875 0 
L 23.484375 0 
z
" id="DejaVuSans-118"/>
     <path d="M 45.40625 27.984375 
Q 45.40625 37.75 41.375 43.109375 
Q 37.359375 48.484375 30.078125 48.484375 
Q 22.859375 48.484375 18.828125 43.109375 
Q 14.796875 37.75 14.796875 27.984375 
Q 14.796875 18.265625 18.828125 12.890625 
Q 22.859375 7.515625 30.078125 7.515625 
Q 37.359375 7.515625 41.375 12.890625 
Q 45.40625 18.265625 45.40625 27.984375 
z
M 54.390625 6.78125 
Q 54.390625 -7.171875 48.1875 -13.984375 
Q 42 -20.796875 29.203125 -20.796875 
Q 24.46875 -20.796875 20.265625 -20.09375 
Q 16.0625 -19.390625 12.109375 -17.921875 
L 12.109375 -9.1875 
Q 16.0625 -11.328125 19.921875 -12.34375 
Q 23.78125 -13.375 27.78125 -13.375 
Q 36.625 -13.375 41.015625 -8.765625 
Q 45.40625 -4.15625 45.40625 5.171875 
L 45.40625 9.625 
Q 42.625 4.78125 38.28125 2.390625 
Q 33.9375 0 27.875 0 
Q 17.828125 0 11.671875 7.65625 
Q 5.515625 15.328125 5.515625 27.984375 
Q 5.515625 40.671875 11.671875 48.328125 
Q 17.828125 56 27.875 56 
Q 33.9375 56 38.28125 53.609375 
Q 42.625 51.21875 45.40625 46.390625 
L 45.40625 54.6875 
L 54.390625 54.6875 
z
" id="DejaVuSans-103"/>
     <path d="M 45.40625 46.390625 
L 45.40625 75.984375 
L 54.390625 75.984375 
L 54.390625 0 
L 45.40625 0 
L 45.40625 8.203125 
Q 42.578125 3.328125 38.25 0.953125 
Q 33.9375 -1.421875 27.875 -1.421875 
Q 17.96875 -1.421875 11.734375 6.484375 
Q 5.515625 14.40625 5.515625 27.296875 
Q 5.515625 40.1875 11.734375 48.09375 
Q 17.96875 56 27.875 56 
Q 33.9375 56 38.25 53.625 
Q 42.578125 51.265625 45.40625 46.390625 
z
M 14.796875 27.296875 
Q 14.796875 17.390625 18.875 11.75 
Q 22.953125 6.109375 30.078125 6.109375 
Q 37.203125 6.109375 41.296875 11.75 
Q 45.40625 17.390625 45.40625 27.296875 
Q 45.40625 37.203125 41.296875 42.84375 
Q 37.203125 48.484375 30.078125 48.484375 
Q 22.953125 48.484375 18.875 42.84375 
Q 14.796875 37.203125 14.796875 27.296875 
z
" id="DejaVuSans-100"/>
     <path d="M 48.6875 27.296875 
Q 48.6875 37.203125 44.609375 42.84375 
Q 40.53125 48.484375 33.40625 48.484375 
Q 26.265625 48.484375 22.1875 42.84375 
Q 18.109375 37.203125 18.109375 27.296875 
Q 18.109375 17.390625 22.1875 11.75 
Q 26.265625 6.109375 33.40625 6.109375 
Q 40.53125 6.109375 44.609375 11.75 
Q 48.6875 17.390625 48.6875 27.296875 
z
M 18.109375 46.390625 
Q 20.953125 51.265625 25.265625 53.625 
Q 29.59375 56 35.59375 56 
Q 45.5625 56 51.78125 48.09375 
Q 58.015625 40.1875 58.015625 27.296875 
Q 58.015625 14.40625 51.78125 6.484375 
Q 45.5625 -1.421875 35.59375 -1.421875 
Q 29.59375 -1.421875 25.265625 0.953125 
Q 20.953125 3.328125 18.109375 8.203125 
L 18.109375 0 
L 9.078125 0 
L 9.078125 75.984375 
L 18.109375 75.984375 
z
" id="DejaVuSans-98"/>
     <path d="M 37.109375 75.984375 
L 37.109375 68.5 
L 28.515625 68.5 
Q 23.6875 68.5 21.796875 66.546875 
Q 19.921875 64.59375 19.921875 59.515625 
L 19.921875 54.6875 
L 34.71875 54.6875 
L 34.71875 47.703125 
L 19.921875 47.703125 
L 19.921875 0 
L 10.890625 0 
L 10.890625 47.703125 
L 2.296875 47.703125 
L 2.296875 54.6875 
L 10.890625 54.6875 
L 10.890625 58.5 
Q 10.890625 67.625 15.140625 71.796875 
Q 19.390625 75.984375 28.609375 75.984375 
z
" id="DejaVuSans-102"/>
    </defs>
    <g transform="translate(123.315 35.472)scale(0.12 -0.12)">
     <use xlink:href="#DejaVuSans-80"/>
     <use x="60.255859" xlink:href="#DejaVuSans-111"/>
     <use x="121.4375" xlink:href="#DejaVuSans-112"/>
     <use x="184.914062" xlink:href="#DejaVuSans-117"/>
     <use x="248.292969" xlink:href="#DejaVuSans-108"/>
     <use x="276.076172" xlink:href="#DejaVuSans-97"/>
     <use x="337.355469" xlink:href="#DejaVuSans-116"/>
     <use x="376.564453" xlink:href="#DejaVuSans-105"/>
     <use x="404.347656" xlink:href="#DejaVuSans-111"/>
     <use x="465.529297" xlink:href="#DejaVuSans-110"/>
     <use x="528.908203" xlink:href="#DejaVuSans-39"/>
     <use x="556.398438" xlink:href="#DejaVuSans-115"/>
     <use x="608.498047" xlink:href="#DejaVuSans-32"/>
     <use x="640.285156" xlink:href="#DejaVuSans-97"/>
     <use x="701.564453" xlink:href="#DejaVuSans-118"/>
     <use x="760.744141" xlink:href="#DejaVuSans-101"/>
     <use x="822.267578" xlink:href="#DejaVuSans-114"/>
     <use x="863.380859" xlink:href="#DejaVuSans-97"/>
     <use x="924.660156" xlink:href="#DejaVuSans-103"/>
     <use x="988.136719" xlink:href="#DejaVuSans-101"/>
     <use x="1049.660156" xlink:href="#DejaVuSans-32"/>
     <use x="1081.447266" xlink:href="#DejaVuSans-97"/>
     <use x="1142.726562" xlink:href="#DejaVuSans-110"/>
     <use x="1206.105469" xlink:href="#DejaVuSans-100"/>
     <use x="1269.582031" xlink:href="#DejaVuSans-32"/>
     <use x="1301.369141" xlink:href="#DejaVuSans-98"/>
     <use x="1364.845703" xlink:href="#DejaVuSans-101"/>
     <use x="1426.369141" xlink:href="#DejaVuSans-115"/>
     <use x="1478.46875" xlink:href="#DejaVuSans-116"/>
     <use x="1517.677734" xlink:href="#DejaVuSans-32"/>
     <use x="1549.464844" xlink:href="#DejaVuSans-102"/>
     <use x="1584.669922" xlink:href="#DejaVuSans-105"/>
     <use x="1612.453125" xlink:href="#DejaVuSans-116"/>
     <use x="1651.662109" xlink:href="#DejaVuSans-110"/>
     <use x="1715.041016" xlink:href="#DejaVuSans-101"/>
     <use x="1776.564453" xlink:href="#DejaVuSans-115"/>
     <use x="1828.664062" xlink:href="#DejaVuSans-115"/>
    </g>
   </g>
   <g id="legend_1">
    <g id="patch_7">
     <path d="M 334.779375 302.584 
L 407.72 302.584 
Q 409.72 302.584 409.72 300.584 
L 409.72 242.8715 
Q 409.72 240.8715 407.72 240.8715 
L 334.779375 240.8715 
Q 332.779375 240.8715 332.779375 242.8715 
L 332.779375 300.584 
Q 332.779375 302.584 334.779375 302.584 
z
" style="fill:#ffffff;opacity:0.8;stroke:#cccccc;stroke-linejoin:miter;"/>
    </g>
    <g id="line2d_35">
     <path d="M 336.779375 248.969937 
L 356.779375 248.969937 
" style="fill:none;stroke:#0000ff;stroke-linecap:square;stroke-width:1.5;"/>
    </g>
    <g id="line2d_36"/>
    <g id="text_19">
     <!-- average -->
     <g transform="translate(364.779375 252.469937)scale(0.1 -0.1)">
      <use xlink:href="#DejaVuSans-97"/>
      <use x="61.279297" xlink:href="#DejaVuSans-118"/>
      <use x="120.458984" xlink:href="#DejaVuSans-101"/>
      <use x="181.982422" xlink:href="#DejaVuSans-114"/>
      <use x="223.095703" xlink:href="#DejaVuSans-97"/>
      <use x="284.375" xlink:href="#DejaVuSans-103"/>
      <use x="347.851562" xlink:href="#DejaVuSans-101"/>
     </g>
    </g>
    <g id="line2d_37">
     <path d="M 336.779375 263.648062 
L 356.779375 263.648062 
" style="fill:none;stroke:#008000;stroke-dasharray:9.6,2.4,1.5,2.4;stroke-dashoffset:0;stroke-width:1.5;"/>
    </g>
    <g id="line2d_38"/>
    <g id="text_20">
     <!-- -1 sd -->
     <defs>
      <path d="M 4.890625 31.390625 
L 31.203125 31.390625 
L 31.203125 23.390625 
L 4.890625 23.390625 
z
" id="DejaVuSans-45"/>
     </defs>
     <g transform="translate(364.779375 267.148062)scale(0.1 -0.1)">
      <use xlink:href="#DejaVuSans-45"/>
      <use x="36.083984" xlink:href="#DejaVuSans-49"/>
      <use x="99.707031" xlink:href="#DejaVuSans-32"/>
      <use x="131.494141" xlink:href="#DejaVuSans-115"/>
      <use x="183.59375" xlink:href="#DejaVuSans-100"/>
     </g>
    </g>
    <g id="line2d_39">
     <path d="M 336.779375 278.326187 
L 356.779375 278.326187 
" style="fill:none;stroke:#008000;stroke-dasharray:9.6,2.4,1.5,2.4;stroke-dashoffset:0;stroke-width:1.5;"/>
    </g>
    <g id="line2d_40"/>
    <g id="text_21">
     <!-- +1 sd -->
     <defs>
      <path d="M 46 62.703125 
L 46 35.5 
L 73.1875 35.5 
L 73.1875 27.203125 
L 46 27.203125 
L 46 0 
L 37.796875 0 
L 37.796875 27.203125 
L 10.59375 27.203125 
L 10.59375 35.5 
L 37.796875 35.5 
L 37.796875 62.703125 
z
" id="DejaVuSans-43"/>
     </defs>
     <g transform="translate(364.779375 281.826187)scale(0.1 -0.1)">
      <use xlink:href="#DejaVuSans-43"/>
      <use x="83.789062" xlink:href="#DejaVuSans-49"/>
      <use x="147.412109" xlink:href="#DejaVuSans-32"/>
      <use x="179.199219" xlink:href="#DejaVuSans-115"/>
      <use x="231.298828" xlink:href="#DejaVuSans-100"/>
     </g>
    </g>
    <g id="line2d_41">
     <path d="M 336.779375 293.004312 
L 356.779375 293.004312 
" style="fill:none;stroke:#ff0000;stroke-linecap:square;stroke-width:1.5;"/>
    </g>
    <g id="line2d_42"/>
    <g id="text_22">
     <!-- best -->
     <g transform="translate(364.779375 296.504312)scale(0.1 -0.1)">
      <use xlink:href="#DejaVuSans-98"/>
      <use x="63.476562" xlink:href="#DejaVuSans-101"/>
      <use x="125" xlink:href="#DejaVuSans-115"/>
      <use x="177.099609" xlink:href="#DejaVuSans-116"/>
     </g>
    </g>
   </g>
  </g>
 </g>
 <defs>
  <clipPath id="p3431cb2b28">
   <rect height="266.112" width="357.12" x="57.6" y="41.472"/>
  </clipPath>
 </defs>
</svg>
