<?xml version="1.0" encoding="UTF-8" standalone="no"?>
<!DOCTYPE svg PUBLIC "-//W3C//DTD SVG 1.1//EN"
 "http://www.w3.org/Graphics/SVG/1.1/DTD/svg11.dtd">
<!-- Generated by graphviz version 2.40.1 (20161225.0304)
 -->
<!-- Title: %3 Pages: 1 -->
<svg width="485pt" height="266pt"
 viewBox="0.00 0.00 484.77 265.93" xmlns="http://www.w3.org/2000/svg" xmlns:xlink="http://www.w3.org/1999/xlink">
<g id="graph0" class="graph" transform="scale(1 1) rotate(0) translate(4 261.9326)">
<title>%3</title>
<polygon fill="#ffffff" stroke="transparent" points="-4,4 -4,-261.9326 480.7661,-261.9326 480.7661,4 -4,4"/>
<!-- 0 -->
<g id="node1" class="node">
<title>0</title>
<polygon fill="#d3d3d3" stroke="#000000" points="214.389,-257.9326 194.3771,-257.9326 194.3771,-240.9326 214.389,-240.9326 214.389,-257.9326"/>
<text text-anchor="middle" x="204.383" y="-246.7326" font-family="Times,serif" font-size="9.00" fill="#000000">0</text>
</g>
<!-- 1 -->
<g id="node2" class="node">
<title>1</title>
<polygon fill="#d3d3d3" stroke="#000000" points="285.389,-257.9326 265.3771,-257.9326 265.3771,-240.9326 285.389,-240.9326 285.389,-257.9326"/>
<text text-anchor="middle" x="275.383" y="-246.7326" font-family="Times,serif" font-size="9.00" fill="#000000">1</text>
</g>
<!-- 0&#45;&gt;1 -->
<!-- E0 -->
<g id="node4" class="node">
<title>E0</title>
<ellipse fill="#87cefa" stroke="#000000" cx="18.383" cy="-18.383" rx="18.2668" ry="18.2668"/>
<text text-anchor="middle" x="18.383" y="-15.683" font-family="Times,serif" font-size="9.00" fill="#000000">E0</text>
</g>
<!-- 0&#45;&gt;E0 -->
<g id="edge11" class="edge">
<title>0&#45;&gt;E0</title>
<path fill="none" stroke="#ff0000" stroke-width="1.9899" d="M197.3188,-240.6573C170.7218,-207.6185 76.1092,-90.0905 36.2707,-40.6032"/>
<polygon fill="#ff0000" stroke="#ff0000" stroke-width="1.9899" points="38.9275,-38.322 29.9304,-32.7272 33.4748,-42.7115 38.9275,-38.322"/>
</g>
<!-- 2 -->
<g id="node3" class="node">
<title>2</title>
<polygon fill="#d3d3d3" stroke="#000000" points="330.389,-257.9326 310.3771,-257.9326 310.3771,-240.9326 330.389,-240.9326 330.389,-257.9326"/>
<text text-anchor="middle" x="320.383" y="-246.7326" font-family="Times,serif" font-size="9.00" fill="#000000">2</text>
</g>
<!-- 1&#45;&gt;2 -->
<!-- E6 -->
<g id="node10" class="node">
<title>E6</title>
<ellipse fill="#87cefa" stroke="#000000" cx="348.383" cy="-18.383" rx="18.2668" ry="18.2668"/>
<text text-anchor="middle" x="348.383" y="-15.683" font-family="Times,serif" font-size="9.00" fill="#000000">E6</text>
</g>
<!-- 1&#45;&gt;E6 -->
<g id="edge12" class="edge">
<title>1&#45;&gt;E6</title>
<path fill="none" stroke="#00ff00" stroke-width="1.1271" d="M274.3817,-240.8025C271.6862,-214.2185 266.2615,-131.8092 294.383,-72.7661 301.381,-58.0734 314.0189,-45.0062 325.3099,-35.3652"/>
<polygon fill="#00ff00" stroke="#00ff00" stroke-width="1.1271" points="327.6281,-37.9916 333.1936,-28.9763 323.2208,-32.5532 327.6281,-37.9916"/>
</g>
<!-- 4001 -->
<g id="node13" class="node">
<title>4001</title>
<ellipse fill="#add8e6" stroke="#000000" cx="327.383" cy="-96.8077" rx="24.0833" ry="24.0833"/>
<text text-anchor="middle" x="327.383" y="-98.6077" font-family="Times,serif" font-size="9.00" fill="#000000">4001</text>
<text text-anchor="middle" x="327.383" y="-89.6077" font-family="Times,serif" font-size="9.00" fill="#000000">sigm</text>
</g>
<!-- 2&#45;&gt;4001 -->
<g id="edge18" class="edge">
<title>2&#45;&gt;4001</title>
<path fill="none" stroke="#00ff00" stroke-width=".4354" d="M320.7795,-240.7895C321.7257,-220.159 324.1588,-167.1068 325.7924,-131.4896"/>
<polygon fill="#00ff00" stroke="#00ff00" stroke-width=".4354" points="329.3092,-131.2008 326.2712,-121.0509 322.3166,-130.88 329.3092,-131.2008"/>
</g>
<!-- 4210 -->
<g id="node14" class="node">
<title>4210</title>
<ellipse fill="#add8e6" stroke="#000000" cx="372.383" cy="-180.891" rx="24.0833" ry="24.0833"/>
<text text-anchor="middle" x="372.383" y="-182.691" font-family="Times,serif" font-size="9.00" fill="#000000">4210</text>
<text text-anchor="middle" x="372.383" y="-173.691" font-family="Times,serif" font-size="9.00" fill="#000000">sigm</text>
</g>
<!-- 2&#45;&gt;4210 -->
<g id="edge14" class="edge">
<title>2&#45;&gt;4210</title>
<path fill="none" stroke="#00ff00" stroke-width=".5886" d="M326.9689,-240.7518C333.1704,-232.5775 342.7957,-219.8904 351.5916,-208.2964"/>
<polygon fill="#00ff00" stroke="#00ff00" stroke-width=".5886" points="354.5332,-210.2098 357.789,-200.1275 348.9565,-205.9789 354.5332,-210.2098"/>
</g>
<!-- E1 -->
<g id="node5" class="node">
<title>E1</title>
<ellipse fill="#87cefa" stroke="#000000" cx="73.383" cy="-18.383" rx="18.2668" ry="18.2668"/>
<text text-anchor="middle" x="73.383" y="-15.683" font-family="Times,serif" font-size="9.00" fill="#000000">E1</text>
</g>
<!-- E0&#45;&gt;E1 -->
<!-- E2 -->
<g id="node6" class="node">
<title>E2</title>
<ellipse fill="#87cefa" stroke="#000000" cx="128.383" cy="-18.383" rx="18.2668" ry="18.2668"/>
<text text-anchor="middle" x="128.383" y="-15.683" font-family="Times,serif" font-size="9.00" fill="#000000">E2</text>
</g>
<!-- E1&#45;&gt;E2 -->
<!-- E3 -->
<g id="node7" class="node">
<title>E3</title>
<ellipse fill="#87cefa" stroke="#000000" cx="183.383" cy="-18.383" rx="18.2668" ry="18.2668"/>
<text text-anchor="middle" x="183.383" y="-15.683" font-family="Times,serif" font-size="9.00" fill="#000000">E3</text>
</g>
<!-- E2&#45;&gt;E3 -->
<!-- E4 -->
<g id="node8" class="node">
<title>E4</title>
<ellipse fill="#87cefa" stroke="#000000" cx="238.383" cy="-18.383" rx="18.2668" ry="18.2668"/>
<text text-anchor="middle" x="238.383" y="-15.683" font-family="Times,serif" font-size="9.00" fill="#000000">E4</text>
</g>
<!-- E3&#45;&gt;E4 -->
<!-- E5 -->
<g id="node9" class="node">
<title>E5</title>
<ellipse fill="#87cefa" stroke="#000000" cx="293.383" cy="-18.383" rx="18.2668" ry="18.2668"/>
<text text-anchor="middle" x="293.383" y="-15.683" font-family="Times,serif" font-size="9.00" fill="#000000">E5</text>
</g>
<!-- E4&#45;&gt;E5 -->
<!-- E5&#45;&gt;E6 -->
<!-- E7 -->
<g id="node11" class="node">
<title>E7</title>
<ellipse fill="#87cefa" stroke="#000000" cx="403.383" cy="-18.383" rx="18.2668" ry="18.2668"/>
<text text-anchor="middle" x="403.383" y="-15.683" font-family="Times,serif" font-size="9.00" fill="#000000">E7</text>
</g>
<!-- E6&#45;&gt;E7 -->
<!-- E8 -->
<g id="node12" class="node">
<title>E8</title>
<ellipse fill="#87cefa" stroke="#000000" cx="458.383" cy="-18.383" rx="18.2668" ry="18.2668"/>
<text text-anchor="middle" x="458.383" y="-15.683" font-family="Times,serif" font-size="9.00" fill="#000000">E8</text>
</g>
<!-- E7&#45;&gt;E8 -->
<!-- 4001&#45;&gt;E4 -->
<g id="edge13" class="edge">
<title>4001&#45;&gt;E4</title>
<path fill="none" stroke="#ff0000" stroke-width="1.5663" d="M308.9422,-80.5581C294.7655,-68.0659 275.1406,-50.7729 260.1859,-37.5952"/>
<polygon fill="#ff0000" stroke="#ff0000" stroke-width="1.5663" points="262.2392,-34.7395 252.4225,-30.7542 257.6113,-39.9915 262.2392,-34.7395"/>
</g>
<!-- 4210&#45;&gt;E7 -->
<g id="edge16" class="edge">
<title>4210&#45;&gt;E7</title>
<path fill="none" stroke="#ff0000" stroke-width=".1308" d="M376.8907,-157.2609C382.5031,-127.8398 392.0769,-77.6519 398.0489,-46.3458"/>
<polygon fill="#ff0000" stroke="#ff0000" stroke-width=".1308" points="401.4893,-46.9888 399.9251,-36.5101 394.6132,-45.6771 401.4893,-46.9888"/>
</g>
<!-- 4210&#45;&gt;4001 -->
<g id="edge15" class="edge">
<title>4210&#45;&gt;4001</title>
<path fill="none" stroke="#ff0000" stroke-width=".1827" d="M361.0276,-159.6732C355.7515,-149.8147 349.3816,-137.9123 343.6101,-127.1283"/>
<polygon fill="#ff0000" stroke="#ff0000" stroke-width=".1827" points="346.5393,-125.1839 338.7348,-118.0187 340.3676,-128.487 346.5393,-125.1839"/>
</g>
<!-- 5054 -->
<g id="node15" class="node">
<title>5054</title>
<ellipse fill="#add8e6" stroke="#000000" cx="191.383" cy="-96.8077" rx="24.0833" ry="24.0833"/>
<text text-anchor="middle" x="191.383" y="-98.6077" font-family="Times,serif" font-size="9.00" fill="#000000">5054</text>
<text text-anchor="middle" x="191.383" y="-89.6077" font-family="Times,serif" font-size="9.00" fill="#000000">sigm</text>
</g>
<!-- 5054&#45;&gt;E3 -->
<g id="edge17" class="edge">
<title>5054&#45;&gt;E3</title>
<path fill="none" stroke="#00ff00" stroke-width=".2512" d="M188.9393,-72.8516C188.1122,-64.7434 187.1799,-55.6042 186.3187,-47.161"/>
<polygon fill="#00ff00" stroke="#00ff00" stroke-width=".2512" points="189.7758,-46.5618 185.2789,-36.9686 182.8119,-47.2722 189.7758,-46.5618"/>
</g>
<!-- 5054&#45;&gt;E5 -->
<g id="edge19" class="edge">
<title>5054&#45;&gt;E5</title>
<path fill="none" stroke="#00ff00" stroke-width=".4461" d="M210.5685,-82.0566C227.5294,-69.0159 252.3068,-49.9653 270.3379,-36.1018"/>
<polygon fill="#00ff00" stroke="#00ff00" stroke-width=".4461" points="272.7895,-38.6318 278.5837,-29.7618 268.5227,-33.0825 272.7895,-38.6318"/>
</g>
</g>
</svg>
