<?xml version="1.0" encoding="UTF-8" standalone="no"?>
<!DOCTYPE svg PUBLIC "-//W3C//DTD SVG 1.1//EN"
 "http://www.w3.org/Graphics/SVG/1.1/DTD/svg11.dtd">
<!-- Generated by graphviz version 2.40.1 (20161225.0304)
 -->
<!-- Title: %3 Pages: 1 -->
<svg width="389pt" height="175pt"
 viewBox="0.00 0.00 388.94 174.79" xmlns="http://www.w3.org/2000/svg" xmlns:xlink="http://www.w3.org/1999/xlink">
<g id="graph0" class="graph" transform="scale(1 1) rotate(0) translate(4 170.7893)">
<title>%3</title>
<polygon fill="#ffffff" stroke="transparent" points="-4,4 -4,-170.7893 384.9357,-170.7893 384.9357,4 -4,4"/>
<!-- E0 -->
<g id="node1" class="node">
<title>E0</title>
<polygon fill="#d3d3d3" stroke="#000000" points="28.9345,-166.7893 2.9394,-166.7893 2.9394,-149.7893 28.9345,-149.7893 28.9345,-166.7893"/>
<text text-anchor="middle" x="15.9369" y="-155.5893" font-family="Times,serif" font-size="9.00" fill="#000000">E0</text>
</g>
<!-- E1 -->
<g id="node2" class="node">
<title>E1</title>
<polygon fill="#d3d3d3" stroke="#000000" points="72.9345,-166.7893 46.9394,-166.7893 46.9394,-149.7893 72.9345,-149.7893 72.9345,-166.7893"/>
<text text-anchor="middle" x="59.9369" y="-155.5893" font-family="Times,serif" font-size="9.00" fill="#000000">E1</text>
</g>
<!-- E0&#45;&gt;E1 -->
<!-- 1 -->
<g id="node11" class="node">
<title>1</title>
<ellipse fill="#87cefa" stroke="#000000" cx="77.9369" cy="-14.853" rx="14.4914" ry="14.4914"/>
<text text-anchor="middle" x="77.9369" y="-12.153" font-family="Times,serif" font-size="9.00" fill="#000000">1</text>
</g>
<!-- E0&#45;&gt;1 -->
<g id="edge12" class="edge">
<title>E0&#45;&gt;1</title>
<path fill="none" stroke="#ff0000" stroke-width="1.163" d="M12.0895,-149.5319C5.1702,-132.3726 -7.3809,-93.5726 6.9369,-65.7061 9.731,-60.268 37.19,-41.4948 57.1236,-28.3493"/>
<polygon fill="#ff0000" stroke="#ff0000" stroke-width="1.163" points="59.1891,-31.1804 65.6371,-22.7737 55.354,-25.3245 59.1891,-31.1804"/>
</g>
<!-- 4524 -->
<g id="node16" class="node">
<title>4524</title>
<ellipse fill="#add8e6" stroke="#000000" cx="39.9369" cy="-89.7477" rx="24.0833" ry="24.0833"/>
<text text-anchor="middle" x="39.9369" y="-91.5477" font-family="Times,serif" font-size="9.00" fill="#000000">4524</text>
<text text-anchor="middle" x="39.9369" y="-82.5477" font-family="Times,serif" font-size="9.00" fill="#000000">sigm</text>
</g>
<!-- E0&#45;&gt;4524 -->
<g id="edge16" class="edge">
<title>E0&#45;&gt;4524</title>
<path fill="none" stroke="#00ff00" stroke-width=".1326" d="M18.9765,-149.6085C21.4426,-142.5655 25.0818,-132.1725 28.6385,-122.0149"/>
<polygon fill="#00ff00" stroke="#00ff00" stroke-width=".1326" points="31.9807,-123.0603 31.9822,-112.4655 25.374,-120.7469 31.9807,-123.0603"/>
</g>
<!-- E2 -->
<g id="node3" class="node">
<title>E2</title>
<polygon fill="#d3d3d3" stroke="#000000" points="116.9345,-166.7893 90.9394,-166.7893 90.9394,-149.7893 116.9345,-149.7893 116.9345,-166.7893"/>
<text text-anchor="middle" x="103.9369" y="-155.5893" font-family="Times,serif" font-size="9.00" fill="#000000">E2</text>
</g>
<!-- E1&#45;&gt;E2 -->
<!-- 2 -->
<g id="node12" class="node">
<title>2</title>
<ellipse fill="#87cefa" stroke="#000000" cx="124.9369" cy="-14.853" rx="14.4914" ry="14.4914"/>
<text text-anchor="middle" x="124.9369" y="-12.153" font-family="Times,serif" font-size="9.00" fill="#000000">2</text>
</g>
<!-- E1&#45;&gt;2 -->
<g id="edge13" class="edge">
<title>E1&#45;&gt;2</title>
<path fill="none" stroke="#ff0000" stroke-width="4.6623" d="M63.8083,-149.7463C73.6661,-127.9929 99.9715,-69.9445 114.6587,-37.5341"/>
<polygon fill="#ff0000" stroke="#ff0000" stroke-width="4.6623" points="118.4009,-39.1596 118.8127,-28.3674 110.9693,-35.7919 118.4009,-39.1596"/>
</g>
<!-- E3 -->
<g id="node4" class="node">
<title>E3</title>
<polygon fill="#d3d3d3" stroke="#000000" points="160.9345,-166.7893 134.9394,-166.7893 134.9394,-149.7893 160.9345,-149.7893 160.9345,-166.7893"/>
<text text-anchor="middle" x="147.9369" y="-155.5893" font-family="Times,serif" font-size="9.00" fill="#000000">E3</text>
</g>
<!-- E2&#45;&gt;E3 -->
<!-- 0 -->
<g id="node10" class="node">
<title>0</title>
<ellipse fill="#87cefa" stroke="#000000" cx="30.9369" cy="-14.853" rx="14.4914" ry="14.4914"/>
<text text-anchor="middle" x="30.9369" y="-12.153" font-family="Times,serif" font-size="9.00" fill="#000000">0</text>
</g>
<!-- E2&#45;&gt;0 -->
<g id="edge14" class="edge">
<title>E2&#45;&gt;0</title>
<path fill="none" stroke="#00ff00" stroke-width="2.7042" d="M102.171,-149.6877C98.4698,-132.8015 88.896,-94.458 72.9369,-65.7061 66.3179,-53.7813 56.7662,-41.9445 48.4435,-32.6953"/>
<polygon fill="#00ff00" stroke="#00ff00" stroke-width="2.7042" points="50.928,-30.2274 41.5507,-25.2961 45.806,-34.9988 50.928,-30.2274"/>
</g>
<!-- E4 -->
<g id="node5" class="node">
<title>E4</title>
<polygon fill="#d3d3d3" stroke="#000000" points="204.9345,-166.7893 178.9394,-166.7893 178.9394,-149.7893 204.9345,-149.7893 204.9345,-166.7893"/>
<text text-anchor="middle" x="191.9369" y="-155.5893" font-family="Times,serif" font-size="9.00" fill="#000000">E4</text>
</g>
<!-- E3&#45;&gt;E4 -->
<!-- E5 -->
<g id="node6" class="node">
<title>E5</title>
<polygon fill="#d3d3d3" stroke="#000000" points="248.9345,-166.7893 222.9394,-166.7893 222.9394,-149.7893 248.9345,-149.7893 248.9345,-166.7893"/>
<text text-anchor="middle" x="235.9369" y="-155.5893" font-family="Times,serif" font-size="9.00" fill="#000000">E5</text>
</g>
<!-- E4&#45;&gt;E5 -->
<!-- E6 -->
<g id="node7" class="node">
<title>E6</title>
<polygon fill="#d3d3d3" stroke="#000000" points="292.9345,-166.7893 266.9394,-166.7893 266.9394,-149.7893 292.9345,-149.7893 292.9345,-166.7893"/>
<text text-anchor="middle" x="279.9369" y="-155.5893" font-family="Times,serif" font-size="9.00" fill="#000000">E6</text>
</g>
<!-- E5&#45;&gt;E6 -->
<!-- E7 -->
<g id="node8" class="node">
<title>E7</title>
<polygon fill="#d3d3d3" stroke="#000000" points="336.9345,-166.7893 310.9394,-166.7893 310.9394,-149.7893 336.9345,-149.7893 336.9345,-166.7893"/>
<text text-anchor="middle" x="323.9369" y="-155.5893" font-family="Times,serif" font-size="9.00" fill="#000000">E7</text>
</g>
<!-- E6&#45;&gt;E7 -->
<!-- 5114 -->
<g id="node15" class="node">
<title>5114</title>
<ellipse fill="#add8e6" stroke="#000000" cx="205.9369" cy="-89.7477" rx="23.6187" ry="23.6187"/>
<text text-anchor="middle" x="205.9369" y="-91.5477" font-family="Times,serif" font-size="9.00" fill="#000000">5114</text>
<text text-anchor="middle" x="205.9369" y="-82.5477" font-family="Times,serif" font-size="9.00" fill="#000000">sigm</text>
</g>
<!-- E6&#45;&gt;5114 -->
<g id="edge17" class="edge">
<title>E6&#45;&gt;5114</title>
<path fill="none" stroke="#ff0000" stroke-width=".3863" d="M270.5648,-149.6085C260.6815,-140.4542 244.688,-125.6404 231.0844,-113.0403"/>
<polygon fill="#ff0000" stroke="#ff0000" stroke-width=".3863" points="233.1302,-110.1644 223.4153,-105.9369 228.3734,-115.3 233.1302,-110.1644"/>
</g>
<!-- E8 -->
<g id="node9" class="node">
<title>E8</title>
<polygon fill="#d3d3d3" stroke="#000000" points="380.9345,-166.7893 354.9394,-166.7893 354.9394,-149.7893 380.9345,-149.7893 380.9345,-166.7893"/>
<text text-anchor="middle" x="367.9369" y="-155.5893" font-family="Times,serif" font-size="9.00" fill="#000000">E8</text>
</g>
<!-- E7&#45;&gt;E8 -->
<!-- S -->
<g id="node13" class="node">
<title>S</title>
<ellipse fill="#87cefa" stroke="#000000" cx="205.9369" cy="-14.853" rx="14.7075" ry="14.7075"/>
<text text-anchor="middle" x="205.9369" y="-12.153" font-family="Times,serif" font-size="9.00" fill="#000000">S</text>
</g>
<!-- E7&#45;&gt;S -->
<g id="edge15" class="edge">
<title>E7&#45;&gt;S</title>
<path fill="none" stroke="#00ff00" stroke-width=".2284" d="M324.4997,-149.6373C325.1898,-131.9839 324.3832,-91.3214 304.9369,-65.7061 286.497,-41.4164 253.165,-27.7479 230.3122,-20.8365"/>
<polygon fill="#00ff00" stroke="#00ff00" stroke-width=".2284" points="231.2145,-17.4546 220.6408,-18.1227 229.3233,-24.1943 231.2145,-17.4546"/>
</g>
<!-- 5247 -->
<g id="node14" class="node">
<title>5247</title>
<ellipse fill="#add8e6" stroke="#000000" cx="271.9369" cy="-89.7477" rx="24.0833" ry="24.0833"/>
<text text-anchor="middle" x="271.9369" y="-91.5477" font-family="Times,serif" font-size="9.00" fill="#000000">5247</text>
<text text-anchor="middle" x="271.9369" y="-82.5477" font-family="Times,serif" font-size="9.00" fill="#000000">sigm</text>
</g>
<!-- E7&#45;&gt;5247 -->
<g id="edge19" class="edge">
<title>E7&#45;&gt;5247</title>
<path fill="none" stroke="#00ff00" stroke-width=".6264" d="M317.3511,-149.6085C311.1495,-141.4342 301.5243,-128.7471 292.7284,-117.1531"/>
<polygon fill="#00ff00" stroke="#00ff00" stroke-width=".6264" points="295.3635,-114.8356 286.531,-108.9843 289.7867,-119.0665 295.3635,-114.8356"/>
</g>
<!-- 0&#45;&gt;1 -->
<!-- 1&#45;&gt;2 -->
<!-- 2&#45;&gt;S -->
<!-- 5247&#45;&gt;2 -->
<g id="edge20" class="edge">
<title>5247&#45;&gt;2</title>
<path fill="none" stroke="#00ff00" stroke-width=".2602" d="M252.8509,-74.8066C248.4023,-71.6194 243.5996,-68.4043 238.9369,-65.7061 208.8727,-48.3081 171.7668,-32.7615 148.2221,-23.5679"/>
<polygon fill="#00ff00" stroke="#00ff00" stroke-width=".2602" points="149.3171,-20.2392 138.7271,-19.9184 146.8056,-26.7732 149.3171,-20.2392"/>
</g>
<!-- 5114&#45;&gt;S -->
<g id="edge18" class="edge">
<title>5114&#45;&gt;S</title>
<path fill="none" stroke="#00ff00" stroke-width=".5202" d="M205.9369,-65.6383C205.9369,-57.432 205.9369,-48.2428 205.9369,-39.9602"/>
<polygon fill="#00ff00" stroke="#00ff00" stroke-width=".5202" points="209.437,-39.7533 205.9369,-29.7534 202.437,-39.7534 209.437,-39.7533"/>
</g>
<!-- 4524&#45;&gt;2 -->
<g id="edge21" class="edge">
<title>4524&#45;&gt;2</title>
<path fill="none" stroke="#00ff00" stroke-width=".3936" d="M58.3806,-73.4967C72.5846,-60.9814 92.1338,-43.7563 106.3688,-31.2136"/>
<polygon fill="#00ff00" stroke="#00ff00" stroke-width=".3936" points="108.8664,-33.6779 114.0555,-24.4408 104.2387,-28.4257 108.8664,-33.6779"/>
</g>
</g>
</svg>
