<?xml version="1.0" encoding="UTF-8" standalone="no"?>
<!DOCTYPE svg PUBLIC "-//W3C//DTD SVG 1.1//EN"
 "http://www.w3.org/Graphics/SVG/1.1/DTD/svg11.dtd">
<!-- Generated by graphviz version 2.40.1 (20161225.0304)
 -->
<!-- Title: %3 Pages: 1 -->
<svg width="413pt" height="168pt"
 viewBox="0.00 0.00 412.99 167.71" xmlns="http://www.w3.org/2000/svg" xmlns:xlink="http://www.w3.org/1999/xlink">
<g id="graph0" class="graph" transform="scale(1 1) rotate(0) translate(4 163.7107)">
<title>%3</title>
<polygon fill="#ffffff" stroke="transparent" points="-4,4 -4,-163.7107 408.9914,-163.7107 408.9914,4 -4,4"/>
<!-- &#45;1 -->
<g id="node1" class="node">
<title>&#45;1</title>
<polygon fill="#d3d3d3" stroke="#000000" points="300.4981,-159.7107 276.4932,-159.7107 276.4932,-142.7107 300.4981,-142.7107 300.4981,-159.7107"/>
<text text-anchor="middle" x="288.4957" y="-148.5107" font-family="Times,serif" font-size="9.00" fill="#000000">&#45;1</text>
</g>
<!-- &#45;2 -->
<g id="node2" class="node">
<title>&#45;2</title>
<polygon fill="#d3d3d3" stroke="#000000" points="341.4981,-159.7107 317.4932,-159.7107 317.4932,-142.7107 341.4981,-142.7107 341.4981,-159.7107"/>
<text text-anchor="middle" x="329.4957" y="-148.5107" font-family="Times,serif" font-size="9.00" fill="#000000">&#45;2</text>
</g>
<!-- &#45;1&#45;&gt;&#45;2 -->
<!-- 8 -->
<g id="node12" class="node">
<title>8</title>
<ellipse fill="#add8e6" stroke="#000000" cx="390.4957" cy="-14.4957" rx="14.4914" ry="14.4914"/>
<text text-anchor="middle" x="390.4957" y="-11.7957" font-family="Times,serif" font-size="9.00" fill="#000000">8</text>
</g>
<!-- &#45;1&#45;&gt;8 -->
<g id="edge15" class="edge">
<title>&#45;1&#45;&gt;8</title>
<path fill="none" stroke="#00ff00" stroke-width=".2274" d="M294.8762,-142.6585C310.8338,-121.2699 352.8147,-65.0011 375.4766,-34.6265"/>
<polygon fill="#00ff00" stroke="#00ff00" stroke-width=".2274" points="378.4046,-36.5549 381.5792,-26.4468 372.794,-32.3689 378.4046,-36.5549"/>
</g>
<!-- 832 -->
<g id="node13" class="node">
<title>832</title>
<ellipse fill="#ffffff" stroke="#000000" cx="248.4957" cy="-85.851" rx="20.7202" ry="20.7202"/>
<text text-anchor="middle" x="248.4957" y="-83.151" font-family="Times,serif" font-size="9.00" fill="#000000">832</text>
</g>
<!-- &#45;1&#45;&gt;832 -->
<g id="edge13" class="edge">
<title>&#45;1&#45;&gt;832</title>
<path fill="none" stroke="#00ff00" stroke-width=".4955" d="M283.2664,-142.666C278.5678,-134.9886 271.4118,-123.2958 264.8106,-112.5095"/>
<polygon fill="#00ff00" stroke="#00ff00" stroke-width=".4955" points="267.6676,-110.4727 259.4622,-103.7703 261.697,-114.1267 267.6676,-110.4727"/>
</g>
<!-- &#45;3 -->
<g id="node3" class="node">
<title>&#45;3</title>
<polygon fill="#d3d3d3" stroke="#000000" points="399.4981,-159.7107 375.4932,-159.7107 375.4932,-142.7107 399.4981,-142.7107 399.4981,-159.7107"/>
<text text-anchor="middle" x="387.4957" y="-148.5107" font-family="Times,serif" font-size="9.00" fill="#000000">&#45;3</text>
</g>
<!-- &#45;2&#45;&gt;&#45;3 -->
<!-- 7 -->
<g id="node11" class="node">
<title>7</title>
<ellipse fill="#add8e6" stroke="#000000" cx="343.4957" cy="-14.4957" rx="14.4914" ry="14.4914"/>
<text text-anchor="middle" x="343.4957" y="-11.7957" font-family="Times,serif" font-size="9.00" fill="#000000">7</text>
</g>
<!-- &#45;2&#45;&gt;7 -->
<g id="edge11" class="edge">
<title>&#45;2&#45;&gt;7</title>
<path fill="none" stroke="#ff0000" stroke-width=".4461" d="M330.3715,-142.6585C332.4598,-122.2646 337.7956,-70.1593 340.9837,-39.0261"/>
<polygon fill="#ff0000" stroke="#ff0000" stroke-width=".4461" points="344.476,-39.2795 342.013,-28.975 337.5124,-38.5664 344.476,-39.2795"/>
</g>
<!-- 4 -->
<g id="node8" class="node">
<title>4</title>
<ellipse fill="#add8e6" stroke="#000000" cx="202.4957" cy="-14.4957" rx="14.4914" ry="14.4914"/>
<text text-anchor="middle" x="202.4957" y="-11.7957" font-family="Times,serif" font-size="9.00" fill="#000000">4</text>
</g>
<!-- &#45;3&#45;&gt;4 -->
<g id="edge12" class="edge">
<title>&#45;3&#45;&gt;4</title>
<path fill="none" stroke="#00ff00" stroke-width="1.2546" d="M377.1962,-142.5935C358.1107,-126.7323 315.7919,-92.0613 278.4957,-64.9914 260.3409,-51.8145 239.0161,-37.7644 223.5835,-27.8392"/>
<polygon fill="#00ff00" stroke="#00ff00" stroke-width="1.2546" points="225.128,-24.6726 214.8169,-22.237 221.3587,-30.5711 225.128,-24.6726"/>
</g>
<!-- 0 -->
<g id="node4" class="node">
<title>0</title>
<ellipse fill="#add8e6" stroke="#000000" cx="14.4957" cy="-14.4957" rx="14.4914" ry="14.4914"/>
<text text-anchor="middle" x="14.4957" y="-11.7957" font-family="Times,serif" font-size="9.00" fill="#000000">0</text>
</g>
<!-- 1 -->
<g id="node5" class="node">
<title>1</title>
<ellipse fill="#add8e6" stroke="#000000" cx="61.4957" cy="-14.4957" rx="14.4914" ry="14.4914"/>
<text text-anchor="middle" x="61.4957" y="-11.7957" font-family="Times,serif" font-size="9.00" fill="#000000">1</text>
</g>
<!-- 0&#45;&gt;1 -->
<!-- 2 -->
<g id="node6" class="node">
<title>2</title>
<ellipse fill="#add8e6" stroke="#000000" cx="108.4957" cy="-14.4957" rx="14.4914" ry="14.4914"/>
<text text-anchor="middle" x="108.4957" y="-11.7957" font-family="Times,serif" font-size="9.00" fill="#000000">2</text>
</g>
<!-- 1&#45;&gt;2 -->
<!-- 3 -->
<g id="node7" class="node">
<title>3</title>
<ellipse fill="#add8e6" stroke="#000000" cx="155.4957" cy="-14.4957" rx="14.4914" ry="14.4914"/>
<text text-anchor="middle" x="155.4957" y="-11.7957" font-family="Times,serif" font-size="9.00" fill="#000000">3</text>
</g>
<!-- 2&#45;&gt;3 -->
<!-- 3&#45;&gt;4 -->
<!-- 5 -->
<g id="node9" class="node">
<title>5</title>
<ellipse fill="#add8e6" stroke="#000000" cx="249.4957" cy="-14.4957" rx="14.4914" ry="14.4914"/>
<text text-anchor="middle" x="249.4957" y="-11.7957" font-family="Times,serif" font-size="9.00" fill="#000000">5</text>
</g>
<!-- 4&#45;&gt;5 -->
<!-- 6 -->
<g id="node10" class="node">
<title>6</title>
<ellipse fill="#add8e6" stroke="#000000" cx="296.4957" cy="-14.4957" rx="14.4914" ry="14.4914"/>
<text text-anchor="middle" x="296.4957" y="-11.7957" font-family="Times,serif" font-size="9.00" fill="#000000">6</text>
</g>
<!-- 5&#45;&gt;6 -->
<!-- 6&#45;&gt;7 -->
<!-- 7&#45;&gt;8 -->
<!-- 832&#45;&gt;4 -->
<g id="edge14" class="edge">
<title>832&#45;&gt;4</title>
<path fill="none" stroke="#00ff00" stroke-width=".1101" d="M237.1249,-68.2126C230.7047,-58.2536 222.644,-45.7497 215.9152,-35.3121"/>
<polygon fill="#00ff00" stroke="#00ff00" stroke-width=".1101" points="218.7798,-33.296 210.4197,-26.7875 212.8964,-37.0888 218.7798,-33.296"/>
</g>
</g>
</svg>
