<?xml version="1.0" encoding="UTF-8" standalone="no"?>
<!DOCTYPE svg PUBLIC "-//W3C//DTD SVG 1.1//EN"
 "http://www.w3.org/Graphics/SVG/1.1/DTD/svg11.dtd">
<!-- Generated by graphviz version 2.40.1 (20161225.0304)
 -->
<!-- Title: %3 Pages: 1 -->
<svg width="413pt" height="90pt"
 viewBox="0.00 0.00 412.99 89.99" xmlns="http://www.w3.org/2000/svg" xmlns:xlink="http://www.w3.org/1999/xlink">
<g id="graph0" class="graph" transform="scale(1 1) rotate(0) translate(4 85.9914)">
<title>%3</title>
<polygon fill="#ffffff" stroke="transparent" points="-4,4 -4,-85.9914 408.9914,-85.9914 408.9914,4 -4,4"/>
<!-- &#45;1 -->
<g id="node1" class="node">
<title>&#45;1</title>
<polygon fill="#d3d3d3" stroke="#000000" points="76.4981,-81.9914 52.4932,-81.9914 52.4932,-64.9914 76.4981,-64.9914 76.4981,-81.9914"/>
<text text-anchor="middle" x="64.4957" y="-70.7914" font-family="Times,serif" font-size="9.00" fill="#000000">&#45;1</text>
</g>
<!-- &#45;2 -->
<g id="node2" class="node">
<title>&#45;2</title>
<polygon fill="#d3d3d3" stroke="#000000" points="120.4981,-81.9914 96.4932,-81.9914 96.4932,-64.9914 120.4981,-64.9914 120.4981,-81.9914"/>
<text text-anchor="middle" x="108.4957" y="-70.7914" font-family="Times,serif" font-size="9.00" fill="#000000">&#45;2</text>
</g>
<!-- &#45;1&#45;&gt;&#45;2 -->
<!-- 0 -->
<g id="node4" class="node">
<title>0</title>
<ellipse fill="#add8e6" stroke="#000000" cx="14.4957" cy="-14.4957" rx="14.4914" ry="14.4914"/>
<text text-anchor="middle" x="14.4957" y="-11.7957" font-family="Times,serif" font-size="9.00" fill="#000000">0</text>
</g>
<!-- &#45;1&#45;&gt;0 -->
<g id="edge12" class="edge">
<title>&#45;1&#45;&gt;0</title>
<path fill="none" stroke="#00ff00" stroke-width=".7317" d="M57.118,-64.7864C50.1732,-56.5921 39.5369,-44.0421 30.6272,-33.5294"/>
<polygon fill="#00ff00" stroke="#00ff00" stroke-width=".7317" points="33.091,-31.0232 23.9554,-25.6573 27.7509,-35.549 33.091,-31.0232"/>
</g>
<!-- &#45;3 -->
<g id="node3" class="node">
<title>&#45;3</title>
<polygon fill="#d3d3d3" stroke="#000000" points="305.4981,-81.9914 281.4932,-81.9914 281.4932,-64.9914 305.4981,-64.9914 305.4981,-81.9914"/>
<text text-anchor="middle" x="293.4957" y="-70.7914" font-family="Times,serif" font-size="9.00" fill="#000000">&#45;3</text>
</g>
<!-- &#45;2&#45;&gt;&#45;3 -->
<!-- 1 -->
<g id="node5" class="node">
<title>1</title>
<ellipse fill="#add8e6" stroke="#000000" cx="61.4957" cy="-14.4957" rx="14.4914" ry="14.4914"/>
<text text-anchor="middle" x="61.4957" y="-11.7957" font-family="Times,serif" font-size="9.00" fill="#000000">1</text>
</g>
<!-- &#45;2&#45;&gt;1 -->
<g id="edge11" class="edge">
<title>&#45;2&#45;&gt;1</title>
<path fill="none" stroke="#ff0000" stroke-width=".1484" d="M101.5607,-64.7864C95.1131,-56.6932 85.2807,-44.3513 76.9702,-33.9197"/>
<polygon fill="#ff0000" stroke="#ff0000" stroke-width=".1484" points="79.6939,-31.7215 70.7253,-26.0809 74.2189,-36.0832 79.6939,-31.7215"/>
</g>
<!-- 3 -->
<g id="node7" class="node">
<title>3</title>
<ellipse fill="#add8e6" stroke="#000000" cx="155.4957" cy="-14.4957" rx="14.4914" ry="14.4914"/>
<text text-anchor="middle" x="155.4957" y="-11.7957" font-family="Times,serif" font-size="9.00" fill="#000000">3</text>
</g>
<!-- &#45;2&#45;&gt;3 -->
<g id="edge13" class="edge">
<title>&#45;2&#45;&gt;3</title>
<path fill="none" stroke="#00ff00" stroke-width=".7334" d="M115.4307,-64.7864C121.8782,-56.6932 131.7106,-44.3513 140.0212,-33.9197"/>
<polygon fill="#00ff00" stroke="#00ff00" stroke-width=".7334" points="142.7725,-36.0832 146.2661,-26.0809 137.2975,-31.7215 142.7725,-36.0832"/>
</g>
<!-- 8 -->
<g id="node12" class="node">
<title>8</title>
<ellipse fill="#add8e6" stroke="#000000" cx="390.4957" cy="-14.4957" rx="14.4914" ry="14.4914"/>
<text text-anchor="middle" x="390.4957" y="-11.7957" font-family="Times,serif" font-size="9.00" fill="#000000">8</text>
</g>
<!-- &#45;3&#45;&gt;8 -->
<g id="edge14" class="edge">
<title>&#45;3&#45;&gt;8</title>
<path fill="none" stroke="#ff0000" stroke-width=".6966" d="M305.3898,-66.2573C321.2867,-56.5888 349.7278,-39.2908 369.3274,-27.3703"/>
<polygon fill="#ff0000" stroke="#ff0000" stroke-width=".6966" points="371.1641,-30.3498 377.8892,-22.163 367.5266,-24.3691 371.1641,-30.3498"/>
</g>
<!-- 0&#45;&gt;1 -->
<!-- 2 -->
<g id="node6" class="node">
<title>2</title>
<ellipse fill="#add8e6" stroke="#000000" cx="108.4957" cy="-14.4957" rx="14.4914" ry="14.4914"/>
<text text-anchor="middle" x="108.4957" y="-11.7957" font-family="Times,serif" font-size="9.00" fill="#000000">2</text>
</g>
<!-- 1&#45;&gt;2 -->
<!-- 2&#45;&gt;3 -->
<!-- 4 -->
<g id="node8" class="node">
<title>4</title>
<ellipse fill="#add8e6" stroke="#000000" cx="202.4957" cy="-14.4957" rx="14.4914" ry="14.4914"/>
<text text-anchor="middle" x="202.4957" y="-11.7957" font-family="Times,serif" font-size="9.00" fill="#000000">4</text>
</g>
<!-- 3&#45;&gt;4 -->
<!-- 5 -->
<g id="node9" class="node">
<title>5</title>
<ellipse fill="#add8e6" stroke="#000000" cx="249.4957" cy="-14.4957" rx="14.4914" ry="14.4914"/>
<text text-anchor="middle" x="249.4957" y="-11.7957" font-family="Times,serif" font-size="9.00" fill="#000000">5</text>
</g>
<!-- 4&#45;&gt;5 -->
<!-- 6 -->
<g id="node10" class="node">
<title>6</title>
<ellipse fill="#add8e6" stroke="#000000" cx="296.4957" cy="-14.4957" rx="14.4914" ry="14.4914"/>
<text text-anchor="middle" x="296.4957" y="-11.7957" font-family="Times,serif" font-size="9.00" fill="#000000">6</text>
</g>
<!-- 5&#45;&gt;6 -->
<!-- 7 -->
<g id="node11" class="node">
<title>7</title>
<ellipse fill="#add8e6" stroke="#000000" cx="343.4957" cy="-14.4957" rx="14.4914" ry="14.4914"/>
<text text-anchor="middle" x="343.4957" y="-11.7957" font-family="Times,serif" font-size="9.00" fill="#000000">7</text>
</g>
<!-- 6&#45;&gt;7 -->
<!-- 7&#45;&gt;8 -->
</g>
</svg>
