<?xml version="1.0" encoding="UTF-8" standalone="no"?>
<!DOCTYPE svg PUBLIC "-//W3C//DTD SVG 1.1//EN"
 "http://www.w3.org/Graphics/SVG/1.1/DTD/svg11.dtd">
<!-- Generated by graphviz version 2.40.1 (20161225.0304)
 -->
<!-- Title: %3 Pages: 1 -->
<svg width="488pt" height="350pt"
 viewBox="0.00 0.00 488.42 350.02" xmlns="http://www.w3.org/2000/svg" xmlns:xlink="http://www.w3.org/1999/xlink">
<g id="graph0" class="graph" transform="scale(1 1) rotate(0) translate(4 346.0159)">
<title>%3</title>
<polygon fill="#ffffff" stroke="transparent" points="-4,4 -4,-346.0159 484.4247,-346.0159 484.4247,4 -4,4"/>
<!-- 0 -->
<g id="node1" class="node">
<title>0</title>
<polygon fill="#d3d3d3" stroke="#000000" points="234.389,-342.0159 214.3771,-342.0159 214.3771,-325.0159 234.389,-325.0159 234.389,-342.0159"/>
<text text-anchor="middle" x="224.383" y="-330.8159" font-family="Times,serif" font-size="9.00" fill="#000000">0</text>
</g>
<!-- 1 -->
<g id="node2" class="node">
<title>1</title>
<polygon fill="#d3d3d3" stroke="#000000" points="324.389,-342.0159 304.3771,-342.0159 304.3771,-325.0159 324.389,-325.0159 324.389,-342.0159"/>
<text text-anchor="middle" x="314.383" y="-330.8159" font-family="Times,serif" font-size="9.00" fill="#000000">1</text>
</g>
<!-- 0&#45;&gt;1 -->
<!-- E7 -->
<g id="node11" class="node">
<title>E7</title>
<ellipse fill="#ffa07a" stroke="#000000" cx="403.383" cy="-18.383" rx="18.2668" ry="18.2668"/>
<text text-anchor="middle" x="403.383" y="-15.683" font-family="Times,serif" font-size="9.00" fill="#000000">E7</text>
</g>
<!-- 0&#45;&gt;E7 -->
<g id="edge12" class="edge">
<title>0&#45;&gt;E7</title>
<path fill="none" stroke="#00ff00" stroke-width="2.5266" d="M228.7004,-324.9564C241.7251,-299.2338 281.9732,-220.4751 318.383,-156.8494 341.6691,-116.1573 370.5486,-69.9357 387.9424,-42.5181"/>
<polygon fill="#00ff00" stroke="#00ff00" stroke-width="2.5266" points="390.962,-44.2921 393.3761,-33.976 385.0556,-40.535 390.962,-44.2921"/>
</g>
<!-- 4486 -->
<g id="node13" class="node">
<title>4486</title>
<ellipse fill="#add8e6" stroke="#000000" cx="186.383" cy="-180.891" rx="24.0833" ry="24.0833"/>
<text text-anchor="middle" x="186.383" y="-182.691" font-family="Times,serif" font-size="9.00" fill="#000000">4486</text>
<text text-anchor="middle" x="186.383" y="-173.691" font-family="Times,serif" font-size="9.00" fill="#000000">sigm</text>
</g>
<!-- 0&#45;&gt;4486 -->
<g id="edge15" class="edge">
<title>0&#45;&gt;4486</title>
<path fill="none" stroke="#00ff00" stroke-width=".1633" d="M221.3673,-324.7166C218.3655,-315.7868 213.7346,-301.5334 210.383,-289.0159 203.7585,-264.2744 197.5301,-236.0066 193.0791,-214.5806"/>
<polygon fill="#00ff00" stroke="#00ff00" stroke-width=".1633" points="196.4816,-213.7498 191.0429,-204.6575 189.6245,-215.1569 196.4816,-213.7498"/>
</g>
<!-- 2 -->
<g id="node3" class="node">
<title>2</title>
<polygon fill="#d3d3d3" stroke="#000000" points="376.389,-342.0159 356.3771,-342.0159 356.3771,-325.0159 376.389,-325.0159 376.389,-342.0159"/>
<text text-anchor="middle" x="366.383" y="-330.8159" font-family="Times,serif" font-size="9.00" fill="#000000">2</text>
</g>
<!-- 1&#45;&gt;2 -->
<!-- E1 -->
<g id="node5" class="node">
<title>E1</title>
<ellipse fill="#ffa07a" stroke="#000000" cx="73.383" cy="-18.383" rx="18.2668" ry="18.2668"/>
<text text-anchor="middle" x="73.383" y="-15.683" font-family="Times,serif" font-size="9.00" fill="#000000">E1</text>
</g>
<!-- 1&#45;&gt;E1 -->
<g id="edge25" class="edge">
<title>1&#45;&gt;E1</title>
<path fill="none" stroke="#ff0000" stroke-width=".171" d="M304.2805,-327.892C276.5763,-312.0131 198.4712,-264.1205 153.383,-204.9326 115.5156,-155.2234 91.7235,-84.8706 80.6765,-46.3246"/>
<polygon fill="#ff0000" stroke="#ff0000" stroke-width=".171" points="83.9507,-45.0351 77.8975,-36.3397 77.207,-46.912 83.9507,-45.0351"/>
</g>
<!-- E8 -->
<g id="node12" class="node">
<title>E8</title>
<ellipse fill="#eee8aa" stroke="#000000" cx="458.383" cy="-18.383" rx="18.2668" ry="18.2668"/>
<text text-anchor="middle" x="458.383" y="-15.683" font-family="Times,serif" font-size="9.00" fill="#000000">E8</text>
</g>
<!-- 1&#45;&gt;E8 -->
<g id="edge11" class="edge">
<title>1&#45;&gt;E8</title>
<path fill="none" stroke="#00ff00" stroke-width="1.5765" d="M321.8323,-324.7218C328.9678,-316.0272 339.749,-302.156 347.383,-289.0159 367.8932,-253.713 370.3547,-243.2754 384.383,-204.9326 405.4263,-147.4166 397.8856,-128.4509 423.383,-72.7661 428.2714,-62.0902 435.0067,-51.0613 441.2641,-41.7494"/>
<polygon fill="#00ff00" stroke="#00ff00" stroke-width="1.5765" points="444.2208,-43.6277 447.0412,-33.4151 438.4678,-39.6398 444.2208,-43.6277"/>
</g>
<!-- 5674 -->
<g id="node14" class="node">
<title>5674</title>
<ellipse fill="#add8e6" stroke="#000000" cx="314.383" cy="-264.9743" rx="24.0833" ry="24.0833"/>
<text text-anchor="middle" x="314.383" y="-266.7743" font-family="Times,serif" font-size="9.00" fill="#000000">5674</text>
<text text-anchor="middle" x="314.383" y="-257.7743" font-family="Times,serif" font-size="9.00" fill="#000000">sigm</text>
</g>
<!-- 1&#45;&gt;5674 -->
<g id="edge19" class="edge">
<title>1&#45;&gt;5674</title>
<path fill="none" stroke="#ff0000" stroke-width=".2433" d="M314.383,-324.835C314.383,-318.2744 314.383,-308.8069 314.383,-299.3307"/>
<polygon fill="#ff0000" stroke="#ff0000" stroke-width=".2433" points="317.8831,-299.1816 314.383,-289.1817 310.8831,-299.1817 317.8831,-299.1816"/>
</g>
<!-- 4350 -->
<g id="node15" class="node">
<title>4350</title>
<ellipse fill="#add8e6" stroke="#000000" cx="351.383" cy="-180.891" rx="24.0833" ry="24.0833"/>
<text text-anchor="middle" x="351.383" y="-182.691" font-family="Times,serif" font-size="9.00" fill="#000000">4350</text>
<text text-anchor="middle" x="351.383" y="-173.691" font-family="Times,serif" font-size="9.00" fill="#000000">sigm</text>
</g>
<!-- 2&#45;&gt;4350 -->
<g id="edge16" class="edge">
<title>2&#45;&gt;4350</title>
<path fill="none" stroke="#00ff00" stroke-width=".6265" d="M365.5336,-324.8728C363.4917,-304.0959 358.2179,-250.4359 354.7174,-214.8176"/>
<polygon fill="#00ff00" stroke="#00ff00" stroke-width=".6265" points="358.1988,-214.4558 353.7374,-204.8461 351.2323,-215.1406 358.1988,-214.4558"/>
</g>
<!-- 5728 -->
<g id="node18" class="node">
<title>5728</title>
<ellipse fill="none" stroke="#000000" cx="456.383" cy="-264.9743" rx="24.0833" ry="24.0833"/>
<text text-anchor="middle" x="456.383" y="-262.2743" font-family="Times,serif" font-size="9.00" fill="#000000">5728</text>
</g>
<!-- 2&#45;&gt;5728 -->
<g id="edge21" class="edge">
<title>2&#45;&gt;5728</title>
<path fill="none" stroke="#ff00ff" stroke-dasharray="5,2" d="M376.7072,-325.6533C389.3251,-316.0438 411.1724,-299.4055 428.8018,-285.9794"/>
<polygon fill="#ff00ff" stroke="#ff00ff" points="431.2235,-288.5346 437.0585,-279.6913 426.9823,-282.9656 431.2235,-288.5346"/>
</g>
<!-- E0 -->
<g id="node4" class="node">
<title>E0</title>
<ellipse fill="#87cefa" stroke="#000000" cx="18.383" cy="-18.383" rx="18.2668" ry="18.2668"/>
<text text-anchor="middle" x="18.383" y="-15.683" font-family="Times,serif" font-size="9.00" fill="#000000">E0</text>
</g>
<!-- E0&#45;&gt;E1 -->
<!-- E2 -->
<g id="node6" class="node">
<title>E2</title>
<ellipse fill="#87cefa" stroke="#000000" cx="128.383" cy="-18.383" rx="18.2668" ry="18.2668"/>
<text text-anchor="middle" x="128.383" y="-15.683" font-family="Times,serif" font-size="9.00" fill="#000000">E2</text>
</g>
<!-- E1&#45;&gt;E2 -->
<!-- E3 -->
<g id="node7" class="node">
<title>E3</title>
<ellipse fill="#ffa07a" stroke="#000000" cx="183.383" cy="-18.383" rx="18.2668" ry="18.2668"/>
<text text-anchor="middle" x="183.383" y="-15.683" font-family="Times,serif" font-size="9.00" fill="#000000">E3</text>
</g>
<!-- E2&#45;&gt;E3 -->
<!-- E4 -->
<g id="node8" class="node">
<title>E4</title>
<ellipse fill="#eee8aa" stroke="#000000" cx="238.383" cy="-18.383" rx="18.2668" ry="18.2668"/>
<text text-anchor="middle" x="238.383" y="-15.683" font-family="Times,serif" font-size="9.00" fill="#000000">E4</text>
</g>
<!-- E3&#45;&gt;E4 -->
<!-- E5 -->
<g id="node9" class="node">
<title>E5</title>
<ellipse fill="#87cefa" stroke="#000000" cx="293.383" cy="-18.383" rx="18.2668" ry="18.2668"/>
<text text-anchor="middle" x="293.383" y="-15.683" font-family="Times,serif" font-size="9.00" fill="#000000">E5</text>
</g>
<!-- E4&#45;&gt;E5 -->
<!-- E6 -->
<g id="node10" class="node">
<title>E6</title>
<ellipse fill="#ffa07a" stroke="#000000" cx="348.383" cy="-18.383" rx="18.2668" ry="18.2668"/>
<text text-anchor="middle" x="348.383" y="-15.683" font-family="Times,serif" font-size="9.00" fill="#000000">E6</text>
</g>
<!-- E5&#45;&gt;E6 -->
<!-- E6&#45;&gt;E7 -->
<!-- E7&#45;&gt;E8 -->
<!-- 4486&#45;&gt;E2 -->
<g id="edge14" class="edge">
<title>4486&#45;&gt;E2</title>
<path fill="none" stroke="#ff0000" stroke-width=".1597" d="M173.3741,-160.4275C166.6389,-149.112 158.7294,-134.5956 153.383,-120.8494 143.9006,-96.4686 137.2159,-67.3885 133.1595,-46.4471"/>
<polygon fill="#ff0000" stroke="#ff0000" stroke-width=".1597" points="136.5962,-45.7838 131.3278,-36.5917 129.7141,-47.063 136.5962,-45.7838"/>
</g>
<!-- 4486&#45;&gt;E4 -->
<g id="edge17" class="edge">
<title>4486&#45;&gt;E4</title>
<path fill="none" stroke="#ff0000" stroke-width=".5097" d="M199.7004,-160.5425C206.526,-149.2607 214.4234,-134.7397 219.383,-120.8494 227.9832,-96.7632 232.8788,-68.0342 235.5389,-47.1339"/>
<polygon fill="#ff0000" stroke="#ff0000" stroke-width=".5097" points="239.0405,-47.3248 236.7339,-36.9841 232.0885,-46.5062 239.0405,-47.3248"/>
</g>
<!-- 5759 -->
<g id="node16" class="node">
<title>5759</title>
<ellipse fill="#add8e6" stroke="#000000" cx="186.383" cy="-96.8077" rx="24.0833" ry="24.0833"/>
<text text-anchor="middle" x="186.383" y="-98.6077" font-family="Times,serif" font-size="9.00" fill="#000000">5759</text>
<text text-anchor="middle" x="186.383" y="-89.6077" font-family="Times,serif" font-size="9.00" fill="#000000">sigm</text>
</g>
<!-- 4486&#45;&gt;5759 -->
<g id="edge23" class="edge">
<title>4486&#45;&gt;5759</title>
<path fill="none" stroke="#ff0000" stroke-width=".1197" d="M186.383,-156.5706C186.383,-148.6398 186.383,-139.6791 186.383,-131.1553"/>
<polygon fill="#ff0000" stroke="#ff0000" stroke-width=".1197" points="189.8831,-131.0734 186.383,-121.0734 182.8831,-131.0735 189.8831,-131.0734"/>
</g>
<!-- 5674&#45;&gt;4350 -->
<g id="edge20" class="edge">
<title>5674&#45;&gt;4350</title>
<path fill="none" stroke="#ff0000" stroke-width=".3216" d="M324.1044,-242.8824C328.1932,-233.5904 333.0269,-222.6058 337.4809,-212.484"/>
<polygon fill="#ff0000" stroke="#ff0000" stroke-width=".3216" points="340.774,-213.69 341.5982,-203.1273 334.3669,-210.8706 340.774,-213.69"/>
</g>
<!-- 4350&#45;&gt;E6 -->
<g id="edge13" class="edge">
<title>4350&#45;&gt;E6</title>
<path fill="none" stroke="#ff0000" stroke-width=".1955" d="M350.9339,-156.5619C350.3929,-127.2561 349.4854,-78.0965 348.9113,-46.9981"/>
<polygon fill="#ff0000" stroke="#ff0000" stroke-width=".1955" points="352.4074,-46.7472 348.7233,-36.8135 345.4086,-46.8765 352.4074,-46.7472"/>
</g>
<!-- 5659 -->
<g id="node17" class="node">
<title>5659</title>
<ellipse fill="none" stroke="#000000" cx="456.383" cy="-96.8077" rx="24.0833" ry="24.0833"/>
<text text-anchor="middle" x="456.383" y="-94.1077" font-family="Times,serif" font-size="9.00" fill="#000000">5659</text>
</g>
<!-- 4350&#45;&gt;5659 -->
<g id="edge18" class="edge">
<title>4350&#45;&gt;5659</title>
<path fill="none" stroke="#ff00ff" stroke-dasharray="5,2" d="M370.1549,-165.8586C386.7005,-152.609 410.9968,-133.1528 429.5857,-118.2668"/>
<polygon fill="#ff00ff" stroke="#ff00ff" points="431.8017,-120.9762 437.4197,-111.9935 427.4262,-115.5123 431.8017,-120.9762"/>
</g>
<!-- 5759&#45;&gt;E4 -->
<g id="edge24" class="edge">
<title>5759&#45;&gt;E4</title>
<path fill="none" stroke="#ff0000" stroke-width=".2547" d="M199.7743,-76.6114C206.6391,-66.2582 215.0512,-53.5713 222.269,-42.6857"/>
<polygon fill="#ff0000" stroke="#ff0000" stroke-width=".2547" points="225.3817,-44.3247 227.9909,-34.0561 219.5477,-40.4564 225.3817,-44.3247"/>
</g>
<!-- 5728&#45;&gt;5659 -->
<g id="edge22" class="edge">
<title>5728&#45;&gt;5659</title>
<path fill="none" stroke="#ff00ff" stroke-dasharray="5,2" d="M456.383,-240.8801C456.383,-212.0336 456.383,-163.5316 456.383,-130.8627"/>
<polygon fill="#ff00ff" stroke="#ff00ff" points="459.8831,-130.8572 456.383,-120.8572 452.8831,-130.8572 459.8831,-130.8572"/>
</g>
</g>
</svg>
