<?xml version="1.0" encoding="utf-8" standalone="no"?>
<!DOCTYPE svg PUBLIC "-//W3C//DTD SVG 1.1//EN"
  "http://www.w3.org/Graphics/SVG/1.1/DTD/svg11.dtd">
<!-- Created with matplotlib (https://matplotlib.org/) -->
<svg height="345.6pt" version="1.1" viewBox="0 0 460.8 345.6" width="460.8pt" xmlns="http://www.w3.org/2000/svg" xmlns:xlink="http://www.w3.org/1999/xlink">
 <defs>
  <style type="text/css">
*{stroke-linecap:butt;stroke-linejoin:round;}
  </style>
 </defs>
 <g id="figure_1">
  <g id="patch_1">
   <path d="M 0 345.6 
L 460.8 345.6 
L 460.8 0 
L 0 0 
z
" style="fill:#ffffff;"/>
  </g>
  <g id="axes_1">
   <g id="patch_2">
    <path d="M 57.6 307.584 
L 414.72 307.584 
L 414.72 41.472 
L 57.6 41.472 
z
" style="fill:#ffffff;"/>
   </g>
   <g id="matplotlib.axis_1">
    <g id="xtick_1">
     <g id="line2d_1">
      <path clip-path="url(#pfbe4d42442)" d="M 73.832727 307.584 
L 73.832727 41.472 
" style="fill:none;stroke:#b0b0b0;stroke-linecap:square;stroke-width:0.8;"/>
     </g>
     <g id="line2d_2">
      <defs>
       <path d="M 0 0 
L 0 3.5 
" id="m2d35a0ca32" style="stroke:#000000;stroke-width:0.8;"/>
      </defs>
      <g>
       <use style="stroke:#000000;stroke-width:0.8;" x="73.832727" xlink:href="#m2d35a0ca32" y="307.584"/>
      </g>
     </g>
     <g id="text_1">
      <!-- 0 -->
      <defs>
       <path d="M 31.78125 66.40625 
Q 24.171875 66.40625 20.328125 58.90625 
Q 16.5 51.421875 16.5 36.375 
Q 16.5 21.390625 20.328125 13.890625 
Q 24.171875 6.390625 31.78125 6.390625 
Q 39.453125 6.390625 43.28125 13.890625 
Q 47.125 21.390625 47.125 36.375 
Q 47.125 51.421875 43.28125 58.90625 
Q 39.453125 66.40625 31.78125 66.40625 
z
M 31.78125 74.21875 
Q 44.046875 74.21875 50.515625 64.515625 
Q 56.984375 54.828125 56.984375 36.375 
Q 56.984375 17.96875 50.515625 8.265625 
Q 44.046875 -1.421875 31.78125 -1.421875 
Q 19.53125 -1.421875 13.0625 8.265625 
Q 6.59375 17.96875 6.59375 36.375 
Q 6.59375 54.828125 13.0625 64.515625 
Q 19.53125 74.21875 31.78125 74.21875 
z
" id="DejaVuSans-48"/>
      </defs>
      <g transform="translate(70.651477 322.182437)scale(0.1 -0.1)">
       <use xlink:href="#DejaVuSans-48"/>
      </g>
     </g>
    </g>
    <g id="xtick_2">
     <g id="line2d_3">
      <path clip-path="url(#pfbe4d42442)" d="M 128.122785 307.584 
L 128.122785 41.472 
" style="fill:none;stroke:#b0b0b0;stroke-linecap:square;stroke-width:0.8;"/>
     </g>
     <g id="line2d_4">
      <g>
       <use style="stroke:#000000;stroke-width:0.8;" x="128.122785" xlink:href="#m2d35a0ca32" y="307.584"/>
      </g>
     </g>
     <g id="text_2">
      <!-- 50 -->
      <defs>
       <path d="M 10.796875 72.90625 
L 49.515625 72.90625 
L 49.515625 64.59375 
L 19.828125 64.59375 
L 19.828125 46.734375 
Q 21.96875 47.46875 24.109375 47.828125 
Q 26.265625 48.1875 28.421875 48.1875 
Q 40.625 48.1875 47.75 41.5 
Q 54.890625 34.8125 54.890625 23.390625 
Q 54.890625 11.625 47.5625 5.09375 
Q 40.234375 -1.421875 26.90625 -1.421875 
Q 22.3125 -1.421875 17.546875 -0.640625 
Q 12.796875 0.140625 7.71875 1.703125 
L 7.71875 11.625 
Q 12.109375 9.234375 16.796875 8.0625 
Q 21.484375 6.890625 26.703125 6.890625 
Q 35.15625 6.890625 40.078125 11.328125 
Q 45.015625 15.765625 45.015625 23.390625 
Q 45.015625 31 40.078125 35.4375 
Q 35.15625 39.890625 26.703125 39.890625 
Q 22.75 39.890625 18.8125 39.015625 
Q 14.890625 38.140625 10.796875 36.28125 
z
" id="DejaVuSans-53"/>
      </defs>
      <g transform="translate(121.760285 322.182437)scale(0.1 -0.1)">
       <use xlink:href="#DejaVuSans-53"/>
       <use x="63.623047" xlink:href="#DejaVuSans-48"/>
      </g>
     </g>
    </g>
    <g id="xtick_3">
     <g id="line2d_5">
      <path clip-path="url(#pfbe4d42442)" d="M 182.412843 307.584 
L 182.412843 41.472 
" style="fill:none;stroke:#b0b0b0;stroke-linecap:square;stroke-width:0.8;"/>
     </g>
     <g id="line2d_6">
      <g>
       <use style="stroke:#000000;stroke-width:0.8;" x="182.412843" xlink:href="#m2d35a0ca32" y="307.584"/>
      </g>
     </g>
     <g id="text_3">
      <!-- 100 -->
      <defs>
       <path d="M 12.40625 8.296875 
L 28.515625 8.296875 
L 28.515625 63.921875 
L 10.984375 60.40625 
L 10.984375 69.390625 
L 28.421875 72.90625 
L 38.28125 72.90625 
L 38.28125 8.296875 
L 54.390625 8.296875 
L 54.390625 0 
L 12.40625 0 
z
" id="DejaVuSans-49"/>
      </defs>
      <g transform="translate(172.869093 322.182437)scale(0.1 -0.1)">
       <use xlink:href="#DejaVuSans-49"/>
       <use x="63.623047" xlink:href="#DejaVuSans-48"/>
       <use x="127.246094" xlink:href="#DejaVuSans-48"/>
      </g>
     </g>
    </g>
    <g id="xtick_4">
     <g id="line2d_7">
      <path clip-path="url(#pfbe4d42442)" d="M 236.702901 307.584 
L 236.702901 41.472 
" style="fill:none;stroke:#b0b0b0;stroke-linecap:square;stroke-width:0.8;"/>
     </g>
     <g id="line2d_8">
      <g>
       <use style="stroke:#000000;stroke-width:0.8;" x="236.702901" xlink:href="#m2d35a0ca32" y="307.584"/>
      </g>
     </g>
     <g id="text_4">
      <!-- 150 -->
      <g transform="translate(227.159151 322.182437)scale(0.1 -0.1)">
       <use xlink:href="#DejaVuSans-49"/>
       <use x="63.623047" xlink:href="#DejaVuSans-53"/>
       <use x="127.246094" xlink:href="#DejaVuSans-48"/>
      </g>
     </g>
    </g>
    <g id="xtick_5">
     <g id="line2d_9">
      <path clip-path="url(#pfbe4d42442)" d="M 290.992958 307.584 
L 290.992958 41.472 
" style="fill:none;stroke:#b0b0b0;stroke-linecap:square;stroke-width:0.8;"/>
     </g>
     <g id="line2d_10">
      <g>
       <use style="stroke:#000000;stroke-width:0.8;" x="290.992958" xlink:href="#m2d35a0ca32" y="307.584"/>
      </g>
     </g>
     <g id="text_5">
      <!-- 200 -->
      <defs>
       <path d="M 19.1875 8.296875 
L 53.609375 8.296875 
L 53.609375 0 
L 7.328125 0 
L 7.328125 8.296875 
Q 12.9375 14.109375 22.625 23.890625 
Q 32.328125 33.6875 34.8125 36.53125 
Q 39.546875 41.84375 41.421875 45.53125 
Q 43.3125 49.21875 43.3125 52.78125 
Q 43.3125 58.59375 39.234375 62.25 
Q 35.15625 65.921875 28.609375 65.921875 
Q 23.96875 65.921875 18.8125 64.3125 
Q 13.671875 62.703125 7.8125 59.421875 
L 7.8125 69.390625 
Q 13.765625 71.78125 18.9375 73 
Q 24.125 74.21875 28.421875 74.21875 
Q 39.75 74.21875 46.484375 68.546875 
Q 53.21875 62.890625 53.21875 53.421875 
Q 53.21875 48.921875 51.53125 44.890625 
Q 49.859375 40.875 45.40625 35.40625 
Q 44.1875 33.984375 37.640625 27.21875 
Q 31.109375 20.453125 19.1875 8.296875 
z
" id="DejaVuSans-50"/>
      </defs>
      <g transform="translate(281.449208 322.182437)scale(0.1 -0.1)">
       <use xlink:href="#DejaVuSans-50"/>
       <use x="63.623047" xlink:href="#DejaVuSans-48"/>
       <use x="127.246094" xlink:href="#DejaVuSans-48"/>
      </g>
     </g>
    </g>
    <g id="xtick_6">
     <g id="line2d_11">
      <path clip-path="url(#pfbe4d42442)" d="M 345.283016 307.584 
L 345.283016 41.472 
" style="fill:none;stroke:#b0b0b0;stroke-linecap:square;stroke-width:0.8;"/>
     </g>
     <g id="line2d_12">
      <g>
       <use style="stroke:#000000;stroke-width:0.8;" x="345.283016" xlink:href="#m2d35a0ca32" y="307.584"/>
      </g>
     </g>
     <g id="text_6">
      <!-- 250 -->
      <g transform="translate(335.739266 322.182437)scale(0.1 -0.1)">
       <use xlink:href="#DejaVuSans-50"/>
       <use x="63.623047" xlink:href="#DejaVuSans-53"/>
       <use x="127.246094" xlink:href="#DejaVuSans-48"/>
      </g>
     </g>
    </g>
    <g id="xtick_7">
     <g id="line2d_13">
      <path clip-path="url(#pfbe4d42442)" d="M 399.573074 307.584 
L 399.573074 41.472 
" style="fill:none;stroke:#b0b0b0;stroke-linecap:square;stroke-width:0.8;"/>
     </g>
     <g id="line2d_14">
      <g>
       <use style="stroke:#000000;stroke-width:0.8;" x="399.573074" xlink:href="#m2d35a0ca32" y="307.584"/>
      </g>
     </g>
     <g id="text_7">
      <!-- 300 -->
      <defs>
       <path d="M 40.578125 39.3125 
Q 47.65625 37.796875 51.625 33 
Q 55.609375 28.21875 55.609375 21.1875 
Q 55.609375 10.40625 48.1875 4.484375 
Q 40.765625 -1.421875 27.09375 -1.421875 
Q 22.515625 -1.421875 17.65625 -0.515625 
Q 12.796875 0.390625 7.625 2.203125 
L 7.625 11.71875 
Q 11.71875 9.328125 16.59375 8.109375 
Q 21.484375 6.890625 26.8125 6.890625 
Q 36.078125 6.890625 40.9375 10.546875 
Q 45.796875 14.203125 45.796875 21.1875 
Q 45.796875 27.640625 41.28125 31.265625 
Q 36.765625 34.90625 28.71875 34.90625 
L 20.21875 34.90625 
L 20.21875 43.015625 
L 29.109375 43.015625 
Q 36.375 43.015625 40.234375 45.921875 
Q 44.09375 48.828125 44.09375 54.296875 
Q 44.09375 59.90625 40.109375 62.90625 
Q 36.140625 65.921875 28.71875 65.921875 
Q 24.65625 65.921875 20.015625 65.03125 
Q 15.375 64.15625 9.8125 62.3125 
L 9.8125 71.09375 
Q 15.4375 72.65625 20.34375 73.4375 
Q 25.25 74.21875 29.59375 74.21875 
Q 40.828125 74.21875 47.359375 69.109375 
Q 53.90625 64.015625 53.90625 55.328125 
Q 53.90625 49.265625 50.4375 45.09375 
Q 46.96875 40.921875 40.578125 39.3125 
z
" id="DejaVuSans-51"/>
      </defs>
      <g transform="translate(390.029324 322.182437)scale(0.1 -0.1)">
       <use xlink:href="#DejaVuSans-51"/>
       <use x="63.623047" xlink:href="#DejaVuSans-48"/>
       <use x="127.246094" xlink:href="#DejaVuSans-48"/>
      </g>
     </g>
    </g>
    <g id="text_8">
     <!-- Generations -->
     <defs>
      <path d="M 59.515625 10.40625 
L 59.515625 29.984375 
L 43.40625 29.984375 
L 43.40625 38.09375 
L 69.28125 38.09375 
L 69.28125 6.78125 
Q 63.578125 2.734375 56.6875 0.65625 
Q 49.8125 -1.421875 42 -1.421875 
Q 24.90625 -1.421875 15.25 8.5625 
Q 5.609375 18.5625 5.609375 36.375 
Q 5.609375 54.25 15.25 64.234375 
Q 24.90625 74.21875 42 74.21875 
Q 49.125 74.21875 55.546875 72.453125 
Q 61.96875 70.703125 67.390625 67.28125 
L 67.390625 56.78125 
Q 61.921875 61.421875 55.765625 63.765625 
Q 49.609375 66.109375 42.828125 66.109375 
Q 29.4375 66.109375 22.71875 58.640625 
Q 16.015625 51.171875 16.015625 36.375 
Q 16.015625 21.625 22.71875 14.15625 
Q 29.4375 6.6875 42.828125 6.6875 
Q 48.046875 6.6875 52.140625 7.59375 
Q 56.25 8.5 59.515625 10.40625 
z
" id="DejaVuSans-71"/>
      <path d="M 56.203125 29.59375 
L 56.203125 25.203125 
L 14.890625 25.203125 
Q 15.484375 15.921875 20.484375 11.0625 
Q 25.484375 6.203125 34.421875 6.203125 
Q 39.59375 6.203125 44.453125 7.46875 
Q 49.3125 8.734375 54.109375 11.28125 
L 54.109375 2.78125 
Q 49.265625 0.734375 44.1875 -0.34375 
Q 39.109375 -1.421875 33.890625 -1.421875 
Q 20.796875 -1.421875 13.15625 6.1875 
Q 5.515625 13.8125 5.515625 26.8125 
Q 5.515625 40.234375 12.765625 48.109375 
Q 20.015625 56 32.328125 56 
Q 43.359375 56 49.78125 48.890625 
Q 56.203125 41.796875 56.203125 29.59375 
z
M 47.21875 32.234375 
Q 47.125 39.59375 43.09375 43.984375 
Q 39.0625 48.390625 32.421875 48.390625 
Q 24.90625 48.390625 20.390625 44.140625 
Q 15.875 39.890625 15.1875 32.171875 
z
" id="DejaVuSans-101"/>
      <path d="M 54.890625 33.015625 
L 54.890625 0 
L 45.90625 0 
L 45.90625 32.71875 
Q 45.90625 40.484375 42.875 44.328125 
Q 39.84375 48.1875 33.796875 48.1875 
Q 26.515625 48.1875 22.3125 43.546875 
Q 18.109375 38.921875 18.109375 30.90625 
L 18.109375 0 
L 9.078125 0 
L 9.078125 54.6875 
L 18.109375 54.6875 
L 18.109375 46.1875 
Q 21.34375 51.125 25.703125 53.5625 
Q 30.078125 56 35.796875 56 
Q 45.21875 56 50.046875 50.171875 
Q 54.890625 44.34375 54.890625 33.015625 
z
" id="DejaVuSans-110"/>
      <path d="M 41.109375 46.296875 
Q 39.59375 47.171875 37.8125 47.578125 
Q 36.03125 48 33.890625 48 
Q 26.265625 48 22.1875 43.046875 
Q 18.109375 38.09375 18.109375 28.8125 
L 18.109375 0 
L 9.078125 0 
L 9.078125 54.6875 
L 18.109375 54.6875 
L 18.109375 46.1875 
Q 20.953125 51.171875 25.484375 53.578125 
Q 30.03125 56 36.53125 56 
Q 37.453125 56 38.578125 55.875 
Q 39.703125 55.765625 41.0625 55.515625 
z
" id="DejaVuSans-114"/>
      <path d="M 34.28125 27.484375 
Q 23.390625 27.484375 19.1875 25 
Q 14.984375 22.515625 14.984375 16.5 
Q 14.984375 11.71875 18.140625 8.90625 
Q 21.296875 6.109375 26.703125 6.109375 
Q 34.1875 6.109375 38.703125 11.40625 
Q 43.21875 16.703125 43.21875 25.484375 
L 43.21875 27.484375 
z
M 52.203125 31.203125 
L 52.203125 0 
L 43.21875 0 
L 43.21875 8.296875 
Q 40.140625 3.328125 35.546875 0.953125 
Q 30.953125 -1.421875 24.3125 -1.421875 
Q 15.921875 -1.421875 10.953125 3.296875 
Q 6 8.015625 6 15.921875 
Q 6 25.140625 12.171875 29.828125 
Q 18.359375 34.515625 30.609375 34.515625 
L 43.21875 34.515625 
L 43.21875 35.40625 
Q 43.21875 41.609375 39.140625 45 
Q 35.0625 48.390625 27.6875 48.390625 
Q 23 48.390625 18.546875 47.265625 
Q 14.109375 46.140625 10.015625 43.890625 
L 10.015625 52.203125 
Q 14.9375 54.109375 19.578125 55.046875 
Q 24.21875 56 28.609375 56 
Q 40.484375 56 46.34375 49.84375 
Q 52.203125 43.703125 52.203125 31.203125 
z
" id="DejaVuSans-97"/>
      <path d="M 18.3125 70.21875 
L 18.3125 54.6875 
L 36.8125 54.6875 
L 36.8125 47.703125 
L 18.3125 47.703125 
L 18.3125 18.015625 
Q 18.3125 11.328125 20.140625 9.421875 
Q 21.96875 7.515625 27.59375 7.515625 
L 36.8125 7.515625 
L 36.8125 0 
L 27.59375 0 
Q 17.1875 0 13.234375 3.875 
Q 9.28125 7.765625 9.28125 18.015625 
L 9.28125 47.703125 
L 2.6875 47.703125 
L 2.6875 54.6875 
L 9.28125 54.6875 
L 9.28125 70.21875 
z
" id="DejaVuSans-116"/>
      <path d="M 9.421875 54.6875 
L 18.40625 54.6875 
L 18.40625 0 
L 9.421875 0 
z
M 9.421875 75.984375 
L 18.40625 75.984375 
L 18.40625 64.59375 
L 9.421875 64.59375 
z
" id="DejaVuSans-105"/>
      <path d="M 30.609375 48.390625 
Q 23.390625 48.390625 19.1875 42.75 
Q 14.984375 37.109375 14.984375 27.296875 
Q 14.984375 17.484375 19.15625 11.84375 
Q 23.34375 6.203125 30.609375 6.203125 
Q 37.796875 6.203125 41.984375 11.859375 
Q 46.1875 17.53125 46.1875 27.296875 
Q 46.1875 37.015625 41.984375 42.703125 
Q 37.796875 48.390625 30.609375 48.390625 
z
M 30.609375 56 
Q 42.328125 56 49.015625 48.375 
Q 55.71875 40.765625 55.71875 27.296875 
Q 55.71875 13.875 49.015625 6.21875 
Q 42.328125 -1.421875 30.609375 -1.421875 
Q 18.84375 -1.421875 12.171875 6.21875 
Q 5.515625 13.875 5.515625 27.296875 
Q 5.515625 40.765625 12.171875 48.375 
Q 18.84375 56 30.609375 56 
z
" id="DejaVuSans-111"/>
      <path d="M 44.28125 53.078125 
L 44.28125 44.578125 
Q 40.484375 46.53125 36.375 47.5 
Q 32.28125 48.484375 27.875 48.484375 
Q 21.1875 48.484375 17.84375 46.4375 
Q 14.5 44.390625 14.5 40.28125 
Q 14.5 37.15625 16.890625 35.375 
Q 19.28125 33.59375 26.515625 31.984375 
L 29.59375 31.296875 
Q 39.15625 29.25 43.1875 25.515625 
Q 47.21875 21.78125 47.21875 15.09375 
Q 47.21875 7.46875 41.1875 3.015625 
Q 35.15625 -1.421875 24.609375 -1.421875 
Q 20.21875 -1.421875 15.453125 -0.5625 
Q 10.6875 0.296875 5.421875 2 
L 5.421875 11.28125 
Q 10.40625 8.6875 15.234375 7.390625 
Q 20.0625 6.109375 24.8125 6.109375 
Q 31.15625 6.109375 34.5625 8.28125 
Q 37.984375 10.453125 37.984375 14.40625 
Q 37.984375 18.0625 35.515625 20.015625 
Q 33.0625 21.96875 24.703125 23.78125 
L 21.578125 24.515625 
Q 13.234375 26.265625 9.515625 29.90625 
Q 5.8125 33.546875 5.8125 39.890625 
Q 5.8125 47.609375 11.28125 51.796875 
Q 16.75 56 26.8125 56 
Q 31.78125 56 36.171875 55.265625 
Q 40.578125 54.546875 44.28125 53.078125 
z
" id="DejaVuSans-115"/>
     </defs>
     <g transform="translate(205.662344 335.860562)scale(0.1 -0.1)">
      <use xlink:href="#DejaVuSans-71"/>
      <use x="77.490234" xlink:href="#DejaVuSans-101"/>
      <use x="139.013672" xlink:href="#DejaVuSans-110"/>
      <use x="202.392578" xlink:href="#DejaVuSans-101"/>
      <use x="263.916016" xlink:href="#DejaVuSans-114"/>
      <use x="305.029297" xlink:href="#DejaVuSans-97"/>
      <use x="366.308594" xlink:href="#DejaVuSans-116"/>
      <use x="405.517578" xlink:href="#DejaVuSans-105"/>
      <use x="433.300781" xlink:href="#DejaVuSans-111"/>
      <use x="494.482422" xlink:href="#DejaVuSans-110"/>
      <use x="557.861328" xlink:href="#DejaVuSans-115"/>
     </g>
    </g>
   </g>
   <g id="matplotlib.axis_2">
    <g id="ytick_1">
     <g id="line2d_15">
      <path clip-path="url(#pfbe4d42442)" d="M 57.6 291.56417 
L 414.72 291.56417 
" style="fill:none;stroke:#b0b0b0;stroke-linecap:square;stroke-width:0.8;"/>
     </g>
     <g id="line2d_16">
      <defs>
       <path d="M 0 0 
L -3.5 0 
" id="m6c74bf36bb" style="stroke:#000000;stroke-width:0.8;"/>
      </defs>
      <g>
       <use style="stroke:#000000;stroke-width:0.8;" x="57.6" xlink:href="#m6c74bf36bb" y="291.56417"/>
      </g>
     </g>
     <g id="text_9">
      <!-- 500 -->
      <g transform="translate(31.5125 295.363389)scale(0.1 -0.1)">
       <use xlink:href="#DejaVuSans-53"/>
       <use x="63.623047" xlink:href="#DejaVuSans-48"/>
       <use x="127.246094" xlink:href="#DejaVuSans-48"/>
      </g>
     </g>
    </g>
    <g id="ytick_2">
     <g id="line2d_17">
      <path clip-path="url(#pfbe4d42442)" d="M 57.6 257.264817 
L 414.72 257.264817 
" style="fill:none;stroke:#b0b0b0;stroke-linecap:square;stroke-width:0.8;"/>
     </g>
     <g id="line2d_18">
      <g>
       <use style="stroke:#000000;stroke-width:0.8;" x="57.6" xlink:href="#m6c74bf36bb" y="257.264817"/>
      </g>
     </g>
     <g id="text_10">
      <!-- 750 -->
      <defs>
       <path d="M 8.203125 72.90625 
L 55.078125 72.90625 
L 55.078125 68.703125 
L 28.609375 0 
L 18.3125 0 
L 43.21875 64.59375 
L 8.203125 64.59375 
z
" id="DejaVuSans-55"/>
      </defs>
      <g transform="translate(31.5125 261.064036)scale(0.1 -0.1)">
       <use xlink:href="#DejaVuSans-55"/>
       <use x="63.623047" xlink:href="#DejaVuSans-53"/>
       <use x="127.246094" xlink:href="#DejaVuSans-48"/>
      </g>
     </g>
    </g>
    <g id="ytick_3">
     <g id="line2d_19">
      <path clip-path="url(#pfbe4d42442)" d="M 57.6 222.965464 
L 414.72 222.965464 
" style="fill:none;stroke:#b0b0b0;stroke-linecap:square;stroke-width:0.8;"/>
     </g>
     <g id="line2d_20">
      <g>
       <use style="stroke:#000000;stroke-width:0.8;" x="57.6" xlink:href="#m6c74bf36bb" y="222.965464"/>
      </g>
     </g>
     <g id="text_11">
      <!-- 1000 -->
      <g transform="translate(25.15 226.764682)scale(0.1 -0.1)">
       <use xlink:href="#DejaVuSans-49"/>
       <use x="63.623047" xlink:href="#DejaVuSans-48"/>
       <use x="127.246094" xlink:href="#DejaVuSans-48"/>
       <use x="190.869141" xlink:href="#DejaVuSans-48"/>
      </g>
     </g>
    </g>
    <g id="ytick_4">
     <g id="line2d_21">
      <path clip-path="url(#pfbe4d42442)" d="M 57.6 188.66611 
L 414.72 188.66611 
" style="fill:none;stroke:#b0b0b0;stroke-linecap:square;stroke-width:0.8;"/>
     </g>
     <g id="line2d_22">
      <g>
       <use style="stroke:#000000;stroke-width:0.8;" x="57.6" xlink:href="#m6c74bf36bb" y="188.66611"/>
      </g>
     </g>
     <g id="text_12">
      <!-- 1250 -->
      <g transform="translate(25.15 192.465329)scale(0.1 -0.1)">
       <use xlink:href="#DejaVuSans-49"/>
       <use x="63.623047" xlink:href="#DejaVuSans-50"/>
       <use x="127.246094" xlink:href="#DejaVuSans-53"/>
       <use x="190.869141" xlink:href="#DejaVuSans-48"/>
      </g>
     </g>
    </g>
    <g id="ytick_5">
     <g id="line2d_23">
      <path clip-path="url(#pfbe4d42442)" d="M 57.6 154.366757 
L 414.72 154.366757 
" style="fill:none;stroke:#b0b0b0;stroke-linecap:square;stroke-width:0.8;"/>
     </g>
     <g id="line2d_24">
      <g>
       <use style="stroke:#000000;stroke-width:0.8;" x="57.6" xlink:href="#m6c74bf36bb" y="154.366757"/>
      </g>
     </g>
     <g id="text_13">
      <!-- 1500 -->
      <g transform="translate(25.15 158.165976)scale(0.1 -0.1)">
       <use xlink:href="#DejaVuSans-49"/>
       <use x="63.623047" xlink:href="#DejaVuSans-53"/>
       <use x="127.246094" xlink:href="#DejaVuSans-48"/>
       <use x="190.869141" xlink:href="#DejaVuSans-48"/>
      </g>
     </g>
    </g>
    <g id="ytick_6">
     <g id="line2d_25">
      <path clip-path="url(#pfbe4d42442)" d="M 57.6 120.067404 
L 414.72 120.067404 
" style="fill:none;stroke:#b0b0b0;stroke-linecap:square;stroke-width:0.8;"/>
     </g>
     <g id="line2d_26">
      <g>
       <use style="stroke:#000000;stroke-width:0.8;" x="57.6" xlink:href="#m6c74bf36bb" y="120.067404"/>
      </g>
     </g>
     <g id="text_14">
      <!-- 1750 -->
      <g transform="translate(25.15 123.866623)scale(0.1 -0.1)">
       <use xlink:href="#DejaVuSans-49"/>
       <use x="63.623047" xlink:href="#DejaVuSans-55"/>
       <use x="127.246094" xlink:href="#DejaVuSans-53"/>
       <use x="190.869141" xlink:href="#DejaVuSans-48"/>
      </g>
     </g>
    </g>
    <g id="ytick_7">
     <g id="line2d_27">
      <path clip-path="url(#pfbe4d42442)" d="M 57.6 85.768051 
L 414.72 85.768051 
" style="fill:none;stroke:#b0b0b0;stroke-linecap:square;stroke-width:0.8;"/>
     </g>
     <g id="line2d_28">
      <g>
       <use style="stroke:#000000;stroke-width:0.8;" x="57.6" xlink:href="#m6c74bf36bb" y="85.768051"/>
      </g>
     </g>
     <g id="text_15">
      <!-- 2000 -->
      <g transform="translate(25.15 89.56727)scale(0.1 -0.1)">
       <use xlink:href="#DejaVuSans-50"/>
       <use x="63.623047" xlink:href="#DejaVuSans-48"/>
       <use x="127.246094" xlink:href="#DejaVuSans-48"/>
       <use x="190.869141" xlink:href="#DejaVuSans-48"/>
      </g>
     </g>
    </g>
    <g id="ytick_8">
     <g id="line2d_29">
      <path clip-path="url(#pfbe4d42442)" d="M 57.6 51.468698 
L 414.72 51.468698 
" style="fill:none;stroke:#b0b0b0;stroke-linecap:square;stroke-width:0.8;"/>
     </g>
     <g id="line2d_30">
      <g>
       <use style="stroke:#000000;stroke-width:0.8;" x="57.6" xlink:href="#m6c74bf36bb" y="51.468698"/>
      </g>
     </g>
     <g id="text_16">
      <!-- 2250 -->
      <g transform="translate(25.15 55.267917)scale(0.1 -0.1)">
       <use xlink:href="#DejaVuSans-50"/>
       <use x="63.623047" xlink:href="#DejaVuSans-50"/>
       <use x="127.246094" xlink:href="#DejaVuSans-53"/>
       <use x="190.869141" xlink:href="#DejaVuSans-48"/>
      </g>
     </g>
    </g>
    <g id="text_17">
     <!-- Fitness -->
     <defs>
      <path d="M 9.8125 72.90625 
L 51.703125 72.90625 
L 51.703125 64.59375 
L 19.671875 64.59375 
L 19.671875 43.109375 
L 48.578125 43.109375 
L 48.578125 34.8125 
L 19.671875 34.8125 
L 19.671875 0 
L 9.8125 0 
z
" id="DejaVuSans-70"/>
     </defs>
     <g transform="translate(19.070312 192.202219)rotate(-90)scale(0.1 -0.1)">
      <use xlink:href="#DejaVuSans-70"/>
      <use x="57.410156" xlink:href="#DejaVuSans-105"/>
      <use x="85.193359" xlink:href="#DejaVuSans-116"/>
      <use x="124.402344" xlink:href="#DejaVuSans-110"/>
      <use x="187.78125" xlink:href="#DejaVuSans-101"/>
      <use x="249.304688" xlink:href="#DejaVuSans-115"/>
      <use x="301.404297" xlink:href="#DejaVuSans-115"/>
     </g>
    </g>
   </g>
   <g id="line2d_31">
    <path clip-path="url(#pfbe4d42442)" d="M 73.832727 253.877223 
L 74.918528 212.081951 
L 76.00433 202.941866 
L 77.090131 208.213834 
L 78.175932 196.303811 
L 79.261733 189.790407 
L 80.347534 195.131534 
L 81.433335 185.702649 
L 82.519137 192.566889 
L 83.604938 187.64042 
L 84.690739 181.406787 
L 85.77654 179.069397 
L 86.862341 182.983108 
L 87.948142 184.331382 
L 89.033943 185.285133 
L 90.119745 176.091218 
L 91.205546 182.772238 
L 92.291347 175.10394 
L 93.377148 170.833338 
L 94.462949 180.51446 
L 95.54875 170.25125 
L 96.634552 179.451998 
L 97.720353 166.606654 
L 98.806154 167.349306 
L 99.891955 161.730017 
L 100.977756 174.212931 
L 102.063557 166.670505 
L 103.149358 172.03703 
L 104.23516 165.490305 
L 105.320961 164.860332 
L 106.406762 162.358769 
L 107.492563 165.0395 
L 108.578364 169.972485 
L 109.664165 162.565075 
L 110.749967 173.539408 
L 111.835768 170.17881 
L 112.921569 172.190579 
L 114.00737 163.815506 
L 115.093171 159.12484 
L 116.178972 172.528208 
L 117.264773 179.812193 
L 118.350575 165.478342 
L 119.436376 174.293339 
L 120.522177 172.70116 
L 121.607978 160.912897 
L 122.693779 167.013762 
L 123.77958 161.062483 
L 124.865382 168.543644 
L 125.951183 158.655874 
L 127.036984 168.963721 
L 128.122785 158.689241 
L 129.208586 164.629039 
L 130.294387 168.567705 
L 131.380189 166.018256 
L 132.46599 167.459282 
L 133.551791 175.02738 
L 134.637592 164.231177 
L 135.723393 173.687897 
L 136.809194 163.62305 
L 137.894995 159.32443 
L 138.980797 163.618992 
L 140.066598 160.601463 
L 141.152399 176.89701 
L 142.2382 171.406523 
L 143.324001 161.954064 
L 144.409802 178.812153 
L 145.495604 164.94074 
L 146.581405 166.289043 
L 147.667206 156.433943 
L 148.753007 169.592012 
L 149.838808 174.958084 
L 150.924609 151.526482 
L 152.01041 161.870624 
L 153.096212 160.606728 
L 154.182013 157.877958 
L 155.267814 167.390249 
L 156.353615 152.839769 
L 157.439416 157.845086 
L 158.525217 139.146588 
L 159.611019 160.881806 
L 160.69682 145.955574 
L 161.782621 151.322628 
L 162.868422 162.646588 
L 163.954223 133.111989 
L 165.040024 169.418617 
L 166.125825 158.737276 
L 167.211627 142.231994 
L 168.297428 143.042779 
L 169.383229 136.736655 
L 170.46903 136.449847 
L 171.554831 141.256254 
L 172.640632 144.712115 
L 173.726434 145.701224 
L 174.812235 142.990624 
L 175.898036 144.575137 
L 176.983837 130.952593 
L 178.069638 138.642925 
L 179.155439 135.162357 
L 180.24124 135.941145 
L 181.327042 119.431085 
L 182.412843 124.027427 
L 183.498644 114.102554 
L 184.584445 111.734311 
L 185.670246 129.8421 
L 186.756047 124.405628 
L 187.841849 118.007615 
L 188.92765 117.571089 
L 190.013451 110.986091 
L 191.099252 120.518817 
L 192.185053 117.682721 
L 193.270854 113.348171 
L 194.356656 119.495904 
L 195.442457 122.576346 
L 196.528258 119.848655 
L 197.614059 117.769694 
L 198.69986 124.220499 
L 200.871462 124.821927 
L 201.957264 114.092352 
L 203.043065 118.769359 
L 204.128866 114.87607 
L 205.214667 112.38456 
L 206.300468 116.454052 
L 207.386269 122.017923 
L 208.472071 137.127248 
L 210.643673 106.868318 
L 211.729474 115.381283 
L 212.815275 117.893478 
L 213.901076 123.068113 
L 214.986877 123.418674 
L 216.072679 127.338571 
L 217.15848 122.367892 
L 218.244281 127.572645 
L 219.330082 122.937297 
L 220.415883 115.910423 
L 221.501684 119.449482 
L 223.673287 116.448262 
L 224.759088 107.203081 
L 225.844889 113.367782 
L 226.93069 104.312396 
L 228.016491 101.08907 
L 229.102292 98.821667 
L 230.188094 102.422867 
L 231.273895 101.105701 
L 232.359696 94.823651 
L 233.445497 113.659374 
L 234.531298 95.625026 
L 235.617099 93.582769 
L 236.702901 110.299733 
L 237.788702 101.677868 
L 238.874503 106.193666 
L 239.960304 98.620611 
L 241.046105 92.410852 
L 242.131906 111.855371 
L 243.217708 90.651711 
L 244.303509 101.976817 
L 245.38931 97.101757 
L 246.475111 97.539951 
L 247.560912 93.008072 
L 248.646713 105.08095 
L 249.732514 109.819915 
L 250.818316 98.422721 
L 251.904117 99.645973 
L 252.989918 108.646148 
L 254.075719 93.875733 
L 255.16152 105.495351 
L 256.247321 97.576253 
L 257.333123 108.286025 
L 258.418924 98.858097 
L 259.504725 98.580936 
L 260.590526 112.441228 
L 261.676327 100.329657 
L 262.762128 101.000796 
L 263.847929 95.83584 
L 264.933731 107.453665 
L 266.019532 106.122693 
L 267.105333 98.121188 
L 268.191134 103.568641 
L 269.276935 109.617062 
L 270.362736 91.430483 
L 271.448538 104.622071 
L 272.534339 101.237385 
L 273.62014 99.694423 
L 274.705941 105.955161 
L 275.791742 97.610609 
L 276.877543 98.773657 
L 277.963344 115.739165 
L 279.049146 100.912106 
L 280.134947 110.98936 
L 281.220748 119.361986 
L 282.306549 99.770655 
L 283.39235 101.864886 
L 284.478151 115.594844 
L 285.563953 106.030516 
L 286.649754 128.09052 
L 287.735555 93.731265 
L 288.821356 113.855409 
L 289.907157 125.066658 
L 290.992958 118.26562 
L 292.07876 103.118543 
L 293.164561 118.330697 
L 294.250362 106.767694 
L 295.336163 107.474102 
L 296.421964 115.986259 
L 297.507765 99.952796 
L 298.593566 103.588083 
L 299.679368 97.386293 
L 300.765169 101.825137 
L 301.85097 96.442953 
L 302.936771 104.074116 
L 304.022572 97.27042 
L 305.108373 102.543596 
L 307.279976 108.784133 
L 308.365777 108.074151 
L 309.451578 108.402399 
L 310.537379 101.663942 
L 311.62318 101.320739 
L 312.708981 103.701121 
L 313.794783 100.697818 
L 314.880584 108.007529 
L 315.966385 101.35306 
L 317.052186 106.992722 
L 318.137987 105.901453 
L 319.223788 111.923837 
L 320.30959 119.494502 
L 321.395391 109.991873 
L 322.481192 99.025075 
L 323.566993 100.573834 
L 324.652794 107.469282 
L 325.738595 120.771191 
L 326.824396 112.73037 
L 327.910198 99.220235 
L 328.995999 100.836066 
L 330.0818 100.720588 
L 331.167601 87.621128 
L 332.253402 106.914411 
L 333.339203 103.033936 
L 334.425005 102.489123 
L 335.510806 122.027403 
L 336.596607 110.384094 
L 337.682408 103.703172 
L 338.768209 114.102416 
L 339.85401 108.822119 
L 340.939811 126.061136 
L 342.025613 123.874324 
L 343.111414 134.211495 
L 344.197215 110.86408 
L 345.283016 135.608034 
L 346.368817 134.596508 
L 347.454618 115.234118 
L 348.54042 121.503966 
L 349.626221 115.639416 
L 350.712022 130.988404 
L 351.797823 112.600556 
L 352.883624 129.325064 
L 353.969425 118.683177 
L 355.055227 110.339623 
L 356.141028 122.607091 
L 357.226829 112.983797 
L 358.31263 120.680374 
L 360.484232 118.270224 
L 361.570033 117.390249 
L 362.655835 128.580725 
L 363.741636 126.084086 
L 364.827437 120.986419 
L 365.913238 120.78045 
L 366.999039 125.359839 
L 368.08484 117.701544 
L 369.170642 125.168596 
L 370.256443 126.237642 
L 371.342244 110.79372 
L 372.428045 107.308032 
L 373.513846 121.096998 
L 374.599647 113.076058 
L 375.685448 112.243345 
L 376.77125 120.275258 
L 377.857051 119.827551 
L 378.942852 105.192594 
L 380.028653 128.009129 
L 381.114454 123.522684 
L 382.200255 116.555821 
L 383.286057 118.598273 
L 384.371858 114.995423 
L 385.457659 123.752976 
L 386.54346 124.586483 
L 387.629261 116.860755 
L 388.715062 136.272172 
L 389.800863 103.502666 
L 390.886665 113.850146 
L 391.972466 130.608817 
L 393.058267 118.057175 
L 394.144068 100.583819 
L 395.229869 102.110862 
L 396.31567 115.324683 
L 397.401472 112.160087 
L 398.487273 126.406194 
L 398.487273 126.406194 
" style="fill:none;stroke:#0000ff;stroke-linecap:square;stroke-width:1.5;"/>
   </g>
   <g id="line2d_32">
    <path clip-path="url(#pfbe4d42442)" d="M 73.832727 295.488 
L 74.918528 254.644789 
L 76.00433 238.972751 
L 77.090131 250.000377 
L 78.175932 238.489263 
L 79.261733 230.033791 
L 80.347534 243.899001 
L 81.433335 226.365081 
L 82.519137 239.027652 
L 83.604938 223.763007 
L 84.690739 211.10988 
L 85.77654 209.747122 
L 86.862341 226.42316 
L 87.948142 232.156613 
L 89.033943 235.471068 
L 90.119745 215.736247 
L 91.205546 232.40145 
L 92.291347 219.007372 
L 93.377148 212.314739 
L 94.462949 228.344717 
L 95.54875 214.51632 
L 96.634552 231.730313 
L 97.720353 205.809803 
L 98.806154 211.388832 
L 99.891955 202.195757 
L 100.977756 221.130699 
L 102.063557 218.362774 
L 103.149358 220.634448 
L 104.23516 205.904829 
L 105.320961 217.933737 
L 106.406762 204.706084 
L 107.492563 208.249905 
L 108.578364 224.509631 
L 109.664165 207.960129 
L 110.749967 223.084398 
L 111.835768 206.359873 
L 112.921569 222.325656 
L 115.093171 193.729719 
L 116.178972 216.822493 
L 117.264773 230.314754 
L 118.350575 211.516131 
L 119.436376 220.325198 
L 120.522177 225.166438 
L 121.607978 204.828983 
L 122.693779 210.274396 
L 123.77958 202.773791 
L 124.865382 221.120138 
L 125.951183 193.354029 
L 127.036984 207.052296 
L 128.122785 189.039571 
L 129.208586 210.822509 
L 130.294387 225.975797 
L 131.380189 209.180481 
L 132.46599 216.038738 
L 133.551791 235.715662 
L 134.637592 214.043953 
L 135.723393 227.090709 
L 136.809194 215.755368 
L 137.894995 207.154977 
L 138.980797 205.32039 
L 140.066598 214.804394 
L 141.152399 232.561139 
L 142.2382 225.007434 
L 143.324001 199.784195 
L 144.409802 227.972641 
L 145.495604 225.739959 
L 146.581405 230.701002 
L 147.667206 210.862303 
L 148.753007 220.88109 
L 149.838808 236.921852 
L 150.924609 199.854327 
L 154.182013 216.081606 
L 155.267814 224.226754 
L 156.353615 213.217565 
L 157.439416 207.910163 
L 158.525217 186.799824 
L 159.611019 221.197917 
L 160.69682 188.124706 
L 161.782621 200.850925 
L 162.868422 219.015545 
L 163.954223 173.282215 
L 165.040024 237.918699 
L 166.125825 213.119312 
L 167.211627 196.524864 
L 168.297428 188.501218 
L 169.383229 155.158827 
L 170.46903 178.021613 
L 171.554831 181.486208 
L 172.640632 199.140262 
L 173.726434 193.827949 
L 174.812235 191.155571 
L 175.898036 203.429575 
L 176.983837 176.07131 
L 178.069638 195.031612 
L 179.155439 173.816562 
L 180.24124 174.701216 
L 181.327042 161.183071 
L 182.412843 161.261304 
L 183.498644 142.887008 
L 184.584445 145.233269 
L 185.670246 162.852719 
L 186.756047 166.493473 
L 187.841849 154.71766 
L 188.92765 161.915919 
L 190.013451 147.100929 
L 191.099252 162.039873 
L 192.185053 154.842663 
L 193.270854 136.536735 
L 194.356656 156.775977 
L 195.442457 161.805 
L 196.528258 156.302425 
L 197.614059 147.608454 
L 198.69986 166.065796 
L 199.785661 156.857069 
L 200.871462 164.675154 
L 203.043065 140.88338 
L 204.128866 154.527865 
L 205.214667 138.950662 
L 207.386269 155.947637 
L 208.472071 176.376833 
L 209.557872 148.635564 
L 210.643673 130.909367 
L 211.729474 148.333328 
L 212.815275 138.427431 
L 213.901076 151.417951 
L 214.986877 151.473584 
L 216.072679 159.34967 
L 217.15848 168.083016 
L 218.244281 151.648102 
L 219.330082 154.34056 
L 220.415883 149.100194 
L 221.501684 169.81396 
L 222.587486 154.64515 
L 223.673287 158.005526 
L 224.759088 149.96812 
L 225.844889 152.334407 
L 226.93069 133.701562 
L 228.016491 142.955524 
L 229.102292 132.466835 
L 230.188094 125.592774 
L 231.273895 142.376487 
L 232.359696 125.952052 
L 233.445497 152.371293 
L 234.531298 117.469788 
L 235.617099 121.937214 
L 236.702901 148.53365 
L 237.788702 127.955286 
L 238.874503 136.494469 
L 239.960304 120.173287 
L 241.046105 116.362521 
L 242.131906 155.833881 
L 243.217708 120.160368 
L 244.303509 138.473083 
L 245.38931 122.324413 
L 246.475111 130.002239 
L 247.560912 119.362365 
L 248.646713 127.642616 
L 249.732514 148.783545 
L 250.818316 129.706532 
L 251.904117 138.252876 
L 252.989918 157.924237 
L 254.075719 119.133878 
L 255.16152 137.926544 
L 256.247321 117.970909 
L 257.333123 134.562903 
L 258.418924 132.91134 
L 259.504725 126.881379 
L 260.590526 149.397393 
L 261.676327 132.472603 
L 262.762128 123.835876 
L 263.847929 122.863723 
L 264.933731 131.803333 
L 266.019532 138.123586 
L 267.105333 124.489953 
L 268.191134 127.80372 
L 269.276935 141.168816 
L 270.362736 111.502777 
L 271.448538 138.177848 
L 272.534339 141.904536 
L 273.62014 133.169267 
L 274.705941 145.458031 
L 275.791742 128.285703 
L 276.877543 137.544002 
L 277.963344 157.475662 
L 279.049146 123.425004 
L 280.134947 145.419098 
L 281.220748 148.226184 
L 282.306549 125.708253 
L 283.39235 123.728647 
L 284.478151 138.528494 
L 285.563953 141.350341 
L 286.649754 166.13941 
L 287.735555 109.463464 
L 288.821356 144.090288 
L 289.907157 155.089187 
L 290.992958 146.406473 
L 292.07876 133.294326 
L 293.164561 157.463132 
L 294.250362 138.589262 
L 295.336163 140.070613 
L 296.421964 139.714681 
L 297.507765 119.303169 
L 298.593566 140.298336 
L 299.679368 125.254828 
L 300.765169 128.913989 
L 301.85097 121.71954 
L 302.936771 150.232763 
L 304.022572 124.312362 
L 306.194175 133.446702 
L 307.279976 150.469687 
L 308.365777 139.444667 
L 309.451578 146.640668 
L 310.537379 143.106661 
L 311.62318 135.775374 
L 312.708981 143.958857 
L 313.794783 147.827636 
L 314.880584 139.113722 
L 315.966385 128.881618 
L 317.052186 135.256463 
L 318.137987 140.873015 
L 319.223788 156.378873 
L 320.30959 154.803198 
L 321.395391 143.972131 
L 322.481192 124.422205 
L 323.566993 125.23008 
L 324.652794 141.315737 
L 325.738595 163.281554 
L 326.824396 147.950751 
L 327.910198 137.853516 
L 328.995999 136.749514 
L 330.0818 133.458629 
L 331.167601 107.306179 
L 332.253402 148.339763 
L 333.339203 139.805245 
L 334.425005 147.082587 
L 335.510806 169.735276 
L 336.596607 146.343254 
L 337.682408 132.955991 
L 338.768209 159.125071 
L 339.85401 133.735028 
L 340.939811 165.555233 
L 342.025613 160.308075 
L 343.111414 183.88118 
L 344.197215 141.306879 
L 345.283016 190.270771 
L 346.368817 185.850846 
L 347.454618 155.435809 
L 348.54042 165.383733 
L 349.626221 139.016968 
L 350.712022 166.686795 
L 351.797823 131.807729 
L 352.883624 181.045221 
L 353.969425 156.981376 
L 355.055227 142.833474 
L 356.141028 175.565863 
L 357.226829 154.317059 
L 358.31263 158.186028 
L 359.398431 174.11137 
L 360.484232 156.899422 
L 361.570033 154.322639 
L 362.655835 194.742764 
L 363.741636 163.102902 
L 364.827437 158.542456 
L 365.913238 154.657704 
L 366.999039 166.300663 
L 368.08484 163.393817 
L 369.170642 161.705086 
L 370.256443 152.341887 
L 371.342244 136.897725 
L 372.428045 146.984674 
L 373.513846 169.48957 
L 374.599647 141.20293 
L 375.685448 150.032071 
L 376.77125 169.750498 
L 377.857051 164.940327 
L 378.942852 142.836917 
L 380.028653 177.534816 
L 381.114454 165.144225 
L 382.200255 155.584741 
L 383.286057 161.552479 
L 384.371858 149.211392 
L 385.457659 170.510583 
L 386.54346 174.266218 
L 387.629261 152.303178 
L 388.715062 190.510384 
L 389.800863 147.066225 
L 390.886665 158.398452 
L 391.972466 172.926912 
L 393.058267 159.345022 
L 394.144068 143.095712 
L 395.229869 132.959287 
L 396.31567 159.638491 
L 397.401472 146.190671 
L 398.487273 182.771707 
L 398.487273 182.771707 
" style="fill:none;stroke:#008000;stroke-dasharray:9.6,2.4,1.5,2.4;stroke-dashoffset:0;stroke-width:1.5;"/>
   </g>
   <g id="line2d_33">
    <path clip-path="url(#pfbe4d42442)" d="M 73.832727 212.266446 
L 74.918528 169.519112 
L 76.00433 166.91098 
L 77.090131 166.427292 
L 78.175932 154.118358 
L 79.261733 149.547023 
L 80.347534 146.364068 
L 81.433335 145.040217 
L 82.519137 146.106125 
L 83.604938 151.517833 
L 84.690739 151.703694 
L 85.77654 148.391672 
L 86.862341 139.543056 
L 87.948142 136.506152 
L 89.033943 135.099197 
L 90.119745 136.446189 
L 91.205546 133.143027 
L 93.377148 129.351937 
L 94.462949 132.684203 
L 95.54875 125.986179 
L 96.634552 127.173683 
L 97.720353 127.403506 
L 98.806154 123.30978 
L 99.891955 121.264276 
L 100.977756 127.295164 
L 102.063557 114.978236 
L 103.149358 123.439612 
L 104.23516 125.075781 
L 105.320961 111.786926 
L 106.406762 120.011453 
L 107.492563 121.829095 
L 108.578364 115.435338 
L 109.664165 117.17002 
L 110.749967 123.994419 
L 111.835768 133.997746 
L 112.921569 122.055501 
L 114.00737 119.863871 
L 115.093171 124.519961 
L 116.178972 128.233924 
L 117.264773 129.309632 
L 118.350575 119.440553 
L 119.436376 128.26148 
L 120.522177 120.235882 
L 121.607978 116.996811 
L 122.693779 123.753128 
L 123.77958 119.351175 
L 124.865382 115.96715 
L 125.951183 123.957719 
L 127.036984 130.875147 
L 128.122785 128.338911 
L 129.208586 118.435568 
L 130.294387 111.159614 
L 131.380189 122.85603 
L 132.46599 118.879827 
L 133.551791 114.339098 
L 134.637592 114.418401 
L 135.723393 120.285085 
L 136.809194 111.490732 
L 137.894995 111.493883 
L 138.980797 121.917595 
L 140.066598 106.398532 
L 141.152399 121.232881 
L 142.2382 117.805612 
L 143.324001 124.123934 
L 144.409802 129.651666 
L 145.495604 104.141521 
L 146.581405 101.877083 
L 147.667206 102.005583 
L 148.753007 118.302934 
L 149.838808 112.994316 
L 150.924609 103.198637 
L 152.01041 118.327467 
L 153.096212 110.320596 
L 154.182013 99.67431 
L 155.267814 110.553745 
L 156.353615 92.461973 
L 157.439416 107.780009 
L 158.525217 91.493352 
L 159.611019 100.565695 
L 160.69682 103.786443 
L 161.782621 101.794331 
L 162.868422 106.277632 
L 163.954223 92.941763 
L 165.040024 100.918534 
L 166.125825 104.35524 
L 167.211627 87.939124 
L 168.297428 97.584341 
L 169.383229 118.314484 
L 170.46903 94.878081 
L 171.554831 101.0263 
L 172.640632 90.283968 
L 173.726434 97.574498 
L 174.812235 94.825677 
L 175.898036 85.7207 
L 176.983837 85.833875 
L 178.069638 82.254237 
L 179.155439 96.508151 
L 180.24124 97.181074 
L 181.327042 77.679099 
L 182.412843 86.79355 
L 183.498644 85.318099 
L 184.584445 78.235353 
L 185.670246 96.83148 
L 186.756047 82.317784 
L 187.841849 81.297571 
L 188.92765 73.22626 
L 190.013451 74.871252 
L 191.099252 78.997761 
L 192.185053 80.522778 
L 193.270854 90.159608 
L 194.356656 82.21583 
L 195.442457 83.347691 
L 196.528258 83.394885 
L 197.614059 87.930934 
L 198.69986 82.375202 
L 199.785661 92.104632 
L 200.871462 84.968701 
L 201.957264 75.818378 
L 203.043065 96.655338 
L 204.128866 75.224274 
L 205.214667 85.818457 
L 206.300468 85.125811 
L 207.386269 88.088208 
L 208.472071 97.877663 
L 209.557872 93.74393 
L 210.643673 82.827268 
L 211.729474 82.429238 
L 212.815275 97.359526 
L 213.901076 94.718276 
L 214.986877 95.363764 
L 216.072679 95.327473 
L 217.15848 76.652768 
L 218.244281 103.497188 
L 219.330082 91.534033 
L 220.415883 82.720651 
L 221.501684 69.085003 
L 222.587486 81.077788 
L 223.673287 74.890999 
L 224.759088 64.438041 
L 225.844889 74.401158 
L 226.93069 74.92323 
L 228.016491 59.222615 
L 229.102292 65.176499 
L 230.188094 79.25296 
L 231.273895 59.834914 
L 232.359696 63.695251 
L 233.445497 74.947454 
L 234.531298 73.780263 
L 235.617099 65.228324 
L 236.702901 72.065816 
L 237.788702 75.40045 
L 238.874503 75.892864 
L 239.960304 77.067935 
L 241.046105 68.459183 
L 242.131906 67.876861 
L 243.217708 61.143054 
L 244.303509 65.480552 
L 245.38931 71.879101 
L 246.475111 65.077664 
L 247.560912 66.653779 
L 248.646713 82.519285 
L 249.732514 70.856285 
L 250.818316 67.138911 
L 251.904117 61.03907 
L 252.989918 59.368059 
L 254.075719 68.617588 
L 257.333123 82.009146 
L 258.418924 64.804854 
L 260.590526 75.485062 
L 261.676327 68.18671 
L 262.762128 78.165717 
L 263.847929 68.807957 
L 264.933731 83.103996 
L 266.019532 74.1218 
L 267.105333 71.752423 
L 268.191134 79.333561 
L 269.276935 78.065308 
L 270.362736 71.35819 
L 271.448538 71.066294 
L 272.534339 60.570235 
L 273.62014 66.219579 
L 274.705941 66.45229 
L 275.791742 66.935515 
L 276.877543 60.003311 
L 277.963344 74.002668 
L 279.049146 78.399208 
L 280.134947 76.559622 
L 281.220748 90.497788 
L 282.306549 73.833057 
L 283.39235 80.001125 
L 284.478151 92.661195 
L 285.563953 70.710691 
L 286.649754 90.041631 
L 287.735555 77.999067 
L 288.821356 83.62053 
L 289.907157 95.044129 
L 290.992958 90.124767 
L 292.07876 72.942759 
L 293.164561 79.198263 
L 294.250362 74.946126 
L 295.336163 74.877592 
L 296.421964 92.257837 
L 297.507765 80.602423 
L 298.593566 66.87783 
L 299.679368 69.517758 
L 300.765169 74.736285 
L 301.85097 71.166366 
L 302.936771 57.915468 
L 304.022572 70.228477 
L 305.108373 76.323498 
L 306.194175 77.923128 
L 307.279976 67.098578 
L 308.365777 76.703636 
L 309.451578 70.16413 
L 310.537379 60.221223 
L 311.62318 66.866103 
L 312.708981 63.443386 
L 313.794783 53.568 
L 314.880584 76.901335 
L 315.966385 73.824502 
L 317.052186 78.72898 
L 318.137987 70.929891 
L 319.223788 67.468801 
L 320.30959 84.185806 
L 321.395391 76.011616 
L 322.481192 73.627945 
L 323.566993 75.917587 
L 324.652794 73.622828 
L 325.738595 78.260827 
L 326.824396 77.509988 
L 327.910198 60.586953 
L 328.995999 64.922617 
L 330.0818 67.982546 
L 331.167601 67.936077 
L 332.253402 65.489059 
L 333.339203 66.262627 
L 334.425005 57.895659 
L 335.510806 74.31953 
L 337.682408 74.450352 
L 338.768209 69.079761 
L 339.85401 83.90921 
L 340.939811 86.56704 
L 342.025613 87.440573 
L 343.111414 84.541809 
L 344.197215 80.421281 
L 345.283016 80.945297 
L 346.368817 83.34217 
L 347.454618 75.032428 
L 348.54042 77.624199 
L 349.626221 92.261863 
L 350.712022 95.290013 
L 351.797823 93.393383 
L 352.883624 77.604906 
L 353.969425 80.384978 
L 355.055227 77.845772 
L 356.141028 69.648318 
L 357.226829 71.650536 
L 358.31263 83.174719 
L 359.398431 64.707528 
L 360.484232 79.641027 
L 361.570033 80.457858 
L 362.655835 62.418686 
L 363.741636 89.065271 
L 364.827437 83.430382 
L 365.913238 86.903196 
L 366.999039 84.419014 
L 368.08484 72.009272 
L 369.170642 88.632107 
L 370.256443 100.133396 
L 371.342244 84.689715 
L 372.428045 67.63139 
L 373.513846 72.704426 
L 374.599647 84.949186 
L 375.685448 74.454619 
L 376.77125 70.800018 
L 377.857051 74.714775 
L 378.942852 67.548272 
L 380.028653 78.483442 
L 381.114454 81.901142 
L 382.200255 77.526902 
L 383.286057 75.644066 
L 384.371858 80.779455 
L 385.457659 76.995369 
L 386.54346 74.906748 
L 387.629261 81.418333 
L 388.715062 82.03396 
L 389.800863 59.939108 
L 390.886665 69.301841 
L 391.972466 88.290723 
L 393.058267 76.769328 
L 394.144068 58.071925 
L 395.229869 71.262436 
L 396.31567 71.010876 
L 397.401472 78.129503 
L 398.487273 70.040682 
L 398.487273 70.040682 
" style="fill:none;stroke:#008000;stroke-dasharray:9.6,2.4,1.5,2.4;stroke-dashoffset:0;stroke-width:1.5;"/>
   </g>
   <g id="line2d_34">
    <path clip-path="url(#pfbe4d42442)" d="M 73.832727 185.996642 
L 74.918528 154.770219 
L 76.00433 161.905158 
L 77.090131 148.746287 
L 78.175932 138.539457 
L 79.261733 131.536969 
L 80.347534 129.919429 
L 81.433335 132.409466 
L 82.519137 139.159047 
L 83.604938 141.979281 
L 84.690739 138.093352 
L 85.77654 126.774187 
L 86.862341 128.507725 
L 87.948142 129.150089 
L 89.033943 125.922124 
L 90.119745 120.897976 
L 91.205546 122.011922 
L 92.291347 128.897447 
L 93.377148 119.995708 
L 94.462949 127.182252 
L 95.54875 122.836568 
L 96.634552 131.287927 
L 97.720353 134.670367 
L 98.806154 121.203922 
L 99.891955 126.034761 
L 100.977756 123.965299 
L 102.063557 111.745453 
L 103.149358 124.529027 
L 104.23516 122.022902 
L 105.320961 112.082548 
L 106.406762 124.701805 
L 107.492563 126.826893 
L 108.578364 115.687499 
L 109.664165 122.9729 
L 110.749967 116.199893 
L 111.835768 119.441452 
L 112.921569 119.015425 
L 114.00737 108.009896 
L 115.093171 112.24652 
L 116.178972 128.97479 
L 117.264773 113.48144 
L 118.350575 106.785181 
L 119.436376 129.54566 
L 120.522177 110.262333 
L 121.607978 109.824407 
L 122.693779 117.413617 
L 123.77958 109.758244 
L 124.865382 108.816587 
L 125.951183 124.283661 
L 127.036984 130.674359 
L 128.122785 101.265048 
L 129.208586 112.669027 
L 130.294387 109.222957 
L 131.380189 129.603884 
L 132.46599 114.174319 
L 133.551791 112.086456 
L 134.637592 114.578778 
L 135.723393 124.031131 
L 136.809194 115.753144 
L 137.894995 115.83852 
L 138.980797 118.027875 
L 140.066598 112.913624 
L 141.152399 128.372934 
L 142.2382 122.226876 
L 143.324001 120.651239 
L 144.409802 136.930445 
L 145.495604 112.927675 
L 146.581405 103.641937 
L 147.667206 101.66403 
L 148.753007 114.905416 
L 149.838808 109.791781 
L 150.924609 111.567382 
L 152.01041 116.79398 
L 153.096212 113.975001 
L 154.182013 106.336745 
L 155.267814 119.41574 
L 156.353615 101.568163 
L 157.439416 113.759633 
L 158.525217 99.368401 
L 159.611019 101.331141 
L 161.782621 115.632964 
L 162.868422 110.287289 
L 163.954223 93.155899 
L 165.040024 100.27866 
L 166.125825 108.92112 
L 167.211627 96.519059 
L 169.383229 108.70919 
L 171.554831 88.905156 
L 172.640632 96.403987 
L 173.726434 91.318288 
L 174.812235 95.657516 
L 175.898036 86.820189 
L 176.983837 92.276641 
L 178.069638 91.676005 
L 179.155439 90.505855 
L 180.24124 93.807043 
L 181.327042 77.142367 
L 182.412843 78.637984 
L 183.498644 85.357398 
L 184.584445 84.777322 
L 185.670246 93.015584 
L 186.756047 74.584735 
L 187.841849 77.843356 
L 188.92765 73.530703 
L 190.013451 72.852732 
L 191.099252 75.373257 
L 192.185053 81.1042 
L 193.270854 79.803815 
L 194.356656 80.624791 
L 195.442457 70.552185 
L 196.528258 75.487374 
L 197.614059 86.036154 
L 198.69986 85.663319 
L 199.785661 87.206682 
L 200.871462 77.821915 
L 201.957264 72.722251 
L 203.043065 78.683487 
L 204.128866 74.778613 
L 205.214667 80.786236 
L 206.300468 82.854737 
L 207.386269 82.296312 
L 208.472071 93.253737 
L 209.557872 86.922627 
L 210.643673 71.636334 
L 211.729474 74.658364 
L 212.815275 90.771071 
L 213.901076 91.544835 
L 214.986877 88.306053 
L 216.072679 89.606926 
L 217.15848 80.795699 
L 218.244281 94.188113 
L 219.330082 87.064835 
L 220.415883 80.881234 
L 221.501684 71.650613 
L 222.587486 79.908168 
L 223.673287 80.776016 
L 224.759088 67.066505 
L 226.93069 73.11621 
L 228.016491 67.182611 
L 229.102292 64.123213 
L 230.188094 70.378927 
L 231.273895 65.577478 
L 234.531298 69.779187 
L 235.617099 64.668053 
L 236.702901 70.835615 
L 237.788702 72.831021 
L 238.874503 73.885453 
L 239.960304 69.591758 
L 241.046105 64.503274 
L 242.131906 73.923523 
L 243.217708 62.859181 
L 244.303509 72.514408 
L 245.38931 72.167364 
L 247.560912 68.072772 
L 248.646713 72.112731 
L 249.732514 73.122805 
L 250.818316 72.181461 
L 251.904117 72.182037 
L 252.989918 69.657945 
L 254.075719 69.252688 
L 255.16152 70.810072 
L 256.247321 73.268889 
L 257.333123 75.111152 
L 258.418924 66.424686 
L 259.504725 69.994622 
L 260.590526 78.042608 
L 261.676327 76.770067 
L 262.762128 73.164959 
L 263.847929 68.155993 
L 264.933731 75.734181 
L 266.019532 71.865877 
L 267.105333 69.371513 
L 268.191134 74.287888 
L 269.276935 78.509034 
L 270.362736 64.9105 
L 271.448538 66.73687 
L 272.534339 65.583689 
L 273.62014 65.143078 
L 274.705941 73.436539 
L 275.791742 69.830912 
L 276.877543 67.249252 
L 277.963344 71.885425 
L 279.049146 72.563025 
L 280.134947 72.74193 
L 281.220748 70.187862 
L 282.306549 68.118353 
L 283.39235 65.152142 
L 284.478151 73.891659 
L 285.563953 60.206947 
L 286.649754 74.587796 
L 287.735555 69.81604 
L 288.821356 71.366974 
L 289.907157 68.132704 
L 290.992958 83.491195 
L 292.07876 68.069782 
L 293.164561 71.318984 
L 294.250362 71.259428 
L 297.507765 76.899645 
L 298.593566 63.896874 
L 299.679368 66.525961 
L 301.85097 74.492727 
L 302.936771 68.026959 
L 304.022572 68.079053 
L 305.108373 70.332014 
L 306.194175 77.325763 
L 307.279976 71.899038 
L 308.365777 71.767626 
L 309.451578 64.268476 
L 310.537379 62.715611 
L 311.62318 71.053367 
L 312.708981 67.891517 
L 313.794783 69.377021 
L 314.880584 65.133052 
L 315.966385 62.662228 
L 318.137987 71.119485 
L 319.223788 66.236204 
L 320.30959 64.328608 
L 321.395391 66.441649 
L 322.481192 66.11758 
L 323.566993 67.682484 
L 324.652794 66.984137 
L 325.738595 78.635143 
L 326.824396 79.58096 
L 327.910198 69.731492 
L 328.995999 73.577595 
L 330.0818 72.686733 
L 331.167601 70.146225 
L 332.253402 69.22539 
L 333.339203 66.816312 
L 334.425005 67.860576 
L 335.510806 82.387366 
L 336.596607 78.192576 
L 337.682408 70.016394 
L 338.768209 71.305582 
L 339.85401 77.489141 
L 340.939811 80.538029 
L 342.025613 82.495375 
L 343.111414 86.210117 
L 344.197215 75.010839 
L 345.283016 81.494546 
L 346.368817 79.315934 
L 347.454618 66.094836 
L 348.54042 78.640721 
L 349.626221 81.650327 
L 350.712022 87.659646 
L 351.797823 85.256 
L 352.883624 79.579046 
L 353.969425 75.799675 
L 355.055227 75.684063 
L 356.141028 74.712153 
L 357.226829 70.696509 
L 358.31263 77.47182 
L 359.398431 68.759733 
L 360.484232 75.067231 
L 361.570033 84.465841 
L 362.655835 74.937168 
L 363.741636 91.381561 
L 364.827437 78.947931 
L 365.913238 87.162644 
L 366.999039 87.867583 
L 368.08484 76.782249 
L 369.170642 90.951079 
L 370.256443 95.07588 
L 371.342244 84.812406 
L 372.428045 75.65914 
L 373.513846 79.349688 
L 374.599647 78.044204 
L 375.685448 81.374597 
L 376.77125 72.157494 
L 377.857051 81.515478 
L 378.942852 71.508311 
L 380.028653 88.274449 
L 381.114454 87.380989 
L 382.200255 74.930108 
L 383.286057 80.703223 
L 384.371858 77.965414 
L 386.54346 85.397174 
L 387.629261 75.251931 
L 388.715062 83.03868 
L 389.800863 60.177047 
L 390.886665 67.481268 
L 391.972466 81.295803 
L 393.058267 75.359828 
L 394.144068 62.82671 
L 395.229869 60.566281 
L 396.31567 65.320897 
L 397.401472 71.220313 
L 398.487273 67.029517 
L 398.487273 67.029517 
" style="fill:none;stroke:#ff0000;stroke-linecap:square;stroke-width:1.5;"/>
   </g>
   <g id="patch_3">
    <path d="M 57.6 307.584 
L 57.6 41.472 
" style="fill:none;stroke:#000000;stroke-linecap:square;stroke-linejoin:miter;stroke-width:0.8;"/>
   </g>
   <g id="patch_4">
    <path d="M 414.72 307.584 
L 414.72 41.472 
" style="fill:none;stroke:#000000;stroke-linecap:square;stroke-linejoin:miter;stroke-width:0.8;"/>
   </g>
   <g id="patch_5">
    <path d="M 57.6 307.584 
L 414.72 307.584 
" style="fill:none;stroke:#000000;stroke-linecap:square;stroke-linejoin:miter;stroke-width:0.8;"/>
   </g>
   <g id="patch_6">
    <path d="M 57.6 41.472 
L 414.72 41.472 
" style="fill:none;stroke:#000000;stroke-linecap:square;stroke-linejoin:miter;stroke-width:0.8;"/>
   </g>
   <g id="text_18">
    <!-- Population's average and best fitness -->
    <defs>
     <path d="M 19.671875 64.796875 
L 19.671875 37.40625 
L 32.078125 37.40625 
Q 38.96875 37.40625 42.71875 40.96875 
Q 46.484375 44.53125 46.484375 51.125 
Q 46.484375 57.671875 42.71875 61.234375 
Q 38.96875 64.796875 32.078125 64.796875 
z
M 9.8125 72.90625 
L 32.078125 72.90625 
Q 44.34375 72.90625 50.609375 67.359375 
Q 56.890625 61.8125 56.890625 51.125 
Q 56.890625 40.328125 50.609375 34.8125 
Q 44.34375 29.296875 32.078125 29.296875 
L 19.671875 29.296875 
L 19.671875 0 
L 9.8125 0 
z
" id="DejaVuSans-80"/>
     <path d="M 18.109375 8.203125 
L 18.109375 -20.796875 
L 9.078125 -20.796875 
L 9.078125 54.6875 
L 18.109375 54.6875 
L 18.109375 46.390625 
Q 20.953125 51.265625 25.265625 53.625 
Q 29.59375 56 35.59375 56 
Q 45.5625 56 51.78125 48.09375 
Q 58.015625 40.1875 58.015625 27.296875 
Q 58.015625 14.40625 51.78125 6.484375 
Q 45.5625 -1.421875 35.59375 -1.421875 
Q 29.59375 -1.421875 25.265625 0.953125 
Q 20.953125 3.328125 18.109375 8.203125 
z
M 48.6875 27.296875 
Q 48.6875 37.203125 44.609375 42.84375 
Q 40.53125 48.484375 33.40625 48.484375 
Q 26.265625 48.484375 22.1875 42.84375 
Q 18.109375 37.203125 18.109375 27.296875 
Q 18.109375 17.390625 22.1875 11.75 
Q 26.265625 6.109375 33.40625 6.109375 
Q 40.53125 6.109375 44.609375 11.75 
Q 48.6875 17.390625 48.6875 27.296875 
z
" id="DejaVuSans-112"/>
     <path d="M 8.5 21.578125 
L 8.5 54.6875 
L 17.484375 54.6875 
L 17.484375 21.921875 
Q 17.484375 14.15625 20.5 10.265625 
Q 23.53125 6.390625 29.59375 6.390625 
Q 36.859375 6.390625 41.078125 11.03125 
Q 45.3125 15.671875 45.3125 23.6875 
L 45.3125 54.6875 
L 54.296875 54.6875 
L 54.296875 0 
L 45.3125 0 
L 45.3125 8.40625 
Q 42.046875 3.421875 37.71875 1 
Q 33.40625 -1.421875 27.6875 -1.421875 
Q 18.265625 -1.421875 13.375 4.4375 
Q 8.5 10.296875 8.5 21.578125 
z
M 31.109375 56 
z
" id="DejaVuSans-117"/>
     <path d="M 9.421875 75.984375 
L 18.40625 75.984375 
L 18.40625 0 
L 9.421875 0 
z
" id="DejaVuSans-108"/>
     <path d="M 17.921875 72.90625 
L 17.921875 45.796875 
L 9.625 45.796875 
L 9.625 72.90625 
z
" id="DejaVuSans-39"/>
     <path id="DejaVuSans-32"/>
     <path d="M 2.984375 54.6875 
L 12.5 54.6875 
L 29.59375 8.796875 
L 46.6875 54.6875 
L 56.203125 54.6875 
L 35.6875 0 
L 23.484375 0 
z
" id="DejaVuSans-118"/>
     <path d="M 45.40625 27.984375 
Q 45.40625 37.75 41.375 43.109375 
Q 37.359375 48.484375 30.078125 48.484375 
Q 22.859375 48.484375 18.828125 43.109375 
Q 14.796875 37.75 14.796875 27.984375 
Q 14.796875 18.265625 18.828125 12.890625 
Q 22.859375 7.515625 30.078125 7.515625 
Q 37.359375 7.515625 41.375 12.890625 
Q 45.40625 18.265625 45.40625 27.984375 
z
M 54.390625 6.78125 
Q 54.390625 -7.171875 48.1875 -13.984375 
Q 42 -20.796875 29.203125 -20.796875 
Q 24.46875 -20.796875 20.265625 -20.09375 
Q 16.0625 -19.390625 12.109375 -17.921875 
L 12.109375 -9.1875 
Q 16.0625 -11.328125 19.921875 -12.34375 
Q 23.78125 -13.375 27.78125 -13.375 
Q 36.625 -13.375 41.015625 -8.765625 
Q 45.40625 -4.15625 45.40625 5.171875 
L 45.40625 9.625 
Q 42.625 4.78125 38.28125 2.390625 
Q 33.9375 0 27.875 0 
Q 17.828125 0 11.671875 7.65625 
Q 5.515625 15.328125 5.515625 27.984375 
Q 5.515625 40.671875 11.671875 48.328125 
Q 17.828125 56 27.875 56 
Q 33.9375 56 38.28125 53.609375 
Q 42.625 51.21875 45.40625 46.390625 
L 45.40625 54.6875 
L 54.390625 54.6875 
z
" id="DejaVuSans-103"/>
     <path d="M 45.40625 46.390625 
L 45.40625 75.984375 
L 54.390625 75.984375 
L 54.390625 0 
L 45.40625 0 
L 45.40625 8.203125 
Q 42.578125 3.328125 38.25 0.953125 
Q 33.9375 -1.421875 27.875 -1.421875 
Q 17.96875 -1.421875 11.734375 6.484375 
Q 5.515625 14.40625 5.515625 27.296875 
Q 5.515625 40.1875 11.734375 48.09375 
Q 17.96875 56 27.875 56 
Q 33.9375 56 38.25 53.625 
Q 42.578125 51.265625 45.40625 46.390625 
z
M 14.796875 27.296875 
Q 14.796875 17.390625 18.875 11.75 
Q 22.953125 6.109375 30.078125 6.109375 
Q 37.203125 6.109375 41.296875 11.75 
Q 45.40625 17.390625 45.40625 27.296875 
Q 45.40625 37.203125 41.296875 42.84375 
Q 37.203125 48.484375 30.078125 48.484375 
Q 22.953125 48.484375 18.875 42.84375 
Q 14.796875 37.203125 14.796875 27.296875 
z
" id="DejaVuSans-100"/>
     <path d="M 48.6875 27.296875 
Q 48.6875 37.203125 44.609375 42.84375 
Q 40.53125 48.484375 33.40625 48.484375 
Q 26.265625 48.484375 22.1875 42.84375 
Q 18.109375 37.203125 18.109375 27.296875 
Q 18.109375 17.390625 22.1875 11.75 
Q 26.265625 6.109375 33.40625 6.109375 
Q 40.53125 6.109375 44.609375 11.75 
Q 48.6875 17.390625 48.6875 27.296875 
z
M 18.109375 46.390625 
Q 20.953125 51.265625 25.265625 53.625 
Q 29.59375 56 35.59375 56 
Q 45.5625 56 51.78125 48.09375 
Q 58.015625 40.1875 58.015625 27.296875 
Q 58.015625 14.40625 51.78125 6.484375 
Q 45.5625 -1.421875 35.59375 -1.421875 
Q 29.59375 -1.421875 25.265625 0.953125 
Q 20.953125 3.328125 18.109375 8.203125 
L 18.109375 0 
L 9.078125 0 
L 9.078125 75.984375 
L 18.109375 75.984375 
z
" id="DejaVuSans-98"/>
     <path d="M 37.109375 75.984375 
L 37.109375 68.5 
L 28.515625 68.5 
Q 23.6875 68.5 21.796875 66.546875 
Q 19.921875 64.59375 19.921875 59.515625 
L 19.921875 54.6875 
L 34.71875 54.6875 
L 34.71875 47.703125 
L 19.921875 47.703125 
L 19.921875 0 
L 10.890625 0 
L 10.890625 47.703125 
L 2.296875 47.703125 
L 2.296875 54.6875 
L 10.890625 54.6875 
L 10.890625 58.5 
Q 10.890625 67.625 15.140625 71.796875 
Q 19.390625 75.984375 28.609375 75.984375 
z
" id="DejaVuSans-102"/>
    </defs>
    <g transform="translate(123.315 35.472)scale(0.12 -0.12)">
     <use xlink:href="#DejaVuSans-80"/>
     <use x="60.255859" xlink:href="#DejaVuSans-111"/>
     <use x="121.4375" xlink:href="#DejaVuSans-112"/>
     <use x="184.914062" xlink:href="#DejaVuSans-117"/>
     <use x="248.292969" xlink:href="#DejaVuSans-108"/>
     <use x="276.076172" xlink:href="#DejaVuSans-97"/>
     <use x="337.355469" xlink:href="#DejaVuSans-116"/>
     <use x="376.564453" xlink:href="#DejaVuSans-105"/>
     <use x="404.347656" xlink:href="#DejaVuSans-111"/>
     <use x="465.529297" xlink:href="#DejaVuSans-110"/>
     <use x="528.908203" xlink:href="#DejaVuSans-39"/>
     <use x="556.398438" xlink:href="#DejaVuSans-115"/>
     <use x="608.498047" xlink:href="#DejaVuSans-32"/>
     <use x="640.285156" xlink:href="#DejaVuSans-97"/>
     <use x="701.564453" xlink:href="#DejaVuSans-118"/>
     <use x="760.744141" xlink:href="#DejaVuSans-101"/>
     <use x="822.267578" xlink:href="#DejaVuSans-114"/>
     <use x="863.380859" xlink:href="#DejaVuSans-97"/>
     <use x="924.660156" xlink:href="#DejaVuSans-103"/>
     <use x="988.136719" xlink:href="#DejaVuSans-101"/>
     <use x="1049.660156" xlink:href="#DejaVuSans-32"/>
     <use x="1081.447266" xlink:href="#DejaVuSans-97"/>
     <use x="1142.726562" xlink:href="#DejaVuSans-110"/>
     <use x="1206.105469" xlink:href="#DejaVuSans-100"/>
     <use x="1269.582031" xlink:href="#DejaVuSans-32"/>
     <use x="1301.369141" xlink:href="#DejaVuSans-98"/>
     <use x="1364.845703" xlink:href="#DejaVuSans-101"/>
     <use x="1426.369141" xlink:href="#DejaVuSans-115"/>
     <use x="1478.46875" xlink:href="#DejaVuSans-116"/>
     <use x="1517.677734" xlink:href="#DejaVuSans-32"/>
     <use x="1549.464844" xlink:href="#DejaVuSans-102"/>
     <use x="1584.669922" xlink:href="#DejaVuSans-105"/>
     <use x="1612.453125" xlink:href="#DejaVuSans-116"/>
     <use x="1651.662109" xlink:href="#DejaVuSans-110"/>
     <use x="1715.041016" xlink:href="#DejaVuSans-101"/>
     <use x="1776.564453" xlink:href="#DejaVuSans-115"/>
     <use x="1828.664062" xlink:href="#DejaVuSans-115"/>
    </g>
   </g>
   <g id="legend_1">
    <g id="patch_7">
     <path d="M 334.779375 302.584 
L 407.72 302.584 
Q 409.72 302.584 409.72 300.584 
L 409.72 242.8715 
Q 409.72 240.8715 407.72 240.8715 
L 334.779375 240.8715 
Q 332.779375 240.8715 332.779375 242.8715 
L 332.779375 300.584 
Q 332.779375 302.584 334.779375 302.584 
z
" style="fill:#ffffff;opacity:0.8;stroke:#cccccc;stroke-linejoin:miter;"/>
    </g>
    <g id="line2d_35">
     <path d="M 336.779375 248.969937 
L 356.779375 248.969937 
" style="fill:none;stroke:#0000ff;stroke-linecap:square;stroke-width:1.5;"/>
    </g>
    <g id="line2d_36"/>
    <g id="text_19">
     <!-- average -->
     <g transform="translate(364.779375 252.469937)scale(0.1 -0.1)">
      <use xlink:href="#DejaVuSans-97"/>
      <use x="61.279297" xlink:href="#DejaVuSans-118"/>
      <use x="120.458984" xlink:href="#DejaVuSans-101"/>
      <use x="181.982422" xlink:href="#DejaVuSans-114"/>
      <use x="223.095703" xlink:href="#DejaVuSans-97"/>
      <use x="284.375" xlink:href="#DejaVuSans-103"/>
      <use x="347.851562" xlink:href="#DejaVuSans-101"/>
     </g>
    </g>
    <g id="line2d_37">
     <path d="M 336.779375 263.648062 
L 356.779375 263.648062 
" style="fill:none;stroke:#008000;stroke-dasharray:9.6,2.4,1.5,2.4;stroke-dashoffset:0;stroke-width:1.5;"/>
    </g>
    <g id="line2d_38"/>
    <g id="text_20">
     <!-- -1 sd -->
     <defs>
      <path d="M 4.890625 31.390625 
L 31.203125 31.390625 
L 31.203125 23.390625 
L 4.890625 23.390625 
z
" id="DejaVuSans-45"/>
     </defs>
     <g transform="translate(364.779375 267.148062)scale(0.1 -0.1)">
      <use xlink:href="#DejaVuSans-45"/>
      <use x="36.083984" xlink:href="#DejaVuSans-49"/>
      <use x="99.707031" xlink:href="#DejaVuSans-32"/>
      <use x="131.494141" xlink:href="#DejaVuSans-115"/>
      <use x="183.59375" xlink:href="#DejaVuSans-100"/>
     </g>
    </g>
    <g id="line2d_39">
     <path d="M 336.779375 278.326187 
L 356.779375 278.326187 
" style="fill:none;stroke:#008000;stroke-dasharray:9.6,2.4,1.5,2.4;stroke-dashoffset:0;stroke-width:1.5;"/>
    </g>
    <g id="line2d_40"/>
    <g id="text_21">
     <!-- +1 sd -->
     <defs>
      <path d="M 46 62.703125 
L 46 35.5 
L 73.1875 35.5 
L 73.1875 27.203125 
L 46 27.203125 
L 46 0 
L 37.796875 0 
L 37.796875 27.203125 
L 10.59375 27.203125 
L 10.59375 35.5 
L 37.796875 35.5 
L 37.796875 62.703125 
z
" id="DejaVuSans-43"/>
     </defs>
     <g transform="translate(364.779375 281.826187)scale(0.1 -0.1)">
      <use xlink:href="#DejaVuSans-43"/>
      <use x="83.789062" xlink:href="#DejaVuSans-49"/>
      <use x="147.412109" xlink:href="#DejaVuSans-32"/>
      <use x="179.199219" xlink:href="#DejaVuSans-115"/>
      <use x="231.298828" xlink:href="#DejaVuSans-100"/>
     </g>
    </g>
    <g id="line2d_41">
     <path d="M 336.779375 293.004312 
L 356.779375 293.004312 
" style="fill:none;stroke:#ff0000;stroke-linecap:square;stroke-width:1.5;"/>
    </g>
    <g id="line2d_42"/>
    <g id="text_22">
     <!-- best -->
     <g transform="translate(364.779375 296.504312)scale(0.1 -0.1)">
      <use xlink:href="#DejaVuSans-98"/>
      <use x="63.476562" xlink:href="#DejaVuSans-101"/>
      <use x="125" xlink:href="#DejaVuSans-115"/>
      <use x="177.099609" xlink:href="#DejaVuSans-116"/>
     </g>
    </g>
   </g>
  </g>
 </g>
 <defs>
  <clipPath id="pfbe4d42442">
   <rect height="266.112" width="357.12" x="57.6" y="41.472"/>
  </clipPath>
 </defs>
</svg>
