<?xml version="1.0" encoding="UTF-8" standalone="no"?>
<!DOCTYPE svg PUBLIC "-//W3C//DTD SVG 1.1//EN"
 "http://www.w3.org/Graphics/SVG/1.1/DTD/svg11.dtd">
<!-- Generated by graphviz version 2.40.1 (20161225.0304)
 -->
<!-- Title: %3 Pages: 1 -->
<svg width="472pt" height="175pt"
 viewBox="0.00 0.00 472.00 174.79" xmlns="http://www.w3.org/2000/svg" xmlns:xlink="http://www.w3.org/1999/xlink">
<g id="graph0" class="graph" transform="scale(1 1) rotate(0) translate(4 170.7893)">
<title>%3</title>
<polygon fill="#ffffff" stroke="transparent" points="-4,4 -4,-170.7893 467.9976,-170.7893 467.9976,4 -4,4"/>
<!-- E0 -->
<g id="node1" class="node">
<title>E0</title>
<polygon fill="#d3d3d3" stroke="#000000" points="25.9963,-166.7893 .0012,-166.7893 .0012,-149.7893 25.9963,-149.7893 25.9963,-166.7893"/>
<text text-anchor="middle" x="12.9988" y="-155.5893" font-family="Times,serif" font-size="9.00" fill="#000000">E0</text>
</g>
<!-- E1 -->
<g id="node2" class="node">
<title>E1</title>
<polygon fill="#d3d3d3" stroke="#000000" points="69.9963,-166.7893 44.0012,-166.7893 44.0012,-149.7893 69.9963,-149.7893 69.9963,-166.7893"/>
<text text-anchor="middle" x="56.9988" y="-155.5893" font-family="Times,serif" font-size="9.00" fill="#000000">E1</text>
</g>
<!-- E0&#45;&gt;E1 -->
<!-- E2 -->
<g id="node3" class="node">
<title>E2</title>
<polygon fill="#d3d3d3" stroke="#000000" points="113.9963,-166.7893 88.0012,-166.7893 88.0012,-149.7893 113.9963,-149.7893 113.9963,-166.7893"/>
<text text-anchor="middle" x="100.9988" y="-155.5893" font-family="Times,serif" font-size="9.00" fill="#000000">E2</text>
</g>
<!-- E1&#45;&gt;E2 -->
<!-- 2 -->
<g id="node12" class="node">
<title>2</title>
<ellipse fill="#ffa07a" stroke="#000000" cx="246.9988" cy="-14.853" rx="14.4914" ry="14.4914"/>
<text text-anchor="middle" x="246.9988" y="-12.153" font-family="Times,serif" font-size="9.00" fill="#000000">2</text>
</g>
<!-- E1&#45;&gt;2 -->
<g id="edge14" class="edge">
<title>E1&#45;&gt;2</title>
<path fill="none" stroke="#00ff00" stroke-width=".5053" d="M68.3151,-149.7463C99.5095,-126.1968 187.0485,-60.1112 226.8484,-30.0651"/>
<polygon fill="#00ff00" stroke="#00ff00" stroke-width=".5053" points="229.1421,-32.7189 235.0144,-23.9004 224.9245,-27.1322 229.1421,-32.7189"/>
</g>
<!-- 5294 -->
<g id="node14" class="node">
<title>5294</title>
<ellipse fill="#add8e6" stroke="#000000" cx="56.9988" cy="-89.7477" rx="24.0833" ry="24.0833"/>
<text text-anchor="middle" x="56.9988" y="-91.5477" font-family="Times,serif" font-size="9.00" fill="#000000">5294</text>
<text text-anchor="middle" x="56.9988" y="-82.5477" font-family="Times,serif" font-size="9.00" fill="#000000">sigm</text>
</g>
<!-- E1&#45;&gt;5294 -->
<g id="edge25" class="edge">
<title>E1&#45;&gt;5294</title>
<path fill="none" stroke="#00ff00" stroke-width=".2642" d="M56.9988,-149.6085C56.9988,-143.0479 56.9988,-133.5804 56.9988,-124.1041"/>
<polygon fill="#00ff00" stroke="#00ff00" stroke-width=".2642" points="60.4989,-123.9551 56.9988,-113.9551 53.4989,-123.9552 60.4989,-123.9551"/>
</g>
<!-- E3 -->
<g id="node4" class="node">
<title>E3</title>
<polygon fill="#d3d3d3" stroke="#000000" points="157.9963,-166.7893 132.0012,-166.7893 132.0012,-149.7893 157.9963,-149.7893 157.9963,-166.7893"/>
<text text-anchor="middle" x="144.9988" y="-155.5893" font-family="Times,serif" font-size="9.00" fill="#000000">E3</text>
</g>
<!-- E2&#45;&gt;E3 -->
<!-- 0 -->
<g id="node10" class="node">
<title>0</title>
<ellipse fill="#87cefa" stroke="#000000" cx="123.9988" cy="-14.853" rx="14.4914" ry="14.4914"/>
<text text-anchor="middle" x="123.9988" y="-12.153" font-family="Times,serif" font-size="9.00" fill="#000000">0</text>
</g>
<!-- E2&#45;&gt;0 -->
<g id="edge24" class="edge">
<title>E2&#45;&gt;0</title>
<path fill="none" stroke="#ff0000" stroke-width=".1954" d="M87.8372,-152.6289C67.7707,-143.6986 31.0985,-126.0925 23.9988,-113.7893 13.3176,-95.2798 12.8256,-83.9229 23.9988,-65.7061 40.4093,-38.9502 75.7862,-25.7284 99.7476,-19.6039"/>
<polygon fill="#ff0000" stroke="#ff0000" stroke-width=".1954" points="100.5879,-23.0019 109.5368,-17.3303 99.0042,-16.1834 100.5879,-23.0019"/>
</g>
<!-- S -->
<g id="node13" class="node">
<title>S</title>
<ellipse fill="#eee8aa" stroke="#000000" cx="374.9988" cy="-14.853" rx="14.7075" ry="14.7075"/>
<text text-anchor="middle" x="374.9988" y="-12.153" font-family="Times,serif" font-size="9.00" fill="#000000">S</text>
</g>
<!-- E2&#45;&gt;S -->
<g id="edge17" class="edge">
<title>E2&#45;&gt;S</title>
<path fill="none" stroke="#ff0000" stroke-width=".6937" d="M114.2144,-151.3711C157.8801,-128.5125 297.8588,-55.2351 352.6803,-26.5365"/>
<polygon fill="#ff0000" stroke="#ff0000" stroke-width=".6937" points="354.3586,-29.6086 361.5948,-21.8699 351.112,-23.407 354.3586,-29.6086"/>
</g>
<!-- E4 -->
<g id="node5" class="node">
<title>E4</title>
<polygon fill="#d3d3d3" stroke="#000000" points="201.9963,-166.7893 176.0012,-166.7893 176.0012,-149.7893 201.9963,-149.7893 201.9963,-166.7893"/>
<text text-anchor="middle" x="188.9988" y="-155.5893" font-family="Times,serif" font-size="9.00" fill="#000000">E4</text>
</g>
<!-- E3&#45;&gt;E4 -->
<!-- E3&#45;&gt;0 -->
<g id="edge20" class="edge">
<title>E3&#45;&gt;0</title>
<path fill="none" stroke="#00ff00" stroke-width=".3054" d="M142.1532,-149.5259C139.3775,-140.624 135.2538,-126.3919 132.9988,-113.7893 128.5132,-88.7207 126.2079,-59.6564 125.0601,-39.5455"/>
<polygon fill="#00ff00" stroke="#00ff00" stroke-width=".3054" points="128.5461,-39.1824 124.535,-29.3762 121.5554,-39.5434 128.5461,-39.1824"/>
</g>
<!-- E3&#45;&gt;2 -->
<g id="edge19" class="edge">
<title>E3&#45;&gt;2</title>
<path fill="none" stroke="#ff0000" stroke-width=".1317" d="M158.0799,-152.8052C182.2928,-142.5344 232.091,-120.8037 236.9988,-113.7893 252.1541,-92.1287 252.7568,-60.9822 250.7939,-39.448"/>
<polygon fill="#ff0000" stroke="#ff0000" stroke-width=".1317" points="254.2632,-38.9801 249.6371,-29.4486 247.3096,-39.7846 254.2632,-38.9801"/>
</g>
<!-- E5 -->
<g id="node6" class="node">
<title>E5</title>
<polygon fill="#d3d3d3" stroke="#000000" points="275.9963,-166.7893 250.0012,-166.7893 250.0012,-149.7893 275.9963,-149.7893 275.9963,-166.7893"/>
<text text-anchor="middle" x="262.9988" y="-155.5893" font-family="Times,serif" font-size="9.00" fill="#000000">E5</text>
</g>
<!-- E4&#45;&gt;E5 -->
<!-- E4&#45;&gt;0 -->
<g id="edge13" class="edge">
<title>E4&#45;&gt;0</title>
<path fill="none" stroke="#00ff00" stroke-width=".2324" d="M185.1274,-149.7463C175.2696,-127.9929 148.9642,-69.9445 134.277,-37.5341"/>
<polygon fill="#00ff00" stroke="#00ff00" stroke-width=".2324" points="137.4386,-36.0311 130.123,-28.3674 131.0627,-38.9204 137.4386,-36.0311"/>
</g>
<!-- 1 -->
<g id="node11" class="node">
<title>1</title>
<ellipse fill="#87cefa" stroke="#000000" cx="184.9988" cy="-14.853" rx="14.4914" ry="14.4914"/>
<text text-anchor="middle" x="184.9988" y="-12.153" font-family="Times,serif" font-size="9.00" fill="#000000">1</text>
</g>
<!-- E4&#45;&gt;1 -->
<g id="edge21" class="edge">
<title>E4&#45;&gt;1</title>
<path fill="none" stroke="#00ff00" stroke-width="1.1373" d="M188.7605,-149.7463C188.1682,-128.5056 186.6108,-72.6603 185.6964,-39.8674"/>
<polygon fill="#00ff00" stroke="#00ff00" stroke-width="1.1373" points="189.1907,-39.6118 185.4132,-29.7133 182.1934,-39.807 189.1907,-39.6118"/>
</g>
<!-- E6 -->
<g id="node7" class="node">
<title>E6</title>
<polygon fill="#d3d3d3" stroke="#000000" points="349.9963,-166.7893 324.0012,-166.7893 324.0012,-149.7893 349.9963,-149.7893 349.9963,-166.7893"/>
<text text-anchor="middle" x="336.9988" y="-155.5893" font-family="Times,serif" font-size="9.00" fill="#000000">E6</text>
</g>
<!-- E5&#45;&gt;E6 -->
<!-- E7 -->
<g id="node8" class="node">
<title>E7</title>
<polygon fill="#d3d3d3" stroke="#000000" points="419.9963,-166.7893 394.0012,-166.7893 394.0012,-149.7893 419.9963,-149.7893 419.9963,-166.7893"/>
<text text-anchor="middle" x="406.9988" y="-155.5893" font-family="Times,serif" font-size="9.00" fill="#000000">E7</text>
</g>
<!-- E6&#45;&gt;E7 -->
<!-- E6&#45;&gt;0 -->
<g id="edge18" class="edge">
<title>E6&#45;&gt;0</title>
<path fill="none" stroke="#00ff00" stroke-width=".2478" d="M324.3125,-149.7463C288.777,-125.8163 188.0187,-57.9647 144.4682,-28.6374"/>
<polygon fill="#00ff00" stroke="#00ff00" stroke-width=".2478" points="146.337,-25.6762 136.0874,-22.9936 142.427,-31.4825 146.337,-25.6762"/>
</g>
<!-- E6&#45;&gt;S -->
<g id="edge12" class="edge">
<title>E6&#45;&gt;S</title>
<path fill="none" stroke="#ff0000" stroke-width=".4169" d="M339.963,-149.476C342.9247,-140.5352 347.525,-126.2735 350.9988,-113.7893 357.9871,-88.6749 364.8894,-59.6586 369.4852,-39.5729"/>
<polygon fill="#ff0000" stroke="#ff0000" stroke-width=".4169" points="372.9296,-40.2095 371.7266,-29.6832 366.1027,-38.6622 372.9296,-40.2095"/>
</g>
<!-- E6&#45;&gt;5294 -->
<g id="edge22" class="edge">
<title>E6&#45;&gt;5294</title>
<path fill="none" stroke="#00ff00" stroke-width=".1723" d="M323.8694,-155.0754C282.2713,-144.8925 152.4954,-113.1245 90.5535,-97.9616"/>
<polygon fill="#00ff00" stroke="#00ff00" stroke-width=".1723" points="91.06,-94.4823 80.5145,-95.5042 89.3955,-101.2816 91.06,-94.4823"/>
</g>
<!-- E8 -->
<g id="node9" class="node">
<title>E8</title>
<polygon fill="#d3d3d3" stroke="#000000" points="463.9963,-166.7893 438.0012,-166.7893 438.0012,-149.7893 463.9963,-149.7893 463.9963,-166.7893"/>
<text text-anchor="middle" x="450.9988" y="-155.5893" font-family="Times,serif" font-size="9.00" fill="#000000">E8</text>
</g>
<!-- E7&#45;&gt;E8 -->
<!-- E7&#45;&gt;S -->
<g id="edge16" class="edge">
<title>E7&#45;&gt;S</title>
<path fill="none" stroke="#ff0000" stroke-width=".2577" d="M405.5321,-149.5623C402.7126,-133.0885 396.1764,-96.3147 388.9988,-65.7061 386.9702,-57.0555 384.4682,-47.6569 382.143,-39.32"/>
<polygon fill="#ff0000" stroke="#ff0000" stroke-width=".2577" points="385.4423,-38.126 379.3412,-29.4641 378.709,-40.0401 385.4423,-38.126"/>
</g>
<!-- E8&#45;&gt;S -->
<g id="edge15" class="edge">
<title>E8&#45;&gt;S</title>
<path fill="none" stroke="#ff0000" stroke-width=".2156" d="M447.4758,-149.6661C440.5869,-133.0599 424.5535,-95.6374 407.9988,-65.7061 402.3446,-55.4832 395.3895,-44.5649 389.3247,-35.4762"/>
<polygon fill="#ff0000" stroke="#ff0000" stroke-width=".2156" points="392.1474,-33.4025 383.6378,-27.0909 386.3541,-37.3316 392.1474,-33.4025"/>
</g>
<!-- 0&#45;&gt;1 -->
<!-- 1&#45;&gt;2 -->
<!-- 2&#45;&gt;S -->
<!-- 5294&#45;&gt;0 -->
<g id="edge23" class="edge">
<title>5294&#45;&gt;0</title>
<path fill="none" stroke="#00ff00" stroke-width=".3749" d="M73.2176,-71.6178C83.5387,-60.0806 96.8734,-45.1746 107.2883,-33.5326"/>
<polygon fill="#00ff00" stroke="#00ff00" stroke-width=".3749" points="109.9003,-35.8622 113.9591,-26.0757 104.6832,-31.1951 109.9003,-35.8622"/>
</g>
</g>
</svg>
