<?xml version="1.0" encoding="UTF-8" standalone="no"?>
<!DOCTYPE svg PUBLIC "-//W3C//DTD SVG 1.1//EN"
 "http://www.w3.org/Graphics/SVG/1.1/DTD/svg11.dtd">
<!-- Generated by graphviz version 2.40.1 (20161225.0304)
 -->
<!-- Title: %3 Pages: 1 -->
<svg width="582pt" height="266pt"
 viewBox="0.00 0.00 582.01 265.93" xmlns="http://www.w3.org/2000/svg" xmlns:xlink="http://www.w3.org/1999/xlink">
<g id="graph0" class="graph" transform="scale(1 1) rotate(0) translate(4 261.9326)">
<title>%3</title>
<polygon fill="#ffffff" stroke="transparent" points="-4,4 -4,-261.9326 578.0098,-261.9326 578.0098,4 -4,4"/>
<!-- 0 -->
<g id="node1" class="node">
<title>0</title>
<polygon fill="#d3d3d3" stroke="#000000" points="247.389,-257.9326 227.3771,-257.9326 227.3771,-240.9326 247.389,-240.9326 247.389,-257.9326"/>
<text text-anchor="middle" x="237.383" y="-246.7326" font-family="Times,serif" font-size="9.00" fill="#000000">0</text>
</g>
<!-- 1 -->
<g id="node2" class="node">
<title>1</title>
<polygon fill="#d3d3d3" stroke="#000000" points="286.389,-257.9326 266.3771,-257.9326 266.3771,-240.9326 286.389,-240.9326 286.389,-257.9326"/>
<text text-anchor="middle" x="276.383" y="-246.7326" font-family="Times,serif" font-size="9.00" fill="#000000">1</text>
</g>
<!-- 0&#45;&gt;1 -->
<!-- E4 -->
<g id="node8" class="node">
<title>E4</title>
<ellipse fill="#ffa07a" stroke="#000000" cx="238.383" cy="-18.383" rx="18.2668" ry="18.2668"/>
<text text-anchor="middle" x="238.383" y="-15.683" font-family="Times,serif" font-size="9.00" fill="#000000">E4</text>
</g>
<!-- 0&#45;&gt;E4 -->
<g id="edge11" class="edge">
<title>0&#45;&gt;E4</title>
<path fill="none" stroke="#00ff00" stroke-width="4.8841" d="M237.421,-240.6573C237.5582,-208.9623 238.0319,-99.5115 238.2593,-46.9692"/>
<polygon fill="#00ff00" stroke="#00ff00" stroke-width="4.8841" points="242.5328,-46.9825 238.3026,-36.9641 233.9857,-46.9454 242.5328,-46.9825"/>
</g>
<!-- 2 -->
<g id="node3" class="node">
<title>2</title>
<polygon fill="#d3d3d3" stroke="#000000" points="325.389,-257.9326 305.3771,-257.9326 305.3771,-240.9326 325.389,-240.9326 325.389,-257.9326"/>
<text text-anchor="middle" x="315.383" y="-246.7326" font-family="Times,serif" font-size="9.00" fill="#000000">2</text>
</g>
<!-- 1&#45;&gt;2 -->
<!-- E1 -->
<g id="node5" class="node">
<title>E1</title>
<ellipse fill="#eee8aa" stroke="#000000" cx="73.383" cy="-18.383" rx="18.2668" ry="18.2668"/>
<text text-anchor="middle" x="73.383" y="-15.683" font-family="Times,serif" font-size="9.00" fill="#000000">E1</text>
</g>
<!-- 2&#45;&gt;E1 -->
<g id="edge12" class="edge">
<title>2&#45;&gt;E1</title>
<path fill="none" stroke="#00ff00" stroke-width="2.3366" d="M306.1919,-240.6573C271.0344,-207.0908 144.5339,-86.3143 94.2277,-38.2844"/>
<polygon fill="#00ff00" stroke="#00ff00" stroke-width="2.3366" points="96.4835,-35.5991 86.8337,-31.225 91.6496,-40.6621 96.4835,-35.5991"/>
</g>
<!-- E8 -->
<g id="node12" class="node">
<title>E8</title>
<ellipse fill="#eee8aa" stroke="#000000" cx="459.383" cy="-18.383" rx="18.2668" ry="18.2668"/>
<text text-anchor="middle" x="459.383" y="-15.683" font-family="Times,serif" font-size="9.00" fill="#000000">E8</text>
</g>
<!-- 2&#45;&gt;E8 -->
<g id="edge13" class="edge">
<title>2&#45;&gt;E8</title>
<path fill="none" stroke="#ff0000" stroke-width=".3012" d="M325.5814,-248.5419C363.2987,-245.0604 494.3161,-231.2494 525.383,-204.9326 571.58,-165.7992 589.2111,-124.8738 558.383,-72.7661 543.1616,-47.0378 510.9638,-32.6669 487.4049,-25.2503"/>
<polygon fill="#ff0000" stroke="#ff0000" stroke-width=".3012" points="488.176,-21.8297 477.5966,-22.4004 486.2228,-28.5517 488.176,-21.8297"/>
</g>
<!-- E0 -->
<g id="node4" class="node">
<title>E0</title>
<ellipse fill="#eee8aa" stroke="#000000" cx="18.383" cy="-18.383" rx="18.2668" ry="18.2668"/>
<text text-anchor="middle" x="18.383" y="-15.683" font-family="Times,serif" font-size="9.00" fill="#000000">E0</text>
</g>
<!-- E0&#45;&gt;E1 -->
<!-- E2 -->
<g id="node6" class="node">
<title>E2</title>
<ellipse fill="#87cefa" stroke="#000000" cx="128.383" cy="-18.383" rx="18.2668" ry="18.2668"/>
<text text-anchor="middle" x="128.383" y="-15.683" font-family="Times,serif" font-size="9.00" fill="#000000">E2</text>
</g>
<!-- E1&#45;&gt;E2 -->
<!-- E3 -->
<g id="node7" class="node">
<title>E3</title>
<ellipse fill="#87cefa" stroke="#000000" cx="183.383" cy="-18.383" rx="18.2668" ry="18.2668"/>
<text text-anchor="middle" x="183.383" y="-15.683" font-family="Times,serif" font-size="9.00" fill="#000000">E3</text>
</g>
<!-- E2&#45;&gt;E3 -->
<!-- E3&#45;&gt;E4 -->
<!-- E5 -->
<g id="node9" class="node">
<title>E5</title>
<ellipse fill="#eee8aa" stroke="#000000" cx="293.383" cy="-18.383" rx="18.2668" ry="18.2668"/>
<text text-anchor="middle" x="293.383" y="-15.683" font-family="Times,serif" font-size="9.00" fill="#000000">E5</text>
</g>
<!-- E4&#45;&gt;E5 -->
<!-- E6 -->
<g id="node10" class="node">
<title>E6</title>
<ellipse fill="#eee8aa" stroke="#000000" cx="348.383" cy="-18.383" rx="18.2668" ry="18.2668"/>
<text text-anchor="middle" x="348.383" y="-15.683" font-family="Times,serif" font-size="9.00" fill="#000000">E6</text>
</g>
<!-- E5&#45;&gt;E6 -->
<!-- E7 -->
<g id="node11" class="node">
<title>E7</title>
<ellipse fill="#eee8aa" stroke="#000000" cx="403.383" cy="-18.383" rx="18.2668" ry="18.2668"/>
<text text-anchor="middle" x="403.383" y="-15.683" font-family="Times,serif" font-size="9.00" fill="#000000">E7</text>
</g>
<!-- E6&#45;&gt;E7 -->
<!-- E7&#45;&gt;E8 -->
<!-- 5740 -->
<g id="node13" class="node">
<title>5740</title>
<ellipse fill="#add8e6" stroke="#000000" cx="459.383" cy="-96.8077" rx="24.0833" ry="24.0833"/>
<text text-anchor="middle" x="459.383" y="-98.6077" font-family="Times,serif" font-size="9.00" fill="#000000">5740</text>
<text text-anchor="middle" x="459.383" y="-89.6077" font-family="Times,serif" font-size="9.00" fill="#000000">sigm</text>
</g>
<!-- 5740&#45;&gt;E8 -->
<g id="edge20" class="edge">
<title>5740&#45;&gt;E8</title>
<path fill="none" stroke="#00ff00" stroke-width=".3229" d="M459.383,-72.4236C459.383,-64.33 459.383,-55.248 459.383,-46.8729"/>
<polygon fill="#00ff00" stroke="#00ff00" stroke-width=".3229" points="462.8831,-46.7701 459.383,-36.7702 455.8831,-46.7702 462.8831,-46.7701"/>
</g>
<!-- 4558 -->
<g id="node14" class="node">
<title>4558</title>
<ellipse fill="#add8e6" stroke="#000000" cx="327.383" cy="-96.8077" rx="24.0833" ry="24.0833"/>
<text text-anchor="middle" x="327.383" y="-98.6077" font-family="Times,serif" font-size="9.00" fill="#000000">4558</text>
<text text-anchor="middle" x="327.383" y="-89.6077" font-family="Times,serif" font-size="9.00" fill="#000000">sigm</text>
</g>
<!-- 4558&#45;&gt;E7 -->
<g id="edge18" class="edge">
<title>4558&#45;&gt;E7</title>
<path fill="none" stroke="#00ff00" stroke-width=".2564" d="M344.2499,-79.4028C355.8386,-67.4443 371.2722,-51.5184 383.4661,-38.9354"/>
<polygon fill="#00ff00" stroke="#00ff00" stroke-width=".2564" points="386.1308,-41.215 390.5766,-31.598 381.104,-36.3436 386.1308,-41.215"/>
</g>
<!-- 5085 -->
<g id="node15" class="node">
<title>5085</title>
<ellipse fill="#add8e6" stroke="#000000" cx="360.383" cy="-180.891" rx="24.0833" ry="24.0833"/>
<text text-anchor="middle" x="360.383" y="-182.691" font-family="Times,serif" font-size="9.00" fill="#000000">5085</text>
<text text-anchor="middle" x="360.383" y="-173.691" font-family="Times,serif" font-size="9.00" fill="#000000">sigm</text>
</g>
<!-- 5085&#45;&gt;4558 -->
<g id="edge16" class="edge">
<title>5085&#45;&gt;4558</title>
<path fill="none" stroke="#00ff00" stroke-width=".3566" d="M351.5397,-158.3582C347.9886,-149.3102 343.8296,-138.7131 339.9729,-128.8865"/>
<polygon fill="#00ff00" stroke="#00ff00" stroke-width=".3566" points="343.1624,-127.4327 336.2509,-119.4027 336.6462,-129.9902 343.1624,-127.4327"/>
</g>
<!-- 5565 -->
<g id="node17" class="node">
<title>5565</title>
<ellipse fill="#add8e6" stroke="#000000" cx="393.383" cy="-96.8077" rx="24.0833" ry="24.0833"/>
<text text-anchor="middle" x="393.383" y="-98.6077" font-family="Times,serif" font-size="9.00" fill="#000000">5565</text>
<text text-anchor="middle" x="393.383" y="-89.6077" font-family="Times,serif" font-size="9.00" fill="#000000">sigm</text>
</g>
<!-- 5085&#45;&gt;5565 -->
<g id="edge14" class="edge">
<title>5085&#45;&gt;5565</title>
<path fill="none" stroke="#ff0000" stroke-width=".3671" d="M369.2264,-158.3582C372.7775,-149.3102 376.9365,-138.7131 380.7932,-128.8865"/>
<polygon fill="#ff0000" stroke="#ff0000" stroke-width=".3671" points="384.1199,-129.9902 384.5152,-119.4027 377.6037,-127.4327 384.1199,-129.9902"/>
</g>
<!-- 5138 -->
<g id="node16" class="node">
<title>5138</title>
<ellipse fill="#add8e6" stroke="#000000" cx="492.383" cy="-180.891" rx="24.0833" ry="24.0833"/>
<text text-anchor="middle" x="492.383" y="-182.691" font-family="Times,serif" font-size="9.00" fill="#000000">5138</text>
<text text-anchor="middle" x="492.383" y="-173.691" font-family="Times,serif" font-size="9.00" fill="#000000">sigm</text>
</g>
<!-- 5138&#45;&gt;5740 -->
<g id="edge19" class="edge">
<title>5138&#45;&gt;5740</title>
<path fill="none" stroke="#00ff00" stroke-width=".1714" d="M483.5397,-158.3582C479.9886,-149.3102 475.8296,-138.7131 471.9729,-128.8865"/>
<polygon fill="#00ff00" stroke="#00ff00" stroke-width=".1714" points="475.1624,-127.4327 468.2509,-119.4027 468.6462,-129.9902 475.1624,-127.4327"/>
</g>
<!-- 5335 -->
<g id="node18" class="node">
<title>5335</title>
<ellipse fill="none" stroke="#000000" cx="525.383" cy="-96.8077" rx="24.0833" ry="24.0833"/>
<text text-anchor="middle" x="525.383" y="-94.1077" font-family="Times,serif" font-size="9.00" fill="#000000">5335</text>
</g>
<!-- 5138&#45;&gt;5335 -->
<g id="edge17" class="edge">
<title>5138&#45;&gt;5335</title>
<path fill="none" stroke="#ff00ff" stroke-dasharray="5,2" d="M501.2264,-158.3582C504.7775,-149.3102 508.9365,-138.7131 512.7932,-128.8865"/>
<polygon fill="#ff00ff" stroke="#ff00ff" points="516.1199,-129.9902 516.5152,-119.4027 509.6037,-127.4327 516.1199,-129.9902"/>
</g>
<!-- 5565&#45;&gt;E8 -->
<g id="edge15" class="edge">
<title>5565&#45;&gt;E8</title>
<path fill="none" stroke="#00ff00" stroke-width=".5466" d="M409.0241,-78.2222C418.5635,-66.887 430.8083,-52.3371 440.8349,-40.4229"/>
<polygon fill="#00ff00" stroke="#00ff00" stroke-width=".5466" points="443.6005,-42.5724 447.3616,-32.6676 438.2447,-38.0651 443.6005,-42.5724"/>
</g>
</g>
</svg>
