<?xml version="1.0" encoding="utf-8" standalone="no"?>
<!DOCTYPE svg PUBLIC "-//W3C//DTD SVG 1.1//EN"
  "http://www.w3.org/Graphics/SVG/1.1/DTD/svg11.dtd">
<!-- Created with matplotlib (https://matplotlib.org/) -->
<svg height="345.6pt" version="1.1" viewBox="0 0 460.8 345.6" width="460.8pt" xmlns="http://www.w3.org/2000/svg" xmlns:xlink="http://www.w3.org/1999/xlink">
 <defs>
  <style type="text/css">
*{stroke-linecap:butt;stroke-linejoin:round;}
  </style>
 </defs>
 <g id="figure_1">
  <g id="patch_1">
   <path d="M 0 345.6 
L 460.8 345.6 
L 460.8 0 
L 0 0 
z
" style="fill:#ffffff;"/>
  </g>
  <g id="axes_1">
   <g id="patch_2">
    <path d="M 57.6 307.584 
L 414.72 307.584 
L 414.72 41.472 
L 57.6 41.472 
z
" style="fill:#ffffff;"/>
   </g>
   <g id="matplotlib.axis_1">
    <g id="xtick_1">
     <g id="line2d_1">
      <path clip-path="url(#p1fe35b551c)" d="M 73.832727 307.584 
L 73.832727 41.472 
" style="fill:none;stroke:#b0b0b0;stroke-linecap:square;stroke-width:0.8;"/>
     </g>
     <g id="line2d_2">
      <defs>
       <path d="M 0 0 
L 0 3.5 
" id="m3827d4afc2" style="stroke:#000000;stroke-width:0.8;"/>
      </defs>
      <g>
       <use style="stroke:#000000;stroke-width:0.8;" x="73.832727" xlink:href="#m3827d4afc2" y="307.584"/>
      </g>
     </g>
     <g id="text_1">
      <!-- 0 -->
      <defs>
       <path d="M 31.78125 66.40625 
Q 24.171875 66.40625 20.328125 58.90625 
Q 16.5 51.421875 16.5 36.375 
Q 16.5 21.390625 20.328125 13.890625 
Q 24.171875 6.390625 31.78125 6.390625 
Q 39.453125 6.390625 43.28125 13.890625 
Q 47.125 21.390625 47.125 36.375 
Q 47.125 51.421875 43.28125 58.90625 
Q 39.453125 66.40625 31.78125 66.40625 
z
M 31.78125 74.21875 
Q 44.046875 74.21875 50.515625 64.515625 
Q 56.984375 54.828125 56.984375 36.375 
Q 56.984375 17.96875 50.515625 8.265625 
Q 44.046875 -1.421875 31.78125 -1.421875 
Q 19.53125 -1.421875 13.0625 8.265625 
Q 6.59375 17.96875 6.59375 36.375 
Q 6.59375 54.828125 13.0625 64.515625 
Q 19.53125 74.21875 31.78125 74.21875 
z
" id="DejaVuSans-48"/>
      </defs>
      <g transform="translate(70.651477 322.182437)scale(0.1 -0.1)">
       <use xlink:href="#DejaVuSans-48"/>
      </g>
     </g>
    </g>
    <g id="xtick_2">
     <g id="line2d_3">
      <path clip-path="url(#p1fe35b551c)" d="M 128.122785 307.584 
L 128.122785 41.472 
" style="fill:none;stroke:#b0b0b0;stroke-linecap:square;stroke-width:0.8;"/>
     </g>
     <g id="line2d_4">
      <g>
       <use style="stroke:#000000;stroke-width:0.8;" x="128.122785" xlink:href="#m3827d4afc2" y="307.584"/>
      </g>
     </g>
     <g id="text_2">
      <!-- 50 -->
      <defs>
       <path d="M 10.796875 72.90625 
L 49.515625 72.90625 
L 49.515625 64.59375 
L 19.828125 64.59375 
L 19.828125 46.734375 
Q 21.96875 47.46875 24.109375 47.828125 
Q 26.265625 48.1875 28.421875 48.1875 
Q 40.625 48.1875 47.75 41.5 
Q 54.890625 34.8125 54.890625 23.390625 
Q 54.890625 11.625 47.5625 5.09375 
Q 40.234375 -1.421875 26.90625 -1.421875 
Q 22.3125 -1.421875 17.546875 -0.640625 
Q 12.796875 0.140625 7.71875 1.703125 
L 7.71875 11.625 
Q 12.109375 9.234375 16.796875 8.0625 
Q 21.484375 6.890625 26.703125 6.890625 
Q 35.15625 6.890625 40.078125 11.328125 
Q 45.015625 15.765625 45.015625 23.390625 
Q 45.015625 31 40.078125 35.4375 
Q 35.15625 39.890625 26.703125 39.890625 
Q 22.75 39.890625 18.8125 39.015625 
Q 14.890625 38.140625 10.796875 36.28125 
z
" id="DejaVuSans-53"/>
      </defs>
      <g transform="translate(121.760285 322.182437)scale(0.1 -0.1)">
       <use xlink:href="#DejaVuSans-53"/>
       <use x="63.623047" xlink:href="#DejaVuSans-48"/>
      </g>
     </g>
    </g>
    <g id="xtick_3">
     <g id="line2d_5">
      <path clip-path="url(#p1fe35b551c)" d="M 182.412843 307.584 
L 182.412843 41.472 
" style="fill:none;stroke:#b0b0b0;stroke-linecap:square;stroke-width:0.8;"/>
     </g>
     <g id="line2d_6">
      <g>
       <use style="stroke:#000000;stroke-width:0.8;" x="182.412843" xlink:href="#m3827d4afc2" y="307.584"/>
      </g>
     </g>
     <g id="text_3">
      <!-- 100 -->
      <defs>
       <path d="M 12.40625 8.296875 
L 28.515625 8.296875 
L 28.515625 63.921875 
L 10.984375 60.40625 
L 10.984375 69.390625 
L 28.421875 72.90625 
L 38.28125 72.90625 
L 38.28125 8.296875 
L 54.390625 8.296875 
L 54.390625 0 
L 12.40625 0 
z
" id="DejaVuSans-49"/>
      </defs>
      <g transform="translate(172.869093 322.182437)scale(0.1 -0.1)">
       <use xlink:href="#DejaVuSans-49"/>
       <use x="63.623047" xlink:href="#DejaVuSans-48"/>
       <use x="127.246094" xlink:href="#DejaVuSans-48"/>
      </g>
     </g>
    </g>
    <g id="xtick_4">
     <g id="line2d_7">
      <path clip-path="url(#p1fe35b551c)" d="M 236.702901 307.584 
L 236.702901 41.472 
" style="fill:none;stroke:#b0b0b0;stroke-linecap:square;stroke-width:0.8;"/>
     </g>
     <g id="line2d_8">
      <g>
       <use style="stroke:#000000;stroke-width:0.8;" x="236.702901" xlink:href="#m3827d4afc2" y="307.584"/>
      </g>
     </g>
     <g id="text_4">
      <!-- 150 -->
      <g transform="translate(227.159151 322.182437)scale(0.1 -0.1)">
       <use xlink:href="#DejaVuSans-49"/>
       <use x="63.623047" xlink:href="#DejaVuSans-53"/>
       <use x="127.246094" xlink:href="#DejaVuSans-48"/>
      </g>
     </g>
    </g>
    <g id="xtick_5">
     <g id="line2d_9">
      <path clip-path="url(#p1fe35b551c)" d="M 290.992958 307.584 
L 290.992958 41.472 
" style="fill:none;stroke:#b0b0b0;stroke-linecap:square;stroke-width:0.8;"/>
     </g>
     <g id="line2d_10">
      <g>
       <use style="stroke:#000000;stroke-width:0.8;" x="290.992958" xlink:href="#m3827d4afc2" y="307.584"/>
      </g>
     </g>
     <g id="text_5">
      <!-- 200 -->
      <defs>
       <path d="M 19.1875 8.296875 
L 53.609375 8.296875 
L 53.609375 0 
L 7.328125 0 
L 7.328125 8.296875 
Q 12.9375 14.109375 22.625 23.890625 
Q 32.328125 33.6875 34.8125 36.53125 
Q 39.546875 41.84375 41.421875 45.53125 
Q 43.3125 49.21875 43.3125 52.78125 
Q 43.3125 58.59375 39.234375 62.25 
Q 35.15625 65.921875 28.609375 65.921875 
Q 23.96875 65.921875 18.8125 64.3125 
Q 13.671875 62.703125 7.8125 59.421875 
L 7.8125 69.390625 
Q 13.765625 71.78125 18.9375 73 
Q 24.125 74.21875 28.421875 74.21875 
Q 39.75 74.21875 46.484375 68.546875 
Q 53.21875 62.890625 53.21875 53.421875 
Q 53.21875 48.921875 51.53125 44.890625 
Q 49.859375 40.875 45.40625 35.40625 
Q 44.1875 33.984375 37.640625 27.21875 
Q 31.109375 20.453125 19.1875 8.296875 
z
" id="DejaVuSans-50"/>
      </defs>
      <g transform="translate(281.449208 322.182437)scale(0.1 -0.1)">
       <use xlink:href="#DejaVuSans-50"/>
       <use x="63.623047" xlink:href="#DejaVuSans-48"/>
       <use x="127.246094" xlink:href="#DejaVuSans-48"/>
      </g>
     </g>
    </g>
    <g id="xtick_6">
     <g id="line2d_11">
      <path clip-path="url(#p1fe35b551c)" d="M 345.283016 307.584 
L 345.283016 41.472 
" style="fill:none;stroke:#b0b0b0;stroke-linecap:square;stroke-width:0.8;"/>
     </g>
     <g id="line2d_12">
      <g>
       <use style="stroke:#000000;stroke-width:0.8;" x="345.283016" xlink:href="#m3827d4afc2" y="307.584"/>
      </g>
     </g>
     <g id="text_6">
      <!-- 250 -->
      <g transform="translate(335.739266 322.182437)scale(0.1 -0.1)">
       <use xlink:href="#DejaVuSans-50"/>
       <use x="63.623047" xlink:href="#DejaVuSans-53"/>
       <use x="127.246094" xlink:href="#DejaVuSans-48"/>
      </g>
     </g>
    </g>
    <g id="xtick_7">
     <g id="line2d_13">
      <path clip-path="url(#p1fe35b551c)" d="M 399.573074 307.584 
L 399.573074 41.472 
" style="fill:none;stroke:#b0b0b0;stroke-linecap:square;stroke-width:0.8;"/>
     </g>
     <g id="line2d_14">
      <g>
       <use style="stroke:#000000;stroke-width:0.8;" x="399.573074" xlink:href="#m3827d4afc2" y="307.584"/>
      </g>
     </g>
     <g id="text_7">
      <!-- 300 -->
      <defs>
       <path d="M 40.578125 39.3125 
Q 47.65625 37.796875 51.625 33 
Q 55.609375 28.21875 55.609375 21.1875 
Q 55.609375 10.40625 48.1875 4.484375 
Q 40.765625 -1.421875 27.09375 -1.421875 
Q 22.515625 -1.421875 17.65625 -0.515625 
Q 12.796875 0.390625 7.625 2.203125 
L 7.625 11.71875 
Q 11.71875 9.328125 16.59375 8.109375 
Q 21.484375 6.890625 26.8125 6.890625 
Q 36.078125 6.890625 40.9375 10.546875 
Q 45.796875 14.203125 45.796875 21.1875 
Q 45.796875 27.640625 41.28125 31.265625 
Q 36.765625 34.90625 28.71875 34.90625 
L 20.21875 34.90625 
L 20.21875 43.015625 
L 29.109375 43.015625 
Q 36.375 43.015625 40.234375 45.921875 
Q 44.09375 48.828125 44.09375 54.296875 
Q 44.09375 59.90625 40.109375 62.90625 
Q 36.140625 65.921875 28.71875 65.921875 
Q 24.65625 65.921875 20.015625 65.03125 
Q 15.375 64.15625 9.8125 62.3125 
L 9.8125 71.09375 
Q 15.4375 72.65625 20.34375 73.4375 
Q 25.25 74.21875 29.59375 74.21875 
Q 40.828125 74.21875 47.359375 69.109375 
Q 53.90625 64.015625 53.90625 55.328125 
Q 53.90625 49.265625 50.4375 45.09375 
Q 46.96875 40.921875 40.578125 39.3125 
z
" id="DejaVuSans-51"/>
      </defs>
      <g transform="translate(390.029324 322.182437)scale(0.1 -0.1)">
       <use xlink:href="#DejaVuSans-51"/>
       <use x="63.623047" xlink:href="#DejaVuSans-48"/>
       <use x="127.246094" xlink:href="#DejaVuSans-48"/>
      </g>
     </g>
    </g>
    <g id="text_8">
     <!-- Generations -->
     <defs>
      <path d="M 59.515625 10.40625 
L 59.515625 29.984375 
L 43.40625 29.984375 
L 43.40625 38.09375 
L 69.28125 38.09375 
L 69.28125 6.78125 
Q 63.578125 2.734375 56.6875 0.65625 
Q 49.8125 -1.421875 42 -1.421875 
Q 24.90625 -1.421875 15.25 8.5625 
Q 5.609375 18.5625 5.609375 36.375 
Q 5.609375 54.25 15.25 64.234375 
Q 24.90625 74.21875 42 74.21875 
Q 49.125 74.21875 55.546875 72.453125 
Q 61.96875 70.703125 67.390625 67.28125 
L 67.390625 56.78125 
Q 61.921875 61.421875 55.765625 63.765625 
Q 49.609375 66.109375 42.828125 66.109375 
Q 29.4375 66.109375 22.71875 58.640625 
Q 16.015625 51.171875 16.015625 36.375 
Q 16.015625 21.625 22.71875 14.15625 
Q 29.4375 6.6875 42.828125 6.6875 
Q 48.046875 6.6875 52.140625 7.59375 
Q 56.25 8.5 59.515625 10.40625 
z
" id="DejaVuSans-71"/>
      <path d="M 56.203125 29.59375 
L 56.203125 25.203125 
L 14.890625 25.203125 
Q 15.484375 15.921875 20.484375 11.0625 
Q 25.484375 6.203125 34.421875 6.203125 
Q 39.59375 6.203125 44.453125 7.46875 
Q 49.3125 8.734375 54.109375 11.28125 
L 54.109375 2.78125 
Q 49.265625 0.734375 44.1875 -0.34375 
Q 39.109375 -1.421875 33.890625 -1.421875 
Q 20.796875 -1.421875 13.15625 6.1875 
Q 5.515625 13.8125 5.515625 26.8125 
Q 5.515625 40.234375 12.765625 48.109375 
Q 20.015625 56 32.328125 56 
Q 43.359375 56 49.78125 48.890625 
Q 56.203125 41.796875 56.203125 29.59375 
z
M 47.21875 32.234375 
Q 47.125 39.59375 43.09375 43.984375 
Q 39.0625 48.390625 32.421875 48.390625 
Q 24.90625 48.390625 20.390625 44.140625 
Q 15.875 39.890625 15.1875 32.171875 
z
" id="DejaVuSans-101"/>
      <path d="M 54.890625 33.015625 
L 54.890625 0 
L 45.90625 0 
L 45.90625 32.71875 
Q 45.90625 40.484375 42.875 44.328125 
Q 39.84375 48.1875 33.796875 48.1875 
Q 26.515625 48.1875 22.3125 43.546875 
Q 18.109375 38.921875 18.109375 30.90625 
L 18.109375 0 
L 9.078125 0 
L 9.078125 54.6875 
L 18.109375 54.6875 
L 18.109375 46.1875 
Q 21.34375 51.125 25.703125 53.5625 
Q 30.078125 56 35.796875 56 
Q 45.21875 56 50.046875 50.171875 
Q 54.890625 44.34375 54.890625 33.015625 
z
" id="DejaVuSans-110"/>
      <path d="M 41.109375 46.296875 
Q 39.59375 47.171875 37.8125 47.578125 
Q 36.03125 48 33.890625 48 
Q 26.265625 48 22.1875 43.046875 
Q 18.109375 38.09375 18.109375 28.8125 
L 18.109375 0 
L 9.078125 0 
L 9.078125 54.6875 
L 18.109375 54.6875 
L 18.109375 46.1875 
Q 20.953125 51.171875 25.484375 53.578125 
Q 30.03125 56 36.53125 56 
Q 37.453125 56 38.578125 55.875 
Q 39.703125 55.765625 41.0625 55.515625 
z
" id="DejaVuSans-114"/>
      <path d="M 34.28125 27.484375 
Q 23.390625 27.484375 19.1875 25 
Q 14.984375 22.515625 14.984375 16.5 
Q 14.984375 11.71875 18.140625 8.90625 
Q 21.296875 6.109375 26.703125 6.109375 
Q 34.1875 6.109375 38.703125 11.40625 
Q 43.21875 16.703125 43.21875 25.484375 
L 43.21875 27.484375 
z
M 52.203125 31.203125 
L 52.203125 0 
L 43.21875 0 
L 43.21875 8.296875 
Q 40.140625 3.328125 35.546875 0.953125 
Q 30.953125 -1.421875 24.3125 -1.421875 
Q 15.921875 -1.421875 10.953125 3.296875 
Q 6 8.015625 6 15.921875 
Q 6 25.140625 12.171875 29.828125 
Q 18.359375 34.515625 30.609375 34.515625 
L 43.21875 34.515625 
L 43.21875 35.40625 
Q 43.21875 41.609375 39.140625 45 
Q 35.0625 48.390625 27.6875 48.390625 
Q 23 48.390625 18.546875 47.265625 
Q 14.109375 46.140625 10.015625 43.890625 
L 10.015625 52.203125 
Q 14.9375 54.109375 19.578125 55.046875 
Q 24.21875 56 28.609375 56 
Q 40.484375 56 46.34375 49.84375 
Q 52.203125 43.703125 52.203125 31.203125 
z
" id="DejaVuSans-97"/>
      <path d="M 18.3125 70.21875 
L 18.3125 54.6875 
L 36.8125 54.6875 
L 36.8125 47.703125 
L 18.3125 47.703125 
L 18.3125 18.015625 
Q 18.3125 11.328125 20.140625 9.421875 
Q 21.96875 7.515625 27.59375 7.515625 
L 36.8125 7.515625 
L 36.8125 0 
L 27.59375 0 
Q 17.1875 0 13.234375 3.875 
Q 9.28125 7.765625 9.28125 18.015625 
L 9.28125 47.703125 
L 2.6875 47.703125 
L 2.6875 54.6875 
L 9.28125 54.6875 
L 9.28125 70.21875 
z
" id="DejaVuSans-116"/>
      <path d="M 9.421875 54.6875 
L 18.40625 54.6875 
L 18.40625 0 
L 9.421875 0 
z
M 9.421875 75.984375 
L 18.40625 75.984375 
L 18.40625 64.59375 
L 9.421875 64.59375 
z
" id="DejaVuSans-105"/>
      <path d="M 30.609375 48.390625 
Q 23.390625 48.390625 19.1875 42.75 
Q 14.984375 37.109375 14.984375 27.296875 
Q 14.984375 17.484375 19.15625 11.84375 
Q 23.34375 6.203125 30.609375 6.203125 
Q 37.796875 6.203125 41.984375 11.859375 
Q 46.1875 17.53125 46.1875 27.296875 
Q 46.1875 37.015625 41.984375 42.703125 
Q 37.796875 48.390625 30.609375 48.390625 
z
M 30.609375 56 
Q 42.328125 56 49.015625 48.375 
Q 55.71875 40.765625 55.71875 27.296875 
Q 55.71875 13.875 49.015625 6.21875 
Q 42.328125 -1.421875 30.609375 -1.421875 
Q 18.84375 -1.421875 12.171875 6.21875 
Q 5.515625 13.875 5.515625 27.296875 
Q 5.515625 40.765625 12.171875 48.375 
Q 18.84375 56 30.609375 56 
z
" id="DejaVuSans-111"/>
      <path d="M 44.28125 53.078125 
L 44.28125 44.578125 
Q 40.484375 46.53125 36.375 47.5 
Q 32.28125 48.484375 27.875 48.484375 
Q 21.1875 48.484375 17.84375 46.4375 
Q 14.5 44.390625 14.5 40.28125 
Q 14.5 37.15625 16.890625 35.375 
Q 19.28125 33.59375 26.515625 31.984375 
L 29.59375 31.296875 
Q 39.15625 29.25 43.1875 25.515625 
Q 47.21875 21.78125 47.21875 15.09375 
Q 47.21875 7.46875 41.1875 3.015625 
Q 35.15625 -1.421875 24.609375 -1.421875 
Q 20.21875 -1.421875 15.453125 -0.5625 
Q 10.6875 0.296875 5.421875 2 
L 5.421875 11.28125 
Q 10.40625 8.6875 15.234375 7.390625 
Q 20.0625 6.109375 24.8125 6.109375 
Q 31.15625 6.109375 34.5625 8.28125 
Q 37.984375 10.453125 37.984375 14.40625 
Q 37.984375 18.0625 35.515625 20.015625 
Q 33.0625 21.96875 24.703125 23.78125 
L 21.578125 24.515625 
Q 13.234375 26.265625 9.515625 29.90625 
Q 5.8125 33.546875 5.8125 39.890625 
Q 5.8125 47.609375 11.28125 51.796875 
Q 16.75 56 26.8125 56 
Q 31.78125 56 36.171875 55.265625 
Q 40.578125 54.546875 44.28125 53.078125 
z
" id="DejaVuSans-115"/>
     </defs>
     <g transform="translate(205.662344 335.860562)scale(0.1 -0.1)">
      <use xlink:href="#DejaVuSans-71"/>
      <use x="77.490234" xlink:href="#DejaVuSans-101"/>
      <use x="139.013672" xlink:href="#DejaVuSans-110"/>
      <use x="202.392578" xlink:href="#DejaVuSans-101"/>
      <use x="263.916016" xlink:href="#DejaVuSans-114"/>
      <use x="305.029297" xlink:href="#DejaVuSans-97"/>
      <use x="366.308594" xlink:href="#DejaVuSans-116"/>
      <use x="405.517578" xlink:href="#DejaVuSans-105"/>
      <use x="433.300781" xlink:href="#DejaVuSans-111"/>
      <use x="494.482422" xlink:href="#DejaVuSans-110"/>
      <use x="557.861328" xlink:href="#DejaVuSans-115"/>
     </g>
    </g>
   </g>
   <g id="matplotlib.axis_2">
    <g id="ytick_1">
     <g id="line2d_15">
      <path clip-path="url(#p1fe35b551c)" d="M 57.6 276.049665 
L 414.72 276.049665 
" style="fill:none;stroke:#b0b0b0;stroke-linecap:square;stroke-width:0.8;"/>
     </g>
     <g id="line2d_16">
      <defs>
       <path d="M 0 0 
L -3.5 0 
" id="m784876db0e" style="stroke:#000000;stroke-width:0.8;"/>
      </defs>
      <g>
       <use style="stroke:#000000;stroke-width:0.8;" x="57.6" xlink:href="#m784876db0e" y="276.049665"/>
      </g>
     </g>
     <g id="text_9">
      <!-- 500 -->
      <g transform="translate(31.5125 279.848884)scale(0.1 -0.1)">
       <use xlink:href="#DejaVuSans-53"/>
       <use x="63.623047" xlink:href="#DejaVuSans-48"/>
       <use x="127.246094" xlink:href="#DejaVuSans-48"/>
      </g>
     </g>
    </g>
    <g id="ytick_2">
     <g id="line2d_17">
      <path clip-path="url(#p1fe35b551c)" d="M 57.6 217.217323 
L 414.72 217.217323 
" style="fill:none;stroke:#b0b0b0;stroke-linecap:square;stroke-width:0.8;"/>
     </g>
     <g id="line2d_18">
      <g>
       <use style="stroke:#000000;stroke-width:0.8;" x="57.6" xlink:href="#m784876db0e" y="217.217323"/>
      </g>
     </g>
     <g id="text_10">
      <!-- 1000 -->
      <g transform="translate(25.15 221.016542)scale(0.1 -0.1)">
       <use xlink:href="#DejaVuSans-49"/>
       <use x="63.623047" xlink:href="#DejaVuSans-48"/>
       <use x="127.246094" xlink:href="#DejaVuSans-48"/>
       <use x="190.869141" xlink:href="#DejaVuSans-48"/>
      </g>
     </g>
    </g>
    <g id="ytick_3">
     <g id="line2d_19">
      <path clip-path="url(#p1fe35b551c)" d="M 57.6 158.384981 
L 414.72 158.384981 
" style="fill:none;stroke:#b0b0b0;stroke-linecap:square;stroke-width:0.8;"/>
     </g>
     <g id="line2d_20">
      <g>
       <use style="stroke:#000000;stroke-width:0.8;" x="57.6" xlink:href="#m784876db0e" y="158.384981"/>
      </g>
     </g>
     <g id="text_11">
      <!-- 1500 -->
      <g transform="translate(25.15 162.1842)scale(0.1 -0.1)">
       <use xlink:href="#DejaVuSans-49"/>
       <use x="63.623047" xlink:href="#DejaVuSans-53"/>
       <use x="127.246094" xlink:href="#DejaVuSans-48"/>
       <use x="190.869141" xlink:href="#DejaVuSans-48"/>
      </g>
     </g>
    </g>
    <g id="ytick_4">
     <g id="line2d_21">
      <path clip-path="url(#p1fe35b551c)" d="M 57.6 99.552639 
L 414.72 99.552639 
" style="fill:none;stroke:#b0b0b0;stroke-linecap:square;stroke-width:0.8;"/>
     </g>
     <g id="line2d_22">
      <g>
       <use style="stroke:#000000;stroke-width:0.8;" x="57.6" xlink:href="#m784876db0e" y="99.552639"/>
      </g>
     </g>
     <g id="text_12">
      <!-- 2000 -->
      <g transform="translate(25.15 103.351857)scale(0.1 -0.1)">
       <use xlink:href="#DejaVuSans-50"/>
       <use x="63.623047" xlink:href="#DejaVuSans-48"/>
       <use x="127.246094" xlink:href="#DejaVuSans-48"/>
       <use x="190.869141" xlink:href="#DejaVuSans-48"/>
      </g>
     </g>
    </g>
    <g id="text_13">
     <!-- Fitness -->
     <defs>
      <path d="M 9.8125 72.90625 
L 51.703125 72.90625 
L 51.703125 64.59375 
L 19.671875 64.59375 
L 19.671875 43.109375 
L 48.578125 43.109375 
L 48.578125 34.8125 
L 19.671875 34.8125 
L 19.671875 0 
L 9.8125 0 
z
" id="DejaVuSans-70"/>
     </defs>
     <g transform="translate(19.070312 192.202219)rotate(-90)scale(0.1 -0.1)">
      <use xlink:href="#DejaVuSans-70"/>
      <use x="57.410156" xlink:href="#DejaVuSans-105"/>
      <use x="85.193359" xlink:href="#DejaVuSans-116"/>
      <use x="124.402344" xlink:href="#DejaVuSans-110"/>
      <use x="187.78125" xlink:href="#DejaVuSans-101"/>
      <use x="249.304688" xlink:href="#DejaVuSans-115"/>
      <use x="301.404297" xlink:href="#DejaVuSans-115"/>
     </g>
    </g>
   </g>
   <g id="line2d_23">
    <path clip-path="url(#p1fe35b551c)" d="M 73.832727 280.312173 
L 74.918528 263.321788 
L 77.090131 250.056397 
L 78.175932 245.524951 
L 79.261733 245.34166 
L 80.347534 243.047719 
L 81.433335 243.085142 
L 82.519137 235.789186 
L 83.604938 235.391157 
L 84.690739 233.890174 
L 85.77654 224.229991 
L 86.862341 211.325938 
L 87.948142 215.593536 
L 89.033943 217.141914 
L 90.119745 225.79094 
L 91.205546 212.080331 
L 92.291347 214.79004 
L 93.377148 206.953746 
L 94.462949 216.377665 
L 95.54875 215.802986 
L 96.634552 208.168634 
L 97.720353 211.334488 
L 98.806154 203.995218 
L 99.891955 202.876394 
L 100.977756 189.782461 
L 102.063557 185.180949 
L 103.149358 187.962905 
L 104.23516 175.37405 
L 105.320961 172.963789 
L 106.406762 186.163585 
L 107.492563 183.7781 
L 108.578364 175.258188 
L 109.664165 192.905201 
L 110.749967 193.873255 
L 111.835768 200.746243 
L 112.921569 178.175253 
L 114.00737 180.32935 
L 115.093171 178.931715 
L 116.178972 179.22149 
L 117.264773 189.861064 
L 118.350575 172.811371 
L 119.436376 179.204558 
L 120.522177 176.800144 
L 121.607978 179.188677 
L 122.693779 187.155824 
L 123.77958 197.555539 
L 124.865382 196.982336 
L 125.951183 186.634278 
L 127.036984 188.280744 
L 128.122785 186.563332 
L 129.208586 184.214514 
L 130.294387 180.638355 
L 131.380189 183.011579 
L 132.46599 164.809869 
L 133.551791 173.616193 
L 134.637592 169.414933 
L 135.723393 167.337669 
L 136.809194 177.747043 
L 137.894995 160.277012 
L 138.980797 174.110461 
L 140.066598 170.11478 
L 141.152399 157.288775 
L 142.2382 162.832658 
L 143.324001 165.914664 
L 144.409802 155.05355 
L 145.495604 171.752314 
L 146.581405 159.692472 
L 147.667206 162.120445 
L 148.753007 176.955759 
L 149.838808 175.615475 
L 150.924609 149.120317 
L 153.096212 172.925261 
L 154.182013 175.82507 
L 156.353615 168.214065 
L 157.439416 153.638153 
L 158.525217 158.187171 
L 159.611019 168.456966 
L 160.69682 166.900491 
L 161.782621 167.575267 
L 162.868422 159.120187 
L 163.954223 144.035188 
L 165.040024 160.525814 
L 166.125825 152.059305 
L 167.211627 172.597571 
L 168.297428 163.217477 
L 169.383229 176.941268 
L 170.46903 161.536781 
L 171.554831 173.32356 
L 172.640632 158.001598 
L 173.726434 162.014176 
L 174.812235 138.041008 
L 175.898036 142.375608 
L 176.983837 159.190151 
L 178.069638 168.227022 
L 179.155439 163.748644 
L 180.24124 178.184044 
L 181.327042 168.199871 
L 182.412843 174.560803 
L 183.498644 163.901666 
L 184.584445 169.619992 
L 185.670246 161.49697 
L 186.756047 165.903251 
L 187.841849 182.301157 
L 188.92765 179.513289 
L 190.013451 179.343959 
L 191.099252 179.007927 
L 192.185053 186.85947 
L 193.270854 157.304488 
L 194.356656 194.160075 
L 195.442457 176.121207 
L 196.528258 174.703299 
L 197.614059 162.228772 
L 198.69986 171.818296 
L 199.785661 180.296948 
L 200.871462 193.748815 
L 201.957264 177.561499 
L 203.043065 178.279829 
L 204.128866 192.363411 
L 205.214667 170.543876 
L 206.300468 180.252464 
L 207.386269 155.511588 
L 208.472071 180.540429 
L 209.557872 155.65094 
L 210.643673 157.740428 
L 211.729474 194.536143 
L 212.815275 178.826894 
L 213.901076 152.637956 
L 214.986877 163.016624 
L 216.072679 168.979696 
L 217.15848 174.044427 
L 218.244281 162.439893 
L 219.330082 169.54674 
L 220.415883 171.854986 
L 221.501684 169.131183 
L 222.587486 164.565006 
L 223.673287 165.654438 
L 224.759088 147.757897 
L 225.844889 167.784373 
L 226.93069 160.041946 
L 228.016491 157.611317 
L 229.102292 153.019691 
L 230.188094 136.637091 
L 231.273895 169.295971 
L 232.359696 153.871557 
L 233.445497 168.622338 
L 234.531298 160.373189 
L 235.617099 167.155024 
L 236.702901 157.301216 
L 237.788702 160.101407 
L 238.874503 155.720553 
L 239.960304 159.915963 
L 241.046105 156.494629 
L 242.131906 140.863606 
L 243.217708 157.629744 
L 244.303509 129.914433 
L 245.38931 149.942737 
L 246.475111 139.021383 
L 247.560912 148.534198 
L 248.646713 140.266005 
L 249.732514 128.597879 
L 250.818316 147.879454 
L 251.904117 145.601284 
L 252.989918 136.580451 
L 254.075719 155.717677 
L 255.16152 151.490755 
L 256.247321 146.572119 
L 257.333123 154.949384 
L 258.418924 173.63259 
L 259.504725 166.620881 
L 260.590526 165.86474 
L 261.676327 155.258259 
L 262.762128 164.698668 
L 263.847929 145.11636 
L 264.933731 169.864622 
L 266.019532 144.98859 
L 267.105333 142.436509 
L 268.191134 134.179518 
L 269.276935 144.825605 
L 270.362736 159.941351 
L 271.448538 156.945506 
L 272.534339 142.574584 
L 273.62014 144.755247 
L 274.705941 135.559992 
L 275.791742 135.211745 
L 276.877543 168.386431 
L 277.963344 158.919889 
L 279.049146 155.790786 
L 280.134947 133.232933 
L 281.220748 135.795909 
L 282.306549 137.243848 
L 283.39235 140.465393 
L 284.478151 153.411488 
L 285.563953 158.214699 
L 286.649754 169.108986 
L 287.735555 159.327111 
L 288.821356 164.537943 
L 289.907157 143.952015 
L 290.992958 150.908563 
L 292.07876 148.14903 
L 293.164561 124.952198 
L 294.250362 123.425789 
L 295.336163 145.66095 
L 296.421964 145.819143 
L 297.507765 151.803378 
L 298.593566 136.234728 
L 299.679368 137.98678 
L 300.765169 118.182273 
L 301.85097 162.772408 
L 302.936771 140.350181 
L 304.022572 140.058116 
L 305.108373 134.972791 
L 306.194175 152.234383 
L 307.279976 140.453136 
L 308.365777 155.227304 
L 309.451578 150.294806 
L 310.537379 142.947276 
L 311.62318 158.006484 
L 312.708981 141.904228 
L 313.794783 148.965103 
L 314.880584 130.355497 
L 315.966385 129.276514 
L 317.052186 139.439407 
L 318.137987 142.374422 
L 319.223788 128.308434 
L 320.30959 133.976182 
L 321.395391 141.015043 
L 322.481192 130.425436 
L 323.566993 133.168587 
L 324.652794 145.766466 
L 325.738595 144.455336 
L 326.824396 145.261027 
L 327.910198 133.845045 
L 328.995999 145.766686 
L 330.0818 142.565019 
L 331.167601 140.215843 
L 332.253402 144.099714 
L 333.339203 138.965761 
L 334.425005 129.168544 
L 335.510806 135.997331 
L 336.596607 156.136241 
L 337.682408 148.476807 
L 338.768209 163.479471 
L 339.85401 153.498897 
L 340.939811 140.950266 
L 342.025613 144.729595 
L 343.111414 145.983131 
L 344.197215 147.679111 
L 345.283016 146.496632 
L 346.368817 160.124466 
L 347.454618 136.857946 
L 348.54042 155.628515 
L 349.626221 154.252501 
L 351.797823 143.514087 
L 352.883624 143.615456 
L 353.969425 141.809673 
L 355.055227 150.278732 
L 356.141028 143.003262 
L 357.226829 140.046674 
L 358.31263 142.893216 
L 359.398431 154.660584 
L 360.484232 145.088915 
L 361.570033 160.082448 
L 363.741636 141.157185 
L 364.827437 190.009546 
L 365.913238 158.182684 
L 366.999039 161.0353 
L 368.08484 153.062296 
L 369.170642 164.988157 
L 370.256443 166.058675 
L 371.342244 171.972751 
L 372.428045 148.166456 
L 373.513846 149.762876 
L 375.685448 162.293425 
L 376.77125 147.400388 
L 377.857051 162.488279 
L 378.942852 141.476984 
L 380.028653 149.507305 
L 381.114454 136.988793 
L 382.200255 151.160862 
L 383.286057 162.453353 
L 384.371858 153.78289 
L 385.457659 156.627152 
L 386.54346 179.048533 
L 387.629261 153.620651 
L 388.715062 161.251319 
L 389.800863 139.923321 
L 390.886665 141.401501 
L 391.972466 158.146346 
L 393.058267 126.302744 
L 394.144068 157.259968 
L 395.229869 144.987673 
L 396.31567 154.239961 
L 397.401472 157.6709 
L 398.487273 165.307701 
L 398.487273 165.307701 
" style="fill:none;stroke:#0000ff;stroke-linecap:square;stroke-width:1.5;"/>
   </g>
   <g id="line2d_24">
    <path clip-path="url(#p1fe35b551c)" d="M 73.832727 295.488 
L 74.918528 277.155181 
L 76.00433 268.871947 
L 77.090131 264.551896 
L 78.175932 257.804226 
L 79.261733 267.644628 
L 80.347534 258.156579 
L 81.433335 260.908836 
L 82.519137 252.478118 
L 83.604938 256.49197 
L 84.690739 263.816785 
L 86.862341 246.211972 
L 87.948142 256.543958 
L 89.033943 257.184236 
L 90.119745 271.90622 
L 91.205546 256.174628 
L 92.291347 253.720542 
L 93.377148 250.843055 
L 94.462949 265.635061 
L 95.54875 255.434487 
L 96.634552 258.146064 
L 97.720353 251.866662 
L 98.806154 232.723334 
L 99.891955 242.058444 
L 100.977756 226.333387 
L 102.063557 220.021635 
L 103.149358 225.885523 
L 104.23516 203.749084 
L 105.320961 205.402384 
L 106.406762 213.217077 
L 107.492563 213.45446 
L 108.578364 209.067899 
L 109.664165 233.593536 
L 110.749967 236.83107 
L 111.835768 246.685839 
L 112.921569 221.336804 
L 114.00737 213.178169 
L 115.093171 214.522348 
L 116.178972 225.351113 
L 117.264773 229.127038 
L 118.350575 203.392172 
L 119.436376 213.395157 
L 120.522177 225.354774 
L 121.607978 207.224802 
L 123.77958 237.722828 
L 124.865382 242.13669 
L 125.951183 230.039428 
L 127.036984 231.778452 
L 128.122785 221.490346 
L 129.208586 221.055133 
L 130.294387 214.910662 
L 131.380189 219.526989 
L 132.46599 208.584463 
L 133.551791 227.996035 
L 134.637592 230.132215 
L 135.723393 219.779376 
L 136.809194 231.073112 
L 137.894995 211.900531 
L 138.980797 230.255193 
L 140.066598 227.74801 
L 141.152399 206.604306 
L 142.2382 208.65112 
L 143.324001 215.818805 
L 144.409802 214.25985 
L 145.495604 229.558786 
L 146.581405 214.608782 
L 147.667206 212.718796 
L 148.753007 231.383127 
L 149.838808 245.715758 
L 150.924609 213.706407 
L 152.01041 221.693787 
L 153.096212 246.183172 
L 155.267814 223.543296 
L 156.353615 224.222302 
L 157.439416 208.868694 
L 158.525217 200.776966 
L 159.611019 230.812177 
L 160.69682 217.711807 
L 161.782621 228.994287 
L 162.868422 216.278115 
L 163.954223 190.144677 
L 165.040024 214.149166 
L 166.125825 198.179633 
L 167.211627 226.966567 
L 168.297428 221.679761 
L 169.383229 222.310863 
L 170.46903 216.906435 
L 171.554831 230.500517 
L 172.640632 208.542413 
L 173.726434 215.411734 
L 174.812235 186.84047 
L 175.898036 197.731954 
L 176.983837 229.063318 
L 178.069638 218.198995 
L 179.155439 221.19372 
L 180.24124 237.184151 
L 181.327042 222.20303 
L 182.412843 237.592472 
L 183.498644 225.257026 
L 184.584445 233.385325 
L 185.670246 220.696726 
L 186.756047 220.167843 
L 187.841849 245.035067 
L 188.92765 225.948852 
L 190.013451 238.512637 
L 191.099252 238.367145 
L 192.185053 255.086026 
L 193.270854 225.706853 
L 194.356656 255.478315 
L 195.442457 248.668482 
L 196.528258 246.993771 
L 197.614059 227.62967 
L 198.69986 240.526919 
L 199.785661 247.148556 
L 200.871462 259.607585 
L 201.957264 242.589805 
L 203.043065 259.587986 
L 204.128866 254.912064 
L 205.214667 241.029867 
L 206.300468 236.001838 
L 207.386269 216.156804 
L 208.472071 245.915413 
L 209.557872 216.901811 
L 210.643673 216.657794 
L 211.729474 255.904795 
L 212.815275 234.704363 
L 213.901076 208.709637 
L 214.986877 230.645685 
L 216.072679 227.26462 
L 217.15848 240.922438 
L 218.244281 224.396101 
L 219.330082 235.347305 
L 220.415883 252.806717 
L 221.501684 225.627075 
L 222.587486 210.580519 
L 223.673287 230.350638 
L 224.759088 207.102081 
L 225.844889 228.646432 
L 226.93069 217.865815 
L 228.016491 224.017999 
L 229.102292 218.284836 
L 230.188094 192.4809 
L 231.273895 232.010204 
L 232.359696 201.210987 
L 233.445497 224.103945 
L 234.531298 217.00694 
L 235.617099 233.90249 
L 236.702901 223.001433 
L 237.788702 220.753463 
L 238.874503 221.855835 
L 239.960304 238.595904 
L 241.046105 227.619461 
L 242.131906 203.127279 
L 243.217708 219.517666 
L 244.303509 186.382812 
L 245.38931 201.628668 
L 246.475111 194.408409 
L 247.560912 205.175134 
L 248.646713 196.02975 
L 249.732514 180.40826 
L 250.818316 201.278266 
L 251.904117 192.326647 
L 252.989918 186.655149 
L 254.075719 205.355489 
L 255.16152 200.159019 
L 256.247321 204.568736 
L 257.333123 214.468931 
L 258.418924 230.321534 
L 259.504725 220.4738 
L 260.590526 227.558374 
L 261.676327 210.740686 
L 262.762128 225.166751 
L 263.847929 194.668553 
L 264.933731 230.103487 
L 266.019532 194.530056 
L 267.105333 194.122715 
L 268.191134 180.11738 
L 269.276935 188.95538 
L 270.362736 212.244789 
L 271.448538 206.257312 
L 272.534339 181.520155 
L 273.62014 198.536045 
L 274.705941 192.958499 
L 275.791742 197.441684 
L 276.877543 228.73152 
L 277.963344 209.02502 
L 279.049146 221.150169 
L 280.134947 185.453614 
L 281.220748 190.30271 
L 282.306549 185.643335 
L 283.39235 196.041507 
L 284.478151 214.518979 
L 285.563953 212.765259 
L 286.649754 227.296766 
L 287.735555 207.000158 
L 288.821356 224.486472 
L 289.907157 198.031012 
L 290.992958 209.644743 
L 292.07876 211.10903 
L 293.164561 181.157508 
L 294.250362 173.392771 
L 295.336163 199.359698 
L 296.421964 217.112294 
L 297.507765 195.040619 
L 298.593566 190.187124 
L 299.679368 186.964406 
L 300.765169 174.862798 
L 301.85097 207.008678 
L 302.936771 203.740159 
L 304.022572 198.291608 
L 305.108373 177.797501 
L 306.194175 200.824573 
L 307.279976 179.924397 
L 308.365777 215.702562 
L 309.451578 207.172167 
L 310.537379 204.556276 
L 311.62318 211.803327 
L 312.708981 194.083874 
L 313.794783 203.827869 
L 315.966385 178.903912 
L 317.052186 200.918066 
L 318.137987 194.290974 
L 319.223788 181.053287 
L 320.30959 179.992029 
L 321.395391 196.350207 
L 322.481192 184.54075 
L 323.566993 183.385623 
L 324.652794 192.199376 
L 325.738595 190.764607 
L 326.824396 188.681811 
L 327.910198 181.532978 
L 328.995999 195.899522 
L 330.0818 193.510078 
L 331.167601 199.144469 
L 332.253402 194.336069 
L 333.339203 204.638613 
L 334.425005 179.319125 
L 335.510806 193.175748 
L 336.596607 208.53974 
L 337.682408 197.947982 
L 338.768209 222.304053 
L 339.85401 200.512475 
L 340.939811 195.652846 
L 342.025613 201.435367 
L 343.111414 198.459288 
L 344.197215 197.669203 
L 345.283016 197.817425 
L 346.368817 204.732061 
L 347.454618 198.328593 
L 348.54042 207.38817 
L 349.626221 212.02541 
L 350.712022 214.304337 
L 351.797823 199.439506 
L 352.883624 183.00815 
L 353.969425 203.018839 
L 355.055227 211.685334 
L 356.141028 203.367594 
L 357.226829 195.991168 
L 358.31263 203.894845 
L 359.398431 203.460572 
L 360.484232 217.724694 
L 361.570033 211.719801 
L 362.655835 199.89661 
L 363.741636 205.750738 
L 364.827437 254.470275 
L 365.913238 223.359264 
L 366.999039 232.126777 
L 368.08484 213.660717 
L 370.256443 238.686784 
L 371.342244 226.53508 
L 372.428045 204.201527 
L 373.513846 203.168913 
L 374.599647 213.511419 
L 375.685448 231.177458 
L 376.77125 200.757893 
L 377.857051 223.22653 
L 378.942852 185.915774 
L 380.028653 203.074643 
L 381.114454 183.874034 
L 382.200255 202.148671 
L 383.286057 216.120695 
L 384.371858 204.17335 
L 385.457659 213.133538 
L 386.54346 238.867627 
L 387.629261 213.480749 
L 388.715062 221.833099 
L 389.800863 191.789889 
L 390.886665 204.744742 
L 391.972466 223.910701 
L 393.058267 185.28306 
L 394.144068 219.623598 
L 395.229869 202.094871 
L 396.31567 207.375984 
L 397.401472 215.588368 
L 398.487273 222.334752 
L 398.487273 222.334752 
" style="fill:none;stroke:#008000;stroke-dasharray:9.6,2.4,1.5,2.4;stroke-dashoffset:0;stroke-width:1.5;"/>
   </g>
   <g id="line2d_25">
    <path clip-path="url(#p1fe35b551c)" d="M 73.832727 265.136347 
L 74.918528 249.488395 
L 76.00433 244.427627 
L 77.090131 235.560898 
L 78.175932 233.245675 
L 79.261733 223.038692 
L 80.347534 227.938859 
L 81.433335 225.261447 
L 82.519137 219.100254 
L 83.604938 214.290345 
L 85.77654 193.395698 
L 86.862341 176.439903 
L 87.948142 174.643115 
L 90.119745 179.67566 
L 91.205546 167.986033 
L 92.291347 175.859538 
L 93.377148 163.064437 
L 94.462949 167.120268 
L 95.54875 176.171486 
L 96.634552 158.191203 
L 97.720353 170.802315 
L 98.806154 175.267101 
L 100.977756 153.231535 
L 102.063557 150.340263 
L 103.149358 150.040286 
L 104.23516 146.999015 
L 105.320961 140.525193 
L 106.406762 159.110092 
L 107.492563 154.101741 
L 108.578364 141.448477 
L 109.664165 152.216866 
L 110.749967 150.915441 
L 111.835768 154.806648 
L 112.921569 135.013703 
L 114.00737 147.480532 
L 115.093171 143.341081 
L 116.178972 133.091868 
L 117.264773 150.59509 
L 118.350575 142.23057 
L 119.436376 145.013959 
L 120.522177 128.245514 
L 121.607978 151.152551 
L 122.693779 151.345749 
L 123.77958 157.38825 
L 124.865382 151.827983 
L 125.951183 143.229129 
L 127.036984 144.783035 
L 128.122785 151.636317 
L 129.208586 147.373895 
L 130.294387 146.366048 
L 131.380189 146.496168 
L 132.46599 121.035275 
L 133.551791 119.236351 
L 134.637592 108.697652 
L 135.723393 114.895962 
L 136.809194 124.420974 
L 137.894995 108.653493 
L 138.980797 117.965728 
L 140.066598 112.48155 
L 141.152399 107.973244 
L 142.2382 117.014195 
L 143.324001 116.010523 
L 144.409802 95.84725 
L 145.495604 113.945843 
L 146.581405 104.776161 
L 147.667206 111.522094 
L 148.753007 122.528391 
L 149.838808 105.515192 
L 150.924609 84.534226 
L 152.01041 101.276422 
L 153.096212 99.667349 
L 154.182013 116.253712 
L 155.267814 120.74317 
L 156.353615 112.205828 
L 157.439416 98.407612 
L 158.525217 115.597376 
L 159.611019 106.101755 
L 160.69682 116.089174 
L 161.782621 106.156247 
L 163.954223 97.925699 
L 165.040024 106.902462 
L 166.125825 105.938976 
L 167.211627 118.228576 
L 168.297428 104.755194 
L 169.383229 131.571673 
L 170.46903 106.167127 
L 171.554831 116.146602 
L 172.640632 107.460783 
L 173.726434 108.616619 
L 174.812235 89.241546 
L 175.898036 87.019263 
L 176.983837 89.316984 
L 178.069638 118.255048 
L 179.155439 106.303567 
L 180.24124 119.183936 
L 181.327042 114.196712 
L 182.412843 111.529134 
L 183.498644 102.546306 
L 184.584445 105.854659 
L 185.670246 102.297214 
L 186.756047 111.638658 
L 187.841849 119.567248 
L 188.92765 133.077726 
L 190.013451 120.175282 
L 191.099252 119.64871 
L 192.185053 118.632914 
L 193.270854 88.902124 
L 194.356656 132.841835 
L 195.442457 103.573932 
L 196.528258 102.412827 
L 197.614059 96.827874 
L 198.69986 103.109673 
L 199.785661 113.445341 
L 200.871462 127.890044 
L 203.043065 96.971672 
L 204.128866 129.814758 
L 205.214667 100.057886 
L 206.300468 124.50309 
L 207.386269 94.866371 
L 208.472071 115.165446 
L 209.557872 94.400069 
L 210.643673 98.823063 
L 211.729474 133.167491 
L 212.815275 122.949426 
L 213.901076 96.566275 
L 214.986877 95.387563 
L 216.072679 110.694771 
L 217.15848 107.166416 
L 218.244281 100.483684 
L 219.330082 103.746176 
L 220.415883 90.903255 
L 221.501684 112.635291 
L 222.587486 118.549493 
L 223.673287 100.958237 
L 224.759088 88.413712 
L 225.844889 106.922313 
L 226.93069 102.218078 
L 228.016491 91.204635 
L 229.102292 87.754545 
L 230.188094 80.793281 
L 231.273895 106.581738 
L 232.359696 106.532128 
L 233.445497 113.140731 
L 234.531298 103.739437 
L 235.617099 100.407559 
L 236.702901 91.601 
L 237.788702 99.44935 
L 238.874503 89.585272 
L 239.960304 81.236023 
L 241.046105 85.369798 
L 242.131906 78.599933 
L 243.217708 95.741821 
L 244.303509 73.446053 
L 245.38931 98.256805 
L 246.475111 83.634357 
L 247.560912 91.893261 
L 249.732514 76.787497 
L 250.818316 94.480642 
L 251.904117 98.87592 
L 252.989918 86.505753 
L 254.075719 106.079866 
L 255.16152 102.822492 
L 256.247321 88.575503 
L 257.333123 95.429837 
L 258.418924 116.943645 
L 259.504725 112.767962 
L 260.590526 104.171106 
L 261.676327 99.775833 
L 262.762128 104.230585 
L 263.847929 95.564167 
L 264.933731 109.625758 
L 266.019532 95.447125 
L 267.105333 90.750303 
L 268.191134 88.241657 
L 269.276935 100.695829 
L 270.362736 107.637913 
L 271.448538 107.633699 
L 272.534339 103.629012 
L 274.705941 78.161485 
L 275.791742 72.981806 
L 276.877543 108.041343 
L 277.963344 108.814759 
L 279.049146 90.431403 
L 280.134947 81.012252 
L 281.220748 81.289107 
L 282.306549 88.844362 
L 283.39235 84.88928 
L 284.478151 92.303997 
L 285.563953 103.66414 
L 286.649754 110.921205 
L 287.735555 111.654064 
L 288.821356 104.589414 
L 289.907157 89.873017 
L 290.992958 92.172383 
L 292.07876 85.18903 
L 293.164561 68.746888 
L 294.250362 73.458807 
L 295.336163 91.962202 
L 296.421964 74.525992 
L 297.507765 108.566138 
L 298.593566 82.282333 
L 299.679368 89.009155 
L 300.765169 61.501747 
L 301.85097 118.536138 
L 302.936771 76.960204 
L 304.022572 81.824623 
L 305.108373 92.148082 
L 306.194175 103.644194 
L 307.279976 100.981875 
L 308.365777 94.752047 
L 309.451578 93.417445 
L 310.537379 81.338275 
L 311.62318 104.209642 
L 312.708981 89.724581 
L 313.794783 94.102338 
L 314.880584 69.570157 
L 315.966385 79.649116 
L 317.052186 77.960748 
L 318.137987 90.457869 
L 319.223788 75.563581 
L 320.30959 87.960336 
L 321.395391 85.67988 
L 322.481192 76.310121 
L 323.566993 82.951551 
L 324.652794 99.333556 
L 325.738595 98.146064 
L 326.824396 101.840243 
L 327.910198 86.157112 
L 328.995999 95.63385 
L 330.0818 91.619961 
L 331.167601 81.287216 
L 332.253402 93.863359 
L 333.339203 73.292909 
L 334.425005 79.017964 
L 335.510806 78.818915 
L 336.596607 103.732741 
L 337.682408 99.005632 
L 338.768209 104.654888 
L 339.85401 106.485319 
L 340.939811 86.247685 
L 342.025613 88.023823 
L 343.111414 93.506974 
L 344.197215 97.689019 
L 345.283016 95.175839 
L 346.368817 115.516872 
L 347.454618 75.387299 
L 348.54042 103.86886 
L 349.626221 96.479592 
L 350.712022 82.961466 
L 351.797823 87.588667 
L 352.883624 104.222761 
L 353.969425 80.600506 
L 355.055227 88.87213 
L 356.141028 82.638931 
L 357.226829 84.10218 
L 358.31263 81.891586 
L 359.398431 105.860596 
L 360.484232 72.453135 
L 361.570033 108.445094 
L 362.655835 100.686828 
L 363.741636 76.563632 
L 364.827437 125.548817 
L 365.913238 93.006104 
L 366.999039 89.943823 
L 368.08484 92.463875 
L 369.170642 103.569248 
L 370.256443 93.430567 
L 371.342244 117.410421 
L 372.428045 92.131385 
L 373.513846 96.356839 
L 374.599647 98.213887 
L 375.685448 93.409391 
L 376.77125 94.042883 
L 377.857051 101.750029 
L 378.942852 97.038194 
L 380.028653 95.939967 
L 381.114454 90.103552 
L 382.200255 100.173053 
L 383.286057 108.786011 
L 384.371858 103.392429 
L 385.457659 100.120766 
L 386.54346 119.229438 
L 387.629261 93.760554 
L 388.715062 100.66954 
L 389.800863 88.056752 
L 390.886665 78.05826 
L 391.972466 92.381991 
L 393.058267 67.322428 
L 394.144068 94.896337 
L 395.229869 87.880476 
L 396.31567 101.103937 
L 397.401472 99.753432 
L 398.487273 108.280651 
L 398.487273 108.280651 
" style="fill:none;stroke:#008000;stroke-dasharray:9.6,2.4,1.5,2.4;stroke-dashoffset:0;stroke-width:1.5;"/>
   </g>
   <g id="line2d_26">
    <path clip-path="url(#p1fe35b551c)" d="M 73.832727 251.63561 
L 74.918528 247.179724 
L 76.00433 246.639314 
L 77.090131 227.627571 
L 78.175932 228.386858 
L 79.261733 215.580051 
L 80.347534 212.357371 
L 81.433335 218.093802 
L 82.519137 205.490444 
L 83.604938 196.733993 
L 84.690739 182.777308 
L 85.77654 176.240024 
L 86.862341 159.907815 
L 87.948142 153.690177 
L 89.033943 156.196488 
L 90.119745 156.887747 
L 91.205546 152.577593 
L 92.291347 165.566756 
L 93.377148 139.190123 
L 94.462949 150.76509 
L 95.54875 163.539472 
L 96.634552 141.28998 
L 97.720353 147.053556 
L 98.806154 154.598204 
L 99.891955 141.125896 
L 100.977756 137.780872 
L 102.063557 135.826682 
L 103.149358 139.268378 
L 104.23516 140.627656 
L 105.320961 138.230439 
L 106.406762 149.9963 
L 107.492563 144.590106 
L 108.578364 136.700355 
L 109.664165 145.914135 
L 110.749967 147.116556 
L 111.835768 152.088337 
L 112.921569 131.742415 
L 114.00737 147.021616 
L 116.178972 124.195273 
L 117.264773 139.901445 
L 118.350575 132.857518 
L 119.436376 137.723279 
L 120.522177 134.089186 
L 121.607978 140.978116 
L 122.693779 142.341649 
L 123.77958 148.957183 
L 124.865382 132.411273 
L 125.951183 136.794928 
L 127.036984 134.19036 
L 128.122785 137.510895 
L 129.208586 144.06607 
L 130.294387 133.393193 
L 131.380189 147.15841 
L 132.46599 89.280066 
L 133.551791 71.798716 
L 134.637592 73.923605 
L 135.723393 78.937886 
L 136.809194 96.288601 
L 137.894995 85.636991 
L 138.980797 85.059096 
L 140.066598 68.696673 
L 141.152399 89.052589 
L 142.2382 95.864795 
L 143.324001 100.880325 
L 144.409802 77.484376 
L 145.495604 83.793273 
L 146.581405 74.588767 
L 147.667206 85.246468 
L 148.753007 89.21796 
L 149.838808 78.262996 
L 150.924609 72.038996 
L 152.01041 79.264452 
L 153.096212 71.911875 
L 154.182013 96.987084 
L 155.267814 113.191332 
L 156.353615 97.615553 
L 157.439416 77.36296 
L 158.525217 73.853769 
L 159.611019 77.146485 
L 160.69682 82.716067 
L 161.782621 82.099371 
L 162.868422 89.04481 
L 163.954223 80.926609 
L 165.040024 91.089101 
L 166.125825 77.73373 
L 167.211627 94.819858 
L 168.297428 91.611633 
L 169.383229 101.198573 
L 170.46903 86.993366 
L 171.554831 92.250362 
L 172.640632 92.851907 
L 173.726434 98.879576 
L 174.812235 57.203261 
L 175.898036 66.074195 
L 176.983837 66.681078 
L 178.069638 92.803719 
L 179.155439 74.544093 
L 180.24124 86.214581 
L 181.327042 82.211661 
L 182.412843 82.374213 
L 183.498644 88.713508 
L 184.584445 86.740189 
L 185.670246 87.194078 
L 186.756047 91.002012 
L 187.841849 107.381372 
L 188.92765 108.955563 
L 190.013451 97.152758 
L 191.099252 97.061991 
L 192.185053 99.202967 
L 193.270854 82.924265 
L 194.356656 92.72935 
L 195.442457 77.34318 
L 196.528258 90.447111 
L 197.614059 90.143963 
L 198.69986 84.129685 
L 199.785661 97.179058 
L 200.871462 104.12228 
L 201.957264 93.977492 
L 203.043065 64.753164 
L 204.128866 95.417176 
L 205.214667 90.381944 
L 206.300468 110.913508 
L 207.386269 86.163084 
L 208.472071 97.774945 
L 209.557872 75.279624 
L 210.643673 91.86477 
L 211.729474 104.450088 
L 212.815275 108.915793 
L 213.901076 79.229685 
L 214.986877 84.69875 
L 216.072679 97.172748 
L 217.15848 77.597096 
L 218.244281 85.158436 
L 219.330082 96.403949 
L 220.415883 85.021215 
L 221.501684 81.331332 
L 222.587486 104.052618 
L 223.673287 83.773971 
L 224.759088 85.352163 
L 225.844889 91.05092 
L 226.93069 74.479626 
L 228.016491 85.680733 
L 229.102292 68.011925 
L 230.188094 76.220107 
L 231.273895 76.349953 
L 232.359696 91.304177 
L 233.445497 99.278328 
L 234.531298 85.072016 
L 235.617099 82.197658 
L 236.702901 66.896423 
L 237.788702 90.519936 
L 238.874503 77.922608 
L 239.960304 72.895364 
L 241.046105 75.498622 
L 242.131906 65.80561 
L 243.217708 76.252932 
L 244.303509 55.878144 
L 245.38931 72.481437 
L 246.475111 63.821921 
L 247.560912 62.244719 
L 248.646713 68.516837 
L 249.732514 73.263217 
L 250.818316 74.406046 
L 251.904117 80.297493 
L 252.989918 65.782098 
L 254.075719 92.41983 
L 255.16152 86.312002 
L 256.247321 65.242091 
L 257.333123 83.077932 
L 258.418924 86.162474 
L 259.504725 97.72851 
L 260.590526 81.268285 
L 261.676327 84.893624 
L 262.762128 74.817093 
L 263.847929 85.81874 
L 264.933731 85.964001 
L 266.019532 81.042675 
L 267.105333 75.247328 
L 268.191134 85.537455 
L 269.276935 87.427474 
L 270.362736 94.65604 
L 271.448538 94.963878 
L 272.534339 90.576146 
L 274.705941 65.459813 
L 275.791742 61.229837 
L 276.877543 79.850107 
L 277.963344 83.427555 
L 279.049146 85.543115 
L 280.134947 68.837842 
L 281.220748 69.177542 
L 282.306549 81.889725 
L 283.39235 65.936525 
L 284.478151 73.656174 
L 285.563953 71.299855 
L 286.649754 81.471829 
L 287.735555 94.787948 
L 288.821356 74.822419 
L 289.907157 64.813696 
L 290.992958 69.104687 
L 292.07876 68.481399 
L 293.164561 63.664374 
L 294.250362 67.186298 
L 295.336163 78.209619 
L 296.421964 67.44079 
L 297.507765 86.479296 
L 298.593566 70.220426 
L 299.679368 72.648518 
L 300.765169 63.866423 
L 301.85097 111.409505 
L 302.936771 64.119682 
L 304.022572 82.724202 
L 305.108373 84.136288 
L 306.194175 87.732573 
L 307.279976 90.399634 
L 308.365777 93.932067 
L 309.451578 77.779261 
L 310.537379 73.260454 
L 311.62318 95.505675 
L 312.708981 86.043186 
L 313.794783 83.291939 
L 314.880584 64.269784 
L 315.966385 71.685343 
L 317.052186 71.305533 
L 318.137987 76.340207 
L 319.223788 60.490276 
L 320.30959 85.508396 
L 321.395391 84.769364 
L 322.481192 66.771297 
L 323.566993 68.157853 
L 324.652794 86.251871 
L 325.738595 78.521592 
L 326.824396 80.521223 
L 327.910198 77.406965 
L 328.995999 84.170237 
L 330.0818 80.248287 
L 331.167601 67.872234 
L 332.253402 85.764766 
L 333.339203 61.023567 
L 334.425005 72.501427 
L 335.510806 70.340347 
L 336.596607 80.83397 
L 337.682408 75.19505 
L 338.768209 96.315154 
L 339.85401 87.419272 
L 340.939811 72.193287 
L 342.025613 66.999308 
L 343.111414 78.688974 
L 344.197215 88.552022 
L 345.283016 81.175412 
L 346.368817 97.903778 
L 347.454618 64.855585 
L 348.54042 77.344679 
L 349.626221 77.421049 
L 350.712022 71.483235 
L 351.797823 76.522669 
L 352.883624 101.563119 
L 353.969425 71.226295 
L 355.055227 71.823081 
L 356.141028 62.829815 
L 357.226829 74.00915 
L 358.31263 59.047127 
L 359.398431 69.949562 
L 360.484232 53.568 
L 361.570033 88.546616 
L 362.655835 87.409596 
L 363.741636 59.490839 
L 364.827437 100.127009 
L 365.913238 59.509922 
L 366.999039 73.071463 
L 368.08484 72.215609 
L 369.170642 93.695661 
L 370.256443 76.02362 
L 371.342244 101.77019 
L 372.428045 78.86357 
L 374.599647 92.665972 
L 375.685448 76.883398 
L 376.77125 86.927371 
L 377.857051 100.658385 
L 378.942852 88.027149 
L 380.028653 72.843796 
L 381.114454 75.311158 
L 382.200255 97.971772 
L 383.286057 115.285616 
L 384.371858 104.487561 
L 385.457659 87.701548 
L 386.54346 102.893088 
L 387.629261 89.464315 
L 388.715062 95.607582 
L 389.800863 77.925602 
L 390.886665 76.683346 
L 391.972466 84.926161 
L 393.058267 72.34259 
L 394.144068 82.295006 
L 395.229869 78.799986 
L 396.31567 96.704009 
L 397.401472 74.695219 
L 398.487273 94.275124 
L 398.487273 94.275124 
" style="fill:none;stroke:#ff0000;stroke-linecap:square;stroke-width:1.5;"/>
   </g>
   <g id="patch_3">
    <path d="M 57.6 307.584 
L 57.6 41.472 
" style="fill:none;stroke:#000000;stroke-linecap:square;stroke-linejoin:miter;stroke-width:0.8;"/>
   </g>
   <g id="patch_4">
    <path d="M 414.72 307.584 
L 414.72 41.472 
" style="fill:none;stroke:#000000;stroke-linecap:square;stroke-linejoin:miter;stroke-width:0.8;"/>
   </g>
   <g id="patch_5">
    <path d="M 57.6 307.584 
L 414.72 307.584 
" style="fill:none;stroke:#000000;stroke-linecap:square;stroke-linejoin:miter;stroke-width:0.8;"/>
   </g>
   <g id="patch_6">
    <path d="M 57.6 41.472 
L 414.72 41.472 
" style="fill:none;stroke:#000000;stroke-linecap:square;stroke-linejoin:miter;stroke-width:0.8;"/>
   </g>
   <g id="text_14">
    <!-- Population's average and best fitness -->
    <defs>
     <path d="M 19.671875 64.796875 
L 19.671875 37.40625 
L 32.078125 37.40625 
Q 38.96875 37.40625 42.71875 40.96875 
Q 46.484375 44.53125 46.484375 51.125 
Q 46.484375 57.671875 42.71875 61.234375 
Q 38.96875 64.796875 32.078125 64.796875 
z
M 9.8125 72.90625 
L 32.078125 72.90625 
Q 44.34375 72.90625 50.609375 67.359375 
Q 56.890625 61.8125 56.890625 51.125 
Q 56.890625 40.328125 50.609375 34.8125 
Q 44.34375 29.296875 32.078125 29.296875 
L 19.671875 29.296875 
L 19.671875 0 
L 9.8125 0 
z
" id="DejaVuSans-80"/>
     <path d="M 18.109375 8.203125 
L 18.109375 -20.796875 
L 9.078125 -20.796875 
L 9.078125 54.6875 
L 18.109375 54.6875 
L 18.109375 46.390625 
Q 20.953125 51.265625 25.265625 53.625 
Q 29.59375 56 35.59375 56 
Q 45.5625 56 51.78125 48.09375 
Q 58.015625 40.1875 58.015625 27.296875 
Q 58.015625 14.40625 51.78125 6.484375 
Q 45.5625 -1.421875 35.59375 -1.421875 
Q 29.59375 -1.421875 25.265625 0.953125 
Q 20.953125 3.328125 18.109375 8.203125 
z
M 48.6875 27.296875 
Q 48.6875 37.203125 44.609375 42.84375 
Q 40.53125 48.484375 33.40625 48.484375 
Q 26.265625 48.484375 22.1875 42.84375 
Q 18.109375 37.203125 18.109375 27.296875 
Q 18.109375 17.390625 22.1875 11.75 
Q 26.265625 6.109375 33.40625 6.109375 
Q 40.53125 6.109375 44.609375 11.75 
Q 48.6875 17.390625 48.6875 27.296875 
z
" id="DejaVuSans-112"/>
     <path d="M 8.5 21.578125 
L 8.5 54.6875 
L 17.484375 54.6875 
L 17.484375 21.921875 
Q 17.484375 14.15625 20.5 10.265625 
Q 23.53125 6.390625 29.59375 6.390625 
Q 36.859375 6.390625 41.078125 11.03125 
Q 45.3125 15.671875 45.3125 23.6875 
L 45.3125 54.6875 
L 54.296875 54.6875 
L 54.296875 0 
L 45.3125 0 
L 45.3125 8.40625 
Q 42.046875 3.421875 37.71875 1 
Q 33.40625 -1.421875 27.6875 -1.421875 
Q 18.265625 -1.421875 13.375 4.4375 
Q 8.5 10.296875 8.5 21.578125 
z
M 31.109375 56 
z
" id="DejaVuSans-117"/>
     <path d="M 9.421875 75.984375 
L 18.40625 75.984375 
L 18.40625 0 
L 9.421875 0 
z
" id="DejaVuSans-108"/>
     <path d="M 17.921875 72.90625 
L 17.921875 45.796875 
L 9.625 45.796875 
L 9.625 72.90625 
z
" id="DejaVuSans-39"/>
     <path id="DejaVuSans-32"/>
     <path d="M 2.984375 54.6875 
L 12.5 54.6875 
L 29.59375 8.796875 
L 46.6875 54.6875 
L 56.203125 54.6875 
L 35.6875 0 
L 23.484375 0 
z
" id="DejaVuSans-118"/>
     <path d="M 45.40625 27.984375 
Q 45.40625 37.75 41.375 43.109375 
Q 37.359375 48.484375 30.078125 48.484375 
Q 22.859375 48.484375 18.828125 43.109375 
Q 14.796875 37.75 14.796875 27.984375 
Q 14.796875 18.265625 18.828125 12.890625 
Q 22.859375 7.515625 30.078125 7.515625 
Q 37.359375 7.515625 41.375 12.890625 
Q 45.40625 18.265625 45.40625 27.984375 
z
M 54.390625 6.78125 
Q 54.390625 -7.171875 48.1875 -13.984375 
Q 42 -20.796875 29.203125 -20.796875 
Q 24.46875 -20.796875 20.265625 -20.09375 
Q 16.0625 -19.390625 12.109375 -17.921875 
L 12.109375 -9.1875 
Q 16.0625 -11.328125 19.921875 -12.34375 
Q 23.78125 -13.375 27.78125 -13.375 
Q 36.625 -13.375 41.015625 -8.765625 
Q 45.40625 -4.15625 45.40625 5.171875 
L 45.40625 9.625 
Q 42.625 4.78125 38.28125 2.390625 
Q 33.9375 0 27.875 0 
Q 17.828125 0 11.671875 7.65625 
Q 5.515625 15.328125 5.515625 27.984375 
Q 5.515625 40.671875 11.671875 48.328125 
Q 17.828125 56 27.875 56 
Q 33.9375 56 38.28125 53.609375 
Q 42.625 51.21875 45.40625 46.390625 
L 45.40625 54.6875 
L 54.390625 54.6875 
z
" id="DejaVuSans-103"/>
     <path d="M 45.40625 46.390625 
L 45.40625 75.984375 
L 54.390625 75.984375 
L 54.390625 0 
L 45.40625 0 
L 45.40625 8.203125 
Q 42.578125 3.328125 38.25 0.953125 
Q 33.9375 -1.421875 27.875 -1.421875 
Q 17.96875 -1.421875 11.734375 6.484375 
Q 5.515625 14.40625 5.515625 27.296875 
Q 5.515625 40.1875 11.734375 48.09375 
Q 17.96875 56 27.875 56 
Q 33.9375 56 38.25 53.625 
Q 42.578125 51.265625 45.40625 46.390625 
z
M 14.796875 27.296875 
Q 14.796875 17.390625 18.875 11.75 
Q 22.953125 6.109375 30.078125 6.109375 
Q 37.203125 6.109375 41.296875 11.75 
Q 45.40625 17.390625 45.40625 27.296875 
Q 45.40625 37.203125 41.296875 42.84375 
Q 37.203125 48.484375 30.078125 48.484375 
Q 22.953125 48.484375 18.875 42.84375 
Q 14.796875 37.203125 14.796875 27.296875 
z
" id="DejaVuSans-100"/>
     <path d="M 48.6875 27.296875 
Q 48.6875 37.203125 44.609375 42.84375 
Q 40.53125 48.484375 33.40625 48.484375 
Q 26.265625 48.484375 22.1875 42.84375 
Q 18.109375 37.203125 18.109375 27.296875 
Q 18.109375 17.390625 22.1875 11.75 
Q 26.265625 6.109375 33.40625 6.109375 
Q 40.53125 6.109375 44.609375 11.75 
Q 48.6875 17.390625 48.6875 27.296875 
z
M 18.109375 46.390625 
Q 20.953125 51.265625 25.265625 53.625 
Q 29.59375 56 35.59375 56 
Q 45.5625 56 51.78125 48.09375 
Q 58.015625 40.1875 58.015625 27.296875 
Q 58.015625 14.40625 51.78125 6.484375 
Q 45.5625 -1.421875 35.59375 -1.421875 
Q 29.59375 -1.421875 25.265625 0.953125 
Q 20.953125 3.328125 18.109375 8.203125 
L 18.109375 0 
L 9.078125 0 
L 9.078125 75.984375 
L 18.109375 75.984375 
z
" id="DejaVuSans-98"/>
     <path d="M 37.109375 75.984375 
L 37.109375 68.5 
L 28.515625 68.5 
Q 23.6875 68.5 21.796875 66.546875 
Q 19.921875 64.59375 19.921875 59.515625 
L 19.921875 54.6875 
L 34.71875 54.6875 
L 34.71875 47.703125 
L 19.921875 47.703125 
L 19.921875 0 
L 10.890625 0 
L 10.890625 47.703125 
L 2.296875 47.703125 
L 2.296875 54.6875 
L 10.890625 54.6875 
L 10.890625 58.5 
Q 10.890625 67.625 15.140625 71.796875 
Q 19.390625 75.984375 28.609375 75.984375 
z
" id="DejaVuSans-102"/>
    </defs>
    <g transform="translate(123.315 35.472)scale(0.12 -0.12)">
     <use xlink:href="#DejaVuSans-80"/>
     <use x="60.255859" xlink:href="#DejaVuSans-111"/>
     <use x="121.4375" xlink:href="#DejaVuSans-112"/>
     <use x="184.914062" xlink:href="#DejaVuSans-117"/>
     <use x="248.292969" xlink:href="#DejaVuSans-108"/>
     <use x="276.076172" xlink:href="#DejaVuSans-97"/>
     <use x="337.355469" xlink:href="#DejaVuSans-116"/>
     <use x="376.564453" xlink:href="#DejaVuSans-105"/>
     <use x="404.347656" xlink:href="#DejaVuSans-111"/>
     <use x="465.529297" xlink:href="#DejaVuSans-110"/>
     <use x="528.908203" xlink:href="#DejaVuSans-39"/>
     <use x="556.398438" xlink:href="#DejaVuSans-115"/>
     <use x="608.498047" xlink:href="#DejaVuSans-32"/>
     <use x="640.285156" xlink:href="#DejaVuSans-97"/>
     <use x="701.564453" xlink:href="#DejaVuSans-118"/>
     <use x="760.744141" xlink:href="#DejaVuSans-101"/>
     <use x="822.267578" xlink:href="#DejaVuSans-114"/>
     <use x="863.380859" xlink:href="#DejaVuSans-97"/>
     <use x="924.660156" xlink:href="#DejaVuSans-103"/>
     <use x="988.136719" xlink:href="#DejaVuSans-101"/>
     <use x="1049.660156" xlink:href="#DejaVuSans-32"/>
     <use x="1081.447266" xlink:href="#DejaVuSans-97"/>
     <use x="1142.726562" xlink:href="#DejaVuSans-110"/>
     <use x="1206.105469" xlink:href="#DejaVuSans-100"/>
     <use x="1269.582031" xlink:href="#DejaVuSans-32"/>
     <use x="1301.369141" xlink:href="#DejaVuSans-98"/>
     <use x="1364.845703" xlink:href="#DejaVuSans-101"/>
     <use x="1426.369141" xlink:href="#DejaVuSans-115"/>
     <use x="1478.46875" xlink:href="#DejaVuSans-116"/>
     <use x="1517.677734" xlink:href="#DejaVuSans-32"/>
     <use x="1549.464844" xlink:href="#DejaVuSans-102"/>
     <use x="1584.669922" xlink:href="#DejaVuSans-105"/>
     <use x="1612.453125" xlink:href="#DejaVuSans-116"/>
     <use x="1651.662109" xlink:href="#DejaVuSans-110"/>
     <use x="1715.041016" xlink:href="#DejaVuSans-101"/>
     <use x="1776.564453" xlink:href="#DejaVuSans-115"/>
     <use x="1828.664062" xlink:href="#DejaVuSans-115"/>
    </g>
   </g>
   <g id="legend_1">
    <g id="patch_7">
     <path d="M 334.779375 302.584 
L 407.72 302.584 
Q 409.72 302.584 409.72 300.584 
L 409.72 242.8715 
Q 409.72 240.8715 407.72 240.8715 
L 334.779375 240.8715 
Q 332.779375 240.8715 332.779375 242.8715 
L 332.779375 300.584 
Q 332.779375 302.584 334.779375 302.584 
z
" style="fill:#ffffff;opacity:0.8;stroke:#cccccc;stroke-linejoin:miter;"/>
    </g>
    <g id="line2d_27">
     <path d="M 336.779375 248.969937 
L 356.779375 248.969937 
" style="fill:none;stroke:#0000ff;stroke-linecap:square;stroke-width:1.5;"/>
    </g>
    <g id="line2d_28"/>
    <g id="text_15">
     <!-- average -->
     <g transform="translate(364.779375 252.469937)scale(0.1 -0.1)">
      <use xlink:href="#DejaVuSans-97"/>
      <use x="61.279297" xlink:href="#DejaVuSans-118"/>
      <use x="120.458984" xlink:href="#DejaVuSans-101"/>
      <use x="181.982422" xlink:href="#DejaVuSans-114"/>
      <use x="223.095703" xlink:href="#DejaVuSans-97"/>
      <use x="284.375" xlink:href="#DejaVuSans-103"/>
      <use x="347.851562" xlink:href="#DejaVuSans-101"/>
     </g>
    </g>
    <g id="line2d_29">
     <path d="M 336.779375 263.648062 
L 356.779375 263.648062 
" style="fill:none;stroke:#008000;stroke-dasharray:9.6,2.4,1.5,2.4;stroke-dashoffset:0;stroke-width:1.5;"/>
    </g>
    <g id="line2d_30"/>
    <g id="text_16">
     <!-- -1 sd -->
     <defs>
      <path d="M 4.890625 31.390625 
L 31.203125 31.390625 
L 31.203125 23.390625 
L 4.890625 23.390625 
z
" id="DejaVuSans-45"/>
     </defs>
     <g transform="translate(364.779375 267.148062)scale(0.1 -0.1)">
      <use xlink:href="#DejaVuSans-45"/>
      <use x="36.083984" xlink:href="#DejaVuSans-49"/>
      <use x="99.707031" xlink:href="#DejaVuSans-32"/>
      <use x="131.494141" xlink:href="#DejaVuSans-115"/>
      <use x="183.59375" xlink:href="#DejaVuSans-100"/>
     </g>
    </g>
    <g id="line2d_31">
     <path d="M 336.779375 278.326187 
L 356.779375 278.326187 
" style="fill:none;stroke:#008000;stroke-dasharray:9.6,2.4,1.5,2.4;stroke-dashoffset:0;stroke-width:1.5;"/>
    </g>
    <g id="line2d_32"/>
    <g id="text_17">
     <!-- +1 sd -->
     <defs>
      <path d="M 46 62.703125 
L 46 35.5 
L 73.1875 35.5 
L 73.1875 27.203125 
L 46 27.203125 
L 46 0 
L 37.796875 0 
L 37.796875 27.203125 
L 10.59375 27.203125 
L 10.59375 35.5 
L 37.796875 35.5 
L 37.796875 62.703125 
z
" id="DejaVuSans-43"/>
     </defs>
     <g transform="translate(364.779375 281.826187)scale(0.1 -0.1)">
      <use xlink:href="#DejaVuSans-43"/>
      <use x="83.789062" xlink:href="#DejaVuSans-49"/>
      <use x="147.412109" xlink:href="#DejaVuSans-32"/>
      <use x="179.199219" xlink:href="#DejaVuSans-115"/>
      <use x="231.298828" xlink:href="#DejaVuSans-100"/>
     </g>
    </g>
    <g id="line2d_33">
     <path d="M 336.779375 293.004312 
L 356.779375 293.004312 
" style="fill:none;stroke:#ff0000;stroke-linecap:square;stroke-width:1.5;"/>
    </g>
    <g id="line2d_34"/>
    <g id="text_18">
     <!-- best -->
     <g transform="translate(364.779375 296.504312)scale(0.1 -0.1)">
      <use xlink:href="#DejaVuSans-98"/>
      <use x="63.476562" xlink:href="#DejaVuSans-101"/>
      <use x="125" xlink:href="#DejaVuSans-115"/>
      <use x="177.099609" xlink:href="#DejaVuSans-116"/>
     </g>
    </g>
   </g>
  </g>
 </g>
 <defs>
  <clipPath id="p1fe35b551c">
   <rect height="266.112" width="357.12" x="57.6" y="41.472"/>
  </clipPath>
 </defs>
</svg>
