<?xml version="1.0" encoding="UTF-8" standalone="no"?>
<!DOCTYPE svg PUBLIC "-//W3C//DTD SVG 1.1//EN"
 "http://www.w3.org/Graphics/SVG/1.1/DTD/svg11.dtd">
<!-- Generated by graphviz version 2.40.1 (20161225.0304)
 -->
<!-- Title: %3 Pages: 1 -->
<svg width="386pt" height="91pt"
 viewBox="0.00 0.00 386.00 90.71" xmlns="http://www.w3.org/2000/svg" xmlns:xlink="http://www.w3.org/1999/xlink">
<g id="graph0" class="graph" transform="scale(1 1) rotate(0) translate(4 86.7061)">
<title>%3</title>
<polygon fill="#ffffff" stroke="transparent" points="-4,4 -4,-86.7061 381.9976,-86.7061 381.9976,4 -4,4"/>
<!-- E0 -->
<g id="node1" class="node">
<title>E0</title>
<polygon fill="#d3d3d3" stroke="#000000" points="25.9963,-82.7061 .0012,-82.7061 .0012,-65.7061 25.9963,-65.7061 25.9963,-82.7061"/>
<text text-anchor="middle" x="12.9988" y="-71.5061" font-family="Times,serif" font-size="9.00" fill="#000000">E0</text>
</g>
<!-- E1 -->
<g id="node2" class="node">
<title>E1</title>
<polygon fill="#d3d3d3" stroke="#000000" points="69.9963,-82.7061 44.0012,-82.7061 44.0012,-65.7061 69.9963,-65.7061 69.9963,-82.7061"/>
<text text-anchor="middle" x="56.9988" y="-71.5061" font-family="Times,serif" font-size="9.00" fill="#000000">E1</text>
</g>
<!-- E0&#45;&gt;E1 -->
<!-- 2 -->
<g id="node12" class="node">
<title>2</title>
<ellipse fill="#87cefa" stroke="#000000" cx="238.9988" cy="-14.853" rx="14.4914" ry="14.4914"/>
<text text-anchor="middle" x="238.9988" y="-12.153" font-family="Times,serif" font-size="9.00" fill="#000000">2</text>
</g>
<!-- E0&#45;&gt;2 -->
<g id="edge12" class="edge">
<title>E0&#45;&gt;2</title>
<path fill="none" stroke="#ff0000" stroke-width="1.876" d="M26.3698,-68.621C29.1893,-67.562 32.168,-66.5294 34.9988,-65.7061 113.3368,-42.9211 139.1076,-59.6481 214.9988,-29.7061 215.8762,-29.3599 216.7574,-28.9818 217.6368,-28.5785"/>
<polygon fill="#ff0000" stroke="#ff0000" stroke-width="1.876" points="219.6435,-31.4705 226.7393,-23.6028 216.2859,-25.3282 219.6435,-31.4705"/>
</g>
<!-- E2 -->
<g id="node3" class="node">
<title>E2</title>
<polygon fill="#d3d3d3" stroke="#000000" points="113.9963,-82.7061 88.0012,-82.7061 88.0012,-65.7061 113.9963,-65.7061 113.9963,-82.7061"/>
<text text-anchor="middle" x="100.9988" y="-71.5061" font-family="Times,serif" font-size="9.00" fill="#000000">E2</text>
</g>
<!-- E1&#45;&gt;E2 -->
<!-- S -->
<g id="node13" class="node">
<title>S</title>
<ellipse fill="#87cefa" stroke="#000000" cx="285.9988" cy="-14.853" rx="14.7075" ry="14.7075"/>
<text text-anchor="middle" x="285.9988" y="-12.153" font-family="Times,serif" font-size="9.00" fill="#000000">S</text>
</g>
<!-- E1&#45;&gt;S -->
<g id="edge14" class="edge">
<title>E1&#45;&gt;S</title>
<path fill="none" stroke="#ff0000" stroke-width="1.2408" d="M70.3677,-68.6141C73.1874,-67.5556 76.1667,-66.525 78.9988,-65.7061 158.629,-42.6814 184.8431,-60.0064 261.9988,-29.7061 262.8768,-29.3613 263.7584,-28.9844 264.6382,-28.5821"/>
<polygon fill="#ff0000" stroke="#ff0000" stroke-width="1.2408" points="266.6429,-31.4753 273.7425,-23.611 263.2883,-25.3314 266.6429,-31.4753"/>
</g>
<!-- E3 -->
<g id="node4" class="node">
<title>E3</title>
<polygon fill="#d3d3d3" stroke="#000000" points="157.9963,-82.7061 132.0012,-82.7061 132.0012,-65.7061 157.9963,-65.7061 157.9963,-82.7061"/>
<text text-anchor="middle" x="144.9988" y="-71.5061" font-family="Times,serif" font-size="9.00" fill="#000000">E3</text>
</g>
<!-- E2&#45;&gt;E3 -->
<!-- E4 -->
<g id="node5" class="node">
<title>E4</title>
<polygon fill="#d3d3d3" stroke="#000000" points="201.9963,-82.7061 176.0012,-82.7061 176.0012,-65.7061 201.9963,-65.7061 201.9963,-82.7061"/>
<text text-anchor="middle" x="188.9988" y="-71.5061" font-family="Times,serif" font-size="9.00" fill="#000000">E4</text>
</g>
<!-- E3&#45;&gt;E4 -->
<!-- 0 -->
<g id="node10" class="node">
<title>0</title>
<ellipse fill="#87cefa" stroke="#000000" cx="144.9988" cy="-14.853" rx="14.4914" ry="14.4914"/>
<text text-anchor="middle" x="144.9988" y="-12.153" font-family="Times,serif" font-size="9.00" fill="#000000">0</text>
</g>
<!-- E3&#45;&gt;0 -->
<g id="edge15" class="edge">
<title>E3&#45;&gt;0</title>
<path fill="none" stroke="#ff0000" stroke-width="2.3073" d="M144.9988,-65.7022C144.9988,-58.9749 144.9988,-49.2187 144.9988,-40.0472"/>
<polygon fill="#ff0000" stroke="#ff0000" stroke-width="2.3073" points="148.4989,-39.7656 144.9988,-29.7657 141.4989,-39.7657 148.4989,-39.7656"/>
</g>
<!-- E5 -->
<g id="node6" class="node">
<title>E5</title>
<polygon fill="#d3d3d3" stroke="#000000" points="245.9963,-82.7061 220.0012,-82.7061 220.0012,-65.7061 245.9963,-65.7061 245.9963,-82.7061"/>
<text text-anchor="middle" x="232.9988" y="-71.5061" font-family="Times,serif" font-size="9.00" fill="#000000">E5</text>
</g>
<!-- E4&#45;&gt;E5 -->
<!-- E4&#45;&gt;0 -->
<g id="edge17" class="edge">
<title>E4&#45;&gt;0</title>
<path fill="none" stroke="#00ff00" stroke-width=".1784" d="M182.6947,-65.7022C176.754,-57.6887 167.6274,-45.3775 159.8425,-34.8762"/>
<polygon fill="#00ff00" stroke="#00ff00" stroke-width=".1784" points="162.4851,-32.5637 153.7181,-26.6148 156.8617,-36.7325 162.4851,-32.5637"/>
</g>
<!-- 1 -->
<g id="node11" class="node">
<title>1</title>
<ellipse fill="#87cefa" stroke="#000000" cx="191.9988" cy="-14.853" rx="14.4914" ry="14.4914"/>
<text text-anchor="middle" x="191.9988" y="-12.153" font-family="Times,serif" font-size="9.00" fill="#000000">1</text>
</g>
<!-- E4&#45;&gt;1 -->
<g id="edge13" class="edge">
<title>E4&#45;&gt;1</title>
<path fill="none" stroke="#ff0000" stroke-width="1.2011" d="M189.4286,-65.7022C189.7686,-58.9749 190.2618,-49.2187 190.7253,-40.0472"/>
<polygon fill="#ff0000" stroke="#ff0000" stroke-width="1.2011" points="194.2357,-39.9296 191.245,-29.7657 187.2446,-39.5762 194.2357,-39.9296"/>
</g>
<!-- E6 -->
<g id="node7" class="node">
<title>E6</title>
<polygon fill="#d3d3d3" stroke="#000000" points="289.9963,-82.7061 264.0012,-82.7061 264.0012,-65.7061 289.9963,-65.7061 289.9963,-82.7061"/>
<text text-anchor="middle" x="276.9988" y="-71.5061" font-family="Times,serif" font-size="9.00" fill="#000000">E6</text>
</g>
<!-- E5&#45;&gt;E6 -->
<!-- E5&#45;&gt;0 -->
<g id="edge18" class="edge">
<title>E5&#45;&gt;0</title>
<path fill="none" stroke="#00ff00" stroke-width=".4754" d="M220.3905,-65.7022C206.1152,-56.074 182.6412,-40.2416 165.6751,-28.7985"/>
<polygon fill="#00ff00" stroke="#00ff00" stroke-width=".4754" points="167.2663,-25.6501 157.0187,-22.9601 163.3521,-31.4535 167.2663,-25.6501"/>
</g>
<!-- E7 -->
<g id="node8" class="node">
<title>E7</title>
<polygon fill="#d3d3d3" stroke="#000000" points="333.9963,-82.7061 308.0012,-82.7061 308.0012,-65.7061 333.9963,-65.7061 333.9963,-82.7061"/>
<text text-anchor="middle" x="320.9988" y="-71.5061" font-family="Times,serif" font-size="9.00" fill="#000000">E7</text>
</g>
<!-- E6&#45;&gt;E7 -->
<!-- E8 -->
<g id="node9" class="node">
<title>E8</title>
<polygon fill="#d3d3d3" stroke="#000000" points="377.9963,-82.7061 352.0012,-82.7061 352.0012,-65.7061 377.9963,-65.7061 377.9963,-82.7061"/>
<text text-anchor="middle" x="364.9988" y="-71.5061" font-family="Times,serif" font-size="9.00" fill="#000000">E8</text>
</g>
<!-- E7&#45;&gt;E8 -->
<!-- E7&#45;&gt;1 -->
<g id="edge16" class="edge">
<title>E7&#45;&gt;1</title>
<path fill="none" stroke="#ff0000" stroke-width=".1335" d="M307.7576,-68.8908C283.5016,-59.1049 232.8794,-38.4412 215.9988,-29.7061 215.161,-29.2726 214.3136,-28.8203 213.4626,-28.3545"/>
<polygon fill="#ff0000" stroke="#ff0000" stroke-width=".1335" points="214.8882,-25.1328 204.4927,-23.087 211.3435,-31.169 214.8882,-25.1328"/>
</g>
<!-- 0&#45;&gt;1 -->
<!-- 1&#45;&gt;2 -->
<!-- 2&#45;&gt;S -->
</g>
</svg>
