<?xml version="1.0" encoding="utf-8" standalone="no"?>
<!DOCTYPE svg PUBLIC "-//W3C//DTD SVG 1.1//EN"
  "http://www.w3.org/Graphics/SVG/1.1/DTD/svg11.dtd">
<!-- Created with matplotlib (https://matplotlib.org/) -->
<svg height="345.6pt" version="1.1" viewBox="0 0 460.8 345.6" width="460.8pt" xmlns="http://www.w3.org/2000/svg" xmlns:xlink="http://www.w3.org/1999/xlink">
 <defs>
  <style type="text/css">
*{stroke-linecap:butt;stroke-linejoin:round;}
  </style>
 </defs>
 <g id="figure_1">
  <g id="patch_1">
   <path d="M 0 345.6 
L 460.8 345.6 
L 460.8 0 
L 0 0 
z
" style="fill:#ffffff;"/>
  </g>
  <g id="axes_1">
   <g id="patch_2">
    <path d="M 57.6 307.584 
L 414.72 307.584 
L 414.72 41.472 
L 57.6 41.472 
z
" style="fill:#ffffff;"/>
   </g>
   <g id="PolyCollection_1">
    <path clip-path="url(#pf203e8071d)" d="M 73.832727 275.662788 
L 73.832727 276.609931 
L 74.918528 280.648952 
L 76.00433 279.429847 
L 77.090131 282.703233 
L 78.175932 284.525398 
L 79.261733 287.062659 
L 80.347534 286.131339 
L 81.433335 287.85055 
L 82.519137 285.038584 
L 83.604938 285.165906 
L 84.690739 283.971694 
L 85.77654 281.977209 
L 86.862341 281.367309 
L 87.948142 281.158321 
L 89.033943 284.495613 
L 90.119745 284.385217 
L 91.205546 284.970198 
L 92.291347 288.523765 
L 93.377148 295.370693 
L 94.462949 289.190714 
L 95.54875 291.581774 
L 96.634552 291.61026 
L 97.720353 295.488 
L 98.806154 294.53486 
L 99.891955 294.865337 
L 100.977756 289.91898 
L 102.063557 288.538115 
L 103.149358 287.786179 
L 104.23516 285.303948 
L 105.320961 285.503886 
L 106.406762 284.916986 
L 107.492563 283.408978 
L 108.578364 284.669372 
L 109.664165 279.989886 
L 110.749967 284.737007 
L 111.835768 285.645852 
L 112.921569 281.863158 
L 114.00737 282.113727 
L 115.093171 280.763967 
L 116.178972 277.953677 
L 117.264773 280.4945 
L 118.350575 277.43312 
L 119.436376 280.570984 
L 120.522177 279.683019 
L 121.607978 282.099009 
L 122.693779 285.683732 
L 123.77958 281.513136 
L 124.865382 279.605956 
L 125.951183 280.554511 
L 127.036984 283.905054 
L 128.122785 276.835298 
L 129.208586 274.803819 
L 130.294387 273.708918 
L 131.380189 276.737248 
L 132.46599 278.515825 
L 133.551791 275.259719 
L 134.637592 282.560377 
L 135.723393 278.64552 
L 136.809194 277.708484 
L 137.894995 278.254863 
L 138.980797 276.677076 
L 140.066598 276.148123 
L 141.152399 274.226571 
L 142.2382 273.592042 
L 143.324001 274.241145 
L 144.409802 273.187737 
L 145.495604 274.579944 
L 146.581405 273.478286 
L 147.667206 276.227137 
L 148.753007 281.302715 
L 149.838808 286.240775 
L 150.924609 284.219289 
L 152.01041 283.345846 
L 153.096212 285.64812 
L 154.182013 286.41398 
L 155.267814 289.564753 
L 156.353615 286.859405 
L 157.439416 285.978204 
L 158.525217 275.102209 
L 159.611019 275.359161 
L 160.69682 279.667336 
L 161.782621 288.454074 
L 162.868422 282.784042 
L 163.954223 285.694207 
L 165.040024 284.535972 
L 166.125825 288.294534 
L 167.211627 284.168631 
L 168.297428 286.686313 
L 169.383229 281.231848 
L 170.46903 287.061365 
L 171.554831 272.041093 
L 172.640632 276.51224 
L 173.726434 281.377874 
L 174.812235 276.441573 
L 175.898036 276.375395 
L 176.983837 270.038136 
L 178.069638 275.709374 
L 179.155439 268.275366 
L 180.24124 264.881649 
L 181.327042 269.135175 
L 182.412843 269.89854 
L 183.498644 264.420981 
L 184.584445 270.000913 
L 185.670246 277.149341 
L 186.756047 274.503456 
L 187.841849 280.513306 
L 188.92765 281.062312 
L 190.013451 280.835822 
L 191.099252 272.489706 
L 192.185053 258.745166 
L 193.270854 269.358137 
L 194.356656 275.184072 
L 195.442457 283.853723 
L 196.528258 273.638177 
L 197.614059 270.472446 
L 198.69986 268.851467 
L 199.785661 266.347044 
L 200.871462 271.946782 
L 201.957264 277.015623 
L 203.043065 268.352189 
L 204.128866 266.007401 
L 205.214667 274.69203 
L 206.300468 267.323246 
L 207.386269 268.504686 
L 208.472071 274.341262 
L 209.557872 277.467456 
L 210.643673 273.689945 
L 211.729474 274.506895 
L 212.815275 278.942718 
L 213.901076 263.992961 
L 214.986877 263.59987 
L 216.072679 272.589409 
L 217.15848 265.738912 
L 218.244281 273.599114 
L 219.330082 270.822086 
L 220.415883 269.560572 
L 221.501684 269.820082 
L 222.587486 263.070386 
L 223.673287 257.889934 
L 224.759088 267.172281 
L 225.844889 267.296762 
L 226.93069 270.268381 
L 228.016491 253.299341 
L 229.102292 253.182147 
L 230.188094 269.298158 
L 231.273895 265.162378 
L 232.359696 263.930409 
L 233.445497 259.097406 
L 234.531298 256.943286 
L 235.617099 264.498147 
L 236.702901 270.501513 
L 237.788702 263.226121 
L 238.874503 258.820882 
L 239.960304 258.755003 
L 241.046105 256.595725 
L 242.131906 257.258106 
L 243.217708 258.860869 
L 244.303509 259.277263 
L 245.38931 250.755623 
L 246.475111 261.99527 
L 247.560912 268.308636 
L 248.646713 268.02762 
L 249.732514 245.561955 
L 250.818316 254.131296 
L 251.904117 259.332015 
L 252.989918 255.668855 
L 254.075719 263.112108 
L 255.16152 257.165675 
L 256.247321 246.814034 
L 257.333123 261.635282 
L 258.418924 253.922007 
L 259.504725 255.551973 
L 260.590526 253.185721 
L 261.676327 251.731453 
L 262.762128 237.926111 
L 263.847929 243.088636 
L 264.933731 249.705222 
L 266.019532 252.001689 
L 267.105333 244.539434 
L 268.191134 253.784437 
L 269.276935 255.286046 
L 270.362736 253.759577 
L 271.448538 265.327159 
L 272.534339 253.60249 
L 273.62014 252.444422 
L 274.705941 249.42215 
L 275.791742 258.713419 
L 276.877543 267.693762 
L 277.963344 267.556447 
L 279.049146 262.106941 
L 280.134947 262.999838 
L 281.220748 261.237174 
L 282.306549 254.203574 
L 283.39235 264.844027 
L 284.478151 268.689705 
L 285.563953 268.767049 
L 286.649754 263.912518 
L 287.735555 264.757618 
L 288.821356 264.036103 
L 289.907157 257.422312 
L 290.992958 253.040063 
L 292.07876 264.336906 
L 293.164561 257.955132 
L 294.250362 242.292602 
L 295.336163 249.832632 
L 296.421964 258.162681 
L 297.507765 259.264335 
L 298.593566 251.775027 
L 299.679368 251.179615 
L 300.765169 253.216692 
L 301.85097 254.075172 
L 302.936771 249.582478 
L 304.022572 257.779216 
L 305.108373 245.810259 
L 306.194175 250.251989 
L 307.279976 238.799454 
L 308.365777 245.314144 
L 309.451578 250.140246 
L 310.537379 250.390995 
L 311.62318 255.713255 
L 312.708981 267.662686 
L 313.794783 254.284398 
L 314.880584 249.065115 
L 315.966385 226.90315 
L 317.052186 235.004237 
L 318.137987 233.364918 
L 319.223788 242.630429 
L 320.30959 230.627046 
L 321.395391 240.883198 
L 322.481192 239.693222 
L 323.566993 240.794187 
L 324.652794 241.08291 
L 325.738595 248.037856 
L 326.824396 246.75273 
L 327.910198 246.984858 
L 328.995999 244.451545 
L 330.0818 244.923106 
L 331.167601 249.448713 
L 332.253402 250.759858 
L 333.339203 249.227804 
L 334.425005 252.226644 
L 335.510806 250.70513 
L 336.596607 256.356686 
L 337.682408 244.882085 
L 338.768209 262.728828 
L 339.85401 248.125108 
L 340.939811 250.841433 
L 342.025613 249.754501 
L 343.111414 249.979999 
L 344.197215 248.516302 
L 345.283016 249.424861 
L 346.368817 250.839684 
L 347.454618 241.141883 
L 348.54042 246.72049 
L 349.626221 260.308445 
L 350.712022 249.659393 
L 351.797823 248.162927 
L 352.883624 258.905585 
L 353.969425 254.459047 
L 355.055227 255.428423 
L 356.141028 266.484267 
L 357.226829 258.316656 
L 358.31263 261.72244 
L 359.398431 259.542919 
L 360.484232 265.644829 
L 361.570033 269.652406 
L 362.655835 263.483496 
L 363.741636 266.677183 
L 364.827437 277.140213 
L 365.913238 262.644986 
L 366.999039 271.541192 
L 368.08484 269.648857 
L 369.170642 263.206747 
L 370.256443 254.347056 
L 371.342244 264.780225 
L 372.428045 257.053767 
L 373.513846 262.230432 
L 374.599647 262.484955 
L 375.685448 255.748451 
L 376.77125 274.082282 
L 377.857051 268.870749 
L 378.942852 257.450735 
L 380.028653 258.140494 
L 381.114454 264.020751 
L 382.200255 261.510641 
L 383.286057 260.174257 
L 384.371858 267.629081 
L 385.457659 258.521678 
L 386.54346 256.81862 
L 387.629261 274.393338 
L 388.715062 264.583588 
L 389.800863 252.963735 
L 390.886665 259.578722 
L 391.972466 263.168539 
L 393.058267 252.602564 
L 394.144068 258.153802 
L 395.229869 249.050265 
L 396.31567 250.333415 
L 397.401472 231.273017 
L 398.487273 240.99715 
L 398.487273 109.041833 
L 398.487273 109.041833 
L 397.401472 53.568 
L 396.31567 92.486037 
L 395.229869 80.343343 
L 394.144068 94.184655 
L 393.058267 108.611039 
L 391.972466 110.864714 
L 390.886665 97.057696 
L 389.800863 110.559799 
L 388.715062 127.052087 
L 387.629261 128.365305 
L 386.54346 121.267724 
L 385.457659 110.973997 
L 384.371858 132.549412 
L 383.286057 134.34996 
L 382.200255 132.158222 
L 381.114454 142.988768 
L 380.028653 135.294194 
L 378.942852 144.614873 
L 377.857051 130.754101 
L 376.77125 137.300419 
L 375.685448 120.159373 
L 374.599647 124.705754 
L 373.513846 120.686107 
L 372.428045 121.197484 
L 371.342244 129.103088 
L 370.256443 118.501495 
L 369.170642 120.058224 
L 368.08484 126.169151 
L 366.999039 147.197652 
L 365.913238 135.270866 
L 364.827437 147.212133 
L 363.741636 149.566806 
L 362.655835 134.466998 
L 361.570033 151.115735 
L 360.484232 144.465017 
L 359.398431 130.661413 
L 358.31263 136.179792 
L 357.226829 123.343917 
L 356.141028 134.764014 
L 355.055227 128.022877 
L 353.969425 151.603286 
L 352.883624 121.818572 
L 351.797823 107.757176 
L 350.712022 113.814827 
L 349.626221 141.296944 
L 348.54042 149.175867 
L 347.454618 109.007819 
L 346.368817 147.670432 
L 345.283016 96.194313 
L 344.197215 166.287273 
L 343.111414 144.987804 
L 342.025613 169.165664 
L 340.939811 166.847199 
L 339.85401 156.424193 
L 338.768209 179.333792 
L 337.682408 166.840542 
L 336.596607 166.161794 
L 335.510806 127.784358 
L 334.425005 121.506483 
L 333.339203 128.297696 
L 332.253402 134.539795 
L 331.167601 130.468506 
L 330.0818 140.94538 
L 328.995999 139.614473 
L 327.910198 139.489582 
L 326.824396 154.160777 
L 325.738595 157.130605 
L 324.652794 153.806539 
L 323.566993 161.309206 
L 322.481192 155.106521 
L 321.395391 154.556336 
L 320.30959 144.9271 
L 319.223788 160.757302 
L 318.137987 171.381152 
L 317.052186 174.70316 
L 315.966385 166.997695 
L 314.880584 153.718581 
L 313.794783 180.430561 
L 312.708981 172.74935 
L 311.62318 169.198619 
L 310.537379 163.866273 
L 309.451578 164.296785 
L 308.365777 154.345303 
L 307.279976 142.842103 
L 306.194175 155.433139 
L 305.108373 165.620795 
L 304.022572 176.607975 
L 302.936771 164.182144 
L 301.85097 152.002215 
L 300.765169 155.647769 
L 299.679368 155.08597 
L 298.593566 174.575337 
L 297.507765 176.485309 
L 296.421964 190.516998 
L 295.336163 191.824388 
L 294.250362 176.708919 
L 293.164561 187.133898 
L 292.07876 185.398689 
L 290.992958 175.3032 
L 289.907157 168.761366 
L 288.821356 200.009069 
L 287.735555 188.317863 
L 286.649754 175.69267 
L 285.563953 186.61029 
L 284.478151 207.441403 
L 283.39235 191.329224 
L 282.306549 186.695548 
L 281.220748 179.682625 
L 280.134947 181.578558 
L 279.049146 200.71068 
L 277.963344 200.925134 
L 276.877543 195.265559 
L 275.791742 159.434211 
L 274.705941 164.789559 
L 273.62014 193.630795 
L 272.534339 194.581719 
L 271.448538 176.566263 
L 270.362736 166.231631 
L 269.276935 183.417096 
L 268.191134 186.877413 
L 267.105333 170.448887 
L 266.019532 163.073938 
L 264.933731 176.881161 
L 263.847929 188.441484 
L 262.762128 189.428874 
L 261.676327 194.974416 
L 260.590526 210.854508 
L 259.504725 190.687112 
L 258.418924 209.111372 
L 257.333123 206.840473 
L 256.247321 200.082902 
L 255.16152 194.295709 
L 254.075719 196.6905 
L 252.989918 187.573616 
L 251.904117 208.03747 
L 250.818316 194.777892 
L 249.732514 198.909165 
L 248.646713 185.70238 
L 247.560912 207.785116 
L 246.475111 207.621701 
L 245.38931 198.930521 
L 244.303509 185.242895 
L 243.217708 200.283734 
L 242.131906 199.574914 
L 241.046105 197.880516 
L 239.960304 215.473445 
L 238.874503 189.215213 
L 237.788702 213.370737 
L 236.702901 211.727584 
L 235.617099 214.761985 
L 234.531298 202.181606 
L 233.445497 184.122408 
L 232.359696 203.599691 
L 231.273895 202.652712 
L 230.188094 202.387718 
L 229.102292 191.014311 
L 228.016491 203.060468 
L 226.93069 197.88636 
L 225.844889 214.520915 
L 224.759088 214.113389 
L 223.673287 194.274849 
L 222.587486 197.016856 
L 221.501684 220.896141 
L 220.415883 228.417488 
L 219.330082 228.540941 
L 218.244281 231.373673 
L 217.15848 212.861235 
L 216.072679 217.994774 
L 214.986877 225.229221 
L 213.901076 230.912538 
L 212.815275 230.375317 
L 211.729474 223.137255 
L 210.643673 234.087311 
L 209.557872 238.339646 
L 208.472071 226.56432 
L 207.386269 226.409843 
L 206.300468 226.808705 
L 205.214667 218.747753 
L 204.128866 219.610725 
L 203.043065 209.651612 
L 201.957264 222.241903 
L 200.871462 220.482596 
L 199.785661 215.847457 
L 198.69986 216.851347 
L 197.614059 221.172377 
L 196.528258 232.505586 
L 195.442457 242.38688 
L 194.356656 218.529335 
L 193.270854 218.069417 
L 192.185053 227.422933 
L 191.099252 218.30127 
L 190.013451 231.68578 
L 188.92765 244.819367 
L 187.841849 242.705357 
L 186.756047 226.786459 
L 185.670246 217.120037 
L 184.584445 216.851767 
L 183.498644 220.234989 
L 182.412843 220.110503 
L 181.327042 221.271676 
L 180.24124 213.92023 
L 179.155439 218.073431 
L 178.069638 218.903688 
L 176.983837 208.053787 
L 175.898036 228.546672 
L 174.812235 223.635318 
L 173.726434 219.275632 
L 172.640632 246.66859 
L 171.554831 221.949995 
L 170.46903 236.718943 
L 169.383229 229.158931 
L 168.297428 233.386547 
L 167.211627 217.211513 
L 166.125825 231.579076 
L 165.040024 239.344889 
L 163.954223 249.169165 
L 162.868422 247.693798 
L 161.782621 246.60777 
L 160.69682 242.797155 
L 159.611019 245.749718 
L 158.525217 250.658644 
L 157.439416 254.770808 
L 156.353615 254.247791 
L 155.267814 261.572164 
L 154.182013 263.508347 
L 153.096212 253.855751 
L 152.01041 260.651932 
L 150.924609 251.128708 
L 149.838808 262.091344 
L 148.753007 254.334095 
L 147.667206 245.296623 
L 146.581405 244.022041 
L 145.495604 248.093755 
L 144.409802 251.206788 
L 143.324001 251.630525 
L 142.2382 252.157762 
L 141.152399 243.713215 
L 140.066598 239.812047 
L 138.980797 250.000258 
L 137.894995 247.04478 
L 136.809194 245.781251 
L 135.723393 245.61945 
L 134.637592 257.906785 
L 133.551791 251.390554 
L 132.46599 254.826245 
L 131.380189 260.912207 
L 130.294387 256.843031 
L 129.208586 259.84359 
L 128.122785 260.291641 
L 127.036984 264.375986 
L 125.951183 267.031236 
L 124.865382 267.372756 
L 123.77958 270.327221 
L 122.693779 268.992642 
L 121.607978 266.011276 
L 120.522177 268.798848 
L 119.436376 270.332555 
L 118.350575 266.12066 
L 117.264773 270.559424 
L 116.178972 273.439647 
L 115.093171 276.437897 
L 114.00737 276.889584 
L 112.921569 275.450803 
L 111.835768 281.337788 
L 110.749967 276.664707 
L 109.664165 276.326158 
L 108.578364 279.102232 
L 107.492563 280.134008 
L 106.406762 281.403628 
L 105.320961 281.982265 
L 104.23516 280.746179 
L 103.149358 283.753864 
L 102.063557 285.332956 
L 100.977756 287.730639 
L 99.891955 291.07167 
L 98.806154 287.20183 
L 97.720353 288.884681 
L 96.634552 286.975974 
L 95.54875 288.930199 
L 94.462949 286.496837 
L 93.377148 290.919588 
L 92.291347 285.088165 
L 91.205546 280.039344 
L 90.119745 280.930497 
L 89.033943 278.511077 
L 87.948142 278.052698 
L 86.862341 277.271118 
L 85.77654 279.44603 
L 84.690739 282.688938 
L 83.604938 282.896298 
L 82.519137 283.556001 
L 81.433335 284.751046 
L 80.347534 283.174332 
L 79.261733 283.003853 
L 78.175932 279.65987 
L 77.090131 279.198763 
L 76.00433 277.442579 
L 74.918528 278.927372 
L 73.832727 275.662788 
z
" style="fill:#0000ff;fill-opacity:0.25;"/>
   </g>
   <g id="matplotlib.axis_1">
    <g id="xtick_1">
     <g id="line2d_1">
      <defs>
       <path d="M 0 0 
L 0 3.5 
" id="me9977bd7d9" style="stroke:#000000;stroke-width:0.8;"/>
      </defs>
      <g>
       <use style="stroke:#000000;stroke-width:0.8;" x="73.832727" xlink:href="#me9977bd7d9" y="307.584"/>
      </g>
     </g>
     <g id="text_1">
      <!-- 0 -->
      <defs>
       <path d="M 31.78125 66.40625 
Q 24.171875 66.40625 20.328125 58.90625 
Q 16.5 51.421875 16.5 36.375 
Q 16.5 21.390625 20.328125 13.890625 
Q 24.171875 6.390625 31.78125 6.390625 
Q 39.453125 6.390625 43.28125 13.890625 
Q 47.125 21.390625 47.125 36.375 
Q 47.125 51.421875 43.28125 58.90625 
Q 39.453125 66.40625 31.78125 66.40625 
z
M 31.78125 74.21875 
Q 44.046875 74.21875 50.515625 64.515625 
Q 56.984375 54.828125 56.984375 36.375 
Q 56.984375 17.96875 50.515625 8.265625 
Q 44.046875 -1.421875 31.78125 -1.421875 
Q 19.53125 -1.421875 13.0625 8.265625 
Q 6.59375 17.96875 6.59375 36.375 
Q 6.59375 54.828125 13.0625 64.515625 
Q 19.53125 74.21875 31.78125 74.21875 
z
" id="DejaVuSans-48"/>
      </defs>
      <g transform="translate(70.651477 322.182437)scale(0.1 -0.1)">
       <use xlink:href="#DejaVuSans-48"/>
      </g>
     </g>
    </g>
    <g id="xtick_2">
     <g id="line2d_2">
      <g>
       <use style="stroke:#000000;stroke-width:0.8;" x="128.122785" xlink:href="#me9977bd7d9" y="307.584"/>
      </g>
     </g>
     <g id="text_2">
      <!-- 50 -->
      <defs>
       <path d="M 10.796875 72.90625 
L 49.515625 72.90625 
L 49.515625 64.59375 
L 19.828125 64.59375 
L 19.828125 46.734375 
Q 21.96875 47.46875 24.109375 47.828125 
Q 26.265625 48.1875 28.421875 48.1875 
Q 40.625 48.1875 47.75 41.5 
Q 54.890625 34.8125 54.890625 23.390625 
Q 54.890625 11.625 47.5625 5.09375 
Q 40.234375 -1.421875 26.90625 -1.421875 
Q 22.3125 -1.421875 17.546875 -0.640625 
Q 12.796875 0.140625 7.71875 1.703125 
L 7.71875 11.625 
Q 12.109375 9.234375 16.796875 8.0625 
Q 21.484375 6.890625 26.703125 6.890625 
Q 35.15625 6.890625 40.078125 11.328125 
Q 45.015625 15.765625 45.015625 23.390625 
Q 45.015625 31 40.078125 35.4375 
Q 35.15625 39.890625 26.703125 39.890625 
Q 22.75 39.890625 18.8125 39.015625 
Q 14.890625 38.140625 10.796875 36.28125 
z
" id="DejaVuSans-53"/>
      </defs>
      <g transform="translate(121.760285 322.182437)scale(0.1 -0.1)">
       <use xlink:href="#DejaVuSans-53"/>
       <use x="63.623047" xlink:href="#DejaVuSans-48"/>
      </g>
     </g>
    </g>
    <g id="xtick_3">
     <g id="line2d_3">
      <g>
       <use style="stroke:#000000;stroke-width:0.8;" x="182.412843" xlink:href="#me9977bd7d9" y="307.584"/>
      </g>
     </g>
     <g id="text_3">
      <!-- 100 -->
      <defs>
       <path d="M 12.40625 8.296875 
L 28.515625 8.296875 
L 28.515625 63.921875 
L 10.984375 60.40625 
L 10.984375 69.390625 
L 28.421875 72.90625 
L 38.28125 72.90625 
L 38.28125 8.296875 
L 54.390625 8.296875 
L 54.390625 0 
L 12.40625 0 
z
" id="DejaVuSans-49"/>
      </defs>
      <g transform="translate(172.869093 322.182437)scale(0.1 -0.1)">
       <use xlink:href="#DejaVuSans-49"/>
       <use x="63.623047" xlink:href="#DejaVuSans-48"/>
       <use x="127.246094" xlink:href="#DejaVuSans-48"/>
      </g>
     </g>
    </g>
    <g id="xtick_4">
     <g id="line2d_4">
      <g>
       <use style="stroke:#000000;stroke-width:0.8;" x="236.702901" xlink:href="#me9977bd7d9" y="307.584"/>
      </g>
     </g>
     <g id="text_4">
      <!-- 150 -->
      <g transform="translate(227.159151 322.182437)scale(0.1 -0.1)">
       <use xlink:href="#DejaVuSans-49"/>
       <use x="63.623047" xlink:href="#DejaVuSans-53"/>
       <use x="127.246094" xlink:href="#DejaVuSans-48"/>
      </g>
     </g>
    </g>
    <g id="xtick_5">
     <g id="line2d_5">
      <g>
       <use style="stroke:#000000;stroke-width:0.8;" x="290.992958" xlink:href="#me9977bd7d9" y="307.584"/>
      </g>
     </g>
     <g id="text_5">
      <!-- 200 -->
      <defs>
       <path d="M 19.1875 8.296875 
L 53.609375 8.296875 
L 53.609375 0 
L 7.328125 0 
L 7.328125 8.296875 
Q 12.9375 14.109375 22.625 23.890625 
Q 32.328125 33.6875 34.8125 36.53125 
Q 39.546875 41.84375 41.421875 45.53125 
Q 43.3125 49.21875 43.3125 52.78125 
Q 43.3125 58.59375 39.234375 62.25 
Q 35.15625 65.921875 28.609375 65.921875 
Q 23.96875 65.921875 18.8125 64.3125 
Q 13.671875 62.703125 7.8125 59.421875 
L 7.8125 69.390625 
Q 13.765625 71.78125 18.9375 73 
Q 24.125 74.21875 28.421875 74.21875 
Q 39.75 74.21875 46.484375 68.546875 
Q 53.21875 62.890625 53.21875 53.421875 
Q 53.21875 48.921875 51.53125 44.890625 
Q 49.859375 40.875 45.40625 35.40625 
Q 44.1875 33.984375 37.640625 27.21875 
Q 31.109375 20.453125 19.1875 8.296875 
z
" id="DejaVuSans-50"/>
      </defs>
      <g transform="translate(281.449208 322.182437)scale(0.1 -0.1)">
       <use xlink:href="#DejaVuSans-50"/>
       <use x="63.623047" xlink:href="#DejaVuSans-48"/>
       <use x="127.246094" xlink:href="#DejaVuSans-48"/>
      </g>
     </g>
    </g>
    <g id="xtick_6">
     <g id="line2d_6">
      <g>
       <use style="stroke:#000000;stroke-width:0.8;" x="345.283016" xlink:href="#me9977bd7d9" y="307.584"/>
      </g>
     </g>
     <g id="text_6">
      <!-- 250 -->
      <g transform="translate(335.739266 322.182437)scale(0.1 -0.1)">
       <use xlink:href="#DejaVuSans-50"/>
       <use x="63.623047" xlink:href="#DejaVuSans-53"/>
       <use x="127.246094" xlink:href="#DejaVuSans-48"/>
      </g>
     </g>
    </g>
    <g id="xtick_7">
     <g id="line2d_7">
      <g>
       <use style="stroke:#000000;stroke-width:0.8;" x="399.573074" xlink:href="#me9977bd7d9" y="307.584"/>
      </g>
     </g>
     <g id="text_7">
      <!-- 300 -->
      <defs>
       <path d="M 40.578125 39.3125 
Q 47.65625 37.796875 51.625 33 
Q 55.609375 28.21875 55.609375 21.1875 
Q 55.609375 10.40625 48.1875 4.484375 
Q 40.765625 -1.421875 27.09375 -1.421875 
Q 22.515625 -1.421875 17.65625 -0.515625 
Q 12.796875 0.390625 7.625 2.203125 
L 7.625 11.71875 
Q 11.71875 9.328125 16.59375 8.109375 
Q 21.484375 6.890625 26.8125 6.890625 
Q 36.078125 6.890625 40.9375 10.546875 
Q 45.796875 14.203125 45.796875 21.1875 
Q 45.796875 27.640625 41.28125 31.265625 
Q 36.765625 34.90625 28.71875 34.90625 
L 20.21875 34.90625 
L 20.21875 43.015625 
L 29.109375 43.015625 
Q 36.375 43.015625 40.234375 45.921875 
Q 44.09375 48.828125 44.09375 54.296875 
Q 44.09375 59.90625 40.109375 62.90625 
Q 36.140625 65.921875 28.71875 65.921875 
Q 24.65625 65.921875 20.015625 65.03125 
Q 15.375 64.15625 9.8125 62.3125 
L 9.8125 71.09375 
Q 15.4375 72.65625 20.34375 73.4375 
Q 25.25 74.21875 29.59375 74.21875 
Q 40.828125 74.21875 47.359375 69.109375 
Q 53.90625 64.015625 53.90625 55.328125 
Q 53.90625 49.265625 50.4375 45.09375 
Q 46.96875 40.921875 40.578125 39.3125 
z
" id="DejaVuSans-51"/>
      </defs>
      <g transform="translate(390.029324 322.182437)scale(0.1 -0.1)">
       <use xlink:href="#DejaVuSans-51"/>
       <use x="63.623047" xlink:href="#DejaVuSans-48"/>
       <use x="127.246094" xlink:href="#DejaVuSans-48"/>
      </g>
     </g>
    </g>
   </g>
   <g id="matplotlib.axis_2">
    <g id="ytick_1">
     <g id="line2d_8">
      <defs>
       <path d="M 0 0 
L -3.5 0 
" id="mc44045e297" style="stroke:#000000;stroke-width:0.8;"/>
      </defs>
      <g>
       <use style="stroke:#000000;stroke-width:0.8;" x="57.6" xlink:href="#mc44045e297" y="271.400565"/>
      </g>
     </g>
     <g id="text_8">
      <!-- 2 -->
      <g transform="translate(44.2375 275.199784)scale(0.1 -0.1)">
       <use xlink:href="#DejaVuSans-50"/>
      </g>
     </g>
    </g>
    <g id="ytick_2">
     <g id="line2d_9">
      <g>
       <use style="stroke:#000000;stroke-width:0.8;" x="57.6" xlink:href="#mc44045e297" y="232.077679"/>
      </g>
     </g>
     <g id="text_9">
      <!-- 4 -->
      <defs>
       <path d="M 37.796875 64.3125 
L 12.890625 25.390625 
L 37.796875 25.390625 
z
M 35.203125 72.90625 
L 47.609375 72.90625 
L 47.609375 25.390625 
L 58.015625 25.390625 
L 58.015625 17.1875 
L 47.609375 17.1875 
L 47.609375 0 
L 37.796875 0 
L 37.796875 17.1875 
L 4.890625 17.1875 
L 4.890625 26.703125 
z
" id="DejaVuSans-52"/>
      </defs>
      <g transform="translate(44.2375 235.876898)scale(0.1 -0.1)">
       <use xlink:href="#DejaVuSans-52"/>
      </g>
     </g>
    </g>
    <g id="ytick_3">
     <g id="line2d_10">
      <g>
       <use style="stroke:#000000;stroke-width:0.8;" x="57.6" xlink:href="#mc44045e297" y="192.754793"/>
      </g>
     </g>
     <g id="text_10">
      <!-- 6 -->
      <defs>
       <path d="M 33.015625 40.375 
Q 26.375 40.375 22.484375 35.828125 
Q 18.609375 31.296875 18.609375 23.390625 
Q 18.609375 15.53125 22.484375 10.953125 
Q 26.375 6.390625 33.015625 6.390625 
Q 39.65625 6.390625 43.53125 10.953125 
Q 47.40625 15.53125 47.40625 23.390625 
Q 47.40625 31.296875 43.53125 35.828125 
Q 39.65625 40.375 33.015625 40.375 
z
M 52.59375 71.296875 
L 52.59375 62.3125 
Q 48.875 64.0625 45.09375 64.984375 
Q 41.3125 65.921875 37.59375 65.921875 
Q 27.828125 65.921875 22.671875 59.328125 
Q 17.53125 52.734375 16.796875 39.40625 
Q 19.671875 43.65625 24.015625 45.921875 
Q 28.375 48.1875 33.59375 48.1875 
Q 44.578125 48.1875 50.953125 41.515625 
Q 57.328125 34.859375 57.328125 23.390625 
Q 57.328125 12.15625 50.6875 5.359375 
Q 44.046875 -1.421875 33.015625 -1.421875 
Q 20.359375 -1.421875 13.671875 8.265625 
Q 6.984375 17.96875 6.984375 36.375 
Q 6.984375 53.65625 15.1875 63.9375 
Q 23.390625 74.21875 37.203125 74.21875 
Q 40.921875 74.21875 44.703125 73.484375 
Q 48.484375 72.75 52.59375 71.296875 
z
" id="DejaVuSans-54"/>
      </defs>
      <g transform="translate(44.2375 196.554012)scale(0.1 -0.1)">
       <use xlink:href="#DejaVuSans-54"/>
      </g>
     </g>
    </g>
    <g id="ytick_4">
     <g id="line2d_11">
      <g>
       <use style="stroke:#000000;stroke-width:0.8;" x="57.6" xlink:href="#mc44045e297" y="153.431907"/>
      </g>
     </g>
     <g id="text_11">
      <!-- 8 -->
      <defs>
       <path d="M 31.78125 34.625 
Q 24.75 34.625 20.71875 30.859375 
Q 16.703125 27.09375 16.703125 20.515625 
Q 16.703125 13.921875 20.71875 10.15625 
Q 24.75 6.390625 31.78125 6.390625 
Q 38.8125 6.390625 42.859375 10.171875 
Q 46.921875 13.96875 46.921875 20.515625 
Q 46.921875 27.09375 42.890625 30.859375 
Q 38.875 34.625 31.78125 34.625 
z
M 21.921875 38.8125 
Q 15.578125 40.375 12.03125 44.71875 
Q 8.5 49.078125 8.5 55.328125 
Q 8.5 64.0625 14.71875 69.140625 
Q 20.953125 74.21875 31.78125 74.21875 
Q 42.671875 74.21875 48.875 69.140625 
Q 55.078125 64.0625 55.078125 55.328125 
Q 55.078125 49.078125 51.53125 44.71875 
Q 48 40.375 41.703125 38.8125 
Q 48.828125 37.15625 52.796875 32.3125 
Q 56.78125 27.484375 56.78125 20.515625 
Q 56.78125 9.90625 50.3125 4.234375 
Q 43.84375 -1.421875 31.78125 -1.421875 
Q 19.734375 -1.421875 13.25 4.234375 
Q 6.78125 9.90625 6.78125 20.515625 
Q 6.78125 27.484375 10.78125 32.3125 
Q 14.796875 37.15625 21.921875 38.8125 
z
M 18.3125 54.390625 
Q 18.3125 48.734375 21.84375 45.5625 
Q 25.390625 42.390625 31.78125 42.390625 
Q 38.140625 42.390625 41.71875 45.5625 
Q 45.3125 48.734375 45.3125 54.390625 
Q 45.3125 60.0625 41.71875 63.234375 
Q 38.140625 66.40625 31.78125 66.40625 
Q 25.390625 66.40625 21.84375 63.234375 
Q 18.3125 60.0625 18.3125 54.390625 
z
" id="DejaVuSans-56"/>
      </defs>
      <g transform="translate(44.2375 157.231126)scale(0.1 -0.1)">
       <use xlink:href="#DejaVuSans-56"/>
      </g>
     </g>
    </g>
    <g id="ytick_5">
     <g id="line2d_12">
      <g>
       <use style="stroke:#000000;stroke-width:0.8;" x="57.6" xlink:href="#mc44045e297" y="114.109021"/>
      </g>
     </g>
     <g id="text_12">
      <!-- 10 -->
      <g transform="translate(37.875 117.90824)scale(0.1 -0.1)">
       <use xlink:href="#DejaVuSans-49"/>
       <use x="63.623047" xlink:href="#DejaVuSans-48"/>
      </g>
     </g>
    </g>
    <g id="ytick_6">
     <g id="line2d_13">
      <g>
       <use style="stroke:#000000;stroke-width:0.8;" x="57.6" xlink:href="#mc44045e297" y="74.786135"/>
      </g>
     </g>
     <g id="text_13">
      <!-- 12 -->
      <g transform="translate(37.875 78.585354)scale(0.1 -0.1)">
       <use xlink:href="#DejaVuSans-49"/>
       <use x="63.623047" xlink:href="#DejaVuSans-50"/>
      </g>
     </g>
    </g>
    <g id="text_14">
     <!-- Distance -->
     <defs>
      <path d="M 19.671875 64.796875 
L 19.671875 8.109375 
L 31.59375 8.109375 
Q 46.6875 8.109375 53.6875 14.9375 
Q 60.6875 21.78125 60.6875 36.53125 
Q 60.6875 51.171875 53.6875 57.984375 
Q 46.6875 64.796875 31.59375 64.796875 
z
M 9.8125 72.90625 
L 30.078125 72.90625 
Q 51.265625 72.90625 61.171875 64.09375 
Q 71.09375 55.28125 71.09375 36.53125 
Q 71.09375 17.671875 61.125 8.828125 
Q 51.171875 0 30.078125 0 
L 9.8125 0 
z
" id="DejaVuSans-68"/>
      <path d="M 9.421875 54.6875 
L 18.40625 54.6875 
L 18.40625 0 
L 9.421875 0 
z
M 9.421875 75.984375 
L 18.40625 75.984375 
L 18.40625 64.59375 
L 9.421875 64.59375 
z
" id="DejaVuSans-105"/>
      <path d="M 44.28125 53.078125 
L 44.28125 44.578125 
Q 40.484375 46.53125 36.375 47.5 
Q 32.28125 48.484375 27.875 48.484375 
Q 21.1875 48.484375 17.84375 46.4375 
Q 14.5 44.390625 14.5 40.28125 
Q 14.5 37.15625 16.890625 35.375 
Q 19.28125 33.59375 26.515625 31.984375 
L 29.59375 31.296875 
Q 39.15625 29.25 43.1875 25.515625 
Q 47.21875 21.78125 47.21875 15.09375 
Q 47.21875 7.46875 41.1875 3.015625 
Q 35.15625 -1.421875 24.609375 -1.421875 
Q 20.21875 -1.421875 15.453125 -0.5625 
Q 10.6875 0.296875 5.421875 2 
L 5.421875 11.28125 
Q 10.40625 8.6875 15.234375 7.390625 
Q 20.0625 6.109375 24.8125 6.109375 
Q 31.15625 6.109375 34.5625 8.28125 
Q 37.984375 10.453125 37.984375 14.40625 
Q 37.984375 18.0625 35.515625 20.015625 
Q 33.0625 21.96875 24.703125 23.78125 
L 21.578125 24.515625 
Q 13.234375 26.265625 9.515625 29.90625 
Q 5.8125 33.546875 5.8125 39.890625 
Q 5.8125 47.609375 11.28125 51.796875 
Q 16.75 56 26.8125 56 
Q 31.78125 56 36.171875 55.265625 
Q 40.578125 54.546875 44.28125 53.078125 
z
" id="DejaVuSans-115"/>
      <path d="M 18.3125 70.21875 
L 18.3125 54.6875 
L 36.8125 54.6875 
L 36.8125 47.703125 
L 18.3125 47.703125 
L 18.3125 18.015625 
Q 18.3125 11.328125 20.140625 9.421875 
Q 21.96875 7.515625 27.59375 7.515625 
L 36.8125 7.515625 
L 36.8125 0 
L 27.59375 0 
Q 17.1875 0 13.234375 3.875 
Q 9.28125 7.765625 9.28125 18.015625 
L 9.28125 47.703125 
L 2.6875 47.703125 
L 2.6875 54.6875 
L 9.28125 54.6875 
L 9.28125 70.21875 
z
" id="DejaVuSans-116"/>
      <path d="M 34.28125 27.484375 
Q 23.390625 27.484375 19.1875 25 
Q 14.984375 22.515625 14.984375 16.5 
Q 14.984375 11.71875 18.140625 8.90625 
Q 21.296875 6.109375 26.703125 6.109375 
Q 34.1875 6.109375 38.703125 11.40625 
Q 43.21875 16.703125 43.21875 25.484375 
L 43.21875 27.484375 
z
M 52.203125 31.203125 
L 52.203125 0 
L 43.21875 0 
L 43.21875 8.296875 
Q 40.140625 3.328125 35.546875 0.953125 
Q 30.953125 -1.421875 24.3125 -1.421875 
Q 15.921875 -1.421875 10.953125 3.296875 
Q 6 8.015625 6 15.921875 
Q 6 25.140625 12.171875 29.828125 
Q 18.359375 34.515625 30.609375 34.515625 
L 43.21875 34.515625 
L 43.21875 35.40625 
Q 43.21875 41.609375 39.140625 45 
Q 35.0625 48.390625 27.6875 48.390625 
Q 23 48.390625 18.546875 47.265625 
Q 14.109375 46.140625 10.015625 43.890625 
L 10.015625 52.203125 
Q 14.9375 54.109375 19.578125 55.046875 
Q 24.21875 56 28.609375 56 
Q 40.484375 56 46.34375 49.84375 
Q 52.203125 43.703125 52.203125 31.203125 
z
" id="DejaVuSans-97"/>
      <path d="M 54.890625 33.015625 
L 54.890625 0 
L 45.90625 0 
L 45.90625 32.71875 
Q 45.90625 40.484375 42.875 44.328125 
Q 39.84375 48.1875 33.796875 48.1875 
Q 26.515625 48.1875 22.3125 43.546875 
Q 18.109375 38.921875 18.109375 30.90625 
L 18.109375 0 
L 9.078125 0 
L 9.078125 54.6875 
L 18.109375 54.6875 
L 18.109375 46.1875 
Q 21.34375 51.125 25.703125 53.5625 
Q 30.078125 56 35.796875 56 
Q 45.21875 56 50.046875 50.171875 
Q 54.890625 44.34375 54.890625 33.015625 
z
" id="DejaVuSans-110"/>
      <path d="M 48.78125 52.59375 
L 48.78125 44.1875 
Q 44.96875 46.296875 41.140625 47.34375 
Q 37.3125 48.390625 33.40625 48.390625 
Q 24.65625 48.390625 19.8125 42.84375 
Q 14.984375 37.3125 14.984375 27.296875 
Q 14.984375 17.28125 19.8125 11.734375 
Q 24.65625 6.203125 33.40625 6.203125 
Q 37.3125 6.203125 41.140625 7.25 
Q 44.96875 8.296875 48.78125 10.40625 
L 48.78125 2.09375 
Q 45.015625 0.34375 40.984375 -0.53125 
Q 36.96875 -1.421875 32.421875 -1.421875 
Q 20.0625 -1.421875 12.78125 6.34375 
Q 5.515625 14.109375 5.515625 27.296875 
Q 5.515625 40.671875 12.859375 48.328125 
Q 20.21875 56 33.015625 56 
Q 37.15625 56 41.109375 55.140625 
Q 45.0625 54.296875 48.78125 52.59375 
z
" id="DejaVuSans-99"/>
      <path d="M 56.203125 29.59375 
L 56.203125 25.203125 
L 14.890625 25.203125 
Q 15.484375 15.921875 20.484375 11.0625 
Q 25.484375 6.203125 34.421875 6.203125 
Q 39.59375 6.203125 44.453125 7.46875 
Q 49.3125 8.734375 54.109375 11.28125 
L 54.109375 2.78125 
Q 49.265625 0.734375 44.1875 -0.34375 
Q 39.109375 -1.421875 33.890625 -1.421875 
Q 20.796875 -1.421875 13.15625 6.1875 
Q 5.515625 13.8125 5.515625 26.8125 
Q 5.515625 40.234375 12.765625 48.109375 
Q 20.015625 56 32.328125 56 
Q 43.359375 56 49.78125 48.890625 
Q 56.203125 41.796875 56.203125 29.59375 
z
M 47.21875 32.234375 
Q 47.125 39.59375 43.09375 43.984375 
Q 39.0625 48.390625 32.421875 48.390625 
Q 24.90625 48.390625 20.390625 44.140625 
Q 15.875 39.890625 15.1875 32.171875 
z
" id="DejaVuSans-101"/>
     </defs>
     <g transform="translate(31.795312 196.3905)rotate(-90)scale(0.1 -0.1)">
      <use xlink:href="#DejaVuSans-68"/>
      <use x="77.001953" xlink:href="#DejaVuSans-105"/>
      <use x="104.785156" xlink:href="#DejaVuSans-115"/>
      <use x="156.884766" xlink:href="#DejaVuSans-116"/>
      <use x="196.09375" xlink:href="#DejaVuSans-97"/>
      <use x="257.373047" xlink:href="#DejaVuSans-110"/>
      <use x="320.751953" xlink:href="#DejaVuSans-99"/>
      <use x="375.732422" xlink:href="#DejaVuSans-101"/>
     </g>
    </g>
   </g>
   <g id="line2d_14">
    <path clip-path="url(#pf203e8071d)" d="M 73.832727 276.136359 
L 74.918528 279.788162 
L 76.00433 278.436213 
L 77.090131 280.950998 
L 78.175932 282.092634 
L 79.261733 285.033256 
L 80.347534 284.652835 
L 81.433335 286.300798 
L 82.519137 284.297292 
L 83.604938 284.031102 
L 84.690739 283.330316 
L 85.77654 280.71162 
L 86.862341 279.319213 
L 87.948142 279.60551 
L 89.033943 281.503345 
L 90.119745 282.657857 
L 91.205546 282.504771 
L 92.291347 286.805965 
L 93.377148 293.14514 
L 94.462949 287.843775 
L 95.54875 290.255987 
L 96.634552 289.293117 
L 97.720353 292.18634 
L 98.806154 290.868345 
L 99.891955 292.968503 
L 100.977756 288.82481 
L 102.063557 286.935535 
L 103.149358 285.770022 
L 104.23516 283.025064 
L 105.320961 283.743075 
L 106.406762 283.160307 
L 107.492563 281.771493 
L 108.578364 281.885802 
L 109.664165 278.158022 
L 111.835768 283.49182 
L 112.921569 278.656981 
L 114.00737 279.501655 
L 115.093171 278.600932 
L 116.178972 275.696662 
L 117.264773 275.526962 
L 118.350575 271.77689 
L 119.436376 275.45177 
L 120.522177 274.240934 
L 121.607978 274.055142 
L 122.693779 277.338187 
L 123.77958 275.920179 
L 124.865382 273.489356 
L 127.036984 274.14052 
L 128.122785 268.56347 
L 129.208586 267.323704 
L 130.294387 265.275974 
L 131.380189 268.824728 
L 132.46599 266.671035 
L 133.551791 263.325136 
L 134.637592 270.233581 
L 135.723393 262.132485 
L 136.809194 261.744868 
L 137.894995 262.649822 
L 138.980797 263.338667 
L 140.066598 257.980085 
L 141.152399 258.969893 
L 142.2382 262.874902 
L 143.324001 262.935835 
L 145.495604 261.336849 
L 146.581405 258.750163 
L 147.667206 260.76188 
L 149.838808 274.16606 
L 150.924609 267.673999 
L 152.01041 271.998889 
L 153.096212 269.751935 
L 154.182013 274.961164 
L 155.267814 275.568459 
L 156.353615 270.553598 
L 157.439416 270.374506 
L 158.525217 262.880426 
L 159.611019 260.55444 
L 160.69682 261.232246 
L 161.782621 267.530922 
L 162.868422 265.23892 
L 163.954223 267.431686 
L 165.040024 261.94043 
L 166.125825 259.936805 
L 167.211627 250.690072 
L 168.297428 260.03643 
L 169.383229 255.195389 
L 170.46903 261.890154 
L 171.554831 246.995544 
L 172.640632 261.590415 
L 173.726434 250.326753 
L 174.812235 250.038446 
L 175.898036 252.461034 
L 176.983837 239.045962 
L 178.069638 247.306531 
L 180.24124 239.40094 
L 181.327042 245.203425 
L 182.412843 245.004522 
L 183.498644 242.327985 
L 184.584445 243.42634 
L 186.756047 250.644957 
L 187.841849 261.609331 
L 188.92765 262.940839 
L 190.013451 256.260801 
L 191.099252 245.395488 
L 192.185053 243.08405 
L 193.270854 243.713777 
L 194.356656 246.856704 
L 195.442457 263.120301 
L 196.528258 253.071881 
L 197.614059 245.822412 
L 198.69986 242.851407 
L 199.785661 241.09725 
L 200.871462 246.214689 
L 201.957264 249.628763 
L 203.043065 239.0019 
L 205.214667 246.719892 
L 207.386269 247.457265 
L 208.472071 250.452791 
L 209.557872 257.903551 
L 210.643673 253.888628 
L 211.729474 248.822075 
L 212.815275 254.659018 
L 213.901076 247.452749 
L 214.986877 244.414545 
L 216.072679 245.292091 
L 217.15848 239.300073 
L 218.244281 252.486394 
L 219.330082 249.681513 
L 220.415883 248.98903 
L 221.501684 245.358111 
L 222.587486 230.043621 
L 223.673287 226.082392 
L 224.759088 240.642835 
L 225.844889 240.908838 
L 226.93069 234.077371 
L 229.102292 222.098229 
L 230.188094 235.842938 
L 231.273895 233.907545 
L 232.359696 233.76505 
L 233.445497 221.609907 
L 234.531298 229.562446 
L 235.617099 239.630066 
L 236.702901 241.114548 
L 237.788702 238.298429 
L 238.874503 224.018048 
L 239.960304 237.114224 
L 241.046105 227.238121 
L 243.217708 229.572301 
L 244.303509 222.260079 
L 245.38931 224.843072 
L 246.475111 234.808486 
L 247.560912 238.046876 
L 248.646713 226.865 
L 249.732514 222.23556 
L 250.818316 224.454594 
L 251.904117 233.684742 
L 252.989918 221.621236 
L 254.075719 229.901304 
L 255.16152 225.730692 
L 256.247321 223.448468 
L 257.333123 234.237877 
L 258.418924 231.516689 
L 259.504725 223.119542 
L 260.590526 232.020114 
L 261.676327 223.352935 
L 262.762128 213.677492 
L 263.847929 215.76506 
L 264.933731 213.293191 
L 266.019532 207.537813 
L 267.105333 207.494161 
L 268.191134 220.330925 
L 269.276935 219.351571 
L 270.362736 209.995604 
L 271.448538 220.946711 
L 272.534339 224.092104 
L 273.62014 223.037608 
L 274.705941 207.105855 
L 275.791742 209.073815 
L 276.877543 231.47966 
L 277.963344 234.240791 
L 279.049146 231.40881 
L 280.134947 222.289198 
L 281.220748 220.459899 
L 282.306549 220.449561 
L 283.39235 228.086626 
L 284.478151 238.065554 
L 285.563953 227.688669 
L 286.649754 219.802594 
L 287.735555 226.537741 
L 288.821356 232.022586 
L 289.907157 213.091839 
L 290.992958 214.171632 
L 292.07876 224.867797 
L 293.164561 222.544515 
L 294.250362 209.500761 
L 295.336163 220.82851 
L 296.421964 224.33984 
L 297.507765 217.874822 
L 298.593566 213.175182 
L 299.679368 203.132792 
L 300.765169 204.432231 
L 301.85097 203.038693 
L 302.936771 206.882311 
L 304.022572 217.193596 
L 305.108373 205.715527 
L 306.194175 202.842564 
L 307.279976 190.820778 
L 308.365777 199.829723 
L 309.451578 207.218515 
L 310.537379 207.128634 
L 311.62318 212.455937 
L 312.708981 220.206018 
L 313.794783 217.35748 
L 314.880584 201.391848 
L 315.966385 196.950422 
L 317.052186 204.853699 
L 318.137987 202.373035 
L 319.223788 201.693865 
L 320.30959 187.777073 
L 321.395391 197.719767 
L 322.481192 197.399871 
L 323.566993 201.051697 
L 324.652794 197.444725 
L 325.738595 202.584231 
L 326.824396 200.456754 
L 327.910198 193.23722 
L 328.995999 192.033009 
L 330.0818 192.934243 
L 331.167601 189.95861 
L 332.253402 192.649827 
L 333.339203 188.76275 
L 334.425005 186.866563 
L 335.510806 189.244744 
L 336.596607 211.25924 
L 337.682408 205.861313 
L 338.768209 221.03131 
L 339.85401 202.274651 
L 340.939811 208.844316 
L 342.025613 209.460082 
L 343.111414 197.483902 
L 344.197215 207.401787 
L 345.283016 172.809587 
L 346.368817 199.255058 
L 347.454618 175.074851 
L 348.54042 197.948179 
L 349.626221 200.802695 
L 350.712022 181.73711 
L 351.797823 177.960051 
L 353.969425 203.031167 
L 355.055227 191.72565 
L 356.141028 200.624141 
L 357.226829 190.830287 
L 358.31263 198.951116 
L 359.398431 195.102166 
L 360.484232 205.054923 
L 361.570033 210.384071 
L 362.655835 198.975247 
L 363.741636 208.121994 
L 364.827437 212.176173 
L 365.913238 198.957926 
L 366.999039 209.369422 
L 368.08484 197.909004 
L 369.170642 191.632485 
L 370.256443 186.424275 
L 371.342244 196.941657 
L 372.428045 189.125625 
L 374.599647 193.595355 
L 375.685448 187.953912 
L 376.77125 205.69135 
L 377.857051 199.812425 
L 378.942852 201.032804 
L 380.028653 196.717344 
L 381.114454 203.504759 
L 382.200255 196.834431 
L 383.286057 197.262108 
L 384.371858 200.089247 
L 385.457659 184.747838 
L 386.54346 189.043172 
L 387.629261 201.379321 
L 388.715062 195.817838 
L 389.800863 181.761767 
L 390.886665 178.318209 
L 391.972466 187.016626 
L 393.058267 180.606801 
L 394.144068 176.169229 
L 395.229869 164.696804 
L 396.31567 171.409726 
L 397.401472 142.420508 
L 398.487273 175.019491 
L 398.487273 175.019491 
" style="fill:none;stroke:#0000ff;stroke-linecap:square;stroke-width:1.5;"/>
   </g>
   <g id="patch_3">
    <path d="M 57.6 307.584 
L 57.6 41.472 
" style="fill:none;stroke:#000000;stroke-linecap:square;stroke-linejoin:miter;stroke-width:0.8;"/>
   </g>
   <g id="patch_4">
    <path d="M 414.72 307.584 
L 414.72 41.472 
" style="fill:none;stroke:#000000;stroke-linecap:square;stroke-linejoin:miter;stroke-width:0.8;"/>
   </g>
   <g id="patch_5">
    <path d="M 57.6 307.584 
L 414.72 307.584 
" style="fill:none;stroke:#000000;stroke-linecap:square;stroke-linejoin:miter;stroke-width:0.8;"/>
   </g>
   <g id="patch_6">
    <path d="M 57.6 41.472 
L 414.72 41.472 
" style="fill:none;stroke:#000000;stroke-linecap:square;stroke-linejoin:miter;stroke-width:0.8;"/>
   </g>
  </g>
  <g id="axes_2">
   <g id="PolyCollection_2">
    <path clip-path="url(#pf203e8071d)" d="M 73.832727 193.359507 
L 73.832727 218.419762 
L 74.918528 218.538747 
L 76.00433 219.727686 
L 77.090131 220.052331 
L 78.175932 220.322986 
L 79.261733 220.449561 
L 80.347534 220.877559 
L 81.433335 221.43306 
L 82.519137 220.649915 
L 83.604938 220.415158 
L 84.690739 220.667799 
L 85.77654 221.056909 
L 86.862341 222.238353 
L 87.948142 221.745397 
L 89.033943 222.818627 
L 90.119745 220.93387 
L 91.205546 221.846995 
L 92.291347 222.159997 
L 93.377148 222.892267 
L 94.462949 222.577904 
L 95.54875 222.451528 
L 96.634552 223.548969 
L 97.720353 222.610163 
L 98.806154 223.119793 
L 99.891955 222.694946 
L 100.977756 222.15434 
L 102.063557 222.116055 
L 103.149358 222.19714 
L 104.23516 223.856904 
L 105.320961 222.877823 
L 106.406762 221.631809 
L 107.492563 220.963394 
L 108.578364 221.164399 
L 109.664165 222.426432 
L 110.749967 221.179997 
L 111.835768 221.004773 
L 112.921569 221.757954 
L 114.00737 221.914785 
L 115.093171 221.694009 
L 116.178972 223.147692 
L 117.264773 224.389024 
L 118.350575 226.405803 
L 119.436376 224.953362 
L 120.522177 226.610571 
L 121.607978 226.963909 
L 122.693779 226.618903 
L 123.77958 227.709602 
L 124.865382 229.387339 
L 125.951183 230.58924 
L 127.036984 230.186833 
L 128.122785 229.652404 
L 129.208586 231.05446 
L 130.294387 230.299749 
L 131.380189 228.223874 
L 132.46599 229.999215 
L 133.551791 232.190927 
L 134.637592 231.479253 
L 135.723393 234.383745 
L 136.809194 234.612888 
L 137.894995 234.36098 
L 138.980797 234.593344 
L 140.066598 236.572532 
L 141.152399 237.603505 
L 142.2382 238.106897 
L 143.324001 237.659784 
L 144.409802 238.106101 
L 145.495604 239.424642 
L 146.581405 240.630526 
L 147.667206 239.06198 
L 148.753007 237.353678 
L 149.838808 235.292692 
L 150.924609 235.459959 
L 152.01041 234.032275 
L 153.096212 237.3595 
L 154.182013 236.680716 
L 155.267814 236.353663 
L 156.353615 238.13951 
L 157.439416 239.391947 
L 158.525217 237.947604 
L 159.611019 239.02009 
L 160.69682 240.788172 
L 161.782621 240.878672 
L 162.868422 243.364136 
L 163.954223 243.598392 
L 165.040024 247.119752 
L 166.125825 246.154403 
L 167.211627 250.570694 
L 168.297428 252.155367 
L 169.383229 254.616675 
L 170.46903 253.86563 
L 171.554831 251.130159 
L 172.640632 253.784865 
L 173.726434 254.784649 
L 174.812235 255.366673 
L 175.898036 254.609669 
L 176.983837 251.190388 
L 178.069638 251.743041 
L 179.155439 255.413986 
L 180.24124 257.201762 
L 181.327042 253.904511 
L 182.412843 251.009641 
L 183.498644 252.772297 
L 184.584445 252.064076 
L 185.670246 251.505911 
L 186.756047 253.586471 
L 187.841849 253.048003 
L 188.92765 254.076618 
L 190.013451 256.485304 
L 191.099252 255.884641 
L 192.185053 254.007723 
L 193.270854 252.277581 
L 194.356656 252.933078 
L 195.442457 251.143469 
L 196.528258 251.939282 
L 197.614059 249.633262 
L 198.69986 252.58907 
L 199.785661 253.690667 
L 200.871462 252.255718 
L 201.957264 252.61053 
L 203.043065 251.225056 
L 204.128866 250.439203 
L 205.214667 249.752844 
L 206.300468 253.233403 
L 207.386269 255.437019 
L 208.472071 253.430985 
L 209.557872 253.407969 
L 210.643673 253.106087 
L 211.729474 251.944353 
L 212.815275 251.935897 
L 213.901076 252.572199 
L 214.986877 252.904841 
L 216.072679 252.358302 
L 217.15848 251.680598 
L 218.244281 250.895937 
L 219.330082 249.669539 
L 220.415883 251.400607 
L 221.501684 254.243058 
L 222.587486 257.114321 
L 223.673287 260.211408 
L 224.759088 257.376147 
L 225.844889 257.03286 
L 226.93069 255.081895 
L 228.016491 258.252224 
L 229.102292 257.797554 
L 230.188094 255.999931 
L 231.273895 256.079538 
L 232.359696 257.632737 
L 233.445497 255.959141 
L 234.531298 258.67086 
L 235.617099 259.534102 
L 236.702901 259.661438 
L 237.788702 259.79085 
L 238.874503 261.361746 
L 239.960304 265.29715 
L 241.046105 263.115636 
L 242.131906 263.374375 
L 243.217708 265.637415 
L 244.303509 266.396358 
L 245.38931 265.812921 
L 246.475111 267.785219 
L 247.560912 268.331003 
L 248.646713 266.469627 
L 249.732514 270.313397 
L 250.818316 266.053047 
L 251.904117 265.040788 
L 252.989918 264.52858 
L 254.075719 263.366893 
L 255.16152 264.359569 
L 256.247321 266.140933 
L 257.333123 266.930856 
L 258.418924 267.285956 
L 259.504725 265.90011 
L 260.590526 265.646177 
L 261.676327 264.605573 
L 262.762128 268.164333 
L 263.847929 268.797678 
L 264.933731 271.306031 
L 266.019532 273.724175 
L 267.105333 274.475856 
L 268.191134 274.240289 
L 269.276935 267.704441 
L 270.362736 267.350374 
L 271.448538 268.339737 
L 272.534339 271.19436 
L 273.62014 273.587649 
L 274.705941 266.954909 
L 275.791742 267.944537 
L 276.877543 270.673459 
L 277.963344 273.117723 
L 279.049146 273.583984 
L 280.134947 272.183283 
L 281.220748 275.857937 
L 282.306549 270.770692 
L 283.39235 270.802048 
L 284.478151 271.190051 
L 285.563953 268.856016 
L 286.649754 268.401186 
L 287.735555 270.816512 
L 288.821356 272.131105 
L 289.907157 269.837015 
L 290.992958 269.681168 
L 292.07876 267.587151 
L 293.164561 269.691049 
L 294.250362 274.331999 
L 295.336163 276.387743 
L 296.421964 274.146398 
L 297.507765 268.864215 
L 298.593566 273.747514 
L 299.679368 271.239283 
L 300.765169 274.605037 
L 301.85097 272.596851 
L 302.936771 275.752931 
L 304.022572 272.142346 
L 305.108373 273.853953 
L 306.194175 269.737304 
L 307.279976 270.050766 
L 308.365777 273.437596 
L 309.451578 275.789517 
L 310.537379 275.096781 
L 311.62318 274.182271 
L 312.708981 274.885745 
L 313.794783 277.940931 
L 314.880584 269.82438 
L 315.966385 267.577123 
L 317.052186 266.310529 
L 318.137987 266.41121 
L 319.223788 260.81263 
L 320.30959 259.401113 
L 321.395391 260.054181 
L 322.481192 260.420077 
L 323.566993 262.634384 
L 324.652794 261.489358 
L 325.738595 259.239231 
L 326.824396 261.270413 
L 327.910198 263.853677 
L 328.995999 264.467372 
L 330.0818 264.439284 
L 331.167601 266.440509 
L 332.253402 269.603313 
L 333.339203 271.313223 
L 334.425005 270.262457 
L 335.510806 274.507806 
L 336.596607 284.426206 
L 337.682408 285.095319 
L 338.768209 287.532762 
L 339.85401 285.851206 
L 340.939811 284.86141 
L 342.025613 291.149709 
L 343.111414 286.953402 
L 344.197215 290.054637 
L 345.283016 289.946461 
L 346.368817 294.553594 
L 347.454618 295.488 
L 348.54042 283.36085 
L 349.626221 282.878154 
L 350.712022 275.648378 
L 351.797823 278.822242 
L 352.883624 276.585285 
L 353.969425 281.815533 
L 355.055227 279.876418 
L 356.141028 281.49601 
L 357.226829 276.031966 
L 358.31263 270.899004 
L 359.398431 275.852031 
L 360.484232 273.999933 
L 361.570033 273.842155 
L 362.655835 278.957 
L 363.741636 276.62815 
L 364.827437 277.650224 
L 365.913238 280.666138 
L 366.999039 286.151467 
L 368.08484 279.396893 
L 369.170642 280.480841 
L 370.256443 281.797258 
L 371.342244 283.894849 
L 372.428045 281.020088 
L 373.513846 278.325721 
L 374.599647 285.367601 
L 375.685448 281.138966 
L 376.77125 274.670148 
L 377.857051 276.769578 
L 378.942852 268.060471 
L 380.028653 272.175388 
L 381.114454 269.966999 
L 382.200255 277.606048 
L 383.286057 279.473557 
L 384.371858 273.064407 
L 385.457659 277.075937 
L 386.54346 274.65841 
L 387.629261 275.062814 
L 388.715062 270.995965 
L 389.800863 279.640624 
L 390.886665 285.783735 
L 391.972466 279.949793 
L 393.058267 282.413066 
L 394.144068 281.708696 
L 395.229869 287.347027 
L 396.31567 280.393164 
L 397.401472 295.196003 
L 398.487273 279.85334 
L 398.487273 96.341669 
L 398.487273 96.341669 
L 397.401472 68.940064 
L 396.31567 98.881861 
L 395.229869 87.861388 
L 394.144068 97.23998 
L 393.058267 96.95164 
L 391.972466 101.141663 
L 390.886665 85.261692 
L 389.800863 102.634576 
L 388.715062 112.105301 
L 387.629261 104.191624 
L 386.54346 99.676434 
L 385.457659 100.246108 
L 384.371858 110.275685 
L 383.286057 101.211603 
L 382.200255 102.432679 
L 381.114454 117.339856 
L 380.028653 116.336206 
L 378.942852 123.826843 
L 377.857051 107.273077 
L 376.77125 112.730743 
L 375.685448 89.869232 
L 374.599647 85.528578 
L 373.513846 102.14633 
L 372.428045 91.773688 
L 371.342244 88.104671 
L 370.256443 92.712361 
L 369.170642 94.522014 
L 368.08484 98.161521 
L 366.999039 83.00868 
L 365.913238 96.575641 
L 364.827437 101.714374 
L 363.741636 106.11116 
L 362.655835 102.671337 
L 361.570033 109.922845 
L 360.484232 104.626702 
L 359.398431 106.48835 
L 358.31263 109.920788 
L 357.226829 103.848715 
L 356.141028 93.308608 
L 355.055227 95.716583 
L 353.969425 83.531571 
L 352.883624 102.765773 
L 351.797823 93.890026 
L 350.712022 91.478465 
L 349.626221 85.13389 
L 348.54042 63.665458 
L 347.454618 53.568 
L 346.368817 55.5673 
L 345.283016 69.51336 
L 344.197215 58.44845 
L 343.111414 66.439238 
L 342.025613 56.120248 
L 340.939811 66.520389 
L 339.85401 63.352033 
L 338.768209 64.555815 
L 337.682408 67.27039 
L 336.596607 71.557695 
L 335.510806 96.207185 
L 334.425005 107.140564 
L 333.339203 99.330763 
L 332.253402 104.13508 
L 331.167601 109.666502 
L 330.0818 98.295461 
L 328.995999 102.210799 
L 327.910198 100.332711 
L 326.824396 108.94987 
L 325.738595 106.142789 
L 324.652794 98.019217 
L 323.566993 92.241076 
L 322.481192 101.699704 
L 321.395391 98.307237 
L 320.30959 98.064389 
L 319.223788 93.99336 
L 318.137987 84.08856 
L 317.052186 92.265149 
L 315.966385 89.537972 
L 314.880584 96.249481 
L 313.794783 79.734905 
L 312.708981 88.077438 
L 311.62318 87.552366 
L 310.537379 85.493483 
L 309.451578 83.731739 
L 308.365777 87.883047 
L 307.279976 87.316315 
L 306.194175 97.502657 
L 305.108373 90.36634 
L 304.022572 100.391287 
L 302.936771 91.68861 
L 301.85097 95.745643 
L 300.765169 84.646941 
L 299.679368 93.350493 
L 298.593566 89.947238 
L 297.507765 102.745377 
L 296.421964 95.562718 
L 295.336163 84.835497 
L 294.250362 89.006474 
L 293.164561 99.5499 
L 292.07876 100.845344 
L 290.992958 98.941284 
L 289.907157 99.690917 
L 288.821356 97.952068 
L 287.735555 98.341886 
L 286.649754 105.957827 
L 285.563953 102.63533 
L 284.478151 92.250886 
L 283.39235 92.335771 
L 282.306549 100.582754 
L 281.220748 91.702278 
L 280.134947 95.958684 
L 279.049146 95.979965 
L 277.963344 100.559278 
L 276.877543 101.418462 
L 275.791742 109.950629 
L 274.705941 104.549663 
L 273.62014 92.611539 
L 272.534339 97.662483 
L 271.448538 109.433996 
L 270.362736 110.358784 
L 269.276935 108.593601 
L 268.191134 97.757125 
L 267.105333 96.174953 
L 266.019532 98.584684 
L 264.933731 95.064015 
L 263.847929 102.472751 
L 262.762128 94.021418 
L 261.676327 105.354887 
L 260.590526 103.764936 
L 259.504725 105.244224 
L 258.418924 100.443126 
L 257.333123 102.262871 
L 256.247321 106.759156 
L 255.16152 109.997108 
L 254.075719 113.330287 
L 252.989918 107.56422 
L 251.904117 106.871842 
L 250.818316 107.9742 
L 249.732514 96.178857 
L 248.646713 113.923272 
L 247.560912 108.244414 
L 246.475111 103.2637 
L 245.38931 104.84943 
L 244.303509 110.502389 
L 243.217708 115.068885 
L 242.131906 114.582505 
L 241.046105 112.60664 
L 239.960304 112.668018 
L 238.874503 121.228676 
L 237.788702 122.467463 
L 236.702901 122.131207 
L 235.617099 123.453265 
L 234.531298 123.422913 
L 233.445497 128.911537 
L 232.359696 127.78304 
L 231.273895 128.923686 
L 230.188094 130.348123 
L 229.102292 123.219282 
L 228.016491 121.26944 
L 226.93069 134.369497 
L 225.844889 126.445722 
L 224.759088 121.667058 
L 223.673287 124.053812 
L 222.587486 132.919032 
L 221.501684 134.704601 
L 220.415883 138.648151 
L 219.330082 139.760101 
L 218.244281 138.636613 
L 217.15848 140.092734 
L 216.072679 137.760531 
L 214.986877 134.305207 
L 213.901076 136.082978 
L 212.815275 137.631069 
L 211.729474 141.493432 
L 210.643673 137.903997 
L 209.557872 138.656803 
L 208.472071 142.045601 
L 207.386269 135.753007 
L 206.300468 137.7113 
L 205.214667 146.314368 
L 204.128866 144.361036 
L 203.043065 141.781103 
L 201.957264 141.919304 
L 200.871462 145.667355 
L 199.785661 139.74975 
L 198.69986 140.733818 
L 197.614059 144.921153 
L 196.528258 142.285387 
L 195.442457 142.074919 
L 194.356656 144.114449 
L 193.270854 142.61705 
L 192.185053 140.455507 
L 191.099252 135.813156 
L 190.013451 135.352765 
L 188.92765 137.686319 
L 187.841849 141.367717 
L 186.756047 140.117319 
L 185.670246 143.131685 
L 184.584445 139.268894 
L 183.498644 140.932748 
L 182.412843 144.051218 
L 181.327042 134.944682 
L 180.24124 134.4089 
L 179.155439 135.632875 
L 178.069638 142.823174 
L 176.983837 144.114765 
L 175.898036 139.01712 
L 174.812235 141.037092 
L 173.726434 145.219004 
L 172.640632 142.889194 
L 171.554831 154.688676 
L 170.46903 147.6107 
L 169.383229 144.804877 
L 168.297428 149.663758 
L 167.211627 154.581417 
L 166.125825 162.216284 
L 165.040024 159.151941 
L 163.954223 164.533881 
L 162.868422 164.012551 
L 161.782621 169.819656 
L 160.69682 168.368597 
L 159.611019 168.513276 
L 158.525217 168.98708 
L 157.439416 168.070115 
L 156.353615 173.77154 
L 155.267814 177.041195 
L 154.182013 173.130936 
L 153.096212 170.056944 
L 152.01041 171.581246 
L 150.924609 169.428537 
L 149.838808 172.201114 
L 148.753007 165.986243 
L 147.667206 158.986617 
L 146.581405 156.140237 
L 145.495604 158.594177 
L 144.409802 166.326569 
L 143.324001 166.77859 
L 142.2382 164.262592 
L 141.152399 163.589222 
L 140.066598 162.241493 
L 138.980797 171.005515 
L 137.894995 171.979996 
L 136.809194 171.18891 
L 135.723393 170.32764 
L 134.637592 177.720113 
L 133.551791 173.334677 
L 132.46599 175.466702 
L 131.380189 177.070287 
L 130.294387 176.079902 
L 129.208586 172.328018 
L 128.122785 176.967785 
L 127.036984 179.527615 
L 125.951183 180.717476 
L 124.865382 183.347929 
L 123.77958 185.90211 
L 122.693779 189.343427 
L 121.607978 183.495706 
L 120.522177 186.115167 
L 119.436376 188.331583 
L 118.350575 187.338565 
L 117.264773 190.197435 
L 116.178972 192.09742 
L 115.093171 192.319747 
L 114.00737 192.906318 
L 112.921569 190.746423 
L 111.835768 193.362228 
L 110.749967 191.318444 
L 109.664165 192.205053 
L 108.578364 192.717871 
L 107.492563 194.642806 
L 106.406762 196.476942 
L 105.320961 197.068217 
L 104.23516 195.93607 
L 103.149358 197.407471 
L 102.063557 196.790294 
L 100.977756 198.631447 
L 99.891955 198.786843 
L 98.806154 198.016026 
L 97.720353 199.096643 
L 96.634552 198.578617 
L 95.54875 198.646999 
L 94.462949 197.153972 
L 93.377148 199.197522 
L 92.291347 197.390531 
L 91.205546 193.691266 
L 90.119745 195.216191 
L 89.033943 192.941426 
L 87.948142 192.864656 
L 86.862341 195.037887 
L 85.77654 194.330962 
L 84.690739 194.999167 
L 83.604938 194.854206 
L 82.519137 195.559498 
L 81.433335 197.033515 
L 80.347534 196.471133 
L 79.261733 195.478636 
L 78.175932 194.089948 
L 77.090131 192.223722 
L 76.00433 193.806925 
L 74.918528 192.579523 
L 73.832727 193.359507 
z
" style="fill:#008000;fill-opacity:0.25;"/>
   </g>
   <g id="matplotlib.axis_3">
    <g id="ytick_7">
     <g id="line2d_15">
      <path clip-path="url(#pf203e8071d)" d="M 57.6 274.981128 
L 414.72 274.981128 
" style="fill:none;stroke:#b0b0b0;stroke-linecap:square;stroke-width:0.8;"/>
     </g>
     <g id="line2d_16">
      <defs>
       <path d="M 0 0 
L 3.5 0 
" id="m2960651c5d" style="stroke:#000000;stroke-width:0.8;"/>
      </defs>
      <g>
       <use style="stroke:#000000;stroke-width:0.8;" x="414.72" xlink:href="#m2960651c5d" y="274.981128"/>
      </g>
     </g>
     <g id="text_15">
      <!-- 2 -->
      <defs>
       <path d="M 10.59375 35.5 
L 73.1875 35.5 
L 73.1875 27.203125 
L 10.59375 27.203125 
z
" id="DejaVuSans-8722"/>
      </defs>
      <g transform="translate(421.72 278.780347)scale(0.1 -0.1)">
       <use xlink:href="#DejaVuSans-8722"/>
       <use x="83.789062" xlink:href="#DejaVuSans-50"/>
      </g>
     </g>
    </g>
    <g id="ytick_8">
     <g id="line2d_17">
      <path clip-path="url(#pf203e8071d)" d="M 57.6 217.204398 
L 414.72 217.204398 
" style="fill:none;stroke:#b0b0b0;stroke-linecap:square;stroke-width:0.8;"/>
     </g>
     <g id="line2d_18">
      <g>
       <use style="stroke:#000000;stroke-width:0.8;" x="414.72" xlink:href="#m2960651c5d" y="217.204398"/>
      </g>
     </g>
     <g id="text_16">
      <!-- 0 -->
      <g transform="translate(421.72 221.003617)scale(0.1 -0.1)">
       <use xlink:href="#DejaVuSans-48"/>
      </g>
     </g>
    </g>
    <g id="ytick_9">
     <g id="line2d_19">
      <path clip-path="url(#pf203e8071d)" d="M 57.6 159.427668 
L 414.72 159.427668 
" style="fill:none;stroke:#b0b0b0;stroke-linecap:square;stroke-width:0.8;"/>
     </g>
     <g id="line2d_20">
      <g>
       <use style="stroke:#000000;stroke-width:0.8;" x="414.72" xlink:href="#m2960651c5d" y="159.427668"/>
      </g>
     </g>
     <g id="text_17">
      <!-- 2 -->
      <g transform="translate(421.72 163.226887)scale(0.1 -0.1)">
       <use xlink:href="#DejaVuSans-50"/>
      </g>
     </g>
    </g>
    <g id="ytick_10">
     <g id="line2d_21">
      <path clip-path="url(#pf203e8071d)" d="M 57.6 101.650938 
L 414.72 101.650938 
" style="fill:none;stroke:#b0b0b0;stroke-linecap:square;stroke-width:0.8;"/>
     </g>
     <g id="line2d_22">
      <g>
       <use style="stroke:#000000;stroke-width:0.8;" x="414.72" xlink:href="#m2960651c5d" y="101.650938"/>
      </g>
     </g>
     <g id="text_18">
      <!-- 4 -->
      <g transform="translate(421.72 105.450157)scale(0.1 -0.1)">
       <use xlink:href="#DejaVuSans-52"/>
      </g>
     </g>
    </g>
    <g id="ytick_11">
     <g id="line2d_23">
      <path clip-path="url(#pf203e8071d)" d="M 57.6 43.874209 
L 414.72 43.874209 
" style="fill:none;stroke:#b0b0b0;stroke-linecap:square;stroke-width:0.8;"/>
     </g>
     <g id="line2d_24">
      <g>
       <use style="stroke:#000000;stroke-width:0.8;" x="414.72" xlink:href="#m2960651c5d" y="43.874209"/>
      </g>
     </g>
     <g id="text_19">
      <!-- 6 -->
      <g transform="translate(421.72 47.673427)scale(0.1 -0.1)">
       <use xlink:href="#DejaVuSans-54"/>
      </g>
     </g>
    </g>
    <g id="text_20">
     <!-- Loudness -->
     <defs>
      <path d="M 9.8125 72.90625 
L 19.671875 72.90625 
L 19.671875 8.296875 
L 55.171875 8.296875 
L 55.171875 0 
L 9.8125 0 
z
" id="DejaVuSans-76"/>
      <path d="M 30.609375 48.390625 
Q 23.390625 48.390625 19.1875 42.75 
Q 14.984375 37.109375 14.984375 27.296875 
Q 14.984375 17.484375 19.15625 11.84375 
Q 23.34375 6.203125 30.609375 6.203125 
Q 37.796875 6.203125 41.984375 11.859375 
Q 46.1875 17.53125 46.1875 27.296875 
Q 46.1875 37.015625 41.984375 42.703125 
Q 37.796875 48.390625 30.609375 48.390625 
z
M 30.609375 56 
Q 42.328125 56 49.015625 48.375 
Q 55.71875 40.765625 55.71875 27.296875 
Q 55.71875 13.875 49.015625 6.21875 
Q 42.328125 -1.421875 30.609375 -1.421875 
Q 18.84375 -1.421875 12.171875 6.21875 
Q 5.515625 13.875 5.515625 27.296875 
Q 5.515625 40.765625 12.171875 48.375 
Q 18.84375 56 30.609375 56 
z
" id="DejaVuSans-111"/>
      <path d="M 8.5 21.578125 
L 8.5 54.6875 
L 17.484375 54.6875 
L 17.484375 21.921875 
Q 17.484375 14.15625 20.5 10.265625 
Q 23.53125 6.390625 29.59375 6.390625 
Q 36.859375 6.390625 41.078125 11.03125 
Q 45.3125 15.671875 45.3125 23.6875 
L 45.3125 54.6875 
L 54.296875 54.6875 
L 54.296875 0 
L 45.3125 0 
L 45.3125 8.40625 
Q 42.046875 3.421875 37.71875 1 
Q 33.40625 -1.421875 27.6875 -1.421875 
Q 18.265625 -1.421875 13.375 4.4375 
Q 8.5 10.296875 8.5 21.578125 
z
M 31.109375 56 
z
" id="DejaVuSans-117"/>
      <path d="M 45.40625 46.390625 
L 45.40625 75.984375 
L 54.390625 75.984375 
L 54.390625 0 
L 45.40625 0 
L 45.40625 8.203125 
Q 42.578125 3.328125 38.25 0.953125 
Q 33.9375 -1.421875 27.875 -1.421875 
Q 17.96875 -1.421875 11.734375 6.484375 
Q 5.515625 14.40625 5.515625 27.296875 
Q 5.515625 40.1875 11.734375 48.09375 
Q 17.96875 56 27.875 56 
Q 33.9375 56 38.25 53.625 
Q 42.578125 51.265625 45.40625 46.390625 
z
M 14.796875 27.296875 
Q 14.796875 17.390625 18.875 11.75 
Q 22.953125 6.109375 30.078125 6.109375 
Q 37.203125 6.109375 41.296875 11.75 
Q 45.40625 17.390625 45.40625 27.296875 
Q 45.40625 37.203125 41.296875 42.84375 
Q 37.203125 48.484375 30.078125 48.484375 
Q 22.953125 48.484375 18.875 42.84375 
Q 14.796875 37.203125 14.796875 27.296875 
z
" id="DejaVuSans-100"/>
     </defs>
     <g transform="translate(448.060625 198.170187)rotate(-90)scale(0.1 -0.1)">
      <use xlink:href="#DejaVuSans-76"/>
      <use x="55.697266" xlink:href="#DejaVuSans-111"/>
      <use x="116.878906" xlink:href="#DejaVuSans-117"/>
      <use x="180.257812" xlink:href="#DejaVuSans-100"/>
      <use x="243.734375" xlink:href="#DejaVuSans-110"/>
      <use x="307.113281" xlink:href="#DejaVuSans-101"/>
      <use x="368.636719" xlink:href="#DejaVuSans-115"/>
      <use x="420.736328" xlink:href="#DejaVuSans-115"/>
     </g>
    </g>
   </g>
   <g id="line2d_25">
    <path clip-path="url(#pf203e8071d)" d="M 73.832727 205.889634 
L 74.918528 205.559135 
L 76.00433 206.767306 
L 77.090131 206.138026 
L 78.175932 207.206467 
L 80.347534 208.674346 
L 81.433335 209.233288 
L 82.519137 208.104707 
L 83.604938 207.634682 
L 84.690739 207.833483 
L 85.77654 207.693935 
L 86.862341 208.63812 
L 87.948142 207.305027 
L 89.033943 207.880027 
L 90.119745 208.075031 
L 91.205546 207.769131 
L 92.291347 209.775264 
L 93.377148 211.044895 
L 94.462949 209.865938 
L 95.54875 210.549264 
L 96.634552 211.063793 
L 98.806154 210.567909 
L 99.891955 210.740894 
L 100.977756 210.392893 
L 102.063557 209.453175 
L 103.149358 209.802305 
L 105.320961 209.97302 
L 106.406762 209.054375 
L 107.492563 207.8031 
L 108.578364 206.941135 
L 109.664165 207.315742 
L 110.749967 206.24922 
L 111.835768 207.183501 
L 112.921569 206.252189 
L 114.00737 207.410552 
L 115.093171 207.006878 
L 116.178972 207.622556 
L 120.522177 206.362869 
L 121.607978 205.229808 
L 122.693779 207.981165 
L 123.77958 206.805856 
L 124.865382 206.367634 
L 127.036984 204.857224 
L 129.208586 201.691239 
L 130.294387 203.189826 
L 131.380189 202.64708 
L 133.551791 202.762802 
L 134.637592 204.599683 
L 135.723393 202.355692 
L 136.809194 202.900899 
L 137.894995 203.170488 
L 138.980797 202.799429 
L 140.066598 199.407012 
L 141.152399 200.596363 
L 142.2382 201.184744 
L 143.324001 202.219187 
L 144.409802 202.216335 
L 145.495604 199.009409 
L 146.581405 198.385382 
L 147.667206 199.024299 
L 148.753007 201.66996 
L 149.838808 203.746903 
L 150.924609 202.444248 
L 152.01041 202.806761 
L 153.096212 203.708222 
L 154.182013 204.905826 
L 155.267814 206.697429 
L 156.353615 205.955525 
L 157.439416 203.731031 
L 158.525217 203.467342 
L 159.611019 203.766683 
L 161.782621 205.349164 
L 162.868422 203.688344 
L 163.954223 204.066137 
L 165.040024 203.135846 
L 166.125825 204.185343 
L 168.297428 200.909563 
L 169.383229 199.710776 
L 170.46903 200.738165 
L 171.554831 202.909418 
L 172.640632 198.337029 
L 173.726434 200.001827 
L 174.812235 198.201882 
L 175.898036 196.813394 
L 176.983837 197.652577 
L 178.069638 197.283107 
L 179.155439 195.523431 
L 180.24124 195.805331 
L 181.327042 194.424597 
L 182.412843 197.530429 
L 183.498644 196.852522 
L 184.584445 195.666485 
L 185.670246 197.318798 
L 186.756047 196.851895 
L 187.841849 197.20786 
L 188.92765 195.881468 
L 191.099252 195.848899 
L 192.185053 197.231615 
L 193.270854 197.447316 
L 194.356656 198.523764 
L 195.442457 196.609194 
L 196.528258 197.112335 
L 197.614059 197.277207 
L 198.69986 196.661444 
L 199.785661 196.720208 
L 200.871462 198.961536 
L 201.957264 197.264917 
L 203.043065 196.503079 
L 204.128866 197.400119 
L 205.214667 198.033606 
L 206.300468 195.472351 
L 207.386269 195.595013 
L 208.472071 197.738293 
L 209.557872 196.032386 
L 210.643673 195.505042 
L 211.729474 196.718893 
L 212.815275 194.783483 
L 213.901076 194.327588 
L 214.986877 193.605024 
L 216.072679 195.059417 
L 217.15848 195.886666 
L 218.244281 194.766275 
L 219.330082 194.71482 
L 220.415883 195.024379 
L 221.501684 194.47383 
L 222.587486 195.016677 
L 224.759088 189.521602 
L 225.844889 191.739291 
L 226.93069 194.725696 
L 228.016491 189.760832 
L 229.102292 190.508418 
L 230.188094 193.174027 
L 231.273895 192.501612 
L 232.359696 192.707888 
L 233.445497 192.435339 
L 234.531298 191.046887 
L 235.617099 191.493684 
L 236.702901 190.896323 
L 238.874503 191.295211 
L 239.960304 188.982584 
L 241.046105 187.861138 
L 242.131906 188.97844 
L 243.217708 190.35315 
L 244.303509 188.449373 
L 245.38931 185.331175 
L 246.475111 185.524459 
L 247.560912 188.287709 
L 248.646713 190.19645 
L 249.732514 183.246127 
L 250.818316 187.013624 
L 251.904117 185.956315 
L 252.989918 186.0464 
L 254.075719 188.34859 
L 255.16152 187.178339 
L 256.247321 186.450045 
L 257.333123 184.596864 
L 258.418924 183.864541 
L 259.504725 185.572167 
L 260.590526 184.705556 
L 261.676327 184.98023 
L 262.762128 181.092876 
L 263.847929 185.635214 
L 264.933731 183.185023 
L 266.019532 186.154429 
L 267.105333 185.325405 
L 268.191134 185.998707 
L 269.276935 188.149021 
L 270.362736 188.854579 
L 271.448538 188.886866 
L 272.534339 184.428421 
L 273.62014 183.099594 
L 274.705941 185.752286 
L 275.791742 188.947583 
L 276.877543 186.04596 
L 277.963344 186.8385 
L 279.049146 184.781974 
L 280.134947 184.070984 
L 281.220748 183.780107 
L 282.306549 185.676723 
L 283.39235 181.56891 
L 284.478151 181.720469 
L 285.563953 185.745673 
L 286.649754 187.179506 
L 287.735555 184.579199 
L 288.821356 185.041586 
L 289.907157 184.763966 
L 290.992958 184.311226 
L 292.07876 184.216247 
L 293.164561 184.620474 
L 294.250362 181.669237 
L 295.336163 180.61162 
L 296.421964 184.854558 
L 297.507765 185.804796 
L 298.593566 181.847376 
L 299.679368 182.294888 
L 300.765169 179.625989 
L 301.85097 184.171247 
L 302.936771 183.720771 
L 304.022572 186.266817 
L 305.108373 182.110146 
L 306.194175 183.619981 
L 307.279976 178.683541 
L 308.365777 180.660321 
L 309.451578 179.760628 
L 312.708981 181.481592 
L 313.794783 178.837918 
L 314.880584 183.03693 
L 315.966385 178.557548 
L 317.052186 179.287839 
L 318.137987 175.249885 
L 319.223788 177.402995 
L 320.30959 178.732751 
L 321.395391 179.180709 
L 322.481192 181.059891 
L 323.566993 177.43773 
L 324.652794 179.754287 
L 325.738595 182.69101 
L 326.824396 185.110141 
L 327.910198 182.093194 
L 328.995999 183.339086 
L 330.0818 181.367372 
L 331.167601 188.053506 
L 332.253402 186.869196 
L 333.339203 185.321993 
L 334.425005 188.701511 
L 335.510806 185.357495 
L 336.596607 177.99195 
L 337.682408 176.182855 
L 338.768209 176.044289 
L 339.85401 174.601619 
L 340.939811 175.690899 
L 342.025613 173.634978 
L 343.111414 176.69632 
L 344.197215 174.251544 
L 345.283016 179.72991 
L 346.368817 175.060447 
L 347.454618 174.528 
L 348.54042 173.513154 
L 349.626221 184.006022 
L 350.712022 183.563421 
L 351.797823 186.356134 
L 352.883624 189.675529 
L 353.969425 182.673552 
L 355.055227 187.796501 
L 356.141028 187.402309 
L 357.226829 189.940341 
L 358.31263 190.409896 
L 359.398431 191.17019 
L 360.484232 189.313317 
L 361.570033 191.8825 
L 362.655835 190.814169 
L 363.741636 191.369655 
L 364.827437 189.682299 
L 365.913238 188.620889 
L 366.999039 184.580074 
L 368.08484 188.779207 
L 369.170642 187.501428 
L 370.256443 187.25481 
L 371.342244 185.99976 
L 372.428045 186.396888 
L 373.513846 190.236025 
L 374.599647 185.44809 
L 375.685448 185.504099 
L 376.77125 193.700446 
L 377.857051 192.021328 
L 378.942852 195.943657 
L 380.028653 194.255797 
L 381.114454 193.653427 
L 382.200255 190.019363 
L 383.286057 190.34258 
L 384.371858 191.670046 
L 385.457659 188.661023 
L 386.54346 187.167422 
L 387.629261 189.627219 
L 388.715062 191.550633 
L 389.800863 191.1376 
L 390.886665 185.522713 
L 391.972466 190.545728 
L 393.058267 189.682353 
L 394.144068 189.474338 
L 395.229869 187.604207 
L 396.31567 189.637512 
L 397.401472 182.068033 
L 398.487273 188.097505 
L 398.487273 188.097505 
" style="fill:none;stroke:#008000;stroke-linecap:square;stroke-width:1.5;"/>
   </g>
   <g id="patch_7">
    <path d="M 57.6 307.584 
L 57.6 41.472 
" style="fill:none;stroke:#000000;stroke-linecap:square;stroke-linejoin:miter;stroke-width:0.8;"/>
   </g>
   <g id="patch_8">
    <path d="M 414.72 307.584 
L 414.72 41.472 
" style="fill:none;stroke:#000000;stroke-linecap:square;stroke-linejoin:miter;stroke-width:0.8;"/>
   </g>
   <g id="patch_9">
    <path d="M 57.6 307.584 
L 414.72 307.584 
" style="fill:none;stroke:#000000;stroke-linecap:square;stroke-linejoin:miter;stroke-width:0.8;"/>
   </g>
   <g id="patch_10">
    <path d="M 57.6 41.472 
L 414.72 41.472 
" style="fill:none;stroke:#000000;stroke-linecap:square;stroke-linejoin:miter;stroke-width:0.8;"/>
   </g>
   <g id="text_21">
    <!-- Message Difference and Loudness -->
    <defs>
     <path d="M 9.8125 72.90625 
L 24.515625 72.90625 
L 43.109375 23.296875 
L 61.8125 72.90625 
L 76.515625 72.90625 
L 76.515625 0 
L 66.890625 0 
L 66.890625 64.015625 
L 48.09375 14.015625 
L 38.1875 14.015625 
L 19.390625 64.015625 
L 19.390625 0 
L 9.8125 0 
z
" id="DejaVuSans-77"/>
     <path d="M 45.40625 27.984375 
Q 45.40625 37.75 41.375 43.109375 
Q 37.359375 48.484375 30.078125 48.484375 
Q 22.859375 48.484375 18.828125 43.109375 
Q 14.796875 37.75 14.796875 27.984375 
Q 14.796875 18.265625 18.828125 12.890625 
Q 22.859375 7.515625 30.078125 7.515625 
Q 37.359375 7.515625 41.375 12.890625 
Q 45.40625 18.265625 45.40625 27.984375 
z
M 54.390625 6.78125 
Q 54.390625 -7.171875 48.1875 -13.984375 
Q 42 -20.796875 29.203125 -20.796875 
Q 24.46875 -20.796875 20.265625 -20.09375 
Q 16.0625 -19.390625 12.109375 -17.921875 
L 12.109375 -9.1875 
Q 16.0625 -11.328125 19.921875 -12.34375 
Q 23.78125 -13.375 27.78125 -13.375 
Q 36.625 -13.375 41.015625 -8.765625 
Q 45.40625 -4.15625 45.40625 5.171875 
L 45.40625 9.625 
Q 42.625 4.78125 38.28125 2.390625 
Q 33.9375 0 27.875 0 
Q 17.828125 0 11.671875 7.65625 
Q 5.515625 15.328125 5.515625 27.984375 
Q 5.515625 40.671875 11.671875 48.328125 
Q 17.828125 56 27.875 56 
Q 33.9375 56 38.28125 53.609375 
Q 42.625 51.21875 45.40625 46.390625 
L 45.40625 54.6875 
L 54.390625 54.6875 
z
" id="DejaVuSans-103"/>
     <path id="DejaVuSans-32"/>
     <path d="M 37.109375 75.984375 
L 37.109375 68.5 
L 28.515625 68.5 
Q 23.6875 68.5 21.796875 66.546875 
Q 19.921875 64.59375 19.921875 59.515625 
L 19.921875 54.6875 
L 34.71875 54.6875 
L 34.71875 47.703125 
L 19.921875 47.703125 
L 19.921875 0 
L 10.890625 0 
L 10.890625 47.703125 
L 2.296875 47.703125 
L 2.296875 54.6875 
L 10.890625 54.6875 
L 10.890625 58.5 
Q 10.890625 67.625 15.140625 71.796875 
Q 19.390625 75.984375 28.609375 75.984375 
z
" id="DejaVuSans-102"/>
     <path d="M 41.109375 46.296875 
Q 39.59375 47.171875 37.8125 47.578125 
Q 36.03125 48 33.890625 48 
Q 26.265625 48 22.1875 43.046875 
Q 18.109375 38.09375 18.109375 28.8125 
L 18.109375 0 
L 9.078125 0 
L 9.078125 54.6875 
L 18.109375 54.6875 
L 18.109375 46.1875 
Q 20.953125 51.171875 25.484375 53.578125 
Q 30.03125 56 36.53125 56 
Q 37.453125 56 38.578125 55.875 
Q 39.703125 55.765625 41.0625 55.515625 
z
" id="DejaVuSans-114"/>
    </defs>
    <g transform="translate(133.329375 35.472)scale(0.12 -0.12)">
     <use xlink:href="#DejaVuSans-77"/>
     <use x="86.279297" xlink:href="#DejaVuSans-101"/>
     <use x="147.802734" xlink:href="#DejaVuSans-115"/>
     <use x="199.902344" xlink:href="#DejaVuSans-115"/>
     <use x="252.001953" xlink:href="#DejaVuSans-97"/>
     <use x="313.28125" xlink:href="#DejaVuSans-103"/>
     <use x="376.757812" xlink:href="#DejaVuSans-101"/>
     <use x="438.28125" xlink:href="#DejaVuSans-32"/>
     <use x="470.068359" xlink:href="#DejaVuSans-68"/>
     <use x="547.070312" xlink:href="#DejaVuSans-105"/>
     <use x="574.853516" xlink:href="#DejaVuSans-102"/>
     <use x="610.058594" xlink:href="#DejaVuSans-102"/>
     <use x="645.263672" xlink:href="#DejaVuSans-101"/>
     <use x="706.787109" xlink:href="#DejaVuSans-114"/>
     <use x="747.869141" xlink:href="#DejaVuSans-101"/>
     <use x="809.392578" xlink:href="#DejaVuSans-110"/>
     <use x="872.771484" xlink:href="#DejaVuSans-99"/>
     <use x="927.751953" xlink:href="#DejaVuSans-101"/>
     <use x="989.275391" xlink:href="#DejaVuSans-32"/>
     <use x="1021.0625" xlink:href="#DejaVuSans-97"/>
     <use x="1082.341797" xlink:href="#DejaVuSans-110"/>
     <use x="1145.720703" xlink:href="#DejaVuSans-100"/>
     <use x="1209.197266" xlink:href="#DejaVuSans-32"/>
     <use x="1240.984375" xlink:href="#DejaVuSans-76"/>
     <use x="1296.681641" xlink:href="#DejaVuSans-111"/>
     <use x="1357.863281" xlink:href="#DejaVuSans-117"/>
     <use x="1421.242188" xlink:href="#DejaVuSans-100"/>
     <use x="1484.71875" xlink:href="#DejaVuSans-110"/>
     <use x="1548.097656" xlink:href="#DejaVuSans-101"/>
     <use x="1609.621094" xlink:href="#DejaVuSans-115"/>
     <use x="1661.720703" xlink:href="#DejaVuSans-115"/>
    </g>
   </g>
   <g id="legend_1">
    <g id="patch_11">
     <path d="M 331.227813 64.150125 
L 407.72 64.150125 
Q 409.72 64.150125 409.72 62.150125 
L 409.72 48.472 
Q 409.72 46.472 407.72 46.472 
L 331.227813 46.472 
Q 329.227813 46.472 329.227813 48.472 
L 329.227813 62.150125 
Q 329.227813 64.150125 331.227813 64.150125 
z
" style="fill:#ffffff;opacity:0.8;stroke:#cccccc;stroke-linejoin:miter;"/>
    </g>
    <g id="line2d_26">
     <path d="M 333.227813 54.570438 
L 353.227813 54.570438 
" style="fill:none;stroke:#008000;stroke-linecap:square;stroke-width:1.5;"/>
    </g>
    <g id="line2d_27"/>
    <g id="text_22">
     <!-- loudness -->
     <defs>
      <path d="M 9.421875 75.984375 
L 18.40625 75.984375 
L 18.40625 0 
L 9.421875 0 
z
" id="DejaVuSans-108"/>
     </defs>
     <g transform="translate(361.227813 58.070438)scale(0.1 -0.1)">
      <use xlink:href="#DejaVuSans-108"/>
      <use x="27.783203" xlink:href="#DejaVuSans-111"/>
      <use x="88.964844" xlink:href="#DejaVuSans-117"/>
      <use x="152.34375" xlink:href="#DejaVuSans-100"/>
      <use x="215.820312" xlink:href="#DejaVuSans-110"/>
      <use x="279.199219" xlink:href="#DejaVuSans-101"/>
      <use x="340.722656" xlink:href="#DejaVuSans-115"/>
      <use x="392.822266" xlink:href="#DejaVuSans-115"/>
     </g>
    </g>
   </g>
  </g>
 </g>
 <defs>
  <clipPath id="pf203e8071d">
   <rect height="266.112" width="357.12" x="57.6" y="41.472"/>
  </clipPath>
 </defs>
</svg>
