<?xml version="1.0" encoding="utf-8" standalone="no"?>
<!DOCTYPE svg PUBLIC "-//W3C//DTD SVG 1.1//EN"
  "http://www.w3.org/Graphics/SVG/1.1/DTD/svg11.dtd">
<!-- Created with matplotlib (https://matplotlib.org/) -->
<svg height="345.6pt" version="1.1" viewBox="0 0 460.8 345.6" width="460.8pt" xmlns="http://www.w3.org/2000/svg" xmlns:xlink="http://www.w3.org/1999/xlink">
 <defs>
  <style type="text/css">
*{stroke-linecap:butt;stroke-linejoin:round;}
  </style>
 </defs>
 <g id="figure_1">
  <g id="patch_1">
   <path d="M 0 345.6 
L 460.8 345.6 
L 460.8 0 
L 0 0 
z
" style="fill:#ffffff;"/>
  </g>
  <g id="axes_1">
   <g id="patch_2">
    <path d="M 57.6 307.584 
L 414.72 307.584 
L 414.72 41.472 
L 57.6 41.472 
z
" style="fill:#ffffff;"/>
   </g>
   <g id="matplotlib.axis_1">
    <g id="xtick_1">
     <g id="line2d_1">
      <path clip-path="url(#pe3db858b95)" d="M 73.832727 307.584 
L 73.832727 41.472 
" style="fill:none;stroke:#b0b0b0;stroke-linecap:square;stroke-width:0.8;"/>
     </g>
     <g id="line2d_2">
      <defs>
       <path d="M 0 0 
L 0 3.5 
" id="m15a1f53318" style="stroke:#000000;stroke-width:0.8;"/>
      </defs>
      <g>
       <use style="stroke:#000000;stroke-width:0.8;" x="73.832727" xlink:href="#m15a1f53318" y="307.584"/>
      </g>
     </g>
     <g id="text_1">
      <!-- 0 -->
      <defs>
       <path d="M 31.78125 66.40625 
Q 24.171875 66.40625 20.328125 58.90625 
Q 16.5 51.421875 16.5 36.375 
Q 16.5 21.390625 20.328125 13.890625 
Q 24.171875 6.390625 31.78125 6.390625 
Q 39.453125 6.390625 43.28125 13.890625 
Q 47.125 21.390625 47.125 36.375 
Q 47.125 51.421875 43.28125 58.90625 
Q 39.453125 66.40625 31.78125 66.40625 
z
M 31.78125 74.21875 
Q 44.046875 74.21875 50.515625 64.515625 
Q 56.984375 54.828125 56.984375 36.375 
Q 56.984375 17.96875 50.515625 8.265625 
Q 44.046875 -1.421875 31.78125 -1.421875 
Q 19.53125 -1.421875 13.0625 8.265625 
Q 6.59375 17.96875 6.59375 36.375 
Q 6.59375 54.828125 13.0625 64.515625 
Q 19.53125 74.21875 31.78125 74.21875 
z
" id="DejaVuSans-48"/>
      </defs>
      <g transform="translate(70.651477 322.182437)scale(0.1 -0.1)">
       <use xlink:href="#DejaVuSans-48"/>
      </g>
     </g>
    </g>
    <g id="xtick_2">
     <g id="line2d_3">
      <path clip-path="url(#pe3db858b95)" d="M 128.122785 307.584 
L 128.122785 41.472 
" style="fill:none;stroke:#b0b0b0;stroke-linecap:square;stroke-width:0.8;"/>
     </g>
     <g id="line2d_4">
      <g>
       <use style="stroke:#000000;stroke-width:0.8;" x="128.122785" xlink:href="#m15a1f53318" y="307.584"/>
      </g>
     </g>
     <g id="text_2">
      <!-- 50 -->
      <defs>
       <path d="M 10.796875 72.90625 
L 49.515625 72.90625 
L 49.515625 64.59375 
L 19.828125 64.59375 
L 19.828125 46.734375 
Q 21.96875 47.46875 24.109375 47.828125 
Q 26.265625 48.1875 28.421875 48.1875 
Q 40.625 48.1875 47.75 41.5 
Q 54.890625 34.8125 54.890625 23.390625 
Q 54.890625 11.625 47.5625 5.09375 
Q 40.234375 -1.421875 26.90625 -1.421875 
Q 22.3125 -1.421875 17.546875 -0.640625 
Q 12.796875 0.140625 7.71875 1.703125 
L 7.71875 11.625 
Q 12.109375 9.234375 16.796875 8.0625 
Q 21.484375 6.890625 26.703125 6.890625 
Q 35.15625 6.890625 40.078125 11.328125 
Q 45.015625 15.765625 45.015625 23.390625 
Q 45.015625 31 40.078125 35.4375 
Q 35.15625 39.890625 26.703125 39.890625 
Q 22.75 39.890625 18.8125 39.015625 
Q 14.890625 38.140625 10.796875 36.28125 
z
" id="DejaVuSans-53"/>
      </defs>
      <g transform="translate(121.760285 322.182437)scale(0.1 -0.1)">
       <use xlink:href="#DejaVuSans-53"/>
       <use x="63.623047" xlink:href="#DejaVuSans-48"/>
      </g>
     </g>
    </g>
    <g id="xtick_3">
     <g id="line2d_5">
      <path clip-path="url(#pe3db858b95)" d="M 182.412843 307.584 
L 182.412843 41.472 
" style="fill:none;stroke:#b0b0b0;stroke-linecap:square;stroke-width:0.8;"/>
     </g>
     <g id="line2d_6">
      <g>
       <use style="stroke:#000000;stroke-width:0.8;" x="182.412843" xlink:href="#m15a1f53318" y="307.584"/>
      </g>
     </g>
     <g id="text_3">
      <!-- 100 -->
      <defs>
       <path d="M 12.40625 8.296875 
L 28.515625 8.296875 
L 28.515625 63.921875 
L 10.984375 60.40625 
L 10.984375 69.390625 
L 28.421875 72.90625 
L 38.28125 72.90625 
L 38.28125 8.296875 
L 54.390625 8.296875 
L 54.390625 0 
L 12.40625 0 
z
" id="DejaVuSans-49"/>
      </defs>
      <g transform="translate(172.869093 322.182437)scale(0.1 -0.1)">
       <use xlink:href="#DejaVuSans-49"/>
       <use x="63.623047" xlink:href="#DejaVuSans-48"/>
       <use x="127.246094" xlink:href="#DejaVuSans-48"/>
      </g>
     </g>
    </g>
    <g id="xtick_4">
     <g id="line2d_7">
      <path clip-path="url(#pe3db858b95)" d="M 236.702901 307.584 
L 236.702901 41.472 
" style="fill:none;stroke:#b0b0b0;stroke-linecap:square;stroke-width:0.8;"/>
     </g>
     <g id="line2d_8">
      <g>
       <use style="stroke:#000000;stroke-width:0.8;" x="236.702901" xlink:href="#m15a1f53318" y="307.584"/>
      </g>
     </g>
     <g id="text_4">
      <!-- 150 -->
      <g transform="translate(227.159151 322.182437)scale(0.1 -0.1)">
       <use xlink:href="#DejaVuSans-49"/>
       <use x="63.623047" xlink:href="#DejaVuSans-53"/>
       <use x="127.246094" xlink:href="#DejaVuSans-48"/>
      </g>
     </g>
    </g>
    <g id="xtick_5">
     <g id="line2d_9">
      <path clip-path="url(#pe3db858b95)" d="M 290.992958 307.584 
L 290.992958 41.472 
" style="fill:none;stroke:#b0b0b0;stroke-linecap:square;stroke-width:0.8;"/>
     </g>
     <g id="line2d_10">
      <g>
       <use style="stroke:#000000;stroke-width:0.8;" x="290.992958" xlink:href="#m15a1f53318" y="307.584"/>
      </g>
     </g>
     <g id="text_5">
      <!-- 200 -->
      <defs>
       <path d="M 19.1875 8.296875 
L 53.609375 8.296875 
L 53.609375 0 
L 7.328125 0 
L 7.328125 8.296875 
Q 12.9375 14.109375 22.625 23.890625 
Q 32.328125 33.6875 34.8125 36.53125 
Q 39.546875 41.84375 41.421875 45.53125 
Q 43.3125 49.21875 43.3125 52.78125 
Q 43.3125 58.59375 39.234375 62.25 
Q 35.15625 65.921875 28.609375 65.921875 
Q 23.96875 65.921875 18.8125 64.3125 
Q 13.671875 62.703125 7.8125 59.421875 
L 7.8125 69.390625 
Q 13.765625 71.78125 18.9375 73 
Q 24.125 74.21875 28.421875 74.21875 
Q 39.75 74.21875 46.484375 68.546875 
Q 53.21875 62.890625 53.21875 53.421875 
Q 53.21875 48.921875 51.53125 44.890625 
Q 49.859375 40.875 45.40625 35.40625 
Q 44.1875 33.984375 37.640625 27.21875 
Q 31.109375 20.453125 19.1875 8.296875 
z
" id="DejaVuSans-50"/>
      </defs>
      <g transform="translate(281.449208 322.182437)scale(0.1 -0.1)">
       <use xlink:href="#DejaVuSans-50"/>
       <use x="63.623047" xlink:href="#DejaVuSans-48"/>
       <use x="127.246094" xlink:href="#DejaVuSans-48"/>
      </g>
     </g>
    </g>
    <g id="xtick_6">
     <g id="line2d_11">
      <path clip-path="url(#pe3db858b95)" d="M 345.283016 307.584 
L 345.283016 41.472 
" style="fill:none;stroke:#b0b0b0;stroke-linecap:square;stroke-width:0.8;"/>
     </g>
     <g id="line2d_12">
      <g>
       <use style="stroke:#000000;stroke-width:0.8;" x="345.283016" xlink:href="#m15a1f53318" y="307.584"/>
      </g>
     </g>
     <g id="text_6">
      <!-- 250 -->
      <g transform="translate(335.739266 322.182437)scale(0.1 -0.1)">
       <use xlink:href="#DejaVuSans-50"/>
       <use x="63.623047" xlink:href="#DejaVuSans-53"/>
       <use x="127.246094" xlink:href="#DejaVuSans-48"/>
      </g>
     </g>
    </g>
    <g id="xtick_7">
     <g id="line2d_13">
      <path clip-path="url(#pe3db858b95)" d="M 399.573074 307.584 
L 399.573074 41.472 
" style="fill:none;stroke:#b0b0b0;stroke-linecap:square;stroke-width:0.8;"/>
     </g>
     <g id="line2d_14">
      <g>
       <use style="stroke:#000000;stroke-width:0.8;" x="399.573074" xlink:href="#m15a1f53318" y="307.584"/>
      </g>
     </g>
     <g id="text_7">
      <!-- 300 -->
      <defs>
       <path d="M 40.578125 39.3125 
Q 47.65625 37.796875 51.625 33 
Q 55.609375 28.21875 55.609375 21.1875 
Q 55.609375 10.40625 48.1875 4.484375 
Q 40.765625 -1.421875 27.09375 -1.421875 
Q 22.515625 -1.421875 17.65625 -0.515625 
Q 12.796875 0.390625 7.625 2.203125 
L 7.625 11.71875 
Q 11.71875 9.328125 16.59375 8.109375 
Q 21.484375 6.890625 26.8125 6.890625 
Q 36.078125 6.890625 40.9375 10.546875 
Q 45.796875 14.203125 45.796875 21.1875 
Q 45.796875 27.640625 41.28125 31.265625 
Q 36.765625 34.90625 28.71875 34.90625 
L 20.21875 34.90625 
L 20.21875 43.015625 
L 29.109375 43.015625 
Q 36.375 43.015625 40.234375 45.921875 
Q 44.09375 48.828125 44.09375 54.296875 
Q 44.09375 59.90625 40.109375 62.90625 
Q 36.140625 65.921875 28.71875 65.921875 
Q 24.65625 65.921875 20.015625 65.03125 
Q 15.375 64.15625 9.8125 62.3125 
L 9.8125 71.09375 
Q 15.4375 72.65625 20.34375 73.4375 
Q 25.25 74.21875 29.59375 74.21875 
Q 40.828125 74.21875 47.359375 69.109375 
Q 53.90625 64.015625 53.90625 55.328125 
Q 53.90625 49.265625 50.4375 45.09375 
Q 46.96875 40.921875 40.578125 39.3125 
z
" id="DejaVuSans-51"/>
      </defs>
      <g transform="translate(390.029324 322.182437)scale(0.1 -0.1)">
       <use xlink:href="#DejaVuSans-51"/>
       <use x="63.623047" xlink:href="#DejaVuSans-48"/>
       <use x="127.246094" xlink:href="#DejaVuSans-48"/>
      </g>
     </g>
    </g>
    <g id="text_8">
     <!-- Generations -->
     <defs>
      <path d="M 59.515625 10.40625 
L 59.515625 29.984375 
L 43.40625 29.984375 
L 43.40625 38.09375 
L 69.28125 38.09375 
L 69.28125 6.78125 
Q 63.578125 2.734375 56.6875 0.65625 
Q 49.8125 -1.421875 42 -1.421875 
Q 24.90625 -1.421875 15.25 8.5625 
Q 5.609375 18.5625 5.609375 36.375 
Q 5.609375 54.25 15.25 64.234375 
Q 24.90625 74.21875 42 74.21875 
Q 49.125 74.21875 55.546875 72.453125 
Q 61.96875 70.703125 67.390625 67.28125 
L 67.390625 56.78125 
Q 61.921875 61.421875 55.765625 63.765625 
Q 49.609375 66.109375 42.828125 66.109375 
Q 29.4375 66.109375 22.71875 58.640625 
Q 16.015625 51.171875 16.015625 36.375 
Q 16.015625 21.625 22.71875 14.15625 
Q 29.4375 6.6875 42.828125 6.6875 
Q 48.046875 6.6875 52.140625 7.59375 
Q 56.25 8.5 59.515625 10.40625 
z
" id="DejaVuSans-71"/>
      <path d="M 56.203125 29.59375 
L 56.203125 25.203125 
L 14.890625 25.203125 
Q 15.484375 15.921875 20.484375 11.0625 
Q 25.484375 6.203125 34.421875 6.203125 
Q 39.59375 6.203125 44.453125 7.46875 
Q 49.3125 8.734375 54.109375 11.28125 
L 54.109375 2.78125 
Q 49.265625 0.734375 44.1875 -0.34375 
Q 39.109375 -1.421875 33.890625 -1.421875 
Q 20.796875 -1.421875 13.15625 6.1875 
Q 5.515625 13.8125 5.515625 26.8125 
Q 5.515625 40.234375 12.765625 48.109375 
Q 20.015625 56 32.328125 56 
Q 43.359375 56 49.78125 48.890625 
Q 56.203125 41.796875 56.203125 29.59375 
z
M 47.21875 32.234375 
Q 47.125 39.59375 43.09375 43.984375 
Q 39.0625 48.390625 32.421875 48.390625 
Q 24.90625 48.390625 20.390625 44.140625 
Q 15.875 39.890625 15.1875 32.171875 
z
" id="DejaVuSans-101"/>
      <path d="M 54.890625 33.015625 
L 54.890625 0 
L 45.90625 0 
L 45.90625 32.71875 
Q 45.90625 40.484375 42.875 44.328125 
Q 39.84375 48.1875 33.796875 48.1875 
Q 26.515625 48.1875 22.3125 43.546875 
Q 18.109375 38.921875 18.109375 30.90625 
L 18.109375 0 
L 9.078125 0 
L 9.078125 54.6875 
L 18.109375 54.6875 
L 18.109375 46.1875 
Q 21.34375 51.125 25.703125 53.5625 
Q 30.078125 56 35.796875 56 
Q 45.21875 56 50.046875 50.171875 
Q 54.890625 44.34375 54.890625 33.015625 
z
" id="DejaVuSans-110"/>
      <path d="M 41.109375 46.296875 
Q 39.59375 47.171875 37.8125 47.578125 
Q 36.03125 48 33.890625 48 
Q 26.265625 48 22.1875 43.046875 
Q 18.109375 38.09375 18.109375 28.8125 
L 18.109375 0 
L 9.078125 0 
L 9.078125 54.6875 
L 18.109375 54.6875 
L 18.109375 46.1875 
Q 20.953125 51.171875 25.484375 53.578125 
Q 30.03125 56 36.53125 56 
Q 37.453125 56 38.578125 55.875 
Q 39.703125 55.765625 41.0625 55.515625 
z
" id="DejaVuSans-114"/>
      <path d="M 34.28125 27.484375 
Q 23.390625 27.484375 19.1875 25 
Q 14.984375 22.515625 14.984375 16.5 
Q 14.984375 11.71875 18.140625 8.90625 
Q 21.296875 6.109375 26.703125 6.109375 
Q 34.1875 6.109375 38.703125 11.40625 
Q 43.21875 16.703125 43.21875 25.484375 
L 43.21875 27.484375 
z
M 52.203125 31.203125 
L 52.203125 0 
L 43.21875 0 
L 43.21875 8.296875 
Q 40.140625 3.328125 35.546875 0.953125 
Q 30.953125 -1.421875 24.3125 -1.421875 
Q 15.921875 -1.421875 10.953125 3.296875 
Q 6 8.015625 6 15.921875 
Q 6 25.140625 12.171875 29.828125 
Q 18.359375 34.515625 30.609375 34.515625 
L 43.21875 34.515625 
L 43.21875 35.40625 
Q 43.21875 41.609375 39.140625 45 
Q 35.0625 48.390625 27.6875 48.390625 
Q 23 48.390625 18.546875 47.265625 
Q 14.109375 46.140625 10.015625 43.890625 
L 10.015625 52.203125 
Q 14.9375 54.109375 19.578125 55.046875 
Q 24.21875 56 28.609375 56 
Q 40.484375 56 46.34375 49.84375 
Q 52.203125 43.703125 52.203125 31.203125 
z
" id="DejaVuSans-97"/>
      <path d="M 18.3125 70.21875 
L 18.3125 54.6875 
L 36.8125 54.6875 
L 36.8125 47.703125 
L 18.3125 47.703125 
L 18.3125 18.015625 
Q 18.3125 11.328125 20.140625 9.421875 
Q 21.96875 7.515625 27.59375 7.515625 
L 36.8125 7.515625 
L 36.8125 0 
L 27.59375 0 
Q 17.1875 0 13.234375 3.875 
Q 9.28125 7.765625 9.28125 18.015625 
L 9.28125 47.703125 
L 2.6875 47.703125 
L 2.6875 54.6875 
L 9.28125 54.6875 
L 9.28125 70.21875 
z
" id="DejaVuSans-116"/>
      <path d="M 9.421875 54.6875 
L 18.40625 54.6875 
L 18.40625 0 
L 9.421875 0 
z
M 9.421875 75.984375 
L 18.40625 75.984375 
L 18.40625 64.59375 
L 9.421875 64.59375 
z
" id="DejaVuSans-105"/>
      <path d="M 30.609375 48.390625 
Q 23.390625 48.390625 19.1875 42.75 
Q 14.984375 37.109375 14.984375 27.296875 
Q 14.984375 17.484375 19.15625 11.84375 
Q 23.34375 6.203125 30.609375 6.203125 
Q 37.796875 6.203125 41.984375 11.859375 
Q 46.1875 17.53125 46.1875 27.296875 
Q 46.1875 37.015625 41.984375 42.703125 
Q 37.796875 48.390625 30.609375 48.390625 
z
M 30.609375 56 
Q 42.328125 56 49.015625 48.375 
Q 55.71875 40.765625 55.71875 27.296875 
Q 55.71875 13.875 49.015625 6.21875 
Q 42.328125 -1.421875 30.609375 -1.421875 
Q 18.84375 -1.421875 12.171875 6.21875 
Q 5.515625 13.875 5.515625 27.296875 
Q 5.515625 40.765625 12.171875 48.375 
Q 18.84375 56 30.609375 56 
z
" id="DejaVuSans-111"/>
      <path d="M 44.28125 53.078125 
L 44.28125 44.578125 
Q 40.484375 46.53125 36.375 47.5 
Q 32.28125 48.484375 27.875 48.484375 
Q 21.1875 48.484375 17.84375 46.4375 
Q 14.5 44.390625 14.5 40.28125 
Q 14.5 37.15625 16.890625 35.375 
Q 19.28125 33.59375 26.515625 31.984375 
L 29.59375 31.296875 
Q 39.15625 29.25 43.1875 25.515625 
Q 47.21875 21.78125 47.21875 15.09375 
Q 47.21875 7.46875 41.1875 3.015625 
Q 35.15625 -1.421875 24.609375 -1.421875 
Q 20.21875 -1.421875 15.453125 -0.5625 
Q 10.6875 0.296875 5.421875 2 
L 5.421875 11.28125 
Q 10.40625 8.6875 15.234375 7.390625 
Q 20.0625 6.109375 24.8125 6.109375 
Q 31.15625 6.109375 34.5625 8.28125 
Q 37.984375 10.453125 37.984375 14.40625 
Q 37.984375 18.0625 35.515625 20.015625 
Q 33.0625 21.96875 24.703125 23.78125 
L 21.578125 24.515625 
Q 13.234375 26.265625 9.515625 29.90625 
Q 5.8125 33.546875 5.8125 39.890625 
Q 5.8125 47.609375 11.28125 51.796875 
Q 16.75 56 26.8125 56 
Q 31.78125 56 36.171875 55.265625 
Q 40.578125 54.546875 44.28125 53.078125 
z
" id="DejaVuSans-115"/>
     </defs>
     <g transform="translate(205.662344 335.860562)scale(0.1 -0.1)">
      <use xlink:href="#DejaVuSans-71"/>
      <use x="77.490234" xlink:href="#DejaVuSans-101"/>
      <use x="139.013672" xlink:href="#DejaVuSans-110"/>
      <use x="202.392578" xlink:href="#DejaVuSans-101"/>
      <use x="263.916016" xlink:href="#DejaVuSans-114"/>
      <use x="305.029297" xlink:href="#DejaVuSans-97"/>
      <use x="366.308594" xlink:href="#DejaVuSans-116"/>
      <use x="405.517578" xlink:href="#DejaVuSans-105"/>
      <use x="433.300781" xlink:href="#DejaVuSans-111"/>
      <use x="494.482422" xlink:href="#DejaVuSans-110"/>
      <use x="557.861328" xlink:href="#DejaVuSans-115"/>
     </g>
    </g>
   </g>
   <g id="matplotlib.axis_2">
    <g id="ytick_1">
     <g id="line2d_15">
      <path clip-path="url(#pe3db858b95)" d="M 57.6 299.738159 
L 414.72 299.738159 
" style="fill:none;stroke:#b0b0b0;stroke-linecap:square;stroke-width:0.8;"/>
     </g>
     <g id="line2d_16">
      <defs>
       <path d="M 0 0 
L -3.5 0 
" id="m2dd5c6b534" style="stroke:#000000;stroke-width:0.8;"/>
      </defs>
      <g>
       <use style="stroke:#000000;stroke-width:0.8;" x="57.6" xlink:href="#m2dd5c6b534" y="299.738159"/>
      </g>
     </g>
     <g id="text_9">
      <!-- 500 -->
      <g transform="translate(31.5125 303.537378)scale(0.1 -0.1)">
       <use xlink:href="#DejaVuSans-53"/>
       <use x="63.623047" xlink:href="#DejaVuSans-48"/>
       <use x="127.246094" xlink:href="#DejaVuSans-48"/>
      </g>
     </g>
    </g>
    <g id="ytick_2">
     <g id="line2d_17">
      <path clip-path="url(#pe3db858b95)" d="M 57.6 269.194619 
L 414.72 269.194619 
" style="fill:none;stroke:#b0b0b0;stroke-linecap:square;stroke-width:0.8;"/>
     </g>
     <g id="line2d_18">
      <g>
       <use style="stroke:#000000;stroke-width:0.8;" x="57.6" xlink:href="#m2dd5c6b534" y="269.194619"/>
      </g>
     </g>
     <g id="text_10">
      <!-- 750 -->
      <defs>
       <path d="M 8.203125 72.90625 
L 55.078125 72.90625 
L 55.078125 68.703125 
L 28.609375 0 
L 18.3125 0 
L 43.21875 64.59375 
L 8.203125 64.59375 
z
" id="DejaVuSans-55"/>
      </defs>
      <g transform="translate(31.5125 272.993838)scale(0.1 -0.1)">
       <use xlink:href="#DejaVuSans-55"/>
       <use x="63.623047" xlink:href="#DejaVuSans-53"/>
       <use x="127.246094" xlink:href="#DejaVuSans-48"/>
      </g>
     </g>
    </g>
    <g id="ytick_3">
     <g id="line2d_19">
      <path clip-path="url(#pe3db858b95)" d="M 57.6 238.65108 
L 414.72 238.65108 
" style="fill:none;stroke:#b0b0b0;stroke-linecap:square;stroke-width:0.8;"/>
     </g>
     <g id="line2d_20">
      <g>
       <use style="stroke:#000000;stroke-width:0.8;" x="57.6" xlink:href="#m2dd5c6b534" y="238.65108"/>
      </g>
     </g>
     <g id="text_11">
      <!-- 1000 -->
      <g transform="translate(25.15 242.450298)scale(0.1 -0.1)">
       <use xlink:href="#DejaVuSans-49"/>
       <use x="63.623047" xlink:href="#DejaVuSans-48"/>
       <use x="127.246094" xlink:href="#DejaVuSans-48"/>
       <use x="190.869141" xlink:href="#DejaVuSans-48"/>
      </g>
     </g>
    </g>
    <g id="ytick_4">
     <g id="line2d_21">
      <path clip-path="url(#pe3db858b95)" d="M 57.6 208.10754 
L 414.72 208.10754 
" style="fill:none;stroke:#b0b0b0;stroke-linecap:square;stroke-width:0.8;"/>
     </g>
     <g id="line2d_22">
      <g>
       <use style="stroke:#000000;stroke-width:0.8;" x="57.6" xlink:href="#m2dd5c6b534" y="208.10754"/>
      </g>
     </g>
     <g id="text_12">
      <!-- 1250 -->
      <g transform="translate(25.15 211.906759)scale(0.1 -0.1)">
       <use xlink:href="#DejaVuSans-49"/>
       <use x="63.623047" xlink:href="#DejaVuSans-50"/>
       <use x="127.246094" xlink:href="#DejaVuSans-53"/>
       <use x="190.869141" xlink:href="#DejaVuSans-48"/>
      </g>
     </g>
    </g>
    <g id="ytick_5">
     <g id="line2d_23">
      <path clip-path="url(#pe3db858b95)" d="M 57.6 177.564 
L 414.72 177.564 
" style="fill:none;stroke:#b0b0b0;stroke-linecap:square;stroke-width:0.8;"/>
     </g>
     <g id="line2d_24">
      <g>
       <use style="stroke:#000000;stroke-width:0.8;" x="57.6" xlink:href="#m2dd5c6b534" y="177.564"/>
      </g>
     </g>
     <g id="text_13">
      <!-- 1500 -->
      <g transform="translate(25.15 181.363219)scale(0.1 -0.1)">
       <use xlink:href="#DejaVuSans-49"/>
       <use x="63.623047" xlink:href="#DejaVuSans-53"/>
       <use x="127.246094" xlink:href="#DejaVuSans-48"/>
       <use x="190.869141" xlink:href="#DejaVuSans-48"/>
      </g>
     </g>
    </g>
    <g id="ytick_6">
     <g id="line2d_25">
      <path clip-path="url(#pe3db858b95)" d="M 57.6 147.02046 
L 414.72 147.02046 
" style="fill:none;stroke:#b0b0b0;stroke-linecap:square;stroke-width:0.8;"/>
     </g>
     <g id="line2d_26">
      <g>
       <use style="stroke:#000000;stroke-width:0.8;" x="57.6" xlink:href="#m2dd5c6b534" y="147.02046"/>
      </g>
     </g>
     <g id="text_14">
      <!-- 1750 -->
      <g transform="translate(25.15 150.819679)scale(0.1 -0.1)">
       <use xlink:href="#DejaVuSans-49"/>
       <use x="63.623047" xlink:href="#DejaVuSans-55"/>
       <use x="127.246094" xlink:href="#DejaVuSans-53"/>
       <use x="190.869141" xlink:href="#DejaVuSans-48"/>
      </g>
     </g>
    </g>
    <g id="ytick_7">
     <g id="line2d_27">
      <path clip-path="url(#pe3db858b95)" d="M 57.6 116.476921 
L 414.72 116.476921 
" style="fill:none;stroke:#b0b0b0;stroke-linecap:square;stroke-width:0.8;"/>
     </g>
     <g id="line2d_28">
      <g>
       <use style="stroke:#000000;stroke-width:0.8;" x="57.6" xlink:href="#m2dd5c6b534" y="116.476921"/>
      </g>
     </g>
     <g id="text_15">
      <!-- 2000 -->
      <g transform="translate(25.15 120.276139)scale(0.1 -0.1)">
       <use xlink:href="#DejaVuSans-50"/>
       <use x="63.623047" xlink:href="#DejaVuSans-48"/>
       <use x="127.246094" xlink:href="#DejaVuSans-48"/>
       <use x="190.869141" xlink:href="#DejaVuSans-48"/>
      </g>
     </g>
    </g>
    <g id="ytick_8">
     <g id="line2d_29">
      <path clip-path="url(#pe3db858b95)" d="M 57.6 85.933381 
L 414.72 85.933381 
" style="fill:none;stroke:#b0b0b0;stroke-linecap:square;stroke-width:0.8;"/>
     </g>
     <g id="line2d_30">
      <g>
       <use style="stroke:#000000;stroke-width:0.8;" x="57.6" xlink:href="#m2dd5c6b534" y="85.933381"/>
      </g>
     </g>
     <g id="text_16">
      <!-- 2250 -->
      <g transform="translate(25.15 89.7326)scale(0.1 -0.1)">
       <use xlink:href="#DejaVuSans-50"/>
       <use x="63.623047" xlink:href="#DejaVuSans-50"/>
       <use x="127.246094" xlink:href="#DejaVuSans-53"/>
       <use x="190.869141" xlink:href="#DejaVuSans-48"/>
      </g>
     </g>
    </g>
    <g id="ytick_9">
     <g id="line2d_31">
      <path clip-path="url(#pe3db858b95)" d="M 57.6 55.389841 
L 414.72 55.389841 
" style="fill:none;stroke:#b0b0b0;stroke-linecap:square;stroke-width:0.8;"/>
     </g>
     <g id="line2d_32">
      <g>
       <use style="stroke:#000000;stroke-width:0.8;" x="57.6" xlink:href="#m2dd5c6b534" y="55.389841"/>
      </g>
     </g>
     <g id="text_17">
      <!-- 2500 -->
      <g transform="translate(25.15 59.18906)scale(0.1 -0.1)">
       <use xlink:href="#DejaVuSans-50"/>
       <use x="63.623047" xlink:href="#DejaVuSans-53"/>
       <use x="127.246094" xlink:href="#DejaVuSans-48"/>
       <use x="190.869141" xlink:href="#DejaVuSans-48"/>
      </g>
     </g>
    </g>
    <g id="text_18">
     <!-- Fitness -->
     <defs>
      <path d="M 9.8125 72.90625 
L 51.703125 72.90625 
L 51.703125 64.59375 
L 19.671875 64.59375 
L 19.671875 43.109375 
L 48.578125 43.109375 
L 48.578125 34.8125 
L 19.671875 34.8125 
L 19.671875 0 
L 9.8125 0 
z
" id="DejaVuSans-70"/>
     </defs>
     <g transform="translate(19.070312 192.202219)rotate(-90)scale(0.1 -0.1)">
      <use xlink:href="#DejaVuSans-70"/>
      <use x="57.410156" xlink:href="#DejaVuSans-105"/>
      <use x="85.193359" xlink:href="#DejaVuSans-116"/>
      <use x="124.402344" xlink:href="#DejaVuSans-110"/>
      <use x="187.78125" xlink:href="#DejaVuSans-101"/>
      <use x="249.304688" xlink:href="#DejaVuSans-115"/>
      <use x="301.404297" xlink:href="#DejaVuSans-115"/>
     </g>
    </g>
   </g>
   <g id="line2d_33">
    <path clip-path="url(#pe3db858b95)" d="M 73.832727 256.841845 
L 74.918528 231.01711 
L 76.00433 214.847923 
L 77.090131 212.327764 
L 78.175932 206.855039 
L 79.261733 188.871351 
L 80.347534 210.589748 
L 81.433335 185.218849 
L 82.519137 180.625226 
L 83.604938 175.418689 
L 84.690739 180.242075 
L 85.77654 176.072434 
L 86.862341 184.124667 
L 87.948142 167.57224 
L 89.033943 174.771379 
L 90.119745 176.838881 
L 91.205546 181.125611 
L 92.291347 167.82208 
L 93.377148 167.799333 
L 94.462949 178.422227 
L 95.54875 169.244352 
L 96.634552 164.218231 
L 97.720353 156.426495 
L 99.891955 168.074205 
L 100.977756 169.873665 
L 102.063557 155.211478 
L 103.149358 169.489664 
L 104.23516 161.717804 
L 105.320961 173.092522 
L 106.406762 172.009291 
L 107.492563 170.628088 
L 108.578364 170.320667 
L 109.664165 162.303963 
L 110.749967 161.641664 
L 111.835768 162.147163 
L 112.921569 158.235241 
L 114.00737 158.102545 
L 115.093171 169.568719 
L 116.178972 187.022533 
L 117.264773 159.22502 
L 118.350575 150.000588 
L 119.436376 159.859344 
L 120.522177 157.750184 
L 121.607978 151.882013 
L 122.693779 154.069267 
L 123.77958 157.485322 
L 124.865382 145.749961 
L 125.951183 163.803148 
L 127.036984 151.678497 
L 128.122785 156.18481 
L 129.208586 151.105922 
L 130.294387 141.653354 
L 131.380189 150.748879 
L 132.46599 169.865557 
L 134.637592 137.944131 
L 135.723393 164.146033 
L 136.809194 149.581408 
L 137.894995 144.95281 
L 138.980797 149.47178 
L 140.066598 166.764126 
L 141.152399 164.31586 
L 142.2382 154.094576 
L 143.324001 153.789886 
L 144.409802 151.506462 
L 145.495604 166.744584 
L 146.581405 147.728943 
L 147.667206 147.257186 
L 148.753007 140.946382 
L 149.838808 143.632459 
L 150.924609 144.651183 
L 152.01041 149.017742 
L 153.096212 136.784 
L 155.267814 137.662103 
L 156.353615 121.643784 
L 157.439416 127.893398 
L 158.525217 148.895576 
L 159.611019 144.1787 
L 160.69682 143.894946 
L 161.782621 144.07879 
L 162.868422 138.226703 
L 163.954223 131.424089 
L 165.040024 139.542877 
L 166.125825 144.836698 
L 167.211627 139.50308 
L 168.297428 136.00365 
L 169.383229 133.854768 
L 170.46903 126.131261 
L 171.554831 140.656668 
L 172.640632 116.441028 
L 173.726434 121.602118 
L 174.812235 121.20782 
L 175.898036 134.783984 
L 176.983837 134.881918 
L 178.069638 134.811557 
L 179.155439 143.731641 
L 180.24124 133.35098 
L 181.327042 138.420398 
L 182.412843 133.56192 
L 183.498644 132.752793 
L 184.584445 131.760523 
L 185.670246 132.522588 
L 186.756047 131.160316 
L 187.841849 123.829861 
L 188.92765 133.64493 
L 190.013451 140.504116 
L 191.099252 123.699507 
L 192.185053 134.378683 
L 193.270854 128.888778 
L 194.356656 134.516201 
L 195.442457 133.904066 
L 197.614059 129.589542 
L 198.69986 124.202357 
L 199.785661 123.649753 
L 200.871462 121.260198 
L 201.957264 121.104116 
L 203.043065 125.425177 
L 204.128866 126.211708 
L 205.214667 125.583562 
L 206.300468 127.122553 
L 207.386269 126.151039 
L 208.472071 110.347697 
L 209.557872 101.541842 
L 210.643673 125.686783 
L 211.729474 120.975621 
L 212.815275 115.044136 
L 213.901076 118.208907 
L 214.986877 119.513466 
L 216.072679 111.844346 
L 217.15848 117.132862 
L 218.244281 111.233082 
L 219.330082 116.772713 
L 220.415883 105.50271 
L 221.501684 128.403401 
L 222.587486 112.951358 
L 223.673287 117.311148 
L 224.759088 108.413198 
L 225.844889 110.424653 
L 226.93069 114.002733 
L 228.016491 108.373691 
L 229.102292 118.764582 
L 230.188094 116.931319 
L 231.273895 102.879777 
L 232.359696 115.161083 
L 233.445497 118.971647 
L 234.531298 116.063298 
L 235.617099 119.691794 
L 236.702901 109.030934 
L 238.874503 122.838283 
L 239.960304 112.442316 
L 241.046105 113.114659 
L 242.131906 113.465335 
L 243.217708 116.49767 
L 244.303509 121.096416 
L 245.38931 113.729977 
L 246.475111 103.905438 
L 247.560912 105.417655 
L 248.646713 105.667488 
L 249.732514 106.680875 
L 250.818316 119.830042 
L 251.904117 110.82682 
L 252.989918 104.677624 
L 254.075719 108.869831 
L 255.16152 125.677672 
L 256.247321 105.140523 
L 257.333123 111.184415 
L 258.418924 113.477323 
L 259.504725 112.729833 
L 260.590526 108.97459 
L 261.676327 120.608931 
L 262.762128 112.262791 
L 263.847929 117.19949 
L 264.933731 113.849818 
L 266.019532 114.864671 
L 267.105333 127.349662 
L 268.191134 114.181566 
L 269.276935 140.538146 
L 270.362736 121.28347 
L 271.448538 125.333369 
L 272.534339 118.480576 
L 273.62014 117.660587 
L 274.705941 115.34477 
L 275.791742 113.30276 
L 276.877543 113.854163 
L 277.963344 105.642473 
L 279.049146 116.107926 
L 280.134947 106.70292 
L 281.220748 112.607366 
L 282.306549 96.474094 
L 283.39235 110.766185 
L 284.478151 101.606669 
L 285.563953 108.291912 
L 286.649754 104.874469 
L 287.735555 108.334962 
L 288.821356 113.692028 
L 289.907157 110.469229 
L 290.992958 96.128033 
L 293.164561 103.269623 
L 294.250362 111.604414 
L 295.336163 106.890292 
L 296.421964 111.78704 
L 297.507765 105.250206 
L 298.593566 124.490358 
L 299.679368 101.767212 
L 300.765169 105.795025 
L 301.85097 115.69763 
L 302.936771 121.344345 
L 304.022572 112.380559 
L 305.108373 108.738221 
L 306.194175 110.191003 
L 307.279976 109.965073 
L 308.365777 113.623787 
L 309.451578 104.42352 
L 310.537379 103.352188 
L 311.62318 106.277217 
L 312.708981 100.824628 
L 313.794783 98.835057 
L 314.880584 107.77289 
L 315.966385 104.841459 
L 317.052186 104.584893 
L 318.137987 94.413767 
L 319.223788 107.48856 
L 320.30959 111.273496 
L 321.395391 99.159406 
L 322.481192 105.240476 
L 323.566993 105.473675 
L 324.652794 108.883146 
L 325.738595 105.152349 
L 326.824396 103.843166 
L 327.910198 110.689924 
L 328.995999 114.828216 
L 330.0818 110.539304 
L 331.167601 119.323022 
L 332.253402 116.968695 
L 333.339203 115.971515 
L 334.425005 125.512872 
L 335.510806 118.979841 
L 336.596607 109.62947 
L 337.682408 108.06098 
L 338.768209 106.187545 
L 339.85401 102.989904 
L 340.939811 110.827049 
L 342.025613 116.356797 
L 343.111414 110.301153 
L 344.197215 106.33128 
L 345.283016 98.642861 
L 346.368817 110.090326 
L 347.454618 116.463991 
L 348.54042 104.885371 
L 349.626221 101.711156 
L 350.712022 111.451162 
L 351.797823 122.656512 
L 352.883624 103.736432 
L 353.969425 110.13671 
L 355.055227 105.917395 
L 356.141028 96.78144 
L 357.226829 108.544196 
L 358.31263 130.102897 
L 359.398431 121.803954 
L 360.484232 119.323056 
L 361.570033 122.264193 
L 362.655835 117.95759 
L 363.741636 114.784917 
L 364.827437 109.663133 
L 365.913238 131.523548 
L 366.999039 116.355852 
L 368.08484 110.102888 
L 369.170642 106.608678 
L 370.256443 113.093646 
L 371.342244 126.902741 
L 372.428045 97.218243 
L 373.513846 116.359282 
L 374.599647 107.040053 
L 375.685448 116.873604 
L 376.77125 105.173228 
L 377.857051 114.117995 
L 378.942852 121.025475 
L 380.028653 112.877987 
L 381.114454 106.089966 
L 382.200255 118.691163 
L 383.286057 110.856602 
L 384.371858 130.936197 
L 386.54346 114.44474 
L 387.629261 88.94463 
L 388.715062 125.47704 
L 389.800863 115.70367 
L 390.886665 110.067679 
L 391.972466 103.623664 
L 393.058267 111.188478 
L 394.144068 116.517644 
L 395.229869 119.350577 
L 396.31567 120.243085 
L 397.401472 117.552916 
L 398.487273 118.874013 
L 398.487273 118.874013 
" style="fill:none;stroke:#0000ff;stroke-linecap:square;stroke-width:1.5;"/>
   </g>
   <g id="line2d_34">
    <path clip-path="url(#pe3db858b95)" d="M 73.832727 295.488 
L 76.00433 230.056562 
L 77.090131 247.978322 
L 78.175932 243.653205 
L 79.261733 228.402205 
L 80.347534 256.298438 
L 81.433335 216.67787 
L 82.519137 215.668109 
L 83.604938 215.474707 
L 84.690739 224.357251 
L 85.77654 209.26036 
L 86.862341 215.7125 
L 87.948142 191.754725 
L 89.033943 211.498561 
L 90.119745 208.549202 
L 91.205546 218.880248 
L 92.291347 194.44366 
L 93.377148 196.735651 
L 94.462949 230.27872 
L 95.54875 220.389573 
L 96.634552 201.823273 
L 97.720353 196.498655 
L 98.806154 194.538721 
L 99.891955 206.463755 
L 100.977756 211.718787 
L 102.063557 181.221132 
L 103.149358 213.681198 
L 104.23516 199.442349 
L 105.320961 198.106229 
L 106.406762 206.50961 
L 107.492563 202.168022 
L 108.578364 200.714638 
L 110.749967 202.045451 
L 111.835768 215.815378 
L 112.921569 210.010896 
L 114.00737 196.856793 
L 116.178972 250.993356 
L 117.264773 206.176014 
L 118.350575 192.270788 
L 119.436376 205.838364 
L 120.522177 207.145496 
L 121.607978 205.499447 
L 122.693779 200.868725 
L 123.77958 213.353929 
L 124.865382 187.917724 
L 125.951183 227.036067 
L 127.036984 202.690106 
L 128.122785 212.562927 
L 129.208586 207.509247 
L 130.294387 186.650305 
L 131.380189 193.091316 
L 132.46599 224.954802 
L 133.551791 210.703794 
L 134.637592 180.371236 
L 135.723393 227.433931 
L 136.809194 203.1519 
L 137.894995 191.287848 
L 138.980797 211.954001 
L 140.066598 238.80717 
L 141.152399 233.503973 
L 142.2382 214.53852 
L 143.324001 199.909266 
L 144.409802 205.049607 
L 145.495604 241.046025 
L 146.581405 196.493573 
L 147.667206 201.343944 
L 148.753007 196.875676 
L 149.838808 210.756563 
L 150.924609 194.646975 
L 152.01041 210.289949 
L 153.096212 179.886742 
L 154.182013 189.82968 
L 155.267814 190.809244 
L 156.353615 150.020876 
L 157.439416 167.402057 
L 158.525217 207.96536 
L 159.611019 188.715123 
L 160.69682 188.434538 
L 161.782621 203.422116 
L 162.868422 193.51492 
L 163.954223 171.816145 
L 165.040024 185.531394 
L 166.125825 202.879318 
L 167.211627 200.048511 
L 168.297428 184.777555 
L 169.383229 186.969851 
L 170.46903 165.518789 
L 171.554831 202.727374 
L 172.640632 155.852278 
L 173.726434 152.287264 
L 174.812235 159.731335 
L 175.898036 185.942499 
L 176.983837 173.786729 
L 178.069638 167.855145 
L 179.155439 193.495162 
L 180.24124 167.869958 
L 181.327042 186.43779 
L 182.412843 173.338211 
L 183.498644 177.442565 
L 184.584445 186.23444 
L 185.670246 187.438314 
L 186.756047 181.766803 
L 187.841849 177.780158 
L 188.92765 192.705515 
L 190.013451 204.084981 
L 191.099252 169.001686 
L 192.185053 190.168137 
L 193.270854 182.814452 
L 194.356656 189.256273 
L 195.442457 201.932316 
L 196.528258 192.314287 
L 197.614059 188.319977 
L 198.69986 172.521484 
L 199.785661 173.960549 
L 200.871462 159.827649 
L 201.957264 169.538706 
L 203.043065 177.196859 
L 204.128866 173.803785 
L 205.214667 172.034264 
L 206.300468 190.250254 
L 207.386269 174.289927 
L 208.472071 143.35403 
L 209.557872 122.345507 
L 210.643673 178.462803 
L 211.729474 171.550775 
L 212.815275 166.65065 
L 213.901076 169.671537 
L 214.986877 174.566856 
L 216.072679 160.903272 
L 217.15848 167.427173 
L 218.244281 157.224958 
L 219.330082 158.180957 
L 220.415883 150.0918 
L 221.501684 183.288616 
L 222.587486 154.766971 
L 223.673287 165.632946 
L 224.759088 144.612928 
L 225.844889 156.137664 
L 226.93069 165.811254 
L 228.016491 144.103177 
L 229.102292 165.491166 
L 230.188094 157.630381 
L 231.273895 124.37176 
L 232.359696 157.268894 
L 233.445497 166.058522 
L 234.531298 166.981016 
L 235.617099 159.152683 
L 236.702901 149.423718 
L 237.788702 169.977032 
L 238.874503 174.590807 
L 239.960304 159.814674 
L 241.046105 163.368792 
L 242.131906 164.317884 
L 243.217708 169.176828 
L 244.303509 177.514814 
L 245.38931 169.095771 
L 246.475111 143.383488 
L 247.560912 150.96272 
L 248.646713 146.338468 
L 249.732514 134.505359 
L 250.818316 168.557518 
L 251.904117 155.759564 
L 252.989918 127.30813 
L 254.075719 150.280678 
L 255.16152 185.343227 
L 256.247321 129.912233 
L 257.333123 158.540734 
L 258.418924 162.60103 
L 259.504725 157.880778 
L 260.590526 137.210977 
L 261.676327 152.720901 
L 262.762128 155.258687 
L 263.847929 167.976789 
L 264.933731 155.287242 
L 266.019532 172.456893 
L 267.105333 194.3854 
L 268.191134 171.108497 
L 269.276935 218.602471 
L 270.362736 163.393231 
L 271.448538 186.138331 
L 272.534339 183.256433 
L 273.62014 175.375478 
L 274.705941 146.434907 
L 275.791742 158.516118 
L 276.877543 156.867686 
L 277.963344 151.587208 
L 279.049146 172.872863 
L 280.134947 144.31629 
L 281.220748 164.539943 
L 282.306549 134.718868 
L 283.39235 151.188283 
L 284.478151 133.324893 
L 285.563953 134.709727 
L 286.649754 123.891303 
L 287.735555 138.602146 
L 288.821356 158.106474 
L 289.907157 142.474308 
L 290.992958 117.034733 
L 292.07876 118.986699 
L 293.164561 130.84787 
L 294.250362 145.474121 
L 295.336163 136.765594 
L 296.421964 144.799084 
L 297.507765 135.120553 
L 298.593566 192.173521 
L 299.679368 119.429921 
L 300.765169 127.638663 
L 301.85097 161.631357 
L 302.936771 160.928172 
L 304.022572 154.712569 
L 305.108373 130.92659 
L 306.194175 157.988163 
L 307.279976 131.029989 
L 308.365777 155.249433 
L 309.451578 136.002015 
L 310.537379 129.045263 
L 311.62318 140.157125 
L 312.708981 119.482597 
L 313.794783 117.407903 
L 314.880584 128.283318 
L 315.966385 125.486811 
L 317.052186 133.84091 
L 318.137987 111.974021 
L 319.223788 151.017387 
L 320.30959 144.625724 
L 321.395391 115.000779 
L 322.481192 149.424912 
L 323.566993 132.79151 
L 324.652794 151.746318 
L 325.738595 137.479737 
L 326.824396 126.257582 
L 327.910198 134.848263 
L 328.995999 140.222539 
L 331.167601 154.831543 
L 332.253402 153.961863 
L 333.339203 142.345831 
L 334.425005 158.905333 
L 335.510806 160.292152 
L 336.596607 139.956781 
L 337.682408 154.309431 
L 338.768209 151.820922 
L 339.85401 136.492979 
L 340.939811 160.760569 
L 342.025613 171.338121 
L 343.111414 150.151831 
L 345.283016 118.968966 
L 346.368817 160.873955 
L 349.626221 138.379337 
L 350.712022 137.293137 
L 351.797823 153.493868 
L 352.883624 136.410081 
L 353.969425 153.676047 
L 355.055227 127.214211 
L 357.226829 144.458889 
L 358.31263 187.489316 
L 359.398431 173.341199 
L 360.484232 156.225152 
L 361.570033 170.024173 
L 362.655835 174.64429 
L 363.741636 170.577885 
L 364.827437 160.493747 
L 365.913238 196.37477 
L 366.999039 165.306306 
L 368.08484 154.552057 
L 369.170642 136.904566 
L 370.256443 156.852027 
L 371.342244 192.965318 
L 372.428045 118.470232 
L 373.513846 172.341521 
L 374.599647 160.512105 
L 375.685448 167.719647 
L 376.77125 144.702546 
L 377.857051 155.100749 
L 378.942852 168.060076 
L 380.028653 160.555673 
L 381.114454 140.296114 
L 382.200255 179.551024 
L 383.286057 157.435624 
L 384.371858 205.726766 
L 386.54346 163.695099 
L 387.629261 107.785551 
L 388.715062 181.927069 
L 389.800863 160.04094 
L 390.886665 161.667405 
L 391.972466 141.218041 
L 393.058267 157.24231 
L 394.144068 165.521153 
L 395.229869 172.300746 
L 396.31567 161.036642 
L 397.401472 173.627897 
L 398.487273 172.892308 
L 398.487273 172.892308 
" style="fill:none;stroke:#008000;stroke-dasharray:9.6,2.4,1.5,2.4;stroke-dashoffset:0;stroke-width:1.5;"/>
   </g>
   <g id="line2d_35">
    <path clip-path="url(#pe3db858b95)" d="M 73.832727 218.195691 
L 74.918528 198.460724 
L 76.00433 199.639283 
L 77.090131 176.677207 
L 78.175932 170.056874 
L 79.261733 149.340497 
L 80.347534 164.881058 
L 81.433335 153.759828 
L 82.519137 145.582343 
L 83.604938 135.362672 
L 84.690739 136.126899 
L 85.77654 142.884507 
L 86.862341 152.536834 
L 87.948142 143.389755 
L 89.033943 138.044196 
L 90.119745 145.12856 
L 91.205546 143.370974 
L 93.377148 138.863016 
L 94.462949 126.565734 
L 95.54875 118.099131 
L 96.634552 126.61319 
L 97.720353 116.354336 
L 98.806154 129.673564 
L 99.891955 129.684655 
L 100.977756 128.028542 
L 102.063557 129.201823 
L 103.149358 125.29813 
L 104.23516 123.993259 
L 105.320961 148.078815 
L 106.406762 137.508973 
L 107.492563 139.088153 
L 108.578364 139.926696 
L 109.664165 123.183026 
L 110.749967 121.237876 
L 111.835768 108.478947 
L 112.921569 106.459586 
L 114.00737 119.348297 
L 115.093171 114.69163 
L 116.178972 123.05171 
L 117.264773 112.274025 
L 118.350575 107.730388 
L 119.436376 113.880325 
L 120.522177 108.354872 
L 121.607978 98.264579 
L 122.693779 107.269809 
L 123.77958 101.616715 
L 124.865382 103.582199 
L 125.951183 100.570228 
L 127.036984 100.666887 
L 128.122785 99.806692 
L 129.208586 94.702596 
L 130.294387 96.656403 
L 131.380189 108.406443 
L 132.46599 114.776313 
L 133.551791 96.987892 
L 134.637592 95.517026 
L 135.723393 100.858135 
L 136.809194 96.010916 
L 137.894995 98.617772 
L 138.980797 86.989559 
L 140.066598 94.721081 
L 141.152399 95.127747 
L 142.2382 93.650632 
L 143.324001 107.670507 
L 144.409802 97.963317 
L 145.495604 92.443144 
L 146.581405 98.964313 
L 147.667206 93.170427 
L 149.838808 76.508356 
L 150.924609 94.655391 
L 152.01041 87.745535 
L 153.096212 93.681259 
L 154.182013 84.604702 
L 155.267814 84.514963 
L 156.353615 93.266692 
L 157.439416 88.384738 
L 158.525217 89.825791 
L 159.611019 99.642278 
L 160.69682 99.355354 
L 161.782621 84.735464 
L 162.868422 82.938485 
L 163.954223 91.032033 
L 165.040024 93.554361 
L 166.125825 86.794078 
L 167.211627 78.957649 
L 168.297428 87.229746 
L 169.383229 80.739686 
L 170.46903 86.743733 
L 171.554831 78.585961 
L 172.640632 77.029779 
L 173.726434 90.916972 
L 174.812235 82.684304 
L 175.898036 83.625468 
L 176.983837 95.977106 
L 178.069638 101.767969 
L 179.155439 93.96812 
L 180.24124 98.832001 
L 181.327042 90.403006 
L 182.412843 93.78563 
L 183.498644 88.063022 
L 184.584445 77.286605 
L 185.670246 77.606863 
L 186.756047 80.553829 
L 187.841849 69.879564 
L 188.92765 74.584344 
L 190.013451 76.923252 
L 191.099252 78.397328 
L 192.185053 78.589228 
L 193.270854 74.963105 
L 194.356656 79.776129 
L 195.442457 65.875815 
L 196.528258 71.118756 
L 197.614059 70.859107 
L 198.69986 75.883231 
L 199.785661 73.338956 
L 200.871462 82.692747 
L 201.957264 72.669526 
L 203.043065 73.653496 
L 204.128866 78.619631 
L 205.214667 79.13286 
L 206.300468 63.994851 
L 207.386269 78.01215 
L 208.472071 77.341365 
L 209.557872 80.738178 
L 210.643673 72.910762 
L 211.729474 70.400466 
L 212.815275 63.437622 
L 213.901076 66.746277 
L 214.986877 64.460075 
L 216.072679 62.78542 
L 217.15848 66.838551 
L 218.244281 65.241205 
L 219.330082 75.364468 
L 220.415883 60.91362 
L 221.501684 73.518187 
L 223.673287 68.989351 
L 224.759088 72.213468 
L 225.844889 64.711641 
L 226.93069 62.194212 
L 228.016491 72.644206 
L 229.102292 72.037997 
L 230.188094 76.232257 
L 231.273895 81.387794 
L 232.359696 73.053273 
L 233.445497 71.884772 
L 234.531298 65.145579 
L 235.617099 80.230905 
L 236.702901 68.638149 
L 237.788702 62.34487 
L 238.874503 71.085759 
L 239.960304 65.069958 
L 241.046105 62.860526 
L 242.131906 62.612785 
L 243.217708 63.818512 
L 244.303509 64.678017 
L 245.38931 58.364184 
L 246.475111 64.427387 
L 247.560912 59.872589 
L 248.646713 64.996508 
L 249.732514 78.85639 
L 250.818316 71.102566 
L 251.904117 65.894076 
L 252.989918 82.047118 
L 254.075719 67.458984 
L 255.16152 66.012117 
L 256.247321 80.368812 
L 257.333123 63.828096 
L 258.418924 64.353615 
L 259.504725 67.578888 
L 260.590526 80.738203 
L 261.676327 88.496961 
L 262.762128 69.266894 
L 263.847929 66.42219 
L 264.933731 72.412395 
L 266.019532 57.272449 
L 267.105333 60.313924 
L 268.191134 57.254635 
L 269.276935 62.473821 
L 270.362736 79.173708 
L 271.448538 64.528407 
L 272.534339 53.704718 
L 273.62014 59.945696 
L 274.705941 84.254633 
L 275.791742 68.089402 
L 276.877543 70.84064 
L 277.963344 59.697737 
L 279.049146 59.342989 
L 280.134947 69.08955 
L 281.220748 60.674788 
L 282.306549 58.22932 
L 283.39235 70.344088 
L 284.478151 69.888446 
L 285.563953 81.874097 
L 286.649754 85.857635 
L 287.735555 78.067778 
L 288.821356 69.277582 
L 289.907157 78.46415 
L 290.992958 75.221332 
L 292.07876 80.324483 
L 293.164561 75.691376 
L 294.250362 77.734707 
L 295.336163 77.014989 
L 296.421964 78.774995 
L 297.507765 75.379859 
L 298.593566 56.807194 
L 299.679368 84.104503 
L 300.765169 83.951386 
L 301.85097 69.763902 
L 302.936771 81.760518 
L 304.022572 70.048548 
L 305.108373 86.549853 
L 306.194175 62.393844 
L 307.279976 88.900157 
L 308.365777 71.99814 
L 309.451578 72.845025 
L 310.537379 77.659113 
L 311.62318 72.397309 
L 312.708981 82.166659 
L 313.794783 80.26221 
L 314.880584 87.262461 
L 315.966385 84.196107 
L 317.052186 75.328875 
L 318.137987 76.853513 
L 319.223788 63.959733 
L 320.30959 77.921268 
L 321.395391 83.318033 
L 322.481192 61.05604 
L 323.566993 78.15584 
L 324.652794 66.019973 
L 325.738595 72.82496 
L 326.824396 81.428751 
L 327.910198 86.531585 
L 328.995999 89.433894 
L 330.0818 73.445699 
L 331.167601 83.814501 
L 332.253402 79.975528 
L 333.339203 89.597199 
L 334.425005 92.120412 
L 335.510806 77.667531 
L 336.596607 79.302159 
L 337.682408 61.812528 
L 338.768209 60.554167 
L 339.85401 69.48683 
L 340.939811 60.893529 
L 342.025613 61.375473 
L 343.111414 70.450475 
L 344.197215 78.130851 
L 345.283016 78.316755 
L 346.368817 59.306697 
L 347.454618 79.323028 
L 348.54042 63.174371 
L 349.626221 65.042974 
L 350.712022 85.609186 
L 351.797823 91.819155 
L 352.883624 71.062783 
L 353.969425 66.597373 
L 355.055227 84.620578 
L 356.141028 58.085313 
L 357.226829 72.629503 
L 358.31263 72.716478 
L 359.398431 70.266709 
L 360.484232 82.420961 
L 361.570033 74.504213 
L 362.655835 61.27089 
L 363.741636 58.991948 
L 364.827437 58.832518 
L 365.913238 66.672327 
L 366.999039 67.405398 
L 368.08484 65.653719 
L 369.170642 76.312791 
L 370.256443 69.335266 
L 371.342244 60.840164 
L 372.428045 75.966253 
L 373.513846 60.377043 
L 374.599647 53.568 
L 375.685448 66.02756 
L 376.77125 65.64391 
L 377.857051 73.135241 
L 378.942852 73.990874 
L 380.028653 65.2003 
L 381.114454 71.883817 
L 382.200255 57.831303 
L 383.286057 64.277581 
L 384.371858 56.145628 
L 385.457659 59.456078 
L 386.54346 65.194381 
L 387.629261 70.10371 
L 388.715062 69.027011 
L 389.800863 71.366401 
L 390.886665 58.467953 
L 391.972466 66.029287 
L 393.058267 65.134646 
L 394.144068 67.514136 
L 395.229869 66.400407 
L 396.31567 79.449529 
L 397.401472 61.477935 
L 398.487273 64.855718 
L 398.487273 64.855718 
" style="fill:none;stroke:#008000;stroke-dasharray:9.6,2.4,1.5,2.4;stroke-dashoffset:0;stroke-width:1.5;"/>
   </g>
   <g id="line2d_36">
    <path clip-path="url(#pe3db858b95)" d="M 73.832727 202.074415 
L 74.918528 202.766623 
L 76.00433 200.181892 
L 77.090131 179.940526 
L 78.175932 166.753385 
L 79.261733 151.807859 
L 80.347534 168.011485 
L 81.433335 153.581067 
L 82.519137 152.98988 
L 83.604938 149.84244 
L 84.690739 151.448321 
L 85.77654 150.990978 
L 86.862341 156.231169 
L 87.948142 145.582942 
L 89.033943 148.318832 
L 90.119745 153.387498 
L 91.205546 156.071041 
L 92.291347 139.446342 
L 93.377148 137.463714 
L 94.462949 134.213428 
L 95.54875 128.319096 
L 96.634552 133.400564 
L 97.720353 127.674207 
L 98.806154 130.329993 
L 99.891955 131.073492 
L 100.977756 131.413379 
L 102.063557 126.486389 
L 103.149358 135.989033 
L 104.23516 126.072629 
L 105.320961 138.614478 
L 106.406762 142.264555 
L 107.492563 145.036569 
L 108.578364 147.212635 
L 109.664165 125.108158 
L 110.749967 121.963246 
L 111.835768 115.390364 
L 112.921569 113.920916 
L 114.00737 121.126023 
L 115.093171 129.988193 
L 116.178972 130.999643 
L 117.264773 121.882045 
L 118.350575 122.345155 
L 119.436376 125.190686 
L 120.522177 114.291153 
L 121.607978 108.435582 
L 122.693779 115.300805 
L 123.77958 113.466326 
L 124.865382 109.127781 
L 125.951183 114.004497 
L 127.036984 114.771946 
L 128.122785 118.611511 
L 129.208586 110.154643 
L 130.294387 110.585169 
L 131.380189 120.233034 
L 132.46599 122.611814 
L 133.551791 114.910574 
L 134.637592 105.320518 
L 135.723393 114.664356 
L 136.809194 111.469031 
L 138.980797 99.978236 
L 140.066598 111.490438 
L 141.152399 105.70356 
L 142.2382 104.264151 
L 143.324001 118.463512 
L 144.409802 111.697842 
L 145.495604 99.417939 
L 146.581405 113.179771 
L 147.667206 111.88362 
L 148.753007 100.337403 
L 149.838808 97.592064 
L 150.924609 113.60274 
L 152.01041 107.324328 
L 153.096212 106.860589 
L 154.182013 97.91321 
L 155.267814 99.993919 
L 156.353615 101.513796 
L 157.439416 100.405233 
L 158.525217 111.868924 
L 159.611019 116.823034 
L 160.69682 113.772026 
L 161.782621 104.47316 
L 162.868422 102.628773 
L 163.954223 102.929675 
L 165.040024 103.487508 
L 166.125825 105.201207 
L 167.211627 104.56902 
L 168.297428 97.360931 
L 169.383229 100.214716 
L 170.46903 100.988415 
L 171.554831 102.501745 
L 172.640632 97.691263 
L 173.726434 102.640487 
L 174.812235 98.349997 
L 175.898036 99.769261 
L 176.983837 104.962262 
L 178.069638 103.064506 
L 179.155439 105.070667 
L 180.24124 104.03353 
L 181.327042 97.794454 
L 182.412843 94.667363 
L 183.498644 103.999172 
L 184.584445 95.711777 
L 185.670246 93.402671 
L 186.756047 98.643893 
L 188.92765 87.815114 
L 190.013451 90.061973 
L 191.099252 96.686592 
L 192.185053 95.60424 
L 193.270854 93.041442 
L 194.356656 95.802585 
L 195.442457 84.286691 
L 197.614059 92.91306 
L 198.69986 87.918066 
L 199.785661 84.372878 
L 200.871462 90.393895 
L 201.957264 87.599806 
L 203.043065 87.422456 
L 204.128866 89.351389 
L 205.214667 86.379061 
L 206.300468 78.478511 
L 207.386269 84.338486 
L 209.557872 73.752194 
L 211.729474 79.420995 
L 212.815275 71.103709 
L 213.901076 78.239567 
L 214.986877 72.534235 
L 216.072679 74.401675 
L 217.15848 84.43558 
L 218.244281 70.200946 
L 219.330082 83.654255 
L 220.415883 72.410102 
L 221.501684 80.439334 
L 222.587486 79.421891 
L 223.673287 75.074532 
L 224.759088 71.465392 
L 225.844889 73.272805 
L 226.93069 78.55963 
L 228.016491 80.046145 
L 229.102292 76.876066 
L 230.188094 82.093941 
L 231.273895 75.189938 
L 232.359696 83.938444 
L 233.445497 85.57487 
L 234.531298 82.852494 
L 235.617099 83.3724 
L 236.702901 74.483682 
L 237.788702 74.375479 
L 238.874503 82.466498 
L 239.960304 76.740042 
L 241.046105 74.536581 
L 242.131906 75.083564 
L 243.217708 83.93468 
L 245.38931 76.072252 
L 246.475111 74.573702 
L 247.560912 76.951563 
L 248.646713 79.709429 
L 249.732514 79.789152 
L 250.818316 83.763672 
L 251.904117 78.599407 
L 252.989918 78.943707 
L 254.075719 74.652688 
L 255.16152 77.140707 
L 256.247321 76.712107 
L 257.333123 78.321936 
L 258.418924 78.875938 
L 259.504725 75.587475 
L 260.590526 79.364933 
L 261.676327 85.022036 
L 262.762128 77.779162 
L 263.847929 78.226033 
L 264.933731 81.06926 
L 266.019532 74.765429 
L 267.105333 79.812935 
L 268.191134 75.78157 
L 269.276935 77.528802 
L 270.362736 87.591632 
L 271.448538 77.929029 
L 273.62014 71.275926 
L 274.705941 82.493457 
L 275.791742 77.260968 
L 276.877543 79.710379 
L 277.963344 73.925104 
L 279.049146 73.086114 
L 280.134947 78.482803 
L 281.220748 76.573287 
L 282.306549 74.360972 
L 283.39235 76.036813 
L 284.478151 75.641251 
L 285.563953 77.411896 
L 286.649754 80.86444 
L 287.735555 78.487137 
L 288.821356 78.279816 
L 289.907157 82.970306 
L 290.992958 74.625702 
L 292.07876 75.661702 
L 294.250362 73.704975 
L 295.336163 76.224695 
L 296.421964 78.369142 
L 297.507765 79.360153 
L 298.593566 80.992494 
L 299.679368 80.787804 
L 300.765169 79.878986 
L 301.85097 83.165257 
L 302.936771 89.645864 
L 304.022572 77.78914 
L 305.108373 81.085138 
L 306.194175 78.38105 
L 307.279976 82.064566 
L 308.365777 82.317997 
L 309.451578 74.065589 
L 310.537379 79.118801 
L 311.62318 78.992501 
L 312.708981 79.283514 
L 313.794783 74.797231 
L 314.880584 83.269599 
L 315.966385 83.659368 
L 317.052186 76.423011 
L 318.137987 74.940817 
L 319.223788 75.682415 
L 320.30959 82.206527 
L 321.395391 77.99314 
L 322.481192 72.250019 
L 323.566993 74.832937 
L 325.738595 78.941507 
L 326.824396 80.462539 
L 327.910198 84.959501 
L 328.995999 88.680125 
L 330.0818 79.718339 
L 331.167601 91.313983 
L 332.253402 91.061816 
L 333.339203 88.02346 
L 334.425005 103.508046 
L 335.510806 89.538558 
L 336.596607 82.099075 
L 337.682408 73.838143 
L 339.85401 75.248075 
L 340.939811 73.189898 
L 342.025613 72.770106 
L 343.111414 74.362725 
L 344.197215 78.075999 
L 345.283016 76.18499 
L 346.368817 74.831026 
L 347.454618 79.548603 
L 348.54042 73.81175 
L 349.626221 76.014923 
L 350.712022 86.270207 
L 351.797823 94.831224 
L 352.883624 78.030928 
L 353.969425 76.95432 
L 355.055227 83.018112 
L 356.141028 72.811476 
L 357.226829 85.386084 
L 358.31263 87.291158 
L 359.398431 87.44405 
L 360.484232 90.810573 
L 361.570033 88.874913 
L 362.655835 79.988348 
L 364.827437 74.721497 
L 365.913238 85.20736 
L 366.999039 85.242948 
L 368.08484 84.776729 
L 369.170642 79.414125 
L 370.256443 81.690505 
L 371.342244 74.651973 
L 372.428045 73.791307 
L 373.513846 81.524543 
L 374.599647 72.817753 
L 375.685448 79.477394 
L 376.77125 79.62537 
L 377.857051 80.055348 
L 378.942852 89.493843 
L 380.028653 81.480849 
L 381.114454 75.926456 
L 382.200255 75.538558 
L 383.286057 77.046976 
L 384.371858 74.932175 
L 385.457659 78.481841 
L 386.54346 80.827852 
L 387.629261 69.956378 
L 388.715062 79.526835 
L 389.800863 84.541947 
L 390.886665 78.452595 
L 391.972466 79.609167 
L 393.058267 79.013003 
L 394.144068 83.432683 
L 395.229869 80.113907 
L 396.31567 86.609541 
L 397.401472 81.038423 
L 398.487273 78.651243 
L 398.487273 78.651243 
" style="fill:none;stroke:#ff0000;stroke-linecap:square;stroke-width:1.5;"/>
   </g>
   <g id="patch_3">
    <path d="M 57.6 307.584 
L 57.6 41.472 
" style="fill:none;stroke:#000000;stroke-linecap:square;stroke-linejoin:miter;stroke-width:0.8;"/>
   </g>
   <g id="patch_4">
    <path d="M 414.72 307.584 
L 414.72 41.472 
" style="fill:none;stroke:#000000;stroke-linecap:square;stroke-linejoin:miter;stroke-width:0.8;"/>
   </g>
   <g id="patch_5">
    <path d="M 57.6 307.584 
L 414.72 307.584 
" style="fill:none;stroke:#000000;stroke-linecap:square;stroke-linejoin:miter;stroke-width:0.8;"/>
   </g>
   <g id="patch_6">
    <path d="M 57.6 41.472 
L 414.72 41.472 
" style="fill:none;stroke:#000000;stroke-linecap:square;stroke-linejoin:miter;stroke-width:0.8;"/>
   </g>
   <g id="text_19">
    <!-- Population's average and best fitness -->
    <defs>
     <path d="M 19.671875 64.796875 
L 19.671875 37.40625 
L 32.078125 37.40625 
Q 38.96875 37.40625 42.71875 40.96875 
Q 46.484375 44.53125 46.484375 51.125 
Q 46.484375 57.671875 42.71875 61.234375 
Q 38.96875 64.796875 32.078125 64.796875 
z
M 9.8125 72.90625 
L 32.078125 72.90625 
Q 44.34375 72.90625 50.609375 67.359375 
Q 56.890625 61.8125 56.890625 51.125 
Q 56.890625 40.328125 50.609375 34.8125 
Q 44.34375 29.296875 32.078125 29.296875 
L 19.671875 29.296875 
L 19.671875 0 
L 9.8125 0 
z
" id="DejaVuSans-80"/>
     <path d="M 18.109375 8.203125 
L 18.109375 -20.796875 
L 9.078125 -20.796875 
L 9.078125 54.6875 
L 18.109375 54.6875 
L 18.109375 46.390625 
Q 20.953125 51.265625 25.265625 53.625 
Q 29.59375 56 35.59375 56 
Q 45.5625 56 51.78125 48.09375 
Q 58.015625 40.1875 58.015625 27.296875 
Q 58.015625 14.40625 51.78125 6.484375 
Q 45.5625 -1.421875 35.59375 -1.421875 
Q 29.59375 -1.421875 25.265625 0.953125 
Q 20.953125 3.328125 18.109375 8.203125 
z
M 48.6875 27.296875 
Q 48.6875 37.203125 44.609375 42.84375 
Q 40.53125 48.484375 33.40625 48.484375 
Q 26.265625 48.484375 22.1875 42.84375 
Q 18.109375 37.203125 18.109375 27.296875 
Q 18.109375 17.390625 22.1875 11.75 
Q 26.265625 6.109375 33.40625 6.109375 
Q 40.53125 6.109375 44.609375 11.75 
Q 48.6875 17.390625 48.6875 27.296875 
z
" id="DejaVuSans-112"/>
     <path d="M 8.5 21.578125 
L 8.5 54.6875 
L 17.484375 54.6875 
L 17.484375 21.921875 
Q 17.484375 14.15625 20.5 10.265625 
Q 23.53125 6.390625 29.59375 6.390625 
Q 36.859375 6.390625 41.078125 11.03125 
Q 45.3125 15.671875 45.3125 23.6875 
L 45.3125 54.6875 
L 54.296875 54.6875 
L 54.296875 0 
L 45.3125 0 
L 45.3125 8.40625 
Q 42.046875 3.421875 37.71875 1 
Q 33.40625 -1.421875 27.6875 -1.421875 
Q 18.265625 -1.421875 13.375 4.4375 
Q 8.5 10.296875 8.5 21.578125 
z
M 31.109375 56 
z
" id="DejaVuSans-117"/>
     <path d="M 9.421875 75.984375 
L 18.40625 75.984375 
L 18.40625 0 
L 9.421875 0 
z
" id="DejaVuSans-108"/>
     <path d="M 17.921875 72.90625 
L 17.921875 45.796875 
L 9.625 45.796875 
L 9.625 72.90625 
z
" id="DejaVuSans-39"/>
     <path id="DejaVuSans-32"/>
     <path d="M 2.984375 54.6875 
L 12.5 54.6875 
L 29.59375 8.796875 
L 46.6875 54.6875 
L 56.203125 54.6875 
L 35.6875 0 
L 23.484375 0 
z
" id="DejaVuSans-118"/>
     <path d="M 45.40625 27.984375 
Q 45.40625 37.75 41.375 43.109375 
Q 37.359375 48.484375 30.078125 48.484375 
Q 22.859375 48.484375 18.828125 43.109375 
Q 14.796875 37.75 14.796875 27.984375 
Q 14.796875 18.265625 18.828125 12.890625 
Q 22.859375 7.515625 30.078125 7.515625 
Q 37.359375 7.515625 41.375 12.890625 
Q 45.40625 18.265625 45.40625 27.984375 
z
M 54.390625 6.78125 
Q 54.390625 -7.171875 48.1875 -13.984375 
Q 42 -20.796875 29.203125 -20.796875 
Q 24.46875 -20.796875 20.265625 -20.09375 
Q 16.0625 -19.390625 12.109375 -17.921875 
L 12.109375 -9.1875 
Q 16.0625 -11.328125 19.921875 -12.34375 
Q 23.78125 -13.375 27.78125 -13.375 
Q 36.625 -13.375 41.015625 -8.765625 
Q 45.40625 -4.15625 45.40625 5.171875 
L 45.40625 9.625 
Q 42.625 4.78125 38.28125 2.390625 
Q 33.9375 0 27.875 0 
Q 17.828125 0 11.671875 7.65625 
Q 5.515625 15.328125 5.515625 27.984375 
Q 5.515625 40.671875 11.671875 48.328125 
Q 17.828125 56 27.875 56 
Q 33.9375 56 38.28125 53.609375 
Q 42.625 51.21875 45.40625 46.390625 
L 45.40625 54.6875 
L 54.390625 54.6875 
z
" id="DejaVuSans-103"/>
     <path d="M 45.40625 46.390625 
L 45.40625 75.984375 
L 54.390625 75.984375 
L 54.390625 0 
L 45.40625 0 
L 45.40625 8.203125 
Q 42.578125 3.328125 38.25 0.953125 
Q 33.9375 -1.421875 27.875 -1.421875 
Q 17.96875 -1.421875 11.734375 6.484375 
Q 5.515625 14.40625 5.515625 27.296875 
Q 5.515625 40.1875 11.734375 48.09375 
Q 17.96875 56 27.875 56 
Q 33.9375 56 38.25 53.625 
Q 42.578125 51.265625 45.40625 46.390625 
z
M 14.796875 27.296875 
Q 14.796875 17.390625 18.875 11.75 
Q 22.953125 6.109375 30.078125 6.109375 
Q 37.203125 6.109375 41.296875 11.75 
Q 45.40625 17.390625 45.40625 27.296875 
Q 45.40625 37.203125 41.296875 42.84375 
Q 37.203125 48.484375 30.078125 48.484375 
Q 22.953125 48.484375 18.875 42.84375 
Q 14.796875 37.203125 14.796875 27.296875 
z
" id="DejaVuSans-100"/>
     <path d="M 48.6875 27.296875 
Q 48.6875 37.203125 44.609375 42.84375 
Q 40.53125 48.484375 33.40625 48.484375 
Q 26.265625 48.484375 22.1875 42.84375 
Q 18.109375 37.203125 18.109375 27.296875 
Q 18.109375 17.390625 22.1875 11.75 
Q 26.265625 6.109375 33.40625 6.109375 
Q 40.53125 6.109375 44.609375 11.75 
Q 48.6875 17.390625 48.6875 27.296875 
z
M 18.109375 46.390625 
Q 20.953125 51.265625 25.265625 53.625 
Q 29.59375 56 35.59375 56 
Q 45.5625 56 51.78125 48.09375 
Q 58.015625 40.1875 58.015625 27.296875 
Q 58.015625 14.40625 51.78125 6.484375 
Q 45.5625 -1.421875 35.59375 -1.421875 
Q 29.59375 -1.421875 25.265625 0.953125 
Q 20.953125 3.328125 18.109375 8.203125 
L 18.109375 0 
L 9.078125 0 
L 9.078125 75.984375 
L 18.109375 75.984375 
z
" id="DejaVuSans-98"/>
     <path d="M 37.109375 75.984375 
L 37.109375 68.5 
L 28.515625 68.5 
Q 23.6875 68.5 21.796875 66.546875 
Q 19.921875 64.59375 19.921875 59.515625 
L 19.921875 54.6875 
L 34.71875 54.6875 
L 34.71875 47.703125 
L 19.921875 47.703125 
L 19.921875 0 
L 10.890625 0 
L 10.890625 47.703125 
L 2.296875 47.703125 
L 2.296875 54.6875 
L 10.890625 54.6875 
L 10.890625 58.5 
Q 10.890625 67.625 15.140625 71.796875 
Q 19.390625 75.984375 28.609375 75.984375 
z
" id="DejaVuSans-102"/>
    </defs>
    <g transform="translate(123.315 35.472)scale(0.12 -0.12)">
     <use xlink:href="#DejaVuSans-80"/>
     <use x="60.255859" xlink:href="#DejaVuSans-111"/>
     <use x="121.4375" xlink:href="#DejaVuSans-112"/>
     <use x="184.914062" xlink:href="#DejaVuSans-117"/>
     <use x="248.292969" xlink:href="#DejaVuSans-108"/>
     <use x="276.076172" xlink:href="#DejaVuSans-97"/>
     <use x="337.355469" xlink:href="#DejaVuSans-116"/>
     <use x="376.564453" xlink:href="#DejaVuSans-105"/>
     <use x="404.347656" xlink:href="#DejaVuSans-111"/>
     <use x="465.529297" xlink:href="#DejaVuSans-110"/>
     <use x="528.908203" xlink:href="#DejaVuSans-39"/>
     <use x="556.398438" xlink:href="#DejaVuSans-115"/>
     <use x="608.498047" xlink:href="#DejaVuSans-32"/>
     <use x="640.285156" xlink:href="#DejaVuSans-97"/>
     <use x="701.564453" xlink:href="#DejaVuSans-118"/>
     <use x="760.744141" xlink:href="#DejaVuSans-101"/>
     <use x="822.267578" xlink:href="#DejaVuSans-114"/>
     <use x="863.380859" xlink:href="#DejaVuSans-97"/>
     <use x="924.660156" xlink:href="#DejaVuSans-103"/>
     <use x="988.136719" xlink:href="#DejaVuSans-101"/>
     <use x="1049.660156" xlink:href="#DejaVuSans-32"/>
     <use x="1081.447266" xlink:href="#DejaVuSans-97"/>
     <use x="1142.726562" xlink:href="#DejaVuSans-110"/>
     <use x="1206.105469" xlink:href="#DejaVuSans-100"/>
     <use x="1269.582031" xlink:href="#DejaVuSans-32"/>
     <use x="1301.369141" xlink:href="#DejaVuSans-98"/>
     <use x="1364.845703" xlink:href="#DejaVuSans-101"/>
     <use x="1426.369141" xlink:href="#DejaVuSans-115"/>
     <use x="1478.46875" xlink:href="#DejaVuSans-116"/>
     <use x="1517.677734" xlink:href="#DejaVuSans-32"/>
     <use x="1549.464844" xlink:href="#DejaVuSans-102"/>
     <use x="1584.669922" xlink:href="#DejaVuSans-105"/>
     <use x="1612.453125" xlink:href="#DejaVuSans-116"/>
     <use x="1651.662109" xlink:href="#DejaVuSans-110"/>
     <use x="1715.041016" xlink:href="#DejaVuSans-101"/>
     <use x="1776.564453" xlink:href="#DejaVuSans-115"/>
     <use x="1828.664062" xlink:href="#DejaVuSans-115"/>
    </g>
   </g>
   <g id="legend_1">
    <g id="patch_7">
     <path d="M 334.779375 302.584 
L 407.72 302.584 
Q 409.72 302.584 409.72 300.584 
L 409.72 242.8715 
Q 409.72 240.8715 407.72 240.8715 
L 334.779375 240.8715 
Q 332.779375 240.8715 332.779375 242.8715 
L 332.779375 300.584 
Q 332.779375 302.584 334.779375 302.584 
z
" style="fill:#ffffff;opacity:0.8;stroke:#cccccc;stroke-linejoin:miter;"/>
    </g>
    <g id="line2d_37">
     <path d="M 336.779375 248.969937 
L 356.779375 248.969937 
" style="fill:none;stroke:#0000ff;stroke-linecap:square;stroke-width:1.5;"/>
    </g>
    <g id="line2d_38"/>
    <g id="text_20">
     <!-- average -->
     <g transform="translate(364.779375 252.469937)scale(0.1 -0.1)">
      <use xlink:href="#DejaVuSans-97"/>
      <use x="61.279297" xlink:href="#DejaVuSans-118"/>
      <use x="120.458984" xlink:href="#DejaVuSans-101"/>
      <use x="181.982422" xlink:href="#DejaVuSans-114"/>
      <use x="223.095703" xlink:href="#DejaVuSans-97"/>
      <use x="284.375" xlink:href="#DejaVuSans-103"/>
      <use x="347.851562" xlink:href="#DejaVuSans-101"/>
     </g>
    </g>
    <g id="line2d_39">
     <path d="M 336.779375 263.648062 
L 356.779375 263.648062 
" style="fill:none;stroke:#008000;stroke-dasharray:9.6,2.4,1.5,2.4;stroke-dashoffset:0;stroke-width:1.5;"/>
    </g>
    <g id="line2d_40"/>
    <g id="text_21">
     <!-- -1 sd -->
     <defs>
      <path d="M 4.890625 31.390625 
L 31.203125 31.390625 
L 31.203125 23.390625 
L 4.890625 23.390625 
z
" id="DejaVuSans-45"/>
     </defs>
     <g transform="translate(364.779375 267.148062)scale(0.1 -0.1)">
      <use xlink:href="#DejaVuSans-45"/>
      <use x="36.083984" xlink:href="#DejaVuSans-49"/>
      <use x="99.707031" xlink:href="#DejaVuSans-32"/>
      <use x="131.494141" xlink:href="#DejaVuSans-115"/>
      <use x="183.59375" xlink:href="#DejaVuSans-100"/>
     </g>
    </g>
    <g id="line2d_41">
     <path d="M 336.779375 278.326187 
L 356.779375 278.326187 
" style="fill:none;stroke:#008000;stroke-dasharray:9.6,2.4,1.5,2.4;stroke-dashoffset:0;stroke-width:1.5;"/>
    </g>
    <g id="line2d_42"/>
    <g id="text_22">
     <!-- +1 sd -->
     <defs>
      <path d="M 46 62.703125 
L 46 35.5 
L 73.1875 35.5 
L 73.1875 27.203125 
L 46 27.203125 
L 46 0 
L 37.796875 0 
L 37.796875 27.203125 
L 10.59375 27.203125 
L 10.59375 35.5 
L 37.796875 35.5 
L 37.796875 62.703125 
z
" id="DejaVuSans-43"/>
     </defs>
     <g transform="translate(364.779375 281.826187)scale(0.1 -0.1)">
      <use xlink:href="#DejaVuSans-43"/>
      <use x="83.789062" xlink:href="#DejaVuSans-49"/>
      <use x="147.412109" xlink:href="#DejaVuSans-32"/>
      <use x="179.199219" xlink:href="#DejaVuSans-115"/>
      <use x="231.298828" xlink:href="#DejaVuSans-100"/>
     </g>
    </g>
    <g id="line2d_43">
     <path d="M 336.779375 293.004312 
L 356.779375 293.004312 
" style="fill:none;stroke:#ff0000;stroke-linecap:square;stroke-width:1.5;"/>
    </g>
    <g id="line2d_44"/>
    <g id="text_23">
     <!-- best -->
     <g transform="translate(364.779375 296.504312)scale(0.1 -0.1)">
      <use xlink:href="#DejaVuSans-98"/>
      <use x="63.476562" xlink:href="#DejaVuSans-101"/>
      <use x="125" xlink:href="#DejaVuSans-115"/>
      <use x="177.099609" xlink:href="#DejaVuSans-116"/>
     </g>
    </g>
   </g>
  </g>
 </g>
 <defs>
  <clipPath id="pe3db858b95">
   <rect height="266.112" width="357.12" x="57.6" y="41.472"/>
  </clipPath>
 </defs>
</svg>
