<?xml version="1.0" encoding="UTF-8" standalone="no"?>
<!DOCTYPE svg PUBLIC "-//W3C//DTD SVG 1.1//EN"
 "http://www.w3.org/Graphics/SVG/1.1/DTD/svg11.dtd">
<!-- Generated by graphviz version 2.40.1 (20161225.0304)
 -->
<!-- Title: %3 Pages: 1 -->
<svg width="571pt" height="343pt"
 viewBox="0.00 0.00 571.04 342.96" xmlns="http://www.w3.org/2000/svg" xmlns:xlink="http://www.w3.org/1999/xlink">
<g id="graph0" class="graph" transform="scale(1 1) rotate(0) translate(4 338.9559)">
<title>%3</title>
<polygon fill="#ffffff" stroke="transparent" points="-4,4 -4,-338.9559 567.0404,-338.9559 567.0404,4 -4,4"/>
<!-- E0 -->
<g id="node1" class="node">
<title>E0</title>
<polygon fill="#d3d3d3" stroke="#000000" points="155.0392,-334.9559 129.0441,-334.9559 129.0441,-317.9559 155.0392,-317.9559 155.0392,-334.9559"/>
<text text-anchor="middle" x="142.0416" y="-323.7559" font-family="Times,serif" font-size="9.00" fill="#000000">E0</text>
</g>
<!-- E1 -->
<g id="node2" class="node">
<title>E1</title>
<polygon fill="#d3d3d3" stroke="#000000" points="199.0392,-334.9559 173.0441,-334.9559 173.0441,-317.9559 199.0392,-317.9559 199.0392,-334.9559"/>
<text text-anchor="middle" x="186.0416" y="-323.7559" font-family="Times,serif" font-size="9.00" fill="#000000">E1</text>
</g>
<!-- E0&#45;&gt;E1 -->
<!-- 2 -->
<g id="node12" class="node">
<title>2</title>
<ellipse fill="#eee8aa" stroke="#000000" cx="320.0416" cy="-14.853" rx="14.4914" ry="14.4914"/>
<text text-anchor="middle" x="320.0416" y="-12.153" font-family="Times,serif" font-size="9.00" fill="#000000">2</text>
</g>
<!-- E0&#45;&gt;2 -->
<g id="edge26" class="edge">
<title>E0&#45;&gt;2</title>
<path fill="none" stroke="#00ff00" stroke-width=".4933" d="M146.9881,-317.7966C170.599,-276.4639 272.1563,-98.68 307.6995,-36.4589"/>
<polygon fill="#00ff00" stroke="#00ff00" stroke-width=".4933" points="310.894,-37.9228 312.8152,-27.5036 304.8158,-34.4506 310.894,-37.9228"/>
</g>
<!-- S -->
<g id="node13" class="node">
<title>S</title>
<ellipse fill="#eee8aa" stroke="#000000" cx="370.0416" cy="-14.853" rx="14.7075" ry="14.7075"/>
<text text-anchor="middle" x="370.0416" y="-12.153" font-family="Times,serif" font-size="9.00" fill="#000000">S</text>
</g>
<!-- E0&#45;&gt;S -->
<g id="edge17" class="edge">
<title>E0&#45;&gt;S</title>
<path fill="none" stroke="#ff0000" stroke-width=".1193" d="M154.2879,-317.8054C165.6376,-309.4291 182.596,-295.9702 195.0416,-281.9559 267.8814,-199.9352 332.6688,-85.1361 358.3364,-37.2288"/>
<polygon fill="#ff0000" stroke="#ff0000" stroke-width=".1193" points="361.4726,-38.7855 363.0742,-28.3124 355.2911,-35.5008 361.4726,-38.7855"/>
</g>
<!-- 4877 -->
<g id="node15" class="node">
<title>4877</title>
<ellipse fill="#add8e6" stroke="#000000" cx="24.0416" cy="-173.831" rx="24.0833" ry="24.0833"/>
<text text-anchor="middle" x="24.0416" y="-175.631" font-family="Times,serif" font-size="9.00" fill="#000000">4877</text>
<text text-anchor="middle" x="24.0416" y="-166.631" font-family="Times,serif" font-size="9.00" fill="#000000">sigm</text>
</g>
<!-- E0&#45;&gt;4877 -->
<g id="edge22" class="edge">
<title>E0&#45;&gt;4877</title>
<path fill="none" stroke="#ff0000" stroke-width=".2771" d="M128.7697,-322.3996C111.1241,-316.3539 80.0736,-303.3396 62.0416,-281.9559 44.2445,-260.8506 34.5765,-230.8608 29.4538,-207.817"/>
<polygon fill="#ff0000" stroke="#ff0000" stroke-width=".2771" points="32.8337,-206.8745 27.407,-197.7749 25.9747,-208.2725 32.8337,-206.8745"/>
</g>
<!-- 4569 -->
<g id="node18" class="node">
<title>4569</title>
<ellipse fill="#f08080" stroke="#000000" cx="128.0416" cy="-89.7477" rx="24.0833" ry="24.0833"/>
<text text-anchor="middle" x="128.0416" y="-91.5477" font-family="Times,serif" font-size="9.00" fill="#000000">4569</text>
<text text-anchor="middle" x="128.0416" y="-82.5477" font-family="Times,serif" font-size="9.00" fill="#000000">relu</text>
</g>
<!-- E0&#45;&gt;4569 -->
<g id="edge19" class="edge">
<title>E0&#45;&gt;4569</title>
<path fill="none" stroke="#ff0000" stroke-width=".3612" d="M128.8609,-318.4623C117.5005,-310.7262 101.8816,-297.8515 95.0416,-281.9559 71.8235,-227.9986 80.4364,-206.6853 95.0416,-149.7893 97.8431,-138.8759 103.0897,-127.8181 108.5883,-118.217"/>
<polygon fill="#ff0000" stroke="#ff0000" stroke-width=".3612" points="111.6752,-119.8765 113.8658,-109.5105 105.689,-116.2479 111.6752,-119.8765"/>
</g>
<!-- E2 -->
<g id="node3" class="node">
<title>E2</title>
<polygon fill="#d3d3d3" stroke="#000000" points="243.0392,-334.9559 217.0441,-334.9559 217.0441,-317.9559 243.0392,-317.9559 243.0392,-334.9559"/>
<text text-anchor="middle" x="230.0416" y="-323.7559" font-family="Times,serif" font-size="9.00" fill="#000000">E2</text>
</g>
<!-- E1&#45;&gt;E2 -->
<!-- E1&#45;&gt;S -->
<g id="edge16" class="edge">
<title>E1&#45;&gt;S</title>
<path fill="none" stroke="#ff0000" stroke-width=".2354" d="M199.4513,-320.997C202.268,-319.9289 205.2358,-318.8607 208.0416,-317.9559 268.3686,-298.5024 305.0807,-330.3292 346.0416,-281.9559 405.4499,-211.7968 387.4919,-90.9622 376.1712,-39.3639"/>
<polygon fill="#ff0000" stroke="#ff0000" stroke-width=".2354" points="379.5424,-38.4063 373.8865,-29.4475 372.7211,-39.978 379.5424,-38.4063"/>
</g>
<!-- E3 -->
<g id="node4" class="node">
<title>E3</title>
<polygon fill="#d3d3d3" stroke="#000000" points="287.0392,-334.9559 261.0441,-334.9559 261.0441,-317.9559 287.0392,-317.9559 287.0392,-334.9559"/>
<text text-anchor="middle" x="274.0416" y="-323.7559" font-family="Times,serif" font-size="9.00" fill="#000000">E3</text>
</g>
<!-- E2&#45;&gt;E3 -->
<!-- E2&#45;&gt;S -->
<g id="edge12" class="edge">
<title>E2&#45;&gt;S</title>
<path fill="none" stroke="#ff0000" stroke-width=".4937" d="M243.4282,-320.9232C246.2466,-319.8604 249.2209,-318.813 252.0416,-317.9559 321.7818,-296.7638 358.787,-331.7226 412.0416,-281.9559 483.6378,-215.0488 503.3767,-150.9486 455.0416,-65.7061 442.1256,-42.9278 414.5012,-29.2551 394.2359,-21.9149"/>
<polygon fill="#ff0000" stroke="#ff0000" stroke-width=".4937" points="395.2948,-18.5785 384.701,-18.7234 393.0729,-25.2165 395.2948,-18.5785"/>
</g>
<!-- 5232 -->
<g id="node16" class="node">
<title>5232</title>
<ellipse fill="#add8e6" stroke="#000000" cx="422.0416" cy="-89.7477" rx="24.0833" ry="24.0833"/>
<text text-anchor="middle" x="422.0416" y="-91.5477" font-family="Times,serif" font-size="9.00" fill="#000000">5232</text>
<text text-anchor="middle" x="422.0416" y="-82.5477" font-family="Times,serif" font-size="9.00" fill="#000000">sigm</text>
</g>
<!-- E2&#45;&gt;5232 -->
<g id="edge25" class="edge">
<title>E2&#45;&gt;5232</title>
<path fill="none" stroke="#ff0000" stroke-width=".1884" d="M243.4591,-321.021C246.2753,-319.9512 249.2408,-318.8762 252.0416,-317.9559 309.8122,-298.9731 342.5976,-326.455 384.0416,-281.9559 424.0066,-239.0447 427.3785,-166.766 425.3181,-124.1309"/>
<polygon fill="#ff0000" stroke="#ff0000" stroke-width=".1884" points="428.8004,-123.7336 424.6962,-113.966 421.8135,-124.1611 428.8004,-123.7336"/>
</g>
<!-- 5358 -->
<g id="node17" class="node">
<title>5358</title>
<ellipse fill="#add8e6" stroke="#000000" cx="128.0416" cy="-257.9142" rx="24.0833" ry="24.0833"/>
<text text-anchor="middle" x="128.0416" y="-259.7142" font-family="Times,serif" font-size="9.00" fill="#000000">5358</text>
<text text-anchor="middle" x="128.0416" y="-250.7142" font-family="Times,serif" font-size="9.00" fill="#000000">sigm</text>
</g>
<!-- E2&#45;&gt;5358 -->
<g id="edge27" class="edge">
<title>E2&#45;&gt;5358</title>
<path fill="none" stroke="#00ff00" stroke-width=".6228" d="M217.1233,-317.775C201.9935,-307.6082 176.4753,-290.4605 156.619,-277.1175"/>
<polygon fill="#00ff00" stroke="#00ff00" stroke-width=".6228" points="158.4801,-274.1514 148.2278,-271.4789 154.5758,-279.9614 158.4801,-274.1514"/>
</g>
<!-- E4 -->
<g id="node5" class="node">
<title>E4</title>
<polygon fill="#d3d3d3" stroke="#000000" points="331.0392,-334.9559 305.0441,-334.9559 305.0441,-317.9559 331.0392,-317.9559 331.0392,-334.9559"/>
<text text-anchor="middle" x="318.0416" y="-323.7559" font-family="Times,serif" font-size="9.00" fill="#000000">E4</text>
</g>
<!-- E3&#45;&gt;E4 -->
<!-- 0 -->
<g id="node10" class="node">
<title>0</title>
<ellipse fill="#ffa07a" stroke="#000000" cx="218.0416" cy="-14.853" rx="14.4914" ry="14.4914"/>
<text text-anchor="middle" x="218.0416" y="-12.153" font-family="Times,serif" font-size="9.00" fill="#000000">0</text>
</g>
<!-- E3&#45;&gt;0 -->
<g id="edge14" class="edge">
<title>E3&#45;&gt;0</title>
<path fill="none" stroke="#ff0000" stroke-width="1.6893" d="M272.4854,-317.7966C265.1713,-277.0986 234.0821,-104.1078 222.4542,-39.406"/>
<polygon fill="#ff0000" stroke="#ff0000" stroke-width="1.6893" points="225.8536,-38.5338 220.6399,-29.3106 218.964,-39.772 225.8536,-38.5338"/>
</g>
<!-- E3&#45;&gt;4569 -->
<g id="edge21" class="edge">
<title>E3&#45;&gt;4569</title>
<path fill="none" stroke="#00ff00" stroke-width=".127" d="M261.0053,-321.4323C245.2944,-314.734 219.1306,-301.4164 204.0416,-281.9559 166.1911,-233.1395 185.582,-206.4768 161.0416,-149.7893 156.6012,-139.5321 150.9743,-128.7151 145.6302,-119.1314"/>
<polygon fill="#00ff00" stroke="#00ff00" stroke-width=".127" points="148.6342,-117.3337 140.6412,-110.3794 142.5529,-120.8003 148.6342,-117.3337"/>
</g>
<!-- E5 -->
<g id="node6" class="node">
<title>E5</title>
<polygon fill="#d3d3d3" stroke="#000000" points="375.0392,-334.9559 349.0441,-334.9559 349.0441,-317.9559 375.0392,-317.9559 375.0392,-334.9559"/>
<text text-anchor="middle" x="362.0416" y="-323.7559" font-family="Times,serif" font-size="9.00" fill="#000000">E5</text>
</g>
<!-- E4&#45;&gt;E5 -->
<!-- E6 -->
<g id="node7" class="node">
<title>E6</title>
<polygon fill="#d3d3d3" stroke="#000000" points="419.0392,-334.9559 393.0441,-334.9559 393.0441,-317.9559 419.0392,-317.9559 419.0392,-334.9559"/>
<text text-anchor="middle" x="406.0416" y="-323.7559" font-family="Times,serif" font-size="9.00" fill="#000000">E6</text>
</g>
<!-- E5&#45;&gt;E6 -->
<!-- E7 -->
<g id="node8" class="node">
<title>E7</title>
<polygon fill="#d3d3d3" stroke="#000000" points="519.0392,-334.9559 493.0441,-334.9559 493.0441,-317.9559 519.0392,-317.9559 519.0392,-334.9559"/>
<text text-anchor="middle" x="506.0416" y="-323.7559" font-family="Times,serif" font-size="9.00" fill="#000000">E7</text>
</g>
<!-- E6&#45;&gt;E7 -->
<!-- E6&#45;&gt;0 -->
<g id="edge18" class="edge">
<title>E6&#45;&gt;0</title>
<path fill="none" stroke="#00ff00" stroke-width=".1028" d="M400.8172,-317.7966C375.8286,-276.3789 268.1754,-97.9478 230.8463,-36.0762"/>
<polygon fill="#00ff00" stroke="#00ff00" stroke-width=".1028" points="233.8369,-34.2578 225.6741,-27.5036 227.8432,-37.874 233.8369,-34.2578"/>
</g>
<!-- E8 -->
<g id="node9" class="node">
<title>E8</title>
<polygon fill="#d3d3d3" stroke="#000000" points="563.0392,-334.9559 537.0441,-334.9559 537.0441,-317.9559 563.0392,-317.9559 563.0392,-334.9559"/>
<text text-anchor="middle" x="550.0416" y="-323.7559" font-family="Times,serif" font-size="9.00" fill="#000000">E8</text>
</g>
<!-- E7&#45;&gt;E8 -->
<!-- E7&#45;&gt;2 -->
<g id="edge13" class="edge">
<title>E7&#45;&gt;2</title>
<path fill="none" stroke="#00ff00" stroke-width="1.6048" d="M507.165,-317.9444C511.3805,-282.1986 522.7541,-142.5247 455.0416,-65.7061 421.3061,-27.4337 392.6464,-50.4633 346.0416,-29.7061 344.4745,-29.0081 342.8794,-28.2433 341.2895,-27.4404"/>
<polygon fill="#00ff00" stroke="#00ff00" stroke-width="1.6048" points="342.927,-24.3468 332.4727,-22.627 339.5728,-30.4908 342.927,-24.3468"/>
</g>
<!-- 1 -->
<g id="node11" class="node">
<title>1</title>
<ellipse fill="#eee8aa" stroke="#000000" cx="268.0416" cy="-14.853" rx="14.4914" ry="14.4914"/>
<text text-anchor="middle" x="268.0416" y="-12.153" font-family="Times,serif" font-size="9.00" fill="#000000">1</text>
</g>
<!-- E8&#45;&gt;1 -->
<g id="edge15" class="edge">
<title>E8&#45;&gt;1</title>
<path fill="none" stroke="#00ff00" stroke-width=".4473" d="M549.7047,-317.623C547.7916,-280.5854 535.2625,-136.4517 455.0416,-65.7061 401.0243,-18.069 364.7296,-54.313 297.0416,-29.7061 294.6227,-28.8267 292.1476,-27.7908 289.7126,-26.6816"/>
<polygon fill="#00ff00" stroke="#00ff00" stroke-width=".4473" points="291.2376,-23.5312 280.7245,-22.218 288.1241,-29.8007 291.2376,-23.5312"/>
</g>
<!-- 0&#45;&gt;1 -->
<!-- 1&#45;&gt;2 -->
<!-- 2&#45;&gt;S -->
<!-- 5381 -->
<g id="node14" class="node">
<title>5381</title>
<ellipse fill="#add8e6" stroke="#000000" cx="128.0416" cy="-173.831" rx="24.0833" ry="24.0833"/>
<text text-anchor="middle" x="128.0416" y="-175.631" font-family="Times,serif" font-size="9.00" fill="#000000">5381</text>
<text text-anchor="middle" x="128.0416" y="-166.631" font-family="Times,serif" font-size="9.00" fill="#000000">sigm</text>
</g>
<!-- 5381&#45;&gt;1 -->
<g id="edge29" class="edge">
<title>5381&#45;&gt;1</title>
<path fill="none" stroke="#ff0000" stroke-width=".2232" d="M144.1014,-155.5942C170.887,-125.1777 224.409,-64.4003 251.507,-33.6291"/>
<polygon fill="#ff0000" stroke="#ff0000" stroke-width=".2232" points="254.4228,-35.6139 258.4051,-25.7959 249.1694,-30.9876 254.4228,-35.6139"/>
</g>
<!-- 5381&#45;&gt;4569 -->
<g id="edge30" class="edge">
<title>5381&#45;&gt;4569</title>
<path fill="none" stroke="#00ff00" stroke-width=".1221" d="M128.0416,-149.5106C128.0416,-141.5798 128.0416,-132.6191 128.0416,-124.0953"/>
<polygon fill="#00ff00" stroke="#00ff00" stroke-width=".1221" points="131.5417,-124.0134 128.0416,-114.0134 124.5417,-124.0135 131.5417,-124.0134"/>
</g>
<!-- 4877&#45;&gt;0 -->
<g id="edge23" class="edge">
<title>4877&#45;&gt;0</title>
<path fill="none" stroke="#ff0000" stroke-width=".3233" d="M33.7527,-151.5075C45.2449,-127.41 66.4851,-89.318 95.0416,-65.7061 124.4668,-41.3759 167.1492,-27.2679 193.7166,-20.3224"/>
<polygon fill="#ff0000" stroke="#ff0000" stroke-width=".3233" points="194.8366,-23.6509 203.7032,-17.8514 193.1553,-16.8558 194.8366,-23.6509"/>
</g>
<!-- 5232&#45;&gt;S -->
<g id="edge24" class="edge">
<title>5232&#45;&gt;S</title>
<path fill="none" stroke="#00ff00" stroke-width=".4784" d="M408.1066,-69.6773C400.7736,-59.1157 391.7954,-46.1846 384.4005,-35.5339"/>
<polygon fill="#00ff00" stroke="#00ff00" stroke-width=".4784" points="387.2102,-33.4437 378.632,-27.2256 381.4603,-37.436 387.2102,-33.4437"/>
</g>
<!-- 5358&#45;&gt;5381 -->
<g id="edge28" class="edge">
<title>5358&#45;&gt;5381</title>
<path fill="none" stroke="#ff0000" stroke-width=".2987" d="M128.0416,-233.5939C128.0416,-225.663 128.0416,-216.7024 128.0416,-208.1786"/>
<polygon fill="#ff0000" stroke="#ff0000" stroke-width=".2987" points="131.5417,-208.0966 128.0416,-198.0967 124.5417,-208.0967 131.5417,-208.0966"/>
</g>
<!-- 4569&#45;&gt;0 -->
<g id="edge20" class="edge">
<title>4569&#45;&gt;0</title>
<path fill="none" stroke="#00ff00" stroke-width=".3474" d="M146.6897,-74.2295C161.9815,-61.5042 183.5416,-43.5627 198.9524,-30.7384"/>
<polygon fill="#00ff00" stroke="#00ff00" stroke-width=".3474" points="201.3545,-33.2928 206.8024,-24.2059 196.8769,-27.9122 201.3545,-33.2928"/>
</g>
</g>
</svg>
