<?xml version="1.0" encoding="UTF-8" standalone="no"?>
<!DOCTYPE svg PUBLIC "-//W3C//DTD SVG 1.1//EN"
 "http://www.w3.org/Graphics/SVG/1.1/DTD/svg11.dtd">
<!-- Generated by graphviz version 2.40.1 (20161225.0304)
 -->
<!-- Title: %3 Pages: 1 -->
<svg width="587pt" height="434pt"
 viewBox="0.00 0.00 586.77 434.10" xmlns="http://www.w3.org/2000/svg" xmlns:xlink="http://www.w3.org/1999/xlink">
<g id="graph0" class="graph" transform="scale(1 1) rotate(0) translate(4 430.0991)">
<title>%3</title>
<polygon fill="#ffffff" stroke="transparent" points="-4,4 -4,-430.0991 582.7661,-430.0991 582.7661,4 -4,4"/>
<!-- 0 -->
<g id="node1" class="node">
<title>0</title>
<polygon fill="#d3d3d3" stroke="#000000" points="81.389,-426.0991 61.3771,-426.0991 61.3771,-409.0991 81.389,-409.0991 81.389,-426.0991"/>
<text text-anchor="middle" x="71.383" y="-414.8991" font-family="Times,serif" font-size="9.00" fill="#000000">0</text>
</g>
<!-- 1 -->
<g id="node2" class="node">
<title>1</title>
<polygon fill="#d3d3d3" stroke="#000000" points="197.389,-426.0991 177.3771,-426.0991 177.3771,-409.0991 197.389,-409.0991 197.389,-426.0991"/>
<text text-anchor="middle" x="187.383" y="-414.8991" font-family="Times,serif" font-size="9.00" fill="#000000">1</text>
</g>
<!-- 0&#45;&gt;1 -->
<!-- E0 -->
<g id="node4" class="node">
<title>E0</title>
<ellipse fill="#eee8aa" stroke="#000000" cx="18.383" cy="-18.383" rx="18.2668" ry="18.2668"/>
<text text-anchor="middle" x="18.383" y="-15.683" font-family="Times,serif" font-size="9.00" fill="#000000">E0</text>
</g>
<!-- 0&#45;&gt;E0 -->
<g id="edge11" class="edge">
<title>0&#45;&gt;E0</title>
<path fill="none" stroke="#00ff00" stroke-width="2.0625" d="M61.3371,-409.4956C51.8853,-401.3132 38.069,-387.8101 30.383,-373.0991 7.5884,-329.4699 6.383,-314.1993 6.383,-264.9743 6.383,-264.9743 6.383,-264.9743 6.383,-180.891 6.383,-133.8699 11.4415,-79.4031 14.9899,-46.9803"/>
<polygon fill="#00ff00" stroke="#00ff00" stroke-width="2.0625" points="18.4871,-47.2008 16.1259,-36.8725 11.5309,-46.419 18.4871,-47.2008"/>
</g>
<!-- 2 -->
<g id="node3" class="node">
<title>2</title>
<polygon fill="#d3d3d3" stroke="#000000" points="300.389,-426.0991 280.3771,-426.0991 280.3771,-409.0991 300.389,-409.0991 300.389,-426.0991"/>
<text text-anchor="middle" x="290.383" y="-414.8991" font-family="Times,serif" font-size="9.00" fill="#000000">2</text>
</g>
<!-- 1&#45;&gt;2 -->
<!-- E1 -->
<g id="node5" class="node">
<title>E1</title>
<ellipse fill="#ffa07a" stroke="#000000" cx="88.383" cy="-18.383" rx="18.2668" ry="18.2668"/>
<text text-anchor="middle" x="88.383" y="-15.683" font-family="Times,serif" font-size="9.00" fill="#000000">E1</text>
</g>
<!-- 1&#45;&gt;E1 -->
<g id="edge14" class="edge">
<title>1&#45;&gt;E1</title>
<path fill="none" stroke="#ff0000" stroke-width=".3831" d="M177.0988,-412.8974C144.3102,-397.1241 44.383,-342.679 44.383,-264.9743 44.383,-264.9743 44.383,-264.9743 44.383,-180.891 44.383,-131.5704 63.4992,-76.6648 76.5313,-44.9644"/>
<polygon fill="#ff0000" stroke="#ff0000" stroke-width=".3831" points="79.8518,-46.0979 80.5167,-35.5239 73.4029,-43.3753 79.8518,-46.0979"/>
</g>
<!-- E5 -->
<g id="node9" class="node">
<title>E5</title>
<ellipse fill="#87cefa" stroke="#000000" cx="378.383" cy="-18.383" rx="18.2668" ry="18.2668"/>
<text text-anchor="middle" x="378.383" y="-15.683" font-family="Times,serif" font-size="9.00" fill="#000000">E5</text>
</g>
<!-- 1&#45;&gt;E5 -->
<g id="edge12" class="edge">
<title>1&#45;&gt;E5</title>
<path fill="none" stroke="#ff0000" stroke-width="2.8402" d="M197.5988,-416.6758C233.5734,-413.2142 353.6071,-399.8179 379.383,-373.0991 413.3712,-337.8678 400.383,-313.9277 400.383,-264.9743 400.383,-264.9743 400.383,-264.9743 400.383,-180.891 400.383,-133.5698 391.1092,-79.1926 384.6037,-46.8696"/>
<polygon fill="#ff0000" stroke="#ff0000" stroke-width="2.8402" points="387.9732,-45.8797 382.5211,-36.7954 381.1181,-47.2969 387.9732,-45.8797"/>
</g>
<!-- 4884 -->
<g id="node13" class="node">
<title>4884</title>
<ellipse fill="#add8e6" stroke="#000000" cx="96.383" cy="-264.9743" rx="24.0833" ry="24.0833"/>
<text text-anchor="middle" x="96.383" y="-266.7743" font-family="Times,serif" font-size="9.00" fill="#000000">4884</text>
<text text-anchor="middle" x="96.383" y="-257.7743" font-family="Times,serif" font-size="9.00" fill="#000000">sigm</text>
</g>
<!-- 1&#45;&gt;4884 -->
<g id="edge21" class="edge">
<title>1&#45;&gt;4884</title>
<path fill="none" stroke="#ff0000" stroke-width=".9009" d="M180.4189,-409.0016C173.4555,-400.2287 162.6255,-386.0948 154.383,-373.0991 138.4813,-348.0272 122.7028,-318.2062 111.6267,-296.2388"/>
<polygon fill="#ff0000" stroke="#ff0000" stroke-width=".9009" points="114.6332,-294.4251 107.0333,-287.0432 108.371,-297.5533 114.6332,-294.4251"/>
</g>
<!-- 4824 -->
<g id="node20" class="node">
<title>4824</title>
<ellipse fill="#add8e6" stroke="#000000" cx="187.383" cy="-349.0575" rx="24.0833" ry="24.0833"/>
<text text-anchor="middle" x="187.383" y="-350.8575" font-family="Times,serif" font-size="9.00" fill="#000000">4824</text>
<text text-anchor="middle" x="187.383" y="-341.8575" font-family="Times,serif" font-size="9.00" fill="#000000">sigm</text>
</g>
<!-- 1&#45;&gt;4824 -->
<g id="edge18" class="edge">
<title>1&#45;&gt;4824</title>
<path fill="none" stroke="#ff0000" stroke-width=".4114" d="M187.383,-408.9183C187.383,-402.3577 187.383,-392.8902 187.383,-383.4139"/>
<polygon fill="#ff0000" stroke="#ff0000" stroke-width=".4114" points="190.8831,-383.2649 187.383,-373.2649 183.8831,-383.265 190.8831,-383.2649"/>
</g>
<!-- 4849 -->
<g id="node22" class="node">
<title>4849</title>
<ellipse fill="#add8e6" stroke="#000000" cx="346.383" cy="-349.0575" rx="24.0833" ry="24.0833"/>
<text text-anchor="middle" x="346.383" y="-350.8575" font-family="Times,serif" font-size="9.00" fill="#000000">4849</text>
<text text-anchor="middle" x="346.383" y="-341.8575" font-family="Times,serif" font-size="9.00" fill="#000000">sigm</text>
</g>
<!-- 1&#45;&gt;4849 -->
<g id="edge20" class="edge">
<title>1&#45;&gt;4849</title>
<path fill="none" stroke="#ff0000" stroke-width=".6373" d="M197.8155,-413.1019C221.1182,-403.0566 278.1934,-378.4527 314.4318,-362.831"/>
<polygon fill="#ff0000" stroke="#ff0000" stroke-width=".6373" points="316.2574,-365.8555 324.0549,-358.6827 313.4863,-359.4273 316.2574,-365.8555"/>
</g>
<!-- E2 -->
<g id="node6" class="node">
<title>E2</title>
<ellipse fill="#eee8aa" stroke="#000000" cx="150.383" cy="-18.383" rx="18.2668" ry="18.2668"/>
<text text-anchor="middle" x="150.383" y="-15.683" font-family="Times,serif" font-size="9.00" fill="#000000">E2</text>
</g>
<!-- 2&#45;&gt;E2 -->
<g id="edge13" class="edge">
<title>2&#45;&gt;E2</title>
<path fill="none" stroke="#00ff00" stroke-width=".2786" d="M291.0601,-408.9189C293.3486,-374.7297 298.3258,-246.8405 253.383,-156.8494 243.2733,-136.606 231.6505,-138.4118 217.383,-120.8494 197.1865,-95.9885 177.5506,-64.8895 164.8139,-43.5119"/>
<polygon fill="#00ff00" stroke="#00ff00" stroke-width=".2786" points="167.7227,-41.5537 159.6333,-34.7117 161.6903,-45.1049 167.7227,-41.5537"/>
</g>
<!-- E7 -->
<g id="node11" class="node">
<title>E7</title>
<ellipse fill="#eee8aa" stroke="#000000" cx="505.383" cy="-18.383" rx="18.2668" ry="18.2668"/>
<text text-anchor="middle" x="505.383" y="-15.683" font-family="Times,serif" font-size="9.00" fill="#000000">E7</text>
</g>
<!-- 2&#45;&gt;E7 -->
<g id="edge27" class="edge">
<title>2&#45;&gt;E7</title>
<path fill="none" stroke="#00ff00" stroke-width=".392" d="M300.5739,-416.4897C347.719,-410.7453 542.383,-380.0585 542.383,-264.9743 542.383,-264.9743 542.383,-264.9743 542.383,-180.891 542.383,-132.0662 526.3081,-77.0028 515.3493,-45.1372"/>
<polygon fill="#00ff00" stroke="#00ff00" stroke-width=".392" points="518.6272,-43.9082 511.9979,-35.6437 512.0265,-46.2385 518.6272,-43.9082"/>
</g>
<!-- 1333 -->
<g id="node15" class="node">
<title>1333</title>
<ellipse fill="#f0e68c" stroke="#000000" cx="477.383" cy="-264.9743" rx="24.0833" ry="24.0833"/>
<text text-anchor="middle" x="477.383" y="-266.7743" font-family="Times,serif" font-size="9.00" fill="#000000">1333</text>
<text text-anchor="middle" x="477.383" y="-257.7743" font-family="Times,serif" font-size="9.00" fill="#000000">soft</text>
</g>
<!-- 2&#45;&gt;1333 -->
<g id="edge15" class="edge">
<title>2&#45;&gt;1333</title>
<path fill="none" stroke="#00ff00" stroke-width="1.8469" d="M300.5396,-416.3422C323.3141,-413.0588 379.2166,-402.354 414.383,-373.0991 438.4573,-353.0718 455.3941,-321.319 465.5988,-297.3939"/>
<polygon fill="#00ff00" stroke="#00ff00" stroke-width="1.8469" points="468.8939,-298.5828 469.4344,-288.0018 462.4134,-295.9362 468.8939,-298.5828"/>
</g>
<!-- 5331 -->
<g id="node18" class="node">
<title>5331</title>
<ellipse fill="#add8e6" stroke="#000000" cx="220.383" cy="-180.891" rx="24.0833" ry="24.0833"/>
<text text-anchor="middle" x="220.383" y="-182.691" font-family="Times,serif" font-size="9.00" fill="#000000">5331</text>
<text text-anchor="middle" x="220.383" y="-173.691" font-family="Times,serif" font-size="9.00" fill="#000000">sigm</text>
</g>
<!-- 2&#45;&gt;5331 -->
<g id="edge30" class="edge">
<title>2&#45;&gt;5331</title>
<path fill="none" stroke="#ff0000" stroke-width=".117" d="M287.6452,-409.0849C284.7829,-400.1407 280.187,-385.656 276.383,-373.0991 259.5729,-317.6093 240.8921,-252.8219 229.9164,-214.4159"/>
<polygon fill="#ff0000" stroke="#ff0000" stroke-width=".117" points="233.143,-212.9682 227.033,-204.3127 226.4118,-214.8893 233.143,-212.9682"/>
</g>
<!-- E0&#45;&gt;E1 -->
<!-- E1&#45;&gt;E2 -->
<!-- E3 -->
<g id="node7" class="node">
<title>E3</title>
<ellipse fill="#87cefa" stroke="#000000" cx="258.383" cy="-18.383" rx="18.2668" ry="18.2668"/>
<text text-anchor="middle" x="258.383" y="-15.683" font-family="Times,serif" font-size="9.00" fill="#000000">E3</text>
</g>
<!-- E2&#45;&gt;E3 -->
<!-- E4 -->
<g id="node8" class="node">
<title>E4</title>
<ellipse fill="#eee8aa" stroke="#000000" cx="322.383" cy="-18.383" rx="18.2668" ry="18.2668"/>
<text text-anchor="middle" x="322.383" y="-15.683" font-family="Times,serif" font-size="9.00" fill="#000000">E4</text>
</g>
<!-- E3&#45;&gt;E4 -->
<!-- E4&#45;&gt;E5 -->
<!-- E6 -->
<g id="node10" class="node">
<title>E6</title>
<ellipse fill="#87cefa" stroke="#000000" cx="450.383" cy="-18.383" rx="18.2668" ry="18.2668"/>
<text text-anchor="middle" x="450.383" y="-15.683" font-family="Times,serif" font-size="9.00" fill="#000000">E6</text>
</g>
<!-- E5&#45;&gt;E6 -->
<!-- E6&#45;&gt;E7 -->
<!-- E8 -->
<g id="node12" class="node">
<title>E8</title>
<ellipse fill="#ffa07a" stroke="#000000" cx="560.383" cy="-18.383" rx="18.2668" ry="18.2668"/>
<text text-anchor="middle" x="560.383" y="-15.683" font-family="Times,serif" font-size="9.00" fill="#000000">E8</text>
</g>
<!-- E7&#45;&gt;E8 -->
<!-- 2385 -->
<g id="node17" class="node">
<title>2385</title>
<ellipse fill="#add8e6" stroke="#000000" cx="147.383" cy="-180.891" rx="24.0833" ry="24.0833"/>
<text text-anchor="middle" x="147.383" y="-182.691" font-family="Times,serif" font-size="9.00" fill="#000000">2385</text>
<text text-anchor="middle" x="147.383" y="-173.691" font-family="Times,serif" font-size="9.00" fill="#000000">sigm</text>
</g>
<!-- 4884&#45;&gt;2385 -->
<g id="edge22" class="edge">
<title>4884&#45;&gt;2385</title>
<path fill="none" stroke="#00ff00" stroke-width=".131" d="M108.9898,-244.1896C115.181,-233.9823 122.7482,-221.5063 129.5228,-210.337"/>
<polygon fill="#00ff00" stroke="#00ff00" stroke-width=".131" points="132.5511,-212.0932 134.7446,-201.7279 126.5659,-208.463 132.5511,-212.0932"/>
</g>
<!-- 555 -->
<g id="node14" class="node">
<title>555</title>
<ellipse fill="#f08080" stroke="#000000" cx="313.383" cy="-96.8077" rx="21.4174" ry="21.4174"/>
<text text-anchor="middle" x="313.383" y="-98.6077" font-family="Times,serif" font-size="9.00" fill="#000000">555</text>
<text text-anchor="middle" x="313.383" y="-89.6077" font-family="Times,serif" font-size="9.00" fill="#000000">relu</text>
</g>
<!-- 555&#45;&gt;E3 -->
<g id="edge32" class="edge">
<title>555&#45;&gt;E3</title>
<path fill="none" stroke="#ff0000" stroke-width=".3055" d="M301.1768,-79.4028C293.435,-68.3638 283.3222,-53.9439 274.8713,-41.8937"/>
<polygon fill="#ff0000" stroke="#ff0000" stroke-width=".3055" points="277.6766,-39.798 269.0691,-33.6204 271.9454,-43.8173 277.6766,-39.798"/>
</g>
<!-- 1333&#45;&gt;E7 -->
<g id="edge16" class="edge">
<title>1333&#45;&gt;E7</title>
<path fill="none" stroke="#ff0000" stroke-width=".8126" d="M480.1188,-240.8811C485.3128,-195.1379 496.5793,-95.9157 502.142,-46.926"/>
<polygon fill="#ff0000" stroke="#ff0000" stroke-width=".8126" points="505.6505,-47.0486 503.3012,-36.7176 498.6952,-46.2588 505.6505,-47.0486"/>
</g>
<!-- 4161 -->
<g id="node16" class="node">
<title>4161</title>
<ellipse fill="#f0e68c" stroke="#000000" cx="250.383" cy="-96.8077" rx="24.0833" ry="24.0833"/>
<text text-anchor="middle" x="250.383" y="-98.6077" font-family="Times,serif" font-size="9.00" fill="#000000">4161</text>
<text text-anchor="middle" x="250.383" y="-89.6077" font-family="Times,serif" font-size="9.00" fill="#000000">soft</text>
</g>
<!-- 4161&#45;&gt;E3 -->
<g id="edge24" class="edge">
<title>4161&#45;&gt;E3</title>
<path fill="none" stroke="#ff0000" stroke-width=".4273" d="M252.8268,-72.8516C253.6539,-64.7434 254.5862,-55.6042 255.4474,-47.161"/>
<polygon fill="#ff0000" stroke="#ff0000" stroke-width=".4273" points="258.9542,-47.2722 256.4872,-36.9686 251.9903,-46.5618 258.9542,-47.2722"/>
</g>
<!-- 5222 -->
<g id="node21" class="node">
<title>5222</title>
<ellipse fill="#add8e6" stroke="#000000" cx="146.383" cy="-96.8077" rx="24.0833" ry="24.0833"/>
<text text-anchor="middle" x="146.383" y="-98.6077" font-family="Times,serif" font-size="9.00" fill="#000000">5222</text>
<text text-anchor="middle" x="146.383" y="-89.6077" font-family="Times,serif" font-size="9.00" fill="#000000">sigm</text>
</g>
<!-- 2385&#45;&gt;5222 -->
<g id="edge28" class="edge">
<title>2385&#45;&gt;5222</title>
<path fill="none" stroke="#00ff00" stroke-width=".1866" d="M147.0938,-156.5706C146.9995,-148.6398 146.8929,-139.6791 146.7915,-131.1553"/>
<polygon fill="#00ff00" stroke="#00ff00" stroke-width=".1866" points="150.2904,-131.0311 146.6716,-121.0734 143.2909,-131.1144 150.2904,-131.0311"/>
</g>
<!-- 5331&#45;&gt;E1 -->
<g id="edge31" class="edge">
<title>5331&#45;&gt;E1</title>
<path fill="none" stroke="#00ff00" stroke-width=".1885" d="M199.734,-168.2218C193.5473,-164.4961 186.7216,-160.4544 180.383,-156.8494 150.9989,-140.1374 134.0695,-147.5848 113.383,-120.8494 97.0125,-99.6918 91.1847,-69.312 89.1981,-47.1262"/>
<polygon fill="#00ff00" stroke="#00ff00" stroke-width=".1885" points="92.6777,-46.7069 88.5021,-36.9696 85.6941,-47.1855 92.6777,-46.7069"/>
</g>
<!-- 3414 -->
<g id="node19" class="node">
<title>3414</title>
<ellipse fill="#add8e6" stroke="#000000" cx="452.383" cy="-96.8077" rx="24.0833" ry="24.0833"/>
<text text-anchor="middle" x="452.383" y="-98.6077" font-family="Times,serif" font-size="9.00" fill="#000000">3414</text>
<text text-anchor="middle" x="452.383" y="-89.6077" font-family="Times,serif" font-size="9.00" fill="#000000">sigm</text>
</g>
<!-- 3414&#45;&gt;E6 -->
<g id="edge17" class="edge">
<title>3414&#45;&gt;E6</title>
<path fill="none" stroke="#00ff00" stroke-width=".2614" d="M451.7612,-72.4236C451.5548,-64.33 451.3232,-55.248 451.1096,-46.8729"/>
<polygon fill="#00ff00" stroke="#00ff00" stroke-width=".2614" points="454.6059,-46.6776 450.852,-36.7702 447.6081,-46.8562 454.6059,-46.6776"/>
</g>
<!-- 4824&#45;&gt;2385 -->
<g id="edge19" class="edge">
<title>4824&#45;&gt;2385</title>
<path fill="none" stroke="#ff0000" stroke-width=".1339" d="M179.0341,-326.4703C175.1205,-315.3078 170.6185,-301.5703 167.383,-289.0159 161.0371,-264.3918 155.8803,-236.1193 152.3933,-214.6617"/>
<polygon fill="#ff0000" stroke="#ff0000" stroke-width=".1339" points="155.8401,-214.05 150.8177,-204.7213 148.9264,-215.1459 155.8401,-214.05"/>
</g>
<!-- 5105 -->
<g id="node23" class="node">
<title>5105</title>
<ellipse fill="#add8e6" stroke="#000000" cx="200.383" cy="-264.9743" rx="24.0833" ry="24.0833"/>
<text text-anchor="middle" x="200.383" y="-266.7743" font-family="Times,serif" font-size="9.00" fill="#000000">5105</text>
<text text-anchor="middle" x="200.383" y="-257.7743" font-family="Times,serif" font-size="9.00" fill="#000000">sigm</text>
</g>
<!-- 4824&#45;&gt;5105 -->
<g id="edge25" class="edge">
<title>4824&#45;&gt;5105</title>
<path fill="none" stroke="#ff0000" stroke-width=".1147" d="M191.0736,-325.1875C192.3361,-317.0217 193.7737,-307.7232 195.1351,-298.9175"/>
<polygon fill="#ff0000" stroke="#ff0000" stroke-width=".1147" points="198.6142,-299.3213 196.6833,-288.9039 191.6964,-298.2517 198.6142,-299.3213"/>
</g>
<!-- 5222&#45;&gt;E2 -->
<g id="edge29" class="edge">
<title>5222&#45;&gt;E2</title>
<path fill="none" stroke="#00ff00" stroke-width=".1608" d="M147.6267,-72.4236C148.0396,-64.33 148.5028,-55.248 148.9299,-46.8729"/>
<polygon fill="#00ff00" stroke="#00ff00" stroke-width=".1608" points="152.4312,-46.9355 149.4452,-36.7702 145.4403,-46.5789 152.4312,-46.9355"/>
</g>
<!-- 4849&#45;&gt;E5 -->
<g id="edge23" class="edge">
<title>4849&#45;&gt;E5</title>
<path fill="none" stroke="#00ff00" stroke-width=".8888" d="M348.7102,-325.0099C354.4748,-265.4408 369.3984,-111.2262 375.6083,-47.0561"/>
<polygon fill="#00ff00" stroke="#00ff00" stroke-width=".8888" points="379.1155,-47.1496 376.5951,-36.8589 372.1481,-46.4753 379.1155,-47.1496"/>
</g>
<!-- 5105&#45;&gt;2385 -->
<g id="edge26" class="edge">
<title>5105&#45;&gt;2385</title>
<path fill="none" stroke="#00ff00" stroke-width="1.2339" d="M187.5532,-244.62C181.0264,-234.2653 172.976,-221.4936 165.8001,-210.1092"/>
<polygon fill="#00ff00" stroke="#00ff00" stroke-width="1.2339" points="168.5717,-207.9425 160.2784,-201.3492 162.6499,-211.6752 168.5717,-207.9425"/>
</g>
</g>
</svg>
