<?xml version="1.0" encoding="UTF-8" standalone="no"?>
<!DOCTYPE svg PUBLIC "-//W3C//DTD SVG 1.1//EN"
 "http://www.w3.org/Graphics/SVG/1.1/DTD/svg11.dtd">
<!-- Generated by graphviz version 2.40.1 (20161225.0304)
 -->
<!-- Title: %3 Pages: 1 -->
<svg width="387pt" height="91pt"
 viewBox="0.00 0.00 387.49 90.71" xmlns="http://www.w3.org/2000/svg" xmlns:xlink="http://www.w3.org/1999/xlink">
<g id="graph0" class="graph" transform="scale(1 1) rotate(0) translate(4 86.7061)">
<title>%3</title>
<polygon fill="#ffffff" stroke="transparent" points="-4,4 -4,-86.7061 383.4945,-86.7061 383.4945,4 -4,4"/>
<!-- E0 -->
<g id="node1" class="node">
<title>E0</title>
<polygon fill="#d3d3d3" stroke="#000000" points="27.4932,-82.7061 1.4981,-82.7061 1.4981,-65.7061 27.4932,-65.7061 27.4932,-82.7061"/>
<text text-anchor="middle" x="14.4957" y="-71.5061" font-family="Times,serif" font-size="9.00" fill="#000000">E0</text>
</g>
<!-- E1 -->
<g id="node2" class="node">
<title>E1</title>
<polygon fill="#d3d3d3" stroke="#000000" points="71.4932,-82.7061 45.4981,-82.7061 45.4981,-65.7061 71.4932,-65.7061 71.4932,-82.7061"/>
<text text-anchor="middle" x="58.4957" y="-71.5061" font-family="Times,serif" font-size="9.00" fill="#000000">E1</text>
</g>
<!-- E0&#45;&gt;E1 -->
<!-- 0 -->
<g id="node10" class="node">
<title>0</title>
<ellipse fill="#eee8aa" stroke="#000000" cx="14.4957" cy="-14.853" rx="14.4914" ry="14.4914"/>
<text text-anchor="middle" x="14.4957" y="-12.153" font-family="Times,serif" font-size="9.00" fill="#000000">0</text>
</g>
<!-- E0&#45;&gt;0 -->
<g id="edge12" class="edge">
<title>E0&#45;&gt;0</title>
<path fill="none" stroke="#00ff00" stroke-width=".8533" d="M14.4957,-65.7022C14.4957,-58.9749 14.4957,-49.2187 14.4957,-40.0472"/>
<polygon fill="#00ff00" stroke="#00ff00" stroke-width=".8533" points="17.9958,-39.7656 14.4957,-29.7657 10.9958,-39.7657 17.9958,-39.7656"/>
</g>
<!-- S -->
<g id="node13" class="node">
<title>S</title>
<ellipse fill="#87cefa" stroke="#000000" cx="155.4957" cy="-14.853" rx="14.7075" ry="14.7075"/>
<text text-anchor="middle" x="155.4957" y="-12.153" font-family="Times,serif" font-size="9.00" fill="#000000">S</text>
</g>
<!-- E0&#45;&gt;S -->
<g id="edge19" class="edge">
<title>E0&#45;&gt;S</title>
<path fill="none" stroke="#00ff00" stroke-width=".4574" d="M27.5194,-69.1582C30.4696,-68.0192 33.5893,-66.8182 36.4957,-65.7061 78.6659,-49.5696 91.0011,-49.6786 131.4957,-29.7061 132.3417,-29.2888 133.1961,-28.8504 134.053,-28.3962"/>
<polygon fill="#00ff00" stroke="#00ff00" stroke-width=".4574" points="136.1524,-31.2249 143.0503,-23.1831 132.643,-25.1681 136.1524,-31.2249"/>
</g>
<!-- E2 -->
<g id="node3" class="node">
<title>E2</title>
<polygon fill="#d3d3d3" stroke="#000000" points="115.4932,-82.7061 89.4981,-82.7061 89.4981,-65.7061 115.4932,-65.7061 115.4932,-82.7061"/>
<text text-anchor="middle" x="102.4957" y="-71.5061" font-family="Times,serif" font-size="9.00" fill="#000000">E2</text>
</g>
<!-- E1&#45;&gt;E2 -->
<!-- E1&#45;&gt;S -->
<g id="edge16" class="edge">
<title>E1&#45;&gt;S</title>
<path fill="none" stroke="#00ff00" stroke-width=".6885" d="M71.6997,-66.1937C86.3339,-57.305 110.6273,-42.5239 131.4957,-29.7061 132.2994,-29.2124 133.118,-28.709 133.9447,-28.2001"/>
<polygon fill="#00ff00" stroke="#00ff00" stroke-width=".6885" points="136.1311,-30.9635 142.801,-22.7316 132.4534,-25.0074 136.1311,-30.9635"/>
</g>
<!-- E3 -->
<g id="node4" class="node">
<title>E3</title>
<polygon fill="#d3d3d3" stroke="#000000" points="159.4932,-82.7061 133.4981,-82.7061 133.4981,-65.7061 159.4932,-65.7061 159.4932,-82.7061"/>
<text text-anchor="middle" x="146.4957" y="-71.5061" font-family="Times,serif" font-size="9.00" fill="#000000">E3</text>
</g>
<!-- E2&#45;&gt;E3 -->
<!-- E2&#45;&gt;S -->
<g id="edge14" class="edge">
<title>E2&#45;&gt;S</title>
<path fill="none" stroke="#00ff00" stroke-width=".408" d="M110.0893,-65.7022C117.4794,-57.4263 128.9627,-44.5665 138.5317,-33.8504"/>
<polygon fill="#00ff00" stroke="#00ff00" stroke-width=".408" points="141.3267,-35.9753 145.3766,-26.185 136.1054,-31.3128 141.3267,-35.9753"/>
</g>
<!-- E4 -->
<g id="node5" class="node">
<title>E4</title>
<polygon fill="#d3d3d3" stroke="#000000" points="203.4932,-82.7061 177.4981,-82.7061 177.4981,-65.7061 203.4932,-65.7061 203.4932,-82.7061"/>
<text text-anchor="middle" x="190.4957" y="-71.5061" font-family="Times,serif" font-size="9.00" fill="#000000">E4</text>
</g>
<!-- E3&#45;&gt;E4 -->
<!-- E3&#45;&gt;S -->
<g id="edge18" class="edge">
<title>E3&#45;&gt;S</title>
<path fill="none" stroke="#ff0000" stroke-width=".418" d="M147.7852,-65.7022C148.8164,-58.9018 150.3169,-49.0063 151.7207,-39.7483"/>
<polygon fill="#ff0000" stroke="#ff0000" stroke-width=".418" points="155.1956,-40.1774 153.2344,-29.7657 148.2747,-39.1279 155.1956,-40.1774"/>
</g>
<!-- E5 -->
<g id="node6" class="node">
<title>E5</title>
<polygon fill="#d3d3d3" stroke="#000000" points="247.4932,-82.7061 221.4981,-82.7061 221.4981,-65.7061 247.4932,-65.7061 247.4932,-82.7061"/>
<text text-anchor="middle" x="234.4957" y="-71.5061" font-family="Times,serif" font-size="9.00" fill="#000000">E5</text>
</g>
<!-- E4&#45;&gt;E5 -->
<!-- E4&#45;&gt;0 -->
<g id="edge17" class="edge">
<title>E4&#45;&gt;0</title>
<path fill="none" stroke="#00ff00" stroke-width=".5832" d="M177.0754,-68.7797C174.2595,-67.7092 171.2947,-66.6318 168.4957,-65.7061 111.5761,-46.8799 93.4272,-53.7228 38.4957,-29.7061 37.6314,-29.3282 36.7614,-28.9232 35.8915,-28.4972"/>
<polygon fill="#00ff00" stroke="#00ff00" stroke-width=".5832" points="37.2668,-25.2557 26.833,-23.4156 33.842,-31.3607 37.2668,-25.2557"/>
</g>
<!-- E6 -->
<g id="node7" class="node">
<title>E6</title>
<polygon fill="#d3d3d3" stroke="#000000" points="291.4932,-82.7061 265.4981,-82.7061 265.4981,-65.7061 291.4932,-65.7061 291.4932,-82.7061"/>
<text text-anchor="middle" x="278.4957" y="-71.5061" font-family="Times,serif" font-size="9.00" fill="#000000">E6</text>
</g>
<!-- E5&#45;&gt;E6 -->
<!-- 1 -->
<g id="node11" class="node">
<title>1</title>
<ellipse fill="#eee8aa" stroke="#000000" cx="61.4957" cy="-14.853" rx="14.4914" ry="14.4914"/>
<text text-anchor="middle" x="61.4957" y="-12.153" font-family="Times,serif" font-size="9.00" fill="#000000">1</text>
</g>
<!-- E5&#45;&gt;1 -->
<g id="edge13" class="edge">
<title>E5&#45;&gt;1</title>
<path fill="none" stroke="#ff0000" stroke-width="3.0039" d="M221.071,-68.7929C218.2554,-67.7214 215.2919,-66.6403 212.4957,-65.7061 156.8511,-47.1142 139.1793,-53.3714 85.4957,-29.7061 84.6326,-29.3256 83.7636,-28.9183 82.8944,-28.4905"/>
<polygon fill="#ff0000" stroke="#ff0000" stroke-width="3.0039" points="84.2719,-25.2498 73.8398,-23.4002 80.8416,-31.3517 84.2719,-25.2498"/>
</g>
<!-- E7 -->
<g id="node8" class="node">
<title>E7</title>
<polygon fill="#d3d3d3" stroke="#000000" points="335.4932,-82.7061 309.4981,-82.7061 309.4981,-65.7061 335.4932,-65.7061 335.4932,-82.7061"/>
<text text-anchor="middle" x="322.4957" y="-71.5061" font-family="Times,serif" font-size="9.00" fill="#000000">E7</text>
</g>
<!-- E6&#45;&gt;E7 -->
<!-- E6&#45;&gt;0 -->
<g id="edge20" class="edge">
<title>E6&#45;&gt;0</title>
<path fill="none" stroke="#ff0000" stroke-width=".1827" d="M265.1456,-68.5468C262.3246,-67.4932 259.34,-66.4816 256.4957,-65.7061 161.7529,-39.8747 130.439,-64.2007 38.4957,-29.7061 37.4405,-29.3102 36.3812,-28.8656 35.327,-28.3841"/>
<polygon fill="#ff0000" stroke="#ff0000" stroke-width=".1827" points="36.6771,-25.1323 26.2281,-23.3804 33.304,-31.266 36.6771,-25.1323"/>
</g>
<!-- E8 -->
<g id="node9" class="node">
<title>E8</title>
<polygon fill="#d3d3d3" stroke="#000000" points="379.4932,-82.7061 353.4981,-82.7061 353.4981,-65.7061 379.4932,-65.7061 379.4932,-82.7061"/>
<text text-anchor="middle" x="366.4957" y="-71.5061" font-family="Times,serif" font-size="9.00" fill="#000000">E8</text>
</g>
<!-- E7&#45;&gt;E8 -->
<!-- 2 -->
<g id="node12" class="node">
<title>2</title>
<ellipse fill="#ffa07a" stroke="#000000" cx="108.4957" cy="-14.853" rx="14.4914" ry="14.4914"/>
<text text-anchor="middle" x="108.4957" y="-12.153" font-family="Times,serif" font-size="9.00" fill="#000000">2</text>
</g>
<!-- E7&#45;&gt;2 -->
<g id="edge15" class="edge">
<title>E7&#45;&gt;2</title>
<path fill="none" stroke="#ff0000" stroke-width="1.8614" d="M309.1167,-68.6484C306.2977,-67.5874 303.3213,-66.5471 300.4957,-65.7061 226.8904,-43.7984 202.4772,-59.0198 131.4957,-29.7061 130.65,-29.3568 129.8014,-28.9761 128.9551,-28.5706"/>
<polygon fill="#ff0000" stroke="#ff0000" stroke-width="1.8614" points="130.636,-25.5001 120.2157,-23.5846 127.1671,-31.5801 130.636,-25.5001"/>
</g>
<!-- 0&#45;&gt;1 -->
<!-- 1&#45;&gt;2 -->
<!-- 2&#45;&gt;S -->
</g>
</svg>
