<?xml version="1.0" encoding="UTF-8" standalone="no"?>
<!DOCTYPE svg PUBLIC "-//W3C//DTD SVG 1.1//EN"
 "http://www.w3.org/Graphics/SVG/1.1/DTD/svg11.dtd">
<!-- Generated by graphviz version 2.40.1 (20161225.0304)
 -->
<!-- Title: %3 Pages: 1 -->
<svg width="485pt" height="98pt"
 viewBox="0.00 0.00 484.77 97.77" xmlns="http://www.w3.org/2000/svg" xmlns:xlink="http://www.w3.org/1999/xlink">
<g id="graph0" class="graph" transform="scale(1 1) rotate(0) translate(4 93.7661)">
<title>%3</title>
<polygon fill="#ffffff" stroke="transparent" points="-4,4 -4,-93.7661 480.7661,-93.7661 480.7661,4 -4,4"/>
<!-- 0 -->
<g id="node1" class="node">
<title>0</title>
<polygon fill="#d3d3d3" stroke="#000000" points="193.389,-89.7661 173.3771,-89.7661 173.3771,-72.7661 193.389,-72.7661 193.389,-89.7661"/>
<text text-anchor="middle" x="183.383" y="-78.5661" font-family="Times,serif" font-size="9.00" fill="#000000">0</text>
</g>
<!-- 1 -->
<g id="node2" class="node">
<title>1</title>
<polygon fill="#d3d3d3" stroke="#000000" points="232.389,-89.7661 212.3771,-89.7661 212.3771,-72.7661 232.389,-72.7661 232.389,-89.7661"/>
<text text-anchor="middle" x="222.383" y="-78.5661" font-family="Times,serif" font-size="9.00" fill="#000000">1</text>
</g>
<!-- 0&#45;&gt;1 -->
<!-- E3 -->
<g id="node7" class="node">
<title>E3</title>
<ellipse fill="#ffa07a" stroke="#000000" cx="183.383" cy="-18.383" rx="18.2668" ry="18.2668"/>
<text text-anchor="middle" x="183.383" y="-15.683" font-family="Times,serif" font-size="9.00" fill="#000000">E3</text>
</g>
<!-- 0&#45;&gt;E3 -->
<g id="edge11" class="edge">
<title>0&#45;&gt;E3</title>
<path fill="none" stroke="#ff0000" stroke-width="1.0318" d="M183.383,-72.5225C183.383,-65.8532 183.383,-56.2664 183.383,-47.008"/>
<polygon fill="#ff0000" stroke="#ff0000" stroke-width="1.0318" points="186.8831,-46.8675 183.383,-36.8675 179.8831,-46.8676 186.8831,-46.8675"/>
</g>
<!-- 2 -->
<g id="node3" class="node">
<title>2</title>
<polygon fill="#d3d3d3" stroke="#000000" points="271.389,-89.7661 251.3771,-89.7661 251.3771,-72.7661 271.389,-72.7661 271.389,-89.7661"/>
<text text-anchor="middle" x="261.383" y="-78.5661" font-family="Times,serif" font-size="9.00" fill="#000000">2</text>
</g>
<!-- 1&#45;&gt;2 -->
<!-- E8 -->
<g id="node12" class="node">
<title>E8</title>
<ellipse fill="#eee8aa" stroke="#000000" cx="458.383" cy="-18.383" rx="18.2668" ry="18.2668"/>
<text text-anchor="middle" x="458.383" y="-15.683" font-family="Times,serif" font-size="9.00" fill="#000000">E8</text>
</g>
<!-- 1&#45;&gt;E8 -->
<g id="edge13" class="edge">
<title>1&#45;&gt;E8</title>
<path fill="none" stroke="#00ff00" stroke-width="1.5636" d="M232.4024,-76.5151C235.5457,-75.1591 239.0626,-73.777 242.383,-72.7661 323.7685,-47.9883 351.5394,-68.7225 430.383,-36.7661 431.7977,-36.1927 433.2167,-35.5436 434.6242,-34.8404"/>
<polygon fill="#00ff00" stroke="#00ff00" stroke-width="1.5636" points="436.6877,-37.6896 443.5793,-29.6424 433.1736,-31.6355 436.6877,-37.6896"/>
</g>
<!-- 2&#45;&gt;E3 -->
<g id="edge15" class="edge">
<title>2&#45;&gt;E3</title>
<path fill="none" stroke="#ff0000" stroke-width=".5188" d="M251.1859,-73.0452C239.688,-63.7757 220.6434,-48.4221 205.6608,-36.3432"/>
<polygon fill="#ff0000" stroke="#ff0000" stroke-width=".5188" points="207.8106,-33.5806 197.8287,-30.0291 203.4171,-39.0302 207.8106,-33.5806"/>
</g>
<!-- E4 -->
<g id="node8" class="node">
<title>E4</title>
<ellipse fill="#87cefa" stroke="#000000" cx="238.383" cy="-18.383" rx="18.2668" ry="18.2668"/>
<text text-anchor="middle" x="238.383" y="-15.683" font-family="Times,serif" font-size="9.00" fill="#000000">E4</text>
</g>
<!-- 2&#45;&gt;E4 -->
<g id="edge14" class="edge">
<title>2&#45;&gt;E4</title>
<path fill="none" stroke="#ff0000" stroke-width=".2223" d="M258.185,-72.5225C255.5929,-65.4356 251.7959,-55.0544 248.2184,-45.2734"/>
<polygon fill="#ff0000" stroke="#ff0000" stroke-width=".2223" points="251.489,-44.0261 244.7669,-35.8368 244.915,-46.4306 251.489,-44.0261"/>
</g>
<!-- E7 -->
<g id="node11" class="node">
<title>E7</title>
<ellipse fill="#ffa07a" stroke="#000000" cx="403.383" cy="-18.383" rx="18.2668" ry="18.2668"/>
<text text-anchor="middle" x="403.383" y="-15.683" font-family="Times,serif" font-size="9.00" fill="#000000">E7</text>
</g>
<!-- 2&#45;&gt;E7 -->
<g id="edge12" class="edge">
<title>2&#45;&gt;E7</title>
<path fill="none" stroke="#00ff00" stroke-width="4.5217" d="M271.4458,-78.1275C291.6945,-71.6427 338.5693,-55.771 375.383,-36.7661 376.7394,-36.0659 378.1121,-35.316 379.4833,-34.5339"/>
<polygon fill="#00ff00" stroke="#00ff00" stroke-width="4.5217" points="381.8831,-37.7029 388.3267,-29.0928 377.7364,-30.9634 381.8831,-37.7029"/>
</g>
<!-- E0 -->
<g id="node4" class="node">
<title>E0</title>
<ellipse fill="#eee8aa" stroke="#000000" cx="18.383" cy="-18.383" rx="18.2668" ry="18.2668"/>
<text text-anchor="middle" x="18.383" y="-15.683" font-family="Times,serif" font-size="9.00" fill="#000000">E0</text>
</g>
<!-- E1 -->
<g id="node5" class="node">
<title>E1</title>
<ellipse fill="#eee8aa" stroke="#000000" cx="73.383" cy="-18.383" rx="18.2668" ry="18.2668"/>
<text text-anchor="middle" x="73.383" y="-15.683" font-family="Times,serif" font-size="9.00" fill="#000000">E1</text>
</g>
<!-- E0&#45;&gt;E1 -->
<!-- E2 -->
<g id="node6" class="node">
<title>E2</title>
<ellipse fill="#ffa07a" stroke="#000000" cx="128.383" cy="-18.383" rx="18.2668" ry="18.2668"/>
<text text-anchor="middle" x="128.383" y="-15.683" font-family="Times,serif" font-size="9.00" fill="#000000">E2</text>
</g>
<!-- E1&#45;&gt;E2 -->
<!-- E2&#45;&gt;E3 -->
<!-- E3&#45;&gt;E4 -->
<!-- E5 -->
<g id="node9" class="node">
<title>E5</title>
<ellipse fill="#eee8aa" stroke="#000000" cx="293.383" cy="-18.383" rx="18.2668" ry="18.2668"/>
<text text-anchor="middle" x="293.383" y="-15.683" font-family="Times,serif" font-size="9.00" fill="#000000">E5</text>
</g>
<!-- E4&#45;&gt;E5 -->
<!-- E6 -->
<g id="node10" class="node">
<title>E6</title>
<ellipse fill="#ffa07a" stroke="#000000" cx="348.383" cy="-18.383" rx="18.2668" ry="18.2668"/>
<text text-anchor="middle" x="348.383" y="-15.683" font-family="Times,serif" font-size="9.00" fill="#000000">E6</text>
</g>
<!-- E5&#45;&gt;E6 -->
<!-- E6&#45;&gt;E7 -->
<!-- E7&#45;&gt;E8 -->
</g>
</svg>
