<?xml version="1.0" encoding="utf-8" standalone="no"?>
<!DOCTYPE svg PUBLIC "-//W3C//DTD SVG 1.1//EN"
  "http://www.w3.org/Graphics/SVG/1.1/DTD/svg11.dtd">
<!-- Created with matplotlib (https://matplotlib.org/) -->
<svg height="345.6pt" version="1.1" viewBox="0 0 460.8 345.6" width="460.8pt" xmlns="http://www.w3.org/2000/svg" xmlns:xlink="http://www.w3.org/1999/xlink">
 <defs>
  <style type="text/css">
*{stroke-linecap:butt;stroke-linejoin:round;}
  </style>
 </defs>
 <g id="figure_1">
  <g id="patch_1">
   <path d="M 0 345.6 
L 460.8 345.6 
L 460.8 0 
L 0 0 
z
" style="fill:#ffffff;"/>
  </g>
  <g id="axes_1">
   <g id="patch_2">
    <path d="M 57.6 307.584 
L 414.72 307.584 
L 414.72 41.472 
L 57.6 41.472 
z
" style="fill:#ffffff;"/>
   </g>
   <g id="PolyCollection_1">
    <path clip-path="url(#pe9c38de82d)" d="M 73.832727 53.568 
L 73.832727 59.083099 
L 74.918528 73.923387 
L 76.00433 85.098572 
L 77.090131 89.306206 
L 78.175932 103.593393 
L 79.261733 107.105568 
L 80.347534 123.9039 
L 81.433335 140.145889 
L 82.519137 131.798345 
L 83.604938 163.525814 
L 84.690739 160.465351 
L 85.77654 150.196084 
L 86.862341 151.257238 
L 87.948142 166.309208 
L 89.033943 156.424637 
L 90.119745 171.023471 
L 91.205546 155.320224 
L 92.291347 176.933855 
L 93.377148 183.232034 
L 94.462949 206.006282 
L 95.54875 167.648976 
L 96.634552 229.50004 
L 97.720353 186.519721 
L 98.806154 205.470342 
L 99.891955 183.893999 
L 100.977756 162.331596 
L 102.063557 172.04275 
L 103.149358 195.029815 
L 104.23516 186.431785 
L 105.320961 187.65669 
L 106.406762 189.520613 
L 107.492563 173.363235 
L 108.578364 185.23502 
L 109.664165 204.606003 
L 110.749967 198.629538 
L 111.835768 195.532156 
L 112.921569 209.013964 
L 114.00737 201.74268 
L 115.093171 186.852439 
L 116.178972 194.440598 
L 117.264773 174.569959 
L 118.350575 174.819735 
L 119.436376 160.648055 
L 120.522177 179.496228 
L 121.607978 191.901941 
L 122.693779 220.212138 
L 123.77958 242.732182 
L 124.865382 205.597429 
L 125.951183 195.340329 
L 127.036984 194.951754 
L 128.122785 182.663427 
L 129.208586 204.549572 
L 130.294387 225.750321 
L 131.380189 229.952201 
L 132.46599 218.121447 
L 133.551791 202.998923 
L 134.637592 215.409514 
L 135.723393 203.870033 
L 136.809194 197.928286 
L 137.894995 172.178709 
L 138.980797 180.199476 
L 140.066598 184.688374 
L 141.152399 209.755462 
L 142.2382 189.473426 
L 143.324001 193.639564 
L 144.409802 217.695314 
L 145.495604 210.912914 
L 146.581405 211.389759 
L 147.667206 245.554915 
L 148.753007 231.24664 
L 149.838808 225.15604 
L 150.924609 241.087704 
L 152.01041 219.691765 
L 153.096212 212.80458 
L 154.182013 241.002836 
L 155.267814 237.278985 
L 156.353615 280.557029 
L 157.439416 265.540273 
L 158.525217 261.124994 
L 159.611019 230.468196 
L 160.69682 226.560414 
L 161.782621 265.912672 
L 162.868422 258.488417 
L 163.954223 258.34471 
L 165.040024 231.09954 
L 166.125825 213.440106 
L 167.211627 234.507234 
L 168.297428 243.346983 
L 169.383229 239.564709 
L 170.46903 259.097427 
L 171.554831 222.001567 
L 172.640632 232.000527 
L 173.726434 226.32298 
L 174.812235 242.174725 
L 175.898036 209.480152 
L 176.983837 204.852516 
L 178.069638 221.45772 
L 179.155439 215.804622 
L 180.24124 236.703754 
L 181.327042 228.747372 
L 182.412843 211.551044 
L 183.498644 235.036747 
L 184.584445 205.996284 
L 185.670246 257.88919 
L 186.756047 251.697691 
L 187.841849 235.653933 
L 188.92765 256.93623 
L 190.013451 249.041524 
L 191.099252 263.031931 
L 192.185053 242.157902 
L 193.270854 230.755609 
L 194.356656 254.33209 
L 195.442457 210.66129 
L 196.528258 212.000519 
L 197.614059 213.513421 
L 198.69986 230.172356 
L 199.785661 227.349799 
L 200.871462 220.888277 
L 201.957264 186.817098 
L 203.043065 199.48198 
L 204.128866 187.205389 
L 205.214667 163.964413 
L 206.300468 179.232506 
L 207.386269 180.487627 
L 208.472071 168.745066 
L 209.557872 181.477729 
L 210.643673 187.026323 
L 211.729474 194.903901 
L 212.815275 182.570015 
L 213.901076 187.186008 
L 214.986877 183.644471 
L 216.072679 177.953565 
L 217.15848 184.44554 
L 218.244281 194.911894 
L 219.330082 184.776256 
L 220.415883 171.250346 
L 221.501684 195.196599 
L 222.587486 206.39331 
L 223.673287 223.008057 
L 224.759088 200.125057 
L 225.844889 208.237523 
L 226.93069 227.15244 
L 228.016491 214.593702 
L 229.102292 214.303235 
L 230.188094 224.535076 
L 231.273895 216.77717 
L 232.359696 206.569775 
L 233.445497 177.322582 
L 234.531298 193.940967 
L 235.617099 172.546196 
L 236.702901 181.439061 
L 237.788702 192.762448 
L 238.874503 217.628748 
L 239.960304 229.278439 
L 241.046105 211.882147 
L 242.131906 214.350041 
L 243.217708 202.309805 
L 244.303509 210.225093 
L 245.38931 232.840868 
L 246.475111 197.582746 
L 247.560912 203.226924 
L 248.646713 187.163163 
L 249.732514 197.792385 
L 250.818316 178.866498 
L 251.904117 183.368389 
L 252.989918 203.482628 
L 254.075719 217.318961 
L 255.16152 193.698083 
L 256.247321 182.160286 
L 257.333123 159.001956 
L 258.418924 165.200403 
L 259.504725 173.968247 
L 260.590526 181.604241 
L 261.676327 165.296616 
L 262.762128 192.901392 
L 263.847929 205.724645 
L 264.933731 182.809134 
L 266.019532 177.712087 
L 267.105333 172.331267 
L 268.191134 178.670861 
L 269.276935 177.61238 
L 270.362736 177.278673 
L 271.448538 182.824371 
L 272.534339 228.194668 
L 273.62014 214.06802 
L 274.705941 215.507216 
L 275.791742 198.230622 
L 276.877543 205.24293 
L 277.963344 197.798762 
L 279.049146 231.384552 
L 280.134947 214.422191 
L 281.220748 180.670589 
L 282.306549 188.440862 
L 283.39235 163.331596 
L 284.478151 190.633218 
L 285.563953 226.218176 
L 286.649754 200.012804 
L 287.735555 210.772867 
L 288.821356 190.983217 
L 289.907157 204.670655 
L 290.992958 205.028405 
L 292.07876 199.702789 
L 293.164561 199.909921 
L 294.250362 202.589617 
L 295.336163 221.814166 
L 296.421964 187.402749 
L 297.507765 219.009212 
L 298.593566 199.069764 
L 299.679368 196.169451 
L 300.765169 199.791819 
L 301.85097 227.097342 
L 302.936771 176.976193 
L 304.022572 193.118099 
L 305.108373 191.351082 
L 306.194175 202.911227 
L 307.279976 196.401732 
L 308.365777 232.330778 
L 309.451578 243.989195 
L 310.537379 242.695891 
L 311.62318 205.696678 
L 312.708981 212.05076 
L 313.794783 205.544742 
L 314.880584 226.152857 
L 315.966385 241.294369 
L 317.052186 226.608764 
L 318.137987 209.966516 
L 319.223788 262.610342 
L 320.30959 247.082005 
L 321.395391 270.071181 
L 322.481192 244.903477 
L 323.566993 180.648698 
L 324.652794 212.790889 
L 325.738595 210.048606 
L 326.824396 187.52167 
L 327.910198 185.271107 
L 328.995999 195.483098 
L 330.0818 198.151388 
L 331.167601 208.909144 
L 332.253402 194.643059 
L 333.339203 208.2119 
L 334.425005 194.335126 
L 335.510806 218.039653 
L 336.596607 214.204763 
L 337.682408 213.663448 
L 338.768209 213.535305 
L 339.85401 199.956067 
L 340.939811 247.640598 
L 342.025613 220.185366 
L 343.111414 223.745365 
L 344.197215 197.585426 
L 345.283016 219.336646 
L 346.368817 208.354757 
L 347.454618 213.958302 
L 348.54042 207.292543 
L 349.626221 232.94284 
L 350.712022 182.643886 
L 351.797823 170.350918 
L 352.883624 183.847907 
L 353.969425 175.745125 
L 355.055227 188.475704 
L 356.141028 224.38221 
L 357.226829 220.199846 
L 358.31263 227.482291 
L 359.398431 190.362725 
L 360.484232 207.589591 
L 361.570033 220.011925 
L 362.655835 224.420861 
L 363.741636 280.495988 
L 364.827437 265.146475 
L 365.913238 270.281256 
L 366.999039 267.132287 
L 368.08484 254.653371 
L 369.170642 247.368638 
L 370.256443 281.045555 
L 371.342244 228.170409 
L 372.428045 236.861857 
L 373.513846 250.79068 
L 374.599647 295.488 
L 375.685448 250.010069 
L 376.77125 208.355684 
L 377.857051 217.834917 
L 378.942852 183.382381 
L 380.028653 193.235068 
L 381.114454 193.886075 
L 382.200255 222.238473 
L 383.286057 251.329445 
L 384.371858 267.451213 
L 385.457659 271.376982 
L 386.54346 268.081412 
L 387.629261 260.918469 
L 388.715062 221.011214 
L 389.800863 221.510659 
L 390.886665 234.2709 
L 391.972466 250.659876 
L 393.058267 241.452266 
L 394.144068 253.714807 
L 395.229869 220.237059 
L 396.31567 257.843164 
L 397.401472 285.115101 
L 398.487273 273.311476 
L 398.487273 238.788308 
L 398.487273 238.788308 
L 397.401472 245.400417 
L 396.31567 216.769011 
L 395.229869 196.831401 
L 394.144068 219.894676 
L 393.058267 210.103709 
L 391.972466 225.848001 
L 390.886665 222.409603 
L 389.800863 202.786333 
L 388.715062 203.554358 
L 387.629261 236.689072 
L 386.54346 237.599485 
L 385.457659 255.216864 
L 384.371858 245.550939 
L 383.286057 217.20127 
L 382.200255 197.216968 
L 381.114454 178.501037 
L 380.028653 178.30706 
L 378.942852 172.124722 
L 377.857051 209.397039 
L 376.77125 195.666029 
L 375.685448 219.245074 
L 374.599647 250.621746 
L 373.513846 220.583919 
L 372.428045 213.883791 
L 371.342244 215.461911 
L 370.256443 237.54716 
L 369.170642 233.798608 
L 368.08484 230.563737 
L 366.999039 240.551828 
L 365.913238 232.419218 
L 364.827437 238.435466 
L 363.741636 239.191256 
L 362.655835 214.850542 
L 361.570033 201.818862 
L 360.484232 189.935165 
L 359.398431 167.868473 
L 358.31263 186.994514 
L 357.226829 197.553509 
L 356.141028 199.0111 
L 355.055227 175.296714 
L 353.969425 164.853303 
L 352.883624 160.06979 
L 351.797823 153.294402 
L 350.712022 164.163561 
L 349.626221 212.351044 
L 348.54042 201.025752 
L 347.454618 187.499439 
L 346.368817 177.481118 
L 345.283016 177.286937 
L 344.197215 175.593425 
L 343.111414 195.841104 
L 342.025613 187.574726 
L 340.939811 209.62449 
L 339.85401 175.327721 
L 338.768209 192.403914 
L 337.682408 190.045748 
L 336.596607 193.141543 
L 335.510806 202.290709 
L 334.425005 182.073183 
L 333.339203 184.095164 
L 332.253402 169.224636 
L 331.167601 192.256203 
L 330.0818 192.161489 
L 328.995999 189.070603 
L 327.910198 164.454349 
L 326.824396 173.35731 
L 325.738595 176.825457 
L 324.652794 183.570824 
L 323.566993 158.411172 
L 322.481192 206.956903 
L 321.395391 221.807949 
L 320.30959 221.13189 
L 319.223788 224.528681 
L 318.137987 186.021632 
L 317.052186 210.898273 
L 315.966385 212.633973 
L 314.880584 199.412825 
L 313.794783 187.815576 
L 312.708981 195.06153 
L 311.62318 198.683323 
L 310.537379 212.977053 
L 309.451578 223.865935 
L 308.365777 201.656504 
L 307.279976 177.153274 
L 306.194175 178.572513 
L 305.108373 156.521069 
L 304.022572 176.595742 
L 302.936771 158.16818 
L 301.85097 197.776039 
L 300.765169 174.06466 
L 299.679368 170.451515 
L 298.593566 178.592174 
L 297.507765 183.384284 
L 296.421964 169.627276 
L 295.336163 198.143963 
L 294.250362 181.317804 
L 293.164561 180.261264 
L 292.07876 171.297872 
L 290.992958 189.678626 
L 289.907157 183.838965 
L 288.821356 162.524358 
L 287.735555 181.560534 
L 286.649754 181.828086 
L 285.563953 200.784479 
L 284.478151 158.418686 
L 283.39235 154.890458 
L 282.306549 175.491184 
L 281.220748 162.286469 
L 280.134947 179.139106 
L 279.049146 185.550897 
L 277.963344 179.537843 
L 276.877543 178.659994 
L 275.791742 172.69807 
L 274.705941 182.725542 
L 273.62014 188.04774 
L 272.534339 183.730691 
L 271.448538 157.552681 
L 270.362736 147.209359 
L 269.276935 142.797104 
L 268.191134 156.138825 
L 267.105333 160.227851 
L 266.019532 148.177413 
L 264.933731 156.466875 
L 263.847929 180.2345 
L 262.762128 154.63974 
L 261.676327 139.77351 
L 260.590526 147.181488 
L 259.504725 144.689205 
L 258.418924 157.26379 
L 257.333123 147.41777 
L 256.247321 161.216258 
L 255.16152 178.330533 
L 254.075719 201.829833 
L 252.989918 183.447147 
L 251.904117 169.606119 
L 250.818316 164.16747 
L 249.732514 171.823007 
L 248.646713 154.800551 
L 247.560912 174.111755 
L 246.475111 180.030593 
L 245.38931 194.055136 
L 244.303509 188.722231 
L 243.217708 175.102612 
L 242.131906 187.226413 
L 241.046105 173.675113 
L 239.960304 205.62355 
L 238.874503 195.313432 
L 237.788702 177.013345 
L 236.702901 161.873405 
L 235.617099 163.84926 
L 234.531298 169.945999 
L 233.445497 173.056326 
L 232.359696 198.22469 
L 231.273895 193.166109 
L 230.188094 201.795343 
L 229.102292 188.424793 
L 228.016491 202.754743 
L 226.93069 199.459659 
L 225.844889 185.934363 
L 224.759088 185.025618 
L 223.673287 190.784113 
L 222.587486 178.380511 
L 221.501684 181.651938 
L 220.415883 156.936925 
L 219.330082 156.714666 
L 218.244281 163.319256 
L 217.15848 154.995952 
L 216.072679 163.77642 
L 214.986877 155.610671 
L 213.901076 164.862152 
L 212.815275 144.88789 
L 211.729474 160.479755 
L 210.643673 161.659288 
L 209.557872 168.118435 
L 208.472071 157.446957 
L 207.386269 158.615813 
L 206.300468 151.642873 
L 205.214667 143.67989 
L 204.128866 150.911539 
L 203.043065 159.198488 
L 201.957264 171.172811 
L 200.871462 195.970889 
L 199.785661 209.312628 
L 198.69986 202.44098 
L 197.614059 183.666461 
L 196.528258 181.01217 
L 195.442457 185.742238 
L 194.356656 197.721049 
L 193.270854 193.821811 
L 192.185053 205.85212 
L 191.099252 223.0834 
L 190.013451 206.884743 
L 188.92765 221.945884 
L 187.841849 192.741119 
L 186.756047 205.576237 
L 185.670246 217.391544 
L 184.584445 177.814238 
L 183.498644 195.876071 
L 182.412843 194.444288 
L 181.327042 203.120645 
L 180.24124 189.358076 
L 179.155439 176.172513 
L 178.069638 179.572029 
L 176.983837 168.030383 
L 175.898036 177.97759 
L 174.812235 199.467913 
L 173.726434 191.070062 
L 172.640632 195.694124 
L 171.554831 190.4055 
L 170.46903 203.088556 
L 169.383229 193.589999 
L 168.297428 198.571532 
L 167.211627 194.06941 
L 166.125825 187.132644 
L 165.040024 199.496353 
L 163.954223 214.249855 
L 162.868422 221.831286 
L 161.782621 228.413605 
L 160.69682 191.766341 
L 159.611019 189.624498 
L 158.525217 201.886126 
L 157.439416 211.454289 
L 156.353615 230.438965 
L 155.267814 223.249745 
L 154.182013 228.129279 
L 153.096212 193.168114 
L 152.01041 198.506453 
L 150.924609 209.606134 
L 149.838808 206.176237 
L 148.753007 198.339946 
L 147.667206 219.633479 
L 146.581405 184.643484 
L 145.495604 202.472443 
L 144.409802 199.88964 
L 143.324001 173.620975 
L 142.2382 172.029409 
L 141.152399 198.949767 
L 140.066598 176.785136 
L 138.980797 168.123543 
L 137.894995 159.94285 
L 136.809194 177.999209 
L 135.723393 183.773992 
L 134.637592 184.392881 
L 133.551791 154.440637 
L 132.46599 187.043052 
L 131.380189 213.5356 
L 130.294387 208.655903 
L 129.208586 188.613485 
L 128.122785 156.628083 
L 127.036984 178.017824 
L 125.951183 172.381768 
L 124.865382 178.35315 
L 123.77958 201.712002 
L 122.693779 175.980991 
L 121.607978 177.771758 
L 120.522177 163.523717 
L 119.436376 138.69014 
L 118.350575 149.87991 
L 117.264773 153.867891 
L 116.178972 184.681858 
L 115.093171 174.763733 
L 114.00737 166.989284 
L 112.921569 170.674926 
L 111.835768 166.462646 
L 110.749967 152.330992 
L 109.664165 171.256768 
L 108.578364 163.324903 
L 107.492563 149.268 
L 106.406762 153.711635 
L 105.320961 182.088534 
L 104.23516 166.085536 
L 103.149358 166.808049 
L 102.063557 155.108719 
L 100.977756 143.822649 
L 99.891955 158.650864 
L 98.806154 177.473168 
L 97.720353 160.202963 
L 96.634552 189.243828 
L 95.54875 155.973609 
L 94.462949 171.215792 
L 93.377148 167.652777 
L 92.291347 164.964734 
L 91.205546 139.040978 
L 90.119745 141.306406 
L 89.033943 135.689963 
L 87.948142 147.458836 
L 86.862341 132.500914 
L 85.77654 133.607536 
L 84.690739 135.397169 
L 83.604938 140.185491 
L 82.519137 114.020517 
L 81.433335 123.822344 
L 80.347534 105.195881 
L 79.261733 87.567692 
L 78.175932 85.645181 
L 77.090131 82.321441 
L 76.00433 79.996662 
L 74.918528 56.771808 
L 73.832727 53.568 
z
" style="fill:#0000ff;fill-opacity:0.25;"/>
   </g>
   <g id="matplotlib.axis_1">
    <g id="xtick_1">
     <g id="line2d_1">
      <defs>
       <path d="M 0 0 
L 0 3.5 
" id="mf61f7f2a98" style="stroke:#000000;stroke-width:0.8;"/>
      </defs>
      <g>
       <use style="stroke:#000000;stroke-width:0.8;" x="73.832727" xlink:href="#mf61f7f2a98" y="307.584"/>
      </g>
     </g>
     <g id="text_1">
      <!-- 0 -->
      <defs>
       <path d="M 31.78125 66.40625 
Q 24.171875 66.40625 20.328125 58.90625 
Q 16.5 51.421875 16.5 36.375 
Q 16.5 21.390625 20.328125 13.890625 
Q 24.171875 6.390625 31.78125 6.390625 
Q 39.453125 6.390625 43.28125 13.890625 
Q 47.125 21.390625 47.125 36.375 
Q 47.125 51.421875 43.28125 58.90625 
Q 39.453125 66.40625 31.78125 66.40625 
z
M 31.78125 74.21875 
Q 44.046875 74.21875 50.515625 64.515625 
Q 56.984375 54.828125 56.984375 36.375 
Q 56.984375 17.96875 50.515625 8.265625 
Q 44.046875 -1.421875 31.78125 -1.421875 
Q 19.53125 -1.421875 13.0625 8.265625 
Q 6.59375 17.96875 6.59375 36.375 
Q 6.59375 54.828125 13.0625 64.515625 
Q 19.53125 74.21875 31.78125 74.21875 
z
" id="DejaVuSans-48"/>
      </defs>
      <g transform="translate(70.651477 322.182437)scale(0.1 -0.1)">
       <use xlink:href="#DejaVuSans-48"/>
      </g>
     </g>
    </g>
    <g id="xtick_2">
     <g id="line2d_2">
      <g>
       <use style="stroke:#000000;stroke-width:0.8;" x="128.122785" xlink:href="#mf61f7f2a98" y="307.584"/>
      </g>
     </g>
     <g id="text_2">
      <!-- 50 -->
      <defs>
       <path d="M 10.796875 72.90625 
L 49.515625 72.90625 
L 49.515625 64.59375 
L 19.828125 64.59375 
L 19.828125 46.734375 
Q 21.96875 47.46875 24.109375 47.828125 
Q 26.265625 48.1875 28.421875 48.1875 
Q 40.625 48.1875 47.75 41.5 
Q 54.890625 34.8125 54.890625 23.390625 
Q 54.890625 11.625 47.5625 5.09375 
Q 40.234375 -1.421875 26.90625 -1.421875 
Q 22.3125 -1.421875 17.546875 -0.640625 
Q 12.796875 0.140625 7.71875 1.703125 
L 7.71875 11.625 
Q 12.109375 9.234375 16.796875 8.0625 
Q 21.484375 6.890625 26.703125 6.890625 
Q 35.15625 6.890625 40.078125 11.328125 
Q 45.015625 15.765625 45.015625 23.390625 
Q 45.015625 31 40.078125 35.4375 
Q 35.15625 39.890625 26.703125 39.890625 
Q 22.75 39.890625 18.8125 39.015625 
Q 14.890625 38.140625 10.796875 36.28125 
z
" id="DejaVuSans-53"/>
      </defs>
      <g transform="translate(121.760285 322.182437)scale(0.1 -0.1)">
       <use xlink:href="#DejaVuSans-53"/>
       <use x="63.623047" xlink:href="#DejaVuSans-48"/>
      </g>
     </g>
    </g>
    <g id="xtick_3">
     <g id="line2d_3">
      <g>
       <use style="stroke:#000000;stroke-width:0.8;" x="182.412843" xlink:href="#mf61f7f2a98" y="307.584"/>
      </g>
     </g>
     <g id="text_3">
      <!-- 100 -->
      <defs>
       <path d="M 12.40625 8.296875 
L 28.515625 8.296875 
L 28.515625 63.921875 
L 10.984375 60.40625 
L 10.984375 69.390625 
L 28.421875 72.90625 
L 38.28125 72.90625 
L 38.28125 8.296875 
L 54.390625 8.296875 
L 54.390625 0 
L 12.40625 0 
z
" id="DejaVuSans-49"/>
      </defs>
      <g transform="translate(172.869093 322.182437)scale(0.1 -0.1)">
       <use xlink:href="#DejaVuSans-49"/>
       <use x="63.623047" xlink:href="#DejaVuSans-48"/>
       <use x="127.246094" xlink:href="#DejaVuSans-48"/>
      </g>
     </g>
    </g>
    <g id="xtick_4">
     <g id="line2d_4">
      <g>
       <use style="stroke:#000000;stroke-width:0.8;" x="236.702901" xlink:href="#mf61f7f2a98" y="307.584"/>
      </g>
     </g>
     <g id="text_4">
      <!-- 150 -->
      <g transform="translate(227.159151 322.182437)scale(0.1 -0.1)">
       <use xlink:href="#DejaVuSans-49"/>
       <use x="63.623047" xlink:href="#DejaVuSans-53"/>
       <use x="127.246094" xlink:href="#DejaVuSans-48"/>
      </g>
     </g>
    </g>
    <g id="xtick_5">
     <g id="line2d_5">
      <g>
       <use style="stroke:#000000;stroke-width:0.8;" x="290.992958" xlink:href="#mf61f7f2a98" y="307.584"/>
      </g>
     </g>
     <g id="text_5">
      <!-- 200 -->
      <defs>
       <path d="M 19.1875 8.296875 
L 53.609375 8.296875 
L 53.609375 0 
L 7.328125 0 
L 7.328125 8.296875 
Q 12.9375 14.109375 22.625 23.890625 
Q 32.328125 33.6875 34.8125 36.53125 
Q 39.546875 41.84375 41.421875 45.53125 
Q 43.3125 49.21875 43.3125 52.78125 
Q 43.3125 58.59375 39.234375 62.25 
Q 35.15625 65.921875 28.609375 65.921875 
Q 23.96875 65.921875 18.8125 64.3125 
Q 13.671875 62.703125 7.8125 59.421875 
L 7.8125 69.390625 
Q 13.765625 71.78125 18.9375 73 
Q 24.125 74.21875 28.421875 74.21875 
Q 39.75 74.21875 46.484375 68.546875 
Q 53.21875 62.890625 53.21875 53.421875 
Q 53.21875 48.921875 51.53125 44.890625 
Q 49.859375 40.875 45.40625 35.40625 
Q 44.1875 33.984375 37.640625 27.21875 
Q 31.109375 20.453125 19.1875 8.296875 
z
" id="DejaVuSans-50"/>
      </defs>
      <g transform="translate(281.449208 322.182437)scale(0.1 -0.1)">
       <use xlink:href="#DejaVuSans-50"/>
       <use x="63.623047" xlink:href="#DejaVuSans-48"/>
       <use x="127.246094" xlink:href="#DejaVuSans-48"/>
      </g>
     </g>
    </g>
    <g id="xtick_6">
     <g id="line2d_6">
      <g>
       <use style="stroke:#000000;stroke-width:0.8;" x="345.283016" xlink:href="#mf61f7f2a98" y="307.584"/>
      </g>
     </g>
     <g id="text_6">
      <!-- 250 -->
      <g transform="translate(335.739266 322.182437)scale(0.1 -0.1)">
       <use xlink:href="#DejaVuSans-50"/>
       <use x="63.623047" xlink:href="#DejaVuSans-53"/>
       <use x="127.246094" xlink:href="#DejaVuSans-48"/>
      </g>
     </g>
    </g>
    <g id="xtick_7">
     <g id="line2d_7">
      <g>
       <use style="stroke:#000000;stroke-width:0.8;" x="399.573074" xlink:href="#mf61f7f2a98" y="307.584"/>
      </g>
     </g>
     <g id="text_7">
      <!-- 300 -->
      <defs>
       <path d="M 40.578125 39.3125 
Q 47.65625 37.796875 51.625 33 
Q 55.609375 28.21875 55.609375 21.1875 
Q 55.609375 10.40625 48.1875 4.484375 
Q 40.765625 -1.421875 27.09375 -1.421875 
Q 22.515625 -1.421875 17.65625 -0.515625 
Q 12.796875 0.390625 7.625 2.203125 
L 7.625 11.71875 
Q 11.71875 9.328125 16.59375 8.109375 
Q 21.484375 6.890625 26.8125 6.890625 
Q 36.078125 6.890625 40.9375 10.546875 
Q 45.796875 14.203125 45.796875 21.1875 
Q 45.796875 27.640625 41.28125 31.265625 
Q 36.765625 34.90625 28.71875 34.90625 
L 20.21875 34.90625 
L 20.21875 43.015625 
L 29.109375 43.015625 
Q 36.375 43.015625 40.234375 45.921875 
Q 44.09375 48.828125 44.09375 54.296875 
Q 44.09375 59.90625 40.109375 62.90625 
Q 36.140625 65.921875 28.71875 65.921875 
Q 24.65625 65.921875 20.015625 65.03125 
Q 15.375 64.15625 9.8125 62.3125 
L 9.8125 71.09375 
Q 15.4375 72.65625 20.34375 73.4375 
Q 25.25 74.21875 29.59375 74.21875 
Q 40.828125 74.21875 47.359375 69.109375 
Q 53.90625 64.015625 53.90625 55.328125 
Q 53.90625 49.265625 50.4375 45.09375 
Q 46.96875 40.921875 40.578125 39.3125 
z
" id="DejaVuSans-51"/>
      </defs>
      <g transform="translate(390.029324 322.182437)scale(0.1 -0.1)">
       <use xlink:href="#DejaVuSans-51"/>
       <use x="63.623047" xlink:href="#DejaVuSans-48"/>
       <use x="127.246094" xlink:href="#DejaVuSans-48"/>
      </g>
     </g>
    </g>
   </g>
   <g id="matplotlib.axis_2">
    <g id="ytick_1">
     <g id="line2d_8">
      <defs>
       <path d="M 0 0 
L -3.5 0 
" id="m3a610cfb05" style="stroke:#000000;stroke-width:0.8;"/>
      </defs>
      <g>
       <use style="stroke:#000000;stroke-width:0.8;" x="57.6" xlink:href="#m3a610cfb05" y="290.908736"/>
      </g>
     </g>
     <g id="text_8">
      <!-- 0.4 -->
      <defs>
       <path d="M 10.6875 12.40625 
L 21 12.40625 
L 21 0 
L 10.6875 0 
z
" id="DejaVuSans-46"/>
       <path d="M 37.796875 64.3125 
L 12.890625 25.390625 
L 37.796875 25.390625 
z
M 35.203125 72.90625 
L 47.609375 72.90625 
L 47.609375 25.390625 
L 58.015625 25.390625 
L 58.015625 17.1875 
L 47.609375 17.1875 
L 47.609375 0 
L 37.796875 0 
L 37.796875 17.1875 
L 4.890625 17.1875 
L 4.890625 26.703125 
z
" id="DejaVuSans-52"/>
      </defs>
      <g transform="translate(34.696875 294.707955)scale(0.1 -0.1)">
       <use xlink:href="#DejaVuSans-48"/>
       <use x="63.623047" xlink:href="#DejaVuSans-46"/>
       <use x="95.410156" xlink:href="#DejaVuSans-52"/>
      </g>
     </g>
    </g>
    <g id="ytick_2">
     <g id="line2d_9">
      <g>
       <use style="stroke:#000000;stroke-width:0.8;" x="57.6" xlink:href="#m3a610cfb05" y="257.392873"/>
      </g>
     </g>
     <g id="text_9">
      <!-- 0.6 -->
      <defs>
       <path d="M 33.015625 40.375 
Q 26.375 40.375 22.484375 35.828125 
Q 18.609375 31.296875 18.609375 23.390625 
Q 18.609375 15.53125 22.484375 10.953125 
Q 26.375 6.390625 33.015625 6.390625 
Q 39.65625 6.390625 43.53125 10.953125 
Q 47.40625 15.53125 47.40625 23.390625 
Q 47.40625 31.296875 43.53125 35.828125 
Q 39.65625 40.375 33.015625 40.375 
z
M 52.59375 71.296875 
L 52.59375 62.3125 
Q 48.875 64.0625 45.09375 64.984375 
Q 41.3125 65.921875 37.59375 65.921875 
Q 27.828125 65.921875 22.671875 59.328125 
Q 17.53125 52.734375 16.796875 39.40625 
Q 19.671875 43.65625 24.015625 45.921875 
Q 28.375 48.1875 33.59375 48.1875 
Q 44.578125 48.1875 50.953125 41.515625 
Q 57.328125 34.859375 57.328125 23.390625 
Q 57.328125 12.15625 50.6875 5.359375 
Q 44.046875 -1.421875 33.015625 -1.421875 
Q 20.359375 -1.421875 13.671875 8.265625 
Q 6.984375 17.96875 6.984375 36.375 
Q 6.984375 53.65625 15.1875 63.9375 
Q 23.390625 74.21875 37.203125 74.21875 
Q 40.921875 74.21875 44.703125 73.484375 
Q 48.484375 72.75 52.59375 71.296875 
z
" id="DejaVuSans-54"/>
      </defs>
      <g transform="translate(34.696875 261.192092)scale(0.1 -0.1)">
       <use xlink:href="#DejaVuSans-48"/>
       <use x="63.623047" xlink:href="#DejaVuSans-46"/>
       <use x="95.410156" xlink:href="#DejaVuSans-54"/>
      </g>
     </g>
    </g>
    <g id="ytick_3">
     <g id="line2d_10">
      <g>
       <use style="stroke:#000000;stroke-width:0.8;" x="57.6" xlink:href="#m3a610cfb05" y="223.87701"/>
      </g>
     </g>
     <g id="text_10">
      <!-- 0.8 -->
      <defs>
       <path d="M 31.78125 34.625 
Q 24.75 34.625 20.71875 30.859375 
Q 16.703125 27.09375 16.703125 20.515625 
Q 16.703125 13.921875 20.71875 10.15625 
Q 24.75 6.390625 31.78125 6.390625 
Q 38.8125 6.390625 42.859375 10.171875 
Q 46.921875 13.96875 46.921875 20.515625 
Q 46.921875 27.09375 42.890625 30.859375 
Q 38.875 34.625 31.78125 34.625 
z
M 21.921875 38.8125 
Q 15.578125 40.375 12.03125 44.71875 
Q 8.5 49.078125 8.5 55.328125 
Q 8.5 64.0625 14.71875 69.140625 
Q 20.953125 74.21875 31.78125 74.21875 
Q 42.671875 74.21875 48.875 69.140625 
Q 55.078125 64.0625 55.078125 55.328125 
Q 55.078125 49.078125 51.53125 44.71875 
Q 48 40.375 41.703125 38.8125 
Q 48.828125 37.15625 52.796875 32.3125 
Q 56.78125 27.484375 56.78125 20.515625 
Q 56.78125 9.90625 50.3125 4.234375 
Q 43.84375 -1.421875 31.78125 -1.421875 
Q 19.734375 -1.421875 13.25 4.234375 
Q 6.78125 9.90625 6.78125 20.515625 
Q 6.78125 27.484375 10.78125 32.3125 
Q 14.796875 37.15625 21.921875 38.8125 
z
M 18.3125 54.390625 
Q 18.3125 48.734375 21.84375 45.5625 
Q 25.390625 42.390625 31.78125 42.390625 
Q 38.140625 42.390625 41.71875 45.5625 
Q 45.3125 48.734375 45.3125 54.390625 
Q 45.3125 60.0625 41.71875 63.234375 
Q 38.140625 66.40625 31.78125 66.40625 
Q 25.390625 66.40625 21.84375 63.234375 
Q 18.3125 60.0625 18.3125 54.390625 
z
" id="DejaVuSans-56"/>
      </defs>
      <g transform="translate(34.696875 227.676229)scale(0.1 -0.1)">
       <use xlink:href="#DejaVuSans-48"/>
       <use x="63.623047" xlink:href="#DejaVuSans-46"/>
       <use x="95.410156" xlink:href="#DejaVuSans-56"/>
      </g>
     </g>
    </g>
    <g id="ytick_4">
     <g id="line2d_11">
      <g>
       <use style="stroke:#000000;stroke-width:0.8;" x="57.6" xlink:href="#m3a610cfb05" y="190.361147"/>
      </g>
     </g>
     <g id="text_11">
      <!-- 1.0 -->
      <g transform="translate(34.696875 194.160366)scale(0.1 -0.1)">
       <use xlink:href="#DejaVuSans-49"/>
       <use x="63.623047" xlink:href="#DejaVuSans-46"/>
       <use x="95.410156" xlink:href="#DejaVuSans-48"/>
      </g>
     </g>
    </g>
    <g id="ytick_5">
     <g id="line2d_12">
      <g>
       <use style="stroke:#000000;stroke-width:0.8;" x="57.6" xlink:href="#m3a610cfb05" y="156.845284"/>
      </g>
     </g>
     <g id="text_12">
      <!-- 1.2 -->
      <g transform="translate(34.696875 160.644503)scale(0.1 -0.1)">
       <use xlink:href="#DejaVuSans-49"/>
       <use x="63.623047" xlink:href="#DejaVuSans-46"/>
       <use x="95.410156" xlink:href="#DejaVuSans-50"/>
      </g>
     </g>
    </g>
    <g id="ytick_6">
     <g id="line2d_13">
      <g>
       <use style="stroke:#000000;stroke-width:0.8;" x="57.6" xlink:href="#m3a610cfb05" y="123.329421"/>
      </g>
     </g>
     <g id="text_13">
      <!-- 1.4 -->
      <g transform="translate(34.696875 127.12864)scale(0.1 -0.1)">
       <use xlink:href="#DejaVuSans-49"/>
       <use x="63.623047" xlink:href="#DejaVuSans-46"/>
       <use x="95.410156" xlink:href="#DejaVuSans-52"/>
      </g>
     </g>
    </g>
    <g id="ytick_7">
     <g id="line2d_14">
      <g>
       <use style="stroke:#000000;stroke-width:0.8;" x="57.6" xlink:href="#m3a610cfb05" y="89.813558"/>
      </g>
     </g>
     <g id="text_14">
      <!-- 1.6 -->
      <g transform="translate(34.696875 93.612777)scale(0.1 -0.1)">
       <use xlink:href="#DejaVuSans-49"/>
       <use x="63.623047" xlink:href="#DejaVuSans-46"/>
       <use x="95.410156" xlink:href="#DejaVuSans-54"/>
      </g>
     </g>
    </g>
    <g id="ytick_8">
     <g id="line2d_15">
      <g>
       <use style="stroke:#000000;stroke-width:0.8;" x="57.6" xlink:href="#m3a610cfb05" y="56.297695"/>
      </g>
     </g>
     <g id="text_15">
      <!-- 1.8 -->
      <g transform="translate(34.696875 60.096914)scale(0.1 -0.1)">
       <use xlink:href="#DejaVuSans-49"/>
       <use x="63.623047" xlink:href="#DejaVuSans-46"/>
       <use x="95.410156" xlink:href="#DejaVuSans-56"/>
      </g>
     </g>
    </g>
    <g id="text_16">
     <!-- Distance -->
     <defs>
      <path d="M 19.671875 64.796875 
L 19.671875 8.109375 
L 31.59375 8.109375 
Q 46.6875 8.109375 53.6875 14.9375 
Q 60.6875 21.78125 60.6875 36.53125 
Q 60.6875 51.171875 53.6875 57.984375 
Q 46.6875 64.796875 31.59375 64.796875 
z
M 9.8125 72.90625 
L 30.078125 72.90625 
Q 51.265625 72.90625 61.171875 64.09375 
Q 71.09375 55.28125 71.09375 36.53125 
Q 71.09375 17.671875 61.125 8.828125 
Q 51.171875 0 30.078125 0 
L 9.8125 0 
z
" id="DejaVuSans-68"/>
      <path d="M 9.421875 54.6875 
L 18.40625 54.6875 
L 18.40625 0 
L 9.421875 0 
z
M 9.421875 75.984375 
L 18.40625 75.984375 
L 18.40625 64.59375 
L 9.421875 64.59375 
z
" id="DejaVuSans-105"/>
      <path d="M 44.28125 53.078125 
L 44.28125 44.578125 
Q 40.484375 46.53125 36.375 47.5 
Q 32.28125 48.484375 27.875 48.484375 
Q 21.1875 48.484375 17.84375 46.4375 
Q 14.5 44.390625 14.5 40.28125 
Q 14.5 37.15625 16.890625 35.375 
Q 19.28125 33.59375 26.515625 31.984375 
L 29.59375 31.296875 
Q 39.15625 29.25 43.1875 25.515625 
Q 47.21875 21.78125 47.21875 15.09375 
Q 47.21875 7.46875 41.1875 3.015625 
Q 35.15625 -1.421875 24.609375 -1.421875 
Q 20.21875 -1.421875 15.453125 -0.5625 
Q 10.6875 0.296875 5.421875 2 
L 5.421875 11.28125 
Q 10.40625 8.6875 15.234375 7.390625 
Q 20.0625 6.109375 24.8125 6.109375 
Q 31.15625 6.109375 34.5625 8.28125 
Q 37.984375 10.453125 37.984375 14.40625 
Q 37.984375 18.0625 35.515625 20.015625 
Q 33.0625 21.96875 24.703125 23.78125 
L 21.578125 24.515625 
Q 13.234375 26.265625 9.515625 29.90625 
Q 5.8125 33.546875 5.8125 39.890625 
Q 5.8125 47.609375 11.28125 51.796875 
Q 16.75 56 26.8125 56 
Q 31.78125 56 36.171875 55.265625 
Q 40.578125 54.546875 44.28125 53.078125 
z
" id="DejaVuSans-115"/>
      <path d="M 18.3125 70.21875 
L 18.3125 54.6875 
L 36.8125 54.6875 
L 36.8125 47.703125 
L 18.3125 47.703125 
L 18.3125 18.015625 
Q 18.3125 11.328125 20.140625 9.421875 
Q 21.96875 7.515625 27.59375 7.515625 
L 36.8125 7.515625 
L 36.8125 0 
L 27.59375 0 
Q 17.1875 0 13.234375 3.875 
Q 9.28125 7.765625 9.28125 18.015625 
L 9.28125 47.703125 
L 2.6875 47.703125 
L 2.6875 54.6875 
L 9.28125 54.6875 
L 9.28125 70.21875 
z
" id="DejaVuSans-116"/>
      <path d="M 34.28125 27.484375 
Q 23.390625 27.484375 19.1875 25 
Q 14.984375 22.515625 14.984375 16.5 
Q 14.984375 11.71875 18.140625 8.90625 
Q 21.296875 6.109375 26.703125 6.109375 
Q 34.1875 6.109375 38.703125 11.40625 
Q 43.21875 16.703125 43.21875 25.484375 
L 43.21875 27.484375 
z
M 52.203125 31.203125 
L 52.203125 0 
L 43.21875 0 
L 43.21875 8.296875 
Q 40.140625 3.328125 35.546875 0.953125 
Q 30.953125 -1.421875 24.3125 -1.421875 
Q 15.921875 -1.421875 10.953125 3.296875 
Q 6 8.015625 6 15.921875 
Q 6 25.140625 12.171875 29.828125 
Q 18.359375 34.515625 30.609375 34.515625 
L 43.21875 34.515625 
L 43.21875 35.40625 
Q 43.21875 41.609375 39.140625 45 
Q 35.0625 48.390625 27.6875 48.390625 
Q 23 48.390625 18.546875 47.265625 
Q 14.109375 46.140625 10.015625 43.890625 
L 10.015625 52.203125 
Q 14.9375 54.109375 19.578125 55.046875 
Q 24.21875 56 28.609375 56 
Q 40.484375 56 46.34375 49.84375 
Q 52.203125 43.703125 52.203125 31.203125 
z
" id="DejaVuSans-97"/>
      <path d="M 54.890625 33.015625 
L 54.890625 0 
L 45.90625 0 
L 45.90625 32.71875 
Q 45.90625 40.484375 42.875 44.328125 
Q 39.84375 48.1875 33.796875 48.1875 
Q 26.515625 48.1875 22.3125 43.546875 
Q 18.109375 38.921875 18.109375 30.90625 
L 18.109375 0 
L 9.078125 0 
L 9.078125 54.6875 
L 18.109375 54.6875 
L 18.109375 46.1875 
Q 21.34375 51.125 25.703125 53.5625 
Q 30.078125 56 35.796875 56 
Q 45.21875 56 50.046875 50.171875 
Q 54.890625 44.34375 54.890625 33.015625 
z
" id="DejaVuSans-110"/>
      <path d="M 48.78125 52.59375 
L 48.78125 44.1875 
Q 44.96875 46.296875 41.140625 47.34375 
Q 37.3125 48.390625 33.40625 48.390625 
Q 24.65625 48.390625 19.8125 42.84375 
Q 14.984375 37.3125 14.984375 27.296875 
Q 14.984375 17.28125 19.8125 11.734375 
Q 24.65625 6.203125 33.40625 6.203125 
Q 37.3125 6.203125 41.140625 7.25 
Q 44.96875 8.296875 48.78125 10.40625 
L 48.78125 2.09375 
Q 45.015625 0.34375 40.984375 -0.53125 
Q 36.96875 -1.421875 32.421875 -1.421875 
Q 20.0625 -1.421875 12.78125 6.34375 
Q 5.515625 14.109375 5.515625 27.296875 
Q 5.515625 40.671875 12.859375 48.328125 
Q 20.21875 56 33.015625 56 
Q 37.15625 56 41.109375 55.140625 
Q 45.0625 54.296875 48.78125 52.59375 
z
" id="DejaVuSans-99"/>
      <path d="M 56.203125 29.59375 
L 56.203125 25.203125 
L 14.890625 25.203125 
Q 15.484375 15.921875 20.484375 11.0625 
Q 25.484375 6.203125 34.421875 6.203125 
Q 39.59375 6.203125 44.453125 7.46875 
Q 49.3125 8.734375 54.109375 11.28125 
L 54.109375 2.78125 
Q 49.265625 0.734375 44.1875 -0.34375 
Q 39.109375 -1.421875 33.890625 -1.421875 
Q 20.796875 -1.421875 13.15625 6.1875 
Q 5.515625 13.8125 5.515625 26.8125 
Q 5.515625 40.234375 12.765625 48.109375 
Q 20.015625 56 32.328125 56 
Q 43.359375 56 49.78125 48.890625 
Q 56.203125 41.796875 56.203125 29.59375 
z
M 47.21875 32.234375 
Q 47.125 39.59375 43.09375 43.984375 
Q 39.0625 48.390625 32.421875 48.390625 
Q 24.90625 48.390625 20.390625 44.140625 
Q 15.875 39.890625 15.1875 32.171875 
z
" id="DejaVuSans-101"/>
     </defs>
     <g transform="translate(28.617187 196.3905)rotate(-90)scale(0.1 -0.1)">
      <use xlink:href="#DejaVuSans-68"/>
      <use x="77.001953" xlink:href="#DejaVuSans-105"/>
      <use x="104.785156" xlink:href="#DejaVuSans-115"/>
      <use x="156.884766" xlink:href="#DejaVuSans-116"/>
      <use x="196.09375" xlink:href="#DejaVuSans-97"/>
      <use x="257.373047" xlink:href="#DejaVuSans-110"/>
      <use x="320.751953" xlink:href="#DejaVuSans-99"/>
      <use x="375.732422" xlink:href="#DejaVuSans-101"/>
     </g>
    </g>
   </g>
   <g id="line2d_16">
    <path clip-path="url(#pe9c38de82d)" d="M 73.832727 56.325549 
L 74.918528 65.347597 
L 76.00433 82.547617 
L 77.090131 85.813824 
L 78.175932 94.619287 
L 79.261733 97.33663 
L 81.433335 131.984117 
L 82.519137 122.909431 
L 83.604938 151.855652 
L 84.690739 147.93126 
L 85.77654 141.90181 
L 86.862341 141.879076 
L 87.948142 156.884022 
L 89.033943 146.0573 
L 90.119745 156.164938 
L 91.205546 147.180601 
L 92.291347 170.949295 
L 93.377148 175.442406 
L 94.462949 188.611037 
L 95.54875 161.811293 
L 96.634552 209.371934 
L 97.720353 173.361342 
L 98.806154 191.471755 
L 100.977756 153.077122 
L 102.063557 163.575735 
L 103.149358 180.918932 
L 104.23516 176.25866 
L 105.320961 184.872612 
L 106.406762 171.616124 
L 107.492563 161.315618 
L 109.664165 187.931386 
L 110.749967 175.480265 
L 111.835768 180.997401 
L 112.921569 189.844445 
L 114.00737 184.365982 
L 115.093171 180.808086 
L 116.178972 189.561228 
L 117.264773 164.218925 
L 118.350575 162.349823 
L 119.436376 149.669097 
L 120.522177 171.509972 
L 122.693779 198.096564 
L 123.77958 222.222092 
L 124.865382 191.97529 
L 125.951183 183.861049 
L 127.036984 186.484789 
L 128.122785 169.645755 
L 129.208586 196.581528 
L 130.294387 217.203112 
L 131.380189 221.743901 
L 132.46599 202.58225 
L 133.551791 178.71978 
L 134.637592 199.901198 
L 136.809194 187.963748 
L 137.894995 166.060779 
L 138.980797 174.16151 
L 140.066598 180.736755 
L 141.152399 204.352615 
L 142.2382 180.751418 
L 143.324001 183.63027 
L 144.409802 208.792477 
L 145.495604 206.692679 
L 146.581405 198.016621 
L 147.667206 232.594197 
L 148.753007 214.793293 
L 149.838808 215.666139 
L 150.924609 225.346919 
L 152.01041 209.099109 
L 153.096212 202.986347 
L 154.182013 234.566057 
L 155.267814 230.264365 
L 156.353615 255.497997 
L 157.439416 238.497281 
L 158.525217 231.50556 
L 159.611019 210.046347 
L 160.69682 209.163378 
L 161.782621 247.163138 
L 162.868422 240.159852 
L 163.954223 236.297283 
L 165.040024 215.297947 
L 166.125825 200.286375 
L 167.211627 214.288322 
L 168.297428 220.959257 
L 169.383229 216.577354 
L 170.46903 231.092992 
L 171.554831 206.203534 
L 172.640632 213.847326 
L 173.726434 208.696521 
L 174.812235 220.821319 
L 175.898036 193.728871 
L 176.983837 186.44145 
L 178.069638 200.514874 
L 179.155439 195.988567 
L 180.24124 213.030915 
L 181.327042 215.934009 
L 182.412843 202.997666 
L 183.498644 215.456409 
L 184.584445 191.905261 
L 185.670246 237.640367 
L 186.756047 228.636964 
L 187.841849 214.197526 
L 188.92765 239.441057 
L 190.013451 227.963133 
L 191.099252 243.057666 
L 192.185053 224.005011 
L 193.270854 212.28871 
L 194.356656 226.02657 
L 195.442457 198.201764 
L 196.528258 196.506344 
L 197.614059 198.589941 
L 198.69986 216.306668 
L 199.785661 218.331214 
L 200.871462 208.429583 
L 201.957264 178.994954 
L 203.043065 179.340234 
L 204.128866 169.058464 
L 205.214667 153.822152 
L 206.300468 165.43769 
L 207.386269 169.55172 
L 208.472071 163.096011 
L 209.557872 174.798082 
L 210.643673 174.342806 
L 211.729474 177.691828 
L 212.815275 163.728952 
L 213.901076 176.02408 
L 214.986877 169.627571 
L 216.072679 170.864992 
L 217.15848 169.720746 
L 218.244281 179.115575 
L 219.330082 170.745461 
L 220.415883 164.093636 
L 221.501684 188.424269 
L 222.587486 192.38691 
L 223.673287 206.896085 
L 224.759088 192.575337 
L 225.844889 197.085943 
L 226.93069 213.306049 
L 228.016491 208.674222 
L 229.102292 201.364014 
L 230.188094 213.165209 
L 231.273895 204.971639 
L 232.359696 202.397233 
L 233.445497 175.189454 
L 234.531298 181.943483 
L 235.617099 168.197728 
L 236.702901 171.656233 
L 237.788702 184.887896 
L 238.874503 206.47109 
L 239.960304 217.450995 
L 241.046105 192.77863 
L 242.131906 200.788227 
L 243.217708 188.706209 
L 244.303509 199.473662 
L 245.38931 213.448002 
L 246.475111 188.80667 
L 247.560912 188.66934 
L 248.646713 170.981857 
L 249.732514 184.807696 
L 250.818316 171.516984 
L 251.904117 176.487254 
L 254.075719 209.574397 
L 255.16152 186.014308 
L 256.247321 171.688272 
L 257.333123 153.209863 
L 258.418924 161.232096 
L 259.504725 159.328726 
L 260.590526 164.392865 
L 261.676327 152.535063 
L 263.847929 192.979573 
L 264.933731 169.638005 
L 266.019532 162.94475 
L 267.105333 166.279559 
L 268.191134 167.404843 
L 269.276935 160.204742 
L 270.362736 162.244016 
L 271.448538 170.188526 
L 272.534339 205.96268 
L 273.62014 201.05788 
L 274.705941 199.116379 
L 275.791742 185.464346 
L 276.877543 191.951462 
L 277.963344 188.668303 
L 279.049146 208.467724 
L 280.134947 196.780649 
L 281.220748 171.478529 
L 282.306549 181.966023 
L 283.39235 159.111027 
L 284.478151 174.525952 
L 285.563953 213.501327 
L 286.649754 190.920445 
L 287.735555 196.166701 
L 288.821356 176.753788 
L 289.907157 194.25481 
L 290.992958 197.353516 
L 292.07876 185.50033 
L 293.164561 190.085593 
L 294.250362 191.95371 
L 295.336163 209.979064 
L 296.421964 178.515012 
L 297.507765 201.196748 
L 298.593566 188.830969 
L 299.679368 183.310483 
L 300.765169 186.92824 
L 301.85097 212.43669 
L 302.936771 167.572187 
L 304.022572 184.856921 
L 305.108373 173.936076 
L 306.194175 190.74187 
L 307.279976 186.777503 
L 308.365777 216.993641 
L 309.451578 233.927565 
L 310.537379 227.836472 
L 311.62318 202.19 
L 312.708981 203.556145 
L 313.794783 196.680159 
L 314.880584 212.782841 
L 315.966385 226.964171 
L 317.052186 218.753518 
L 318.137987 197.994074 
L 319.223788 243.569511 
L 320.30959 234.106947 
L 321.395391 245.939565 
L 322.481192 225.93019 
L 323.566993 169.529935 
L 324.652794 198.180856 
L 325.738595 193.437032 
L 326.824396 180.43949 
L 327.910198 174.862728 
L 328.995999 192.276851 
L 330.0818 195.156438 
L 331.167601 200.582673 
L 332.253402 181.933848 
L 333.339203 196.153532 
L 334.425005 188.204154 
L 335.510806 210.165181 
L 336.596607 203.673153 
L 337.682408 201.854598 
L 338.768209 202.969609 
L 339.85401 187.641894 
L 340.939811 228.632544 
L 342.025613 203.880046 
L 343.111414 209.793235 
L 344.197215 186.589426 
L 345.283016 198.311791 
L 346.368817 192.917937 
L 347.454618 200.728871 
L 348.54042 204.159147 
L 349.626221 222.646942 
L 350.712022 173.403723 
L 351.797823 161.82266 
L 352.883624 171.958848 
L 353.969425 170.299214 
L 355.055227 181.886209 
L 356.141028 211.696655 
L 357.226829 208.876678 
L 358.31263 207.238403 
L 359.398431 179.115599 
L 360.484232 198.762378 
L 361.570033 210.915393 
L 362.655835 219.635702 
L 363.741636 259.843622 
L 364.827437 251.79097 
L 365.913238 251.350237 
L 366.999039 253.842057 
L 368.08484 242.608554 
L 369.170642 240.583623 
L 370.256443 259.296358 
L 371.342244 221.81616 
L 372.428045 225.372824 
L 373.513846 235.6873 
L 374.599647 273.054873 
L 375.685448 234.627571 
L 376.77125 202.010856 
L 377.857051 213.615978 
L 378.942852 177.753551 
L 380.028653 185.771064 
L 381.114454 186.193556 
L 384.371858 256.501076 
L 385.457659 263.296923 
L 386.54346 252.840448 
L 387.629261 248.80377 
L 388.715062 212.282786 
L 389.800863 212.148496 
L 390.886665 228.340252 
L 391.972466 238.253938 
L 393.058267 225.777987 
L 394.144068 236.804742 
L 395.229869 208.53423 
L 397.401472 265.257759 
L 398.487273 256.049892 
L 398.487273 256.049892 
" style="fill:none;stroke:#0000ff;stroke-linecap:square;stroke-width:1.5;"/>
   </g>
   <g id="patch_3">
    <path d="M 57.6 307.584 
L 57.6 41.472 
" style="fill:none;stroke:#000000;stroke-linecap:square;stroke-linejoin:miter;stroke-width:0.8;"/>
   </g>
   <g id="patch_4">
    <path d="M 414.72 307.584 
L 414.72 41.472 
" style="fill:none;stroke:#000000;stroke-linecap:square;stroke-linejoin:miter;stroke-width:0.8;"/>
   </g>
   <g id="patch_5">
    <path d="M 57.6 307.584 
L 414.72 307.584 
" style="fill:none;stroke:#000000;stroke-linecap:square;stroke-linejoin:miter;stroke-width:0.8;"/>
   </g>
   <g id="patch_6">
    <path d="M 57.6 41.472 
L 414.72 41.472 
" style="fill:none;stroke:#000000;stroke-linecap:square;stroke-linejoin:miter;stroke-width:0.8;"/>
   </g>
  </g>
  <g id="axes_2">
   <g id="PolyCollection_2">
    <path clip-path="url(#pe9c38de82d)" d="M 73.832727 59.221725 
L 73.832727 257.604089 
L 74.918528 258.62956 
L 76.00433 263.207886 
L 77.090131 254.276367 
L 78.175932 265.683666 
L 79.261733 262.989511 
L 80.347534 265.39049 
L 81.433335 261.254778 
L 82.519137 267.556139 
L 83.604938 270.177368 
L 84.690739 275.374133 
L 85.77654 278.267598 
L 86.862341 282.32408 
L 87.948142 282.518346 
L 89.033943 276.482206 
L 90.119745 282.096317 
L 91.205546 285.063994 
L 92.291347 287.404863 
L 93.377148 288.809515 
L 94.462949 289.955067 
L 95.54875 287.740412 
L 96.634552 289.78964 
L 97.720353 286.946011 
L 98.806154 286.066483 
L 99.891955 287.131141 
L 100.977756 286.497396 
L 102.063557 282.23699 
L 103.149358 281.497084 
L 104.23516 283.026352 
L 105.320961 276.541468 
L 106.406762 282.448904 
L 107.492563 284.651277 
L 108.578364 283.780042 
L 109.664165 284.841683 
L 110.749967 286.237811 
L 111.835768 284.898286 
L 112.921569 285.6247 
L 114.00737 287.014792 
L 115.093171 284.3515 
L 116.178972 283.327225 
L 117.264773 284.508131 
L 118.350575 283.149883 
L 119.436376 278.803632 
L 120.522177 284.334045 
L 121.607978 285.72099 
L 122.693779 289.991207 
L 123.77958 288.921733 
L 124.865382 288.991777 
L 125.951183 284.540144 
L 127.036984 282.002017 
L 128.122785 280.820611 
L 129.208586 286.365064 
L 130.294387 288.980162 
L 131.380189 288.845756 
L 132.46599 290.07211 
L 133.551791 289.864432 
L 134.637592 290.412975 
L 135.723393 290.821076 
L 136.809194 293.01322 
L 137.894995 290.510015 
L 138.980797 286.058969 
L 140.066598 286.145011 
L 141.152399 291.387526 
L 142.2382 289.703072 
L 143.324001 290.102187 
L 144.409802 293.176576 
L 145.495604 292.233073 
L 146.581405 291.678678 
L 147.667206 291.314234 
L 148.753007 292.133387 
L 149.838808 292.279202 
L 150.924609 293.553705 
L 152.01041 293.244148 
L 153.096212 292.660084 
L 154.182013 292.612123 
L 155.267814 293.229098 
L 156.353615 293.787422 
L 157.439416 293.393865 
L 158.525217 294.113789 
L 159.611019 294.922149 
L 160.69682 293.855918 
L 161.782621 294.198506 
L 162.868422 294.006308 
L 163.954223 293.145047 
L 165.040024 293.253182 
L 166.125825 291.143222 
L 167.211627 293.14743 
L 168.297428 293.268539 
L 169.383229 293.066213 
L 170.46903 293.529441 
L 171.554831 292.507145 
L 172.640632 292.644939 
L 173.726434 291.425145 
L 174.812235 292.074209 
L 175.898036 291.658927 
L 176.983837 290.403676 
L 178.069638 292.134507 
L 179.155439 291.610757 
L 180.24124 292.151694 
L 181.327042 293.407336 
L 182.412843 291.863809 
L 183.498644 293.47648 
L 184.584445 293.152112 
L 185.670246 293.712069 
L 186.756047 294.063012 
L 187.841849 293.821348 
L 188.92765 293.484162 
L 190.013451 293.27117 
L 191.099252 293.591427 
L 192.185053 293.110552 
L 193.270854 292.847993 
L 194.356656 292.664462 
L 195.442457 292.941941 
L 196.528258 292.024783 
L 197.614059 293.03356 
L 198.69986 292.759059 
L 199.785661 292.678159 
L 200.871462 293.195709 
L 201.957264 290.024065 
L 203.043065 290.271749 
L 204.128866 288.53847 
L 205.214667 282.32537 
L 206.300468 286.555097 
L 207.386269 284.364475 
L 208.472071 284.013087 
L 209.557872 284.371646 
L 210.643673 286.578603 
L 211.729474 287.988723 
L 212.815275 287.162028 
L 213.901076 286.148478 
L 214.986877 287.745932 
L 216.072679 285.80659 
L 217.15848 288.234321 
L 218.244281 289.217034 
L 219.330082 285.921351 
L 220.415883 285.736746 
L 221.501684 290.21379 
L 222.587486 289.432135 
L 223.673287 289.634474 
L 224.759088 288.914072 
L 225.844889 289.436329 
L 226.93069 290.125178 
L 228.016491 289.933572 
L 229.102292 290.145419 
L 230.188094 289.82696 
L 231.273895 287.720407 
L 232.359696 287.414741 
L 233.445497 281.412337 
L 234.531298 280.290914 
L 235.617099 282.081501 
L 236.702901 283.730407 
L 237.788702 283.44997 
L 238.874503 286.844601 
L 239.960304 286.360816 
L 241.046105 287.967571 
L 242.131906 285.139741 
L 243.217708 285.336602 
L 244.303509 282.775466 
L 245.38931 285.358706 
L 246.475111 278.741588 
L 247.560912 284.230608 
L 248.646713 282.353197 
L 249.732514 283.25125 
L 250.818316 282.592075 
L 251.904117 283.279732 
L 252.989918 279.89013 
L 254.075719 275.548454 
L 255.16152 276.884904 
L 256.247321 273.624082 
L 257.333123 279.564994 
L 258.418924 278.644826 
L 259.504725 280.03851 
L 260.590526 275.891808 
L 261.676327 275.65643 
L 262.762128 274.297959 
L 263.847929 271.642828 
L 264.933731 273.501307 
L 266.019532 274.993923 
L 267.105333 278.996732 
L 268.191134 281.281621 
L 269.276935 279.421292 
L 270.362736 277.357702 
L 271.448538 278.151463 
L 272.534339 276.468213 
L 273.62014 279.507664 
L 274.705941 279.810027 
L 275.791742 282.602353 
L 276.877543 283.488039 
L 277.963344 277.336034 
L 279.049146 276.880547 
L 280.134947 279.984196 
L 281.220748 278.382272 
L 282.306549 270.750471 
L 283.39235 268.480083 
L 284.478151 276.892354 
L 285.563953 274.525196 
L 286.649754 280.676016 
L 287.735555 277.617629 
L 288.821356 277.477202 
L 289.907157 277.797603 
L 290.992958 278.483652 
L 292.07876 278.03426 
L 293.164561 287.423568 
L 294.250362 284.205922 
L 295.336163 284.368406 
L 296.421964 281.539883 
L 297.507765 282.209751 
L 298.593566 280.4015 
L 299.679368 276.066901 
L 300.765169 283.875899 
L 301.85097 283.834372 
L 302.936771 283.717671 
L 304.022572 284.828497 
L 305.108373 284.964867 
L 306.194175 287.374157 
L 307.279976 286.236945 
L 308.365777 287.591487 
L 309.451578 289.688271 
L 310.537379 289.207686 
L 311.62318 285.752851 
L 312.708981 284.231214 
L 313.794783 286.297587 
L 314.880584 285.312407 
L 315.966385 287.168327 
L 317.052186 288.790541 
L 318.137987 286.567435 
L 319.223788 288.882563 
L 320.30959 288.231345 
L 321.395391 290.019622 
L 322.481192 289.612872 
L 323.566993 287.739927 
L 324.652794 284.570232 
L 325.738595 281.761273 
L 326.824396 278.987331 
L 327.910198 282.982994 
L 328.995999 284.986187 
L 330.0818 281.641268 
L 331.167601 285.834423 
L 332.253402 285.936317 
L 333.339203 289.193605 
L 334.425005 286.182848 
L 335.510806 287.251517 
L 336.596607 288.247804 
L 337.682408 288.851179 
L 338.768209 286.039423 
L 339.85401 286.51903 
L 340.939811 290.078218 
L 342.025613 290.964442 
L 343.111414 289.821411 
L 344.197215 285.440695 
L 345.283016 290.562009 
L 346.368817 289.987369 
L 347.454618 291.863583 
L 348.54042 290.001404 
L 349.626221 288.057048 
L 350.712022 285.437421 
L 351.797823 281.418837 
L 352.883624 284.327003 
L 353.969425 280.157732 
L 355.055227 283.796401 
L 356.141028 288.962531 
L 357.226829 289.962682 
L 358.31263 290.401382 
L 359.398431 288.450683 
L 360.484232 289.351194 
L 361.570033 289.941542 
L 362.655835 289.843002 
L 363.741636 293.306059 
L 364.827437 293.313054 
L 365.913238 294.380731 
L 366.999039 295.033698 
L 368.08484 293.282521 
L 369.170642 293.97294 
L 370.256443 294.638156 
L 371.342244 292.575032 
L 372.428045 293.699786 
L 373.513846 294.471039 
L 374.599647 294.721179 
L 375.685448 293.446574 
L 376.77125 291.654212 
L 377.857051 293.191593 
L 378.942852 289.38693 
L 380.028653 287.474964 
L 381.114454 292.304579 
L 382.200255 290.508939 
L 383.286057 295.197524 
L 384.371858 294.96823 
L 385.457659 295.488 
L 386.54346 295.40229 
L 387.629261 295.031637 
L 388.715062 292.648128 
L 389.800863 292.91748 
L 390.886665 293.675121 
L 391.972466 294.568883 
L 393.058267 294.166641 
L 394.144068 294.753248 
L 395.229869 293.951614 
L 396.31567 293.783742 
L 397.401472 293.484328 
L 398.487273 292.865965 
L 398.487273 141.611804 
L 398.487273 141.611804 
L 397.401472 138.41715 
L 396.31567 135.590193 
L 395.229869 128.120785 
L 394.144068 134.356539 
L 393.058267 127.017579 
L 391.972466 130.065196 
L 390.886665 117.905581 
L 389.800863 114.246827 
L 388.715062 113.918059 
L 387.629261 126.5485 
L 386.54346 129.47772 
L 385.457659 128.510681 
L 384.371858 127.400083 
L 383.286057 126.586979 
L 382.200255 108.080427 
L 381.114454 111.78104 
L 380.028653 90.419995 
L 378.942852 98.180995 
L 377.857051 114.666361 
L 376.77125 110.981097 
L 375.685448 124.809645 
L 374.599647 133.087236 
L 373.513846 132.778428 
L 372.428045 125.750198 
L 371.342244 123.654122 
L 370.256443 134.689074 
L 369.170642 125.326103 
L 368.08484 126.432606 
L 366.999039 136.199256 
L 365.913238 133.696397 
L 364.827437 127.835558 
L 363.741636 128.668796 
L 362.655835 110.252501 
L 361.570033 111.825687 
L 360.484232 107.014775 
L 359.398431 106.066509 
L 358.31263 113.618463 
L 357.226829 112.266289 
L 356.141028 107.910188 
L 355.055227 88.617771 
L 353.969425 77.447264 
L 352.883624 86.434079 
L 351.797823 77.368225 
L 350.712022 87.542687 
L 349.626221 93.660085 
L 348.54042 100.066793 
L 347.454618 105.848847 
L 346.368817 103.316019 
L 345.283016 112.750447 
L 344.197215 94.222054 
L 343.111414 111.28574 
L 342.025613 114.831978 
L 340.939811 103.932295 
L 339.85401 92.157767 
L 338.768209 94.06373 
L 337.682408 105.531152 
L 336.596607 108.331427 
L 335.510806 100.061485 
L 334.425005 93.804448 
L 333.339203 101.951866 
L 332.253402 95.082594 
L 331.167601 93.070009 
L 330.0818 80.72437 
L 328.995999 89.943826 
L 327.910198 83.534427 
L 326.824396 74.872634 
L 325.738595 79.535326 
L 324.652794 85.306358 
L 323.566993 93.094526 
L 322.481192 98.030223 
L 321.395391 97.56111 
L 320.30959 93.112104 
L 319.223788 94.283641 
L 318.137987 92.783311 
L 317.052186 101.426762 
L 315.966385 91.784456 
L 314.880584 89.716296 
L 313.794783 90.783459 
L 312.708981 86.86275 
L 311.62318 90.87787 
L 310.537379 96.061652 
L 309.451578 99.612944 
L 308.365777 94.272615 
L 307.279976 96.511192 
L 306.194175 98.488402 
L 305.108373 93.553074 
L 304.022572 86.846057 
L 302.936771 82.498544 
L 301.85097 84.867298 
L 300.765169 87.73399 
L 299.679368 70.356719 
L 298.593566 82.34056 
L 297.507765 81.554483 
L 296.421964 80.008743 
L 295.336163 83.281635 
L 294.250362 84.365987 
L 293.164561 94.058867 
L 292.07876 69.992477 
L 290.992958 68.452585 
L 289.907157 68.625893 
L 288.821356 67.015298 
L 287.735555 68.284679 
L 286.649754 74.597633 
L 285.563953 63.247971 
L 284.478151 66.219585 
L 283.39235 54.348482 
L 282.306549 57.459753 
L 281.220748 70.438553 
L 280.134947 74.543215 
L 279.049146 68.396245 
L 277.963344 66.252037 
L 276.877543 80.864565 
L 275.791742 81.059154 
L 274.705941 73.242396 
L 273.62014 72.46635 
L 272.534339 67.226587 
L 271.448538 70.521775 
L 270.362736 70.69212 
L 269.276935 75.077699 
L 268.191134 78.072653 
L 267.105333 71.982813 
L 266.019532 65.433744 
L 264.933731 59.522403 
L 263.847929 58.487559 
L 262.762128 68.283332 
L 261.676327 68.099308 
L 260.590526 69.128011 
L 259.504725 80.02974 
L 258.418924 74.167672 
L 257.333123 76.008546 
L 256.247321 67.199492 
L 255.16152 75.455924 
L 254.075719 72.499847 
L 252.989918 79.90274 
L 251.904117 88.218736 
L 250.818316 90.400892 
L 249.732514 86.747147 
L 248.646713 83.384177 
L 247.560912 89.434443 
L 246.475111 76.908761 
L 245.38931 90.933316 
L 244.303509 84.523589 
L 243.217708 91.089157 
L 242.131906 90.126762 
L 241.046105 98.213187 
L 239.960304 90.343215 
L 238.874503 96.02675 
L 237.788702 85.905456 
L 236.702901 87.844623 
L 235.617099 84.040854 
L 234.531298 82.849104 
L 233.445497 84.493933 
L 232.359696 100.526139 
L 231.273895 107.981534 
L 230.188094 113.625483 
L 229.102292 111.743867 
L 228.016491 111.988455 
L 226.93069 119.8258 
L 225.844889 114.774845 
L 224.759088 113.292456 
L 223.673287 111.765876 
L 222.587486 113.42712 
L 221.501684 111.630235 
L 220.415883 97.685985 
L 219.330082 97.734427 
L 218.244281 104.196742 
L 217.15848 98.634206 
L 216.072679 95.020184 
L 214.986877 100.525521 
L 213.901076 101.340661 
L 212.815275 103.527783 
L 211.729474 107.249218 
L 210.643673 105.58762 
L 209.557872 99.1878 
L 208.472071 97.10373 
L 207.386269 94.294457 
L 206.300468 104.034769 
L 205.214667 93.136059 
L 204.128866 108.02735 
L 203.043065 111.755426 
L 201.957264 112.426407 
L 200.871462 126.511354 
L 199.785661 128.995392 
L 198.69986 125.275959 
L 197.614059 129.187359 
L 196.528258 124.815009 
L 195.442457 125.167245 
L 194.356656 142.190198 
L 193.270854 133.166221 
L 192.185053 137.660744 
L 191.099252 137.767491 
L 190.013451 139.779491 
L 188.92765 142.438319 
L 187.841849 132.658904 
L 186.756047 132.910005 
L 185.670246 132.782238 
L 184.584445 125.021492 
L 183.498644 132.168063 
L 182.412843 126.160598 
L 181.327042 136.260819 
L 180.24124 137.049815 
L 179.155439 131.644557 
L 178.069638 129.871571 
L 176.983837 124.739353 
L 175.898036 135.689079 
L 174.812235 146.621296 
L 173.726434 144.332502 
L 172.640632 142.596319 
L 171.554831 140.422875 
L 170.46903 142.986516 
L 169.383229 143.30436 
L 168.297428 146.748574 
L 167.211627 142.213132 
L 166.125825 129.79893 
L 165.040024 141.709078 
L 163.954223 143.689403 
L 162.868422 145.43471 
L 161.782621 142.639568 
L 160.69682 131.684937 
L 159.611019 138.459157 
L 158.525217 141.556984 
L 157.439416 143.069846 
L 156.353615 152.304927 
L 155.267814 140.308899 
L 154.182013 148.033547 
L 153.096212 133.106426 
L 152.01041 122.193936 
L 150.924609 137.0746 
L 149.838808 132.925149 
L 148.753007 122.268819 
L 147.667206 120.977159 
L 146.581405 124.09678 
L 145.495604 125.240047 
L 144.409802 130.787492 
L 143.324001 115.917348 
L 142.2382 112.821987 
L 141.152399 116.714362 
L 140.066598 95.461466 
L 138.980797 94.736348 
L 137.894995 111.369395 
L 136.809194 122.396243 
L 135.723393 108.122451 
L 134.637592 104.888713 
L 133.551791 102.488556 
L 132.46599 100.776179 
L 131.380189 97.218461 
L 130.294387 97.522067 
L 129.208586 92.214579 
L 128.122785 79.529789 
L 127.036984 85.384797 
L 125.951183 93.968641 
L 124.865382 104.819446 
L 123.77958 101.273226 
L 122.693779 103.107261 
L 121.607978 89.845501 
L 120.522177 87.488375 
L 119.436376 76.194162 
L 118.350575 84.99131 
L 117.264773 87.30903 
L 116.178972 86.954034 
L 115.093171 92.141202 
L 114.00737 99.797455 
L 112.921569 97.021723 
L 111.835768 95.950021 
L 110.749967 97.714713 
L 109.664165 92.031603 
L 108.578364 88.251033 
L 107.492563 91.587893 
L 106.406762 87.810111 
L 105.320961 74.652066 
L 104.23516 90.089963 
L 103.149358 87.676393 
L 102.063557 92.995989 
L 100.977756 103.818261 
L 99.891955 111.880685 
L 98.806154 106.706256 
L 97.720353 109.228141 
L 96.634552 129.123281 
L 95.54875 112.012881 
L 94.462949 131.381331 
L 93.377148 121.044437 
L 92.291347 113.495943 
L 91.205546 100.896577 
L 90.119745 88.815334 
L 89.033943 79.229415 
L 87.948142 95.234418 
L 86.862341 95.898703 
L 85.77654 84.666822 
L 84.690739 82.753063 
L 83.604938 67.987105 
L 82.519137 62.523564 
L 81.433335 56.17807 
L 80.347534 62.58732 
L 79.261733 63.913514 
L 78.175932 70.648185 
L 77.090131 53.568 
L 76.00433 63.482452 
L 74.918528 56.703359 
L 73.832727 59.221725 
z
" style="fill:#008000;fill-opacity:0.25;"/>
   </g>
   <g id="matplotlib.axis_3">
    <g id="ytick_9">
     <g id="line2d_17">
      <path clip-path="url(#pe9c38de82d)" d="M 57.6 294.637265 
L 414.72 294.637265 
" style="fill:none;stroke:#b0b0b0;stroke-linecap:square;stroke-width:0.8;"/>
     </g>
     <g id="line2d_18">
      <defs>
       <path d="M 0 0 
L 3.5 0 
" id="m5eac387f7e" style="stroke:#000000;stroke-width:0.8;"/>
      </defs>
      <g>
       <use style="stroke:#000000;stroke-width:0.8;" x="414.72" xlink:href="#m5eac387f7e" y="294.637265"/>
      </g>
     </g>
     <g id="text_17">
      <!-- 0.2 -->
      <defs>
       <path d="M 10.59375 35.5 
L 73.1875 35.5 
L 73.1875 27.203125 
L 10.59375 27.203125 
z
" id="DejaVuSans-8722"/>
      </defs>
      <g transform="translate(421.72 298.436484)scale(0.1 -0.1)">
       <use xlink:href="#DejaVuSans-8722"/>
       <use x="83.789062" xlink:href="#DejaVuSans-48"/>
       <use x="147.412109" xlink:href="#DejaVuSans-46"/>
       <use x="179.199219" xlink:href="#DejaVuSans-50"/>
      </g>
     </g>
    </g>
    <g id="ytick_10">
     <g id="line2d_19">
      <path clip-path="url(#pe9c38de82d)" d="M 57.6 249.52253 
L 414.72 249.52253 
" style="fill:none;stroke:#b0b0b0;stroke-linecap:square;stroke-width:0.8;"/>
     </g>
     <g id="line2d_20">
      <g>
       <use style="stroke:#000000;stroke-width:0.8;" x="414.72" xlink:href="#m5eac387f7e" y="249.52253"/>
      </g>
     </g>
     <g id="text_18">
      <!-- 0.0 -->
      <g transform="translate(421.72 253.321748)scale(0.1 -0.1)">
       <use xlink:href="#DejaVuSans-48"/>
       <use x="63.623047" xlink:href="#DejaVuSans-46"/>
       <use x="95.410156" xlink:href="#DejaVuSans-48"/>
      </g>
     </g>
    </g>
    <g id="ytick_11">
     <g id="line2d_21">
      <path clip-path="url(#pe9c38de82d)" d="M 57.6 204.407794 
L 414.72 204.407794 
" style="fill:none;stroke:#b0b0b0;stroke-linecap:square;stroke-width:0.8;"/>
     </g>
     <g id="line2d_22">
      <g>
       <use style="stroke:#000000;stroke-width:0.8;" x="414.72" xlink:href="#m5eac387f7e" y="204.407794"/>
      </g>
     </g>
     <g id="text_19">
      <!-- 0.2 -->
      <g transform="translate(421.72 208.207013)scale(0.1 -0.1)">
       <use xlink:href="#DejaVuSans-48"/>
       <use x="63.623047" xlink:href="#DejaVuSans-46"/>
       <use x="95.410156" xlink:href="#DejaVuSans-50"/>
      </g>
     </g>
    </g>
    <g id="ytick_12">
     <g id="line2d_23">
      <path clip-path="url(#pe9c38de82d)" d="M 57.6 159.293058 
L 414.72 159.293058 
" style="fill:none;stroke:#b0b0b0;stroke-linecap:square;stroke-width:0.8;"/>
     </g>
     <g id="line2d_24">
      <g>
       <use style="stroke:#000000;stroke-width:0.8;" x="414.72" xlink:href="#m5eac387f7e" y="159.293058"/>
      </g>
     </g>
     <g id="text_20">
      <!-- 0.4 -->
      <g transform="translate(421.72 163.092277)scale(0.1 -0.1)">
       <use xlink:href="#DejaVuSans-48"/>
       <use x="63.623047" xlink:href="#DejaVuSans-46"/>
       <use x="95.410156" xlink:href="#DejaVuSans-52"/>
      </g>
     </g>
    </g>
    <g id="ytick_13">
     <g id="line2d_25">
      <path clip-path="url(#pe9c38de82d)" d="M 57.6 114.178323 
L 414.72 114.178323 
" style="fill:none;stroke:#b0b0b0;stroke-linecap:square;stroke-width:0.8;"/>
     </g>
     <g id="line2d_26">
      <g>
       <use style="stroke:#000000;stroke-width:0.8;" x="414.72" xlink:href="#m5eac387f7e" y="114.178323"/>
      </g>
     </g>
     <g id="text_21">
      <!-- 0.6 -->
      <g transform="translate(421.72 117.977542)scale(0.1 -0.1)">
       <use xlink:href="#DejaVuSans-48"/>
       <use x="63.623047" xlink:href="#DejaVuSans-46"/>
       <use x="95.410156" xlink:href="#DejaVuSans-54"/>
      </g>
     </g>
    </g>
    <g id="ytick_14">
     <g id="line2d_27">
      <path clip-path="url(#pe9c38de82d)" d="M 57.6 69.063587 
L 414.72 69.063587 
" style="fill:none;stroke:#b0b0b0;stroke-linecap:square;stroke-width:0.8;"/>
     </g>
     <g id="line2d_28">
      <g>
       <use style="stroke:#000000;stroke-width:0.8;" x="414.72" xlink:href="#m5eac387f7e" y="69.063587"/>
      </g>
     </g>
     <g id="text_22">
      <!-- 0.8 -->
      <g transform="translate(421.72 72.862806)scale(0.1 -0.1)">
       <use xlink:href="#DejaVuSans-48"/>
       <use x="63.623047" xlink:href="#DejaVuSans-46"/>
       <use x="95.410156" xlink:href="#DejaVuSans-56"/>
      </g>
     </g>
    </g>
    <g id="text_23">
     <!-- Loudness -->
     <defs>
      <path d="M 9.8125 72.90625 
L 19.671875 72.90625 
L 19.671875 8.296875 
L 55.171875 8.296875 
L 55.171875 0 
L 9.8125 0 
z
" id="DejaVuSans-76"/>
      <path d="M 30.609375 48.390625 
Q 23.390625 48.390625 19.1875 42.75 
Q 14.984375 37.109375 14.984375 27.296875 
Q 14.984375 17.484375 19.15625 11.84375 
Q 23.34375 6.203125 30.609375 6.203125 
Q 37.796875 6.203125 41.984375 11.859375 
Q 46.1875 17.53125 46.1875 27.296875 
Q 46.1875 37.015625 41.984375 42.703125 
Q 37.796875 48.390625 30.609375 48.390625 
z
M 30.609375 56 
Q 42.328125 56 49.015625 48.375 
Q 55.71875 40.765625 55.71875 27.296875 
Q 55.71875 13.875 49.015625 6.21875 
Q 42.328125 -1.421875 30.609375 -1.421875 
Q 18.84375 -1.421875 12.171875 6.21875 
Q 5.515625 13.875 5.515625 27.296875 
Q 5.515625 40.765625 12.171875 48.375 
Q 18.84375 56 30.609375 56 
z
" id="DejaVuSans-111"/>
      <path d="M 8.5 21.578125 
L 8.5 54.6875 
L 17.484375 54.6875 
L 17.484375 21.921875 
Q 17.484375 14.15625 20.5 10.265625 
Q 23.53125 6.390625 29.59375 6.390625 
Q 36.859375 6.390625 41.078125 11.03125 
Q 45.3125 15.671875 45.3125 23.6875 
L 45.3125 54.6875 
L 54.296875 54.6875 
L 54.296875 0 
L 45.3125 0 
L 45.3125 8.40625 
Q 42.046875 3.421875 37.71875 1 
Q 33.40625 -1.421875 27.6875 -1.421875 
Q 18.265625 -1.421875 13.375 4.4375 
Q 8.5 10.296875 8.5 21.578125 
z
M 31.109375 56 
z
" id="DejaVuSans-117"/>
      <path d="M 45.40625 46.390625 
L 45.40625 75.984375 
L 54.390625 75.984375 
L 54.390625 0 
L 45.40625 0 
L 45.40625 8.203125 
Q 42.578125 3.328125 38.25 0.953125 
Q 33.9375 -1.421875 27.875 -1.421875 
Q 17.96875 -1.421875 11.734375 6.484375 
Q 5.515625 14.40625 5.515625 27.296875 
Q 5.515625 40.1875 11.734375 48.09375 
Q 17.96875 56 27.875 56 
Q 33.9375 56 38.25 53.625 
Q 42.578125 51.265625 45.40625 46.390625 
z
M 14.796875 27.296875 
Q 14.796875 17.390625 18.875 11.75 
Q 22.953125 6.109375 30.078125 6.109375 
Q 37.203125 6.109375 41.296875 11.75 
Q 45.40625 17.390625 45.40625 27.296875 
Q 45.40625 37.203125 41.296875 42.84375 
Q 37.203125 48.484375 30.078125 48.484375 
Q 22.953125 48.484375 18.875 42.84375 
Q 14.796875 37.203125 14.796875 27.296875 
z
" id="DejaVuSans-100"/>
     </defs>
     <g transform="translate(457.60125 198.170187)rotate(-90)scale(0.1 -0.1)">
      <use xlink:href="#DejaVuSans-76"/>
      <use x="55.697266" xlink:href="#DejaVuSans-111"/>
      <use x="116.878906" xlink:href="#DejaVuSans-117"/>
      <use x="180.257812" xlink:href="#DejaVuSans-100"/>
      <use x="243.734375" xlink:href="#DejaVuSans-110"/>
      <use x="307.113281" xlink:href="#DejaVuSans-101"/>
      <use x="368.636719" xlink:href="#DejaVuSans-115"/>
      <use x="420.736328" xlink:href="#DejaVuSans-115"/>
     </g>
    </g>
   </g>
   <g id="line2d_29">
    <path clip-path="url(#pe9c38de82d)" d="M 73.832727 158.412907 
L 74.918528 157.666459 
L 76.00433 163.345169 
L 77.090131 153.922183 
L 78.175932 168.165925 
L 79.261733 163.451512 
L 80.347534 163.988905 
L 81.433335 158.716424 
L 82.519137 165.039852 
L 83.604938 169.082237 
L 84.690739 179.063598 
L 85.77654 181.46721 
L 86.862341 189.111391 
L 87.948142 188.876382 
L 89.033943 177.85581 
L 92.291347 200.450403 
L 93.377148 204.926976 
L 94.462949 210.668199 
L 95.54875 199.876646 
L 96.634552 209.456461 
L 97.720353 198.087076 
L 98.806154 196.386369 
L 99.891955 199.505913 
L 100.977756 195.157829 
L 102.063557 187.616489 
L 103.149358 184.586739 
L 104.23516 186.558157 
L 105.320961 175.596767 
L 106.406762 185.129508 
L 107.492563 188.119585 
L 108.578364 186.015538 
L 109.664165 188.436643 
L 110.749967 191.976262 
L 111.835768 190.424154 
L 112.921569 191.323211 
L 114.00737 193.406124 
L 115.093171 188.246351 
L 116.178972 185.14063 
L 117.264773 185.90858 
L 118.350575 184.070596 
L 119.436376 177.498897 
L 120.522177 185.91121 
L 121.607978 187.783245 
L 122.693779 196.549234 
L 123.77958 195.097479 
L 124.865382 196.905612 
L 125.951183 189.254393 
L 127.036984 183.693407 
L 128.122785 180.1752 
L 129.208586 189.289822 
L 130.294387 193.251115 
L 131.380189 193.032108 
L 132.46599 195.424144 
L 133.551791 196.176494 
L 134.637592 197.650844 
L 135.723393 199.471763 
L 136.809194 207.704732 
L 137.894995 200.939705 
L 138.980797 190.397658 
L 140.066598 190.803238 
L 141.152399 204.050944 
L 142.2382 201.26253 
L 143.324001 203.009768 
L 144.409802 211.982034 
L 145.495604 208.73656 
L 146.581405 207.887729 
L 147.667206 206.145696 
L 148.753007 207.201103 
L 149.838808 212.602175 
L 150.924609 215.314153 
L 152.01041 207.719042 
L 153.096212 212.883255 
L 154.182013 220.322835 
L 155.267814 216.768998 
L 156.353615 223.046174 
L 157.439416 218.231856 
L 158.525217 217.835386 
L 159.611019 216.690653 
L 160.69682 212.770427 
L 161.782621 218.419037 
L 162.868422 219.720509 
L 163.954223 218.417225 
L 165.040024 217.48113 
L 166.125825 210.471076 
L 167.211627 217.680281 
L 168.297428 220.008557 
L 169.383229 218.185286 
L 170.46903 218.257978 
L 171.554831 216.46501 
L 172.640632 217.620629 
L 173.726434 217.878823 
L 174.812235 219.347753 
L 176.983837 207.571515 
L 178.069638 211.003039 
L 179.155439 211.627657 
L 180.24124 214.600755 
L 181.327042 214.834077 
L 182.412843 209.012203 
L 183.498644 212.822271 
L 184.584445 209.086802 
L 185.670246 213.247153 
L 186.756047 213.486508 
L 187.841849 213.240126 
L 188.92765 217.961241 
L 190.013451 216.525331 
L 191.099252 215.679459 
L 192.185053 215.385648 
L 193.270854 213.007107 
L 194.356656 217.42733 
L 195.442457 209.054593 
L 196.528258 208.419896 
L 197.614059 211.110459 
L 198.69986 209.017509 
L 199.785661 210.836775 
L 200.871462 209.853532 
L 201.957264 201.225236 
L 203.043065 201.013587 
L 204.128866 198.28291 
L 205.214667 187.730715 
L 206.300468 195.294933 
L 207.386269 189.329466 
L 209.557872 191.779723 
L 210.643673 196.083111 
L 211.729474 197.618971 
L 212.815275 195.344905 
L 213.901076 193.744569 
L 214.986877 194.135727 
L 216.072679 190.413387 
L 218.244281 196.706888 
L 219.330082 191.827889 
L 220.415883 191.711366 
L 221.501684 200.922012 
L 222.587486 201.429628 
L 223.673287 200.700175 
L 224.759088 201.103264 
L 225.844889 202.105587 
L 226.93069 204.975489 
L 228.016491 200.961014 
L 229.102292 200.944643 
L 230.188094 201.726221 
L 232.359696 193.97044 
L 233.445497 182.953135 
L 234.531298 181.570009 
L 235.617099 183.061178 
L 236.702901 185.787515 
L 237.788702 184.677713 
L 238.874503 191.435675 
L 239.960304 188.352015 
L 241.046105 193.090379 
L 242.131906 187.633252 
L 243.217708 188.21288 
L 244.303509 183.649528 
L 245.38931 188.146011 
L 246.475111 177.825175 
L 247.560912 186.832525 
L 248.646713 182.868687 
L 249.732514 184.999199 
L 250.818316 186.496484 
L 251.904117 185.749234 
L 254.075719 174.02415 
L 255.16152 176.170414 
L 256.247321 170.411787 
L 257.333123 177.78677 
L 258.418924 176.406249 
L 259.504725 180.034125 
L 260.590526 172.509909 
L 262.762128 171.290645 
L 263.847929 165.065194 
L 264.933731 166.511855 
L 266.019532 170.213834 
L 267.105333 175.489773 
L 268.191134 179.677137 
L 269.276935 177.249496 
L 270.362736 174.024911 
L 271.448538 174.336619 
L 272.534339 171.8474 
L 273.62014 175.987007 
L 274.705941 176.526212 
L 275.791742 181.830754 
L 276.877543 182.176302 
L 277.963344 171.794035 
L 279.049146 172.638396 
L 280.134947 177.263705 
L 281.220748 174.410413 
L 282.306549 164.105112 
L 283.39235 161.414283 
L 284.478151 171.55597 
L 285.563953 168.886583 
L 286.649754 177.636825 
L 287.735555 172.951154 
L 288.821356 172.24625 
L 289.907157 173.211748 
L 290.992958 173.468118 
L 292.07876 174.013368 
L 293.164561 190.741218 
L 294.250362 184.285954 
L 295.336163 183.82502 
L 296.421964 180.774313 
L 297.507765 181.882117 
L 298.593566 181.37103 
L 299.679368 173.21181 
L 300.765169 185.804945 
L 301.85097 184.350835 
L 302.936771 183.108107 
L 304.022572 185.837277 
L 306.194175 192.93128 
L 307.279976 191.374069 
L 308.365777 190.932051 
L 309.451578 194.650607 
L 310.537379 192.634669 
L 311.62318 188.315361 
L 312.708981 185.546982 
L 313.794783 188.540523 
L 314.880584 187.514351 
L 315.966385 189.476392 
L 317.052186 195.108652 
L 318.137987 189.675373 
L 319.223788 191.583102 
L 320.30959 190.671725 
L 321.395391 193.790366 
L 322.481192 193.821547 
L 323.566993 190.417226 
L 324.652794 184.938295 
L 325.738595 180.6483 
L 326.824396 176.929982 
L 327.910198 183.25871 
L 328.995999 187.465007 
L 330.0818 181.182819 
L 331.167601 189.452216 
L 332.253402 190.509455 
L 333.339203 195.572736 
L 334.425005 189.993648 
L 335.510806 193.656501 
L 336.596607 198.289616 
L 337.682408 197.191166 
L 338.768209 190.051577 
L 339.85401 189.338398 
L 340.939811 197.005256 
L 342.025613 202.89821 
L 343.111414 200.553575 
L 344.197215 189.831374 
L 345.283016 201.656228 
L 346.368817 196.651694 
L 347.454618 198.856215 
L 349.626221 190.858566 
L 350.712022 186.490054 
L 351.797823 179.393531 
L 352.883624 185.380541 
L 353.969425 178.802498 
L 355.055227 186.207086 
L 356.141028 198.436359 
L 357.226829 201.114485 
L 358.31263 202.009923 
L 359.398431 197.258596 
L 360.484232 198.182985 
L 361.570033 200.883614 
L 362.655835 200.047751 
L 363.741636 210.987428 
L 364.827437 210.574306 
L 365.913238 214.038564 
L 366.999039 215.616477 
L 368.08484 209.857563 
L 369.170642 209.649521 
L 370.256443 214.663615 
L 371.342244 208.114577 
L 372.428045 209.724992 
L 373.513846 213.624734 
L 374.599647 213.904207 
L 375.685448 209.128109 
L 376.77125 201.317654 
L 377.857051 203.928977 
L 378.942852 193.783962 
L 380.028653 188.94748 
L 381.114454 202.04281 
L 382.200255 199.294683 
L 383.286057 210.892251 
L 384.371858 211.184156 
L 385.457659 211.999341 
L 386.54346 212.440005 
L 387.629261 210.790069 
L 388.715062 203.283094 
L 389.800863 203.582153 
L 390.886665 205.790351 
L 391.972466 212.31704 
L 393.058267 210.59211 
L 394.144068 214.554893 
L 395.229869 211.0362 
L 396.31567 214.686968 
L 398.487273 217.238885 
L 398.487273 217.238885 
" style="fill:none;stroke:#008000;stroke-linecap:square;stroke-width:1.5;"/>
   </g>
   <g id="patch_7">
    <path d="M 57.6 307.584 
L 57.6 41.472 
" style="fill:none;stroke:#000000;stroke-linecap:square;stroke-linejoin:miter;stroke-width:0.8;"/>
   </g>
   <g id="patch_8">
    <path d="M 414.72 307.584 
L 414.72 41.472 
" style="fill:none;stroke:#000000;stroke-linecap:square;stroke-linejoin:miter;stroke-width:0.8;"/>
   </g>
   <g id="patch_9">
    <path d="M 57.6 307.584 
L 414.72 307.584 
" style="fill:none;stroke:#000000;stroke-linecap:square;stroke-linejoin:miter;stroke-width:0.8;"/>
   </g>
   <g id="patch_10">
    <path d="M 57.6 41.472 
L 414.72 41.472 
" style="fill:none;stroke:#000000;stroke-linecap:square;stroke-linejoin:miter;stroke-width:0.8;"/>
   </g>
   <g id="text_24">
    <!-- Message Difference and Loudness -->
    <defs>
     <path d="M 9.8125 72.90625 
L 24.515625 72.90625 
L 43.109375 23.296875 
L 61.8125 72.90625 
L 76.515625 72.90625 
L 76.515625 0 
L 66.890625 0 
L 66.890625 64.015625 
L 48.09375 14.015625 
L 38.1875 14.015625 
L 19.390625 64.015625 
L 19.390625 0 
L 9.8125 0 
z
" id="DejaVuSans-77"/>
     <path d="M 45.40625 27.984375 
Q 45.40625 37.75 41.375 43.109375 
Q 37.359375 48.484375 30.078125 48.484375 
Q 22.859375 48.484375 18.828125 43.109375 
Q 14.796875 37.75 14.796875 27.984375 
Q 14.796875 18.265625 18.828125 12.890625 
Q 22.859375 7.515625 30.078125 7.515625 
Q 37.359375 7.515625 41.375 12.890625 
Q 45.40625 18.265625 45.40625 27.984375 
z
M 54.390625 6.78125 
Q 54.390625 -7.171875 48.1875 -13.984375 
Q 42 -20.796875 29.203125 -20.796875 
Q 24.46875 -20.796875 20.265625 -20.09375 
Q 16.0625 -19.390625 12.109375 -17.921875 
L 12.109375 -9.1875 
Q 16.0625 -11.328125 19.921875 -12.34375 
Q 23.78125 -13.375 27.78125 -13.375 
Q 36.625 -13.375 41.015625 -8.765625 
Q 45.40625 -4.15625 45.40625 5.171875 
L 45.40625 9.625 
Q 42.625 4.78125 38.28125 2.390625 
Q 33.9375 0 27.875 0 
Q 17.828125 0 11.671875 7.65625 
Q 5.515625 15.328125 5.515625 27.984375 
Q 5.515625 40.671875 11.671875 48.328125 
Q 17.828125 56 27.875 56 
Q 33.9375 56 38.28125 53.609375 
Q 42.625 51.21875 45.40625 46.390625 
L 45.40625 54.6875 
L 54.390625 54.6875 
z
" id="DejaVuSans-103"/>
     <path id="DejaVuSans-32"/>
     <path d="M 37.109375 75.984375 
L 37.109375 68.5 
L 28.515625 68.5 
Q 23.6875 68.5 21.796875 66.546875 
Q 19.921875 64.59375 19.921875 59.515625 
L 19.921875 54.6875 
L 34.71875 54.6875 
L 34.71875 47.703125 
L 19.921875 47.703125 
L 19.921875 0 
L 10.890625 0 
L 10.890625 47.703125 
L 2.296875 47.703125 
L 2.296875 54.6875 
L 10.890625 54.6875 
L 10.890625 58.5 
Q 10.890625 67.625 15.140625 71.796875 
Q 19.390625 75.984375 28.609375 75.984375 
z
" id="DejaVuSans-102"/>
     <path d="M 41.109375 46.296875 
Q 39.59375 47.171875 37.8125 47.578125 
Q 36.03125 48 33.890625 48 
Q 26.265625 48 22.1875 43.046875 
Q 18.109375 38.09375 18.109375 28.8125 
L 18.109375 0 
L 9.078125 0 
L 9.078125 54.6875 
L 18.109375 54.6875 
L 18.109375 46.1875 
Q 20.953125 51.171875 25.484375 53.578125 
Q 30.03125 56 36.53125 56 
Q 37.453125 56 38.578125 55.875 
Q 39.703125 55.765625 41.0625 55.515625 
z
" id="DejaVuSans-114"/>
    </defs>
    <g transform="translate(133.329375 35.472)scale(0.12 -0.12)">
     <use xlink:href="#DejaVuSans-77"/>
     <use x="86.279297" xlink:href="#DejaVuSans-101"/>
     <use x="147.802734" xlink:href="#DejaVuSans-115"/>
     <use x="199.902344" xlink:href="#DejaVuSans-115"/>
     <use x="252.001953" xlink:href="#DejaVuSans-97"/>
     <use x="313.28125" xlink:href="#DejaVuSans-103"/>
     <use x="376.757812" xlink:href="#DejaVuSans-101"/>
     <use x="438.28125" xlink:href="#DejaVuSans-32"/>
     <use x="470.068359" xlink:href="#DejaVuSans-68"/>
     <use x="547.070312" xlink:href="#DejaVuSans-105"/>
     <use x="574.853516" xlink:href="#DejaVuSans-102"/>
     <use x="610.058594" xlink:href="#DejaVuSans-102"/>
     <use x="645.263672" xlink:href="#DejaVuSans-101"/>
     <use x="706.787109" xlink:href="#DejaVuSans-114"/>
     <use x="747.869141" xlink:href="#DejaVuSans-101"/>
     <use x="809.392578" xlink:href="#DejaVuSans-110"/>
     <use x="872.771484" xlink:href="#DejaVuSans-99"/>
     <use x="927.751953" xlink:href="#DejaVuSans-101"/>
     <use x="989.275391" xlink:href="#DejaVuSans-32"/>
     <use x="1021.0625" xlink:href="#DejaVuSans-97"/>
     <use x="1082.341797" xlink:href="#DejaVuSans-110"/>
     <use x="1145.720703" xlink:href="#DejaVuSans-100"/>
     <use x="1209.197266" xlink:href="#DejaVuSans-32"/>
     <use x="1240.984375" xlink:href="#DejaVuSans-76"/>
     <use x="1296.681641" xlink:href="#DejaVuSans-111"/>
     <use x="1357.863281" xlink:href="#DejaVuSans-117"/>
     <use x="1421.242188" xlink:href="#DejaVuSans-100"/>
     <use x="1484.71875" xlink:href="#DejaVuSans-110"/>
     <use x="1548.097656" xlink:href="#DejaVuSans-101"/>
     <use x="1609.621094" xlink:href="#DejaVuSans-115"/>
     <use x="1661.720703" xlink:href="#DejaVuSans-115"/>
    </g>
   </g>
   <g id="legend_1">
    <g id="patch_11">
     <path d="M 331.227813 64.150125 
L 407.72 64.150125 
Q 409.72 64.150125 409.72 62.150125 
L 409.72 48.472 
Q 409.72 46.472 407.72 46.472 
L 331.227813 46.472 
Q 329.227813 46.472 329.227813 48.472 
L 329.227813 62.150125 
Q 329.227813 64.150125 331.227813 64.150125 
z
" style="fill:#ffffff;opacity:0.8;stroke:#cccccc;stroke-linejoin:miter;"/>
    </g>
    <g id="line2d_30">
     <path d="M 333.227813 54.570438 
L 353.227813 54.570438 
" style="fill:none;stroke:#008000;stroke-linecap:square;stroke-width:1.5;"/>
    </g>
    <g id="line2d_31"/>
    <g id="text_25">
     <!-- loudness -->
     <defs>
      <path d="M 9.421875 75.984375 
L 18.40625 75.984375 
L 18.40625 0 
L 9.421875 0 
z
" id="DejaVuSans-108"/>
     </defs>
     <g transform="translate(361.227813 58.070438)scale(0.1 -0.1)">
      <use xlink:href="#DejaVuSans-108"/>
      <use x="27.783203" xlink:href="#DejaVuSans-111"/>
      <use x="88.964844" xlink:href="#DejaVuSans-117"/>
      <use x="152.34375" xlink:href="#DejaVuSans-100"/>
      <use x="215.820312" xlink:href="#DejaVuSans-110"/>
      <use x="279.199219" xlink:href="#DejaVuSans-101"/>
      <use x="340.722656" xlink:href="#DejaVuSans-115"/>
      <use x="392.822266" xlink:href="#DejaVuSans-115"/>
     </g>
    </g>
   </g>
  </g>
 </g>
 <defs>
  <clipPath id="pe9c38de82d">
   <rect height="266.112" width="357.12" x="57.6" y="41.472"/>
  </clipPath>
 </defs>
</svg>
