<?xml version="1.0" encoding="utf-8" standalone="no"?>
<!DOCTYPE svg PUBLIC "-//W3C//DTD SVG 1.1//EN"
  "http://www.w3.org/Graphics/SVG/1.1/DTD/svg11.dtd">
<!-- Created with matplotlib (https://matplotlib.org/) -->
<svg height="345.6pt" version="1.1" viewBox="0 0 460.8 345.6" width="460.8pt" xmlns="http://www.w3.org/2000/svg" xmlns:xlink="http://www.w3.org/1999/xlink">
 <defs>
  <style type="text/css">
*{stroke-linecap:butt;stroke-linejoin:round;}
  </style>
 </defs>
 <g id="figure_1">
  <g id="patch_1">
   <path d="M 0 345.6 
L 460.8 345.6 
L 460.8 0 
L 0 0 
z
" style="fill:#ffffff;"/>
  </g>
  <g id="axes_1">
   <g id="patch_2">
    <path d="M 57.6 307.584 
L 414.72 307.584 
L 414.72 41.472 
L 57.6 41.472 
z
" style="fill:#ffffff;"/>
   </g>
   <g id="matplotlib.axis_1">
    <g id="xtick_1">
     <g id="line2d_1">
      <path clip-path="url(#pebe357a46f)" d="M 73.832727 307.584 
L 73.832727 41.472 
" style="fill:none;stroke:#b0b0b0;stroke-linecap:square;stroke-width:0.8;"/>
     </g>
     <g id="line2d_2">
      <defs>
       <path d="M 0 0 
L 0 3.5 
" id="m376ebf5b9d" style="stroke:#000000;stroke-width:0.8;"/>
      </defs>
      <g>
       <use style="stroke:#000000;stroke-width:0.8;" x="73.832727" xlink:href="#m376ebf5b9d" y="307.584"/>
      </g>
     </g>
     <g id="text_1">
      <!-- 0 -->
      <defs>
       <path d="M 31.78125 66.40625 
Q 24.171875 66.40625 20.328125 58.90625 
Q 16.5 51.421875 16.5 36.375 
Q 16.5 21.390625 20.328125 13.890625 
Q 24.171875 6.390625 31.78125 6.390625 
Q 39.453125 6.390625 43.28125 13.890625 
Q 47.125 21.390625 47.125 36.375 
Q 47.125 51.421875 43.28125 58.90625 
Q 39.453125 66.40625 31.78125 66.40625 
z
M 31.78125 74.21875 
Q 44.046875 74.21875 50.515625 64.515625 
Q 56.984375 54.828125 56.984375 36.375 
Q 56.984375 17.96875 50.515625 8.265625 
Q 44.046875 -1.421875 31.78125 -1.421875 
Q 19.53125 -1.421875 13.0625 8.265625 
Q 6.59375 17.96875 6.59375 36.375 
Q 6.59375 54.828125 13.0625 64.515625 
Q 19.53125 74.21875 31.78125 74.21875 
z
" id="DejaVuSans-48"/>
      </defs>
      <g transform="translate(70.651477 322.182437)scale(0.1 -0.1)">
       <use xlink:href="#DejaVuSans-48"/>
      </g>
     </g>
    </g>
    <g id="xtick_2">
     <g id="line2d_3">
      <path clip-path="url(#pebe357a46f)" d="M 128.122785 307.584 
L 128.122785 41.472 
" style="fill:none;stroke:#b0b0b0;stroke-linecap:square;stroke-width:0.8;"/>
     </g>
     <g id="line2d_4">
      <g>
       <use style="stroke:#000000;stroke-width:0.8;" x="128.122785" xlink:href="#m376ebf5b9d" y="307.584"/>
      </g>
     </g>
     <g id="text_2">
      <!-- 50 -->
      <defs>
       <path d="M 10.796875 72.90625 
L 49.515625 72.90625 
L 49.515625 64.59375 
L 19.828125 64.59375 
L 19.828125 46.734375 
Q 21.96875 47.46875 24.109375 47.828125 
Q 26.265625 48.1875 28.421875 48.1875 
Q 40.625 48.1875 47.75 41.5 
Q 54.890625 34.8125 54.890625 23.390625 
Q 54.890625 11.625 47.5625 5.09375 
Q 40.234375 -1.421875 26.90625 -1.421875 
Q 22.3125 -1.421875 17.546875 -0.640625 
Q 12.796875 0.140625 7.71875 1.703125 
L 7.71875 11.625 
Q 12.109375 9.234375 16.796875 8.0625 
Q 21.484375 6.890625 26.703125 6.890625 
Q 35.15625 6.890625 40.078125 11.328125 
Q 45.015625 15.765625 45.015625 23.390625 
Q 45.015625 31 40.078125 35.4375 
Q 35.15625 39.890625 26.703125 39.890625 
Q 22.75 39.890625 18.8125 39.015625 
Q 14.890625 38.140625 10.796875 36.28125 
z
" id="DejaVuSans-53"/>
      </defs>
      <g transform="translate(121.760285 322.182437)scale(0.1 -0.1)">
       <use xlink:href="#DejaVuSans-53"/>
       <use x="63.623047" xlink:href="#DejaVuSans-48"/>
      </g>
     </g>
    </g>
    <g id="xtick_3">
     <g id="line2d_5">
      <path clip-path="url(#pebe357a46f)" d="M 182.412843 307.584 
L 182.412843 41.472 
" style="fill:none;stroke:#b0b0b0;stroke-linecap:square;stroke-width:0.8;"/>
     </g>
     <g id="line2d_6">
      <g>
       <use style="stroke:#000000;stroke-width:0.8;" x="182.412843" xlink:href="#m376ebf5b9d" y="307.584"/>
      </g>
     </g>
     <g id="text_3">
      <!-- 100 -->
      <defs>
       <path d="M 12.40625 8.296875 
L 28.515625 8.296875 
L 28.515625 63.921875 
L 10.984375 60.40625 
L 10.984375 69.390625 
L 28.421875 72.90625 
L 38.28125 72.90625 
L 38.28125 8.296875 
L 54.390625 8.296875 
L 54.390625 0 
L 12.40625 0 
z
" id="DejaVuSans-49"/>
      </defs>
      <g transform="translate(172.869093 322.182437)scale(0.1 -0.1)">
       <use xlink:href="#DejaVuSans-49"/>
       <use x="63.623047" xlink:href="#DejaVuSans-48"/>
       <use x="127.246094" xlink:href="#DejaVuSans-48"/>
      </g>
     </g>
    </g>
    <g id="xtick_4">
     <g id="line2d_7">
      <path clip-path="url(#pebe357a46f)" d="M 236.702901 307.584 
L 236.702901 41.472 
" style="fill:none;stroke:#b0b0b0;stroke-linecap:square;stroke-width:0.8;"/>
     </g>
     <g id="line2d_8">
      <g>
       <use style="stroke:#000000;stroke-width:0.8;" x="236.702901" xlink:href="#m376ebf5b9d" y="307.584"/>
      </g>
     </g>
     <g id="text_4">
      <!-- 150 -->
      <g transform="translate(227.159151 322.182437)scale(0.1 -0.1)">
       <use xlink:href="#DejaVuSans-49"/>
       <use x="63.623047" xlink:href="#DejaVuSans-53"/>
       <use x="127.246094" xlink:href="#DejaVuSans-48"/>
      </g>
     </g>
    </g>
    <g id="xtick_5">
     <g id="line2d_9">
      <path clip-path="url(#pebe357a46f)" d="M 290.992958 307.584 
L 290.992958 41.472 
" style="fill:none;stroke:#b0b0b0;stroke-linecap:square;stroke-width:0.8;"/>
     </g>
     <g id="line2d_10">
      <g>
       <use style="stroke:#000000;stroke-width:0.8;" x="290.992958" xlink:href="#m376ebf5b9d" y="307.584"/>
      </g>
     </g>
     <g id="text_5">
      <!-- 200 -->
      <defs>
       <path d="M 19.1875 8.296875 
L 53.609375 8.296875 
L 53.609375 0 
L 7.328125 0 
L 7.328125 8.296875 
Q 12.9375 14.109375 22.625 23.890625 
Q 32.328125 33.6875 34.8125 36.53125 
Q 39.546875 41.84375 41.421875 45.53125 
Q 43.3125 49.21875 43.3125 52.78125 
Q 43.3125 58.59375 39.234375 62.25 
Q 35.15625 65.921875 28.609375 65.921875 
Q 23.96875 65.921875 18.8125 64.3125 
Q 13.671875 62.703125 7.8125 59.421875 
L 7.8125 69.390625 
Q 13.765625 71.78125 18.9375 73 
Q 24.125 74.21875 28.421875 74.21875 
Q 39.75 74.21875 46.484375 68.546875 
Q 53.21875 62.890625 53.21875 53.421875 
Q 53.21875 48.921875 51.53125 44.890625 
Q 49.859375 40.875 45.40625 35.40625 
Q 44.1875 33.984375 37.640625 27.21875 
Q 31.109375 20.453125 19.1875 8.296875 
z
" id="DejaVuSans-50"/>
      </defs>
      <g transform="translate(281.449208 322.182437)scale(0.1 -0.1)">
       <use xlink:href="#DejaVuSans-50"/>
       <use x="63.623047" xlink:href="#DejaVuSans-48"/>
       <use x="127.246094" xlink:href="#DejaVuSans-48"/>
      </g>
     </g>
    </g>
    <g id="xtick_6">
     <g id="line2d_11">
      <path clip-path="url(#pebe357a46f)" d="M 345.283016 307.584 
L 345.283016 41.472 
" style="fill:none;stroke:#b0b0b0;stroke-linecap:square;stroke-width:0.8;"/>
     </g>
     <g id="line2d_12">
      <g>
       <use style="stroke:#000000;stroke-width:0.8;" x="345.283016" xlink:href="#m376ebf5b9d" y="307.584"/>
      </g>
     </g>
     <g id="text_6">
      <!-- 250 -->
      <g transform="translate(335.739266 322.182437)scale(0.1 -0.1)">
       <use xlink:href="#DejaVuSans-50"/>
       <use x="63.623047" xlink:href="#DejaVuSans-53"/>
       <use x="127.246094" xlink:href="#DejaVuSans-48"/>
      </g>
     </g>
    </g>
    <g id="xtick_7">
     <g id="line2d_13">
      <path clip-path="url(#pebe357a46f)" d="M 399.573074 307.584 
L 399.573074 41.472 
" style="fill:none;stroke:#b0b0b0;stroke-linecap:square;stroke-width:0.8;"/>
     </g>
     <g id="line2d_14">
      <g>
       <use style="stroke:#000000;stroke-width:0.8;" x="399.573074" xlink:href="#m376ebf5b9d" y="307.584"/>
      </g>
     </g>
     <g id="text_7">
      <!-- 300 -->
      <defs>
       <path d="M 40.578125 39.3125 
Q 47.65625 37.796875 51.625 33 
Q 55.609375 28.21875 55.609375 21.1875 
Q 55.609375 10.40625 48.1875 4.484375 
Q 40.765625 -1.421875 27.09375 -1.421875 
Q 22.515625 -1.421875 17.65625 -0.515625 
Q 12.796875 0.390625 7.625 2.203125 
L 7.625 11.71875 
Q 11.71875 9.328125 16.59375 8.109375 
Q 21.484375 6.890625 26.8125 6.890625 
Q 36.078125 6.890625 40.9375 10.546875 
Q 45.796875 14.203125 45.796875 21.1875 
Q 45.796875 27.640625 41.28125 31.265625 
Q 36.765625 34.90625 28.71875 34.90625 
L 20.21875 34.90625 
L 20.21875 43.015625 
L 29.109375 43.015625 
Q 36.375 43.015625 40.234375 45.921875 
Q 44.09375 48.828125 44.09375 54.296875 
Q 44.09375 59.90625 40.109375 62.90625 
Q 36.140625 65.921875 28.71875 65.921875 
Q 24.65625 65.921875 20.015625 65.03125 
Q 15.375 64.15625 9.8125 62.3125 
L 9.8125 71.09375 
Q 15.4375 72.65625 20.34375 73.4375 
Q 25.25 74.21875 29.59375 74.21875 
Q 40.828125 74.21875 47.359375 69.109375 
Q 53.90625 64.015625 53.90625 55.328125 
Q 53.90625 49.265625 50.4375 45.09375 
Q 46.96875 40.921875 40.578125 39.3125 
z
" id="DejaVuSans-51"/>
      </defs>
      <g transform="translate(390.029324 322.182437)scale(0.1 -0.1)">
       <use xlink:href="#DejaVuSans-51"/>
       <use x="63.623047" xlink:href="#DejaVuSans-48"/>
       <use x="127.246094" xlink:href="#DejaVuSans-48"/>
      </g>
     </g>
    </g>
    <g id="text_8">
     <!-- Generations -->
     <defs>
      <path d="M 59.515625 10.40625 
L 59.515625 29.984375 
L 43.40625 29.984375 
L 43.40625 38.09375 
L 69.28125 38.09375 
L 69.28125 6.78125 
Q 63.578125 2.734375 56.6875 0.65625 
Q 49.8125 -1.421875 42 -1.421875 
Q 24.90625 -1.421875 15.25 8.5625 
Q 5.609375 18.5625 5.609375 36.375 
Q 5.609375 54.25 15.25 64.234375 
Q 24.90625 74.21875 42 74.21875 
Q 49.125 74.21875 55.546875 72.453125 
Q 61.96875 70.703125 67.390625 67.28125 
L 67.390625 56.78125 
Q 61.921875 61.421875 55.765625 63.765625 
Q 49.609375 66.109375 42.828125 66.109375 
Q 29.4375 66.109375 22.71875 58.640625 
Q 16.015625 51.171875 16.015625 36.375 
Q 16.015625 21.625 22.71875 14.15625 
Q 29.4375 6.6875 42.828125 6.6875 
Q 48.046875 6.6875 52.140625 7.59375 
Q 56.25 8.5 59.515625 10.40625 
z
" id="DejaVuSans-71"/>
      <path d="M 56.203125 29.59375 
L 56.203125 25.203125 
L 14.890625 25.203125 
Q 15.484375 15.921875 20.484375 11.0625 
Q 25.484375 6.203125 34.421875 6.203125 
Q 39.59375 6.203125 44.453125 7.46875 
Q 49.3125 8.734375 54.109375 11.28125 
L 54.109375 2.78125 
Q 49.265625 0.734375 44.1875 -0.34375 
Q 39.109375 -1.421875 33.890625 -1.421875 
Q 20.796875 -1.421875 13.15625 6.1875 
Q 5.515625 13.8125 5.515625 26.8125 
Q 5.515625 40.234375 12.765625 48.109375 
Q 20.015625 56 32.328125 56 
Q 43.359375 56 49.78125 48.890625 
Q 56.203125 41.796875 56.203125 29.59375 
z
M 47.21875 32.234375 
Q 47.125 39.59375 43.09375 43.984375 
Q 39.0625 48.390625 32.421875 48.390625 
Q 24.90625 48.390625 20.390625 44.140625 
Q 15.875 39.890625 15.1875 32.171875 
z
" id="DejaVuSans-101"/>
      <path d="M 54.890625 33.015625 
L 54.890625 0 
L 45.90625 0 
L 45.90625 32.71875 
Q 45.90625 40.484375 42.875 44.328125 
Q 39.84375 48.1875 33.796875 48.1875 
Q 26.515625 48.1875 22.3125 43.546875 
Q 18.109375 38.921875 18.109375 30.90625 
L 18.109375 0 
L 9.078125 0 
L 9.078125 54.6875 
L 18.109375 54.6875 
L 18.109375 46.1875 
Q 21.34375 51.125 25.703125 53.5625 
Q 30.078125 56 35.796875 56 
Q 45.21875 56 50.046875 50.171875 
Q 54.890625 44.34375 54.890625 33.015625 
z
" id="DejaVuSans-110"/>
      <path d="M 41.109375 46.296875 
Q 39.59375 47.171875 37.8125 47.578125 
Q 36.03125 48 33.890625 48 
Q 26.265625 48 22.1875 43.046875 
Q 18.109375 38.09375 18.109375 28.8125 
L 18.109375 0 
L 9.078125 0 
L 9.078125 54.6875 
L 18.109375 54.6875 
L 18.109375 46.1875 
Q 20.953125 51.171875 25.484375 53.578125 
Q 30.03125 56 36.53125 56 
Q 37.453125 56 38.578125 55.875 
Q 39.703125 55.765625 41.0625 55.515625 
z
" id="DejaVuSans-114"/>
      <path d="M 34.28125 27.484375 
Q 23.390625 27.484375 19.1875 25 
Q 14.984375 22.515625 14.984375 16.5 
Q 14.984375 11.71875 18.140625 8.90625 
Q 21.296875 6.109375 26.703125 6.109375 
Q 34.1875 6.109375 38.703125 11.40625 
Q 43.21875 16.703125 43.21875 25.484375 
L 43.21875 27.484375 
z
M 52.203125 31.203125 
L 52.203125 0 
L 43.21875 0 
L 43.21875 8.296875 
Q 40.140625 3.328125 35.546875 0.953125 
Q 30.953125 -1.421875 24.3125 -1.421875 
Q 15.921875 -1.421875 10.953125 3.296875 
Q 6 8.015625 6 15.921875 
Q 6 25.140625 12.171875 29.828125 
Q 18.359375 34.515625 30.609375 34.515625 
L 43.21875 34.515625 
L 43.21875 35.40625 
Q 43.21875 41.609375 39.140625 45 
Q 35.0625 48.390625 27.6875 48.390625 
Q 23 48.390625 18.546875 47.265625 
Q 14.109375 46.140625 10.015625 43.890625 
L 10.015625 52.203125 
Q 14.9375 54.109375 19.578125 55.046875 
Q 24.21875 56 28.609375 56 
Q 40.484375 56 46.34375 49.84375 
Q 52.203125 43.703125 52.203125 31.203125 
z
" id="DejaVuSans-97"/>
      <path d="M 18.3125 70.21875 
L 18.3125 54.6875 
L 36.8125 54.6875 
L 36.8125 47.703125 
L 18.3125 47.703125 
L 18.3125 18.015625 
Q 18.3125 11.328125 20.140625 9.421875 
Q 21.96875 7.515625 27.59375 7.515625 
L 36.8125 7.515625 
L 36.8125 0 
L 27.59375 0 
Q 17.1875 0 13.234375 3.875 
Q 9.28125 7.765625 9.28125 18.015625 
L 9.28125 47.703125 
L 2.6875 47.703125 
L 2.6875 54.6875 
L 9.28125 54.6875 
L 9.28125 70.21875 
z
" id="DejaVuSans-116"/>
      <path d="M 9.421875 54.6875 
L 18.40625 54.6875 
L 18.40625 0 
L 9.421875 0 
z
M 9.421875 75.984375 
L 18.40625 75.984375 
L 18.40625 64.59375 
L 9.421875 64.59375 
z
" id="DejaVuSans-105"/>
      <path d="M 30.609375 48.390625 
Q 23.390625 48.390625 19.1875 42.75 
Q 14.984375 37.109375 14.984375 27.296875 
Q 14.984375 17.484375 19.15625 11.84375 
Q 23.34375 6.203125 30.609375 6.203125 
Q 37.796875 6.203125 41.984375 11.859375 
Q 46.1875 17.53125 46.1875 27.296875 
Q 46.1875 37.015625 41.984375 42.703125 
Q 37.796875 48.390625 30.609375 48.390625 
z
M 30.609375 56 
Q 42.328125 56 49.015625 48.375 
Q 55.71875 40.765625 55.71875 27.296875 
Q 55.71875 13.875 49.015625 6.21875 
Q 42.328125 -1.421875 30.609375 -1.421875 
Q 18.84375 -1.421875 12.171875 6.21875 
Q 5.515625 13.875 5.515625 27.296875 
Q 5.515625 40.765625 12.171875 48.375 
Q 18.84375 56 30.609375 56 
z
" id="DejaVuSans-111"/>
      <path d="M 44.28125 53.078125 
L 44.28125 44.578125 
Q 40.484375 46.53125 36.375 47.5 
Q 32.28125 48.484375 27.875 48.484375 
Q 21.1875 48.484375 17.84375 46.4375 
Q 14.5 44.390625 14.5 40.28125 
Q 14.5 37.15625 16.890625 35.375 
Q 19.28125 33.59375 26.515625 31.984375 
L 29.59375 31.296875 
Q 39.15625 29.25 43.1875 25.515625 
Q 47.21875 21.78125 47.21875 15.09375 
Q 47.21875 7.46875 41.1875 3.015625 
Q 35.15625 -1.421875 24.609375 -1.421875 
Q 20.21875 -1.421875 15.453125 -0.5625 
Q 10.6875 0.296875 5.421875 2 
L 5.421875 11.28125 
Q 10.40625 8.6875 15.234375 7.390625 
Q 20.0625 6.109375 24.8125 6.109375 
Q 31.15625 6.109375 34.5625 8.28125 
Q 37.984375 10.453125 37.984375 14.40625 
Q 37.984375 18.0625 35.515625 20.015625 
Q 33.0625 21.96875 24.703125 23.78125 
L 21.578125 24.515625 
Q 13.234375 26.265625 9.515625 29.90625 
Q 5.8125 33.546875 5.8125 39.890625 
Q 5.8125 47.609375 11.28125 51.796875 
Q 16.75 56 26.8125 56 
Q 31.78125 56 36.171875 55.265625 
Q 40.578125 54.546875 44.28125 53.078125 
z
" id="DejaVuSans-115"/>
     </defs>
     <g transform="translate(205.662344 335.860562)scale(0.1 -0.1)">
      <use xlink:href="#DejaVuSans-71"/>
      <use x="77.490234" xlink:href="#DejaVuSans-101"/>
      <use x="139.013672" xlink:href="#DejaVuSans-110"/>
      <use x="202.392578" xlink:href="#DejaVuSans-101"/>
      <use x="263.916016" xlink:href="#DejaVuSans-114"/>
      <use x="305.029297" xlink:href="#DejaVuSans-97"/>
      <use x="366.308594" xlink:href="#DejaVuSans-116"/>
      <use x="405.517578" xlink:href="#DejaVuSans-105"/>
      <use x="433.300781" xlink:href="#DejaVuSans-111"/>
      <use x="494.482422" xlink:href="#DejaVuSans-110"/>
      <use x="557.861328" xlink:href="#DejaVuSans-115"/>
     </g>
    </g>
   </g>
   <g id="matplotlib.axis_2">
    <g id="ytick_1">
     <g id="line2d_15">
      <path clip-path="url(#pebe357a46f)" d="M 57.6 298.161635 
L 414.72 298.161635 
" style="fill:none;stroke:#b0b0b0;stroke-linecap:square;stroke-width:0.8;"/>
     </g>
     <g id="line2d_16">
      <defs>
       <path d="M 0 0 
L -3.5 0 
" id="m87fdcd6957" style="stroke:#000000;stroke-width:0.8;"/>
      </defs>
      <g>
       <use style="stroke:#000000;stroke-width:0.8;" x="57.6" xlink:href="#m87fdcd6957" y="298.161635"/>
      </g>
     </g>
     <g id="text_9">
      <!-- 250 -->
      <g transform="translate(31.5125 301.960854)scale(0.1 -0.1)">
       <use xlink:href="#DejaVuSans-50"/>
       <use x="63.623047" xlink:href="#DejaVuSans-53"/>
       <use x="127.246094" xlink:href="#DejaVuSans-48"/>
      </g>
     </g>
    </g>
    <g id="ytick_2">
     <g id="line2d_17">
      <path clip-path="url(#pebe357a46f)" d="M 57.6 263.243435 
L 414.72 263.243435 
" style="fill:none;stroke:#b0b0b0;stroke-linecap:square;stroke-width:0.8;"/>
     </g>
     <g id="line2d_18">
      <g>
       <use style="stroke:#000000;stroke-width:0.8;" x="57.6" xlink:href="#m87fdcd6957" y="263.243435"/>
      </g>
     </g>
     <g id="text_10">
      <!-- 500 -->
      <g transform="translate(31.5125 267.042654)scale(0.1 -0.1)">
       <use xlink:href="#DejaVuSans-53"/>
       <use x="63.623047" xlink:href="#DejaVuSans-48"/>
       <use x="127.246094" xlink:href="#DejaVuSans-48"/>
      </g>
     </g>
    </g>
    <g id="ytick_3">
     <g id="line2d_19">
      <path clip-path="url(#pebe357a46f)" d="M 57.6 228.325236 
L 414.72 228.325236 
" style="fill:none;stroke:#b0b0b0;stroke-linecap:square;stroke-width:0.8;"/>
     </g>
     <g id="line2d_20">
      <g>
       <use style="stroke:#000000;stroke-width:0.8;" x="57.6" xlink:href="#m87fdcd6957" y="228.325236"/>
      </g>
     </g>
     <g id="text_11">
      <!-- 750 -->
      <defs>
       <path d="M 8.203125 72.90625 
L 55.078125 72.90625 
L 55.078125 68.703125 
L 28.609375 0 
L 18.3125 0 
L 43.21875 64.59375 
L 8.203125 64.59375 
z
" id="DejaVuSans-55"/>
      </defs>
      <g transform="translate(31.5125 232.124454)scale(0.1 -0.1)">
       <use xlink:href="#DejaVuSans-55"/>
       <use x="63.623047" xlink:href="#DejaVuSans-53"/>
       <use x="127.246094" xlink:href="#DejaVuSans-48"/>
      </g>
     </g>
    </g>
    <g id="ytick_4">
     <g id="line2d_21">
      <path clip-path="url(#pebe357a46f)" d="M 57.6 193.407036 
L 414.72 193.407036 
" style="fill:none;stroke:#b0b0b0;stroke-linecap:square;stroke-width:0.8;"/>
     </g>
     <g id="line2d_22">
      <g>
       <use style="stroke:#000000;stroke-width:0.8;" x="57.6" xlink:href="#m87fdcd6957" y="193.407036"/>
      </g>
     </g>
     <g id="text_12">
      <!-- 1000 -->
      <g transform="translate(25.15 197.206254)scale(0.1 -0.1)">
       <use xlink:href="#DejaVuSans-49"/>
       <use x="63.623047" xlink:href="#DejaVuSans-48"/>
       <use x="127.246094" xlink:href="#DejaVuSans-48"/>
       <use x="190.869141" xlink:href="#DejaVuSans-48"/>
      </g>
     </g>
    </g>
    <g id="ytick_5">
     <g id="line2d_23">
      <path clip-path="url(#pebe357a46f)" d="M 57.6 158.488836 
L 414.72 158.488836 
" style="fill:none;stroke:#b0b0b0;stroke-linecap:square;stroke-width:0.8;"/>
     </g>
     <g id="line2d_24">
      <g>
       <use style="stroke:#000000;stroke-width:0.8;" x="57.6" xlink:href="#m87fdcd6957" y="158.488836"/>
      </g>
     </g>
     <g id="text_13">
      <!-- 1250 -->
      <g transform="translate(25.15 162.288055)scale(0.1 -0.1)">
       <use xlink:href="#DejaVuSans-49"/>
       <use x="63.623047" xlink:href="#DejaVuSans-50"/>
       <use x="127.246094" xlink:href="#DejaVuSans-53"/>
       <use x="190.869141" xlink:href="#DejaVuSans-48"/>
      </g>
     </g>
    </g>
    <g id="ytick_6">
     <g id="line2d_25">
      <path clip-path="url(#pebe357a46f)" d="M 57.6 123.570636 
L 414.72 123.570636 
" style="fill:none;stroke:#b0b0b0;stroke-linecap:square;stroke-width:0.8;"/>
     </g>
     <g id="line2d_26">
      <g>
       <use style="stroke:#000000;stroke-width:0.8;" x="57.6" xlink:href="#m87fdcd6957" y="123.570636"/>
      </g>
     </g>
     <g id="text_14">
      <!-- 1500 -->
      <g transform="translate(25.15 127.369855)scale(0.1 -0.1)">
       <use xlink:href="#DejaVuSans-49"/>
       <use x="63.623047" xlink:href="#DejaVuSans-53"/>
       <use x="127.246094" xlink:href="#DejaVuSans-48"/>
       <use x="190.869141" xlink:href="#DejaVuSans-48"/>
      </g>
     </g>
    </g>
    <g id="ytick_7">
     <g id="line2d_27">
      <path clip-path="url(#pebe357a46f)" d="M 57.6 88.652436 
L 414.72 88.652436 
" style="fill:none;stroke:#b0b0b0;stroke-linecap:square;stroke-width:0.8;"/>
     </g>
     <g id="line2d_28">
      <g>
       <use style="stroke:#000000;stroke-width:0.8;" x="57.6" xlink:href="#m87fdcd6957" y="88.652436"/>
      </g>
     </g>
     <g id="text_15">
      <!-- 1750 -->
      <g transform="translate(25.15 92.451655)scale(0.1 -0.1)">
       <use xlink:href="#DejaVuSans-49"/>
       <use x="63.623047" xlink:href="#DejaVuSans-55"/>
       <use x="127.246094" xlink:href="#DejaVuSans-53"/>
       <use x="190.869141" xlink:href="#DejaVuSans-48"/>
      </g>
     </g>
    </g>
    <g id="ytick_8">
     <g id="line2d_29">
      <path clip-path="url(#pebe357a46f)" d="M 57.6 53.734236 
L 414.72 53.734236 
" style="fill:none;stroke:#b0b0b0;stroke-linecap:square;stroke-width:0.8;"/>
     </g>
     <g id="line2d_30">
      <g>
       <use style="stroke:#000000;stroke-width:0.8;" x="57.6" xlink:href="#m87fdcd6957" y="53.734236"/>
      </g>
     </g>
     <g id="text_16">
      <!-- 2000 -->
      <g transform="translate(25.15 57.533455)scale(0.1 -0.1)">
       <use xlink:href="#DejaVuSans-50"/>
       <use x="63.623047" xlink:href="#DejaVuSans-48"/>
       <use x="127.246094" xlink:href="#DejaVuSans-48"/>
       <use x="190.869141" xlink:href="#DejaVuSans-48"/>
      </g>
     </g>
    </g>
    <g id="text_17">
     <!-- Fitness -->
     <defs>
      <path d="M 9.8125 72.90625 
L 51.703125 72.90625 
L 51.703125 64.59375 
L 19.671875 64.59375 
L 19.671875 43.109375 
L 48.578125 43.109375 
L 48.578125 34.8125 
L 19.671875 34.8125 
L 19.671875 0 
L 9.8125 0 
z
" id="DejaVuSans-70"/>
     </defs>
     <g transform="translate(19.070312 192.202219)rotate(-90)scale(0.1 -0.1)">
      <use xlink:href="#DejaVuSans-70"/>
      <use x="57.410156" xlink:href="#DejaVuSans-105"/>
      <use x="85.193359" xlink:href="#DejaVuSans-116"/>
      <use x="124.402344" xlink:href="#DejaVuSans-110"/>
      <use x="187.78125" xlink:href="#DejaVuSans-101"/>
      <use x="249.304688" xlink:href="#DejaVuSans-115"/>
      <use x="301.404297" xlink:href="#DejaVuSans-115"/>
     </g>
    </g>
   </g>
   <g id="line2d_31">
    <path clip-path="url(#pebe357a46f)" d="M 73.832727 293.26481 
L 74.918528 248.692854 
L 76.00433 246.266138 
L 77.090131 240.719873 
L 78.175932 239.415376 
L 79.261733 229.674691 
L 80.347534 226.705389 
L 81.433335 226.12891 
L 82.519137 240.680425 
L 83.604938 229.122931 
L 85.77654 236.555855 
L 86.862341 244.993968 
L 87.948142 230.739169 
L 89.033943 244.937287 
L 90.119745 240.74321 
L 91.205546 238.097936 
L 92.291347 243.384331 
L 93.377148 245.174798 
L 94.462949 229.679148 
L 95.54875 241.372251 
L 96.634552 224.008593 
L 97.720353 226.813184 
L 98.806154 220.841661 
L 99.891955 215.67889 
L 100.977756 199.157789 
L 102.063557 196.8655 
L 103.149358 210.64021 
L 104.23516 184.347985 
L 105.320961 192.273627 
L 106.406762 199.358209 
L 108.578364 182.141738 
L 109.664165 166.697634 
L 110.749967 193.89215 
L 111.835768 194.125904 
L 112.921569 164.032507 
L 114.00737 180.050537 
L 115.093171 178.315853 
L 116.178972 192.883857 
L 117.264773 162.356611 
L 118.350575 188.805933 
L 119.436376 178.24194 
L 120.522177 185.869165 
L 121.607978 177.711396 
L 122.693779 153.57036 
L 123.77958 167.787008 
L 124.865382 162.450621 
L 125.951183 148.850318 
L 127.036984 174.464321 
L 128.122785 158.137861 
L 129.208586 170.344857 
L 130.294387 142.381774 
L 131.380189 158.803777 
L 132.46599 128.90373 
L 133.551791 155.077526 
L 134.637592 133.696813 
L 135.723393 137.603016 
L 136.809194 157.53619 
L 137.894995 156.116607 
L 138.980797 123.838853 
L 140.066598 158.80299 
L 141.152399 157.753687 
L 142.2382 141.645045 
L 143.324001 162.84863 
L 144.409802 164.576445 
L 145.495604 149.10756 
L 146.581405 151.620696 
L 147.667206 154.57157 
L 148.753007 164.61115 
L 149.838808 168.965728 
L 150.924609 156.590705 
L 152.01041 140.370488 
L 153.096212 156.752883 
L 154.182013 148.529818 
L 155.267814 149.763887 
L 156.353615 198.284487 
L 157.439416 155.778352 
L 158.525217 137.440032 
L 159.611019 148.419426 
L 160.69682 144.450861 
L 161.782621 135.44069 
L 162.868422 142.23267 
L 163.954223 136.48762 
L 165.040024 152.255704 
L 166.125825 154.353822 
L 167.211627 161.189894 
L 168.297428 173.418153 
L 169.383229 150.504964 
L 170.46903 160.531199 
L 171.554831 168.349857 
L 172.640632 154.578984 
L 173.726434 132.894039 
L 174.812235 144.758168 
L 175.898036 146.110251 
L 176.983837 151.978892 
L 178.069638 152.248418 
L 179.155439 148.301221 
L 180.24124 126.0372 
L 181.327042 124.817539 
L 182.412843 145.638372 
L 184.584445 123.55187 
L 185.670246 156.230786 
L 187.841849 133.4065 
L 188.92765 134.871245 
L 190.013451 133.673684 
L 191.099252 148.940333 
L 192.185053 144.092795 
L 193.270854 155.798661 
L 194.356656 137.368098 
L 195.442457 122.668521 
L 196.528258 146.804625 
L 197.614059 130.665067 
L 198.69986 132.706876 
L 199.785661 144.624237 
L 200.871462 132.234729 
L 201.957264 158.643384 
L 204.128866 147.783806 
L 205.214667 154.570444 
L 206.300468 151.841572 
L 207.386269 147.433238 
L 208.472071 161.047017 
L 209.557872 141.500495 
L 210.643673 151.922614 
L 211.729474 143.589675 
L 212.815275 195.063089 
L 213.901076 154.831079 
L 214.986877 134.238586 
L 216.072679 159.491182 
L 217.15848 155.126467 
L 218.244281 154.987427 
L 219.330082 161.463139 
L 220.415883 156.456095 
L 221.501684 149.031718 
L 222.587486 140.259123 
L 223.673287 145.035844 
L 224.759088 146.052145 
L 225.844889 158.166303 
L 226.93069 176.245336 
L 228.016491 181.734034 
L 229.102292 170.768982 
L 230.188094 162.199368 
L 231.273895 146.052104 
L 232.359696 158.159781 
L 233.445497 163.327948 
L 234.531298 153.611396 
L 235.617099 142.074315 
L 236.702901 127.98098 
L 237.788702 161.246224 
L 238.874503 150.016447 
L 241.046105 154.645119 
L 242.131906 140.735602 
L 243.217708 142.719587 
L 244.303509 164.090869 
L 245.38931 163.719967 
L 246.475111 154.197946 
L 247.560912 164.543196 
L 248.646713 138.241432 
L 249.732514 136.495276 
L 250.818316 142.818003 
L 251.904117 144.559436 
L 252.989918 174.731774 
L 254.075719 135.664345 
L 255.16152 124.810223 
L 256.247321 136.80131 
L 257.333123 150.482247 
L 258.418924 144.79137 
L 259.504725 140.759832 
L 260.590526 149.263875 
L 261.676327 171.109892 
L 262.762128 146.474717 
L 263.847929 143.444643 
L 264.933731 123.420769 
L 266.019532 148.278238 
L 267.105333 146.334013 
L 268.191134 139.783333 
L 269.276935 173.616599 
L 270.362736 158.975128 
L 271.448538 178.034826 
L 272.534339 178.976422 
L 273.62014 167.446836 
L 274.705941 158.591875 
L 275.791742 145.910866 
L 276.877543 156.993951 
L 277.963344 140.839446 
L 279.049146 157.346998 
L 280.134947 180.721904 
L 281.220748 149.210989 
L 282.306549 160.079329 
L 284.478151 187.326797 
L 285.563953 169.989421 
L 286.649754 174.617073 
L 287.735555 172.245798 
L 288.821356 177.265803 
L 289.907157 175.887803 
L 290.992958 152.304504 
L 292.07876 167.372485 
L 293.164561 172.863321 
L 294.250362 153.751464 
L 295.336163 152.661016 
L 296.421964 197.821043 
L 297.507765 192.916047 
L 298.593566 172.548038 
L 299.679368 162.933781 
L 300.765169 167.959072 
L 301.85097 160.259426 
L 302.936771 196.344595 
L 304.022572 173.234206 
L 305.108373 154.866686 
L 306.194175 169.676759 
L 307.279976 153.215778 
L 308.365777 169.760433 
L 309.451578 161.704701 
L 310.537379 162.035561 
L 311.62318 176.960319 
L 312.708981 171.817111 
L 313.794783 144.806058 
L 314.880584 159.123324 
L 315.966385 175.093075 
L 317.052186 179.107542 
L 318.137987 179.621785 
L 320.30959 153.534162 
L 321.395391 156.903308 
L 322.481192 174.761556 
L 323.566993 140.789191 
L 324.652794 172.324327 
L 326.824396 172.962203 
L 327.910198 165.385966 
L 328.995999 164.146912 
L 330.0818 182.115357 
L 331.167601 195.072995 
L 332.253402 186.135219 
L 333.339203 194.177509 
L 334.425005 195.777217 
L 335.510806 186.434455 
L 336.596607 166.697961 
L 337.682408 165.642862 
L 338.768209 167.12185 
L 339.85401 173.053127 
L 340.939811 206.51469 
L 342.025613 188.275721 
L 343.111414 198.76436 
L 344.197215 206.592758 
L 345.283016 203.743506 
L 346.368817 184.547454 
L 347.454618 179.800589 
L 348.54042 196.400176 
L 349.626221 203.326367 
L 350.712022 171.462186 
L 351.797823 193.123835 
L 352.883624 200.262427 
L 353.969425 190.074563 
L 355.055227 210.155756 
L 356.141028 207.507096 
L 357.226829 183.815761 
L 358.31263 199.814856 
L 359.398431 200.935818 
L 360.484232 195.807858 
L 361.570033 184.699782 
L 362.655835 191.423224 
L 363.741636 188.044968 
L 364.827437 197.491014 
L 365.913238 200.38912 
L 366.999039 194.406138 
L 368.08484 178.054002 
L 369.170642 182.443971 
L 370.256443 176.096872 
L 371.342244 194.613735 
L 372.428045 202.062322 
L 373.513846 164.650966 
L 374.599647 207.918159 
L 375.685448 200.201466 
L 376.77125 194.904023 
L 377.857051 204.046741 
L 378.942852 184.182216 
L 380.028653 196.281386 
L 381.114454 183.348543 
L 382.200255 185.941617 
L 383.286057 187.47837 
L 384.371858 171.756842 
L 385.457659 174.327177 
L 386.54346 167.752051 
L 387.629261 159.770215 
L 388.715062 165.741881 
L 389.800863 165.325361 
L 390.886665 168.676419 
L 391.972466 160.986507 
L 393.058267 199.694683 
L 394.144068 195.801698 
L 395.229869 186.128636 
L 396.31567 200.234922 
L 397.401472 184.61663 
L 398.487273 186.98922 
L 398.487273 186.98922 
" style="fill:none;stroke:#0000ff;stroke-linecap:square;stroke-width:1.5;"/>
   </g>
   <g id="line2d_32">
    <path clip-path="url(#pebe357a46f)" d="M 73.832727 295.488 
L 74.918528 251.998988 
L 76.00433 250.441562 
L 77.090131 247.946335 
L 78.175932 248.783915 
L 79.261733 240.163483 
L 80.347534 239.832464 
L 81.433335 241.804438 
L 82.519137 254.264926 
L 84.690739 241.954147 
L 85.77654 247.217784 
L 86.862341 263.55942 
L 87.948142 240.184313 
L 89.033943 262.276191 
L 90.119745 250.329989 
L 91.205546 246.317668 
L 92.291347 259.441305 
L 93.377148 266.030108 
L 94.462949 244.537746 
L 95.54875 257.793025 
L 96.634552 236.989144 
L 97.720353 251.1348 
L 98.806154 241.58028 
L 99.891955 234.545175 
L 100.977756 223.366 
L 102.063557 229.490805 
L 103.149358 239.074332 
L 104.23516 213.124504 
L 105.320961 219.549207 
L 106.406762 243.948557 
L 107.492563 223.953689 
L 108.578364 224.158859 
L 109.664165 202.882567 
L 110.749967 229.25093 
L 111.835768 227.748612 
L 112.921569 205.085419 
L 114.00737 218.901701 
L 115.093171 225.021379 
L 116.178972 237.69453 
L 117.264773 203.350772 
L 118.350575 224.336643 
L 119.436376 220.873967 
L 120.522177 219.294042 
L 121.607978 218.49692 
L 122.693779 214.285278 
L 123.77958 208.386155 
L 124.865382 214.187602 
L 125.951183 200.85054 
L 127.036984 218.673258 
L 128.122785 202.482817 
L 129.208586 213.821385 
L 130.294387 195.686032 
L 131.380189 210.792907 
L 132.46599 181.380824 
L 133.551791 217.078688 
L 134.637592 188.002057 
L 135.723393 180.491434 
L 136.809194 204.111264 
L 137.894995 203.377564 
L 138.980797 176.186571 
L 140.066598 211.021216 
L 141.152399 206.449307 
L 142.2382 191.662826 
L 143.324001 208.97142 
L 144.409802 209.058821 
L 145.495604 194.307435 
L 146.581405 204.643721 
L 147.667206 205.578589 
L 148.753007 222.375459 
L 149.838808 218.612402 
L 150.924609 206.553102 
L 152.01041 201.141678 
L 153.096212 208.787333 
L 154.182013 202.63015 
L 155.267814 205.829217 
L 156.353615 250.980631 
L 157.439416 206.219669 
L 158.525217 183.371463 
L 159.611019 199.071221 
L 160.69682 209.21017 
L 161.782621 191.672038 
L 162.868422 191.773404 
L 163.954223 192.964672 
L 165.040024 211.442421 
L 166.125825 198.150217 
L 167.211627 220.760926 
L 168.297428 228.644839 
L 169.383229 201.516845 
L 170.46903 215.54596 
L 171.554831 214.697372 
L 172.640632 207.841747 
L 173.726434 181.59065 
L 174.812235 198.984493 
L 175.898036 193.319641 
L 176.983837 200.750559 
L 178.069638 200.192976 
L 179.155439 202.764646 
L 180.24124 179.012015 
L 181.327042 174.835624 
L 182.412843 205.670389 
L 183.498644 195.53773 
L 184.584445 175.359313 
L 185.670246 208.320426 
L 186.756047 202.544432 
L 187.841849 187.73292 
L 190.013451 197.333591 
L 192.185053 216.588623 
L 193.270854 199.432356 
L 194.356656 186.397853 
L 195.442457 180.393774 
L 196.528258 196.779902 
L 197.614059 189.534885 
L 198.69986 187.667139 
L 199.785661 201.852791 
L 200.871462 185.276799 
L 201.957264 205.343633 
L 203.043065 194.051777 
L 204.128866 204.585977 
L 205.214667 205.725342 
L 206.300468 204.62617 
L 207.386269 209.482783 
L 208.472071 211.09475 
L 209.557872 202.10467 
L 210.643673 214.9728 
L 211.729474 196.198062 
L 212.815275 242.552189 
L 213.901076 209.47244 
L 214.986877 183.18716 
L 216.072679 212.550158 
L 217.15848 207.082753 
L 218.244281 219.463649 
L 220.415883 197.736115 
L 221.501684 199.580797 
L 222.587486 190.457585 
L 223.673287 198.527405 
L 224.759088 209.707937 
L 225.844889 210.272294 
L 226.93069 228.201962 
L 228.016491 233.972534 
L 229.102292 212.685496 
L 230.188094 209.094497 
L 231.273895 211.334973 
L 232.359696 210.129593 
L 233.445497 219.09531 
L 234.531298 216.598467 
L 235.617099 194.945925 
L 236.702901 181.549248 
L 237.788702 203.594547 
L 238.874503 211.557899 
L 239.960304 201.233221 
L 241.046105 207.909919 
L 242.131906 195.69859 
L 243.217708 201.128537 
L 244.303509 215.509245 
L 245.38931 218.650869 
L 246.475111 204.469477 
L 247.560912 215.001651 
L 248.646713 188.567359 
L 249.732514 185.858989 
L 250.818316 193.020432 
L 251.904117 206.299153 
L 252.989918 225.3461 
L 254.075719 190.646826 
L 255.16152 191.13704 
L 256.247321 192.921252 
L 257.333123 204.805364 
L 258.418924 202.809164 
L 259.504725 197.879798 
L 260.590526 200.229735 
L 261.676327 217.293888 
L 262.762128 192.113784 
L 263.847929 193.623249 
L 264.933731 187.165938 
L 266.019532 200.057199 
L 267.105333 201.446114 
L 268.191134 186.859651 
L 269.276935 215.903448 
L 270.362736 214.568285 
L 271.448538 223.124932 
L 272.534339 224.749776 
L 273.62014 211.609655 
L 274.705941 210.564218 
L 275.791742 200.201384 
L 276.877543 210.383451 
L 277.963344 193.341705 
L 279.049146 212.475772 
L 280.134947 224.393028 
L 281.220748 203.079736 
L 282.306549 208.968259 
L 283.39235 221.995512 
L 284.478151 230.677155 
L 285.563953 222.771691 
L 286.649754 220.380934 
L 287.735555 221.48979 
L 288.821356 224.966963 
L 289.907157 226.177599 
L 290.992958 196.529023 
L 292.07876 214.898161 
L 293.164561 220.535085 
L 294.250362 204.801388 
L 295.336163 199.051284 
L 296.421964 245.744727 
L 297.507765 241.287878 
L 298.593566 229.161336 
L 299.679368 209.735763 
L 300.765169 220.235131 
L 301.85097 202.361137 
L 302.936771 233.78705 
L 304.022572 217.798864 
L 305.108373 210.276669 
L 306.194175 222.857997 
L 307.279976 209.179086 
L 308.365777 216.886684 
L 309.451578 213.990795 
L 310.537379 214.83042 
L 311.62318 226.813539 
L 312.708981 228.93879 
L 313.794783 201.35963 
L 314.880584 210.982078 
L 315.966385 224.682144 
L 317.052186 225.821716 
L 318.137987 230.213596 
L 320.30959 203.555323 
L 321.395391 212.241498 
L 322.481192 233.866969 
L 323.566993 189.219347 
L 324.652794 216.738146 
L 325.738595 221.159599 
L 326.824396 219.918068 
L 327.910198 216.059303 
L 328.995999 209.100695 
L 330.0818 226.672477 
L 331.167601 228.552115 
L 332.253402 226.404633 
L 333.339203 228.711596 
L 334.425005 235.570143 
L 335.510806 214.308575 
L 336.596607 197.400715 
L 337.682408 208.017627 
L 338.768209 212.217022 
L 339.85401 214.943003 
L 340.939811 236.406317 
L 342.025613 225.641758 
L 343.111414 235.939282 
L 344.197215 236.344968 
L 345.283016 237.849561 
L 346.368817 222.511726 
L 347.454618 216.469736 
L 348.54042 231.597759 
L 349.626221 237.698968 
L 350.712022 206.066676 
L 351.797823 235.278578 
L 352.883624 235.572741 
L 353.969425 228.870574 
L 355.055227 238.976673 
L 356.141028 244.809667 
L 357.226829 218.982897 
L 358.31263 238.73129 
L 359.398431 232.073059 
L 360.484232 241.622739 
L 361.570033 228.866666 
L 362.655835 224.80184 
L 363.741636 226.740393 
L 364.827437 229.582719 
L 365.913238 239.564256 
L 366.999039 232.163189 
L 368.08484 215.244958 
L 369.170642 226.225264 
L 370.256443 218.510551 
L 371.342244 231.823709 
L 372.428045 233.064637 
L 373.513846 209.081581 
L 374.599647 245.339293 
L 375.685448 237.922548 
L 376.77125 233.039394 
L 377.857051 234.737894 
L 378.942852 226.633068 
L 380.028653 240.013667 
L 381.114454 220.274154 
L 382.200255 226.226792 
L 383.286057 220.682895 
L 384.371858 214.113538 
L 385.457659 215.165014 
L 386.54346 211.976095 
L 387.629261 204.021275 
L 388.715062 206.582268 
L 389.800863 215.162873 
L 390.886665 206.843839 
L 391.972466 197.181453 
L 393.058267 237.729221 
L 394.144068 229.453047 
L 395.229869 226.777455 
L 396.31567 226.322566 
L 397.401472 221.825572 
L 398.487273 224.807661 
L 398.487273 224.807661 
" style="fill:none;stroke:#008000;stroke-dasharray:9.6,2.4,1.5,2.4;stroke-dashoffset:0;stroke-width:1.5;"/>
   </g>
   <g id="line2d_33">
    <path clip-path="url(#pebe357a46f)" d="M 73.832727 291.041621 
L 74.918528 245.38672 
L 76.00433 242.090715 
L 77.090131 233.493411 
L 78.175932 230.046838 
L 79.261733 219.185899 
L 80.347534 213.578313 
L 81.433335 210.453382 
L 82.519137 227.095925 
L 83.604938 210.422812 
L 84.690739 223.731894 
L 85.77654 225.893926 
L 86.862341 226.428516 
L 87.948142 221.294024 
L 89.033943 227.598383 
L 90.119745 231.156431 
L 91.205546 229.878204 
L 92.291347 227.327356 
L 93.377148 224.319489 
L 94.462949 214.820551 
L 95.54875 224.951477 
L 96.634552 211.028042 
L 97.720353 202.491568 
L 98.806154 200.103042 
L 99.891955 196.812604 
L 100.977756 174.949579 
L 102.063557 164.240194 
L 103.149358 182.206088 
L 104.23516 155.571466 
L 105.320961 164.998047 
L 106.406762 154.76786 
L 107.492563 157.813481 
L 108.578364 140.124617 
L 109.664165 130.512701 
L 110.749967 158.53337 
L 111.835768 160.503196 
L 112.921569 122.979595 
L 114.00737 141.199372 
L 115.093171 131.610328 
L 116.178972 148.073185 
L 117.264773 121.36245 
L 118.350575 153.275224 
L 119.436376 135.609914 
L 120.522177 152.444289 
L 121.607978 136.925871 
L 122.693779 92.855441 
L 123.77958 127.187862 
L 124.865382 110.71364 
L 125.951183 96.850095 
L 127.036984 130.255385 
L 128.122785 113.792904 
L 129.208586 126.868329 
L 130.294387 89.077516 
L 131.380189 106.814646 
L 132.46599 76.426636 
L 133.551791 93.076364 
L 134.637592 79.39157 
L 136.809194 110.961116 
L 137.894995 108.855649 
L 138.980797 71.491135 
L 140.066598 106.584765 
L 141.152399 109.058068 
L 142.2382 91.627264 
L 143.324001 116.725841 
L 144.409802 120.094069 
L 145.495604 103.907685 
L 146.581405 98.597671 
L 147.667206 103.56455 
L 148.753007 106.846841 
L 149.838808 119.319054 
L 150.924609 106.628308 
L 152.01041 79.599298 
L 153.096212 104.718432 
L 154.182013 94.429485 
L 155.267814 93.698557 
L 156.353615 145.588342 
L 157.439416 105.337034 
L 158.525217 91.508602 
L 159.611019 97.767632 
L 160.69682 79.691552 
L 161.782621 79.209341 
L 162.868422 92.691936 
L 163.954223 80.010568 
L 165.040024 93.068987 
L 166.125825 110.557427 
L 167.211627 101.618862 
L 168.297428 118.191467 
L 169.383229 99.493083 
L 170.46903 105.516438 
L 171.554831 122.002342 
L 172.640632 101.31622 
L 173.726434 84.197428 
L 174.812235 90.531842 
L 175.898036 98.900862 
L 176.983837 103.207225 
L 178.069638 104.303859 
L 179.155439 93.837797 
L 180.24124 73.062385 
L 181.327042 74.799454 
L 182.412843 85.606356 
L 183.498644 73.402432 
L 184.584445 71.744426 
L 185.670246 104.141146 
L 186.756047 87.883697 
L 187.841849 79.080079 
L 188.92765 77.185505 
L 190.013451 70.013777 
L 191.099252 91.18882 
L 192.185053 71.596966 
L 193.270854 112.164966 
L 195.442457 64.943267 
L 196.528258 96.829347 
L 197.614059 71.795249 
L 198.69986 77.746613 
L 199.785661 87.395684 
L 200.871462 79.192659 
L 201.957264 111.943135 
L 203.043065 112.089406 
L 204.128866 90.981635 
L 205.214667 103.415546 
L 206.300468 99.056973 
L 207.386269 85.383693 
L 208.472071 110.999284 
L 209.557872 80.89632 
L 210.643673 88.872429 
L 211.729474 90.981288 
L 212.815275 147.57399 
L 213.901076 100.189719 
L 214.986877 85.290011 
L 216.072679 106.432205 
L 217.15848 103.17018 
L 218.244281 90.511206 
L 219.330082 114.827738 
L 220.415883 115.176075 
L 221.501684 98.48264 
L 222.587486 90.06066 
L 223.673287 91.544284 
L 224.759088 82.396354 
L 225.844889 106.060311 
L 226.93069 124.28871 
L 228.016491 129.495533 
L 229.102292 128.852469 
L 230.188094 115.304239 
L 231.273895 80.769234 
L 232.359696 106.18997 
L 233.445497 107.560586 
L 234.531298 90.624326 
L 235.617099 89.202705 
L 236.702901 74.412712 
L 237.788702 118.897901 
L 238.874503 88.474995 
L 239.960304 103.40849 
L 241.046105 101.38032 
L 242.131906 85.772613 
L 243.217708 84.310636 
L 244.303509 112.672493 
L 245.38931 108.789066 
L 246.475111 103.926414 
L 247.560912 114.084741 
L 248.646713 87.915505 
L 249.732514 87.131563 
L 250.818316 92.615573 
L 251.904117 82.819719 
L 252.989918 124.117448 
L 254.075719 80.681864 
L 255.16152 58.483407 
L 256.247321 80.681368 
L 257.333123 96.15913 
L 258.418924 86.773576 
L 259.504725 83.639867 
L 260.590526 98.298015 
L 261.676327 124.925896 
L 262.762128 100.835651 
L 263.847929 93.266036 
L 264.933731 59.6756 
L 266.019532 96.499276 
L 267.105333 91.221912 
L 268.191134 92.707015 
L 269.276935 131.32975 
L 270.362736 103.381971 
L 271.448538 132.94472 
L 272.534339 133.203068 
L 273.62014 123.284016 
L 275.791742 91.620348 
L 276.877543 103.60445 
L 277.963344 88.337187 
L 279.049146 102.218224 
L 280.134947 137.05078 
L 281.220748 95.342242 
L 282.306549 111.190399 
L 283.39235 124.682313 
L 284.478151 143.976439 
L 285.563953 117.20715 
L 286.649754 128.853213 
L 287.735555 123.001806 
L 288.821356 129.564644 
L 289.907157 125.598006 
L 290.992958 108.079985 
L 292.07876 119.846809 
L 293.164561 125.191557 
L 294.250362 102.70154 
L 295.336163 106.270748 
L 296.421964 149.897359 
L 297.507765 144.544217 
L 298.593566 115.93474 
L 299.679368 116.131799 
L 300.765169 115.683013 
L 301.85097 118.157714 
L 302.936771 158.902139 
L 305.108373 99.456704 
L 306.194175 116.495521 
L 307.279976 97.252469 
L 308.365777 122.634181 
L 309.451578 109.418608 
L 310.537379 109.240702 
L 311.62318 127.1071 
L 312.708981 114.695433 
L 313.794783 88.252485 
L 315.966385 125.504005 
L 317.052186 132.393368 
L 318.137987 129.029974 
L 319.223788 115.570113 
L 320.30959 103.513001 
L 321.395391 101.565119 
L 322.481192 115.656143 
L 323.566993 92.359035 
L 324.652794 127.910508 
L 325.738595 124.052151 
L 326.824396 126.006337 
L 327.910198 114.712628 
L 328.995999 119.193129 
L 330.0818 137.558238 
L 331.167601 161.593874 
L 332.253402 145.865804 
L 333.339203 159.643421 
L 334.425005 155.984291 
L 335.510806 158.560335 
L 336.596607 135.995206 
L 337.682408 123.268097 
L 338.768209 122.026678 
L 339.85401 131.163251 
L 340.939811 176.623063 
L 342.025613 150.909685 
L 343.111414 161.589437 
L 344.197215 176.840547 
L 345.283016 169.637451 
L 346.368817 146.583182 
L 347.454618 143.131443 
L 348.54042 161.202593 
L 349.626221 168.953766 
L 350.712022 136.857697 
L 352.883624 164.952112 
L 353.969425 151.278552 
L 355.055227 181.334839 
L 356.141028 170.204525 
L 357.226829 148.648625 
L 358.31263 160.898422 
L 359.398431 169.798576 
L 360.484232 149.992978 
L 361.570033 140.532898 
L 362.655835 158.044609 
L 363.741636 149.349543 
L 364.827437 165.399309 
L 366.999039 156.649087 
L 368.08484 140.863046 
L 369.170642 138.662678 
L 370.256443 133.683193 
L 371.342244 157.403761 
L 372.428045 171.060006 
L 373.513846 120.22035 
L 374.599647 170.497024 
L 375.685448 162.480384 
L 376.77125 156.768652 
L 377.857051 173.355589 
L 378.942852 141.731365 
L 380.028653 152.549104 
L 381.114454 146.422933 
L 382.200255 145.656442 
L 383.286057 154.273844 
L 384.371858 129.400146 
L 385.457659 133.48934 
L 386.54346 123.528006 
L 387.629261 115.519154 
L 388.715062 124.901494 
L 389.800863 115.487849 
L 390.886665 130.508999 
L 391.972466 124.79156 
L 393.058267 161.660144 
L 394.144068 162.15035 
L 395.229869 145.479817 
L 396.31567 174.147277 
L 397.401472 147.407688 
L 398.487273 149.170778 
L 398.487273 149.170778 
" style="fill:none;stroke:#008000;stroke-dasharray:9.6,2.4,1.5,2.4;stroke-dashoffset:0;stroke-width:1.5;"/>
   </g>
   <g id="line2d_34">
    <path clip-path="url(#pebe357a46f)" d="M 73.832727 288.100159 
L 74.918528 241.759543 
L 76.00433 237.439789 
L 77.090131 229.962769 
L 78.175932 220.022902 
L 79.261733 213.978445 
L 80.347534 211.225895 
L 81.433335 209.456013 
L 82.519137 222.205336 
L 83.604938 203.492081 
L 84.690739 221.67019 
L 85.77654 227.556997 
L 86.862341 230.627228 
L 87.948142 222.236145 
L 89.033943 231.476749 
L 90.119745 230.698481 
L 91.205546 232.62481 
L 92.291347 234.017636 
L 93.377148 233.072568 
L 94.462949 214.537738 
L 95.54875 223.082055 
L 96.634552 206.326422 
L 97.720353 200.373149 
L 98.806154 192.760968 
L 99.891955 190.48092 
L 100.977756 171.606068 
L 102.063557 159.530358 
L 103.149358 164.685544 
L 104.23516 148.397731 
L 105.320961 152.378335 
L 106.406762 142.435736 
L 107.492563 142.620096 
L 108.578364 137.046729 
L 109.664165 122.706134 
L 110.749967 155.542107 
L 111.835768 152.542187 
L 112.921569 118.62889 
L 114.00737 128.638991 
L 115.093171 124.376408 
L 116.178972 151.562523 
L 117.264773 109.037109 
L 118.350575 145.539886 
L 119.436376 127.9753 
L 120.522177 149.54382 
L 121.607978 136.982244 
L 122.693779 83.536613 
L 123.77958 125.79853 
L 124.865382 102.33561 
L 125.951183 89.708881 
L 127.036984 107.842866 
L 128.122785 108.057078 
L 129.208586 122.282326 
L 130.294387 96.146957 
L 131.380189 93.74456 
L 132.46599 68.254992 
L 133.551791 79.267039 
L 134.637592 79.600698 
L 135.723393 88.716203 
L 136.809194 106.513669 
L 137.894995 105.784156 
L 138.980797 77.920595 
L 140.066598 103.832787 
L 141.152399 102.638171 
L 142.2382 88.373822 
L 143.324001 102.074365 
L 144.409802 110.035876 
L 145.495604 96.236806 
L 146.581405 86.318174 
L 147.667206 90.27679 
L 148.753007 82.502542 
L 149.838808 98.388755 
L 150.924609 100.229861 
L 152.01041 70.155891 
L 153.096212 85.979035 
L 154.182013 76.226808 
L 155.267814 78.075317 
L 156.353615 106.990993 
L 157.439416 104.120994 
L 158.525217 94.708555 
L 159.611019 95.64787 
L 160.69682 61.646872 
L 161.782621 73.36268 
L 162.868422 87.488528 
L 163.954223 58.982935 
L 165.040024 80.045732 
L 166.125825 107.399115 
L 167.211627 88.819159 
L 168.297428 107.172422 
L 169.383229 97.261141 
L 170.46903 101.182613 
L 171.554831 115.909874 
L 173.726434 80.198754 
L 174.812235 93.307318 
L 175.898036 98.299196 
L 176.983837 100.762769 
L 178.069638 89.472855 
L 179.155439 91.603284 
L 180.24124 72.765039 
L 181.327042 69.837492 
L 182.412843 81.298289 
L 183.498644 79.229267 
L 184.584445 70.863251 
L 185.670246 102.009628 
L 187.841849 79.794846 
L 190.013451 62.418011 
L 191.099252 85.140509 
L 192.185053 53.568 
L 193.270854 110.622997 
L 195.442457 76.00486 
L 196.528258 98.704181 
L 197.614059 77.775963 
L 198.69986 76.25858 
L 199.785661 90.754997 
L 200.871462 87.955158 
L 201.957264 113.34222 
L 203.043065 114.843218 
L 204.128866 81.69751 
L 205.214667 98.808908 
L 206.300468 101.519377 
L 207.386269 97.940824 
L 208.472071 100.075521 
L 209.557872 77.78543 
L 210.643673 75.945527 
L 211.729474 75.673879 
L 212.815275 131.491941 
L 213.901076 87.865239 
L 214.986877 93.038651 
L 216.072679 100.534497 
L 217.15848 101.331892 
L 218.244281 84.769536 
L 219.330082 109.307655 
L 220.415883 107.401964 
L 221.501684 102.604645 
L 222.587486 83.376203 
L 223.673287 88.42569 
L 224.759088 83.58171 
L 225.844889 95.620737 
L 226.93069 113.755304 
L 228.016491 113.661749 
L 229.102292 131.373895 
L 230.188094 111.703377 
L 231.273895 86.405353 
L 232.359696 100.267882 
L 233.445497 110.446926 
L 234.531298 69.181197 
L 235.617099 95.713227 
L 236.702901 80.33532 
L 237.788702 122.406524 
L 238.874503 81.068226 
L 239.960304 98.053168 
L 241.046105 102.863824 
L 242.131906 88.424181 
L 243.217708 90.673121 
L 244.303509 103.661677 
L 245.38931 103.923583 
L 246.475111 96.421926 
L 247.560912 99.496076 
L 248.646713 91.498477 
L 249.732514 95.423109 
L 250.818316 95.192621 
L 251.904117 86.57614 
L 252.989918 111.768061 
L 254.075719 75.469352 
L 255.16152 66.739619 
L 256.247321 83.001193 
L 257.333123 78.455351 
L 258.418924 84.206851 
L 259.504725 80.639978 
L 260.590526 89.265704 
L 261.676327 110.466286 
L 262.762128 100.058451 
L 263.847929 97.33255 
L 264.933731 57.327351 
L 266.019532 94.163783 
L 267.105333 91.326979 
L 268.191134 98.028788 
L 269.276935 120.350295 
L 270.362736 84.248497 
L 271.448538 130.913713 
L 272.534339 129.578824 
L 273.62014 119.36851 
L 274.705941 107.536318 
L 275.791742 89.461765 
L 276.877543 98.329725 
L 277.963344 84.81663 
L 279.049146 89.031683 
L 280.134947 117.387489 
L 281.220748 91.554543 
L 282.306549 108.270786 
L 283.39235 122.497745 
L 284.478151 124.93138 
L 285.563953 108.188853 
L 286.649754 129.157558 
L 287.735555 114.105627 
L 288.821356 128.075352 
L 289.907157 115.223813 
L 290.992958 108.363462 
L 292.07876 104.439407 
L 293.164561 116.832382 
L 294.250362 94.730248 
L 295.336163 111.82564 
L 296.421964 117.285437 
L 297.507765 117.252546 
L 298.593566 97.445742 
L 299.679368 97.190505 
L 300.765169 97.959463 
L 301.85097 108.415044 
L 302.936771 142.641679 
L 305.108373 66.411444 
L 307.279976 91.155653 
L 308.365777 94.833799 
L 309.451578 77.673148 
L 310.537379 92.884496 
L 311.62318 116.089924 
L 312.708981 104.7506 
L 313.794783 83.18667 
L 314.880584 87.587594 
L 315.966385 107.113033 
L 317.052186 118.559911 
L 318.137987 97.304041 
L 319.223788 103.134098 
L 320.30959 81.299171 
L 321.395391 93.406918 
L 322.481192 101.427893 
L 323.566993 80.459605 
L 324.652794 118.538601 
L 325.738595 110.300956 
L 326.824396 106.466812 
L 327.910198 80.304243 
L 328.995999 108.648552 
L 330.0818 122.844966 
L 331.167601 135.030366 
L 332.253402 138.046394 
L 333.339203 150.680058 
L 334.425005 139.351325 
L 335.510806 151.490176 
L 337.682408 115.379917 
L 338.768209 113.161728 
L 339.85401 119.628206 
L 340.939811 162.670395 
L 342.025613 129.288115 
L 343.111414 143.485267 
L 344.197215 170.872648 
L 345.283016 161.1231 
L 346.368817 131.401865 
L 347.454618 123.478329 
L 348.54042 146.443962 
L 349.626221 154.3123 
L 350.712022 133.33929 
L 351.797823 127.209794 
L 352.883624 147.032592 
L 353.969425 142.2036 
L 355.055227 171.73074 
L 356.141028 161.277215 
L 357.226829 145.368847 
L 358.31263 151.954836 
L 359.398431 151.606205 
L 360.484232 129.732477 
L 361.570033 126.645675 
L 362.655835 148.87195 
L 363.741636 138.992387 
L 364.827437 158.54919 
L 365.913238 150.284767 
L 366.999039 135.588046 
L 368.08484 134.672828 
L 369.170642 131.568909 
L 370.256443 122.577076 
L 371.342244 140.462845 
L 372.428045 162.69539 
L 373.513846 114.238085 
L 374.599647 156.673519 
L 375.685448 151.149689 
L 376.77125 150.448409 
L 377.857051 165.430776 
L 378.942852 134.8854 
L 380.028653 129.598008 
L 381.114454 131.322701 
L 382.200255 139.281084 
L 383.286057 151.956293 
L 384.371858 122.239266 
L 385.457659 129.133288 
L 386.54346 115.674108 
L 387.629261 110.186677 
L 388.715062 113.899699 
L 389.800863 103.338201 
L 390.886665 120.546958 
L 391.972466 117.682874 
L 393.058267 134.978777 
L 394.144068 139.1477 
L 395.229869 132.409693 
L 396.31567 161.955179 
L 397.401472 132.653464 
L 398.487273 140.71799 
L 398.487273 140.71799 
" style="fill:none;stroke:#ff0000;stroke-linecap:square;stroke-width:1.5;"/>
   </g>
   <g id="patch_3">
    <path d="M 57.6 307.584 
L 57.6 41.472 
" style="fill:none;stroke:#000000;stroke-linecap:square;stroke-linejoin:miter;stroke-width:0.8;"/>
   </g>
   <g id="patch_4">
    <path d="M 414.72 307.584 
L 414.72 41.472 
" style="fill:none;stroke:#000000;stroke-linecap:square;stroke-linejoin:miter;stroke-width:0.8;"/>
   </g>
   <g id="patch_5">
    <path d="M 57.6 307.584 
L 414.72 307.584 
" style="fill:none;stroke:#000000;stroke-linecap:square;stroke-linejoin:miter;stroke-width:0.8;"/>
   </g>
   <g id="patch_6">
    <path d="M 57.6 41.472 
L 414.72 41.472 
" style="fill:none;stroke:#000000;stroke-linecap:square;stroke-linejoin:miter;stroke-width:0.8;"/>
   </g>
   <g id="text_18">
    <!-- Population's average and best fitness -->
    <defs>
     <path d="M 19.671875 64.796875 
L 19.671875 37.40625 
L 32.078125 37.40625 
Q 38.96875 37.40625 42.71875 40.96875 
Q 46.484375 44.53125 46.484375 51.125 
Q 46.484375 57.671875 42.71875 61.234375 
Q 38.96875 64.796875 32.078125 64.796875 
z
M 9.8125 72.90625 
L 32.078125 72.90625 
Q 44.34375 72.90625 50.609375 67.359375 
Q 56.890625 61.8125 56.890625 51.125 
Q 56.890625 40.328125 50.609375 34.8125 
Q 44.34375 29.296875 32.078125 29.296875 
L 19.671875 29.296875 
L 19.671875 0 
L 9.8125 0 
z
" id="DejaVuSans-80"/>
     <path d="M 18.109375 8.203125 
L 18.109375 -20.796875 
L 9.078125 -20.796875 
L 9.078125 54.6875 
L 18.109375 54.6875 
L 18.109375 46.390625 
Q 20.953125 51.265625 25.265625 53.625 
Q 29.59375 56 35.59375 56 
Q 45.5625 56 51.78125 48.09375 
Q 58.015625 40.1875 58.015625 27.296875 
Q 58.015625 14.40625 51.78125 6.484375 
Q 45.5625 -1.421875 35.59375 -1.421875 
Q 29.59375 -1.421875 25.265625 0.953125 
Q 20.953125 3.328125 18.109375 8.203125 
z
M 48.6875 27.296875 
Q 48.6875 37.203125 44.609375 42.84375 
Q 40.53125 48.484375 33.40625 48.484375 
Q 26.265625 48.484375 22.1875 42.84375 
Q 18.109375 37.203125 18.109375 27.296875 
Q 18.109375 17.390625 22.1875 11.75 
Q 26.265625 6.109375 33.40625 6.109375 
Q 40.53125 6.109375 44.609375 11.75 
Q 48.6875 17.390625 48.6875 27.296875 
z
" id="DejaVuSans-112"/>
     <path d="M 8.5 21.578125 
L 8.5 54.6875 
L 17.484375 54.6875 
L 17.484375 21.921875 
Q 17.484375 14.15625 20.5 10.265625 
Q 23.53125 6.390625 29.59375 6.390625 
Q 36.859375 6.390625 41.078125 11.03125 
Q 45.3125 15.671875 45.3125 23.6875 
L 45.3125 54.6875 
L 54.296875 54.6875 
L 54.296875 0 
L 45.3125 0 
L 45.3125 8.40625 
Q 42.046875 3.421875 37.71875 1 
Q 33.40625 -1.421875 27.6875 -1.421875 
Q 18.265625 -1.421875 13.375 4.4375 
Q 8.5 10.296875 8.5 21.578125 
z
M 31.109375 56 
z
" id="DejaVuSans-117"/>
     <path d="M 9.421875 75.984375 
L 18.40625 75.984375 
L 18.40625 0 
L 9.421875 0 
z
" id="DejaVuSans-108"/>
     <path d="M 17.921875 72.90625 
L 17.921875 45.796875 
L 9.625 45.796875 
L 9.625 72.90625 
z
" id="DejaVuSans-39"/>
     <path id="DejaVuSans-32"/>
     <path d="M 2.984375 54.6875 
L 12.5 54.6875 
L 29.59375 8.796875 
L 46.6875 54.6875 
L 56.203125 54.6875 
L 35.6875 0 
L 23.484375 0 
z
" id="DejaVuSans-118"/>
     <path d="M 45.40625 27.984375 
Q 45.40625 37.75 41.375 43.109375 
Q 37.359375 48.484375 30.078125 48.484375 
Q 22.859375 48.484375 18.828125 43.109375 
Q 14.796875 37.75 14.796875 27.984375 
Q 14.796875 18.265625 18.828125 12.890625 
Q 22.859375 7.515625 30.078125 7.515625 
Q 37.359375 7.515625 41.375 12.890625 
Q 45.40625 18.265625 45.40625 27.984375 
z
M 54.390625 6.78125 
Q 54.390625 -7.171875 48.1875 -13.984375 
Q 42 -20.796875 29.203125 -20.796875 
Q 24.46875 -20.796875 20.265625 -20.09375 
Q 16.0625 -19.390625 12.109375 -17.921875 
L 12.109375 -9.1875 
Q 16.0625 -11.328125 19.921875 -12.34375 
Q 23.78125 -13.375 27.78125 -13.375 
Q 36.625 -13.375 41.015625 -8.765625 
Q 45.40625 -4.15625 45.40625 5.171875 
L 45.40625 9.625 
Q 42.625 4.78125 38.28125 2.390625 
Q 33.9375 0 27.875 0 
Q 17.828125 0 11.671875 7.65625 
Q 5.515625 15.328125 5.515625 27.984375 
Q 5.515625 40.671875 11.671875 48.328125 
Q 17.828125 56 27.875 56 
Q 33.9375 56 38.28125 53.609375 
Q 42.625 51.21875 45.40625 46.390625 
L 45.40625 54.6875 
L 54.390625 54.6875 
z
" id="DejaVuSans-103"/>
     <path d="M 45.40625 46.390625 
L 45.40625 75.984375 
L 54.390625 75.984375 
L 54.390625 0 
L 45.40625 0 
L 45.40625 8.203125 
Q 42.578125 3.328125 38.25 0.953125 
Q 33.9375 -1.421875 27.875 -1.421875 
Q 17.96875 -1.421875 11.734375 6.484375 
Q 5.515625 14.40625 5.515625 27.296875 
Q 5.515625 40.1875 11.734375 48.09375 
Q 17.96875 56 27.875 56 
Q 33.9375 56 38.25 53.625 
Q 42.578125 51.265625 45.40625 46.390625 
z
M 14.796875 27.296875 
Q 14.796875 17.390625 18.875 11.75 
Q 22.953125 6.109375 30.078125 6.109375 
Q 37.203125 6.109375 41.296875 11.75 
Q 45.40625 17.390625 45.40625 27.296875 
Q 45.40625 37.203125 41.296875 42.84375 
Q 37.203125 48.484375 30.078125 48.484375 
Q 22.953125 48.484375 18.875 42.84375 
Q 14.796875 37.203125 14.796875 27.296875 
z
" id="DejaVuSans-100"/>
     <path d="M 48.6875 27.296875 
Q 48.6875 37.203125 44.609375 42.84375 
Q 40.53125 48.484375 33.40625 48.484375 
Q 26.265625 48.484375 22.1875 42.84375 
Q 18.109375 37.203125 18.109375 27.296875 
Q 18.109375 17.390625 22.1875 11.75 
Q 26.265625 6.109375 33.40625 6.109375 
Q 40.53125 6.109375 44.609375 11.75 
Q 48.6875 17.390625 48.6875 27.296875 
z
M 18.109375 46.390625 
Q 20.953125 51.265625 25.265625 53.625 
Q 29.59375 56 35.59375 56 
Q 45.5625 56 51.78125 48.09375 
Q 58.015625 40.1875 58.015625 27.296875 
Q 58.015625 14.40625 51.78125 6.484375 
Q 45.5625 -1.421875 35.59375 -1.421875 
Q 29.59375 -1.421875 25.265625 0.953125 
Q 20.953125 3.328125 18.109375 8.203125 
L 18.109375 0 
L 9.078125 0 
L 9.078125 75.984375 
L 18.109375 75.984375 
z
" id="DejaVuSans-98"/>
     <path d="M 37.109375 75.984375 
L 37.109375 68.5 
L 28.515625 68.5 
Q 23.6875 68.5 21.796875 66.546875 
Q 19.921875 64.59375 19.921875 59.515625 
L 19.921875 54.6875 
L 34.71875 54.6875 
L 34.71875 47.703125 
L 19.921875 47.703125 
L 19.921875 0 
L 10.890625 0 
L 10.890625 47.703125 
L 2.296875 47.703125 
L 2.296875 54.6875 
L 10.890625 54.6875 
L 10.890625 58.5 
Q 10.890625 67.625 15.140625 71.796875 
Q 19.390625 75.984375 28.609375 75.984375 
z
" id="DejaVuSans-102"/>
    </defs>
    <g transform="translate(123.315 35.472)scale(0.12 -0.12)">
     <use xlink:href="#DejaVuSans-80"/>
     <use x="60.255859" xlink:href="#DejaVuSans-111"/>
     <use x="121.4375" xlink:href="#DejaVuSans-112"/>
     <use x="184.914062" xlink:href="#DejaVuSans-117"/>
     <use x="248.292969" xlink:href="#DejaVuSans-108"/>
     <use x="276.076172" xlink:href="#DejaVuSans-97"/>
     <use x="337.355469" xlink:href="#DejaVuSans-116"/>
     <use x="376.564453" xlink:href="#DejaVuSans-105"/>
     <use x="404.347656" xlink:href="#DejaVuSans-111"/>
     <use x="465.529297" xlink:href="#DejaVuSans-110"/>
     <use x="528.908203" xlink:href="#DejaVuSans-39"/>
     <use x="556.398438" xlink:href="#DejaVuSans-115"/>
     <use x="608.498047" xlink:href="#DejaVuSans-32"/>
     <use x="640.285156" xlink:href="#DejaVuSans-97"/>
     <use x="701.564453" xlink:href="#DejaVuSans-118"/>
     <use x="760.744141" xlink:href="#DejaVuSans-101"/>
     <use x="822.267578" xlink:href="#DejaVuSans-114"/>
     <use x="863.380859" xlink:href="#DejaVuSans-97"/>
     <use x="924.660156" xlink:href="#DejaVuSans-103"/>
     <use x="988.136719" xlink:href="#DejaVuSans-101"/>
     <use x="1049.660156" xlink:href="#DejaVuSans-32"/>
     <use x="1081.447266" xlink:href="#DejaVuSans-97"/>
     <use x="1142.726562" xlink:href="#DejaVuSans-110"/>
     <use x="1206.105469" xlink:href="#DejaVuSans-100"/>
     <use x="1269.582031" xlink:href="#DejaVuSans-32"/>
     <use x="1301.369141" xlink:href="#DejaVuSans-98"/>
     <use x="1364.845703" xlink:href="#DejaVuSans-101"/>
     <use x="1426.369141" xlink:href="#DejaVuSans-115"/>
     <use x="1478.46875" xlink:href="#DejaVuSans-116"/>
     <use x="1517.677734" xlink:href="#DejaVuSans-32"/>
     <use x="1549.464844" xlink:href="#DejaVuSans-102"/>
     <use x="1584.669922" xlink:href="#DejaVuSans-105"/>
     <use x="1612.453125" xlink:href="#DejaVuSans-116"/>
     <use x="1651.662109" xlink:href="#DejaVuSans-110"/>
     <use x="1715.041016" xlink:href="#DejaVuSans-101"/>
     <use x="1776.564453" xlink:href="#DejaVuSans-115"/>
     <use x="1828.664062" xlink:href="#DejaVuSans-115"/>
    </g>
   </g>
   <g id="legend_1">
    <g id="patch_7">
     <path d="M 334.779375 108.1845 
L 407.72 108.1845 
Q 409.72 108.1845 409.72 106.1845 
L 409.72 48.472 
Q 409.72 46.472 407.72 46.472 
L 334.779375 46.472 
Q 332.779375 46.472 332.779375 48.472 
L 332.779375 106.1845 
Q 332.779375 108.1845 334.779375 108.1845 
z
" style="fill:#ffffff;opacity:0.8;stroke:#cccccc;stroke-linejoin:miter;"/>
    </g>
    <g id="line2d_35">
     <path d="M 336.779375 54.570438 
L 356.779375 54.570438 
" style="fill:none;stroke:#0000ff;stroke-linecap:square;stroke-width:1.5;"/>
    </g>
    <g id="line2d_36"/>
    <g id="text_19">
     <!-- average -->
     <g transform="translate(364.779375 58.070438)scale(0.1 -0.1)">
      <use xlink:href="#DejaVuSans-97"/>
      <use x="61.279297" xlink:href="#DejaVuSans-118"/>
      <use x="120.458984" xlink:href="#DejaVuSans-101"/>
      <use x="181.982422" xlink:href="#DejaVuSans-114"/>
      <use x="223.095703" xlink:href="#DejaVuSans-97"/>
      <use x="284.375" xlink:href="#DejaVuSans-103"/>
      <use x="347.851562" xlink:href="#DejaVuSans-101"/>
     </g>
    </g>
    <g id="line2d_37">
     <path d="M 336.779375 69.248563 
L 356.779375 69.248563 
" style="fill:none;stroke:#008000;stroke-dasharray:9.6,2.4,1.5,2.4;stroke-dashoffset:0;stroke-width:1.5;"/>
    </g>
    <g id="line2d_38"/>
    <g id="text_20">
     <!-- -1 sd -->
     <defs>
      <path d="M 4.890625 31.390625 
L 31.203125 31.390625 
L 31.203125 23.390625 
L 4.890625 23.390625 
z
" id="DejaVuSans-45"/>
     </defs>
     <g transform="translate(364.779375 72.748563)scale(0.1 -0.1)">
      <use xlink:href="#DejaVuSans-45"/>
      <use x="36.083984" xlink:href="#DejaVuSans-49"/>
      <use x="99.707031" xlink:href="#DejaVuSans-32"/>
      <use x="131.494141" xlink:href="#DejaVuSans-115"/>
      <use x="183.59375" xlink:href="#DejaVuSans-100"/>
     </g>
    </g>
    <g id="line2d_39">
     <path d="M 336.779375 83.926688 
L 356.779375 83.926688 
" style="fill:none;stroke:#008000;stroke-dasharray:9.6,2.4,1.5,2.4;stroke-dashoffset:0;stroke-width:1.5;"/>
    </g>
    <g id="line2d_40"/>
    <g id="text_21">
     <!-- +1 sd -->
     <defs>
      <path d="M 46 62.703125 
L 46 35.5 
L 73.1875 35.5 
L 73.1875 27.203125 
L 46 27.203125 
L 46 0 
L 37.796875 0 
L 37.796875 27.203125 
L 10.59375 27.203125 
L 10.59375 35.5 
L 37.796875 35.5 
L 37.796875 62.703125 
z
" id="DejaVuSans-43"/>
     </defs>
     <g transform="translate(364.779375 87.426688)scale(0.1 -0.1)">
      <use xlink:href="#DejaVuSans-43"/>
      <use x="83.789062" xlink:href="#DejaVuSans-49"/>
      <use x="147.412109" xlink:href="#DejaVuSans-32"/>
      <use x="179.199219" xlink:href="#DejaVuSans-115"/>
      <use x="231.298828" xlink:href="#DejaVuSans-100"/>
     </g>
    </g>
    <g id="line2d_41">
     <path d="M 336.779375 98.604813 
L 356.779375 98.604813 
" style="fill:none;stroke:#ff0000;stroke-linecap:square;stroke-width:1.5;"/>
    </g>
    <g id="line2d_42"/>
    <g id="text_22">
     <!-- best -->
     <g transform="translate(364.779375 102.104813)scale(0.1 -0.1)">
      <use xlink:href="#DejaVuSans-98"/>
      <use x="63.476562" xlink:href="#DejaVuSans-101"/>
      <use x="125" xlink:href="#DejaVuSans-115"/>
      <use x="177.099609" xlink:href="#DejaVuSans-116"/>
     </g>
    </g>
   </g>
  </g>
 </g>
 <defs>
  <clipPath id="pebe357a46f">
   <rect height="266.112" width="357.12" x="57.6" y="41.472"/>
  </clipPath>
 </defs>
</svg>
