<?xml version="1.0" encoding="UTF-8" standalone="no"?>
<!DOCTYPE svg PUBLIC "-//W3C//DTD SVG 1.1//EN"
 "http://www.w3.org/Graphics/SVG/1.1/DTD/svg11.dtd">
<!-- Generated by graphviz version 2.40.1 (20161225.0304)
 -->
<!-- Title: %3 Pages: 1 -->
<svg width="485pt" height="182pt"
 viewBox="0.00 0.00 484.77 181.85" xmlns="http://www.w3.org/2000/svg" xmlns:xlink="http://www.w3.org/1999/xlink">
<g id="graph0" class="graph" transform="scale(1 1) rotate(0) translate(4 177.8494)">
<title>%3</title>
<polygon fill="#ffffff" stroke="transparent" points="-4,4 -4,-177.8494 480.7661,-177.8494 480.7661,4 -4,4"/>
<!-- 0 -->
<g id="node1" class="node">
<title>0</title>
<polygon fill="#d3d3d3" stroke="#000000" points="283.389,-173.8494 263.3771,-173.8494 263.3771,-156.8494 283.389,-156.8494 283.389,-173.8494"/>
<text text-anchor="middle" x="273.383" y="-162.6494" font-family="Times,serif" font-size="9.00" fill="#000000">0</text>
</g>
<!-- 1 -->
<g id="node2" class="node">
<title>1</title>
<polygon fill="#d3d3d3" stroke="#000000" points="322.389,-173.8494 302.3771,-173.8494 302.3771,-156.8494 322.389,-156.8494 322.389,-173.8494"/>
<text text-anchor="middle" x="312.383" y="-162.6494" font-family="Times,serif" font-size="9.00" fill="#000000">1</text>
</g>
<!-- 0&#45;&gt;1 -->
<!-- E6 -->
<g id="node10" class="node">
<title>E6</title>
<ellipse fill="#87cefa" stroke="#000000" cx="348.383" cy="-18.383" rx="18.2668" ry="18.2668"/>
<text text-anchor="middle" x="348.383" y="-15.683" font-family="Times,serif" font-size="9.00" fill="#000000">E6</text>
</g>
<!-- 0&#45;&gt;E6 -->
<g id="edge11" class="edge">
<title>0&#45;&gt;E6</title>
<path fill="none" stroke="#ff0000" stroke-width="2.3596" d="M277.85,-156.5961C288.9291,-134.8862 318.0131,-77.8945 335.1767,-44.2616"/>
<polygon fill="#ff0000" stroke="#ff0000" stroke-width="2.3596" points="338.4541,-45.539 339.8822,-35.0409 332.2191,-42.3571 338.4541,-45.539"/>
</g>
<!-- 2 -->
<g id="node3" class="node">
<title>2</title>
<polygon fill="#d3d3d3" stroke="#000000" points="361.389,-173.8494 341.3771,-173.8494 341.3771,-156.8494 361.389,-156.8494 361.389,-173.8494"/>
<text text-anchor="middle" x="351.383" y="-162.6494" font-family="Times,serif" font-size="9.00" fill="#000000">2</text>
</g>
<!-- 1&#45;&gt;2 -->
<!-- E4 -->
<g id="node8" class="node">
<title>E4</title>
<ellipse fill="#87cefa" stroke="#000000" cx="238.383" cy="-18.383" rx="18.2668" ry="18.2668"/>
<text text-anchor="middle" x="238.383" y="-15.683" font-family="Times,serif" font-size="9.00" fill="#000000">E4</text>
</g>
<!-- 1&#45;&gt;E4 -->
<g id="edge12" class="edge">
<title>1&#45;&gt;E4</title>
<path fill="none" stroke="#ff0000" stroke-width="3.3058" d="M307.9756,-156.5961C297.0443,-134.8862 268.3481,-77.8945 251.4133,-44.2616"/>
<polygon fill="#ff0000" stroke="#ff0000" stroke-width="3.3058" points="254.3939,-42.3985 246.7705,-35.0409 248.1418,-45.5466 254.3939,-42.3985"/>
</g>
<!-- 5548 -->
<g id="node13" class="node">
<title>5548</title>
<ellipse fill="#add8e6" stroke="#000000" cx="403.383" cy="-96.8077" rx="24.0833" ry="24.0833"/>
<text text-anchor="middle" x="403.383" y="-98.6077" font-family="Times,serif" font-size="9.00" fill="#000000">5548</text>
<text text-anchor="middle" x="403.383" y="-89.6077" font-family="Times,serif" font-size="9.00" fill="#000000">sigm</text>
</g>
<!-- 1&#45;&gt;5548 -->
<g id="edge15" class="edge">
<title>1&#45;&gt;5548</title>
<path fill="none" stroke="#00ff00" stroke-width=".2006" d="M322.4693,-157.7523C335.195,-148.1673 357.5931,-131.297 375.602,-117.7325"/>
<polygon fill="#00ff00" stroke="#00ff00" stroke-width=".2006" points="378.1466,-120.1977 384.0286,-111.3856 373.9352,-114.6063 378.1466,-120.1977"/>
</g>
<!-- E2 -->
<g id="node6" class="node">
<title>E2</title>
<ellipse fill="#87cefa" stroke="#000000" cx="128.383" cy="-18.383" rx="18.2668" ry="18.2668"/>
<text text-anchor="middle" x="128.383" y="-15.683" font-family="Times,serif" font-size="9.00" fill="#000000">E2</text>
</g>
<!-- 2&#45;&gt;E2 -->
<g id="edge13" class="edge">
<title>2&#45;&gt;E2</title>
<path fill="none" stroke="#00ff00" stroke-width="1.5309" d="M341.2217,-158.6526C307.8422,-136.6541 200.9385,-66.2001 152.5649,-34.3199"/>
<polygon fill="#00ff00" stroke="#00ff00" stroke-width="1.5309" points="154.2525,-31.2404 143.9767,-28.6599 150.4005,-37.0853 154.2525,-31.2404"/>
</g>
<!-- 2&#45;&gt;E4 -->
<g id="edge14" class="edge">
<title>2&#45;&gt;E4</title>
<path fill="none" stroke="#ff0000" stroke-width=".2842" d="M346.1879,-156.5977C336.0579,-139.7722 312.6172,-101.9911 289.383,-72.7661 279.9763,-60.9339 268.5389,-48.5799 258.881,-38.6424"/>
<polygon fill="#ff0000" stroke="#ff0000" stroke-width=".2842" points="261.103,-35.9109 251.5899,-31.2469 256.1182,-40.8253 261.103,-35.9109"/>
</g>
<!-- E0 -->
<g id="node4" class="node">
<title>E0</title>
<ellipse fill="#87cefa" stroke="#000000" cx="18.383" cy="-18.383" rx="18.2668" ry="18.2668"/>
<text text-anchor="middle" x="18.383" y="-15.683" font-family="Times,serif" font-size="9.00" fill="#000000">E0</text>
</g>
<!-- E1 -->
<g id="node5" class="node">
<title>E1</title>
<ellipse fill="#87cefa" stroke="#000000" cx="73.383" cy="-18.383" rx="18.2668" ry="18.2668"/>
<text text-anchor="middle" x="73.383" y="-15.683" font-family="Times,serif" font-size="9.00" fill="#000000">E1</text>
</g>
<!-- E0&#45;&gt;E1 -->
<!-- E1&#45;&gt;E2 -->
<!-- E3 -->
<g id="node7" class="node">
<title>E3</title>
<ellipse fill="#87cefa" stroke="#000000" cx="183.383" cy="-18.383" rx="18.2668" ry="18.2668"/>
<text text-anchor="middle" x="183.383" y="-15.683" font-family="Times,serif" font-size="9.00" fill="#000000">E3</text>
</g>
<!-- E2&#45;&gt;E3 -->
<!-- E3&#45;&gt;E4 -->
<!-- E5 -->
<g id="node9" class="node">
<title>E5</title>
<ellipse fill="#87cefa" stroke="#000000" cx="293.383" cy="-18.383" rx="18.2668" ry="18.2668"/>
<text text-anchor="middle" x="293.383" y="-15.683" font-family="Times,serif" font-size="9.00" fill="#000000">E5</text>
</g>
<!-- E4&#45;&gt;E5 -->
<!-- E5&#45;&gt;E6 -->
<!-- E7 -->
<g id="node11" class="node">
<title>E7</title>
<ellipse fill="#87cefa" stroke="#000000" cx="403.383" cy="-18.383" rx="18.2668" ry="18.2668"/>
<text text-anchor="middle" x="403.383" y="-15.683" font-family="Times,serif" font-size="9.00" fill="#000000">E7</text>
</g>
<!-- E6&#45;&gt;E7 -->
<!-- E8 -->
<g id="node12" class="node">
<title>E8</title>
<ellipse fill="#87cefa" stroke="#000000" cx="458.383" cy="-18.383" rx="18.2668" ry="18.2668"/>
<text text-anchor="middle" x="458.383" y="-15.683" font-family="Times,serif" font-size="9.00" fill="#000000">E8</text>
</g>
<!-- E7&#45;&gt;E8 -->
<!-- 5548&#45;&gt;E7 -->
<g id="edge17" class="edge">
<title>5548&#45;&gt;E7</title>
<path fill="none" stroke="#00ff00" stroke-width=".3213" d="M403.383,-72.4236C403.383,-64.33 403.383,-55.248 403.383,-46.8729"/>
<polygon fill="#00ff00" stroke="#00ff00" stroke-width=".3213" points="406.8831,-46.7701 403.383,-36.7702 399.8831,-46.7702 406.8831,-46.7701"/>
</g>
<!-- 5548&#45;&gt;E8 -->
<g id="edge16" class="edge">
<title>5548&#45;&gt;E8</title>
<path fill="none" stroke="#ff0000" stroke-width=".1034" d="M417.2619,-77.0179C424.6945,-66.4197 433.9031,-53.289 441.7207,-42.1419"/>
<polygon fill="#ff0000" stroke="#ff0000" stroke-width=".1034" points="444.7553,-43.9106 447.6316,-33.7136 439.0242,-39.8913 444.7553,-43.9106"/>
</g>
</g>
</svg>
