<?xml version="1.0" encoding="UTF-8" standalone="no"?>
<!DOCTYPE svg PUBLIC "-//W3C//DTD SVG 1.1//EN"
 "http://www.w3.org/Graphics/SVG/1.1/DTD/svg11.dtd">
<!-- Generated by graphviz version 2.40.1 (20161225.0304)
 -->
<!-- Title: %3 Pages: 1 -->
<svg width="485pt" height="518pt"
 viewBox="0.00 0.00 484.77 518.18" xmlns="http://www.w3.org/2000/svg" xmlns:xlink="http://www.w3.org/1999/xlink">
<g id="graph0" class="graph" transform="scale(1 1) rotate(0) translate(4 514.1824)">
<title>%3</title>
<polygon fill="#ffffff" stroke="transparent" points="-4,4 -4,-514.1824 480.7661,-514.1824 480.7661,4 -4,4"/>
<!-- 0 -->
<g id="node1" class="node">
<title>0</title>
<polygon fill="#d3d3d3" stroke="#000000" points="209.389,-510.1824 189.3771,-510.1824 189.3771,-493.1824 209.389,-493.1824 209.389,-510.1824"/>
<text text-anchor="middle" x="199.383" y="-498.9824" font-family="Times,serif" font-size="9.00" fill="#000000">0</text>
</g>
<!-- 1 -->
<g id="node2" class="node">
<title>1</title>
<polygon fill="#d3d3d3" stroke="#000000" points="248.389,-510.1824 228.3771,-510.1824 228.3771,-493.1824 248.389,-493.1824 248.389,-510.1824"/>
<text text-anchor="middle" x="238.383" y="-498.9824" font-family="Times,serif" font-size="9.00" fill="#000000">1</text>
</g>
<!-- 0&#45;&gt;1 -->
<!-- E3 -->
<g id="node7" class="node">
<title>E3</title>
<ellipse fill="#87cefa" stroke="#000000" cx="183.383" cy="-18.383" rx="18.2668" ry="18.2668"/>
<text text-anchor="middle" x="183.383" y="-15.683" font-family="Times,serif" font-size="9.00" fill="#000000">E3</text>
</g>
<!-- 0&#45;&gt;E3 -->
<g id="edge12" class="edge">
<title>0&#45;&gt;E3</title>
<path fill="none" stroke="#ff0000" stroke-width="1.7295" d="M195.7001,-492.9178C186.3414,-469.8252 162.383,-405.2232 162.383,-349.0575 162.383,-349.0575 162.383,-349.0575 162.383,-180.891 162.383,-133.6077 171.2354,-79.2192 177.4451,-46.8835"/>
<polygon fill="#ff0000" stroke="#ff0000" stroke-width="1.7295" points="180.9316,-47.2934 179.4331,-36.8051 174.064,-45.9387 180.9316,-47.2934"/>
</g>
<!-- 4941 -->
<g id="node15" class="node">
<title>4941</title>
<ellipse fill="#add8e6" stroke="#000000" cx="328.383" cy="-349.0575" rx="24.0833" ry="24.0833"/>
<text text-anchor="middle" x="328.383" y="-350.8575" font-family="Times,serif" font-size="9.00" fill="#000000">4941</text>
<text text-anchor="middle" x="328.383" y="-341.8575" font-family="Times,serif" font-size="9.00" fill="#000000">sigm</text>
</g>
<!-- 0&#45;&gt;4941 -->
<g id="edge15" class="edge">
<title>0&#45;&gt;4941</title>
<path fill="none" stroke="#00ff00" stroke-width=".4399" d="M206.6883,-493.0393C225.5374,-470.7382 276.4074,-410.5519 306.0706,-375.4563"/>
<polygon fill="#00ff00" stroke="#00ff00" stroke-width=".4399" points="308.9863,-377.4285 312.7685,-367.5317 303.6401,-372.9098 308.9863,-377.4285"/>
</g>
<!-- 2 -->
<g id="node3" class="node">
<title>2</title>
<polygon fill="#d3d3d3" stroke="#000000" points="287.389,-510.1824 267.3771,-510.1824 267.3771,-493.1824 287.389,-493.1824 287.389,-510.1824"/>
<text text-anchor="middle" x="277.383" y="-498.9824" font-family="Times,serif" font-size="9.00" fill="#000000">2</text>
</g>
<!-- 1&#45;&gt;2 -->
<!-- E4 -->
<g id="node8" class="node">
<title>E4</title>
<ellipse fill="#87cefa" stroke="#000000" cx="238.383" cy="-18.383" rx="18.2668" ry="18.2668"/>
<text text-anchor="middle" x="238.383" y="-15.683" font-family="Times,serif" font-size="9.00" fill="#000000">E4</text>
</g>
<!-- 1&#45;&gt;E4 -->
<g id="edge11" class="edge">
<title>1&#45;&gt;E4</title>
<path fill="none" stroke="#ff0000" stroke-width="2.6422" d="M238.383,-493.0766C238.383,-469.8444 238.383,-403.9071 238.383,-349.0575 238.383,-349.0575 238.383,-349.0575 238.383,-180.891 238.383,-133.9976 238.383,-79.4927 238.383,-47.0274"/>
<polygon fill="#ff0000" stroke="#ff0000" stroke-width="2.6422" points="241.8831,-46.9052 238.383,-36.9052 234.8831,-46.9053 241.8831,-46.9052"/>
</g>
<!-- 4595 -->
<g id="node18" class="node">
<title>4595</title>
<ellipse fill="#add8e6" stroke="#000000" cx="70.383" cy="-180.891" rx="24.0833" ry="24.0833"/>
<text text-anchor="middle" x="70.383" y="-182.691" font-family="Times,serif" font-size="9.00" fill="#000000">4595</text>
<text text-anchor="middle" x="70.383" y="-173.691" font-family="Times,serif" font-size="9.00" fill="#000000">sigm</text>
</g>
<!-- 1&#45;&gt;4595 -->
<g id="edge17" class="edge">
<title>1&#45;&gt;4595</title>
<path fill="none" stroke="#00ff00" stroke-width=".2066" d="M228.255,-495.3036C216.6926,-487.5585 197.8958,-473.4902 186.383,-457.1824 127.0104,-373.0812 146.7206,-334.3134 103.383,-240.9326 98.6778,-230.7941 92.9805,-220.0087 87.6534,-210.4174"/>
<polygon fill="#00ff00" stroke="#00ff00" stroke-width=".2066" points="90.6671,-208.6361 82.7039,-201.6476 84.5709,-212.0767 90.6671,-208.6361"/>
</g>
<!-- 5076 -->
<g id="node19" class="node">
<title>5076</title>
<ellipse fill="#add8e6" stroke="#000000" cx="290.383" cy="-264.9743" rx="24.0833" ry="24.0833"/>
<text text-anchor="middle" x="290.383" y="-266.7743" font-family="Times,serif" font-size="9.00" fill="#000000">5076</text>
<text text-anchor="middle" x="290.383" y="-257.7743" font-family="Times,serif" font-size="9.00" fill="#000000">sigm</text>
</g>
<!-- 1&#45;&gt;5076 -->
<g id="edge20" class="edge">
<title>1&#45;&gt;5076</title>
<path fill="none" stroke="#ff0000" stroke-width=".2614" d="M241.4603,-492.8992C244.5099,-483.9819 249.1772,-469.738 252.383,-457.1824 266.3828,-402.3538 278.2345,-337.6167 284.8179,-299.0027"/>
<polygon fill="#ff0000" stroke="#ff0000" stroke-width=".2614" points="288.321,-299.2771 286.5324,-288.8343 281.4184,-298.1131 288.321,-299.2771"/>
</g>
<!-- E1 -->
<g id="node5" class="node">
<title>E1</title>
<ellipse fill="#87cefa" stroke="#000000" cx="73.383" cy="-18.383" rx="18.2668" ry="18.2668"/>
<text text-anchor="middle" x="73.383" y="-15.683" font-family="Times,serif" font-size="9.00" fill="#000000">E1</text>
</g>
<!-- 2&#45;&gt;E1 -->
<g id="edge13" class="edge">
<title>2&#45;&gt;E1</title>
<path fill="none" stroke="#ff0000" stroke-width="2.1821" d="M269.4327,-493.1677C249.7593,-471.1697 200.383,-409.8985 200.383,-349.0575 200.383,-349.0575 200.383,-349.0575 200.383,-180.891 200.383,-146.9361 130.679,-74.0992 94.5506,-38.6275"/>
<polygon fill="#ff0000" stroke="#ff0000" stroke-width="2.1821" points="96.5816,-35.7201 86.9743,-31.2535 91.6992,-40.7364 96.5816,-35.7201"/>
</g>
<!-- 2&#45;&gt;E3 -->
<g id="edge18" class="edge">
<title>2&#45;&gt;E3</title>
<path fill="none" stroke="#00ff00" stroke-width=".3166" d="M287.6356,-494.0263C313.6883,-473.6088 380.383,-414.9091 380.383,-349.0575 380.383,-349.0575 380.383,-349.0575 380.383,-180.891 380.383,-158.6254 259.0847,-71.242 206.8495,-34.6441"/>
<polygon fill="#00ff00" stroke="#00ff00" stroke-width=".3166" points="208.7172,-31.6794 198.5142,-28.8247 204.7101,-37.419 208.7172,-31.6794"/>
</g>
<!-- E0 -->
<g id="node4" class="node">
<title>E0</title>
<ellipse fill="#87cefa" stroke="#000000" cx="18.383" cy="-18.383" rx="18.2668" ry="18.2668"/>
<text text-anchor="middle" x="18.383" y="-15.683" font-family="Times,serif" font-size="9.00" fill="#000000">E0</text>
</g>
<!-- E0&#45;&gt;E1 -->
<!-- E2 -->
<g id="node6" class="node">
<title>E2</title>
<ellipse fill="#87cefa" stroke="#000000" cx="128.383" cy="-18.383" rx="18.2668" ry="18.2668"/>
<text text-anchor="middle" x="128.383" y="-15.683" font-family="Times,serif" font-size="9.00" fill="#000000">E2</text>
</g>
<!-- E1&#45;&gt;E2 -->
<!-- E2&#45;&gt;E3 -->
<!-- E3&#45;&gt;E4 -->
<!-- E5 -->
<g id="node9" class="node">
<title>E5</title>
<ellipse fill="#87cefa" stroke="#000000" cx="293.383" cy="-18.383" rx="18.2668" ry="18.2668"/>
<text text-anchor="middle" x="293.383" y="-15.683" font-family="Times,serif" font-size="9.00" fill="#000000">E5</text>
</g>
<!-- E4&#45;&gt;E5 -->
<!-- E6 -->
<g id="node10" class="node">
<title>E6</title>
<ellipse fill="#87cefa" stroke="#000000" cx="348.383" cy="-18.383" rx="18.2668" ry="18.2668"/>
<text text-anchor="middle" x="348.383" y="-15.683" font-family="Times,serif" font-size="9.00" fill="#000000">E6</text>
</g>
<!-- E5&#45;&gt;E6 -->
<!-- E7 -->
<g id="node11" class="node">
<title>E7</title>
<ellipse fill="#87cefa" stroke="#000000" cx="403.383" cy="-18.383" rx="18.2668" ry="18.2668"/>
<text text-anchor="middle" x="403.383" y="-15.683" font-family="Times,serif" font-size="9.00" fill="#000000">E7</text>
</g>
<!-- E6&#45;&gt;E7 -->
<!-- E8 -->
<g id="node12" class="node">
<title>E8</title>
<ellipse fill="#87cefa" stroke="#000000" cx="458.383" cy="-18.383" rx="18.2668" ry="18.2668"/>
<text text-anchor="middle" x="458.383" y="-15.683" font-family="Times,serif" font-size="9.00" fill="#000000">E8</text>
</g>
<!-- E7&#45;&gt;E8 -->
<!-- 4544 -->
<g id="node13" class="node">
<title>4544</title>
<ellipse fill="#add8e6" stroke="#000000" cx="70.383" cy="-264.9743" rx="24.0833" ry="24.0833"/>
<text text-anchor="middle" x="70.383" y="-266.7743" font-family="Times,serif" font-size="9.00" fill="#000000">4544</text>
<text text-anchor="middle" x="70.383" y="-257.7743" font-family="Times,serif" font-size="9.00" fill="#000000">sigm</text>
</g>
<!-- 4544&#45;&gt;4595 -->
<g id="edge25" class="edge">
<title>4544&#45;&gt;4595</title>
<path fill="none" stroke="#ff0000" stroke-width=".4397" d="M70.383,-240.6539C70.383,-232.7231 70.383,-223.7624 70.383,-215.2386"/>
<polygon fill="#ff0000" stroke="#ff0000" stroke-width=".4397" points="73.8831,-215.1567 70.383,-205.1567 66.8831,-215.1567 73.8831,-215.1567"/>
</g>
<!-- 4447 -->
<g id="node14" class="node">
<title>4447</title>
<ellipse fill="#add8e6" stroke="#000000" cx="44.383" cy="-349.0575" rx="24.0833" ry="24.0833"/>
<text text-anchor="middle" x="44.383" y="-350.8575" font-family="Times,serif" font-size="9.00" fill="#000000">4447</text>
<text text-anchor="middle" x="44.383" y="-341.8575" font-family="Times,serif" font-size="9.00" fill="#000000">sigm</text>
</g>
<!-- 4447&#45;&gt;E0 -->
<g id="edge21" class="edge">
<title>4447&#45;&gt;E0</title>
<path fill="none" stroke="#ff0000" stroke-width=".5509" d="M41.3375,-325.1262C40.0047,-314.1371 38.495,-300.9278 37.383,-289.0159 29.162,-200.9455 22.7779,-96.4498 19.9597,-47.0219"/>
<polygon fill="#ff0000" stroke="#ff0000" stroke-width=".5509" points="23.4399,-46.57 19.3822,-36.783 16.451,-46.9642 23.4399,-46.57"/>
</g>
<!-- 4447&#45;&gt;4544 -->
<g id="edge19" class="edge">
<title>4447&#45;&gt;4544</title>
<path fill="none" stroke="#ff0000" stroke-width=".2255" d="M51.4877,-326.0814C54.1597,-317.44 57.2534,-307.4352 60.154,-298.0546"/>
<polygon fill="#ff0000" stroke="#ff0000" stroke-width=".2255" points="63.5862,-298.8024 63.1967,-288.2148 56.8987,-296.7345 63.5862,-298.8024"/>
</g>
<!-- 4941&#45;&gt;E8 -->
<g id="edge24" class="edge">
<title>4941&#45;&gt;E8</title>
<path fill="none" stroke="#ff0000" stroke-width=".6353" d="M336.034,-326.1457C343.4669,-304.1696 355.233,-270.1136 366.383,-240.9326 393.7482,-169.3146 429.116,-86.1047 446.9797,-44.6591"/>
<polygon fill="#ff0000" stroke="#ff0000" stroke-width=".6353" points="450.2748,-45.857 451.0272,-35.2889 443.8487,-43.0812 450.2748,-45.857"/>
</g>
<!-- 5455 -->
<g id="node16" class="node">
<title>5455</title>
<ellipse fill="#add8e6" stroke="#000000" cx="70.383" cy="-96.8077" rx="24.0833" ry="24.0833"/>
<text text-anchor="middle" x="70.383" y="-98.6077" font-family="Times,serif" font-size="9.00" fill="#000000">5455</text>
<text text-anchor="middle" x="70.383" y="-89.6077" font-family="Times,serif" font-size="9.00" fill="#000000">sigm</text>
</g>
<!-- 5455&#45;&gt;E0 -->
<g id="edge23" class="edge">
<title>5455&#45;&gt;E0</title>
<path fill="none" stroke="#00ff00" stroke-width=".8786" d="M56.9918,-76.6114C50.127,-66.2582 41.7149,-53.5713 34.4971,-42.6857"/>
<polygon fill="#00ff00" stroke="#00ff00" stroke-width=".8786" points="37.2184,-40.4564 28.7752,-34.0561 31.3844,-44.3247 37.2184,-40.4564"/>
</g>
<!-- 3228 -->
<g id="node17" class="node">
<title>3228</title>
<ellipse fill="#add8e6" stroke="#000000" cx="44.383" cy="-433.1408" rx="24.0833" ry="24.0833"/>
<text text-anchor="middle" x="44.383" y="-434.9408" font-family="Times,serif" font-size="9.00" fill="#000000">3228</text>
<text text-anchor="middle" x="44.383" y="-425.9408" font-family="Times,serif" font-size="9.00" fill="#000000">sigm</text>
</g>
<!-- 3228&#45;&gt;4447 -->
<g id="edge14" class="edge">
<title>3228&#45;&gt;4447</title>
<path fill="none" stroke="#ff0000" stroke-width=".2674" d="M44.383,-408.8204C44.383,-400.8896 44.383,-391.9289 44.383,-383.4051"/>
<polygon fill="#ff0000" stroke="#ff0000" stroke-width=".2674" points="47.8831,-383.3232 44.383,-373.3232 40.8831,-383.3233 47.8831,-383.3232"/>
</g>
<!-- 4595&#45;&gt;5455 -->
<g id="edge22" class="edge">
<title>4595&#45;&gt;5455</title>
<path fill="none" stroke="#00ff00" stroke-width=".7645" d="M70.383,-156.5706C70.383,-148.6398 70.383,-139.6791 70.383,-131.1553"/>
<polygon fill="#00ff00" stroke="#00ff00" stroke-width=".7645" points="73.8831,-131.0734 70.383,-121.0734 66.8831,-131.0735 73.8831,-131.0734"/>
</g>
<!-- 5076&#45;&gt;E7 -->
<g id="edge16" class="edge">
<title>5076&#45;&gt;E7</title>
<path fill="none" stroke="#ff0000" stroke-width=".5913" d="M289.7032,-240.7392C289.7484,-202.1288 294.5535,-125.6261 328.383,-72.7661 331.7589,-67.4913 358.7881,-48.505 379.4399,-34.4438"/>
<polygon fill="#ff0000" stroke="#ff0000" stroke-width=".5913" points="381.4953,-37.279 387.8126,-28.7735 377.5701,-31.483 381.4953,-37.279"/>
</g>
</g>
</svg>
