<?xml version="1.0" encoding="UTF-8" standalone="no"?>
<!DOCTYPE svg PUBLIC "-//W3C//DTD SVG 1.1//EN"
 "http://www.w3.org/Graphics/SVG/1.1/DTD/svg11.dtd">
<!-- Generated by graphviz version 2.40.1 (20161225.0304)
 -->
<!-- Title: %3 Pages: 1 -->
<svg width="434pt" height="91pt"
 viewBox="0.00 0.00 434.49 90.71" xmlns="http://www.w3.org/2000/svg" xmlns:xlink="http://www.w3.org/1999/xlink">
<g id="graph0" class="graph" transform="scale(1 1) rotate(0) translate(4 86.7061)">
<title>%3</title>
<polygon fill="#ffffff" stroke="transparent" points="-4,4 -4,-86.7061 430.4945,-86.7061 430.4945,4 -4,4"/>
<!-- E0 -->
<g id="node1" class="node">
<title>E0</title>
<polygon fill="#d3d3d3" stroke="#000000" points="74.4932,-82.7061 48.4981,-82.7061 48.4981,-65.7061 74.4932,-65.7061 74.4932,-82.7061"/>
<text text-anchor="middle" x="61.4957" y="-71.5061" font-family="Times,serif" font-size="9.00" fill="#000000">E0</text>
</g>
<!-- E1 -->
<g id="node2" class="node">
<title>E1</title>
<polygon fill="#d3d3d3" stroke="#000000" points="118.4932,-82.7061 92.4981,-82.7061 92.4981,-65.7061 118.4932,-65.7061 118.4932,-82.7061"/>
<text text-anchor="middle" x="105.4957" y="-71.5061" font-family="Times,serif" font-size="9.00" fill="#000000">E1</text>
</g>
<!-- E0&#45;&gt;E1 -->
<!-- 1 -->
<g id="node11" class="node">
<title>1</title>
<ellipse fill="#eee8aa" stroke="#000000" cx="61.4957" cy="-14.853" rx="14.4914" ry="14.4914"/>
<text text-anchor="middle" x="61.4957" y="-12.153" font-family="Times,serif" font-size="9.00" fill="#000000">1</text>
</g>
<!-- E0&#45;&gt;1 -->
<g id="edge14" class="edge">
<title>E0&#45;&gt;1</title>
<path fill="none" stroke="#00ff00" stroke-width=".6473" d="M61.4957,-65.7022C61.4957,-58.9749 61.4957,-49.2187 61.4957,-40.0472"/>
<polygon fill="#00ff00" stroke="#00ff00" stroke-width=".6473" points="64.9958,-39.7656 61.4957,-29.7657 57.9958,-39.7657 64.9958,-39.7656"/>
</g>
<!-- S -->
<g id="node13" class="node">
<title>S</title>
<ellipse fill="#87cefa" stroke="#000000" cx="155.4957" cy="-14.853" rx="14.7075" ry="14.7075"/>
<text text-anchor="middle" x="155.4957" y="-12.153" font-family="Times,serif" font-size="9.00" fill="#000000">S</text>
</g>
<!-- E0&#45;&gt;S -->
<g id="edge16" class="edge">
<title>E0&#45;&gt;S</title>
<path fill="none" stroke="#00ff00" stroke-width=".3079" d="M74.566,-65.9533C90.0156,-56.1982 115.9388,-39.8299 134.278,-28.2502"/>
<polygon fill="#00ff00" stroke="#00ff00" stroke-width=".3079" points="136.2499,-31.1445 142.8367,-22.8461 132.5126,-25.2256 136.2499,-31.1445"/>
</g>
<!-- E2 -->
<g id="node3" class="node">
<title>E2</title>
<polygon fill="#d3d3d3" stroke="#000000" points="162.4932,-82.7061 136.4981,-82.7061 136.4981,-65.7061 162.4932,-65.7061 162.4932,-82.7061"/>
<text text-anchor="middle" x="149.4957" y="-71.5061" font-family="Times,serif" font-size="9.00" fill="#000000">E2</text>
</g>
<!-- E1&#45;&gt;E2 -->
<!-- E1&#45;&gt;S -->
<g id="edge12" class="edge">
<title>E1&#45;&gt;S</title>
<path fill="none" stroke="#00ff00" stroke-width="3.436" d="M112.6595,-65.7022C119.4777,-57.6086 129.9891,-45.1309 138.8928,-34.5617"/>
<polygon fill="#00ff00" stroke="#00ff00" stroke-width="3.436" points="141.8214,-36.5177 145.5874,-26.6148 136.4679,-32.0077 141.8214,-36.5177"/>
</g>
<!-- E3 -->
<g id="node4" class="node">
<title>E3</title>
<polygon fill="#d3d3d3" stroke="#000000" points="206.4932,-82.7061 180.4981,-82.7061 180.4981,-65.7061 206.4932,-65.7061 206.4932,-82.7061"/>
<text text-anchor="middle" x="193.4957" y="-71.5061" font-family="Times,serif" font-size="9.00" fill="#000000">E3</text>
</g>
<!-- E2&#45;&gt;E3 -->
<!-- E4 -->
<g id="node5" class="node">
<title>E4</title>
<polygon fill="#d3d3d3" stroke="#000000" points="250.4932,-82.7061 224.4981,-82.7061 224.4981,-65.7061 250.4932,-65.7061 250.4932,-82.7061"/>
<text text-anchor="middle" x="237.4957" y="-71.5061" font-family="Times,serif" font-size="9.00" fill="#000000">E4</text>
</g>
<!-- E3&#45;&gt;E4 -->
<!-- E5 -->
<g id="node6" class="node">
<title>E5</title>
<polygon fill="#d3d3d3" stroke="#000000" points="294.4932,-82.7061 268.4981,-82.7061 268.4981,-65.7061 294.4932,-65.7061 294.4932,-82.7061"/>
<text text-anchor="middle" x="281.4957" y="-71.5061" font-family="Times,serif" font-size="9.00" fill="#000000">E5</text>
</g>
<!-- E4&#45;&gt;E5 -->
<!-- 2 -->
<g id="node12" class="node">
<title>2</title>
<ellipse fill="#ffa07a" stroke="#000000" cx="108.4957" cy="-14.853" rx="14.4914" ry="14.4914"/>
<text text-anchor="middle" x="108.4957" y="-12.153" font-family="Times,serif" font-size="9.00" fill="#000000">2</text>
</g>
<!-- E4&#45;&gt;2 -->
<g id="edge13" class="edge">
<title>E4&#45;&gt;2</title>
<path fill="none" stroke="#ff0000" stroke-width="1.6553" d="M224.4916,-69.0802C200.1278,-59.4219 148.5307,-38.6928 131.4957,-29.7061 130.6864,-29.2791 129.8687,-28.8324 129.0486,-28.3713"/>
<polygon fill="#ff0000" stroke="#ff0000" stroke-width="1.6553" points="130.7927,-25.3356 120.4309,-23.1258 127.1531,-31.315 130.7927,-25.3356"/>
</g>
<!-- E6 -->
<g id="node7" class="node">
<title>E6</title>
<polygon fill="#d3d3d3" stroke="#000000" points="338.4932,-82.7061 312.4981,-82.7061 312.4981,-65.7061 338.4932,-65.7061 338.4932,-82.7061"/>
<text text-anchor="middle" x="325.4957" y="-71.5061" font-family="Times,serif" font-size="9.00" fill="#000000">E6</text>
</g>
<!-- E5&#45;&gt;E6 -->
<!-- E7 -->
<g id="node8" class="node">
<title>E7</title>
<polygon fill="#d3d3d3" stroke="#000000" points="382.4932,-82.7061 356.4981,-82.7061 356.4981,-65.7061 382.4932,-65.7061 382.4932,-82.7061"/>
<text text-anchor="middle" x="369.4957" y="-71.5061" font-family="Times,serif" font-size="9.00" fill="#000000">E7</text>
</g>
<!-- E6&#45;&gt;E7 -->
<!-- E8 -->
<g id="node9" class="node">
<title>E8</title>
<polygon fill="#d3d3d3" stroke="#000000" points="426.4932,-82.7061 400.4981,-82.7061 400.4981,-65.7061 426.4932,-65.7061 426.4932,-82.7061"/>
<text text-anchor="middle" x="413.4957" y="-71.5061" font-family="Times,serif" font-size="9.00" fill="#000000">E8</text>
</g>
<!-- E7&#45;&gt;E8 -->
<!-- 0 -->
<g id="node10" class="node">
<title>0</title>
<ellipse fill="#87cefa" stroke="#000000" cx="14.4957" cy="-14.853" rx="14.4914" ry="14.4914"/>
<text text-anchor="middle" x="14.4957" y="-12.153" font-family="Times,serif" font-size="9.00" fill="#000000">0</text>
</g>
<!-- E8&#45;&gt;0 -->
<g id="edge15" class="edge">
<title>E8&#45;&gt;0</title>
<path fill="none" stroke="#ff0000" stroke-width="1.2613" d="M400.1808,-68.4096C397.3572,-67.3659 394.3627,-66.393 391.4957,-65.7061 238.1336,-28.961 187.7957,-80.4963 38.4957,-29.7061 37.4287,-29.3431 36.3598,-28.9255 35.2978,-28.4659"/>
<polygon fill="#ff0000" stroke="#ff0000" stroke-width="1.2613" points="36.633,-25.2095 26.1701,-23.5425 33.3098,-31.3704 36.633,-25.2095"/>
</g>
<!-- 0&#45;&gt;1 -->
<!-- 1&#45;&gt;2 -->
<!-- 2&#45;&gt;S -->
</g>
</svg>
