<?xml version="1.0" encoding="UTF-8" standalone="no"?>
<!DOCTYPE svg PUBLIC "-//W3C//DTD SVG 1.1//EN"
 "http://www.w3.org/Graphics/SVG/1.1/DTD/svg11.dtd">
<!-- Generated by graphviz version 2.40.1 (20161225.0304)
 -->
<!-- Title: %3 Pages: 1 -->
<svg width="485pt" height="98pt"
 viewBox="0.00 0.00 484.77 97.77" xmlns="http://www.w3.org/2000/svg" xmlns:xlink="http://www.w3.org/1999/xlink">
<g id="graph0" class="graph" transform="scale(1 1) rotate(0) translate(4 93.7661)">
<title>%3</title>
<polygon fill="#ffffff" stroke="transparent" points="-4,4 -4,-93.7661 480.7661,-93.7661 480.7661,4 -4,4"/>
<!-- 0 -->
<g id="node1" class="node">
<title>0</title>
<polygon fill="#d3d3d3" stroke="#000000" points="209.389,-89.7661 189.3771,-89.7661 189.3771,-72.7661 209.389,-72.7661 209.389,-89.7661"/>
<text text-anchor="middle" x="199.383" y="-78.5661" font-family="Times,serif" font-size="9.00" fill="#000000">0</text>
</g>
<!-- 1 -->
<g id="node2" class="node">
<title>1</title>
<polygon fill="#d3d3d3" stroke="#000000" points="248.389,-89.7661 228.3771,-89.7661 228.3771,-72.7661 248.389,-72.7661 248.389,-89.7661"/>
<text text-anchor="middle" x="238.383" y="-78.5661" font-family="Times,serif" font-size="9.00" fill="#000000">1</text>
</g>
<!-- 0&#45;&gt;1 -->
<!-- E1 -->
<g id="node5" class="node">
<title>E1</title>
<ellipse fill="#87cefa" stroke="#000000" cx="73.383" cy="-18.383" rx="18.2668" ry="18.2668"/>
<text text-anchor="middle" x="73.383" y="-15.683" font-family="Times,serif" font-size="9.00" fill="#000000">E1</text>
</g>
<!-- 0&#45;&gt;E1 -->
<g id="edge16" class="edge">
<title>0&#45;&gt;E1</title>
<path fill="none" stroke="#00ff00" stroke-width=".2572" d="M189.1148,-77.2194C170.9897,-69.9421 132.3147,-53.809 101.383,-36.7661 100.0461,-36.0294 98.6889,-35.2506 97.3297,-34.4459"/>
<polygon fill="#00ff00" stroke="#00ff00" stroke-width=".2572" points="98.8572,-31.273 88.5236,-28.9349 95.1437,-37.2068 98.8572,-31.273"/>
</g>
<!-- E3 -->
<g id="node7" class="node">
<title>E3</title>
<ellipse fill="#87cefa" stroke="#000000" cx="183.383" cy="-18.383" rx="18.2668" ry="18.2668"/>
<text text-anchor="middle" x="183.383" y="-15.683" font-family="Times,serif" font-size="9.00" fill="#000000">E3</text>
</g>
<!-- 0&#45;&gt;E3 -->
<g id="edge11" class="edge">
<title>0&#45;&gt;E3</title>
<path fill="none" stroke="#ff0000" stroke-width="1.3147" d="M197.1583,-72.5225C195.4179,-65.6824 192.8967,-55.7734 190.4855,-46.2972"/>
<polygon fill="#ff0000" stroke="#ff0000" stroke-width="1.3147" points="193.8125,-45.1783 187.9546,-36.3502 187.0286,-46.9045 193.8125,-45.1783"/>
</g>
<!-- E4 -->
<g id="node8" class="node">
<title>E4</title>
<ellipse fill="#87cefa" stroke="#000000" cx="238.383" cy="-18.383" rx="18.2668" ry="18.2668"/>
<text text-anchor="middle" x="238.383" y="-15.683" font-family="Times,serif" font-size="9.00" fill="#000000">E4</text>
</g>
<!-- 0&#45;&gt;E4 -->
<g id="edge17" class="edge">
<title>0&#45;&gt;E4</title>
<path fill="none" stroke="#00ff00" stroke-width=".1567" d="M204.8058,-72.5225C209.5327,-64.9009 216.6227,-53.4692 223.0713,-43.0716"/>
<polygon fill="#00ff00" stroke="#00ff00" stroke-width=".1567" points="226.2013,-44.6652 228.4976,-34.3222 220.2525,-40.9758 226.2013,-44.6652"/>
</g>
<!-- E6 -->
<g id="node10" class="node">
<title>E6</title>
<ellipse fill="#87cefa" stroke="#000000" cx="348.383" cy="-18.383" rx="18.2668" ry="18.2668"/>
<text text-anchor="middle" x="348.383" y="-15.683" font-family="Times,serif" font-size="9.00" fill="#000000">E6</text>
</g>
<!-- 0&#45;&gt;E6 -->
<g id="edge15" class="edge">
<title>0&#45;&gt;E6</title>
<path fill="none" stroke="#00ff00" stroke-width=".1897" d="M209.5096,-76.8243C212.6573,-75.4809 216.1497,-74.0282 219.383,-72.7661 263.7764,-55.4385 277.7171,-57.9941 320.383,-36.7661 321.7497,-36.0861 323.1305,-35.3523 324.5082,-34.5829"/>
<polygon fill="#00ff00" stroke="#00ff00" stroke-width=".1897" points="326.654,-37.3739 333.3712,-29.1806 323.0107,-31.3967 326.654,-37.3739"/>
</g>
<!-- 2 -->
<g id="node3" class="node">
<title>2</title>
<polygon fill="#d3d3d3" stroke="#000000" points="287.389,-89.7661 267.3771,-89.7661 267.3771,-72.7661 287.389,-72.7661 287.389,-89.7661"/>
<text text-anchor="middle" x="277.383" y="-78.5661" font-family="Times,serif" font-size="9.00" fill="#000000">2</text>
</g>
<!-- 1&#45;&gt;2 -->
<!-- 1&#45;&gt;E4 -->
<g id="edge12" class="edge">
<title>1&#45;&gt;E4</title>
<path fill="none" stroke="#ff0000" stroke-width="1.7127" d="M238.383,-72.5225C238.383,-65.8532 238.383,-56.2664 238.383,-47.008"/>
<polygon fill="#ff0000" stroke="#ff0000" stroke-width="1.7127" points="241.8831,-46.8675 238.383,-36.8675 234.8831,-46.8676 241.8831,-46.8675"/>
</g>
<!-- E7 -->
<g id="node11" class="node">
<title>E7</title>
<ellipse fill="#87cefa" stroke="#000000" cx="403.383" cy="-18.383" rx="18.2668" ry="18.2668"/>
<text text-anchor="middle" x="403.383" y="-15.683" font-family="Times,serif" font-size="9.00" fill="#000000">E7</text>
</g>
<!-- 1&#45;&gt;E7 -->
<g id="edge14" class="edge">
<title>1&#45;&gt;E7</title>
<path fill="none" stroke="#ff0000" stroke-width=".3316" d="M248.4765,-76.7365C251.6228,-75.3896 255.1227,-73.9569 258.383,-72.7661 309.487,-54.101 326.1529,-59.9263 375.383,-36.7661 376.7643,-36.1163 378.1567,-35.4065 379.5434,-34.6557"/>
<polygon fill="#ff0000" stroke="#ff0000" stroke-width=".3316" points="381.6669,-37.463 388.4345,-29.3113 378.0605,-31.4635 381.6669,-37.463"/>
</g>
<!-- E2 -->
<g id="node6" class="node">
<title>E2</title>
<ellipse fill="#87cefa" stroke="#000000" cx="128.383" cy="-18.383" rx="18.2668" ry="18.2668"/>
<text text-anchor="middle" x="128.383" y="-15.683" font-family="Times,serif" font-size="9.00" fill="#000000">E2</text>
</g>
<!-- 2&#45;&gt;E2 -->
<g id="edge13" class="edge">
<title>2&#45;&gt;E2</title>
<path fill="none" stroke="#00ff00" stroke-width=".7145" d="M267.2565,-76.8243C264.1088,-75.4809 260.6164,-74.0282 257.383,-72.7661 212.9897,-55.4385 199.049,-57.9941 156.383,-36.7661 155.0164,-36.0861 153.6356,-35.3523 152.2579,-34.5829"/>
<polygon fill="#00ff00" stroke="#00ff00" stroke-width=".7145" points="153.7554,-31.3967 143.3949,-29.1806 150.1121,-37.3739 153.7554,-31.3967"/>
</g>
<!-- E0 -->
<g id="node4" class="node">
<title>E0</title>
<ellipse fill="#87cefa" stroke="#000000" cx="18.383" cy="-18.383" rx="18.2668" ry="18.2668"/>
<text text-anchor="middle" x="18.383" y="-15.683" font-family="Times,serif" font-size="9.00" fill="#000000">E0</text>
</g>
<!-- E0&#45;&gt;E1 -->
<!-- E1&#45;&gt;E2 -->
<!-- E2&#45;&gt;E3 -->
<!-- E3&#45;&gt;E4 -->
<!-- E5 -->
<g id="node9" class="node">
<title>E5</title>
<ellipse fill="#87cefa" stroke="#000000" cx="293.383" cy="-18.383" rx="18.2668" ry="18.2668"/>
<text text-anchor="middle" x="293.383" y="-15.683" font-family="Times,serif" font-size="9.00" fill="#000000">E5</text>
</g>
<!-- E4&#45;&gt;E5 -->
<!-- E5&#45;&gt;E6 -->
<!-- E6&#45;&gt;E7 -->
<!-- E8 -->
<g id="node12" class="node">
<title>E8</title>
<ellipse fill="#87cefa" stroke="#000000" cx="458.383" cy="-18.383" rx="18.2668" ry="18.2668"/>
<text text-anchor="middle" x="458.383" y="-15.683" font-family="Times,serif" font-size="9.00" fill="#000000">E8</text>
</g>
<!-- E7&#45;&gt;E8 -->
</g>
</svg>
