<?xml version="1.0" encoding="UTF-8" standalone="no"?>
<!DOCTYPE svg PUBLIC "-//W3C//DTD SVG 1.1//EN"
 "http://www.w3.org/Graphics/SVG/1.1/DTD/svg11.dtd">
<!-- Generated by graphviz version 2.40.1 (20161225.0304)
 -->
<!-- Title: %3 Pages: 1 -->
<svg width="386pt" height="91pt"
 viewBox="0.00 0.00 386.00 90.71" xmlns="http://www.w3.org/2000/svg" xmlns:xlink="http://www.w3.org/1999/xlink">
<g id="graph0" class="graph" transform="scale(1 1) rotate(0) translate(4 86.7061)">
<title>%3</title>
<polygon fill="#ffffff" stroke="transparent" points="-4,4 -4,-86.7061 381.9976,-86.7061 381.9976,4 -4,4"/>
<!-- E0 -->
<g id="node1" class="node">
<title>E0</title>
<polygon fill="#d3d3d3" stroke="#000000" points="25.9963,-82.7061 .0012,-82.7061 .0012,-65.7061 25.9963,-65.7061 25.9963,-82.7061"/>
<text text-anchor="middle" x="12.9988" y="-71.5061" font-family="Times,serif" font-size="9.00" fill="#000000">E0</text>
</g>
<!-- E1 -->
<g id="node2" class="node">
<title>E1</title>
<polygon fill="#d3d3d3" stroke="#000000" points="69.9963,-82.7061 44.0012,-82.7061 44.0012,-65.7061 69.9963,-65.7061 69.9963,-82.7061"/>
<text text-anchor="middle" x="56.9988" y="-71.5061" font-family="Times,serif" font-size="9.00" fill="#000000">E1</text>
</g>
<!-- E0&#45;&gt;E1 -->
<!-- E2 -->
<g id="node3" class="node">
<title>E2</title>
<polygon fill="#d3d3d3" stroke="#000000" points="113.9963,-82.7061 88.0012,-82.7061 88.0012,-65.7061 113.9963,-65.7061 113.9963,-82.7061"/>
<text text-anchor="middle" x="100.9988" y="-71.5061" font-family="Times,serif" font-size="9.00" fill="#000000">E2</text>
</g>
<!-- E1&#45;&gt;E2 -->
<!-- E3 -->
<g id="node4" class="node">
<title>E3</title>
<polygon fill="#d3d3d3" stroke="#000000" points="157.9963,-82.7061 132.0012,-82.7061 132.0012,-65.7061 157.9963,-65.7061 157.9963,-82.7061"/>
<text text-anchor="middle" x="144.9988" y="-71.5061" font-family="Times,serif" font-size="9.00" fill="#000000">E3</text>
</g>
<!-- E2&#45;&gt;E3 -->
<!-- 2 -->
<g id="node12" class="node">
<title>2</title>
<ellipse fill="#eee8aa" stroke="#000000" cx="273.9988" cy="-14.853" rx="14.4914" ry="14.4914"/>
<text text-anchor="middle" x="273.9988" y="-12.153" font-family="Times,serif" font-size="9.00" fill="#000000">2</text>
</g>
<!-- E2&#45;&gt;2 -->
<g id="edge12" class="edge">
<title>E2&#45;&gt;2</title>
<path fill="none" stroke="#00ff00" stroke-width="1.7349" d="M114.4234,-68.7929C117.239,-67.7214 120.2026,-66.6403 122.9988,-65.7061 178.6433,-47.1142 196.3152,-53.3714 249.9988,-29.7061 250.8619,-29.3256 251.7309,-28.9183 252.6001,-28.4905"/>
<polygon fill="#00ff00" stroke="#00ff00" stroke-width="1.7349" points="254.6529,-31.3517 261.6547,-23.4002 251.2225,-25.2498 254.6529,-31.3517"/>
</g>
<!-- E4 -->
<g id="node5" class="node">
<title>E4</title>
<polygon fill="#d3d3d3" stroke="#000000" points="201.9963,-82.7061 176.0012,-82.7061 176.0012,-65.7061 201.9963,-65.7061 201.9963,-82.7061"/>
<text text-anchor="middle" x="188.9988" y="-71.5061" font-family="Times,serif" font-size="9.00" fill="#000000">E4</text>
</g>
<!-- E3&#45;&gt;E4 -->
<!-- 0 -->
<g id="node10" class="node">
<title>0</title>
<ellipse fill="#eee8aa" stroke="#000000" cx="179.9988" cy="-14.853" rx="14.4914" ry="14.4914"/>
<text text-anchor="middle" x="179.9988" y="-12.153" font-family="Times,serif" font-size="9.00" fill="#000000">0</text>
</g>
<!-- E3&#45;&gt;0 -->
<g id="edge13" class="edge">
<title>E3&#45;&gt;0</title>
<path fill="none" stroke="#ff0000" stroke-width="1.0631" d="M150.0134,-65.7022C154.5286,-58.0453 161.3576,-46.4647 167.3586,-36.2883"/>
<polygon fill="#ff0000" stroke="#ff0000" stroke-width="1.0631" points="170.482,-37.882 172.5467,-27.4902 164.4523,-34.3263 170.482,-37.882"/>
</g>
<!-- E5 -->
<g id="node6" class="node">
<title>E5</title>
<polygon fill="#d3d3d3" stroke="#000000" points="245.9963,-82.7061 220.0012,-82.7061 220.0012,-65.7061 245.9963,-65.7061 245.9963,-82.7061"/>
<text text-anchor="middle" x="232.9988" y="-71.5061" font-family="Times,serif" font-size="9.00" fill="#000000">E5</text>
</g>
<!-- E4&#45;&gt;E5 -->
<!-- 1 -->
<g id="node11" class="node">
<title>1</title>
<ellipse fill="#87cefa" stroke="#000000" cx="226.9988" cy="-14.853" rx="14.4914" ry="14.4914"/>
<text text-anchor="middle" x="226.9988" y="-12.153" font-family="Times,serif" font-size="9.00" fill="#000000">1</text>
</g>
<!-- E4&#45;&gt;1 -->
<g id="edge14" class="edge">
<title>E4&#45;&gt;1</title>
<path fill="none" stroke="#ff0000" stroke-width="3.6938" d="M194.4433,-65.7022C199.3955,-57.9672 206.9114,-46.228 213.4743,-35.9772"/>
<polygon fill="#ff0000" stroke="#ff0000" stroke-width="3.6938" points="216.4636,-37.7993 218.908,-27.4902 210.5683,-34.0249 216.4636,-37.7993"/>
</g>
<!-- E6 -->
<g id="node7" class="node">
<title>E6</title>
<polygon fill="#d3d3d3" stroke="#000000" points="289.9963,-82.7061 264.0012,-82.7061 264.0012,-65.7061 289.9963,-65.7061 289.9963,-82.7061"/>
<text text-anchor="middle" x="276.9988" y="-71.5061" font-family="Times,serif" font-size="9.00" fill="#000000">E6</text>
</g>
<!-- E5&#45;&gt;E6 -->
<!-- E7 -->
<g id="node8" class="node">
<title>E7</title>
<polygon fill="#d3d3d3" stroke="#000000" points="333.9963,-82.7061 308.0012,-82.7061 308.0012,-65.7061 333.9963,-65.7061 333.9963,-82.7061"/>
<text text-anchor="middle" x="320.9988" y="-71.5061" font-family="Times,serif" font-size="9.00" fill="#000000">E7</text>
</g>
<!-- E6&#45;&gt;E7 -->
<!-- E6&#45;&gt;0 -->
<g id="edge20" class="edge">
<title>E6&#45;&gt;0</title>
<path fill="none" stroke="#00ff00" stroke-width=".2061" d="M263.7948,-66.1937C249.1606,-57.305 224.8671,-42.5239 203.9988,-29.7061 203.195,-29.2124 202.3764,-28.709 201.5498,-28.2001"/>
<polygon fill="#00ff00" stroke="#00ff00" stroke-width=".2061" points="203.041,-25.0074 192.6935,-22.7316 199.3633,-30.9635 203.041,-25.0074"/>
</g>
<!-- S -->
<g id="node13" class="node">
<title>S</title>
<ellipse fill="#ffa07a" stroke="#000000" cx="320.9988" cy="-14.853" rx="14.7075" ry="14.7075"/>
<text text-anchor="middle" x="320.9988" y="-12.153" font-family="Times,serif" font-size="9.00" fill="#000000">S</text>
</g>
<!-- E6&#45;&gt;S -->
<g id="edge17" class="edge">
<title>E6&#45;&gt;S</title>
<path fill="none" stroke="#00ff00" stroke-width=".6894" d="M283.3029,-65.7022C289.1693,-57.7889 298.1425,-45.6846 305.8625,-35.2708"/>
<polygon fill="#00ff00" stroke="#00ff00" stroke-width=".6894" points="308.8133,-37.1676 311.9569,-27.0499 303.1899,-32.9988 308.8133,-37.1676"/>
</g>
<!-- E8 -->
<g id="node9" class="node">
<title>E8</title>
<polygon fill="#d3d3d3" stroke="#000000" points="377.9963,-82.7061 352.0012,-82.7061 352.0012,-65.7061 377.9963,-65.7061 377.9963,-82.7061"/>
<text text-anchor="middle" x="364.9988" y="-71.5061" font-family="Times,serif" font-size="9.00" fill="#000000">E8</text>
</g>
<!-- E7&#45;&gt;E8 -->
<!-- E7&#45;&gt;1 -->
<g id="edge18" class="edge">
<title>E7&#45;&gt;1</title>
<path fill="none" stroke="#ff0000" stroke-width=".3943" d="M307.9285,-65.9533C292.3925,-56.1437 266.2657,-39.6468 247.9098,-28.0566"/>
<polygon fill="#ff0000" stroke="#ff0000" stroke-width=".3943" points="249.6843,-25.0377 239.3601,-22.6582 245.947,-30.9566 249.6843,-25.0377"/>
</g>
<!-- E7&#45;&gt;S -->
<g id="edge15" class="edge">
<title>E7&#45;&gt;S</title>
<path fill="none" stroke="#00ff00" stroke-width=".199" d="M320.9988,-65.7022C320.9988,-58.9749 320.9988,-49.2187 320.9988,-40.0472"/>
<polygon fill="#00ff00" stroke="#00ff00" stroke-width=".199" points="324.4989,-39.7656 320.9988,-29.7657 317.4989,-39.7657 324.4989,-39.7656"/>
</g>
<!-- E8&#45;&gt;1 -->
<g id="edge16" class="edge">
<title>E8&#45;&gt;1</title>
<path fill="none" stroke="#ff0000" stroke-width=".3048" d="M351.8045,-69.0917C322.3024,-57.6514 253.3866,-30.8986 250.9988,-29.7061 250.1549,-29.2846 249.3022,-28.8426 248.4469,-28.3854"/>
<polygon fill="#ff0000" stroke="#ff0000" stroke-width=".3048" points="249.8608,-25.1589 239.4565,-23.1583 246.3423,-31.2104 249.8608,-25.1589"/>
</g>
<!-- E8&#45;&gt;2 -->
<g id="edge19" class="edge">
<title>E8&#45;&gt;2</title>
<path fill="none" stroke="#00ff00" stroke-width=".2383" d="M351.9607,-65.7022C336.9783,-55.9303 312.1976,-39.7675 294.5987,-28.289"/>
<polygon fill="#00ff00" stroke="#00ff00" stroke-width=".2383" points="296.4282,-25.3036 286.1402,-22.7721 292.604,-31.1667 296.4282,-25.3036"/>
</g>
<!-- 0&#45;&gt;1 -->
<!-- 1&#45;&gt;2 -->
<!-- 2&#45;&gt;S -->
</g>
</svg>
