<?xml version="1.0" encoding="utf-8" standalone="no"?>
<!DOCTYPE svg PUBLIC "-//W3C//DTD SVG 1.1//EN"
  "http://www.w3.org/Graphics/SVG/1.1/DTD/svg11.dtd">
<!-- Created with matplotlib (https://matplotlib.org/) -->
<svg height="345.6pt" version="1.1" viewBox="0 0 460.8 345.6" width="460.8pt" xmlns="http://www.w3.org/2000/svg" xmlns:xlink="http://www.w3.org/1999/xlink">
 <defs>
  <style type="text/css">
*{stroke-linecap:butt;stroke-linejoin:round;}
  </style>
 </defs>
 <g id="figure_1">
  <g id="patch_1">
   <path d="M 0 345.6 
L 460.8 345.6 
L 460.8 0 
L 0 0 
z
" style="fill:#ffffff;"/>
  </g>
  <g id="axes_1">
   <g id="patch_2">
    <path d="M 57.6 307.584 
L 414.72 307.584 
L 414.72 41.472 
L 57.6 41.472 
z
" style="fill:#ffffff;"/>
   </g>
   <g id="PolyCollection_1">
    <path clip-path="url(#pbd66886957)" d="M 73.832727 53.568 
L 73.832727 58.659332 
L 74.918528 78.01268 
L 76.00433 75.325431 
L 77.090131 100.128308 
L 78.175932 106.330485 
L 79.261733 110.370472 
L 80.347534 136.928405 
L 81.433335 113.570525 
L 82.519137 102.474022 
L 83.604938 105.744017 
L 84.690739 149.192937 
L 85.77654 151.033325 
L 86.862341 153.464297 
L 87.948142 107.597547 
L 89.033943 146.403298 
L 90.119745 131.899193 
L 91.205546 137.521255 
L 92.291347 154.691512 
L 93.377148 149.606964 
L 94.462949 140.965033 
L 95.54875 146.518058 
L 96.634552 131.233266 
L 97.720353 114.668265 
L 98.806154 100.254571 
L 99.891955 111.505817 
L 100.977756 129.711782 
L 102.063557 142.517816 
L 103.149358 122.980055 
L 104.23516 167.524535 
L 105.320961 136.843956 
L 106.406762 162.350652 
L 107.492563 147.354347 
L 108.578364 146.129876 
L 109.664165 117.923124 
L 110.749967 120.1848 
L 111.835768 151.880061 
L 112.921569 128.855741 
L 114.00737 133.88638 
L 115.093171 145.102389 
L 116.178972 162.049098 
L 117.264773 157.762511 
L 118.350575 154.868485 
L 119.436376 165.368117 
L 120.522177 160.541049 
L 121.607978 171.364218 
L 122.693779 193.078417 
L 123.77958 193.01396 
L 124.865382 248.426272 
L 125.951183 226.735743 
L 127.036984 219.184115 
L 128.122785 214.35213 
L 129.208586 226.073104 
L 130.294387 195.788948 
L 131.380189 187.60577 
L 132.46599 206.591961 
L 133.551791 190.612849 
L 134.637592 188.559056 
L 135.723393 161.847547 
L 136.809194 196.538445 
L 137.894995 211.370409 
L 138.980797 200.237106 
L 140.066598 237.415857 
L 141.152399 253.587503 
L 142.2382 211.445386 
L 143.324001 189.280127 
L 144.409802 167.130031 
L 145.495604 234.698172 
L 146.581405 192.990344 
L 147.667206 233.257914 
L 148.753007 209.8756 
L 149.838808 205.349309 
L 150.924609 241.040233 
L 152.01041 218.641046 
L 153.096212 176.009937 
L 154.182013 213.664595 
L 155.267814 216.612759 
L 156.353615 231.069267 
L 157.439416 211.495042 
L 158.525217 198.442274 
L 159.611019 172.018201 
L 160.69682 223.899535 
L 161.782621 219.374462 
L 162.868422 239.656699 
L 163.954223 246.0551 
L 165.040024 205.156654 
L 166.125825 234.7367 
L 167.211627 251.903404 
L 168.297428 223.614792 
L 169.383229 247.652609 
L 170.46903 222.701356 
L 171.554831 230.925939 
L 172.640632 227.709896 
L 173.726434 170.362049 
L 174.812235 209.0004 
L 175.898036 237.477889 
L 176.983837 266.728279 
L 178.069638 254.572875 
L 179.155439 266.416687 
L 180.24124 237.128342 
L 181.327042 266.230236 
L 182.412843 264.530758 
L 183.498644 251.986407 
L 184.584445 254.778287 
L 185.670246 247.984555 
L 186.756047 254.034628 
L 187.841849 244.200386 
L 188.92765 261.04582 
L 190.013451 248.925555 
L 191.099252 227.746161 
L 192.185053 244.03473 
L 193.270854 243.448395 
L 194.356656 249.345765 
L 195.442457 262.093151 
L 196.528258 258.666615 
L 197.614059 257.008167 
L 198.69986 248.375161 
L 199.785661 243.549456 
L 200.871462 283.837858 
L 201.957264 257.994142 
L 203.043065 253.51525 
L 204.128866 213.553576 
L 205.214667 220.6033 
L 206.300468 227.731197 
L 207.386269 248.695692 
L 208.472071 270.616035 
L 209.557872 245.07061 
L 210.643673 239.822154 
L 211.729474 193.327272 
L 212.815275 204.478412 
L 213.901076 182.373873 
L 214.986877 197.153535 
L 216.072679 183.796352 
L 217.15848 191.701105 
L 218.244281 212.810607 
L 219.330082 198.385281 
L 220.415883 176.476139 
L 221.501684 201.753003 
L 222.587486 197.653274 
L 223.673287 225.936437 
L 224.759088 217.545626 
L 225.844889 210.550226 
L 226.93069 230.17733 
L 228.016491 222.802632 
L 229.102292 251.878416 
L 230.188094 226.798524 
L 231.273895 252.481469 
L 232.359696 241.145749 
L 233.445497 213.854212 
L 234.531298 189.711479 
L 235.617099 187.776723 
L 236.702901 177.798252 
L 237.788702 219.816331 
L 238.874503 183.957334 
L 239.960304 212.341036 
L 241.046105 231.598933 
L 242.131906 218.120339 
L 243.217708 202.958134 
L 244.303509 230.561799 
L 245.38931 212.985562 
L 246.475111 219.688452 
L 247.560912 239.250449 
L 248.646713 203.63642 
L 249.732514 213.100481 
L 250.818316 240.081422 
L 251.904117 230.911407 
L 252.989918 185.866299 
L 254.075719 200.913633 
L 255.16152 213.283777 
L 256.247321 210.613206 
L 257.333123 204.229148 
L 258.418924 176.106658 
L 259.504725 173.328868 
L 260.590526 172.03446 
L 261.676327 130.122845 
L 262.762128 139.074527 
L 263.847929 158.832241 
L 264.933731 158.308122 
L 266.019532 147.773597 
L 267.105333 147.025451 
L 268.191134 138.812875 
L 269.276935 159.236239 
L 270.362736 194.897931 
L 271.448538 212.151356 
L 272.534339 199.682463 
L 273.62014 203.365686 
L 274.705941 196.109613 
L 275.791742 184.168088 
L 276.877543 186.385539 
L 277.963344 191.87138 
L 279.049146 163.980884 
L 280.134947 173.248402 
L 281.220748 181.723078 
L 282.306549 170.966691 
L 283.39235 185.766235 
L 284.478151 200.76604 
L 285.563953 213.689693 
L 286.649754 210.208849 
L 287.735555 182.372985 
L 288.821356 170.0397 
L 289.907157 166.708833 
L 290.992958 156.412615 
L 292.07876 195.935014 
L 293.164561 177.322357 
L 294.250362 183.923911 
L 295.336163 189.325671 
L 296.421964 190.509021 
L 297.507765 193.118767 
L 298.593566 230.237771 
L 299.679368 227.590331 
L 300.765169 202.080345 
L 301.85097 199.181859 
L 302.936771 186.277741 
L 304.022572 191.986037 
L 305.108373 220.143654 
L 306.194175 190.139347 
L 307.279976 165.21547 
L 308.365777 175.426447 
L 309.451578 186.389245 
L 310.537379 175.713203 
L 311.62318 173.89446 
L 312.708981 176.31603 
L 313.794783 177.13478 
L 314.880584 177.074678 
L 315.966385 186.12352 
L 317.052186 198.708642 
L 318.137987 218.79434 
L 319.223788 214.51764 
L 320.30959 225.141022 
L 321.395391 212.24171 
L 322.481192 247.378669 
L 323.566993 233.062912 
L 324.652794 208.834165 
L 325.738595 194.591752 
L 326.824396 194.941684 
L 327.910198 190.936353 
L 328.995999 185.263355 
L 330.0818 188.162846 
L 331.167601 187.123128 
L 332.253402 198.272852 
L 333.339203 221.204155 
L 334.425005 220.67534 
L 335.510806 188.787256 
L 336.596607 195.358128 
L 337.682408 187.724063 
L 338.768209 216.084434 
L 339.85401 237.092372 
L 340.939811 222.776635 
L 342.025613 178.949558 
L 343.111414 195.959155 
L 344.197215 190.725777 
L 345.283016 187.486315 
L 346.368817 197.371531 
L 347.454618 214.286693 
L 348.54042 234.036872 
L 349.626221 231.882489 
L 350.712022 214.809055 
L 351.797823 219.611474 
L 352.883624 240.447612 
L 353.969425 238.119571 
L 355.055227 249.808976 
L 356.141028 230.909351 
L 357.226829 245.370098 
L 358.31263 236.911417 
L 359.398431 243.05638 
L 360.484232 255.950759 
L 361.570033 229.474885 
L 362.655835 232.550822 
L 363.741636 246.44632 
L 364.827437 261.940419 
L 365.913238 283.5827 
L 366.999039 251.481447 
L 368.08484 231.305951 
L 369.170642 242.696149 
L 370.256443 245.963752 
L 371.342244 248.456369 
L 372.428045 267.132724 
L 373.513846 270.237965 
L 374.599647 257.962876 
L 375.685448 273.693749 
L 376.77125 279.977193 
L 377.857051 252.968041 
L 378.942852 248.974248 
L 380.028653 261.089098 
L 381.114454 255.028163 
L 382.200255 237.528515 
L 383.286057 281.171323 
L 384.371858 287.809349 
L 385.457659 289.854132 
L 386.54346 267.469649 
L 387.629261 277.157229 
L 388.715062 235.686345 
L 389.800863 198.254892 
L 390.886665 204.033259 
L 391.972466 209.280707 
L 393.058267 220.146068 
L 394.144068 256.284152 
L 395.229869 217.242771 
L 396.31567 255.455777 
L 397.401472 295.488 
L 398.487273 269.321315 
L 398.487273 230.474111 
L 398.487273 230.474111 
L 397.401472 236.870061 
L 396.31567 221.779816 
L 395.229869 190.357858 
L 394.144068 223.562288 
L 393.058267 188.447034 
L 391.972466 188.679126 
L 390.886665 189.01023 
L 389.800863 180.643311 
L 388.715062 195.605225 
L 387.629261 241.477061 
L 386.54346 246.511537 
L 385.457659 238.714201 
L 384.371858 246.867429 
L 383.286057 241.462727 
L 382.200255 207.158671 
L 381.114454 211.581331 
L 380.028653 237.025131 
L 378.942852 212.873448 
L 377.857051 203.092739 
L 376.77125 243.778545 
L 375.685448 241.160328 
L 374.599647 214.969425 
L 373.513846 242.456985 
L 372.428045 238.642638 
L 371.342244 213.573252 
L 370.256443 211.424129 
L 369.170642 211.64883 
L 368.08484 209.203811 
L 366.999039 228.212593 
L 365.913238 236.837596 
L 364.827437 243.026739 
L 363.741636 227.592469 
L 362.655835 220.826448 
L 361.570033 212.458639 
L 360.484232 215.353179 
L 359.398431 225.056773 
L 358.31263 200.863696 
L 357.226829 214.13411 
L 356.141028 214.73299 
L 355.055227 237.534618 
L 353.969425 217.172395 
L 352.883624 230.455743 
L 351.797823 194.613299 
L 350.712022 199.219855 
L 349.626221 193.573512 
L 348.54042 193.035788 
L 347.454618 186.759994 
L 346.368817 170.239357 
L 345.283016 154.155127 
L 344.197215 159.884452 
L 343.111414 152.130134 
L 342.025613 163.453411 
L 340.939811 179.942946 
L 339.85401 201.181028 
L 338.768209 190.250011 
L 337.682408 166.12232 
L 336.596607 180.756834 
L 335.510806 172.602757 
L 334.425005 179.831596 
L 333.339203 179.613178 
L 332.253402 178.298803 
L 331.167601 177.008357 
L 330.0818 159.483669 
L 328.995999 158.702382 
L 327.910198 156.776775 
L 326.824396 152.165482 
L 325.738595 159.260606 
L 324.652794 175.51924 
L 323.566993 189.966084 
L 322.481192 198.978701 
L 321.395391 179.61652 
L 320.30959 191.264288 
L 319.223788 183.433941 
L 318.137987 180.339058 
L 317.052186 172.509139 
L 315.966385 181.130449 
L 314.880584 158.925511 
L 313.794783 157.786011 
L 312.708981 162.459758 
L 311.62318 159.045225 
L 310.537379 154.811282 
L 309.451578 165.572987 
L 308.365777 149.146218 
L 307.279976 152.415327 
L 306.194175 180.448946 
L 305.108373 206.642198 
L 304.022572 173.356409 
L 302.936771 165.901553 
L 301.85097 163.128525 
L 300.765169 174.42974 
L 299.679368 182.253775 
L 298.593566 196.887304 
L 297.507765 176.721645 
L 296.421964 175.740258 
L 295.336163 178.003222 
L 294.250362 171.368602 
L 293.164561 163.234757 
L 292.07876 174.143812 
L 290.992958 140.520561 
L 289.907157 152.541024 
L 288.821356 143.852032 
L 287.735555 152.563041 
L 286.649754 175.077491 
L 285.563953 176.341917 
L 284.478151 181.158954 
L 283.39235 175.269051 
L 282.306549 154.191901 
L 281.220748 168.856495 
L 280.134947 137.572448 
L 279.049146 143.141889 
L 277.963344 163.629559 
L 276.877543 166.201403 
L 275.791742 160.48709 
L 274.705941 167.891947 
L 273.62014 171.205262 
L 272.534339 165.758784 
L 271.448538 187.708089 
L 270.362736 174.544009 
L 269.276935 150.748649 
L 268.191134 133.409314 
L 267.105333 112.163866 
L 266.019532 116.899043 
L 264.933731 128.567669 
L 263.847929 133.428312 
L 262.762128 114.24931 
L 261.676327 108.351826 
L 260.590526 141.080022 
L 259.504725 153.853039 
L 258.418924 159.090898 
L 257.333123 190.230501 
L 256.247321 159.109553 
L 255.16152 168.845709 
L 254.075719 182.174124 
L 252.989918 157.492821 
L 251.904117 211.806437 
L 250.818316 193.079315 
L 249.732514 187.371956 
L 248.646713 175.884758 
L 247.560912 186.648837 
L 246.475111 197.103716 
L 245.38931 172.662498 
L 244.303509 189.981163 
L 243.217708 170.177183 
L 242.131906 198.213739 
L 241.046105 214.694128 
L 239.960304 197.695096 
L 238.874503 157.720573 
L 237.788702 188.174791 
L 236.702901 158.445985 
L 235.617099 160.09106 
L 234.531298 178.42326 
L 233.445497 176.81368 
L 232.359696 216.662967 
L 231.273895 239.611432 
L 230.188094 210.494175 
L 229.102292 231.615874 
L 228.016491 216.025325 
L 226.93069 225.833954 
L 225.844889 193.390379 
L 224.759088 203.938294 
L 223.673287 206.594252 
L 222.587486 172.17641 
L 221.501684 181.806688 
L 220.415883 166.922218 
L 219.330082 177.930809 
L 218.244281 198.072638 
L 217.15848 175.95434 
L 216.072679 174.671913 
L 214.986877 188.770603 
L 213.901076 168.754835 
L 212.815275 189.676857 
L 211.729474 178.561691 
L 210.643673 221.886985 
L 209.557872 225.510206 
L 208.472071 241.513815 
L 207.386269 233.823378 
L 206.300468 214.83381 
L 205.214667 203.218487 
L 204.128866 194.413689 
L 203.043065 244.499438 
L 201.957264 239.880763 
L 200.871462 248.284427 
L 199.785661 233.084742 
L 198.69986 239.098818 
L 197.614059 230.786484 
L 196.528258 229.540682 
L 195.442457 233.009294 
L 194.356656 229.754508 
L 193.270854 214.070226 
L 192.185053 226.824734 
L 191.099252 204.956302 
L 190.013451 209.008009 
L 188.92765 218.330334 
L 187.841849 203.026322 
L 186.756047 212.241347 
L 185.670246 208.049873 
L 184.584445 237.87798 
L 183.498644 230.18699 
L 182.412843 239.680163 
L 181.327042 241.994175 
L 180.24124 215.087379 
L 179.155439 224.078309 
L 178.069638 241.102031 
L 176.983837 218.948783 
L 175.898036 217.548666 
L 174.812235 176.816775 
L 173.726434 160.514862 
L 172.640632 211.158136 
L 171.554831 210.071228 
L 170.46903 193.936478 
L 169.383229 218.685106 
L 168.297428 204.723061 
L 167.211627 240.421498 
L 166.125825 218.560633 
L 165.040024 197.969414 
L 163.954223 219.975825 
L 162.868422 228.76744 
L 161.782621 195.915835 
L 160.69682 196.000766 
L 159.611019 152.4428 
L 158.525217 169.156484 
L 157.439416 198.310424 
L 156.353615 202.030008 
L 155.267814 202.900161 
L 154.182013 183.923712 
L 153.096212 160.115636 
L 152.01041 199.624785 
L 150.924609 216.241438 
L 149.838808 166.229946 
L 148.753007 192.153328 
L 147.667206 211.95393 
L 146.581405 177.046914 
L 145.495604 220.689608 
L 144.409802 151.825972 
L 143.324001 169.816897 
L 142.2382 197.698993 
L 141.152399 223.933451 
L 140.066598 207.28613 
L 138.980797 186.325779 
L 137.894995 184.378806 
L 136.809194 175.638715 
L 135.723393 139.517524 
L 134.637592 162.925266 
L 133.551791 160.642265 
L 132.46599 168.327261 
L 131.380189 176.39751 
L 130.294387 161.376782 
L 129.208586 200.568335 
L 128.122785 184.548037 
L 127.036984 199.822447 
L 125.951183 214.144286 
L 124.865382 232.886482 
L 123.77958 173.412191 
L 122.693779 165.010484 
L 121.607978 148.341687 
L 120.522177 126.001055 
L 119.436376 141.018238 
L 118.350575 128.515675 
L 117.264773 143.703628 
L 116.178972 134.164649 
L 115.093171 141.858973 
L 114.00737 123.535803 
L 112.921569 116.419166 
L 111.835768 127.524611 
L 110.749967 108.095733 
L 109.664165 111.651161 
L 108.578364 135.544492 
L 107.492563 132.134293 
L 106.406762 157.311016 
L 105.320961 126.598789 
L 104.23516 142.033124 
L 103.149358 105.805241 
L 102.063557 122.094423 
L 100.977756 122.405326 
L 99.891955 96.84165 
L 98.806154 86.997469 
L 97.720353 97.456308 
L 96.634552 116.122417 
L 95.54875 130.656729 
L 94.462949 118.675417 
L 93.377148 139.231387 
L 92.291347 141.487098 
L 91.205546 123.201781 
L 90.119745 108.488309 
L 89.033943 111.638568 
L 87.948142 92.861817 
L 86.862341 136.765822 
L 85.77654 128.724338 
L 84.690739 127.877728 
L 83.604938 92.976306 
L 82.519137 79.283257 
L 81.433335 95.431708 
L 80.347534 120.995142 
L 79.261733 93.55965 
L 78.175932 92.692041 
L 77.090131 81.208579 
L 76.00433 66.257241 
L 74.918528 68.322818 
L 73.832727 53.568 
z
" style="fill:#0000ff;fill-opacity:0.25;"/>
   </g>
   <g id="matplotlib.axis_1">
    <g id="xtick_1">
     <g id="line2d_1">
      <defs>
       <path d="M 0 0 
L 0 3.5 
" id="md3bcfe40ae" style="stroke:#000000;stroke-width:0.8;"/>
      </defs>
      <g>
       <use style="stroke:#000000;stroke-width:0.8;" x="73.832727" xlink:href="#md3bcfe40ae" y="307.584"/>
      </g>
     </g>
     <g id="text_1">
      <!-- 0 -->
      <defs>
       <path d="M 31.78125 66.40625 
Q 24.171875 66.40625 20.328125 58.90625 
Q 16.5 51.421875 16.5 36.375 
Q 16.5 21.390625 20.328125 13.890625 
Q 24.171875 6.390625 31.78125 6.390625 
Q 39.453125 6.390625 43.28125 13.890625 
Q 47.125 21.390625 47.125 36.375 
Q 47.125 51.421875 43.28125 58.90625 
Q 39.453125 66.40625 31.78125 66.40625 
z
M 31.78125 74.21875 
Q 44.046875 74.21875 50.515625 64.515625 
Q 56.984375 54.828125 56.984375 36.375 
Q 56.984375 17.96875 50.515625 8.265625 
Q 44.046875 -1.421875 31.78125 -1.421875 
Q 19.53125 -1.421875 13.0625 8.265625 
Q 6.59375 17.96875 6.59375 36.375 
Q 6.59375 54.828125 13.0625 64.515625 
Q 19.53125 74.21875 31.78125 74.21875 
z
" id="DejaVuSans-48"/>
      </defs>
      <g transform="translate(70.651477 322.182437)scale(0.1 -0.1)">
       <use xlink:href="#DejaVuSans-48"/>
      </g>
     </g>
    </g>
    <g id="xtick_2">
     <g id="line2d_2">
      <g>
       <use style="stroke:#000000;stroke-width:0.8;" x="128.122785" xlink:href="#md3bcfe40ae" y="307.584"/>
      </g>
     </g>
     <g id="text_2">
      <!-- 50 -->
      <defs>
       <path d="M 10.796875 72.90625 
L 49.515625 72.90625 
L 49.515625 64.59375 
L 19.828125 64.59375 
L 19.828125 46.734375 
Q 21.96875 47.46875 24.109375 47.828125 
Q 26.265625 48.1875 28.421875 48.1875 
Q 40.625 48.1875 47.75 41.5 
Q 54.890625 34.8125 54.890625 23.390625 
Q 54.890625 11.625 47.5625 5.09375 
Q 40.234375 -1.421875 26.90625 -1.421875 
Q 22.3125 -1.421875 17.546875 -0.640625 
Q 12.796875 0.140625 7.71875 1.703125 
L 7.71875 11.625 
Q 12.109375 9.234375 16.796875 8.0625 
Q 21.484375 6.890625 26.703125 6.890625 
Q 35.15625 6.890625 40.078125 11.328125 
Q 45.015625 15.765625 45.015625 23.390625 
Q 45.015625 31 40.078125 35.4375 
Q 35.15625 39.890625 26.703125 39.890625 
Q 22.75 39.890625 18.8125 39.015625 
Q 14.890625 38.140625 10.796875 36.28125 
z
" id="DejaVuSans-53"/>
      </defs>
      <g transform="translate(121.760285 322.182437)scale(0.1 -0.1)">
       <use xlink:href="#DejaVuSans-53"/>
       <use x="63.623047" xlink:href="#DejaVuSans-48"/>
      </g>
     </g>
    </g>
    <g id="xtick_3">
     <g id="line2d_3">
      <g>
       <use style="stroke:#000000;stroke-width:0.8;" x="182.412843" xlink:href="#md3bcfe40ae" y="307.584"/>
      </g>
     </g>
     <g id="text_3">
      <!-- 100 -->
      <defs>
       <path d="M 12.40625 8.296875 
L 28.515625 8.296875 
L 28.515625 63.921875 
L 10.984375 60.40625 
L 10.984375 69.390625 
L 28.421875 72.90625 
L 38.28125 72.90625 
L 38.28125 8.296875 
L 54.390625 8.296875 
L 54.390625 0 
L 12.40625 0 
z
" id="DejaVuSans-49"/>
      </defs>
      <g transform="translate(172.869093 322.182437)scale(0.1 -0.1)">
       <use xlink:href="#DejaVuSans-49"/>
       <use x="63.623047" xlink:href="#DejaVuSans-48"/>
       <use x="127.246094" xlink:href="#DejaVuSans-48"/>
      </g>
     </g>
    </g>
    <g id="xtick_4">
     <g id="line2d_4">
      <g>
       <use style="stroke:#000000;stroke-width:0.8;" x="236.702901" xlink:href="#md3bcfe40ae" y="307.584"/>
      </g>
     </g>
     <g id="text_4">
      <!-- 150 -->
      <g transform="translate(227.159151 322.182437)scale(0.1 -0.1)">
       <use xlink:href="#DejaVuSans-49"/>
       <use x="63.623047" xlink:href="#DejaVuSans-53"/>
       <use x="127.246094" xlink:href="#DejaVuSans-48"/>
      </g>
     </g>
    </g>
    <g id="xtick_5">
     <g id="line2d_5">
      <g>
       <use style="stroke:#000000;stroke-width:0.8;" x="290.992958" xlink:href="#md3bcfe40ae" y="307.584"/>
      </g>
     </g>
     <g id="text_5">
      <!-- 200 -->
      <defs>
       <path d="M 19.1875 8.296875 
L 53.609375 8.296875 
L 53.609375 0 
L 7.328125 0 
L 7.328125 8.296875 
Q 12.9375 14.109375 22.625 23.890625 
Q 32.328125 33.6875 34.8125 36.53125 
Q 39.546875 41.84375 41.421875 45.53125 
Q 43.3125 49.21875 43.3125 52.78125 
Q 43.3125 58.59375 39.234375 62.25 
Q 35.15625 65.921875 28.609375 65.921875 
Q 23.96875 65.921875 18.8125 64.3125 
Q 13.671875 62.703125 7.8125 59.421875 
L 7.8125 69.390625 
Q 13.765625 71.78125 18.9375 73 
Q 24.125 74.21875 28.421875 74.21875 
Q 39.75 74.21875 46.484375 68.546875 
Q 53.21875 62.890625 53.21875 53.421875 
Q 53.21875 48.921875 51.53125 44.890625 
Q 49.859375 40.875 45.40625 35.40625 
Q 44.1875 33.984375 37.640625 27.21875 
Q 31.109375 20.453125 19.1875 8.296875 
z
" id="DejaVuSans-50"/>
      </defs>
      <g transform="translate(281.449208 322.182437)scale(0.1 -0.1)">
       <use xlink:href="#DejaVuSans-50"/>
       <use x="63.623047" xlink:href="#DejaVuSans-48"/>
       <use x="127.246094" xlink:href="#DejaVuSans-48"/>
      </g>
     </g>
    </g>
    <g id="xtick_6">
     <g id="line2d_6">
      <g>
       <use style="stroke:#000000;stroke-width:0.8;" x="345.283016" xlink:href="#md3bcfe40ae" y="307.584"/>
      </g>
     </g>
     <g id="text_6">
      <!-- 250 -->
      <g transform="translate(335.739266 322.182437)scale(0.1 -0.1)">
       <use xlink:href="#DejaVuSans-50"/>
       <use x="63.623047" xlink:href="#DejaVuSans-53"/>
       <use x="127.246094" xlink:href="#DejaVuSans-48"/>
      </g>
     </g>
    </g>
    <g id="xtick_7">
     <g id="line2d_7">
      <g>
       <use style="stroke:#000000;stroke-width:0.8;" x="399.573074" xlink:href="#md3bcfe40ae" y="307.584"/>
      </g>
     </g>
     <g id="text_7">
      <!-- 300 -->
      <defs>
       <path d="M 40.578125 39.3125 
Q 47.65625 37.796875 51.625 33 
Q 55.609375 28.21875 55.609375 21.1875 
Q 55.609375 10.40625 48.1875 4.484375 
Q 40.765625 -1.421875 27.09375 -1.421875 
Q 22.515625 -1.421875 17.65625 -0.515625 
Q 12.796875 0.390625 7.625 2.203125 
L 7.625 11.71875 
Q 11.71875 9.328125 16.59375 8.109375 
Q 21.484375 6.890625 26.8125 6.890625 
Q 36.078125 6.890625 40.9375 10.546875 
Q 45.796875 14.203125 45.796875 21.1875 
Q 45.796875 27.640625 41.28125 31.265625 
Q 36.765625 34.90625 28.71875 34.90625 
L 20.21875 34.90625 
L 20.21875 43.015625 
L 29.109375 43.015625 
Q 36.375 43.015625 40.234375 45.921875 
Q 44.09375 48.828125 44.09375 54.296875 
Q 44.09375 59.90625 40.109375 62.90625 
Q 36.140625 65.921875 28.71875 65.921875 
Q 24.65625 65.921875 20.015625 65.03125 
Q 15.375 64.15625 9.8125 62.3125 
L 9.8125 71.09375 
Q 15.4375 72.65625 20.34375 73.4375 
Q 25.25 74.21875 29.59375 74.21875 
Q 40.828125 74.21875 47.359375 69.109375 
Q 53.90625 64.015625 53.90625 55.328125 
Q 53.90625 49.265625 50.4375 45.09375 
Q 46.96875 40.921875 40.578125 39.3125 
z
" id="DejaVuSans-51"/>
      </defs>
      <g transform="translate(390.029324 322.182437)scale(0.1 -0.1)">
       <use xlink:href="#DejaVuSans-51"/>
       <use x="63.623047" xlink:href="#DejaVuSans-48"/>
       <use x="127.246094" xlink:href="#DejaVuSans-48"/>
      </g>
     </g>
    </g>
   </g>
   <g id="matplotlib.axis_2">
    <g id="ytick_1">
     <g id="line2d_8">
      <defs>
       <path d="M 0 0 
L -3.5 0 
" id="m035cb2430f" style="stroke:#000000;stroke-width:0.8;"/>
      </defs>
      <g>
       <use style="stroke:#000000;stroke-width:0.8;" x="57.6" xlink:href="#m035cb2430f" y="281.127702"/>
      </g>
     </g>
     <g id="text_8">
      <!-- 0.6 -->
      <defs>
       <path d="M 10.6875 12.40625 
L 21 12.40625 
L 21 0 
L 10.6875 0 
z
" id="DejaVuSans-46"/>
       <path d="M 33.015625 40.375 
Q 26.375 40.375 22.484375 35.828125 
Q 18.609375 31.296875 18.609375 23.390625 
Q 18.609375 15.53125 22.484375 10.953125 
Q 26.375 6.390625 33.015625 6.390625 
Q 39.65625 6.390625 43.53125 10.953125 
Q 47.40625 15.53125 47.40625 23.390625 
Q 47.40625 31.296875 43.53125 35.828125 
Q 39.65625 40.375 33.015625 40.375 
z
M 52.59375 71.296875 
L 52.59375 62.3125 
Q 48.875 64.0625 45.09375 64.984375 
Q 41.3125 65.921875 37.59375 65.921875 
Q 27.828125 65.921875 22.671875 59.328125 
Q 17.53125 52.734375 16.796875 39.40625 
Q 19.671875 43.65625 24.015625 45.921875 
Q 28.375 48.1875 33.59375 48.1875 
Q 44.578125 48.1875 50.953125 41.515625 
Q 57.328125 34.859375 57.328125 23.390625 
Q 57.328125 12.15625 50.6875 5.359375 
Q 44.046875 -1.421875 33.015625 -1.421875 
Q 20.359375 -1.421875 13.671875 8.265625 
Q 6.984375 17.96875 6.984375 36.375 
Q 6.984375 53.65625 15.1875 63.9375 
Q 23.390625 74.21875 37.203125 74.21875 
Q 40.921875 74.21875 44.703125 73.484375 
Q 48.484375 72.75 52.59375 71.296875 
z
" id="DejaVuSans-54"/>
      </defs>
      <g transform="translate(34.696875 284.926921)scale(0.1 -0.1)">
       <use xlink:href="#DejaVuSans-48"/>
       <use x="63.623047" xlink:href="#DejaVuSans-46"/>
       <use x="95.410156" xlink:href="#DejaVuSans-54"/>
      </g>
     </g>
    </g>
    <g id="ytick_2">
     <g id="line2d_9">
      <g>
       <use style="stroke:#000000;stroke-width:0.8;" x="57.6" xlink:href="#m035cb2430f" y="243.310507"/>
      </g>
     </g>
     <g id="text_9">
      <!-- 0.8 -->
      <defs>
       <path d="M 31.78125 34.625 
Q 24.75 34.625 20.71875 30.859375 
Q 16.703125 27.09375 16.703125 20.515625 
Q 16.703125 13.921875 20.71875 10.15625 
Q 24.75 6.390625 31.78125 6.390625 
Q 38.8125 6.390625 42.859375 10.171875 
Q 46.921875 13.96875 46.921875 20.515625 
Q 46.921875 27.09375 42.890625 30.859375 
Q 38.875 34.625 31.78125 34.625 
z
M 21.921875 38.8125 
Q 15.578125 40.375 12.03125 44.71875 
Q 8.5 49.078125 8.5 55.328125 
Q 8.5 64.0625 14.71875 69.140625 
Q 20.953125 74.21875 31.78125 74.21875 
Q 42.671875 74.21875 48.875 69.140625 
Q 55.078125 64.0625 55.078125 55.328125 
Q 55.078125 49.078125 51.53125 44.71875 
Q 48 40.375 41.703125 38.8125 
Q 48.828125 37.15625 52.796875 32.3125 
Q 56.78125 27.484375 56.78125 20.515625 
Q 56.78125 9.90625 50.3125 4.234375 
Q 43.84375 -1.421875 31.78125 -1.421875 
Q 19.734375 -1.421875 13.25 4.234375 
Q 6.78125 9.90625 6.78125 20.515625 
Q 6.78125 27.484375 10.78125 32.3125 
Q 14.796875 37.15625 21.921875 38.8125 
z
M 18.3125 54.390625 
Q 18.3125 48.734375 21.84375 45.5625 
Q 25.390625 42.390625 31.78125 42.390625 
Q 38.140625 42.390625 41.71875 45.5625 
Q 45.3125 48.734375 45.3125 54.390625 
Q 45.3125 60.0625 41.71875 63.234375 
Q 38.140625 66.40625 31.78125 66.40625 
Q 25.390625 66.40625 21.84375 63.234375 
Q 18.3125 60.0625 18.3125 54.390625 
z
" id="DejaVuSans-56"/>
      </defs>
      <g transform="translate(34.696875 247.109725)scale(0.1 -0.1)">
       <use xlink:href="#DejaVuSans-48"/>
       <use x="63.623047" xlink:href="#DejaVuSans-46"/>
       <use x="95.410156" xlink:href="#DejaVuSans-56"/>
      </g>
     </g>
    </g>
    <g id="ytick_3">
     <g id="line2d_10">
      <g>
       <use style="stroke:#000000;stroke-width:0.8;" x="57.6" xlink:href="#m035cb2430f" y="205.493312"/>
      </g>
     </g>
     <g id="text_10">
      <!-- 1.0 -->
      <g transform="translate(34.696875 209.29253)scale(0.1 -0.1)">
       <use xlink:href="#DejaVuSans-49"/>
       <use x="63.623047" xlink:href="#DejaVuSans-46"/>
       <use x="95.410156" xlink:href="#DejaVuSans-48"/>
      </g>
     </g>
    </g>
    <g id="ytick_4">
     <g id="line2d_11">
      <g>
       <use style="stroke:#000000;stroke-width:0.8;" x="57.6" xlink:href="#m035cb2430f" y="167.676116"/>
      </g>
     </g>
     <g id="text_11">
      <!-- 1.2 -->
      <g transform="translate(34.696875 171.475335)scale(0.1 -0.1)">
       <use xlink:href="#DejaVuSans-49"/>
       <use x="63.623047" xlink:href="#DejaVuSans-46"/>
       <use x="95.410156" xlink:href="#DejaVuSans-50"/>
      </g>
     </g>
    </g>
    <g id="ytick_5">
     <g id="line2d_12">
      <g>
       <use style="stroke:#000000;stroke-width:0.8;" x="57.6" xlink:href="#m035cb2430f" y="129.858921"/>
      </g>
     </g>
     <g id="text_12">
      <!-- 1.4 -->
      <defs>
       <path d="M 37.796875 64.3125 
L 12.890625 25.390625 
L 37.796875 25.390625 
z
M 35.203125 72.90625 
L 47.609375 72.90625 
L 47.609375 25.390625 
L 58.015625 25.390625 
L 58.015625 17.1875 
L 47.609375 17.1875 
L 47.609375 0 
L 37.796875 0 
L 37.796875 17.1875 
L 4.890625 17.1875 
L 4.890625 26.703125 
z
" id="DejaVuSans-52"/>
      </defs>
      <g transform="translate(34.696875 133.65814)scale(0.1 -0.1)">
       <use xlink:href="#DejaVuSans-49"/>
       <use x="63.623047" xlink:href="#DejaVuSans-46"/>
       <use x="95.410156" xlink:href="#DejaVuSans-52"/>
      </g>
     </g>
    </g>
    <g id="ytick_6">
     <g id="line2d_13">
      <g>
       <use style="stroke:#000000;stroke-width:0.8;" x="57.6" xlink:href="#m035cb2430f" y="92.041726"/>
      </g>
     </g>
     <g id="text_13">
      <!-- 1.6 -->
      <g transform="translate(34.696875 95.840945)scale(0.1 -0.1)">
       <use xlink:href="#DejaVuSans-49"/>
       <use x="63.623047" xlink:href="#DejaVuSans-46"/>
       <use x="95.410156" xlink:href="#DejaVuSans-54"/>
      </g>
     </g>
    </g>
    <g id="ytick_7">
     <g id="line2d_14">
      <g>
       <use style="stroke:#000000;stroke-width:0.8;" x="57.6" xlink:href="#m035cb2430f" y="54.224531"/>
      </g>
     </g>
     <g id="text_14">
      <!-- 1.8 -->
      <g transform="translate(34.696875 58.02375)scale(0.1 -0.1)">
       <use xlink:href="#DejaVuSans-49"/>
       <use x="63.623047" xlink:href="#DejaVuSans-46"/>
       <use x="95.410156" xlink:href="#DejaVuSans-56"/>
      </g>
     </g>
    </g>
    <g id="text_15">
     <!-- Distance -->
     <defs>
      <path d="M 19.671875 64.796875 
L 19.671875 8.109375 
L 31.59375 8.109375 
Q 46.6875 8.109375 53.6875 14.9375 
Q 60.6875 21.78125 60.6875 36.53125 
Q 60.6875 51.171875 53.6875 57.984375 
Q 46.6875 64.796875 31.59375 64.796875 
z
M 9.8125 72.90625 
L 30.078125 72.90625 
Q 51.265625 72.90625 61.171875 64.09375 
Q 71.09375 55.28125 71.09375 36.53125 
Q 71.09375 17.671875 61.125 8.828125 
Q 51.171875 0 30.078125 0 
L 9.8125 0 
z
" id="DejaVuSans-68"/>
      <path d="M 9.421875 54.6875 
L 18.40625 54.6875 
L 18.40625 0 
L 9.421875 0 
z
M 9.421875 75.984375 
L 18.40625 75.984375 
L 18.40625 64.59375 
L 9.421875 64.59375 
z
" id="DejaVuSans-105"/>
      <path d="M 44.28125 53.078125 
L 44.28125 44.578125 
Q 40.484375 46.53125 36.375 47.5 
Q 32.28125 48.484375 27.875 48.484375 
Q 21.1875 48.484375 17.84375 46.4375 
Q 14.5 44.390625 14.5 40.28125 
Q 14.5 37.15625 16.890625 35.375 
Q 19.28125 33.59375 26.515625 31.984375 
L 29.59375 31.296875 
Q 39.15625 29.25 43.1875 25.515625 
Q 47.21875 21.78125 47.21875 15.09375 
Q 47.21875 7.46875 41.1875 3.015625 
Q 35.15625 -1.421875 24.609375 -1.421875 
Q 20.21875 -1.421875 15.453125 -0.5625 
Q 10.6875 0.296875 5.421875 2 
L 5.421875 11.28125 
Q 10.40625 8.6875 15.234375 7.390625 
Q 20.0625 6.109375 24.8125 6.109375 
Q 31.15625 6.109375 34.5625 8.28125 
Q 37.984375 10.453125 37.984375 14.40625 
Q 37.984375 18.0625 35.515625 20.015625 
Q 33.0625 21.96875 24.703125 23.78125 
L 21.578125 24.515625 
Q 13.234375 26.265625 9.515625 29.90625 
Q 5.8125 33.546875 5.8125 39.890625 
Q 5.8125 47.609375 11.28125 51.796875 
Q 16.75 56 26.8125 56 
Q 31.78125 56 36.171875 55.265625 
Q 40.578125 54.546875 44.28125 53.078125 
z
" id="DejaVuSans-115"/>
      <path d="M 18.3125 70.21875 
L 18.3125 54.6875 
L 36.8125 54.6875 
L 36.8125 47.703125 
L 18.3125 47.703125 
L 18.3125 18.015625 
Q 18.3125 11.328125 20.140625 9.421875 
Q 21.96875 7.515625 27.59375 7.515625 
L 36.8125 7.515625 
L 36.8125 0 
L 27.59375 0 
Q 17.1875 0 13.234375 3.875 
Q 9.28125 7.765625 9.28125 18.015625 
L 9.28125 47.703125 
L 2.6875 47.703125 
L 2.6875 54.6875 
L 9.28125 54.6875 
L 9.28125 70.21875 
z
" id="DejaVuSans-116"/>
      <path d="M 34.28125 27.484375 
Q 23.390625 27.484375 19.1875 25 
Q 14.984375 22.515625 14.984375 16.5 
Q 14.984375 11.71875 18.140625 8.90625 
Q 21.296875 6.109375 26.703125 6.109375 
Q 34.1875 6.109375 38.703125 11.40625 
Q 43.21875 16.703125 43.21875 25.484375 
L 43.21875 27.484375 
z
M 52.203125 31.203125 
L 52.203125 0 
L 43.21875 0 
L 43.21875 8.296875 
Q 40.140625 3.328125 35.546875 0.953125 
Q 30.953125 -1.421875 24.3125 -1.421875 
Q 15.921875 -1.421875 10.953125 3.296875 
Q 6 8.015625 6 15.921875 
Q 6 25.140625 12.171875 29.828125 
Q 18.359375 34.515625 30.609375 34.515625 
L 43.21875 34.515625 
L 43.21875 35.40625 
Q 43.21875 41.609375 39.140625 45 
Q 35.0625 48.390625 27.6875 48.390625 
Q 23 48.390625 18.546875 47.265625 
Q 14.109375 46.140625 10.015625 43.890625 
L 10.015625 52.203125 
Q 14.9375 54.109375 19.578125 55.046875 
Q 24.21875 56 28.609375 56 
Q 40.484375 56 46.34375 49.84375 
Q 52.203125 43.703125 52.203125 31.203125 
z
" id="DejaVuSans-97"/>
      <path d="M 54.890625 33.015625 
L 54.890625 0 
L 45.90625 0 
L 45.90625 32.71875 
Q 45.90625 40.484375 42.875 44.328125 
Q 39.84375 48.1875 33.796875 48.1875 
Q 26.515625 48.1875 22.3125 43.546875 
Q 18.109375 38.921875 18.109375 30.90625 
L 18.109375 0 
L 9.078125 0 
L 9.078125 54.6875 
L 18.109375 54.6875 
L 18.109375 46.1875 
Q 21.34375 51.125 25.703125 53.5625 
Q 30.078125 56 35.796875 56 
Q 45.21875 56 50.046875 50.171875 
Q 54.890625 44.34375 54.890625 33.015625 
z
" id="DejaVuSans-110"/>
      <path d="M 48.78125 52.59375 
L 48.78125 44.1875 
Q 44.96875 46.296875 41.140625 47.34375 
Q 37.3125 48.390625 33.40625 48.390625 
Q 24.65625 48.390625 19.8125 42.84375 
Q 14.984375 37.3125 14.984375 27.296875 
Q 14.984375 17.28125 19.8125 11.734375 
Q 24.65625 6.203125 33.40625 6.203125 
Q 37.3125 6.203125 41.140625 7.25 
Q 44.96875 8.296875 48.78125 10.40625 
L 48.78125 2.09375 
Q 45.015625 0.34375 40.984375 -0.53125 
Q 36.96875 -1.421875 32.421875 -1.421875 
Q 20.0625 -1.421875 12.78125 6.34375 
Q 5.515625 14.109375 5.515625 27.296875 
Q 5.515625 40.671875 12.859375 48.328125 
Q 20.21875 56 33.015625 56 
Q 37.15625 56 41.109375 55.140625 
Q 45.0625 54.296875 48.78125 52.59375 
z
" id="DejaVuSans-99"/>
      <path d="M 56.203125 29.59375 
L 56.203125 25.203125 
L 14.890625 25.203125 
Q 15.484375 15.921875 20.484375 11.0625 
Q 25.484375 6.203125 34.421875 6.203125 
Q 39.59375 6.203125 44.453125 7.46875 
Q 49.3125 8.734375 54.109375 11.28125 
L 54.109375 2.78125 
Q 49.265625 0.734375 44.1875 -0.34375 
Q 39.109375 -1.421875 33.890625 -1.421875 
Q 20.796875 -1.421875 13.15625 6.1875 
Q 5.515625 13.8125 5.515625 26.8125 
Q 5.515625 40.234375 12.765625 48.109375 
Q 20.015625 56 32.328125 56 
Q 43.359375 56 49.78125 48.890625 
Q 56.203125 41.796875 56.203125 29.59375 
z
M 47.21875 32.234375 
Q 47.125 39.59375 43.09375 43.984375 
Q 39.0625 48.390625 32.421875 48.390625 
Q 24.90625 48.390625 20.390625 44.140625 
Q 15.875 39.890625 15.1875 32.171875 
z
" id="DejaVuSans-101"/>
     </defs>
     <g transform="translate(28.617187 196.3905)rotate(-90)scale(0.1 -0.1)">
      <use xlink:href="#DejaVuSans-68"/>
      <use x="77.001953" xlink:href="#DejaVuSans-105"/>
      <use x="104.785156" xlink:href="#DejaVuSans-115"/>
      <use x="156.884766" xlink:href="#DejaVuSans-116"/>
      <use x="196.09375" xlink:href="#DejaVuSans-97"/>
      <use x="257.373047" xlink:href="#DejaVuSans-110"/>
      <use x="320.751953" xlink:href="#DejaVuSans-99"/>
      <use x="375.732422" xlink:href="#DejaVuSans-101"/>
     </g>
    </g>
   </g>
   <g id="line2d_15">
    <path clip-path="url(#pbd66886957)" d="M 73.832727 56.113666 
L 74.918528 73.167749 
L 76.00433 70.791336 
L 77.090131 90.668443 
L 78.175932 99.511263 
L 79.261733 101.965061 
L 80.347534 128.961774 
L 81.433335 104.501117 
L 82.519137 90.87864 
L 83.604938 99.360161 
L 84.690739 138.535332 
L 85.77654 139.878832 
L 86.862341 145.115059 
L 87.948142 100.229682 
L 89.033943 129.020933 
L 90.119745 120.193751 
L 91.205546 130.361518 
L 92.291347 148.089305 
L 93.377148 144.419176 
L 94.462949 129.820225 
L 95.54875 138.587394 
L 96.634552 123.677842 
L 97.720353 106.062287 
L 98.806154 93.62602 
L 99.891955 104.173734 
L 100.977756 126.058554 
L 102.063557 132.30612 
L 103.149358 114.392648 
L 104.23516 154.778829 
L 105.320961 131.721372 
L 106.406762 159.830834 
L 107.492563 139.74432 
L 108.578364 140.837184 
L 109.664165 114.787143 
L 110.749967 114.140266 
L 111.835768 139.702336 
L 112.921569 122.637453 
L 114.00737 128.711092 
L 115.093171 143.480681 
L 116.178972 148.106873 
L 117.264773 150.73307 
L 118.350575 141.69208 
L 119.436376 153.193178 
L 120.522177 143.271052 
L 121.607978 159.852952 
L 122.693779 179.044451 
L 123.77958 183.213075 
L 124.865382 240.656377 
L 125.951183 220.440015 
L 128.122785 199.450083 
L 129.208586 213.32072 
L 130.294387 178.582865 
L 131.380189 182.00164 
L 132.46599 187.459611 
L 133.551791 175.627557 
L 134.637592 175.742161 
L 135.723393 150.682536 
L 136.809194 186.08858 
L 137.894995 197.874608 
L 138.980797 193.281443 
L 140.066598 222.350993 
L 141.152399 238.760477 
L 142.2382 204.57219 
L 143.324001 179.548512 
L 144.409802 159.478001 
L 145.495604 227.69389 
L 146.581405 185.018629 
L 147.667206 222.605922 
L 148.753007 201.014464 
L 149.838808 185.789627 
L 150.924609 228.640836 
L 152.01041 209.132915 
L 153.096212 168.062787 
L 154.182013 198.794153 
L 155.267814 209.75646 
L 156.353615 216.549637 
L 157.439416 204.902733 
L 159.611019 162.2305 
L 160.69682 209.950151 
L 161.782621 207.645148 
L 162.868422 234.21207 
L 163.954223 233.015462 
L 165.040024 201.563034 
L 166.125825 226.648666 
L 167.211627 246.162451 
L 168.297428 214.168927 
L 169.383229 233.168857 
L 170.46903 208.318917 
L 171.554831 220.498583 
L 172.640632 219.434016 
L 173.726434 165.438456 
L 174.812235 192.908588 
L 175.898036 227.513278 
L 176.983837 242.838531 
L 178.069638 247.837453 
L 179.155439 245.247498 
L 180.24124 226.10786 
L 181.327042 254.112206 
L 182.412843 252.10546 
L 183.498644 241.086698 
L 184.584445 246.328134 
L 185.670246 228.017214 
L 186.756047 233.137988 
L 187.841849 223.613354 
L 188.92765 239.688077 
L 190.013451 228.966782 
L 191.099252 216.351232 
L 192.185053 235.429732 
L 193.270854 228.759311 
L 194.356656 239.550136 
L 195.442457 247.551223 
L 196.528258 244.103648 
L 198.69986 243.73699 
L 199.785661 238.317099 
L 200.871462 266.061143 
L 201.957264 248.937452 
L 203.043065 249.007344 
L 204.128866 203.983632 
L 205.214667 211.910894 
L 206.300468 221.282503 
L 207.386269 241.259535 
L 208.472071 256.064925 
L 209.557872 235.290408 
L 210.643673 230.85457 
L 211.729474 185.944482 
L 212.815275 197.077634 
L 213.901076 175.564354 
L 214.986877 192.962069 
L 216.072679 179.234133 
L 217.15848 183.827722 
L 218.244281 205.441622 
L 220.415883 171.699178 
L 221.501684 191.779845 
L 222.587486 184.914842 
L 223.673287 216.265345 
L 224.759088 210.74196 
L 225.844889 201.970303 
L 226.93069 228.005642 
L 228.016491 219.413979 
L 229.102292 241.747145 
L 230.188094 218.646349 
L 231.273895 246.04645 
L 232.359696 228.904358 
L 233.445497 195.333946 
L 235.617099 173.933892 
L 236.702901 168.122119 
L 237.788702 203.995561 
L 238.874503 170.838954 
L 239.960304 205.018066 
L 241.046105 223.14653 
L 242.131906 208.167039 
L 243.217708 186.567659 
L 244.303509 210.271481 
L 245.38931 192.82403 
L 246.475111 208.396084 
L 247.560912 212.949643 
L 248.646713 189.760589 
L 249.732514 200.236218 
L 250.818316 216.580369 
L 251.904117 221.358922 
L 252.989918 171.67956 
L 254.075719 191.543878 
L 255.16152 191.064743 
L 256.247321 184.861379 
L 257.333123 197.229825 
L 258.418924 167.598778 
L 259.504725 163.590953 
L 260.590526 156.557241 
L 261.676327 119.237335 
L 262.762128 126.661919 
L 263.847929 146.130276 
L 264.933731 143.437895 
L 266.019532 132.33632 
L 267.105333 129.594659 
L 268.191134 136.111094 
L 269.276935 154.992444 
L 270.362736 184.72097 
L 271.448538 199.929722 
L 272.534339 182.720623 
L 273.62014 187.285474 
L 274.705941 182.00078 
L 275.791742 172.327589 
L 276.877543 176.293471 
L 277.963344 177.750469 
L 279.049146 153.561386 
L 280.134947 155.410425 
L 281.220748 175.289787 
L 282.306549 162.579296 
L 283.39235 180.517643 
L 284.478151 190.962497 
L 285.563953 195.015805 
L 286.649754 192.64317 
L 287.735555 167.468013 
L 288.821356 156.945866 
L 289.907157 159.624929 
L 290.992958 148.466588 
L 292.07876 185.039413 
L 293.164561 170.278557 
L 294.250362 177.646257 
L 295.336163 183.664446 
L 296.421964 183.12464 
L 297.507765 184.920206 
L 298.593566 213.562537 
L 299.679368 204.922053 
L 300.765169 188.255042 
L 301.85097 181.155192 
L 302.936771 176.089647 
L 304.022572 182.671223 
L 305.108373 213.392926 
L 307.279976 158.815399 
L 308.365777 162.286332 
L 309.451578 175.981116 
L 310.537379 165.262243 
L 311.62318 166.469843 
L 312.708981 169.387894 
L 313.794783 167.460396 
L 314.880584 168.000094 
L 315.966385 183.626984 
L 317.052186 185.608891 
L 318.137987 199.566699 
L 319.223788 198.975791 
L 320.30959 208.202655 
L 321.395391 195.929115 
L 322.481192 223.178685 
L 323.566993 211.514498 
L 324.652794 192.176703 
L 325.738595 176.926179 
L 326.824396 173.553583 
L 327.910198 173.856564 
L 328.995999 171.982869 
L 330.0818 173.823258 
L 331.167601 182.065742 
L 332.253402 188.285828 
L 333.339203 200.408666 
L 334.425005 200.253468 
L 335.510806 180.695007 
L 336.596607 188.057481 
L 337.682408 176.923192 
L 338.768209 203.167222 
L 339.85401 219.1367 
L 340.939811 201.359791 
L 342.025613 171.201484 
L 343.111414 174.044645 
L 344.197215 175.305115 
L 345.283016 170.820721 
L 346.368817 183.805444 
L 347.454618 200.523343 
L 348.54042 213.53633 
L 349.626221 212.728001 
L 350.712022 207.014455 
L 351.797823 207.112386 
L 352.883624 235.451678 
L 353.969425 227.645983 
L 355.055227 243.671797 
L 356.141028 222.82117 
L 357.226829 229.752104 
L 358.31263 218.887557 
L 359.398431 234.056577 
L 360.484232 235.651969 
L 361.570033 220.966762 
L 362.655835 226.688635 
L 363.741636 237.019394 
L 364.827437 252.483579 
L 365.913238 260.210148 
L 368.08484 220.254881 
L 369.170642 227.17249 
L 370.256443 228.69394 
L 371.342244 231.014811 
L 372.428045 252.887681 
L 373.513846 256.347475 
L 374.599647 236.46615 
L 375.685448 257.427039 
L 376.77125 261.877869 
L 377.857051 228.03039 
L 378.942852 230.923848 
L 380.028653 249.057115 
L 381.114454 233.304747 
L 382.200255 222.343593 
L 383.286057 261.317025 
L 384.371858 267.338389 
L 385.457659 264.284167 
L 386.54346 256.990593 
L 387.629261 259.317145 
L 388.715062 215.645785 
L 389.800863 189.449101 
L 390.886665 196.521745 
L 391.972466 198.979917 
L 393.058267 204.296551 
L 394.144068 239.92322 
L 395.229869 203.800315 
L 396.31567 238.617796 
L 397.401472 266.17903 
L 398.487273 249.897713 
L 398.487273 249.897713 
" style="fill:none;stroke:#0000ff;stroke-linecap:square;stroke-width:1.5;"/>
   </g>
   <g id="patch_3">
    <path d="M 57.6 307.584 
L 57.6 41.472 
" style="fill:none;stroke:#000000;stroke-linecap:square;stroke-linejoin:miter;stroke-width:0.8;"/>
   </g>
   <g id="patch_4">
    <path d="M 414.72 307.584 
L 414.72 41.472 
" style="fill:none;stroke:#000000;stroke-linecap:square;stroke-linejoin:miter;stroke-width:0.8;"/>
   </g>
   <g id="patch_5">
    <path d="M 57.6 307.584 
L 414.72 307.584 
" style="fill:none;stroke:#000000;stroke-linecap:square;stroke-linejoin:miter;stroke-width:0.8;"/>
   </g>
   <g id="patch_6">
    <path d="M 57.6 41.472 
L 414.72 41.472 
" style="fill:none;stroke:#000000;stroke-linecap:square;stroke-linejoin:miter;stroke-width:0.8;"/>
   </g>
  </g>
  <g id="axes_2">
   <g id="PolyCollection_2">
    <path clip-path="url(#pbd66886957)" d="M 73.832727 78.590438 
L 73.832727 258.559709 
L 74.918528 267.351035 
L 76.00433 267.016544 
L 77.090131 262.712744 
L 78.175932 248.109045 
L 79.261733 242.941456 
L 80.347534 250.670141 
L 81.433335 251.617253 
L 82.519137 261.696205 
L 83.604938 266.69798 
L 84.690739 272.941454 
L 85.77654 273.212982 
L 86.862341 264.925945 
L 87.948142 255.951746 
L 89.033943 250.86399 
L 90.119745 253.2373 
L 91.205546 254.368979 
L 92.291347 267.433666 
L 93.377148 274.297466 
L 94.462949 272.742593 
L 95.54875 267.482719 
L 96.634552 263.314645 
L 97.720353 250.69364 
L 98.806154 251.453021 
L 99.891955 261.852975 
L 100.977756 260.401937 
L 102.063557 266.323234 
L 103.149358 273.670774 
L 104.23516 279.783079 
L 105.320961 270.785241 
L 106.406762 274.682507 
L 107.492563 274.326125 
L 108.578364 274.912799 
L 109.664165 269.706513 
L 110.749967 266.923585 
L 111.835768 266.418847 
L 112.921569 267.488342 
L 114.00737 266.548337 
L 115.093171 261.78201 
L 116.178972 269.060233 
L 117.264773 272.963229 
L 118.350575 274.903429 
L 119.436376 274.224337 
L 120.522177 273.645432 
L 121.607978 271.335067 
L 122.693779 281.745939 
L 123.77958 285.020913 
L 124.865382 288.46197 
L 125.951183 287.490388 
L 127.036984 287.519709 
L 128.122785 288.167571 
L 129.208586 289.830319 
L 130.294387 286.307487 
L 131.380189 280.281878 
L 132.46599 282.562822 
L 133.551791 278.94613 
L 134.637592 280.548652 
L 135.723393 277.388425 
L 136.809194 285.206134 
L 137.894995 285.891118 
L 138.980797 286.233592 
L 140.066598 282.652888 
L 141.152399 282.97396 
L 142.2382 279.805 
L 143.324001 279.964662 
L 144.409802 281.723148 
L 145.495604 283.605723 
L 146.581405 282.732174 
L 147.667206 285.095538 
L 148.753007 287.458749 
L 149.838808 287.315096 
L 150.924609 288.18457 
L 152.01041 285.210842 
L 153.096212 287.204661 
L 154.182013 290.267269 
L 155.267814 283.111492 
L 156.353615 281.046323 
L 157.439416 286.242153 
L 158.525217 284.016321 
L 159.611019 282.050636 
L 160.69682 290.580561 
L 161.782621 292.128568 
L 162.868422 292.634832 
L 163.954223 292.178973 
L 165.040024 289.066964 
L 166.125825 293.408954 
L 167.211627 291.583388 
L 168.297428 290.511546 
L 169.383229 293.649687 
L 170.46903 291.255829 
L 171.554831 291.104919 
L 172.640632 286.387674 
L 173.726434 277.575175 
L 174.812235 287.221343 
L 175.898036 290.354907 
L 176.983837 290.950603 
L 178.069638 289.685132 
L 179.155439 291.025131 
L 180.24124 292.771428 
L 181.327042 291.75276 
L 182.412843 293.285137 
L 183.498644 291.928522 
L 184.584445 293.179101 
L 185.670246 293.937196 
L 186.756047 291.258723 
L 187.841849 289.90258 
L 188.92765 291.817178 
L 190.013451 292.805508 
L 191.099252 293.739789 
L 192.185053 293.259319 
L 193.270854 293.083401 
L 194.356656 291.683906 
L 195.442457 292.219563 
L 196.528258 292.097287 
L 197.614059 294.127026 
L 198.69986 293.403625 
L 199.785661 291.295379 
L 200.871462 292.654114 
L 201.957264 292.343492 
L 203.043065 291.692799 
L 204.128866 292.378504 
L 205.214667 290.363321 
L 206.300468 290.919098 
L 207.386269 291.041593 
L 208.472071 291.74483 
L 209.557872 290.528968 
L 210.643673 292.404045 
L 211.729474 288.68403 
L 212.815275 289.755616 
L 213.901076 289.506438 
L 214.986877 285.976177 
L 216.072679 286.495541 
L 217.15848 286.856238 
L 218.244281 286.404908 
L 219.330082 287.996575 
L 220.415883 283.214241 
L 221.501684 282.615705 
L 222.587486 287.306903 
L 223.673287 286.271914 
L 224.759088 288.092679 
L 225.844889 289.520901 
L 226.93069 291.107048 
L 228.016491 290.096228 
L 229.102292 291.263202 
L 230.188094 289.661243 
L 231.273895 289.264079 
L 232.359696 289.958344 
L 233.445497 289.840474 
L 234.531298 284.977605 
L 235.617099 285.315944 
L 236.702901 284.261965 
L 237.788702 284.174938 
L 238.874503 283.225129 
L 239.960304 286.269926 
L 241.046105 290.124474 
L 242.131906 291.465443 
L 243.217708 290.573859 
L 244.303509 291.407275 
L 245.38931 289.636303 
L 246.475111 290.883792 
L 247.560912 292.307694 
L 248.646713 288.112759 
L 249.732514 289.233743 
L 250.818316 292.086837 
L 251.904117 289.548524 
L 252.989918 286.473345 
L 254.075719 285.911269 
L 255.16152 284.858942 
L 256.247321 287.915274 
L 257.333123 285.821091 
L 258.418924 283.379899 
L 259.504725 282.307076 
L 260.590526 286.045953 
L 261.676327 282.701425 
L 262.762128 285.47637 
L 263.847929 285.33704 
L 264.933731 283.552561 
L 266.019532 281.371114 
L 267.105333 284.588479 
L 268.191134 283.449776 
L 269.276935 283.345678 
L 270.362736 287.469842 
L 271.448538 286.9868 
L 272.534339 287.861981 
L 273.62014 285.749657 
L 274.705941 282.713402 
L 275.791742 284.390843 
L 276.877543 283.369043 
L 277.963344 283.557159 
L 279.049146 279.765262 
L 280.134947 283.038958 
L 281.220748 278.054106 
L 282.306549 283.405396 
L 283.39235 281.942422 
L 284.478151 278.592029 
L 285.563953 286.185346 
L 286.649754 283.353297 
L 287.735555 282.506084 
L 288.821356 273.694299 
L 289.907157 276.385484 
L 290.992958 282.934967 
L 292.07876 279.577615 
L 293.164561 282.05636 
L 294.250362 281.814381 
L 295.336163 279.938712 
L 296.421964 281.55917 
L 297.507765 283.138733 
L 298.593566 289.039933 
L 299.679368 289.999199 
L 300.765169 287.857137 
L 301.85097 288.261337 
L 302.936771 285.982757 
L 304.022572 286.630468 
L 305.108373 285.099283 
L 306.194175 290.281676 
L 307.279976 283.601514 
L 308.365777 282.047472 
L 309.451578 283.534592 
L 310.537379 282.165652 
L 311.62318 287.382935 
L 312.708981 286.48864 
L 313.794783 285.242038 
L 314.880584 285.454523 
L 315.966385 285.664711 
L 317.052186 285.966737 
L 318.137987 289.291231 
L 319.223788 289.14482 
L 320.30959 286.84003 
L 321.395391 289.818722 
L 322.481192 289.790258 
L 323.566993 290.248718 
L 324.652794 287.922317 
L 325.738595 286.524377 
L 326.824396 285.987269 
L 327.910198 284.288839 
L 328.995999 285.959653 
L 330.0818 290.050298 
L 331.167601 287.640001 
L 332.253402 289.843673 
L 333.339203 291.054099 
L 334.425005 291.669154 
L 335.510806 290.261716 
L 336.596607 289.560895 
L 337.682408 289.421556 
L 338.768209 288.504351 
L 339.85401 292.303484 
L 340.939811 291.507579 
L 342.025613 287.574232 
L 343.111414 288.039308 
L 344.197215 289.369465 
L 345.283016 290.03375 
L 346.368817 289.437921 
L 347.454618 291.813228 
L 348.54042 290.874609 
L 349.626221 289.367576 
L 350.712022 288.434255 
L 351.797823 292.237257 
L 352.883624 291.163911 
L 353.969425 291.20698 
L 355.055227 292.911674 
L 356.141028 292.898178 
L 357.226829 294.679957 
L 358.31263 292.071283 
L 359.398431 293.101964 
L 360.484232 293.353134 
L 361.570033 291.245953 
L 362.655835 291.451821 
L 363.741636 292.273359 
L 364.827437 292.159252 
L 365.913238 294.488569 
L 366.999039 291.285986 
L 368.08484 291.466242 
L 369.170642 292.657701 
L 370.256443 292.983853 
L 371.342244 292.278293 
L 372.428045 292.182795 
L 373.513846 293.956663 
L 374.599647 293.195979 
L 375.685448 293.034463 
L 376.77125 292.235977 
L 377.857051 291.889759 
L 378.942852 293.966104 
L 380.028653 292.750705 
L 381.114454 290.328369 
L 382.200255 292.567808 
L 383.286057 292.494151 
L 384.371858 293.578437 
L 385.457659 293.830088 
L 386.54346 292.206345 
L 387.629261 293.281393 
L 388.715062 288.985678 
L 389.800863 286.598828 
L 390.886665 286.692406 
L 391.972466 290.260208 
L 393.058267 291.250099 
L 394.144068 292.217308 
L 395.229869 290.510285 
L 396.31567 292.38065 
L 397.401472 295.488 
L 398.487273 294.797365 
L 398.487273 123.548251 
L 398.487273 123.548251 
L 397.401472 124.807787 
L 396.31567 112.935903 
L 395.229869 110.588098 
L 394.144068 115.725073 
L 393.058267 111.477789 
L 391.972466 112.502728 
L 390.886665 104.346777 
L 389.800863 99.743631 
L 388.715062 107.795651 
L 387.629261 118.729114 
L 386.54346 119.656146 
L 385.457659 120.2372 
L 384.371858 118.748645 
L 383.286057 117.070842 
L 382.200255 118.284628 
L 381.114454 112.01234 
L 380.028653 118.637066 
L 378.942852 123.565287 
L 377.857051 117.00705 
L 376.77125 120.064882 
L 375.685448 120.208242 
L 374.599647 120.802049 
L 373.513846 122.294836 
L 372.428045 122.634731 
L 371.342244 116.821036 
L 370.256443 119.394841 
L 369.170642 124.145491 
L 368.08484 119.90689 
L 366.999039 114.273806 
L 365.913238 127.94189 
L 364.827437 117.121415 
L 363.741636 119.266308 
L 362.655835 118.836458 
L 361.570033 118.005109 
L 360.484232 122.760262 
L 359.398431 120.077429 
L 358.31263 121.322099 
L 357.226829 128.878929 
L 356.141028 121.667269 
L 355.055227 120.856229 
L 353.969425 116.114891 
L 352.883624 117.455924 
L 351.797823 119.417386 
L 350.712022 108.450374 
L 349.626221 109.138811 
L 348.54042 113.149354 
L 347.454618 121.758861 
L 346.368817 112.545256 
L 345.283016 113.113827 
L 344.197215 112.444596 
L 343.111414 110.244403 
L 342.025613 107.017431 
L 340.939811 120.878638 
L 339.85401 119.085763 
L 338.768209 111.462242 
L 337.682408 115.844496 
L 336.596607 113.90064 
L 335.510806 120.443663 
L 334.425005 125.791738 
L 333.339203 122.425969 
L 332.253402 121.796873 
L 331.167601 114.527554 
L 330.0818 115.91606 
L 328.995999 104.858728 
L 327.910198 100.046677 
L 326.824396 103.012233 
L 325.738595 108.802355 
L 324.652794 109.470413 
L 323.566993 113.313953 
L 322.481192 112.440182 
L 321.395391 112.840446 
L 320.30959 104.357951 
L 319.223788 113.595418 
L 318.137987 110.949259 
L 317.052186 102.956153 
L 315.966385 101.094325 
L 314.880584 103.955379 
L 313.794783 104.060303 
L 312.708981 104.148513 
L 311.62318 107.820533 
L 310.537379 95.50623 
L 309.451578 100.489895 
L 308.365777 95.972202 
L 307.279976 99.911137 
L 306.194175 115.227098 
L 305.108373 100.488034 
L 304.022572 106.5336 
L 302.936771 108.223861 
L 301.85097 116.667561 
L 300.765169 110.141796 
L 299.679368 113.26515 
L 298.593566 108.321123 
L 297.507765 97.226202 
L 296.421964 92.276735 
L 295.336163 89.120642 
L 294.250362 94.769572 
L 293.164561 95.297688 
L 292.07876 90.450851 
L 290.992958 97.512626 
L 289.907157 87.636854 
L 288.821356 82.580331 
L 287.735555 97.753803 
L 286.649754 100.598476 
L 285.563953 107.559262 
L 284.478151 93.972466 
L 283.39235 100.200611 
L 282.306549 99.55001 
L 281.220748 88.902384 
L 280.134947 96.676455 
L 279.049146 92.292423 
L 277.963344 99.67462 
L 276.877543 99.185191 
L 275.791742 101.902304 
L 274.705941 99.932715 
L 273.62014 104.940987 
L 272.534339 109.474021 
L 271.448538 108.487037 
L 270.362736 109.166247 
L 269.276935 98.874715 
L 268.191134 101.400496 
L 267.105333 109.018989 
L 266.019532 101.203279 
L 264.933731 103.454376 
L 263.847929 107.371416 
L 262.762128 106.07726 
L 261.676327 99.594339 
L 260.590526 107.406597 
L 259.504725 97.827518 
L 258.418924 100.274462 
L 257.333123 104.327762 
L 256.247321 108.858479 
L 255.16152 103.087122 
L 254.075719 104.132182 
L 252.989918 102.172034 
L 251.904117 111.271606 
L 250.818316 116.133424 
L 249.732514 108.148159 
L 248.646713 107.955742 
L 247.560912 118.451417 
L 246.475111 114.932059 
L 245.38931 108.812466 
L 244.303509 114.312665 
L 243.217708 112.981904 
L 242.131906 111.324413 
L 241.046105 110.623521 
L 239.960304 101.209454 
L 238.874503 97.182766 
L 237.788702 100.283335 
L 236.702901 99.303929 
L 235.617099 104.170897 
L 234.531298 100.935605 
L 233.445497 110.335497 
L 232.359696 112.170416 
L 231.273895 109.735741 
L 230.188094 109.535751 
L 229.102292 114.662232 
L 228.016491 111.434535 
L 226.93069 113.504343 
L 225.844889 109.319918 
L 224.759088 108.107853 
L 223.673287 105.705067 
L 222.587486 108.11335 
L 221.501684 98.69488 
L 220.415883 98.733359 
L 219.330082 107.543144 
L 218.244281 101.695987 
L 217.15848 104.684371 
L 216.072679 104.191985 
L 214.986877 102.586414 
L 213.901076 109.925013 
L 212.815275 111.570855 
L 211.729474 107.807478 
L 210.643673 118.380118 
L 209.557872 112.371591 
L 208.472071 115.505432 
L 207.386269 116.522234 
L 206.300468 116.696295 
L 205.214667 115.154007 
L 204.128866 120.837171 
L 203.043065 115.41613 
L 201.957264 116.885168 
L 200.871462 117.612561 
L 199.785661 112.984643 
L 198.69986 116.39736 
L 197.614059 124.110273 
L 196.528258 118.036158 
L 195.442457 118.242221 
L 194.356656 115.455214 
L 193.270854 124.74425 
L 192.185053 124.305337 
L 191.099252 128.189255 
L 190.013451 120.284052 
L 188.92765 123.697472 
L 187.841849 116.139651 
L 186.756047 118.37678 
L 185.670246 121.120246 
L 184.584445 120.985478 
L 183.498644 114.611803 
L 182.412843 122.981903 
L 181.327042 116.134734 
L 180.24124 116.043146 
L 179.155439 111.460502 
L 178.069638 106.878773 
L 176.983837 110.465182 
L 175.898036 110.394409 
L 174.812235 103.810201 
L 173.726434 85.023592 
L 172.640632 101.33119 
L 171.554831 111.295872 
L 170.46903 110.153687 
L 169.383229 120.918711 
L 168.297428 109.28457 
L 167.211627 110.903661 
L 166.125825 117.353132 
L 165.040024 104.31504 
L 163.954223 114.442222 
L 162.868422 116.521107 
L 161.782621 114.657033 
L 160.69682 111.884936 
L 159.611019 92.745201 
L 158.525217 95.972392 
L 157.439416 101.003022 
L 156.353615 89.312408 
L 155.267814 93.702756 
L 154.182013 108.970057 
L 153.096212 100.13364 
L 152.01041 95.250998 
L 150.924609 104.833804 
L 149.838808 107.354418 
L 148.753007 108.754723 
L 147.667206 101.088725 
L 146.581405 96.810157 
L 145.495604 99.185801 
L 144.409802 92.327716 
L 143.324001 87.590871 
L 142.2382 88.576636 
L 141.152399 95.189205 
L 140.066598 95.38403 
L 138.980797 101.995592 
L 137.894995 99.508472 
L 136.809194 100.983303 
L 135.723393 86.200041 
L 134.637592 94.330056 
L 133.551791 90.637412 
L 132.46599 98.864118 
L 131.380189 94.448113 
L 130.294387 106.766146 
L 129.208586 112.281908 
L 128.122785 106.224976 
L 127.036984 105.410403 
L 125.951183 106.020232 
L 124.865382 110.922994 
L 123.77958 101.624458 
L 122.693779 96.789805 
L 121.607978 80.644074 
L 120.522177 87.323869 
L 119.436376 87.35491 
L 118.350575 91.700194 
L 117.264773 87.579187 
L 116.178972 81.080641 
L 115.093171 74.429808 
L 114.00737 80.644374 
L 112.921569 80.541873 
L 111.835768 79.300611 
L 110.749967 78.939255 
L 109.664165 85.273077 
L 108.578364 95.076719 
L 107.492563 90.85769 
L 106.406762 88.771937 
L 105.320961 82.149508 
L 104.23516 98.842067 
L 103.149358 89.420262 
L 102.063557 78.362964 
L 100.977756 70.713321 
L 99.891955 71.864443 
L 98.806154 61.852691 
L 97.720353 61.233976 
L 96.634552 70.467892 
L 95.54875 75.874941 
L 94.462949 82.958769 
L 93.377148 85.336513 
L 92.291347 73.529551 
L 91.205546 60.971015 
L 90.119745 61.802911 
L 89.033943 59.706864 
L 87.948142 65.768497 
L 86.862341 74.220475 
L 85.77654 83.890535 
L 84.690739 85.740349 
L 83.604938 78.932068 
L 82.519137 71.573585 
L 81.433335 61.425387 
L 80.347534 59.167092 
L 79.261733 53.568 
L 78.175932 61.995421 
L 77.090131 77.062505 
L 76.00433 85.487723 
L 74.918528 87.701883 
L 73.832727 78.590438 
z
" style="fill:#008000;fill-opacity:0.25;"/>
   </g>
   <g id="matplotlib.axis_3">
    <g id="ytick_8">
     <g id="line2d_16">
      <path clip-path="url(#pbd66886957)" d="M 57.6 298.802351 
L 414.72 298.802351 
" style="fill:none;stroke:#b0b0b0;stroke-linecap:square;stroke-width:0.8;"/>
     </g>
     <g id="line2d_17">
      <defs>
       <path d="M 0 0 
L 3.5 0 
" id="m0489b352f6" style="stroke:#000000;stroke-width:0.8;"/>
      </defs>
      <g>
       <use style="stroke:#000000;stroke-width:0.8;" x="414.72" xlink:href="#m0489b352f6" y="298.802351"/>
      </g>
     </g>
     <g id="text_16">
      <!-- 0.2 -->
      <defs>
       <path d="M 10.59375 35.5 
L 73.1875 35.5 
L 73.1875 27.203125 
L 10.59375 27.203125 
z
" id="DejaVuSans-8722"/>
      </defs>
      <g transform="translate(421.72 302.60157)scale(0.1 -0.1)">
       <use xlink:href="#DejaVuSans-8722"/>
       <use x="83.789062" xlink:href="#DejaVuSans-48"/>
       <use x="147.412109" xlink:href="#DejaVuSans-46"/>
       <use x="179.199219" xlink:href="#DejaVuSans-50"/>
      </g>
     </g>
    </g>
    <g id="ytick_9">
     <g id="line2d_18">
      <path clip-path="url(#pbd66886957)" d="M 57.6 257.880321 
L 414.72 257.880321 
" style="fill:none;stroke:#b0b0b0;stroke-linecap:square;stroke-width:0.8;"/>
     </g>
     <g id="line2d_19">
      <g>
       <use style="stroke:#000000;stroke-width:0.8;" x="414.72" xlink:href="#m0489b352f6" y="257.880321"/>
      </g>
     </g>
     <g id="text_17">
      <!-- 0.0 -->
      <g transform="translate(421.72 261.67954)scale(0.1 -0.1)">
       <use xlink:href="#DejaVuSans-48"/>
       <use x="63.623047" xlink:href="#DejaVuSans-46"/>
       <use x="95.410156" xlink:href="#DejaVuSans-48"/>
      </g>
     </g>
    </g>
    <g id="ytick_10">
     <g id="line2d_20">
      <path clip-path="url(#pbd66886957)" d="M 57.6 216.958291 
L 414.72 216.958291 
" style="fill:none;stroke:#b0b0b0;stroke-linecap:square;stroke-width:0.8;"/>
     </g>
     <g id="line2d_21">
      <g>
       <use style="stroke:#000000;stroke-width:0.8;" x="414.72" xlink:href="#m0489b352f6" y="216.958291"/>
      </g>
     </g>
     <g id="text_18">
      <!-- 0.2 -->
      <g transform="translate(421.72 220.75751)scale(0.1 -0.1)">
       <use xlink:href="#DejaVuSans-48"/>
       <use x="63.623047" xlink:href="#DejaVuSans-46"/>
       <use x="95.410156" xlink:href="#DejaVuSans-50"/>
      </g>
     </g>
    </g>
    <g id="ytick_11">
     <g id="line2d_22">
      <path clip-path="url(#pbd66886957)" d="M 57.6 176.036261 
L 414.72 176.036261 
" style="fill:none;stroke:#b0b0b0;stroke-linecap:square;stroke-width:0.8;"/>
     </g>
     <g id="line2d_23">
      <g>
       <use style="stroke:#000000;stroke-width:0.8;" x="414.72" xlink:href="#m0489b352f6" y="176.036261"/>
      </g>
     </g>
     <g id="text_19">
      <!-- 0.4 -->
      <g transform="translate(421.72 179.83548)scale(0.1 -0.1)">
       <use xlink:href="#DejaVuSans-48"/>
       <use x="63.623047" xlink:href="#DejaVuSans-46"/>
       <use x="95.410156" xlink:href="#DejaVuSans-52"/>
      </g>
     </g>
    </g>
    <g id="ytick_12">
     <g id="line2d_24">
      <path clip-path="url(#pbd66886957)" d="M 57.6 135.114231 
L 414.72 135.114231 
" style="fill:none;stroke:#b0b0b0;stroke-linecap:square;stroke-width:0.8;"/>
     </g>
     <g id="line2d_25">
      <g>
       <use style="stroke:#000000;stroke-width:0.8;" x="414.72" xlink:href="#m0489b352f6" y="135.114231"/>
      </g>
     </g>
     <g id="text_20">
      <!-- 0.6 -->
      <g transform="translate(421.72 138.91345)scale(0.1 -0.1)">
       <use xlink:href="#DejaVuSans-48"/>
       <use x="63.623047" xlink:href="#DejaVuSans-46"/>
       <use x="95.410156" xlink:href="#DejaVuSans-54"/>
      </g>
     </g>
    </g>
    <g id="ytick_13">
     <g id="line2d_26">
      <path clip-path="url(#pbd66886957)" d="M 57.6 94.192201 
L 414.72 94.192201 
" style="fill:none;stroke:#b0b0b0;stroke-linecap:square;stroke-width:0.8;"/>
     </g>
     <g id="line2d_27">
      <g>
       <use style="stroke:#000000;stroke-width:0.8;" x="414.72" xlink:href="#m0489b352f6" y="94.192201"/>
      </g>
     </g>
     <g id="text_21">
      <!-- 0.8 -->
      <g transform="translate(421.72 97.99142)scale(0.1 -0.1)">
       <use xlink:href="#DejaVuSans-48"/>
       <use x="63.623047" xlink:href="#DejaVuSans-46"/>
       <use x="95.410156" xlink:href="#DejaVuSans-56"/>
      </g>
     </g>
    </g>
    <g id="ytick_14">
     <g id="line2d_28">
      <path clip-path="url(#pbd66886957)" d="M 57.6 53.270171 
L 414.72 53.270171 
" style="fill:none;stroke:#b0b0b0;stroke-linecap:square;stroke-width:0.8;"/>
     </g>
     <g id="line2d_29">
      <g>
       <use style="stroke:#000000;stroke-width:0.8;" x="414.72" xlink:href="#m0489b352f6" y="53.270171"/>
      </g>
     </g>
     <g id="text_22">
      <!-- 1.0 -->
      <g transform="translate(421.72 57.069389)scale(0.1 -0.1)">
       <use xlink:href="#DejaVuSans-49"/>
       <use x="63.623047" xlink:href="#DejaVuSans-46"/>
       <use x="95.410156" xlink:href="#DejaVuSans-48"/>
      </g>
     </g>
    </g>
    <g id="text_23">
     <!-- Loudness -->
     <defs>
      <path d="M 9.8125 72.90625 
L 19.671875 72.90625 
L 19.671875 8.296875 
L 55.171875 8.296875 
L 55.171875 0 
L 9.8125 0 
z
" id="DejaVuSans-76"/>
      <path d="M 30.609375 48.390625 
Q 23.390625 48.390625 19.1875 42.75 
Q 14.984375 37.109375 14.984375 27.296875 
Q 14.984375 17.484375 19.15625 11.84375 
Q 23.34375 6.203125 30.609375 6.203125 
Q 37.796875 6.203125 41.984375 11.859375 
Q 46.1875 17.53125 46.1875 27.296875 
Q 46.1875 37.015625 41.984375 42.703125 
Q 37.796875 48.390625 30.609375 48.390625 
z
M 30.609375 56 
Q 42.328125 56 49.015625 48.375 
Q 55.71875 40.765625 55.71875 27.296875 
Q 55.71875 13.875 49.015625 6.21875 
Q 42.328125 -1.421875 30.609375 -1.421875 
Q 18.84375 -1.421875 12.171875 6.21875 
Q 5.515625 13.875 5.515625 27.296875 
Q 5.515625 40.765625 12.171875 48.375 
Q 18.84375 56 30.609375 56 
z
" id="DejaVuSans-111"/>
      <path d="M 8.5 21.578125 
L 8.5 54.6875 
L 17.484375 54.6875 
L 17.484375 21.921875 
Q 17.484375 14.15625 20.5 10.265625 
Q 23.53125 6.390625 29.59375 6.390625 
Q 36.859375 6.390625 41.078125 11.03125 
Q 45.3125 15.671875 45.3125 23.6875 
L 45.3125 54.6875 
L 54.296875 54.6875 
L 54.296875 0 
L 45.3125 0 
L 45.3125 8.40625 
Q 42.046875 3.421875 37.71875 1 
Q 33.40625 -1.421875 27.6875 -1.421875 
Q 18.265625 -1.421875 13.375 4.4375 
Q 8.5 10.296875 8.5 21.578125 
z
M 31.109375 56 
z
" id="DejaVuSans-117"/>
      <path d="M 45.40625 46.390625 
L 45.40625 75.984375 
L 54.390625 75.984375 
L 54.390625 0 
L 45.40625 0 
L 45.40625 8.203125 
Q 42.578125 3.328125 38.25 0.953125 
Q 33.9375 -1.421875 27.875 -1.421875 
Q 17.96875 -1.421875 11.734375 6.484375 
Q 5.515625 14.40625 5.515625 27.296875 
Q 5.515625 40.1875 11.734375 48.09375 
Q 17.96875 56 27.875 56 
Q 33.9375 56 38.25 53.625 
Q 42.578125 51.265625 45.40625 46.390625 
z
M 14.796875 27.296875 
Q 14.796875 17.390625 18.875 11.75 
Q 22.953125 6.109375 30.078125 6.109375 
Q 37.203125 6.109375 41.296875 11.75 
Q 45.40625 17.390625 45.40625 27.296875 
Q 45.40625 37.203125 41.296875 42.84375 
Q 37.203125 48.484375 30.078125 48.484375 
Q 22.953125 48.484375 18.875 42.84375 
Q 14.796875 37.203125 14.796875 27.296875 
z
" id="DejaVuSans-100"/>
     </defs>
     <g transform="translate(457.60125 198.170187)rotate(-90)scale(0.1 -0.1)">
      <use xlink:href="#DejaVuSans-76"/>
      <use x="55.697266" xlink:href="#DejaVuSans-111"/>
      <use x="116.878906" xlink:href="#DejaVuSans-117"/>
      <use x="180.257812" xlink:href="#DejaVuSans-100"/>
      <use x="243.734375" xlink:href="#DejaVuSans-110"/>
      <use x="307.113281" xlink:href="#DejaVuSans-101"/>
      <use x="368.636719" xlink:href="#DejaVuSans-115"/>
      <use x="420.736328" xlink:href="#DejaVuSans-115"/>
     </g>
    </g>
   </g>
   <g id="line2d_30">
    <path clip-path="url(#pbd66886957)" d="M 73.832727 168.575074 
L 74.918528 177.526459 
L 76.00433 176.252134 
L 77.090131 169.887625 
L 78.175932 155.052233 
L 79.261733 148.254728 
L 80.347534 154.918617 
L 81.433335 156.52132 
L 82.519137 166.634895 
L 84.690739 179.340901 
L 85.77654 178.551758 
L 87.948142 160.860121 
L 89.033943 155.285427 
L 90.119745 157.520105 
L 91.205546 157.669997 
L 92.291347 170.481609 
L 93.377148 179.816989 
L 94.462949 177.850681 
L 95.54875 171.67883 
L 96.634552 166.891268 
L 97.720353 155.963808 
L 98.806154 156.652856 
L 99.891955 166.858709 
L 100.977756 165.557629 
L 102.063557 172.343099 
L 103.149358 181.545518 
L 104.23516 189.312573 
L 105.320961 176.467375 
L 106.406762 181.727222 
L 107.492563 182.591907 
L 108.578364 184.994759 
L 109.664165 177.489795 
L 110.749967 172.93142 
L 111.835768 172.859729 
L 112.921569 174.015108 
L 114.00737 173.596355 
L 115.093171 168.105909 
L 116.178972 175.070437 
L 117.264773 180.271208 
L 118.350575 183.301812 
L 119.436376 180.789623 
L 120.522177 180.48465 
L 121.607978 175.989571 
L 122.693779 189.267872 
L 123.77958 193.322685 
L 124.865382 199.692482 
L 125.951183 196.75531 
L 127.036984 196.465056 
L 128.122785 197.196273 
L 129.208586 201.056113 
L 130.294387 196.536816 
L 131.380189 187.364996 
L 132.46599 190.71347 
L 133.551791 184.791771 
L 134.637592 187.439354 
L 135.723393 181.794233 
L 136.809194 193.094719 
L 137.894995 192.699795 
L 138.980797 194.114592 
L 140.066598 189.018459 
L 141.152399 189.081582 
L 142.2382 184.190818 
L 143.324001 183.777767 
L 144.409802 187.025432 
L 145.495604 191.395762 
L 146.581405 189.771166 
L 147.667206 193.092131 
L 148.753007 198.106736 
L 150.924609 196.509187 
L 152.01041 190.23092 
L 153.096212 193.66915 
L 154.182013 199.618663 
L 155.267814 188.407124 
L 156.353615 185.179365 
L 157.439416 193.622587 
L 158.525217 189.994356 
L 159.611019 187.397919 
L 160.69682 201.232749 
L 161.782621 203.392801 
L 162.868422 204.57797 
L 163.954223 203.310598 
L 165.040024 196.691002 
L 166.125825 205.381043 
L 167.211627 201.243525 
L 168.297428 199.898058 
L 169.383229 207.284199 
L 170.46903 200.704758 
L 171.554831 201.200395 
L 172.640632 193.859432 
L 173.726434 181.299383 
L 174.812235 195.515772 
L 175.898036 200.374658 
L 176.983837 200.707893 
L 178.069638 198.281953 
L 180.24124 204.407287 
L 181.327042 203.943747 
L 182.412843 208.13352 
L 183.498644 203.270162 
L 184.584445 207.08229 
L 185.670246 207.528721 
L 186.756047 204.817751 
L 187.841849 203.021116 
L 188.92765 207.757325 
L 190.013451 206.54478 
L 191.099252 210.964522 
L 192.185053 208.782328 
L 193.270854 208.913826 
L 194.356656 203.56956 
L 195.442457 205.230892 
L 196.528258 205.066723 
L 197.614059 209.118649 
L 198.69986 204.900493 
L 199.785661 202.140011 
L 200.871462 205.133338 
L 201.957264 204.61433 
L 203.043065 203.554464 
L 204.128866 206.607838 
L 205.214667 202.758664 
L 206.300468 203.807697 
L 207.386269 203.781913 
L 208.472071 203.625131 
L 209.557872 201.450279 
L 210.643673 205.392082 
L 211.729474 198.245754 
L 212.815275 200.663235 
L 213.901076 199.715725 
L 214.986877 194.281295 
L 216.072679 195.343763 
L 217.15848 195.770305 
L 218.244281 194.050447 
L 219.330082 197.76986 
L 220.415883 190.9738 
L 221.501684 190.655292 
L 222.587486 197.710126 
L 223.673287 195.98849 
L 224.759088 198.100266 
L 225.844889 199.420409 
L 226.93069 202.305696 
L 228.016491 200.765381 
L 229.102292 202.962717 
L 230.188094 199.598497 
L 231.273895 199.49991 
L 232.359696 201.06438 
L 233.445497 200.087986 
L 234.531298 192.956605 
L 235.617099 194.743421 
L 236.702901 191.782947 
L 237.788702 192.229136 
L 238.874503 190.203948 
L 239.960304 193.73969 
L 241.046105 200.373997 
L 242.131906 201.394928 
L 243.217708 201.777882 
L 244.303509 202.85997 
L 245.38931 199.224384 
L 246.475111 202.907925 
L 247.560912 205.379556 
L 248.646713 198.03425 
L 249.732514 198.690951 
L 250.818316 204.110131 
L 251.904117 200.410065 
L 252.989918 194.32269 
L 254.075719 195.021726 
L 255.16152 193.973032 
L 256.247321 198.386877 
L 258.418924 191.827181 
L 259.504725 190.067297 
L 260.590526 196.726275 
L 261.676327 191.147882 
L 262.762128 195.776815 
L 263.847929 196.354228 
L 264.933731 193.503469 
L 266.019532 191.287196 
L 267.105333 196.803734 
L 268.191134 192.425136 
L 269.276935 191.110196 
L 270.362736 198.318045 
L 271.448538 197.736918 
L 272.534339 198.668001 
L 273.62014 195.345322 
L 274.705941 191.323059 
L 275.791742 193.146573 
L 276.877543 191.277117 
L 277.963344 191.615889 
L 279.049146 186.028842 
L 280.134947 189.857707 
L 281.220748 183.478245 
L 282.306549 191.477703 
L 283.39235 191.071516 
L 284.478151 186.282247 
L 285.563953 196.872304 
L 286.649754 191.975886 
L 287.735555 190.129943 
L 288.821356 178.137315 
L 289.907157 182.011169 
L 290.992958 190.223797 
L 292.07876 185.014233 
L 293.164561 188.677024 
L 294.250362 188.291976 
L 295.336163 184.529677 
L 296.421964 186.917953 
L 297.507765 190.182467 
L 298.593566 198.680528 
L 299.679368 201.632175 
L 300.765169 198.999467 
L 301.85097 202.464449 
L 302.936771 197.103309 
L 304.022572 196.582034 
L 305.108373 192.793658 
L 306.194175 202.754387 
L 307.279976 191.756326 
L 308.365777 189.009837 
L 309.451578 192.012244 
L 310.537379 188.835941 
L 311.62318 197.601734 
L 312.708981 195.318576 
L 313.794783 194.651171 
L 314.880584 194.704951 
L 315.966385 193.379518 
L 317.052186 194.461445 
L 318.137987 200.120245 
L 319.223788 201.370119 
L 320.30959 195.598991 
L 321.395391 201.329584 
L 322.481192 201.11522 
L 323.566993 201.781335 
L 324.652794 198.696365 
L 325.738595 197.663366 
L 326.824396 194.499751 
L 327.910198 192.167758 
L 328.995999 195.409191 
L 330.0818 202.983179 
L 331.167601 201.083777 
L 332.253402 205.820273 
L 333.339203 206.740034 
L 334.425005 208.730446 
L 336.596607 201.730767 
L 337.682408 202.633026 
L 338.768209 199.983297 
L 339.85401 205.694623 
L 340.939811 206.193108 
L 342.025613 197.295832 
L 344.197215 200.907031 
L 345.283016 201.573788 
L 346.368817 200.991588 
L 347.454618 206.786045 
L 348.54042 202.011981 
L 349.626221 199.253193 
L 350.712022 198.442315 
L 351.797823 205.827321 
L 352.883624 204.309917 
L 353.969425 203.660936 
L 355.055227 206.883951 
L 356.141028 207.282724 
L 357.226829 211.779443 
L 358.31263 206.696691 
L 359.398431 206.589697 
L 360.484232 208.056698 
L 361.570033 204.625531 
L 363.741636 205.769834 
L 364.827437 204.640334 
L 365.913238 211.215229 
L 366.999039 202.779896 
L 369.170642 208.401596 
L 370.256443 206.189347 
L 371.342244 204.549664 
L 372.428045 207.408763 
L 373.513846 208.12575 
L 374.599647 206.999014 
L 376.77125 206.15043 
L 377.857051 204.448405 
L 378.942852 208.765695 
L 380.028653 205.693886 
L 381.114454 201.170354 
L 382.200255 205.426218 
L 383.286057 204.782497 
L 384.371858 206.163541 
L 385.457659 207.033644 
L 386.54346 205.931245 
L 387.629261 206.005254 
L 388.715062 198.390664 
L 389.800863 193.171229 
L 390.886665 195.519592 
L 391.972466 201.381468 
L 393.058267 201.363944 
L 394.144068 203.97119 
L 395.229869 200.549191 
L 396.31567 202.658277 
L 397.401472 210.147893 
L 398.487273 209.172808 
L 398.487273 209.172808 
" style="fill:none;stroke:#008000;stroke-linecap:square;stroke-width:1.5;"/>
   </g>
   <g id="patch_7">
    <path d="M 57.6 307.584 
L 57.6 41.472 
" style="fill:none;stroke:#000000;stroke-linecap:square;stroke-linejoin:miter;stroke-width:0.8;"/>
   </g>
   <g id="patch_8">
    <path d="M 414.72 307.584 
L 414.72 41.472 
" style="fill:none;stroke:#000000;stroke-linecap:square;stroke-linejoin:miter;stroke-width:0.8;"/>
   </g>
   <g id="patch_9">
    <path d="M 57.6 307.584 
L 414.72 307.584 
" style="fill:none;stroke:#000000;stroke-linecap:square;stroke-linejoin:miter;stroke-width:0.8;"/>
   </g>
   <g id="patch_10">
    <path d="M 57.6 41.472 
L 414.72 41.472 
" style="fill:none;stroke:#000000;stroke-linecap:square;stroke-linejoin:miter;stroke-width:0.8;"/>
   </g>
   <g id="text_24">
    <!-- Message Difference and Loudness -->
    <defs>
     <path d="M 9.8125 72.90625 
L 24.515625 72.90625 
L 43.109375 23.296875 
L 61.8125 72.90625 
L 76.515625 72.90625 
L 76.515625 0 
L 66.890625 0 
L 66.890625 64.015625 
L 48.09375 14.015625 
L 38.1875 14.015625 
L 19.390625 64.015625 
L 19.390625 0 
L 9.8125 0 
z
" id="DejaVuSans-77"/>
     <path d="M 45.40625 27.984375 
Q 45.40625 37.75 41.375 43.109375 
Q 37.359375 48.484375 30.078125 48.484375 
Q 22.859375 48.484375 18.828125 43.109375 
Q 14.796875 37.75 14.796875 27.984375 
Q 14.796875 18.265625 18.828125 12.890625 
Q 22.859375 7.515625 30.078125 7.515625 
Q 37.359375 7.515625 41.375 12.890625 
Q 45.40625 18.265625 45.40625 27.984375 
z
M 54.390625 6.78125 
Q 54.390625 -7.171875 48.1875 -13.984375 
Q 42 -20.796875 29.203125 -20.796875 
Q 24.46875 -20.796875 20.265625 -20.09375 
Q 16.0625 -19.390625 12.109375 -17.921875 
L 12.109375 -9.1875 
Q 16.0625 -11.328125 19.921875 -12.34375 
Q 23.78125 -13.375 27.78125 -13.375 
Q 36.625 -13.375 41.015625 -8.765625 
Q 45.40625 -4.15625 45.40625 5.171875 
L 45.40625 9.625 
Q 42.625 4.78125 38.28125 2.390625 
Q 33.9375 0 27.875 0 
Q 17.828125 0 11.671875 7.65625 
Q 5.515625 15.328125 5.515625 27.984375 
Q 5.515625 40.671875 11.671875 48.328125 
Q 17.828125 56 27.875 56 
Q 33.9375 56 38.28125 53.609375 
Q 42.625 51.21875 45.40625 46.390625 
L 45.40625 54.6875 
L 54.390625 54.6875 
z
" id="DejaVuSans-103"/>
     <path id="DejaVuSans-32"/>
     <path d="M 37.109375 75.984375 
L 37.109375 68.5 
L 28.515625 68.5 
Q 23.6875 68.5 21.796875 66.546875 
Q 19.921875 64.59375 19.921875 59.515625 
L 19.921875 54.6875 
L 34.71875 54.6875 
L 34.71875 47.703125 
L 19.921875 47.703125 
L 19.921875 0 
L 10.890625 0 
L 10.890625 47.703125 
L 2.296875 47.703125 
L 2.296875 54.6875 
L 10.890625 54.6875 
L 10.890625 58.5 
Q 10.890625 67.625 15.140625 71.796875 
Q 19.390625 75.984375 28.609375 75.984375 
z
" id="DejaVuSans-102"/>
     <path d="M 41.109375 46.296875 
Q 39.59375 47.171875 37.8125 47.578125 
Q 36.03125 48 33.890625 48 
Q 26.265625 48 22.1875 43.046875 
Q 18.109375 38.09375 18.109375 28.8125 
L 18.109375 0 
L 9.078125 0 
L 9.078125 54.6875 
L 18.109375 54.6875 
L 18.109375 46.1875 
Q 20.953125 51.171875 25.484375 53.578125 
Q 30.03125 56 36.53125 56 
Q 37.453125 56 38.578125 55.875 
Q 39.703125 55.765625 41.0625 55.515625 
z
" id="DejaVuSans-114"/>
    </defs>
    <g transform="translate(133.329375 35.472)scale(0.12 -0.12)">
     <use xlink:href="#DejaVuSans-77"/>
     <use x="86.279297" xlink:href="#DejaVuSans-101"/>
     <use x="147.802734" xlink:href="#DejaVuSans-115"/>
     <use x="199.902344" xlink:href="#DejaVuSans-115"/>
     <use x="252.001953" xlink:href="#DejaVuSans-97"/>
     <use x="313.28125" xlink:href="#DejaVuSans-103"/>
     <use x="376.757812" xlink:href="#DejaVuSans-101"/>
     <use x="438.28125" xlink:href="#DejaVuSans-32"/>
     <use x="470.068359" xlink:href="#DejaVuSans-68"/>
     <use x="547.070312" xlink:href="#DejaVuSans-105"/>
     <use x="574.853516" xlink:href="#DejaVuSans-102"/>
     <use x="610.058594" xlink:href="#DejaVuSans-102"/>
     <use x="645.263672" xlink:href="#DejaVuSans-101"/>
     <use x="706.787109" xlink:href="#DejaVuSans-114"/>
     <use x="747.869141" xlink:href="#DejaVuSans-101"/>
     <use x="809.392578" xlink:href="#DejaVuSans-110"/>
     <use x="872.771484" xlink:href="#DejaVuSans-99"/>
     <use x="927.751953" xlink:href="#DejaVuSans-101"/>
     <use x="989.275391" xlink:href="#DejaVuSans-32"/>
     <use x="1021.0625" xlink:href="#DejaVuSans-97"/>
     <use x="1082.341797" xlink:href="#DejaVuSans-110"/>
     <use x="1145.720703" xlink:href="#DejaVuSans-100"/>
     <use x="1209.197266" xlink:href="#DejaVuSans-32"/>
     <use x="1240.984375" xlink:href="#DejaVuSans-76"/>
     <use x="1296.681641" xlink:href="#DejaVuSans-111"/>
     <use x="1357.863281" xlink:href="#DejaVuSans-117"/>
     <use x="1421.242188" xlink:href="#DejaVuSans-100"/>
     <use x="1484.71875" xlink:href="#DejaVuSans-110"/>
     <use x="1548.097656" xlink:href="#DejaVuSans-101"/>
     <use x="1609.621094" xlink:href="#DejaVuSans-115"/>
     <use x="1661.720703" xlink:href="#DejaVuSans-115"/>
    </g>
   </g>
   <g id="legend_1">
    <g id="patch_11">
     <path d="M 331.227813 64.150125 
L 407.72 64.150125 
Q 409.72 64.150125 409.72 62.150125 
L 409.72 48.472 
Q 409.72 46.472 407.72 46.472 
L 331.227813 46.472 
Q 329.227813 46.472 329.227813 48.472 
L 329.227813 62.150125 
Q 329.227813 64.150125 331.227813 64.150125 
z
" style="fill:#ffffff;opacity:0.8;stroke:#cccccc;stroke-linejoin:miter;"/>
    </g>
    <g id="line2d_31">
     <path d="M 333.227813 54.570438 
L 353.227813 54.570438 
" style="fill:none;stroke:#008000;stroke-linecap:square;stroke-width:1.5;"/>
    </g>
    <g id="line2d_32"/>
    <g id="text_25">
     <!-- loudness -->
     <defs>
      <path d="M 9.421875 75.984375 
L 18.40625 75.984375 
L 18.40625 0 
L 9.421875 0 
z
" id="DejaVuSans-108"/>
     </defs>
     <g transform="translate(361.227813 58.070438)scale(0.1 -0.1)">
      <use xlink:href="#DejaVuSans-108"/>
      <use x="27.783203" xlink:href="#DejaVuSans-111"/>
      <use x="88.964844" xlink:href="#DejaVuSans-117"/>
      <use x="152.34375" xlink:href="#DejaVuSans-100"/>
      <use x="215.820312" xlink:href="#DejaVuSans-110"/>
      <use x="279.199219" xlink:href="#DejaVuSans-101"/>
      <use x="340.722656" xlink:href="#DejaVuSans-115"/>
      <use x="392.822266" xlink:href="#DejaVuSans-115"/>
     </g>
    </g>
   </g>
  </g>
 </g>
 <defs>
  <clipPath id="pbd66886957">
   <rect height="266.112" width="357.12" x="57.6" y="41.472"/>
  </clipPath>
 </defs>
</svg>
