<?xml version="1.0" encoding="UTF-8" standalone="no"?>
<!DOCTYPE svg PUBLIC "-//W3C//DTD SVG 1.1//EN"
 "http://www.w3.org/Graphics/SVG/1.1/DTD/svg11.dtd">
<!-- Generated by graphviz version 2.40.1 (20161225.0304)
 -->
<!-- Title: %3 Pages: 1 -->
<svg width="583pt" height="175pt"
 viewBox="0.00 0.00 582.64 174.79" xmlns="http://www.w3.org/2000/svg" xmlns:xlink="http://www.w3.org/1999/xlink">
<g id="graph0" class="graph" transform="scale(1 1) rotate(0) translate(4 170.7893)">
<title>%3</title>
<polygon fill="#ffffff" stroke="transparent" points="-4,4 -4,-170.7893 578.6364,-170.7893 578.6364,4 -4,4"/>
<!-- E0 -->
<g id="node1" class="node">
<title>E0</title>
<polygon fill="#d3d3d3" stroke="#000000" points="61.6114,-166.7893 35.6163,-166.7893 35.6163,-149.7893 61.6114,-149.7893 61.6114,-166.7893"/>
<text text-anchor="middle" x="48.6138" y="-155.5893" font-family="Times,serif" font-size="9.00" fill="#000000">E0</text>
</g>
<!-- E1 -->
<g id="node2" class="node">
<title>E1</title>
<polygon fill="#d3d3d3" stroke="#000000" points="139.6114,-166.7893 113.6163,-166.7893 113.6163,-149.7893 139.6114,-149.7893 139.6114,-166.7893"/>
<text text-anchor="middle" x="126.6138" y="-155.5893" font-family="Times,serif" font-size="9.00" fill="#000000">E1</text>
</g>
<!-- E0&#45;&gt;E1 -->
<!-- 1 -->
<g id="node11" class="node">
<title>1</title>
<ellipse fill="#add8e6" stroke="#000000" cx="346.6138" cy="-14.853" rx="14.4914" ry="14.4914"/>
<text text-anchor="middle" x="346.6138" y="-12.153" font-family="Times,serif" font-size="9.00" fill="#000000">1</text>
</g>
<!-- E0&#45;&gt;1 -->
<g id="edge13" class="edge">
<title>E0&#45;&gt;1</title>
<path fill="none" stroke="#00ff00" stroke-width=".497" d="M36.9715,-149.5236C27.3079,-141.4564 14.2662,-128.5328 8.6138,-113.7893 .9638,-93.8352 -5.6106,-81.6546 8.6138,-65.7061 55.3635,-13.2904 256.2641,-52.7419 322.6138,-29.7061 323.6785,-29.3364 324.7456,-28.9133 325.8061,-28.4493"/>
<polygon fill="#00ff00" stroke="#00ff00" stroke-width=".497" points="327.8013,-31.3492 334.9281,-23.5096 324.468,-25.1937 327.8013,-31.3492"/>
</g>
<!-- 2 -->
<g id="node12" class="node">
<title>2</title>
<ellipse fill="#add8e6" stroke="#000000" cx="393.6138" cy="-14.853" rx="14.4914" ry="14.4914"/>
<text text-anchor="middle" x="393.6138" y="-12.153" font-family="Times,serif" font-size="9.00" fill="#000000">2</text>
</g>
<!-- E0&#45;&gt;2 -->
<g id="edge28" class="edge">
<title>E0&#45;&gt;2</title>
<path fill="none" stroke="#00ff00" stroke-width=".1159" d="M44.2926,-149.5713C35.99,-131.4319 20.4198,-89.3535 41.6138,-65.7061 90.5535,-11.1011 300.2855,-53.5885 369.6138,-29.7061 370.6794,-29.339 371.7472,-28.918 372.8083,-28.4557"/>
<polygon fill="#00ff00" stroke="#00ff00" stroke-width=".1159" points="374.8007,-31.3573 381.9325,-23.5223 371.4713,-25.1998 374.8007,-31.3573"/>
</g>
<!-- 4263 -->
<g id="node16" class="node">
<title>4263</title>
<ellipse fill="none" stroke="#000000" cx="74.6138" cy="-89.7477" rx="24.0833" ry="24.0833"/>
<text text-anchor="middle" x="74.6138" y="-87.0477" font-family="Times,serif" font-size="9.00" fill="#000000">4263</text>
</g>
<!-- E0&#45;&gt;4263 -->
<g id="edge19" class="edge">
<title>E0&#45;&gt;4263</title>
<path fill="none" stroke="#ff0000" stroke-width=".471" d="M51.9068,-149.6085C54.5784,-142.5655 58.5208,-132.1725 62.3739,-122.0149"/>
<polygon fill="#ff0000" stroke="#ff0000" stroke-width=".471" points="65.722,-123.0568 65.9963,-112.4655 59.177,-120.574 65.722,-123.0568"/>
</g>
<!-- E2 -->
<g id="node3" class="node">
<title>E2</title>
<polygon fill="#d3d3d3" stroke="#000000" points="215.6114,-166.7893 189.6163,-166.7893 189.6163,-149.7893 215.6114,-149.7893 215.6114,-166.7893"/>
<text text-anchor="middle" x="202.6138" y="-155.5893" font-family="Times,serif" font-size="9.00" fill="#000000">E2</text>
</g>
<!-- E1&#45;&gt;E2 -->
<!-- S -->
<g id="node13" class="node">
<title>S</title>
<ellipse fill="#add8e6" stroke="#000000" cx="440.6138" cy="-14.853" rx="14.7075" ry="14.7075"/>
<text text-anchor="middle" x="440.6138" y="-12.153" font-family="Times,serif" font-size="9.00" fill="#000000">S</text>
</g>
<!-- E1&#45;&gt;S -->
<g id="edge27" class="edge">
<title>E1&#45;&gt;S</title>
<path fill="none" stroke="#ff0000" stroke-width=".5331" d="M130.5537,-149.6451C139.6001,-130.8774 163.7916,-86.4255 198.6138,-65.7061 283.006,-15.4924 324.6705,-64.2007 416.6138,-29.7061 417.497,-29.3747 418.383,-29.0093 419.2665,-28.6166"/>
<polygon fill="#ff0000" stroke="#ff0000" stroke-width=".5331" points="421.2524,-31.522 428.3881,-23.6905 417.926,-25.3628 421.2524,-31.522"/>
</g>
<!-- E3 -->
<g id="node4" class="node">
<title>E3</title>
<polygon fill="#d3d3d3" stroke="#000000" points="259.6114,-166.7893 233.6163,-166.7893 233.6163,-149.7893 259.6114,-149.7893 259.6114,-166.7893"/>
<text text-anchor="middle" x="246.6138" y="-155.5893" font-family="Times,serif" font-size="9.00" fill="#000000">E3</text>
</g>
<!-- E2&#45;&gt;E3 -->
<!-- E2&#45;&gt;S -->
<g id="edge16" class="edge">
<title>E2&#45;&gt;S</title>
<path fill="none" stroke="#ff0000" stroke-width=".7362" d="M201.5252,-149.6881C199.7355,-131.3957 198.4139,-88.45 221.6138,-65.7061 284.5475,-4.0095 334.3949,-61.4419 416.6138,-29.7061 417.4938,-29.3664 418.3772,-28.9938 419.2584,-28.5952"/>
<polygon fill="#ff0000" stroke="#ff0000" stroke-width=".7362" points="421.256,-31.4931 428.3693,-23.6413 417.9121,-25.3434 421.256,-31.4931"/>
</g>
<!-- 5041 -->
<g id="node17" class="node">
<title>5041</title>
<ellipse fill="none" stroke="#000000" cx="254.6138" cy="-89.7477" rx="24.0833" ry="24.0833"/>
<text text-anchor="middle" x="254.6138" y="-87.0477" font-family="Times,serif" font-size="9.00" fill="#000000">5041</text>
</g>
<!-- E2&#45;&gt;5041 -->
<g id="edge29" class="edge">
<title>E2&#45;&gt;5041</title>
<path fill="none" stroke="#00ff00" stroke-width=".2987" d="M209.1997,-149.6085C215.4012,-141.4342 225.0265,-128.7471 233.8224,-117.1531"/>
<polygon fill="#00ff00" stroke="#00ff00" stroke-width=".2987" points="236.764,-119.0665 240.0198,-108.9843 231.1873,-114.8356 236.764,-119.0665"/>
</g>
<!-- E4 -->
<g id="node5" class="node">
<title>E4</title>
<polygon fill="#d3d3d3" stroke="#000000" points="309.6114,-166.7893 283.6163,-166.7893 283.6163,-149.7893 309.6114,-149.7893 309.6114,-166.7893"/>
<text text-anchor="middle" x="296.6138" y="-155.5893" font-family="Times,serif" font-size="9.00" fill="#000000">E4</text>
</g>
<!-- E3&#45;&gt;E4 -->
<!-- E3&#45;&gt;2 -->
<g id="edge21" class="edge">
<title>E3&#45;&gt;2</title>
<path fill="none" stroke="#00ff00" stroke-width=".4881" d="M239.8148,-149.6442C226.8164,-132.0034 201.4497,-91.363 221.6138,-65.7061 263.4444,-12.4809 307.1673,-55.8432 369.6138,-29.7061 370.484,-29.3419 371.3589,-28.9485 372.2331,-28.5323"/>
<polygon fill="#00ff00" stroke="#00ff00" stroke-width=".4881" points="374.2643,-31.408 381.3111,-23.4964 370.8686,-25.2868 374.2643,-31.408"/>
</g>
<!-- 5058 -->
<g id="node14" class="node">
<title>5058</title>
<ellipse fill="#ffffff" stroke="#000000" cx="320.6138" cy="-89.7477" rx="24.0833" ry="24.0833"/>
<text text-anchor="middle" x="320.6138" y="-87.0477" font-family="Times,serif" font-size="9.00" fill="#000000">5058</text>
</g>
<!-- E3&#45;&gt;5058 -->
<g id="edge24" class="edge">
<title>E3&#45;&gt;5058</title>
<path fill="none" stroke="#00ff00" stroke-width=".5672" d="M255.986,-149.6085C265.8042,-140.5145 281.6526,-125.8351 295.1975,-113.2893"/>
<polygon fill="#00ff00" stroke="#00ff00" stroke-width=".5672" points="297.8853,-115.5705 302.8434,-106.2074 293.1286,-110.4349 297.8853,-115.5705"/>
</g>
<!-- E3&#45;&gt;4263 -->
<g id="edge18" class="edge">
<title>E3&#45;&gt;4263</title>
<path fill="none" stroke="#00ff00" stroke-width=".4773" d="M233.4029,-153.0248C206.5404,-142.3202 144.875,-117.7466 106.7806,-102.5661"/>
<polygon fill="#00ff00" stroke="#00ff00" stroke-width=".4773" points="107.7597,-99.1886 97.1744,-98.738 105.1683,-105.6913 107.7597,-99.1886"/>
</g>
<!-- E5 -->
<g id="node6" class="node">
<title>E5</title>
<polygon fill="#d3d3d3" stroke="#000000" points="364.6114,-166.7893 338.6163,-166.7893 338.6163,-149.7893 364.6114,-149.7893 364.6114,-166.7893"/>
<text text-anchor="middle" x="351.6138" y="-155.5893" font-family="Times,serif" font-size="9.00" fill="#000000">E5</text>
</g>
<!-- E4&#45;&gt;E5 -->
<!-- E6 -->
<g id="node7" class="node">
<title>E6</title>
<polygon fill="#d3d3d3" stroke="#000000" points="414.6114,-166.7893 388.6163,-166.7893 388.6163,-149.7893 414.6114,-149.7893 414.6114,-166.7893"/>
<text text-anchor="middle" x="401.6138" y="-155.5893" font-family="Times,serif" font-size="9.00" fill="#000000">E6</text>
</g>
<!-- E5&#45;&gt;E6 -->
<!-- E5&#45;&gt;S -->
<g id="edge14" class="edge">
<title>E5&#45;&gt;S</title>
<path fill="none" stroke="#ff0000" stroke-width=".6086" d="M364.6293,-153.7387C391.7258,-144.1376 452.1447,-122.0169 457.6138,-113.7893 472.9248,-90.7563 462.7203,-58.2605 452.751,-36.8851"/>
<polygon fill="#ff0000" stroke="#ff0000" stroke-width=".6086" points="455.875,-35.3068 448.2795,-27.9204 449.611,-38.4312 455.875,-35.3068"/>
</g>
<!-- E5&#45;&gt;5058 -->
<g id="edge22" class="edge">
<title>E5&#45;&gt;5058</title>
<path fill="none" stroke="#ff0000" stroke-width=".2595" d="M347.6877,-149.6085C344.4195,-142.3826 339.5565,-131.6303 334.8499,-121.224"/>
<polygon fill="#ff0000" stroke="#ff0000" stroke-width=".2595" points="337.9318,-119.5446 330.6218,-111.8755 331.5538,-122.4293 337.9318,-119.5446"/>
</g>
<!-- E7 -->
<g id="node8" class="node">
<title>E7</title>
<polygon fill="#d3d3d3" stroke="#000000" points="483.6114,-166.7893 457.6163,-166.7893 457.6163,-149.7893 483.6114,-149.7893 483.6114,-166.7893"/>
<text text-anchor="middle" x="470.6138" y="-155.5893" font-family="Times,serif" font-size="9.00" fill="#000000">E7</text>
</g>
<!-- E6&#45;&gt;E7 -->
<!-- E6&#45;&gt;2 -->
<g id="edge20" class="edge">
<title>E6&#45;&gt;2</title>
<path fill="none" stroke="#ff0000" stroke-width=".7798" d="M399.0393,-149.5215C396.5682,-140.6162 393.0113,-126.3814 391.6138,-113.7893 388.8159,-88.5768 389.9109,-59.5347 391.3389,-39.4683"/>
<polygon fill="#ff0000" stroke="#ff0000" stroke-width=".7798" points="394.8417,-39.5706 392.1439,-29.325 387.8637,-39.0167 394.8417,-39.5706"/>
</g>
<!-- 5176 -->
<g id="node15" class="node">
<title>5176</title>
<ellipse fill="#ffffff" stroke="#000000" cx="424.6138" cy="-89.7477" rx="24.0833" ry="24.0833"/>
<text text-anchor="middle" x="424.6138" y="-87.0477" font-family="Times,serif" font-size="9.00" fill="#000000">5176</text>
</g>
<!-- E6&#45;&gt;5176 -->
<g id="edge25" class="edge">
<title>E6&#45;&gt;5176</title>
<path fill="none" stroke="#ff0000" stroke-width=".2998" d="M404.5268,-149.6085C406.8719,-142.6201 410.3237,-132.3334 413.7069,-122.2512"/>
<polygon fill="#ff0000" stroke="#ff0000" stroke-width=".2998" points="417.028,-123.3557 416.8912,-112.7618 410.3917,-121.1288 417.028,-123.3557"/>
</g>
<!-- E8 -->
<g id="node9" class="node">
<title>E8</title>
<polygon fill="#d3d3d3" stroke="#000000" points="527.6114,-166.7893 501.6163,-166.7893 501.6163,-149.7893 527.6114,-149.7893 527.6114,-166.7893"/>
<text text-anchor="middle" x="514.6138" y="-155.5893" font-family="Times,serif" font-size="9.00" fill="#000000">E8</text>
</g>
<!-- E7&#45;&gt;E8 -->
<!-- 0 -->
<g id="node10" class="node">
<title>0</title>
<ellipse fill="#add8e6" stroke="#000000" cx="299.6138" cy="-14.853" rx="14.4914" ry="14.4914"/>
<text text-anchor="middle" x="299.6138" y="-12.153" font-family="Times,serif" font-size="9.00" fill="#000000">0</text>
</g>
<!-- E7&#45;&gt;0 -->
<g id="edge15" class="edge">
<title>E7&#45;&gt;0</title>
<path fill="none" stroke="#ff0000" stroke-width="2.7316" d="M472.2353,-149.6206C475.074,-131.5743 478.792,-89.6625 457.6138,-65.7061 416.7699,-19.5039 380.2115,-54.1923 323.6138,-29.7061 322.7481,-29.3315 321.8769,-28.9293 321.0059,-28.5058"/>
<polygon fill="#ff0000" stroke="#ff0000" stroke-width="2.7316" points="322.3786,-25.2632 311.9426,-23.4353 318.9609,-31.3722 322.3786,-25.2632"/>
</g>
<!-- E8&#45;&gt;2 -->
<g id="edge12" class="edge">
<title>E8&#45;&gt;2</title>
<path fill="none" stroke="#00ff00" stroke-width=".9011" d="M514.6734,-149.5667C514.3438,-131.7829 511.2253,-90.8927 490.6138,-65.7061 467.4508,-37.4015 448.4785,-47.6594 416.6138,-29.7061 415.8167,-29.2569 415.0093,-28.7913 414.1978,-28.3143"/>
<polygon fill="#00ff00" stroke="#00ff00" stroke-width=".9011" points="415.9636,-25.291 405.6206,-22.9946 412.2741,-31.2397 415.9636,-25.291"/>
</g>
<!-- E8&#45;&gt;S -->
<g id="edge17" class="edge">
<title>E8&#45;&gt;S</title>
<path fill="none" stroke="#00ff00" stroke-width="1.3091" d="M527.7127,-151.4947C540.3381,-144.124 558.6629,-131.0584 566.6138,-113.7893 575.5513,-94.3777 578.5673,-83.4207 566.6138,-65.7061 544.051,-32.2686 495.4117,-20.8118 465.5997,-16.89"/>
<polygon fill="#00ff00" stroke="#00ff00" stroke-width="1.3091" points="465.88,-13.3996 455.5513,-15.7594 465.0972,-20.3557 465.88,-13.3996"/>
</g>
<!-- E8&#45;&gt;5041 -->
<g id="edge30" class="edge">
<title>E8&#45;&gt;5041</title>
<path fill="none" stroke="#ff0000" stroke-width=".2456" d="M501.2576,-152.6525C498.437,-151.5973 495.4542,-150.5793 492.6138,-149.7893 403.4912,-125.0024 372.7545,-149.9599 287.6138,-113.7893 285.7545,-112.9994 283.9002,-112.0874 282.0727,-111.0903"/>
<polygon fill="#ff0000" stroke="#ff0000" stroke-width=".2456" points="283.5934,-107.9127 273.2615,-105.5666 279.8752,-113.8436 283.5934,-107.9127"/>
</g>
<!-- 0&#45;&gt;1 -->
<!-- 1&#45;&gt;2 -->
<!-- 2&#45;&gt;S -->
<!-- 5058&#45;&gt;0 -->
<g id="edge23" class="edge">
<title>5058&#45;&gt;0</title>
<path fill="none" stroke="#ff0000" stroke-width=".2392" d="M314.0844,-66.4611C311.6267,-57.6959 308.8286,-47.7168 306.3522,-38.8849"/>
<polygon fill="#ff0000" stroke="#ff0000" stroke-width=".2392" points="309.7025,-37.8692 303.6326,-29.1855 302.9624,-39.7591 309.7025,-37.8692"/>
</g>
<!-- 5176&#45;&gt;2 -->
<g id="edge26" class="edge">
<title>5176&#45;&gt;2</title>
<path fill="none" stroke="#ff0000" stroke-width=".3017" d="M415.3128,-67.2768C411.4884,-58.0373 407.0613,-47.3414 403.2071,-38.0298"/>
<polygon fill="#ff0000" stroke="#ff0000" stroke-width=".3017" points="406.3638,-36.5047 399.3054,-28.6035 399.896,-39.1819 406.3638,-36.5047"/>
</g>
</g>
</svg>
