<?xml version="1.0" encoding="UTF-8" standalone="no"?>
<!DOCTYPE svg PUBLIC "-//W3C//DTD SVG 1.1//EN"
 "http://www.w3.org/Graphics/SVG/1.1/DTD/svg11.dtd">
<!-- Generated by graphviz version 2.40.1 (20161225.0304)
 -->
<!-- Title: %3 Pages: 1 -->
<svg width="485pt" height="98pt"
 viewBox="0.00 0.00 484.77 97.77" xmlns="http://www.w3.org/2000/svg" xmlns:xlink="http://www.w3.org/1999/xlink">
<g id="graph0" class="graph" transform="scale(1 1) rotate(0) translate(4 93.7661)">
<title>%3</title>
<polygon fill="#ffffff" stroke="transparent" points="-4,4 -4,-93.7661 480.7661,-93.7661 480.7661,4 -4,4"/>
<!-- 0 -->
<g id="node1" class="node">
<title>0</title>
<polygon fill="#d3d3d3" stroke="#000000" points="291.389,-89.7661 271.3771,-89.7661 271.3771,-72.7661 291.389,-72.7661 291.389,-89.7661"/>
<text text-anchor="middle" x="281.383" y="-78.5661" font-family="Times,serif" font-size="9.00" fill="#000000">0</text>
</g>
<!-- 1 -->
<g id="node2" class="node">
<title>1</title>
<polygon fill="#d3d3d3" stroke="#000000" points="352.389,-89.7661 332.3771,-89.7661 332.3771,-72.7661 352.389,-72.7661 352.389,-89.7661"/>
<text text-anchor="middle" x="342.383" y="-78.5661" font-family="Times,serif" font-size="9.00" fill="#000000">1</text>
</g>
<!-- 0&#45;&gt;1 -->
<!-- E3 -->
<g id="node7" class="node">
<title>E3</title>
<ellipse fill="#87cefa" stroke="#000000" cx="183.383" cy="-18.383" rx="18.2668" ry="18.2668"/>
<text text-anchor="middle" x="183.383" y="-15.683" font-family="Times,serif" font-size="9.00" fill="#000000">E3</text>
</g>
<!-- 0&#45;&gt;E3 -->
<g id="edge11" class="edge">
<title>0&#45;&gt;E3</title>
<path fill="none" stroke="#ff0000" stroke-width="1.4436" d="M270.9161,-74.6793C257.2042,-66.035 232.4296,-50.3638 211.383,-36.7661 210.1009,-35.9377 208.7873,-35.0859 207.4621,-34.2243"/>
<polygon fill="#ff0000" stroke="#ff0000" stroke-width="1.4436" points="209.0467,-31.0787 198.7611,-28.5374 205.217,-36.9382 209.0467,-31.0787"/>
</g>
<!-- E4 -->
<g id="node8" class="node">
<title>E4</title>
<ellipse fill="#87cefa" stroke="#000000" cx="238.383" cy="-18.383" rx="18.2668" ry="18.2668"/>
<text text-anchor="middle" x="238.383" y="-15.683" font-family="Times,serif" font-size="9.00" fill="#000000">E4</text>
</g>
<!-- 0&#45;&gt;E4 -->
<g id="edge18" class="edge">
<title>0&#45;&gt;E4</title>
<path fill="none" stroke="#ff0000" stroke-width=".1413" d="M275.4041,-72.5225C270.0676,-64.7185 261.9995,-52.9197 254.7559,-42.3267"/>
<polygon fill="#ff0000" stroke="#ff0000" stroke-width=".1413" points="257.4771,-40.1054 248.9433,-33.8264 251.6988,-44.0566 257.4771,-40.1054"/>
</g>
<!-- E7 -->
<g id="node11" class="node">
<title>E7</title>
<ellipse fill="#87cefa" stroke="#000000" cx="403.383" cy="-18.383" rx="18.2668" ry="18.2668"/>
<text text-anchor="middle" x="403.383" y="-15.683" font-family="Times,serif" font-size="9.00" fill="#000000">E7</text>
</g>
<!-- 0&#45;&gt;E7 -->
<g id="edge14" class="edge">
<title>0&#45;&gt;E7</title>
<path fill="none" stroke="#00ff00" stroke-width=".1862" d="M291.4913,-77.0321C308.9635,-69.593 345.7836,-53.3831 375.383,-36.7661 376.7141,-36.0188 378.0666,-35.2315 379.4221,-34.4203"/>
<polygon fill="#00ff00" stroke="#00ff00" stroke-width=".1862" points="381.6153,-37.1757 388.2169,-28.889 377.8886,-31.2501 381.6153,-37.1757"/>
</g>
<!-- 2 -->
<g id="node3" class="node">
<title>2</title>
<polygon fill="#d3d3d3" stroke="#000000" points="402.389,-89.7661 382.3771,-89.7661 382.3771,-72.7661 402.389,-72.7661 402.389,-89.7661"/>
<text text-anchor="middle" x="392.383" y="-78.5661" font-family="Times,serif" font-size="9.00" fill="#000000">2</text>
</g>
<!-- 1&#45;&gt;2 -->
<!-- E1 -->
<g id="node5" class="node">
<title>E1</title>
<ellipse fill="#87cefa" stroke="#000000" cx="73.383" cy="-18.383" rx="18.2668" ry="18.2668"/>
<text text-anchor="middle" x="73.383" y="-15.683" font-family="Times,serif" font-size="9.00" fill="#000000">E1</text>
</g>
<!-- 1&#45;&gt;E1 -->
<g id="edge12" class="edge">
<title>1&#45;&gt;E1</title>
<path fill="none" stroke="#00ff00" stroke-width=".6719" d="M332.0387,-79.1105C323.5447,-77.3554 311.1968,-74.8382 300.383,-72.7661 212.1091,-55.8509 184.8527,-70.1014 101.383,-36.7661 99.9654,-36.1999 98.5442,-35.5566 97.1348,-34.8579"/>
<polygon fill="#00ff00" stroke="#00ff00" stroke-width=".6719" points="98.5827,-31.652 88.1741,-29.6738 95.0773,-37.7111 98.5827,-31.652"/>
</g>
<!-- 1&#45;&gt;E7 -->
<g id="edge17" class="edge">
<title>1&#45;&gt;E7</title>
<path fill="none" stroke="#00ff00" stroke-width=".2938" d="M350.8648,-72.5225C359.1636,-63.9676 372.119,-50.6122 383.0855,-39.3072"/>
<polygon fill="#00ff00" stroke="#00ff00" stroke-width=".2938" points="385.8277,-41.5071 390.2783,-31.8923 380.8033,-36.6331 385.8277,-41.5071"/>
</g>
<!-- 2&#45;&gt;E1 -->
<g id="edge15" class="edge">
<title>2&#45;&gt;E1</title>
<path fill="none" stroke="#ff0000" stroke-width=".2075" d="M382.1308,-78.0941C376.1301,-76.3284 368.3801,-74.2034 361.383,-72.7661 247.1111,-49.2924 210.5928,-77.7822 101.383,-36.7661 99.954,-36.2294 98.5237,-35.6095 97.1073,-34.9291"/>
<polygon fill="#ff0000" stroke="#ff0000" stroke-width=".2075" points="98.5445,-31.7194 88.1247,-29.8014 95.0742,-37.7986 98.5445,-31.7194"/>
</g>
<!-- 2&#45;&gt;E7 -->
<g id="edge16" class="edge">
<title>2&#45;&gt;E7</title>
<path fill="none" stroke="#00ff00" stroke-width=".3928" d="M393.9126,-72.5225C395.1004,-65.7319 396.8173,-55.9168 398.464,-46.5033"/>
<polygon fill="#00ff00" stroke="#00ff00" stroke-width=".3928" points="401.9194,-47.0619 400.1949,-36.6084 395.0241,-45.8557 401.9194,-47.0619"/>
</g>
<!-- E8 -->
<g id="node12" class="node">
<title>E8</title>
<ellipse fill="#87cefa" stroke="#000000" cx="458.383" cy="-18.383" rx="18.2668" ry="18.2668"/>
<text text-anchor="middle" x="458.383" y="-15.683" font-family="Times,serif" font-size="9.00" fill="#000000">E8</text>
</g>
<!-- 2&#45;&gt;E8 -->
<g id="edge13" class="edge">
<title>2&#45;&gt;E8</title>
<path fill="none" stroke="#00ff00" stroke-width=".6917" d="M401.5601,-72.5225C410.7416,-63.7746 425.1913,-50.0072 437.2214,-38.5453"/>
<polygon fill="#00ff00" stroke="#00ff00" stroke-width=".6917" points="439.8721,-40.8541 444.6978,-31.422 435.0435,-35.7861 439.8721,-40.8541"/>
</g>
<!-- E0 -->
<g id="node4" class="node">
<title>E0</title>
<ellipse fill="#87cefa" stroke="#000000" cx="18.383" cy="-18.383" rx="18.2668" ry="18.2668"/>
<text text-anchor="middle" x="18.383" y="-15.683" font-family="Times,serif" font-size="9.00" fill="#000000">E0</text>
</g>
<!-- E0&#45;&gt;E1 -->
<!-- E2 -->
<g id="node6" class="node">
<title>E2</title>
<ellipse fill="#87cefa" stroke="#000000" cx="128.383" cy="-18.383" rx="18.2668" ry="18.2668"/>
<text text-anchor="middle" x="128.383" y="-15.683" font-family="Times,serif" font-size="9.00" fill="#000000">E2</text>
</g>
<!-- E1&#45;&gt;E2 -->
<!-- E2&#45;&gt;E3 -->
<!-- E3&#45;&gt;E4 -->
<!-- E5 -->
<g id="node9" class="node">
<title>E5</title>
<ellipse fill="#87cefa" stroke="#000000" cx="293.383" cy="-18.383" rx="18.2668" ry="18.2668"/>
<text text-anchor="middle" x="293.383" y="-15.683" font-family="Times,serif" font-size="9.00" fill="#000000">E5</text>
</g>
<!-- E4&#45;&gt;E5 -->
<!-- E6 -->
<g id="node10" class="node">
<title>E6</title>
<ellipse fill="#87cefa" stroke="#000000" cx="348.383" cy="-18.383" rx="18.2668" ry="18.2668"/>
<text text-anchor="middle" x="348.383" y="-15.683" font-family="Times,serif" font-size="9.00" fill="#000000">E6</text>
</g>
<!-- E5&#45;&gt;E6 -->
<!-- E6&#45;&gt;E7 -->
<!-- E7&#45;&gt;E8 -->
</g>
</svg>
