<?xml version="1.0" encoding="UTF-8" standalone="no"?>
<!DOCTYPE svg PUBLIC "-//W3C//DTD SVG 1.1//EN"
 "http://www.w3.org/Graphics/SVG/1.1/DTD/svg11.dtd">
<!-- Generated by graphviz version 2.40.1 (20161225.0304)
 -->
<!-- Title: %3 Pages: 1 -->
<svg width="485pt" height="175pt"
 viewBox="0.00 0.00 485.04 174.79" xmlns="http://www.w3.org/2000/svg" xmlns:xlink="http://www.w3.org/1999/xlink">
<g id="graph0" class="graph" transform="scale(1 1) rotate(0) translate(4 170.7893)">
<title>%3</title>
<polygon fill="#ffffff" stroke="transparent" points="-4,4 -4,-170.7893 481.0404,-170.7893 481.0404,4 -4,4"/>
<!-- E0 -->
<g id="node1" class="node">
<title>E0</title>
<polygon fill="#d3d3d3" stroke="#000000" points="40.0392,-166.7893 14.0441,-166.7893 14.0441,-149.7893 40.0392,-149.7893 40.0392,-166.7893"/>
<text text-anchor="middle" x="27.0416" y="-155.5893" font-family="Times,serif" font-size="9.00" fill="#000000">E0</text>
</g>
<!-- E1 -->
<g id="node2" class="node">
<title>E1</title>
<polygon fill="#d3d3d3" stroke="#000000" points="84.0392,-166.7893 58.0441,-166.7893 58.0441,-149.7893 84.0392,-149.7893 84.0392,-166.7893"/>
<text text-anchor="middle" x="71.0416" y="-155.5893" font-family="Times,serif" font-size="9.00" fill="#000000">E1</text>
</g>
<!-- E0&#45;&gt;E1 -->
<!-- S -->
<g id="node13" class="node">
<title>S</title>
<ellipse fill="#87cefa" stroke="#000000" cx="308.0416" cy="-14.853" rx="14.7075" ry="14.7075"/>
<text text-anchor="middle" x="308.0416" y="-12.153" font-family="Times,serif" font-size="9.00" fill="#000000">S</text>
</g>
<!-- E0&#45;&gt;S -->
<g id="edge16" class="edge">
<title>E0&#45;&gt;S</title>
<path fill="none" stroke="#ff0000" stroke-width=".1256" d="M40.4921,-152.9513C43.3059,-151.8744 46.2621,-150.7721 49.0416,-149.7893 98.3372,-132.3602 113.9995,-136.6119 161.0416,-113.7893 209.9917,-90.0411 261.4674,-51.8855 288.616,-30.564"/>
<polygon fill="#ff0000" stroke="#ff0000" stroke-width=".1256" points="290.8854,-33.2313 296.5417,-24.2726 286.5333,-27.7486 290.8854,-33.2313"/>
</g>
<!-- 4520 -->
<g id="node16" class="node">
<title>4520</title>
<ellipse fill="#add8e6" stroke="#000000" cx="24.0416" cy="-89.7477" rx="24.0833" ry="24.0833"/>
<text text-anchor="middle" x="24.0416" y="-91.5477" font-family="Times,serif" font-size="9.00" fill="#000000">4520</text>
<text text-anchor="middle" x="24.0416" y="-82.5477" font-family="Times,serif" font-size="9.00" fill="#000000">sigm</text>
</g>
<!-- E0&#45;&gt;4520 -->
<g id="edge17" class="edge">
<title>E0&#45;&gt;4520</title>
<path fill="none" stroke="#00ff00" stroke-width=".3556" d="M26.6617,-149.6085C26.3745,-143.0479 25.9601,-133.5804 25.5454,-124.1041"/>
<polygon fill="#00ff00" stroke="#00ff00" stroke-width=".3556" points="29.0352,-123.7925 25.1012,-113.9551 22.0419,-124.0986 29.0352,-123.7925"/>
</g>
<!-- E2 -->
<g id="node3" class="node">
<title>E2</title>
<polygon fill="#d3d3d3" stroke="#000000" points="128.0392,-166.7893 102.0441,-166.7893 102.0441,-149.7893 128.0392,-149.7893 128.0392,-166.7893"/>
<text text-anchor="middle" x="115.0416" y="-155.5893" font-family="Times,serif" font-size="9.00" fill="#000000">E2</text>
</g>
<!-- E1&#45;&gt;E2 -->
<!-- E3 -->
<g id="node4" class="node">
<title>E3</title>
<polygon fill="#d3d3d3" stroke="#000000" points="176.0392,-166.7893 150.0441,-166.7893 150.0441,-149.7893 176.0392,-149.7893 176.0392,-166.7893"/>
<text text-anchor="middle" x="163.0416" y="-155.5893" font-family="Times,serif" font-size="9.00" fill="#000000">E3</text>
</g>
<!-- E2&#45;&gt;E3 -->
<!-- 0 -->
<g id="node10" class="node">
<title>0</title>
<ellipse fill="#87cefa" stroke="#000000" cx="102.0416" cy="-14.853" rx="14.4914" ry="14.4914"/>
<text text-anchor="middle" x="102.0416" y="-12.153" font-family="Times,serif" font-size="9.00" fill="#000000">0</text>
</g>
<!-- E2&#45;&gt;0 -->
<g id="edge13" class="edge">
<title>E2&#45;&gt;0</title>
<path fill="none" stroke="#ff0000" stroke-width="1.9925" d="M109.7262,-149.4712C104.8079,-140.7588 97.847,-126.8748 95.0416,-113.7893 89.6565,-88.671 92.9252,-59.2286 96.5903,-39.0326"/>
<polygon fill="#ff0000" stroke="#ff0000" stroke-width="1.9925" points="100.0442,-39.6081 98.5569,-29.1182 93.178,-38.2461 100.0442,-39.6081"/>
</g>
<!-- E4 -->
<g id="node5" class="node">
<title>E4</title>
<polygon fill="#d3d3d3" stroke="#000000" points="222.0392,-166.7893 196.0441,-166.7893 196.0441,-149.7893 222.0392,-149.7893 222.0392,-166.7893"/>
<text text-anchor="middle" x="209.0416" y="-155.5893" font-family="Times,serif" font-size="9.00" fill="#000000">E4</text>
</g>
<!-- E3&#45;&gt;E4 -->
<!-- E5 -->
<g id="node6" class="node">
<title>E5</title>
<polygon fill="#d3d3d3" stroke="#000000" points="266.0392,-166.7893 240.0441,-166.7893 240.0441,-149.7893 266.0392,-149.7893 266.0392,-166.7893"/>
<text text-anchor="middle" x="253.0416" y="-155.5893" font-family="Times,serif" font-size="9.00" fill="#000000">E5</text>
</g>
<!-- E4&#45;&gt;E5 -->
<!-- 2 -->
<g id="node12" class="node">
<title>2</title>
<ellipse fill="#87cefa" stroke="#000000" cx="227.0416" cy="-14.853" rx="14.4914" ry="14.4914"/>
<text text-anchor="middle" x="227.0416" y="-12.153" font-family="Times,serif" font-size="9.00" fill="#000000">2</text>
</g>
<!-- E4&#45;&gt;2 -->
<g id="edge12" class="edge">
<title>E4&#45;&gt;2</title>
<path fill="none" stroke="#00ff00" stroke-width="1.4901" d="M210.1137,-149.7463C212.7928,-128.3972 219.8589,-72.0896 223.9653,-39.3672"/>
<polygon fill="#00ff00" stroke="#00ff00" stroke-width="1.4901" points="227.4614,-39.6169 225.2338,-29.2589 220.5158,-38.7452 227.4614,-39.6169"/>
</g>
<!-- 4712 -->
<g id="node15" class="node">
<title>4712</title>
<ellipse fill="#add8e6" stroke="#000000" cx="308.0416" cy="-89.7477" rx="24.0833" ry="24.0833"/>
<text text-anchor="middle" x="308.0416" y="-91.5477" font-family="Times,serif" font-size="9.00" fill="#000000">4712</text>
<text text-anchor="middle" x="308.0416" y="-82.5477" font-family="Times,serif" font-size="9.00" fill="#000000">sigm</text>
</g>
<!-- E4&#45;&gt;4712 -->
<g id="edge18" class="edge">
<title>E4&#45;&gt;4712</title>
<path fill="none" stroke="#00ff00" stroke-width=".4166" d="M221.58,-149.6085C236.1087,-139.5497 260.5071,-122.6577 279.6884,-109.3778"/>
<polygon fill="#00ff00" stroke="#00ff00" stroke-width=".4166" points="281.8506,-112.1378 288.0801,-103.5679 277.866,-106.3826 281.8506,-112.1378"/>
</g>
<!-- E6 -->
<g id="node7" class="node">
<title>E6</title>
<polygon fill="#d3d3d3" stroke="#000000" points="387.0392,-166.7893 361.0441,-166.7893 361.0441,-149.7893 387.0392,-149.7893 387.0392,-166.7893"/>
<text text-anchor="middle" x="374.0416" y="-155.5893" font-family="Times,serif" font-size="9.00" fill="#000000">E6</text>
</g>
<!-- E5&#45;&gt;E6 -->
<!-- 1 -->
<g id="node11" class="node">
<title>1</title>
<ellipse fill="#87cefa" stroke="#000000" cx="180.0416" cy="-14.853" rx="14.4914" ry="14.4914"/>
<text text-anchor="middle" x="180.0416" y="-12.153" font-family="Times,serif" font-size="9.00" fill="#000000">1</text>
</g>
<!-- E5&#45;&gt;1 -->
<g id="edge25" class="edge">
<title>E5&#45;&gt;1</title>
<path fill="none" stroke="#00ff00" stroke-width=".1364" d="M248.6938,-149.7463C237.567,-127.8836 207.7823,-69.3602 191.3372,-37.0474"/>
<polygon fill="#00ff00" stroke="#00ff00" stroke-width=".1364" points="194.3523,-35.2551 186.6972,-27.9304 188.1137,-38.4302 194.3523,-35.2551"/>
</g>
<!-- 5190 -->
<g id="node14" class="node">
<title>5190</title>
<ellipse fill="#add8e6" stroke="#000000" cx="128.0416" cy="-89.7477" rx="24.0833" ry="24.0833"/>
<text text-anchor="middle" x="128.0416" y="-91.5477" font-family="Times,serif" font-size="9.00" fill="#000000">5190</text>
<text text-anchor="middle" x="128.0416" y="-82.5477" font-family="Times,serif" font-size="9.00" fill="#000000">sigm</text>
</g>
<!-- E5&#45;&gt;5190 -->
<g id="edge23" class="edge">
<title>E5&#45;&gt;5190</title>
<path fill="none" stroke="#ff0000" stroke-width=".1143" d="M239.8735,-152.0196C222.6594,-143.7183 191.6821,-128.4173 166.0416,-113.7893 163.0348,-112.0739 159.9294,-110.2314 156.8499,-108.3573"/>
<polygon fill="#ff0000" stroke="#ff0000" stroke-width=".1143" points="158.684,-105.3763 148.3429,-103.0714 154.9895,-111.322 158.684,-105.3763"/>
</g>
<!-- E7 -->
<g id="node8" class="node">
<title>E7</title>
<polygon fill="#d3d3d3" stroke="#000000" points="433.0392,-166.7893 407.0441,-166.7893 407.0441,-149.7893 433.0392,-149.7893 433.0392,-166.7893"/>
<text text-anchor="middle" x="420.0416" y="-155.5893" font-family="Times,serif" font-size="9.00" fill="#000000">E7</text>
</g>
<!-- E6&#45;&gt;E7 -->
<!-- 4895 -->
<g id="node17" class="node">
<title>4895</title>
<ellipse fill="#add8e6" stroke="#000000" cx="374.0416" cy="-89.7477" rx="24.0833" ry="24.0833"/>
<text text-anchor="middle" x="374.0416" y="-91.5477" font-family="Times,serif" font-size="9.00" fill="#000000">4895</text>
<text text-anchor="middle" x="374.0416" y="-82.5477" font-family="Times,serif" font-size="9.00" fill="#000000">sigm</text>
</g>
<!-- E6&#45;&gt;4895 -->
<g id="edge20" class="edge">
<title>E6&#45;&gt;4895</title>
<path fill="none" stroke="#ff0000" stroke-width=".1229" d="M374.0416,-149.6085C374.0416,-143.0479 374.0416,-133.5804 374.0416,-124.1041"/>
<polygon fill="#ff0000" stroke="#ff0000" stroke-width=".1229" points="377.5417,-123.9551 374.0416,-113.9551 370.5417,-123.9552 377.5417,-123.9551"/>
</g>
<!-- E8 -->
<g id="node9" class="node">
<title>E8</title>
<polygon fill="#d3d3d3" stroke="#000000" points="477.0392,-166.7893 451.0441,-166.7893 451.0441,-149.7893 477.0392,-149.7893 477.0392,-166.7893"/>
<text text-anchor="middle" x="464.0416" y="-155.5893" font-family="Times,serif" font-size="9.00" fill="#000000">E8</text>
</g>
<!-- E7&#45;&gt;E8 -->
<!-- E7&#45;&gt;S -->
<g id="edge15" class="edge">
<title>E7&#45;&gt;S</title>
<path fill="none" stroke="#ff0000" stroke-width=".9312" d="M421.2712,-149.6893C423.301,-132.1318 425.4714,-91.637 407.0416,-65.7061 389.2776,-40.712 355.4938,-27.1639 332.378,-20.4757"/>
<polygon fill="#ff0000" stroke="#ff0000" stroke-width=".9312" points="333.168,-17.0642 322.6038,-17.869 331.3642,-23.8278 333.168,-17.0642"/>
</g>
<!-- E8&#45;&gt;S -->
<g id="edge14" class="edge">
<title>E8&#45;&gt;S</title>
<path fill="none" stroke="#ff0000" stroke-width="1.1864" d="M462.9568,-149.6882C460.2661,-131.77 451.7023,-90.087 428.0416,-65.7061 402.1426,-39.0186 360.0369,-25.6379 333.2094,-19.4778"/>
<polygon fill="#ff0000" stroke="#ff0000" stroke-width="1.1864" points="333.5818,-15.979 323.0731,-17.3269 332.1287,-22.8265 333.5818,-15.979"/>
</g>
<!-- 0&#45;&gt;1 -->
<!-- 1&#45;&gt;2 -->
<!-- 2&#45;&gt;S -->
<!-- 5190&#45;&gt;0 -->
<g id="edge24" class="edge">
<title>5190&#45;&gt;0</title>
<path fill="none" stroke="#00ff00" stroke-width=".2064" d="M120.0995,-66.8699C116.9746,-57.8684 113.3877,-47.5363 110.2385,-38.4646"/>
<polygon fill="#00ff00" stroke="#00ff00" stroke-width=".2064" points="113.5028,-37.1953 106.9168,-28.8962 106.89,-39.491 113.5028,-37.1953"/>
</g>
<!-- 4712&#45;&gt;S -->
<g id="edge19" class="edge">
<title>4712&#45;&gt;S</title>
<path fill="none" stroke="#00ff00" stroke-width=".6265" d="M308.0416,-65.6383C308.0416,-57.432 308.0416,-48.2428 308.0416,-39.9602"/>
<polygon fill="#00ff00" stroke="#00ff00" stroke-width=".6265" points="311.5417,-39.7533 308.0416,-29.7534 304.5417,-39.7534 311.5417,-39.7533"/>
</g>
<!-- 4520&#45;&gt;0 -->
<g id="edge22" class="edge">
<title>4520&#45;&gt;0</title>
<path fill="none" stroke="#ff0000" stroke-width=".1402" d="M41.741,-72.753C54.3967,-60.6012 71.369,-44.3045 84.083,-32.0967"/>
<polygon fill="#ff0000" stroke="#ff0000" stroke-width=".1402" points="86.5832,-34.5482 91.3723,-25.0976 81.735,-29.499 86.5832,-34.5482"/>
</g>
<!-- 4895&#45;&gt;1 -->
<g id="edge21" class="edge">
<title>4895&#45;&gt;1</title>
<path fill="none" stroke="#ff0000" stroke-width=".389" d="M355.2578,-74.2317C350.7935,-71.0743 345.9081,-68.0167 341.0416,-65.7061 284.1707,-38.7032 261.8904,-54.5451 204.0416,-29.7061 203.1749,-29.3339 202.3028,-28.9337 201.4311,-28.5119"/>
<polygon fill="#ff0000" stroke="#ff0000" stroke-width=".389" points="202.8018,-25.2686 192.3643,-23.4494 199.3892,-31.3805 202.8018,-25.2686"/>
</g>
</g>
</svg>
