<?xml version="1.0" encoding="utf-8" standalone="no"?>
<!DOCTYPE svg PUBLIC "-//W3C//DTD SVG 1.1//EN"
  "http://www.w3.org/Graphics/SVG/1.1/DTD/svg11.dtd">
<!-- Created with matplotlib (https://matplotlib.org/) -->
<svg height="345.6pt" version="1.1" viewBox="0 0 460.8 345.6" width="460.8pt" xmlns="http://www.w3.org/2000/svg" xmlns:xlink="http://www.w3.org/1999/xlink">
 <defs>
  <style type="text/css">
*{stroke-linecap:butt;stroke-linejoin:round;}
  </style>
 </defs>
 <g id="figure_1">
  <g id="patch_1">
   <path d="M 0 345.6 
L 460.8 345.6 
L 460.8 0 
L 0 0 
z
" style="fill:#ffffff;"/>
  </g>
  <g id="axes_1">
   <g id="patch_2">
    <path d="M 57.6 307.584 
L 414.72 307.584 
L 414.72 41.472 
L 57.6 41.472 
z
" style="fill:#ffffff;"/>
   </g>
   <g id="PolyCollection_1">
    <path clip-path="url(#p21786f2e93)" d="M 73.832727 53.568 
L 73.832727 60.737216 
L 74.918528 93.872757 
L 76.00433 101.722042 
L 77.090131 114.941301 
L 78.175932 130.348175 
L 79.261733 127.458103 
L 80.347534 111.858552 
L 81.433335 92.950163 
L 82.519137 119.978854 
L 83.604938 141.512261 
L 84.690739 143.207799 
L 85.77654 135.650641 
L 86.862341 144.730562 
L 87.948142 194.686142 
L 89.033943 212.500554 
L 90.119745 231.882957 
L 91.205546 228.38047 
L 92.291347 207.197658 
L 93.377148 210.508318 
L 94.462949 208.463427 
L 95.54875 199.537627 
L 96.634552 175.979502 
L 97.720353 200.32819 
L 98.806154 206.538749 
L 99.891955 218.004533 
L 100.977756 208.791733 
L 102.063557 220.901615 
L 103.149358 225.955687 
L 104.23516 216.886636 
L 105.320961 189.771207 
L 106.406762 171.520989 
L 107.492563 161.580487 
L 108.578364 142.191041 
L 109.664165 153.989927 
L 110.749967 188.903485 
L 111.835768 210.667575 
L 112.921569 205.952613 
L 114.00737 224.180567 
L 115.093171 222.424229 
L 116.178972 224.356699 
L 117.264773 229.876315 
L 118.350575 218.042181 
L 119.436376 188.53041 
L 120.522177 193.869959 
L 121.607978 202.205432 
L 122.693779 261.906678 
L 123.77958 243.082553 
L 124.865382 295.488 
L 125.951183 262.764365 
L 127.036984 220.978266 
L 128.122785 221.875657 
L 129.208586 226.548031 
L 130.294387 273.876512 
L 131.380189 251.433192 
L 132.46599 276.855143 
L 133.551791 256.975744 
L 134.637592 258.525687 
L 135.723393 230.877012 
L 136.809194 229.458699 
L 137.894995 219.989807 
L 138.980797 222.552142 
L 140.066598 242.592965 
L 141.152399 244.04764 
L 142.2382 245.032696 
L 143.324001 265.22784 
L 144.409802 245.921094 
L 145.495604 200.911862 
L 146.581405 166.341395 
L 147.667206 196.476203 
L 148.753007 177.455358 
L 149.838808 188.118462 
L 150.924609 181.077469 
L 152.01041 150.636859 
L 153.096212 145.078243 
L 154.182013 223.392083 
L 155.267814 195.479997 
L 156.353615 204.971837 
L 157.439416 184.887416 
L 158.525217 195.529126 
L 159.611019 170.403047 
L 160.69682 155.695795 
L 161.782621 150.453705 
L 162.868422 147.6844 
L 163.954223 158.334485 
L 165.040024 149.788776 
L 166.125825 153.363638 
L 167.211627 156.28833 
L 168.297428 175.00645 
L 169.383229 171.583498 
L 170.46903 165.265451 
L 171.554831 157.820124 
L 172.640632 144.21282 
L 173.726434 163.599621 
L 174.812235 170.102193 
L 175.898036 178.425122 
L 176.983837 202.119836 
L 178.069638 183.893796 
L 179.155439 188.537466 
L 180.24124 164.453842 
L 181.327042 206.140604 
L 182.412843 205.808313 
L 183.498644 222.844448 
L 184.584445 222.491102 
L 185.670246 201.344729 
L 186.756047 203.098113 
L 187.841849 192.642914 
L 188.92765 205.282227 
L 190.013451 184.611886 
L 191.099252 182.830629 
L 192.185053 179.889399 
L 193.270854 166.384725 
L 194.356656 167.731503 
L 195.442457 208.990797 
L 196.528258 173.26462 
L 197.614059 174.554508 
L 198.69986 194.177692 
L 199.785661 176.83776 
L 200.871462 167.813961 
L 201.957264 165.565226 
L 203.043065 151.125505 
L 204.128866 124.410087 
L 205.214667 145.904396 
L 206.300468 135.210685 
L 207.386269 146.709756 
L 208.472071 151.444893 
L 209.557872 172.404858 
L 210.643673 181.966413 
L 211.729474 178.998429 
L 212.815275 208.020197 
L 213.901076 156.919776 
L 214.986877 209.225619 
L 216.072679 203.640521 
L 217.15848 188.084929 
L 218.244281 209.638901 
L 219.330082 196.933756 
L 220.415883 213.862559 
L 221.501684 184.024264 
L 222.587486 204.509975 
L 223.673287 205.597507 
L 224.759088 231.696704 
L 225.844889 224.369005 
L 226.93069 227.750741 
L 228.016491 207.499739 
L 229.102292 218.262557 
L 230.188094 209.672249 
L 231.273895 189.77743 
L 232.359696 169.737261 
L 233.445497 171.246985 
L 234.531298 163.578511 
L 235.617099 183.767424 
L 236.702901 202.172535 
L 237.788702 203.628452 
L 238.874503 177.520157 
L 239.960304 160.526328 
L 241.046105 162.67577 
L 242.131906 176.848906 
L 243.217708 177.27066 
L 244.303509 199.417206 
L 245.38931 203.08819 
L 246.475111 197.097921 
L 247.560912 169.415117 
L 248.646713 167.025284 
L 249.732514 174.428532 
L 250.818316 188.416462 
L 251.904117 173.116859 
L 252.989918 229.259347 
L 254.075719 196.906007 
L 255.16152 201.901889 
L 256.247321 206.922414 
L 257.333123 181.345966 
L 258.418924 194.031078 
L 259.504725 180.231851 
L 260.590526 202.469955 
L 261.676327 241.218535 
L 262.762128 230.487975 
L 263.847929 216.184498 
L 264.933731 205.572041 
L 266.019532 215.658196 
L 267.105333 210.907714 
L 268.191134 187.003301 
L 269.276935 188.882169 
L 270.362736 218.056482 
L 271.448538 231.036997 
L 272.534339 212.268689 
L 273.62014 175.986236 
L 274.705941 190.242163 
L 275.791742 183.471376 
L 276.877543 196.203988 
L 277.963344 252.213074 
L 279.049146 294.797655 
L 280.134947 219.791422 
L 281.220748 204.893649 
L 282.306549 222.69482 
L 283.39235 205.17262 
L 284.478151 184.316245 
L 285.563953 223.917944 
L 286.649754 227.761126 
L 287.735555 213.733558 
L 288.821356 213.497158 
L 289.907157 168.711289 
L 290.992958 159.18173 
L 292.07876 177.855477 
L 293.164561 206.033882 
L 294.250362 172.028684 
L 295.336163 163.997693 
L 296.421964 186.92217 
L 297.507765 181.016652 
L 298.593566 172.07751 
L 299.679368 178.46441 
L 300.765169 171.700952 
L 301.85097 184.900258 
L 302.936771 199.669365 
L 304.022572 178.341288 
L 305.108373 196.128454 
L 306.194175 165.952067 
L 307.279976 194.682026 
L 308.365777 182.995484 
L 309.451578 216.557988 
L 310.537379 228.998832 
L 311.62318 221.532115 
L 312.708981 213.584893 
L 313.794783 200.638547 
L 314.880584 215.275954 
L 315.966385 228.499469 
L 317.052186 197.654083 
L 318.137987 182.683688 
L 319.223788 174.589932 
L 320.30959 185.063354 
L 321.395391 188.441029 
L 322.481192 175.452368 
L 323.566993 162.222077 
L 324.652794 153.176057 
L 325.738595 131.824775 
L 326.824396 181.948089 
L 327.910198 190.150622 
L 328.995999 187.845334 
L 330.0818 186.407319 
L 331.167601 173.051062 
L 332.253402 176.368425 
L 333.339203 190.333615 
L 334.425005 187.87725 
L 335.510806 187.242928 
L 336.596607 187.86341 
L 337.682408 212.739225 
L 338.768209 219.919094 
L 339.85401 206.651587 
L 340.939811 196.358682 
L 342.025613 207.550326 
L 343.111414 192.660631 
L 344.197215 227.383976 
L 345.283016 216.99313 
L 346.368817 257.446679 
L 347.454618 244.698473 
L 348.54042 243.924632 
L 349.626221 202.66527 
L 350.712022 199.528327 
L 351.797823 240.619171 
L 352.883624 229.609703 
L 353.969425 241.690749 
L 355.055227 227.686625 
L 356.141028 209.87454 
L 357.226829 209.899708 
L 358.31263 186.536142 
L 359.398431 175.949338 
L 360.484232 214.130168 
L 361.570033 212.163618 
L 362.655835 221.394576 
L 363.741636 216.929189 
L 364.827437 218.081848 
L 365.913238 219.936738 
L 366.999039 228.000178 
L 368.08484 212.504585 
L 369.170642 210.751415 
L 370.256443 221.84965 
L 371.342244 210.613258 
L 372.428045 204.682708 
L 373.513846 233.197172 
L 374.599647 228.585679 
L 375.685448 257.823224 
L 376.77125 236.888638 
L 377.857051 250.122202 
L 378.942852 263.139711 
L 380.028653 261.299042 
L 381.114454 239.137988 
L 382.200255 232.407994 
L 383.286057 241.877462 
L 384.371858 247.086274 
L 385.457659 228.349931 
L 386.54346 228.071647 
L 387.629261 227.515442 
L 388.715062 206.572521 
L 389.800863 244.419494 
L 390.886665 258.890327 
L 391.972466 250.119455 
L 393.058267 242.292078 
L 394.144068 267.908014 
L 395.229869 266.210669 
L 396.31567 271.39044 
L 397.401472 281.013159 
L 398.487273 248.437605 
L 398.487273 233.489464 
L 398.487273 233.489464 
L 397.401472 262.473414 
L 396.31567 238.918988 
L 395.229869 245.876156 
L 394.144068 248.620438 
L 393.058267 224.075124 
L 391.972466 229.127895 
L 390.886665 218.266737 
L 389.800863 202.285575 
L 388.715062 176.907539 
L 387.629261 185.896999 
L 386.54346 205.168909 
L 385.457659 200.066096 
L 384.371858 203.28739 
L 383.286057 209.056447 
L 382.200255 207.407812 
L 381.114454 198.969532 
L 380.028653 239.423821 
L 378.942852 240.859248 
L 377.857051 225.886052 
L 376.77125 207.961049 
L 375.685448 232.336146 
L 374.599647 201.780624 
L 373.513846 196.268374 
L 372.428045 198.46392 
L 371.342244 186.748066 
L 370.256443 193.956513 
L 369.170642 182.425839 
L 368.08484 190.251238 
L 366.999039 198.189088 
L 365.913238 185.708561 
L 364.827437 194.49904 
L 363.741636 185.809439 
L 362.655835 204.158694 
L 361.570033 202.096159 
L 360.484232 200.556852 
L 359.398431 154.149682 
L 358.31263 162.682186 
L 357.226829 190.050589 
L 356.141028 181.350348 
L 355.055227 208.750592 
L 353.969425 210.132935 
L 352.883624 207.671138 
L 351.797823 193.163117 
L 350.712022 175.401463 
L 349.626221 186.467474 
L 348.54042 219.209504 
L 347.454618 216.797604 
L 346.368817 213.400946 
L 345.283016 212.98163 
L 344.197215 197.614291 
L 343.111414 179.35452 
L 342.025613 193.551749 
L 340.939811 175.995014 
L 339.85401 183.729359 
L 338.768209 184.953625 
L 337.682408 184.339458 
L 336.596607 167.579482 
L 335.510806 170.81448 
L 334.425005 152.634892 
L 333.339203 167.643528 
L 332.253402 150.128659 
L 331.167601 131.094784 
L 330.0818 158.293378 
L 328.995999 141.409119 
L 327.910198 143.427133 
L 326.824396 156.166811 
L 325.738595 116.748597 
L 324.652794 138.820149 
L 323.566993 146.97919 
L 322.481192 156.737517 
L 321.395391 167.522931 
L 320.30959 158.830928 
L 319.223788 160.029707 
L 318.137987 170.793734 
L 317.052186 168.332914 
L 315.966385 186.940034 
L 314.880584 166.67261 
L 313.794783 182.689396 
L 312.708981 182.648301 
L 311.62318 174.247281 
L 310.537379 199.439661 
L 309.451578 187.502261 
L 308.365777 152.204556 
L 307.279976 175.980331 
L 306.194175 151.994184 
L 305.108373 169.362244 
L 304.022572 154.455832 
L 302.936771 174.06895 
L 301.85097 173.432512 
L 300.765169 155.451777 
L 299.679368 166.570505 
L 298.593566 162.174239 
L 297.507765 176.571623 
L 296.421964 159.707727 
L 295.336163 146.682065 
L 294.250362 163.496101 
L 293.164561 184.253436 
L 292.07876 140.952498 
L 290.992958 134.254474 
L 289.907157 138.813017 
L 288.821356 185.052015 
L 287.735555 177.333059 
L 286.649754 184.739162 
L 285.563953 182.096008 
L 284.478151 169.669491 
L 283.39235 189.519433 
L 282.306549 192.71284 
L 281.220748 169.629077 
L 280.134947 197.573925 
L 279.049146 239.006182 
L 277.963344 200.876229 
L 276.877543 164.883588 
L 275.791742 146.672507 
L 274.705941 147.810088 
L 273.62014 148.67858 
L 272.534339 155.868578 
L 271.448538 178.991384 
L 270.362736 173.860651 
L 269.276935 160.842373 
L 268.191134 156.700289 
L 267.105333 178.062688 
L 266.019532 182.091965 
L 264.933731 174.104289 
L 263.847929 188.850202 
L 262.762128 199.339513 
L 261.676327 228.265358 
L 260.590526 181.879386 
L 259.504725 156.930778 
L 258.418924 157.394748 
L 257.333123 163.874728 
L 256.247321 177.74749 
L 255.16152 170.03512 
L 254.075719 177.982764 
L 252.989918 209.615151 
L 251.904117 156.590147 
L 250.818316 165.923053 
L 249.732514 161.810991 
L 248.646713 153.793719 
L 247.560912 159.51462 
L 246.475111 177.21582 
L 245.38931 184.934828 
L 244.303509 187.426821 
L 243.217708 151.00263 
L 242.131906 148.01653 
L 241.046105 147.56614 
L 239.960304 140.854222 
L 238.874503 157.404455 
L 237.788702 176.389787 
L 236.702901 171.559739 
L 235.617099 160.184702 
L 234.531298 143.03274 
L 233.445497 152.015011 
L 232.359696 156.297085 
L 231.273895 171.159737 
L 230.188094 180.448802 
L 229.102292 198.470028 
L 228.016491 189.74659 
L 226.93069 211.070841 
L 225.844889 202.840191 
L 224.759088 215.645388 
L 223.673287 185.000499 
L 222.587486 179.973778 
L 221.501684 163.511548 
L 220.415883 183.264393 
L 219.330082 184.197495 
L 218.244281 175.036734 
L 217.15848 171.758244 
L 216.072679 181.05022 
L 214.986877 189.017948 
L 213.901076 151.174755 
L 212.815275 192.324026 
L 211.729474 169.291341 
L 210.643673 165.388853 
L 209.557872 154.30481 
L 208.472071 145.979166 
L 207.386269 135.656043 
L 206.300468 123.858251 
L 205.214667 121.908785 
L 204.128866 115.682551 
L 203.043065 137.796831 
L 201.957264 152.17018 
L 200.871462 141.949157 
L 199.785661 139.759869 
L 198.69986 149.129188 
L 197.614059 134.277301 
L 196.528258 146.002193 
L 195.442457 159.309945 
L 194.356656 140.581161 
L 193.270854 140.134905 
L 192.185053 167.490332 
L 191.099252 168.079141 
L 190.013451 171.632494 
L 188.92765 179.659434 
L 187.841849 173.359809 
L 186.756047 172.478058 
L 185.670246 188.109573 
L 184.584445 195.260972 
L 183.498644 183.750351 
L 182.412843 175.502652 
L 181.327042 169.372839 
L 180.24124 147.932261 
L 179.155439 165.087972 
L 178.069638 168.237752 
L 176.983837 174.573896 
L 175.898036 159.08568 
L 174.812235 158.405191 
L 173.726434 149.978655 
L 172.640632 129.316895 
L 171.554831 135.974531 
L 170.46903 145.81708 
L 169.383229 149.51245 
L 168.297428 147.120489 
L 167.211627 143.409605 
L 166.125825 136.267957 
L 165.040024 140.830186 
L 163.954223 148.015575 
L 162.868422 132.48553 
L 161.782621 134.59418 
L 160.69682 146.243533 
L 159.611019 150.904042 
L 158.525217 173.567758 
L 157.439416 177.182997 
L 156.353615 183.110618 
L 155.267814 179.380767 
L 154.182013 208.807163 
L 153.096212 137.07144 
L 152.01041 121.554907 
L 150.924609 157.822048 
L 149.838808 169.298674 
L 148.753007 158.030631 
L 147.667206 169.421538 
L 146.581405 149.308029 
L 145.495604 161.055173 
L 144.409802 193.936152 
L 143.324001 221.331827 
L 142.2382 199.328838 
L 141.152399 192.150855 
L 140.066598 208.010898 
L 138.980797 188.507541 
L 137.894995 167.468546 
L 136.809194 196.429443 
L 135.723393 186.768869 
L 134.637592 228.069982 
L 133.551791 212.134204 
L 132.46599 235.183953 
L 131.380189 203.737266 
L 130.294387 222.396829 
L 129.208586 199.350103 
L 128.122785 198.445084 
L 127.036984 193.429781 
L 125.951183 217.976806 
L 124.865382 222.801562 
L 123.77958 218.612045 
L 122.693779 224.419423 
L 121.607978 177.734754 
L 120.522177 158.249363 
L 119.436376 163.047693 
L 118.350575 183.595869 
L 117.264773 199.331665 
L 116.178972 179.948911 
L 115.093171 201.133064 
L 114.00737 199.375891 
L 112.921569 170.095213 
L 111.835768 181.614416 
L 110.749967 159.338525 
L 109.664165 133.182387 
L 108.578364 119.64839 
L 107.492563 132.293432 
L 106.406762 161.122423 
L 105.320961 166.760289 
L 104.23516 198.187207 
L 103.149358 204.284074 
L 102.063557 204.559312 
L 100.977756 187.942395 
L 99.891955 188.417946 
L 98.806154 197.505496 
L 97.720353 178.864617 
L 96.634552 156.601818 
L 95.54875 178.238474 
L 94.462949 166.462483 
L 93.377148 187.62681 
L 92.291347 171.699378 
L 91.205546 187.843909 
L 90.119745 177.039481 
L 89.033943 172.911603 
L 87.948142 152.037949 
L 86.862341 128.52842 
L 85.77654 111.535857 
L 84.690739 125.220125 
L 83.604938 128.964831 
L 82.519137 108.268993 
L 81.433335 82.603565 
L 80.347534 100.179456 
L 79.261733 114.900102 
L 78.175932 102.506254 
L 77.090131 86.960751 
L 76.00433 80.416277 
L 74.918528 85.341947 
L 73.832727 53.568 
z
" style="fill:#0000ff;fill-opacity:0.25;"/>
   </g>
   <g id="matplotlib.axis_1">
    <g id="xtick_1">
     <g id="line2d_1">
      <defs>
       <path d="M 0 0 
L 0 3.5 
" id="m56f4e323cb" style="stroke:#000000;stroke-width:0.8;"/>
      </defs>
      <g>
       <use style="stroke:#000000;stroke-width:0.8;" x="73.832727" xlink:href="#m56f4e323cb" y="307.584"/>
      </g>
     </g>
     <g id="text_1">
      <!-- 0 -->
      <defs>
       <path d="M 31.78125 66.40625 
Q 24.171875 66.40625 20.328125 58.90625 
Q 16.5 51.421875 16.5 36.375 
Q 16.5 21.390625 20.328125 13.890625 
Q 24.171875 6.390625 31.78125 6.390625 
Q 39.453125 6.390625 43.28125 13.890625 
Q 47.125 21.390625 47.125 36.375 
Q 47.125 51.421875 43.28125 58.90625 
Q 39.453125 66.40625 31.78125 66.40625 
z
M 31.78125 74.21875 
Q 44.046875 74.21875 50.515625 64.515625 
Q 56.984375 54.828125 56.984375 36.375 
Q 56.984375 17.96875 50.515625 8.265625 
Q 44.046875 -1.421875 31.78125 -1.421875 
Q 19.53125 -1.421875 13.0625 8.265625 
Q 6.59375 17.96875 6.59375 36.375 
Q 6.59375 54.828125 13.0625 64.515625 
Q 19.53125 74.21875 31.78125 74.21875 
z
" id="DejaVuSans-48"/>
      </defs>
      <g transform="translate(70.651477 322.182437)scale(0.1 -0.1)">
       <use xlink:href="#DejaVuSans-48"/>
      </g>
     </g>
    </g>
    <g id="xtick_2">
     <g id="line2d_2">
      <g>
       <use style="stroke:#000000;stroke-width:0.8;" x="128.122785" xlink:href="#m56f4e323cb" y="307.584"/>
      </g>
     </g>
     <g id="text_2">
      <!-- 50 -->
      <defs>
       <path d="M 10.796875 72.90625 
L 49.515625 72.90625 
L 49.515625 64.59375 
L 19.828125 64.59375 
L 19.828125 46.734375 
Q 21.96875 47.46875 24.109375 47.828125 
Q 26.265625 48.1875 28.421875 48.1875 
Q 40.625 48.1875 47.75 41.5 
Q 54.890625 34.8125 54.890625 23.390625 
Q 54.890625 11.625 47.5625 5.09375 
Q 40.234375 -1.421875 26.90625 -1.421875 
Q 22.3125 -1.421875 17.546875 -0.640625 
Q 12.796875 0.140625 7.71875 1.703125 
L 7.71875 11.625 
Q 12.109375 9.234375 16.796875 8.0625 
Q 21.484375 6.890625 26.703125 6.890625 
Q 35.15625 6.890625 40.078125 11.328125 
Q 45.015625 15.765625 45.015625 23.390625 
Q 45.015625 31 40.078125 35.4375 
Q 35.15625 39.890625 26.703125 39.890625 
Q 22.75 39.890625 18.8125 39.015625 
Q 14.890625 38.140625 10.796875 36.28125 
z
" id="DejaVuSans-53"/>
      </defs>
      <g transform="translate(121.760285 322.182437)scale(0.1 -0.1)">
       <use xlink:href="#DejaVuSans-53"/>
       <use x="63.623047" xlink:href="#DejaVuSans-48"/>
      </g>
     </g>
    </g>
    <g id="xtick_3">
     <g id="line2d_3">
      <g>
       <use style="stroke:#000000;stroke-width:0.8;" x="182.412843" xlink:href="#m56f4e323cb" y="307.584"/>
      </g>
     </g>
     <g id="text_3">
      <!-- 100 -->
      <defs>
       <path d="M 12.40625 8.296875 
L 28.515625 8.296875 
L 28.515625 63.921875 
L 10.984375 60.40625 
L 10.984375 69.390625 
L 28.421875 72.90625 
L 38.28125 72.90625 
L 38.28125 8.296875 
L 54.390625 8.296875 
L 54.390625 0 
L 12.40625 0 
z
" id="DejaVuSans-49"/>
      </defs>
      <g transform="translate(172.869093 322.182437)scale(0.1 -0.1)">
       <use xlink:href="#DejaVuSans-49"/>
       <use x="63.623047" xlink:href="#DejaVuSans-48"/>
       <use x="127.246094" xlink:href="#DejaVuSans-48"/>
      </g>
     </g>
    </g>
    <g id="xtick_4">
     <g id="line2d_4">
      <g>
       <use style="stroke:#000000;stroke-width:0.8;" x="236.702901" xlink:href="#m56f4e323cb" y="307.584"/>
      </g>
     </g>
     <g id="text_4">
      <!-- 150 -->
      <g transform="translate(227.159151 322.182437)scale(0.1 -0.1)">
       <use xlink:href="#DejaVuSans-49"/>
       <use x="63.623047" xlink:href="#DejaVuSans-53"/>
       <use x="127.246094" xlink:href="#DejaVuSans-48"/>
      </g>
     </g>
    </g>
    <g id="xtick_5">
     <g id="line2d_5">
      <g>
       <use style="stroke:#000000;stroke-width:0.8;" x="290.992958" xlink:href="#m56f4e323cb" y="307.584"/>
      </g>
     </g>
     <g id="text_5">
      <!-- 200 -->
      <defs>
       <path d="M 19.1875 8.296875 
L 53.609375 8.296875 
L 53.609375 0 
L 7.328125 0 
L 7.328125 8.296875 
Q 12.9375 14.109375 22.625 23.890625 
Q 32.328125 33.6875 34.8125 36.53125 
Q 39.546875 41.84375 41.421875 45.53125 
Q 43.3125 49.21875 43.3125 52.78125 
Q 43.3125 58.59375 39.234375 62.25 
Q 35.15625 65.921875 28.609375 65.921875 
Q 23.96875 65.921875 18.8125 64.3125 
Q 13.671875 62.703125 7.8125 59.421875 
L 7.8125 69.390625 
Q 13.765625 71.78125 18.9375 73 
Q 24.125 74.21875 28.421875 74.21875 
Q 39.75 74.21875 46.484375 68.546875 
Q 53.21875 62.890625 53.21875 53.421875 
Q 53.21875 48.921875 51.53125 44.890625 
Q 49.859375 40.875 45.40625 35.40625 
Q 44.1875 33.984375 37.640625 27.21875 
Q 31.109375 20.453125 19.1875 8.296875 
z
" id="DejaVuSans-50"/>
      </defs>
      <g transform="translate(281.449208 322.182437)scale(0.1 -0.1)">
       <use xlink:href="#DejaVuSans-50"/>
       <use x="63.623047" xlink:href="#DejaVuSans-48"/>
       <use x="127.246094" xlink:href="#DejaVuSans-48"/>
      </g>
     </g>
    </g>
    <g id="xtick_6">
     <g id="line2d_6">
      <g>
       <use style="stroke:#000000;stroke-width:0.8;" x="345.283016" xlink:href="#m56f4e323cb" y="307.584"/>
      </g>
     </g>
     <g id="text_6">
      <!-- 250 -->
      <g transform="translate(335.739266 322.182437)scale(0.1 -0.1)">
       <use xlink:href="#DejaVuSans-50"/>
       <use x="63.623047" xlink:href="#DejaVuSans-53"/>
       <use x="127.246094" xlink:href="#DejaVuSans-48"/>
      </g>
     </g>
    </g>
    <g id="xtick_7">
     <g id="line2d_7">
      <g>
       <use style="stroke:#000000;stroke-width:0.8;" x="399.573074" xlink:href="#m56f4e323cb" y="307.584"/>
      </g>
     </g>
     <g id="text_7">
      <!-- 300 -->
      <defs>
       <path d="M 40.578125 39.3125 
Q 47.65625 37.796875 51.625 33 
Q 55.609375 28.21875 55.609375 21.1875 
Q 55.609375 10.40625 48.1875 4.484375 
Q 40.765625 -1.421875 27.09375 -1.421875 
Q 22.515625 -1.421875 17.65625 -0.515625 
Q 12.796875 0.390625 7.625 2.203125 
L 7.625 11.71875 
Q 11.71875 9.328125 16.59375 8.109375 
Q 21.484375 6.890625 26.8125 6.890625 
Q 36.078125 6.890625 40.9375 10.546875 
Q 45.796875 14.203125 45.796875 21.1875 
Q 45.796875 27.640625 41.28125 31.265625 
Q 36.765625 34.90625 28.71875 34.90625 
L 20.21875 34.90625 
L 20.21875 43.015625 
L 29.109375 43.015625 
Q 36.375 43.015625 40.234375 45.921875 
Q 44.09375 48.828125 44.09375 54.296875 
Q 44.09375 59.90625 40.109375 62.90625 
Q 36.140625 65.921875 28.71875 65.921875 
Q 24.65625 65.921875 20.015625 65.03125 
Q 15.375 64.15625 9.8125 62.3125 
L 9.8125 71.09375 
Q 15.4375 72.65625 20.34375 73.4375 
Q 25.25 74.21875 29.59375 74.21875 
Q 40.828125 74.21875 47.359375 69.109375 
Q 53.90625 64.015625 53.90625 55.328125 
Q 53.90625 49.265625 50.4375 45.09375 
Q 46.96875 40.921875 40.578125 39.3125 
z
" id="DejaVuSans-51"/>
      </defs>
      <g transform="translate(390.029324 322.182437)scale(0.1 -0.1)">
       <use xlink:href="#DejaVuSans-51"/>
       <use x="63.623047" xlink:href="#DejaVuSans-48"/>
       <use x="127.246094" xlink:href="#DejaVuSans-48"/>
      </g>
     </g>
    </g>
   </g>
   <g id="matplotlib.axis_2">
    <g id="ytick_1">
     <g id="line2d_8">
      <defs>
       <path d="M 0 0 
L -3.5 0 
" id="m7c084e73cb" style="stroke:#000000;stroke-width:0.8;"/>
      </defs>
      <g>
       <use style="stroke:#000000;stroke-width:0.8;" x="57.6" xlink:href="#m7c084e73cb" y="283.927202"/>
      </g>
     </g>
     <g id="text_8">
      <!-- 0.6 -->
      <defs>
       <path d="M 10.6875 12.40625 
L 21 12.40625 
L 21 0 
L 10.6875 0 
z
" id="DejaVuSans-46"/>
       <path d="M 33.015625 40.375 
Q 26.375 40.375 22.484375 35.828125 
Q 18.609375 31.296875 18.609375 23.390625 
Q 18.609375 15.53125 22.484375 10.953125 
Q 26.375 6.390625 33.015625 6.390625 
Q 39.65625 6.390625 43.53125 10.953125 
Q 47.40625 15.53125 47.40625 23.390625 
Q 47.40625 31.296875 43.53125 35.828125 
Q 39.65625 40.375 33.015625 40.375 
z
M 52.59375 71.296875 
L 52.59375 62.3125 
Q 48.875 64.0625 45.09375 64.984375 
Q 41.3125 65.921875 37.59375 65.921875 
Q 27.828125 65.921875 22.671875 59.328125 
Q 17.53125 52.734375 16.796875 39.40625 
Q 19.671875 43.65625 24.015625 45.921875 
Q 28.375 48.1875 33.59375 48.1875 
Q 44.578125 48.1875 50.953125 41.515625 
Q 57.328125 34.859375 57.328125 23.390625 
Q 57.328125 12.15625 50.6875 5.359375 
Q 44.046875 -1.421875 33.015625 -1.421875 
Q 20.359375 -1.421875 13.671875 8.265625 
Q 6.984375 17.96875 6.984375 36.375 
Q 6.984375 53.65625 15.1875 63.9375 
Q 23.390625 74.21875 37.203125 74.21875 
Q 40.921875 74.21875 44.703125 73.484375 
Q 48.484375 72.75 52.59375 71.296875 
z
" id="DejaVuSans-54"/>
      </defs>
      <g transform="translate(34.696875 287.726421)scale(0.1 -0.1)">
       <use xlink:href="#DejaVuSans-48"/>
       <use x="63.623047" xlink:href="#DejaVuSans-46"/>
       <use x="95.410156" xlink:href="#DejaVuSans-54"/>
      </g>
     </g>
    </g>
    <g id="ytick_2">
     <g id="line2d_9">
      <g>
       <use style="stroke:#000000;stroke-width:0.8;" x="57.6" xlink:href="#m7c084e73cb" y="246.18479"/>
      </g>
     </g>
     <g id="text_9">
      <!-- 0.8 -->
      <defs>
       <path d="M 31.78125 34.625 
Q 24.75 34.625 20.71875 30.859375 
Q 16.703125 27.09375 16.703125 20.515625 
Q 16.703125 13.921875 20.71875 10.15625 
Q 24.75 6.390625 31.78125 6.390625 
Q 38.8125 6.390625 42.859375 10.171875 
Q 46.921875 13.96875 46.921875 20.515625 
Q 46.921875 27.09375 42.890625 30.859375 
Q 38.875 34.625 31.78125 34.625 
z
M 21.921875 38.8125 
Q 15.578125 40.375 12.03125 44.71875 
Q 8.5 49.078125 8.5 55.328125 
Q 8.5 64.0625 14.71875 69.140625 
Q 20.953125 74.21875 31.78125 74.21875 
Q 42.671875 74.21875 48.875 69.140625 
Q 55.078125 64.0625 55.078125 55.328125 
Q 55.078125 49.078125 51.53125 44.71875 
Q 48 40.375 41.703125 38.8125 
Q 48.828125 37.15625 52.796875 32.3125 
Q 56.78125 27.484375 56.78125 20.515625 
Q 56.78125 9.90625 50.3125 4.234375 
Q 43.84375 -1.421875 31.78125 -1.421875 
Q 19.734375 -1.421875 13.25 4.234375 
Q 6.78125 9.90625 6.78125 20.515625 
Q 6.78125 27.484375 10.78125 32.3125 
Q 14.796875 37.15625 21.921875 38.8125 
z
M 18.3125 54.390625 
Q 18.3125 48.734375 21.84375 45.5625 
Q 25.390625 42.390625 31.78125 42.390625 
Q 38.140625 42.390625 41.71875 45.5625 
Q 45.3125 48.734375 45.3125 54.390625 
Q 45.3125 60.0625 41.71875 63.234375 
Q 38.140625 66.40625 31.78125 66.40625 
Q 25.390625 66.40625 21.84375 63.234375 
Q 18.3125 60.0625 18.3125 54.390625 
z
" id="DejaVuSans-56"/>
      </defs>
      <g transform="translate(34.696875 249.984009)scale(0.1 -0.1)">
       <use xlink:href="#DejaVuSans-48"/>
       <use x="63.623047" xlink:href="#DejaVuSans-46"/>
       <use x="95.410156" xlink:href="#DejaVuSans-56"/>
      </g>
     </g>
    </g>
    <g id="ytick_3">
     <g id="line2d_10">
      <g>
       <use style="stroke:#000000;stroke-width:0.8;" x="57.6" xlink:href="#m7c084e73cb" y="208.442378"/>
      </g>
     </g>
     <g id="text_10">
      <!-- 1.0 -->
      <g transform="translate(34.696875 212.241597)scale(0.1 -0.1)">
       <use xlink:href="#DejaVuSans-49"/>
       <use x="63.623047" xlink:href="#DejaVuSans-46"/>
       <use x="95.410156" xlink:href="#DejaVuSans-48"/>
      </g>
     </g>
    </g>
    <g id="ytick_4">
     <g id="line2d_11">
      <g>
       <use style="stroke:#000000;stroke-width:0.8;" x="57.6" xlink:href="#m7c084e73cb" y="170.699967"/>
      </g>
     </g>
     <g id="text_11">
      <!-- 1.2 -->
      <g transform="translate(34.696875 174.499185)scale(0.1 -0.1)">
       <use xlink:href="#DejaVuSans-49"/>
       <use x="63.623047" xlink:href="#DejaVuSans-46"/>
       <use x="95.410156" xlink:href="#DejaVuSans-50"/>
      </g>
     </g>
    </g>
    <g id="ytick_5">
     <g id="line2d_12">
      <g>
       <use style="stroke:#000000;stroke-width:0.8;" x="57.6" xlink:href="#m7c084e73cb" y="132.957555"/>
      </g>
     </g>
     <g id="text_12">
      <!-- 1.4 -->
      <defs>
       <path d="M 37.796875 64.3125 
L 12.890625 25.390625 
L 37.796875 25.390625 
z
M 35.203125 72.90625 
L 47.609375 72.90625 
L 47.609375 25.390625 
L 58.015625 25.390625 
L 58.015625 17.1875 
L 47.609375 17.1875 
L 47.609375 0 
L 37.796875 0 
L 37.796875 17.1875 
L 4.890625 17.1875 
L 4.890625 26.703125 
z
" id="DejaVuSans-52"/>
      </defs>
      <g transform="translate(34.696875 136.756774)scale(0.1 -0.1)">
       <use xlink:href="#DejaVuSans-49"/>
       <use x="63.623047" xlink:href="#DejaVuSans-46"/>
       <use x="95.410156" xlink:href="#DejaVuSans-52"/>
      </g>
     </g>
    </g>
    <g id="ytick_6">
     <g id="line2d_13">
      <g>
       <use style="stroke:#000000;stroke-width:0.8;" x="57.6" xlink:href="#m7c084e73cb" y="95.215143"/>
      </g>
     </g>
     <g id="text_13">
      <!-- 1.6 -->
      <g transform="translate(34.696875 99.014362)scale(0.1 -0.1)">
       <use xlink:href="#DejaVuSans-49"/>
       <use x="63.623047" xlink:href="#DejaVuSans-46"/>
       <use x="95.410156" xlink:href="#DejaVuSans-54"/>
      </g>
     </g>
    </g>
    <g id="ytick_7">
     <g id="line2d_14">
      <g>
       <use style="stroke:#000000;stroke-width:0.8;" x="57.6" xlink:href="#m7c084e73cb" y="57.472732"/>
      </g>
     </g>
     <g id="text_14">
      <!-- 1.8 -->
      <g transform="translate(34.696875 61.27195)scale(0.1 -0.1)">
       <use xlink:href="#DejaVuSans-49"/>
       <use x="63.623047" xlink:href="#DejaVuSans-46"/>
       <use x="95.410156" xlink:href="#DejaVuSans-56"/>
      </g>
     </g>
    </g>
    <g id="text_15">
     <!-- Distance -->
     <defs>
      <path d="M 19.671875 64.796875 
L 19.671875 8.109375 
L 31.59375 8.109375 
Q 46.6875 8.109375 53.6875 14.9375 
Q 60.6875 21.78125 60.6875 36.53125 
Q 60.6875 51.171875 53.6875 57.984375 
Q 46.6875 64.796875 31.59375 64.796875 
z
M 9.8125 72.90625 
L 30.078125 72.90625 
Q 51.265625 72.90625 61.171875 64.09375 
Q 71.09375 55.28125 71.09375 36.53125 
Q 71.09375 17.671875 61.125 8.828125 
Q 51.171875 0 30.078125 0 
L 9.8125 0 
z
" id="DejaVuSans-68"/>
      <path d="M 9.421875 54.6875 
L 18.40625 54.6875 
L 18.40625 0 
L 9.421875 0 
z
M 9.421875 75.984375 
L 18.40625 75.984375 
L 18.40625 64.59375 
L 9.421875 64.59375 
z
" id="DejaVuSans-105"/>
      <path d="M 44.28125 53.078125 
L 44.28125 44.578125 
Q 40.484375 46.53125 36.375 47.5 
Q 32.28125 48.484375 27.875 48.484375 
Q 21.1875 48.484375 17.84375 46.4375 
Q 14.5 44.390625 14.5 40.28125 
Q 14.5 37.15625 16.890625 35.375 
Q 19.28125 33.59375 26.515625 31.984375 
L 29.59375 31.296875 
Q 39.15625 29.25 43.1875 25.515625 
Q 47.21875 21.78125 47.21875 15.09375 
Q 47.21875 7.46875 41.1875 3.015625 
Q 35.15625 -1.421875 24.609375 -1.421875 
Q 20.21875 -1.421875 15.453125 -0.5625 
Q 10.6875 0.296875 5.421875 2 
L 5.421875 11.28125 
Q 10.40625 8.6875 15.234375 7.390625 
Q 20.0625 6.109375 24.8125 6.109375 
Q 31.15625 6.109375 34.5625 8.28125 
Q 37.984375 10.453125 37.984375 14.40625 
Q 37.984375 18.0625 35.515625 20.015625 
Q 33.0625 21.96875 24.703125 23.78125 
L 21.578125 24.515625 
Q 13.234375 26.265625 9.515625 29.90625 
Q 5.8125 33.546875 5.8125 39.890625 
Q 5.8125 47.609375 11.28125 51.796875 
Q 16.75 56 26.8125 56 
Q 31.78125 56 36.171875 55.265625 
Q 40.578125 54.546875 44.28125 53.078125 
z
" id="DejaVuSans-115"/>
      <path d="M 18.3125 70.21875 
L 18.3125 54.6875 
L 36.8125 54.6875 
L 36.8125 47.703125 
L 18.3125 47.703125 
L 18.3125 18.015625 
Q 18.3125 11.328125 20.140625 9.421875 
Q 21.96875 7.515625 27.59375 7.515625 
L 36.8125 7.515625 
L 36.8125 0 
L 27.59375 0 
Q 17.1875 0 13.234375 3.875 
Q 9.28125 7.765625 9.28125 18.015625 
L 9.28125 47.703125 
L 2.6875 47.703125 
L 2.6875 54.6875 
L 9.28125 54.6875 
L 9.28125 70.21875 
z
" id="DejaVuSans-116"/>
      <path d="M 34.28125 27.484375 
Q 23.390625 27.484375 19.1875 25 
Q 14.984375 22.515625 14.984375 16.5 
Q 14.984375 11.71875 18.140625 8.90625 
Q 21.296875 6.109375 26.703125 6.109375 
Q 34.1875 6.109375 38.703125 11.40625 
Q 43.21875 16.703125 43.21875 25.484375 
L 43.21875 27.484375 
z
M 52.203125 31.203125 
L 52.203125 0 
L 43.21875 0 
L 43.21875 8.296875 
Q 40.140625 3.328125 35.546875 0.953125 
Q 30.953125 -1.421875 24.3125 -1.421875 
Q 15.921875 -1.421875 10.953125 3.296875 
Q 6 8.015625 6 15.921875 
Q 6 25.140625 12.171875 29.828125 
Q 18.359375 34.515625 30.609375 34.515625 
L 43.21875 34.515625 
L 43.21875 35.40625 
Q 43.21875 41.609375 39.140625 45 
Q 35.0625 48.390625 27.6875 48.390625 
Q 23 48.390625 18.546875 47.265625 
Q 14.109375 46.140625 10.015625 43.890625 
L 10.015625 52.203125 
Q 14.9375 54.109375 19.578125 55.046875 
Q 24.21875 56 28.609375 56 
Q 40.484375 56 46.34375 49.84375 
Q 52.203125 43.703125 52.203125 31.203125 
z
" id="DejaVuSans-97"/>
      <path d="M 54.890625 33.015625 
L 54.890625 0 
L 45.90625 0 
L 45.90625 32.71875 
Q 45.90625 40.484375 42.875 44.328125 
Q 39.84375 48.1875 33.796875 48.1875 
Q 26.515625 48.1875 22.3125 43.546875 
Q 18.109375 38.921875 18.109375 30.90625 
L 18.109375 0 
L 9.078125 0 
L 9.078125 54.6875 
L 18.109375 54.6875 
L 18.109375 46.1875 
Q 21.34375 51.125 25.703125 53.5625 
Q 30.078125 56 35.796875 56 
Q 45.21875 56 50.046875 50.171875 
Q 54.890625 44.34375 54.890625 33.015625 
z
" id="DejaVuSans-110"/>
      <path d="M 48.78125 52.59375 
L 48.78125 44.1875 
Q 44.96875 46.296875 41.140625 47.34375 
Q 37.3125 48.390625 33.40625 48.390625 
Q 24.65625 48.390625 19.8125 42.84375 
Q 14.984375 37.3125 14.984375 27.296875 
Q 14.984375 17.28125 19.8125 11.734375 
Q 24.65625 6.203125 33.40625 6.203125 
Q 37.3125 6.203125 41.140625 7.25 
Q 44.96875 8.296875 48.78125 10.40625 
L 48.78125 2.09375 
Q 45.015625 0.34375 40.984375 -0.53125 
Q 36.96875 -1.421875 32.421875 -1.421875 
Q 20.0625 -1.421875 12.78125 6.34375 
Q 5.515625 14.109375 5.515625 27.296875 
Q 5.515625 40.671875 12.859375 48.328125 
Q 20.21875 56 33.015625 56 
Q 37.15625 56 41.109375 55.140625 
Q 45.0625 54.296875 48.78125 52.59375 
z
" id="DejaVuSans-99"/>
      <path d="M 56.203125 29.59375 
L 56.203125 25.203125 
L 14.890625 25.203125 
Q 15.484375 15.921875 20.484375 11.0625 
Q 25.484375 6.203125 34.421875 6.203125 
Q 39.59375 6.203125 44.453125 7.46875 
Q 49.3125 8.734375 54.109375 11.28125 
L 54.109375 2.78125 
Q 49.265625 0.734375 44.1875 -0.34375 
Q 39.109375 -1.421875 33.890625 -1.421875 
Q 20.796875 -1.421875 13.15625 6.1875 
Q 5.515625 13.8125 5.515625 26.8125 
Q 5.515625 40.234375 12.765625 48.109375 
Q 20.015625 56 32.328125 56 
Q 43.359375 56 49.78125 48.890625 
Q 56.203125 41.796875 56.203125 29.59375 
z
M 47.21875 32.234375 
Q 47.125 39.59375 43.09375 43.984375 
Q 39.0625 48.390625 32.421875 48.390625 
Q 24.90625 48.390625 20.390625 44.140625 
Q 15.875 39.890625 15.1875 32.171875 
z
" id="DejaVuSans-101"/>
     </defs>
     <g transform="translate(28.617187 196.3905)rotate(-90)scale(0.1 -0.1)">
      <use xlink:href="#DejaVuSans-68"/>
      <use x="77.001953" xlink:href="#DejaVuSans-105"/>
      <use x="104.785156" xlink:href="#DejaVuSans-115"/>
      <use x="156.884766" xlink:href="#DejaVuSans-116"/>
      <use x="196.09375" xlink:href="#DejaVuSans-97"/>
      <use x="257.373047" xlink:href="#DejaVuSans-110"/>
      <use x="320.751953" xlink:href="#DejaVuSans-99"/>
      <use x="375.732422" xlink:href="#DejaVuSans-101"/>
     </g>
    </g>
   </g>
   <g id="line2d_15">
    <path clip-path="url(#p21786f2e93)" d="M 73.832727 57.152608 
L 74.918528 89.607352 
L 76.00433 91.06916 
L 77.090131 100.951026 
L 78.175932 116.427215 
L 79.261733 121.179102 
L 80.347534 106.019004 
L 81.433335 87.776864 
L 82.519137 114.123924 
L 83.604938 135.238546 
L 84.690739 134.213962 
L 85.77654 123.593249 
L 86.862341 136.629491 
L 87.948142 173.362046 
L 89.033943 192.706078 
L 90.119745 204.461219 
L 91.205546 208.11219 
L 92.291347 189.448518 
L 93.377148 199.067564 
L 94.462949 187.462955 
L 95.54875 188.888051 
L 96.634552 166.29066 
L 97.720353 189.596403 
L 98.806154 202.022123 
L 99.891955 203.21124 
L 100.977756 198.367064 
L 102.063557 212.730464 
L 103.149358 215.119881 
L 104.23516 207.536921 
L 105.320961 178.265748 
L 106.406762 166.321706 
L 107.492563 146.93696 
L 108.578364 130.919716 
L 109.664165 143.586157 
L 110.749967 174.121005 
L 111.835768 196.140995 
L 112.921569 188.023913 
L 114.00737 211.778229 
L 115.093171 211.778646 
L 116.178972 202.152805 
L 117.264773 214.60399 
L 118.350575 200.819025 
L 119.436376 175.789052 
L 120.522177 176.059661 
L 121.607978 189.970093 
L 122.693779 243.163051 
L 123.77958 230.847299 
L 124.865382 259.144781 
L 125.951183 240.370585 
L 127.036984 207.204023 
L 129.208586 212.949067 
L 130.294387 248.136671 
L 131.380189 227.585229 
L 132.46599 256.019548 
L 133.551791 234.554974 
L 134.637592 243.297834 
L 135.723393 208.822941 
L 136.809194 212.944071 
L 137.894995 193.729177 
L 138.980797 205.529841 
L 140.066598 225.301931 
L 141.152399 218.099248 
L 142.2382 222.180767 
L 143.324001 243.279833 
L 144.409802 219.928623 
L 145.495604 180.983517 
L 146.581405 157.824712 
L 147.667206 182.94887 
L 148.753007 167.742994 
L 149.838808 178.708568 
L 150.924609 169.449758 
L 152.01041 136.095883 
L 153.096212 141.074841 
L 154.182013 216.099623 
L 155.267814 187.430382 
L 156.353615 194.041227 
L 157.439416 181.035206 
L 158.525217 184.548442 
L 159.611019 160.653544 
L 160.69682 150.969664 
L 161.782621 142.523942 
L 162.868422 140.084965 
L 163.954223 153.17503 
L 165.040024 145.309481 
L 166.125825 144.815797 
L 167.211627 149.848968 
L 168.297428 161.063469 
L 169.383229 160.547974 
L 170.46903 155.541266 
L 171.554831 146.897327 
L 172.640632 136.764858 
L 173.726434 156.789138 
L 174.812235 164.253692 
L 175.898036 168.755401 
L 176.983837 188.346866 
L 178.069638 176.065774 
L 179.155439 176.812719 
L 180.24124 156.193052 
L 181.327042 187.756722 
L 182.412843 190.655483 
L 183.498644 203.2974 
L 184.584445 208.876037 
L 185.670246 194.727151 
L 186.756047 187.788086 
L 187.841849 183.001361 
L 188.92765 192.470831 
L 190.013451 178.12219 
L 191.099252 175.454885 
L 192.185053 173.689865 
L 193.270854 153.259815 
L 194.356656 154.156332 
L 195.442457 184.150371 
L 196.528258 159.633406 
L 197.614059 154.415904 
L 198.69986 171.65344 
L 199.785661 158.298814 
L 200.871462 154.881559 
L 201.957264 158.867703 
L 203.043065 144.461168 
L 204.128866 120.046319 
L 205.214667 133.906591 
L 206.300468 129.534468 
L 207.386269 141.1829 
L 208.472071 148.71203 
L 209.557872 163.354834 
L 210.643673 173.677633 
L 211.729474 174.144885 
L 212.815275 200.172111 
L 213.901076 154.047266 
L 214.986877 199.121784 
L 216.072679 192.34537 
L 217.15848 179.921587 
L 218.244281 192.337818 
L 219.330082 190.565625 
L 220.415883 198.563476 
L 221.501684 173.767906 
L 222.587486 192.241877 
L 223.673287 195.299003 
L 224.759088 223.671046 
L 225.844889 213.604598 
L 226.93069 219.410791 
L 228.016491 198.623165 
L 229.102292 208.366292 
L 231.273895 180.468584 
L 232.359696 163.017173 
L 233.445497 161.630998 
L 234.531298 153.305626 
L 235.617099 171.976063 
L 236.702901 186.866137 
L 237.788702 190.00912 
L 238.874503 167.462306 
L 239.960304 150.690275 
L 241.046105 155.120955 
L 242.131906 162.432718 
L 243.217708 164.136645 
L 244.303509 193.422013 
L 245.38931 194.011509 
L 246.475111 187.156871 
L 247.560912 164.464869 
L 248.646713 160.409501 
L 249.732514 168.119761 
L 250.818316 177.169757 
L 251.904117 164.853503 
L 252.989918 219.437249 
L 254.075719 187.444385 
L 255.16152 185.968504 
L 256.247321 192.334952 
L 257.333123 172.610347 
L 258.418924 175.712913 
L 259.504725 168.581315 
L 260.590526 192.17467 
L 261.676327 234.741947 
L 262.762128 214.913744 
L 264.933731 189.838165 
L 266.019532 198.875081 
L 267.105333 194.485201 
L 268.191134 171.851795 
L 269.276935 174.862271 
L 270.362736 195.958567 
L 271.448538 205.01419 
L 273.62014 162.332408 
L 274.705941 169.026126 
L 275.791742 165.071942 
L 276.877543 180.543788 
L 277.963344 226.544652 
L 279.049146 266.901918 
L 280.134947 208.682673 
L 281.220748 187.261363 
L 282.306549 207.70383 
L 283.39235 197.346026 
L 284.478151 176.992868 
L 285.563953 203.006976 
L 286.649754 206.250144 
L 287.735555 195.533309 
L 288.821356 199.274587 
L 289.907157 153.762153 
L 290.992958 146.718102 
L 292.07876 159.403987 
L 293.164561 195.143659 
L 294.250362 167.762393 
L 295.336163 155.339879 
L 296.421964 173.314949 
L 297.507765 178.794138 
L 298.593566 167.125874 
L 299.679368 172.517458 
L 300.765169 163.576364 
L 301.85097 179.166385 
L 302.936771 186.869158 
L 304.022572 166.39856 
L 305.108373 182.745349 
L 306.194175 158.973126 
L 307.279976 185.331178 
L 308.365777 167.60002 
L 309.451578 202.030125 
L 310.537379 214.219247 
L 311.62318 197.889698 
L 312.708981 198.116597 
L 313.794783 191.663971 
L 314.880584 190.974282 
L 315.966385 207.719751 
L 317.052186 182.993498 
L 318.137987 176.738711 
L 319.223788 167.309819 
L 320.30959 171.947141 
L 321.395391 177.98198 
L 323.566993 154.600634 
L 324.652794 145.998103 
L 325.738595 124.286686 
L 326.824396 169.05745 
L 328.995999 164.627227 
L 330.0818 172.350349 
L 331.167601 152.072923 
L 332.253402 163.248542 
L 333.339203 178.988572 
L 334.425005 170.256071 
L 335.510806 179.028704 
L 336.596607 177.721446 
L 337.682408 198.539341 
L 338.768209 202.436359 
L 339.85401 195.190473 
L 340.939811 186.176848 
L 342.025613 200.551037 
L 343.111414 186.007576 
L 344.197215 212.499134 
L 345.283016 214.98738 
L 346.368817 235.423812 
L 347.454618 230.748038 
L 348.54042 231.567068 
L 349.626221 194.566372 
L 350.712022 187.464895 
L 351.797823 216.891144 
L 352.883624 218.640421 
L 353.969425 225.911842 
L 355.055227 218.218608 
L 356.141028 195.612444 
L 357.226829 199.975149 
L 358.31263 174.609164 
L 359.398431 165.04951 
L 360.484232 207.34351 
L 361.570033 207.129888 
L 362.655835 212.776635 
L 363.741636 201.369314 
L 364.827437 206.290444 
L 365.913238 202.82265 
L 366.999039 213.094633 
L 368.08484 201.377912 
L 369.170642 196.588627 
L 370.256443 207.903081 
L 371.342244 198.680662 
L 372.428045 201.573314 
L 373.513846 214.732773 
L 374.599647 215.183152 
L 375.685448 245.079685 
L 376.77125 222.424843 
L 378.942852 251.999479 
L 380.028653 250.361431 
L 381.114454 219.05376 
L 382.200255 219.907903 
L 383.286057 225.466954 
L 384.371858 225.186832 
L 385.457659 214.208013 
L 386.54346 216.620278 
L 387.629261 206.706221 
L 388.715062 191.74003 
L 389.800863 223.352534 
L 390.886665 238.578532 
L 391.972466 239.623675 
L 393.058267 233.183601 
L 394.144068 258.264226 
L 395.229869 256.043412 
L 396.31567 255.154714 
L 397.401472 271.743286 
L 398.487273 240.963535 
L 398.487273 240.963535 
" style="fill:none;stroke:#0000ff;stroke-linecap:square;stroke-width:1.5;"/>
   </g>
   <g id="patch_3">
    <path d="M 57.6 307.584 
L 57.6 41.472 
" style="fill:none;stroke:#000000;stroke-linecap:square;stroke-linejoin:miter;stroke-width:0.8;"/>
   </g>
   <g id="patch_4">
    <path d="M 414.72 307.584 
L 414.72 41.472 
" style="fill:none;stroke:#000000;stroke-linecap:square;stroke-linejoin:miter;stroke-width:0.8;"/>
   </g>
   <g id="patch_5">
    <path d="M 57.6 307.584 
L 414.72 307.584 
" style="fill:none;stroke:#000000;stroke-linecap:square;stroke-linejoin:miter;stroke-width:0.8;"/>
   </g>
   <g id="patch_6">
    <path d="M 57.6 41.472 
L 414.72 41.472 
" style="fill:none;stroke:#000000;stroke-linecap:square;stroke-linejoin:miter;stroke-width:0.8;"/>
   </g>
  </g>
  <g id="axes_2">
   <g id="PolyCollection_2">
    <path clip-path="url(#p21786f2e93)" d="M 73.832727 56.691072 
L 73.832727 257.429639 
L 74.918528 260.749444 
L 76.00433 262.401238 
L 77.090131 265.153635 
L 78.175932 263.228382 
L 79.261733 271.078318 
L 80.347534 263.093892 
L 81.433335 269.401402 
L 82.519137 275.050399 
L 83.604938 277.55948 
L 84.690739 278.64853 
L 85.77654 275.10628 
L 86.862341 280.171553 
L 87.948142 285.416059 
L 89.033943 284.847523 
L 90.119745 288.078983 
L 91.205546 285.486136 
L 92.291347 285.886601 
L 93.377148 288.015643 
L 94.462949 286.219226 
L 95.54875 285.727889 
L 96.634552 283.097606 
L 97.720353 287.649673 
L 98.806154 286.70846 
L 99.891955 288.696225 
L 100.977756 288.198062 
L 102.063557 289.215236 
L 103.149358 290.172938 
L 104.23516 290.119419 
L 105.320961 287.412488 
L 106.406762 285.896759 
L 107.492563 284.306758 
L 108.578364 276.309874 
L 109.664165 281.834011 
L 110.749967 287.325867 
L 111.835768 289.14148 
L 112.921569 288.677036 
L 114.00737 289.485331 
L 115.093171 291.766056 
L 116.178972 291.9624 
L 117.264773 291.626435 
L 118.350575 289.822309 
L 119.436376 285.272996 
L 120.522177 289.716282 
L 121.607978 289.935164 
L 122.693779 294.149978 
L 123.77958 294.201389 
L 124.865382 295.488 
L 125.951183 295.111166 
L 127.036984 292.124273 
L 128.122785 292.282178 
L 129.208586 293.097527 
L 130.294387 293.15996 
L 131.380189 294.577564 
L 132.46599 294.867681 
L 133.551791 293.982889 
L 134.637592 294.317172 
L 135.723393 292.571107 
L 136.809194 290.514082 
L 137.894995 291.128449 
L 138.980797 289.480622 
L 140.066598 292.269347 
L 141.152399 290.30004 
L 142.2382 291.957699 
L 143.324001 293.048226 
L 144.409802 291.671715 
L 145.495604 286.60164 
L 146.581405 280.962364 
L 147.667206 287.985717 
L 148.753007 285.606441 
L 149.838808 286.659348 
L 150.924609 286.371164 
L 152.01041 281.461534 
L 153.096212 279.582284 
L 154.182013 285.799896 
L 155.267814 281.619032 
L 156.353615 282.785765 
L 157.439416 278.608243 
L 158.525217 282.285921 
L 159.611019 280.983673 
L 160.69682 273.520868 
L 161.782621 278.502737 
L 162.868422 275.04969 
L 163.954223 282.455624 
L 165.040024 283.105403 
L 166.125825 282.892592 
L 167.211627 278.175575 
L 168.297428 276.758748 
L 169.383229 282.569944 
L 170.46903 283.942217 
L 171.554831 276.975627 
L 172.640632 277.057749 
L 173.726434 278.210683 
L 174.812235 280.564259 
L 175.898036 279.923791 
L 176.983837 286.310874 
L 178.069638 285.097351 
L 179.155439 285.239479 
L 180.24124 279.465461 
L 181.327042 289.207395 
L 182.412843 288.867455 
L 183.498644 290.640717 
L 184.584445 291.341418 
L 185.670246 289.881174 
L 186.756047 289.91605 
L 187.841849 288.041108 
L 188.92765 288.679548 
L 190.013451 287.020386 
L 191.099252 286.968654 
L 192.185053 285.660592 
L 193.270854 284.253688 
L 194.356656 284.810333 
L 195.442457 286.400859 
L 196.528258 280.791065 
L 197.614059 287.25397 
L 198.69986 288.032977 
L 199.785661 287.787623 
L 200.871462 284.789603 
L 201.957264 283.458625 
L 203.043065 280.761198 
L 204.128866 276.963545 
L 205.214667 275.627638 
L 206.300468 277.878884 
L 207.386269 277.253802 
L 208.472071 277.552661 
L 209.557872 278.591489 
L 210.643673 284.813681 
L 211.729474 282.293353 
L 212.815275 285.67723 
L 213.901076 278.724332 
L 214.986877 280.162378 
L 216.072679 281.670632 
L 217.15848 276.199226 
L 218.244281 283.528881 
L 219.330082 286.354504 
L 220.415883 289.923866 
L 221.501684 289.285508 
L 222.587486 290.486197 
L 223.673287 288.93628 
L 224.759088 290.26955 
L 225.844889 292.182736 
L 226.93069 290.337483 
L 228.016491 289.491085 
L 229.102292 290.489619 
L 230.188094 290.723371 
L 231.273895 286.913049 
L 232.359696 286.696977 
L 233.445497 278.341157 
L 234.531298 278.963604 
L 235.617099 281.940502 
L 236.702901 281.875999 
L 237.788702 283.479102 
L 238.874503 280.255265 
L 239.960304 280.261072 
L 241.046105 280.751879 
L 242.131906 286.159493 
L 243.217708 288.124818 
L 244.303509 288.623764 
L 245.38931 287.500604 
L 246.475111 285.908706 
L 247.560912 286.657976 
L 248.646713 285.699984 
L 249.732514 285.853858 
L 250.818316 286.352262 
L 251.904117 283.969901 
L 252.989918 286.794445 
L 254.075719 283.166341 
L 255.16152 282.833844 
L 256.247321 287.427649 
L 257.333123 283.226795 
L 258.418924 286.773682 
L 259.504725 287.334828 
L 260.590526 285.788702 
L 261.676327 282.034645 
L 262.762128 284.430543 
L 263.847929 282.915297 
L 264.933731 285.1479 
L 266.019532 284.092145 
L 267.105333 280.925356 
L 268.191134 281.677778 
L 269.276935 275.589932 
L 270.362736 280.697162 
L 271.448538 284.280194 
L 272.534339 282.780111 
L 273.62014 278.982086 
L 274.705941 282.564629 
L 275.791742 284.018537 
L 276.877543 281.895211 
L 277.963344 287.029663 
L 279.049146 287.469959 
L 280.134947 282.810245 
L 281.220748 284.058019 
L 282.306549 284.45992 
L 283.39235 284.173013 
L 284.478151 279.093289 
L 285.563953 281.279287 
L 286.649754 283.886603 
L 287.735555 284.416677 
L 288.821356 285.680509 
L 289.907157 276.474585 
L 290.992958 276.582088 
L 292.07876 273.636912 
L 293.164561 279.56943 
L 294.250362 274.739312 
L 295.336163 270.468504 
L 296.421964 276.66245 
L 297.507765 274.110335 
L 298.593566 274.732894 
L 299.679368 275.716506 
L 300.765169 281.41812 
L 301.85097 279.111752 
L 302.936771 281.484974 
L 304.022572 280.613062 
L 305.108373 285.297382 
L 306.194175 279.666257 
L 307.279976 279.525975 
L 308.365777 276.16982 
L 309.451578 283.366881 
L 310.537379 284.01172 
L 311.62318 278.860982 
L 312.708981 283.794279 
L 313.794783 280.954605 
L 314.880584 281.163677 
L 315.966385 279.24585 
L 317.052186 281.504046 
L 318.137987 274.987736 
L 319.223788 275.358509 
L 320.30959 272.51331 
L 321.395391 271.389587 
L 322.481192 271.101316 
L 323.566993 269.152184 
L 324.652794 270.312152 
L 325.738595 267.999092 
L 326.824396 269.336907 
L 327.910198 268.757439 
L 328.995999 269.06107 
L 330.0818 271.119768 
L 331.167601 272.544425 
L 332.253402 270.838218 
L 333.339203 275.021324 
L 334.425005 266.832998 
L 335.510806 270.873607 
L 336.596607 274.034717 
L 337.682408 276.022393 
L 338.768209 272.846744 
L 339.85401 277.724389 
L 340.939811 275.438352 
L 342.025613 273.261196 
L 343.111414 278.072474 
L 344.197215 279.344288 
L 345.283016 277.852154 
L 346.368817 281.314129 
L 347.454618 281.239087 
L 348.54042 280.487943 
L 349.626221 282.291182 
L 350.712022 278.187447 
L 351.797823 283.654928 
L 352.883624 283.370291 
L 353.969425 282.961604 
L 355.055227 281.734391 
L 356.141028 272.637129 
L 357.226829 274.078574 
L 358.31263 277.783817 
L 359.398431 276.93097 
L 360.484232 277.544242 
L 361.570033 278.962024 
L 362.655835 276.380118 
L 363.741636 281.219091 
L 364.827437 279.25867 
L 365.913238 281.683594 
L 366.999039 275.477706 
L 368.08484 276.766913 
L 369.170642 278.483498 
L 370.256443 277.683732 
L 371.342244 278.478342 
L 372.428045 276.64655 
L 373.513846 277.806482 
L 374.599647 284.189073 
L 375.685448 283.874908 
L 376.77125 280.88813 
L 377.857051 282.982001 
L 378.942852 284.027665 
L 380.028653 283.994132 
L 381.114454 281.990603 
L 382.200255 284.887084 
L 383.286057 283.688406 
L 384.371858 284.442139 
L 385.457659 285.384674 
L 386.54346 284.93153 
L 387.629261 287.011135 
L 388.715062 287.315792 
L 389.800863 286.875558 
L 390.886665 287.761473 
L 391.972466 285.845772 
L 393.058267 285.158537 
L 394.144068 287.415662 
L 395.229869 285.807113 
L 396.31567 285.473923 
L 397.401472 284.507169 
L 398.487273 284.563568 
L 398.487273 85.379706 
L 398.487273 85.379706 
L 397.401472 86.031088 
L 396.31567 86.628368 
L 395.229869 86.125359 
L 394.144068 92.012399 
L 393.058267 88.693614 
L 391.972466 92.022492 
L 390.886665 94.359994 
L 389.800863 96.860642 
L 388.715062 96.667008 
L 387.629261 95.032448 
L 386.54346 88.509351 
L 385.457659 89.779441 
L 384.371858 87.466456 
L 383.286057 86.713364 
L 382.200255 89.410987 
L 381.114454 80.789502 
L 380.028653 84.275062 
L 378.942852 87.58959 
L 377.857051 84.945091 
L 376.77125 81.651417 
L 375.685448 84.17607 
L 374.599647 87.910109 
L 373.513846 73.318518 
L 372.428045 70.996775 
L 371.342244 74.365841 
L 370.256443 73.758179 
L 369.170642 75.427366 
L 368.08484 73.118789 
L 366.999039 69.142412 
L 365.913238 82.958689 
L 364.827437 75.933086 
L 363.741636 86.037078 
L 362.655835 75.888982 
L 361.570033 76.627936 
L 360.484232 77.20639 
L 359.398431 76.889575 
L 358.31263 76.680124 
L 357.226829 68.212032 
L 356.141028 67.1918 
L 355.055227 79.758821 
L 353.969425 81.442426 
L 352.883624 80.473603 
L 351.797823 79.748954 
L 350.712022 71.758217 
L 349.626221 77.848512 
L 348.54042 74.719844 
L 347.454618 80.016163 
L 346.368817 82.063563 
L 345.283016 73.287801 
L 344.197215 77.958397 
L 343.111414 77.369437 
L 342.025613 66.795923 
L 340.939811 67.898682 
L 339.85401 71.75013 
L 338.768209 63.512375 
L 337.682408 68.205067 
L 336.596607 66.325072 
L 335.510806 60.232284 
L 334.425005 53.568 
L 333.339203 67.572729 
L 332.253402 62.066151 
L 331.167601 64.51509 
L 330.0818 61.248937 
L 328.995999 59.503465 
L 327.910198 59.719141 
L 326.824396 59.752457 
L 325.738595 58.954255 
L 324.652794 61.759611 
L 323.566993 56.350576 
L 322.481192 60.117242 
L 321.395391 59.720216 
L 320.30959 63.634394 
L 319.223788 67.169187 
L 318.137987 71.093779 
L 317.052186 84.321024 
L 315.966385 77.683562 
L 314.880584 80.124075 
L 313.794783 80.174284 
L 312.708981 85.104913 
L 311.62318 76.260593 
L 310.537379 82.712231 
L 309.451578 78.224245 
L 308.365777 65.99796 
L 307.279976 77.626609 
L 306.194175 76.639144 
L 305.108373 90.530254 
L 304.022572 84.651176 
L 302.936771 82.110583 
L 301.85097 71.013516 
L 300.765169 74.565238 
L 299.679368 61.119118 
L 298.593566 63.122908 
L 297.507765 61.204722 
L 296.421964 63.702309 
L 295.336163 56.11258 
L 294.250362 63.038262 
L 293.164561 71.596376 
L 292.07876 60.671193 
L 290.992958 66.740356 
L 289.907157 65.893782 
L 288.821356 89.028524 
L 287.735555 89.177342 
L 286.649754 83.554692 
L 285.563953 73.562324 
L 284.478151 69.8702 
L 283.39235 84.20507 
L 282.306549 85.02773 
L 281.220748 84.715843 
L 280.134947 79.082605 
L 279.049146 88.348903 
L 277.963344 90.110749 
L 276.877543 74.466343 
L 275.791742 79.701007 
L 274.705941 76.393774 
L 273.62014 68.127219 
L 272.534339 78.233234 
L 271.448538 84.148245 
L 270.362736 74.296166 
L 269.276935 63.338709 
L 268.191134 76.289662 
L 267.105333 78.105792 
L 266.019532 89.368743 
L 264.933731 91.982652 
L 263.847929 84.864056 
L 262.762128 86.291132 
L 261.676327 81.257273 
L 260.590526 90.236871 
L 259.504725 93.333751 
L 258.418924 99.219809 
L 257.333123 85.012536 
L 256.247321 93.482494 
L 255.16152 85.045519 
L 254.075719 88.976091 
L 252.989918 93.03053 
L 251.904117 88.208634 
L 250.818316 90.865576 
L 249.732514 88.604845 
L 248.646713 89.034959 
L 247.560912 93.203005 
L 246.475111 86.844471 
L 245.38931 93.491969 
L 244.303509 99.45295 
L 243.217708 98.323355 
L 242.131906 93.578214 
L 241.046105 80.307192 
L 239.960304 78.891078 
L 238.874503 80.139375 
L 237.788702 81.869278 
L 236.702901 78.642834 
L 235.617099 75.641336 
L 234.531298 73.469722 
L 233.445497 74.395707 
L 232.359696 93.786221 
L 231.273895 99.624466 
L 230.188094 107.800848 
L 229.102292 105.692581 
L 228.016491 102.531069 
L 226.93069 106.299656 
L 225.844889 114.506252 
L 224.759088 104.661979 
L 223.673287 98.36876 
L 222.587486 102.398398 
L 221.501684 96.925098 
L 220.415883 103.769897 
L 219.330082 88.23171 
L 218.244281 83.661895 
L 217.15848 72.423666 
L 216.072679 84.964327 
L 214.986877 79.796203 
L 213.901076 76.723542 
L 212.815275 95.762824 
L 211.729474 82.83265 
L 210.643673 85.569071 
L 209.557872 74.877135 
L 208.472071 68.904799 
L 207.386269 69.550063 
L 206.300468 71.735756 
L 205.214667 68.138355 
L 204.128866 67.722335 
L 203.043065 77.162009 
L 201.957264 82.802775 
L 200.871462 86.603735 
L 199.785661 95.422459 
L 198.69986 94.928068 
L 197.614059 93.192856 
L 196.528258 77.160504 
L 195.442457 89.561796 
L 194.356656 83.485667 
L 193.270854 84.251551 
L 192.185053 89.363121 
L 191.099252 94.128249 
L 190.013451 90.138104 
L 188.92765 99.307925 
L 187.841849 101.674576 
L 186.756047 102.778966 
L 185.670246 103.766476 
L 184.584445 106.76168 
L 183.498644 106.369952 
L 182.412843 97.885863 
L 181.327042 106.211797 
L 180.24124 76.946838 
L 179.155439 92.64454 
L 178.069638 91.175095 
L 176.983837 97.557679 
L 175.898036 76.850988 
L 174.812235 74.326414 
L 173.726434 70.617988 
L 172.640632 68.075408 
L 171.554831 69.126774 
L 170.46903 86.028945 
L 169.383229 81.511126 
L 168.297428 74.122226 
L 167.211627 72.785473 
L 166.125825 79.624391 
L 165.040024 82.522315 
L 163.954223 81.020165 
L 162.868422 65.893295 
L 161.782621 74.198522 
L 160.69682 62.354729 
L 159.611019 77.319465 
L 158.525217 82.092646 
L 157.439416 73.959131 
L 156.353615 80.082308 
L 155.267814 79.333346 
L 154.182013 85.484606 
L 153.096212 71.904018 
L 152.01041 76.945644 
L 150.924609 90.298401 
L 149.838808 91.448496 
L 148.753007 89.139487 
L 147.667206 94.82276 
L 146.581405 76.106466 
L 145.495604 96.950167 
L 144.409802 111.725082 
L 143.324001 117.106414 
L 142.2382 114.2519 
L 141.152399 113.839244 
L 140.066598 114.420543 
L 138.980797 108.854894 
L 137.894995 111.586514 
L 136.809194 108.208588 
L 135.723393 109.204739 
L 134.637592 123.933318 
L 133.551791 121.375637 
L 132.46599 122.425121 
L 131.380189 127.739168 
L 130.294387 120.714272 
L 129.208586 112.465421 
L 128.122785 110.212036 
L 127.036984 113.671378 
L 125.951183 125.847502 
L 124.865382 132.006179 
L 123.77958 114.645892 
L 122.693779 121.627342 
L 121.607978 102.399658 
L 120.522177 103.825808 
L 119.436376 89.027326 
L 118.350575 105.26702 
L 117.264773 113.703964 
L 116.178972 116.006192 
L 115.093171 109.286838 
L 114.00737 109.450245 
L 112.921569 107.361465 
L 111.835768 104.650377 
L 110.749967 99.230591 
L 109.664165 84.454919 
L 108.578364 73.79052 
L 107.492563 91.231445 
L 106.406762 95.422505 
L 105.320961 102.036664 
L 104.23516 112.213963 
L 103.149358 113.625517 
L 102.063557 113.5502 
L 100.977756 109.996139 
L 99.891955 117.014338 
L 98.806154 108.031632 
L 97.720353 107.984223 
L 96.634552 92.198506 
L 95.54875 100.910694 
L 94.462949 100.40047 
L 93.377148 106.772668 
L 92.291347 100.990057 
L 91.205546 94.763949 
L 90.119745 103.823078 
L 89.033943 97.628619 
L 87.948142 105.334912 
L 86.862341 89.457138 
L 85.77654 77.70862 
L 84.690739 86.850255 
L 83.604938 87.085277 
L 82.519137 80.063703 
L 81.433335 67.64519 
L 80.347534 59.245751 
L 79.261733 75.609999 
L 78.175932 62.034793 
L 77.090131 66.162213 
L 76.00433 56.727556 
L 74.918528 58.603046 
L 73.832727 56.691072 
z
" style="fill:#008000;fill-opacity:0.25;"/>
   </g>
   <g id="matplotlib.axis_3">
    <g id="ytick_8">
     <g id="line2d_16">
      <path clip-path="url(#p21786f2e93)" d="M 57.6 295.418556 
L 414.72 295.418556 
" style="fill:none;stroke:#b0b0b0;stroke-linecap:square;stroke-width:0.8;"/>
     </g>
     <g id="line2d_17">
      <defs>
       <path d="M 0 0 
L 3.5 0 
" id="m768a80a60f" style="stroke:#000000;stroke-width:0.8;"/>
      </defs>
      <g>
       <use style="stroke:#000000;stroke-width:0.8;" x="414.72" xlink:href="#m768a80a60f" y="295.418556"/>
      </g>
     </g>
     <g id="text_16">
      <!-- 0.2 -->
      <defs>
       <path d="M 10.59375 35.5 
L 73.1875 35.5 
L 73.1875 27.203125 
L 10.59375 27.203125 
z
" id="DejaVuSans-8722"/>
      </defs>
      <g transform="translate(421.72 299.217774)scale(0.1 -0.1)">
       <use xlink:href="#DejaVuSans-8722"/>
       <use x="83.789062" xlink:href="#DejaVuSans-48"/>
       <use x="147.412109" xlink:href="#DejaVuSans-46"/>
       <use x="179.199219" xlink:href="#DejaVuSans-50"/>
      </g>
     </g>
    </g>
    <g id="ytick_9">
     <g id="line2d_18">
      <path clip-path="url(#p21786f2e93)" d="M 57.6 249.806847 
L 414.72 249.806847 
" style="fill:none;stroke:#b0b0b0;stroke-linecap:square;stroke-width:0.8;"/>
     </g>
     <g id="line2d_19">
      <g>
       <use style="stroke:#000000;stroke-width:0.8;" x="414.72" xlink:href="#m768a80a60f" y="249.806847"/>
      </g>
     </g>
     <g id="text_17">
      <!-- 0.0 -->
      <g transform="translate(421.72 253.606066)scale(0.1 -0.1)">
       <use xlink:href="#DejaVuSans-48"/>
       <use x="63.623047" xlink:href="#DejaVuSans-46"/>
       <use x="95.410156" xlink:href="#DejaVuSans-48"/>
      </g>
     </g>
    </g>
    <g id="ytick_10">
     <g id="line2d_20">
      <path clip-path="url(#p21786f2e93)" d="M 57.6 204.195139 
L 414.72 204.195139 
" style="fill:none;stroke:#b0b0b0;stroke-linecap:square;stroke-width:0.8;"/>
     </g>
     <g id="line2d_21">
      <g>
       <use style="stroke:#000000;stroke-width:0.8;" x="414.72" xlink:href="#m768a80a60f" y="204.195139"/>
      </g>
     </g>
     <g id="text_18">
      <!-- 0.2 -->
      <g transform="translate(421.72 207.994358)scale(0.1 -0.1)">
       <use xlink:href="#DejaVuSans-48"/>
       <use x="63.623047" xlink:href="#DejaVuSans-46"/>
       <use x="95.410156" xlink:href="#DejaVuSans-50"/>
      </g>
     </g>
    </g>
    <g id="ytick_11">
     <g id="line2d_22">
      <path clip-path="url(#p21786f2e93)" d="M 57.6 158.583431 
L 414.72 158.583431 
" style="fill:none;stroke:#b0b0b0;stroke-linecap:square;stroke-width:0.8;"/>
     </g>
     <g id="line2d_23">
      <g>
       <use style="stroke:#000000;stroke-width:0.8;" x="414.72" xlink:href="#m768a80a60f" y="158.583431"/>
      </g>
     </g>
     <g id="text_19">
      <!-- 0.4 -->
      <g transform="translate(421.72 162.382649)scale(0.1 -0.1)">
       <use xlink:href="#DejaVuSans-48"/>
       <use x="63.623047" xlink:href="#DejaVuSans-46"/>
       <use x="95.410156" xlink:href="#DejaVuSans-52"/>
      </g>
     </g>
    </g>
    <g id="ytick_12">
     <g id="line2d_24">
      <path clip-path="url(#p21786f2e93)" d="M 57.6 112.971722 
L 414.72 112.971722 
" style="fill:none;stroke:#b0b0b0;stroke-linecap:square;stroke-width:0.8;"/>
     </g>
     <g id="line2d_25">
      <g>
       <use style="stroke:#000000;stroke-width:0.8;" x="414.72" xlink:href="#m768a80a60f" y="112.971722"/>
      </g>
     </g>
     <g id="text_20">
      <!-- 0.6 -->
      <g transform="translate(421.72 116.770941)scale(0.1 -0.1)">
       <use xlink:href="#DejaVuSans-48"/>
       <use x="63.623047" xlink:href="#DejaVuSans-46"/>
       <use x="95.410156" xlink:href="#DejaVuSans-54"/>
      </g>
     </g>
    </g>
    <g id="ytick_13">
     <g id="line2d_26">
      <path clip-path="url(#p21786f2e93)" d="M 57.6 67.360014 
L 414.72 67.360014 
" style="fill:none;stroke:#b0b0b0;stroke-linecap:square;stroke-width:0.8;"/>
     </g>
     <g id="line2d_27">
      <g>
       <use style="stroke:#000000;stroke-width:0.8;" x="414.72" xlink:href="#m768a80a60f" y="67.360014"/>
      </g>
     </g>
     <g id="text_21">
      <!-- 0.8 -->
      <g transform="translate(421.72 71.159233)scale(0.1 -0.1)">
       <use xlink:href="#DejaVuSans-48"/>
       <use x="63.623047" xlink:href="#DejaVuSans-46"/>
       <use x="95.410156" xlink:href="#DejaVuSans-56"/>
      </g>
     </g>
    </g>
    <g id="text_22">
     <!-- Loudness -->
     <defs>
      <path d="M 9.8125 72.90625 
L 19.671875 72.90625 
L 19.671875 8.296875 
L 55.171875 8.296875 
L 55.171875 0 
L 9.8125 0 
z
" id="DejaVuSans-76"/>
      <path d="M 30.609375 48.390625 
Q 23.390625 48.390625 19.1875 42.75 
Q 14.984375 37.109375 14.984375 27.296875 
Q 14.984375 17.484375 19.15625 11.84375 
Q 23.34375 6.203125 30.609375 6.203125 
Q 37.796875 6.203125 41.984375 11.859375 
Q 46.1875 17.53125 46.1875 27.296875 
Q 46.1875 37.015625 41.984375 42.703125 
Q 37.796875 48.390625 30.609375 48.390625 
z
M 30.609375 56 
Q 42.328125 56 49.015625 48.375 
Q 55.71875 40.765625 55.71875 27.296875 
Q 55.71875 13.875 49.015625 6.21875 
Q 42.328125 -1.421875 30.609375 -1.421875 
Q 18.84375 -1.421875 12.171875 6.21875 
Q 5.515625 13.875 5.515625 27.296875 
Q 5.515625 40.765625 12.171875 48.375 
Q 18.84375 56 30.609375 56 
z
" id="DejaVuSans-111"/>
      <path d="M 8.5 21.578125 
L 8.5 54.6875 
L 17.484375 54.6875 
L 17.484375 21.921875 
Q 17.484375 14.15625 20.5 10.265625 
Q 23.53125 6.390625 29.59375 6.390625 
Q 36.859375 6.390625 41.078125 11.03125 
Q 45.3125 15.671875 45.3125 23.6875 
L 45.3125 54.6875 
L 54.296875 54.6875 
L 54.296875 0 
L 45.3125 0 
L 45.3125 8.40625 
Q 42.046875 3.421875 37.71875 1 
Q 33.40625 -1.421875 27.6875 -1.421875 
Q 18.265625 -1.421875 13.375 4.4375 
Q 8.5 10.296875 8.5 21.578125 
z
M 31.109375 56 
z
" id="DejaVuSans-117"/>
      <path d="M 45.40625 46.390625 
L 45.40625 75.984375 
L 54.390625 75.984375 
L 54.390625 0 
L 45.40625 0 
L 45.40625 8.203125 
Q 42.578125 3.328125 38.25 0.953125 
Q 33.9375 -1.421875 27.875 -1.421875 
Q 17.96875 -1.421875 11.734375 6.484375 
Q 5.515625 14.40625 5.515625 27.296875 
Q 5.515625 40.1875 11.734375 48.09375 
Q 17.96875 56 27.875 56 
Q 33.9375 56 38.25 53.625 
Q 42.578125 51.265625 45.40625 46.390625 
z
M 14.796875 27.296875 
Q 14.796875 17.390625 18.875 11.75 
Q 22.953125 6.109375 30.078125 6.109375 
Q 37.203125 6.109375 41.296875 11.75 
Q 45.40625 17.390625 45.40625 27.296875 
Q 45.40625 37.203125 41.296875 42.84375 
Q 37.203125 48.484375 30.078125 48.484375 
Q 22.953125 48.484375 18.875 42.84375 
Q 14.796875 37.203125 14.796875 27.296875 
z
" id="DejaVuSans-100"/>
     </defs>
     <g transform="translate(457.60125 198.170187)rotate(-90)scale(0.1 -0.1)">
      <use xlink:href="#DejaVuSans-76"/>
      <use x="55.697266" xlink:href="#DejaVuSans-111"/>
      <use x="116.878906" xlink:href="#DejaVuSans-117"/>
      <use x="180.257812" xlink:href="#DejaVuSans-100"/>
      <use x="243.734375" xlink:href="#DejaVuSans-110"/>
      <use x="307.113281" xlink:href="#DejaVuSans-101"/>
      <use x="368.636719" xlink:href="#DejaVuSans-115"/>
      <use x="420.736328" xlink:href="#DejaVuSans-115"/>
     </g>
    </g>
   </g>
   <g id="line2d_28">
    <path clip-path="url(#p21786f2e93)" d="M 73.832727 157.060356 
L 74.918528 159.676245 
L 76.00433 159.564397 
L 77.090131 165.657924 
L 78.175932 162.631588 
L 79.261733 173.344159 
L 80.347534 161.169821 
L 81.433335 168.523296 
L 82.519137 177.557051 
L 83.604938 182.322379 
L 84.690739 182.749393 
L 85.77654 176.40745 
L 86.862341 184.814346 
L 87.948142 195.375486 
L 89.033943 191.238071 
L 90.119745 195.951031 
L 91.205546 190.125043 
L 92.291347 193.438329 
L 93.377148 197.394156 
L 94.462949 193.309848 
L 95.54875 193.319292 
L 96.634552 187.648056 
L 97.720353 197.816948 
L 98.806154 197.370046 
L 99.891955 202.855282 
L 100.977756 199.097101 
L 102.063557 201.382718 
L 103.149358 201.899227 
L 104.23516 201.166691 
L 105.320961 194.724576 
L 106.406762 190.659632 
L 107.492563 187.769102 
L 108.578364 175.050197 
L 109.664165 183.144465 
L 110.749967 193.278229 
L 111.835768 196.895928 
L 112.921569 198.01925 
L 114.00737 199.467788 
L 115.093171 200.526447 
L 116.178972 203.984296 
L 117.264773 202.6652 
L 118.350575 197.544665 
L 119.436376 187.150161 
L 120.522177 196.771045 
L 121.607978 196.167411 
L 122.693779 207.88866 
L 123.77958 204.423641 
L 124.865382 213.747089 
L 125.951183 210.479334 
L 127.036984 202.897825 
L 128.122785 201.247107 
L 129.208586 202.781474 
L 131.380189 211.158366 
L 132.46599 208.646401 
L 133.551791 207.679263 
L 134.637592 209.125245 
L 135.723393 200.887923 
L 136.809194 199.361335 
L 137.894995 201.357481 
L 138.980797 199.167758 
L 140.066598 203.344945 
L 141.152399 202.069642 
L 142.2382 203.1048 
L 143.324001 205.07732 
L 144.409802 201.698399 
L 145.495604 191.775904 
L 146.581405 178.534415 
L 147.667206 191.404238 
L 148.753007 187.372964 
L 149.838808 189.053922 
L 150.924609 188.334783 
L 152.01041 179.203589 
L 153.096212 175.743151 
L 154.182013 185.642251 
L 155.267814 180.476189 
L 156.353615 181.434037 
L 157.439416 176.283687 
L 158.525217 182.189283 
L 159.611019 179.151569 
L 160.69682 167.937798 
L 161.782621 176.35063 
L 162.868422 170.471493 
L 163.954223 181.737895 
L 165.040024 182.813859 
L 166.125825 181.258491 
L 167.211627 175.480524 
L 168.297428 175.440487 
L 169.383229 182.040535 
L 170.46903 184.985581 
L 171.554831 173.051201 
L 172.640632 172.566579 
L 173.726434 174.414335 
L 174.812235 177.445337 
L 175.898036 178.38739 
L 176.983837 191.934277 
L 178.069638 188.136223 
L 179.155439 188.942009 
L 180.24124 178.20615 
L 181.327042 197.709596 
L 182.412843 193.376659 
L 183.498644 198.505335 
L 184.584445 199.051549 
L 185.670246 196.823825 
L 186.756047 196.347508 
L 187.841849 194.857842 
L 188.92765 193.993737 
L 190.013451 188.579245 
L 191.099252 190.548451 
L 193.270854 184.25262 
L 194.356656 184.148 
L 195.442457 187.981327 
L 196.528258 178.975785 
L 197.614059 190.223413 
L 198.69986 191.480523 
L 199.785661 191.605041 
L 200.871462 185.696669 
L 201.957264 183.1307 
L 203.043065 178.961603 
L 204.128866 172.34294 
L 205.214667 171.882996 
L 206.300468 174.80732 
L 207.386269 173.401933 
L 208.472071 173.22873 
L 209.557872 176.734312 
L 210.643673 185.191376 
L 211.729474 182.563002 
L 212.815275 190.720027 
L 213.901076 177.723937 
L 214.986877 179.97929 
L 216.072679 183.31748 
L 217.15848 174.311446 
L 218.244281 183.595388 
L 219.330082 187.293107 
L 220.415883 196.846881 
L 221.501684 193.105303 
L 222.587486 196.442297 
L 223.673287 193.65252 
L 224.759088 197.465765 
L 225.844889 203.344494 
L 226.93069 198.31857 
L 228.016491 196.011077 
L 229.102292 198.0911 
L 230.188094 199.262109 
L 231.273895 193.268757 
L 232.359696 190.241599 
L 233.445497 176.368432 
L 234.531298 176.216663 
L 235.617099 178.790919 
L 236.702901 180.259417 
L 237.788702 182.67419 
L 238.874503 180.19732 
L 239.960304 179.576075 
L 241.046105 180.529536 
L 242.131906 189.868853 
L 243.217708 193.224087 
L 244.303509 194.038357 
L 245.38931 190.496287 
L 246.475111 186.376589 
L 247.560912 189.930491 
L 248.646713 187.367472 
L 249.732514 187.229352 
L 250.818316 188.608919 
L 251.904117 186.089268 
L 252.989918 189.912487 
L 254.075719 186.071216 
L 255.16152 183.939682 
L 256.247321 190.455071 
L 257.333123 184.119665 
L 258.418924 192.996745 
L 259.504725 190.334289 
L 260.590526 188.012786 
L 261.676327 181.645959 
L 262.762128 185.360837 
L 263.847929 183.889677 
L 264.933731 188.565276 
L 266.019532 186.730444 
L 267.105333 179.515574 
L 268.191134 178.98372 
L 269.276935 169.464321 
L 270.362736 177.496664 
L 271.448538 184.21422 
L 272.534339 180.506673 
L 273.62014 173.554653 
L 274.705941 179.479202 
L 275.791742 181.859772 
L 276.877543 178.180777 
L 277.963344 188.570206 
L 279.049146 187.909431 
L 280.134947 180.946425 
L 281.220748 184.386931 
L 282.306549 184.743825 
L 283.39235 184.189042 
L 284.478151 174.481744 
L 285.563953 177.420806 
L 286.649754 183.720647 
L 287.735555 186.797009 
L 288.821356 187.354517 
L 289.907157 171.184184 
L 290.992958 171.661222 
L 292.07876 167.154053 
L 293.164561 175.582903 
L 294.250362 168.888787 
L 295.336163 163.290542 
L 296.421964 170.182379 
L 297.507765 167.657529 
L 298.593566 168.927901 
L 299.679368 168.417812 
L 300.765169 177.991679 
L 301.85097 175.062634 
L 302.936771 181.797779 
L 304.022572 182.632119 
L 305.108373 187.913818 
L 306.194175 178.1527 
L 307.279976 178.576292 
L 308.365777 171.08389 
L 309.451578 180.795563 
L 310.537379 183.361976 
L 311.62318 177.560787 
L 312.708981 184.449596 
L 313.794783 180.564445 
L 314.880584 180.643876 
L 315.966385 178.464706 
L 317.052186 182.912535 
L 318.137987 173.040757 
L 319.223788 171.263848 
L 320.30959 168.073852 
L 321.395391 165.554902 
L 322.481192 165.609279 
L 323.566993 162.75138 
L 324.652794 166.035882 
L 325.738595 163.476674 
L 326.824396 164.544682 
L 327.910198 164.23829 
L 328.995999 164.282268 
L 330.0818 166.184352 
L 331.167601 168.529758 
L 332.253402 166.452185 
L 333.339203 171.297027 
L 334.425005 160.200499 
L 335.510806 165.552945 
L 336.596607 170.179895 
L 337.682408 172.11373 
L 338.768209 168.17956 
L 339.85401 174.73726 
L 340.939811 171.668517 
L 342.025613 170.02856 
L 343.111414 177.720956 
L 344.197215 178.651343 
L 345.283016 175.569978 
L 346.368817 181.688846 
L 347.454618 180.627625 
L 348.54042 177.603893 
L 349.626221 180.069847 
L 350.712022 174.972832 
L 351.797823 181.701941 
L 353.969425 182.202015 
L 355.055227 180.746606 
L 356.141028 169.914465 
L 357.226829 171.145303 
L 358.31263 177.23197 
L 359.398431 176.910273 
L 361.570033 177.79498 
L 362.655835 176.13455 
L 363.741636 183.628085 
L 364.827437 177.595878 
L 365.913238 182.321142 
L 366.999039 172.310059 
L 368.08484 174.942851 
L 369.170642 176.955432 
L 370.256443 175.720956 
L 371.342244 176.422092 
L 372.428045 173.821662 
L 373.513846 175.5625 
L 374.599647 186.049591 
L 375.685448 184.025489 
L 376.77125 181.269774 
L 377.857051 183.963546 
L 378.942852 185.808627 
L 380.028653 184.134597 
L 381.114454 181.390052 
L 382.200255 187.149036 
L 383.286057 185.200885 
L 384.371858 185.954297 
L 385.457659 187.582057 
L 386.54346 186.72044 
L 387.629261 191.021791 
L 388.715062 191.9914 
L 389.800863 191.8681 
L 390.886665 191.060733 
L 393.058267 186.926075 
L 394.144068 189.714031 
L 395.229869 185.966236 
L 396.31567 186.051146 
L 397.401472 185.269128 
L 398.487273 184.971637 
L 398.487273 184.971637 
" style="fill:none;stroke:#008000;stroke-linecap:square;stroke-width:1.5;"/>
   </g>
   <g id="patch_7">
    <path d="M 57.6 307.584 
L 57.6 41.472 
" style="fill:none;stroke:#000000;stroke-linecap:square;stroke-linejoin:miter;stroke-width:0.8;"/>
   </g>
   <g id="patch_8">
    <path d="M 414.72 307.584 
L 414.72 41.472 
" style="fill:none;stroke:#000000;stroke-linecap:square;stroke-linejoin:miter;stroke-width:0.8;"/>
   </g>
   <g id="patch_9">
    <path d="M 57.6 307.584 
L 414.72 307.584 
" style="fill:none;stroke:#000000;stroke-linecap:square;stroke-linejoin:miter;stroke-width:0.8;"/>
   </g>
   <g id="patch_10">
    <path d="M 57.6 41.472 
L 414.72 41.472 
" style="fill:none;stroke:#000000;stroke-linecap:square;stroke-linejoin:miter;stroke-width:0.8;"/>
   </g>
   <g id="text_23">
    <!-- Message Difference and Loudness -->
    <defs>
     <path d="M 9.8125 72.90625 
L 24.515625 72.90625 
L 43.109375 23.296875 
L 61.8125 72.90625 
L 76.515625 72.90625 
L 76.515625 0 
L 66.890625 0 
L 66.890625 64.015625 
L 48.09375 14.015625 
L 38.1875 14.015625 
L 19.390625 64.015625 
L 19.390625 0 
L 9.8125 0 
z
" id="DejaVuSans-77"/>
     <path d="M 45.40625 27.984375 
Q 45.40625 37.75 41.375 43.109375 
Q 37.359375 48.484375 30.078125 48.484375 
Q 22.859375 48.484375 18.828125 43.109375 
Q 14.796875 37.75 14.796875 27.984375 
Q 14.796875 18.265625 18.828125 12.890625 
Q 22.859375 7.515625 30.078125 7.515625 
Q 37.359375 7.515625 41.375 12.890625 
Q 45.40625 18.265625 45.40625 27.984375 
z
M 54.390625 6.78125 
Q 54.390625 -7.171875 48.1875 -13.984375 
Q 42 -20.796875 29.203125 -20.796875 
Q 24.46875 -20.796875 20.265625 -20.09375 
Q 16.0625 -19.390625 12.109375 -17.921875 
L 12.109375 -9.1875 
Q 16.0625 -11.328125 19.921875 -12.34375 
Q 23.78125 -13.375 27.78125 -13.375 
Q 36.625 -13.375 41.015625 -8.765625 
Q 45.40625 -4.15625 45.40625 5.171875 
L 45.40625 9.625 
Q 42.625 4.78125 38.28125 2.390625 
Q 33.9375 0 27.875 0 
Q 17.828125 0 11.671875 7.65625 
Q 5.515625 15.328125 5.515625 27.984375 
Q 5.515625 40.671875 11.671875 48.328125 
Q 17.828125 56 27.875 56 
Q 33.9375 56 38.28125 53.609375 
Q 42.625 51.21875 45.40625 46.390625 
L 45.40625 54.6875 
L 54.390625 54.6875 
z
" id="DejaVuSans-103"/>
     <path id="DejaVuSans-32"/>
     <path d="M 37.109375 75.984375 
L 37.109375 68.5 
L 28.515625 68.5 
Q 23.6875 68.5 21.796875 66.546875 
Q 19.921875 64.59375 19.921875 59.515625 
L 19.921875 54.6875 
L 34.71875 54.6875 
L 34.71875 47.703125 
L 19.921875 47.703125 
L 19.921875 0 
L 10.890625 0 
L 10.890625 47.703125 
L 2.296875 47.703125 
L 2.296875 54.6875 
L 10.890625 54.6875 
L 10.890625 58.5 
Q 10.890625 67.625 15.140625 71.796875 
Q 19.390625 75.984375 28.609375 75.984375 
z
" id="DejaVuSans-102"/>
     <path d="M 41.109375 46.296875 
Q 39.59375 47.171875 37.8125 47.578125 
Q 36.03125 48 33.890625 48 
Q 26.265625 48 22.1875 43.046875 
Q 18.109375 38.09375 18.109375 28.8125 
L 18.109375 0 
L 9.078125 0 
L 9.078125 54.6875 
L 18.109375 54.6875 
L 18.109375 46.1875 
Q 20.953125 51.171875 25.484375 53.578125 
Q 30.03125 56 36.53125 56 
Q 37.453125 56 38.578125 55.875 
Q 39.703125 55.765625 41.0625 55.515625 
z
" id="DejaVuSans-114"/>
    </defs>
    <g transform="translate(133.329375 35.472)scale(0.12 -0.12)">
     <use xlink:href="#DejaVuSans-77"/>
     <use x="86.279297" xlink:href="#DejaVuSans-101"/>
     <use x="147.802734" xlink:href="#DejaVuSans-115"/>
     <use x="199.902344" xlink:href="#DejaVuSans-115"/>
     <use x="252.001953" xlink:href="#DejaVuSans-97"/>
     <use x="313.28125" xlink:href="#DejaVuSans-103"/>
     <use x="376.757812" xlink:href="#DejaVuSans-101"/>
     <use x="438.28125" xlink:href="#DejaVuSans-32"/>
     <use x="470.068359" xlink:href="#DejaVuSans-68"/>
     <use x="547.070312" xlink:href="#DejaVuSans-105"/>
     <use x="574.853516" xlink:href="#DejaVuSans-102"/>
     <use x="610.058594" xlink:href="#DejaVuSans-102"/>
     <use x="645.263672" xlink:href="#DejaVuSans-101"/>
     <use x="706.787109" xlink:href="#DejaVuSans-114"/>
     <use x="747.869141" xlink:href="#DejaVuSans-101"/>
     <use x="809.392578" xlink:href="#DejaVuSans-110"/>
     <use x="872.771484" xlink:href="#DejaVuSans-99"/>
     <use x="927.751953" xlink:href="#DejaVuSans-101"/>
     <use x="989.275391" xlink:href="#DejaVuSans-32"/>
     <use x="1021.0625" xlink:href="#DejaVuSans-97"/>
     <use x="1082.341797" xlink:href="#DejaVuSans-110"/>
     <use x="1145.720703" xlink:href="#DejaVuSans-100"/>
     <use x="1209.197266" xlink:href="#DejaVuSans-32"/>
     <use x="1240.984375" xlink:href="#DejaVuSans-76"/>
     <use x="1296.681641" xlink:href="#DejaVuSans-111"/>
     <use x="1357.863281" xlink:href="#DejaVuSans-117"/>
     <use x="1421.242188" xlink:href="#DejaVuSans-100"/>
     <use x="1484.71875" xlink:href="#DejaVuSans-110"/>
     <use x="1548.097656" xlink:href="#DejaVuSans-101"/>
     <use x="1609.621094" xlink:href="#DejaVuSans-115"/>
     <use x="1661.720703" xlink:href="#DejaVuSans-115"/>
    </g>
   </g>
   <g id="legend_1">
    <g id="patch_11">
     <path d="M 331.227813 64.150125 
L 407.72 64.150125 
Q 409.72 64.150125 409.72 62.150125 
L 409.72 48.472 
Q 409.72 46.472 407.72 46.472 
L 331.227813 46.472 
Q 329.227813 46.472 329.227813 48.472 
L 329.227813 62.150125 
Q 329.227813 64.150125 331.227813 64.150125 
z
" style="fill:#ffffff;opacity:0.8;stroke:#cccccc;stroke-linejoin:miter;"/>
    </g>
    <g id="line2d_29">
     <path d="M 333.227813 54.570438 
L 353.227813 54.570438 
" style="fill:none;stroke:#008000;stroke-linecap:square;stroke-width:1.5;"/>
    </g>
    <g id="line2d_30"/>
    <g id="text_24">
     <!-- loudness -->
     <defs>
      <path d="M 9.421875 75.984375 
L 18.40625 75.984375 
L 18.40625 0 
L 9.421875 0 
z
" id="DejaVuSans-108"/>
     </defs>
     <g transform="translate(361.227813 58.070438)scale(0.1 -0.1)">
      <use xlink:href="#DejaVuSans-108"/>
      <use x="27.783203" xlink:href="#DejaVuSans-111"/>
      <use x="88.964844" xlink:href="#DejaVuSans-117"/>
      <use x="152.34375" xlink:href="#DejaVuSans-100"/>
      <use x="215.820312" xlink:href="#DejaVuSans-110"/>
      <use x="279.199219" xlink:href="#DejaVuSans-101"/>
      <use x="340.722656" xlink:href="#DejaVuSans-115"/>
      <use x="392.822266" xlink:href="#DejaVuSans-115"/>
     </g>
    </g>
   </g>
  </g>
 </g>
 <defs>
  <clipPath id="p21786f2e93">
   <rect height="266.112" width="357.12" x="57.6" y="41.472"/>
  </clipPath>
 </defs>
</svg>
