<?xml version="1.0" encoding="UTF-8" standalone="no"?>
<!DOCTYPE svg PUBLIC "-//W3C//DTD SVG 1.1//EN"
 "http://www.w3.org/Graphics/SVG/1.1/DTD/svg11.dtd">
<!-- Generated by graphviz version 2.40.1 (20161225.0304)
 -->
<!-- Title: %3 Pages: 1 -->
<svg width="485pt" height="266pt"
 viewBox="0.00 0.00 484.77 265.93" xmlns="http://www.w3.org/2000/svg" xmlns:xlink="http://www.w3.org/1999/xlink">
<g id="graph0" class="graph" transform="scale(1 1) rotate(0) translate(4 261.9326)">
<title>%3</title>
<polygon fill="#ffffff" stroke="transparent" points="-4,4 -4,-261.9326 480.7661,-261.9326 480.7661,4 -4,4"/>
<!-- 0 -->
<g id="node1" class="node">
<title>0</title>
<polygon fill="#d3d3d3" stroke="#000000" points="138.389,-257.9326 118.3771,-257.9326 118.3771,-240.9326 138.389,-240.9326 138.389,-257.9326"/>
<text text-anchor="middle" x="128.383" y="-246.7326" font-family="Times,serif" font-size="9.00" fill="#000000">0</text>
</g>
<!-- 1 -->
<g id="node2" class="node">
<title>1</title>
<polygon fill="#d3d3d3" stroke="#000000" points="177.389,-257.9326 157.3771,-257.9326 157.3771,-240.9326 177.389,-240.9326 177.389,-257.9326"/>
<text text-anchor="middle" x="167.383" y="-246.7326" font-family="Times,serif" font-size="9.00" fill="#000000">1</text>
</g>
<!-- 0&#45;&gt;1 -->
<!-- E2 -->
<g id="node6" class="node">
<title>E2</title>
<ellipse fill="#87cefa" stroke="#000000" cx="128.383" cy="-18.383" rx="18.2668" ry="18.2668"/>
<text text-anchor="middle" x="128.383" y="-15.683" font-family="Times,serif" font-size="9.00" fill="#000000">E2</text>
</g>
<!-- 0&#45;&gt;E2 -->
<g id="edge13" class="edge">
<title>0&#45;&gt;E2</title>
<path fill="none" stroke="#ff0000" stroke-width="2.5797" d="M128.383,-240.6573C128.383,-208.9623 128.383,-99.5115 128.383,-46.9692"/>
<polygon fill="#ff0000" stroke="#ff0000" stroke-width="2.5797" points="131.8831,-46.964 128.383,-36.9641 124.8831,-46.9641 131.8831,-46.964"/>
</g>
<!-- 2 -->
<g id="node3" class="node">
<title>2</title>
<polygon fill="#d3d3d3" stroke="#000000" points="216.389,-257.9326 196.3771,-257.9326 196.3771,-240.9326 216.389,-240.9326 216.389,-257.9326"/>
<text text-anchor="middle" x="206.383" y="-246.7326" font-family="Times,serif" font-size="9.00" fill="#000000">2</text>
</g>
<!-- 1&#45;&gt;2 -->
<!-- E0 -->
<g id="node4" class="node">
<title>E0</title>
<ellipse fill="#87cefa" stroke="#000000" cx="18.383" cy="-18.383" rx="18.2668" ry="18.2668"/>
<text text-anchor="middle" x="18.383" y="-15.683" font-family="Times,serif" font-size="9.00" fill="#000000">E0</text>
</g>
<!-- 2&#45;&gt;E0 -->
<g id="edge12" class="edge">
<title>2&#45;&gt;E0</title>
<path fill="none" stroke="#ff0000" stroke-width="2.2539" d="M199.2428,-240.6573C172.3598,-207.6185 76.7299,-90.0905 36.4631,-40.6032"/>
<polygon fill="#ff0000" stroke="#ff0000" stroke-width="2.2539" points="39.0808,-38.2748 30.0545,-32.7272 33.6512,-42.6929 39.0808,-38.2748"/>
</g>
<!-- E4 -->
<g id="node8" class="node">
<title>E4</title>
<ellipse fill="#87cefa" stroke="#000000" cx="238.383" cy="-18.383" rx="18.2668" ry="18.2668"/>
<text text-anchor="middle" x="238.383" y="-15.683" font-family="Times,serif" font-size="9.00" fill="#000000">E4</text>
</g>
<!-- 2&#45;&gt;E4 -->
<g id="edge11" class="edge">
<title>2&#45;&gt;E4</title>
<path fill="none" stroke="#00ff00" stroke-width="1.1051" d="M207.5984,-240.6573C211.9988,-208.8852 227.2207,-98.9784 234.4769,-46.5867"/>
<polygon fill="#00ff00" stroke="#00ff00" stroke-width="1.1051" points="237.952,-47.0073 235.857,-36.6216 231.0182,-46.0469 237.952,-47.0073"/>
</g>
<!-- E1 -->
<g id="node5" class="node">
<title>E1</title>
<ellipse fill="#87cefa" stroke="#000000" cx="73.383" cy="-18.383" rx="18.2668" ry="18.2668"/>
<text text-anchor="middle" x="73.383" y="-15.683" font-family="Times,serif" font-size="9.00" fill="#000000">E1</text>
</g>
<!-- E0&#45;&gt;E1 -->
<!-- E1&#45;&gt;E2 -->
<!-- E3 -->
<g id="node7" class="node">
<title>E3</title>
<ellipse fill="#87cefa" stroke="#000000" cx="183.383" cy="-18.383" rx="18.2668" ry="18.2668"/>
<text text-anchor="middle" x="183.383" y="-15.683" font-family="Times,serif" font-size="9.00" fill="#000000">E3</text>
</g>
<!-- E2&#45;&gt;E3 -->
<!-- E3&#45;&gt;E4 -->
<!-- E5 -->
<g id="node9" class="node">
<title>E5</title>
<ellipse fill="#87cefa" stroke="#000000" cx="293.383" cy="-18.383" rx="18.2668" ry="18.2668"/>
<text text-anchor="middle" x="293.383" y="-15.683" font-family="Times,serif" font-size="9.00" fill="#000000">E5</text>
</g>
<!-- E4&#45;&gt;E5 -->
<!-- E6 -->
<g id="node10" class="node">
<title>E6</title>
<ellipse fill="#87cefa" stroke="#000000" cx="348.383" cy="-18.383" rx="18.2668" ry="18.2668"/>
<text text-anchor="middle" x="348.383" y="-15.683" font-family="Times,serif" font-size="9.00" fill="#000000">E6</text>
</g>
<!-- E5&#45;&gt;E6 -->
<!-- E7 -->
<g id="node11" class="node">
<title>E7</title>
<ellipse fill="#87cefa" stroke="#000000" cx="403.383" cy="-18.383" rx="18.2668" ry="18.2668"/>
<text text-anchor="middle" x="403.383" y="-15.683" font-family="Times,serif" font-size="9.00" fill="#000000">E7</text>
</g>
<!-- E6&#45;&gt;E7 -->
<!-- E8 -->
<g id="node12" class="node">
<title>E8</title>
<ellipse fill="#87cefa" stroke="#000000" cx="458.383" cy="-18.383" rx="18.2668" ry="18.2668"/>
<text text-anchor="middle" x="458.383" y="-15.683" font-family="Times,serif" font-size="9.00" fill="#000000">E8</text>
</g>
<!-- E7&#45;&gt;E8 -->
<!-- 5152 -->
<g id="node13" class="node">
<title>5152</title>
<ellipse fill="#add8e6" stroke="#000000" cx="403.383" cy="-96.8077" rx="24.0833" ry="24.0833"/>
<text text-anchor="middle" x="403.383" y="-98.6077" font-family="Times,serif" font-size="9.00" fill="#000000">5152</text>
<text text-anchor="middle" x="403.383" y="-89.6077" font-family="Times,serif" font-size="9.00" fill="#000000">sigm</text>
</g>
<!-- 5152&#45;&gt;E7 -->
<g id="edge14" class="edge">
<title>5152&#45;&gt;E7</title>
<path fill="none" stroke="#00ff00" stroke-width=".6502" d="M403.383,-72.4236C403.383,-64.33 403.383,-55.248 403.383,-46.8729"/>
<polygon fill="#00ff00" stroke="#00ff00" stroke-width=".6502" points="406.8831,-46.7701 403.383,-36.7702 399.8831,-46.7702 406.8831,-46.7701"/>
</g>
<!-- 5284 -->
<g id="node14" class="node">
<title>5284</title>
<ellipse fill="#add8e6" stroke="#000000" cx="315.383" cy="-96.8077" rx="24.0833" ry="24.0833"/>
<text text-anchor="middle" x="315.383" y="-98.6077" font-family="Times,serif" font-size="9.00" fill="#000000">5284</text>
<text text-anchor="middle" x="315.383" y="-89.6077" font-family="Times,serif" font-size="9.00" fill="#000000">sigm</text>
</g>
<!-- 5284&#45;&gt;E5 -->
<g id="edge17" class="edge">
<title>5284&#45;&gt;E5</title>
<path fill="none" stroke="#00ff00" stroke-width=".5044" d="M308.7823,-73.2777C306.3807,-64.7166 303.6441,-54.9613 301.1507,-46.073"/>
<polygon fill="#00ff00" stroke="#00ff00" stroke-width=".5044" points="304.441,-44.8434 298.37,-36.1604 297.7012,-46.7341 304.441,-44.8434"/>
</g>
<!-- 5284&#45;&gt;E6 -->
<g id="edge15" class="edge">
<title>5284&#45;&gt;E6</title>
<path fill="none" stroke="#00ff00" stroke-width=".3854" d="M324.7513,-74.5441C328.598,-65.4023 333.0852,-54.7385 337.1097,-45.1742"/>
<polygon fill="#00ff00" stroke="#00ff00" stroke-width=".3854" points="340.4375,-46.2898 341.09,-35.7151 333.9854,-43.5748 340.4375,-46.2898"/>
</g>
<!-- 4954 -->
<g id="node15" class="node">
<title>4954</title>
<ellipse fill="#add8e6" stroke="#000000" cx="403.383" cy="-180.891" rx="24.0833" ry="24.0833"/>
<text text-anchor="middle" x="403.383" y="-182.691" font-family="Times,serif" font-size="9.00" fill="#000000">4954</text>
<text text-anchor="middle" x="403.383" y="-173.691" font-family="Times,serif" font-size="9.00" fill="#000000">sigm</text>
</g>
<!-- 4954&#45;&gt;5152 -->
<g id="edge16" class="edge">
<title>4954&#45;&gt;5152</title>
<path fill="none" stroke="#ff0000" stroke-width=".2615" d="M403.383,-156.5706C403.383,-148.6398 403.383,-139.6791 403.383,-131.1553"/>
<polygon fill="#ff0000" stroke="#ff0000" stroke-width=".2615" points="406.8831,-131.0734 403.383,-121.0734 399.8831,-131.0735 406.8831,-131.0734"/>
</g>
</g>
</svg>
