<?xml version="1.0" encoding="utf-8" standalone="no"?>
<!DOCTYPE svg PUBLIC "-//W3C//DTD SVG 1.1//EN"
  "http://www.w3.org/Graphics/SVG/1.1/DTD/svg11.dtd">
<!-- Created with matplotlib (https://matplotlib.org/) -->
<svg height="345.6pt" version="1.1" viewBox="0 0 460.8 345.6" width="460.8pt" xmlns="http://www.w3.org/2000/svg" xmlns:xlink="http://www.w3.org/1999/xlink">
 <defs>
  <style type="text/css">
*{stroke-linecap:butt;stroke-linejoin:round;}
  </style>
 </defs>
 <g id="figure_1">
  <g id="patch_1">
   <path d="M 0 345.6 
L 460.8 345.6 
L 460.8 0 
L 0 0 
z
" style="fill:#ffffff;"/>
  </g>
  <g id="axes_1">
   <g id="patch_2">
    <path d="M 57.6 307.584 
L 414.72 307.584 
L 414.72 41.472 
L 57.6 41.472 
z
" style="fill:#ffffff;"/>
   </g>
   <g id="matplotlib.axis_1">
    <g id="xtick_1">
     <g id="line2d_1">
      <path clip-path="url(#pe6221e863e)" d="M 73.832727 307.584 
L 73.832727 41.472 
" style="fill:none;stroke:#b0b0b0;stroke-linecap:square;stroke-width:0.8;"/>
     </g>
     <g id="line2d_2">
      <defs>
       <path d="M 0 0 
L 0 3.5 
" id="m924dbd1f06" style="stroke:#000000;stroke-width:0.8;"/>
      </defs>
      <g>
       <use style="stroke:#000000;stroke-width:0.8;" x="73.832727" xlink:href="#m924dbd1f06" y="307.584"/>
      </g>
     </g>
     <g id="text_1">
      <!-- 0 -->
      <defs>
       <path d="M 31.78125 66.40625 
Q 24.171875 66.40625 20.328125 58.90625 
Q 16.5 51.421875 16.5 36.375 
Q 16.5 21.390625 20.328125 13.890625 
Q 24.171875 6.390625 31.78125 6.390625 
Q 39.453125 6.390625 43.28125 13.890625 
Q 47.125 21.390625 47.125 36.375 
Q 47.125 51.421875 43.28125 58.90625 
Q 39.453125 66.40625 31.78125 66.40625 
z
M 31.78125 74.21875 
Q 44.046875 74.21875 50.515625 64.515625 
Q 56.984375 54.828125 56.984375 36.375 
Q 56.984375 17.96875 50.515625 8.265625 
Q 44.046875 -1.421875 31.78125 -1.421875 
Q 19.53125 -1.421875 13.0625 8.265625 
Q 6.59375 17.96875 6.59375 36.375 
Q 6.59375 54.828125 13.0625 64.515625 
Q 19.53125 74.21875 31.78125 74.21875 
z
" id="DejaVuSans-48"/>
      </defs>
      <g transform="translate(70.651477 322.182437)scale(0.1 -0.1)">
       <use xlink:href="#DejaVuSans-48"/>
      </g>
     </g>
    </g>
    <g id="xtick_2">
     <g id="line2d_3">
      <path clip-path="url(#pe6221e863e)" d="M 128.122785 307.584 
L 128.122785 41.472 
" style="fill:none;stroke:#b0b0b0;stroke-linecap:square;stroke-width:0.8;"/>
     </g>
     <g id="line2d_4">
      <g>
       <use style="stroke:#000000;stroke-width:0.8;" x="128.122785" xlink:href="#m924dbd1f06" y="307.584"/>
      </g>
     </g>
     <g id="text_2">
      <!-- 50 -->
      <defs>
       <path d="M 10.796875 72.90625 
L 49.515625 72.90625 
L 49.515625 64.59375 
L 19.828125 64.59375 
L 19.828125 46.734375 
Q 21.96875 47.46875 24.109375 47.828125 
Q 26.265625 48.1875 28.421875 48.1875 
Q 40.625 48.1875 47.75 41.5 
Q 54.890625 34.8125 54.890625 23.390625 
Q 54.890625 11.625 47.5625 5.09375 
Q 40.234375 -1.421875 26.90625 -1.421875 
Q 22.3125 -1.421875 17.546875 -0.640625 
Q 12.796875 0.140625 7.71875 1.703125 
L 7.71875 11.625 
Q 12.109375 9.234375 16.796875 8.0625 
Q 21.484375 6.890625 26.703125 6.890625 
Q 35.15625 6.890625 40.078125 11.328125 
Q 45.015625 15.765625 45.015625 23.390625 
Q 45.015625 31 40.078125 35.4375 
Q 35.15625 39.890625 26.703125 39.890625 
Q 22.75 39.890625 18.8125 39.015625 
Q 14.890625 38.140625 10.796875 36.28125 
z
" id="DejaVuSans-53"/>
      </defs>
      <g transform="translate(121.760285 322.182437)scale(0.1 -0.1)">
       <use xlink:href="#DejaVuSans-53"/>
       <use x="63.623047" xlink:href="#DejaVuSans-48"/>
      </g>
     </g>
    </g>
    <g id="xtick_3">
     <g id="line2d_5">
      <path clip-path="url(#pe6221e863e)" d="M 182.412843 307.584 
L 182.412843 41.472 
" style="fill:none;stroke:#b0b0b0;stroke-linecap:square;stroke-width:0.8;"/>
     </g>
     <g id="line2d_6">
      <g>
       <use style="stroke:#000000;stroke-width:0.8;" x="182.412843" xlink:href="#m924dbd1f06" y="307.584"/>
      </g>
     </g>
     <g id="text_3">
      <!-- 100 -->
      <defs>
       <path d="M 12.40625 8.296875 
L 28.515625 8.296875 
L 28.515625 63.921875 
L 10.984375 60.40625 
L 10.984375 69.390625 
L 28.421875 72.90625 
L 38.28125 72.90625 
L 38.28125 8.296875 
L 54.390625 8.296875 
L 54.390625 0 
L 12.40625 0 
z
" id="DejaVuSans-49"/>
      </defs>
      <g transform="translate(172.869093 322.182437)scale(0.1 -0.1)">
       <use xlink:href="#DejaVuSans-49"/>
       <use x="63.623047" xlink:href="#DejaVuSans-48"/>
       <use x="127.246094" xlink:href="#DejaVuSans-48"/>
      </g>
     </g>
    </g>
    <g id="xtick_4">
     <g id="line2d_7">
      <path clip-path="url(#pe6221e863e)" d="M 236.702901 307.584 
L 236.702901 41.472 
" style="fill:none;stroke:#b0b0b0;stroke-linecap:square;stroke-width:0.8;"/>
     </g>
     <g id="line2d_8">
      <g>
       <use style="stroke:#000000;stroke-width:0.8;" x="236.702901" xlink:href="#m924dbd1f06" y="307.584"/>
      </g>
     </g>
     <g id="text_4">
      <!-- 150 -->
      <g transform="translate(227.159151 322.182437)scale(0.1 -0.1)">
       <use xlink:href="#DejaVuSans-49"/>
       <use x="63.623047" xlink:href="#DejaVuSans-53"/>
       <use x="127.246094" xlink:href="#DejaVuSans-48"/>
      </g>
     </g>
    </g>
    <g id="xtick_5">
     <g id="line2d_9">
      <path clip-path="url(#pe6221e863e)" d="M 290.992958 307.584 
L 290.992958 41.472 
" style="fill:none;stroke:#b0b0b0;stroke-linecap:square;stroke-width:0.8;"/>
     </g>
     <g id="line2d_10">
      <g>
       <use style="stroke:#000000;stroke-width:0.8;" x="290.992958" xlink:href="#m924dbd1f06" y="307.584"/>
      </g>
     </g>
     <g id="text_5">
      <!-- 200 -->
      <defs>
       <path d="M 19.1875 8.296875 
L 53.609375 8.296875 
L 53.609375 0 
L 7.328125 0 
L 7.328125 8.296875 
Q 12.9375 14.109375 22.625 23.890625 
Q 32.328125 33.6875 34.8125 36.53125 
Q 39.546875 41.84375 41.421875 45.53125 
Q 43.3125 49.21875 43.3125 52.78125 
Q 43.3125 58.59375 39.234375 62.25 
Q 35.15625 65.921875 28.609375 65.921875 
Q 23.96875 65.921875 18.8125 64.3125 
Q 13.671875 62.703125 7.8125 59.421875 
L 7.8125 69.390625 
Q 13.765625 71.78125 18.9375 73 
Q 24.125 74.21875 28.421875 74.21875 
Q 39.75 74.21875 46.484375 68.546875 
Q 53.21875 62.890625 53.21875 53.421875 
Q 53.21875 48.921875 51.53125 44.890625 
Q 49.859375 40.875 45.40625 35.40625 
Q 44.1875 33.984375 37.640625 27.21875 
Q 31.109375 20.453125 19.1875 8.296875 
z
" id="DejaVuSans-50"/>
      </defs>
      <g transform="translate(281.449208 322.182437)scale(0.1 -0.1)">
       <use xlink:href="#DejaVuSans-50"/>
       <use x="63.623047" xlink:href="#DejaVuSans-48"/>
       <use x="127.246094" xlink:href="#DejaVuSans-48"/>
      </g>
     </g>
    </g>
    <g id="xtick_6">
     <g id="line2d_11">
      <path clip-path="url(#pe6221e863e)" d="M 345.283016 307.584 
L 345.283016 41.472 
" style="fill:none;stroke:#b0b0b0;stroke-linecap:square;stroke-width:0.8;"/>
     </g>
     <g id="line2d_12">
      <g>
       <use style="stroke:#000000;stroke-width:0.8;" x="345.283016" xlink:href="#m924dbd1f06" y="307.584"/>
      </g>
     </g>
     <g id="text_6">
      <!-- 250 -->
      <g transform="translate(335.739266 322.182437)scale(0.1 -0.1)">
       <use xlink:href="#DejaVuSans-50"/>
       <use x="63.623047" xlink:href="#DejaVuSans-53"/>
       <use x="127.246094" xlink:href="#DejaVuSans-48"/>
      </g>
     </g>
    </g>
    <g id="xtick_7">
     <g id="line2d_13">
      <path clip-path="url(#pe6221e863e)" d="M 399.573074 307.584 
L 399.573074 41.472 
" style="fill:none;stroke:#b0b0b0;stroke-linecap:square;stroke-width:0.8;"/>
     </g>
     <g id="line2d_14">
      <g>
       <use style="stroke:#000000;stroke-width:0.8;" x="399.573074" xlink:href="#m924dbd1f06" y="307.584"/>
      </g>
     </g>
     <g id="text_7">
      <!-- 300 -->
      <defs>
       <path d="M 40.578125 39.3125 
Q 47.65625 37.796875 51.625 33 
Q 55.609375 28.21875 55.609375 21.1875 
Q 55.609375 10.40625 48.1875 4.484375 
Q 40.765625 -1.421875 27.09375 -1.421875 
Q 22.515625 -1.421875 17.65625 -0.515625 
Q 12.796875 0.390625 7.625 2.203125 
L 7.625 11.71875 
Q 11.71875 9.328125 16.59375 8.109375 
Q 21.484375 6.890625 26.8125 6.890625 
Q 36.078125 6.890625 40.9375 10.546875 
Q 45.796875 14.203125 45.796875 21.1875 
Q 45.796875 27.640625 41.28125 31.265625 
Q 36.765625 34.90625 28.71875 34.90625 
L 20.21875 34.90625 
L 20.21875 43.015625 
L 29.109375 43.015625 
Q 36.375 43.015625 40.234375 45.921875 
Q 44.09375 48.828125 44.09375 54.296875 
Q 44.09375 59.90625 40.109375 62.90625 
Q 36.140625 65.921875 28.71875 65.921875 
Q 24.65625 65.921875 20.015625 65.03125 
Q 15.375 64.15625 9.8125 62.3125 
L 9.8125 71.09375 
Q 15.4375 72.65625 20.34375 73.4375 
Q 25.25 74.21875 29.59375 74.21875 
Q 40.828125 74.21875 47.359375 69.109375 
Q 53.90625 64.015625 53.90625 55.328125 
Q 53.90625 49.265625 50.4375 45.09375 
Q 46.96875 40.921875 40.578125 39.3125 
z
" id="DejaVuSans-51"/>
      </defs>
      <g transform="translate(390.029324 322.182437)scale(0.1 -0.1)">
       <use xlink:href="#DejaVuSans-51"/>
       <use x="63.623047" xlink:href="#DejaVuSans-48"/>
       <use x="127.246094" xlink:href="#DejaVuSans-48"/>
      </g>
     </g>
    </g>
    <g id="text_8">
     <!-- Generations -->
     <defs>
      <path d="M 59.515625 10.40625 
L 59.515625 29.984375 
L 43.40625 29.984375 
L 43.40625 38.09375 
L 69.28125 38.09375 
L 69.28125 6.78125 
Q 63.578125 2.734375 56.6875 0.65625 
Q 49.8125 -1.421875 42 -1.421875 
Q 24.90625 -1.421875 15.25 8.5625 
Q 5.609375 18.5625 5.609375 36.375 
Q 5.609375 54.25 15.25 64.234375 
Q 24.90625 74.21875 42 74.21875 
Q 49.125 74.21875 55.546875 72.453125 
Q 61.96875 70.703125 67.390625 67.28125 
L 67.390625 56.78125 
Q 61.921875 61.421875 55.765625 63.765625 
Q 49.609375 66.109375 42.828125 66.109375 
Q 29.4375 66.109375 22.71875 58.640625 
Q 16.015625 51.171875 16.015625 36.375 
Q 16.015625 21.625 22.71875 14.15625 
Q 29.4375 6.6875 42.828125 6.6875 
Q 48.046875 6.6875 52.140625 7.59375 
Q 56.25 8.5 59.515625 10.40625 
z
" id="DejaVuSans-71"/>
      <path d="M 56.203125 29.59375 
L 56.203125 25.203125 
L 14.890625 25.203125 
Q 15.484375 15.921875 20.484375 11.0625 
Q 25.484375 6.203125 34.421875 6.203125 
Q 39.59375 6.203125 44.453125 7.46875 
Q 49.3125 8.734375 54.109375 11.28125 
L 54.109375 2.78125 
Q 49.265625 0.734375 44.1875 -0.34375 
Q 39.109375 -1.421875 33.890625 -1.421875 
Q 20.796875 -1.421875 13.15625 6.1875 
Q 5.515625 13.8125 5.515625 26.8125 
Q 5.515625 40.234375 12.765625 48.109375 
Q 20.015625 56 32.328125 56 
Q 43.359375 56 49.78125 48.890625 
Q 56.203125 41.796875 56.203125 29.59375 
z
M 47.21875 32.234375 
Q 47.125 39.59375 43.09375 43.984375 
Q 39.0625 48.390625 32.421875 48.390625 
Q 24.90625 48.390625 20.390625 44.140625 
Q 15.875 39.890625 15.1875 32.171875 
z
" id="DejaVuSans-101"/>
      <path d="M 54.890625 33.015625 
L 54.890625 0 
L 45.90625 0 
L 45.90625 32.71875 
Q 45.90625 40.484375 42.875 44.328125 
Q 39.84375 48.1875 33.796875 48.1875 
Q 26.515625 48.1875 22.3125 43.546875 
Q 18.109375 38.921875 18.109375 30.90625 
L 18.109375 0 
L 9.078125 0 
L 9.078125 54.6875 
L 18.109375 54.6875 
L 18.109375 46.1875 
Q 21.34375 51.125 25.703125 53.5625 
Q 30.078125 56 35.796875 56 
Q 45.21875 56 50.046875 50.171875 
Q 54.890625 44.34375 54.890625 33.015625 
z
" id="DejaVuSans-110"/>
      <path d="M 41.109375 46.296875 
Q 39.59375 47.171875 37.8125 47.578125 
Q 36.03125 48 33.890625 48 
Q 26.265625 48 22.1875 43.046875 
Q 18.109375 38.09375 18.109375 28.8125 
L 18.109375 0 
L 9.078125 0 
L 9.078125 54.6875 
L 18.109375 54.6875 
L 18.109375 46.1875 
Q 20.953125 51.171875 25.484375 53.578125 
Q 30.03125 56 36.53125 56 
Q 37.453125 56 38.578125 55.875 
Q 39.703125 55.765625 41.0625 55.515625 
z
" id="DejaVuSans-114"/>
      <path d="M 34.28125 27.484375 
Q 23.390625 27.484375 19.1875 25 
Q 14.984375 22.515625 14.984375 16.5 
Q 14.984375 11.71875 18.140625 8.90625 
Q 21.296875 6.109375 26.703125 6.109375 
Q 34.1875 6.109375 38.703125 11.40625 
Q 43.21875 16.703125 43.21875 25.484375 
L 43.21875 27.484375 
z
M 52.203125 31.203125 
L 52.203125 0 
L 43.21875 0 
L 43.21875 8.296875 
Q 40.140625 3.328125 35.546875 0.953125 
Q 30.953125 -1.421875 24.3125 -1.421875 
Q 15.921875 -1.421875 10.953125 3.296875 
Q 6 8.015625 6 15.921875 
Q 6 25.140625 12.171875 29.828125 
Q 18.359375 34.515625 30.609375 34.515625 
L 43.21875 34.515625 
L 43.21875 35.40625 
Q 43.21875 41.609375 39.140625 45 
Q 35.0625 48.390625 27.6875 48.390625 
Q 23 48.390625 18.546875 47.265625 
Q 14.109375 46.140625 10.015625 43.890625 
L 10.015625 52.203125 
Q 14.9375 54.109375 19.578125 55.046875 
Q 24.21875 56 28.609375 56 
Q 40.484375 56 46.34375 49.84375 
Q 52.203125 43.703125 52.203125 31.203125 
z
" id="DejaVuSans-97"/>
      <path d="M 18.3125 70.21875 
L 18.3125 54.6875 
L 36.8125 54.6875 
L 36.8125 47.703125 
L 18.3125 47.703125 
L 18.3125 18.015625 
Q 18.3125 11.328125 20.140625 9.421875 
Q 21.96875 7.515625 27.59375 7.515625 
L 36.8125 7.515625 
L 36.8125 0 
L 27.59375 0 
Q 17.1875 0 13.234375 3.875 
Q 9.28125 7.765625 9.28125 18.015625 
L 9.28125 47.703125 
L 2.6875 47.703125 
L 2.6875 54.6875 
L 9.28125 54.6875 
L 9.28125 70.21875 
z
" id="DejaVuSans-116"/>
      <path d="M 9.421875 54.6875 
L 18.40625 54.6875 
L 18.40625 0 
L 9.421875 0 
z
M 9.421875 75.984375 
L 18.40625 75.984375 
L 18.40625 64.59375 
L 9.421875 64.59375 
z
" id="DejaVuSans-105"/>
      <path d="M 30.609375 48.390625 
Q 23.390625 48.390625 19.1875 42.75 
Q 14.984375 37.109375 14.984375 27.296875 
Q 14.984375 17.484375 19.15625 11.84375 
Q 23.34375 6.203125 30.609375 6.203125 
Q 37.796875 6.203125 41.984375 11.859375 
Q 46.1875 17.53125 46.1875 27.296875 
Q 46.1875 37.015625 41.984375 42.703125 
Q 37.796875 48.390625 30.609375 48.390625 
z
M 30.609375 56 
Q 42.328125 56 49.015625 48.375 
Q 55.71875 40.765625 55.71875 27.296875 
Q 55.71875 13.875 49.015625 6.21875 
Q 42.328125 -1.421875 30.609375 -1.421875 
Q 18.84375 -1.421875 12.171875 6.21875 
Q 5.515625 13.875 5.515625 27.296875 
Q 5.515625 40.765625 12.171875 48.375 
Q 18.84375 56 30.609375 56 
z
" id="DejaVuSans-111"/>
      <path d="M 44.28125 53.078125 
L 44.28125 44.578125 
Q 40.484375 46.53125 36.375 47.5 
Q 32.28125 48.484375 27.875 48.484375 
Q 21.1875 48.484375 17.84375 46.4375 
Q 14.5 44.390625 14.5 40.28125 
Q 14.5 37.15625 16.890625 35.375 
Q 19.28125 33.59375 26.515625 31.984375 
L 29.59375 31.296875 
Q 39.15625 29.25 43.1875 25.515625 
Q 47.21875 21.78125 47.21875 15.09375 
Q 47.21875 7.46875 41.1875 3.015625 
Q 35.15625 -1.421875 24.609375 -1.421875 
Q 20.21875 -1.421875 15.453125 -0.5625 
Q 10.6875 0.296875 5.421875 2 
L 5.421875 11.28125 
Q 10.40625 8.6875 15.234375 7.390625 
Q 20.0625 6.109375 24.8125 6.109375 
Q 31.15625 6.109375 34.5625 8.28125 
Q 37.984375 10.453125 37.984375 14.40625 
Q 37.984375 18.0625 35.515625 20.015625 
Q 33.0625 21.96875 24.703125 23.78125 
L 21.578125 24.515625 
Q 13.234375 26.265625 9.515625 29.90625 
Q 5.8125 33.546875 5.8125 39.890625 
Q 5.8125 47.609375 11.28125 51.796875 
Q 16.75 56 26.8125 56 
Q 31.78125 56 36.171875 55.265625 
Q 40.578125 54.546875 44.28125 53.078125 
z
" id="DejaVuSans-115"/>
     </defs>
     <g transform="translate(205.662344 335.860562)scale(0.1 -0.1)">
      <use xlink:href="#DejaVuSans-71"/>
      <use x="77.490234" xlink:href="#DejaVuSans-101"/>
      <use x="139.013672" xlink:href="#DejaVuSans-110"/>
      <use x="202.392578" xlink:href="#DejaVuSans-101"/>
      <use x="263.916016" xlink:href="#DejaVuSans-114"/>
      <use x="305.029297" xlink:href="#DejaVuSans-97"/>
      <use x="366.308594" xlink:href="#DejaVuSans-116"/>
      <use x="405.517578" xlink:href="#DejaVuSans-105"/>
      <use x="433.300781" xlink:href="#DejaVuSans-111"/>
      <use x="494.482422" xlink:href="#DejaVuSans-110"/>
      <use x="557.861328" xlink:href="#DejaVuSans-115"/>
     </g>
    </g>
   </g>
   <g id="matplotlib.axis_2">
    <g id="ytick_1">
     <g id="line2d_15">
      <path clip-path="url(#pe6221e863e)" d="M 57.6 283.697517 
L 414.72 283.697517 
" style="fill:none;stroke:#b0b0b0;stroke-linecap:square;stroke-width:0.8;"/>
     </g>
     <g id="line2d_16">
      <defs>
       <path d="M 0 0 
L -3.5 0 
" id="mf7392f8d47" style="stroke:#000000;stroke-width:0.8;"/>
      </defs>
      <g>
       <use style="stroke:#000000;stroke-width:0.8;" x="57.6" xlink:href="#mf7392f8d47" y="283.697517"/>
      </g>
     </g>
     <g id="text_9">
      <!-- 400 -->
      <defs>
       <path d="M 37.796875 64.3125 
L 12.890625 25.390625 
L 37.796875 25.390625 
z
M 35.203125 72.90625 
L 47.609375 72.90625 
L 47.609375 25.390625 
L 58.015625 25.390625 
L 58.015625 17.1875 
L 47.609375 17.1875 
L 47.609375 0 
L 37.796875 0 
L 37.796875 17.1875 
L 4.890625 17.1875 
L 4.890625 26.703125 
z
" id="DejaVuSans-52"/>
      </defs>
      <g transform="translate(31.5125 287.496736)scale(0.1 -0.1)">
       <use xlink:href="#DejaVuSans-52"/>
       <use x="63.623047" xlink:href="#DejaVuSans-48"/>
       <use x="127.246094" xlink:href="#DejaVuSans-48"/>
      </g>
     </g>
    </g>
    <g id="ytick_2">
     <g id="line2d_17">
      <path clip-path="url(#pe6221e863e)" d="M 57.6 253.431793 
L 414.72 253.431793 
" style="fill:none;stroke:#b0b0b0;stroke-linecap:square;stroke-width:0.8;"/>
     </g>
     <g id="line2d_18">
      <g>
       <use style="stroke:#000000;stroke-width:0.8;" x="57.6" xlink:href="#mf7392f8d47" y="253.431793"/>
      </g>
     </g>
     <g id="text_10">
      <!-- 600 -->
      <defs>
       <path d="M 33.015625 40.375 
Q 26.375 40.375 22.484375 35.828125 
Q 18.609375 31.296875 18.609375 23.390625 
Q 18.609375 15.53125 22.484375 10.953125 
Q 26.375 6.390625 33.015625 6.390625 
Q 39.65625 6.390625 43.53125 10.953125 
Q 47.40625 15.53125 47.40625 23.390625 
Q 47.40625 31.296875 43.53125 35.828125 
Q 39.65625 40.375 33.015625 40.375 
z
M 52.59375 71.296875 
L 52.59375 62.3125 
Q 48.875 64.0625 45.09375 64.984375 
Q 41.3125 65.921875 37.59375 65.921875 
Q 27.828125 65.921875 22.671875 59.328125 
Q 17.53125 52.734375 16.796875 39.40625 
Q 19.671875 43.65625 24.015625 45.921875 
Q 28.375 48.1875 33.59375 48.1875 
Q 44.578125 48.1875 50.953125 41.515625 
Q 57.328125 34.859375 57.328125 23.390625 
Q 57.328125 12.15625 50.6875 5.359375 
Q 44.046875 -1.421875 33.015625 -1.421875 
Q 20.359375 -1.421875 13.671875 8.265625 
Q 6.984375 17.96875 6.984375 36.375 
Q 6.984375 53.65625 15.1875 63.9375 
Q 23.390625 74.21875 37.203125 74.21875 
Q 40.921875 74.21875 44.703125 73.484375 
Q 48.484375 72.75 52.59375 71.296875 
z
" id="DejaVuSans-54"/>
      </defs>
      <g transform="translate(31.5125 257.231012)scale(0.1 -0.1)">
       <use xlink:href="#DejaVuSans-54"/>
       <use x="63.623047" xlink:href="#DejaVuSans-48"/>
       <use x="127.246094" xlink:href="#DejaVuSans-48"/>
      </g>
     </g>
    </g>
    <g id="ytick_3">
     <g id="line2d_19">
      <path clip-path="url(#pe6221e863e)" d="M 57.6 223.16607 
L 414.72 223.16607 
" style="fill:none;stroke:#b0b0b0;stroke-linecap:square;stroke-width:0.8;"/>
     </g>
     <g id="line2d_20">
      <g>
       <use style="stroke:#000000;stroke-width:0.8;" x="57.6" xlink:href="#mf7392f8d47" y="223.16607"/>
      </g>
     </g>
     <g id="text_11">
      <!-- 800 -->
      <defs>
       <path d="M 31.78125 34.625 
Q 24.75 34.625 20.71875 30.859375 
Q 16.703125 27.09375 16.703125 20.515625 
Q 16.703125 13.921875 20.71875 10.15625 
Q 24.75 6.390625 31.78125 6.390625 
Q 38.8125 6.390625 42.859375 10.171875 
Q 46.921875 13.96875 46.921875 20.515625 
Q 46.921875 27.09375 42.890625 30.859375 
Q 38.875 34.625 31.78125 34.625 
z
M 21.921875 38.8125 
Q 15.578125 40.375 12.03125 44.71875 
Q 8.5 49.078125 8.5 55.328125 
Q 8.5 64.0625 14.71875 69.140625 
Q 20.953125 74.21875 31.78125 74.21875 
Q 42.671875 74.21875 48.875 69.140625 
Q 55.078125 64.0625 55.078125 55.328125 
Q 55.078125 49.078125 51.53125 44.71875 
Q 48 40.375 41.703125 38.8125 
Q 48.828125 37.15625 52.796875 32.3125 
Q 56.78125 27.484375 56.78125 20.515625 
Q 56.78125 9.90625 50.3125 4.234375 
Q 43.84375 -1.421875 31.78125 -1.421875 
Q 19.734375 -1.421875 13.25 4.234375 
Q 6.78125 9.90625 6.78125 20.515625 
Q 6.78125 27.484375 10.78125 32.3125 
Q 14.796875 37.15625 21.921875 38.8125 
z
M 18.3125 54.390625 
Q 18.3125 48.734375 21.84375 45.5625 
Q 25.390625 42.390625 31.78125 42.390625 
Q 38.140625 42.390625 41.71875 45.5625 
Q 45.3125 48.734375 45.3125 54.390625 
Q 45.3125 60.0625 41.71875 63.234375 
Q 38.140625 66.40625 31.78125 66.40625 
Q 25.390625 66.40625 21.84375 63.234375 
Q 18.3125 60.0625 18.3125 54.390625 
z
" id="DejaVuSans-56"/>
      </defs>
      <g transform="translate(31.5125 226.965288)scale(0.1 -0.1)">
       <use xlink:href="#DejaVuSans-56"/>
       <use x="63.623047" xlink:href="#DejaVuSans-48"/>
       <use x="127.246094" xlink:href="#DejaVuSans-48"/>
      </g>
     </g>
    </g>
    <g id="ytick_4">
     <g id="line2d_21">
      <path clip-path="url(#pe6221e863e)" d="M 57.6 192.900346 
L 414.72 192.900346 
" style="fill:none;stroke:#b0b0b0;stroke-linecap:square;stroke-width:0.8;"/>
     </g>
     <g id="line2d_22">
      <g>
       <use style="stroke:#000000;stroke-width:0.8;" x="57.6" xlink:href="#mf7392f8d47" y="192.900346"/>
      </g>
     </g>
     <g id="text_12">
      <!-- 1000 -->
      <g transform="translate(25.15 196.699565)scale(0.1 -0.1)">
       <use xlink:href="#DejaVuSans-49"/>
       <use x="63.623047" xlink:href="#DejaVuSans-48"/>
       <use x="127.246094" xlink:href="#DejaVuSans-48"/>
       <use x="190.869141" xlink:href="#DejaVuSans-48"/>
      </g>
     </g>
    </g>
    <g id="ytick_5">
     <g id="line2d_23">
      <path clip-path="url(#pe6221e863e)" d="M 57.6 162.634623 
L 414.72 162.634623 
" style="fill:none;stroke:#b0b0b0;stroke-linecap:square;stroke-width:0.8;"/>
     </g>
     <g id="line2d_24">
      <g>
       <use style="stroke:#000000;stroke-width:0.8;" x="57.6" xlink:href="#mf7392f8d47" y="162.634623"/>
      </g>
     </g>
     <g id="text_13">
      <!-- 1200 -->
      <g transform="translate(25.15 166.433841)scale(0.1 -0.1)">
       <use xlink:href="#DejaVuSans-49"/>
       <use x="63.623047" xlink:href="#DejaVuSans-50"/>
       <use x="127.246094" xlink:href="#DejaVuSans-48"/>
       <use x="190.869141" xlink:href="#DejaVuSans-48"/>
      </g>
     </g>
    </g>
    <g id="ytick_6">
     <g id="line2d_25">
      <path clip-path="url(#pe6221e863e)" d="M 57.6 132.368899 
L 414.72 132.368899 
" style="fill:none;stroke:#b0b0b0;stroke-linecap:square;stroke-width:0.8;"/>
     </g>
     <g id="line2d_26">
      <g>
       <use style="stroke:#000000;stroke-width:0.8;" x="57.6" xlink:href="#mf7392f8d47" y="132.368899"/>
      </g>
     </g>
     <g id="text_14">
      <!-- 1400 -->
      <g transform="translate(25.15 136.168118)scale(0.1 -0.1)">
       <use xlink:href="#DejaVuSans-49"/>
       <use x="63.623047" xlink:href="#DejaVuSans-52"/>
       <use x="127.246094" xlink:href="#DejaVuSans-48"/>
       <use x="190.869141" xlink:href="#DejaVuSans-48"/>
      </g>
     </g>
    </g>
    <g id="ytick_7">
     <g id="line2d_27">
      <path clip-path="url(#pe6221e863e)" d="M 57.6 102.103175 
L 414.72 102.103175 
" style="fill:none;stroke:#b0b0b0;stroke-linecap:square;stroke-width:0.8;"/>
     </g>
     <g id="line2d_28">
      <g>
       <use style="stroke:#000000;stroke-width:0.8;" x="57.6" xlink:href="#mf7392f8d47" y="102.103175"/>
      </g>
     </g>
     <g id="text_15">
      <!-- 1600 -->
      <g transform="translate(25.15 105.902394)scale(0.1 -0.1)">
       <use xlink:href="#DejaVuSans-49"/>
       <use x="63.623047" xlink:href="#DejaVuSans-54"/>
       <use x="127.246094" xlink:href="#DejaVuSans-48"/>
       <use x="190.869141" xlink:href="#DejaVuSans-48"/>
      </g>
     </g>
    </g>
    <g id="ytick_8">
     <g id="line2d_29">
      <path clip-path="url(#pe6221e863e)" d="M 57.6 71.837452 
L 414.72 71.837452 
" style="fill:none;stroke:#b0b0b0;stroke-linecap:square;stroke-width:0.8;"/>
     </g>
     <g id="line2d_30">
      <g>
       <use style="stroke:#000000;stroke-width:0.8;" x="57.6" xlink:href="#mf7392f8d47" y="71.837452"/>
      </g>
     </g>
     <g id="text_16">
      <!-- 1800 -->
      <g transform="translate(25.15 75.636671)scale(0.1 -0.1)">
       <use xlink:href="#DejaVuSans-49"/>
       <use x="63.623047" xlink:href="#DejaVuSans-56"/>
       <use x="127.246094" xlink:href="#DejaVuSans-48"/>
       <use x="190.869141" xlink:href="#DejaVuSans-48"/>
      </g>
     </g>
    </g>
    <g id="ytick_9">
     <g id="line2d_31">
      <path clip-path="url(#pe6221e863e)" d="M 57.6 41.571728 
L 414.72 41.571728 
" style="fill:none;stroke:#b0b0b0;stroke-linecap:square;stroke-width:0.8;"/>
     </g>
     <g id="line2d_32">
      <g>
       <use style="stroke:#000000;stroke-width:0.8;" x="57.6" xlink:href="#mf7392f8d47" y="41.571728"/>
      </g>
     </g>
     <g id="text_17">
      <!-- 2000 -->
      <g transform="translate(25.15 45.370947)scale(0.1 -0.1)">
       <use xlink:href="#DejaVuSans-50"/>
       <use x="63.623047" xlink:href="#DejaVuSans-48"/>
       <use x="127.246094" xlink:href="#DejaVuSans-48"/>
       <use x="190.869141" xlink:href="#DejaVuSans-48"/>
      </g>
     </g>
    </g>
    <g id="text_18">
     <!-- Fitness -->
     <defs>
      <path d="M 9.8125 72.90625 
L 51.703125 72.90625 
L 51.703125 64.59375 
L 19.671875 64.59375 
L 19.671875 43.109375 
L 48.578125 43.109375 
L 48.578125 34.8125 
L 19.671875 34.8125 
L 19.671875 0 
L 9.8125 0 
z
" id="DejaVuSans-70"/>
     </defs>
     <g transform="translate(19.070312 192.202219)rotate(-90)scale(0.1 -0.1)">
      <use xlink:href="#DejaVuSans-70"/>
      <use x="57.410156" xlink:href="#DejaVuSans-105"/>
      <use x="85.193359" xlink:href="#DejaVuSans-116"/>
      <use x="124.402344" xlink:href="#DejaVuSans-110"/>
      <use x="187.78125" xlink:href="#DejaVuSans-101"/>
      <use x="249.304688" xlink:href="#DejaVuSans-115"/>
      <use x="301.404297" xlink:href="#DejaVuSans-115"/>
     </g>
    </g>
   </g>
   <g id="line2d_33">
    <path clip-path="url(#pe6221e863e)" d="M 73.832727 291.982191 
L 74.918528 258.014641 
L 76.00433 258.867126 
L 77.090131 273.178521 
L 78.175932 265.191958 
L 79.261733 254.24051 
L 80.347534 263.291059 
L 81.433335 257.466423 
L 82.519137 259.316471 
L 83.604938 253.82974 
L 84.690739 245.095241 
L 85.77654 248.484956 
L 86.862341 225.869952 
L 87.948142 223.502746 
L 89.033943 225.311946 
L 90.119745 214.691732 
L 91.205546 213.641275 
L 92.291347 218.899464 
L 93.377148 194.007129 
L 94.462949 180.767266 
L 95.54875 208.313258 
L 96.634552 202.991419 
L 97.720353 218.860729 
L 98.806154 207.578234 
L 99.891955 186.340201 
L 100.977756 214.656641 
L 102.063557 174.491098 
L 103.149358 214.293642 
L 104.23516 216.58156 
L 105.320961 205.716684 
L 106.406762 214.901746 
L 107.492563 218.745405 
L 108.578364 198.077744 
L 109.664165 207.411042 
L 110.749967 203.779878 
L 111.835768 189.508823 
L 112.921569 187.139872 
L 114.00737 178.390107 
L 115.093171 186.825401 
L 116.178972 203.938813 
L 117.264773 191.277858 
L 118.350575 181.211612 
L 119.436376 175.181147 
L 120.522177 194.953378 
L 121.607978 188.490201 
L 122.693779 195.580963 
L 123.77958 194.171822 
L 124.865382 199.018202 
L 125.951183 181.599248 
L 127.036984 184.713827 
L 128.122785 184.96899 
L 129.208586 181.752612 
L 130.294387 169.382869 
L 131.380189 168.847523 
L 132.46599 174.997944 
L 133.551791 162.035681 
L 134.637592 160.138497 
L 135.723393 179.06895 
L 136.809194 166.382087 
L 137.894995 168.30609 
L 138.980797 157.324717 
L 140.066598 164.435717 
L 141.152399 163.784577 
L 143.324001 151.118636 
L 144.409802 148.734993 
L 145.495604 151.067817 
L 146.581405 155.836344 
L 147.667206 168.867274 
L 148.753007 163.493961 
L 149.838808 161.983081 
L 150.924609 161.552471 
L 152.01041 152.425082 
L 153.096212 141.511672 
L 154.182013 144.670395 
L 155.267814 148.91962 
L 156.353615 183.555853 
L 158.525217 154.110122 
L 159.611019 144.384904 
L 160.69682 146.782083 
L 161.782621 149.844166 
L 162.868422 179.458162 
L 163.954223 133.054721 
L 165.040024 142.892929 
L 166.125825 140.380645 
L 167.211627 142.037195 
L 168.297428 169.677148 
L 169.383229 168.245336 
L 170.46903 132.493921 
L 171.554831 153.84803 
L 172.640632 138.820636 
L 173.726434 194.019612 
L 174.812235 186.392472 
L 175.898036 150.389644 
L 176.983837 168.436962 
L 178.069638 152.884554 
L 179.155439 174.593391 
L 180.24124 144.14295 
L 181.327042 163.605584 
L 182.412843 163.219638 
L 183.498644 172.410768 
L 184.584445 174.175775 
L 185.670246 171.642644 
L 186.756047 180.499967 
L 187.841849 173.576206 
L 188.92765 184.31009 
L 190.013451 171.094619 
L 192.185053 160.457858 
L 193.270854 169.221563 
L 194.356656 148.577141 
L 195.442457 152.552043 
L 196.528258 166.976205 
L 197.614059 196.411286 
L 198.69986 180.910226 
L 199.785661 182.114577 
L 200.871462 155.541962 
L 201.957264 178.091816 
L 203.043065 179.691027 
L 204.128866 136.146723 
L 205.214667 164.301673 
L 206.300468 152.847385 
L 207.386269 175.437041 
L 208.472071 166.045742 
L 209.557872 180.647112 
L 210.643673 177.158394 
L 211.729474 153.407824 
L 212.815275 186.503554 
L 213.901076 184.870482 
L 214.986877 157.264207 
L 216.072679 163.316179 
L 217.15848 181.384138 
L 218.244281 152.960945 
L 219.330082 178.691414 
L 220.415883 183.894346 
L 221.501684 163.695655 
L 222.587486 172.385549 
L 223.673287 177.178759 
L 224.759088 155.656132 
L 225.844889 130.809438 
L 226.93069 159.772291 
L 228.016491 164.856375 
L 229.102292 166.592803 
L 230.188094 172.199898 
L 231.273895 191.969629 
L 232.359696 204.615021 
L 233.445497 177.236806 
L 234.531298 160.618171 
L 235.617099 187.167602 
L 236.702901 163.435358 
L 237.788702 195.177471 
L 238.874503 189.617554 
L 239.960304 169.341412 
L 241.046105 193.248595 
L 242.131906 194.052327 
L 243.217708 178.722591 
L 244.303509 179.34607 
L 245.38931 181.942557 
L 246.475111 197.362403 
L 247.560912 173.84812 
L 248.646713 185.308998 
L 249.732514 197.998842 
L 250.818316 193.428263 
L 251.904117 173.095033 
L 252.989918 172.064663 
L 254.075719 166.991686 
L 255.16152 180.472727 
L 256.247321 180.534534 
L 257.333123 193.314395 
L 258.418924 176.944207 
L 259.504725 178.418779 
L 260.590526 161.941608 
L 261.676327 197.204476 
L 262.762128 163.025098 
L 263.847929 170.574814 
L 264.933731 167.90282 
L 266.019532 180.780245 
L 267.105333 179.279513 
L 268.191134 174.011782 
L 269.276935 172.867313 
L 270.362736 178.729119 
L 271.448538 166.804703 
L 272.534339 165.83902 
L 273.62014 158.062133 
L 274.705941 164.065789 
L 275.791742 152.911121 
L 276.877543 174.048777 
L 277.963344 157.029466 
L 279.049146 163.165781 
L 280.134947 141.371614 
L 281.220748 134.884904 
L 282.306549 149.726884 
L 283.39235 179.397019 
L 284.478151 156.035978 
L 285.563953 159.19669 
L 286.649754 184.206993 
L 287.735555 142.754482 
L 288.821356 170.927054 
L 289.907157 153.734651 
L 290.992958 184.866311 
L 292.07876 166.393068 
L 293.164561 152.650528 
L 294.250362 165.957274 
L 295.336163 163.59285 
L 296.421964 154.504369 
L 297.507765 154.109237 
L 298.593566 179.954223 
L 299.679368 162.369662 
L 300.765169 161.842763 
L 301.85097 173.272302 
L 302.936771 168.019659 
L 304.022572 172.081209 
L 305.108373 167.863189 
L 306.194175 166.312086 
L 307.279976 163.28678 
L 308.365777 141.472788 
L 309.451578 146.76555 
L 310.537379 156.945417 
L 311.62318 174.243289 
L 312.708981 135.324628 
L 313.794783 156.120943 
L 314.880584 169.699559 
L 315.966385 158.669702 
L 317.052186 173.613223 
L 318.137987 154.119528 
L 319.223788 158.457944 
L 320.30959 150.532921 
L 321.395391 147.158275 
L 322.481192 154.234649 
L 323.566993 169.514736 
L 324.652794 166.143642 
L 325.738595 170.119687 
L 326.824396 147.581318 
L 327.910198 122.326691 
L 328.995999 170.847773 
L 330.0818 183.367243 
L 331.167601 146.377256 
L 332.253402 176.468027 
L 333.339203 147.058423 
L 334.425005 145.897795 
L 335.510806 177.542725 
L 336.596607 145.19499 
L 337.682408 151.417468 
L 338.768209 163.471171 
L 339.85401 150.369624 
L 340.939811 143.00763 
L 342.025613 172.458624 
L 343.111414 149.985604 
L 344.197215 151.820879 
L 345.283016 164.146625 
L 346.368817 163.104999 
L 347.454618 166.204566 
L 348.54042 132.045112 
L 349.626221 134.9317 
L 350.712022 177.759332 
L 351.797823 154.490138 
L 352.883624 150.591869 
L 353.969425 166.574318 
L 355.055227 160.401209 
L 356.141028 162.829254 
L 357.226829 186.434941 
L 358.31263 162.019685 
L 359.398431 170.738828 
L 360.484232 167.706733 
L 362.655835 186.613138 
L 363.741636 148.315013 
L 364.827437 133.699525 
L 365.913238 154.620588 
L 366.999039 153.499673 
L 368.08484 165.26282 
L 369.170642 161.683939 
L 370.256443 171.54661 
L 371.342244 156.943432 
L 372.428045 183.780374 
L 373.513846 175.960042 
L 374.599647 166.882726 
L 375.685448 163.635189 
L 376.77125 181.862609 
L 377.857051 169.453486 
L 378.942852 193.749364 
L 380.028653 162.308591 
L 381.114454 140.655348 
L 382.200255 160.334636 
L 383.286057 141.117589 
L 384.371858 160.275021 
L 385.457659 163.903582 
L 386.54346 160.574506 
L 387.629261 164.851599 
L 388.715062 196.027933 
L 389.800863 155.613117 
L 390.886665 157.288545 
L 391.972466 126.524947 
L 393.058267 149.326683 
L 395.229869 172.850412 
L 396.31567 178.277276 
L 397.401472 181.737237 
L 398.487273 170.382438 
L 398.487273 170.382438 
" style="fill:none;stroke:#0000ff;stroke-linecap:square;stroke-width:1.5;"/>
   </g>
   <g id="line2d_34">
    <path clip-path="url(#pe6221e863e)" d="M 73.832727 295.488 
L 74.918528 261.428993 
L 76.00433 261.587933 
L 77.090131 291.659209 
L 78.175932 273.91741 
L 79.261733 266.104165 
L 80.347534 283.172005 
L 81.433335 272.982872 
L 82.519137 274.288841 
L 83.604938 268.474972 
L 84.690739 268.534522 
L 85.77654 278.841744 
L 86.862341 248.381911 
L 87.948142 245.985792 
L 89.033943 247.560575 
L 90.119745 233.914421 
L 91.205546 239.914905 
L 92.291347 244.976598 
L 93.377148 227.394118 
L 94.462949 213.085836 
L 95.54875 243.892247 
L 96.634552 230.305168 
L 97.720353 243.643882 
L 98.806154 231.048964 
L 99.891955 212.755086 
L 100.977756 234.132209 
L 102.063557 205.385589 
L 103.149358 243.047508 
L 104.23516 244.407608 
L 105.320961 233.366497 
L 106.406762 238.756047 
L 107.492563 242.086628 
L 108.578364 234.230198 
L 109.664165 238.058223 
L 110.749967 228.029971 
L 111.835768 219.234957 
L 112.921569 220.357198 
L 114.00737 215.266292 
L 115.093171 215.864116 
L 116.178972 232.606995 
L 117.264773 225.099833 
L 118.350575 220.343127 
L 119.436376 205.464372 
L 120.522177 229.070227 
L 121.607978 215.716862 
L 122.693779 237.108316 
L 123.77958 225.473666 
L 124.865382 229.887804 
L 125.951183 219.00767 
L 127.036984 219.961398 
L 128.122785 217.63795 
L 129.208586 229.441199 
L 130.294387 211.565539 
L 132.46599 207.871501 
L 133.551791 199.882372 
L 134.637592 216.298225 
L 135.723393 227.970372 
L 136.809194 210.29456 
L 137.894995 220.493877 
L 138.980797 204.501647 
L 140.066598 205.301695 
L 141.152399 205.265352 
L 142.2382 203.991878 
L 143.324001 190.499693 
L 144.409802 205.900715 
L 145.495604 204.57759 
L 146.581405 205.474456 
L 147.667206 214.402858 
L 148.753007 200.560414 
L 149.838808 213.126557 
L 150.924609 208.313387 
L 152.01041 204.057567 
L 153.096212 192.9777 
L 154.182013 214.111782 
L 155.267814 196.65031 
L 156.353615 223.015724 
L 157.439416 214.185829 
L 158.525217 209.292714 
L 159.611019 205.019014 
L 161.782621 187.347642 
L 162.868422 228.671659 
L 163.954223 186.809775 
L 165.040024 191.499886 
L 166.125825 205.276565 
L 167.211627 213.201962 
L 168.297428 212.422865 
L 169.383229 229.621027 
L 170.46903 185.350444 
L 171.554831 206.272653 
L 172.640632 188.32148 
L 173.726434 236.875008 
L 174.812235 232.314526 
L 175.898036 197.341064 
L 176.983837 206.752831 
L 178.069638 208.930343 
L 179.155439 219.588009 
L 180.24124 201.330359 
L 181.327042 202.809217 
L 182.412843 202.252293 
L 184.584445 214.037258 
L 185.670246 221.381336 
L 186.756047 224.449518 
L 187.841849 219.572638 
L 188.92765 222.065037 
L 190.013451 225.762474 
L 191.099252 207.107592 
L 192.185053 213.604996 
L 193.270854 222.512528 
L 194.356656 203.266767 
L 195.442457 203.423815 
L 196.528258 205.724655 
L 197.614059 232.805222 
L 198.69986 221.972174 
L 199.785661 226.323092 
L 200.871462 214.675834 
L 201.957264 220.364401 
L 203.043065 216.88879 
L 204.128866 182.942984 
L 205.214667 211.908091 
L 206.300468 195.783951 
L 207.386269 209.4444 
L 208.472071 200.188387 
L 209.557872 222.805446 
L 210.643673 217.49863 
L 211.729474 202.675002 
L 212.815275 218.014606 
L 213.901076 222.715676 
L 214.986877 197.781634 
L 216.072679 204.213538 
L 217.15848 219.860075 
L 218.244281 203.565364 
L 220.415883 222.842577 
L 221.501684 204.892775 
L 222.587486 212.461396 
L 223.673287 211.621984 
L 224.759088 199.46189 
L 225.844889 179.349797 
L 226.93069 206.46521 
L 228.016491 210.07283 
L 229.102292 211.119255 
L 230.188094 220.008076 
L 231.273895 238.948784 
L 232.359696 248.243535 
L 233.445497 231.895002 
L 234.531298 205.179542 
L 235.617099 224.030986 
L 236.702901 212.414809 
L 237.788702 232.836831 
L 238.874503 222.231366 
L 239.960304 215.724453 
L 241.046105 228.253418 
L 242.131906 226.425973 
L 243.217708 210.279674 
L 244.303509 220.146149 
L 245.38931 220.771338 
L 246.475111 234.161744 
L 247.560912 217.086798 
L 248.646713 221.796436 
L 249.732514 241.267802 
L 250.818316 239.292944 
L 251.904117 216.906079 
L 252.989918 202.537045 
L 254.075719 207.590043 
L 255.16152 220.505132 
L 256.247321 226.631881 
L 257.333123 229.754932 
L 258.418924 215.793174 
L 259.504725 216.24844 
L 260.590526 203.197617 
L 261.676327 226.635847 
L 262.762128 198.75586 
L 263.847929 222.236886 
L 264.933731 208.330637 
L 266.019532 218.425977 
L 267.105333 207.375529 
L 268.191134 220.974302 
L 269.276935 211.725203 
L 270.362736 210.153325 
L 271.448538 216.023314 
L 272.534339 207.223836 
L 273.62014 208.111691 
L 274.705941 215.07761 
L 275.791742 187.972428 
L 276.877543 217.536264 
L 277.963344 197.88434 
L 279.049146 200.495237 
L 280.134947 190.120066 
L 281.220748 187.60169 
L 282.306549 197.154188 
L 283.39235 225.262607 
L 284.478151 207.542435 
L 285.563953 218.069207 
L 286.649754 235.43431 
L 287.735555 196.397373 
L 288.821356 222.032213 
L 289.907157 198.144265 
L 290.992958 230.468587 
L 292.07876 210.257281 
L 293.164561 206.60938 
L 294.250362 216.187882 
L 295.336163 224.217136 
L 296.421964 215.279852 
L 297.507765 212.620033 
L 298.593566 224.610243 
L 299.679368 216.233691 
L 300.765169 215.400271 
L 301.85097 224.527994 
L 302.936771 228.105812 
L 304.022572 216.961936 
L 305.108373 215.18706 
L 306.194175 214.968366 
L 307.279976 206.44594 
L 308.365777 195.09394 
L 309.451578 207.845646 
L 310.537379 207.799729 
L 311.62318 222.632043 
L 312.708981 183.010445 
L 313.794783 202.686949 
L 314.880584 213.286202 
L 315.966385 212.213561 
L 317.052186 215.555393 
L 318.137987 209.598008 
L 319.223788 218.983675 
L 320.30959 209.438615 
L 321.395391 193.999084 
L 322.481192 200.168163 
L 323.566993 216.4878 
L 324.652794 229.985204 
L 325.738595 211.132981 
L 326.824396 202.241999 
L 327.910198 186.133462 
L 328.995999 226.448072 
L 330.0818 239.015748 
L 331.167601 213.322621 
L 332.253402 224.182151 
L 333.339203 202.712805 
L 334.425005 195.046332 
L 335.510806 232.587872 
L 336.596607 205.224778 
L 337.682408 208.492209 
L 338.768209 215.292055 
L 339.85401 202.47294 
L 340.939811 199.813203 
L 342.025613 215.231744 
L 343.111414 206.681037 
L 344.197215 206.821127 
L 345.283016 212.930648 
L 346.368817 214.525153 
L 347.454618 212.950541 
L 348.54042 183.805635 
L 349.626221 176.448823 
L 350.712022 227.630792 
L 351.797823 203.974581 
L 352.883624 204.838458 
L 353.969425 211.067707 
L 355.055227 215.634817 
L 356.141028 216.194241 
L 357.226829 237.019966 
L 358.31263 212.912214 
L 359.398431 222.764561 
L 360.484232 210.783715 
L 361.570033 229.334241 
L 362.655835 225.102303 
L 363.741636 205.926386 
L 364.827437 198.592723 
L 365.913238 209.569774 
L 366.999039 214.433733 
L 368.08484 215.554934 
L 369.170642 217.04318 
L 370.256443 222.290455 
L 371.342244 215.150896 
L 372.428045 230.086285 
L 373.513846 219.764717 
L 374.599647 220.423281 
L 375.685448 216.775688 
L 376.77125 228.667614 
L 377.857051 221.749522 
L 378.942852 236.033323 
L 380.028653 221.911572 
L 381.114454 189.978557 
L 382.200255 215.64901 
L 383.286057 190.803739 
L 384.371858 205.291575 
L 385.457659 225.926865 
L 386.54346 207.981015 
L 387.629261 209.988947 
L 388.715062 243.604845 
L 389.800863 215.959387 
L 390.886665 212.845981 
L 391.972466 180.516253 
L 393.058267 206.209879 
L 394.144068 218.369716 
L 395.229869 225.021245 
L 396.31567 243.741299 
L 397.401472 228.757289 
L 398.487273 226.987423 
L 398.487273 226.987423 
" style="fill:none;stroke:#008000;stroke-dasharray:9.6,2.4,1.5,2.4;stroke-dashoffset:0;stroke-width:1.5;"/>
   </g>
   <g id="line2d_35">
    <path clip-path="url(#pe6221e863e)" d="M 73.832727 288.476382 
L 74.918528 254.60029 
L 76.00433 256.146319 
L 77.090131 254.697834 
L 78.175932 256.466507 
L 79.261733 242.376855 
L 80.347534 243.410113 
L 81.433335 241.949973 
L 82.519137 244.344101 
L 83.604938 239.184508 
L 84.690739 221.655959 
L 85.77654 218.128167 
L 86.862341 203.357992 
L 87.948142 201.0197 
L 89.033943 203.063318 
L 91.205546 187.367645 
L 92.291347 192.822331 
L 93.377148 160.62014 
L 94.462949 148.448696 
L 95.54875 172.734269 
L 96.634552 175.67767 
L 97.720353 194.077576 
L 98.806154 184.107504 
L 99.891955 159.925317 
L 100.977756 195.181073 
L 102.063557 143.596607 
L 103.149358 185.539776 
L 104.23516 188.755512 
L 105.320961 178.066872 
L 106.406762 191.047446 
L 107.492563 195.404181 
L 108.578364 161.92529 
L 109.664165 176.763862 
L 110.749967 179.529785 
L 111.835768 159.782688 
L 112.921569 153.922546 
L 114.00737 141.513922 
L 116.178972 175.27063 
L 117.264773 157.455883 
L 118.350575 142.080098 
L 119.436376 144.897922 
L 120.522177 160.836528 
L 121.607978 161.26354 
L 122.693779 154.053611 
L 123.77958 162.869977 
L 124.865382 168.1486 
L 125.951183 144.190827 
L 127.036984 149.466257 
L 128.122785 152.300031 
L 129.208586 134.064025 
L 130.294387 127.200198 
L 131.380189 128.019325 
L 132.46599 142.124388 
L 133.551791 124.18899 
L 134.637592 103.978769 
L 135.723393 130.167528 
L 136.809194 122.469613 
L 138.980797 110.147786 
L 140.066598 123.569739 
L 141.152399 122.303802 
L 142.2382 110.876507 
L 143.324001 111.73758 
L 144.409802 91.569271 
L 145.495604 97.558045 
L 146.581405 106.198232 
L 147.667206 123.33169 
L 148.753007 126.427508 
L 149.838808 110.839606 
L 150.924609 114.791555 
L 152.01041 100.792597 
L 153.096212 90.045643 
L 154.182013 75.229007 
L 155.267814 101.188931 
L 156.353615 144.095982 
L 157.439416 123.01702 
L 158.525217 98.92753 
L 159.611019 83.750794 
L 161.782621 112.34069 
L 162.868422 130.244665 
L 163.954223 79.299667 
L 165.040024 94.285972 
L 166.125825 75.484726 
L 167.211627 70.872428 
L 168.297428 126.931431 
L 169.383229 106.869646 
L 170.46903 79.637398 
L 171.554831 101.423407 
L 172.640632 89.319792 
L 173.726434 151.164216 
L 174.812235 140.470417 
L 175.898036 103.438225 
L 176.983837 130.121093 
L 178.069638 96.838764 
L 179.155439 129.598773 
L 180.24124 86.955542 
L 181.327042 124.401951 
L 182.412843 124.186984 
L 183.498644 136.586865 
L 184.584445 134.314292 
L 185.670246 121.903953 
L 186.756047 136.550417 
L 187.841849 127.579774 
L 188.92765 146.555143 
L 190.013451 116.426765 
L 191.099252 124.912742 
L 192.185053 107.31072 
L 193.270854 115.930599 
L 194.356656 93.887516 
L 195.442457 101.68027 
L 196.528258 128.227754 
L 197.614059 160.017351 
L 198.69986 139.848278 
L 199.785661 137.906062 
L 200.871462 96.40809 
L 201.957264 135.819231 
L 203.043065 142.493264 
L 204.128866 89.350461 
L 205.214667 116.695255 
L 206.300468 109.910818 
L 207.386269 141.429682 
L 208.472071 131.903097 
L 209.557872 138.488777 
L 210.643673 136.818158 
L 211.729474 104.140646 
L 212.815275 154.992501 
L 213.901076 147.025288 
L 214.986877 116.746779 
L 216.072679 122.41882 
L 217.15848 142.908201 
L 218.244281 102.356526 
L 219.330082 144.132555 
L 220.415883 144.946116 
L 221.501684 122.498535 
L 223.673287 142.735534 
L 225.844889 82.269079 
L 226.93069 113.079372 
L 228.016491 119.63992 
L 230.188094 124.391719 
L 231.273895 144.990475 
L 232.359696 160.986506 
L 233.445497 122.57861 
L 234.531298 116.0568 
L 235.617099 150.304218 
L 236.702901 114.455907 
L 237.788702 157.518111 
L 238.874503 157.003742 
L 239.960304 122.95837 
L 241.046105 158.243771 
L 242.131906 161.67868 
L 243.217708 147.165509 
L 244.303509 138.545991 
L 245.38931 143.113777 
L 246.475111 160.563063 
L 247.560912 130.609442 
L 248.646713 148.821561 
L 249.732514 154.729883 
L 250.818316 147.563582 
L 251.904117 129.283987 
L 252.989918 141.59228 
L 254.075719 126.39333 
L 255.16152 140.440323 
L 256.247321 134.437187 
L 257.333123 156.873858 
L 258.418924 138.095239 
L 259.504725 140.589118 
L 260.590526 120.685598 
L 261.676327 167.773105 
L 262.762128 127.294335 
L 263.847929 118.912741 
L 264.933731 127.475004 
L 266.019532 143.134513 
L 267.105333 151.183497 
L 268.191134 127.049262 
L 269.276935 134.009422 
L 270.362736 147.304913 
L 271.448538 117.586091 
L 272.534339 124.454204 
L 273.62014 108.012574 
L 275.791742 117.849814 
L 276.877543 130.56129 
L 277.963344 116.174593 
L 279.049146 125.836325 
L 280.134947 92.623163 
L 281.220748 82.168117 
L 282.306549 102.29958 
L 283.39235 133.531431 
L 284.478151 104.529521 
L 285.563953 100.324173 
L 286.649754 132.979676 
L 287.735555 89.111591 
L 288.821356 119.821895 
L 289.907157 109.325037 
L 290.992958 139.264034 
L 292.07876 122.528855 
L 293.164561 98.691677 
L 294.250362 115.726666 
L 295.336163 102.968565 
L 296.421964 93.728886 
L 297.507765 95.598441 
L 298.593566 135.298202 
L 299.679368 108.505633 
L 300.765169 108.285256 
L 301.85097 122.01661 
L 302.936771 107.933506 
L 304.022572 127.200483 
L 305.108373 120.539318 
L 306.194175 117.655805 
L 307.279976 120.127621 
L 308.365777 87.851636 
L 309.451578 85.685454 
L 311.62318 125.854536 
L 312.708981 87.638812 
L 313.794783 109.554937 
L 314.880584 126.112915 
L 315.966385 105.125843 
L 317.052186 131.671052 
L 318.137987 98.641047 
L 319.223788 97.932214 
L 320.30959 91.627226 
L 322.481192 108.301135 
L 323.566993 122.541673 
L 324.652794 102.302081 
L 325.738595 129.106393 
L 327.910198 58.51992 
L 328.995999 115.247474 
L 330.0818 127.718738 
L 331.167601 79.431892 
L 332.253402 128.753903 
L 333.339203 91.40404 
L 334.425005 96.749259 
L 335.510806 122.497578 
L 336.596607 85.165201 
L 337.682408 94.342726 
L 338.768209 111.650286 
L 340.939811 86.202058 
L 342.025613 129.685505 
L 343.111414 93.29017 
L 344.197215 96.82063 
L 345.283016 115.362603 
L 346.368817 111.684845 
L 347.454618 119.458592 
L 348.54042 80.284588 
L 349.626221 93.414576 
L 350.712022 127.887872 
L 351.797823 105.005695 
L 352.883624 96.345279 
L 353.969425 122.080929 
L 355.055227 105.167601 
L 356.141028 109.464267 
L 357.226829 135.849917 
L 358.31263 111.127155 
L 359.398431 118.713095 
L 360.484232 124.629752 
L 361.570033 124.306145 
L 362.655835 148.123973 
L 363.741636 90.70364 
L 364.827437 68.806327 
L 365.913238 99.671402 
L 366.999039 92.565613 
L 368.08484 114.970706 
L 369.170642 106.324698 
L 370.256443 120.802764 
L 371.342244 98.735969 
L 372.428045 137.474462 
L 373.513846 132.155367 
L 374.599647 113.342171 
L 375.685448 110.49469 
L 376.77125 135.057603 
L 377.857051 117.15745 
L 378.942852 151.465405 
L 380.028653 102.70561 
L 381.114454 91.332139 
L 382.200255 105.020262 
L 383.286057 91.43144 
L 384.371858 115.258466 
L 385.457659 101.8803 
L 386.54346 113.167998 
L 387.629261 119.714252 
L 388.715062 148.451022 
L 389.800863 95.266846 
L 390.886665 101.731109 
L 391.972466 72.533641 
L 393.058267 92.443486 
L 394.144068 104.15493 
L 395.229869 120.679579 
L 396.31567 112.813253 
L 397.401472 134.717186 
L 398.487273 113.777452 
L 398.487273 113.777452 
" style="fill:none;stroke:#008000;stroke-dasharray:9.6,2.4,1.5,2.4;stroke-dashoffset:0;stroke-width:1.5;"/>
   </g>
   <g id="line2d_36">
    <path clip-path="url(#pe6221e863e)" d="M 73.832727 284.445829 
L 74.918528 252.589986 
L 76.00433 253.99948 
L 77.090131 256.783408 
L 78.175932 258.256684 
L 79.261733 245.437851 
L 80.347534 250.066581 
L 82.519137 241.270408 
L 83.604938 239.140923 
L 84.690739 220.386815 
L 85.77654 215.289122 
L 86.862341 190.732656 
L 87.948142 190.432218 
L 89.033943 199.79078 
L 90.119745 190.817537 
L 91.205546 184.423756 
L 92.291347 188.568587 
L 93.377148 155.409358 
L 94.462949 151.509768 
L 95.54875 172.8263 
L 96.634552 174.748475 
L 97.720353 189.056914 
L 98.806154 178.921226 
L 99.891955 158.459361 
L 100.977756 193.023335 
L 102.063557 150.49035 
L 103.149358 187.724686 
L 104.23516 187.271603 
L 105.320961 176.829071 
L 106.406762 191.467093 
L 107.492563 198.853532 
L 108.578364 166.834312 
L 109.664165 181.530292 
L 110.749967 182.305622 
L 111.835768 157.880107 
L 112.921569 155.136723 
L 114.00737 143.045513 
L 115.093171 167.175282 
L 116.178972 179.131137 
L 118.350575 149.897507 
L 119.436376 146.9408 
L 120.522177 167.501737 
L 121.607978 158.526973 
L 122.693779 156.612425 
L 123.77958 157.912922 
L 124.865382 162.631521 
L 125.951183 139.849891 
L 127.036984 141.650683 
L 128.122785 146.327593 
L 129.208586 134.744558 
L 130.294387 120.266506 
L 131.380189 126.986228 
L 132.46599 128.99158 
L 133.551791 113.488855 
L 134.637592 96.122808 
L 135.723393 125.340416 
L 136.809194 117.769396 
L 137.894995 99.963078 
L 138.980797 100.099935 
L 140.066598 106.40908 
L 141.152399 116.703266 
L 142.2382 103.304186 
L 143.324001 101.23108 
L 144.409802 85.802684 
L 145.495604 90.610101 
L 146.581405 88.516782 
L 147.667206 107.950697 
L 148.753007 121.103078 
L 149.838808 89.184196 
L 150.924609 108.284473 
L 152.01041 96.524871 
L 154.182013 80.51171 
L 155.267814 101.15146 
L 156.353615 142.067824 
L 157.439416 124.263724 
L 158.525217 95.930563 
L 159.611019 90.816737 
L 160.69682 104.446671 
L 161.782621 115.542202 
L 162.868422 116.647726 
L 163.954223 78.617529 
L 165.040024 86.763214 
L 166.125825 83.073433 
L 167.211627 77.158613 
L 168.297428 118.204343 
L 169.383229 116.753726 
L 170.46903 96.976965 
L 171.554831 104.04099 
L 172.640632 96.602516 
L 173.726434 139.939411 
L 174.812235 131.773603 
L 175.898036 95.404486 
L 176.983837 123.275273 
L 178.069638 99.359146 
L 179.155439 130.3162 
L 180.24124 85.494079 
L 181.327042 121.583576 
L 183.498644 138.522537 
L 184.584445 128.709161 
L 185.670246 114.378289 
L 186.756047 125.16605 
L 187.841849 121.781072 
L 188.92765 147.970789 
L 190.013451 115.112966 
L 191.099252 123.786159 
L 192.185053 108.132192 
L 193.270854 104.543194 
L 194.356656 101.821028 
L 195.442457 100.4598 
L 197.614059 155.176268 
L 198.69986 128.294257 
L 199.785661 129.988109 
L 200.871462 101.459132 
L 201.957264 135.092501 
L 203.043065 137.222693 
L 204.128866 93.204302 
L 205.214667 122.013421 
L 206.300468 103.120218 
L 207.386269 137.641182 
L 208.472071 130.893266 
L 209.557872 137.986162 
L 210.643673 124.30605 
L 211.729474 100.740123 
L 212.815275 148.959681 
L 213.901076 139.172569 
L 214.986877 115.462472 
L 216.072679 118.474788 
L 217.15848 143.631992 
L 218.244281 88.322889 
L 219.330082 135.971378 
L 220.415883 138.041196 
L 221.501684 122.260209 
L 222.587486 127.367524 
L 223.673287 137.764824 
L 225.844889 79.545684 
L 226.93069 118.762475 
L 228.016491 116.062419 
L 229.102292 123.872884 
L 230.188094 120.697765 
L 231.273895 139.877749 
L 232.359696 152.49808 
L 233.445497 123.123919 
L 234.531298 111.652111 
L 235.617099 141.539806 
L 236.702901 119.999878 
L 237.788702 153.706937 
L 238.874503 145.4441 
L 239.960304 125.376145 
L 241.046105 157.470195 
L 242.131906 164.761709 
L 243.217708 152.758338 
L 244.303509 137.248489 
L 245.38931 136.735601 
L 246.475111 164.906981 
L 247.560912 132.758213 
L 248.646713 152.682453 
L 249.732514 155.816468 
L 250.818316 149.038695 
L 251.904117 129.886592 
L 252.989918 145.343139 
L 254.075719 124.261957 
L 255.16152 140.294269 
L 256.247321 133.97644 
L 257.333123 158.455308 
L 258.418924 135.325211 
L 259.504725 138.385838 
L 260.590526 125.670768 
L 261.676327 171.591384 
L 262.762128 126.845178 
L 263.847929 113.093841 
L 264.933731 120.710569 
L 266.019532 145.563528 
L 267.105333 148.81646 
L 268.191134 118.641282 
L 269.276935 124.133643 
L 270.362736 148.887188 
L 271.448538 121.376422 
L 272.534339 129.970261 
L 273.62014 104.898424 
L 274.705941 113.501698 
L 275.791742 126.641301 
L 276.877543 134.350086 
L 277.963344 127.747422 
L 279.049146 129.691361 
L 280.134947 99.760773 
L 281.220748 82.775267 
L 282.306549 102.485613 
L 283.39235 138.859282 
L 284.478151 118.992889 
L 285.563953 102.407795 
L 286.649754 130.6635 
L 287.735555 95.448127 
L 288.821356 113.887871 
L 289.907157 120.242085 
L 290.992958 137.803473 
L 292.07876 126.620137 
L 293.164561 100.349661 
L 294.250362 110.785666 
L 295.336163 92.670125 
L 296.421964 89.67861 
L 297.507765 92.391846 
L 298.593566 128.07484 
L 299.679368 105.766849 
L 300.765169 104.612834 
L 301.85097 123.394753 
L 302.936771 100.99928 
L 304.022572 119.236862 
L 305.108373 117.001239 
L 306.194175 119.638105 
L 307.279976 112.72491 
L 308.365777 82.966517 
L 309.451578 85.351499 
L 310.537379 97.522082 
L 311.62318 126.71021 
L 312.708981 73.741106 
L 313.794783 106.178745 
L 314.880584 105.724354 
L 315.966385 96.871306 
L 317.052186 123.237613 
L 318.137987 89.932446 
L 319.223788 90.024056 
L 320.30959 82.663143 
L 321.395391 93.350977 
L 322.481192 101.671422 
L 323.566993 99.624633 
L 324.652794 92.219708 
L 325.738595 123.756822 
L 326.824396 86.707273 
L 327.910198 53.568 
L 328.995999 108.196997 
L 330.0818 112.920908 
L 331.167601 74.333855 
L 332.253402 122.556042 
L 333.339203 91.852649 
L 334.425005 88.974609 
L 335.510806 114.127179 
L 336.596607 85.899475 
L 337.682408 87.078844 
L 338.768209 101.995714 
L 339.85401 97.248514 
L 340.939811 87.430064 
L 342.025613 121.284624 
L 343.111414 86.591573 
L 344.197215 87.317754 
L 345.283016 112.58914 
L 346.368817 99.727211 
L 347.454618 112.763661 
L 348.54042 76.930264 
L 349.626221 103.609395 
L 350.712022 114.793015 
L 351.797823 104.18208 
L 352.883624 71.482358 
L 353.969425 106.181427 
L 355.055227 84.787994 
L 356.141028 95.300974 
L 357.226829 120.191423 
L 358.31263 102.045989 
L 359.398431 102.920488 
L 360.484232 125.953207 
L 361.570033 107.41956 
L 362.655835 141.851659 
L 363.741636 84.283996 
L 364.827437 67.402868 
L 365.913238 102.412497 
L 366.999039 83.726135 
L 368.08484 108.665087 
L 369.170642 96.904075 
L 370.256443 104.487942 
L 371.342244 86.685057 
L 372.428045 126.023423 
L 373.513846 117.965476 
L 374.599647 101.95152 
L 375.685448 105.901761 
L 376.77125 129.080947 
L 377.857051 104.407931 
L 378.942852 146.624348 
L 380.028653 87.495183 
L 381.114454 91.732198 
L 382.200255 107.204151 
L 383.286057 97.505446 
L 384.371858 110.46907 
L 385.457659 104.670417 
L 386.54346 109.813272 
L 387.629261 110.461315 
L 388.715062 137.528704 
L 389.800863 98.62346 
L 390.886665 98.190649 
L 391.972466 60.238638 
L 393.058267 85.506207 
L 394.144068 70.128384 
L 395.229869 104.729916 
L 396.31567 90.53316 
L 397.401472 115.509904 
L 398.487273 89.738879 
L 398.487273 89.738879 
" style="fill:none;stroke:#ff0000;stroke-linecap:square;stroke-width:1.5;"/>
   </g>
   <g id="patch_3">
    <path d="M 57.6 307.584 
L 57.6 41.472 
" style="fill:none;stroke:#000000;stroke-linecap:square;stroke-linejoin:miter;stroke-width:0.8;"/>
   </g>
   <g id="patch_4">
    <path d="M 414.72 307.584 
L 414.72 41.472 
" style="fill:none;stroke:#000000;stroke-linecap:square;stroke-linejoin:miter;stroke-width:0.8;"/>
   </g>
   <g id="patch_5">
    <path d="M 57.6 307.584 
L 414.72 307.584 
" style="fill:none;stroke:#000000;stroke-linecap:square;stroke-linejoin:miter;stroke-width:0.8;"/>
   </g>
   <g id="patch_6">
    <path d="M 57.6 41.472 
L 414.72 41.472 
" style="fill:none;stroke:#000000;stroke-linecap:square;stroke-linejoin:miter;stroke-width:0.8;"/>
   </g>
   <g id="text_19">
    <!-- Population's average and best fitness -->
    <defs>
     <path d="M 19.671875 64.796875 
L 19.671875 37.40625 
L 32.078125 37.40625 
Q 38.96875 37.40625 42.71875 40.96875 
Q 46.484375 44.53125 46.484375 51.125 
Q 46.484375 57.671875 42.71875 61.234375 
Q 38.96875 64.796875 32.078125 64.796875 
z
M 9.8125 72.90625 
L 32.078125 72.90625 
Q 44.34375 72.90625 50.609375 67.359375 
Q 56.890625 61.8125 56.890625 51.125 
Q 56.890625 40.328125 50.609375 34.8125 
Q 44.34375 29.296875 32.078125 29.296875 
L 19.671875 29.296875 
L 19.671875 0 
L 9.8125 0 
z
" id="DejaVuSans-80"/>
     <path d="M 18.109375 8.203125 
L 18.109375 -20.796875 
L 9.078125 -20.796875 
L 9.078125 54.6875 
L 18.109375 54.6875 
L 18.109375 46.390625 
Q 20.953125 51.265625 25.265625 53.625 
Q 29.59375 56 35.59375 56 
Q 45.5625 56 51.78125 48.09375 
Q 58.015625 40.1875 58.015625 27.296875 
Q 58.015625 14.40625 51.78125 6.484375 
Q 45.5625 -1.421875 35.59375 -1.421875 
Q 29.59375 -1.421875 25.265625 0.953125 
Q 20.953125 3.328125 18.109375 8.203125 
z
M 48.6875 27.296875 
Q 48.6875 37.203125 44.609375 42.84375 
Q 40.53125 48.484375 33.40625 48.484375 
Q 26.265625 48.484375 22.1875 42.84375 
Q 18.109375 37.203125 18.109375 27.296875 
Q 18.109375 17.390625 22.1875 11.75 
Q 26.265625 6.109375 33.40625 6.109375 
Q 40.53125 6.109375 44.609375 11.75 
Q 48.6875 17.390625 48.6875 27.296875 
z
" id="DejaVuSans-112"/>
     <path d="M 8.5 21.578125 
L 8.5 54.6875 
L 17.484375 54.6875 
L 17.484375 21.921875 
Q 17.484375 14.15625 20.5 10.265625 
Q 23.53125 6.390625 29.59375 6.390625 
Q 36.859375 6.390625 41.078125 11.03125 
Q 45.3125 15.671875 45.3125 23.6875 
L 45.3125 54.6875 
L 54.296875 54.6875 
L 54.296875 0 
L 45.3125 0 
L 45.3125 8.40625 
Q 42.046875 3.421875 37.71875 1 
Q 33.40625 -1.421875 27.6875 -1.421875 
Q 18.265625 -1.421875 13.375 4.4375 
Q 8.5 10.296875 8.5 21.578125 
z
M 31.109375 56 
z
" id="DejaVuSans-117"/>
     <path d="M 9.421875 75.984375 
L 18.40625 75.984375 
L 18.40625 0 
L 9.421875 0 
z
" id="DejaVuSans-108"/>
     <path d="M 17.921875 72.90625 
L 17.921875 45.796875 
L 9.625 45.796875 
L 9.625 72.90625 
z
" id="DejaVuSans-39"/>
     <path id="DejaVuSans-32"/>
     <path d="M 2.984375 54.6875 
L 12.5 54.6875 
L 29.59375 8.796875 
L 46.6875 54.6875 
L 56.203125 54.6875 
L 35.6875 0 
L 23.484375 0 
z
" id="DejaVuSans-118"/>
     <path d="M 45.40625 27.984375 
Q 45.40625 37.75 41.375 43.109375 
Q 37.359375 48.484375 30.078125 48.484375 
Q 22.859375 48.484375 18.828125 43.109375 
Q 14.796875 37.75 14.796875 27.984375 
Q 14.796875 18.265625 18.828125 12.890625 
Q 22.859375 7.515625 30.078125 7.515625 
Q 37.359375 7.515625 41.375 12.890625 
Q 45.40625 18.265625 45.40625 27.984375 
z
M 54.390625 6.78125 
Q 54.390625 -7.171875 48.1875 -13.984375 
Q 42 -20.796875 29.203125 -20.796875 
Q 24.46875 -20.796875 20.265625 -20.09375 
Q 16.0625 -19.390625 12.109375 -17.921875 
L 12.109375 -9.1875 
Q 16.0625 -11.328125 19.921875 -12.34375 
Q 23.78125 -13.375 27.78125 -13.375 
Q 36.625 -13.375 41.015625 -8.765625 
Q 45.40625 -4.15625 45.40625 5.171875 
L 45.40625 9.625 
Q 42.625 4.78125 38.28125 2.390625 
Q 33.9375 0 27.875 0 
Q 17.828125 0 11.671875 7.65625 
Q 5.515625 15.328125 5.515625 27.984375 
Q 5.515625 40.671875 11.671875 48.328125 
Q 17.828125 56 27.875 56 
Q 33.9375 56 38.28125 53.609375 
Q 42.625 51.21875 45.40625 46.390625 
L 45.40625 54.6875 
L 54.390625 54.6875 
z
" id="DejaVuSans-103"/>
     <path d="M 45.40625 46.390625 
L 45.40625 75.984375 
L 54.390625 75.984375 
L 54.390625 0 
L 45.40625 0 
L 45.40625 8.203125 
Q 42.578125 3.328125 38.25 0.953125 
Q 33.9375 -1.421875 27.875 -1.421875 
Q 17.96875 -1.421875 11.734375 6.484375 
Q 5.515625 14.40625 5.515625 27.296875 
Q 5.515625 40.1875 11.734375 48.09375 
Q 17.96875 56 27.875 56 
Q 33.9375 56 38.25 53.625 
Q 42.578125 51.265625 45.40625 46.390625 
z
M 14.796875 27.296875 
Q 14.796875 17.390625 18.875 11.75 
Q 22.953125 6.109375 30.078125 6.109375 
Q 37.203125 6.109375 41.296875 11.75 
Q 45.40625 17.390625 45.40625 27.296875 
Q 45.40625 37.203125 41.296875 42.84375 
Q 37.203125 48.484375 30.078125 48.484375 
Q 22.953125 48.484375 18.875 42.84375 
Q 14.796875 37.203125 14.796875 27.296875 
z
" id="DejaVuSans-100"/>
     <path d="M 48.6875 27.296875 
Q 48.6875 37.203125 44.609375 42.84375 
Q 40.53125 48.484375 33.40625 48.484375 
Q 26.265625 48.484375 22.1875 42.84375 
Q 18.109375 37.203125 18.109375 27.296875 
Q 18.109375 17.390625 22.1875 11.75 
Q 26.265625 6.109375 33.40625 6.109375 
Q 40.53125 6.109375 44.609375 11.75 
Q 48.6875 17.390625 48.6875 27.296875 
z
M 18.109375 46.390625 
Q 20.953125 51.265625 25.265625 53.625 
Q 29.59375 56 35.59375 56 
Q 45.5625 56 51.78125 48.09375 
Q 58.015625 40.1875 58.015625 27.296875 
Q 58.015625 14.40625 51.78125 6.484375 
Q 45.5625 -1.421875 35.59375 -1.421875 
Q 29.59375 -1.421875 25.265625 0.953125 
Q 20.953125 3.328125 18.109375 8.203125 
L 18.109375 0 
L 9.078125 0 
L 9.078125 75.984375 
L 18.109375 75.984375 
z
" id="DejaVuSans-98"/>
     <path d="M 37.109375 75.984375 
L 37.109375 68.5 
L 28.515625 68.5 
Q 23.6875 68.5 21.796875 66.546875 
Q 19.921875 64.59375 19.921875 59.515625 
L 19.921875 54.6875 
L 34.71875 54.6875 
L 34.71875 47.703125 
L 19.921875 47.703125 
L 19.921875 0 
L 10.890625 0 
L 10.890625 47.703125 
L 2.296875 47.703125 
L 2.296875 54.6875 
L 10.890625 54.6875 
L 10.890625 58.5 
Q 10.890625 67.625 15.140625 71.796875 
Q 19.390625 75.984375 28.609375 75.984375 
z
" id="DejaVuSans-102"/>
    </defs>
    <g transform="translate(123.315 35.472)scale(0.12 -0.12)">
     <use xlink:href="#DejaVuSans-80"/>
     <use x="60.255859" xlink:href="#DejaVuSans-111"/>
     <use x="121.4375" xlink:href="#DejaVuSans-112"/>
     <use x="184.914062" xlink:href="#DejaVuSans-117"/>
     <use x="248.292969" xlink:href="#DejaVuSans-108"/>
     <use x="276.076172" xlink:href="#DejaVuSans-97"/>
     <use x="337.355469" xlink:href="#DejaVuSans-116"/>
     <use x="376.564453" xlink:href="#DejaVuSans-105"/>
     <use x="404.347656" xlink:href="#DejaVuSans-111"/>
     <use x="465.529297" xlink:href="#DejaVuSans-110"/>
     <use x="528.908203" xlink:href="#DejaVuSans-39"/>
     <use x="556.398438" xlink:href="#DejaVuSans-115"/>
     <use x="608.498047" xlink:href="#DejaVuSans-32"/>
     <use x="640.285156" xlink:href="#DejaVuSans-97"/>
     <use x="701.564453" xlink:href="#DejaVuSans-118"/>
     <use x="760.744141" xlink:href="#DejaVuSans-101"/>
     <use x="822.267578" xlink:href="#DejaVuSans-114"/>
     <use x="863.380859" xlink:href="#DejaVuSans-97"/>
     <use x="924.660156" xlink:href="#DejaVuSans-103"/>
     <use x="988.136719" xlink:href="#DejaVuSans-101"/>
     <use x="1049.660156" xlink:href="#DejaVuSans-32"/>
     <use x="1081.447266" xlink:href="#DejaVuSans-97"/>
     <use x="1142.726562" xlink:href="#DejaVuSans-110"/>
     <use x="1206.105469" xlink:href="#DejaVuSans-100"/>
     <use x="1269.582031" xlink:href="#DejaVuSans-32"/>
     <use x="1301.369141" xlink:href="#DejaVuSans-98"/>
     <use x="1364.845703" xlink:href="#DejaVuSans-101"/>
     <use x="1426.369141" xlink:href="#DejaVuSans-115"/>
     <use x="1478.46875" xlink:href="#DejaVuSans-116"/>
     <use x="1517.677734" xlink:href="#DejaVuSans-32"/>
     <use x="1549.464844" xlink:href="#DejaVuSans-102"/>
     <use x="1584.669922" xlink:href="#DejaVuSans-105"/>
     <use x="1612.453125" xlink:href="#DejaVuSans-116"/>
     <use x="1651.662109" xlink:href="#DejaVuSans-110"/>
     <use x="1715.041016" xlink:href="#DejaVuSans-101"/>
     <use x="1776.564453" xlink:href="#DejaVuSans-115"/>
     <use x="1828.664062" xlink:href="#DejaVuSans-115"/>
    </g>
   </g>
   <g id="legend_1">
    <g id="patch_7">
     <path d="M 334.779375 302.584 
L 407.72 302.584 
Q 409.72 302.584 409.72 300.584 
L 409.72 242.8715 
Q 409.72 240.8715 407.72 240.8715 
L 334.779375 240.8715 
Q 332.779375 240.8715 332.779375 242.8715 
L 332.779375 300.584 
Q 332.779375 302.584 334.779375 302.584 
z
" style="fill:#ffffff;opacity:0.8;stroke:#cccccc;stroke-linejoin:miter;"/>
    </g>
    <g id="line2d_37">
     <path d="M 336.779375 248.969937 
L 356.779375 248.969937 
" style="fill:none;stroke:#0000ff;stroke-linecap:square;stroke-width:1.5;"/>
    </g>
    <g id="line2d_38"/>
    <g id="text_20">
     <!-- average -->
     <g transform="translate(364.779375 252.469937)scale(0.1 -0.1)">
      <use xlink:href="#DejaVuSans-97"/>
      <use x="61.279297" xlink:href="#DejaVuSans-118"/>
      <use x="120.458984" xlink:href="#DejaVuSans-101"/>
      <use x="181.982422" xlink:href="#DejaVuSans-114"/>
      <use x="223.095703" xlink:href="#DejaVuSans-97"/>
      <use x="284.375" xlink:href="#DejaVuSans-103"/>
      <use x="347.851562" xlink:href="#DejaVuSans-101"/>
     </g>
    </g>
    <g id="line2d_39">
     <path d="M 336.779375 263.648062 
L 356.779375 263.648062 
" style="fill:none;stroke:#008000;stroke-dasharray:9.6,2.4,1.5,2.4;stroke-dashoffset:0;stroke-width:1.5;"/>
    </g>
    <g id="line2d_40"/>
    <g id="text_21">
     <!-- -1 sd -->
     <defs>
      <path d="M 4.890625 31.390625 
L 31.203125 31.390625 
L 31.203125 23.390625 
L 4.890625 23.390625 
z
" id="DejaVuSans-45"/>
     </defs>
     <g transform="translate(364.779375 267.148062)scale(0.1 -0.1)">
      <use xlink:href="#DejaVuSans-45"/>
      <use x="36.083984" xlink:href="#DejaVuSans-49"/>
      <use x="99.707031" xlink:href="#DejaVuSans-32"/>
      <use x="131.494141" xlink:href="#DejaVuSans-115"/>
      <use x="183.59375" xlink:href="#DejaVuSans-100"/>
     </g>
    </g>
    <g id="line2d_41">
     <path d="M 336.779375 278.326187 
L 356.779375 278.326187 
" style="fill:none;stroke:#008000;stroke-dasharray:9.6,2.4,1.5,2.4;stroke-dashoffset:0;stroke-width:1.5;"/>
    </g>
    <g id="line2d_42"/>
    <g id="text_22">
     <!-- +1 sd -->
     <defs>
      <path d="M 46 62.703125 
L 46 35.5 
L 73.1875 35.5 
L 73.1875 27.203125 
L 46 27.203125 
L 46 0 
L 37.796875 0 
L 37.796875 27.203125 
L 10.59375 27.203125 
L 10.59375 35.5 
L 37.796875 35.5 
L 37.796875 62.703125 
z
" id="DejaVuSans-43"/>
     </defs>
     <g transform="translate(364.779375 281.826187)scale(0.1 -0.1)">
      <use xlink:href="#DejaVuSans-43"/>
      <use x="83.789062" xlink:href="#DejaVuSans-49"/>
      <use x="147.412109" xlink:href="#DejaVuSans-32"/>
      <use x="179.199219" xlink:href="#DejaVuSans-115"/>
      <use x="231.298828" xlink:href="#DejaVuSans-100"/>
     </g>
    </g>
    <g id="line2d_43">
     <path d="M 336.779375 293.004312 
L 356.779375 293.004312 
" style="fill:none;stroke:#ff0000;stroke-linecap:square;stroke-width:1.5;"/>
    </g>
    <g id="line2d_44"/>
    <g id="text_23">
     <!-- best -->
     <g transform="translate(364.779375 296.504312)scale(0.1 -0.1)">
      <use xlink:href="#DejaVuSans-98"/>
      <use x="63.476562" xlink:href="#DejaVuSans-101"/>
      <use x="125" xlink:href="#DejaVuSans-115"/>
      <use x="177.099609" xlink:href="#DejaVuSans-116"/>
     </g>
    </g>
   </g>
  </g>
 </g>
 <defs>
  <clipPath id="pe6221e863e">
   <rect height="266.112" width="357.12" x="57.6" y="41.472"/>
  </clipPath>
 </defs>
</svg>
