<?xml version="1.0" encoding="utf-8" standalone="no"?>
<!DOCTYPE svg PUBLIC "-//W3C//DTD SVG 1.1//EN"
  "http://www.w3.org/Graphics/SVG/1.1/DTD/svg11.dtd">
<!-- Created with matplotlib (https://matplotlib.org/) -->
<svg height="345.6pt" version="1.1" viewBox="0 0 460.8 345.6" width="460.8pt" xmlns="http://www.w3.org/2000/svg" xmlns:xlink="http://www.w3.org/1999/xlink">
 <defs>
  <style type="text/css">
*{stroke-linecap:butt;stroke-linejoin:round;}
  </style>
 </defs>
 <g id="figure_1">
  <g id="patch_1">
   <path d="M 0 345.6 
L 460.8 345.6 
L 460.8 0 
L 0 0 
z
" style="fill:#ffffff;"/>
  </g>
  <g id="axes_1">
   <g id="patch_2">
    <path d="M 57.6 307.584 
L 414.72 307.584 
L 414.72 41.472 
L 57.6 41.472 
z
" style="fill:#ffffff;"/>
   </g>
   <g id="matplotlib.axis_1">
    <g id="xtick_1">
     <g id="line2d_1">
      <path clip-path="url(#pccdc6d0cb2)" d="M 73.832727 307.584 
L 73.832727 41.472 
" style="fill:none;stroke:#b0b0b0;stroke-linecap:square;stroke-width:0.8;"/>
     </g>
     <g id="line2d_2">
      <defs>
       <path d="M 0 0 
L 0 3.5 
" id="m2b0770593f" style="stroke:#000000;stroke-width:0.8;"/>
      </defs>
      <g>
       <use style="stroke:#000000;stroke-width:0.8;" x="73.832727" xlink:href="#m2b0770593f" y="307.584"/>
      </g>
     </g>
     <g id="text_1">
      <!-- 0 -->
      <defs>
       <path d="M 31.78125 66.40625 
Q 24.171875 66.40625 20.328125 58.90625 
Q 16.5 51.421875 16.5 36.375 
Q 16.5 21.390625 20.328125 13.890625 
Q 24.171875 6.390625 31.78125 6.390625 
Q 39.453125 6.390625 43.28125 13.890625 
Q 47.125 21.390625 47.125 36.375 
Q 47.125 51.421875 43.28125 58.90625 
Q 39.453125 66.40625 31.78125 66.40625 
z
M 31.78125 74.21875 
Q 44.046875 74.21875 50.515625 64.515625 
Q 56.984375 54.828125 56.984375 36.375 
Q 56.984375 17.96875 50.515625 8.265625 
Q 44.046875 -1.421875 31.78125 -1.421875 
Q 19.53125 -1.421875 13.0625 8.265625 
Q 6.59375 17.96875 6.59375 36.375 
Q 6.59375 54.828125 13.0625 64.515625 
Q 19.53125 74.21875 31.78125 74.21875 
z
" id="DejaVuSans-48"/>
      </defs>
      <g transform="translate(70.651477 322.182437)scale(0.1 -0.1)">
       <use xlink:href="#DejaVuSans-48"/>
      </g>
     </g>
    </g>
    <g id="xtick_2">
     <g id="line2d_3">
      <path clip-path="url(#pccdc6d0cb2)" d="M 128.122785 307.584 
L 128.122785 41.472 
" style="fill:none;stroke:#b0b0b0;stroke-linecap:square;stroke-width:0.8;"/>
     </g>
     <g id="line2d_4">
      <g>
       <use style="stroke:#000000;stroke-width:0.8;" x="128.122785" xlink:href="#m2b0770593f" y="307.584"/>
      </g>
     </g>
     <g id="text_2">
      <!-- 50 -->
      <defs>
       <path d="M 10.796875 72.90625 
L 49.515625 72.90625 
L 49.515625 64.59375 
L 19.828125 64.59375 
L 19.828125 46.734375 
Q 21.96875 47.46875 24.109375 47.828125 
Q 26.265625 48.1875 28.421875 48.1875 
Q 40.625 48.1875 47.75 41.5 
Q 54.890625 34.8125 54.890625 23.390625 
Q 54.890625 11.625 47.5625 5.09375 
Q 40.234375 -1.421875 26.90625 -1.421875 
Q 22.3125 -1.421875 17.546875 -0.640625 
Q 12.796875 0.140625 7.71875 1.703125 
L 7.71875 11.625 
Q 12.109375 9.234375 16.796875 8.0625 
Q 21.484375 6.890625 26.703125 6.890625 
Q 35.15625 6.890625 40.078125 11.328125 
Q 45.015625 15.765625 45.015625 23.390625 
Q 45.015625 31 40.078125 35.4375 
Q 35.15625 39.890625 26.703125 39.890625 
Q 22.75 39.890625 18.8125 39.015625 
Q 14.890625 38.140625 10.796875 36.28125 
z
" id="DejaVuSans-53"/>
      </defs>
      <g transform="translate(121.760285 322.182437)scale(0.1 -0.1)">
       <use xlink:href="#DejaVuSans-53"/>
       <use x="63.623047" xlink:href="#DejaVuSans-48"/>
      </g>
     </g>
    </g>
    <g id="xtick_3">
     <g id="line2d_5">
      <path clip-path="url(#pccdc6d0cb2)" d="M 182.412843 307.584 
L 182.412843 41.472 
" style="fill:none;stroke:#b0b0b0;stroke-linecap:square;stroke-width:0.8;"/>
     </g>
     <g id="line2d_6">
      <g>
       <use style="stroke:#000000;stroke-width:0.8;" x="182.412843" xlink:href="#m2b0770593f" y="307.584"/>
      </g>
     </g>
     <g id="text_3">
      <!-- 100 -->
      <defs>
       <path d="M 12.40625 8.296875 
L 28.515625 8.296875 
L 28.515625 63.921875 
L 10.984375 60.40625 
L 10.984375 69.390625 
L 28.421875 72.90625 
L 38.28125 72.90625 
L 38.28125 8.296875 
L 54.390625 8.296875 
L 54.390625 0 
L 12.40625 0 
z
" id="DejaVuSans-49"/>
      </defs>
      <g transform="translate(172.869093 322.182437)scale(0.1 -0.1)">
       <use xlink:href="#DejaVuSans-49"/>
       <use x="63.623047" xlink:href="#DejaVuSans-48"/>
       <use x="127.246094" xlink:href="#DejaVuSans-48"/>
      </g>
     </g>
    </g>
    <g id="xtick_4">
     <g id="line2d_7">
      <path clip-path="url(#pccdc6d0cb2)" d="M 236.702901 307.584 
L 236.702901 41.472 
" style="fill:none;stroke:#b0b0b0;stroke-linecap:square;stroke-width:0.8;"/>
     </g>
     <g id="line2d_8">
      <g>
       <use style="stroke:#000000;stroke-width:0.8;" x="236.702901" xlink:href="#m2b0770593f" y="307.584"/>
      </g>
     </g>
     <g id="text_4">
      <!-- 150 -->
      <g transform="translate(227.159151 322.182437)scale(0.1 -0.1)">
       <use xlink:href="#DejaVuSans-49"/>
       <use x="63.623047" xlink:href="#DejaVuSans-53"/>
       <use x="127.246094" xlink:href="#DejaVuSans-48"/>
      </g>
     </g>
    </g>
    <g id="xtick_5">
     <g id="line2d_9">
      <path clip-path="url(#pccdc6d0cb2)" d="M 290.992958 307.584 
L 290.992958 41.472 
" style="fill:none;stroke:#b0b0b0;stroke-linecap:square;stroke-width:0.8;"/>
     </g>
     <g id="line2d_10">
      <g>
       <use style="stroke:#000000;stroke-width:0.8;" x="290.992958" xlink:href="#m2b0770593f" y="307.584"/>
      </g>
     </g>
     <g id="text_5">
      <!-- 200 -->
      <defs>
       <path d="M 19.1875 8.296875 
L 53.609375 8.296875 
L 53.609375 0 
L 7.328125 0 
L 7.328125 8.296875 
Q 12.9375 14.109375 22.625 23.890625 
Q 32.328125 33.6875 34.8125 36.53125 
Q 39.546875 41.84375 41.421875 45.53125 
Q 43.3125 49.21875 43.3125 52.78125 
Q 43.3125 58.59375 39.234375 62.25 
Q 35.15625 65.921875 28.609375 65.921875 
Q 23.96875 65.921875 18.8125 64.3125 
Q 13.671875 62.703125 7.8125 59.421875 
L 7.8125 69.390625 
Q 13.765625 71.78125 18.9375 73 
Q 24.125 74.21875 28.421875 74.21875 
Q 39.75 74.21875 46.484375 68.546875 
Q 53.21875 62.890625 53.21875 53.421875 
Q 53.21875 48.921875 51.53125 44.890625 
Q 49.859375 40.875 45.40625 35.40625 
Q 44.1875 33.984375 37.640625 27.21875 
Q 31.109375 20.453125 19.1875 8.296875 
z
" id="DejaVuSans-50"/>
      </defs>
      <g transform="translate(281.449208 322.182437)scale(0.1 -0.1)">
       <use xlink:href="#DejaVuSans-50"/>
       <use x="63.623047" xlink:href="#DejaVuSans-48"/>
       <use x="127.246094" xlink:href="#DejaVuSans-48"/>
      </g>
     </g>
    </g>
    <g id="xtick_6">
     <g id="line2d_11">
      <path clip-path="url(#pccdc6d0cb2)" d="M 345.283016 307.584 
L 345.283016 41.472 
" style="fill:none;stroke:#b0b0b0;stroke-linecap:square;stroke-width:0.8;"/>
     </g>
     <g id="line2d_12">
      <g>
       <use style="stroke:#000000;stroke-width:0.8;" x="345.283016" xlink:href="#m2b0770593f" y="307.584"/>
      </g>
     </g>
     <g id="text_6">
      <!-- 250 -->
      <g transform="translate(335.739266 322.182437)scale(0.1 -0.1)">
       <use xlink:href="#DejaVuSans-50"/>
       <use x="63.623047" xlink:href="#DejaVuSans-53"/>
       <use x="127.246094" xlink:href="#DejaVuSans-48"/>
      </g>
     </g>
    </g>
    <g id="xtick_7">
     <g id="line2d_13">
      <path clip-path="url(#pccdc6d0cb2)" d="M 399.573074 307.584 
L 399.573074 41.472 
" style="fill:none;stroke:#b0b0b0;stroke-linecap:square;stroke-width:0.8;"/>
     </g>
     <g id="line2d_14">
      <g>
       <use style="stroke:#000000;stroke-width:0.8;" x="399.573074" xlink:href="#m2b0770593f" y="307.584"/>
      </g>
     </g>
     <g id="text_7">
      <!-- 300 -->
      <defs>
       <path d="M 40.578125 39.3125 
Q 47.65625 37.796875 51.625 33 
Q 55.609375 28.21875 55.609375 21.1875 
Q 55.609375 10.40625 48.1875 4.484375 
Q 40.765625 -1.421875 27.09375 -1.421875 
Q 22.515625 -1.421875 17.65625 -0.515625 
Q 12.796875 0.390625 7.625 2.203125 
L 7.625 11.71875 
Q 11.71875 9.328125 16.59375 8.109375 
Q 21.484375 6.890625 26.8125 6.890625 
Q 36.078125 6.890625 40.9375 10.546875 
Q 45.796875 14.203125 45.796875 21.1875 
Q 45.796875 27.640625 41.28125 31.265625 
Q 36.765625 34.90625 28.71875 34.90625 
L 20.21875 34.90625 
L 20.21875 43.015625 
L 29.109375 43.015625 
Q 36.375 43.015625 40.234375 45.921875 
Q 44.09375 48.828125 44.09375 54.296875 
Q 44.09375 59.90625 40.109375 62.90625 
Q 36.140625 65.921875 28.71875 65.921875 
Q 24.65625 65.921875 20.015625 65.03125 
Q 15.375 64.15625 9.8125 62.3125 
L 9.8125 71.09375 
Q 15.4375 72.65625 20.34375 73.4375 
Q 25.25 74.21875 29.59375 74.21875 
Q 40.828125 74.21875 47.359375 69.109375 
Q 53.90625 64.015625 53.90625 55.328125 
Q 53.90625 49.265625 50.4375 45.09375 
Q 46.96875 40.921875 40.578125 39.3125 
z
" id="DejaVuSans-51"/>
      </defs>
      <g transform="translate(390.029324 322.182437)scale(0.1 -0.1)">
       <use xlink:href="#DejaVuSans-51"/>
       <use x="63.623047" xlink:href="#DejaVuSans-48"/>
       <use x="127.246094" xlink:href="#DejaVuSans-48"/>
      </g>
     </g>
    </g>
    <g id="text_8">
     <!-- Generations -->
     <defs>
      <path d="M 59.515625 10.40625 
L 59.515625 29.984375 
L 43.40625 29.984375 
L 43.40625 38.09375 
L 69.28125 38.09375 
L 69.28125 6.78125 
Q 63.578125 2.734375 56.6875 0.65625 
Q 49.8125 -1.421875 42 -1.421875 
Q 24.90625 -1.421875 15.25 8.5625 
Q 5.609375 18.5625 5.609375 36.375 
Q 5.609375 54.25 15.25 64.234375 
Q 24.90625 74.21875 42 74.21875 
Q 49.125 74.21875 55.546875 72.453125 
Q 61.96875 70.703125 67.390625 67.28125 
L 67.390625 56.78125 
Q 61.921875 61.421875 55.765625 63.765625 
Q 49.609375 66.109375 42.828125 66.109375 
Q 29.4375 66.109375 22.71875 58.640625 
Q 16.015625 51.171875 16.015625 36.375 
Q 16.015625 21.625 22.71875 14.15625 
Q 29.4375 6.6875 42.828125 6.6875 
Q 48.046875 6.6875 52.140625 7.59375 
Q 56.25 8.5 59.515625 10.40625 
z
" id="DejaVuSans-71"/>
      <path d="M 56.203125 29.59375 
L 56.203125 25.203125 
L 14.890625 25.203125 
Q 15.484375 15.921875 20.484375 11.0625 
Q 25.484375 6.203125 34.421875 6.203125 
Q 39.59375 6.203125 44.453125 7.46875 
Q 49.3125 8.734375 54.109375 11.28125 
L 54.109375 2.78125 
Q 49.265625 0.734375 44.1875 -0.34375 
Q 39.109375 -1.421875 33.890625 -1.421875 
Q 20.796875 -1.421875 13.15625 6.1875 
Q 5.515625 13.8125 5.515625 26.8125 
Q 5.515625 40.234375 12.765625 48.109375 
Q 20.015625 56 32.328125 56 
Q 43.359375 56 49.78125 48.890625 
Q 56.203125 41.796875 56.203125 29.59375 
z
M 47.21875 32.234375 
Q 47.125 39.59375 43.09375 43.984375 
Q 39.0625 48.390625 32.421875 48.390625 
Q 24.90625 48.390625 20.390625 44.140625 
Q 15.875 39.890625 15.1875 32.171875 
z
" id="DejaVuSans-101"/>
      <path d="M 54.890625 33.015625 
L 54.890625 0 
L 45.90625 0 
L 45.90625 32.71875 
Q 45.90625 40.484375 42.875 44.328125 
Q 39.84375 48.1875 33.796875 48.1875 
Q 26.515625 48.1875 22.3125 43.546875 
Q 18.109375 38.921875 18.109375 30.90625 
L 18.109375 0 
L 9.078125 0 
L 9.078125 54.6875 
L 18.109375 54.6875 
L 18.109375 46.1875 
Q 21.34375 51.125 25.703125 53.5625 
Q 30.078125 56 35.796875 56 
Q 45.21875 56 50.046875 50.171875 
Q 54.890625 44.34375 54.890625 33.015625 
z
" id="DejaVuSans-110"/>
      <path d="M 41.109375 46.296875 
Q 39.59375 47.171875 37.8125 47.578125 
Q 36.03125 48 33.890625 48 
Q 26.265625 48 22.1875 43.046875 
Q 18.109375 38.09375 18.109375 28.8125 
L 18.109375 0 
L 9.078125 0 
L 9.078125 54.6875 
L 18.109375 54.6875 
L 18.109375 46.1875 
Q 20.953125 51.171875 25.484375 53.578125 
Q 30.03125 56 36.53125 56 
Q 37.453125 56 38.578125 55.875 
Q 39.703125 55.765625 41.0625 55.515625 
z
" id="DejaVuSans-114"/>
      <path d="M 34.28125 27.484375 
Q 23.390625 27.484375 19.1875 25 
Q 14.984375 22.515625 14.984375 16.5 
Q 14.984375 11.71875 18.140625 8.90625 
Q 21.296875 6.109375 26.703125 6.109375 
Q 34.1875 6.109375 38.703125 11.40625 
Q 43.21875 16.703125 43.21875 25.484375 
L 43.21875 27.484375 
z
M 52.203125 31.203125 
L 52.203125 0 
L 43.21875 0 
L 43.21875 8.296875 
Q 40.140625 3.328125 35.546875 0.953125 
Q 30.953125 -1.421875 24.3125 -1.421875 
Q 15.921875 -1.421875 10.953125 3.296875 
Q 6 8.015625 6 15.921875 
Q 6 25.140625 12.171875 29.828125 
Q 18.359375 34.515625 30.609375 34.515625 
L 43.21875 34.515625 
L 43.21875 35.40625 
Q 43.21875 41.609375 39.140625 45 
Q 35.0625 48.390625 27.6875 48.390625 
Q 23 48.390625 18.546875 47.265625 
Q 14.109375 46.140625 10.015625 43.890625 
L 10.015625 52.203125 
Q 14.9375 54.109375 19.578125 55.046875 
Q 24.21875 56 28.609375 56 
Q 40.484375 56 46.34375 49.84375 
Q 52.203125 43.703125 52.203125 31.203125 
z
" id="DejaVuSans-97"/>
      <path d="M 18.3125 70.21875 
L 18.3125 54.6875 
L 36.8125 54.6875 
L 36.8125 47.703125 
L 18.3125 47.703125 
L 18.3125 18.015625 
Q 18.3125 11.328125 20.140625 9.421875 
Q 21.96875 7.515625 27.59375 7.515625 
L 36.8125 7.515625 
L 36.8125 0 
L 27.59375 0 
Q 17.1875 0 13.234375 3.875 
Q 9.28125 7.765625 9.28125 18.015625 
L 9.28125 47.703125 
L 2.6875 47.703125 
L 2.6875 54.6875 
L 9.28125 54.6875 
L 9.28125 70.21875 
z
" id="DejaVuSans-116"/>
      <path d="M 9.421875 54.6875 
L 18.40625 54.6875 
L 18.40625 0 
L 9.421875 0 
z
M 9.421875 75.984375 
L 18.40625 75.984375 
L 18.40625 64.59375 
L 9.421875 64.59375 
z
" id="DejaVuSans-105"/>
      <path d="M 30.609375 48.390625 
Q 23.390625 48.390625 19.1875 42.75 
Q 14.984375 37.109375 14.984375 27.296875 
Q 14.984375 17.484375 19.15625 11.84375 
Q 23.34375 6.203125 30.609375 6.203125 
Q 37.796875 6.203125 41.984375 11.859375 
Q 46.1875 17.53125 46.1875 27.296875 
Q 46.1875 37.015625 41.984375 42.703125 
Q 37.796875 48.390625 30.609375 48.390625 
z
M 30.609375 56 
Q 42.328125 56 49.015625 48.375 
Q 55.71875 40.765625 55.71875 27.296875 
Q 55.71875 13.875 49.015625 6.21875 
Q 42.328125 -1.421875 30.609375 -1.421875 
Q 18.84375 -1.421875 12.171875 6.21875 
Q 5.515625 13.875 5.515625 27.296875 
Q 5.515625 40.765625 12.171875 48.375 
Q 18.84375 56 30.609375 56 
z
" id="DejaVuSans-111"/>
      <path d="M 44.28125 53.078125 
L 44.28125 44.578125 
Q 40.484375 46.53125 36.375 47.5 
Q 32.28125 48.484375 27.875 48.484375 
Q 21.1875 48.484375 17.84375 46.4375 
Q 14.5 44.390625 14.5 40.28125 
Q 14.5 37.15625 16.890625 35.375 
Q 19.28125 33.59375 26.515625 31.984375 
L 29.59375 31.296875 
Q 39.15625 29.25 43.1875 25.515625 
Q 47.21875 21.78125 47.21875 15.09375 
Q 47.21875 7.46875 41.1875 3.015625 
Q 35.15625 -1.421875 24.609375 -1.421875 
Q 20.21875 -1.421875 15.453125 -0.5625 
Q 10.6875 0.296875 5.421875 2 
L 5.421875 11.28125 
Q 10.40625 8.6875 15.234375 7.390625 
Q 20.0625 6.109375 24.8125 6.109375 
Q 31.15625 6.109375 34.5625 8.28125 
Q 37.984375 10.453125 37.984375 14.40625 
Q 37.984375 18.0625 35.515625 20.015625 
Q 33.0625 21.96875 24.703125 23.78125 
L 21.578125 24.515625 
Q 13.234375 26.265625 9.515625 29.90625 
Q 5.8125 33.546875 5.8125 39.890625 
Q 5.8125 47.609375 11.28125 51.796875 
Q 16.75 56 26.8125 56 
Q 31.78125 56 36.171875 55.265625 
Q 40.578125 54.546875 44.28125 53.078125 
z
" id="DejaVuSans-115"/>
     </defs>
     <g transform="translate(205.662344 335.860562)scale(0.1 -0.1)">
      <use xlink:href="#DejaVuSans-71"/>
      <use x="77.490234" xlink:href="#DejaVuSans-101"/>
      <use x="139.013672" xlink:href="#DejaVuSans-110"/>
      <use x="202.392578" xlink:href="#DejaVuSans-101"/>
      <use x="263.916016" xlink:href="#DejaVuSans-114"/>
      <use x="305.029297" xlink:href="#DejaVuSans-97"/>
      <use x="366.308594" xlink:href="#DejaVuSans-116"/>
      <use x="405.517578" xlink:href="#DejaVuSans-105"/>
      <use x="433.300781" xlink:href="#DejaVuSans-111"/>
      <use x="494.482422" xlink:href="#DejaVuSans-110"/>
      <use x="557.861328" xlink:href="#DejaVuSans-115"/>
     </g>
    </g>
   </g>
   <g id="matplotlib.axis_2">
    <g id="ytick_1">
     <g id="line2d_15">
      <path clip-path="url(#pccdc6d0cb2)" d="M 57.6 280.823716 
L 414.72 280.823716 
" style="fill:none;stroke:#b0b0b0;stroke-linecap:square;stroke-width:0.8;"/>
     </g>
     <g id="line2d_16">
      <defs>
       <path d="M 0 0 
L -3.5 0 
" id="m37d8c04785" style="stroke:#000000;stroke-width:0.8;"/>
      </defs>
      <g>
       <use style="stroke:#000000;stroke-width:0.8;" x="57.6" xlink:href="#m37d8c04785" y="280.823716"/>
      </g>
     </g>
     <g id="text_9">
      <!-- 500 -->
      <g transform="translate(31.5125 284.622934)scale(0.1 -0.1)">
       <use xlink:href="#DejaVuSans-53"/>
       <use x="63.623047" xlink:href="#DejaVuSans-48"/>
       <use x="127.246094" xlink:href="#DejaVuSans-48"/>
      </g>
     </g>
    </g>
    <g id="ytick_2">
     <g id="line2d_17">
      <path clip-path="url(#pccdc6d0cb2)" d="M 57.6 250.691429 
L 414.72 250.691429 
" style="fill:none;stroke:#b0b0b0;stroke-linecap:square;stroke-width:0.8;"/>
     </g>
     <g id="line2d_18">
      <g>
       <use style="stroke:#000000;stroke-width:0.8;" x="57.6" xlink:href="#m37d8c04785" y="250.691429"/>
      </g>
     </g>
     <g id="text_10">
      <!-- 750 -->
      <defs>
       <path d="M 8.203125 72.90625 
L 55.078125 72.90625 
L 55.078125 68.703125 
L 28.609375 0 
L 18.3125 0 
L 43.21875 64.59375 
L 8.203125 64.59375 
z
" id="DejaVuSans-55"/>
      </defs>
      <g transform="translate(31.5125 254.490648)scale(0.1 -0.1)">
       <use xlink:href="#DejaVuSans-55"/>
       <use x="63.623047" xlink:href="#DejaVuSans-53"/>
       <use x="127.246094" xlink:href="#DejaVuSans-48"/>
      </g>
     </g>
    </g>
    <g id="ytick_3">
     <g id="line2d_19">
      <path clip-path="url(#pccdc6d0cb2)" d="M 57.6 220.559143 
L 414.72 220.559143 
" style="fill:none;stroke:#b0b0b0;stroke-linecap:square;stroke-width:0.8;"/>
     </g>
     <g id="line2d_20">
      <g>
       <use style="stroke:#000000;stroke-width:0.8;" x="57.6" xlink:href="#m37d8c04785" y="220.559143"/>
      </g>
     </g>
     <g id="text_11">
      <!-- 1000 -->
      <g transform="translate(25.15 224.358362)scale(0.1 -0.1)">
       <use xlink:href="#DejaVuSans-49"/>
       <use x="63.623047" xlink:href="#DejaVuSans-48"/>
       <use x="127.246094" xlink:href="#DejaVuSans-48"/>
       <use x="190.869141" xlink:href="#DejaVuSans-48"/>
      </g>
     </g>
    </g>
    <g id="ytick_4">
     <g id="line2d_21">
      <path clip-path="url(#pccdc6d0cb2)" d="M 57.6 190.426857 
L 414.72 190.426857 
" style="fill:none;stroke:#b0b0b0;stroke-linecap:square;stroke-width:0.8;"/>
     </g>
     <g id="line2d_22">
      <g>
       <use style="stroke:#000000;stroke-width:0.8;" x="57.6" xlink:href="#m37d8c04785" y="190.426857"/>
      </g>
     </g>
     <g id="text_12">
      <!-- 1250 -->
      <g transform="translate(25.15 194.226075)scale(0.1 -0.1)">
       <use xlink:href="#DejaVuSans-49"/>
       <use x="63.623047" xlink:href="#DejaVuSans-50"/>
       <use x="127.246094" xlink:href="#DejaVuSans-53"/>
       <use x="190.869141" xlink:href="#DejaVuSans-48"/>
      </g>
     </g>
    </g>
    <g id="ytick_5">
     <g id="line2d_23">
      <path clip-path="url(#pccdc6d0cb2)" d="M 57.6 160.29457 
L 414.72 160.29457 
" style="fill:none;stroke:#b0b0b0;stroke-linecap:square;stroke-width:0.8;"/>
     </g>
     <g id="line2d_24">
      <g>
       <use style="stroke:#000000;stroke-width:0.8;" x="57.6" xlink:href="#m37d8c04785" y="160.29457"/>
      </g>
     </g>
     <g id="text_13">
      <!-- 1500 -->
      <g transform="translate(25.15 164.093789)scale(0.1 -0.1)">
       <use xlink:href="#DejaVuSans-49"/>
       <use x="63.623047" xlink:href="#DejaVuSans-53"/>
       <use x="127.246094" xlink:href="#DejaVuSans-48"/>
       <use x="190.869141" xlink:href="#DejaVuSans-48"/>
      </g>
     </g>
    </g>
    <g id="ytick_6">
     <g id="line2d_25">
      <path clip-path="url(#pccdc6d0cb2)" d="M 57.6 130.162284 
L 414.72 130.162284 
" style="fill:none;stroke:#b0b0b0;stroke-linecap:square;stroke-width:0.8;"/>
     </g>
     <g id="line2d_26">
      <g>
       <use style="stroke:#000000;stroke-width:0.8;" x="57.6" xlink:href="#m37d8c04785" y="130.162284"/>
      </g>
     </g>
     <g id="text_14">
      <!-- 1750 -->
      <g transform="translate(25.15 133.961503)scale(0.1 -0.1)">
       <use xlink:href="#DejaVuSans-49"/>
       <use x="63.623047" xlink:href="#DejaVuSans-55"/>
       <use x="127.246094" xlink:href="#DejaVuSans-53"/>
       <use x="190.869141" xlink:href="#DejaVuSans-48"/>
      </g>
     </g>
    </g>
    <g id="ytick_7">
     <g id="line2d_27">
      <path clip-path="url(#pccdc6d0cb2)" d="M 57.6 100.029998 
L 414.72 100.029998 
" style="fill:none;stroke:#b0b0b0;stroke-linecap:square;stroke-width:0.8;"/>
     </g>
     <g id="line2d_28">
      <g>
       <use style="stroke:#000000;stroke-width:0.8;" x="57.6" xlink:href="#m37d8c04785" y="100.029998"/>
      </g>
     </g>
     <g id="text_15">
      <!-- 2000 -->
      <g transform="translate(25.15 103.829216)scale(0.1 -0.1)">
       <use xlink:href="#DejaVuSans-50"/>
       <use x="63.623047" xlink:href="#DejaVuSans-48"/>
       <use x="127.246094" xlink:href="#DejaVuSans-48"/>
       <use x="190.869141" xlink:href="#DejaVuSans-48"/>
      </g>
     </g>
    </g>
    <g id="ytick_8">
     <g id="line2d_29">
      <path clip-path="url(#pccdc6d0cb2)" d="M 57.6 69.897711 
L 414.72 69.897711 
" style="fill:none;stroke:#b0b0b0;stroke-linecap:square;stroke-width:0.8;"/>
     </g>
     <g id="line2d_30">
      <g>
       <use style="stroke:#000000;stroke-width:0.8;" x="57.6" xlink:href="#m37d8c04785" y="69.897711"/>
      </g>
     </g>
     <g id="text_16">
      <!-- 2250 -->
      <g transform="translate(25.15 73.69693)scale(0.1 -0.1)">
       <use xlink:href="#DejaVuSans-50"/>
       <use x="63.623047" xlink:href="#DejaVuSans-50"/>
       <use x="127.246094" xlink:href="#DejaVuSans-53"/>
       <use x="190.869141" xlink:href="#DejaVuSans-48"/>
      </g>
     </g>
    </g>
    <g id="text_17">
     <!-- Fitness -->
     <defs>
      <path d="M 9.8125 72.90625 
L 51.703125 72.90625 
L 51.703125 64.59375 
L 19.671875 64.59375 
L 19.671875 43.109375 
L 48.578125 43.109375 
L 48.578125 34.8125 
L 19.671875 34.8125 
L 19.671875 0 
L 9.8125 0 
z
" id="DejaVuSans-70"/>
     </defs>
     <g transform="translate(19.070312 192.202219)rotate(-90)scale(0.1 -0.1)">
      <use xlink:href="#DejaVuSans-70"/>
      <use x="57.410156" xlink:href="#DejaVuSans-105"/>
      <use x="85.193359" xlink:href="#DejaVuSans-116"/>
      <use x="124.402344" xlink:href="#DejaVuSans-110"/>
      <use x="187.78125" xlink:href="#DejaVuSans-101"/>
      <use x="249.304688" xlink:href="#DejaVuSans-115"/>
      <use x="301.404297" xlink:href="#DejaVuSans-115"/>
     </g>
    </g>
   </g>
   <g id="line2d_31">
    <path clip-path="url(#pccdc6d0cb2)" d="M 73.832727 279.95966 
L 74.918528 264.824303 
L 76.00433 261.797698 
L 77.090131 256.471746 
L 78.175932 250.027375 
L 79.261733 237.89671 
L 80.347534 243.193237 
L 81.433335 240.964352 
L 82.519137 236.786997 
L 83.604938 235.081987 
L 84.690739 227.490986 
L 85.77654 229.873373 
L 86.862341 215.591179 
L 87.948142 212.547791 
L 89.033943 210.821078 
L 90.119745 202.87426 
L 91.205546 200.133962 
L 92.291347 207.083296 
L 93.377148 190.374693 
L 94.462949 184.654378 
L 95.54875 196.180723 
L 96.634552 192.508793 
L 97.720353 207.298758 
L 98.806154 201.904621 
L 99.891955 185.457286 
L 100.977756 206.3558 
L 102.063557 175.574728 
L 103.149358 203.978555 
L 104.23516 204.858055 
L 105.320961 195.722466 
L 107.492563 209.722314 
L 108.578364 189.492713 
L 109.664165 198.79425 
L 110.749967 195.071069 
L 111.835768 183.247538 
L 112.921569 187.032654 
L 114.00737 173.785095 
L 115.093171 188.479056 
L 116.178972 196.852824 
L 117.264773 185.153096 
L 118.350575 178.060201 
L 119.436376 178.128063 
L 120.522177 190.008758 
L 121.607978 184.444555 
L 122.693779 189.520809 
L 123.77958 191.342231 
L 124.865382 192.910686 
L 125.951183 178.320848 
L 127.036984 185.224209 
L 128.122785 179.094674 
L 129.208586 175.473953 
L 130.294387 167.006674 
L 131.380189 173.629984 
L 132.46599 177.794136 
L 133.551791 161.450155 
L 134.637592 161.050416 
L 135.723393 175.296068 
L 136.809194 168.058349 
L 137.894995 169.676931 
L 138.980797 160.418843 
L 140.066598 165.421962 
L 141.152399 167.782194 
L 142.2382 154.104122 
L 144.409802 150.721816 
L 145.495604 152.584983 
L 146.581405 159.214544 
L 147.667206 168.599067 
L 148.753007 159.27926 
L 149.838808 162.72927 
L 150.924609 162.021964 
L 153.096212 145.542156 
L 154.182013 150.289067 
L 155.267814 157.548816 
L 156.353615 180.748893 
L 157.439416 165.440967 
L 158.525217 153.753271 
L 159.611019 149.100353 
L 160.69682 149.600478 
L 161.782621 148.951232 
L 162.868422 174.027285 
L 163.954223 137.159499 
L 165.040024 147.044681 
L 166.125825 145.392649 
L 167.211627 144.246992 
L 168.297428 168.760847 
L 169.383229 166.984215 
L 170.46903 139.120691 
L 171.554831 158.353237 
L 172.640632 145.644421 
L 173.726434 186.619891 
L 174.812235 179.133641 
L 175.898036 149.708528 
L 176.983837 166.288576 
L 178.069638 154.030557 
L 179.155439 169.319038 
L 180.24124 146.460024 
L 181.327042 158.415095 
L 182.412843 164.730894 
L 183.498644 167.641296 
L 184.584445 170.214593 
L 185.670246 169.467561 
L 186.756047 172.815949 
L 187.841849 171.024324 
L 188.92765 177.712222 
L 190.013451 165.19281 
L 191.099252 161.529458 
L 192.185053 160.32822 
L 193.270854 164.421831 
L 194.356656 151.513254 
L 195.442457 154.719866 
L 196.528258 165.333358 
L 197.614059 189.420764 
L 198.69986 181.859923 
L 199.785661 183.125785 
L 200.871462 157.946431 
L 201.957264 175.432393 
L 203.043065 173.930807 
L 204.128866 141.070679 
L 205.214667 161.475183 
L 206.300468 152.368398 
L 207.386269 169.678632 
L 208.472071 164.155421 
L 209.557872 173.789306 
L 210.643673 172.756672 
L 211.729474 157.881082 
L 212.815275 182.519968 
L 213.901076 183.173525 
L 214.986877 160.557015 
L 216.072679 160.500586 
L 217.15848 174.797364 
L 218.244281 156.759179 
L 219.330082 172.61014 
L 220.415883 177.487035 
L 221.501684 162.396138 
L 222.587486 170.511345 
L 223.673287 176.323982 
L 224.759088 158.286043 
L 225.844889 136.168654 
L 226.93069 157.08623 
L 228.016491 163.531125 
L 229.102292 163.00375 
L 230.188094 174.351128 
L 231.273895 189.179915 
L 232.359696 201.950958 
L 233.445497 178.859511 
L 234.531298 167.205567 
L 235.617099 186.194675 
L 236.702901 171.6646 
L 237.788702 199.839883 
L 238.874503 193.083933 
L 239.960304 171.846241 
L 241.046105 189.812835 
L 242.131906 195.675886 
L 243.217708 183.828759 
L 244.303509 183.135356 
L 245.38931 183.011095 
L 246.475111 187.305243 
L 247.560912 168.319978 
L 248.646713 177.53158 
L 249.732514 190.673816 
L 250.818316 187.870882 
L 251.904117 174.701005 
L 252.989918 174.316808 
L 254.075719 165.49407 
L 255.16152 178.864044 
L 256.247321 170.532246 
L 257.333123 185.279172 
L 258.418924 167.213208 
L 259.504725 176.469031 
L 260.590526 160.590692 
L 261.676327 191.883399 
L 262.762128 162.753127 
L 263.847929 163.65988 
L 264.933731 168.795159 
L 266.019532 186.648277 
L 267.105333 191.013827 
L 268.191134 183.788977 
L 269.276935 180.468048 
L 270.362736 182.412843 
L 271.448538 168.797138 
L 272.534339 171.447304 
L 273.62014 169.273633 
L 274.705941 168.09319 
L 275.791742 161.172098 
L 276.877543 177.8496 
L 277.963344 168.830706 
L 279.049146 175.415466 
L 280.134947 161.049199 
L 281.220748 159.484902 
L 282.306549 166.522338 
L 283.39235 185.868647 
L 284.478151 164.914952 
L 285.563953 172.853968 
L 286.649754 188.190344 
L 287.735555 155.281572 
L 288.821356 176.607502 
L 289.907157 163.244147 
L 290.992958 186.066138 
L 292.07876 166.759124 
L 293.164561 159.443884 
L 294.250362 168.634529 
L 295.336163 172.402481 
L 296.421964 170.830124 
L 297.507765 161.469867 
L 298.593566 187.330452 
L 299.679368 172.334863 
L 300.765169 174.913168 
L 301.85097 183.99796 
L 302.936771 180.624275 
L 304.022572 185.912366 
L 305.108373 183.653557 
L 306.194175 174.807906 
L 307.279976 175.834373 
L 308.365777 153.063089 
L 309.451578 160.942655 
L 310.537379 167.849201 
L 311.62318 176.381277 
L 312.708981 139.940903 
L 313.794783 162.188704 
L 314.880584 176.912481 
L 315.966385 163.237866 
L 317.052186 172.227848 
L 318.137987 159.611697 
L 319.223788 158.996054 
L 320.30959 160.817226 
L 321.395391 150.939748 
L 322.481192 156.10542 
L 323.566993 172.499671 
L 324.652794 163.403671 
L 325.738595 171.631688 
L 327.910198 129.835671 
L 328.995999 165.993617 
L 330.0818 176.805032 
L 331.167601 148.51383 
L 332.253402 167.952418 
L 333.339203 147.110292 
L 334.425005 153.204893 
L 335.510806 175.823959 
L 336.596607 152.38866 
L 337.682408 150.697327 
L 338.768209 169.766607 
L 340.939811 144.548228 
L 342.025613 167.711 
L 343.111414 147.745582 
L 344.197215 165.627906 
L 345.283016 167.260906 
L 346.368817 166.908073 
L 347.454618 162.390757 
L 348.54042 140.776707 
L 349.626221 148.292018 
L 350.712022 175.763019 
L 351.797823 159.001086 
L 352.883624 161.188489 
L 353.969425 165.977082 
L 355.055227 165.675224 
L 356.141028 164.826324 
L 357.226829 180.572963 
L 358.31263 162.359708 
L 359.398431 176.80225 
L 360.484232 167.250008 
L 361.570033 180.622673 
L 362.655835 187.533173 
L 363.741636 158.447252 
L 364.827437 139.451486 
L 365.913238 166.717616 
L 366.999039 154.194874 
L 368.08484 164.405325 
L 369.170642 160.222418 
L 370.256443 170.415922 
L 371.342244 158.952403 
L 372.428045 173.965137 
L 373.513846 180.720809 
L 374.599647 161.574068 
L 375.685448 162.141977 
L 376.77125 177.087186 
L 377.857051 165.504995 
L 378.942852 186.798274 
L 380.028653 165.144825 
L 381.114454 145.819619 
L 382.200255 160.748598 
L 383.286057 143.574997 
L 384.371858 162.338905 
L 385.457659 157.694229 
L 386.54346 168.616645 
L 387.629261 165.956747 
L 388.715062 186.141686 
L 389.800863 157.808094 
L 390.886665 160.203899 
L 391.972466 135.617985 
L 393.058267 147.789923 
L 394.144068 163.872963 
L 395.229869 163.289005 
L 396.31567 173.568063 
L 397.401472 179.767724 
L 398.487273 168.334143 
L 398.487273 168.334143 
" style="fill:none;stroke:#0000ff;stroke-linecap:square;stroke-width:1.5;"/>
   </g>
   <g id="line2d_32">
    <path clip-path="url(#pccdc6d0cb2)" d="M 73.832727 295.488 
L 74.918528 279.964187 
L 76.00433 284.183043 
L 77.090131 280.689955 
L 78.175932 282.504967 
L 79.261733 265.727581 
L 80.347534 275.005971 
L 81.433335 276.691051 
L 82.519137 278.141159 
L 83.604938 274.946586 
L 84.690739 259.931784 
L 85.77654 271.453196 
L 86.862341 253.620012 
L 87.948142 249.779247 
L 89.033943 250.220443 
L 90.119745 250.21289 
L 91.205546 246.223822 
L 92.291347 256.519158 
L 93.377148 222.84638 
L 94.462949 222.602007 
L 95.54875 241.010799 
L 96.634552 249.778583 
L 97.720353 264.091571 
L 98.806154 246.337412 
L 99.891955 220.412055 
L 100.977756 256.323914 
L 102.063557 220.449032 
L 103.149358 254.077062 
L 104.23516 254.799859 
L 105.320961 244.646473 
L 106.406762 253.911218 
L 107.492563 264.367067 
L 108.578364 237.485981 
L 109.664165 239.922823 
L 110.749967 236.253886 
L 111.835768 214.531072 
L 112.921569 223.326957 
L 114.00737 209.626048 
L 115.093171 231.407539 
L 116.178972 246.839074 
L 117.264773 222.190201 
L 118.350575 216.79369 
L 119.436376 215.590188 
L 120.522177 225.763794 
L 121.607978 227.103774 
L 122.693779 227.424882 
L 123.77958 235.174647 
L 124.865382 235.162174 
L 125.951183 223.878319 
L 127.036984 227.386039 
L 128.122785 237.030258 
L 129.208586 227.022609 
L 130.294387 212.309197 
L 131.380189 223.91255 
L 132.46599 228.35133 
L 133.551791 209.039971 
L 134.637592 208.942992 
L 135.723393 232.044743 
L 136.809194 227.525815 
L 137.894995 220.311504 
L 138.980797 219.938971 
L 140.066598 224.024498 
L 141.152399 220.351194 
L 142.2382 211.333281 
L 143.324001 208.347976 
L 144.409802 206.616733 
L 145.495604 213.520253 
L 146.581405 206.074545 
L 147.667206 232.135563 
L 148.753007 213.003803 
L 149.838808 224.530644 
L 150.924609 224.836941 
L 152.01041 213.142982 
L 153.096212 199.333462 
L 154.182013 203.162059 
L 155.267814 221.166708 
L 156.353615 241.097234 
L 157.439416 237.203804 
L 158.525217 220.061141 
L 159.611019 207.113922 
L 160.69682 220.12666 
L 161.782621 217.614871 
L 162.868422 238.577016 
L 163.954223 202.237045 
L 165.040024 202.869356 
L 166.125825 207.71366 
L 167.211627 199.591352 
L 168.297428 219.933032 
L 169.383229 227.367644 
L 170.46903 211.659629 
L 171.554831 218.788171 
L 172.640632 222.251778 
L 173.726434 254.206105 
L 174.812235 248.955606 
L 175.898036 207.985536 
L 176.983837 231.563655 
L 178.069638 217.635689 
L 179.155439 242.831504 
L 180.24124 213.082476 
L 181.327042 221.567898 
L 182.412843 233.776695 
L 183.498644 228.979234 
L 185.670246 246.935524 
L 186.756047 235.51954 
L 187.841849 232.805993 
L 188.92765 259.098953 
L 190.013451 235.054082 
L 191.099252 238.995075 
L 192.185053 228.354841 
L 193.270854 227.115327 
L 194.356656 223.260467 
L 195.442457 220.868085 
L 196.528258 233.684042 
L 197.614059 259.711482 
L 198.69986 250.126538 
L 199.785661 257.510429 
L 200.871462 233.810906 
L 201.957264 242.223793 
L 203.043065 242.939484 
L 204.128866 221.073512 
L 205.214667 232.514312 
L 206.300468 230.932537 
L 207.386269 244.005108 
L 208.472071 237.369028 
L 209.557872 246.624479 
L 210.643673 240.955422 
L 211.729474 222.434452 
L 212.815275 250.809005 
L 213.901076 242.945056 
L 214.986877 225.645615 
L 216.072679 219.11229 
L 217.15848 246.666566 
L 218.244281 212.691627 
L 219.330082 240.13753 
L 220.415883 247.215835 
L 221.501684 217.745927 
L 222.587486 235.046532 
L 223.673287 230.75395 
L 224.759088 217.289123 
L 225.844889 184.458629 
L 226.93069 227.846968 
L 228.016491 239.738069 
L 229.102292 230.813057 
L 230.188094 235.04887 
L 231.273895 252.785011 
L 232.359696 264.325262 
L 233.445497 245.479764 
L 234.531298 236.15897 
L 235.617099 251.725507 
L 236.702901 241.250975 
L 237.788702 270.16181 
L 238.874503 251.256771 
L 239.960304 259.651356 
L 241.046105 271.319158 
L 242.131906 261.904071 
L 243.217708 263.153236 
L 244.303509 253.879713 
L 245.38931 249.812102 
L 246.475111 267.781677 
L 247.560912 236.963828 
L 248.646713 254.980694 
L 249.732514 266.449851 
L 250.818316 260.704182 
L 251.904117 246.441185 
L 252.989918 253.577397 
L 254.075719 231.325965 
L 255.16152 243.277761 
L 256.247321 245.748165 
L 257.333123 267.035648 
L 258.418924 242.322085 
L 259.504725 251.689211 
L 260.590526 236.203717 
L 261.676327 268.261186 
L 262.762128 232.431318 
L 263.847929 223.429218 
L 264.933731 241.97541 
L 266.019532 265.952181 
L 267.105333 256.022519 
L 268.191134 237.518385 
L 269.276935 235.200966 
L 270.362736 248.56258 
L 271.448538 239.862192 
L 272.534339 250.146088 
L 273.62014 229.871077 
L 274.705941 225.717113 
L 275.791742 235.533567 
L 276.877543 255.876081 
L 277.963344 246.609032 
L 279.049146 246.88094 
L 280.134947 233.175196 
L 281.220748 221.908503 
L 282.306549 237.163586 
L 283.39235 255.790329 
L 284.478151 244.743721 
L 285.563953 239.832519 
L 286.649754 257.635075 
L 287.735555 215.148817 
L 288.821356 246.165552 
L 289.907157 242.217605 
L 290.992958 258.683425 
L 292.07876 249.294457 
L 293.164561 224.186906 
L 294.250362 229.107873 
L 295.336163 235.112374 
L 296.421964 229.917235 
L 297.507765 232.049851 
L 298.593566 252.932318 
L 299.679368 237.461293 
L 300.765169 236.686382 
L 301.85097 249.534249 
L 302.936771 238.141583 
L 304.022572 245.758277 
L 305.108373 252.35919 
L 306.194175 242.417052 
L 307.279976 237.029294 
L 308.365777 206.531692 
L 309.451578 218.878968 
L 310.537379 218.026056 
L 311.62318 239.122522 
L 312.708981 200.662329 
L 313.794783 212.286352 
L 314.880584 232.043043 
L 315.966385 221.841772 
L 317.052186 238.600798 
L 318.137987 203.478967 
L 319.223788 210.780066 
L 320.30959 212.930998 
L 321.395391 212.253144 
L 322.481192 212.636243 
L 323.566993 224.24532 
L 324.652794 228.255521 
L 325.738595 246.438249 
L 326.824396 203.610586 
L 327.910198 180.803404 
L 328.995999 228.09163 
L 330.0818 230.63586 
L 331.167601 197.341448 
L 332.253402 242.081849 
L 333.339203 211.768876 
L 334.425005 213.964997 
L 335.510806 234.955172 
L 336.596607 210.407984 
L 337.682408 217.134965 
L 338.768209 236.958121 
L 339.85401 221.310224 
L 340.939811 196.576441 
L 342.025613 232.436418 
L 343.111414 214.663857 
L 344.197215 217.59776 
L 345.283016 226.180123 
L 346.368817 231.57517 
L 347.454618 233.068276 
L 348.54042 209.232707 
L 349.626221 227.812285 
L 350.712022 249.790005 
L 351.797823 225.59679 
L 352.883624 209.637402 
L 353.969425 223.856042 
L 355.055227 223.192305 
L 356.141028 220.720888 
L 357.226829 243.459606 
L 358.31263 219.666563 
L 359.398431 231.943883 
L 360.484232 232.12841 
L 361.570033 235.119073 
L 362.655835 260.853933 
L 363.741636 217.928312 
L 364.827437 200.66932 
L 365.913238 232.309224 
L 366.999039 214.40775 
L 368.08484 230.992624 
L 369.170642 233.977684 
L 370.256443 228.038671 
L 371.342244 216.117602 
L 372.428045 240.948668 
L 373.513846 252.112993 
L 374.599647 205.887779 
L 376.77125 241.254576 
L 377.857051 222.902893 
L 378.942852 257.910162 
L 380.028653 220.421847 
L 381.114454 202.578246 
L 382.200255 227.97541 
L 383.286057 199.052916 
L 384.371858 221.635314 
L 385.457659 233.883805 
L 386.54346 225.993907 
L 387.629261 227.960983 
L 388.715062 261.486049 
L 389.800863 234.981111 
L 390.886665 221.796941 
L 391.972466 193.141734 
L 393.058267 214.041314 
L 394.144068 217.317063 
L 395.229869 226.2635 
L 396.31567 225.915386 
L 397.401472 235.901798 
L 398.487273 219.366293 
L 398.487273 219.366293 
" style="fill:none;stroke:#008000;stroke-dasharray:9.6,2.4,1.5,2.4;stroke-dashoffset:0;stroke-width:1.5;"/>
   </g>
   <g id="line2d_33">
    <path clip-path="url(#pccdc6d0cb2)" d="M 73.832727 264.431321 
L 74.918528 249.684419 
L 76.00433 239.412352 
L 77.090131 232.253537 
L 78.175932 217.549783 
L 79.261733 210.06584 
L 80.347534 211.380504 
L 81.433335 205.237653 
L 82.519137 195.432834 
L 84.690739 195.050188 
L 85.77654 188.29355 
L 86.862341 177.562346 
L 87.948142 175.316336 
L 89.033943 171.421714 
L 90.119745 155.53563 
L 91.205546 154.044101 
L 92.291347 157.647435 
L 93.377148 157.903006 
L 94.462949 146.70675 
L 95.54875 151.350648 
L 96.634552 135.239002 
L 97.720353 150.505944 
L 98.806154 157.471829 
L 99.891955 150.502518 
L 100.977756 156.387687 
L 102.063557 130.700424 
L 103.149358 153.880049 
L 104.23516 154.91625 
L 105.320961 146.798459 
L 106.406762 152.230608 
L 107.492563 155.077562 
L 108.578364 141.499445 
L 109.664165 157.665676 
L 110.749967 153.888252 
L 111.835768 151.964005 
L 112.921569 150.73835 
L 114.00737 137.944143 
L 115.093171 145.550572 
L 117.264773 148.11599 
L 118.350575 139.326712 
L 119.436376 140.665939 
L 120.522177 154.253721 
L 121.607978 141.785335 
L 122.693779 151.616735 
L 123.77958 147.509814 
L 124.865382 150.659198 
L 125.951183 132.763377 
L 127.036984 143.062379 
L 128.122785 121.159091 
L 129.208586 123.925296 
L 130.294387 121.704151 
L 131.380189 123.347418 
L 132.46599 127.236941 
L 133.551791 113.860339 
L 134.637592 113.157841 
L 135.723393 118.547392 
L 136.809194 108.590883 
L 137.894995 119.042359 
L 138.980797 100.898715 
L 140.066598 106.819426 
L 141.152399 115.213195 
L 142.2382 96.874963 
L 143.324001 96.420841 
L 144.409802 94.8269 
L 145.495604 91.649713 
L 146.581405 112.354543 
L 147.667206 105.062572 
L 148.753007 105.554718 
L 149.838808 100.927896 
L 150.924609 99.206988 
L 152.01041 94.36632 
L 153.096212 91.75085 
L 154.182013 97.416074 
L 155.267814 93.930925 
L 156.353615 120.400552 
L 157.439416 93.67813 
L 158.525217 87.445401 
L 159.611019 91.086783 
L 160.69682 79.074295 
L 161.782621 80.287593 
L 162.868422 109.477555 
L 163.954223 72.081952 
L 165.040024 91.220007 
L 166.125825 83.071638 
L 167.211627 88.902632 
L 168.297428 117.588663 
L 169.383229 106.600787 
L 170.46903 66.581753 
L 171.554831 97.918304 
L 172.640632 69.037065 
L 173.726434 119.033678 
L 174.812235 109.311676 
L 175.898036 91.43152 
L 176.983837 101.013497 
L 178.069638 90.425424 
L 179.155439 95.806572 
L 180.24124 79.837572 
L 181.327042 95.262292 
L 182.412843 95.685092 
L 183.498644 106.303358 
L 184.584445 102.872845 
L 185.670246 91.999598 
L 186.756047 110.112357 
L 187.841849 109.242655 
L 188.92765 96.325491 
L 190.013451 95.331537 
L 191.099252 84.063841 
L 192.185053 92.301599 
L 193.270854 101.728334 
L 194.356656 79.766041 
L 196.528258 96.982675 
L 197.614059 119.130046 
L 198.69986 113.593308 
L 199.785661 108.74114 
L 200.871462 82.081956 
L 201.957264 108.640994 
L 203.043065 104.922129 
L 204.128866 61.067846 
L 205.214667 90.436054 
L 206.300468 73.804259 
L 207.386269 95.352155 
L 208.472071 90.941815 
L 209.557872 100.954132 
L 210.643673 104.557923 
L 211.729474 93.327713 
L 212.815275 114.230931 
L 213.901076 123.401995 
L 214.986877 95.468414 
L 216.072679 101.888882 
L 217.15848 102.928162 
L 218.244281 100.826732 
L 219.330082 105.082751 
L 220.415883 107.758235 
L 221.501684 107.04635 
L 222.587486 105.976157 
L 223.673287 121.894015 
L 224.759088 99.282962 
L 225.844889 87.878679 
L 226.93069 86.325493 
L 228.016491 87.324181 
L 229.102292 95.194443 
L 230.188094 113.653385 
L 231.273895 125.574819 
L 232.359696 139.576654 
L 233.445497 112.239258 
L 234.531298 98.252164 
L 235.617099 120.663843 
L 236.702901 102.078224 
L 237.788702 129.517956 
L 238.874503 134.911095 
L 239.960304 84.041126 
L 241.046105 108.306512 
L 242.131906 129.447701 
L 243.217708 104.504281 
L 244.303509 112.390999 
L 245.38931 116.210088 
L 246.475111 106.828809 
L 247.560912 99.676129 
L 248.646713 100.082466 
L 249.732514 114.897782 
L 250.818316 115.037582 
L 251.904117 102.960825 
L 252.989918 95.056218 
L 254.075719 99.662175 
L 255.16152 114.450327 
L 256.247321 95.316327 
L 257.333123 103.522696 
L 258.418924 92.104331 
L 259.504725 101.248852 
L 260.590526 84.977667 
L 261.676327 115.505612 
L 262.762128 93.074937 
L 263.847929 103.890543 
L 264.933731 95.614908 
L 266.019532 107.344373 
L 267.105333 126.005136 
L 268.191134 130.059568 
L 269.276935 125.73513 
L 270.362736 116.263107 
L 271.448538 97.732084 
L 272.534339 92.748519 
L 273.62014 108.676189 
L 274.705941 110.469267 
L 275.791742 86.810629 
L 276.877543 99.823118 
L 277.963344 91.052379 
L 279.049146 103.949991 
L 280.134947 88.923202 
L 281.220748 97.061302 
L 282.306549 95.88109 
L 283.39235 115.946964 
L 284.478151 85.086182 
L 285.563953 105.875416 
L 286.649754 118.745613 
L 287.735555 95.414328 
L 288.821356 107.049452 
L 289.907157 84.270689 
L 290.992958 113.44885 
L 292.07876 84.223791 
L 293.164561 94.700863 
L 294.250362 108.161186 
L 295.336163 109.692588 
L 296.421964 111.743013 
L 297.507765 90.889882 
L 298.593566 121.728586 
L 299.679368 107.208433 
L 301.85097 118.461671 
L 302.936771 123.106967 
L 304.022572 126.066456 
L 305.108373 114.947924 
L 306.194175 107.19876 
L 307.279976 114.639452 
L 308.365777 99.594485 
L 309.451578 103.006342 
L 310.537379 117.672347 
L 311.62318 113.640032 
L 312.708981 79.219478 
L 313.794783 112.091057 
L 314.880584 121.781918 
L 315.966385 104.633959 
L 317.052186 105.854898 
L 318.137987 115.744428 
L 319.223788 107.212042 
L 320.30959 108.703453 
L 321.395391 89.626351 
L 322.481192 99.574597 
L 323.566993 120.754022 
L 324.652794 98.551821 
L 325.738595 96.825128 
L 326.824396 98.994797 
L 327.910198 78.867937 
L 328.995999 103.895605 
L 330.0818 122.974204 
L 331.167601 99.686212 
L 332.253402 93.822987 
L 333.339203 82.451707 
L 334.425005 92.444789 
L 335.510806 116.692746 
L 336.596607 94.369336 
L 337.682408 84.259689 
L 338.768209 102.575092 
L 339.85401 92.146882 
L 340.939811 92.520016 
L 342.025613 102.985581 
L 343.111414 80.827306 
L 344.197215 113.658053 
L 345.283016 108.341689 
L 346.368817 102.240976 
L 347.454618 91.713238 
L 348.54042 72.320708 
L 349.626221 68.771751 
L 350.712022 101.736034 
L 351.797823 92.405383 
L 352.883624 112.739575 
L 353.969425 108.098121 
L 355.055227 108.158142 
L 356.141028 108.931761 
L 357.226829 117.68632 
L 358.31263 105.052853 
L 359.398431 121.660617 
L 360.484232 102.371607 
L 361.570033 126.126272 
L 362.655835 114.212413 
L 363.741636 98.966192 
L 364.827437 78.233651 
L 365.913238 101.126008 
L 366.999039 93.981997 
L 368.08484 97.818027 
L 369.170642 86.467151 
L 370.256443 112.793173 
L 371.342244 101.787205 
L 372.428045 106.981606 
L 373.513846 109.328624 
L 374.599647 117.260357 
L 375.685448 99.916433 
L 376.77125 112.919796 
L 377.857051 108.107097 
L 378.942852 115.686385 
L 380.028653 109.867803 
L 381.114454 89.060993 
L 382.200255 93.521786 
L 383.286057 88.097078 
L 384.371858 103.042497 
L 385.457659 81.504654 
L 386.54346 111.239382 
L 387.629261 103.95251 
L 388.715062 110.797322 
L 389.800863 80.635076 
L 390.886665 98.610858 
L 391.972466 78.094237 
L 393.058267 81.538533 
L 394.144068 110.428863 
L 395.229869 100.31451 
L 396.31567 121.220741 
L 397.401472 123.633649 
L 398.487273 117.301993 
L 398.487273 117.301993 
" style="fill:none;stroke:#008000;stroke-dasharray:9.6,2.4,1.5,2.4;stroke-dashoffset:0;stroke-width:1.5;"/>
   </g>
   <g id="line2d_34">
    <path clip-path="url(#pccdc6d0cb2)" d="M 73.832727 254.164195 
L 74.918528 249.779118 
L 76.00433 230.73612 
L 77.090131 229.584718 
L 78.175932 209.823417 
L 79.261733 201.08697 
L 80.347534 199.714219 
L 81.433335 198.881118 
L 82.519137 194.655178 
L 83.604938 186.809327 
L 84.690739 181.316814 
L 85.77654 183.482514 
L 86.862341 174.041011 
L 87.948142 158.873145 
L 89.033943 154.318145 
L 90.119745 140.34051 
L 91.205546 149.778588 
L 92.291347 150.234813 
L 93.377148 153.759058 
L 94.462949 147.679132 
L 95.54875 150.009359 
L 96.634552 140.262642 
L 97.720353 149.689486 
L 98.806154 146.245108 
L 99.891955 142.265888 
L 100.977756 140.624249 
L 102.063557 134.508302 
L 103.149358 146.538542 
L 104.23516 152.705083 
L 105.320961 151.770062 
L 106.406762 147.395562 
L 107.492563 145.146231 
L 108.578364 148.959206 
L 109.664165 148.23287 
L 110.749967 144.896082 
L 111.835768 150.143295 
L 112.921569 145.370863 
L 114.00737 144.299395 
L 115.093171 141.079773 
L 116.178972 147.765008 
L 117.264773 145.789259 
L 118.350575 145.779133 
L 119.436376 142.200716 
L 120.522177 151.595898 
L 121.607978 142.797828 
L 122.693779 146.043811 
L 124.865382 122.993544 
L 125.951183 106.728895 
L 127.036984 115.142837 
L 128.122785 90.636504 
L 129.208586 92.843556 
L 130.294387 99.48728 
L 131.380189 88.501191 
L 132.46599 96.06352 
L 133.551791 88.321703 
L 134.637592 100.257081 
L 135.723393 98.481326 
L 136.809194 88.831564 
L 137.894995 108.252687 
L 138.980797 84.949498 
L 140.066598 89.188457 
L 141.152399 83.612214 
L 142.2382 82.060364 
L 143.324001 82.809563 
L 144.409802 84.508863 
L 145.495604 83.92627 
L 146.581405 100.407409 
L 148.753007 81.651927 
L 149.838808 97.47876 
L 150.924609 81.32917 
L 152.01041 83.191737 
L 153.096212 78.089567 
L 154.182013 89.197503 
L 155.267814 80.619605 
L 156.353615 82.973835 
L 157.439416 78.341366 
L 158.525217 89.345811 
L 159.611019 84.430451 
L 160.69682 67.559918 
L 161.782621 62.118797 
L 162.868422 100.379093 
L 163.954223 67.655304 
L 165.040024 75.095589 
L 166.125825 79.837081 
L 167.211627 91.865232 
L 168.297428 97.723818 
L 169.383229 93.411254 
L 170.46903 61.824766 
L 171.554831 86.955797 
L 172.640632 70.750178 
L 173.726434 104.304615 
L 174.812235 102.963205 
L 175.898036 82.442202 
L 176.983837 87.482782 
L 178.069638 85.160248 
L 179.155439 81.65858 
L 180.24124 87.015509 
L 181.327042 81.291794 
L 182.412843 69.385998 
L 183.498644 76.817256 
L 184.584445 90.36066 
L 185.670246 91.312246 
L 186.756047 98.871973 
L 187.841849 89.241026 
L 188.92765 77.088564 
L 190.013451 90.027015 
L 191.099252 73.434217 
L 193.270854 99.640608 
L 194.356656 76.229628 
L 195.442457 82.205727 
L 196.528258 74.727497 
L 197.614059 88.604819 
L 198.69986 93.20607 
L 199.785661 90.825531 
L 200.871462 80.159694 
L 201.957264 83.307537 
L 203.043065 85.447398 
L 204.128866 61.889636 
L 205.214667 72.932736 
L 206.300468 75.119994 
L 207.386269 71.676918 
L 208.472071 60.348694 
L 209.557872 78.154484 
L 210.643673 91.44537 
L 212.815275 68.591435 
L 213.901076 88.769685 
L 214.986877 74.435151 
L 216.072679 71.889036 
L 217.15848 70.764538 
L 218.244281 86.052938 
L 219.330082 71.630128 
L 220.415883 88.025291 
L 221.501684 76.211858 
L 222.587486 82.551398 
L 223.673287 93.352856 
L 224.759088 81.362525 
L 225.844889 74.464522 
L 226.93069 71.308748 
L 228.016491 82.051731 
L 229.102292 73.820665 
L 230.188094 97.997754 
L 231.273895 93.139724 
L 232.359696 107.379494 
L 233.445497 94.458189 
L 234.531298 76.172481 
L 235.617099 92.224754 
L 236.702901 73.351546 
L 237.788702 95.769452 
L 238.874503 97.973743 
L 239.960304 75.278772 
L 241.046105 82.885498 
L 242.131906 75.813145 
L 243.217708 53.568 
L 244.303509 85.411006 
L 245.38931 90.987907 
L 246.475111 79.359295 
L 247.560912 81.820873 
L 248.646713 73.942056 
L 249.732514 88.725758 
L 250.818316 90.403924 
L 251.904117 81.373431 
L 252.989918 63.183358 
L 254.075719 84.725752 
L 255.16152 93.073539 
L 256.247321 82.682006 
L 257.333123 77.685708 
L 258.418924 80.519632 
L 259.504725 83.769205 
L 260.590526 67.882685 
L 261.676327 74.357272 
L 262.762128 68.867409 
L 263.847929 98.356591 
L 264.933731 86.099115 
L 266.019532 77.123646 
L 267.105333 77.187364 
L 268.191134 102.167065 
L 269.276935 100.69889 
L 270.362736 75.672022 
L 271.448538 84.457604 
L 272.534339 69.877128 
L 273.62014 96.686427 
L 274.705941 93.621667 
L 275.791742 56.113141 
L 276.877543 79.253638 
L 277.963344 64.944738 
L 279.049146 73.911452 
L 280.134947 73.176863 
L 281.220748 82.305405 
L 282.306549 80.992568 
L 283.39235 87.612129 
L 284.478151 70.416658 
L 285.563953 98.734197 
L 286.649754 106.915188 
L 287.735555 81.891288 
L 288.821356 96.913342 
L 289.907157 64.048824 
L 290.992958 95.571011 
L 292.07876 72.065274 
L 293.164561 84.670139 
L 294.250362 99.534815 
L 295.336163 104.778016 
L 296.421964 102.660322 
L 297.507765 87.690823 
L 298.593566 102.358029 
L 299.679368 95.233053 
L 301.85097 90.688414 
L 302.936771 113.629268 
L 305.108373 95.704199 
L 306.194175 88.541881 
L 307.279976 90.863118 
L 308.365777 87.416066 
L 309.451578 95.767155 
L 310.537379 94.298832 
L 311.62318 91.673606 
L 312.708981 78.249087 
L 313.794783 95.164441 
L 314.880584 108.458025 
L 315.966385 100.818516 
L 317.052186 87.566152 
L 318.137987 103.846198 
L 319.223788 100.711035 
L 320.30959 105.245607 
L 321.395391 85.718159 
L 322.481192 85.281591 
L 323.566993 112.026476 
L 324.652794 101.785763 
L 325.738595 84.642741 
L 326.824396 90.225619 
L 327.910198 83.901509 
L 330.0818 113.036516 
L 331.167601 89.467725 
L 332.253402 84.5018 
L 333.339203 81.200699 
L 334.425005 85.232251 
L 335.510806 97.694723 
L 336.596607 88.884774 
L 337.682408 82.959731 
L 338.768209 100.13528 
L 339.85401 88.423024 
L 340.939811 78.727023 
L 342.025613 84.646801 
L 343.111414 77.712687 
L 344.197215 98.301924 
L 345.283016 88.758349 
L 346.368817 99.36411 
L 347.454618 79.342367 
L 349.626221 63.091441 
L 350.712022 91.561466 
L 351.797823 81.252462 
L 352.883624 111.037214 
L 353.969425 88.747968 
L 355.055227 108.690884 
L 356.141028 96.999462 
L 357.226829 104.857014 
L 358.31263 85.538139 
L 359.398431 112.855703 
L 360.484232 69.090695 
L 361.570033 116.187271 
L 362.655835 94.472678 
L 363.741636 93.190586 
L 364.827437 86.069059 
L 365.913238 86.952035 
L 366.999039 95.443637 
L 368.08484 88.519056 
L 369.170642 84.478352 
L 370.256443 98.13291 
L 371.342244 94.03429 
L 372.428045 93.79503 
L 373.513846 92.918916 
L 374.599647 92.958124 
L 375.685448 84.795303 
L 376.77125 92.717106 
L 377.857051 92.126094 
L 378.942852 97.666547 
L 380.028653 105.948574 
L 381.114454 73.037151 
L 382.200255 86.543914 
L 383.286057 72.098196 
L 384.371858 84.657963 
L 385.457659 81.014757 
L 386.54346 92.970032 
L 387.629261 91.577263 
L 388.715062 100.8098 
L 389.800863 80.011812 
L 390.886665 94.943349 
L 391.972466 84.861316 
L 393.058267 85.417056 
L 394.144068 117.804505 
L 395.229869 97.45634 
L 396.31567 117.163955 
L 397.401472 108.835228 
L 398.487273 114.980696 
L 398.487273 114.980696 
" style="fill:none;stroke:#ff0000;stroke-linecap:square;stroke-width:1.5;"/>
   </g>
   <g id="patch_3">
    <path d="M 57.6 307.584 
L 57.6 41.472 
" style="fill:none;stroke:#000000;stroke-linecap:square;stroke-linejoin:miter;stroke-width:0.8;"/>
   </g>
   <g id="patch_4">
    <path d="M 414.72 307.584 
L 414.72 41.472 
" style="fill:none;stroke:#000000;stroke-linecap:square;stroke-linejoin:miter;stroke-width:0.8;"/>
   </g>
   <g id="patch_5">
    <path d="M 57.6 307.584 
L 414.72 307.584 
" style="fill:none;stroke:#000000;stroke-linecap:square;stroke-linejoin:miter;stroke-width:0.8;"/>
   </g>
   <g id="patch_6">
    <path d="M 57.6 41.472 
L 414.72 41.472 
" style="fill:none;stroke:#000000;stroke-linecap:square;stroke-linejoin:miter;stroke-width:0.8;"/>
   </g>
   <g id="text_18">
    <!-- Population's average and best fitness -->
    <defs>
     <path d="M 19.671875 64.796875 
L 19.671875 37.40625 
L 32.078125 37.40625 
Q 38.96875 37.40625 42.71875 40.96875 
Q 46.484375 44.53125 46.484375 51.125 
Q 46.484375 57.671875 42.71875 61.234375 
Q 38.96875 64.796875 32.078125 64.796875 
z
M 9.8125 72.90625 
L 32.078125 72.90625 
Q 44.34375 72.90625 50.609375 67.359375 
Q 56.890625 61.8125 56.890625 51.125 
Q 56.890625 40.328125 50.609375 34.8125 
Q 44.34375 29.296875 32.078125 29.296875 
L 19.671875 29.296875 
L 19.671875 0 
L 9.8125 0 
z
" id="DejaVuSans-80"/>
     <path d="M 18.109375 8.203125 
L 18.109375 -20.796875 
L 9.078125 -20.796875 
L 9.078125 54.6875 
L 18.109375 54.6875 
L 18.109375 46.390625 
Q 20.953125 51.265625 25.265625 53.625 
Q 29.59375 56 35.59375 56 
Q 45.5625 56 51.78125 48.09375 
Q 58.015625 40.1875 58.015625 27.296875 
Q 58.015625 14.40625 51.78125 6.484375 
Q 45.5625 -1.421875 35.59375 -1.421875 
Q 29.59375 -1.421875 25.265625 0.953125 
Q 20.953125 3.328125 18.109375 8.203125 
z
M 48.6875 27.296875 
Q 48.6875 37.203125 44.609375 42.84375 
Q 40.53125 48.484375 33.40625 48.484375 
Q 26.265625 48.484375 22.1875 42.84375 
Q 18.109375 37.203125 18.109375 27.296875 
Q 18.109375 17.390625 22.1875 11.75 
Q 26.265625 6.109375 33.40625 6.109375 
Q 40.53125 6.109375 44.609375 11.75 
Q 48.6875 17.390625 48.6875 27.296875 
z
" id="DejaVuSans-112"/>
     <path d="M 8.5 21.578125 
L 8.5 54.6875 
L 17.484375 54.6875 
L 17.484375 21.921875 
Q 17.484375 14.15625 20.5 10.265625 
Q 23.53125 6.390625 29.59375 6.390625 
Q 36.859375 6.390625 41.078125 11.03125 
Q 45.3125 15.671875 45.3125 23.6875 
L 45.3125 54.6875 
L 54.296875 54.6875 
L 54.296875 0 
L 45.3125 0 
L 45.3125 8.40625 
Q 42.046875 3.421875 37.71875 1 
Q 33.40625 -1.421875 27.6875 -1.421875 
Q 18.265625 -1.421875 13.375 4.4375 
Q 8.5 10.296875 8.5 21.578125 
z
M 31.109375 56 
z
" id="DejaVuSans-117"/>
     <path d="M 9.421875 75.984375 
L 18.40625 75.984375 
L 18.40625 0 
L 9.421875 0 
z
" id="DejaVuSans-108"/>
     <path d="M 17.921875 72.90625 
L 17.921875 45.796875 
L 9.625 45.796875 
L 9.625 72.90625 
z
" id="DejaVuSans-39"/>
     <path id="DejaVuSans-32"/>
     <path d="M 2.984375 54.6875 
L 12.5 54.6875 
L 29.59375 8.796875 
L 46.6875 54.6875 
L 56.203125 54.6875 
L 35.6875 0 
L 23.484375 0 
z
" id="DejaVuSans-118"/>
     <path d="M 45.40625 27.984375 
Q 45.40625 37.75 41.375 43.109375 
Q 37.359375 48.484375 30.078125 48.484375 
Q 22.859375 48.484375 18.828125 43.109375 
Q 14.796875 37.75 14.796875 27.984375 
Q 14.796875 18.265625 18.828125 12.890625 
Q 22.859375 7.515625 30.078125 7.515625 
Q 37.359375 7.515625 41.375 12.890625 
Q 45.40625 18.265625 45.40625 27.984375 
z
M 54.390625 6.78125 
Q 54.390625 -7.171875 48.1875 -13.984375 
Q 42 -20.796875 29.203125 -20.796875 
Q 24.46875 -20.796875 20.265625 -20.09375 
Q 16.0625 -19.390625 12.109375 -17.921875 
L 12.109375 -9.1875 
Q 16.0625 -11.328125 19.921875 -12.34375 
Q 23.78125 -13.375 27.78125 -13.375 
Q 36.625 -13.375 41.015625 -8.765625 
Q 45.40625 -4.15625 45.40625 5.171875 
L 45.40625 9.625 
Q 42.625 4.78125 38.28125 2.390625 
Q 33.9375 0 27.875 0 
Q 17.828125 0 11.671875 7.65625 
Q 5.515625 15.328125 5.515625 27.984375 
Q 5.515625 40.671875 11.671875 48.328125 
Q 17.828125 56 27.875 56 
Q 33.9375 56 38.28125 53.609375 
Q 42.625 51.21875 45.40625 46.390625 
L 45.40625 54.6875 
L 54.390625 54.6875 
z
" id="DejaVuSans-103"/>
     <path d="M 45.40625 46.390625 
L 45.40625 75.984375 
L 54.390625 75.984375 
L 54.390625 0 
L 45.40625 0 
L 45.40625 8.203125 
Q 42.578125 3.328125 38.25 0.953125 
Q 33.9375 -1.421875 27.875 -1.421875 
Q 17.96875 -1.421875 11.734375 6.484375 
Q 5.515625 14.40625 5.515625 27.296875 
Q 5.515625 40.1875 11.734375 48.09375 
Q 17.96875 56 27.875 56 
Q 33.9375 56 38.25 53.625 
Q 42.578125 51.265625 45.40625 46.390625 
z
M 14.796875 27.296875 
Q 14.796875 17.390625 18.875 11.75 
Q 22.953125 6.109375 30.078125 6.109375 
Q 37.203125 6.109375 41.296875 11.75 
Q 45.40625 17.390625 45.40625 27.296875 
Q 45.40625 37.203125 41.296875 42.84375 
Q 37.203125 48.484375 30.078125 48.484375 
Q 22.953125 48.484375 18.875 42.84375 
Q 14.796875 37.203125 14.796875 27.296875 
z
" id="DejaVuSans-100"/>
     <path d="M 48.6875 27.296875 
Q 48.6875 37.203125 44.609375 42.84375 
Q 40.53125 48.484375 33.40625 48.484375 
Q 26.265625 48.484375 22.1875 42.84375 
Q 18.109375 37.203125 18.109375 27.296875 
Q 18.109375 17.390625 22.1875 11.75 
Q 26.265625 6.109375 33.40625 6.109375 
Q 40.53125 6.109375 44.609375 11.75 
Q 48.6875 17.390625 48.6875 27.296875 
z
M 18.109375 46.390625 
Q 20.953125 51.265625 25.265625 53.625 
Q 29.59375 56 35.59375 56 
Q 45.5625 56 51.78125 48.09375 
Q 58.015625 40.1875 58.015625 27.296875 
Q 58.015625 14.40625 51.78125 6.484375 
Q 45.5625 -1.421875 35.59375 -1.421875 
Q 29.59375 -1.421875 25.265625 0.953125 
Q 20.953125 3.328125 18.109375 8.203125 
L 18.109375 0 
L 9.078125 0 
L 9.078125 75.984375 
L 18.109375 75.984375 
z
" id="DejaVuSans-98"/>
     <path d="M 37.109375 75.984375 
L 37.109375 68.5 
L 28.515625 68.5 
Q 23.6875 68.5 21.796875 66.546875 
Q 19.921875 64.59375 19.921875 59.515625 
L 19.921875 54.6875 
L 34.71875 54.6875 
L 34.71875 47.703125 
L 19.921875 47.703125 
L 19.921875 0 
L 10.890625 0 
L 10.890625 47.703125 
L 2.296875 47.703125 
L 2.296875 54.6875 
L 10.890625 54.6875 
L 10.890625 58.5 
Q 10.890625 67.625 15.140625 71.796875 
Q 19.390625 75.984375 28.609375 75.984375 
z
" id="DejaVuSans-102"/>
    </defs>
    <g transform="translate(123.315 35.472)scale(0.12 -0.12)">
     <use xlink:href="#DejaVuSans-80"/>
     <use x="60.255859" xlink:href="#DejaVuSans-111"/>
     <use x="121.4375" xlink:href="#DejaVuSans-112"/>
     <use x="184.914062" xlink:href="#DejaVuSans-117"/>
     <use x="248.292969" xlink:href="#DejaVuSans-108"/>
     <use x="276.076172" xlink:href="#DejaVuSans-97"/>
     <use x="337.355469" xlink:href="#DejaVuSans-116"/>
     <use x="376.564453" xlink:href="#DejaVuSans-105"/>
     <use x="404.347656" xlink:href="#DejaVuSans-111"/>
     <use x="465.529297" xlink:href="#DejaVuSans-110"/>
     <use x="528.908203" xlink:href="#DejaVuSans-39"/>
     <use x="556.398438" xlink:href="#DejaVuSans-115"/>
     <use x="608.498047" xlink:href="#DejaVuSans-32"/>
     <use x="640.285156" xlink:href="#DejaVuSans-97"/>
     <use x="701.564453" xlink:href="#DejaVuSans-118"/>
     <use x="760.744141" xlink:href="#DejaVuSans-101"/>
     <use x="822.267578" xlink:href="#DejaVuSans-114"/>
     <use x="863.380859" xlink:href="#DejaVuSans-97"/>
     <use x="924.660156" xlink:href="#DejaVuSans-103"/>
     <use x="988.136719" xlink:href="#DejaVuSans-101"/>
     <use x="1049.660156" xlink:href="#DejaVuSans-32"/>
     <use x="1081.447266" xlink:href="#DejaVuSans-97"/>
     <use x="1142.726562" xlink:href="#DejaVuSans-110"/>
     <use x="1206.105469" xlink:href="#DejaVuSans-100"/>
     <use x="1269.582031" xlink:href="#DejaVuSans-32"/>
     <use x="1301.369141" xlink:href="#DejaVuSans-98"/>
     <use x="1364.845703" xlink:href="#DejaVuSans-101"/>
     <use x="1426.369141" xlink:href="#DejaVuSans-115"/>
     <use x="1478.46875" xlink:href="#DejaVuSans-116"/>
     <use x="1517.677734" xlink:href="#DejaVuSans-32"/>
     <use x="1549.464844" xlink:href="#DejaVuSans-102"/>
     <use x="1584.669922" xlink:href="#DejaVuSans-105"/>
     <use x="1612.453125" xlink:href="#DejaVuSans-116"/>
     <use x="1651.662109" xlink:href="#DejaVuSans-110"/>
     <use x="1715.041016" xlink:href="#DejaVuSans-101"/>
     <use x="1776.564453" xlink:href="#DejaVuSans-115"/>
     <use x="1828.664062" xlink:href="#DejaVuSans-115"/>
    </g>
   </g>
   <g id="legend_1">
    <g id="patch_7">
     <path d="M 334.779375 302.584 
L 407.72 302.584 
Q 409.72 302.584 409.72 300.584 
L 409.72 242.8715 
Q 409.72 240.8715 407.72 240.8715 
L 334.779375 240.8715 
Q 332.779375 240.8715 332.779375 242.8715 
L 332.779375 300.584 
Q 332.779375 302.584 334.779375 302.584 
z
" style="fill:#ffffff;opacity:0.8;stroke:#cccccc;stroke-linejoin:miter;"/>
    </g>
    <g id="line2d_35">
     <path d="M 336.779375 248.969937 
L 356.779375 248.969937 
" style="fill:none;stroke:#0000ff;stroke-linecap:square;stroke-width:1.5;"/>
    </g>
    <g id="line2d_36"/>
    <g id="text_19">
     <!-- average -->
     <g transform="translate(364.779375 252.469937)scale(0.1 -0.1)">
      <use xlink:href="#DejaVuSans-97"/>
      <use x="61.279297" xlink:href="#DejaVuSans-118"/>
      <use x="120.458984" xlink:href="#DejaVuSans-101"/>
      <use x="181.982422" xlink:href="#DejaVuSans-114"/>
      <use x="223.095703" xlink:href="#DejaVuSans-97"/>
      <use x="284.375" xlink:href="#DejaVuSans-103"/>
      <use x="347.851562" xlink:href="#DejaVuSans-101"/>
     </g>
    </g>
    <g id="line2d_37">
     <path d="M 336.779375 263.648062 
L 356.779375 263.648062 
" style="fill:none;stroke:#008000;stroke-dasharray:9.6,2.4,1.5,2.4;stroke-dashoffset:0;stroke-width:1.5;"/>
    </g>
    <g id="line2d_38"/>
    <g id="text_20">
     <!-- -1 sd -->
     <defs>
      <path d="M 4.890625 31.390625 
L 31.203125 31.390625 
L 31.203125 23.390625 
L 4.890625 23.390625 
z
" id="DejaVuSans-45"/>
     </defs>
     <g transform="translate(364.779375 267.148062)scale(0.1 -0.1)">
      <use xlink:href="#DejaVuSans-45"/>
      <use x="36.083984" xlink:href="#DejaVuSans-49"/>
      <use x="99.707031" xlink:href="#DejaVuSans-32"/>
      <use x="131.494141" xlink:href="#DejaVuSans-115"/>
      <use x="183.59375" xlink:href="#DejaVuSans-100"/>
     </g>
    </g>
    <g id="line2d_39">
     <path d="M 336.779375 278.326187 
L 356.779375 278.326187 
" style="fill:none;stroke:#008000;stroke-dasharray:9.6,2.4,1.5,2.4;stroke-dashoffset:0;stroke-width:1.5;"/>
    </g>
    <g id="line2d_40"/>
    <g id="text_21">
     <!-- +1 sd -->
     <defs>
      <path d="M 46 62.703125 
L 46 35.5 
L 73.1875 35.5 
L 73.1875 27.203125 
L 46 27.203125 
L 46 0 
L 37.796875 0 
L 37.796875 27.203125 
L 10.59375 27.203125 
L 10.59375 35.5 
L 37.796875 35.5 
L 37.796875 62.703125 
z
" id="DejaVuSans-43"/>
     </defs>
     <g transform="translate(364.779375 281.826187)scale(0.1 -0.1)">
      <use xlink:href="#DejaVuSans-43"/>
      <use x="83.789062" xlink:href="#DejaVuSans-49"/>
      <use x="147.412109" xlink:href="#DejaVuSans-32"/>
      <use x="179.199219" xlink:href="#DejaVuSans-115"/>
      <use x="231.298828" xlink:href="#DejaVuSans-100"/>
     </g>
    </g>
    <g id="line2d_41">
     <path d="M 336.779375 293.004312 
L 356.779375 293.004312 
" style="fill:none;stroke:#ff0000;stroke-linecap:square;stroke-width:1.5;"/>
    </g>
    <g id="line2d_42"/>
    <g id="text_22">
     <!-- best -->
     <g transform="translate(364.779375 296.504312)scale(0.1 -0.1)">
      <use xlink:href="#DejaVuSans-98"/>
      <use x="63.476562" xlink:href="#DejaVuSans-101"/>
      <use x="125" xlink:href="#DejaVuSans-115"/>
      <use x="177.099609" xlink:href="#DejaVuSans-116"/>
     </g>
    </g>
   </g>
  </g>
 </g>
 <defs>
  <clipPath id="pccdc6d0cb2">
   <rect height="266.112" width="357.12" x="57.6" y="41.472"/>
  </clipPath>
 </defs>
</svg>
