<?xml version="1.0" encoding="UTF-8" standalone="no"?>
<!DOCTYPE svg PUBLIC "-//W3C//DTD SVG 1.1//EN"
 "http://www.w3.org/Graphics/SVG/1.1/DTD/svg11.dtd">
<!-- Generated by graphviz version 2.40.1 (20161225.0304)
 -->
<!-- Title: %3 Pages: 1 -->
<svg width="503pt" height="602pt"
 viewBox="0.00 0.00 503.38 602.27" xmlns="http://www.w3.org/2000/svg" xmlns:xlink="http://www.w3.org/1999/xlink">
<g id="graph0" class="graph" transform="scale(1 1) rotate(0) translate(4 598.2657)">
<title>%3</title>
<polygon fill="#ffffff" stroke="transparent" points="-4,4 -4,-598.2657 499.383,-598.2657 499.383,4 -4,4"/>
<!-- 0 -->
<g id="node1" class="node">
<title>0</title>
<polygon fill="#d3d3d3" stroke="#000000" points="310.006,-594.2657 289.994,-594.2657 289.994,-577.2657 310.006,-577.2657 310.006,-594.2657"/>
<text text-anchor="middle" x="300" y="-583.0657" font-family="Times,serif" font-size="9.00" fill="#000000">0</text>
</g>
<!-- 1 -->
<g id="node2" class="node">
<title>1</title>
<polygon fill="#d3d3d3" stroke="#000000" points="400.006,-594.2657 379.994,-594.2657 379.994,-577.2657 400.006,-577.2657 400.006,-594.2657"/>
<text text-anchor="middle" x="390" y="-583.0657" font-family="Times,serif" font-size="9.00" fill="#000000">1</text>
</g>
<!-- 0&#45;&gt;1 -->
<!-- E0 -->
<g id="node4" class="node">
<title>E0</title>
<ellipse fill="#87cefa" stroke="#000000" cx="37" cy="-18.383" rx="18.2668" ry="18.2668"/>
<text text-anchor="middle" x="37" y="-15.683" font-family="Times,serif" font-size="9.00" fill="#000000">E0</text>
</g>
<!-- 0&#45;&gt;E0 -->
<g id="edge11" class="edge">
<title>0&#45;&gt;E0</title>
<path fill="none" stroke="#00ff00" stroke-width=".5853" d="M289.6733,-585.455C236.9213,-583.2748 0,-566.083 0,-433.1408 0,-433.1408 0,-433.1408 0,-180.891 0,-132.0662 16.0749,-77.0028 27.0337,-45.1372"/>
<polygon fill="#00ff00" stroke="#00ff00" stroke-width=".5853" points="30.3566,-46.2385 30.3851,-35.6437 23.7558,-43.9082 30.3566,-46.2385"/>
</g>
<!-- E8 -->
<g id="node12" class="node">
<title>E8</title>
<ellipse fill="#87cefa" stroke="#000000" cx="477" cy="-18.383" rx="18.2668" ry="18.2668"/>
<text text-anchor="middle" x="477" y="-15.683" font-family="Times,serif" font-size="9.00" fill="#000000">E8</text>
</g>
<!-- 0&#45;&gt;E8 -->
<g id="edge21" class="edge">
<title>0&#45;&gt;E8</title>
<path fill="none" stroke="#00ff00" stroke-width=".162" d="M302.7802,-576.8534C322.0633,-515.0406 436.0773,-149.5629 468.4394,-45.8244"/>
<polygon fill="#00ff00" stroke="#00ff00" stroke-width=".162" points="471.8407,-46.6738 471.4777,-36.0852 465.1583,-44.5892 471.8407,-46.6738"/>
</g>
<!-- 3416 -->
<g id="node21" class="node">
<title>3416</title>
<ellipse fill="#add8e6" stroke="#000000" cx="246" cy="-517.224" rx="24.0833" ry="24.0833"/>
<text text-anchor="middle" x="246" y="-519.024" font-family="Times,serif" font-size="9.00" fill="#000000">3416</text>
<text text-anchor="middle" x="246" y="-510.024" font-family="Times,serif" font-size="9.00" fill="#000000">sigm</text>
</g>
<!-- 0&#45;&gt;3416 -->
<g id="edge14" class="edge">
<title>0&#45;&gt;3416</title>
<path fill="none" stroke="#00ff00" stroke-width=".295" d="M293.1609,-577.0848C286.6121,-568.7726 276.3871,-555.7941 267.1296,-544.0436"/>
<polygon fill="#00ff00" stroke="#00ff00" stroke-width=".295" points="269.8701,-541.8664 260.9322,-536.1774 264.3715,-546.1985 269.8701,-541.8664"/>
</g>
<!-- 2 -->
<g id="node3" class="node">
<title>2</title>
<polygon fill="#d3d3d3" stroke="#000000" points="439.006,-594.2657 418.994,-594.2657 418.994,-577.2657 439.006,-577.2657 439.006,-594.2657"/>
<text text-anchor="middle" x="429" y="-583.0657" font-family="Times,serif" font-size="9.00" fill="#000000">2</text>
</g>
<!-- 1&#45;&gt;2 -->
<!-- E7 -->
<g id="node11" class="node">
<title>E7</title>
<ellipse fill="#87cefa" stroke="#000000" cx="422" cy="-18.383" rx="18.2668" ry="18.2668"/>
<text text-anchor="middle" x="422" y="-15.683" font-family="Times,serif" font-size="9.00" fill="#000000">E7</text>
</g>
<!-- 1&#45;&gt;E7 -->
<g id="edge12" class="edge">
<title>1&#45;&gt;E7</title>
<path fill="none" stroke="#00ff00" stroke-width="3.6138" d="M391.6881,-577.1294C398.8054,-539.9368 426,-389.6689 426,-264.9743 426,-264.9743 426,-264.9743 426,-180.891 426,-133.9834 424.3138,-79.4827 423.131,-47.0222"/>
<polygon fill="#00ff00" stroke="#00ff00" stroke-width="3.6138" points="426.6239,-46.7637 422.7524,-36.9016 419.6288,-47.0255 426.6239,-46.7637"/>
</g>
<!-- E3 -->
<g id="node7" class="node">
<title>E3</title>
<ellipse fill="#87cefa" stroke="#000000" cx="202" cy="-18.383" rx="18.2668" ry="18.2668"/>
<text text-anchor="middle" x="202" y="-15.683" font-family="Times,serif" font-size="9.00" fill="#000000">E3</text>
</g>
<!-- 2&#45;&gt;E3 -->
<g id="edge19" class="edge">
<title>2&#45;&gt;E3</title>
<path fill="none" stroke="#ff0000" stroke-width=".6646" d="M428.278,-577.2189C424.7994,-541.3313 406.6783,-401.168 331,-325.0159 299.4652,-293.2836 264.6697,-324.1694 237,-289.0159 207.8373,-251.9654 202.865,-108.9172 202.096,-47.1043"/>
<polygon fill="#ff0000" stroke="#ff0000" stroke-width=".6646" points="205.5939,-46.8555 201.9986,-36.8894 198.5942,-46.9223 205.5939,-46.8555"/>
</g>
<!-- 2&#45;&gt;E8 -->
<g id="edge13" class="edge">
<title>2&#45;&gt;E8</title>
<path fill="none" stroke="#ff0000" stroke-width="2.5792" d="M433.3797,-577.0745C444.509,-554.1592 473,-489.9484 473,-433.1408 473,-433.1408 473,-433.1408 473,-180.891 473,-133.9834 474.6862,-79.4827 475.869,-47.0222"/>
<polygon fill="#ff0000" stroke="#ff0000" stroke-width="2.5792" points="479.3712,-47.0255 476.2476,-36.9016 472.3761,-46.7637 479.3712,-47.0255"/>
</g>
<!-- E1 -->
<g id="node5" class="node">
<title>E1</title>
<ellipse fill="#87cefa" stroke="#000000" cx="92" cy="-18.383" rx="18.2668" ry="18.2668"/>
<text text-anchor="middle" x="92" y="-15.683" font-family="Times,serif" font-size="9.00" fill="#000000">E1</text>
</g>
<!-- E0&#45;&gt;E1 -->
<!-- E2 -->
<g id="node6" class="node">
<title>E2</title>
<ellipse fill="#87cefa" stroke="#000000" cx="147" cy="-18.383" rx="18.2668" ry="18.2668"/>
<text text-anchor="middle" x="147" y="-15.683" font-family="Times,serif" font-size="9.00" fill="#000000">E2</text>
</g>
<!-- E1&#45;&gt;E2 -->
<!-- E2&#45;&gt;E3 -->
<!-- E4 -->
<g id="node8" class="node">
<title>E4</title>
<ellipse fill="#87cefa" stroke="#000000" cx="257" cy="-18.383" rx="18.2668" ry="18.2668"/>
<text text-anchor="middle" x="257" y="-15.683" font-family="Times,serif" font-size="9.00" fill="#000000">E4</text>
</g>
<!-- E3&#45;&gt;E4 -->
<!-- E5 -->
<g id="node9" class="node">
<title>E5</title>
<ellipse fill="#87cefa" stroke="#000000" cx="312" cy="-18.383" rx="18.2668" ry="18.2668"/>
<text text-anchor="middle" x="312" y="-15.683" font-family="Times,serif" font-size="9.00" fill="#000000">E5</text>
</g>
<!-- E4&#45;&gt;E5 -->
<!-- E6 -->
<g id="node10" class="node">
<title>E6</title>
<ellipse fill="#87cefa" stroke="#000000" cx="367" cy="-18.383" rx="18.2668" ry="18.2668"/>
<text text-anchor="middle" x="367" y="-15.683" font-family="Times,serif" font-size="9.00" fill="#000000">E6</text>
</g>
<!-- E5&#45;&gt;E6 -->
<!-- E6&#45;&gt;E7 -->
<!-- E7&#45;&gt;E8 -->
<!-- 5506 -->
<g id="node13" class="node">
<title>5506</title>
<ellipse fill="#add8e6" stroke="#000000" cx="194" cy="-349.0575" rx="24.0833" ry="24.0833"/>
<text text-anchor="middle" x="194" y="-350.8575" font-family="Times,serif" font-size="9.00" fill="#000000">5506</text>
<text text-anchor="middle" x="194" y="-341.8575" font-family="Times,serif" font-size="9.00" fill="#000000">sigm</text>
</g>
<!-- 5230 -->
<g id="node23" class="node">
<title>5230</title>
<ellipse fill="#add8e6" stroke="#000000" cx="166" cy="-180.891" rx="24.0833" ry="24.0833"/>
<text text-anchor="middle" x="166" y="-182.691" font-family="Times,serif" font-size="9.00" fill="#000000">5230</text>
<text text-anchor="middle" x="166" y="-173.691" font-family="Times,serif" font-size="9.00" fill="#000000">sigm</text>
</g>
<!-- 5506&#45;&gt;5230 -->
<g id="edge36" class="edge">
<title>5506&#45;&gt;5230</title>
<path fill="none" stroke="#ff0000" stroke-width=".2309" d="M190.0477,-325.32C185.246,-296.4814 177.1114,-247.6256 171.6493,-214.8206"/>
<polygon fill="#ff0000" stroke="#ff0000" stroke-width=".2309" points="175.0724,-214.0687 169.9775,-204.7794 168.1675,-215.2185 175.0724,-214.0687"/>
</g>
<!-- 2318 -->
<g id="node14" class="node">
<title>2318</title>
<ellipse fill="#add8e6" stroke="#000000" cx="95" cy="-180.891" rx="24.0833" ry="24.0833"/>
<text text-anchor="middle" x="95" y="-182.691" font-family="Times,serif" font-size="9.00" fill="#000000">2318</text>
<text text-anchor="middle" x="95" y="-173.691" font-family="Times,serif" font-size="9.00" fill="#000000">sigm</text>
</g>
<!-- 2318&#45;&gt;E1 -->
<g id="edge17" class="edge">
<title>2318&#45;&gt;E1</title>
<path fill="none" stroke="#00ff00" stroke-width=".4114" d="M94.5509,-156.5619C94.0099,-127.2561 93.1023,-78.0965 92.5283,-46.9981"/>
<polygon fill="#00ff00" stroke="#00ff00" stroke-width=".4114" points="96.0243,-46.7472 92.3402,-36.8135 89.0255,-46.8765 96.0243,-46.7472"/>
</g>
<!-- 5454 -->
<g id="node18" class="node">
<title>5454</title>
<ellipse fill="#add8e6" stroke="#000000" cx="128" cy="-96.8077" rx="24.0833" ry="24.0833"/>
<text text-anchor="middle" x="128" y="-98.6077" font-family="Times,serif" font-size="9.00" fill="#000000">5454</text>
<text text-anchor="middle" x="128" y="-89.6077" font-family="Times,serif" font-size="9.00" fill="#000000">sigm</text>
</g>
<!-- 2318&#45;&gt;5454 -->
<g id="edge31" class="edge">
<title>2318&#45;&gt;5454</title>
<path fill="none" stroke="#00ff00" stroke-width=".4125" d="M103.8434,-158.3582C107.3945,-149.3102 111.5535,-138.7131 115.4101,-128.8865"/>
<polygon fill="#00ff00" stroke="#00ff00" stroke-width=".4125" points="118.7368,-129.9902 119.1322,-119.4027 112.2207,-127.4327 118.7368,-129.9902"/>
</g>
<!-- 4917 -->
<g id="node15" class="node">
<title>4917</title>
<ellipse fill="#add8e6" stroke="#000000" cx="90" cy="-264.9743" rx="24.0833" ry="24.0833"/>
<text text-anchor="middle" x="90" y="-266.7743" font-family="Times,serif" font-size="9.00" fill="#000000">4917</text>
<text text-anchor="middle" x="90" y="-257.7743" font-family="Times,serif" font-size="9.00" fill="#000000">sigm</text>
</g>
<!-- 4917&#45;&gt;E0 -->
<g id="edge30" class="edge">
<title>4917&#45;&gt;E0</title>
<path fill="none" stroke="#ff0000" stroke-width=".3669" d="M78.2568,-243.9133C72.4863,-232.6669 65.9424,-218.3994 62,-204.9326 46.0403,-150.4157 40.2277,-83.9168 38.1406,-46.8481"/>
<polygon fill="#ff0000" stroke="#ff0000" stroke-width=".3669" points="41.6315,-46.579 37.6253,-36.7708 34.6407,-46.9365 41.6315,-46.579"/>
</g>
<!-- 4917&#45;&gt;2318 -->
<g id="edge20" class="edge">
<title>4917&#45;&gt;2318</title>
<path fill="none" stroke="#ff0000" stroke-width=".2459" d="M91.4462,-240.6539C91.9178,-232.7231 92.4507,-223.7624 92.9575,-215.2386"/>
<polygon fill="#ff0000" stroke="#ff0000" stroke-width=".2459" points="96.4572,-215.3469 93.557,-205.1567 89.4695,-214.9313 96.4572,-215.3469"/>
</g>
<!-- 5178 -->
<g id="node16" class="node">
<title>5178</title>
<ellipse fill="#add8e6" stroke="#000000" cx="298" cy="-349.0575" rx="24.0833" ry="24.0833"/>
<text text-anchor="middle" x="298" y="-350.8575" font-family="Times,serif" font-size="9.00" fill="#000000">5178</text>
<text text-anchor="middle" x="298" y="-341.8575" font-family="Times,serif" font-size="9.00" fill="#000000">sigm</text>
</g>
<!-- 3839 -->
<g id="node24" class="node">
<title>3839</title>
<ellipse fill="#add8e6" stroke="#000000" cx="336" cy="-264.9743" rx="24.0833" ry="24.0833"/>
<text text-anchor="middle" x="336" y="-266.7743" font-family="Times,serif" font-size="9.00" fill="#000000">3839</text>
<text text-anchor="middle" x="336" y="-257.7743" font-family="Times,serif" font-size="9.00" fill="#000000">sigm</text>
</g>
<!-- 5178&#45;&gt;3839 -->
<g id="edge24" class="edge">
<title>5178&#45;&gt;3839</title>
<path fill="none" stroke="#ff0000" stroke-width=".1307" d="M307.9841,-326.9656C312.2167,-317.5999 317.2265,-306.5146 321.8309,-296.3264"/>
<polygon fill="#ff0000" stroke="#ff0000" stroke-width=".1307" points="325.1537,-297.4726 326.0826,-286.9186 318.7749,-294.5898 325.1537,-297.4726"/>
</g>
<!-- 5321 -->
<g id="node17" class="node">
<title>5321</title>
<ellipse fill="#add8e6" stroke="#000000" cx="309" cy="-180.891" rx="24.0833" ry="24.0833"/>
<text text-anchor="middle" x="309" y="-182.691" font-family="Times,serif" font-size="9.00" fill="#000000">5321</text>
<text text-anchor="middle" x="309" y="-173.691" font-family="Times,serif" font-size="9.00" fill="#000000">sigm</text>
</g>
<!-- 4687 -->
<g id="node19" class="node">
<title>4687</title>
<ellipse fill="#add8e6" stroke="#000000" cx="309" cy="-96.8077" rx="24.0833" ry="24.0833"/>
<text text-anchor="middle" x="309" y="-98.6077" font-family="Times,serif" font-size="9.00" fill="#000000">4687</text>
<text text-anchor="middle" x="309" y="-89.6077" font-family="Times,serif" font-size="9.00" fill="#000000">sigm</text>
</g>
<!-- 5321&#45;&gt;4687 -->
<g id="edge28" class="edge">
<title>5321&#45;&gt;4687</title>
<path fill="none" stroke="#00ff00" stroke-width=".1543" d="M309,-156.5706C309,-148.6398 309,-139.6791 309,-131.1553"/>
<polygon fill="#00ff00" stroke="#00ff00" stroke-width=".1543" points="312.5001,-131.0734 309,-121.0734 305.5001,-131.0735 312.5001,-131.0734"/>
</g>
<!-- 5454&#45;&gt;E1 -->
<g id="edge32" class="edge">
<title>5454&#45;&gt;E1</title>
<path fill="none" stroke="#ff0000" stroke-width=".2342" d="M117.7801,-74.5441C113.4771,-65.1702 108.4396,-54.1961 103.9648,-44.448"/>
<polygon fill="#ff0000" stroke="#ff0000" stroke-width=".2342" points="107.0784,-42.8412 99.7257,-35.2131 100.7167,-45.7615 107.0784,-42.8412"/>
</g>
<!-- 4687&#45;&gt;E4 -->
<g id="edge18" class="edge">
<title>4687&#45;&gt;E4</title>
<path fill="none" stroke="#00ff00" stroke-width=".1797" d="M295.6087,-76.6114C288.7439,-66.2582 280.3318,-53.5713 273.114,-42.6857"/>
<polygon fill="#00ff00" stroke="#00ff00" stroke-width=".1797" points="275.8354,-40.4564 267.3922,-34.0561 270.0013,-44.3247 275.8354,-40.4564"/>
</g>
<!-- 4304 -->
<g id="node20" class="node">
<title>4304</title>
<ellipse fill="#add8e6" stroke="#000000" cx="270" cy="-264.9743" rx="24.0833" ry="24.0833"/>
<text text-anchor="middle" x="270" y="-266.7743" font-family="Times,serif" font-size="9.00" fill="#000000">4304</text>
<text text-anchor="middle" x="270" y="-257.7743" font-family="Times,serif" font-size="9.00" fill="#000000">sigm</text>
</g>
<!-- 4304&#45;&gt;E4 -->
<g id="edge16" class="edge">
<title>4304&#45;&gt;E4</title>
<path fill="none" stroke="#00ff00" stroke-width=".279" d="M268.7298,-240.8811C266.3242,-195.2506 261.1132,-96.4042 258.5239,-47.2889"/>
<polygon fill="#00ff00" stroke="#00ff00" stroke-width=".279" points="262.0054,-46.8449 257.9837,-37.0431 255.0151,-47.2135 262.0054,-46.8449"/>
</g>
<!-- 4304&#45;&gt;5321 -->
<g id="edge27" class="edge">
<title>4304&#45;&gt;5321</title>
<path fill="none" stroke="#00ff00" stroke-width=".2178" d="M280.2468,-242.8824C284.6356,-233.4201 289.8386,-222.2026 294.6041,-211.9283"/>
<polygon fill="#00ff00" stroke="#00ff00" stroke-width=".2178" points="297.789,-213.3797 298.8216,-202.8353 291.4388,-210.4343 297.789,-213.3797"/>
</g>
<!-- 3416&#45;&gt;4917 -->
<g id="edge25" class="edge">
<title>3416&#45;&gt;4917</title>
<path fill="none" stroke="#ff0000" stroke-width=".3427" d="M224.3414,-506.7346C205.2627,-496.4958 177.9451,-479.2508 161,-457.1824 124.0298,-409.0345 104.7994,-339.6712 96.0857,-298.7699"/>
<polygon fill="#ff0000" stroke="#ff0000" stroke-width=".3427" points="99.4736,-297.8666 94.0445,-288.7685 92.615,-299.2664 99.4736,-297.8666"/>
</g>
<!-- 3416&#45;&gt;5178 -->
<g id="edge33" class="edge">
<title>3416&#45;&gt;5178</title>
<path fill="none" stroke="#ff0000" stroke-width=".1502" d="M253.1213,-494.1938C262.1205,-465.0908 277.6663,-414.816 287.8919,-381.7468"/>
<polygon fill="#ff0000" stroke="#ff0000" stroke-width=".1502" points="291.271,-382.6665 290.8814,-372.0788 284.5834,-380.5985 291.271,-382.6665"/>
</g>
<!-- 3416&#45;&gt;4304 -->
<g id="edge22" class="edge">
<title>3416&#45;&gt;4304</title>
<path fill="none" stroke="#00ff00" stroke-width="1.1181" d="M248.3012,-493.0373C252.5929,-447.9296 261.8281,-350.8639 266.7524,-299.1078"/>
<polygon fill="#00ff00" stroke="#00ff00" stroke-width="1.1181" points="270.2428,-299.3744 267.7057,-289.0878 263.2742,-298.7113 270.2428,-299.3744"/>
</g>
<!-- 4071 -->
<g id="node22" class="node">
<title>4071</title>
<ellipse fill="#add8e6" stroke="#000000" cx="194" cy="-433.1408" rx="24.0833" ry="24.0833"/>
<text text-anchor="middle" x="194" y="-434.9408" font-family="Times,serif" font-size="9.00" fill="#000000">4071</text>
<text text-anchor="middle" x="194" y="-425.9408" font-family="Times,serif" font-size="9.00" fill="#000000">sigm</text>
</g>
<!-- 3416&#45;&gt;4071 -->
<g id="edge15" class="edge">
<title>3416&#45;&gt;4071</title>
<path fill="none" stroke="#ff0000" stroke-width=".2682" d="M233.1461,-496.4394C226.786,-486.1553 219.0018,-473.5683 212.0548,-462.3351"/>
<polygon fill="#ff0000" stroke="#ff0000" stroke-width=".2682" points="214.9426,-460.3504 206.7061,-453.6863 208.9892,-464.0323 214.9426,-460.3504"/>
</g>
<!-- 4071&#45;&gt;5506 -->
<g id="edge35" class="edge">
<title>4071&#45;&gt;5506</title>
<path fill="none" stroke="#00ff00" stroke-width=".3558" d="M194,-408.8204C194,-400.8896 194,-391.9289 194,-383.4051"/>
<polygon fill="#00ff00" stroke="#00ff00" stroke-width=".3558" points="197.5001,-383.3232 194,-373.3232 190.5001,-383.3233 197.5001,-383.3232"/>
</g>
<!-- 4071&#45;&gt;2318 -->
<g id="edge34" class="edge">
<title>4071&#45;&gt;2318</title>
<path fill="none" stroke="#00ff00" stroke-width=".1256" d="M181.2131,-412.5883C174.5429,-401.2468 166.6247,-386.7338 161,-373.0991 137.6917,-316.5976 144.426,-298.1745 123,-240.9326 119.3791,-231.2591 114.853,-220.9837 110.5022,-211.7192"/>
<polygon fill="#00ff00" stroke="#00ff00" stroke-width=".1256" points="113.5592,-209.9995 106.0771,-202.4982 107.2482,-213.0281 113.5592,-209.9995"/>
</g>
<!-- 4071&#45;&gt;5178 -->
<g id="edge23" class="edge">
<title>4071&#45;&gt;5178</title>
<path fill="none" stroke="#00ff00" stroke-width=".2767" d="M213.0752,-417.7186C229.3479,-404.5622 252.9284,-385.4976 271.1149,-370.7939"/>
<polygon fill="#00ff00" stroke="#00ff00" stroke-width=".2767" points="273.4698,-373.3908 279.0457,-364.3819 269.0688,-367.9473 273.4698,-373.3908"/>
</g>
<!-- 5230&#45;&gt;E3 -->
<g id="edge26" class="edge">
<title>5230&#45;&gt;E3</title>
<path fill="none" stroke="#00ff00" stroke-width=".1237" d="M171.2347,-157.2609C177.7523,-127.8398 188.8703,-77.6519 195.8055,-46.3458"/>
<polygon fill="#00ff00" stroke="#00ff00" stroke-width=".1237" points="199.2386,-47.0304 197.9844,-36.5101 192.4043,-45.5164 199.2386,-47.0304"/>
</g>
<!-- 3839&#45;&gt;5321 -->
<g id="edge29" class="edge">
<title>3839&#45;&gt;5321</title>
<path fill="none" stroke="#ff0000" stroke-width=".1291" d="M328.6221,-241.9981C325.7946,-233.1926 322.5125,-222.9714 319.4511,-213.4376"/>
<polygon fill="#ff0000" stroke="#ff0000" stroke-width=".1291" points="322.7588,-212.2904 316.3689,-203.8393 316.094,-214.4306 322.7588,-212.2904"/>
</g>
</g>
</svg>
