<?xml version="1.0" encoding="UTF-8" standalone="no"?>
<!DOCTYPE svg PUBLIC "-//W3C//DTD SVG 1.1//EN"
 "http://www.w3.org/Graphics/SVG/1.1/DTD/svg11.dtd">
<!-- Generated by graphviz version 2.40.1 (20161225.0304)
 -->
<!-- Title: %3 Pages: 1 -->
<svg width="428pt" height="259pt"
 viewBox="0.00 0.00 427.90 258.87" xmlns="http://www.w3.org/2000/svg" xmlns:xlink="http://www.w3.org/1999/xlink">
<g id="graph0" class="graph" transform="scale(1 1) rotate(0) translate(4 254.8726)">
<title>%3</title>
<polygon fill="#ffffff" stroke="transparent" points="-4,4 -4,-254.8726 423.9035,-254.8726 423.9035,4 -4,4"/>
<!-- E0 -->
<g id="node1" class="node">
<title>E0</title>
<polygon fill="#d3d3d3" stroke="#000000" points="57.2315,-250.8726 31.2364,-250.8726 31.2364,-233.8726 57.2315,-233.8726 57.2315,-250.8726"/>
<text text-anchor="middle" x="44.2339" y="-239.6726" font-family="Times,serif" font-size="9.00" fill="#000000">E0</text>
</g>
<!-- E1 -->
<g id="node2" class="node">
<title>E1</title>
<polygon fill="#d3d3d3" stroke="#000000" points="101.2315,-250.8726 75.2364,-250.8726 75.2364,-233.8726 101.2315,-233.8726 101.2315,-250.8726"/>
<text text-anchor="middle" x="88.2339" y="-239.6726" font-family="Times,serif" font-size="9.00" fill="#000000">E1</text>
</g>
<!-- E0&#45;&gt;E1 -->
<!-- 0 -->
<g id="node10" class="node">
<title>0</title>
<ellipse fill="#87cefa" stroke="#000000" cx="38.2339" cy="-14.853" rx="14.4914" ry="14.4914"/>
<text text-anchor="middle" x="38.2339" y="-12.153" font-family="Times,serif" font-size="9.00" fill="#000000">0</text>
</g>
<!-- E0&#45;&gt;0 -->
<g id="edge13" class="edge">
<title>E0&#45;&gt;0</title>
<path fill="none" stroke="#00ff00" stroke-width="1.852" d="M39.2985,-233.806C25.1144,-208.0634 -13.5784,-129.2546 5.2339,-65.7061 8.5948,-54.3529 15.3747,-43.1574 21.9196,-34.1735"/>
<polygon fill="#00ff00" stroke="#00ff00" stroke-width="1.852" points="24.8923,-36.0513 28.2508,-26.0029 19.359,-31.7637 24.8923,-36.0513"/>
</g>
<!-- 2 -->
<g id="node12" class="node">
<title>2</title>
<ellipse fill="#87cefa" stroke="#000000" cx="258.2339" cy="-14.853" rx="14.4914" ry="14.4914"/>
<text text-anchor="middle" x="258.2339" y="-12.153" font-family="Times,serif" font-size="9.00" fill="#000000">2</text>
</g>
<!-- E0&#45;&gt;2 -->
<g id="edge19" class="edge">
<title>E0&#45;&gt;2</title>
<path fill="none" stroke="#00ff00" stroke-width=".3373" d="M45.1615,-233.6215C48.6312,-205.2277 63.3775,-114.6768 114.2339,-65.7061 123.137,-57.1331 195.4704,-34.0687 234.1061,-22.1722"/>
<polygon fill="#00ff00" stroke="#00ff00" stroke-width=".3373" points="235.4917,-25.4084 244.029,-19.1343 233.4425,-18.7151 235.4917,-25.4084"/>
</g>
<!-- E2 -->
<g id="node3" class="node">
<title>E2</title>
<polygon fill="#d3d3d3" stroke="#000000" points="145.2315,-250.8726 119.2364,-250.8726 119.2364,-233.8726 145.2315,-233.8726 145.2315,-250.8726"/>
<text text-anchor="middle" x="132.2339" y="-239.6726" font-family="Times,serif" font-size="9.00" fill="#000000">E2</text>
</g>
<!-- E1&#45;&gt;E2 -->
<!-- S -->
<g id="node13" class="node">
<title>S</title>
<ellipse fill="#87cefa" stroke="#000000" cx="357.2339" cy="-14.853" rx="14.7075" ry="14.7075"/>
<text text-anchor="middle" x="357.2339" y="-12.153" font-family="Times,serif" font-size="9.00" fill="#000000">S</text>
</g>
<!-- E1&#45;&gt;S -->
<g id="edge18" class="edge">
<title>E1&#45;&gt;S</title>
<path fill="none" stroke="#00ff00" stroke-width=".5563" d="M88.3495,-233.8489C89.2195,-205.3813 96.0354,-112.7403 147.2339,-65.7061 154.1455,-59.3567 278.6235,-31.8492 332.6018,-20.1504"/>
<polygon fill="#00ff00" stroke="#00ff00" stroke-width=".5563" points="333.3668,-23.566 342.4017,-18.0324 331.888,-16.7239 333.3668,-23.566"/>
</g>
<!-- 5319 -->
<g id="node16" class="node">
<title>5319</title>
<ellipse fill="#add8e6" stroke="#000000" cx="180.2339" cy="-173.831" rx="24.0833" ry="24.0833"/>
<text text-anchor="middle" x="180.2339" y="-175.631" font-family="Times,serif" font-size="9.00" fill="#000000">5319</text>
<text text-anchor="middle" x="180.2339" y="-166.631" font-family="Times,serif" font-size="9.00" fill="#000000">sigm</text>
</g>
<!-- E1&#45;&gt;5319 -->
<g id="edge24" class="edge">
<title>E1&#45;&gt;5319</title>
<path fill="none" stroke="#00ff00" stroke-width=".2496" d="M99.8858,-233.6918C113.0162,-223.9094 134.8215,-207.664 152.4056,-194.5636"/>
<polygon fill="#00ff00" stroke="#00ff00" stroke-width=".2496" points="154.7141,-197.2083 160.6422,-188.4272 150.532,-191.5949 154.7141,-197.2083"/>
</g>
<!-- E3 -->
<g id="node4" class="node">
<title>E3</title>
<polygon fill="#d3d3d3" stroke="#000000" points="189.2315,-250.8726 163.2364,-250.8726 163.2364,-233.8726 189.2315,-233.8726 189.2315,-250.8726"/>
<text text-anchor="middle" x="176.2339" y="-239.6726" font-family="Times,serif" font-size="9.00" fill="#000000">E3</text>
</g>
<!-- E2&#45;&gt;E3 -->
<!-- 5121 -->
<g id="node14" class="node">
<title>5121</title>
<ellipse fill="#add8e6" stroke="#000000" cx="38.2339" cy="-89.7477" rx="24.0833" ry="24.0833"/>
<text text-anchor="middle" x="38.2339" y="-91.5477" font-family="Times,serif" font-size="9.00" fill="#000000">5121</text>
<text text-anchor="middle" x="38.2339" y="-82.5477" font-family="Times,serif" font-size="9.00" fill="#000000">sigm</text>
</g>
<!-- E2&#45;&gt;5121 -->
<g id="edge21" class="edge">
<title>E2&#45;&gt;5121</title>
<path fill="none" stroke="#00ff00" stroke-width=".4307" d="M126.9108,-233.7295C113.5768,-212.0797 78.2529,-154.7252 56.425,-119.2839"/>
<polygon fill="#00ff00" stroke="#00ff00" stroke-width=".4307" points="59.1461,-117.028 50.9219,-110.3487 53.1859,-120.6989 59.1461,-117.028"/>
</g>
<!-- E4 -->
<g id="node5" class="node">
<title>E4</title>
<polygon fill="#d3d3d3" stroke="#000000" points="233.2315,-250.8726 207.2364,-250.8726 207.2364,-233.8726 233.2315,-233.8726 233.2315,-250.8726"/>
<text text-anchor="middle" x="220.2339" y="-239.6726" font-family="Times,serif" font-size="9.00" fill="#000000">E4</text>
</g>
<!-- E3&#45;&gt;E4 -->
<!-- E3&#45;&gt;S -->
<g id="edge15" class="edge">
<title>E3&#45;&gt;S</title>
<path fill="none" stroke="#00ff00" stroke-width=".8142" d="M183.6758,-233.5654C191.1983,-224.6294 203.1239,-210.3713 213.2339,-197.8726 260.6157,-139.2962 315.3182,-69.0214 341.5775,-35.1171"/>
<polygon fill="#00ff00" stroke="#00ff00" stroke-width=".8142" points="344.5583,-36.9841 347.9103,-26.9334 339.0223,-32.7001 344.5583,-36.9841"/>
</g>
<!-- E5 -->
<g id="node6" class="node">
<title>E5</title>
<polygon fill="#d3d3d3" stroke="#000000" points="277.2315,-250.8726 251.2364,-250.8726 251.2364,-233.8726 277.2315,-233.8726 277.2315,-250.8726"/>
<text text-anchor="middle" x="264.2339" y="-239.6726" font-family="Times,serif" font-size="9.00" fill="#000000">E5</text>
</g>
<!-- E4&#45;&gt;E5 -->
<!-- E4&#45;&gt;S -->
<g id="edge12" class="edge">
<title>E4&#45;&gt;S</title>
<path fill="none" stroke="#00ff00" stroke-width=".6505" d="M233.6241,-236.8519C236.4422,-235.7882 239.4155,-234.7375 242.2339,-233.8726 310.2586,-212.9979 353.9359,-253.5574 398.2339,-197.8726 434.803,-151.9034 417.7827,-121.0984 398.2339,-65.7061 393.7385,-52.9682 384.5507,-41.0749 376.0102,-31.9978"/>
<polygon fill="#00ff00" stroke="#00ff00" stroke-width=".6505" points="378.3523,-29.3902 368.8056,-24.7954 373.4033,-34.3407 378.3523,-29.3902"/>
</g>
<!-- E6 -->
<g id="node7" class="node">
<title>E6</title>
<polygon fill="#d3d3d3" stroke="#000000" points="321.2315,-250.8726 295.2364,-250.8726 295.2364,-233.8726 321.2315,-233.8726 321.2315,-250.8726"/>
<text text-anchor="middle" x="308.2339" y="-239.6726" font-family="Times,serif" font-size="9.00" fill="#000000">E6</text>
</g>
<!-- E5&#45;&gt;E6 -->
<!-- E5&#45;&gt;2 -->
<g id="edge23" class="edge">
<title>E5&#45;&gt;2</title>
<path fill="none" stroke="#00ff00" stroke-width=".2866" d="M264.006,-233.7314C263.1645,-201.8191 260.2119,-89.8582 258.8865,-39.6001"/>
<polygon fill="#00ff00" stroke="#00ff00" stroke-width=".2866" points="262.3851,-39.4938 258.6225,-29.5895 255.3875,-39.6784 262.3851,-39.4938"/>
</g>
<!-- E7 -->
<g id="node8" class="node">
<title>E7</title>
<polygon fill="#d3d3d3" stroke="#000000" points="365.2315,-250.8726 339.2364,-250.8726 339.2364,-233.8726 365.2315,-233.8726 365.2315,-250.8726"/>
<text text-anchor="middle" x="352.2339" y="-239.6726" font-family="Times,serif" font-size="9.00" fill="#000000">E7</text>
</g>
<!-- E6&#45;&gt;E7 -->
<!-- E6&#45;&gt;2 -->
<g id="edge20" class="edge">
<title>E6&#45;&gt;2</title>
<path fill="none" stroke="#00ff00" stroke-width=".2957" d="M306.948,-233.8382C303.0069,-208.1856 290.3777,-129.6022 274.2339,-65.7061 271.9451,-56.6472 268.9733,-46.8248 266.2132,-38.2499"/>
<polygon fill="#00ff00" stroke="#00ff00" stroke-width=".2957" points="269.4681,-36.9443 263.0114,-28.5442 262.8204,-39.1373 269.4681,-36.9443"/>
</g>
<!-- E8 -->
<g id="node9" class="node">
<title>E8</title>
<polygon fill="#d3d3d3" stroke="#000000" points="409.2315,-250.8726 383.2364,-250.8726 383.2364,-233.8726 409.2315,-233.8726 409.2315,-250.8726"/>
<text text-anchor="middle" x="396.2339" y="-239.6726" font-family="Times,serif" font-size="9.00" fill="#000000">E8</text>
</g>
<!-- E7&#45;&gt;E8 -->
<!-- 4169 -->
<g id="node15" class="node">
<title>4169</title>
<ellipse fill="#add8e6" stroke="#000000" cx="180.2339" cy="-89.7477" rx="24.0833" ry="24.0833"/>
<text text-anchor="middle" x="180.2339" y="-91.5477" font-family="Times,serif" font-size="9.00" fill="#000000">4169</text>
<text text-anchor="middle" x="180.2339" y="-82.5477" font-family="Times,serif" font-size="9.00" fill="#000000">sigm</text>
</g>
<!-- E7&#45;&gt;4169 -->
<g id="edge16" class="edge">
<title>E7&#45;&gt;4169</title>
<path fill="none" stroke="#00ff00" stroke-width=".6438" d="M342.4936,-233.7295C316.5523,-210.7103 245.1228,-147.3271 206.2538,-112.8366"/>
<polygon fill="#00ff00" stroke="#00ff00" stroke-width=".6438" points="208.2848,-109.9595 198.4819,-105.9401 203.6387,-115.1953 208.2848,-109.9595"/>
</g>
<!-- E8&#45;&gt;2 -->
<g id="edge14" class="edge">
<title>E8&#45;&gt;2</title>
<path fill="none" stroke="#ff0000" stroke-width="2.2931" d="M391.6238,-233.7479C377.6992,-207.8429 334.548,-128.6274 294.2339,-65.7061 287.6006,-55.3529 279.7602,-44.1677 273.0925,-34.9305"/>
<polygon fill="#ff0000" stroke="#ff0000" stroke-width="2.2931" points="275.8563,-32.7803 267.1368,-26.7619 270.2001,-36.9043 275.8563,-32.7803"/>
</g>
<!-- 1 -->
<g id="node11" class="node">
<title>1</title>
<ellipse fill="#87cefa" stroke="#000000" cx="180.2339" cy="-14.853" rx="14.4914" ry="14.4914"/>
<text text-anchor="middle" x="180.2339" y="-12.153" font-family="Times,serif" font-size="9.00" fill="#000000">1</text>
</g>
<!-- 0&#45;&gt;1 -->
<!-- 1&#45;&gt;2 -->
<!-- 2&#45;&gt;S -->
<!-- 5121&#45;&gt;0 -->
<g id="edge22" class="edge">
<title>5121&#45;&gt;0</title>
<path fill="none" stroke="#ff0000" stroke-width=".1171" d="M38.2339,-65.6383C38.2339,-57.432 38.2339,-48.2428 38.2339,-39.9602"/>
<polygon fill="#ff0000" stroke="#ff0000" stroke-width=".1171" points="41.734,-39.7533 38.2339,-29.7534 34.734,-39.7534 41.734,-39.7533"/>
</g>
<!-- 4169&#45;&gt;1 -->
<g id="edge17" class="edge">
<title>4169&#45;&gt;1</title>
<path fill="none" stroke="#00ff00" stroke-width="1.9151" d="M180.2339,-65.6383C180.2339,-57.432 180.2339,-48.2428 180.2339,-39.9602"/>
<polygon fill="#00ff00" stroke="#00ff00" stroke-width="1.9151" points="183.734,-39.7533 180.2339,-29.7534 176.734,-39.7534 183.734,-39.7533"/>
</g>
<!-- 5319&#45;&gt;4169 -->
<g id="edge25" class="edge">
<title>5319&#45;&gt;4169</title>
<path fill="none" stroke="#ff0000" stroke-width=".1936" d="M180.2339,-149.5106C180.2339,-141.5798 180.2339,-132.6191 180.2339,-124.0953"/>
<polygon fill="#ff0000" stroke="#ff0000" stroke-width=".1936" points="183.734,-124.0134 180.2339,-114.0134 176.734,-124.0135 183.734,-124.0134"/>
</g>
</g>
</svg>
