<?xml version="1.0" encoding="UTF-8" standalone="no"?>
<!DOCTYPE svg PUBLIC "-//W3C//DTD SVG 1.1//EN"
 "http://www.w3.org/Graphics/SVG/1.1/DTD/svg11.dtd">
<!-- Generated by graphviz version 2.40.1 (20161225.0304)
 -->
<!-- Title: %3 Pages: 1 -->
<svg width="430pt" height="175pt"
 viewBox="0.00 0.00 430.00 174.79" xmlns="http://www.w3.org/2000/svg" xmlns:xlink="http://www.w3.org/1999/xlink">
<g id="graph0" class="graph" transform="scale(1 1) rotate(0) translate(4 170.7893)">
<title>%3</title>
<polygon fill="#ffffff" stroke="transparent" points="-4,4 -4,-170.7893 425.9976,-170.7893 425.9976,4 -4,4"/>
<!-- E0 -->
<g id="node1" class="node">
<title>E0</title>
<polygon fill="#d3d3d3" stroke="#000000" points="25.9963,-166.7893 .0012,-166.7893 .0012,-149.7893 25.9963,-149.7893 25.9963,-166.7893"/>
<text text-anchor="middle" x="12.9988" y="-155.5893" font-family="Times,serif" font-size="9.00" fill="#000000">E0</text>
</g>
<!-- E1 -->
<g id="node2" class="node">
<title>E1</title>
<polygon fill="#d3d3d3" stroke="#000000" points="69.9963,-166.7893 44.0012,-166.7893 44.0012,-149.7893 69.9963,-149.7893 69.9963,-166.7893"/>
<text text-anchor="middle" x="56.9988" y="-155.5893" font-family="Times,serif" font-size="9.00" fill="#000000">E1</text>
</g>
<!-- E0&#45;&gt;E1 -->
<!-- 2 -->
<g id="node12" class="node">
<title>2</title>
<ellipse fill="#ffa07a" stroke="#000000" cx="228.9988" cy="-14.853" rx="14.4914" ry="14.4914"/>
<text text-anchor="middle" x="228.9988" y="-12.153" font-family="Times,serif" font-size="9.00" fill="#000000">2</text>
</g>
<!-- E0&#45;&gt;2 -->
<g id="edge24" class="edge">
<title>E0&#45;&gt;2</title>
<path fill="none" stroke="#ff0000" stroke-width=".1134" d="M25.8637,-149.7463C61.8998,-125.8163 164.0772,-57.9647 208.241,-28.6374"/>
<polygon fill="#ff0000" stroke="#ff0000" stroke-width=".1134" points="210.3455,-31.4413 216.7399,-22.9936 206.4732,-25.6099 210.3455,-31.4413"/>
</g>
<!-- 4433 -->
<g id="node14" class="node">
<title>4433</title>
<ellipse fill="#add8e6" stroke="#000000" cx="233.9988" cy="-89.7477" rx="24.0833" ry="24.0833"/>
<text text-anchor="middle" x="233.9988" y="-91.5477" font-family="Times,serif" font-size="9.00" fill="#000000">4433</text>
<text text-anchor="middle" x="233.9988" y="-82.5477" font-family="Times,serif" font-size="9.00" fill="#000000">sigm</text>
</g>
<!-- E0&#45;&gt;4433 -->
<g id="edge18" class="edge">
<title>E0&#45;&gt;4433</title>
<path fill="none" stroke="#00ff00" stroke-width=".2748" d="M26.4358,-152.9125C29.2505,-151.8384 32.2106,-150.7471 34.9988,-149.7893 92.7685,-129.946 161.1425,-110.0944 200.8423,-98.9205"/>
<polygon fill="#00ff00" stroke="#00ff00" stroke-width=".2748" points="201.8472,-102.2739 210.532,-96.2055 199.9585,-95.5335 201.8472,-102.2739"/>
</g>
<!-- E2 -->
<g id="node3" class="node">
<title>E2</title>
<polygon fill="#d3d3d3" stroke="#000000" points="113.9963,-166.7893 88.0012,-166.7893 88.0012,-149.7893 113.9963,-149.7893 113.9963,-166.7893"/>
<text text-anchor="middle" x="100.9988" y="-155.5893" font-family="Times,serif" font-size="9.00" fill="#000000">E2</text>
</g>
<!-- E1&#45;&gt;E2 -->
<!-- 0 -->
<g id="node10" class="node">
<title>0</title>
<ellipse fill="#eee8aa" stroke="#000000" cx="82.9988" cy="-14.853" rx="14.4914" ry="14.4914"/>
<text text-anchor="middle" x="82.9988" y="-12.153" font-family="Times,serif" font-size="9.00" fill="#000000">0</text>
</g>
<!-- E1&#45;&gt;0 -->
<g id="edge12" class="edge">
<title>E1&#45;&gt;0</title>
<path fill="none" stroke="#ff0000" stroke-width="3.8735" d="M55.0981,-149.6789C51.7893,-133.0946 46.0454,-95.7079 53.9988,-65.7061 56.8595,-54.915 62.6043,-44.0219 68.2317,-35.1011"/>
<polygon fill="#ff0000" stroke="#ff0000" stroke-width="3.8735" points="71.2658,-36.8606 73.9276,-26.6055 65.4517,-32.9624 71.2658,-36.8606"/>
</g>
<!-- S -->
<g id="node13" class="node">
<title>S</title>
<ellipse fill="#eee8aa" stroke="#000000" cx="280.9988" cy="-14.853" rx="14.7075" ry="14.7075"/>
<text text-anchor="middle" x="280.9988" y="-12.153" font-family="Times,serif" font-size="9.00" fill="#000000">S</text>
</g>
<!-- E1&#45;&gt;S -->
<g id="edge14" class="edge">
<title>E1&#45;&gt;S</title>
<path fill="none" stroke="#ff0000" stroke-width=".5735" d="M70.3646,-152.6863C73.1844,-151.6286 76.1646,-150.6011 78.9988,-149.7893 160.784,-126.3648 208.3229,-175.3902 266.9988,-113.7893 285.6096,-94.2508 286.7729,-61.93 284.8203,-39.5734"/>
<polygon fill="#ff0000" stroke="#ff0000" stroke-width=".5735" points="288.2822,-39.0388 283.6743,-29.4984 281.327,-39.83 288.2822,-39.0388"/>
</g>
<!-- E3 -->
<g id="node4" class="node">
<title>E3</title>
<polygon fill="#d3d3d3" stroke="#000000" points="157.9963,-166.7893 132.0012,-166.7893 132.0012,-149.7893 157.9963,-149.7893 157.9963,-166.7893"/>
<text text-anchor="middle" x="144.9988" y="-155.5893" font-family="Times,serif" font-size="9.00" fill="#000000">E3</text>
</g>
<!-- E2&#45;&gt;E3 -->
<!-- 1 -->
<g id="node11" class="node">
<title>1</title>
<ellipse fill="#87cefa" stroke="#000000" cx="181.9988" cy="-14.853" rx="14.4914" ry="14.4914"/>
<text text-anchor="middle" x="181.9988" y="-12.153" font-family="Times,serif" font-size="9.00" fill="#000000">1</text>
</g>
<!-- E2&#45;&gt;1 -->
<g id="edge13" class="edge">
<title>E2&#45;&gt;1</title>
<path fill="none" stroke="#ff0000" stroke-width="2.353" d="M102.2722,-149.5301C105.0711,-132.3678 112.9178,-93.5627 129.9988,-65.7061 138.4146,-51.9811 151.3461,-39.3134 162.2077,-30.0543"/>
<polygon fill="#ff0000" stroke="#ff0000" stroke-width="2.353" points="164.4783,-32.7187 170.0011,-23.6771 160.0453,-27.3012 164.4783,-32.7187"/>
</g>
<!-- E4 -->
<g id="node5" class="node">
<title>E4</title>
<polygon fill="#d3d3d3" stroke="#000000" points="201.9963,-166.7893 176.0012,-166.7893 176.0012,-149.7893 201.9963,-149.7893 201.9963,-166.7893"/>
<text text-anchor="middle" x="188.9988" y="-155.5893" font-family="Times,serif" font-size="9.00" fill="#000000">E4</text>
</g>
<!-- E3&#45;&gt;E4 -->
<!-- E3&#45;&gt;2 -->
<g id="edge15" class="edge">
<title>E3&#45;&gt;2</title>
<path fill="none" stroke="#00ff00" stroke-width="1.6835" d="M150.0018,-149.7463C162.9246,-127.6796 197.7195,-68.2647 216.5269,-36.1497"/>
<polygon fill="#00ff00" stroke="#00ff00" stroke-width="1.6835" points="219.5594,-37.8974 221.5927,-27.4995 213.519,-34.3599 219.5594,-37.8974"/>
</g>
<!-- E5 -->
<g id="node6" class="node">
<title>E5</title>
<polygon fill="#d3d3d3" stroke="#000000" points="267.9963,-166.7893 242.0012,-166.7893 242.0012,-149.7893 267.9963,-149.7893 267.9963,-166.7893"/>
<text text-anchor="middle" x="254.9988" y="-155.5893" font-family="Times,serif" font-size="9.00" fill="#000000">E5</text>
</g>
<!-- E4&#45;&gt;E5 -->
<!-- E4&#45;&gt;1 -->
<g id="edge16" class="edge">
<title>E4&#45;&gt;1</title>
<path fill="none" stroke="#ff0000" stroke-width=".3888" d="M188.5819,-149.7463C187.5453,-128.5056 184.8199,-72.6603 183.2195,-39.8674"/>
<polygon fill="#ff0000" stroke="#ff0000" stroke-width=".3888" points="186.7074,-39.5308 182.724,-29.7133 179.7157,-39.8721 186.7074,-39.5308"/>
</g>
<!-- E6 -->
<g id="node7" class="node">
<title>E6</title>
<polygon fill="#d3d3d3" stroke="#000000" points="333.9963,-166.7893 308.0012,-166.7893 308.0012,-149.7893 333.9963,-149.7893 333.9963,-166.7893"/>
<text text-anchor="middle" x="320.9988" y="-155.5893" font-family="Times,serif" font-size="9.00" fill="#000000">E6</text>
</g>
<!-- E5&#45;&gt;E6 -->
<!-- E5&#45;&gt;2 -->
<g id="edge23" class="edge">
<title>E5&#45;&gt;2</title>
<path fill="none" stroke="#00ff00" stroke-width=".4121" d="M258.6138,-149.6213C265.0341,-132.9385 276.8647,-95.3908 266.9988,-65.7061 262.9003,-53.3745 254.5164,-41.6149 246.6638,-32.5161"/>
<polygon fill="#00ff00" stroke="#00ff00" stroke-width=".4121" points="249.079,-29.9713 239.7399,-24.9681 243.9206,-34.7033 249.079,-29.9713"/>
</g>
<!-- E5&#45;&gt;4433 -->
<g id="edge21" class="edge">
<title>E5&#45;&gt;4433</title>
<path fill="none" stroke="#ff0000" stroke-width=".3254" d="M252.3391,-149.6085C250.2201,-142.6921 247.1112,-132.5451 244.0529,-122.5631"/>
<polygon fill="#ff0000" stroke="#ff0000" stroke-width=".3254" points="247.3258,-121.2977 241.0499,-112.7618 240.6329,-123.3484 247.3258,-121.2977"/>
</g>
<!-- E7 -->
<g id="node8" class="node">
<title>E7</title>
<polygon fill="#d3d3d3" stroke="#000000" points="377.9963,-166.7893 352.0012,-166.7893 352.0012,-149.7893 377.9963,-149.7893 377.9963,-166.7893"/>
<text text-anchor="middle" x="364.9988" y="-155.5893" font-family="Times,serif" font-size="9.00" fill="#000000">E7</text>
</g>
<!-- E6&#45;&gt;E7 -->
<!-- E6&#45;&gt;1 -->
<g id="edge20" class="edge">
<title>E6&#45;&gt;1</title>
<path fill="none" stroke="#00ff00" stroke-width=".1875" d="M317.7293,-149.6768C310.7101,-132.0963 292.7214,-91.5612 266.9988,-65.7061 244.7961,-43.389 232.9402,-45.9902 205.9988,-29.7061 205.1915,-29.2182 204.37,-28.7196 203.5408,-28.2148"/>
<polygon fill="#00ff00" stroke="#00ff00" stroke-width=".1875" points="205.0252,-25.019 194.6728,-22.7656 201.3604,-30.983 205.0252,-25.019"/>
</g>
<!-- E6&#45;&gt;S -->
<g id="edge17" class="edge">
<title>E6&#45;&gt;S</title>
<path fill="none" stroke="#ff0000" stroke-width=".5016" d="M318.6164,-149.7463C312.6369,-128.3044 296.8236,-71.5993 287.7164,-38.9418"/>
<polygon fill="#ff0000" stroke="#ff0000" stroke-width=".5016" points="291.0738,-37.9511 285.0161,-29.2589 284.331,-39.8315 291.0738,-37.9511"/>
</g>
<!-- E8 -->
<g id="node9" class="node">
<title>E8</title>
<polygon fill="#d3d3d3" stroke="#000000" points="421.9963,-166.7893 396.0012,-166.7893 396.0012,-149.7893 421.9963,-149.7893 421.9963,-166.7893"/>
<text text-anchor="middle" x="408.9988" y="-155.5893" font-family="Times,serif" font-size="9.00" fill="#000000">E8</text>
</g>
<!-- E7&#45;&gt;E8 -->
<!-- E7&#45;&gt;1 -->
<g id="edge22" class="edge">
<title>E7&#45;&gt;1</title>
<path fill="none" stroke="#00ff00" stroke-width=".1796" d="M360.7852,-149.6267C351.6063,-131.5921 328.1079,-89.7012 296.9988,-65.7061 262.559,-39.1419 244.8662,-49.2273 205.9988,-29.7061 205.1559,-29.2827 204.304,-28.8391 203.4493,-28.3805"/>
<polygon fill="#00ff00" stroke="#00ff00" stroke-width=".1796" points="204.8651,-25.1548 194.4622,-23.147 201.3424,-31.2038 204.8651,-25.1548"/>
</g>
<!-- 0&#45;&gt;1 -->
<!-- 1&#45;&gt;2 -->
<!-- 2&#45;&gt;S -->
<!-- 4433&#45;&gt;S -->
<g id="edge19" class="edge">
<title>4433&#45;&gt;S</title>
<path fill="none" stroke="#ff0000" stroke-width="1.6759" d="M246.8417,-69.2824C253.3164,-58.9651 261.1603,-46.4657 267.6977,-36.0483"/>
<polygon fill="#ff0000" stroke="#ff0000" stroke-width="1.6759" points="270.6882,-37.8674 273.0392,-27.5367 264.759,-34.1466 270.6882,-37.8674"/>
</g>
</g>
</svg>
