<?xml version="1.0" encoding="UTF-8" standalone="no"?>
<!DOCTYPE svg PUBLIC "-//W3C//DTD SVG 1.1//EN"
 "http://www.w3.org/Graphics/SVG/1.1/DTD/svg11.dtd">
<!-- Generated by graphviz version 2.40.1 (20161225.0304)
 -->
<!-- Title: %3 Pages: 1 -->
<svg width="386pt" height="174pt"
 viewBox="0.00 0.00 386.00 174.32" xmlns="http://www.w3.org/2000/svg" xmlns:xlink="http://www.w3.org/1999/xlink">
<g id="graph0" class="graph" transform="scale(1 1) rotate(0) translate(4 170.3232)">
<title>%3</title>
<polygon fill="#ffffff" stroke="transparent" points="-4,4 -4,-170.3232 381.9976,-170.3232 381.9976,4 -4,4"/>
<!-- E0 -->
<g id="node1" class="node">
<title>E0</title>
<polygon fill="#d3d3d3" stroke="#000000" points="25.9963,-166.3232 .0012,-166.3232 .0012,-149.3232 25.9963,-149.3232 25.9963,-166.3232"/>
<text text-anchor="middle" x="12.9988" y="-155.1232" font-family="Times,serif" font-size="9.00" fill="#000000">E0</text>
</g>
<!-- E1 -->
<g id="node2" class="node">
<title>E1</title>
<polygon fill="#d3d3d3" stroke="#000000" points="69.9963,-166.3232 44.0012,-166.3232 44.0012,-149.3232 69.9963,-149.3232 69.9963,-166.3232"/>
<text text-anchor="middle" x="56.9988" y="-155.1232" font-family="Times,serif" font-size="9.00" fill="#000000">E1</text>
</g>
<!-- E0&#45;&gt;E1 -->
<!-- S -->
<g id="node13" class="node">
<title>S</title>
<ellipse fill="#87cefa" stroke="#000000" cx="155.9988" cy="-14.853" rx="14.7075" ry="14.7075"/>
<text text-anchor="middle" x="155.9988" y="-12.153" font-family="Times,serif" font-size="9.00" fill="#000000">S</text>
</g>
<!-- E0&#45;&gt;S -->
<g id="edge12" class="edge">
<title>E0&#45;&gt;S</title>
<path fill="none" stroke="#00ff00" stroke-width=".3461" d="M14.9582,-149.057C19.3595,-131.2016 31.6074,-90.2354 55.9988,-65.7061 82.3527,-39.2031 99.1678,-47.5684 131.9988,-29.7061 132.8273,-29.2553 133.667,-28.7883 134.5114,-28.3101"/>
<polygon fill="#00ff00" stroke="#00ff00" stroke-width=".3461" points="136.6507,-31.1097 143.4506,-22.9849 133.0682,-25.0959 136.6507,-31.1097"/>
</g>
<!-- E2 -->
<g id="node3" class="node">
<title>E2</title>
<polygon fill="#d3d3d3" stroke="#000000" points="113.9963,-166.3232 88.0012,-166.3232 88.0012,-149.3232 113.9963,-149.3232 113.9963,-166.3232"/>
<text text-anchor="middle" x="100.9988" y="-155.1232" font-family="Times,serif" font-size="9.00" fill="#000000">E2</text>
</g>
<!-- E1&#45;&gt;E2 -->
<!-- E1&#45;&gt;S -->
<g id="edge14" class="edge">
<title>E1&#45;&gt;S</title>
<path fill="none" stroke="#00ff00" stroke-width=".681" d="M56.6407,-149.0893C56.3566,-131.6438 57.9148,-91.9145 75.9988,-65.7061 76.9838,-64.2786 111.378,-42.6698 134.7433,-28.0842"/>
<polygon fill="#00ff00" stroke="#00ff00" stroke-width=".681" points="136.7275,-30.9717 143.3612,-22.7107 133.0237,-25.0318 136.7275,-30.9717"/>
</g>
<!-- E3 -->
<g id="node4" class="node">
<title>E3</title>
<polygon fill="#d3d3d3" stroke="#000000" points="157.9963,-166.3232 132.0012,-166.3232 132.0012,-149.3232 157.9963,-149.3232 157.9963,-166.3232"/>
<text text-anchor="middle" x="144.9988" y="-155.1232" font-family="Times,serif" font-size="9.00" fill="#000000">E3</text>
</g>
<!-- E2&#45;&gt;E3 -->
<!-- 1211 -->
<g id="node14" class="node">
<title>1211</title>
<ellipse fill="#f0e68c" stroke="#000000" cx="108.9988" cy="-89.5147" rx="23.6187" ry="23.6187"/>
<text text-anchor="middle" x="108.9988" y="-91.3147" font-family="Times,serif" font-size="9.00" fill="#000000">1211</text>
<text text-anchor="middle" x="108.9988" y="-82.3147" font-family="Times,serif" font-size="9.00" fill="#000000">soft</text>
</g>
<!-- E2&#45;&gt;1211 -->
<g id="edge19" class="edge">
<title>E2&#45;&gt;1211</title>
<path fill="none" stroke="#ff0000" stroke-width=".3388" d="M102.012,-149.1719C102.7839,-142.5809 103.9006,-133.0459 105.0155,-123.5258"/>
<polygon fill="#ff0000" stroke="#ff0000" stroke-width=".3388" points="108.5213,-123.6805 106.2083,-113.3412 101.5688,-122.8662 108.5213,-123.6805"/>
</g>
<!-- E4 -->
<g id="node5" class="node">
<title>E4</title>
<polygon fill="#d3d3d3" stroke="#000000" points="201.9963,-166.3232 176.0012,-166.3232 176.0012,-149.3232 201.9963,-149.3232 201.9963,-166.3232"/>
<text text-anchor="middle" x="188.9988" y="-155.1232" font-family="Times,serif" font-size="9.00" fill="#000000">E4</text>
</g>
<!-- E3&#45;&gt;E4 -->
<!-- E3&#45;&gt;S -->
<g id="edge20" class="edge">
<title>E3&#45;&gt;S</title>
<path fill="none" stroke="#ff0000" stroke-width=".2351" d="M145.6539,-149.308C147.2829,-128.1362 151.5656,-72.4725 154.0805,-39.7861"/>
<polygon fill="#ff0000" stroke="#ff0000" stroke-width=".2351" points="157.5816,-39.9041 154.8592,-29.665 150.6023,-39.367 157.5816,-39.9041"/>
</g>
<!-- E5 -->
<g id="node6" class="node">
<title>E5</title>
<polygon fill="#d3d3d3" stroke="#000000" points="245.9963,-166.3232 220.0012,-166.3232 220.0012,-149.3232 245.9963,-149.3232 245.9963,-166.3232"/>
<text text-anchor="middle" x="232.9988" y="-155.1232" font-family="Times,serif" font-size="9.00" fill="#000000">E5</text>
</g>
<!-- E4&#45;&gt;E5 -->
<!-- E4&#45;&gt;1211 -->
<g id="edge16" class="edge">
<title>E4&#45;&gt;1211</title>
<path fill="none" stroke="#00ff00" stroke-width=".6523" d="M178.8667,-149.1719C167.9404,-139.8423 150.106,-124.6143 135.1911,-111.8791"/>
<polygon fill="#00ff00" stroke="#00ff00" stroke-width=".6523" points="137.1454,-108.9456 127.2678,-105.1138 132.6,-114.269 137.1454,-108.9456"/>
</g>
<!-- E6 -->
<g id="node7" class="node">
<title>E6</title>
<polygon fill="#d3d3d3" stroke="#000000" points="289.9963,-166.3232 264.0012,-166.3232 264.0012,-149.3232 289.9963,-149.3232 289.9963,-166.3232"/>
<text text-anchor="middle" x="276.9988" y="-155.1232" font-family="Times,serif" font-size="9.00" fill="#000000">E6</text>
</g>
<!-- E5&#45;&gt;E6 -->
<!-- E7 -->
<g id="node8" class="node">
<title>E7</title>
<polygon fill="#d3d3d3" stroke="#000000" points="333.9963,-166.3232 308.0012,-166.3232 308.0012,-149.3232 333.9963,-149.3232 333.9963,-166.3232"/>
<text text-anchor="middle" x="320.9988" y="-155.1232" font-family="Times,serif" font-size="9.00" fill="#000000">E7</text>
</g>
<!-- E6&#45;&gt;E7 -->
<!-- 0 -->
<g id="node10" class="node">
<title>0</title>
<ellipse fill="#87cefa" stroke="#000000" cx="14.9988" cy="-14.853" rx="14.4914" ry="14.4914"/>
<text text-anchor="middle" x="14.9988" y="-12.153" font-family="Times,serif" font-size="9.00" fill="#000000">0</text>
</g>
<!-- E6&#45;&gt;0 -->
<g id="edge15" class="edge">
<title>E6&#45;&gt;0</title>
<path fill="none" stroke="#ff0000" stroke-width=".9655" d="M263.798,-152.1898C241.7036,-142.6379 198.3421,-123.3289 184.9988,-113.3232 162.1851,-96.2161 165.7521,-81.4824 141.9988,-65.7061 101.6034,-38.8766 82.7649,-50.5898 38.9988,-29.7061 38.1475,-29.2999 37.2885,-28.8708 36.4278,-28.4245"/>
<polygon fill="#ff0000" stroke="#ff0000" stroke-width=".9655" points="37.8276,-25.1923 27.4126,-23.2482 34.342,-31.2628 37.8276,-25.1923"/>
</g>
<!-- E8 -->
<g id="node9" class="node">
<title>E8</title>
<polygon fill="#d3d3d3" stroke="#000000" points="377.9963,-166.3232 352.0012,-166.3232 352.0012,-149.3232 377.9963,-149.3232 377.9963,-166.3232"/>
<text text-anchor="middle" x="364.9988" y="-155.1232" font-family="Times,serif" font-size="9.00" fill="#000000">E8</text>
</g>
<!-- E7&#45;&gt;E8 -->
<!-- 1 -->
<g id="node11" class="node">
<title>1</title>
<ellipse fill="#ffa07a" stroke="#000000" cx="61.9988" cy="-14.853" rx="14.4914" ry="14.4914"/>
<text text-anchor="middle" x="61.9988" y="-12.153" font-family="Times,serif" font-size="9.00" fill="#000000">1</text>
</g>
<!-- E8&#45;&gt;1 -->
<g id="edge13" class="edge">
<title>E8&#45;&gt;1</title>
<path fill="none" stroke="#ff0000" stroke-width="2.2972" d="M351.9474,-150.984C321.6073,-135.1835 243.8196,-95.239 176.9988,-65.7061 137.2168,-48.1236 124.8662,-49.2273 85.9988,-29.7061 85.1559,-29.2827 84.304,-28.8391 83.4493,-28.3805"/>
<polygon fill="#ff0000" stroke="#ff0000" stroke-width="2.2972" points="84.8651,-25.1548 74.4622,-23.147 81.3424,-31.2038 84.8651,-25.1548"/>
</g>
<!-- 0&#45;&gt;1 -->
<!-- 2 -->
<g id="node12" class="node">
<title>2</title>
<ellipse fill="#87cefa" stroke="#000000" cx="108.9988" cy="-14.853" rx="14.4914" ry="14.4914"/>
<text text-anchor="middle" x="108.9988" y="-12.153" font-family="Times,serif" font-size="9.00" fill="#000000">2</text>
</g>
<!-- 1&#45;&gt;2 -->
<!-- 2&#45;&gt;S -->
<!-- 1211&#45;&gt;2 -->
<g id="edge17" class="edge">
<title>1211&#45;&gt;2</title>
<path fill="none" stroke="#ff0000" stroke-width=".3587" d="M108.9988,-65.4803C108.9988,-57.2995 108.9988,-48.1389 108.9988,-39.8821"/>
<polygon fill="#ff0000" stroke="#ff0000" stroke-width=".3587" points="112.4989,-39.707 108.9988,-29.707 105.4989,-39.707 112.4989,-39.707"/>
</g>
<!-- 1211&#45;&gt;S -->
<g id="edge18" class="edge">
<title>1211&#45;&gt;S</title>
<path fill="none" stroke="#00ff00" stroke-width=".2948" d="M121.8417,-69.113C128.3164,-58.8278 136.1603,-46.3674 142.6977,-35.9823"/>
<polygon fill="#00ff00" stroke="#00ff00" stroke-width=".2948" points="145.6737,-37.8247 148.0392,-27.4972 139.7497,-34.0954 145.6737,-37.8247"/>
</g>
</g>
</svg>
