<?xml version="1.0" encoding="utf-8" standalone="no"?>
<!DOCTYPE svg PUBLIC "-//W3C//DTD SVG 1.1//EN"
  "http://www.w3.org/Graphics/SVG/1.1/DTD/svg11.dtd">
<!-- Created with matplotlib (https://matplotlib.org/) -->
<svg height="345.6pt" version="1.1" viewBox="0 0 460.8 345.6" width="460.8pt" xmlns="http://www.w3.org/2000/svg" xmlns:xlink="http://www.w3.org/1999/xlink">
 <defs>
  <style type="text/css">
*{stroke-linecap:butt;stroke-linejoin:round;}
  </style>
 </defs>
 <g id="figure_1">
  <g id="patch_1">
   <path d="M 0 345.6 
L 460.8 345.6 
L 460.8 0 
L 0 0 
z
" style="fill:#ffffff;"/>
  </g>
  <g id="axes_1">
   <g id="patch_2">
    <path d="M 57.6 307.584 
L 414.72 307.584 
L 414.72 41.472 
L 57.6 41.472 
z
" style="fill:#ffffff;"/>
   </g>
   <g id="PolyCollection_1">
    <path clip-path="url(#p80ff8e510a)" d="M 73.832727 282.291722 
L 73.832727 284.541572 
L 74.918528 288.626782 
L 76.00433 286.832087 
L 77.090131 288.893518 
L 78.175932 289.07027 
L 79.261733 292.533864 
L 80.347534 290.853181 
L 81.433335 287.580319 
L 82.519137 286.143468 
L 83.604938 283.625406 
L 84.690739 286.305162 
L 85.77654 287.405446 
L 86.862341 286.887061 
L 87.948142 291.352302 
L 89.033943 286.806484 
L 90.119745 291.196206 
L 91.205546 292.141129 
L 92.291347 295.488 
L 93.377148 292.890523 
L 94.462949 288.636672 
L 95.54875 287.852022 
L 96.634552 289.952582 
L 97.720353 288.336448 
L 98.806154 287.356429 
L 99.891955 290.568018 
L 100.977756 286.959539 
L 102.063557 286.956373 
L 103.149358 281.719719 
L 104.23516 285.27984 
L 105.320961 278.93444 
L 106.406762 273.887295 
L 107.492563 281.015579 
L 108.578364 286.977965 
L 109.664165 271.679217 
L 110.749967 271.950142 
L 111.835768 260.965173 
L 112.921569 263.56782 
L 114.00737 262.02971 
L 115.093171 265.351755 
L 116.178972 267.043283 
L 117.264773 270.290346 
L 118.350575 253.747774 
L 119.436376 257.299603 
L 120.522177 261.778928 
L 121.607978 250.850756 
L 122.693779 237.576641 
L 123.77958 237.071156 
L 124.865382 245.969414 
L 125.951183 244.815325 
L 127.036984 243.181318 
L 128.122785 251.069674 
L 129.208586 246.288037 
L 130.294387 245.091571 
L 131.380189 252.147302 
L 132.46599 246.1982 
L 133.551791 257.326635 
L 134.637592 241.813321 
L 135.723393 235.297822 
L 136.809194 236.99158 
L 137.894995 242.071987 
L 138.980797 232.127053 
L 140.066598 237.325105 
L 141.152399 232.544171 
L 142.2382 236.215344 
L 143.324001 223.279972 
L 144.409802 250.34868 
L 145.495604 230.37454 
L 146.581405 223.630206 
L 147.667206 235.353314 
L 148.753007 237.930515 
L 149.838808 241.76201 
L 150.924609 244.269298 
L 152.01041 240.55086 
L 153.096212 236.012299 
L 154.182013 248.555862 
L 155.267814 233.569578 
L 156.353615 244.224445 
L 157.439416 220.37744 
L 158.525217 208.292871 
L 159.611019 239.621261 
L 160.69682 218.134581 
L 161.782621 241.721668 
L 162.868422 249.476836 
L 163.954223 233.39318 
L 165.040024 222.871268 
L 166.125825 221.690797 
L 167.211627 238.747391 
L 168.297428 230.949407 
L 169.383229 240.196365 
L 170.46903 233.139383 
L 171.554831 218.974674 
L 172.640632 207.283376 
L 173.726434 206.217054 
L 174.812235 233.058056 
L 175.898036 228.115988 
L 176.983837 241.220681 
L 178.069638 201.938979 
L 179.155439 212.093224 
L 180.24124 200.051171 
L 181.327042 192.860136 
L 182.412843 214.195975 
L 183.498644 235.956212 
L 184.584445 203.692866 
L 185.670246 193.885915 
L 186.756047 203.936982 
L 187.841849 218.187652 
L 188.92765 199.615632 
L 190.013451 212.117974 
L 191.099252 210.128722 
L 192.185053 188.972507 
L 193.270854 201.984869 
L 194.356656 175.793661 
L 195.442457 177.273341 
L 196.528258 166.800264 
L 197.614059 173.324254 
L 198.69986 157.106393 
L 199.785661 192.757539 
L 200.871462 199.830937 
L 201.957264 217.750123 
L 203.043065 212.018929 
L 204.128866 187.685361 
L 205.214667 241.938211 
L 206.300468 234.261148 
L 207.386269 198.090481 
L 208.472071 199.187655 
L 209.557872 184.303755 
L 210.643673 233.779801 
L 211.729474 224.708498 
L 212.815275 226.199696 
L 213.901076 212.053698 
L 214.986877 213.628341 
L 216.072679 179.508005 
L 217.15848 173.619049 
L 218.244281 185.541919 
L 219.330082 207.113834 
L 220.415883 197.042967 
L 221.501684 196.801417 
L 222.587486 192.048361 
L 223.673287 187.176911 
L 224.759088 183.252353 
L 225.844889 167.727658 
L 226.93069 185.326392 
L 228.016491 184.759704 
L 229.102292 157.016698 
L 230.188094 178.784929 
L 231.273895 165.284714 
L 232.359696 194.912083 
L 233.445497 185.037502 
L 234.531298 187.76508 
L 235.617099 175.500923 
L 236.702901 192.022605 
L 237.788702 204.784983 
L 238.874503 167.588403 
L 239.960304 185.659408 
L 241.046105 167.211454 
L 242.131906 177.559734 
L 243.217708 190.73381 
L 244.303509 169.482926 
L 245.38931 191.765377 
L 246.475111 155.785141 
L 247.560912 175.152917 
L 248.646713 192.134045 
L 249.732514 177.337214 
L 250.818316 159.907326 
L 251.904117 195.424439 
L 252.989918 174.342109 
L 254.075719 198.137661 
L 255.16152 172.258472 
L 256.247321 152.815885 
L 257.333123 209.347517 
L 258.418924 197.813393 
L 259.504725 176.98645 
L 260.590526 198.360445 
L 261.676327 179.642633 
L 262.762128 174.801369 
L 263.847929 188.291457 
L 264.933731 147.838833 
L 266.019532 171.919634 
L 267.105333 217.320759 
L 268.191134 195.425328 
L 269.276935 177.852187 
L 270.362736 214.956526 
L 271.448538 198.801521 
L 272.534339 205.497832 
L 273.62014 184.103344 
L 274.705941 167.704785 
L 275.791742 200.445949 
L 276.877543 203.199152 
L 277.963344 163.874577 
L 279.049146 138.328745 
L 280.134947 151.656765 
L 281.220748 142.970927 
L 282.306549 169.929398 
L 283.39235 129.16032 
L 284.478151 121.948271 
L 285.563953 141.561998 
L 286.649754 169.625012 
L 287.735555 161.8408 
L 288.821356 171.054715 
L 289.907157 191.655292 
L 290.992958 172.390427 
L 292.07876 162.873924 
L 293.164561 160.39544 
L 294.250362 150.351733 
L 295.336163 151.769346 
L 296.421964 155.203009 
L 297.507765 140.27689 
L 298.593566 155.296108 
L 299.679368 136.840248 
L 300.765169 138.22428 
L 301.85097 110.104792 
L 302.936771 128.322089 
L 304.022572 127.735216 
L 305.108373 111.312748 
L 306.194175 111.92861 
L 307.279976 110.090412 
L 308.365777 124.52066 
L 309.451578 123.590986 
L 310.537379 113.787484 
L 311.62318 125.104234 
L 312.708981 116.196624 
L 313.794783 147.562588 
L 314.880584 155.242109 
L 315.966385 130.607056 
L 317.052186 140.667445 
L 318.137987 121.031678 
L 319.223788 115.674666 
L 320.30959 183.188994 
L 321.395391 135.203679 
L 322.481192 147.416031 
L 323.566993 142.597115 
L 324.652794 107.50055 
L 325.738595 100.576665 
L 326.824396 116.612553 
L 327.910198 150.677427 
L 328.995999 123.485683 
L 330.0818 118.726398 
L 331.167601 109.737564 
L 332.253402 128.836836 
L 333.339203 149.713432 
L 334.425005 149.223385 
L 335.510806 157.226291 
L 336.596607 137.445273 
L 337.682408 117.175444 
L 338.768209 104.029081 
L 339.85401 108.428453 
L 340.939811 100.889813 
L 342.025613 109.424217 
L 343.111414 102.756004 
L 344.197215 118.734579 
L 345.283016 96.439387 
L 346.368817 131.117782 
L 347.454618 119.492508 
L 348.54042 151.657486 
L 349.626221 141.980111 
L 350.712022 127.179258 
L 351.797823 119.087179 
L 352.883624 130.413177 
L 353.969425 146.207296 
L 355.055227 140.644028 
L 356.141028 156.144558 
L 357.226829 112.385206 
L 358.31263 121.009001 
L 359.398431 138.84667 
L 360.484232 105.140352 
L 361.570033 97.292335 
L 362.655835 140.98937 
L 363.741636 126.165124 
L 364.827437 118.387797 
L 365.913238 112.908553 
L 366.999039 111.952688 
L 368.08484 141.029531 
L 369.170642 119.789665 
L 370.256443 113.905052 
L 371.342244 143.462547 
L 372.428045 109.40225 
L 373.513846 106.023309 
L 374.599647 125.699038 
L 375.685448 120.76213 
L 376.77125 119.372889 
L 377.857051 133.075823 
L 378.942852 115.820538 
L 380.028653 129.327529 
L 381.114454 129.579055 
L 382.200255 95.864143 
L 383.286057 122.351742 
L 384.371858 118.349201 
L 385.457659 118.28122 
L 386.54346 88.188448 
L 387.629261 87.33079 
L 388.715062 117.737273 
L 389.800863 89.080884 
L 390.886665 121.968191 
L 391.972466 105.870941 
L 393.058267 107.076865 
L 394.144068 150.170259 
L 395.229869 131.372758 
L 396.31567 116.455365 
L 397.401472 113.436339 
L 398.487273 141.513565 
L 398.487273 101.908771 
L 398.487273 101.908771 
L 397.401472 70.748684 
L 396.31567 72.683366 
L 395.229869 86.539815 
L 394.144068 89.277449 
L 393.058267 75.015487 
L 391.972466 64.344218 
L 390.886665 97.964443 
L 389.800863 60.840122 
L 388.715062 53.568 
L 387.629261 75.698537 
L 386.54346 64.592585 
L 385.457659 80.254417 
L 384.371858 83.815612 
L 383.286057 100.456948 
L 382.200255 72.481897 
L 381.114454 94.407892 
L 380.028653 86.095129 
L 378.942852 86.099468 
L 377.857051 97.264287 
L 376.77125 96.71469 
L 375.685448 102.236571 
L 374.599647 107.93858 
L 373.513846 92.172567 
L 372.428045 90.152277 
L 371.342244 112.857097 
L 370.256443 74.870289 
L 369.170642 68.754527 
L 368.08484 86.461208 
L 366.999039 81.739479 
L 365.913238 82.361139 
L 364.827437 90.43486 
L 363.741636 104.24848 
L 362.655835 107.647338 
L 361.570033 74.461256 
L 360.484232 78.650021 
L 359.398431 101.409524 
L 358.31263 90.023895 
L 357.226829 91.97346 
L 356.141028 103.660236 
L 355.055227 104.29128 
L 353.969425 101.220808 
L 352.883624 109.672002 
L 351.797823 100.002925 
L 350.712022 92.715788 
L 349.626221 98.41168 
L 348.54042 102.556945 
L 347.454618 87.015481 
L 346.368817 90.601995 
L 345.283016 63.090451 
L 344.197215 67.056124 
L 343.111414 76.953898 
L 342.025613 83.024245 
L 340.939811 73.34592 
L 339.85401 88.506704 
L 338.768209 76.987637 
L 337.682408 97.399626 
L 336.596607 122.226008 
L 335.510806 131.174316 
L 334.425005 85.301766 
L 333.339203 111.083388 
L 332.253402 87.86021 
L 331.167601 86.760281 
L 330.0818 89.278465 
L 328.995999 97.970048 
L 327.910198 125.467308 
L 326.824396 82.004607 
L 325.738595 68.553851 
L 324.652794 87.136688 
L 323.566993 113.929773 
L 322.481192 112.905309 
L 321.395391 103.062488 
L 320.30959 149.009204 
L 319.223788 93.751549 
L 318.137987 90.25948 
L 317.052186 110.703553 
L 315.966385 103.972632 
L 314.880584 106.965873 
L 313.794783 111.885824 
L 312.708981 88.135097 
L 311.62318 106.279731 
L 310.537379 82.233318 
L 309.451578 87.681898 
L 308.365777 104.160486 
L 307.279976 85.003344 
L 306.194175 90.603093 
L 305.108373 91.490453 
L 304.022572 81.33684 
L 302.936771 94.481143 
L 301.85097 95.752015 
L 300.765169 119.974036 
L 299.679368 107.380575 
L 298.593566 118.456002 
L 297.507765 114.992013 
L 296.421964 123.329552 
L 295.336163 128.509191 
L 294.250362 131.322389 
L 293.164561 141.820837 
L 292.07876 129.735853 
L 290.992958 113.940358 
L 289.907157 139.831291 
L 288.821356 131.087148 
L 287.735555 141.503242 
L 286.649754 137.539387 
L 285.563953 120.185805 
L 284.478151 94.99642 
L 283.39235 98.315088 
L 282.306549 116.307229 
L 281.220748 122.663696 
L 280.134947 112.649867 
L 279.049146 115.314806 
L 277.963344 129.990689 
L 276.877543 180.652183 
L 275.791742 158.30677 
L 274.705941 147.215341 
L 273.62014 160.259247 
L 272.534339 177.02035 
L 271.448538 165.794455 
L 270.362736 181.958336 
L 269.276935 127.064317 
L 268.191134 137.854345 
L 267.105333 159.681469 
L 266.019532 146.784472 
L 264.933731 119.577231 
L 263.847929 152.746558 
L 262.762128 142.114984 
L 261.676327 143.792056 
L 260.590526 165.407084 
L 259.504725 156.694935 
L 258.418924 159.469756 
L 257.333123 156.586561 
L 256.247321 136.403103 
L 255.16152 150.435615 
L 254.075719 169.3598 
L 252.989918 154.01232 
L 251.904117 178.420934 
L 250.818316 145.370572 
L 249.732514 149.938418 
L 248.646713 167.724171 
L 247.560912 155.799876 
L 246.475111 136.912196 
L 245.38931 162.637311 
L 244.303509 127.030825 
L 243.217708 168.31251 
L 242.131906 146.79859 
L 241.046105 152.126814 
L 239.960304 153.749947 
L 238.874503 150.835688 
L 237.788702 184.887197 
L 236.702901 154.535082 
L 235.617099 147.100201 
L 234.531298 135.149059 
L 233.445497 155.162753 
L 232.359696 143.122355 
L 231.273895 131.433396 
L 230.188094 156.61617 
L 229.102292 130.739314 
L 228.016491 147.387754 
L 226.93069 152.856253 
L 225.844889 137.083578 
L 224.759088 150.917872 
L 223.673287 177.327909 
L 222.587486 167.380324 
L 221.501684 178.496018 
L 220.415883 179.091737 
L 219.330082 185.02298 
L 218.244281 155.161163 
L 217.15848 156.326959 
L 216.072679 158.679625 
L 214.986877 179.429657 
L 213.901076 188.436961 
L 212.815275 191.154977 
L 211.729474 214.988129 
L 210.643673 204.162234 
L 209.557872 174.132737 
L 208.472071 172.751213 
L 207.386269 175.775173 
L 206.300468 211.415559 
L 205.214667 219.898212 
L 204.128866 167.740019 
L 203.043065 191.84314 
L 201.957264 182.647289 
L 200.871462 177.965268 
L 199.785661 161.785813 
L 198.69986 139.952366 
L 197.614059 148.915208 
L 196.528258 149.319279 
L 195.442457 120.100994 
L 194.356656 164.055579 
L 193.270854 178.911583 
L 192.185053 172.455611 
L 191.099252 200.14991 
L 190.013451 191.366093 
L 188.92765 185.734017 
L 187.841849 192.05979 
L 186.756047 180.775557 
L 185.670246 161.75449 
L 184.584445 180.796278 
L 183.498644 207.088169 
L 182.412843 175.854495 
L 181.327042 164.845826 
L 180.24124 167.545861 
L 179.155439 191.550136 
L 178.069638 180.835128 
L 176.983837 204.14002 
L 175.898036 206.211962 
L 174.812235 214.848047 
L 173.726434 192.159302 
L 172.640632 187.191683 
L 171.554831 198.616295 
L 170.46903 212.141771 
L 169.383229 225.323739 
L 168.297428 216.645777 
L 167.211627 209.074016 
L 166.125825 197.957799 
L 165.040024 199.395777 
L 163.954223 207.530775 
L 162.868422 218.741378 
L 161.782621 210.152405 
L 160.69682 202.056398 
L 159.611019 221.655119 
L 158.525217 189.106055 
L 157.439416 204.732746 
L 156.353615 211.045366 
L 155.267814 221.016117 
L 154.182013 219.948879 
L 153.096212 219.723828 
L 152.01041 222.496708 
L 150.924609 228.02703 
L 149.838808 224.064398 
L 148.753007 226.133856 
L 147.667206 211.605967 
L 146.581405 204.694537 
L 145.495604 217.893534 
L 144.409802 235.366598 
L 143.324001 203.805581 
L 142.2382 209.023198 
L 141.152399 216.803828 
L 140.066598 222.717365 
L 138.980797 194.413724 
L 137.894995 203.659896 
L 136.809194 217.682653 
L 135.723393 193.086841 
L 134.637592 211.653442 
L 133.551791 227.302846 
L 132.46599 214.677921 
L 131.380189 225.816381 
L 130.294387 207.66386 
L 129.208586 234.672576 
L 128.122785 234.918466 
L 127.036984 230.80951 
L 125.951183 222.485384 
L 124.865382 223.624846 
L 123.77958 210.136706 
L 122.693779 207.962515 
L 121.607978 227.149929 
L 120.522177 233.66508 
L 119.436376 232.395953 
L 118.350575 237.414928 
L 117.264773 243.911074 
L 116.178972 241.805585 
L 115.093171 241.441157 
L 114.00737 248.018491 
L 112.921569 252.396654 
L 111.835768 246.385327 
L 110.749967 259.429549 
L 109.664165 260.243691 
L 108.578364 273.100421 
L 107.492563 265.06511 
L 106.406762 261.009068 
L 105.320961 264.792139 
L 104.23516 272.256189 
L 103.149358 275.122529 
L 102.063557 281.114826 
L 100.977756 280.60757 
L 99.891955 274.491215 
L 98.806154 269.688439 
L 97.720353 271.838398 
L 96.634552 274.779823 
L 95.54875 276.190454 
L 94.462949 284.692922 
L 93.377148 288.133468 
L 92.291347 287.739084 
L 91.205546 281.833115 
L 90.119745 281.33516 
L 89.033943 280.791092 
L 87.948142 285.390565 
L 86.862341 279.156431 
L 85.77654 278.291682 
L 84.690739 266.839329 
L 83.604938 273.736403 
L 82.519137 278.478455 
L 81.433335 282.62591 
L 80.347534 286.870896 
L 79.261733 276.758108 
L 78.175932 285.677937 
L 77.090131 284.375498 
L 76.00433 283.251494 
L 74.918528 284.199395 
L 73.832727 282.291722 
z
" style="fill:#0000ff;fill-opacity:0.25;"/>
   </g>
   <g id="matplotlib.axis_1">
    <g id="xtick_1">
     <g id="line2d_1">
      <defs>
       <path d="M 0 0 
L 0 3.5 
" id="m7126d7e754" style="stroke:#000000;stroke-width:0.8;"/>
      </defs>
      <g>
       <use style="stroke:#000000;stroke-width:0.8;" x="73.832727" xlink:href="#m7126d7e754" y="307.584"/>
      </g>
     </g>
     <g id="text_1">
      <!-- 0 -->
      <defs>
       <path d="M 31.78125 66.40625 
Q 24.171875 66.40625 20.328125 58.90625 
Q 16.5 51.421875 16.5 36.375 
Q 16.5 21.390625 20.328125 13.890625 
Q 24.171875 6.390625 31.78125 6.390625 
Q 39.453125 6.390625 43.28125 13.890625 
Q 47.125 21.390625 47.125 36.375 
Q 47.125 51.421875 43.28125 58.90625 
Q 39.453125 66.40625 31.78125 66.40625 
z
M 31.78125 74.21875 
Q 44.046875 74.21875 50.515625 64.515625 
Q 56.984375 54.828125 56.984375 36.375 
Q 56.984375 17.96875 50.515625 8.265625 
Q 44.046875 -1.421875 31.78125 -1.421875 
Q 19.53125 -1.421875 13.0625 8.265625 
Q 6.59375 17.96875 6.59375 36.375 
Q 6.59375 54.828125 13.0625 64.515625 
Q 19.53125 74.21875 31.78125 74.21875 
z
" id="DejaVuSans-48"/>
      </defs>
      <g transform="translate(70.651477 322.182437)scale(0.1 -0.1)">
       <use xlink:href="#DejaVuSans-48"/>
      </g>
     </g>
    </g>
    <g id="xtick_2">
     <g id="line2d_2">
      <g>
       <use style="stroke:#000000;stroke-width:0.8;" x="128.122785" xlink:href="#m7126d7e754" y="307.584"/>
      </g>
     </g>
     <g id="text_2">
      <!-- 50 -->
      <defs>
       <path d="M 10.796875 72.90625 
L 49.515625 72.90625 
L 49.515625 64.59375 
L 19.828125 64.59375 
L 19.828125 46.734375 
Q 21.96875 47.46875 24.109375 47.828125 
Q 26.265625 48.1875 28.421875 48.1875 
Q 40.625 48.1875 47.75 41.5 
Q 54.890625 34.8125 54.890625 23.390625 
Q 54.890625 11.625 47.5625 5.09375 
Q 40.234375 -1.421875 26.90625 -1.421875 
Q 22.3125 -1.421875 17.546875 -0.640625 
Q 12.796875 0.140625 7.71875 1.703125 
L 7.71875 11.625 
Q 12.109375 9.234375 16.796875 8.0625 
Q 21.484375 6.890625 26.703125 6.890625 
Q 35.15625 6.890625 40.078125 11.328125 
Q 45.015625 15.765625 45.015625 23.390625 
Q 45.015625 31 40.078125 35.4375 
Q 35.15625 39.890625 26.703125 39.890625 
Q 22.75 39.890625 18.8125 39.015625 
Q 14.890625 38.140625 10.796875 36.28125 
z
" id="DejaVuSans-53"/>
      </defs>
      <g transform="translate(121.760285 322.182437)scale(0.1 -0.1)">
       <use xlink:href="#DejaVuSans-53"/>
       <use x="63.623047" xlink:href="#DejaVuSans-48"/>
      </g>
     </g>
    </g>
    <g id="xtick_3">
     <g id="line2d_3">
      <g>
       <use style="stroke:#000000;stroke-width:0.8;" x="182.412843" xlink:href="#m7126d7e754" y="307.584"/>
      </g>
     </g>
     <g id="text_3">
      <!-- 100 -->
      <defs>
       <path d="M 12.40625 8.296875 
L 28.515625 8.296875 
L 28.515625 63.921875 
L 10.984375 60.40625 
L 10.984375 69.390625 
L 28.421875 72.90625 
L 38.28125 72.90625 
L 38.28125 8.296875 
L 54.390625 8.296875 
L 54.390625 0 
L 12.40625 0 
z
" id="DejaVuSans-49"/>
      </defs>
      <g transform="translate(172.869093 322.182437)scale(0.1 -0.1)">
       <use xlink:href="#DejaVuSans-49"/>
       <use x="63.623047" xlink:href="#DejaVuSans-48"/>
       <use x="127.246094" xlink:href="#DejaVuSans-48"/>
      </g>
     </g>
    </g>
    <g id="xtick_4">
     <g id="line2d_4">
      <g>
       <use style="stroke:#000000;stroke-width:0.8;" x="236.702901" xlink:href="#m7126d7e754" y="307.584"/>
      </g>
     </g>
     <g id="text_4">
      <!-- 150 -->
      <g transform="translate(227.159151 322.182437)scale(0.1 -0.1)">
       <use xlink:href="#DejaVuSans-49"/>
       <use x="63.623047" xlink:href="#DejaVuSans-53"/>
       <use x="127.246094" xlink:href="#DejaVuSans-48"/>
      </g>
     </g>
    </g>
    <g id="xtick_5">
     <g id="line2d_5">
      <g>
       <use style="stroke:#000000;stroke-width:0.8;" x="290.992958" xlink:href="#m7126d7e754" y="307.584"/>
      </g>
     </g>
     <g id="text_5">
      <!-- 200 -->
      <defs>
       <path d="M 19.1875 8.296875 
L 53.609375 8.296875 
L 53.609375 0 
L 7.328125 0 
L 7.328125 8.296875 
Q 12.9375 14.109375 22.625 23.890625 
Q 32.328125 33.6875 34.8125 36.53125 
Q 39.546875 41.84375 41.421875 45.53125 
Q 43.3125 49.21875 43.3125 52.78125 
Q 43.3125 58.59375 39.234375 62.25 
Q 35.15625 65.921875 28.609375 65.921875 
Q 23.96875 65.921875 18.8125 64.3125 
Q 13.671875 62.703125 7.8125 59.421875 
L 7.8125 69.390625 
Q 13.765625 71.78125 18.9375 73 
Q 24.125 74.21875 28.421875 74.21875 
Q 39.75 74.21875 46.484375 68.546875 
Q 53.21875 62.890625 53.21875 53.421875 
Q 53.21875 48.921875 51.53125 44.890625 
Q 49.859375 40.875 45.40625 35.40625 
Q 44.1875 33.984375 37.640625 27.21875 
Q 31.109375 20.453125 19.1875 8.296875 
z
" id="DejaVuSans-50"/>
      </defs>
      <g transform="translate(281.449208 322.182437)scale(0.1 -0.1)">
       <use xlink:href="#DejaVuSans-50"/>
       <use x="63.623047" xlink:href="#DejaVuSans-48"/>
       <use x="127.246094" xlink:href="#DejaVuSans-48"/>
      </g>
     </g>
    </g>
    <g id="xtick_6">
     <g id="line2d_6">
      <g>
       <use style="stroke:#000000;stroke-width:0.8;" x="345.283016" xlink:href="#m7126d7e754" y="307.584"/>
      </g>
     </g>
     <g id="text_6">
      <!-- 250 -->
      <g transform="translate(335.739266 322.182437)scale(0.1 -0.1)">
       <use xlink:href="#DejaVuSans-50"/>
       <use x="63.623047" xlink:href="#DejaVuSans-53"/>
       <use x="127.246094" xlink:href="#DejaVuSans-48"/>
      </g>
     </g>
    </g>
    <g id="xtick_7">
     <g id="line2d_7">
      <g>
       <use style="stroke:#000000;stroke-width:0.8;" x="399.573074" xlink:href="#m7126d7e754" y="307.584"/>
      </g>
     </g>
     <g id="text_7">
      <!-- 300 -->
      <defs>
       <path d="M 40.578125 39.3125 
Q 47.65625 37.796875 51.625 33 
Q 55.609375 28.21875 55.609375 21.1875 
Q 55.609375 10.40625 48.1875 4.484375 
Q 40.765625 -1.421875 27.09375 -1.421875 
Q 22.515625 -1.421875 17.65625 -0.515625 
Q 12.796875 0.390625 7.625 2.203125 
L 7.625 11.71875 
Q 11.71875 9.328125 16.59375 8.109375 
Q 21.484375 6.890625 26.8125 6.890625 
Q 36.078125 6.890625 40.9375 10.546875 
Q 45.796875 14.203125 45.796875 21.1875 
Q 45.796875 27.640625 41.28125 31.265625 
Q 36.765625 34.90625 28.71875 34.90625 
L 20.21875 34.90625 
L 20.21875 43.015625 
L 29.109375 43.015625 
Q 36.375 43.015625 40.234375 45.921875 
Q 44.09375 48.828125 44.09375 54.296875 
Q 44.09375 59.90625 40.109375 62.90625 
Q 36.140625 65.921875 28.71875 65.921875 
Q 24.65625 65.921875 20.015625 65.03125 
Q 15.375 64.15625 9.8125 62.3125 
L 9.8125 71.09375 
Q 15.4375 72.65625 20.34375 73.4375 
Q 25.25 74.21875 29.59375 74.21875 
Q 40.828125 74.21875 47.359375 69.109375 
Q 53.90625 64.015625 53.90625 55.328125 
Q 53.90625 49.265625 50.4375 45.09375 
Q 46.96875 40.921875 40.578125 39.3125 
z
" id="DejaVuSans-51"/>
      </defs>
      <g transform="translate(390.029324 322.182437)scale(0.1 -0.1)">
       <use xlink:href="#DejaVuSans-51"/>
       <use x="63.623047" xlink:href="#DejaVuSans-48"/>
       <use x="127.246094" xlink:href="#DejaVuSans-48"/>
      </g>
     </g>
    </g>
   </g>
   <g id="matplotlib.axis_2">
    <g id="ytick_1">
     <g id="line2d_8">
      <defs>
       <path d="M 0 0 
L -3.5 0 
" id="m136d12da9d" style="stroke:#000000;stroke-width:0.8;"/>
      </defs>
      <g>
       <use style="stroke:#000000;stroke-width:0.8;" x="57.6" xlink:href="#m136d12da9d" y="277.364219"/>
      </g>
     </g>
     <g id="text_8">
      <!-- 2 -->
      <g transform="translate(44.2375 281.163438)scale(0.1 -0.1)">
       <use xlink:href="#DejaVuSans-50"/>
      </g>
     </g>
    </g>
    <g id="ytick_2">
     <g id="line2d_9">
      <g>
       <use style="stroke:#000000;stroke-width:0.8;" x="57.6" xlink:href="#m136d12da9d" y="226.850447"/>
      </g>
     </g>
     <g id="text_9">
      <!-- 4 -->
      <defs>
       <path d="M 37.796875 64.3125 
L 12.890625 25.390625 
L 37.796875 25.390625 
z
M 35.203125 72.90625 
L 47.609375 72.90625 
L 47.609375 25.390625 
L 58.015625 25.390625 
L 58.015625 17.1875 
L 47.609375 17.1875 
L 47.609375 0 
L 37.796875 0 
L 37.796875 17.1875 
L 4.890625 17.1875 
L 4.890625 26.703125 
z
" id="DejaVuSans-52"/>
      </defs>
      <g transform="translate(44.2375 230.649666)scale(0.1 -0.1)">
       <use xlink:href="#DejaVuSans-52"/>
      </g>
     </g>
    </g>
    <g id="ytick_3">
     <g id="line2d_10">
      <g>
       <use style="stroke:#000000;stroke-width:0.8;" x="57.6" xlink:href="#m136d12da9d" y="176.336675"/>
      </g>
     </g>
     <g id="text_10">
      <!-- 6 -->
      <defs>
       <path d="M 33.015625 40.375 
Q 26.375 40.375 22.484375 35.828125 
Q 18.609375 31.296875 18.609375 23.390625 
Q 18.609375 15.53125 22.484375 10.953125 
Q 26.375 6.390625 33.015625 6.390625 
Q 39.65625 6.390625 43.53125 10.953125 
Q 47.40625 15.53125 47.40625 23.390625 
Q 47.40625 31.296875 43.53125 35.828125 
Q 39.65625 40.375 33.015625 40.375 
z
M 52.59375 71.296875 
L 52.59375 62.3125 
Q 48.875 64.0625 45.09375 64.984375 
Q 41.3125 65.921875 37.59375 65.921875 
Q 27.828125 65.921875 22.671875 59.328125 
Q 17.53125 52.734375 16.796875 39.40625 
Q 19.671875 43.65625 24.015625 45.921875 
Q 28.375 48.1875 33.59375 48.1875 
Q 44.578125 48.1875 50.953125 41.515625 
Q 57.328125 34.859375 57.328125 23.390625 
Q 57.328125 12.15625 50.6875 5.359375 
Q 44.046875 -1.421875 33.015625 -1.421875 
Q 20.359375 -1.421875 13.671875 8.265625 
Q 6.984375 17.96875 6.984375 36.375 
Q 6.984375 53.65625 15.1875 63.9375 
Q 23.390625 74.21875 37.203125 74.21875 
Q 40.921875 74.21875 44.703125 73.484375 
Q 48.484375 72.75 52.59375 71.296875 
z
" id="DejaVuSans-54"/>
      </defs>
      <g transform="translate(44.2375 180.135894)scale(0.1 -0.1)">
       <use xlink:href="#DejaVuSans-54"/>
      </g>
     </g>
    </g>
    <g id="ytick_4">
     <g id="line2d_11">
      <g>
       <use style="stroke:#000000;stroke-width:0.8;" x="57.6" xlink:href="#m136d12da9d" y="125.822904"/>
      </g>
     </g>
     <g id="text_11">
      <!-- 8 -->
      <defs>
       <path d="M 31.78125 34.625 
Q 24.75 34.625 20.71875 30.859375 
Q 16.703125 27.09375 16.703125 20.515625 
Q 16.703125 13.921875 20.71875 10.15625 
Q 24.75 6.390625 31.78125 6.390625 
Q 38.8125 6.390625 42.859375 10.171875 
Q 46.921875 13.96875 46.921875 20.515625 
Q 46.921875 27.09375 42.890625 30.859375 
Q 38.875 34.625 31.78125 34.625 
z
M 21.921875 38.8125 
Q 15.578125 40.375 12.03125 44.71875 
Q 8.5 49.078125 8.5 55.328125 
Q 8.5 64.0625 14.71875 69.140625 
Q 20.953125 74.21875 31.78125 74.21875 
Q 42.671875 74.21875 48.875 69.140625 
Q 55.078125 64.0625 55.078125 55.328125 
Q 55.078125 49.078125 51.53125 44.71875 
Q 48 40.375 41.703125 38.8125 
Q 48.828125 37.15625 52.796875 32.3125 
Q 56.78125 27.484375 56.78125 20.515625 
Q 56.78125 9.90625 50.3125 4.234375 
Q 43.84375 -1.421875 31.78125 -1.421875 
Q 19.734375 -1.421875 13.25 4.234375 
Q 6.78125 9.90625 6.78125 20.515625 
Q 6.78125 27.484375 10.78125 32.3125 
Q 14.796875 37.15625 21.921875 38.8125 
z
M 18.3125 54.390625 
Q 18.3125 48.734375 21.84375 45.5625 
Q 25.390625 42.390625 31.78125 42.390625 
Q 38.140625 42.390625 41.71875 45.5625 
Q 45.3125 48.734375 45.3125 54.390625 
Q 45.3125 60.0625 41.71875 63.234375 
Q 38.140625 66.40625 31.78125 66.40625 
Q 25.390625 66.40625 21.84375 63.234375 
Q 18.3125 60.0625 18.3125 54.390625 
z
" id="DejaVuSans-56"/>
      </defs>
      <g transform="translate(44.2375 129.622122)scale(0.1 -0.1)">
       <use xlink:href="#DejaVuSans-56"/>
      </g>
     </g>
    </g>
    <g id="ytick_5">
     <g id="line2d_12">
      <g>
       <use style="stroke:#000000;stroke-width:0.8;" x="57.6" xlink:href="#m136d12da9d" y="75.309132"/>
      </g>
     </g>
     <g id="text_12">
      <!-- 10 -->
      <g transform="translate(37.875 79.108351)scale(0.1 -0.1)">
       <use xlink:href="#DejaVuSans-49"/>
       <use x="63.623047" xlink:href="#DejaVuSans-48"/>
      </g>
     </g>
    </g>
    <g id="text_13">
     <!-- Distance -->
     <defs>
      <path d="M 19.671875 64.796875 
L 19.671875 8.109375 
L 31.59375 8.109375 
Q 46.6875 8.109375 53.6875 14.9375 
Q 60.6875 21.78125 60.6875 36.53125 
Q 60.6875 51.171875 53.6875 57.984375 
Q 46.6875 64.796875 31.59375 64.796875 
z
M 9.8125 72.90625 
L 30.078125 72.90625 
Q 51.265625 72.90625 61.171875 64.09375 
Q 71.09375 55.28125 71.09375 36.53125 
Q 71.09375 17.671875 61.125 8.828125 
Q 51.171875 0 30.078125 0 
L 9.8125 0 
z
" id="DejaVuSans-68"/>
      <path d="M 9.421875 54.6875 
L 18.40625 54.6875 
L 18.40625 0 
L 9.421875 0 
z
M 9.421875 75.984375 
L 18.40625 75.984375 
L 18.40625 64.59375 
L 9.421875 64.59375 
z
" id="DejaVuSans-105"/>
      <path d="M 44.28125 53.078125 
L 44.28125 44.578125 
Q 40.484375 46.53125 36.375 47.5 
Q 32.28125 48.484375 27.875 48.484375 
Q 21.1875 48.484375 17.84375 46.4375 
Q 14.5 44.390625 14.5 40.28125 
Q 14.5 37.15625 16.890625 35.375 
Q 19.28125 33.59375 26.515625 31.984375 
L 29.59375 31.296875 
Q 39.15625 29.25 43.1875 25.515625 
Q 47.21875 21.78125 47.21875 15.09375 
Q 47.21875 7.46875 41.1875 3.015625 
Q 35.15625 -1.421875 24.609375 -1.421875 
Q 20.21875 -1.421875 15.453125 -0.5625 
Q 10.6875 0.296875 5.421875 2 
L 5.421875 11.28125 
Q 10.40625 8.6875 15.234375 7.390625 
Q 20.0625 6.109375 24.8125 6.109375 
Q 31.15625 6.109375 34.5625 8.28125 
Q 37.984375 10.453125 37.984375 14.40625 
Q 37.984375 18.0625 35.515625 20.015625 
Q 33.0625 21.96875 24.703125 23.78125 
L 21.578125 24.515625 
Q 13.234375 26.265625 9.515625 29.90625 
Q 5.8125 33.546875 5.8125 39.890625 
Q 5.8125 47.609375 11.28125 51.796875 
Q 16.75 56 26.8125 56 
Q 31.78125 56 36.171875 55.265625 
Q 40.578125 54.546875 44.28125 53.078125 
z
" id="DejaVuSans-115"/>
      <path d="M 18.3125 70.21875 
L 18.3125 54.6875 
L 36.8125 54.6875 
L 36.8125 47.703125 
L 18.3125 47.703125 
L 18.3125 18.015625 
Q 18.3125 11.328125 20.140625 9.421875 
Q 21.96875 7.515625 27.59375 7.515625 
L 36.8125 7.515625 
L 36.8125 0 
L 27.59375 0 
Q 17.1875 0 13.234375 3.875 
Q 9.28125 7.765625 9.28125 18.015625 
L 9.28125 47.703125 
L 2.6875 47.703125 
L 2.6875 54.6875 
L 9.28125 54.6875 
L 9.28125 70.21875 
z
" id="DejaVuSans-116"/>
      <path d="M 34.28125 27.484375 
Q 23.390625 27.484375 19.1875 25 
Q 14.984375 22.515625 14.984375 16.5 
Q 14.984375 11.71875 18.140625 8.90625 
Q 21.296875 6.109375 26.703125 6.109375 
Q 34.1875 6.109375 38.703125 11.40625 
Q 43.21875 16.703125 43.21875 25.484375 
L 43.21875 27.484375 
z
M 52.203125 31.203125 
L 52.203125 0 
L 43.21875 0 
L 43.21875 8.296875 
Q 40.140625 3.328125 35.546875 0.953125 
Q 30.953125 -1.421875 24.3125 -1.421875 
Q 15.921875 -1.421875 10.953125 3.296875 
Q 6 8.015625 6 15.921875 
Q 6 25.140625 12.171875 29.828125 
Q 18.359375 34.515625 30.609375 34.515625 
L 43.21875 34.515625 
L 43.21875 35.40625 
Q 43.21875 41.609375 39.140625 45 
Q 35.0625 48.390625 27.6875 48.390625 
Q 23 48.390625 18.546875 47.265625 
Q 14.109375 46.140625 10.015625 43.890625 
L 10.015625 52.203125 
Q 14.9375 54.109375 19.578125 55.046875 
Q 24.21875 56 28.609375 56 
Q 40.484375 56 46.34375 49.84375 
Q 52.203125 43.703125 52.203125 31.203125 
z
" id="DejaVuSans-97"/>
      <path d="M 54.890625 33.015625 
L 54.890625 0 
L 45.90625 0 
L 45.90625 32.71875 
Q 45.90625 40.484375 42.875 44.328125 
Q 39.84375 48.1875 33.796875 48.1875 
Q 26.515625 48.1875 22.3125 43.546875 
Q 18.109375 38.921875 18.109375 30.90625 
L 18.109375 0 
L 9.078125 0 
L 9.078125 54.6875 
L 18.109375 54.6875 
L 18.109375 46.1875 
Q 21.34375 51.125 25.703125 53.5625 
Q 30.078125 56 35.796875 56 
Q 45.21875 56 50.046875 50.171875 
Q 54.890625 44.34375 54.890625 33.015625 
z
" id="DejaVuSans-110"/>
      <path d="M 48.78125 52.59375 
L 48.78125 44.1875 
Q 44.96875 46.296875 41.140625 47.34375 
Q 37.3125 48.390625 33.40625 48.390625 
Q 24.65625 48.390625 19.8125 42.84375 
Q 14.984375 37.3125 14.984375 27.296875 
Q 14.984375 17.28125 19.8125 11.734375 
Q 24.65625 6.203125 33.40625 6.203125 
Q 37.3125 6.203125 41.140625 7.25 
Q 44.96875 8.296875 48.78125 10.40625 
L 48.78125 2.09375 
Q 45.015625 0.34375 40.984375 -0.53125 
Q 36.96875 -1.421875 32.421875 -1.421875 
Q 20.0625 -1.421875 12.78125 6.34375 
Q 5.515625 14.109375 5.515625 27.296875 
Q 5.515625 40.671875 12.859375 48.328125 
Q 20.21875 56 33.015625 56 
Q 37.15625 56 41.109375 55.140625 
Q 45.0625 54.296875 48.78125 52.59375 
z
" id="DejaVuSans-99"/>
      <path d="M 56.203125 29.59375 
L 56.203125 25.203125 
L 14.890625 25.203125 
Q 15.484375 15.921875 20.484375 11.0625 
Q 25.484375 6.203125 34.421875 6.203125 
Q 39.59375 6.203125 44.453125 7.46875 
Q 49.3125 8.734375 54.109375 11.28125 
L 54.109375 2.78125 
Q 49.265625 0.734375 44.1875 -0.34375 
Q 39.109375 -1.421875 33.890625 -1.421875 
Q 20.796875 -1.421875 13.15625 6.1875 
Q 5.515625 13.8125 5.515625 26.8125 
Q 5.515625 40.234375 12.765625 48.109375 
Q 20.015625 56 32.328125 56 
Q 43.359375 56 49.78125 48.890625 
Q 56.203125 41.796875 56.203125 29.59375 
z
M 47.21875 32.234375 
Q 47.125 39.59375 43.09375 43.984375 
Q 39.0625 48.390625 32.421875 48.390625 
Q 24.90625 48.390625 20.390625 44.140625 
Q 15.875 39.890625 15.1875 32.171875 
z
" id="DejaVuSans-101"/>
     </defs>
     <g transform="translate(31.795312 196.3905)rotate(-90)scale(0.1 -0.1)">
      <use xlink:href="#DejaVuSans-68"/>
      <use x="77.001953" xlink:href="#DejaVuSans-105"/>
      <use x="104.785156" xlink:href="#DejaVuSans-115"/>
      <use x="156.884766" xlink:href="#DejaVuSans-116"/>
      <use x="196.09375" xlink:href="#DejaVuSans-97"/>
      <use x="257.373047" xlink:href="#DejaVuSans-110"/>
      <use x="320.751953" xlink:href="#DejaVuSans-99"/>
      <use x="375.732422" xlink:href="#DejaVuSans-101"/>
     </g>
    </g>
   </g>
   <g id="line2d_13">
    <path clip-path="url(#p80ff8e510a)" d="M 73.832727 283.416647 
L 74.918528 286.413089 
L 76.00433 285.041791 
L 77.090131 286.634508 
L 78.175932 287.374103 
L 79.261733 284.645986 
L 80.347534 288.862038 
L 81.433335 285.103114 
L 82.519137 282.310961 
L 83.604938 278.680904 
L 84.690739 276.572246 
L 85.77654 282.848564 
L 86.862341 283.021746 
L 87.948142 288.371434 
L 89.033943 283.798788 
L 90.119745 286.265683 
L 91.205546 286.987122 
L 92.291347 291.613542 
L 93.377148 290.511996 
L 94.462949 286.664797 
L 95.54875 282.021238 
L 96.634552 282.366203 
L 97.720353 280.087423 
L 98.806154 278.522434 
L 99.891955 282.529617 
L 100.977756 283.783555 
L 102.063557 284.035599 
L 103.149358 278.421124 
L 104.23516 278.768014 
L 105.320961 271.863289 
L 106.406762 267.448181 
L 107.492563 273.040344 
L 108.578364 280.039193 
L 109.664165 265.961454 
L 110.749967 265.689846 
L 111.835768 253.67525 
L 112.921569 257.982237 
L 114.00737 255.0241 
L 115.093171 253.396456 
L 116.178972 254.424434 
L 117.264773 257.10071 
L 118.350575 245.581351 
L 119.436376 244.847778 
L 120.522177 247.722004 
L 121.607978 239.000343 
L 122.693779 222.769578 
L 123.77958 223.603931 
L 124.865382 234.79713 
L 125.951183 233.650355 
L 127.036984 236.995414 
L 128.122785 242.99407 
L 129.208586 240.480306 
L 130.294387 226.377715 
L 131.380189 238.981841 
L 132.46599 230.43806 
L 133.551791 242.31474 
L 134.637592 226.733382 
L 135.723393 214.192331 
L 136.809194 227.337116 
L 137.894995 222.865942 
L 138.980797 213.270389 
L 140.066598 230.021235 
L 141.152399 224.674 
L 142.2382 222.619271 
L 143.324001 213.542777 
L 144.409802 242.857639 
L 145.495604 224.134037 
L 146.581405 214.162372 
L 148.753007 232.032185 
L 149.838808 232.913204 
L 150.924609 236.148164 
L 152.01041 231.523784 
L 153.096212 227.868063 
L 154.182013 234.252371 
L 155.267814 227.292847 
L 156.353615 227.634905 
L 158.525217 198.699463 
L 159.611019 230.63819 
L 160.69682 210.095489 
L 161.782621 225.937036 
L 162.868422 234.109107 
L 163.954223 220.461977 
L 165.040024 211.133523 
L 166.125825 209.824298 
L 167.211627 223.910704 
L 168.297428 223.797592 
L 169.383229 232.760052 
L 170.46903 222.640577 
L 171.554831 208.795485 
L 172.640632 197.237529 
L 173.726434 199.188178 
L 174.812235 223.953052 
L 175.898036 217.163975 
L 176.983837 222.680351 
L 178.069638 191.387053 
L 179.155439 201.82168 
L 180.24124 183.798516 
L 181.327042 178.852981 
L 182.412843 195.025235 
L 183.498644 221.52219 
L 184.584445 192.244572 
L 185.670246 177.820203 
L 186.756047 192.35627 
L 187.841849 205.123721 
L 188.92765 192.674824 
L 190.013451 201.742034 
L 191.099252 205.139316 
L 192.185053 180.714059 
L 193.270854 190.448226 
L 195.442457 148.687168 
L 196.528258 158.059772 
L 197.614059 161.119731 
L 198.69986 148.529379 
L 199.785661 177.271676 
L 201.957264 200.198706 
L 203.043065 201.931035 
L 204.128866 177.71269 
L 205.214667 230.918211 
L 206.300468 222.838354 
L 207.386269 186.932827 
L 208.472071 185.969434 
L 209.557872 179.218246 
L 210.643673 218.971018 
L 211.729474 219.848314 
L 212.815275 208.677337 
L 213.901076 200.24533 
L 214.986877 196.528999 
L 216.072679 169.093815 
L 217.15848 164.973004 
L 218.244281 170.351541 
L 219.330082 196.068407 
L 220.415883 188.067352 
L 221.501684 187.648718 
L 222.587486 179.714343 
L 223.673287 182.25241 
L 225.844889 152.405618 
L 226.93069 169.091322 
L 228.016491 166.073729 
L 229.102292 143.878006 
L 230.188094 167.70055 
L 231.273895 148.359055 
L 232.359696 169.017219 
L 233.445497 170.100128 
L 234.531298 161.45707 
L 235.617099 161.300562 
L 236.702901 173.278844 
L 237.788702 194.83609 
L 238.874503 159.212045 
L 239.960304 169.704678 
L 241.046105 159.669134 
L 242.131906 162.179162 
L 243.217708 179.52316 
L 244.303509 148.256876 
L 245.38931 177.201344 
L 246.475111 146.348669 
L 247.560912 165.476396 
L 248.646713 179.929108 
L 249.732514 163.637816 
L 250.818316 152.638949 
L 251.904117 186.922686 
L 252.989918 164.177215 
L 254.075719 183.748731 
L 255.16152 161.347043 
L 256.247321 144.609494 
L 257.333123 182.967039 
L 258.418924 178.641575 
L 259.504725 166.840693 
L 260.590526 181.883764 
L 261.676327 161.717344 
L 262.762128 158.458177 
L 263.847929 170.519008 
L 264.933731 133.708032 
L 266.019532 159.352053 
L 267.105333 188.501114 
L 268.191134 166.639837 
L 269.276935 152.458252 
L 270.362736 198.457431 
L 271.448538 182.297988 
L 272.534339 191.259091 
L 273.62014 172.181295 
L 274.705941 157.460063 
L 275.791742 179.37636 
L 276.877543 191.925667 
L 277.963344 146.932633 
L 279.049146 126.821776 
L 280.134947 132.153316 
L 281.220748 132.817312 
L 282.306549 143.118313 
L 283.39235 113.737704 
L 284.478151 108.472346 
L 286.649754 153.582199 
L 287.735555 151.672021 
L 288.821356 151.070932 
L 289.907157 165.743291 
L 290.992958 143.165393 
L 292.07876 146.304888 
L 293.164561 151.108139 
L 294.250362 140.837061 
L 295.336163 140.139269 
L 296.421964 139.26628 
L 297.507765 127.634451 
L 298.593566 136.876055 
L 299.679368 122.110411 
L 300.765169 129.099158 
L 301.85097 102.928404 
L 302.936771 111.401616 
L 304.022572 104.536028 
L 305.108373 101.4016 
L 306.194175 101.265852 
L 307.279976 97.546878 
L 308.365777 114.340573 
L 309.451578 105.636442 
L 310.537379 98.010401 
L 311.62318 115.691983 
L 312.708981 102.16586 
L 313.794783 129.724206 
L 314.880584 131.103991 
L 315.966385 117.289844 
L 317.052186 125.685499 
L 318.137987 105.645579 
L 319.223788 104.713108 
L 320.30959 166.099099 
L 321.395391 119.133084 
L 322.481192 130.16067 
L 323.566993 128.263444 
L 324.652794 97.318619 
L 325.738595 84.565258 
L 326.824396 99.30858 
L 327.910198 138.072368 
L 328.995999 110.727866 
L 330.0818 104.002432 
L 331.167601 98.248923 
L 332.253402 108.348523 
L 333.339203 130.39841 
L 334.425005 117.262576 
L 335.510806 144.200303 
L 336.596607 129.835641 
L 337.682408 107.287535 
L 338.768209 90.508359 
L 339.85401 98.467579 
L 340.939811 87.117866 
L 342.025613 96.224231 
L 343.111414 89.854951 
L 344.197215 92.895352 
L 345.283016 79.764919 
L 346.368817 110.859889 
L 347.454618 103.253994 
L 348.54042 127.107215 
L 349.626221 120.195895 
L 350.712022 109.947523 
L 351.797823 109.545052 
L 352.883624 120.04259 
L 353.969425 123.714052 
L 355.055227 122.467654 
L 356.141028 129.902397 
L 357.226829 102.179333 
L 358.31263 105.516448 
L 359.398431 120.128097 
L 360.484232 91.895186 
L 361.570033 85.876796 
L 362.655835 124.318354 
L 363.741636 115.206802 
L 364.827437 104.411328 
L 365.913238 97.634846 
L 366.999039 96.846083 
L 368.08484 113.745369 
L 369.170642 94.272096 
L 370.256443 94.387671 
L 371.342244 128.159822 
L 372.428045 99.777263 
L 373.513846 99.097938 
L 374.599647 116.818809 
L 375.685448 111.49935 
L 376.77125 108.04379 
L 377.857051 115.170055 
L 378.942852 100.960003 
L 380.028653 107.711329 
L 381.114454 111.993474 
L 382.200255 84.17302 
L 383.286057 111.404345 
L 384.371858 101.082407 
L 385.457659 99.267818 
L 386.54346 76.390517 
L 387.629261 81.514663 
L 388.715062 85.652636 
L 389.800863 74.960503 
L 390.886665 109.966317 
L 391.972466 85.10758 
L 393.058267 91.046176 
L 394.144068 119.723854 
L 395.229869 108.956286 
L 396.31567 94.569365 
L 397.401472 92.092512 
L 398.487273 121.711168 
L 398.487273 121.711168 
" style="fill:none;stroke:#0000ff;stroke-linecap:square;stroke-width:1.5;"/>
   </g>
   <g id="patch_3">
    <path d="M 57.6 307.584 
L 57.6 41.472 
" style="fill:none;stroke:#000000;stroke-linecap:square;stroke-linejoin:miter;stroke-width:0.8;"/>
   </g>
   <g id="patch_4">
    <path d="M 414.72 307.584 
L 414.72 41.472 
" style="fill:none;stroke:#000000;stroke-linecap:square;stroke-linejoin:miter;stroke-width:0.8;"/>
   </g>
   <g id="patch_5">
    <path d="M 57.6 307.584 
L 414.72 307.584 
" style="fill:none;stroke:#000000;stroke-linecap:square;stroke-linejoin:miter;stroke-width:0.8;"/>
   </g>
   <g id="patch_6">
    <path d="M 57.6 41.472 
L 414.72 41.472 
" style="fill:none;stroke:#000000;stroke-linecap:square;stroke-linejoin:miter;stroke-width:0.8;"/>
   </g>
  </g>
  <g id="axes_2">
   <g id="PolyCollection_2">
    <path clip-path="url(#p80ff8e510a)" d="M 73.832727 229.41919 
L 73.832727 251.116528 
L 74.918528 249.62886 
L 76.00433 251.024024 
L 77.090131 250.778787 
L 78.175932 248.506936 
L 79.261733 250.426343 
L 80.347534 248.896417 
L 81.433335 248.878852 
L 82.519137 251.593161 
L 83.604938 251.568597 
L 84.690739 252.66411 
L 85.77654 252.816492 
L 86.862341 253.418151 
L 87.948142 250.971704 
L 89.033943 250.605639 
L 90.119745 251.033361 
L 91.205546 251.688991 
L 92.291347 249.721289 
L 93.377148 249.433963 
L 94.462949 250.025766 
L 95.54875 251.846615 
L 96.634552 251.914353 
L 97.720353 252.89222 
L 98.806154 251.966589 
L 99.891955 251.370731 
L 100.977756 250.334027 
L 102.063557 251.971113 
L 103.149358 252.379547 
L 104.23516 252.407123 
L 105.320961 255.69206 
L 106.406762 258.931857 
L 107.492563 257.930516 
L 108.578364 256.856823 
L 109.664165 258.390056 
L 110.749967 257.546446 
L 111.835768 261.884906 
L 112.921569 259.938541 
L 114.00737 261.444859 
L 115.093171 262.099181 
L 116.178972 262.022747 
L 117.264773 262.120569 
L 118.350575 265.832176 
L 119.436376 264.471982 
L 120.522177 266.098445 
L 121.607978 266.447844 
L 122.693779 269.466501 
L 123.77958 266.932748 
L 124.865382 265.597666 
L 125.951183 267.087433 
L 127.036984 264.427578 
L 128.122785 266.140746 
L 129.208586 266.712858 
L 130.294387 270.262634 
L 131.380189 270.1267 
L 132.46599 270.207535 
L 133.551791 267.381026 
L 134.637592 269.603521 
L 135.723393 272.668921 
L 136.809194 269.806973 
L 137.894995 271.530175 
L 138.980797 275.716015 
L 140.066598 275.381684 
L 141.152399 274.817306 
L 142.2382 276.634549 
L 143.324001 276.172254 
L 144.409802 276.388465 
L 145.495604 272.397388 
L 146.581405 274.410948 
L 147.667206 273.571119 
L 148.753007 272.98634 
L 149.838808 275.036881 
L 150.924609 272.848303 
L 152.01041 272.573849 
L 153.096212 271.678194 
L 154.182013 273.939243 
L 155.267814 271.490024 
L 156.353615 274.444375 
L 157.439416 276.373896 
L 158.525217 277.626994 
L 159.611019 277.713677 
L 160.69682 276.444965 
L 161.782621 278.477302 
L 162.868422 279.323391 
L 163.954223 278.651792 
L 165.040024 277.148371 
L 166.125825 275.634233 
L 167.211627 278.591538 
L 168.297428 278.324572 
L 169.383229 278.077199 
L 170.46903 276.288265 
L 171.554831 276.795904 
L 172.640632 279.765985 
L 173.726434 276.047196 
L 174.812235 276.51312 
L 175.898036 277.317706 
L 176.983837 282.440286 
L 178.069638 282.805086 
L 179.155439 281.165767 
L 180.24124 286.340845 
L 181.327042 286.824424 
L 182.412843 287.731457 
L 183.498644 288.831449 
L 184.584445 288.205819 
L 185.670246 288.953065 
L 186.756047 290.237944 
L 187.841849 292.37323 
L 188.92765 293.3146 
L 190.013451 291.187498 
L 191.099252 291.777865 
L 192.185053 290.566281 
L 193.270854 295.392339 
L 194.356656 295.488 
L 195.442457 294.867394 
L 196.528258 292.526467 
L 197.614059 294.625126 
L 198.69986 290.035449 
L 199.785661 289.858426 
L 200.871462 287.447451 
L 201.957264 284.613092 
L 203.043065 284.561248 
L 204.128866 285.507564 
L 205.214667 284.14624 
L 206.300468 283.87376 
L 207.386269 284.904835 
L 208.472071 287.08656 
L 209.557872 283.772428 
L 210.643673 283.815381 
L 211.729474 283.408295 
L 212.815275 283.173588 
L 213.901076 283.594163 
L 214.986877 284.167038 
L 216.072679 286.245353 
L 217.15848 283.367488 
L 218.244281 284.208973 
L 219.330082 285.598968 
L 220.415883 284.47522 
L 221.501684 283.064345 
L 222.587486 284.482595 
L 223.673287 286.118379 
L 224.759088 286.624356 
L 225.844889 287.057954 
L 226.93069 289.237126 
L 228.016491 285.69939 
L 229.102292 284.459811 
L 230.188094 284.668262 
L 231.273895 283.935995 
L 232.359696 283.323061 
L 233.445497 283.152604 
L 234.531298 286.343697 
L 235.617099 288.009832 
L 236.702901 285.191787 
L 237.788702 280.615375 
L 238.874503 284.178574 
L 239.960304 283.077781 
L 241.046105 280.594735 
L 242.131906 280.50081 
L 243.217708 280.602062 
L 244.303509 282.103372 
L 245.38931 278.319929 
L 246.475111 279.406102 
L 247.560912 278.494332 
L 248.646713 278.756924 
L 249.732514 278.410829 
L 250.818316 278.471795 
L 251.904117 278.636583 
L 252.989918 280.408224 
L 254.075719 280.099461 
L 255.16152 282.102605 
L 256.247321 283.031327 
L 257.333123 282.06338 
L 258.418924 281.723005 
L 259.504725 281.452959 
L 260.590526 283.214838 
L 261.676327 283.445149 
L 262.762128 284.490415 
L 263.847929 286.099353 
L 264.933731 286.778011 
L 266.019532 284.43489 
L 267.105333 286.233093 
L 268.191134 289.486962 
L 269.276935 285.020064 
L 270.362736 281.386248 
L 271.448538 282.244126 
L 272.534339 283.859235 
L 273.62014 282.533499 
L 274.705941 287.706224 
L 275.791742 283.20132 
L 276.877543 283.0043 
L 277.963344 283.554053 
L 279.049146 285.927861 
L 280.134947 285.505984 
L 281.220748 286.075591 
L 282.306549 285.876381 
L 283.39235 285.079203 
L 284.478151 287.476529 
L 285.563953 285.072727 
L 286.649754 283.706302 
L 287.735555 284.896127 
L 288.821356 284.374318 
L 289.907157 284.657314 
L 290.992958 287.869045 
L 292.07876 287.136609 
L 293.164561 287.36869 
L 294.250362 286.520041 
L 295.336163 285.907064 
L 296.421964 287.79061 
L 297.507765 285.86737 
L 298.593566 286.269039 
L 299.679368 286.449461 
L 300.765169 283.231205 
L 301.85097 286.143679 
L 302.936771 285.583734 
L 304.022572 284.07379 
L 305.108373 286.73777 
L 306.194175 286.334325 
L 307.279976 286.190115 
L 308.365777 284.959471 
L 309.451578 286.576924 
L 310.537379 285.922775 
L 311.62318 286.756487 
L 312.708981 284.465253 
L 313.794783 280.056671 
L 314.880584 283.89942 
L 315.966385 284.585508 
L 317.052186 283.383957 
L 318.137987 284.888027 
L 319.223788 284.888464 
L 320.30959 282.645285 
L 321.395391 282.805319 
L 322.481192 281.638658 
L 323.566993 280.803733 
L 324.652794 283.45705 
L 325.738595 286.100636 
L 326.824396 283.906994 
L 327.910198 280.454114 
L 328.995999 286.069418 
L 330.0818 285.761425 
L 331.167601 283.115731 
L 332.253402 283.996901 
L 333.339203 281.909902 
L 334.425005 281.747811 
L 335.510806 278.918367 
L 336.596607 279.519904 
L 337.682408 280.600919 
L 338.768209 284.070071 
L 339.85401 286.903822 
L 340.939811 284.517782 
L 342.025613 285.004137 
L 343.111414 284.887584 
L 344.197215 286.521753 
L 345.283016 288.123 
L 346.368817 285.653547 
L 347.454618 283.627654 
L 348.54042 279.510698 
L 349.626221 277.565205 
L 350.712022 284.939861 
L 351.797823 284.92331 
L 352.883624 281.260865 
L 353.969425 280.677222 
L 355.055227 283.77361 
L 356.141028 283.338618 
L 357.226829 287.412085 
L 358.31263 282.223131 
L 359.398431 283.615421 
L 360.484232 283.741134 
L 361.570033 281.901604 
L 362.655835 280.056579 
L 363.741636 281.775947 
L 364.827437 281.814566 
L 365.913238 279.215129 
L 366.999039 284.167057 
L 368.08484 281.499879 
L 369.170642 283.051925 
L 370.256443 282.747906 
L 371.342244 280.271871 
L 372.428045 280.285459 
L 373.513846 281.517484 
L 374.599647 279.134207 
L 375.685448 280.787521 
L 376.77125 277.131477 
L 377.857051 278.881164 
L 378.942852 278.996361 
L 380.028653 279.945978 
L 381.114454 275.152453 
L 382.200255 281.246796 
L 383.286057 276.851846 
L 384.371858 278.100931 
L 385.457659 281.474187 
L 386.54346 281.874252 
L 387.629261 283.316858 
L 388.715062 283.953647 
L 389.800863 283.186187 
L 390.886665 280.086449 
L 391.972466 280.432961 
L 393.058267 283.301826 
L 394.144068 284.16603 
L 395.229869 282.338287 
L 396.31567 282.780935 
L 397.401472 284.264147 
L 398.487273 283.327154 
L 398.487273 63.671767 
L 398.487273 63.671767 
L 397.401472 66.134823 
L 396.31567 64.14846 
L 395.229869 59.205436 
L 394.144068 66.504387 
L 393.058267 61.076635 
L 391.972466 58.2847 
L 390.886665 54.002871 
L 389.800863 69.16589 
L 388.715062 68.759993 
L 387.629261 65.530409 
L 386.54346 62.929881 
L 385.457659 64.504322 
L 384.371858 61.363213 
L 383.286057 62.934974 
L 382.200255 66.101953 
L 381.114454 53.568 
L 380.028653 64.704163 
L 378.942852 63.010936 
L 377.857051 66.547925 
L 376.77125 70.712843 
L 375.685448 73.960182 
L 374.599647 72.556727 
L 373.513846 82.16988 
L 372.428045 76.557088 
L 371.342244 77.306243 
L 370.256443 75.039679 
L 369.170642 73.02213 
L 368.08484 67.172042 
L 366.999039 76.696591 
L 365.913238 76.995849 
L 364.827437 67.569916 
L 363.741636 71.330772 
L 362.655835 64.25612 
L 361.570033 62.798688 
L 360.484232 65.319619 
L 359.398431 70.030984 
L 358.31263 64.632663 
L 357.226829 73.809098 
L 356.141028 64.550168 
L 355.055227 67.312395 
L 353.969425 64.377585 
L 352.883624 67.105316 
L 351.797823 71.614979 
L 350.712022 78.643197 
L 349.626221 70.412674 
L 348.54042 70.507294 
L 347.454618 74.838868 
L 346.368817 71.969102 
L 345.283016 81.355848 
L 344.197215 76.499986 
L 343.111414 79.764698 
L 342.025613 77.238271 
L 340.939811 83.103038 
L 339.85401 91.583056 
L 338.768209 84.281498 
L 337.682408 84.452097 
L 336.596607 77.449834 
L 335.510806 73.003804 
L 334.425005 79.71839 
L 333.339203 75.890826 
L 332.253402 70.289518 
L 331.167601 63.479608 
L 330.0818 70.042479 
L 328.995999 76.32611 
L 327.910198 66.084318 
L 326.824396 78.850518 
L 325.738595 88.423624 
L 324.652794 81.881139 
L 323.566993 71.024828 
L 322.481192 75.553207 
L 321.395391 86.173336 
L 320.30959 74.544134 
L 319.223788 87.757413 
L 318.137987 86.428799 
L 317.052186 75.790499 
L 315.966385 76.198186 
L 314.880584 72.649299 
L 313.794783 67.549765 
L 312.708981 79.46579 
L 311.62318 72.762766 
L 310.537379 71.426607 
L 309.451578 69.07359 
L 308.365777 74.44913 
L 307.279976 72.50969 
L 306.194175 67.585752 
L 305.108373 72.53178 
L 304.022572 75.496835 
L 302.936771 81.37846 
L 301.85097 87.55279 
L 300.765169 96.368533 
L 299.679368 95.075587 
L 298.593566 85.429111 
L 297.507765 99.226183 
L 296.421964 96.353764 
L 295.336163 99.632259 
L 294.250362 99.634758 
L 293.164561 98.754986 
L 292.07876 93.414621 
L 290.992958 98.892187 
L 289.907157 88.000108 
L 288.821356 83.141056 
L 287.735555 77.98911 
L 286.649754 82.217262 
L 285.563953 82.832164 
L 284.478151 83.197066 
L 283.39235 80.276012 
L 282.306549 81.834877 
L 281.220748 92.335485 
L 280.134947 91.785172 
L 279.049146 94.982738 
L 277.963344 97.287434 
L 276.877543 84.868357 
L 275.791742 91.971198 
L 274.705941 93.333628 
L 273.62014 87.780489 
L 272.534339 87.231807 
L 271.448538 88.556725 
L 270.362736 82.215942 
L 269.276935 91.433787 
L 268.191134 75.844641 
L 267.105333 86.271483 
L 266.019532 87.161761 
L 264.933731 98.872812 
L 263.847929 90.59471 
L 262.762128 90.107724 
L 261.676327 78.62704 
L 260.590526 80.033745 
L 259.504725 94.908107 
L 258.418924 99.971445 
L 257.333123 97.715909 
L 256.247321 96.870996 
L 255.16152 94.452011 
L 254.075719 97.887573 
L 252.989918 101.418817 
L 251.904117 100.238452 
L 250.818316 110.827748 
L 249.732514 112.338643 
L 248.646713 113.286799 
L 247.560912 104.951944 
L 246.475111 110.955992 
L 245.38931 98.203614 
L 244.303509 102.129061 
L 243.217708 88.480797 
L 242.131906 93.556347 
L 241.046105 94.846613 
L 239.960304 96.506448 
L 238.874503 102.01771 
L 237.788702 87.14551 
L 236.702901 93.634739 
L 235.617099 91.002423 
L 234.531298 98.435844 
L 233.445497 98.369363 
L 232.359696 102.217706 
L 231.273895 103.72198 
L 230.188094 108.738927 
L 229.102292 109.829775 
L 228.016491 107.158735 
L 226.93069 106.302643 
L 225.844889 113.734403 
L 224.759088 122.695107 
L 223.673287 120.317359 
L 222.587486 114.450459 
L 221.501684 106.828778 
L 220.415883 110.487853 
L 219.330082 108.871567 
L 218.244281 123.097774 
L 217.15848 123.10505 
L 216.072679 119.178784 
L 214.986877 117.540242 
L 213.901076 123.928245 
L 212.815275 116.393352 
L 211.729474 117.724354 
L 210.643673 117.397848 
L 209.557872 120.44539 
L 208.472071 120.633899 
L 207.386269 124.420703 
L 206.300468 120.416721 
L 205.214667 117.808231 
L 204.128866 120.675771 
L 203.043065 122.516552 
L 201.957264 124.179149 
L 200.871462 121.847811 
L 199.785661 121.254293 
L 198.69986 129.324354 
L 197.614059 116.143521 
L 196.528258 119.888717 
L 195.442457 113.552281 
L 194.356656 109.106497 
L 193.270854 112.527974 
L 192.185053 118.063376 
L 191.099252 113.790995 
L 190.013451 117.136874 
L 188.92765 116.888964 
L 187.841849 108.741701 
L 186.756047 114.2544 
L 185.670246 125.854651 
L 184.584445 120.670952 
L 183.498644 117.815629 
L 182.412843 119.671878 
L 181.327042 118.903464 
L 180.24124 124.552865 
L 179.155439 130.260147 
L 178.069638 128.38121 
L 176.983837 121.885138 
L 175.898036 133.179657 
L 174.812235 135.26079 
L 173.726434 139.570378 
L 172.640632 140.865901 
L 171.554831 144.758545 
L 170.46903 139.857228 
L 169.383229 136.014169 
L 168.297428 138.38591 
L 167.211627 141.407997 
L 166.125825 144.272379 
L 165.040024 141.502968 
L 163.954223 137.089273 
L 162.868422 137.077138 
L 161.782621 143.335633 
L 160.69682 151.088075 
L 159.611019 145.514242 
L 158.525217 148.562866 
L 157.439416 145.529906 
L 156.353615 151.185417 
L 155.267814 156.109353 
L 154.182013 153.617817 
L 153.096212 161.488371 
L 152.01041 158.289419 
L 150.924609 162.298984 
L 149.838808 161.63044 
L 148.753007 160.234438 
L 147.667206 160.2618 
L 146.581405 160.740931 
L 145.495604 162.96345 
L 144.409802 150.557451 
L 143.324001 157.615796 
L 142.2382 153.575531 
L 141.152399 154.491131 
L 140.066598 157.049273 
L 138.980797 159.86897 
L 137.894995 165.807164 
L 136.809194 171.524907 
L 135.723393 168.630856 
L 134.637592 174.410279 
L 133.551791 177.790173 
L 132.46599 175.466436 
L 131.380189 169.454863 
L 130.294387 174.239196 
L 129.208586 176.198185 
L 128.122785 173.771204 
L 127.036984 182.94711 
L 125.951183 184.90213 
L 124.865382 189.887676 
L 123.77958 184.797381 
L 122.693779 177.702997 
L 121.607978 180.004698 
L 120.522177 177.847835 
L 119.436376 181.771357 
L 118.350575 181.638019 
L 117.264773 185.334884 
L 116.178972 188.363488 
L 115.093171 190.599937 
L 114.00737 193.567616 
L 112.921569 193.123494 
L 111.835768 195.602588 
L 110.749967 209.175391 
L 109.664165 209.210399 
L 108.578364 209.797543 
L 107.492563 211.736341 
L 106.406762 206.416959 
L 105.320961 212.19034 
L 104.23516 215.539479 
L 103.149358 216.213448 
L 102.063557 216.668616 
L 100.977756 217.551372 
L 99.891955 215.403268 
L 98.806154 213.800695 
L 97.720353 211.453167 
L 96.634552 214.489469 
L 95.54875 214.82746 
L 94.462949 219.405039 
L 93.377148 223.058018 
L 92.291347 223.916745 
L 91.205546 221.234416 
L 90.119745 222.314705 
L 89.033943 220.325116 
L 87.948142 222.421549 
L 86.862341 221.237391 
L 85.77654 221.180657 
L 84.690739 218.457884 
L 83.604938 221.119599 
L 82.519137 224.101085 
L 81.433335 224.592883 
L 80.347534 226.030724 
L 79.261733 222.991095 
L 78.175932 225.396217 
L 77.090131 228.499558 
L 76.00433 227.83189 
L 74.918528 226.817637 
L 73.832727 229.41919 
z
" style="fill:#008000;fill-opacity:0.25;"/>
   </g>
   <g id="matplotlib.axis_3">
    <g id="ytick_6">
     <g id="line2d_14">
      <path clip-path="url(#p80ff8e510a)" d="M 57.6 299.277806 
L 414.72 299.277806 
" style="fill:none;stroke:#b0b0b0;stroke-linecap:square;stroke-width:0.8;"/>
     </g>
     <g id="line2d_15">
      <defs>
       <path d="M 0 0 
L 3.5 0 
" id="md1be21b055" style="stroke:#000000;stroke-width:0.8;"/>
      </defs>
      <g>
       <use style="stroke:#000000;stroke-width:0.8;" x="414.72" xlink:href="#md1be21b055" y="299.277806"/>
      </g>
     </g>
     <g id="text_14">
      <!-- 2 -->
      <defs>
       <path d="M 10.59375 35.5 
L 73.1875 35.5 
L 73.1875 27.203125 
L 10.59375 27.203125 
z
" id="DejaVuSans-8722"/>
      </defs>
      <g transform="translate(421.72 303.077024)scale(0.1 -0.1)">
       <use xlink:href="#DejaVuSans-8722"/>
       <use x="83.789062" xlink:href="#DejaVuSans-50"/>
      </g>
     </g>
    </g>
    <g id="ytick_7">
     <g id="line2d_16">
      <path clip-path="url(#p80ff8e510a)" d="M 57.6 249.596364 
L 414.72 249.596364 
" style="fill:none;stroke:#b0b0b0;stroke-linecap:square;stroke-width:0.8;"/>
     </g>
     <g id="line2d_17">
      <g>
       <use style="stroke:#000000;stroke-width:0.8;" x="414.72" xlink:href="#md1be21b055" y="249.596364"/>
      </g>
     </g>
     <g id="text_15">
      <!-- 0 -->
      <g transform="translate(421.72 253.395583)scale(0.1 -0.1)">
       <use xlink:href="#DejaVuSans-48"/>
      </g>
     </g>
    </g>
    <g id="ytick_8">
     <g id="line2d_18">
      <path clip-path="url(#p80ff8e510a)" d="M 57.6 199.914923 
L 414.72 199.914923 
" style="fill:none;stroke:#b0b0b0;stroke-linecap:square;stroke-width:0.8;"/>
     </g>
     <g id="line2d_19">
      <g>
       <use style="stroke:#000000;stroke-width:0.8;" x="414.72" xlink:href="#md1be21b055" y="199.914923"/>
      </g>
     </g>
     <g id="text_16">
      <!-- 2 -->
      <g transform="translate(421.72 203.714142)scale(0.1 -0.1)">
       <use xlink:href="#DejaVuSans-50"/>
      </g>
     </g>
    </g>
    <g id="ytick_9">
     <g id="line2d_20">
      <path clip-path="url(#p80ff8e510a)" d="M 57.6 150.233481 
L 414.72 150.233481 
" style="fill:none;stroke:#b0b0b0;stroke-linecap:square;stroke-width:0.8;"/>
     </g>
     <g id="line2d_21">
      <g>
       <use style="stroke:#000000;stroke-width:0.8;" x="414.72" xlink:href="#md1be21b055" y="150.233481"/>
      </g>
     </g>
     <g id="text_17">
      <!-- 4 -->
      <g transform="translate(421.72 154.0327)scale(0.1 -0.1)">
       <use xlink:href="#DejaVuSans-52"/>
      </g>
     </g>
    </g>
    <g id="ytick_10">
     <g id="line2d_22">
      <path clip-path="url(#p80ff8e510a)" d="M 57.6 100.55204 
L 414.72 100.55204 
" style="fill:none;stroke:#b0b0b0;stroke-linecap:square;stroke-width:0.8;"/>
     </g>
     <g id="line2d_23">
      <g>
       <use style="stroke:#000000;stroke-width:0.8;" x="414.72" xlink:href="#md1be21b055" y="100.55204"/>
      </g>
     </g>
     <g id="text_18">
      <!-- 6 -->
      <g transform="translate(421.72 104.351259)scale(0.1 -0.1)">
       <use xlink:href="#DejaVuSans-54"/>
      </g>
     </g>
    </g>
    <g id="ytick_11">
     <g id="line2d_24">
      <path clip-path="url(#p80ff8e510a)" d="M 57.6 50.870599 
L 414.72 50.870599 
" style="fill:none;stroke:#b0b0b0;stroke-linecap:square;stroke-width:0.8;"/>
     </g>
     <g id="line2d_25">
      <g>
       <use style="stroke:#000000;stroke-width:0.8;" x="414.72" xlink:href="#md1be21b055" y="50.870599"/>
      </g>
     </g>
     <g id="text_19">
      <!-- 8 -->
      <g transform="translate(421.72 54.669817)scale(0.1 -0.1)">
       <use xlink:href="#DejaVuSans-56"/>
      </g>
     </g>
    </g>
    <g id="text_20">
     <!-- Loudness -->
     <defs>
      <path d="M 9.8125 72.90625 
L 19.671875 72.90625 
L 19.671875 8.296875 
L 55.171875 8.296875 
L 55.171875 0 
L 9.8125 0 
z
" id="DejaVuSans-76"/>
      <path d="M 30.609375 48.390625 
Q 23.390625 48.390625 19.1875 42.75 
Q 14.984375 37.109375 14.984375 27.296875 
Q 14.984375 17.484375 19.15625 11.84375 
Q 23.34375 6.203125 30.609375 6.203125 
Q 37.796875 6.203125 41.984375 11.859375 
Q 46.1875 17.53125 46.1875 27.296875 
Q 46.1875 37.015625 41.984375 42.703125 
Q 37.796875 48.390625 30.609375 48.390625 
z
M 30.609375 56 
Q 42.328125 56 49.015625 48.375 
Q 55.71875 40.765625 55.71875 27.296875 
Q 55.71875 13.875 49.015625 6.21875 
Q 42.328125 -1.421875 30.609375 -1.421875 
Q 18.84375 -1.421875 12.171875 6.21875 
Q 5.515625 13.875 5.515625 27.296875 
Q 5.515625 40.765625 12.171875 48.375 
Q 18.84375 56 30.609375 56 
z
" id="DejaVuSans-111"/>
      <path d="M 8.5 21.578125 
L 8.5 54.6875 
L 17.484375 54.6875 
L 17.484375 21.921875 
Q 17.484375 14.15625 20.5 10.265625 
Q 23.53125 6.390625 29.59375 6.390625 
Q 36.859375 6.390625 41.078125 11.03125 
Q 45.3125 15.671875 45.3125 23.6875 
L 45.3125 54.6875 
L 54.296875 54.6875 
L 54.296875 0 
L 45.3125 0 
L 45.3125 8.40625 
Q 42.046875 3.421875 37.71875 1 
Q 33.40625 -1.421875 27.6875 -1.421875 
Q 18.265625 -1.421875 13.375 4.4375 
Q 8.5 10.296875 8.5 21.578125 
z
M 31.109375 56 
z
" id="DejaVuSans-117"/>
      <path d="M 45.40625 46.390625 
L 45.40625 75.984375 
L 54.390625 75.984375 
L 54.390625 0 
L 45.40625 0 
L 45.40625 8.203125 
Q 42.578125 3.328125 38.25 0.953125 
Q 33.9375 -1.421875 27.875 -1.421875 
Q 17.96875 -1.421875 11.734375 6.484375 
Q 5.515625 14.40625 5.515625 27.296875 
Q 5.515625 40.1875 11.734375 48.09375 
Q 17.96875 56 27.875 56 
Q 33.9375 56 38.25 53.625 
Q 42.578125 51.265625 45.40625 46.390625 
z
M 14.796875 27.296875 
Q 14.796875 17.390625 18.875 11.75 
Q 22.953125 6.109375 30.078125 6.109375 
Q 37.203125 6.109375 41.296875 11.75 
Q 45.40625 17.390625 45.40625 27.296875 
Q 45.40625 37.203125 41.296875 42.84375 
Q 37.203125 48.484375 30.078125 48.484375 
Q 22.953125 48.484375 18.875 42.84375 
Q 14.796875 37.203125 14.796875 27.296875 
z
" id="DejaVuSans-100"/>
     </defs>
     <g transform="translate(448.060625 198.170187)rotate(-90)scale(0.1 -0.1)">
      <use xlink:href="#DejaVuSans-76"/>
      <use x="55.697266" xlink:href="#DejaVuSans-111"/>
      <use x="116.878906" xlink:href="#DejaVuSans-117"/>
      <use x="180.257812" xlink:href="#DejaVuSans-100"/>
      <use x="243.734375" xlink:href="#DejaVuSans-110"/>
      <use x="307.113281" xlink:href="#DejaVuSans-101"/>
      <use x="368.636719" xlink:href="#DejaVuSans-115"/>
      <use x="420.736328" xlink:href="#DejaVuSans-115"/>
     </g>
    </g>
   </g>
   <g id="line2d_26">
    <path clip-path="url(#p80ff8e510a)" d="M 73.832727 240.267859 
L 74.918528 238.223248 
L 76.00433 239.427957 
L 77.090131 239.639172 
L 78.175932 236.951576 
L 79.261733 236.708719 
L 80.347534 237.463571 
L 81.433335 236.735867 
L 82.519137 237.847123 
L 83.604938 236.344098 
L 84.690739 235.560997 
L 85.77654 236.998575 
L 86.862341 237.327771 
L 87.948142 236.696626 
L 89.033943 235.465378 
L 90.119745 236.674033 
L 91.205546 236.461704 
L 92.291347 236.819017 
L 93.377148 236.24599 
L 95.54875 233.337038 
L 96.634552 233.201911 
L 97.720353 232.172694 
L 98.806154 232.883642 
L 102.063557 234.319864 
L 103.149358 234.296498 
L 104.23516 233.973301 
L 105.320961 233.9412 
L 106.406762 232.674408 
L 107.492563 234.833428 
L 108.578364 233.327183 
L 109.664165 233.800227 
L 110.749967 233.360918 
L 111.835768 228.743747 
L 112.921569 226.531018 
L 114.00737 227.506237 
L 116.178972 225.193117 
L 117.264773 223.727727 
L 118.350575 223.735098 
L 119.436376 223.121669 
L 120.522177 221.97314 
L 121.607978 223.226271 
L 122.693779 223.584749 
L 123.77958 225.865064 
L 124.865382 227.742671 
L 125.951183 225.994781 
L 127.036984 223.687344 
L 128.122785 219.955975 
L 129.208586 221.455522 
L 130.294387 222.250915 
L 131.380189 219.790781 
L 132.46599 222.836986 
L 133.551791 222.5856 
L 134.637592 222.0069 
L 135.723393 220.649888 
L 136.809194 220.66594 
L 137.894995 218.66867 
L 138.980797 217.792493 
L 141.152399 214.654218 
L 142.2382 215.10504 
L 143.324001 216.894025 
L 144.409802 213.472958 
L 145.495604 217.680419 
L 146.581405 217.57594 
L 147.667206 216.91646 
L 148.753007 216.610389 
L 149.838808 218.333661 
L 150.924609 217.573644 
L 152.01041 215.431634 
L 153.096212 216.583282 
L 154.182013 213.77853 
L 155.267814 213.799688 
L 156.353615 212.814896 
L 157.439416 210.951901 
L 158.525217 213.09493 
L 159.611019 211.61396 
L 160.69682 213.76652 
L 162.868422 208.200264 
L 163.954223 207.870532 
L 165.040024 209.325669 
L 166.125825 209.953306 
L 167.211627 209.999767 
L 168.297428 208.355241 
L 169.383229 207.045684 
L 170.46903 208.072746 
L 171.554831 210.777224 
L 172.640632 210.315943 
L 173.726434 207.808787 
L 174.812235 205.886955 
L 175.898036 205.248681 
L 176.983837 202.162712 
L 178.069638 205.593148 
L 179.155439 205.712957 
L 180.24124 205.446855 
L 181.327042 202.863944 
L 182.412843 203.701668 
L 183.498644 203.323539 
L 184.584445 204.438386 
L 185.670246 207.403858 
L 186.756047 202.246172 
L 187.841849 200.557466 
L 188.92765 205.101782 
L 190.013451 204.162186 
L 191.099252 202.78443 
L 192.185053 204.314829 
L 193.270854 203.960156 
L 194.356656 202.297249 
L 196.528258 206.207592 
L 197.614059 205.384324 
L 198.69986 209.679901 
L 199.785661 205.556359 
L 200.871462 204.647631 
L 201.957264 204.396121 
L 203.043065 203.5389 
L 204.128866 203.091667 
L 205.214667 200.977235 
L 206.300468 202.14524 
L 207.386269 204.662769 
L 208.472071 203.860229 
L 209.557872 202.108909 
L 210.643673 200.606614 
L 211.729474 200.566324 
L 212.815275 199.78347 
L 213.901076 203.761204 
L 214.986877 200.85364 
L 216.072679 202.712069 
L 218.244281 203.653374 
L 219.330082 197.235268 
L 220.415883 197.481537 
L 221.501684 194.946561 
L 222.587486 199.466527 
L 223.673287 203.217869 
L 224.759088 204.659732 
L 225.844889 200.396178 
L 226.93069 197.769885 
L 228.016491 196.429063 
L 229.102292 197.144793 
L 230.188094 196.703594 
L 231.273895 193.828988 
L 232.359696 192.770384 
L 233.445497 190.760983 
L 234.531298 192.389771 
L 235.617099 189.506128 
L 236.702901 189.413263 
L 237.788702 183.880442 
L 238.874503 193.098142 
L 239.960304 189.792114 
L 241.046105 187.720674 
L 242.131906 187.028578 
L 243.217708 184.541429 
L 244.303509 192.116217 
L 245.38931 188.261772 
L 246.475111 195.181047 
L 247.560912 191.723138 
L 248.646713 196.021861 
L 250.818316 194.649772 
L 251.904117 189.437517 
L 252.989918 190.913521 
L 254.075719 188.993517 
L 255.16152 188.277308 
L 256.247321 189.951162 
L 257.333123 189.889645 
L 258.418924 190.847225 
L 259.504725 188.180533 
L 260.590526 181.624292 
L 261.676327 181.036095 
L 262.762128 187.299069 
L 263.847929 188.347031 
L 264.933731 192.825411 
L 266.019532 185.798326 
L 267.105333 186.252288 
L 268.191134 182.665802 
L 269.276935 188.226926 
L 270.362736 181.801095 
L 271.448538 185.400426 
L 272.534339 185.545521 
L 273.62014 185.156994 
L 274.705941 190.519926 
L 275.791742 187.586259 
L 276.877543 183.936329 
L 277.963344 190.420744 
L 279.049146 190.4553 
L 280.134947 188.645578 
L 281.220748 189.205538 
L 282.306549 183.855629 
L 283.39235 182.677608 
L 284.478151 185.336798 
L 285.563953 183.952445 
L 286.649754 182.961782 
L 287.735555 181.442619 
L 289.907157 186.328711 
L 290.992958 193.380616 
L 292.07876 190.275615 
L 293.164561 193.061838 
L 294.250362 193.0774 
L 295.336163 192.769661 
L 296.421964 192.072187 
L 297.507765 192.546777 
L 298.593566 185.849075 
L 299.679368 190.762524 
L 300.765169 189.799869 
L 301.85097 186.848234 
L 304.022572 179.785312 
L 305.108373 179.634775 
L 306.194175 176.960038 
L 307.279976 179.349903 
L 308.365777 179.7043 
L 309.451578 177.825257 
L 310.537379 178.674691 
L 311.62318 179.759626 
L 312.708981 181.965522 
L 313.794783 173.803218 
L 314.880584 178.274359 
L 315.966385 180.391847 
L 317.052186 179.587228 
L 318.137987 185.658413 
L 319.223788 186.322939 
L 320.30959 178.594709 
L 321.395391 184.489328 
L 322.481192 178.595933 
L 323.566993 175.91428 
L 324.652794 182.669095 
L 325.738595 187.26213 
L 326.824396 181.378756 
L 327.910198 173.269216 
L 328.995999 181.197764 
L 330.0818 177.901952 
L 331.167601 173.297669 
L 332.253402 177.14321 
L 334.425005 180.7331 
L 335.510806 175.961086 
L 336.596607 178.484869 
L 337.682408 182.526508 
L 338.768209 184.175785 
L 339.85401 189.243439 
L 340.939811 183.81041 
L 342.025613 181.121204 
L 343.111414 182.326141 
L 344.197215 181.51087 
L 345.283016 184.739424 
L 346.368817 178.811325 
L 347.454618 179.233261 
L 348.54042 175.008996 
L 349.626221 173.988939 
L 350.712022 181.791529 
L 351.797823 178.269144 
L 352.883624 174.183091 
L 353.969425 172.527404 
L 355.055227 175.543002 
L 356.141028 173.944393 
L 357.226829 180.610591 
L 358.31263 173.427897 
L 359.398431 176.823202 
L 361.570033 172.350146 
L 362.655835 172.156349 
L 363.741636 176.553359 
L 364.827437 174.692241 
L 365.913238 178.105489 
L 366.999039 180.431824 
L 368.08484 174.33596 
L 369.170642 178.037027 
L 370.256443 178.893793 
L 371.342244 178.789057 
L 372.428045 178.421274 
L 373.513846 181.843682 
L 374.599647 175.845467 
L 375.685448 177.373852 
L 376.77125 173.92216 
L 377.857051 172.714544 
L 378.942852 171.003648 
L 380.028653 172.325071 
L 381.114454 164.360226 
L 382.200255 173.674374 
L 383.286057 169.89341 
L 384.371858 169.732072 
L 385.457659 172.989254 
L 386.54346 172.402066 
L 388.715062 176.35682 
L 389.800863 176.176039 
L 390.886665 167.04466 
L 391.972466 169.358831 
L 393.058267 172.18923 
L 394.144068 175.335208 
L 395.229869 170.771862 
L 396.31567 173.464698 
L 397.401472 175.199485 
L 398.487273 173.499461 
L 398.487273 173.499461 
" style="fill:none;stroke:#008000;stroke-linecap:square;stroke-width:1.5;"/>
   </g>
   <g id="patch_7">
    <path d="M 57.6 307.584 
L 57.6 41.472 
" style="fill:none;stroke:#000000;stroke-linecap:square;stroke-linejoin:miter;stroke-width:0.8;"/>
   </g>
   <g id="patch_8">
    <path d="M 414.72 307.584 
L 414.72 41.472 
" style="fill:none;stroke:#000000;stroke-linecap:square;stroke-linejoin:miter;stroke-width:0.8;"/>
   </g>
   <g id="patch_9">
    <path d="M 57.6 307.584 
L 414.72 307.584 
" style="fill:none;stroke:#000000;stroke-linecap:square;stroke-linejoin:miter;stroke-width:0.8;"/>
   </g>
   <g id="patch_10">
    <path d="M 57.6 41.472 
L 414.72 41.472 
" style="fill:none;stroke:#000000;stroke-linecap:square;stroke-linejoin:miter;stroke-width:0.8;"/>
   </g>
   <g id="text_21">
    <!-- Message Difference and Loudness -->
    <defs>
     <path d="M 9.8125 72.90625 
L 24.515625 72.90625 
L 43.109375 23.296875 
L 61.8125 72.90625 
L 76.515625 72.90625 
L 76.515625 0 
L 66.890625 0 
L 66.890625 64.015625 
L 48.09375 14.015625 
L 38.1875 14.015625 
L 19.390625 64.015625 
L 19.390625 0 
L 9.8125 0 
z
" id="DejaVuSans-77"/>
     <path d="M 45.40625 27.984375 
Q 45.40625 37.75 41.375 43.109375 
Q 37.359375 48.484375 30.078125 48.484375 
Q 22.859375 48.484375 18.828125 43.109375 
Q 14.796875 37.75 14.796875 27.984375 
Q 14.796875 18.265625 18.828125 12.890625 
Q 22.859375 7.515625 30.078125 7.515625 
Q 37.359375 7.515625 41.375 12.890625 
Q 45.40625 18.265625 45.40625 27.984375 
z
M 54.390625 6.78125 
Q 54.390625 -7.171875 48.1875 -13.984375 
Q 42 -20.796875 29.203125 -20.796875 
Q 24.46875 -20.796875 20.265625 -20.09375 
Q 16.0625 -19.390625 12.109375 -17.921875 
L 12.109375 -9.1875 
Q 16.0625 -11.328125 19.921875 -12.34375 
Q 23.78125 -13.375 27.78125 -13.375 
Q 36.625 -13.375 41.015625 -8.765625 
Q 45.40625 -4.15625 45.40625 5.171875 
L 45.40625 9.625 
Q 42.625 4.78125 38.28125 2.390625 
Q 33.9375 0 27.875 0 
Q 17.828125 0 11.671875 7.65625 
Q 5.515625 15.328125 5.515625 27.984375 
Q 5.515625 40.671875 11.671875 48.328125 
Q 17.828125 56 27.875 56 
Q 33.9375 56 38.28125 53.609375 
Q 42.625 51.21875 45.40625 46.390625 
L 45.40625 54.6875 
L 54.390625 54.6875 
z
" id="DejaVuSans-103"/>
     <path id="DejaVuSans-32"/>
     <path d="M 37.109375 75.984375 
L 37.109375 68.5 
L 28.515625 68.5 
Q 23.6875 68.5 21.796875 66.546875 
Q 19.921875 64.59375 19.921875 59.515625 
L 19.921875 54.6875 
L 34.71875 54.6875 
L 34.71875 47.703125 
L 19.921875 47.703125 
L 19.921875 0 
L 10.890625 0 
L 10.890625 47.703125 
L 2.296875 47.703125 
L 2.296875 54.6875 
L 10.890625 54.6875 
L 10.890625 58.5 
Q 10.890625 67.625 15.140625 71.796875 
Q 19.390625 75.984375 28.609375 75.984375 
z
" id="DejaVuSans-102"/>
     <path d="M 41.109375 46.296875 
Q 39.59375 47.171875 37.8125 47.578125 
Q 36.03125 48 33.890625 48 
Q 26.265625 48 22.1875 43.046875 
Q 18.109375 38.09375 18.109375 28.8125 
L 18.109375 0 
L 9.078125 0 
L 9.078125 54.6875 
L 18.109375 54.6875 
L 18.109375 46.1875 
Q 20.953125 51.171875 25.484375 53.578125 
Q 30.03125 56 36.53125 56 
Q 37.453125 56 38.578125 55.875 
Q 39.703125 55.765625 41.0625 55.515625 
z
" id="DejaVuSans-114"/>
    </defs>
    <g transform="translate(133.329375 35.472)scale(0.12 -0.12)">
     <use xlink:href="#DejaVuSans-77"/>
     <use x="86.279297" xlink:href="#DejaVuSans-101"/>
     <use x="147.802734" xlink:href="#DejaVuSans-115"/>
     <use x="199.902344" xlink:href="#DejaVuSans-115"/>
     <use x="252.001953" xlink:href="#DejaVuSans-97"/>
     <use x="313.28125" xlink:href="#DejaVuSans-103"/>
     <use x="376.757812" xlink:href="#DejaVuSans-101"/>
     <use x="438.28125" xlink:href="#DejaVuSans-32"/>
     <use x="470.068359" xlink:href="#DejaVuSans-68"/>
     <use x="547.070312" xlink:href="#DejaVuSans-105"/>
     <use x="574.853516" xlink:href="#DejaVuSans-102"/>
     <use x="610.058594" xlink:href="#DejaVuSans-102"/>
     <use x="645.263672" xlink:href="#DejaVuSans-101"/>
     <use x="706.787109" xlink:href="#DejaVuSans-114"/>
     <use x="747.869141" xlink:href="#DejaVuSans-101"/>
     <use x="809.392578" xlink:href="#DejaVuSans-110"/>
     <use x="872.771484" xlink:href="#DejaVuSans-99"/>
     <use x="927.751953" xlink:href="#DejaVuSans-101"/>
     <use x="989.275391" xlink:href="#DejaVuSans-32"/>
     <use x="1021.0625" xlink:href="#DejaVuSans-97"/>
     <use x="1082.341797" xlink:href="#DejaVuSans-110"/>
     <use x="1145.720703" xlink:href="#DejaVuSans-100"/>
     <use x="1209.197266" xlink:href="#DejaVuSans-32"/>
     <use x="1240.984375" xlink:href="#DejaVuSans-76"/>
     <use x="1296.681641" xlink:href="#DejaVuSans-111"/>
     <use x="1357.863281" xlink:href="#DejaVuSans-117"/>
     <use x="1421.242188" xlink:href="#DejaVuSans-100"/>
     <use x="1484.71875" xlink:href="#DejaVuSans-110"/>
     <use x="1548.097656" xlink:href="#DejaVuSans-101"/>
     <use x="1609.621094" xlink:href="#DejaVuSans-115"/>
     <use x="1661.720703" xlink:href="#DejaVuSans-115"/>
    </g>
   </g>
   <g id="legend_1">
    <g id="patch_11">
     <path d="M 331.227813 64.150125 
L 407.72 64.150125 
Q 409.72 64.150125 409.72 62.150125 
L 409.72 48.472 
Q 409.72 46.472 407.72 46.472 
L 331.227813 46.472 
Q 329.227813 46.472 329.227813 48.472 
L 329.227813 62.150125 
Q 329.227813 64.150125 331.227813 64.150125 
z
" style="fill:#ffffff;opacity:0.8;stroke:#cccccc;stroke-linejoin:miter;"/>
    </g>
    <g id="line2d_27">
     <path d="M 333.227813 54.570438 
L 353.227813 54.570438 
" style="fill:none;stroke:#008000;stroke-linecap:square;stroke-width:1.5;"/>
    </g>
    <g id="line2d_28"/>
    <g id="text_22">
     <!-- loudness -->
     <defs>
      <path d="M 9.421875 75.984375 
L 18.40625 75.984375 
L 18.40625 0 
L 9.421875 0 
z
" id="DejaVuSans-108"/>
     </defs>
     <g transform="translate(361.227813 58.070438)scale(0.1 -0.1)">
      <use xlink:href="#DejaVuSans-108"/>
      <use x="27.783203" xlink:href="#DejaVuSans-111"/>
      <use x="88.964844" xlink:href="#DejaVuSans-117"/>
      <use x="152.34375" xlink:href="#DejaVuSans-100"/>
      <use x="215.820312" xlink:href="#DejaVuSans-110"/>
      <use x="279.199219" xlink:href="#DejaVuSans-101"/>
      <use x="340.722656" xlink:href="#DejaVuSans-115"/>
      <use x="392.822266" xlink:href="#DejaVuSans-115"/>
     </g>
    </g>
   </g>
  </g>
 </g>
 <defs>
  <clipPath id="p80ff8e510a">
   <rect height="266.112" width="357.12" x="57.6" y="41.472"/>
  </clipPath>
 </defs>
</svg>
