<?xml version="1.0" encoding="UTF-8" standalone="no"?>
<!DOCTYPE svg PUBLIC "-//W3C//DTD SVG 1.1//EN"
 "http://www.w3.org/Graphics/SVG/1.1/DTD/svg11.dtd">
<!-- Generated by graphviz version 2.40.1 (20161225.0304)
 -->
<!-- Title: %3 Pages: 1 -->
<svg width="565pt" height="350pt"
 viewBox="0.00 0.00 565.04 350.02" xmlns="http://www.w3.org/2000/svg" xmlns:xlink="http://www.w3.org/1999/xlink">
<g id="graph0" class="graph" transform="scale(1 1) rotate(0) translate(4 346.0159)">
<title>%3</title>
<polygon fill="#ffffff" stroke="transparent" points="-4,4 -4,-346.0159 561.0419,-346.0159 561.0419,4 -4,4"/>
<!-- 0 -->
<g id="node1" class="node">
<title>0</title>
<polygon fill="#d3d3d3" stroke="#000000" points="195.0476,-342.0159 175.0357,-342.0159 175.0357,-325.0159 195.0476,-325.0159 195.0476,-342.0159"/>
<text text-anchor="middle" x="185.0416" y="-330.8159" font-family="Times,serif" font-size="9.00" fill="#000000">0</text>
</g>
<!-- 1 -->
<g id="node2" class="node">
<title>1</title>
<polygon fill="#d3d3d3" stroke="#000000" points="340.0476,-342.0159 320.0357,-342.0159 320.0357,-325.0159 340.0476,-325.0159 340.0476,-342.0159"/>
<text text-anchor="middle" x="330.0416" y="-330.8159" font-family="Times,serif" font-size="9.00" fill="#000000">1</text>
</g>
<!-- 0&#45;&gt;1 -->
<!-- E3 -->
<g id="node7" class="node">
<title>E3</title>
<ellipse fill="#87cefa" stroke="#000000" cx="188.0416" cy="-18.383" rx="18.2668" ry="18.2668"/>
<text text-anchor="middle" x="188.0416" y="-15.683" font-family="Times,serif" font-size="9.00" fill="#000000">E3</text>
</g>
<!-- 0&#45;&gt;E3 -->
<g id="edge17" class="edge">
<title>0&#45;&gt;E3</title>
<path fill="none" stroke="#ff0000" stroke-width=".227" d="M185.125,-324.7585C185.5095,-284.373 187.1202,-115.1774 187.769,-47.0177"/>
<polygon fill="#ff0000" stroke="#ff0000" stroke-width=".227" points="191.2691,-47.0141 187.8646,-36.9812 184.2694,-46.9474 191.2691,-47.0141"/>
</g>
<!-- E6 -->
<g id="node10" class="node">
<title>E6</title>
<ellipse fill="#eee8aa" stroke="#000000" cx="353.0416" cy="-18.383" rx="18.2668" ry="18.2668"/>
<text text-anchor="middle" x="353.0416" y="-15.683" font-family="Times,serif" font-size="9.00" fill="#000000">E6</text>
</g>
<!-- 0&#45;&gt;E6 -->
<g id="edge13" class="edge">
<title>0&#45;&gt;E6</title>
<path fill="none" stroke="#ff0000" stroke-width="3.3693" d="M191.5463,-324.7923C206.5335,-304.4679 244.19,-252.1007 270.0416,-204.9326 300.0975,-150.0937 328.1446,-82.2465 342.6785,-45.3615"/>
<polygon fill="#ff0000" stroke="#ff0000" stroke-width="3.3693" points="346.0289,-46.4037 346.4099,-35.8157 339.5093,-43.8552 346.0289,-46.4037"/>
</g>
<!-- 3382 -->
<g id="node18" class="node">
<title>3382</title>
<ellipse fill="#f0e68c" stroke="#000000" cx="133.0416" cy="-180.891" rx="24.0833" ry="24.0833"/>
<text text-anchor="middle" x="133.0416" y="-182.691" font-family="Times,serif" font-size="9.00" fill="#000000">3382</text>
<text text-anchor="middle" x="133.0416" y="-173.691" font-family="Times,serif" font-size="9.00" fill="#000000">soft</text>
</g>
<!-- 0&#45;&gt;3382 -->
<g id="edge15" class="edge">
<title>0&#45;&gt;3382</title>
<path fill="none" stroke="#00ff00" stroke-width=".2356" d="M182.0969,-324.8728C174.9092,-303.7762 156.1705,-248.7765 144.0448,-213.1863"/>
<polygon fill="#00ff00" stroke="#00ff00" stroke-width=".2356" points="147.3532,-212.0439 140.8151,-203.707 140.7272,-214.3014 147.3532,-212.0439"/>
</g>
<!-- 3412 -->
<g id="node20" class="node">
<title>3412</title>
<ellipse fill="#add8e6" stroke="#000000" cx="74.0416" cy="-264.9743" rx="24.0833" ry="24.0833"/>
<text text-anchor="middle" x="74.0416" y="-266.7743" font-family="Times,serif" font-size="9.00" fill="#000000">3412</text>
<text text-anchor="middle" x="74.0416" y="-257.7743" font-family="Times,serif" font-size="9.00" fill="#000000">sigm</text>
</g>
<!-- 0&#45;&gt;3412 -->
<g id="edge18" class="edge">
<title>0&#45;&gt;3412</title>
<path fill="none" stroke="#00ff00" stroke-width=".3397" d="M174.798,-327.1905C158.7125,-317.2579 126.9337,-297.6347 103.3464,-283.0697"/>
<polygon fill="#00ff00" stroke="#00ff00" stroke-width=".3397" points="105.1047,-280.0419 94.7572,-277.7659 101.4268,-285.998 105.1047,-280.0419"/>
</g>
<!-- 2 -->
<g id="node3" class="node">
<title>2</title>
<polygon fill="#d3d3d3" stroke="#000000" points="385.0476,-342.0159 365.0357,-342.0159 365.0357,-325.0159 385.0476,-325.0159 385.0476,-342.0159"/>
<text text-anchor="middle" x="375.0416" y="-330.8159" font-family="Times,serif" font-size="9.00" fill="#000000">2</text>
</g>
<!-- 1&#45;&gt;2 -->
<!-- 1&#45;&gt;E6 -->
<g id="edge25" class="edge">
<title>1&#45;&gt;E6</title>
<path fill="none" stroke="#ff0000" stroke-width=".2807" d="M330.6808,-324.7585C333.6283,-284.373 345.9771,-115.1774 350.9517,-47.0177"/>
<polygon fill="#ff0000" stroke="#ff0000" stroke-width=".2807" points="354.4469,-47.2095 351.6842,-36.9812 347.4655,-46.6999 354.4469,-47.2095"/>
</g>
<!-- E8 -->
<g id="node12" class="node">
<title>E8</title>
<ellipse fill="#eee8aa" stroke="#000000" cx="535.0416" cy="-18.383" rx="18.2668" ry="18.2668"/>
<text text-anchor="middle" x="535.0416" y="-15.683" font-family="Times,serif" font-size="9.00" fill="#000000">E8</text>
</g>
<!-- 1&#45;&gt;E8 -->
<g id="edge11" class="edge">
<title>1&#45;&gt;E8</title>
<path fill="none" stroke="#ff0000" stroke-width="2.0175" d="M340.0991,-329.9819C344.8941,-328.3604 350.7304,-326.4781 356.0416,-325.0159 426.3162,-305.6695 468.542,-344.3022 516.0416,-289.0159 575.6073,-219.6855 555.783,-99.9487 542.7035,-46.068"/>
<polygon fill="#ff0000" stroke="#ff0000" stroke-width="2.0175" points="546.0531,-45.0377 540.2031,-36.2044 539.2678,-46.7579 546.0531,-45.0377"/>
</g>
<!-- E4 -->
<g id="node8" class="node">
<title>E4</title>
<ellipse fill="#eee8aa" stroke="#000000" cx="243.0416" cy="-18.383" rx="18.2668" ry="18.2668"/>
<text text-anchor="middle" x="243.0416" y="-15.683" font-family="Times,serif" font-size="9.00" fill="#000000">E4</text>
</g>
<!-- 2&#45;&gt;E4 -->
<g id="edge12" class="edge">
<title>2&#45;&gt;E4</title>
<path fill="none" stroke="#ff0000" stroke-width="2.4194" d="M385.1293,-325.1979C394.1399,-317.0565 406.714,-303.7565 412.0416,-289.0159 419.3055,-268.9179 418.8601,-261.186 412.0416,-240.9326 382.5611,-153.3641 303.4082,-72.915 264.8078,-37.459"/>
<polygon fill="#ff0000" stroke="#ff0000" stroke-width="2.4194" points="266.9816,-34.7057 257.2189,-30.5896 262.2839,-39.8953 266.9816,-34.7057"/>
</g>
<!-- 5515 -->
<g id="node14" class="node">
<title>5515</title>
<ellipse fill="#add8e6" stroke="#000000" cx="237.0416" cy="-180.891" rx="24.0833" ry="24.0833"/>
<text text-anchor="middle" x="237.0416" y="-182.691" font-family="Times,serif" font-size="9.00" fill="#000000">5515</text>
<text text-anchor="middle" x="237.0416" y="-173.691" font-family="Times,serif" font-size="9.00" fill="#000000">sigm</text>
</g>
<!-- 2&#45;&gt;5515 -->
<g id="edge28" class="edge">
<title>2&#45;&gt;5515</title>
<path fill="none" stroke="#00ff00" stroke-width=".3869" d="M367.2268,-324.8728C346.8715,-302.3603 291.6089,-241.2412 260.0147,-206.2987"/>
<polygon fill="#00ff00" stroke="#00ff00" stroke-width=".3869" points="262.5807,-203.918 253.2778,-198.8478 257.3884,-208.6127 262.5807,-203.918"/>
</g>
<!-- 4955 -->
<g id="node21" class="node">
<title>4955</title>
<ellipse fill="#add8e6" stroke="#000000" cx="379.0416" cy="-264.9743" rx="24.0833" ry="24.0833"/>
<text text-anchor="middle" x="379.0416" y="-266.7743" font-family="Times,serif" font-size="9.00" fill="#000000">4955</text>
<text text-anchor="middle" x="379.0416" y="-257.7743" font-family="Times,serif" font-size="9.00" fill="#000000">sigm</text>
</g>
<!-- 2&#45;&gt;4955 -->
<g id="edge19" class="edge">
<title>2&#45;&gt;4955</title>
<path fill="none" stroke="#00ff00" stroke-width=".237" d="M375.5482,-324.835C375.9311,-318.2744 376.4836,-308.8069 377.0366,-299.3307"/>
<polygon fill="#00ff00" stroke="#00ff00" stroke-width=".237" points="380.5403,-299.3686 377.6289,-289.1817 373.5522,-298.9607 380.5403,-299.3686"/>
</g>
<!-- E0 -->
<g id="node4" class="node">
<title>E0</title>
<ellipse fill="#eee8aa" stroke="#000000" cx="23.0416" cy="-18.383" rx="18.2668" ry="18.2668"/>
<text text-anchor="middle" x="23.0416" y="-15.683" font-family="Times,serif" font-size="9.00" fill="#000000">E0</text>
</g>
<!-- E1 -->
<g id="node5" class="node">
<title>E1</title>
<ellipse fill="#eee8aa" stroke="#000000" cx="78.0416" cy="-18.383" rx="18.2668" ry="18.2668"/>
<text text-anchor="middle" x="78.0416" y="-15.683" font-family="Times,serif" font-size="9.00" fill="#000000">E1</text>
</g>
<!-- E0&#45;&gt;E1 -->
<!-- E2 -->
<g id="node6" class="node">
<title>E2</title>
<ellipse fill="#87cefa" stroke="#000000" cx="133.0416" cy="-18.383" rx="18.2668" ry="18.2668"/>
<text text-anchor="middle" x="133.0416" y="-15.683" font-family="Times,serif" font-size="9.00" fill="#000000">E2</text>
</g>
<!-- E1&#45;&gt;E2 -->
<!-- E2&#45;&gt;E3 -->
<!-- E3&#45;&gt;E4 -->
<!-- E5 -->
<g id="node9" class="node">
<title>E5</title>
<ellipse fill="#ffa07a" stroke="#000000" cx="298.0416" cy="-18.383" rx="18.2668" ry="18.2668"/>
<text text-anchor="middle" x="298.0416" y="-15.683" font-family="Times,serif" font-size="9.00" fill="#000000">E5</text>
</g>
<!-- E4&#45;&gt;E5 -->
<!-- E5&#45;&gt;E6 -->
<!-- E7 -->
<g id="node11" class="node">
<title>E7</title>
<ellipse fill="#eee8aa" stroke="#000000" cx="480.0416" cy="-18.383" rx="18.2668" ry="18.2668"/>
<text text-anchor="middle" x="480.0416" y="-15.683" font-family="Times,serif" font-size="9.00" fill="#000000">E7</text>
</g>
<!-- E6&#45;&gt;E7 -->
<!-- E7&#45;&gt;E8 -->
<!-- 5384 -->
<g id="node13" class="node">
<title>5384</title>
<ellipse fill="#add8e6" stroke="#000000" cx="483.0416" cy="-180.891" rx="24.0833" ry="24.0833"/>
<text text-anchor="middle" x="483.0416" y="-182.691" font-family="Times,serif" font-size="9.00" fill="#000000">5384</text>
<text text-anchor="middle" x="483.0416" y="-173.691" font-family="Times,serif" font-size="9.00" fill="#000000">sigm</text>
</g>
<!-- 3320 -->
<g id="node22" class="node">
<title>3320</title>
<ellipse fill="#f08080" stroke="#000000" cx="483.0416" cy="-96.8077" rx="24.0833" ry="24.0833"/>
<text text-anchor="middle" x="483.0416" y="-98.6077" font-family="Times,serif" font-size="9.00" fill="#000000">3320</text>
<text text-anchor="middle" x="483.0416" y="-89.6077" font-family="Times,serif" font-size="9.00" fill="#000000">relu</text>
</g>
<!-- 5384&#45;&gt;3320 -->
<g id="edge24" class="edge">
<title>5384&#45;&gt;3320</title>
<path fill="none" stroke="#00ff00" stroke-width=".126" d="M483.0416,-156.5706C483.0416,-148.6398 483.0416,-139.6791 483.0416,-131.1553"/>
<polygon fill="#00ff00" stroke="#00ff00" stroke-width=".126" points="486.5417,-131.0734 483.0416,-121.0734 479.5417,-131.0735 486.5417,-131.0734"/>
</g>
<!-- 5515&#45;&gt;E2 -->
<g id="edge29" class="edge">
<title>5515&#45;&gt;E2</title>
<path fill="none" stroke="#ff0000" stroke-width=".3311" d="M224.0802,-160.6378C204.9504,-130.746 169.2094,-74.8979 148.6604,-42.7885"/>
<polygon fill="#ff0000" stroke="#ff0000" stroke-width=".3311" points="151.3881,-40.5577 143.0497,-34.0215 145.4921,-44.3309 151.3881,-40.5577"/>
</g>
<!-- 4109 -->
<g id="node15" class="node">
<title>4109</title>
<ellipse fill="#add8e6" stroke="#000000" cx="133.0416" cy="-96.8077" rx="24.0833" ry="24.0833"/>
<text text-anchor="middle" x="133.0416" y="-98.6077" font-family="Times,serif" font-size="9.00" fill="#000000">4109</text>
<text text-anchor="middle" x="133.0416" y="-89.6077" font-family="Times,serif" font-size="9.00" fill="#000000">sigm</text>
</g>
<!-- 4109&#45;&gt;E2 -->
<g id="edge27" class="edge">
<title>4109&#45;&gt;E2</title>
<path fill="none" stroke="#ff0000" stroke-width=".2595" d="M133.0416,-72.4236C133.0416,-64.33 133.0416,-55.248 133.0416,-46.8729"/>
<polygon fill="#ff0000" stroke="#ff0000" stroke-width=".2595" points="136.5417,-46.7701 133.0416,-36.7702 129.5417,-46.7702 136.5417,-46.7701"/>
</g>
<!-- 4109&#45;&gt;E5 -->
<g id="edge21" class="edge">
<title>4109&#45;&gt;E5</title>
<path fill="none" stroke="#ff0000" stroke-width=".189" d="M155.8987,-88.1588C183.555,-77.3854 231.236,-57.8149 270.0416,-36.7661 271.3834,-36.0383 272.7445,-35.2664 274.1067,-34.4673"/>
<polygon fill="#ff0000" stroke="#ff0000" stroke-width=".189" points="276.2865,-37.2328 282.922,-28.9732 272.5841,-31.2921 276.2865,-37.2328"/>
</g>
<!-- 5537 -->
<g id="node16" class="node">
<title>5537</title>
<ellipse fill="#add8e6" stroke="#000000" cx="67.0416" cy="-180.891" rx="24.0833" ry="24.0833"/>
<text text-anchor="middle" x="67.0416" y="-182.691" font-family="Times,serif" font-size="9.00" fill="#000000">5537</text>
<text text-anchor="middle" x="67.0416" y="-173.691" font-family="Times,serif" font-size="9.00" fill="#000000">sigm</text>
</g>
<!-- 5537&#45;&gt;E1 -->
<g id="edge31" class="edge">
<title>5537&#45;&gt;E1</title>
<path fill="none" stroke="#00ff00" stroke-width=".1218" d="M68.6884,-156.5619C70.6721,-127.2561 73.9997,-78.0965 76.1047,-46.9981"/>
<polygon fill="#00ff00" stroke="#00ff00" stroke-width=".1218" points="79.6107,-47.0271 76.7941,-36.8135 72.6266,-46.5543 79.6107,-47.0271"/>
</g>
<!-- 1204 -->
<g id="node17" class="node">
<title>1204</title>
<ellipse fill="#f08080" stroke="#000000" cx="24.0416" cy="-96.8077" rx="24.0833" ry="24.0833"/>
<text text-anchor="middle" x="24.0416" y="-98.6077" font-family="Times,serif" font-size="9.00" fill="#000000">1204</text>
<text text-anchor="middle" x="24.0416" y="-89.6077" font-family="Times,serif" font-size="9.00" fill="#000000">relu</text>
</g>
<!-- 1204&#45;&gt;E0 -->
<g id="edge14" class="edge">
<title>1204&#45;&gt;E0</title>
<path fill="none" stroke="#ff0000" stroke-width=".1861" d="M23.7307,-72.4236C23.6275,-64.33 23.5117,-55.248 23.4049,-46.8729"/>
<polygon fill="#ff0000" stroke="#ff0000" stroke-width=".1861" points="26.9034,-46.7247 23.2761,-36.7702 19.904,-46.814 26.9034,-46.7247"/>
</g>
<!-- 3382&#45;&gt;4109 -->
<g id="edge32" class="edge">
<title>3382&#45;&gt;4109</title>
<path fill="none" stroke="#ff0000" stroke-width=".188" d="M133.0416,-156.5706C133.0416,-148.6398 133.0416,-139.6791 133.0416,-131.1553"/>
<polygon fill="#ff0000" stroke="#ff0000" stroke-width=".188" points="136.5417,-131.0734 133.0416,-121.0734 129.5417,-131.0735 136.5417,-131.0734"/>
</g>
<!-- 3382&#45;&gt;1204 -->
<g id="edge16" class="edge">
<title>3382&#45;&gt;1204</title>
<path fill="none" stroke="#00ff00" stroke-width=".2294" d="M113.8055,-166.0521C96.372,-152.6038 70.5019,-132.6474 51.0069,-117.6089"/>
<polygon fill="#00ff00" stroke="#00ff00" stroke-width=".2294" points="53.1412,-114.8349 43.0854,-111.4982 48.8656,-120.3775 53.1412,-114.8349"/>
</g>
<!-- 3527 -->
<g id="node19" class="node">
<title>3527</title>
<ellipse fill="#f08080" stroke="#000000" cx="483.0416" cy="-264.9743" rx="24.0833" ry="24.0833"/>
<text text-anchor="middle" x="483.0416" y="-266.7743" font-family="Times,serif" font-size="9.00" fill="#000000">3527</text>
<text text-anchor="middle" x="483.0416" y="-257.7743" font-family="Times,serif" font-size="9.00" fill="#000000">relu</text>
</g>
<!-- 3527&#45;&gt;5384 -->
<g id="edge23" class="edge">
<title>3527&#45;&gt;5384</title>
<path fill="none" stroke="#00ff00" stroke-width=".3622" d="M483.0416,-240.6539C483.0416,-232.7231 483.0416,-223.7624 483.0416,-215.2386"/>
<polygon fill="#00ff00" stroke="#00ff00" stroke-width=".3622" points="486.5417,-215.1567 483.0416,-205.1567 479.5417,-215.1567 486.5417,-215.1567"/>
</g>
<!-- 3412&#45;&gt;5537 -->
<g id="edge30" class="edge">
<title>3412&#45;&gt;5537</title>
<path fill="none" stroke="#00ff00" stroke-width=".5165" d="M72.0169,-240.6539C71.351,-232.6541 70.5977,-223.6065 69.8826,-215.0163"/>
<polygon fill="#00ff00" stroke="#00ff00" stroke-width=".5165" points="73.3553,-214.5414 69.0376,-204.8663 66.3794,-215.1223 73.3553,-214.5414"/>
</g>
<!-- 4955&#45;&gt;E2 -->
<g id="edge20" class="edge">
<title>4955&#45;&gt;E2</title>
<path fill="none" stroke="#ff0000" stroke-width=".153" d="M363.0967,-246.8661C332.1728,-212.0393 261.4215,-133.7732 197.0416,-72.7661 183.7988,-60.2171 168.2121,-46.9433 155.7363,-36.6512"/>
<polygon fill="#ff0000" stroke="#ff0000" stroke-width=".153" points="157.6197,-33.6701 147.6633,-30.0478 153.1877,-39.0884 157.6197,-33.6701"/>
</g>
<!-- 4955&#45;&gt;5384 -->
<g id="edge26" class="edge">
<title>4955&#45;&gt;5384</title>
<path fill="none" stroke="#00ff00" stroke-width=".2482" d="M398.1168,-249.5521C414.3896,-236.3957 437.97,-217.3311 456.1566,-202.6274"/>
<polygon fill="#00ff00" stroke="#00ff00" stroke-width=".2482" points="458.5115,-205.2243 464.0874,-196.2154 454.1105,-199.7808 458.5115,-205.2243"/>
</g>
<!-- 4955&#45;&gt;5537 -->
<g id="edge33" class="edge">
<title>4955&#45;&gt;5537</title>
<path fill="none" stroke="#ff0000" stroke-width=".1045" d="M354.8552,-263.1629C305.1361,-258.7226 188.6811,-244.6012 100.0416,-204.9326 98.1977,-204.1074 96.3553,-203.168 94.537,-202.1499"/>
<polygon fill="#ff0000" stroke="#ff0000" stroke-width=".1045" points="96.0682,-198.9763 85.7502,-196.5702 92.3158,-204.8855 96.0682,-198.9763"/>
</g>
<!-- 3320&#45;&gt;E7 -->
<g id="edge22" class="edge">
<title>3320&#45;&gt;E7</title>
<path fill="none" stroke="#00ff00" stroke-width=".4448" d="M482.1089,-72.4236C481.7993,-64.33 481.4518,-55.248 481.1315,-46.8729"/>
<polygon fill="#00ff00" stroke="#00ff00" stroke-width=".4448" points="484.6248,-46.629 480.745,-36.7702 477.6299,-46.8967 484.6248,-46.629"/>
</g>
</g>
</svg>
