<?xml version="1.0" encoding="utf-8" standalone="no"?>
<!DOCTYPE svg PUBLIC "-//W3C//DTD SVG 1.1//EN"
  "http://www.w3.org/Graphics/SVG/1.1/DTD/svg11.dtd">
<!-- Created with matplotlib (https://matplotlib.org/) -->
<svg height="345.6pt" version="1.1" viewBox="0 0 460.8 345.6" width="460.8pt" xmlns="http://www.w3.org/2000/svg" xmlns:xlink="http://www.w3.org/1999/xlink">
 <defs>
  <style type="text/css">
*{stroke-linecap:butt;stroke-linejoin:round;}
  </style>
 </defs>
 <g id="figure_1">
  <g id="patch_1">
   <path d="M 0 345.6 
L 460.8 345.6 
L 460.8 0 
L 0 0 
z
" style="fill:#ffffff;"/>
  </g>
  <g id="axes_1">
   <g id="patch_2">
    <path d="M 57.6 307.584 
L 414.72 307.584 
L 414.72 41.472 
L 57.6 41.472 
z
" style="fill:#ffffff;"/>
   </g>
   <g id="matplotlib.axis_1">
    <g id="xtick_1">
     <g id="line2d_1">
      <path clip-path="url(#p1c24fbe43f)" d="M 73.832727 307.584 
L 73.832727 41.472 
" style="fill:none;stroke:#b0b0b0;stroke-linecap:square;stroke-width:0.8;"/>
     </g>
     <g id="line2d_2">
      <defs>
       <path d="M 0 0 
L 0 3.5 
" id="m814d786b02" style="stroke:#000000;stroke-width:0.8;"/>
      </defs>
      <g>
       <use style="stroke:#000000;stroke-width:0.8;" x="73.832727" xlink:href="#m814d786b02" y="307.584"/>
      </g>
     </g>
     <g id="text_1">
      <!-- 0 -->
      <defs>
       <path d="M 31.78125 66.40625 
Q 24.171875 66.40625 20.328125 58.90625 
Q 16.5 51.421875 16.5 36.375 
Q 16.5 21.390625 20.328125 13.890625 
Q 24.171875 6.390625 31.78125 6.390625 
Q 39.453125 6.390625 43.28125 13.890625 
Q 47.125 21.390625 47.125 36.375 
Q 47.125 51.421875 43.28125 58.90625 
Q 39.453125 66.40625 31.78125 66.40625 
z
M 31.78125 74.21875 
Q 44.046875 74.21875 50.515625 64.515625 
Q 56.984375 54.828125 56.984375 36.375 
Q 56.984375 17.96875 50.515625 8.265625 
Q 44.046875 -1.421875 31.78125 -1.421875 
Q 19.53125 -1.421875 13.0625 8.265625 
Q 6.59375 17.96875 6.59375 36.375 
Q 6.59375 54.828125 13.0625 64.515625 
Q 19.53125 74.21875 31.78125 74.21875 
z
" id="DejaVuSans-48"/>
      </defs>
      <g transform="translate(70.651477 322.182437)scale(0.1 -0.1)">
       <use xlink:href="#DejaVuSans-48"/>
      </g>
     </g>
    </g>
    <g id="xtick_2">
     <g id="line2d_3">
      <path clip-path="url(#p1c24fbe43f)" d="M 128.122785 307.584 
L 128.122785 41.472 
" style="fill:none;stroke:#b0b0b0;stroke-linecap:square;stroke-width:0.8;"/>
     </g>
     <g id="line2d_4">
      <g>
       <use style="stroke:#000000;stroke-width:0.8;" x="128.122785" xlink:href="#m814d786b02" y="307.584"/>
      </g>
     </g>
     <g id="text_2">
      <!-- 50 -->
      <defs>
       <path d="M 10.796875 72.90625 
L 49.515625 72.90625 
L 49.515625 64.59375 
L 19.828125 64.59375 
L 19.828125 46.734375 
Q 21.96875 47.46875 24.109375 47.828125 
Q 26.265625 48.1875 28.421875 48.1875 
Q 40.625 48.1875 47.75 41.5 
Q 54.890625 34.8125 54.890625 23.390625 
Q 54.890625 11.625 47.5625 5.09375 
Q 40.234375 -1.421875 26.90625 -1.421875 
Q 22.3125 -1.421875 17.546875 -0.640625 
Q 12.796875 0.140625 7.71875 1.703125 
L 7.71875 11.625 
Q 12.109375 9.234375 16.796875 8.0625 
Q 21.484375 6.890625 26.703125 6.890625 
Q 35.15625 6.890625 40.078125 11.328125 
Q 45.015625 15.765625 45.015625 23.390625 
Q 45.015625 31 40.078125 35.4375 
Q 35.15625 39.890625 26.703125 39.890625 
Q 22.75 39.890625 18.8125 39.015625 
Q 14.890625 38.140625 10.796875 36.28125 
z
" id="DejaVuSans-53"/>
      </defs>
      <g transform="translate(121.760285 322.182437)scale(0.1 -0.1)">
       <use xlink:href="#DejaVuSans-53"/>
       <use x="63.623047" xlink:href="#DejaVuSans-48"/>
      </g>
     </g>
    </g>
    <g id="xtick_3">
     <g id="line2d_5">
      <path clip-path="url(#p1c24fbe43f)" d="M 182.412843 307.584 
L 182.412843 41.472 
" style="fill:none;stroke:#b0b0b0;stroke-linecap:square;stroke-width:0.8;"/>
     </g>
     <g id="line2d_6">
      <g>
       <use style="stroke:#000000;stroke-width:0.8;" x="182.412843" xlink:href="#m814d786b02" y="307.584"/>
      </g>
     </g>
     <g id="text_3">
      <!-- 100 -->
      <defs>
       <path d="M 12.40625 8.296875 
L 28.515625 8.296875 
L 28.515625 63.921875 
L 10.984375 60.40625 
L 10.984375 69.390625 
L 28.421875 72.90625 
L 38.28125 72.90625 
L 38.28125 8.296875 
L 54.390625 8.296875 
L 54.390625 0 
L 12.40625 0 
z
" id="DejaVuSans-49"/>
      </defs>
      <g transform="translate(172.869093 322.182437)scale(0.1 -0.1)">
       <use xlink:href="#DejaVuSans-49"/>
       <use x="63.623047" xlink:href="#DejaVuSans-48"/>
       <use x="127.246094" xlink:href="#DejaVuSans-48"/>
      </g>
     </g>
    </g>
    <g id="xtick_4">
     <g id="line2d_7">
      <path clip-path="url(#p1c24fbe43f)" d="M 236.702901 307.584 
L 236.702901 41.472 
" style="fill:none;stroke:#b0b0b0;stroke-linecap:square;stroke-width:0.8;"/>
     </g>
     <g id="line2d_8">
      <g>
       <use style="stroke:#000000;stroke-width:0.8;" x="236.702901" xlink:href="#m814d786b02" y="307.584"/>
      </g>
     </g>
     <g id="text_4">
      <!-- 150 -->
      <g transform="translate(227.159151 322.182437)scale(0.1 -0.1)">
       <use xlink:href="#DejaVuSans-49"/>
       <use x="63.623047" xlink:href="#DejaVuSans-53"/>
       <use x="127.246094" xlink:href="#DejaVuSans-48"/>
      </g>
     </g>
    </g>
    <g id="xtick_5">
     <g id="line2d_9">
      <path clip-path="url(#p1c24fbe43f)" d="M 290.992958 307.584 
L 290.992958 41.472 
" style="fill:none;stroke:#b0b0b0;stroke-linecap:square;stroke-width:0.8;"/>
     </g>
     <g id="line2d_10">
      <g>
       <use style="stroke:#000000;stroke-width:0.8;" x="290.992958" xlink:href="#m814d786b02" y="307.584"/>
      </g>
     </g>
     <g id="text_5">
      <!-- 200 -->
      <defs>
       <path d="M 19.1875 8.296875 
L 53.609375 8.296875 
L 53.609375 0 
L 7.328125 0 
L 7.328125 8.296875 
Q 12.9375 14.109375 22.625 23.890625 
Q 32.328125 33.6875 34.8125 36.53125 
Q 39.546875 41.84375 41.421875 45.53125 
Q 43.3125 49.21875 43.3125 52.78125 
Q 43.3125 58.59375 39.234375 62.25 
Q 35.15625 65.921875 28.609375 65.921875 
Q 23.96875 65.921875 18.8125 64.3125 
Q 13.671875 62.703125 7.8125 59.421875 
L 7.8125 69.390625 
Q 13.765625 71.78125 18.9375 73 
Q 24.125 74.21875 28.421875 74.21875 
Q 39.75 74.21875 46.484375 68.546875 
Q 53.21875 62.890625 53.21875 53.421875 
Q 53.21875 48.921875 51.53125 44.890625 
Q 49.859375 40.875 45.40625 35.40625 
Q 44.1875 33.984375 37.640625 27.21875 
Q 31.109375 20.453125 19.1875 8.296875 
z
" id="DejaVuSans-50"/>
      </defs>
      <g transform="translate(281.449208 322.182437)scale(0.1 -0.1)">
       <use xlink:href="#DejaVuSans-50"/>
       <use x="63.623047" xlink:href="#DejaVuSans-48"/>
       <use x="127.246094" xlink:href="#DejaVuSans-48"/>
      </g>
     </g>
    </g>
    <g id="xtick_6">
     <g id="line2d_11">
      <path clip-path="url(#p1c24fbe43f)" d="M 345.283016 307.584 
L 345.283016 41.472 
" style="fill:none;stroke:#b0b0b0;stroke-linecap:square;stroke-width:0.8;"/>
     </g>
     <g id="line2d_12">
      <g>
       <use style="stroke:#000000;stroke-width:0.8;" x="345.283016" xlink:href="#m814d786b02" y="307.584"/>
      </g>
     </g>
     <g id="text_6">
      <!-- 250 -->
      <g transform="translate(335.739266 322.182437)scale(0.1 -0.1)">
       <use xlink:href="#DejaVuSans-50"/>
       <use x="63.623047" xlink:href="#DejaVuSans-53"/>
       <use x="127.246094" xlink:href="#DejaVuSans-48"/>
      </g>
     </g>
    </g>
    <g id="xtick_7">
     <g id="line2d_13">
      <path clip-path="url(#p1c24fbe43f)" d="M 399.573074 307.584 
L 399.573074 41.472 
" style="fill:none;stroke:#b0b0b0;stroke-linecap:square;stroke-width:0.8;"/>
     </g>
     <g id="line2d_14">
      <g>
       <use style="stroke:#000000;stroke-width:0.8;" x="399.573074" xlink:href="#m814d786b02" y="307.584"/>
      </g>
     </g>
     <g id="text_7">
      <!-- 300 -->
      <defs>
       <path d="M 40.578125 39.3125 
Q 47.65625 37.796875 51.625 33 
Q 55.609375 28.21875 55.609375 21.1875 
Q 55.609375 10.40625 48.1875 4.484375 
Q 40.765625 -1.421875 27.09375 -1.421875 
Q 22.515625 -1.421875 17.65625 -0.515625 
Q 12.796875 0.390625 7.625 2.203125 
L 7.625 11.71875 
Q 11.71875 9.328125 16.59375 8.109375 
Q 21.484375 6.890625 26.8125 6.890625 
Q 36.078125 6.890625 40.9375 10.546875 
Q 45.796875 14.203125 45.796875 21.1875 
Q 45.796875 27.640625 41.28125 31.265625 
Q 36.765625 34.90625 28.71875 34.90625 
L 20.21875 34.90625 
L 20.21875 43.015625 
L 29.109375 43.015625 
Q 36.375 43.015625 40.234375 45.921875 
Q 44.09375 48.828125 44.09375 54.296875 
Q 44.09375 59.90625 40.109375 62.90625 
Q 36.140625 65.921875 28.71875 65.921875 
Q 24.65625 65.921875 20.015625 65.03125 
Q 15.375 64.15625 9.8125 62.3125 
L 9.8125 71.09375 
Q 15.4375 72.65625 20.34375 73.4375 
Q 25.25 74.21875 29.59375 74.21875 
Q 40.828125 74.21875 47.359375 69.109375 
Q 53.90625 64.015625 53.90625 55.328125 
Q 53.90625 49.265625 50.4375 45.09375 
Q 46.96875 40.921875 40.578125 39.3125 
z
" id="DejaVuSans-51"/>
      </defs>
      <g transform="translate(390.029324 322.182437)scale(0.1 -0.1)">
       <use xlink:href="#DejaVuSans-51"/>
       <use x="63.623047" xlink:href="#DejaVuSans-48"/>
       <use x="127.246094" xlink:href="#DejaVuSans-48"/>
      </g>
     </g>
    </g>
    <g id="text_8">
     <!-- Generations -->
     <defs>
      <path d="M 59.515625 10.40625 
L 59.515625 29.984375 
L 43.40625 29.984375 
L 43.40625 38.09375 
L 69.28125 38.09375 
L 69.28125 6.78125 
Q 63.578125 2.734375 56.6875 0.65625 
Q 49.8125 -1.421875 42 -1.421875 
Q 24.90625 -1.421875 15.25 8.5625 
Q 5.609375 18.5625 5.609375 36.375 
Q 5.609375 54.25 15.25 64.234375 
Q 24.90625 74.21875 42 74.21875 
Q 49.125 74.21875 55.546875 72.453125 
Q 61.96875 70.703125 67.390625 67.28125 
L 67.390625 56.78125 
Q 61.921875 61.421875 55.765625 63.765625 
Q 49.609375 66.109375 42.828125 66.109375 
Q 29.4375 66.109375 22.71875 58.640625 
Q 16.015625 51.171875 16.015625 36.375 
Q 16.015625 21.625 22.71875 14.15625 
Q 29.4375 6.6875 42.828125 6.6875 
Q 48.046875 6.6875 52.140625 7.59375 
Q 56.25 8.5 59.515625 10.40625 
z
" id="DejaVuSans-71"/>
      <path d="M 56.203125 29.59375 
L 56.203125 25.203125 
L 14.890625 25.203125 
Q 15.484375 15.921875 20.484375 11.0625 
Q 25.484375 6.203125 34.421875 6.203125 
Q 39.59375 6.203125 44.453125 7.46875 
Q 49.3125 8.734375 54.109375 11.28125 
L 54.109375 2.78125 
Q 49.265625 0.734375 44.1875 -0.34375 
Q 39.109375 -1.421875 33.890625 -1.421875 
Q 20.796875 -1.421875 13.15625 6.1875 
Q 5.515625 13.8125 5.515625 26.8125 
Q 5.515625 40.234375 12.765625 48.109375 
Q 20.015625 56 32.328125 56 
Q 43.359375 56 49.78125 48.890625 
Q 56.203125 41.796875 56.203125 29.59375 
z
M 47.21875 32.234375 
Q 47.125 39.59375 43.09375 43.984375 
Q 39.0625 48.390625 32.421875 48.390625 
Q 24.90625 48.390625 20.390625 44.140625 
Q 15.875 39.890625 15.1875 32.171875 
z
" id="DejaVuSans-101"/>
      <path d="M 54.890625 33.015625 
L 54.890625 0 
L 45.90625 0 
L 45.90625 32.71875 
Q 45.90625 40.484375 42.875 44.328125 
Q 39.84375 48.1875 33.796875 48.1875 
Q 26.515625 48.1875 22.3125 43.546875 
Q 18.109375 38.921875 18.109375 30.90625 
L 18.109375 0 
L 9.078125 0 
L 9.078125 54.6875 
L 18.109375 54.6875 
L 18.109375 46.1875 
Q 21.34375 51.125 25.703125 53.5625 
Q 30.078125 56 35.796875 56 
Q 45.21875 56 50.046875 50.171875 
Q 54.890625 44.34375 54.890625 33.015625 
z
" id="DejaVuSans-110"/>
      <path d="M 41.109375 46.296875 
Q 39.59375 47.171875 37.8125 47.578125 
Q 36.03125 48 33.890625 48 
Q 26.265625 48 22.1875 43.046875 
Q 18.109375 38.09375 18.109375 28.8125 
L 18.109375 0 
L 9.078125 0 
L 9.078125 54.6875 
L 18.109375 54.6875 
L 18.109375 46.1875 
Q 20.953125 51.171875 25.484375 53.578125 
Q 30.03125 56 36.53125 56 
Q 37.453125 56 38.578125 55.875 
Q 39.703125 55.765625 41.0625 55.515625 
z
" id="DejaVuSans-114"/>
      <path d="M 34.28125 27.484375 
Q 23.390625 27.484375 19.1875 25 
Q 14.984375 22.515625 14.984375 16.5 
Q 14.984375 11.71875 18.140625 8.90625 
Q 21.296875 6.109375 26.703125 6.109375 
Q 34.1875 6.109375 38.703125 11.40625 
Q 43.21875 16.703125 43.21875 25.484375 
L 43.21875 27.484375 
z
M 52.203125 31.203125 
L 52.203125 0 
L 43.21875 0 
L 43.21875 8.296875 
Q 40.140625 3.328125 35.546875 0.953125 
Q 30.953125 -1.421875 24.3125 -1.421875 
Q 15.921875 -1.421875 10.953125 3.296875 
Q 6 8.015625 6 15.921875 
Q 6 25.140625 12.171875 29.828125 
Q 18.359375 34.515625 30.609375 34.515625 
L 43.21875 34.515625 
L 43.21875 35.40625 
Q 43.21875 41.609375 39.140625 45 
Q 35.0625 48.390625 27.6875 48.390625 
Q 23 48.390625 18.546875 47.265625 
Q 14.109375 46.140625 10.015625 43.890625 
L 10.015625 52.203125 
Q 14.9375 54.109375 19.578125 55.046875 
Q 24.21875 56 28.609375 56 
Q 40.484375 56 46.34375 49.84375 
Q 52.203125 43.703125 52.203125 31.203125 
z
" id="DejaVuSans-97"/>
      <path d="M 18.3125 70.21875 
L 18.3125 54.6875 
L 36.8125 54.6875 
L 36.8125 47.703125 
L 18.3125 47.703125 
L 18.3125 18.015625 
Q 18.3125 11.328125 20.140625 9.421875 
Q 21.96875 7.515625 27.59375 7.515625 
L 36.8125 7.515625 
L 36.8125 0 
L 27.59375 0 
Q 17.1875 0 13.234375 3.875 
Q 9.28125 7.765625 9.28125 18.015625 
L 9.28125 47.703125 
L 2.6875 47.703125 
L 2.6875 54.6875 
L 9.28125 54.6875 
L 9.28125 70.21875 
z
" id="DejaVuSans-116"/>
      <path d="M 9.421875 54.6875 
L 18.40625 54.6875 
L 18.40625 0 
L 9.421875 0 
z
M 9.421875 75.984375 
L 18.40625 75.984375 
L 18.40625 64.59375 
L 9.421875 64.59375 
z
" id="DejaVuSans-105"/>
      <path d="M 30.609375 48.390625 
Q 23.390625 48.390625 19.1875 42.75 
Q 14.984375 37.109375 14.984375 27.296875 
Q 14.984375 17.484375 19.15625 11.84375 
Q 23.34375 6.203125 30.609375 6.203125 
Q 37.796875 6.203125 41.984375 11.859375 
Q 46.1875 17.53125 46.1875 27.296875 
Q 46.1875 37.015625 41.984375 42.703125 
Q 37.796875 48.390625 30.609375 48.390625 
z
M 30.609375 56 
Q 42.328125 56 49.015625 48.375 
Q 55.71875 40.765625 55.71875 27.296875 
Q 55.71875 13.875 49.015625 6.21875 
Q 42.328125 -1.421875 30.609375 -1.421875 
Q 18.84375 -1.421875 12.171875 6.21875 
Q 5.515625 13.875 5.515625 27.296875 
Q 5.515625 40.765625 12.171875 48.375 
Q 18.84375 56 30.609375 56 
z
" id="DejaVuSans-111"/>
      <path d="M 44.28125 53.078125 
L 44.28125 44.578125 
Q 40.484375 46.53125 36.375 47.5 
Q 32.28125 48.484375 27.875 48.484375 
Q 21.1875 48.484375 17.84375 46.4375 
Q 14.5 44.390625 14.5 40.28125 
Q 14.5 37.15625 16.890625 35.375 
Q 19.28125 33.59375 26.515625 31.984375 
L 29.59375 31.296875 
Q 39.15625 29.25 43.1875 25.515625 
Q 47.21875 21.78125 47.21875 15.09375 
Q 47.21875 7.46875 41.1875 3.015625 
Q 35.15625 -1.421875 24.609375 -1.421875 
Q 20.21875 -1.421875 15.453125 -0.5625 
Q 10.6875 0.296875 5.421875 2 
L 5.421875 11.28125 
Q 10.40625 8.6875 15.234375 7.390625 
Q 20.0625 6.109375 24.8125 6.109375 
Q 31.15625 6.109375 34.5625 8.28125 
Q 37.984375 10.453125 37.984375 14.40625 
Q 37.984375 18.0625 35.515625 20.015625 
Q 33.0625 21.96875 24.703125 23.78125 
L 21.578125 24.515625 
Q 13.234375 26.265625 9.515625 29.90625 
Q 5.8125 33.546875 5.8125 39.890625 
Q 5.8125 47.609375 11.28125 51.796875 
Q 16.75 56 26.8125 56 
Q 31.78125 56 36.171875 55.265625 
Q 40.578125 54.546875 44.28125 53.078125 
z
" id="DejaVuSans-115"/>
     </defs>
     <g transform="translate(205.662344 335.860562)scale(0.1 -0.1)">
      <use xlink:href="#DejaVuSans-71"/>
      <use x="77.490234" xlink:href="#DejaVuSans-101"/>
      <use x="139.013672" xlink:href="#DejaVuSans-110"/>
      <use x="202.392578" xlink:href="#DejaVuSans-101"/>
      <use x="263.916016" xlink:href="#DejaVuSans-114"/>
      <use x="305.029297" xlink:href="#DejaVuSans-97"/>
      <use x="366.308594" xlink:href="#DejaVuSans-116"/>
      <use x="405.517578" xlink:href="#DejaVuSans-105"/>
      <use x="433.300781" xlink:href="#DejaVuSans-111"/>
      <use x="494.482422" xlink:href="#DejaVuSans-110"/>
      <use x="557.861328" xlink:href="#DejaVuSans-115"/>
     </g>
    </g>
   </g>
   <g id="matplotlib.axis_2">
    <g id="ytick_1">
     <g id="line2d_15">
      <path clip-path="url(#p1c24fbe43f)" d="M 57.6 277.810007 
L 414.72 277.810007 
" style="fill:none;stroke:#b0b0b0;stroke-linecap:square;stroke-width:0.8;"/>
     </g>
     <g id="line2d_16">
      <defs>
       <path d="M 0 0 
L -3.5 0 
" id="m519282239d" style="stroke:#000000;stroke-width:0.8;"/>
      </defs>
      <g>
       <use style="stroke:#000000;stroke-width:0.8;" x="57.6" xlink:href="#m519282239d" y="277.810007"/>
      </g>
     </g>
     <g id="text_9">
      <!-- 600 -->
      <defs>
       <path d="M 33.015625 40.375 
Q 26.375 40.375 22.484375 35.828125 
Q 18.609375 31.296875 18.609375 23.390625 
Q 18.609375 15.53125 22.484375 10.953125 
Q 26.375 6.390625 33.015625 6.390625 
Q 39.65625 6.390625 43.53125 10.953125 
Q 47.40625 15.53125 47.40625 23.390625 
Q 47.40625 31.296875 43.53125 35.828125 
Q 39.65625 40.375 33.015625 40.375 
z
M 52.59375 71.296875 
L 52.59375 62.3125 
Q 48.875 64.0625 45.09375 64.984375 
Q 41.3125 65.921875 37.59375 65.921875 
Q 27.828125 65.921875 22.671875 59.328125 
Q 17.53125 52.734375 16.796875 39.40625 
Q 19.671875 43.65625 24.015625 45.921875 
Q 28.375 48.1875 33.59375 48.1875 
Q 44.578125 48.1875 50.953125 41.515625 
Q 57.328125 34.859375 57.328125 23.390625 
Q 57.328125 12.15625 50.6875 5.359375 
Q 44.046875 -1.421875 33.015625 -1.421875 
Q 20.359375 -1.421875 13.671875 8.265625 
Q 6.984375 17.96875 6.984375 36.375 
Q 6.984375 53.65625 15.1875 63.9375 
Q 23.390625 74.21875 37.203125 74.21875 
Q 40.921875 74.21875 44.703125 73.484375 
Q 48.484375 72.75 52.59375 71.296875 
z
" id="DejaVuSans-54"/>
      </defs>
      <g transform="translate(31.5125 281.609226)scale(0.1 -0.1)">
       <use xlink:href="#DejaVuSans-54"/>
       <use x="63.623047" xlink:href="#DejaVuSans-48"/>
       <use x="127.246094" xlink:href="#DejaVuSans-48"/>
      </g>
     </g>
    </g>
    <g id="ytick_2">
     <g id="line2d_17">
      <path clip-path="url(#p1c24fbe43f)" d="M 57.6 246.123822 
L 414.72 246.123822 
" style="fill:none;stroke:#b0b0b0;stroke-linecap:square;stroke-width:0.8;"/>
     </g>
     <g id="line2d_18">
      <g>
       <use style="stroke:#000000;stroke-width:0.8;" x="57.6" xlink:href="#m519282239d" y="246.123822"/>
      </g>
     </g>
     <g id="text_10">
      <!-- 800 -->
      <defs>
       <path d="M 31.78125 34.625 
Q 24.75 34.625 20.71875 30.859375 
Q 16.703125 27.09375 16.703125 20.515625 
Q 16.703125 13.921875 20.71875 10.15625 
Q 24.75 6.390625 31.78125 6.390625 
Q 38.8125 6.390625 42.859375 10.171875 
Q 46.921875 13.96875 46.921875 20.515625 
Q 46.921875 27.09375 42.890625 30.859375 
Q 38.875 34.625 31.78125 34.625 
z
M 21.921875 38.8125 
Q 15.578125 40.375 12.03125 44.71875 
Q 8.5 49.078125 8.5 55.328125 
Q 8.5 64.0625 14.71875 69.140625 
Q 20.953125 74.21875 31.78125 74.21875 
Q 42.671875 74.21875 48.875 69.140625 
Q 55.078125 64.0625 55.078125 55.328125 
Q 55.078125 49.078125 51.53125 44.71875 
Q 48 40.375 41.703125 38.8125 
Q 48.828125 37.15625 52.796875 32.3125 
Q 56.78125 27.484375 56.78125 20.515625 
Q 56.78125 9.90625 50.3125 4.234375 
Q 43.84375 -1.421875 31.78125 -1.421875 
Q 19.734375 -1.421875 13.25 4.234375 
Q 6.78125 9.90625 6.78125 20.515625 
Q 6.78125 27.484375 10.78125 32.3125 
Q 14.796875 37.15625 21.921875 38.8125 
z
M 18.3125 54.390625 
Q 18.3125 48.734375 21.84375 45.5625 
Q 25.390625 42.390625 31.78125 42.390625 
Q 38.140625 42.390625 41.71875 45.5625 
Q 45.3125 48.734375 45.3125 54.390625 
Q 45.3125 60.0625 41.71875 63.234375 
Q 38.140625 66.40625 31.78125 66.40625 
Q 25.390625 66.40625 21.84375 63.234375 
Q 18.3125 60.0625 18.3125 54.390625 
z
" id="DejaVuSans-56"/>
      </defs>
      <g transform="translate(31.5125 249.923041)scale(0.1 -0.1)">
       <use xlink:href="#DejaVuSans-56"/>
       <use x="63.623047" xlink:href="#DejaVuSans-48"/>
       <use x="127.246094" xlink:href="#DejaVuSans-48"/>
      </g>
     </g>
    </g>
    <g id="ytick_3">
     <g id="line2d_19">
      <path clip-path="url(#p1c24fbe43f)" d="M 57.6 214.437638 
L 414.72 214.437638 
" style="fill:none;stroke:#b0b0b0;stroke-linecap:square;stroke-width:0.8;"/>
     </g>
     <g id="line2d_20">
      <g>
       <use style="stroke:#000000;stroke-width:0.8;" x="57.6" xlink:href="#m519282239d" y="214.437638"/>
      </g>
     </g>
     <g id="text_11">
      <!-- 1000 -->
      <g transform="translate(25.15 218.236856)scale(0.1 -0.1)">
       <use xlink:href="#DejaVuSans-49"/>
       <use x="63.623047" xlink:href="#DejaVuSans-48"/>
       <use x="127.246094" xlink:href="#DejaVuSans-48"/>
       <use x="190.869141" xlink:href="#DejaVuSans-48"/>
      </g>
     </g>
    </g>
    <g id="ytick_4">
     <g id="line2d_21">
      <path clip-path="url(#p1c24fbe43f)" d="M 57.6 182.751453 
L 414.72 182.751453 
" style="fill:none;stroke:#b0b0b0;stroke-linecap:square;stroke-width:0.8;"/>
     </g>
     <g id="line2d_22">
      <g>
       <use style="stroke:#000000;stroke-width:0.8;" x="57.6" xlink:href="#m519282239d" y="182.751453"/>
      </g>
     </g>
     <g id="text_12">
      <!-- 1200 -->
      <g transform="translate(25.15 186.550672)scale(0.1 -0.1)">
       <use xlink:href="#DejaVuSans-49"/>
       <use x="63.623047" xlink:href="#DejaVuSans-50"/>
       <use x="127.246094" xlink:href="#DejaVuSans-48"/>
       <use x="190.869141" xlink:href="#DejaVuSans-48"/>
      </g>
     </g>
    </g>
    <g id="ytick_5">
     <g id="line2d_23">
      <path clip-path="url(#p1c24fbe43f)" d="M 57.6 151.065268 
L 414.72 151.065268 
" style="fill:none;stroke:#b0b0b0;stroke-linecap:square;stroke-width:0.8;"/>
     </g>
     <g id="line2d_24">
      <g>
       <use style="stroke:#000000;stroke-width:0.8;" x="57.6" xlink:href="#m519282239d" y="151.065268"/>
      </g>
     </g>
     <g id="text_13">
      <!-- 1400 -->
      <defs>
       <path d="M 37.796875 64.3125 
L 12.890625 25.390625 
L 37.796875 25.390625 
z
M 35.203125 72.90625 
L 47.609375 72.90625 
L 47.609375 25.390625 
L 58.015625 25.390625 
L 58.015625 17.1875 
L 47.609375 17.1875 
L 47.609375 0 
L 37.796875 0 
L 37.796875 17.1875 
L 4.890625 17.1875 
L 4.890625 26.703125 
z
" id="DejaVuSans-52"/>
      </defs>
      <g transform="translate(25.15 154.864487)scale(0.1 -0.1)">
       <use xlink:href="#DejaVuSans-49"/>
       <use x="63.623047" xlink:href="#DejaVuSans-52"/>
       <use x="127.246094" xlink:href="#DejaVuSans-48"/>
       <use x="190.869141" xlink:href="#DejaVuSans-48"/>
      </g>
     </g>
    </g>
    <g id="ytick_6">
     <g id="line2d_25">
      <path clip-path="url(#p1c24fbe43f)" d="M 57.6 119.379084 
L 414.72 119.379084 
" style="fill:none;stroke:#b0b0b0;stroke-linecap:square;stroke-width:0.8;"/>
     </g>
     <g id="line2d_26">
      <g>
       <use style="stroke:#000000;stroke-width:0.8;" x="57.6" xlink:href="#m519282239d" y="119.379084"/>
      </g>
     </g>
     <g id="text_14">
      <!-- 1600 -->
      <g transform="translate(25.15 123.178303)scale(0.1 -0.1)">
       <use xlink:href="#DejaVuSans-49"/>
       <use x="63.623047" xlink:href="#DejaVuSans-54"/>
       <use x="127.246094" xlink:href="#DejaVuSans-48"/>
       <use x="190.869141" xlink:href="#DejaVuSans-48"/>
      </g>
     </g>
    </g>
    <g id="ytick_7">
     <g id="line2d_27">
      <path clip-path="url(#p1c24fbe43f)" d="M 57.6 87.692899 
L 414.72 87.692899 
" style="fill:none;stroke:#b0b0b0;stroke-linecap:square;stroke-width:0.8;"/>
     </g>
     <g id="line2d_28">
      <g>
       <use style="stroke:#000000;stroke-width:0.8;" x="57.6" xlink:href="#m519282239d" y="87.692899"/>
      </g>
     </g>
     <g id="text_15">
      <!-- 1800 -->
      <g transform="translate(25.15 91.492118)scale(0.1 -0.1)">
       <use xlink:href="#DejaVuSans-49"/>
       <use x="63.623047" xlink:href="#DejaVuSans-56"/>
       <use x="127.246094" xlink:href="#DejaVuSans-48"/>
       <use x="190.869141" xlink:href="#DejaVuSans-48"/>
      </g>
     </g>
    </g>
    <g id="ytick_8">
     <g id="line2d_29">
      <path clip-path="url(#p1c24fbe43f)" d="M 57.6 56.006714 
L 414.72 56.006714 
" style="fill:none;stroke:#b0b0b0;stroke-linecap:square;stroke-width:0.8;"/>
     </g>
     <g id="line2d_30">
      <g>
       <use style="stroke:#000000;stroke-width:0.8;" x="57.6" xlink:href="#m519282239d" y="56.006714"/>
      </g>
     </g>
     <g id="text_16">
      <!-- 2000 -->
      <g transform="translate(25.15 59.805933)scale(0.1 -0.1)">
       <use xlink:href="#DejaVuSans-50"/>
       <use x="63.623047" xlink:href="#DejaVuSans-48"/>
       <use x="127.246094" xlink:href="#DejaVuSans-48"/>
       <use x="190.869141" xlink:href="#DejaVuSans-48"/>
      </g>
     </g>
    </g>
    <g id="text_17">
     <!-- Fitness -->
     <defs>
      <path d="M 9.8125 72.90625 
L 51.703125 72.90625 
L 51.703125 64.59375 
L 19.671875 64.59375 
L 19.671875 43.109375 
L 48.578125 43.109375 
L 48.578125 34.8125 
L 19.671875 34.8125 
L 19.671875 0 
L 9.8125 0 
z
" id="DejaVuSans-70"/>
     </defs>
     <g transform="translate(19.070312 192.202219)rotate(-90)scale(0.1 -0.1)">
      <use xlink:href="#DejaVuSans-70"/>
      <use x="57.410156" xlink:href="#DejaVuSans-105"/>
      <use x="85.193359" xlink:href="#DejaVuSans-116"/>
      <use x="124.402344" xlink:href="#DejaVuSans-110"/>
      <use x="187.78125" xlink:href="#DejaVuSans-101"/>
      <use x="249.304688" xlink:href="#DejaVuSans-115"/>
      <use x="301.404297" xlink:href="#DejaVuSans-115"/>
     </g>
    </g>
   </g>
   <g id="line2d_31">
    <path clip-path="url(#p1c24fbe43f)" d="M 73.832727 289.857137 
L 74.918528 201.988005 
L 76.00433 202.384625 
L 77.090131 205.847938 
L 78.175932 187.557449 
L 79.261733 201.386268 
L 80.347534 191.48331 
L 81.433335 205.562493 
L 82.519137 206.296967 
L 83.604938 192.017864 
L 84.690739 190.778644 
L 85.77654 205.799559 
L 86.862341 188.991063 
L 87.948142 215.060931 
L 89.033943 202.1037 
L 90.119745 194.926148 
L 91.205546 207.805722 
L 92.291347 209.416082 
L 93.377148 200.902613 
L 94.462949 217.909007 
L 95.54875 189.94009 
L 96.634552 215.445732 
L 97.720353 234.945441 
L 98.806154 194.870749 
L 99.891955 228.960367 
L 100.977756 187.808093 
L 102.063557 185.577764 
L 103.149358 200.843247 
L 104.23516 186.683854 
L 105.320961 205.325291 
L 106.406762 199.02735 
L 107.492563 195.945771 
L 108.578364 197.289534 
L 109.664165 198.444791 
L 110.749967 198.208077 
L 111.835768 206.50951 
L 112.921569 181.186599 
L 114.00737 203.075096 
L 115.093171 185.544941 
L 116.178972 178.940941 
L 117.264773 190.710304 
L 118.350575 186.522744 
L 119.436376 184.877961 
L 120.522177 165.87916 
L 121.607978 160.899645 
L 122.693779 173.80704 
L 123.77958 161.443907 
L 124.865382 174.416572 
L 125.951183 167.34797 
L 127.036984 168.545596 
L 128.122785 153.783741 
L 129.208586 156.313669 
L 130.294387 169.248154 
L 131.380189 162.953226 
L 132.46599 146.118096 
L 133.551791 162.476076 
L 134.637592 146.723952 
L 135.723393 150.949338 
L 136.809194 159.310331 
L 137.894995 172.975459 
L 138.980797 169.344055 
L 140.066598 165.266401 
L 142.2382 135.520247 
L 143.324001 148.89594 
L 144.409802 140.898013 
L 145.495604 187.608907 
L 146.581405 144.140166 
L 147.667206 160.109628 
L 148.753007 157.470521 
L 149.838808 169.615923 
L 150.924609 147.250773 
L 152.01041 141.811269 
L 153.096212 178.683535 
L 154.182013 131.160294 
L 155.267814 145.267163 
L 156.353615 145.927196 
L 157.439416 154.993507 
L 158.525217 171.242296 
L 159.611019 151.065486 
L 160.69682 135.547139 
L 161.782621 134.442634 
L 162.868422 164.242358 
L 163.954223 150.689057 
L 165.040024 124.048746 
L 166.125825 136.059717 
L 167.211627 131.789739 
L 168.297428 160.643608 
L 169.383229 156.796993 
L 170.46903 144.926669 
L 171.554831 146.111802 
L 172.640632 133.410974 
L 173.726434 136.514692 
L 174.812235 152.542597 
L 175.898036 130.082285 
L 176.983837 128.922317 
L 178.069638 128.50567 
L 179.155439 150.738085 
L 180.24124 132.70915 
L 181.327042 140.477291 
L 182.412843 150.350724 
L 183.498644 172.911219 
L 184.584445 165.992764 
L 185.670246 125.728924 
L 186.756047 146.821104 
L 187.841849 150.507799 
L 188.92765 174.214564 
L 190.013451 150.928757 
L 191.099252 124.533024 
L 192.185053 125.173227 
L 193.270854 127.188348 
L 194.356656 126.754895 
L 195.442457 130.831819 
L 196.528258 119.068248 
L 197.614059 130.290086 
L 198.69986 115.477421 
L 199.785661 140.74317 
L 200.871462 119.220471 
L 201.957264 116.867418 
L 203.043065 142.147163 
L 204.128866 127.309819 
L 205.214667 133.841386 
L 206.300468 172.989205 
L 207.386269 137.803243 
L 208.472071 124.983035 
L 209.557872 146.494022 
L 210.643673 114.995099 
L 211.729474 117.666099 
L 212.815275 123.921426 
L 213.901076 126.70749 
L 214.986877 105.505422 
L 216.072679 139.647154 
L 217.15848 142.656645 
L 218.244281 118.89333 
L 219.330082 115.170146 
L 220.415883 149.543377 
L 221.501684 127.019483 
L 222.587486 158.982437 
L 223.673287 138.042691 
L 224.759088 148.850506 
L 225.844889 151.477458 
L 226.93069 128.054649 
L 228.016491 146.262259 
L 229.102292 128.303105 
L 230.188094 164.00544 
L 231.273895 181.83369 
L 232.359696 161.916628 
L 233.445497 154.338585 
L 234.531298 155.169705 
L 235.617099 169.622285 
L 236.702901 146.356563 
L 237.788702 141.227704 
L 238.874503 169.109668 
L 239.960304 124.874426 
L 241.046105 150.174404 
L 242.131906 120.423946 
L 243.217708 130.964318 
L 244.303509 138.552672 
L 245.38931 119.474143 
L 246.475111 126.083737 
L 247.560912 120.538748 
L 248.646713 126.950091 
L 249.732514 120.327756 
L 250.818316 148.105277 
L 251.904117 130.532069 
L 252.989918 119.996536 
L 254.075719 103.630587 
L 255.16152 126.434731 
L 256.247321 126.99089 
L 257.333123 153.332921 
L 258.418924 138.577202 
L 259.504725 112.687105 
L 260.590526 132.125377 
L 261.676327 128.619073 
L 262.762128 137.473063 
L 263.847929 124.577784 
L 264.933731 124.577874 
L 266.019532 129.607184 
L 267.105333 122.464428 
L 268.191134 122.176781 
L 269.276935 127.905173 
L 270.362736 131.469354 
L 271.448538 145.661102 
L 272.534339 150.331595 
L 273.62014 122.302306 
L 274.705941 114.204237 
L 275.791742 125.716368 
L 276.877543 125.992459 
L 277.963344 116.538289 
L 279.049146 110.436714 
L 280.134947 128.704471 
L 281.220748 116.261506 
L 282.306549 110.49106 
L 283.39235 120.353907 
L 284.478151 124.84508 
L 285.563953 112.530636 
L 286.649754 107.656565 
L 287.735555 123.966152 
L 288.821356 122.559666 
L 289.907157 119.55409 
L 290.992958 120.285263 
L 292.07876 129.969278 
L 293.164561 128.586652 
L 294.250362 135.479005 
L 295.336163 127.798083 
L 296.421964 130.737984 
L 297.507765 119.78173 
L 298.593566 116.237167 
L 299.679368 122.960679 
L 300.765169 105.75222 
L 301.85097 117.155713 
L 302.936771 109.932046 
L 304.022572 111.168447 
L 305.108373 120.162491 
L 306.194175 127.008851 
L 307.279976 116.33212 
L 308.365777 118.103803 
L 309.451578 128.660339 
L 310.537379 142.62565 
L 311.62318 140.830868 
L 312.708981 128.251938 
L 313.794783 118.936549 
L 314.880584 102.739142 
L 315.966385 115.425258 
L 317.052186 119.697197 
L 318.137987 120.710616 
L 319.223788 118.939395 
L 320.30959 108.306033 
L 321.395391 128.817179 
L 322.481192 117.951044 
L 323.566993 136.127752 
L 324.652794 115.915198 
L 325.738595 135.388624 
L 326.824396 134.793192 
L 327.910198 127.960217 
L 328.995999 116.325995 
L 330.0818 133.528949 
L 331.167601 130.725746 
L 332.253402 122.992107 
L 333.339203 143.21012 
L 334.425005 150.214483 
L 335.510806 123.702653 
L 336.596607 130.283611 
L 337.682408 123.642267 
L 338.768209 127.533743 
L 339.85401 147.28984 
L 340.939811 107.628474 
L 342.025613 107.24965 
L 343.111414 112.157271 
L 344.197215 127.545798 
L 345.283016 119.346074 
L 346.368817 114.817529 
L 347.454618 105.810017 
L 348.54042 166.616342 
L 349.626221 166.598556 
L 350.712022 134.389816 
L 351.797823 125.403776 
L 352.883624 110.318875 
L 353.969425 137.247997 
L 355.055227 129.683695 
L 356.141028 154.17409 
L 357.226829 129.298144 
L 358.31263 140.315399 
L 359.398431 128.296383 
L 360.484232 114.456456 
L 361.570033 139.098996 
L 362.655835 130.845353 
L 363.741636 119.283461 
L 364.827437 133.730651 
L 365.913238 108.780814 
L 366.999039 105.27667 
L 368.08484 123.975888 
L 369.170642 126.25958 
L 370.256443 125.15884 
L 371.342244 122.06279 
L 372.428045 135.508016 
L 373.513846 130.659745 
L 374.599647 135.694578 
L 375.685448 128.570305 
L 376.77125 118.728606 
L 377.857051 132.979044 
L 378.942852 126.495759 
L 380.028653 106.149694 
L 381.114454 125.767499 
L 382.200255 121.325152 
L 383.286057 120.367178 
L 384.371858 127.190058 
L 385.457659 129.239515 
L 386.54346 127.008466 
L 387.629261 140.158641 
L 388.715062 129.614683 
L 389.800863 108.21902 
L 390.886665 125.773599 
L 391.972466 116.275951 
L 393.058267 120.482489 
L 394.144068 117.353236 
L 395.229869 154.427369 
L 396.31567 157.125145 
L 397.401472 127.460653 
L 398.487273 118.233883 
L 398.487273 118.233883 
" style="fill:none;stroke:#0000ff;stroke-linecap:square;stroke-width:1.5;"/>
   </g>
   <g id="line2d_32">
    <path clip-path="url(#p1c24fbe43f)" d="M 73.832727 295.488 
L 74.918528 207.655414 
L 76.00433 210.517001 
L 77.090131 218.812133 
L 78.175932 205.993008 
L 79.261733 225.337879 
L 80.347534 207.396321 
L 81.433335 224.451867 
L 82.519137 214.48129 
L 83.604938 201.388507 
L 84.690739 216.173858 
L 85.77654 235.336276 
L 86.862341 202.825193 
L 87.948142 250.610591 
L 89.033943 221.873043 
L 90.119745 222.698023 
L 91.205546 240.518536 
L 92.291347 240.389076 
L 93.377148 211.447998 
L 94.462949 245.664861 
L 95.54875 218.671192 
L 96.634552 228.760916 
L 97.720353 256.017748 
L 98.806154 205.821406 
L 99.891955 237.222767 
L 100.977756 215.449665 
L 102.063557 211.143891 
L 103.149358 218.34068 
L 104.23516 201.140005 
L 105.320961 238.667861 
L 106.406762 222.789609 
L 107.492563 212.875107 
L 108.578364 234.081903 
L 109.664165 210.79352 
L 110.749967 226.820854 
L 111.835768 239.487808 
L 112.921569 208.074817 
L 114.00737 233.926054 
L 115.093171 233.371819 
L 116.178972 208.859376 
L 117.264773 216.788306 
L 118.350575 201.730453 
L 119.436376 199.654489 
L 120.522177 180.699189 
L 121.607978 176.855275 
L 122.693779 213.18102 
L 123.77958 185.488468 
L 124.865382 211.790895 
L 125.951183 191.029978 
L 127.036984 185.887571 
L 128.122785 176.439691 
L 129.208586 179.523139 
L 130.294387 210.403942 
L 131.380189 179.023072 
L 132.46599 162.71993 
L 133.551791 197.45395 
L 134.637592 185.324112 
L 135.723393 177.606385 
L 136.809194 172.829351 
L 137.894995 197.28042 
L 138.980797 198.65037 
L 140.066598 182.737832 
L 141.152399 170.998246 
L 142.2382 149.305343 
L 143.324001 165.338512 
L 144.409802 157.88762 
L 145.495604 201.983082 
L 146.581405 168.930399 
L 147.667206 181.601181 
L 148.753007 181.730524 
L 149.838808 189.315675 
L 150.924609 168.427591 
L 152.01041 154.504275 
L 153.096212 207.547008 
L 154.182013 152.009887 
L 155.267814 166.759744 
L 156.353615 189.616516 
L 157.439416 185.688944 
L 158.525217 186.935604 
L 159.611019 186.559896 
L 160.69682 157.051114 
L 161.782621 148.450765 
L 162.868422 185.479885 
L 163.954223 185.98234 
L 165.040024 145.953455 
L 166.125825 171.918504 
L 167.211627 155.413217 
L 168.297428 177.117503 
L 169.383229 173.505873 
L 170.46903 164.676875 
L 171.554831 169.74752 
L 172.640632 155.333265 
L 173.726434 159.88406 
L 174.812235 180.506851 
L 175.898036 154.726342 
L 176.983837 161.648045 
L 178.069638 162.692427 
L 179.155439 166.991451 
L 180.24124 161.262004 
L 181.327042 162.932425 
L 182.412843 179.897454 
L 183.498644 206.276387 
L 184.584445 187.356253 
L 185.670246 144.812988 
L 186.756047 166.963597 
L 187.841849 170.615296 
L 188.92765 211.326967 
L 190.013451 173.472966 
L 191.099252 156.737232 
L 192.185053 147.336109 
L 193.270854 149.136352 
L 194.356656 169.246464 
L 195.442457 173.136051 
L 196.528258 141.513883 
L 197.614059 170.305896 
L 198.69986 137.951739 
L 199.785661 178.522942 
L 200.871462 143.618255 
L 201.957264 145.969169 
L 203.043065 215.723546 
L 204.128866 153.201306 
L 205.214667 174.75158 
L 206.300468 203.217609 
L 207.386269 164.609219 
L 208.472071 152.224445 
L 209.557872 203.354734 
L 210.643673 141.353368 
L 211.729474 140.734961 
L 212.815275 148.085343 
L 213.901076 177.865221 
L 214.986877 129.835623 
L 216.072679 166.947182 
L 217.15848 162.047468 
L 218.244281 155.212443 
L 219.330082 161.266275 
L 220.415883 185.361541 
L 221.501684 162.086485 
L 222.587486 185.694167 
L 223.673287 172.292174 
L 224.759088 169.676743 
L 225.844889 188.004887 
L 226.93069 167.864695 
L 228.016491 207.700262 
L 229.102292 171.220626 
L 230.188094 202.721059 
L 231.273895 215.35153 
L 233.445497 181.264112 
L 234.531298 187.661364 
L 235.617099 208.595438 
L 236.702901 178.919315 
L 237.788702 184.397203 
L 238.874503 193.664312 
L 239.960304 154.454885 
L 241.046105 176.957939 
L 242.131906 146.047307 
L 243.217708 159.984082 
L 244.303509 179.618133 
L 245.38931 146.304174 
L 246.475111 190.458231 
L 247.560912 163.514452 
L 248.646713 160.051731 
L 249.732514 156.21113 
L 250.818316 183.102578 
L 251.904117 164.923955 
L 252.989918 163.945156 
L 254.075719 124.949773 
L 255.16152 175.359773 
L 256.247321 166.842614 
L 257.333123 204.005191 
L 258.418924 185.712611 
L 259.504725 157.384232 
L 260.590526 159.571713 
L 261.676327 159.508076 
L 262.762128 166.562775 
L 263.847929 146.864464 
L 264.933731 155.304534 
L 266.019532 173.933141 
L 267.105333 146.592535 
L 268.191134 152.509675 
L 269.276935 162.372433 
L 270.362736 160.467635 
L 271.448538 192.242853 
L 272.534339 190.115054 
L 273.62014 147.520163 
L 274.705941 135.453159 
L 275.791742 155.225851 
L 276.877543 144.914896 
L 277.963344 143.109507 
L 279.049146 167.305428 
L 280.134947 159.29651 
L 281.220748 142.760879 
L 282.306549 139.889624 
L 283.39235 152.105995 
L 284.478151 149.76699 
L 285.563953 134.133478 
L 286.649754 138.861647 
L 287.735555 159.861808 
L 288.821356 149.193382 
L 289.907157 143.624137 
L 290.992958 160.072667 
L 292.07876 166.281772 
L 293.164561 154.18974 
L 294.250362 170.733786 
L 295.336163 157.724057 
L 296.421964 161.866782 
L 297.507765 143.878434 
L 298.593566 140.328773 
L 299.679368 146.98083 
L 300.765169 134.123959 
L 301.85097 141.276147 
L 302.936771 131.471464 
L 304.022572 145.742562 
L 305.108373 144.596613 
L 306.194175 156.606358 
L 307.279976 136.214343 
L 309.451578 152.418292 
L 310.537379 162.241796 
L 311.62318 168.242261 
L 313.794783 148.462111 
L 314.880584 123.997699 
L 315.966385 137.563341 
L 317.052186 148.337701 
L 318.137987 155.668479 
L 319.223788 145.017027 
L 320.30959 129.298733 
L 321.395391 155.442644 
L 322.481192 149.658817 
L 323.566993 161.250795 
L 324.652794 138.73122 
L 325.738595 157.872944 
L 326.824396 166.236907 
L 327.910198 149.955777 
L 328.995999 143.183608 
L 330.0818 155.835758 
L 331.167601 147.217652 
L 332.253402 145.084689 
L 333.339203 169.886339 
L 334.425005 175.698118 
L 335.510806 153.016128 
L 336.596607 151.602301 
L 337.682408 146.933915 
L 338.768209 145.941688 
L 339.85401 166.638904 
L 340.939811 131.389329 
L 342.025613 128.861902 
L 343.111414 132.803572 
L 344.197215 146.089644 
L 345.283016 144.644561 
L 346.368817 139.120941 
L 347.454618 128.501443 
L 348.54042 187.450256 
L 349.626221 194.708892 
L 350.712022 157.900924 
L 351.797823 143.770241 
L 352.883624 137.268065 
L 353.969425 156.161426 
L 355.055227 150.071776 
L 356.141028 170.823321 
L 357.226829 151.079398 
L 358.31263 166.579366 
L 359.398431 146.111276 
L 360.484232 133.855544 
L 361.570033 162.249388 
L 362.655835 164.120084 
L 363.741636 142.393598 
L 364.827437 163.585305 
L 365.913238 131.992941 
L 366.999039 130.768285 
L 368.08484 148.935576 
L 369.170642 148.28987 
L 370.256443 149.147271 
L 371.342244 145.009064 
L 372.428045 155.545029 
L 373.513846 154.917402 
L 374.599647 169.471913 
L 375.685448 149.819252 
L 376.77125 146.094973 
L 377.857051 156.195869 
L 378.942852 153.143471 
L 380.028653 127.273019 
L 381.114454 154.312859 
L 382.200255 149.70704 
L 383.286057 142.506248 
L 384.371858 143.572164 
L 385.457659 153.581593 
L 386.54346 147.804003 
L 387.629261 169.034941 
L 388.715062 152.816709 
L 389.800863 132.113149 
L 390.886665 147.060802 
L 391.972466 138.49176 
L 393.058267 146.062275 
L 394.144068 150.387236 
L 395.229869 173.509533 
L 396.31567 185.939944 
L 397.401472 154.062643 
L 398.487273 142.179261 
L 398.487273 142.179261 
" style="fill:none;stroke:#008000;stroke-dasharray:9.6,2.4,1.5,2.4;stroke-dashoffset:0;stroke-width:1.5;"/>
   </g>
   <g id="line2d_33">
    <path clip-path="url(#p1c24fbe43f)" d="M 73.832727 284.226273 
L 74.918528 196.320596 
L 76.00433 194.252249 
L 77.090131 192.883743 
L 78.175932 169.121891 
L 79.261733 177.434656 
L 80.347534 175.5703 
L 82.519137 198.112644 
L 83.604938 182.647222 
L 84.690739 165.38343 
L 85.77654 176.262842 
L 86.862341 175.156934 
L 87.948142 179.511272 
L 89.033943 182.334356 
L 90.119745 167.154273 
L 91.205546 175.092908 
L 92.291347 178.443088 
L 93.377148 190.357228 
L 94.462949 190.153153 
L 95.54875 161.208987 
L 96.634552 202.130547 
L 97.720353 213.873134 
L 98.806154 183.920091 
L 99.891955 220.697967 
L 100.977756 160.166521 
L 102.063557 160.011637 
L 103.149358 183.345814 
L 104.23516 172.227704 
L 105.320961 171.98272 
L 106.406762 175.265092 
L 107.492563 179.016436 
L 108.578364 160.497165 
L 109.664165 186.096061 
L 110.749967 169.5953 
L 111.835768 173.531211 
L 112.921569 154.298381 
L 114.00737 172.224137 
L 115.093171 137.718062 
L 116.178972 149.022507 
L 117.264773 164.632302 
L 118.350575 171.315036 
L 119.436376 170.101434 
L 120.522177 151.059131 
L 121.607978 144.944015 
L 122.693779 134.433061 
L 123.77958 137.399346 
L 124.865382 137.042248 
L 125.951183 143.665963 
L 127.036984 151.20362 
L 128.122785 131.12779 
L 129.208586 133.104199 
L 130.294387 128.092366 
L 131.380189 146.88338 
L 132.46599 129.516261 
L 133.551791 127.498203 
L 134.637592 108.123791 
L 135.723393 124.292291 
L 136.809194 145.791311 
L 137.894995 148.670497 
L 138.980797 140.03774 
L 140.066598 147.79497 
L 141.152399 128.463379 
L 142.2382 121.735152 
L 143.324001 132.453368 
L 144.409802 123.908405 
L 145.495604 173.234731 
L 146.581405 119.349934 
L 147.667206 138.618074 
L 148.753007 133.210518 
L 149.838808 149.91617 
L 150.924609 126.073954 
L 152.01041 129.118264 
L 153.096212 149.820061 
L 154.182013 110.3107 
L 155.267814 123.774583 
L 156.353615 102.237877 
L 157.439416 124.29807 
L 158.525217 155.548988 
L 159.611019 115.571077 
L 160.69682 114.043163 
L 161.782621 120.434504 
L 162.868422 143.00483 
L 163.954223 115.395773 
L 165.040024 102.144037 
L 166.125825 100.20093 
L 167.211627 108.166261 
L 168.297428 144.169712 
L 169.383229 140.088113 
L 170.46903 125.176462 
L 171.554831 122.476084 
L 172.640632 111.488684 
L 173.726434 113.145324 
L 174.812235 124.578343 
L 175.898036 105.438227 
L 176.983837 96.196589 
L 178.069638 94.318912 
L 179.155439 134.484719 
L 180.24124 104.156295 
L 181.327042 118.022158 
L 182.412843 120.803995 
L 183.498644 139.546051 
L 184.584445 144.629276 
L 185.670246 106.64486 
L 186.756047 126.678611 
L 187.841849 130.400303 
L 188.92765 137.102162 
L 190.013451 128.384549 
L 191.099252 92.328815 
L 192.185053 103.010346 
L 193.270854 105.240343 
L 194.356656 84.263325 
L 195.442457 88.527587 
L 196.528258 96.622613 
L 197.614059 90.274275 
L 198.69986 93.003103 
L 199.785661 102.963398 
L 200.871462 94.822687 
L 201.957264 87.765667 
L 203.043065 68.57078 
L 204.128866 101.418333 
L 205.214667 92.931193 
L 206.300468 142.760801 
L 207.386269 110.997267 
L 208.472071 97.741624 
L 209.557872 89.633311 
L 210.643673 88.63683 
L 211.729474 94.597236 
L 212.815275 99.75751 
L 213.901076 75.549759 
L 214.986877 81.175221 
L 216.072679 112.347127 
L 217.15848 123.265822 
L 218.244281 82.574217 
L 219.330082 69.074017 
L 220.415883 113.725212 
L 221.501684 91.95248 
L 222.587486 132.270707 
L 223.673287 103.793209 
L 224.759088 128.024269 
L 225.844889 114.950029 
L 226.93069 88.244603 
L 228.016491 84.824257 
L 229.102292 85.385583 
L 230.188094 125.289821 
L 231.273895 148.31585 
L 232.359696 125.659243 
L 233.445497 127.413057 
L 234.531298 122.678045 
L 235.617099 130.649132 
L 237.788702 98.058205 
L 238.874503 144.555023 
L 239.960304 95.293967 
L 241.046105 123.390868 
L 242.131906 94.800585 
L 243.217708 101.944554 
L 245.38931 92.644113 
L 246.475111 61.709242 
L 248.646713 93.848451 
L 249.732514 84.444381 
L 250.818316 113.107976 
L 251.904117 96.140183 
L 252.989918 76.047916 
L 254.075719 82.311401 
L 255.16152 77.509689 
L 256.247321 87.139166 
L 257.333123 102.660651 
L 258.418924 91.441794 
L 259.504725 67.989978 
L 260.590526 104.679041 
L 261.676327 97.73007 
L 262.762128 108.383351 
L 263.847929 102.291103 
L 266.019532 85.281226 
L 267.105333 98.336321 
L 268.191134 91.843887 
L 269.276935 93.437912 
L 270.362736 102.471073 
L 271.448538 99.079351 
L 272.534339 110.548137 
L 273.62014 97.084448 
L 274.705941 92.955316 
L 275.791742 96.206886 
L 276.877543 107.070021 
L 277.963344 89.967071 
L 279.049146 53.568 
L 280.134947 98.112432 
L 282.306549 81.092497 
L 283.39235 88.601819 
L 284.478151 99.92317 
L 285.563953 90.927795 
L 286.649754 76.451484 
L 287.735555 88.070495 
L 288.821356 95.92595 
L 289.907157 95.484043 
L 290.992958 80.497859 
L 292.07876 93.656784 
L 293.164561 102.983564 
L 294.250362 100.224224 
L 295.336163 97.872108 
L 296.421964 99.609186 
L 298.593566 92.145562 
L 299.679368 98.940529 
L 300.765169 77.380481 
L 301.85097 93.035279 
L 302.936771 88.392628 
L 304.022572 76.594331 
L 305.108373 95.728369 
L 306.194175 97.411344 
L 307.279976 96.449896 
L 308.365777 91.813264 
L 309.451578 104.902385 
L 310.537379 123.009504 
L 311.62318 113.419474 
L 312.708981 98.198857 
L 314.880584 81.480584 
L 315.966385 93.287176 
L 317.052186 91.056694 
L 318.137987 85.752753 
L 319.223788 92.861762 
L 320.30959 87.313333 
L 321.395391 102.191715 
L 322.481192 86.243271 
L 323.566993 111.004708 
L 324.652794 93.099176 
L 325.738595 112.904305 
L 326.824396 103.349478 
L 327.910198 105.964657 
L 328.995999 89.468382 
L 330.0818 111.222141 
L 331.167601 114.23384 
L 332.253402 100.899525 
L 333.339203 116.533901 
L 334.425005 124.730849 
L 335.510806 94.389178 
L 336.596607 108.964921 
L 337.682408 100.35062 
L 338.768209 109.125799 
L 339.85401 127.940777 
L 340.939811 83.867619 
L 342.025613 85.637398 
L 343.111414 91.51097 
L 344.197215 109.001952 
L 345.283016 94.047586 
L 346.368817 90.514116 
L 347.454618 83.118592 
L 348.54042 145.782427 
L 349.626221 138.48822 
L 350.712022 110.878708 
L 351.797823 107.037311 
L 352.883624 83.369686 
L 353.969425 118.334568 
L 355.055227 109.295614 
L 356.141028 137.524859 
L 357.226829 107.51689 
L 358.31263 114.051433 
L 359.398431 110.48149 
L 360.484232 95.057367 
L 361.570033 115.948603 
L 362.655835 97.570621 
L 363.741636 96.173325 
L 364.827437 103.875997 
L 365.913238 85.568687 
L 366.999039 79.785055 
L 368.08484 99.016201 
L 369.170642 104.22929 
L 370.256443 101.170409 
L 371.342244 99.116515 
L 372.428045 115.471004 
L 373.513846 106.402089 
L 374.599647 101.917242 
L 375.685448 107.321359 
L 376.77125 91.362239 
L 377.857051 109.76222 
L 378.942852 99.848048 
L 380.028653 85.026369 
L 381.114454 97.222139 
L 382.200255 92.943265 
L 383.286057 98.228109 
L 384.371858 110.807952 
L 385.457659 104.897437 
L 386.54346 106.212929 
L 387.629261 111.282342 
L 388.715062 106.412656 
L 389.800863 84.324891 
L 390.886665 104.486396 
L 391.972466 94.060143 
L 393.058267 94.902703 
L 394.144068 84.319236 
L 395.229869 135.345205 
L 396.31567 128.310345 
L 397.401472 100.858663 
L 398.487273 94.288506 
L 398.487273 94.288506 
" style="fill:none;stroke:#008000;stroke-dasharray:9.6,2.4,1.5,2.4;stroke-dashoffset:0;stroke-width:1.5;"/>
   </g>
   <g id="line2d_34">
    <path clip-path="url(#p1c24fbe43f)" d="M 73.832727 275.712067 
L 74.918528 189.307532 
L 76.00433 181.397978 
L 77.090131 180.262138 
L 78.175932 165.063651 
L 79.261733 170.578386 
L 80.347534 162.222457 
L 81.433335 180.848763 
L 82.519137 195.969205 
L 83.604938 178.532226 
L 84.690739 167.050228 
L 85.77654 178.285877 
L 86.862341 158.377981 
L 87.948142 176.984507 
L 89.033943 170.209547 
L 90.119745 168.28748 
L 91.205546 174.5034 
L 92.291347 170.478329 
L 94.462949 189.257431 
L 95.54875 157.033094 
L 96.634552 187.232506 
L 97.720353 212.108875 
L 98.806154 170.819478 
L 99.891955 207.914583 
L 100.977756 162.214081 
L 102.063557 161.950749 
L 103.149358 171.802054 
L 104.23516 156.90008 
L 105.320961 180.251621 
L 106.406762 172.331093 
L 107.492563 163.453289 
L 108.578364 159.239758 
L 109.664165 176.837181 
L 110.749967 167.664743 
L 111.835768 179.154741 
L 112.921569 151.413616 
L 114.00737 166.387866 
L 116.178972 145.584125 
L 117.264773 159.658427 
L 118.350575 156.265236 
L 119.436376 161.662048 
L 120.522177 142.657554 
L 121.607978 127.184601 
L 122.693779 140.195449 
L 123.77958 133.556108 
L 124.865382 135.29023 
L 125.951183 130.340618 
L 127.036984 134.413552 
L 128.122785 118.333679 
L 129.208586 121.911525 
L 130.294387 136.395055 
L 131.380189 139.511406 
L 132.46599 118.728758 
L 133.551791 126.712318 
L 134.637592 111.596439 
L 135.723393 112.566999 
L 136.809194 137.555792 
L 137.894995 151.008914 
L 138.980797 148.416199 
L 140.066598 141.720277 
L 141.152399 128.486685 
L 142.2382 120.886935 
L 143.324001 128.20622 
L 144.409802 106.839575 
L 145.495604 163.000501 
L 146.581405 111.419834 
L 147.667206 131.197727 
L 148.753007 130.417336 
L 149.838808 134.51786 
L 150.924609 117.697804 
L 152.01041 120.225108 
L 153.096212 150.290179 
L 154.182013 103.684135 
L 155.267814 111.956801 
L 156.353615 111.000151 
L 158.525217 147.149401 
L 159.611019 118.126676 
L 160.69682 107.86927 
L 161.782621 103.255779 
L 162.868422 135.340275 
L 163.954223 113.35939 
L 165.040024 86.970579 
L 166.125825 92.875938 
L 167.211627 101.867719 
L 168.297428 139.048464 
L 169.383229 133.446432 
L 170.46903 113.028993 
L 171.554831 101.897847 
L 172.640632 104.603777 
L 173.726434 106.549106 
L 174.812235 122.487283 
L 175.898036 95.442949 
L 176.983837 92.85224 
L 178.069638 93.518853 
L 179.155439 129.36679 
L 180.24124 109.570797 
L 181.327042 114.780243 
L 182.412843 114.107151 
L 183.498644 141.885769 
L 184.584445 137.306551 
L 185.670246 100.213959 
L 186.756047 118.776215 
L 187.841849 121.661377 
L 188.92765 138.375756 
L 190.013451 121.074972 
L 191.099252 86.770334 
L 192.185053 100.488695 
L 193.270854 106.486016 
L 194.356656 96.01494 
L 195.442457 99.489339 
L 196.528258 91.313929 
L 197.614059 100.371844 
L 198.69986 89.360275 
L 199.785661 111.19403 
L 200.871462 94.078892 
L 201.957264 90.744717 
L 203.043065 90.997443 
L 204.128866 98.575057 
L 205.214667 101.598221 
L 206.300468 144.109357 
L 207.386269 105.273494 
L 208.472071 101.803468 
L 209.557872 102.487407 
L 210.643673 91.323455 
L 211.729474 94.64714 
L 212.815275 101.091229 
L 214.986877 78.894993 
L 216.072679 113.558536 
L 217.15848 124.878909 
L 218.244281 88.876167 
L 219.330082 84.607596 
L 220.415883 122.078179 
L 221.501684 104.963544 
L 222.587486 134.363672 
L 223.673287 109.286009 
L 224.759088 126.450832 
L 225.844889 128.943268 
L 226.93069 99.966277 
L 228.016491 110.34261 
L 229.102292 98.470163 
L 230.188094 138.968933 
L 231.273895 155.83047 
L 232.359696 131.916376 
L 233.445497 129.84794 
L 234.531298 126.827698 
L 235.617099 135.736806 
L 236.702901 120.924403 
L 237.788702 107.901078 
L 238.874503 144.155822 
L 239.960304 102.186516 
L 241.046105 123.734191 
L 242.131906 91.751353 
L 243.217708 99.214787 
L 244.303509 109.540907 
L 245.38931 85.34339 
L 246.475111 78.657807 
L 247.560912 85.527555 
L 248.646713 101.728259 
L 249.732514 90.706949 
L 250.818316 115.122192 
L 251.904117 105.073205 
L 252.989918 87.341668 
L 254.075719 79.961661 
L 255.16152 96.615857 
L 256.247321 87.716777 
L 257.333123 120.192815 
L 258.418924 102.792341 
L 259.504725 79.635984 
L 260.590526 100.059229 
L 261.676327 95.330036 
L 262.762128 105.575399 
L 263.847929 94.236919 
L 264.933731 93.684547 
L 266.019532 94.809305 
L 267.105333 95.599399 
L 268.191134 90.604767 
L 270.362736 101.839123 
L 271.448538 100.490937 
L 272.534339 111.033335 
L 273.62014 92.906326 
L 274.705941 91.84464 
L 275.791742 95.865623 
L 276.877543 100.363668 
L 279.049146 72.857839 
L 280.134947 88.161293 
L 281.220748 94.064697 
L 282.306549 82.477857 
L 283.39235 83.917844 
L 284.478151 96.145516 
L 285.563953 86.621578 
L 286.649754 80.033009 
L 287.735555 90.114632 
L 288.821356 92.846615 
L 289.907157 91.789921 
L 290.992958 75.25402 
L 292.07876 91.154028 
L 293.164561 92.544869 
L 294.250362 90.943881 
L 295.336163 86.577869 
L 296.421964 92.68125 
L 297.507765 90.857999 
L 298.593566 83.192583 
L 299.679368 92.378533 
L 300.765169 68.331994 
L 301.85097 89.665613 
L 302.936771 84.580517 
L 304.022572 83.219447 
L 305.108373 98.460014 
L 306.194175 82.146863 
L 307.279976 92.654191 
L 308.365777 88.836507 
L 309.451578 100.13374 
L 310.537379 109.43879 
L 311.62318 106.156057 
L 312.708981 96.780149 
L 313.794783 83.576276 
L 314.880584 77.866797 
L 315.966385 89.791147 
L 317.052186 83.570919 
L 318.137987 85.457254 
L 319.223788 85.149096 
L 320.30959 81.049214 
L 321.395391 94.184197 
L 322.481192 90.483892 
L 323.566993 95.509174 
L 324.652794 83.314323 
L 325.738595 105.946451 
L 326.824396 103.444789 
L 327.910198 94.141473 
L 328.995999 83.583452 
L 330.0818 108.851045 
L 331.167601 110.313676 
L 332.253402 95.872685 
L 333.339203 114.155412 
L 334.425005 122.351116 
L 335.510806 97.583365 
L 336.596607 111.429887 
L 337.682408 98.40763 
L 338.768209 104.366673 
L 339.85401 126.921384 
L 340.939811 80.838947 
L 342.025613 88.55767 
L 343.111414 91.23813 
L 344.197215 109.002387 
L 345.283016 92.912772 
L 346.368817 90.811294 
L 347.454618 81.759384 
L 348.54042 143.867503 
L 349.626221 140.20778 
L 350.712022 102.312291 
L 351.797823 104.112691 
L 352.883624 90.15186 
L 353.969425 108.018437 
L 355.055227 106.088694 
L 356.141028 135.336649 
L 357.226829 102.529284 
L 358.31263 105.563334 
L 359.398431 105.723871 
L 360.484232 89.584821 
L 361.570033 102.840284 
L 362.655835 94.887176 
L 363.741636 90.226256 
L 364.827437 99.924698 
L 365.913238 86.154136 
L 366.999039 80.865285 
L 368.08484 97.751253 
L 369.170642 102.747187 
L 370.256443 102.116014 
L 371.342244 94.817627 
L 372.428045 114.371684 
L 373.513846 87.041448 
L 374.599647 105.636004 
L 375.685448 100.100604 
L 376.77125 86.301191 
L 377.857051 103.445749 
L 378.942852 97.715065 
L 380.028653 88.085083 
L 381.114454 97.895654 
L 382.200255 91.035886 
L 383.286057 90.090391 
L 384.371858 95.676229 
L 385.457659 104.388503 
L 386.54346 101.869682 
L 387.629261 111.720452 
L 388.715062 98.564635 
L 389.800863 83.304206 
L 390.886665 96.640433 
L 391.972466 86.921675 
L 393.058267 90.793818 
L 394.144068 87.733535 
L 395.229869 133.801174 
L 396.31567 130.54323 
L 397.401472 93.614737 
L 398.487273 93.775697 
L 398.487273 93.775697 
" style="fill:none;stroke:#ff0000;stroke-linecap:square;stroke-width:1.5;"/>
   </g>
   <g id="patch_3">
    <path d="M 57.6 307.584 
L 57.6 41.472 
" style="fill:none;stroke:#000000;stroke-linecap:square;stroke-linejoin:miter;stroke-width:0.8;"/>
   </g>
   <g id="patch_4">
    <path d="M 414.72 307.584 
L 414.72 41.472 
" style="fill:none;stroke:#000000;stroke-linecap:square;stroke-linejoin:miter;stroke-width:0.8;"/>
   </g>
   <g id="patch_5">
    <path d="M 57.6 307.584 
L 414.72 307.584 
" style="fill:none;stroke:#000000;stroke-linecap:square;stroke-linejoin:miter;stroke-width:0.8;"/>
   </g>
   <g id="patch_6">
    <path d="M 57.6 41.472 
L 414.72 41.472 
" style="fill:none;stroke:#000000;stroke-linecap:square;stroke-linejoin:miter;stroke-width:0.8;"/>
   </g>
   <g id="text_18">
    <!-- Population's average and best fitness -->
    <defs>
     <path d="M 19.671875 64.796875 
L 19.671875 37.40625 
L 32.078125 37.40625 
Q 38.96875 37.40625 42.71875 40.96875 
Q 46.484375 44.53125 46.484375 51.125 
Q 46.484375 57.671875 42.71875 61.234375 
Q 38.96875 64.796875 32.078125 64.796875 
z
M 9.8125 72.90625 
L 32.078125 72.90625 
Q 44.34375 72.90625 50.609375 67.359375 
Q 56.890625 61.8125 56.890625 51.125 
Q 56.890625 40.328125 50.609375 34.8125 
Q 44.34375 29.296875 32.078125 29.296875 
L 19.671875 29.296875 
L 19.671875 0 
L 9.8125 0 
z
" id="DejaVuSans-80"/>
     <path d="M 18.109375 8.203125 
L 18.109375 -20.796875 
L 9.078125 -20.796875 
L 9.078125 54.6875 
L 18.109375 54.6875 
L 18.109375 46.390625 
Q 20.953125 51.265625 25.265625 53.625 
Q 29.59375 56 35.59375 56 
Q 45.5625 56 51.78125 48.09375 
Q 58.015625 40.1875 58.015625 27.296875 
Q 58.015625 14.40625 51.78125 6.484375 
Q 45.5625 -1.421875 35.59375 -1.421875 
Q 29.59375 -1.421875 25.265625 0.953125 
Q 20.953125 3.328125 18.109375 8.203125 
z
M 48.6875 27.296875 
Q 48.6875 37.203125 44.609375 42.84375 
Q 40.53125 48.484375 33.40625 48.484375 
Q 26.265625 48.484375 22.1875 42.84375 
Q 18.109375 37.203125 18.109375 27.296875 
Q 18.109375 17.390625 22.1875 11.75 
Q 26.265625 6.109375 33.40625 6.109375 
Q 40.53125 6.109375 44.609375 11.75 
Q 48.6875 17.390625 48.6875 27.296875 
z
" id="DejaVuSans-112"/>
     <path d="M 8.5 21.578125 
L 8.5 54.6875 
L 17.484375 54.6875 
L 17.484375 21.921875 
Q 17.484375 14.15625 20.5 10.265625 
Q 23.53125 6.390625 29.59375 6.390625 
Q 36.859375 6.390625 41.078125 11.03125 
Q 45.3125 15.671875 45.3125 23.6875 
L 45.3125 54.6875 
L 54.296875 54.6875 
L 54.296875 0 
L 45.3125 0 
L 45.3125 8.40625 
Q 42.046875 3.421875 37.71875 1 
Q 33.40625 -1.421875 27.6875 -1.421875 
Q 18.265625 -1.421875 13.375 4.4375 
Q 8.5 10.296875 8.5 21.578125 
z
M 31.109375 56 
z
" id="DejaVuSans-117"/>
     <path d="M 9.421875 75.984375 
L 18.40625 75.984375 
L 18.40625 0 
L 9.421875 0 
z
" id="DejaVuSans-108"/>
     <path d="M 17.921875 72.90625 
L 17.921875 45.796875 
L 9.625 45.796875 
L 9.625 72.90625 
z
" id="DejaVuSans-39"/>
     <path id="DejaVuSans-32"/>
     <path d="M 2.984375 54.6875 
L 12.5 54.6875 
L 29.59375 8.796875 
L 46.6875 54.6875 
L 56.203125 54.6875 
L 35.6875 0 
L 23.484375 0 
z
" id="DejaVuSans-118"/>
     <path d="M 45.40625 27.984375 
Q 45.40625 37.75 41.375 43.109375 
Q 37.359375 48.484375 30.078125 48.484375 
Q 22.859375 48.484375 18.828125 43.109375 
Q 14.796875 37.75 14.796875 27.984375 
Q 14.796875 18.265625 18.828125 12.890625 
Q 22.859375 7.515625 30.078125 7.515625 
Q 37.359375 7.515625 41.375 12.890625 
Q 45.40625 18.265625 45.40625 27.984375 
z
M 54.390625 6.78125 
Q 54.390625 -7.171875 48.1875 -13.984375 
Q 42 -20.796875 29.203125 -20.796875 
Q 24.46875 -20.796875 20.265625 -20.09375 
Q 16.0625 -19.390625 12.109375 -17.921875 
L 12.109375 -9.1875 
Q 16.0625 -11.328125 19.921875 -12.34375 
Q 23.78125 -13.375 27.78125 -13.375 
Q 36.625 -13.375 41.015625 -8.765625 
Q 45.40625 -4.15625 45.40625 5.171875 
L 45.40625 9.625 
Q 42.625 4.78125 38.28125 2.390625 
Q 33.9375 0 27.875 0 
Q 17.828125 0 11.671875 7.65625 
Q 5.515625 15.328125 5.515625 27.984375 
Q 5.515625 40.671875 11.671875 48.328125 
Q 17.828125 56 27.875 56 
Q 33.9375 56 38.28125 53.609375 
Q 42.625 51.21875 45.40625 46.390625 
L 45.40625 54.6875 
L 54.390625 54.6875 
z
" id="DejaVuSans-103"/>
     <path d="M 45.40625 46.390625 
L 45.40625 75.984375 
L 54.390625 75.984375 
L 54.390625 0 
L 45.40625 0 
L 45.40625 8.203125 
Q 42.578125 3.328125 38.25 0.953125 
Q 33.9375 -1.421875 27.875 -1.421875 
Q 17.96875 -1.421875 11.734375 6.484375 
Q 5.515625 14.40625 5.515625 27.296875 
Q 5.515625 40.1875 11.734375 48.09375 
Q 17.96875 56 27.875 56 
Q 33.9375 56 38.25 53.625 
Q 42.578125 51.265625 45.40625 46.390625 
z
M 14.796875 27.296875 
Q 14.796875 17.390625 18.875 11.75 
Q 22.953125 6.109375 30.078125 6.109375 
Q 37.203125 6.109375 41.296875 11.75 
Q 45.40625 17.390625 45.40625 27.296875 
Q 45.40625 37.203125 41.296875 42.84375 
Q 37.203125 48.484375 30.078125 48.484375 
Q 22.953125 48.484375 18.875 42.84375 
Q 14.796875 37.203125 14.796875 27.296875 
z
" id="DejaVuSans-100"/>
     <path d="M 48.6875 27.296875 
Q 48.6875 37.203125 44.609375 42.84375 
Q 40.53125 48.484375 33.40625 48.484375 
Q 26.265625 48.484375 22.1875 42.84375 
Q 18.109375 37.203125 18.109375 27.296875 
Q 18.109375 17.390625 22.1875 11.75 
Q 26.265625 6.109375 33.40625 6.109375 
Q 40.53125 6.109375 44.609375 11.75 
Q 48.6875 17.390625 48.6875 27.296875 
z
M 18.109375 46.390625 
Q 20.953125 51.265625 25.265625 53.625 
Q 29.59375 56 35.59375 56 
Q 45.5625 56 51.78125 48.09375 
Q 58.015625 40.1875 58.015625 27.296875 
Q 58.015625 14.40625 51.78125 6.484375 
Q 45.5625 -1.421875 35.59375 -1.421875 
Q 29.59375 -1.421875 25.265625 0.953125 
Q 20.953125 3.328125 18.109375 8.203125 
L 18.109375 0 
L 9.078125 0 
L 9.078125 75.984375 
L 18.109375 75.984375 
z
" id="DejaVuSans-98"/>
     <path d="M 37.109375 75.984375 
L 37.109375 68.5 
L 28.515625 68.5 
Q 23.6875 68.5 21.796875 66.546875 
Q 19.921875 64.59375 19.921875 59.515625 
L 19.921875 54.6875 
L 34.71875 54.6875 
L 34.71875 47.703125 
L 19.921875 47.703125 
L 19.921875 0 
L 10.890625 0 
L 10.890625 47.703125 
L 2.296875 47.703125 
L 2.296875 54.6875 
L 10.890625 54.6875 
L 10.890625 58.5 
Q 10.890625 67.625 15.140625 71.796875 
Q 19.390625 75.984375 28.609375 75.984375 
z
" id="DejaVuSans-102"/>
    </defs>
    <g transform="translate(123.315 35.472)scale(0.12 -0.12)">
     <use xlink:href="#DejaVuSans-80"/>
     <use x="60.255859" xlink:href="#DejaVuSans-111"/>
     <use x="121.4375" xlink:href="#DejaVuSans-112"/>
     <use x="184.914062" xlink:href="#DejaVuSans-117"/>
     <use x="248.292969" xlink:href="#DejaVuSans-108"/>
     <use x="276.076172" xlink:href="#DejaVuSans-97"/>
     <use x="337.355469" xlink:href="#DejaVuSans-116"/>
     <use x="376.564453" xlink:href="#DejaVuSans-105"/>
     <use x="404.347656" xlink:href="#DejaVuSans-111"/>
     <use x="465.529297" xlink:href="#DejaVuSans-110"/>
     <use x="528.908203" xlink:href="#DejaVuSans-39"/>
     <use x="556.398438" xlink:href="#DejaVuSans-115"/>
     <use x="608.498047" xlink:href="#DejaVuSans-32"/>
     <use x="640.285156" xlink:href="#DejaVuSans-97"/>
     <use x="701.564453" xlink:href="#DejaVuSans-118"/>
     <use x="760.744141" xlink:href="#DejaVuSans-101"/>
     <use x="822.267578" xlink:href="#DejaVuSans-114"/>
     <use x="863.380859" xlink:href="#DejaVuSans-97"/>
     <use x="924.660156" xlink:href="#DejaVuSans-103"/>
     <use x="988.136719" xlink:href="#DejaVuSans-101"/>
     <use x="1049.660156" xlink:href="#DejaVuSans-32"/>
     <use x="1081.447266" xlink:href="#DejaVuSans-97"/>
     <use x="1142.726562" xlink:href="#DejaVuSans-110"/>
     <use x="1206.105469" xlink:href="#DejaVuSans-100"/>
     <use x="1269.582031" xlink:href="#DejaVuSans-32"/>
     <use x="1301.369141" xlink:href="#DejaVuSans-98"/>
     <use x="1364.845703" xlink:href="#DejaVuSans-101"/>
     <use x="1426.369141" xlink:href="#DejaVuSans-115"/>
     <use x="1478.46875" xlink:href="#DejaVuSans-116"/>
     <use x="1517.677734" xlink:href="#DejaVuSans-32"/>
     <use x="1549.464844" xlink:href="#DejaVuSans-102"/>
     <use x="1584.669922" xlink:href="#DejaVuSans-105"/>
     <use x="1612.453125" xlink:href="#DejaVuSans-116"/>
     <use x="1651.662109" xlink:href="#DejaVuSans-110"/>
     <use x="1715.041016" xlink:href="#DejaVuSans-101"/>
     <use x="1776.564453" xlink:href="#DejaVuSans-115"/>
     <use x="1828.664062" xlink:href="#DejaVuSans-115"/>
    </g>
   </g>
   <g id="legend_1">
    <g id="patch_7">
     <path d="M 334.779375 302.584 
L 407.72 302.584 
Q 409.72 302.584 409.72 300.584 
L 409.72 242.8715 
Q 409.72 240.8715 407.72 240.8715 
L 334.779375 240.8715 
Q 332.779375 240.8715 332.779375 242.8715 
L 332.779375 300.584 
Q 332.779375 302.584 334.779375 302.584 
z
" style="fill:#ffffff;opacity:0.8;stroke:#cccccc;stroke-linejoin:miter;"/>
    </g>
    <g id="line2d_35">
     <path d="M 336.779375 248.969937 
L 356.779375 248.969937 
" style="fill:none;stroke:#0000ff;stroke-linecap:square;stroke-width:1.5;"/>
    </g>
    <g id="line2d_36"/>
    <g id="text_19">
     <!-- average -->
     <g transform="translate(364.779375 252.469937)scale(0.1 -0.1)">
      <use xlink:href="#DejaVuSans-97"/>
      <use x="61.279297" xlink:href="#DejaVuSans-118"/>
      <use x="120.458984" xlink:href="#DejaVuSans-101"/>
      <use x="181.982422" xlink:href="#DejaVuSans-114"/>
      <use x="223.095703" xlink:href="#DejaVuSans-97"/>
      <use x="284.375" xlink:href="#DejaVuSans-103"/>
      <use x="347.851562" xlink:href="#DejaVuSans-101"/>
     </g>
    </g>
    <g id="line2d_37">
     <path d="M 336.779375 263.648062 
L 356.779375 263.648062 
" style="fill:none;stroke:#008000;stroke-dasharray:9.6,2.4,1.5,2.4;stroke-dashoffset:0;stroke-width:1.5;"/>
    </g>
    <g id="line2d_38"/>
    <g id="text_20">
     <!-- -1 sd -->
     <defs>
      <path d="M 4.890625 31.390625 
L 31.203125 31.390625 
L 31.203125 23.390625 
L 4.890625 23.390625 
z
" id="DejaVuSans-45"/>
     </defs>
     <g transform="translate(364.779375 267.148062)scale(0.1 -0.1)">
      <use xlink:href="#DejaVuSans-45"/>
      <use x="36.083984" xlink:href="#DejaVuSans-49"/>
      <use x="99.707031" xlink:href="#DejaVuSans-32"/>
      <use x="131.494141" xlink:href="#DejaVuSans-115"/>
      <use x="183.59375" xlink:href="#DejaVuSans-100"/>
     </g>
    </g>
    <g id="line2d_39">
     <path d="M 336.779375 278.326187 
L 356.779375 278.326187 
" style="fill:none;stroke:#008000;stroke-dasharray:9.6,2.4,1.5,2.4;stroke-dashoffset:0;stroke-width:1.5;"/>
    </g>
    <g id="line2d_40"/>
    <g id="text_21">
     <!-- +1 sd -->
     <defs>
      <path d="M 46 62.703125 
L 46 35.5 
L 73.1875 35.5 
L 73.1875 27.203125 
L 46 27.203125 
L 46 0 
L 37.796875 0 
L 37.796875 27.203125 
L 10.59375 27.203125 
L 10.59375 35.5 
L 37.796875 35.5 
L 37.796875 62.703125 
z
" id="DejaVuSans-43"/>
     </defs>
     <g transform="translate(364.779375 281.826187)scale(0.1 -0.1)">
      <use xlink:href="#DejaVuSans-43"/>
      <use x="83.789062" xlink:href="#DejaVuSans-49"/>
      <use x="147.412109" xlink:href="#DejaVuSans-32"/>
      <use x="179.199219" xlink:href="#DejaVuSans-115"/>
      <use x="231.298828" xlink:href="#DejaVuSans-100"/>
     </g>
    </g>
    <g id="line2d_41">
     <path d="M 336.779375 293.004312 
L 356.779375 293.004312 
" style="fill:none;stroke:#ff0000;stroke-linecap:square;stroke-width:1.5;"/>
    </g>
    <g id="line2d_42"/>
    <g id="text_22">
     <!-- best -->
     <g transform="translate(364.779375 296.504312)scale(0.1 -0.1)">
      <use xlink:href="#DejaVuSans-98"/>
      <use x="63.476562" xlink:href="#DejaVuSans-101"/>
      <use x="125" xlink:href="#DejaVuSans-115"/>
      <use x="177.099609" xlink:href="#DejaVuSans-116"/>
     </g>
    </g>
   </g>
  </g>
 </g>
 <defs>
  <clipPath id="p1c24fbe43f">
   <rect height="266.112" width="357.12" x="57.6" y="41.472"/>
  </clipPath>
 </defs>
</svg>
