<?xml version="1.0" encoding="utf-8" standalone="no"?>
<!DOCTYPE svg PUBLIC "-//W3C//DTD SVG 1.1//EN"
  "http://www.w3.org/Graphics/SVG/1.1/DTD/svg11.dtd">
<!-- Created with matplotlib (https://matplotlib.org/) -->
<svg height="345.6pt" version="1.1" viewBox="0 0 460.8 345.6" width="460.8pt" xmlns="http://www.w3.org/2000/svg" xmlns:xlink="http://www.w3.org/1999/xlink">
 <defs>
  <style type="text/css">
*{stroke-linecap:butt;stroke-linejoin:round;}
  </style>
 </defs>
 <g id="figure_1">
  <g id="patch_1">
   <path d="M 0 345.6 
L 460.8 345.6 
L 460.8 0 
L 0 0 
z
" style="fill:#ffffff;"/>
  </g>
  <g id="axes_1">
   <g id="patch_2">
    <path d="M 57.6 307.584 
L 414.72 307.584 
L 414.72 41.472 
L 57.6 41.472 
z
" style="fill:#ffffff;"/>
   </g>
   <g id="matplotlib.axis_1">
    <g id="xtick_1">
     <g id="line2d_1">
      <path clip-path="url(#p3504b71454)" d="M 73.832727 307.584 
L 73.832727 41.472 
" style="fill:none;stroke:#b0b0b0;stroke-linecap:square;stroke-width:0.8;"/>
     </g>
     <g id="line2d_2">
      <defs>
       <path d="M 0 0 
L 0 3.5 
" id="m0ba3cc4bd3" style="stroke:#000000;stroke-width:0.8;"/>
      </defs>
      <g>
       <use style="stroke:#000000;stroke-width:0.8;" x="73.832727" xlink:href="#m0ba3cc4bd3" y="307.584"/>
      </g>
     </g>
     <g id="text_1">
      <!-- 0 -->
      <defs>
       <path d="M 31.78125 66.40625 
Q 24.171875 66.40625 20.328125 58.90625 
Q 16.5 51.421875 16.5 36.375 
Q 16.5 21.390625 20.328125 13.890625 
Q 24.171875 6.390625 31.78125 6.390625 
Q 39.453125 6.390625 43.28125 13.890625 
Q 47.125 21.390625 47.125 36.375 
Q 47.125 51.421875 43.28125 58.90625 
Q 39.453125 66.40625 31.78125 66.40625 
z
M 31.78125 74.21875 
Q 44.046875 74.21875 50.515625 64.515625 
Q 56.984375 54.828125 56.984375 36.375 
Q 56.984375 17.96875 50.515625 8.265625 
Q 44.046875 -1.421875 31.78125 -1.421875 
Q 19.53125 -1.421875 13.0625 8.265625 
Q 6.59375 17.96875 6.59375 36.375 
Q 6.59375 54.828125 13.0625 64.515625 
Q 19.53125 74.21875 31.78125 74.21875 
z
" id="DejaVuSans-48"/>
      </defs>
      <g transform="translate(70.651477 322.182437)scale(0.1 -0.1)">
       <use xlink:href="#DejaVuSans-48"/>
      </g>
     </g>
    </g>
    <g id="xtick_2">
     <g id="line2d_3">
      <path clip-path="url(#p3504b71454)" d="M 128.122785 307.584 
L 128.122785 41.472 
" style="fill:none;stroke:#b0b0b0;stroke-linecap:square;stroke-width:0.8;"/>
     </g>
     <g id="line2d_4">
      <g>
       <use style="stroke:#000000;stroke-width:0.8;" x="128.122785" xlink:href="#m0ba3cc4bd3" y="307.584"/>
      </g>
     </g>
     <g id="text_2">
      <!-- 50 -->
      <defs>
       <path d="M 10.796875 72.90625 
L 49.515625 72.90625 
L 49.515625 64.59375 
L 19.828125 64.59375 
L 19.828125 46.734375 
Q 21.96875 47.46875 24.109375 47.828125 
Q 26.265625 48.1875 28.421875 48.1875 
Q 40.625 48.1875 47.75 41.5 
Q 54.890625 34.8125 54.890625 23.390625 
Q 54.890625 11.625 47.5625 5.09375 
Q 40.234375 -1.421875 26.90625 -1.421875 
Q 22.3125 -1.421875 17.546875 -0.640625 
Q 12.796875 0.140625 7.71875 1.703125 
L 7.71875 11.625 
Q 12.109375 9.234375 16.796875 8.0625 
Q 21.484375 6.890625 26.703125 6.890625 
Q 35.15625 6.890625 40.078125 11.328125 
Q 45.015625 15.765625 45.015625 23.390625 
Q 45.015625 31 40.078125 35.4375 
Q 35.15625 39.890625 26.703125 39.890625 
Q 22.75 39.890625 18.8125 39.015625 
Q 14.890625 38.140625 10.796875 36.28125 
z
" id="DejaVuSans-53"/>
      </defs>
      <g transform="translate(121.760285 322.182437)scale(0.1 -0.1)">
       <use xlink:href="#DejaVuSans-53"/>
       <use x="63.623047" xlink:href="#DejaVuSans-48"/>
      </g>
     </g>
    </g>
    <g id="xtick_3">
     <g id="line2d_5">
      <path clip-path="url(#p3504b71454)" d="M 182.412843 307.584 
L 182.412843 41.472 
" style="fill:none;stroke:#b0b0b0;stroke-linecap:square;stroke-width:0.8;"/>
     </g>
     <g id="line2d_6">
      <g>
       <use style="stroke:#000000;stroke-width:0.8;" x="182.412843" xlink:href="#m0ba3cc4bd3" y="307.584"/>
      </g>
     </g>
     <g id="text_3">
      <!-- 100 -->
      <defs>
       <path d="M 12.40625 8.296875 
L 28.515625 8.296875 
L 28.515625 63.921875 
L 10.984375 60.40625 
L 10.984375 69.390625 
L 28.421875 72.90625 
L 38.28125 72.90625 
L 38.28125 8.296875 
L 54.390625 8.296875 
L 54.390625 0 
L 12.40625 0 
z
" id="DejaVuSans-49"/>
      </defs>
      <g transform="translate(172.869093 322.182437)scale(0.1 -0.1)">
       <use xlink:href="#DejaVuSans-49"/>
       <use x="63.623047" xlink:href="#DejaVuSans-48"/>
       <use x="127.246094" xlink:href="#DejaVuSans-48"/>
      </g>
     </g>
    </g>
    <g id="xtick_4">
     <g id="line2d_7">
      <path clip-path="url(#p3504b71454)" d="M 236.702901 307.584 
L 236.702901 41.472 
" style="fill:none;stroke:#b0b0b0;stroke-linecap:square;stroke-width:0.8;"/>
     </g>
     <g id="line2d_8">
      <g>
       <use style="stroke:#000000;stroke-width:0.8;" x="236.702901" xlink:href="#m0ba3cc4bd3" y="307.584"/>
      </g>
     </g>
     <g id="text_4">
      <!-- 150 -->
      <g transform="translate(227.159151 322.182437)scale(0.1 -0.1)">
       <use xlink:href="#DejaVuSans-49"/>
       <use x="63.623047" xlink:href="#DejaVuSans-53"/>
       <use x="127.246094" xlink:href="#DejaVuSans-48"/>
      </g>
     </g>
    </g>
    <g id="xtick_5">
     <g id="line2d_9">
      <path clip-path="url(#p3504b71454)" d="M 290.992958 307.584 
L 290.992958 41.472 
" style="fill:none;stroke:#b0b0b0;stroke-linecap:square;stroke-width:0.8;"/>
     </g>
     <g id="line2d_10">
      <g>
       <use style="stroke:#000000;stroke-width:0.8;" x="290.992958" xlink:href="#m0ba3cc4bd3" y="307.584"/>
      </g>
     </g>
     <g id="text_5">
      <!-- 200 -->
      <defs>
       <path d="M 19.1875 8.296875 
L 53.609375 8.296875 
L 53.609375 0 
L 7.328125 0 
L 7.328125 8.296875 
Q 12.9375 14.109375 22.625 23.890625 
Q 32.328125 33.6875 34.8125 36.53125 
Q 39.546875 41.84375 41.421875 45.53125 
Q 43.3125 49.21875 43.3125 52.78125 
Q 43.3125 58.59375 39.234375 62.25 
Q 35.15625 65.921875 28.609375 65.921875 
Q 23.96875 65.921875 18.8125 64.3125 
Q 13.671875 62.703125 7.8125 59.421875 
L 7.8125 69.390625 
Q 13.765625 71.78125 18.9375 73 
Q 24.125 74.21875 28.421875 74.21875 
Q 39.75 74.21875 46.484375 68.546875 
Q 53.21875 62.890625 53.21875 53.421875 
Q 53.21875 48.921875 51.53125 44.890625 
Q 49.859375 40.875 45.40625 35.40625 
Q 44.1875 33.984375 37.640625 27.21875 
Q 31.109375 20.453125 19.1875 8.296875 
z
" id="DejaVuSans-50"/>
      </defs>
      <g transform="translate(281.449208 322.182437)scale(0.1 -0.1)">
       <use xlink:href="#DejaVuSans-50"/>
       <use x="63.623047" xlink:href="#DejaVuSans-48"/>
       <use x="127.246094" xlink:href="#DejaVuSans-48"/>
      </g>
     </g>
    </g>
    <g id="xtick_6">
     <g id="line2d_11">
      <path clip-path="url(#p3504b71454)" d="M 345.283016 307.584 
L 345.283016 41.472 
" style="fill:none;stroke:#b0b0b0;stroke-linecap:square;stroke-width:0.8;"/>
     </g>
     <g id="line2d_12">
      <g>
       <use style="stroke:#000000;stroke-width:0.8;" x="345.283016" xlink:href="#m0ba3cc4bd3" y="307.584"/>
      </g>
     </g>
     <g id="text_6">
      <!-- 250 -->
      <g transform="translate(335.739266 322.182437)scale(0.1 -0.1)">
       <use xlink:href="#DejaVuSans-50"/>
       <use x="63.623047" xlink:href="#DejaVuSans-53"/>
       <use x="127.246094" xlink:href="#DejaVuSans-48"/>
      </g>
     </g>
    </g>
    <g id="xtick_7">
     <g id="line2d_13">
      <path clip-path="url(#p3504b71454)" d="M 399.573074 307.584 
L 399.573074 41.472 
" style="fill:none;stroke:#b0b0b0;stroke-linecap:square;stroke-width:0.8;"/>
     </g>
     <g id="line2d_14">
      <g>
       <use style="stroke:#000000;stroke-width:0.8;" x="399.573074" xlink:href="#m0ba3cc4bd3" y="307.584"/>
      </g>
     </g>
     <g id="text_7">
      <!-- 300 -->
      <defs>
       <path d="M 40.578125 39.3125 
Q 47.65625 37.796875 51.625 33 
Q 55.609375 28.21875 55.609375 21.1875 
Q 55.609375 10.40625 48.1875 4.484375 
Q 40.765625 -1.421875 27.09375 -1.421875 
Q 22.515625 -1.421875 17.65625 -0.515625 
Q 12.796875 0.390625 7.625 2.203125 
L 7.625 11.71875 
Q 11.71875 9.328125 16.59375 8.109375 
Q 21.484375 6.890625 26.8125 6.890625 
Q 36.078125 6.890625 40.9375 10.546875 
Q 45.796875 14.203125 45.796875 21.1875 
Q 45.796875 27.640625 41.28125 31.265625 
Q 36.765625 34.90625 28.71875 34.90625 
L 20.21875 34.90625 
L 20.21875 43.015625 
L 29.109375 43.015625 
Q 36.375 43.015625 40.234375 45.921875 
Q 44.09375 48.828125 44.09375 54.296875 
Q 44.09375 59.90625 40.109375 62.90625 
Q 36.140625 65.921875 28.71875 65.921875 
Q 24.65625 65.921875 20.015625 65.03125 
Q 15.375 64.15625 9.8125 62.3125 
L 9.8125 71.09375 
Q 15.4375 72.65625 20.34375 73.4375 
Q 25.25 74.21875 29.59375 74.21875 
Q 40.828125 74.21875 47.359375 69.109375 
Q 53.90625 64.015625 53.90625 55.328125 
Q 53.90625 49.265625 50.4375 45.09375 
Q 46.96875 40.921875 40.578125 39.3125 
z
" id="DejaVuSans-51"/>
      </defs>
      <g transform="translate(390.029324 322.182437)scale(0.1 -0.1)">
       <use xlink:href="#DejaVuSans-51"/>
       <use x="63.623047" xlink:href="#DejaVuSans-48"/>
       <use x="127.246094" xlink:href="#DejaVuSans-48"/>
      </g>
     </g>
    </g>
    <g id="text_8">
     <!-- Generations -->
     <defs>
      <path d="M 59.515625 10.40625 
L 59.515625 29.984375 
L 43.40625 29.984375 
L 43.40625 38.09375 
L 69.28125 38.09375 
L 69.28125 6.78125 
Q 63.578125 2.734375 56.6875 0.65625 
Q 49.8125 -1.421875 42 -1.421875 
Q 24.90625 -1.421875 15.25 8.5625 
Q 5.609375 18.5625 5.609375 36.375 
Q 5.609375 54.25 15.25 64.234375 
Q 24.90625 74.21875 42 74.21875 
Q 49.125 74.21875 55.546875 72.453125 
Q 61.96875 70.703125 67.390625 67.28125 
L 67.390625 56.78125 
Q 61.921875 61.421875 55.765625 63.765625 
Q 49.609375 66.109375 42.828125 66.109375 
Q 29.4375 66.109375 22.71875 58.640625 
Q 16.015625 51.171875 16.015625 36.375 
Q 16.015625 21.625 22.71875 14.15625 
Q 29.4375 6.6875 42.828125 6.6875 
Q 48.046875 6.6875 52.140625 7.59375 
Q 56.25 8.5 59.515625 10.40625 
z
" id="DejaVuSans-71"/>
      <path d="M 56.203125 29.59375 
L 56.203125 25.203125 
L 14.890625 25.203125 
Q 15.484375 15.921875 20.484375 11.0625 
Q 25.484375 6.203125 34.421875 6.203125 
Q 39.59375 6.203125 44.453125 7.46875 
Q 49.3125 8.734375 54.109375 11.28125 
L 54.109375 2.78125 
Q 49.265625 0.734375 44.1875 -0.34375 
Q 39.109375 -1.421875 33.890625 -1.421875 
Q 20.796875 -1.421875 13.15625 6.1875 
Q 5.515625 13.8125 5.515625 26.8125 
Q 5.515625 40.234375 12.765625 48.109375 
Q 20.015625 56 32.328125 56 
Q 43.359375 56 49.78125 48.890625 
Q 56.203125 41.796875 56.203125 29.59375 
z
M 47.21875 32.234375 
Q 47.125 39.59375 43.09375 43.984375 
Q 39.0625 48.390625 32.421875 48.390625 
Q 24.90625 48.390625 20.390625 44.140625 
Q 15.875 39.890625 15.1875 32.171875 
z
" id="DejaVuSans-101"/>
      <path d="M 54.890625 33.015625 
L 54.890625 0 
L 45.90625 0 
L 45.90625 32.71875 
Q 45.90625 40.484375 42.875 44.328125 
Q 39.84375 48.1875 33.796875 48.1875 
Q 26.515625 48.1875 22.3125 43.546875 
Q 18.109375 38.921875 18.109375 30.90625 
L 18.109375 0 
L 9.078125 0 
L 9.078125 54.6875 
L 18.109375 54.6875 
L 18.109375 46.1875 
Q 21.34375 51.125 25.703125 53.5625 
Q 30.078125 56 35.796875 56 
Q 45.21875 56 50.046875 50.171875 
Q 54.890625 44.34375 54.890625 33.015625 
z
" id="DejaVuSans-110"/>
      <path d="M 41.109375 46.296875 
Q 39.59375 47.171875 37.8125 47.578125 
Q 36.03125 48 33.890625 48 
Q 26.265625 48 22.1875 43.046875 
Q 18.109375 38.09375 18.109375 28.8125 
L 18.109375 0 
L 9.078125 0 
L 9.078125 54.6875 
L 18.109375 54.6875 
L 18.109375 46.1875 
Q 20.953125 51.171875 25.484375 53.578125 
Q 30.03125 56 36.53125 56 
Q 37.453125 56 38.578125 55.875 
Q 39.703125 55.765625 41.0625 55.515625 
z
" id="DejaVuSans-114"/>
      <path d="M 34.28125 27.484375 
Q 23.390625 27.484375 19.1875 25 
Q 14.984375 22.515625 14.984375 16.5 
Q 14.984375 11.71875 18.140625 8.90625 
Q 21.296875 6.109375 26.703125 6.109375 
Q 34.1875 6.109375 38.703125 11.40625 
Q 43.21875 16.703125 43.21875 25.484375 
L 43.21875 27.484375 
z
M 52.203125 31.203125 
L 52.203125 0 
L 43.21875 0 
L 43.21875 8.296875 
Q 40.140625 3.328125 35.546875 0.953125 
Q 30.953125 -1.421875 24.3125 -1.421875 
Q 15.921875 -1.421875 10.953125 3.296875 
Q 6 8.015625 6 15.921875 
Q 6 25.140625 12.171875 29.828125 
Q 18.359375 34.515625 30.609375 34.515625 
L 43.21875 34.515625 
L 43.21875 35.40625 
Q 43.21875 41.609375 39.140625 45 
Q 35.0625 48.390625 27.6875 48.390625 
Q 23 48.390625 18.546875 47.265625 
Q 14.109375 46.140625 10.015625 43.890625 
L 10.015625 52.203125 
Q 14.9375 54.109375 19.578125 55.046875 
Q 24.21875 56 28.609375 56 
Q 40.484375 56 46.34375 49.84375 
Q 52.203125 43.703125 52.203125 31.203125 
z
" id="DejaVuSans-97"/>
      <path d="M 18.3125 70.21875 
L 18.3125 54.6875 
L 36.8125 54.6875 
L 36.8125 47.703125 
L 18.3125 47.703125 
L 18.3125 18.015625 
Q 18.3125 11.328125 20.140625 9.421875 
Q 21.96875 7.515625 27.59375 7.515625 
L 36.8125 7.515625 
L 36.8125 0 
L 27.59375 0 
Q 17.1875 0 13.234375 3.875 
Q 9.28125 7.765625 9.28125 18.015625 
L 9.28125 47.703125 
L 2.6875 47.703125 
L 2.6875 54.6875 
L 9.28125 54.6875 
L 9.28125 70.21875 
z
" id="DejaVuSans-116"/>
      <path d="M 9.421875 54.6875 
L 18.40625 54.6875 
L 18.40625 0 
L 9.421875 0 
z
M 9.421875 75.984375 
L 18.40625 75.984375 
L 18.40625 64.59375 
L 9.421875 64.59375 
z
" id="DejaVuSans-105"/>
      <path d="M 30.609375 48.390625 
Q 23.390625 48.390625 19.1875 42.75 
Q 14.984375 37.109375 14.984375 27.296875 
Q 14.984375 17.484375 19.15625 11.84375 
Q 23.34375 6.203125 30.609375 6.203125 
Q 37.796875 6.203125 41.984375 11.859375 
Q 46.1875 17.53125 46.1875 27.296875 
Q 46.1875 37.015625 41.984375 42.703125 
Q 37.796875 48.390625 30.609375 48.390625 
z
M 30.609375 56 
Q 42.328125 56 49.015625 48.375 
Q 55.71875 40.765625 55.71875 27.296875 
Q 55.71875 13.875 49.015625 6.21875 
Q 42.328125 -1.421875 30.609375 -1.421875 
Q 18.84375 -1.421875 12.171875 6.21875 
Q 5.515625 13.875 5.515625 27.296875 
Q 5.515625 40.765625 12.171875 48.375 
Q 18.84375 56 30.609375 56 
z
" id="DejaVuSans-111"/>
      <path d="M 44.28125 53.078125 
L 44.28125 44.578125 
Q 40.484375 46.53125 36.375 47.5 
Q 32.28125 48.484375 27.875 48.484375 
Q 21.1875 48.484375 17.84375 46.4375 
Q 14.5 44.390625 14.5 40.28125 
Q 14.5 37.15625 16.890625 35.375 
Q 19.28125 33.59375 26.515625 31.984375 
L 29.59375 31.296875 
Q 39.15625 29.25 43.1875 25.515625 
Q 47.21875 21.78125 47.21875 15.09375 
Q 47.21875 7.46875 41.1875 3.015625 
Q 35.15625 -1.421875 24.609375 -1.421875 
Q 20.21875 -1.421875 15.453125 -0.5625 
Q 10.6875 0.296875 5.421875 2 
L 5.421875 11.28125 
Q 10.40625 8.6875 15.234375 7.390625 
Q 20.0625 6.109375 24.8125 6.109375 
Q 31.15625 6.109375 34.5625 8.28125 
Q 37.984375 10.453125 37.984375 14.40625 
Q 37.984375 18.0625 35.515625 20.015625 
Q 33.0625 21.96875 24.703125 23.78125 
L 21.578125 24.515625 
Q 13.234375 26.265625 9.515625 29.90625 
Q 5.8125 33.546875 5.8125 39.890625 
Q 5.8125 47.609375 11.28125 51.796875 
Q 16.75 56 26.8125 56 
Q 31.78125 56 36.171875 55.265625 
Q 40.578125 54.546875 44.28125 53.078125 
z
" id="DejaVuSans-115"/>
     </defs>
     <g transform="translate(205.662344 335.860562)scale(0.1 -0.1)">
      <use xlink:href="#DejaVuSans-71"/>
      <use x="77.490234" xlink:href="#DejaVuSans-101"/>
      <use x="139.013672" xlink:href="#DejaVuSans-110"/>
      <use x="202.392578" xlink:href="#DejaVuSans-101"/>
      <use x="263.916016" xlink:href="#DejaVuSans-114"/>
      <use x="305.029297" xlink:href="#DejaVuSans-97"/>
      <use x="366.308594" xlink:href="#DejaVuSans-116"/>
      <use x="405.517578" xlink:href="#DejaVuSans-105"/>
      <use x="433.300781" xlink:href="#DejaVuSans-111"/>
      <use x="494.482422" xlink:href="#DejaVuSans-110"/>
      <use x="557.861328" xlink:href="#DejaVuSans-115"/>
     </g>
    </g>
   </g>
   <g id="matplotlib.axis_2">
    <g id="ytick_1">
     <g id="line2d_15">
      <path clip-path="url(#p3504b71454)" d="M 57.6 289.076055 
L 414.72 289.076055 
" style="fill:none;stroke:#b0b0b0;stroke-linecap:square;stroke-width:0.8;"/>
     </g>
     <g id="line2d_16">
      <defs>
       <path d="M 0 0 
L -3.5 0 
" id="mfdd53297c3" style="stroke:#000000;stroke-width:0.8;"/>
      </defs>
      <g>
       <use style="stroke:#000000;stroke-width:0.8;" x="57.6" xlink:href="#mfdd53297c3" y="289.076055"/>
      </g>
     </g>
     <g id="text_9">
      <!-- 600 -->
      <defs>
       <path d="M 33.015625 40.375 
Q 26.375 40.375 22.484375 35.828125 
Q 18.609375 31.296875 18.609375 23.390625 
Q 18.609375 15.53125 22.484375 10.953125 
Q 26.375 6.390625 33.015625 6.390625 
Q 39.65625 6.390625 43.53125 10.953125 
Q 47.40625 15.53125 47.40625 23.390625 
Q 47.40625 31.296875 43.53125 35.828125 
Q 39.65625 40.375 33.015625 40.375 
z
M 52.59375 71.296875 
L 52.59375 62.3125 
Q 48.875 64.0625 45.09375 64.984375 
Q 41.3125 65.921875 37.59375 65.921875 
Q 27.828125 65.921875 22.671875 59.328125 
Q 17.53125 52.734375 16.796875 39.40625 
Q 19.671875 43.65625 24.015625 45.921875 
Q 28.375 48.1875 33.59375 48.1875 
Q 44.578125 48.1875 50.953125 41.515625 
Q 57.328125 34.859375 57.328125 23.390625 
Q 57.328125 12.15625 50.6875 5.359375 
Q 44.046875 -1.421875 33.015625 -1.421875 
Q 20.359375 -1.421875 13.671875 8.265625 
Q 6.984375 17.96875 6.984375 36.375 
Q 6.984375 53.65625 15.1875 63.9375 
Q 23.390625 74.21875 37.203125 74.21875 
Q 40.921875 74.21875 44.703125 73.484375 
Q 48.484375 72.75 52.59375 71.296875 
z
" id="DejaVuSans-54"/>
      </defs>
      <g transform="translate(31.5125 292.875274)scale(0.1 -0.1)">
       <use xlink:href="#DejaVuSans-54"/>
       <use x="63.623047" xlink:href="#DejaVuSans-48"/>
       <use x="127.246094" xlink:href="#DejaVuSans-48"/>
      </g>
     </g>
    </g>
    <g id="ytick_2">
     <g id="line2d_17">
      <path clip-path="url(#p3504b71454)" d="M 57.6 254.621655 
L 414.72 254.621655 
" style="fill:none;stroke:#b0b0b0;stroke-linecap:square;stroke-width:0.8;"/>
     </g>
     <g id="line2d_18">
      <g>
       <use style="stroke:#000000;stroke-width:0.8;" x="57.6" xlink:href="#mfdd53297c3" y="254.621655"/>
      </g>
     </g>
     <g id="text_10">
      <!-- 800 -->
      <defs>
       <path d="M 31.78125 34.625 
Q 24.75 34.625 20.71875 30.859375 
Q 16.703125 27.09375 16.703125 20.515625 
Q 16.703125 13.921875 20.71875 10.15625 
Q 24.75 6.390625 31.78125 6.390625 
Q 38.8125 6.390625 42.859375 10.171875 
Q 46.921875 13.96875 46.921875 20.515625 
Q 46.921875 27.09375 42.890625 30.859375 
Q 38.875 34.625 31.78125 34.625 
z
M 21.921875 38.8125 
Q 15.578125 40.375 12.03125 44.71875 
Q 8.5 49.078125 8.5 55.328125 
Q 8.5 64.0625 14.71875 69.140625 
Q 20.953125 74.21875 31.78125 74.21875 
Q 42.671875 74.21875 48.875 69.140625 
Q 55.078125 64.0625 55.078125 55.328125 
Q 55.078125 49.078125 51.53125 44.71875 
Q 48 40.375 41.703125 38.8125 
Q 48.828125 37.15625 52.796875 32.3125 
Q 56.78125 27.484375 56.78125 20.515625 
Q 56.78125 9.90625 50.3125 4.234375 
Q 43.84375 -1.421875 31.78125 -1.421875 
Q 19.734375 -1.421875 13.25 4.234375 
Q 6.78125 9.90625 6.78125 20.515625 
Q 6.78125 27.484375 10.78125 32.3125 
Q 14.796875 37.15625 21.921875 38.8125 
z
M 18.3125 54.390625 
Q 18.3125 48.734375 21.84375 45.5625 
Q 25.390625 42.390625 31.78125 42.390625 
Q 38.140625 42.390625 41.71875 45.5625 
Q 45.3125 48.734375 45.3125 54.390625 
Q 45.3125 60.0625 41.71875 63.234375 
Q 38.140625 66.40625 31.78125 66.40625 
Q 25.390625 66.40625 21.84375 63.234375 
Q 18.3125 60.0625 18.3125 54.390625 
z
" id="DejaVuSans-56"/>
      </defs>
      <g transform="translate(31.5125 258.420874)scale(0.1 -0.1)">
       <use xlink:href="#DejaVuSans-56"/>
       <use x="63.623047" xlink:href="#DejaVuSans-48"/>
       <use x="127.246094" xlink:href="#DejaVuSans-48"/>
      </g>
     </g>
    </g>
    <g id="ytick_3">
     <g id="line2d_19">
      <path clip-path="url(#p3504b71454)" d="M 57.6 220.167255 
L 414.72 220.167255 
" style="fill:none;stroke:#b0b0b0;stroke-linecap:square;stroke-width:0.8;"/>
     </g>
     <g id="line2d_20">
      <g>
       <use style="stroke:#000000;stroke-width:0.8;" x="57.6" xlink:href="#mfdd53297c3" y="220.167255"/>
      </g>
     </g>
     <g id="text_11">
      <!-- 1000 -->
      <g transform="translate(25.15 223.966474)scale(0.1 -0.1)">
       <use xlink:href="#DejaVuSans-49"/>
       <use x="63.623047" xlink:href="#DejaVuSans-48"/>
       <use x="127.246094" xlink:href="#DejaVuSans-48"/>
       <use x="190.869141" xlink:href="#DejaVuSans-48"/>
      </g>
     </g>
    </g>
    <g id="ytick_4">
     <g id="line2d_21">
      <path clip-path="url(#p3504b71454)" d="M 57.6 185.712855 
L 414.72 185.712855 
" style="fill:none;stroke:#b0b0b0;stroke-linecap:square;stroke-width:0.8;"/>
     </g>
     <g id="line2d_22">
      <g>
       <use style="stroke:#000000;stroke-width:0.8;" x="57.6" xlink:href="#mfdd53297c3" y="185.712855"/>
      </g>
     </g>
     <g id="text_12">
      <!-- 1200 -->
      <g transform="translate(25.15 189.512074)scale(0.1 -0.1)">
       <use xlink:href="#DejaVuSans-49"/>
       <use x="63.623047" xlink:href="#DejaVuSans-50"/>
       <use x="127.246094" xlink:href="#DejaVuSans-48"/>
       <use x="190.869141" xlink:href="#DejaVuSans-48"/>
      </g>
     </g>
    </g>
    <g id="ytick_5">
     <g id="line2d_23">
      <path clip-path="url(#p3504b71454)" d="M 57.6 151.258455 
L 414.72 151.258455 
" style="fill:none;stroke:#b0b0b0;stroke-linecap:square;stroke-width:0.8;"/>
     </g>
     <g id="line2d_24">
      <g>
       <use style="stroke:#000000;stroke-width:0.8;" x="57.6" xlink:href="#mfdd53297c3" y="151.258455"/>
      </g>
     </g>
     <g id="text_13">
      <!-- 1400 -->
      <defs>
       <path d="M 37.796875 64.3125 
L 12.890625 25.390625 
L 37.796875 25.390625 
z
M 35.203125 72.90625 
L 47.609375 72.90625 
L 47.609375 25.390625 
L 58.015625 25.390625 
L 58.015625 17.1875 
L 47.609375 17.1875 
L 47.609375 0 
L 37.796875 0 
L 37.796875 17.1875 
L 4.890625 17.1875 
L 4.890625 26.703125 
z
" id="DejaVuSans-52"/>
      </defs>
      <g transform="translate(25.15 155.057673)scale(0.1 -0.1)">
       <use xlink:href="#DejaVuSans-49"/>
       <use x="63.623047" xlink:href="#DejaVuSans-52"/>
       <use x="127.246094" xlink:href="#DejaVuSans-48"/>
       <use x="190.869141" xlink:href="#DejaVuSans-48"/>
      </g>
     </g>
    </g>
    <g id="ytick_6">
     <g id="line2d_25">
      <path clip-path="url(#p3504b71454)" d="M 57.6 116.804055 
L 414.72 116.804055 
" style="fill:none;stroke:#b0b0b0;stroke-linecap:square;stroke-width:0.8;"/>
     </g>
     <g id="line2d_26">
      <g>
       <use style="stroke:#000000;stroke-width:0.8;" x="57.6" xlink:href="#mfdd53297c3" y="116.804055"/>
      </g>
     </g>
     <g id="text_14">
      <!-- 1600 -->
      <g transform="translate(25.15 120.603273)scale(0.1 -0.1)">
       <use xlink:href="#DejaVuSans-49"/>
       <use x="63.623047" xlink:href="#DejaVuSans-54"/>
       <use x="127.246094" xlink:href="#DejaVuSans-48"/>
       <use x="190.869141" xlink:href="#DejaVuSans-48"/>
      </g>
     </g>
    </g>
    <g id="ytick_7">
     <g id="line2d_27">
      <path clip-path="url(#p3504b71454)" d="M 57.6 82.349655 
L 414.72 82.349655 
" style="fill:none;stroke:#b0b0b0;stroke-linecap:square;stroke-width:0.8;"/>
     </g>
     <g id="line2d_28">
      <g>
       <use style="stroke:#000000;stroke-width:0.8;" x="57.6" xlink:href="#mfdd53297c3" y="82.349655"/>
      </g>
     </g>
     <g id="text_15">
      <!-- 1800 -->
      <g transform="translate(25.15 86.148873)scale(0.1 -0.1)">
       <use xlink:href="#DejaVuSans-49"/>
       <use x="63.623047" xlink:href="#DejaVuSans-56"/>
       <use x="127.246094" xlink:href="#DejaVuSans-48"/>
       <use x="190.869141" xlink:href="#DejaVuSans-48"/>
      </g>
     </g>
    </g>
    <g id="ytick_8">
     <g id="line2d_29">
      <path clip-path="url(#p3504b71454)" d="M 57.6 47.895255 
L 414.72 47.895255 
" style="fill:none;stroke:#b0b0b0;stroke-linecap:square;stroke-width:0.8;"/>
     </g>
     <g id="line2d_30">
      <g>
       <use style="stroke:#000000;stroke-width:0.8;" x="57.6" xlink:href="#mfdd53297c3" y="47.895255"/>
      </g>
     </g>
     <g id="text_16">
      <!-- 2000 -->
      <g transform="translate(25.15 51.694473)scale(0.1 -0.1)">
       <use xlink:href="#DejaVuSans-50"/>
       <use x="63.623047" xlink:href="#DejaVuSans-48"/>
       <use x="127.246094" xlink:href="#DejaVuSans-48"/>
       <use x="190.869141" xlink:href="#DejaVuSans-48"/>
      </g>
     </g>
    </g>
    <g id="text_17">
     <!-- Fitness -->
     <defs>
      <path d="M 9.8125 72.90625 
L 51.703125 72.90625 
L 51.703125 64.59375 
L 19.671875 64.59375 
L 19.671875 43.109375 
L 48.578125 43.109375 
L 48.578125 34.8125 
L 19.671875 34.8125 
L 19.671875 0 
L 9.8125 0 
z
" id="DejaVuSans-70"/>
     </defs>
     <g transform="translate(19.070312 192.202219)rotate(-90)scale(0.1 -0.1)">
      <use xlink:href="#DejaVuSans-70"/>
      <use x="57.410156" xlink:href="#DejaVuSans-105"/>
      <use x="85.193359" xlink:href="#DejaVuSans-116"/>
      <use x="124.402344" xlink:href="#DejaVuSans-110"/>
      <use x="187.78125" xlink:href="#DejaVuSans-101"/>
      <use x="249.304688" xlink:href="#DejaVuSans-115"/>
      <use x="301.404297" xlink:href="#DejaVuSans-115"/>
     </g>
    </g>
   </g>
   <g id="line2d_31">
    <path clip-path="url(#p3504b71454)" d="M 73.832727 290.313902 
L 74.918528 206.640835 
L 76.00433 189.010931 
L 77.090131 206.441286 
L 78.175932 205.806074 
L 79.261733 199.665444 
L 80.347534 225.159102 
L 81.433335 214.352839 
L 82.519137 226.91964 
L 83.604938 210.042955 
L 84.690739 223.190975 
L 85.77654 196.046453 
L 86.862341 186.529857 
L 87.948142 189.921543 
L 89.033943 189.77099 
L 90.119745 191.893399 
L 91.205546 210.02853 
L 92.291347 207.707919 
L 93.377148 186.454808 
L 94.462949 173.0527 
L 95.54875 203.071813 
L 96.634552 208.183178 
L 97.720353 193.823691 
L 98.806154 195.347939 
L 99.891955 209.275352 
L 100.977756 216.0709 
L 102.063557 193.647775 
L 103.149358 201.466623 
L 104.23516 207.667257 
L 105.320961 168.374601 
L 106.406762 196.451299 
L 107.492563 176.012402 
L 108.578364 186.678417 
L 109.664165 194.545423 
L 110.749967 158.135931 
L 111.835768 155.104984 
L 112.921569 162.099125 
L 114.00737 160.513614 
L 115.093171 166.201657 
L 116.178972 139.741748 
L 117.264773 149.561643 
L 118.350575 147.467741 
L 119.436376 146.907245 
L 120.522177 145.749725 
L 121.607978 152.76518 
L 122.693779 165.873598 
L 123.77958 137.119283 
L 124.865382 132.043713 
L 125.951183 132.288357 
L 127.036984 137.58804 
L 128.122785 122.324221 
L 129.208586 118.008625 
L 130.294387 125.549402 
L 131.380189 120.722466 
L 132.46599 139.927842 
L 133.551791 133.971292 
L 134.637592 127.178264 
L 135.723393 143.616917 
L 136.809194 127.817336 
L 137.894995 119.433965 
L 138.980797 108.471604 
L 140.066598 109.047834 
L 141.152399 125.203767 
L 142.2382 115.044052 
L 143.324001 124.984344 
L 144.409802 127.438647 
L 145.495604 121.67145 
L 146.581405 116.89232 
L 147.667206 110.918559 
L 148.753007 117.091096 
L 149.838808 114.697763 
L 150.924609 116.575 
L 152.01041 133.425515 
L 153.096212 136.012303 
L 154.182013 120.520685 
L 155.267814 123.862323 
L 156.353615 131.040927 
L 157.439416 110.060409 
L 158.525217 132.245508 
L 159.611019 121.174269 
L 160.69682 119.433971 
L 161.782621 133.717131 
L 162.868422 130.499233 
L 163.954223 137.734857 
L 165.040024 147.152015 
L 166.125825 119.202437 
L 167.211627 137.514504 
L 168.297428 161.883844 
L 169.383229 136.303788 
L 170.46903 128.278969 
L 171.554831 119.164089 
L 172.640632 117.841109 
L 173.726434 110.693089 
L 174.812235 112.588771 
L 175.898036 104.634505 
L 176.983837 115.900246 
L 178.069638 131.088663 
L 179.155439 126.288903 
L 180.24124 141.456893 
L 181.327042 107.560356 
L 182.412843 119.835117 
L 183.498644 134.320569 
L 184.584445 110.973867 
L 185.670246 114.748051 
L 186.756047 109.059295 
L 187.841849 119.945197 
L 188.92765 127.157778 
L 190.013451 105.993949 
L 191.099252 103.582613 
L 192.185053 127.442048 
L 193.270854 110.724512 
L 194.356656 107.132899 
L 195.442457 117.633377 
L 196.528258 117.622564 
L 197.614059 121.776159 
L 198.69986 116.983465 
L 199.785661 140.462061 
L 200.871462 150.499801 
L 201.957264 122.360166 
L 203.043065 129.91499 
L 204.128866 164.370549 
L 205.214667 149.064469 
L 206.300468 117.543585 
L 207.386269 113.400784 
L 208.472071 110.106919 
L 209.557872 92.23049 
L 210.643673 127.517857 
L 211.729474 117.843293 
L 212.815275 126.851368 
L 213.901076 112.102496 
L 214.986877 119.387795 
L 216.072679 113.013833 
L 217.15848 120.623934 
L 218.244281 123.962989 
L 219.330082 121.364152 
L 220.415883 127.968361 
L 221.501684 113.812319 
L 222.587486 139.488376 
L 223.673287 137.901978 
L 224.759088 113.1791 
L 225.844889 95.183889 
L 226.93069 115.511735 
L 228.016491 124.507224 
L 229.102292 127.218508 
L 230.188094 132.244203 
L 231.273895 116.8369 
L 232.359696 124.26379 
L 233.445497 121.996133 
L 234.531298 110.356093 
L 235.617099 96.296281 
L 236.702901 147.28965 
L 237.788702 110.829485 
L 238.874503 146.975025 
L 239.960304 117.203604 
L 241.046105 131.806734 
L 242.131906 176.953907 
L 243.217708 137.887448 
L 244.303509 158.42659 
L 245.38931 125.825592 
L 246.475111 139.020454 
L 247.560912 133.677767 
L 248.646713 135.161436 
L 249.732514 129.457272 
L 250.818316 143.012498 
L 251.904117 166.36183 
L 252.989918 158.2292 
L 254.075719 117.735639 
L 255.16152 130.400075 
L 256.247321 120.031154 
L 257.333123 122.809885 
L 258.418924 135.855007 
L 259.504725 127.48916 
L 260.590526 110.448622 
L 261.676327 111.885889 
L 262.762128 117.787244 
L 263.847929 127.40599 
L 264.933731 123.987532 
L 266.019532 129.822756 
L 267.105333 126.191632 
L 268.191134 139.072968 
L 269.276935 139.967858 
L 270.362736 129.52861 
L 271.448538 114.55937 
L 272.534339 134.90381 
L 273.62014 137.518036 
L 274.705941 135.218109 
L 275.791742 120.28376 
L 276.877543 135.782689 
L 277.963344 127.2591 
L 279.049146 116.597553 
L 280.134947 126.688583 
L 281.220748 149.063897 
L 282.306549 142.402541 
L 283.39235 127.986007 
L 284.478151 138.711988 
L 285.563953 112.905838 
L 286.649754 137.126301 
L 287.735555 128.773002 
L 288.821356 132.468402 
L 289.907157 124.70185 
L 290.992958 115.178541 
L 292.07876 121.24837 
L 293.164561 108.234714 
L 294.250362 112.844052 
L 295.336163 113.692492 
L 296.421964 120.962968 
L 297.507765 157.203548 
L 298.593566 126.480831 
L 299.679368 132.81963 
L 300.765169 125.793058 
L 301.85097 129.039778 
L 302.936771 123.438428 
L 304.022572 106.874236 
L 305.108373 117.669251 
L 306.194175 111.359746 
L 307.279976 115.428909 
L 308.365777 138.286304 
L 309.451578 110.805974 
L 310.537379 119.830249 
L 311.62318 120.069463 
L 312.708981 129.431727 
L 313.794783 120.462291 
L 314.880584 121.179266 
L 315.966385 112.017905 
L 317.052186 114.195209 
L 318.137987 121.025028 
L 319.223788 127.062916 
L 320.30959 115.67523 
L 321.395391 129.315096 
L 322.481192 114.474876 
L 323.566993 113.597571 
L 324.652794 114.859266 
L 325.738595 127.356744 
L 326.824396 114.569884 
L 327.910198 108.055577 
L 328.995999 117.146719 
L 330.0818 108.210258 
L 331.167601 123.127188 
L 332.253402 120.641154 
L 333.339203 105.156342 
L 334.425005 132.810814 
L 335.510806 95.277459 
L 336.596607 115.539715 
L 337.682408 117.480229 
L 338.768209 119.727491 
L 339.85401 104.993733 
L 340.939811 132.619298 
L 342.025613 137.271125 
L 343.111414 143.369778 
L 344.197215 115.168529 
L 345.283016 140.687028 
L 346.368817 124.619597 
L 347.454618 126.768408 
L 348.54042 145.781015 
L 349.626221 107.592213 
L 350.712022 134.720425 
L 351.797823 133.511744 
L 352.883624 128.751608 
L 353.969425 122.148707 
L 355.055227 118.235383 
L 356.141028 108.211169 
L 357.226829 115.416256 
L 358.31263 127.242582 
L 359.398431 127.770289 
L 360.484232 123.35292 
L 361.570033 115.649491 
L 362.655835 119.853585 
L 363.741636 115.077652 
L 364.827437 132.338783 
L 365.913238 125.108026 
L 366.999039 133.576487 
L 368.08484 111.185216 
L 369.170642 126.075701 
L 370.256443 129.695962 
L 371.342244 117.580319 
L 372.428045 109.65451 
L 373.513846 108.028673 
L 374.599647 135.174187 
L 375.685448 126.089485 
L 376.77125 142.656297 
L 377.857051 117.206924 
L 378.942852 130.074644 
L 380.028653 113.808058 
L 381.114454 118.50734 
L 382.200255 107.747448 
L 383.286057 142.334802 
L 384.371858 135.362448 
L 385.457659 125.223488 
L 386.54346 131.52159 
L 387.629261 120.762277 
L 388.715062 121.889712 
L 389.800863 136.831706 
L 390.886665 122.433709 
L 391.972466 135.985803 
L 393.058267 138.558071 
L 394.144068 157.065898 
L 395.229869 125.960344 
L 396.31567 124.986395 
L 397.401472 135.357257 
L 398.487273 119.743807 
L 398.487273 119.743807 
" style="fill:none;stroke:#0000ff;stroke-linecap:square;stroke-width:1.5;"/>
   </g>
   <g id="line2d_32">
    <path clip-path="url(#p3504b71454)" d="M 73.832727 295.488 
L 74.918528 214.37582 
L 76.00433 207.016468 
L 77.090131 219.066399 
L 78.175932 223.669724 
L 79.261733 223.831041 
L 80.347534 250.327012 
L 81.433335 256.480021 
L 82.519137 272.732913 
L 83.604938 244.847834 
L 84.690739 255.444911 
L 85.77654 230.090956 
L 86.862341 222.827169 
L 87.948142 224.253953 
L 89.033943 213.814937 
L 90.119745 244.611214 
L 91.205546 241.814975 
L 92.291347 243.495734 
L 93.377148 236.083032 
L 94.462949 204.784722 
L 96.634552 240.235129 
L 97.720353 254.504125 
L 98.806154 241.290552 
L 99.891955 246.843607 
L 100.977756 286.367058 
L 102.063557 241.42525 
L 103.149358 278.052599 
L 104.23516 268.756095 
L 105.320961 226.566184 
L 106.406762 246.624822 
L 107.492563 239.329294 
L 108.578364 233.190381 
L 109.664165 229.717381 
L 110.749967 195.949312 
L 111.835768 198.832503 
L 114.00737 198.290426 
L 115.093171 226.641615 
L 116.178972 164.749188 
L 117.264773 182.008 
L 118.350575 169.950578 
L 119.436376 173.554656 
L 120.522177 191.480673 
L 121.607978 191.235106 
L 122.693779 219.132379 
L 123.77958 169.870913 
L 124.865382 172.1018 
L 125.951183 155.034989 
L 127.036984 175.54688 
L 128.122785 160.822479 
L 129.208586 156.588745 
L 130.294387 149.86984 
L 131.380189 167.232129 
L 132.46599 165.730974 
L 133.551791 166.932763 
L 134.637592 159.938663 
L 135.723393 204.772787 
L 136.809194 172.326515 
L 137.894995 146.220631 
L 138.980797 148.039817 
L 140.066598 131.183859 
L 141.152399 164.12017 
L 142.2382 143.535727 
L 143.324001 151.067023 
L 144.409802 154.531314 
L 145.495604 169.008 
L 146.581405 140.672208 
L 147.667206 139.300931 
L 148.753007 141.754093 
L 149.838808 156.93312 
L 150.924609 141.252685 
L 152.01041 164.641351 
L 153.096212 156.056972 
L 154.182013 146.328566 
L 155.267814 187.715644 
L 156.353615 193.992386 
L 157.439416 133.796104 
L 158.525217 162.086899 
L 159.611019 153.517582 
L 160.69682 158.257867 
L 161.782621 187.926392 
L 162.868422 162.944457 
L 163.954223 187.214338 
L 165.040024 204.146456 
L 166.125825 149.247164 
L 168.297428 203.59975 
L 169.383229 190.688163 
L 170.46903 170.617567 
L 171.554831 157.54811 
L 172.640632 172.742351 
L 173.726434 140.073174 
L 174.812235 146.172215 
L 175.898036 149.262963 
L 176.983837 146.932804 
L 178.069638 175.703686 
L 179.155439 173.657842 
L 180.24124 204.846251 
L 181.327042 128.711371 
L 183.498644 201.479197 
L 184.584445 142.049414 
L 185.670246 175.928102 
L 186.756047 155.157323 
L 187.841849 180.707163 
L 190.013451 142.598115 
L 191.099252 129.564167 
L 192.185053 168.938948 
L 193.270854 154.886277 
L 194.356656 144.688912 
L 195.442457 158.995409 
L 196.528258 146.287304 
L 197.614059 148.571694 
L 198.69986 148.375688 
L 199.785661 183.808875 
L 200.871462 192.350379 
L 201.957264 155.658041 
L 203.043065 151.564218 
L 204.128866 211.14929 
L 205.214667 183.231715 
L 206.300468 148.241809 
L 207.386269 162.094341 
L 208.472071 135.651849 
L 209.557872 121.474096 
L 210.643673 159.412717 
L 211.729474 152.85274 
L 212.815275 168.869505 
L 213.901076 133.947487 
L 214.986877 150.153423 
L 216.072679 155.184063 
L 217.15848 142.528127 
L 218.244281 162.076614 
L 219.330082 164.243802 
L 220.415883 165.974419 
L 221.501684 134.918588 
L 222.587486 185.248767 
L 223.673287 179.363013 
L 224.759088 141.951602 
L 225.844889 125.432579 
L 226.93069 137.829007 
L 228.016491 151.817052 
L 229.102292 169.820726 
L 230.188094 180.722235 
L 231.273895 155.472641 
L 232.359696 158.506615 
L 233.445497 171.190709 
L 234.531298 137.420329 
L 235.617099 123.416496 
L 236.702901 187.825211 
L 237.788702 139.002277 
L 238.874503 190.038354 
L 239.960304 146.832931 
L 241.046105 170.916989 
L 242.131906 216.091 
L 243.217708 173.291635 
L 244.303509 210.16403 
L 245.38931 162.937768 
L 246.475111 189.826852 
L 247.560912 185.968907 
L 248.646713 190.125766 
L 249.732514 164.732749 
L 251.904117 223.756307 
L 252.989918 222.800832 
L 254.075719 150.373038 
L 255.16152 177.613372 
L 256.247321 168.167519 
L 257.333123 168.373063 
L 258.418924 179.501488 
L 259.504725 174.638767 
L 260.590526 145.700928 
L 262.762128 160.074325 
L 263.847929 172.433337 
L 264.933731 172.118406 
L 266.019532 169.34529 
L 267.105333 167.597338 
L 268.191134 184.503703 
L 269.276935 197.373078 
L 270.362736 180.116094 
L 271.448538 142.994603 
L 272.534339 171.616087 
L 273.62014 190.177141 
L 274.705941 166.132907 
L 275.791742 166.089534 
L 276.877543 194.23395 
L 277.963344 163.191466 
L 279.049146 158.221074 
L 280.134947 170.679747 
L 281.220748 187.090404 
L 282.306549 177.863706 
L 283.39235 167.429156 
L 284.478151 186.293134 
L 285.563953 154.81437 
L 286.649754 171.741436 
L 287.735555 159.772784 
L 288.821356 172.142334 
L 289.907157 168.230104 
L 290.992958 159.14115 
L 292.07876 155.609537 
L 293.164561 144.692796 
L 294.250362 150.964321 
L 296.421964 172.370936 
L 297.507765 185.714953 
L 298.593566 159.394918 
L 299.679368 175.013843 
L 300.765169 157.946277 
L 301.85097 166.171966 
L 302.936771 152.790456 
L 304.022572 142.021723 
L 305.108373 154.800854 
L 306.194175 160.836791 
L 307.279976 141.13809 
L 308.365777 190.362878 
L 309.451578 142.695087 
L 310.537379 162.850582 
L 311.62318 155.691873 
L 312.708981 159.046522 
L 313.794783 155.964285 
L 314.880584 159.775418 
L 315.966385 136.584923 
L 317.052186 160.906574 
L 318.137987 167.741919 
L 319.223788 151.456702 
L 320.30959 159.322342 
L 321.395391 164.059775 
L 322.481192 140.767311 
L 323.566993 142.708731 
L 325.738595 171.351144 
L 326.824396 141.795447 
L 327.910198 132.599771 
L 328.995999 143.201763 
L 330.0818 138.929392 
L 331.167601 176.674381 
L 332.253402 163.211144 
L 333.339203 143.971832 
L 334.425005 159.477401 
L 335.510806 130.041439 
L 336.596607 142.693133 
L 337.682408 148.047799 
L 338.768209 155.075414 
L 339.85401 128.189876 
L 340.939811 161.843254 
L 343.111414 190.897101 
L 344.197215 148.3032 
L 345.283016 173.36276 
L 346.368817 150.569955 
L 347.454618 160.613827 
L 348.54042 182.932156 
L 349.626221 140.855019 
L 350.712022 191.621781 
L 351.797823 164.877197 
L 352.883624 174.962574 
L 353.969425 153.420147 
L 355.055227 141.813485 
L 356.141028 138.438276 
L 357.226829 147.263333 
L 358.31263 174.226744 
L 359.398431 150.532709 
L 360.484232 170.455783 
L 361.570033 138.919694 
L 362.655835 156.099661 
L 363.741636 140.03757 
L 364.827437 184.67255 
L 365.913238 174.240425 
L 366.999039 173.628823 
L 368.08484 139.384382 
L 369.170642 175.995959 
L 370.256443 180.006096 
L 371.342244 164.257092 
L 372.428045 146.61024 
L 373.513846 132.50762 
L 374.599647 177.496935 
L 375.685448 168.272289 
L 376.77125 177.903478 
L 377.857051 149.985068 
L 378.942852 162.387035 
L 380.028653 162.573213 
L 381.114454 149.62652 
L 382.200255 148.866933 
L 383.286057 179.415244 
L 384.371858 173.62884 
L 385.457659 158.686633 
L 386.54346 159.862691 
L 387.629261 148.253713 
L 388.715062 144.803394 
L 389.800863 176.251949 
L 390.886665 161.803071 
L 391.972466 184.871969 
L 393.058267 196.351523 
L 394.144068 197.543788 
L 395.229869 150.701021 
L 396.31567 163.068895 
L 397.401472 189.12064 
L 398.487273 140.370592 
L 398.487273 140.370592 
" style="fill:none;stroke:#008000;stroke-dasharray:9.6,2.4,1.5,2.4;stroke-dashoffset:0;stroke-width:1.5;"/>
   </g>
   <g id="line2d_33">
    <path clip-path="url(#p3504b71454)" d="M 73.832727 285.139804 
L 74.918528 198.905851 
L 76.00433 171.005394 
L 77.090131 193.816172 
L 78.175932 187.942424 
L 79.261733 175.499848 
L 80.347534 199.991193 
L 81.433335 172.225657 
L 82.519137 181.106367 
L 83.604938 175.238076 
L 84.690739 190.93704 
L 85.77654 162.001951 
L 86.862341 150.232544 
L 87.948142 155.589133 
L 89.033943 165.727042 
L 90.119745 139.175584 
L 91.205546 178.242086 
L 92.291347 171.920104 
L 93.377148 136.826584 
L 94.462949 141.320678 
L 95.54875 183.552337 
L 96.634552 176.131226 
L 97.720353 133.143257 
L 98.806154 149.405326 
L 99.891955 171.707097 
L 100.977756 145.774742 
L 102.063557 145.870299 
L 103.149358 124.880646 
L 104.23516 146.578419 
L 105.320961 110.183018 
L 106.406762 146.277777 
L 107.492563 112.695509 
L 108.578364 140.166454 
L 109.664165 159.373465 
L 110.749967 120.322549 
L 111.835768 111.377465 
L 112.921569 125.612217 
L 114.00737 122.736801 
L 115.093171 105.761699 
L 116.178972 114.734307 
L 117.264773 117.115287 
L 118.350575 124.984904 
L 119.436376 120.259834 
L 120.522177 100.018776 
L 121.607978 114.295254 
L 122.693779 112.614817 
L 123.77958 104.367652 
L 124.865382 91.985627 
L 125.951183 109.541725 
L 127.036984 99.629201 
L 128.122785 83.825962 
L 129.208586 79.428506 
L 130.294387 101.228963 
L 131.380189 74.212802 
L 132.46599 114.124711 
L 133.551791 101.009821 
L 134.637592 94.417866 
L 135.723393 82.461047 
L 136.809194 83.308157 
L 137.894995 92.647299 
L 138.980797 68.903392 
L 140.066598 86.911809 
L 141.152399 86.287364 
L 142.2382 86.552378 
L 143.324001 98.901665 
L 144.409802 100.34598 
L 145.495604 74.334899 
L 146.581405 93.112433 
L 147.667206 82.536187 
L 148.753007 92.4281 
L 149.838808 72.462406 
L 150.924609 91.897314 
L 152.01041 102.20968 
L 153.096212 115.967635 
L 154.182013 94.712804 
L 155.267814 60.009002 
L 156.353615 68.089468 
L 157.439416 86.324714 
L 158.525217 102.404117 
L 159.611019 88.830956 
L 160.69682 80.610074 
L 161.782621 79.507871 
L 162.868422 98.054009 
L 163.954223 88.255377 
L 165.040024 90.157574 
L 166.125825 89.15771 
L 167.211627 97.893485 
L 168.297428 120.167937 
L 169.383229 81.919414 
L 170.46903 85.940371 
L 171.554831 80.780068 
L 172.640632 62.939867 
L 173.726434 81.313004 
L 174.812235 79.005326 
L 175.898036 60.006048 
L 176.983837 84.867688 
L 178.069638 86.47364 
L 179.155439 78.919964 
L 180.24124 78.067534 
L 181.327042 86.409342 
L 182.412843 73.165446 
L 183.498644 67.161941 
L 184.584445 79.898321 
L 185.670246 53.568 
L 186.756047 62.961267 
L 187.841849 59.183231 
L 188.92765 92.39009 
L 190.013451 69.389782 
L 192.185053 85.945148 
L 193.270854 66.562747 
L 194.356656 69.576886 
L 195.442457 76.271345 
L 196.528258 88.957823 
L 197.614059 94.980623 
L 198.69986 85.591242 
L 200.871462 108.649224 
L 201.957264 89.06229 
L 203.043065 108.265762 
L 204.128866 117.591808 
L 205.214667 114.897223 
L 206.300468 86.845362 
L 207.386269 64.707228 
L 208.472071 84.56199 
L 209.557872 62.986885 
L 210.643673 95.622997 
L 211.729474 82.833846 
L 212.815275 84.83323 
L 213.901076 90.257505 
L 214.986877 88.622168 
L 216.072679 70.843602 
L 217.15848 98.719742 
L 218.244281 85.849365 
L 219.330082 78.484502 
L 220.415883 89.962303 
L 221.501684 92.706049 
L 222.587486 93.727984 
L 223.673287 96.440942 
L 224.759088 84.406597 
L 225.844889 64.935199 
L 226.93069 93.194463 
L 228.016491 97.197395 
L 229.102292 84.616291 
L 230.188094 83.76617 
L 231.273895 78.20116 
L 232.359696 90.020965 
L 233.445497 72.801557 
L 234.531298 83.291857 
L 235.617099 69.176067 
L 236.702901 106.754089 
L 237.788702 82.656693 
L 238.874503 103.911696 
L 239.960304 87.574276 
L 241.046105 92.696478 
L 242.131906 137.816814 
L 243.217708 102.483261 
L 244.303509 106.689151 
L 245.38931 88.713417 
L 246.475111 88.214055 
L 247.560912 81.386628 
L 248.646713 80.197106 
L 249.732514 94.181795 
L 250.818316 92.763716 
L 251.904117 108.967353 
L 252.989918 93.657568 
L 254.075719 85.09824 
L 255.16152 83.186778 
L 256.247321 71.894789 
L 257.333123 77.246706 
L 258.418924 92.208526 
L 259.504725 80.339552 
L 260.590526 75.196315 
L 261.676327 70.807765 
L 262.762128 75.500164 
L 263.847929 82.378642 
L 264.933731 75.856658 
L 266.019532 90.300222 
L 267.105333 84.785926 
L 268.191134 93.642234 
L 269.276935 82.562638 
L 270.362736 78.941125 
L 271.448538 86.124138 
L 272.534339 98.191533 
L 273.62014 84.858931 
L 274.705941 104.303311 
L 275.791742 74.477985 
L 276.877543 77.331429 
L 277.963344 91.326734 
L 279.049146 74.974032 
L 280.134947 82.697419 
L 281.220748 111.037391 
L 282.306549 106.941377 
L 283.39235 88.542857 
L 284.478151 91.130841 
L 285.563953 70.997305 
L 286.649754 102.511166 
L 288.821356 92.794469 
L 289.907157 81.173596 
L 290.992958 71.215933 
L 292.07876 86.887203 
L 293.164561 71.776632 
L 294.250362 74.723784 
L 295.336163 65.497394 
L 296.421964 69.555 
L 297.507765 128.692143 
L 298.593566 93.566744 
L 299.679368 90.625417 
L 300.765169 93.639839 
L 301.85097 91.90759 
L 302.936771 94.086401 
L 304.022572 71.726748 
L 305.108373 80.537649 
L 306.194175 61.882702 
L 307.279976 89.719728 
L 308.365777 86.209731 
L 309.451578 78.916861 
L 310.537379 76.809915 
L 311.62318 84.447052 
L 312.708981 99.816932 
L 313.794783 84.960297 
L 314.880584 82.583114 
L 315.966385 87.450886 
L 317.052186 67.483844 
L 318.137987 74.308138 
L 319.223788 102.669131 
L 320.30959 72.028117 
L 321.395391 94.570417 
L 322.481192 88.18244 
L 323.566993 84.486411 
L 324.652794 73.075278 
L 325.738595 83.362345 
L 326.824396 87.344321 
L 327.910198 83.511382 
L 328.995999 91.091675 
L 330.0818 77.491123 
L 331.167601 69.579995 
L 332.253402 78.071164 
L 333.339203 66.340852 
L 334.425005 106.144226 
L 335.510806 60.51348 
L 336.596607 88.386296 
L 337.682408 86.912659 
L 339.85401 81.797589 
L 340.939811 103.395343 
L 342.025613 97.900747 
L 343.111414 95.842455 
L 344.197215 82.033858 
L 345.283016 108.011295 
L 346.368817 98.669239 
L 347.454618 92.922989 
L 348.54042 108.629874 
L 349.626221 74.329406 
L 350.712022 77.81907 
L 351.797823 102.146292 
L 352.883624 82.540643 
L 353.969425 90.877267 
L 355.055227 94.657281 
L 356.141028 77.984062 
L 357.226829 83.56918 
L 358.31263 80.258421 
L 359.398431 105.007869 
L 360.484232 76.250057 
L 361.570033 92.379287 
L 362.655835 83.60751 
L 363.741636 90.117734 
L 364.827437 80.005015 
L 365.913238 75.975627 
L 366.999039 93.524152 
L 368.08484 82.986051 
L 369.170642 76.155444 
L 370.256443 79.385829 
L 371.342244 70.903545 
L 372.428045 72.69878 
L 373.513846 83.549726 
L 374.599647 92.85144 
L 375.685448 83.906681 
L 376.77125 107.409116 
L 377.857051 84.42878 
L 378.942852 97.762252 
L 380.028653 65.042902 
L 381.114454 87.38816 
L 382.200255 66.627964 
L 383.286057 105.254359 
L 384.371858 97.096057 
L 385.457659 91.760342 
L 386.54346 103.180489 
L 387.629261 93.270841 
L 388.715062 98.976031 
L 389.800863 97.411463 
L 390.886665 83.064346 
L 391.972466 87.099637 
L 393.058267 80.764619 
L 394.144068 116.588007 
L 396.31567 86.903896 
L 397.401472 81.593874 
L 398.487273 99.117023 
L 398.487273 99.117023 
" style="fill:none;stroke:#008000;stroke-dasharray:9.6,2.4,1.5,2.4;stroke-dashoffset:0;stroke-width:1.5;"/>
   </g>
   <g id="line2d_34">
    <path clip-path="url(#p3504b71454)" d="M 73.832727 275.524267 
L 74.918528 193.843009 
L 76.00433 151.290252 
L 77.090131 183.468115 
L 78.175932 174.636528 
L 79.261733 176.022867 
L 80.347534 200.418229 
L 81.433335 177.685026 
L 82.519137 179.538639 
L 83.604938 174.413241 
L 84.690739 182.222243 
L 85.77654 153.775041 
L 86.862341 143.455613 
L 87.948142 149.711285 
L 89.033943 160.107225 
L 90.119745 144.522146 
L 91.205546 182.375396 
L 92.291347 167.685209 
L 93.377148 134.514746 
L 94.462949 138.833672 
L 95.54875 169.042289 
L 96.634552 172.431916 
L 97.720353 140.133775 
L 98.806154 153.251646 
L 99.891955 169.384851 
L 100.977756 154.003959 
L 102.063557 153.298933 
L 103.149358 131.568846 
L 104.23516 152.407891 
L 105.320961 125.498435 
L 106.406762 156.807324 
L 107.492563 128.510898 
L 108.578364 133.680899 
L 109.664165 140.023629 
L 110.749967 106.565388 
L 111.835768 99.523137 
L 112.921569 125.622213 
L 114.00737 112.544877 
L 115.093171 121.575578 
L 116.178972 100.986925 
L 118.350575 113.236665 
L 119.436376 115.133757 
L 120.522177 99.192269 
L 121.607978 113.224285 
L 122.693779 112.361552 
L 123.77958 103.085079 
L 124.865382 83.196444 
L 125.951183 99.796987 
L 127.036984 89.316009 
L 128.122785 82.061324 
L 129.208586 81.119256 
L 130.294387 88.197168 
L 131.380189 83.64768 
L 132.46599 109.857444 
L 133.551791 90.426579 
L 134.637592 95.612244 
L 135.723393 89.347323 
L 136.809194 86.48991 
L 137.894995 89.266062 
L 138.980797 69.997123 
L 140.066598 83.002667 
L 141.152399 91.888952 
L 142.2382 81.164898 
L 143.324001 90.431491 
L 144.409802 92.623121 
L 145.495604 74.522806 
L 146.581405 84.235916 
L 147.667206 79.165135 
L 148.753007 86.381389 
L 149.838808 76.797503 
L 150.924609 84.384075 
L 152.01041 96.97195 
L 153.096212 111.992187 
L 154.182013 92.531276 
L 155.267814 66.44843 
L 156.353615 86.026028 
L 157.439416 80.787597 
L 158.525217 101.822293 
L 159.611019 83.837528 
L 160.69682 87.15028 
L 161.782621 92.125674 
L 162.868422 93.970973 
L 163.954223 91.861949 
L 165.040024 99.052747 
L 166.125825 82.993334 
L 167.211627 87.811371 
L 168.297428 126.414004 
L 169.383229 82.454729 
L 170.46903 84.501851 
L 171.554831 79.930528 
L 172.640632 74.137918 
L 173.726434 76.897898 
L 174.812235 73.987948 
L 175.898036 70.037811 
L 176.983837 84.621689 
L 178.069638 90.89867 
L 179.155439 83.608122 
L 180.24124 94.996272 
L 181.327042 86.015368 
L 182.412843 81.72949 
L 183.498644 89.945112 
L 184.584445 81.18497 
L 185.670246 68.16423 
L 186.756047 71.577505 
L 187.841849 78.258615 
L 188.92765 91.833061 
L 190.013451 77.855385 
L 191.099252 76.610418 
L 192.185053 89.784651 
L 193.270854 76.196824 
L 194.356656 72.548988 
L 196.528258 87.689241 
L 197.614059 88.696717 
L 198.69986 83.942523 
L 199.785661 97.122524 
L 200.871462 114.962088 
L 201.957264 87.439183 
L 203.043065 107.331045 
L 204.128866 116.359307 
L 205.214667 111.629235 
L 206.300468 89.02357 
L 207.386269 76.724015 
L 208.472071 82.452042 
L 209.557872 66.268931 
L 210.643673 96.480212 
L 211.729474 83.558555 
L 212.815275 94.923074 
L 213.901076 85.621773 
L 214.986877 73.733829 
L 216.072679 78.28706 
L 217.15848 94.471784 
L 218.244281 86.395248 
L 219.330082 93.871367 
L 220.415883 86.563291 
L 221.501684 84.879835 
L 222.587486 102.427857 
L 223.673287 90.102969 
L 224.759088 79.869984 
L 225.844889 67.906077 
L 228.016491 93.355939 
L 229.102292 82.804882 
L 230.188094 89.394708 
L 231.273895 77.278531 
L 232.359696 82.802897 
L 233.445497 76.932209 
L 234.531298 76.510846 
L 235.617099 70.267988 
L 236.702901 110.963659 
L 237.788702 79.792161 
L 238.874503 106.358324 
L 239.960304 90.079328 
L 241.046105 102.922472 
L 242.131906 144.102403 
L 243.217708 110.508852 
L 244.303509 117.18733 
L 245.38931 96.079206 
L 246.475111 88.878315 
L 248.646713 83.693783 
L 249.732514 90.172207 
L 250.818316 98.114324 
L 251.904117 107.918943 
L 254.075719 87.669499 
L 255.16152 89.933846 
L 256.247321 75.921572 
L 257.333123 83.65897 
L 258.418924 94.399645 
L 260.590526 82.214226 
L 261.676327 74.431165 
L 262.762128 81.302748 
L 263.847929 87.452158 
L 264.933731 84.482503 
L 266.019532 85.10004 
L 267.105333 88.106176 
L 268.191134 96.035897 
L 269.276935 80.937935 
L 270.362736 76.364511 
L 271.448538 77.24671 
L 272.534339 88.848978 
L 273.62014 83.266805 
L 274.705941 100.023923 
L 275.791742 77.420683 
L 276.877543 80.794171 
L 277.963344 87.870556 
L 279.049146 76.458871 
L 280.134947 87.007397 
L 281.220748 103.229249 
L 282.306549 106.846267 
L 283.39235 91.031611 
L 284.478151 98.733408 
L 285.563953 79.105939 
L 286.649754 95.644926 
L 287.735555 96.123593 
L 288.821356 95.294391 
L 289.907157 91.405248 
L 290.992958 76.835676 
L 292.07876 87.327519 
L 293.164561 77.557066 
L 294.250362 73.514284 
L 295.336163 66.414282 
L 296.421964 74.333863 
L 297.507765 120.064216 
L 298.593566 93.604754 
L 299.679368 88.774635 
L 300.765169 88.301006 
L 301.85097 95.900962 
L 302.936771 84.817511 
L 304.022572 68.855619 
L 305.108373 83.162525 
L 306.194175 68.62769 
L 307.279976 85.542053 
L 308.365777 83.274837 
L 309.451578 75.563942 
L 310.537379 76.967541 
L 311.62318 81.756225 
L 312.708981 94.717793 
L 313.794783 87.794614 
L 314.880584 83.194829 
L 315.966385 79.304589 
L 317.052186 73.344717 
L 319.223788 98.225072 
L 320.30959 78.773638 
L 321.395391 86.716263 
L 322.481192 84.67172 
L 323.566993 81.208696 
L 324.652794 81.519188 
L 325.738595 91.674171 
L 326.824396 82.473236 
L 327.910198 82.729939 
L 328.995999 92.515696 
L 330.0818 81.90707 
L 331.167601 86.679213 
L 332.253402 86.549701 
L 333.339203 72.919134 
L 334.425005 102.860987 
L 335.510806 61.979909 
L 336.596607 84.223181 
L 337.682408 90.144204 
L 338.768209 86.487134 
L 339.85401 78.013962 
L 340.939811 101.694865 
L 342.025613 104.861003 
L 343.111414 104.56593 
L 344.197215 82.695709 
L 345.283016 101.532392 
L 346.368817 93.037896 
L 347.454618 87.940036 
L 348.54042 104.636658 
L 349.626221 70.307475 
L 351.797823 96.684806 
L 352.883624 90.171591 
L 353.969425 87.979292 
L 355.055227 88.056808 
L 356.141028 66.981514 
L 357.226829 79.413149 
L 358.31263 86.658722 
L 359.398431 95.813922 
L 360.484232 84.131205 
L 361.570033 85.368603 
L 362.655835 80.247859 
L 363.741636 85.104684 
L 364.827437 96.630601 
L 365.913238 88.911375 
L 366.999039 93.067399 
L 368.08484 84.964958 
L 369.170642 82.328925 
L 370.256443 84.993139 
L 371.342244 67.94669 
L 372.428045 65.214727 
L 374.599647 88.844914 
L 375.685448 80.46004 
L 376.77125 106.121507 
L 377.857051 76.52465 
L 378.942852 87.567944 
L 380.028653 66.573005 
L 381.114454 84.280513 
L 382.200255 61.539641 
L 383.286057 96.257695 
L 384.371858 83.623945 
L 385.457659 88.22025 
L 386.54346 93.942333 
L 387.629261 88.019662 
L 388.715062 95.632842 
L 389.800863 98.256833 
L 390.886665 82.949065 
L 391.972466 84.756355 
L 393.058267 93.778618 
L 394.144068 119.870758 
L 395.229869 89.802159 
L 396.31567 92.559222 
L 397.401472 88.715196 
L 398.487273 92.542631 
L 398.487273 92.542631 
" style="fill:none;stroke:#ff0000;stroke-linecap:square;stroke-width:1.5;"/>
   </g>
   <g id="patch_3">
    <path d="M 57.6 307.584 
L 57.6 41.472 
" style="fill:none;stroke:#000000;stroke-linecap:square;stroke-linejoin:miter;stroke-width:0.8;"/>
   </g>
   <g id="patch_4">
    <path d="M 414.72 307.584 
L 414.72 41.472 
" style="fill:none;stroke:#000000;stroke-linecap:square;stroke-linejoin:miter;stroke-width:0.8;"/>
   </g>
   <g id="patch_5">
    <path d="M 57.6 307.584 
L 414.72 307.584 
" style="fill:none;stroke:#000000;stroke-linecap:square;stroke-linejoin:miter;stroke-width:0.8;"/>
   </g>
   <g id="patch_6">
    <path d="M 57.6 41.472 
L 414.72 41.472 
" style="fill:none;stroke:#000000;stroke-linecap:square;stroke-linejoin:miter;stroke-width:0.8;"/>
   </g>
   <g id="text_18">
    <!-- Population's average and best fitness -->
    <defs>
     <path d="M 19.671875 64.796875 
L 19.671875 37.40625 
L 32.078125 37.40625 
Q 38.96875 37.40625 42.71875 40.96875 
Q 46.484375 44.53125 46.484375 51.125 
Q 46.484375 57.671875 42.71875 61.234375 
Q 38.96875 64.796875 32.078125 64.796875 
z
M 9.8125 72.90625 
L 32.078125 72.90625 
Q 44.34375 72.90625 50.609375 67.359375 
Q 56.890625 61.8125 56.890625 51.125 
Q 56.890625 40.328125 50.609375 34.8125 
Q 44.34375 29.296875 32.078125 29.296875 
L 19.671875 29.296875 
L 19.671875 0 
L 9.8125 0 
z
" id="DejaVuSans-80"/>
     <path d="M 18.109375 8.203125 
L 18.109375 -20.796875 
L 9.078125 -20.796875 
L 9.078125 54.6875 
L 18.109375 54.6875 
L 18.109375 46.390625 
Q 20.953125 51.265625 25.265625 53.625 
Q 29.59375 56 35.59375 56 
Q 45.5625 56 51.78125 48.09375 
Q 58.015625 40.1875 58.015625 27.296875 
Q 58.015625 14.40625 51.78125 6.484375 
Q 45.5625 -1.421875 35.59375 -1.421875 
Q 29.59375 -1.421875 25.265625 0.953125 
Q 20.953125 3.328125 18.109375 8.203125 
z
M 48.6875 27.296875 
Q 48.6875 37.203125 44.609375 42.84375 
Q 40.53125 48.484375 33.40625 48.484375 
Q 26.265625 48.484375 22.1875 42.84375 
Q 18.109375 37.203125 18.109375 27.296875 
Q 18.109375 17.390625 22.1875 11.75 
Q 26.265625 6.109375 33.40625 6.109375 
Q 40.53125 6.109375 44.609375 11.75 
Q 48.6875 17.390625 48.6875 27.296875 
z
" id="DejaVuSans-112"/>
     <path d="M 8.5 21.578125 
L 8.5 54.6875 
L 17.484375 54.6875 
L 17.484375 21.921875 
Q 17.484375 14.15625 20.5 10.265625 
Q 23.53125 6.390625 29.59375 6.390625 
Q 36.859375 6.390625 41.078125 11.03125 
Q 45.3125 15.671875 45.3125 23.6875 
L 45.3125 54.6875 
L 54.296875 54.6875 
L 54.296875 0 
L 45.3125 0 
L 45.3125 8.40625 
Q 42.046875 3.421875 37.71875 1 
Q 33.40625 -1.421875 27.6875 -1.421875 
Q 18.265625 -1.421875 13.375 4.4375 
Q 8.5 10.296875 8.5 21.578125 
z
M 31.109375 56 
z
" id="DejaVuSans-117"/>
     <path d="M 9.421875 75.984375 
L 18.40625 75.984375 
L 18.40625 0 
L 9.421875 0 
z
" id="DejaVuSans-108"/>
     <path d="M 17.921875 72.90625 
L 17.921875 45.796875 
L 9.625 45.796875 
L 9.625 72.90625 
z
" id="DejaVuSans-39"/>
     <path id="DejaVuSans-32"/>
     <path d="M 2.984375 54.6875 
L 12.5 54.6875 
L 29.59375 8.796875 
L 46.6875 54.6875 
L 56.203125 54.6875 
L 35.6875 0 
L 23.484375 0 
z
" id="DejaVuSans-118"/>
     <path d="M 45.40625 27.984375 
Q 45.40625 37.75 41.375 43.109375 
Q 37.359375 48.484375 30.078125 48.484375 
Q 22.859375 48.484375 18.828125 43.109375 
Q 14.796875 37.75 14.796875 27.984375 
Q 14.796875 18.265625 18.828125 12.890625 
Q 22.859375 7.515625 30.078125 7.515625 
Q 37.359375 7.515625 41.375 12.890625 
Q 45.40625 18.265625 45.40625 27.984375 
z
M 54.390625 6.78125 
Q 54.390625 -7.171875 48.1875 -13.984375 
Q 42 -20.796875 29.203125 -20.796875 
Q 24.46875 -20.796875 20.265625 -20.09375 
Q 16.0625 -19.390625 12.109375 -17.921875 
L 12.109375 -9.1875 
Q 16.0625 -11.328125 19.921875 -12.34375 
Q 23.78125 -13.375 27.78125 -13.375 
Q 36.625 -13.375 41.015625 -8.765625 
Q 45.40625 -4.15625 45.40625 5.171875 
L 45.40625 9.625 
Q 42.625 4.78125 38.28125 2.390625 
Q 33.9375 0 27.875 0 
Q 17.828125 0 11.671875 7.65625 
Q 5.515625 15.328125 5.515625 27.984375 
Q 5.515625 40.671875 11.671875 48.328125 
Q 17.828125 56 27.875 56 
Q 33.9375 56 38.28125 53.609375 
Q 42.625 51.21875 45.40625 46.390625 
L 45.40625 54.6875 
L 54.390625 54.6875 
z
" id="DejaVuSans-103"/>
     <path d="M 45.40625 46.390625 
L 45.40625 75.984375 
L 54.390625 75.984375 
L 54.390625 0 
L 45.40625 0 
L 45.40625 8.203125 
Q 42.578125 3.328125 38.25 0.953125 
Q 33.9375 -1.421875 27.875 -1.421875 
Q 17.96875 -1.421875 11.734375 6.484375 
Q 5.515625 14.40625 5.515625 27.296875 
Q 5.515625 40.1875 11.734375 48.09375 
Q 17.96875 56 27.875 56 
Q 33.9375 56 38.25 53.625 
Q 42.578125 51.265625 45.40625 46.390625 
z
M 14.796875 27.296875 
Q 14.796875 17.390625 18.875 11.75 
Q 22.953125 6.109375 30.078125 6.109375 
Q 37.203125 6.109375 41.296875 11.75 
Q 45.40625 17.390625 45.40625 27.296875 
Q 45.40625 37.203125 41.296875 42.84375 
Q 37.203125 48.484375 30.078125 48.484375 
Q 22.953125 48.484375 18.875 42.84375 
Q 14.796875 37.203125 14.796875 27.296875 
z
" id="DejaVuSans-100"/>
     <path d="M 48.6875 27.296875 
Q 48.6875 37.203125 44.609375 42.84375 
Q 40.53125 48.484375 33.40625 48.484375 
Q 26.265625 48.484375 22.1875 42.84375 
Q 18.109375 37.203125 18.109375 27.296875 
Q 18.109375 17.390625 22.1875 11.75 
Q 26.265625 6.109375 33.40625 6.109375 
Q 40.53125 6.109375 44.609375 11.75 
Q 48.6875 17.390625 48.6875 27.296875 
z
M 18.109375 46.390625 
Q 20.953125 51.265625 25.265625 53.625 
Q 29.59375 56 35.59375 56 
Q 45.5625 56 51.78125 48.09375 
Q 58.015625 40.1875 58.015625 27.296875 
Q 58.015625 14.40625 51.78125 6.484375 
Q 45.5625 -1.421875 35.59375 -1.421875 
Q 29.59375 -1.421875 25.265625 0.953125 
Q 20.953125 3.328125 18.109375 8.203125 
L 18.109375 0 
L 9.078125 0 
L 9.078125 75.984375 
L 18.109375 75.984375 
z
" id="DejaVuSans-98"/>
     <path d="M 37.109375 75.984375 
L 37.109375 68.5 
L 28.515625 68.5 
Q 23.6875 68.5 21.796875 66.546875 
Q 19.921875 64.59375 19.921875 59.515625 
L 19.921875 54.6875 
L 34.71875 54.6875 
L 34.71875 47.703125 
L 19.921875 47.703125 
L 19.921875 0 
L 10.890625 0 
L 10.890625 47.703125 
L 2.296875 47.703125 
L 2.296875 54.6875 
L 10.890625 54.6875 
L 10.890625 58.5 
Q 10.890625 67.625 15.140625 71.796875 
Q 19.390625 75.984375 28.609375 75.984375 
z
" id="DejaVuSans-102"/>
    </defs>
    <g transform="translate(123.315 35.472)scale(0.12 -0.12)">
     <use xlink:href="#DejaVuSans-80"/>
     <use x="60.255859" xlink:href="#DejaVuSans-111"/>
     <use x="121.4375" xlink:href="#DejaVuSans-112"/>
     <use x="184.914062" xlink:href="#DejaVuSans-117"/>
     <use x="248.292969" xlink:href="#DejaVuSans-108"/>
     <use x="276.076172" xlink:href="#DejaVuSans-97"/>
     <use x="337.355469" xlink:href="#DejaVuSans-116"/>
     <use x="376.564453" xlink:href="#DejaVuSans-105"/>
     <use x="404.347656" xlink:href="#DejaVuSans-111"/>
     <use x="465.529297" xlink:href="#DejaVuSans-110"/>
     <use x="528.908203" xlink:href="#DejaVuSans-39"/>
     <use x="556.398438" xlink:href="#DejaVuSans-115"/>
     <use x="608.498047" xlink:href="#DejaVuSans-32"/>
     <use x="640.285156" xlink:href="#DejaVuSans-97"/>
     <use x="701.564453" xlink:href="#DejaVuSans-118"/>
     <use x="760.744141" xlink:href="#DejaVuSans-101"/>
     <use x="822.267578" xlink:href="#DejaVuSans-114"/>
     <use x="863.380859" xlink:href="#DejaVuSans-97"/>
     <use x="924.660156" xlink:href="#DejaVuSans-103"/>
     <use x="988.136719" xlink:href="#DejaVuSans-101"/>
     <use x="1049.660156" xlink:href="#DejaVuSans-32"/>
     <use x="1081.447266" xlink:href="#DejaVuSans-97"/>
     <use x="1142.726562" xlink:href="#DejaVuSans-110"/>
     <use x="1206.105469" xlink:href="#DejaVuSans-100"/>
     <use x="1269.582031" xlink:href="#DejaVuSans-32"/>
     <use x="1301.369141" xlink:href="#DejaVuSans-98"/>
     <use x="1364.845703" xlink:href="#DejaVuSans-101"/>
     <use x="1426.369141" xlink:href="#DejaVuSans-115"/>
     <use x="1478.46875" xlink:href="#DejaVuSans-116"/>
     <use x="1517.677734" xlink:href="#DejaVuSans-32"/>
     <use x="1549.464844" xlink:href="#DejaVuSans-102"/>
     <use x="1584.669922" xlink:href="#DejaVuSans-105"/>
     <use x="1612.453125" xlink:href="#DejaVuSans-116"/>
     <use x="1651.662109" xlink:href="#DejaVuSans-110"/>
     <use x="1715.041016" xlink:href="#DejaVuSans-101"/>
     <use x="1776.564453" xlink:href="#DejaVuSans-115"/>
     <use x="1828.664062" xlink:href="#DejaVuSans-115"/>
    </g>
   </g>
   <g id="legend_1">
    <g id="patch_7">
     <path d="M 334.779375 302.584 
L 407.72 302.584 
Q 409.72 302.584 409.72 300.584 
L 409.72 242.8715 
Q 409.72 240.8715 407.72 240.8715 
L 334.779375 240.8715 
Q 332.779375 240.8715 332.779375 242.8715 
L 332.779375 300.584 
Q 332.779375 302.584 334.779375 302.584 
z
" style="fill:#ffffff;opacity:0.8;stroke:#cccccc;stroke-linejoin:miter;"/>
    </g>
    <g id="line2d_35">
     <path d="M 336.779375 248.969937 
L 356.779375 248.969937 
" style="fill:none;stroke:#0000ff;stroke-linecap:square;stroke-width:1.5;"/>
    </g>
    <g id="line2d_36"/>
    <g id="text_19">
     <!-- average -->
     <g transform="translate(364.779375 252.469937)scale(0.1 -0.1)">
      <use xlink:href="#DejaVuSans-97"/>
      <use x="61.279297" xlink:href="#DejaVuSans-118"/>
      <use x="120.458984" xlink:href="#DejaVuSans-101"/>
      <use x="181.982422" xlink:href="#DejaVuSans-114"/>
      <use x="223.095703" xlink:href="#DejaVuSans-97"/>
      <use x="284.375" xlink:href="#DejaVuSans-103"/>
      <use x="347.851562" xlink:href="#DejaVuSans-101"/>
     </g>
    </g>
    <g id="line2d_37">
     <path d="M 336.779375 263.648062 
L 356.779375 263.648062 
" style="fill:none;stroke:#008000;stroke-dasharray:9.6,2.4,1.5,2.4;stroke-dashoffset:0;stroke-width:1.5;"/>
    </g>
    <g id="line2d_38"/>
    <g id="text_20">
     <!-- -1 sd -->
     <defs>
      <path d="M 4.890625 31.390625 
L 31.203125 31.390625 
L 31.203125 23.390625 
L 4.890625 23.390625 
z
" id="DejaVuSans-45"/>
     </defs>
     <g transform="translate(364.779375 267.148062)scale(0.1 -0.1)">
      <use xlink:href="#DejaVuSans-45"/>
      <use x="36.083984" xlink:href="#DejaVuSans-49"/>
      <use x="99.707031" xlink:href="#DejaVuSans-32"/>
      <use x="131.494141" xlink:href="#DejaVuSans-115"/>
      <use x="183.59375" xlink:href="#DejaVuSans-100"/>
     </g>
    </g>
    <g id="line2d_39">
     <path d="M 336.779375 278.326187 
L 356.779375 278.326187 
" style="fill:none;stroke:#008000;stroke-dasharray:9.6,2.4,1.5,2.4;stroke-dashoffset:0;stroke-width:1.5;"/>
    </g>
    <g id="line2d_40"/>
    <g id="text_21">
     <!-- +1 sd -->
     <defs>
      <path d="M 46 62.703125 
L 46 35.5 
L 73.1875 35.5 
L 73.1875 27.203125 
L 46 27.203125 
L 46 0 
L 37.796875 0 
L 37.796875 27.203125 
L 10.59375 27.203125 
L 10.59375 35.5 
L 37.796875 35.5 
L 37.796875 62.703125 
z
" id="DejaVuSans-43"/>
     </defs>
     <g transform="translate(364.779375 281.826187)scale(0.1 -0.1)">
      <use xlink:href="#DejaVuSans-43"/>
      <use x="83.789062" xlink:href="#DejaVuSans-49"/>
      <use x="147.412109" xlink:href="#DejaVuSans-32"/>
      <use x="179.199219" xlink:href="#DejaVuSans-115"/>
      <use x="231.298828" xlink:href="#DejaVuSans-100"/>
     </g>
    </g>
    <g id="line2d_41">
     <path d="M 336.779375 293.004312 
L 356.779375 293.004312 
" style="fill:none;stroke:#ff0000;stroke-linecap:square;stroke-width:1.5;"/>
    </g>
    <g id="line2d_42"/>
    <g id="text_22">
     <!-- best -->
     <g transform="translate(364.779375 296.504312)scale(0.1 -0.1)">
      <use xlink:href="#DejaVuSans-98"/>
      <use x="63.476562" xlink:href="#DejaVuSans-101"/>
      <use x="125" xlink:href="#DejaVuSans-115"/>
      <use x="177.099609" xlink:href="#DejaVuSans-116"/>
     </g>
    </g>
   </g>
  </g>
 </g>
 <defs>
  <clipPath id="p3504b71454">
   <rect height="266.112" width="357.12" x="57.6" y="41.472"/>
  </clipPath>
 </defs>
</svg>
