<?xml version="1.0" encoding="UTF-8" standalone="no"?>
<!DOCTYPE svg PUBLIC "-//W3C//DTD SVG 1.1//EN"
 "http://www.w3.org/Graphics/SVG/1.1/DTD/svg11.dtd">
<!-- Generated by graphviz version 2.40.1 (20161225.0304)
 -->
<!-- Title: %3 Pages: 1 -->
<svg width="359pt" height="90pt"
 viewBox="0.00 0.00 359.50 89.99" xmlns="http://www.w3.org/2000/svg" xmlns:xlink="http://www.w3.org/1999/xlink">
<g id="graph0" class="graph" transform="scale(1 1) rotate(0) translate(4 85.9914)">
<title>%3</title>
<polygon fill="#ffffff" stroke="transparent" points="-4,4 -4,-85.9914 355.4971,-85.9914 355.4971,4 -4,4"/>
<!-- &#45;1 -->
<g id="node1" class="node">
<title>&#45;1</title>
<polygon fill="#d3d3d3" stroke="#000000" points="23.751,-81.9914 -.2539,-81.9914 -.2539,-64.9914 23.751,-64.9914 23.751,-81.9914"/>
<text text-anchor="middle" x="11.7485" y="-70.7914" font-family="Times,serif" font-size="9.00" fill="#000000">&#45;1</text>
</g>
<!-- &#45;2 -->
<g id="node2" class="node">
<title>&#45;2</title>
<polygon fill="#d3d3d3" stroke="#000000" points="64.751,-81.9914 40.7461,-81.9914 40.7461,-64.9914 64.751,-64.9914 64.751,-81.9914"/>
<text text-anchor="middle" x="52.7485" y="-70.7914" font-family="Times,serif" font-size="9.00" fill="#000000">&#45;2</text>
</g>
<!-- &#45;1&#45;&gt;&#45;2 -->
<!-- &#45;3 -->
<g id="node3" class="node">
<title>&#45;3</title>
<polygon fill="#d3d3d3" stroke="#000000" points="105.751,-81.9914 81.7461,-81.9914 81.7461,-64.9914 105.751,-64.9914 105.751,-81.9914"/>
<text text-anchor="middle" x="93.7485" y="-70.7914" font-family="Times,serif" font-size="9.00" fill="#000000">&#45;3</text>
</g>
<!-- &#45;2&#45;&gt;&#45;3 -->
<!-- 0 -->
<g id="node10" class="node">
<title>0</title>
<ellipse fill="#add8e6" stroke="#000000" cx="180.7485" cy="-14.4957" rx="14.4914" ry="14.4914"/>
<text text-anchor="middle" x="180.7485" y="-11.7957" font-family="Times,serif" font-size="9.00" fill="#000000">0</text>
</g>
<!-- &#45;2&#45;&gt;0 -->
<g id="edge14" class="edge">
<title>&#45;2&#45;&gt;0</title>
<path fill="none" stroke="#ff0000" stroke-width="1.3615" d="M64.561,-68.047C85.8375,-58.2405 130.9241,-37.4599 158.254,-24.8635"/>
<polygon fill="#ff0000" stroke="#ff0000" stroke-width="1.3615" points="159.8258,-27.993 167.4425,-20.6285 156.8957,-21.6357 159.8258,-27.993"/>
</g>
<!-- &#45;4 -->
<g id="node4" class="node">
<title>&#45;4</title>
<polygon fill="#d3d3d3" stroke="#000000" points="146.751,-81.9914 122.7461,-81.9914 122.7461,-64.9914 146.751,-64.9914 146.751,-81.9914"/>
<text text-anchor="middle" x="134.7485" y="-70.7914" font-family="Times,serif" font-size="9.00" fill="#000000">&#45;4</text>
</g>
<!-- &#45;3&#45;&gt;&#45;4 -->
<!-- &#45;5 -->
<g id="node5" class="node">
<title>&#45;5</title>
<polygon fill="#d3d3d3" stroke="#000000" points="187.751,-81.9914 163.7461,-81.9914 163.7461,-64.9914 187.751,-64.9914 187.751,-81.9914"/>
<text text-anchor="middle" x="175.7485" y="-70.7914" font-family="Times,serif" font-size="9.00" fill="#000000">&#45;5</text>
</g>
<!-- &#45;4&#45;&gt;&#45;5 -->
<!-- 2 -->
<g id="node12" class="node">
<title>2</title>
<ellipse fill="#add8e6" stroke="#000000" cx="274.7485" cy="-14.4957" rx="14.4914" ry="14.4914"/>
<text text-anchor="middle" x="274.7485" y="-11.7957" font-family="Times,serif" font-size="9.00" fill="#000000">2</text>
</g>
<!-- &#45;4&#45;&gt;2 -->
<g id="edge15" class="edge">
<title>&#45;4&#45;&gt;2</title>
<path fill="none" stroke="#00ff00" stroke-width="1.8799" d="M146.5582,-68.3727C149.2418,-67.2373 152.0861,-66.0558 154.7485,-64.9914 197.0605,-48.0757 209.7379,-48.8553 250.7485,-28.9914 251.5919,-28.5829 252.444,-28.1539 253.299,-27.7098"/>
<polygon fill="#00ff00" stroke="#00ff00" stroke-width="1.8799" points="255.3118,-30.5922 262.2875,-22.6178 251.8614,-24.5016 255.3118,-30.5922"/>
</g>
<!-- &#45;6 -->
<g id="node6" class="node">
<title>&#45;6</title>
<polygon fill="#d3d3d3" stroke="#000000" points="228.751,-81.9914 204.7461,-81.9914 204.7461,-64.9914 228.751,-64.9914 228.751,-81.9914"/>
<text text-anchor="middle" x="216.7485" y="-70.7914" font-family="Times,serif" font-size="9.00" fill="#000000">&#45;6</text>
</g>
<!-- &#45;5&#45;&gt;&#45;6 -->
<!-- &#45;7 -->
<g id="node7" class="node">
<title>&#45;7</title>
<polygon fill="#d3d3d3" stroke="#000000" points="269.751,-81.9914 245.7461,-81.9914 245.7461,-64.9914 269.751,-64.9914 269.751,-81.9914"/>
<text text-anchor="middle" x="257.7485" y="-70.7914" font-family="Times,serif" font-size="9.00" fill="#000000">&#45;7</text>
</g>
<!-- &#45;6&#45;&gt;&#45;7 -->
<!-- &#45;8 -->
<g id="node8" class="node">
<title>&#45;8</title>
<polygon fill="#d3d3d3" stroke="#000000" points="310.751,-81.9914 286.7461,-81.9914 286.7461,-64.9914 310.751,-64.9914 310.751,-81.9914"/>
<text text-anchor="middle" x="298.7485" y="-70.7914" font-family="Times,serif" font-size="9.00" fill="#000000">&#45;8</text>
</g>
<!-- &#45;7&#45;&gt;&#45;8 -->
<!-- &#45;7&#45;&gt;0 -->
<g id="edge17" class="edge">
<title>&#45;7&#45;&gt;0</title>
<path fill="none" stroke="#ff0000" stroke-width=".1902" d="M246.3869,-64.7864C234.4003,-55.6025 215.2727,-40.9474 200.7509,-29.821"/>
<polygon fill="#ff0000" stroke="#ff0000" stroke-width=".1902" points="202.4758,-26.7334 192.4092,-23.4298 198.2185,-32.29 202.4758,-26.7334"/>
</g>
<!-- &#45;9 -->
<g id="node9" class="node">
<title>&#45;9</title>
<polygon fill="#d3d3d3" stroke="#000000" points="351.751,-81.9914 327.7461,-81.9914 327.7461,-64.9914 351.751,-64.9914 351.751,-81.9914"/>
<text text-anchor="middle" x="339.7485" y="-70.7914" font-family="Times,serif" font-size="9.00" fill="#000000">&#45;9</text>
</g>
<!-- &#45;8&#45;&gt;&#45;9 -->
<!-- &#45;8&#45;&gt;2 -->
<g id="edge16" class="edge">
<title>&#45;8&#45;&gt;2</title>
<path fill="none" stroke="#00ff00" stroke-width=".3449" d="M295.2073,-64.7864C292.304,-57.6498 288.0568,-47.2094 284.1836,-37.6884"/>
<polygon fill="#00ff00" stroke="#00ff00" stroke-width=".3449" points="287.3649,-36.2203 280.3546,-28.2764 280.8809,-38.8581 287.3649,-36.2203"/>
</g>
<!-- 3 -->
<g id="node13" class="node">
<title>3</title>
<ellipse fill="#add8e6" stroke="#000000" cx="321.7485" cy="-14.4957" rx="14.4914" ry="14.4914"/>
<text text-anchor="middle" x="321.7485" y="-11.7957" font-family="Times,serif" font-size="9.00" fill="#000000">3</text>
</g>
<!-- &#45;8&#45;&gt;3 -->
<g id="edge13" class="edge">
<title>&#45;8&#45;&gt;3</title>
<path fill="none" stroke="#ff0000" stroke-width=".7297" d="M302.1423,-64.7864C304.9245,-57.6498 308.9948,-47.2094 312.7066,-37.6884"/>
<polygon fill="#ff0000" stroke="#ff0000" stroke-width=".7297" points="316.0046,-38.8647 316.376,-28.2764 309.4827,-36.322 316.0046,-38.8647"/>
</g>
<!-- 1 -->
<g id="node11" class="node">
<title>1</title>
<ellipse fill="#add8e6" stroke="#000000" cx="227.7485" cy="-14.4957" rx="14.4914" ry="14.4914"/>
<text text-anchor="middle" x="227.7485" y="-11.7957" font-family="Times,serif" font-size="9.00" fill="#000000">1</text>
</g>
<!-- &#45;9&#45;&gt;1 -->
<g id="edge12" class="edge">
<title>&#45;9&#45;&gt;1</title>
<path fill="none" stroke="#ff0000" stroke-width=".8165" d="M327.9298,-67.8651C310.8992,-59.679 278.5569,-43.8381 251.7485,-28.9914 250.9288,-28.5374 250.0967,-28.0697 249.2586,-27.593"/>
<polygon fill="#ff0000" stroke="#ff0000" stroke-width=".8165" points="250.7424,-24.4051 240.349,-22.3491 247.1917,-30.4378 250.7424,-24.4051"/>
</g>
<!-- 0&#45;&gt;1 -->
<!-- 1&#45;&gt;2 -->
<!-- 2&#45;&gt;3 -->
</g>
</svg>
