<?xml version="1.0" encoding="UTF-8" standalone="no"?>
<!DOCTYPE svg PUBLIC "-//W3C//DTD SVG 1.1//EN"
 "http://www.w3.org/Graphics/SVG/1.1/DTD/svg11.dtd">
<!-- Generated by graphviz version 2.40.1 (20161225.0304)
 -->
<!-- Title: %3 Pages: 1 -->
<svg width="413pt" height="90pt"
 viewBox="0.00 0.00 412.99 89.99" xmlns="http://www.w3.org/2000/svg" xmlns:xlink="http://www.w3.org/1999/xlink">
<g id="graph0" class="graph" transform="scale(1 1) rotate(0) translate(4 85.9914)">
<title>%3</title>
<polygon fill="#ffffff" stroke="transparent" points="-4,4 -4,-85.9914 408.9914,-85.9914 408.9914,4 -4,4"/>
<!-- &#45;1 -->
<g id="node1" class="node">
<title>&#45;1</title>
<polygon fill="#d3d3d3" stroke="#000000" points="173.4981,-81.9914 149.4932,-81.9914 149.4932,-64.9914 173.4981,-64.9914 173.4981,-81.9914"/>
<text text-anchor="middle" x="161.4957" y="-70.7914" font-family="Times,serif" font-size="9.00" fill="#000000">&#45;1</text>
</g>
<!-- &#45;2 -->
<g id="node2" class="node">
<title>&#45;2</title>
<polygon fill="#d3d3d3" stroke="#000000" points="214.4981,-81.9914 190.4932,-81.9914 190.4932,-64.9914 214.4981,-64.9914 214.4981,-81.9914"/>
<text text-anchor="middle" x="202.4957" y="-70.7914" font-family="Times,serif" font-size="9.00" fill="#000000">&#45;2</text>
</g>
<!-- &#45;1&#45;&gt;&#45;2 -->
<!-- 1 -->
<g id="node5" class="node">
<title>1</title>
<ellipse fill="#add8e6" stroke="#000000" cx="61.4957" cy="-14.4957" rx="14.4914" ry="14.4914"/>
<text text-anchor="middle" x="61.4957" y="-11.7957" font-family="Times,serif" font-size="9.00" fill="#000000">1</text>
</g>
<!-- &#45;1&#45;&gt;1 -->
<g id="edge12" class="edge">
<title>&#45;1&#45;&gt;1</title>
<path fill="none" stroke="#ff0000" stroke-width="2.0766" d="M149.6185,-66.6041C134.6367,-57.9011 108.099,-42.434 85.4957,-28.9914 84.6903,-28.5124 83.8704,-28.0235 83.0426,-27.5289"/>
<polygon fill="#ff0000" stroke="#ff0000" stroke-width="2.0766" points="84.5547,-24.3542 74.1809,-22.2015 80.948,-30.3535 84.5547,-24.3542"/>
</g>
<!-- 5 -->
<g id="node9" class="node">
<title>5</title>
<ellipse fill="#add8e6" stroke="#000000" cx="249.4957" cy="-14.4957" rx="14.4914" ry="14.4914"/>
<text text-anchor="middle" x="249.4957" y="-11.7957" font-family="Times,serif" font-size="9.00" fill="#000000">5</text>
</g>
<!-- &#45;1&#45;&gt;5 -->
<g id="edge14" class="edge">
<title>&#45;1&#45;&gt;5</title>
<path fill="none" stroke="#ff0000" stroke-width=".2473" d="M173.3638,-65.535C187.5862,-56.0002 211.6571,-39.8629 228.9276,-28.2846"/>
<polygon fill="#ff0000" stroke="#ff0000" stroke-width=".2473" points="230.8938,-31.1803 237.251,-22.7046 226.9958,-25.366 230.8938,-31.1803"/>
</g>
<!-- &#45;3 -->
<g id="node3" class="node">
<title>&#45;3</title>
<polygon fill="#d3d3d3" stroke="#000000" points="255.4981,-81.9914 231.4932,-81.9914 231.4932,-64.9914 255.4981,-64.9914 255.4981,-81.9914"/>
<text text-anchor="middle" x="243.4957" y="-70.7914" font-family="Times,serif" font-size="9.00" fill="#000000">&#45;3</text>
</g>
<!-- &#45;2&#45;&gt;&#45;3 -->
<!-- 8 -->
<g id="node12" class="node">
<title>8</title>
<ellipse fill="#add8e6" stroke="#000000" cx="390.4957" cy="-14.4957" rx="14.4914" ry="14.4914"/>
<text text-anchor="middle" x="390.4957" y="-11.7957" font-family="Times,serif" font-size="9.00" fill="#000000">8</text>
</g>
<!-- &#45;2&#45;&gt;8 -->
<g id="edge13" class="edge">
<title>&#45;2&#45;&gt;8</title>
<path fill="none" stroke="#ff0000" stroke-width="1.611" d="M214.6478,-67.9682C217.2113,-66.9048 219.9201,-65.8547 222.4957,-64.9914 285.045,-44.0252 305.5846,-54.326 366.4957,-28.9914 367.3609,-28.6315 368.2316,-28.2438 369.1023,-27.8345"/>
<polygon fill="#ff0000" stroke="#ff0000" stroke-width="1.611" points="371.052,-30.7583 378.1638,-22.905 367.7069,-24.6093 371.052,-30.7583"/>
</g>
<!-- 3 -->
<g id="node7" class="node">
<title>3</title>
<ellipse fill="#add8e6" stroke="#000000" cx="155.4957" cy="-14.4957" rx="14.4914" ry="14.4914"/>
<text text-anchor="middle" x="155.4957" y="-11.7957" font-family="Times,serif" font-size="9.00" fill="#000000">3</text>
</g>
<!-- &#45;3&#45;&gt;3 -->
<g id="edge11" class="edge">
<title>&#45;3&#45;&gt;3</title>
<path fill="none" stroke="#00ff00" stroke-width=".8581" d="M231.6276,-65.535C217.4052,-56.0002 193.3343,-39.8629 176.0637,-28.2846"/>
<polygon fill="#00ff00" stroke="#00ff00" stroke-width=".8581" points="177.9955,-25.366 167.7404,-22.7046 174.0976,-31.1803 177.9955,-25.366"/>
</g>
<!-- 0 -->
<g id="node4" class="node">
<title>0</title>
<ellipse fill="#add8e6" stroke="#000000" cx="14.4957" cy="-14.4957" rx="14.4914" ry="14.4914"/>
<text text-anchor="middle" x="14.4957" y="-11.7957" font-family="Times,serif" font-size="9.00" fill="#000000">0</text>
</g>
<!-- 0&#45;&gt;1 -->
<!-- 2 -->
<g id="node6" class="node">
<title>2</title>
<ellipse fill="#add8e6" stroke="#000000" cx="108.4957" cy="-14.4957" rx="14.4914" ry="14.4914"/>
<text text-anchor="middle" x="108.4957" y="-11.7957" font-family="Times,serif" font-size="9.00" fill="#000000">2</text>
</g>
<!-- 1&#45;&gt;2 -->
<!-- 2&#45;&gt;3 -->
<!-- 4 -->
<g id="node8" class="node">
<title>4</title>
<ellipse fill="#add8e6" stroke="#000000" cx="202.4957" cy="-14.4957" rx="14.4914" ry="14.4914"/>
<text text-anchor="middle" x="202.4957" y="-11.7957" font-family="Times,serif" font-size="9.00" fill="#000000">4</text>
</g>
<!-- 3&#45;&gt;4 -->
<!-- 4&#45;&gt;5 -->
<!-- 6 -->
<g id="node10" class="node">
<title>6</title>
<ellipse fill="#add8e6" stroke="#000000" cx="296.4957" cy="-14.4957" rx="14.4914" ry="14.4914"/>
<text text-anchor="middle" x="296.4957" y="-11.7957" font-family="Times,serif" font-size="9.00" fill="#000000">6</text>
</g>
<!-- 5&#45;&gt;6 -->
<!-- 7 -->
<g id="node11" class="node">
<title>7</title>
<ellipse fill="#add8e6" stroke="#000000" cx="343.4957" cy="-14.4957" rx="14.4914" ry="14.4914"/>
<text text-anchor="middle" x="343.4957" y="-11.7957" font-family="Times,serif" font-size="9.00" fill="#000000">7</text>
</g>
<!-- 6&#45;&gt;7 -->
<!-- 7&#45;&gt;8 -->
</g>
</svg>
