<?xml version="1.0" encoding="UTF-8" standalone="no"?>
<!DOCTYPE svg PUBLIC "-//W3C//DTD SVG 1.1//EN"
 "http://www.w3.org/Graphics/SVG/1.1/DTD/svg11.dtd">
<!-- Generated by graphviz version 2.40.1 (20161225.0304)
 -->
<!-- Title: %3 Pages: 1 -->
<svg width="413pt" height="168pt"
 viewBox="0.00 0.00 412.99 167.71" xmlns="http://www.w3.org/2000/svg" xmlns:xlink="http://www.w3.org/1999/xlink">
<g id="graph0" class="graph" transform="scale(1 1) rotate(0) translate(4 163.7107)">
<title>%3</title>
<polygon fill="#ffffff" stroke="transparent" points="-4,4 -4,-163.7107 408.9914,-163.7107 408.9914,4 -4,4"/>
<!-- &#45;1 -->
<g id="node1" class="node">
<title>&#45;1</title>
<polygon fill="#d3d3d3" stroke="#000000" points="222.4981,-159.7107 198.4932,-159.7107 198.4932,-142.7107 222.4981,-142.7107 222.4981,-159.7107"/>
<text text-anchor="middle" x="210.4957" y="-148.5107" font-family="Times,serif" font-size="9.00" fill="#000000">&#45;1</text>
</g>
<!-- &#45;2 -->
<g id="node2" class="node">
<title>&#45;2</title>
<polygon fill="#d3d3d3" stroke="#000000" points="263.4981,-159.7107 239.4932,-159.7107 239.4932,-142.7107 263.4981,-142.7107 263.4981,-159.7107"/>
<text text-anchor="middle" x="251.4957" y="-148.5107" font-family="Times,serif" font-size="9.00" fill="#000000">&#45;2</text>
</g>
<!-- &#45;1&#45;&gt;&#45;2 -->
<!-- 1 -->
<g id="node5" class="node">
<title>1</title>
<ellipse fill="#add8e6" stroke="#000000" cx="61.4957" cy="-14.4957" rx="14.4914" ry="14.4914"/>
<text text-anchor="middle" x="61.4957" y="-11.7957" font-family="Times,serif" font-size="9.00" fill="#000000">1</text>
</g>
<!-- &#45;1&#45;&gt;1 -->
<g id="edge12" class="edge">
<title>&#45;1&#45;&gt;1</title>
<path fill="none" stroke="#ff0000" stroke-width="2.0766" d="M201.1751,-142.6585C176.9771,-120.4556 111.8148,-60.666 79.7808,-31.2732"/>
<polygon fill="#ff0000" stroke="#ff0000" stroke-width="2.0766" points="82.13,-28.6786 72.3954,-24.4967 77.3975,-33.8365 82.13,-28.6786"/>
</g>
<!-- 5 -->
<g id="node9" class="node">
<title>5</title>
<ellipse fill="#add8e6" stroke="#000000" cx="249.4957" cy="-14.4957" rx="14.4914" ry="14.4914"/>
<text text-anchor="middle" x="249.4957" y="-11.7957" font-family="Times,serif" font-size="9.00" fill="#000000">5</text>
</g>
<!-- &#45;1&#45;&gt;5 -->
<g id="edge14" class="edge">
<title>&#45;1&#45;&gt;5</title>
<path fill="none" stroke="#ff0000" stroke-width=".2473" d="M212.9353,-142.6585C218.7828,-122.1601 233.7695,-69.624 242.6342,-38.5488"/>
<polygon fill="#ff0000" stroke="#ff0000" stroke-width=".2473" points="246.1118,-39.1164 245.4894,-28.5399 239.3804,-37.1961 246.1118,-39.1164"/>
</g>
<!-- &#45;3 -->
<g id="node3" class="node">
<title>&#45;3</title>
<polygon fill="#d3d3d3" stroke="#000000" points="304.4981,-159.7107 280.4932,-159.7107 280.4932,-142.7107 304.4981,-142.7107 304.4981,-159.7107"/>
<text text-anchor="middle" x="292.4957" y="-148.5107" font-family="Times,serif" font-size="9.00" fill="#000000">&#45;3</text>
</g>
<!-- &#45;2&#45;&gt;&#45;3 -->
<!-- 8 -->
<g id="node12" class="node">
<title>8</title>
<ellipse fill="#add8e6" stroke="#000000" cx="390.4957" cy="-14.4957" rx="14.4914" ry="14.4914"/>
<text text-anchor="middle" x="390.4957" y="-11.7957" font-family="Times,serif" font-size="9.00" fill="#000000">8</text>
</g>
<!-- &#45;2&#45;&gt;8 -->
<g id="edge13" class="edge">
<title>&#45;2&#45;&gt;8</title>
<path fill="none" stroke="#ff0000" stroke-width="1.611" d="M255.8767,-142.529C264.5548,-125.9514 285.2882,-89.2813 310.4957,-64.9914 312.9644,-62.6125 346.2534,-41.8506 369.1032,-27.7009"/>
<polygon fill="#ff0000" stroke="#ff0000" stroke-width="1.611" points="371.1814,-30.531 377.8454,-22.2943 367.4995,-24.5775 371.1814,-30.531"/>
</g>
<!-- 3 -->
<g id="node7" class="node">
<title>3</title>
<ellipse fill="#add8e6" stroke="#000000" cx="155.4957" cy="-14.4957" rx="14.4914" ry="14.4914"/>
<text text-anchor="middle" x="155.4957" y="-11.7957" font-family="Times,serif" font-size="9.00" fill="#000000">3</text>
</g>
<!-- &#45;3&#45;&gt;3 -->
<g id="edge11" class="edge">
<title>&#45;3&#45;&gt;3</title>
<path fill="none" stroke="#00ff00" stroke-width=".8581" d="M283.9257,-142.6585C261.8784,-120.6571 202.8462,-61.7477 173.1172,-32.0805"/>
<polygon fill="#00ff00" stroke="#00ff00" stroke-width=".8581" points="175.4474,-29.4612 165.8966,-24.875 170.5027,-34.4161 175.4474,-29.4612"/>
</g>
<!-- 0 -->
<g id="node4" class="node">
<title>0</title>
<ellipse fill="#add8e6" stroke="#000000" cx="14.4957" cy="-14.4957" rx="14.4914" ry="14.4914"/>
<text text-anchor="middle" x="14.4957" y="-11.7957" font-family="Times,serif" font-size="9.00" fill="#000000">0</text>
</g>
<!-- 0&#45;&gt;1 -->
<!-- 2 -->
<g id="node6" class="node">
<title>2</title>
<ellipse fill="#add8e6" stroke="#000000" cx="108.4957" cy="-14.4957" rx="14.4914" ry="14.4914"/>
<text text-anchor="middle" x="108.4957" y="-11.7957" font-family="Times,serif" font-size="9.00" fill="#000000">2</text>
</g>
<!-- 1&#45;&gt;2 -->
<!-- 2&#45;&gt;3 -->
<!-- 4 -->
<g id="node8" class="node">
<title>4</title>
<ellipse fill="#add8e6" stroke="#000000" cx="202.4957" cy="-14.4957" rx="14.4914" ry="14.4914"/>
<text text-anchor="middle" x="202.4957" y="-11.7957" font-family="Times,serif" font-size="9.00" fill="#000000">4</text>
</g>
<!-- 3&#45;&gt;4 -->
<!-- 4&#45;&gt;5 -->
<!-- 6 -->
<g id="node10" class="node">
<title>6</title>
<ellipse fill="#add8e6" stroke="#000000" cx="296.4957" cy="-14.4957" rx="14.4914" ry="14.4914"/>
<text text-anchor="middle" x="296.4957" y="-11.7957" font-family="Times,serif" font-size="9.00" fill="#000000">6</text>
</g>
<!-- 5&#45;&gt;6 -->
<!-- 7 -->
<g id="node11" class="node">
<title>7</title>
<ellipse fill="#add8e6" stroke="#000000" cx="343.4957" cy="-14.4957" rx="14.4914" ry="14.4914"/>
<text text-anchor="middle" x="343.4957" y="-11.7957" font-family="Times,serif" font-size="9.00" fill="#000000">7</text>
</g>
<!-- 6&#45;&gt;7 -->
<!-- 7&#45;&gt;8 -->
<!-- 913 -->
<g id="node13" class="node">
<title>913</title>
<ellipse fill="#ffffff" stroke="#000000" cx="340.4957" cy="-85.851" rx="20.7202" ry="20.7202"/>
<text text-anchor="middle" x="340.4957" y="-83.151" font-family="Times,serif" font-size="9.00" fill="#000000">913</text>
</g>
</g>
</svg>
