<?xml version="1.0" encoding="UTF-8" standalone="no"?>
<!DOCTYPE svg PUBLIC "-//W3C//DTD SVG 1.1//EN"
 "http://www.w3.org/Graphics/SVG/1.1/DTD/svg11.dtd">
<!-- Generated by graphviz version 2.40.1 (20161225.0304)
 -->
<!-- Title: %3 Pages: 1 -->
<svg width="359pt" height="90pt"
 viewBox="0.00 0.00 359.50 89.99" xmlns="http://www.w3.org/2000/svg" xmlns:xlink="http://www.w3.org/1999/xlink">
<g id="graph0" class="graph" transform="scale(1 1) rotate(0) translate(4 85.9914)">
<title>%3</title>
<polygon fill="#ffffff" stroke="transparent" points="-4,4 -4,-85.9914 355.4971,-85.9914 355.4971,4 -4,4"/>
<!-- &#45;1 -->
<g id="node1" class="node">
<title>&#45;1</title>
<polygon fill="#d3d3d3" stroke="#000000" points="23.751,-81.9914 -.2539,-81.9914 -.2539,-64.9914 23.751,-64.9914 23.751,-81.9914"/>
<text text-anchor="middle" x="11.7485" y="-70.7914" font-family="Times,serif" font-size="9.00" fill="#000000">&#45;1</text>
</g>
<!-- &#45;2 -->
<g id="node2" class="node">
<title>&#45;2</title>
<polygon fill="#d3d3d3" stroke="#000000" points="64.751,-81.9914 40.7461,-81.9914 40.7461,-64.9914 64.751,-64.9914 64.751,-81.9914"/>
<text text-anchor="middle" x="52.7485" y="-70.7914" font-family="Times,serif" font-size="9.00" fill="#000000">&#45;2</text>
</g>
<!-- &#45;1&#45;&gt;&#45;2 -->
<!-- &#45;3 -->
<g id="node3" class="node">
<title>&#45;3</title>
<polygon fill="#d3d3d3" stroke="#000000" points="105.751,-81.9914 81.7461,-81.9914 81.7461,-64.9914 105.751,-64.9914 105.751,-81.9914"/>
<text text-anchor="middle" x="93.7485" y="-70.7914" font-family="Times,serif" font-size="9.00" fill="#000000">&#45;3</text>
</g>
<!-- &#45;2&#45;&gt;&#45;3 -->
<!-- 0 -->
<g id="node10" class="node">
<title>0</title>
<ellipse fill="#add8e6" stroke="#000000" cx="169.7485" cy="-14.4957" rx="14.4914" ry="14.4914"/>
<text text-anchor="middle" x="169.7485" y="-11.7957" font-family="Times,serif" font-size="9.00" fill="#000000">0</text>
</g>
<!-- &#45;2&#45;&gt;0 -->
<g id="edge14" class="edge">
<title>&#45;2&#45;&gt;0</title>
<path fill="none" stroke="#ff0000" stroke-width="1.3615" d="M64.8289,-67.4C84.3123,-57.5758 122.968,-38.0842 147.5279,-25.7001"/>
<polygon fill="#ff0000" stroke="#ff0000" stroke-width="1.3615" points="149.1322,-28.811 156.4854,-21.1834 145.9805,-22.5607 149.1322,-28.811"/>
</g>
<!-- &#45;4 -->
<g id="node4" class="node">
<title>&#45;4</title>
<polygon fill="#d3d3d3" stroke="#000000" points="146.751,-81.9914 122.7461,-81.9914 122.7461,-64.9914 146.751,-64.9914 146.751,-81.9914"/>
<text text-anchor="middle" x="134.7485" y="-70.7914" font-family="Times,serif" font-size="9.00" fill="#000000">&#45;4</text>
</g>
<!-- &#45;3&#45;&gt;&#45;4 -->
<!-- &#45;5 -->
<g id="node5" class="node">
<title>&#45;5</title>
<polygon fill="#d3d3d3" stroke="#000000" points="187.751,-81.9914 163.7461,-81.9914 163.7461,-64.9914 187.751,-64.9914 187.751,-81.9914"/>
<text text-anchor="middle" x="175.7485" y="-70.7914" font-family="Times,serif" font-size="9.00" fill="#000000">&#45;5</text>
</g>
<!-- &#45;4&#45;&gt;&#45;5 -->
<!-- 2 -->
<g id="node12" class="node">
<title>2</title>
<ellipse fill="#add8e6" stroke="#000000" cx="263.7485" cy="-14.4957" rx="14.4914" ry="14.4914"/>
<text text-anchor="middle" x="263.7485" y="-11.7957" font-family="Times,serif" font-size="9.00" fill="#000000">2</text>
</g>
<!-- &#45;4&#45;&gt;2 -->
<g id="edge15" class="edge">
<title>&#45;4&#45;&gt;2</title>
<path fill="none" stroke="#00ff00" stroke-width="1.8799" d="M146.5921,-68.455C149.2739,-67.3154 152.1089,-66.1113 154.7485,-64.9914 192.5163,-48.9678 203.2077,-47.6442 239.7485,-28.9914 240.5831,-28.5654 241.4279,-28.1214 242.2766,-27.6647"/>
<polygon fill="#00ff00" stroke="#00ff00" stroke-width="1.8799" points="244.3108,-30.5325 251.2359,-22.5141 240.822,-24.4638 244.3108,-30.5325"/>
</g>
<!-- &#45;6 -->
<g id="node6" class="node">
<title>&#45;6</title>
<polygon fill="#d3d3d3" stroke="#000000" points="228.751,-81.9914 204.7461,-81.9914 204.7461,-64.9914 228.751,-64.9914 228.751,-81.9914"/>
<text text-anchor="middle" x="216.7485" y="-70.7914" font-family="Times,serif" font-size="9.00" fill="#000000">&#45;6</text>
</g>
<!-- &#45;5&#45;&gt;&#45;6 -->
<!-- &#45;7 -->
<g id="node7" class="node">
<title>&#45;7</title>
<polygon fill="#d3d3d3" stroke="#000000" points="269.751,-81.9914 245.7461,-81.9914 245.7461,-64.9914 269.751,-64.9914 269.751,-81.9914"/>
<text text-anchor="middle" x="257.7485" y="-70.7914" font-family="Times,serif" font-size="9.00" fill="#000000">&#45;7</text>
</g>
<!-- &#45;6&#45;&gt;&#45;7 -->
<!-- 1 -->
<g id="node11" class="node">
<title>1</title>
<ellipse fill="#add8e6" stroke="#000000" cx="216.7485" cy="-14.4957" rx="14.4914" ry="14.4914"/>
<text text-anchor="middle" x="216.7485" y="-11.7957" font-family="Times,serif" font-size="9.00" fill="#000000">1</text>
</g>
<!-- &#45;6&#45;&gt;1 -->
<g id="edge17" class="edge">
<title>&#45;6&#45;&gt;1</title>
<path fill="none" stroke="#00ff00" stroke-width=".5236" stroke-dasharray="1,5" d="M216.7485,-64.7864C216.7485,-58.0594 216.7485,-48.3972 216.7485,-39.3363"/>
<polygon fill="#00ff00" stroke="#00ff00" stroke-width=".5236" points="220.2486,-39.1879 216.7485,-29.1879 213.2486,-39.1879 220.2486,-39.1879"/>
</g>
<!-- &#45;8 -->
<g id="node8" class="node">
<title>&#45;8</title>
<polygon fill="#d3d3d3" stroke="#000000" points="310.751,-81.9914 286.7461,-81.9914 286.7461,-64.9914 310.751,-64.9914 310.751,-81.9914"/>
<text text-anchor="middle" x="298.7485" y="-70.7914" font-family="Times,serif" font-size="9.00" fill="#000000">&#45;8</text>
</g>
<!-- &#45;7&#45;&gt;&#45;8 -->
<!-- &#45;7&#45;&gt;0 -->
<g id="edge18" class="edge">
<title>&#45;7&#45;&gt;0</title>
<path fill="none" stroke="#ff0000" stroke-width=".1902" d="M245.8805,-65.535C231.658,-56.0002 207.5872,-39.8629 190.3166,-28.2846"/>
<polygon fill="#ff0000" stroke="#ff0000" stroke-width=".1902" points="192.2484,-25.366 181.9932,-22.7046 188.3504,-31.1803 192.2484,-25.366"/>
</g>
<!-- &#45;9 -->
<g id="node9" class="node">
<title>&#45;9</title>
<polygon fill="#d3d3d3" stroke="#000000" points="351.751,-81.9914 327.7461,-81.9914 327.7461,-64.9914 351.751,-64.9914 351.751,-81.9914"/>
<text text-anchor="middle" x="339.7485" y="-70.7914" font-family="Times,serif" font-size="9.00" fill="#000000">&#45;9</text>
</g>
<!-- &#45;8&#45;&gt;&#45;9 -->
<!-- &#45;8&#45;&gt;2 -->
<g id="edge16" class="edge">
<title>&#45;8&#45;&gt;2</title>
<path fill="none" stroke="#00ff00" stroke-width=".3449" d="M293.5842,-64.7864C289.1001,-57.2281 282.4176,-45.9641 276.5129,-36.0112"/>
<polygon fill="#00ff00" stroke="#00ff00" stroke-width=".3449" points="279.5068,-34.1979 271.3943,-27.3833 273.4865,-37.7695 279.5068,-34.1979"/>
</g>
<!-- 3 -->
<g id="node13" class="node">
<title>3</title>
<ellipse fill="#add8e6" stroke="#000000" cx="310.7485" cy="-14.4957" rx="14.4914" ry="14.4914"/>
<text text-anchor="middle" x="310.7485" y="-11.7957" font-family="Times,serif" font-size="9.00" fill="#000000">3</text>
</g>
<!-- &#45;8&#45;&gt;3 -->
<g id="edge13" class="edge">
<title>&#45;8&#45;&gt;3</title>
<path fill="none" stroke="#ff0000" stroke-width=".7297" d="M300.5192,-64.7864C301.9213,-57.8932 303.9503,-47.9177 305.8323,-38.6656"/>
<polygon fill="#ff0000" stroke="#ff0000" stroke-width=".7297" points="309.2897,-39.2269 307.8532,-28.7299 302.4302,-37.8316 309.2897,-39.2269"/>
</g>
<!-- &#45;9&#45;&gt;1 -->
<g id="edge12" class="edge">
<title>&#45;9&#45;&gt;1</title>
<path fill="none" stroke="#ff0000" stroke-width=".8165" d="M327.9894,-68.4188C305.4436,-58.658 256.9372,-37.4789 240.7485,-28.9914 239.9186,-28.5563 239.0779,-28.1046 238.2325,-27.6414"/>
<polygon fill="#ff0000" stroke="#ff0000" stroke-width=".8165" points="239.6963,-24.4446 229.2889,-22.4605 236.1875,-30.5017 239.6963,-24.4446"/>
</g>
<!-- 0&#45;&gt;1 -->
<!-- 1&#45;&gt;2 -->
<!-- 2&#45;&gt;3 -->
</g>
</svg>
