<?xml version="1.0" encoding="UTF-8" standalone="no"?>
<!DOCTYPE svg PUBLIC "-//W3C//DTD SVG 1.1//EN"
 "http://www.w3.org/Graphics/SVG/1.1/DTD/svg11.dtd">
<!-- Generated by graphviz version 2.40.1 (20161225.0304)
 -->
<!-- Title: %3 Pages: 1 -->
<svg width="390pt" height="175pt"
 viewBox="0.00 0.00 390.00 174.79" xmlns="http://www.w3.org/2000/svg" xmlns:xlink="http://www.w3.org/1999/xlink">
<g id="graph0" class="graph" transform="scale(1 1) rotate(0) translate(4 170.7893)">
<title>%3</title>
<polygon fill="#ffffff" stroke="transparent" points="-4,4 -4,-170.7893 385.9976,-170.7893 385.9976,4 -4,4"/>
<!-- E0 -->
<g id="node1" class="node">
<title>E0</title>
<polygon fill="#d3d3d3" stroke="#000000" points="25.9963,-166.7893 .0012,-166.7893 .0012,-149.7893 25.9963,-149.7893 25.9963,-166.7893"/>
<text text-anchor="middle" x="12.9988" y="-155.5893" font-family="Times,serif" font-size="9.00" fill="#000000">E0</text>
</g>
<!-- E1 -->
<g id="node2" class="node">
<title>E1</title>
<polygon fill="#d3d3d3" stroke="#000000" points="69.9963,-166.7893 44.0012,-166.7893 44.0012,-149.7893 69.9963,-149.7893 69.9963,-166.7893"/>
<text text-anchor="middle" x="56.9988" y="-155.5893" font-family="Times,serif" font-size="9.00" fill="#000000">E1</text>
</g>
<!-- E0&#45;&gt;E1 -->
<!-- E2 -->
<g id="node3" class="node">
<title>E2</title>
<polygon fill="#d3d3d3" stroke="#000000" points="117.9963,-166.7893 92.0012,-166.7893 92.0012,-149.7893 117.9963,-149.7893 117.9963,-166.7893"/>
<text text-anchor="middle" x="104.9988" y="-155.5893" font-family="Times,serif" font-size="9.00" fill="#000000">E2</text>
</g>
<!-- E1&#45;&gt;E2 -->
<!-- 0 -->
<g id="node10" class="node">
<title>0</title>
<ellipse fill="#87cefa" stroke="#000000" cx="47.9988" cy="-14.853" rx="14.4914" ry="14.4914"/>
<text text-anchor="middle" x="47.9988" y="-12.153" font-family="Times,serif" font-size="9.00" fill="#000000">0</text>
</g>
<!-- E1&#45;&gt;0 -->
<g id="edge13" class="edge">
<title>E1&#45;&gt;0</title>
<path fill="none" stroke="#ff0000" stroke-width="3.6439" d="M56.4627,-149.7463C55.13,-128.5056 51.6259,-72.6603 49.5683,-39.8674"/>
<polygon fill="#ff0000" stroke="#ff0000" stroke-width="3.6439" points="53.0506,-39.4745 48.9312,-29.7133 46.0644,-39.9129 53.0506,-39.4745"/>
</g>
<!-- E3 -->
<g id="node4" class="node">
<title>E3</title>
<polygon fill="#d3d3d3" stroke="#000000" points="161.9963,-166.7893 136.0012,-166.7893 136.0012,-149.7893 161.9963,-149.7893 161.9963,-166.7893"/>
<text text-anchor="middle" x="148.9988" y="-155.5893" font-family="Times,serif" font-size="9.00" fill="#000000">E3</text>
</g>
<!-- E2&#45;&gt;E3 -->
<!-- 1 -->
<g id="node11" class="node">
<title>1</title>
<ellipse fill="#87cefa" stroke="#000000" cx="94.9988" cy="-14.853" rx="14.4914" ry="14.4914"/>
<text text-anchor="middle" x="94.9988" y="-12.153" font-family="Times,serif" font-size="9.00" fill="#000000">1</text>
</g>
<!-- E2&#45;&gt;1 -->
<g id="edge14" class="edge">
<title>E2&#45;&gt;1</title>
<path fill="none" stroke="#ff0000" stroke-width="1.2395" d="M104.4032,-149.7463C102.9223,-128.5056 99.0289,-72.6603 96.7427,-39.8674"/>
<polygon fill="#ff0000" stroke="#ff0000" stroke-width="1.2395" points="100.2219,-39.4456 96.0348,-29.7133 93.2388,-39.9325 100.2219,-39.4456"/>
</g>
<!-- 2 -->
<g id="node12" class="node">
<title>2</title>
<ellipse fill="#87cefa" stroke="#000000" cx="141.9988" cy="-14.853" rx="14.4914" ry="14.4914"/>
<text text-anchor="middle" x="141.9988" y="-12.153" font-family="Times,serif" font-size="9.00" fill="#000000">2</text>
</g>
<!-- E2&#45;&gt;2 -->
<g id="edge16" class="edge">
<title>E2&#45;&gt;2</title>
<path fill="none" stroke="#ff0000" stroke-width=".1337" d="M107.2025,-149.7463C112.7096,-128.3972 127.2344,-72.0896 135.6752,-39.3672"/>
<polygon fill="#ff0000" stroke="#ff0000" stroke-width=".1337" points="139.174,-39.8161 138.2827,-29.2589 132.3958,-38.0676 139.174,-39.8161"/>
</g>
<!-- 4826 -->
<g id="node14" class="node">
<title>4826</title>
<ellipse fill="#add8e6" stroke="#000000" cx="184.9988" cy="-89.7477" rx="24.0833" ry="24.0833"/>
<text text-anchor="middle" x="184.9988" y="-91.5477" font-family="Times,serif" font-size="9.00" fill="#000000">4826</text>
<text text-anchor="middle" x="184.9988" y="-82.5477" font-family="Times,serif" font-size="9.00" fill="#000000">sigm</text>
</g>
<!-- E2&#45;&gt;4826 -->
<g id="edge17" class="edge">
<title>E2&#45;&gt;4826</title>
<path fill="none" stroke="#ff0000" stroke-width=".6532" d="M115.1308,-149.6085C126.0572,-140.2471 143.8916,-124.9671 158.8065,-112.1885"/>
<polygon fill="#ff0000" stroke="#ff0000" stroke-width=".6532" points="161.413,-114.5643 166.7298,-105.4 156.8586,-109.2485 161.413,-114.5643"/>
</g>
<!-- E4 -->
<g id="node5" class="node">
<title>E4</title>
<polygon fill="#d3d3d3" stroke="#000000" points="205.9963,-166.7893 180.0012,-166.7893 180.0012,-149.7893 205.9963,-149.7893 205.9963,-166.7893"/>
<text text-anchor="middle" x="192.9988" y="-155.5893" font-family="Times,serif" font-size="9.00" fill="#000000">E4</text>
</g>
<!-- E3&#45;&gt;E4 -->
<!-- E5 -->
<g id="node6" class="node">
<title>E5</title>
<polygon fill="#d3d3d3" stroke="#000000" points="249.9963,-166.7893 224.0012,-166.7893 224.0012,-149.7893 249.9963,-149.7893 249.9963,-166.7893"/>
<text text-anchor="middle" x="236.9988" y="-155.5893" font-family="Times,serif" font-size="9.00" fill="#000000">E5</text>
</g>
<!-- E4&#45;&gt;E5 -->
<!-- E6 -->
<g id="node7" class="node">
<title>E6</title>
<polygon fill="#d3d3d3" stroke="#000000" points="293.9963,-166.7893 268.0012,-166.7893 268.0012,-149.7893 293.9963,-149.7893 293.9963,-166.7893"/>
<text text-anchor="middle" x="280.9988" y="-155.5893" font-family="Times,serif" font-size="9.00" fill="#000000">E6</text>
</g>
<!-- E5&#45;&gt;E6 -->
<!-- E5&#45;&gt;2 -->
<g id="edge12" class="edge">
<title>E5&#45;&gt;2</title>
<path fill="none" stroke="#ff0000" stroke-width="2.029" d="M237.3167,-149.5478C237.5287,-132.0799 235.847,-92.262 217.9988,-65.7061 217.0745,-64.3309 185.0171,-43.1112 162.837,-28.5218"/>
<polygon fill="#ff0000" stroke="#ff0000" stroke-width="2.029" points="164.6184,-25.5044 154.3389,-22.9384 160.7746,-31.3547 164.6184,-25.5044"/>
</g>
<!-- E7 -->
<g id="node8" class="node">
<title>E7</title>
<polygon fill="#d3d3d3" stroke="#000000" points="337.9963,-166.7893 312.0012,-166.7893 312.0012,-149.7893 337.9963,-149.7893 337.9963,-166.7893"/>
<text text-anchor="middle" x="324.9988" y="-155.5893" font-family="Times,serif" font-size="9.00" fill="#000000">E7</text>
</g>
<!-- E6&#45;&gt;E7 -->
<!-- E8 -->
<g id="node9" class="node">
<title>E8</title>
<polygon fill="#d3d3d3" stroke="#000000" points="381.9963,-166.7893 356.0012,-166.7893 356.0012,-149.7893 381.9963,-149.7893 381.9963,-166.7893"/>
<text text-anchor="middle" x="368.9988" y="-155.5893" font-family="Times,serif" font-size="9.00" fill="#000000">E8</text>
</g>
<!-- E7&#45;&gt;E8 -->
<!-- 0&#45;&gt;1 -->
<!-- 1&#45;&gt;2 -->
<!-- S -->
<g id="node13" class="node">
<title>S</title>
<ellipse fill="#87cefa" stroke="#000000" cx="188.9988" cy="-14.853" rx="14.7075" ry="14.7075"/>
<text text-anchor="middle" x="188.9988" y="-12.153" font-family="Times,serif" font-size="9.00" fill="#000000">S</text>
</g>
<!-- 2&#45;&gt;S -->
<!-- 4826&#45;&gt;S -->
<g id="edge15" class="edge">
<title>4826&#45;&gt;S</title>
<path fill="none" stroke="#00ff00" stroke-width=".3548" d="M186.2864,-65.6383C186.7247,-57.432 187.2155,-48.2428 187.6578,-39.9602"/>
<polygon fill="#00ff00" stroke="#00ff00" stroke-width=".3548" points="191.1646,-39.9258 188.203,-29.7534 184.1745,-39.5524 191.1646,-39.9258"/>
</g>
</g>
</svg>
