<?xml version="1.0" encoding="UTF-8" standalone="no"?>
<!DOCTYPE svg PUBLIC "-//W3C//DTD SVG 1.1//EN"
 "http://www.w3.org/Graphics/SVG/1.1/DTD/svg11.dtd">
<!-- Generated by graphviz version 2.40.1 (20161225.0304)
 -->
<!-- Title: %3 Pages: 1 -->
<svg width="369pt" height="168pt"
 viewBox="0.00 0.00 368.61 167.71" xmlns="http://www.w3.org/2000/svg" xmlns:xlink="http://www.w3.org/1999/xlink">
<g id="graph0" class="graph" transform="scale(1 1) rotate(0) translate(4 163.7107)">
<title>%3</title>
<polygon fill="#ffffff" stroke="transparent" points="-4,4 -4,-163.7107 364.6082,-163.7107 364.6082,4 -4,4"/>
<!-- &#45;1 -->
<g id="node1" class="node">
<title>&#45;1</title>
<polygon fill="#d3d3d3" stroke="#000000" points="32.8621,-159.7107 8.8572,-159.7107 8.8572,-142.7107 32.8621,-142.7107 32.8621,-159.7107"/>
<text text-anchor="middle" x="20.8597" y="-148.5107" font-family="Times,serif" font-size="9.00" fill="#000000">&#45;1</text>
</g>
<!-- &#45;2 -->
<g id="node2" class="node">
<title>&#45;2</title>
<polygon fill="#d3d3d3" stroke="#000000" points="73.8621,-159.7107 49.8572,-159.7107 49.8572,-142.7107 73.8621,-142.7107 73.8621,-159.7107"/>
<text text-anchor="middle" x="61.8597" y="-148.5107" font-family="Times,serif" font-size="9.00" fill="#000000">&#45;2</text>
</g>
<!-- &#45;1&#45;&gt;&#45;2 -->
<!-- 936 -->
<g id="node14" class="node">
<title>936</title>
<ellipse fill="#ffffff" stroke="#000000" cx="20.8597" cy="-85.851" rx="20.7202" ry="20.7202"/>
<text text-anchor="middle" x="20.8597" y="-83.151" font-family="Times,serif" font-size="9.00" fill="#000000">936</text>
</g>
<!-- &#45;1&#45;&gt;936 -->
<g id="edge15" class="edge">
<title>&#45;1&#45;&gt;936</title>
<path fill="none" stroke="#00ff00" stroke-width=".3496" d="M20.8597,-142.666C20.8597,-136.0083 20.8597,-126.331 20.8597,-116.8437"/>
<polygon fill="#00ff00" stroke="#00ff00" stroke-width=".3496" points="24.3597,-116.7756 20.8597,-106.7756 17.3597,-116.7756 24.3597,-116.7756"/>
</g>
<!-- &#45;3 -->
<g id="node3" class="node">
<title>&#45;3</title>
<polygon fill="#d3d3d3" stroke="#000000" points="114.8621,-159.7107 90.8572,-159.7107 90.8572,-142.7107 114.8621,-142.7107 114.8621,-159.7107"/>
<text text-anchor="middle" x="102.8597" y="-148.5107" font-family="Times,serif" font-size="9.00" fill="#000000">&#45;3</text>
</g>
<!-- &#45;2&#45;&gt;&#45;3 -->
<!-- &#45;4 -->
<g id="node4" class="node">
<title>&#45;4</title>
<polygon fill="#d3d3d3" stroke="#000000" points="155.8621,-159.7107 131.8572,-159.7107 131.8572,-142.7107 155.8621,-142.7107 155.8621,-159.7107"/>
<text text-anchor="middle" x="143.8597" y="-148.5107" font-family="Times,serif" font-size="9.00" fill="#000000">&#45;4</text>
</g>
<!-- &#45;3&#45;&gt;&#45;4 -->
<!-- &#45;5 -->
<g id="node5" class="node">
<title>&#45;5</title>
<polygon fill="#d3d3d3" stroke="#000000" points="196.8621,-159.7107 172.8572,-159.7107 172.8572,-142.7107 196.8621,-142.7107 196.8621,-159.7107"/>
<text text-anchor="middle" x="184.8597" y="-148.5107" font-family="Times,serif" font-size="9.00" fill="#000000">&#45;5</text>
</g>
<!-- &#45;4&#45;&gt;&#45;5 -->
<!-- &#45;6 -->
<g id="node6" class="node">
<title>&#45;6</title>
<polygon fill="#d3d3d3" stroke="#000000" points="237.8621,-159.7107 213.8572,-159.7107 213.8572,-142.7107 237.8621,-142.7107 237.8621,-159.7107"/>
<text text-anchor="middle" x="225.8597" y="-148.5107" font-family="Times,serif" font-size="9.00" fill="#000000">&#45;6</text>
</g>
<!-- &#45;5&#45;&gt;&#45;6 -->
<!-- 2 -->
<g id="node12" class="node">
<title>2</title>
<ellipse fill="#add8e6" stroke="#000000" cx="219.8597" cy="-14.4957" rx="14.4914" ry="14.4914"/>
<text text-anchor="middle" x="219.8597" y="-11.7957" font-family="Times,serif" font-size="9.00" fill="#000000">2</text>
</g>
<!-- &#45;5&#45;&gt;2 -->
<g id="edge14" class="edge">
<title>&#45;5&#45;&gt;2</title>
<path fill="none" stroke="#ff0000" stroke-width=".4778" stroke-dasharray="1,5" d="M187.0491,-142.6585C192.2968,-122.1601 205.7464,-69.624 213.7019,-38.5488"/>
<polygon fill="#ff0000" stroke="#ff0000" stroke-width=".4778" points="217.1747,-39.0955 216.2642,-28.5399 210.3934,-37.3594 217.1747,-39.0955"/>
</g>
<!-- &#45;7 -->
<g id="node7" class="node">
<title>&#45;7</title>
<polygon fill="#d3d3d3" stroke="#000000" points="278.8621,-159.7107 254.8572,-159.7107 254.8572,-142.7107 278.8621,-142.7107 278.8621,-159.7107"/>
<text text-anchor="middle" x="266.8597" y="-148.5107" font-family="Times,serif" font-size="9.00" fill="#000000">&#45;7</text>
</g>
<!-- &#45;6&#45;&gt;&#45;7 -->
<!-- &#45;8 -->
<g id="node8" class="node">
<title>&#45;8</title>
<polygon fill="#d3d3d3" stroke="#000000" points="319.8621,-159.7107 295.8572,-159.7107 295.8572,-142.7107 319.8621,-142.7107 319.8621,-159.7107"/>
<text text-anchor="middle" x="307.8597" y="-148.5107" font-family="Times,serif" font-size="9.00" fill="#000000">&#45;8</text>
</g>
<!-- &#45;7&#45;&gt;&#45;8 -->
<!-- &#45;7&#45;&gt;2 -->
<g id="edge12" class="edge">
<title>&#45;7&#45;&gt;2</title>
<path fill="none" stroke="#ff0000" stroke-width="1.5678" d="M263.9196,-142.6585C256.8418,-122.0705 238.6538,-69.1646 227.9891,-38.143"/>
<polygon fill="#ff0000" stroke="#ff0000" stroke-width="1.5678" points="231.2488,-36.8587 224.6878,-28.5399 224.629,-39.1345 231.2488,-36.8587"/>
</g>
<!-- 3 -->
<g id="node13" class="node">
<title>3</title>
<ellipse fill="#add8e6" stroke="#000000" cx="266.8597" cy="-14.4957" rx="14.4914" ry="14.4914"/>
<text text-anchor="middle" x="266.8597" y="-11.7957" font-family="Times,serif" font-size="9.00" fill="#000000">3</text>
</g>
<!-- &#45;7&#45;&gt;3 -->
<g id="edge13" class="edge">
<title>&#45;7&#45;&gt;3</title>
<path fill="none" stroke="#ff0000" stroke-width=".1644" d="M266.8597,-142.6585C266.8597,-122.3692 266.8597,-70.6929 266.8597,-39.5068"/>
<polygon fill="#ff0000" stroke="#ff0000" stroke-width=".1644" points="270.3597,-39.4154 266.8597,-29.4154 263.3597,-39.4155 270.3597,-39.4154"/>
</g>
<!-- &#45;9 -->
<g id="node9" class="node">
<title>&#45;9</title>
<polygon fill="#d3d3d3" stroke="#000000" points="360.8621,-159.7107 336.8572,-159.7107 336.8572,-142.7107 360.8621,-142.7107 360.8621,-159.7107"/>
<text text-anchor="middle" x="348.8597" y="-148.5107" font-family="Times,serif" font-size="9.00" fill="#000000">&#45;9</text>
</g>
<!-- &#45;8&#45;&gt;&#45;9 -->
<!-- 0 -->
<g id="node10" class="node">
<title>0</title>
<ellipse fill="#add8e6" stroke="#000000" cx="125.8597" cy="-14.4957" rx="14.4914" ry="14.4914"/>
<text text-anchor="middle" x="125.8597" y="-11.7957" font-family="Times,serif" font-size="9.00" fill="#000000">0</text>
</g>
<!-- 1 -->
<g id="node11" class="node">
<title>1</title>
<ellipse fill="#add8e6" stroke="#000000" cx="172.8597" cy="-14.4957" rx="14.4914" ry="14.4914"/>
<text text-anchor="middle" x="172.8597" y="-11.7957" font-family="Times,serif" font-size="9.00" fill="#000000">1</text>
</g>
<!-- 0&#45;&gt;1 -->
<!-- 1&#45;&gt;2 -->
<!-- 2&#45;&gt;3 -->
</g>
</svg>
