<?xml version="1.0" encoding="UTF-8" standalone="no"?>
<!DOCTYPE svg PUBLIC "-//W3C//DTD SVG 1.1//EN"
 "http://www.w3.org/Graphics/SVG/1.1/DTD/svg11.dtd">
<!-- Generated by graphviz version 2.40.1 (20161225.0304)
 -->
<!-- Title: %3 Pages: 1 -->
<svg width="413pt" height="90pt"
 viewBox="0.00 0.00 412.99 89.99" xmlns="http://www.w3.org/2000/svg" xmlns:xlink="http://www.w3.org/1999/xlink">
<g id="graph0" class="graph" transform="scale(1 1) rotate(0) translate(4 85.9914)">
<title>%3</title>
<polygon fill="#ffffff" stroke="transparent" points="-4,4 -4,-85.9914 408.9914,-85.9914 408.9914,4 -4,4"/>
<!-- &#45;1 -->
<g id="node1" class="node">
<title>&#45;1</title>
<polygon fill="#d3d3d3" stroke="#000000" points="116.4981,-81.9914 92.4932,-81.9914 92.4932,-64.9914 116.4981,-64.9914 116.4981,-81.9914"/>
<text text-anchor="middle" x="104.4957" y="-70.7914" font-family="Times,serif" font-size="9.00" fill="#000000">&#45;1</text>
</g>
<!-- &#45;2 -->
<g id="node2" class="node">
<title>&#45;2</title>
<polygon fill="#d3d3d3" stroke="#000000" points="157.4981,-81.9914 133.4932,-81.9914 133.4932,-64.9914 157.4981,-64.9914 157.4981,-81.9914"/>
<text text-anchor="middle" x="145.4957" y="-70.7914" font-family="Times,serif" font-size="9.00" fill="#000000">&#45;2</text>
</g>
<!-- &#45;1&#45;&gt;&#45;2 -->
<!-- &#45;3 -->
<g id="node3" class="node">
<title>&#45;3</title>
<polygon fill="#d3d3d3" stroke="#000000" points="271.4981,-81.9914 247.4932,-81.9914 247.4932,-64.9914 271.4981,-64.9914 271.4981,-81.9914"/>
<text text-anchor="middle" x="259.4957" y="-70.7914" font-family="Times,serif" font-size="9.00" fill="#000000">&#45;3</text>
</g>
<!-- &#45;2&#45;&gt;&#45;3 -->
<!-- 2 -->
<g id="node6" class="node">
<title>2</title>
<ellipse fill="#add8e6" stroke="#000000" cx="108.4957" cy="-14.4957" rx="14.4914" ry="14.4914"/>
<text text-anchor="middle" x="108.4957" y="-11.7957" font-family="Times,serif" font-size="9.00" fill="#000000">2</text>
</g>
<!-- &#45;2&#45;&gt;2 -->
<g id="edge12" class="edge">
<title>&#45;2&#45;&gt;2</title>
<path fill="none" stroke="#00ff00" stroke-width=".4854" stroke-dasharray="1,5" d="M140.0362,-64.7864C135.2344,-57.1299 128.0477,-45.6709 121.7467,-35.6241"/>
<polygon fill="#00ff00" stroke="#00ff00" stroke-width=".4854" points="124.5812,-33.5562 116.3029,-26.9441 118.651,-37.2754 124.5812,-33.5562"/>
</g>
<!-- 6 -->
<g id="node10" class="node">
<title>6</title>
<ellipse fill="#add8e6" stroke="#000000" cx="296.4957" cy="-14.4957" rx="14.4914" ry="14.4914"/>
<text text-anchor="middle" x="296.4957" y="-11.7957" font-family="Times,serif" font-size="9.00" fill="#000000">6</text>
</g>
<!-- &#45;3&#45;&gt;6 -->
<g id="edge11" class="edge">
<title>&#45;3&#45;&gt;6</title>
<path fill="none" stroke="#ff0000" stroke-width=".2421" d="M264.9552,-64.7864C269.757,-57.1299 276.9437,-45.6709 283.2447,-35.6241"/>
<polygon fill="#ff0000" stroke="#ff0000" stroke-width=".2421" points="286.3404,-37.2754 288.6885,-26.9441 280.4102,-33.5562 286.3404,-37.2754"/>
</g>
<!-- 0 -->
<g id="node4" class="node">
<title>0</title>
<ellipse fill="#add8e6" stroke="#000000" cx="14.4957" cy="-14.4957" rx="14.4914" ry="14.4914"/>
<text text-anchor="middle" x="14.4957" y="-11.7957" font-family="Times,serif" font-size="9.00" fill="#000000">0</text>
</g>
<!-- 1 -->
<g id="node5" class="node">
<title>1</title>
<ellipse fill="#add8e6" stroke="#000000" cx="61.4957" cy="-14.4957" rx="14.4914" ry="14.4914"/>
<text text-anchor="middle" x="61.4957" y="-11.7957" font-family="Times,serif" font-size="9.00" fill="#000000">1</text>
</g>
<!-- 0&#45;&gt;1 -->
<!-- 1&#45;&gt;2 -->
<!-- 3 -->
<g id="node7" class="node">
<title>3</title>
<ellipse fill="#add8e6" stroke="#000000" cx="155.4957" cy="-14.4957" rx="14.4914" ry="14.4914"/>
<text text-anchor="middle" x="155.4957" y="-11.7957" font-family="Times,serif" font-size="9.00" fill="#000000">3</text>
</g>
<!-- 2&#45;&gt;3 -->
<!-- 4 -->
<g id="node8" class="node">
<title>4</title>
<ellipse fill="#add8e6" stroke="#000000" cx="202.4957" cy="-14.4957" rx="14.4914" ry="14.4914"/>
<text text-anchor="middle" x="202.4957" y="-11.7957" font-family="Times,serif" font-size="9.00" fill="#000000">4</text>
</g>
<!-- 3&#45;&gt;4 -->
<!-- 5 -->
<g id="node9" class="node">
<title>5</title>
<ellipse fill="#add8e6" stroke="#000000" cx="249.4957" cy="-14.4957" rx="14.4914" ry="14.4914"/>
<text text-anchor="middle" x="249.4957" y="-11.7957" font-family="Times,serif" font-size="9.00" fill="#000000">5</text>
</g>
<!-- 4&#45;&gt;5 -->
<!-- 5&#45;&gt;6 -->
<!-- 7 -->
<g id="node11" class="node">
<title>7</title>
<ellipse fill="#add8e6" stroke="#000000" cx="343.4957" cy="-14.4957" rx="14.4914" ry="14.4914"/>
<text text-anchor="middle" x="343.4957" y="-11.7957" font-family="Times,serif" font-size="9.00" fill="#000000">7</text>
</g>
<!-- 6&#45;&gt;7 -->
<!-- 8 -->
<g id="node12" class="node">
<title>8</title>
<ellipse fill="#add8e6" stroke="#000000" cx="390.4957" cy="-14.4957" rx="14.4914" ry="14.4914"/>
<text text-anchor="middle" x="390.4957" y="-11.7957" font-family="Times,serif" font-size="9.00" fill="#000000">8</text>
</g>
<!-- 7&#45;&gt;8 -->
</g>
</svg>
