<?xml version="1.0" encoding="UTF-8" standalone="no"?>
<!DOCTYPE svg PUBLIC "-//W3C//DTD SVG 1.1//EN"
 "http://www.w3.org/Graphics/SVG/1.1/DTD/svg11.dtd">
<!-- Generated by graphviz version 2.40.1 (20161225.0304)
 -->
<!-- Title: %3 Pages: 1 -->
<svg width="413pt" height="264pt"
 viewBox="0.00 0.00 412.99 263.79" xmlns="http://www.w3.org/2000/svg" xmlns:xlink="http://www.w3.org/1999/xlink">
<g id="graph0" class="graph" transform="scale(1 1) rotate(0) translate(4 259.7853)">
<title>%3</title>
<polygon fill="#ffffff" stroke="transparent" points="-4,4 -4,-259.7853 408.9914,-259.7853 408.9914,4 -4,4"/>
<!-- &#45;1 -->
<g id="node1" class="node">
<title>&#45;1</title>
<polygon fill="#d3d3d3" stroke="#000000" points="77.4981,-243.4257 53.4932,-243.4257 53.4932,-226.4257 77.4981,-226.4257 77.4981,-243.4257"/>
<text text-anchor="middle" x="65.4957" y="-232.2257" font-family="Times,serif" font-size="9.00" fill="#000000">&#45;1</text>
</g>
<!-- &#45;2 -->
<g id="node2" class="node">
<title>&#45;2</title>
<polygon fill="#d3d3d3" stroke="#000000" points="118.4981,-243.4257 94.4932,-243.4257 94.4932,-226.4257 118.4981,-226.4257 118.4981,-243.4257"/>
<text text-anchor="middle" x="106.4957" y="-232.2257" font-family="Times,serif" font-size="9.00" fill="#000000">&#45;2</text>
</g>
<!-- &#45;1&#45;&gt;&#45;2 -->
<!-- &#45;3 -->
<g id="node3" class="node">
<title>&#45;3</title>
<polygon fill="#d3d3d3" stroke="#000000" points="159.4981,-243.4257 135.4932,-243.4257 135.4932,-226.4257 159.4981,-226.4257 159.4981,-243.4257"/>
<text text-anchor="middle" x="147.4957" y="-232.2257" font-family="Times,serif" font-size="9.00" fill="#000000">&#45;3</text>
</g>
<!-- &#45;2&#45;&gt;&#45;3 -->
<!-- 7 -->
<g id="node11" class="node">
<title>7</title>
<ellipse fill="#add8e6" stroke="#000000" cx="343.4957" cy="-85.851" rx="14.4914" ry="14.4914"/>
<text text-anchor="middle" x="343.4957" y="-83.151" font-family="Times,serif" font-size="9.00" fill="#000000">7</text>
</g>
<!-- &#45;2&#45;&gt;7 -->
<g id="edge12" class="edge">
<title>&#45;2&#45;&gt;7</title>
<path fill="none" stroke="#00ff00" stroke-width=".5316" stroke-dasharray="1,5" d="M109.1049,-226.2143C115.3888,-206.8044 133.2758,-159.8663 165.4957,-136.3467 222.2685,-94.9041 254.3908,-126.842 319.4957,-100.3467 320.3636,-99.9935 321.2367,-99.6115 322.1093,-99.2069"/>
<polygon fill="#00ff00" stroke="#00ff00" stroke-width=".5316" points="324.05,-102.1364 331.1799,-94.2996 320.7191,-95.9796 324.05,-102.1364"/>
</g>
<!-- 142 -->
<g id="node14" class="node">
<title>142</title>
<ellipse fill="#ffffff" stroke="#000000" cx="59.4957" cy="-157.2064" rx="20.7202" ry="20.7202"/>
<text text-anchor="middle" x="59.4957" y="-154.5064" font-family="Times,serif" font-size="9.00" fill="#000000">142</text>
</g>
<!-- &#45;2&#45;&gt;142 -->
<g id="edge14" class="edge">
<title>&#45;2&#45;&gt;142</title>
<path fill="none" stroke="#00ff00" stroke-width=".303" d="M101.2863,-226.3114C95.1506,-216.1654 84.6614,-198.8205 75.727,-184.0465"/>
<polygon fill="#00ff00" stroke="#00ff00" stroke-width=".303" points="78.5876,-182.0131 70.4178,-175.2673 72.5977,-185.6354 78.5876,-182.0131"/>
</g>
<!-- 2 -->
<g id="node6" class="node">
<title>2</title>
<ellipse fill="#add8e6" stroke="#000000" cx="108.4957" cy="-85.851" rx="14.4914" ry="14.4914"/>
<text text-anchor="middle" x="108.4957" y="-83.151" font-family="Times,serif" font-size="9.00" fill="#000000">2</text>
</g>
<!-- &#45;3&#45;&gt;2 -->
<g id="edge11" class="edge">
<title>&#45;3&#45;&gt;2</title>
<path fill="none" stroke="#00ff00" stroke-width=".3899" stroke-dasharray="1,5" d="M145.1729,-226.0468C139.2837,-203.5358 123.6108,-143.6275 114.777,-109.8607"/>
<polygon fill="#00ff00" stroke="#00ff00" stroke-width=".3899" points="118.0873,-108.6851 112.1702,-99.8966 111.3152,-110.4568 118.0873,-108.6851"/>
</g>
<!-- 182 -->
<g id="node15" class="node">
<title>182</title>
<ellipse fill="#ffffff" stroke="#000000" cx="195.4957" cy="-157.2064" rx="20.7202" ry="20.7202"/>
<text text-anchor="middle" x="195.4957" y="-154.5064" font-family="Times,serif" font-size="9.00" fill="#000000">182</text>
</g>
<!-- &#45;3&#45;&gt;182 -->
<g id="edge15" class="edge">
<title>&#45;3&#45;&gt;182</title>
<path fill="none" stroke="#00ff00" stroke-width=".1069" d="M152.8159,-226.3114C159.1226,-216.0999 169.9329,-198.5964 179.0954,-183.7609"/>
<polygon fill="#00ff00" stroke="#00ff00" stroke-width=".1069" points="182.2555,-185.3049 184.5324,-174.9576 176.2998,-181.6266 182.2555,-185.3049"/>
</g>
<!-- 0 -->
<g id="node4" class="node">
<title>0</title>
<ellipse fill="#add8e6" stroke="#000000" cx="14.4957" cy="-85.851" rx="14.4914" ry="14.4914"/>
<text text-anchor="middle" x="14.4957" y="-83.151" font-family="Times,serif" font-size="9.00" fill="#000000">0</text>
</g>
<!-- 1 -->
<g id="node5" class="node">
<title>1</title>
<ellipse fill="#add8e6" stroke="#000000" cx="61.4957" cy="-85.851" rx="14.4914" ry="14.4914"/>
<text text-anchor="middle" x="61.4957" y="-83.151" font-family="Times,serif" font-size="9.00" fill="#000000">1</text>
</g>
<!-- 0&#45;&gt;1 -->
<!-- 1&#45;&gt;2 -->
<!-- 87 -->
<g id="node16" class="node">
<title>87</title>
<ellipse fill="#ffffff" stroke="#000000" cx="108.4957" cy="-17.6777" rx="17.8571" ry="17.8571"/>
<text text-anchor="middle" x="108.4957" y="-14.9777" font-family="Times,serif" font-size="9.00" fill="#000000">87</text>
</g>
<!-- 1&#45;&gt;87 -->
<g id="edge18" class="edge">
<title>1&#45;&gt;87</title>
<path fill="none" stroke="#00ff00" stroke-width=".3032" d="M69.8983,-73.663C76.1487,-64.5969 84.87,-51.9467 92.4413,-40.9645"/>
<polygon fill="#00ff00" stroke="#00ff00" stroke-width=".3032" points="95.4032,-42.8346 98.1977,-32.6149 89.6401,-38.8613 95.4032,-42.8346"/>
</g>
<!-- 3 -->
<g id="node7" class="node">
<title>3</title>
<ellipse fill="#add8e6" stroke="#000000" cx="155.4957" cy="-85.851" rx="14.4914" ry="14.4914"/>
<text text-anchor="middle" x="155.4957" y="-83.151" font-family="Times,serif" font-size="9.00" fill="#000000">3</text>
</g>
<!-- 2&#45;&gt;3 -->
<!-- 4 -->
<g id="node8" class="node">
<title>4</title>
<ellipse fill="#add8e6" stroke="#000000" cx="202.4957" cy="-85.851" rx="14.4914" ry="14.4914"/>
<text text-anchor="middle" x="202.4957" y="-83.151" font-family="Times,serif" font-size="9.00" fill="#000000">4</text>
</g>
<!-- 3&#45;&gt;4 -->
<!-- 5 -->
<g id="node9" class="node">
<title>5</title>
<ellipse fill="#add8e6" stroke="#000000" cx="249.4957" cy="-85.851" rx="14.4914" ry="14.4914"/>
<text text-anchor="middle" x="249.4957" y="-83.151" font-family="Times,serif" font-size="9.00" fill="#000000">5</text>
</g>
<!-- 4&#45;&gt;5 -->
<!-- 6 -->
<g id="node10" class="node">
<title>6</title>
<ellipse fill="#add8e6" stroke="#000000" cx="296.4957" cy="-85.851" rx="14.4914" ry="14.4914"/>
<text text-anchor="middle" x="296.4957" y="-83.151" font-family="Times,serif" font-size="9.00" fill="#000000">6</text>
</g>
<!-- 5&#45;&gt;6 -->
<!-- 6&#45;&gt;7 -->
<!-- 8 -->
<g id="node12" class="node">
<title>8</title>
<ellipse fill="#add8e6" stroke="#000000" cx="390.4957" cy="-85.851" rx="14.4914" ry="14.4914"/>
<text text-anchor="middle" x="390.4957" y="-83.151" font-family="Times,serif" font-size="9.00" fill="#000000">8</text>
</g>
<!-- 7&#45;&gt;8 -->
<!-- 104 -->
<g id="node13" class="node">
<title>104</title>
<ellipse fill="#ffffff" stroke="#000000" cx="198.4957" cy="-234.9257" rx="20.7202" ry="20.7202"/>
<text text-anchor="middle" x="198.4957" y="-232.2257" font-family="Times,serif" font-size="9.00" fill="#000000">104</text>
</g>
<!-- 182&#45;&gt;2 -->
<g id="edge16" class="edge">
<title>182&#45;&gt;2</title>
<path fill="none" stroke="#ff0000" stroke-width=".1841" d="M179.1317,-143.785C164.5127,-131.7948 143.0856,-114.2209 127.6681,-101.5758"/>
<polygon fill="#ff0000" stroke="#ff0000" stroke-width=".1841" points="129.7541,-98.76 119.8025,-95.1246 125.315,-104.1725 129.7541,-98.76"/>
</g>
<!-- 87&#45;&gt;2 -->
<g id="edge13" class="edge">
<title>87&#45;&gt;2</title>
<path fill="none" stroke="#ff0000" stroke-width=".196" d="M108.4957,-35.8405C108.4957,-43.4961 108.4957,-52.5338 108.4957,-60.8058"/>
<polygon fill="#ff0000" stroke="#ff0000" stroke-width=".196" points="104.9958,-61.0584 108.4957,-71.0584 111.9958,-61.0585 104.9958,-61.0584"/>
</g>
<!-- 87&#45;&gt;4 -->
<g id="edge19" class="edge">
<title>87&#45;&gt;4</title>
<path fill="none" stroke="#00ff00" stroke-width=".1601" d="M123.0768,-28.2526C138.894,-39.724 164.2637,-58.1233 182.0632,-71.0324"/>
<polygon fill="#00ff00" stroke="#00ff00" stroke-width=".1601" points="180.4405,-74.1791 190.5905,-77.2168 184.5502,-68.5125 180.4405,-74.1791"/>
</g>
<!-- 252 -->
<g id="node17" class="node">
<title>252</title>
<ellipse fill="#ffffff" stroke="#000000" cx="343.4957" cy="-157.2064" rx="20.7202" ry="20.7202"/>
<text text-anchor="middle" x="343.4957" y="-154.5064" font-family="Times,serif" font-size="9.00" fill="#000000">252</text>
</g>
<!-- 252&#45;&gt;7 -->
<g id="edge17" class="edge">
<title>252&#45;&gt;7</title>
<path fill="none" stroke="#00ff00" stroke-width=".5176" d="M343.4957,-136.1833C343.4957,-128.1798 343.4957,-118.9855 343.4957,-110.6631"/>
<polygon fill="#00ff00" stroke="#00ff00" stroke-width=".5176" points="346.9958,-110.3983 343.4957,-100.3984 339.9958,-110.3984 346.9958,-110.3983"/>
</g>
</g>
</svg>
