<?xml version="1.0" encoding="UTF-8" standalone="no"?>
<!DOCTYPE svg PUBLIC "-//W3C//DTD SVG 1.1//EN"
 "http://www.w3.org/Graphics/SVG/1.1/DTD/svg11.dtd">
<!-- Generated by graphviz version 2.40.1 (20161225.0304)
 -->
<!-- Title: %3 Pages: 1 -->
<svg width="485pt" height="266pt"
 viewBox="0.00 0.00 484.77 265.93" xmlns="http://www.w3.org/2000/svg" xmlns:xlink="http://www.w3.org/1999/xlink">
<g id="graph0" class="graph" transform="scale(1 1) rotate(0) translate(4 261.9326)">
<title>%3</title>
<polygon fill="#ffffff" stroke="transparent" points="-4,4 -4,-261.9326 480.7661,-261.9326 480.7661,4 -4,4"/>
<!-- 0 -->
<g id="node1" class="node">
<title>0</title>
<polygon fill="#d3d3d3" stroke="#000000" points="196.389,-257.9326 176.3771,-257.9326 176.3771,-240.9326 196.389,-240.9326 196.389,-257.9326"/>
<text text-anchor="middle" x="186.383" y="-246.7326" font-family="Times,serif" font-size="9.00" fill="#000000">0</text>
</g>
<!-- 1 -->
<g id="node2" class="node">
<title>1</title>
<polygon fill="#d3d3d3" stroke="#000000" points="248.389,-257.9326 228.3771,-257.9326 228.3771,-240.9326 248.389,-240.9326 248.389,-257.9326"/>
<text text-anchor="middle" x="238.383" y="-246.7326" font-family="Times,serif" font-size="9.00" fill="#000000">1</text>
</g>
<!-- 0&#45;&gt;1 -->
<!-- E3 -->
<g id="node7" class="node">
<title>E3</title>
<ellipse fill="#ffa07a" stroke="#000000" cx="183.383" cy="-18.383" rx="18.2668" ry="18.2668"/>
<text text-anchor="middle" x="183.383" y="-15.683" font-family="Times,serif" font-size="9.00" fill="#000000">E3</text>
</g>
<!-- 0&#45;&gt;E3 -->
<g id="edge11" class="edge">
<title>0&#45;&gt;E3</title>
<path fill="none" stroke="#00ff00" stroke-width="2.3421" d="M186.2691,-240.6573C185.8576,-208.9623 184.4364,-99.5115 183.7542,-46.9692"/>
<polygon fill="#00ff00" stroke="#00ff00" stroke-width="2.3421" points="187.2539,-46.9178 183.6243,-36.9641 180.2545,-47.0087 187.2539,-46.9178"/>
</g>
<!-- 5339 -->
<g id="node15" class="node">
<title>5339</title>
<ellipse fill="#add8e6" stroke="#000000" cx="68.383" cy="-180.891" rx="24.0833" ry="24.0833"/>
<text text-anchor="middle" x="68.383" y="-182.691" font-family="Times,serif" font-size="9.00" fill="#000000">5339</text>
<text text-anchor="middle" x="68.383" y="-173.691" font-family="Times,serif" font-size="9.00" fill="#000000">sigm</text>
</g>
<!-- 0&#45;&gt;5339 -->
<g id="edge17" class="edge">
<title>0&#45;&gt;5339</title>
<path fill="none" stroke="#00ff00" stroke-width=".7127" d="M176.3224,-243.5888C159.247,-233.6703 123.9573,-213.1719 98.366,-198.3069"/>
<polygon fill="#00ff00" stroke="#00ff00" stroke-width=".7127" points="99.8331,-195.1115 89.4281,-193.1152 96.3172,-201.1645 99.8331,-195.1115"/>
</g>
<!-- 2 -->
<g id="node3" class="node">
<title>2</title>
<polygon fill="#d3d3d3" stroke="#000000" points="318.389,-257.9326 298.3771,-257.9326 298.3771,-240.9326 318.389,-240.9326 318.389,-257.9326"/>
<text text-anchor="middle" x="308.383" y="-246.7326" font-family="Times,serif" font-size="9.00" fill="#000000">2</text>
</g>
<!-- 1&#45;&gt;2 -->
<!-- E4 -->
<g id="node8" class="node">
<title>E4</title>
<ellipse fill="#eee8aa" stroke="#000000" cx="238.383" cy="-18.383" rx="18.2668" ry="18.2668"/>
<text text-anchor="middle" x="238.383" y="-15.683" font-family="Times,serif" font-size="9.00" fill="#000000">E4</text>
</g>
<!-- 1&#45;&gt;E4 -->
<g id="edge12" class="edge">
<title>1&#45;&gt;E4</title>
<path fill="none" stroke="#00ff00" stroke-width="2.6118" d="M238.383,-240.6573C238.383,-208.9623 238.383,-99.5115 238.383,-46.9692"/>
<polygon fill="#00ff00" stroke="#00ff00" stroke-width="2.6118" points="241.8831,-46.964 238.383,-36.9641 234.8831,-46.9641 241.8831,-46.964"/>
</g>
<!-- E7 -->
<g id="node11" class="node">
<title>E7</title>
<ellipse fill="#ffa07a" stroke="#000000" cx="403.383" cy="-18.383" rx="18.2668" ry="18.2668"/>
<text text-anchor="middle" x="403.383" y="-15.683" font-family="Times,serif" font-size="9.00" fill="#000000">E7</text>
</g>
<!-- 2&#45;&gt;E7 -->
<g id="edge13" class="edge">
<title>2&#45;&gt;E7</title>
<path fill="none" stroke="#ff0000" stroke-width="1.991" d="M311.9912,-240.6573C325.1774,-208.5871 371.0959,-96.9087 392.3868,-45.127"/>
<polygon fill="#ff0000" stroke="#ff0000" stroke-width="1.991" points="395.7339,-46.1903 396.2996,-35.6106 389.2598,-43.5284 395.7339,-46.1903"/>
</g>
<!-- E0 -->
<g id="node4" class="node">
<title>E0</title>
<ellipse fill="#ffa07a" stroke="#000000" cx="18.383" cy="-18.383" rx="18.2668" ry="18.2668"/>
<text text-anchor="middle" x="18.383" y="-15.683" font-family="Times,serif" font-size="9.00" fill="#000000">E0</text>
</g>
<!-- E1 -->
<g id="node5" class="node">
<title>E1</title>
<ellipse fill="#ffa07a" stroke="#000000" cx="73.383" cy="-18.383" rx="18.2668" ry="18.2668"/>
<text text-anchor="middle" x="73.383" y="-15.683" font-family="Times,serif" font-size="9.00" fill="#000000">E1</text>
</g>
<!-- E0&#45;&gt;E1 -->
<!-- E2 -->
<g id="node6" class="node">
<title>E2</title>
<ellipse fill="#ffa07a" stroke="#000000" cx="128.383" cy="-18.383" rx="18.2668" ry="18.2668"/>
<text text-anchor="middle" x="128.383" y="-15.683" font-family="Times,serif" font-size="9.00" fill="#000000">E2</text>
</g>
<!-- E1&#45;&gt;E2 -->
<!-- E2&#45;&gt;E3 -->
<!-- E3&#45;&gt;E4 -->
<!-- E5 -->
<g id="node9" class="node">
<title>E5</title>
<ellipse fill="#ffa07a" stroke="#000000" cx="293.383" cy="-18.383" rx="18.2668" ry="18.2668"/>
<text text-anchor="middle" x="293.383" y="-15.683" font-family="Times,serif" font-size="9.00" fill="#000000">E5</text>
</g>
<!-- E4&#45;&gt;E5 -->
<!-- E6 -->
<g id="node10" class="node">
<title>E6</title>
<ellipse fill="#87cefa" stroke="#000000" cx="348.383" cy="-18.383" rx="18.2668" ry="18.2668"/>
<text text-anchor="middle" x="348.383" y="-15.683" font-family="Times,serif" font-size="9.00" fill="#000000">E6</text>
</g>
<!-- E5&#45;&gt;E6 -->
<!-- E6&#45;&gt;E7 -->
<!-- E8 -->
<g id="node12" class="node">
<title>E8</title>
<ellipse fill="#ffa07a" stroke="#000000" cx="458.383" cy="-18.383" rx="18.2668" ry="18.2668"/>
<text text-anchor="middle" x="458.383" y="-15.683" font-family="Times,serif" font-size="9.00" fill="#000000">E8</text>
</g>
<!-- E7&#45;&gt;E8 -->
<!-- 4995 -->
<g id="node13" class="node">
<title>4995</title>
<ellipse fill="#add8e6" stroke="#000000" cx="68.383" cy="-96.8077" rx="24.0833" ry="24.0833"/>
<text text-anchor="middle" x="68.383" y="-98.6077" font-family="Times,serif" font-size="9.00" fill="#000000">4995</text>
<text text-anchor="middle" x="68.383" y="-89.6077" font-family="Times,serif" font-size="9.00" fill="#000000">sigm</text>
</g>
<!-- 4995&#45;&gt;E0 -->
<g id="edge14" class="edge">
<title>4995&#45;&gt;E0</title>
<path fill="none" stroke="#ff0000" stroke-width=".2004" d="M55.2461,-76.2026C48.6456,-65.8497 40.6088,-53.244 33.726,-42.4483"/>
<polygon fill="#ff0000" stroke="#ff0000" stroke-width=".2004" points="36.5998,-40.4453 28.2726,-33.8948 30.6974,-44.2085 36.5998,-40.4453"/>
</g>
<!-- 4995&#45;&gt;E7 -->
<g id="edge16" class="edge">
<title>4995&#45;&gt;E7</title>
<path fill="none" stroke="#ff0000" stroke-width=".3399" d="M86.6127,-81.0771C91.1797,-77.8508 96.2488,-74.8176 101.383,-72.7661 215.4398,-27.1932 260.2513,-79.5505 375.383,-36.7661 376.8139,-36.2344 378.2458,-35.6184 379.6633,-34.9411"/>
<polygon fill="#ff0000" stroke="#ff0000" stroke-width=".3399" points="381.6922,-37.8134 388.6495,-29.823 378.2278,-31.7308 381.6922,-37.8134"/>
</g>
<!-- 5033 -->
<g id="node14" class="node">
<title>5033</title>
<ellipse fill="#add8e6" stroke="#000000" cx="134.383" cy="-96.8077" rx="24.0833" ry="24.0833"/>
<text text-anchor="middle" x="134.383" y="-98.6077" font-family="Times,serif" font-size="9.00" fill="#000000">5033</text>
<text text-anchor="middle" x="134.383" y="-89.6077" font-family="Times,serif" font-size="9.00" fill="#000000">sigm</text>
</g>
<!-- 5033&#45;&gt;E2 -->
<g id="edge15" class="edge">
<title>5033&#45;&gt;E2</title>
<path fill="none" stroke="#ff0000" stroke-width=".6235" d="M132.5175,-72.4236C131.8983,-64.33 131.2035,-55.248 130.5627,-46.8729"/>
<polygon fill="#ff0000" stroke="#ff0000" stroke-width=".6235" points="134.0425,-46.474 129.7898,-36.7702 127.0629,-47.008 134.0425,-46.474"/>
</g>
<!-- 5339&#45;&gt;E0 -->
<g id="edge19" class="edge">
<title>5339&#45;&gt;E0</title>
<path fill="none" stroke="#00ff00" stroke-width=".399" d="M54.9607,-160.5794C48.1043,-149.3085 40.211,-134.7861 35.383,-120.8494 27.0391,-96.7631 22.7265,-68.0342 20.5373,-47.1339"/>
<polygon fill="#00ff00" stroke="#00ff00" stroke-width=".399" points="24.0034,-46.6094 19.576,-36.984 17.0346,-47.2695 24.0034,-46.6094"/>
</g>
<!-- 5339&#45;&gt;4995 -->
<g id="edge18" class="edge">
<title>5339&#45;&gt;4995</title>
<path fill="none" stroke="#ff0000" stroke-width=".1074" d="M68.383,-156.5706C68.383,-148.6398 68.383,-139.6791 68.383,-131.1553"/>
<polygon fill="#ff0000" stroke="#ff0000" stroke-width=".1074" points="71.8831,-131.0734 68.383,-121.0734 64.8831,-131.0735 71.8831,-131.0734"/>
</g>
</g>
</svg>
