<?xml version="1.0" encoding="UTF-8" standalone="no"?>
<!DOCTYPE svg PUBLIC "-//W3C//DTD SVG 1.1//EN"
 "http://www.w3.org/Graphics/SVG/1.1/DTD/svg11.dtd">
<!-- Generated by graphviz version 2.40.1 (20161225.0304)
 -->
<!-- Title: %3 Pages: 1 -->
<svg width="565pt" height="175pt"
 viewBox="0.00 0.00 565.04 174.79" xmlns="http://www.w3.org/2000/svg" xmlns:xlink="http://www.w3.org/1999/xlink">
<g id="graph0" class="graph" transform="scale(1 1) rotate(0) translate(4 170.7893)">
<title>%3</title>
<polygon fill="#ffffff" stroke="transparent" points="-4,4 -4,-170.7893 561.0404,-170.7893 561.0404,4 -4,4"/>
<!-- E0 -->
<g id="node1" class="node">
<title>E0</title>
<polygon fill="#d3d3d3" stroke="#000000" points="25.9963,-166.7893 .0012,-166.7893 .0012,-149.7893 25.9963,-149.7893 25.9963,-166.7893"/>
<text text-anchor="middle" x="12.9988" y="-155.5893" font-family="Times,serif" font-size="9.00" fill="#000000">E0</text>
</g>
<!-- E1 -->
<g id="node2" class="node">
<title>E1</title>
<polygon fill="#d3d3d3" stroke="#000000" points="69.9963,-166.7893 44.0012,-166.7893 44.0012,-149.7893 69.9963,-149.7893 69.9963,-166.7893"/>
<text text-anchor="middle" x="56.9988" y="-155.5893" font-family="Times,serif" font-size="9.00" fill="#000000">E1</text>
</g>
<!-- E0&#45;&gt;E1 -->
<!-- S -->
<g id="node13" class="node">
<title>S</title>
<ellipse fill="#87cefa" stroke="#000000" cx="427.9988" cy="-14.853" rx="14.7075" ry="14.7075"/>
<text text-anchor="middle" x="427.9988" y="-12.153" font-family="Times,serif" font-size="9.00" fill="#000000">S</text>
</g>
<!-- E0&#45;&gt;S -->
<g id="edge14" class="edge">
<title>E0&#45;&gt;S</title>
<path fill="none" stroke="#ff0000" stroke-width="1.1721" d="M26.461,-152.9839C29.2738,-151.9047 32.2268,-150.7931 34.9988,-149.7893 191.6065,-93.0773 233.5024,-86.7245 389.9988,-29.7061 394.7407,-27.9784 399.7866,-26.0619 404.6,-24.1954"/>
<polygon fill="#ff0000" stroke="#ff0000" stroke-width="1.1721" points="405.9531,-27.4244 413.9817,-20.5112 403.3944,-20.9087 405.9531,-27.4244"/>
</g>
<!-- E2 -->
<g id="node3" class="node">
<title>E2</title>
<polygon fill="#d3d3d3" stroke="#000000" points="113.9963,-166.7893 88.0012,-166.7893 88.0012,-149.7893 113.9963,-149.7893 113.9963,-166.7893"/>
<text text-anchor="middle" x="100.9988" y="-155.5893" font-family="Times,serif" font-size="9.00" fill="#000000">E2</text>
</g>
<!-- E1&#45;&gt;E2 -->
<!-- 2 -->
<g id="node12" class="node">
<title>2</title>
<ellipse fill="#ffa07a" stroke="#000000" cx="366.9988" cy="-14.853" rx="14.4914" ry="14.4914"/>
<text text-anchor="middle" x="366.9988" y="-12.153" font-family="Times,serif" font-size="9.00" fill="#000000">2</text>
</g>
<!-- E1&#45;&gt;2 -->
<g id="edge23" class="edge">
<title>E1&#45;&gt;2</title>
<path fill="none" stroke="#00ff00" stroke-width=".3915" d="M70.3191,-152.1261C118.5121,-129.8273 284.1332,-53.1948 344.6387,-25.199"/>
<polygon fill="#00ff00" stroke="#00ff00" stroke-width=".3915" points="346.1223,-28.3691 353.7281,-20.9934 343.1827,-22.0162 346.1223,-28.3691"/>
</g>
<!-- E3 -->
<g id="node4" class="node">
<title>E3</title>
<polygon fill="#d3d3d3" stroke="#000000" points="157.9963,-166.7893 132.0012,-166.7893 132.0012,-149.7893 157.9963,-149.7893 157.9963,-166.7893"/>
<text text-anchor="middle" x="144.9988" y="-155.5893" font-family="Times,serif" font-size="9.00" fill="#000000">E3</text>
</g>
<!-- E2&#45;&gt;E3 -->
<!-- 0 -->
<g id="node10" class="node">
<title>0</title>
<ellipse fill="#eee8aa" stroke="#000000" cx="167.9988" cy="-14.853" rx="14.4914" ry="14.4914"/>
<text text-anchor="middle" x="167.9988" y="-12.153" font-family="Times,serif" font-size="9.00" fill="#000000">0</text>
</g>
<!-- E2&#45;&gt;0 -->
<g id="edge18" class="edge">
<title>E2&#45;&gt;0</title>
<path fill="none" stroke="#00ff00" stroke-width="1.4666" d="M101.9337,-149.662C104.0415,-132.7308 110.1868,-94.312 124.9988,-65.7061 131.4131,-53.3182 141.333,-41.3112 150.0292,-32.0778"/>
<polygon fill="#00ff00" stroke="#00ff00" stroke-width="1.4666" points="152.7278,-34.325 157.2373,-24.7377 147.7334,-29.4203 152.7278,-34.325"/>
</g>
<!-- E4 -->
<g id="node5" class="node">
<title>E4</title>
<polygon fill="#d3d3d3" stroke="#000000" points="201.9963,-166.7893 176.0012,-166.7893 176.0012,-149.7893 201.9963,-149.7893 201.9963,-166.7893"/>
<text text-anchor="middle" x="188.9988" y="-155.5893" font-family="Times,serif" font-size="9.00" fill="#000000">E4</text>
</g>
<!-- E3&#45;&gt;E4 -->
<!-- 1 -->
<g id="node11" class="node">
<title>1</title>
<ellipse fill="#ffa07a" stroke="#000000" cx="214.9988" cy="-14.853" rx="14.4914" ry="14.4914"/>
<text text-anchor="middle" x="214.9988" y="-12.153" font-family="Times,serif" font-size="9.00" fill="#000000">1</text>
</g>
<!-- E3&#45;&gt;1 -->
<g id="edge22" class="edge">
<title>E3&#45;&gt;1</title>
<path fill="none" stroke="#ff0000" stroke-width=".3503" d="M149.2045,-149.6033C157.1517,-133.1978 174.9295,-96.5334 189.9988,-65.7061 194.519,-56.4589 199.5202,-46.2763 203.8542,-37.4674"/>
<polygon fill="#ff0000" stroke="#ff0000" stroke-width=".3503" points="207.1258,-38.7463 208.4028,-28.2287 200.8456,-35.6543 207.1258,-38.7463"/>
</g>
<!-- E5 -->
<g id="node6" class="node">
<title>E5</title>
<polygon fill="#d3d3d3" stroke="#000000" points="246.9963,-166.7893 221.0012,-166.7893 221.0012,-149.7893 246.9963,-149.7893 246.9963,-166.7893"/>
<text text-anchor="middle" x="233.9988" y="-155.5893" font-family="Times,serif" font-size="9.00" fill="#000000">E5</text>
</g>
<!-- E4&#45;&gt;E5 -->
<!-- E4&#45;&gt;1 -->
<g id="edge24" class="edge">
<title>E4&#45;&gt;1</title>
<path fill="none" stroke="#00ff00" stroke-width=".2977" d="M189.7216,-149.5432C191.1763,-133.0374 194.8538,-96.2126 200.9988,-65.7061 202.7985,-56.7714 205.315,-47.0972 207.719,-38.6091"/>
<polygon fill="#00ff00" stroke="#00ff00" stroke-width=".2977" points="211.0892,-39.5538 210.5396,-28.9732 204.3711,-37.5872 211.0892,-39.5538"/>
</g>
<!-- E6 -->
<g id="node7" class="node">
<title>E6</title>
<polygon fill="#d3d3d3" stroke="#000000" points="290.9963,-166.7893 265.0012,-166.7893 265.0012,-149.7893 290.9963,-149.7893 290.9963,-166.7893"/>
<text text-anchor="middle" x="277.9988" y="-155.5893" font-family="Times,serif" font-size="9.00" fill="#000000">E6</text>
</g>
<!-- E5&#45;&gt;E6 -->
<!-- E7 -->
<g id="node8" class="node">
<title>E7</title>
<polygon fill="#d3d3d3" stroke="#000000" points="334.9963,-166.7893 309.0012,-166.7893 309.0012,-149.7893 334.9963,-149.7893 334.9963,-166.7893"/>
<text text-anchor="middle" x="321.9988" y="-155.5893" font-family="Times,serif" font-size="9.00" fill="#000000">E7</text>
</g>
<!-- E6&#45;&gt;E7 -->
<!-- E6&#45;&gt;1 -->
<g id="edge12" class="edge">
<title>E6&#45;&gt;1</title>
<path fill="none" stroke="#00ff00" stroke-width=".3388" d="M268.175,-149.7346C259.2491,-141.4259 246.3821,-128.0128 238.9988,-113.7893 226.7251,-90.1448 220.5846,-60.046 217.6098,-39.2897"/>
<polygon fill="#00ff00" stroke="#00ff00" stroke-width=".3388" points="221.0808,-38.8392 216.3271,-29.3707 214.1386,-39.7371 221.0808,-38.8392"/>
</g>
<!-- E6&#45;&gt;S -->
<g id="edge17" class="edge">
<title>E6&#45;&gt;S</title>
<path fill="none" stroke="#00ff00" stroke-width="1.4822" d="M291.4363,-152.9141C294.251,-151.8399 297.2109,-150.7481 299.9988,-149.7893 352.2513,-131.8196 384.088,-156.6201 418.9988,-113.7893 435.8549,-93.1092 435.6265,-61.2977 432.8057,-39.3578"/>
<polygon fill="#00ff00" stroke="#00ff00" stroke-width="1.4822" points="436.2642,-38.8195 431.2762,-29.4722 429.3465,-39.8898 436.2642,-38.8195"/>
</g>
<!-- E8 -->
<g id="node9" class="node">
<title>E8</title>
<polygon fill="#d3d3d3" stroke="#000000" points="378.9963,-166.7893 353.0012,-166.7893 353.0012,-149.7893 378.9963,-149.7893 378.9963,-166.7893"/>
<text text-anchor="middle" x="365.9988" y="-155.5893" font-family="Times,serif" font-size="9.00" fill="#000000">E8</text>
</g>
<!-- E7&#45;&gt;E8 -->
<!-- E7&#45;&gt;1 -->
<g id="edge16" class="edge">
<title>E7&#45;&gt;1</title>
<path fill="none" stroke="#00ff00" stroke-width=".1368" d="M315.6259,-149.7463C298.9295,-127.3644 253.5707,-66.5597 229.8715,-34.7904"/>
<polygon fill="#00ff00" stroke="#00ff00" stroke-width=".1368" points="232.5881,-32.5785 223.8034,-26.6558 226.9773,-36.7641 232.5881,-32.5785"/>
</g>
<!-- E7&#45;&gt;S -->
<g id="edge15" class="edge">
<title>E7&#45;&gt;S</title>
<path fill="none" stroke="#ff0000" stroke-width=".4112" d="M335.4473,-152.9457C338.2612,-151.8692 341.218,-150.7685 343.9988,-149.7893 393.716,-132.2832 425.8947,-156.343 456.9988,-113.7893 474.2814,-90.1448 457.6241,-56.3075 443.3525,-34.9665"/>
<polygon fill="#ff0000" stroke="#ff0000" stroke-width=".4112" points="446.1119,-32.8063 437.4881,-26.6516 440.3915,-36.8408 446.1119,-32.8063"/>
</g>
<!-- E8&#45;&gt;0 -->
<g id="edge19" class="edge">
<title>E8&#45;&gt;0</title>
<path fill="none" stroke="#ff0000" stroke-width=".1623" d="M354.2059,-149.7463C321.4747,-126.0349 229.2166,-59.2008 188.1495,-29.4508"/>
<polygon fill="#ff0000" stroke="#ff0000" stroke-width=".1623" points="190.1318,-26.5649 179.9802,-23.5327 186.0252,-32.2338 190.1318,-26.5649"/>
</g>
<!-- E8&#45;&gt;2 -->
<g id="edge13" class="edge">
<title>E8&#45;&gt;2</title>
<path fill="none" stroke="#ff0000" stroke-width="1.1404" d="M366.0583,-149.7463C366.2064,-128.5056 366.5958,-72.6603 366.8244,-39.8674"/>
<polygon fill="#ff0000" stroke="#ff0000" stroke-width="1.1404" points="370.3253,-39.7375 366.8952,-29.7133 363.3254,-39.6886 370.3253,-39.7375"/>
</g>
<!-- 4828 -->
<g id="node14" class="node">
<title>4828</title>
<ellipse fill="#f08080" stroke="#000000" cx="532.9988" cy="-89.7477" rx="24.0833" ry="24.0833"/>
<text text-anchor="middle" x="532.9988" y="-91.5477" font-family="Times,serif" font-size="9.00" fill="#000000">4828</text>
<text text-anchor="middle" x="532.9988" y="-82.5477" font-family="Times,serif" font-size="9.00" fill="#000000">relu</text>
</g>
<!-- E8&#45;&gt;4828 -->
<g id="edge20" class="edge">
<title>E8&#45;&gt;4828</title>
<path fill="none" stroke="#ff0000" stroke-width=".1112" d="M379.2112,-154.8301C403.0223,-148.3583 454.4308,-133.2929 494.9988,-113.7893 498.1187,-112.2894 501.298,-110.5877 504.4224,-108.7992"/>
<polygon fill="#ff0000" stroke="#ff0000" stroke-width=".1112" points="506.2385,-111.7912 512.9877,-103.6243 502.6186,-105.7998 506.2385,-111.7912"/>
</g>
<!-- 0&#45;&gt;1 -->
<!-- 1&#45;&gt;2 -->
<!-- 2&#45;&gt;S -->
<!-- 4828&#45;&gt;2 -->
<g id="edge21" class="edge">
<title>4828&#45;&gt;2</title>
<path fill="none" stroke="#ff0000" stroke-width=".1696" d="M510.9553,-79.8023C479.4411,-65.584 421.7974,-39.5767 389.8459,-25.161"/>
<polygon fill="#ff0000" stroke="#ff0000" stroke-width=".1696" points="390.9951,-21.8398 380.4405,-20.9176 388.1163,-28.2205 390.9951,-21.8398"/>
</g>
</g>
</svg>
