<?xml version="1.0" encoding="UTF-8" standalone="no"?>
<!DOCTYPE svg PUBLIC "-//W3C//DTD SVG 1.1//EN"
 "http://www.w3.org/Graphics/SVG/1.1/DTD/svg11.dtd">
<!-- Generated by graphviz version 2.40.1 (20161225.0304)
 -->
<!-- Title: %3 Pages: 1 -->
<svg width="485pt" height="98pt"
 viewBox="0.00 0.00 484.77 97.77" xmlns="http://www.w3.org/2000/svg" xmlns:xlink="http://www.w3.org/1999/xlink">
<g id="graph0" class="graph" transform="scale(1 1) rotate(0) translate(4 93.7661)">
<title>%3</title>
<polygon fill="#ffffff" stroke="transparent" points="-4,4 -4,-93.7661 480.7661,-93.7661 480.7661,4 -4,4"/>
<!-- 0 -->
<g id="node1" class="node">
<title>0</title>
<polygon fill="#d3d3d3" stroke="#000000" points="319.389,-89.7661 299.3771,-89.7661 299.3771,-72.7661 319.389,-72.7661 319.389,-89.7661"/>
<text text-anchor="middle" x="309.383" y="-78.5661" font-family="Times,serif" font-size="9.00" fill="#000000">0</text>
</g>
<!-- 1 -->
<g id="node2" class="node">
<title>1</title>
<polygon fill="#d3d3d3" stroke="#000000" points="358.389,-89.7661 338.3771,-89.7661 338.3771,-72.7661 358.389,-72.7661 358.389,-89.7661"/>
<text text-anchor="middle" x="348.383" y="-78.5661" font-family="Times,serif" font-size="9.00" fill="#000000">1</text>
</g>
<!-- 0&#45;&gt;1 -->
<!-- E2 -->
<g id="node6" class="node">
<title>E2</title>
<ellipse fill="#ffa07a" stroke="#000000" cx="128.383" cy="-18.383" rx="18.2668" ry="18.2668"/>
<text text-anchor="middle" x="128.383" y="-15.683" font-family="Times,serif" font-size="9.00" fill="#000000">E2</text>
</g>
<!-- 0&#45;&gt;E2 -->
<g id="edge13" class="edge">
<title>0&#45;&gt;E2</title>
<path fill="none" stroke="#00ff00" stroke-width="1.9149" d="M299.3192,-78.7572C269.6392,-71.2924 182.8865,-48.9853 156.383,-36.7661 154.9968,-36.127 153.6005,-35.4257 152.2106,-34.6816"/>
<polygon fill="#00ff00" stroke="#00ff00" stroke-width="1.9149" points="153.6886,-31.4873 143.3101,-29.3576 150.0953,-37.4947 153.6886,-31.4873"/>
</g>
<!-- E6 -->
<g id="node10" class="node">
<title>E6</title>
<ellipse fill="#ffa07a" stroke="#000000" cx="348.383" cy="-18.383" rx="18.2668" ry="18.2668"/>
<text text-anchor="middle" x="348.383" y="-15.683" font-family="Times,serif" font-size="9.00" fill="#000000">E6</text>
</g>
<!-- 0&#45;&gt;E6 -->
<g id="edge15" class="edge">
<title>0&#45;&gt;E6</title>
<path fill="none" stroke="#00ff00" stroke-width=".155" d="M314.8058,-72.5225C319.5327,-64.9009 326.6227,-53.4692 333.0713,-43.0716"/>
<polygon fill="#00ff00" stroke="#00ff00" stroke-width=".155" points="336.2013,-44.6652 338.4976,-34.3222 330.2525,-40.9758 336.2013,-44.6652"/>
</g>
<!-- 2 -->
<g id="node3" class="node">
<title>2</title>
<polygon fill="#d3d3d3" stroke="#000000" points="432.389,-89.7661 412.3771,-89.7661 412.3771,-72.7661 432.389,-72.7661 432.389,-89.7661"/>
<text text-anchor="middle" x="422.383" y="-78.5661" font-family="Times,serif" font-size="9.00" fill="#000000">2</text>
</g>
<!-- 1&#45;&gt;2 -->
<!-- E0 -->
<g id="node4" class="node">
<title>E0</title>
<ellipse fill="#87cefa" stroke="#000000" cx="18.383" cy="-18.383" rx="18.2668" ry="18.2668"/>
<text text-anchor="middle" x="18.383" y="-15.683" font-family="Times,serif" font-size="9.00" fill="#000000">E0</text>
</g>
<!-- 1&#45;&gt;E0 -->
<g id="edge14" class="edge">
<title>1&#45;&gt;E0</title>
<path fill="none" stroke="#00ff00" stroke-width=".1694" d="M337.9885,-76.2098C334.9525,-74.9094 331.5877,-73.6338 328.383,-72.7661 206.424,-39.7443 164.9005,-80.5617 46.383,-36.7661 44.9512,-36.237 43.5186,-35.6231 42.1004,-34.9474"/>
<polygon fill="#00ff00" stroke="#00ff00" stroke-width=".1694" points="43.5351,-31.7368 33.1124,-29.8343 40.0738,-37.8212 43.5351,-31.7368"/>
</g>
<!-- 1&#45;&gt;E6 -->
<g id="edge11" class="edge">
<title>1&#45;&gt;E6</title>
<path fill="none" stroke="#00ff00" stroke-width="1.7533" d="M348.383,-72.5225C348.383,-65.8532 348.383,-56.2664 348.383,-47.008"/>
<polygon fill="#00ff00" stroke="#00ff00" stroke-width="1.7533" points="351.8831,-46.8675 348.383,-36.8675 344.8831,-46.8676 351.8831,-46.8675"/>
</g>
<!-- E8 -->
<g id="node12" class="node">
<title>E8</title>
<ellipse fill="#eee8aa" stroke="#000000" cx="458.383" cy="-18.383" rx="18.2668" ry="18.2668"/>
<text text-anchor="middle" x="458.383" y="-15.683" font-family="Times,serif" font-size="9.00" fill="#000000">E8</text>
</g>
<!-- 2&#45;&gt;E8 -->
<g id="edge12" class="edge">
<title>2&#45;&gt;E8</title>
<path fill="none" stroke="#ff0000" stroke-width="1.7369" d="M427.3887,-72.5225C431.6487,-65.0812 437.9881,-54.008 443.8256,-43.8113"/>
<polygon fill="#ff0000" stroke="#ff0000" stroke-width="1.7369" points="447.0406,-45.2401 448.9715,-34.8227 440.9656,-41.7622 447.0406,-45.2401"/>
</g>
<!-- E1 -->
<g id="node5" class="node">
<title>E1</title>
<ellipse fill="#ffa07a" stroke="#000000" cx="73.383" cy="-18.383" rx="18.2668" ry="18.2668"/>
<text text-anchor="middle" x="73.383" y="-15.683" font-family="Times,serif" font-size="9.00" fill="#000000">E1</text>
</g>
<!-- E0&#45;&gt;E1 -->
<!-- E1&#45;&gt;E2 -->
<!-- E3 -->
<g id="node7" class="node">
<title>E3</title>
<ellipse fill="#eee8aa" stroke="#000000" cx="183.383" cy="-18.383" rx="18.2668" ry="18.2668"/>
<text text-anchor="middle" x="183.383" y="-15.683" font-family="Times,serif" font-size="9.00" fill="#000000">E3</text>
</g>
<!-- E2&#45;&gt;E3 -->
<!-- E4 -->
<g id="node8" class="node">
<title>E4</title>
<ellipse fill="#ffa07a" stroke="#000000" cx="238.383" cy="-18.383" rx="18.2668" ry="18.2668"/>
<text text-anchor="middle" x="238.383" y="-15.683" font-family="Times,serif" font-size="9.00" fill="#000000">E4</text>
</g>
<!-- E3&#45;&gt;E4 -->
<!-- E5 -->
<g id="node9" class="node">
<title>E5</title>
<ellipse fill="#87cefa" stroke="#000000" cx="293.383" cy="-18.383" rx="18.2668" ry="18.2668"/>
<text text-anchor="middle" x="293.383" y="-15.683" font-family="Times,serif" font-size="9.00" fill="#000000">E5</text>
</g>
<!-- E4&#45;&gt;E5 -->
<!-- E5&#45;&gt;E6 -->
<!-- E7 -->
<g id="node11" class="node">
<title>E7</title>
<ellipse fill="#eee8aa" stroke="#000000" cx="403.383" cy="-18.383" rx="18.2668" ry="18.2668"/>
<text text-anchor="middle" x="403.383" y="-15.683" font-family="Times,serif" font-size="9.00" fill="#000000">E7</text>
</g>
<!-- E6&#45;&gt;E7 -->
<!-- E7&#45;&gt;E8 -->
</g>
</svg>
