<?xml version="1.0" encoding="UTF-8" standalone="no"?>
<!DOCTYPE svg PUBLIC "-//W3C//DTD SVG 1.1//EN"
 "http://www.w3.org/Graphics/SVG/1.1/DTD/svg11.dtd">
<!-- Generated by graphviz version 2.40.1 (20161225.0304)
 -->
<!-- Title: %3 Pages: 1 -->
<svg width="485pt" height="182pt"
 viewBox="0.00 0.00 484.77 181.85" xmlns="http://www.w3.org/2000/svg" xmlns:xlink="http://www.w3.org/1999/xlink">
<g id="graph0" class="graph" transform="scale(1 1) rotate(0) translate(4 177.8494)">
<title>%3</title>
<polygon fill="#ffffff" stroke="transparent" points="-4,4 -4,-177.8494 480.7661,-177.8494 480.7661,4 -4,4"/>
<!-- 0 -->
<g id="node1" class="node">
<title>0</title>
<polygon fill="#d3d3d3" stroke="#000000" points="165.389,-173.8494 145.3771,-173.8494 145.3771,-156.8494 165.389,-156.8494 165.389,-173.8494"/>
<text text-anchor="middle" x="155.383" y="-162.6494" font-family="Times,serif" font-size="9.00" fill="#000000">0</text>
</g>
<!-- 1 -->
<g id="node2" class="node">
<title>1</title>
<polygon fill="#d3d3d3" stroke="#000000" points="231.389,-173.8494 211.3771,-173.8494 211.3771,-156.8494 231.389,-156.8494 231.389,-173.8494"/>
<text text-anchor="middle" x="221.383" y="-162.6494" font-family="Times,serif" font-size="9.00" fill="#000000">1</text>
</g>
<!-- 0&#45;&gt;1 -->
<!-- E0 -->
<g id="node4" class="node">
<title>E0</title>
<ellipse fill="#87cefa" stroke="#000000" cx="18.383" cy="-18.383" rx="18.2668" ry="18.2668"/>
<text text-anchor="middle" x="18.383" y="-15.683" font-family="Times,serif" font-size="9.00" fill="#000000">E0</text>
</g>
<!-- 0&#45;&gt;E0 -->
<g id="edge14" class="edge">
<title>0&#45;&gt;E0</title>
<path fill="none" stroke="#00ff00" stroke-width=".4519" d="M147.2234,-156.5961C126.0879,-133.923 69.0803,-72.7684 38.4673,-39.9284"/>
<polygon fill="#00ff00" stroke="#00ff00" stroke-width=".4519" points="40.6698,-37.1582 31.2909,-32.23 35.5495,-41.9313 40.6698,-37.1582"/>
</g>
<!-- E2 -->
<g id="node6" class="node">
<title>E2</title>
<ellipse fill="#87cefa" stroke="#000000" cx="128.383" cy="-18.383" rx="18.2668" ry="18.2668"/>
<text text-anchor="middle" x="128.383" y="-15.683" font-family="Times,serif" font-size="9.00" fill="#000000">E2</text>
</g>
<!-- 0&#45;&gt;E2 -->
<g id="edge13" class="edge">
<title>0&#45;&gt;E2</title>
<path fill="none" stroke="#ff0000" stroke-width="1.4837" d="M153.7749,-156.5961C149.8822,-135.4071 139.815,-80.6092 133.5894,-46.7221"/>
<polygon fill="#ff0000" stroke="#ff0000" stroke-width="1.4837" points="136.9652,-45.7267 131.7158,-36.5237 130.0804,-46.9916 136.9652,-45.7267"/>
</g>
<!-- E6 -->
<g id="node10" class="node">
<title>E6</title>
<ellipse fill="#87cefa" stroke="#000000" cx="348.383" cy="-18.383" rx="18.2668" ry="18.2668"/>
<text text-anchor="middle" x="348.383" y="-15.683" font-family="Times,serif" font-size="9.00" fill="#000000">E6</text>
</g>
<!-- 0&#45;&gt;E6 -->
<g id="edge15" class="edge">
<title>0&#45;&gt;E6</title>
<path fill="none" stroke="#ff0000" stroke-width=".135" d="M165.4878,-157.6547C195.3108,-134.9451 283.4918,-67.7967 325.5576,-35.7642"/>
<polygon fill="#ff0000" stroke="#ff0000" stroke-width=".135" points="327.7255,-38.5127 333.561,-29.6698 323.4846,-32.9436 327.7255,-38.5127"/>
</g>
<!-- 2 -->
<g id="node3" class="node">
<title>2</title>
<polygon fill="#d3d3d3" stroke="#000000" points="392.389,-173.8494 372.3771,-173.8494 372.3771,-156.8494 392.389,-156.8494 392.389,-173.8494"/>
<text text-anchor="middle" x="382.383" y="-162.6494" font-family="Times,serif" font-size="9.00" fill="#000000">2</text>
</g>
<!-- 1&#45;&gt;2 -->
<!-- E3 -->
<g id="node7" class="node">
<title>E3</title>
<ellipse fill="#87cefa" stroke="#000000" cx="183.383" cy="-18.383" rx="18.2668" ry="18.2668"/>
<text text-anchor="middle" x="183.383" y="-15.683" font-family="Times,serif" font-size="9.00" fill="#000000">E3</text>
</g>
<!-- 1&#45;&gt;E3 -->
<g id="edge12" class="edge">
<title>1&#45;&gt;E3</title>
<path fill="none" stroke="#ff0000" stroke-width=".9228" d="M218.398,-156.5418C215.4201,-147.6055 210.8075,-133.3471 207.383,-120.8494 200.5578,-95.9401 193.9524,-67.2971 189.4051,-46.6387"/>
<polygon fill="#ff0000" stroke="#ff0000" stroke-width=".9228" points="192.7723,-45.6519 187.2244,-36.6257 185.9326,-47.1414 192.7723,-45.6519"/>
</g>
<!-- E5 -->
<g id="node9" class="node">
<title>E5</title>
<ellipse fill="#87cefa" stroke="#000000" cx="293.383" cy="-18.383" rx="18.2668" ry="18.2668"/>
<text text-anchor="middle" x="293.383" y="-15.683" font-family="Times,serif" font-size="9.00" fill="#000000">E5</text>
</g>
<!-- 1&#45;&gt;E5 -->
<g id="edge17" class="edge">
<title>1&#45;&gt;E5</title>
<path fill="none" stroke="#ff0000" stroke-width=".3066" d="M225.6714,-156.5961C236.3072,-134.8862 264.2279,-77.8945 280.7049,-44.2616"/>
<polygon fill="#ff0000" stroke="#ff0000" stroke-width=".3066" points="283.9658,-45.561 285.2222,-35.0409 277.6796,-42.4813 283.9658,-45.561"/>
</g>
<!-- 5484 -->
<g id="node13" class="node">
<title>5484</title>
<ellipse fill="#add8e6" stroke="#000000" cx="311.383" cy="-96.8077" rx="24.0833" ry="24.0833"/>
<text text-anchor="middle" x="311.383" y="-98.6077" font-family="Times,serif" font-size="9.00" fill="#000000">5484</text>
<text text-anchor="middle" x="311.383" y="-89.6077" font-family="Times,serif" font-size="9.00" fill="#000000">sigm</text>
</g>
<!-- 1&#45;&gt;5484 -->
<g id="edge19" class="edge">
<title>1&#45;&gt;5484</title>
<path fill="none" stroke="#00ff00" stroke-width=".125" d="M231.7072,-157.4868C244.3251,-147.8773 266.1724,-131.239 283.8018,-117.8129"/>
<polygon fill="#00ff00" stroke="#00ff00" stroke-width=".125" points="286.2235,-120.368 292.0585,-111.5248 281.9823,-114.7991 286.2235,-120.368"/>
</g>
<!-- 2&#45;&gt;E0 -->
<g id="edge11" class="edge">
<title>2&#45;&gt;E0</title>
<path fill="none" stroke="#ff0000" stroke-width="4.0103" d="M381.6617,-156.7389C379.5951,-138.0383 371.892,-93.7121 344.383,-72.7661 238.242,8.0522 171.6753,-82.5851 46.383,-36.7661 44.9494,-36.2418 43.5154,-35.6318 42.0961,-34.9591"/>
<polygon fill="#ff0000" stroke="#ff0000" stroke-width="4.0103" points="43.5336,-31.7401 33.1047,-29.8553 40.0691,-37.8435 43.5336,-31.7401"/>
</g>
<!-- 2&#45;&gt;E6 -->
<g id="edge16" class="edge">
<title>2&#45;&gt;E6</title>
<path fill="none" stroke="#00ff00" stroke-width=".1841" d="M383.1397,-156.725C384.3318,-140.117 385.7272,-102.6916 377.383,-72.7661 374.4822,-62.3626 369.3605,-51.7085 364.2202,-42.6188"/>
<polygon fill="#00ff00" stroke="#00ff00" stroke-width=".1841" points="367.0801,-40.5812 358.9491,-33.7888 361.0696,-44.1692 367.0801,-40.5812"/>
</g>
<!-- E8 -->
<g id="node12" class="node">
<title>E8</title>
<ellipse fill="#87cefa" stroke="#000000" cx="458.383" cy="-18.383" rx="18.2668" ry="18.2668"/>
<text text-anchor="middle" x="458.383" y="-15.683" font-family="Times,serif" font-size="9.00" fill="#000000">E8</text>
</g>
<!-- 2&#45;&gt;E8 -->
<g id="edge18" class="edge">
<title>2&#45;&gt;E8</title>
<path fill="none" stroke="#ff0000" stroke-width=".4211" d="M386.9096,-156.5961C398.1363,-134.8862 427.6082,-77.8945 445.0006,-44.2616"/>
<polygon fill="#ff0000" stroke="#ff0000" stroke-width=".4211" points="448.2843,-45.5312 449.7689,-35.0409 442.0665,-42.3158 448.2843,-45.5312"/>
</g>
<!-- E1 -->
<g id="node5" class="node">
<title>E1</title>
<ellipse fill="#87cefa" stroke="#000000" cx="73.383" cy="-18.383" rx="18.2668" ry="18.2668"/>
<text text-anchor="middle" x="73.383" y="-15.683" font-family="Times,serif" font-size="9.00" fill="#000000">E1</text>
</g>
<!-- E0&#45;&gt;E1 -->
<!-- E1&#45;&gt;E2 -->
<!-- E2&#45;&gt;E3 -->
<!-- E4 -->
<g id="node8" class="node">
<title>E4</title>
<ellipse fill="#87cefa" stroke="#000000" cx="238.383" cy="-18.383" rx="18.2668" ry="18.2668"/>
<text text-anchor="middle" x="238.383" y="-15.683" font-family="Times,serif" font-size="9.00" fill="#000000">E4</text>
</g>
<!-- E3&#45;&gt;E4 -->
<!-- E4&#45;&gt;E5 -->
<!-- E5&#45;&gt;E6 -->
<!-- E7 -->
<g id="node11" class="node">
<title>E7</title>
<ellipse fill="#87cefa" stroke="#000000" cx="403.383" cy="-18.383" rx="18.2668" ry="18.2668"/>
<text text-anchor="middle" x="403.383" y="-15.683" font-family="Times,serif" font-size="9.00" fill="#000000">E7</text>
</g>
<!-- E6&#45;&gt;E7 -->
<!-- E7&#45;&gt;E8 -->
<!-- 5484&#45;&gt;E6 -->
<g id="edge20" class="edge">
<title>5484&#45;&gt;E6</title>
<path fill="none" stroke="#ff0000" stroke-width=".5494" d="M321.6896,-74.9621C326.1944,-65.4139 331.5114,-54.144 336.2095,-44.186"/>
<polygon fill="#ff0000" stroke="#ff0000" stroke-width=".5494" points="339.376,-45.6769 340.4775,-35.1395 333.0452,-42.69 339.376,-45.6769"/>
</g>
</g>
</svg>
