<?xml version="1.0" encoding="UTF-8" standalone="no"?>
<!DOCTYPE svg PUBLIC "-//W3C//DTD SVG 1.1//EN"
 "http://www.w3.org/Graphics/SVG/1.1/DTD/svg11.dtd">
<!-- Generated by graphviz version 2.40.1 (20161225.0304)
 -->
<!-- Title: %3 Pages: 1 -->
<svg width="485pt" height="434pt"
 viewBox="0.00 0.00 484.77 434.10" xmlns="http://www.w3.org/2000/svg" xmlns:xlink="http://www.w3.org/1999/xlink">
<g id="graph0" class="graph" transform="scale(1 1) rotate(0) translate(4 430.0991)">
<title>%3</title>
<polygon fill="#ffffff" stroke="transparent" points="-4,4 -4,-430.0991 480.7661,-430.0991 480.7661,4 -4,4"/>
<!-- 0 -->
<g id="node1" class="node">
<title>0</title>
<polygon fill="#d3d3d3" stroke="#000000" points="146.389,-426.0991 126.3771,-426.0991 126.3771,-409.0991 146.389,-409.0991 146.389,-426.0991"/>
<text text-anchor="middle" x="136.383" y="-414.8991" font-family="Times,serif" font-size="9.00" fill="#000000">0</text>
</g>
<!-- 1 -->
<g id="node2" class="node">
<title>1</title>
<polygon fill="#d3d3d3" stroke="#000000" points="185.389,-426.0991 165.3771,-426.0991 165.3771,-409.0991 185.389,-409.0991 185.389,-426.0991"/>
<text text-anchor="middle" x="175.383" y="-414.8991" font-family="Times,serif" font-size="9.00" fill="#000000">1</text>
</g>
<!-- 0&#45;&gt;1 -->
<!-- E2 -->
<g id="node6" class="node">
<title>E2</title>
<ellipse fill="#87cefa" stroke="#000000" cx="128.383" cy="-18.383" rx="18.2668" ry="18.2668"/>
<text text-anchor="middle" x="128.383" y="-15.683" font-family="Times,serif" font-size="9.00" fill="#000000">E2</text>
</g>
<!-- 0&#45;&gt;E2 -->
<g id="edge13" class="edge">
<title>0&#45;&gt;E2</title>
<path fill="none" stroke="#00ff00" stroke-width="1.8565" d="M134.2736,-409.0556C128.7672,-385.9782 114.383,-320.3907 114.383,-264.9743 114.383,-264.9743 114.383,-264.9743 114.383,-180.891 114.383,-133.8239 120.2846,-79.3708 124.4244,-46.9633"/>
<polygon fill="#00ff00" stroke="#00ff00" stroke-width="1.8565" points="127.9192,-47.231 125.7498,-36.8606 120.9787,-46.3204 127.9192,-47.231"/>
</g>
<!-- E8 -->
<g id="node12" class="node">
<title>E8</title>
<ellipse fill="#87cefa" stroke="#000000" cx="458.383" cy="-18.383" rx="18.2668" ry="18.2668"/>
<text text-anchor="middle" x="458.383" y="-15.683" font-family="Times,serif" font-size="9.00" fill="#000000">E8</text>
</g>
<!-- 0&#45;&gt;E8 -->
<g id="edge16" class="edge">
<title>0&#45;&gt;E8</title>
<path fill="none" stroke="#ff0000" stroke-width=".2782" d="M146.7836,-412.5648C149.8197,-411.2647 153.183,-409.9838 156.383,-409.0991 268.8231,-378.0133 320.8729,-440.0834 416.383,-373.0991 460.8593,-341.9066 473.383,-319.2984 473.383,-264.9743 473.383,-264.9743 473.383,-264.9743 473.383,-180.891 473.383,-133.7983 467.0599,-79.3528 462.6244,-46.9539"/>
<polygon fill="#ff0000" stroke="#ff0000" stroke-width=".2782" points="466.0627,-46.2693 461.2044,-36.854 459.1309,-47.244 466.0627,-46.2693"/>
</g>
<!-- 2 -->
<g id="node3" class="node">
<title>2</title>
<polygon fill="#d3d3d3" stroke="#000000" points="224.389,-426.0991 204.3771,-426.0991 204.3771,-409.0991 224.389,-409.0991 224.389,-426.0991"/>
<text text-anchor="middle" x="214.383" y="-414.8991" font-family="Times,serif" font-size="9.00" fill="#000000">2</text>
</g>
<!-- 1&#45;&gt;2 -->
<!-- E3 -->
<g id="node7" class="node">
<title>E3</title>
<ellipse fill="#87cefa" stroke="#000000" cx="183.383" cy="-18.383" rx="18.2668" ry="18.2668"/>
<text text-anchor="middle" x="183.383" y="-15.683" font-family="Times,serif" font-size="9.00" fill="#000000">E3</text>
</g>
<!-- 1&#45;&gt;E3 -->
<g id="edge12" class="edge">
<title>1&#45;&gt;E3</title>
<path fill="none" stroke="#00ff00" stroke-width="2.2548" d="M175.5576,-408.8897C176.5176,-360.9831 181.1714,-128.7509 182.8104,-46.9587"/>
<polygon fill="#00ff00" stroke="#00ff00" stroke-width="2.2548" points="186.3112,-46.95 183.0123,-36.8818 179.3126,-46.8097 186.3112,-46.95"/>
</g>
<!-- E0 -->
<g id="node4" class="node">
<title>E0</title>
<ellipse fill="#87cefa" stroke="#000000" cx="18.383" cy="-18.383" rx="18.2668" ry="18.2668"/>
<text text-anchor="middle" x="18.383" y="-15.683" font-family="Times,serif" font-size="9.00" fill="#000000">E0</text>
</g>
<!-- 2&#45;&gt;E0 -->
<g id="edge11" class="edge">
<title>2&#45;&gt;E0</title>
<path fill="none" stroke="#00ff00" stroke-width="3.1969" d="M213.0364,-408.9341C210.2705,-392.2565 203.1974,-354.7172 191.383,-325.0159 146.9334,-213.2697 68.618,-92.1651 34.7497,-42.0957"/>
<polygon fill="#00ff00" stroke="#00ff00" stroke-width="3.1969" points="37.4814,-39.8888 28.9611,-33.5916 31.6948,-43.8277 37.4814,-39.8888"/>
</g>
<!-- E1 -->
<g id="node5" class="node">
<title>E1</title>
<ellipse fill="#87cefa" stroke="#000000" cx="73.383" cy="-18.383" rx="18.2668" ry="18.2668"/>
<text text-anchor="middle" x="73.383" y="-15.683" font-family="Times,serif" font-size="9.00" fill="#000000">E1</text>
</g>
<!-- E0&#45;&gt;E1 -->
<!-- E1&#45;&gt;E2 -->
<!-- E2&#45;&gt;E3 -->
<!-- E4 -->
<g id="node8" class="node">
<title>E4</title>
<ellipse fill="#87cefa" stroke="#000000" cx="238.383" cy="-18.383" rx="18.2668" ry="18.2668"/>
<text text-anchor="middle" x="238.383" y="-15.683" font-family="Times,serif" font-size="9.00" fill="#000000">E4</text>
</g>
<!-- E3&#45;&gt;E4 -->
<!-- E5 -->
<g id="node9" class="node">
<title>E5</title>
<ellipse fill="#87cefa" stroke="#000000" cx="293.383" cy="-18.383" rx="18.2668" ry="18.2668"/>
<text text-anchor="middle" x="293.383" y="-15.683" font-family="Times,serif" font-size="9.00" fill="#000000">E5</text>
</g>
<!-- E4&#45;&gt;E5 -->
<!-- E6 -->
<g id="node10" class="node">
<title>E6</title>
<ellipse fill="#87cefa" stroke="#000000" cx="348.383" cy="-18.383" rx="18.2668" ry="18.2668"/>
<text text-anchor="middle" x="348.383" y="-15.683" font-family="Times,serif" font-size="9.00" fill="#000000">E6</text>
</g>
<!-- E5&#45;&gt;E6 -->
<!-- E7 -->
<g id="node11" class="node">
<title>E7</title>
<ellipse fill="#87cefa" stroke="#000000" cx="403.383" cy="-18.383" rx="18.2668" ry="18.2668"/>
<text text-anchor="middle" x="403.383" y="-15.683" font-family="Times,serif" font-size="9.00" fill="#000000">E7</text>
</g>
<!-- E6&#45;&gt;E7 -->
<!-- E7&#45;&gt;E8 -->
<!-- 3740 -->
<g id="node13" class="node">
<title>3740</title>
<ellipse fill="#add8e6" stroke="#000000" cx="350.383" cy="-96.8077" rx="24.0833" ry="24.0833"/>
<text text-anchor="middle" x="350.383" y="-98.6077" font-family="Times,serif" font-size="9.00" fill="#000000">3740</text>
<text text-anchor="middle" x="350.383" y="-89.6077" font-family="Times,serif" font-size="9.00" fill="#000000">sigm</text>
</g>
<!-- 3740&#45;&gt;E7 -->
<g id="edge15" class="edge">
<title>3740&#45;&gt;E7</title>
<path fill="none" stroke="#00ff00" stroke-width=".2295" d="M364.0319,-76.6114C371.0986,-66.1546 379.7742,-53.3173 387.1795,-42.3596"/>
<polygon fill="#00ff00" stroke="#00ff00" stroke-width=".2295" points="390.0916,-44.3013 392.791,-34.0561 384.2918,-40.3818 390.0916,-44.3013"/>
</g>
<!-- 4827 -->
<g id="node14" class="node">
<title>4827</title>
<ellipse fill="#add8e6" stroke="#000000" cx="383.383" cy="-264.9743" rx="24.0833" ry="24.0833"/>
<text text-anchor="middle" x="383.383" y="-266.7743" font-family="Times,serif" font-size="9.00" fill="#000000">4827</text>
<text text-anchor="middle" x="383.383" y="-257.7743" font-family="Times,serif" font-size="9.00" fill="#000000">sigm</text>
</g>
<!-- 3567 -->
<g id="node16" class="node">
<title>3567</title>
<ellipse fill="#add8e6" stroke="#000000" cx="383.383" cy="-180.891" rx="24.0833" ry="24.0833"/>
<text text-anchor="middle" x="383.383" y="-182.691" font-family="Times,serif" font-size="9.00" fill="#000000">3567</text>
<text text-anchor="middle" x="383.383" y="-173.691" font-family="Times,serif" font-size="9.00" fill="#000000">sigm</text>
</g>
<!-- 4827&#45;&gt;3567 -->
<g id="edge21" class="edge">
<title>4827&#45;&gt;3567</title>
<path fill="none" stroke="#ff0000" stroke-width=".3715" d="M383.383,-240.6539C383.383,-232.7231 383.383,-223.7624 383.383,-215.2386"/>
<polygon fill="#ff0000" stroke="#ff0000" stroke-width=".3715" points="386.8831,-215.1567 383.383,-205.1567 379.8831,-215.1567 386.8831,-215.1567"/>
</g>
<!-- 3024 -->
<g id="node15" class="node">
<title>3024</title>
<ellipse fill="#add8e6" stroke="#000000" cx="279.383" cy="-264.9743" rx="24.0833" ry="24.0833"/>
<text text-anchor="middle" x="279.383" y="-266.7743" font-family="Times,serif" font-size="9.00" fill="#000000">3024</text>
<text text-anchor="middle" x="279.383" y="-257.7743" font-family="Times,serif" font-size="9.00" fill="#000000">sigm</text>
</g>
<!-- 3024&#45;&gt;3740 -->
<g id="edge19" class="edge">
<title>3024&#45;&gt;3740</title>
<path fill="none" stroke="#00ff00" stroke-width=".2451" d="M275.4169,-240.9494C272.795,-218.1675 271.8319,-183.5495 284.383,-156.8494 292.3506,-139.8998 307.514,-125.5677 321.2989,-115.1614"/>
<polygon fill="#00ff00" stroke="#00ff00" stroke-width=".2451" points="323.5322,-117.8672 329.6272,-109.201 319.4583,-112.1748 323.5322,-117.8672"/>
</g>
<!-- 5235 -->
<g id="node17" class="node">
<title>5235</title>
<ellipse fill="#add8e6" stroke="#000000" cx="317.383" cy="-180.891" rx="24.0833" ry="24.0833"/>
<text text-anchor="middle" x="317.383" y="-182.691" font-family="Times,serif" font-size="9.00" fill="#000000">5235</text>
<text text-anchor="middle" x="317.383" y="-173.691" font-family="Times,serif" font-size="9.00" fill="#000000">sigm</text>
</g>
<!-- 3024&#45;&gt;5235 -->
<g id="edge22" class="edge">
<title>3024&#45;&gt;5235</title>
<path fill="none" stroke="#ff0000" stroke-width=".2065" d="M289.3671,-242.8824C293.5998,-233.5166 298.6096,-222.4314 303.214,-212.2431"/>
<polygon fill="#ff0000" stroke="#ff0000" stroke-width=".2065" points="306.5367,-213.3894 307.4657,-202.8353 300.1579,-210.5065 306.5367,-213.3894"/>
</g>
<!-- 3567&#45;&gt;3740 -->
<g id="edge18" class="edge">
<title>3567&#45;&gt;3740</title>
<path fill="none" stroke="#ff0000" stroke-width=".1644" d="M374.5397,-158.3582C370.9886,-149.3102 366.8296,-138.7131 362.9729,-128.8865"/>
<polygon fill="#ff0000" stroke="#ff0000" stroke-width=".1644" points="366.1624,-127.4327 359.2509,-119.4027 359.6462,-129.9902 366.1624,-127.4327"/>
</g>
<!-- 5235&#45;&gt;3740 -->
<g id="edge23" class="edge">
<title>5235&#45;&gt;3740</title>
<path fill="none" stroke="#00ff00" stroke-width=".1294" d="M326.2264,-158.3582C329.7775,-149.3102 333.9365,-138.7131 337.7932,-128.8865"/>
<polygon fill="#00ff00" stroke="#00ff00" stroke-width=".1294" points="341.1199,-129.9902 341.5152,-119.4027 334.6037,-127.4327 341.1199,-129.9902"/>
</g>
<!-- 1429 -->
<g id="node18" class="node">
<title>1429</title>
<ellipse fill="#add8e6" stroke="#000000" cx="383.383" cy="-349.0575" rx="24.0833" ry="24.0833"/>
<text text-anchor="middle" x="383.383" y="-350.8575" font-family="Times,serif" font-size="9.00" fill="#000000">1429</text>
<text text-anchor="middle" x="383.383" y="-341.8575" font-family="Times,serif" font-size="9.00" fill="#000000">sigm</text>
</g>
<!-- 1429&#45;&gt;E8 -->
<g id="edge14" class="edge">
<title>1429&#45;&gt;E8</title>
<path fill="none" stroke="#ff0000" stroke-width=".2653" d="M396.6975,-329.0378C403.6095,-317.7351 411.5896,-303.0902 416.383,-289.0159 445.3022,-204.104 454.4074,-97.3661 457.1966,-47.0855"/>
<polygon fill="#ff0000" stroke="#ff0000" stroke-width=".2653" points="460.699,-47.1258 457.7139,-36.9602 453.7081,-46.7686 460.699,-47.1258"/>
</g>
<!-- 1429&#45;&gt;4827 -->
<g id="edge20" class="edge">
<title>1429&#45;&gt;4827</title>
<path fill="none" stroke="#00ff00" stroke-width=".9896" d="M383.383,-324.7372C383.383,-316.8063 383.383,-307.8457 383.383,-299.3219"/>
<polygon fill="#00ff00" stroke="#00ff00" stroke-width=".9896" points="386.8831,-299.2399 383.383,-289.24 379.8831,-299.24 386.8831,-299.2399"/>
</g>
<!-- 1429&#45;&gt;3567 -->
<g id="edge17" class="edge">
<title>1429&#45;&gt;3567</title>
<path fill="none" stroke="#00ff00" stroke-width=".1974" d="M369.2072,-329.2947C362.0343,-318.0698 354.0799,-303.4172 350.383,-289.0159 345.0695,-268.3167 345.0695,-261.6318 350.383,-240.9326 353.1845,-230.0191 358.4311,-218.9614 363.9297,-209.3603"/>
<polygon fill="#00ff00" stroke="#00ff00" stroke-width=".1974" points="367.0166,-211.0197 369.2072,-200.6538 361.0305,-207.3912 367.0166,-211.0197"/>
</g>
</g>
</svg>
