<?xml version="1.0" encoding="UTF-8" standalone="no"?>
<!DOCTYPE svg PUBLIC "-//W3C//DTD SVG 1.1//EN"
 "http://www.w3.org/Graphics/SVG/1.1/DTD/svg11.dtd">
<!-- Generated by graphviz version 2.40.1 (20161225.0304)
 -->
<!-- Title: %3 Pages: 1 -->
<svg width="390pt" height="175pt"
 viewBox="0.00 0.00 390.00 174.79" xmlns="http://www.w3.org/2000/svg" xmlns:xlink="http://www.w3.org/1999/xlink">
<g id="graph0" class="graph" transform="scale(1 1) rotate(0) translate(4 170.7893)">
<title>%3</title>
<polygon fill="#ffffff" stroke="transparent" points="-4,4 -4,-170.7893 385.9976,-170.7893 385.9976,4 -4,4"/>
<!-- E0 -->
<g id="node1" class="node">
<title>E0</title>
<polygon fill="#d3d3d3" stroke="#000000" points="25.9963,-166.7893 .0012,-166.7893 .0012,-149.7893 25.9963,-149.7893 25.9963,-166.7893"/>
<text text-anchor="middle" x="12.9988" y="-155.5893" font-family="Times,serif" font-size="9.00" fill="#000000">E0</text>
</g>
<!-- E1 -->
<g id="node2" class="node">
<title>E1</title>
<polygon fill="#d3d3d3" stroke="#000000" points="69.9963,-166.7893 44.0012,-166.7893 44.0012,-149.7893 69.9963,-149.7893 69.9963,-166.7893"/>
<text text-anchor="middle" x="56.9988" y="-155.5893" font-family="Times,serif" font-size="9.00" fill="#000000">E1</text>
</g>
<!-- E0&#45;&gt;E1 -->
<!-- 2 -->
<g id="node12" class="node">
<title>2</title>
<ellipse fill="#87cefa" stroke="#000000" cx="232.9988" cy="-14.853" rx="14.4914" ry="14.4914"/>
<text text-anchor="middle" x="232.9988" y="-12.153" font-family="Times,serif" font-size="9.00" fill="#000000">2</text>
</g>
<!-- E0&#45;&gt;2 -->
<g id="edge13" class="edge">
<title>E0&#45;&gt;2</title>
<path fill="none" stroke="#00ff00" stroke-width="1.2321" d="M26.0169,-153.2267C28.9674,-152.0884 32.0886,-150.8915 34.9988,-149.7893 78.0024,-133.5026 93.1664,-138.4189 131.9988,-113.7893 166.584,-91.8535 198.9908,-56.4839 217.3672,-34.51"/>
<polygon fill="#00ff00" stroke="#00ff00" stroke-width="1.2321" points="220.2775,-36.4809 223.9158,-26.5303 214.8664,-32.0402 220.2775,-36.4809"/>
</g>
<!-- E2 -->
<g id="node3" class="node">
<title>E2</title>
<polygon fill="#d3d3d3" stroke="#000000" points="113.9963,-166.7893 88.0012,-166.7893 88.0012,-149.7893 113.9963,-149.7893 113.9963,-166.7893"/>
<text text-anchor="middle" x="100.9988" y="-155.5893" font-family="Times,serif" font-size="9.00" fill="#000000">E2</text>
</g>
<!-- E1&#45;&gt;E2 -->
<!-- 3790 -->
<g id="node14" class="node">
<title>3790</title>
<ellipse fill="#add8e6" stroke="#000000" cx="32.9988" cy="-89.7477" rx="24.0833" ry="24.0833"/>
<text text-anchor="middle" x="32.9988" y="-91.5477" font-family="Times,serif" font-size="9.00" fill="#000000">3790</text>
<text text-anchor="middle" x="32.9988" y="-82.5477" font-family="Times,serif" font-size="9.00" fill="#000000">sigm</text>
</g>
<!-- E1&#45;&gt;3790 -->
<g id="edge21" class="edge">
<title>E1&#45;&gt;3790</title>
<path fill="none" stroke="#ff0000" stroke-width=".1724" d="M53.9592,-149.6085C51.493,-142.5655 47.8539,-132.1725 44.2972,-122.0149"/>
<polygon fill="#ff0000" stroke="#ff0000" stroke-width=".1724" points="47.5617,-120.7469 40.9535,-112.4655 40.955,-123.0603 47.5617,-120.7469"/>
</g>
<!-- E3 -->
<g id="node4" class="node">
<title>E3</title>
<polygon fill="#d3d3d3" stroke="#000000" points="161.9963,-166.7893 136.0012,-166.7893 136.0012,-149.7893 161.9963,-149.7893 161.9963,-166.7893"/>
<text text-anchor="middle" x="148.9988" y="-155.5893" font-family="Times,serif" font-size="9.00" fill="#000000">E3</text>
</g>
<!-- E2&#45;&gt;E3 -->
<!-- 3603 -->
<g id="node15" class="node">
<title>3603</title>
<ellipse fill="#add8e6" stroke="#000000" cx="98.9988" cy="-89.7477" rx="24.0833" ry="24.0833"/>
<text text-anchor="middle" x="98.9988" y="-91.5477" font-family="Times,serif" font-size="9.00" fill="#000000">3603</text>
<text text-anchor="middle" x="98.9988" y="-82.5477" font-family="Times,serif" font-size="9.00" fill="#000000">sigm</text>
</g>
<!-- E2&#45;&gt;3603 -->
<g id="edge16" class="edge">
<title>E2&#45;&gt;3603</title>
<path fill="none" stroke="#00ff00" stroke-width=".8414" d="M100.7455,-149.6085C100.554,-143.0479 100.2778,-133.5804 100.0013,-124.1041"/>
<polygon fill="#00ff00" stroke="#00ff00" stroke-width=".8414" points="103.4954,-123.8487 99.7051,-113.9551 96.4984,-124.053 103.4954,-123.8487"/>
</g>
<!-- E4 -->
<g id="node5" class="node">
<title>E4</title>
<polygon fill="#d3d3d3" stroke="#000000" points="205.9963,-166.7893 180.0012,-166.7893 180.0012,-149.7893 205.9963,-149.7893 205.9963,-166.7893"/>
<text text-anchor="middle" x="192.9988" y="-155.5893" font-family="Times,serif" font-size="9.00" fill="#000000">E4</text>
</g>
<!-- E3&#45;&gt;E4 -->
<!-- 0 -->
<g id="node10" class="node">
<title>0</title>
<ellipse fill="#87cefa" stroke="#000000" cx="121.9988" cy="-14.853" rx="14.4914" ry="14.4914"/>
<text text-anchor="middle" x="121.9988" y="-12.153" font-family="Times,serif" font-size="9.00" fill="#000000">0</text>
</g>
<!-- E3&#45;&gt;0 -->
<g id="edge22" class="edge">
<title>E3&#45;&gt;0</title>
<path fill="none" stroke="#ff0000" stroke-width=".3543" d="M147.4414,-149.6029C144.4916,-133.1966 137.8593,-96.5309 131.9988,-65.7061 130.3445,-57.0048 128.4838,-47.4762 126.8201,-39.0431"/>
<polygon fill="#ff0000" stroke="#ff0000" stroke-width=".3543" points="130.2253,-38.2208 124.8485,-29.0918 123.3588,-39.5813 130.2253,-38.2208"/>
</g>
<!-- 1 -->
<g id="node11" class="node">
<title>1</title>
<ellipse fill="#87cefa" stroke="#000000" cx="185.9988" cy="-14.853" rx="14.4914" ry="14.4914"/>
<text text-anchor="middle" x="185.9988" y="-12.153" font-family="Times,serif" font-size="9.00" fill="#000000">1</text>
</g>
<!-- E3&#45;&gt;1 -->
<g id="edge15" class="edge">
<title>E3&#45;&gt;1</title>
<path fill="none" stroke="#00ff00" stroke-width="2.066" d="M151.2025,-149.7463C156.7096,-128.3972 171.2344,-72.0896 179.6752,-39.3672"/>
<polygon fill="#00ff00" stroke="#00ff00" stroke-width="2.066" points="183.174,-39.8161 182.2827,-29.2589 176.3958,-38.0676 183.174,-39.8161"/>
</g>
<!-- E5 -->
<g id="node6" class="node">
<title>E5</title>
<polygon fill="#d3d3d3" stroke="#000000" points="249.9963,-166.7893 224.0012,-166.7893 224.0012,-149.7893 249.9963,-149.7893 249.9963,-166.7893"/>
<text text-anchor="middle" x="236.9988" y="-155.5893" font-family="Times,serif" font-size="9.00" fill="#000000">E5</text>
</g>
<!-- E4&#45;&gt;E5 -->
<!-- E6 -->
<g id="node7" class="node">
<title>E6</title>
<polygon fill="#d3d3d3" stroke="#000000" points="293.9963,-166.7893 268.0012,-166.7893 268.0012,-149.7893 293.9963,-149.7893 293.9963,-166.7893"/>
<text text-anchor="middle" x="280.9988" y="-155.5893" font-family="Times,serif" font-size="9.00" fill="#000000">E6</text>
</g>
<!-- E5&#45;&gt;E6 -->
<!-- E7 -->
<g id="node8" class="node">
<title>E7</title>
<polygon fill="#d3d3d3" stroke="#000000" points="337.9963,-166.7893 312.0012,-166.7893 312.0012,-149.7893 337.9963,-149.7893 337.9963,-166.7893"/>
<text text-anchor="middle" x="324.9988" y="-155.5893" font-family="Times,serif" font-size="9.00" fill="#000000">E7</text>
</g>
<!-- E6&#45;&gt;E7 -->
<!-- S -->
<g id="node13" class="node">
<title>S</title>
<ellipse fill="#87cefa" stroke="#000000" cx="279.9988" cy="-14.853" rx="14.7075" ry="14.7075"/>
<text text-anchor="middle" x="279.9988" y="-12.153" font-family="Times,serif" font-size="9.00" fill="#000000">S</text>
</g>
<!-- E6&#45;&gt;S -->
<g id="edge12" class="edge">
<title>E6&#45;&gt;S</title>
<path fill="none" stroke="#ff0000" stroke-width=".7753" d="M280.9392,-149.7463C280.7911,-128.5056 280.4018,-72.6603 280.1732,-39.8674"/>
<polygon fill="#ff0000" stroke="#ff0000" stroke-width=".7753" points="283.6721,-39.6886 280.1024,-29.7133 276.6723,-39.7375 283.6721,-39.6886"/>
</g>
<!-- E8 -->
<g id="node9" class="node">
<title>E8</title>
<polygon fill="#d3d3d3" stroke="#000000" points="381.9963,-166.7893 356.0012,-166.7893 356.0012,-149.7893 381.9963,-149.7893 381.9963,-166.7893"/>
<text text-anchor="middle" x="368.9988" y="-155.5893" font-family="Times,serif" font-size="9.00" fill="#000000">E8</text>
</g>
<!-- E7&#45;&gt;E8 -->
<!-- E8&#45;&gt;S -->
<g id="edge14" class="edge">
<title>E8&#45;&gt;S</title>
<path fill="none" stroke="#ff0000" stroke-width=".7389" d="M371.0321,-149.6097C374.5931,-132.2532 380.142,-92.6257 363.9988,-65.7061 350.7092,-43.5451 323.7081,-29.7989 303.8918,-22.272"/>
<polygon fill="#ff0000" stroke="#ff0000" stroke-width=".7389" points="304.8896,-18.9127 294.2947,-18.8912 302.5637,-25.5151 304.8896,-18.9127"/>
</g>
<!-- 5276 -->
<g id="node16" class="node">
<title>5276</title>
<ellipse fill="#add8e6" stroke="#000000" cx="330.9988" cy="-89.7477" rx="24.0833" ry="24.0833"/>
<text text-anchor="middle" x="330.9988" y="-91.5477" font-family="Times,serif" font-size="9.00" fill="#000000">5276</text>
<text text-anchor="middle" x="330.9988" y="-82.5477" font-family="Times,serif" font-size="9.00" fill="#000000">sigm</text>
</g>
<!-- E8&#45;&gt;5276 -->
<g id="edge19" class="edge">
<title>E8&#45;&gt;5276</title>
<path fill="none" stroke="#00ff00" stroke-width=".2999" d="M364.1861,-149.6085C360.0046,-142.0663 353.6932,-130.6822 347.6931,-119.8597"/>
<polygon fill="#00ff00" stroke="#00ff00" stroke-width=".2999" points="350.6897,-118.0463 342.7798,-110.9975 344.5676,-121.4404 350.6897,-118.0463"/>
</g>
<!-- 0&#45;&gt;1 -->
<!-- 1&#45;&gt;2 -->
<!-- 2&#45;&gt;S -->
<!-- 3790&#45;&gt;0 -->
<g id="edge18" class="edge">
<title>3790&#45;&gt;0</title>
<path fill="none" stroke="#ff0000" stroke-width=".6306" d="M51.4396,-74.2295C66.5615,-61.5042 87.8821,-43.5627 103.1216,-30.7384"/>
<polygon fill="#ff0000" stroke="#ff0000" stroke-width=".6306" points="105.4866,-33.3227 110.8844,-24.2059 100.9795,-27.9667 105.4866,-33.3227"/>
</g>
<!-- 3603&#45;&gt;0 -->
<g id="edge17" class="edge">
<title>3603&#45;&gt;0</title>
<path fill="none" stroke="#00ff00" stroke-width="1.7619" d="M106.15,-66.4611C108.8797,-57.5724 111.9928,-47.4354 114.733,-38.5124"/>
<polygon fill="#00ff00" stroke="#00ff00" stroke-width="1.7619" points="118.1433,-39.3296 117.7333,-28.7427 111.4518,-37.2746 118.1433,-39.3296"/>
</g>
<!-- 5276&#45;&gt;1 -->
<g id="edge20" class="edge">
<title>5276&#45;&gt;1</title>
<path fill="none" stroke="#ff0000" stroke-width=".3787" d="M308.8205,-79.5084C284.308,-68.0154 243.8179,-48.5078 209.9988,-29.7061 209.1744,-29.2477 208.3382,-28.7744 207.4968,-28.2908"/>
<polygon fill="#ff0000" stroke="#ff0000" stroke-width=".3787" points="208.948,-25.08 198.5714,-22.9404 205.3489,-31.0839 208.948,-25.08"/>
</g>
</g>
</svg>
