<?xml version="1.0" encoding="UTF-8" standalone="no"?>
<!DOCTYPE svg PUBLIC "-//W3C//DTD SVG 1.1//EN"
 "http://www.w3.org/Graphics/SVG/1.1/DTD/svg11.dtd">
<!-- Generated by graphviz version 2.40.1 (20161225.0304)
 -->
<!-- Title: %3 Pages: 1 -->
<svg width="485pt" height="182pt"
 viewBox="0.00 0.00 484.77 181.85" xmlns="http://www.w3.org/2000/svg" xmlns:xlink="http://www.w3.org/1999/xlink">
<g id="graph0" class="graph" transform="scale(1 1) rotate(0) translate(4 177.8494)">
<title>%3</title>
<polygon fill="#ffffff" stroke="transparent" points="-4,4 -4,-177.8494 480.7661,-177.8494 480.7661,4 -4,4"/>
<!-- 0 -->
<g id="node1" class="node">
<title>0</title>
<polygon fill="#d3d3d3" stroke="#000000" points="274.389,-173.8494 254.3771,-173.8494 254.3771,-156.8494 274.389,-156.8494 274.389,-173.8494"/>
<text text-anchor="middle" x="264.383" y="-162.6494" font-family="Times,serif" font-size="9.00" fill="#000000">0</text>
</g>
<!-- 1 -->
<g id="node2" class="node">
<title>1</title>
<polygon fill="#d3d3d3" stroke="#000000" points="365.389,-173.8494 345.3771,-173.8494 345.3771,-156.8494 365.389,-156.8494 365.389,-173.8494"/>
<text text-anchor="middle" x="355.383" y="-162.6494" font-family="Times,serif" font-size="9.00" fill="#000000">1</text>
</g>
<!-- 0&#45;&gt;1 -->
<!-- E4 -->
<g id="node8" class="node">
<title>E4</title>
<ellipse fill="#87cefa" stroke="#000000" cx="238.383" cy="-18.383" rx="18.2668" ry="18.2668"/>
<text text-anchor="middle" x="238.383" y="-15.683" font-family="Times,serif" font-size="9.00" fill="#000000">E4</text>
</g>
<!-- 0&#45;&gt;E4 -->
<g id="edge14" class="edge">
<title>0&#45;&gt;E4</title>
<path fill="none" stroke="#ff0000" stroke-width="1.0262" d="M262.8345,-156.5961C259.0859,-135.4071 249.3916,-80.6092 243.3966,-46.7221"/>
<polygon fill="#ff0000" stroke="#ff0000" stroke-width="1.0262" points="246.781,-45.7611 241.5923,-36.5237 239.888,-46.9806 246.781,-45.7611"/>
</g>
<!-- E7 -->
<g id="node11" class="node">
<title>E7</title>
<ellipse fill="#87cefa" stroke="#000000" cx="403.383" cy="-18.383" rx="18.2668" ry="18.2668"/>
<text text-anchor="middle" x="403.383" y="-15.683" font-family="Times,serif" font-size="9.00" fill="#000000">E7</text>
</g>
<!-- 0&#45;&gt;E7 -->
<g id="edge13" class="edge">
<title>0&#45;&gt;E7</title>
<path fill="none" stroke="#ff0000" stroke-width=".7839" d="M272.6619,-156.5961C294.2137,-133.8091 352.5279,-72.1528 383.4718,-39.4355"/>
<polygon fill="#ff0000" stroke="#ff0000" stroke-width=".7839" points="386.3815,-41.4526 390.7101,-31.7823 381.2958,-36.6425 386.3815,-41.4526"/>
</g>
<!-- 5288 -->
<g id="node13" class="node">
<title>5288</title>
<ellipse fill="#add8e6" stroke="#000000" cx="143.383" cy="-96.8077" rx="24.0833" ry="24.0833"/>
<text text-anchor="middle" x="143.383" y="-98.6077" font-family="Times,serif" font-size="9.00" fill="#000000">5288</text>
<text text-anchor="middle" x="143.383" y="-89.6077" font-family="Times,serif" font-size="9.00" fill="#000000">sigm</text>
</g>
<!-- 0&#45;&gt;5288 -->
<g id="edge16" class="edge">
<title>0&#45;&gt;5288</title>
<path fill="none" stroke="#00ff00" stroke-width=".2888" d="M254.0667,-159.5055C236.3781,-149.4857 199.6282,-128.6683 173.3264,-113.7694"/>
<polygon fill="#00ff00" stroke="#00ff00" stroke-width=".2888" points="174.9333,-110.6572 164.5072,-108.7737 171.4831,-116.7479 174.9333,-110.6572"/>
</g>
<!-- 2 -->
<g id="node3" class="node">
<title>2</title>
<polygon fill="#d3d3d3" stroke="#000000" points="430.389,-173.8494 410.3771,-173.8494 410.3771,-156.8494 430.389,-156.8494 430.389,-173.8494"/>
<text text-anchor="middle" x="420.383" y="-162.6494" font-family="Times,serif" font-size="9.00" fill="#000000">2</text>
</g>
<!-- 1&#45;&gt;2 -->
<!-- E6 -->
<g id="node10" class="node">
<title>E6</title>
<ellipse fill="#87cefa" stroke="#000000" cx="348.383" cy="-18.383" rx="18.2668" ry="18.2668"/>
<text text-anchor="middle" x="348.383" y="-15.683" font-family="Times,serif" font-size="9.00" fill="#000000">E6</text>
</g>
<!-- 1&#45;&gt;E6 -->
<g id="edge12" class="edge">
<title>1&#45;&gt;E6</title>
<path fill="none" stroke="#00ff00" stroke-width="2.6963" d="M354.9661,-156.5961C353.9596,-135.4629 351.3606,-80.8974 349.7456,-46.9901"/>
<polygon fill="#00ff00" stroke="#00ff00" stroke-width="2.6963" points="353.231,-46.5978 349.2591,-36.7757 346.2389,-46.9309 353.231,-46.5978"/>
</g>
<!-- 1&#45;&gt;E7 -->
<g id="edge18" class="edge">
<title>1&#45;&gt;E7</title>
<path fill="none" stroke="#ff0000" stroke-width=".2975" d="M358.2419,-156.5961C365.2289,-135.2034 383.4048,-79.5523 394.4447,-45.7505"/>
<polygon fill="#ff0000" stroke="#ff0000" stroke-width=".2975" points="397.8438,-46.6164 397.6215,-36.0239 391.1897,-44.4431 397.8438,-46.6164"/>
</g>
<!-- 2&#45;&gt;E6 -->
<g id="edge15" class="edge">
<title>2&#45;&gt;E6</title>
<path fill="none" stroke="#ff0000" stroke-width=".3603" d="M416.0947,-156.5961C405.4589,-134.8862 377.5382,-77.8945 361.0612,-44.2616"/>
<polygon fill="#ff0000" stroke="#ff0000" stroke-width=".3603" points="364.0865,-42.4813 356.5439,-35.0409 357.8003,-45.561 364.0865,-42.4813"/>
</g>
<!-- E8 -->
<g id="node12" class="node">
<title>E8</title>
<ellipse fill="#87cefa" stroke="#000000" cx="458.383" cy="-18.383" rx="18.2668" ry="18.2668"/>
<text text-anchor="middle" x="458.383" y="-15.683" font-family="Times,serif" font-size="9.00" fill="#000000">E8</text>
</g>
<!-- 2&#45;&gt;E8 -->
<g id="edge11" class="edge">
<title>2&#45;&gt;E8</title>
<path fill="none" stroke="#00ff00" stroke-width="1.5558" d="M423.3681,-156.5418C426.346,-147.6055 430.9586,-133.3471 434.383,-120.8494 441.2083,-95.9401 447.8137,-67.2971 452.361,-46.6387"/>
<polygon fill="#00ff00" stroke="#00ff00" stroke-width="1.5558" points="455.8335,-47.1414 454.5417,-36.6257 448.9938,-45.6519 455.8335,-47.1414"/>
</g>
<!-- E0 -->
<g id="node4" class="node">
<title>E0</title>
<ellipse fill="#87cefa" stroke="#000000" cx="18.383" cy="-18.383" rx="18.2668" ry="18.2668"/>
<text text-anchor="middle" x="18.383" y="-15.683" font-family="Times,serif" font-size="9.00" fill="#000000">E0</text>
</g>
<!-- E1 -->
<g id="node5" class="node">
<title>E1</title>
<ellipse fill="#87cefa" stroke="#000000" cx="73.383" cy="-18.383" rx="18.2668" ry="18.2668"/>
<text text-anchor="middle" x="73.383" y="-15.683" font-family="Times,serif" font-size="9.00" fill="#000000">E1</text>
</g>
<!-- E0&#45;&gt;E1 -->
<!-- E2 -->
<g id="node6" class="node">
<title>E2</title>
<ellipse fill="#87cefa" stroke="#000000" cx="128.383" cy="-18.383" rx="18.2668" ry="18.2668"/>
<text text-anchor="middle" x="128.383" y="-15.683" font-family="Times,serif" font-size="9.00" fill="#000000">E2</text>
</g>
<!-- E1&#45;&gt;E2 -->
<!-- E3 -->
<g id="node7" class="node">
<title>E3</title>
<ellipse fill="#87cefa" stroke="#000000" cx="183.383" cy="-18.383" rx="18.2668" ry="18.2668"/>
<text text-anchor="middle" x="183.383" y="-15.683" font-family="Times,serif" font-size="9.00" fill="#000000">E3</text>
</g>
<!-- E2&#45;&gt;E3 -->
<!-- E3&#45;&gt;E4 -->
<!-- E5 -->
<g id="node9" class="node">
<title>E5</title>
<ellipse fill="#87cefa" stroke="#000000" cx="293.383" cy="-18.383" rx="18.2668" ry="18.2668"/>
<text text-anchor="middle" x="293.383" y="-15.683" font-family="Times,serif" font-size="9.00" fill="#000000">E5</text>
</g>
<!-- E4&#45;&gt;E5 -->
<!-- E5&#45;&gt;E6 -->
<!-- E6&#45;&gt;E7 -->
<!-- E7&#45;&gt;E8 -->
<!-- 5288&#45;&gt;E1 -->
<g id="edge17" class="edge">
<title>5288&#45;&gt;E1</title>
<path fill="none" stroke="#ff0000" stroke-width=".3264" d="M127.1477,-78.6184C116.8109,-67.0375 103.3737,-51.9832 92.5188,-39.8218"/>
<polygon fill="#ff0000" stroke="#ff0000" stroke-width=".3264" points="95.0872,-37.4432 85.817,-32.3134 89.8649,-42.1045 95.0872,-37.4432"/>
</g>
</g>
</svg>
