<?xml version="1.0" encoding="UTF-8" standalone="no"?>
<!DOCTYPE svg PUBLIC "-//W3C//DTD SVG 1.1//EN"
 "http://www.w3.org/Graphics/SVG/1.1/DTD/svg11.dtd">
<!-- Generated by graphviz version 2.40.1 (20161225.0304)
 -->
<!-- Title: %3 Pages: 1 -->
<svg width="386pt" height="91pt"
 viewBox="0.00 0.00 386.00 90.71" xmlns="http://www.w3.org/2000/svg" xmlns:xlink="http://www.w3.org/1999/xlink">
<g id="graph0" class="graph" transform="scale(1 1) rotate(0) translate(4 86.7061)">
<title>%3</title>
<polygon fill="#ffffff" stroke="transparent" points="-4,4 -4,-86.7061 381.9976,-86.7061 381.9976,4 -4,4"/>
<!-- E0 -->
<g id="node1" class="node">
<title>E0</title>
<polygon fill="#d3d3d3" stroke="#000000" points="25.9963,-82.7061 .0012,-82.7061 .0012,-65.7061 25.9963,-65.7061 25.9963,-82.7061"/>
<text text-anchor="middle" x="12.9988" y="-71.5061" font-family="Times,serif" font-size="9.00" fill="#000000">E0</text>
</g>
<!-- E1 -->
<g id="node2" class="node">
<title>E1</title>
<polygon fill="#d3d3d3" stroke="#000000" points="69.9963,-82.7061 44.0012,-82.7061 44.0012,-65.7061 69.9963,-65.7061 69.9963,-82.7061"/>
<text text-anchor="middle" x="56.9988" y="-71.5061" font-family="Times,serif" font-size="9.00" fill="#000000">E1</text>
</g>
<!-- E0&#45;&gt;E1 -->
<!-- 2 -->
<g id="node12" class="node">
<title>2</title>
<ellipse fill="#87cefa" stroke="#000000" cx="232.9988" cy="-14.853" rx="14.4914" ry="14.4914"/>
<text text-anchor="middle" x="232.9988" y="-12.153" font-family="Times,serif" font-size="9.00" fill="#000000">2</text>
</g>
<!-- E0&#45;&gt;2 -->
<g id="edge24" class="edge">
<title>E0&#45;&gt;2</title>
<path fill="none" stroke="#ff0000" stroke-width=".1706" d="M26.374,-68.6355C29.1932,-67.5755 32.1707,-66.5388 34.9988,-65.7061 110.7542,-43.3999 135.6347,-58.9322 208.9988,-29.7061 209.8751,-29.357 210.7553,-28.9764 211.6339,-28.5711"/>
<polygon fill="#ff0000" stroke="#ff0000" stroke-width=".1706" points="213.6445,-31.4604 220.7325,-23.5856 210.2808,-25.3215 213.6445,-31.4604"/>
</g>
<!-- E2 -->
<g id="node3" class="node">
<title>E2</title>
<polygon fill="#d3d3d3" stroke="#000000" points="113.9963,-82.7061 88.0012,-82.7061 88.0012,-65.7061 113.9963,-65.7061 113.9963,-82.7061"/>
<text text-anchor="middle" x="100.9988" y="-71.5061" font-family="Times,serif" font-size="9.00" fill="#000000">E2</text>
</g>
<!-- E1&#45;&gt;E2 -->
<!-- S -->
<g id="node13" class="node">
<title>S</title>
<ellipse fill="#87cefa" stroke="#000000" cx="279.9988" cy="-14.853" rx="14.7075" ry="14.7075"/>
<text text-anchor="middle" x="279.9988" y="-12.153" font-family="Times,serif" font-size="9.00" fill="#000000">S</text>
</g>
<!-- E1&#45;&gt;S -->
<g id="edge13" class="edge">
<title>E1&#45;&gt;S</title>
<path fill="none" stroke="#00ff00" stroke-width=".3237" d="M70.3718,-68.6281C73.1912,-67.5686 76.1693,-66.534 78.9988,-65.7061 156.0452,-43.1606 181.3715,-59.29 255.9988,-29.7061 256.8757,-29.3585 257.7564,-28.9791 258.6354,-28.5749"/>
<polygon fill="#00ff00" stroke="#00ff00" stroke-width=".3237" points="260.644,-31.4655 267.7359,-23.5943 257.2834,-25.3249 260.644,-31.4655"/>
</g>
<!-- E3 -->
<g id="node4" class="node">
<title>E3</title>
<polygon fill="#d3d3d3" stroke="#000000" points="157.9963,-82.7061 132.0012,-82.7061 132.0012,-65.7061 157.9963,-65.7061 157.9963,-82.7061"/>
<text text-anchor="middle" x="144.9988" y="-71.5061" font-family="Times,serif" font-size="9.00" fill="#000000">E3</text>
</g>
<!-- E2&#45;&gt;E3 -->
<!-- 0 -->
<g id="node10" class="node">
<title>0</title>
<ellipse fill="#87cefa" stroke="#000000" cx="138.9988" cy="-14.853" rx="14.4914" ry="14.4914"/>
<text text-anchor="middle" x="138.9988" y="-12.153" font-family="Times,serif" font-size="9.00" fill="#000000">0</text>
</g>
<!-- E2&#45;&gt;0 -->
<g id="edge21" class="edge">
<title>E2&#45;&gt;0</title>
<path fill="none" stroke="#00ff00" stroke-width=".1858" d="M106.4433,-65.7022C111.3955,-57.9672 118.9114,-46.228 125.4743,-35.9772"/>
<polygon fill="#00ff00" stroke="#00ff00" stroke-width=".1858" points="128.4636,-37.7993 130.908,-27.4902 122.5683,-34.0249 128.4636,-37.7993"/>
</g>
<!-- E2&#45;&gt;S -->
<g id="edge16" class="edge">
<title>E2&#45;&gt;S</title>
<path fill="none" stroke="#ff0000" stroke-width=".5946" d="M114.4149,-68.7671C117.2311,-67.6975 120.1971,-66.6237 122.9988,-65.7061 181.195,-46.645 199.8179,-54.0748 255.9988,-29.7061 256.8641,-29.3307 257.7351,-28.9278 258.6058,-28.5037"/>
<polygon fill="#ff0000" stroke="#ff0000" stroke-width=".5946" points="260.6519,-31.3694 267.6679,-23.4305 257.2325,-25.2614 260.6519,-31.3694"/>
</g>
<!-- E4 -->
<g id="node5" class="node">
<title>E4</title>
<polygon fill="#d3d3d3" stroke="#000000" points="201.9963,-82.7061 176.0012,-82.7061 176.0012,-65.7061 201.9963,-65.7061 201.9963,-82.7061"/>
<text text-anchor="middle" x="188.9988" y="-71.5061" font-family="Times,serif" font-size="9.00" fill="#000000">E4</text>
</g>
<!-- E3&#45;&gt;E4 -->
<!-- E3&#45;&gt;2 -->
<g id="edge22" class="edge">
<title>E3&#45;&gt;2</title>
<path fill="none" stroke="#00ff00" stroke-width=".3133" d="M157.607,-65.7022C171.8823,-56.074 195.3563,-40.2416 212.3225,-28.7985"/>
<polygon fill="#00ff00" stroke="#00ff00" stroke-width=".3133" points="214.6454,-31.4535 220.9789,-22.9601 210.7312,-25.6501 214.6454,-31.4535"/>
</g>
<!-- E5 -->
<g id="node6" class="node">
<title>E5</title>
<polygon fill="#d3d3d3" stroke="#000000" points="245.9963,-82.7061 220.0012,-82.7061 220.0012,-65.7061 245.9963,-65.7061 245.9963,-82.7061"/>
<text text-anchor="middle" x="232.9988" y="-71.5061" font-family="Times,serif" font-size="9.00" fill="#000000">E5</text>
</g>
<!-- E4&#45;&gt;E5 -->
<!-- E4&#45;&gt;0 -->
<g id="edge15" class="edge">
<title>E4&#45;&gt;0</title>
<path fill="none" stroke="#ff0000" stroke-width="1.9955" d="M181.835,-65.7022C174.8632,-57.4263 164.0299,-44.5665 155.0025,-33.8504"/>
<polygon fill="#ff0000" stroke="#ff0000" stroke-width="1.9955" points="157.6646,-31.578 148.5451,-26.185 152.3111,-36.088 157.6646,-31.578"/>
</g>
<!-- E6 -->
<g id="node7" class="node">
<title>E6</title>
<polygon fill="#d3d3d3" stroke="#000000" points="289.9963,-82.7061 264.0012,-82.7061 264.0012,-65.7061 289.9963,-65.7061 289.9963,-82.7061"/>
<text text-anchor="middle" x="276.9988" y="-71.5061" font-family="Times,serif" font-size="9.00" fill="#000000">E6</text>
</g>
<!-- E5&#45;&gt;E6 -->
<!-- 1 -->
<g id="node11" class="node">
<title>1</title>
<ellipse fill="#87cefa" stroke="#000000" cx="185.9988" cy="-14.853" rx="14.4914" ry="14.4914"/>
<text text-anchor="middle" x="185.9988" y="-12.153" font-family="Times,serif" font-size="9.00" fill="#000000">1</text>
</g>
<!-- E5&#45;&gt;1 -->
<g id="edge19" class="edge">
<title>E5&#45;&gt;1</title>
<path fill="none" stroke="#ff0000" stroke-width=".3546" d="M226.2648,-65.7022C219.8557,-57.6086 209.9749,-45.1309 201.6055,-34.5617"/>
<polygon fill="#ff0000" stroke="#ff0000" stroke-width=".3546" points="204.2645,-32.2816 195.3125,-26.6148 198.7767,-36.6273 204.2645,-32.2816"/>
</g>
<!-- E5&#45;&gt;2 -->
<g id="edge17" class="edge">
<title>E5&#45;&gt;2</title>
<path fill="none" stroke="#ff0000" stroke-width=".4248" d="M232.9988,-65.7022C232.9988,-58.9749 232.9988,-49.2187 232.9988,-40.0472"/>
<polygon fill="#ff0000" stroke="#ff0000" stroke-width=".4248" points="236.4989,-39.7656 232.9988,-29.7657 229.4989,-39.7657 236.4989,-39.7656"/>
</g>
<!-- E7 -->
<g id="node8" class="node">
<title>E7</title>
<polygon fill="#d3d3d3" stroke="#000000" points="333.9963,-82.7061 308.0012,-82.7061 308.0012,-65.7061 333.9963,-65.7061 333.9963,-82.7061"/>
<text text-anchor="middle" x="320.9988" y="-71.5061" font-family="Times,serif" font-size="9.00" fill="#000000">E7</text>
</g>
<!-- E6&#45;&gt;E7 -->
<!-- E6&#45;&gt;1 -->
<g id="edge14" class="edge">
<title>E6&#45;&gt;1</title>
<path fill="none" stroke="#00ff00" stroke-width="1.5541" d="M263.9607,-65.7022C248.9783,-55.9303 224.1976,-39.7675 206.5987,-28.289"/>
<polygon fill="#00ff00" stroke="#00ff00" stroke-width="1.5541" points="208.4282,-25.3036 198.1402,-22.7721 204.604,-31.1667 208.4282,-25.3036"/>
</g>
<!-- E6&#45;&gt;S -->
<g id="edge23" class="edge">
<title>E6&#45;&gt;S</title>
<path fill="none" stroke="#00ff00" stroke-width=".4763" d="M277.4286,-65.7022C277.7686,-58.9749 278.2618,-49.2187 278.7253,-40.0472"/>
<polygon fill="#00ff00" stroke="#00ff00" stroke-width=".4763" points="282.2357,-39.9296 279.245,-29.7657 275.2446,-39.5762 282.2357,-39.9296"/>
</g>
<!-- E8 -->
<g id="node9" class="node">
<title>E8</title>
<polygon fill="#d3d3d3" stroke="#000000" points="377.9963,-82.7061 352.0012,-82.7061 352.0012,-65.7061 377.9963,-65.7061 377.9963,-82.7061"/>
<text text-anchor="middle" x="364.9988" y="-71.5061" font-family="Times,serif" font-size="9.00" fill="#000000">E8</text>
</g>
<!-- E7&#45;&gt;E8 -->
<!-- E7&#45;&gt;1 -->
<g id="edge20" class="edge">
<title>E7&#45;&gt;1</title>
<path fill="none" stroke="#00ff00" stroke-width=".1308" d="M307.9001,-69.102C280.5562,-58.4258 219.172,-34.3396 209.9988,-29.7061 209.1568,-29.2808 208.3058,-28.8355 207.4518,-28.3756"/>
<polygon fill="#00ff00" stroke="#00ff00" stroke-width=".1308" points="208.8694,-25.1506 198.4679,-23.1356 205.3426,-31.1972 208.8694,-25.1506"/>
</g>
<!-- E8&#45;&gt;2 -->
<g id="edge12" class="edge">
<title>E8&#45;&gt;2</title>
<path fill="none" stroke="#00ff00" stroke-width="1.6054" d="M351.721,-68.9461C324.6609,-58.2028 264.9255,-34.3592 255.9988,-29.7061 255.1874,-29.2831 254.368,-28.8398 253.5463,-28.3816"/>
<polygon fill="#00ff00" stroke="#00ff00" stroke-width="1.6054" points="255.2867,-25.3437 244.9216,-23.1494 251.656,-31.3286 255.2867,-25.3437"/>
</g>
<!-- E8&#45;&gt;S -->
<g id="edge18" class="edge">
<title>E8&#45;&gt;S</title>
<path fill="none" stroke="#00ff00" stroke-width=".1125" d="M352.8204,-65.7022C339.2641,-56.2363 317.1197,-40.7735 300.8041,-29.3808"/>
<polygon fill="#00ff00" stroke="#00ff00" stroke-width=".1125" points="302.6338,-26.3896 292.431,-23.5341 298.6262,-32.1289 302.6338,-26.3896"/>
</g>
<!-- 0&#45;&gt;1 -->
<!-- 1&#45;&gt;2 -->
<!-- 2&#45;&gt;S -->
</g>
</svg>
