<?xml version="1.0" encoding="utf-8" standalone="no"?>
<!DOCTYPE svg PUBLIC "-//W3C//DTD SVG 1.1//EN"
  "http://www.w3.org/Graphics/SVG/1.1/DTD/svg11.dtd">
<!-- Created with matplotlib (https://matplotlib.org/) -->
<svg height="345.6pt" version="1.1" viewBox="0 0 460.8 345.6" width="460.8pt" xmlns="http://www.w3.org/2000/svg" xmlns:xlink="http://www.w3.org/1999/xlink">
 <defs>
  <style type="text/css">
*{stroke-linecap:butt;stroke-linejoin:round;}
  </style>
 </defs>
 <g id="figure_1">
  <g id="patch_1">
   <path d="M 0 345.6 
L 460.8 345.6 
L 460.8 0 
L 0 0 
z
" style="fill:#ffffff;"/>
  </g>
  <g id="axes_1">
   <g id="patch_2">
    <path d="M 57.6 307.584 
L 414.72 307.584 
L 414.72 41.472 
L 57.6 41.472 
z
" style="fill:#ffffff;"/>
   </g>
   <g id="PolyCollection_1">
    <path clip-path="url(#p5e209f2f86)" d="M 73.832727 53.568 
L 73.832727 62.394192 
L 74.918528 95.109913 
L 76.00433 119.158724 
L 77.090131 145.352348 
L 78.175932 172.128376 
L 79.261733 163.042864 
L 80.347534 193.12517 
L 81.433335 151.376742 
L 82.519137 162.22611 
L 83.604938 189.470972 
L 84.690739 192.623666 
L 85.77654 169.783776 
L 86.862341 143.049738 
L 87.948142 139.665443 
L 89.033943 150.27294 
L 90.119745 146.099734 
L 91.205546 156.219216 
L 92.291347 145.530289 
L 93.377148 145.867436 
L 94.462949 146.361475 
L 95.54875 159.378592 
L 96.634552 142.563488 
L 97.720353 200.044823 
L 98.806154 200.43377 
L 99.891955 160.981954 
L 100.977756 176.148776 
L 102.063557 172.149094 
L 103.149358 174.242041 
L 104.23516 166.736133 
L 105.320961 175.696038 
L 106.406762 183.931531 
L 107.492563 160.503003 
L 108.578364 185.971288 
L 109.664165 205.121247 
L 110.749967 214.570559 
L 111.835768 212.222182 
L 112.921569 202.984742 
L 114.00737 205.193266 
L 115.093171 174.219606 
L 116.178972 179.149872 
L 117.264773 147.954188 
L 118.350575 138.38481 
L 119.436376 100.311317 
L 120.522177 113.755127 
L 121.607978 152.838919 
L 122.693779 144.086075 
L 123.77958 130.508994 
L 124.865382 137.286045 
L 125.951183 142.460882 
L 127.036984 159.875545 
L 128.122785 166.823899 
L 129.208586 205.035526 
L 130.294387 229.80887 
L 131.380189 199.237254 
L 132.46599 168.056612 
L 133.551791 178.01509 
L 134.637592 232.251335 
L 135.723393 236.171366 
L 136.809194 247.030133 
L 137.894995 205.943218 
L 138.980797 236.903227 
L 140.066598 234.771652 
L 141.152399 242.641167 
L 142.2382 204.992692 
L 143.324001 199.450768 
L 144.409802 191.344873 
L 145.495604 181.054118 
L 146.581405 186.079778 
L 147.667206 223.174541 
L 148.753007 187.396853 
L 149.838808 188.983366 
L 150.924609 172.886154 
L 152.01041 184.644663 
L 153.096212 211.196493 
L 154.182013 202.932847 
L 155.267814 172.002153 
L 156.353615 173.219533 
L 157.439416 188.542251 
L 158.525217 205.813219 
L 159.611019 173.12835 
L 160.69682 179.948511 
L 161.782621 172.47999 
L 162.868422 183.617974 
L 163.954223 165.900913 
L 165.040024 163.655512 
L 166.125825 171.078817 
L 167.211627 163.267964 
L 168.297428 157.876171 
L 169.383229 159.482483 
L 170.46903 185.274044 
L 171.554831 157.641006 
L 172.640632 152.583678 
L 173.726434 154.566195 
L 174.812235 164.808615 
L 175.898036 145.306364 
L 176.983837 157.745223 
L 178.069638 132.958163 
L 179.155439 155.967916 
L 180.24124 172.833938 
L 181.327042 167.154016 
L 182.412843 169.282173 
L 183.498644 172.457361 
L 184.584445 176.160152 
L 185.670246 160.209968 
L 186.756047 159.8114 
L 187.841849 178.642465 
L 188.92765 151.640838 
L 190.013451 202.704639 
L 191.099252 233.121833 
L 192.185053 220.411526 
L 193.270854 242.80315 
L 194.356656 202.721721 
L 195.442457 186.960253 
L 196.528258 191.085238 
L 197.614059 211.933709 
L 198.69986 216.549741 
L 199.785661 202.667899 
L 200.871462 231.953992 
L 201.957264 221.511781 
L 203.043065 235.055423 
L 204.128866 236.105029 
L 205.214667 239.728024 
L 206.300468 224.42636 
L 207.386269 224.75455 
L 208.472071 203.875397 
L 209.557872 207.082281 
L 210.643673 223.850634 
L 211.729474 226.865852 
L 212.815275 213.48565 
L 213.901076 202.844711 
L 214.986877 187.142349 
L 216.072679 184.938721 
L 217.15848 176.512888 
L 218.244281 192.0905 
L 219.330082 186.289972 
L 220.415883 153.794458 
L 221.501684 141.71517 
L 222.587486 158.26438 
L 223.673287 123.465887 
L 224.759088 167.303275 
L 225.844889 197.173156 
L 226.93069 202.901395 
L 228.016491 168.027621 
L 229.102292 191.073207 
L 230.188094 178.809716 
L 231.273895 209.03603 
L 232.359696 209.151043 
L 233.445497 206.696217 
L 234.531298 162.751331 
L 235.617099 165.086841 
L 236.702901 195.837721 
L 237.788702 149.243645 
L 238.874503 150.11568 
L 239.960304 176.552808 
L 241.046105 194.205523 
L 242.131906 199.265289 
L 243.217708 216.819379 
L 244.303509 252.408294 
L 245.38931 245.898625 
L 246.475111 220.961403 
L 247.560912 239.586172 
L 248.646713 223.825894 
L 249.732514 243.885017 
L 250.818316 239.865501 
L 251.904117 268.191247 
L 252.989918 260.025057 
L 254.075719 251.297204 
L 255.16152 223.849422 
L 256.247321 238.530835 
L 257.333123 192.24956 
L 258.418924 217.743829 
L 259.504725 239.134105 
L 260.590526 245.185793 
L 261.676327 247.019244 
L 262.762128 237.50339 
L 263.847929 219.147184 
L 264.933731 230.53844 
L 266.019532 271.345653 
L 267.105333 204.419364 
L 268.191134 273.228822 
L 269.276935 229.609025 
L 270.362736 218.560404 
L 271.448538 215.370657 
L 272.534339 229.569511 
L 273.62014 232.112135 
L 274.705941 212.630085 
L 275.791742 224.875249 
L 276.877543 224.019817 
L 277.963344 199.714514 
L 279.049146 195.934894 
L 280.134947 209.642735 
L 281.220748 227.134336 
L 282.306549 227.065128 
L 283.39235 218.139812 
L 284.478151 238.222005 
L 285.563953 196.73265 
L 286.649754 217.732002 
L 287.735555 213.900757 
L 288.821356 214.924381 
L 289.907157 250.706535 
L 290.992958 229.880007 
L 292.07876 253.484313 
L 293.164561 231.434925 
L 294.250362 266.718353 
L 295.336163 210.993311 
L 296.421964 204.109285 
L 297.507765 194.045792 
L 298.593566 197.234031 
L 299.679368 183.607136 
L 300.765169 194.372934 
L 301.85097 188.537323 
L 302.936771 168.649664 
L 304.022572 170.698646 
L 305.108373 193.794847 
L 306.194175 219.718034 
L 307.279976 192.153076 
L 308.365777 224.590461 
L 309.451578 215.935684 
L 310.537379 223.050469 
L 311.62318 182.086829 
L 312.708981 208.987867 
L 313.794783 205.146506 
L 314.880584 226.340758 
L 315.966385 197.021677 
L 317.052186 214.386138 
L 318.137987 227.729671 
L 319.223788 215.947525 
L 320.30959 198.627924 
L 321.395391 195.845892 
L 322.481192 182.437591 
L 323.566993 189.214776 
L 324.652794 223.361599 
L 325.738595 209.819162 
L 326.824396 223.565444 
L 327.910198 223.407834 
L 328.995999 221.922318 
L 330.0818 230.049999 
L 331.167601 223.741687 
L 332.253402 250.197896 
L 333.339203 215.312542 
L 334.425005 238.876582 
L 335.510806 223.674737 
L 336.596607 249.915621 
L 337.682408 221.91715 
L 338.768209 178.668494 
L 339.85401 192.465395 
L 340.939811 204.543906 
L 342.025613 199.461723 
L 343.111414 217.179225 
L 344.197215 195.166563 
L 345.283016 186.547787 
L 346.368817 189.573355 
L 347.454618 219.176806 
L 348.54042 204.995155 
L 349.626221 205.30736 
L 350.712022 215.625152 
L 351.797823 229.210755 
L 352.883624 205.208564 
L 353.969425 177.638176 
L 355.055227 215.527504 
L 356.141028 217.420314 
L 357.226829 188.342453 
L 358.31263 199.926206 
L 359.398431 210.040892 
L 360.484232 202.850708 
L 361.570033 208.000605 
L 362.655835 234.793213 
L 363.741636 251.339836 
L 364.827437 272.701605 
L 365.913238 211.120169 
L 366.999039 190.693809 
L 368.08484 178.036019 
L 369.170642 196.835895 
L 370.256443 222.606686 
L 371.342244 218.068423 
L 372.428045 239.002899 
L 373.513846 238.644282 
L 374.599647 231.780932 
L 375.685448 202.576564 
L 376.77125 229.988109 
L 377.857051 259.480513 
L 378.942852 249.189051 
L 380.028653 257.899505 
L 381.114454 228.695545 
L 382.200255 208.735602 
L 383.286057 201.855049 
L 384.371858 208.517281 
L 385.457659 194.05792 
L 386.54346 207.507553 
L 387.629261 218.850747 
L 388.715062 228.840856 
L 389.800863 241.821233 
L 390.886665 269.319652 
L 391.972466 258.774284 
L 393.058267 248.045653 
L 394.144068 295.488 
L 395.229869 279.779857 
L 396.31567 248.734051 
L 397.401472 242.670643 
L 398.487273 213.859427 
L 398.487273 189.405924 
L 398.487273 189.405924 
L 397.401472 209.513169 
L 396.31567 201.79133 
L 395.229869 242.44216 
L 394.144068 265.801925 
L 393.058267 237.957504 
L 391.972466 224.404415 
L 390.886665 232.298083 
L 389.800863 234.966407 
L 388.715062 218.144297 
L 387.629261 191.927677 
L 386.54346 182.494958 
L 385.457659 167.851517 
L 384.371858 185.247092 
L 383.286057 189.004107 
L 382.200255 185.961593 
L 381.114454 204.907613 
L 380.028653 240.615783 
L 378.942852 240.518856 
L 377.857051 245.309529 
L 376.77125 215.121726 
L 375.685448 178.283381 
L 374.599647 198.785113 
L 373.513846 211.281573 
L 372.428045 225.724586 
L 371.342244 191.838259 
L 370.256443 190.699227 
L 369.170642 175.315104 
L 368.08484 159.400088 
L 366.999039 168.48438 
L 365.913238 183.95536 
L 364.827437 229.944573 
L 363.741636 209.309694 
L 362.655835 210.919571 
L 361.570033 184.118008 
L 360.484232 179.724037 
L 359.398431 192.24947 
L 358.31263 165.180184 
L 357.226829 165.742756 
L 356.141028 187.15829 
L 355.055227 189.19444 
L 353.969425 157.230211 
L 352.883624 183.547691 
L 351.797823 217.424962 
L 350.712022 195.615599 
L 349.626221 173.019569 
L 348.54042 172.543762 
L 347.454618 198.935071 
L 346.368817 158.078742 
L 345.283016 161.492497 
L 344.197215 170.462922 
L 343.111414 195.456675 
L 342.025613 182.502554 
L 340.939811 178.769183 
L 339.85401 169.636946 
L 338.768209 171.74222 
L 337.682408 196.933923 
L 336.596607 230.055794 
L 335.510806 200.478235 
L 334.425005 232.900511 
L 333.339203 198.3083 
L 332.253402 232.114766 
L 331.167601 197.129521 
L 330.0818 210.652314 
L 328.995999 196.685237 
L 327.910198 204.033518 
L 326.824396 212.815709 
L 325.738595 196.600846 
L 324.652794 205.430408 
L 323.566993 170.670514 
L 322.481192 172.950166 
L 321.395391 180.734053 
L 320.30959 173.596013 
L 319.223788 195.006011 
L 318.137987 205.656425 
L 317.052186 195.28325 
L 315.966385 173.1805 
L 314.880584 206.492367 
L 313.794783 172.532033 
L 312.708981 186.286026 
L 311.62318 163.250307 
L 310.537379 196.882194 
L 309.451578 197.18732 
L 308.365777 213.621887 
L 307.279976 180.561991 
L 306.194175 186.070947 
L 305.108373 173.383259 
L 304.022572 156.300233 
L 302.936771 136.249228 
L 301.85097 171.96518 
L 300.765169 171.789492 
L 299.679368 162.467101 
L 298.593566 176.727737 
L 297.507765 179.663444 
L 296.421964 175.752952 
L 295.336163 181.811228 
L 294.250362 240.133901 
L 293.164561 220.221341 
L 292.07876 215.958625 
L 290.992958 203.992957 
L 289.907157 205.6564 
L 288.821356 185.194402 
L 287.735555 179.330352 
L 286.649754 172.121051 
L 285.563953 165.906625 
L 284.478151 191.622106 
L 283.39235 167.606751 
L 282.306549 194.21028 
L 281.220748 193.672975 
L 280.134947 163.399043 
L 279.049146 164.976417 
L 277.963344 158.082208 
L 276.877543 191.848435 
L 275.791742 184.995857 
L 274.705941 181.677585 
L 273.62014 210.462068 
L 272.534339 193.203874 
L 271.448538 186.383621 
L 270.362736 179.764444 
L 269.276935 206.54318 
L 268.191134 232.088054 
L 267.105333 194.388831 
L 266.019532 224.424267 
L 264.933731 188.967139 
L 263.847929 197.784762 
L 262.762128 199.816135 
L 261.676327 229.685947 
L 260.590526 219.766323 
L 259.504725 208.711006 
L 258.418924 187.778001 
L 257.333123 173.123015 
L 256.247321 200.573662 
L 255.16152 184.458295 
L 254.075719 205.677368 
L 252.989918 220.410876 
L 251.904117 228.10883 
L 250.818316 216.81823 
L 249.732514 204.225003 
L 248.646713 172.139389 
L 247.560912 190.71421 
L 246.475111 193.015403 
L 245.38931 193.852839 
L 244.303509 182.488311 
L 243.217708 162.161535 
L 242.131906 165.760229 
L 241.046105 156.394528 
L 239.960304 142.020535 
L 238.874503 118.174414 
L 237.788702 117.919699 
L 236.702901 143.408145 
L 235.617099 140.4933 
L 234.531298 139.982731 
L 233.445497 180.910419 
L 232.359696 180.675828 
L 231.273895 190.017024 
L 230.188094 166.11443 
L 229.102292 160.866062 
L 228.016491 158.103534 
L 226.93069 173.510687 
L 225.844889 181.965368 
L 224.759088 148.955149 
L 223.673287 115.494416 
L 222.587486 134.640473 
L 221.501684 116.726168 
L 220.415883 134.456251 
L 219.330082 166.459362 
L 218.244281 167.592925 
L 217.15848 149.438197 
L 216.072679 147.027941 
L 214.986877 160.335557 
L 213.901076 171.275462 
L 212.815275 198.987793 
L 211.729474 194.519602 
L 210.643673 191.963227 
L 209.557872 201.590681 
L 208.472071 179.736747 
L 207.386269 190.550008 
L 206.300468 197.334307 
L 205.214667 212.555744 
L 204.128866 214.9454 
L 203.043065 204.406053 
L 201.957264 198.732377 
L 200.871462 216.516667 
L 199.785661 180.940561 
L 198.69986 203.921579 
L 197.614059 179.729332 
L 196.528258 165.61379 
L 195.442457 181.176776 
L 194.356656 188.700806 
L 193.270854 221.520278 
L 192.185053 196.624944 
L 191.099252 203.084611 
L 190.013451 170.026805 
L 188.92765 126.284425 
L 187.841849 135.006857 
L 186.756047 144.858875 
L 185.670246 145.057076 
L 184.584445 148.6101 
L 183.498644 161.587275 
L 182.412843 160.020898 
L 181.327042 146.381821 
L 180.24124 158.777192 
L 179.155439 138.553504 
L 178.069638 119.154234 
L 176.983837 122.394676 
L 175.898036 128.961107 
L 174.812235 126.079144 
L 173.726434 135.572744 
L 172.640632 142.092536 
L 171.554831 137.543653 
L 170.46903 153.57492 
L 169.383229 144.521575 
L 168.297428 143.146514 
L 167.211627 157.384764 
L 166.125825 153.94841 
L 165.040024 148.883781 
L 163.954223 143.888076 
L 162.868422 161.498082 
L 161.782621 149.430025 
L 160.69682 159.910741 
L 159.611019 165.203855 
L 158.525217 189.170058 
L 157.439416 177.962887 
L 156.353615 141.633592 
L 155.267814 152.517516 
L 154.182013 174.603937 
L 153.096212 178.940921 
L 152.01041 161.187868 
L 150.924609 148.389718 
L 149.838808 164.57032 
L 148.753007 151.04357 
L 147.667206 164.853853 
L 146.581405 167.060458 
L 145.495604 158.783418 
L 144.409802 164.908441 
L 143.324001 166.385202 
L 142.2382 185.297221 
L 141.152399 189.830118 
L 140.066598 207.607675 
L 138.980797 189.35915 
L 137.894995 179.285628 
L 136.809194 223.408608 
L 135.723393 205.48046 
L 134.637592 213.946706 
L 133.551791 155.942986 
L 132.46599 152.295079 
L 131.380189 184.258351 
L 130.294387 200.334481 
L 129.208586 165.805671 
L 128.122785 146.348531 
L 127.036984 149.186827 
L 125.951183 131.232959 
L 124.865382 129.161229 
L 123.77958 116.908219 
L 122.693779 131.61531 
L 121.607978 139.75797 
L 120.522177 108.281304 
L 119.436376 87.780791 
L 118.350575 116.519193 
L 117.264773 133.438083 
L 116.178972 162.939471 
L 115.093171 165.162048 
L 114.00737 180.062735 
L 112.921569 185.020585 
L 111.835768 180.690214 
L 110.749967 185.823718 
L 109.664165 179.002437 
L 108.578364 161.508563 
L 107.492563 141.928927 
L 106.406762 165.160923 
L 105.320961 160.984358 
L 104.23516 140.737264 
L 103.149358 150.462977 
L 102.063557 163.832489 
L 100.977756 159.430269 
L 99.891955 139.822599 
L 98.806154 165.698977 
L 97.720353 171.299001 
L 96.634552 126.753308 
L 95.54875 141.346411 
L 94.462949 133.773029 
L 93.377148 133.341508 
L 92.291347 135.768876 
L 91.205546 131.353553 
L 90.119745 118.688932 
L 89.033943 136.908224 
L 87.948142 135.613255 
L 86.862341 125.699808 
L 85.77654 154.566637 
L 84.690739 172.96364 
L 83.604938 169.737497 
L 82.519137 155.312778 
L 81.433335 129.658654 
L 80.347534 151.060265 
L 79.261733 132.259699 
L 78.175932 129.428967 
L 77.090131 112.74099 
L 76.00433 107.213314 
L 74.918528 79.911457 
L 73.832727 53.568 
z
" style="fill:#0000ff;fill-opacity:0.25;"/>
   </g>
   <g id="matplotlib.axis_1">
    <g id="xtick_1">
     <g id="line2d_1">
      <defs>
       <path d="M 0 0 
L 0 3.5 
" id="m9ac77397c9" style="stroke:#000000;stroke-width:0.8;"/>
      </defs>
      <g>
       <use style="stroke:#000000;stroke-width:0.8;" x="73.832727" xlink:href="#m9ac77397c9" y="307.584"/>
      </g>
     </g>
     <g id="text_1">
      <!-- 0 -->
      <defs>
       <path d="M 31.78125 66.40625 
Q 24.171875 66.40625 20.328125 58.90625 
Q 16.5 51.421875 16.5 36.375 
Q 16.5 21.390625 20.328125 13.890625 
Q 24.171875 6.390625 31.78125 6.390625 
Q 39.453125 6.390625 43.28125 13.890625 
Q 47.125 21.390625 47.125 36.375 
Q 47.125 51.421875 43.28125 58.90625 
Q 39.453125 66.40625 31.78125 66.40625 
z
M 31.78125 74.21875 
Q 44.046875 74.21875 50.515625 64.515625 
Q 56.984375 54.828125 56.984375 36.375 
Q 56.984375 17.96875 50.515625 8.265625 
Q 44.046875 -1.421875 31.78125 -1.421875 
Q 19.53125 -1.421875 13.0625 8.265625 
Q 6.59375 17.96875 6.59375 36.375 
Q 6.59375 54.828125 13.0625 64.515625 
Q 19.53125 74.21875 31.78125 74.21875 
z
" id="DejaVuSans-48"/>
      </defs>
      <g transform="translate(70.651477 322.182437)scale(0.1 -0.1)">
       <use xlink:href="#DejaVuSans-48"/>
      </g>
     </g>
    </g>
    <g id="xtick_2">
     <g id="line2d_2">
      <g>
       <use style="stroke:#000000;stroke-width:0.8;" x="128.122785" xlink:href="#m9ac77397c9" y="307.584"/>
      </g>
     </g>
     <g id="text_2">
      <!-- 50 -->
      <defs>
       <path d="M 10.796875 72.90625 
L 49.515625 72.90625 
L 49.515625 64.59375 
L 19.828125 64.59375 
L 19.828125 46.734375 
Q 21.96875 47.46875 24.109375 47.828125 
Q 26.265625 48.1875 28.421875 48.1875 
Q 40.625 48.1875 47.75 41.5 
Q 54.890625 34.8125 54.890625 23.390625 
Q 54.890625 11.625 47.5625 5.09375 
Q 40.234375 -1.421875 26.90625 -1.421875 
Q 22.3125 -1.421875 17.546875 -0.640625 
Q 12.796875 0.140625 7.71875 1.703125 
L 7.71875 11.625 
Q 12.109375 9.234375 16.796875 8.0625 
Q 21.484375 6.890625 26.703125 6.890625 
Q 35.15625 6.890625 40.078125 11.328125 
Q 45.015625 15.765625 45.015625 23.390625 
Q 45.015625 31 40.078125 35.4375 
Q 35.15625 39.890625 26.703125 39.890625 
Q 22.75 39.890625 18.8125 39.015625 
Q 14.890625 38.140625 10.796875 36.28125 
z
" id="DejaVuSans-53"/>
      </defs>
      <g transform="translate(121.760285 322.182437)scale(0.1 -0.1)">
       <use xlink:href="#DejaVuSans-53"/>
       <use x="63.623047" xlink:href="#DejaVuSans-48"/>
      </g>
     </g>
    </g>
    <g id="xtick_3">
     <g id="line2d_3">
      <g>
       <use style="stroke:#000000;stroke-width:0.8;" x="182.412843" xlink:href="#m9ac77397c9" y="307.584"/>
      </g>
     </g>
     <g id="text_3">
      <!-- 100 -->
      <defs>
       <path d="M 12.40625 8.296875 
L 28.515625 8.296875 
L 28.515625 63.921875 
L 10.984375 60.40625 
L 10.984375 69.390625 
L 28.421875 72.90625 
L 38.28125 72.90625 
L 38.28125 8.296875 
L 54.390625 8.296875 
L 54.390625 0 
L 12.40625 0 
z
" id="DejaVuSans-49"/>
      </defs>
      <g transform="translate(172.869093 322.182437)scale(0.1 -0.1)">
       <use xlink:href="#DejaVuSans-49"/>
       <use x="63.623047" xlink:href="#DejaVuSans-48"/>
       <use x="127.246094" xlink:href="#DejaVuSans-48"/>
      </g>
     </g>
    </g>
    <g id="xtick_4">
     <g id="line2d_4">
      <g>
       <use style="stroke:#000000;stroke-width:0.8;" x="236.702901" xlink:href="#m9ac77397c9" y="307.584"/>
      </g>
     </g>
     <g id="text_4">
      <!-- 150 -->
      <g transform="translate(227.159151 322.182437)scale(0.1 -0.1)">
       <use xlink:href="#DejaVuSans-49"/>
       <use x="63.623047" xlink:href="#DejaVuSans-53"/>
       <use x="127.246094" xlink:href="#DejaVuSans-48"/>
      </g>
     </g>
    </g>
    <g id="xtick_5">
     <g id="line2d_5">
      <g>
       <use style="stroke:#000000;stroke-width:0.8;" x="290.992958" xlink:href="#m9ac77397c9" y="307.584"/>
      </g>
     </g>
     <g id="text_5">
      <!-- 200 -->
      <defs>
       <path d="M 19.1875 8.296875 
L 53.609375 8.296875 
L 53.609375 0 
L 7.328125 0 
L 7.328125 8.296875 
Q 12.9375 14.109375 22.625 23.890625 
Q 32.328125 33.6875 34.8125 36.53125 
Q 39.546875 41.84375 41.421875 45.53125 
Q 43.3125 49.21875 43.3125 52.78125 
Q 43.3125 58.59375 39.234375 62.25 
Q 35.15625 65.921875 28.609375 65.921875 
Q 23.96875 65.921875 18.8125 64.3125 
Q 13.671875 62.703125 7.8125 59.421875 
L 7.8125 69.390625 
Q 13.765625 71.78125 18.9375 73 
Q 24.125 74.21875 28.421875 74.21875 
Q 39.75 74.21875 46.484375 68.546875 
Q 53.21875 62.890625 53.21875 53.421875 
Q 53.21875 48.921875 51.53125 44.890625 
Q 49.859375 40.875 45.40625 35.40625 
Q 44.1875 33.984375 37.640625 27.21875 
Q 31.109375 20.453125 19.1875 8.296875 
z
" id="DejaVuSans-50"/>
      </defs>
      <g transform="translate(281.449208 322.182437)scale(0.1 -0.1)">
       <use xlink:href="#DejaVuSans-50"/>
       <use x="63.623047" xlink:href="#DejaVuSans-48"/>
       <use x="127.246094" xlink:href="#DejaVuSans-48"/>
      </g>
     </g>
    </g>
    <g id="xtick_6">
     <g id="line2d_6">
      <g>
       <use style="stroke:#000000;stroke-width:0.8;" x="345.283016" xlink:href="#m9ac77397c9" y="307.584"/>
      </g>
     </g>
     <g id="text_6">
      <!-- 250 -->
      <g transform="translate(335.739266 322.182437)scale(0.1 -0.1)">
       <use xlink:href="#DejaVuSans-50"/>
       <use x="63.623047" xlink:href="#DejaVuSans-53"/>
       <use x="127.246094" xlink:href="#DejaVuSans-48"/>
      </g>
     </g>
    </g>
    <g id="xtick_7">
     <g id="line2d_7">
      <g>
       <use style="stroke:#000000;stroke-width:0.8;" x="399.573074" xlink:href="#m9ac77397c9" y="307.584"/>
      </g>
     </g>
     <g id="text_7">
      <!-- 300 -->
      <defs>
       <path d="M 40.578125 39.3125 
Q 47.65625 37.796875 51.625 33 
Q 55.609375 28.21875 55.609375 21.1875 
Q 55.609375 10.40625 48.1875 4.484375 
Q 40.765625 -1.421875 27.09375 -1.421875 
Q 22.515625 -1.421875 17.65625 -0.515625 
Q 12.796875 0.390625 7.625 2.203125 
L 7.625 11.71875 
Q 11.71875 9.328125 16.59375 8.109375 
Q 21.484375 6.890625 26.8125 6.890625 
Q 36.078125 6.890625 40.9375 10.546875 
Q 45.796875 14.203125 45.796875 21.1875 
Q 45.796875 27.640625 41.28125 31.265625 
Q 36.765625 34.90625 28.71875 34.90625 
L 20.21875 34.90625 
L 20.21875 43.015625 
L 29.109375 43.015625 
Q 36.375 43.015625 40.234375 45.921875 
Q 44.09375 48.828125 44.09375 54.296875 
Q 44.09375 59.90625 40.109375 62.90625 
Q 36.140625 65.921875 28.71875 65.921875 
Q 24.65625 65.921875 20.015625 65.03125 
Q 15.375 64.15625 9.8125 62.3125 
L 9.8125 71.09375 
Q 15.4375 72.65625 20.34375 73.4375 
Q 25.25 74.21875 29.59375 74.21875 
Q 40.828125 74.21875 47.359375 69.109375 
Q 53.90625 64.015625 53.90625 55.328125 
Q 53.90625 49.265625 50.4375 45.09375 
Q 46.96875 40.921875 40.578125 39.3125 
z
" id="DejaVuSans-51"/>
      </defs>
      <g transform="translate(390.029324 322.182437)scale(0.1 -0.1)">
       <use xlink:href="#DejaVuSans-51"/>
       <use x="63.623047" xlink:href="#DejaVuSans-48"/>
       <use x="127.246094" xlink:href="#DejaVuSans-48"/>
      </g>
     </g>
    </g>
   </g>
   <g id="matplotlib.axis_2">
    <g id="ytick_1">
     <g id="line2d_8">
      <defs>
       <path d="M 0 0 
L -3.5 0 
" id="mb8399c0c1c" style="stroke:#000000;stroke-width:0.8;"/>
      </defs>
      <g>
       <use style="stroke:#000000;stroke-width:0.8;" x="57.6" xlink:href="#mb8399c0c1c" y="303.138858"/>
      </g>
     </g>
     <g id="text_8">
      <!-- 0.6 -->
      <defs>
       <path d="M 10.6875 12.40625 
L 21 12.40625 
L 21 0 
L 10.6875 0 
z
" id="DejaVuSans-46"/>
       <path d="M 33.015625 40.375 
Q 26.375 40.375 22.484375 35.828125 
Q 18.609375 31.296875 18.609375 23.390625 
Q 18.609375 15.53125 22.484375 10.953125 
Q 26.375 6.390625 33.015625 6.390625 
Q 39.65625 6.390625 43.53125 10.953125 
Q 47.40625 15.53125 47.40625 23.390625 
Q 47.40625 31.296875 43.53125 35.828125 
Q 39.65625 40.375 33.015625 40.375 
z
M 52.59375 71.296875 
L 52.59375 62.3125 
Q 48.875 64.0625 45.09375 64.984375 
Q 41.3125 65.921875 37.59375 65.921875 
Q 27.828125 65.921875 22.671875 59.328125 
Q 17.53125 52.734375 16.796875 39.40625 
Q 19.671875 43.65625 24.015625 45.921875 
Q 28.375 48.1875 33.59375 48.1875 
Q 44.578125 48.1875 50.953125 41.515625 
Q 57.328125 34.859375 57.328125 23.390625 
Q 57.328125 12.15625 50.6875 5.359375 
Q 44.046875 -1.421875 33.015625 -1.421875 
Q 20.359375 -1.421875 13.671875 8.265625 
Q 6.984375 17.96875 6.984375 36.375 
Q 6.984375 53.65625 15.1875 63.9375 
Q 23.390625 74.21875 37.203125 74.21875 
Q 40.921875 74.21875 44.703125 73.484375 
Q 48.484375 72.75 52.59375 71.296875 
z
" id="DejaVuSans-54"/>
      </defs>
      <g transform="translate(34.696875 306.938077)scale(0.1 -0.1)">
       <use xlink:href="#DejaVuSans-48"/>
       <use x="63.623047" xlink:href="#DejaVuSans-46"/>
       <use x="95.410156" xlink:href="#DejaVuSans-54"/>
      </g>
     </g>
    </g>
    <g id="ytick_2">
     <g id="line2d_9">
      <g>
       <use style="stroke:#000000;stroke-width:0.8;" x="57.6" xlink:href="#mb8399c0c1c" y="261.666209"/>
      </g>
     </g>
     <g id="text_9">
      <!-- 0.8 -->
      <defs>
       <path d="M 31.78125 34.625 
Q 24.75 34.625 20.71875 30.859375 
Q 16.703125 27.09375 16.703125 20.515625 
Q 16.703125 13.921875 20.71875 10.15625 
Q 24.75 6.390625 31.78125 6.390625 
Q 38.8125 6.390625 42.859375 10.171875 
Q 46.921875 13.96875 46.921875 20.515625 
Q 46.921875 27.09375 42.890625 30.859375 
Q 38.875 34.625 31.78125 34.625 
z
M 21.921875 38.8125 
Q 15.578125 40.375 12.03125 44.71875 
Q 8.5 49.078125 8.5 55.328125 
Q 8.5 64.0625 14.71875 69.140625 
Q 20.953125 74.21875 31.78125 74.21875 
Q 42.671875 74.21875 48.875 69.140625 
Q 55.078125 64.0625 55.078125 55.328125 
Q 55.078125 49.078125 51.53125 44.71875 
Q 48 40.375 41.703125 38.8125 
Q 48.828125 37.15625 52.796875 32.3125 
Q 56.78125 27.484375 56.78125 20.515625 
Q 56.78125 9.90625 50.3125 4.234375 
Q 43.84375 -1.421875 31.78125 -1.421875 
Q 19.734375 -1.421875 13.25 4.234375 
Q 6.78125 9.90625 6.78125 20.515625 
Q 6.78125 27.484375 10.78125 32.3125 
Q 14.796875 37.15625 21.921875 38.8125 
z
M 18.3125 54.390625 
Q 18.3125 48.734375 21.84375 45.5625 
Q 25.390625 42.390625 31.78125 42.390625 
Q 38.140625 42.390625 41.71875 45.5625 
Q 45.3125 48.734375 45.3125 54.390625 
Q 45.3125 60.0625 41.71875 63.234375 
Q 38.140625 66.40625 31.78125 66.40625 
Q 25.390625 66.40625 21.84375 63.234375 
Q 18.3125 60.0625 18.3125 54.390625 
z
" id="DejaVuSans-56"/>
      </defs>
      <g transform="translate(34.696875 265.465428)scale(0.1 -0.1)">
       <use xlink:href="#DejaVuSans-48"/>
       <use x="63.623047" xlink:href="#DejaVuSans-46"/>
       <use x="95.410156" xlink:href="#DejaVuSans-56"/>
      </g>
     </g>
    </g>
    <g id="ytick_3">
     <g id="line2d_10">
      <g>
       <use style="stroke:#000000;stroke-width:0.8;" x="57.6" xlink:href="#mb8399c0c1c" y="220.19356"/>
      </g>
     </g>
     <g id="text_10">
      <!-- 1.0 -->
      <g transform="translate(34.696875 223.992779)scale(0.1 -0.1)">
       <use xlink:href="#DejaVuSans-49"/>
       <use x="63.623047" xlink:href="#DejaVuSans-46"/>
       <use x="95.410156" xlink:href="#DejaVuSans-48"/>
      </g>
     </g>
    </g>
    <g id="ytick_4">
     <g id="line2d_11">
      <g>
       <use style="stroke:#000000;stroke-width:0.8;" x="57.6" xlink:href="#mb8399c0c1c" y="178.720911"/>
      </g>
     </g>
     <g id="text_11">
      <!-- 1.2 -->
      <g transform="translate(34.696875 182.520129)scale(0.1 -0.1)">
       <use xlink:href="#DejaVuSans-49"/>
       <use x="63.623047" xlink:href="#DejaVuSans-46"/>
       <use x="95.410156" xlink:href="#DejaVuSans-50"/>
      </g>
     </g>
    </g>
    <g id="ytick_5">
     <g id="line2d_12">
      <g>
       <use style="stroke:#000000;stroke-width:0.8;" x="57.6" xlink:href="#mb8399c0c1c" y="137.248262"/>
      </g>
     </g>
     <g id="text_12">
      <!-- 1.4 -->
      <defs>
       <path d="M 37.796875 64.3125 
L 12.890625 25.390625 
L 37.796875 25.390625 
z
M 35.203125 72.90625 
L 47.609375 72.90625 
L 47.609375 25.390625 
L 58.015625 25.390625 
L 58.015625 17.1875 
L 47.609375 17.1875 
L 47.609375 0 
L 37.796875 0 
L 37.796875 17.1875 
L 4.890625 17.1875 
L 4.890625 26.703125 
z
" id="DejaVuSans-52"/>
      </defs>
      <g transform="translate(34.696875 141.04748)scale(0.1 -0.1)">
       <use xlink:href="#DejaVuSans-49"/>
       <use x="63.623047" xlink:href="#DejaVuSans-46"/>
       <use x="95.410156" xlink:href="#DejaVuSans-52"/>
      </g>
     </g>
    </g>
    <g id="ytick_6">
     <g id="line2d_13">
      <g>
       <use style="stroke:#000000;stroke-width:0.8;" x="57.6" xlink:href="#mb8399c0c1c" y="95.775612"/>
      </g>
     </g>
     <g id="text_13">
      <!-- 1.6 -->
      <g transform="translate(34.696875 99.574831)scale(0.1 -0.1)">
       <use xlink:href="#DejaVuSans-49"/>
       <use x="63.623047" xlink:href="#DejaVuSans-46"/>
       <use x="95.410156" xlink:href="#DejaVuSans-54"/>
      </g>
     </g>
    </g>
    <g id="ytick_7">
     <g id="line2d_14">
      <g>
       <use style="stroke:#000000;stroke-width:0.8;" x="57.6" xlink:href="#mb8399c0c1c" y="54.302963"/>
      </g>
     </g>
     <g id="text_14">
      <!-- 1.8 -->
      <g transform="translate(34.696875 58.102182)scale(0.1 -0.1)">
       <use xlink:href="#DejaVuSans-49"/>
       <use x="63.623047" xlink:href="#DejaVuSans-46"/>
       <use x="95.410156" xlink:href="#DejaVuSans-56"/>
      </g>
     </g>
    </g>
    <g id="text_15">
     <!-- Distance -->
     <defs>
      <path d="M 19.671875 64.796875 
L 19.671875 8.109375 
L 31.59375 8.109375 
Q 46.6875 8.109375 53.6875 14.9375 
Q 60.6875 21.78125 60.6875 36.53125 
Q 60.6875 51.171875 53.6875 57.984375 
Q 46.6875 64.796875 31.59375 64.796875 
z
M 9.8125 72.90625 
L 30.078125 72.90625 
Q 51.265625 72.90625 61.171875 64.09375 
Q 71.09375 55.28125 71.09375 36.53125 
Q 71.09375 17.671875 61.125 8.828125 
Q 51.171875 0 30.078125 0 
L 9.8125 0 
z
" id="DejaVuSans-68"/>
      <path d="M 9.421875 54.6875 
L 18.40625 54.6875 
L 18.40625 0 
L 9.421875 0 
z
M 9.421875 75.984375 
L 18.40625 75.984375 
L 18.40625 64.59375 
L 9.421875 64.59375 
z
" id="DejaVuSans-105"/>
      <path d="M 44.28125 53.078125 
L 44.28125 44.578125 
Q 40.484375 46.53125 36.375 47.5 
Q 32.28125 48.484375 27.875 48.484375 
Q 21.1875 48.484375 17.84375 46.4375 
Q 14.5 44.390625 14.5 40.28125 
Q 14.5 37.15625 16.890625 35.375 
Q 19.28125 33.59375 26.515625 31.984375 
L 29.59375 31.296875 
Q 39.15625 29.25 43.1875 25.515625 
Q 47.21875 21.78125 47.21875 15.09375 
Q 47.21875 7.46875 41.1875 3.015625 
Q 35.15625 -1.421875 24.609375 -1.421875 
Q 20.21875 -1.421875 15.453125 -0.5625 
Q 10.6875 0.296875 5.421875 2 
L 5.421875 11.28125 
Q 10.40625 8.6875 15.234375 7.390625 
Q 20.0625 6.109375 24.8125 6.109375 
Q 31.15625 6.109375 34.5625 8.28125 
Q 37.984375 10.453125 37.984375 14.40625 
Q 37.984375 18.0625 35.515625 20.015625 
Q 33.0625 21.96875 24.703125 23.78125 
L 21.578125 24.515625 
Q 13.234375 26.265625 9.515625 29.90625 
Q 5.8125 33.546875 5.8125 39.890625 
Q 5.8125 47.609375 11.28125 51.796875 
Q 16.75 56 26.8125 56 
Q 31.78125 56 36.171875 55.265625 
Q 40.578125 54.546875 44.28125 53.078125 
z
" id="DejaVuSans-115"/>
      <path d="M 18.3125 70.21875 
L 18.3125 54.6875 
L 36.8125 54.6875 
L 36.8125 47.703125 
L 18.3125 47.703125 
L 18.3125 18.015625 
Q 18.3125 11.328125 20.140625 9.421875 
Q 21.96875 7.515625 27.59375 7.515625 
L 36.8125 7.515625 
L 36.8125 0 
L 27.59375 0 
Q 17.1875 0 13.234375 3.875 
Q 9.28125 7.765625 9.28125 18.015625 
L 9.28125 47.703125 
L 2.6875 47.703125 
L 2.6875 54.6875 
L 9.28125 54.6875 
L 9.28125 70.21875 
z
" id="DejaVuSans-116"/>
      <path d="M 34.28125 27.484375 
Q 23.390625 27.484375 19.1875 25 
Q 14.984375 22.515625 14.984375 16.5 
Q 14.984375 11.71875 18.140625 8.90625 
Q 21.296875 6.109375 26.703125 6.109375 
Q 34.1875 6.109375 38.703125 11.40625 
Q 43.21875 16.703125 43.21875 25.484375 
L 43.21875 27.484375 
z
M 52.203125 31.203125 
L 52.203125 0 
L 43.21875 0 
L 43.21875 8.296875 
Q 40.140625 3.328125 35.546875 0.953125 
Q 30.953125 -1.421875 24.3125 -1.421875 
Q 15.921875 -1.421875 10.953125 3.296875 
Q 6 8.015625 6 15.921875 
Q 6 25.140625 12.171875 29.828125 
Q 18.359375 34.515625 30.609375 34.515625 
L 43.21875 34.515625 
L 43.21875 35.40625 
Q 43.21875 41.609375 39.140625 45 
Q 35.0625 48.390625 27.6875 48.390625 
Q 23 48.390625 18.546875 47.265625 
Q 14.109375 46.140625 10.015625 43.890625 
L 10.015625 52.203125 
Q 14.9375 54.109375 19.578125 55.046875 
Q 24.21875 56 28.609375 56 
Q 40.484375 56 46.34375 49.84375 
Q 52.203125 43.703125 52.203125 31.203125 
z
" id="DejaVuSans-97"/>
      <path d="M 54.890625 33.015625 
L 54.890625 0 
L 45.90625 0 
L 45.90625 32.71875 
Q 45.90625 40.484375 42.875 44.328125 
Q 39.84375 48.1875 33.796875 48.1875 
Q 26.515625 48.1875 22.3125 43.546875 
Q 18.109375 38.921875 18.109375 30.90625 
L 18.109375 0 
L 9.078125 0 
L 9.078125 54.6875 
L 18.109375 54.6875 
L 18.109375 46.1875 
Q 21.34375 51.125 25.703125 53.5625 
Q 30.078125 56 35.796875 56 
Q 45.21875 56 50.046875 50.171875 
Q 54.890625 44.34375 54.890625 33.015625 
z
" id="DejaVuSans-110"/>
      <path d="M 48.78125 52.59375 
L 48.78125 44.1875 
Q 44.96875 46.296875 41.140625 47.34375 
Q 37.3125 48.390625 33.40625 48.390625 
Q 24.65625 48.390625 19.8125 42.84375 
Q 14.984375 37.3125 14.984375 27.296875 
Q 14.984375 17.28125 19.8125 11.734375 
Q 24.65625 6.203125 33.40625 6.203125 
Q 37.3125 6.203125 41.140625 7.25 
Q 44.96875 8.296875 48.78125 10.40625 
L 48.78125 2.09375 
Q 45.015625 0.34375 40.984375 -0.53125 
Q 36.96875 -1.421875 32.421875 -1.421875 
Q 20.0625 -1.421875 12.78125 6.34375 
Q 5.515625 14.109375 5.515625 27.296875 
Q 5.515625 40.671875 12.859375 48.328125 
Q 20.21875 56 33.015625 56 
Q 37.15625 56 41.109375 55.140625 
Q 45.0625 54.296875 48.78125 52.59375 
z
" id="DejaVuSans-99"/>
      <path d="M 56.203125 29.59375 
L 56.203125 25.203125 
L 14.890625 25.203125 
Q 15.484375 15.921875 20.484375 11.0625 
Q 25.484375 6.203125 34.421875 6.203125 
Q 39.59375 6.203125 44.453125 7.46875 
Q 49.3125 8.734375 54.109375 11.28125 
L 54.109375 2.78125 
Q 49.265625 0.734375 44.1875 -0.34375 
Q 39.109375 -1.421875 33.890625 -1.421875 
Q 20.796875 -1.421875 13.15625 6.1875 
Q 5.515625 13.8125 5.515625 26.8125 
Q 5.515625 40.234375 12.765625 48.109375 
Q 20.015625 56 32.328125 56 
Q 43.359375 56 49.78125 48.890625 
Q 56.203125 41.796875 56.203125 29.59375 
z
M 47.21875 32.234375 
Q 47.125 39.59375 43.09375 43.984375 
Q 39.0625 48.390625 32.421875 48.390625 
Q 24.90625 48.390625 20.390625 44.140625 
Q 15.875 39.890625 15.1875 32.171875 
z
" id="DejaVuSans-101"/>
     </defs>
     <g transform="translate(28.617187 196.3905)rotate(-90)scale(0.1 -0.1)">
      <use xlink:href="#DejaVuSans-68"/>
      <use x="77.001953" xlink:href="#DejaVuSans-105"/>
      <use x="104.785156" xlink:href="#DejaVuSans-115"/>
      <use x="156.884766" xlink:href="#DejaVuSans-116"/>
      <use x="196.09375" xlink:href="#DejaVuSans-97"/>
      <use x="257.373047" xlink:href="#DejaVuSans-110"/>
      <use x="320.751953" xlink:href="#DejaVuSans-99"/>
      <use x="375.732422" xlink:href="#DejaVuSans-101"/>
     </g>
    </g>
   </g>
   <g id="line2d_15">
    <path clip-path="url(#p5e209f2f86)" d="M 73.832727 57.981096 
L 74.918528 87.510685 
L 76.00433 113.186019 
L 77.090131 129.046669 
L 78.175932 150.778672 
L 79.261733 147.651282 
L 80.347534 172.092718 
L 81.433335 140.517698 
L 82.519137 158.769444 
L 83.604938 179.604235 
L 84.690739 182.793653 
L 85.77654 162.175207 
L 86.862341 134.374773 
L 87.948142 137.639349 
L 89.033943 143.590582 
L 90.119745 132.394333 
L 91.205546 143.786385 
L 92.291347 140.649583 
L 93.377148 139.604472 
L 94.462949 140.067252 
L 95.54875 150.362502 
L 96.634552 134.658398 
L 97.720353 185.671912 
L 98.806154 183.066374 
L 99.891955 150.402276 
L 100.977756 167.789522 
L 102.063557 167.990792 
L 103.149358 162.352509 
L 104.23516 153.736698 
L 105.320961 168.340198 
L 106.406762 174.546227 
L 107.492563 151.215965 
L 108.578364 173.739926 
L 109.664165 192.061842 
L 110.749967 200.197139 
L 111.835768 196.456198 
L 112.921569 194.002664 
L 114.00737 192.628001 
L 115.093171 169.690827 
L 116.178972 171.044671 
L 117.264773 140.696135 
L 118.350575 127.452001 
L 119.436376 94.046054 
L 120.522177 111.018215 
L 121.607978 146.298445 
L 122.693779 137.850692 
L 123.77958 123.708607 
L 124.865382 133.223637 
L 125.951183 136.84692 
L 127.036984 154.531186 
L 128.122785 156.586215 
L 130.294387 215.071676 
L 131.380189 191.747803 
L 132.46599 160.175845 
L 133.551791 166.979038 
L 134.637592 223.09902 
L 135.723393 220.825913 
L 136.809194 235.219371 
L 137.894995 192.614423 
L 138.980797 213.131188 
L 140.066598 221.189664 
L 141.152399 216.235642 
L 142.2382 195.144956 
L 143.324001 182.917985 
L 144.409802 178.126657 
L 145.495604 169.918768 
L 146.581405 176.570118 
L 147.667206 194.014197 
L 148.753007 169.220211 
L 149.838808 176.776843 
L 150.924609 160.637936 
L 152.01041 172.916266 
L 153.096212 195.068707 
L 154.182013 188.768392 
L 155.267814 162.259835 
L 156.353615 157.426563 
L 157.439416 183.252569 
L 158.525217 197.491639 
L 159.611019 169.166103 
L 160.69682 169.929626 
L 161.782621 160.955008 
L 162.868422 172.558028 
L 163.954223 154.894495 
L 165.040024 156.269646 
L 166.125825 162.513614 
L 167.211627 160.326364 
L 168.297428 150.511343 
L 169.383229 152.002029 
L 170.46903 169.424482 
L 171.554831 147.59233 
L 172.640632 147.338107 
L 173.726434 145.06947 
L 174.812235 145.443879 
L 175.898036 137.133735 
L 176.983837 140.069949 
L 178.069638 126.056198 
L 179.155439 147.26071 
L 180.24124 165.805565 
L 181.327042 156.767919 
L 182.412843 164.651536 
L 183.498644 167.022318 
L 184.584445 162.385126 
L 185.670246 152.633522 
L 186.756047 152.335137 
L 187.841849 156.824661 
L 188.92765 138.962631 
L 190.013451 186.365722 
L 191.099252 218.103222 
L 192.185053 208.518235 
L 193.270854 232.161714 
L 194.356656 195.711264 
L 195.442457 184.068514 
L 196.528258 178.349514 
L 197.614059 195.831521 
L 198.69986 210.23566 
L 199.785661 191.80423 
L 200.871462 224.235329 
L 201.957264 210.122079 
L 203.043065 219.730738 
L 204.128866 225.525214 
L 205.214667 226.141884 
L 206.300468 210.880333 
L 207.386269 207.652279 
L 208.472071 191.806072 
L 209.557872 204.336481 
L 210.643673 207.90693 
L 211.729474 210.692727 
L 212.815275 206.236722 
L 213.901076 187.060087 
L 214.986877 173.738953 
L 216.072679 165.983331 
L 217.15848 162.975542 
L 218.244281 179.841713 
L 219.330082 176.374667 
L 220.415883 144.125354 
L 221.501684 129.220669 
L 222.587486 146.452427 
L 223.673287 119.480152 
L 224.759088 158.129212 
L 225.844889 189.569262 
L 226.93069 188.206041 
L 228.016491 163.065578 
L 229.102292 175.969635 
L 230.188094 172.462073 
L 231.273895 199.526527 
L 232.359696 194.913435 
L 233.445497 193.803318 
L 234.531298 151.367031 
L 235.617099 152.79007 
L 236.702901 169.622933 
L 237.788702 133.581672 
L 238.874503 134.145047 
L 239.960304 159.286671 
L 241.046105 175.300025 
L 243.217708 189.490457 
L 244.303509 217.448303 
L 245.38931 219.875732 
L 246.475111 206.988403 
L 247.560912 215.150191 
L 248.646713 197.982642 
L 249.732514 224.05501 
L 250.818316 228.341865 
L 251.904117 248.150038 
L 252.989918 240.217966 
L 254.075719 228.487286 
L 255.16152 204.153859 
L 256.247321 219.552248 
L 257.333123 182.686288 
L 259.504725 223.922556 
L 260.590526 232.476058 
L 261.676327 238.352596 
L 262.762128 218.659762 
L 263.847929 208.465973 
L 264.933731 209.752789 
L 266.019532 247.88496 
L 267.105333 199.404098 
L 268.191134 252.658438 
L 269.276935 218.076103 
L 270.362736 199.162424 
L 271.448538 200.877139 
L 273.62014 221.287101 
L 274.705941 197.153835 
L 275.791742 204.935553 
L 276.877543 207.934126 
L 277.963344 178.898361 
L 279.049146 180.455655 
L 280.134947 186.520889 
L 281.220748 210.403656 
L 282.306549 210.637704 
L 283.39235 192.873282 
L 284.478151 214.922056 
L 285.563953 181.319638 
L 286.649754 194.926527 
L 287.735555 196.615555 
L 288.821356 200.059391 
L 289.907157 228.181468 
L 290.992958 216.936482 
L 292.07876 234.721469 
L 293.164561 225.828133 
L 294.250362 253.426127 
L 295.336163 196.40227 
L 296.421964 189.931118 
L 297.507765 186.854618 
L 298.593566 186.980884 
L 299.679368 173.037118 
L 300.765169 183.081213 
L 301.85097 180.251252 
L 302.936771 152.449446 
L 304.022572 163.499439 
L 306.194175 202.894491 
L 307.279976 186.357534 
L 308.365777 219.106174 
L 309.451578 206.561502 
L 310.537379 209.966332 
L 311.62318 172.668568 
L 312.708981 197.636947 
L 313.794783 188.83927 
L 314.880584 216.416562 
L 315.966385 185.101088 
L 317.052186 204.834694 
L 318.137987 216.693048 
L 319.223788 205.476768 
L 320.30959 186.111969 
L 321.395391 188.289972 
L 322.481192 177.693878 
L 323.566993 179.942645 
L 324.652794 214.396003 
L 325.738595 203.210004 
L 326.824396 218.190577 
L 328.995999 209.303777 
L 330.0818 220.351156 
L 331.167601 210.435604 
L 332.253402 241.156331 
L 333.339203 206.810421 
L 334.425005 235.888547 
L 335.510806 212.076486 
L 336.596607 239.985707 
L 337.682408 209.425536 
L 338.768209 175.205357 
L 339.85401 181.05117 
L 340.939811 191.656544 
L 342.025613 190.982139 
L 343.111414 206.31795 
L 344.197215 182.814742 
L 345.283016 174.020142 
L 346.368817 173.826049 
L 347.454618 209.055938 
L 348.54042 188.769458 
L 349.626221 189.163464 
L 351.797823 223.317859 
L 353.969425 167.434193 
L 355.055227 202.360972 
L 356.141028 202.289302 
L 357.226829 177.042605 
L 358.31263 182.553195 
L 359.398431 201.145181 
L 360.484232 191.287373 
L 361.570033 196.059307 
L 362.655835 222.856392 
L 363.741636 230.324765 
L 364.827437 251.323089 
L 365.913238 197.537764 
L 366.999039 179.589094 
L 368.08484 168.718053 
L 369.170642 186.0755 
L 370.256443 206.652957 
L 371.342244 204.953341 
L 372.428045 232.363742 
L 373.513846 224.962927 
L 374.599647 215.283022 
L 375.685448 190.429972 
L 377.857051 252.395021 
L 378.942852 244.853954 
L 380.028653 249.257644 
L 381.114454 216.801579 
L 382.200255 197.348598 
L 383.286057 195.429578 
L 384.371858 196.882186 
L 385.457659 180.954718 
L 386.54346 195.001256 
L 387.629261 205.389212 
L 388.715062 223.492576 
L 389.800863 238.39382 
L 390.886665 250.808868 
L 391.972466 241.589349 
L 393.058267 243.001578 
L 394.144068 280.644963 
L 395.229869 261.111008 
L 396.31567 225.26269 
L 397.401472 226.091906 
L 398.487273 201.632676 
L 398.487273 201.632676 
" style="fill:none;stroke:#0000ff;stroke-linecap:square;stroke-width:1.5;"/>
   </g>
   <g id="patch_3">
    <path d="M 57.6 307.584 
L 57.6 41.472 
" style="fill:none;stroke:#000000;stroke-linecap:square;stroke-linejoin:miter;stroke-width:0.8;"/>
   </g>
   <g id="patch_4">
    <path d="M 414.72 307.584 
L 414.72 41.472 
" style="fill:none;stroke:#000000;stroke-linecap:square;stroke-linejoin:miter;stroke-width:0.8;"/>
   </g>
   <g id="patch_5">
    <path d="M 57.6 307.584 
L 414.72 307.584 
" style="fill:none;stroke:#000000;stroke-linecap:square;stroke-linejoin:miter;stroke-width:0.8;"/>
   </g>
   <g id="patch_6">
    <path d="M 57.6 41.472 
L 414.72 41.472 
" style="fill:none;stroke:#000000;stroke-linecap:square;stroke-linejoin:miter;stroke-width:0.8;"/>
   </g>
  </g>
  <g id="axes_2">
   <g id="PolyCollection_2">
    <path clip-path="url(#p5e209f2f86)" d="M 73.832727 94.132486 
L 73.832727 276.060968 
L 74.918528 281.455568 
L 76.00433 274.720231 
L 77.090131 286.759393 
L 78.175932 288.328687 
L 79.261733 290.5539 
L 80.347534 281.054678 
L 81.433335 280.999842 
L 82.519137 278.476558 
L 83.604938 280.236357 
L 84.690739 279.662588 
L 85.77654 277.312753 
L 86.862341 267.482587 
L 87.948142 265.552425 
L 89.033943 250.042317 
L 90.119745 258.957049 
L 91.205546 265.157099 
L 92.291347 261.10478 
L 93.377148 268.401597 
L 94.462949 263.393697 
L 95.54875 267.496735 
L 96.634552 252.580307 
L 97.720353 254.443836 
L 98.806154 261.454261 
L 99.891955 269.813751 
L 100.977756 260.726304 
L 102.063557 259.461429 
L 103.149358 261.157621 
L 104.23516 266.988009 
L 105.320961 266.988096 
L 106.406762 269.217781 
L 107.492563 278.829571 
L 108.578364 278.760683 
L 109.664165 279.873776 
L 110.749967 279.42171 
L 111.835768 281.467348 
L 112.921569 281.080037 
L 114.00737 286.351758 
L 115.093171 281.959027 
L 116.178972 283.429659 
L 117.264773 275.823651 
L 118.350575 281.560452 
L 119.436376 267.607135 
L 120.522177 263.155476 
L 121.607978 253.136009 
L 122.693779 260.688501 
L 123.77958 258.229131 
L 124.865382 255.376647 
L 125.951183 263.488299 
L 127.036984 257.607716 
L 128.122785 260.656899 
L 129.208586 252.874498 
L 130.294387 250.979308 
L 131.380189 255.083355 
L 132.46599 253.651229 
L 133.551791 259.741242 
L 134.637592 274.538567 
L 135.723393 281.703952 
L 136.809194 272.29432 
L 137.894995 271.165456 
L 138.980797 271.079992 
L 140.066598 268.600584 
L 141.152399 272.192636 
L 142.2382 269.96686 
L 143.324001 268.258828 
L 144.409802 271.358579 
L 145.495604 268.551863 
L 146.581405 261.55973 
L 147.667206 271.56284 
L 148.753007 264.04704 
L 149.838808 272.186639 
L 150.924609 268.422177 
L 152.01041 259.053605 
L 153.096212 258.002526 
L 154.182013 260.659203 
L 155.267814 262.983851 
L 156.353615 267.099707 
L 157.439416 260.083219 
L 158.525217 251.431582 
L 159.611019 255.489571 
L 160.69682 261.269205 
L 161.782621 267.065945 
L 162.868422 258.166421 
L 163.954223 263.155479 
L 165.040024 262.047159 
L 166.125825 258.385056 
L 167.211627 252.880345 
L 168.297428 260.093641 
L 169.383229 254.337281 
L 170.46903 255.575338 
L 171.554831 252.617589 
L 172.640632 261.786073 
L 173.726434 259.746134 
L 174.812235 260.028527 
L 175.898036 260.812862 
L 176.983837 261.846839 
L 178.069638 263.910009 
L 179.155439 268.926685 
L 180.24124 266.470748 
L 181.327042 268.561239 
L 182.412843 273.25872 
L 183.498644 268.805833 
L 184.584445 269.808015 
L 185.670246 277.982205 
L 186.756047 277.506591 
L 187.841849 277.032346 
L 188.92765 277.902128 
L 190.013451 281.715975 
L 191.099252 287.346969 
L 192.185053 292.107113 
L 193.270854 293.651025 
L 194.356656 288.342239 
L 195.442457 287.480343 
L 196.528258 291.624927 
L 197.614059 289.520282 
L 198.69986 280.905483 
L 199.785661 290.810402 
L 200.871462 288.46724 
L 201.957264 285.374418 
L 203.043065 287.506846 
L 204.128866 287.424077 
L 205.214667 290.200255 
L 206.300468 287.323842 
L 207.386269 285.324904 
L 208.472071 290.156284 
L 209.557872 284.941816 
L 210.643673 285.87081 
L 211.729474 287.676708 
L 212.815275 282.848432 
L 213.901076 284.083201 
L 214.986877 282.643724 
L 216.072679 277.2524 
L 217.15848 277.572709 
L 218.244281 281.354433 
L 219.330082 271.640071 
L 220.415883 271.771761 
L 221.501684 273.626897 
L 222.587486 266.764611 
L 223.673287 273.559249 
L 224.759088 279.875524 
L 225.844889 281.173179 
L 226.93069 280.256477 
L 228.016491 275.165269 
L 229.102292 272.38839 
L 230.188094 275.251903 
L 231.273895 275.05544 
L 232.359696 275.052015 
L 233.445497 278.088627 
L 234.531298 272.953609 
L 235.617099 270.169467 
L 236.702901 276.901193 
L 237.788702 275.562515 
L 238.874503 278.384959 
L 239.960304 279.605553 
L 241.046105 280.193107 
L 242.131906 279.435767 
L 243.217708 282.7074 
L 244.303509 285.380115 
L 245.38931 285.923243 
L 246.475111 286.449011 
L 247.560912 285.49912 
L 248.646713 286.873743 
L 249.732514 288.873427 
L 250.818316 287.030212 
L 251.904117 288.079685 
L 252.989918 288.213122 
L 254.075719 288.076422 
L 255.16152 290.766338 
L 256.247321 285.544804 
L 257.333123 282.396676 
L 258.418924 288.581008 
L 259.504725 289.811832 
L 260.590526 285.298366 
L 261.676327 286.134008 
L 262.762128 288.227542 
L 263.847929 286.968447 
L 264.933731 290.747495 
L 266.019532 287.578429 
L 267.105333 286.161011 
L 268.191134 288.668018 
L 269.276935 283.123466 
L 270.362736 282.341124 
L 271.448538 284.140732 
L 272.534339 286.845911 
L 273.62014 284.666615 
L 274.705941 283.566326 
L 275.791742 285.917102 
L 276.877543 286.159718 
L 277.963344 282.533953 
L 279.049146 284.884529 
L 280.134947 286.023477 
L 281.220748 279.589371 
L 282.306549 286.276733 
L 283.39235 289.620235 
L 284.478151 290.286091 
L 285.563953 287.448751 
L 286.649754 283.684403 
L 287.735555 289.670177 
L 288.821356 288.743835 
L 289.907157 291.342783 
L 290.992958 290.229698 
L 292.07876 289.44142 
L 293.164561 283.238699 
L 294.250362 288.104094 
L 295.336163 285.207737 
L 296.421964 285.916682 
L 297.507765 287.990267 
L 298.593566 284.243065 
L 299.679368 284.132009 
L 300.765169 273.929161 
L 301.85097 274.049837 
L 302.936771 278.145602 
L 304.022572 275.058011 
L 305.108373 279.183273 
L 306.194175 277.707244 
L 307.279976 283.231846 
L 308.365777 283.64216 
L 309.451578 284.447812 
L 310.537379 281.108885 
L 311.62318 278.835213 
L 312.708981 275.477434 
L 313.794783 285.583714 
L 314.880584 280.239744 
L 315.966385 286.623415 
L 317.052186 291.323183 
L 318.137987 290.794074 
L 319.223788 291.486109 
L 320.30959 288.620535 
L 321.395391 283.78124 
L 322.481192 286.413196 
L 323.566993 282.401117 
L 324.652794 283.559726 
L 325.738595 288.193022 
L 326.824396 288.61498 
L 327.910198 289.201387 
L 328.995999 289.375738 
L 330.0818 291.068554 
L 331.167601 290.401767 
L 332.253402 289.643055 
L 333.339203 287.335646 
L 334.425005 284.262301 
L 335.510806 292.005639 
L 336.596607 289.151874 
L 337.682408 288.372332 
L 338.768209 287.981183 
L 339.85401 292.697378 
L 340.939811 287.061579 
L 342.025613 293.640542 
L 343.111414 287.364602 
L 344.197215 287.13915 
L 345.283016 291.435925 
L 346.368817 293.827651 
L 347.454618 292.496827 
L 348.54042 294.93958 
L 349.626221 294.485843 
L 350.712022 293.262738 
L 351.797823 290.413636 
L 352.883624 291.61421 
L 353.969425 292.077253 
L 355.055227 293.129734 
L 356.141028 294.345861 
L 357.226829 295.488 
L 358.31263 293.742583 
L 359.398431 291.259094 
L 360.484232 295.076491 
L 361.570033 293.958011 
L 362.655835 292.869892 
L 363.741636 291.009094 
L 364.827437 288.667028 
L 365.913238 287.642432 
L 366.999039 289.866854 
L 368.08484 289.222381 
L 369.170642 290.855289 
L 370.256443 291.002236 
L 371.342244 293.670814 
L 372.428045 290.841066 
L 373.513846 292.280387 
L 374.599647 292.48222 
L 375.685448 290.007778 
L 376.77125 289.311134 
L 377.857051 287.068009 
L 378.942852 288.32204 
L 380.028653 288.384779 
L 381.114454 290.854904 
L 382.200255 290.283559 
L 383.286057 285.934224 
L 384.371858 287.542414 
L 385.457659 284.553896 
L 386.54346 287.154088 
L 387.629261 285.834506 
L 388.715062 285.723489 
L 389.800863 288.408782 
L 390.886665 290.906675 
L 391.972466 292.659999 
L 393.058267 286.926224 
L 394.144068 287.156563 
L 395.229869 290.030118 
L 396.31567 289.362303 
L 397.401472 290.557159 
L 398.487273 285.575271 
L 398.487273 90.539704 
L 398.487273 90.539704 
L 397.401472 95.41354 
L 396.31567 92.244594 
L 395.229869 93.095161 
L 394.144068 88.214841 
L 393.058267 86.443491 
L 391.972466 98.22202 
L 390.886665 95.157192 
L 389.800863 92.036207 
L 388.715062 88.65642 
L 387.629261 89.907306 
L 386.54346 89.59032 
L 385.457659 87.862106 
L 384.371858 92.068785 
L 383.286057 91.790664 
L 382.200255 99.130608 
L 381.114454 99.64988 
L 380.028653 96.341856 
L 378.942852 93.030413 
L 377.857051 90.455813 
L 376.77125 93.643187 
L 375.685448 96.018182 
L 374.599647 104.001791 
L 373.513846 102.167297 
L 372.428045 100.193763 
L 371.342244 105.204665 
L 370.256443 102.449277 
L 369.170642 98.286032 
L 368.08484 97.232417 
L 366.999039 98.789987 
L 365.913238 94.873914 
L 364.827437 95.316338 
L 363.741636 98.971912 
L 362.655835 103.124043 
L 361.570033 109.017529 
L 360.484232 111.392017 
L 359.398431 101.784121 
L 358.31263 110.588154 
L 357.226829 112.97024 
L 356.141028 109.608769 
L 355.055227 106.795714 
L 353.969425 102.967677 
L 352.883624 100.487997 
L 351.797823 98.601488 
L 350.712022 102.130338 
L 349.626221 107.236247 
L 348.54042 106.814636 
L 347.454618 100.410847 
L 346.368817 103.841821 
L 345.283016 102.599814 
L 344.197215 92.750366 
L 343.111414 92.316678 
L 342.025613 104.213917 
L 340.939811 94.212003 
L 339.85401 101.575568 
L 338.768209 95.75403 
L 337.682408 95.442522 
L 336.596607 95.794335 
L 335.510806 101.135976 
L 334.425005 84.557747 
L 333.339203 91.747245 
L 332.253402 95.682074 
L 331.167601 97.336897 
L 330.0818 99.001513 
L 328.995999 95.944324 
L 327.910198 94.617629 
L 326.824396 94.452746 
L 325.738595 91.083592 
L 324.652794 84.610096 
L 323.566993 83.01322 
L 322.481192 91.738575 
L 321.395391 85.116554 
L 320.30959 93.311378 
L 319.223788 98.842512 
L 318.137987 98.612824 
L 317.052186 100.388261 
L 315.966385 94.484979 
L 314.880584 84.755509 
L 313.794783 91.598691 
L 312.708981 77.108593 
L 311.62318 80.897904 
L 310.537379 85.094573 
L 309.451578 88.163861 
L 308.365777 85.855547 
L 307.279976 85.856514 
L 306.194175 76.209933 
L 305.108373 78.33105 
L 304.022572 74.221666 
L 302.936771 78.650726 
L 301.85097 74.025295 
L 300.765169 74.159496 
L 299.679368 89.641109 
L 298.593566 88.936751 
L 297.507765 94.374266 
L 296.421964 90.539937 
L 295.336163 86.449924 
L 294.250362 91.666713 
L 293.164561 83.683353 
L 292.07876 93.196811 
L 290.992958 94.571952 
L 289.907157 98.824689 
L 288.821356 97.168739 
L 287.735555 98.100082 
L 286.649754 86.317539 
L 285.563953 93.083372 
L 284.478151 97.328153 
L 283.39235 95.874214 
L 282.306549 89.379833 
L 281.220748 77.659177 
L 280.134947 87.916514 
L 279.049146 86.15687 
L 277.963344 83.734241 
L 276.877543 89.638392 
L 275.791742 89.759389 
L 274.705941 88.036357 
L 273.62014 88.670172 
L 272.534339 93.339424 
L 271.448538 86.976652 
L 270.362736 84.934828 
L 269.276935 88.291784 
L 268.191134 95.074347 
L 267.105333 92.953431 
L 266.019532 95.09753 
L 264.933731 99.649205 
L 263.847929 92.376224 
L 262.762128 94.56146 
L 261.676327 92.63048 
L 260.590526 91.690136 
L 259.504725 97.296328 
L 258.418924 94.755659 
L 257.333123 86.575893 
L 256.247321 92.178322 
L 255.16152 103.122814 
L 254.075719 99.365036 
L 252.989918 96.951941 
L 251.904117 95.65714 
L 250.818316 94.382975 
L 249.732514 97.593285 
L 248.646713 98.783904 
L 247.560912 92.405775 
L 246.475111 94.761193 
L 245.38931 92.203131 
L 244.303509 90.377113 
L 243.217708 88.414445 
L 242.131906 82.143121 
L 241.046105 82.574858 
L 239.960304 81.936866 
L 238.874503 80.751755 
L 237.788702 77.496937 
L 236.702901 77.512021 
L 235.617099 69.112183 
L 234.531298 73.420842 
L 233.445497 80.037298 
L 232.359696 78.065316 
L 231.273895 79.099469 
L 230.188094 77.874279 
L 229.102292 71.320511 
L 228.016491 74.573937 
L 226.93069 81.931297 
L 225.844889 83.456798 
L 224.759088 81.45099 
L 223.673287 74.569693 
L 222.587486 68.183195 
L 221.501684 74.316236 
L 220.415883 74.661594 
L 219.330082 73.462657 
L 218.244281 86.598123 
L 217.15848 81.315875 
L 216.072679 79.869182 
L 214.986877 88.772944 
L 213.901076 91.045793 
L 212.815275 87.556805 
L 211.729474 95.418201 
L 210.643673 91.658985 
L 209.557872 92.678279 
L 208.472071 100.081076 
L 207.386269 90.511387 
L 206.300468 92.354148 
L 205.214667 98.946199 
L 204.128866 92.067062 
L 203.043065 93.226553 
L 201.957264 90.602989 
L 200.871462 93.026416 
L 199.785661 95.917398 
L 198.69986 80.114505 
L 197.614059 96.531068 
L 196.528258 101.139142 
L 195.442457 96.654236 
L 194.356656 97.984813 
L 193.270854 106.844413 
L 192.185053 101.249987 
L 191.099252 96.738022 
L 190.013451 86.452608 
L 188.92765 79.05924 
L 187.841849 79.574827 
L 186.756047 80.53486 
L 185.670246 83.011829 
L 184.584445 72.037719 
L 183.498644 71.273568 
L 182.412843 75.052662 
L 181.327042 69.804916 
L 180.24124 67.341932 
L 179.155439 71.301419 
L 178.069638 66.948793 
L 176.983837 64.159358 
L 175.898036 63.280276 
L 174.812235 61.97492 
L 173.726434 61.382846 
L 172.640632 63.988062 
L 171.554831 54.69402 
L 170.46903 58.345016 
L 169.383229 56.492595 
L 168.297428 63.072724 
L 167.211627 55.909849 
L 166.125825 60.347952 
L 165.040024 61.702171 
L 163.954223 64.019765 
L 162.868422 59.465007 
L 161.782621 67.394513 
L 160.69682 63.616556 
L 159.611019 57.550305 
L 158.525217 53.568 
L 157.439416 61.601154 
L 156.353615 67.445424 
L 155.267814 63.938491 
L 154.182013 60.176088 
L 153.096212 57.060184 
L 152.01041 59.996645 
L 150.924609 67.753328 
L 149.838808 72.545403 
L 148.753007 64.369059 
L 147.667206 72.571145 
L 146.581405 60.269917 
L 145.495604 69.970839 
L 144.409802 71.21681 
L 143.324001 68.172631 
L 142.2382 70.869361 
L 141.152399 71.470105 
L 140.066598 67.759862 
L 138.980797 71.32376 
L 137.894995 71.034111 
L 136.809194 72.838274 
L 135.723393 84.606128 
L 134.637592 74.779211 
L 133.551791 60.012409 
L 132.46599 55.948955 
L 131.380189 57.268761 
L 130.294387 54.732086 
L 129.208586 55.581775 
L 128.122785 63.241561 
L 127.036984 60.95044 
L 125.951183 67.149855 
L 124.865382 59.194987 
L 123.77958 60.698332 
L 122.693779 65.219246 
L 121.607978 57.680482 
L 120.522177 67.561056 
L 119.436376 72.554645 
L 118.350575 91.041796 
L 117.264773 83.038454 
L 116.178972 92.726377 
L 115.093171 88.692693 
L 114.00737 94.077676 
L 112.921569 83.943568 
L 111.835768 86.710381 
L 110.749967 85.116381 
L 109.664165 86.612779 
L 108.578364 86.133982 
L 107.492563 85.227264 
L 106.406762 74.591367 
L 105.320961 73.384466 
L 104.23516 71.181307 
L 103.149358 65.306786 
L 102.063557 61.85914 
L 100.977756 63.575916 
L 99.891955 74.552655 
L 98.806154 65.876289 
L 97.720353 58.193594 
L 96.634552 58.294412 
L 95.54875 70.469981 
L 94.462949 65.406766 
L 93.377148 69.902107 
L 92.291347 63.124722 
L 91.205546 68.467856 
L 90.119745 61.835313 
L 89.033943 55.940203 
L 87.948142 68.810827 
L 86.862341 70.155031 
L 85.77654 85.097473 
L 84.690739 87.707513 
L 83.604938 87.149359 
L 82.519137 85.911782 
L 81.433335 88.764364 
L 80.347534 89.283358 
L 79.261733 106.217254 
L 78.175932 106.018384 
L 77.090131 109.603462 
L 76.00433 86.136293 
L 74.918528 101.532318 
L 73.832727 94.132486 
z
" style="fill:#008000;fill-opacity:0.25;"/>
   </g>
   <g id="matplotlib.axis_3">
    <g id="ytick_8">
     <g id="line2d_16">
      <path clip-path="url(#p5e209f2f86)" d="M 57.6 307.864942 
L 414.72 307.864942 
" style="fill:none;stroke:#b0b0b0;stroke-linecap:square;stroke-width:0.8;"/>
     </g>
     <g id="line2d_17">
      <defs>
       <path d="M 0 0 
L 3.5 0 
" id="m7994b79778" style="stroke:#000000;stroke-width:0.8;"/>
      </defs>
      <g>
       <use style="stroke:#000000;stroke-width:0.8;" x="414.72" xlink:href="#m7994b79778" y="307.864942"/>
      </g>
     </g>
     <g id="text_16">
      <!-- 0.2 -->
      <defs>
       <path d="M 10.59375 35.5 
L 73.1875 35.5 
L 73.1875 27.203125 
L 10.59375 27.203125 
z
" id="DejaVuSans-8722"/>
      </defs>
      <g transform="translate(421.72 311.664161)scale(0.1 -0.1)">
       <use xlink:href="#DejaVuSans-8722"/>
       <use x="83.789062" xlink:href="#DejaVuSans-48"/>
       <use x="147.412109" xlink:href="#DejaVuSans-46"/>
       <use x="179.199219" xlink:href="#DejaVuSans-50"/>
      </g>
     </g>
    </g>
    <g id="ytick_9">
     <g id="line2d_18">
      <path clip-path="url(#p5e209f2f86)" d="M 57.6 266.178442 
L 414.72 266.178442 
" style="fill:none;stroke:#b0b0b0;stroke-linecap:square;stroke-width:0.8;"/>
     </g>
     <g id="line2d_19">
      <g>
       <use style="stroke:#000000;stroke-width:0.8;" x="414.72" xlink:href="#m7994b79778" y="266.178442"/>
      </g>
     </g>
     <g id="text_17">
      <!-- 0.0 -->
      <g transform="translate(421.72 269.97766)scale(0.1 -0.1)">
       <use xlink:href="#DejaVuSans-48"/>
       <use x="63.623047" xlink:href="#DejaVuSans-46"/>
       <use x="95.410156" xlink:href="#DejaVuSans-48"/>
      </g>
     </g>
    </g>
    <g id="ytick_10">
     <g id="line2d_20">
      <path clip-path="url(#p5e209f2f86)" d="M 57.6 224.491942 
L 414.72 224.491942 
" style="fill:none;stroke:#b0b0b0;stroke-linecap:square;stroke-width:0.8;"/>
     </g>
     <g id="line2d_21">
      <g>
       <use style="stroke:#000000;stroke-width:0.8;" x="414.72" xlink:href="#m7994b79778" y="224.491942"/>
      </g>
     </g>
     <g id="text_18">
      <!-- 0.2 -->
      <g transform="translate(421.72 228.29116)scale(0.1 -0.1)">
       <use xlink:href="#DejaVuSans-48"/>
       <use x="63.623047" xlink:href="#DejaVuSans-46"/>
       <use x="95.410156" xlink:href="#DejaVuSans-50"/>
      </g>
     </g>
    </g>
    <g id="ytick_11">
     <g id="line2d_22">
      <path clip-path="url(#p5e209f2f86)" d="M 57.6 182.805441 
L 414.72 182.805441 
" style="fill:none;stroke:#b0b0b0;stroke-linecap:square;stroke-width:0.8;"/>
     </g>
     <g id="line2d_23">
      <g>
       <use style="stroke:#000000;stroke-width:0.8;" x="414.72" xlink:href="#m7994b79778" y="182.805441"/>
      </g>
     </g>
     <g id="text_19">
      <!-- 0.4 -->
      <g transform="translate(421.72 186.60466)scale(0.1 -0.1)">
       <use xlink:href="#DejaVuSans-48"/>
       <use x="63.623047" xlink:href="#DejaVuSans-46"/>
       <use x="95.410156" xlink:href="#DejaVuSans-52"/>
      </g>
     </g>
    </g>
    <g id="ytick_12">
     <g id="line2d_24">
      <path clip-path="url(#p5e209f2f86)" d="M 57.6 141.118941 
L 414.72 141.118941 
" style="fill:none;stroke:#b0b0b0;stroke-linecap:square;stroke-width:0.8;"/>
     </g>
     <g id="line2d_25">
      <g>
       <use style="stroke:#000000;stroke-width:0.8;" x="414.72" xlink:href="#m7994b79778" y="141.118941"/>
      </g>
     </g>
     <g id="text_20">
      <!-- 0.6 -->
      <g transform="translate(421.72 144.91816)scale(0.1 -0.1)">
       <use xlink:href="#DejaVuSans-48"/>
       <use x="63.623047" xlink:href="#DejaVuSans-46"/>
       <use x="95.410156" xlink:href="#DejaVuSans-54"/>
      </g>
     </g>
    </g>
    <g id="ytick_13">
     <g id="line2d_26">
      <path clip-path="url(#p5e209f2f86)" d="M 57.6 99.432441 
L 414.72 99.432441 
" style="fill:none;stroke:#b0b0b0;stroke-linecap:square;stroke-width:0.8;"/>
     </g>
     <g id="line2d_27">
      <g>
       <use style="stroke:#000000;stroke-width:0.8;" x="414.72" xlink:href="#m7994b79778" y="99.432441"/>
      </g>
     </g>
     <g id="text_21">
      <!-- 0.8 -->
      <g transform="translate(421.72 103.23166)scale(0.1 -0.1)">
       <use xlink:href="#DejaVuSans-48"/>
       <use x="63.623047" xlink:href="#DejaVuSans-46"/>
       <use x="95.410156" xlink:href="#DejaVuSans-56"/>
      </g>
     </g>
    </g>
    <g id="ytick_14">
     <g id="line2d_28">
      <path clip-path="url(#p5e209f2f86)" d="M 57.6 57.745941 
L 414.72 57.745941 
" style="fill:none;stroke:#b0b0b0;stroke-linecap:square;stroke-width:0.8;"/>
     </g>
     <g id="line2d_29">
      <g>
       <use style="stroke:#000000;stroke-width:0.8;" x="414.72" xlink:href="#m7994b79778" y="57.745941"/>
      </g>
     </g>
     <g id="text_22">
      <!-- 1.0 -->
      <g transform="translate(421.72 61.54516)scale(0.1 -0.1)">
       <use xlink:href="#DejaVuSans-49"/>
       <use x="63.623047" xlink:href="#DejaVuSans-46"/>
       <use x="95.410156" xlink:href="#DejaVuSans-48"/>
      </g>
     </g>
    </g>
    <g id="text_23">
     <!-- Loudness -->
     <defs>
      <path d="M 9.8125 72.90625 
L 19.671875 72.90625 
L 19.671875 8.296875 
L 55.171875 8.296875 
L 55.171875 0 
L 9.8125 0 
z
" id="DejaVuSans-76"/>
      <path d="M 30.609375 48.390625 
Q 23.390625 48.390625 19.1875 42.75 
Q 14.984375 37.109375 14.984375 27.296875 
Q 14.984375 17.484375 19.15625 11.84375 
Q 23.34375 6.203125 30.609375 6.203125 
Q 37.796875 6.203125 41.984375 11.859375 
Q 46.1875 17.53125 46.1875 27.296875 
Q 46.1875 37.015625 41.984375 42.703125 
Q 37.796875 48.390625 30.609375 48.390625 
z
M 30.609375 56 
Q 42.328125 56 49.015625 48.375 
Q 55.71875 40.765625 55.71875 27.296875 
Q 55.71875 13.875 49.015625 6.21875 
Q 42.328125 -1.421875 30.609375 -1.421875 
Q 18.84375 -1.421875 12.171875 6.21875 
Q 5.515625 13.875 5.515625 27.296875 
Q 5.515625 40.765625 12.171875 48.375 
Q 18.84375 56 30.609375 56 
z
" id="DejaVuSans-111"/>
      <path d="M 8.5 21.578125 
L 8.5 54.6875 
L 17.484375 54.6875 
L 17.484375 21.921875 
Q 17.484375 14.15625 20.5 10.265625 
Q 23.53125 6.390625 29.59375 6.390625 
Q 36.859375 6.390625 41.078125 11.03125 
Q 45.3125 15.671875 45.3125 23.6875 
L 45.3125 54.6875 
L 54.296875 54.6875 
L 54.296875 0 
L 45.3125 0 
L 45.3125 8.40625 
Q 42.046875 3.421875 37.71875 1 
Q 33.40625 -1.421875 27.6875 -1.421875 
Q 18.265625 -1.421875 13.375 4.4375 
Q 8.5 10.296875 8.5 21.578125 
z
M 31.109375 56 
z
" id="DejaVuSans-117"/>
      <path d="M 45.40625 46.390625 
L 45.40625 75.984375 
L 54.390625 75.984375 
L 54.390625 0 
L 45.40625 0 
L 45.40625 8.203125 
Q 42.578125 3.328125 38.25 0.953125 
Q 33.9375 -1.421875 27.875 -1.421875 
Q 17.96875 -1.421875 11.734375 6.484375 
Q 5.515625 14.40625 5.515625 27.296875 
Q 5.515625 40.1875 11.734375 48.09375 
Q 17.96875 56 27.875 56 
Q 33.9375 56 38.25 53.625 
Q 42.578125 51.265625 45.40625 46.390625 
z
M 14.796875 27.296875 
Q 14.796875 17.390625 18.875 11.75 
Q 22.953125 6.109375 30.078125 6.109375 
Q 37.203125 6.109375 41.296875 11.75 
Q 45.40625 17.390625 45.40625 27.296875 
Q 45.40625 37.203125 41.296875 42.84375 
Q 37.203125 48.484375 30.078125 48.484375 
Q 22.953125 48.484375 18.875 42.84375 
Q 14.796875 37.203125 14.796875 27.296875 
z
" id="DejaVuSans-100"/>
     </defs>
     <g transform="translate(457.60125 198.170187)rotate(-90)scale(0.1 -0.1)">
      <use xlink:href="#DejaVuSans-76"/>
      <use x="55.697266" xlink:href="#DejaVuSans-111"/>
      <use x="116.878906" xlink:href="#DejaVuSans-117"/>
      <use x="180.257812" xlink:href="#DejaVuSans-100"/>
      <use x="243.734375" xlink:href="#DejaVuSans-110"/>
      <use x="307.113281" xlink:href="#DejaVuSans-101"/>
      <use x="368.636719" xlink:href="#DejaVuSans-115"/>
      <use x="420.736328" xlink:href="#DejaVuSans-115"/>
     </g>
    </g>
   </g>
   <g id="line2d_30">
    <path clip-path="url(#p5e209f2f86)" d="M 73.832727 185.096727 
L 74.918528 191.493943 
L 76.00433 180.428262 
L 77.090131 198.181427 
L 78.175932 197.173536 
L 79.261733 198.385577 
L 80.347534 185.169018 
L 81.433335 184.882103 
L 82.519137 182.19417 
L 83.604938 183.692858 
L 84.690739 183.685051 
L 85.77654 181.205113 
L 86.862341 168.818809 
L 87.948142 167.181626 
L 89.033943 152.99126 
L 90.119745 160.396181 
L 91.205546 166.812477 
L 92.291347 162.114751 
L 93.377148 169.151852 
L 94.462949 164.400232 
L 95.54875 168.983358 
L 96.634552 155.437359 
L 97.720353 156.318715 
L 98.806154 163.665275 
L 99.891955 172.183203 
L 100.977756 162.15111 
L 102.063557 160.660285 
L 103.149358 163.232203 
L 104.23516 169.084658 
L 105.320961 170.186281 
L 106.406762 171.904574 
L 107.492563 182.028418 
L 108.578364 182.447333 
L 109.664165 183.243278 
L 110.749967 182.269046 
L 111.835768 184.088865 
L 112.921569 182.511802 
L 114.00737 190.214717 
L 115.093171 185.32586 
L 116.178972 188.078018 
L 117.264773 179.431052 
L 118.350575 186.301124 
L 119.436376 170.08089 
L 120.522177 165.358266 
L 121.607978 155.408245 
L 122.693779 162.953874 
L 123.77958 159.463732 
L 124.865382 157.285817 
L 125.951183 165.319077 
L 127.036984 159.279078 
L 128.122785 161.94923 
L 129.208586 154.228136 
L 130.294387 152.855697 
L 131.380189 156.176058 
L 132.46599 154.800092 
L 133.551791 159.876826 
L 134.637592 174.658889 
L 135.723393 183.15504 
L 136.809194 172.566297 
L 137.894995 171.099784 
L 138.980797 171.201876 
L 140.066598 168.180223 
L 141.152399 171.83137 
L 142.2382 170.41811 
L 143.324001 168.21573 
L 144.409802 171.287694 
L 145.495604 169.261351 
L 146.581405 160.914824 
L 147.667206 172.066992 
L 148.753007 164.20805 
L 149.838808 172.366021 
L 150.924609 168.087752 
L 152.01041 159.525125 
L 153.096212 157.531355 
L 155.267814 163.461171 
L 156.353615 167.272566 
L 157.439416 160.842186 
L 158.525217 152.499791 
L 159.611019 156.519938 
L 160.69682 162.442881 
L 161.782621 167.230229 
L 162.868422 158.815714 
L 163.954223 163.587622 
L 165.040024 161.874665 
L 166.125825 159.366504 
L 167.211627 154.395097 
L 168.297428 161.583182 
L 169.383229 155.414938 
L 170.46903 156.960177 
L 171.554831 153.655805 
L 172.640632 162.887067 
L 173.726434 160.56449 
L 174.812235 161.001724 
L 176.983837 163.003098 
L 178.069638 165.429401 
L 179.155439 170.114052 
L 180.24124 166.90634 
L 181.327042 169.183077 
L 182.412843 174.155691 
L 183.498644 170.039701 
L 184.584445 170.922867 
L 185.670246 180.497017 
L 186.756047 179.020726 
L 187.841849 178.303586 
L 188.92765 178.480684 
L 190.013451 184.084291 
L 191.099252 192.042496 
L 192.185053 196.67855 
L 193.270854 200.247719 
L 194.356656 193.163526 
L 195.442457 192.067289 
L 196.528258 196.382035 
L 197.614059 193.025675 
L 198.69986 180.509994 
L 199.785661 193.3639 
L 201.957264 187.988704 
L 203.043065 190.3667 
L 204.128866 189.745569 
L 205.214667 194.573227 
L 206.300468 189.838995 
L 207.386269 187.918145 
L 208.472071 195.11868 
L 209.557872 188.810047 
L 210.643673 188.764897 
L 211.729474 191.547454 
L 212.815275 185.202618 
L 213.901076 187.564497 
L 214.986877 185.708334 
L 216.072679 178.560791 
L 217.15848 179.444292 
L 218.244281 183.976278 
L 219.330082 172.551364 
L 221.501684 173.971567 
L 222.587486 167.473903 
L 224.759088 180.663257 
L 225.844889 182.314988 
L 226.93069 181.093887 
L 228.016491 174.869603 
L 229.102292 171.85445 
L 230.188094 176.563091 
L 231.273895 177.077454 
L 232.359696 176.558665 
L 233.445497 179.062963 
L 234.531298 173.187226 
L 235.617099 169.640825 
L 236.702901 177.206607 
L 237.788702 176.529726 
L 238.874503 179.568357 
L 239.960304 180.77121 
L 241.046105 181.383982 
L 242.131906 180.789444 
L 243.217708 185.560922 
L 244.303509 187.878614 
L 245.38931 189.063187 
L 246.475111 190.605102 
L 247.560912 188.952448 
L 248.646713 192.828824 
L 249.732514 193.233356 
L 250.818316 190.706593 
L 251.904117 191.868413 
L 252.989918 192.582532 
L 254.075719 193.720729 
L 255.16152 196.944576 
L 256.247321 188.861563 
L 257.333123 184.486284 
L 258.418924 191.668333 
L 259.504725 193.55408 
L 260.590526 188.494251 
L 261.676327 189.382244 
L 262.762128 191.394501 
L 263.847929 189.672336 
L 264.933731 195.19835 
L 266.019532 191.337979 
L 267.105333 189.557221 
L 268.191134 191.871182 
L 269.276935 185.707625 
L 270.362736 183.637976 
L 271.448538 185.558692 
L 272.534339 190.092668 
L 273.62014 186.668393 
L 274.705941 185.801342 
L 275.791742 187.838246 
L 276.877543 187.899055 
L 277.963344 183.134097 
L 279.049146 185.5207 
L 280.134947 186.969996 
L 281.220748 178.624274 
L 282.306549 187.828283 
L 283.39235 192.747224 
L 284.478151 193.807122 
L 285.563953 190.266062 
L 286.649754 185.000971 
L 287.735555 193.88513 
L 288.821356 192.956287 
L 289.907157 195.083736 
L 290.992958 192.400825 
L 292.07876 191.319116 
L 293.164561 183.461026 
L 294.250362 189.885404 
L 295.336163 185.828831 
L 296.421964 188.22831 
L 297.507765 191.182266 
L 298.593566 186.589908 
L 299.679368 186.886559 
L 300.765169 174.044329 
L 301.85097 174.037566 
L 302.936771 178.398164 
L 304.022572 174.639839 
L 305.108373 178.757161 
L 306.194175 176.958589 
L 307.279976 184.54418 
L 308.365777 184.748854 
L 309.451578 186.305837 
L 311.62318 179.866558 
L 312.708981 176.293013 
L 313.794783 188.591202 
L 314.880584 182.497627 
L 315.966385 190.554197 
L 317.052186 195.855722 
L 318.137987 194.703449 
L 319.223788 195.164311 
L 320.30959 190.965957 
L 321.395391 184.448897 
L 322.481192 189.075885 
L 323.566993 182.707169 
L 324.652794 184.084911 
L 325.738595 189.638307 
L 326.824396 191.533863 
L 327.910198 191.909508 
L 328.995999 192.660031 
L 330.0818 195.035034 
L 332.253402 192.662565 
L 333.339203 189.541446 
L 334.425005 184.410024 
L 335.510806 196.570807 
L 336.596607 192.473105 
L 337.682408 191.907427 
L 338.768209 191.867606 
L 339.85401 197.136473 
L 340.939811 190.636791 
L 342.025613 198.927229 
L 343.111414 189.84064 
L 344.197215 189.944758 
L 345.283016 197.017869 
L 346.368817 198.834736 
L 347.454618 196.453837 
L 348.54042 200.877108 
L 349.626221 200.861045 
L 351.797823 194.507562 
L 353.969425 197.522465 
L 355.055227 199.962724 
L 356.141028 201.977315 
L 357.226829 204.22912 
L 358.31263 202.165369 
L 359.398431 196.521607 
L 360.484232 203.234254 
L 361.570033 201.48777 
L 362.655835 197.996967 
L 364.827437 191.991683 
L 365.913238 191.258173 
L 366.999039 194.32842 
L 368.08484 193.227399 
L 369.170642 194.570661 
L 370.256443 196.725757 
L 371.342244 199.43774 
L 372.428045 195.517415 
L 373.513846 197.223842 
L 374.599647 198.242006 
L 375.685448 193.01298 
L 376.77125 191.477161 
L 377.857051 188.761911 
L 378.942852 190.676227 
L 380.028653 192.363318 
L 381.114454 195.252392 
L 382.200255 194.707084 
L 383.286057 188.862444 
L 384.371858 189.8056 
L 385.457659 186.208001 
L 386.54346 188.372204 
L 387.629261 187.870906 
L 388.715062 187.189954 
L 390.886665 193.031933 
L 391.972466 195.441009 
L 393.058267 186.684857 
L 394.144068 187.685702 
L 395.229869 191.56264 
L 396.31567 190.803449 
L 397.401472 192.98535 
L 398.487273 188.057488 
L 398.487273 188.057488 
" style="fill:none;stroke:#008000;stroke-linecap:square;stroke-width:1.5;"/>
   </g>
   <g id="patch_7">
    <path d="M 57.6 307.584 
L 57.6 41.472 
" style="fill:none;stroke:#000000;stroke-linecap:square;stroke-linejoin:miter;stroke-width:0.8;"/>
   </g>
   <g id="patch_8">
    <path d="M 414.72 307.584 
L 414.72 41.472 
" style="fill:none;stroke:#000000;stroke-linecap:square;stroke-linejoin:miter;stroke-width:0.8;"/>
   </g>
   <g id="patch_9">
    <path d="M 57.6 307.584 
L 414.72 307.584 
" style="fill:none;stroke:#000000;stroke-linecap:square;stroke-linejoin:miter;stroke-width:0.8;"/>
   </g>
   <g id="patch_10">
    <path d="M 57.6 41.472 
L 414.72 41.472 
" style="fill:none;stroke:#000000;stroke-linecap:square;stroke-linejoin:miter;stroke-width:0.8;"/>
   </g>
   <g id="text_24">
    <!-- Message Difference and Loudness -->
    <defs>
     <path d="M 9.8125 72.90625 
L 24.515625 72.90625 
L 43.109375 23.296875 
L 61.8125 72.90625 
L 76.515625 72.90625 
L 76.515625 0 
L 66.890625 0 
L 66.890625 64.015625 
L 48.09375 14.015625 
L 38.1875 14.015625 
L 19.390625 64.015625 
L 19.390625 0 
L 9.8125 0 
z
" id="DejaVuSans-77"/>
     <path d="M 45.40625 27.984375 
Q 45.40625 37.75 41.375 43.109375 
Q 37.359375 48.484375 30.078125 48.484375 
Q 22.859375 48.484375 18.828125 43.109375 
Q 14.796875 37.75 14.796875 27.984375 
Q 14.796875 18.265625 18.828125 12.890625 
Q 22.859375 7.515625 30.078125 7.515625 
Q 37.359375 7.515625 41.375 12.890625 
Q 45.40625 18.265625 45.40625 27.984375 
z
M 54.390625 6.78125 
Q 54.390625 -7.171875 48.1875 -13.984375 
Q 42 -20.796875 29.203125 -20.796875 
Q 24.46875 -20.796875 20.265625 -20.09375 
Q 16.0625 -19.390625 12.109375 -17.921875 
L 12.109375 -9.1875 
Q 16.0625 -11.328125 19.921875 -12.34375 
Q 23.78125 -13.375 27.78125 -13.375 
Q 36.625 -13.375 41.015625 -8.765625 
Q 45.40625 -4.15625 45.40625 5.171875 
L 45.40625 9.625 
Q 42.625 4.78125 38.28125 2.390625 
Q 33.9375 0 27.875 0 
Q 17.828125 0 11.671875 7.65625 
Q 5.515625 15.328125 5.515625 27.984375 
Q 5.515625 40.671875 11.671875 48.328125 
Q 17.828125 56 27.875 56 
Q 33.9375 56 38.28125 53.609375 
Q 42.625 51.21875 45.40625 46.390625 
L 45.40625 54.6875 
L 54.390625 54.6875 
z
" id="DejaVuSans-103"/>
     <path id="DejaVuSans-32"/>
     <path d="M 37.109375 75.984375 
L 37.109375 68.5 
L 28.515625 68.5 
Q 23.6875 68.5 21.796875 66.546875 
Q 19.921875 64.59375 19.921875 59.515625 
L 19.921875 54.6875 
L 34.71875 54.6875 
L 34.71875 47.703125 
L 19.921875 47.703125 
L 19.921875 0 
L 10.890625 0 
L 10.890625 47.703125 
L 2.296875 47.703125 
L 2.296875 54.6875 
L 10.890625 54.6875 
L 10.890625 58.5 
Q 10.890625 67.625 15.140625 71.796875 
Q 19.390625 75.984375 28.609375 75.984375 
z
" id="DejaVuSans-102"/>
     <path d="M 41.109375 46.296875 
Q 39.59375 47.171875 37.8125 47.578125 
Q 36.03125 48 33.890625 48 
Q 26.265625 48 22.1875 43.046875 
Q 18.109375 38.09375 18.109375 28.8125 
L 18.109375 0 
L 9.078125 0 
L 9.078125 54.6875 
L 18.109375 54.6875 
L 18.109375 46.1875 
Q 20.953125 51.171875 25.484375 53.578125 
Q 30.03125 56 36.53125 56 
Q 37.453125 56 38.578125 55.875 
Q 39.703125 55.765625 41.0625 55.515625 
z
" id="DejaVuSans-114"/>
    </defs>
    <g transform="translate(133.329375 35.472)scale(0.12 -0.12)">
     <use xlink:href="#DejaVuSans-77"/>
     <use x="86.279297" xlink:href="#DejaVuSans-101"/>
     <use x="147.802734" xlink:href="#DejaVuSans-115"/>
     <use x="199.902344" xlink:href="#DejaVuSans-115"/>
     <use x="252.001953" xlink:href="#DejaVuSans-97"/>
     <use x="313.28125" xlink:href="#DejaVuSans-103"/>
     <use x="376.757812" xlink:href="#DejaVuSans-101"/>
     <use x="438.28125" xlink:href="#DejaVuSans-32"/>
     <use x="470.068359" xlink:href="#DejaVuSans-68"/>
     <use x="547.070312" xlink:href="#DejaVuSans-105"/>
     <use x="574.853516" xlink:href="#DejaVuSans-102"/>
     <use x="610.058594" xlink:href="#DejaVuSans-102"/>
     <use x="645.263672" xlink:href="#DejaVuSans-101"/>
     <use x="706.787109" xlink:href="#DejaVuSans-114"/>
     <use x="747.869141" xlink:href="#DejaVuSans-101"/>
     <use x="809.392578" xlink:href="#DejaVuSans-110"/>
     <use x="872.771484" xlink:href="#DejaVuSans-99"/>
     <use x="927.751953" xlink:href="#DejaVuSans-101"/>
     <use x="989.275391" xlink:href="#DejaVuSans-32"/>
     <use x="1021.0625" xlink:href="#DejaVuSans-97"/>
     <use x="1082.341797" xlink:href="#DejaVuSans-110"/>
     <use x="1145.720703" xlink:href="#DejaVuSans-100"/>
     <use x="1209.197266" xlink:href="#DejaVuSans-32"/>
     <use x="1240.984375" xlink:href="#DejaVuSans-76"/>
     <use x="1296.681641" xlink:href="#DejaVuSans-111"/>
     <use x="1357.863281" xlink:href="#DejaVuSans-117"/>
     <use x="1421.242188" xlink:href="#DejaVuSans-100"/>
     <use x="1484.71875" xlink:href="#DejaVuSans-110"/>
     <use x="1548.097656" xlink:href="#DejaVuSans-101"/>
     <use x="1609.621094" xlink:href="#DejaVuSans-115"/>
     <use x="1661.720703" xlink:href="#DejaVuSans-115"/>
    </g>
   </g>
   <g id="legend_1">
    <g id="patch_11">
     <path d="M 331.227813 64.150125 
L 407.72 64.150125 
Q 409.72 64.150125 409.72 62.150125 
L 409.72 48.472 
Q 409.72 46.472 407.72 46.472 
L 331.227813 46.472 
Q 329.227813 46.472 329.227813 48.472 
L 329.227813 62.150125 
Q 329.227813 64.150125 331.227813 64.150125 
z
" style="fill:#ffffff;opacity:0.8;stroke:#cccccc;stroke-linejoin:miter;"/>
    </g>
    <g id="line2d_31">
     <path d="M 333.227813 54.570438 
L 353.227813 54.570438 
" style="fill:none;stroke:#008000;stroke-linecap:square;stroke-width:1.5;"/>
    </g>
    <g id="line2d_32"/>
    <g id="text_25">
     <!-- loudness -->
     <defs>
      <path d="M 9.421875 75.984375 
L 18.40625 75.984375 
L 18.40625 0 
L 9.421875 0 
z
" id="DejaVuSans-108"/>
     </defs>
     <g transform="translate(361.227813 58.070438)scale(0.1 -0.1)">
      <use xlink:href="#DejaVuSans-108"/>
      <use x="27.783203" xlink:href="#DejaVuSans-111"/>
      <use x="88.964844" xlink:href="#DejaVuSans-117"/>
      <use x="152.34375" xlink:href="#DejaVuSans-100"/>
      <use x="215.820312" xlink:href="#DejaVuSans-110"/>
      <use x="279.199219" xlink:href="#DejaVuSans-101"/>
      <use x="340.722656" xlink:href="#DejaVuSans-115"/>
      <use x="392.822266" xlink:href="#DejaVuSans-115"/>
     </g>
    </g>
   </g>
  </g>
 </g>
 <defs>
  <clipPath id="p5e209f2f86">
   <rect height="266.112" width="357.12" x="57.6" y="41.472"/>
  </clipPath>
 </defs>
</svg>
