<?xml version="1.0" encoding="utf-8" standalone="no"?>
<!DOCTYPE svg PUBLIC "-//W3C//DTD SVG 1.1//EN"
  "http://www.w3.org/Graphics/SVG/1.1/DTD/svg11.dtd">
<!-- Created with matplotlib (https://matplotlib.org/) -->
<svg height="345.6pt" version="1.1" viewBox="0 0 460.8 345.6" width="460.8pt" xmlns="http://www.w3.org/2000/svg" xmlns:xlink="http://www.w3.org/1999/xlink">
 <defs>
  <style type="text/css">
*{stroke-linecap:butt;stroke-linejoin:round;}
  </style>
 </defs>
 <g id="figure_1">
  <g id="patch_1">
   <path d="M 0 345.6 
L 460.8 345.6 
L 460.8 0 
L 0 0 
z
" style="fill:#ffffff;"/>
  </g>
  <g id="axes_1">
   <g id="patch_2">
    <path d="M 57.6 307.584 
L 414.72 307.584 
L 414.72 41.472 
L 57.6 41.472 
z
" style="fill:#ffffff;"/>
   </g>
   <g id="PolyCollection_1">
    <path clip-path="url(#p3c35590dee)" d="M 73.832727 53.568 
L 73.832727 65.29739 
L 74.918528 97.80602 
L 76.00433 108.360749 
L 77.090131 130.099285 
L 78.175932 123.189291 
L 79.261733 163.620095 
L 80.347534 177.449604 
L 81.433335 187.958426 
L 82.519137 194.296949 
L 83.604938 184.011988 
L 84.690739 175.186752 
L 85.77654 171.583337 
L 86.862341 160.176594 
L 87.948142 166.627721 
L 89.033943 167.154493 
L 90.119745 135.573637 
L 91.205546 155.753433 
L 92.291347 153.304695 
L 93.377148 147.637468 
L 94.462949 137.787371 
L 95.54875 152.943571 
L 96.634552 143.241946 
L 97.720353 151.222649 
L 98.806154 159.84867 
L 99.891955 217.803439 
L 100.977756 225.169855 
L 102.063557 275.502962 
L 103.149358 236.572696 
L 104.23516 205.158154 
L 105.320961 215.454911 
L 106.406762 193.306994 
L 107.492563 224.792215 
L 108.578364 232.393862 
L 109.664165 229.375932 
L 110.749967 249.158307 
L 111.835768 266.619377 
L 112.921569 263.997422 
L 114.00737 255.550207 
L 115.093171 237.841968 
L 116.178972 285.716263 
L 117.264773 265.011568 
L 118.350575 259.992892 
L 119.436376 239.010501 
L 120.522177 217.697026 
L 121.607978 225.703838 
L 122.693779 206.176257 
L 123.77958 223.979214 
L 124.865382 231.676479 
L 125.951183 253.690798 
L 127.036984 279.134414 
L 128.122785 274.285021 
L 129.208586 246.726044 
L 130.294387 257.027206 
L 131.380189 228.175876 
L 132.46599 217.838534 
L 133.551791 223.515478 
L 134.637592 240.932057 
L 135.723393 221.760451 
L 136.809194 178.117182 
L 137.894995 173.651643 
L 138.980797 170.499519 
L 140.066598 200.918203 
L 141.152399 190.616495 
L 142.2382 182.461844 
L 143.324001 218.284551 
L 144.409802 224.727457 
L 145.495604 205.956787 
L 146.581405 227.297473 
L 147.667206 195.019721 
L 148.753007 230.388722 
L 149.838808 253.585221 
L 150.924609 223.766512 
L 152.01041 221.997179 
L 153.096212 200.345517 
L 154.182013 197.581932 
L 155.267814 182.963915 
L 156.353615 214.844032 
L 157.439416 202.262297 
L 158.525217 207.30676 
L 159.611019 226.482451 
L 160.69682 245.082449 
L 161.782621 226.921822 
L 162.868422 179.254588 
L 163.954223 209.553204 
L 165.040024 207.506466 
L 166.125825 260.75966 
L 167.211627 252.947845 
L 168.297428 220.986566 
L 169.383229 211.863158 
L 170.46903 246.838392 
L 171.554831 204.668385 
L 172.640632 204.651044 
L 173.726434 215.827691 
L 174.812235 194.840851 
L 175.898036 189.702319 
L 176.983837 168.346988 
L 178.069638 194.091581 
L 179.155439 193.503983 
L 180.24124 159.421908 
L 181.327042 165.546813 
L 182.412843 170.652783 
L 183.498644 173.997318 
L 184.584445 145.424772 
L 185.670246 165.010581 
L 186.756047 161.981155 
L 187.841849 186.247153 
L 188.92765 203.492849 
L 190.013451 198.730991 
L 191.099252 186.659222 
L 192.185053 189.740059 
L 193.270854 210.509252 
L 194.356656 160.617241 
L 195.442457 185.720382 
L 196.528258 189.217557 
L 197.614059 177.178715 
L 198.69986 186.161797 
L 199.785661 189.342256 
L 200.871462 239.602179 
L 201.957264 259.177565 
L 203.043065 243.69263 
L 204.128866 210.40591 
L 205.214667 212.631585 
L 206.300468 237.589044 
L 207.386269 245.023725 
L 208.472071 195.489653 
L 209.557872 200.857503 
L 210.643673 216.908952 
L 211.729474 236.626457 
L 212.815275 205.43698 
L 213.901076 198.473247 
L 214.986877 169.83615 
L 216.072679 178.780982 
L 217.15848 226.936086 
L 218.244281 228.539731 
L 219.330082 231.86158 
L 220.415883 228.607399 
L 221.501684 229.915903 
L 222.587486 212.959319 
L 223.673287 201.111742 
L 224.759088 198.829928 
L 225.844889 200.118414 
L 226.93069 176.47274 
L 228.016491 189.557178 
L 229.102292 175.535216 
L 230.188094 197.418762 
L 231.273895 196.709164 
L 232.359696 251.010464 
L 233.445497 239.696158 
L 234.531298 222.803267 
L 235.617099 201.864258 
L 236.702901 200.556302 
L 237.788702 197.343437 
L 238.874503 208.00909 
L 239.960304 198.793018 
L 241.046105 225.280095 
L 242.131906 219.805126 
L 243.217708 195.194464 
L 244.303509 198.19486 
L 245.38931 183.027592 
L 246.475111 152.081704 
L 247.560912 174.21687 
L 248.646713 206.018734 
L 249.732514 239.613916 
L 250.818316 238.494471 
L 251.904117 266.007502 
L 252.989918 232.976969 
L 254.075719 253.708234 
L 255.16152 236.414182 
L 256.247321 249.29522 
L 257.333123 266.286321 
L 258.418924 265.092153 
L 259.504725 267.812608 
L 260.590526 240.976535 
L 261.676327 285.854799 
L 262.762128 264.425295 
L 263.847929 269.64609 
L 264.933731 295.488 
L 266.019532 262.905978 
L 267.105333 287.47205 
L 268.191134 276.082007 
L 269.276935 282.971895 
L 270.362736 267.922874 
L 271.448538 255.288256 
L 272.534339 240.659801 
L 273.62014 234.690333 
L 274.705941 237.522122 
L 275.791742 218.674344 
L 276.877543 225.778645 
L 277.963344 230.885125 
L 279.049146 231.013437 
L 280.134947 236.026456 
L 281.220748 231.170069 
L 282.306549 229.058155 
L 283.39235 272.710683 
L 284.478151 240.730119 
L 285.563953 234.967907 
L 286.649754 285.492807 
L 287.735555 276.689524 
L 288.821356 239.23694 
L 289.907157 283.00804 
L 290.992958 243.178688 
L 292.07876 252.107435 
L 293.164561 217.515509 
L 294.250362 243.434722 
L 295.336163 207.82151 
L 296.421964 259.095784 
L 297.507765 279.959594 
L 298.593566 237.567257 
L 299.679368 279.422329 
L 300.765169 228.391776 
L 301.85097 245.155629 
L 302.936771 243.612069 
L 304.022572 248.568641 
L 305.108373 256.09693 
L 306.194175 273.129682 
L 307.279976 278.449018 
L 308.365777 273.077382 
L 309.451578 270.483434 
L 310.537379 261.305435 
L 311.62318 211.44971 
L 312.708981 227.581009 
L 313.794783 206.247207 
L 314.880584 218.606414 
L 315.966385 218.59264 
L 317.052186 217.949869 
L 318.137987 233.946241 
L 319.223788 234.889776 
L 320.30959 241.655263 
L 321.395391 228.980801 
L 322.481192 227.758872 
L 323.566993 231.406825 
L 324.652794 198.864124 
L 325.738595 192.945088 
L 326.824396 191.668354 
L 327.910198 187.855194 
L 328.995999 227.032083 
L 330.0818 191.788968 
L 331.167601 193.167682 
L 332.253402 218.328995 
L 333.339203 203.523585 
L 334.425005 197.94966 
L 335.510806 178.700684 
L 336.596607 160.809813 
L 337.682408 163.508913 
L 338.768209 127.640341 
L 339.85401 130.000329 
L 340.939811 165.702887 
L 342.025613 160.023657 
L 343.111414 176.101969 
L 344.197215 199.592075 
L 345.283016 179.950304 
L 346.368817 181.635542 
L 347.454618 186.19124 
L 348.54042 187.191911 
L 349.626221 186.978327 
L 350.712022 197.106197 
L 351.797823 218.784221 
L 352.883624 198.604183 
L 353.969425 199.166235 
L 355.055227 225.056727 
L 356.141028 202.254869 
L 357.226829 228.602799 
L 358.31263 255.310922 
L 359.398431 197.194212 
L 360.484232 206.295573 
L 361.570033 198.159307 
L 362.655835 204.231372 
L 363.741636 215.947381 
L 364.827437 267.973147 
L 365.913238 231.233942 
L 366.999039 239.094105 
L 368.08484 226.079798 
L 369.170642 183.922934 
L 370.256443 173.936508 
L 371.342244 162.938076 
L 372.428045 166.033633 
L 373.513846 176.029102 
L 374.599647 212.18774 
L 375.685448 193.470616 
L 376.77125 191.539678 
L 377.857051 197.20479 
L 378.942852 196.120344 
L 380.028653 178.309509 
L 381.114454 154.815457 
L 382.200255 157.99207 
L 383.286057 158.455441 
L 384.371858 174.118991 
L 385.457659 174.762037 
L 386.54346 168.997417 
L 387.629261 205.961513 
L 388.715062 200.137337 
L 389.800863 210.502687 
L 390.886665 208.836413 
L 391.972466 215.91129 
L 393.058267 202.845798 
L 394.144068 257.047509 
L 395.229869 214.854098 
L 396.31567 207.075783 
L 397.401472 201.956587 
L 398.487273 211.197381 
L 398.487273 194.81949 
L 398.487273 194.81949 
L 397.401472 188.356643 
L 396.31567 185.890516 
L 395.229869 184.879441 
L 394.144068 219.095931 
L 393.058267 184.720683 
L 391.972466 172.791213 
L 390.886665 177.716983 
L 389.800863 175.469781 
L 388.715062 180.971833 
L 387.629261 190.270309 
L 386.54346 143.27502 
L 385.457659 144.60717 
L 384.371858 153.21528 
L 383.286057 137.717585 
L 382.200255 133.442446 
L 381.114454 137.739162 
L 380.028653 151.27667 
L 378.942852 158.48403 
L 377.857051 171.355108 
L 376.77125 156.517636 
L 375.685448 172.786363 
L 374.599647 176.246023 
L 373.513846 140.352164 
L 372.428045 141.997859 
L 371.342244 136.941048 
L 370.256443 147.436808 
L 369.170642 157.834477 
L 368.08484 174.482552 
L 366.999039 209.055777 
L 365.913238 183.458362 
L 364.827437 226.06352 
L 363.741636 189.147944 
L 362.655835 184.132374 
L 361.570033 169.195004 
L 360.484232 185.487842 
L 359.398431 173.945248 
L 358.31263 213.967119 
L 357.226829 193.335981 
L 356.141028 172.093317 
L 355.055227 189.200748 
L 353.969425 176.96859 
L 352.883624 163.620196 
L 351.797823 183.669432 
L 350.712022 175.561219 
L 349.626221 160.305489 
L 348.54042 158.543299 
L 347.454618 156.492182 
L 346.368817 164.639771 
L 345.283016 160.917606 
L 344.197215 180.982277 
L 343.111414 144.322076 
L 342.025613 137.261918 
L 340.939811 141.496526 
L 339.85401 101.652391 
L 338.768209 114.551562 
L 337.682408 138.471161 
L 336.596607 131.830251 
L 335.510806 162.235725 
L 334.425005 167.919035 
L 333.339203 177.41753 
L 332.253402 197.598514 
L 331.167601 181.541644 
L 330.0818 166.776336 
L 328.995999 185.455636 
L 327.910198 163.881236 
L 326.824396 176.310236 
L 325.738595 167.321744 
L 324.652794 176.755402 
L 323.566993 217.76296 
L 322.481192 216.501114 
L 321.395391 197.839481 
L 320.30959 208.626213 
L 319.223788 211.573814 
L 318.137987 201.93001 
L 317.052186 187.213688 
L 315.966385 194.031039 
L 314.880584 194.269991 
L 313.794783 193.149313 
L 312.708981 211.585213 
L 311.62318 194.37166 
L 310.537379 226.837996 
L 309.451578 236.662184 
L 308.365777 235.419661 
L 307.279976 227.368181 
L 306.194175 215.541838 
L 305.108373 222.192097 
L 304.022572 218.864607 
L 302.936771 193.96971 
L 301.85097 194.954027 
L 300.765169 179.804443 
L 299.679368 239.965115 
L 298.593566 204.042473 
L 297.507765 250.200651 
L 296.421964 249.049725 
L 295.336163 179.653645 
L 294.250362 204.454413 
L 293.164561 191.602525 
L 292.07876 224.157918 
L 290.992958 205.532946 
L 289.907157 254.123591 
L 288.821356 197.272379 
L 287.735555 222.586689 
L 286.649754 243.374582 
L 285.563953 202.175627 
L 284.478151 211.939456 
L 283.39235 244.01197 
L 282.306549 203.872692 
L 281.220748 217.750496 
L 280.134947 207.768924 
L 279.049146 212.158495 
L 277.963344 199.904823 
L 276.877543 201.039654 
L 275.791742 176.107963 
L 274.705941 211.118613 
L 273.62014 209.733194 
L 272.534339 218.158349 
L 271.448538 216.909108 
L 270.362736 235.012864 
L 269.276935 260.362631 
L 268.191134 243.125748 
L 267.105333 258.488538 
L 266.019532 248.750926 
L 264.933731 255.820724 
L 263.847929 242.026704 
L 262.762128 247.683668 
L 261.676327 253.61536 
L 260.590526 221.563277 
L 259.504725 222.49731 
L 258.418924 232.534383 
L 257.333123 221.325837 
L 256.247321 218.5711 
L 255.16152 196.474694 
L 254.075719 228.818016 
L 252.989918 218.175817 
L 251.904117 232.610985 
L 250.818316 208.944144 
L 249.732514 207.052972 
L 248.646713 185.078996 
L 247.560912 149.50799 
L 246.475111 137.962034 
L 245.38931 157.745187 
L 244.303509 173.087021 
L 243.217708 168.041833 
L 242.131906 198.909897 
L 241.046105 198.370565 
L 239.960304 174.649043 
L 238.874503 180.941976 
L 237.788702 173.107383 
L 236.702901 163.077348 
L 235.617099 178.545554 
L 234.531298 181.157602 
L 233.445497 198.403467 
L 232.359696 216.508352 
L 231.273895 178.091053 
L 230.188094 175.351907 
L 229.102292 153.651158 
L 228.016491 151.021897 
L 226.93069 157.585306 
L 225.844889 172.960896 
L 224.759088 164.952019 
L 223.673287 173.474125 
L 222.587486 196.143056 
L 221.501684 184.885566 
L 220.415883 195.967035 
L 219.330082 195.343531 
L 218.244281 203.448334 
L 217.15848 196.779667 
L 216.072679 143.502202 
L 214.986877 142.460216 
L 213.901076 153.803439 
L 212.815275 171.466937 
L 211.729474 185.649863 
L 210.643673 160.980472 
L 209.557872 165.672893 
L 208.472071 155.601852 
L 207.386269 194.780206 
L 206.300468 186.48056 
L 205.214667 180.744896 
L 204.128866 171.778553 
L 203.043065 191.649243 
L 201.957264 207.704164 
L 200.871462 199.712826 
L 199.785661 170.445891 
L 198.69986 156.316552 
L 197.614059 158.896229 
L 196.528258 169.350833 
L 195.442457 160.231832 
L 194.356656 151.960126 
L 193.270854 185.410714 
L 192.185053 172.606286 
L 191.099252 158.277897 
L 190.013451 174.8571 
L 188.92765 196.368486 
L 187.841849 168.261314 
L 186.756047 154.455579 
L 185.670246 160.589671 
L 184.584445 130.649228 
L 183.498644 151.497086 
L 182.412843 147.763641 
L 181.327042 144.10417 
L 180.24124 125.11942 
L 179.155439 162.293967 
L 178.069638 168.616774 
L 176.983837 137.039213 
L 175.898036 162.650764 
L 174.812235 157.250043 
L 173.726434 188.387769 
L 172.640632 193.492556 
L 171.554831 190.063662 
L 170.46903 216.06235 
L 169.383229 190.368408 
L 168.297428 187.138811 
L 167.211627 216.976044 
L 166.125825 239.734855 
L 165.040024 181.221739 
L 163.954223 192.705306 
L 162.868422 163.755911 
L 161.782621 212.188438 
L 160.69682 219.95843 
L 159.611019 204.696573 
L 158.525217 177.496473 
L 157.439416 158.557983 
L 156.353615 175.797778 
L 155.267814 158.707443 
L 154.182013 177.73425 
L 153.096212 183.545132 
L 152.01041 204.30148 
L 150.924609 218.179978 
L 149.838808 210.031929 
L 148.753007 192.772195 
L 147.667206 170.108556 
L 146.581405 188.205761 
L 145.495604 190.135041 
L 144.409802 198.133322 
L 143.324001 186.272664 
L 142.2382 158.749584 
L 141.152399 161.76264 
L 140.066598 179.419101 
L 138.980797 143.640912 
L 137.894995 141.52831 
L 136.809194 156.297142 
L 135.723393 185.048749 
L 134.637592 198.323946 
L 133.551791 179.023396 
L 132.46599 186.488196 
L 131.380189 196.009243 
L 130.294387 225.514196 
L 129.208586 222.864508 
L 128.122785 237.966328 
L 127.036984 247.703533 
L 125.951183 212.84959 
L 124.865382 211.098472 
L 123.77958 194.303606 
L 122.693779 167.783177 
L 121.607978 186.424734 
L 120.522177 209.315437 
L 119.436376 218.975316 
L 118.350575 230.250608 
L 117.264773 234.074954 
L 116.178972 222.032207 
L 115.093171 204.24445 
L 114.00737 222.891112 
L 112.921569 228.848924 
L 111.835768 242.809655 
L 110.749967 237.11418 
L 109.664165 195.738009 
L 108.578364 223.873112 
L 107.492563 186.677337 
L 106.406762 163.995119 
L 105.320961 177.652336 
L 104.23516 166.675549 
L 103.149358 213.558059 
L 102.063557 236.733065 
L 100.977756 192.210611 
L 99.891955 191.186057 
L 98.806154 143.253227 
L 97.720353 118.527226 
L 96.634552 136.852723 
L 95.54875 131.771416 
L 94.462949 114.971448 
L 93.377148 128.436914 
L 92.291347 120.046342 
L 91.205546 130.83651 
L 90.119745 108.213855 
L 89.033943 127.541793 
L 87.948142 139.585531 
L 86.862341 152.623785 
L 85.77654 145.719864 
L 84.690739 162.407146 
L 83.604938 171.130916 
L 82.519137 160.798013 
L 81.433335 165.2755 
L 80.347534 157.001481 
L 79.261733 134.594494 
L 78.175932 94.469662 
L 77.090131 108.520865 
L 76.00433 91.144301 
L 74.918528 82.085425 
L 73.832727 53.568 
z
" style="fill:#0000ff;fill-opacity:0.25;"/>
   </g>
   <g id="matplotlib.axis_1">
    <g id="xtick_1">
     <g id="line2d_1">
      <defs>
       <path d="M 0 0 
L 0 3.5 
" id="mcd2f3dd01b" style="stroke:#000000;stroke-width:0.8;"/>
      </defs>
      <g>
       <use style="stroke:#000000;stroke-width:0.8;" x="73.832727" xlink:href="#mcd2f3dd01b" y="307.584"/>
      </g>
     </g>
     <g id="text_1">
      <!-- 0 -->
      <defs>
       <path d="M 31.78125 66.40625 
Q 24.171875 66.40625 20.328125 58.90625 
Q 16.5 51.421875 16.5 36.375 
Q 16.5 21.390625 20.328125 13.890625 
Q 24.171875 6.390625 31.78125 6.390625 
Q 39.453125 6.390625 43.28125 13.890625 
Q 47.125 21.390625 47.125 36.375 
Q 47.125 51.421875 43.28125 58.90625 
Q 39.453125 66.40625 31.78125 66.40625 
z
M 31.78125 74.21875 
Q 44.046875 74.21875 50.515625 64.515625 
Q 56.984375 54.828125 56.984375 36.375 
Q 56.984375 17.96875 50.515625 8.265625 
Q 44.046875 -1.421875 31.78125 -1.421875 
Q 19.53125 -1.421875 13.0625 8.265625 
Q 6.59375 17.96875 6.59375 36.375 
Q 6.59375 54.828125 13.0625 64.515625 
Q 19.53125 74.21875 31.78125 74.21875 
z
" id="DejaVuSans-48"/>
      </defs>
      <g transform="translate(70.651477 322.182437)scale(0.1 -0.1)">
       <use xlink:href="#DejaVuSans-48"/>
      </g>
     </g>
    </g>
    <g id="xtick_2">
     <g id="line2d_2">
      <g>
       <use style="stroke:#000000;stroke-width:0.8;" x="128.122785" xlink:href="#mcd2f3dd01b" y="307.584"/>
      </g>
     </g>
     <g id="text_2">
      <!-- 50 -->
      <defs>
       <path d="M 10.796875 72.90625 
L 49.515625 72.90625 
L 49.515625 64.59375 
L 19.828125 64.59375 
L 19.828125 46.734375 
Q 21.96875 47.46875 24.109375 47.828125 
Q 26.265625 48.1875 28.421875 48.1875 
Q 40.625 48.1875 47.75 41.5 
Q 54.890625 34.8125 54.890625 23.390625 
Q 54.890625 11.625 47.5625 5.09375 
Q 40.234375 -1.421875 26.90625 -1.421875 
Q 22.3125 -1.421875 17.546875 -0.640625 
Q 12.796875 0.140625 7.71875 1.703125 
L 7.71875 11.625 
Q 12.109375 9.234375 16.796875 8.0625 
Q 21.484375 6.890625 26.703125 6.890625 
Q 35.15625 6.890625 40.078125 11.328125 
Q 45.015625 15.765625 45.015625 23.390625 
Q 45.015625 31 40.078125 35.4375 
Q 35.15625 39.890625 26.703125 39.890625 
Q 22.75 39.890625 18.8125 39.015625 
Q 14.890625 38.140625 10.796875 36.28125 
z
" id="DejaVuSans-53"/>
      </defs>
      <g transform="translate(121.760285 322.182437)scale(0.1 -0.1)">
       <use xlink:href="#DejaVuSans-53"/>
       <use x="63.623047" xlink:href="#DejaVuSans-48"/>
      </g>
     </g>
    </g>
    <g id="xtick_3">
     <g id="line2d_3">
      <g>
       <use style="stroke:#000000;stroke-width:0.8;" x="182.412843" xlink:href="#mcd2f3dd01b" y="307.584"/>
      </g>
     </g>
     <g id="text_3">
      <!-- 100 -->
      <defs>
       <path d="M 12.40625 8.296875 
L 28.515625 8.296875 
L 28.515625 63.921875 
L 10.984375 60.40625 
L 10.984375 69.390625 
L 28.421875 72.90625 
L 38.28125 72.90625 
L 38.28125 8.296875 
L 54.390625 8.296875 
L 54.390625 0 
L 12.40625 0 
z
" id="DejaVuSans-49"/>
      </defs>
      <g transform="translate(172.869093 322.182437)scale(0.1 -0.1)">
       <use xlink:href="#DejaVuSans-49"/>
       <use x="63.623047" xlink:href="#DejaVuSans-48"/>
       <use x="127.246094" xlink:href="#DejaVuSans-48"/>
      </g>
     </g>
    </g>
    <g id="xtick_4">
     <g id="line2d_4">
      <g>
       <use style="stroke:#000000;stroke-width:0.8;" x="236.702901" xlink:href="#mcd2f3dd01b" y="307.584"/>
      </g>
     </g>
     <g id="text_4">
      <!-- 150 -->
      <g transform="translate(227.159151 322.182437)scale(0.1 -0.1)">
       <use xlink:href="#DejaVuSans-49"/>
       <use x="63.623047" xlink:href="#DejaVuSans-53"/>
       <use x="127.246094" xlink:href="#DejaVuSans-48"/>
      </g>
     </g>
    </g>
    <g id="xtick_5">
     <g id="line2d_5">
      <g>
       <use style="stroke:#000000;stroke-width:0.8;" x="290.992958" xlink:href="#mcd2f3dd01b" y="307.584"/>
      </g>
     </g>
     <g id="text_5">
      <!-- 200 -->
      <defs>
       <path d="M 19.1875 8.296875 
L 53.609375 8.296875 
L 53.609375 0 
L 7.328125 0 
L 7.328125 8.296875 
Q 12.9375 14.109375 22.625 23.890625 
Q 32.328125 33.6875 34.8125 36.53125 
Q 39.546875 41.84375 41.421875 45.53125 
Q 43.3125 49.21875 43.3125 52.78125 
Q 43.3125 58.59375 39.234375 62.25 
Q 35.15625 65.921875 28.609375 65.921875 
Q 23.96875 65.921875 18.8125 64.3125 
Q 13.671875 62.703125 7.8125 59.421875 
L 7.8125 69.390625 
Q 13.765625 71.78125 18.9375 73 
Q 24.125 74.21875 28.421875 74.21875 
Q 39.75 74.21875 46.484375 68.546875 
Q 53.21875 62.890625 53.21875 53.421875 
Q 53.21875 48.921875 51.53125 44.890625 
Q 49.859375 40.875 45.40625 35.40625 
Q 44.1875 33.984375 37.640625 27.21875 
Q 31.109375 20.453125 19.1875 8.296875 
z
" id="DejaVuSans-50"/>
      </defs>
      <g transform="translate(281.449208 322.182437)scale(0.1 -0.1)">
       <use xlink:href="#DejaVuSans-50"/>
       <use x="63.623047" xlink:href="#DejaVuSans-48"/>
       <use x="127.246094" xlink:href="#DejaVuSans-48"/>
      </g>
     </g>
    </g>
    <g id="xtick_6">
     <g id="line2d_6">
      <g>
       <use style="stroke:#000000;stroke-width:0.8;" x="345.283016" xlink:href="#mcd2f3dd01b" y="307.584"/>
      </g>
     </g>
     <g id="text_6">
      <!-- 250 -->
      <g transform="translate(335.739266 322.182437)scale(0.1 -0.1)">
       <use xlink:href="#DejaVuSans-50"/>
       <use x="63.623047" xlink:href="#DejaVuSans-53"/>
       <use x="127.246094" xlink:href="#DejaVuSans-48"/>
      </g>
     </g>
    </g>
    <g id="xtick_7">
     <g id="line2d_7">
      <g>
       <use style="stroke:#000000;stroke-width:0.8;" x="399.573074" xlink:href="#mcd2f3dd01b" y="307.584"/>
      </g>
     </g>
     <g id="text_7">
      <!-- 300 -->
      <defs>
       <path d="M 40.578125 39.3125 
Q 47.65625 37.796875 51.625 33 
Q 55.609375 28.21875 55.609375 21.1875 
Q 55.609375 10.40625 48.1875 4.484375 
Q 40.765625 -1.421875 27.09375 -1.421875 
Q 22.515625 -1.421875 17.65625 -0.515625 
Q 12.796875 0.390625 7.625 2.203125 
L 7.625 11.71875 
Q 11.71875 9.328125 16.59375 8.109375 
Q 21.484375 6.890625 26.8125 6.890625 
Q 36.078125 6.890625 40.9375 10.546875 
Q 45.796875 14.203125 45.796875 21.1875 
Q 45.796875 27.640625 41.28125 31.265625 
Q 36.765625 34.90625 28.71875 34.90625 
L 20.21875 34.90625 
L 20.21875 43.015625 
L 29.109375 43.015625 
Q 36.375 43.015625 40.234375 45.921875 
Q 44.09375 48.828125 44.09375 54.296875 
Q 44.09375 59.90625 40.109375 62.90625 
Q 36.140625 65.921875 28.71875 65.921875 
Q 24.65625 65.921875 20.015625 65.03125 
Q 15.375 64.15625 9.8125 62.3125 
L 9.8125 71.09375 
Q 15.4375 72.65625 20.34375 73.4375 
Q 25.25 74.21875 29.59375 74.21875 
Q 40.828125 74.21875 47.359375 69.109375 
Q 53.90625 64.015625 53.90625 55.328125 
Q 53.90625 49.265625 50.4375 45.09375 
Q 46.96875 40.921875 40.578125 39.3125 
z
" id="DejaVuSans-51"/>
      </defs>
      <g transform="translate(390.029324 322.182437)scale(0.1 -0.1)">
       <use xlink:href="#DejaVuSans-51"/>
       <use x="63.623047" xlink:href="#DejaVuSans-48"/>
       <use x="127.246094" xlink:href="#DejaVuSans-48"/>
      </g>
     </g>
    </g>
   </g>
   <g id="matplotlib.axis_2">
    <g id="ytick_1">
     <g id="line2d_8">
      <defs>
       <path d="M 0 0 
L -3.5 0 
" id="m45480f831b" style="stroke:#000000;stroke-width:0.8;"/>
      </defs>
      <g>
       <use style="stroke:#000000;stroke-width:0.8;" x="57.6" xlink:href="#m45480f831b" y="298.522692"/>
      </g>
     </g>
     <g id="text_8">
      <!-- 0.4 -->
      <defs>
       <path d="M 10.6875 12.40625 
L 21 12.40625 
L 21 0 
L 10.6875 0 
z
" id="DejaVuSans-46"/>
       <path d="M 37.796875 64.3125 
L 12.890625 25.390625 
L 37.796875 25.390625 
z
M 35.203125 72.90625 
L 47.609375 72.90625 
L 47.609375 25.390625 
L 58.015625 25.390625 
L 58.015625 17.1875 
L 47.609375 17.1875 
L 47.609375 0 
L 37.796875 0 
L 37.796875 17.1875 
L 4.890625 17.1875 
L 4.890625 26.703125 
z
" id="DejaVuSans-52"/>
      </defs>
      <g transform="translate(34.696875 302.32191)scale(0.1 -0.1)">
       <use xlink:href="#DejaVuSans-48"/>
       <use x="63.623047" xlink:href="#DejaVuSans-46"/>
       <use x="95.410156" xlink:href="#DejaVuSans-52"/>
      </g>
     </g>
    </g>
    <g id="ytick_2">
     <g id="line2d_9">
      <g>
       <use style="stroke:#000000;stroke-width:0.8;" x="57.6" xlink:href="#m45480f831b" y="263.500567"/>
      </g>
     </g>
     <g id="text_9">
      <!-- 0.6 -->
      <defs>
       <path d="M 33.015625 40.375 
Q 26.375 40.375 22.484375 35.828125 
Q 18.609375 31.296875 18.609375 23.390625 
Q 18.609375 15.53125 22.484375 10.953125 
Q 26.375 6.390625 33.015625 6.390625 
Q 39.65625 6.390625 43.53125 10.953125 
Q 47.40625 15.53125 47.40625 23.390625 
Q 47.40625 31.296875 43.53125 35.828125 
Q 39.65625 40.375 33.015625 40.375 
z
M 52.59375 71.296875 
L 52.59375 62.3125 
Q 48.875 64.0625 45.09375 64.984375 
Q 41.3125 65.921875 37.59375 65.921875 
Q 27.828125 65.921875 22.671875 59.328125 
Q 17.53125 52.734375 16.796875 39.40625 
Q 19.671875 43.65625 24.015625 45.921875 
Q 28.375 48.1875 33.59375 48.1875 
Q 44.578125 48.1875 50.953125 41.515625 
Q 57.328125 34.859375 57.328125 23.390625 
Q 57.328125 12.15625 50.6875 5.359375 
Q 44.046875 -1.421875 33.015625 -1.421875 
Q 20.359375 -1.421875 13.671875 8.265625 
Q 6.984375 17.96875 6.984375 36.375 
Q 6.984375 53.65625 15.1875 63.9375 
Q 23.390625 74.21875 37.203125 74.21875 
Q 40.921875 74.21875 44.703125 73.484375 
Q 48.484375 72.75 52.59375 71.296875 
z
" id="DejaVuSans-54"/>
      </defs>
      <g transform="translate(34.696875 267.299786)scale(0.1 -0.1)">
       <use xlink:href="#DejaVuSans-48"/>
       <use x="63.623047" xlink:href="#DejaVuSans-46"/>
       <use x="95.410156" xlink:href="#DejaVuSans-54"/>
      </g>
     </g>
    </g>
    <g id="ytick_3">
     <g id="line2d_10">
      <g>
       <use style="stroke:#000000;stroke-width:0.8;" x="57.6" xlink:href="#m45480f831b" y="228.478443"/>
      </g>
     </g>
     <g id="text_10">
      <!-- 0.8 -->
      <defs>
       <path d="M 31.78125 34.625 
Q 24.75 34.625 20.71875 30.859375 
Q 16.703125 27.09375 16.703125 20.515625 
Q 16.703125 13.921875 20.71875 10.15625 
Q 24.75 6.390625 31.78125 6.390625 
Q 38.8125 6.390625 42.859375 10.171875 
Q 46.921875 13.96875 46.921875 20.515625 
Q 46.921875 27.09375 42.890625 30.859375 
Q 38.875 34.625 31.78125 34.625 
z
M 21.921875 38.8125 
Q 15.578125 40.375 12.03125 44.71875 
Q 8.5 49.078125 8.5 55.328125 
Q 8.5 64.0625 14.71875 69.140625 
Q 20.953125 74.21875 31.78125 74.21875 
Q 42.671875 74.21875 48.875 69.140625 
Q 55.078125 64.0625 55.078125 55.328125 
Q 55.078125 49.078125 51.53125 44.71875 
Q 48 40.375 41.703125 38.8125 
Q 48.828125 37.15625 52.796875 32.3125 
Q 56.78125 27.484375 56.78125 20.515625 
Q 56.78125 9.90625 50.3125 4.234375 
Q 43.84375 -1.421875 31.78125 -1.421875 
Q 19.734375 -1.421875 13.25 4.234375 
Q 6.78125 9.90625 6.78125 20.515625 
Q 6.78125 27.484375 10.78125 32.3125 
Q 14.796875 37.15625 21.921875 38.8125 
z
M 18.3125 54.390625 
Q 18.3125 48.734375 21.84375 45.5625 
Q 25.390625 42.390625 31.78125 42.390625 
Q 38.140625 42.390625 41.71875 45.5625 
Q 45.3125 48.734375 45.3125 54.390625 
Q 45.3125 60.0625 41.71875 63.234375 
Q 38.140625 66.40625 31.78125 66.40625 
Q 25.390625 66.40625 21.84375 63.234375 
Q 18.3125 60.0625 18.3125 54.390625 
z
" id="DejaVuSans-56"/>
      </defs>
      <g transform="translate(34.696875 232.277662)scale(0.1 -0.1)">
       <use xlink:href="#DejaVuSans-48"/>
       <use x="63.623047" xlink:href="#DejaVuSans-46"/>
       <use x="95.410156" xlink:href="#DejaVuSans-56"/>
      </g>
     </g>
    </g>
    <g id="ytick_4">
     <g id="line2d_11">
      <g>
       <use style="stroke:#000000;stroke-width:0.8;" x="57.6" xlink:href="#m45480f831b" y="193.456319"/>
      </g>
     </g>
     <g id="text_11">
      <!-- 1.0 -->
      <g transform="translate(34.696875 197.255538)scale(0.1 -0.1)">
       <use xlink:href="#DejaVuSans-49"/>
       <use x="63.623047" xlink:href="#DejaVuSans-46"/>
       <use x="95.410156" xlink:href="#DejaVuSans-48"/>
      </g>
     </g>
    </g>
    <g id="ytick_5">
     <g id="line2d_12">
      <g>
       <use style="stroke:#000000;stroke-width:0.8;" x="57.6" xlink:href="#m45480f831b" y="158.434195"/>
      </g>
     </g>
     <g id="text_12">
      <!-- 1.2 -->
      <g transform="translate(34.696875 162.233413)scale(0.1 -0.1)">
       <use xlink:href="#DejaVuSans-49"/>
       <use x="63.623047" xlink:href="#DejaVuSans-46"/>
       <use x="95.410156" xlink:href="#DejaVuSans-50"/>
      </g>
     </g>
    </g>
    <g id="ytick_6">
     <g id="line2d_13">
      <g>
       <use style="stroke:#000000;stroke-width:0.8;" x="57.6" xlink:href="#m45480f831b" y="123.41207"/>
      </g>
     </g>
     <g id="text_13">
      <!-- 1.4 -->
      <g transform="translate(34.696875 127.211289)scale(0.1 -0.1)">
       <use xlink:href="#DejaVuSans-49"/>
       <use x="63.623047" xlink:href="#DejaVuSans-46"/>
       <use x="95.410156" xlink:href="#DejaVuSans-52"/>
      </g>
     </g>
    </g>
    <g id="ytick_7">
     <g id="line2d_14">
      <g>
       <use style="stroke:#000000;stroke-width:0.8;" x="57.6" xlink:href="#m45480f831b" y="88.389946"/>
      </g>
     </g>
     <g id="text_14">
      <!-- 1.6 -->
      <g transform="translate(34.696875 92.189165)scale(0.1 -0.1)">
       <use xlink:href="#DejaVuSans-49"/>
       <use x="63.623047" xlink:href="#DejaVuSans-46"/>
       <use x="95.410156" xlink:href="#DejaVuSans-54"/>
      </g>
     </g>
    </g>
    <g id="ytick_8">
     <g id="line2d_15">
      <g>
       <use style="stroke:#000000;stroke-width:0.8;" x="57.6" xlink:href="#m45480f831b" y="53.367822"/>
      </g>
     </g>
     <g id="text_15">
      <!-- 1.8 -->
      <g transform="translate(34.696875 57.16704)scale(0.1 -0.1)">
       <use xlink:href="#DejaVuSans-49"/>
       <use x="63.623047" xlink:href="#DejaVuSans-46"/>
       <use x="95.410156" xlink:href="#DejaVuSans-56"/>
      </g>
     </g>
    </g>
    <g id="text_16">
     <!-- Distance -->
     <defs>
      <path d="M 19.671875 64.796875 
L 19.671875 8.109375 
L 31.59375 8.109375 
Q 46.6875 8.109375 53.6875 14.9375 
Q 60.6875 21.78125 60.6875 36.53125 
Q 60.6875 51.171875 53.6875 57.984375 
Q 46.6875 64.796875 31.59375 64.796875 
z
M 9.8125 72.90625 
L 30.078125 72.90625 
Q 51.265625 72.90625 61.171875 64.09375 
Q 71.09375 55.28125 71.09375 36.53125 
Q 71.09375 17.671875 61.125 8.828125 
Q 51.171875 0 30.078125 0 
L 9.8125 0 
z
" id="DejaVuSans-68"/>
      <path d="M 9.421875 54.6875 
L 18.40625 54.6875 
L 18.40625 0 
L 9.421875 0 
z
M 9.421875 75.984375 
L 18.40625 75.984375 
L 18.40625 64.59375 
L 9.421875 64.59375 
z
" id="DejaVuSans-105"/>
      <path d="M 44.28125 53.078125 
L 44.28125 44.578125 
Q 40.484375 46.53125 36.375 47.5 
Q 32.28125 48.484375 27.875 48.484375 
Q 21.1875 48.484375 17.84375 46.4375 
Q 14.5 44.390625 14.5 40.28125 
Q 14.5 37.15625 16.890625 35.375 
Q 19.28125 33.59375 26.515625 31.984375 
L 29.59375 31.296875 
Q 39.15625 29.25 43.1875 25.515625 
Q 47.21875 21.78125 47.21875 15.09375 
Q 47.21875 7.46875 41.1875 3.015625 
Q 35.15625 -1.421875 24.609375 -1.421875 
Q 20.21875 -1.421875 15.453125 -0.5625 
Q 10.6875 0.296875 5.421875 2 
L 5.421875 11.28125 
Q 10.40625 8.6875 15.234375 7.390625 
Q 20.0625 6.109375 24.8125 6.109375 
Q 31.15625 6.109375 34.5625 8.28125 
Q 37.984375 10.453125 37.984375 14.40625 
Q 37.984375 18.0625 35.515625 20.015625 
Q 33.0625 21.96875 24.703125 23.78125 
L 21.578125 24.515625 
Q 13.234375 26.265625 9.515625 29.90625 
Q 5.8125 33.546875 5.8125 39.890625 
Q 5.8125 47.609375 11.28125 51.796875 
Q 16.75 56 26.8125 56 
Q 31.78125 56 36.171875 55.265625 
Q 40.578125 54.546875 44.28125 53.078125 
z
" id="DejaVuSans-115"/>
      <path d="M 18.3125 70.21875 
L 18.3125 54.6875 
L 36.8125 54.6875 
L 36.8125 47.703125 
L 18.3125 47.703125 
L 18.3125 18.015625 
Q 18.3125 11.328125 20.140625 9.421875 
Q 21.96875 7.515625 27.59375 7.515625 
L 36.8125 7.515625 
L 36.8125 0 
L 27.59375 0 
Q 17.1875 0 13.234375 3.875 
Q 9.28125 7.765625 9.28125 18.015625 
L 9.28125 47.703125 
L 2.6875 47.703125 
L 2.6875 54.6875 
L 9.28125 54.6875 
L 9.28125 70.21875 
z
" id="DejaVuSans-116"/>
      <path d="M 34.28125 27.484375 
Q 23.390625 27.484375 19.1875 25 
Q 14.984375 22.515625 14.984375 16.5 
Q 14.984375 11.71875 18.140625 8.90625 
Q 21.296875 6.109375 26.703125 6.109375 
Q 34.1875 6.109375 38.703125 11.40625 
Q 43.21875 16.703125 43.21875 25.484375 
L 43.21875 27.484375 
z
M 52.203125 31.203125 
L 52.203125 0 
L 43.21875 0 
L 43.21875 8.296875 
Q 40.140625 3.328125 35.546875 0.953125 
Q 30.953125 -1.421875 24.3125 -1.421875 
Q 15.921875 -1.421875 10.953125 3.296875 
Q 6 8.015625 6 15.921875 
Q 6 25.140625 12.171875 29.828125 
Q 18.359375 34.515625 30.609375 34.515625 
L 43.21875 34.515625 
L 43.21875 35.40625 
Q 43.21875 41.609375 39.140625 45 
Q 35.0625 48.390625 27.6875 48.390625 
Q 23 48.390625 18.546875 47.265625 
Q 14.109375 46.140625 10.015625 43.890625 
L 10.015625 52.203125 
Q 14.9375 54.109375 19.578125 55.046875 
Q 24.21875 56 28.609375 56 
Q 40.484375 56 46.34375 49.84375 
Q 52.203125 43.703125 52.203125 31.203125 
z
" id="DejaVuSans-97"/>
      <path d="M 54.890625 33.015625 
L 54.890625 0 
L 45.90625 0 
L 45.90625 32.71875 
Q 45.90625 40.484375 42.875 44.328125 
Q 39.84375 48.1875 33.796875 48.1875 
Q 26.515625 48.1875 22.3125 43.546875 
Q 18.109375 38.921875 18.109375 30.90625 
L 18.109375 0 
L 9.078125 0 
L 9.078125 54.6875 
L 18.109375 54.6875 
L 18.109375 46.1875 
Q 21.34375 51.125 25.703125 53.5625 
Q 30.078125 56 35.796875 56 
Q 45.21875 56 50.046875 50.171875 
Q 54.890625 44.34375 54.890625 33.015625 
z
" id="DejaVuSans-110"/>
      <path d="M 48.78125 52.59375 
L 48.78125 44.1875 
Q 44.96875 46.296875 41.140625 47.34375 
Q 37.3125 48.390625 33.40625 48.390625 
Q 24.65625 48.390625 19.8125 42.84375 
Q 14.984375 37.3125 14.984375 27.296875 
Q 14.984375 17.28125 19.8125 11.734375 
Q 24.65625 6.203125 33.40625 6.203125 
Q 37.3125 6.203125 41.140625 7.25 
Q 44.96875 8.296875 48.78125 10.40625 
L 48.78125 2.09375 
Q 45.015625 0.34375 40.984375 -0.53125 
Q 36.96875 -1.421875 32.421875 -1.421875 
Q 20.0625 -1.421875 12.78125 6.34375 
Q 5.515625 14.109375 5.515625 27.296875 
Q 5.515625 40.671875 12.859375 48.328125 
Q 20.21875 56 33.015625 56 
Q 37.15625 56 41.109375 55.140625 
Q 45.0625 54.296875 48.78125 52.59375 
z
" id="DejaVuSans-99"/>
      <path d="M 56.203125 29.59375 
L 56.203125 25.203125 
L 14.890625 25.203125 
Q 15.484375 15.921875 20.484375 11.0625 
Q 25.484375 6.203125 34.421875 6.203125 
Q 39.59375 6.203125 44.453125 7.46875 
Q 49.3125 8.734375 54.109375 11.28125 
L 54.109375 2.78125 
Q 49.265625 0.734375 44.1875 -0.34375 
Q 39.109375 -1.421875 33.890625 -1.421875 
Q 20.796875 -1.421875 13.15625 6.1875 
Q 5.515625 13.8125 5.515625 26.8125 
Q 5.515625 40.234375 12.765625 48.109375 
Q 20.015625 56 32.328125 56 
Q 43.359375 56 49.78125 48.890625 
Q 56.203125 41.796875 56.203125 29.59375 
z
M 47.21875 32.234375 
Q 47.125 39.59375 43.09375 43.984375 
Q 39.0625 48.390625 32.421875 48.390625 
Q 24.90625 48.390625 20.390625 44.140625 
Q 15.875 39.890625 15.1875 32.171875 
z
" id="DejaVuSans-101"/>
     </defs>
     <g transform="translate(28.617187 196.3905)rotate(-90)scale(0.1 -0.1)">
      <use xlink:href="#DejaVuSans-68"/>
      <use x="77.001953" xlink:href="#DejaVuSans-105"/>
      <use x="104.785156" xlink:href="#DejaVuSans-115"/>
      <use x="156.884766" xlink:href="#DejaVuSans-116"/>
      <use x="196.09375" xlink:href="#DejaVuSans-97"/>
      <use x="257.373047" xlink:href="#DejaVuSans-110"/>
      <use x="320.751953" xlink:href="#DejaVuSans-99"/>
      <use x="375.732422" xlink:href="#DejaVuSans-101"/>
     </g>
    </g>
   </g>
   <g id="line2d_16">
    <path clip-path="url(#p3c35590dee)" d="M 73.832727 59.432695 
L 74.918528 89.945722 
L 76.00433 99.752525 
L 77.090131 119.310075 
L 78.175932 108.829477 
L 79.261733 149.107294 
L 80.347534 167.225542 
L 81.433335 176.616963 
L 82.519137 177.547481 
L 83.604938 177.571452 
L 84.690739 168.796949 
L 85.77654 158.651601 
L 86.862341 156.40019 
L 87.948142 153.106626 
L 89.033943 147.348143 
L 90.119745 121.893746 
L 91.205546 143.294971 
L 92.291347 136.675519 
L 93.377148 138.037191 
L 94.462949 126.37941 
L 95.54875 142.357493 
L 96.634552 140.047334 
L 97.720353 134.874937 
L 98.806154 151.550948 
L 99.891955 204.494748 
L 100.977756 208.690233 
L 102.063557 256.118014 
L 103.149358 225.065377 
L 104.23516 185.916851 
L 105.320961 196.553623 
L 106.406762 178.651056 
L 107.492563 205.734776 
L 108.578364 228.133487 
L 109.664165 212.556971 
L 110.749967 243.136243 
L 111.835768 254.714516 
L 112.921569 246.423173 
L 114.00737 239.22066 
L 115.093171 221.043209 
L 116.178972 253.874235 
L 118.350575 245.12175 
L 120.522177 213.506231 
L 121.607978 206.064286 
L 122.693779 186.979717 
L 123.77958 209.14141 
L 125.951183 233.270194 
L 127.036984 263.418973 
L 128.122785 256.125674 
L 129.208586 234.795276 
L 130.294387 241.270701 
L 131.380189 212.092559 
L 132.46599 202.163365 
L 133.551791 201.269437 
L 134.637592 219.628002 
L 135.723393 203.4046 
L 136.809194 167.207162 
L 137.894995 157.589977 
L 138.980797 157.070215 
L 140.066598 190.168652 
L 141.152399 176.189567 
L 142.2382 170.605714 
L 143.324001 202.278608 
L 144.409802 211.43039 
L 145.495604 198.045914 
L 146.581405 207.751617 
L 147.667206 182.564139 
L 148.753007 211.580458 
L 149.838808 231.808575 
L 150.924609 220.973245 
L 152.01041 213.14933 
L 153.096212 191.945325 
L 154.182013 187.658091 
L 155.267814 170.835679 
L 156.353615 195.320905 
L 157.439416 180.41014 
L 158.525217 192.401616 
L 159.611019 215.589512 
L 160.69682 232.52044 
L 161.782621 219.55513 
L 162.868422 171.50525 
L 163.954223 201.129255 
L 165.040024 194.364102 
L 166.125825 250.247257 
L 167.211627 234.961944 
L 168.297428 204.062689 
L 169.383229 201.115783 
L 170.46903 231.450371 
L 171.554831 197.366024 
L 172.640632 199.0718 
L 173.726434 202.10773 
L 174.812235 176.045447 
L 175.898036 176.176542 
L 176.983837 152.693101 
L 178.069638 181.354177 
L 179.155439 177.898975 
L 180.24124 142.270664 
L 181.327042 154.825492 
L 182.412843 159.208212 
L 183.498644 162.747202 
L 184.584445 138.037 
L 185.670246 162.800126 
L 186.756047 158.218367 
L 187.841849 177.254233 
L 188.92765 199.930667 
L 191.099252 172.468559 
L 192.185053 181.173172 
L 193.270854 197.959983 
L 194.356656 156.288684 
L 195.442457 172.976107 
L 196.528258 179.284195 
L 197.614059 168.037472 
L 198.69986 171.239174 
L 199.785661 179.894073 
L 200.871462 219.657502 
L 201.957264 233.440864 
L 203.043065 217.670937 
L 204.128866 191.092231 
L 205.214667 196.688241 
L 206.300468 212.034802 
L 207.386269 219.901965 
L 208.472071 175.545752 
L 209.557872 183.265198 
L 210.643673 188.944712 
L 211.729474 211.13816 
L 212.815275 188.451958 
L 213.901076 176.138343 
L 214.986877 156.148183 
L 216.072679 161.141592 
L 217.15848 211.857877 
L 218.244281 215.994033 
L 219.330082 213.602555 
L 220.415883 212.287217 
L 221.501684 207.400734 
L 222.587486 204.551188 
L 223.673287 187.292933 
L 224.759088 181.890974 
L 225.844889 186.539655 
L 226.93069 167.029023 
L 228.016491 170.289538 
L 229.102292 164.593187 
L 230.188094 186.385334 
L 231.273895 187.400108 
L 232.359696 233.759408 
L 233.445497 219.049813 
L 234.531298 201.980435 
L 235.617099 190.204906 
L 236.702901 181.816825 
L 237.788702 185.22541 
L 238.874503 194.475533 
L 239.960304 186.721031 
L 241.046105 211.82533 
L 242.131906 209.357511 
L 243.217708 181.618148 
L 244.303509 185.640941 
L 245.38931 170.386389 
L 246.475111 145.021869 
L 247.560912 161.86243 
L 248.646713 195.548865 
L 249.732514 223.333444 
L 250.818316 223.719307 
L 251.904117 249.309243 
L 252.989918 225.576393 
L 254.075719 241.263125 
L 255.16152 216.444438 
L 256.247321 233.93316 
L 257.333123 243.806079 
L 258.418924 248.813268 
L 259.504725 245.154959 
L 260.590526 231.269906 
L 261.676327 269.73508 
L 262.762128 256.054481 
L 263.847929 255.836397 
L 264.933731 275.654362 
L 266.019532 255.828452 
L 267.105333 272.980294 
L 268.191134 259.603878 
L 269.276935 271.667263 
L 270.362736 251.467869 
L 271.448538 236.098682 
L 273.62014 222.211763 
L 274.705941 224.320368 
L 275.791742 197.391153 
L 276.877543 213.40915 
L 277.963344 215.394974 
L 279.049146 221.585966 
L 280.134947 221.89769 
L 281.220748 224.460282 
L 282.306549 216.465424 
L 283.39235 258.361326 
L 284.478151 226.334787 
L 285.563953 218.571767 
L 286.649754 264.433694 
L 287.735555 249.638106 
L 288.821356 218.254659 
L 289.907157 268.565816 
L 290.992958 224.355817 
L 292.07876 238.132677 
L 293.164561 204.559017 
L 294.250362 223.944567 
L 295.336163 193.737577 
L 296.421964 254.072754 
L 297.507765 265.080122 
L 298.593566 220.804865 
L 299.679368 259.693722 
L 300.765169 204.09811 
L 301.85097 220.054828 
L 302.936771 218.79089 
L 304.022572 233.716624 
L 306.194175 244.33576 
L 307.279976 252.908599 
L 308.365777 254.248521 
L 309.451578 253.572809 
L 310.537379 244.071715 
L 311.62318 202.910685 
L 312.708981 219.583111 
L 313.794783 199.69826 
L 314.880584 206.438202 
L 315.966385 206.31184 
L 317.052186 202.581778 
L 318.137987 217.938126 
L 319.223788 223.231795 
L 320.30959 225.140738 
L 321.395391 213.410141 
L 322.481192 222.129993 
L 323.566993 224.584893 
L 324.652794 187.809763 
L 325.738595 180.133416 
L 326.824396 183.989295 
L 327.910198 175.868215 
L 328.995999 206.243859 
L 330.0818 179.282652 
L 331.167601 187.354663 
L 332.253402 207.963755 
L 333.339203 190.470557 
L 334.425005 182.934347 
L 335.510806 170.468204 
L 336.596607 146.320032 
L 337.682408 150.990037 
L 338.768209 121.095951 
L 339.85401 115.82636 
L 340.939811 153.599706 
L 342.025613 148.642787 
L 343.111414 160.212022 
L 344.197215 190.287176 
L 345.283016 170.433955 
L 346.368817 173.137656 
L 347.454618 171.341711 
L 348.54042 172.867605 
L 349.626221 173.641908 
L 350.712022 186.333708 
L 351.797823 201.226826 
L 352.883624 181.112189 
L 353.969425 188.067412 
L 355.055227 207.128738 
L 356.141028 187.174093 
L 358.31263 234.63902 
L 359.398431 185.56973 
L 360.484232 195.891707 
L 361.570033 183.677155 
L 362.655835 194.181873 
L 363.741636 202.547662 
L 364.827437 247.018333 
L 365.913238 207.346152 
L 366.999039 224.074941 
L 368.08484 200.281175 
L 369.170642 170.878706 
L 371.342244 149.939562 
L 373.513846 158.190633 
L 374.599647 194.216882 
L 375.685448 183.12849 
L 376.77125 174.028657 
L 377.857051 184.279949 
L 378.942852 177.302187 
L 380.028653 164.793089 
L 381.114454 146.27731 
L 382.200255 145.717258 
L 383.286057 148.086513 
L 384.371858 163.667136 
L 385.457659 159.684604 
L 386.54346 156.136219 
L 387.629261 198.115911 
L 388.715062 190.554585 
L 389.800863 192.986234 
L 390.886665 193.276698 
L 391.972466 194.351252 
L 393.058267 193.783241 
L 394.144068 238.07172 
L 395.229869 199.86677 
L 396.31567 196.483149 
L 397.401472 195.156615 
L 398.487273 203.008436 
L 398.487273 203.008436 
" style="fill:none;stroke:#0000ff;stroke-linecap:square;stroke-width:1.5;"/>
   </g>
   <g id="patch_3">
    <path d="M 57.6 307.584 
L 57.6 41.472 
" style="fill:none;stroke:#000000;stroke-linecap:square;stroke-linejoin:miter;stroke-width:0.8;"/>
   </g>
   <g id="patch_4">
    <path d="M 414.72 307.584 
L 414.72 41.472 
" style="fill:none;stroke:#000000;stroke-linecap:square;stroke-linejoin:miter;stroke-width:0.8;"/>
   </g>
   <g id="patch_5">
    <path d="M 57.6 307.584 
L 414.72 307.584 
" style="fill:none;stroke:#000000;stroke-linecap:square;stroke-linejoin:miter;stroke-width:0.8;"/>
   </g>
   <g id="patch_6">
    <path d="M 57.6 41.472 
L 414.72 41.472 
" style="fill:none;stroke:#000000;stroke-linecap:square;stroke-linejoin:miter;stroke-width:0.8;"/>
   </g>
  </g>
  <g id="axes_2">
   <g id="PolyCollection_2">
    <path clip-path="url(#p3c35590dee)" d="M 73.832727 53.568 
L 73.832727 257.619877 
L 74.918528 268.767233 
L 76.00433 273.316509 
L 77.090131 272.658527 
L 78.175932 275.298335 
L 79.261733 283.828154 
L 80.347534 280.619491 
L 81.433335 285.610626 
L 82.519137 283.440031 
L 83.604938 282.460637 
L 84.690739 279.592657 
L 85.77654 278.305024 
L 86.862341 272.23626 
L 87.948142 273.706343 
L 89.033943 279.689003 
L 90.119745 270.734708 
L 91.205546 271.575387 
L 92.291347 272.718149 
L 93.377148 273.35579 
L 94.462949 278.509689 
L 95.54875 279.408146 
L 96.634552 285.882811 
L 97.720353 286.483367 
L 98.806154 288.794996 
L 99.891955 293.117969 
L 100.977756 293.375077 
L 102.063557 293.706952 
L 103.149358 294.032701 
L 104.23516 292.659032 
L 105.320961 293.222158 
L 106.406762 293.817521 
L 107.492563 294.259842 
L 108.578364 293.917471 
L 109.664165 293.17227 
L 110.749967 292.658106 
L 111.835768 293.648733 
L 112.921569 293.758956 
L 114.00737 295.017587 
L 115.093171 294.49418 
L 116.178972 294.340411 
L 117.264773 294.974288 
L 118.350575 294.833584 
L 119.436376 294.707282 
L 120.522177 291.795793 
L 121.607978 294.048504 
L 122.693779 293.939512 
L 123.77958 294.133508 
L 124.865382 294.757711 
L 125.951183 295.038623 
L 127.036984 294.558167 
L 128.122785 293.837907 
L 129.208586 294.834772 
L 130.294387 294.553098 
L 131.380189 293.550213 
L 132.46599 292.092261 
L 133.551791 291.606502 
L 134.637592 291.193459 
L 135.723393 292.001216 
L 136.809194 290.826297 
L 137.894995 291.954745 
L 138.980797 290.909161 
L 140.066598 291.308413 
L 141.152399 291.458037 
L 142.2382 292.02165 
L 143.324001 292.155528 
L 144.409802 291.161484 
L 145.495604 288.563883 
L 146.581405 291.928701 
L 147.667206 290.849895 
L 148.753007 292.524389 
L 149.838808 294.675422 
L 150.924609 293.330849 
L 152.01041 292.494038 
L 153.096212 292.071923 
L 154.182013 290.524995 
L 155.267814 291.293858 
L 156.353615 293.163406 
L 157.439416 289.781669 
L 158.525217 292.2994 
L 159.611019 291.419571 
L 160.69682 294.537064 
L 161.782621 292.317673 
L 162.868422 290.36945 
L 163.954223 291.566149 
L 165.040024 293.550435 
L 166.125825 293.703574 
L 167.211627 292.931713 
L 168.297428 291.356318 
L 169.383229 290.932274 
L 170.46903 293.898068 
L 171.554831 290.442684 
L 172.640632 289.779696 
L 173.726434 286.562024 
L 174.812235 283.18871 
L 175.898036 282.919268 
L 176.983837 285.009507 
L 178.069638 289.261517 
L 179.155439 287.072009 
L 180.24124 286.967212 
L 181.327042 280.045884 
L 182.412843 280.177676 
L 183.498644 282.076725 
L 184.584445 280.519505 
L 185.670246 285.681965 
L 186.756047 287.129571 
L 187.841849 292.192356 
L 188.92765 292.654728 
L 190.013451 290.875774 
L 191.099252 289.406119 
L 192.185053 290.946565 
L 193.270854 292.083919 
L 194.356656 289.804925 
L 195.442457 290.949591 
L 196.528258 289.625133 
L 197.614059 289.294218 
L 198.69986 291.242055 
L 199.785661 290.735634 
L 200.871462 292.093825 
L 201.957264 292.452099 
L 203.043065 292.254717 
L 204.128866 290.786186 
L 205.214667 291.11426 
L 206.300468 293.585843 
L 207.386269 293.471701 
L 208.472071 291.326592 
L 209.557872 290.126068 
L 210.643673 291.780647 
L 211.729474 292.362589 
L 212.815275 291.796537 
L 213.901076 289.774476 
L 214.986877 288.503016 
L 216.072679 290.125589 
L 217.15848 291.964153 
L 218.244281 292.294145 
L 219.330082 292.515261 
L 220.415883 292.875501 
L 221.501684 292.495661 
L 222.587486 292.096934 
L 223.673287 290.122155 
L 224.759088 288.936103 
L 225.844889 289.229265 
L 226.93069 287.514485 
L 228.016491 291.370501 
L 229.102292 286.468597 
L 230.188094 286.295901 
L 231.273895 290.993796 
L 232.359696 293.065917 
L 233.445497 293.23465 
L 234.531298 291.973251 
L 235.617099 290.327595 
L 236.702901 287.11214 
L 237.788702 288.722038 
L 238.874503 289.317775 
L 239.960304 290.554114 
L 241.046105 288.987071 
L 242.131906 291.691256 
L 243.217708 289.609596 
L 244.303509 291.213221 
L 245.38931 290.052016 
L 246.475111 284.810149 
L 247.560912 287.022095 
L 248.646713 290.164254 
L 249.732514 292.692268 
L 250.818316 292.365273 
L 251.904117 292.739705 
L 252.989918 291.70617 
L 254.075719 292.91295 
L 255.16152 292.676572 
L 256.247321 292.943992 
L 257.333123 293.994154 
L 258.418924 293.89304 
L 259.504725 294.039903 
L 260.590526 294.283562 
L 261.676327 294.813184 
L 262.762128 293.984892 
L 263.847929 294.194969 
L 264.933731 295.488 
L 266.019532 293.416464 
L 267.105333 294.59618 
L 268.191134 294.76804 
L 269.276935 294.540111 
L 270.362736 295.249757 
L 271.448538 294.850913 
L 272.534339 294.076347 
L 273.62014 292.310279 
L 274.705941 293.713123 
L 275.791742 291.247767 
L 276.877543 292.719722 
L 277.963344 290.901172 
L 279.049146 293.141598 
L 280.134947 293.031578 
L 281.220748 290.343238 
L 282.306549 287.821549 
L 283.39235 289.71816 
L 284.478151 291.874834 
L 285.563953 291.941966 
L 286.649754 295.144726 
L 287.735555 294.357558 
L 288.821356 293.712089 
L 289.907157 295.013445 
L 290.992958 293.775168 
L 292.07876 294.850995 
L 293.164561 291.373495 
L 294.250362 292.953648 
L 295.336163 291.313787 
L 296.421964 292.597262 
L 297.507765 293.795949 
L 298.593566 292.466857 
L 299.679368 293.817867 
L 300.765169 292.377559 
L 301.85097 292.544354 
L 302.936771 293.764761 
L 304.022572 293.945994 
L 305.108373 295.27257 
L 306.194175 295.097247 
L 307.279976 294.639555 
L 308.365777 294.647998 
L 309.451578 294.019755 
L 310.537379 292.321516 
L 311.62318 289.866927 
L 312.708981 290.447543 
L 313.794783 290.160568 
L 314.880584 288.745038 
L 315.966385 290.93327 
L 317.052186 291.127434 
L 318.137987 291.820456 
L 319.223788 292.269463 
L 320.30959 292.886688 
L 321.395391 292.39612 
L 322.481192 291.688165 
L 323.566993 292.408442 
L 324.652794 288.238582 
L 325.738595 288.266725 
L 326.824396 287.618188 
L 327.910198 287.93372 
L 328.995999 290.255264 
L 330.0818 286.872696 
L 331.167601 285.141534 
L 332.253402 288.662165 
L 333.339203 288.144916 
L 334.425005 287.879908 
L 335.510806 283.394271 
L 336.596607 285.398918 
L 337.682408 284.753343 
L 338.768209 277.295683 
L 339.85401 279.146048 
L 340.939811 284.179482 
L 342.025613 286.176256 
L 343.111414 287.935069 
L 344.197215 287.409467 
L 345.283016 286.720397 
L 346.368817 284.556914 
L 347.454618 285.75372 
L 348.54042 285.124762 
L 349.626221 286.776451 
L 350.712022 282.244351 
L 351.797823 287.404393 
L 352.883624 285.104217 
L 353.969425 284.705106 
L 355.055227 285.591185 
L 356.141028 284.214807 
L 357.226829 286.220423 
L 358.31263 286.065538 
L 359.398431 286.585328 
L 360.484232 286.3015 
L 361.570033 289.942352 
L 362.655835 288.899199 
L 363.741636 290.535478 
L 364.827437 292.929657 
L 365.913238 291.656105 
L 366.999039 293.049974 
L 368.08484 290.850405 
L 369.170642 287.018689 
L 370.256443 286.247642 
L 371.342244 283.155222 
L 372.428045 283.874067 
L 373.513846 287.358341 
L 374.599647 290.360886 
L 375.685448 289.337935 
L 376.77125 288.439452 
L 377.857051 285.416809 
L 378.942852 287.528809 
L 380.028653 285.347036 
L 381.114454 276.453175 
L 382.200255 277.91083 
L 383.286057 279.595146 
L 384.371858 275.401534 
L 385.457659 279.97246 
L 386.54346 284.60321 
L 387.629261 289.284375 
L 388.715062 288.796126 
L 389.800863 288.915307 
L 390.886665 285.641888 
L 391.972466 289.707544 
L 393.058267 290.924858 
L 394.144068 293.484222 
L 395.229869 293.411585 
L 396.31567 292.592893 
L 397.401472 292.57142 
L 398.487273 292.411395 
L 398.487273 112.146083 
L 398.487273 112.146083 
L 397.401472 110.134932 
L 396.31567 109.264619 
L 395.229869 114.721878 
L 394.144068 119.745831 
L 393.058267 108.605006 
L 391.972466 101.484199 
L 390.886665 86.40976 
L 389.800863 98.395153 
L 388.715062 94.609926 
L 387.629261 98.789164 
L 386.54346 84.084686 
L 385.457659 71.067857 
L 384.371858 56.836877 
L 383.286057 66.827332 
L 382.200255 63.717108 
L 381.114454 64.04822 
L 380.028653 86.620663 
L 378.942852 96.797638 
L 377.857051 92.314194 
L 376.77125 99.922929 
L 375.685448 98.735489 
L 374.599647 104.176136 
L 373.513846 93.267143 
L 372.428045 84.826337 
L 371.342244 79.602139 
L 370.256443 88.715247 
L 369.170642 91.376132 
L 368.08484 113.560307 
L 366.999039 112.228634 
L 365.913238 109.672829 
L 364.827437 116.031686 
L 363.741636 107.512782 
L 362.655835 98.33349 
L 361.570033 100.479665 
L 360.484232 91.281361 
L 359.398431 85.009983 
L 358.31263 84.169397 
L 357.226829 87.085351 
L 356.141028 82.665166 
L 355.055227 87.624109 
L 353.969425 85.531296 
L 352.883624 82.709926 
L 351.797823 94.020178 
L 350.712022 76.193249 
L 349.626221 91.610853 
L 348.54042 88.099259 
L 347.454618 86.794444 
L 346.368817 80.327248 
L 345.283016 87.141365 
L 344.197215 91.575193 
L 343.111414 92.38168 
L 342.025613 84.143202 
L 340.939811 79.234975 
L 339.85401 68.583701 
L 338.768209 64.658895 
L 337.682408 82.532452 
L 336.596607 87.157147 
L 335.510806 81.964878 
L 334.425005 102.646415 
L 333.339203 97.406723 
L 332.253402 102.920012 
L 331.167601 91.18929 
L 330.0818 93.343848 
L 328.995999 103.652279 
L 327.910198 92.038836 
L 326.824396 90.816949 
L 325.738595 91.886126 
L 324.652794 93.214835 
L 323.566993 104.313423 
L 322.481192 104.639991 
L 321.395391 108.441416 
L 320.30959 107.698033 
L 319.223788 106.273713 
L 318.137987 106.650889 
L 317.052186 107.516089 
L 315.966385 102.764757 
L 314.880584 94.541678 
L 313.794783 96.504136 
L 312.708981 102.681678 
L 311.62318 97.74113 
L 310.537379 109.790663 
L 309.451578 116.061048 
L 308.365777 117.796096 
L 307.279976 121.956214 
L 306.194175 121.908664 
L 305.108373 119.238705 
L 304.022572 111.269664 
L 302.936771 117.781369 
L 301.85097 112.791225 
L 300.765169 119.302043 
L 299.679368 116.935108 
L 298.593566 112.907674 
L 297.507765 115.392054 
L 296.421964 108.012222 
L 295.336163 98.011936 
L 294.250362 107.405016 
L 293.164561 102.890101 
L 292.07876 116.837564 
L 290.992958 109.576666 
L 289.907157 119.669344 
L 288.821356 113.705965 
L 287.735555 119.64235 
L 286.649754 115.880197 
L 285.563953 100.83131 
L 284.478151 101.685148 
L 283.39235 88.63017 
L 282.306549 82.040769 
L 281.220748 94.535736 
L 280.134947 107.446089 
L 279.049146 104.584722 
L 277.963344 95.545584 
L 276.877543 105.818316 
L 275.791742 102.523875 
L 274.705941 106.858783 
L 273.62014 103.320522 
L 272.534339 108.702174 
L 271.448538 111.836443 
L 270.362736 118.260285 
L 269.276935 112.936032 
L 268.191134 118.027815 
L 267.105333 118.549615 
L 266.019532 110.726835 
L 264.933731 120.633504 
L 263.847929 115.332758 
L 262.762128 114.320409 
L 261.676327 117.469712 
L 260.590526 113.370034 
L 259.504725 112.331002 
L 258.418924 113.171763 
L 257.333123 113.561494 
L 256.247321 112.962664 
L 255.16152 114.692724 
L 254.075719 114.150643 
L 252.989918 111.382771 
L 251.904117 122.793049 
L 250.818316 115.136471 
L 249.732514 115.29521 
L 248.646713 103.2729 
L 247.560912 89.10334 
L 246.475111 78.681764 
L 245.38931 95.839271 
L 244.303509 102.607306 
L 243.217708 94.345402 
L 242.131906 104.786683 
L 241.046105 92.797743 
L 239.960304 98.703096 
L 238.874503 93.908349 
L 237.788702 98.777975 
L 236.702901 91.604542 
L 235.617099 100.181832 
L 234.531298 110.101476 
L 233.445497 120.807546 
L 232.359696 115.810844 
L 231.273895 97.615557 
L 230.188094 82.446622 
L 229.102292 82.547772 
L 228.016491 97.967501 
L 226.93069 92.367127 
L 225.844889 94.60737 
L 224.759088 100.905612 
L 223.673287 100.023038 
L 222.587486 103.417738 
L 221.501684 110.859256 
L 220.415883 109.582437 
L 219.330082 111.057575 
L 218.244281 108.075201 
L 217.15848 106.992321 
L 216.072679 98.703314 
L 214.986877 92.546186 
L 213.901076 103.375854 
L 212.815275 107.319588 
L 211.729474 121.543707 
L 210.643673 112.585659 
L 209.557872 105.535575 
L 208.472071 106.540871 
L 207.386269 119.737827 
L 206.300468 118.127121 
L 205.214667 110.641186 
L 204.128866 106.988896 
L 203.043065 120.217219 
L 201.957264 122.886584 
L 200.871462 119.931175 
L 199.785661 109.607462 
L 198.69986 108.278792 
L 197.614059 98.0637 
L 196.528258 102.273197 
L 195.442457 108.569232 
L 194.356656 102.205514 
L 193.270854 111.923916 
L 192.185053 109.449723 
L 191.099252 101.734045 
L 190.013451 108.883237 
L 188.92765 117.424524 
L 187.841849 113.574538 
L 186.756047 97.459104 
L 185.670246 92.570072 
L 184.584445 78.344637 
L 183.498644 88.847422 
L 182.412843 74.858644 
L 181.327042 73.388412 
L 180.24124 90.877337 
L 179.155439 90.722749 
L 178.069638 96.112254 
L 176.983837 84.140047 
L 175.898036 80.514763 
L 174.812235 80.707026 
L 173.726434 87.324996 
L 172.640632 100.786515 
L 171.554831 113.170931 
L 170.46903 129.791876 
L 169.383229 120.284311 
L 168.297428 119.260864 
L 167.211627 130.780557 
L 166.125825 132.582884 
L 165.040024 119.57147 
L 163.954223 112.915312 
L 162.868422 104.03806 
L 161.782621 120.084389 
L 160.69682 131.46759 
L 159.611019 114.029498 
L 158.525217 115.654227 
L 157.439416 97.877395 
L 156.353615 116.924174 
L 155.267814 102.878494 
L 154.182013 104.45066 
L 153.096212 111.278117 
L 152.01041 104.02612 
L 150.924609 105.677703 
L 149.838808 112.350993 
L 148.753007 105.518197 
L 147.667206 102.074241 
L 146.581405 105.42043 
L 145.495604 88.907961 
L 144.409802 100.271911 
L 143.324001 101.975427 
L 142.2382 104.694905 
L 141.152399 113.644545 
L 140.066598 114.977518 
L 138.980797 110.020942 
L 137.894995 115.403173 
L 136.809194 103.520725 
L 135.723393 104.529008 
L 134.637592 101.426815 
L 133.551791 109.428313 
L 132.46599 111.92057 
L 131.380189 127.322822 
L 130.294387 129.546903 
L 129.208586 131.625587 
L 128.122785 144.391351 
L 127.036984 136.010991 
L 125.951183 135.827797 
L 124.865382 133.608384 
L 123.77958 118.204968 
L 122.693779 118.882359 
L 121.607978 128.803413 
L 120.522177 103.50192 
L 119.436376 129.615633 
L 118.350575 134.114605 
L 117.264773 139.475283 
L 116.178972 150.317034 
L 115.093171 132.689462 
L 114.00737 135.738737 
L 112.921569 141.024795 
L 111.835768 137.203921 
L 110.749967 134.579143 
L 109.664165 136.563989 
L 108.578364 137.148335 
L 107.492563 121.073406 
L 106.406762 118.834622 
L 105.320961 116.171333 
L 104.23516 117.675715 
L 103.149358 125.663702 
L 102.063557 145.362675 
L 100.977756 123.566141 
L 99.891955 121.802064 
L 98.806154 92.835166 
L 97.720353 92.396741 
L 96.634552 87.012736 
L 95.54875 71.505639 
L 94.462949 74.850391 
L 93.377148 60.91065 
L 92.291347 62.123536 
L 91.205546 58.756955 
L 90.119745 58.767712 
L 89.033943 74.451733 
L 87.948142 60.82284 
L 86.862341 60.248874 
L 85.77654 79.582113 
L 84.690739 78.463105 
L 83.604938 91.969864 
L 82.519137 89.988748 
L 81.433335 93.296489 
L 80.347534 79.686441 
L 79.261733 99.05015 
L 78.175932 73.461053 
L 77.090131 69.862455 
L 76.00433 71.420296 
L 74.918528 65.632402 
L 73.832727 53.568 
z
" style="fill:#008000;fill-opacity:0.25;"/>
   </g>
   <g id="matplotlib.axis_3">
    <g id="ytick_9">
     <g id="line2d_17">
      <path clip-path="url(#p3c35590dee)" d="M 57.6 294.515634 
L 414.72 294.515634 
" style="fill:none;stroke:#b0b0b0;stroke-linecap:square;stroke-width:0.8;"/>
     </g>
     <g id="line2d_18">
      <defs>
       <path d="M 0 0 
L 3.5 0 
" id="mc3b28ceb9f" style="stroke:#000000;stroke-width:0.8;"/>
      </defs>
      <g>
       <use style="stroke:#000000;stroke-width:0.8;" x="414.72" xlink:href="#mc3b28ceb9f" y="294.515634"/>
      </g>
     </g>
     <g id="text_17">
      <!-- 0.2 -->
      <defs>
       <path d="M 10.59375 35.5 
L 73.1875 35.5 
L 73.1875 27.203125 
L 10.59375 27.203125 
z
" id="DejaVuSans-8722"/>
      </defs>
      <g transform="translate(421.72 298.314853)scale(0.1 -0.1)">
       <use xlink:href="#DejaVuSans-8722"/>
       <use x="83.789062" xlink:href="#DejaVuSans-48"/>
       <use x="147.412109" xlink:href="#DejaVuSans-46"/>
       <use x="179.199219" xlink:href="#DejaVuSans-50"/>
      </g>
     </g>
    </g>
    <g id="ytick_10">
     <g id="line2d_19">
      <path clip-path="url(#p3c35590dee)" d="M 57.6 247.299947 
L 414.72 247.299947 
" style="fill:none;stroke:#b0b0b0;stroke-linecap:square;stroke-width:0.8;"/>
     </g>
     <g id="line2d_20">
      <g>
       <use style="stroke:#000000;stroke-width:0.8;" x="414.72" xlink:href="#mc3b28ceb9f" y="247.299947"/>
      </g>
     </g>
     <g id="text_18">
      <!-- 0.0 -->
      <g transform="translate(421.72 251.099166)scale(0.1 -0.1)">
       <use xlink:href="#DejaVuSans-48"/>
       <use x="63.623047" xlink:href="#DejaVuSans-46"/>
       <use x="95.410156" xlink:href="#DejaVuSans-48"/>
      </g>
     </g>
    </g>
    <g id="ytick_11">
     <g id="line2d_21">
      <path clip-path="url(#p3c35590dee)" d="M 57.6 200.084261 
L 414.72 200.084261 
" style="fill:none;stroke:#b0b0b0;stroke-linecap:square;stroke-width:0.8;"/>
     </g>
     <g id="line2d_22">
      <g>
       <use style="stroke:#000000;stroke-width:0.8;" x="414.72" xlink:href="#mc3b28ceb9f" y="200.084261"/>
      </g>
     </g>
     <g id="text_19">
      <!-- 0.2 -->
      <g transform="translate(421.72 203.88348)scale(0.1 -0.1)">
       <use xlink:href="#DejaVuSans-48"/>
       <use x="63.623047" xlink:href="#DejaVuSans-46"/>
       <use x="95.410156" xlink:href="#DejaVuSans-50"/>
      </g>
     </g>
    </g>
    <g id="ytick_12">
     <g id="line2d_23">
      <path clip-path="url(#p3c35590dee)" d="M 57.6 152.868575 
L 414.72 152.868575 
" style="fill:none;stroke:#b0b0b0;stroke-linecap:square;stroke-width:0.8;"/>
     </g>
     <g id="line2d_24">
      <g>
       <use style="stroke:#000000;stroke-width:0.8;" x="414.72" xlink:href="#mc3b28ceb9f" y="152.868575"/>
      </g>
     </g>
     <g id="text_20">
      <!-- 0.4 -->
      <g transform="translate(421.72 156.667793)scale(0.1 -0.1)">
       <use xlink:href="#DejaVuSans-48"/>
       <use x="63.623047" xlink:href="#DejaVuSans-46"/>
       <use x="95.410156" xlink:href="#DejaVuSans-52"/>
      </g>
     </g>
    </g>
    <g id="ytick_13">
     <g id="line2d_25">
      <path clip-path="url(#p3c35590dee)" d="M 57.6 105.652888 
L 414.72 105.652888 
" style="fill:none;stroke:#b0b0b0;stroke-linecap:square;stroke-width:0.8;"/>
     </g>
     <g id="line2d_26">
      <g>
       <use style="stroke:#000000;stroke-width:0.8;" x="414.72" xlink:href="#mc3b28ceb9f" y="105.652888"/>
      </g>
     </g>
     <g id="text_21">
      <!-- 0.6 -->
      <g transform="translate(421.72 109.452107)scale(0.1 -0.1)">
       <use xlink:href="#DejaVuSans-48"/>
       <use x="63.623047" xlink:href="#DejaVuSans-46"/>
       <use x="95.410156" xlink:href="#DejaVuSans-54"/>
      </g>
     </g>
    </g>
    <g id="ytick_14">
     <g id="line2d_27">
      <path clip-path="url(#p3c35590dee)" d="M 57.6 58.437202 
L 414.72 58.437202 
" style="fill:none;stroke:#b0b0b0;stroke-linecap:square;stroke-width:0.8;"/>
     </g>
     <g id="line2d_28">
      <g>
       <use style="stroke:#000000;stroke-width:0.8;" x="414.72" xlink:href="#mc3b28ceb9f" y="58.437202"/>
      </g>
     </g>
     <g id="text_22">
      <!-- 0.8 -->
      <g transform="translate(421.72 62.23642)scale(0.1 -0.1)">
       <use xlink:href="#DejaVuSans-48"/>
       <use x="63.623047" xlink:href="#DejaVuSans-46"/>
       <use x="95.410156" xlink:href="#DejaVuSans-56"/>
      </g>
     </g>
    </g>
    <g id="text_23">
     <!-- Loudness -->
     <defs>
      <path d="M 9.8125 72.90625 
L 19.671875 72.90625 
L 19.671875 8.296875 
L 55.171875 8.296875 
L 55.171875 0 
L 9.8125 0 
z
" id="DejaVuSans-76"/>
      <path d="M 30.609375 48.390625 
Q 23.390625 48.390625 19.1875 42.75 
Q 14.984375 37.109375 14.984375 27.296875 
Q 14.984375 17.484375 19.15625 11.84375 
Q 23.34375 6.203125 30.609375 6.203125 
Q 37.796875 6.203125 41.984375 11.859375 
Q 46.1875 17.53125 46.1875 27.296875 
Q 46.1875 37.015625 41.984375 42.703125 
Q 37.796875 48.390625 30.609375 48.390625 
z
M 30.609375 56 
Q 42.328125 56 49.015625 48.375 
Q 55.71875 40.765625 55.71875 27.296875 
Q 55.71875 13.875 49.015625 6.21875 
Q 42.328125 -1.421875 30.609375 -1.421875 
Q 18.84375 -1.421875 12.171875 6.21875 
Q 5.515625 13.875 5.515625 27.296875 
Q 5.515625 40.765625 12.171875 48.375 
Q 18.84375 56 30.609375 56 
z
" id="DejaVuSans-111"/>
      <path d="M 8.5 21.578125 
L 8.5 54.6875 
L 17.484375 54.6875 
L 17.484375 21.921875 
Q 17.484375 14.15625 20.5 10.265625 
Q 23.53125 6.390625 29.59375 6.390625 
Q 36.859375 6.390625 41.078125 11.03125 
Q 45.3125 15.671875 45.3125 23.6875 
L 45.3125 54.6875 
L 54.296875 54.6875 
L 54.296875 0 
L 45.3125 0 
L 45.3125 8.40625 
Q 42.046875 3.421875 37.71875 1 
Q 33.40625 -1.421875 27.6875 -1.421875 
Q 18.265625 -1.421875 13.375 4.4375 
Q 8.5 10.296875 8.5 21.578125 
z
M 31.109375 56 
z
" id="DejaVuSans-117"/>
      <path d="M 45.40625 46.390625 
L 45.40625 75.984375 
L 54.390625 75.984375 
L 54.390625 0 
L 45.40625 0 
L 45.40625 8.203125 
Q 42.578125 3.328125 38.25 0.953125 
Q 33.9375 -1.421875 27.875 -1.421875 
Q 17.96875 -1.421875 11.734375 6.484375 
Q 5.515625 14.40625 5.515625 27.296875 
Q 5.515625 40.1875 11.734375 48.09375 
Q 17.96875 56 27.875 56 
Q 33.9375 56 38.25 53.625 
Q 42.578125 51.265625 45.40625 46.390625 
z
M 14.796875 27.296875 
Q 14.796875 17.390625 18.875 11.75 
Q 22.953125 6.109375 30.078125 6.109375 
Q 37.203125 6.109375 41.296875 11.75 
Q 45.40625 17.390625 45.40625 27.296875 
Q 45.40625 37.203125 41.296875 42.84375 
Q 37.203125 48.484375 30.078125 48.484375 
Q 22.953125 48.484375 18.875 42.84375 
Q 14.796875 37.203125 14.796875 27.296875 
z
" id="DejaVuSans-100"/>
     </defs>
     <g transform="translate(457.60125 198.170187)rotate(-90)scale(0.1 -0.1)">
      <use xlink:href="#DejaVuSans-76"/>
      <use x="55.697266" xlink:href="#DejaVuSans-111"/>
      <use x="116.878906" xlink:href="#DejaVuSans-117"/>
      <use x="180.257812" xlink:href="#DejaVuSans-100"/>
      <use x="243.734375" xlink:href="#DejaVuSans-110"/>
      <use x="307.113281" xlink:href="#DejaVuSans-101"/>
      <use x="368.636719" xlink:href="#DejaVuSans-115"/>
      <use x="420.736328" xlink:href="#DejaVuSans-115"/>
     </g>
    </g>
   </g>
   <g id="line2d_29">
    <path clip-path="url(#p3c35590dee)" d="M 73.832727 155.593939 
L 74.918528 167.199817 
L 76.00433 172.368403 
L 77.090131 171.260491 
L 78.175932 174.379694 
L 79.261733 191.439152 
L 80.347534 180.152966 
L 81.433335 189.453558 
L 82.519137 186.71439 
L 83.604938 187.21525 
L 84.690739 179.027881 
L 85.77654 178.943569 
L 86.862341 166.242567 
L 87.948142 167.264592 
L 89.033943 177.070368 
L 90.119745 164.75121 
L 91.205546 165.166171 
L 92.291347 167.420842 
L 93.377148 167.13322 
L 94.462949 176.68004 
L 95.54875 175.456893 
L 96.634552 186.447773 
L 97.720353 189.440054 
L 98.806154 190.815081 
L 99.891955 207.460016 
L 100.977756 208.470609 
L 102.063557 219.534814 
L 103.149358 209.848201 
L 104.23516 205.167374 
L 105.320961 204.696745 
L 106.406762 206.326071 
L 107.492563 207.666624 
L 108.578364 215.532903 
L 109.664165 214.86813 
L 110.749967 213.618625 
L 112.921569 217.391875 
L 115.093171 213.591821 
L 116.178972 222.328722 
L 117.264773 217.224786 
L 118.350575 214.474094 
L 119.436376 212.161457 
L 120.522177 197.648856 
L 121.607978 211.425959 
L 122.693779 206.410936 
L 123.77958 206.169238 
L 124.865382 214.183048 
L 125.951183 215.43321 
L 127.036984 215.284579 
L 128.122785 219.114629 
L 129.208586 213.230179 
L 130.294387 212.05 
L 131.380189 210.436518 
L 132.46599 202.006416 
L 133.551791 200.517408 
L 134.637592 196.310137 
L 135.723393 198.265112 
L 136.809194 197.173511 
L 137.894995 203.678959 
L 138.980797 200.465052 
L 140.066598 203.142966 
L 141.152399 202.551291 
L 142.2382 198.358278 
L 144.409802 195.716698 
L 145.495604 188.735922 
L 146.581405 198.674566 
L 147.667206 196.462068 
L 148.753007 199.021293 
L 149.838808 203.513208 
L 150.924609 199.504276 
L 152.01041 198.260079 
L 153.096212 201.67502 
L 154.182013 197.487828 
L 155.267814 197.086176 
L 156.353615 205.04379 
L 157.439416 193.829532 
L 158.525217 203.976813 
L 159.611019 202.724535 
L 160.69682 213.002327 
L 161.782621 206.201031 
L 162.868422 197.203755 
L 163.954223 202.24073 
L 165.040024 206.560953 
L 166.125825 213.143229 
L 167.211627 211.856135 
L 168.297428 205.308591 
L 169.383229 205.608293 
L 170.46903 211.844972 
L 171.554831 201.806807 
L 172.640632 195.283105 
L 173.726434 186.94351 
L 174.812235 181.947868 
L 175.898036 181.717015 
L 176.983837 184.574777 
L 178.069638 192.686886 
L 179.155439 188.897379 
L 180.24124 188.922274 
L 181.327042 176.717148 
L 182.412843 177.51816 
L 183.498644 185.462073 
L 184.584445 179.432071 
L 185.670246 189.126018 
L 186.756047 192.294338 
L 187.841849 202.883447 
L 188.92765 205.039626 
L 190.013451 199.879506 
L 191.099252 195.570082 
L 192.185053 200.198144 
L 193.270854 202.003918 
L 194.356656 196.005219 
L 195.442457 199.759412 
L 196.528258 195.949165 
L 197.614059 193.678959 
L 198.69986 199.760423 
L 199.785661 200.171548 
L 200.871462 206.0125 
L 201.957264 207.669342 
L 203.043065 206.235968 
L 204.128866 198.887541 
L 205.214667 200.877723 
L 206.300468 205.856482 
L 207.386269 206.604764 
L 208.472071 198.933731 
L 209.557872 197.830821 
L 211.729474 206.953148 
L 212.815275 199.558063 
L 213.901076 196.575165 
L 214.986877 190.524601 
L 216.072679 194.414451 
L 217.15848 199.478237 
L 218.244281 200.184673 
L 219.330082 201.786418 
L 220.415883 201.228969 
L 221.501684 201.677459 
L 222.587486 197.757336 
L 223.673287 195.072596 
L 224.759088 194.920857 
L 225.844889 191.918317 
L 226.93069 189.940806 
L 228.016491 194.669001 
L 229.102292 184.508184 
L 230.188094 184.371261 
L 232.359696 204.438381 
L 233.445497 207.021098 
L 236.702901 189.358341 
L 237.788702 193.750006 
L 238.874503 191.613062 
L 239.960304 194.628605 
L 241.046105 190.892407 
L 242.131906 198.23897 
L 243.217708 191.977499 
L 244.303509 196.910264 
L 245.38931 192.945643 
L 246.475111 181.745956 
L 247.560912 188.062718 
L 248.646713 196.718577 
L 249.732514 203.993739 
L 250.818316 203.750872 
L 251.904117 207.766377 
L 252.989918 201.54447 
L 254.075719 203.531797 
L 255.16152 203.684648 
L 256.247321 202.953328 
L 257.333123 203.777824 
L 259.504725 203.185453 
L 260.590526 203.826798 
L 261.676327 206.141448 
L 262.762128 204.152651 
L 263.847929 204.763863 
L 264.933731 208.060752 
L 266.019532 202.071649 
L 267.105333 206.572897 
L 268.191134 206.397928 
L 269.276935 203.738071 
L 270.362736 206.755021 
L 271.448538 203.343678 
L 272.534339 201.38926 
L 273.62014 197.815401 
L 274.705941 200.285953 
L 275.791742 196.885821 
L 276.877543 199.269019 
L 277.963344 193.223378 
L 279.049146 198.86316 
L 280.134947 200.238834 
L 282.306549 184.931159 
L 283.39235 189.174165 
L 284.478151 196.779991 
L 285.563953 196.386638 
L 286.649754 205.512462 
L 287.735555 206.999954 
L 288.821356 203.709027 
L 289.907157 207.341395 
L 290.992958 201.675917 
L 292.07876 205.844279 
L 293.164561 197.131798 
L 294.250362 200.179332 
L 295.336163 194.662861 
L 296.421964 200.304742 
L 297.507765 204.594001 
L 298.593566 202.687266 
L 299.679368 205.376487 
L 300.765169 205.839801 
L 301.85097 202.667789 
L 302.936771 205.773065 
L 304.022572 202.607829 
L 305.108373 207.255638 
L 306.194175 208.502956 
L 307.279976 208.297885 
L 308.365777 206.222047 
L 309.451578 205.040401 
L 310.537379 201.05609 
L 311.62318 193.804029 
L 312.708981 196.564611 
L 313.794783 193.332352 
L 314.880584 191.643358 
L 315.966385 196.849014 
L 317.052186 199.321762 
L 318.137987 199.235672 
L 319.223788 199.271588 
L 320.30959 200.292361 
L 321.395391 200.418768 
L 322.481192 198.164078 
L 323.566993 198.360932 
L 324.652794 190.726709 
L 325.738595 190.076426 
L 326.824396 189.217568 
L 327.910198 189.986278 
L 328.995999 196.953772 
L 330.0818 190.108272 
L 331.167601 188.165412 
L 332.253402 195.791089 
L 333.339203 192.775819 
L 334.425005 195.263162 
L 335.510806 182.679574 
L 336.596607 186.278032 
L 337.682408 183.642898 
L 338.768209 170.977289 
L 339.85401 173.864874 
L 340.939811 181.707228 
L 342.025613 185.159729 
L 343.111414 190.158375 
L 344.197215 189.49233 
L 345.283016 186.930881 
L 346.368817 182.442081 
L 347.454618 186.274082 
L 348.54042 186.61201 
L 349.626221 189.193652 
L 350.712022 179.2188 
L 351.797823 190.712286 
L 352.883624 183.907071 
L 353.969425 185.118201 
L 355.055227 186.607647 
L 356.141028 183.439987 
L 357.226829 186.652887 
L 358.31263 185.117467 
L 359.398431 185.797655 
L 360.484232 188.791431 
L 361.570033 195.211009 
L 362.655835 193.616344 
L 364.827437 204.480671 
L 365.913238 200.664467 
L 366.999039 202.639304 
L 368.08484 202.205356 
L 369.170642 189.19741 
L 370.256443 187.481444 
L 371.342244 181.378681 
L 372.428045 184.350202 
L 373.513846 190.312742 
L 374.599647 197.268511 
L 375.685448 194.036712 
L 376.77125 194.18119 
L 377.857051 188.865502 
L 378.942852 192.163224 
L 380.028653 185.98385 
L 381.114454 170.250697 
L 382.200255 170.813969 
L 383.286057 173.211239 
L 384.371858 166.119205 
L 387.629261 194.036769 
L 388.715062 191.703026 
L 389.800863 193.65523 
L 390.886665 186.025824 
L 391.972466 195.595872 
L 393.058267 199.764932 
L 394.144068 206.615026 
L 395.229869 204.066732 
L 396.31567 200.928756 
L 397.401472 201.353176 
L 398.487273 202.278739 
L 398.487273 202.278739 
" style="fill:none;stroke:#008000;stroke-linecap:square;stroke-width:1.5;"/>
   </g>
   <g id="patch_7">
    <path d="M 57.6 307.584 
L 57.6 41.472 
" style="fill:none;stroke:#000000;stroke-linecap:square;stroke-linejoin:miter;stroke-width:0.8;"/>
   </g>
   <g id="patch_8">
    <path d="M 414.72 307.584 
L 414.72 41.472 
" style="fill:none;stroke:#000000;stroke-linecap:square;stroke-linejoin:miter;stroke-width:0.8;"/>
   </g>
   <g id="patch_9">
    <path d="M 57.6 307.584 
L 414.72 307.584 
" style="fill:none;stroke:#000000;stroke-linecap:square;stroke-linejoin:miter;stroke-width:0.8;"/>
   </g>
   <g id="patch_10">
    <path d="M 57.6 41.472 
L 414.72 41.472 
" style="fill:none;stroke:#000000;stroke-linecap:square;stroke-linejoin:miter;stroke-width:0.8;"/>
   </g>
   <g id="text_24">
    <!-- Message Difference and Loudness -->
    <defs>
     <path d="M 9.8125 72.90625 
L 24.515625 72.90625 
L 43.109375 23.296875 
L 61.8125 72.90625 
L 76.515625 72.90625 
L 76.515625 0 
L 66.890625 0 
L 66.890625 64.015625 
L 48.09375 14.015625 
L 38.1875 14.015625 
L 19.390625 64.015625 
L 19.390625 0 
L 9.8125 0 
z
" id="DejaVuSans-77"/>
     <path d="M 45.40625 27.984375 
Q 45.40625 37.75 41.375 43.109375 
Q 37.359375 48.484375 30.078125 48.484375 
Q 22.859375 48.484375 18.828125 43.109375 
Q 14.796875 37.75 14.796875 27.984375 
Q 14.796875 18.265625 18.828125 12.890625 
Q 22.859375 7.515625 30.078125 7.515625 
Q 37.359375 7.515625 41.375 12.890625 
Q 45.40625 18.265625 45.40625 27.984375 
z
M 54.390625 6.78125 
Q 54.390625 -7.171875 48.1875 -13.984375 
Q 42 -20.796875 29.203125 -20.796875 
Q 24.46875 -20.796875 20.265625 -20.09375 
Q 16.0625 -19.390625 12.109375 -17.921875 
L 12.109375 -9.1875 
Q 16.0625 -11.328125 19.921875 -12.34375 
Q 23.78125 -13.375 27.78125 -13.375 
Q 36.625 -13.375 41.015625 -8.765625 
Q 45.40625 -4.15625 45.40625 5.171875 
L 45.40625 9.625 
Q 42.625 4.78125 38.28125 2.390625 
Q 33.9375 0 27.875 0 
Q 17.828125 0 11.671875 7.65625 
Q 5.515625 15.328125 5.515625 27.984375 
Q 5.515625 40.671875 11.671875 48.328125 
Q 17.828125 56 27.875 56 
Q 33.9375 56 38.28125 53.609375 
Q 42.625 51.21875 45.40625 46.390625 
L 45.40625 54.6875 
L 54.390625 54.6875 
z
" id="DejaVuSans-103"/>
     <path id="DejaVuSans-32"/>
     <path d="M 37.109375 75.984375 
L 37.109375 68.5 
L 28.515625 68.5 
Q 23.6875 68.5 21.796875 66.546875 
Q 19.921875 64.59375 19.921875 59.515625 
L 19.921875 54.6875 
L 34.71875 54.6875 
L 34.71875 47.703125 
L 19.921875 47.703125 
L 19.921875 0 
L 10.890625 0 
L 10.890625 47.703125 
L 2.296875 47.703125 
L 2.296875 54.6875 
L 10.890625 54.6875 
L 10.890625 58.5 
Q 10.890625 67.625 15.140625 71.796875 
Q 19.390625 75.984375 28.609375 75.984375 
z
" id="DejaVuSans-102"/>
     <path d="M 41.109375 46.296875 
Q 39.59375 47.171875 37.8125 47.578125 
Q 36.03125 48 33.890625 48 
Q 26.265625 48 22.1875 43.046875 
Q 18.109375 38.09375 18.109375 28.8125 
L 18.109375 0 
L 9.078125 0 
L 9.078125 54.6875 
L 18.109375 54.6875 
L 18.109375 46.1875 
Q 20.953125 51.171875 25.484375 53.578125 
Q 30.03125 56 36.53125 56 
Q 37.453125 56 38.578125 55.875 
Q 39.703125 55.765625 41.0625 55.515625 
z
" id="DejaVuSans-114"/>
    </defs>
    <g transform="translate(133.329375 35.472)scale(0.12 -0.12)">
     <use xlink:href="#DejaVuSans-77"/>
     <use x="86.279297" xlink:href="#DejaVuSans-101"/>
     <use x="147.802734" xlink:href="#DejaVuSans-115"/>
     <use x="199.902344" xlink:href="#DejaVuSans-115"/>
     <use x="252.001953" xlink:href="#DejaVuSans-97"/>
     <use x="313.28125" xlink:href="#DejaVuSans-103"/>
     <use x="376.757812" xlink:href="#DejaVuSans-101"/>
     <use x="438.28125" xlink:href="#DejaVuSans-32"/>
     <use x="470.068359" xlink:href="#DejaVuSans-68"/>
     <use x="547.070312" xlink:href="#DejaVuSans-105"/>
     <use x="574.853516" xlink:href="#DejaVuSans-102"/>
     <use x="610.058594" xlink:href="#DejaVuSans-102"/>
     <use x="645.263672" xlink:href="#DejaVuSans-101"/>
     <use x="706.787109" xlink:href="#DejaVuSans-114"/>
     <use x="747.869141" xlink:href="#DejaVuSans-101"/>
     <use x="809.392578" xlink:href="#DejaVuSans-110"/>
     <use x="872.771484" xlink:href="#DejaVuSans-99"/>
     <use x="927.751953" xlink:href="#DejaVuSans-101"/>
     <use x="989.275391" xlink:href="#DejaVuSans-32"/>
     <use x="1021.0625" xlink:href="#DejaVuSans-97"/>
     <use x="1082.341797" xlink:href="#DejaVuSans-110"/>
     <use x="1145.720703" xlink:href="#DejaVuSans-100"/>
     <use x="1209.197266" xlink:href="#DejaVuSans-32"/>
     <use x="1240.984375" xlink:href="#DejaVuSans-76"/>
     <use x="1296.681641" xlink:href="#DejaVuSans-111"/>
     <use x="1357.863281" xlink:href="#DejaVuSans-117"/>
     <use x="1421.242188" xlink:href="#DejaVuSans-100"/>
     <use x="1484.71875" xlink:href="#DejaVuSans-110"/>
     <use x="1548.097656" xlink:href="#DejaVuSans-101"/>
     <use x="1609.621094" xlink:href="#DejaVuSans-115"/>
     <use x="1661.720703" xlink:href="#DejaVuSans-115"/>
    </g>
   </g>
   <g id="legend_1">
    <g id="patch_11">
     <path d="M 331.227813 64.150125 
L 407.72 64.150125 
Q 409.72 64.150125 409.72 62.150125 
L 409.72 48.472 
Q 409.72 46.472 407.72 46.472 
L 331.227813 46.472 
Q 329.227813 46.472 329.227813 48.472 
L 329.227813 62.150125 
Q 329.227813 64.150125 331.227813 64.150125 
z
" style="fill:#ffffff;opacity:0.8;stroke:#cccccc;stroke-linejoin:miter;"/>
    </g>
    <g id="line2d_30">
     <path d="M 333.227813 54.570438 
L 353.227813 54.570438 
" style="fill:none;stroke:#008000;stroke-linecap:square;stroke-width:1.5;"/>
    </g>
    <g id="line2d_31"/>
    <g id="text_25">
     <!-- loudness -->
     <defs>
      <path d="M 9.421875 75.984375 
L 18.40625 75.984375 
L 18.40625 0 
L 9.421875 0 
z
" id="DejaVuSans-108"/>
     </defs>
     <g transform="translate(361.227813 58.070438)scale(0.1 -0.1)">
      <use xlink:href="#DejaVuSans-108"/>
      <use x="27.783203" xlink:href="#DejaVuSans-111"/>
      <use x="88.964844" xlink:href="#DejaVuSans-117"/>
      <use x="152.34375" xlink:href="#DejaVuSans-100"/>
      <use x="215.820312" xlink:href="#DejaVuSans-110"/>
      <use x="279.199219" xlink:href="#DejaVuSans-101"/>
      <use x="340.722656" xlink:href="#DejaVuSans-115"/>
      <use x="392.822266" xlink:href="#DejaVuSans-115"/>
     </g>
    </g>
   </g>
  </g>
 </g>
 <defs>
  <clipPath id="p3c35590dee">
   <rect height="266.112" width="357.12" x="57.6" y="41.472"/>
  </clipPath>
 </defs>
</svg>
