<?xml version="1.0" encoding="utf-8" standalone="no"?>
<!DOCTYPE svg PUBLIC "-//W3C//DTD SVG 1.1//EN"
  "http://www.w3.org/Graphics/SVG/1.1/DTD/svg11.dtd">
<!-- Created with matplotlib (https://matplotlib.org/) -->
<svg height="345.6pt" version="1.1" viewBox="0 0 460.8 345.6" width="460.8pt" xmlns="http://www.w3.org/2000/svg" xmlns:xlink="http://www.w3.org/1999/xlink">
 <defs>
  <style type="text/css">
*{stroke-linecap:butt;stroke-linejoin:round;}
  </style>
 </defs>
 <g id="figure_1">
  <g id="patch_1">
   <path d="M 0 345.6 
L 460.8 345.6 
L 460.8 0 
L 0 0 
z
" style="fill:#ffffff;"/>
  </g>
  <g id="axes_1">
   <g id="patch_2">
    <path d="M 57.6 307.584 
L 414.72 307.584 
L 414.72 41.472 
L 57.6 41.472 
z
" style="fill:#ffffff;"/>
   </g>
   <g id="matplotlib.axis_1">
    <g id="xtick_1">
     <g id="line2d_1">
      <path clip-path="url(#p91231c85d2)" d="M 73.832727 307.584 
L 73.832727 41.472 
" style="fill:none;stroke:#b0b0b0;stroke-linecap:square;stroke-width:0.8;"/>
     </g>
     <g id="line2d_2">
      <defs>
       <path d="M 0 0 
L 0 3.5 
" id="m5a04a33aa4" style="stroke:#000000;stroke-width:0.8;"/>
      </defs>
      <g>
       <use style="stroke:#000000;stroke-width:0.8;" x="73.832727" xlink:href="#m5a04a33aa4" y="307.584"/>
      </g>
     </g>
     <g id="text_1">
      <!-- 0 -->
      <defs>
       <path d="M 31.78125 66.40625 
Q 24.171875 66.40625 20.328125 58.90625 
Q 16.5 51.421875 16.5 36.375 
Q 16.5 21.390625 20.328125 13.890625 
Q 24.171875 6.390625 31.78125 6.390625 
Q 39.453125 6.390625 43.28125 13.890625 
Q 47.125 21.390625 47.125 36.375 
Q 47.125 51.421875 43.28125 58.90625 
Q 39.453125 66.40625 31.78125 66.40625 
z
M 31.78125 74.21875 
Q 44.046875 74.21875 50.515625 64.515625 
Q 56.984375 54.828125 56.984375 36.375 
Q 56.984375 17.96875 50.515625 8.265625 
Q 44.046875 -1.421875 31.78125 -1.421875 
Q 19.53125 -1.421875 13.0625 8.265625 
Q 6.59375 17.96875 6.59375 36.375 
Q 6.59375 54.828125 13.0625 64.515625 
Q 19.53125 74.21875 31.78125 74.21875 
z
" id="DejaVuSans-48"/>
      </defs>
      <g transform="translate(70.651477 322.182437)scale(0.1 -0.1)">
       <use xlink:href="#DejaVuSans-48"/>
      </g>
     </g>
    </g>
    <g id="xtick_2">
     <g id="line2d_3">
      <path clip-path="url(#p91231c85d2)" d="M 128.122785 307.584 
L 128.122785 41.472 
" style="fill:none;stroke:#b0b0b0;stroke-linecap:square;stroke-width:0.8;"/>
     </g>
     <g id="line2d_4">
      <g>
       <use style="stroke:#000000;stroke-width:0.8;" x="128.122785" xlink:href="#m5a04a33aa4" y="307.584"/>
      </g>
     </g>
     <g id="text_2">
      <!-- 50 -->
      <defs>
       <path d="M 10.796875 72.90625 
L 49.515625 72.90625 
L 49.515625 64.59375 
L 19.828125 64.59375 
L 19.828125 46.734375 
Q 21.96875 47.46875 24.109375 47.828125 
Q 26.265625 48.1875 28.421875 48.1875 
Q 40.625 48.1875 47.75 41.5 
Q 54.890625 34.8125 54.890625 23.390625 
Q 54.890625 11.625 47.5625 5.09375 
Q 40.234375 -1.421875 26.90625 -1.421875 
Q 22.3125 -1.421875 17.546875 -0.640625 
Q 12.796875 0.140625 7.71875 1.703125 
L 7.71875 11.625 
Q 12.109375 9.234375 16.796875 8.0625 
Q 21.484375 6.890625 26.703125 6.890625 
Q 35.15625 6.890625 40.078125 11.328125 
Q 45.015625 15.765625 45.015625 23.390625 
Q 45.015625 31 40.078125 35.4375 
Q 35.15625 39.890625 26.703125 39.890625 
Q 22.75 39.890625 18.8125 39.015625 
Q 14.890625 38.140625 10.796875 36.28125 
z
" id="DejaVuSans-53"/>
      </defs>
      <g transform="translate(121.760285 322.182437)scale(0.1 -0.1)">
       <use xlink:href="#DejaVuSans-53"/>
       <use x="63.623047" xlink:href="#DejaVuSans-48"/>
      </g>
     </g>
    </g>
    <g id="xtick_3">
     <g id="line2d_5">
      <path clip-path="url(#p91231c85d2)" d="M 182.412843 307.584 
L 182.412843 41.472 
" style="fill:none;stroke:#b0b0b0;stroke-linecap:square;stroke-width:0.8;"/>
     </g>
     <g id="line2d_6">
      <g>
       <use style="stroke:#000000;stroke-width:0.8;" x="182.412843" xlink:href="#m5a04a33aa4" y="307.584"/>
      </g>
     </g>
     <g id="text_3">
      <!-- 100 -->
      <defs>
       <path d="M 12.40625 8.296875 
L 28.515625 8.296875 
L 28.515625 63.921875 
L 10.984375 60.40625 
L 10.984375 69.390625 
L 28.421875 72.90625 
L 38.28125 72.90625 
L 38.28125 8.296875 
L 54.390625 8.296875 
L 54.390625 0 
L 12.40625 0 
z
" id="DejaVuSans-49"/>
      </defs>
      <g transform="translate(172.869093 322.182437)scale(0.1 -0.1)">
       <use xlink:href="#DejaVuSans-49"/>
       <use x="63.623047" xlink:href="#DejaVuSans-48"/>
       <use x="127.246094" xlink:href="#DejaVuSans-48"/>
      </g>
     </g>
    </g>
    <g id="xtick_4">
     <g id="line2d_7">
      <path clip-path="url(#p91231c85d2)" d="M 236.702901 307.584 
L 236.702901 41.472 
" style="fill:none;stroke:#b0b0b0;stroke-linecap:square;stroke-width:0.8;"/>
     </g>
     <g id="line2d_8">
      <g>
       <use style="stroke:#000000;stroke-width:0.8;" x="236.702901" xlink:href="#m5a04a33aa4" y="307.584"/>
      </g>
     </g>
     <g id="text_4">
      <!-- 150 -->
      <g transform="translate(227.159151 322.182437)scale(0.1 -0.1)">
       <use xlink:href="#DejaVuSans-49"/>
       <use x="63.623047" xlink:href="#DejaVuSans-53"/>
       <use x="127.246094" xlink:href="#DejaVuSans-48"/>
      </g>
     </g>
    </g>
    <g id="xtick_5">
     <g id="line2d_9">
      <path clip-path="url(#p91231c85d2)" d="M 290.992958 307.584 
L 290.992958 41.472 
" style="fill:none;stroke:#b0b0b0;stroke-linecap:square;stroke-width:0.8;"/>
     </g>
     <g id="line2d_10">
      <g>
       <use style="stroke:#000000;stroke-width:0.8;" x="290.992958" xlink:href="#m5a04a33aa4" y="307.584"/>
      </g>
     </g>
     <g id="text_5">
      <!-- 200 -->
      <defs>
       <path d="M 19.1875 8.296875 
L 53.609375 8.296875 
L 53.609375 0 
L 7.328125 0 
L 7.328125 8.296875 
Q 12.9375 14.109375 22.625 23.890625 
Q 32.328125 33.6875 34.8125 36.53125 
Q 39.546875 41.84375 41.421875 45.53125 
Q 43.3125 49.21875 43.3125 52.78125 
Q 43.3125 58.59375 39.234375 62.25 
Q 35.15625 65.921875 28.609375 65.921875 
Q 23.96875 65.921875 18.8125 64.3125 
Q 13.671875 62.703125 7.8125 59.421875 
L 7.8125 69.390625 
Q 13.765625 71.78125 18.9375 73 
Q 24.125 74.21875 28.421875 74.21875 
Q 39.75 74.21875 46.484375 68.546875 
Q 53.21875 62.890625 53.21875 53.421875 
Q 53.21875 48.921875 51.53125 44.890625 
Q 49.859375 40.875 45.40625 35.40625 
Q 44.1875 33.984375 37.640625 27.21875 
Q 31.109375 20.453125 19.1875 8.296875 
z
" id="DejaVuSans-50"/>
      </defs>
      <g transform="translate(281.449208 322.182437)scale(0.1 -0.1)">
       <use xlink:href="#DejaVuSans-50"/>
       <use x="63.623047" xlink:href="#DejaVuSans-48"/>
       <use x="127.246094" xlink:href="#DejaVuSans-48"/>
      </g>
     </g>
    </g>
    <g id="xtick_6">
     <g id="line2d_11">
      <path clip-path="url(#p91231c85d2)" d="M 345.283016 307.584 
L 345.283016 41.472 
" style="fill:none;stroke:#b0b0b0;stroke-linecap:square;stroke-width:0.8;"/>
     </g>
     <g id="line2d_12">
      <g>
       <use style="stroke:#000000;stroke-width:0.8;" x="345.283016" xlink:href="#m5a04a33aa4" y="307.584"/>
      </g>
     </g>
     <g id="text_6">
      <!-- 250 -->
      <g transform="translate(335.739266 322.182437)scale(0.1 -0.1)">
       <use xlink:href="#DejaVuSans-50"/>
       <use x="63.623047" xlink:href="#DejaVuSans-53"/>
       <use x="127.246094" xlink:href="#DejaVuSans-48"/>
      </g>
     </g>
    </g>
    <g id="xtick_7">
     <g id="line2d_13">
      <path clip-path="url(#p91231c85d2)" d="M 399.573074 307.584 
L 399.573074 41.472 
" style="fill:none;stroke:#b0b0b0;stroke-linecap:square;stroke-width:0.8;"/>
     </g>
     <g id="line2d_14">
      <g>
       <use style="stroke:#000000;stroke-width:0.8;" x="399.573074" xlink:href="#m5a04a33aa4" y="307.584"/>
      </g>
     </g>
     <g id="text_7">
      <!-- 300 -->
      <defs>
       <path d="M 40.578125 39.3125 
Q 47.65625 37.796875 51.625 33 
Q 55.609375 28.21875 55.609375 21.1875 
Q 55.609375 10.40625 48.1875 4.484375 
Q 40.765625 -1.421875 27.09375 -1.421875 
Q 22.515625 -1.421875 17.65625 -0.515625 
Q 12.796875 0.390625 7.625 2.203125 
L 7.625 11.71875 
Q 11.71875 9.328125 16.59375 8.109375 
Q 21.484375 6.890625 26.8125 6.890625 
Q 36.078125 6.890625 40.9375 10.546875 
Q 45.796875 14.203125 45.796875 21.1875 
Q 45.796875 27.640625 41.28125 31.265625 
Q 36.765625 34.90625 28.71875 34.90625 
L 20.21875 34.90625 
L 20.21875 43.015625 
L 29.109375 43.015625 
Q 36.375 43.015625 40.234375 45.921875 
Q 44.09375 48.828125 44.09375 54.296875 
Q 44.09375 59.90625 40.109375 62.90625 
Q 36.140625 65.921875 28.71875 65.921875 
Q 24.65625 65.921875 20.015625 65.03125 
Q 15.375 64.15625 9.8125 62.3125 
L 9.8125 71.09375 
Q 15.4375 72.65625 20.34375 73.4375 
Q 25.25 74.21875 29.59375 74.21875 
Q 40.828125 74.21875 47.359375 69.109375 
Q 53.90625 64.015625 53.90625 55.328125 
Q 53.90625 49.265625 50.4375 45.09375 
Q 46.96875 40.921875 40.578125 39.3125 
z
" id="DejaVuSans-51"/>
      </defs>
      <g transform="translate(390.029324 322.182437)scale(0.1 -0.1)">
       <use xlink:href="#DejaVuSans-51"/>
       <use x="63.623047" xlink:href="#DejaVuSans-48"/>
       <use x="127.246094" xlink:href="#DejaVuSans-48"/>
      </g>
     </g>
    </g>
    <g id="text_8">
     <!-- Generations -->
     <defs>
      <path d="M 59.515625 10.40625 
L 59.515625 29.984375 
L 43.40625 29.984375 
L 43.40625 38.09375 
L 69.28125 38.09375 
L 69.28125 6.78125 
Q 63.578125 2.734375 56.6875 0.65625 
Q 49.8125 -1.421875 42 -1.421875 
Q 24.90625 -1.421875 15.25 8.5625 
Q 5.609375 18.5625 5.609375 36.375 
Q 5.609375 54.25 15.25 64.234375 
Q 24.90625 74.21875 42 74.21875 
Q 49.125 74.21875 55.546875 72.453125 
Q 61.96875 70.703125 67.390625 67.28125 
L 67.390625 56.78125 
Q 61.921875 61.421875 55.765625 63.765625 
Q 49.609375 66.109375 42.828125 66.109375 
Q 29.4375 66.109375 22.71875 58.640625 
Q 16.015625 51.171875 16.015625 36.375 
Q 16.015625 21.625 22.71875 14.15625 
Q 29.4375 6.6875 42.828125 6.6875 
Q 48.046875 6.6875 52.140625 7.59375 
Q 56.25 8.5 59.515625 10.40625 
z
" id="DejaVuSans-71"/>
      <path d="M 56.203125 29.59375 
L 56.203125 25.203125 
L 14.890625 25.203125 
Q 15.484375 15.921875 20.484375 11.0625 
Q 25.484375 6.203125 34.421875 6.203125 
Q 39.59375 6.203125 44.453125 7.46875 
Q 49.3125 8.734375 54.109375 11.28125 
L 54.109375 2.78125 
Q 49.265625 0.734375 44.1875 -0.34375 
Q 39.109375 -1.421875 33.890625 -1.421875 
Q 20.796875 -1.421875 13.15625 6.1875 
Q 5.515625 13.8125 5.515625 26.8125 
Q 5.515625 40.234375 12.765625 48.109375 
Q 20.015625 56 32.328125 56 
Q 43.359375 56 49.78125 48.890625 
Q 56.203125 41.796875 56.203125 29.59375 
z
M 47.21875 32.234375 
Q 47.125 39.59375 43.09375 43.984375 
Q 39.0625 48.390625 32.421875 48.390625 
Q 24.90625 48.390625 20.390625 44.140625 
Q 15.875 39.890625 15.1875 32.171875 
z
" id="DejaVuSans-101"/>
      <path d="M 54.890625 33.015625 
L 54.890625 0 
L 45.90625 0 
L 45.90625 32.71875 
Q 45.90625 40.484375 42.875 44.328125 
Q 39.84375 48.1875 33.796875 48.1875 
Q 26.515625 48.1875 22.3125 43.546875 
Q 18.109375 38.921875 18.109375 30.90625 
L 18.109375 0 
L 9.078125 0 
L 9.078125 54.6875 
L 18.109375 54.6875 
L 18.109375 46.1875 
Q 21.34375 51.125 25.703125 53.5625 
Q 30.078125 56 35.796875 56 
Q 45.21875 56 50.046875 50.171875 
Q 54.890625 44.34375 54.890625 33.015625 
z
" id="DejaVuSans-110"/>
      <path d="M 41.109375 46.296875 
Q 39.59375 47.171875 37.8125 47.578125 
Q 36.03125 48 33.890625 48 
Q 26.265625 48 22.1875 43.046875 
Q 18.109375 38.09375 18.109375 28.8125 
L 18.109375 0 
L 9.078125 0 
L 9.078125 54.6875 
L 18.109375 54.6875 
L 18.109375 46.1875 
Q 20.953125 51.171875 25.484375 53.578125 
Q 30.03125 56 36.53125 56 
Q 37.453125 56 38.578125 55.875 
Q 39.703125 55.765625 41.0625 55.515625 
z
" id="DejaVuSans-114"/>
      <path d="M 34.28125 27.484375 
Q 23.390625 27.484375 19.1875 25 
Q 14.984375 22.515625 14.984375 16.5 
Q 14.984375 11.71875 18.140625 8.90625 
Q 21.296875 6.109375 26.703125 6.109375 
Q 34.1875 6.109375 38.703125 11.40625 
Q 43.21875 16.703125 43.21875 25.484375 
L 43.21875 27.484375 
z
M 52.203125 31.203125 
L 52.203125 0 
L 43.21875 0 
L 43.21875 8.296875 
Q 40.140625 3.328125 35.546875 0.953125 
Q 30.953125 -1.421875 24.3125 -1.421875 
Q 15.921875 -1.421875 10.953125 3.296875 
Q 6 8.015625 6 15.921875 
Q 6 25.140625 12.171875 29.828125 
Q 18.359375 34.515625 30.609375 34.515625 
L 43.21875 34.515625 
L 43.21875 35.40625 
Q 43.21875 41.609375 39.140625 45 
Q 35.0625 48.390625 27.6875 48.390625 
Q 23 48.390625 18.546875 47.265625 
Q 14.109375 46.140625 10.015625 43.890625 
L 10.015625 52.203125 
Q 14.9375 54.109375 19.578125 55.046875 
Q 24.21875 56 28.609375 56 
Q 40.484375 56 46.34375 49.84375 
Q 52.203125 43.703125 52.203125 31.203125 
z
" id="DejaVuSans-97"/>
      <path d="M 18.3125 70.21875 
L 18.3125 54.6875 
L 36.8125 54.6875 
L 36.8125 47.703125 
L 18.3125 47.703125 
L 18.3125 18.015625 
Q 18.3125 11.328125 20.140625 9.421875 
Q 21.96875 7.515625 27.59375 7.515625 
L 36.8125 7.515625 
L 36.8125 0 
L 27.59375 0 
Q 17.1875 0 13.234375 3.875 
Q 9.28125 7.765625 9.28125 18.015625 
L 9.28125 47.703125 
L 2.6875 47.703125 
L 2.6875 54.6875 
L 9.28125 54.6875 
L 9.28125 70.21875 
z
" id="DejaVuSans-116"/>
      <path d="M 9.421875 54.6875 
L 18.40625 54.6875 
L 18.40625 0 
L 9.421875 0 
z
M 9.421875 75.984375 
L 18.40625 75.984375 
L 18.40625 64.59375 
L 9.421875 64.59375 
z
" id="DejaVuSans-105"/>
      <path d="M 30.609375 48.390625 
Q 23.390625 48.390625 19.1875 42.75 
Q 14.984375 37.109375 14.984375 27.296875 
Q 14.984375 17.484375 19.15625 11.84375 
Q 23.34375 6.203125 30.609375 6.203125 
Q 37.796875 6.203125 41.984375 11.859375 
Q 46.1875 17.53125 46.1875 27.296875 
Q 46.1875 37.015625 41.984375 42.703125 
Q 37.796875 48.390625 30.609375 48.390625 
z
M 30.609375 56 
Q 42.328125 56 49.015625 48.375 
Q 55.71875 40.765625 55.71875 27.296875 
Q 55.71875 13.875 49.015625 6.21875 
Q 42.328125 -1.421875 30.609375 -1.421875 
Q 18.84375 -1.421875 12.171875 6.21875 
Q 5.515625 13.875 5.515625 27.296875 
Q 5.515625 40.765625 12.171875 48.375 
Q 18.84375 56 30.609375 56 
z
" id="DejaVuSans-111"/>
      <path d="M 44.28125 53.078125 
L 44.28125 44.578125 
Q 40.484375 46.53125 36.375 47.5 
Q 32.28125 48.484375 27.875 48.484375 
Q 21.1875 48.484375 17.84375 46.4375 
Q 14.5 44.390625 14.5 40.28125 
Q 14.5 37.15625 16.890625 35.375 
Q 19.28125 33.59375 26.515625 31.984375 
L 29.59375 31.296875 
Q 39.15625 29.25 43.1875 25.515625 
Q 47.21875 21.78125 47.21875 15.09375 
Q 47.21875 7.46875 41.1875 3.015625 
Q 35.15625 -1.421875 24.609375 -1.421875 
Q 20.21875 -1.421875 15.453125 -0.5625 
Q 10.6875 0.296875 5.421875 2 
L 5.421875 11.28125 
Q 10.40625 8.6875 15.234375 7.390625 
Q 20.0625 6.109375 24.8125 6.109375 
Q 31.15625 6.109375 34.5625 8.28125 
Q 37.984375 10.453125 37.984375 14.40625 
Q 37.984375 18.0625 35.515625 20.015625 
Q 33.0625 21.96875 24.703125 23.78125 
L 21.578125 24.515625 
Q 13.234375 26.265625 9.515625 29.90625 
Q 5.8125 33.546875 5.8125 39.890625 
Q 5.8125 47.609375 11.28125 51.796875 
Q 16.75 56 26.8125 56 
Q 31.78125 56 36.171875 55.265625 
Q 40.578125 54.546875 44.28125 53.078125 
z
" id="DejaVuSans-115"/>
     </defs>
     <g transform="translate(205.662344 335.860562)scale(0.1 -0.1)">
      <use xlink:href="#DejaVuSans-71"/>
      <use x="77.490234" xlink:href="#DejaVuSans-101"/>
      <use x="139.013672" xlink:href="#DejaVuSans-110"/>
      <use x="202.392578" xlink:href="#DejaVuSans-101"/>
      <use x="263.916016" xlink:href="#DejaVuSans-114"/>
      <use x="305.029297" xlink:href="#DejaVuSans-97"/>
      <use x="366.308594" xlink:href="#DejaVuSans-116"/>
      <use x="405.517578" xlink:href="#DejaVuSans-105"/>
      <use x="433.300781" xlink:href="#DejaVuSans-111"/>
      <use x="494.482422" xlink:href="#DejaVuSans-110"/>
      <use x="557.861328" xlink:href="#DejaVuSans-115"/>
     </g>
    </g>
   </g>
   <g id="matplotlib.axis_2">
    <g id="ytick_1">
     <g id="line2d_15">
      <path clip-path="url(#p91231c85d2)" d="M 57.6 286.62187 
L 414.72 286.62187 
" style="fill:none;stroke:#b0b0b0;stroke-linecap:square;stroke-width:0.8;"/>
     </g>
     <g id="line2d_16">
      <defs>
       <path d="M 0 0 
L -3.5 0 
" id="m548641c831" style="stroke:#000000;stroke-width:0.8;"/>
      </defs>
      <g>
       <use style="stroke:#000000;stroke-width:0.8;" x="57.6" xlink:href="#m548641c831" y="286.62187"/>
      </g>
     </g>
     <g id="text_9">
      <!-- 400 -->
      <defs>
       <path d="M 37.796875 64.3125 
L 12.890625 25.390625 
L 37.796875 25.390625 
z
M 35.203125 72.90625 
L 47.609375 72.90625 
L 47.609375 25.390625 
L 58.015625 25.390625 
L 58.015625 17.1875 
L 47.609375 17.1875 
L 47.609375 0 
L 37.796875 0 
L 37.796875 17.1875 
L 4.890625 17.1875 
L 4.890625 26.703125 
z
" id="DejaVuSans-52"/>
      </defs>
      <g transform="translate(31.5125 290.421089)scale(0.1 -0.1)">
       <use xlink:href="#DejaVuSans-52"/>
       <use x="63.623047" xlink:href="#DejaVuSans-48"/>
       <use x="127.246094" xlink:href="#DejaVuSans-48"/>
      </g>
     </g>
    </g>
    <g id="ytick_2">
     <g id="line2d_17">
      <path clip-path="url(#p91231c85d2)" d="M 57.6 255.111461 
L 414.72 255.111461 
" style="fill:none;stroke:#b0b0b0;stroke-linecap:square;stroke-width:0.8;"/>
     </g>
     <g id="line2d_18">
      <g>
       <use style="stroke:#000000;stroke-width:0.8;" x="57.6" xlink:href="#m548641c831" y="255.111461"/>
      </g>
     </g>
     <g id="text_10">
      <!-- 600 -->
      <defs>
       <path d="M 33.015625 40.375 
Q 26.375 40.375 22.484375 35.828125 
Q 18.609375 31.296875 18.609375 23.390625 
Q 18.609375 15.53125 22.484375 10.953125 
Q 26.375 6.390625 33.015625 6.390625 
Q 39.65625 6.390625 43.53125 10.953125 
Q 47.40625 15.53125 47.40625 23.390625 
Q 47.40625 31.296875 43.53125 35.828125 
Q 39.65625 40.375 33.015625 40.375 
z
M 52.59375 71.296875 
L 52.59375 62.3125 
Q 48.875 64.0625 45.09375 64.984375 
Q 41.3125 65.921875 37.59375 65.921875 
Q 27.828125 65.921875 22.671875 59.328125 
Q 17.53125 52.734375 16.796875 39.40625 
Q 19.671875 43.65625 24.015625 45.921875 
Q 28.375 48.1875 33.59375 48.1875 
Q 44.578125 48.1875 50.953125 41.515625 
Q 57.328125 34.859375 57.328125 23.390625 
Q 57.328125 12.15625 50.6875 5.359375 
Q 44.046875 -1.421875 33.015625 -1.421875 
Q 20.359375 -1.421875 13.671875 8.265625 
Q 6.984375 17.96875 6.984375 36.375 
Q 6.984375 53.65625 15.1875 63.9375 
Q 23.390625 74.21875 37.203125 74.21875 
Q 40.921875 74.21875 44.703125 73.484375 
Q 48.484375 72.75 52.59375 71.296875 
z
" id="DejaVuSans-54"/>
      </defs>
      <g transform="translate(31.5125 258.91068)scale(0.1 -0.1)">
       <use xlink:href="#DejaVuSans-54"/>
       <use x="63.623047" xlink:href="#DejaVuSans-48"/>
       <use x="127.246094" xlink:href="#DejaVuSans-48"/>
      </g>
     </g>
    </g>
    <g id="ytick_3">
     <g id="line2d_19">
      <path clip-path="url(#p91231c85d2)" d="M 57.6 223.601052 
L 414.72 223.601052 
" style="fill:none;stroke:#b0b0b0;stroke-linecap:square;stroke-width:0.8;"/>
     </g>
     <g id="line2d_20">
      <g>
       <use style="stroke:#000000;stroke-width:0.8;" x="57.6" xlink:href="#m548641c831" y="223.601052"/>
      </g>
     </g>
     <g id="text_11">
      <!-- 800 -->
      <defs>
       <path d="M 31.78125 34.625 
Q 24.75 34.625 20.71875 30.859375 
Q 16.703125 27.09375 16.703125 20.515625 
Q 16.703125 13.921875 20.71875 10.15625 
Q 24.75 6.390625 31.78125 6.390625 
Q 38.8125 6.390625 42.859375 10.171875 
Q 46.921875 13.96875 46.921875 20.515625 
Q 46.921875 27.09375 42.890625 30.859375 
Q 38.875 34.625 31.78125 34.625 
z
M 21.921875 38.8125 
Q 15.578125 40.375 12.03125 44.71875 
Q 8.5 49.078125 8.5 55.328125 
Q 8.5 64.0625 14.71875 69.140625 
Q 20.953125 74.21875 31.78125 74.21875 
Q 42.671875 74.21875 48.875 69.140625 
Q 55.078125 64.0625 55.078125 55.328125 
Q 55.078125 49.078125 51.53125 44.71875 
Q 48 40.375 41.703125 38.8125 
Q 48.828125 37.15625 52.796875 32.3125 
Q 56.78125 27.484375 56.78125 20.515625 
Q 56.78125 9.90625 50.3125 4.234375 
Q 43.84375 -1.421875 31.78125 -1.421875 
Q 19.734375 -1.421875 13.25 4.234375 
Q 6.78125 9.90625 6.78125 20.515625 
Q 6.78125 27.484375 10.78125 32.3125 
Q 14.796875 37.15625 21.921875 38.8125 
z
M 18.3125 54.390625 
Q 18.3125 48.734375 21.84375 45.5625 
Q 25.390625 42.390625 31.78125 42.390625 
Q 38.140625 42.390625 41.71875 45.5625 
Q 45.3125 48.734375 45.3125 54.390625 
Q 45.3125 60.0625 41.71875 63.234375 
Q 38.140625 66.40625 31.78125 66.40625 
Q 25.390625 66.40625 21.84375 63.234375 
Q 18.3125 60.0625 18.3125 54.390625 
z
" id="DejaVuSans-56"/>
      </defs>
      <g transform="translate(31.5125 227.400271)scale(0.1 -0.1)">
       <use xlink:href="#DejaVuSans-56"/>
       <use x="63.623047" xlink:href="#DejaVuSans-48"/>
       <use x="127.246094" xlink:href="#DejaVuSans-48"/>
      </g>
     </g>
    </g>
    <g id="ytick_4">
     <g id="line2d_21">
      <path clip-path="url(#p91231c85d2)" d="M 57.6 192.090643 
L 414.72 192.090643 
" style="fill:none;stroke:#b0b0b0;stroke-linecap:square;stroke-width:0.8;"/>
     </g>
     <g id="line2d_22">
      <g>
       <use style="stroke:#000000;stroke-width:0.8;" x="57.6" xlink:href="#m548641c831" y="192.090643"/>
      </g>
     </g>
     <g id="text_12">
      <!-- 1000 -->
      <g transform="translate(25.15 195.889862)scale(0.1 -0.1)">
       <use xlink:href="#DejaVuSans-49"/>
       <use x="63.623047" xlink:href="#DejaVuSans-48"/>
       <use x="127.246094" xlink:href="#DejaVuSans-48"/>
       <use x="190.869141" xlink:href="#DejaVuSans-48"/>
      </g>
     </g>
    </g>
    <g id="ytick_5">
     <g id="line2d_23">
      <path clip-path="url(#p91231c85d2)" d="M 57.6 160.580234 
L 414.72 160.580234 
" style="fill:none;stroke:#b0b0b0;stroke-linecap:square;stroke-width:0.8;"/>
     </g>
     <g id="line2d_24">
      <g>
       <use style="stroke:#000000;stroke-width:0.8;" x="57.6" xlink:href="#m548641c831" y="160.580234"/>
      </g>
     </g>
     <g id="text_13">
      <!-- 1200 -->
      <g transform="translate(25.15 164.379453)scale(0.1 -0.1)">
       <use xlink:href="#DejaVuSans-49"/>
       <use x="63.623047" xlink:href="#DejaVuSans-50"/>
       <use x="127.246094" xlink:href="#DejaVuSans-48"/>
       <use x="190.869141" xlink:href="#DejaVuSans-48"/>
      </g>
     </g>
    </g>
    <g id="ytick_6">
     <g id="line2d_25">
      <path clip-path="url(#p91231c85d2)" d="M 57.6 129.069825 
L 414.72 129.069825 
" style="fill:none;stroke:#b0b0b0;stroke-linecap:square;stroke-width:0.8;"/>
     </g>
     <g id="line2d_26">
      <g>
       <use style="stroke:#000000;stroke-width:0.8;" x="57.6" xlink:href="#m548641c831" y="129.069825"/>
      </g>
     </g>
     <g id="text_14">
      <!-- 1400 -->
      <g transform="translate(25.15 132.869044)scale(0.1 -0.1)">
       <use xlink:href="#DejaVuSans-49"/>
       <use x="63.623047" xlink:href="#DejaVuSans-52"/>
       <use x="127.246094" xlink:href="#DejaVuSans-48"/>
       <use x="190.869141" xlink:href="#DejaVuSans-48"/>
      </g>
     </g>
    </g>
    <g id="ytick_7">
     <g id="line2d_27">
      <path clip-path="url(#p91231c85d2)" d="M 57.6 97.559416 
L 414.72 97.559416 
" style="fill:none;stroke:#b0b0b0;stroke-linecap:square;stroke-width:0.8;"/>
     </g>
     <g id="line2d_28">
      <g>
       <use style="stroke:#000000;stroke-width:0.8;" x="57.6" xlink:href="#m548641c831" y="97.559416"/>
      </g>
     </g>
     <g id="text_15">
      <!-- 1600 -->
      <g transform="translate(25.15 101.358635)scale(0.1 -0.1)">
       <use xlink:href="#DejaVuSans-49"/>
       <use x="63.623047" xlink:href="#DejaVuSans-54"/>
       <use x="127.246094" xlink:href="#DejaVuSans-48"/>
       <use x="190.869141" xlink:href="#DejaVuSans-48"/>
      </g>
     </g>
    </g>
    <g id="ytick_8">
     <g id="line2d_29">
      <path clip-path="url(#p91231c85d2)" d="M 57.6 66.049007 
L 414.72 66.049007 
" style="fill:none;stroke:#b0b0b0;stroke-linecap:square;stroke-width:0.8;"/>
     </g>
     <g id="line2d_30">
      <g>
       <use style="stroke:#000000;stroke-width:0.8;" x="57.6" xlink:href="#m548641c831" y="66.049007"/>
      </g>
     </g>
     <g id="text_16">
      <!-- 1800 -->
      <g transform="translate(25.15 69.848226)scale(0.1 -0.1)">
       <use xlink:href="#DejaVuSans-49"/>
       <use x="63.623047" xlink:href="#DejaVuSans-56"/>
       <use x="127.246094" xlink:href="#DejaVuSans-48"/>
       <use x="190.869141" xlink:href="#DejaVuSans-48"/>
      </g>
     </g>
    </g>
    <g id="text_17">
     <!-- Fitness -->
     <defs>
      <path d="M 9.8125 72.90625 
L 51.703125 72.90625 
L 51.703125 64.59375 
L 19.671875 64.59375 
L 19.671875 43.109375 
L 48.578125 43.109375 
L 48.578125 34.8125 
L 19.671875 34.8125 
L 19.671875 0 
L 9.8125 0 
z
" id="DejaVuSans-70"/>
     </defs>
     <g transform="translate(19.070312 192.202219)rotate(-90)scale(0.1 -0.1)">
      <use xlink:href="#DejaVuSans-70"/>
      <use x="57.410156" xlink:href="#DejaVuSans-105"/>
      <use x="85.193359" xlink:href="#DejaVuSans-116"/>
      <use x="124.402344" xlink:href="#DejaVuSans-110"/>
      <use x="187.78125" xlink:href="#DejaVuSans-101"/>
      <use x="249.304688" xlink:href="#DejaVuSans-115"/>
      <use x="301.404297" xlink:href="#DejaVuSans-115"/>
     </g>
    </g>
   </g>
   <g id="line2d_31">
    <path clip-path="url(#p91231c85d2)" d="M 73.832727 291.887104 
L 74.918528 270.831031 
L 76.00433 253.950424 
L 77.090131 257.193189 
L 78.175932 247.153937 
L 79.261733 249.324632 
L 80.347534 250.630343 
L 81.433335 243.886302 
L 82.519137 233.383099 
L 83.604938 244.867449 
L 84.690739 234.25472 
L 86.862341 228.574116 
L 87.948142 230.248816 
L 89.033943 235.992317 
L 90.119745 226.036188 
L 91.205546 232.293213 
L 92.291347 232.744665 
L 93.377148 231.595013 
L 94.462949 228.360898 
L 95.54875 226.311461 
L 96.634552 232.779399 
L 97.720353 211.947921 
L 98.806154 226.048372 
L 99.891955 233.28761 
L 100.977756 230.214653 
L 102.063557 215.213324 
L 103.149358 214.786969 
L 104.23516 212.474306 
L 105.320961 195.378086 
L 107.492563 213.885407 
L 108.578364 206.993464 
L 109.664165 210.38532 
L 110.749967 207.985647 
L 112.921569 199.304285 
L 114.00737 210.786057 
L 115.093171 225.753153 
L 116.178972 210.110673 
L 117.264773 222.290392 
L 118.350575 225.438955 
L 119.436376 223.622348 
L 120.522177 224.055011 
L 121.607978 197.831931 
L 122.693779 226.9157 
L 123.77958 217.96714 
L 124.865382 210.378659 
L 125.951183 210.028357 
L 127.036984 205.749966 
L 129.208586 218.333541 
L 130.294387 206.202713 
L 131.380189 215.894597 
L 132.46599 205.692785 
L 133.551791 184.731073 
L 134.637592 175.466733 
L 135.723393 201.656469 
L 136.809194 184.473533 
L 137.894995 200.933002 
L 138.980797 178.006379 
L 141.152399 213.20221 
L 142.2382 201.675429 
L 143.324001 184.051222 
L 144.409802 194.95444 
L 145.495604 191.603265 
L 146.581405 168.080167 
L 147.667206 168.433397 
L 148.753007 210.75938 
L 149.838808 183.478004 
L 150.924609 183.571264 
L 152.01041 190.991021 
L 153.096212 189.275729 
L 154.182013 170.088207 
L 155.267814 184.108001 
L 156.353615 179.648056 
L 157.439416 198.919745 
L 158.525217 193.248378 
L 159.611019 183.585597 
L 160.69682 195.454084 
L 161.782621 181.578595 
L 162.868422 186.329691 
L 163.954223 188.803301 
L 165.040024 173.348969 
L 166.125825 185.399918 
L 167.211627 192.690812 
L 168.297428 191.960431 
L 170.46903 176.097818 
L 171.554831 216.143221 
L 172.640632 195.23484 
L 173.726434 194.2059 
L 174.812235 212.11861 
L 175.898036 180.816247 
L 176.983837 197.069161 
L 179.155439 214.75356 
L 180.24124 191.740891 
L 181.327042 200.359839 
L 182.412843 201.152774 
L 183.498644 180.929516 
L 184.584445 184.156324 
L 185.670246 209.961812 
L 186.756047 193.701985 
L 187.841849 186.712677 
L 188.92765 195.680563 
L 190.013451 185.294023 
L 191.099252 148.126903 
L 192.185053 182.043306 
L 193.270854 183.260666 
L 194.356656 178.590416 
L 195.442457 183.711423 
L 196.528258 182.890127 
L 197.614059 179.170915 
L 198.69986 175.01474 
L 199.785661 169.223086 
L 200.871462 169.644015 
L 201.957264 155.558164 
L 203.043065 156.506667 
L 204.128866 155.532832 
L 205.214667 170.616298 
L 206.300468 175.29385 
L 207.386269 154.312483 
L 208.472071 169.254311 
L 209.557872 165.909708 
L 210.643673 168.440698 
L 211.729474 150.253367 
L 212.815275 177.088389 
L 213.901076 171.456586 
L 214.986877 171.925386 
L 216.072679 170.156321 
L 217.15848 176.750098 
L 218.244281 151.931027 
L 219.330082 164.732437 
L 220.415883 188.114501 
L 221.501684 176.701333 
L 222.587486 169.481688 
L 223.673287 180.799905 
L 224.759088 164.749366 
L 225.844889 157.855645 
L 226.93069 153.362923 
L 228.016491 175.332531 
L 229.102292 160.403702 
L 230.188094 186.222909 
L 231.273895 159.576705 
L 232.359696 173.306032 
L 233.445497 161.181516 
L 234.531298 163.614483 
L 235.617099 159.915887 
L 236.702901 165.368366 
L 237.788702 195.646844 
L 238.874503 184.555065 
L 239.960304 168.800744 
L 241.046105 167.085656 
L 242.131906 176.428899 
L 243.217708 150.421015 
L 244.303509 165.003622 
L 245.38931 168.478717 
L 246.475111 180.598641 
L 247.560912 184.483956 
L 249.732514 159.464731 
L 250.818316 166.504109 
L 251.904117 154.84404 
L 252.989918 172.283744 
L 254.075719 159.952718 
L 255.16152 180.716614 
L 256.247321 164.344345 
L 257.333123 173.513945 
L 258.418924 172.918537 
L 259.504725 178.213986 
L 261.676327 155.047399 
L 262.762128 165.999173 
L 263.847929 158.41192 
L 264.933731 161.550201 
L 266.019532 140.016896 
L 267.105333 171.187968 
L 268.191134 140.098198 
L 269.276935 165.14431 
L 270.362736 151.772523 
L 271.448538 132.624937 
L 272.534339 146.443117 
L 273.62014 152.864055 
L 274.705941 145.682808 
L 275.791742 140.286205 
L 276.877543 148.552604 
L 277.963344 175.236282 
L 279.049146 165.348755 
L 280.134947 160.784485 
L 281.220748 135.994415 
L 282.306549 146.191723 
L 283.39235 154.36036 
L 284.478151 141.716095 
L 285.563953 176.569363 
L 286.649754 175.795556 
L 287.735555 170.270617 
L 288.821356 158.150418 
L 289.907157 161.75305 
L 290.992958 169.769164 
L 292.07876 163.135984 
L 293.164561 136.467266 
L 294.250362 121.467564 
L 295.336163 152.903078 
L 296.421964 141.047885 
L 297.507765 177.445569 
L 298.593566 160.125906 
L 299.679368 168.157447 
L 300.765169 167.593673 
L 301.85097 160.833061 
L 302.936771 153.264387 
L 304.022572 139.906317 
L 305.108373 164.736053 
L 306.194175 150.300878 
L 307.279976 163.583908 
L 308.365777 149.631372 
L 309.451578 143.817922 
L 310.537379 146.884618 
L 311.62318 160.235104 
L 312.708981 131.449065 
L 313.794783 147.772112 
L 314.880584 141.214069 
L 315.966385 152.325417 
L 317.052186 178.791789 
L 318.137987 121.689172 
L 319.223788 163.27593 
L 320.30959 175.640409 
L 321.395391 145.491547 
L 322.481192 148.416763 
L 323.566993 164.81596 
L 324.652794 160.469928 
L 325.738595 183.132617 
L 326.824396 150.664311 
L 327.910198 161.328836 
L 328.995999 161.097368 
L 330.0818 153.948234 
L 331.167601 160.798248 
L 332.253402 154.180958 
L 333.339203 166.192529 
L 334.425005 118.46745 
L 335.510806 170.375356 
L 336.596607 146.13082 
L 337.682408 150.518915 
L 338.768209 184.186917 
L 339.85401 181.118988 
L 340.939811 160.957795 
L 342.025613 161.207997 
L 343.111414 147.036215 
L 344.197215 143.632119 
L 345.283016 181.743608 
L 346.368817 168.955392 
L 347.454618 150.482177 
L 348.54042 166.083185 
L 349.626221 154.870559 
L 350.712022 163.591555 
L 351.797823 131.779526 
L 352.883624 144.87299 
L 353.969425 172.672524 
L 355.055227 148.921934 
L 356.141028 159.757726 
L 357.226829 164.023628 
L 358.31263 159.477679 
L 359.398431 143.711722 
L 360.484232 146.797922 
L 361.570033 153.550197 
L 362.655835 152.438491 
L 363.741636 153.586649 
L 364.827437 139.850412 
L 365.913238 142.49602 
L 366.999039 152.066007 
L 368.08484 166.852572 
L 369.170642 154.34564 
L 370.256443 145.663383 
L 371.342244 156.906874 
L 372.428045 162.26001 
L 373.513846 155.301271 
L 374.599647 155.93009 
L 375.685448 152.389675 
L 376.77125 134.277329 
L 377.857051 144.235006 
L 378.942852 143.105038 
L 380.028653 138.048296 
L 381.114454 165.675245 
L 382.200255 177.459242 
L 383.286057 175.683262 
L 384.371858 154.363249 
L 385.457659 149.897131 
L 386.54346 156.837403 
L 387.629261 130.866063 
L 388.715062 135.518524 
L 389.800863 135.99201 
L 390.886665 142.691323 
L 393.058267 154.762121 
L 394.144068 158.550554 
L 395.229869 180.148133 
L 396.31567 170.114061 
L 397.401472 172.673458 
L 398.487273 147.113709 
L 398.487273 147.113709 
" style="fill:none;stroke:#0000ff;stroke-linecap:square;stroke-width:1.5;"/>
   </g>
   <g id="line2d_32">
    <path clip-path="url(#p91231c85d2)" d="M 73.832727 295.488 
L 74.918528 274.997698 
L 76.00433 256.92764 
L 77.090131 265.588845 
L 78.175932 254.145835 
L 79.261733 262.926269 
L 80.347534 261.694051 
L 81.433335 259.860428 
L 82.519137 247.977689 
L 83.604938 258.449127 
L 84.690739 243.14969 
L 85.77654 241.847977 
L 86.862341 242.258591 
L 87.948142 241.981301 
L 89.033943 248.749708 
L 90.119745 242.210061 
L 92.291347 254.608353 
L 93.377148 252.592711 
L 94.462949 244.716959 
L 95.54875 241.274751 
L 96.634552 253.241303 
L 97.720353 232.557145 
L 98.806154 243.930328 
L 99.891955 258.824879 
L 100.977756 248.41751 
L 102.063557 233.417715 
L 103.149358 237.236596 
L 104.23516 236.505026 
L 105.320961 216.509979 
L 106.406762 226.623675 
L 107.492563 238.428297 
L 108.578364 230.028939 
L 109.664165 234.555227 
L 110.749967 233.368857 
L 111.835768 230.031753 
L 112.921569 229.180826 
L 114.00737 243.33513 
L 115.093171 253.660648 
L 116.178972 241.630177 
L 117.264773 249.395826 
L 118.350575 248.924389 
L 119.436376 253.957967 
L 120.522177 247.949907 
L 121.607978 228.780775 
L 122.693779 249.618266 
L 123.77958 236.252627 
L 124.865382 241.455061 
L 125.951183 234.17273 
L 127.036984 233.70727 
L 128.122785 242.606481 
L 129.208586 240.842422 
L 130.294387 230.579483 
L 131.380189 241.601859 
L 132.46599 230.896805 
L 133.551791 209.585332 
L 134.637592 201.260345 
L 135.723393 231.328854 
L 136.809194 215.889245 
L 137.894995 231.017854 
L 138.980797 216.8898 
L 140.066598 227.757615 
L 141.152399 241.493586 
L 142.2382 235.079468 
L 143.324001 222.895253 
L 144.409802 227.804415 
L 145.495604 229.334642 
L 146.581405 206.024395 
L 147.667206 217.039709 
L 148.753007 244.105243 
L 149.838808 223.429551 
L 150.924609 222.352497 
L 152.01041 229.844398 
L 153.096212 224.907891 
L 154.182013 203.772686 
L 155.267814 224.012478 
L 156.353615 223.116995 
L 157.439416 235.643716 
L 158.525217 231.247208 
L 159.611019 218.404897 
L 160.69682 231.802183 
L 161.782621 224.87576 
L 162.868422 226.149942 
L 163.954223 236.689518 
L 165.040024 214.602782 
L 167.211627 230.061895 
L 168.297428 232.022885 
L 169.383229 223.345854 
L 170.46903 211.044531 
L 171.554831 244.9391 
L 172.640632 239.033864 
L 173.726434 230.316133 
L 174.812235 249.442453 
L 175.898036 216.798278 
L 176.983837 236.517591 
L 178.069638 240.500498 
L 179.155439 246.684145 
L 180.24124 235.156258 
L 181.327042 240.720619 
L 182.412843 235.638208 
L 183.498644 226.161643 
L 184.584445 219.837929 
L 185.670246 246.782571 
L 186.756047 231.197596 
L 187.841849 227.496645 
L 188.92765 236.282412 
L 190.013451 226.590437 
L 191.099252 191.309666 
L 192.185053 226.161014 
L 193.270854 224.595015 
L 194.356656 230.003264 
L 195.442457 227.156505 
L 196.528258 242.163191 
L 197.614059 219.031221 
L 198.69986 204.148441 
L 199.785661 213.711102 
L 200.871462 208.848338 
L 201.957264 204.591452 
L 203.043065 205.001912 
L 204.128866 197.397867 
L 205.214667 221.972877 
L 206.300468 219.200086 
L 207.386269 200.107913 
L 208.472071 220.074424 
L 209.557872 214.192055 
L 210.643673 210.572558 
L 211.729474 200.171096 
L 212.815275 215.548338 
L 213.901076 218.157861 
L 214.986877 218.484604 
L 216.072679 222.438405 
L 217.15848 221.045194 
L 218.244281 199.039798 
L 219.330082 211.621748 
L 220.415883 236.24596 
L 221.501684 224.136609 
L 222.587486 214.864514 
L 223.673287 219.202908 
L 224.759088 206.85912 
L 225.844889 199.962443 
L 226.93069 199.400062 
L 228.016491 215.714464 
L 229.102292 204.022168 
L 230.188094 223.728786 
L 231.273895 205.819532 
L 232.359696 216.544383 
L 233.445497 201.474195 
L 234.531298 208.238268 
L 235.617099 203.081835 
L 236.702901 212.040604 
L 237.788702 234.114855 
L 238.874503 220.025556 
L 239.960304 211.919292 
L 241.046105 216.052638 
L 242.131906 209.847388 
L 243.217708 193.773207 
L 244.303509 205.116025 
L 245.38931 206.526435 
L 246.475111 222.458116 
L 247.560912 220.987964 
L 248.646713 216.970061 
L 249.732514 203.679477 
L 250.818316 212.55023 
L 251.904117 199.470918 
L 252.989918 219.252198 
L 254.075719 204.826444 
L 255.16152 230.753756 
L 256.247321 206.051194 
L 257.333123 220.364329 
L 258.418924 222.12776 
L 259.504725 218.475735 
L 260.590526 206.254203 
L 261.676327 197.560575 
L 262.762128 219.782193 
L 263.847929 206.365235 
L 264.933731 207.69386 
L 266.019532 193.199446 
L 267.105333 215.671956 
L 268.191134 190.413006 
L 269.276935 208.526766 
L 270.362736 191.720871 
L 271.448538 182.831989 
L 272.534339 201.271108 
L 273.62014 198.422477 
L 274.705941 194.815965 
L 275.791742 187.383025 
L 276.877543 190.745304 
L 277.963344 222.779009 
L 279.049146 220.167114 
L 280.134947 208.368173 
L 281.220748 183.842772 
L 282.306549 198.266912 
L 283.39235 207.176251 
L 284.478151 192.235247 
L 285.563953 226.237329 
L 286.649754 211.825279 
L 287.735555 215.977692 
L 288.821356 211.92593 
L 289.907157 214.388913 
L 290.992958 225.558683 
L 292.07876 213.646474 
L 293.164561 182.3044 
L 294.250362 161.208952 
L 295.336163 203.213639 
L 296.421964 191.691935 
L 297.507765 225.169264 
L 298.593566 206.261157 
L 299.679368 212.971745 
L 300.765169 204.536802 
L 301.85097 219.356675 
L 302.936771 217.945217 
L 304.022572 186.516155 
L 305.108373 214.580378 
L 306.194175 196.974239 
L 307.279976 211.465306 
L 308.365777 188.190348 
L 309.451578 198.178422 
L 310.537379 199.092699 
L 311.62318 218.634728 
L 312.708981 178.599647 
L 313.794783 207.23627 
L 314.880584 190.748524 
L 315.966385 223.803875 
L 317.052186 228.603373 
L 318.137987 189.810343 
L 319.223788 220.381636 
L 320.30959 231.590641 
L 321.395391 196.568056 
L 323.566993 220.982141 
L 324.652794 199.983326 
L 325.738595 236.093368 
L 326.824396 208.632059 
L 327.910198 217.852047 
L 328.995999 224.309123 
L 330.0818 212.361767 
L 331.167601 218.936158 
L 332.253402 201.450843 
L 333.339203 207.343392 
L 334.425005 175.888917 
L 335.510806 221.612697 
L 336.596607 194.114128 
L 337.682408 209.881644 
L 338.768209 243.66434 
L 339.85401 244.874457 
L 340.939811 222.509983 
L 342.025613 232.778471 
L 343.111414 193.007079 
L 344.197215 208.038264 
L 345.283016 247.59277 
L 346.368817 225.887101 
L 347.454618 199.334767 
L 348.54042 219.844502 
L 349.626221 202.332392 
L 350.712022 214.318952 
L 351.797823 182.737471 
L 352.883624 194.460139 
L 353.969425 225.130549 
L 355.055227 201.969242 
L 356.141028 209.641348 
L 357.226829 218.688326 
L 358.31263 219.431657 
L 359.398431 184.411478 
L 360.484232 195.918433 
L 361.570033 199.229519 
L 362.655835 195.968078 
L 363.741636 196.362158 
L 364.827437 188.878394 
L 365.913238 196.293954 
L 366.999039 200.40805 
L 368.08484 210.107646 
L 369.170642 204.489107 
L 370.256443 203.077902 
L 371.342244 212.998753 
L 372.428045 203.743257 
L 373.513846 209.155465 
L 374.599647 207.07824 
L 375.685448 211.135067 
L 376.77125 181.375184 
L 377.857051 187.157111 
L 378.942852 208.508763 
L 380.028653 181.100093 
L 381.114454 217.221481 
L 382.200255 233.720289 
L 383.286057 226.519236 
L 384.371858 198.944066 
L 385.457659 205.537714 
L 386.54346 216.013868 
L 387.629261 186.368509 
L 388.715062 199.405626 
L 389.800863 188.355371 
L 390.886665 184.633883 
L 391.972466 201.564705 
L 393.058267 200.936079 
L 394.144068 194.537549 
L 395.229869 221.163181 
L 396.31567 222.456542 
L 397.401472 221.70193 
L 398.487273 192.108326 
L 398.487273 192.108326 
" style="fill:none;stroke:#008000;stroke-dasharray:9.6,2.4,1.5,2.4;stroke-dashoffset:0;stroke-width:1.5;"/>
   </g>
   <g id="line2d_33">
    <path clip-path="url(#p91231c85d2)" d="M 73.832727 288.286207 
L 74.918528 266.664364 
L 76.00433 250.973208 
L 77.090131 248.797532 
L 78.175932 240.162039 
L 79.261733 235.722994 
L 80.347534 239.566635 
L 81.433335 227.912175 
L 82.519137 218.788509 
L 83.604938 231.285771 
L 84.690739 225.359751 
L 85.77654 221.189379 
L 86.862341 214.889642 
L 87.948142 218.51633 
L 89.033943 223.234926 
L 90.119745 209.862316 
L 91.205546 216.072698 
L 92.291347 210.880977 
L 93.377148 210.597316 
L 94.462949 212.004837 
L 95.54875 211.34817 
L 96.634552 212.317496 
L 97.720353 191.338698 
L 98.806154 208.166416 
L 99.891955 207.750341 
L 100.977756 212.011796 
L 102.063557 197.008932 
L 103.149358 192.337342 
L 104.23516 188.443587 
L 105.320961 174.246193 
L 106.406762 183.413049 
L 107.492563 189.342516 
L 108.578364 183.957989 
L 109.664165 186.215414 
L 110.749967 182.602438 
L 111.835768 177.404871 
L 112.921569 169.427744 
L 114.00737 178.236984 
L 115.093171 197.845657 
L 116.178972 178.591169 
L 117.264773 195.184957 
L 118.350575 201.953521 
L 119.436376 193.28673 
L 120.522177 200.160115 
L 121.607978 166.883088 
L 122.693779 204.213134 
L 123.77958 199.681652 
L 124.865382 179.302257 
L 125.951183 185.883984 
L 127.036984 177.792663 
L 128.122785 181.432913 
L 129.208586 195.824659 
L 130.294387 181.825944 
L 131.380189 190.187334 
L 132.46599 180.488765 
L 133.551791 159.876814 
L 134.637592 149.673121 
L 135.723393 171.984084 
L 136.809194 153.05782 
L 137.894995 170.848149 
L 138.980797 139.122958 
L 140.066598 164.962753 
L 141.152399 184.910834 
L 142.2382 168.27139 
L 143.324001 145.20719 
L 144.409802 162.104465 
L 145.495604 153.871887 
L 146.581405 130.135939 
L 147.667206 119.827084 
L 148.753007 177.413517 
L 149.838808 143.526458 
L 150.924609 144.79003 
L 152.01041 152.137644 
L 153.096212 153.643567 
L 154.182013 136.403727 
L 155.267814 144.203524 
L 156.353615 136.179116 
L 157.439416 162.195774 
L 159.611019 148.766296 
L 160.69682 159.105986 
L 161.782621 138.281429 
L 162.868422 146.509439 
L 163.954223 140.917084 
L 165.040024 132.095156 
L 166.125825 148.058058 
L 167.211627 155.31973 
L 168.297428 151.897976 
L 169.383229 145.049668 
L 170.46903 141.151106 
L 171.554831 187.347343 
L 172.640632 151.435816 
L 173.726434 158.095667 
L 174.812235 174.794767 
L 175.898036 144.834217 
L 179.155439 182.822975 
L 180.24124 148.325523 
L 181.327042 159.999059 
L 182.412843 166.66734 
L 183.498644 135.697388 
L 184.584445 148.47472 
L 185.670246 173.141052 
L 186.756047 156.206373 
L 187.841849 145.92871 
L 188.92765 155.078714 
L 190.013451 143.997608 
L 191.099252 104.944139 
L 192.185053 137.925597 
L 193.270854 141.926316 
L 194.356656 127.177568 
L 195.442457 140.266341 
L 196.528258 123.617063 
L 197.614059 139.310609 
L 198.69986 145.881038 
L 199.785661 124.73507 
L 200.871462 130.439692 
L 201.957264 106.524876 
L 203.043065 108.011423 
L 205.214667 119.259719 
L 206.300468 131.387615 
L 207.386269 108.517052 
L 208.472071 118.434199 
L 209.557872 117.627361 
L 210.643673 126.308839 
L 211.729474 100.335639 
L 212.815275 138.62844 
L 213.901076 124.755311 
L 214.986877 125.366169 
L 216.072679 117.874237 
L 217.15848 132.455002 
L 218.244281 104.822256 
L 219.330082 117.843125 
L 220.415883 139.983042 
L 221.501684 129.266057 
L 222.587486 124.098862 
L 223.673287 142.396902 
L 224.759088 122.639612 
L 225.844889 115.748847 
L 226.93069 107.325784 
L 228.016491 134.950598 
L 229.102292 116.785236 
L 230.188094 148.717033 
L 231.273895 113.333877 
L 232.359696 130.067681 
L 233.445497 120.888838 
L 234.531298 118.990697 
L 235.617099 116.74994 
L 236.702901 118.696129 
L 237.788702 157.178833 
L 238.874503 149.084574 
L 239.960304 125.682195 
L 241.046105 118.118674 
L 242.131906 143.01041 
L 243.217708 107.068824 
L 244.303509 124.891218 
L 245.38931 130.431 
L 246.475111 138.739166 
L 247.560912 147.979948 
L 248.646713 126.793288 
L 249.732514 115.249984 
L 250.818316 120.457987 
L 251.904117 110.217163 
L 252.989918 125.31529 
L 254.075719 115.078993 
L 255.16152 130.679473 
L 256.247321 122.637495 
L 257.333123 126.66356 
L 258.418924 123.709314 
L 259.504725 137.952236 
L 260.590526 126.86574 
L 261.676327 112.534223 
L 262.762128 112.216154 
L 263.847929 110.458606 
L 264.933731 115.406541 
L 266.019532 86.834346 
L 267.105333 126.70398 
L 268.191134 89.783389 
L 269.276935 121.761854 
L 270.362736 111.824175 
L 271.448538 82.417884 
L 272.534339 91.615127 
L 273.62014 107.305634 
L 274.705941 96.549651 
L 275.791742 93.189385 
L 276.877543 106.359904 
L 277.963344 127.693556 
L 279.049146 110.530396 
L 280.134947 113.200797 
L 281.220748 88.146057 
L 282.306549 94.116534 
L 283.39235 101.54447 
L 284.478151 91.196944 
L 285.563953 126.901396 
L 286.649754 139.765834 
L 287.735555 124.563542 
L 288.821356 104.374905 
L 290.992958 113.979644 
L 292.07876 112.625494 
L 293.164561 90.630132 
L 294.250362 81.726176 
L 295.336163 102.592516 
L 296.421964 90.403834 
L 297.507765 129.721874 
L 298.593566 113.990655 
L 299.679368 123.343149 
L 300.765169 130.650543 
L 301.85097 102.309447 
L 302.936771 88.583558 
L 304.022572 93.296478 
L 305.108373 114.891729 
L 306.194175 103.627517 
L 307.279976 115.702511 
L 308.365777 111.072396 
L 309.451578 89.457422 
L 310.537379 94.676537 
L 311.62318 101.83548 
L 312.708981 84.298484 
L 313.794783 88.307955 
L 314.880584 91.679613 
L 315.966385 80.846959 
L 317.052186 128.980205 
L 318.137987 53.568 
L 319.223788 106.170223 
L 320.30959 119.690176 
L 321.395391 94.415038 
L 322.481192 88.609531 
L 323.566993 108.649778 
L 324.652794 120.95653 
L 325.738595 130.171866 
L 326.824396 92.696563 
L 327.910198 104.805625 
L 328.995999 97.885613 
L 330.0818 95.5347 
L 331.167601 102.660338 
L 332.253402 106.911073 
L 333.339203 125.041665 
L 334.425005 61.045983 
L 335.510806 119.138015 
L 336.596607 98.147512 
L 337.682408 91.156187 
L 338.768209 124.709495 
L 339.85401 117.363518 
L 340.939811 99.405607 
L 342.025613 89.637523 
L 343.111414 101.06535 
L 344.197215 79.225974 
L 345.283016 115.894447 
L 346.368817 112.023683 
L 347.454618 101.629586 
L 348.54042 112.321867 
L 349.626221 107.408725 
L 350.712022 112.864157 
L 351.797823 80.82158 
L 352.883624 95.285841 
L 353.969425 120.214498 
L 355.055227 95.874627 
L 356.141028 109.874105 
L 357.226829 109.35893 
L 358.31263 99.523702 
L 359.398431 103.011965 
L 360.484232 97.677412 
L 361.570033 107.870875 
L 362.655835 108.908904 
L 363.741636 110.811141 
L 364.827437 90.822431 
L 365.913238 88.698086 
L 366.999039 103.723963 
L 368.08484 123.597498 
L 369.170642 104.202174 
L 370.256443 88.248864 
L 371.342244 100.814994 
L 372.428045 120.776763 
L 373.513846 101.447077 
L 374.599647 104.78194 
L 375.685448 93.644284 
L 376.77125 87.179474 
L 377.857051 101.312901 
L 378.942852 77.701312 
L 380.028653 94.996499 
L 381.114454 114.129009 
L 382.200255 121.198195 
L 383.286057 124.847288 
L 385.457659 94.256548 
L 386.54346 97.660939 
L 387.629261 75.363616 
L 388.715062 71.631421 
L 389.800863 83.62865 
L 390.886665 100.748764 
L 391.972466 95.340226 
L 394.144068 122.563559 
L 395.229869 139.133084 
L 396.31567 117.77158 
L 397.401472 123.644986 
L 398.487273 102.119093 
L 398.487273 102.119093 
" style="fill:none;stroke:#008000;stroke-dasharray:9.6,2.4,1.5,2.4;stroke-dashoffset:0;stroke-width:1.5;"/>
   </g>
   <g id="line2d_34">
    <path clip-path="url(#p91231c85d2)" d="M 73.832727 284.045256 
L 74.918528 262.196316 
L 76.00433 245.142949 
L 77.090131 244.125879 
L 78.175932 237.436097 
L 79.261733 232.252005 
L 80.347534 239.939107 
L 81.433335 225.833217 
L 82.519137 219.006532 
L 83.604938 228.860151 
L 84.690739 222.564165 
L 85.77654 216.927295 
L 86.862341 214.309671 
L 87.948142 212.962996 
L 89.033943 219.350731 
L 90.119745 195.722801 
L 91.205546 201.440822 
L 92.291347 203.304814 
L 93.377148 207.353765 
L 94.462949 205.79892 
L 95.54875 205.311768 
L 96.634552 208.013374 
L 97.720353 188.154865 
L 98.806154 202.661106 
L 99.891955 197.158943 
L 100.977756 207.648653 
L 102.063557 192.799247 
L 103.149358 188.566905 
L 104.23516 182.277723 
L 105.320961 170.025202 
L 106.406762 178.636986 
L 107.492563 171.018138 
L 108.578364 167.610958 
L 109.664165 172.24827 
L 110.749967 168.188112 
L 111.835768 168.490495 
L 112.921569 163.456412 
L 114.00737 172.566346 
L 115.093171 183.711599 
L 116.178972 159.761314 
L 117.264773 170.250332 
L 118.350575 184.274848 
L 119.436376 173.079775 
L 120.522177 184.59732 
L 121.607978 151.463233 
L 122.693779 193.489773 
L 123.77958 177.854902 
L 124.865382 154.919792 
L 125.951183 166.780623 
L 127.036984 158.919291 
L 128.122785 164.707443 
L 129.208586 183.160759 
L 130.294387 176.023585 
L 131.380189 177.680666 
L 132.46599 170.648558 
L 133.551791 148.977107 
L 134.637592 142.113834 
L 135.723393 164.20225 
L 136.809194 147.757307 
L 137.894995 156.870574 
L 138.980797 126.097371 
L 141.152399 177.867157 
L 142.2382 159.360758 
L 143.324001 131.159208 
L 144.409802 142.253326 
L 145.495604 142.04087 
L 146.581405 126.889764 
L 147.667206 102.511633 
L 148.753007 166.595688 
L 149.838808 130.915177 
L 150.924609 124.924752 
L 152.01041 129.709598 
L 153.096212 140.990858 
L 154.182013 130.271159 
L 155.267814 125.816568 
L 156.353615 117.790281 
L 157.439416 152.108342 
L 158.525217 149.434292 
L 159.611019 130.747187 
L 160.69682 153.408771 
L 161.782621 117.573718 
L 162.868422 138.954162 
L 163.954223 130.158752 
L 165.040024 119.570418 
L 166.125825 132.035787 
L 167.211627 140.420898 
L 168.297428 136.496624 
L 169.383229 125.053706 
L 170.46903 125.683175 
L 171.554831 170.584712 
L 172.640632 134.51368 
L 173.726434 149.579821 
L 174.812235 159.265047 
L 175.898036 127.244472 
L 176.983837 148.732376 
L 178.069638 145.127732 
L 179.155439 171.521727 
L 180.24124 140.284395 
L 181.327042 142.894688 
L 182.412843 145.160876 
L 183.498644 108.341468 
L 184.584445 144.8671 
L 185.670246 151.539327 
L 186.756047 129.111998 
L 187.841849 132.834532 
L 188.92765 134.982853 
L 190.013451 127.016821 
L 191.099252 104.258126 
L 192.185053 125.636491 
L 193.270854 123.497381 
L 194.356656 101.900868 
L 195.442457 116.129784 
L 196.528258 101.874984 
L 197.614059 118.152777 
L 198.69986 145.580162 
L 199.785661 113.369412 
L 200.871462 118.819362 
L 201.957264 101.921074 
L 203.043065 110.903152 
L 205.214667 115.108527 
L 206.300468 125.787477 
L 207.386269 101.700045 
L 208.472071 109.433376 
L 209.557872 112.206757 
L 210.643673 119.970794 
L 211.729474 97.4741 
L 212.815275 131.941015 
L 213.901076 108.636967 
L 214.986877 120.373497 
L 216.072679 116.944203 
L 217.15848 125.076939 
L 218.244281 102.699596 
L 219.330082 113.376896 
L 220.415883 125.994998 
L 221.501684 123.714888 
L 222.587486 119.253506 
L 223.673287 120.74928 
L 224.759088 111.698492 
L 225.844889 107.936527 
L 226.93069 96.148717 
L 228.016491 124.970453 
L 229.102292 115.831263 
L 230.188094 138.396173 
L 231.273895 110.542436 
L 232.359696 126.620242 
L 233.445497 118.297401 
L 234.531298 107.018966 
L 235.617099 97.209137 
L 236.702901 111.704093 
L 237.788702 140.270649 
L 239.960304 106.688606 
L 241.046105 107.477563 
L 242.131906 134.139202 
L 243.217708 93.496947 
L 244.303509 115.27112 
L 245.38931 116.528953 
L 246.475111 128.540937 
L 247.560912 144.981573 
L 248.646713 96.710577 
L 249.732514 105.045793 
L 250.818316 111.108898 
L 251.904117 99.343913 
L 252.989918 119.890276 
L 254.075719 101.009074 
L 255.16152 111.402378 
L 257.333123 123.581623 
L 258.418924 121.488981 
L 259.504725 125.435752 
L 260.590526 119.506516 
L 261.676327 108.243766 
L 262.762128 107.804968 
L 263.847929 101.955315 
L 264.933731 106.898945 
L 266.019532 83.611665 
L 267.105333 115.582895 
L 268.191134 94.793912 
L 269.276935 120.441873 
L 270.362736 114.119352 
L 271.448538 79.212171 
L 272.534339 86.72868 
L 273.62014 112.31441 
L 274.705941 90.966535 
L 275.791742 94.436238 
L 276.877543 99.712026 
L 277.963344 119.48333 
L 279.049146 110.865653 
L 280.134947 108.199581 
L 281.220748 93.252091 
L 282.306549 92.787777 
L 283.39235 86.69376 
L 284.478151 91.263331 
L 285.563953 116.860868 
L 286.649754 129.463911 
L 287.735555 118.819925 
L 288.821356 102.26914 
L 289.907157 98.78348 
L 290.992958 108.391934 
L 292.07876 108.767934 
L 293.164561 99.143069 
L 294.250362 88.236494 
L 295.336163 97.999283 
L 296.421964 79.989092 
L 297.507765 121.527632 
L 298.593566 105.902246 
L 299.679368 116.873045 
L 300.765169 120.76105 
L 301.85097 97.545868 
L 302.936771 70.062176 
L 304.022572 88.38066 
L 305.108373 112.077519 
L 306.194175 105.838735 
L 307.279976 113.632716 
L 308.365777 107.680731 
L 309.451578 88.227793 
L 310.537379 94.568618 
L 311.62318 102.576919 
L 313.794783 73.672659 
L 314.880584 93.287821 
L 315.966385 79.679083 
L 317.052186 116.73877 
L 318.137987 58.014981 
L 319.223788 112.44938 
L 320.30959 118.880445 
L 321.395391 96.594915 
L 322.481192 85.616409 
L 323.566993 105.631474 
L 324.652794 121.66711 
L 325.738595 135.082335 
L 326.824396 86.795356 
L 327.910198 90.050981 
L 328.995999 86.501965 
L 330.0818 85.769677 
L 331.167601 93.545152 
L 332.253402 111.931622 
L 333.339203 110.27327 
L 334.425005 73.061991 
L 335.510806 112.234332 
L 336.596607 101.832169 
L 337.682408 90.087606 
L 338.768209 117.434902 
L 339.85401 117.082017 
L 340.939811 94.685298 
L 342.025613 90.006619 
L 343.111414 101.611216 
L 344.197215 75.704872 
L 345.283016 98.258548 
L 347.454618 93.164859 
L 348.54042 108.474107 
L 349.626221 107.399791 
L 350.712022 105.194016 
L 351.797823 81.724709 
L 352.883624 93.25752 
L 353.969425 108.177081 
L 355.055227 92.324556 
L 356.141028 102.611098 
L 357.226829 95.487698 
L 358.31263 90.335827 
L 359.398431 103.968413 
L 360.484232 86.362772 
L 361.570033 94.67411 
L 362.655835 99.724231 
L 363.741636 106.317057 
L 364.827437 81.291509 
L 365.913238 81.297768 
L 366.999039 92.656091 
L 368.08484 118.573125 
L 370.256443 80.503967 
L 371.342244 92.322404 
L 372.428045 112.646758 
L 373.513846 88.950294 
L 374.599647 97.506508 
L 375.685448 85.799611 
L 376.77125 88.083612 
L 377.857051 100.449897 
L 378.942852 84.18843 
L 380.028653 98.616985 
L 381.114454 105.273109 
L 382.200255 114.35391 
L 383.286057 117.586503 
L 385.457659 94.28891 
L 386.54346 103.893428 
L 387.629261 77.12492 
L 388.715062 75.496853 
L 389.800863 90.219619 
L 390.886665 100.808315 
L 391.972466 98.749874 
L 393.058267 117.000249 
L 394.144068 130.330571 
L 395.229869 140.905909 
L 396.31567 118.315007 
L 397.401472 124.826035 
L 398.487273 105.757988 
L 398.487273 105.757988 
" style="fill:none;stroke:#ff0000;stroke-linecap:square;stroke-width:1.5;"/>
   </g>
   <g id="patch_3">
    <path d="M 57.6 307.584 
L 57.6 41.472 
" style="fill:none;stroke:#000000;stroke-linecap:square;stroke-linejoin:miter;stroke-width:0.8;"/>
   </g>
   <g id="patch_4">
    <path d="M 414.72 307.584 
L 414.72 41.472 
" style="fill:none;stroke:#000000;stroke-linecap:square;stroke-linejoin:miter;stroke-width:0.8;"/>
   </g>
   <g id="patch_5">
    <path d="M 57.6 307.584 
L 414.72 307.584 
" style="fill:none;stroke:#000000;stroke-linecap:square;stroke-linejoin:miter;stroke-width:0.8;"/>
   </g>
   <g id="patch_6">
    <path d="M 57.6 41.472 
L 414.72 41.472 
" style="fill:none;stroke:#000000;stroke-linecap:square;stroke-linejoin:miter;stroke-width:0.8;"/>
   </g>
   <g id="text_18">
    <!-- Population's average and best fitness -->
    <defs>
     <path d="M 19.671875 64.796875 
L 19.671875 37.40625 
L 32.078125 37.40625 
Q 38.96875 37.40625 42.71875 40.96875 
Q 46.484375 44.53125 46.484375 51.125 
Q 46.484375 57.671875 42.71875 61.234375 
Q 38.96875 64.796875 32.078125 64.796875 
z
M 9.8125 72.90625 
L 32.078125 72.90625 
Q 44.34375 72.90625 50.609375 67.359375 
Q 56.890625 61.8125 56.890625 51.125 
Q 56.890625 40.328125 50.609375 34.8125 
Q 44.34375 29.296875 32.078125 29.296875 
L 19.671875 29.296875 
L 19.671875 0 
L 9.8125 0 
z
" id="DejaVuSans-80"/>
     <path d="M 18.109375 8.203125 
L 18.109375 -20.796875 
L 9.078125 -20.796875 
L 9.078125 54.6875 
L 18.109375 54.6875 
L 18.109375 46.390625 
Q 20.953125 51.265625 25.265625 53.625 
Q 29.59375 56 35.59375 56 
Q 45.5625 56 51.78125 48.09375 
Q 58.015625 40.1875 58.015625 27.296875 
Q 58.015625 14.40625 51.78125 6.484375 
Q 45.5625 -1.421875 35.59375 -1.421875 
Q 29.59375 -1.421875 25.265625 0.953125 
Q 20.953125 3.328125 18.109375 8.203125 
z
M 48.6875 27.296875 
Q 48.6875 37.203125 44.609375 42.84375 
Q 40.53125 48.484375 33.40625 48.484375 
Q 26.265625 48.484375 22.1875 42.84375 
Q 18.109375 37.203125 18.109375 27.296875 
Q 18.109375 17.390625 22.1875 11.75 
Q 26.265625 6.109375 33.40625 6.109375 
Q 40.53125 6.109375 44.609375 11.75 
Q 48.6875 17.390625 48.6875 27.296875 
z
" id="DejaVuSans-112"/>
     <path d="M 8.5 21.578125 
L 8.5 54.6875 
L 17.484375 54.6875 
L 17.484375 21.921875 
Q 17.484375 14.15625 20.5 10.265625 
Q 23.53125 6.390625 29.59375 6.390625 
Q 36.859375 6.390625 41.078125 11.03125 
Q 45.3125 15.671875 45.3125 23.6875 
L 45.3125 54.6875 
L 54.296875 54.6875 
L 54.296875 0 
L 45.3125 0 
L 45.3125 8.40625 
Q 42.046875 3.421875 37.71875 1 
Q 33.40625 -1.421875 27.6875 -1.421875 
Q 18.265625 -1.421875 13.375 4.4375 
Q 8.5 10.296875 8.5 21.578125 
z
M 31.109375 56 
z
" id="DejaVuSans-117"/>
     <path d="M 9.421875 75.984375 
L 18.40625 75.984375 
L 18.40625 0 
L 9.421875 0 
z
" id="DejaVuSans-108"/>
     <path d="M 17.921875 72.90625 
L 17.921875 45.796875 
L 9.625 45.796875 
L 9.625 72.90625 
z
" id="DejaVuSans-39"/>
     <path id="DejaVuSans-32"/>
     <path d="M 2.984375 54.6875 
L 12.5 54.6875 
L 29.59375 8.796875 
L 46.6875 54.6875 
L 56.203125 54.6875 
L 35.6875 0 
L 23.484375 0 
z
" id="DejaVuSans-118"/>
     <path d="M 45.40625 27.984375 
Q 45.40625 37.75 41.375 43.109375 
Q 37.359375 48.484375 30.078125 48.484375 
Q 22.859375 48.484375 18.828125 43.109375 
Q 14.796875 37.75 14.796875 27.984375 
Q 14.796875 18.265625 18.828125 12.890625 
Q 22.859375 7.515625 30.078125 7.515625 
Q 37.359375 7.515625 41.375 12.890625 
Q 45.40625 18.265625 45.40625 27.984375 
z
M 54.390625 6.78125 
Q 54.390625 -7.171875 48.1875 -13.984375 
Q 42 -20.796875 29.203125 -20.796875 
Q 24.46875 -20.796875 20.265625 -20.09375 
Q 16.0625 -19.390625 12.109375 -17.921875 
L 12.109375 -9.1875 
Q 16.0625 -11.328125 19.921875 -12.34375 
Q 23.78125 -13.375 27.78125 -13.375 
Q 36.625 -13.375 41.015625 -8.765625 
Q 45.40625 -4.15625 45.40625 5.171875 
L 45.40625 9.625 
Q 42.625 4.78125 38.28125 2.390625 
Q 33.9375 0 27.875 0 
Q 17.828125 0 11.671875 7.65625 
Q 5.515625 15.328125 5.515625 27.984375 
Q 5.515625 40.671875 11.671875 48.328125 
Q 17.828125 56 27.875 56 
Q 33.9375 56 38.28125 53.609375 
Q 42.625 51.21875 45.40625 46.390625 
L 45.40625 54.6875 
L 54.390625 54.6875 
z
" id="DejaVuSans-103"/>
     <path d="M 45.40625 46.390625 
L 45.40625 75.984375 
L 54.390625 75.984375 
L 54.390625 0 
L 45.40625 0 
L 45.40625 8.203125 
Q 42.578125 3.328125 38.25 0.953125 
Q 33.9375 -1.421875 27.875 -1.421875 
Q 17.96875 -1.421875 11.734375 6.484375 
Q 5.515625 14.40625 5.515625 27.296875 
Q 5.515625 40.1875 11.734375 48.09375 
Q 17.96875 56 27.875 56 
Q 33.9375 56 38.25 53.625 
Q 42.578125 51.265625 45.40625 46.390625 
z
M 14.796875 27.296875 
Q 14.796875 17.390625 18.875 11.75 
Q 22.953125 6.109375 30.078125 6.109375 
Q 37.203125 6.109375 41.296875 11.75 
Q 45.40625 17.390625 45.40625 27.296875 
Q 45.40625 37.203125 41.296875 42.84375 
Q 37.203125 48.484375 30.078125 48.484375 
Q 22.953125 48.484375 18.875 42.84375 
Q 14.796875 37.203125 14.796875 27.296875 
z
" id="DejaVuSans-100"/>
     <path d="M 48.6875 27.296875 
Q 48.6875 37.203125 44.609375 42.84375 
Q 40.53125 48.484375 33.40625 48.484375 
Q 26.265625 48.484375 22.1875 42.84375 
Q 18.109375 37.203125 18.109375 27.296875 
Q 18.109375 17.390625 22.1875 11.75 
Q 26.265625 6.109375 33.40625 6.109375 
Q 40.53125 6.109375 44.609375 11.75 
Q 48.6875 17.390625 48.6875 27.296875 
z
M 18.109375 46.390625 
Q 20.953125 51.265625 25.265625 53.625 
Q 29.59375 56 35.59375 56 
Q 45.5625 56 51.78125 48.09375 
Q 58.015625 40.1875 58.015625 27.296875 
Q 58.015625 14.40625 51.78125 6.484375 
Q 45.5625 -1.421875 35.59375 -1.421875 
Q 29.59375 -1.421875 25.265625 0.953125 
Q 20.953125 3.328125 18.109375 8.203125 
L 18.109375 0 
L 9.078125 0 
L 9.078125 75.984375 
L 18.109375 75.984375 
z
" id="DejaVuSans-98"/>
     <path d="M 37.109375 75.984375 
L 37.109375 68.5 
L 28.515625 68.5 
Q 23.6875 68.5 21.796875 66.546875 
Q 19.921875 64.59375 19.921875 59.515625 
L 19.921875 54.6875 
L 34.71875 54.6875 
L 34.71875 47.703125 
L 19.921875 47.703125 
L 19.921875 0 
L 10.890625 0 
L 10.890625 47.703125 
L 2.296875 47.703125 
L 2.296875 54.6875 
L 10.890625 54.6875 
L 10.890625 58.5 
Q 10.890625 67.625 15.140625 71.796875 
Q 19.390625 75.984375 28.609375 75.984375 
z
" id="DejaVuSans-102"/>
    </defs>
    <g transform="translate(123.315 35.472)scale(0.12 -0.12)">
     <use xlink:href="#DejaVuSans-80"/>
     <use x="60.255859" xlink:href="#DejaVuSans-111"/>
     <use x="121.4375" xlink:href="#DejaVuSans-112"/>
     <use x="184.914062" xlink:href="#DejaVuSans-117"/>
     <use x="248.292969" xlink:href="#DejaVuSans-108"/>
     <use x="276.076172" xlink:href="#DejaVuSans-97"/>
     <use x="337.355469" xlink:href="#DejaVuSans-116"/>
     <use x="376.564453" xlink:href="#DejaVuSans-105"/>
     <use x="404.347656" xlink:href="#DejaVuSans-111"/>
     <use x="465.529297" xlink:href="#DejaVuSans-110"/>
     <use x="528.908203" xlink:href="#DejaVuSans-39"/>
     <use x="556.398438" xlink:href="#DejaVuSans-115"/>
     <use x="608.498047" xlink:href="#DejaVuSans-32"/>
     <use x="640.285156" xlink:href="#DejaVuSans-97"/>
     <use x="701.564453" xlink:href="#DejaVuSans-118"/>
     <use x="760.744141" xlink:href="#DejaVuSans-101"/>
     <use x="822.267578" xlink:href="#DejaVuSans-114"/>
     <use x="863.380859" xlink:href="#DejaVuSans-97"/>
     <use x="924.660156" xlink:href="#DejaVuSans-103"/>
     <use x="988.136719" xlink:href="#DejaVuSans-101"/>
     <use x="1049.660156" xlink:href="#DejaVuSans-32"/>
     <use x="1081.447266" xlink:href="#DejaVuSans-97"/>
     <use x="1142.726562" xlink:href="#DejaVuSans-110"/>
     <use x="1206.105469" xlink:href="#DejaVuSans-100"/>
     <use x="1269.582031" xlink:href="#DejaVuSans-32"/>
     <use x="1301.369141" xlink:href="#DejaVuSans-98"/>
     <use x="1364.845703" xlink:href="#DejaVuSans-101"/>
     <use x="1426.369141" xlink:href="#DejaVuSans-115"/>
     <use x="1478.46875" xlink:href="#DejaVuSans-116"/>
     <use x="1517.677734" xlink:href="#DejaVuSans-32"/>
     <use x="1549.464844" xlink:href="#DejaVuSans-102"/>
     <use x="1584.669922" xlink:href="#DejaVuSans-105"/>
     <use x="1612.453125" xlink:href="#DejaVuSans-116"/>
     <use x="1651.662109" xlink:href="#DejaVuSans-110"/>
     <use x="1715.041016" xlink:href="#DejaVuSans-101"/>
     <use x="1776.564453" xlink:href="#DejaVuSans-115"/>
     <use x="1828.664062" xlink:href="#DejaVuSans-115"/>
    </g>
   </g>
   <g id="legend_1">
    <g id="patch_7">
     <path d="M 64.6 108.1845 
L 137.540625 108.1845 
Q 139.540625 108.1845 139.540625 106.1845 
L 139.540625 48.472 
Q 139.540625 46.472 137.540625 46.472 
L 64.6 46.472 
Q 62.6 46.472 62.6 48.472 
L 62.6 106.1845 
Q 62.6 108.1845 64.6 108.1845 
z
" style="fill:#ffffff;opacity:0.8;stroke:#cccccc;stroke-linejoin:miter;"/>
    </g>
    <g id="line2d_35">
     <path d="M 66.6 54.570438 
L 86.6 54.570438 
" style="fill:none;stroke:#0000ff;stroke-linecap:square;stroke-width:1.5;"/>
    </g>
    <g id="line2d_36"/>
    <g id="text_19">
     <!-- average -->
     <g transform="translate(94.6 58.070438)scale(0.1 -0.1)">
      <use xlink:href="#DejaVuSans-97"/>
      <use x="61.279297" xlink:href="#DejaVuSans-118"/>
      <use x="120.458984" xlink:href="#DejaVuSans-101"/>
      <use x="181.982422" xlink:href="#DejaVuSans-114"/>
      <use x="223.095703" xlink:href="#DejaVuSans-97"/>
      <use x="284.375" xlink:href="#DejaVuSans-103"/>
      <use x="347.851562" xlink:href="#DejaVuSans-101"/>
     </g>
    </g>
    <g id="line2d_37">
     <path d="M 66.6 69.248563 
L 86.6 69.248563 
" style="fill:none;stroke:#008000;stroke-dasharray:9.6,2.4,1.5,2.4;stroke-dashoffset:0;stroke-width:1.5;"/>
    </g>
    <g id="line2d_38"/>
    <g id="text_20">
     <!-- -1 sd -->
     <defs>
      <path d="M 4.890625 31.390625 
L 31.203125 31.390625 
L 31.203125 23.390625 
L 4.890625 23.390625 
z
" id="DejaVuSans-45"/>
     </defs>
     <g transform="translate(94.6 72.748563)scale(0.1 -0.1)">
      <use xlink:href="#DejaVuSans-45"/>
      <use x="36.083984" xlink:href="#DejaVuSans-49"/>
      <use x="99.707031" xlink:href="#DejaVuSans-32"/>
      <use x="131.494141" xlink:href="#DejaVuSans-115"/>
      <use x="183.59375" xlink:href="#DejaVuSans-100"/>
     </g>
    </g>
    <g id="line2d_39">
     <path d="M 66.6 83.926688 
L 86.6 83.926688 
" style="fill:none;stroke:#008000;stroke-dasharray:9.6,2.4,1.5,2.4;stroke-dashoffset:0;stroke-width:1.5;"/>
    </g>
    <g id="line2d_40"/>
    <g id="text_21">
     <!-- +1 sd -->
     <defs>
      <path d="M 46 62.703125 
L 46 35.5 
L 73.1875 35.5 
L 73.1875 27.203125 
L 46 27.203125 
L 46 0 
L 37.796875 0 
L 37.796875 27.203125 
L 10.59375 27.203125 
L 10.59375 35.5 
L 37.796875 35.5 
L 37.796875 62.703125 
z
" id="DejaVuSans-43"/>
     </defs>
     <g transform="translate(94.6 87.426688)scale(0.1 -0.1)">
      <use xlink:href="#DejaVuSans-43"/>
      <use x="83.789062" xlink:href="#DejaVuSans-49"/>
      <use x="147.412109" xlink:href="#DejaVuSans-32"/>
      <use x="179.199219" xlink:href="#DejaVuSans-115"/>
      <use x="231.298828" xlink:href="#DejaVuSans-100"/>
     </g>
    </g>
    <g id="line2d_41">
     <path d="M 66.6 98.604813 
L 86.6 98.604813 
" style="fill:none;stroke:#ff0000;stroke-linecap:square;stroke-width:1.5;"/>
    </g>
    <g id="line2d_42"/>
    <g id="text_22">
     <!-- best -->
     <g transform="translate(94.6 102.104813)scale(0.1 -0.1)">
      <use xlink:href="#DejaVuSans-98"/>
      <use x="63.476562" xlink:href="#DejaVuSans-101"/>
      <use x="125" xlink:href="#DejaVuSans-115"/>
      <use x="177.099609" xlink:href="#DejaVuSans-116"/>
     </g>
    </g>
   </g>
  </g>
 </g>
 <defs>
  <clipPath id="p91231c85d2">
   <rect height="266.112" width="357.12" x="57.6" y="41.472"/>
  </clipPath>
 </defs>
</svg>
