<?xml version="1.0" encoding="UTF-8" standalone="no"?>
<!DOCTYPE svg PUBLIC "-//W3C//DTD SVG 1.1//EN"
 "http://www.w3.org/Graphics/SVG/1.1/DTD/svg11.dtd">
<!-- Generated by graphviz version 2.40.1 (20161225.0304)
 -->
<!-- Title: %3 Pages: 1 -->
<svg width="451pt" height="679pt"
 viewBox="0.00 0.00 451.00 678.59" xmlns="http://www.w3.org/2000/svg" xmlns:xlink="http://www.w3.org/1999/xlink">
<g id="graph0" class="graph" transform="scale(1 1) rotate(0) translate(4 674.5866)">
<title>%3</title>
<polygon fill="#ffffff" stroke="transparent" points="-4,4 -4,-674.5866 446.9976,-674.5866 446.9976,4 -4,4"/>
<!-- E0 -->
<g id="node1" class="node">
<title>E0</title>
<polygon fill="#d3d3d3" stroke="#000000" points="25.9963,-670.5866 .0012,-670.5866 .0012,-653.5866 25.9963,-653.5866 25.9963,-670.5866"/>
<text text-anchor="middle" x="12.9988" y="-659.3866" font-family="Times,serif" font-size="9.00" fill="#000000">E0</text>
</g>
<!-- E1 -->
<g id="node2" class="node">
<title>E1</title>
<polygon fill="#d3d3d3" stroke="#000000" points="69.9963,-670.5866 44.0012,-670.5866 44.0012,-653.5866 69.9963,-653.5866 69.9963,-670.5866"/>
<text text-anchor="middle" x="56.9988" y="-659.3866" font-family="Times,serif" font-size="9.00" fill="#000000">E1</text>
</g>
<!-- E0&#45;&gt;E1 -->
<!-- E2 -->
<g id="node3" class="node">
<title>E2</title>
<polygon fill="#d3d3d3" stroke="#000000" points="118.9963,-670.5866 93.0012,-670.5866 93.0012,-653.5866 118.9963,-653.5866 118.9963,-670.5866"/>
<text text-anchor="middle" x="105.9988" y="-659.3866" font-family="Times,serif" font-size="9.00" fill="#000000">E2</text>
</g>
<!-- E1&#45;&gt;E2 -->
<!-- 1356 -->
<g id="node16" class="node">
<title>1356</title>
<ellipse fill="#add8e6" stroke="#000000" cx="99.9988" cy="-173.1287" rx="24.0833" ry="24.0833"/>
<text text-anchor="middle" x="99.9988" y="-174.9287" font-family="Times,serif" font-size="9.00" fill="#000000">1356</text>
<text text-anchor="middle" x="99.9988" y="-165.9287" font-family="Times,serif" font-size="9.00" fill="#000000">sigm</text>
</g>
<!-- E1&#45;&gt;1356 -->
<g id="edge17" class="edge">
<title>E1&#45;&gt;1356</title>
<path fill="none" stroke="#00ff00" stroke-width="2.0991" d="M56.9988,-653.4808C56.9988,-630.2486 56.9988,-564.3113 56.9988,-509.4617 56.9988,-509.4617 56.9988,-509.4617 56.9988,-341.2952 56.9988,-292.5034 62.6506,-280.1008 75.9988,-233.1703 78.6826,-223.7343 82.3309,-213.7438 85.9724,-204.6769"/>
<polygon fill="#00ff00" stroke="#00ff00" stroke-width="2.0991" points="89.2754,-205.8488 89.8752,-195.2709 82.8099,-203.166 89.2754,-205.8488"/>
</g>
<!-- E3 -->
<g id="node4" class="node">
<title>E3</title>
<polygon fill="#d3d3d3" stroke="#000000" points="163.9963,-670.5866 138.0012,-670.5866 138.0012,-653.5866 163.9963,-653.5866 163.9963,-670.5866"/>
<text text-anchor="middle" x="150.9988" y="-659.3866" font-family="Times,serif" font-size="9.00" fill="#000000">E3</text>
</g>
<!-- E2&#45;&gt;E3 -->
<!-- E4 -->
<g id="node5" class="node">
<title>E4</title>
<polygon fill="#d3d3d3" stroke="#000000" points="237.9963,-670.5866 212.0012,-670.5866 212.0012,-653.5866 237.9963,-653.5866 237.9963,-670.5866"/>
<text text-anchor="middle" x="224.9988" y="-659.3866" font-family="Times,serif" font-size="9.00" fill="#000000">E4</text>
</g>
<!-- E3&#45;&gt;E4 -->
<!-- 2 -->
<g id="node12" class="node">
<title>2</title>
<ellipse fill="#87cefa" stroke="#000000" cx="269.9988" cy="-14.853" rx="14.4914" ry="14.4914"/>
<text text-anchor="middle" x="269.9988" y="-12.153" font-family="Times,serif" font-size="9.00" fill="#000000">2</text>
</g>
<!-- E3&#45;&gt;2 -->
<g id="edge20" class="edge">
<title>E3&#45;&gt;2</title>
<path fill="none" stroke="#ff0000" stroke-width=".1631" d="M160.2023,-653.433C182.3879,-631.5859 236.9988,-571.507 236.9988,-509.4617 236.9988,-509.4617 236.9988,-509.4617 236.9988,-341.2952 236.9988,-282.332 258.5799,-105.2501 266.8374,-39.6515"/>
<polygon fill="#ff0000" stroke="#ff0000" stroke-width=".1631" points="270.3476,-39.7906 268.13,-29.4304 263.4029,-38.9123 270.3476,-39.7906"/>
</g>
<!-- S -->
<g id="node13" class="node">
<title>S</title>
<ellipse fill="#87cefa" stroke="#000000" cx="333.9988" cy="-14.853" rx="14.7075" ry="14.7075"/>
<text text-anchor="middle" x="333.9988" y="-12.153" font-family="Times,serif" font-size="9.00" fill="#000000">S</text>
</g>
<!-- E3&#45;&gt;S -->
<g id="edge16" class="edge">
<title>E3&#45;&gt;S</title>
<path fill="none" stroke="#ff0000" stroke-width="1.8394" d="M164.0129,-657.0458C179.7014,-650.3301 205.8427,-636.9949 220.9988,-617.5866 245.2411,-586.5429 239.5617,-571.744 248.9988,-533.5034 295.1526,-346.481 322.9903,-115.1949 331.3327,-39.8439"/>
<polygon fill="#ff0000" stroke="#ff0000" stroke-width="1.8394" points="334.8142,-40.2031 332.422,-29.8819 327.8557,-39.4422 334.8142,-40.2031"/>
</g>
<!-- 5206 -->
<g id="node20" class="node">
<title>5206</title>
<ellipse fill="#add8e6" stroke="#000000" cx="146.9988" cy="-593.545" rx="24.0833" ry="24.0833"/>
<text text-anchor="middle" x="146.9988" y="-595.345" font-family="Times,serif" font-size="9.00" fill="#000000">5206</text>
<text text-anchor="middle" x="146.9988" y="-586.345" font-family="Times,serif" font-size="9.00" fill="#000000">sigm</text>
</g>
<!-- E3&#45;&gt;5206 -->
<g id="edge29" class="edge">
<title>E3&#45;&gt;5206</title>
<path fill="none" stroke="#ff0000" stroke-width=".3542" d="M150.4922,-653.4058C150.1093,-646.8452 149.5568,-637.3777 149.0038,-627.9014"/>
<polygon fill="#ff0000" stroke="#ff0000" stroke-width=".3542" points="152.4882,-627.5315 148.4115,-617.7524 145.5001,-627.9394 152.4882,-627.5315"/>
</g>
<!-- 4542 -->
<g id="node21" class="node">
<title>4542</title>
<ellipse fill="#add8e6" stroke="#000000" cx="146.9988" cy="-425.3785" rx="24.0833" ry="24.0833"/>
<text text-anchor="middle" x="146.9988" y="-427.1785" font-family="Times,serif" font-size="9.00" fill="#000000">4542</text>
<text text-anchor="middle" x="146.9988" y="-418.1785" font-family="Times,serif" font-size="9.00" fill="#000000">sigm</text>
</g>
<!-- E3&#45;&gt;4542 -->
<g id="edge33" class="edge">
<title>E3&#45;&gt;4542</title>
<path fill="none" stroke="#ff0000" stroke-width=".2269" d="M140.5628,-653.453C131.5793,-645.286 119.2581,-632.1383 113.9988,-617.5866 94.0325,-562.3434 99.3935,-542.3161 113.9988,-485.4201 116.8003,-474.5066 122.0469,-463.4488 127.5454,-453.8478"/>
<polygon fill="#ff0000" stroke="#ff0000" stroke-width=".2269" points="130.6323,-455.5072 132.8229,-445.1413 124.6462,-451.8787 130.6323,-455.5072"/>
</g>
<!-- E5 -->
<g id="node6" class="node">
<title>E5</title>
<polygon fill="#d3d3d3" stroke="#000000" points="310.9963,-670.5866 285.0012,-670.5866 285.0012,-653.5866 310.9963,-653.5866 310.9963,-670.5866"/>
<text text-anchor="middle" x="297.9988" y="-659.3866" font-family="Times,serif" font-size="9.00" fill="#000000">E5</text>
</g>
<!-- E4&#45;&gt;E5 -->
<!-- E4&#45;&gt;S -->
<g id="edge13" class="edge">
<title>E4&#45;&gt;S</title>
<path fill="none" stroke="#ff0000" stroke-width=".6388" d="M238.0853,-656.3749C252.672,-649.3409 275.9234,-636.0204 288.9988,-617.5866 385.1647,-482.0111 388.9988,-423.4306 388.9988,-257.212 388.9988,-257.212 388.9988,-257.212 388.9988,-173.1287 388.9988,-124.2083 383.3091,-111.0706 364.9988,-65.7061 360.7478,-55.1741 354.4375,-44.3177 348.6177,-35.3544"/>
<polygon fill="#ff0000" stroke="#ff0000" stroke-width=".6388" points="351.3334,-33.1218 342.8373,-26.7919 345.5317,-37.0384 351.3334,-33.1218"/>
</g>
<!-- E4&#45;&gt;4542 -->
<g id="edge23" class="edge">
<title>E4&#45;&gt;4542</title>
<path fill="none" stroke="#00ff00" stroke-width=".426" d="M223.5893,-653.3874C219.1898,-627.2745 204.5205,-547.538 179.9988,-485.4201 175.8947,-475.0237 170.3572,-464.1698 164.9916,-454.595"/>
<polygon fill="#00ff00" stroke="#00ff00" stroke-width=".426" points="167.9824,-452.7752 159.9523,-445.8637 161.9197,-456.2743 167.9824,-452.7752"/>
</g>
<!-- E6 -->
<g id="node7" class="node">
<title>E6</title>
<polygon fill="#d3d3d3" stroke="#000000" points="354.9963,-670.5866 329.0012,-670.5866 329.0012,-653.5866 354.9963,-653.5866 354.9963,-670.5866"/>
<text text-anchor="middle" x="341.9988" y="-659.3866" font-family="Times,serif" font-size="9.00" fill="#000000">E6</text>
</g>
<!-- E5&#45;&gt;E6 -->
<!-- 2625 -->
<g id="node14" class="node">
<title>2625</title>
<ellipse fill="#add8e6" stroke="#000000" cx="168.9988" cy="-173.1287" rx="24.0833" ry="24.0833"/>
<text text-anchor="middle" x="168.9988" y="-174.9287" font-family="Times,serif" font-size="9.00" fill="#000000">2625</text>
<text text-anchor="middle" x="168.9988" y="-165.9287" font-family="Times,serif" font-size="9.00" fill="#000000">sigm</text>
</g>
<!-- E5&#45;&gt;2625 -->
<g id="edge21" class="edge">
<title>E5&#45;&gt;2625</title>
<path fill="none" stroke="#00ff00" stroke-width=".794" d="M297.7215,-653.3236C297.072,-636.7896 295.0202,-599.9196 288.9988,-569.5034 261.6401,-431.3045 205.8621,-272.4507 181.1965,-205.5216"/>
<polygon fill="#00ff00" stroke="#00ff00" stroke-width=".794" points="184.4086,-204.117 177.6519,-195.9562 177.8448,-206.5493 184.4086,-204.117"/>
</g>
<!-- E7 -->
<g id="node8" class="node">
<title>E7</title>
<polygon fill="#d3d3d3" stroke="#000000" points="398.9963,-670.5866 373.0012,-670.5866 373.0012,-653.5866 398.9963,-653.5866 398.9963,-670.5866"/>
<text text-anchor="middle" x="385.9988" y="-659.3866" font-family="Times,serif" font-size="9.00" fill="#000000">E7</text>
</g>
<!-- E6&#45;&gt;E7 -->
<!-- E8 -->
<g id="node9" class="node">
<title>E8</title>
<polygon fill="#d3d3d3" stroke="#000000" points="442.9963,-670.5866 417.0012,-670.5866 417.0012,-653.5866 442.9963,-653.5866 442.9963,-670.5866"/>
<text text-anchor="middle" x="429.9988" y="-659.3866" font-family="Times,serif" font-size="9.00" fill="#000000">E8</text>
</g>
<!-- E7&#45;&gt;E8 -->
<!-- 207 -->
<g id="node17" class="node">
<title>207</title>
<ellipse fill="#add8e6" stroke="#000000" cx="222.9988" cy="-89.3966" rx="23.8825" ry="23.8825"/>
<text text-anchor="middle" x="222.9988" y="-91.1966" font-family="Times,serif" font-size="9.00" fill="#000000">207</text>
<text text-anchor="middle" x="222.9988" y="-82.1966" font-family="Times,serif" font-size="9.00" fill="#000000">sigm</text>
</g>
<!-- E7&#45;&gt;207 -->
<g id="edge14" class="edge">
<title>E7&#45;&gt;207</title>
<path fill="none" stroke="#00ff00" stroke-width="3.0273" d="M383.5681,-653.5466C366.4591,-593.4353 263.9039,-233.1141 232.2782,-121.9993"/>
<polygon fill="#00ff00" stroke="#00ff00" stroke-width="3.0273" points="235.6323,-120.998 229.5284,-112.3381 228.8997,-122.9143 235.6323,-120.998"/>
</g>
<!-- 0 -->
<g id="node10" class="node">
<title>0</title>
<ellipse fill="#87cefa" stroke="#000000" cx="175.9988" cy="-14.853" rx="14.4914" ry="14.4914"/>
<text text-anchor="middle" x="175.9988" y="-12.153" font-family="Times,serif" font-size="9.00" fill="#000000">0</text>
</g>
<!-- E8&#45;&gt;0 -->
<g id="edge12" class="edge">
<title>E8&#45;&gt;0</title>
<path fill="none" stroke="#00ff00" stroke-width=".6377" d="M429.7111,-653.4819C428.9603,-630.2527 426.9988,-564.3219 426.9988,-509.4617 426.9988,-509.4617 426.9988,-509.4617 426.9988,-425.3785 426.9988,-248.3773 373.2664,-198.2872 255.9988,-65.7061 254.8497,-64.407 220.5076,-42.7574 197.1969,-28.1291"/>
<polygon fill="#00ff00" stroke="#00ff00" stroke-width=".6377" points="198.932,-25.086 188.6004,-22.7389 195.2133,-31.0166 198.932,-25.086"/>
</g>
<!-- 1 -->
<g id="node11" class="node">
<title>1</title>
<ellipse fill="#87cefa" stroke="#000000" cx="222.9988" cy="-14.853" rx="14.4914" ry="14.4914"/>
<text text-anchor="middle" x="222.9988" y="-12.153" font-family="Times,serif" font-size="9.00" fill="#000000">1</text>
</g>
<!-- 0&#45;&gt;1 -->
<!-- 1&#45;&gt;2 -->
<!-- 2&#45;&gt;S -->
<!-- 2625&#45;&gt;0 -->
<g id="edge19" class="edge">
<title>2625&#45;&gt;0</title>
<path fill="none" stroke="#00ff00" stroke-width=".2081" d="M162.553,-149.9475C157.3877,-128.1024 151.7928,-94.5141 156.9988,-65.7061 158.7094,-56.2403 162.076,-46.2392 165.5063,-37.6342"/>
<polygon fill="#00ff00" stroke="#00ff00" stroke-width=".2081" points="168.7869,-38.8628 169.467,-28.2898 162.342,-36.131 168.7869,-38.8628"/>
</g>
<!-- 2625&#45;&gt;2 -->
<g id="edge22" class="edge">
<title>2625&#45;&gt;2</title>
<path fill="none" stroke="#00ff00" stroke-width=".3266" d="M168.4348,-148.8576C169.0424,-125.6133 173.0752,-90.5064 189.9988,-65.7061 190.9764,-64.2735 225.3729,-42.6663 248.7408,-28.0824"/>
<polygon fill="#00ff00" stroke="#00ff00" stroke-width=".3266" points="250.725,-30.9699 257.3596,-22.7096 247.0219,-25.0296 250.725,-30.9699"/>
</g>
<!-- 3305 -->
<g id="node15" class="node">
<title>3305</title>
<ellipse fill="#add8e6" stroke="#000000" cx="146.9988" cy="-509.4617" rx="24.0833" ry="24.0833"/>
<text text-anchor="middle" x="146.9988" y="-511.2617" font-family="Times,serif" font-size="9.00" fill="#000000">3305</text>
<text text-anchor="middle" x="146.9988" y="-502.2617" font-family="Times,serif" font-size="9.00" fill="#000000">sigm</text>
</g>
<!-- 3305&#45;&gt;4542 -->
<g id="edge32" class="edge">
<title>3305&#45;&gt;4542</title>
<path fill="none" stroke="#00ff00" stroke-width=".265" d="M146.9988,-485.1414C146.9988,-477.2106 146.9988,-468.2499 146.9988,-459.7261"/>
<polygon fill="#00ff00" stroke="#00ff00" stroke-width=".265" points="150.4989,-459.6442 146.9988,-449.6442 143.4989,-459.6442 150.4989,-459.6442"/>
</g>
<!-- 1356&#45;&gt;2 -->
<g id="edge18" class="edge">
<title>1356&#45;&gt;2</title>
<path fill="none" stroke="#ff0000" stroke-width="1.0326" d="M109.4838,-150.7214C120.5216,-126.9369 140.771,-89.5593 167.9988,-65.7061 196.7177,-40.5465 212.37,-47.7859 245.9988,-29.7061 246.8296,-29.2594 247.6711,-28.7959 248.5171,-28.3207"/>
<polygon fill="#ff0000" stroke="#ff0000" stroke-width="1.0326" points="250.6517,-31.1239 257.4638,-23.0093 247.0782,-25.1047 250.6517,-31.1239"/>
</g>
<!-- 1356&#45;&gt;207 -->
<g id="edge26" class="edge">
<title>1356&#45;&gt;207</title>
<path fill="none" stroke="#00ff00" stroke-width=".5125" d="M120.0346,-159.4893C140.4369,-145.6005 172.2352,-123.9539 195.0965,-108.391"/>
<polygon fill="#00ff00" stroke="#00ff00" stroke-width=".5125" points="197.0816,-111.2738 203.3784,-102.7531 193.1424,-105.4873 197.0816,-111.2738"/>
</g>
<!-- 207&#45;&gt;1 -->
<g id="edge15" class="edge">
<title>207&#45;&gt;1</title>
<path fill="none" stroke="#00ff00" stroke-width="1.2524" d="M222.9988,-65.4002C222.9988,-57.2324 222.9988,-48.0862 222.9988,-39.8425"/>
<polygon fill="#00ff00" stroke="#00ff00" stroke-width="1.2524" points="226.4989,-39.6835 222.9988,-29.6835 219.4989,-39.6835 226.4989,-39.6835"/>
</g>
<!-- 207&#45;&gt;S -->
<g id="edge28" class="edge">
<title>207&#45;&gt;S</title>
<path fill="none" stroke="#ff0000" stroke-width=".1659" d="M242.8434,-76.0697C262.6353,-62.7781 292.9183,-42.4412 313.0798,-28.9014"/>
<polygon fill="#ff0000" stroke="#ff0000" stroke-width=".1659" points="315.2065,-31.6893 321.5569,-23.2085 311.3039,-25.8781 315.2065,-31.6893"/>
</g>
<!-- 4628 -->
<g id="node18" class="node">
<title>4628</title>
<ellipse fill="#add8e6" stroke="#000000" cx="146.9988" cy="-341.2952" rx="24.0833" ry="24.0833"/>
<text text-anchor="middle" x="146.9988" y="-343.0952" font-family="Times,serif" font-size="9.00" fill="#000000">4628</text>
<text text-anchor="middle" x="146.9988" y="-334.0952" font-family="Times,serif" font-size="9.00" fill="#000000">sigm</text>
</g>
<!-- 4628&#45;&gt;2625 -->
<g id="edge25" class="edge">
<title>4628&#45;&gt;2625</title>
<path fill="none" stroke="#00ff00" stroke-width=".3079" d="M150.1508,-317.2011C153.9246,-288.3545 160.2698,-239.8526 164.5436,-207.1836"/>
<polygon fill="#00ff00" stroke="#00ff00" stroke-width=".3079" points="168.0257,-207.5477 165.8526,-197.1782 161.0849,-206.6396 168.0257,-207.5477"/>
</g>
<!-- 3574 -->
<g id="node19" class="node">
<title>3574</title>
<ellipse fill="#add8e6" stroke="#000000" cx="108.9988" cy="-257.212" rx="24.0833" ry="24.0833"/>
<text text-anchor="middle" x="108.9988" y="-259.012" font-family="Times,serif" font-size="9.00" fill="#000000">3574</text>
<text text-anchor="middle" x="108.9988" y="-250.012" font-family="Times,serif" font-size="9.00" fill="#000000">sigm</text>
</g>
<!-- 4628&#45;&gt;3574 -->
<g id="edge27" class="edge">
<title>4628&#45;&gt;3574</title>
<path fill="none" stroke="#ff0000" stroke-width=".2736" d="M137.0147,-319.2033C132.782,-309.8376 127.7722,-298.7523 123.1678,-288.5641"/>
<polygon fill="#ff0000" stroke="#ff0000" stroke-width=".2736" points="126.2239,-286.8275 118.9162,-279.1563 119.8451,-289.7103 126.2239,-286.8275"/>
</g>
<!-- 3574&#45;&gt;1356 -->
<g id="edge31" class="edge">
<title>3574&#45;&gt;1356</title>
<path fill="none" stroke="#ff0000" stroke-width=".3037" d="M106.3956,-232.8916C105.5393,-224.8918 104.5709,-215.8442 103.6514,-207.2541"/>
<polygon fill="#ff0000" stroke="#ff0000" stroke-width=".3037" points="107.1095,-206.6747 102.565,-197.104 100.1493,-207.4198 107.1095,-206.6747"/>
</g>
<!-- 5206&#45;&gt;3305 -->
<g id="edge30" class="edge">
<title>5206&#45;&gt;3305</title>
<path fill="none" stroke="#00ff00" stroke-width=".2956" d="M146.9988,-569.2246C146.9988,-561.2938 146.9988,-552.3332 146.9988,-543.8094"/>
<polygon fill="#00ff00" stroke="#00ff00" stroke-width=".2956" points="150.4989,-543.7274 146.9988,-533.7274 143.4989,-543.7275 150.4989,-543.7274"/>
</g>
<!-- 4542&#45;&gt;4628 -->
<g id="edge24" class="edge">
<title>4542&#45;&gt;4628</title>
<path fill="none" stroke="#00ff00" stroke-width=".2062" d="M146.9988,-401.0581C146.9988,-393.1273 146.9988,-384.1666 146.9988,-375.6428"/>
<polygon fill="#00ff00" stroke="#00ff00" stroke-width=".2062" points="150.4989,-375.5609 146.9988,-365.5609 143.4989,-375.561 150.4989,-375.5609"/>
</g>
</g>
</svg>
