<?xml version="1.0" encoding="UTF-8" standalone="no"?>
<!DOCTYPE svg PUBLIC "-//W3C//DTD SVG 1.1//EN"
 "http://www.w3.org/Graphics/SVG/1.1/DTD/svg11.dtd">
<!-- Generated by graphviz version 2.40.1 (20161225.0304)
 -->
<!-- Title: %3 Pages: 1 -->
<svg width="480pt" height="258pt"
 viewBox="0.00 0.00 479.54 258.16" xmlns="http://www.w3.org/2000/svg" xmlns:xlink="http://www.w3.org/1999/xlink">
<g id="graph0" class="graph" transform="scale(1 1) rotate(0) translate(4 254.1579)">
<title>%3</title>
<polygon fill="#ffffff" stroke="transparent" points="-4,4 -4,-254.1579 475.5373,-254.1579 475.5373,4 -4,4"/>
<!-- &#45;1 -->
<g id="node1" class="node">
<title>&#45;1</title>
<polygon fill="#d3d3d3" stroke="#000000" points="138.0441,-250.1579 114.0392,-250.1579 114.0392,-233.1579 138.0441,-233.1579 138.0441,-250.1579"/>
<text text-anchor="middle" x="126.0416" y="-238.9579" font-family="Times,serif" font-size="9.00" fill="#000000">&#45;1</text>
</g>
<!-- &#45;2 -->
<g id="node2" class="node">
<title>&#45;2</title>
<polygon fill="#d3d3d3" stroke="#000000" points="210.0441,-250.1579 186.0392,-250.1579 186.0392,-233.1579 210.0441,-233.1579 210.0441,-250.1579"/>
<text text-anchor="middle" x="198.0416" y="-238.9579" font-family="Times,serif" font-size="9.00" fill="#000000">&#45;2</text>
</g>
<!-- &#45;1&#45;&gt;&#45;2 -->
<!-- 0 -->
<g id="node4" class="node">
<title>0</title>
<ellipse fill="#add8e6" stroke="#000000" cx="81.0416" cy="-14.4957" rx="14.4914" ry="14.4914"/>
<text text-anchor="middle" x="81.0416" y="-11.7957" font-family="Times,serif" font-size="9.00" fill="#000000">0</text>
</g>
<!-- &#45;1&#45;&gt;0 -->
<g id="edge11" class="edge">
<title>&#45;1&#45;&gt;0</title>
<path fill="none" stroke="#ff0000" stroke-width=".6156" d="M117.8044,-232.9255C110.4067,-224.4912 99.9742,-210.9931 95.0416,-197.1579 75.8761,-143.4018 76.6997,-75.2621 78.9066,-39.3129"/>
<polygon fill="#ff0000" stroke="#ff0000" stroke-width=".6156" points="82.4046,-39.4623 79.6152,-29.2412 75.4219,-38.9709 82.4046,-39.4623"/>
</g>
<!-- 4 -->
<g id="node8" class="node">
<title>4</title>
<ellipse fill="#add8e6" stroke="#000000" cx="269.0416" cy="-14.4957" rx="14.4914" ry="14.4914"/>
<text text-anchor="middle" x="269.0416" y="-11.7957" font-family="Times,serif" font-size="9.00" fill="#000000">4</text>
</g>
<!-- &#45;1&#45;&gt;4 -->
<g id="edge21" class="edge">
<title>&#45;1&#45;&gt;4</title>
<path fill="none" stroke="#ff0000" stroke-width=".456" d="M133.3685,-233.0528C140.7078,-224.2739 152.1591,-210.1355 161.0416,-197.1579 199.272,-141.3026 238.2551,-71.5366 257.2193,-36.5961"/>
<polygon fill="#ff0000" stroke="#ff0000" stroke-width=".456" points="260.3486,-38.1673 262.0201,-27.7051 254.1891,-34.8414 260.3486,-38.1673"/>
</g>
<!-- 2271 -->
<g id="node15" class="node">
<title>2271</title>
<ellipse fill="none" stroke="#000000" cx="24.0416" cy="-173.1163" rx="24.0833" ry="24.0833"/>
<text text-anchor="middle" x="24.0416" y="-170.4163" font-family="Times,serif" font-size="9.00" fill="#000000">2271</text>
</g>
<!-- &#45;1&#45;&gt;2271 -->
<g id="edge16" class="edge">
<title>&#45;1&#45;&gt;2271</title>
<path fill="none" stroke="#00ff00" stroke-width=".3345" d="M113.9403,-233.5261C98.9546,-223.4561 72.937,-205.9728 52.735,-192.3976"/>
<polygon fill="#00ff00" stroke="#00ff00" stroke-width=".3345" points="54.4553,-189.3368 44.2031,-186.6643 50.5511,-195.1468 54.4553,-189.3368"/>
</g>
<!-- &#45;3 -->
<g id="node3" class="node">
<title>&#45;3</title>
<polygon fill="#d3d3d3" stroke="#000000" points="287.0441,-250.1579 263.0392,-250.1579 263.0392,-233.1579 287.0441,-233.1579 287.0441,-250.1579"/>
<text text-anchor="middle" x="275.0416" y="-238.9579" font-family="Times,serif" font-size="9.00" fill="#000000">&#45;3</text>
</g>
<!-- &#45;2&#45;&gt;&#45;3 -->
<!-- 2 -->
<g id="node6" class="node">
<title>2</title>
<ellipse fill="#add8e6" stroke="#000000" cx="175.0416" cy="-14.4957" rx="14.4914" ry="14.4914"/>
<text text-anchor="middle" x="175.0416" y="-11.7957" font-family="Times,serif" font-size="9.00" fill="#000000">2</text>
</g>
<!-- &#45;2&#45;&gt;2 -->
<g id="edge13" class="edge">
<title>&#45;2&#45;&gt;2</title>
<path fill="none" stroke="#ff0000" stroke-width=".2675" d="M197.1681,-233.0303C193.9421,-201.1681 182.6239,-89.3831 177.5433,-39.2038"/>
<polygon fill="#ff0000" stroke="#ff0000" stroke-width=".2675" points="181.021,-38.8056 176.5313,-29.209 174.0566,-39.5108 181.021,-38.8056"/>
</g>
<!-- 7 -->
<g id="node11" class="node">
<title>7</title>
<ellipse fill="#add8e6" stroke="#000000" cx="410.0416" cy="-14.4957" rx="14.4914" ry="14.4914"/>
<text text-anchor="middle" x="410.0416" y="-11.7957" font-family="Times,serif" font-size="9.00" fill="#000000">7</text>
</g>
<!-- &#45;2&#45;&gt;7 -->
<g id="edge14" class="edge">
<title>&#45;2&#45;&gt;7</title>
<path fill="none" stroke="#00ff00" stroke-width="2.4977" d="M206.0934,-233.0303C237.2018,-199.697 349.9452,-78.8902 393.0886,-32.6612"/>
<polygon fill="#00ff00" stroke="#00ff00" stroke-width="2.4977" points="395.8102,-34.8748 400.0743,-25.1759 390.6926,-30.0988 395.8102,-34.8748"/>
</g>
<!-- 1 -->
<g id="node5" class="node">
<title>1</title>
<ellipse fill="#add8e6" stroke="#000000" cx="128.0416" cy="-14.4957" rx="14.4914" ry="14.4914"/>
<text text-anchor="middle" x="128.0416" y="-11.7957" font-family="Times,serif" font-size="9.00" fill="#000000">1</text>
</g>
<!-- &#45;3&#45;&gt;1 -->
<g id="edge12" class="edge">
<title>&#45;3&#45;&gt;1</title>
<path fill="none" stroke="#00ff00" stroke-width="1.429" d="M269.366,-232.8226C252.7572,-206.9764 202.7906,-129.2804 161.0416,-64.9914 154.7105,-55.2421 147.6655,-44.4539 141.716,-35.3606"/>
<polygon fill="#00ff00" stroke="#00ff00" stroke-width="1.429" points="144.6045,-33.3827 136.1987,-26.9335 138.7481,-37.2171 144.6045,-33.3827"/>
</g>
<!-- 1712 -->
<g id="node13" class="node">
<title>1712</title>
<ellipse fill="#ffffff" stroke="#000000" cx="128.0416" cy="-173.1163" rx="24.0833" ry="24.0833"/>
<text text-anchor="middle" x="128.0416" y="-170.4163" font-family="Times,serif" font-size="9.00" fill="#000000">1712</text>
</g>
<!-- &#45;3&#45;&gt;1712 -->
<g id="edge15" class="edge">
<title>&#45;3&#45;&gt;1712</title>
<path fill="none" stroke="#ff0000" stroke-width=".1101" d="M263.2605,-236.1647C240.8753,-225.7272 191.5349,-202.7213 159.054,-187.5764"/>
<polygon fill="#ff0000" stroke="#ff0000" stroke-width=".1101" points="160.5125,-184.3947 149.9702,-183.3409 157.5544,-190.739 160.5125,-184.3947"/>
</g>
<!-- 2487 -->
<g id="node16" class="node">
<title>2487</title>
<ellipse fill="none" stroke="#000000" cx="346.0416" cy="-173.1163" rx="24.0833" ry="24.0833"/>
<text text-anchor="middle" x="346.0416" y="-170.4163" font-family="Times,serif" font-size="9.00" fill="#000000">2487</text>
</g>
<!-- &#45;3&#45;&gt;2487 -->
<g id="edge19" class="edge">
<title>&#45;3&#45;&gt;2487</title>
<path fill="none" stroke="#00ff00" stroke-width=".517" d="M284.0338,-232.9771C293.3916,-223.9433 308.4588,-209.3978 321.3972,-196.9074"/>
<polygon fill="#00ff00" stroke="#00ff00" stroke-width=".517" points="323.9463,-199.3114 328.71,-189.8478 319.0845,-194.2752 323.9463,-199.3114"/>
</g>
<!-- 0&#45;&gt;1 -->
<!-- 1&#45;&gt;2 -->
<!-- 3 -->
<g id="node7" class="node">
<title>3</title>
<ellipse fill="#add8e6" stroke="#000000" cx="222.0416" cy="-14.4957" rx="14.4914" ry="14.4914"/>
<text text-anchor="middle" x="222.0416" y="-11.7957" font-family="Times,serif" font-size="9.00" fill="#000000">3</text>
</g>
<!-- 2&#45;&gt;3 -->
<!-- 3&#45;&gt;4 -->
<!-- 5 -->
<g id="node9" class="node">
<title>5</title>
<ellipse fill="#add8e6" stroke="#000000" cx="316.0416" cy="-14.4957" rx="14.4914" ry="14.4914"/>
<text text-anchor="middle" x="316.0416" y="-11.7957" font-family="Times,serif" font-size="9.00" fill="#000000">5</text>
</g>
<!-- 4&#45;&gt;5 -->
<!-- 6 -->
<g id="node10" class="node">
<title>6</title>
<ellipse fill="#add8e6" stroke="#000000" cx="363.0416" cy="-14.4957" rx="14.4914" ry="14.4914"/>
<text text-anchor="middle" x="363.0416" y="-11.7957" font-family="Times,serif" font-size="9.00" fill="#000000">6</text>
</g>
<!-- 5&#45;&gt;6 -->
<!-- 6&#45;&gt;7 -->
<!-- 8 -->
<g id="node12" class="node">
<title>8</title>
<ellipse fill="#add8e6" stroke="#000000" cx="457.0416" cy="-14.4957" rx="14.4914" ry="14.4914"/>
<text text-anchor="middle" x="457.0416" y="-11.7957" font-family="Times,serif" font-size="9.00" fill="#000000">8</text>
</g>
<!-- 7&#45;&gt;8 -->
<!-- 2395 -->
<g id="node14" class="node">
<title>2395</title>
<ellipse fill="#ffffff" stroke="#000000" cx="128.0416" cy="-89.033" rx="24.0833" ry="24.0833"/>
<text text-anchor="middle" x="128.0416" y="-86.333" font-family="Times,serif" font-size="9.00" fill="#000000">2395</text>
</g>
<!-- 1712&#45;&gt;2395 -->
<g id="edge17" class="edge">
<title>1712&#45;&gt;2395</title>
<path fill="none" stroke="#00ff00" stroke-width=".2846" d="M128.0416,-148.7959C128.0416,-140.8651 128.0416,-131.9044 128.0416,-123.3806"/>
<polygon fill="#00ff00" stroke="#00ff00" stroke-width=".2846" points="131.5417,-123.2987 128.0416,-113.2987 124.5417,-123.2987 131.5417,-123.2987"/>
</g>
<!-- 2395&#45;&gt;0 -->
<g id="edge18" class="edge">
<title>2395&#45;&gt;0</title>
<path fill="none" stroke="#00ff00" stroke-width=".1089" d="M115.1987,-68.6654C108.724,-58.3972 100.8801,-45.9575 94.3427,-35.5898"/>
<polygon fill="#00ff00" stroke="#00ff00" stroke-width=".1089" points="97.2956,-33.7108 89.0012,-27.1188 91.3745,-37.4445 97.2956,-33.7108"/>
</g>
<!-- 2591 -->
<g id="node17" class="node">
<title>2591</title>
<ellipse fill="none" stroke="#000000" cx="412.0416" cy="-173.1163" rx="24.0833" ry="24.0833"/>
<text text-anchor="middle" x="412.0416" y="-170.4163" font-family="Times,serif" font-size="9.00" fill="#000000">2591</text>
</g>
<!-- 2533 -->
<g id="node18" class="node">
<title>2533</title>
<ellipse fill="none" stroke="#000000" cx="412.0416" cy="-89.033" rx="24.0833" ry="24.0833"/>
<text text-anchor="middle" x="412.0416" y="-86.333" font-family="Times,serif" font-size="9.00" fill="#000000">2533</text>
</g>
<!-- 2591&#45;&gt;2533 -->
<g id="edge20" class="edge">
<title>2591&#45;&gt;2533</title>
<path fill="none" stroke="#ff0000" stroke-width=".1739" d="M412.0416,-148.7959C412.0416,-140.8651 412.0416,-131.9044 412.0416,-123.3806"/>
<polygon fill="#ff0000" stroke="#ff0000" stroke-width=".1739" points="415.5417,-123.2987 412.0416,-113.2987 408.5417,-123.2987 415.5417,-123.2987"/>
</g>
</g>
</svg>
