<?xml version="1.0" encoding="UTF-8" standalone="no"?>
<!DOCTYPE svg PUBLIC "-//W3C//DTD SVG 1.1//EN"
 "http://www.w3.org/Graphics/SVG/1.1/DTD/svg11.dtd">
<!-- Generated by graphviz version 2.40.1 (20161225.0304)
 -->
<!-- Title: %3 Pages: 1 -->
<svg width="620pt" height="602pt"
 viewBox="0.00 0.00 619.77 602.27" xmlns="http://www.w3.org/2000/svg" xmlns:xlink="http://www.w3.org/1999/xlink">
<g id="graph0" class="graph" transform="scale(1 1) rotate(0) translate(4 598.2657)">
<title>%3</title>
<polygon fill="#ffffff" stroke="transparent" points="-4,4 -4,-598.2657 615.7661,-598.2657 615.7661,4 -4,4"/>
<!-- 0 -->
<g id="node1" class="node">
<title>0</title>
<polygon fill="#d3d3d3" stroke="#000000" points="288.389,-594.2657 268.3771,-594.2657 268.3771,-577.2657 288.389,-577.2657 288.389,-594.2657"/>
<text text-anchor="middle" x="278.383" y="-583.0657" font-family="Times,serif" font-size="9.00" fill="#000000">0</text>
</g>
<!-- 1 -->
<g id="node2" class="node">
<title>1</title>
<polygon fill="#d3d3d3" stroke="#000000" points="327.389,-594.2657 307.3771,-594.2657 307.3771,-577.2657 327.389,-577.2657 327.389,-594.2657"/>
<text text-anchor="middle" x="317.383" y="-583.0657" font-family="Times,serif" font-size="9.00" fill="#000000">1</text>
</g>
<!-- 0&#45;&gt;1 -->
<!-- E4 -->
<g id="node8" class="node">
<title>E4</title>
<ellipse fill="#add8e6" stroke="#000000" cx="373.383" cy="-18.383" rx="18.2668" ry="18.2668"/>
<text text-anchor="middle" x="373.383" y="-15.683" font-family="Times,serif" font-size="9.00" fill="#000000">E4</text>
</g>
<!-- 0&#45;&gt;E4 -->
<g id="edge12" class="edge">
<title>0&#45;&gt;E4</title>
<path fill="none" stroke="#ff0000" stroke-width="2.1193" d="M288.6773,-579.2551C317.0668,-560.4095 394.383,-502.7 394.383,-433.1408 394.383,-433.1408 394.383,-433.1408 394.383,-180.891 394.383,-133.6077 385.5307,-79.2192 379.321,-46.8835"/>
<polygon fill="#ff0000" stroke="#ff0000" stroke-width="2.1193" points="382.7021,-45.9387 377.333,-36.8051 375.8345,-47.2934 382.7021,-45.9387"/>
</g>
<!-- 3219 -->
<g id="node14" class="node">
<title>3219</title>
<ellipse fill="#ffffff" stroke="#000000" cx="68.383" cy="-517.224" rx="24.0833" ry="24.0833"/>
<text text-anchor="middle" x="68.383" y="-514.524" font-family="Times,serif" font-size="9.00" fill="#000000">3219</text>
</g>
<!-- 0&#45;&gt;3219 -->
<g id="edge15" class="edge">
<title>0&#45;&gt;3219</title>
<path fill="none" stroke="#ff0000" stroke-width=".2878" d="M268.3306,-584.2872C241.27,-580.0729 164.9739,-566.636 106.383,-541.2657 103.3026,-539.9318 100.1848,-538.3677 97.1292,-536.6884"/>
<polygon fill="#ff0000" stroke="#ff0000" stroke-width=".2878" points="98.6346,-533.5119 88.2484,-531.4197 95.063,-539.5322 98.6346,-533.5119"/>
</g>
<!-- 2 -->
<g id="node3" class="node">
<title>2</title>
<polygon fill="#d3d3d3" stroke="#000000" points="366.389,-594.2657 346.3771,-594.2657 346.3771,-577.2657 366.389,-577.2657 366.389,-594.2657"/>
<text text-anchor="middle" x="356.383" y="-583.0657" font-family="Times,serif" font-size="9.00" fill="#000000">2</text>
</g>
<!-- 1&#45;&gt;2 -->
<!-- E2 -->
<g id="node6" class="node">
<title>E2</title>
<ellipse fill="#add8e6" stroke="#000000" cx="158.383" cy="-18.383" rx="18.2668" ry="18.2668"/>
<text text-anchor="middle" x="158.383" y="-15.683" font-family="Times,serif" font-size="9.00" fill="#000000">E2</text>
</g>
<!-- 1&#45;&gt;E2 -->
<g id="edge11" class="edge">
<title>1&#45;&gt;E2</title>
<path fill="none" stroke="#00ff00" stroke-width="2.1935" d="M307.343,-580.668C267.1982,-559.9576 120.383,-480.9484 120.383,-433.1408 120.383,-433.1408 120.383,-433.1408 120.383,-180.891 120.383,-132.0003 136.8924,-76.9579 148.1474,-45.1142"/>
<polygon fill="#00ff00" stroke="#00ff00" stroke-width="2.1935" points="151.4687,-46.2219 151.5894,-35.6278 144.8885,-43.8343 151.4687,-46.2219"/>
</g>
<!-- E6 -->
<g id="node10" class="node">
<title>E6</title>
<ellipse fill="#add8e6" stroke="#000000" cx="483.383" cy="-18.383" rx="18.2668" ry="18.2668"/>
<text text-anchor="middle" x="483.383" y="-15.683" font-family="Times,serif" font-size="9.00" fill="#000000">E6</text>
</g>
<!-- 1&#45;&gt;E6 -->
<g id="edge13" class="edge">
<title>1&#45;&gt;E6</title>
<path fill="none" stroke="#00ff00" stroke-width=".1974" d="M327.6843,-578.7585C362.6125,-554.6263 474.383,-474.1957 474.383,-433.1408 474.383,-433.1408 474.383,-433.1408 474.383,-180.891 474.383,-133.9257 478.1769,-79.4423 480.8382,-47.0009"/>
<polygon fill="#00ff00" stroke="#00ff00" stroke-width=".1974" points="484.3384,-47.1453 481.6902,-36.8868 477.3631,-46.5577 484.3384,-47.1453"/>
</g>
<!-- 4558 -->
<g id="node20" class="node">
<title>4558</title>
<ellipse fill="#ffffff" stroke="#000000" cx="309.383" cy="-180.891" rx="24.0833" ry="24.0833"/>
<text text-anchor="middle" x="309.383" y="-178.191" font-family="Times,serif" font-size="9.00" fill="#000000">4558</text>
</g>
<!-- 2&#45;&gt;4558 -->
<g id="edge27" class="edge">
<title>2&#45;&gt;4558</title>
<path fill="none" stroke="#ff0000" stroke-width=".4122" d="M356.383,-577.1598C356.383,-553.9277 356.383,-487.9903 356.383,-433.1408 356.383,-433.1408 356.383,-433.1408 356.383,-349.0575 356.383,-300.2657 352.0421,-287.4703 337.383,-240.9326 334.2542,-230.9994 329.8357,-220.5815 325.4315,-211.2645"/>
<polygon fill="#ff0000" stroke="#ff0000" stroke-width=".4122" points="328.4448,-209.4599 320.9015,-202.0202 322.159,-212.5401 328.4448,-209.4599"/>
</g>
<!-- E0 -->
<g id="node4" class="node">
<title>E0</title>
<ellipse fill="#add8e6" stroke="#000000" cx="18.383" cy="-18.383" rx="18.2668" ry="18.2668"/>
<text text-anchor="middle" x="18.383" y="-15.683" font-family="Times,serif" font-size="9.00" fill="#000000">E0</text>
</g>
<!-- E1 -->
<g id="node5" class="node">
<title>E1</title>
<ellipse fill="#add8e6" stroke="#000000" cx="73.383" cy="-18.383" rx="18.2668" ry="18.2668"/>
<text text-anchor="middle" x="73.383" y="-15.683" font-family="Times,serif" font-size="9.00" fill="#000000">E1</text>
</g>
<!-- E0&#45;&gt;E1 -->
<!-- E1&#45;&gt;E2 -->
<!-- E3 -->
<g id="node7" class="node">
<title>E3</title>
<ellipse fill="#add8e6" stroke="#000000" cx="314.383" cy="-18.383" rx="18.2668" ry="18.2668"/>
<text text-anchor="middle" x="314.383" y="-15.683" font-family="Times,serif" font-size="9.00" fill="#000000">E3</text>
</g>
<!-- E2&#45;&gt;E3 -->
<!-- E3&#45;&gt;E4 -->
<!-- E5 -->
<g id="node9" class="node">
<title>E5</title>
<ellipse fill="#add8e6" stroke="#000000" cx="428.383" cy="-18.383" rx="18.2668" ry="18.2668"/>
<text text-anchor="middle" x="428.383" y="-15.683" font-family="Times,serif" font-size="9.00" fill="#000000">E5</text>
</g>
<!-- E4&#45;&gt;E5 -->
<!-- E5&#45;&gt;E6 -->
<!-- E7 -->
<g id="node11" class="node">
<title>E7</title>
<ellipse fill="#add8e6" stroke="#000000" cx="538.383" cy="-18.383" rx="18.2668" ry="18.2668"/>
<text text-anchor="middle" x="538.383" y="-15.683" font-family="Times,serif" font-size="9.00" fill="#000000">E7</text>
</g>
<!-- E6&#45;&gt;E7 -->
<!-- E8 -->
<g id="node12" class="node">
<title>E8</title>
<ellipse fill="#add8e6" stroke="#000000" cx="593.383" cy="-18.383" rx="18.2668" ry="18.2668"/>
<text text-anchor="middle" x="593.383" y="-15.683" font-family="Times,serif" font-size="9.00" fill="#000000">E8</text>
</g>
<!-- E7&#45;&gt;E8 -->
<!-- 5133 -->
<g id="node13" class="node">
<title>5133</title>
<ellipse fill="#ffffff" stroke="#000000" cx="304.383" cy="-264.9743" rx="24.0833" ry="24.0833"/>
<text text-anchor="middle" x="304.383" y="-262.2743" font-family="Times,serif" font-size="9.00" fill="#000000">5133</text>
</g>
<!-- 5133&#45;&gt;4558 -->
<g id="edge29" class="edge">
<title>5133&#45;&gt;4558</title>
<path fill="none" stroke="#00ff00" stroke-width=".6858" d="M305.8293,-240.6539C306.3009,-232.7231 306.8337,-223.7624 307.3406,-215.2386"/>
<polygon fill="#00ff00" stroke="#00ff00" stroke-width=".6858" points="310.8402,-215.3469 307.9401,-205.1567 303.8526,-214.9313 310.8402,-215.3469"/>
</g>
<!-- 4657 -->
<g id="node17" class="node">
<title>4657</title>
<ellipse fill="#ffffff" stroke="#000000" cx="246.383" cy="-433.1408" rx="24.0833" ry="24.0833"/>
<text text-anchor="middle" x="246.383" y="-430.4408" font-family="Times,serif" font-size="9.00" fill="#000000">4657</text>
</g>
<!-- 3219&#45;&gt;4657 -->
<g id="edge21" class="edge">
<title>3219&#45;&gt;4657</title>
<path fill="none" stroke="#00ff00" stroke-width=".2322" d="M90.2093,-506.9138C121.4365,-492.1628 179.0409,-464.9517 214.8853,-448.0196"/>
<polygon fill="#00ff00" stroke="#00ff00" stroke-width=".2322" points="216.8312,-450.9713 224.3782,-443.5354 213.8413,-444.642 216.8312,-450.9713"/>
</g>
<!-- 3169 -->
<g id="node21" class="node">
<title>3169</title>
<ellipse fill="#ffffff" stroke="#000000" cx="68.383" cy="-264.9743" rx="24.0833" ry="24.0833"/>
<text text-anchor="middle" x="68.383" y="-262.2743" font-family="Times,serif" font-size="9.00" fill="#000000">3169</text>
</g>
<!-- 3219&#45;&gt;3169 -->
<g id="edge18" class="edge">
<title>3219&#45;&gt;3169</title>
<path fill="none" stroke="#ff0000" stroke-width=".3822" d="M68.383,-493.0373C68.383,-447.9296 68.383,-350.8639 68.383,-299.1078"/>
<polygon fill="#ff0000" stroke="#ff0000" stroke-width=".3822" points="71.8831,-299.0878 68.383,-289.0878 64.8831,-299.0878 71.8831,-299.0878"/>
</g>
<!-- 5283 -->
<g id="node15" class="node">
<title>5283</title>
<ellipse fill="#ffffff" stroke="#000000" cx="210.383" cy="-96.8077" rx="24.0833" ry="24.0833"/>
<text text-anchor="middle" x="210.383" y="-94.1077" font-family="Times,serif" font-size="9.00" fill="#000000">5283</text>
</g>
<!-- 5283&#45;&gt;E2 -->
<g id="edge33" class="edge">
<title>5283&#45;&gt;E2</title>
<path fill="none" stroke="#ff0000" stroke-width=".7172" d="M196.9918,-76.6114C190.127,-66.2582 181.7149,-53.5713 174.4971,-42.6857"/>
<polygon fill="#ff0000" stroke="#ff0000" stroke-width=".7172" points="177.2184,-40.4564 168.7752,-34.0561 171.3844,-44.3247 177.2184,-40.4564"/>
</g>
<!-- 3107 -->
<g id="node16" class="node">
<title>3107</title>
<ellipse fill="#ffffff" stroke="#000000" cx="238.383" cy="-264.9743" rx="24.0833" ry="24.0833"/>
<text text-anchor="middle" x="238.383" y="-262.2743" font-family="Times,serif" font-size="9.00" fill="#000000">3107</text>
</g>
<!-- 3107&#45;&gt;E2 -->
<g id="edge34" class="edge">
<title>3107&#45;&gt;E2</title>
<path fill="none" stroke="#00ff00" stroke-width=".3959" d="M219.263,-250.083C201.8616,-236.1083 178.0488,-215.7794 172.383,-204.9326 145.8558,-154.1474 149.241,-84.7669 153.9096,-46.5369"/>
<polygon fill="#00ff00" stroke="#00ff00" stroke-width=".3959" points="157.3791,-46.9974 155.2366,-36.6214 150.4409,-46.0688 157.3791,-46.9974"/>
</g>
<!-- 5175 -->
<g id="node18" class="node">
<title>5175</title>
<ellipse fill="#ffffff" stroke="#000000" cx="314.383" cy="-96.8077" rx="24.0833" ry="24.0833"/>
<text text-anchor="middle" x="314.383" y="-94.1077" font-family="Times,serif" font-size="9.00" fill="#000000">5175</text>
</g>
<!-- 3107&#45;&gt;5175 -->
<g id="edge30" class="edge">
<title>3107&#45;&gt;5175</title>
<path fill="none" stroke="#00ff00" stroke-width=".1569" d="M244.9263,-241.5835C251.5573,-219.2608 262.7641,-184.963 276.383,-156.8494 281.6124,-146.0543 288.3514,-134.7978 294.6988,-124.9876"/>
<polygon fill="#00ff00" stroke="#00ff00" stroke-width=".1569" points="297.7569,-126.7089 300.3634,-116.4397 291.9218,-122.8421 297.7569,-126.7089"/>
</g>
<!-- 1514 -->
<g id="node22" class="node">
<title>1514</title>
<ellipse fill="#ffffff" stroke="#000000" cx="205.383" cy="-180.891" rx="24.0833" ry="24.0833"/>
<text text-anchor="middle" x="205.383" y="-178.191" font-family="Times,serif" font-size="9.00" fill="#000000">1514</text>
</g>
<!-- 3107&#45;&gt;1514 -->
<g id="edge14" class="edge">
<title>3107&#45;&gt;1514</title>
<path fill="none" stroke="#ff0000" stroke-width=".1752" d="M229.5397,-242.4415C225.9886,-233.3934 221.8296,-222.7963 217.9729,-212.9698"/>
<polygon fill="#ff0000" stroke="#ff0000" stroke-width=".1752" points="221.1624,-211.516 214.2509,-203.486 214.6462,-214.0734 221.1624,-211.516"/>
</g>
<!-- 4657&#45;&gt;E5 -->
<g id="edge23" class="edge">
<title>4657&#45;&gt;E5</title>
<path fill="none" stroke="#ff0000" stroke-width=".3748" d="M269.1903,-425.019C318.8577,-405.7064 432.383,-352.0405 432.383,-264.9743 432.383,-264.9743 432.383,-264.9743 432.383,-180.891 432.383,-133.9834 430.6969,-79.4827 429.5141,-47.0222"/>
<polygon fill="#ff0000" stroke="#ff0000" stroke-width=".3748" points="433.007,-46.7637 429.1354,-36.9016 426.0119,-47.0255 433.007,-46.7637"/>
</g>
<!-- 4922 -->
<g id="node19" class="node">
<title>4922</title>
<ellipse fill="#ffffff" stroke="#000000" cx="287.383" cy="-349.0575" rx="24.0833" ry="24.0833"/>
<text text-anchor="middle" x="287.383" y="-346.3575" font-family="Times,serif" font-size="9.00" fill="#000000">4922</text>
</g>
<!-- 4657&#45;&gt;4922 -->
<g id="edge24" class="edge">
<title>4657&#45;&gt;4922</title>
<path fill="none" stroke="#00ff00" stroke-width=".7522" d="M256.9416,-411.4872C261.592,-401.9501 267.143,-390.5661 272.2236,-380.1468"/>
<polygon fill="#00ff00" stroke="#00ff00" stroke-width=".7522" points="275.4809,-381.4523 276.7178,-370.9299 269.189,-378.3843 275.4809,-381.4523"/>
</g>
<!-- 3837 -->
<g id="node23" class="node">
<title>3837</title>
<ellipse fill="#ffffff" stroke="#000000" cx="205.383" cy="-349.0575" rx="24.0833" ry="24.0833"/>
<text text-anchor="middle" x="205.383" y="-346.3575" font-family="Times,serif" font-size="9.00" fill="#000000">3837</text>
</g>
<!-- 4657&#45;&gt;3837 -->
<g id="edge22" class="edge">
<title>4657&#45;&gt;3837</title>
<path fill="none" stroke="#00ff00" stroke-width=".2564" d="M235.8245,-411.4872C231.1741,-401.9501 225.6231,-390.5661 220.5425,-380.1468"/>
<polygon fill="#00ff00" stroke="#00ff00" stroke-width=".2564" points="223.5771,-378.3843 216.0483,-370.9299 217.2852,-381.4523 223.5771,-378.3843"/>
</g>
<!-- 5175&#45;&gt;E3 -->
<g id="edge31" class="edge">
<title>5175&#45;&gt;E3</title>
<path fill="none" stroke="#00ff00" stroke-width="1.1224" d="M314.383,-72.4236C314.383,-64.33 314.383,-55.248 314.383,-46.8729"/>
<polygon fill="#00ff00" stroke="#00ff00" stroke-width="1.1224" points="317.8831,-46.7701 314.383,-36.7702 310.8831,-46.7702 317.8831,-46.7701"/>
</g>
<!-- 4922&#45;&gt;5133 -->
<g id="edge28" class="edge">
<title>4922&#45;&gt;5133</title>
<path fill="none" stroke="#ff0000" stroke-width=".1152" d="M292.2091,-325.1875C293.8742,-316.9519 295.7722,-307.5642 297.566,-298.6918"/>
<polygon fill="#ff0000" stroke="#ff0000" stroke-width=".1152" points="301.0526,-299.1082 299.6038,-288.6129 294.1914,-297.7209 301.0526,-299.1082"/>
</g>
<!-- 4558&#45;&gt;E2 -->
<g id="edge26" class="edge">
<title>4558&#45;&gt;E2</title>
<path fill="none" stroke="#00ff00" stroke-width=".2178" d="M299.5101,-158.5913C288.3615,-135.2117 268.4619,-98.3808 243.383,-72.7661 226.3203,-55.3388 202.6776,-40.7828 184.6578,-31.1292"/>
<polygon fill="#00ff00" stroke="#00ff00" stroke-width=".2178" points="185.792,-27.7751 175.3027,-26.2833 182.5723,-33.9907 185.792,-27.7751"/>
</g>
<!-- 3169&#45;&gt;E1 -->
<g id="edge16" class="edge">
<title>3169&#45;&gt;E1</title>
<path fill="none" stroke="#ff0000" stroke-width=".5632" d="M67.6704,-240.6845C66.7613,-204.2024 65.6153,-133.1014 68.383,-72.7661 68.771,-64.3085 69.4967,-55.1342 70.2773,-46.7724"/>
<polygon fill="#ff0000" stroke="#ff0000" stroke-width=".5632" points="73.7691,-47.0271 71.2741,-36.7302 66.8033,-46.3356 73.7691,-47.0271"/>
</g>
<!-- 1514&#45;&gt;E2 -->
<g id="edge19" class="edge">
<title>1514&#45;&gt;E2</title>
<path fill="none" stroke="#00ff00" stroke-width=".1175" d="M193.9163,-159.7454C188.2214,-148.4757 181.6617,-134.2131 177.383,-120.8494 169.5846,-96.4918 164.6053,-67.7912 161.7095,-46.9707"/>
<polygon fill="#00ff00" stroke="#00ff00" stroke-width=".1175" points="165.1548,-46.3244 160.3813,-36.8659 158.2145,-47.2368 165.1548,-46.3244"/>
</g>
<!-- 1514&#45;&gt;5283 -->
<g id="edge32" class="edge">
<title>1514&#45;&gt;5283</title>
<path fill="none" stroke="#00ff00" stroke-width=".1655" d="M206.8293,-156.5706C207.3009,-148.6398 207.8337,-139.6791 208.3406,-131.1553"/>
<polygon fill="#00ff00" stroke="#00ff00" stroke-width=".1655" points="211.8402,-131.2636 208.9401,-121.0734 204.8526,-130.848 211.8402,-131.2636"/>
</g>
<!-- 3837&#45;&gt;3107 -->
<g id="edge17" class="edge">
<title>3837&#45;&gt;3107</title>
<path fill="none" stroke="#00ff00" stroke-width=".1429" d="M214.2264,-326.5247C217.7775,-317.4767 221.9365,-306.8796 225.7932,-297.053"/>
<polygon fill="#00ff00" stroke="#00ff00" stroke-width=".1429" points="229.1199,-298.1567 229.5152,-287.5692 222.6037,-295.5993 229.1199,-298.1567"/>
</g>
<!-- 3837&#45;&gt;3169 -->
<g id="edge20" class="edge">
<title>3837&#45;&gt;3169</title>
<path fill="none" stroke="#00ff00" stroke-width=".4403" d="M184.8728,-336.4694C161.7695,-322.2898 124.0296,-299.1271 97.7917,-283.0237"/>
<polygon fill="#00ff00" stroke="#00ff00" stroke-width=".4403" points="99.3872,-279.8963 89.0335,-277.6484 95.7256,-285.8623 99.3872,-279.8963"/>
</g>
<!-- 4809 -->
<g id="node24" class="node">
<title>4809</title>
<ellipse fill="none" stroke="#000000" cx="172.383" cy="-264.9743" rx="24.0833" ry="24.0833"/>
<text text-anchor="middle" x="172.383" y="-262.2743" font-family="Times,serif" font-size="9.00" fill="#000000">4809</text>
</g>
<!-- 3837&#45;&gt;4809 -->
<g id="edge25" class="edge">
<title>3837&#45;&gt;4809</title>
<path fill="none" stroke="#00ff00" stroke-width=".3326" d="M196.5397,-326.5247C192.9886,-317.4767 188.8296,-306.8796 184.9729,-297.053"/>
<polygon fill="#00ff00" stroke="#00ff00" stroke-width=".3326" points="188.1624,-295.5993 181.2509,-287.5692 181.6462,-298.1567 188.1624,-295.5993"/>
</g>
</g>
</svg>
