<?xml version="1.0" encoding="utf-8" standalone="no"?>
<!DOCTYPE svg PUBLIC "-//W3C//DTD SVG 1.1//EN"
  "http://www.w3.org/Graphics/SVG/1.1/DTD/svg11.dtd">
<!-- Created with matplotlib (https://matplotlib.org/) -->
<svg height="345.6pt" version="1.1" viewBox="0 0 460.8 345.6" width="460.8pt" xmlns="http://www.w3.org/2000/svg" xmlns:xlink="http://www.w3.org/1999/xlink">
 <defs>
  <style type="text/css">
*{stroke-linecap:butt;stroke-linejoin:round;}
  </style>
 </defs>
 <g id="figure_1">
  <g id="patch_1">
   <path d="M 0 345.6 
L 460.8 345.6 
L 460.8 0 
L 0 0 
z
" style="fill:#ffffff;"/>
  </g>
  <g id="axes_1">
   <g id="patch_2">
    <path d="M 57.6 307.584 
L 414.72 307.584 
L 414.72 41.472 
L 57.6 41.472 
z
" style="fill:#ffffff;"/>
   </g>
   <g id="matplotlib.axis_1">
    <g id="xtick_1">
     <g id="line2d_1">
      <path clip-path="url(#p597fb53460)" d="M 73.832727 307.584 
L 73.832727 41.472 
" style="fill:none;stroke:#b0b0b0;stroke-linecap:square;stroke-width:0.8;"/>
     </g>
     <g id="line2d_2">
      <defs>
       <path d="M 0 0 
L 0 3.5 
" id="mbd1d48a7b3" style="stroke:#000000;stroke-width:0.8;"/>
      </defs>
      <g>
       <use style="stroke:#000000;stroke-width:0.8;" x="73.832727" xlink:href="#mbd1d48a7b3" y="307.584"/>
      </g>
     </g>
     <g id="text_1">
      <!-- 0 -->
      <defs>
       <path d="M 31.78125 66.40625 
Q 24.171875 66.40625 20.328125 58.90625 
Q 16.5 51.421875 16.5 36.375 
Q 16.5 21.390625 20.328125 13.890625 
Q 24.171875 6.390625 31.78125 6.390625 
Q 39.453125 6.390625 43.28125 13.890625 
Q 47.125 21.390625 47.125 36.375 
Q 47.125 51.421875 43.28125 58.90625 
Q 39.453125 66.40625 31.78125 66.40625 
z
M 31.78125 74.21875 
Q 44.046875 74.21875 50.515625 64.515625 
Q 56.984375 54.828125 56.984375 36.375 
Q 56.984375 17.96875 50.515625 8.265625 
Q 44.046875 -1.421875 31.78125 -1.421875 
Q 19.53125 -1.421875 13.0625 8.265625 
Q 6.59375 17.96875 6.59375 36.375 
Q 6.59375 54.828125 13.0625 64.515625 
Q 19.53125 74.21875 31.78125 74.21875 
z
" id="DejaVuSans-48"/>
      </defs>
      <g transform="translate(70.651477 322.182437)scale(0.1 -0.1)">
       <use xlink:href="#DejaVuSans-48"/>
      </g>
     </g>
    </g>
    <g id="xtick_2">
     <g id="line2d_3">
      <path clip-path="url(#p597fb53460)" d="M 128.122785 307.584 
L 128.122785 41.472 
" style="fill:none;stroke:#b0b0b0;stroke-linecap:square;stroke-width:0.8;"/>
     </g>
     <g id="line2d_4">
      <g>
       <use style="stroke:#000000;stroke-width:0.8;" x="128.122785" xlink:href="#mbd1d48a7b3" y="307.584"/>
      </g>
     </g>
     <g id="text_2">
      <!-- 50 -->
      <defs>
       <path d="M 10.796875 72.90625 
L 49.515625 72.90625 
L 49.515625 64.59375 
L 19.828125 64.59375 
L 19.828125 46.734375 
Q 21.96875 47.46875 24.109375 47.828125 
Q 26.265625 48.1875 28.421875 48.1875 
Q 40.625 48.1875 47.75 41.5 
Q 54.890625 34.8125 54.890625 23.390625 
Q 54.890625 11.625 47.5625 5.09375 
Q 40.234375 -1.421875 26.90625 -1.421875 
Q 22.3125 -1.421875 17.546875 -0.640625 
Q 12.796875 0.140625 7.71875 1.703125 
L 7.71875 11.625 
Q 12.109375 9.234375 16.796875 8.0625 
Q 21.484375 6.890625 26.703125 6.890625 
Q 35.15625 6.890625 40.078125 11.328125 
Q 45.015625 15.765625 45.015625 23.390625 
Q 45.015625 31 40.078125 35.4375 
Q 35.15625 39.890625 26.703125 39.890625 
Q 22.75 39.890625 18.8125 39.015625 
Q 14.890625 38.140625 10.796875 36.28125 
z
" id="DejaVuSans-53"/>
      </defs>
      <g transform="translate(121.760285 322.182437)scale(0.1 -0.1)">
       <use xlink:href="#DejaVuSans-53"/>
       <use x="63.623047" xlink:href="#DejaVuSans-48"/>
      </g>
     </g>
    </g>
    <g id="xtick_3">
     <g id="line2d_5">
      <path clip-path="url(#p597fb53460)" d="M 182.412843 307.584 
L 182.412843 41.472 
" style="fill:none;stroke:#b0b0b0;stroke-linecap:square;stroke-width:0.8;"/>
     </g>
     <g id="line2d_6">
      <g>
       <use style="stroke:#000000;stroke-width:0.8;" x="182.412843" xlink:href="#mbd1d48a7b3" y="307.584"/>
      </g>
     </g>
     <g id="text_3">
      <!-- 100 -->
      <defs>
       <path d="M 12.40625 8.296875 
L 28.515625 8.296875 
L 28.515625 63.921875 
L 10.984375 60.40625 
L 10.984375 69.390625 
L 28.421875 72.90625 
L 38.28125 72.90625 
L 38.28125 8.296875 
L 54.390625 8.296875 
L 54.390625 0 
L 12.40625 0 
z
" id="DejaVuSans-49"/>
      </defs>
      <g transform="translate(172.869093 322.182437)scale(0.1 -0.1)">
       <use xlink:href="#DejaVuSans-49"/>
       <use x="63.623047" xlink:href="#DejaVuSans-48"/>
       <use x="127.246094" xlink:href="#DejaVuSans-48"/>
      </g>
     </g>
    </g>
    <g id="xtick_4">
     <g id="line2d_7">
      <path clip-path="url(#p597fb53460)" d="M 236.702901 307.584 
L 236.702901 41.472 
" style="fill:none;stroke:#b0b0b0;stroke-linecap:square;stroke-width:0.8;"/>
     </g>
     <g id="line2d_8">
      <g>
       <use style="stroke:#000000;stroke-width:0.8;" x="236.702901" xlink:href="#mbd1d48a7b3" y="307.584"/>
      </g>
     </g>
     <g id="text_4">
      <!-- 150 -->
      <g transform="translate(227.159151 322.182437)scale(0.1 -0.1)">
       <use xlink:href="#DejaVuSans-49"/>
       <use x="63.623047" xlink:href="#DejaVuSans-53"/>
       <use x="127.246094" xlink:href="#DejaVuSans-48"/>
      </g>
     </g>
    </g>
    <g id="xtick_5">
     <g id="line2d_9">
      <path clip-path="url(#p597fb53460)" d="M 290.992958 307.584 
L 290.992958 41.472 
" style="fill:none;stroke:#b0b0b0;stroke-linecap:square;stroke-width:0.8;"/>
     </g>
     <g id="line2d_10">
      <g>
       <use style="stroke:#000000;stroke-width:0.8;" x="290.992958" xlink:href="#mbd1d48a7b3" y="307.584"/>
      </g>
     </g>
     <g id="text_5">
      <!-- 200 -->
      <defs>
       <path d="M 19.1875 8.296875 
L 53.609375 8.296875 
L 53.609375 0 
L 7.328125 0 
L 7.328125 8.296875 
Q 12.9375 14.109375 22.625 23.890625 
Q 32.328125 33.6875 34.8125 36.53125 
Q 39.546875 41.84375 41.421875 45.53125 
Q 43.3125 49.21875 43.3125 52.78125 
Q 43.3125 58.59375 39.234375 62.25 
Q 35.15625 65.921875 28.609375 65.921875 
Q 23.96875 65.921875 18.8125 64.3125 
Q 13.671875 62.703125 7.8125 59.421875 
L 7.8125 69.390625 
Q 13.765625 71.78125 18.9375 73 
Q 24.125 74.21875 28.421875 74.21875 
Q 39.75 74.21875 46.484375 68.546875 
Q 53.21875 62.890625 53.21875 53.421875 
Q 53.21875 48.921875 51.53125 44.890625 
Q 49.859375 40.875 45.40625 35.40625 
Q 44.1875 33.984375 37.640625 27.21875 
Q 31.109375 20.453125 19.1875 8.296875 
z
" id="DejaVuSans-50"/>
      </defs>
      <g transform="translate(281.449208 322.182437)scale(0.1 -0.1)">
       <use xlink:href="#DejaVuSans-50"/>
       <use x="63.623047" xlink:href="#DejaVuSans-48"/>
       <use x="127.246094" xlink:href="#DejaVuSans-48"/>
      </g>
     </g>
    </g>
    <g id="xtick_6">
     <g id="line2d_11">
      <path clip-path="url(#p597fb53460)" d="M 345.283016 307.584 
L 345.283016 41.472 
" style="fill:none;stroke:#b0b0b0;stroke-linecap:square;stroke-width:0.8;"/>
     </g>
     <g id="line2d_12">
      <g>
       <use style="stroke:#000000;stroke-width:0.8;" x="345.283016" xlink:href="#mbd1d48a7b3" y="307.584"/>
      </g>
     </g>
     <g id="text_6">
      <!-- 250 -->
      <g transform="translate(335.739266 322.182437)scale(0.1 -0.1)">
       <use xlink:href="#DejaVuSans-50"/>
       <use x="63.623047" xlink:href="#DejaVuSans-53"/>
       <use x="127.246094" xlink:href="#DejaVuSans-48"/>
      </g>
     </g>
    </g>
    <g id="xtick_7">
     <g id="line2d_13">
      <path clip-path="url(#p597fb53460)" d="M 399.573074 307.584 
L 399.573074 41.472 
" style="fill:none;stroke:#b0b0b0;stroke-linecap:square;stroke-width:0.8;"/>
     </g>
     <g id="line2d_14">
      <g>
       <use style="stroke:#000000;stroke-width:0.8;" x="399.573074" xlink:href="#mbd1d48a7b3" y="307.584"/>
      </g>
     </g>
     <g id="text_7">
      <!-- 300 -->
      <defs>
       <path d="M 40.578125 39.3125 
Q 47.65625 37.796875 51.625 33 
Q 55.609375 28.21875 55.609375 21.1875 
Q 55.609375 10.40625 48.1875 4.484375 
Q 40.765625 -1.421875 27.09375 -1.421875 
Q 22.515625 -1.421875 17.65625 -0.515625 
Q 12.796875 0.390625 7.625 2.203125 
L 7.625 11.71875 
Q 11.71875 9.328125 16.59375 8.109375 
Q 21.484375 6.890625 26.8125 6.890625 
Q 36.078125 6.890625 40.9375 10.546875 
Q 45.796875 14.203125 45.796875 21.1875 
Q 45.796875 27.640625 41.28125 31.265625 
Q 36.765625 34.90625 28.71875 34.90625 
L 20.21875 34.90625 
L 20.21875 43.015625 
L 29.109375 43.015625 
Q 36.375 43.015625 40.234375 45.921875 
Q 44.09375 48.828125 44.09375 54.296875 
Q 44.09375 59.90625 40.109375 62.90625 
Q 36.140625 65.921875 28.71875 65.921875 
Q 24.65625 65.921875 20.015625 65.03125 
Q 15.375 64.15625 9.8125 62.3125 
L 9.8125 71.09375 
Q 15.4375 72.65625 20.34375 73.4375 
Q 25.25 74.21875 29.59375 74.21875 
Q 40.828125 74.21875 47.359375 69.109375 
Q 53.90625 64.015625 53.90625 55.328125 
Q 53.90625 49.265625 50.4375 45.09375 
Q 46.96875 40.921875 40.578125 39.3125 
z
" id="DejaVuSans-51"/>
      </defs>
      <g transform="translate(390.029324 322.182437)scale(0.1 -0.1)">
       <use xlink:href="#DejaVuSans-51"/>
       <use x="63.623047" xlink:href="#DejaVuSans-48"/>
       <use x="127.246094" xlink:href="#DejaVuSans-48"/>
      </g>
     </g>
    </g>
    <g id="text_8">
     <!-- Generations -->
     <defs>
      <path d="M 59.515625 10.40625 
L 59.515625 29.984375 
L 43.40625 29.984375 
L 43.40625 38.09375 
L 69.28125 38.09375 
L 69.28125 6.78125 
Q 63.578125 2.734375 56.6875 0.65625 
Q 49.8125 -1.421875 42 -1.421875 
Q 24.90625 -1.421875 15.25 8.5625 
Q 5.609375 18.5625 5.609375 36.375 
Q 5.609375 54.25 15.25 64.234375 
Q 24.90625 74.21875 42 74.21875 
Q 49.125 74.21875 55.546875 72.453125 
Q 61.96875 70.703125 67.390625 67.28125 
L 67.390625 56.78125 
Q 61.921875 61.421875 55.765625 63.765625 
Q 49.609375 66.109375 42.828125 66.109375 
Q 29.4375 66.109375 22.71875 58.640625 
Q 16.015625 51.171875 16.015625 36.375 
Q 16.015625 21.625 22.71875 14.15625 
Q 29.4375 6.6875 42.828125 6.6875 
Q 48.046875 6.6875 52.140625 7.59375 
Q 56.25 8.5 59.515625 10.40625 
z
" id="DejaVuSans-71"/>
      <path d="M 56.203125 29.59375 
L 56.203125 25.203125 
L 14.890625 25.203125 
Q 15.484375 15.921875 20.484375 11.0625 
Q 25.484375 6.203125 34.421875 6.203125 
Q 39.59375 6.203125 44.453125 7.46875 
Q 49.3125 8.734375 54.109375 11.28125 
L 54.109375 2.78125 
Q 49.265625 0.734375 44.1875 -0.34375 
Q 39.109375 -1.421875 33.890625 -1.421875 
Q 20.796875 -1.421875 13.15625 6.1875 
Q 5.515625 13.8125 5.515625 26.8125 
Q 5.515625 40.234375 12.765625 48.109375 
Q 20.015625 56 32.328125 56 
Q 43.359375 56 49.78125 48.890625 
Q 56.203125 41.796875 56.203125 29.59375 
z
M 47.21875 32.234375 
Q 47.125 39.59375 43.09375 43.984375 
Q 39.0625 48.390625 32.421875 48.390625 
Q 24.90625 48.390625 20.390625 44.140625 
Q 15.875 39.890625 15.1875 32.171875 
z
" id="DejaVuSans-101"/>
      <path d="M 54.890625 33.015625 
L 54.890625 0 
L 45.90625 0 
L 45.90625 32.71875 
Q 45.90625 40.484375 42.875 44.328125 
Q 39.84375 48.1875 33.796875 48.1875 
Q 26.515625 48.1875 22.3125 43.546875 
Q 18.109375 38.921875 18.109375 30.90625 
L 18.109375 0 
L 9.078125 0 
L 9.078125 54.6875 
L 18.109375 54.6875 
L 18.109375 46.1875 
Q 21.34375 51.125 25.703125 53.5625 
Q 30.078125 56 35.796875 56 
Q 45.21875 56 50.046875 50.171875 
Q 54.890625 44.34375 54.890625 33.015625 
z
" id="DejaVuSans-110"/>
      <path d="M 41.109375 46.296875 
Q 39.59375 47.171875 37.8125 47.578125 
Q 36.03125 48 33.890625 48 
Q 26.265625 48 22.1875 43.046875 
Q 18.109375 38.09375 18.109375 28.8125 
L 18.109375 0 
L 9.078125 0 
L 9.078125 54.6875 
L 18.109375 54.6875 
L 18.109375 46.1875 
Q 20.953125 51.171875 25.484375 53.578125 
Q 30.03125 56 36.53125 56 
Q 37.453125 56 38.578125 55.875 
Q 39.703125 55.765625 41.0625 55.515625 
z
" id="DejaVuSans-114"/>
      <path d="M 34.28125 27.484375 
Q 23.390625 27.484375 19.1875 25 
Q 14.984375 22.515625 14.984375 16.5 
Q 14.984375 11.71875 18.140625 8.90625 
Q 21.296875 6.109375 26.703125 6.109375 
Q 34.1875 6.109375 38.703125 11.40625 
Q 43.21875 16.703125 43.21875 25.484375 
L 43.21875 27.484375 
z
M 52.203125 31.203125 
L 52.203125 0 
L 43.21875 0 
L 43.21875 8.296875 
Q 40.140625 3.328125 35.546875 0.953125 
Q 30.953125 -1.421875 24.3125 -1.421875 
Q 15.921875 -1.421875 10.953125 3.296875 
Q 6 8.015625 6 15.921875 
Q 6 25.140625 12.171875 29.828125 
Q 18.359375 34.515625 30.609375 34.515625 
L 43.21875 34.515625 
L 43.21875 35.40625 
Q 43.21875 41.609375 39.140625 45 
Q 35.0625 48.390625 27.6875 48.390625 
Q 23 48.390625 18.546875 47.265625 
Q 14.109375 46.140625 10.015625 43.890625 
L 10.015625 52.203125 
Q 14.9375 54.109375 19.578125 55.046875 
Q 24.21875 56 28.609375 56 
Q 40.484375 56 46.34375 49.84375 
Q 52.203125 43.703125 52.203125 31.203125 
z
" id="DejaVuSans-97"/>
      <path d="M 18.3125 70.21875 
L 18.3125 54.6875 
L 36.8125 54.6875 
L 36.8125 47.703125 
L 18.3125 47.703125 
L 18.3125 18.015625 
Q 18.3125 11.328125 20.140625 9.421875 
Q 21.96875 7.515625 27.59375 7.515625 
L 36.8125 7.515625 
L 36.8125 0 
L 27.59375 0 
Q 17.1875 0 13.234375 3.875 
Q 9.28125 7.765625 9.28125 18.015625 
L 9.28125 47.703125 
L 2.6875 47.703125 
L 2.6875 54.6875 
L 9.28125 54.6875 
L 9.28125 70.21875 
z
" id="DejaVuSans-116"/>
      <path d="M 9.421875 54.6875 
L 18.40625 54.6875 
L 18.40625 0 
L 9.421875 0 
z
M 9.421875 75.984375 
L 18.40625 75.984375 
L 18.40625 64.59375 
L 9.421875 64.59375 
z
" id="DejaVuSans-105"/>
      <path d="M 30.609375 48.390625 
Q 23.390625 48.390625 19.1875 42.75 
Q 14.984375 37.109375 14.984375 27.296875 
Q 14.984375 17.484375 19.15625 11.84375 
Q 23.34375 6.203125 30.609375 6.203125 
Q 37.796875 6.203125 41.984375 11.859375 
Q 46.1875 17.53125 46.1875 27.296875 
Q 46.1875 37.015625 41.984375 42.703125 
Q 37.796875 48.390625 30.609375 48.390625 
z
M 30.609375 56 
Q 42.328125 56 49.015625 48.375 
Q 55.71875 40.765625 55.71875 27.296875 
Q 55.71875 13.875 49.015625 6.21875 
Q 42.328125 -1.421875 30.609375 -1.421875 
Q 18.84375 -1.421875 12.171875 6.21875 
Q 5.515625 13.875 5.515625 27.296875 
Q 5.515625 40.765625 12.171875 48.375 
Q 18.84375 56 30.609375 56 
z
" id="DejaVuSans-111"/>
      <path d="M 44.28125 53.078125 
L 44.28125 44.578125 
Q 40.484375 46.53125 36.375 47.5 
Q 32.28125 48.484375 27.875 48.484375 
Q 21.1875 48.484375 17.84375 46.4375 
Q 14.5 44.390625 14.5 40.28125 
Q 14.5 37.15625 16.890625 35.375 
Q 19.28125 33.59375 26.515625 31.984375 
L 29.59375 31.296875 
Q 39.15625 29.25 43.1875 25.515625 
Q 47.21875 21.78125 47.21875 15.09375 
Q 47.21875 7.46875 41.1875 3.015625 
Q 35.15625 -1.421875 24.609375 -1.421875 
Q 20.21875 -1.421875 15.453125 -0.5625 
Q 10.6875 0.296875 5.421875 2 
L 5.421875 11.28125 
Q 10.40625 8.6875 15.234375 7.390625 
Q 20.0625 6.109375 24.8125 6.109375 
Q 31.15625 6.109375 34.5625 8.28125 
Q 37.984375 10.453125 37.984375 14.40625 
Q 37.984375 18.0625 35.515625 20.015625 
Q 33.0625 21.96875 24.703125 23.78125 
L 21.578125 24.515625 
Q 13.234375 26.265625 9.515625 29.90625 
Q 5.8125 33.546875 5.8125 39.890625 
Q 5.8125 47.609375 11.28125 51.796875 
Q 16.75 56 26.8125 56 
Q 31.78125 56 36.171875 55.265625 
Q 40.578125 54.546875 44.28125 53.078125 
z
" id="DejaVuSans-115"/>
     </defs>
     <g transform="translate(205.662344 335.860562)scale(0.1 -0.1)">
      <use xlink:href="#DejaVuSans-71"/>
      <use x="77.490234" xlink:href="#DejaVuSans-101"/>
      <use x="139.013672" xlink:href="#DejaVuSans-110"/>
      <use x="202.392578" xlink:href="#DejaVuSans-101"/>
      <use x="263.916016" xlink:href="#DejaVuSans-114"/>
      <use x="305.029297" xlink:href="#DejaVuSans-97"/>
      <use x="366.308594" xlink:href="#DejaVuSans-116"/>
      <use x="405.517578" xlink:href="#DejaVuSans-105"/>
      <use x="433.300781" xlink:href="#DejaVuSans-111"/>
      <use x="494.482422" xlink:href="#DejaVuSans-110"/>
      <use x="557.861328" xlink:href="#DejaVuSans-115"/>
     </g>
    </g>
   </g>
   <g id="matplotlib.axis_2">
    <g id="ytick_1">
     <g id="line2d_15">
      <path clip-path="url(#p597fb53460)" d="M 57.6 301.787816 
L 414.72 301.787816 
" style="fill:none;stroke:#b0b0b0;stroke-linecap:square;stroke-width:0.8;"/>
     </g>
     <g id="line2d_16">
      <defs>
       <path d="M 0 0 
L -3.5 0 
" id="m31930c59a0" style="stroke:#000000;stroke-width:0.8;"/>
      </defs>
      <g>
       <use style="stroke:#000000;stroke-width:0.8;" x="57.6" xlink:href="#m31930c59a0" y="301.787816"/>
      </g>
     </g>
     <g id="text_9">
      <!-- 500 -->
      <g transform="translate(31.5125 305.587034)scale(0.1 -0.1)">
       <use xlink:href="#DejaVuSans-53"/>
       <use x="63.623047" xlink:href="#DejaVuSans-48"/>
       <use x="127.246094" xlink:href="#DejaVuSans-48"/>
      </g>
     </g>
    </g>
    <g id="ytick_2">
     <g id="line2d_17">
      <path clip-path="url(#p597fb53460)" d="M 57.6 269.30798 
L 414.72 269.30798 
" style="fill:none;stroke:#b0b0b0;stroke-linecap:square;stroke-width:0.8;"/>
     </g>
     <g id="line2d_18">
      <g>
       <use style="stroke:#000000;stroke-width:0.8;" x="57.6" xlink:href="#m31930c59a0" y="269.30798"/>
      </g>
     </g>
     <g id="text_10">
      <!-- 750 -->
      <defs>
       <path d="M 8.203125 72.90625 
L 55.078125 72.90625 
L 55.078125 68.703125 
L 28.609375 0 
L 18.3125 0 
L 43.21875 64.59375 
L 8.203125 64.59375 
z
" id="DejaVuSans-55"/>
      </defs>
      <g transform="translate(31.5125 273.107198)scale(0.1 -0.1)">
       <use xlink:href="#DejaVuSans-55"/>
       <use x="63.623047" xlink:href="#DejaVuSans-53"/>
       <use x="127.246094" xlink:href="#DejaVuSans-48"/>
      </g>
     </g>
    </g>
    <g id="ytick_3">
     <g id="line2d_19">
      <path clip-path="url(#p597fb53460)" d="M 57.6 236.828143 
L 414.72 236.828143 
" style="fill:none;stroke:#b0b0b0;stroke-linecap:square;stroke-width:0.8;"/>
     </g>
     <g id="line2d_20">
      <g>
       <use style="stroke:#000000;stroke-width:0.8;" x="57.6" xlink:href="#m31930c59a0" y="236.828143"/>
      </g>
     </g>
     <g id="text_11">
      <!-- 1000 -->
      <g transform="translate(25.15 240.627362)scale(0.1 -0.1)">
       <use xlink:href="#DejaVuSans-49"/>
       <use x="63.623047" xlink:href="#DejaVuSans-48"/>
       <use x="127.246094" xlink:href="#DejaVuSans-48"/>
       <use x="190.869141" xlink:href="#DejaVuSans-48"/>
      </g>
     </g>
    </g>
    <g id="ytick_4">
     <g id="line2d_21">
      <path clip-path="url(#p597fb53460)" d="M 57.6 204.348307 
L 414.72 204.348307 
" style="fill:none;stroke:#b0b0b0;stroke-linecap:square;stroke-width:0.8;"/>
     </g>
     <g id="line2d_22">
      <g>
       <use style="stroke:#000000;stroke-width:0.8;" x="57.6" xlink:href="#m31930c59a0" y="204.348307"/>
      </g>
     </g>
     <g id="text_12">
      <!-- 1250 -->
      <g transform="translate(25.15 208.147526)scale(0.1 -0.1)">
       <use xlink:href="#DejaVuSans-49"/>
       <use x="63.623047" xlink:href="#DejaVuSans-50"/>
       <use x="127.246094" xlink:href="#DejaVuSans-53"/>
       <use x="190.869141" xlink:href="#DejaVuSans-48"/>
      </g>
     </g>
    </g>
    <g id="ytick_5">
     <g id="line2d_23">
      <path clip-path="url(#p597fb53460)" d="M 57.6 171.868471 
L 414.72 171.868471 
" style="fill:none;stroke:#b0b0b0;stroke-linecap:square;stroke-width:0.8;"/>
     </g>
     <g id="line2d_24">
      <g>
       <use style="stroke:#000000;stroke-width:0.8;" x="57.6" xlink:href="#m31930c59a0" y="171.868471"/>
      </g>
     </g>
     <g id="text_13">
      <!-- 1500 -->
      <g transform="translate(25.15 175.66769)scale(0.1 -0.1)">
       <use xlink:href="#DejaVuSans-49"/>
       <use x="63.623047" xlink:href="#DejaVuSans-53"/>
       <use x="127.246094" xlink:href="#DejaVuSans-48"/>
       <use x="190.869141" xlink:href="#DejaVuSans-48"/>
      </g>
     </g>
    </g>
    <g id="ytick_6">
     <g id="line2d_25">
      <path clip-path="url(#p597fb53460)" d="M 57.6 139.388635 
L 414.72 139.388635 
" style="fill:none;stroke:#b0b0b0;stroke-linecap:square;stroke-width:0.8;"/>
     </g>
     <g id="line2d_26">
      <g>
       <use style="stroke:#000000;stroke-width:0.8;" x="57.6" xlink:href="#m31930c59a0" y="139.388635"/>
      </g>
     </g>
     <g id="text_14">
      <!-- 1750 -->
      <g transform="translate(25.15 143.187854)scale(0.1 -0.1)">
       <use xlink:href="#DejaVuSans-49"/>
       <use x="63.623047" xlink:href="#DejaVuSans-55"/>
       <use x="127.246094" xlink:href="#DejaVuSans-53"/>
       <use x="190.869141" xlink:href="#DejaVuSans-48"/>
      </g>
     </g>
    </g>
    <g id="ytick_7">
     <g id="line2d_27">
      <path clip-path="url(#p597fb53460)" d="M 57.6 106.908799 
L 414.72 106.908799 
" style="fill:none;stroke:#b0b0b0;stroke-linecap:square;stroke-width:0.8;"/>
     </g>
     <g id="line2d_28">
      <g>
       <use style="stroke:#000000;stroke-width:0.8;" x="57.6" xlink:href="#m31930c59a0" y="106.908799"/>
      </g>
     </g>
     <g id="text_15">
      <!-- 2000 -->
      <g transform="translate(25.15 110.708017)scale(0.1 -0.1)">
       <use xlink:href="#DejaVuSans-50"/>
       <use x="63.623047" xlink:href="#DejaVuSans-48"/>
       <use x="127.246094" xlink:href="#DejaVuSans-48"/>
       <use x="190.869141" xlink:href="#DejaVuSans-48"/>
      </g>
     </g>
    </g>
    <g id="ytick_8">
     <g id="line2d_29">
      <path clip-path="url(#p597fb53460)" d="M 57.6 74.428962 
L 414.72 74.428962 
" style="fill:none;stroke:#b0b0b0;stroke-linecap:square;stroke-width:0.8;"/>
     </g>
     <g id="line2d_30">
      <g>
       <use style="stroke:#000000;stroke-width:0.8;" x="57.6" xlink:href="#m31930c59a0" y="74.428962"/>
      </g>
     </g>
     <g id="text_16">
      <!-- 2250 -->
      <g transform="translate(25.15 78.228181)scale(0.1 -0.1)">
       <use xlink:href="#DejaVuSans-50"/>
       <use x="63.623047" xlink:href="#DejaVuSans-50"/>
       <use x="127.246094" xlink:href="#DejaVuSans-53"/>
       <use x="190.869141" xlink:href="#DejaVuSans-48"/>
      </g>
     </g>
    </g>
    <g id="ytick_9">
     <g id="line2d_31">
      <path clip-path="url(#p597fb53460)" d="M 57.6 41.949126 
L 414.72 41.949126 
" style="fill:none;stroke:#b0b0b0;stroke-linecap:square;stroke-width:0.8;"/>
     </g>
     <g id="line2d_32">
      <g>
       <use style="stroke:#000000;stroke-width:0.8;" x="57.6" xlink:href="#m31930c59a0" y="41.949126"/>
      </g>
     </g>
     <g id="text_17">
      <!-- 2500 -->
      <g transform="translate(25.15 45.748345)scale(0.1 -0.1)">
       <use xlink:href="#DejaVuSans-50"/>
       <use x="63.623047" xlink:href="#DejaVuSans-53"/>
       <use x="127.246094" xlink:href="#DejaVuSans-48"/>
       <use x="190.869141" xlink:href="#DejaVuSans-48"/>
      </g>
     </g>
    </g>
    <g id="text_18">
     <!-- Fitness -->
     <defs>
      <path d="M 9.8125 72.90625 
L 51.703125 72.90625 
L 51.703125 64.59375 
L 19.671875 64.59375 
L 19.671875 43.109375 
L 48.578125 43.109375 
L 48.578125 34.8125 
L 19.671875 34.8125 
L 19.671875 0 
L 9.8125 0 
z
" id="DejaVuSans-70"/>
     </defs>
     <g transform="translate(19.070312 192.202219)rotate(-90)scale(0.1 -0.1)">
      <use xlink:href="#DejaVuSans-70"/>
      <use x="57.410156" xlink:href="#DejaVuSans-105"/>
      <use x="85.193359" xlink:href="#DejaVuSans-116"/>
      <use x="124.402344" xlink:href="#DejaVuSans-110"/>
      <use x="187.78125" xlink:href="#DejaVuSans-101"/>
      <use x="249.304688" xlink:href="#DejaVuSans-115"/>
      <use x="301.404297" xlink:href="#DejaVuSans-115"/>
     </g>
    </g>
   </g>
   <g id="line2d_33">
    <path clip-path="url(#p597fb53460)" d="M 73.832727 253.73681 
L 74.918528 215.261215 
L 76.00433 215.460067 
L 77.090131 204.517081 
L 78.175932 204.647798 
L 79.261733 183.52313 
L 80.347534 187.185812 
L 81.433335 179.762235 
L 82.519137 183.277284 
L 83.604938 176.037744 
L 84.690739 158.412258 
L 85.77654 175.852343 
L 86.862341 178.499147 
L 87.948142 189.825548 
L 89.033943 177.290935 
L 90.119745 176.120229 
L 91.205546 153.178386 
L 92.291347 148.956078 
L 93.377148 162.481996 
L 94.462949 167.990062 
L 95.54875 141.696539 
L 96.634552 140.864322 
L 97.720353 165.335289 
L 98.806154 137.726285 
L 99.891955 148.523835 
L 102.063557 154.798839 
L 103.149358 162.998546 
L 104.23516 147.169487 
L 105.320961 184.937938 
L 106.406762 163.979658 
L 107.492563 157.170826 
L 108.578364 134.66913 
L 109.664165 134.577761 
L 110.749967 131.935195 
L 111.835768 132.161777 
L 112.921569 139.495647 
L 114.00737 140.509431 
L 115.093171 138.468373 
L 116.178972 140.794967 
L 117.264773 127.797096 
L 118.350575 140.974651 
L 119.436376 139.650154 
L 120.522177 151.679558 
L 121.607978 156.134545 
L 122.693779 150.336808 
L 123.77958 142.586332 
L 124.865382 131.64029 
L 125.951183 161.426402 
L 127.036984 151.39412 
L 128.122785 169.287124 
L 129.208586 162.865517 
L 130.294387 147.060158 
L 131.380189 152.266208 
L 132.46599 146.77428 
L 133.551791 150.107737 
L 134.637592 155.648904 
L 135.723393 177.228108 
L 136.809194 136.669022 
L 137.894995 147.568647 
L 138.980797 130.943443 
L 140.066598 133.506329 
L 141.152399 133.067801 
L 142.2382 165.622543 
L 143.324001 136.493081 
L 144.409802 124.593643 
L 145.495604 130.56843 
L 146.581405 119.575208 
L 147.667206 149.061827 
L 148.753007 116.556208 
L 149.838808 119.372317 
L 150.924609 120.781311 
L 152.01041 108.790258 
L 153.096212 110.237987 
L 154.182013 110.727835 
L 155.267814 124.300676 
L 156.353615 116.460365 
L 157.439416 102.141157 
L 158.525217 115.354022 
L 159.611019 109.659362 
L 160.69682 117.820113 
L 161.782621 114.939275 
L 162.868422 111.560992 
L 163.954223 100.964509 
L 165.040024 104.731092 
L 166.125825 98.27039 
L 167.211627 107.825704 
L 168.297428 112.14233 
L 169.383229 117.844963 
L 170.46903 107.90228 
L 171.554831 118.010195 
L 172.640632 112.343996 
L 173.726434 114.382761 
L 174.812235 101.018825 
L 175.898036 98.985622 
L 176.983837 111.333247 
L 178.069638 99.419764 
L 179.155439 100.538193 
L 180.24124 114.358268 
L 181.327042 110.603286 
L 182.412843 115.642168 
L 183.498644 133.735918 
L 185.670246 106.431345 
L 186.756047 105.971356 
L 187.841849 105.304782 
L 188.92765 107.001593 
L 190.013451 88.901051 
L 191.099252 103.216426 
L 192.185053 96.103999 
L 193.270854 103.165086 
L 194.356656 100.484827 
L 195.442457 101.684299 
L 196.528258 107.6132 
L 197.614059 110.871866 
L 198.69986 105.520848 
L 199.785661 101.0111 
L 200.871462 99.216537 
L 201.957264 111.656417 
L 203.043065 115.095553 
L 204.128866 110.938666 
L 205.214667 103.919998 
L 206.300468 99.12232 
L 207.386269 105.211039 
L 208.472071 112.907138 
L 209.557872 123.3521 
L 210.643673 106.155967 
L 211.729474 121.596303 
L 212.815275 108.217505 
L 213.901076 112.043573 
L 214.986877 108.816544 
L 216.072679 113.39571 
L 217.15848 109.62903 
L 218.244281 106.755999 
L 219.330082 100.938506 
L 220.415883 107.370829 
L 221.501684 109.811057 
L 222.587486 109.285725 
L 223.673287 103.310039 
L 224.759088 112.41493 
L 225.844889 104.383238 
L 226.93069 101.041988 
L 228.016491 104.52092 
L 229.102292 101.916928 
L 230.188094 115.377861 
L 231.273895 116.80718 
L 232.359696 95.443135 
L 234.531298 105.904431 
L 235.617099 98.225929 
L 236.702901 118.687756 
L 237.788702 122.113342 
L 238.874503 127.541774 
L 239.960304 131.939636 
L 241.046105 111.037889 
L 242.131906 110.947708 
L 243.217708 125.527703 
L 244.303509 111.32873 
L 245.38931 102.19183 
L 246.475111 105.096833 
L 247.560912 107.134139 
L 248.646713 104.164778 
L 249.732514 108.128005 
L 250.818316 108.255674 
L 251.904117 104.317186 
L 252.989918 94.884345 
L 254.075719 111.927543 
L 255.16152 112.825888 
L 256.247321 107.722139 
L 257.333123 124.800509 
L 258.418924 120.230417 
L 259.504725 122.696371 
L 260.590526 128.28751 
L 261.676327 133.008426 
L 262.762128 119.676385 
L 263.847929 121.845596 
L 264.933731 126.509129 
L 266.019532 114.803548 
L 267.105333 110.015514 
L 269.276935 112.234574 
L 270.362736 108.45052 
L 271.448538 116.172707 
L 272.534339 106.016138 
L 273.62014 119.750058 
L 274.705941 117.937422 
L 275.791742 123.12923 
L 276.877543 129.193897 
L 277.963344 115.169085 
L 279.049146 119.678149 
L 280.134947 109.922642 
L 281.220748 125.771838 
L 282.306549 127.972248 
L 283.39235 137.469153 
L 284.478151 128.881511 
L 285.563953 127.629626 
L 286.649754 132.207653 
L 287.735555 154.914664 
L 288.821356 158.887609 
L 289.907157 136.712693 
L 290.992958 139.976671 
L 292.07876 121.53583 
L 293.164561 117.850997 
L 294.250362 125.764832 
L 295.336163 110.159233 
L 296.421964 134.589089 
L 297.507765 130.911309 
L 298.593566 107.887438 
L 299.679368 116.054419 
L 300.765169 120.336751 
L 301.85097 133.408484 
L 302.936771 137.314751 
L 304.022572 125.355012 
L 305.108373 123.013283 
L 306.194175 129.138629 
L 307.279976 120.331867 
L 308.365777 122.415468 
L 309.451578 108.27343 
L 310.537379 119.45723 
L 311.62318 106.331928 
L 312.708981 106.687269 
L 313.794783 117.773451 
L 314.880584 112.896167 
L 315.966385 116.37885 
L 317.052186 116.037379 
L 318.137987 111.463514 
L 319.223788 121.694326 
L 320.30959 110.534457 
L 321.395391 112.10364 
L 322.481192 106.389729 
L 324.652794 97.532737 
L 325.738595 99.444788 
L 326.824396 111.388182 
L 327.910198 111.444594 
L 328.995999 114.083743 
L 330.0818 113.359233 
L 331.167601 126.26132 
L 332.253402 119.328356 
L 333.339203 117.131641 
L 334.425005 111.498745 
L 335.510806 123.367946 
L 337.682408 105.660152 
L 338.768209 106.485368 
L 339.85401 107.6983 
L 340.939811 103.196994 
L 342.025613 113.183423 
L 343.111414 104.064385 
L 344.197215 95.982244 
L 345.283016 112.867132 
L 346.368817 117.75082 
L 347.454618 105.344865 
L 348.54042 107.779522 
L 349.626221 117.570062 
L 350.712022 110.631843 
L 351.797823 99.455386 
L 352.883624 112.294889 
L 353.969425 117.751823 
L 355.055227 126.335345 
L 356.141028 108.641971 
L 357.226829 108.158137 
L 358.31263 108.486884 
L 359.398431 114.213393 
L 360.484232 130.49905 
L 361.570033 111.334219 
L 362.655835 107.440115 
L 363.741636 121.381722 
L 364.827437 124.463052 
L 365.913238 112.137404 
L 366.999039 109.150493 
L 368.08484 117.636627 
L 369.170642 116.804842 
L 370.256443 122.299204 
L 371.342244 118.291873 
L 372.428045 127.411357 
L 373.513846 118.944724 
L 374.599647 124.450873 
L 375.685448 126.672379 
L 376.77125 119.144592 
L 377.857051 115.376901 
L 378.942852 123.72697 
L 380.028653 115.067773 
L 381.114454 132.303381 
L 382.200255 123.478288 
L 383.286057 122.131619 
L 384.371858 104.731631 
L 385.457659 114.618179 
L 386.54346 122.618477 
L 387.629261 122.869283 
L 388.715062 124.669183 
L 389.800863 125.66448 
L 390.886665 116.428529 
L 391.972466 123.777377 
L 393.058267 117.764892 
L 394.144068 122.098192 
L 395.229869 110.560301 
L 396.31567 107.951067 
L 397.401472 116.413031 
L 398.487273 118.229496 
L 398.487273 118.229496 
" style="fill:none;stroke:#0000ff;stroke-linecap:square;stroke-width:1.5;"/>
   </g>
   <g id="line2d_34">
    <path clip-path="url(#p597fb53460)" d="M 73.832727 295.488 
L 74.918528 246.469083 
L 76.00433 245.407638 
L 77.090131 234.941767 
L 78.175932 254.717919 
L 79.261733 226.989082 
L 80.347534 232.230748 
L 81.433335 215.656823 
L 82.519137 217.931967 
L 83.604938 211.298005 
L 84.690739 183.985767 
L 85.77654 213.959048 
L 86.862341 228.150507 
L 87.948142 248.124923 
L 89.033943 230.075802 
L 90.119745 232.670403 
L 91.205546 209.145567 
L 92.291347 197.085807 
L 93.377148 222.415704 
L 94.462949 240.184178 
L 95.54875 186.117779 
L 96.634552 172.303135 
L 97.720353 228.725692 
L 98.806154 182.137448 
L 99.891955 192.705508 
L 100.977756 198.966597 
L 102.063557 210.440411 
L 103.149358 224.070367 
L 104.23516 197.934343 
L 105.320961 255.159387 
L 106.406762 228.832611 
L 107.492563 231.897888 
L 108.578364 185.939805 
L 109.664165 173.062655 
L 110.749967 156.423139 
L 111.835768 175.897586 
L 112.921569 178.46162 
L 114.00737 186.0071 
L 115.093171 175.641243 
L 116.178972 180.044162 
L 117.264773 148.555762 
L 118.350575 187.373517 
L 119.436376 180.939565 
L 120.522177 202.876293 
L 121.607978 209.099278 
L 122.693779 209.527053 
L 123.77958 199.150132 
L 124.865382 182.096313 
L 125.951183 218.640841 
L 127.036984 216.844336 
L 128.122785 234.503043 
L 129.208586 231.797612 
L 130.294387 208.164411 
L 131.380189 220.216289 
L 132.46599 212.991808 
L 133.551791 212.567334 
L 134.637592 211.129339 
L 135.723393 247.503261 
L 136.809194 190.245558 
L 137.894995 200.777707 
L 138.980797 177.270073 
L 140.066598 173.44791 
L 141.152399 166.37592 
L 142.2382 219.473619 
L 143.324001 178.104775 
L 144.409802 164.508028 
L 145.495604 170.7214 
L 146.581405 156.445711 
L 147.667206 215.222925 
L 148.753007 164.28406 
L 149.838808 164.324331 
L 150.924609 170.578866 
L 152.01041 151.825829 
L 153.096212 151.181531 
L 154.182013 154.968954 
L 155.267814 184.740556 
L 156.353615 175.921897 
L 157.439416 145.498986 
L 158.525217 173.828536 
L 159.611019 139.666533 
L 160.69682 165.556154 
L 161.782621 174.517142 
L 162.868422 160.391554 
L 163.954223 132.615254 
L 165.040024 143.846684 
L 166.125825 134.285336 
L 167.211627 152.174229 
L 168.297428 161.204866 
L 169.383229 172.118578 
L 170.46903 153.981501 
L 171.554831 162.650069 
L 172.640632 158.716649 
L 173.726434 172.127215 
L 174.812235 134.796144 
L 175.898036 137.92829 
L 176.983837 150.057367 
L 178.069638 128.798253 
L 179.155439 123.286654 
L 180.24124 161.979542 
L 181.327042 136.795564 
L 182.412843 142.413389 
L 183.498644 178.19279 
L 184.584445 148.398771 
L 185.670246 138.661091 
L 186.756047 139.040415 
L 187.841849 139.116652 
L 188.92765 160.12582 
L 190.013451 124.234102 
L 191.099252 148.751155 
L 192.185053 134.605814 
L 193.270854 136.575312 
L 194.356656 140.632417 
L 195.442457 149.412529 
L 196.528258 152.960575 
L 197.614059 150.933275 
L 198.69986 150.126132 
L 199.785661 133.040551 
L 200.871462 122.981009 
L 201.957264 162.57213 
L 203.043065 160.142146 
L 204.128866 141.43051 
L 205.214667 139.427968 
L 206.300468 132.557684 
L 207.386269 129.891107 
L 208.472071 146.809387 
L 209.557872 167.002209 
L 210.643673 137.59435 
L 211.729474 159.096447 
L 212.815275 142.492603 
L 213.901076 143.393768 
L 214.986877 141.137291 
L 216.072679 141.816056 
L 217.15848 140.356998 
L 218.244281 134.051864 
L 219.330082 122.538459 
L 220.415883 128.739409 
L 221.501684 148.759998 
L 222.587486 151.36321 
L 223.673287 130.646998 
L 224.759088 137.569092 
L 225.844889 123.851411 
L 226.93069 131.591057 
L 228.016491 130.625947 
L 229.102292 124.553265 
L 230.188094 152.177957 
L 231.273895 157.646068 
L 232.359696 107.792249 
L 233.445497 129.827947 
L 234.531298 145.726891 
L 235.617099 127.955843 
L 236.702901 164.893976 
L 237.788702 175.150724 
L 238.874503 166.284396 
L 239.960304 163.173344 
L 241.046105 135.192581 
L 242.131906 130.930811 
L 243.217708 185.149027 
L 244.303509 144.140894 
L 245.38931 130.896454 
L 246.475111 132.219965 
L 247.560912 139.421757 
L 248.646713 139.361269 
L 249.732514 129.77864 
L 250.818316 137.190517 
L 252.989918 125.995847 
L 254.075719 160.279697 
L 255.16152 148.399279 
L 256.247321 138.990532 
L 257.333123 178.913141 
L 258.418924 160.727338 
L 259.504725 163.369555 
L 260.590526 180.309146 
L 261.676327 194.2107 
L 262.762128 161.940231 
L 263.847929 166.141502 
L 264.933731 163.272509 
L 266.019532 158.098081 
L 267.105333 132.541235 
L 268.191134 144.405028 
L 269.276935 151.228142 
L 270.362736 145.524959 
L 271.448538 166.124376 
L 272.534339 134.017422 
L 273.62014 168.393219 
L 274.705941 161.033114 
L 275.791742 156.52169 
L 276.877543 172.998518 
L 277.963344 149.360513 
L 279.049146 151.153393 
L 280.134947 148.393891 
L 281.220748 180.923834 
L 282.306549 179.462484 
L 283.39235 199.325666 
L 284.478151 162.600019 
L 285.563953 175.161751 
L 286.649754 172.870981 
L 287.735555 218.074173 
L 288.821356 228.757924 
L 289.907157 179.442443 
L 290.992958 198.318811 
L 292.07876 151.877348 
L 293.164561 175.873469 
L 294.250362 172.539437 
L 295.336163 163.16606 
L 296.421964 213.80022 
L 297.507765 196.52654 
L 298.593566 150.229423 
L 299.679368 175.769355 
L 300.765169 172.427711 
L 301.85097 206.600345 
L 302.936771 199.587263 
L 304.022572 182.593128 
L 305.108373 178.415675 
L 306.194175 198.398523 
L 307.279976 172.405137 
L 308.365777 175.043846 
L 309.451578 140.98084 
L 310.537379 157.367477 
L 311.62318 125.160348 
L 312.708981 134.697512 
L 313.794783 139.908283 
L 314.880584 139.492992 
L 315.966385 155.068248 
L 317.052186 160.312207 
L 318.137987 137.76642 
L 319.223788 156.842907 
L 320.30959 145.834947 
L 321.395391 147.667341 
L 322.481192 133.703065 
L 323.566993 124.991578 
L 324.652794 132.546424 
L 325.738595 141.54936 
L 326.824396 145.885494 
L 327.910198 145.56351 
L 328.995999 159.103569 
L 330.0818 137.202433 
L 331.167601 185.255868 
L 332.253402 165.372208 
L 333.339203 169.454365 
L 334.425005 143.857179 
L 335.510806 155.365005 
L 336.596607 148.655529 
L 337.682408 140.221978 
L 338.768209 134.310385 
L 340.939811 143.764933 
L 342.025613 147.44184 
L 343.111414 123.60062 
L 344.197215 122.316354 
L 345.283016 146.726163 
L 346.368817 152.944146 
L 347.454618 137.016872 
L 348.54042 130.102186 
L 349.626221 155.928464 
L 350.712022 155.86938 
L 351.797823 134.198413 
L 352.883624 144.351582 
L 353.969425 151.254258 
L 355.055227 160.131066 
L 356.141028 134.741155 
L 357.226829 143.635936 
L 358.31263 150.95806 
L 359.398431 163.628838 
L 360.484232 166.629951 
L 361.570033 151.120338 
L 362.655835 133.14608 
L 363.741636 164.198778 
L 364.827437 173.174048 
L 365.913238 132.963533 
L 366.999039 150.137582 
L 368.08484 156.281282 
L 369.170642 150.986205 
L 370.256443 177.7978 
L 371.342244 152.373065 
L 372.428045 173.807706 
L 373.513846 155.107015 
L 374.599647 176.591549 
L 375.685448 174.196035 
L 376.77125 150.315381 
L 377.857051 150.983948 
L 378.942852 168.802162 
L 380.028653 143.994739 
L 381.114454 184.981206 
L 382.200255 160.576833 
L 383.286057 153.028292 
L 384.371858 130.117511 
L 385.457659 155.873721 
L 386.54346 170.104752 
L 387.629261 170.437157 
L 388.715062 163.931876 
L 389.800863 170.902038 
L 390.886665 155.398075 
L 391.972466 163.884453 
L 393.058267 159.057053 
L 394.144068 152.417188 
L 395.229869 141.820579 
L 396.31567 140.197802 
L 397.401472 162.605393 
L 398.487273 154.010223 
L 398.487273 154.010223 
" style="fill:none;stroke:#008000;stroke-dasharray:9.6,2.4,1.5,2.4;stroke-dashoffset:0;stroke-width:1.5;"/>
   </g>
   <g id="line2d_35">
    <path clip-path="url(#p597fb53460)" d="M 73.832727 211.985621 
L 74.918528 184.053346 
L 76.00433 185.512495 
L 77.090131 174.092395 
L 78.175932 154.577677 
L 79.261733 140.057179 
L 80.347534 142.140876 
L 81.433335 143.867647 
L 82.519137 148.622601 
L 84.690739 132.838748 
L 85.77654 137.745638 
L 86.862341 128.847786 
L 87.948142 131.526173 
L 89.033943 124.506068 
L 90.119745 119.570055 
L 91.205546 97.211205 
L 92.291347 100.826349 
L 93.377148 102.548289 
L 94.462949 95.795945 
L 95.54875 97.2753 
L 96.634552 109.425509 
L 97.720353 101.944886 
L 98.806154 93.315123 
L 99.891955 104.342162 
L 100.977756 104.338463 
L 102.063557 99.157266 
L 103.149358 101.926726 
L 104.23516 96.404632 
L 105.320961 114.716489 
L 107.492563 82.443763 
L 108.578364 83.398455 
L 109.664165 96.092867 
L 110.749967 107.447251 
L 111.835768 88.425968 
L 112.921569 100.529673 
L 114.00737 95.011762 
L 115.093171 101.295504 
L 116.178972 101.545772 
L 117.264773 107.03843 
L 118.350575 94.575785 
L 119.436376 98.360743 
L 120.522177 100.482824 
L 121.607978 103.169812 
L 122.693779 91.146564 
L 124.865382 81.184268 
L 125.951183 104.211963 
L 127.036984 85.943903 
L 128.122785 104.071205 
L 129.208586 93.933423 
L 130.294387 85.955905 
L 131.380189 84.316128 
L 132.46599 80.556751 
L 133.551791 87.64814 
L 134.637592 100.168469 
L 135.723393 106.952954 
L 136.809194 83.092486 
L 137.894995 94.359588 
L 138.980797 84.616813 
L 140.066598 93.564747 
L 141.152399 99.759682 
L 142.2382 111.771467 
L 143.324001 94.881387 
L 144.409802 84.679258 
L 145.495604 90.41546 
L 146.581405 82.704705 
L 147.667206 82.900728 
L 148.753007 68.828356 
L 149.838808 74.420304 
L 150.924609 70.983755 
L 152.01041 65.754686 
L 153.096212 69.294443 
L 155.267814 63.860795 
L 156.353615 56.998833 
L 157.439416 58.783328 
L 158.525217 56.879507 
L 159.611019 79.652191 
L 160.69682 70.084072 
L 161.782621 55.361408 
L 162.868422 62.73043 
L 163.954223 69.313764 
L 166.125825 62.255443 
L 167.211627 63.477179 
L 168.297428 63.079794 
L 169.383229 63.571348 
L 170.46903 61.823059 
L 171.554831 73.370321 
L 172.640632 65.971344 
L 173.726434 56.638307 
L 174.812235 67.241506 
L 175.898036 60.042953 
L 176.983837 72.609127 
L 178.069638 70.041275 
L 179.155439 77.789731 
L 180.24124 66.736994 
L 181.327042 84.411009 
L 182.412843 88.870948 
L 183.498644 89.279047 
L 184.584445 92.489535 
L 185.670246 74.2016 
L 187.841849 71.492913 
L 188.92765 53.877366 
L 190.013451 53.568 
L 191.099252 57.681697 
L 192.185053 57.602184 
L 193.270854 69.75486 
L 194.356656 60.337236 
L 195.442457 53.95607 
L 197.614059 70.810457 
L 198.69986 60.915564 
L 199.785661 68.981649 
L 200.871462 75.452064 
L 201.957264 60.740704 
L 203.043065 70.04896 
L 204.128866 80.446822 
L 205.214667 68.412029 
L 206.300468 65.686956 
L 207.386269 80.530971 
L 208.472071 79.004888 
L 209.557872 79.701991 
L 210.643673 74.717584 
L 211.729474 84.096159 
L 212.815275 73.942407 
L 213.901076 80.693378 
L 214.986877 76.495798 
L 216.072679 84.975365 
L 217.15848 78.901063 
L 218.244281 79.460135 
L 219.330082 79.338554 
L 220.415883 86.002249 
L 221.501684 70.862116 
L 222.587486 67.208241 
L 223.673287 75.973081 
L 224.759088 87.260769 
L 225.844889 84.915066 
L 226.93069 70.492919 
L 228.016491 78.415893 
L 229.102292 79.280591 
L 230.188094 78.577765 
L 231.273895 75.968292 
L 232.359696 83.094021 
L 233.445497 71.760331 
L 234.531298 66.081971 
L 235.617099 68.496015 
L 236.702901 72.481537 
L 237.788702 69.07596 
L 238.874503 88.799152 
L 239.960304 100.705929 
L 241.046105 86.883196 
L 242.131906 90.964605 
L 243.217708 65.906379 
L 244.303509 78.516566 
L 245.38931 73.487206 
L 246.475111 77.973702 
L 247.560912 74.846522 
L 248.646713 68.968287 
L 249.732514 86.477369 
L 250.818316 79.32083 
L 251.904117 77.146359 
L 252.989918 63.772842 
L 254.075719 63.57539 
L 255.16152 77.252498 
L 256.247321 76.453745 
L 257.333123 70.687876 
L 258.418924 79.733496 
L 259.504725 82.023187 
L 260.590526 76.265873 
L 261.676327 71.806152 
L 262.762128 77.41254 
L 263.847929 77.54969 
L 264.933731 89.745748 
L 266.019532 71.509015 
L 267.105333 87.489793 
L 268.191134 77.862598 
L 269.276935 73.241005 
L 270.362736 71.376081 
L 271.448538 66.221038 
L 272.534339 78.014855 
L 273.62014 71.106897 
L 274.705941 74.841729 
L 275.791742 89.736771 
L 277.963344 80.977657 
L 279.049146 88.202904 
L 280.134947 71.451393 
L 281.220748 70.619841 
L 282.306549 76.482013 
L 283.39235 75.61264 
L 284.478151 95.163004 
L 285.563953 80.097502 
L 286.649754 91.544325 
L 287.735555 91.755156 
L 288.821356 89.017294 
L 289.907157 93.982943 
L 290.992958 81.634531 
L 292.07876 91.194311 
L 293.164561 59.828526 
L 294.250362 78.990227 
L 295.336163 57.152406 
L 296.421964 55.377958 
L 297.507765 65.296078 
L 298.593566 65.545452 
L 299.679368 56.339484 
L 300.765169 68.24579 
L 301.85097 60.216623 
L 302.936771 75.04224 
L 304.022572 68.116896 
L 305.108373 67.61089 
L 306.194175 59.878734 
L 307.279976 68.258598 
L 308.365777 69.78709 
L 311.62318 87.503507 
L 312.708981 78.677026 
L 313.794783 95.638619 
L 315.966385 77.689452 
L 317.052186 71.762552 
L 318.137987 85.160607 
L 319.223788 86.545746 
L 320.30959 75.233967 
L 321.395391 76.539939 
L 322.481192 79.076393 
L 323.566993 78.471917 
L 324.652794 62.519051 
L 325.738595 57.340216 
L 326.824396 76.890871 
L 327.910198 77.325677 
L 328.995999 69.063918 
L 330.0818 89.516034 
L 331.167601 67.266772 
L 332.253402 73.284504 
L 333.339203 64.808916 
L 334.425005 79.140312 
L 335.510806 91.370888 
L 336.596607 80.253972 
L 337.682408 71.098326 
L 338.768209 78.660351 
L 339.85401 76.46973 
L 340.939811 62.629056 
L 342.025613 78.925006 
L 343.111414 84.52815 
L 344.197215 69.648134 
L 345.283016 79.008101 
L 346.368817 82.557493 
L 347.454618 73.672858 
L 348.54042 85.456858 
L 349.626221 79.21166 
L 350.712022 65.394306 
L 351.797823 64.712359 
L 352.883624 80.238195 
L 353.969425 84.249388 
L 355.055227 92.539623 
L 357.226829 72.680339 
L 358.31263 66.015707 
L 359.398431 64.797948 
L 360.484232 94.368149 
L 361.570033 71.5481 
L 362.655835 81.734151 
L 363.741636 78.564666 
L 364.827437 75.752056 
L 365.913238 91.311275 
L 366.999039 68.163404 
L 368.08484 78.991972 
L 369.170642 82.623479 
L 370.256443 66.800608 
L 371.342244 84.210681 
L 372.428045 81.015008 
L 373.513846 82.782433 
L 374.599647 72.310197 
L 375.685448 79.148722 
L 376.77125 87.973803 
L 377.857051 79.769855 
L 378.942852 78.651778 
L 380.028653 86.140807 
L 381.114454 79.625556 
L 382.200255 86.379743 
L 383.286057 91.234945 
L 384.371858 79.345751 
L 385.457659 73.362637 
L 386.54346 75.132202 
L 387.629261 75.301409 
L 388.715062 85.40649 
L 389.800863 80.426923 
L 390.886665 77.458983 
L 391.972466 83.6703 
L 393.058267 76.472731 
L 394.144068 91.779196 
L 395.229869 79.300024 
L 396.31567 75.704331 
L 397.401472 70.220669 
L 398.487273 82.448769 
L 398.487273 82.448769 
" style="fill:none;stroke:#008000;stroke-dasharray:9.6,2.4,1.5,2.4;stroke-dashoffset:0;stroke-width:1.5;"/>
   </g>
   <g id="line2d_36">
    <path clip-path="url(#p597fb53460)" d="M 73.832727 195.983448 
L 74.918528 192.887835 
L 76.00433 193.560162 
L 77.090131 160.317589 
L 78.175932 152.354056 
L 79.261733 151.480939 
L 80.347534 149.161805 
L 81.433335 154.892633 
L 82.519137 158.737384 
L 83.604938 151.65331 
L 84.690739 139.264783 
L 85.77654 151.119772 
L 86.862341 140.86315 
L 87.948142 142.768223 
L 89.033943 129.142454 
L 90.119745 127.600927 
L 91.205546 106.541336 
L 92.291347 104.024445 
L 93.377148 109.883403 
L 94.462949 104.528779 
L 95.54875 104.454998 
L 96.634552 107.739837 
L 97.720353 106.005194 
L 98.806154 103.840408 
L 99.891955 111.031805 
L 100.977756 109.964217 
L 102.063557 100.295017 
L 103.149358 110.285085 
L 104.23516 105.664744 
L 105.320961 119.39157 
L 106.406762 105.309382 
L 107.492563 95.262717 
L 108.578364 98.005915 
L 109.664165 96.43861 
L 110.749967 105.109345 
L 111.835768 98.401821 
L 112.921569 106.063625 
L 114.00737 99.396419 
L 115.093171 113.362145 
L 116.178972 106.167759 
L 117.264773 102.68044 
L 118.350575 104.918584 
L 119.436376 104.645882 
L 120.522177 96.929651 
L 121.607978 103.387221 
L 122.693779 90.900641 
L 123.77958 102.144321 
L 124.865382 95.894696 
L 125.951183 113.864721 
L 127.036984 105.611164 
L 128.122785 113.403095 
L 129.208586 100.136485 
L 130.294387 105.403458 
L 131.380189 96.976867 
L 132.46599 94.713974 
L 133.551791 85.678628 
L 134.637592 107.737459 
L 135.723393 101.214168 
L 136.809194 85.748979 
L 137.894995 99.210634 
L 138.980797 91.986983 
L 140.066598 98.168877 
L 141.152399 97.077477 
L 142.2382 96.376632 
L 143.324001 96.755119 
L 144.409802 93.308964 
L 145.495604 91.321921 
L 146.581405 87.839407 
L 147.667206 96.203117 
L 148.753007 79.233901 
L 149.838808 83.216649 
L 150.924609 80.486816 
L 152.01041 77.148022 
L 153.096212 71.632437 
L 154.182013 75.717616 
L 155.267814 75.2209 
L 156.353615 63.394681 
L 157.439416 61.837445 
L 158.525217 68.589358 
L 159.611019 76.492079 
L 160.69682 77.053266 
L 161.782621 69.942616 
L 162.868422 69.662966 
L 163.954223 67.711125 
L 165.040024 66.008781 
L 166.125825 66.073292 
L 168.297428 77.889291 
L 169.383229 75.569179 
L 170.46903 71.098038 
L 171.554831 72.268827 
L 172.640632 65.972924 
L 174.812235 75.714419 
L 175.898036 64.750802 
L 176.983837 78.25093 
L 178.069638 74.481126 
L 179.155439 77.958437 
L 180.24124 79.907106 
L 181.327042 89.400127 
L 182.412843 87.954645 
L 183.498644 95.054644 
L 184.584445 92.561302 
L 185.670246 75.689281 
L 186.756047 79.342684 
L 187.841849 77.785031 
L 188.92765 64.712536 
L 190.013451 59.944427 
L 191.099252 65.334141 
L 192.185053 71.787556 
L 193.270854 76.562218 
L 194.356656 71.259709 
L 195.442457 64.947286 
L 196.528258 67.938155 
L 197.614059 67.424212 
L 198.69986 65.148866 
L 199.785661 65.478793 
L 200.871462 70.782636 
L 201.957264 69.612931 
L 204.128866 75.482786 
L 205.214667 67.853746 
L 206.300468 68.425403 
L 207.386269 72.543084 
L 208.472071 73.041354 
L 209.557872 82.180883 
L 210.643673 73.191089 
L 211.729474 81.066722 
L 212.815275 74.845323 
L 213.901076 71.457367 
L 214.986877 73.325603 
L 216.072679 80.277537 
L 217.15848 78.24903 
L 218.244281 75.505199 
L 219.330082 78.039807 
L 220.415883 77.197493 
L 221.501684 73.121006 
L 222.587486 74.71805 
L 223.673287 73.171897 
L 224.759088 80.146194 
L 225.844889 79.768964 
L 226.93069 71.229469 
L 228.016491 73.154312 
L 230.188094 82.237385 
L 231.273895 78.235966 
L 232.359696 78.063633 
L 233.445497 74.706038 
L 234.531298 75.44612 
L 235.617099 71.536901 
L 236.702901 81.031304 
L 237.788702 82.459483 
L 238.874503 90.82297 
L 239.960304 96.913437 
L 241.046105 86.286774 
L 242.131906 84.79857 
L 243.217708 83.025048 
L 244.303509 76.958115 
L 245.38931 67.760559 
L 246.475111 78.496318 
L 247.560912 75.355362 
L 248.646713 70.26221 
L 249.732514 80.403122 
L 250.818316 85.844191 
L 251.904117 80.027816 
L 252.989918 66.247578 
L 254.075719 75.284759 
L 255.16152 78.858179 
L 256.247321 75.369778 
L 257.333123 75.375304 
L 258.418924 74.968986 
L 259.504725 76.465442 
L 260.590526 74.721705 
L 261.676327 85.0909 
L 262.762128 72.371116 
L 263.847929 77.966787 
L 264.933731 93.043162 
L 266.019532 76.72179 
L 267.105333 80.676668 
L 268.191134 80.485405 
L 269.276935 76.42847 
L 270.362736 78.834026 
L 271.448538 67.754875 
L 272.534339 72.188166 
L 273.62014 78.185192 
L 274.705941 75.003619 
L 275.791742 86.475142 
L 276.877543 82.813038 
L 277.963344 82.107517 
L 279.049146 85.748474 
L 280.134947 78.58511 
L 281.220748 88.892669 
L 282.306549 87.833485 
L 283.39235 93.100624 
L 284.478151 102.135815 
L 285.563953 89.816289 
L 286.649754 95.266687 
L 287.735555 98.316303 
L 288.821356 96.95479 
L 289.907157 93.73002 
L 290.992958 91.948415 
L 292.07876 87.899668 
L 293.164561 73.445975 
L 294.250362 83.556017 
L 295.336163 67.874613 
L 296.421964 69.796319 
L 297.507765 76.55181 
L 298.593566 70.019166 
L 299.679368 70.81518 
L 300.765169 81.958305 
L 301.85097 77.23929 
L 302.936771 91.880197 
L 304.022572 80.258245 
L 305.108373 84.383277 
L 306.194175 74.388125 
L 307.279976 81.290215 
L 308.365777 78.720138 
L 310.537379 82.221921 
L 311.62318 80.843336 
L 312.708981 72.054054 
L 313.794783 88.16755 
L 314.880584 82.318057 
L 315.966385 81.794476 
L 317.052186 76.83958 
L 318.137987 80.980049 
L 319.223788 88.078987 
L 320.30959 76.603352 
L 321.395391 78.129484 
L 322.481192 74.086166 
L 323.566993 76.8073 
L 324.652794 65.409487 
L 325.738595 60.831363 
L 326.824396 74.805722 
L 327.910198 82.351443 
L 328.995999 75.088921 
L 330.0818 82.227084 
L 331.167601 76.47322 
L 332.253402 82.960024 
L 333.339203 77.461671 
L 334.425005 78.783982 
L 335.510806 86.130988 
L 336.596607 73.21532 
L 337.682408 69.544547 
L 338.768209 76.445979 
L 339.85401 76.161441 
L 340.939811 69.636886 
L 342.025613 81.46674 
L 343.111414 79.34947 
L 344.197215 67.253651 
L 345.283016 81.292793 
L 346.368817 86.44264 
L 347.454618 74.144184 
L 348.54042 83.416057 
L 349.626221 89.5482 
L 350.712022 75.095993 
L 351.797823 75.839817 
L 352.883624 81.667568 
L 353.969425 86.154428 
L 355.055227 88.579772 
L 356.141028 80.358682 
L 357.226829 86.238552 
L 358.31263 72.510545 
L 359.398431 80.149828 
L 360.484232 93.897022 
L 361.570033 80.198791 
L 362.655835 80.015491 
L 363.741636 85.354302 
L 364.827437 86.215775 
L 365.913238 84.99532 
L 366.999039 76.348843 
L 368.08484 88.47274 
L 369.170642 87.085499 
L 370.256443 73.243665 
L 372.428045 92.130353 
L 373.513846 88.497949 
L 374.599647 82.088383 
L 375.685448 89.635962 
L 376.77125 90.44424 
L 377.857051 88.924137 
L 378.942852 82.24653 
L 380.028653 83.401541 
L 381.114454 91.534069 
L 382.200255 94.942809 
L 383.286057 89.686973 
L 384.371858 71.104043 
L 385.457659 72.404853 
L 386.54346 80.436035 
L 387.629261 81.108575 
L 388.715062 80.789146 
L 389.800863 82.242086 
L 390.886665 79.582317 
L 391.972466 86.258428 
L 393.058267 78.87528 
L 394.144068 85.945681 
L 395.229869 77.337973 
L 396.31567 76.650155 
L 397.401472 74.563675 
L 398.487273 89.169934 
L 398.487273 89.169934 
" style="fill:none;stroke:#ff0000;stroke-linecap:square;stroke-width:1.5;"/>
   </g>
   <g id="patch_3">
    <path d="M 57.6 307.584 
L 57.6 41.472 
" style="fill:none;stroke:#000000;stroke-linecap:square;stroke-linejoin:miter;stroke-width:0.8;"/>
   </g>
   <g id="patch_4">
    <path d="M 414.72 307.584 
L 414.72 41.472 
" style="fill:none;stroke:#000000;stroke-linecap:square;stroke-linejoin:miter;stroke-width:0.8;"/>
   </g>
   <g id="patch_5">
    <path d="M 57.6 307.584 
L 414.72 307.584 
" style="fill:none;stroke:#000000;stroke-linecap:square;stroke-linejoin:miter;stroke-width:0.8;"/>
   </g>
   <g id="patch_6">
    <path d="M 57.6 41.472 
L 414.72 41.472 
" style="fill:none;stroke:#000000;stroke-linecap:square;stroke-linejoin:miter;stroke-width:0.8;"/>
   </g>
   <g id="text_19">
    <!-- Population's average and best fitness -->
    <defs>
     <path d="M 19.671875 64.796875 
L 19.671875 37.40625 
L 32.078125 37.40625 
Q 38.96875 37.40625 42.71875 40.96875 
Q 46.484375 44.53125 46.484375 51.125 
Q 46.484375 57.671875 42.71875 61.234375 
Q 38.96875 64.796875 32.078125 64.796875 
z
M 9.8125 72.90625 
L 32.078125 72.90625 
Q 44.34375 72.90625 50.609375 67.359375 
Q 56.890625 61.8125 56.890625 51.125 
Q 56.890625 40.328125 50.609375 34.8125 
Q 44.34375 29.296875 32.078125 29.296875 
L 19.671875 29.296875 
L 19.671875 0 
L 9.8125 0 
z
" id="DejaVuSans-80"/>
     <path d="M 18.109375 8.203125 
L 18.109375 -20.796875 
L 9.078125 -20.796875 
L 9.078125 54.6875 
L 18.109375 54.6875 
L 18.109375 46.390625 
Q 20.953125 51.265625 25.265625 53.625 
Q 29.59375 56 35.59375 56 
Q 45.5625 56 51.78125 48.09375 
Q 58.015625 40.1875 58.015625 27.296875 
Q 58.015625 14.40625 51.78125 6.484375 
Q 45.5625 -1.421875 35.59375 -1.421875 
Q 29.59375 -1.421875 25.265625 0.953125 
Q 20.953125 3.328125 18.109375 8.203125 
z
M 48.6875 27.296875 
Q 48.6875 37.203125 44.609375 42.84375 
Q 40.53125 48.484375 33.40625 48.484375 
Q 26.265625 48.484375 22.1875 42.84375 
Q 18.109375 37.203125 18.109375 27.296875 
Q 18.109375 17.390625 22.1875 11.75 
Q 26.265625 6.109375 33.40625 6.109375 
Q 40.53125 6.109375 44.609375 11.75 
Q 48.6875 17.390625 48.6875 27.296875 
z
" id="DejaVuSans-112"/>
     <path d="M 8.5 21.578125 
L 8.5 54.6875 
L 17.484375 54.6875 
L 17.484375 21.921875 
Q 17.484375 14.15625 20.5 10.265625 
Q 23.53125 6.390625 29.59375 6.390625 
Q 36.859375 6.390625 41.078125 11.03125 
Q 45.3125 15.671875 45.3125 23.6875 
L 45.3125 54.6875 
L 54.296875 54.6875 
L 54.296875 0 
L 45.3125 0 
L 45.3125 8.40625 
Q 42.046875 3.421875 37.71875 1 
Q 33.40625 -1.421875 27.6875 -1.421875 
Q 18.265625 -1.421875 13.375 4.4375 
Q 8.5 10.296875 8.5 21.578125 
z
M 31.109375 56 
z
" id="DejaVuSans-117"/>
     <path d="M 9.421875 75.984375 
L 18.40625 75.984375 
L 18.40625 0 
L 9.421875 0 
z
" id="DejaVuSans-108"/>
     <path d="M 17.921875 72.90625 
L 17.921875 45.796875 
L 9.625 45.796875 
L 9.625 72.90625 
z
" id="DejaVuSans-39"/>
     <path id="DejaVuSans-32"/>
     <path d="M 2.984375 54.6875 
L 12.5 54.6875 
L 29.59375 8.796875 
L 46.6875 54.6875 
L 56.203125 54.6875 
L 35.6875 0 
L 23.484375 0 
z
" id="DejaVuSans-118"/>
     <path d="M 45.40625 27.984375 
Q 45.40625 37.75 41.375 43.109375 
Q 37.359375 48.484375 30.078125 48.484375 
Q 22.859375 48.484375 18.828125 43.109375 
Q 14.796875 37.75 14.796875 27.984375 
Q 14.796875 18.265625 18.828125 12.890625 
Q 22.859375 7.515625 30.078125 7.515625 
Q 37.359375 7.515625 41.375 12.890625 
Q 45.40625 18.265625 45.40625 27.984375 
z
M 54.390625 6.78125 
Q 54.390625 -7.171875 48.1875 -13.984375 
Q 42 -20.796875 29.203125 -20.796875 
Q 24.46875 -20.796875 20.265625 -20.09375 
Q 16.0625 -19.390625 12.109375 -17.921875 
L 12.109375 -9.1875 
Q 16.0625 -11.328125 19.921875 -12.34375 
Q 23.78125 -13.375 27.78125 -13.375 
Q 36.625 -13.375 41.015625 -8.765625 
Q 45.40625 -4.15625 45.40625 5.171875 
L 45.40625 9.625 
Q 42.625 4.78125 38.28125 2.390625 
Q 33.9375 0 27.875 0 
Q 17.828125 0 11.671875 7.65625 
Q 5.515625 15.328125 5.515625 27.984375 
Q 5.515625 40.671875 11.671875 48.328125 
Q 17.828125 56 27.875 56 
Q 33.9375 56 38.28125 53.609375 
Q 42.625 51.21875 45.40625 46.390625 
L 45.40625 54.6875 
L 54.390625 54.6875 
z
" id="DejaVuSans-103"/>
     <path d="M 45.40625 46.390625 
L 45.40625 75.984375 
L 54.390625 75.984375 
L 54.390625 0 
L 45.40625 0 
L 45.40625 8.203125 
Q 42.578125 3.328125 38.25 0.953125 
Q 33.9375 -1.421875 27.875 -1.421875 
Q 17.96875 -1.421875 11.734375 6.484375 
Q 5.515625 14.40625 5.515625 27.296875 
Q 5.515625 40.1875 11.734375 48.09375 
Q 17.96875 56 27.875 56 
Q 33.9375 56 38.25 53.625 
Q 42.578125 51.265625 45.40625 46.390625 
z
M 14.796875 27.296875 
Q 14.796875 17.390625 18.875 11.75 
Q 22.953125 6.109375 30.078125 6.109375 
Q 37.203125 6.109375 41.296875 11.75 
Q 45.40625 17.390625 45.40625 27.296875 
Q 45.40625 37.203125 41.296875 42.84375 
Q 37.203125 48.484375 30.078125 48.484375 
Q 22.953125 48.484375 18.875 42.84375 
Q 14.796875 37.203125 14.796875 27.296875 
z
" id="DejaVuSans-100"/>
     <path d="M 48.6875 27.296875 
Q 48.6875 37.203125 44.609375 42.84375 
Q 40.53125 48.484375 33.40625 48.484375 
Q 26.265625 48.484375 22.1875 42.84375 
Q 18.109375 37.203125 18.109375 27.296875 
Q 18.109375 17.390625 22.1875 11.75 
Q 26.265625 6.109375 33.40625 6.109375 
Q 40.53125 6.109375 44.609375 11.75 
Q 48.6875 17.390625 48.6875 27.296875 
z
M 18.109375 46.390625 
Q 20.953125 51.265625 25.265625 53.625 
Q 29.59375 56 35.59375 56 
Q 45.5625 56 51.78125 48.09375 
Q 58.015625 40.1875 58.015625 27.296875 
Q 58.015625 14.40625 51.78125 6.484375 
Q 45.5625 -1.421875 35.59375 -1.421875 
Q 29.59375 -1.421875 25.265625 0.953125 
Q 20.953125 3.328125 18.109375 8.203125 
L 18.109375 0 
L 9.078125 0 
L 9.078125 75.984375 
L 18.109375 75.984375 
z
" id="DejaVuSans-98"/>
     <path d="M 37.109375 75.984375 
L 37.109375 68.5 
L 28.515625 68.5 
Q 23.6875 68.5 21.796875 66.546875 
Q 19.921875 64.59375 19.921875 59.515625 
L 19.921875 54.6875 
L 34.71875 54.6875 
L 34.71875 47.703125 
L 19.921875 47.703125 
L 19.921875 0 
L 10.890625 0 
L 10.890625 47.703125 
L 2.296875 47.703125 
L 2.296875 54.6875 
L 10.890625 54.6875 
L 10.890625 58.5 
Q 10.890625 67.625 15.140625 71.796875 
Q 19.390625 75.984375 28.609375 75.984375 
z
" id="DejaVuSans-102"/>
    </defs>
    <g transform="translate(123.315 35.472)scale(0.12 -0.12)">
     <use xlink:href="#DejaVuSans-80"/>
     <use x="60.255859" xlink:href="#DejaVuSans-111"/>
     <use x="121.4375" xlink:href="#DejaVuSans-112"/>
     <use x="184.914062" xlink:href="#DejaVuSans-117"/>
     <use x="248.292969" xlink:href="#DejaVuSans-108"/>
     <use x="276.076172" xlink:href="#DejaVuSans-97"/>
     <use x="337.355469" xlink:href="#DejaVuSans-116"/>
     <use x="376.564453" xlink:href="#DejaVuSans-105"/>
     <use x="404.347656" xlink:href="#DejaVuSans-111"/>
     <use x="465.529297" xlink:href="#DejaVuSans-110"/>
     <use x="528.908203" xlink:href="#DejaVuSans-39"/>
     <use x="556.398438" xlink:href="#DejaVuSans-115"/>
     <use x="608.498047" xlink:href="#DejaVuSans-32"/>
     <use x="640.285156" xlink:href="#DejaVuSans-97"/>
     <use x="701.564453" xlink:href="#DejaVuSans-118"/>
     <use x="760.744141" xlink:href="#DejaVuSans-101"/>
     <use x="822.267578" xlink:href="#DejaVuSans-114"/>
     <use x="863.380859" xlink:href="#DejaVuSans-97"/>
     <use x="924.660156" xlink:href="#DejaVuSans-103"/>
     <use x="988.136719" xlink:href="#DejaVuSans-101"/>
     <use x="1049.660156" xlink:href="#DejaVuSans-32"/>
     <use x="1081.447266" xlink:href="#DejaVuSans-97"/>
     <use x="1142.726562" xlink:href="#DejaVuSans-110"/>
     <use x="1206.105469" xlink:href="#DejaVuSans-100"/>
     <use x="1269.582031" xlink:href="#DejaVuSans-32"/>
     <use x="1301.369141" xlink:href="#DejaVuSans-98"/>
     <use x="1364.845703" xlink:href="#DejaVuSans-101"/>
     <use x="1426.369141" xlink:href="#DejaVuSans-115"/>
     <use x="1478.46875" xlink:href="#DejaVuSans-116"/>
     <use x="1517.677734" xlink:href="#DejaVuSans-32"/>
     <use x="1549.464844" xlink:href="#DejaVuSans-102"/>
     <use x="1584.669922" xlink:href="#DejaVuSans-105"/>
     <use x="1612.453125" xlink:href="#DejaVuSans-116"/>
     <use x="1651.662109" xlink:href="#DejaVuSans-110"/>
     <use x="1715.041016" xlink:href="#DejaVuSans-101"/>
     <use x="1776.564453" xlink:href="#DejaVuSans-115"/>
     <use x="1828.664062" xlink:href="#DejaVuSans-115"/>
    </g>
   </g>
   <g id="legend_1">
    <g id="patch_7">
     <path d="M 334.779375 302.584 
L 407.72 302.584 
Q 409.72 302.584 409.72 300.584 
L 409.72 242.8715 
Q 409.72 240.8715 407.72 240.8715 
L 334.779375 240.8715 
Q 332.779375 240.8715 332.779375 242.8715 
L 332.779375 300.584 
Q 332.779375 302.584 334.779375 302.584 
z
" style="fill:#ffffff;opacity:0.8;stroke:#cccccc;stroke-linejoin:miter;"/>
    </g>
    <g id="line2d_37">
     <path d="M 336.779375 248.969937 
L 356.779375 248.969937 
" style="fill:none;stroke:#0000ff;stroke-linecap:square;stroke-width:1.5;"/>
    </g>
    <g id="line2d_38"/>
    <g id="text_20">
     <!-- average -->
     <g transform="translate(364.779375 252.469937)scale(0.1 -0.1)">
      <use xlink:href="#DejaVuSans-97"/>
      <use x="61.279297" xlink:href="#DejaVuSans-118"/>
      <use x="120.458984" xlink:href="#DejaVuSans-101"/>
      <use x="181.982422" xlink:href="#DejaVuSans-114"/>
      <use x="223.095703" xlink:href="#DejaVuSans-97"/>
      <use x="284.375" xlink:href="#DejaVuSans-103"/>
      <use x="347.851562" xlink:href="#DejaVuSans-101"/>
     </g>
    </g>
    <g id="line2d_39">
     <path d="M 336.779375 263.648062 
L 356.779375 263.648062 
" style="fill:none;stroke:#008000;stroke-dasharray:9.6,2.4,1.5,2.4;stroke-dashoffset:0;stroke-width:1.5;"/>
    </g>
    <g id="line2d_40"/>
    <g id="text_21">
     <!-- -1 sd -->
     <defs>
      <path d="M 4.890625 31.390625 
L 31.203125 31.390625 
L 31.203125 23.390625 
L 4.890625 23.390625 
z
" id="DejaVuSans-45"/>
     </defs>
     <g transform="translate(364.779375 267.148062)scale(0.1 -0.1)">
      <use xlink:href="#DejaVuSans-45"/>
      <use x="36.083984" xlink:href="#DejaVuSans-49"/>
      <use x="99.707031" xlink:href="#DejaVuSans-32"/>
      <use x="131.494141" xlink:href="#DejaVuSans-115"/>
      <use x="183.59375" xlink:href="#DejaVuSans-100"/>
     </g>
    </g>
    <g id="line2d_41">
     <path d="M 336.779375 278.326187 
L 356.779375 278.326187 
" style="fill:none;stroke:#008000;stroke-dasharray:9.6,2.4,1.5,2.4;stroke-dashoffset:0;stroke-width:1.5;"/>
    </g>
    <g id="line2d_42"/>
    <g id="text_22">
     <!-- +1 sd -->
     <defs>
      <path d="M 46 62.703125 
L 46 35.5 
L 73.1875 35.5 
L 73.1875 27.203125 
L 46 27.203125 
L 46 0 
L 37.796875 0 
L 37.796875 27.203125 
L 10.59375 27.203125 
L 10.59375 35.5 
L 37.796875 35.5 
L 37.796875 62.703125 
z
" id="DejaVuSans-43"/>
     </defs>
     <g transform="translate(364.779375 281.826187)scale(0.1 -0.1)">
      <use xlink:href="#DejaVuSans-43"/>
      <use x="83.789062" xlink:href="#DejaVuSans-49"/>
      <use x="147.412109" xlink:href="#DejaVuSans-32"/>
      <use x="179.199219" xlink:href="#DejaVuSans-115"/>
      <use x="231.298828" xlink:href="#DejaVuSans-100"/>
     </g>
    </g>
    <g id="line2d_43">
     <path d="M 336.779375 293.004312 
L 356.779375 293.004312 
" style="fill:none;stroke:#ff0000;stroke-linecap:square;stroke-width:1.5;"/>
    </g>
    <g id="line2d_44"/>
    <g id="text_23">
     <!-- best -->
     <g transform="translate(364.779375 296.504312)scale(0.1 -0.1)">
      <use xlink:href="#DejaVuSans-98"/>
      <use x="63.476562" xlink:href="#DejaVuSans-101"/>
      <use x="125" xlink:href="#DejaVuSans-115"/>
      <use x="177.099609" xlink:href="#DejaVuSans-116"/>
     </g>
    </g>
   </g>
  </g>
 </g>
 <defs>
  <clipPath id="p597fb53460">
   <rect height="266.112" width="357.12" x="57.6" y="41.472"/>
  </clipPath>
 </defs>
</svg>
