<?xml version="1.0" encoding="utf-8" standalone="no"?>
<!DOCTYPE svg PUBLIC "-//W3C//DTD SVG 1.1//EN"
  "http://www.w3.org/Graphics/SVG/1.1/DTD/svg11.dtd">
<!-- Created with matplotlib (https://matplotlib.org/) -->
<svg height="345.6pt" version="1.1" viewBox="0 0 460.8 345.6" width="460.8pt" xmlns="http://www.w3.org/2000/svg" xmlns:xlink="http://www.w3.org/1999/xlink">
 <defs>
  <style type="text/css">
*{stroke-linecap:butt;stroke-linejoin:round;}
  </style>
 </defs>
 <g id="figure_1">
  <g id="patch_1">
   <path d="M 0 345.6 
L 460.8 345.6 
L 460.8 0 
L 0 0 
z
" style="fill:#ffffff;"/>
  </g>
  <g id="axes_1">
   <g id="patch_2">
    <path d="M 57.6 307.584 
L 414.72 307.584 
L 414.72 41.472 
L 57.6 41.472 
z
" style="fill:#ffffff;"/>
   </g>
   <g id="PolyCollection_1">
    <path clip-path="url(#p86d9101b2c)" d="M 73.832727 271.196513 
L 73.832727 272.476484 
L 74.918528 277.8963 
L 76.00433 276.378017 
L 77.090131 275.686289 
L 78.175932 275.644154 
L 79.261733 279.05059 
L 80.347534 282.571678 
L 81.433335 279.565916 
L 82.519137 275.410512 
L 83.604938 270.872621 
L 84.690739 279.95783 
L 85.77654 277.94218 
L 86.862341 277.36626 
L 87.948142 279.566602 
L 89.033943 277.426075 
L 90.119745 275.792223 
L 91.205546 277.429238 
L 92.291347 269.153251 
L 93.377148 275.229796 
L 94.462949 278.333943 
L 95.54875 277.547535 
L 96.634552 277.231792 
L 97.720353 271.164325 
L 98.806154 281.869333 
L 99.891955 283.93674 
L 100.977756 278.074785 
L 102.063557 286.47153 
L 103.149358 278.507784 
L 104.23516 276.126884 
L 105.320961 281.057519 
L 106.406762 289.505926 
L 107.492563 287.541961 
L 108.578364 292.41705 
L 109.664165 294.209511 
L 110.749967 286.604817 
L 111.835768 282.222557 
L 112.921569 286.864661 
L 114.00737 287.184777 
L 115.093171 285.971081 
L 116.178972 290.816518 
L 117.264773 284.713699 
L 118.350575 290.613512 
L 119.436376 284.81849 
L 120.522177 291.538868 
L 121.607978 292.365461 
L 122.693779 286.734154 
L 123.77958 288.128587 
L 124.865382 285.358969 
L 125.951183 282.610006 
L 127.036984 283.889293 
L 128.122785 283.452787 
L 129.208586 283.434504 
L 130.294387 285.121812 
L 131.380189 282.622805 
L 132.46599 282.069237 
L 133.551791 284.60124 
L 134.637592 280.802623 
L 135.723393 281.210522 
L 136.809194 280.833854 
L 137.894995 277.360065 
L 138.980797 268.985587 
L 140.066598 269.924635 
L 141.152399 253.190103 
L 142.2382 249.060988 
L 143.324001 242.400656 
L 144.409802 234.253863 
L 145.495604 259.614684 
L 146.581405 258.981938 
L 147.667206 271.156626 
L 148.753007 274.707036 
L 149.838808 276.555217 
L 150.924609 279.710291 
L 152.01041 277.672693 
L 153.096212 279.939194 
L 154.182013 281.533289 
L 155.267814 282.737597 
L 156.353615 288.032843 
L 157.439416 279.524405 
L 158.525217 285.97586 
L 159.611019 295.488 
L 160.69682 291.589711 
L 161.782621 284.259379 
L 162.868422 285.332723 
L 163.954223 284.210862 
L 165.040024 270.718821 
L 166.125825 262.139244 
L 167.211627 259.304007 
L 168.297428 254.565122 
L 169.383229 254.2822 
L 170.46903 254.346968 
L 171.554831 262.460607 
L 172.640632 266.350783 
L 173.726434 274.684153 
L 174.812235 259.188643 
L 175.898036 262.508323 
L 176.983837 264.919489 
L 178.069638 265.487714 
L 179.155439 259.9109 
L 180.24124 261.435682 
L 181.327042 261.30646 
L 182.412843 262.782762 
L 183.498644 277.333225 
L 184.584445 269.154595 
L 185.670246 267.010206 
L 186.756047 268.083909 
L 187.841849 268.635141 
L 188.92765 266.898979 
L 190.013451 270.846675 
L 191.099252 270.646466 
L 192.185053 277.287006 
L 193.270854 268.208278 
L 194.356656 273.767264 
L 195.442457 278.502137 
L 196.528258 264.642273 
L 197.614059 265.545554 
L 198.69986 261.414461 
L 199.785661 264.669356 
L 200.871462 265.939455 
L 201.957264 233.812531 
L 203.043065 255.368303 
L 204.128866 268.416511 
L 205.214667 256.960641 
L 206.300468 240.556359 
L 207.386269 245.930829 
L 208.472071 285.049579 
L 209.557872 272.332022 
L 210.643673 274.959221 
L 211.729474 265.953849 
L 212.815275 260.028317 
L 213.901076 267.883066 
L 214.986877 264.75715 
L 216.072679 272.855435 
L 217.15848 265.713413 
L 218.244281 273.649213 
L 219.330082 256.160719 
L 220.415883 267.905679 
L 221.501684 280.337776 
L 222.587486 266.495955 
L 223.673287 265.711417 
L 224.759088 255.583524 
L 225.844889 250.727562 
L 226.93069 257.255779 
L 228.016491 258.345717 
L 229.102292 258.310023 
L 230.188094 264.118851 
L 231.273895 255.948442 
L 232.359696 254.317341 
L 233.445497 254.030484 
L 234.531298 258.640946 
L 235.617099 261.623742 
L 236.702901 269.19039 
L 237.788702 270.528094 
L 238.874503 268.743983 
L 239.960304 262.217886 
L 241.046105 280.50759 
L 242.131906 282.341773 
L 243.217708 281.24673 
L 244.303509 275.741183 
L 245.38931 284.535424 
L 246.475111 283.699664 
L 247.560912 278.117361 
L 248.646713 250.372305 
L 249.732514 240.917497 
L 250.818316 224.333701 
L 251.904117 244.918619 
L 252.989918 227.41565 
L 254.075719 230.755171 
L 255.16152 219.117514 
L 256.247321 244.581943 
L 257.333123 253.555766 
L 258.418924 223.392217 
L 259.504725 236.496721 
L 260.590526 266.912334 
L 261.676327 263.124583 
L 262.762128 266.569622 
L 263.847929 252.590651 
L 264.933731 267.815768 
L 266.019532 256.530559 
L 267.105333 252.536618 
L 268.191134 258.473734 
L 269.276935 268.111155 
L 270.362736 262.972961 
L 271.448538 270.517072 
L 272.534339 260.972744 
L 273.62014 261.481182 
L 274.705941 256.597917 
L 275.791742 263.203318 
L 276.877543 273.34752 
L 277.963344 279.105406 
L 279.049146 277.976041 
L 280.134947 259.130426 
L 281.220748 268.828327 
L 282.306549 266.238279 
L 283.39235 260.819236 
L 284.478151 239.023476 
L 285.563953 245.950954 
L 286.649754 243.656068 
L 287.735555 238.863705 
L 288.821356 245.783312 
L 289.907157 244.919421 
L 290.992958 241.595625 
L 292.07876 240.405454 
L 293.164561 242.691617 
L 294.250362 242.661504 
L 295.336163 244.135895 
L 296.421964 252.637763 
L 297.507765 239.039924 
L 298.593566 226.985524 
L 299.679368 236.957983 
L 300.765169 236.285289 
L 301.85097 246.477039 
L 302.936771 242.761703 
L 304.022572 243.871215 
L 305.108373 242.766191 
L 306.194175 240.02977 
L 307.279976 232.97349 
L 308.365777 232.050913 
L 309.451578 236.195372 
L 310.537379 247.357157 
L 311.62318 250.902089 
L 312.708981 243.606917 
L 313.794783 242.570458 
L 314.880584 230.893811 
L 315.966385 238.845148 
L 317.052186 238.111885 
L 318.137987 247.217346 
L 319.223788 236.161745 
L 320.30959 241.7067 
L 321.395391 254.413006 
L 322.481192 253.662869 
L 323.566993 235.229749 
L 324.652794 241.056176 
L 325.738595 237.714808 
L 326.824396 240.659828 
L 327.910198 214.869942 
L 328.995999 221.937767 
L 330.0818 226.325587 
L 331.167601 225.884309 
L 332.253402 216.826168 
L 333.339203 227.291355 
L 334.425005 225.893494 
L 335.510806 217.527841 
L 336.596607 219.604777 
L 337.682408 191.034366 
L 338.768209 207.438751 
L 339.85401 201.497245 
L 340.939811 206.956784 
L 342.025613 215.636993 
L 343.111414 211.785169 
L 344.197215 202.178048 
L 345.283016 185.02178 
L 346.368817 199.277701 
L 347.454618 207.919913 
L 348.54042 202.488769 
L 349.626221 197.600575 
L 350.712022 220.847604 
L 351.797823 218.109794 
L 352.883624 223.48531 
L 353.969425 229.963527 
L 355.055227 212.683168 
L 356.141028 189.606005 
L 357.226829 241.49131 
L 358.31263 229.383977 
L 359.398431 230.416832 
L 360.484232 246.114668 
L 361.570033 232.772836 
L 362.655835 248.234588 
L 363.741636 245.895616 
L 364.827437 237.506127 
L 365.913238 232.792761 
L 366.999039 229.286261 
L 368.08484 239.357832 
L 369.170642 212.288147 
L 370.256443 229.001872 
L 371.342244 227.035579 
L 372.428045 232.915446 
L 373.513846 237.538776 
L 374.599647 225.030081 
L 375.685448 223.728135 
L 376.77125 182.548612 
L 377.857051 153.941737 
L 378.942852 177.398644 
L 380.028653 123.193686 
L 381.114454 187.162614 
L 382.200255 185.473433 
L 383.286057 222.72628 
L 384.371858 237.105058 
L 385.457659 228.171915 
L 386.54346 218.062689 
L 387.629261 213.597215 
L 388.715062 231.316897 
L 389.800863 224.692934 
L 390.886665 209.417773 
L 391.972466 234.393466 
L 393.058267 226.081744 
L 394.144068 234.999386 
L 395.229869 237.223111 
L 396.31567 242.489459 
L 397.401472 230.381226 
L 398.487273 224.987198 
L 398.487273 178.592591 
L 398.487273 178.592591 
L 397.401472 181.922628 
L 396.31567 188.257813 
L 395.229869 185.220944 
L 394.144068 178.360378 
L 393.058267 154.22742 
L 391.972466 150.925957 
L 390.886665 164.37961 
L 389.800863 172.036176 
L 388.715062 168.761521 
L 387.629261 145.314932 
L 386.54346 161.213797 
L 385.457659 164.397393 
L 384.371858 164.865607 
L 383.286057 152.304754 
L 382.200255 76.356121 
L 381.114454 131.401228 
L 380.028653 53.568 
L 378.942852 122.318172 
L 377.857051 99.312621 
L 376.77125 132.515024 
L 375.685448 169.746172 
L 374.599647 164.100046 
L 373.513846 142.794138 
L 372.428045 157.063997 
L 371.342244 151.204441 
L 370.256443 144.35301 
L 369.170642 137.661819 
L 368.08484 145.271457 
L 366.999039 160.971612 
L 365.913238 156.612332 
L 364.827437 158.372153 
L 363.741636 170.481089 
L 362.655835 156.010613 
L 361.570033 171.597793 
L 360.484232 170.862322 
L 359.398431 150.514476 
L 358.31263 143.957788 
L 357.226829 164.296661 
L 356.141028 116.848555 
L 355.055227 134.129428 
L 353.969425 177.63341 
L 352.883624 165.179187 
L 351.797823 153.424581 
L 350.712022 183.459802 
L 349.626221 147.720615 
L 348.54042 149.076888 
L 347.454618 142.019328 
L 346.368817 130.188782 
L 345.283016 122.457681 
L 344.197215 142.359762 
L 343.111414 156.442543 
L 342.025613 167.585162 
L 340.939811 160.315847 
L 339.85401 154.382323 
L 338.768209 145.975565 
L 337.682408 136.046852 
L 336.596607 158.492934 
L 335.510806 155.788827 
L 334.425005 180.856406 
L 333.339203 173.396834 
L 332.253402 159.971865 
L 331.167601 161.480801 
L 330.0818 166.313482 
L 328.995999 156.477606 
L 327.910198 168.929793 
L 326.824396 179.379258 
L 325.738595 177.86139 
L 324.652794 175.782746 
L 323.566993 175.489974 
L 322.481192 188.399313 
L 321.395391 171.991764 
L 320.30959 156.770742 
L 319.223788 164.579476 
L 318.137987 167.27686 
L 317.052186 178.389356 
L 315.966385 169.358319 
L 314.880584 161.378598 
L 313.794783 168.491817 
L 312.708981 167.602466 
L 311.62318 178.480341 
L 310.537379 182.034801 
L 309.451578 154.180211 
L 308.365777 167.403377 
L 307.279976 181.359458 
L 306.194175 180.464726 
L 305.108373 178.839659 
L 304.022572 165.410779 
L 302.936771 182.544018 
L 301.85097 179.910432 
L 300.765169 177.198523 
L 299.679368 181.608286 
L 298.593566 161.790335 
L 297.507765 164.384453 
L 296.421964 158.748713 
L 295.336163 178.650253 
L 294.250362 148.011975 
L 293.164561 139.442642 
L 292.07876 192.175805 
L 290.992958 170.401201 
L 289.907157 145.304612 
L 288.821356 161.651478 
L 287.735555 151.783359 
L 286.649754 189.326308 
L 285.563953 209.282636 
L 284.478151 150.847059 
L 283.39235 217.970228 
L 282.306549 215.008773 
L 281.220748 199.663245 
L 280.134947 201.647608 
L 279.049146 174.816126 
L 277.963344 203.233153 
L 276.877543 191.430064 
L 275.791742 149.165493 
L 274.705941 206.151563 
L 273.62014 175.430623 
L 272.534339 210.08482 
L 271.448538 191.36297 
L 270.362736 209.595652 
L 269.276935 171.190918 
L 268.191134 179.121569 
L 267.105333 177.244857 
L 266.019532 181.956589 
L 264.933731 185.207829 
L 263.847929 197.282417 
L 262.762128 200.753085 
L 261.676327 173.018349 
L 260.590526 175.885113 
L 259.504725 182.01083 
L 258.418924 168.200268 
L 257.333123 173.437211 
L 256.247321 181.856016 
L 255.16152 160.126157 
L 254.075719 157.064269 
L 252.989918 188.231512 
L 251.904117 167.581914 
L 250.818316 174.418104 
L 249.732514 179.662705 
L 248.646713 162.22795 
L 247.560912 176.772584 
L 246.475111 183.362569 
L 245.38931 182.46884 
L 244.303509 177.961142 
L 243.217708 195.573258 
L 242.131906 180.864481 
L 241.046105 175.395815 
L 239.960304 175.830178 
L 238.874503 178.650602 
L 237.788702 183.838031 
L 236.702901 166.742727 
L 235.617099 168.002793 
L 234.531298 178.014696 
L 233.445497 184.18338 
L 232.359696 197.815375 
L 231.273895 204.118513 
L 230.188094 213.345469 
L 229.102292 207.919388 
L 228.016491 195.014945 
L 226.93069 196.889986 
L 225.844889 183.050598 
L 224.759088 203.964875 
L 223.673287 212.255831 
L 222.587486 211.860133 
L 221.501684 224.447986 
L 220.415883 217.806844 
L 219.330082 217.517031 
L 218.244281 231.689128 
L 217.15848 234.17941 
L 216.072679 230.653041 
L 214.986877 236.199419 
L 213.901076 240.045939 
L 212.815275 237.871328 
L 211.729474 242.627882 
L 210.643673 247.763007 
L 209.557872 248.70803 
L 208.472071 231.741378 
L 207.386269 209.337918 
L 206.300468 205.845296 
L 205.214667 192.099672 
L 204.128866 210.778817 
L 203.043065 212.346949 
L 201.957264 182.957409 
L 200.871462 206.530008 
L 199.785661 225.12915 
L 198.69986 223.159063 
L 197.614059 218.5536 
L 196.528258 234.864261 
L 195.442457 213.681518 
L 194.356656 231.50702 
L 193.270854 235.985947 
L 192.185053 237.057524 
L 191.099252 233.709592 
L 190.013451 235.1985 
L 188.92765 238.132723 
L 187.841849 207.36593 
L 186.756047 215.467823 
L 185.670246 217.904615 
L 184.584445 231.889134 
L 183.498644 238.652168 
L 182.412843 232.408086 
L 181.327042 242.619872 
L 180.24124 239.924315 
L 179.155439 245.898304 
L 178.069638 236.178046 
L 176.983837 227.383008 
L 175.898036 231.706719 
L 174.812235 242.683857 
L 173.726434 238.560465 
L 172.640632 225.45203 
L 171.554831 223.069744 
L 170.46903 219.470608 
L 169.383229 224.603418 
L 168.297428 220.55896 
L 167.211627 232.897802 
L 166.125825 240.679515 
L 165.040024 250.311032 
L 163.954223 254.386099 
L 162.868422 259.175281 
L 161.782621 260.274014 
L 160.69682 259.135881 
L 159.611019 249.634303 
L 158.525217 236.54915 
L 157.439416 221.4571 
L 156.353615 226.778245 
L 155.267814 207.247128 
L 154.182013 232.392329 
L 153.096212 241.850465 
L 152.01041 244.780195 
L 150.924609 251.78967 
L 149.838808 239.543125 
L 148.753007 239.369279 
L 147.667206 237.102755 
L 146.581405 226.920278 
L 145.495604 231.339733 
L 144.409802 203.660493 
L 143.324001 212.159187 
L 142.2382 213.271024 
L 141.152399 232.027757 
L 140.066598 242.424949 
L 138.980797 243.383598 
L 137.894995 256.664336 
L 136.809194 252.357855 
L 135.723393 261.950466 
L 134.637592 260.909861 
L 133.551791 262.176586 
L 132.46599 266.610853 
L 131.380189 261.603286 
L 130.294387 252.790943 
L 129.208586 265.281816 
L 128.122785 264.940821 
L 127.036984 267.405831 
L 125.951183 252.43717 
L 124.865382 271.491505 
L 123.77958 275.369101 
L 122.693779 279.118695 
L 121.607978 288.383425 
L 120.522177 283.876334 
L 119.436376 279.307576 
L 118.350575 287.099953 
L 117.264773 278.607308 
L 116.178972 286.3039 
L 115.093171 276.522869 
L 114.00737 279.118829 
L 112.921569 283.804265 
L 111.835768 274.462516 
L 110.749967 284.160854 
L 109.664165 291.351556 
L 108.578364 287.996824 
L 107.492563 280.673323 
L 106.406762 284.578467 
L 105.320961 277.990917 
L 104.23516 265.204078 
L 103.149358 275.169679 
L 102.063557 283.287802 
L 100.977756 268.01519 
L 99.891955 275.850239 
L 98.806154 269.412634 
L 97.720353 257.556053 
L 96.634552 268.315995 
L 95.54875 272.950971 
L 94.462949 275.612337 
L 93.377148 271.47945 
L 92.291347 265.471098 
L 91.205546 274.044443 
L 90.119745 273.112222 
L 89.033943 275.106425 
L 87.948142 276.521905 
L 86.862341 271.794502 
L 85.77654 276.217256 
L 84.690739 277.928378 
L 83.604938 264.327684 
L 82.519137 269.581855 
L 81.433335 276.127711 
L 80.347534 278.335743 
L 79.261733 275.689954 
L 78.175932 272.868006 
L 77.090131 274.127757 
L 76.00433 273.904872 
L 74.918528 273.902107 
L 73.832727 271.196513 
z
" style="fill:#0000ff;fill-opacity:0.25;"/>
   </g>
   <g id="matplotlib.axis_1">
    <g id="xtick_1">
     <g id="line2d_1">
      <defs>
       <path d="M 0 0 
L 0 3.5 
" id="mcf1259cee0" style="stroke:#000000;stroke-width:0.8;"/>
      </defs>
      <g>
       <use style="stroke:#000000;stroke-width:0.8;" x="73.832727" xlink:href="#mcf1259cee0" y="307.584"/>
      </g>
     </g>
     <g id="text_1">
      <!-- 0 -->
      <defs>
       <path d="M 31.78125 66.40625 
Q 24.171875 66.40625 20.328125 58.90625 
Q 16.5 51.421875 16.5 36.375 
Q 16.5 21.390625 20.328125 13.890625 
Q 24.171875 6.390625 31.78125 6.390625 
Q 39.453125 6.390625 43.28125 13.890625 
Q 47.125 21.390625 47.125 36.375 
Q 47.125 51.421875 43.28125 58.90625 
Q 39.453125 66.40625 31.78125 66.40625 
z
M 31.78125 74.21875 
Q 44.046875 74.21875 50.515625 64.515625 
Q 56.984375 54.828125 56.984375 36.375 
Q 56.984375 17.96875 50.515625 8.265625 
Q 44.046875 -1.421875 31.78125 -1.421875 
Q 19.53125 -1.421875 13.0625 8.265625 
Q 6.59375 17.96875 6.59375 36.375 
Q 6.59375 54.828125 13.0625 64.515625 
Q 19.53125 74.21875 31.78125 74.21875 
z
" id="DejaVuSans-48"/>
      </defs>
      <g transform="translate(70.651477 322.182437)scale(0.1 -0.1)">
       <use xlink:href="#DejaVuSans-48"/>
      </g>
     </g>
    </g>
    <g id="xtick_2">
     <g id="line2d_2">
      <g>
       <use style="stroke:#000000;stroke-width:0.8;" x="128.122785" xlink:href="#mcf1259cee0" y="307.584"/>
      </g>
     </g>
     <g id="text_2">
      <!-- 50 -->
      <defs>
       <path d="M 10.796875 72.90625 
L 49.515625 72.90625 
L 49.515625 64.59375 
L 19.828125 64.59375 
L 19.828125 46.734375 
Q 21.96875 47.46875 24.109375 47.828125 
Q 26.265625 48.1875 28.421875 48.1875 
Q 40.625 48.1875 47.75 41.5 
Q 54.890625 34.8125 54.890625 23.390625 
Q 54.890625 11.625 47.5625 5.09375 
Q 40.234375 -1.421875 26.90625 -1.421875 
Q 22.3125 -1.421875 17.546875 -0.640625 
Q 12.796875 0.140625 7.71875 1.703125 
L 7.71875 11.625 
Q 12.109375 9.234375 16.796875 8.0625 
Q 21.484375 6.890625 26.703125 6.890625 
Q 35.15625 6.890625 40.078125 11.328125 
Q 45.015625 15.765625 45.015625 23.390625 
Q 45.015625 31 40.078125 35.4375 
Q 35.15625 39.890625 26.703125 39.890625 
Q 22.75 39.890625 18.8125 39.015625 
Q 14.890625 38.140625 10.796875 36.28125 
z
" id="DejaVuSans-53"/>
      </defs>
      <g transform="translate(121.760285 322.182437)scale(0.1 -0.1)">
       <use xlink:href="#DejaVuSans-53"/>
       <use x="63.623047" xlink:href="#DejaVuSans-48"/>
      </g>
     </g>
    </g>
    <g id="xtick_3">
     <g id="line2d_3">
      <g>
       <use style="stroke:#000000;stroke-width:0.8;" x="182.412843" xlink:href="#mcf1259cee0" y="307.584"/>
      </g>
     </g>
     <g id="text_3">
      <!-- 100 -->
      <defs>
       <path d="M 12.40625 8.296875 
L 28.515625 8.296875 
L 28.515625 63.921875 
L 10.984375 60.40625 
L 10.984375 69.390625 
L 28.421875 72.90625 
L 38.28125 72.90625 
L 38.28125 8.296875 
L 54.390625 8.296875 
L 54.390625 0 
L 12.40625 0 
z
" id="DejaVuSans-49"/>
      </defs>
      <g transform="translate(172.869093 322.182437)scale(0.1 -0.1)">
       <use xlink:href="#DejaVuSans-49"/>
       <use x="63.623047" xlink:href="#DejaVuSans-48"/>
       <use x="127.246094" xlink:href="#DejaVuSans-48"/>
      </g>
     </g>
    </g>
    <g id="xtick_4">
     <g id="line2d_4">
      <g>
       <use style="stroke:#000000;stroke-width:0.8;" x="236.702901" xlink:href="#mcf1259cee0" y="307.584"/>
      </g>
     </g>
     <g id="text_4">
      <!-- 150 -->
      <g transform="translate(227.159151 322.182437)scale(0.1 -0.1)">
       <use xlink:href="#DejaVuSans-49"/>
       <use x="63.623047" xlink:href="#DejaVuSans-53"/>
       <use x="127.246094" xlink:href="#DejaVuSans-48"/>
      </g>
     </g>
    </g>
    <g id="xtick_5">
     <g id="line2d_5">
      <g>
       <use style="stroke:#000000;stroke-width:0.8;" x="290.992958" xlink:href="#mcf1259cee0" y="307.584"/>
      </g>
     </g>
     <g id="text_5">
      <!-- 200 -->
      <defs>
       <path d="M 19.1875 8.296875 
L 53.609375 8.296875 
L 53.609375 0 
L 7.328125 0 
L 7.328125 8.296875 
Q 12.9375 14.109375 22.625 23.890625 
Q 32.328125 33.6875 34.8125 36.53125 
Q 39.546875 41.84375 41.421875 45.53125 
Q 43.3125 49.21875 43.3125 52.78125 
Q 43.3125 58.59375 39.234375 62.25 
Q 35.15625 65.921875 28.609375 65.921875 
Q 23.96875 65.921875 18.8125 64.3125 
Q 13.671875 62.703125 7.8125 59.421875 
L 7.8125 69.390625 
Q 13.765625 71.78125 18.9375 73 
Q 24.125 74.21875 28.421875 74.21875 
Q 39.75 74.21875 46.484375 68.546875 
Q 53.21875 62.890625 53.21875 53.421875 
Q 53.21875 48.921875 51.53125 44.890625 
Q 49.859375 40.875 45.40625 35.40625 
Q 44.1875 33.984375 37.640625 27.21875 
Q 31.109375 20.453125 19.1875 8.296875 
z
" id="DejaVuSans-50"/>
      </defs>
      <g transform="translate(281.449208 322.182437)scale(0.1 -0.1)">
       <use xlink:href="#DejaVuSans-50"/>
       <use x="63.623047" xlink:href="#DejaVuSans-48"/>
       <use x="127.246094" xlink:href="#DejaVuSans-48"/>
      </g>
     </g>
    </g>
    <g id="xtick_6">
     <g id="line2d_6">
      <g>
       <use style="stroke:#000000;stroke-width:0.8;" x="345.283016" xlink:href="#mcf1259cee0" y="307.584"/>
      </g>
     </g>
     <g id="text_6">
      <!-- 250 -->
      <g transform="translate(335.739266 322.182437)scale(0.1 -0.1)">
       <use xlink:href="#DejaVuSans-50"/>
       <use x="63.623047" xlink:href="#DejaVuSans-53"/>
       <use x="127.246094" xlink:href="#DejaVuSans-48"/>
      </g>
     </g>
    </g>
    <g id="xtick_7">
     <g id="line2d_7">
      <g>
       <use style="stroke:#000000;stroke-width:0.8;" x="399.573074" xlink:href="#mcf1259cee0" y="307.584"/>
      </g>
     </g>
     <g id="text_7">
      <!-- 300 -->
      <defs>
       <path d="M 40.578125 39.3125 
Q 47.65625 37.796875 51.625 33 
Q 55.609375 28.21875 55.609375 21.1875 
Q 55.609375 10.40625 48.1875 4.484375 
Q 40.765625 -1.421875 27.09375 -1.421875 
Q 22.515625 -1.421875 17.65625 -0.515625 
Q 12.796875 0.390625 7.625 2.203125 
L 7.625 11.71875 
Q 11.71875 9.328125 16.59375 8.109375 
Q 21.484375 6.890625 26.8125 6.890625 
Q 36.078125 6.890625 40.9375 10.546875 
Q 45.796875 14.203125 45.796875 21.1875 
Q 45.796875 27.640625 41.28125 31.265625 
Q 36.765625 34.90625 28.71875 34.90625 
L 20.21875 34.90625 
L 20.21875 43.015625 
L 29.109375 43.015625 
Q 36.375 43.015625 40.234375 45.921875 
Q 44.09375 48.828125 44.09375 54.296875 
Q 44.09375 59.90625 40.109375 62.90625 
Q 36.140625 65.921875 28.71875 65.921875 
Q 24.65625 65.921875 20.015625 65.03125 
Q 15.375 64.15625 9.8125 62.3125 
L 9.8125 71.09375 
Q 15.4375 72.65625 20.34375 73.4375 
Q 25.25 74.21875 29.59375 74.21875 
Q 40.828125 74.21875 47.359375 69.109375 
Q 53.90625 64.015625 53.90625 55.328125 
Q 53.90625 49.265625 50.4375 45.09375 
Q 46.96875 40.921875 40.578125 39.3125 
z
" id="DejaVuSans-51"/>
      </defs>
      <g transform="translate(390.029324 322.182437)scale(0.1 -0.1)">
       <use xlink:href="#DejaVuSans-51"/>
       <use x="63.623047" xlink:href="#DejaVuSans-48"/>
       <use x="127.246094" xlink:href="#DejaVuSans-48"/>
      </g>
     </g>
    </g>
   </g>
   <g id="matplotlib.axis_2">
    <g id="ytick_1">
     <g id="line2d_8">
      <defs>
       <path d="M 0 0 
L -3.5 0 
" id="m16b139d9b4" style="stroke:#000000;stroke-width:0.8;"/>
      </defs>
      <g>
       <use style="stroke:#000000;stroke-width:0.8;" x="57.6" xlink:href="#m16b139d9b4" y="266.026996"/>
      </g>
     </g>
     <g id="text_8">
      <!-- 2 -->
      <g transform="translate(44.2375 269.826215)scale(0.1 -0.1)">
       <use xlink:href="#DejaVuSans-50"/>
      </g>
     </g>
    </g>
    <g id="ytick_2">
     <g id="line2d_9">
      <g>
       <use style="stroke:#000000;stroke-width:0.8;" x="57.6" xlink:href="#m16b139d9b4" y="213.452572"/>
      </g>
     </g>
     <g id="text_9">
      <!-- 4 -->
      <defs>
       <path d="M 37.796875 64.3125 
L 12.890625 25.390625 
L 37.796875 25.390625 
z
M 35.203125 72.90625 
L 47.609375 72.90625 
L 47.609375 25.390625 
L 58.015625 25.390625 
L 58.015625 17.1875 
L 47.609375 17.1875 
L 47.609375 0 
L 37.796875 0 
L 37.796875 17.1875 
L 4.890625 17.1875 
L 4.890625 26.703125 
z
" id="DejaVuSans-52"/>
      </defs>
      <g transform="translate(44.2375 217.251791)scale(0.1 -0.1)">
       <use xlink:href="#DejaVuSans-52"/>
      </g>
     </g>
    </g>
    <g id="ytick_3">
     <g id="line2d_10">
      <g>
       <use style="stroke:#000000;stroke-width:0.8;" x="57.6" xlink:href="#m16b139d9b4" y="160.878149"/>
      </g>
     </g>
     <g id="text_10">
      <!-- 6 -->
      <defs>
       <path d="M 33.015625 40.375 
Q 26.375 40.375 22.484375 35.828125 
Q 18.609375 31.296875 18.609375 23.390625 
Q 18.609375 15.53125 22.484375 10.953125 
Q 26.375 6.390625 33.015625 6.390625 
Q 39.65625 6.390625 43.53125 10.953125 
Q 47.40625 15.53125 47.40625 23.390625 
Q 47.40625 31.296875 43.53125 35.828125 
Q 39.65625 40.375 33.015625 40.375 
z
M 52.59375 71.296875 
L 52.59375 62.3125 
Q 48.875 64.0625 45.09375 64.984375 
Q 41.3125 65.921875 37.59375 65.921875 
Q 27.828125 65.921875 22.671875 59.328125 
Q 17.53125 52.734375 16.796875 39.40625 
Q 19.671875 43.65625 24.015625 45.921875 
Q 28.375 48.1875 33.59375 48.1875 
Q 44.578125 48.1875 50.953125 41.515625 
Q 57.328125 34.859375 57.328125 23.390625 
Q 57.328125 12.15625 50.6875 5.359375 
Q 44.046875 -1.421875 33.015625 -1.421875 
Q 20.359375 -1.421875 13.671875 8.265625 
Q 6.984375 17.96875 6.984375 36.375 
Q 6.984375 53.65625 15.1875 63.9375 
Q 23.390625 74.21875 37.203125 74.21875 
Q 40.921875 74.21875 44.703125 73.484375 
Q 48.484375 72.75 52.59375 71.296875 
z
" id="DejaVuSans-54"/>
      </defs>
      <g transform="translate(44.2375 164.677367)scale(0.1 -0.1)">
       <use xlink:href="#DejaVuSans-54"/>
      </g>
     </g>
    </g>
    <g id="ytick_4">
     <g id="line2d_11">
      <g>
       <use style="stroke:#000000;stroke-width:0.8;" x="57.6" xlink:href="#m16b139d9b4" y="108.303725"/>
      </g>
     </g>
     <g id="text_11">
      <!-- 8 -->
      <defs>
       <path d="M 31.78125 34.625 
Q 24.75 34.625 20.71875 30.859375 
Q 16.703125 27.09375 16.703125 20.515625 
Q 16.703125 13.921875 20.71875 10.15625 
Q 24.75 6.390625 31.78125 6.390625 
Q 38.8125 6.390625 42.859375 10.171875 
Q 46.921875 13.96875 46.921875 20.515625 
Q 46.921875 27.09375 42.890625 30.859375 
Q 38.875 34.625 31.78125 34.625 
z
M 21.921875 38.8125 
Q 15.578125 40.375 12.03125 44.71875 
Q 8.5 49.078125 8.5 55.328125 
Q 8.5 64.0625 14.71875 69.140625 
Q 20.953125 74.21875 31.78125 74.21875 
Q 42.671875 74.21875 48.875 69.140625 
Q 55.078125 64.0625 55.078125 55.328125 
Q 55.078125 49.078125 51.53125 44.71875 
Q 48 40.375 41.703125 38.8125 
Q 48.828125 37.15625 52.796875 32.3125 
Q 56.78125 27.484375 56.78125 20.515625 
Q 56.78125 9.90625 50.3125 4.234375 
Q 43.84375 -1.421875 31.78125 -1.421875 
Q 19.734375 -1.421875 13.25 4.234375 
Q 6.78125 9.90625 6.78125 20.515625 
Q 6.78125 27.484375 10.78125 32.3125 
Q 14.796875 37.15625 21.921875 38.8125 
z
M 18.3125 54.390625 
Q 18.3125 48.734375 21.84375 45.5625 
Q 25.390625 42.390625 31.78125 42.390625 
Q 38.140625 42.390625 41.71875 45.5625 
Q 45.3125 48.734375 45.3125 54.390625 
Q 45.3125 60.0625 41.71875 63.234375 
Q 38.140625 66.40625 31.78125 66.40625 
Q 25.390625 66.40625 21.84375 63.234375 
Q 18.3125 60.0625 18.3125 54.390625 
z
" id="DejaVuSans-56"/>
      </defs>
      <g transform="translate(44.2375 112.102944)scale(0.1 -0.1)">
       <use xlink:href="#DejaVuSans-56"/>
      </g>
     </g>
    </g>
    <g id="ytick_5">
     <g id="line2d_12">
      <g>
       <use style="stroke:#000000;stroke-width:0.8;" x="57.6" xlink:href="#m16b139d9b4" y="55.729301"/>
      </g>
     </g>
     <g id="text_12">
      <!-- 10 -->
      <g transform="translate(37.875 59.52852)scale(0.1 -0.1)">
       <use xlink:href="#DejaVuSans-49"/>
       <use x="63.623047" xlink:href="#DejaVuSans-48"/>
      </g>
     </g>
    </g>
    <g id="text_13">
     <!-- Distance -->
     <defs>
      <path d="M 19.671875 64.796875 
L 19.671875 8.109375 
L 31.59375 8.109375 
Q 46.6875 8.109375 53.6875 14.9375 
Q 60.6875 21.78125 60.6875 36.53125 
Q 60.6875 51.171875 53.6875 57.984375 
Q 46.6875 64.796875 31.59375 64.796875 
z
M 9.8125 72.90625 
L 30.078125 72.90625 
Q 51.265625 72.90625 61.171875 64.09375 
Q 71.09375 55.28125 71.09375 36.53125 
Q 71.09375 17.671875 61.125 8.828125 
Q 51.171875 0 30.078125 0 
L 9.8125 0 
z
" id="DejaVuSans-68"/>
      <path d="M 9.421875 54.6875 
L 18.40625 54.6875 
L 18.40625 0 
L 9.421875 0 
z
M 9.421875 75.984375 
L 18.40625 75.984375 
L 18.40625 64.59375 
L 9.421875 64.59375 
z
" id="DejaVuSans-105"/>
      <path d="M 44.28125 53.078125 
L 44.28125 44.578125 
Q 40.484375 46.53125 36.375 47.5 
Q 32.28125 48.484375 27.875 48.484375 
Q 21.1875 48.484375 17.84375 46.4375 
Q 14.5 44.390625 14.5 40.28125 
Q 14.5 37.15625 16.890625 35.375 
Q 19.28125 33.59375 26.515625 31.984375 
L 29.59375 31.296875 
Q 39.15625 29.25 43.1875 25.515625 
Q 47.21875 21.78125 47.21875 15.09375 
Q 47.21875 7.46875 41.1875 3.015625 
Q 35.15625 -1.421875 24.609375 -1.421875 
Q 20.21875 -1.421875 15.453125 -0.5625 
Q 10.6875 0.296875 5.421875 2 
L 5.421875 11.28125 
Q 10.40625 8.6875 15.234375 7.390625 
Q 20.0625 6.109375 24.8125 6.109375 
Q 31.15625 6.109375 34.5625 8.28125 
Q 37.984375 10.453125 37.984375 14.40625 
Q 37.984375 18.0625 35.515625 20.015625 
Q 33.0625 21.96875 24.703125 23.78125 
L 21.578125 24.515625 
Q 13.234375 26.265625 9.515625 29.90625 
Q 5.8125 33.546875 5.8125 39.890625 
Q 5.8125 47.609375 11.28125 51.796875 
Q 16.75 56 26.8125 56 
Q 31.78125 56 36.171875 55.265625 
Q 40.578125 54.546875 44.28125 53.078125 
z
" id="DejaVuSans-115"/>
      <path d="M 18.3125 70.21875 
L 18.3125 54.6875 
L 36.8125 54.6875 
L 36.8125 47.703125 
L 18.3125 47.703125 
L 18.3125 18.015625 
Q 18.3125 11.328125 20.140625 9.421875 
Q 21.96875 7.515625 27.59375 7.515625 
L 36.8125 7.515625 
L 36.8125 0 
L 27.59375 0 
Q 17.1875 0 13.234375 3.875 
Q 9.28125 7.765625 9.28125 18.015625 
L 9.28125 47.703125 
L 2.6875 47.703125 
L 2.6875 54.6875 
L 9.28125 54.6875 
L 9.28125 70.21875 
z
" id="DejaVuSans-116"/>
      <path d="M 34.28125 27.484375 
Q 23.390625 27.484375 19.1875 25 
Q 14.984375 22.515625 14.984375 16.5 
Q 14.984375 11.71875 18.140625 8.90625 
Q 21.296875 6.109375 26.703125 6.109375 
Q 34.1875 6.109375 38.703125 11.40625 
Q 43.21875 16.703125 43.21875 25.484375 
L 43.21875 27.484375 
z
M 52.203125 31.203125 
L 52.203125 0 
L 43.21875 0 
L 43.21875 8.296875 
Q 40.140625 3.328125 35.546875 0.953125 
Q 30.953125 -1.421875 24.3125 -1.421875 
Q 15.921875 -1.421875 10.953125 3.296875 
Q 6 8.015625 6 15.921875 
Q 6 25.140625 12.171875 29.828125 
Q 18.359375 34.515625 30.609375 34.515625 
L 43.21875 34.515625 
L 43.21875 35.40625 
Q 43.21875 41.609375 39.140625 45 
Q 35.0625 48.390625 27.6875 48.390625 
Q 23 48.390625 18.546875 47.265625 
Q 14.109375 46.140625 10.015625 43.890625 
L 10.015625 52.203125 
Q 14.9375 54.109375 19.578125 55.046875 
Q 24.21875 56 28.609375 56 
Q 40.484375 56 46.34375 49.84375 
Q 52.203125 43.703125 52.203125 31.203125 
z
" id="DejaVuSans-97"/>
      <path d="M 54.890625 33.015625 
L 54.890625 0 
L 45.90625 0 
L 45.90625 32.71875 
Q 45.90625 40.484375 42.875 44.328125 
Q 39.84375 48.1875 33.796875 48.1875 
Q 26.515625 48.1875 22.3125 43.546875 
Q 18.109375 38.921875 18.109375 30.90625 
L 18.109375 0 
L 9.078125 0 
L 9.078125 54.6875 
L 18.109375 54.6875 
L 18.109375 46.1875 
Q 21.34375 51.125 25.703125 53.5625 
Q 30.078125 56 35.796875 56 
Q 45.21875 56 50.046875 50.171875 
Q 54.890625 44.34375 54.890625 33.015625 
z
" id="DejaVuSans-110"/>
      <path d="M 48.78125 52.59375 
L 48.78125 44.1875 
Q 44.96875 46.296875 41.140625 47.34375 
Q 37.3125 48.390625 33.40625 48.390625 
Q 24.65625 48.390625 19.8125 42.84375 
Q 14.984375 37.3125 14.984375 27.296875 
Q 14.984375 17.28125 19.8125 11.734375 
Q 24.65625 6.203125 33.40625 6.203125 
Q 37.3125 6.203125 41.140625 7.25 
Q 44.96875 8.296875 48.78125 10.40625 
L 48.78125 2.09375 
Q 45.015625 0.34375 40.984375 -0.53125 
Q 36.96875 -1.421875 32.421875 -1.421875 
Q 20.0625 -1.421875 12.78125 6.34375 
Q 5.515625 14.109375 5.515625 27.296875 
Q 5.515625 40.671875 12.859375 48.328125 
Q 20.21875 56 33.015625 56 
Q 37.15625 56 41.109375 55.140625 
Q 45.0625 54.296875 48.78125 52.59375 
z
" id="DejaVuSans-99"/>
      <path d="M 56.203125 29.59375 
L 56.203125 25.203125 
L 14.890625 25.203125 
Q 15.484375 15.921875 20.484375 11.0625 
Q 25.484375 6.203125 34.421875 6.203125 
Q 39.59375 6.203125 44.453125 7.46875 
Q 49.3125 8.734375 54.109375 11.28125 
L 54.109375 2.78125 
Q 49.265625 0.734375 44.1875 -0.34375 
Q 39.109375 -1.421875 33.890625 -1.421875 
Q 20.796875 -1.421875 13.15625 6.1875 
Q 5.515625 13.8125 5.515625 26.8125 
Q 5.515625 40.234375 12.765625 48.109375 
Q 20.015625 56 32.328125 56 
Q 43.359375 56 49.78125 48.890625 
Q 56.203125 41.796875 56.203125 29.59375 
z
M 47.21875 32.234375 
Q 47.125 39.59375 43.09375 43.984375 
Q 39.0625 48.390625 32.421875 48.390625 
Q 24.90625 48.390625 20.390625 44.140625 
Q 15.875 39.890625 15.1875 32.171875 
z
" id="DejaVuSans-101"/>
     </defs>
     <g transform="translate(31.795312 196.3905)rotate(-90)scale(0.1 -0.1)">
      <use xlink:href="#DejaVuSans-68"/>
      <use x="77.001953" xlink:href="#DejaVuSans-105"/>
      <use x="104.785156" xlink:href="#DejaVuSans-115"/>
      <use x="156.884766" xlink:href="#DejaVuSans-116"/>
      <use x="196.09375" xlink:href="#DejaVuSans-97"/>
      <use x="257.373047" xlink:href="#DejaVuSans-110"/>
      <use x="320.751953" xlink:href="#DejaVuSans-99"/>
      <use x="375.732422" xlink:href="#DejaVuSans-101"/>
     </g>
    </g>
   </g>
   <g id="line2d_13">
    <path clip-path="url(#p86d9101b2c)" d="M 73.832727 271.836499 
L 74.918528 275.899203 
L 76.00433 275.141444 
L 77.090131 274.907023 
L 78.175932 274.25608 
L 80.347534 280.453711 
L 81.433335 277.846813 
L 83.604938 267.600152 
L 84.690739 278.943104 
L 85.77654 277.079718 
L 86.862341 274.580381 
L 87.948142 278.044254 
L 90.119745 274.452223 
L 91.205546 275.73684 
L 92.291347 267.312175 
L 93.377148 273.354623 
L 94.462949 276.97314 
L 95.54875 275.249253 
L 96.634552 272.773894 
L 97.720353 264.360189 
L 98.806154 275.640983 
L 99.891955 279.893489 
L 100.977756 273.044987 
L 102.063557 284.879666 
L 103.149358 276.838731 
L 104.23516 270.665481 
L 105.320961 279.524218 
L 106.406762 287.042196 
L 107.492563 284.107642 
L 108.578364 290.206937 
L 109.664165 292.780533 
L 111.835768 278.342537 
L 112.921569 285.334463 
L 114.00737 283.151803 
L 115.093171 281.246975 
L 116.178972 288.560209 
L 117.264773 281.660504 
L 118.350575 288.856732 
L 119.436376 282.063033 
L 120.522177 287.707601 
L 121.607978 290.374443 
L 122.693779 282.926424 
L 123.77958 281.748844 
L 124.865382 278.425237 
L 125.951183 267.523588 
L 127.036984 275.647562 
L 128.122785 274.196804 
L 129.208586 274.35816 
L 130.294387 268.956377 
L 131.380189 272.113045 
L 132.46599 274.340045 
L 133.551791 273.388913 
L 134.637592 270.856242 
L 135.723393 271.580494 
L 136.809194 266.595855 
L 137.894995 267.0122 
L 138.980797 256.184593 
L 140.066598 256.174792 
L 141.152399 242.60893 
L 142.2382 231.166006 
L 143.324001 227.279922 
L 144.409802 218.957178 
L 145.495604 245.477208 
L 146.581405 242.951108 
L 147.667206 254.12969 
L 148.753007 257.038158 
L 149.838808 258.049171 
L 150.924609 265.74998 
L 152.01041 261.226444 
L 153.096212 260.894829 
L 154.182013 256.962809 
L 155.267814 244.992362 
L 156.353615 257.405544 
L 157.439416 250.490752 
L 159.611019 272.561151 
L 160.69682 275.362796 
L 161.782621 272.266696 
L 162.868422 272.254002 
L 163.954223 269.298481 
L 166.125825 251.40938 
L 167.211627 246.100905 
L 168.297428 237.562041 
L 169.383229 239.442809 
L 170.46903 236.908788 
L 171.554831 242.765176 
L 172.640632 245.901406 
L 173.726434 256.622309 
L 174.812235 250.93625 
L 175.898036 247.107521 
L 176.983837 246.151248 
L 178.069638 250.83288 
L 179.155439 252.904602 
L 180.24124 250.679998 
L 181.327042 251.963166 
L 182.412843 247.595424 
L 183.498644 257.992697 
L 185.670246 242.457411 
L 186.756047 241.775866 
L 187.841849 238.000535 
L 188.92765 252.515851 
L 190.013451 253.022587 
L 191.099252 252.178029 
L 192.185053 257.172265 
L 193.270854 252.097112 
L 194.356656 252.637142 
L 195.442457 246.091828 
L 196.528258 249.753267 
L 197.614059 242.049577 
L 198.69986 242.286762 
L 199.785661 244.899253 
L 200.871462 236.234731 
L 201.957264 208.38497 
L 203.043065 233.857626 
L 204.128866 239.597664 
L 205.214667 224.530157 
L 206.300468 223.200828 
L 207.386269 227.634373 
L 208.472071 258.395478 
L 209.557872 260.520026 
L 210.643673 261.361114 
L 211.729474 254.290866 
L 212.815275 248.949823 
L 213.901076 253.964502 
L 214.986877 250.478284 
L 216.072679 251.754238 
L 217.15848 249.946411 
L 218.244281 252.66917 
L 219.330082 236.838875 
L 220.415883 242.856262 
L 221.501684 252.392881 
L 222.587486 239.178044 
L 223.673287 238.983624 
L 224.759088 229.7742 
L 225.844889 216.88908 
L 226.93069 227.072882 
L 228.016491 226.680331 
L 229.102292 233.114706 
L 230.188094 238.73216 
L 231.273895 230.033477 
L 232.359696 226.066358 
L 233.445497 219.106932 
L 234.531298 218.327821 
L 235.617099 214.813268 
L 236.702901 217.966559 
L 237.788702 227.183062 
L 238.874503 223.697293 
L 239.960304 219.024032 
L 241.046105 227.951703 
L 242.131906 231.603127 
L 243.217708 238.409994 
L 244.303509 226.851162 
L 245.38931 233.502132 
L 246.475111 233.531117 
L 247.560912 227.444973 
L 248.646713 206.300128 
L 249.732514 210.290101 
L 250.818316 199.375903 
L 251.904117 206.250266 
L 252.989918 207.823581 
L 254.075719 193.90972 
L 255.16152 189.621835 
L 256.247321 213.21898 
L 257.333123 213.496488 
L 258.418924 195.796243 
L 260.590526 221.398723 
L 261.676327 218.071466 
L 262.762128 233.661353 
L 263.847929 224.936534 
L 264.933731 226.511799 
L 266.019532 219.243574 
L 267.105333 214.890737 
L 268.191134 218.797652 
L 269.276935 219.651037 
L 270.362736 236.284306 
L 271.448538 230.940021 
L 272.534339 235.528782 
L 273.62014 218.455903 
L 274.705941 231.37474 
L 275.791742 206.184406 
L 276.877543 232.388792 
L 277.963344 241.16928 
L 279.049146 226.396084 
L 281.220748 234.245786 
L 282.306549 240.623526 
L 283.39235 239.394732 
L 284.478151 194.935268 
L 285.563953 227.616795 
L 286.649754 216.491188 
L 287.735555 195.323532 
L 288.821356 203.717395 
L 289.907157 195.112016 
L 292.07876 216.29063 
L 293.164561 191.06713 
L 294.250362 195.33674 
L 295.336163 211.393074 
L 296.421964 205.693238 
L 297.507765 201.712188 
L 298.593566 194.387929 
L 299.679368 209.283134 
L 300.765169 206.741906 
L 301.85097 213.193736 
L 302.936771 212.65286 
L 304.022572 204.640997 
L 305.108373 210.802925 
L 306.194175 210.247248 
L 307.279976 207.166474 
L 308.365777 199.727145 
L 309.451578 195.187791 
L 310.537379 214.695979 
L 311.62318 214.691215 
L 312.708981 205.604692 
L 313.794783 205.531138 
L 314.880584 196.136205 
L 315.966385 204.101733 
L 317.052186 208.250621 
L 318.137987 207.247103 
L 319.223788 200.370611 
L 320.30959 199.238721 
L 321.395391 213.202385 
L 322.481192 221.031091 
L 323.566993 205.359861 
L 324.652794 208.419461 
L 325.738595 207.788099 
L 326.824396 210.019543 
L 327.910198 191.899867 
L 328.995999 189.207686 
L 330.0818 196.319534 
L 331.167601 193.682555 
L 332.253402 188.399017 
L 333.339203 200.344095 
L 334.425005 203.37495 
L 335.510806 186.658334 
L 336.596607 189.048855 
L 337.682408 163.540609 
L 338.768209 176.707158 
L 339.85401 177.939784 
L 340.939811 183.636315 
L 342.025613 191.611077 
L 343.111414 184.113856 
L 344.197215 172.268905 
L 345.283016 153.73973 
L 347.454618 174.969621 
L 348.54042 175.782828 
L 349.626221 172.660595 
L 350.712022 202.153703 
L 351.797823 185.767187 
L 352.883624 194.332248 
L 353.969425 203.798468 
L 355.055227 173.406298 
L 356.141028 153.22728 
L 357.226829 202.893985 
L 358.31263 186.670883 
L 359.398431 190.465654 
L 360.484232 208.488495 
L 361.570033 202.185314 
L 362.655835 202.1226 
L 363.741636 208.188352 
L 364.827437 197.93914 
L 365.913238 194.702546 
L 366.999039 195.128937 
L 368.08484 192.314645 
L 369.170642 174.974983 
L 370.256443 186.677441 
L 371.342244 189.12001 
L 372.428045 194.989722 
L 373.513846 190.166457 
L 374.599647 194.565063 
L 375.685448 196.737154 
L 376.77125 157.531818 
L 377.857051 126.627179 
L 378.942852 149.858408 
L 380.028653 88.380843 
L 381.114454 159.281921 
L 382.200255 130.914777 
L 383.286057 187.515517 
L 384.371858 200.985332 
L 385.457659 196.284654 
L 386.54346 189.638243 
L 387.629261 179.456073 
L 388.715062 200.039209 
L 389.800863 198.364555 
L 390.886665 186.898691 
L 391.972466 192.659711 
L 393.058267 190.154582 
L 394.144068 206.679882 
L 396.31567 215.373636 
L 397.401472 206.151927 
L 398.487273 201.789895 
L 398.487273 201.789895 
" style="fill:none;stroke:#0000ff;stroke-linecap:square;stroke-width:1.5;"/>
   </g>
   <g id="patch_3">
    <path d="M 57.6 307.584 
L 57.6 41.472 
" style="fill:none;stroke:#000000;stroke-linecap:square;stroke-linejoin:miter;stroke-width:0.8;"/>
   </g>
   <g id="patch_4">
    <path d="M 414.72 307.584 
L 414.72 41.472 
" style="fill:none;stroke:#000000;stroke-linecap:square;stroke-linejoin:miter;stroke-width:0.8;"/>
   </g>
   <g id="patch_5">
    <path d="M 57.6 307.584 
L 414.72 307.584 
" style="fill:none;stroke:#000000;stroke-linecap:square;stroke-linejoin:miter;stroke-width:0.8;"/>
   </g>
   <g id="patch_6">
    <path d="M 57.6 41.472 
L 414.72 41.472 
" style="fill:none;stroke:#000000;stroke-linecap:square;stroke-linejoin:miter;stroke-width:0.8;"/>
   </g>
  </g>
  <g id="axes_2">
   <g id="PolyCollection_2">
    <path clip-path="url(#p86d9101b2c)" d="M 73.832727 188.018594 
L 73.832727 218.977779 
L 74.918528 216.801435 
L 76.00433 218.22426 
L 77.090131 219.371847 
L 78.175932 218.993608 
L 79.261733 220.069049 
L 80.347534 221.619597 
L 81.433335 221.34414 
L 82.519137 221.830563 
L 83.604938 223.980617 
L 84.690739 221.626313 
L 85.77654 222.682824 
L 86.862341 223.433419 
L 87.948142 221.504742 
L 89.033943 219.51509 
L 90.119745 221.155907 
L 91.205546 220.220332 
L 92.291347 222.753445 
L 93.377148 220.277748 
L 94.462949 219.352724 
L 95.54875 220.697187 
L 96.634552 225.675125 
L 97.720353 229.507654 
L 98.806154 226.109876 
L 99.891955 225.559021 
L 100.977756 230.087141 
L 102.063557 223.287464 
L 103.149358 224.252805 
L 104.23516 228.275953 
L 105.320961 224.14488 
L 106.406762 224.958135 
L 107.492563 224.896267 
L 108.578364 224.139454 
L 109.664165 224.11627 
L 110.749967 223.699462 
L 111.835768 225.33897 
L 112.921569 223.120071 
L 114.00737 223.446492 
L 115.093171 227.891829 
L 116.178972 224.553058 
L 117.264773 227.109849 
L 118.350575 223.696455 
L 119.436376 225.071642 
L 120.522177 225.062775 
L 121.607978 224.041903 
L 122.693779 225.125685 
L 123.77958 224.723965 
L 124.865382 226.398439 
L 125.951183 228.689787 
L 127.036984 225.758237 
L 128.122785 226.405526 
L 129.208586 225.322698 
L 130.294387 229.150453 
L 131.380189 226.923872 
L 132.46599 225.071668 
L 133.551791 225.580246 
L 134.637592 226.636344 
L 135.723393 226.275992 
L 136.809194 225.865204 
L 137.894995 225.893056 
L 138.980797 229.91883 
L 140.066598 229.234485 
L 141.152399 233.946101 
L 142.2382 238.039733 
L 143.324001 240.208413 
L 144.409802 243.201097 
L 145.495604 233.110443 
L 146.581405 235.490772 
L 147.667206 230.648947 
L 148.753007 228.767532 
L 149.838808 230.040923 
L 150.924609 226.885348 
L 152.01041 228.474545 
L 153.096212 229.103214 
L 154.182013 230.14513 
L 155.267814 237.543537 
L 156.353615 235.64446 
L 157.439416 237.765932 
L 158.525217 236.699133 
L 159.611019 235.033899 
L 160.69682 230.943081 
L 161.782621 231.444963 
L 162.868422 228.749327 
L 163.954223 230.053344 
L 165.040024 229.851925 
L 166.125825 230.267582 
L 167.211627 232.586729 
L 168.297428 235.024635 
L 169.383229 234.619994 
L 170.46903 236.101893 
L 171.554831 234.061673 
L 172.640632 236.614706 
L 173.726434 237.024669 
L 174.812235 239.039331 
L 175.898036 239.64587 
L 176.983837 240.773008 
L 178.069638 236.780041 
L 179.155439 236.098917 
L 180.24124 237.770568 
L 181.327042 235.606472 
L 182.412843 235.685066 
L 183.498644 236.802623 
L 184.584445 237.231284 
L 185.670246 242.617676 
L 186.756047 243.298959 
L 187.841849 242.880427 
L 188.92765 236.590074 
L 190.013451 235.969786 
L 191.099252 238.578135 
L 192.185053 236.492379 
L 193.270854 236.46081 
L 194.356656 236.13761 
L 195.442457 240.715058 
L 196.528258 235.189566 
L 197.614059 239.175771 
L 198.69986 235.404165 
L 199.785661 234.88491 
L 200.871462 241.343355 
L 201.957264 246.083069 
L 203.043065 240.042575 
L 204.128866 241.452745 
L 205.214667 246.582786 
L 206.300468 244.460278 
L 207.386269 243.614172 
L 208.472071 238.359163 
L 209.557872 235.432298 
L 210.643673 234.635694 
L 211.729474 235.351042 
L 212.815275 236.775079 
L 213.901076 236.018676 
L 214.986877 236.504968 
L 216.072679 237.909144 
L 217.15848 236.873677 
L 218.244281 237.893841 
L 219.330082 240.888872 
L 220.415883 241.266278 
L 221.501684 241.287925 
L 222.587486 240.787605 
L 223.673287 243.150703 
L 224.759088 244.595025 
L 225.844889 248.801218 
L 226.93069 245.811707 
L 228.016491 245.98251 
L 229.102292 242.676358 
L 230.188094 241.181412 
L 231.273895 243.665135 
L 232.359696 245.831429 
L 233.445497 248.037557 
L 234.531298 251.911236 
L 235.617099 257.255487 
L 236.702901 254.1508 
L 237.788702 250.053053 
L 238.874503 253.058733 
L 239.960304 249.776642 
L 241.046105 260.975497 
L 242.131906 262.520065 
L 243.217708 266.498647 
L 244.303509 261.079969 
L 245.38931 265.3328 
L 246.475111 267.685281 
L 247.560912 266.993402 
L 248.646713 264.533109 
L 249.732514 268.190092 
L 250.818316 268.662973 
L 251.904117 264.421334 
L 252.989918 266.007926 
L 254.075719 265.364663 
L 255.16152 272.345046 
L 256.247321 268.72079 
L 257.333123 266.91452 
L 258.418924 269.0238 
L 259.504725 266.799114 
L 260.590526 263.480637 
L 261.676327 266.097091 
L 262.762128 267.156938 
L 263.847929 269.338331 
L 264.933731 270.617703 
L 266.019532 267.264464 
L 267.105333 265.43626 
L 268.191134 269.570544 
L 269.276935 269.694995 
L 270.362736 270.709573 
L 271.448538 265.739951 
L 272.534339 272.946614 
L 273.62014 270.312291 
L 274.705941 272.104817 
L 275.791742 266.790511 
L 276.877543 269.17489 
L 277.963344 269.038382 
L 279.049146 268.364659 
L 280.134947 268.852703 
L 281.220748 266.372149 
L 282.306549 267.983102 
L 283.39235 270.17506 
L 284.478151 267.148736 
L 285.563953 266.855754 
L 286.649754 267.937343 
L 287.735555 266.1522 
L 288.821356 267.687122 
L 289.907157 264.081326 
L 290.992958 266.057538 
L 292.07876 268.840928 
L 293.164561 265.903818 
L 294.250362 265.765936 
L 295.336163 268.959108 
L 296.421964 264.119065 
L 297.507765 264.180735 
L 298.593566 265.013008 
L 299.679368 263.90027 
L 300.765169 263.716996 
L 301.85097 266.392169 
L 302.936771 270.638879 
L 304.022572 267.569862 
L 305.108373 268.11672 
L 306.194175 270.348638 
L 307.279976 269.59726 
L 308.365777 268.187686 
L 309.451578 263.89224 
L 310.537379 266.131428 
L 311.62318 262.651576 
L 312.708981 265.037572 
L 313.794783 266.384858 
L 314.880584 264.631881 
L 315.966385 261.979108 
L 317.052186 260.14594 
L 318.137987 259.42505 
L 319.223788 262.325893 
L 320.30959 262.143513 
L 321.395391 263.062959 
L 322.481192 264.822827 
L 323.566993 264.964028 
L 324.652794 264.789495 
L 325.738595 261.53009 
L 326.824396 265.943733 
L 327.910198 260.902296 
L 328.995999 261.537077 
L 330.0818 263.577012 
L 331.167601 261.358286 
L 332.253402 259.646678 
L 333.339203 259.928065 
L 334.425005 260.541216 
L 335.510806 260.137225 
L 336.596607 259.290651 
L 337.682408 260.203248 
L 338.768209 254.694438 
L 339.85401 255.499009 
L 340.939811 254.127558 
L 342.025613 257.150448 
L 343.111414 256.404157 
L 344.197215 257.000839 
L 345.283016 261.020816 
L 346.368817 260.570298 
L 347.454618 258.133751 
L 348.54042 258.304947 
L 349.626221 265.567965 
L 350.712022 257.284083 
L 351.797823 258.293741 
L 352.883624 259.956353 
L 353.969425 259.782866 
L 355.055227 267.795097 
L 356.141028 269.861936 
L 357.226829 259.37464 
L 358.31263 259.427976 
L 359.398431 258.538224 
L 360.484232 261.865322 
L 361.570033 259.290518 
L 362.655835 258.163769 
L 363.741636 260.465306 
L 364.827437 259.938691 
L 365.913238 257.39197 
L 366.999039 260.563361 
L 368.08484 264.847813 
L 369.170642 264.258797 
L 370.256443 259.59039 
L 371.342244 255.850574 
L 372.428045 254.973534 
L 373.513846 257.442347 
L 374.599647 252.478803 
L 375.685448 247.885294 
L 376.77125 265.627243 
L 377.857051 277.67123 
L 378.942852 269.119843 
L 380.028653 295.488 
L 381.114454 260.687149 
L 382.200255 275.663375 
L 383.286057 255.229194 
L 384.371858 257.963865 
L 385.457659 253.00977 
L 386.54346 254.44976 
L 387.629261 253.383114 
L 388.715062 250.399991 
L 389.800863 249.681846 
L 390.886665 252.008192 
L 391.972466 252.17143 
L 393.058267 254.13691 
L 394.144068 249.468687 
L 395.229869 245.584647 
L 396.31567 247.605687 
L 397.401472 247.593709 
L 398.487273 249.086532 
L 398.487273 125.721578 
L 398.487273 125.721578 
L 397.401472 126.9525 
L 396.31567 132.325154 
L 395.229869 133.978036 
L 394.144068 131.125653 
L 393.058267 118.698048 
L 391.972466 126.096823 
L 390.886665 122.269367 
L 389.800863 131.614333 
L 388.715062 126.590017 
L 387.629261 116.641045 
L 386.54346 114.795531 
L 385.457659 123.197058 
L 384.371858 111.90887 
L 383.286057 119.571042 
L 382.200255 85.706993 
L 381.114454 98.760355 
L 380.028653 53.568 
L 378.942852 99.392782 
L 377.857051 74.327799 
L 376.77125 102.333612 
L 375.685448 131.630694 
L 374.599647 128.184414 
L 373.513846 120.739765 
L 372.428045 123.260947 
L 371.342244 122.081581 
L 370.256443 110.612077 
L 369.170642 107.358691 
L 368.08484 117.483806 
L 366.999039 111.49164 
L 365.913238 119.112568 
L 364.827437 114.177059 
L 363.741636 115.072202 
L 362.655835 125.159373 
L 361.570033 110.798115 
L 360.484232 117.111385 
L 359.398431 123.407876 
L 358.31263 119.348803 
L 357.226829 119.673761 
L 356.141028 92.274459 
L 355.055227 112.322104 
L 353.969425 118.832954 
L 352.883624 121.657357 
L 351.797823 108.38799 
L 350.712022 104.724257 
L 349.626221 90.259827 
L 348.54042 103.262894 
L 347.454618 98.420549 
L 346.368817 99.247362 
L 345.283016 84.545244 
L 344.197215 83.799538 
L 343.111414 93.842057 
L 342.025613 89.866798 
L 340.939811 90.822817 
L 339.85401 98.954329 
L 338.768209 101.295823 
L 337.682408 85.011163 
L 336.596607 98.789769 
L 335.510806 95.238696 
L 334.425005 95.41122 
L 333.339203 86.748292 
L 332.253402 99.099675 
L 331.167601 95.202228 
L 330.0818 85.164837 
L 328.995999 91.03994 
L 327.910198 88.703653 
L 326.824396 88.10949 
L 325.738595 92.833511 
L 324.652794 95.262116 
L 323.566993 101.927618 
L 322.481192 103.249487 
L 321.395391 106.606015 
L 320.30959 109.727253 
L 319.223788 99.895788 
L 318.137987 108.407297 
L 317.052186 97.587948 
L 315.966385 95.977998 
L 314.880584 102.82365 
L 313.794783 103.839358 
L 312.708981 106.256799 
L 311.62318 98.212514 
L 310.537379 101.199248 
L 309.451578 103.929144 
L 308.365777 98.914834 
L 307.279976 100.852278 
L 306.194175 95.977286 
L 305.108373 91.453571 
L 304.022572 97.729148 
L 302.936771 95.961814 
L 301.85097 86.419367 
L 300.765169 83.62522 
L 299.679368 90.670111 
L 298.593566 90.341716 
L 297.507765 96.498487 
L 296.421964 98.024869 
L 295.336163 88.806736 
L 294.250362 103.555821 
L 293.164561 107.025819 
L 292.07876 89.622854 
L 290.992958 94.880029 
L 289.907157 110.642348 
L 288.821356 98.478961 
L 287.735555 108.703201 
L 286.649754 102.216005 
L 285.563953 103.001519 
L 284.478151 106.530619 
L 283.39235 100.441139 
L 282.306549 106.45353 
L 281.220748 105.897993 
L 280.134947 106.789562 
L 279.049146 117.510681 
L 277.963344 114.173407 
L 276.877543 109.669691 
L 275.791742 116.405539 
L 274.705941 92.245257 
L 273.62014 103.12373 
L 272.534339 97.013998 
L 271.448538 115.648597 
L 270.362736 106.711209 
L 269.276935 112.811032 
L 268.191134 105.868463 
L 267.105333 110.068526 
L 266.019532 108.350404 
L 264.933731 104.371083 
L 263.847929 100.931933 
L 262.762128 106.201303 
L 261.676327 110.710733 
L 260.590526 111.540399 
L 259.504725 99.249438 
L 258.418924 93.661689 
L 257.333123 105.507539 
L 256.247321 103.49132 
L 255.16152 92.474689 
L 254.075719 103.038847 
L 252.989918 99.909473 
L 251.904117 112.208975 
L 250.818316 104.711422 
L 249.732514 108.165732 
L 248.646713 120.730012 
L 247.560912 121.196109 
L 246.475111 118.636404 
L 245.38931 125.079035 
L 244.303509 130.323772 
L 243.217708 118.829846 
L 242.131906 131.385523 
L 241.046105 132.289545 
L 239.960304 150.73251 
L 238.874503 148.514806 
L 237.788702 147.958017 
L 236.702901 144.218749 
L 235.617099 135.665942 
L 234.531298 140.903473 
L 233.445497 144.643901 
L 232.359696 147.027805 
L 231.273895 152.081248 
L 230.188094 161.678833 
L 229.102292 154.908799 
L 228.016491 143.129329 
L 226.93069 145.794551 
L 225.844889 140.39104 
L 224.759088 153.945822 
L 223.673287 155.723655 
L 222.587486 160.972064 
L 221.501684 159.90489 
L 220.415883 159.302629 
L 219.330082 157.825151 
L 218.244281 164.927965 
L 217.15848 164.081376 
L 216.072679 164.288921 
L 214.986877 164.594652 
L 213.901076 169.170088 
L 212.815275 166.080764 
L 211.729474 171.672006 
L 210.643673 174.163737 
L 209.557872 173.765457 
L 208.472071 170.549579 
L 207.386269 158.207721 
L 206.300468 153.144676 
L 205.214667 150.231712 
L 204.128866 162.869495 
L 203.043065 163.492649 
L 201.957264 144.728344 
L 200.871462 159.945066 
L 199.785661 165.717615 
L 198.69986 163.606324 
L 197.614059 157.462669 
L 196.528258 164.591974 
L 195.442457 161.312192 
L 194.356656 161.529197 
L 193.270854 165.668716 
L 192.185053 163.821739 
L 191.099252 158.499168 
L 190.013451 159.817898 
L 188.92765 158.23346 
L 187.841849 150.022072 
L 186.756047 153.798742 
L 185.670246 157.007572 
L 184.584445 165.215084 
L 183.498644 164.005485 
L 182.412843 164.841782 
L 181.327042 167.427772 
L 180.24124 170.228524 
L 179.155439 168.538123 
L 178.069638 165.498557 
L 176.983837 157.316182 
L 175.898036 162.063011 
L 174.812235 159.981421 
L 173.726434 165.261788 
L 172.640632 159.987278 
L 171.554831 161.181476 
L 170.46903 156.320045 
L 169.383229 157.169867 
L 168.297428 158.654758 
L 167.211627 162.564777 
L 166.125825 165.186861 
L 165.040024 175.260738 
L 163.954223 174.813044 
L 162.868422 178.456592 
L 161.782621 176.157048 
L 160.69682 176.321616 
L 159.611019 170.565741 
L 158.525217 167.665409 
L 157.439416 165.75875 
L 156.353615 165.970485 
L 155.267814 159.814309 
L 154.182013 167.433213 
L 153.096212 171.102915 
L 152.01041 172.726526 
L 150.924609 172.725441 
L 149.838808 168.891229 
L 148.753007 169.651526 
L 147.667206 172.107431 
L 146.581405 165.371019 
L 145.495604 163.634505 
L 144.409802 150.109368 
L 143.324001 155.18651 
L 142.2382 155.843225 
L 141.152399 163.252645 
L 140.066598 172.928127 
L 138.980797 174.311964 
L 137.894995 179.866838 
L 136.809194 181.200792 
L 135.723393 183.45836 
L 134.637592 184.99536 
L 133.551791 185.286276 
L 132.46599 186.114934 
L 131.380189 180.992196 
L 130.294387 180.75928 
L 129.208586 185.604433 
L 128.122785 186.577102 
L 127.036984 185.167291 
L 125.951183 179.178452 
L 124.865382 189.526358 
L 123.77958 191.164416 
L 122.693779 192.488615 
L 121.607978 196.572295 
L 120.522177 193.897569 
L 119.436376 193.028438 
L 118.350575 195.285369 
L 117.264773 191.415324 
L 116.178972 196.833713 
L 115.093171 191.383297 
L 114.00737 192.777231 
L 112.921569 193.55665 
L 111.835768 190.121321 
L 110.749967 194.369692 
L 109.664165 196.418187 
L 108.578364 195.941675 
L 107.492563 191.546735 
L 106.406762 193.386302 
L 105.320961 191.633262 
L 104.23516 184.336195 
L 103.149358 189.909242 
L 102.063557 190.214545 
L 100.977756 182.708112 
L 99.891955 192.49825 
L 98.806154 188.366369 
L 97.720353 181.146028 
L 96.634552 186.99063 
L 95.54875 185.42613 
L 94.462949 185.732488 
L 93.377148 183.04934 
L 92.291347 180.09802 
L 91.205546 186.514483 
L 90.119745 187.261161 
L 89.033943 187.092632 
L 87.948142 190.231918 
L 86.862341 189.356803 
L 85.77654 192.576889 
L 84.690739 190.282479 
L 83.604938 181.721143 
L 82.519137 183.96551 
L 81.433335 188.902904 
L 80.347534 190.995226 
L 79.261733 188.034864 
L 78.175932 186.228737 
L 77.090131 187.517089 
L 76.00433 186.046381 
L 74.918528 184.60306 
L 73.832727 188.018594 
z
" style="fill:#008000;fill-opacity:0.25;"/>
   </g>
   <g id="matplotlib.axis_3">
    <g id="ytick_6">
     <g id="line2d_14">
      <path clip-path="url(#p86d9101b2c)" d="M 57.6 288.131521 
L 414.72 288.131521 
" style="fill:none;stroke:#b0b0b0;stroke-linecap:square;stroke-width:0.8;"/>
     </g>
     <g id="line2d_15">
      <defs>
       <path d="M 0 0 
L 3.5 0 
" id="me8d9b9e123" style="stroke:#000000;stroke-width:0.8;"/>
      </defs>
      <g>
       <use style="stroke:#000000;stroke-width:0.8;" x="414.72" xlink:href="#me8d9b9e123" y="288.131521"/>
      </g>
     </g>
     <g id="text_14">
      <!-- 2 -->
      <defs>
       <path d="M 10.59375 35.5 
L 73.1875 35.5 
L 73.1875 27.203125 
L 10.59375 27.203125 
z
" id="DejaVuSans-8722"/>
      </defs>
      <g transform="translate(421.72 291.93074)scale(0.1 -0.1)">
       <use xlink:href="#DejaVuSans-8722"/>
       <use x="83.789062" xlink:href="#DejaVuSans-50"/>
      </g>
     </g>
    </g>
    <g id="ytick_7">
     <g id="line2d_16">
      <path clip-path="url(#p86d9101b2c)" d="M 57.6 253.006276 
L 414.72 253.006276 
" style="fill:none;stroke:#b0b0b0;stroke-linecap:square;stroke-width:0.8;"/>
     </g>
     <g id="line2d_17">
      <g>
       <use style="stroke:#000000;stroke-width:0.8;" x="414.72" xlink:href="#me8d9b9e123" y="253.006276"/>
      </g>
     </g>
     <g id="text_15">
      <!-- 1 -->
      <g transform="translate(421.72 256.805495)scale(0.1 -0.1)">
       <use xlink:href="#DejaVuSans-8722"/>
       <use x="83.789062" xlink:href="#DejaVuSans-49"/>
      </g>
     </g>
    </g>
    <g id="ytick_8">
     <g id="line2d_18">
      <path clip-path="url(#p86d9101b2c)" d="M 57.6 217.881031 
L 414.72 217.881031 
" style="fill:none;stroke:#b0b0b0;stroke-linecap:square;stroke-width:0.8;"/>
     </g>
     <g id="line2d_19">
      <g>
       <use style="stroke:#000000;stroke-width:0.8;" x="414.72" xlink:href="#me8d9b9e123" y="217.881031"/>
      </g>
     </g>
     <g id="text_16">
      <!-- 0 -->
      <g transform="translate(421.72 221.68025)scale(0.1 -0.1)">
       <use xlink:href="#DejaVuSans-48"/>
      </g>
     </g>
    </g>
    <g id="ytick_9">
     <g id="line2d_20">
      <path clip-path="url(#p86d9101b2c)" d="M 57.6 182.755787 
L 414.72 182.755787 
" style="fill:none;stroke:#b0b0b0;stroke-linecap:square;stroke-width:0.8;"/>
     </g>
     <g id="line2d_21">
      <g>
       <use style="stroke:#000000;stroke-width:0.8;" x="414.72" xlink:href="#me8d9b9e123" y="182.755787"/>
      </g>
     </g>
     <g id="text_17">
      <!-- 1 -->
      <g transform="translate(421.72 186.555005)scale(0.1 -0.1)">
       <use xlink:href="#DejaVuSans-49"/>
      </g>
     </g>
    </g>
    <g id="ytick_10">
     <g id="line2d_22">
      <path clip-path="url(#p86d9101b2c)" d="M 57.6 147.630542 
L 414.72 147.630542 
" style="fill:none;stroke:#b0b0b0;stroke-linecap:square;stroke-width:0.8;"/>
     </g>
     <g id="line2d_23">
      <g>
       <use style="stroke:#000000;stroke-width:0.8;" x="414.72" xlink:href="#me8d9b9e123" y="147.630542"/>
      </g>
     </g>
     <g id="text_18">
      <!-- 2 -->
      <g transform="translate(421.72 151.42976)scale(0.1 -0.1)">
       <use xlink:href="#DejaVuSans-50"/>
      </g>
     </g>
    </g>
    <g id="ytick_11">
     <g id="line2d_24">
      <path clip-path="url(#p86d9101b2c)" d="M 57.6 112.505297 
L 414.72 112.505297 
" style="fill:none;stroke:#b0b0b0;stroke-linecap:square;stroke-width:0.8;"/>
     </g>
     <g id="line2d_25">
      <g>
       <use style="stroke:#000000;stroke-width:0.8;" x="414.72" xlink:href="#me8d9b9e123" y="112.505297"/>
      </g>
     </g>
     <g id="text_19">
      <!-- 3 -->
      <g transform="translate(421.72 116.304515)scale(0.1 -0.1)">
       <use xlink:href="#DejaVuSans-51"/>
      </g>
     </g>
    </g>
    <g id="ytick_12">
     <g id="line2d_26">
      <path clip-path="url(#p86d9101b2c)" d="M 57.6 77.380052 
L 414.72 77.380052 
" style="fill:none;stroke:#b0b0b0;stroke-linecap:square;stroke-width:0.8;"/>
     </g>
     <g id="line2d_27">
      <g>
       <use style="stroke:#000000;stroke-width:0.8;" x="414.72" xlink:href="#me8d9b9e123" y="77.380052"/>
      </g>
     </g>
     <g id="text_20">
      <!-- 4 -->
      <g transform="translate(421.72 81.17927)scale(0.1 -0.1)">
       <use xlink:href="#DejaVuSans-52"/>
      </g>
     </g>
    </g>
    <g id="ytick_13">
     <g id="line2d_28">
      <path clip-path="url(#p86d9101b2c)" d="M 57.6 42.254807 
L 414.72 42.254807 
" style="fill:none;stroke:#b0b0b0;stroke-linecap:square;stroke-width:0.8;"/>
     </g>
     <g id="line2d_29">
      <g>
       <use style="stroke:#000000;stroke-width:0.8;" x="414.72" xlink:href="#me8d9b9e123" y="42.254807"/>
      </g>
     </g>
     <g id="text_21">
      <!-- 5 -->
      <g transform="translate(421.72 46.054025)scale(0.1 -0.1)">
       <use xlink:href="#DejaVuSans-53"/>
      </g>
     </g>
    </g>
    <g id="text_22">
     <!-- Loudness -->
     <defs>
      <path d="M 9.8125 72.90625 
L 19.671875 72.90625 
L 19.671875 8.296875 
L 55.171875 8.296875 
L 55.171875 0 
L 9.8125 0 
z
" id="DejaVuSans-76"/>
      <path d="M 30.609375 48.390625 
Q 23.390625 48.390625 19.1875 42.75 
Q 14.984375 37.109375 14.984375 27.296875 
Q 14.984375 17.484375 19.15625 11.84375 
Q 23.34375 6.203125 30.609375 6.203125 
Q 37.796875 6.203125 41.984375 11.859375 
Q 46.1875 17.53125 46.1875 27.296875 
Q 46.1875 37.015625 41.984375 42.703125 
Q 37.796875 48.390625 30.609375 48.390625 
z
M 30.609375 56 
Q 42.328125 56 49.015625 48.375 
Q 55.71875 40.765625 55.71875 27.296875 
Q 55.71875 13.875 49.015625 6.21875 
Q 42.328125 -1.421875 30.609375 -1.421875 
Q 18.84375 -1.421875 12.171875 6.21875 
Q 5.515625 13.875 5.515625 27.296875 
Q 5.515625 40.765625 12.171875 48.375 
Q 18.84375 56 30.609375 56 
z
" id="DejaVuSans-111"/>
      <path d="M 8.5 21.578125 
L 8.5 54.6875 
L 17.484375 54.6875 
L 17.484375 21.921875 
Q 17.484375 14.15625 20.5 10.265625 
Q 23.53125 6.390625 29.59375 6.390625 
Q 36.859375 6.390625 41.078125 11.03125 
Q 45.3125 15.671875 45.3125 23.6875 
L 45.3125 54.6875 
L 54.296875 54.6875 
L 54.296875 0 
L 45.3125 0 
L 45.3125 8.40625 
Q 42.046875 3.421875 37.71875 1 
Q 33.40625 -1.421875 27.6875 -1.421875 
Q 18.265625 -1.421875 13.375 4.4375 
Q 8.5 10.296875 8.5 21.578125 
z
M 31.109375 56 
z
" id="DejaVuSans-117"/>
      <path d="M 45.40625 46.390625 
L 45.40625 75.984375 
L 54.390625 75.984375 
L 54.390625 0 
L 45.40625 0 
L 45.40625 8.203125 
Q 42.578125 3.328125 38.25 0.953125 
Q 33.9375 -1.421875 27.875 -1.421875 
Q 17.96875 -1.421875 11.734375 6.484375 
Q 5.515625 14.40625 5.515625 27.296875 
Q 5.515625 40.1875 11.734375 48.09375 
Q 17.96875 56 27.875 56 
Q 33.9375 56 38.25 53.625 
Q 42.578125 51.265625 45.40625 46.390625 
z
M 14.796875 27.296875 
Q 14.796875 17.390625 18.875 11.75 
Q 22.953125 6.109375 30.078125 6.109375 
Q 37.203125 6.109375 41.296875 11.75 
Q 45.40625 17.390625 45.40625 27.296875 
Q 45.40625 37.203125 41.296875 42.84375 
Q 37.203125 48.484375 30.078125 48.484375 
Q 22.953125 48.484375 18.875 42.84375 
Q 14.796875 37.203125 14.796875 27.296875 
z
" id="DejaVuSans-100"/>
     </defs>
     <g transform="translate(448.060625 198.170187)rotate(-90)scale(0.1 -0.1)">
      <use xlink:href="#DejaVuSans-76"/>
      <use x="55.697266" xlink:href="#DejaVuSans-111"/>
      <use x="116.878906" xlink:href="#DejaVuSans-117"/>
      <use x="180.257812" xlink:href="#DejaVuSans-100"/>
      <use x="243.734375" xlink:href="#DejaVuSans-110"/>
      <use x="307.113281" xlink:href="#DejaVuSans-101"/>
      <use x="368.636719" xlink:href="#DejaVuSans-115"/>
      <use x="420.736328" xlink:href="#DejaVuSans-115"/>
     </g>
    </g>
   </g>
   <g id="line2d_30">
    <path clip-path="url(#p86d9101b2c)" d="M 73.832727 203.498187 
L 74.918528 200.702247 
L 77.090131 203.444468 
L 78.175932 202.611173 
L 79.261733 204.051956 
L 80.347534 206.307412 
L 81.433335 205.123522 
L 82.519137 202.898036 
L 83.604938 202.85088 
L 84.690739 205.954396 
L 85.77654 207.629857 
L 86.862341 206.395111 
L 87.948142 205.86833 
L 89.033943 203.303861 
L 90.119745 204.208534 
L 91.205546 203.367408 
L 92.291347 201.425732 
L 93.377148 201.663544 
L 94.462949 202.542606 
L 95.54875 203.061659 
L 96.634552 206.332877 
L 97.720353 205.326841 
L 99.891955 209.028635 
L 100.977756 206.397627 
L 103.149358 207.081023 
L 104.23516 206.306074 
L 105.320961 207.889071 
L 106.406762 209.172218 
L 107.492563 208.221501 
L 108.578364 210.040565 
L 109.664165 210.267228 
L 111.835768 207.730145 
L 112.921569 208.33836 
L 114.00737 208.111862 
L 115.093171 209.637563 
L 116.178972 210.693385 
L 117.264773 209.262587 
L 118.350575 209.490912 
L 119.436376 209.05004 
L 120.522177 209.480172 
L 121.607978 210.307099 
L 122.693779 208.80715 
L 123.77958 207.944191 
L 124.865382 207.962399 
L 125.951183 203.934119 
L 127.036984 205.462764 
L 128.122785 206.491314 
L 129.208586 205.463565 
L 130.294387 204.954866 
L 131.380189 203.958034 
L 132.46599 205.593301 
L 133.551791 205.433261 
L 134.637592 205.815852 
L 135.723393 204.867176 
L 136.809194 203.532998 
L 138.980797 202.115397 
L 140.066598 201.081306 
L 141.152399 198.599373 
L 142.2382 196.941479 
L 143.324001 197.697461 
L 144.409802 196.655233 
L 145.495604 198.372474 
L 146.581405 200.430895 
L 147.667206 201.378189 
L 148.753007 199.209529 
L 150.924609 199.805395 
L 152.01041 200.600535 
L 153.096212 200.103064 
L 154.182013 198.789171 
L 155.267814 198.678923 
L 156.353615 200.807472 
L 157.439416 201.762341 
L 158.525217 202.182271 
L 159.611019 202.79982 
L 160.69682 203.632348 
L 161.782621 203.801006 
L 162.868422 203.60296 
L 163.954223 202.433194 
L 165.040024 202.556332 
L 166.125825 197.727222 
L 167.211627 197.575753 
L 168.297428 196.839697 
L 169.383229 195.894931 
L 170.46903 196.210969 
L 171.554831 197.621575 
L 172.640632 198.300992 
L 173.726434 201.143229 
L 174.812235 199.510376 
L 175.898036 200.85444 
L 176.983837 199.044595 
L 178.069638 201.139299 
L 179.155439 202.31852 
L 180.24124 203.999546 
L 181.327042 201.517122 
L 182.412843 200.263424 
L 183.498644 200.404054 
L 184.584445 201.223184 
L 186.756047 198.54885 
L 187.841849 196.45125 
L 188.92765 197.411767 
L 190.013451 197.893842 
L 191.099252 198.538652 
L 192.185053 200.157059 
L 193.270854 201.064763 
L 194.356656 198.833404 
L 195.442457 201.013625 
L 196.528258 199.89077 
L 197.614059 198.31922 
L 198.69986 199.505245 
L 199.785661 200.301262 
L 200.871462 200.64421 
L 201.957264 195.405706 
L 203.043065 201.767612 
L 204.128866 202.16112 
L 205.214667 198.407249 
L 206.300468 198.802477 
L 207.386269 200.910946 
L 208.472071 204.454371 
L 209.557872 204.598877 
L 210.643673 204.399715 
L 211.729474 203.511524 
L 212.815275 201.427921 
L 213.901076 202.594382 
L 214.986877 200.54981 
L 216.072679 201.099032 
L 217.15848 200.477527 
L 218.244281 201.410903 
L 219.330082 199.357011 
L 220.415883 200.284454 
L 222.587486 200.879834 
L 223.673287 199.437179 
L 224.759088 199.270423 
L 225.844889 194.596129 
L 226.93069 195.803129 
L 228.016491 194.55592 
L 229.102292 198.792578 
L 230.188094 201.430123 
L 231.273895 197.873192 
L 232.359696 196.429617 
L 233.445497 196.340729 
L 235.617099 196.460715 
L 236.702901 199.184774 
L 237.788702 199.005535 
L 238.874503 200.78677 
L 239.960304 200.254576 
L 241.046105 196.632521 
L 242.131906 196.952794 
L 243.217708 192.664246 
L 244.303509 195.70187 
L 245.38931 195.205918 
L 246.475111 193.160842 
L 247.560912 194.094756 
L 248.646713 192.631561 
L 249.732514 188.177912 
L 250.818316 186.687197 
L 251.904117 188.315154 
L 252.989918 182.9587 
L 254.075719 184.201755 
L 255.16152 182.409867 
L 256.247321 186.106055 
L 257.333123 186.211029 
L 258.418924 181.342745 
L 259.504725 183.024276 
L 260.590526 187.510518 
L 261.676327 188.403912 
L 263.847929 185.135132 
L 264.933731 187.494393 
L 266.019532 187.807434 
L 268.191134 187.719504 
L 269.276935 191.253013 
L 270.362736 188.710391 
L 271.448538 190.694274 
L 272.534339 184.980306 
L 273.62014 186.718011 
L 274.705941 182.175037 
L 275.791742 191.598025 
L 276.877543 189.422291 
L 277.963344 191.605894 
L 279.049146 192.93767 
L 280.134947 187.821132 
L 281.220748 186.135071 
L 282.306549 187.218316 
L 283.39235 185.3081 
L 284.478151 186.839678 
L 285.563953 184.928637 
L 286.649754 185.076674 
L 287.735555 187.4277 
L 288.821356 183.083042 
L 289.907157 187.361837 
L 290.992958 180.468783 
L 292.07876 179.231891 
L 293.164561 186.464819 
L 294.250362 184.660879 
L 295.336163 178.882922 
L 296.421964 181.071967 
L 297.507765 180.339611 
L 298.593566 177.677362 
L 299.679368 177.28519 
L 300.765169 173.671108 
L 301.85097 176.405768 
L 302.936771 183.300346 
L 304.022572 182.649505 
L 305.108373 179.785145 
L 306.194175 183.162962 
L 307.279976 185.224769 
L 308.365777 183.55126 
L 309.451578 183.910692 
L 310.537379 183.665338 
L 311.62318 180.432045 
L 312.708981 185.647186 
L 313.794783 185.112108 
L 314.880584 183.727766 
L 315.966385 178.978553 
L 317.052186 178.866944 
L 318.137987 183.916173 
L 319.223788 181.110841 
L 320.30959 185.935383 
L 321.395391 184.834487 
L 322.481192 184.036157 
L 323.566993 183.445823 
L 324.652794 180.025805 
L 325.738595 177.1818 
L 326.824396 177.026611 
L 327.910198 174.802974 
L 328.995999 176.288509 
L 330.0818 174.370924 
L 331.167601 178.280257 
L 332.253402 179.373176 
L 333.339203 173.338178 
L 334.425005 177.976218 
L 335.510806 177.687961 
L 336.596607 179.04021 
L 337.682408 172.607206 
L 338.768209 177.995131 
L 339.85401 177.226669 
L 340.939811 172.475188 
L 342.025613 173.508623 
L 343.111414 175.123107 
L 344.197215 170.400189 
L 345.283016 172.78303 
L 346.368817 179.90883 
L 347.454618 178.27715 
L 348.54042 180.78392 
L 349.626221 177.913896 
L 350.712022 181.00417 
L 351.797823 183.340865 
L 352.883624 190.806855 
L 353.969425 189.30791 
L 355.055227 190.0586 
L 356.141028 181.068198 
L 357.226829 189.5242 
L 358.31263 189.38839 
L 359.398431 190.97305 
L 360.484232 189.488353 
L 361.570033 185.044317 
L 362.655835 191.661571 
L 363.741636 187.768754 
L 364.827437 187.057875 
L 365.913238 188.252269 
L 366.999039 186.027501 
L 368.08484 191.16581 
L 369.170642 185.808744 
L 370.256443 185.101234 
L 371.342244 188.966078 
L 372.428045 189.11724 
L 373.513846 189.091056 
L 374.599647 190.331608 
L 375.685448 189.757994 
L 376.77125 183.980428 
L 377.857051 175.999514 
L 378.942852 184.256312 
L 380.028653 174.528 
L 381.114454 179.723752 
L 382.200255 180.685184 
L 383.286057 187.400118 
L 384.371858 184.936367 
L 385.457659 188.103414 
L 386.54346 184.622645 
L 387.629261 185.01208 
L 388.715062 188.495004 
L 389.800863 190.648089 
L 390.886665 187.13878 
L 391.972466 189.134126 
L 393.058267 186.417479 
L 394.144068 190.29717 
L 395.229869 189.781341 
L 396.31567 189.965421 
L 397.401472 187.273104 
L 398.487273 187.404055 
L 398.487273 187.404055 
" style="fill:none;stroke:#008000;stroke-linecap:square;stroke-width:1.5;"/>
   </g>
   <g id="patch_7">
    <path d="M 57.6 307.584 
L 57.6 41.472 
" style="fill:none;stroke:#000000;stroke-linecap:square;stroke-linejoin:miter;stroke-width:0.8;"/>
   </g>
   <g id="patch_8">
    <path d="M 414.72 307.584 
L 414.72 41.472 
" style="fill:none;stroke:#000000;stroke-linecap:square;stroke-linejoin:miter;stroke-width:0.8;"/>
   </g>
   <g id="patch_9">
    <path d="M 57.6 307.584 
L 414.72 307.584 
" style="fill:none;stroke:#000000;stroke-linecap:square;stroke-linejoin:miter;stroke-width:0.8;"/>
   </g>
   <g id="patch_10">
    <path d="M 57.6 41.472 
L 414.72 41.472 
" style="fill:none;stroke:#000000;stroke-linecap:square;stroke-linejoin:miter;stroke-width:0.8;"/>
   </g>
   <g id="text_23">
    <!-- Message Difference and Loudness -->
    <defs>
     <path d="M 9.8125 72.90625 
L 24.515625 72.90625 
L 43.109375 23.296875 
L 61.8125 72.90625 
L 76.515625 72.90625 
L 76.515625 0 
L 66.890625 0 
L 66.890625 64.015625 
L 48.09375 14.015625 
L 38.1875 14.015625 
L 19.390625 64.015625 
L 19.390625 0 
L 9.8125 0 
z
" id="DejaVuSans-77"/>
     <path d="M 45.40625 27.984375 
Q 45.40625 37.75 41.375 43.109375 
Q 37.359375 48.484375 30.078125 48.484375 
Q 22.859375 48.484375 18.828125 43.109375 
Q 14.796875 37.75 14.796875 27.984375 
Q 14.796875 18.265625 18.828125 12.890625 
Q 22.859375 7.515625 30.078125 7.515625 
Q 37.359375 7.515625 41.375 12.890625 
Q 45.40625 18.265625 45.40625 27.984375 
z
M 54.390625 6.78125 
Q 54.390625 -7.171875 48.1875 -13.984375 
Q 42 -20.796875 29.203125 -20.796875 
Q 24.46875 -20.796875 20.265625 -20.09375 
Q 16.0625 -19.390625 12.109375 -17.921875 
L 12.109375 -9.1875 
Q 16.0625 -11.328125 19.921875 -12.34375 
Q 23.78125 -13.375 27.78125 -13.375 
Q 36.625 -13.375 41.015625 -8.765625 
Q 45.40625 -4.15625 45.40625 5.171875 
L 45.40625 9.625 
Q 42.625 4.78125 38.28125 2.390625 
Q 33.9375 0 27.875 0 
Q 17.828125 0 11.671875 7.65625 
Q 5.515625 15.328125 5.515625 27.984375 
Q 5.515625 40.671875 11.671875 48.328125 
Q 17.828125 56 27.875 56 
Q 33.9375 56 38.28125 53.609375 
Q 42.625 51.21875 45.40625 46.390625 
L 45.40625 54.6875 
L 54.390625 54.6875 
z
" id="DejaVuSans-103"/>
     <path id="DejaVuSans-32"/>
     <path d="M 37.109375 75.984375 
L 37.109375 68.5 
L 28.515625 68.5 
Q 23.6875 68.5 21.796875 66.546875 
Q 19.921875 64.59375 19.921875 59.515625 
L 19.921875 54.6875 
L 34.71875 54.6875 
L 34.71875 47.703125 
L 19.921875 47.703125 
L 19.921875 0 
L 10.890625 0 
L 10.890625 47.703125 
L 2.296875 47.703125 
L 2.296875 54.6875 
L 10.890625 54.6875 
L 10.890625 58.5 
Q 10.890625 67.625 15.140625 71.796875 
Q 19.390625 75.984375 28.609375 75.984375 
z
" id="DejaVuSans-102"/>
     <path d="M 41.109375 46.296875 
Q 39.59375 47.171875 37.8125 47.578125 
Q 36.03125 48 33.890625 48 
Q 26.265625 48 22.1875 43.046875 
Q 18.109375 38.09375 18.109375 28.8125 
L 18.109375 0 
L 9.078125 0 
L 9.078125 54.6875 
L 18.109375 54.6875 
L 18.109375 46.1875 
Q 20.953125 51.171875 25.484375 53.578125 
Q 30.03125 56 36.53125 56 
Q 37.453125 56 38.578125 55.875 
Q 39.703125 55.765625 41.0625 55.515625 
z
" id="DejaVuSans-114"/>
    </defs>
    <g transform="translate(133.329375 35.472)scale(0.12 -0.12)">
     <use xlink:href="#DejaVuSans-77"/>
     <use x="86.279297" xlink:href="#DejaVuSans-101"/>
     <use x="147.802734" xlink:href="#DejaVuSans-115"/>
     <use x="199.902344" xlink:href="#DejaVuSans-115"/>
     <use x="252.001953" xlink:href="#DejaVuSans-97"/>
     <use x="313.28125" xlink:href="#DejaVuSans-103"/>
     <use x="376.757812" xlink:href="#DejaVuSans-101"/>
     <use x="438.28125" xlink:href="#DejaVuSans-32"/>
     <use x="470.068359" xlink:href="#DejaVuSans-68"/>
     <use x="547.070312" xlink:href="#DejaVuSans-105"/>
     <use x="574.853516" xlink:href="#DejaVuSans-102"/>
     <use x="610.058594" xlink:href="#DejaVuSans-102"/>
     <use x="645.263672" xlink:href="#DejaVuSans-101"/>
     <use x="706.787109" xlink:href="#DejaVuSans-114"/>
     <use x="747.869141" xlink:href="#DejaVuSans-101"/>
     <use x="809.392578" xlink:href="#DejaVuSans-110"/>
     <use x="872.771484" xlink:href="#DejaVuSans-99"/>
     <use x="927.751953" xlink:href="#DejaVuSans-101"/>
     <use x="989.275391" xlink:href="#DejaVuSans-32"/>
     <use x="1021.0625" xlink:href="#DejaVuSans-97"/>
     <use x="1082.341797" xlink:href="#DejaVuSans-110"/>
     <use x="1145.720703" xlink:href="#DejaVuSans-100"/>
     <use x="1209.197266" xlink:href="#DejaVuSans-32"/>
     <use x="1240.984375" xlink:href="#DejaVuSans-76"/>
     <use x="1296.681641" xlink:href="#DejaVuSans-111"/>
     <use x="1357.863281" xlink:href="#DejaVuSans-117"/>
     <use x="1421.242188" xlink:href="#DejaVuSans-100"/>
     <use x="1484.71875" xlink:href="#DejaVuSans-110"/>
     <use x="1548.097656" xlink:href="#DejaVuSans-101"/>
     <use x="1609.621094" xlink:href="#DejaVuSans-115"/>
     <use x="1661.720703" xlink:href="#DejaVuSans-115"/>
    </g>
   </g>
   <g id="legend_1">
    <g id="patch_11">
     <path d="M 331.227813 64.150125 
L 407.72 64.150125 
Q 409.72 64.150125 409.72 62.150125 
L 409.72 48.472 
Q 409.72 46.472 407.72 46.472 
L 331.227813 46.472 
Q 329.227813 46.472 329.227813 48.472 
L 329.227813 62.150125 
Q 329.227813 64.150125 331.227813 64.150125 
z
" style="fill:#ffffff;opacity:0.8;stroke:#cccccc;stroke-linejoin:miter;"/>
    </g>
    <g id="line2d_31">
     <path d="M 333.227813 54.570438 
L 353.227813 54.570438 
" style="fill:none;stroke:#008000;stroke-linecap:square;stroke-width:1.5;"/>
    </g>
    <g id="line2d_32"/>
    <g id="text_24">
     <!-- loudness -->
     <defs>
      <path d="M 9.421875 75.984375 
L 18.40625 75.984375 
L 18.40625 0 
L 9.421875 0 
z
" id="DejaVuSans-108"/>
     </defs>
     <g transform="translate(361.227813 58.070438)scale(0.1 -0.1)">
      <use xlink:href="#DejaVuSans-108"/>
      <use x="27.783203" xlink:href="#DejaVuSans-111"/>
      <use x="88.964844" xlink:href="#DejaVuSans-117"/>
      <use x="152.34375" xlink:href="#DejaVuSans-100"/>
      <use x="215.820312" xlink:href="#DejaVuSans-110"/>
      <use x="279.199219" xlink:href="#DejaVuSans-101"/>
      <use x="340.722656" xlink:href="#DejaVuSans-115"/>
      <use x="392.822266" xlink:href="#DejaVuSans-115"/>
     </g>
    </g>
   </g>
  </g>
 </g>
 <defs>
  <clipPath id="p86d9101b2c">
   <rect height="266.112" width="357.12" x="57.6" y="41.472"/>
  </clipPath>
 </defs>
</svg>
