<?xml version="1.0" encoding="UTF-8" standalone="no"?>
<!DOCTYPE svg PUBLIC "-//W3C//DTD SVG 1.1//EN"
 "http://www.w3.org/Graphics/SVG/1.1/DTD/svg11.dtd">
<!-- Generated by graphviz version 2.40.1 (20161225.0304)
 -->
<!-- Title: %3 Pages: 1 -->
<svg width="489pt" height="175pt"
 viewBox="0.00 0.00 489.00 174.79" xmlns="http://www.w3.org/2000/svg" xmlns:xlink="http://www.w3.org/1999/xlink">
<g id="graph0" class="graph" transform="scale(1 1) rotate(0) translate(4 170.7893)">
<title>%3</title>
<polygon fill="#ffffff" stroke="transparent" points="-4,4 -4,-170.7893 484.9976,-170.7893 484.9976,4 -4,4"/>
<!-- E0 -->
<g id="node1" class="node">
<title>E0</title>
<polygon fill="#d3d3d3" stroke="#000000" points="25.9963,-166.7893 .0012,-166.7893 .0012,-149.7893 25.9963,-149.7893 25.9963,-166.7893"/>
<text text-anchor="middle" x="12.9988" y="-155.5893" font-family="Times,serif" font-size="9.00" fill="#000000">E0</text>
</g>
<!-- E1 -->
<g id="node2" class="node">
<title>E1</title>
<polygon fill="#d3d3d3" stroke="#000000" points="69.9963,-166.7893 44.0012,-166.7893 44.0012,-149.7893 69.9963,-149.7893 69.9963,-166.7893"/>
<text text-anchor="middle" x="56.9988" y="-155.5893" font-family="Times,serif" font-size="9.00" fill="#000000">E1</text>
</g>
<!-- E0&#45;&gt;E1 -->
<!-- E2 -->
<g id="node3" class="node">
<title>E2</title>
<polygon fill="#d3d3d3" stroke="#000000" points="113.9963,-166.7893 88.0012,-166.7893 88.0012,-149.7893 113.9963,-149.7893 113.9963,-166.7893"/>
<text text-anchor="middle" x="100.9988" y="-155.5893" font-family="Times,serif" font-size="9.00" fill="#000000">E2</text>
</g>
<!-- E1&#45;&gt;E2 -->
<!-- 0 -->
<g id="node10" class="node">
<title>0</title>
<ellipse fill="#add8e6" stroke="#000000" cx="120.9988" cy="-14.853" rx="14.4914" ry="14.4914"/>
<text text-anchor="middle" x="120.9988" y="-12.153" font-family="Times,serif" font-size="9.00" fill="#000000">0</text>
</g>
<!-- E1&#45;&gt;0 -->
<g id="edge25" class="edge">
<title>E1&#45;&gt;0</title>
<path fill="none" stroke="#ff0000" stroke-width=".4627" d="M60.3228,-149.5059C66.6546,-132.9381 81.0603,-96.014 94.9988,-65.7061 99.4409,-56.0471 104.7228,-45.5587 109.3619,-36.6299"/>
<polygon fill="#ff0000" stroke="#ff0000" stroke-width=".4627" points="112.5187,-38.1465 114.0733,-27.6664 106.3225,-34.8896 112.5187,-38.1465"/>
</g>
<!-- S -->
<g id="node13" class="node">
<title>S</title>
<ellipse fill="#add8e6" stroke="#000000" cx="333.9988" cy="-14.853" rx="14.7075" ry="14.7075"/>
<text text-anchor="middle" x="333.9988" y="-12.153" font-family="Times,serif" font-size="9.00" fill="#000000">S</text>
</g>
<!-- E1&#45;&gt;S -->
<g id="edge13" class="edge">
<title>E1&#45;&gt;S</title>
<path fill="none" stroke="#ff0000" stroke-width=".5248" d="M70.3587,-152.6657C73.179,-151.6095 76.1609,-150.5878 78.9988,-149.7893 165.0983,-125.5639 203.8919,-165.3198 276.9988,-113.7893 290.7194,-104.1181 311.2335,-63.9408 323.5469,-37.8544"/>
<polygon fill="#ff0000" stroke="#ff0000" stroke-width=".5248" points="326.7891,-39.1827 327.8334,-28.6394 320.4422,-36.2303 326.7891,-39.1827"/>
</g>
<!-- E3 -->
<g id="node4" class="node">
<title>E3</title>
<polygon fill="#d3d3d3" stroke="#000000" points="157.9963,-166.7893 132.0012,-166.7893 132.0012,-149.7893 157.9963,-149.7893 157.9963,-166.7893"/>
<text text-anchor="middle" x="144.9988" y="-155.5893" font-family="Times,serif" font-size="9.00" fill="#000000">E3</text>
</g>
<!-- E2&#45;&gt;E3 -->
<!-- E2&#45;&gt;0 -->
<g id="edge24" class="edge">
<title>E2&#45;&gt;0</title>
<path fill="none" stroke="#00ff00" stroke-width=".2895" d="M100.0952,-149.5121C98.6101,-132.9546 96.3464,-96.047 101.9988,-65.7061 103.7605,-56.2496 107.1374,-46.2505 110.5617,-37.6444"/>
<polygon fill="#00ff00" stroke="#00ff00" stroke-width=".2895" points="113.8428,-38.8714 114.5093,-28.2976 107.3943,-36.1479 113.8428,-38.8714"/>
</g>
<!-- E2&#45;&gt;S -->
<g id="edge20" class="edge">
<title>E2&#45;&gt;S</title>
<path fill="none" stroke="#ff0000" stroke-width=".3014" d="M114.3652,-152.6884C117.185,-151.6306 120.165,-150.6025 122.9988,-149.7893 204.3529,-126.4448 248.7382,-172.1897 309.9988,-113.7893 329.7878,-94.9243 334.4246,-62.7344 334.9954,-40.2106"/>
<polygon fill="#ff0000" stroke="#ff0000" stroke-width=".3014" points="338.4953,-40.0314 334.9975,-30.0307 331.4953,-40.0299 338.4953,-40.0314"/>
</g>
<!-- E4 -->
<g id="node5" class="node">
<title>E4</title>
<polygon fill="#d3d3d3" stroke="#000000" points="201.9963,-166.7893 176.0012,-166.7893 176.0012,-149.7893 201.9963,-149.7893 201.9963,-166.7893"/>
<text text-anchor="middle" x="188.9988" y="-155.5893" font-family="Times,serif" font-size="9.00" fill="#000000">E4</text>
</g>
<!-- E3&#45;&gt;E4 -->
<!-- 1 -->
<g id="node11" class="node">
<title>1</title>
<ellipse fill="#add8e6" stroke="#000000" cx="177.9988" cy="-14.853" rx="14.4914" ry="14.4914"/>
<text text-anchor="middle" x="177.9988" y="-12.153" font-family="Times,serif" font-size="9.00" fill="#000000">1</text>
</g>
<!-- E3&#45;&gt;1 -->
<g id="edge19" class="edge">
<title>E3&#45;&gt;1</title>
<path fill="none" stroke="#ff0000" stroke-width=".3815" d="M146.9643,-149.7463C151.876,-128.3972 164.8305,-72.0896 172.3589,-39.3672"/>
<polygon fill="#ff0000" stroke="#ff0000" stroke-width=".3815" points="175.8532,-39.789 174.6845,-29.2589 169.0314,-38.2195 175.8532,-39.789"/>
</g>
<!-- E3&#45;&gt;S -->
<g id="edge17" class="edge">
<title>E3&#45;&gt;S</title>
<path fill="none" stroke="#ff0000" stroke-width=".6236" d="M158.3691,-152.7019C161.1886,-151.6431 164.1675,-150.6112 166.9988,-149.7893 245.7675,-126.9245 295.9652,-177.1914 347.9988,-113.7893 365.5591,-92.3924 355.7901,-59.2326 345.9381,-37.2858"/>
<polygon fill="#ff0000" stroke="#ff0000" stroke-width=".6236" points="348.9946,-35.5659 341.5035,-28.0737 342.6874,-38.6022 348.9946,-35.5659"/>
</g>
<!-- E5 -->
<g id="node6" class="node">
<title>E5</title>
<polygon fill="#d3d3d3" stroke="#000000" points="245.9963,-166.7893 220.0012,-166.7893 220.0012,-149.7893 245.9963,-149.7893 245.9963,-166.7893"/>
<text text-anchor="middle" x="232.9988" y="-155.5893" font-family="Times,serif" font-size="9.00" fill="#000000">E5</text>
</g>
<!-- E4&#45;&gt;E5 -->
<!-- E4&#45;&gt;S -->
<g id="edge18" class="edge">
<title>E4&#45;&gt;S</title>
<path fill="none" stroke="#ff0000" stroke-width=".2943" d="M202.3733,-152.7163C205.1925,-151.6564 208.1702,-150.6205 210.9988,-149.7893 287.1844,-127.4034 335.8247,-175.3356 385.9988,-113.7893 399.5019,-97.2256 394.2868,-85.4038 385.9988,-65.7061 379.6768,-50.681 366.5077,-37.8779 355.0048,-28.8766"/>
<polygon fill="#ff0000" stroke="#ff0000" stroke-width=".2943" points="356.8063,-25.8573 346.6741,-22.7605 352.6636,-31.4999 356.8063,-25.8573"/>
</g>
<!-- E6 -->
<g id="node7" class="node">
<title>E6</title>
<polygon fill="#d3d3d3" stroke="#000000" points="289.9963,-166.7893 264.0012,-166.7893 264.0012,-149.7893 289.9963,-149.7893 289.9963,-166.7893"/>
<text text-anchor="middle" x="276.9988" y="-155.5893" font-family="Times,serif" font-size="9.00" fill="#000000">E6</text>
</g>
<!-- E5&#45;&gt;E6 -->
<!-- E5&#45;&gt;0 -->
<g id="edge12" class="edge">
<title>E5&#45;&gt;0</title>
<path fill="none" stroke="#ff0000" stroke-width="1.4122" d="M226.3281,-149.7463C208.8515,-127.3644 161.3731,-66.5597 136.5665,-34.7904"/>
<polygon fill="#ff0000" stroke="#ff0000" stroke-width="1.4122" points="139.1279,-32.3836 130.2148,-26.6558 133.6106,-36.6917 139.1279,-32.3836"/>
</g>
<!-- E7 -->
<g id="node8" class="node">
<title>E7</title>
<polygon fill="#d3d3d3" stroke="#000000" points="402.9963,-166.7893 377.0012,-166.7893 377.0012,-149.7893 402.9963,-149.7893 402.9963,-166.7893"/>
<text text-anchor="middle" x="389.9988" y="-155.5893" font-family="Times,serif" font-size="9.00" fill="#000000">E7</text>
</g>
<!-- E6&#45;&gt;E7 -->
<!-- 2 -->
<g id="node12" class="node">
<title>2</title>
<ellipse fill="#add8e6" stroke="#000000" cx="224.9988" cy="-14.853" rx="14.4914" ry="14.4914"/>
<text text-anchor="middle" x="224.9988" y="-12.153" font-family="Times,serif" font-size="9.00" fill="#000000">2</text>
</g>
<!-- E6&#45;&gt;2 -->
<g id="edge15" class="edge">
<title>E6&#45;&gt;2</title>
<path fill="none" stroke="#00ff00" stroke-width=".6821" d="M263.9597,-151.4377C246.4264,-141.9206 216.774,-124.6485 210.9988,-113.7893 198.2586,-89.8338 206.3118,-58.2197 214.506,-37.2472"/>
<polygon fill="#00ff00" stroke="#00ff00" stroke-width=".6821" points="217.7925,-38.4611 218.4495,-27.8867 211.3416,-35.7434 217.7925,-38.4611"/>
</g>
<!-- E6&#45;&gt;S -->
<g id="edge16" class="edge">
<title>E6&#45;&gt;S</title>
<path fill="none" stroke="#00ff00" stroke-width=".3582" d="M290.2374,-156.3079C323.2454,-151.0699 407.7113,-135.7373 423.9988,-113.7893 436.734,-96.6282 434.7698,-84.1635 423.9988,-65.7061 410.0066,-41.7287 380.0635,-28.1607 358.5549,-21.1768"/>
<polygon fill="#00ff00" stroke="#00ff00" stroke-width=".3582" points="359.3638,-17.7658 348.7805,-18.2605 357.3624,-24.4736 359.3638,-17.7658"/>
</g>
<!-- 5489 -->
<g id="node14" class="node">
<title>5489</title>
<ellipse fill="#ffffff" stroke="#000000" cx="243.9988" cy="-89.7477" rx="24.0833" ry="24.0833"/>
<text text-anchor="middle" x="243.9988" y="-87.0477" font-family="Times,serif" font-size="9.00" fill="#000000">5489</text>
</g>
<!-- E6&#45;&gt;5489 -->
<g id="edge21" class="edge">
<title>E6&#45;&gt;5489</title>
<path fill="none" stroke="#ff0000" stroke-width=".1214" d="M272.8193,-149.6085C269.278,-142.2531 263.9775,-131.2439 258.8842,-120.6651"/>
<polygon fill="#ff0000" stroke="#ff0000" stroke-width=".1214" points="262.0026,-119.0737 254.5111,-111.5819 255.6956,-122.1103 262.0026,-119.0737"/>
</g>
<!-- E8 -->
<g id="node9" class="node">
<title>E8</title>
<polygon fill="#d3d3d3" stroke="#000000" points="480.9963,-166.7893 455.0012,-166.7893 455.0012,-149.7893 480.9963,-149.7893 480.9963,-166.7893"/>
<text text-anchor="middle" x="467.9988" y="-155.5893" font-family="Times,serif" font-size="9.00" fill="#000000">E8</text>
</g>
<!-- E7&#45;&gt;E8 -->
<!-- E8&#45;&gt;1 -->
<g id="edge14" class="edge">
<title>E8&#45;&gt;1</title>
<path fill="none" stroke="#ff0000" stroke-width="1.7097" d="M454.5765,-151.7613C423.4103,-136.6082 343.7117,-97.8859 276.9988,-65.7061 243.6962,-49.6422 234.4318,-47.4602 201.9988,-29.7061 201.1714,-29.2532 200.3327,-28.7844 199.4891,-28.3046"/>
<polygon fill="#ff0000" stroke="#ff0000" stroke-width="1.7097" points="200.9346,-25.0914 190.5538,-22.9723 197.3474,-31.1024 200.9346,-25.0914"/>
</g>
<!-- 0&#45;&gt;1 -->
<!-- 1&#45;&gt;2 -->
<!-- 2&#45;&gt;S -->
<!-- 5489&#45;&gt;1 -->
<g id="edge23" class="edge">
<title>5489&#45;&gt;1</title>
<path fill="none" stroke="#00ff00" stroke-width=".1697" d="M228.022,-71.6178C217.9528,-60.1915 204.9716,-45.461 194.7566,-33.8693"/>
<polygon fill="#00ff00" stroke="#00ff00" stroke-width=".1697" points="197.126,-31.2642 187.8886,-26.0757 191.8742,-35.8922 197.126,-31.2642"/>
</g>
<!-- 5489&#45;&gt;S -->
<g id="edge22" class="edge">
<title>5489&#45;&gt;S</title>
<path fill="none" stroke="#00ff00" stroke-width=".2031" d="M262.6468,-74.2295C277.8517,-61.5766 299.254,-43.7664 314.6462,-30.9575"/>
<polygon fill="#00ff00" stroke="#00ff00" stroke-width=".2031" points="317.0538,-33.5074 322.5016,-24.4205 312.5762,-28.1268 317.0538,-33.5074"/>
</g>
</g>
</svg>
