<?xml version="1.0" encoding="UTF-8" standalone="no"?>
<!DOCTYPE svg PUBLIC "-//W3C//DTD SVG 1.1//EN"
 "http://www.w3.org/Graphics/SVG/1.1/DTD/svg11.dtd">
<!-- Generated by graphviz version 2.40.1 (20161225.0304)
 -->
<!-- Title: %3 Pages: 1 -->
<svg width="400pt" height="175pt"
 viewBox="0.00 0.00 400.04 174.79" xmlns="http://www.w3.org/2000/svg" xmlns:xlink="http://www.w3.org/1999/xlink">
<g id="graph0" class="graph" transform="scale(1 1) rotate(0) translate(4 170.7893)">
<title>%3</title>
<polygon fill="#ffffff" stroke="transparent" points="-4,4 -4,-170.7893 396.0404,-170.7893 396.0404,4 -4,4"/>
<!-- E0 -->
<g id="node1" class="node">
<title>E0</title>
<polygon fill="#d3d3d3" stroke="#000000" points="39.0392,-166.7893 13.0441,-166.7893 13.0441,-149.7893 39.0392,-149.7893 39.0392,-166.7893"/>
<text text-anchor="middle" x="26.0416" y="-155.5893" font-family="Times,serif" font-size="9.00" fill="#000000">E0</text>
</g>
<!-- E1 -->
<g id="node2" class="node">
<title>E1</title>
<polygon fill="#d3d3d3" stroke="#000000" points="84.0392,-166.7893 58.0441,-166.7893 58.0441,-149.7893 84.0392,-149.7893 84.0392,-166.7893"/>
<text text-anchor="middle" x="71.0416" y="-155.5893" font-family="Times,serif" font-size="9.00" fill="#000000">E1</text>
</g>
<!-- E0&#45;&gt;E1 -->
<!-- 5519 -->
<g id="node14" class="node">
<title>5519</title>
<ellipse fill="none" stroke="#000000" cx="24.0416" cy="-89.7477" rx="24.0833" ry="24.0833"/>
<text text-anchor="middle" x="24.0416" y="-87.0477" font-family="Times,serif" font-size="9.00" fill="#000000">5519</text>
</g>
<!-- E0&#45;&gt;5519 -->
<g id="edge20" class="edge">
<title>E0&#45;&gt;5519</title>
<path fill="none" stroke="#00ff00" stroke-width=".1446" d="M25.7883,-149.6085C25.5969,-143.0479 25.3206,-133.5804 25.0441,-124.1041"/>
<polygon fill="#00ff00" stroke="#00ff00" stroke-width=".1446" points="28.5383,-123.8487 24.748,-113.9551 21.5412,-124.053 28.5383,-123.8487"/>
</g>
<!-- E2 -->
<g id="node3" class="node">
<title>E2</title>
<polygon fill="#d3d3d3" stroke="#000000" points="128.0392,-166.7893 102.0441,-166.7893 102.0441,-149.7893 128.0392,-149.7893 128.0392,-166.7893"/>
<text text-anchor="middle" x="115.0416" y="-155.5893" font-family="Times,serif" font-size="9.00" fill="#000000">E2</text>
</g>
<!-- E1&#45;&gt;E2 -->
<!-- S -->
<g id="node13" class="node">
<title>S</title>
<ellipse fill="#add8e6" stroke="#000000" cx="266.0416" cy="-14.853" rx="14.7075" ry="14.7075"/>
<text text-anchor="middle" x="266.0416" y="-12.153" font-family="Times,serif" font-size="9.00" fill="#000000">S</text>
</g>
<!-- E1&#45;&gt;S -->
<g id="edge12" class="edge">
<title>E1&#45;&gt;S</title>
<path fill="none" stroke="#00ff00" stroke-width=".9033" d="M82.6558,-149.7463C114.7384,-126.1473 204.8914,-59.8333 245.6178,-29.8762"/>
<polygon fill="#00ff00" stroke="#00ff00" stroke-width=".9033" points="247.7603,-32.6452 253.7419,-23.9004 243.6125,-27.0064 247.7603,-32.6452"/>
</g>
<!-- E3 -->
<g id="node4" class="node">
<title>E3</title>
<polygon fill="#d3d3d3" stroke="#000000" points="172.0392,-166.7893 146.0441,-166.7893 146.0441,-149.7893 172.0392,-149.7893 172.0392,-166.7893"/>
<text text-anchor="middle" x="159.0416" y="-155.5893" font-family="Times,serif" font-size="9.00" fill="#000000">E3</text>
</g>
<!-- E2&#45;&gt;E3 -->
<!-- 1 -->
<g id="node11" class="node">
<title>1</title>
<ellipse fill="#add8e6" stroke="#000000" cx="168.0416" cy="-14.853" rx="14.4914" ry="14.4914"/>
<text text-anchor="middle" x="168.0416" y="-12.153" font-family="Times,serif" font-size="9.00" fill="#000000">1</text>
</g>
<!-- E2&#45;&gt;1 -->
<g id="edge15" class="edge">
<title>E2&#45;&gt;1</title>
<path fill="none" stroke="#00ff00" stroke-width=".7928" d="M116.3363,-149.6033C119.0132,-132.8898 125.941,-95.2919 138.0416,-65.7061 142.304,-55.2846 148.4318,-44.4439 154.0395,-35.4625"/>
<polygon fill="#00ff00" stroke="#00ff00" stroke-width=".7928" points="157.1039,-37.1692 159.595,-26.8714 151.2258,-33.3681 157.1039,-37.1692"/>
</g>
<!-- E4 -->
<g id="node5" class="node">
<title>E4</title>
<polygon fill="#d3d3d3" stroke="#000000" points="216.0392,-166.7893 190.0441,-166.7893 190.0441,-149.7893 216.0392,-149.7893 216.0392,-166.7893"/>
<text text-anchor="middle" x="203.0416" y="-155.5893" font-family="Times,serif" font-size="9.00" fill="#000000">E4</text>
</g>
<!-- E3&#45;&gt;E4 -->
<!-- E3&#45;&gt;S -->
<g id="edge13" class="edge">
<title>E3&#45;&gt;S</title>
<path fill="none" stroke="#00ff00" stroke-width=".7504" d="M172.1785,-152.8253C193.1391,-143.8584 232.739,-125.8173 242.0416,-113.7893 258.5071,-92.5 263.8761,-61.5327 265.5237,-39.9331"/>
<polygon fill="#00ff00" stroke="#00ff00" stroke-width=".7504" points="269.0221,-40.0562 266.0757,-29.8793 262.0326,-39.6724 269.0221,-40.0562"/>
</g>
<!-- E5 -->
<g id="node6" class="node">
<title>E5</title>
<polygon fill="#d3d3d3" stroke="#000000" points="260.0392,-166.7893 234.0441,-166.7893 234.0441,-149.7893 260.0392,-149.7893 260.0392,-166.7893"/>
<text text-anchor="middle" x="247.0416" y="-155.5893" font-family="Times,serif" font-size="9.00" fill="#000000">E5</text>
</g>
<!-- E4&#45;&gt;E5 -->
<!-- 0 -->
<g id="node10" class="node">
<title>0</title>
<ellipse fill="#add8e6" stroke="#000000" cx="116.0416" cy="-14.853" rx="14.4914" ry="14.4914"/>
<text text-anchor="middle" x="116.0416" y="-12.153" font-family="Times,serif" font-size="9.00" fill="#000000">0</text>
</g>
<!-- E4&#45;&gt;0 -->
<g id="edge16" class="edge">
<title>E4&#45;&gt;0</title>
<path fill="none" stroke="#ff0000" stroke-width=".8317" d="M192.7735,-149.5841C183.3303,-141.1691 169.4127,-127.684 160.0416,-113.7893 143.946,-89.9239 131.3629,-59.2102 123.8492,-38.3799"/>
<polygon fill="#ff0000" stroke="#ff0000" stroke-width=".8317" points="127.0864,-37.034 120.4824,-28.7491 120.4785,-39.344 127.0864,-37.034"/>
</g>
<!-- E4&#45;&gt;S -->
<g id="edge17" class="edge">
<title>E4&#45;&gt;S</title>
<path fill="none" stroke="#00ff00" stroke-width=".3235" d="M216.2032,-152.6289C236.2697,-143.6986 272.9419,-126.0925 280.0416,-113.7893 293.5284,-90.418 285.4573,-58.9221 277.0466,-37.8029"/>
<polygon fill="#00ff00" stroke="#00ff00" stroke-width=".3235" points="280.148,-36.1551 272.9834,-28.35 273.717,-38.9194 280.148,-36.1551"/>
</g>
<!-- E6 -->
<g id="node7" class="node">
<title>E6</title>
<polygon fill="#d3d3d3" stroke="#000000" points="304.0392,-166.7893 278.0441,-166.7893 278.0441,-149.7893 304.0392,-149.7893 304.0392,-166.7893"/>
<text text-anchor="middle" x="291.0416" y="-155.5893" font-family="Times,serif" font-size="9.00" fill="#000000">E6</text>
</g>
<!-- E5&#45;&gt;E6 -->
<!-- E5&#45;&gt;1 -->
<g id="edge21" class="edge">
<title>E5&#45;&gt;1</title>
<path fill="none" stroke="#00ff00" stroke-width=".3058" d="M233.7814,-151.8108C215.1784,-142.4338 182.8381,-124.9797 176.0416,-113.7893 162.406,-91.3383 162.1721,-60.5469 164.2148,-39.3069"/>
<polygon fill="#00ff00" stroke="#00ff00" stroke-width=".3058" points="167.7153,-39.511 165.4316,-29.1652 160.7652,-38.677 167.7153,-39.511"/>
</g>
<!-- E7 -->
<g id="node8" class="node">
<title>E7</title>
<polygon fill="#d3d3d3" stroke="#000000" points="348.0392,-166.7893 322.0441,-166.7893 322.0441,-149.7893 348.0392,-149.7893 348.0392,-166.7893"/>
<text text-anchor="middle" x="335.0416" y="-155.5893" font-family="Times,serif" font-size="9.00" fill="#000000">E7</text>
</g>
<!-- E6&#45;&gt;E7 -->
<!-- E6&#45;&gt;1 -->
<g id="edge19" class="edge">
<title>E6&#45;&gt;1</title>
<path fill="none" stroke="#ff0000" stroke-width=".5829" d="M283.7158,-149.7463C264.3458,-127.158 211.4169,-65.4351 184.3912,-33.919"/>
<polygon fill="#ff0000" stroke="#ff0000" stroke-width=".5829" points="186.9754,-31.556 177.8089,-26.2432 181.6616,-36.1127 186.9754,-31.556"/>
</g>
<!-- E6&#45;&gt;S -->
<g id="edge14" class="edge">
<title>E6&#45;&gt;S</title>
<path fill="none" stroke="#ff0000" stroke-width=".6805" d="M298.192,-149.7635C304.8128,-141.2678 314.1964,-127.5395 318.0416,-113.7893 323.797,-93.2086 326.3297,-85.4038 318.0416,-65.7061 311.7197,-50.681 298.5506,-37.8779 287.0476,-28.8766"/>
<polygon fill="#ff0000" stroke="#ff0000" stroke-width=".6805" points="288.8491,-25.8573 278.717,-22.7605 284.7065,-31.4999 288.8491,-25.8573"/>
</g>
<!-- E8 -->
<g id="node9" class="node">
<title>E8</title>
<polygon fill="#d3d3d3" stroke="#000000" points="392.0392,-166.7893 366.0441,-166.7893 366.0441,-149.7893 392.0392,-149.7893 392.0392,-166.7893"/>
<text text-anchor="middle" x="379.0416" y="-155.5893" font-family="Times,serif" font-size="9.00" fill="#000000">E8</text>
</g>
<!-- E7&#45;&gt;E8 -->
<!-- E8&#45;&gt;1 -->
<g id="edge18" class="edge">
<title>E8&#45;&gt;1</title>
<path fill="none" stroke="#ff0000" stroke-width=".2701" d="M367.1398,-149.7035C344.135,-133.1613 291.8781,-95.8435 247.0416,-65.7061 227.5776,-52.6231 205.0571,-38.1947 189.0533,-28.0592"/>
<polygon fill="#ff0000" stroke="#ff0000" stroke-width=".2701" points="190.78,-25.0102 180.456,-22.6303 187.0425,-30.9289 190.78,-25.0102"/>
</g>
<!-- 0&#45;&gt;1 -->
<!-- 2 -->
<g id="node12" class="node">
<title>2</title>
<ellipse fill="#add8e6" stroke="#000000" cx="218.0416" cy="-14.853" rx="14.4914" ry="14.4914"/>
<text text-anchor="middle" x="218.0416" y="-12.153" font-family="Times,serif" font-size="9.00" fill="#000000">2</text>
</g>
<!-- 1&#45;&gt;2 -->
<!-- 2&#45;&gt;S -->
</g>
</svg>
