<?xml version="1.0" encoding="UTF-8" standalone="no"?>
<!DOCTYPE svg PUBLIC "-//W3C//DTD SVG 1.1//EN"
 "http://www.w3.org/Graphics/SVG/1.1/DTD/svg11.dtd">
<!-- Generated by graphviz version 2.40.1 (20161225.0304)
 -->
<!-- Title: %3 Pages: 1 -->
<svg width="398pt" height="175pt"
 viewBox="0.00 0.00 397.72 174.79" xmlns="http://www.w3.org/2000/svg" xmlns:xlink="http://www.w3.org/1999/xlink">
<g id="graph0" class="graph" transform="scale(1 1) rotate(0) translate(4 170.7893)">
<title>%3</title>
<polygon fill="#ffffff" stroke="transparent" points="-4,4 -4,-170.7893 393.7217,-170.7893 393.7217,4 -4,4"/>
<!-- E0 -->
<g id="node1" class="node">
<title>E0</title>
<polygon fill="#d3d3d3" stroke="#000000" points="33.7204,-166.7893 7.7253,-166.7893 7.7253,-149.7893 33.7204,-149.7893 33.7204,-166.7893"/>
<text text-anchor="middle" x="20.7229" y="-155.5893" font-family="Times,serif" font-size="9.00" fill="#000000">E0</text>
</g>
<!-- E1 -->
<g id="node2" class="node">
<title>E1</title>
<polygon fill="#d3d3d3" stroke="#000000" points="77.7204,-166.7893 51.7253,-166.7893 51.7253,-149.7893 77.7204,-149.7893 77.7204,-166.7893"/>
<text text-anchor="middle" x="64.7229" y="-155.5893" font-family="Times,serif" font-size="9.00" fill="#000000">E1</text>
</g>
<!-- E0&#45;&gt;E1 -->
<!-- 2 -->
<g id="node12" class="node">
<title>2</title>
<ellipse fill="#87cefa" stroke="#000000" cx="193.7229" cy="-14.853" rx="14.4914" ry="14.4914"/>
<text text-anchor="middle" x="193.7229" y="-12.153" font-family="Times,serif" font-size="9.00" fill="#000000">2</text>
</g>
<!-- E0&#45;&gt;2 -->
<g id="edge21" class="edge">
<title>E0&#45;&gt;2</title>
<path fill="none" stroke="#00ff00" stroke-width=".1147" d="M16.0652,-149.7709C7.055,-132.0092 -10.1971,-90.606 9.7229,-65.7061 55.2562,-8.7894 102.2451,-57.2658 169.7229,-29.7061 170.5961,-29.3494 171.4737,-28.9624 172.3501,-28.5517"/>
<polygon fill="#00ff00" stroke="#00ff00" stroke-width=".1147" points="174.3711,-31.4342 181.4385,-23.5409 170.9914,-25.3041 174.3711,-31.4342"/>
</g>
<!-- 4374 -->
<g id="node15" class="node">
<title>4374</title>
<ellipse fill="#add8e6" stroke="#000000" cx="42.7229" cy="-89.7477" rx="24.0833" ry="24.0833"/>
<text text-anchor="middle" x="42.7229" y="-91.5477" font-family="Times,serif" font-size="9.00" fill="#000000">4374</text>
<text text-anchor="middle" x="42.7229" y="-82.5477" font-family="Times,serif" font-size="9.00" fill="#000000">sigm</text>
</g>
<!-- E0&#45;&gt;4374 -->
<g id="edge20" class="edge">
<title>E0&#45;&gt;4374</title>
<path fill="none" stroke="#ff0000" stroke-width=".421" d="M23.5092,-149.6085C25.7292,-142.6921 28.9861,-132.5451 32.19,-122.5631"/>
<polygon fill="#ff0000" stroke="#ff0000" stroke-width=".421" points="35.6123,-123.353 35.336,-112.7618 28.9472,-121.2136 35.6123,-123.353"/>
</g>
<!-- E2 -->
<g id="node3" class="node">
<title>E2</title>
<polygon fill="#d3d3d3" stroke="#000000" points="121.7204,-166.7893 95.7253,-166.7893 95.7253,-149.7893 121.7204,-149.7893 121.7204,-166.7893"/>
<text text-anchor="middle" x="108.7229" y="-155.5893" font-family="Times,serif" font-size="9.00" fill="#000000">E2</text>
</g>
<!-- E1&#45;&gt;E2 -->
<!-- E3 -->
<g id="node4" class="node">
<title>E3</title>
<polygon fill="#d3d3d3" stroke="#000000" points="169.7204,-166.7893 143.7253,-166.7893 143.7253,-149.7893 169.7204,-149.7893 169.7204,-166.7893"/>
<text text-anchor="middle" x="156.7229" y="-155.5893" font-family="Times,serif" font-size="9.00" fill="#000000">E3</text>
</g>
<!-- E2&#45;&gt;E3 -->
<!-- 0 -->
<g id="node10" class="node">
<title>0</title>
<ellipse fill="#87cefa" stroke="#000000" cx="99.7229" cy="-14.853" rx="14.4914" ry="14.4914"/>
<text text-anchor="middle" x="99.7229" y="-12.153" font-family="Times,serif" font-size="9.00" fill="#000000">0</text>
</g>
<!-- E2&#45;&gt;0 -->
<g id="edge19" class="edge">
<title>E2&#45;&gt;0</title>
<path fill="none" stroke="#00ff00" stroke-width=".1742" d="M95.3706,-152.7406C68.9303,-141.6915 12.2305,-117.6658 9.7229,-113.7893 -1.8844,-95.846 -1.0481,-84.1635 9.7229,-65.7061 23.7928,-41.5955 53.9913,-28.0102 75.5245,-21.061"/>
<polygon fill="#00ff00" stroke="#00ff00" stroke-width=".1742" points="76.6979,-24.3638 85.2905,-18.1656 74.7081,-17.6525 76.6979,-24.3638"/>
</g>
<!-- 5385 -->
<g id="node14" class="node">
<title>5385</title>
<ellipse fill="#add8e6" stroke="#000000" cx="108.7229" cy="-89.7477" rx="24.0833" ry="24.0833"/>
<text text-anchor="middle" x="108.7229" y="-91.5477" font-family="Times,serif" font-size="9.00" fill="#000000">5385</text>
<text text-anchor="middle" x="108.7229" y="-82.5477" font-family="Times,serif" font-size="9.00" fill="#000000">sigm</text>
</g>
<!-- E2&#45;&gt;5385 -->
<g id="edge23" class="edge">
<title>E2&#45;&gt;5385</title>
<path fill="none" stroke="#00ff00" stroke-width=".479" d="M108.7229,-149.6085C108.7229,-143.0479 108.7229,-133.5804 108.7229,-124.1041"/>
<polygon fill="#00ff00" stroke="#00ff00" stroke-width=".479" points="112.223,-123.9551 108.7229,-113.9551 105.223,-123.9552 112.223,-123.9551"/>
</g>
<!-- E4 -->
<g id="node5" class="node">
<title>E4</title>
<polygon fill="#d3d3d3" stroke="#000000" points="213.7204,-166.7893 187.7253,-166.7893 187.7253,-149.7893 213.7204,-149.7893 213.7204,-166.7893"/>
<text text-anchor="middle" x="200.7229" y="-155.5893" font-family="Times,serif" font-size="9.00" fill="#000000">E4</text>
</g>
<!-- E3&#45;&gt;E4 -->
<!-- E3&#45;&gt;2 -->
<g id="edge18" class="edge">
<title>E3&#45;&gt;2</title>
<path fill="none" stroke="#00ff00" stroke-width=".3108" d="M158.9266,-149.7463C164.4337,-128.3972 178.9585,-72.0896 187.3993,-39.3672"/>
<polygon fill="#00ff00" stroke="#00ff00" stroke-width=".3108" points="190.8981,-39.8161 190.0068,-29.2589 184.1199,-38.0676 190.8981,-39.8161"/>
</g>
<!-- S -->
<g id="node13" class="node">
<title>S</title>
<ellipse fill="#87cefa" stroke="#000000" cx="293.7229" cy="-14.853" rx="14.7075" ry="14.7075"/>
<text text-anchor="middle" x="293.7229" y="-12.153" font-family="Times,serif" font-size="9.00" fill="#000000">S</text>
</g>
<!-- E3&#45;&gt;S -->
<g id="edge15" class="edge">
<title>E3&#45;&gt;S</title>
<path fill="none" stroke="#ff0000" stroke-width="1.1801" d="M164.8826,-149.7463C186.5631,-127.0473 245.9894,-64.829 275.953,-33.4577"/>
<polygon fill="#ff0000" stroke="#ff0000" stroke-width="1.1801" points="278.8561,-35.4857 283.232,-25.8368 273.794,-30.6508 278.8561,-35.4857"/>
</g>
<!-- E5 -->
<g id="node6" class="node">
<title>E5</title>
<polygon fill="#d3d3d3" stroke="#000000" points="257.7204,-166.7893 231.7253,-166.7893 231.7253,-149.7893 257.7204,-149.7893 257.7204,-166.7893"/>
<text text-anchor="middle" x="244.7229" y="-155.5893" font-family="Times,serif" font-size="9.00" fill="#000000">E5</text>
</g>
<!-- E4&#45;&gt;E5 -->
<!-- E4&#45;&gt;S -->
<g id="edge17" class="edge">
<title>E4&#45;&gt;S</title>
<path fill="none" stroke="#ff0000" stroke-width="1.2264" d="M213.9997,-152.4651C237.4741,-142.0407 284.2665,-120.6427 288.7229,-113.7893 303.0795,-91.7109 302.05,-60.6464 298.9043,-39.2456"/>
<polygon fill="#ff0000" stroke="#ff0000" stroke-width="1.2264" points="302.3406,-38.5762 297.1928,-29.3161 295.4424,-39.7653 302.3406,-38.5762"/>
</g>
<!-- E6 -->
<g id="node7" class="node">
<title>E6</title>
<polygon fill="#d3d3d3" stroke="#000000" points="301.7204,-166.7893 275.7253,-166.7893 275.7253,-149.7893 301.7204,-149.7893 301.7204,-166.7893"/>
<text text-anchor="middle" x="288.7229" y="-155.5893" font-family="Times,serif" font-size="9.00" fill="#000000">E6</text>
</g>
<!-- E5&#45;&gt;E6 -->
<!-- 1 -->
<g id="node11" class="node">
<title>1</title>
<ellipse fill="#87cefa" stroke="#000000" cx="146.7229" cy="-14.853" rx="14.4914" ry="14.4914"/>
<text text-anchor="middle" x="146.7229" y="-12.153" font-family="Times,serif" font-size="9.00" fill="#000000">1</text>
</g>
<!-- E5&#45;&gt;1 -->
<g id="edge13" class="edge">
<title>E5&#45;&gt;1</title>
<path fill="none" stroke="#ff0000" stroke-width="3.9614" d="M238.886,-149.7463C223.7344,-127.5698 182.8108,-67.6726 160.9473,-35.6724"/>
<polygon fill="#ff0000" stroke="#ff0000" stroke-width="3.9614" points="163.6043,-33.357 155.073,-27.0746 157.8245,-37.3059 163.6043,-33.357"/>
</g>
<!-- E5&#45;&gt;5385 -->
<g id="edge25" class="edge">
<title>E5&#45;&gt;5385</title>
<path fill="none" stroke="#ff0000" stroke-width=".1174" d="M231.6826,-151.7173C210.6571,-141.1208 168.6935,-119.9719 139.6794,-105.3493"/>
<polygon fill="#ff0000" stroke="#ff0000" stroke-width=".1174" points="140.8905,-102.0403 130.3852,-100.6652 137.74,-108.2913 140.8905,-102.0403"/>
</g>
<!-- E7 -->
<g id="node8" class="node">
<title>E7</title>
<polygon fill="#d3d3d3" stroke="#000000" points="345.7204,-166.7893 319.7253,-166.7893 319.7253,-149.7893 345.7204,-149.7893 345.7204,-166.7893"/>
<text text-anchor="middle" x="332.7229" y="-155.5893" font-family="Times,serif" font-size="9.00" fill="#000000">E7</text>
</g>
<!-- E6&#45;&gt;E7 -->
<!-- E6&#45;&gt;0 -->
<g id="edge12" class="edge">
<title>E6&#45;&gt;0</title>
<path fill="none" stroke="#00ff00" stroke-width="1.7252" d="M277.4661,-149.7463C246.4359,-126.1968 159.3576,-60.1112 119.7672,-30.0651"/>
<polygon fill="#00ff00" stroke="#00ff00" stroke-width="1.7252" points="121.7258,-27.1578 111.6442,-23.9004 117.494,-32.7338 121.7258,-27.1578"/>
</g>
<!-- E6&#45;&gt;S -->
<g id="edge16" class="edge">
<title>E6&#45;&gt;S</title>
<path fill="none" stroke="#00ff00" stroke-width="1.6386" d="M299.4348,-149.7161C308.6569,-141.5898 321.3084,-128.4678 326.7229,-113.7893 334.1187,-93.7396 332.7889,-86.1974 326.7229,-65.7061 323.362,-54.3529 316.5821,-43.1574 310.0372,-34.1735"/>
<polygon fill="#00ff00" stroke="#00ff00" stroke-width="1.6386" points="312.5978,-31.7637 303.706,-26.0029 307.0645,-36.0513 312.5978,-31.7637"/>
</g>
<!-- E8 -->
<g id="node9" class="node">
<title>E8</title>
<polygon fill="#d3d3d3" stroke="#000000" points="389.7204,-166.7893 363.7253,-166.7893 363.7253,-149.7893 389.7204,-149.7893 389.7204,-166.7893"/>
<text text-anchor="middle" x="376.7229" y="-155.5893" font-family="Times,serif" font-size="9.00" fill="#000000">E8</text>
</g>
<!-- E7&#45;&gt;E8 -->
<!-- E7&#45;&gt;S -->
<g id="edge14" class="edge">
<title>E7&#45;&gt;S</title>
<path fill="none" stroke="#ff0000" stroke-width=".3875" d="M336.263,-149.7466C342.6633,-132.9636 354.456,-94.7927 342.7229,-65.7061 336.9324,-51.3514 324.9359,-38.7872 314.2629,-29.7386"/>
<polygon fill="#ff0000" stroke="#ff0000" stroke-width=".3875" points="316.1354,-26.7558 306.1309,-23.2685 311.7771,-32.2335 316.1354,-26.7558"/>
</g>
<!-- E8&#45;&gt;1 -->
<g id="edge22" class="edge">
<title>E8&#45;&gt;1</title>
<path fill="none" stroke="#ff0000" stroke-width=".3505" d="M363.6981,-150.1666C325.647,-126.4366 214.4068,-57.0632 167.7265,-27.9517"/>
<polygon fill="#ff0000" stroke="#ff0000" stroke-width=".3505" points="169.3802,-24.8581 159.0429,-22.5363 165.676,-30.7978 169.3802,-24.8581"/>
</g>
<!-- 0&#45;&gt;1 -->
<!-- 1&#45;&gt;2 -->
<!-- 2&#45;&gt;S -->
<!-- 5385&#45;&gt;2 -->
<g id="edge24" class="edge">
<title>5385&#45;&gt;2</title>
<path fill="none" stroke="#00ff00" stroke-width="4.2914" d="M127.1666,-73.4967C141.3706,-60.9814 160.9198,-43.7563 175.1548,-31.2136"/>
<polygon fill="#00ff00" stroke="#00ff00" stroke-width="4.2914" points="177.8209,-33.8692 182.8415,-24.4408 172.8561,-28.2344 177.8209,-33.8692"/>
</g>
<!-- 4374&#45;&gt;S -->
<g id="edge26" class="edge">
<title>4374&#45;&gt;S</title>
<path fill="none" stroke="#00ff00" stroke-width=".1451" d="M61.4598,-74.1311C65.9265,-70.9789 70.8248,-67.9489 75.7229,-65.7061 93.3261,-57.6457 215.6136,-31.3213 268.9459,-20.0503"/>
<polygon fill="#00ff00" stroke="#00ff00" stroke-width=".1451" points="269.8668,-23.4332 278.93,-17.946 268.4232,-16.5837 269.8668,-23.4332"/>
</g>
</g>
</svg>
