<?xml version="1.0" encoding="UTF-8" standalone="no"?>
<!DOCTYPE svg PUBLIC "-//W3C//DTD SVG 1.1//EN"
 "http://www.w3.org/Graphics/SVG/1.1/DTD/svg11.dtd">
<!-- Generated by graphviz version 2.40.1 (20161225.0304)
 -->
<!-- Title: %3 Pages: 1 -->
<svg width="437pt" height="175pt"
 viewBox="0.00 0.00 436.96 174.79" xmlns="http://www.w3.org/2000/svg" xmlns:xlink="http://www.w3.org/1999/xlink">
<g id="graph0" class="graph" transform="scale(1 1) rotate(0) translate(4 170.7893)">
<title>%3</title>
<polygon fill="#ffffff" stroke="transparent" points="-4,4 -4,-170.7893 432.956,-170.7893 432.956,4 -4,4"/>
<!-- E0 -->
<g id="node1" class="node">
<title>E0</title>
<polygon fill="#d3d3d3" stroke="#000000" points="51.9548,-166.7893 25.9597,-166.7893 25.9597,-149.7893 51.9548,-149.7893 51.9548,-166.7893"/>
<text text-anchor="middle" x="38.9573" y="-155.5893" font-family="Times,serif" font-size="9.00" fill="#000000">E0</text>
</g>
<!-- E1 -->
<g id="node2" class="node">
<title>E1</title>
<polygon fill="#d3d3d3" stroke="#000000" points="116.9548,-166.7893 90.9597,-166.7893 90.9597,-149.7893 116.9548,-149.7893 116.9548,-166.7893"/>
<text text-anchor="middle" x="103.9573" y="-155.5893" font-family="Times,serif" font-size="9.00" fill="#000000">E1</text>
</g>
<!-- E0&#45;&gt;E1 -->
<!-- 0 -->
<g id="node10" class="node">
<title>0</title>
<ellipse fill="#87cefa" stroke="#000000" cx="60.9573" cy="-14.853" rx="14.4914" ry="14.4914"/>
<text text-anchor="middle" x="60.9573" y="-12.153" font-family="Times,serif" font-size="9.00" fill="#000000">0</text>
</g>
<!-- E0&#45;&gt;0 -->
<g id="edge23" class="edge">
<title>E0&#45;&gt;0</title>
<path fill="none" stroke="#00ff00" stroke-width=".5587" d="M29.9393,-149.7455C21.8882,-141.4445 10.6635,-128.0365 5.9573,-113.7893 -.7457,-93.4974 -2.6058,-85.2858 5.9573,-65.7061 12.8341,-49.982 27.2367,-36.9557 39.5786,-28.0243"/>
<polygon fill="#00ff00" stroke="#00ff00" stroke-width=".5587" points="41.7557,-30.7767 48.064,-22.2646 37.8244,-24.9849 41.7557,-30.7767"/>
</g>
<!-- 1 -->
<g id="node11" class="node">
<title>1</title>
<ellipse fill="#87cefa" stroke="#000000" cx="107.9573" cy="-14.853" rx="14.4914" ry="14.4914"/>
<text text-anchor="middle" x="107.9573" y="-12.153" font-family="Times,serif" font-size="9.00" fill="#000000">1</text>
</g>
<!-- E0&#45;&gt;1 -->
<g id="edge13" class="edge">
<title>E0&#45;&gt;1</title>
<path fill="none" stroke="#ff0000" stroke-width="3.5614" d="M37.2205,-149.775C34.1929,-132.7157 29.5555,-93.5962 43.9573,-65.7061 48.8743,-56.1838 70.2654,-40.1973 86.9809,-28.6882"/>
<polygon fill="#ff0000" stroke="#ff0000" stroke-width="3.5614" points="89.3289,-31.3256 95.6519,-22.8244 85.4075,-25.527 89.3289,-31.3256"/>
</g>
<!-- 2 -->
<g id="node12" class="node">
<title>2</title>
<ellipse fill="#ffa07a" stroke="#000000" cx="154.9573" cy="-14.853" rx="14.4914" ry="14.4914"/>
<text text-anchor="middle" x="154.9573" y="-12.153" font-family="Times,serif" font-size="9.00" fill="#000000">2</text>
</g>
<!-- E0&#45;&gt;2 -->
<g id="edge19" class="edge">
<title>E0&#45;&gt;2</title>
<path fill="none" stroke="#ff0000" stroke-width=".3584" d="M45.8662,-149.7463C64.0561,-127.2541 113.6262,-65.9597 139.2115,-34.323"/>
<polygon fill="#ff0000" stroke="#ff0000" stroke-width=".3584" points="142.179,-36.2196 145.7458,-26.2432 136.7361,-31.8178 142.179,-36.2196"/>
</g>
<!-- E2 -->
<g id="node3" class="node">
<title>E2</title>
<polygon fill="#d3d3d3" stroke="#000000" points="163.9548,-166.7893 137.9597,-166.7893 137.9597,-149.7893 163.9548,-149.7893 163.9548,-166.7893"/>
<text text-anchor="middle" x="150.9573" y="-155.5893" font-family="Times,serif" font-size="9.00" fill="#000000">E2</text>
</g>
<!-- E1&#45;&gt;E2 -->
<!-- E3 -->
<g id="node4" class="node">
<title>E3</title>
<polygon fill="#d3d3d3" stroke="#000000" points="208.9548,-166.7893 182.9597,-166.7893 182.9597,-149.7893 208.9548,-149.7893 208.9548,-166.7893"/>
<text text-anchor="middle" x="195.9573" y="-155.5893" font-family="Times,serif" font-size="9.00" fill="#000000">E3</text>
</g>
<!-- E2&#45;&gt;E3 -->
<!-- E2&#45;&gt;2 -->
<g id="edge15" class="edge">
<title>E2&#45;&gt;2</title>
<path fill="none" stroke="#00ff00" stroke-width=".5613" d="M151.1955,-149.7463C151.7878,-128.5056 153.3452,-72.6603 154.2597,-39.8674"/>
<polygon fill="#00ff00" stroke="#00ff00" stroke-width=".5613" points="157.7626,-39.807 154.5429,-29.7133 150.7654,-39.6118 157.7626,-39.807"/>
</g>
<!-- S -->
<g id="node13" class="node">
<title>S</title>
<ellipse fill="#87cefa" stroke="#000000" cx="261.9573" cy="-14.853" rx="14.7075" ry="14.7075"/>
<text text-anchor="middle" x="261.9573" y="-12.153" font-family="Times,serif" font-size="9.00" fill="#000000">S</text>
</g>
<!-- E2&#45;&gt;S -->
<g id="edge24" class="edge">
<title>E2&#45;&gt;S</title>
<path fill="none" stroke="#00ff00" stroke-width=".3752" d="M157.5684,-149.7463C174.8889,-127.3644 221.9434,-66.5597 246.5285,-34.7904"/>
<polygon fill="#00ff00" stroke="#00ff00" stroke-width=".3752" points="249.4714,-36.7064 252.8235,-26.6558 243.9354,-32.4223 249.4714,-36.7064"/>
</g>
<!-- E4 -->
<g id="node5" class="node">
<title>E4</title>
<polygon fill="#d3d3d3" stroke="#000000" points="252.9548,-166.7893 226.9597,-166.7893 226.9597,-149.7893 252.9548,-149.7893 252.9548,-166.7893"/>
<text text-anchor="middle" x="239.9573" y="-155.5893" font-family="Times,serif" font-size="9.00" fill="#000000">E4</text>
</g>
<!-- E3&#45;&gt;E4 -->
<!-- E3&#45;&gt;1 -->
<g id="edge16" class="edge">
<title>E3&#45;&gt;1</title>
<path fill="none" stroke="#00ff00" stroke-width=".5068" d="M190.716,-149.7463C177.1778,-127.6796 140.726,-68.2647 121.023,-36.1497"/>
<polygon fill="#00ff00" stroke="#00ff00" stroke-width=".5068" points="123.9288,-34.1929 115.716,-27.4995 117.9622,-37.8535 123.9288,-34.1929"/>
</g>
<!-- 4070 -->
<g id="node14" class="node">
<title>4070</title>
<ellipse fill="#add8e6" stroke="#000000" cx="261.9573" cy="-89.7477" rx="24.0833" ry="24.0833"/>
<text text-anchor="middle" x="261.9573" y="-91.5477" font-family="Times,serif" font-size="9.00" fill="#000000">4070</text>
<text text-anchor="middle" x="261.9573" y="-82.5477" font-family="Times,serif" font-size="9.00" fill="#000000">sigm</text>
</g>
<!-- E3&#45;&gt;4070 -->
<g id="edge17" class="edge">
<title>E3&#45;&gt;4070</title>
<path fill="none" stroke="#00ff00" stroke-width=".3221" d="M204.3162,-149.6085C212.7614,-140.8381 226.2088,-126.8728 237.9914,-114.6365"/>
<polygon fill="#00ff00" stroke="#00ff00" stroke-width=".3221" points="240.6379,-116.934 245.053,-107.3029 235.5955,-112.0786 240.6379,-116.934"/>
</g>
<!-- E5 -->
<g id="node6" class="node">
<title>E5</title>
<polygon fill="#d3d3d3" stroke="#000000" points="296.9548,-166.7893 270.9597,-166.7893 270.9597,-149.7893 296.9548,-149.7893 296.9548,-166.7893"/>
<text text-anchor="middle" x="283.9573" y="-155.5893" font-family="Times,serif" font-size="9.00" fill="#000000">E5</text>
</g>
<!-- E4&#45;&gt;E5 -->
<!-- E6 -->
<g id="node7" class="node">
<title>E6</title>
<polygon fill="#d3d3d3" stroke="#000000" points="340.9548,-166.7893 314.9597,-166.7893 314.9597,-149.7893 340.9548,-149.7893 340.9548,-166.7893"/>
<text text-anchor="middle" x="327.9573" y="-155.5893" font-family="Times,serif" font-size="9.00" fill="#000000">E6</text>
</g>
<!-- E5&#45;&gt;E6 -->
<!-- E5&#45;&gt;0 -->
<g id="edge14" class="edge">
<title>E5&#45;&gt;0</title>
<path fill="none" stroke="#00ff00" stroke-width=".7733" d="M270.6754,-149.7463C233.306,-125.7098 127.0426,-57.3599 81.7826,-28.2481"/>
<polygon fill="#00ff00" stroke="#00ff00" stroke-width=".7733" points="83.6432,-25.2834 73.3393,-22.8173 79.8564,-31.1707 83.6432,-25.2834"/>
</g>
<!-- 4136 -->
<g id="node15" class="node">
<title>4136</title>
<ellipse fill="#add8e6" stroke="#000000" cx="327.9573" cy="-89.7477" rx="24.0833" ry="24.0833"/>
<text text-anchor="middle" x="327.9573" y="-91.5477" font-family="Times,serif" font-size="9.00" fill="#000000">4136</text>
<text text-anchor="middle" x="327.9573" y="-82.5477" font-family="Times,serif" font-size="9.00" fill="#000000">sigm</text>
</g>
<!-- E5&#45;&gt;4136 -->
<g id="edge22" class="edge">
<title>E5&#45;&gt;4136</title>
<path fill="none" stroke="#ff0000" stroke-width=".468" d="M289.5299,-149.6085C294.5295,-141.8203 302.1588,-129.9356 309.3055,-118.8028"/>
<polygon fill="#ff0000" stroke="#ff0000" stroke-width=".468" points="312.4172,-120.4344 314.874,-110.1283 306.5265,-116.6529 312.4172,-120.4344"/>
</g>
<!-- E7 -->
<g id="node8" class="node">
<title>E7</title>
<polygon fill="#d3d3d3" stroke="#000000" points="384.9548,-166.7893 358.9597,-166.7893 358.9597,-149.7893 384.9548,-149.7893 384.9548,-166.7893"/>
<text text-anchor="middle" x="371.9573" y="-155.5893" font-family="Times,serif" font-size="9.00" fill="#000000">E7</text>
</g>
<!-- E6&#45;&gt;E7 -->
<!-- E6&#45;&gt;4136 -->
<g id="edge20" class="edge">
<title>E6&#45;&gt;4136</title>
<path fill="none" stroke="#00ff00" stroke-width=".184" d="M327.9573,-149.6085C327.9573,-143.0479 327.9573,-133.5804 327.9573,-124.1041"/>
<polygon fill="#00ff00" stroke="#00ff00" stroke-width=".184" points="331.4574,-123.9551 327.9573,-113.9551 324.4574,-123.9552 331.4574,-123.9551"/>
</g>
<!-- E8 -->
<g id="node9" class="node">
<title>E8</title>
<polygon fill="#d3d3d3" stroke="#000000" points="428.9548,-166.7893 402.9597,-166.7893 402.9597,-149.7893 428.9548,-149.7893 428.9548,-166.7893"/>
<text text-anchor="middle" x="415.9573" y="-155.5893" font-family="Times,serif" font-size="9.00" fill="#000000">E8</text>
</g>
<!-- E7&#45;&gt;E8 -->
<!-- E8&#45;&gt;S -->
<g id="edge12" class="edge">
<title>E8&#45;&gt;S</title>
<path fill="none" stroke="#ff0000" stroke-width="2.7518" d="M412.7091,-149.5527C405.7108,-131.7432 387.6529,-90.808 360.9573,-65.7061 339.0833,-45.1381 307.2883,-30.803 285.6756,-22.7122"/>
<polygon fill="#ff0000" stroke="#ff0000" stroke-width="2.7518" points="286.8477,-19.4144 276.2531,-19.3381 284.4877,-26.0046 286.8477,-19.4144"/>
</g>
<!-- 0&#45;&gt;1 -->
<!-- 1&#45;&gt;2 -->
<!-- 2&#45;&gt;S -->
<!-- 4070&#45;&gt;S -->
<g id="edge18" class="edge">
<title>4070&#45;&gt;S</title>
<path fill="none" stroke="#ff0000" stroke-width=".7376" d="M261.9573,-65.6383C261.9573,-57.432 261.9573,-48.2428 261.9573,-39.9602"/>
<polygon fill="#ff0000" stroke="#ff0000" stroke-width=".7376" points="265.4574,-39.7533 261.9573,-29.7534 258.4574,-39.7534 265.4574,-39.7533"/>
</g>
<!-- 4136&#45;&gt;1 -->
<g id="edge25" class="edge">
<title>4136&#45;&gt;1</title>
<path fill="none" stroke="#00ff00" stroke-width=".4982" d="M309.2398,-74.0882C304.7721,-70.9382 299.8685,-67.9199 294.9573,-65.7061 227.3211,-35.2176 200.695,-57.6223 131.9573,-29.7061 131.0833,-29.3512 130.2051,-28.9656 129.3282,-28.5561"/>
<polygon fill="#00ff00" stroke="#00ff00" stroke-width=".4982" points="130.6856,-25.3081 120.2375,-23.5511 127.3095,-31.4401 130.6856,-25.3081"/>
</g>
<!-- 4136&#45;&gt;S -->
<g id="edge21" class="edge">
<title>4136&#45;&gt;S</title>
<path fill="none" stroke="#ff0000" stroke-width=".4449" d="M311.9805,-71.6178C301.9112,-60.1915 288.9301,-45.461 278.7151,-33.8693"/>
<polygon fill="#ff0000" stroke="#ff0000" stroke-width=".4449" points="281.0845,-31.2642 271.847,-26.0757 275.8327,-35.8922 281.0845,-31.2642"/>
</g>
</g>
</svg>
