<?xml version="1.0" encoding="utf-8" standalone="no"?>
<!DOCTYPE svg PUBLIC "-//W3C//DTD SVG 1.1//EN"
  "http://www.w3.org/Graphics/SVG/1.1/DTD/svg11.dtd">
<!-- Created with matplotlib (https://matplotlib.org/) -->
<svg height="345.6pt" version="1.1" viewBox="0 0 460.8 345.6" width="460.8pt" xmlns="http://www.w3.org/2000/svg" xmlns:xlink="http://www.w3.org/1999/xlink">
 <defs>
  <style type="text/css">
*{stroke-linecap:butt;stroke-linejoin:round;}
  </style>
 </defs>
 <g id="figure_1">
  <g id="patch_1">
   <path d="M 0 345.6 
L 460.8 345.6 
L 460.8 0 
L 0 0 
z
" style="fill:#ffffff;"/>
  </g>
  <g id="axes_1">
   <g id="patch_2">
    <path d="M 57.6 307.584 
L 414.72 307.584 
L 414.72 41.472 
L 57.6 41.472 
z
" style="fill:#ffffff;"/>
   </g>
   <g id="matplotlib.axis_1">
    <g id="xtick_1">
     <g id="line2d_1">
      <path clip-path="url(#p5b22afd77d)" d="M 73.832727 307.584 
L 73.832727 41.472 
" style="fill:none;stroke:#b0b0b0;stroke-linecap:square;stroke-width:0.8;"/>
     </g>
     <g id="line2d_2">
      <defs>
       <path d="M 0 0 
L 0 3.5 
" id="m4db2b8e55a" style="stroke:#000000;stroke-width:0.8;"/>
      </defs>
      <g>
       <use style="stroke:#000000;stroke-width:0.8;" x="73.832727" xlink:href="#m4db2b8e55a" y="307.584"/>
      </g>
     </g>
     <g id="text_1">
      <!-- 0 -->
      <defs>
       <path d="M 31.78125 66.40625 
Q 24.171875 66.40625 20.328125 58.90625 
Q 16.5 51.421875 16.5 36.375 
Q 16.5 21.390625 20.328125 13.890625 
Q 24.171875 6.390625 31.78125 6.390625 
Q 39.453125 6.390625 43.28125 13.890625 
Q 47.125 21.390625 47.125 36.375 
Q 47.125 51.421875 43.28125 58.90625 
Q 39.453125 66.40625 31.78125 66.40625 
z
M 31.78125 74.21875 
Q 44.046875 74.21875 50.515625 64.515625 
Q 56.984375 54.828125 56.984375 36.375 
Q 56.984375 17.96875 50.515625 8.265625 
Q 44.046875 -1.421875 31.78125 -1.421875 
Q 19.53125 -1.421875 13.0625 8.265625 
Q 6.59375 17.96875 6.59375 36.375 
Q 6.59375 54.828125 13.0625 64.515625 
Q 19.53125 74.21875 31.78125 74.21875 
z
" id="DejaVuSans-48"/>
      </defs>
      <g transform="translate(70.651477 322.182437)scale(0.1 -0.1)">
       <use xlink:href="#DejaVuSans-48"/>
      </g>
     </g>
    </g>
    <g id="xtick_2">
     <g id="line2d_3">
      <path clip-path="url(#p5b22afd77d)" d="M 128.122785 307.584 
L 128.122785 41.472 
" style="fill:none;stroke:#b0b0b0;stroke-linecap:square;stroke-width:0.8;"/>
     </g>
     <g id="line2d_4">
      <g>
       <use style="stroke:#000000;stroke-width:0.8;" x="128.122785" xlink:href="#m4db2b8e55a" y="307.584"/>
      </g>
     </g>
     <g id="text_2">
      <!-- 50 -->
      <defs>
       <path d="M 10.796875 72.90625 
L 49.515625 72.90625 
L 49.515625 64.59375 
L 19.828125 64.59375 
L 19.828125 46.734375 
Q 21.96875 47.46875 24.109375 47.828125 
Q 26.265625 48.1875 28.421875 48.1875 
Q 40.625 48.1875 47.75 41.5 
Q 54.890625 34.8125 54.890625 23.390625 
Q 54.890625 11.625 47.5625 5.09375 
Q 40.234375 -1.421875 26.90625 -1.421875 
Q 22.3125 -1.421875 17.546875 -0.640625 
Q 12.796875 0.140625 7.71875 1.703125 
L 7.71875 11.625 
Q 12.109375 9.234375 16.796875 8.0625 
Q 21.484375 6.890625 26.703125 6.890625 
Q 35.15625 6.890625 40.078125 11.328125 
Q 45.015625 15.765625 45.015625 23.390625 
Q 45.015625 31 40.078125 35.4375 
Q 35.15625 39.890625 26.703125 39.890625 
Q 22.75 39.890625 18.8125 39.015625 
Q 14.890625 38.140625 10.796875 36.28125 
z
" id="DejaVuSans-53"/>
      </defs>
      <g transform="translate(121.760285 322.182437)scale(0.1 -0.1)">
       <use xlink:href="#DejaVuSans-53"/>
       <use x="63.623047" xlink:href="#DejaVuSans-48"/>
      </g>
     </g>
    </g>
    <g id="xtick_3">
     <g id="line2d_5">
      <path clip-path="url(#p5b22afd77d)" d="M 182.412843 307.584 
L 182.412843 41.472 
" style="fill:none;stroke:#b0b0b0;stroke-linecap:square;stroke-width:0.8;"/>
     </g>
     <g id="line2d_6">
      <g>
       <use style="stroke:#000000;stroke-width:0.8;" x="182.412843" xlink:href="#m4db2b8e55a" y="307.584"/>
      </g>
     </g>
     <g id="text_3">
      <!-- 100 -->
      <defs>
       <path d="M 12.40625 8.296875 
L 28.515625 8.296875 
L 28.515625 63.921875 
L 10.984375 60.40625 
L 10.984375 69.390625 
L 28.421875 72.90625 
L 38.28125 72.90625 
L 38.28125 8.296875 
L 54.390625 8.296875 
L 54.390625 0 
L 12.40625 0 
z
" id="DejaVuSans-49"/>
      </defs>
      <g transform="translate(172.869093 322.182437)scale(0.1 -0.1)">
       <use xlink:href="#DejaVuSans-49"/>
       <use x="63.623047" xlink:href="#DejaVuSans-48"/>
       <use x="127.246094" xlink:href="#DejaVuSans-48"/>
      </g>
     </g>
    </g>
    <g id="xtick_4">
     <g id="line2d_7">
      <path clip-path="url(#p5b22afd77d)" d="M 236.702901 307.584 
L 236.702901 41.472 
" style="fill:none;stroke:#b0b0b0;stroke-linecap:square;stroke-width:0.8;"/>
     </g>
     <g id="line2d_8">
      <g>
       <use style="stroke:#000000;stroke-width:0.8;" x="236.702901" xlink:href="#m4db2b8e55a" y="307.584"/>
      </g>
     </g>
     <g id="text_4">
      <!-- 150 -->
      <g transform="translate(227.159151 322.182437)scale(0.1 -0.1)">
       <use xlink:href="#DejaVuSans-49"/>
       <use x="63.623047" xlink:href="#DejaVuSans-53"/>
       <use x="127.246094" xlink:href="#DejaVuSans-48"/>
      </g>
     </g>
    </g>
    <g id="xtick_5">
     <g id="line2d_9">
      <path clip-path="url(#p5b22afd77d)" d="M 290.992958 307.584 
L 290.992958 41.472 
" style="fill:none;stroke:#b0b0b0;stroke-linecap:square;stroke-width:0.8;"/>
     </g>
     <g id="line2d_10">
      <g>
       <use style="stroke:#000000;stroke-width:0.8;" x="290.992958" xlink:href="#m4db2b8e55a" y="307.584"/>
      </g>
     </g>
     <g id="text_5">
      <!-- 200 -->
      <defs>
       <path d="M 19.1875 8.296875 
L 53.609375 8.296875 
L 53.609375 0 
L 7.328125 0 
L 7.328125 8.296875 
Q 12.9375 14.109375 22.625 23.890625 
Q 32.328125 33.6875 34.8125 36.53125 
Q 39.546875 41.84375 41.421875 45.53125 
Q 43.3125 49.21875 43.3125 52.78125 
Q 43.3125 58.59375 39.234375 62.25 
Q 35.15625 65.921875 28.609375 65.921875 
Q 23.96875 65.921875 18.8125 64.3125 
Q 13.671875 62.703125 7.8125 59.421875 
L 7.8125 69.390625 
Q 13.765625 71.78125 18.9375 73 
Q 24.125 74.21875 28.421875 74.21875 
Q 39.75 74.21875 46.484375 68.546875 
Q 53.21875 62.890625 53.21875 53.421875 
Q 53.21875 48.921875 51.53125 44.890625 
Q 49.859375 40.875 45.40625 35.40625 
Q 44.1875 33.984375 37.640625 27.21875 
Q 31.109375 20.453125 19.1875 8.296875 
z
" id="DejaVuSans-50"/>
      </defs>
      <g transform="translate(281.449208 322.182437)scale(0.1 -0.1)">
       <use xlink:href="#DejaVuSans-50"/>
       <use x="63.623047" xlink:href="#DejaVuSans-48"/>
       <use x="127.246094" xlink:href="#DejaVuSans-48"/>
      </g>
     </g>
    </g>
    <g id="xtick_6">
     <g id="line2d_11">
      <path clip-path="url(#p5b22afd77d)" d="M 345.283016 307.584 
L 345.283016 41.472 
" style="fill:none;stroke:#b0b0b0;stroke-linecap:square;stroke-width:0.8;"/>
     </g>
     <g id="line2d_12">
      <g>
       <use style="stroke:#000000;stroke-width:0.8;" x="345.283016" xlink:href="#m4db2b8e55a" y="307.584"/>
      </g>
     </g>
     <g id="text_6">
      <!-- 250 -->
      <g transform="translate(335.739266 322.182437)scale(0.1 -0.1)">
       <use xlink:href="#DejaVuSans-50"/>
       <use x="63.623047" xlink:href="#DejaVuSans-53"/>
       <use x="127.246094" xlink:href="#DejaVuSans-48"/>
      </g>
     </g>
    </g>
    <g id="xtick_7">
     <g id="line2d_13">
      <path clip-path="url(#p5b22afd77d)" d="M 399.573074 307.584 
L 399.573074 41.472 
" style="fill:none;stroke:#b0b0b0;stroke-linecap:square;stroke-width:0.8;"/>
     </g>
     <g id="line2d_14">
      <g>
       <use style="stroke:#000000;stroke-width:0.8;" x="399.573074" xlink:href="#m4db2b8e55a" y="307.584"/>
      </g>
     </g>
     <g id="text_7">
      <!-- 300 -->
      <defs>
       <path d="M 40.578125 39.3125 
Q 47.65625 37.796875 51.625 33 
Q 55.609375 28.21875 55.609375 21.1875 
Q 55.609375 10.40625 48.1875 4.484375 
Q 40.765625 -1.421875 27.09375 -1.421875 
Q 22.515625 -1.421875 17.65625 -0.515625 
Q 12.796875 0.390625 7.625 2.203125 
L 7.625 11.71875 
Q 11.71875 9.328125 16.59375 8.109375 
Q 21.484375 6.890625 26.8125 6.890625 
Q 36.078125 6.890625 40.9375 10.546875 
Q 45.796875 14.203125 45.796875 21.1875 
Q 45.796875 27.640625 41.28125 31.265625 
Q 36.765625 34.90625 28.71875 34.90625 
L 20.21875 34.90625 
L 20.21875 43.015625 
L 29.109375 43.015625 
Q 36.375 43.015625 40.234375 45.921875 
Q 44.09375 48.828125 44.09375 54.296875 
Q 44.09375 59.90625 40.109375 62.90625 
Q 36.140625 65.921875 28.71875 65.921875 
Q 24.65625 65.921875 20.015625 65.03125 
Q 15.375 64.15625 9.8125 62.3125 
L 9.8125 71.09375 
Q 15.4375 72.65625 20.34375 73.4375 
Q 25.25 74.21875 29.59375 74.21875 
Q 40.828125 74.21875 47.359375 69.109375 
Q 53.90625 64.015625 53.90625 55.328125 
Q 53.90625 49.265625 50.4375 45.09375 
Q 46.96875 40.921875 40.578125 39.3125 
z
" id="DejaVuSans-51"/>
      </defs>
      <g transform="translate(390.029324 322.182437)scale(0.1 -0.1)">
       <use xlink:href="#DejaVuSans-51"/>
       <use x="63.623047" xlink:href="#DejaVuSans-48"/>
       <use x="127.246094" xlink:href="#DejaVuSans-48"/>
      </g>
     </g>
    </g>
    <g id="text_8">
     <!-- Generations -->
     <defs>
      <path d="M 59.515625 10.40625 
L 59.515625 29.984375 
L 43.40625 29.984375 
L 43.40625 38.09375 
L 69.28125 38.09375 
L 69.28125 6.78125 
Q 63.578125 2.734375 56.6875 0.65625 
Q 49.8125 -1.421875 42 -1.421875 
Q 24.90625 -1.421875 15.25 8.5625 
Q 5.609375 18.5625 5.609375 36.375 
Q 5.609375 54.25 15.25 64.234375 
Q 24.90625 74.21875 42 74.21875 
Q 49.125 74.21875 55.546875 72.453125 
Q 61.96875 70.703125 67.390625 67.28125 
L 67.390625 56.78125 
Q 61.921875 61.421875 55.765625 63.765625 
Q 49.609375 66.109375 42.828125 66.109375 
Q 29.4375 66.109375 22.71875 58.640625 
Q 16.015625 51.171875 16.015625 36.375 
Q 16.015625 21.625 22.71875 14.15625 
Q 29.4375 6.6875 42.828125 6.6875 
Q 48.046875 6.6875 52.140625 7.59375 
Q 56.25 8.5 59.515625 10.40625 
z
" id="DejaVuSans-71"/>
      <path d="M 56.203125 29.59375 
L 56.203125 25.203125 
L 14.890625 25.203125 
Q 15.484375 15.921875 20.484375 11.0625 
Q 25.484375 6.203125 34.421875 6.203125 
Q 39.59375 6.203125 44.453125 7.46875 
Q 49.3125 8.734375 54.109375 11.28125 
L 54.109375 2.78125 
Q 49.265625 0.734375 44.1875 -0.34375 
Q 39.109375 -1.421875 33.890625 -1.421875 
Q 20.796875 -1.421875 13.15625 6.1875 
Q 5.515625 13.8125 5.515625 26.8125 
Q 5.515625 40.234375 12.765625 48.109375 
Q 20.015625 56 32.328125 56 
Q 43.359375 56 49.78125 48.890625 
Q 56.203125 41.796875 56.203125 29.59375 
z
M 47.21875 32.234375 
Q 47.125 39.59375 43.09375 43.984375 
Q 39.0625 48.390625 32.421875 48.390625 
Q 24.90625 48.390625 20.390625 44.140625 
Q 15.875 39.890625 15.1875 32.171875 
z
" id="DejaVuSans-101"/>
      <path d="M 54.890625 33.015625 
L 54.890625 0 
L 45.90625 0 
L 45.90625 32.71875 
Q 45.90625 40.484375 42.875 44.328125 
Q 39.84375 48.1875 33.796875 48.1875 
Q 26.515625 48.1875 22.3125 43.546875 
Q 18.109375 38.921875 18.109375 30.90625 
L 18.109375 0 
L 9.078125 0 
L 9.078125 54.6875 
L 18.109375 54.6875 
L 18.109375 46.1875 
Q 21.34375 51.125 25.703125 53.5625 
Q 30.078125 56 35.796875 56 
Q 45.21875 56 50.046875 50.171875 
Q 54.890625 44.34375 54.890625 33.015625 
z
" id="DejaVuSans-110"/>
      <path d="M 41.109375 46.296875 
Q 39.59375 47.171875 37.8125 47.578125 
Q 36.03125 48 33.890625 48 
Q 26.265625 48 22.1875 43.046875 
Q 18.109375 38.09375 18.109375 28.8125 
L 18.109375 0 
L 9.078125 0 
L 9.078125 54.6875 
L 18.109375 54.6875 
L 18.109375 46.1875 
Q 20.953125 51.171875 25.484375 53.578125 
Q 30.03125 56 36.53125 56 
Q 37.453125 56 38.578125 55.875 
Q 39.703125 55.765625 41.0625 55.515625 
z
" id="DejaVuSans-114"/>
      <path d="M 34.28125 27.484375 
Q 23.390625 27.484375 19.1875 25 
Q 14.984375 22.515625 14.984375 16.5 
Q 14.984375 11.71875 18.140625 8.90625 
Q 21.296875 6.109375 26.703125 6.109375 
Q 34.1875 6.109375 38.703125 11.40625 
Q 43.21875 16.703125 43.21875 25.484375 
L 43.21875 27.484375 
z
M 52.203125 31.203125 
L 52.203125 0 
L 43.21875 0 
L 43.21875 8.296875 
Q 40.140625 3.328125 35.546875 0.953125 
Q 30.953125 -1.421875 24.3125 -1.421875 
Q 15.921875 -1.421875 10.953125 3.296875 
Q 6 8.015625 6 15.921875 
Q 6 25.140625 12.171875 29.828125 
Q 18.359375 34.515625 30.609375 34.515625 
L 43.21875 34.515625 
L 43.21875 35.40625 
Q 43.21875 41.609375 39.140625 45 
Q 35.0625 48.390625 27.6875 48.390625 
Q 23 48.390625 18.546875 47.265625 
Q 14.109375 46.140625 10.015625 43.890625 
L 10.015625 52.203125 
Q 14.9375 54.109375 19.578125 55.046875 
Q 24.21875 56 28.609375 56 
Q 40.484375 56 46.34375 49.84375 
Q 52.203125 43.703125 52.203125 31.203125 
z
" id="DejaVuSans-97"/>
      <path d="M 18.3125 70.21875 
L 18.3125 54.6875 
L 36.8125 54.6875 
L 36.8125 47.703125 
L 18.3125 47.703125 
L 18.3125 18.015625 
Q 18.3125 11.328125 20.140625 9.421875 
Q 21.96875 7.515625 27.59375 7.515625 
L 36.8125 7.515625 
L 36.8125 0 
L 27.59375 0 
Q 17.1875 0 13.234375 3.875 
Q 9.28125 7.765625 9.28125 18.015625 
L 9.28125 47.703125 
L 2.6875 47.703125 
L 2.6875 54.6875 
L 9.28125 54.6875 
L 9.28125 70.21875 
z
" id="DejaVuSans-116"/>
      <path d="M 9.421875 54.6875 
L 18.40625 54.6875 
L 18.40625 0 
L 9.421875 0 
z
M 9.421875 75.984375 
L 18.40625 75.984375 
L 18.40625 64.59375 
L 9.421875 64.59375 
z
" id="DejaVuSans-105"/>
      <path d="M 30.609375 48.390625 
Q 23.390625 48.390625 19.1875 42.75 
Q 14.984375 37.109375 14.984375 27.296875 
Q 14.984375 17.484375 19.15625 11.84375 
Q 23.34375 6.203125 30.609375 6.203125 
Q 37.796875 6.203125 41.984375 11.859375 
Q 46.1875 17.53125 46.1875 27.296875 
Q 46.1875 37.015625 41.984375 42.703125 
Q 37.796875 48.390625 30.609375 48.390625 
z
M 30.609375 56 
Q 42.328125 56 49.015625 48.375 
Q 55.71875 40.765625 55.71875 27.296875 
Q 55.71875 13.875 49.015625 6.21875 
Q 42.328125 -1.421875 30.609375 -1.421875 
Q 18.84375 -1.421875 12.171875 6.21875 
Q 5.515625 13.875 5.515625 27.296875 
Q 5.515625 40.765625 12.171875 48.375 
Q 18.84375 56 30.609375 56 
z
" id="DejaVuSans-111"/>
      <path d="M 44.28125 53.078125 
L 44.28125 44.578125 
Q 40.484375 46.53125 36.375 47.5 
Q 32.28125 48.484375 27.875 48.484375 
Q 21.1875 48.484375 17.84375 46.4375 
Q 14.5 44.390625 14.5 40.28125 
Q 14.5 37.15625 16.890625 35.375 
Q 19.28125 33.59375 26.515625 31.984375 
L 29.59375 31.296875 
Q 39.15625 29.25 43.1875 25.515625 
Q 47.21875 21.78125 47.21875 15.09375 
Q 47.21875 7.46875 41.1875 3.015625 
Q 35.15625 -1.421875 24.609375 -1.421875 
Q 20.21875 -1.421875 15.453125 -0.5625 
Q 10.6875 0.296875 5.421875 2 
L 5.421875 11.28125 
Q 10.40625 8.6875 15.234375 7.390625 
Q 20.0625 6.109375 24.8125 6.109375 
Q 31.15625 6.109375 34.5625 8.28125 
Q 37.984375 10.453125 37.984375 14.40625 
Q 37.984375 18.0625 35.515625 20.015625 
Q 33.0625 21.96875 24.703125 23.78125 
L 21.578125 24.515625 
Q 13.234375 26.265625 9.515625 29.90625 
Q 5.8125 33.546875 5.8125 39.890625 
Q 5.8125 47.609375 11.28125 51.796875 
Q 16.75 56 26.8125 56 
Q 31.78125 56 36.171875 55.265625 
Q 40.578125 54.546875 44.28125 53.078125 
z
" id="DejaVuSans-115"/>
     </defs>
     <g transform="translate(205.662344 335.860562)scale(0.1 -0.1)">
      <use xlink:href="#DejaVuSans-71"/>
      <use x="77.490234" xlink:href="#DejaVuSans-101"/>
      <use x="139.013672" xlink:href="#DejaVuSans-110"/>
      <use x="202.392578" xlink:href="#DejaVuSans-101"/>
      <use x="263.916016" xlink:href="#DejaVuSans-114"/>
      <use x="305.029297" xlink:href="#DejaVuSans-97"/>
      <use x="366.308594" xlink:href="#DejaVuSans-116"/>
      <use x="405.517578" xlink:href="#DejaVuSans-105"/>
      <use x="433.300781" xlink:href="#DejaVuSans-111"/>
      <use x="494.482422" xlink:href="#DejaVuSans-110"/>
      <use x="557.861328" xlink:href="#DejaVuSans-115"/>
     </g>
    </g>
   </g>
   <g id="matplotlib.axis_2">
    <g id="ytick_1">
     <g id="line2d_15">
      <path clip-path="url(#p5b22afd77d)" d="M 57.6 289.308486 
L 414.72 289.308486 
" style="fill:none;stroke:#b0b0b0;stroke-linecap:square;stroke-width:0.8;"/>
     </g>
     <g id="line2d_16">
      <defs>
       <path d="M 0 0 
L -3.5 0 
" id="mf28311bb89" style="stroke:#000000;stroke-width:0.8;"/>
      </defs>
      <g>
       <use style="stroke:#000000;stroke-width:0.8;" x="57.6" xlink:href="#mf28311bb89" y="289.308486"/>
      </g>
     </g>
     <g id="text_9">
      <!-- 600 -->
      <defs>
       <path d="M 33.015625 40.375 
Q 26.375 40.375 22.484375 35.828125 
Q 18.609375 31.296875 18.609375 23.390625 
Q 18.609375 15.53125 22.484375 10.953125 
Q 26.375 6.390625 33.015625 6.390625 
Q 39.65625 6.390625 43.53125 10.953125 
Q 47.40625 15.53125 47.40625 23.390625 
Q 47.40625 31.296875 43.53125 35.828125 
Q 39.65625 40.375 33.015625 40.375 
z
M 52.59375 71.296875 
L 52.59375 62.3125 
Q 48.875 64.0625 45.09375 64.984375 
Q 41.3125 65.921875 37.59375 65.921875 
Q 27.828125 65.921875 22.671875 59.328125 
Q 17.53125 52.734375 16.796875 39.40625 
Q 19.671875 43.65625 24.015625 45.921875 
Q 28.375 48.1875 33.59375 48.1875 
Q 44.578125 48.1875 50.953125 41.515625 
Q 57.328125 34.859375 57.328125 23.390625 
Q 57.328125 12.15625 50.6875 5.359375 
Q 44.046875 -1.421875 33.015625 -1.421875 
Q 20.359375 -1.421875 13.671875 8.265625 
Q 6.984375 17.96875 6.984375 36.375 
Q 6.984375 53.65625 15.1875 63.9375 
Q 23.390625 74.21875 37.203125 74.21875 
Q 40.921875 74.21875 44.703125 73.484375 
Q 48.484375 72.75 52.59375 71.296875 
z
" id="DejaVuSans-54"/>
      </defs>
      <g transform="translate(31.5125 293.107705)scale(0.1 -0.1)">
       <use xlink:href="#DejaVuSans-54"/>
       <use x="63.623047" xlink:href="#DejaVuSans-48"/>
       <use x="127.246094" xlink:href="#DejaVuSans-48"/>
      </g>
     </g>
    </g>
    <g id="ytick_2">
     <g id="line2d_17">
      <path clip-path="url(#p5b22afd77d)" d="M 57.6 253.722154 
L 414.72 253.722154 
" style="fill:none;stroke:#b0b0b0;stroke-linecap:square;stroke-width:0.8;"/>
     </g>
     <g id="line2d_18">
      <g>
       <use style="stroke:#000000;stroke-width:0.8;" x="57.6" xlink:href="#mf28311bb89" y="253.722154"/>
      </g>
     </g>
     <g id="text_10">
      <!-- 800 -->
      <defs>
       <path d="M 31.78125 34.625 
Q 24.75 34.625 20.71875 30.859375 
Q 16.703125 27.09375 16.703125 20.515625 
Q 16.703125 13.921875 20.71875 10.15625 
Q 24.75 6.390625 31.78125 6.390625 
Q 38.8125 6.390625 42.859375 10.171875 
Q 46.921875 13.96875 46.921875 20.515625 
Q 46.921875 27.09375 42.890625 30.859375 
Q 38.875 34.625 31.78125 34.625 
z
M 21.921875 38.8125 
Q 15.578125 40.375 12.03125 44.71875 
Q 8.5 49.078125 8.5 55.328125 
Q 8.5 64.0625 14.71875 69.140625 
Q 20.953125 74.21875 31.78125 74.21875 
Q 42.671875 74.21875 48.875 69.140625 
Q 55.078125 64.0625 55.078125 55.328125 
Q 55.078125 49.078125 51.53125 44.71875 
Q 48 40.375 41.703125 38.8125 
Q 48.828125 37.15625 52.796875 32.3125 
Q 56.78125 27.484375 56.78125 20.515625 
Q 56.78125 9.90625 50.3125 4.234375 
Q 43.84375 -1.421875 31.78125 -1.421875 
Q 19.734375 -1.421875 13.25 4.234375 
Q 6.78125 9.90625 6.78125 20.515625 
Q 6.78125 27.484375 10.78125 32.3125 
Q 14.796875 37.15625 21.921875 38.8125 
z
M 18.3125 54.390625 
Q 18.3125 48.734375 21.84375 45.5625 
Q 25.390625 42.390625 31.78125 42.390625 
Q 38.140625 42.390625 41.71875 45.5625 
Q 45.3125 48.734375 45.3125 54.390625 
Q 45.3125 60.0625 41.71875 63.234375 
Q 38.140625 66.40625 31.78125 66.40625 
Q 25.390625 66.40625 21.84375 63.234375 
Q 18.3125 60.0625 18.3125 54.390625 
z
" id="DejaVuSans-56"/>
      </defs>
      <g transform="translate(31.5125 257.521373)scale(0.1 -0.1)">
       <use xlink:href="#DejaVuSans-56"/>
       <use x="63.623047" xlink:href="#DejaVuSans-48"/>
       <use x="127.246094" xlink:href="#DejaVuSans-48"/>
      </g>
     </g>
    </g>
    <g id="ytick_3">
     <g id="line2d_19">
      <path clip-path="url(#p5b22afd77d)" d="M 57.6 218.135823 
L 414.72 218.135823 
" style="fill:none;stroke:#b0b0b0;stroke-linecap:square;stroke-width:0.8;"/>
     </g>
     <g id="line2d_20">
      <g>
       <use style="stroke:#000000;stroke-width:0.8;" x="57.6" xlink:href="#mf28311bb89" y="218.135823"/>
      </g>
     </g>
     <g id="text_11">
      <!-- 1000 -->
      <g transform="translate(25.15 221.935041)scale(0.1 -0.1)">
       <use xlink:href="#DejaVuSans-49"/>
       <use x="63.623047" xlink:href="#DejaVuSans-48"/>
       <use x="127.246094" xlink:href="#DejaVuSans-48"/>
       <use x="190.869141" xlink:href="#DejaVuSans-48"/>
      </g>
     </g>
    </g>
    <g id="ytick_4">
     <g id="line2d_21">
      <path clip-path="url(#p5b22afd77d)" d="M 57.6 182.549491 
L 414.72 182.549491 
" style="fill:none;stroke:#b0b0b0;stroke-linecap:square;stroke-width:0.8;"/>
     </g>
     <g id="line2d_22">
      <g>
       <use style="stroke:#000000;stroke-width:0.8;" x="57.6" xlink:href="#mf28311bb89" y="182.549491"/>
      </g>
     </g>
     <g id="text_12">
      <!-- 1200 -->
      <g transform="translate(25.15 186.34871)scale(0.1 -0.1)">
       <use xlink:href="#DejaVuSans-49"/>
       <use x="63.623047" xlink:href="#DejaVuSans-50"/>
       <use x="127.246094" xlink:href="#DejaVuSans-48"/>
       <use x="190.869141" xlink:href="#DejaVuSans-48"/>
      </g>
     </g>
    </g>
    <g id="ytick_5">
     <g id="line2d_23">
      <path clip-path="url(#p5b22afd77d)" d="M 57.6 146.963159 
L 414.72 146.963159 
" style="fill:none;stroke:#b0b0b0;stroke-linecap:square;stroke-width:0.8;"/>
     </g>
     <g id="line2d_24">
      <g>
       <use style="stroke:#000000;stroke-width:0.8;" x="57.6" xlink:href="#mf28311bb89" y="146.963159"/>
      </g>
     </g>
     <g id="text_13">
      <!-- 1400 -->
      <defs>
       <path d="M 37.796875 64.3125 
L 12.890625 25.390625 
L 37.796875 25.390625 
z
M 35.203125 72.90625 
L 47.609375 72.90625 
L 47.609375 25.390625 
L 58.015625 25.390625 
L 58.015625 17.1875 
L 47.609375 17.1875 
L 47.609375 0 
L 37.796875 0 
L 37.796875 17.1875 
L 4.890625 17.1875 
L 4.890625 26.703125 
z
" id="DejaVuSans-52"/>
      </defs>
      <g transform="translate(25.15 150.762378)scale(0.1 -0.1)">
       <use xlink:href="#DejaVuSans-49"/>
       <use x="63.623047" xlink:href="#DejaVuSans-52"/>
       <use x="127.246094" xlink:href="#DejaVuSans-48"/>
       <use x="190.869141" xlink:href="#DejaVuSans-48"/>
      </g>
     </g>
    </g>
    <g id="ytick_6">
     <g id="line2d_25">
      <path clip-path="url(#p5b22afd77d)" d="M 57.6 111.376827 
L 414.72 111.376827 
" style="fill:none;stroke:#b0b0b0;stroke-linecap:square;stroke-width:0.8;"/>
     </g>
     <g id="line2d_26">
      <g>
       <use style="stroke:#000000;stroke-width:0.8;" x="57.6" xlink:href="#mf28311bb89" y="111.376827"/>
      </g>
     </g>
     <g id="text_14">
      <!-- 1600 -->
      <g transform="translate(25.15 115.176046)scale(0.1 -0.1)">
       <use xlink:href="#DejaVuSans-49"/>
       <use x="63.623047" xlink:href="#DejaVuSans-54"/>
       <use x="127.246094" xlink:href="#DejaVuSans-48"/>
       <use x="190.869141" xlink:href="#DejaVuSans-48"/>
      </g>
     </g>
    </g>
    <g id="ytick_7">
     <g id="line2d_27">
      <path clip-path="url(#p5b22afd77d)" d="M 57.6 75.790496 
L 414.72 75.790496 
" style="fill:none;stroke:#b0b0b0;stroke-linecap:square;stroke-width:0.8;"/>
     </g>
     <g id="line2d_28">
      <g>
       <use style="stroke:#000000;stroke-width:0.8;" x="57.6" xlink:href="#mf28311bb89" y="75.790496"/>
      </g>
     </g>
     <g id="text_15">
      <!-- 1800 -->
      <g transform="translate(25.15 79.589715)scale(0.1 -0.1)">
       <use xlink:href="#DejaVuSans-49"/>
       <use x="63.623047" xlink:href="#DejaVuSans-56"/>
       <use x="127.246094" xlink:href="#DejaVuSans-48"/>
       <use x="190.869141" xlink:href="#DejaVuSans-48"/>
      </g>
     </g>
    </g>
    <g id="text_16">
     <!-- Fitness -->
     <defs>
      <path d="M 9.8125 72.90625 
L 51.703125 72.90625 
L 51.703125 64.59375 
L 19.671875 64.59375 
L 19.671875 43.109375 
L 48.578125 43.109375 
L 48.578125 34.8125 
L 19.671875 34.8125 
L 19.671875 0 
L 9.8125 0 
z
" id="DejaVuSans-70"/>
     </defs>
     <g transform="translate(19.070312 192.202219)rotate(-90)scale(0.1 -0.1)">
      <use xlink:href="#DejaVuSans-70"/>
      <use x="57.410156" xlink:href="#DejaVuSans-105"/>
      <use x="85.193359" xlink:href="#DejaVuSans-116"/>
      <use x="124.402344" xlink:href="#DejaVuSans-110"/>
      <use x="187.78125" xlink:href="#DejaVuSans-101"/>
      <use x="249.304688" xlink:href="#DejaVuSans-115"/>
      <use x="301.404297" xlink:href="#DejaVuSans-115"/>
     </g>
    </g>
   </g>
   <g id="line2d_29">
    <path clip-path="url(#p5b22afd77d)" d="M 73.832727 289.317719 
L 74.918528 226.880927 
L 76.00433 195.200513 
L 77.090131 226.215617 
L 78.175932 230.875371 
L 79.261733 209.289474 
L 80.347534 194.610613 
L 81.433335 221.076143 
L 82.519137 202.813391 
L 83.604938 216.068283 
L 84.690739 218.686735 
L 85.77654 210.915893 
L 86.862341 213.006028 
L 87.948142 203.056132 
L 90.119745 212.287076 
L 91.205546 219.220172 
L 92.291347 205.377091 
L 93.377148 216.077794 
L 94.462949 184.451596 
L 95.54875 185.278742 
L 96.634552 190.939604 
L 97.720353 185.445961 
L 98.806154 195.005905 
L 99.891955 185.318422 
L 100.977756 199.533095 
L 102.063557 188.444872 
L 103.149358 179.588374 
L 104.23516 188.203763 
L 105.320961 185.038204 
L 106.406762 180.229378 
L 107.492563 188.747252 
L 108.578364 168.944128 
L 109.664165 173.997455 
L 110.749967 161.542408 
L 111.835768 182.105929 
L 112.921569 186.964128 
L 114.00737 176.95275 
L 115.093171 156.115203 
L 116.178972 160.4718 
L 117.264773 157.939304 
L 118.350575 159.107625 
L 119.436376 168.924709 
L 120.522177 163.942952 
L 121.607978 173.852659 
L 122.693779 151.78105 
L 123.77958 174.038909 
L 124.865382 172.115966 
L 125.951183 156.585194 
L 127.036984 146.488644 
L 128.122785 143.030465 
L 129.208586 153.347458 
L 130.294387 145.382214 
L 131.380189 152.296645 
L 132.46599 149.890291 
L 133.551791 156.245182 
L 134.637592 172.193144 
L 135.723393 136.285438 
L 136.809194 174.947014 
L 137.894995 157.462395 
L 138.980797 148.958368 
L 140.066598 135.108313 
L 141.152399 135.995163 
L 142.2382 161.948345 
L 143.324001 157.962075 
L 144.409802 134.643222 
L 145.495604 149.982318 
L 146.581405 151.186226 
L 147.667206 142.240428 
L 148.753007 139.387083 
L 149.838808 170.726554 
L 150.924609 152.825787 
L 152.01041 169.083029 
L 153.096212 141.707853 
L 154.182013 161.077106 
L 155.267814 163.764702 
L 156.353615 181.846121 
L 157.439416 156.496556 
L 158.525217 198.181147 
L 159.611019 170.660832 
L 160.69682 153.772214 
L 161.782621 162.366803 
L 162.868422 145.012729 
L 163.954223 154.430895 
L 165.040024 147.041191 
L 166.125825 160.260024 
L 167.211627 149.898655 
L 168.297428 136.515136 
L 169.383229 149.244659 
L 170.46903 163.571796 
L 171.554831 149.459034 
L 172.640632 144.470852 
L 173.726434 165.522611 
L 174.812235 141.139785 
L 175.898036 136.801679 
L 176.983837 148.151713 
L 178.069638 123.094018 
L 179.155439 128.538103 
L 180.24124 127.958435 
L 181.327042 142.333563 
L 182.412843 144.414241 
L 183.498644 119.865999 
L 184.584445 136.166091 
L 185.670246 115.496697 
L 186.756047 119.208243 
L 187.841849 117.08017 
L 188.92765 99.816883 
L 190.013451 130.069814 
L 191.099252 120.346422 
L 192.185053 115.395378 
L 193.270854 120.266692 
L 194.356656 138.283733 
L 195.442457 121.924038 
L 196.528258 129.459331 
L 197.614059 122.909894 
L 198.69986 134.726072 
L 200.871462 108.568899 
L 201.957264 137.680728 
L 203.043065 139.290476 
L 204.128866 156.224512 
L 205.214667 144.871128 
L 206.300468 117.656863 
L 207.386269 121.965671 
L 208.472071 138.455468 
L 209.557872 134.332868 
L 210.643673 143.003173 
L 211.729474 133.050725 
L 212.815275 147.900695 
L 213.901076 122.030753 
L 214.986877 136.016649 
L 216.072679 104.533788 
L 217.15848 128.9038 
L 218.244281 147.48757 
L 219.330082 134.945405 
L 220.415883 117.804991 
L 221.501684 108.087471 
L 222.587486 109.774938 
L 223.673287 108.078233 
L 224.759088 132.621289 
L 225.844889 115.47907 
L 226.93069 121.269194 
L 228.016491 153.745188 
L 229.102292 142.540156 
L 230.188094 121.68313 
L 231.273895 115.667151 
L 232.359696 125.265965 
L 233.445497 123.725712 
L 234.531298 104.81413 
L 235.617099 137.433699 
L 236.702901 134.297315 
L 237.788702 145.052362 
L 238.874503 146.463156 
L 239.960304 152.106653 
L 242.131906 128.267969 
L 243.217708 150.271887 
L 244.303509 106.219543 
L 245.38931 152.033678 
L 246.475111 135.305556 
L 247.560912 127.160651 
L 248.646713 139.591831 
L 249.732514 134.801041 
L 250.818316 161.457991 
L 251.904117 120.33615 
L 252.989918 139.154302 
L 254.075719 127.858495 
L 255.16152 122.453192 
L 256.247321 101.951599 
L 257.333123 131.910208 
L 258.418924 115.469148 
L 259.504725 118.281252 
L 260.590526 108.04038 
L 261.676327 102.54069 
L 262.762128 110.011546 
L 263.847929 127.519708 
L 264.933731 124.434396 
L 266.019532 123.968267 
L 267.105333 132.324378 
L 268.191134 128.401651 
L 269.276935 131.887195 
L 270.362736 113.339921 
L 271.448538 111.920461 
L 272.534339 108.411679 
L 273.62014 133.630068 
L 274.705941 106.993096 
L 275.791742 102.575673 
L 276.877543 103.765728 
L 277.963344 121.078815 
L 279.049146 118.339606 
L 280.134947 126.733269 
L 281.220748 133.762039 
L 282.306549 129.299646 
L 283.39235 167.290293 
L 284.478151 136.054449 
L 285.563953 119.556103 
L 286.649754 116.016758 
L 287.735555 108.640072 
L 288.821356 121.939772 
L 289.907157 141.84689 
L 290.992958 140.23923 
L 292.07876 146.678286 
L 293.164561 128.573275 
L 294.250362 152.38945 
L 295.336163 126.005855 
L 296.421964 143.637983 
L 297.507765 118.27359 
L 298.593566 125.715042 
L 299.679368 115.779083 
L 300.765169 128.847204 
L 301.85097 130.337763 
L 302.936771 139.811694 
L 304.022572 126.64667 
L 305.108373 139.060274 
L 306.194175 118.960945 
L 307.279976 117.399682 
L 308.365777 119.018922 
L 309.451578 129.763648 
L 310.537379 110.019331 
L 311.62318 104.351468 
L 312.708981 113.764092 
L 313.794783 121.988512 
L 314.880584 113.258855 
L 315.966385 99.099918 
L 317.052186 105.512218 
L 318.137987 129.296999 
L 319.223788 108.98029 
L 320.30959 117.783085 
L 321.395391 120.296899 
L 322.481192 131.069699 
L 323.566993 125.43494 
L 324.652794 113.359576 
L 325.738595 116.720393 
L 326.824396 122.077798 
L 327.910198 123.224045 
L 328.995999 111.884286 
L 330.0818 116.901209 
L 331.167601 124.292567 
L 332.253402 110.727512 
L 333.339203 124.466171 
L 334.425005 131.072661 
L 335.510806 124.720814 
L 336.596607 123.263128 
L 337.682408 151.99568 
L 338.768209 118.742521 
L 339.85401 100.500124 
L 340.939811 134.56691 
L 342.025613 130.12693 
L 343.111414 98.667177 
L 344.197215 105.825394 
L 345.283016 127.083252 
L 346.368817 103.58712 
L 347.454618 120.021067 
L 348.54042 126.099576 
L 349.626221 156.858912 
L 350.712022 123.259556 
L 351.797823 154.973208 
L 352.883624 156.181198 
L 353.969425 136.786712 
L 355.055227 156.419319 
L 356.141028 134.183218 
L 357.226829 164.066945 
L 358.31263 167.962944 
L 359.398431 158.581692 
L 360.484232 143.359317 
L 361.570033 162.415123 
L 362.655835 150.630935 
L 363.741636 173.116534 
L 364.827437 120.729533 
L 365.913238 166.659501 
L 366.999039 174.905722 
L 368.08484 145.422343 
L 369.170642 140.629951 
L 371.342244 154.509406 
L 372.428045 162.363866 
L 373.513846 174.891123 
L 375.685448 165.890957 
L 376.77125 147.475094 
L 377.857051 152.073792 
L 378.942852 155.863662 
L 380.028653 136.207642 
L 381.114454 147.170691 
L 382.200255 143.372516 
L 383.286057 173.846719 
L 384.371858 143.113516 
L 385.457659 140.877871 
L 386.54346 111.592093 
L 388.715062 142.472257 
L 389.800863 163.660614 
L 390.886665 135.645793 
L 391.972466 134.646411 
L 393.058267 135.268654 
L 394.144068 122.957943 
L 395.229869 169.685095 
L 396.31567 151.522093 
L 397.401472 151.703318 
L 398.487273 131.204438 
L 398.487273 131.204438 
" style="fill:none;stroke:#0000ff;stroke-linecap:square;stroke-width:1.5;"/>
   </g>
   <g id="line2d_30">
    <path clip-path="url(#p5b22afd77d)" d="M 73.832727 295.488 
L 74.918528 235.747984 
L 76.00433 207.842141 
L 77.090131 241.315695 
L 78.175932 241.3979 
L 79.261733 233.148605 
L 80.347534 207.960672 
L 81.433335 237.015604 
L 82.519137 225.079878 
L 83.604938 240.445867 
L 84.690739 247.164137 
L 85.77654 228.673004 
L 86.862341 233.477306 
L 87.948142 220.817428 
L 89.033943 226.073937 
L 90.119745 242.834612 
L 91.205546 246.888676 
L 92.291347 234.865281 
L 93.377148 248.109957 
L 94.462949 210.947292 
L 95.54875 202.992255 
L 96.634552 220.347983 
L 97.720353 203.632836 
L 98.806154 223.900828 
L 99.891955 215.349187 
L 100.977756 223.959249 
L 102.063557 208.712519 
L 104.23516 216.254078 
L 105.320961 219.761865 
L 106.406762 220.321688 
L 107.492563 223.225662 
L 108.578364 184.120392 
L 109.664165 196.252984 
L 110.749967 188.085494 
L 111.835768 223.947007 
L 112.921569 229.322705 
L 114.00737 208.885807 
L 115.093171 180.516664 
L 116.178972 194.043113 
L 117.264773 185.487961 
L 118.350575 179.42326 
L 119.436376 203.92805 
L 120.522177 195.709866 
L 121.607978 201.114024 
L 122.693779 171.999933 
L 123.77958 192.449424 
L 124.865382 187.602473 
L 125.951183 189.526377 
L 127.036984 169.108354 
L 128.122785 160.721778 
L 129.208586 177.787744 
L 130.294387 178.007935 
L 131.380189 205.051641 
L 132.46599 177.291698 
L 133.551791 182.428537 
L 134.637592 192.229664 
L 135.723393 178.938049 
L 136.809194 211.96844 
L 137.894995 169.255348 
L 138.980797 166.209146 
L 140.066598 168.718674 
L 141.152399 182.14833 
L 142.2382 198.956618 
L 143.324001 206.343311 
L 144.409802 155.583418 
L 145.495604 178.053557 
L 146.581405 172.474904 
L 147.667206 178.485742 
L 148.753007 161.544086 
L 149.838808 204.735745 
L 150.924609 174.729381 
L 152.01041 188.766241 
L 153.096212 194.873489 
L 154.182013 176.899691 
L 155.267814 226.321762 
L 156.353615 213.331351 
L 157.439416 213.161532 
L 158.525217 244.237729 
L 159.611019 189.655264 
L 160.69682 181.093165 
L 161.782621 207.074003 
L 162.868422 164.795407 
L 163.954223 183.451104 
L 165.040024 163.294585 
L 166.125825 185.299939 
L 167.211627 185.868919 
L 168.297428 173.53539 
L 169.383229 200.411074 
L 170.46903 188.636987 
L 171.554831 166.096499 
L 172.640632 165.073857 
L 173.726434 204.056657 
L 174.812235 161.110983 
L 175.898036 160.269099 
L 176.983837 197.365751 
L 178.069638 143.117906 
L 179.155439 164.607687 
L 180.24124 152.784565 
L 181.327042 169.257532 
L 182.412843 167.469737 
L 183.498644 141.450464 
L 184.584445 165.113196 
L 186.756047 148.121774 
L 187.841849 149.556093 
L 188.92765 122.126482 
L 190.013451 169.766576 
L 191.099252 149.434397 
L 192.185053 136.028385 
L 193.270854 143.712495 
L 194.356656 170.669462 
L 195.442457 167.085798 
L 196.528258 154.376247 
L 197.614059 170.124143 
L 198.69986 177.359033 
L 199.785661 141.549759 
L 200.871462 136.05657 
L 201.957264 158.56762 
L 203.043065 176.512797 
L 204.128866 184.34586 
L 205.214667 172.484777 
L 206.300468 139.876774 
L 207.386269 157.055625 
L 208.472071 165.179423 
L 209.557872 155.907919 
L 210.643673 184.466182 
L 211.729474 164.580028 
L 212.815275 200.857215 
L 213.901076 150.494975 
L 214.986877 168.095686 
L 216.072679 130.542614 
L 217.15848 173.315361 
L 218.244281 176.295322 
L 219.330082 171.030496 
L 220.415883 147.809667 
L 221.501684 143.858493 
L 222.587486 146.00467 
L 223.673287 137.325388 
L 224.759088 188.881334 
L 225.844889 158.520681 
L 226.93069 146.968323 
L 228.016491 190.697929 
L 229.102292 174.500925 
L 230.188094 151.605302 
L 231.273895 143.061984 
L 232.359696 154.423688 
L 233.445497 162.580489 
L 234.531298 135.292417 
L 235.617099 168.332115 
L 236.702901 163.685351 
L 237.788702 186.054197 
L 238.874503 167.277875 
L 239.960304 174.760739 
L 241.046105 159.34351 
L 242.131906 154.409885 
L 243.217708 189.749571 
L 244.303509 134.558879 
L 245.38931 180.155884 
L 246.475111 161.977663 
L 247.560912 150.330543 
L 248.646713 157.939742 
L 249.732514 162.034947 
L 250.818316 190.641665 
L 251.904117 147.057134 
L 252.989918 168.286164 
L 254.075719 155.742827 
L 255.16152 156.360199 
L 256.247321 132.851778 
L 257.333123 171.081036 
L 258.418924 159.645251 
L 259.504725 166.856571 
L 260.590526 135.826991 
L 261.676327 129.476821 
L 262.762128 136.239462 
L 263.847929 155.174173 
L 264.933731 151.759912 
L 266.019532 148.790032 
L 267.105333 181.660099 
L 268.191134 175.24439 
L 269.276935 161.506365 
L 270.362736 152.60372 
L 271.448538 139.396739 
L 272.534339 139.753724 
L 273.62014 167.718166 
L 274.705941 150.743791 
L 275.791742 128.626046 
L 276.877543 138.012436 
L 277.963344 164.320323 
L 279.049146 151.812732 
L 280.134947 155.107517 
L 281.220748 183.944141 
L 282.306549 172.671043 
L 283.39235 192.113764 
L 284.478151 165.683064 
L 285.563953 148.230586 
L 287.735555 136.519022 
L 288.821356 151.358543 
L 289.907157 178.116803 
L 290.992958 179.942393 
L 292.07876 186.664695 
L 293.164561 158.169825 
L 294.250362 177.965123 
L 295.336163 150.069351 
L 296.421964 192.223013 
L 297.507765 150.404673 
L 298.593566 152.486309 
L 299.679368 168.181952 
L 300.765169 169.455549 
L 301.85097 158.411036 
L 302.936771 160.682002 
L 304.022572 154.281054 
L 305.108373 188.048077 
L 306.194175 150.415949 
L 307.279976 151.829073 
L 308.365777 148.783683 
L 309.451578 156.095709 
L 310.537379 132.359409 
L 311.62318 137.306291 
L 312.708981 165.148486 
L 313.794783 140.214733 
L 314.880584 147.709434 
L 315.966385 122.000528 
L 317.052186 125.370092 
L 318.137987 183.798838 
L 319.223788 133.830536 
L 320.30959 163.12081 
L 321.395391 182.667934 
L 322.481192 155.214152 
L 323.566993 155.774368 
L 324.652794 149.31204 
L 325.738595 141.021231 
L 326.824396 159.178815 
L 327.910198 160.899931 
L 328.995999 136.106908 
L 330.0818 157.514779 
L 331.167601 151.073024 
L 332.253402 157.884634 
L 333.339203 145.027978 
L 334.425005 188.008751 
L 335.510806 179.017136 
L 336.596607 146.843255 
L 337.682408 192.561868 
L 338.768209 146.815208 
L 339.85401 122.361981 
L 340.939811 159.26964 
L 342.025613 156.3739 
L 344.197215 131.024665 
L 345.283016 165.808503 
L 346.368817 123.969356 
L 347.454618 139.233185 
L 348.54042 167.701128 
L 349.626221 179.570931 
L 350.712022 148.053657 
L 351.797823 207.019115 
L 352.883624 195.877376 
L 353.969425 162.260182 
L 355.055227 198.323658 
L 356.141028 173.683459 
L 357.226829 216.279107 
L 358.31263 199.059147 
L 359.398431 185.569444 
L 360.484232 168.238156 
L 361.570033 188.711593 
L 362.655835 196.336063 
L 363.741636 197.433916 
L 364.827437 145.215215 
L 365.913238 202.124891 
L 366.999039 208.239852 
L 368.08484 165.063377 
L 369.170642 159.780914 
L 370.256443 170.135948 
L 371.342244 175.672507 
L 372.428045 178.26571 
L 373.513846 221.347284 
L 375.685448 182.774798 
L 376.77125 184.740473 
L 377.857051 171.230458 
L 378.942852 174.787989 
L 380.028653 160.715658 
L 381.114454 170.463635 
L 382.200255 162.494978 
L 383.286057 197.526286 
L 385.457659 160.352933 
L 386.54346 129.970364 
L 387.629261 167.515256 
L 388.715062 200.682772 
L 389.800863 219.046592 
L 390.886665 170.73333 
L 391.972466 167.761905 
L 393.058267 173.511137 
L 394.144068 156.21448 
L 395.229869 214.320785 
L 396.31567 192.950603 
L 397.401472 201.588851 
L 398.487273 166.114576 
L 398.487273 166.114576 
" style="fill:none;stroke:#008000;stroke-dasharray:9.6,2.4,1.5,2.4;stroke-dashoffset:0;stroke-width:1.5;"/>
   </g>
   <g id="line2d_31">
    <path clip-path="url(#p5b22afd77d)" d="M 73.832727 283.147438 
L 74.918528 218.013869 
L 76.00433 182.558886 
L 77.090131 211.11554 
L 78.175932 220.352842 
L 79.261733 185.430342 
L 80.347534 181.260555 
L 81.433335 205.136683 
L 82.519137 180.546904 
L 83.604938 191.6907 
L 84.690739 190.209333 
L 85.77654 193.158783 
L 86.862341 192.53475 
L 87.948142 185.294836 
L 89.033943 189.535028 
L 90.119745 181.739539 
L 91.205546 191.551668 
L 92.291347 175.888902 
L 93.377148 184.045631 
L 94.462949 157.955901 
L 95.54875 167.56523 
L 96.634552 161.531225 
L 97.720353 167.259086 
L 98.806154 166.110982 
L 99.891955 155.287658 
L 100.977756 175.10694 
L 102.063557 168.177225 
L 103.149358 146.572372 
L 104.23516 160.153447 
L 106.406762 140.137068 
L 107.492563 154.268843 
L 108.578364 153.767865 
L 109.664165 151.741927 
L 110.749967 134.999322 
L 111.835768 140.26485 
L 112.921569 144.605551 
L 114.00737 145.019693 
L 115.093171 131.713743 
L 116.178972 126.900486 
L 117.264773 130.390647 
L 118.350575 138.79199 
L 119.436376 133.921368 
L 120.522177 132.176038 
L 121.607978 146.591295 
L 122.693779 131.562168 
L 123.77958 155.628393 
L 124.865382 156.629459 
L 125.951183 123.644011 
L 127.036984 123.868935 
L 128.122785 125.339152 
L 129.208586 128.907172 
L 130.294387 112.756493 
L 131.380189 99.541648 
L 132.46599 122.488884 
L 133.551791 130.061828 
L 134.637592 152.156624 
L 135.723393 93.632827 
L 136.809194 137.925588 
L 137.894995 145.669442 
L 138.980797 131.707589 
L 140.066598 101.497953 
L 141.152399 89.841996 
L 142.2382 124.940072 
L 143.324001 109.580839 
L 144.409802 113.703026 
L 146.581405 129.897547 
L 147.667206 105.995114 
L 148.753007 117.230081 
L 149.838808 136.717364 
L 150.924609 130.922192 
L 152.01041 149.399816 
L 153.096212 88.542216 
L 154.182013 145.254522 
L 155.267814 101.207642 
L 156.353615 150.360892 
L 157.439416 99.83158 
L 158.525217 152.124565 
L 159.611019 151.6664 
L 160.69682 126.451263 
L 161.782621 117.659604 
L 162.868422 125.230051 
L 163.954223 125.410686 
L 165.040024 130.787797 
L 166.125825 135.22011 
L 167.211627 113.92839 
L 168.297428 99.494881 
L 169.383229 98.078245 
L 170.46903 138.506604 
L 171.554831 132.821568 
L 172.640632 123.867847 
L 173.726434 126.988566 
L 174.812235 121.168587 
L 175.898036 113.334258 
L 176.983837 98.937674 
L 178.069638 103.070131 
L 179.155439 92.468519 
L 180.24124 103.132306 
L 181.327042 115.409594 
L 182.412843 121.358744 
L 183.498644 98.281534 
L 184.584445 107.218986 
L 185.670246 74.460518 
L 186.756047 90.294711 
L 187.841849 84.604247 
L 188.92765 77.507285 
L 190.013451 90.373052 
L 191.099252 91.258447 
L 192.185053 94.76237 
L 193.270854 96.82089 
L 194.356656 105.898004 
L 195.442457 76.762279 
L 196.528258 104.542414 
L 197.614059 75.695644 
L 198.69986 92.09311 
L 199.785661 102.065621 
L 200.871462 81.081229 
L 201.957264 116.793835 
L 203.043065 102.068154 
L 204.128866 128.103165 
L 205.214667 117.257479 
L 206.300468 95.436952 
L 207.386269 86.875717 
L 208.472071 111.731513 
L 209.557872 112.757816 
L 210.643673 101.540165 
L 211.729474 101.521421 
L 212.815275 94.944174 
L 213.901076 93.566531 
L 214.986877 103.937611 
L 216.072679 78.524961 
L 217.15848 84.492239 
L 218.244281 118.679818 
L 219.330082 98.860314 
L 220.415883 87.800316 
L 221.501684 72.316449 
L 222.587486 73.545206 
L 223.673287 78.831078 
L 224.759088 76.361245 
L 225.844889 72.437459 
L 228.016491 116.792446 
L 229.102292 110.579387 
L 230.188094 91.760957 
L 231.273895 88.272318 
L 232.359696 96.108243 
L 234.531298 74.335844 
L 235.617099 106.535282 
L 236.702901 104.909279 
L 237.788702 104.050527 
L 238.874503 125.648436 
L 239.960304 129.452567 
L 241.046105 121.651693 
L 242.131906 102.126054 
L 243.217708 110.794203 
L 244.303509 77.880206 
L 245.38931 123.911473 
L 246.475111 108.633449 
L 247.560912 103.990759 
L 248.646713 121.24392 
L 249.732514 107.567135 
L 250.818316 132.274316 
L 251.904117 93.615165 
L 252.989918 110.02244 
L 254.075719 99.974163 
L 255.16152 88.546186 
L 256.247321 71.051421 
L 257.333123 92.73938 
L 258.418924 71.293044 
L 259.504725 69.705933 
L 260.590526 80.25377 
L 261.676327 75.604559 
L 262.762128 83.783629 
L 263.847929 99.865243 
L 264.933731 97.108879 
L 266.019532 99.146501 
L 267.105333 82.988656 
L 268.191134 81.558913 
L 269.276935 102.268025 
L 270.362736 74.076123 
L 271.448538 84.444182 
L 272.534339 77.069633 
L 273.62014 99.541969 
L 274.705941 63.242401 
L 275.791742 76.5253 
L 276.877543 69.519021 
L 277.963344 77.837308 
L 279.049146 84.866479 
L 280.134947 98.359022 
L 281.220748 83.579938 
L 282.306549 85.92825 
L 283.39235 142.466823 
L 284.478151 106.425834 
L 285.563953 90.88162 
L 286.649754 89.463689 
L 287.735555 80.761122 
L 288.821356 92.521 
L 289.907157 105.576978 
L 290.992958 100.536067 
L 292.07876 106.691876 
L 293.164561 98.976725 
L 294.250362 126.813778 
L 295.336163 101.942359 
L 296.421964 95.052954 
L 297.507765 86.142507 
L 298.593566 98.943775 
L 299.679368 63.376215 
L 300.765169 88.23886 
L 301.85097 102.264491 
L 302.936771 118.941385 
L 304.022572 99.012286 
L 305.108373 90.07247 
L 306.194175 87.505941 
L 307.279976 82.970291 
L 308.365777 89.254161 
L 309.451578 103.431588 
L 311.62318 71.396646 
L 312.708981 62.379699 
L 313.794783 103.762292 
L 314.880584 78.808275 
L 315.966385 76.199307 
L 317.052186 85.654344 
L 318.137987 74.79516 
L 319.223788 84.130043 
L 320.30959 72.445361 
L 321.395391 57.925865 
L 322.481192 106.925247 
L 323.566993 95.095511 
L 324.652794 77.407112 
L 325.738595 92.419554 
L 326.824396 84.97678 
L 327.910198 85.548159 
L 328.995999 87.661663 
L 330.0818 76.28764 
L 331.167601 97.512111 
L 332.253402 63.570391 
L 333.339203 103.904364 
L 334.425005 74.13657 
L 335.510806 70.424493 
L 336.596607 99.683001 
L 337.682408 111.429493 
L 338.768209 90.669835 
L 339.85401 78.638266 
L 340.939811 109.86418 
L 342.025613 103.87996 
L 343.111414 53.568 
L 344.197215 80.626123 
L 345.283016 88.358002 
L 346.368817 83.204884 
L 347.454618 100.808949 
L 348.54042 84.498025 
L 349.626221 134.146892 
L 350.712022 98.465455 
L 351.797823 102.9273 
L 352.883624 116.48502 
L 353.969425 111.313241 
L 355.055227 114.51498 
L 356.141028 94.682978 
L 357.226829 111.854783 
L 358.31263 136.86674 
L 359.398431 131.59394 
L 360.484232 118.480477 
L 361.570033 136.118654 
L 362.655835 104.925806 
L 363.741636 148.799151 
L 364.827437 96.243851 
L 365.913238 131.194112 
L 366.999039 141.571592 
L 368.08484 125.781308 
L 369.170642 121.478988 
L 370.256443 125.099161 
L 371.342244 133.346304 
L 372.428045 146.462023 
L 373.513846 128.434962 
L 375.685448 149.007116 
L 376.77125 110.209715 
L 377.857051 132.917127 
L 378.942852 136.939335 
L 380.028653 111.699626 
L 381.114454 123.877747 
L 382.200255 124.250053 
L 383.286057 150.167152 
L 384.371858 107.719686 
L 385.457659 121.402809 
L 386.54346 93.213822 
L 387.629261 87.219588 
L 388.715062 84.261741 
L 389.800863 108.274636 
L 390.886665 100.558257 
L 391.972466 101.530917 
L 393.058267 97.026172 
L 394.144068 89.701407 
L 395.229869 125.049404 
L 396.31567 110.093583 
L 397.401472 101.817784 
L 398.487273 96.294299 
L 398.487273 96.294299 
" style="fill:none;stroke:#008000;stroke-dasharray:9.6,2.4,1.5,2.4;stroke-dashoffset:0;stroke-width:1.5;"/>
   </g>
   <g id="line2d_32">
    <path clip-path="url(#p5b22afd77d)" d="M 73.832727 273.582463 
L 74.918528 208.165795 
L 76.00433 157.420046 
L 77.090131 195.730631 
L 78.175932 212.059018 
L 79.261733 174.248948 
L 80.347534 167.348831 
L 81.433335 202.4723 
L 82.519137 166.034335 
L 83.604938 181.456612 
L 84.690739 185.306263 
L 85.77654 186.725424 
L 86.862341 176.427115 
L 87.948142 171.13214 
L 89.033943 167.43856 
L 91.205546 189.147172 
L 92.291347 162.705125 
L 93.377148 181.435071 
L 94.462949 158.099205 
L 95.54875 150.457151 
L 96.634552 158.561199 
L 97.720353 155.715016 
L 98.806154 167.928252 
L 99.891955 155.784711 
L 100.977756 171.024251 
L 102.063557 160.082794 
L 103.149358 147.795618 
L 104.23516 147.063822 
L 105.320961 147.975132 
L 106.406762 143.164288 
L 107.492563 135.900059 
L 108.578364 144.314018 
L 109.664165 138.32935 
L 110.749967 121.617567 
L 111.835768 144.267899 
L 112.921569 143.98663 
L 114.00737 131.965075 
L 115.093171 111.295541 
L 116.178972 121.523766 
L 117.264773 120.509395 
L 118.350575 131.87554 
L 119.436376 137.660016 
L 120.522177 130.317592 
L 121.607978 140.5475 
L 122.693779 123.712251 
L 123.77958 149.374635 
L 124.865382 147.478257 
L 125.951183 125.344654 
L 127.036984 109.532395 
L 128.122785 109.140291 
L 129.208586 120.422031 
L 130.294387 101.220024 
L 131.380189 108.635596 
L 132.46599 117.965939 
L 134.637592 144.155433 
L 135.723393 109.508395 
L 136.809194 144.265167 
L 137.894995 142.912029 
L 138.980797 122.90603 
L 140.066598 109.655652 
L 141.152399 106.305775 
L 142.2382 133.004314 
L 144.409802 98.054236 
L 145.495604 114.66871 
L 146.581405 112.461692 
L 147.667206 96.573194 
L 148.753007 103.568253 
L 149.838808 141.065145 
L 150.924609 109.739426 
L 152.01041 137.349435 
L 153.096212 103.871912 
L 154.182013 131.007305 
L 155.267814 107.248175 
L 156.353615 152.272973 
L 157.439416 106.34381 
L 158.525217 158.250869 
L 159.611019 133.209576 
L 160.69682 104.63064 
L 161.782621 113.353167 
L 162.868422 112.372708 
L 163.954223 112.296296 
L 166.125825 131.266313 
L 168.297428 101.833337 
L 169.383229 120.465976 
L 170.46903 134.838335 
L 172.640632 109.294568 
L 173.726434 124.918812 
L 174.812235 106.912402 
L 175.898036 105.400036 
L 176.983837 98.54078 
L 178.069638 92.555559 
L 179.155439 90.108816 
L 180.24124 90.181266 
L 181.327042 108.481318 
L 182.412843 105.681791 
L 183.498644 85.03699 
L 184.584445 99.317754 
L 185.670246 75.113357 
L 186.756047 80.21667 
L 187.841849 75.979208 
L 188.92765 68.849833 
L 190.013451 91.638706 
L 191.099252 81.156341 
L 192.185053 85.631421 
L 193.270854 87.570822 
L 194.356656 94.900046 
L 195.442457 83.666635 
L 196.528258 98.010594 
L 197.614059 83.36736 
L 198.69986 87.656569 
L 199.785661 95.338901 
L 200.871462 71.948417 
L 201.957264 102.828673 
L 203.043065 87.89395 
L 204.128866 123.801974 
L 205.214667 104.676662 
L 206.300468 77.764371 
L 207.386269 76.560351 
L 208.472071 99.032265 
L 209.557872 105.743937 
L 210.643673 104.988285 
L 211.729474 92.77417 
L 212.815275 100.774364 
L 213.901076 83.162693 
L 214.986877 98.327991 
L 216.072679 73.149684 
L 217.15848 83.673921 
L 218.244281 102.299625 
L 219.330082 93.192766 
L 220.415883 78.252114 
L 221.501684 70.524013 
L 222.587486 61.51455 
L 224.759088 83.635462 
L 225.844889 71.615091 
L 226.93069 78.952358 
L 228.016491 119.740582 
L 229.102292 104.666075 
L 230.188094 80.79047 
L 232.359696 89.159132 
L 233.445497 69.894302 
L 234.531298 71.098849 
L 235.617099 99.46228 
L 236.702901 103.721157 
L 237.788702 94.361984 
L 238.874503 117.026582 
L 239.960304 118.005473 
L 241.046105 110.250116 
L 242.131906 94.102807 
L 243.217708 107.73349 
L 244.303509 72.816518 
L 245.38931 106.978789 
L 246.475111 96.082166 
L 247.560912 95.002307 
L 248.646713 111.938027 
L 249.732514 97.907559 
L 250.818316 119.942764 
L 251.904117 78.269099 
L 252.989918 102.275307 
L 255.16152 79.362034 
L 256.247321 62.86214 
L 257.333123 90.164548 
L 258.418924 72.952925 
L 259.504725 69.844431 
L 260.590526 67.508239 
L 261.676327 72.669608 
L 262.762128 70.027455 
L 263.847929 91.792014 
L 264.933731 89.977288 
L 266.019532 91.822727 
L 267.105333 85.986257 
L 268.191134 79.084252 
L 269.276935 87.998801 
L 270.362736 69.448877 
L 271.448538 74.783291 
L 272.534339 76.858725 
L 273.62014 91.049889 
L 274.705941 64.392996 
L 275.791742 66.087064 
L 276.877543 61.511414 
L 277.963344 76.768636 
L 280.134947 90.043252 
L 281.220748 87.345544 
L 282.306549 89.088326 
L 283.39235 132.409694 
L 284.478151 93.038016 
L 285.563953 80.466714 
L 286.649754 88.965548 
L 287.735555 75.18714 
L 288.821356 87.599802 
L 289.907157 107.630348 
L 290.992958 100.091742 
L 292.07876 103.284921 
L 293.164561 96.034223 
L 294.250362 121.055967 
L 295.336163 95.028363 
L 296.421964 96.561067 
L 297.507765 79.100811 
L 298.593566 93.38475 
L 299.679368 74.790187 
L 300.765169 88.184336 
L 301.85097 91.528806 
L 302.936771 111.256721 
L 304.022572 86.132941 
L 305.108373 92.882213 
L 306.194175 84.885944 
L 307.279976 81.235654 
L 308.365777 79.159947 
L 309.451578 94.644276 
L 310.537379 80.672576 
L 311.62318 78.568053 
L 312.708981 72.295138 
L 313.794783 98.450138 
L 314.880584 84.542144 
L 315.966385 75.020348 
L 317.052186 80.533288 
L 318.137987 81.322897 
L 319.223788 79.885849 
L 320.30959 72.836212 
L 321.395391 75.38674 
L 322.481192 104.58525 
L 323.566993 88.235208 
L 324.652794 84.319185 
L 325.738595 90.900239 
L 326.824396 87.567037 
L 327.910198 92.059351 
L 328.995999 90.586381 
L 330.0818 74.885564 
L 331.167601 97.974311 
L 332.253402 71.509263 
L 333.339203 99.11361 
L 334.425005 89.089546 
L 335.510806 87.870697 
L 336.596607 92.562914 
L 337.682408 116.467465 
L 338.768209 84.058521 
L 339.85401 78.372626 
L 340.939811 109.937971 
L 342.025613 99.970157 
L 343.111414 69.137073 
L 344.197215 77.91483 
L 345.283016 103.898926 
L 346.368817 86.377967 
L 347.454618 98.217878 
L 348.54042 98.613513 
L 349.626221 138.789922 
L 350.712022 101.795676 
L 351.797823 119.872515 
L 352.883624 127.727429 
L 353.969425 113.848286 
L 355.055227 131.903503 
L 356.141028 108.332178 
L 357.226829 121.833935 
L 358.31263 129.119918 
L 359.398431 134.300846 
L 360.484232 114.926716 
L 361.570033 132.268393 
L 362.655835 113.689871 
L 363.741636 147.209143 
L 364.827437 89.982224 
L 365.913238 137.610911 
L 366.999039 144.563432 
L 368.08484 120.255129 
L 369.170642 115.131079 
L 370.256443 113.906997 
L 371.342244 120.814322 
L 372.428045 137.864938 
L 373.513846 133.550475 
L 374.599647 141.226483 
L 375.685448 142.79026 
L 376.77125 112.812954 
L 377.857051 127.197296 
L 378.942852 123.740827 
L 380.028653 104.168864 
L 381.114454 115.49004 
L 382.200255 119.771891 
L 383.286057 146.029879 
L 384.371858 110.829763 
L 385.457659 108.082038 
L 386.54346 83.905334 
L 387.629261 91.104979 
L 388.715062 89.802775 
L 389.800863 121.576822 
L 390.886665 99.545452 
L 391.972466 103.805551 
L 393.058267 98.596084 
L 394.144068 87.893005 
L 395.229869 128.267791 
L 396.31567 122.647473 
L 397.401472 113.479174 
L 398.487273 105.460869 
L 398.487273 105.460869 
" style="fill:none;stroke:#ff0000;stroke-linecap:square;stroke-width:1.5;"/>
   </g>
   <g id="patch_3">
    <path d="M 57.6 307.584 
L 57.6 41.472 
" style="fill:none;stroke:#000000;stroke-linecap:square;stroke-linejoin:miter;stroke-width:0.8;"/>
   </g>
   <g id="patch_4">
    <path d="M 414.72 307.584 
L 414.72 41.472 
" style="fill:none;stroke:#000000;stroke-linecap:square;stroke-linejoin:miter;stroke-width:0.8;"/>
   </g>
   <g id="patch_5">
    <path d="M 57.6 307.584 
L 414.72 307.584 
" style="fill:none;stroke:#000000;stroke-linecap:square;stroke-linejoin:miter;stroke-width:0.8;"/>
   </g>
   <g id="patch_6">
    <path d="M 57.6 41.472 
L 414.72 41.472 
" style="fill:none;stroke:#000000;stroke-linecap:square;stroke-linejoin:miter;stroke-width:0.8;"/>
   </g>
   <g id="text_17">
    <!-- Population's average and best fitness -->
    <defs>
     <path d="M 19.671875 64.796875 
L 19.671875 37.40625 
L 32.078125 37.40625 
Q 38.96875 37.40625 42.71875 40.96875 
Q 46.484375 44.53125 46.484375 51.125 
Q 46.484375 57.671875 42.71875 61.234375 
Q 38.96875 64.796875 32.078125 64.796875 
z
M 9.8125 72.90625 
L 32.078125 72.90625 
Q 44.34375 72.90625 50.609375 67.359375 
Q 56.890625 61.8125 56.890625 51.125 
Q 56.890625 40.328125 50.609375 34.8125 
Q 44.34375 29.296875 32.078125 29.296875 
L 19.671875 29.296875 
L 19.671875 0 
L 9.8125 0 
z
" id="DejaVuSans-80"/>
     <path d="M 18.109375 8.203125 
L 18.109375 -20.796875 
L 9.078125 -20.796875 
L 9.078125 54.6875 
L 18.109375 54.6875 
L 18.109375 46.390625 
Q 20.953125 51.265625 25.265625 53.625 
Q 29.59375 56 35.59375 56 
Q 45.5625 56 51.78125 48.09375 
Q 58.015625 40.1875 58.015625 27.296875 
Q 58.015625 14.40625 51.78125 6.484375 
Q 45.5625 -1.421875 35.59375 -1.421875 
Q 29.59375 -1.421875 25.265625 0.953125 
Q 20.953125 3.328125 18.109375 8.203125 
z
M 48.6875 27.296875 
Q 48.6875 37.203125 44.609375 42.84375 
Q 40.53125 48.484375 33.40625 48.484375 
Q 26.265625 48.484375 22.1875 42.84375 
Q 18.109375 37.203125 18.109375 27.296875 
Q 18.109375 17.390625 22.1875 11.75 
Q 26.265625 6.109375 33.40625 6.109375 
Q 40.53125 6.109375 44.609375 11.75 
Q 48.6875 17.390625 48.6875 27.296875 
z
" id="DejaVuSans-112"/>
     <path d="M 8.5 21.578125 
L 8.5 54.6875 
L 17.484375 54.6875 
L 17.484375 21.921875 
Q 17.484375 14.15625 20.5 10.265625 
Q 23.53125 6.390625 29.59375 6.390625 
Q 36.859375 6.390625 41.078125 11.03125 
Q 45.3125 15.671875 45.3125 23.6875 
L 45.3125 54.6875 
L 54.296875 54.6875 
L 54.296875 0 
L 45.3125 0 
L 45.3125 8.40625 
Q 42.046875 3.421875 37.71875 1 
Q 33.40625 -1.421875 27.6875 -1.421875 
Q 18.265625 -1.421875 13.375 4.4375 
Q 8.5 10.296875 8.5 21.578125 
z
M 31.109375 56 
z
" id="DejaVuSans-117"/>
     <path d="M 9.421875 75.984375 
L 18.40625 75.984375 
L 18.40625 0 
L 9.421875 0 
z
" id="DejaVuSans-108"/>
     <path d="M 17.921875 72.90625 
L 17.921875 45.796875 
L 9.625 45.796875 
L 9.625 72.90625 
z
" id="DejaVuSans-39"/>
     <path id="DejaVuSans-32"/>
     <path d="M 2.984375 54.6875 
L 12.5 54.6875 
L 29.59375 8.796875 
L 46.6875 54.6875 
L 56.203125 54.6875 
L 35.6875 0 
L 23.484375 0 
z
" id="DejaVuSans-118"/>
     <path d="M 45.40625 27.984375 
Q 45.40625 37.75 41.375 43.109375 
Q 37.359375 48.484375 30.078125 48.484375 
Q 22.859375 48.484375 18.828125 43.109375 
Q 14.796875 37.75 14.796875 27.984375 
Q 14.796875 18.265625 18.828125 12.890625 
Q 22.859375 7.515625 30.078125 7.515625 
Q 37.359375 7.515625 41.375 12.890625 
Q 45.40625 18.265625 45.40625 27.984375 
z
M 54.390625 6.78125 
Q 54.390625 -7.171875 48.1875 -13.984375 
Q 42 -20.796875 29.203125 -20.796875 
Q 24.46875 -20.796875 20.265625 -20.09375 
Q 16.0625 -19.390625 12.109375 -17.921875 
L 12.109375 -9.1875 
Q 16.0625 -11.328125 19.921875 -12.34375 
Q 23.78125 -13.375 27.78125 -13.375 
Q 36.625 -13.375 41.015625 -8.765625 
Q 45.40625 -4.15625 45.40625 5.171875 
L 45.40625 9.625 
Q 42.625 4.78125 38.28125 2.390625 
Q 33.9375 0 27.875 0 
Q 17.828125 0 11.671875 7.65625 
Q 5.515625 15.328125 5.515625 27.984375 
Q 5.515625 40.671875 11.671875 48.328125 
Q 17.828125 56 27.875 56 
Q 33.9375 56 38.28125 53.609375 
Q 42.625 51.21875 45.40625 46.390625 
L 45.40625 54.6875 
L 54.390625 54.6875 
z
" id="DejaVuSans-103"/>
     <path d="M 45.40625 46.390625 
L 45.40625 75.984375 
L 54.390625 75.984375 
L 54.390625 0 
L 45.40625 0 
L 45.40625 8.203125 
Q 42.578125 3.328125 38.25 0.953125 
Q 33.9375 -1.421875 27.875 -1.421875 
Q 17.96875 -1.421875 11.734375 6.484375 
Q 5.515625 14.40625 5.515625 27.296875 
Q 5.515625 40.1875 11.734375 48.09375 
Q 17.96875 56 27.875 56 
Q 33.9375 56 38.25 53.625 
Q 42.578125 51.265625 45.40625 46.390625 
z
M 14.796875 27.296875 
Q 14.796875 17.390625 18.875 11.75 
Q 22.953125 6.109375 30.078125 6.109375 
Q 37.203125 6.109375 41.296875 11.75 
Q 45.40625 17.390625 45.40625 27.296875 
Q 45.40625 37.203125 41.296875 42.84375 
Q 37.203125 48.484375 30.078125 48.484375 
Q 22.953125 48.484375 18.875 42.84375 
Q 14.796875 37.203125 14.796875 27.296875 
z
" id="DejaVuSans-100"/>
     <path d="M 48.6875 27.296875 
Q 48.6875 37.203125 44.609375 42.84375 
Q 40.53125 48.484375 33.40625 48.484375 
Q 26.265625 48.484375 22.1875 42.84375 
Q 18.109375 37.203125 18.109375 27.296875 
Q 18.109375 17.390625 22.1875 11.75 
Q 26.265625 6.109375 33.40625 6.109375 
Q 40.53125 6.109375 44.609375 11.75 
Q 48.6875 17.390625 48.6875 27.296875 
z
M 18.109375 46.390625 
Q 20.953125 51.265625 25.265625 53.625 
Q 29.59375 56 35.59375 56 
Q 45.5625 56 51.78125 48.09375 
Q 58.015625 40.1875 58.015625 27.296875 
Q 58.015625 14.40625 51.78125 6.484375 
Q 45.5625 -1.421875 35.59375 -1.421875 
Q 29.59375 -1.421875 25.265625 0.953125 
Q 20.953125 3.328125 18.109375 8.203125 
L 18.109375 0 
L 9.078125 0 
L 9.078125 75.984375 
L 18.109375 75.984375 
z
" id="DejaVuSans-98"/>
     <path d="M 37.109375 75.984375 
L 37.109375 68.5 
L 28.515625 68.5 
Q 23.6875 68.5 21.796875 66.546875 
Q 19.921875 64.59375 19.921875 59.515625 
L 19.921875 54.6875 
L 34.71875 54.6875 
L 34.71875 47.703125 
L 19.921875 47.703125 
L 19.921875 0 
L 10.890625 0 
L 10.890625 47.703125 
L 2.296875 47.703125 
L 2.296875 54.6875 
L 10.890625 54.6875 
L 10.890625 58.5 
Q 10.890625 67.625 15.140625 71.796875 
Q 19.390625 75.984375 28.609375 75.984375 
z
" id="DejaVuSans-102"/>
    </defs>
    <g transform="translate(123.315 35.472)scale(0.12 -0.12)">
     <use xlink:href="#DejaVuSans-80"/>
     <use x="60.255859" xlink:href="#DejaVuSans-111"/>
     <use x="121.4375" xlink:href="#DejaVuSans-112"/>
     <use x="184.914062" xlink:href="#DejaVuSans-117"/>
     <use x="248.292969" xlink:href="#DejaVuSans-108"/>
     <use x="276.076172" xlink:href="#DejaVuSans-97"/>
     <use x="337.355469" xlink:href="#DejaVuSans-116"/>
     <use x="376.564453" xlink:href="#DejaVuSans-105"/>
     <use x="404.347656" xlink:href="#DejaVuSans-111"/>
     <use x="465.529297" xlink:href="#DejaVuSans-110"/>
     <use x="528.908203" xlink:href="#DejaVuSans-39"/>
     <use x="556.398438" xlink:href="#DejaVuSans-115"/>
     <use x="608.498047" xlink:href="#DejaVuSans-32"/>
     <use x="640.285156" xlink:href="#DejaVuSans-97"/>
     <use x="701.564453" xlink:href="#DejaVuSans-118"/>
     <use x="760.744141" xlink:href="#DejaVuSans-101"/>
     <use x="822.267578" xlink:href="#DejaVuSans-114"/>
     <use x="863.380859" xlink:href="#DejaVuSans-97"/>
     <use x="924.660156" xlink:href="#DejaVuSans-103"/>
     <use x="988.136719" xlink:href="#DejaVuSans-101"/>
     <use x="1049.660156" xlink:href="#DejaVuSans-32"/>
     <use x="1081.447266" xlink:href="#DejaVuSans-97"/>
     <use x="1142.726562" xlink:href="#DejaVuSans-110"/>
     <use x="1206.105469" xlink:href="#DejaVuSans-100"/>
     <use x="1269.582031" xlink:href="#DejaVuSans-32"/>
     <use x="1301.369141" xlink:href="#DejaVuSans-98"/>
     <use x="1364.845703" xlink:href="#DejaVuSans-101"/>
     <use x="1426.369141" xlink:href="#DejaVuSans-115"/>
     <use x="1478.46875" xlink:href="#DejaVuSans-116"/>
     <use x="1517.677734" xlink:href="#DejaVuSans-32"/>
     <use x="1549.464844" xlink:href="#DejaVuSans-102"/>
     <use x="1584.669922" xlink:href="#DejaVuSans-105"/>
     <use x="1612.453125" xlink:href="#DejaVuSans-116"/>
     <use x="1651.662109" xlink:href="#DejaVuSans-110"/>
     <use x="1715.041016" xlink:href="#DejaVuSans-101"/>
     <use x="1776.564453" xlink:href="#DejaVuSans-115"/>
     <use x="1828.664062" xlink:href="#DejaVuSans-115"/>
    </g>
   </g>
   <g id="legend_1">
    <g id="patch_7">
     <path d="M 334.779375 302.584 
L 407.72 302.584 
Q 409.72 302.584 409.72 300.584 
L 409.72 242.8715 
Q 409.72 240.8715 407.72 240.8715 
L 334.779375 240.8715 
Q 332.779375 240.8715 332.779375 242.8715 
L 332.779375 300.584 
Q 332.779375 302.584 334.779375 302.584 
z
" style="fill:#ffffff;opacity:0.8;stroke:#cccccc;stroke-linejoin:miter;"/>
    </g>
    <g id="line2d_33">
     <path d="M 336.779375 248.969937 
L 356.779375 248.969937 
" style="fill:none;stroke:#0000ff;stroke-linecap:square;stroke-width:1.5;"/>
    </g>
    <g id="line2d_34"/>
    <g id="text_18">
     <!-- average -->
     <g transform="translate(364.779375 252.469937)scale(0.1 -0.1)">
      <use xlink:href="#DejaVuSans-97"/>
      <use x="61.279297" xlink:href="#DejaVuSans-118"/>
      <use x="120.458984" xlink:href="#DejaVuSans-101"/>
      <use x="181.982422" xlink:href="#DejaVuSans-114"/>
      <use x="223.095703" xlink:href="#DejaVuSans-97"/>
      <use x="284.375" xlink:href="#DejaVuSans-103"/>
      <use x="347.851562" xlink:href="#DejaVuSans-101"/>
     </g>
    </g>
    <g id="line2d_35">
     <path d="M 336.779375 263.648062 
L 356.779375 263.648062 
" style="fill:none;stroke:#008000;stroke-dasharray:9.6,2.4,1.5,2.4;stroke-dashoffset:0;stroke-width:1.5;"/>
    </g>
    <g id="line2d_36"/>
    <g id="text_19">
     <!-- -1 sd -->
     <defs>
      <path d="M 4.890625 31.390625 
L 31.203125 31.390625 
L 31.203125 23.390625 
L 4.890625 23.390625 
z
" id="DejaVuSans-45"/>
     </defs>
     <g transform="translate(364.779375 267.148062)scale(0.1 -0.1)">
      <use xlink:href="#DejaVuSans-45"/>
      <use x="36.083984" xlink:href="#DejaVuSans-49"/>
      <use x="99.707031" xlink:href="#DejaVuSans-32"/>
      <use x="131.494141" xlink:href="#DejaVuSans-115"/>
      <use x="183.59375" xlink:href="#DejaVuSans-100"/>
     </g>
    </g>
    <g id="line2d_37">
     <path d="M 336.779375 278.326187 
L 356.779375 278.326187 
" style="fill:none;stroke:#008000;stroke-dasharray:9.6,2.4,1.5,2.4;stroke-dashoffset:0;stroke-width:1.5;"/>
    </g>
    <g id="line2d_38"/>
    <g id="text_20">
     <!-- +1 sd -->
     <defs>
      <path d="M 46 62.703125 
L 46 35.5 
L 73.1875 35.5 
L 73.1875 27.203125 
L 46 27.203125 
L 46 0 
L 37.796875 0 
L 37.796875 27.203125 
L 10.59375 27.203125 
L 10.59375 35.5 
L 37.796875 35.5 
L 37.796875 62.703125 
z
" id="DejaVuSans-43"/>
     </defs>
     <g transform="translate(364.779375 281.826187)scale(0.1 -0.1)">
      <use xlink:href="#DejaVuSans-43"/>
      <use x="83.789062" xlink:href="#DejaVuSans-49"/>
      <use x="147.412109" xlink:href="#DejaVuSans-32"/>
      <use x="179.199219" xlink:href="#DejaVuSans-115"/>
      <use x="231.298828" xlink:href="#DejaVuSans-100"/>
     </g>
    </g>
    <g id="line2d_39">
     <path d="M 336.779375 293.004312 
L 356.779375 293.004312 
" style="fill:none;stroke:#ff0000;stroke-linecap:square;stroke-width:1.5;"/>
    </g>
    <g id="line2d_40"/>
    <g id="text_21">
     <!-- best -->
     <g transform="translate(364.779375 296.504312)scale(0.1 -0.1)">
      <use xlink:href="#DejaVuSans-98"/>
      <use x="63.476562" xlink:href="#DejaVuSans-101"/>
      <use x="125" xlink:href="#DejaVuSans-115"/>
      <use x="177.099609" xlink:href="#DejaVuSans-116"/>
     </g>
    </g>
   </g>
  </g>
 </g>
 <defs>
  <clipPath id="p5b22afd77d">
   <rect height="266.112" width="357.12" x="57.6" y="41.472"/>
  </clipPath>
 </defs>
</svg>
