<?xml version="1.0" encoding="UTF-8" standalone="no"?>
<!DOCTYPE svg PUBLIC "-//W3C//DTD SVG 1.1//EN"
 "http://www.w3.org/Graphics/SVG/1.1/DTD/svg11.dtd">
<!-- Generated by graphviz version 2.40.1 (20161225.0304)
 -->
<!-- Title: %3 Pages: 1 -->
<svg width="386pt" height="175pt"
 viewBox="0.00 0.00 386.00 174.79" xmlns="http://www.w3.org/2000/svg" xmlns:xlink="http://www.w3.org/1999/xlink">
<g id="graph0" class="graph" transform="scale(1 1) rotate(0) translate(4 170.7893)">
<title>%3</title>
<polygon fill="#ffffff" stroke="transparent" points="-4,4 -4,-170.7893 381.9976,-170.7893 381.9976,4 -4,4"/>
<!-- E0 -->
<g id="node1" class="node">
<title>E0</title>
<polygon fill="#d3d3d3" stroke="#000000" points="25.9963,-166.7893 .0012,-166.7893 .0012,-149.7893 25.9963,-149.7893 25.9963,-166.7893"/>
<text text-anchor="middle" x="12.9988" y="-155.5893" font-family="Times,serif" font-size="9.00" fill="#000000">E0</text>
</g>
<!-- E1 -->
<g id="node2" class="node">
<title>E1</title>
<polygon fill="#d3d3d3" stroke="#000000" points="69.9963,-166.7893 44.0012,-166.7893 44.0012,-149.7893 69.9963,-149.7893 69.9963,-166.7893"/>
<text text-anchor="middle" x="56.9988" y="-155.5893" font-family="Times,serif" font-size="9.00" fill="#000000">E1</text>
</g>
<!-- E0&#45;&gt;E1 -->
<!-- E2 -->
<g id="node3" class="node">
<title>E2</title>
<polygon fill="#d3d3d3" stroke="#000000" points="113.9963,-166.7893 88.0012,-166.7893 88.0012,-149.7893 113.9963,-149.7893 113.9963,-166.7893"/>
<text text-anchor="middle" x="100.9988" y="-155.5893" font-family="Times,serif" font-size="9.00" fill="#000000">E2</text>
</g>
<!-- E1&#45;&gt;E2 -->
<!-- 2 -->
<g id="node12" class="node">
<title>2</title>
<ellipse fill="#ffa07a" stroke="#000000" cx="263.9988" cy="-14.853" rx="14.4914" ry="14.4914"/>
<text text-anchor="middle" x="263.9988" y="-12.153" font-family="Times,serif" font-size="9.00" fill="#000000">2</text>
</g>
<!-- E1&#45;&gt;2 -->
<g id="edge16" class="edge">
<title>E1&#45;&gt;2</title>
<path fill="none" stroke="#00ff00" stroke-width=".7038" d="M70.4014,-152.8083C73.2186,-151.7417 76.1884,-150.6798 78.9988,-149.7893 141.8873,-129.8635 173.0325,-156.8634 222.9988,-113.7893 245.1248,-94.7153 255.5353,-61.7874 260.2765,-39.1956"/>
<polygon fill="#00ff00" stroke="#00ff00" stroke-width=".7038" points="263.7223,-39.8097 262.1266,-29.3357 256.8424,-38.5187 263.7223,-39.8097"/>
</g>
<!-- E3 -->
<g id="node4" class="node">
<title>E3</title>
<polygon fill="#d3d3d3" stroke="#000000" points="157.9963,-166.7893 132.0012,-166.7893 132.0012,-149.7893 157.9963,-149.7893 157.9963,-166.7893"/>
<text text-anchor="middle" x="144.9988" y="-155.5893" font-family="Times,serif" font-size="9.00" fill="#000000">E3</text>
</g>
<!-- E2&#45;&gt;E3 -->
<!-- E4 -->
<g id="node5" class="node">
<title>E4</title>
<polygon fill="#d3d3d3" stroke="#000000" points="201.9963,-166.7893 176.0012,-166.7893 176.0012,-149.7893 201.9963,-149.7893 201.9963,-166.7893"/>
<text text-anchor="middle" x="188.9988" y="-155.5893" font-family="Times,serif" font-size="9.00" fill="#000000">E4</text>
</g>
<!-- E3&#45;&gt;E4 -->
<!-- 0 -->
<g id="node10" class="node">
<title>0</title>
<ellipse fill="#87cefa" stroke="#000000" cx="169.9988" cy="-14.853" rx="14.4914" ry="14.4914"/>
<text text-anchor="middle" x="169.9988" y="-12.153" font-family="Times,serif" font-size="9.00" fill="#000000">0</text>
</g>
<!-- E3&#45;&gt;0 -->
<g id="edge14" class="edge">
<title>E3&#45;&gt;0</title>
<path fill="none" stroke="#ff0000" stroke-width=".6574" d="M145.7742,-149.5535C147.3165,-133.065 151.1343,-96.2677 156.9988,-65.7061 158.6892,-56.8966 161.0018,-47.343 163.2081,-38.9202"/>
<polygon fill="#ff0000" stroke="#ff0000" stroke-width=".6574" points="166.6597,-39.5639 165.8911,-28.997 159.9023,-37.7368 166.6597,-39.5639"/>
</g>
<!-- S -->
<g id="node13" class="node">
<title>S</title>
<ellipse fill="#ffa07a" stroke="#000000" cx="310.9988" cy="-14.853" rx="14.7075" ry="14.7075"/>
<text text-anchor="middle" x="310.9988" y="-12.153" font-family="Times,serif" font-size="9.00" fill="#000000">S</text>
</g>
<!-- E3&#45;&gt;S -->
<g id="edge15" class="edge">
<title>E3&#45;&gt;S</title>
<path fill="none" stroke="#00ff00" stroke-width="1.7613" d="M158.2681,-153.1318C187.9125,-141.6005 257.0093,-114.6696 257.9988,-113.7893 280.7466,-93.5514 295.4704,-61.1601 303.4907,-38.9911"/>
<polygon fill="#00ff00" stroke="#00ff00" stroke-width="1.7613" points="306.8752,-39.9109 306.8022,-29.3163 300.2524,-37.644 306.8752,-39.9109"/>
</g>
<!-- E5 -->
<g id="node6" class="node">
<title>E5</title>
<polygon fill="#d3d3d3" stroke="#000000" points="245.9963,-166.7893 220.0012,-166.7893 220.0012,-149.7893 245.9963,-149.7893 245.9963,-166.7893"/>
<text text-anchor="middle" x="232.9988" y="-155.5893" font-family="Times,serif" font-size="9.00" fill="#000000">E5</text>
</g>
<!-- E4&#45;&gt;E5 -->
<!-- 5379 -->
<g id="node14" class="node">
<title>5379</title>
<ellipse fill="#add8e6" stroke="#000000" cx="189.9988" cy="-89.7477" rx="24.0833" ry="24.0833"/>
<text text-anchor="middle" x="189.9988" y="-91.5477" font-family="Times,serif" font-size="9.00" fill="#000000">5379</text>
<text text-anchor="middle" x="189.9988" y="-82.5477" font-family="Times,serif" font-size="9.00" fill="#000000">sigm</text>
</g>
<!-- E4&#45;&gt;5379 -->
<g id="edge17" class="edge">
<title>E4&#45;&gt;5379</title>
<path fill="none" stroke="#ff0000" stroke-width=".2205" d="M189.1254,-149.6085C189.2211,-143.0479 189.3593,-133.5804 189.4975,-124.1041"/>
<polygon fill="#ff0000" stroke="#ff0000" stroke-width=".2205" points="192.9993,-124.0051 189.6456,-113.9551 186,-123.903 192.9993,-124.0051"/>
</g>
<!-- E6 -->
<g id="node7" class="node">
<title>E6</title>
<polygon fill="#d3d3d3" stroke="#000000" points="289.9963,-166.7893 264.0012,-166.7893 264.0012,-149.7893 289.9963,-149.7893 289.9963,-166.7893"/>
<text text-anchor="middle" x="276.9988" y="-155.5893" font-family="Times,serif" font-size="9.00" fill="#000000">E6</text>
</g>
<!-- E5&#45;&gt;E6 -->
<!-- E7 -->
<g id="node8" class="node">
<title>E7</title>
<polygon fill="#d3d3d3" stroke="#000000" points="333.9963,-166.7893 308.0012,-166.7893 308.0012,-149.7893 333.9963,-149.7893 333.9963,-166.7893"/>
<text text-anchor="middle" x="320.9988" y="-155.5893" font-family="Times,serif" font-size="9.00" fill="#000000">E7</text>
</g>
<!-- E6&#45;&gt;E7 -->
<!-- E8 -->
<g id="node9" class="node">
<title>E8</title>
<polygon fill="#d3d3d3" stroke="#000000" points="377.9963,-166.7893 352.0012,-166.7893 352.0012,-149.7893 377.9963,-149.7893 377.9963,-166.7893"/>
<text text-anchor="middle" x="364.9988" y="-155.5893" font-family="Times,serif" font-size="9.00" fill="#000000">E8</text>
</g>
<!-- E7&#45;&gt;E8 -->
<!-- 1 -->
<g id="node11" class="node">
<title>1</title>
<ellipse fill="#87cefa" stroke="#000000" cx="216.9988" cy="-14.853" rx="14.4914" ry="14.4914"/>
<text text-anchor="middle" x="216.9988" y="-12.153" font-family="Times,serif" font-size="9.00" fill="#000000">1</text>
</g>
<!-- E7&#45;&gt;1 -->
<g id="edge13" class="edge">
<title>E7&#45;&gt;1</title>
<path fill="none" stroke="#00ff00" stroke-width="2.3537" d="M314.8046,-149.7463C298.5763,-127.3644 254.4892,-66.5597 231.4545,-34.7904"/>
<polygon fill="#00ff00" stroke="#00ff00" stroke-width="2.3537" points="234.2601,-32.6972 225.5565,-26.6558 228.593,-36.8062 234.2601,-32.6972"/>
</g>
<!-- E8&#45;&gt;S -->
<g id="edge12" class="edge">
<title>E8&#45;&gt;S</title>
<path fill="none" stroke="#00ff00" stroke-width="4.055" d="M362.5514,-149.4783C357.8474,-132.8645 346.946,-95.8668 334.9988,-65.7061 331.2894,-56.3418 326.6718,-46.2659 322.4805,-37.5728"/>
<polygon fill="#00ff00" stroke="#00ff00" stroke-width="4.055" points="325.5958,-35.867 318.0007,-28.4572 319.227,-38.997 325.5958,-35.867"/>
</g>
<!-- 0&#45;&gt;1 -->
<!-- 1&#45;&gt;2 -->
<!-- 2&#45;&gt;S -->
<!-- 5379&#45;&gt;0 -->
<g id="edge18" class="edge">
<title>5379&#45;&gt;0</title>
<path fill="none" stroke="#00ff00" stroke-width=".1267" d="M183.7803,-66.4611C181.4396,-57.6959 178.7748,-47.7168 176.4163,-38.8849"/>
<polygon fill="#00ff00" stroke="#00ff00" stroke-width=".1267" points="179.7877,-37.9439 173.8261,-29.1855 173.0247,-39.75 179.7877,-37.9439"/>
</g>
</g>
</svg>
