<?xml version="1.0" encoding="utf-8" standalone="no"?>
<!DOCTYPE svg PUBLIC "-//W3C//DTD SVG 1.1//EN"
  "http://www.w3.org/Graphics/SVG/1.1/DTD/svg11.dtd">
<!-- Created with matplotlib (https://matplotlib.org/) -->
<svg height="345.6pt" version="1.1" viewBox="0 0 460.8 345.6" width="460.8pt" xmlns="http://www.w3.org/2000/svg" xmlns:xlink="http://www.w3.org/1999/xlink">
 <defs>
  <style type="text/css">
*{stroke-linecap:butt;stroke-linejoin:round;}
  </style>
 </defs>
 <g id="figure_1">
  <g id="patch_1">
   <path d="M 0 345.6 
L 460.8 345.6 
L 460.8 0 
L 0 0 
z
" style="fill:#ffffff;"/>
  </g>
  <g id="axes_1">
   <g id="patch_2">
    <path d="M 57.6 307.584 
L 414.72 307.584 
L 414.72 41.472 
L 57.6 41.472 
z
" style="fill:#ffffff;"/>
   </g>
   <g id="matplotlib.axis_1">
    <g id="xtick_1">
     <g id="line2d_1">
      <path clip-path="url(#peb8a8fcabb)" d="M 73.832727 307.584 
L 73.832727 41.472 
" style="fill:none;stroke:#b0b0b0;stroke-linecap:square;stroke-width:0.8;"/>
     </g>
     <g id="line2d_2">
      <defs>
       <path d="M 0 0 
L 0 3.5 
" id="m71273e8431" style="stroke:#000000;stroke-width:0.8;"/>
      </defs>
      <g>
       <use style="stroke:#000000;stroke-width:0.8;" x="73.832727" xlink:href="#m71273e8431" y="307.584"/>
      </g>
     </g>
     <g id="text_1">
      <!-- 0 -->
      <defs>
       <path d="M 31.78125 66.40625 
Q 24.171875 66.40625 20.328125 58.90625 
Q 16.5 51.421875 16.5 36.375 
Q 16.5 21.390625 20.328125 13.890625 
Q 24.171875 6.390625 31.78125 6.390625 
Q 39.453125 6.390625 43.28125 13.890625 
Q 47.125 21.390625 47.125 36.375 
Q 47.125 51.421875 43.28125 58.90625 
Q 39.453125 66.40625 31.78125 66.40625 
z
M 31.78125 74.21875 
Q 44.046875 74.21875 50.515625 64.515625 
Q 56.984375 54.828125 56.984375 36.375 
Q 56.984375 17.96875 50.515625 8.265625 
Q 44.046875 -1.421875 31.78125 -1.421875 
Q 19.53125 -1.421875 13.0625 8.265625 
Q 6.59375 17.96875 6.59375 36.375 
Q 6.59375 54.828125 13.0625 64.515625 
Q 19.53125 74.21875 31.78125 74.21875 
z
" id="DejaVuSans-48"/>
      </defs>
      <g transform="translate(70.651477 322.182437)scale(0.1 -0.1)">
       <use xlink:href="#DejaVuSans-48"/>
      </g>
     </g>
    </g>
    <g id="xtick_2">
     <g id="line2d_3">
      <path clip-path="url(#peb8a8fcabb)" d="M 128.122785 307.584 
L 128.122785 41.472 
" style="fill:none;stroke:#b0b0b0;stroke-linecap:square;stroke-width:0.8;"/>
     </g>
     <g id="line2d_4">
      <g>
       <use style="stroke:#000000;stroke-width:0.8;" x="128.122785" xlink:href="#m71273e8431" y="307.584"/>
      </g>
     </g>
     <g id="text_2">
      <!-- 50 -->
      <defs>
       <path d="M 10.796875 72.90625 
L 49.515625 72.90625 
L 49.515625 64.59375 
L 19.828125 64.59375 
L 19.828125 46.734375 
Q 21.96875 47.46875 24.109375 47.828125 
Q 26.265625 48.1875 28.421875 48.1875 
Q 40.625 48.1875 47.75 41.5 
Q 54.890625 34.8125 54.890625 23.390625 
Q 54.890625 11.625 47.5625 5.09375 
Q 40.234375 -1.421875 26.90625 -1.421875 
Q 22.3125 -1.421875 17.546875 -0.640625 
Q 12.796875 0.140625 7.71875 1.703125 
L 7.71875 11.625 
Q 12.109375 9.234375 16.796875 8.0625 
Q 21.484375 6.890625 26.703125 6.890625 
Q 35.15625 6.890625 40.078125 11.328125 
Q 45.015625 15.765625 45.015625 23.390625 
Q 45.015625 31 40.078125 35.4375 
Q 35.15625 39.890625 26.703125 39.890625 
Q 22.75 39.890625 18.8125 39.015625 
Q 14.890625 38.140625 10.796875 36.28125 
z
" id="DejaVuSans-53"/>
      </defs>
      <g transform="translate(121.760285 322.182437)scale(0.1 -0.1)">
       <use xlink:href="#DejaVuSans-53"/>
       <use x="63.623047" xlink:href="#DejaVuSans-48"/>
      </g>
     </g>
    </g>
    <g id="xtick_3">
     <g id="line2d_5">
      <path clip-path="url(#peb8a8fcabb)" d="M 182.412843 307.584 
L 182.412843 41.472 
" style="fill:none;stroke:#b0b0b0;stroke-linecap:square;stroke-width:0.8;"/>
     </g>
     <g id="line2d_6">
      <g>
       <use style="stroke:#000000;stroke-width:0.8;" x="182.412843" xlink:href="#m71273e8431" y="307.584"/>
      </g>
     </g>
     <g id="text_3">
      <!-- 100 -->
      <defs>
       <path d="M 12.40625 8.296875 
L 28.515625 8.296875 
L 28.515625 63.921875 
L 10.984375 60.40625 
L 10.984375 69.390625 
L 28.421875 72.90625 
L 38.28125 72.90625 
L 38.28125 8.296875 
L 54.390625 8.296875 
L 54.390625 0 
L 12.40625 0 
z
" id="DejaVuSans-49"/>
      </defs>
      <g transform="translate(172.869093 322.182437)scale(0.1 -0.1)">
       <use xlink:href="#DejaVuSans-49"/>
       <use x="63.623047" xlink:href="#DejaVuSans-48"/>
       <use x="127.246094" xlink:href="#DejaVuSans-48"/>
      </g>
     </g>
    </g>
    <g id="xtick_4">
     <g id="line2d_7">
      <path clip-path="url(#peb8a8fcabb)" d="M 236.702901 307.584 
L 236.702901 41.472 
" style="fill:none;stroke:#b0b0b0;stroke-linecap:square;stroke-width:0.8;"/>
     </g>
     <g id="line2d_8">
      <g>
       <use style="stroke:#000000;stroke-width:0.8;" x="236.702901" xlink:href="#m71273e8431" y="307.584"/>
      </g>
     </g>
     <g id="text_4">
      <!-- 150 -->
      <g transform="translate(227.159151 322.182437)scale(0.1 -0.1)">
       <use xlink:href="#DejaVuSans-49"/>
       <use x="63.623047" xlink:href="#DejaVuSans-53"/>
       <use x="127.246094" xlink:href="#DejaVuSans-48"/>
      </g>
     </g>
    </g>
    <g id="xtick_5">
     <g id="line2d_9">
      <path clip-path="url(#peb8a8fcabb)" d="M 290.992958 307.584 
L 290.992958 41.472 
" style="fill:none;stroke:#b0b0b0;stroke-linecap:square;stroke-width:0.8;"/>
     </g>
     <g id="line2d_10">
      <g>
       <use style="stroke:#000000;stroke-width:0.8;" x="290.992958" xlink:href="#m71273e8431" y="307.584"/>
      </g>
     </g>
     <g id="text_5">
      <!-- 200 -->
      <defs>
       <path d="M 19.1875 8.296875 
L 53.609375 8.296875 
L 53.609375 0 
L 7.328125 0 
L 7.328125 8.296875 
Q 12.9375 14.109375 22.625 23.890625 
Q 32.328125 33.6875 34.8125 36.53125 
Q 39.546875 41.84375 41.421875 45.53125 
Q 43.3125 49.21875 43.3125 52.78125 
Q 43.3125 58.59375 39.234375 62.25 
Q 35.15625 65.921875 28.609375 65.921875 
Q 23.96875 65.921875 18.8125 64.3125 
Q 13.671875 62.703125 7.8125 59.421875 
L 7.8125 69.390625 
Q 13.765625 71.78125 18.9375 73 
Q 24.125 74.21875 28.421875 74.21875 
Q 39.75 74.21875 46.484375 68.546875 
Q 53.21875 62.890625 53.21875 53.421875 
Q 53.21875 48.921875 51.53125 44.890625 
Q 49.859375 40.875 45.40625 35.40625 
Q 44.1875 33.984375 37.640625 27.21875 
Q 31.109375 20.453125 19.1875 8.296875 
z
" id="DejaVuSans-50"/>
      </defs>
      <g transform="translate(281.449208 322.182437)scale(0.1 -0.1)">
       <use xlink:href="#DejaVuSans-50"/>
       <use x="63.623047" xlink:href="#DejaVuSans-48"/>
       <use x="127.246094" xlink:href="#DejaVuSans-48"/>
      </g>
     </g>
    </g>
    <g id="xtick_6">
     <g id="line2d_11">
      <path clip-path="url(#peb8a8fcabb)" d="M 345.283016 307.584 
L 345.283016 41.472 
" style="fill:none;stroke:#b0b0b0;stroke-linecap:square;stroke-width:0.8;"/>
     </g>
     <g id="line2d_12">
      <g>
       <use style="stroke:#000000;stroke-width:0.8;" x="345.283016" xlink:href="#m71273e8431" y="307.584"/>
      </g>
     </g>
     <g id="text_6">
      <!-- 250 -->
      <g transform="translate(335.739266 322.182437)scale(0.1 -0.1)">
       <use xlink:href="#DejaVuSans-50"/>
       <use x="63.623047" xlink:href="#DejaVuSans-53"/>
       <use x="127.246094" xlink:href="#DejaVuSans-48"/>
      </g>
     </g>
    </g>
    <g id="xtick_7">
     <g id="line2d_13">
      <path clip-path="url(#peb8a8fcabb)" d="M 399.573074 307.584 
L 399.573074 41.472 
" style="fill:none;stroke:#b0b0b0;stroke-linecap:square;stroke-width:0.8;"/>
     </g>
     <g id="line2d_14">
      <g>
       <use style="stroke:#000000;stroke-width:0.8;" x="399.573074" xlink:href="#m71273e8431" y="307.584"/>
      </g>
     </g>
     <g id="text_7">
      <!-- 300 -->
      <defs>
       <path d="M 40.578125 39.3125 
Q 47.65625 37.796875 51.625 33 
Q 55.609375 28.21875 55.609375 21.1875 
Q 55.609375 10.40625 48.1875 4.484375 
Q 40.765625 -1.421875 27.09375 -1.421875 
Q 22.515625 -1.421875 17.65625 -0.515625 
Q 12.796875 0.390625 7.625 2.203125 
L 7.625 11.71875 
Q 11.71875 9.328125 16.59375 8.109375 
Q 21.484375 6.890625 26.8125 6.890625 
Q 36.078125 6.890625 40.9375 10.546875 
Q 45.796875 14.203125 45.796875 21.1875 
Q 45.796875 27.640625 41.28125 31.265625 
Q 36.765625 34.90625 28.71875 34.90625 
L 20.21875 34.90625 
L 20.21875 43.015625 
L 29.109375 43.015625 
Q 36.375 43.015625 40.234375 45.921875 
Q 44.09375 48.828125 44.09375 54.296875 
Q 44.09375 59.90625 40.109375 62.90625 
Q 36.140625 65.921875 28.71875 65.921875 
Q 24.65625 65.921875 20.015625 65.03125 
Q 15.375 64.15625 9.8125 62.3125 
L 9.8125 71.09375 
Q 15.4375 72.65625 20.34375 73.4375 
Q 25.25 74.21875 29.59375 74.21875 
Q 40.828125 74.21875 47.359375 69.109375 
Q 53.90625 64.015625 53.90625 55.328125 
Q 53.90625 49.265625 50.4375 45.09375 
Q 46.96875 40.921875 40.578125 39.3125 
z
" id="DejaVuSans-51"/>
      </defs>
      <g transform="translate(390.029324 322.182437)scale(0.1 -0.1)">
       <use xlink:href="#DejaVuSans-51"/>
       <use x="63.623047" xlink:href="#DejaVuSans-48"/>
       <use x="127.246094" xlink:href="#DejaVuSans-48"/>
      </g>
     </g>
    </g>
    <g id="text_8">
     <!-- Generations -->
     <defs>
      <path d="M 59.515625 10.40625 
L 59.515625 29.984375 
L 43.40625 29.984375 
L 43.40625 38.09375 
L 69.28125 38.09375 
L 69.28125 6.78125 
Q 63.578125 2.734375 56.6875 0.65625 
Q 49.8125 -1.421875 42 -1.421875 
Q 24.90625 -1.421875 15.25 8.5625 
Q 5.609375 18.5625 5.609375 36.375 
Q 5.609375 54.25 15.25 64.234375 
Q 24.90625 74.21875 42 74.21875 
Q 49.125 74.21875 55.546875 72.453125 
Q 61.96875 70.703125 67.390625 67.28125 
L 67.390625 56.78125 
Q 61.921875 61.421875 55.765625 63.765625 
Q 49.609375 66.109375 42.828125 66.109375 
Q 29.4375 66.109375 22.71875 58.640625 
Q 16.015625 51.171875 16.015625 36.375 
Q 16.015625 21.625 22.71875 14.15625 
Q 29.4375 6.6875 42.828125 6.6875 
Q 48.046875 6.6875 52.140625 7.59375 
Q 56.25 8.5 59.515625 10.40625 
z
" id="DejaVuSans-71"/>
      <path d="M 56.203125 29.59375 
L 56.203125 25.203125 
L 14.890625 25.203125 
Q 15.484375 15.921875 20.484375 11.0625 
Q 25.484375 6.203125 34.421875 6.203125 
Q 39.59375 6.203125 44.453125 7.46875 
Q 49.3125 8.734375 54.109375 11.28125 
L 54.109375 2.78125 
Q 49.265625 0.734375 44.1875 -0.34375 
Q 39.109375 -1.421875 33.890625 -1.421875 
Q 20.796875 -1.421875 13.15625 6.1875 
Q 5.515625 13.8125 5.515625 26.8125 
Q 5.515625 40.234375 12.765625 48.109375 
Q 20.015625 56 32.328125 56 
Q 43.359375 56 49.78125 48.890625 
Q 56.203125 41.796875 56.203125 29.59375 
z
M 47.21875 32.234375 
Q 47.125 39.59375 43.09375 43.984375 
Q 39.0625 48.390625 32.421875 48.390625 
Q 24.90625 48.390625 20.390625 44.140625 
Q 15.875 39.890625 15.1875 32.171875 
z
" id="DejaVuSans-101"/>
      <path d="M 54.890625 33.015625 
L 54.890625 0 
L 45.90625 0 
L 45.90625 32.71875 
Q 45.90625 40.484375 42.875 44.328125 
Q 39.84375 48.1875 33.796875 48.1875 
Q 26.515625 48.1875 22.3125 43.546875 
Q 18.109375 38.921875 18.109375 30.90625 
L 18.109375 0 
L 9.078125 0 
L 9.078125 54.6875 
L 18.109375 54.6875 
L 18.109375 46.1875 
Q 21.34375 51.125 25.703125 53.5625 
Q 30.078125 56 35.796875 56 
Q 45.21875 56 50.046875 50.171875 
Q 54.890625 44.34375 54.890625 33.015625 
z
" id="DejaVuSans-110"/>
      <path d="M 41.109375 46.296875 
Q 39.59375 47.171875 37.8125 47.578125 
Q 36.03125 48 33.890625 48 
Q 26.265625 48 22.1875 43.046875 
Q 18.109375 38.09375 18.109375 28.8125 
L 18.109375 0 
L 9.078125 0 
L 9.078125 54.6875 
L 18.109375 54.6875 
L 18.109375 46.1875 
Q 20.953125 51.171875 25.484375 53.578125 
Q 30.03125 56 36.53125 56 
Q 37.453125 56 38.578125 55.875 
Q 39.703125 55.765625 41.0625 55.515625 
z
" id="DejaVuSans-114"/>
      <path d="M 34.28125 27.484375 
Q 23.390625 27.484375 19.1875 25 
Q 14.984375 22.515625 14.984375 16.5 
Q 14.984375 11.71875 18.140625 8.90625 
Q 21.296875 6.109375 26.703125 6.109375 
Q 34.1875 6.109375 38.703125 11.40625 
Q 43.21875 16.703125 43.21875 25.484375 
L 43.21875 27.484375 
z
M 52.203125 31.203125 
L 52.203125 0 
L 43.21875 0 
L 43.21875 8.296875 
Q 40.140625 3.328125 35.546875 0.953125 
Q 30.953125 -1.421875 24.3125 -1.421875 
Q 15.921875 -1.421875 10.953125 3.296875 
Q 6 8.015625 6 15.921875 
Q 6 25.140625 12.171875 29.828125 
Q 18.359375 34.515625 30.609375 34.515625 
L 43.21875 34.515625 
L 43.21875 35.40625 
Q 43.21875 41.609375 39.140625 45 
Q 35.0625 48.390625 27.6875 48.390625 
Q 23 48.390625 18.546875 47.265625 
Q 14.109375 46.140625 10.015625 43.890625 
L 10.015625 52.203125 
Q 14.9375 54.109375 19.578125 55.046875 
Q 24.21875 56 28.609375 56 
Q 40.484375 56 46.34375 49.84375 
Q 52.203125 43.703125 52.203125 31.203125 
z
" id="DejaVuSans-97"/>
      <path d="M 18.3125 70.21875 
L 18.3125 54.6875 
L 36.8125 54.6875 
L 36.8125 47.703125 
L 18.3125 47.703125 
L 18.3125 18.015625 
Q 18.3125 11.328125 20.140625 9.421875 
Q 21.96875 7.515625 27.59375 7.515625 
L 36.8125 7.515625 
L 36.8125 0 
L 27.59375 0 
Q 17.1875 0 13.234375 3.875 
Q 9.28125 7.765625 9.28125 18.015625 
L 9.28125 47.703125 
L 2.6875 47.703125 
L 2.6875 54.6875 
L 9.28125 54.6875 
L 9.28125 70.21875 
z
" id="DejaVuSans-116"/>
      <path d="M 9.421875 54.6875 
L 18.40625 54.6875 
L 18.40625 0 
L 9.421875 0 
z
M 9.421875 75.984375 
L 18.40625 75.984375 
L 18.40625 64.59375 
L 9.421875 64.59375 
z
" id="DejaVuSans-105"/>
      <path d="M 30.609375 48.390625 
Q 23.390625 48.390625 19.1875 42.75 
Q 14.984375 37.109375 14.984375 27.296875 
Q 14.984375 17.484375 19.15625 11.84375 
Q 23.34375 6.203125 30.609375 6.203125 
Q 37.796875 6.203125 41.984375 11.859375 
Q 46.1875 17.53125 46.1875 27.296875 
Q 46.1875 37.015625 41.984375 42.703125 
Q 37.796875 48.390625 30.609375 48.390625 
z
M 30.609375 56 
Q 42.328125 56 49.015625 48.375 
Q 55.71875 40.765625 55.71875 27.296875 
Q 55.71875 13.875 49.015625 6.21875 
Q 42.328125 -1.421875 30.609375 -1.421875 
Q 18.84375 -1.421875 12.171875 6.21875 
Q 5.515625 13.875 5.515625 27.296875 
Q 5.515625 40.765625 12.171875 48.375 
Q 18.84375 56 30.609375 56 
z
" id="DejaVuSans-111"/>
      <path d="M 44.28125 53.078125 
L 44.28125 44.578125 
Q 40.484375 46.53125 36.375 47.5 
Q 32.28125 48.484375 27.875 48.484375 
Q 21.1875 48.484375 17.84375 46.4375 
Q 14.5 44.390625 14.5 40.28125 
Q 14.5 37.15625 16.890625 35.375 
Q 19.28125 33.59375 26.515625 31.984375 
L 29.59375 31.296875 
Q 39.15625 29.25 43.1875 25.515625 
Q 47.21875 21.78125 47.21875 15.09375 
Q 47.21875 7.46875 41.1875 3.015625 
Q 35.15625 -1.421875 24.609375 -1.421875 
Q 20.21875 -1.421875 15.453125 -0.5625 
Q 10.6875 0.296875 5.421875 2 
L 5.421875 11.28125 
Q 10.40625 8.6875 15.234375 7.390625 
Q 20.0625 6.109375 24.8125 6.109375 
Q 31.15625 6.109375 34.5625 8.28125 
Q 37.984375 10.453125 37.984375 14.40625 
Q 37.984375 18.0625 35.515625 20.015625 
Q 33.0625 21.96875 24.703125 23.78125 
L 21.578125 24.515625 
Q 13.234375 26.265625 9.515625 29.90625 
Q 5.8125 33.546875 5.8125 39.890625 
Q 5.8125 47.609375 11.28125 51.796875 
Q 16.75 56 26.8125 56 
Q 31.78125 56 36.171875 55.265625 
Q 40.578125 54.546875 44.28125 53.078125 
z
" id="DejaVuSans-115"/>
     </defs>
     <g transform="translate(205.662344 335.860562)scale(0.1 -0.1)">
      <use xlink:href="#DejaVuSans-71"/>
      <use x="77.490234" xlink:href="#DejaVuSans-101"/>
      <use x="139.013672" xlink:href="#DejaVuSans-110"/>
      <use x="202.392578" xlink:href="#DejaVuSans-101"/>
      <use x="263.916016" xlink:href="#DejaVuSans-114"/>
      <use x="305.029297" xlink:href="#DejaVuSans-97"/>
      <use x="366.308594" xlink:href="#DejaVuSans-116"/>
      <use x="405.517578" xlink:href="#DejaVuSans-105"/>
      <use x="433.300781" xlink:href="#DejaVuSans-111"/>
      <use x="494.482422" xlink:href="#DejaVuSans-110"/>
      <use x="557.861328" xlink:href="#DejaVuSans-115"/>
     </g>
    </g>
   </g>
   <g id="matplotlib.axis_2">
    <g id="ytick_1">
     <g id="line2d_15">
      <path clip-path="url(#peb8a8fcabb)" d="M 57.6 306.550852 
L 414.72 306.550852 
" style="fill:none;stroke:#b0b0b0;stroke-linecap:square;stroke-width:0.8;"/>
     </g>
     <g id="line2d_16">
      <defs>
       <path d="M 0 0 
L -3.5 0 
" id="m16d60ddea2" style="stroke:#000000;stroke-width:0.8;"/>
      </defs>
      <g>
       <use style="stroke:#000000;stroke-width:0.8;" x="57.6" xlink:href="#m16d60ddea2" y="306.550852"/>
      </g>
     </g>
     <g id="text_9">
      <!-- 500 -->
      <g transform="translate(31.5125 310.350071)scale(0.1 -0.1)">
       <use xlink:href="#DejaVuSans-53"/>
       <use x="63.623047" xlink:href="#DejaVuSans-48"/>
       <use x="127.246094" xlink:href="#DejaVuSans-48"/>
      </g>
     </g>
    </g>
    <g id="ytick_2">
     <g id="line2d_17">
      <path clip-path="url(#peb8a8fcabb)" d="M 57.6 271.387198 
L 414.72 271.387198 
" style="fill:none;stroke:#b0b0b0;stroke-linecap:square;stroke-width:0.8;"/>
     </g>
     <g id="line2d_18">
      <g>
       <use style="stroke:#000000;stroke-width:0.8;" x="57.6" xlink:href="#m16d60ddea2" y="271.387198"/>
      </g>
     </g>
     <g id="text_10">
      <!-- 750 -->
      <defs>
       <path d="M 8.203125 72.90625 
L 55.078125 72.90625 
L 55.078125 68.703125 
L 28.609375 0 
L 18.3125 0 
L 43.21875 64.59375 
L 8.203125 64.59375 
z
" id="DejaVuSans-55"/>
      </defs>
      <g transform="translate(31.5125 275.186417)scale(0.1 -0.1)">
       <use xlink:href="#DejaVuSans-55"/>
       <use x="63.623047" xlink:href="#DejaVuSans-53"/>
       <use x="127.246094" xlink:href="#DejaVuSans-48"/>
      </g>
     </g>
    </g>
    <g id="ytick_3">
     <g id="line2d_19">
      <path clip-path="url(#peb8a8fcabb)" d="M 57.6 236.223545 
L 414.72 236.223545 
" style="fill:none;stroke:#b0b0b0;stroke-linecap:square;stroke-width:0.8;"/>
     </g>
     <g id="line2d_20">
      <g>
       <use style="stroke:#000000;stroke-width:0.8;" x="57.6" xlink:href="#m16d60ddea2" y="236.223545"/>
      </g>
     </g>
     <g id="text_11">
      <!-- 1000 -->
      <g transform="translate(25.15 240.022764)scale(0.1 -0.1)">
       <use xlink:href="#DejaVuSans-49"/>
       <use x="63.623047" xlink:href="#DejaVuSans-48"/>
       <use x="127.246094" xlink:href="#DejaVuSans-48"/>
       <use x="190.869141" xlink:href="#DejaVuSans-48"/>
      </g>
     </g>
    </g>
    <g id="ytick_4">
     <g id="line2d_21">
      <path clip-path="url(#peb8a8fcabb)" d="M 57.6 201.059891 
L 414.72 201.059891 
" style="fill:none;stroke:#b0b0b0;stroke-linecap:square;stroke-width:0.8;"/>
     </g>
     <g id="line2d_22">
      <g>
       <use style="stroke:#000000;stroke-width:0.8;" x="57.6" xlink:href="#m16d60ddea2" y="201.059891"/>
      </g>
     </g>
     <g id="text_12">
      <!-- 1250 -->
      <g transform="translate(25.15 204.85911)scale(0.1 -0.1)">
       <use xlink:href="#DejaVuSans-49"/>
       <use x="63.623047" xlink:href="#DejaVuSans-50"/>
       <use x="127.246094" xlink:href="#DejaVuSans-53"/>
       <use x="190.869141" xlink:href="#DejaVuSans-48"/>
      </g>
     </g>
    </g>
    <g id="ytick_5">
     <g id="line2d_23">
      <path clip-path="url(#peb8a8fcabb)" d="M 57.6 165.896238 
L 414.72 165.896238 
" style="fill:none;stroke:#b0b0b0;stroke-linecap:square;stroke-width:0.8;"/>
     </g>
     <g id="line2d_24">
      <g>
       <use style="stroke:#000000;stroke-width:0.8;" x="57.6" xlink:href="#m16d60ddea2" y="165.896238"/>
      </g>
     </g>
     <g id="text_13">
      <!-- 1500 -->
      <g transform="translate(25.15 169.695457)scale(0.1 -0.1)">
       <use xlink:href="#DejaVuSans-49"/>
       <use x="63.623047" xlink:href="#DejaVuSans-53"/>
       <use x="127.246094" xlink:href="#DejaVuSans-48"/>
       <use x="190.869141" xlink:href="#DejaVuSans-48"/>
      </g>
     </g>
    </g>
    <g id="ytick_6">
     <g id="line2d_25">
      <path clip-path="url(#peb8a8fcabb)" d="M 57.6 130.732584 
L 414.72 130.732584 
" style="fill:none;stroke:#b0b0b0;stroke-linecap:square;stroke-width:0.8;"/>
     </g>
     <g id="line2d_26">
      <g>
       <use style="stroke:#000000;stroke-width:0.8;" x="57.6" xlink:href="#m16d60ddea2" y="130.732584"/>
      </g>
     </g>
     <g id="text_14">
      <!-- 1750 -->
      <g transform="translate(25.15 134.531803)scale(0.1 -0.1)">
       <use xlink:href="#DejaVuSans-49"/>
       <use x="63.623047" xlink:href="#DejaVuSans-55"/>
       <use x="127.246094" xlink:href="#DejaVuSans-53"/>
       <use x="190.869141" xlink:href="#DejaVuSans-48"/>
      </g>
     </g>
    </g>
    <g id="ytick_7">
     <g id="line2d_27">
      <path clip-path="url(#peb8a8fcabb)" d="M 57.6 95.568931 
L 414.72 95.568931 
" style="fill:none;stroke:#b0b0b0;stroke-linecap:square;stroke-width:0.8;"/>
     </g>
     <g id="line2d_28">
      <g>
       <use style="stroke:#000000;stroke-width:0.8;" x="57.6" xlink:href="#m16d60ddea2" y="95.568931"/>
      </g>
     </g>
     <g id="text_15">
      <!-- 2000 -->
      <g transform="translate(25.15 99.36815)scale(0.1 -0.1)">
       <use xlink:href="#DejaVuSans-50"/>
       <use x="63.623047" xlink:href="#DejaVuSans-48"/>
       <use x="127.246094" xlink:href="#DejaVuSans-48"/>
       <use x="190.869141" xlink:href="#DejaVuSans-48"/>
      </g>
     </g>
    </g>
    <g id="ytick_8">
     <g id="line2d_29">
      <path clip-path="url(#peb8a8fcabb)" d="M 57.6 60.405277 
L 414.72 60.405277 
" style="fill:none;stroke:#b0b0b0;stroke-linecap:square;stroke-width:0.8;"/>
     </g>
     <g id="line2d_30">
      <g>
       <use style="stroke:#000000;stroke-width:0.8;" x="57.6" xlink:href="#m16d60ddea2" y="60.405277"/>
      </g>
     </g>
     <g id="text_16">
      <!-- 2250 -->
      <g transform="translate(25.15 64.204496)scale(0.1 -0.1)">
       <use xlink:href="#DejaVuSans-50"/>
       <use x="63.623047" xlink:href="#DejaVuSans-50"/>
       <use x="127.246094" xlink:href="#DejaVuSans-53"/>
       <use x="190.869141" xlink:href="#DejaVuSans-48"/>
      </g>
     </g>
    </g>
    <g id="text_17">
     <!-- Fitness -->
     <defs>
      <path d="M 9.8125 72.90625 
L 51.703125 72.90625 
L 51.703125 64.59375 
L 19.671875 64.59375 
L 19.671875 43.109375 
L 48.578125 43.109375 
L 48.578125 34.8125 
L 19.671875 34.8125 
L 19.671875 0 
L 9.8125 0 
z
" id="DejaVuSans-70"/>
     </defs>
     <g transform="translate(19.070312 192.202219)rotate(-90)scale(0.1 -0.1)">
      <use xlink:href="#DejaVuSans-70"/>
      <use x="57.410156" xlink:href="#DejaVuSans-105"/>
      <use x="85.193359" xlink:href="#DejaVuSans-116"/>
      <use x="124.402344" xlink:href="#DejaVuSans-110"/>
      <use x="187.78125" xlink:href="#DejaVuSans-101"/>
      <use x="249.304688" xlink:href="#DejaVuSans-115"/>
      <use x="301.404297" xlink:href="#DejaVuSans-115"/>
     </g>
    </g>
   </g>
   <g id="line2d_31">
    <path clip-path="url(#peb8a8fcabb)" d="M 73.832727 248.396562 
L 74.918528 215.671414 
L 76.00433 210.351332 
L 77.090131 208.965873 
L 78.175932 202.911131 
L 79.261733 210.401125 
L 80.347534 206.361989 
L 81.433335 168.612631 
L 82.519137 178.104403 
L 83.604938 169.215452 
L 84.690739 163.450833 
L 85.77654 163.838071 
L 86.862341 162.014765 
L 87.948142 157.162821 
L 89.033943 170.022616 
L 90.119745 166.362156 
L 91.205546 166.830298 
L 92.291347 155.780828 
L 93.377148 152.878683 
L 94.462949 150.767364 
L 95.54875 157.265802 
L 96.634552 161.30903 
L 97.720353 154.901861 
L 98.806154 153.834838 
L 99.891955 163.493723 
L 100.977756 156.912542 
L 102.063557 140.614037 
L 103.149358 159.870297 
L 104.23516 141.157765 
L 105.320961 139.315941 
L 106.406762 136.953725 
L 107.492563 149.122832 
L 108.578364 142.525197 
L 109.664165 148.485338 
L 110.749967 136.307608 
L 111.835768 141.187223 
L 112.921569 153.443315 
L 114.00737 132.348558 
L 115.093171 135.757466 
L 116.178972 135.978301 
L 117.264773 130.621269 
L 118.350575 139.221115 
L 119.436376 137.80243 
L 120.522177 125.76573 
L 121.607978 164.27691 
L 122.693779 143.54493 
L 123.77958 161.841257 
L 124.865382 158.368583 
L 125.951183 142.389254 
L 127.036984 140.285782 
L 128.122785 135.664546 
L 129.208586 132.138378 
L 130.294387 132.32526 
L 131.380189 143.418809 
L 132.46599 143.811728 
L 133.551791 148.858435 
L 134.637592 142.749169 
L 135.723393 162.80202 
L 136.809194 142.236931 
L 137.894995 149.517291 
L 138.980797 130.59626 
L 140.066598 128.233213 
L 141.152399 134.91528 
L 142.2382 142.478651 
L 143.324001 140.572904 
L 144.409802 149.615947 
L 145.495604 147.03847 
L 146.581405 147.77516 
L 147.667206 127.173002 
L 148.753007 138.27624 
L 149.838808 134.541025 
L 150.924609 138.086275 
L 152.01041 135.142897 
L 153.096212 131.49174 
L 154.182013 128.634859 
L 155.267814 129.219904 
L 156.353615 145.480344 
L 157.439416 130.474746 
L 158.525217 129.109758 
L 159.611019 132.018178 
L 160.69682 118.707151 
L 161.782621 142.511492 
L 162.868422 131.973081 
L 163.954223 131.196597 
L 165.040024 126.897285 
L 166.125825 134.923089 
L 167.211627 125.52253 
L 168.297428 123.34413 
L 169.383229 132.53441 
L 170.46903 124.005724 
L 171.554831 131.003658 
L 172.640632 122.051485 
L 173.726434 126.326409 
L 174.812235 135.701144 
L 175.898036 135.799473 
L 176.983837 136.493288 
L 178.069638 134.08447 
L 179.155439 147.677219 
L 180.24124 170.029104 
L 181.327042 165.272435 
L 182.412843 145.545834 
L 183.498644 147.784484 
L 184.584445 145.890021 
L 185.670246 166.516238 
L 186.756047 174.302136 
L 187.841849 146.980242 
L 188.92765 177.178364 
L 190.013451 151.24745 
L 191.099252 163.595029 
L 192.185053 152.953611 
L 193.270854 152.963049 
L 194.356656 143.98968 
L 195.442457 139.533428 
L 196.528258 140.758697 
L 197.614059 136.228382 
L 198.69986 121.520581 
L 199.785661 137.099295 
L 200.871462 144.577521 
L 201.957264 171.608298 
L 203.043065 158.150838 
L 204.128866 165.811245 
L 205.214667 123.121039 
L 206.300468 125.545288 
L 207.386269 150.62041 
L 208.472071 147.22815 
L 209.557872 159.706234 
L 210.643673 155.770547 
L 211.729474 147.26118 
L 212.815275 148.699698 
L 213.901076 153.05819 
L 214.986877 160.797292 
L 216.072679 146.616165 
L 217.15848 165.141487 
L 218.244281 146.037864 
L 219.330082 151.715413 
L 220.415883 154.458004 
L 221.501684 152.961927 
L 222.587486 140.331999 
L 223.673287 146.905096 
L 224.759088 149.119542 
L 225.844889 145.4757 
L 226.93069 140.392833 
L 228.016491 146.485857 
L 229.102292 134.12373 
L 230.188094 163.904823 
L 231.273895 145.199267 
L 232.359696 122.447164 
L 233.445497 145.052947 
L 234.531298 118.161345 
L 235.617099 125.372532 
L 236.702901 139.361268 
L 237.788702 130.525551 
L 238.874503 133.824122 
L 239.960304 130.766359 
L 241.046105 145.025385 
L 242.131906 131.669338 
L 243.217708 141.843807 
L 244.303509 129.402015 
L 245.38931 152.003672 
L 246.475111 144.430489 
L 247.560912 133.085506 
L 248.646713 124.387675 
L 249.732514 167.05806 
L 250.818316 143.475763 
L 251.904117 160.958398 
L 254.075719 142.726706 
L 255.16152 124.585634 
L 256.247321 123.517205 
L 257.333123 153.705486 
L 258.418924 132.4467 
L 259.504725 146.483343 
L 260.590526 151.268129 
L 261.676327 153.617595 
L 262.762128 173.760216 
L 263.847929 146.449846 
L 264.933731 146.834416 
L 266.019532 144.130191 
L 267.105333 163.101035 
L 268.191134 163.502 
L 269.276935 159.868215 
L 270.362736 139.446226 
L 271.448538 155.95393 
L 273.62014 142.837475 
L 274.705941 145.750074 
L 275.791742 183.699299 
L 276.877543 153.183998 
L 277.963344 166.345352 
L 279.049146 166.023158 
L 280.134947 154.879564 
L 281.220748 151.105395 
L 283.39235 162.479636 
L 284.478151 155.173363 
L 285.563953 163.226572 
L 286.649754 141.246408 
L 287.735555 159.719954 
L 288.821356 139.89587 
L 289.907157 145.331988 
L 290.992958 154.258785 
L 292.07876 145.831006 
L 293.164561 144.122814 
L 294.250362 158.940561 
L 295.336163 153.912368 
L 296.421964 154.83641 
L 297.507765 148.697677 
L 298.593566 145.173897 
L 299.679368 154.839347 
L 300.765169 142.975884 
L 301.85097 161.631049 
L 302.936771 148.54614 
L 304.022572 121.519355 
L 305.108373 146.667249 
L 306.194175 130.826882 
L 307.279976 150.991666 
L 308.365777 141.696208 
L 309.451578 134.707265 
L 310.537379 128.977266 
L 311.62318 167.988648 
L 312.708981 152.621263 
L 313.794783 139.590638 
L 314.880584 151.636681 
L 315.966385 130.746717 
L 317.052186 133.046137 
L 318.137987 143.154827 
L 319.223788 145.153125 
L 320.30959 140.434205 
L 321.395391 127.538657 
L 322.481192 128.920884 
L 323.566993 130.851951 
L 324.652794 122.650363 
L 325.738595 126.872128 
L 326.824396 119.387931 
L 327.910198 115.677391 
L 328.995999 131.20899 
L 330.0818 136.065491 
L 331.167601 114.003072 
L 332.253402 119.751796 
L 333.339203 120.557786 
L 334.425005 137.116984 
L 335.510806 133.753402 
L 336.596607 122.189803 
L 337.682408 126.941159 
L 338.768209 127.076733 
L 339.85401 123.64325 
L 340.939811 126.391135 
L 342.025613 142.009066 
L 343.111414 143.413944 
L 344.197215 129.738509 
L 345.283016 145.407162 
L 347.454618 120.485748 
L 348.54042 132.82129 
L 349.626221 126.750991 
L 350.712022 103.522485 
L 351.797823 108.07141 
L 352.883624 116.911782 
L 353.969425 111.522498 
L 355.055227 124.346017 
L 356.141028 98.602993 
L 357.226829 116.204692 
L 358.31263 115.340308 
L 359.398431 108.028813 
L 360.484232 106.874252 
L 361.570033 104.351438 
L 362.655835 109.897154 
L 363.741636 95.912132 
L 364.827437 122.164202 
L 365.913238 107.820696 
L 366.999039 107.045307 
L 368.08484 109.577045 
L 369.170642 106.537353 
L 370.256443 114.331197 
L 371.342244 102.666463 
L 372.428045 109.365201 
L 373.513846 118.111654 
L 374.599647 101.883814 
L 375.685448 111.802718 
L 376.77125 118.855277 
L 377.857051 104.346072 
L 378.942852 113.927485 
L 380.028653 125.639502 
L 381.114454 109.16263 
L 382.200255 138.500256 
L 383.286057 115.954494 
L 384.371858 134.964381 
L 385.457659 118.788856 
L 386.54346 116.273306 
L 387.629261 115.020816 
L 388.715062 137.650581 
L 389.800863 117.371049 
L 390.886665 110.75851 
L 391.972466 116.172672 
L 393.058267 104.981901 
L 394.144068 125.345873 
L 395.229869 109.25927 
L 396.31567 128.245402 
L 397.401472 127.853559 
L 398.487273 120.375896 
L 398.487273 120.375896 
" style="fill:none;stroke:#0000ff;stroke-linecap:square;stroke-width:1.5;"/>
   </g>
   <g id="line2d_32">
    <path clip-path="url(#peb8a8fcabb)" d="M 73.832727 295.488 
L 74.918528 246.345661 
L 76.00433 238.740542 
L 77.090131 237.167817 
L 78.175932 232.121744 
L 79.261733 245.328876 
L 80.347534 246.023825 
L 81.433335 186.561093 
L 82.519137 222.115225 
L 83.604938 210.533177 
L 84.690739 191.662322 
L 85.77654 195.555457 
L 86.862341 195.11452 
L 87.948142 190.584033 
L 89.033943 212.219646 
L 90.119745 206.592771 
L 91.205546 193.794131 
L 92.291347 183.739064 
L 93.377148 187.144468 
L 94.462949 181.84095 
L 95.54875 195.931815 
L 96.634552 204.854114 
L 97.720353 190.628174 
L 98.806154 183.533641 
L 99.891955 197.194153 
L 100.977756 196.983769 
L 102.063557 156.742998 
L 103.149358 199.676602 
L 104.23516 171.375879 
L 105.320961 160.803949 
L 106.406762 160.297261 
L 107.492563 182.534406 
L 108.578364 179.705023 
L 109.664165 207.909557 
L 110.749967 167.090746 
L 111.835768 178.30614 
L 112.921569 196.125234 
L 114.00737 168.376927 
L 115.093171 154.939976 
L 116.178972 152.529829 
L 117.264773 164.103827 
L 118.350575 201.293689 
L 119.436376 188.63874 
L 120.522177 156.172037 
L 121.607978 218.271828 
L 122.693779 186.958504 
L 123.77958 221.549851 
L 124.865382 218.309301 
L 125.951183 197.181749 
L 128.122785 172.326506 
L 129.208586 168.798321 
L 130.294387 169.708267 
L 131.380189 180.730267 
L 132.46599 190.129943 
L 133.551791 201.122358 
L 134.637592 199.590314 
L 135.723393 221.627776 
L 136.809194 193.075873 
L 137.894995 215.137484 
L 138.980797 171.347043 
L 140.066598 158.842007 
L 141.152399 166.441835 
L 142.2382 182.246628 
L 143.324001 185.457003 
L 144.409802 186.571217 
L 145.495604 196.770197 
L 146.581405 184.016852 
L 147.667206 162.326613 
L 148.753007 169.405492 
L 149.838808 172.799871 
L 150.924609 189.745939 
L 152.01041 152.644986 
L 153.096212 173.911744 
L 155.267814 148.574955 
L 156.353615 182.871551 
L 157.439416 168.134195 
L 158.525217 150.829858 
L 159.611019 184.382888 
L 160.69682 151.58107 
L 161.782621 199.122492 
L 162.868422 180.269876 
L 163.954223 172.981724 
L 165.040024 168.203806 
L 166.125825 183.500696 
L 167.211627 158.777776 
L 168.297428 152.560771 
L 169.383229 178.503635 
L 170.46903 164.033564 
L 171.554831 162.503061 
L 172.640632 154.394495 
L 173.726434 157.649082 
L 174.812235 186.790381 
L 175.898036 158.790994 
L 176.983837 175.171877 
L 178.069638 183.95732 
L 179.155439 206.794622 
L 180.24124 215.968053 
L 181.327042 209.348147 
L 182.412843 207.965789 
L 183.498644 212.542697 
L 184.584445 183.622304 
L 185.670246 237.093276 
L 186.756047 221.740941 
L 187.841849 195.178502 
L 188.92765 237.503346 
L 190.013451 198.263487 
L 191.099252 223.407603 
L 192.185053 217.395971 
L 193.270854 217.845108 
L 194.356656 205.609417 
L 195.442457 191.876197 
L 196.528258 192.293296 
L 197.614059 190.040441 
L 198.69986 151.490581 
L 200.871462 209.401563 
L 201.957264 235.192976 
L 203.043065 224.978562 
L 204.128866 226.840915 
L 205.214667 168.375996 
L 206.300468 169.886234 
L 207.386269 190.824131 
L 208.472071 202.359459 
L 209.557872 228.656089 
L 210.643673 205.805739 
L 211.729474 201.587218 
L 212.815275 214.581176 
L 213.901076 209.169046 
L 214.986877 232.773508 
L 216.072679 217.482197 
L 217.15848 237.698396 
L 218.244281 209.496805 
L 219.330082 217.675204 
L 220.415883 221.996313 
L 221.501684 217.139811 
L 222.587486 198.435903 
L 223.673287 204.497155 
L 224.759088 205.863617 
L 225.844889 203.770434 
L 226.93069 199.314599 
L 228.016491 202.387363 
L 229.102292 196.068204 
L 230.188094 233.807952 
L 232.359696 175.892295 
L 233.445497 222.993322 
L 234.531298 158.584273 
L 235.617099 175.019548 
L 236.702901 204.742485 
L 237.788702 169.044316 
L 238.874503 183.895613 
L 239.960304 185.765727 
L 241.046105 198.54506 
L 242.131906 172.145088 
L 243.217708 205.017658 
L 244.303509 198.931633 
L 245.38931 221.297374 
L 246.475111 207.539657 
L 247.560912 196.712874 
L 248.646713 175.386489 
L 249.732514 219.952915 
L 250.818316 182.108535 
L 251.904117 229.839941 
L 252.989918 205.994345 
L 254.075719 175.582199 
L 255.16152 167.720045 
L 256.247321 170.457082 
L 257.333123 183.136152 
L 258.418924 179.227624 
L 259.504725 193.584259 
L 260.590526 191.295223 
L 261.676327 209.008194 
L 262.762128 238.820505 
L 263.847929 186.706117 
L 264.933731 194.119508 
L 266.019532 196.277899 
L 267.105333 208.554484 
L 268.191134 213.083426 
L 269.276935 207.899504 
L 270.362736 190.539823 
L 271.448538 200.920675 
L 272.534339 196.408801 
L 273.62014 186.584109 
L 274.705941 205.109398 
L 275.791742 244.536723 
L 276.877543 194.758988 
L 277.963344 219.017606 
L 279.049146 226.998169 
L 280.134947 212.596269 
L 281.220748 213.193822 
L 282.306549 210.296595 
L 283.39235 211.569921 
L 284.478151 215.390498 
L 285.563953 224.355356 
L 286.649754 190.343412 
L 287.735555 218.74777 
L 288.821356 178.202596 
L 289.907157 194.344066 
L 290.992958 201.670075 
L 292.07876 204.098802 
L 293.164561 199.337813 
L 294.250362 223.330434 
L 295.336163 208.940077 
L 296.421964 208.038311 
L 297.507765 184.029782 
L 298.593566 189.302202 
L 299.679368 203.470888 
L 300.765169 199.129008 
L 301.85097 216.298765 
L 302.936771 212.752126 
L 304.022572 157.949359 
L 305.108373 210.716579 
L 306.194175 173.794096 
L 307.279976 203.983877 
L 308.365777 175.79539 
L 309.451578 184.9873 
L 310.537379 174.137232 
L 311.62318 249.267289 
L 312.708981 230.213241 
L 313.794783 199.875373 
L 314.880584 211.467937 
L 315.966385 174.292277 
L 317.052186 186.51301 
L 318.137987 193.098511 
L 319.223788 195.974013 
L 320.30959 178.59617 
L 321.395391 165.885432 
L 322.481192 174.145934 
L 323.566993 164.608301 
L 324.652794 167.698032 
L 325.738595 156.12862 
L 326.824396 159.109487 
L 327.910198 151.416652 
L 328.995999 168.470087 
L 330.0818 200.756019 
L 331.167601 152.588714 
L 332.253402 146.409826 
L 333.339203 173.568658 
L 334.425005 194.00188 
L 335.510806 185.091234 
L 336.596607 172.267165 
L 337.682408 176.225566 
L 338.768209 187.029967 
L 339.85401 189.370593 
L 340.939811 182.130844 
L 342.025613 205.249089 
L 343.111414 199.545014 
L 344.197215 168.904784 
L 345.283016 205.327048 
L 346.368817 178.187397 
L 347.454618 175.488191 
L 348.54042 193.539173 
L 349.626221 165.573992 
L 350.712022 143.834409 
L 351.797823 129.426323 
L 352.883624 156.899898 
L 353.969425 150.524903 
L 355.055227 152.592235 
L 356.141028 125.56509 
L 357.226829 165.645556 
L 358.31263 149.659177 
L 359.398431 148.811408 
L 360.484232 127.040836 
L 361.570033 126.351335 
L 362.655835 145.766629 
L 363.741636 115.175814 
L 364.827437 154.020182 
L 365.913238 131.98573 
L 366.999039 136.630548 
L 368.08484 153.218626 
L 369.170642 136.399765 
L 370.256443 162.598061 
L 371.342244 125.080174 
L 372.428045 151.062835 
L 373.513846 170.505317 
L 374.599647 119.375917 
L 375.685448 141.693432 
L 376.77125 169.722103 
L 377.857051 140.703855 
L 378.942852 138.003849 
L 380.028653 173.57806 
L 381.114454 137.700364 
L 382.200255 199.060071 
L 383.286057 156.197871 
L 384.371858 191.015679 
L 385.457659 171.986312 
L 386.54346 160.97124 
L 387.629261 151.231026 
L 388.715062 185.495692 
L 389.800863 144.265355 
L 390.886665 155.341567 
L 391.972466 162.658839 
L 393.058267 140.262311 
L 394.144068 184.675475 
L 395.229869 164.950541 
L 396.31567 182.647533 
L 397.401472 192.741049 
L 398.487273 181.136734 
L 398.487273 181.136734 
" style="fill:none;stroke:#008000;stroke-dasharray:9.6,2.4,1.5,2.4;stroke-dashoffset:0;stroke-width:1.5;"/>
   </g>
   <g id="line2d_33">
    <path clip-path="url(#peb8a8fcabb)" d="M 73.832727 201.305125 
L 74.918528 184.997167 
L 76.00433 181.962122 
L 77.090131 180.763929 
L 78.175932 173.700517 
L 79.261733 175.473375 
L 80.347534 166.700152 
L 82.519137 134.093581 
L 83.604938 127.897727 
L 84.690739 135.239343 
L 86.862341 128.915011 
L 87.948142 123.741609 
L 89.033943 127.825585 
L 90.119745 126.131542 
L 91.205546 139.866466 
L 92.291347 127.822593 
L 93.377148 118.612897 
L 94.462949 119.693778 
L 95.54875 118.599788 
L 96.634552 117.763946 
L 97.720353 119.175549 
L 98.806154 124.136036 
L 99.891955 129.793293 
L 100.977756 116.841314 
L 102.063557 124.485077 
L 103.149358 120.063992 
L 104.23516 110.939652 
L 105.320961 117.827933 
L 106.406762 113.610189 
L 107.492563 115.711258 
L 108.578364 105.34537 
L 109.664165 89.061119 
L 110.749967 105.52447 
L 111.835768 104.068305 
L 112.921569 110.761397 
L 114.00737 96.32019 
L 115.093171 116.574956 
L 116.178972 119.426773 
L 117.264773 97.138711 
L 118.350575 77.148542 
L 119.436376 86.966119 
L 120.522177 95.359422 
L 121.607978 110.281992 
L 122.693779 100.131356 
L 123.77958 102.132663 
L 124.865382 98.427866 
L 125.951183 87.596759 
L 127.036984 96.072459 
L 128.122785 99.002587 
L 129.208586 95.478436 
L 130.294387 94.942252 
L 131.380189 106.107351 
L 132.46599 97.493514 
L 133.551791 96.594511 
L 134.637592 85.908024 
L 135.723393 103.976265 
L 136.809194 91.39799 
L 137.894995 83.897098 
L 138.980797 89.845477 
L 140.066598 97.62442 
L 141.152399 103.388725 
L 142.2382 102.710674 
L 143.324001 95.688805 
L 144.409802 112.660678 
L 145.495604 97.306743 
L 146.581405 111.533468 
L 147.667206 92.01939 
L 148.753007 107.146987 
L 150.924609 86.426611 
L 152.01041 117.640809 
L 153.096212 89.071735 
L 154.182013 95.905348 
L 155.267814 109.864854 
L 156.353615 108.089137 
L 157.439416 92.815297 
L 158.525217 107.389658 
L 159.611019 79.653468 
L 160.69682 85.833233 
L 161.782621 85.900491 
L 162.868422 83.676285 
L 163.954223 89.411469 
L 165.040024 85.590764 
L 166.125825 86.345481 
L 167.211627 92.267284 
L 168.297428 94.12749 
L 169.383229 86.565185 
L 170.46903 83.977884 
L 171.554831 99.504254 
L 172.640632 89.708476 
L 173.726434 95.003735 
L 174.812235 84.611907 
L 175.898036 112.807951 
L 178.069638 84.211621 
L 179.155439 88.559815 
L 180.24124 124.090156 
L 181.327042 121.196722 
L 182.412843 83.12588 
L 183.498644 83.02627 
L 184.584445 108.157738 
L 185.670246 95.9392 
L 186.756047 126.863331 
L 187.841849 98.781982 
L 188.92765 116.853383 
L 190.013451 104.231414 
L 191.099252 103.782454 
L 192.185053 88.51125 
L 193.270854 88.080989 
L 194.356656 82.369944 
L 195.442457 87.190659 
L 196.528258 89.224098 
L 197.614059 82.416322 
L 198.69986 91.550581 
L 199.785661 93.306267 
L 200.871462 79.753478 
L 201.957264 108.02362 
L 203.043065 91.323114 
L 204.128866 104.781575 
L 205.214667 77.866083 
L 206.300468 81.204341 
L 207.386269 110.41669 
L 208.472071 92.09684 
L 209.557872 90.756379 
L 210.643673 105.735355 
L 211.729474 92.935141 
L 212.815275 82.81822 
L 213.901076 96.947335 
L 214.986877 88.821075 
L 216.072679 75.750132 
L 217.15848 92.584579 
L 218.244281 82.578922 
L 219.330082 85.755621 
L 220.415883 86.919696 
L 221.501684 88.784043 
L 222.587486 82.228096 
L 223.673287 89.313037 
L 224.759088 92.375467 
L 226.93069 81.471067 
L 228.016491 90.584352 
L 229.102292 72.179255 
L 230.188094 94.001693 
L 231.273895 84.59612 
L 232.359696 69.002032 
L 233.445497 67.112572 
L 234.531298 77.738417 
L 235.617099 75.725516 
L 236.702901 73.98005 
L 237.788702 92.006785 
L 239.960304 75.76699 
L 241.046105 91.50571 
L 242.131906 91.193589 
L 243.217708 78.669955 
L 244.303509 59.872398 
L 245.38931 82.709971 
L 246.475111 81.321321 
L 247.560912 69.458139 
L 248.646713 73.388862 
L 249.732514 114.163205 
L 250.818316 104.84299 
L 251.904117 92.076854 
L 252.989918 97.465081 
L 254.075719 109.871213 
L 255.16152 81.451222 
L 256.247321 76.577327 
L 257.333123 124.274819 
L 258.418924 85.665776 
L 259.504725 99.382427 
L 260.590526 111.241036 
L 261.676327 98.226996 
L 262.762128 108.699927 
L 263.847929 106.193575 
L 264.933731 99.549325 
L 266.019532 91.982483 
L 267.105333 117.647585 
L 268.191134 113.920574 
L 269.276935 111.836926 
L 270.362736 88.352628 
L 271.448538 110.987186 
L 272.534339 102.925887 
L 273.62014 99.090841 
L 274.705941 86.390749 
L 275.791742 122.861875 
L 276.877543 111.609007 
L 277.963344 113.673097 
L 280.134947 97.162858 
L 281.220748 89.016968 
L 282.306549 103.776231 
L 283.39235 113.389351 
L 284.478151 94.956227 
L 285.563953 102.097788 
L 286.649754 92.149404 
L 287.735555 100.692139 
L 288.821356 101.589144 
L 289.907157 96.319909 
L 290.992958 106.847496 
L 292.07876 87.56321 
L 293.164561 88.907816 
L 294.250362 94.550688 
L 295.336163 98.884659 
L 296.421964 101.634508 
L 297.507765 113.365573 
L 298.593566 101.045592 
L 299.679368 106.207807 
L 300.765169 86.822759 
L 301.85097 106.963334 
L 302.936771 84.340154 
L 304.022572 85.089352 
L 305.108373 82.617918 
L 306.194175 87.859667 
L 308.365777 107.597026 
L 309.451578 84.42723 
L 310.537379 83.817299 
L 311.62318 86.710007 
L 312.708981 75.029285 
L 313.794783 79.305903 
L 314.880584 91.805425 
L 315.966385 87.201157 
L 317.052186 79.579265 
L 318.137987 93.211144 
L 319.223788 94.332237 
L 320.30959 102.272241 
L 321.395391 89.191882 
L 322.481192 83.695834 
L 323.566993 97.095602 
L 324.652794 77.602694 
L 325.738595 97.615637 
L 326.824396 79.666375 
L 327.910198 79.938131 
L 328.995999 93.947893 
L 330.0818 71.374963 
L 331.167601 75.417431 
L 332.253402 93.093765 
L 333.339203 67.546913 
L 334.425005 80.232089 
L 335.510806 82.41557 
L 336.596607 72.11244 
L 337.682408 77.656752 
L 338.768209 67.123498 
L 339.85401 57.915906 
L 340.939811 70.651426 
L 343.111414 87.282875 
L 344.197215 90.572234 
L 345.283016 85.487277 
L 346.368817 88.387019 
L 347.454618 65.483306 
L 348.54042 72.103406 
L 349.626221 87.927991 
L 350.712022 63.210562 
L 351.797823 86.716497 
L 352.883624 76.923665 
L 353.969425 72.520093 
L 355.055227 96.0998 
L 356.141028 71.640896 
L 357.226829 66.763828 
L 358.31263 81.02144 
L 359.398431 67.246217 
L 360.484232 86.707669 
L 361.570033 82.351541 
L 362.655835 74.02768 
L 363.741636 76.64845 
L 364.827437 90.308223 
L 366.999039 77.460067 
L 368.08484 65.935464 
L 369.170642 76.674942 
L 370.256443 66.064333 
L 371.342244 80.252752 
L 372.428045 67.667566 
L 373.513846 65.71799 
L 374.599647 84.391711 
L 375.685448 81.912005 
L 376.77125 67.98845 
L 377.857051 67.988288 
L 378.942852 89.851121 
L 380.028653 77.700945 
L 381.114454 80.624895 
L 382.200255 77.940441 
L 383.286057 75.711117 
L 384.371858 78.913083 
L 385.457659 65.591401 
L 386.54346 71.575372 
L 387.629261 78.810607 
L 388.715062 89.805469 
L 389.800863 90.476743 
L 390.886665 66.175452 
L 391.972466 69.686506 
L 393.058267 69.701492 
L 394.144068 66.016271 
L 395.229869 53.568 
L 396.31567 73.843271 
L 397.401472 62.966068 
L 398.487273 59.615058 
L 398.487273 59.615058 
" style="fill:none;stroke:#008000;stroke-dasharray:9.6,2.4,1.5,2.4;stroke-dashoffset:0;stroke-width:1.5;"/>
   </g>
   <g id="line2d_34">
    <path clip-path="url(#peb8a8fcabb)" d="M 73.832727 196.827999 
L 74.918528 193.287199 
L 76.00433 194.793564 
L 77.090131 190.00203 
L 78.175932 164.175519 
L 79.261733 173.229774 
L 80.347534 169.510909 
L 81.433335 141.305663 
L 82.519137 136.552394 
L 83.604938 130.366993 
L 84.690739 136.913453 
L 85.77654 137.047702 
L 86.862341 137.58048 
L 87.948142 128.77195 
L 89.033943 133.356417 
L 90.119745 136.239336 
L 91.205546 144.811694 
L 92.291347 134.37231 
L 93.377148 131.352668 
L 94.462949 131.327168 
L 95.54875 129.051268 
L 96.634552 132.239345 
L 97.720353 128.771576 
L 98.806154 128.844965 
L 99.891955 141.893304 
L 100.977756 130.783313 
L 102.063557 123.879338 
L 103.149358 127.920635 
L 104.23516 119.263042 
L 105.320961 116.860971 
L 106.406762 113.474061 
L 107.492563 118.737487 
L 108.578364 113.464753 
L 109.664165 107.55356 
L 110.749967 109.505715 
L 111.835768 114.804655 
L 112.921569 122.239916 
L 114.00737 105.923023 
L 115.093171 117.256846 
L 116.178972 118.436484 
L 117.264773 103.476769 
L 118.350575 105.584013 
L 119.436376 106.867869 
L 120.522177 104.478284 
L 121.607978 129.122785 
L 122.693779 115.893027 
L 123.77958 119.362779 
L 124.865382 109.242827 
L 125.951183 102.559348 
L 127.036984 107.14757 
L 128.122785 108.202984 
L 129.208586 106.352494 
L 131.380189 120.215826 
L 132.46599 111.313532 
L 133.551791 109.475412 
L 134.637592 109.65026 
L 135.723393 123.408548 
L 136.809194 113.208315 
L 137.894995 106.75304 
L 138.980797 105.042775 
L 140.066598 108.150972 
L 141.152399 112.908363 
L 142.2382 106.427764 
L 143.324001 110.941325 
L 144.409802 117.820814 
L 145.495604 108.313479 
L 146.581405 119.131656 
L 147.667206 102.703592 
L 148.753007 112.710425 
L 149.838808 106.291967 
L 150.924609 102.642106 
L 152.01041 119.488929 
L 153.096212 108.761391 
L 154.182013 106.504125 
L 155.267814 112.082068 
L 156.353615 121.927008 
L 157.439416 108.933746 
L 158.525217 105.413918 
L 159.611019 99.911496 
L 160.69682 96.086093 
L 161.782621 109.3553 
L 162.868422 102.568609 
L 163.954223 100.421559 
L 165.040024 104.813961 
L 166.125825 105.068533 
L 167.211627 102.212446 
L 168.297428 103.763345 
L 169.383229 109.466984 
L 170.46903 100.628344 
L 171.554831 112.551336 
L 172.640632 102.975813 
L 173.726434 111.679707 
L 174.812235 110.480137 
L 175.898036 115.187888 
L 176.983837 107.918932 
L 178.069638 104.43365 
L 179.155439 108.782594 
L 180.24124 141.404185 
L 181.327042 137.02302 
L 182.412843 103.504255 
L 183.498644 101.560697 
L 184.584445 116.510618 
L 185.670246 110.790615 
L 186.756047 144.494146 
L 187.841849 112.422678 
L 188.92765 132.124038 
L 190.013451 121.678778 
L 191.099252 127.187752 
L 192.185053 118.321916 
L 193.270854 113.358578 
L 194.356656 100.159255 
L 195.442457 107.521271 
L 196.528258 104.783592 
L 197.614059 99.62281 
L 198.69986 104.791503 
L 199.785661 105.754209 
L 200.871462 100.028349 
L 201.957264 112.938038 
L 203.043065 105.033465 
L 204.128866 115.703152 
L 205.214667 88.662222 
L 206.300468 92.19574 
L 207.386269 115.980195 
L 208.472071 109.790561 
L 209.557872 102.542087 
L 210.643673 116.162211 
L 211.729474 108.749012 
L 212.815275 106.575432 
L 213.901076 114.551559 
L 214.986877 103.407997 
L 216.072679 102.346487 
L 217.15848 107.136543 
L 218.244281 101.345741 
L 219.330082 101.294183 
L 220.415883 105.028093 
L 221.501684 104.316245 
L 222.587486 100.811017 
L 223.673287 101.754465 
L 224.759088 110.499916 
L 225.844889 106.929667 
L 226.93069 99.566022 
L 228.016491 113.058338 
L 229.102292 94.209716 
L 230.188094 111.76019 
L 231.273895 105.69177 
L 232.359696 81.772113 
L 233.445497 88.256033 
L 234.531298 87.891547 
L 235.617099 85.689063 
L 236.702901 90.73022 
L 237.788702 101.944404 
L 239.960304 99.828247 
L 241.046105 100.012313 
L 242.131906 97.372486 
L 243.217708 93.852813 
L 244.303509 74.841518 
L 245.38931 101.760557 
L 246.475111 101.359845 
L 247.560912 93.694068 
L 248.646713 89.787906 
L 249.732514 122.428151 
L 250.818316 121.209405 
L 251.904117 110.410958 
L 252.989918 108.491316 
L 254.075719 120.76248 
L 255.16152 98.267127 
L 256.247321 88.946088 
L 257.333123 122.335134 
L 258.418924 98.479006 
L 259.504725 103.98532 
L 260.590526 114.53584 
L 261.676327 101.997103 
L 262.762128 110.03077 
L 263.847929 101.895113 
L 264.933731 98.397028 
L 266.019532 99.046949 
L 267.105333 113.884252 
L 268.191134 114.576049 
L 270.362736 95.943064 
L 271.448538 111.300731 
L 272.534339 104.932455 
L 273.62014 96.966725 
L 274.705941 95.239262 
L 275.791742 107.917258 
L 276.877543 104.248918 
L 277.963344 116.521987 
L 279.049146 106.110114 
L 280.134947 99.661741 
L 281.220748 95.620987 
L 282.306549 96.943918 
L 283.39235 108.354353 
L 284.478151 98.088679 
L 285.563953 100.663702 
L 286.649754 92.962326 
L 287.735555 101.678415 
L 288.821356 98.828437 
L 289.907157 97.415873 
L 290.992958 100.789931 
L 292.07876 91.409043 
L 293.164561 96.669745 
L 294.250362 91.846069 
L 295.336163 95.205994 
L 296.421964 102.026723 
L 297.507765 113.273561 
L 298.593566 105.22646 
L 299.679368 106.550778 
L 300.765169 92.289121 
L 301.85097 100.095986 
L 302.936771 88.964612 
L 304.022572 82.899521 
L 305.108373 99.601616 
L 306.194175 89.469577 
L 307.279976 104.931757 
L 308.365777 105.539269 
L 309.451578 91.91702 
L 310.537379 90.015573 
L 311.62318 86.886442 
L 312.708981 88.266605 
L 313.794783 81.706392 
L 314.880584 98.975836 
L 317.052186 90.015035 
L 318.137987 97.130778 
L 319.223788 95.533084 
L 320.30959 94.867503 
L 321.395391 94.95239 
L 322.481192 82.986954 
L 323.566993 97.864915 
L 324.652794 87.467356 
L 325.738595 91.297629 
L 326.824396 84.805505 
L 327.910198 81.943753 
L 328.995999 91.469862 
L 330.0818 82.90642 
L 331.167601 80.516351 
L 332.253402 84.869374 
L 333.339203 78.830602 
L 334.425005 94.295746 
L 335.510806 89.121215 
L 336.596607 80.700657 
L 337.682408 89.432027 
L 338.768209 75.996202 
L 339.85401 75.332198 
L 340.939811 73.245914 
L 342.025613 75.698532 
L 343.111414 92.503494 
L 344.197215 80.189532 
L 345.283016 91.301441 
L 346.368817 92.274609 
L 347.454618 78.901219 
L 348.54042 81.243421 
L 349.626221 88.845766 
L 350.712022 73.010269 
L 351.797823 84.573888 
L 352.883624 84.50524 
L 353.969425 74.936947 
L 355.055227 91.870499 
L 356.141028 74.161391 
L 357.226829 82.903496 
L 358.31263 86.756111 
L 359.398431 75.512888 
L 360.484232 80.834653 
L 361.570033 73.643002 
L 362.655835 82.126081 
L 363.741636 75.438468 
L 364.827437 96.790725 
L 365.913238 87.439328 
L 366.999039 83.426495 
L 368.08484 84.225547 
L 369.170642 82.666964 
L 370.256443 76.061891 
L 371.342244 79.288083 
L 372.428045 71.107665 
L 373.513846 82.756221 
L 374.599647 80.769518 
L 375.685448 84.065425 
L 376.77125 92.460838 
L 377.857051 82.221161 
L 378.942852 86.338685 
L 380.028653 84.38718 
L 381.114454 79.739154 
L 382.200255 86.584865 
L 383.286057 81.221206 
L 384.371858 89.107143 
L 385.457659 82.58426 
L 386.54346 82.021133 
L 387.629261 86.915453 
L 388.715062 102.869051 
L 390.886665 78.321719 
L 391.972466 78.19689 
L 393.058267 76.620944 
L 394.144068 77.135325 
L 395.229869 67.963164 
L 396.31567 77.703393 
L 397.401472 73.346165 
L 398.487273 73.410564 
L 398.487273 73.410564 
" style="fill:none;stroke:#ff0000;stroke-linecap:square;stroke-width:1.5;"/>
   </g>
   <g id="patch_3">
    <path d="M 57.6 307.584 
L 57.6 41.472 
" style="fill:none;stroke:#000000;stroke-linecap:square;stroke-linejoin:miter;stroke-width:0.8;"/>
   </g>
   <g id="patch_4">
    <path d="M 414.72 307.584 
L 414.72 41.472 
" style="fill:none;stroke:#000000;stroke-linecap:square;stroke-linejoin:miter;stroke-width:0.8;"/>
   </g>
   <g id="patch_5">
    <path d="M 57.6 307.584 
L 414.72 307.584 
" style="fill:none;stroke:#000000;stroke-linecap:square;stroke-linejoin:miter;stroke-width:0.8;"/>
   </g>
   <g id="patch_6">
    <path d="M 57.6 41.472 
L 414.72 41.472 
" style="fill:none;stroke:#000000;stroke-linecap:square;stroke-linejoin:miter;stroke-width:0.8;"/>
   </g>
   <g id="text_18">
    <!-- Population's average and best fitness -->
    <defs>
     <path d="M 19.671875 64.796875 
L 19.671875 37.40625 
L 32.078125 37.40625 
Q 38.96875 37.40625 42.71875 40.96875 
Q 46.484375 44.53125 46.484375 51.125 
Q 46.484375 57.671875 42.71875 61.234375 
Q 38.96875 64.796875 32.078125 64.796875 
z
M 9.8125 72.90625 
L 32.078125 72.90625 
Q 44.34375 72.90625 50.609375 67.359375 
Q 56.890625 61.8125 56.890625 51.125 
Q 56.890625 40.328125 50.609375 34.8125 
Q 44.34375 29.296875 32.078125 29.296875 
L 19.671875 29.296875 
L 19.671875 0 
L 9.8125 0 
z
" id="DejaVuSans-80"/>
     <path d="M 18.109375 8.203125 
L 18.109375 -20.796875 
L 9.078125 -20.796875 
L 9.078125 54.6875 
L 18.109375 54.6875 
L 18.109375 46.390625 
Q 20.953125 51.265625 25.265625 53.625 
Q 29.59375 56 35.59375 56 
Q 45.5625 56 51.78125 48.09375 
Q 58.015625 40.1875 58.015625 27.296875 
Q 58.015625 14.40625 51.78125 6.484375 
Q 45.5625 -1.421875 35.59375 -1.421875 
Q 29.59375 -1.421875 25.265625 0.953125 
Q 20.953125 3.328125 18.109375 8.203125 
z
M 48.6875 27.296875 
Q 48.6875 37.203125 44.609375 42.84375 
Q 40.53125 48.484375 33.40625 48.484375 
Q 26.265625 48.484375 22.1875 42.84375 
Q 18.109375 37.203125 18.109375 27.296875 
Q 18.109375 17.390625 22.1875 11.75 
Q 26.265625 6.109375 33.40625 6.109375 
Q 40.53125 6.109375 44.609375 11.75 
Q 48.6875 17.390625 48.6875 27.296875 
z
" id="DejaVuSans-112"/>
     <path d="M 8.5 21.578125 
L 8.5 54.6875 
L 17.484375 54.6875 
L 17.484375 21.921875 
Q 17.484375 14.15625 20.5 10.265625 
Q 23.53125 6.390625 29.59375 6.390625 
Q 36.859375 6.390625 41.078125 11.03125 
Q 45.3125 15.671875 45.3125 23.6875 
L 45.3125 54.6875 
L 54.296875 54.6875 
L 54.296875 0 
L 45.3125 0 
L 45.3125 8.40625 
Q 42.046875 3.421875 37.71875 1 
Q 33.40625 -1.421875 27.6875 -1.421875 
Q 18.265625 -1.421875 13.375 4.4375 
Q 8.5 10.296875 8.5 21.578125 
z
M 31.109375 56 
z
" id="DejaVuSans-117"/>
     <path d="M 9.421875 75.984375 
L 18.40625 75.984375 
L 18.40625 0 
L 9.421875 0 
z
" id="DejaVuSans-108"/>
     <path d="M 17.921875 72.90625 
L 17.921875 45.796875 
L 9.625 45.796875 
L 9.625 72.90625 
z
" id="DejaVuSans-39"/>
     <path id="DejaVuSans-32"/>
     <path d="M 2.984375 54.6875 
L 12.5 54.6875 
L 29.59375 8.796875 
L 46.6875 54.6875 
L 56.203125 54.6875 
L 35.6875 0 
L 23.484375 0 
z
" id="DejaVuSans-118"/>
     <path d="M 45.40625 27.984375 
Q 45.40625 37.75 41.375 43.109375 
Q 37.359375 48.484375 30.078125 48.484375 
Q 22.859375 48.484375 18.828125 43.109375 
Q 14.796875 37.75 14.796875 27.984375 
Q 14.796875 18.265625 18.828125 12.890625 
Q 22.859375 7.515625 30.078125 7.515625 
Q 37.359375 7.515625 41.375 12.890625 
Q 45.40625 18.265625 45.40625 27.984375 
z
M 54.390625 6.78125 
Q 54.390625 -7.171875 48.1875 -13.984375 
Q 42 -20.796875 29.203125 -20.796875 
Q 24.46875 -20.796875 20.265625 -20.09375 
Q 16.0625 -19.390625 12.109375 -17.921875 
L 12.109375 -9.1875 
Q 16.0625 -11.328125 19.921875 -12.34375 
Q 23.78125 -13.375 27.78125 -13.375 
Q 36.625 -13.375 41.015625 -8.765625 
Q 45.40625 -4.15625 45.40625 5.171875 
L 45.40625 9.625 
Q 42.625 4.78125 38.28125 2.390625 
Q 33.9375 0 27.875 0 
Q 17.828125 0 11.671875 7.65625 
Q 5.515625 15.328125 5.515625 27.984375 
Q 5.515625 40.671875 11.671875 48.328125 
Q 17.828125 56 27.875 56 
Q 33.9375 56 38.28125 53.609375 
Q 42.625 51.21875 45.40625 46.390625 
L 45.40625 54.6875 
L 54.390625 54.6875 
z
" id="DejaVuSans-103"/>
     <path d="M 45.40625 46.390625 
L 45.40625 75.984375 
L 54.390625 75.984375 
L 54.390625 0 
L 45.40625 0 
L 45.40625 8.203125 
Q 42.578125 3.328125 38.25 0.953125 
Q 33.9375 -1.421875 27.875 -1.421875 
Q 17.96875 -1.421875 11.734375 6.484375 
Q 5.515625 14.40625 5.515625 27.296875 
Q 5.515625 40.1875 11.734375 48.09375 
Q 17.96875 56 27.875 56 
Q 33.9375 56 38.25 53.625 
Q 42.578125 51.265625 45.40625 46.390625 
z
M 14.796875 27.296875 
Q 14.796875 17.390625 18.875 11.75 
Q 22.953125 6.109375 30.078125 6.109375 
Q 37.203125 6.109375 41.296875 11.75 
Q 45.40625 17.390625 45.40625 27.296875 
Q 45.40625 37.203125 41.296875 42.84375 
Q 37.203125 48.484375 30.078125 48.484375 
Q 22.953125 48.484375 18.875 42.84375 
Q 14.796875 37.203125 14.796875 27.296875 
z
" id="DejaVuSans-100"/>
     <path d="M 48.6875 27.296875 
Q 48.6875 37.203125 44.609375 42.84375 
Q 40.53125 48.484375 33.40625 48.484375 
Q 26.265625 48.484375 22.1875 42.84375 
Q 18.109375 37.203125 18.109375 27.296875 
Q 18.109375 17.390625 22.1875 11.75 
Q 26.265625 6.109375 33.40625 6.109375 
Q 40.53125 6.109375 44.609375 11.75 
Q 48.6875 17.390625 48.6875 27.296875 
z
M 18.109375 46.390625 
Q 20.953125 51.265625 25.265625 53.625 
Q 29.59375 56 35.59375 56 
Q 45.5625 56 51.78125 48.09375 
Q 58.015625 40.1875 58.015625 27.296875 
Q 58.015625 14.40625 51.78125 6.484375 
Q 45.5625 -1.421875 35.59375 -1.421875 
Q 29.59375 -1.421875 25.265625 0.953125 
Q 20.953125 3.328125 18.109375 8.203125 
L 18.109375 0 
L 9.078125 0 
L 9.078125 75.984375 
L 18.109375 75.984375 
z
" id="DejaVuSans-98"/>
     <path d="M 37.109375 75.984375 
L 37.109375 68.5 
L 28.515625 68.5 
Q 23.6875 68.5 21.796875 66.546875 
Q 19.921875 64.59375 19.921875 59.515625 
L 19.921875 54.6875 
L 34.71875 54.6875 
L 34.71875 47.703125 
L 19.921875 47.703125 
L 19.921875 0 
L 10.890625 0 
L 10.890625 47.703125 
L 2.296875 47.703125 
L 2.296875 54.6875 
L 10.890625 54.6875 
L 10.890625 58.5 
Q 10.890625 67.625 15.140625 71.796875 
Q 19.390625 75.984375 28.609375 75.984375 
z
" id="DejaVuSans-102"/>
    </defs>
    <g transform="translate(123.315 35.472)scale(0.12 -0.12)">
     <use xlink:href="#DejaVuSans-80"/>
     <use x="60.255859" xlink:href="#DejaVuSans-111"/>
     <use x="121.4375" xlink:href="#DejaVuSans-112"/>
     <use x="184.914062" xlink:href="#DejaVuSans-117"/>
     <use x="248.292969" xlink:href="#DejaVuSans-108"/>
     <use x="276.076172" xlink:href="#DejaVuSans-97"/>
     <use x="337.355469" xlink:href="#DejaVuSans-116"/>
     <use x="376.564453" xlink:href="#DejaVuSans-105"/>
     <use x="404.347656" xlink:href="#DejaVuSans-111"/>
     <use x="465.529297" xlink:href="#DejaVuSans-110"/>
     <use x="528.908203" xlink:href="#DejaVuSans-39"/>
     <use x="556.398438" xlink:href="#DejaVuSans-115"/>
     <use x="608.498047" xlink:href="#DejaVuSans-32"/>
     <use x="640.285156" xlink:href="#DejaVuSans-97"/>
     <use x="701.564453" xlink:href="#DejaVuSans-118"/>
     <use x="760.744141" xlink:href="#DejaVuSans-101"/>
     <use x="822.267578" xlink:href="#DejaVuSans-114"/>
     <use x="863.380859" xlink:href="#DejaVuSans-97"/>
     <use x="924.660156" xlink:href="#DejaVuSans-103"/>
     <use x="988.136719" xlink:href="#DejaVuSans-101"/>
     <use x="1049.660156" xlink:href="#DejaVuSans-32"/>
     <use x="1081.447266" xlink:href="#DejaVuSans-97"/>
     <use x="1142.726562" xlink:href="#DejaVuSans-110"/>
     <use x="1206.105469" xlink:href="#DejaVuSans-100"/>
     <use x="1269.582031" xlink:href="#DejaVuSans-32"/>
     <use x="1301.369141" xlink:href="#DejaVuSans-98"/>
     <use x="1364.845703" xlink:href="#DejaVuSans-101"/>
     <use x="1426.369141" xlink:href="#DejaVuSans-115"/>
     <use x="1478.46875" xlink:href="#DejaVuSans-116"/>
     <use x="1517.677734" xlink:href="#DejaVuSans-32"/>
     <use x="1549.464844" xlink:href="#DejaVuSans-102"/>
     <use x="1584.669922" xlink:href="#DejaVuSans-105"/>
     <use x="1612.453125" xlink:href="#DejaVuSans-116"/>
     <use x="1651.662109" xlink:href="#DejaVuSans-110"/>
     <use x="1715.041016" xlink:href="#DejaVuSans-101"/>
     <use x="1776.564453" xlink:href="#DejaVuSans-115"/>
     <use x="1828.664062" xlink:href="#DejaVuSans-115"/>
    </g>
   </g>
   <g id="legend_1">
    <g id="patch_7">
     <path d="M 334.779375 302.584 
L 407.72 302.584 
Q 409.72 302.584 409.72 300.584 
L 409.72 242.8715 
Q 409.72 240.8715 407.72 240.8715 
L 334.779375 240.8715 
Q 332.779375 240.8715 332.779375 242.8715 
L 332.779375 300.584 
Q 332.779375 302.584 334.779375 302.584 
z
" style="fill:#ffffff;opacity:0.8;stroke:#cccccc;stroke-linejoin:miter;"/>
    </g>
    <g id="line2d_35">
     <path d="M 336.779375 248.969937 
L 356.779375 248.969937 
" style="fill:none;stroke:#0000ff;stroke-linecap:square;stroke-width:1.5;"/>
    </g>
    <g id="line2d_36"/>
    <g id="text_19">
     <!-- average -->
     <g transform="translate(364.779375 252.469937)scale(0.1 -0.1)">
      <use xlink:href="#DejaVuSans-97"/>
      <use x="61.279297" xlink:href="#DejaVuSans-118"/>
      <use x="120.458984" xlink:href="#DejaVuSans-101"/>
      <use x="181.982422" xlink:href="#DejaVuSans-114"/>
      <use x="223.095703" xlink:href="#DejaVuSans-97"/>
      <use x="284.375" xlink:href="#DejaVuSans-103"/>
      <use x="347.851562" xlink:href="#DejaVuSans-101"/>
     </g>
    </g>
    <g id="line2d_37">
     <path d="M 336.779375 263.648062 
L 356.779375 263.648062 
" style="fill:none;stroke:#008000;stroke-dasharray:9.6,2.4,1.5,2.4;stroke-dashoffset:0;stroke-width:1.5;"/>
    </g>
    <g id="line2d_38"/>
    <g id="text_20">
     <!-- -1 sd -->
     <defs>
      <path d="M 4.890625 31.390625 
L 31.203125 31.390625 
L 31.203125 23.390625 
L 4.890625 23.390625 
z
" id="DejaVuSans-45"/>
     </defs>
     <g transform="translate(364.779375 267.148062)scale(0.1 -0.1)">
      <use xlink:href="#DejaVuSans-45"/>
      <use x="36.083984" xlink:href="#DejaVuSans-49"/>
      <use x="99.707031" xlink:href="#DejaVuSans-32"/>
      <use x="131.494141" xlink:href="#DejaVuSans-115"/>
      <use x="183.59375" xlink:href="#DejaVuSans-100"/>
     </g>
    </g>
    <g id="line2d_39">
     <path d="M 336.779375 278.326187 
L 356.779375 278.326187 
" style="fill:none;stroke:#008000;stroke-dasharray:9.6,2.4,1.5,2.4;stroke-dashoffset:0;stroke-width:1.5;"/>
    </g>
    <g id="line2d_40"/>
    <g id="text_21">
     <!-- +1 sd -->
     <defs>
      <path d="M 46 62.703125 
L 46 35.5 
L 73.1875 35.5 
L 73.1875 27.203125 
L 46 27.203125 
L 46 0 
L 37.796875 0 
L 37.796875 27.203125 
L 10.59375 27.203125 
L 10.59375 35.5 
L 37.796875 35.5 
L 37.796875 62.703125 
z
" id="DejaVuSans-43"/>
     </defs>
     <g transform="translate(364.779375 281.826187)scale(0.1 -0.1)">
      <use xlink:href="#DejaVuSans-43"/>
      <use x="83.789062" xlink:href="#DejaVuSans-49"/>
      <use x="147.412109" xlink:href="#DejaVuSans-32"/>
      <use x="179.199219" xlink:href="#DejaVuSans-115"/>
      <use x="231.298828" xlink:href="#DejaVuSans-100"/>
     </g>
    </g>
    <g id="line2d_41">
     <path d="M 336.779375 293.004312 
L 356.779375 293.004312 
" style="fill:none;stroke:#ff0000;stroke-linecap:square;stroke-width:1.5;"/>
    </g>
    <g id="line2d_42"/>
    <g id="text_22">
     <!-- best -->
     <g transform="translate(364.779375 296.504312)scale(0.1 -0.1)">
      <use xlink:href="#DejaVuSans-98"/>
      <use x="63.476562" xlink:href="#DejaVuSans-101"/>
      <use x="125" xlink:href="#DejaVuSans-115"/>
      <use x="177.099609" xlink:href="#DejaVuSans-116"/>
     </g>
    </g>
   </g>
  </g>
 </g>
 <defs>
  <clipPath id="peb8a8fcabb">
   <rect height="266.112" width="357.12" x="57.6" y="41.472"/>
  </clipPath>
 </defs>
</svg>
