<?xml version="1.0" encoding="UTF-8" standalone="no"?>
<!DOCTYPE svg PUBLIC "-//W3C//DTD SVG 1.1//EN"
 "http://www.w3.org/Graphics/SVG/1.1/DTD/svg11.dtd">
<!-- Generated by graphviz version 2.40.1 (20161225.0304)
 -->
<!-- Title: %3 Pages: 1 -->
<svg width="498pt" height="434pt"
 viewBox="0.00 0.00 497.77 434.10" xmlns="http://www.w3.org/2000/svg" xmlns:xlink="http://www.w3.org/1999/xlink">
<g id="graph0" class="graph" transform="scale(1 1) rotate(0) translate(4 430.0991)">
<title>%3</title>
<polygon fill="#ffffff" stroke="transparent" points="-4,4 -4,-430.0991 493.7661,-430.0991 493.7661,4 -4,4"/>
<!-- 0 -->
<g id="node1" class="node">
<title>0</title>
<polygon fill="#d3d3d3" stroke="#000000" points="313.389,-426.0991 293.3771,-426.0991 293.3771,-409.0991 313.389,-409.0991 313.389,-426.0991"/>
<text text-anchor="middle" x="303.383" y="-414.8991" font-family="Times,serif" font-size="9.00" fill="#000000">0</text>
</g>
<!-- 1 -->
<g id="node2" class="node">
<title>1</title>
<polygon fill="#d3d3d3" stroke="#000000" points="387.389,-426.0991 367.3771,-426.0991 367.3771,-409.0991 387.389,-409.0991 387.389,-426.0991"/>
<text text-anchor="middle" x="377.383" y="-414.8991" font-family="Times,serif" font-size="9.00" fill="#000000">1</text>
</g>
<!-- 0&#45;&gt;1 -->
<!-- 3410 -->
<g id="node18" class="node">
<title>3410</title>
<ellipse fill="#f08080" stroke="#000000" cx="217.383" cy="-264.9743" rx="24.0833" ry="24.0833"/>
<text text-anchor="middle" x="217.383" y="-266.7743" font-family="Times,serif" font-size="9.00" fill="#000000">3410</text>
<text text-anchor="middle" x="217.383" y="-257.7743" font-family="Times,serif" font-size="9.00" fill="#000000">relu</text>
</g>
<!-- 0&#45;&gt;3410 -->
<g id="edge13" class="edge">
<title>0&#45;&gt;3410</title>
<path fill="none" stroke="#ff0000" stroke-width="1.4383" d="M298.5129,-408.9561C286.379,-387.422 254.3412,-330.5642 234.3473,-295.0809"/>
<polygon fill="#ff0000" stroke="#ff0000" stroke-width="1.4383" points="237.257,-293.1149 229.2986,-286.1209 231.1585,-296.5512 237.257,-293.1149"/>
</g>
<!-- 2 -->
<g id="node3" class="node">
<title>2</title>
<polygon fill="#d3d3d3" stroke="#000000" points="426.389,-426.0991 406.3771,-426.0991 406.3771,-409.0991 426.389,-409.0991 426.389,-426.0991"/>
<text text-anchor="middle" x="416.383" y="-414.8991" font-family="Times,serif" font-size="9.00" fill="#000000">2</text>
</g>
<!-- 1&#45;&gt;2 -->
<!-- E7 -->
<g id="node11" class="node">
<title>E7</title>
<ellipse fill="#ffa07a" stroke="#000000" cx="416.383" cy="-18.383" rx="18.2668" ry="18.2668"/>
<text text-anchor="middle" x="416.383" y="-15.683" font-family="Times,serif" font-size="9.00" fill="#000000">E7</text>
</g>
<!-- 1&#45;&gt;E7 -->
<g id="edge12" class="edge">
<title>1&#45;&gt;E7</title>
<path fill="none" stroke="#00ff00" stroke-width="1.5111" d="M378.246,-409.0038C380.4986,-385.7976 386.383,-319.9191 386.383,-264.9743 386.383,-264.9743 386.383,-264.9743 386.383,-180.891 386.383,-132.9475 399.1663,-78.35 408.0438,-46.2148"/>
<polygon fill="#00ff00" stroke="#00ff00" stroke-width="1.5111" points="411.5171,-46.7956 410.8806,-36.2199 404.7831,-44.8843 411.5171,-46.7956"/>
</g>
<!-- E8 -->
<g id="node12" class="node">
<title>E8</title>
<ellipse fill="#eee8aa" stroke="#000000" cx="471.383" cy="-18.383" rx="18.2668" ry="18.2668"/>
<text text-anchor="middle" x="471.383" y="-15.683" font-family="Times,serif" font-size="9.00" fill="#000000">E8</text>
</g>
<!-- 1&#45;&gt;E8 -->
<g id="edge11" class="edge">
<title>1&#45;&gt;E8</title>
<path fill="none" stroke="#00ff00" stroke-width=".3103" d="M384.9204,-409.0097C403.5718,-386.8363 450.383,-325.1874 450.383,-264.9743 450.383,-264.9743 450.383,-264.9743 450.383,-180.891 450.383,-133.6077 459.2354,-79.2192 465.4451,-46.8835"/>
<polygon fill="#00ff00" stroke="#00ff00" stroke-width=".3103" points="468.9316,-47.2934 467.4331,-36.8051 462.064,-45.9387 468.9316,-47.2934"/>
</g>
<!-- E1 -->
<g id="node5" class="node">
<title>E1</title>
<ellipse fill="#eee8aa" stroke="#000000" cx="73.383" cy="-18.383" rx="18.2668" ry="18.2668"/>
<text text-anchor="middle" x="73.383" y="-15.683" font-family="Times,serif" font-size="9.00" fill="#000000">E1</text>
</g>
<!-- 2&#45;&gt;E1 -->
<g id="edge20" class="edge">
<title>2&#45;&gt;E1</title>
<path fill="none" stroke="#00ff00" stroke-width=".4697" d="M405.9925,-412.5281C402.9565,-411.2274 399.5908,-409.9554 396.383,-409.0991 331.7227,-391.8394 148.3229,-416.5042 97.383,-373.0991 59.3316,-340.6762 66.383,-314.9658 66.383,-264.9743 66.383,-264.9743 66.383,-264.9743 66.383,-180.891 66.383,-133.9541 69.3338,-79.4622 71.4037,-47.0114"/>
<polygon fill="#00ff00" stroke="#00ff00" stroke-width=".4697" points="74.9052,-47.1015 72.0664,-36.8941 67.9202,-46.6439 74.9052,-47.1015"/>
</g>
<!-- E0 -->
<g id="node4" class="node">
<title>E0</title>
<ellipse fill="#ffa07a" stroke="#000000" cx="18.383" cy="-18.383" rx="18.2668" ry="18.2668"/>
<text text-anchor="middle" x="18.383" y="-15.683" font-family="Times,serif" font-size="9.00" fill="#000000">E0</text>
</g>
<!-- E0&#45;&gt;E1 -->
<!-- E2 -->
<g id="node6" class="node">
<title>E2</title>
<ellipse fill="#ffa07a" stroke="#000000" cx="128.383" cy="-18.383" rx="18.2668" ry="18.2668"/>
<text text-anchor="middle" x="128.383" y="-15.683" font-family="Times,serif" font-size="9.00" fill="#000000">E2</text>
</g>
<!-- E1&#45;&gt;E2 -->
<!-- E3 -->
<g id="node7" class="node">
<title>E3</title>
<ellipse fill="#ffa07a" stroke="#000000" cx="196.383" cy="-18.383" rx="18.2668" ry="18.2668"/>
<text text-anchor="middle" x="196.383" y="-15.683" font-family="Times,serif" font-size="9.00" fill="#000000">E3</text>
</g>
<!-- E2&#45;&gt;E3 -->
<!-- E4 -->
<g id="node8" class="node">
<title>E4</title>
<ellipse fill="#eee8aa" stroke="#000000" cx="251.383" cy="-18.383" rx="18.2668" ry="18.2668"/>
<text text-anchor="middle" x="251.383" y="-15.683" font-family="Times,serif" font-size="9.00" fill="#000000">E4</text>
</g>
<!-- E3&#45;&gt;E4 -->
<!-- E5 -->
<g id="node9" class="node">
<title>E5</title>
<ellipse fill="#ffa07a" stroke="#000000" cx="306.383" cy="-18.383" rx="18.2668" ry="18.2668"/>
<text text-anchor="middle" x="306.383" y="-15.683" font-family="Times,serif" font-size="9.00" fill="#000000">E5</text>
</g>
<!-- E4&#45;&gt;E5 -->
<!-- E6 -->
<g id="node10" class="node">
<title>E6</title>
<ellipse fill="#ffa07a" stroke="#000000" cx="361.383" cy="-18.383" rx="18.2668" ry="18.2668"/>
<text text-anchor="middle" x="361.383" y="-15.683" font-family="Times,serif" font-size="9.00" fill="#000000">E6</text>
</g>
<!-- E5&#45;&gt;E6 -->
<!-- E6&#45;&gt;E7 -->
<!-- E7&#45;&gt;E8 -->
<!-- 4647 -->
<g id="node13" class="node">
<title>4647</title>
<ellipse fill="#add8e6" stroke="#000000" cx="118.383" cy="-96.8077" rx="24.0833" ry="24.0833"/>
<text text-anchor="middle" x="118.383" y="-98.6077" font-family="Times,serif" font-size="9.00" fill="#000000">4647</text>
<text text-anchor="middle" x="118.383" y="-89.6077" font-family="Times,serif" font-size="9.00" fill="#000000">sigm</text>
</g>
<!-- 4647&#45;&gt;E2 -->
<g id="edge26" class="edge">
<title>4647&#45;&gt;E2</title>
<path fill="none" stroke="#ff0000" stroke-width=".5518" d="M121.4377,-72.8516C122.4716,-64.7434 123.6369,-55.6042 124.7135,-47.161"/>
<polygon fill="#ff0000" stroke="#ff0000" stroke-width=".5518" points="128.2201,-47.331 126.0132,-36.9686 121.2763,-46.4456 128.2201,-47.331"/>
</g>
<!-- 1964 -->
<g id="node14" class="node">
<title>1964</title>
<ellipse fill="#f0e68c" stroke="#000000" cx="260.383" cy="-180.891" rx="24.0833" ry="24.0833"/>
<text text-anchor="middle" x="260.383" y="-182.691" font-family="Times,serif" font-size="9.00" fill="#000000">1964</text>
<text text-anchor="middle" x="260.383" y="-173.691" font-family="Times,serif" font-size="9.00" fill="#000000">soft</text>
</g>
<!-- 1964&#45;&gt;E0 -->
<g id="edge15" class="edge">
<title>1964&#45;&gt;E0</title>
<path fill="none" stroke="#ff0000" stroke-width=".2094" d="M245.4568,-161.4201C226.1448,-137.4506 190.3277,-96.9569 151.383,-72.7661 109.4763,-46.7353 90.6837,-58.474 46.383,-36.7661 45.0123,-36.0944 43.6283,-35.3672 42.2481,-34.6029"/>
<polygon fill="#ff0000" stroke="#ff0000" stroke-width=".2094" points="43.7414,-31.415 33.3772,-29.2164 40.1083,-37.3983 43.7414,-31.415"/>
</g>
<!-- 1964&#45;&gt;E5 -->
<g id="edge17" class="edge">
<title>1964&#45;&gt;E5</title>
<path fill="none" stroke="#ff0000" stroke-width=".9902" d="M273.8513,-160.9225C280.8099,-149.6353 288.7855,-134.9889 293.383,-120.8494 301.2213,-96.7433 304.367,-68.0164 305.6126,-47.1219"/>
<polygon fill="#ff0000" stroke="#ff0000" stroke-width=".9902" points="309.116,-47.1335 306.1055,-36.9754 302.1243,-46.7938 309.116,-47.1335"/>
</g>
<!-- 3087 -->
<g id="node16" class="node">
<title>3087</title>
<ellipse fill="#add8e6" stroke="#000000" cx="260.383" cy="-96.8077" rx="24.0833" ry="24.0833"/>
<text text-anchor="middle" x="260.383" y="-98.6077" font-family="Times,serif" font-size="9.00" fill="#000000">3087</text>
<text text-anchor="middle" x="260.383" y="-89.6077" font-family="Times,serif" font-size="9.00" fill="#000000">sigm</text>
</g>
<!-- 1964&#45;&gt;3087 -->
<g id="edge25" class="edge">
<title>1964&#45;&gt;3087</title>
<path fill="none" stroke="#ff0000" stroke-width=".1044" d="M260.383,-156.5706C260.383,-148.6398 260.383,-139.6791 260.383,-131.1553"/>
<polygon fill="#ff0000" stroke="#ff0000" stroke-width=".1044" points="263.8831,-131.0734 260.383,-121.0734 256.8831,-131.0735 263.8831,-131.0734"/>
</g>
<!-- 3501 -->
<g id="node15" class="node">
<title>3501</title>
<ellipse fill="#add8e6" stroke="#000000" cx="130.383" cy="-264.9743" rx="24.0833" ry="24.0833"/>
<text text-anchor="middle" x="130.383" y="-266.7743" font-family="Times,serif" font-size="9.00" fill="#000000">3501</text>
<text text-anchor="middle" x="130.383" y="-257.7743" font-family="Times,serif" font-size="9.00" fill="#000000">sigm</text>
</g>
<!-- 3501&#45;&gt;4647 -->
<g id="edge19" class="edge">
<title>3501&#45;&gt;4647</title>
<path fill="none" stroke="#00ff00" stroke-width=".3821" d="M127.2061,-241.0544C125.8468,-230.0677 124.3527,-216.857 123.383,-204.9326 121.3766,-180.2574 120.1111,-152.3439 119.3553,-131.0599"/>
<polygon fill="#00ff00" stroke="#00ff00" stroke-width=".3821" points="122.8475,-130.7646 119.0148,-120.8874 115.8514,-130.9989 122.8475,-130.7646"/>
</g>
<!-- 5168 -->
<g id="node17" class="node">
<title>5168</title>
<ellipse fill="#add8e6" stroke="#000000" cx="156.383" cy="-180.891" rx="24.0833" ry="24.0833"/>
<text text-anchor="middle" x="156.383" y="-182.691" font-family="Times,serif" font-size="9.00" fill="#000000">5168</text>
<text text-anchor="middle" x="156.383" y="-173.691" font-family="Times,serif" font-size="9.00" fill="#000000">sigm</text>
</g>
<!-- 3501&#45;&gt;5168 -->
<g id="edge21" class="edge">
<title>3501&#45;&gt;5168</title>
<path fill="none" stroke="#00ff00" stroke-width=".381" d="M137.4877,-241.9981C140.1597,-233.3567 143.2534,-223.3519 146.154,-213.9714"/>
<polygon fill="#00ff00" stroke="#00ff00" stroke-width=".381" points="149.5862,-214.7192 149.1967,-204.1315 142.8987,-212.6512 149.5862,-214.7192"/>
</g>
<!-- 3087&#45;&gt;E4 -->
<g id="edge18" class="edge">
<title>3087&#45;&gt;E4</title>
<path fill="none" stroke="#ff0000" stroke-width=".1494" d="M257.6339,-72.8516C256.7034,-64.7434 255.6545,-55.6042 254.6856,-47.161"/>
<polygon fill="#ff0000" stroke="#ff0000" stroke-width=".1494" points="258.1333,-46.5043 253.5159,-36.9686 251.1789,-47.3025 258.1333,-46.5043"/>
</g>
<!-- 5168&#45;&gt;4647 -->
<g id="edge22" class="edge">
<title>5168&#45;&gt;4647</title>
<path fill="none" stroke="#ff0000" stroke-width=".2536" d="M146.399,-158.7991C142.1663,-149.4334 137.1565,-138.3481 132.5521,-128.1599"/>
<polygon fill="#ff0000" stroke="#ff0000" stroke-width=".2536" points="135.6082,-126.4233 128.3004,-118.7521 129.2294,-129.3061 135.6082,-126.4233"/>
</g>
<!-- 3410&#45;&gt;E3 -->
<g id="edge14" class="edge">
<title>3410&#45;&gt;E3</title>
<path fill="none" stroke="#00ff00" stroke-width=".8833" d="M215.3312,-240.8811C211.4357,-195.1379 202.9858,-95.9157 198.8138,-46.926"/>
<polygon fill="#00ff00" stroke="#00ff00" stroke-width=".8833" points="202.2804,-46.3845 197.9444,-36.7176 195.3057,-46.9785 202.2804,-46.3845"/>
</g>
<!-- 3410&#45;&gt;1964 -->
<g id="edge23" class="edge">
<title>3410&#45;&gt;1964</title>
<path fill="none" stroke="#00ff00" stroke-width=".1282" d="M228.4566,-243.3207C233.4221,-233.611 239.3667,-221.9869 244.7728,-211.4156"/>
<polygon fill="#00ff00" stroke="#00ff00" stroke-width=".1282" points="247.91,-212.9681 249.347,-202.4711 241.6777,-209.7808 247.91,-212.9681"/>
</g>
<!-- 4211 -->
<g id="node19" class="node">
<title>4211</title>
<ellipse fill="#f08080" stroke="#000000" cx="283.383" cy="-264.9743" rx="23.6187" ry="23.6187"/>
<text text-anchor="middle" x="283.383" y="-266.7743" font-family="Times,serif" font-size="9.00" fill="#000000">4211</text>
<text text-anchor="middle" x="283.383" y="-257.7743" font-family="Times,serif" font-size="9.00" fill="#000000">relu</text>
</g>
<!-- 4211&#45;&gt;1964 -->
<g id="edge16" class="edge">
<title>4211&#45;&gt;1964</title>
<path fill="none" stroke="#ff0000" stroke-width=".3138" d="M277.0982,-241.9981C274.7344,-233.3567 271.9977,-223.3519 269.4318,-213.9714"/>
<polygon fill="#ff0000" stroke="#ff0000" stroke-width=".3138" points="272.7547,-212.8537 266.7402,-204.1315 266.0028,-214.7006 272.7547,-212.8537"/>
</g>
<!-- 5364 -->
<g id="node20" class="node">
<title>5364</title>
<ellipse fill="#add8e6" stroke="#000000" cx="130.383" cy="-349.0575" rx="24.0833" ry="24.0833"/>
<text text-anchor="middle" x="130.383" y="-350.8575" font-family="Times,serif" font-size="9.00" fill="#000000">5364</text>
<text text-anchor="middle" x="130.383" y="-341.8575" font-family="Times,serif" font-size="9.00" fill="#000000">sigm</text>
</g>
<!-- 5364&#45;&gt;3501 -->
<g id="edge24" class="edge">
<title>5364&#45;&gt;3501</title>
<path fill="none" stroke="#ff0000" stroke-width=".2101" d="M130.383,-324.7372C130.383,-316.8063 130.383,-307.8457 130.383,-299.3219"/>
<polygon fill="#ff0000" stroke="#ff0000" stroke-width=".2101" points="133.8831,-299.2399 130.383,-289.24 126.8831,-299.24 133.8831,-299.2399"/>
</g>
</g>
</svg>
