<?xml version="1.0" encoding="UTF-8" standalone="no"?>
<!DOCTYPE svg PUBLIC "-//W3C//DTD SVG 1.1//EN"
 "http://www.w3.org/Graphics/SVG/1.1/DTD/svg11.dtd">
<!-- Generated by graphviz version 2.40.1 (20161225.0304)
 -->
<!-- Title: %3 Pages: 1 -->
<svg width="485pt" height="266pt"
 viewBox="0.00 0.00 484.77 265.93" xmlns="http://www.w3.org/2000/svg" xmlns:xlink="http://www.w3.org/1999/xlink">
<g id="graph0" class="graph" transform="scale(1 1) rotate(0) translate(4 261.9326)">
<title>%3</title>
<polygon fill="#ffffff" stroke="transparent" points="-4,4 -4,-261.9326 480.7661,-261.9326 480.7661,4 -4,4"/>
<!-- 0 -->
<g id="node1" class="node">
<title>0</title>
<polygon fill="#d3d3d3" stroke="#000000" points="136.389,-257.9326 116.3771,-257.9326 116.3771,-240.9326 136.389,-240.9326 136.389,-257.9326"/>
<text text-anchor="middle" x="126.383" y="-246.7326" font-family="Times,serif" font-size="9.00" fill="#000000">0</text>
</g>
<!-- 1 -->
<g id="node2" class="node">
<title>1</title>
<polygon fill="#d3d3d3" stroke="#000000" points="175.389,-257.9326 155.3771,-257.9326 155.3771,-240.9326 175.389,-240.9326 175.389,-257.9326"/>
<text text-anchor="middle" x="165.383" y="-246.7326" font-family="Times,serif" font-size="9.00" fill="#000000">1</text>
</g>
<!-- 0&#45;&gt;1 -->
<!-- E5 -->
<g id="node9" class="node">
<title>E5</title>
<ellipse fill="#ffa07a" stroke="#000000" cx="293.383" cy="-18.383" rx="18.2668" ry="18.2668"/>
<text text-anchor="middle" x="293.383" y="-15.683" font-family="Times,serif" font-size="9.00" fill="#000000">E5</text>
</g>
<!-- 0&#45;&gt;E5 -->
<g id="edge12" class="edge">
<title>0&#45;&gt;E5</title>
<path fill="none" stroke="#00ff00" stroke-width=".7995" d="M132.7257,-240.6573C156.4441,-207.8423 240.4057,-91.6788 276.589,-41.6181"/>
<polygon fill="#00ff00" stroke="#00ff00" stroke-width=".7995" points="279.5451,-43.5031 282.5664,-33.3482 273.8718,-39.4025 279.5451,-43.5031"/>
</g>
<!-- 2 -->
<g id="node3" class="node">
<title>2</title>
<polygon fill="#d3d3d3" stroke="#000000" points="252.389,-257.9326 232.3771,-257.9326 232.3771,-240.9326 252.389,-240.9326 252.389,-257.9326"/>
<text text-anchor="middle" x="242.383" y="-246.7326" font-family="Times,serif" font-size="9.00" fill="#000000">2</text>
</g>
<!-- 1&#45;&gt;2 -->
<!-- E0 -->
<g id="node4" class="node">
<title>E0</title>
<ellipse fill="#ffa07a" stroke="#000000" cx="18.383" cy="-18.383" rx="18.2668" ry="18.2668"/>
<text text-anchor="middle" x="18.383" y="-15.683" font-family="Times,serif" font-size="9.00" fill="#000000">E0</text>
</g>
<!-- 1&#45;&gt;E0 -->
<g id="edge11" class="edge">
<title>1&#45;&gt;E0</title>
<path fill="none" stroke="#ff0000" stroke-width=".9412" d="M159.8,-240.6573C139.0641,-208.0654 66.0184,-93.2547 33.8213,-42.6484"/>
<polygon fill="#ff0000" stroke="#ff0000" stroke-width=".9412" points="36.6276,-40.539 28.3066,-33.9806 30.7216,-44.2965 36.6276,-40.539"/>
</g>
<!-- E2 -->
<g id="node6" class="node">
<title>E2</title>
<ellipse fill="#ffa07a" stroke="#000000" cx="128.383" cy="-18.383" rx="18.2668" ry="18.2668"/>
<text text-anchor="middle" x="128.383" y="-15.683" font-family="Times,serif" font-size="9.00" fill="#000000">E2</text>
</g>
<!-- 1&#45;&gt;E2 -->
<g id="edge17" class="edge">
<title>1&#45;&gt;E2</title>
<path fill="none" stroke="#00ff00" stroke-width=".1681" d="M163.9778,-240.6573C158.8898,-208.8852 141.2895,-98.9784 132.8995,-46.5867"/>
<polygon fill="#00ff00" stroke="#00ff00" stroke-width=".1681" points="136.341,-45.9424 131.3038,-36.6216 129.4291,-47.0493 136.341,-45.9424"/>
</g>
<!-- E1 -->
<g id="node5" class="node">
<title>E1</title>
<ellipse fill="#ffa07a" stroke="#000000" cx="73.383" cy="-18.383" rx="18.2668" ry="18.2668"/>
<text text-anchor="middle" x="73.383" y="-15.683" font-family="Times,serif" font-size="9.00" fill="#000000">E1</text>
</g>
<!-- 2&#45;&gt;E1 -->
<g id="edge16" class="edge">
<title>2&#45;&gt;E1</title>
<path fill="none" stroke="#00ff00" stroke-width=".4644" d="M235.9644,-240.6573C211.962,-207.8423 126.9948,-91.6788 90.3782,-41.6181"/>
<polygon fill="#00ff00" stroke="#00ff00" stroke-width=".4644" points="93.0579,-39.3532 84.3292,-33.3482 87.408,-43.4858 93.0579,-39.3532"/>
</g>
<!-- 2&#45;&gt;E2 -->
<g id="edge13" class="edge">
<title>2&#45;&gt;E2</title>
<path fill="none" stroke="#00ff00" stroke-width="3.1189" d="M240.7115,-240.7755C235.2888,-214.114 216.4171,-131.5051 180.383,-72.7661 172.327,-59.634 160.6573,-47.0595 150.4133,-37.3159"/>
<polygon fill="#00ff00" stroke="#00ff00" stroke-width="3.1189" points="152.6741,-34.6401 142.9411,-30.4544 147.9395,-39.7961 152.6741,-34.6401"/>
</g>
<!-- E8 -->
<g id="node12" class="node">
<title>E8</title>
<ellipse fill="#ffa07a" stroke="#000000" cx="458.383" cy="-18.383" rx="18.2668" ry="18.2668"/>
<text text-anchor="middle" x="458.383" y="-15.683" font-family="Times,serif" font-size="9.00" fill="#000000">E8</text>
</g>
<!-- 2&#45;&gt;E8 -->
<g id="edge18" class="edge">
<title>2&#45;&gt;E8</title>
<path fill="none" stroke="#00ff00" stroke-width=".3928" d="M252.4776,-245.9554C269.4096,-239.7543 303.9744,-225.4817 327.383,-204.9326 381.533,-157.3977 424.9215,-83.1166 445.4657,-44.178"/>
<polygon fill="#00ff00" stroke="#00ff00" stroke-width=".3928" points="448.6887,-45.5656 450.1892,-35.0776 442.4758,-42.3408 448.6887,-45.5656"/>
</g>
<!-- 3348 -->
<g id="node14" class="node">
<title>3348</title>
<ellipse fill="#f08080" stroke="#000000" cx="294.383" cy="-180.891" rx="24.0833" ry="24.0833"/>
<text text-anchor="middle" x="294.383" y="-182.691" font-family="Times,serif" font-size="9.00" fill="#000000">3348</text>
<text text-anchor="middle" x="294.383" y="-173.691" font-family="Times,serif" font-size="9.00" fill="#000000">relu</text>
</g>
<!-- 2&#45;&gt;3348 -->
<g id="edge14" class="edge">
<title>2&#45;&gt;3348</title>
<path fill="none" stroke="#ff0000" stroke-width=".9429" d="M248.9689,-240.7518C255.1704,-232.5775 264.7957,-219.8904 273.5916,-208.2964"/>
<polygon fill="#ff0000" stroke="#ff0000" stroke-width=".9429" points="276.5332,-210.2098 279.789,-200.1275 270.9565,-205.9789 276.5332,-210.2098"/>
</g>
<!-- E0&#45;&gt;E1 -->
<!-- E1&#45;&gt;E2 -->
<!-- E3 -->
<g id="node7" class="node">
<title>E3</title>
<ellipse fill="#ffa07a" stroke="#000000" cx="183.383" cy="-18.383" rx="18.2668" ry="18.2668"/>
<text text-anchor="middle" x="183.383" y="-15.683" font-family="Times,serif" font-size="9.00" fill="#000000">E3</text>
</g>
<!-- E2&#45;&gt;E3 -->
<!-- E4 -->
<g id="node8" class="node">
<title>E4</title>
<ellipse fill="#87cefa" stroke="#000000" cx="238.383" cy="-18.383" rx="18.2668" ry="18.2668"/>
<text text-anchor="middle" x="238.383" y="-15.683" font-family="Times,serif" font-size="9.00" fill="#000000">E4</text>
</g>
<!-- E3&#45;&gt;E4 -->
<!-- E4&#45;&gt;E5 -->
<!-- E6 -->
<g id="node10" class="node">
<title>E6</title>
<ellipse fill="#ffa07a" stroke="#000000" cx="348.383" cy="-18.383" rx="18.2668" ry="18.2668"/>
<text text-anchor="middle" x="348.383" y="-15.683" font-family="Times,serif" font-size="9.00" fill="#000000">E6</text>
</g>
<!-- E5&#45;&gt;E6 -->
<!-- E7 -->
<g id="node11" class="node">
<title>E7</title>
<ellipse fill="#ffa07a" stroke="#000000" cx="403.383" cy="-18.383" rx="18.2668" ry="18.2668"/>
<text text-anchor="middle" x="403.383" y="-15.683" font-family="Times,serif" font-size="9.00" fill="#000000">E7</text>
</g>
<!-- E6&#45;&gt;E7 -->
<!-- E7&#45;&gt;E8 -->
<!-- 4522 -->
<g id="node13" class="node">
<title>4522</title>
<ellipse fill="#add8e6" stroke="#000000" cx="346.383" cy="-96.8077" rx="24.0833" ry="24.0833"/>
<text text-anchor="middle" x="346.383" y="-98.6077" font-family="Times,serif" font-size="9.00" fill="#000000">4522</text>
<text text-anchor="middle" x="346.383" y="-89.6077" font-family="Times,serif" font-size="9.00" fill="#000000">sigm</text>
</g>
<!-- 4522&#45;&gt;E6 -->
<g id="edge20" class="edge">
<title>4522&#45;&gt;E6</title>
<path fill="none" stroke="#00ff00" stroke-width=".3275" d="M347.0049,-72.4236C347.2113,-64.33 347.4429,-55.248 347.6565,-46.8729"/>
<polygon fill="#00ff00" stroke="#00ff00" stroke-width=".3275" points="351.158,-46.8562 347.9141,-36.7702 344.1602,-46.6776 351.158,-46.8562"/>
</g>
<!-- 3348&#45;&gt;E5 -->
<g id="edge19" class="edge">
<title>3348&#45;&gt;E5</title>
<path fill="none" stroke="#00ff00" stroke-width=".2134" d="M294.2333,-156.5619C294.053,-127.2561 293.7505,-78.0965 293.5591,-46.9981"/>
<polygon fill="#00ff00" stroke="#00ff00" stroke-width=".2134" points="297.058,-46.7918 293.4965,-36.8135 290.0582,-46.8349 297.058,-46.7918"/>
</g>
<!-- 3348&#45;&gt;4522 -->
<g id="edge15" class="edge">
<title>3348&#45;&gt;4522</title>
<path fill="none" stroke="#00ff00" stroke-width=".3603" d="M307.237,-160.1064C313.597,-149.8223 321.3813,-137.2353 328.3283,-126.002"/>
<polygon fill="#00ff00" stroke="#00ff00" stroke-width=".3603" points="331.3939,-127.6992 333.677,-117.3533 325.4404,-124.0173 331.3939,-127.6992"/>
</g>
</g>
</svg>
