<?xml version="1.0" encoding="utf-8" standalone="no"?>
<!DOCTYPE svg PUBLIC "-//W3C//DTD SVG 1.1//EN"
  "http://www.w3.org/Graphics/SVG/1.1/DTD/svg11.dtd">
<!-- Created with matplotlib (https://matplotlib.org/) -->
<svg height="345.6pt" version="1.1" viewBox="0 0 460.8 345.6" width="460.8pt" xmlns="http://www.w3.org/2000/svg" xmlns:xlink="http://www.w3.org/1999/xlink">
 <defs>
  <style type="text/css">
*{stroke-linecap:butt;stroke-linejoin:round;}
  </style>
 </defs>
 <g id="figure_1">
  <g id="patch_1">
   <path d="M 0 345.6 
L 460.8 345.6 
L 460.8 0 
L 0 0 
z
" style="fill:#ffffff;"/>
  </g>
  <g id="axes_1">
   <g id="patch_2">
    <path d="M 57.6 307.584 
L 414.72 307.584 
L 414.72 41.472 
L 57.6 41.472 
z
" style="fill:#ffffff;"/>
   </g>
   <g id="matplotlib.axis_1">
    <g id="xtick_1">
     <g id="line2d_1">
      <path clip-path="url(#p5d5263c9f8)" d="M 73.832727 307.584 
L 73.832727 41.472 
" style="fill:none;stroke:#b0b0b0;stroke-linecap:square;stroke-width:0.8;"/>
     </g>
     <g id="line2d_2">
      <defs>
       <path d="M 0 0 
L 0 3.5 
" id="m48f08c2f6d" style="stroke:#000000;stroke-width:0.8;"/>
      </defs>
      <g>
       <use style="stroke:#000000;stroke-width:0.8;" x="73.832727" xlink:href="#m48f08c2f6d" y="307.584"/>
      </g>
     </g>
     <g id="text_1">
      <!-- 0 -->
      <defs>
       <path d="M 31.78125 66.40625 
Q 24.171875 66.40625 20.328125 58.90625 
Q 16.5 51.421875 16.5 36.375 
Q 16.5 21.390625 20.328125 13.890625 
Q 24.171875 6.390625 31.78125 6.390625 
Q 39.453125 6.390625 43.28125 13.890625 
Q 47.125 21.390625 47.125 36.375 
Q 47.125 51.421875 43.28125 58.90625 
Q 39.453125 66.40625 31.78125 66.40625 
z
M 31.78125 74.21875 
Q 44.046875 74.21875 50.515625 64.515625 
Q 56.984375 54.828125 56.984375 36.375 
Q 56.984375 17.96875 50.515625 8.265625 
Q 44.046875 -1.421875 31.78125 -1.421875 
Q 19.53125 -1.421875 13.0625 8.265625 
Q 6.59375 17.96875 6.59375 36.375 
Q 6.59375 54.828125 13.0625 64.515625 
Q 19.53125 74.21875 31.78125 74.21875 
z
" id="DejaVuSans-48"/>
      </defs>
      <g transform="translate(70.651477 322.182437)scale(0.1 -0.1)">
       <use xlink:href="#DejaVuSans-48"/>
      </g>
     </g>
    </g>
    <g id="xtick_2">
     <g id="line2d_3">
      <path clip-path="url(#p5d5263c9f8)" d="M 128.122785 307.584 
L 128.122785 41.472 
" style="fill:none;stroke:#b0b0b0;stroke-linecap:square;stroke-width:0.8;"/>
     </g>
     <g id="line2d_4">
      <g>
       <use style="stroke:#000000;stroke-width:0.8;" x="128.122785" xlink:href="#m48f08c2f6d" y="307.584"/>
      </g>
     </g>
     <g id="text_2">
      <!-- 50 -->
      <defs>
       <path d="M 10.796875 72.90625 
L 49.515625 72.90625 
L 49.515625 64.59375 
L 19.828125 64.59375 
L 19.828125 46.734375 
Q 21.96875 47.46875 24.109375 47.828125 
Q 26.265625 48.1875 28.421875 48.1875 
Q 40.625 48.1875 47.75 41.5 
Q 54.890625 34.8125 54.890625 23.390625 
Q 54.890625 11.625 47.5625 5.09375 
Q 40.234375 -1.421875 26.90625 -1.421875 
Q 22.3125 -1.421875 17.546875 -0.640625 
Q 12.796875 0.140625 7.71875 1.703125 
L 7.71875 11.625 
Q 12.109375 9.234375 16.796875 8.0625 
Q 21.484375 6.890625 26.703125 6.890625 
Q 35.15625 6.890625 40.078125 11.328125 
Q 45.015625 15.765625 45.015625 23.390625 
Q 45.015625 31 40.078125 35.4375 
Q 35.15625 39.890625 26.703125 39.890625 
Q 22.75 39.890625 18.8125 39.015625 
Q 14.890625 38.140625 10.796875 36.28125 
z
" id="DejaVuSans-53"/>
      </defs>
      <g transform="translate(121.760285 322.182437)scale(0.1 -0.1)">
       <use xlink:href="#DejaVuSans-53"/>
       <use x="63.623047" xlink:href="#DejaVuSans-48"/>
      </g>
     </g>
    </g>
    <g id="xtick_3">
     <g id="line2d_5">
      <path clip-path="url(#p5d5263c9f8)" d="M 182.412843 307.584 
L 182.412843 41.472 
" style="fill:none;stroke:#b0b0b0;stroke-linecap:square;stroke-width:0.8;"/>
     </g>
     <g id="line2d_6">
      <g>
       <use style="stroke:#000000;stroke-width:0.8;" x="182.412843" xlink:href="#m48f08c2f6d" y="307.584"/>
      </g>
     </g>
     <g id="text_3">
      <!-- 100 -->
      <defs>
       <path d="M 12.40625 8.296875 
L 28.515625 8.296875 
L 28.515625 63.921875 
L 10.984375 60.40625 
L 10.984375 69.390625 
L 28.421875 72.90625 
L 38.28125 72.90625 
L 38.28125 8.296875 
L 54.390625 8.296875 
L 54.390625 0 
L 12.40625 0 
z
" id="DejaVuSans-49"/>
      </defs>
      <g transform="translate(172.869093 322.182437)scale(0.1 -0.1)">
       <use xlink:href="#DejaVuSans-49"/>
       <use x="63.623047" xlink:href="#DejaVuSans-48"/>
       <use x="127.246094" xlink:href="#DejaVuSans-48"/>
      </g>
     </g>
    </g>
    <g id="xtick_4">
     <g id="line2d_7">
      <path clip-path="url(#p5d5263c9f8)" d="M 236.702901 307.584 
L 236.702901 41.472 
" style="fill:none;stroke:#b0b0b0;stroke-linecap:square;stroke-width:0.8;"/>
     </g>
     <g id="line2d_8">
      <g>
       <use style="stroke:#000000;stroke-width:0.8;" x="236.702901" xlink:href="#m48f08c2f6d" y="307.584"/>
      </g>
     </g>
     <g id="text_4">
      <!-- 150 -->
      <g transform="translate(227.159151 322.182437)scale(0.1 -0.1)">
       <use xlink:href="#DejaVuSans-49"/>
       <use x="63.623047" xlink:href="#DejaVuSans-53"/>
       <use x="127.246094" xlink:href="#DejaVuSans-48"/>
      </g>
     </g>
    </g>
    <g id="xtick_5">
     <g id="line2d_9">
      <path clip-path="url(#p5d5263c9f8)" d="M 290.992958 307.584 
L 290.992958 41.472 
" style="fill:none;stroke:#b0b0b0;stroke-linecap:square;stroke-width:0.8;"/>
     </g>
     <g id="line2d_10">
      <g>
       <use style="stroke:#000000;stroke-width:0.8;" x="290.992958" xlink:href="#m48f08c2f6d" y="307.584"/>
      </g>
     </g>
     <g id="text_5">
      <!-- 200 -->
      <defs>
       <path d="M 19.1875 8.296875 
L 53.609375 8.296875 
L 53.609375 0 
L 7.328125 0 
L 7.328125 8.296875 
Q 12.9375 14.109375 22.625 23.890625 
Q 32.328125 33.6875 34.8125 36.53125 
Q 39.546875 41.84375 41.421875 45.53125 
Q 43.3125 49.21875 43.3125 52.78125 
Q 43.3125 58.59375 39.234375 62.25 
Q 35.15625 65.921875 28.609375 65.921875 
Q 23.96875 65.921875 18.8125 64.3125 
Q 13.671875 62.703125 7.8125 59.421875 
L 7.8125 69.390625 
Q 13.765625 71.78125 18.9375 73 
Q 24.125 74.21875 28.421875 74.21875 
Q 39.75 74.21875 46.484375 68.546875 
Q 53.21875 62.890625 53.21875 53.421875 
Q 53.21875 48.921875 51.53125 44.890625 
Q 49.859375 40.875 45.40625 35.40625 
Q 44.1875 33.984375 37.640625 27.21875 
Q 31.109375 20.453125 19.1875 8.296875 
z
" id="DejaVuSans-50"/>
      </defs>
      <g transform="translate(281.449208 322.182437)scale(0.1 -0.1)">
       <use xlink:href="#DejaVuSans-50"/>
       <use x="63.623047" xlink:href="#DejaVuSans-48"/>
       <use x="127.246094" xlink:href="#DejaVuSans-48"/>
      </g>
     </g>
    </g>
    <g id="xtick_6">
     <g id="line2d_11">
      <path clip-path="url(#p5d5263c9f8)" d="M 345.283016 307.584 
L 345.283016 41.472 
" style="fill:none;stroke:#b0b0b0;stroke-linecap:square;stroke-width:0.8;"/>
     </g>
     <g id="line2d_12">
      <g>
       <use style="stroke:#000000;stroke-width:0.8;" x="345.283016" xlink:href="#m48f08c2f6d" y="307.584"/>
      </g>
     </g>
     <g id="text_6">
      <!-- 250 -->
      <g transform="translate(335.739266 322.182437)scale(0.1 -0.1)">
       <use xlink:href="#DejaVuSans-50"/>
       <use x="63.623047" xlink:href="#DejaVuSans-53"/>
       <use x="127.246094" xlink:href="#DejaVuSans-48"/>
      </g>
     </g>
    </g>
    <g id="xtick_7">
     <g id="line2d_13">
      <path clip-path="url(#p5d5263c9f8)" d="M 399.573074 307.584 
L 399.573074 41.472 
" style="fill:none;stroke:#b0b0b0;stroke-linecap:square;stroke-width:0.8;"/>
     </g>
     <g id="line2d_14">
      <g>
       <use style="stroke:#000000;stroke-width:0.8;" x="399.573074" xlink:href="#m48f08c2f6d" y="307.584"/>
      </g>
     </g>
     <g id="text_7">
      <!-- 300 -->
      <defs>
       <path d="M 40.578125 39.3125 
Q 47.65625 37.796875 51.625 33 
Q 55.609375 28.21875 55.609375 21.1875 
Q 55.609375 10.40625 48.1875 4.484375 
Q 40.765625 -1.421875 27.09375 -1.421875 
Q 22.515625 -1.421875 17.65625 -0.515625 
Q 12.796875 0.390625 7.625 2.203125 
L 7.625 11.71875 
Q 11.71875 9.328125 16.59375 8.109375 
Q 21.484375 6.890625 26.8125 6.890625 
Q 36.078125 6.890625 40.9375 10.546875 
Q 45.796875 14.203125 45.796875 21.1875 
Q 45.796875 27.640625 41.28125 31.265625 
Q 36.765625 34.90625 28.71875 34.90625 
L 20.21875 34.90625 
L 20.21875 43.015625 
L 29.109375 43.015625 
Q 36.375 43.015625 40.234375 45.921875 
Q 44.09375 48.828125 44.09375 54.296875 
Q 44.09375 59.90625 40.109375 62.90625 
Q 36.140625 65.921875 28.71875 65.921875 
Q 24.65625 65.921875 20.015625 65.03125 
Q 15.375 64.15625 9.8125 62.3125 
L 9.8125 71.09375 
Q 15.4375 72.65625 20.34375 73.4375 
Q 25.25 74.21875 29.59375 74.21875 
Q 40.828125 74.21875 47.359375 69.109375 
Q 53.90625 64.015625 53.90625 55.328125 
Q 53.90625 49.265625 50.4375 45.09375 
Q 46.96875 40.921875 40.578125 39.3125 
z
" id="DejaVuSans-51"/>
      </defs>
      <g transform="translate(390.029324 322.182437)scale(0.1 -0.1)">
       <use xlink:href="#DejaVuSans-51"/>
       <use x="63.623047" xlink:href="#DejaVuSans-48"/>
       <use x="127.246094" xlink:href="#DejaVuSans-48"/>
      </g>
     </g>
    </g>
    <g id="text_8">
     <!-- Generations -->
     <defs>
      <path d="M 59.515625 10.40625 
L 59.515625 29.984375 
L 43.40625 29.984375 
L 43.40625 38.09375 
L 69.28125 38.09375 
L 69.28125 6.78125 
Q 63.578125 2.734375 56.6875 0.65625 
Q 49.8125 -1.421875 42 -1.421875 
Q 24.90625 -1.421875 15.25 8.5625 
Q 5.609375 18.5625 5.609375 36.375 
Q 5.609375 54.25 15.25 64.234375 
Q 24.90625 74.21875 42 74.21875 
Q 49.125 74.21875 55.546875 72.453125 
Q 61.96875 70.703125 67.390625 67.28125 
L 67.390625 56.78125 
Q 61.921875 61.421875 55.765625 63.765625 
Q 49.609375 66.109375 42.828125 66.109375 
Q 29.4375 66.109375 22.71875 58.640625 
Q 16.015625 51.171875 16.015625 36.375 
Q 16.015625 21.625 22.71875 14.15625 
Q 29.4375 6.6875 42.828125 6.6875 
Q 48.046875 6.6875 52.140625 7.59375 
Q 56.25 8.5 59.515625 10.40625 
z
" id="DejaVuSans-71"/>
      <path d="M 56.203125 29.59375 
L 56.203125 25.203125 
L 14.890625 25.203125 
Q 15.484375 15.921875 20.484375 11.0625 
Q 25.484375 6.203125 34.421875 6.203125 
Q 39.59375 6.203125 44.453125 7.46875 
Q 49.3125 8.734375 54.109375 11.28125 
L 54.109375 2.78125 
Q 49.265625 0.734375 44.1875 -0.34375 
Q 39.109375 -1.421875 33.890625 -1.421875 
Q 20.796875 -1.421875 13.15625 6.1875 
Q 5.515625 13.8125 5.515625 26.8125 
Q 5.515625 40.234375 12.765625 48.109375 
Q 20.015625 56 32.328125 56 
Q 43.359375 56 49.78125 48.890625 
Q 56.203125 41.796875 56.203125 29.59375 
z
M 47.21875 32.234375 
Q 47.125 39.59375 43.09375 43.984375 
Q 39.0625 48.390625 32.421875 48.390625 
Q 24.90625 48.390625 20.390625 44.140625 
Q 15.875 39.890625 15.1875 32.171875 
z
" id="DejaVuSans-101"/>
      <path d="M 54.890625 33.015625 
L 54.890625 0 
L 45.90625 0 
L 45.90625 32.71875 
Q 45.90625 40.484375 42.875 44.328125 
Q 39.84375 48.1875 33.796875 48.1875 
Q 26.515625 48.1875 22.3125 43.546875 
Q 18.109375 38.921875 18.109375 30.90625 
L 18.109375 0 
L 9.078125 0 
L 9.078125 54.6875 
L 18.109375 54.6875 
L 18.109375 46.1875 
Q 21.34375 51.125 25.703125 53.5625 
Q 30.078125 56 35.796875 56 
Q 45.21875 56 50.046875 50.171875 
Q 54.890625 44.34375 54.890625 33.015625 
z
" id="DejaVuSans-110"/>
      <path d="M 41.109375 46.296875 
Q 39.59375 47.171875 37.8125 47.578125 
Q 36.03125 48 33.890625 48 
Q 26.265625 48 22.1875 43.046875 
Q 18.109375 38.09375 18.109375 28.8125 
L 18.109375 0 
L 9.078125 0 
L 9.078125 54.6875 
L 18.109375 54.6875 
L 18.109375 46.1875 
Q 20.953125 51.171875 25.484375 53.578125 
Q 30.03125 56 36.53125 56 
Q 37.453125 56 38.578125 55.875 
Q 39.703125 55.765625 41.0625 55.515625 
z
" id="DejaVuSans-114"/>
      <path d="M 34.28125 27.484375 
Q 23.390625 27.484375 19.1875 25 
Q 14.984375 22.515625 14.984375 16.5 
Q 14.984375 11.71875 18.140625 8.90625 
Q 21.296875 6.109375 26.703125 6.109375 
Q 34.1875 6.109375 38.703125 11.40625 
Q 43.21875 16.703125 43.21875 25.484375 
L 43.21875 27.484375 
z
M 52.203125 31.203125 
L 52.203125 0 
L 43.21875 0 
L 43.21875 8.296875 
Q 40.140625 3.328125 35.546875 0.953125 
Q 30.953125 -1.421875 24.3125 -1.421875 
Q 15.921875 -1.421875 10.953125 3.296875 
Q 6 8.015625 6 15.921875 
Q 6 25.140625 12.171875 29.828125 
Q 18.359375 34.515625 30.609375 34.515625 
L 43.21875 34.515625 
L 43.21875 35.40625 
Q 43.21875 41.609375 39.140625 45 
Q 35.0625 48.390625 27.6875 48.390625 
Q 23 48.390625 18.546875 47.265625 
Q 14.109375 46.140625 10.015625 43.890625 
L 10.015625 52.203125 
Q 14.9375 54.109375 19.578125 55.046875 
Q 24.21875 56 28.609375 56 
Q 40.484375 56 46.34375 49.84375 
Q 52.203125 43.703125 52.203125 31.203125 
z
" id="DejaVuSans-97"/>
      <path d="M 18.3125 70.21875 
L 18.3125 54.6875 
L 36.8125 54.6875 
L 36.8125 47.703125 
L 18.3125 47.703125 
L 18.3125 18.015625 
Q 18.3125 11.328125 20.140625 9.421875 
Q 21.96875 7.515625 27.59375 7.515625 
L 36.8125 7.515625 
L 36.8125 0 
L 27.59375 0 
Q 17.1875 0 13.234375 3.875 
Q 9.28125 7.765625 9.28125 18.015625 
L 9.28125 47.703125 
L 2.6875 47.703125 
L 2.6875 54.6875 
L 9.28125 54.6875 
L 9.28125 70.21875 
z
" id="DejaVuSans-116"/>
      <path d="M 9.421875 54.6875 
L 18.40625 54.6875 
L 18.40625 0 
L 9.421875 0 
z
M 9.421875 75.984375 
L 18.40625 75.984375 
L 18.40625 64.59375 
L 9.421875 64.59375 
z
" id="DejaVuSans-105"/>
      <path d="M 30.609375 48.390625 
Q 23.390625 48.390625 19.1875 42.75 
Q 14.984375 37.109375 14.984375 27.296875 
Q 14.984375 17.484375 19.15625 11.84375 
Q 23.34375 6.203125 30.609375 6.203125 
Q 37.796875 6.203125 41.984375 11.859375 
Q 46.1875 17.53125 46.1875 27.296875 
Q 46.1875 37.015625 41.984375 42.703125 
Q 37.796875 48.390625 30.609375 48.390625 
z
M 30.609375 56 
Q 42.328125 56 49.015625 48.375 
Q 55.71875 40.765625 55.71875 27.296875 
Q 55.71875 13.875 49.015625 6.21875 
Q 42.328125 -1.421875 30.609375 -1.421875 
Q 18.84375 -1.421875 12.171875 6.21875 
Q 5.515625 13.875 5.515625 27.296875 
Q 5.515625 40.765625 12.171875 48.375 
Q 18.84375 56 30.609375 56 
z
" id="DejaVuSans-111"/>
      <path d="M 44.28125 53.078125 
L 44.28125 44.578125 
Q 40.484375 46.53125 36.375 47.5 
Q 32.28125 48.484375 27.875 48.484375 
Q 21.1875 48.484375 17.84375 46.4375 
Q 14.5 44.390625 14.5 40.28125 
Q 14.5 37.15625 16.890625 35.375 
Q 19.28125 33.59375 26.515625 31.984375 
L 29.59375 31.296875 
Q 39.15625 29.25 43.1875 25.515625 
Q 47.21875 21.78125 47.21875 15.09375 
Q 47.21875 7.46875 41.1875 3.015625 
Q 35.15625 -1.421875 24.609375 -1.421875 
Q 20.21875 -1.421875 15.453125 -0.5625 
Q 10.6875 0.296875 5.421875 2 
L 5.421875 11.28125 
Q 10.40625 8.6875 15.234375 7.390625 
Q 20.0625 6.109375 24.8125 6.109375 
Q 31.15625 6.109375 34.5625 8.28125 
Q 37.984375 10.453125 37.984375 14.40625 
Q 37.984375 18.0625 35.515625 20.015625 
Q 33.0625 21.96875 24.703125 23.78125 
L 21.578125 24.515625 
Q 13.234375 26.265625 9.515625 29.90625 
Q 5.8125 33.546875 5.8125 39.890625 
Q 5.8125 47.609375 11.28125 51.796875 
Q 16.75 56 26.8125 56 
Q 31.78125 56 36.171875 55.265625 
Q 40.578125 54.546875 44.28125 53.078125 
z
" id="DejaVuSans-115"/>
     </defs>
     <g transform="translate(205.662344 335.860562)scale(0.1 -0.1)">
      <use xlink:href="#DejaVuSans-71"/>
      <use x="77.490234" xlink:href="#DejaVuSans-101"/>
      <use x="139.013672" xlink:href="#DejaVuSans-110"/>
      <use x="202.392578" xlink:href="#DejaVuSans-101"/>
      <use x="263.916016" xlink:href="#DejaVuSans-114"/>
      <use x="305.029297" xlink:href="#DejaVuSans-97"/>
      <use x="366.308594" xlink:href="#DejaVuSans-116"/>
      <use x="405.517578" xlink:href="#DejaVuSans-105"/>
      <use x="433.300781" xlink:href="#DejaVuSans-111"/>
      <use x="494.482422" xlink:href="#DejaVuSans-110"/>
      <use x="557.861328" xlink:href="#DejaVuSans-115"/>
     </g>
    </g>
   </g>
   <g id="matplotlib.axis_2">
    <g id="ytick_1">
     <g id="line2d_15">
      <path clip-path="url(#p5d5263c9f8)" d="M 57.6 277.864595 
L 414.72 277.864595 
" style="fill:none;stroke:#b0b0b0;stroke-linecap:square;stroke-width:0.8;"/>
     </g>
     <g id="line2d_16">
      <defs>
       <path d="M 0 0 
L -3.5 0 
" id="mbb72f2fdf3" style="stroke:#000000;stroke-width:0.8;"/>
      </defs>
      <g>
       <use style="stroke:#000000;stroke-width:0.8;" x="57.6" xlink:href="#mbb72f2fdf3" y="277.864595"/>
      </g>
     </g>
     <g id="text_9">
      <!-- 400 -->
      <defs>
       <path d="M 37.796875 64.3125 
L 12.890625 25.390625 
L 37.796875 25.390625 
z
M 35.203125 72.90625 
L 47.609375 72.90625 
L 47.609375 25.390625 
L 58.015625 25.390625 
L 58.015625 17.1875 
L 47.609375 17.1875 
L 47.609375 0 
L 37.796875 0 
L 37.796875 17.1875 
L 4.890625 17.1875 
L 4.890625 26.703125 
z
" id="DejaVuSans-52"/>
      </defs>
      <g transform="translate(31.5125 281.663814)scale(0.1 -0.1)">
       <use xlink:href="#DejaVuSans-52"/>
       <use x="63.623047" xlink:href="#DejaVuSans-48"/>
       <use x="127.246094" xlink:href="#DejaVuSans-48"/>
      </g>
     </g>
    </g>
    <g id="ytick_2">
     <g id="line2d_17">
      <path clip-path="url(#p5d5263c9f8)" d="M 57.6 238.072226 
L 414.72 238.072226 
" style="fill:none;stroke:#b0b0b0;stroke-linecap:square;stroke-width:0.8;"/>
     </g>
     <g id="line2d_18">
      <g>
       <use style="stroke:#000000;stroke-width:0.8;" x="57.6" xlink:href="#mbb72f2fdf3" y="238.072226"/>
      </g>
     </g>
     <g id="text_10">
      <!-- 600 -->
      <defs>
       <path d="M 33.015625 40.375 
Q 26.375 40.375 22.484375 35.828125 
Q 18.609375 31.296875 18.609375 23.390625 
Q 18.609375 15.53125 22.484375 10.953125 
Q 26.375 6.390625 33.015625 6.390625 
Q 39.65625 6.390625 43.53125 10.953125 
Q 47.40625 15.53125 47.40625 23.390625 
Q 47.40625 31.296875 43.53125 35.828125 
Q 39.65625 40.375 33.015625 40.375 
z
M 52.59375 71.296875 
L 52.59375 62.3125 
Q 48.875 64.0625 45.09375 64.984375 
Q 41.3125 65.921875 37.59375 65.921875 
Q 27.828125 65.921875 22.671875 59.328125 
Q 17.53125 52.734375 16.796875 39.40625 
Q 19.671875 43.65625 24.015625 45.921875 
Q 28.375 48.1875 33.59375 48.1875 
Q 44.578125 48.1875 50.953125 41.515625 
Q 57.328125 34.859375 57.328125 23.390625 
Q 57.328125 12.15625 50.6875 5.359375 
Q 44.046875 -1.421875 33.015625 -1.421875 
Q 20.359375 -1.421875 13.671875 8.265625 
Q 6.984375 17.96875 6.984375 36.375 
Q 6.984375 53.65625 15.1875 63.9375 
Q 23.390625 74.21875 37.203125 74.21875 
Q 40.921875 74.21875 44.703125 73.484375 
Q 48.484375 72.75 52.59375 71.296875 
z
" id="DejaVuSans-54"/>
      </defs>
      <g transform="translate(31.5125 241.871445)scale(0.1 -0.1)">
       <use xlink:href="#DejaVuSans-54"/>
       <use x="63.623047" xlink:href="#DejaVuSans-48"/>
       <use x="127.246094" xlink:href="#DejaVuSans-48"/>
      </g>
     </g>
    </g>
    <g id="ytick_3">
     <g id="line2d_19">
      <path clip-path="url(#p5d5263c9f8)" d="M 57.6 198.279857 
L 414.72 198.279857 
" style="fill:none;stroke:#b0b0b0;stroke-linecap:square;stroke-width:0.8;"/>
     </g>
     <g id="line2d_20">
      <g>
       <use style="stroke:#000000;stroke-width:0.8;" x="57.6" xlink:href="#mbb72f2fdf3" y="198.279857"/>
      </g>
     </g>
     <g id="text_11">
      <!-- 800 -->
      <defs>
       <path d="M 31.78125 34.625 
Q 24.75 34.625 20.71875 30.859375 
Q 16.703125 27.09375 16.703125 20.515625 
Q 16.703125 13.921875 20.71875 10.15625 
Q 24.75 6.390625 31.78125 6.390625 
Q 38.8125 6.390625 42.859375 10.171875 
Q 46.921875 13.96875 46.921875 20.515625 
Q 46.921875 27.09375 42.890625 30.859375 
Q 38.875 34.625 31.78125 34.625 
z
M 21.921875 38.8125 
Q 15.578125 40.375 12.03125 44.71875 
Q 8.5 49.078125 8.5 55.328125 
Q 8.5 64.0625 14.71875 69.140625 
Q 20.953125 74.21875 31.78125 74.21875 
Q 42.671875 74.21875 48.875 69.140625 
Q 55.078125 64.0625 55.078125 55.328125 
Q 55.078125 49.078125 51.53125 44.71875 
Q 48 40.375 41.703125 38.8125 
Q 48.828125 37.15625 52.796875 32.3125 
Q 56.78125 27.484375 56.78125 20.515625 
Q 56.78125 9.90625 50.3125 4.234375 
Q 43.84375 -1.421875 31.78125 -1.421875 
Q 19.734375 -1.421875 13.25 4.234375 
Q 6.78125 9.90625 6.78125 20.515625 
Q 6.78125 27.484375 10.78125 32.3125 
Q 14.796875 37.15625 21.921875 38.8125 
z
M 18.3125 54.390625 
Q 18.3125 48.734375 21.84375 45.5625 
Q 25.390625 42.390625 31.78125 42.390625 
Q 38.140625 42.390625 41.71875 45.5625 
Q 45.3125 48.734375 45.3125 54.390625 
Q 45.3125 60.0625 41.71875 63.234375 
Q 38.140625 66.40625 31.78125 66.40625 
Q 25.390625 66.40625 21.84375 63.234375 
Q 18.3125 60.0625 18.3125 54.390625 
z
" id="DejaVuSans-56"/>
      </defs>
      <g transform="translate(31.5125 202.079076)scale(0.1 -0.1)">
       <use xlink:href="#DejaVuSans-56"/>
       <use x="63.623047" xlink:href="#DejaVuSans-48"/>
       <use x="127.246094" xlink:href="#DejaVuSans-48"/>
      </g>
     </g>
    </g>
    <g id="ytick_4">
     <g id="line2d_21">
      <path clip-path="url(#p5d5263c9f8)" d="M 57.6 158.487488 
L 414.72 158.487488 
" style="fill:none;stroke:#b0b0b0;stroke-linecap:square;stroke-width:0.8;"/>
     </g>
     <g id="line2d_22">
      <g>
       <use style="stroke:#000000;stroke-width:0.8;" x="57.6" xlink:href="#mbb72f2fdf3" y="158.487488"/>
      </g>
     </g>
     <g id="text_12">
      <!-- 1000 -->
      <g transform="translate(25.15 162.286707)scale(0.1 -0.1)">
       <use xlink:href="#DejaVuSans-49"/>
       <use x="63.623047" xlink:href="#DejaVuSans-48"/>
       <use x="127.246094" xlink:href="#DejaVuSans-48"/>
       <use x="190.869141" xlink:href="#DejaVuSans-48"/>
      </g>
     </g>
    </g>
    <g id="ytick_5">
     <g id="line2d_23">
      <path clip-path="url(#p5d5263c9f8)" d="M 57.6 118.695119 
L 414.72 118.695119 
" style="fill:none;stroke:#b0b0b0;stroke-linecap:square;stroke-width:0.8;"/>
     </g>
     <g id="line2d_24">
      <g>
       <use style="stroke:#000000;stroke-width:0.8;" x="57.6" xlink:href="#mbb72f2fdf3" y="118.695119"/>
      </g>
     </g>
     <g id="text_13">
      <!-- 1200 -->
      <g transform="translate(25.15 122.494338)scale(0.1 -0.1)">
       <use xlink:href="#DejaVuSans-49"/>
       <use x="63.623047" xlink:href="#DejaVuSans-50"/>
       <use x="127.246094" xlink:href="#DejaVuSans-48"/>
       <use x="190.869141" xlink:href="#DejaVuSans-48"/>
      </g>
     </g>
    </g>
    <g id="ytick_6">
     <g id="line2d_25">
      <path clip-path="url(#p5d5263c9f8)" d="M 57.6 78.90275 
L 414.72 78.90275 
" style="fill:none;stroke:#b0b0b0;stroke-linecap:square;stroke-width:0.8;"/>
     </g>
     <g id="line2d_26">
      <g>
       <use style="stroke:#000000;stroke-width:0.8;" x="57.6" xlink:href="#mbb72f2fdf3" y="78.90275"/>
      </g>
     </g>
     <g id="text_14">
      <!-- 1400 -->
      <g transform="translate(25.15 82.701969)scale(0.1 -0.1)">
       <use xlink:href="#DejaVuSans-49"/>
       <use x="63.623047" xlink:href="#DejaVuSans-52"/>
       <use x="127.246094" xlink:href="#DejaVuSans-48"/>
       <use x="190.869141" xlink:href="#DejaVuSans-48"/>
      </g>
     </g>
    </g>
    <g id="text_15">
     <!-- Fitness -->
     <defs>
      <path d="M 9.8125 72.90625 
L 51.703125 72.90625 
L 51.703125 64.59375 
L 19.671875 64.59375 
L 19.671875 43.109375 
L 48.578125 43.109375 
L 48.578125 34.8125 
L 19.671875 34.8125 
L 19.671875 0 
L 9.8125 0 
z
" id="DejaVuSans-70"/>
     </defs>
     <g transform="translate(19.070312 192.202219)rotate(-90)scale(0.1 -0.1)">
      <use xlink:href="#DejaVuSans-70"/>
      <use x="57.410156" xlink:href="#DejaVuSans-105"/>
      <use x="85.193359" xlink:href="#DejaVuSans-116"/>
      <use x="124.402344" xlink:href="#DejaVuSans-110"/>
      <use x="187.78125" xlink:href="#DejaVuSans-101"/>
      <use x="249.304688" xlink:href="#DejaVuSans-115"/>
      <use x="301.404297" xlink:href="#DejaVuSans-115"/>
     </g>
    </g>
   </g>
   <g id="line2d_27">
    <path clip-path="url(#p5d5263c9f8)" d="M 73.832727 289.584014 
L 74.918528 198.67282 
L 76.00433 193.318905 
L 77.090131 175.332043 
L 78.175932 181.103006 
L 79.261733 174.639255 
L 80.347534 193.535306 
L 81.433335 179.631707 
L 82.519137 181.959461 
L 83.604938 151.636528 
L 84.690739 161.675843 
L 85.77654 159.365847 
L 86.862341 165.269282 
L 87.948142 143.660617 
L 89.033943 143.011504 
L 90.119745 156.25656 
L 91.205546 174.073386 
L 92.291347 144.3247 
L 93.377148 150.138419 
L 95.54875 126.904014 
L 96.634552 146.764743 
L 97.720353 150.47817 
L 98.806154 175.837171 
L 99.891955 145.983185 
L 100.977756 133.724968 
L 102.063557 145.420788 
L 104.23516 121.133101 
L 105.320961 147.050861 
L 106.406762 137.022248 
L 107.492563 123.171386 
L 108.578364 112.273594 
L 109.664165 143.424574 
L 110.749967 150.836722 
L 111.835768 130.854478 
L 112.921569 132.110076 
L 114.00737 158.669388 
L 115.093171 132.291471 
L 116.178972 117.38623 
L 117.264773 119.30509 
L 118.350575 119.170673 
L 119.436376 132.796597 
L 120.522177 126.32184 
L 121.607978 151.637655 
L 122.693779 147.485223 
L 123.77958 157.138317 
L 124.865382 134.187797 
L 125.951183 139.267782 
L 127.036984 127.355651 
L 128.122785 129.939513 
L 129.208586 109.229466 
L 130.294387 121.719208 
L 131.380189 125.457741 
L 132.46599 125.959452 
L 133.551791 119.068067 
L 134.637592 124.703133 
L 135.723393 128.747788 
L 136.809194 131.114969 
L 137.894995 137.929168 
L 138.980797 122.584365 
L 140.066598 143.547492 
L 141.152399 122.366794 
L 142.2382 142.569027 
L 143.324001 131.522508 
L 144.409802 127.590781 
L 145.495604 132.978372 
L 146.581405 119.732147 
L 147.667206 113.872605 
L 148.753007 114.655616 
L 149.838808 134.068329 
L 150.924609 124.237033 
L 152.01041 131.561484 
L 153.096212 128.322056 
L 154.182013 121.188407 
L 155.267814 146.474389 
L 156.353615 123.842747 
L 157.439416 124.65975 
L 158.525217 122.450317 
L 159.611019 126.986337 
L 160.69682 130.054194 
L 161.782621 144.369307 
L 162.868422 122.677414 
L 163.954223 120.021204 
L 165.040024 120.47823 
L 166.125825 128.813538 
L 167.211627 128.408568 
L 168.297428 124.015174 
L 169.383229 141.736498 
L 170.46903 119.507518 
L 171.554831 130.551975 
L 172.640632 131.077838 
L 173.726434 143.705878 
L 174.812235 125.713472 
L 175.898036 138.779724 
L 176.983837 121.576104 
L 178.069638 115.50283 
L 179.155439 143.14202 
L 180.24124 108.940187 
L 181.327042 114.980553 
L 182.412843 113.487771 
L 183.498644 122.372324 
L 184.584445 123.780422 
L 185.670246 110.101385 
L 186.756047 114.389423 
L 187.841849 107.685337 
L 188.92765 124.447264 
L 190.013451 123.012487 
L 191.099252 126.01104 
L 192.185053 120.42061 
L 193.270854 111.602792 
L 194.356656 117.560934 
L 195.442457 115.338275 
L 196.528258 107.213415 
L 197.614059 113.575877 
L 198.69986 117.021003 
L 199.785661 129.238833 
L 200.871462 117.56786 
L 201.957264 117.86959 
L 203.043065 121.323046 
L 204.128866 111.09872 
L 205.214667 121.209753 
L 206.300468 125.526361 
L 207.386269 118.385009 
L 208.472071 129.962937 
L 209.557872 116.573011 
L 210.643673 120.466033 
L 211.729474 129.847032 
L 212.815275 123.816134 
L 213.901076 109.233508 
L 214.986877 111.998458 
L 216.072679 101.645118 
L 217.15848 112.74527 
L 218.244281 103.391069 
L 219.330082 101.039708 
L 220.415883 123.088658 
L 221.501684 117.414194 
L 222.587486 122.357087 
L 223.673287 119.145656 
L 224.759088 131.133763 
L 225.844889 122.310016 
L 226.93069 128.680259 
L 228.016491 129.554664 
L 229.102292 121.720114 
L 230.188094 128.987528 
L 231.273895 117.056178 
L 232.359696 118.204434 
L 233.445497 116.107588 
L 234.531298 111.475874 
L 235.617099 113.52055 
L 236.702901 107.22989 
L 237.788702 113.705408 
L 238.874503 100.747817 
L 239.960304 115.528146 
L 241.046105 118.834873 
L 243.217708 93.02333 
L 244.303509 107.101376 
L 245.38931 115.183534 
L 246.475111 103.542392 
L 247.560912 121.369267 
L 248.646713 135.626368 
L 249.732514 99.797481 
L 250.818316 110.128544 
L 251.904117 113.506799 
L 252.989918 104.927126 
L 254.075719 123.097678 
L 255.16152 134.320532 
L 256.247321 128.612097 
L 257.333123 110.67867 
L 258.418924 113.619092 
L 259.504725 116.200761 
L 260.590526 117.499408 
L 261.676327 122.351055 
L 262.762128 125.66359 
L 263.847929 143.092827 
L 264.933731 135.201862 
L 266.019532 143.425231 
L 267.105333 128.312978 
L 268.191134 123.562277 
L 269.276935 121.172677 
L 270.362736 141.988953 
L 271.448538 138.208139 
L 272.534339 120.419594 
L 273.62014 116.417252 
L 274.705941 146.835484 
L 275.791742 124.142097 
L 276.877543 121.753031 
L 277.963344 128.867459 
L 279.049146 96.588712 
L 280.134947 133.740982 
L 281.220748 127.975145 
L 282.306549 121.406662 
L 283.39235 143.46187 
L 284.478151 107.343584 
L 285.563953 125.170607 
L 286.649754 108.256517 
L 288.821356 140.076817 
L 289.907157 127.557764 
L 290.992958 143.422794 
L 292.07876 132.615274 
L 293.164561 125.813829 
L 294.250362 129.905112 
L 295.336163 116.042957 
L 296.421964 135.793637 
L 297.507765 138.060802 
L 298.593566 126.580835 
L 299.679368 118.053877 
L 300.765169 122.573318 
L 301.85097 114.631245 
L 302.936771 110.543042 
L 304.022572 93.669997 
L 305.108373 111.68742 
L 306.194175 114.83364 
L 308.365777 109.107067 
L 309.451578 102.972251 
L 310.537379 104.578194 
L 311.62318 105.934699 
L 312.708981 108.589403 
L 313.794783 117.624659 
L 314.880584 102.742204 
L 315.966385 99.545472 
L 317.052186 106.050197 
L 318.137987 96.650874 
L 319.223788 94.965723 
L 320.30959 108.472812 
L 321.395391 101.012908 
L 322.481192 114.558735 
L 323.566993 101.485284 
L 324.652794 112.43244 
L 325.738595 105.620827 
L 326.824396 88.404213 
L 327.910198 96.963177 
L 328.995999 118.367759 
L 330.0818 113.510071 
L 331.167601 115.201619 
L 332.253402 113.901782 
L 333.339203 122.816149 
L 334.425005 100.362302 
L 335.510806 108.107665 
L 336.596607 92.942523 
L 337.682408 115.636507 
L 338.768209 119.405374 
L 339.85401 97.654536 
L 340.939811 122.158142 
L 342.025613 104.029941 
L 343.111414 91.570959 
L 344.197215 100.204652 
L 345.283016 92.279104 
L 346.368817 113.264041 
L 347.454618 102.655144 
L 348.54042 110.294503 
L 349.626221 98.433572 
L 350.712022 89.579782 
L 351.797823 115.041935 
L 352.883624 107.955166 
L 353.969425 93.103754 
L 355.055227 108.266532 
L 356.141028 102.267592 
L 357.226829 109.052752 
L 358.31263 108.533074 
L 359.398431 93.047334 
L 360.484232 87.746933 
L 362.655835 127.107038 
L 363.741636 109.654406 
L 364.827437 123.077555 
L 365.913238 120.647881 
L 366.999039 104.100032 
L 368.08484 106.765045 
L 369.170642 101.527618 
L 370.256443 109.586789 
L 371.342244 105.430072 
L 372.428045 121.065948 
L 373.513846 130.599957 
L 374.599647 107.744301 
L 375.685448 113.157345 
L 376.77125 98.727433 
L 377.857051 103.04432 
L 378.942852 103.15378 
L 380.028653 107.587421 
L 382.200255 122.022436 
L 383.286057 116.330291 
L 384.371858 124.12244 
L 385.457659 121.380363 
L 386.54346 114.429131 
L 387.629261 121.27315 
L 388.715062 113.096334 
L 389.800863 103.285297 
L 390.886665 124.038012 
L 391.972466 127.208556 
L 393.058267 100.509952 
L 394.144068 117.688983 
L 395.229869 116.924806 
L 396.31567 124.087623 
L 397.401472 110.23496 
L 398.487273 117.196108 
L 398.487273 117.196108 
" style="fill:none;stroke:#0000ff;stroke-linecap:square;stroke-width:1.5;"/>
   </g>
   <g id="line2d_28">
    <path clip-path="url(#p5d5263c9f8)" d="M 73.832727 295.488 
L 74.918528 207.64285 
L 76.00433 200.121687 
L 77.090131 182.760081 
L 78.175932 191.030248 
L 79.261733 184.334165 
L 80.347534 212.936882 
L 81.433335 206.045477 
L 82.519137 192.653808 
L 83.604938 172.912368 
L 84.690739 193.817605 
L 85.77654 198.259871 
L 86.862341 205.514789 
L 87.948142 168.262028 
L 89.033943 180.334135 
L 90.119745 195.665788 
L 91.205546 208.498246 
L 92.291347 184.643088 
L 93.377148 183.355039 
L 94.462949 163.282067 
L 95.54875 152.739793 
L 96.634552 196.350329 
L 97.720353 192.985466 
L 98.806154 216.567708 
L 99.891955 193.412628 
L 100.977756 181.41909 
L 102.063557 190.773548 
L 103.149358 175.078606 
L 104.23516 156.192238 
L 105.320961 167.188322 
L 106.406762 166.97339 
L 107.492563 137.859391 
L 108.578364 127.500585 
L 109.664165 170.235263 
L 110.749967 188.509978 
L 111.835768 165.975689 
L 112.921569 167.681404 
L 114.00737 210.543079 
L 115.093171 156.441822 
L 116.178972 137.82695 
L 117.264773 143.302592 
L 118.350575 134.224231 
L 119.436376 157.264402 
L 120.522177 146.337398 
L 121.607978 178.127637 
L 122.693779 172.993306 
L 123.77958 194.427618 
L 124.865382 155.966739 
L 125.951183 158.61166 
L 127.036984 159.362595 
L 128.122785 156.28465 
L 129.208586 133.853931 
L 130.294387 145.989115 
L 131.380189 140.102456 
L 132.46599 150.505077 
L 133.551791 154.28355 
L 134.637592 162.977108 
L 135.723393 169.568188 
L 136.809194 165.019598 
L 137.894995 178.622196 
L 138.980797 148.97771 
L 140.066598 174.29873 
L 141.152399 156.034282 
L 142.2382 192.744337 
L 143.324001 167.639837 
L 144.409802 164.102059 
L 145.495604 157.805796 
L 146.581405 149.112113 
L 147.667206 147.634286 
L 148.753007 144.184906 
L 149.838808 181.749733 
L 150.924609 151.555956 
L 152.01041 164.951298 
L 153.096212 159.349137 
L 154.182013 142.059664 
L 155.267814 174.574497 
L 156.353615 143.101555 
L 157.439416 150.417349 
L 158.525217 154.659608 
L 159.611019 163.978005 
L 160.69682 172.246955 
L 161.782621 178.53177 
L 162.868422 157.810955 
L 163.954223 151.754796 
L 165.040024 141.836305 
L 166.125825 166.872606 
L 167.211627 170.535407 
L 168.297428 159.44565 
L 169.383229 180.260221 
L 170.46903 152.885664 
L 171.554831 155.053144 
L 172.640632 168.5549 
L 173.726434 192.250688 
L 174.812235 149.970479 
L 175.898036 179.356548 
L 176.983837 152.127942 
L 178.069638 144.252165 
L 179.155439 172.278014 
L 180.24124 128.137865 
L 181.327042 142.020496 
L 182.412843 144.15272 
L 183.498644 155.172118 
L 184.584445 147.95393 
L 185.670246 129.135228 
L 186.756047 134.856795 
L 187.841849 155.856868 
L 188.92765 154.905313 
L 190.013451 153.385969 
L 191.099252 154.858333 
L 192.185053 140.117898 
L 193.270854 134.630928 
L 194.356656 139.98861 
L 195.442457 144.720624 
L 196.528258 124.748667 
L 197.614059 142.062155 
L 198.69986 140.115256 
L 199.785661 155.659797 
L 200.871462 156.489242 
L 201.957264 138.785576 
L 203.043065 146.809517 
L 204.128866 132.133756 
L 205.214667 152.868799 
L 206.300468 145.718617 
L 207.386269 149.466395 
L 208.472071 169.240009 
L 209.557872 139.222693 
L 210.643673 171.313586 
L 212.815275 149.896906 
L 213.901076 146.310069 
L 214.986877 141.47204 
L 216.072679 123.321695 
L 217.15848 156.977761 
L 218.244281 129.82962 
L 219.330082 128.403052 
L 220.415883 160.720545 
L 221.501684 155.783884 
L 222.587486 156.251229 
L 223.673287 174.992178 
L 224.759088 178.682046 
L 225.844889 169.572642 
L 226.93069 180.733543 
L 228.016491 166.84594 
L 229.102292 150.247324 
L 230.188094 162.082513 
L 231.273895 150.123399 
L 232.359696 160.106786 
L 233.445497 146.234568 
L 234.531298 142.482386 
L 235.617099 161.626273 
L 236.702901 132.508645 
L 237.788702 150.148006 
L 238.874503 132.385962 
L 239.960304 155.792978 
L 241.046105 159.763788 
L 242.131906 133.464968 
L 243.217708 123.491392 
L 244.303509 149.752535 
L 245.38931 147.463514 
L 246.475111 124.479546 
L 247.560912 162.087024 
L 248.646713 174.20123 
L 249.732514 136.462883 
L 250.818316 145.430779 
L 251.904117 147.805308 
L 252.989918 135.194233 
L 254.075719 148.264948 
L 255.16152 177.954751 
L 257.333123 138.964128 
L 258.418924 158.298876 
L 259.504725 155.097796 
L 260.590526 153.084241 
L 261.676327 162.417072 
L 262.762128 160.825766 
L 263.847929 172.122625 
L 264.933731 167.443534 
L 266.019532 178.215705 
L 267.105333 156.5866 
L 268.191134 150.364861 
L 269.276935 149.124588 
L 270.362736 166.468892 
L 271.448538 168.75496 
L 272.534339 157.007785 
L 273.62014 148.876493 
L 274.705941 182.423007 
L 275.791742 144.150372 
L 276.877543 146.006462 
L 277.963344 164.420822 
L 279.049146 114.475581 
L 280.134947 163.698161 
L 281.220748 173.77728 
L 282.306549 144.961661 
L 283.39235 167.884298 
L 284.478151 154.337935 
L 285.563953 161.714155 
L 286.649754 141.773405 
L 287.735555 155.975891 
L 288.821356 179.402854 
L 289.907157 161.933711 
L 290.992958 182.419297 
L 292.07876 159.951608 
L 293.164561 153.601181 
L 294.250362 160.138123 
L 295.336163 148.03581 
L 296.421964 171.326304 
L 297.507765 164.100277 
L 298.593566 158.728019 
L 299.679368 148.933391 
L 300.765169 147.898384 
L 301.85097 160.319631 
L 302.936771 137.550111 
L 304.022572 120.165995 
L 305.108373 151.320948 
L 306.194175 139.083127 
L 307.279976 151.835046 
L 308.365777 146.280261 
L 309.451578 132.099886 
L 310.537379 137.228264 
L 311.62318 148.957476 
L 312.708981 142.867155 
L 313.794783 156.389075 
L 314.880584 123.488005 
L 315.966385 137.498646 
L 317.052186 149.131581 
L 318.137987 124.605123 
L 319.223788 122.011464 
L 320.30959 125.310128 
L 321.395391 124.299165 
L 322.481192 148.405797 
L 323.566993 122.578514 
L 324.652794 140.381935 
L 325.738595 144.327503 
L 326.824396 118.819859 
L 327.910198 116.449313 
L 328.995999 150.183541 
L 330.0818 143.099093 
L 331.167601 132.084822 
L 332.253402 134.242963 
L 333.339203 149.443231 
L 334.425005 132.886565 
L 335.510806 139.297281 
L 336.596607 117.044459 
L 337.682408 139.081098 
L 338.768209 149.873451 
L 339.85401 115.931895 
L 340.939811 158.092448 
L 342.025613 131.616044 
L 343.111414 125.613514 
L 344.197215 124.566533 
L 345.283016 116.938033 
L 346.368817 151.387664 
L 347.454618 125.686851 
L 348.54042 144.803015 
L 349.626221 139.597519 
L 350.712022 125.591565 
L 352.883624 149.211071 
L 353.969425 125.709702 
L 355.055227 144.322906 
L 356.141028 141.020088 
L 357.226829 132.618448 
L 358.31263 133.777957 
L 359.398431 112.291668 
L 360.484232 108.934989 
L 362.655835 175.368872 
L 363.741636 139.550991 
L 364.827437 156.189221 
L 365.913238 156.95727 
L 366.999039 134.845646 
L 368.08484 137.560263 
L 369.170642 123.294788 
L 370.256443 139.75708 
L 371.342244 152.686972 
L 372.428045 155.673752 
L 373.513846 153.630887 
L 374.599647 147.933904 
L 375.685448 141.17924 
L 376.77125 124.296609 
L 377.857051 126.349261 
L 378.942852 124.493141 
L 381.114454 150.624081 
L 382.200255 148.707086 
L 383.286057 144.573075 
L 384.371858 164.274076 
L 385.457659 152.424755 
L 386.54346 136.421548 
L 387.629261 166.174971 
L 388.715062 150.299335 
L 389.800863 131.12933 
L 390.886665 148.855383 
L 391.972466 150.298411 
L 393.058267 134.13668 
L 394.144068 142.438431 
L 395.229869 142.626793 
L 396.31567 147.079523 
L 397.401472 134.956797 
L 398.487273 144.394431 
L 398.487273 144.394431 
" style="fill:none;stroke:#008000;stroke-dasharray:9.6,2.4,1.5,2.4;stroke-dashoffset:0;stroke-width:1.5;"/>
   </g>
   <g id="line2d_29">
    <path clip-path="url(#p5d5263c9f8)" d="M 73.832727 283.680028 
L 74.918528 189.70279 
L 76.00433 186.516122 
L 77.090131 167.904005 
L 78.175932 171.175764 
L 79.261733 164.944345 
L 80.347534 174.133729 
L 81.433335 153.217938 
L 82.519137 171.265115 
L 83.604938 130.360688 
L 84.690739 129.53408 
L 85.77654 120.471824 
L 86.862341 125.023775 
L 87.948142 119.059205 
L 89.033943 105.688874 
L 90.119745 116.847333 
L 91.205546 139.648525 
L 92.291347 104.006313 
L 93.377148 116.921799 
L 94.462949 113.846155 
L 95.54875 101.068235 
L 96.634552 97.179158 
L 97.720353 107.970873 
L 98.806154 135.106635 
L 99.891955 98.553741 
L 100.977756 86.030847 
L 102.063557 100.068028 
L 103.149358 90.656362 
L 104.23516 86.073965 
L 105.320961 126.9134 
L 106.406762 107.071107 
L 107.492563 108.483381 
L 108.578364 97.046603 
L 109.664165 116.613885 
L 110.749967 113.163466 
L 111.835768 95.733268 
L 112.921569 96.538748 
L 114.00737 106.795698 
L 115.093171 108.141121 
L 116.178972 96.945511 
L 117.264773 95.307589 
L 118.350575 104.117116 
L 119.436376 108.328791 
L 120.522177 106.306282 
L 121.607978 125.147672 
L 122.693779 121.977141 
L 123.77958 119.849016 
L 124.865382 112.408855 
L 125.951183 119.923904 
L 127.036984 95.348707 
L 128.122785 103.594376 
L 129.208586 84.605001 
L 131.380189 110.813026 
L 132.46599 101.413828 
L 133.551791 83.852583 
L 134.637592 86.429159 
L 135.723393 87.927388 
L 136.809194 97.210341 
L 137.894995 97.236139 
L 138.980797 96.191021 
L 140.066598 112.796254 
L 141.152399 88.699307 
L 142.2382 92.393716 
L 143.324001 95.40518 
L 144.409802 91.079504 
L 145.495604 108.150947 
L 146.581405 90.35218 
L 147.667206 80.110925 
L 148.753007 85.126326 
L 149.838808 86.386926 
L 150.924609 96.918109 
L 152.01041 98.171671 
L 153.096212 97.294975 
L 154.182013 100.317149 
L 155.267814 118.374282 
L 156.353615 104.583939 
L 157.439416 98.902151 
L 158.525217 90.241027 
L 159.611019 89.994669 
L 160.69682 87.861432 
L 161.782621 110.206845 
L 162.868422 87.543873 
L 163.954223 88.287612 
L 165.040024 99.120156 
L 166.125825 90.75447 
L 167.211627 86.28173 
L 168.297428 88.584698 
L 169.383229 103.212776 
L 170.46903 86.129372 
L 171.554831 106.050807 
L 172.640632 93.600775 
L 173.726434 95.161068 
L 174.812235 101.456465 
L 175.898036 98.202901 
L 176.983837 91.024266 
L 178.069638 86.753494 
L 179.155439 114.006026 
L 180.24124 89.74251 
L 181.327042 87.94061 
L 182.412843 82.822821 
L 183.498644 89.572531 
L 184.584445 99.606914 
L 185.670246 91.067542 
L 186.756047 93.922052 
L 187.841849 59.513807 
L 188.92765 93.989214 
L 190.013451 92.639006 
L 191.099252 97.163748 
L 192.185053 100.723322 
L 193.270854 88.574656 
L 194.356656 95.133257 
L 195.442457 85.955926 
L 196.528258 89.678163 
L 197.614059 85.089598 
L 199.785661 102.817869 
L 200.871462 78.646479 
L 201.957264 96.953603 
L 203.043065 95.836574 
L 204.128866 90.063684 
L 205.214667 89.550707 
L 206.300468 105.334104 
L 207.386269 87.303622 
L 209.557872 93.92333 
L 210.643673 69.618481 
L 211.729474 99.10125 
L 212.815275 97.735361 
L 213.901076 72.156946 
L 214.986877 82.524876 
L 216.072679 79.96854 
L 217.15848 68.51278 
L 218.244281 76.952518 
L 219.330082 73.676364 
L 220.415883 85.45677 
L 221.501684 79.044505 
L 222.587486 88.462945 
L 223.673287 63.299133 
L 224.759088 83.585479 
L 225.844889 75.04739 
L 226.93069 76.626975 
L 228.016491 92.263387 
L 229.102292 93.192904 
L 230.188094 95.892543 
L 231.273895 83.988957 
L 232.359696 76.302081 
L 233.445497 85.980608 
L 234.531298 80.469362 
L 235.617099 65.414827 
L 236.702901 81.951134 
L 237.788702 77.262809 
L 238.874503 69.109672 
L 239.960304 75.263315 
L 241.046105 77.905958 
L 242.131906 77.116969 
L 243.217708 62.555267 
L 244.303509 64.450218 
L 245.38931 82.903554 
L 246.475111 82.605237 
L 247.560912 80.651511 
L 248.646713 97.051505 
L 249.732514 63.132079 
L 250.818316 74.826308 
L 251.904117 79.20829 
L 252.989918 74.660018 
L 254.075719 97.930408 
L 255.16152 90.686312 
L 256.247321 99.737092 
L 257.333123 82.393213 
L 258.418924 68.939307 
L 259.504725 77.303726 
L 260.590526 81.914576 
L 261.676327 82.285038 
L 262.762128 90.501414 
L 263.847929 114.06303 
L 264.933731 102.96019 
L 266.019532 108.634757 
L 267.105333 100.039355 
L 269.276935 93.220766 
L 270.362736 117.509015 
L 271.448538 107.661318 
L 272.534339 83.831403 
L 273.62014 83.958011 
L 274.705941 111.247961 
L 276.877543 97.499601 
L 277.963344 93.314096 
L 279.049146 78.701843 
L 280.134947 103.783804 
L 281.220748 82.17301 
L 282.306549 97.851663 
L 283.39235 119.039442 
L 284.478151 60.349232 
L 285.563953 88.62706 
L 286.649754 74.739629 
L 287.735555 93.967153 
L 288.821356 100.75078 
L 289.907157 93.181817 
L 290.992958 104.426291 
L 292.07876 105.278939 
L 293.164561 98.026478 
L 294.250362 99.672101 
L 295.336163 84.050103 
L 296.421964 100.260969 
L 297.507765 112.021327 
L 298.593566 94.433652 
L 299.679368 87.174363 
L 300.765169 97.248252 
L 301.85097 68.942859 
L 302.936771 83.535973 
L 304.022572 67.173999 
L 305.108373 72.053892 
L 306.194175 90.584153 
L 307.279976 72.296285 
L 308.365777 71.933873 
L 309.451578 73.844617 
L 310.537379 71.928123 
L 311.62318 62.911922 
L 312.708981 74.311651 
L 313.794783 78.860243 
L 314.880584 81.996403 
L 315.966385 61.592298 
L 317.052186 62.968812 
L 318.137987 68.696625 
L 319.223788 67.919982 
L 320.30959 91.635497 
L 321.395391 77.726652 
L 322.481192 80.711672 
L 323.566993 80.392054 
L 324.652794 84.482945 
L 325.738595 66.914152 
L 326.824396 57.988566 
L 327.910198 77.477041 
L 328.995999 86.551977 
L 330.0818 83.921049 
L 331.167601 98.318416 
L 332.253402 93.560602 
L 333.339203 96.189066 
L 334.425005 67.838038 
L 335.510806 76.918049 
L 336.596607 68.840586 
L 337.682408 92.191916 
L 338.768209 88.937297 
L 339.85401 79.377177 
L 340.939811 86.223835 
L 342.025613 76.443839 
L 343.111414 57.528405 
L 344.197215 75.842771 
L 345.283016 67.620175 
L 346.368817 75.140418 
L 347.454618 79.623437 
L 348.54042 75.785991 
L 349.626221 57.269626 
L 350.712022 53.568 
L 351.797823 92.735164 
L 352.883624 66.699261 
L 353.969425 60.497806 
L 355.055227 72.210158 
L 356.141028 63.515097 
L 357.226829 85.487056 
L 358.31263 83.288191 
L 359.398431 73.803 
L 360.484232 66.558876 
L 362.655835 78.845203 
L 363.741636 79.75782 
L 364.827437 89.965889 
L 365.913238 84.338492 
L 366.999039 73.354418 
L 368.08484 75.969828 
L 369.170642 79.760448 
L 370.256443 79.416497 
L 371.342244 58.173173 
L 372.428045 86.458145 
L 373.513846 107.569027 
L 374.599647 67.554697 
L 375.685448 85.13545 
L 376.77125 73.158257 
L 377.857051 79.739379 
L 378.942852 81.81442 
L 380.028653 78.162008 
L 381.114454 78.814615 
L 382.200255 95.337786 
L 383.286057 88.087508 
L 384.371858 83.970804 
L 385.457659 90.33597 
L 386.54346 92.436715 
L 387.629261 76.371329 
L 389.800863 75.441264 
L 390.886665 99.220641 
L 391.972466 104.118701 
L 393.058267 66.883225 
L 394.144068 92.939535 
L 395.229869 91.22282 
L 396.31567 101.095723 
L 397.401472 85.513123 
L 398.487273 89.997785 
L 398.487273 89.997785 
" style="fill:none;stroke:#008000;stroke-dasharray:9.6,2.4,1.5,2.4;stroke-dashoffset:0;stroke-width:1.5;"/>
   </g>
   <g id="line2d_30">
    <path clip-path="url(#p5d5263c9f8)" d="M 73.832727 274.143342 
L 74.918528 181.141187 
L 76.00433 181.191626 
L 77.090131 158.436287 
L 78.175932 166.842047 
L 79.261733 157.017451 
L 80.347534 170.626789 
L 81.433335 155.229962 
L 82.519137 169.185319 
L 83.604938 137.048007 
L 84.690739 133.949901 
L 85.77654 128.386084 
L 86.862341 138.607083 
L 87.948142 123.072476 
L 89.033943 116.361128 
L 90.119745 129.890666 
L 91.205546 146.696608 
L 92.291347 119.288805 
L 93.377148 130.628295 
L 94.462949 122.27503 
L 95.54875 105.234097 
L 96.634552 114.805988 
L 97.720353 120.597864 
L 98.806154 138.711469 
L 99.891955 102.167475 
L 100.977756 98.364902 
L 102.063557 111.124523 
L 103.149358 103.737848 
L 104.23516 94.392165 
L 105.320961 126.752975 
L 106.406762 108.937771 
L 107.492563 105.153261 
L 108.578364 96.104321 
L 109.664165 119.41956 
L 110.749967 123.783264 
L 111.835768 102.919732 
L 112.921569 103.015739 
L 114.00737 109.809295 
L 115.093171 105.221357 
L 116.178972 95.23788 
L 117.264773 101.023764 
L 118.350575 104.748695 
L 119.436376 101.942012 
L 120.522177 104.518407 
L 121.607978 132.072167 
L 122.693779 122.347672 
L 123.77958 129.854456 
L 124.865382 111.841477 
L 125.951183 113.559785 
L 127.036984 102.028128 
L 128.122785 107.60318 
L 129.208586 87.598634 
L 130.294387 98.508271 
L 131.380189 108.139739 
L 132.46599 102.181245 
L 133.551791 94.007878 
L 134.637592 93.615203 
L 136.809194 106.060832 
L 137.894995 95.583485 
L 138.980797 97.92055 
L 140.066598 113.069585 
L 141.152399 94.621568 
L 142.2382 99.790872 
L 143.324001 96.249993 
L 144.409802 93.63428 
L 145.495604 106.510943 
L 146.581405 87.238036 
L 147.667206 85.57117 
L 148.753007 86.782447 
L 149.838808 91.641442 
L 150.924609 97.949459 
L 152.01041 101.809651 
L 153.096212 99.962448 
L 154.182013 95.656122 
L 155.267814 118.276607 
L 156.353615 105.778347 
L 157.439416 98.093755 
L 158.525217 96.336042 
L 159.611019 93.554817 
L 160.69682 91.692102 
L 161.782621 114.058919 
L 162.868422 89.888767 
L 163.954223 96.561969 
L 165.040024 99.749238 
L 166.125825 100.60086 
L 167.211627 95.0925 
L 168.297428 92.826874 
L 169.383229 106.444698 
L 170.46903 93.055443 
L 171.554831 107.674082 
L 173.726434 95.92274 
L 174.812235 102.7153 
L 175.898036 103.343954 
L 176.983837 92.526967 
L 178.069638 93.117157 
L 179.155439 118.479107 
L 180.24124 97.103054 
L 181.327042 93.101779 
L 182.412843 92.175145 
L 183.498644 95.524501 
L 184.584445 104.369193 
L 185.670246 93.801762 
L 186.756047 97.880851 
L 187.841849 80.919705 
L 188.92765 94.71523 
L 190.013451 93.40042 
L 191.099252 94.271663 
L 192.185053 93.375356 
L 193.270854 89.231371 
L 194.356656 90.782439 
L 195.442457 88.812871 
L 196.528258 89.903398 
L 197.614059 88.689285 
L 199.785661 101.948693 
L 200.871462 94.321834 
L 201.957264 90.376789 
L 203.043065 94.293827 
L 204.128866 88.408666 
L 205.214667 90.972575 
L 206.300468 104.661081 
L 207.386269 90.747054 
L 208.472071 96.866549 
L 209.557872 88.020963 
L 210.643673 76.379768 
L 211.729474 99.502312 
L 212.815275 97.015495 
L 213.901076 73.339494 
L 214.986877 81.657665 
L 216.072679 72.753368 
L 217.15848 76.750795 
L 219.330082 73.134868 
L 220.415883 86.592384 
L 221.501684 80.257502 
L 222.587486 85.803422 
L 223.673287 71.418857 
L 224.759088 85.242975 
L 225.844889 76.244928 
L 226.93069 80.468278 
L 228.016491 86.939053 
L 229.102292 86.782825 
L 230.188094 81.540152 
L 231.273895 80.934963 
L 232.359696 76.674458 
L 233.445497 83.67438 
L 234.531298 70.502648 
L 235.617099 67.544277 
L 236.702901 75.146332 
L 237.788702 75.822005 
L 238.874503 72.264717 
L 239.960304 80.000404 
L 241.046105 76.052006 
L 242.131906 77.337442 
L 243.217708 69.895472 
L 244.303509 74.382861 
L 245.38931 81.723016 
L 246.475111 81.612902 
L 247.560912 81.668598 
L 248.646713 101.064286 
L 249.732514 66.357449 
L 250.818316 81.733393 
L 251.904117 78.219943 
L 252.989918 72.958612 
L 254.075719 94.678435 
L 255.16152 86.86763 
L 256.247321 99.778303 
L 257.333123 81.340371 
L 258.418924 75.246122 
L 259.504725 79.840355 
L 260.590526 82.324278 
L 261.676327 84.258694 
L 262.762128 88.57036 
L 263.847929 108.854585 
L 264.933731 95.886879 
L 266.019532 105.738515 
L 267.105333 95.508262 
L 268.191134 93.783561 
L 269.276935 95.06859 
L 270.362736 113.724362 
L 271.448538 102.092476 
L 272.534339 89.139779 
L 273.62014 89.487483 
L 274.705941 109.122371 
L 275.791742 100.508145 
L 276.877543 96.7744 
L 277.963344 96.70697 
L 279.049146 77.916114 
L 280.134947 99.569803 
L 281.220748 89.578236 
L 282.306549 97.470474 
L 283.39235 118.977798 
L 284.478151 70.534186 
L 285.563953 100.720999 
L 286.649754 75.930104 
L 287.735555 96.861267 
L 288.821356 105.732711 
L 289.907157 96.204305 
L 290.992958 112.009023 
L 292.07876 101.672768 
L 293.164561 99.979072 
L 294.250362 99.264276 
L 295.336163 80.43183 
L 296.421964 104.185762 
L 297.507765 112.113036 
L 298.593566 91.278423 
L 299.679368 92.361473 
L 300.765169 94.687106 
L 301.85097 68.649594 
L 302.936771 85.121004 
L 304.022572 67.613881 
L 305.108373 77.870046 
L 306.194175 85.418731 
L 307.279976 79.47793 
L 308.365777 82.786723 
L 309.451578 69.101806 
L 310.537379 71.637792 
L 311.62318 72.512734 
L 312.708981 79.192618 
L 313.794783 82.084862 
L 314.880584 77.260594 
L 315.966385 66.641973 
L 317.052186 75.919786 
L 318.137987 66.508753 
L 319.223788 67.177268 
L 320.30959 87.198658 
L 321.395391 80.841604 
L 322.481192 84.458851 
L 323.566993 78.52322 
L 324.652794 85.298298 
L 326.824396 64.2074 
L 328.995999 88.141987 
L 330.0818 88.861452 
L 331.167601 90.803064 
L 332.253402 90.854938 
L 333.339203 87.391539 
L 334.425005 71.231789 
L 335.510806 78.892982 
L 336.596607 68.040473 
L 337.682408 95.963695 
L 338.768209 92.427424 
L 339.85401 76.532768 
L 340.939811 90.680077 
L 342.025613 72.496785 
L 343.111414 66.200605 
L 344.197215 74.597455 
L 345.283016 67.086371 
L 346.368817 84.288835 
L 347.454618 75.221431 
L 348.54042 80.59928 
L 349.626221 67.971387 
L 350.712022 65.004488 
L 351.797823 92.143271 
L 352.883624 74.133569 
L 353.969425 66.25191 
L 355.055227 75.043748 
L 356.141028 72.942309 
L 357.226829 85.473081 
L 358.31263 80.719646 
L 359.398431 74.516786 
L 360.484232 65.967956 
L 361.570033 79.610536 
L 362.655835 82.577358 
L 363.741636 72.693178 
L 364.827437 88.179223 
L 365.913238 82.1004 
L 366.999039 75.11954 
L 368.08484 74.285568 
L 369.170642 77.239892 
L 370.256443 77.051197 
L 371.342244 71.817337 
L 372.428045 79.545862 
L 373.513846 99.641206 
L 374.599647 74.396638 
L 375.685448 79.935488 
L 376.77125 69.914403 
L 377.857051 76.453354 
L 378.942852 78.75392 
L 380.028653 77.553465 
L 381.114454 86.80517 
L 382.200255 94.171375 
L 383.286057 90.961317 
L 384.371858 94.064762 
L 385.457659 89.829209 
L 386.54346 97.207342 
L 387.629261 86.777647 
L 388.715062 87.309548 
L 389.800863 85.517815 
L 390.886665 102.337943 
L 391.972466 99.023303 
L 393.058267 74.184791 
L 394.144068 93.77622 
L 395.229869 85.546014 
L 396.31567 88.056163 
L 397.401472 84.192504 
L 398.487273 86.100063 
L 398.487273 86.100063 
" style="fill:none;stroke:#ff0000;stroke-linecap:square;stroke-width:1.5;"/>
   </g>
   <g id="patch_3">
    <path d="M 57.6 307.584 
L 57.6 41.472 
" style="fill:none;stroke:#000000;stroke-linecap:square;stroke-linejoin:miter;stroke-width:0.8;"/>
   </g>
   <g id="patch_4">
    <path d="M 414.72 307.584 
L 414.72 41.472 
" style="fill:none;stroke:#000000;stroke-linecap:square;stroke-linejoin:miter;stroke-width:0.8;"/>
   </g>
   <g id="patch_5">
    <path d="M 57.6 307.584 
L 414.72 307.584 
" style="fill:none;stroke:#000000;stroke-linecap:square;stroke-linejoin:miter;stroke-width:0.8;"/>
   </g>
   <g id="patch_6">
    <path d="M 57.6 41.472 
L 414.72 41.472 
" style="fill:none;stroke:#000000;stroke-linecap:square;stroke-linejoin:miter;stroke-width:0.8;"/>
   </g>
   <g id="text_16">
    <!-- Population's average and best fitness -->
    <defs>
     <path d="M 19.671875 64.796875 
L 19.671875 37.40625 
L 32.078125 37.40625 
Q 38.96875 37.40625 42.71875 40.96875 
Q 46.484375 44.53125 46.484375 51.125 
Q 46.484375 57.671875 42.71875 61.234375 
Q 38.96875 64.796875 32.078125 64.796875 
z
M 9.8125 72.90625 
L 32.078125 72.90625 
Q 44.34375 72.90625 50.609375 67.359375 
Q 56.890625 61.8125 56.890625 51.125 
Q 56.890625 40.328125 50.609375 34.8125 
Q 44.34375 29.296875 32.078125 29.296875 
L 19.671875 29.296875 
L 19.671875 0 
L 9.8125 0 
z
" id="DejaVuSans-80"/>
     <path d="M 18.109375 8.203125 
L 18.109375 -20.796875 
L 9.078125 -20.796875 
L 9.078125 54.6875 
L 18.109375 54.6875 
L 18.109375 46.390625 
Q 20.953125 51.265625 25.265625 53.625 
Q 29.59375 56 35.59375 56 
Q 45.5625 56 51.78125 48.09375 
Q 58.015625 40.1875 58.015625 27.296875 
Q 58.015625 14.40625 51.78125 6.484375 
Q 45.5625 -1.421875 35.59375 -1.421875 
Q 29.59375 -1.421875 25.265625 0.953125 
Q 20.953125 3.328125 18.109375 8.203125 
z
M 48.6875 27.296875 
Q 48.6875 37.203125 44.609375 42.84375 
Q 40.53125 48.484375 33.40625 48.484375 
Q 26.265625 48.484375 22.1875 42.84375 
Q 18.109375 37.203125 18.109375 27.296875 
Q 18.109375 17.390625 22.1875 11.75 
Q 26.265625 6.109375 33.40625 6.109375 
Q 40.53125 6.109375 44.609375 11.75 
Q 48.6875 17.390625 48.6875 27.296875 
z
" id="DejaVuSans-112"/>
     <path d="M 8.5 21.578125 
L 8.5 54.6875 
L 17.484375 54.6875 
L 17.484375 21.921875 
Q 17.484375 14.15625 20.5 10.265625 
Q 23.53125 6.390625 29.59375 6.390625 
Q 36.859375 6.390625 41.078125 11.03125 
Q 45.3125 15.671875 45.3125 23.6875 
L 45.3125 54.6875 
L 54.296875 54.6875 
L 54.296875 0 
L 45.3125 0 
L 45.3125 8.40625 
Q 42.046875 3.421875 37.71875 1 
Q 33.40625 -1.421875 27.6875 -1.421875 
Q 18.265625 -1.421875 13.375 4.4375 
Q 8.5 10.296875 8.5 21.578125 
z
M 31.109375 56 
z
" id="DejaVuSans-117"/>
     <path d="M 9.421875 75.984375 
L 18.40625 75.984375 
L 18.40625 0 
L 9.421875 0 
z
" id="DejaVuSans-108"/>
     <path d="M 17.921875 72.90625 
L 17.921875 45.796875 
L 9.625 45.796875 
L 9.625 72.90625 
z
" id="DejaVuSans-39"/>
     <path id="DejaVuSans-32"/>
     <path d="M 2.984375 54.6875 
L 12.5 54.6875 
L 29.59375 8.796875 
L 46.6875 54.6875 
L 56.203125 54.6875 
L 35.6875 0 
L 23.484375 0 
z
" id="DejaVuSans-118"/>
     <path d="M 45.40625 27.984375 
Q 45.40625 37.75 41.375 43.109375 
Q 37.359375 48.484375 30.078125 48.484375 
Q 22.859375 48.484375 18.828125 43.109375 
Q 14.796875 37.75 14.796875 27.984375 
Q 14.796875 18.265625 18.828125 12.890625 
Q 22.859375 7.515625 30.078125 7.515625 
Q 37.359375 7.515625 41.375 12.890625 
Q 45.40625 18.265625 45.40625 27.984375 
z
M 54.390625 6.78125 
Q 54.390625 -7.171875 48.1875 -13.984375 
Q 42 -20.796875 29.203125 -20.796875 
Q 24.46875 -20.796875 20.265625 -20.09375 
Q 16.0625 -19.390625 12.109375 -17.921875 
L 12.109375 -9.1875 
Q 16.0625 -11.328125 19.921875 -12.34375 
Q 23.78125 -13.375 27.78125 -13.375 
Q 36.625 -13.375 41.015625 -8.765625 
Q 45.40625 -4.15625 45.40625 5.171875 
L 45.40625 9.625 
Q 42.625 4.78125 38.28125 2.390625 
Q 33.9375 0 27.875 0 
Q 17.828125 0 11.671875 7.65625 
Q 5.515625 15.328125 5.515625 27.984375 
Q 5.515625 40.671875 11.671875 48.328125 
Q 17.828125 56 27.875 56 
Q 33.9375 56 38.28125 53.609375 
Q 42.625 51.21875 45.40625 46.390625 
L 45.40625 54.6875 
L 54.390625 54.6875 
z
" id="DejaVuSans-103"/>
     <path d="M 45.40625 46.390625 
L 45.40625 75.984375 
L 54.390625 75.984375 
L 54.390625 0 
L 45.40625 0 
L 45.40625 8.203125 
Q 42.578125 3.328125 38.25 0.953125 
Q 33.9375 -1.421875 27.875 -1.421875 
Q 17.96875 -1.421875 11.734375 6.484375 
Q 5.515625 14.40625 5.515625 27.296875 
Q 5.515625 40.1875 11.734375 48.09375 
Q 17.96875 56 27.875 56 
Q 33.9375 56 38.25 53.625 
Q 42.578125 51.265625 45.40625 46.390625 
z
M 14.796875 27.296875 
Q 14.796875 17.390625 18.875 11.75 
Q 22.953125 6.109375 30.078125 6.109375 
Q 37.203125 6.109375 41.296875 11.75 
Q 45.40625 17.390625 45.40625 27.296875 
Q 45.40625 37.203125 41.296875 42.84375 
Q 37.203125 48.484375 30.078125 48.484375 
Q 22.953125 48.484375 18.875 42.84375 
Q 14.796875 37.203125 14.796875 27.296875 
z
" id="DejaVuSans-100"/>
     <path d="M 48.6875 27.296875 
Q 48.6875 37.203125 44.609375 42.84375 
Q 40.53125 48.484375 33.40625 48.484375 
Q 26.265625 48.484375 22.1875 42.84375 
Q 18.109375 37.203125 18.109375 27.296875 
Q 18.109375 17.390625 22.1875 11.75 
Q 26.265625 6.109375 33.40625 6.109375 
Q 40.53125 6.109375 44.609375 11.75 
Q 48.6875 17.390625 48.6875 27.296875 
z
M 18.109375 46.390625 
Q 20.953125 51.265625 25.265625 53.625 
Q 29.59375 56 35.59375 56 
Q 45.5625 56 51.78125 48.09375 
Q 58.015625 40.1875 58.015625 27.296875 
Q 58.015625 14.40625 51.78125 6.484375 
Q 45.5625 -1.421875 35.59375 -1.421875 
Q 29.59375 -1.421875 25.265625 0.953125 
Q 20.953125 3.328125 18.109375 8.203125 
L 18.109375 0 
L 9.078125 0 
L 9.078125 75.984375 
L 18.109375 75.984375 
z
" id="DejaVuSans-98"/>
     <path d="M 37.109375 75.984375 
L 37.109375 68.5 
L 28.515625 68.5 
Q 23.6875 68.5 21.796875 66.546875 
Q 19.921875 64.59375 19.921875 59.515625 
L 19.921875 54.6875 
L 34.71875 54.6875 
L 34.71875 47.703125 
L 19.921875 47.703125 
L 19.921875 0 
L 10.890625 0 
L 10.890625 47.703125 
L 2.296875 47.703125 
L 2.296875 54.6875 
L 10.890625 54.6875 
L 10.890625 58.5 
Q 10.890625 67.625 15.140625 71.796875 
Q 19.390625 75.984375 28.609375 75.984375 
z
" id="DejaVuSans-102"/>
    </defs>
    <g transform="translate(123.315 35.472)scale(0.12 -0.12)">
     <use xlink:href="#DejaVuSans-80"/>
     <use x="60.255859" xlink:href="#DejaVuSans-111"/>
     <use x="121.4375" xlink:href="#DejaVuSans-112"/>
     <use x="184.914062" xlink:href="#DejaVuSans-117"/>
     <use x="248.292969" xlink:href="#DejaVuSans-108"/>
     <use x="276.076172" xlink:href="#DejaVuSans-97"/>
     <use x="337.355469" xlink:href="#DejaVuSans-116"/>
     <use x="376.564453" xlink:href="#DejaVuSans-105"/>
     <use x="404.347656" xlink:href="#DejaVuSans-111"/>
     <use x="465.529297" xlink:href="#DejaVuSans-110"/>
     <use x="528.908203" xlink:href="#DejaVuSans-39"/>
     <use x="556.398438" xlink:href="#DejaVuSans-115"/>
     <use x="608.498047" xlink:href="#DejaVuSans-32"/>
     <use x="640.285156" xlink:href="#DejaVuSans-97"/>
     <use x="701.564453" xlink:href="#DejaVuSans-118"/>
     <use x="760.744141" xlink:href="#DejaVuSans-101"/>
     <use x="822.267578" xlink:href="#DejaVuSans-114"/>
     <use x="863.380859" xlink:href="#DejaVuSans-97"/>
     <use x="924.660156" xlink:href="#DejaVuSans-103"/>
     <use x="988.136719" xlink:href="#DejaVuSans-101"/>
     <use x="1049.660156" xlink:href="#DejaVuSans-32"/>
     <use x="1081.447266" xlink:href="#DejaVuSans-97"/>
     <use x="1142.726562" xlink:href="#DejaVuSans-110"/>
     <use x="1206.105469" xlink:href="#DejaVuSans-100"/>
     <use x="1269.582031" xlink:href="#DejaVuSans-32"/>
     <use x="1301.369141" xlink:href="#DejaVuSans-98"/>
     <use x="1364.845703" xlink:href="#DejaVuSans-101"/>
     <use x="1426.369141" xlink:href="#DejaVuSans-115"/>
     <use x="1478.46875" xlink:href="#DejaVuSans-116"/>
     <use x="1517.677734" xlink:href="#DejaVuSans-32"/>
     <use x="1549.464844" xlink:href="#DejaVuSans-102"/>
     <use x="1584.669922" xlink:href="#DejaVuSans-105"/>
     <use x="1612.453125" xlink:href="#DejaVuSans-116"/>
     <use x="1651.662109" xlink:href="#DejaVuSans-110"/>
     <use x="1715.041016" xlink:href="#DejaVuSans-101"/>
     <use x="1776.564453" xlink:href="#DejaVuSans-115"/>
     <use x="1828.664062" xlink:href="#DejaVuSans-115"/>
    </g>
   </g>
   <g id="legend_1">
    <g id="patch_7">
     <path d="M 334.779375 302.584 
L 407.72 302.584 
Q 409.72 302.584 409.72 300.584 
L 409.72 242.8715 
Q 409.72 240.8715 407.72 240.8715 
L 334.779375 240.8715 
Q 332.779375 240.8715 332.779375 242.8715 
L 332.779375 300.584 
Q 332.779375 302.584 334.779375 302.584 
z
" style="fill:#ffffff;opacity:0.8;stroke:#cccccc;stroke-linejoin:miter;"/>
    </g>
    <g id="line2d_31">
     <path d="M 336.779375 248.969937 
L 356.779375 248.969937 
" style="fill:none;stroke:#0000ff;stroke-linecap:square;stroke-width:1.5;"/>
    </g>
    <g id="line2d_32"/>
    <g id="text_17">
     <!-- average -->
     <g transform="translate(364.779375 252.469937)scale(0.1 -0.1)">
      <use xlink:href="#DejaVuSans-97"/>
      <use x="61.279297" xlink:href="#DejaVuSans-118"/>
      <use x="120.458984" xlink:href="#DejaVuSans-101"/>
      <use x="181.982422" xlink:href="#DejaVuSans-114"/>
      <use x="223.095703" xlink:href="#DejaVuSans-97"/>
      <use x="284.375" xlink:href="#DejaVuSans-103"/>
      <use x="347.851562" xlink:href="#DejaVuSans-101"/>
     </g>
    </g>
    <g id="line2d_33">
     <path d="M 336.779375 263.648062 
L 356.779375 263.648062 
" style="fill:none;stroke:#008000;stroke-dasharray:9.6,2.4,1.5,2.4;stroke-dashoffset:0;stroke-width:1.5;"/>
    </g>
    <g id="line2d_34"/>
    <g id="text_18">
     <!-- -1 sd -->
     <defs>
      <path d="M 4.890625 31.390625 
L 31.203125 31.390625 
L 31.203125 23.390625 
L 4.890625 23.390625 
z
" id="DejaVuSans-45"/>
     </defs>
     <g transform="translate(364.779375 267.148062)scale(0.1 -0.1)">
      <use xlink:href="#DejaVuSans-45"/>
      <use x="36.083984" xlink:href="#DejaVuSans-49"/>
      <use x="99.707031" xlink:href="#DejaVuSans-32"/>
      <use x="131.494141" xlink:href="#DejaVuSans-115"/>
      <use x="183.59375" xlink:href="#DejaVuSans-100"/>
     </g>
    </g>
    <g id="line2d_35">
     <path d="M 336.779375 278.326187 
L 356.779375 278.326187 
" style="fill:none;stroke:#008000;stroke-dasharray:9.6,2.4,1.5,2.4;stroke-dashoffset:0;stroke-width:1.5;"/>
    </g>
    <g id="line2d_36"/>
    <g id="text_19">
     <!-- +1 sd -->
     <defs>
      <path d="M 46 62.703125 
L 46 35.5 
L 73.1875 35.5 
L 73.1875 27.203125 
L 46 27.203125 
L 46 0 
L 37.796875 0 
L 37.796875 27.203125 
L 10.59375 27.203125 
L 10.59375 35.5 
L 37.796875 35.5 
L 37.796875 62.703125 
z
" id="DejaVuSans-43"/>
     </defs>
     <g transform="translate(364.779375 281.826187)scale(0.1 -0.1)">
      <use xlink:href="#DejaVuSans-43"/>
      <use x="83.789062" xlink:href="#DejaVuSans-49"/>
      <use x="147.412109" xlink:href="#DejaVuSans-32"/>
      <use x="179.199219" xlink:href="#DejaVuSans-115"/>
      <use x="231.298828" xlink:href="#DejaVuSans-100"/>
     </g>
    </g>
    <g id="line2d_37">
     <path d="M 336.779375 293.004312 
L 356.779375 293.004312 
" style="fill:none;stroke:#ff0000;stroke-linecap:square;stroke-width:1.5;"/>
    </g>
    <g id="line2d_38"/>
    <g id="text_20">
     <!-- best -->
     <g transform="translate(364.779375 296.504312)scale(0.1 -0.1)">
      <use xlink:href="#DejaVuSans-98"/>
      <use x="63.476562" xlink:href="#DejaVuSans-101"/>
      <use x="125" xlink:href="#DejaVuSans-115"/>
      <use x="177.099609" xlink:href="#DejaVuSans-116"/>
     </g>
    </g>
   </g>
  </g>
 </g>
 <defs>
  <clipPath id="p5d5263c9f8">
   <rect height="266.112" width="357.12" x="57.6" y="41.472"/>
  </clipPath>
 </defs>
</svg>
