<?xml version="1.0" encoding="UTF-8" standalone="no"?>
<!DOCTYPE svg PUBLIC "-//W3C//DTD SVG 1.1//EN"
 "http://www.w3.org/Graphics/SVG/1.1/DTD/svg11.dtd">
<!-- Generated by graphviz version 2.40.1 (20161225.0304)
 -->
<!-- Title: %3 Pages: 1 -->
<svg width="526pt" height="168pt"
 viewBox="0.00 0.00 525.72 167.71" xmlns="http://www.w3.org/2000/svg" xmlns:xlink="http://www.w3.org/1999/xlink">
<g id="graph0" class="graph" transform="scale(1 1) rotate(0) translate(4 163.7107)">
<title>%3</title>
<polygon fill="#ffffff" stroke="transparent" points="-4,4 -4,-163.7107 521.7193,-163.7107 521.7193,4 -4,4"/>
<!-- &#45;1 -->
<g id="node1" class="node">
<title>&#45;1</title>
<polygon fill="#d3d3d3" stroke="#000000" points="276.8621,-159.7107 252.8572,-159.7107 252.8572,-142.7107 276.8621,-142.7107 276.8621,-159.7107"/>
<text text-anchor="middle" x="264.8597" y="-148.5107" font-family="Times,serif" font-size="9.00" fill="#000000">&#45;1</text>
</g>
<!-- &#45;2 -->
<g id="node2" class="node">
<title>&#45;2</title>
<polygon fill="#d3d3d3" stroke="#000000" points="318.8621,-159.7107 294.8572,-159.7107 294.8572,-142.7107 318.8621,-142.7107 318.8621,-159.7107"/>
<text text-anchor="middle" x="306.8597" y="-148.5107" font-family="Times,serif" font-size="9.00" fill="#000000">&#45;2</text>
</g>
<!-- &#45;1&#45;&gt;&#45;2 -->
<!-- 663 -->
<g id="node15" class="node">
<title>663</title>
<ellipse fill="#ffffff" stroke="#000000" cx="262.8597" cy="-85.851" rx="20.7202" ry="20.7202"/>
<text text-anchor="middle" x="262.8597" y="-83.151" font-family="Times,serif" font-size="9.00" fill="#000000">663</text>
</g>
<!-- &#45;1&#45;&gt;663 -->
<g id="edge19" class="edge">
<title>&#45;1&#45;&gt;663</title>
<path fill="none" stroke="#ff0000" stroke-width="1.0025" d="M264.5982,-142.666C264.3945,-136.0083 264.0983,-126.331 263.808,-116.8437"/>
<polygon fill="#ff0000" stroke="#ff0000" stroke-width="1.0025" points="267.3043,-116.6638 263.4999,-106.7756 260.3075,-116.878 267.3043,-116.6638"/>
</g>
<!-- &#45;3 -->
<g id="node3" class="node">
<title>&#45;3</title>
<polygon fill="#d3d3d3" stroke="#000000" points="360.8621,-159.7107 336.8572,-159.7107 336.8572,-142.7107 360.8621,-142.7107 360.8621,-159.7107"/>
<text text-anchor="middle" x="348.8597" y="-148.5107" font-family="Times,serif" font-size="9.00" fill="#000000">&#45;3</text>
</g>
<!-- &#45;2&#45;&gt;&#45;3 -->
<!-- 8 -->
<g id="node12" class="node">
<title>8</title>
<ellipse fill="#add8e6" stroke="#000000" cx="396.8597" cy="-14.4957" rx="14.4914" ry="14.4914"/>
<text text-anchor="middle" x="396.8597" y="-11.7957" font-family="Times,serif" font-size="9.00" fill="#000000">8</text>
</g>
<!-- &#45;2&#45;&gt;8 -->
<g id="edge11" class="edge">
<title>&#45;2&#45;&gt;8</title>
<path fill="none" stroke="#00ff00" stroke-width=".154" stroke-dasharray="1,5" d="M312.4896,-142.6585C326.4396,-121.4677 362.9288,-66.0386 383.0485,-35.4756"/>
<polygon fill="#00ff00" stroke="#00ff00" stroke-width=".154" points="386.1488,-37.1314 388.724,-26.8542 380.302,-33.2823 386.1488,-37.1314"/>
</g>
<!-- &#45;2&#45;&gt;663 -->
<g id="edge15" class="edge">
<title>&#45;2&#45;&gt;663</title>
<path fill="none" stroke="#ff0000" stroke-width=".189" d="M301.1074,-142.666C295.8138,-134.8026 287.6844,-122.7269 280.2795,-111.7273"/>
<polygon fill="#ff0000" stroke="#ff0000" stroke-width=".189" points="283.0521,-109.5783 274.5642,-103.2375 277.2453,-113.4875 283.0521,-109.5783"/>
</g>
<!-- 4 -->
<g id="node8" class="node">
<title>4</title>
<ellipse fill="#add8e6" stroke="#000000" cx="208.8597" cy="-14.4957" rx="14.4914" ry="14.4914"/>
<text text-anchor="middle" x="208.8597" y="-11.7957" font-family="Times,serif" font-size="9.00" fill="#000000">4</text>
</g>
<!-- &#45;3&#45;&gt;4 -->
<g id="edge18" class="edge">
<title>&#45;3&#45;&gt;4</title>
<path fill="none" stroke="#ff0000" stroke-width=".3381" d="M344.8582,-142.462C336.8892,-125.7699 317.6481,-88.9125 292.8597,-64.9914 270.4817,-43.3965 259.5029,-45.0304 232.8597,-28.9914 232.0569,-28.5081 231.2391,-28.0155 230.4132,-27.5178"/>
<polygon fill="#ff0000" stroke="#ff0000" stroke-width=".3381" points="231.9304,-24.3456 221.5601,-22.176 228.314,-30.3391 231.9304,-24.3456"/>
</g>
<!-- 7 -->
<g id="node11" class="node">
<title>7</title>
<ellipse fill="#add8e6" stroke="#000000" cx="349.8597" cy="-14.4957" rx="14.4914" ry="14.4914"/>
<text text-anchor="middle" x="349.8597" y="-11.7957" font-family="Times,serif" font-size="9.00" fill="#000000">7</text>
</g>
<!-- &#45;3&#45;&gt;7 -->
<g id="edge12" class="edge">
<title>&#45;3&#45;&gt;7</title>
<path fill="none" stroke="#00ff00" stroke-width=".3316" d="M348.9222,-142.6585C349.0706,-122.3692 349.4486,-70.6929 349.6767,-39.5068"/>
<polygon fill="#00ff00" stroke="#00ff00" stroke-width=".3316" points="353.1772,-39.4408 349.7505,-29.4154 346.1774,-39.3895 353.1772,-39.4408"/>
</g>
<!-- 267 -->
<g id="node14" class="node">
<title>267</title>
<ellipse fill="#ffffff" stroke="#000000" cx="436.8597" cy="-85.851" rx="20.7202" ry="20.7202"/>
<text text-anchor="middle" x="436.8597" y="-83.151" font-family="Times,serif" font-size="9.00" fill="#000000">267</text>
</g>
<!-- &#45;3&#45;&gt;267 -->
<g id="edge13" class="edge">
<title>&#45;3&#45;&gt;267</title>
<path fill="none" stroke="#00ff00" stroke-width=".3477" d="M360.3641,-142.666C373.2976,-133.0601 394.6946,-117.168 411.5748,-104.6306"/>
<polygon fill="#00ff00" stroke="#00ff00" stroke-width=".3477" points="413.9806,-107.2036 419.9217,-98.4313 409.8068,-101.5841 413.9806,-107.2036"/>
</g>
<!-- 0 -->
<g id="node4" class="node">
<title>0</title>
<ellipse fill="#add8e6" stroke="#000000" cx="20.8597" cy="-14.4957" rx="14.4914" ry="14.4914"/>
<text text-anchor="middle" x="20.8597" y="-11.7957" font-family="Times,serif" font-size="9.00" fill="#000000">0</text>
</g>
<!-- 1 -->
<g id="node5" class="node">
<title>1</title>
<ellipse fill="#add8e6" stroke="#000000" cx="67.8597" cy="-14.4957" rx="14.4914" ry="14.4914"/>
<text text-anchor="middle" x="67.8597" y="-11.7957" font-family="Times,serif" font-size="9.00" fill="#000000">1</text>
</g>
<!-- 0&#45;&gt;1 -->
<!-- 2 -->
<g id="node6" class="node">
<title>2</title>
<ellipse fill="#add8e6" stroke="#000000" cx="114.8597" cy="-14.4957" rx="14.4914" ry="14.4914"/>
<text text-anchor="middle" x="114.8597" y="-11.7957" font-family="Times,serif" font-size="9.00" fill="#000000">2</text>
</g>
<!-- 1&#45;&gt;2 -->
<!-- 3 -->
<g id="node7" class="node">
<title>3</title>
<ellipse fill="#add8e6" stroke="#000000" cx="161.8597" cy="-14.4957" rx="14.4914" ry="14.4914"/>
<text text-anchor="middle" x="161.8597" y="-11.7957" font-family="Times,serif" font-size="9.00" fill="#000000">3</text>
</g>
<!-- 2&#45;&gt;3 -->
<!-- 3&#45;&gt;4 -->
<!-- 5 -->
<g id="node9" class="node">
<title>5</title>
<ellipse fill="#add8e6" stroke="#000000" cx="255.8597" cy="-14.4957" rx="14.4914" ry="14.4914"/>
<text text-anchor="middle" x="255.8597" y="-11.7957" font-family="Times,serif" font-size="9.00" fill="#000000">5</text>
</g>
<!-- 4&#45;&gt;5 -->
<!-- 6 -->
<g id="node10" class="node">
<title>6</title>
<ellipse fill="#add8e6" stroke="#000000" cx="302.8597" cy="-14.4957" rx="14.4914" ry="14.4914"/>
<text text-anchor="middle" x="302.8597" y="-11.7957" font-family="Times,serif" font-size="9.00" fill="#000000">6</text>
</g>
<!-- 5&#45;&gt;6 -->
<!-- 6&#45;&gt;7 -->
<!-- 7&#45;&gt;8 -->
<!-- 577 -->
<g id="node13" class="node">
<title>577</title>
<ellipse fill="#ffffff" stroke="#000000" cx="20.8597" cy="-85.851" rx="20.7202" ry="20.7202"/>
<text text-anchor="middle" x="20.8597" y="-83.151" font-family="Times,serif" font-size="9.00" fill="#000000">577</text>
</g>
<!-- 577&#45;&gt;0 -->
<g id="edge17" class="edge">
<title>577&#45;&gt;0</title>
<path fill="none" stroke="#ff0000" stroke-width=".2718" stroke-dasharray="1,5" d="M20.8597,-64.828C20.8597,-56.8245 20.8597,-47.6301 20.8597,-39.3078"/>
<polygon fill="#ff0000" stroke="#ff0000" stroke-width=".2718" points="24.3597,-39.043 20.8597,-29.043 17.3597,-39.0431 24.3597,-39.043"/>
</g>
<!-- 267&#45;&gt;8 -->
<g id="edge14" class="edge">
<title>267&#45;&gt;8</title>
<path fill="none" stroke="#ff0000" stroke-width=".3332" stroke-dasharray="1,5" d="M426.5587,-67.4753C421.226,-57.9624 414.6794,-46.2841 409.091,-36.315"/>
<polygon fill="#ff0000" stroke="#ff0000" stroke-width=".3332" points="412.0405,-34.4187 404.0976,-27.4073 405.9344,-37.8417 412.0405,-34.4187"/>
</g>
<!-- 663&#45;&gt;8 -->
<g id="edge16" class="edge">
<title>663&#45;&gt;8</title>
<path fill="none" stroke="#00ff00" stroke-width="1.0796" d="M281.7453,-76.5663C303.8191,-65.6048 341.3433,-46.6292 372.8597,-28.9914 373.6773,-28.5338 374.5078,-28.063 375.3444,-27.5837"/>
<polygon fill="#00ff00" stroke="#00ff00" stroke-width="1.0796" points="377.4154,-30.4255 384.2472,-22.3276 373.8566,-24.3976 377.4154,-30.4255"/>
</g>
<!-- 698 -->
<g id="node16" class="node">
<title>698</title>
<ellipse fill="#ffffff" stroke="#000000" cx="161.8597" cy="-85.851" rx="20.7202" ry="20.7202"/>
<text text-anchor="middle" x="161.8597" y="-83.151" font-family="Times,serif" font-size="9.00" fill="#000000">698</text>
</g>
<!-- 698&#45;&gt;3 -->
<g id="edge20" class="edge">
<title>698&#45;&gt;3</title>
<path fill="none" stroke="#ff0000" stroke-width=".2853" d="M161.8597,-64.828C161.8597,-56.8245 161.8597,-47.6301 161.8597,-39.3078"/>
<polygon fill="#ff0000" stroke="#ff0000" stroke-width=".2853" points="165.3597,-39.043 161.8597,-29.043 158.3597,-39.0431 165.3597,-39.043"/>
</g>
<!-- 187 -->
<g id="node17" class="node">
<title>187</title>
<ellipse fill="#ffffff" stroke="#000000" cx="496.8597" cy="-85.851" rx="20.7202" ry="20.7202"/>
<text text-anchor="middle" x="496.8597" y="-83.151" font-family="Times,serif" font-size="9.00" fill="#000000">187</text>
</g>
</g>
</svg>
