<?xml version="1.0" encoding="UTF-8" standalone="no"?>
<!DOCTYPE svg PUBLIC "-//W3C//DTD SVG 1.1//EN"
 "http://www.w3.org/Graphics/SVG/1.1/DTD/svg11.dtd">
<!-- Generated by graphviz version 2.40.1 (20161225.0304)
 -->
<!-- Title: %3 Pages: 1 -->
<svg width="478pt" height="245pt"
 viewBox="0.00 0.00 478.37 245.43" xmlns="http://www.w3.org/2000/svg" xmlns:xlink="http://www.w3.org/1999/xlink">
<g id="graph0" class="graph" transform="scale(1 1) rotate(0) translate(4 241.43)">
<title>%3</title>
<polygon fill="#ffffff" stroke="transparent" points="-4,4 -4,-241.43 474.3749,-241.43 474.3749,4 -4,4"/>
<!-- &#45;1 -->
<g id="node1" class="node">
<title>&#45;1</title>
<polygon fill="#d3d3d3" stroke="#000000" points="23.751,-237.43 -.2539,-237.43 -.2539,-220.43 23.751,-220.43 23.751,-237.43"/>
<text text-anchor="middle" x="11.7485" y="-226.23" font-family="Times,serif" font-size="9.00" fill="#000000">&#45;1</text>
</g>
<!-- &#45;2 -->
<g id="node2" class="node">
<title>&#45;2</title>
<polygon fill="#d3d3d3" stroke="#000000" points="64.751,-237.43 40.7461,-237.43 40.7461,-220.43 64.751,-220.43 64.751,-237.43"/>
<text text-anchor="middle" x="52.7485" y="-226.23" font-family="Times,serif" font-size="9.00" fill="#000000">&#45;2</text>
</g>
<!-- &#45;1&#45;&gt;&#45;2 -->
<!-- 3 -->
<g id="node13" class="node">
<title>3</title>
<ellipse fill="#add8e6" stroke="#000000" cx="271.7485" cy="-14.4957" rx="14.4914" ry="14.4914"/>
<text text-anchor="middle" x="271.7485" y="-11.7957" font-family="Times,serif" font-size="9.00" fill="#000000">3</text>
</g>
<!-- &#45;1&#45;&gt;3 -->
<g id="edge17" class="edge">
<title>&#45;1&#45;&gt;3</title>
<path fill="none" stroke="#00ff00" stroke-width="1.2467" d="M23.7611,-220.8524C51.5626,-201.9845 122.1314,-153.0916 176.7485,-106.7107 205.2629,-82.4962 235.9177,-51.7997 254.4668,-32.6497"/>
<polygon fill="#00ff00" stroke="#00ff00" stroke-width="1.2467" points="257.2216,-34.8345 261.6337,-25.202 252.1777,-29.9807 257.2216,-34.8345"/>
</g>
<!-- 769 -->
<g id="node14" class="node">
<title>769</title>
<ellipse fill="#ffffff" stroke="#000000" cx="86.7485" cy="-85.851" rx="20.7202" ry="20.7202"/>
<text text-anchor="middle" x="86.7485" y="-83.151" font-family="Times,serif" font-size="9.00" fill="#000000">769</text>
</g>
<!-- &#45;1&#45;&gt;769 -->
<g id="edge25" class="edge">
<title>&#45;1&#45;&gt;769</title>
<path fill="none" stroke="#ff0000" stroke-width=".2594" stroke-dasharray="1,5" d="M16.2155,-220.4082C27.0075,-199.8201 54.8837,-146.6402 72.1847,-113.6347"/>
<polygon fill="#ff0000" stroke="#ff0000" stroke-width=".2594" points="75.4297,-114.983 76.9725,-104.501 69.2298,-111.733 75.4297,-114.983"/>
</g>
<!-- &#45;3 -->
<g id="node3" class="node">
<title>&#45;3</title>
<polygon fill="#d3d3d3" stroke="#000000" points="120.751,-237.43 96.7461,-237.43 96.7461,-220.43 120.751,-220.43 120.751,-237.43"/>
<text text-anchor="middle" x="108.7485" y="-226.23" font-family="Times,serif" font-size="9.00" fill="#000000">&#45;3</text>
</g>
<!-- &#45;2&#45;&gt;&#45;3 -->
<!-- 2 -->
<g id="node12" class="node">
<title>2</title>
<ellipse fill="#add8e6" stroke="#000000" cx="139.7485" cy="-14.4957" rx="14.4914" ry="14.4914"/>
<text text-anchor="middle" x="139.7485" y="-11.7957" font-family="Times,serif" font-size="9.00" fill="#000000">2</text>
</g>
<!-- &#45;2&#45;&gt;2 -->
<g id="edge14" class="edge">
<title>&#45;2&#45;&gt;2</title>
<path fill="none" stroke="#ff0000" stroke-width="1.0622" d="M50.2882,-220.3346C43.4586,-194.6429 26.6754,-116.9935 56.7485,-64.9914 56.9743,-64.6009 93.9906,-42.1662 118.5074,-27.335"/>
<polygon fill="#ff0000" stroke="#ff0000" stroke-width="1.0622" points="120.4431,-30.2547 127.1889,-22.0849 116.8207,-24.2648 120.4431,-30.2547"/>
</g>
<!-- &#45;4 -->
<g id="node4" class="node">
<title>&#45;4</title>
<polygon fill="#d3d3d3" stroke="#000000" points="191.751,-237.43 167.7461,-237.43 167.7461,-220.43 191.751,-220.43 191.751,-237.43"/>
<text text-anchor="middle" x="179.7485" y="-226.23" font-family="Times,serif" font-size="9.00" fill="#000000">&#45;4</text>
</g>
<!-- &#45;3&#45;&gt;&#45;4 -->
<!-- &#45;5 -->
<g id="node5" class="node">
<title>&#45;5</title>
<polygon fill="#d3d3d3" stroke="#000000" points="232.751,-237.43 208.7461,-237.43 208.7461,-220.43 232.751,-220.43 232.751,-237.43"/>
<text text-anchor="middle" x="220.7485" y="-226.23" font-family="Times,serif" font-size="9.00" fill="#000000">&#45;5</text>
</g>
<!-- &#45;4&#45;&gt;&#45;5 -->
<!-- &#45;4&#45;&gt;3 -->
<g id="edge18" class="edge">
<title>&#45;4&#45;&gt;3</title>
<path fill="none" stroke="#00ff00" stroke-width=".231" d="M183.469,-220.2583C196.7168,-189.3803 241.8706,-84.1355 261.9662,-37.2965"/>
<polygon fill="#00ff00" stroke="#00ff00" stroke-width=".231" points="265.2361,-38.5518 265.9625,-27.9819 258.8032,-35.7918 265.2361,-38.5518"/>
</g>
<!-- &#45;6 -->
<g id="node6" class="node">
<title>&#45;6</title>
<polygon fill="#d3d3d3" stroke="#000000" points="273.751,-237.43 249.7461,-237.43 249.7461,-220.43 273.751,-220.43 273.751,-237.43"/>
<text text-anchor="middle" x="261.7485" y="-226.23" font-family="Times,serif" font-size="9.00" fill="#000000">&#45;6</text>
</g>
<!-- &#45;5&#45;&gt;&#45;6 -->
<!-- 1 -->
<g id="node11" class="node">
<title>1</title>
<ellipse fill="#add8e6" stroke="#000000" cx="92.7485" cy="-14.4957" rx="14.4914" ry="14.4914"/>
<text text-anchor="middle" x="92.7485" y="-11.7957" font-family="Times,serif" font-size="9.00" fill="#000000">1</text>
</g>
<!-- &#45;5&#45;&gt;1 -->
<g id="edge16" class="edge">
<title>&#45;5&#45;&gt;1</title>
<path fill="none" stroke="#ff0000" stroke-width=".1183" stroke-dasharray="1,5" d="M208.8855,-222.0319C174.0676,-201.5096 73.5532,-140.1922 56.7485,-106.7107 48.431,-90.139 51.0979,-82.6513 56.7485,-64.9914 60.5279,-53.1797 68.1946,-41.7742 75.4853,-32.8008"/>
<polygon fill="#ff0000" stroke="#ff0000" stroke-width=".1183" points="78.3292,-34.8628 82.221,-25.0086 73.0335,-30.2851 78.3292,-34.8628"/>
</g>
<!-- &#45;5&#45;&gt;3 -->
<g id="edge13" class="edge">
<title>&#45;5&#45;&gt;3</title>
<path fill="none" stroke="#ff0000" stroke-width=".5136" stroke-dasharray="1,5" d="M232.7317,-223.1056C250.9988,-213.9506 284.3705,-196.0422 290.7485,-184.43 316.6516,-137.2689 296.3513,-71.7048 282.2877,-37.4374"/>
<polygon fill="#ff0000" stroke="#ff0000" stroke-width=".5136" points="285.3396,-35.6734 278.1815,-27.8624 278.9063,-38.4324 285.3396,-35.6734"/>
</g>
<!-- &#45;7 -->
<g id="node7" class="node">
<title>&#45;7</title>
<polygon fill="#d3d3d3" stroke="#000000" points="315.751,-237.43 291.7461,-237.43 291.7461,-220.43 315.751,-220.43 315.751,-237.43"/>
<text text-anchor="middle" x="303.7485" y="-226.23" font-family="Times,serif" font-size="9.00" fill="#000000">&#45;7</text>
</g>
<!-- &#45;6&#45;&gt;&#45;7 -->
<!-- 654 -->
<g id="node16" class="node">
<title>654</title>
<ellipse fill="#ffffff" stroke="#000000" cx="260.7485" cy="-163.5703" rx="20.7202" ry="20.7202"/>
<text text-anchor="middle" x="260.7485" y="-160.8703" font-family="Times,serif" font-size="9.00" fill="#000000">654</text>
</g>
<!-- &#45;6&#45;&gt;654 -->
<g id="edge19" class="edge">
<title>&#45;6&#45;&gt;654</title>
<path fill="none" stroke="#ff0000" stroke-width=".798" stroke-dasharray="1,5" d="M261.6178,-220.3853C261.5159,-213.7276 261.3679,-204.0503 261.2227,-194.563"/>
<polygon fill="#ff0000" stroke="#ff0000" stroke-width=".798" points="264.7214,-194.4402 261.0687,-184.4949 257.7222,-194.5473 264.7214,-194.4402"/>
</g>
<!-- &#45;8 -->
<g id="node8" class="node">
<title>&#45;8</title>
<polygon fill="#d3d3d3" stroke="#000000" points="356.751,-237.43 332.7461,-237.43 332.7461,-220.43 356.751,-220.43 356.751,-237.43"/>
<text text-anchor="middle" x="344.7485" y="-226.23" font-family="Times,serif" font-size="9.00" fill="#000000">&#45;8</text>
</g>
<!-- &#45;7&#45;&gt;&#45;8 -->
<!-- &#45;9 -->
<g id="node9" class="node">
<title>&#45;9</title>
<polygon fill="#d3d3d3" stroke="#000000" points="397.751,-237.43 373.7461,-237.43 373.7461,-220.43 397.751,-220.43 397.751,-237.43"/>
<text text-anchor="middle" x="385.7485" y="-226.23" font-family="Times,serif" font-size="9.00" fill="#000000">&#45;9</text>
</g>
<!-- &#45;8&#45;&gt;&#45;9 -->
<!-- &#45;8&#45;&gt;3 -->
<g id="edge12" class="edge">
<title>&#45;8&#45;&gt;3</title>
<path fill="none" stroke="#00ff00" stroke-width=".3185" stroke-dasharray="1,5" d="M356.5479,-223.7852C359.232,-222.6512 362.0791,-221.4768 364.7485,-220.43 408.7249,-203.185 437.5868,-223.0764 464.7485,-184.43 475.4104,-169.26 467.6222,-161.0286 464.7485,-142.7107 459.125,-106.8641 465.6515,-90.4008 439.7485,-64.9914 419.2416,-44.8752 337.7332,-26.9865 296.2608,-18.9656"/>
<polygon fill="#00ff00" stroke="#00ff00" stroke-width=".3185" points="296.6502,-15.4772 286.1739,-17.0571 295.3489,-22.3552 296.6502,-15.4772"/>
</g>
<!-- 895 -->
<g id="node18" class="node">
<title>895</title>
<ellipse fill="#ffffff" stroke="#000000" cx="434.7485" cy="-163.5703" rx="20.7202" ry="20.7202"/>
<text text-anchor="middle" x="434.7485" y="-160.8703" font-family="Times,serif" font-size="9.00" fill="#000000">895</text>
</g>
<!-- &#45;8&#45;&gt;895 -->
<g id="edge22" class="edge">
<title>&#45;8&#45;&gt;895</title>
<path fill="none" stroke="#ff0000" stroke-width=".3568" d="M356.5145,-220.3853C369.823,-210.7204 391.894,-194.6921 409.2063,-182.1196"/>
<polygon fill="#ff0000" stroke="#ff0000" stroke-width=".3568" points="411.7193,-184.6202 417.7541,-175.912 407.606,-178.9562 411.7193,-184.6202"/>
</g>
<!-- &#45;9&#45;&gt;1 -->
<g id="edge15" class="edge">
<title>&#45;9&#45;&gt;1</title>
<path fill="none" stroke="#00ff00" stroke-width=".1403" stroke-dasharray="1,5" d="M382.0855,-220.3204C374.5901,-203.5447 356.0517,-166.081 330.7485,-142.7107 251.6269,-69.6328 210.4367,-82.1245 116.7485,-28.9914 115.9335,-28.5291 115.1053,-28.0544 114.2705,-27.5718"/>
<polygon fill="#00ff00" stroke="#00ff00" stroke-width=".1403" points="115.7635,-24.3881 105.3764,-22.3002 112.1943,-30.4098 115.7635,-24.3881"/>
</g>
<!-- 965 -->
<g id="node15" class="node">
<title>965</title>
<ellipse fill="#ffffff" stroke="#000000" cx="146.7485" cy="-85.851" rx="20.7202" ry="20.7202"/>
<text text-anchor="middle" x="146.7485" y="-83.151" font-family="Times,serif" font-size="9.00" fill="#000000">965</text>
</g>
<!-- &#45;9&#45;&gt;965 -->
<g id="edge26" class="edge">
<title>&#45;9&#45;&gt;965</title>
<path fill="none" stroke="#00ff00" stroke-width=".2492" d="M378.1869,-220.2244C363.0763,-203.2805 327.4374,-165.5355 290.7485,-142.7107 254.2052,-119.9764 207.0404,-103.437 176.8374,-94.2371"/>
<polygon fill="#00ff00" stroke="#00ff00" stroke-width=".2492" points="177.4893,-90.7798 166.9068,-91.291 175.4983,-97.4907 177.4893,-90.7798"/>
</g>
<!-- 0 -->
<g id="node10" class="node">
<title>0</title>
<ellipse fill="#add8e6" stroke="#000000" cx="45.7485" cy="-14.4957" rx="14.4914" ry="14.4914"/>
<text text-anchor="middle" x="45.7485" y="-11.7957" font-family="Times,serif" font-size="9.00" fill="#000000">0</text>
</g>
<!-- 0&#45;&gt;1 -->
<!-- 1&#45;&gt;2 -->
<!-- 2&#45;&gt;3 -->
<!-- 2&#45;&gt;769 -->
<g id="edge20" class="edge">
<title>2&#45;&gt;769</title>
<path fill="none" stroke="#00ff00" stroke-width=".6097" d="M131.0856,-26.1588C124.1384,-35.512 114.1385,-48.9752 105.3933,-60.7491"/>
<polygon fill="#00ff00" stroke="#00ff00" stroke-width=".6097" points="102.4618,-58.826 99.3088,-68.9408 108.0813,-63 102.4618,-58.826"/>
</g>
<!-- 965&#45;&gt;1 -->
<g id="edge27" class="edge">
<title>965&#45;&gt;1</title>
<path fill="none" stroke="#00ff00" stroke-width=".539" d="M133.9513,-68.9408C126.0762,-58.5347 115.9476,-45.1508 107.7034,-34.257"/>
<polygon fill="#00ff00" stroke="#00ff00" stroke-width=".539" points="110.4004,-32.0207 101.5749,-26.1588 104.8186,-36.2449 110.4004,-32.0207"/>
</g>
<!-- 654&#45;&gt;769 -->
<g id="edge21" class="edge">
<title>654&#45;&gt;769</title>
<path fill="none" stroke="#ff0000" stroke-width=".3885" d="M240.5355,-157.2436C212.0657,-147.9678 158.9213,-129.304 116.7485,-106.7107 115.2108,-105.8869 113.6573,-104.9993 112.109,-104.0713"/>
<polygon fill="#ff0000" stroke="#ff0000" stroke-width=".3885" points="113.7461,-100.962 103.4474,-98.4744 109.947,-106.8414 113.7461,-100.962"/>
</g>
<!-- 824 -->
<g id="node17" class="node">
<title>824</title>
<ellipse fill="#ffffff" stroke="#000000" cx="385.7485" cy="-85.851" rx="20.7202" ry="20.7202"/>
<text text-anchor="middle" x="385.7485" y="-83.151" font-family="Times,serif" font-size="9.00" fill="#000000">824</text>
</g>
<!-- 895&#45;&gt;3 -->
<g id="edge23" class="edge">
<title>895&#45;&gt;3</title>
<path fill="none" stroke="#00ff00" stroke-width=".3201" d="M436.3965,-142.509C436.937,-120.5836 434.3094,-86.4999 415.7485,-64.9914 399.8378,-46.5539 332.5097,-28.5548 295.8233,-19.8739"/>
<polygon fill="#00ff00" stroke="#00ff00" stroke-width=".3201" points="296.4655,-16.4301 285.9337,-17.5841 294.8864,-23.2497 296.4655,-16.4301"/>
</g>
<!-- 895&#45;&gt;824 -->
<g id="edge24" class="edge">
<title>895&#45;&gt;824</title>
<path fill="none" stroke="#00ff00" stroke-width=".3018" d="M423.3838,-145.5446C417.1552,-135.6654 409.3185,-123.2355 402.4109,-112.2793"/>
<polygon fill="#00ff00" stroke="#00ff00" stroke-width=".3018" points="405.1767,-110.1035 396.8827,-103.511 399.2553,-113.8368 405.1767,-110.1035"/>
</g>
</g>
</svg>
