<?xml version="1.0" encoding="UTF-8" standalone="no"?>
<!DOCTYPE svg PUBLIC "-//W3C//DTD SVG 1.1//EN"
 "http://www.w3.org/Graphics/SVG/1.1/DTD/svg11.dtd">
<!-- Generated by graphviz version 2.40.1 (20161225.0304)
 -->
<!-- Title: %3 Pages: 1 -->
<svg width="382pt" height="168pt"
 viewBox="0.00 0.00 382.32 167.71" xmlns="http://www.w3.org/2000/svg" xmlns:xlink="http://www.w3.org/1999/xlink">
<g id="graph0" class="graph" transform="scale(1 1) rotate(0) translate(4 163.7107)">
<title>%3</title>
<polygon fill="#ffffff" stroke="transparent" points="-4,4 -4,-163.7107 378.3154,-163.7107 378.3154,4 -4,4"/>
<!-- &#45;1 -->
<g id="node1" class="node">
<title>&#45;1</title>
<polygon fill="#d3d3d3" stroke="#000000" points="23.751,-159.7107 -.2539,-159.7107 -.2539,-142.7107 23.751,-142.7107 23.751,-159.7107"/>
<text text-anchor="middle" x="11.7485" y="-148.5107" font-family="Times,serif" font-size="9.00" fill="#000000">&#45;1</text>
</g>
<!-- &#45;2 -->
<g id="node2" class="node">
<title>&#45;2</title>
<polygon fill="#d3d3d3" stroke="#000000" points="64.751,-159.7107 40.7461,-159.7107 40.7461,-142.7107 64.751,-142.7107 64.751,-159.7107"/>
<text text-anchor="middle" x="52.7485" y="-148.5107" font-family="Times,serif" font-size="9.00" fill="#000000">&#45;2</text>
</g>
<!-- &#45;1&#45;&gt;&#45;2 -->
<!-- 3 -->
<g id="node13" class="node">
<title>3</title>
<ellipse fill="#add8e6" stroke="#000000" cx="288.7485" cy="-14.4957" rx="14.4914" ry="14.4914"/>
<text text-anchor="middle" x="288.7485" y="-11.7957" font-family="Times,serif" font-size="9.00" fill="#000000">3</text>
</g>
<!-- &#45;1&#45;&gt;3 -->
<g id="edge14" class="edge">
<title>&#45;1&#45;&gt;3</title>
<path fill="none" stroke="#ff0000" stroke-width=".9825" d="M23.7129,-145.7906C60.1725,-129.1927 172.9378,-77.2555 263.7485,-28.9914 264.8949,-28.3821 266.0649,-27.7479 267.242,-27.1001"/>
<polygon fill="#ff0000" stroke="#ff0000" stroke-width=".9825" points="269.1636,-30.034 276.1323,-22.0535 265.7079,-23.9464 269.1636,-30.034"/>
</g>
<!-- &#45;3 -->
<g id="node3" class="node">
<title>&#45;3</title>
<polygon fill="#d3d3d3" stroke="#000000" points="105.751,-159.7107 81.7461,-159.7107 81.7461,-142.7107 105.751,-142.7107 105.751,-159.7107"/>
<text text-anchor="middle" x="93.7485" y="-148.5107" font-family="Times,serif" font-size="9.00" fill="#000000">&#45;3</text>
</g>
<!-- &#45;2&#45;&gt;&#45;3 -->
<!-- 0 -->
<g id="node10" class="node">
<title>0</title>
<ellipse fill="#add8e6" stroke="#000000" cx="142.7485" cy="-14.4957" rx="14.4914" ry="14.4914"/>
<text text-anchor="middle" x="142.7485" y="-11.7957" font-family="Times,serif" font-size="9.00" fill="#000000">0</text>
</g>
<!-- &#45;2&#45;&gt;0 -->
<g id="edge15" class="edge">
<title>&#45;2&#45;&gt;0</title>
<path fill="none" stroke="#00ff00" stroke-width=".59" stroke-dasharray="1,5" d="M58.3784,-142.6585C72.3285,-121.4677 108.8177,-66.0386 128.9374,-35.4756"/>
<polygon fill="#00ff00" stroke="#00ff00" stroke-width=".59" points="132.0377,-37.1314 134.6129,-26.8542 126.1909,-33.2823 132.0377,-37.1314"/>
</g>
<!-- &#45;4 -->
<g id="node4" class="node">
<title>&#45;4</title>
<polygon fill="#d3d3d3" stroke="#000000" points="146.751,-159.7107 122.7461,-159.7107 122.7461,-142.7107 146.751,-142.7107 146.751,-159.7107"/>
<text text-anchor="middle" x="134.7485" y="-148.5107" font-family="Times,serif" font-size="9.00" fill="#000000">&#45;4</text>
</g>
<!-- &#45;3&#45;&gt;&#45;4 -->
<!-- &#45;5 -->
<g id="node5" class="node">
<title>&#45;5</title>
<polygon fill="#d3d3d3" stroke="#000000" points="187.751,-159.7107 163.7461,-159.7107 163.7461,-142.7107 187.751,-142.7107 187.751,-159.7107"/>
<text text-anchor="middle" x="175.7485" y="-148.5107" font-family="Times,serif" font-size="9.00" fill="#000000">&#45;5</text>
</g>
<!-- &#45;4&#45;&gt;&#45;5 -->
<!-- &#45;6 -->
<g id="node6" class="node">
<title>&#45;6</title>
<polygon fill="#d3d3d3" stroke="#000000" points="228.751,-159.7107 204.7461,-159.7107 204.7461,-142.7107 228.751,-142.7107 228.751,-159.7107"/>
<text text-anchor="middle" x="216.7485" y="-148.5107" font-family="Times,serif" font-size="9.00" fill="#000000">&#45;6</text>
</g>
<!-- &#45;5&#45;&gt;&#45;6 -->
<!-- &#45;5&#45;&gt;0 -->
<g id="edge19" class="edge">
<title>&#45;5&#45;&gt;0</title>
<path fill="none" stroke="#00ff00" stroke-width=".6677" d="M173.6842,-142.6585C168.7616,-122.2646 156.1845,-70.1593 148.6696,-39.0261"/>
<polygon fill="#00ff00" stroke="#00ff00" stroke-width=".6677" points="151.9923,-37.8745 146.2435,-28.975 145.1877,-39.517 151.9923,-37.8745"/>
</g>
<!-- 1 -->
<g id="node11" class="node">
<title>1</title>
<ellipse fill="#add8e6" stroke="#000000" cx="192.7485" cy="-14.4957" rx="14.4914" ry="14.4914"/>
<text text-anchor="middle" x="192.7485" y="-11.7957" font-family="Times,serif" font-size="9.00" fill="#000000">1</text>
</g>
<!-- &#45;5&#45;&gt;1 -->
<g id="edge20" class="edge">
<title>&#45;5&#45;&gt;1</title>
<path fill="none" stroke="#ff0000" stroke-width=".2143" d="M176.812,-142.6585C179.3479,-122.2646 185.827,-70.1593 189.6983,-39.0261"/>
<polygon fill="#ff0000" stroke="#ff0000" stroke-width=".2143" points="193.1873,-39.3304 190.9481,-28.975 186.2408,-38.4666 193.1873,-39.3304"/>
</g>
<!-- &#45;7 -->
<g id="node7" class="node">
<title>&#45;7</title>
<polygon fill="#d3d3d3" stroke="#000000" points="269.751,-159.7107 245.7461,-159.7107 245.7461,-142.7107 269.751,-142.7107 269.751,-159.7107"/>
<text text-anchor="middle" x="257.7485" y="-148.5107" font-family="Times,serif" font-size="9.00" fill="#000000">&#45;7</text>
</g>
<!-- &#45;6&#45;&gt;&#45;7 -->
<!-- &#45;8 -->
<g id="node8" class="node">
<title>&#45;8</title>
<polygon fill="#d3d3d3" stroke="#000000" points="310.751,-159.7107 286.7461,-159.7107 286.7461,-142.7107 310.751,-142.7107 310.751,-159.7107"/>
<text text-anchor="middle" x="298.7485" y="-148.5107" font-family="Times,serif" font-size="9.00" fill="#000000">&#45;8</text>
</g>
<!-- &#45;7&#45;&gt;&#45;8 -->
<!-- &#45;7&#45;&gt;0 -->
<g id="edge18" class="edge">
<title>&#45;7&#45;&gt;0</title>
<path fill="none" stroke="#00ff00" stroke-width=".1651" d="M250.5548,-142.6585C232.3064,-120.9644 183.8737,-63.3864 158.6004,-33.3408"/>
<polygon fill="#00ff00" stroke="#00ff00" stroke-width=".1651" points="161.2461,-31.0489 152.1305,-25.6492 155.8893,-35.5549 161.2461,-31.0489"/>
</g>
<!-- &#45;9 -->
<g id="node9" class="node">
<title>&#45;9</title>
<polygon fill="#d3d3d3" stroke="#000000" points="351.751,-159.7107 327.7461,-159.7107 327.7461,-142.7107 351.751,-142.7107 351.751,-159.7107"/>
<text text-anchor="middle" x="339.7485" y="-148.5107" font-family="Times,serif" font-size="9.00" fill="#000000">&#45;9</text>
</g>
<!-- &#45;8&#45;&gt;&#45;9 -->
<!-- &#45;8&#45;&gt;3 -->
<g id="edge13" class="edge">
<title>&#45;8&#45;&gt;3</title>
<path fill="none" stroke="#00ff00" stroke-width="1.1096" d="M298.123,-142.6585C296.6313,-122.2646 292.82,-70.1593 290.5428,-39.0261"/>
<polygon fill="#00ff00" stroke="#00ff00" stroke-width="1.1096" points="294.0279,-38.693 289.8076,-28.975 287.0465,-39.2037 294.0279,-38.693"/>
</g>
<!-- &#45;9&#45;&gt;3 -->
<g id="edge12" class="edge">
<title>&#45;9&#45;&gt;3</title>
<path fill="none" stroke="#00ff00" stroke-width=".5522" d="M347.6913,-142.4575C354.7792,-134.0085 364.6518,-120.5004 368.7485,-106.7107 374.0289,-88.9365 377.701,-81.2289 368.7485,-64.9914 356.8507,-43.4119 331.4202,-29.7823 312.4061,-22.1964"/>
<polygon fill="#00ff00" stroke="#00ff00" stroke-width=".5522" points="313.4851,-18.8639 302.8918,-18.6809 311.0588,-25.43 313.4851,-18.8639"/>
</g>
<!-- 880 -->
<g id="node14" class="node">
<title>880</title>
<ellipse fill="#ffffff" stroke="#000000" cx="338.7485" cy="-85.851" rx="20.7202" ry="20.7202"/>
<text text-anchor="middle" x="338.7485" y="-83.151" font-family="Times,serif" font-size="9.00" fill="#000000">880</text>
</g>
<!-- &#45;9&#45;&gt;880 -->
<g id="edge16" class="edge">
<title>&#45;9&#45;&gt;880</title>
<path fill="none" stroke="#ff0000" stroke-width=".3037" d="M339.6178,-142.666C339.5159,-136.0083 339.3679,-126.331 339.2227,-116.8437"/>
<polygon fill="#ff0000" stroke="#ff0000" stroke-width=".3037" points="342.7214,-116.7209 339.0687,-106.7756 335.7222,-116.828 342.7214,-116.7209"/>
</g>
<!-- 0&#45;&gt;1 -->
<!-- 2 -->
<g id="node12" class="node">
<title>2</title>
<ellipse fill="#add8e6" stroke="#000000" cx="240.7485" cy="-14.4957" rx="14.4914" ry="14.4914"/>
<text text-anchor="middle" x="240.7485" y="-11.7957" font-family="Times,serif" font-size="9.00" fill="#000000">2</text>
</g>
<!-- 1&#45;&gt;2 -->
<!-- 2&#45;&gt;3 -->
<!-- 880&#45;&gt;1 -->
<g id="edge17" class="edge">
<title>880&#45;&gt;1</title>
<path fill="none" stroke="#00ff00" stroke-width=".114" d="M319.6386,-77.4846C295.5796,-66.812 253.1157,-47.5107 217.7485,-28.9914 216.5985,-28.3892 215.4255,-27.7606 214.246,-27.1172"/>
<polygon fill="#00ff00" stroke="#00ff00" stroke-width=".114" points="215.7757,-23.9614 205.3485,-22.0844 212.3293,-30.0542 215.7757,-23.9614"/>
</g>
</g>
</svg>
