<?xml version="1.0" encoding="UTF-8" standalone="no"?>
<!DOCTYPE svg PUBLIC "-//W3C//DTD SVG 1.1//EN"
 "http://www.w3.org/Graphics/SVG/1.1/DTD/svg11.dtd">
<!-- Generated by graphviz version 2.40.1 (20161225.0304)
 -->
<!-- Title: %3 Pages: 1 -->
<svg width="386pt" height="175pt"
 viewBox="0.00 0.00 386.00 174.79" xmlns="http://www.w3.org/2000/svg" xmlns:xlink="http://www.w3.org/1999/xlink">
<g id="graph0" class="graph" transform="scale(1 1) rotate(0) translate(4 170.7893)">
<title>%3</title>
<polygon fill="#ffffff" stroke="transparent" points="-4,4 -4,-170.7893 381.9976,-170.7893 381.9976,4 -4,4"/>
<!-- E0 -->
<g id="node1" class="node">
<title>E0</title>
<polygon fill="#d3d3d3" stroke="#000000" points="25.9963,-166.7893 .0012,-166.7893 .0012,-149.7893 25.9963,-149.7893 25.9963,-166.7893"/>
<text text-anchor="middle" x="12.9988" y="-155.5893" font-family="Times,serif" font-size="9.00" fill="#000000">E0</text>
</g>
<!-- E1 -->
<g id="node2" class="node">
<title>E1</title>
<polygon fill="#d3d3d3" stroke="#000000" points="69.9963,-166.7893 44.0012,-166.7893 44.0012,-149.7893 69.9963,-149.7893 69.9963,-166.7893"/>
<text text-anchor="middle" x="56.9988" y="-155.5893" font-family="Times,serif" font-size="9.00" fill="#000000">E1</text>
</g>
<!-- E0&#45;&gt;E1 -->
<!-- 1 -->
<g id="node11" class="node">
<title>1</title>
<ellipse fill="#87cefa" stroke="#000000" cx="197.9988" cy="-14.853" rx="14.4914" ry="14.4914"/>
<text text-anchor="middle" x="197.9988" y="-12.153" font-family="Times,serif" font-size="9.00" fill="#000000">1</text>
</g>
<!-- E0&#45;&gt;1 -->
<g id="edge13" class="edge">
<title>E0&#45;&gt;1</title>
<path fill="none" stroke="#ff0000" stroke-width="2.1784" d="M16.3744,-149.5326C23.8257,-131.3199 43.4017,-89.1107 72.9988,-65.7061 110.3788,-36.1469 131.0525,-50.361 173.9988,-29.7061 174.8488,-29.2972 175.7068,-28.8659 176.5666,-28.4178"/>
<polygon fill="#ff0000" stroke="#ff0000" stroke-width="2.1784" points="178.6556,-31.2538 185.5775,-23.2328 175.1644,-25.1866 178.6556,-31.2538"/>
</g>
<!-- E2 -->
<g id="node3" class="node">
<title>E2</title>
<polygon fill="#d3d3d3" stroke="#000000" points="113.9963,-166.7893 88.0012,-166.7893 88.0012,-149.7893 113.9963,-149.7893 113.9963,-166.7893"/>
<text text-anchor="middle" x="100.9988" y="-155.5893" font-family="Times,serif" font-size="9.00" fill="#000000">E2</text>
</g>
<!-- E1&#45;&gt;E2 -->
<!-- E3 -->
<g id="node4" class="node">
<title>E3</title>
<polygon fill="#d3d3d3" stroke="#000000" points="157.9963,-166.7893 132.0012,-166.7893 132.0012,-149.7893 157.9963,-149.7893 157.9963,-166.7893"/>
<text text-anchor="middle" x="144.9988" y="-155.5893" font-family="Times,serif" font-size="9.00" fill="#000000">E3</text>
</g>
<!-- E2&#45;&gt;E3 -->
<!-- 4983 -->
<g id="node14" class="node">
<title>4983</title>
<ellipse fill="#add8e6" stroke="#000000" cx="105.9988" cy="-89.7477" rx="24.0833" ry="24.0833"/>
<text text-anchor="middle" x="105.9988" y="-91.5477" font-family="Times,serif" font-size="9.00" fill="#000000">4983</text>
<text text-anchor="middle" x="105.9988" y="-82.5477" font-family="Times,serif" font-size="9.00" fill="#000000">sigm</text>
</g>
<!-- E2&#45;&gt;4983 -->
<g id="edge20" class="edge">
<title>E2&#45;&gt;4983</title>
<path fill="none" stroke="#ff0000" stroke-width=".1255" d="M101.632,-149.6085C102.1106,-143.0479 102.8013,-133.5804 103.4925,-124.1041"/>
<polygon fill="#ff0000" stroke="#ff0000" stroke-width=".1255" points="106.996,-124.1833 104.2329,-113.9551 100.0145,-123.6739 106.996,-124.1833"/>
</g>
<!-- E4 -->
<g id="node5" class="node">
<title>E4</title>
<polygon fill="#d3d3d3" stroke="#000000" points="201.9963,-166.7893 176.0012,-166.7893 176.0012,-149.7893 201.9963,-149.7893 201.9963,-166.7893"/>
<text text-anchor="middle" x="188.9988" y="-155.5893" font-family="Times,serif" font-size="9.00" fill="#000000">E4</text>
</g>
<!-- E3&#45;&gt;E4 -->
<!-- S -->
<g id="node13" class="node">
<title>S</title>
<ellipse fill="#87cefa" stroke="#000000" cx="291.9988" cy="-14.853" rx="14.7075" ry="14.7075"/>
<text text-anchor="middle" x="291.9988" y="-12.153" font-family="Times,serif" font-size="9.00" fill="#000000">S</text>
</g>
<!-- E3&#45;&gt;S -->
<g id="edge14" class="edge">
<title>E3&#45;&gt;S</title>
<path fill="none" stroke="#ff0000" stroke-width="3.5801" d="M158.2089,-150.9448C172.1444,-142.8536 194.3488,-128.9614 210.9988,-113.7893 237.4159,-89.717 262.6426,-56.7915 277.7277,-35.6697"/>
<polygon fill="#ff0000" stroke="#ff0000" stroke-width="3.5801" points="280.654,-37.593 283.5456,-27.4004 274.9289,-33.565 280.654,-37.593"/>
</g>
<!-- E5 -->
<g id="node6" class="node">
<title>E5</title>
<polygon fill="#d3d3d3" stroke="#000000" points="245.9963,-166.7893 220.0012,-166.7893 220.0012,-149.7893 245.9963,-149.7893 245.9963,-166.7893"/>
<text text-anchor="middle" x="232.9988" y="-155.5893" font-family="Times,serif" font-size="9.00" fill="#000000">E5</text>
</g>
<!-- E4&#45;&gt;E5 -->
<!-- 4729 -->
<g id="node15" class="node">
<title>4729</title>
<ellipse fill="#add8e6" stroke="#000000" cx="177.9988" cy="-89.7477" rx="24.0833" ry="24.0833"/>
<text text-anchor="middle" x="177.9988" y="-91.5477" font-family="Times,serif" font-size="9.00" fill="#000000">4729</text>
<text text-anchor="middle" x="177.9988" y="-82.5477" font-family="Times,serif" font-size="9.00" fill="#000000">sigm</text>
</g>
<!-- E4&#45;&gt;4729 -->
<g id="edge16" class="edge">
<title>E4&#45;&gt;4729</title>
<path fill="none" stroke="#00ff00" stroke-width=".6212" d="M187.6056,-149.6085C186.5329,-142.9246 184.9761,-133.2236 183.4268,-123.57"/>
<polygon fill="#00ff00" stroke="#00ff00" stroke-width=".6212" points="186.8761,-122.9746 181.8357,-113.6556 179.9646,-124.0839 186.8761,-122.9746"/>
</g>
<!-- E6 -->
<g id="node7" class="node">
<title>E6</title>
<polygon fill="#d3d3d3" stroke="#000000" points="289.9963,-166.7893 264.0012,-166.7893 264.0012,-149.7893 289.9963,-149.7893 289.9963,-166.7893"/>
<text text-anchor="middle" x="276.9988" y="-155.5893" font-family="Times,serif" font-size="9.00" fill="#000000">E6</text>
</g>
<!-- E5&#45;&gt;E6 -->
<!-- E7 -->
<g id="node8" class="node">
<title>E7</title>
<polygon fill="#d3d3d3" stroke="#000000" points="333.9963,-166.7893 308.0012,-166.7893 308.0012,-149.7893 333.9963,-149.7893 333.9963,-166.7893"/>
<text text-anchor="middle" x="320.9988" y="-155.5893" font-family="Times,serif" font-size="9.00" fill="#000000">E7</text>
</g>
<!-- E6&#45;&gt;E7 -->
<!-- 2 -->
<g id="node12" class="node">
<title>2</title>
<ellipse fill="#87cefa" stroke="#000000" cx="244.9988" cy="-14.853" rx="14.4914" ry="14.4914"/>
<text text-anchor="middle" x="244.9988" y="-12.153" font-family="Times,serif" font-size="9.00" fill="#000000">2</text>
</g>
<!-- E6&#45;&gt;2 -->
<g id="edge19" class="edge">
<title>E6&#45;&gt;2</title>
<path fill="none" stroke="#00ff00" stroke-width=".3187" d="M275.0929,-149.7463C270.33,-128.3972 257.768,-72.0896 250.4678,-39.3672"/>
<polygon fill="#00ff00" stroke="#00ff00" stroke-width=".3187" points="253.8062,-38.2568 248.2127,-29.2589 246.9741,-39.781 253.8062,-38.2568"/>
</g>
<!-- E8 -->
<g id="node9" class="node">
<title>E8</title>
<polygon fill="#d3d3d3" stroke="#000000" points="377.9963,-166.7893 352.0012,-166.7893 352.0012,-149.7893 377.9963,-149.7893 377.9963,-166.7893"/>
<text text-anchor="middle" x="364.9988" y="-155.5893" font-family="Times,serif" font-size="9.00" fill="#000000">E8</text>
</g>
<!-- E7&#45;&gt;E8 -->
<!-- E7&#45;&gt;S -->
<g id="edge15" class="edge">
<title>E7&#45;&gt;S</title>
<path fill="none" stroke="#00ff00" stroke-width=".4453" d="M319.2715,-149.7463C314.9771,-128.5056 303.6863,-72.6603 297.0562,-39.8674"/>
<polygon fill="#00ff00" stroke="#00ff00" stroke-width=".4453" points="300.4156,-38.8214 295.0032,-29.7133 293.5544,-40.2086 300.4156,-38.8214"/>
</g>
<!-- E8&#45;&gt;2 -->
<g id="edge12" class="edge">
<title>E8&#45;&gt;2</title>
<path fill="none" stroke="#ff0000" stroke-width="1.361" d="M357.8516,-149.7463C338.954,-127.158 287.3161,-65.4351 260.9495,-33.919"/>
<polygon fill="#ff0000" stroke="#ff0000" stroke-width="1.361" points="263.629,-31.6672 254.5279,-26.2432 258.2601,-36.1589 263.629,-31.6672"/>
</g>
<!-- 0 -->
<g id="node10" class="node">
<title>0</title>
<ellipse fill="#87cefa" stroke="#000000" cx="150.9988" cy="-14.853" rx="14.4914" ry="14.4914"/>
<text text-anchor="middle" x="150.9988" y="-12.153" font-family="Times,serif" font-size="9.00" fill="#000000">0</text>
</g>
<!-- 0&#45;&gt;1 -->
<!-- 1&#45;&gt;2 -->
<!-- 2&#45;&gt;S -->
<!-- 4983&#45;&gt;2 -->
<g id="edge18" class="edge">
<title>4983&#45;&gt;2</title>
<path fill="none" stroke="#ff0000" stroke-width=".1535" d="M126.3944,-76.5905C132.3168,-72.9304 138.8474,-69.0458 144.9988,-65.7061 177.8454,-47.8725 188.1678,-47.5684 220.9988,-29.7061 221.8273,-29.2553 222.667,-28.7883 223.5114,-28.3101"/>
<polygon fill="#ff0000" stroke="#ff0000" stroke-width=".1535" points="225.6507,-31.1097 232.4506,-22.9849 222.0682,-25.0959 225.6507,-31.1097"/>
</g>
<!-- 4729&#45;&gt;0 -->
<g id="edge17" class="edge">
<title>4729&#45;&gt;0</title>
<path fill="none" stroke="#00ff00" stroke-width="1.8847" d="M169.7512,-66.8699C166.5061,-57.8684 162.7813,-47.5363 159.5109,-38.4646"/>
<polygon fill="#00ff00" stroke="#00ff00" stroke-width="1.8847" points="162.7455,-37.1165 156.0614,-28.8962 156.1603,-39.4906 162.7455,-37.1165"/>
</g>
</g>
</svg>
