<?xml version="1.0" encoding="utf-8" standalone="no"?>
<!DOCTYPE svg PUBLIC "-//W3C//DTD SVG 1.1//EN"
  "http://www.w3.org/Graphics/SVG/1.1/DTD/svg11.dtd">
<!-- Created with matplotlib (https://matplotlib.org/) -->
<svg height="345.6pt" version="1.1" viewBox="0 0 460.8 345.6" width="460.8pt" xmlns="http://www.w3.org/2000/svg" xmlns:xlink="http://www.w3.org/1999/xlink">
 <defs>
  <style type="text/css">
*{stroke-linecap:butt;stroke-linejoin:round;}
  </style>
 </defs>
 <g id="figure_1">
  <g id="patch_1">
   <path d="M 0 345.6 
L 460.8 345.6 
L 460.8 0 
L 0 0 
z
" style="fill:#ffffff;"/>
  </g>
  <g id="axes_1">
   <g id="patch_2">
    <path d="M 57.6 307.584 
L 414.72 307.584 
L 414.72 41.472 
L 57.6 41.472 
z
" style="fill:#ffffff;"/>
   </g>
   <g id="matplotlib.axis_1">
    <g id="xtick_1">
     <g id="line2d_1">
      <path clip-path="url(#pac4b551551)" d="M 73.832727 307.584 
L 73.832727 41.472 
" style="fill:none;stroke:#b0b0b0;stroke-linecap:square;stroke-width:0.8;"/>
     </g>
     <g id="line2d_2">
      <defs>
       <path d="M 0 0 
L 0 3.5 
" id="m3019a19c36" style="stroke:#000000;stroke-width:0.8;"/>
      </defs>
      <g>
       <use style="stroke:#000000;stroke-width:0.8;" x="73.832727" xlink:href="#m3019a19c36" y="307.584"/>
      </g>
     </g>
     <g id="text_1">
      <!-- 0 -->
      <defs>
       <path d="M 31.78125 66.40625 
Q 24.171875 66.40625 20.328125 58.90625 
Q 16.5 51.421875 16.5 36.375 
Q 16.5 21.390625 20.328125 13.890625 
Q 24.171875 6.390625 31.78125 6.390625 
Q 39.453125 6.390625 43.28125 13.890625 
Q 47.125 21.390625 47.125 36.375 
Q 47.125 51.421875 43.28125 58.90625 
Q 39.453125 66.40625 31.78125 66.40625 
z
M 31.78125 74.21875 
Q 44.046875 74.21875 50.515625 64.515625 
Q 56.984375 54.828125 56.984375 36.375 
Q 56.984375 17.96875 50.515625 8.265625 
Q 44.046875 -1.421875 31.78125 -1.421875 
Q 19.53125 -1.421875 13.0625 8.265625 
Q 6.59375 17.96875 6.59375 36.375 
Q 6.59375 54.828125 13.0625 64.515625 
Q 19.53125 74.21875 31.78125 74.21875 
z
" id="DejaVuSans-48"/>
      </defs>
      <g transform="translate(70.651477 322.182437)scale(0.1 -0.1)">
       <use xlink:href="#DejaVuSans-48"/>
      </g>
     </g>
    </g>
    <g id="xtick_2">
     <g id="line2d_3">
      <path clip-path="url(#pac4b551551)" d="M 128.122785 307.584 
L 128.122785 41.472 
" style="fill:none;stroke:#b0b0b0;stroke-linecap:square;stroke-width:0.8;"/>
     </g>
     <g id="line2d_4">
      <g>
       <use style="stroke:#000000;stroke-width:0.8;" x="128.122785" xlink:href="#m3019a19c36" y="307.584"/>
      </g>
     </g>
     <g id="text_2">
      <!-- 50 -->
      <defs>
       <path d="M 10.796875 72.90625 
L 49.515625 72.90625 
L 49.515625 64.59375 
L 19.828125 64.59375 
L 19.828125 46.734375 
Q 21.96875 47.46875 24.109375 47.828125 
Q 26.265625 48.1875 28.421875 48.1875 
Q 40.625 48.1875 47.75 41.5 
Q 54.890625 34.8125 54.890625 23.390625 
Q 54.890625 11.625 47.5625 5.09375 
Q 40.234375 -1.421875 26.90625 -1.421875 
Q 22.3125 -1.421875 17.546875 -0.640625 
Q 12.796875 0.140625 7.71875 1.703125 
L 7.71875 11.625 
Q 12.109375 9.234375 16.796875 8.0625 
Q 21.484375 6.890625 26.703125 6.890625 
Q 35.15625 6.890625 40.078125 11.328125 
Q 45.015625 15.765625 45.015625 23.390625 
Q 45.015625 31 40.078125 35.4375 
Q 35.15625 39.890625 26.703125 39.890625 
Q 22.75 39.890625 18.8125 39.015625 
Q 14.890625 38.140625 10.796875 36.28125 
z
" id="DejaVuSans-53"/>
      </defs>
      <g transform="translate(121.760285 322.182437)scale(0.1 -0.1)">
       <use xlink:href="#DejaVuSans-53"/>
       <use x="63.623047" xlink:href="#DejaVuSans-48"/>
      </g>
     </g>
    </g>
    <g id="xtick_3">
     <g id="line2d_5">
      <path clip-path="url(#pac4b551551)" d="M 182.412843 307.584 
L 182.412843 41.472 
" style="fill:none;stroke:#b0b0b0;stroke-linecap:square;stroke-width:0.8;"/>
     </g>
     <g id="line2d_6">
      <g>
       <use style="stroke:#000000;stroke-width:0.8;" x="182.412843" xlink:href="#m3019a19c36" y="307.584"/>
      </g>
     </g>
     <g id="text_3">
      <!-- 100 -->
      <defs>
       <path d="M 12.40625 8.296875 
L 28.515625 8.296875 
L 28.515625 63.921875 
L 10.984375 60.40625 
L 10.984375 69.390625 
L 28.421875 72.90625 
L 38.28125 72.90625 
L 38.28125 8.296875 
L 54.390625 8.296875 
L 54.390625 0 
L 12.40625 0 
z
" id="DejaVuSans-49"/>
      </defs>
      <g transform="translate(172.869093 322.182437)scale(0.1 -0.1)">
       <use xlink:href="#DejaVuSans-49"/>
       <use x="63.623047" xlink:href="#DejaVuSans-48"/>
       <use x="127.246094" xlink:href="#DejaVuSans-48"/>
      </g>
     </g>
    </g>
    <g id="xtick_4">
     <g id="line2d_7">
      <path clip-path="url(#pac4b551551)" d="M 236.702901 307.584 
L 236.702901 41.472 
" style="fill:none;stroke:#b0b0b0;stroke-linecap:square;stroke-width:0.8;"/>
     </g>
     <g id="line2d_8">
      <g>
       <use style="stroke:#000000;stroke-width:0.8;" x="236.702901" xlink:href="#m3019a19c36" y="307.584"/>
      </g>
     </g>
     <g id="text_4">
      <!-- 150 -->
      <g transform="translate(227.159151 322.182437)scale(0.1 -0.1)">
       <use xlink:href="#DejaVuSans-49"/>
       <use x="63.623047" xlink:href="#DejaVuSans-53"/>
       <use x="127.246094" xlink:href="#DejaVuSans-48"/>
      </g>
     </g>
    </g>
    <g id="xtick_5">
     <g id="line2d_9">
      <path clip-path="url(#pac4b551551)" d="M 290.992958 307.584 
L 290.992958 41.472 
" style="fill:none;stroke:#b0b0b0;stroke-linecap:square;stroke-width:0.8;"/>
     </g>
     <g id="line2d_10">
      <g>
       <use style="stroke:#000000;stroke-width:0.8;" x="290.992958" xlink:href="#m3019a19c36" y="307.584"/>
      </g>
     </g>
     <g id="text_5">
      <!-- 200 -->
      <defs>
       <path d="M 19.1875 8.296875 
L 53.609375 8.296875 
L 53.609375 0 
L 7.328125 0 
L 7.328125 8.296875 
Q 12.9375 14.109375 22.625 23.890625 
Q 32.328125 33.6875 34.8125 36.53125 
Q 39.546875 41.84375 41.421875 45.53125 
Q 43.3125 49.21875 43.3125 52.78125 
Q 43.3125 58.59375 39.234375 62.25 
Q 35.15625 65.921875 28.609375 65.921875 
Q 23.96875 65.921875 18.8125 64.3125 
Q 13.671875 62.703125 7.8125 59.421875 
L 7.8125 69.390625 
Q 13.765625 71.78125 18.9375 73 
Q 24.125 74.21875 28.421875 74.21875 
Q 39.75 74.21875 46.484375 68.546875 
Q 53.21875 62.890625 53.21875 53.421875 
Q 53.21875 48.921875 51.53125 44.890625 
Q 49.859375 40.875 45.40625 35.40625 
Q 44.1875 33.984375 37.640625 27.21875 
Q 31.109375 20.453125 19.1875 8.296875 
z
" id="DejaVuSans-50"/>
      </defs>
      <g transform="translate(281.449208 322.182437)scale(0.1 -0.1)">
       <use xlink:href="#DejaVuSans-50"/>
       <use x="63.623047" xlink:href="#DejaVuSans-48"/>
       <use x="127.246094" xlink:href="#DejaVuSans-48"/>
      </g>
     </g>
    </g>
    <g id="xtick_6">
     <g id="line2d_11">
      <path clip-path="url(#pac4b551551)" d="M 345.283016 307.584 
L 345.283016 41.472 
" style="fill:none;stroke:#b0b0b0;stroke-linecap:square;stroke-width:0.8;"/>
     </g>
     <g id="line2d_12">
      <g>
       <use style="stroke:#000000;stroke-width:0.8;" x="345.283016" xlink:href="#m3019a19c36" y="307.584"/>
      </g>
     </g>
     <g id="text_6">
      <!-- 250 -->
      <g transform="translate(335.739266 322.182437)scale(0.1 -0.1)">
       <use xlink:href="#DejaVuSans-50"/>
       <use x="63.623047" xlink:href="#DejaVuSans-53"/>
       <use x="127.246094" xlink:href="#DejaVuSans-48"/>
      </g>
     </g>
    </g>
    <g id="xtick_7">
     <g id="line2d_13">
      <path clip-path="url(#pac4b551551)" d="M 399.573074 307.584 
L 399.573074 41.472 
" style="fill:none;stroke:#b0b0b0;stroke-linecap:square;stroke-width:0.8;"/>
     </g>
     <g id="line2d_14">
      <g>
       <use style="stroke:#000000;stroke-width:0.8;" x="399.573074" xlink:href="#m3019a19c36" y="307.584"/>
      </g>
     </g>
     <g id="text_7">
      <!-- 300 -->
      <defs>
       <path d="M 40.578125 39.3125 
Q 47.65625 37.796875 51.625 33 
Q 55.609375 28.21875 55.609375 21.1875 
Q 55.609375 10.40625 48.1875 4.484375 
Q 40.765625 -1.421875 27.09375 -1.421875 
Q 22.515625 -1.421875 17.65625 -0.515625 
Q 12.796875 0.390625 7.625 2.203125 
L 7.625 11.71875 
Q 11.71875 9.328125 16.59375 8.109375 
Q 21.484375 6.890625 26.8125 6.890625 
Q 36.078125 6.890625 40.9375 10.546875 
Q 45.796875 14.203125 45.796875 21.1875 
Q 45.796875 27.640625 41.28125 31.265625 
Q 36.765625 34.90625 28.71875 34.90625 
L 20.21875 34.90625 
L 20.21875 43.015625 
L 29.109375 43.015625 
Q 36.375 43.015625 40.234375 45.921875 
Q 44.09375 48.828125 44.09375 54.296875 
Q 44.09375 59.90625 40.109375 62.90625 
Q 36.140625 65.921875 28.71875 65.921875 
Q 24.65625 65.921875 20.015625 65.03125 
Q 15.375 64.15625 9.8125 62.3125 
L 9.8125 71.09375 
Q 15.4375 72.65625 20.34375 73.4375 
Q 25.25 74.21875 29.59375 74.21875 
Q 40.828125 74.21875 47.359375 69.109375 
Q 53.90625 64.015625 53.90625 55.328125 
Q 53.90625 49.265625 50.4375 45.09375 
Q 46.96875 40.921875 40.578125 39.3125 
z
" id="DejaVuSans-51"/>
      </defs>
      <g transform="translate(390.029324 322.182437)scale(0.1 -0.1)">
       <use xlink:href="#DejaVuSans-51"/>
       <use x="63.623047" xlink:href="#DejaVuSans-48"/>
       <use x="127.246094" xlink:href="#DejaVuSans-48"/>
      </g>
     </g>
    </g>
    <g id="text_8">
     <!-- Generations -->
     <defs>
      <path d="M 59.515625 10.40625 
L 59.515625 29.984375 
L 43.40625 29.984375 
L 43.40625 38.09375 
L 69.28125 38.09375 
L 69.28125 6.78125 
Q 63.578125 2.734375 56.6875 0.65625 
Q 49.8125 -1.421875 42 -1.421875 
Q 24.90625 -1.421875 15.25 8.5625 
Q 5.609375 18.5625 5.609375 36.375 
Q 5.609375 54.25 15.25 64.234375 
Q 24.90625 74.21875 42 74.21875 
Q 49.125 74.21875 55.546875 72.453125 
Q 61.96875 70.703125 67.390625 67.28125 
L 67.390625 56.78125 
Q 61.921875 61.421875 55.765625 63.765625 
Q 49.609375 66.109375 42.828125 66.109375 
Q 29.4375 66.109375 22.71875 58.640625 
Q 16.015625 51.171875 16.015625 36.375 
Q 16.015625 21.625 22.71875 14.15625 
Q 29.4375 6.6875 42.828125 6.6875 
Q 48.046875 6.6875 52.140625 7.59375 
Q 56.25 8.5 59.515625 10.40625 
z
" id="DejaVuSans-71"/>
      <path d="M 56.203125 29.59375 
L 56.203125 25.203125 
L 14.890625 25.203125 
Q 15.484375 15.921875 20.484375 11.0625 
Q 25.484375 6.203125 34.421875 6.203125 
Q 39.59375 6.203125 44.453125 7.46875 
Q 49.3125 8.734375 54.109375 11.28125 
L 54.109375 2.78125 
Q 49.265625 0.734375 44.1875 -0.34375 
Q 39.109375 -1.421875 33.890625 -1.421875 
Q 20.796875 -1.421875 13.15625 6.1875 
Q 5.515625 13.8125 5.515625 26.8125 
Q 5.515625 40.234375 12.765625 48.109375 
Q 20.015625 56 32.328125 56 
Q 43.359375 56 49.78125 48.890625 
Q 56.203125 41.796875 56.203125 29.59375 
z
M 47.21875 32.234375 
Q 47.125 39.59375 43.09375 43.984375 
Q 39.0625 48.390625 32.421875 48.390625 
Q 24.90625 48.390625 20.390625 44.140625 
Q 15.875 39.890625 15.1875 32.171875 
z
" id="DejaVuSans-101"/>
      <path d="M 54.890625 33.015625 
L 54.890625 0 
L 45.90625 0 
L 45.90625 32.71875 
Q 45.90625 40.484375 42.875 44.328125 
Q 39.84375 48.1875 33.796875 48.1875 
Q 26.515625 48.1875 22.3125 43.546875 
Q 18.109375 38.921875 18.109375 30.90625 
L 18.109375 0 
L 9.078125 0 
L 9.078125 54.6875 
L 18.109375 54.6875 
L 18.109375 46.1875 
Q 21.34375 51.125 25.703125 53.5625 
Q 30.078125 56 35.796875 56 
Q 45.21875 56 50.046875 50.171875 
Q 54.890625 44.34375 54.890625 33.015625 
z
" id="DejaVuSans-110"/>
      <path d="M 41.109375 46.296875 
Q 39.59375 47.171875 37.8125 47.578125 
Q 36.03125 48 33.890625 48 
Q 26.265625 48 22.1875 43.046875 
Q 18.109375 38.09375 18.109375 28.8125 
L 18.109375 0 
L 9.078125 0 
L 9.078125 54.6875 
L 18.109375 54.6875 
L 18.109375 46.1875 
Q 20.953125 51.171875 25.484375 53.578125 
Q 30.03125 56 36.53125 56 
Q 37.453125 56 38.578125 55.875 
Q 39.703125 55.765625 41.0625 55.515625 
z
" id="DejaVuSans-114"/>
      <path d="M 34.28125 27.484375 
Q 23.390625 27.484375 19.1875 25 
Q 14.984375 22.515625 14.984375 16.5 
Q 14.984375 11.71875 18.140625 8.90625 
Q 21.296875 6.109375 26.703125 6.109375 
Q 34.1875 6.109375 38.703125 11.40625 
Q 43.21875 16.703125 43.21875 25.484375 
L 43.21875 27.484375 
z
M 52.203125 31.203125 
L 52.203125 0 
L 43.21875 0 
L 43.21875 8.296875 
Q 40.140625 3.328125 35.546875 0.953125 
Q 30.953125 -1.421875 24.3125 -1.421875 
Q 15.921875 -1.421875 10.953125 3.296875 
Q 6 8.015625 6 15.921875 
Q 6 25.140625 12.171875 29.828125 
Q 18.359375 34.515625 30.609375 34.515625 
L 43.21875 34.515625 
L 43.21875 35.40625 
Q 43.21875 41.609375 39.140625 45 
Q 35.0625 48.390625 27.6875 48.390625 
Q 23 48.390625 18.546875 47.265625 
Q 14.109375 46.140625 10.015625 43.890625 
L 10.015625 52.203125 
Q 14.9375 54.109375 19.578125 55.046875 
Q 24.21875 56 28.609375 56 
Q 40.484375 56 46.34375 49.84375 
Q 52.203125 43.703125 52.203125 31.203125 
z
" id="DejaVuSans-97"/>
      <path d="M 18.3125 70.21875 
L 18.3125 54.6875 
L 36.8125 54.6875 
L 36.8125 47.703125 
L 18.3125 47.703125 
L 18.3125 18.015625 
Q 18.3125 11.328125 20.140625 9.421875 
Q 21.96875 7.515625 27.59375 7.515625 
L 36.8125 7.515625 
L 36.8125 0 
L 27.59375 0 
Q 17.1875 0 13.234375 3.875 
Q 9.28125 7.765625 9.28125 18.015625 
L 9.28125 47.703125 
L 2.6875 47.703125 
L 2.6875 54.6875 
L 9.28125 54.6875 
L 9.28125 70.21875 
z
" id="DejaVuSans-116"/>
      <path d="M 9.421875 54.6875 
L 18.40625 54.6875 
L 18.40625 0 
L 9.421875 0 
z
M 9.421875 75.984375 
L 18.40625 75.984375 
L 18.40625 64.59375 
L 9.421875 64.59375 
z
" id="DejaVuSans-105"/>
      <path d="M 30.609375 48.390625 
Q 23.390625 48.390625 19.1875 42.75 
Q 14.984375 37.109375 14.984375 27.296875 
Q 14.984375 17.484375 19.15625 11.84375 
Q 23.34375 6.203125 30.609375 6.203125 
Q 37.796875 6.203125 41.984375 11.859375 
Q 46.1875 17.53125 46.1875 27.296875 
Q 46.1875 37.015625 41.984375 42.703125 
Q 37.796875 48.390625 30.609375 48.390625 
z
M 30.609375 56 
Q 42.328125 56 49.015625 48.375 
Q 55.71875 40.765625 55.71875 27.296875 
Q 55.71875 13.875 49.015625 6.21875 
Q 42.328125 -1.421875 30.609375 -1.421875 
Q 18.84375 -1.421875 12.171875 6.21875 
Q 5.515625 13.875 5.515625 27.296875 
Q 5.515625 40.765625 12.171875 48.375 
Q 18.84375 56 30.609375 56 
z
" id="DejaVuSans-111"/>
      <path d="M 44.28125 53.078125 
L 44.28125 44.578125 
Q 40.484375 46.53125 36.375 47.5 
Q 32.28125 48.484375 27.875 48.484375 
Q 21.1875 48.484375 17.84375 46.4375 
Q 14.5 44.390625 14.5 40.28125 
Q 14.5 37.15625 16.890625 35.375 
Q 19.28125 33.59375 26.515625 31.984375 
L 29.59375 31.296875 
Q 39.15625 29.25 43.1875 25.515625 
Q 47.21875 21.78125 47.21875 15.09375 
Q 47.21875 7.46875 41.1875 3.015625 
Q 35.15625 -1.421875 24.609375 -1.421875 
Q 20.21875 -1.421875 15.453125 -0.5625 
Q 10.6875 0.296875 5.421875 2 
L 5.421875 11.28125 
Q 10.40625 8.6875 15.234375 7.390625 
Q 20.0625 6.109375 24.8125 6.109375 
Q 31.15625 6.109375 34.5625 8.28125 
Q 37.984375 10.453125 37.984375 14.40625 
Q 37.984375 18.0625 35.515625 20.015625 
Q 33.0625 21.96875 24.703125 23.78125 
L 21.578125 24.515625 
Q 13.234375 26.265625 9.515625 29.90625 
Q 5.8125 33.546875 5.8125 39.890625 
Q 5.8125 47.609375 11.28125 51.796875 
Q 16.75 56 26.8125 56 
Q 31.78125 56 36.171875 55.265625 
Q 40.578125 54.546875 44.28125 53.078125 
z
" id="DejaVuSans-115"/>
     </defs>
     <g transform="translate(205.662344 335.860562)scale(0.1 -0.1)">
      <use xlink:href="#DejaVuSans-71"/>
      <use x="77.490234" xlink:href="#DejaVuSans-101"/>
      <use x="139.013672" xlink:href="#DejaVuSans-110"/>
      <use x="202.392578" xlink:href="#DejaVuSans-101"/>
      <use x="263.916016" xlink:href="#DejaVuSans-114"/>
      <use x="305.029297" xlink:href="#DejaVuSans-97"/>
      <use x="366.308594" xlink:href="#DejaVuSans-116"/>
      <use x="405.517578" xlink:href="#DejaVuSans-105"/>
      <use x="433.300781" xlink:href="#DejaVuSans-111"/>
      <use x="494.482422" xlink:href="#DejaVuSans-110"/>
      <use x="557.861328" xlink:href="#DejaVuSans-115"/>
     </g>
    </g>
   </g>
   <g id="matplotlib.axis_2">
    <g id="ytick_1">
     <g id="line2d_15">
      <path clip-path="url(#pac4b551551)" d="M 57.6 302.129305 
L 414.72 302.129305 
" style="fill:none;stroke:#b0b0b0;stroke-linecap:square;stroke-width:0.8;"/>
     </g>
     <g id="line2d_16">
      <defs>
       <path d="M 0 0 
L -3.5 0 
" id="md3e88326e6" style="stroke:#000000;stroke-width:0.8;"/>
      </defs>
      <g>
       <use style="stroke:#000000;stroke-width:0.8;" x="57.6" xlink:href="#md3e88326e6" y="302.129305"/>
      </g>
     </g>
     <g id="text_9">
      <!-- 200 -->
      <g transform="translate(31.5125 305.928524)scale(0.1 -0.1)">
       <use xlink:href="#DejaVuSans-50"/>
       <use x="63.623047" xlink:href="#DejaVuSans-48"/>
       <use x="127.246094" xlink:href="#DejaVuSans-48"/>
      </g>
     </g>
    </g>
    <g id="ytick_2">
     <g id="line2d_17">
      <path clip-path="url(#pac4b551551)" d="M 57.6 272.314783 
L 414.72 272.314783 
" style="fill:none;stroke:#b0b0b0;stroke-linecap:square;stroke-width:0.8;"/>
     </g>
     <g id="line2d_18">
      <g>
       <use style="stroke:#000000;stroke-width:0.8;" x="57.6" xlink:href="#md3e88326e6" y="272.314783"/>
      </g>
     </g>
     <g id="text_10">
      <!-- 400 -->
      <defs>
       <path d="M 37.796875 64.3125 
L 12.890625 25.390625 
L 37.796875 25.390625 
z
M 35.203125 72.90625 
L 47.609375 72.90625 
L 47.609375 25.390625 
L 58.015625 25.390625 
L 58.015625 17.1875 
L 47.609375 17.1875 
L 47.609375 0 
L 37.796875 0 
L 37.796875 17.1875 
L 4.890625 17.1875 
L 4.890625 26.703125 
z
" id="DejaVuSans-52"/>
      </defs>
      <g transform="translate(31.5125 276.114002)scale(0.1 -0.1)">
       <use xlink:href="#DejaVuSans-52"/>
       <use x="63.623047" xlink:href="#DejaVuSans-48"/>
       <use x="127.246094" xlink:href="#DejaVuSans-48"/>
      </g>
     </g>
    </g>
    <g id="ytick_3">
     <g id="line2d_19">
      <path clip-path="url(#pac4b551551)" d="M 57.6 242.50026 
L 414.72 242.50026 
" style="fill:none;stroke:#b0b0b0;stroke-linecap:square;stroke-width:0.8;"/>
     </g>
     <g id="line2d_20">
      <g>
       <use style="stroke:#000000;stroke-width:0.8;" x="57.6" xlink:href="#md3e88326e6" y="242.50026"/>
      </g>
     </g>
     <g id="text_11">
      <!-- 600 -->
      <defs>
       <path d="M 33.015625 40.375 
Q 26.375 40.375 22.484375 35.828125 
Q 18.609375 31.296875 18.609375 23.390625 
Q 18.609375 15.53125 22.484375 10.953125 
Q 26.375 6.390625 33.015625 6.390625 
Q 39.65625 6.390625 43.53125 10.953125 
Q 47.40625 15.53125 47.40625 23.390625 
Q 47.40625 31.296875 43.53125 35.828125 
Q 39.65625 40.375 33.015625 40.375 
z
M 52.59375 71.296875 
L 52.59375 62.3125 
Q 48.875 64.0625 45.09375 64.984375 
Q 41.3125 65.921875 37.59375 65.921875 
Q 27.828125 65.921875 22.671875 59.328125 
Q 17.53125 52.734375 16.796875 39.40625 
Q 19.671875 43.65625 24.015625 45.921875 
Q 28.375 48.1875 33.59375 48.1875 
Q 44.578125 48.1875 50.953125 41.515625 
Q 57.328125 34.859375 57.328125 23.390625 
Q 57.328125 12.15625 50.6875 5.359375 
Q 44.046875 -1.421875 33.015625 -1.421875 
Q 20.359375 -1.421875 13.671875 8.265625 
Q 6.984375 17.96875 6.984375 36.375 
Q 6.984375 53.65625 15.1875 63.9375 
Q 23.390625 74.21875 37.203125 74.21875 
Q 40.921875 74.21875 44.703125 73.484375 
Q 48.484375 72.75 52.59375 71.296875 
z
" id="DejaVuSans-54"/>
      </defs>
      <g transform="translate(31.5125 246.299479)scale(0.1 -0.1)">
       <use xlink:href="#DejaVuSans-54"/>
       <use x="63.623047" xlink:href="#DejaVuSans-48"/>
       <use x="127.246094" xlink:href="#DejaVuSans-48"/>
      </g>
     </g>
    </g>
    <g id="ytick_4">
     <g id="line2d_21">
      <path clip-path="url(#pac4b551551)" d="M 57.6 212.685738 
L 414.72 212.685738 
" style="fill:none;stroke:#b0b0b0;stroke-linecap:square;stroke-width:0.8;"/>
     </g>
     <g id="line2d_22">
      <g>
       <use style="stroke:#000000;stroke-width:0.8;" x="57.6" xlink:href="#md3e88326e6" y="212.685738"/>
      </g>
     </g>
     <g id="text_12">
      <!-- 800 -->
      <defs>
       <path d="M 31.78125 34.625 
Q 24.75 34.625 20.71875 30.859375 
Q 16.703125 27.09375 16.703125 20.515625 
Q 16.703125 13.921875 20.71875 10.15625 
Q 24.75 6.390625 31.78125 6.390625 
Q 38.8125 6.390625 42.859375 10.171875 
Q 46.921875 13.96875 46.921875 20.515625 
Q 46.921875 27.09375 42.890625 30.859375 
Q 38.875 34.625 31.78125 34.625 
z
M 21.921875 38.8125 
Q 15.578125 40.375 12.03125 44.71875 
Q 8.5 49.078125 8.5 55.328125 
Q 8.5 64.0625 14.71875 69.140625 
Q 20.953125 74.21875 31.78125 74.21875 
Q 42.671875 74.21875 48.875 69.140625 
Q 55.078125 64.0625 55.078125 55.328125 
Q 55.078125 49.078125 51.53125 44.71875 
Q 48 40.375 41.703125 38.8125 
Q 48.828125 37.15625 52.796875 32.3125 
Q 56.78125 27.484375 56.78125 20.515625 
Q 56.78125 9.90625 50.3125 4.234375 
Q 43.84375 -1.421875 31.78125 -1.421875 
Q 19.734375 -1.421875 13.25 4.234375 
Q 6.78125 9.90625 6.78125 20.515625 
Q 6.78125 27.484375 10.78125 32.3125 
Q 14.796875 37.15625 21.921875 38.8125 
z
M 18.3125 54.390625 
Q 18.3125 48.734375 21.84375 45.5625 
Q 25.390625 42.390625 31.78125 42.390625 
Q 38.140625 42.390625 41.71875 45.5625 
Q 45.3125 48.734375 45.3125 54.390625 
Q 45.3125 60.0625 41.71875 63.234375 
Q 38.140625 66.40625 31.78125 66.40625 
Q 25.390625 66.40625 21.84375 63.234375 
Q 18.3125 60.0625 18.3125 54.390625 
z
" id="DejaVuSans-56"/>
      </defs>
      <g transform="translate(31.5125 216.484956)scale(0.1 -0.1)">
       <use xlink:href="#DejaVuSans-56"/>
       <use x="63.623047" xlink:href="#DejaVuSans-48"/>
       <use x="127.246094" xlink:href="#DejaVuSans-48"/>
      </g>
     </g>
    </g>
    <g id="ytick_5">
     <g id="line2d_23">
      <path clip-path="url(#pac4b551551)" d="M 57.6 182.871215 
L 414.72 182.871215 
" style="fill:none;stroke:#b0b0b0;stroke-linecap:square;stroke-width:0.8;"/>
     </g>
     <g id="line2d_24">
      <g>
       <use style="stroke:#000000;stroke-width:0.8;" x="57.6" xlink:href="#md3e88326e6" y="182.871215"/>
      </g>
     </g>
     <g id="text_13">
      <!-- 1000 -->
      <g transform="translate(25.15 186.670434)scale(0.1 -0.1)">
       <use xlink:href="#DejaVuSans-49"/>
       <use x="63.623047" xlink:href="#DejaVuSans-48"/>
       <use x="127.246094" xlink:href="#DejaVuSans-48"/>
       <use x="190.869141" xlink:href="#DejaVuSans-48"/>
      </g>
     </g>
    </g>
    <g id="ytick_6">
     <g id="line2d_25">
      <path clip-path="url(#pac4b551551)" d="M 57.6 153.056693 
L 414.72 153.056693 
" style="fill:none;stroke:#b0b0b0;stroke-linecap:square;stroke-width:0.8;"/>
     </g>
     <g id="line2d_26">
      <g>
       <use style="stroke:#000000;stroke-width:0.8;" x="57.6" xlink:href="#md3e88326e6" y="153.056693"/>
      </g>
     </g>
     <g id="text_14">
      <!-- 1200 -->
      <g transform="translate(25.15 156.855911)scale(0.1 -0.1)">
       <use xlink:href="#DejaVuSans-49"/>
       <use x="63.623047" xlink:href="#DejaVuSans-50"/>
       <use x="127.246094" xlink:href="#DejaVuSans-48"/>
       <use x="190.869141" xlink:href="#DejaVuSans-48"/>
      </g>
     </g>
    </g>
    <g id="ytick_7">
     <g id="line2d_27">
      <path clip-path="url(#pac4b551551)" d="M 57.6 123.24217 
L 414.72 123.24217 
" style="fill:none;stroke:#b0b0b0;stroke-linecap:square;stroke-width:0.8;"/>
     </g>
     <g id="line2d_28">
      <g>
       <use style="stroke:#000000;stroke-width:0.8;" x="57.6" xlink:href="#md3e88326e6" y="123.24217"/>
      </g>
     </g>
     <g id="text_15">
      <!-- 1400 -->
      <g transform="translate(25.15 127.041389)scale(0.1 -0.1)">
       <use xlink:href="#DejaVuSans-49"/>
       <use x="63.623047" xlink:href="#DejaVuSans-52"/>
       <use x="127.246094" xlink:href="#DejaVuSans-48"/>
       <use x="190.869141" xlink:href="#DejaVuSans-48"/>
      </g>
     </g>
    </g>
    <g id="ytick_8">
     <g id="line2d_29">
      <path clip-path="url(#pac4b551551)" d="M 57.6 93.427648 
L 414.72 93.427648 
" style="fill:none;stroke:#b0b0b0;stroke-linecap:square;stroke-width:0.8;"/>
     </g>
     <g id="line2d_30">
      <g>
       <use style="stroke:#000000;stroke-width:0.8;" x="57.6" xlink:href="#md3e88326e6" y="93.427648"/>
      </g>
     </g>
     <g id="text_16">
      <!-- 1600 -->
      <g transform="translate(25.15 97.226866)scale(0.1 -0.1)">
       <use xlink:href="#DejaVuSans-49"/>
       <use x="63.623047" xlink:href="#DejaVuSans-54"/>
       <use x="127.246094" xlink:href="#DejaVuSans-48"/>
       <use x="190.869141" xlink:href="#DejaVuSans-48"/>
      </g>
     </g>
    </g>
    <g id="ytick_9">
     <g id="line2d_31">
      <path clip-path="url(#pac4b551551)" d="M 57.6 63.613125 
L 414.72 63.613125 
" style="fill:none;stroke:#b0b0b0;stroke-linecap:square;stroke-width:0.8;"/>
     </g>
     <g id="line2d_32">
      <g>
       <use style="stroke:#000000;stroke-width:0.8;" x="57.6" xlink:href="#md3e88326e6" y="63.613125"/>
      </g>
     </g>
     <g id="text_17">
      <!-- 1800 -->
      <g transform="translate(25.15 67.412344)scale(0.1 -0.1)">
       <use xlink:href="#DejaVuSans-49"/>
       <use x="63.623047" xlink:href="#DejaVuSans-56"/>
       <use x="127.246094" xlink:href="#DejaVuSans-48"/>
       <use x="190.869141" xlink:href="#DejaVuSans-48"/>
      </g>
     </g>
    </g>
    <g id="text_18">
     <!-- Fitness -->
     <defs>
      <path d="M 9.8125 72.90625 
L 51.703125 72.90625 
L 51.703125 64.59375 
L 19.671875 64.59375 
L 19.671875 43.109375 
L 48.578125 43.109375 
L 48.578125 34.8125 
L 19.671875 34.8125 
L 19.671875 0 
L 9.8125 0 
z
" id="DejaVuSans-70"/>
     </defs>
     <g transform="translate(19.070312 192.202219)rotate(-90)scale(0.1 -0.1)">
      <use xlink:href="#DejaVuSans-70"/>
      <use x="57.410156" xlink:href="#DejaVuSans-105"/>
      <use x="85.193359" xlink:href="#DejaVuSans-116"/>
      <use x="124.402344" xlink:href="#DejaVuSans-110"/>
      <use x="187.78125" xlink:href="#DejaVuSans-101"/>
      <use x="249.304688" xlink:href="#DejaVuSans-115"/>
      <use x="301.404297" xlink:href="#DejaVuSans-115"/>
     </g>
    </g>
   </g>
   <g id="line2d_33">
    <path clip-path="url(#pac4b551551)" d="M 73.832727 291.524691 
L 74.918528 251.408792 
L 76.00433 248.549206 
L 77.090131 236.079371 
L 78.175932 234.707677 
L 79.261733 209.654103 
L 80.347534 214.988282 
L 81.433335 211.526528 
L 82.519137 203.544157 
L 83.604938 215.884668 
L 84.690739 203.53703 
L 85.77654 201.396217 
L 86.862341 186.748221 
L 87.948142 210.966492 
L 89.033943 192.280932 
L 90.119745 185.073981 
L 91.205546 175.946043 
L 92.291347 183.674058 
L 93.377148 174.023547 
L 94.462949 188.737131 
L 95.54875 190.856402 
L 96.634552 198.28386 
L 97.720353 190.71338 
L 98.806154 194.444119 
L 99.891955 195.169562 
L 100.977756 178.69092 
L 102.063557 178.179964 
L 103.149358 169.862085 
L 104.23516 168.901881 
L 105.320961 183.483684 
L 106.406762 172.36999 
L 107.492563 177.16099 
L 108.578364 198.193037 
L 109.664165 189.351363 
L 110.749967 189.732253 
L 111.835768 185.924477 
L 112.921569 200.736442 
L 114.00737 207.29349 
L 115.093171 174.982626 
L 116.178972 191.212979 
L 117.264773 204.736001 
L 118.350575 191.835395 
L 119.436376 197.233855 
L 120.522177 207.341438 
L 121.607978 203.348444 
L 122.693779 202.495541 
L 123.77958 198.795839 
L 124.865382 202.924588 
L 125.951183 203.558927 
L 127.036984 187.747006 
L 128.122785 210.021518 
L 129.208586 190.322735 
L 130.294387 187.535503 
L 131.380189 205.779232 
L 132.46599 182.24916 
L 133.551791 197.072968 
L 134.637592 217.224984 
L 135.723393 222.011772 
L 136.809194 200.660101 
L 137.894995 201.142319 
L 138.980797 195.62395 
L 140.066598 193.844363 
L 141.152399 186.304206 
L 142.2382 192.664543 
L 143.324001 157.166785 
L 144.409802 175.254787 
L 145.495604 174.792608 
L 146.581405 186.770612 
L 147.667206 190.717887 
L 148.753007 193.249876 
L 149.838808 165.163499 
L 150.924609 178.019162 
L 152.01041 184.63274 
L 153.096212 190.081404 
L 154.182013 183.164899 
L 155.267814 188.906772 
L 156.353615 195.443357 
L 157.439416 178.267657 
L 158.525217 179.505444 
L 159.611019 183.945882 
L 160.69682 181.676507 
L 161.782621 175.070658 
L 162.868422 162.883662 
L 163.954223 178.342077 
L 165.040024 181.456799 
L 166.125825 181.86403 
L 167.211627 189.400475 
L 168.297428 183.334392 
L 169.383229 184.300077 
L 170.46903 170.84474 
L 172.640632 178.982527 
L 174.812235 195.843384 
L 175.898036 205.37185 
L 176.983837 182.348701 
L 178.069638 185.301979 
L 179.155439 191.603223 
L 180.24124 207.135985 
L 181.327042 200.733756 
L 182.412843 211.106663 
L 183.498644 177.373836 
L 184.584445 221.213573 
L 185.670246 201.64911 
L 186.756047 204.02416 
L 187.841849 198.431965 
L 188.92765 177.152688 
L 190.013451 195.694579 
L 191.099252 209.854352 
L 192.185053 187.181485 
L 194.356656 201.933519 
L 195.442457 203.840261 
L 196.528258 202.762998 
L 197.614059 178.360767 
L 198.69986 182.240585 
L 199.785661 189.050038 
L 200.871462 175.333053 
L 201.957264 200.085444 
L 203.043065 178.215348 
L 204.128866 163.481513 
L 205.214667 182.572993 
L 206.300468 185.683795 
L 207.386269 196.562952 
L 208.472071 195.063432 
L 209.557872 190.738708 
L 210.643673 181.170975 
L 211.729474 176.23673 
L 212.815275 183.910006 
L 213.901076 171.844972 
L 214.986877 204.958898 
L 216.072679 172.134244 
L 217.15848 182.261877 
L 218.244281 176.880194 
L 219.330082 198.546598 
L 220.415883 161.596196 
L 221.501684 186.113016 
L 222.587486 169.994537 
L 223.673287 181.904077 
L 224.759088 190.762713 
L 225.844889 165.917911 
L 226.93069 169.489055 
L 228.016491 181.159895 
L 229.102292 160.660351 
L 230.188094 171.142495 
L 231.273895 176.144524 
L 232.359696 195.032838 
L 233.445497 194.027433 
L 234.531298 177.691707 
L 235.617099 179.304538 
L 236.702901 155.696551 
L 237.788702 158.751064 
L 238.874503 149.005757 
L 239.960304 179.37211 
L 241.046105 191.168999 
L 242.131906 184.571906 
L 243.217708 186.350509 
L 244.303509 181.288483 
L 245.38931 142.520597 
L 246.475111 156.323649 
L 247.560912 129.206183 
L 248.646713 174.769208 
L 249.732514 159.84471 
L 250.818316 164.866875 
L 251.904117 134.823204 
L 254.075719 174.182646 
L 255.16152 153.571937 
L 256.247321 160.590954 
L 257.333123 155.772766 
L 258.418924 165.159717 
L 259.504725 147.104063 
L 260.590526 153.851227 
L 261.676327 156.832848 
L 262.762128 158.227878 
L 263.847929 185.068443 
L 264.933731 175.290895 
L 266.019532 146.352242 
L 267.105333 139.166395 
L 268.191134 164.979267 
L 269.276935 124.478972 
L 270.362736 145.802722 
L 271.448538 155.691487 
L 272.534339 136.595323 
L 273.62014 128.647949 
L 274.705941 121.641022 
L 275.791742 156.742796 
L 276.877543 139.73447 
L 277.963344 131.832285 
L 280.134947 163.118626 
L 281.220748 162.55606 
L 282.306549 142.839459 
L 283.39235 141.528479 
L 284.478151 156.496853 
L 285.563953 164.378591 
L 286.649754 175.102378 
L 287.735555 138.815274 
L 288.821356 143.031108 
L 289.907157 166.78594 
L 290.992958 154.868027 
L 292.07876 155.938655 
L 293.164561 145.148056 
L 294.250362 160.897328 
L 295.336163 152.541636 
L 296.421964 170.778159 
L 297.507765 146.157294 
L 298.593566 139.792534 
L 299.679368 150.099157 
L 300.765169 157.041589 
L 301.85097 145.711084 
L 302.936771 150.209671 
L 305.108373 126.254532 
L 307.279976 165.629562 
L 308.365777 153.258926 
L 309.451578 145.160375 
L 310.537379 163.472118 
L 311.62318 155.459779 
L 312.708981 135.578274 
L 313.794783 147.701149 
L 314.880584 147.950616 
L 315.966385 150.184499 
L 317.052186 148.086514 
L 318.137987 154.365114 
L 319.223788 131.879484 
L 320.30959 166.263491 
L 321.395391 144.441639 
L 322.481192 132.074935 
L 323.566993 133.75798 
L 324.652794 156.146464 
L 325.738595 172.844783 
L 326.824396 152.907576 
L 327.910198 156.74959 
L 328.995999 150.722468 
L 330.0818 126.679075 
L 331.167601 123.647041 
L 332.253402 126.960809 
L 333.339203 132.330225 
L 334.425005 133.573754 
L 335.510806 118.373283 
L 336.596607 127.046138 
L 337.682408 137.80568 
L 338.768209 159.77174 
L 339.85401 138.341901 
L 340.939811 130.056972 
L 342.025613 161.274282 
L 343.111414 148.99111 
L 344.197215 150.039123 
L 345.283016 141.3244 
L 346.368817 158.208856 
L 347.454618 161.067018 
L 348.54042 150.375793 
L 349.626221 149.988329 
L 350.712022 140.539268 
L 351.797823 135.56364 
L 352.883624 149.127775 
L 353.969425 151.843121 
L 355.055227 170.999318 
L 356.141028 138.898731 
L 357.226829 157.24061 
L 358.31263 161.65797 
L 359.398431 172.199952 
L 360.484232 153.324777 
L 361.570033 159.375192 
L 362.655835 156.470953 
L 363.741636 162.084491 
L 364.827437 163.146823 
L 365.913238 184.185258 
L 366.999039 178.79772 
L 368.08484 172.194489 
L 369.170642 162.281159 
L 370.256443 160.346249 
L 371.342244 171.025369 
L 372.428045 192.060769 
L 374.599647 142.745678 
L 375.685448 177.95625 
L 376.77125 166.391111 
L 377.857051 172.501688 
L 378.942852 183.782243 
L 380.028653 177.444723 
L 381.114454 175.325197 
L 383.286057 200.826796 
L 384.371858 167.682285 
L 385.457659 165.575909 
L 386.54346 171.286995 
L 387.629261 150.038483 
L 388.715062 165.596276 
L 389.800863 167.618447 
L 390.886665 152.103839 
L 391.972466 152.389414 
L 393.058267 181.301533 
L 394.144068 150.678073 
L 395.229869 169.328365 
L 396.31567 151.278978 
L 397.401472 128.589393 
L 398.487273 148.35587 
L 398.487273 148.35587 
" style="fill:none;stroke:#0000ff;stroke-linecap:square;stroke-width:1.5;"/>
   </g>
   <g id="line2d_34">
    <path clip-path="url(#pac4b551551)" d="M 73.832727 295.488 
L 74.918528 254.899106 
L 76.00433 251.99941 
L 77.090131 241.127318 
L 78.175932 243.982422 
L 79.261733 221.689151 
L 80.347534 228.192421 
L 81.433335 230.78609 
L 82.519137 224.001819 
L 83.604938 232.422651 
L 84.690739 224.164155 
L 85.77654 227.693917 
L 86.862341 206.675936 
L 87.948142 226.86557 
L 89.033943 209.256734 
L 90.119745 205.820378 
L 91.205546 197.573071 
L 92.291347 211.772141 
L 93.377148 198.077105 
L 94.462949 215.567977 
L 95.54875 214.258303 
L 96.634552 216.965749 
L 97.720353 218.321947 
L 98.806154 220.671999 
L 99.891955 217.516065 
L 100.977756 203.797696 
L 102.063557 204.154505 
L 103.149358 202.578148 
L 104.23516 199.116743 
L 105.320961 211.218249 
L 106.406762 201.234548 
L 107.492563 204.010149 
L 108.578364 223.998252 
L 109.664165 211.394539 
L 110.749967 217.373198 
L 111.835768 217.147545 
L 112.921569 223.756131 
L 114.00737 228.959287 
L 115.093171 205.294956 
L 117.264773 228.016058 
L 118.350575 213.970405 
L 119.436376 219.278059 
L 120.522177 231.704826 
L 121.607978 232.576575 
L 122.693779 229.113285 
L 123.77958 224.491999 
L 124.865382 226.266664 
L 125.951183 230.120116 
L 127.036984 218.876391 
L 128.122785 229.568768 
L 129.208586 218.373214 
L 130.294387 210.554134 
L 131.380189 232.354519 
L 132.46599 215.228779 
L 133.551791 222.897206 
L 134.637592 244.951408 
L 135.723393 245.703756 
L 136.809194 227.424269 
L 137.894995 225.286999 
L 138.980797 223.928575 
L 140.066598 224.721647 
L 141.152399 219.149509 
L 142.2382 219.181266 
L 143.324001 193.179632 
L 144.409802 209.599922 
L 145.495604 204.273406 
L 146.581405 213.155619 
L 147.667206 219.711744 
L 148.753007 227.928911 
L 149.838808 193.402279 
L 150.924609 208.004326 
L 152.01041 212.939474 
L 153.096212 232.672091 
L 154.182013 216.548481 
L 155.267814 217.218905 
L 156.353615 227.360522 
L 157.439416 209.060176 
L 158.525217 212.265165 
L 159.611019 205.072958 
L 160.69682 209.22112 
L 161.782621 203.629311 
L 162.868422 190.129905 
L 163.954223 212.566658 
L 165.040024 211.686934 
L 166.125825 220.43152 
L 167.211627 219.666098 
L 168.297428 212.685399 
L 169.383229 221.850761 
L 170.46903 205.526279 
L 171.554831 201.723888 
L 172.640632 218.399035 
L 173.726434 217.966627 
L 174.812235 220.117615 
L 175.898036 233.71922 
L 176.983837 211.135193 
L 178.069638 215.854206 
L 179.155439 222.882602 
L 180.24124 225.357521 
L 181.327042 220.068685 
L 182.412843 232.648293 
L 183.498644 198.968349 
L 184.584445 246.223985 
L 185.670246 233.721746 
L 186.756047 235.452322 
L 187.841849 231.915288 
L 188.92765 209.136538 
L 190.013451 225.976539 
L 191.099252 239.480515 
L 192.185053 212.530936 
L 194.356656 226.403979 
L 195.442457 230.725772 
L 196.528258 235.798821 
L 197.614059 213.124838 
L 198.69986 217.69664 
L 199.785661 228.047183 
L 200.871462 212.494873 
L 201.957264 233.703459 
L 204.128866 194.624294 
L 205.214667 219.736132 
L 206.300468 226.244745 
L 207.386269 226.226908 
L 208.472071 230.357169 
L 209.557872 228.138189 
L 210.643673 218.495417 
L 211.729474 205.731338 
L 212.815275 209.113095 
L 213.901076 207.703645 
L 214.986877 232.72126 
L 216.072679 225.17226 
L 217.15848 222.189122 
L 218.244281 220.034281 
L 219.330082 227.714018 
L 220.415883 208.735375 
L 221.501684 230.73768 
L 222.587486 212.253402 
L 223.673287 217.173109 
L 224.759088 220.805224 
L 225.844889 199.672373 
L 226.93069 205.577806 
L 228.016491 217.647276 
L 229.102292 193.097496 
L 230.188094 207.565706 
L 231.273895 210.415185 
L 232.359696 228.784498 
L 233.445497 235.611297 
L 234.531298 213.001481 
L 235.617099 218.011089 
L 236.702901 201.224886 
L 237.788702 205.734085 
L 238.874503 193.411796 
L 239.960304 218.007963 
L 241.046105 232.512851 
L 242.131906 228.838724 
L 243.217708 232.165726 
L 244.303509 217.677247 
L 245.38931 191.811099 
L 246.475111 210.862833 
L 247.560912 168.650682 
L 248.646713 213.530191 
L 249.732514 205.252958 
L 250.818316 209.665265 
L 251.904117 189.490942 
L 252.989918 210.487481 
L 254.075719 216.052198 
L 255.16152 200.94971 
L 256.247321 200.569923 
L 257.333123 201.866913 
L 258.418924 207.137615 
L 259.504725 198.734088 
L 260.590526 197.188704 
L 261.676327 203.237294 
L 262.762128 203.996964 
L 263.847929 233.327761 
L 264.933731 223.618185 
L 266.019532 195.668399 
L 267.105333 195.821461 
L 268.191134 220.564407 
L 269.276935 186.565766 
L 270.362736 202.345803 
L 271.448538 216.398153 
L 272.534339 201.146427 
L 273.62014 198.224477 
L 274.705941 175.006677 
L 275.791742 210.195001 
L 276.877543 208.066936 
L 277.963344 188.584871 
L 279.049146 200.106915 
L 280.134947 209.897207 
L 281.220748 216.61482 
L 282.306549 186.479786 
L 283.39235 191.635364 
L 284.478151 209.984592 
L 285.563953 221.828382 
L 286.649754 225.415296 
L 287.735555 191.494577 
L 288.821356 188.949797 
L 289.907157 233.483369 
L 290.992958 201.824401 
L 292.07876 203.470576 
L 293.164561 194.556608 
L 294.250362 216.341131 
L 295.336163 197.993061 
L 296.421964 218.750754 
L 297.507765 208.29046 
L 298.593566 188.394373 
L 299.679368 194.835668 
L 300.765169 210.753102 
L 301.85097 200.549634 
L 302.936771 197.5211 
L 304.022572 185.831331 
L 305.108373 190.441293 
L 306.194175 193.990929 
L 307.279976 223.091042 
L 308.365777 206.950024 
L 309.451578 197.151431 
L 310.537379 218.956921 
L 311.62318 210.907098 
L 312.708981 187.95809 
L 313.794783 200.583918 
L 314.880584 204.809654 
L 315.966385 203.910537 
L 317.052186 195.86901 
L 318.137987 206.607353 
L 319.223788 192.624047 
L 320.30959 212.999359 
L 321.395391 212.080626 
L 322.481192 193.896362 
L 323.566993 178.538772 
L 325.738595 226.353115 
L 326.824396 215.057605 
L 328.995999 197.148111 
L 330.0818 179.369274 
L 331.167601 192.399116 
L 332.253402 176.890088 
L 333.339203 189.035417 
L 334.425005 178.010779 
L 335.510806 183.178565 
L 336.596607 185.139664 
L 337.682408 191.941435 
L 338.768209 202.424537 
L 339.85401 185.652928 
L 340.939811 176.166526 
L 342.025613 220.086297 
L 343.111414 203.878404 
L 344.197215 202.316228 
L 345.283016 202.408419 
L 346.368817 204.100975 
L 347.454618 207.959192 
L 348.54042 215.260589 
L 349.626221 212.385582 
L 350.712022 194.905551 
L 351.797823 197.605475 
L 352.883624 208.569309 
L 353.969425 207.455822 
L 355.055227 205.455761 
L 356.141028 193.065266 
L 357.226829 203.456274 
L 359.398431 219.656332 
L 360.484232 198.785963 
L 361.570033 201.186808 
L 362.655835 200.883109 
L 363.741636 212.287605 
L 364.827437 206.164285 
L 365.913238 234.471057 
L 366.999039 225.288413 
L 368.08484 219.755489 
L 369.170642 196.873524 
L 370.256443 206.496945 
L 371.342244 202.024189 
L 372.428045 225.565963 
L 373.513846 211.520683 
L 374.599647 171.70948 
L 375.685448 220.853187 
L 376.77125 207.178089 
L 377.857051 221.899358 
L 378.942852 220.546704 
L 381.114454 212.659804 
L 382.200255 220.322519 
L 383.286057 244.998377 
L 384.371858 216.776644 
L 385.457659 208.060541 
L 386.54346 211.457259 
L 387.629261 187.334442 
L 388.715062 202.676903 
L 389.800863 211.916247 
L 390.886665 192.946877 
L 391.972466 205.881531 
L 393.058267 220.205132 
L 394.144068 199.033093 
L 395.229869 213.865008 
L 397.401472 183.532982 
L 398.487273 188.7627 
L 398.487273 188.7627 
" style="fill:none;stroke:#008000;stroke-dasharray:9.6,2.4,1.5,2.4;stroke-dashoffset:0;stroke-width:1.5;"/>
   </g>
   <g id="line2d_35">
    <path clip-path="url(#pac4b551551)" d="M 73.832727 287.561381 
L 74.918528 247.918479 
L 76.00433 245.099001 
L 77.090131 231.031424 
L 78.175932 225.432932 
L 79.261733 197.619055 
L 80.347534 201.784144 
L 82.519137 183.086494 
L 83.604938 199.346685 
L 84.690739 182.909905 
L 86.862341 166.820505 
L 87.948142 195.067413 
L 89.033943 175.305131 
L 91.205546 154.319015 
L 92.291347 155.575975 
L 93.377148 149.969989 
L 94.462949 161.906284 
L 95.54875 167.4545 
L 96.634552 179.601971 
L 97.720353 163.104812 
L 99.891955 172.823059 
L 100.977756 153.584144 
L 102.063557 152.205423 
L 103.149358 137.146022 
L 104.23516 138.687019 
L 105.320961 155.749119 
L 106.406762 143.505432 
L 107.492563 150.311831 
L 108.578364 172.387822 
L 110.749967 162.091308 
L 111.835768 154.70141 
L 112.921569 177.716752 
L 114.00737 185.627693 
L 115.093171 144.670296 
L 116.178972 165.519456 
L 117.264773 181.455944 
L 118.350575 169.700385 
L 119.436376 175.18965 
L 120.522177 182.978051 
L 121.607978 174.120314 
L 122.693779 175.877797 
L 123.77958 173.099678 
L 124.865382 179.582513 
L 125.951183 176.997737 
L 127.036984 156.617621 
L 128.122785 190.474268 
L 129.208586 162.272255 
L 130.294387 164.516872 
L 131.380189 179.203945 
L 132.46599 149.26954 
L 133.551791 171.248729 
L 134.637592 189.498559 
L 135.723393 198.319789 
L 136.809194 173.895933 
L 137.894995 176.997639 
L 138.980797 167.319326 
L 140.066598 162.967078 
L 141.152399 153.458904 
L 142.2382 166.14782 
L 143.324001 121.153939 
L 144.409802 140.909653 
L 145.495604 145.311811 
L 146.581405 160.385605 
L 147.667206 161.724031 
L 148.753007 158.570841 
L 149.838808 136.924719 
L 150.924609 148.033999 
L 152.01041 156.326007 
L 153.096212 147.490717 
L 154.182013 149.781317 
L 155.267814 160.594638 
L 156.353615 163.526192 
L 157.439416 147.475139 
L 158.525217 146.745722 
L 159.611019 162.818807 
L 160.69682 154.131894 
L 161.782621 146.512005 
L 162.868422 135.637419 
L 163.954223 144.117496 
L 165.040024 151.226665 
L 166.125825 143.29654 
L 167.211627 159.134852 
L 168.297428 153.983385 
L 169.383229 146.749394 
L 170.46903 136.163201 
L 171.554831 148.177168 
L 172.640632 139.56602 
L 173.726434 156.647858 
L 174.812235 171.569153 
L 175.898036 177.02448 
L 176.983837 153.562208 
L 178.069638 154.749752 
L 179.155439 160.323845 
L 180.24124 188.91445 
L 181.327042 181.398827 
L 182.412843 189.565034 
L 183.498644 155.779323 
L 184.584445 196.203161 
L 185.670246 169.576474 
L 186.756047 172.595997 
L 187.841849 164.948642 
L 188.92765 145.168837 
L 190.013451 165.41262 
L 191.099252 180.22819 
L 192.185053 161.832033 
L 193.270854 169.239951 
L 194.356656 177.463059 
L 195.442457 176.95475 
L 196.528258 169.727175 
L 197.614059 143.596695 
L 199.785661 150.052892 
L 200.871462 138.171233 
L 201.957264 166.467429 
L 203.043065 142.037676 
L 204.128866 132.338732 
L 205.214667 145.409855 
L 206.300468 145.122845 
L 207.386269 166.898996 
L 209.557872 153.339227 
L 210.643673 143.846533 
L 211.729474 146.742123 
L 212.815275 158.706918 
L 213.901076 135.986299 
L 214.986877 177.196537 
L 216.072679 119.096228 
L 217.15848 142.334632 
L 218.244281 133.726106 
L 219.330082 169.379178 
L 220.415883 114.457017 
L 221.501684 141.488351 
L 222.587486 127.735672 
L 223.673287 146.635046 
L 224.759088 160.720203 
L 225.844889 132.16345 
L 226.93069 133.400304 
L 228.016491 144.672514 
L 229.102292 128.223206 
L 231.273895 141.873863 
L 232.359696 161.281177 
L 233.445497 152.443569 
L 234.531298 142.381932 
L 235.617099 140.597987 
L 236.702901 110.168217 
L 237.788702 111.768043 
L 238.874503 104.599719 
L 239.960304 140.736257 
L 241.046105 149.825148 
L 242.131906 140.305087 
L 243.217708 140.535291 
L 244.303509 144.899719 
L 245.38931 93.230095 
L 246.475111 101.784465 
L 247.560912 89.761683 
L 248.646713 136.008225 
L 249.732514 114.436462 
L 250.818316 120.068485 
L 251.904117 80.155465 
L 252.989918 97.366755 
L 254.075719 132.313094 
L 255.16152 106.194165 
L 256.247321 120.611985 
L 257.333123 109.67862 
L 258.418924 123.18182 
L 259.504725 95.474037 
L 260.590526 110.513751 
L 261.676327 110.428402 
L 262.762128 112.458791 
L 263.847929 136.809126 
L 264.933731 126.963604 
L 266.019532 97.036084 
L 267.105333 82.51133 
L 268.191134 109.394126 
L 269.276935 62.392178 
L 270.362736 89.259641 
L 271.448538 94.984821 
L 272.534339 72.04422 
L 273.62014 59.071421 
L 274.705941 68.275366 
L 275.791742 103.290592 
L 276.877543 71.402003 
L 277.963344 75.079699 
L 279.049146 94.668556 
L 280.134947 116.340045 
L 281.220748 108.4973 
L 282.306549 99.199133 
L 283.39235 91.421595 
L 284.478151 103.009114 
L 285.563953 106.9288 
L 286.649754 124.78946 
L 287.735555 86.135971 
L 288.821356 97.11242 
L 289.907157 100.088511 
L 290.992958 107.911653 
L 292.07876 108.406734 
L 293.164561 95.739503 
L 294.250362 105.453526 
L 295.336163 107.090211 
L 296.421964 122.805565 
L 297.507765 84.024129 
L 298.593566 91.190694 
L 299.679368 105.362647 
L 300.765169 103.330076 
L 301.85097 90.872534 
L 302.936771 102.898242 
L 304.022572 91.062134 
L 305.108373 62.067772 
L 306.194175 96.336091 
L 307.279976 108.168082 
L 308.365777 99.567827 
L 309.451578 93.169318 
L 310.537379 107.987315 
L 311.62318 100.012461 
L 312.708981 83.198459 
L 313.794783 94.81838 
L 314.880584 91.091578 
L 315.966385 96.458461 
L 317.052186 100.304019 
L 318.137987 102.122875 
L 319.223788 71.13492 
L 320.30959 119.527622 
L 321.395391 76.802653 
L 322.481192 70.253508 
L 324.652794 108.903656 
L 325.738595 119.336451 
L 326.824396 90.757547 
L 327.910198 107.554704 
L 328.995999 104.296825 
L 330.0818 73.988876 
L 331.167601 54.894966 
L 332.253402 77.031531 
L 333.339203 75.625034 
L 334.425005 89.13673 
L 335.510806 53.568 
L 337.682408 83.669924 
L 338.768209 117.118943 
L 339.85401 91.030874 
L 340.939811 83.947418 
L 342.025613 102.462268 
L 343.111414 94.103815 
L 344.197215 97.762017 
L 345.283016 80.240381 
L 346.368817 112.316737 
L 347.454618 114.174844 
L 348.54042 85.490996 
L 349.626221 87.591075 
L 350.712022 86.172985 
L 351.797823 73.521804 
L 352.883624 89.686241 
L 353.969425 96.23042 
L 355.055227 136.542874 
L 356.141028 84.732197 
L 357.226829 111.024946 
L 358.31263 111.831037 
L 359.398431 124.743572 
L 360.484232 107.863591 
L 361.570033 117.563576 
L 362.655835 112.058796 
L 363.741636 111.881376 
L 364.827437 120.129361 
L 365.913238 133.899459 
L 366.999039 132.307027 
L 368.08484 124.63349 
L 369.170642 127.688795 
L 370.256443 114.195553 
L 371.342244 140.026548 
L 372.428045 158.555576 
L 373.513846 124.799389 
L 374.599647 113.781877 
L 375.685448 135.059312 
L 376.77125 125.604132 
L 377.857051 123.104017 
L 378.942852 147.017781 
L 380.028653 138.185206 
L 381.114454 137.99059 
L 382.200255 155.269466 
L 383.286057 156.655216 
L 384.371858 118.587926 
L 385.457659 123.091276 
L 386.54346 131.11673 
L 387.629261 112.742523 
L 388.715062 128.51565 
L 389.800863 123.320647 
L 391.972466 98.897298 
L 393.058267 142.397934 
L 394.144068 102.323053 
L 395.229869 124.791721 
L 396.31567 103.741016 
L 397.401472 73.645805 
L 398.487273 107.949039 
L 398.487273 107.949039 
" style="fill:none;stroke:#008000;stroke-dasharray:9.6,2.4,1.5,2.4;stroke-dashoffset:0;stroke-width:1.5;"/>
   </g>
   <g id="line2d_36">
    <path clip-path="url(#pac4b551551)" d="M 73.832727 282.1638 
L 74.918528 243.112875 
L 76.00433 241.076264 
L 77.090131 222.717687 
L 78.175932 220.470583 
L 79.261733 180.276425 
L 80.347534 190.97346 
L 81.433335 169.326696 
L 82.519137 160.799232 
L 83.604938 183.212602 
L 85.77654 161.309827 
L 86.862341 161.045291 
L 87.948142 184.08529 
L 91.205546 154.379823 
L 92.291347 151.037027 
L 93.377148 146.144809 
L 94.462949 159.043232 
L 96.634552 174.991533 
L 97.720353 163.141309 
L 98.806154 165.042963 
L 99.891955 172.437332 
L 100.977756 154.531081 
L 102.063557 160.508996 
L 103.149358 147.070873 
L 104.23516 144.529886 
L 105.320961 162.049772 
L 106.406762 148.028034 
L 107.492563 156.808104 
L 108.578364 173.286451 
L 109.664165 172.777007 
L 110.749967 165.070743 
L 111.835768 156.134537 
L 112.921569 177.471114 
L 114.00737 183.068533 
L 115.093171 144.592985 
L 116.178972 164.213491 
L 117.264773 178.215395 
L 118.350575 167.915187 
L 119.436376 169.490485 
L 120.522177 177.539807 
L 121.607978 172.407763 
L 122.693779 177.031033 
L 123.77958 172.439697 
L 124.865382 181.706645 
L 125.951183 177.310455 
L 127.036984 160.20124 
L 128.122785 191.916674 
L 129.208586 164.630341 
L 131.380189 179.105794 
L 132.46599 144.521731 
L 133.551791 173.399168 
L 134.637592 184.19998 
L 135.723393 189.381311 
L 136.809194 168.474055 
L 137.894995 175.228942 
L 138.980797 164.280155 
L 140.066598 164.358137 
L 141.152399 149.848952 
L 142.2382 164.816412 
L 143.324001 133.36152 
L 144.409802 144.000485 
L 145.495604 150.480879 
L 146.581405 162.632421 
L 147.667206 159.159264 
L 148.753007 159.755637 
L 149.838808 142.088562 
L 150.924609 150.610219 
L 152.01041 153.110836 
L 153.096212 151.502717 
L 154.182013 148.242503 
L 155.267814 150.732896 
L 156.353615 154.452511 
L 157.439416 154.319941 
L 158.525217 153.43476 
L 159.611019 159.077837 
L 161.782621 149.252261 
L 162.868422 135.78823 
L 163.954223 148.886706 
L 165.040024 141.461003 
L 166.125825 136.431948 
L 167.211627 152.922579 
L 168.297428 147.219215 
L 170.46903 133.613513 
L 171.554831 148.16615 
L 172.640632 141.935941 
L 173.726434 162.467107 
L 174.812235 167.785883 
L 175.898036 174.569122 
L 176.983837 156.233113 
L 178.069638 162.985648 
L 179.155439 164.657722 
L 180.24124 188.27289 
L 181.327042 182.107799 
L 182.412843 185.645625 
L 183.498644 161.137356 
L 184.584445 193.901339 
L 185.670246 167.651992 
L 186.756047 170.465658 
L 187.841849 171.384717 
L 188.92765 140.430896 
L 190.013451 162.791438 
L 191.099252 175.586313 
L 192.185053 160.543152 
L 193.270854 161.825947 
L 194.356656 177.425642 
L 195.442457 174.412154 
L 196.528258 167.101126 
L 197.614059 147.380259 
L 199.785661 140.791516 
L 200.871462 131.157974 
L 201.957264 162.247492 
L 203.043065 148.074231 
L 204.128866 139.072958 
L 205.214667 148.33787 
L 206.300468 145.585007 
L 207.386269 165.057155 
L 208.472071 153.877453 
L 209.557872 144.864027 
L 210.643673 142.835504 
L 211.729474 146.210961 
L 212.815275 153.676467 
L 213.901076 124.94213 
L 214.986877 161.04299 
L 216.072679 92.067237 
L 217.15848 119.929028 
L 218.244281 117.013993 
L 219.330082 160.28718 
L 220.415883 98.534031 
L 221.501684 114.035445 
L 223.673287 127.032215 
L 224.759088 153.695724 
L 225.844889 131.736354 
L 226.93069 131.05208 
L 228.016491 136.431441 
L 229.102292 124.363683 
L 230.188094 123.057267 
L 231.273895 139.464504 
L 232.359696 152.317594 
L 233.445497 132.655167 
L 234.531298 142.103009 
L 235.617099 121.479239 
L 236.702901 108.985378 
L 237.788702 104.840161 
L 238.874503 102.465805 
L 239.960304 128.051569 
L 241.046105 145.620341 
L 242.131906 122.292271 
L 243.217708 133.756191 
L 244.303509 138.012063 
L 245.38931 90.471247 
L 246.475111 103.161945 
L 247.560912 87.547076 
L 248.646713 130.810119 
L 249.732514 111.524547 
L 250.818316 111.674871 
L 251.904117 73.676817 
L 252.989918 91.97691 
L 254.075719 126.966466 
L 255.16152 108.482881 
L 256.247321 117.056444 
L 257.333123 111.968832 
L 258.418924 117.333075 
L 259.504725 88.337044 
L 260.590526 104.837677 
L 261.676327 102.067455 
L 262.762128 96.586251 
L 263.847929 111.41454 
L 264.933731 113.527723 
L 266.019532 91.738301 
L 267.105333 64.170997 
L 268.191134 90.924712 
L 269.276935 54.449206 
L 270.362736 82.337929 
L 271.448538 87.940623 
L 272.534339 70.746565 
L 273.62014 55.321602 
L 274.705941 72.728902 
L 275.791742 93.043696 
L 276.877543 63.557282 
L 277.963344 62.89712 
L 279.049146 78.740709 
L 280.134947 108.850845 
L 281.220748 108.269938 
L 282.306549 102.598544 
L 283.39235 86.664843 
L 284.478151 84.297001 
L 285.563953 74.617234 
L 286.649754 117.47283 
L 287.735555 81.438536 
L 288.821356 90.470731 
L 289.907157 81.284777 
L 290.992958 92.147444 
L 292.07876 93.86091 
L 293.164561 84.023596 
L 294.250362 92.287919 
L 295.336163 88.162702 
L 296.421964 98.691714 
L 297.507765 65.494393 
L 299.679368 91.753004 
L 300.765169 97.409444 
L 301.85097 85.135289 
L 302.936771 92.291563 
L 304.022572 84.207149 
L 305.108373 70.294116 
L 306.194175 98.293102 
L 307.279976 101.160923 
L 308.365777 97.413683 
L 309.451578 90.26227 
L 310.537379 107.687524 
L 311.62318 88.62683 
L 312.708981 85.013264 
L 313.794783 90.250232 
L 314.880584 88.67585 
L 315.966385 98.873555 
L 317.052186 86.658847 
L 318.137987 108.781356 
L 319.223788 77.721664 
L 320.30959 115.998209 
L 321.395391 74.21504 
L 322.481192 77.743301 
L 323.566993 88.213015 
L 324.652794 111.94604 
L 325.738595 109.422387 
L 326.824396 87.657271 
L 327.910198 110.080028 
L 328.995999 100.181582 
L 331.167601 57.234202 
L 332.253402 72.960537 
L 333.339203 67.215548 
L 334.425005 88.532032 
L 335.510806 55.269797 
L 336.596607 74.487506 
L 337.682408 85.094857 
L 338.768209 119.799016 
L 339.85401 97.59487 
L 340.939811 80.4732 
L 342.025613 101.755194 
L 343.111414 76.966974 
L 344.197215 89.151896 
L 345.283016 68.289484 
L 346.368817 85.657108 
L 347.454618 97.879285 
L 348.54042 73.341721 
L 349.626221 78.257613 
L 350.712022 69.516456 
L 351.797823 73.194844 
L 352.883624 86.868444 
L 353.969425 103.720422 
L 355.055227 129.90088 
L 356.141028 65.109109 
L 357.226829 103.6964 
L 358.31263 100.689684 
L 359.398431 119.661229 
L 360.484232 112.072873 
L 361.570033 114.571162 
L 362.655835 112.535553 
L 363.741636 113.805003 
L 364.827437 114.450935 
L 365.913238 130.197472 
L 366.999039 127.370248 
L 368.08484 119.260203 
L 369.170642 127.536475 
L 370.256443 107.706986 
L 371.342244 138.101671 
L 372.428045 142.157833 
L 373.513846 120.897955 
L 374.599647 113.067224 
L 375.685448 133.260655 
L 376.77125 115.626205 
L 377.857051 114.983713 
L 378.942852 128.63127 
L 380.028653 126.570938 
L 381.114454 120.045374 
L 382.200255 148.703941 
L 383.286057 142.854252 
L 384.371858 105.187929 
L 385.457659 117.343715 
L 386.54346 127.264115 
L 387.629261 91.348803 
L 388.715062 119.342769 
L 390.886665 100.482561 
L 391.972466 91.235886 
L 393.058267 127.660218 
L 394.144068 91.497959 
L 395.229869 116.524383 
L 396.31567 90.35594 
L 397.401472 79.333564 
L 398.487273 111.011539 
L 398.487273 111.011539 
" style="fill:none;stroke:#ff0000;stroke-linecap:square;stroke-width:1.5;"/>
   </g>
   <g id="patch_3">
    <path d="M 57.6 307.584 
L 57.6 41.472 
" style="fill:none;stroke:#000000;stroke-linecap:square;stroke-linejoin:miter;stroke-width:0.8;"/>
   </g>
   <g id="patch_4">
    <path d="M 414.72 307.584 
L 414.72 41.472 
" style="fill:none;stroke:#000000;stroke-linecap:square;stroke-linejoin:miter;stroke-width:0.8;"/>
   </g>
   <g id="patch_5">
    <path d="M 57.6 307.584 
L 414.72 307.584 
" style="fill:none;stroke:#000000;stroke-linecap:square;stroke-linejoin:miter;stroke-width:0.8;"/>
   </g>
   <g id="patch_6">
    <path d="M 57.6 41.472 
L 414.72 41.472 
" style="fill:none;stroke:#000000;stroke-linecap:square;stroke-linejoin:miter;stroke-width:0.8;"/>
   </g>
   <g id="text_19">
    <!-- Population's average and best fitness -->
    <defs>
     <path d="M 19.671875 64.796875 
L 19.671875 37.40625 
L 32.078125 37.40625 
Q 38.96875 37.40625 42.71875 40.96875 
Q 46.484375 44.53125 46.484375 51.125 
Q 46.484375 57.671875 42.71875 61.234375 
Q 38.96875 64.796875 32.078125 64.796875 
z
M 9.8125 72.90625 
L 32.078125 72.90625 
Q 44.34375 72.90625 50.609375 67.359375 
Q 56.890625 61.8125 56.890625 51.125 
Q 56.890625 40.328125 50.609375 34.8125 
Q 44.34375 29.296875 32.078125 29.296875 
L 19.671875 29.296875 
L 19.671875 0 
L 9.8125 0 
z
" id="DejaVuSans-80"/>
     <path d="M 18.109375 8.203125 
L 18.109375 -20.796875 
L 9.078125 -20.796875 
L 9.078125 54.6875 
L 18.109375 54.6875 
L 18.109375 46.390625 
Q 20.953125 51.265625 25.265625 53.625 
Q 29.59375 56 35.59375 56 
Q 45.5625 56 51.78125 48.09375 
Q 58.015625 40.1875 58.015625 27.296875 
Q 58.015625 14.40625 51.78125 6.484375 
Q 45.5625 -1.421875 35.59375 -1.421875 
Q 29.59375 -1.421875 25.265625 0.953125 
Q 20.953125 3.328125 18.109375 8.203125 
z
M 48.6875 27.296875 
Q 48.6875 37.203125 44.609375 42.84375 
Q 40.53125 48.484375 33.40625 48.484375 
Q 26.265625 48.484375 22.1875 42.84375 
Q 18.109375 37.203125 18.109375 27.296875 
Q 18.109375 17.390625 22.1875 11.75 
Q 26.265625 6.109375 33.40625 6.109375 
Q 40.53125 6.109375 44.609375 11.75 
Q 48.6875 17.390625 48.6875 27.296875 
z
" id="DejaVuSans-112"/>
     <path d="M 8.5 21.578125 
L 8.5 54.6875 
L 17.484375 54.6875 
L 17.484375 21.921875 
Q 17.484375 14.15625 20.5 10.265625 
Q 23.53125 6.390625 29.59375 6.390625 
Q 36.859375 6.390625 41.078125 11.03125 
Q 45.3125 15.671875 45.3125 23.6875 
L 45.3125 54.6875 
L 54.296875 54.6875 
L 54.296875 0 
L 45.3125 0 
L 45.3125 8.40625 
Q 42.046875 3.421875 37.71875 1 
Q 33.40625 -1.421875 27.6875 -1.421875 
Q 18.265625 -1.421875 13.375 4.4375 
Q 8.5 10.296875 8.5 21.578125 
z
M 31.109375 56 
z
" id="DejaVuSans-117"/>
     <path d="M 9.421875 75.984375 
L 18.40625 75.984375 
L 18.40625 0 
L 9.421875 0 
z
" id="DejaVuSans-108"/>
     <path d="M 17.921875 72.90625 
L 17.921875 45.796875 
L 9.625 45.796875 
L 9.625 72.90625 
z
" id="DejaVuSans-39"/>
     <path id="DejaVuSans-32"/>
     <path d="M 2.984375 54.6875 
L 12.5 54.6875 
L 29.59375 8.796875 
L 46.6875 54.6875 
L 56.203125 54.6875 
L 35.6875 0 
L 23.484375 0 
z
" id="DejaVuSans-118"/>
     <path d="M 45.40625 27.984375 
Q 45.40625 37.75 41.375 43.109375 
Q 37.359375 48.484375 30.078125 48.484375 
Q 22.859375 48.484375 18.828125 43.109375 
Q 14.796875 37.75 14.796875 27.984375 
Q 14.796875 18.265625 18.828125 12.890625 
Q 22.859375 7.515625 30.078125 7.515625 
Q 37.359375 7.515625 41.375 12.890625 
Q 45.40625 18.265625 45.40625 27.984375 
z
M 54.390625 6.78125 
Q 54.390625 -7.171875 48.1875 -13.984375 
Q 42 -20.796875 29.203125 -20.796875 
Q 24.46875 -20.796875 20.265625 -20.09375 
Q 16.0625 -19.390625 12.109375 -17.921875 
L 12.109375 -9.1875 
Q 16.0625 -11.328125 19.921875 -12.34375 
Q 23.78125 -13.375 27.78125 -13.375 
Q 36.625 -13.375 41.015625 -8.765625 
Q 45.40625 -4.15625 45.40625 5.171875 
L 45.40625 9.625 
Q 42.625 4.78125 38.28125 2.390625 
Q 33.9375 0 27.875 0 
Q 17.828125 0 11.671875 7.65625 
Q 5.515625 15.328125 5.515625 27.984375 
Q 5.515625 40.671875 11.671875 48.328125 
Q 17.828125 56 27.875 56 
Q 33.9375 56 38.28125 53.609375 
Q 42.625 51.21875 45.40625 46.390625 
L 45.40625 54.6875 
L 54.390625 54.6875 
z
" id="DejaVuSans-103"/>
     <path d="M 45.40625 46.390625 
L 45.40625 75.984375 
L 54.390625 75.984375 
L 54.390625 0 
L 45.40625 0 
L 45.40625 8.203125 
Q 42.578125 3.328125 38.25 0.953125 
Q 33.9375 -1.421875 27.875 -1.421875 
Q 17.96875 -1.421875 11.734375 6.484375 
Q 5.515625 14.40625 5.515625 27.296875 
Q 5.515625 40.1875 11.734375 48.09375 
Q 17.96875 56 27.875 56 
Q 33.9375 56 38.25 53.625 
Q 42.578125 51.265625 45.40625 46.390625 
z
M 14.796875 27.296875 
Q 14.796875 17.390625 18.875 11.75 
Q 22.953125 6.109375 30.078125 6.109375 
Q 37.203125 6.109375 41.296875 11.75 
Q 45.40625 17.390625 45.40625 27.296875 
Q 45.40625 37.203125 41.296875 42.84375 
Q 37.203125 48.484375 30.078125 48.484375 
Q 22.953125 48.484375 18.875 42.84375 
Q 14.796875 37.203125 14.796875 27.296875 
z
" id="DejaVuSans-100"/>
     <path d="M 48.6875 27.296875 
Q 48.6875 37.203125 44.609375 42.84375 
Q 40.53125 48.484375 33.40625 48.484375 
Q 26.265625 48.484375 22.1875 42.84375 
Q 18.109375 37.203125 18.109375 27.296875 
Q 18.109375 17.390625 22.1875 11.75 
Q 26.265625 6.109375 33.40625 6.109375 
Q 40.53125 6.109375 44.609375 11.75 
Q 48.6875 17.390625 48.6875 27.296875 
z
M 18.109375 46.390625 
Q 20.953125 51.265625 25.265625 53.625 
Q 29.59375 56 35.59375 56 
Q 45.5625 56 51.78125 48.09375 
Q 58.015625 40.1875 58.015625 27.296875 
Q 58.015625 14.40625 51.78125 6.484375 
Q 45.5625 -1.421875 35.59375 -1.421875 
Q 29.59375 -1.421875 25.265625 0.953125 
Q 20.953125 3.328125 18.109375 8.203125 
L 18.109375 0 
L 9.078125 0 
L 9.078125 75.984375 
L 18.109375 75.984375 
z
" id="DejaVuSans-98"/>
     <path d="M 37.109375 75.984375 
L 37.109375 68.5 
L 28.515625 68.5 
Q 23.6875 68.5 21.796875 66.546875 
Q 19.921875 64.59375 19.921875 59.515625 
L 19.921875 54.6875 
L 34.71875 54.6875 
L 34.71875 47.703125 
L 19.921875 47.703125 
L 19.921875 0 
L 10.890625 0 
L 10.890625 47.703125 
L 2.296875 47.703125 
L 2.296875 54.6875 
L 10.890625 54.6875 
L 10.890625 58.5 
Q 10.890625 67.625 15.140625 71.796875 
Q 19.390625 75.984375 28.609375 75.984375 
z
" id="DejaVuSans-102"/>
    </defs>
    <g transform="translate(123.315 35.472)scale(0.12 -0.12)">
     <use xlink:href="#DejaVuSans-80"/>
     <use x="60.255859" xlink:href="#DejaVuSans-111"/>
     <use x="121.4375" xlink:href="#DejaVuSans-112"/>
     <use x="184.914062" xlink:href="#DejaVuSans-117"/>
     <use x="248.292969" xlink:href="#DejaVuSans-108"/>
     <use x="276.076172" xlink:href="#DejaVuSans-97"/>
     <use x="337.355469" xlink:href="#DejaVuSans-116"/>
     <use x="376.564453" xlink:href="#DejaVuSans-105"/>
     <use x="404.347656" xlink:href="#DejaVuSans-111"/>
     <use x="465.529297" xlink:href="#DejaVuSans-110"/>
     <use x="528.908203" xlink:href="#DejaVuSans-39"/>
     <use x="556.398438" xlink:href="#DejaVuSans-115"/>
     <use x="608.498047" xlink:href="#DejaVuSans-32"/>
     <use x="640.285156" xlink:href="#DejaVuSans-97"/>
     <use x="701.564453" xlink:href="#DejaVuSans-118"/>
     <use x="760.744141" xlink:href="#DejaVuSans-101"/>
     <use x="822.267578" xlink:href="#DejaVuSans-114"/>
     <use x="863.380859" xlink:href="#DejaVuSans-97"/>
     <use x="924.660156" xlink:href="#DejaVuSans-103"/>
     <use x="988.136719" xlink:href="#DejaVuSans-101"/>
     <use x="1049.660156" xlink:href="#DejaVuSans-32"/>
     <use x="1081.447266" xlink:href="#DejaVuSans-97"/>
     <use x="1142.726562" xlink:href="#DejaVuSans-110"/>
     <use x="1206.105469" xlink:href="#DejaVuSans-100"/>
     <use x="1269.582031" xlink:href="#DejaVuSans-32"/>
     <use x="1301.369141" xlink:href="#DejaVuSans-98"/>
     <use x="1364.845703" xlink:href="#DejaVuSans-101"/>
     <use x="1426.369141" xlink:href="#DejaVuSans-115"/>
     <use x="1478.46875" xlink:href="#DejaVuSans-116"/>
     <use x="1517.677734" xlink:href="#DejaVuSans-32"/>
     <use x="1549.464844" xlink:href="#DejaVuSans-102"/>
     <use x="1584.669922" xlink:href="#DejaVuSans-105"/>
     <use x="1612.453125" xlink:href="#DejaVuSans-116"/>
     <use x="1651.662109" xlink:href="#DejaVuSans-110"/>
     <use x="1715.041016" xlink:href="#DejaVuSans-101"/>
     <use x="1776.564453" xlink:href="#DejaVuSans-115"/>
     <use x="1828.664062" xlink:href="#DejaVuSans-115"/>
    </g>
   </g>
   <g id="legend_1">
    <g id="patch_7">
     <path d="M 64.6 108.1845 
L 137.540625 108.1845 
Q 139.540625 108.1845 139.540625 106.1845 
L 139.540625 48.472 
Q 139.540625 46.472 137.540625 46.472 
L 64.6 46.472 
Q 62.6 46.472 62.6 48.472 
L 62.6 106.1845 
Q 62.6 108.1845 64.6 108.1845 
z
" style="fill:#ffffff;opacity:0.8;stroke:#cccccc;stroke-linejoin:miter;"/>
    </g>
    <g id="line2d_37">
     <path d="M 66.6 54.570438 
L 86.6 54.570438 
" style="fill:none;stroke:#0000ff;stroke-linecap:square;stroke-width:1.5;"/>
    </g>
    <g id="line2d_38"/>
    <g id="text_20">
     <!-- average -->
     <g transform="translate(94.6 58.070438)scale(0.1 -0.1)">
      <use xlink:href="#DejaVuSans-97"/>
      <use x="61.279297" xlink:href="#DejaVuSans-118"/>
      <use x="120.458984" xlink:href="#DejaVuSans-101"/>
      <use x="181.982422" xlink:href="#DejaVuSans-114"/>
      <use x="223.095703" xlink:href="#DejaVuSans-97"/>
      <use x="284.375" xlink:href="#DejaVuSans-103"/>
      <use x="347.851562" xlink:href="#DejaVuSans-101"/>
     </g>
    </g>
    <g id="line2d_39">
     <path d="M 66.6 69.248563 
L 86.6 69.248563 
" style="fill:none;stroke:#008000;stroke-dasharray:9.6,2.4,1.5,2.4;stroke-dashoffset:0;stroke-width:1.5;"/>
    </g>
    <g id="line2d_40"/>
    <g id="text_21">
     <!-- -1 sd -->
     <defs>
      <path d="M 4.890625 31.390625 
L 31.203125 31.390625 
L 31.203125 23.390625 
L 4.890625 23.390625 
z
" id="DejaVuSans-45"/>
     </defs>
     <g transform="translate(94.6 72.748563)scale(0.1 -0.1)">
      <use xlink:href="#DejaVuSans-45"/>
      <use x="36.083984" xlink:href="#DejaVuSans-49"/>
      <use x="99.707031" xlink:href="#DejaVuSans-32"/>
      <use x="131.494141" xlink:href="#DejaVuSans-115"/>
      <use x="183.59375" xlink:href="#DejaVuSans-100"/>
     </g>
    </g>
    <g id="line2d_41">
     <path d="M 66.6 83.926688 
L 86.6 83.926688 
" style="fill:none;stroke:#008000;stroke-dasharray:9.6,2.4,1.5,2.4;stroke-dashoffset:0;stroke-width:1.5;"/>
    </g>
    <g id="line2d_42"/>
    <g id="text_22">
     <!-- +1 sd -->
     <defs>
      <path d="M 46 62.703125 
L 46 35.5 
L 73.1875 35.5 
L 73.1875 27.203125 
L 46 27.203125 
L 46 0 
L 37.796875 0 
L 37.796875 27.203125 
L 10.59375 27.203125 
L 10.59375 35.5 
L 37.796875 35.5 
L 37.796875 62.703125 
z
" id="DejaVuSans-43"/>
     </defs>
     <g transform="translate(94.6 87.426688)scale(0.1 -0.1)">
      <use xlink:href="#DejaVuSans-43"/>
      <use x="83.789062" xlink:href="#DejaVuSans-49"/>
      <use x="147.412109" xlink:href="#DejaVuSans-32"/>
      <use x="179.199219" xlink:href="#DejaVuSans-115"/>
      <use x="231.298828" xlink:href="#DejaVuSans-100"/>
     </g>
    </g>
    <g id="line2d_43">
     <path d="M 66.6 98.604813 
L 86.6 98.604813 
" style="fill:none;stroke:#ff0000;stroke-linecap:square;stroke-width:1.5;"/>
    </g>
    <g id="line2d_44"/>
    <g id="text_23">
     <!-- best -->
     <g transform="translate(94.6 102.104813)scale(0.1 -0.1)">
      <use xlink:href="#DejaVuSans-98"/>
      <use x="63.476562" xlink:href="#DejaVuSans-101"/>
      <use x="125" xlink:href="#DejaVuSans-115"/>
      <use x="177.099609" xlink:href="#DejaVuSans-116"/>
     </g>
    </g>
   </g>
  </g>
 </g>
 <defs>
  <clipPath id="pac4b551551">
   <rect height="266.112" width="357.12" x="57.6" y="41.472"/>
  </clipPath>
 </defs>
</svg>
