<?xml version="1.0" encoding="UTF-8" standalone="no"?>
<!DOCTYPE svg PUBLIC "-//W3C//DTD SVG 1.1//EN"
 "http://www.w3.org/Graphics/SVG/1.1/DTD/svg11.dtd">
<!-- Generated by graphviz version 2.40.1 (20161225.0304)
 -->
<!-- Title: %3 Pages: 1 -->
<svg width="485pt" height="182pt"
 viewBox="0.00 0.00 484.77 181.85" xmlns="http://www.w3.org/2000/svg" xmlns:xlink="http://www.w3.org/1999/xlink">
<g id="graph0" class="graph" transform="scale(1 1) rotate(0) translate(4 177.8494)">
<title>%3</title>
<polygon fill="#ffffff" stroke="transparent" points="-4,4 -4,-177.8494 480.7661,-177.8494 480.7661,4 -4,4"/>
<!-- 0 -->
<g id="node1" class="node">
<title>0</title>
<polygon fill="#d3d3d3" stroke="#000000" points="219.389,-173.8494 199.3771,-173.8494 199.3771,-156.8494 219.389,-156.8494 219.389,-173.8494"/>
<text text-anchor="middle" x="209.383" y="-162.6494" font-family="Times,serif" font-size="9.00" fill="#000000">0</text>
</g>
<!-- 1 -->
<g id="node2" class="node">
<title>1</title>
<polygon fill="#d3d3d3" stroke="#000000" points="258.389,-173.8494 238.3771,-173.8494 238.3771,-156.8494 258.389,-156.8494 258.389,-173.8494"/>
<text text-anchor="middle" x="248.383" y="-162.6494" font-family="Times,serif" font-size="9.00" fill="#000000">1</text>
</g>
<!-- 0&#45;&gt;1 -->
<!-- E4 -->
<g id="node8" class="node">
<title>E4</title>
<ellipse fill="#87cefa" stroke="#000000" cx="238.383" cy="-18.383" rx="18.2668" ry="18.2668"/>
<text text-anchor="middle" x="238.383" y="-15.683" font-family="Times,serif" font-size="9.00" fill="#000000">E4</text>
</g>
<!-- 0&#45;&gt;E4 -->
<g id="edge13" class="edge">
<title>0&#45;&gt;E4</title>
<path fill="none" stroke="#ff0000" stroke-width="1.4751" d="M211.1103,-156.5961C215.2914,-135.4071 226.1043,-80.6092 232.7911,-46.7221"/>
<polygon fill="#ff0000" stroke="#ff0000" stroke-width="1.4751" points="236.3013,-47.0122 234.8035,-36.5237 229.4337,-45.657 236.3013,-47.0122"/>
</g>
<!-- 2 -->
<g id="node3" class="node">
<title>2</title>
<polygon fill="#d3d3d3" stroke="#000000" points="303.389,-173.8494 283.3771,-173.8494 283.3771,-156.8494 303.389,-156.8494 303.389,-173.8494"/>
<text text-anchor="middle" x="293.383" y="-162.6494" font-family="Times,serif" font-size="9.00" fill="#000000">2</text>
</g>
<!-- 1&#45;&gt;2 -->
<!-- E5 -->
<g id="node9" class="node">
<title>E5</title>
<ellipse fill="#87cefa" stroke="#000000" cx="293.383" cy="-18.383" rx="18.2668" ry="18.2668"/>
<text text-anchor="middle" x="293.383" y="-15.683" font-family="Times,serif" font-size="9.00" fill="#000000">E5</text>
</g>
<!-- 1&#45;&gt;E5 -->
<g id="edge11" class="edge">
<title>1&#45;&gt;E5</title>
<path fill="none" stroke="#ff0000" stroke-width="1.8543" d="M249.2757,-156.7265C251.1646,-140.1212 256.2494,-102.7 266.383,-72.7661 269.7447,-62.8362 274.5693,-52.414 279.2129,-43.3805"/>
<polygon fill="#ff0000" stroke="#ff0000" stroke-width="1.8543" points="282.3053,-45.0198 283.9176,-34.5484 276.1271,-41.7288 282.3053,-45.0198"/>
</g>
<!-- E0 -->
<g id="node4" class="node">
<title>E0</title>
<ellipse fill="#87cefa" stroke="#000000" cx="18.383" cy="-18.383" rx="18.2668" ry="18.2668"/>
<text text-anchor="middle" x="18.383" y="-15.683" font-family="Times,serif" font-size="9.00" fill="#000000">E0</text>
</g>
<!-- 2&#45;&gt;E0 -->
<g id="edge12" class="edge">
<title>2&#45;&gt;E0</title>
<path fill="none" stroke="#ff0000" stroke-width="2.081" d="M283.3048,-160.5579C249.3195,-144.3051 136.0394,-89.3535 46.383,-36.7661 45.0664,-35.9938 43.7253,-35.1866 42.3787,-34.3598"/>
<polygon fill="#ff0000" stroke="#ff0000" stroke-width="2.081" points="43.9271,-31.1966 33.6114,-28.7804 40.1689,-37.1022 43.9271,-31.1966"/>
</g>
<!-- 5252 -->
<g id="node13" class="node">
<title>5252</title>
<ellipse fill="#add8e6" stroke="#000000" cx="365.383" cy="-96.8077" rx="24.0833" ry="24.0833"/>
<text text-anchor="middle" x="365.383" y="-98.6077" font-family="Times,serif" font-size="9.00" fill="#000000">5252</text>
<text text-anchor="middle" x="365.383" y="-89.6077" font-family="Times,serif" font-size="9.00" fill="#000000">sigm</text>
</g>
<!-- 2&#45;&gt;5252 -->
<g id="edge15" class="edge">
<title>2&#45;&gt;5252</title>
<path fill="none" stroke="#00ff00" stroke-width=".6133" d="M302.5019,-156.6685C311.9915,-147.6347 327.2709,-133.0893 340.3915,-120.5988"/>
<polygon fill="#00ff00" stroke="#00ff00" stroke-width=".6133" points="342.9776,-122.9693 347.8073,-113.5393 338.1511,-117.8993 342.9776,-122.9693"/>
</g>
<!-- 5549 -->
<g id="node14" class="node">
<title>5549</title>
<ellipse fill="#add8e6" stroke="#000000" cx="299.383" cy="-96.8077" rx="24.0833" ry="24.0833"/>
<text text-anchor="middle" x="299.383" y="-98.6077" font-family="Times,serif" font-size="9.00" fill="#000000">5549</text>
<text text-anchor="middle" x="299.383" y="-89.6077" font-family="Times,serif" font-size="9.00" fill="#000000">sigm</text>
</g>
<!-- 2&#45;&gt;5549 -->
<g id="edge17" class="edge">
<title>2&#45;&gt;5549</title>
<path fill="none" stroke="#00ff00" stroke-width=".2313" d="M294.143,-156.6685C294.7173,-150.1079 295.546,-140.6404 296.3756,-131.1641"/>
<polygon fill="#00ff00" stroke="#00ff00" stroke-width=".2313" points="299.8785,-131.2823 297.264,-121.0151 292.9052,-130.6718 299.8785,-131.2823"/>
</g>
<!-- E1 -->
<g id="node5" class="node">
<title>E1</title>
<ellipse fill="#87cefa" stroke="#000000" cx="73.383" cy="-18.383" rx="18.2668" ry="18.2668"/>
<text text-anchor="middle" x="73.383" y="-15.683" font-family="Times,serif" font-size="9.00" fill="#000000">E1</text>
</g>
<!-- E0&#45;&gt;E1 -->
<!-- E2 -->
<g id="node6" class="node">
<title>E2</title>
<ellipse fill="#87cefa" stroke="#000000" cx="128.383" cy="-18.383" rx="18.2668" ry="18.2668"/>
<text text-anchor="middle" x="128.383" y="-15.683" font-family="Times,serif" font-size="9.00" fill="#000000">E2</text>
</g>
<!-- E1&#45;&gt;E2 -->
<!-- E3 -->
<g id="node7" class="node">
<title>E3</title>
<ellipse fill="#87cefa" stroke="#000000" cx="183.383" cy="-18.383" rx="18.2668" ry="18.2668"/>
<text text-anchor="middle" x="183.383" y="-15.683" font-family="Times,serif" font-size="9.00" fill="#000000">E3</text>
</g>
<!-- E2&#45;&gt;E3 -->
<!-- E3&#45;&gt;E4 -->
<!-- E4&#45;&gt;E5 -->
<!-- E6 -->
<g id="node10" class="node">
<title>E6</title>
<ellipse fill="#87cefa" stroke="#000000" cx="348.383" cy="-18.383" rx="18.2668" ry="18.2668"/>
<text text-anchor="middle" x="348.383" y="-15.683" font-family="Times,serif" font-size="9.00" fill="#000000">E6</text>
</g>
<!-- E5&#45;&gt;E6 -->
<!-- E7 -->
<g id="node11" class="node">
<title>E7</title>
<ellipse fill="#87cefa" stroke="#000000" cx="403.383" cy="-18.383" rx="18.2668" ry="18.2668"/>
<text text-anchor="middle" x="403.383" y="-15.683" font-family="Times,serif" font-size="9.00" fill="#000000">E7</text>
</g>
<!-- E6&#45;&gt;E7 -->
<!-- E8 -->
<g id="node12" class="node">
<title>E8</title>
<ellipse fill="#87cefa" stroke="#000000" cx="458.383" cy="-18.383" rx="18.2668" ry="18.2668"/>
<text text-anchor="middle" x="458.383" y="-15.683" font-family="Times,serif" font-size="9.00" fill="#000000">E8</text>
</g>
<!-- E7&#45;&gt;E8 -->
<!-- 5252&#45;&gt;E7 -->
<g id="edge14" class="edge">
<title>5252&#45;&gt;E7</title>
<path fill="none" stroke="#ff0000" stroke-width=".1159" d="M375.9682,-74.9621C380.5947,-65.4139 386.0554,-54.144 390.8805,-44.186"/>
<polygon fill="#ff0000" stroke="#ff0000" stroke-width=".1159" points="394.0531,-45.6649 395.2639,-35.1395 387.7536,-42.6125 394.0531,-45.6649"/>
</g>
<!-- 5549&#45;&gt;E3 -->
<g id="edge18" class="edge">
<title>5549&#45;&gt;E3</title>
<path fill="none" stroke="#00ff00" stroke-width=".8605" d="M279.4419,-83.326C259.3771,-69.7607 228.4322,-48.8397 207.1155,-34.428"/>
<polygon fill="#00ff00" stroke="#00ff00" stroke-width=".8605" points="208.8737,-31.3919 198.6291,-28.6905 204.9531,-37.1909 208.8737,-31.3919"/>
</g>
<!-- 5392 -->
<g id="node15" class="node">
<title>5392</title>
<ellipse fill="#add8e6" stroke="#000000" cx="431.383" cy="-96.8077" rx="24.0833" ry="24.0833"/>
<text text-anchor="middle" x="431.383" y="-98.6077" font-family="Times,serif" font-size="9.00" fill="#000000">5392</text>
<text text-anchor="middle" x="431.383" y="-89.6077" font-family="Times,serif" font-size="9.00" fill="#000000">sigm</text>
</g>
<!-- 5392&#45;&gt;E7 -->
<g id="edge16" class="edge">
<title>5392&#45;&gt;E7</title>
<path fill="none" stroke="#00ff00" stroke-width=".5049" d="M423.2843,-74.1241C420.0818,-65.1542 416.375,-54.772 413.0349,-45.4166"/>
<polygon fill="#00ff00" stroke="#00ff00" stroke-width=".5049" points="416.2542,-44.0244 409.5955,-35.7835 409.6618,-46.3781 416.2542,-44.0244"/>
</g>
</g>
</svg>
