<?xml version="1.0" encoding="utf-8" standalone="no"?>
<!DOCTYPE svg PUBLIC "-//W3C//DTD SVG 1.1//EN"
  "http://www.w3.org/Graphics/SVG/1.1/DTD/svg11.dtd">
<!-- Created with matplotlib (https://matplotlib.org/) -->
<svg height="345.6pt" version="1.1" viewBox="0 0 460.8 345.6" width="460.8pt" xmlns="http://www.w3.org/2000/svg" xmlns:xlink="http://www.w3.org/1999/xlink">
 <defs>
  <style type="text/css">
*{stroke-linecap:butt;stroke-linejoin:round;}
  </style>
 </defs>
 <g id="figure_1">
  <g id="patch_1">
   <path d="M 0 345.6 
L 460.8 345.6 
L 460.8 0 
L 0 0 
z
" style="fill:#ffffff;"/>
  </g>
  <g id="axes_1">
   <g id="patch_2">
    <path d="M 57.6 307.584 
L 414.72 307.584 
L 414.72 41.472 
L 57.6 41.472 
z
" style="fill:#ffffff;"/>
   </g>
   <g id="PolyCollection_1">
    <path clip-path="url(#p0916c3bae2)" d="M 73.832727 192.346167 
L 73.832727 206.029795 
L 74.918528 204.476862 
L 76.00433 203.434743 
L 77.090131 203.670917 
L 78.175932 213.601756 
L 79.261733 210.927197 
L 80.347534 205.119959 
L 81.433335 218.627743 
L 82.519137 211.438128 
L 83.604938 200.50745 
L 84.690739 193.870515 
L 85.77654 187.327345 
L 86.862341 185.317205 
L 87.948142 178.806833 
L 89.033943 187.458636 
L 90.119745 151.178941 
L 91.205546 158.92613 
L 92.291347 174.280641 
L 93.377148 174.721797 
L 94.462949 149.193617 
L 95.54875 177.734576 
L 96.634552 168.22659 
L 97.720353 169.235051 
L 98.806154 178.412594 
L 99.891955 183.361626 
L 100.977756 170.178226 
L 102.063557 155.122795 
L 103.149358 177.604692 
L 104.23516 153.517992 
L 105.320961 147.762553 
L 106.406762 153.838865 
L 107.492563 157.644335 
L 108.578364 166.204295 
L 109.664165 145.242545 
L 110.749967 148.205178 
L 111.835768 164.68426 
L 112.921569 142.026207 
L 114.00737 157.357318 
L 115.093171 150.960366 
L 116.178972 161.434517 
L 117.264773 164.322403 
L 118.350575 151.327012 
L 119.436376 147.434418 
L 120.522177 163.266304 
L 121.607978 164.213831 
L 122.693779 141.51986 
L 123.77958 156.775644 
L 124.865382 163.072486 
L 125.951183 156.165518 
L 127.036984 137.915068 
L 128.122785 139.762436 
L 129.208586 164.830117 
L 130.294387 177.66962 
L 131.380189 154.178952 
L 132.46599 164.95371 
L 133.551791 144.328139 
L 134.637592 154.517917 
L 135.723393 174.135462 
L 136.809194 167.245336 
L 137.894995 156.188554 
L 138.980797 148.316949 
L 140.066598 139.954692 
L 141.152399 143.448768 
L 142.2382 157.033319 
L 143.324001 156.707125 
L 144.409802 149.415841 
L 145.495604 147.466362 
L 146.581405 138.047949 
L 147.667206 120.050148 
L 148.753007 148.611355 
L 149.838808 134.931848 
L 150.924609 137.683084 
L 152.01041 136.171176 
L 153.096212 136.146924 
L 154.182013 145.84382 
L 155.267814 133.646519 
L 156.353615 144.348782 
L 157.439416 149.799026 
L 158.525217 120.438762 
L 159.611019 140.91862 
L 160.69682 126.445058 
L 161.782621 137.087302 
L 162.868422 160.658762 
L 163.954223 160.92197 
L 165.040024 181.439829 
L 166.125825 157.39368 
L 167.211627 165.521486 
L 168.297428 148.329915 
L 169.383229 165.379211 
L 170.46903 163.562993 
L 171.554831 150.564106 
L 172.640632 157.915011 
L 173.726434 160.14194 
L 174.812235 164.096487 
L 175.898036 169.710263 
L 176.983837 139.082401 
L 178.069638 134.524319 
L 179.155439 124.135527 
L 180.24124 146.775662 
L 181.327042 147.772629 
L 182.412843 159.708095 
L 183.498644 149.887111 
L 184.584445 148.061583 
L 185.670246 145.328445 
L 186.756047 151.026078 
L 187.841849 148.991874 
L 188.92765 136.757087 
L 190.013451 134.296671 
L 191.099252 163.757042 
L 192.185053 152.441766 
L 193.270854 154.831351 
L 194.356656 151.963881 
L 195.442457 142.098925 
L 196.528258 147.901314 
L 197.614059 151.935398 
L 198.69986 160.912178 
L 199.785661 142.571898 
L 200.871462 165.516085 
L 201.957264 158.892144 
L 203.043065 156.550957 
L 204.128866 153.204114 
L 205.214667 161.604308 
L 206.300468 145.160438 
L 207.386269 168.839313 
L 208.472071 129.649093 
L 209.557872 140.18031 
L 210.643673 149.471003 
L 211.729474 132.979376 
L 212.815275 149.437928 
L 213.901076 162.467071 
L 214.986877 150.966001 
L 216.072679 142.720586 
L 217.15848 153.262414 
L 218.244281 154.959183 
L 219.330082 168.84906 
L 220.415883 149.658963 
L 221.501684 131.316948 
L 222.587486 141.938683 
L 223.673287 133.060125 
L 224.759088 146.283026 
L 225.844889 143.840284 
L 226.93069 159.918296 
L 228.016491 140.377375 
L 229.102292 154.771006 
L 230.188094 138.459219 
L 231.273895 159.709854 
L 232.359696 163.436554 
L 233.445497 178.478043 
L 234.531298 154.061537 
L 235.617099 165.017559 
L 236.702901 158.68061 
L 237.788702 156.720803 
L 238.874503 153.005544 
L 239.960304 148.276032 
L 241.046105 163.123831 
L 242.131906 142.527707 
L 243.217708 150.036528 
L 244.303509 145.635244 
L 245.38931 148.855702 
L 246.475111 133.00321 
L 247.560912 164.580735 
L 248.646713 132.370552 
L 249.732514 146.598632 
L 250.818316 139.791294 
L 251.904117 137.42617 
L 252.989918 158.464782 
L 254.075719 132.599819 
L 255.16152 131.072892 
L 256.247321 127.885692 
L 257.333123 145.781439 
L 258.418924 169.667605 
L 259.504725 156.759912 
L 260.590526 119.98263 
L 261.676327 171.163917 
L 262.762128 144.810779 
L 263.847929 159.148566 
L 264.933731 144.114391 
L 266.019532 155.832652 
L 267.105333 147.662105 
L 268.191134 163.382743 
L 269.276935 168.194678 
L 270.362736 151.923419 
L 271.448538 163.008043 
L 272.534339 180.569142 
L 273.62014 155.876105 
L 274.705941 138.321678 
L 275.791742 142.550112 
L 276.877543 188.827909 
L 277.963344 178.789958 
L 279.049146 168.75616 
L 280.134947 179.8232 
L 281.220748 164.837773 
L 282.306549 166.580604 
L 283.39235 150.662174 
L 284.478151 129.044307 
L 285.563953 151.864583 
L 286.649754 162.234635 
L 287.735555 159.575399 
L 288.821356 156.73227 
L 289.907157 157.781357 
L 290.992958 149.504843 
L 292.07876 145.162421 
L 293.164561 153.555306 
L 294.250362 135.513008 
L 295.336163 162.854792 
L 296.421964 161.997188 
L 297.507765 144.867224 
L 298.593566 154.852177 
L 299.679368 140.778702 
L 300.765169 135.398937 
L 301.85097 152.449724 
L 302.936771 152.799322 
L 304.022572 147.202515 
L 305.108373 159.951499 
L 306.194175 149.264822 
L 307.279976 149.760091 
L 308.365777 149.100163 
L 309.451578 148.127058 
L 310.537379 137.37458 
L 311.62318 164.881957 
L 312.708981 158.570126 
L 313.794783 139.50499 
L 314.880584 163.744917 
L 315.966385 147.252945 
L 317.052186 144.758577 
L 318.137987 154.992355 
L 319.223788 147.817994 
L 320.30959 145.519249 
L 321.395391 146.463382 
L 322.481192 162.235327 
L 323.566993 152.557337 
L 324.652794 154.112642 
L 325.738595 153.105878 
L 326.824396 146.810858 
L 327.910198 149.049587 
L 328.995999 133.126709 
L 330.0818 155.392141 
L 331.167601 159.042113 
L 332.253402 134.168493 
L 333.339203 140.900052 
L 334.425005 144.391661 
L 335.510806 146.748728 
L 336.596607 135.976656 
L 337.682408 149.302089 
L 338.768209 147.380273 
L 339.85401 126.286436 
L 340.939811 149.71899 
L 342.025613 137.278664 
L 343.111414 163.581523 
L 344.197215 147.930449 
L 345.283016 137.248743 
L 346.368817 143.169136 
L 347.454618 141.672933 
L 348.54042 147.552406 
L 349.626221 146.181995 
L 350.712022 138.273207 
L 351.797823 135.903892 
L 352.883624 128.869189 
L 353.969425 141.661612 
L 355.055227 147.044844 
L 356.141028 137.113845 
L 357.226829 143.238234 
L 358.31263 120.603981 
L 359.398431 140.374161 
L 360.484232 126.250934 
L 361.570033 148.197486 
L 362.655835 146.856686 
L 363.741636 132.303194 
L 364.827437 163.239798 
L 365.913238 157.134628 
L 366.999039 149.801465 
L 368.08484 111.420104 
L 369.170642 135.523433 
L 370.256443 143.021855 
L 371.342244 138.832436 
L 372.428045 119.928815 
L 373.513846 141.025855 
L 374.599647 146.207077 
L 375.685448 152.953541 
L 376.77125 152.182703 
L 377.857051 140.253018 
L 378.942852 141.710365 
L 380.028653 138.960754 
L 381.114454 129.371059 
L 382.200255 119.382915 
L 383.286057 117.524487 
L 384.371858 127.816634 
L 385.457659 144.017407 
L 386.54346 139.771339 
L 387.629261 134.226797 
L 388.715062 151.610536 
L 389.800863 140.627958 
L 390.886665 139.590855 
L 391.972466 135.8238 
L 393.058267 153.197843 
L 394.144068 139.162608 
L 395.229869 136.403056 
L 396.31567 144.986699 
L 397.401472 162.778155 
L 398.487273 150.665884 
L 398.487273 77.477828 
L 398.487273 77.477828 
L 397.401472 77.162077 
L 396.31567 71.990691 
L 395.229869 68.354399 
L 394.144068 77.85417 
L 393.058267 76.870058 
L 391.972466 75.609817 
L 390.886665 72.134884 
L 389.800863 70.340847 
L 388.715062 87.866894 
L 387.629261 63.519705 
L 386.54346 67.831453 
L 385.457659 70.252101 
L 384.371858 67.806618 
L 383.286057 68.69136 
L 382.200255 62.985712 
L 381.114454 65.511217 
L 380.028653 66.099944 
L 378.942852 69.408152 
L 377.857051 67.074464 
L 376.77125 80.923818 
L 375.685448 66.229543 
L 374.599647 68.111665 
L 373.513846 65.300368 
L 372.428045 74.181472 
L 371.342244 64.734721 
L 370.256443 69.10671 
L 369.170642 71.045146 
L 368.08484 71.201645 
L 366.999039 74.411864 
L 365.913238 71.604271 
L 364.827437 73.391894 
L 363.741636 70.942234 
L 362.655835 75.347489 
L 361.570033 70.910137 
L 360.484232 64.900868 
L 359.398431 71.66996 
L 358.31263 69.908795 
L 357.226829 73.72931 
L 356.141028 71.67276 
L 355.055227 68.932942 
L 353.969425 65.360618 
L 352.883624 67.424953 
L 351.797823 80.503161 
L 350.712022 69.144944 
L 349.626221 72.477158 
L 348.54042 66.658021 
L 347.454618 67.840549 
L 346.368817 70.145228 
L 345.283016 65.765821 
L 344.197215 71.065545 
L 343.111414 65.034837 
L 342.025613 68.88689 
L 340.939811 68.558183 
L 339.85401 66.802509 
L 338.768209 62.37938 
L 337.682408 63.55932 
L 336.596607 63.089324 
L 335.510806 71.292121 
L 334.425005 66.21482 
L 333.339203 71.665952 
L 332.253402 70.313251 
L 331.167601 72.203355 
L 330.0818 85.916802 
L 328.995999 68.548684 
L 327.910198 65.013137 
L 326.824396 78.802215 
L 325.738595 72.930609 
L 324.652794 83.966536 
L 323.566993 69.727503 
L 322.481192 78.010157 
L 321.395391 68.357549 
L 320.30959 65.638656 
L 319.223788 76.298358 
L 318.137987 68.690736 
L 317.052186 72.858858 
L 315.966385 66.977176 
L 314.880584 72.030099 
L 313.794783 70.579609 
L 312.708981 68.460893 
L 311.62318 65.940097 
L 310.537379 67.96384 
L 309.451578 79.081204 
L 308.365777 64.105886 
L 307.279976 72.258883 
L 306.194175 68.677559 
L 305.108373 70.988717 
L 304.022572 69.627172 
L 302.936771 69.44613 
L 301.85097 62.942324 
L 300.765169 72.75568 
L 299.679368 73.461265 
L 298.593566 73.862651 
L 297.507765 68.378212 
L 296.421964 72.763604 
L 295.336163 69.601838 
L 294.250362 70.67224 
L 293.164561 75.336766 
L 292.07876 69.432032 
L 290.992958 70.111501 
L 289.907157 76.132606 
L 288.821356 60.284508 
L 287.735555 62.473116 
L 286.649754 66.677131 
L 285.563953 73.96512 
L 284.478151 74.689077 
L 283.39235 87.968427 
L 282.306549 99.365144 
L 281.220748 98.084994 
L 280.134947 105.816238 
L 279.049146 101.642799 
L 277.963344 96.175501 
L 276.877543 77.289214 
L 275.791742 73.564461 
L 274.705941 57.544077 
L 273.62014 71.079746 
L 272.534339 72.250762 
L 271.448538 62.894878 
L 270.362736 70.745447 
L 269.276935 64.900704 
L 268.191134 67.024378 
L 267.105333 61.762755 
L 266.019532 73.004824 
L 264.933731 71.112991 
L 263.847929 83.519242 
L 262.762128 73.633691 
L 261.676327 72.734746 
L 260.590526 67.220487 
L 259.504725 73.878731 
L 258.418924 69.691663 
L 257.333123 75.334551 
L 256.247321 69.368469 
L 255.16152 72.739266 
L 254.075719 68.504457 
L 252.989918 89.500628 
L 251.904117 70.403501 
L 250.818316 73.089809 
L 249.732514 67.867813 
L 248.646713 66.695428 
L 247.560912 70.219444 
L 246.475111 56.974132 
L 245.38931 58.678564 
L 244.303509 68.072994 
L 243.217708 82.105003 
L 242.131906 68.699126 
L 241.046105 53.568 
L 239.960304 66.308575 
L 238.874503 66.344936 
L 237.788702 64.825522 
L 236.702901 89.590053 
L 235.617099 80.515681 
L 234.531298 68.272537 
L 233.445497 75.740114 
L 232.359696 71.956425 
L 231.273895 67.994629 
L 230.188094 59.565482 
L 229.102292 67.484293 
L 228.016491 66.546387 
L 226.93069 64.995651 
L 225.844889 61.714766 
L 224.759088 57.076178 
L 223.673287 58.335162 
L 222.587486 63.439124 
L 221.501684 60.058646 
L 220.415883 66.432211 
L 219.330082 70.047406 
L 218.244281 63.82018 
L 217.15848 57.344067 
L 216.072679 58.846492 
L 214.986877 59.167831 
L 213.901076 62.289326 
L 212.815275 66.298759 
L 211.729474 69.089891 
L 210.643673 72.83353 
L 209.557872 73.754405 
L 208.472071 70.332643 
L 207.386269 79.953232 
L 206.300468 63.161576 
L 205.214667 80.196977 
L 204.128866 91.147505 
L 203.043065 73.099322 
L 201.957264 63.412389 
L 200.871462 73.912111 
L 199.785661 63.288404 
L 198.69986 74.596973 
L 197.614059 80.097818 
L 196.528258 70.021373 
L 195.442457 62.688072 
L 194.356656 72.319867 
L 193.270854 64.696372 
L 192.185053 75.623171 
L 191.099252 91.495034 
L 190.013451 64.336048 
L 188.92765 72.67762 
L 187.841849 64.391417 
L 186.756047 71.081518 
L 185.670246 54.062481 
L 184.584445 77.965057 
L 183.498644 71.718296 
L 182.412843 63.590969 
L 181.327042 69.096446 
L 180.24124 58.730154 
L 179.155439 57.255366 
L 178.069638 80.641251 
L 176.983837 80.898276 
L 175.898036 79.466309 
L 174.812235 71.324043 
L 173.726434 79.650589 
L 172.640632 82.724347 
L 171.554831 87.416604 
L 170.46903 92.082956 
L 169.383229 74.433011 
L 168.297428 85.958228 
L 167.211627 85.506293 
L 166.125825 69.322239 
L 165.040024 68.908518 
L 163.954223 65.203139 
L 162.868422 62.581221 
L 161.782621 71.224865 
L 160.69682 76.067317 
L 159.611019 70.997492 
L 158.525217 69.00685 
L 157.439416 69.856706 
L 156.353615 64.367105 
L 155.267814 65.990578 
L 154.182013 63.108392 
L 153.096212 63.618181 
L 152.01041 73.086288 
L 150.924609 65.213318 
L 149.838808 67.157113 
L 148.753007 63.777405 
L 147.667206 66.077077 
L 146.581405 63.144949 
L 145.495604 66.10402 
L 144.409802 73.499197 
L 143.324001 70.629145 
L 142.2382 76.211058 
L 141.152399 75.675234 
L 140.066598 67.618961 
L 138.980797 64.583847 
L 137.894995 73.934374 
L 136.809194 75.156607 
L 135.723393 69.822282 
L 134.637592 76.205668 
L 133.551791 74.077044 
L 132.46599 79.407755 
L 131.380189 68.529302 
L 130.294387 88.310303 
L 129.208586 64.455828 
L 128.122785 71.982611 
L 127.036984 78.658601 
L 125.951183 73.583809 
L 124.865382 65.849127 
L 123.77958 75.631752 
L 122.693779 69.237941 
L 121.607978 75.980874 
L 120.522177 72.331469 
L 119.436376 68.206614 
L 118.350575 70.051917 
L 117.264773 65.365455 
L 116.178972 68.402852 
L 115.093171 62.450055 
L 114.00737 72.834538 
L 112.921569 65.898114 
L 111.835768 67.408037 
L 110.749967 61.055501 
L 109.664165 57.210749 
L 108.578364 55.966823 
L 107.492563 71.188656 
L 106.406762 68.312946 
L 105.320961 73.35453 
L 104.23516 64.243127 
L 103.149358 74.516087 
L 102.063557 78.426834 
L 100.977756 79.136202 
L 99.891955 76.341223 
L 98.806154 86.872257 
L 97.720353 69.917433 
L 96.634552 88.649828 
L 95.54875 94.742334 
L 94.462949 75.952635 
L 93.377148 91.607979 
L 92.291347 91.834434 
L 91.205546 72.95668 
L 90.119745 67.039152 
L 89.033943 89.426957 
L 87.948142 101.542036 
L 86.862341 115.693158 
L 85.77654 110.233406 
L 84.690739 131.229091 
L 83.604938 116.444954 
L 82.519137 141.094142 
L 81.433335 165.786198 
L 80.347534 165.005406 
L 79.261733 166.987023 
L 78.175932 175.084912 
L 77.090131 186.13829 
L 76.00433 191.327428 
L 74.918528 185.864075 
L 73.832727 192.346167 
z
" style="fill:#0000ff;fill-opacity:0.5;"/>
   </g>
   <g id="PolyCollection_2">
    <path clip-path="url(#p0916c3bae2)" d="M 73.832727 192.619248 
L 73.832727 204.678753 
L 74.918528 199.831279 
L 76.00433 200.665122 
L 77.090131 200.38899 
L 78.175932 198.770094 
L 79.261733 200.221973 
L 80.347534 197.805767 
L 81.433335 201.823673 
L 82.519137 198.552984 
L 83.604938 201.166033 
L 84.690739 203.403078 
L 85.77654 197.42943 
L 86.862341 198.396216 
L 87.948142 202.01688 
L 89.033943 200.252511 
L 90.119745 199.371766 
L 91.205546 199.404829 
L 92.291347 198.53072 
L 93.377148 193.792813 
L 94.462949 199.461629 
L 95.54875 195.618777 
L 96.634552 194.118848 
L 97.720353 189.786688 
L 98.806154 197.484853 
L 99.891955 194.802271 
L 100.977756 189.017248 
L 102.063557 185.304687 
L 103.149358 186.627419 
L 104.23516 186.544002 
L 105.320961 188.523821 
L 106.406762 185.108925 
L 107.492563 181.225995 
L 108.578364 182.670971 
L 109.664165 179.632962 
L 110.749967 182.469999 
L 111.835768 188.133021 
L 112.921569 182.490729 
L 114.00737 184.762899 
L 115.093171 189.874516 
L 116.178972 191.918292 
L 117.264773 189.079416 
L 118.350575 183.59627 
L 119.436376 185.248445 
L 120.522177 193.397704 
L 121.607978 182.29682 
L 122.693779 184.265466 
L 123.77958 180.931773 
L 124.865382 185.828226 
L 125.951183 182.205404 
L 127.036984 190.903149 
L 128.122785 184.471284 
L 129.208586 183.648903 
L 130.294387 182.757859 
L 131.380189 181.435177 
L 132.46599 187.005365 
L 133.551791 183.021962 
L 134.637592 174.68914 
L 135.723393 179.363326 
L 136.809194 177.980669 
L 137.894995 182.645732 
L 138.980797 186.005294 
L 140.066598 183.089796 
L 141.152399 181.134753 
L 142.2382 177.783251 
L 143.324001 174.558602 
L 144.409802 171.77445 
L 145.495604 184.081682 
L 146.581405 176.895873 
L 147.667206 174.907993 
L 148.753007 172.399719 
L 149.838808 164.28589 
L 150.924609 167.074283 
L 152.01041 171.190307 
L 153.096212 168.567048 
L 154.182013 165.982707 
L 155.267814 162.711626 
L 156.353615 171.682281 
L 157.439416 167.49666 
L 158.525217 163.694791 
L 159.611019 174.618731 
L 160.69682 176.897288 
L 161.782621 170.281443 
L 162.868422 161.817557 
L 163.954223 166.378175 
L 165.040024 174.22219 
L 166.125825 169.849911 
L 167.211627 166.417907 
L 168.297428 171.803232 
L 169.383229 165.48432 
L 170.46903 167.407837 
L 171.554831 165.338102 
L 172.640632 166.828802 
L 173.726434 168.128756 
L 174.812235 162.784198 
L 175.898036 167.586533 
L 176.983837 169.564665 
L 178.069638 171.271854 
L 179.155439 161.420572 
L 180.24124 158.772313 
L 181.327042 159.844302 
L 182.412843 164.59627 
L 183.498644 162.123744 
L 184.584445 164.445904 
L 185.670246 162.662338 
L 186.756047 157.361977 
L 187.841849 166.837913 
L 188.92765 169.652316 
L 190.013451 161.283477 
L 191.099252 165.952627 
L 192.185053 158.56503 
L 193.270854 163.968744 
L 194.356656 161.240498 
L 195.442457 163.990134 
L 196.528258 159.170419 
L 197.614059 167.474139 
L 198.69986 165.236116 
L 199.785661 162.229975 
L 200.871462 153.73922 
L 201.957264 159.618452 
L 203.043065 159.603385 
L 204.128866 155.365739 
L 205.214667 166.496811 
L 206.300468 168.838972 
L 207.386269 172.016638 
L 208.472071 162.019852 
L 209.557872 163.673545 
L 210.643673 170.681861 
L 211.729474 174.767792 
L 212.815275 163.361466 
L 213.901076 151.710376 
L 214.986877 159.395628 
L 216.072679 153.767453 
L 217.15848 162.61829 
L 218.244281 159.626474 
L 219.330082 165.128192 
L 220.415883 166.381702 
L 221.501684 163.847846 
L 222.587486 172.626841 
L 223.673287 168.209909 
L 224.759088 165.867363 
L 225.844889 167.407796 
L 226.93069 166.94975 
L 228.016491 168.632556 
L 229.102292 169.062644 
L 230.188094 167.023264 
L 231.273895 172.103845 
L 232.359696 164.199784 
L 233.445497 171.992016 
L 234.531298 163.159478 
L 235.617099 166.715221 
L 236.702901 159.489321 
L 237.788702 164.536384 
L 238.874503 165.107122 
L 239.960304 170.55558 
L 241.046105 168.832857 
L 242.131906 169.514243 
L 243.217708 163.920201 
L 244.303509 171.046758 
L 245.38931 163.209447 
L 246.475111 161.275412 
L 247.560912 170.935005 
L 248.646713 167.737135 
L 249.732514 169.205862 
L 250.818316 158.792584 
L 251.904117 166.943008 
L 252.989918 159.895339 
L 254.075719 170.029149 
L 255.16152 166.962448 
L 256.247321 164.233471 
L 257.333123 171.286771 
L 258.418924 162.916817 
L 259.504725 162.134713 
L 260.590526 166.838229 
L 261.676327 160.461143 
L 262.762128 169.023314 
L 263.847929 163.387694 
L 264.933731 170.624251 
L 266.019532 164.82555 
L 267.105333 161.150521 
L 268.191134 164.018051 
L 269.276935 164.574854 
L 270.362736 162.102862 
L 271.448538 158.08913 
L 272.534339 162.054077 
L 273.62014 166.25903 
L 274.705941 167.369107 
L 275.791742 171.878217 
L 276.877543 164.796375 
L 277.963344 154.6046 
L 279.049146 160.907533 
L 280.134947 160.670776 
L 281.220748 162.56693 
L 282.306549 164.397348 
L 283.39235 155.024985 
L 284.478151 168.236623 
L 285.563953 160.738632 
L 286.649754 162.585587 
L 287.735555 166.899318 
L 288.821356 166.920749 
L 289.907157 156.022682 
L 290.992958 164.625844 
L 292.07876 160.397259 
L 293.164561 162.126853 
L 294.250362 163.974971 
L 295.336163 152.846995 
L 296.421964 163.605169 
L 297.507765 159.292698 
L 298.593566 154.714047 
L 299.679368 152.629823 
L 300.765169 152.820957 
L 301.85097 162.213175 
L 302.936771 156.105198 
L 304.022572 154.391343 
L 305.108373 167.757694 
L 306.194175 156.265235 
L 307.279976 152.293295 
L 308.365777 151.261399 
L 309.451578 157.937892 
L 310.537379 158.045652 
L 311.62318 150.291086 
L 312.708981 149.659842 
L 313.794783 155.723055 
L 314.880584 151.470571 
L 315.966385 161.359827 
L 317.052186 148.522996 
L 318.137987 155.184717 
L 319.223788 153.069932 
L 320.30959 161.804833 
L 321.395391 158.302327 
L 322.481192 147.253002 
L 323.566993 145.341468 
L 324.652794 151.934481 
L 325.738595 145.373363 
L 326.824396 134.48083 
L 327.910198 145.894594 
L 328.995999 145.80169 
L 330.0818 140.345759 
L 331.167601 134.64892 
L 332.253402 134.437648 
L 333.339203 136.856213 
L 334.425005 148.099467 
L 335.510806 128.519992 
L 336.596607 141.181614 
L 337.682408 138.486002 
L 338.768209 132.976304 
L 339.85401 135.706394 
L 340.939811 136.522862 
L 342.025613 137.658541 
L 343.111414 138.958611 
L 344.197215 145.316076 
L 345.283016 141.507883 
L 346.368817 148.672226 
L 347.454618 144.529349 
L 348.54042 133.847799 
L 349.626221 141.778108 
L 350.712022 150.171267 
L 351.797823 142.733805 
L 352.883624 142.804728 
L 353.969425 136.64744 
L 355.055227 147.847905 
L 356.141028 135.417255 
L 357.226829 127.295593 
L 358.31263 136.716943 
L 359.398431 155.462991 
L 360.484232 144.956802 
L 361.570033 148.453642 
L 362.655835 148.278446 
L 363.741636 153.892118 
L 364.827437 147.989217 
L 365.913238 140.946984 
L 366.999039 148.213716 
L 368.08484 148.449263 
L 369.170642 141.786604 
L 370.256443 146.980322 
L 371.342244 144.438005 
L 372.428045 132.601091 
L 373.513846 133.754013 
L 374.599647 147.719635 
L 375.685448 134.840131 
L 376.77125 146.045575 
L 377.857051 149.345636 
L 378.942852 152.367105 
L 380.028653 156.765894 
L 381.114454 161.449155 
L 382.200255 162.324896 
L 383.286057 155.828622 
L 384.371858 158.722089 
L 385.457659 169.946803 
L 386.54346 159.378651 
L 387.629261 152.101757 
L 388.715062 163.131497 
L 389.800863 151.021926 
L 390.886665 148.381378 
L 391.972466 152.327856 
L 393.058267 149.675482 
L 394.144068 161.19652 
L 395.229869 145.266742 
L 396.31567 146.113692 
L 397.401472 151.986805 
L 398.487273 142.538944 
L 398.487273 102.070814 
L 398.487273 102.070814 
L 397.401472 111.031484 
L 396.31567 106.459867 
L 395.229869 103.4669 
L 394.144068 104.195297 
L 393.058267 99.400797 
L 391.972466 100.477724 
L 390.886665 96.994871 
L 389.800863 106.146741 
L 388.715062 105.640723 
L 387.629261 103.255466 
L 386.54346 108.492224 
L 385.457659 102.104352 
L 384.371858 103.367066 
L 383.286057 101.393248 
L 382.200255 104.736913 
L 381.114454 93.226918 
L 380.028653 92.244046 
L 378.942852 102.02909 
L 377.857051 98.616818 
L 376.77125 101.48757 
L 375.685448 100.93797 
L 374.599647 96.740803 
L 373.513846 92.228971 
L 372.428045 92.414002 
L 371.342244 94.819681 
L 370.256443 101.558335 
L 369.170642 98.938171 
L 368.08484 111.23592 
L 366.999039 104.935952 
L 365.913238 102.485078 
L 364.827437 108.584061 
L 363.741636 99.649611 
L 362.655835 99.276033 
L 361.570033 104.454488 
L 360.484232 98.069373 
L 359.398431 106.739691 
L 358.31263 94.34986 
L 357.226829 80.737784 
L 356.141028 95.690811 
L 355.055227 109.545561 
L 353.969425 108.533387 
L 352.883624 108.254942 
L 351.797823 106.207436 
L 350.712022 100.446928 
L 349.626221 103.458037 
L 348.54042 97.335401 
L 347.454618 101.440694 
L 346.368817 105.062052 
L 345.283016 98.035706 
L 344.197215 104.925292 
L 343.111414 94.399963 
L 342.025613 92.256765 
L 340.939811 103.168244 
L 339.85401 95.58045 
L 338.768209 96.229232 
L 337.682408 98.625819 
L 336.596607 97.188573 
L 335.510806 97.752607 
L 334.425005 107.642189 
L 333.339203 95.111292 
L 332.253402 96.97387 
L 331.167601 89.796965 
L 330.0818 98.835097 
L 328.995999 103.473458 
L 327.910198 100.493213 
L 326.824396 99.027133 
L 325.738595 102.525811 
L 324.652794 115.203467 
L 323.566993 102.740285 
L 322.481192 112.094977 
L 321.395391 126.540921 
L 320.30959 133.015832 
L 319.223788 120.115413 
L 318.137987 124.244657 
L 317.052186 120.955036 
L 315.966385 130.416634 
L 314.880584 128.753062 
L 313.794783 120.29066 
L 312.708981 111.260871 
L 311.62318 122.380566 
L 310.537379 120.410075 
L 309.451578 121.602393 
L 308.365777 116.296617 
L 307.279976 112.817822 
L 306.194175 114.150975 
L 305.108373 122.183468 
L 304.022572 116.454384 
L 302.936771 120.646317 
L 301.85097 126.330352 
L 300.765169 119.403337 
L 299.679368 116.40142 
L 298.593566 122.635951 
L 297.507765 126.734776 
L 296.421964 117.912127 
L 295.336163 123.236332 
L 294.250362 115.495844 
L 293.164561 131.788651 
L 292.07876 125.036386 
L 290.992958 123.833729 
L 289.907157 122.228415 
L 288.821356 131.837349 
L 287.735555 136.956685 
L 286.649754 115.533839 
L 285.563953 123.216662 
L 284.478151 128.702336 
L 283.39235 127.881786 
L 282.306549 121.787991 
L 281.220748 130.264517 
L 280.134947 126.778249 
L 279.049146 122.155394 
L 277.963344 118.85972 
L 276.877543 134.370512 
L 275.791742 134.091913 
L 274.705941 127.951996 
L 273.62014 135.293543 
L 272.534339 125.354165 
L 271.448538 131.763972 
L 270.362736 125.526238 
L 269.276935 124.268318 
L 268.191134 121.284373 
L 267.105333 120.280159 
L 266.019532 128.472579 
L 264.933731 129.125779 
L 263.847929 129.218352 
L 262.762128 123.426081 
L 261.676327 126.440201 
L 260.590526 122.504095 
L 259.504725 134.634848 
L 258.418924 134.44975 
L 257.333123 126.264035 
L 256.247321 134.374747 
L 255.16152 130.900187 
L 254.075719 129.789658 
L 252.989918 126.263749 
L 251.904117 121.950048 
L 250.818316 126.325129 
L 249.732514 131.630651 
L 248.646713 133.493156 
L 247.560912 129.478642 
L 246.475111 133.858688 
L 245.38931 129.16195 
L 244.303509 132.245269 
L 243.217708 132.714081 
L 242.131906 131.636035 
L 241.046105 137.376726 
L 239.960304 132.819049 
L 238.874503 130.783415 
L 237.788702 130.555541 
L 236.702901 129.220184 
L 235.617099 138.591923 
L 234.531298 128.776477 
L 233.445497 140.253089 
L 232.359696 128.561796 
L 231.273895 129.133693 
L 230.188094 134.546274 
L 229.102292 132.722326 
L 228.016491 127.453563 
L 226.93069 133.531945 
L 225.844889 130.682977 
L 224.759088 130.381529 
L 223.673287 137.503351 
L 222.587486 139.042817 
L 221.501684 136.231781 
L 220.415883 137.793852 
L 219.330082 133.845264 
L 218.244281 131.58802 
L 217.15848 121.114607 
L 216.072679 124.962124 
L 214.986877 131.581784 
L 213.901076 121.187585 
L 212.815275 125.579053 
L 211.729474 137.406788 
L 210.643673 134.949584 
L 209.557872 131.53353 
L 208.472071 126.102816 
L 207.386269 127.857786 
L 206.300468 131.0919 
L 205.214667 129.417642 
L 204.128866 127.158791 
L 203.043065 129.08637 
L 201.957264 130.347983 
L 200.871462 124.310476 
L 199.785661 123.142522 
L 198.69986 130.430031 
L 197.614059 127.837841 
L 196.528258 131.018704 
L 195.442457 129.694663 
L 194.356656 128.312349 
L 193.270854 127.762835 
L 192.185053 129.396926 
L 191.099252 127.638239 
L 190.013451 127.954904 
L 188.92765 131.335958 
L 187.841849 129.477348 
L 186.756047 121.257566 
L 185.670246 121.628955 
L 184.584445 137.72264 
L 183.498644 130.672743 
L 182.412843 135.919539 
L 181.327042 127.65666 
L 180.24124 123.25865 
L 179.155439 130.32466 
L 178.069638 132.63814 
L 176.983837 132.397556 
L 175.898036 129.155142 
L 174.812235 126.66542 
L 173.726434 137.135808 
L 172.640632 133.17813 
L 171.554831 126.567696 
L 170.46903 125.814601 
L 169.383229 132.471775 
L 168.297428 135.256534 
L 167.211627 130.375362 
L 166.125825 134.182692 
L 165.040024 130.576351 
L 163.954223 125.168455 
L 162.868422 127.243036 
L 161.782621 130.208336 
L 160.69682 134.964628 
L 159.611019 135.622751 
L 158.525217 127.457044 
L 157.439416 131.025271 
L 156.353615 137.27037 
L 155.267814 124.355661 
L 154.182013 125.396641 
L 153.096212 134.023096 
L 152.01041 136.162525 
L 150.924609 139.708379 
L 149.838808 130.438417 
L 148.753007 140.446556 
L 147.667206 133.382928 
L 146.581405 153.295749 
L 145.495604 158.006153 
L 144.409802 143.580258 
L 143.324001 144.976833 
L 142.2382 148.271748 
L 141.152399 146.147585 
L 140.066598 156.23086 
L 138.980797 158.596737 
L 137.894995 156.137564 
L 136.809194 152.415695 
L 135.723393 144.711345 
L 134.637592 146.644195 
L 133.551791 149.778784 
L 132.46599 152.352068 
L 131.380189 153.145024 
L 130.294387 145.563406 
L 129.208586 156.346185 
L 128.122785 157.15142 
L 127.036984 165.271198 
L 125.951183 160.973889 
L 124.865382 161.845782 
L 123.77958 152.209772 
L 122.693779 160.315618 
L 121.607978 161.646924 
L 120.522177 163.690051 
L 119.436376 162.851438 
L 118.350575 161.514879 
L 117.264773 160.331549 
L 116.178972 163.080187 
L 115.093171 157.121984 
L 114.00737 164.159835 
L 112.921569 161.063925 
L 111.835768 161.87343 
L 110.749967 160.883581 
L 109.664165 159.783094 
L 108.578364 156.933306 
L 107.492563 162.355547 
L 106.406762 165.748644 
L 105.320961 163.243168 
L 104.23516 163.395871 
L 103.149358 164.100361 
L 102.063557 167.041547 
L 100.977756 165.791348 
L 99.891955 172.952241 
L 98.806154 174.334784 
L 97.720353 165.211003 
L 96.634552 168.494025 
L 95.54875 168.126599 
L 94.462949 177.24056 
L 93.377148 172.745545 
L 92.291347 178.786017 
L 91.205546 183.561702 
L 90.119745 189.451483 
L 89.033943 191.918737 
L 87.948142 188.32223 
L 86.862341 187.742619 
L 85.77654 189.149938 
L 84.690739 191.495077 
L 83.604938 189.715957 
L 82.519137 192.65047 
L 81.433335 191.153497 
L 80.347534 191.383161 
L 79.261733 191.934672 
L 78.175932 191.785598 
L 77.090131 193.367834 
L 76.00433 192.924225 
L 74.918528 194.400076 
L 73.832727 192.619248 
z
" style="fill:#ff0000;fill-opacity:0.5;"/>
   </g>
   <g id="PolyCollection_3">
    <path clip-path="url(#p0916c3bae2)" d="M 73.832727 283.68487 
L 73.832727 295.488 
L 74.918528 293.058344 
L 76.00433 292.476669 
L 77.090131 293.281278 
L 78.175932 291.007685 
L 79.261733 293.517473 
L 80.347534 291.016488 
L 81.433335 294.245396 
L 82.519137 294.447427 
L 83.604938 292.852989 
L 84.690739 294.915998 
L 85.77654 289.153051 
L 86.862341 290.100689 
L 87.948142 294.243856 
L 89.033943 292.560767 
L 90.119745 290.749467 
L 91.205546 290.641421 
L 92.291347 291.043098 
L 93.377148 287.785588 
L 94.462949 291.623579 
L 95.54875 287.502263 
L 96.634552 287.050554 
L 97.720353 286.314761 
L 98.806154 289.500764 
L 99.891955 289.201275 
L 100.977756 284.46984 
L 102.063557 282.675941 
L 103.149358 284.678553 
L 104.23516 281.773343 
L 105.320961 283.637691 
L 106.406762 281.450888 
L 107.492563 279.442003 
L 108.578364 279.365421 
L 109.664165 276.162457 
L 110.749967 278.237032 
L 111.835768 282.922658 
L 112.921569 277.439415 
L 114.00737 281.373077 
L 115.093171 285.356535 
L 116.178972 285.203982 
L 117.264773 285.290966 
L 118.350575 279.860489 
L 119.436376 279.954899 
L 120.522177 287.987101 
L 121.607978 278.70787 
L 122.693779 280.080199 
L 123.77958 276.505239 
L 124.865382 281.780838 
L 125.951183 276.898182 
L 127.036984 284.985515 
L 128.122785 283.969985 
L 129.208586 283.485103 
L 130.294387 278.870968 
L 131.380189 276.534511 
L 132.46599 283.952915 
L 133.551791 278.229323 
L 134.637592 274.127821 
L 135.723393 276.756177 
L 136.809194 277.109716 
L 137.894995 277.852141 
L 138.980797 282.708178 
L 140.066598 279.291821 
L 141.152399 278.196549 
L 142.2382 273.704548 
L 143.324001 273.191682 
L 144.409802 268.563402 
L 145.495604 280.761774 
L 146.581405 274.591848 
L 147.667206 273.838956 
L 148.753007 268.959593 
L 149.838808 262.681106 
L 150.924609 265.379697 
L 152.01041 267.379389 
L 153.096212 264.592962 
L 154.182013 263.655643 
L 155.267814 259.929981 
L 156.353615 269.752909 
L 157.439416 265.912444 
L 158.525217 259.628161 
L 159.611019 274.164702 
L 160.69682 274.190425 
L 161.782621 267.774944 
L 162.868422 258.485524 
L 163.954223 263.957544 
L 165.040024 270.291162 
L 166.125825 264.764254 
L 167.211627 263.630314 
L 168.297428 271.129793 
L 169.383229 265.487842 
L 170.46903 265.36922 
L 171.554831 264.499052 
L 172.640632 264.724275 
L 173.726434 264.400021 
L 174.812235 260.300764 
L 175.898036 267.04479 
L 176.983837 267.69645 
L 178.069638 268.71154 
L 179.155439 259.094976 
L 180.24124 256.502786 
L 181.327042 258.648524 
L 182.412843 264.176017 
L 183.498644 258.8495 
L 184.584445 262.910957 
L 185.670246 260.269228 
L 186.756047 254.389598 
L 187.841849 264.33361 
L 188.92765 266.209733 
L 190.013451 258.194856 
L 191.099252 262.679156 
L 192.185053 259.001104 
L 193.270854 258.586174 
L 194.356656 256.342616 
L 195.442457 260.088489 
L 196.528258 257.604726 
L 197.614059 262.404946 
L 198.69986 263.665264 
L 199.785661 257.605866 
L 200.871462 251.872725 
L 201.957264 257.330882 
L 203.043065 259.232649 
L 204.128866 251.860908 
L 205.214667 262.748431 
L 206.300468 264.886549 
L 207.386269 271.376285 
L 208.472071 260.411176 
L 209.557872 261.355935 
L 210.643673 268.751162 
L 211.729474 271.900784 
L 212.815275 260.017562 
L 213.901076 247.926127 
L 214.986877 259.288799 
L 216.072679 250.759028 
L 217.15848 260.449596 
L 218.244281 257.998823 
L 219.330082 264.331347 
L 220.415883 263.604957 
L 221.501684 260.98092 
L 222.587486 269.095807 
L 223.673287 264.986946 
L 224.759088 263.282664 
L 225.844889 265.829571 
L 226.93069 264.192275 
L 228.016491 263.433934 
L 229.102292 264.74156 
L 230.188094 264.27638 
L 231.273895 270.13275 
L 232.359696 264.990262 
L 233.445497 267.79601 
L 234.531298 259.524507 
L 235.617099 265.895672 
L 236.702901 256.875879 
L 237.788702 262.235229 
L 238.874503 263.462918 
L 239.960304 269.33905 
L 241.046105 267.663218 
L 242.131906 266.544835 
L 243.217708 264.352699 
L 244.303509 267.512789 
L 245.38931 260.006036 
L 246.475111 260.519343 
L 247.560912 267.409938 
L 248.646713 264.784897 
L 249.732514 267.086699 
L 250.818316 255.247234 
L 251.904117 263.334771 
L 252.989918 253.720079 
L 254.075719 268.457403 
L 255.16152 262.6313 
L 256.247321 261.365745 
L 257.333123 270.370521 
L 258.418924 259.685933 
L 259.504725 260.432753 
L 260.590526 263.177895 
L 261.676327 258.174297 
L 262.762128 268.075272 
L 263.847929 262.374362 
L 264.933731 269.107817 
L 266.019532 260.530212 
L 267.105333 258.829877 
L 268.191134 262.412214 
L 269.276935 263.178662 
L 270.362736 257.889803 
L 271.448538 255.465677 
L 272.534339 259.359927 
L 273.62014 265.547849 
L 274.705941 262.010543 
L 275.791742 268.141662 
L 276.877543 263.545407 
L 277.963344 251.177744 
L 279.049146 257.920364 
L 280.134947 257.79247 
L 281.220748 260.266566 
L 282.306549 261.983352 
L 283.39235 253.086597 
L 284.478151 265.959166 
L 285.563953 259.007555 
L 286.649754 257.653064 
L 287.735555 264.977084 
L 288.821356 264.613974 
L 289.907157 253.502876 
L 290.992958 260.402404 
L 292.07876 256.249842 
L 293.164561 259.224331 
L 294.250362 262.193918 
L 295.336163 249.331794 
L 296.421964 259.393798 
L 297.507765 256.150006 
L 298.593566 254.725409 
L 299.679368 247.949701 
L 300.765169 244.178873 
L 301.85097 260.930011 
L 302.936771 249.952247 
L 304.022572 249.02046 
L 305.108373 266.261291 
L 306.194175 249.402987 
L 307.279976 249.227549 
L 308.365777 245.792196 
L 309.451578 254.152603 
L 310.537379 253.422821 
L 311.62318 243.296357 
L 312.708981 238.753029 
L 313.794783 253.411906 
L 314.880584 245.196588 
L 315.966385 255.678269 
L 317.052186 240.879928 
L 318.137987 249.425372 
L 319.223788 244.035129 
L 320.30959 256.840253 
L 321.395391 253.723559 
L 322.481192 237.941823 
L 323.566993 235.52911 
L 324.652794 244.351292 
L 325.738595 236.700207 
L 326.824396 221.019696 
L 327.910198 236.488089 
L 328.995999 238.994594 
L 330.0818 232.711567 
L 331.167601 224.361518 
L 332.253402 218.333235 
L 333.339203 220.407629 
L 334.425005 239.395788 
L 335.510806 211.73831 
L 336.596607 230.357919 
L 337.682408 228.817305 
L 338.768209 217.266588 
L 339.85401 219.676328 
L 340.939811 223.112544 
L 342.025613 225.687578 
L 343.111414 228.282504 
L 344.197215 238.171926 
L 345.283016 228.481956 
L 346.368817 239.55156 
L 347.454618 236.964234 
L 348.54042 216.900331 
L 349.626221 231.999008 
L 350.712022 241.239732 
L 351.797823 233.346667 
L 352.883624 234.491806 
L 353.969425 223.236204 
L 355.055227 244.387203 
L 356.141028 218.727398 
L 357.226829 208.624152 
L 358.31263 222.288004 
L 359.398431 253.398684 
L 360.484232 233.746548 
L 361.570033 240.856904 
L 362.655835 239.871598 
L 363.741636 245.700045 
L 364.827437 241.040417 
L 365.913238 232.610365 
L 366.999039 241.48846 
L 368.08484 237.910167 
L 369.170642 233.298426 
L 370.256443 237.29448 
L 371.342244 230.938022 
L 372.428045 217.006863 
L 373.513846 217.889703 
L 374.599647 239.340639 
L 375.685448 221.947442 
L 376.77125 235.986012 
L 377.857051 242.480717 
L 378.942852 243.407915 
L 380.028653 247.8214 
L 381.114454 256.854423 
L 382.200255 261.481816 
L 383.286057 250.102829 
L 384.371858 260.555458 
L 385.457659 267.399248 
L 386.54346 256.608646 
L 387.629261 245.491557 
L 388.715062 255.489942 
L 389.800863 246.539406 
L 390.886665 240.763203 
L 391.972466 246.061945 
L 393.058267 242.437457 
L 394.144068 260.876575 
L 395.229869 237.568866 
L 396.31567 239.720231 
L 397.401472 244.990828 
L 398.487273 236.196177 
L 398.487273 148.562816 
L 398.487273 148.562816 
L 397.401472 170.346613 
L 396.31567 165.395324 
L 395.229869 155.210685 
L 394.144068 158.433258 
L 393.058267 151.699141 
L 391.972466 148.675481 
L 390.886665 141.42798 
L 389.800863 159.758384 
L 388.715062 159.994667 
L 387.629261 156.437178 
L 386.54346 163.074262 
L 385.457659 154.083482 
L 384.371858 152.588991 
L 383.286057 153.074948 
L 382.200255 164.647792 
L 381.114454 133.907543 
L 380.028653 135.814838 
L 378.942852 152.964641 
L 377.857051 146.503655 
L 376.77125 150.589405 
L 375.685448 145.149345 
L 374.599647 142.935953 
L 373.513846 126.864763 
L 372.428045 129.207453 
L 371.342244 137.775989 
L 370.256443 150.645064 
L 369.170642 148.827595 
L 368.08484 172.677293 
L 366.999039 160.434971 
L 365.913238 151.737373 
L 364.827437 162.340917 
L 363.741636 150.542844 
L 362.655835 152.289353 
L 361.570033 153.078538 
L 360.484232 143.78981 
L 359.398431 165.894702 
L 358.31263 131.186159 
L 357.226829 100.933785 
L 356.141028 137.269128 
L 355.055227 170.196854 
L 353.969425 156.995188 
L 352.883624 165.860896 
L 351.797823 161.005752 
L 350.712022 149.621094 
L 349.626221 155.057918 
L 348.54042 142.515914 
L 347.454618 147.210631 
L 346.368817 153.574043 
L 345.283016 145.505776 
L 344.197215 157.367285 
L 343.111414 139.412076 
L 342.025613 129.685705 
L 340.939811 150.595182 
L 339.85401 139.984916 
L 338.768209 136.708782 
L 337.682408 137.195142 
L 336.596607 151.730236 
L 335.510806 142.475599 
L 334.425005 172.31235 
L 333.339203 142.760337 
L 332.253402 142.430255 
L 331.167601 122.424932 
L 330.0818 146.959127 
L 328.995999 158.52986 
L 327.910198 148.230048 
L 326.824396 147.836343 
L 325.738595 156.902847 
L 324.652794 182.395904 
L 323.566993 160.206845 
L 322.481192 181.035953 
L 321.395391 205.19537 
L 320.30959 216.907281 
L 319.223788 196.629217 
L 318.137987 197.833451 
L 317.052186 198.51028 
L 315.966385 209.841082 
L 314.880584 207.053615 
L 313.794783 195.970188 
L 312.708981 179.786393 
L 311.62318 197.125006 
L 310.537379 191.772674 
L 309.451578 199.044591 
L 308.365777 188.717401 
L 307.279976 179.030214 
L 306.194175 184.810177 
L 305.108373 206.451907 
L 304.022572 183.76626 
L 302.936771 198.309991 
L 301.85097 211.654139 
L 300.765169 193.963085 
L 299.679368 192.639041 
L 298.593566 199.612615 
L 297.507765 203.400481 
L 296.421964 192.60864 
L 295.336163 203.23066 
L 294.250362 195.48815 
L 293.164561 220.947115 
L 292.07876 211.33925 
L 290.992958 210.316942 
L 289.907157 206.225282 
L 288.821356 221.320789 
L 287.735555 228.198993 
L 286.649754 201.723705 
L 285.563953 208.077875 
L 284.478151 217.132478 
L 283.39235 216.429681 
L 282.306549 210.540666 
L 281.220748 220.911575 
L 280.134947 217.346565 
L 279.049146 208.33927 
L 277.963344 201.567373 
L 276.877543 225.97486 
L 275.791742 224.895829 
L 274.705941 218.326992 
L 273.62014 224.289602 
L 272.534339 212.65074 
L 271.448538 222.011588 
L 270.362736 213.59991 
L 269.276935 210.06455 
L 268.191134 209.152551 
L 267.105333 206.303084 
L 266.019532 217.554598 
L 264.933731 217.0646 
L 263.847929 218.592743 
L 262.762128 211.455679 
L 261.676327 215.412808 
L 260.590526 211.649016 
L 259.504725 222.071918 
L 258.418924 224.285355 
L 257.333123 216.166639 
L 256.247321 224.181485 
L 255.16152 221.921571 
L 254.075719 224.903343 
L 252.989918 212.620381 
L 251.904117 210.312281 
L 250.818316 213.630869 
L 249.732514 220.588931 
L 248.646713 226.246257 
L 247.560912 222.29489 
L 246.475111 227.717667 
L 245.38931 217.682978 
L 244.303509 223.765376 
L 243.217708 223.639998 
L 242.131906 222.763987 
L 241.046105 228.12898 
L 239.960304 224.015888 
L 238.874503 222.30066 
L 237.788702 220.210594 
L 236.702901 220.065496 
L 235.617099 230.619904 
L 234.531298 221.959237 
L 233.445497 233.551723 
L 232.359696 216.492489 
L 231.273895 218.531831 
L 230.188094 229.994203 
L 229.102292 218.620166 
L 228.016491 219.160189 
L 226.93069 225.144695 
L 225.844889 222.018105 
L 224.759088 220.183037 
L 223.673287 227.518121 
L 222.587486 232.905465 
L 221.501684 226.17338 
L 220.415883 229.55633 
L 219.330082 226.1764 
L 218.244281 223.604561 
L 217.15848 206.967033 
L 216.072679 212.28952 
L 214.986877 222.567618 
L 213.901076 215.166981 
L 212.815275 212.845361 
L 211.729474 230.813869 
L 210.643673 229.193468 
L 209.557872 221.431935 
L 208.472071 212.998639 
L 207.386269 218.572749 
L 206.300468 223.675219 
L 205.214667 219.662005 
L 204.128866 211.504235 
L 203.043065 218.199955 
L 201.957264 217.477941 
L 200.871462 209.647779 
L 199.785661 212.101218 
L 198.69986 219.810028 
L 197.614059 215.252593 
L 196.528258 221.680282 
L 195.442457 217.548112 
L 194.356656 211.605543 
L 193.270854 214.872653 
L 192.185053 222.105758 
L 191.099252 218.245832 
L 190.013451 213.588201 
L 188.92765 221.922525 
L 187.841849 222.697072 
L 186.756047 203.653891 
L 185.670246 206.165348 
L 184.584445 229.651724 
L 183.498644 218.095093 
L 182.412843 224.753155 
L 181.327042 215.818537 
L 180.24124 209.015715 
L 179.155439 218.466779 
L 178.069638 222.781113 
L 176.983837 221.235852 
L 175.898036 215.075533 
L 174.812235 215.235015 
L 173.726434 228.272885 
L 172.640632 224.297139 
L 171.554831 211.622042 
L 170.46903 213.511545 
L 169.383229 220.081273 
L 168.297428 225.326964 
L 167.211627 221.145418 
L 166.125825 227.026999 
L 165.040024 220.505722 
L 163.954223 212.786951 
L 162.868422 216.170527 
L 161.782621 220.324095 
L 160.69682 226.552585 
L 159.611019 228.390319 
L 158.525217 218.814747 
L 157.439416 221.853421 
L 156.353615 234.153849 
L 155.267814 213.037838 
L 154.182013 212.998001 
L 153.096212 225.601854 
L 152.01041 228.784606 
L 150.924609 229.47242 
L 149.838808 219.170227 
L 148.753007 232.76067 
L 147.667206 222.844385 
L 146.581405 246.46204 
L 145.495604 258.21796 
L 144.409802 236.176629 
L 143.324001 239.810302 
L 142.2382 242.517448 
L 141.152399 242.33175 
L 140.066598 254.021029 
L 138.980797 254.247535 
L 137.894995 251.631712 
L 136.809194 249.360731 
L 135.723393 241.669581 
L 134.637592 241.276111 
L 133.551791 244.179027 
L 132.46599 250.422487 
L 131.380189 247.720172 
L 130.294387 243.484042 
L 129.208586 253.723743 
L 128.122785 253.196079 
L 127.036984 263.026859 
L 125.951183 257.43161 
L 124.865382 260.541493 
L 123.77958 251.940373 
L 122.693779 261.111187 
L 121.607978 261.60283 
L 120.522177 263.948413 
L 119.436376 261.266239 
L 118.350575 261.942866 
L 117.264773 262.123926 
L 116.178972 261.483829 
L 115.093171 255.20123 
L 114.00737 260.240527 
L 112.921569 258.832695 
L 111.835768 261.428273 
L 110.749967 257.056564 
L 109.664165 258.21226 
L 108.578364 256.879442 
L 107.492563 259.760018 
L 106.406762 264.266662 
L 105.320961 264.143531 
L 104.23516 260.466515 
L 103.149358 267.909096 
L 102.063557 262.554868 
L 100.977756 266.927529 
L 99.891955 269.845447 
L 98.806154 272.250921 
L 97.720353 262.145613 
L 96.634552 269.436204 
L 95.54875 267.379945 
L 94.462949 274.314755 
L 93.377148 268.8433 
L 92.291347 275.56511 
L 91.205546 277.47017 
L 90.119745 283.725553 
L 89.033943 282.554767 
L 87.948142 281.339931 
L 86.862341 281.890213 
L 85.77654 282.725858 
L 84.690739 285.590144 
L 83.604938 282.859676 
L 82.519137 283.664341 
L 81.433335 284.15691 
L 80.347534 283.916395 
L 79.261733 284.000491 
L 78.175932 284.336747 
L 77.090131 285.650633 
L 76.00433 284.709066 
L 74.918528 285.168938 
L 73.832727 283.68487 
z
" style="fill:#008000;fill-opacity:0.5;"/>
   </g>
   <g id="matplotlib.axis_1">
    <g id="xtick_1">
     <g id="line2d_1">
      <path clip-path="url(#p0916c3bae2)" d="M 73.832727 307.584 
L 73.832727 41.472 
" style="fill:none;stroke:#b0b0b0;stroke-linecap:square;stroke-width:0.8;"/>
     </g>
     <g id="line2d_2">
      <defs>
       <path d="M 0 0 
L 0 3.5 
" id="m4edf208766" style="stroke:#000000;stroke-width:0.8;"/>
      </defs>
      <g>
       <use style="stroke:#000000;stroke-width:0.8;" x="73.832727" xlink:href="#m4edf208766" y="307.584"/>
      </g>
     </g>
     <g id="text_1">
      <!-- 0 -->
      <defs>
       <path d="M 31.78125 66.40625 
Q 24.171875 66.40625 20.328125 58.90625 
Q 16.5 51.421875 16.5 36.375 
Q 16.5 21.390625 20.328125 13.890625 
Q 24.171875 6.390625 31.78125 6.390625 
Q 39.453125 6.390625 43.28125 13.890625 
Q 47.125 21.390625 47.125 36.375 
Q 47.125 51.421875 43.28125 58.90625 
Q 39.453125 66.40625 31.78125 66.40625 
z
M 31.78125 74.21875 
Q 44.046875 74.21875 50.515625 64.515625 
Q 56.984375 54.828125 56.984375 36.375 
Q 56.984375 17.96875 50.515625 8.265625 
Q 44.046875 -1.421875 31.78125 -1.421875 
Q 19.53125 -1.421875 13.0625 8.265625 
Q 6.59375 17.96875 6.59375 36.375 
Q 6.59375 54.828125 13.0625 64.515625 
Q 19.53125 74.21875 31.78125 74.21875 
z
" id="DejaVuSans-48"/>
      </defs>
      <g transform="translate(70.651477 322.182437)scale(0.1 -0.1)">
       <use xlink:href="#DejaVuSans-48"/>
      </g>
     </g>
    </g>
    <g id="xtick_2">
     <g id="line2d_3">
      <path clip-path="url(#p0916c3bae2)" d="M 128.122785 307.584 
L 128.122785 41.472 
" style="fill:none;stroke:#b0b0b0;stroke-linecap:square;stroke-width:0.8;"/>
     </g>
     <g id="line2d_4">
      <g>
       <use style="stroke:#000000;stroke-width:0.8;" x="128.122785" xlink:href="#m4edf208766" y="307.584"/>
      </g>
     </g>
     <g id="text_2">
      <!-- 50 -->
      <defs>
       <path d="M 10.796875 72.90625 
L 49.515625 72.90625 
L 49.515625 64.59375 
L 19.828125 64.59375 
L 19.828125 46.734375 
Q 21.96875 47.46875 24.109375 47.828125 
Q 26.265625 48.1875 28.421875 48.1875 
Q 40.625 48.1875 47.75 41.5 
Q 54.890625 34.8125 54.890625 23.390625 
Q 54.890625 11.625 47.5625 5.09375 
Q 40.234375 -1.421875 26.90625 -1.421875 
Q 22.3125 -1.421875 17.546875 -0.640625 
Q 12.796875 0.140625 7.71875 1.703125 
L 7.71875 11.625 
Q 12.109375 9.234375 16.796875 8.0625 
Q 21.484375 6.890625 26.703125 6.890625 
Q 35.15625 6.890625 40.078125 11.328125 
Q 45.015625 15.765625 45.015625 23.390625 
Q 45.015625 31 40.078125 35.4375 
Q 35.15625 39.890625 26.703125 39.890625 
Q 22.75 39.890625 18.8125 39.015625 
Q 14.890625 38.140625 10.796875 36.28125 
z
" id="DejaVuSans-53"/>
      </defs>
      <g transform="translate(121.760285 322.182437)scale(0.1 -0.1)">
       <use xlink:href="#DejaVuSans-53"/>
       <use x="63.623047" xlink:href="#DejaVuSans-48"/>
      </g>
     </g>
    </g>
    <g id="xtick_3">
     <g id="line2d_5">
      <path clip-path="url(#p0916c3bae2)" d="M 182.412843 307.584 
L 182.412843 41.472 
" style="fill:none;stroke:#b0b0b0;stroke-linecap:square;stroke-width:0.8;"/>
     </g>
     <g id="line2d_6">
      <g>
       <use style="stroke:#000000;stroke-width:0.8;" x="182.412843" xlink:href="#m4edf208766" y="307.584"/>
      </g>
     </g>
     <g id="text_3">
      <!-- 100 -->
      <defs>
       <path d="M 12.40625 8.296875 
L 28.515625 8.296875 
L 28.515625 63.921875 
L 10.984375 60.40625 
L 10.984375 69.390625 
L 28.421875 72.90625 
L 38.28125 72.90625 
L 38.28125 8.296875 
L 54.390625 8.296875 
L 54.390625 0 
L 12.40625 0 
z
" id="DejaVuSans-49"/>
      </defs>
      <g transform="translate(172.869093 322.182437)scale(0.1 -0.1)">
       <use xlink:href="#DejaVuSans-49"/>
       <use x="63.623047" xlink:href="#DejaVuSans-48"/>
       <use x="127.246094" xlink:href="#DejaVuSans-48"/>
      </g>
     </g>
    </g>
    <g id="xtick_4">
     <g id="line2d_7">
      <path clip-path="url(#p0916c3bae2)" d="M 236.702901 307.584 
L 236.702901 41.472 
" style="fill:none;stroke:#b0b0b0;stroke-linecap:square;stroke-width:0.8;"/>
     </g>
     <g id="line2d_8">
      <g>
       <use style="stroke:#000000;stroke-width:0.8;" x="236.702901" xlink:href="#m4edf208766" y="307.584"/>
      </g>
     </g>
     <g id="text_4">
      <!-- 150 -->
      <g transform="translate(227.159151 322.182437)scale(0.1 -0.1)">
       <use xlink:href="#DejaVuSans-49"/>
       <use x="63.623047" xlink:href="#DejaVuSans-53"/>
       <use x="127.246094" xlink:href="#DejaVuSans-48"/>
      </g>
     </g>
    </g>
    <g id="xtick_5">
     <g id="line2d_9">
      <path clip-path="url(#p0916c3bae2)" d="M 290.992958 307.584 
L 290.992958 41.472 
" style="fill:none;stroke:#b0b0b0;stroke-linecap:square;stroke-width:0.8;"/>
     </g>
     <g id="line2d_10">
      <g>
       <use style="stroke:#000000;stroke-width:0.8;" x="290.992958" xlink:href="#m4edf208766" y="307.584"/>
      </g>
     </g>
     <g id="text_5">
      <!-- 200 -->
      <defs>
       <path d="M 19.1875 8.296875 
L 53.609375 8.296875 
L 53.609375 0 
L 7.328125 0 
L 7.328125 8.296875 
Q 12.9375 14.109375 22.625 23.890625 
Q 32.328125 33.6875 34.8125 36.53125 
Q 39.546875 41.84375 41.421875 45.53125 
Q 43.3125 49.21875 43.3125 52.78125 
Q 43.3125 58.59375 39.234375 62.25 
Q 35.15625 65.921875 28.609375 65.921875 
Q 23.96875 65.921875 18.8125 64.3125 
Q 13.671875 62.703125 7.8125 59.421875 
L 7.8125 69.390625 
Q 13.765625 71.78125 18.9375 73 
Q 24.125 74.21875 28.421875 74.21875 
Q 39.75 74.21875 46.484375 68.546875 
Q 53.21875 62.890625 53.21875 53.421875 
Q 53.21875 48.921875 51.53125 44.890625 
Q 49.859375 40.875 45.40625 35.40625 
Q 44.1875 33.984375 37.640625 27.21875 
Q 31.109375 20.453125 19.1875 8.296875 
z
" id="DejaVuSans-50"/>
      </defs>
      <g transform="translate(281.449208 322.182437)scale(0.1 -0.1)">
       <use xlink:href="#DejaVuSans-50"/>
       <use x="63.623047" xlink:href="#DejaVuSans-48"/>
       <use x="127.246094" xlink:href="#DejaVuSans-48"/>
      </g>
     </g>
    </g>
    <g id="xtick_6">
     <g id="line2d_11">
      <path clip-path="url(#p0916c3bae2)" d="M 345.283016 307.584 
L 345.283016 41.472 
" style="fill:none;stroke:#b0b0b0;stroke-linecap:square;stroke-width:0.8;"/>
     </g>
     <g id="line2d_12">
      <g>
       <use style="stroke:#000000;stroke-width:0.8;" x="345.283016" xlink:href="#m4edf208766" y="307.584"/>
      </g>
     </g>
     <g id="text_6">
      <!-- 250 -->
      <g transform="translate(335.739266 322.182437)scale(0.1 -0.1)">
       <use xlink:href="#DejaVuSans-50"/>
       <use x="63.623047" xlink:href="#DejaVuSans-53"/>
       <use x="127.246094" xlink:href="#DejaVuSans-48"/>
      </g>
     </g>
    </g>
    <g id="xtick_7">
     <g id="line2d_13">
      <path clip-path="url(#p0916c3bae2)" d="M 399.573074 307.584 
L 399.573074 41.472 
" style="fill:none;stroke:#b0b0b0;stroke-linecap:square;stroke-width:0.8;"/>
     </g>
     <g id="line2d_14">
      <g>
       <use style="stroke:#000000;stroke-width:0.8;" x="399.573074" xlink:href="#m4edf208766" y="307.584"/>
      </g>
     </g>
     <g id="text_7">
      <!-- 300 -->
      <defs>
       <path d="M 40.578125 39.3125 
Q 47.65625 37.796875 51.625 33 
Q 55.609375 28.21875 55.609375 21.1875 
Q 55.609375 10.40625 48.1875 4.484375 
Q 40.765625 -1.421875 27.09375 -1.421875 
Q 22.515625 -1.421875 17.65625 -0.515625 
Q 12.796875 0.390625 7.625 2.203125 
L 7.625 11.71875 
Q 11.71875 9.328125 16.59375 8.109375 
Q 21.484375 6.890625 26.8125 6.890625 
Q 36.078125 6.890625 40.9375 10.546875 
Q 45.796875 14.203125 45.796875 21.1875 
Q 45.796875 27.640625 41.28125 31.265625 
Q 36.765625 34.90625 28.71875 34.90625 
L 20.21875 34.90625 
L 20.21875 43.015625 
L 29.109375 43.015625 
Q 36.375 43.015625 40.234375 45.921875 
Q 44.09375 48.828125 44.09375 54.296875 
Q 44.09375 59.90625 40.109375 62.90625 
Q 36.140625 65.921875 28.71875 65.921875 
Q 24.65625 65.921875 20.015625 65.03125 
Q 15.375 64.15625 9.8125 62.3125 
L 9.8125 71.09375 
Q 15.4375 72.65625 20.34375 73.4375 
Q 25.25 74.21875 29.59375 74.21875 
Q 40.828125 74.21875 47.359375 69.109375 
Q 53.90625 64.015625 53.90625 55.328125 
Q 53.90625 49.265625 50.4375 45.09375 
Q 46.96875 40.921875 40.578125 39.3125 
z
" id="DejaVuSans-51"/>
      </defs>
      <g transform="translate(390.029324 322.182437)scale(0.1 -0.1)">
       <use xlink:href="#DejaVuSans-51"/>
       <use x="63.623047" xlink:href="#DejaVuSans-48"/>
       <use x="127.246094" xlink:href="#DejaVuSans-48"/>
      </g>
     </g>
    </g>
    <g id="text_8">
     <!-- Generations -->
     <defs>
      <path d="M 59.515625 10.40625 
L 59.515625 29.984375 
L 43.40625 29.984375 
L 43.40625 38.09375 
L 69.28125 38.09375 
L 69.28125 6.78125 
Q 63.578125 2.734375 56.6875 0.65625 
Q 49.8125 -1.421875 42 -1.421875 
Q 24.90625 -1.421875 15.25 8.5625 
Q 5.609375 18.5625 5.609375 36.375 
Q 5.609375 54.25 15.25 64.234375 
Q 24.90625 74.21875 42 74.21875 
Q 49.125 74.21875 55.546875 72.453125 
Q 61.96875 70.703125 67.390625 67.28125 
L 67.390625 56.78125 
Q 61.921875 61.421875 55.765625 63.765625 
Q 49.609375 66.109375 42.828125 66.109375 
Q 29.4375 66.109375 22.71875 58.640625 
Q 16.015625 51.171875 16.015625 36.375 
Q 16.015625 21.625 22.71875 14.15625 
Q 29.4375 6.6875 42.828125 6.6875 
Q 48.046875 6.6875 52.140625 7.59375 
Q 56.25 8.5 59.515625 10.40625 
z
" id="DejaVuSans-71"/>
      <path d="M 56.203125 29.59375 
L 56.203125 25.203125 
L 14.890625 25.203125 
Q 15.484375 15.921875 20.484375 11.0625 
Q 25.484375 6.203125 34.421875 6.203125 
Q 39.59375 6.203125 44.453125 7.46875 
Q 49.3125 8.734375 54.109375 11.28125 
L 54.109375 2.78125 
Q 49.265625 0.734375 44.1875 -0.34375 
Q 39.109375 -1.421875 33.890625 -1.421875 
Q 20.796875 -1.421875 13.15625 6.1875 
Q 5.515625 13.8125 5.515625 26.8125 
Q 5.515625 40.234375 12.765625 48.109375 
Q 20.015625 56 32.328125 56 
Q 43.359375 56 49.78125 48.890625 
Q 56.203125 41.796875 56.203125 29.59375 
z
M 47.21875 32.234375 
Q 47.125 39.59375 43.09375 43.984375 
Q 39.0625 48.390625 32.421875 48.390625 
Q 24.90625 48.390625 20.390625 44.140625 
Q 15.875 39.890625 15.1875 32.171875 
z
" id="DejaVuSans-101"/>
      <path d="M 54.890625 33.015625 
L 54.890625 0 
L 45.90625 0 
L 45.90625 32.71875 
Q 45.90625 40.484375 42.875 44.328125 
Q 39.84375 48.1875 33.796875 48.1875 
Q 26.515625 48.1875 22.3125 43.546875 
Q 18.109375 38.921875 18.109375 30.90625 
L 18.109375 0 
L 9.078125 0 
L 9.078125 54.6875 
L 18.109375 54.6875 
L 18.109375 46.1875 
Q 21.34375 51.125 25.703125 53.5625 
Q 30.078125 56 35.796875 56 
Q 45.21875 56 50.046875 50.171875 
Q 54.890625 44.34375 54.890625 33.015625 
z
" id="DejaVuSans-110"/>
      <path d="M 41.109375 46.296875 
Q 39.59375 47.171875 37.8125 47.578125 
Q 36.03125 48 33.890625 48 
Q 26.265625 48 22.1875 43.046875 
Q 18.109375 38.09375 18.109375 28.8125 
L 18.109375 0 
L 9.078125 0 
L 9.078125 54.6875 
L 18.109375 54.6875 
L 18.109375 46.1875 
Q 20.953125 51.171875 25.484375 53.578125 
Q 30.03125 56 36.53125 56 
Q 37.453125 56 38.578125 55.875 
Q 39.703125 55.765625 41.0625 55.515625 
z
" id="DejaVuSans-114"/>
      <path d="M 34.28125 27.484375 
Q 23.390625 27.484375 19.1875 25 
Q 14.984375 22.515625 14.984375 16.5 
Q 14.984375 11.71875 18.140625 8.90625 
Q 21.296875 6.109375 26.703125 6.109375 
Q 34.1875 6.109375 38.703125 11.40625 
Q 43.21875 16.703125 43.21875 25.484375 
L 43.21875 27.484375 
z
M 52.203125 31.203125 
L 52.203125 0 
L 43.21875 0 
L 43.21875 8.296875 
Q 40.140625 3.328125 35.546875 0.953125 
Q 30.953125 -1.421875 24.3125 -1.421875 
Q 15.921875 -1.421875 10.953125 3.296875 
Q 6 8.015625 6 15.921875 
Q 6 25.140625 12.171875 29.828125 
Q 18.359375 34.515625 30.609375 34.515625 
L 43.21875 34.515625 
L 43.21875 35.40625 
Q 43.21875 41.609375 39.140625 45 
Q 35.0625 48.390625 27.6875 48.390625 
Q 23 48.390625 18.546875 47.265625 
Q 14.109375 46.140625 10.015625 43.890625 
L 10.015625 52.203125 
Q 14.9375 54.109375 19.578125 55.046875 
Q 24.21875 56 28.609375 56 
Q 40.484375 56 46.34375 49.84375 
Q 52.203125 43.703125 52.203125 31.203125 
z
" id="DejaVuSans-97"/>
      <path d="M 18.3125 70.21875 
L 18.3125 54.6875 
L 36.8125 54.6875 
L 36.8125 47.703125 
L 18.3125 47.703125 
L 18.3125 18.015625 
Q 18.3125 11.328125 20.140625 9.421875 
Q 21.96875 7.515625 27.59375 7.515625 
L 36.8125 7.515625 
L 36.8125 0 
L 27.59375 0 
Q 17.1875 0 13.234375 3.875 
Q 9.28125 7.765625 9.28125 18.015625 
L 9.28125 47.703125 
L 2.6875 47.703125 
L 2.6875 54.6875 
L 9.28125 54.6875 
L 9.28125 70.21875 
z
" id="DejaVuSans-116"/>
      <path d="M 9.421875 54.6875 
L 18.40625 54.6875 
L 18.40625 0 
L 9.421875 0 
z
M 9.421875 75.984375 
L 18.40625 75.984375 
L 18.40625 64.59375 
L 9.421875 64.59375 
z
" id="DejaVuSans-105"/>
      <path d="M 30.609375 48.390625 
Q 23.390625 48.390625 19.1875 42.75 
Q 14.984375 37.109375 14.984375 27.296875 
Q 14.984375 17.484375 19.15625 11.84375 
Q 23.34375 6.203125 30.609375 6.203125 
Q 37.796875 6.203125 41.984375 11.859375 
Q 46.1875 17.53125 46.1875 27.296875 
Q 46.1875 37.015625 41.984375 42.703125 
Q 37.796875 48.390625 30.609375 48.390625 
z
M 30.609375 56 
Q 42.328125 56 49.015625 48.375 
Q 55.71875 40.765625 55.71875 27.296875 
Q 55.71875 13.875 49.015625 6.21875 
Q 42.328125 -1.421875 30.609375 -1.421875 
Q 18.84375 -1.421875 12.171875 6.21875 
Q 5.515625 13.875 5.515625 27.296875 
Q 5.515625 40.765625 12.171875 48.375 
Q 18.84375 56 30.609375 56 
z
" id="DejaVuSans-111"/>
      <path d="M 44.28125 53.078125 
L 44.28125 44.578125 
Q 40.484375 46.53125 36.375 47.5 
Q 32.28125 48.484375 27.875 48.484375 
Q 21.1875 48.484375 17.84375 46.4375 
Q 14.5 44.390625 14.5 40.28125 
Q 14.5 37.15625 16.890625 35.375 
Q 19.28125 33.59375 26.515625 31.984375 
L 29.59375 31.296875 
Q 39.15625 29.25 43.1875 25.515625 
Q 47.21875 21.78125 47.21875 15.09375 
Q 47.21875 7.46875 41.1875 3.015625 
Q 35.15625 -1.421875 24.609375 -1.421875 
Q 20.21875 -1.421875 15.453125 -0.5625 
Q 10.6875 0.296875 5.421875 2 
L 5.421875 11.28125 
Q 10.40625 8.6875 15.234375 7.390625 
Q 20.0625 6.109375 24.8125 6.109375 
Q 31.15625 6.109375 34.5625 8.28125 
Q 37.984375 10.453125 37.984375 14.40625 
Q 37.984375 18.0625 35.515625 20.015625 
Q 33.0625 21.96875 24.703125 23.78125 
L 21.578125 24.515625 
Q 13.234375 26.265625 9.515625 29.90625 
Q 5.8125 33.546875 5.8125 39.890625 
Q 5.8125 47.609375 11.28125 51.796875 
Q 16.75 56 26.8125 56 
Q 31.78125 56 36.171875 55.265625 
Q 40.578125 54.546875 44.28125 53.078125 
z
" id="DejaVuSans-115"/>
     </defs>
     <g transform="translate(205.662344 335.860562)scale(0.1 -0.1)">
      <use xlink:href="#DejaVuSans-71"/>
      <use x="77.490234" xlink:href="#DejaVuSans-101"/>
      <use x="139.013672" xlink:href="#DejaVuSans-110"/>
      <use x="202.392578" xlink:href="#DejaVuSans-101"/>
      <use x="263.916016" xlink:href="#DejaVuSans-114"/>
      <use x="305.029297" xlink:href="#DejaVuSans-97"/>
      <use x="366.308594" xlink:href="#DejaVuSans-116"/>
      <use x="405.517578" xlink:href="#DejaVuSans-105"/>
      <use x="433.300781" xlink:href="#DejaVuSans-111"/>
      <use x="494.482422" xlink:href="#DejaVuSans-110"/>
      <use x="557.861328" xlink:href="#DejaVuSans-115"/>
     </g>
    </g>
   </g>
   <g id="matplotlib.axis_2">
    <g id="ytick_1">
     <g id="line2d_15">
      <path clip-path="url(#p0916c3bae2)" d="M 57.6 270.715461 
L 414.72 270.715461 
" style="fill:none;stroke:#b0b0b0;stroke-linecap:square;stroke-width:0.8;"/>
     </g>
     <g id="line2d_16">
      <defs>
       <path d="M 0 0 
L -3.5 0 
" id="mdcad574aed" style="stroke:#000000;stroke-width:0.8;"/>
      </defs>
      <g>
       <use style="stroke:#000000;stroke-width:0.8;" x="57.6" xlink:href="#mdcad574aed" y="270.715461"/>
      </g>
     </g>
     <g id="text_9">
      <!-- 0.2 -->
      <defs>
       <path d="M 10.6875 12.40625 
L 21 12.40625 
L 21 0 
L 10.6875 0 
z
" id="DejaVuSans-46"/>
      </defs>
      <g transform="translate(34.696875 274.51468)scale(0.1 -0.1)">
       <use xlink:href="#DejaVuSans-48"/>
       <use x="63.623047" xlink:href="#DejaVuSans-46"/>
       <use x="95.410156" xlink:href="#DejaVuSans-50"/>
      </g>
     </g>
    </g>
    <g id="ytick_2">
     <g id="line2d_17">
      <path clip-path="url(#p0916c3bae2)" d="M 57.6 221.481238 
L 414.72 221.481238 
" style="fill:none;stroke:#b0b0b0;stroke-linecap:square;stroke-width:0.8;"/>
     </g>
     <g id="line2d_18">
      <g>
       <use style="stroke:#000000;stroke-width:0.8;" x="57.6" xlink:href="#mdcad574aed" y="221.481238"/>
      </g>
     </g>
     <g id="text_10">
      <!-- 0.4 -->
      <defs>
       <path d="M 37.796875 64.3125 
L 12.890625 25.390625 
L 37.796875 25.390625 
z
M 35.203125 72.90625 
L 47.609375 72.90625 
L 47.609375 25.390625 
L 58.015625 25.390625 
L 58.015625 17.1875 
L 47.609375 17.1875 
L 47.609375 0 
L 37.796875 0 
L 37.796875 17.1875 
L 4.890625 17.1875 
L 4.890625 26.703125 
z
" id="DejaVuSans-52"/>
      </defs>
      <g transform="translate(34.696875 225.280456)scale(0.1 -0.1)">
       <use xlink:href="#DejaVuSans-48"/>
       <use x="63.623047" xlink:href="#DejaVuSans-46"/>
       <use x="95.410156" xlink:href="#DejaVuSans-52"/>
      </g>
     </g>
    </g>
    <g id="ytick_3">
     <g id="line2d_19">
      <path clip-path="url(#p0916c3bae2)" d="M 57.6 172.247014 
L 414.72 172.247014 
" style="fill:none;stroke:#b0b0b0;stroke-linecap:square;stroke-width:0.8;"/>
     </g>
     <g id="line2d_20">
      <g>
       <use style="stroke:#000000;stroke-width:0.8;" x="57.6" xlink:href="#mdcad574aed" y="172.247014"/>
      </g>
     </g>
     <g id="text_11">
      <!-- 0.6 -->
      <defs>
       <path d="M 33.015625 40.375 
Q 26.375 40.375 22.484375 35.828125 
Q 18.609375 31.296875 18.609375 23.390625 
Q 18.609375 15.53125 22.484375 10.953125 
Q 26.375 6.390625 33.015625 6.390625 
Q 39.65625 6.390625 43.53125 10.953125 
Q 47.40625 15.53125 47.40625 23.390625 
Q 47.40625 31.296875 43.53125 35.828125 
Q 39.65625 40.375 33.015625 40.375 
z
M 52.59375 71.296875 
L 52.59375 62.3125 
Q 48.875 64.0625 45.09375 64.984375 
Q 41.3125 65.921875 37.59375 65.921875 
Q 27.828125 65.921875 22.671875 59.328125 
Q 17.53125 52.734375 16.796875 39.40625 
Q 19.671875 43.65625 24.015625 45.921875 
Q 28.375 48.1875 33.59375 48.1875 
Q 44.578125 48.1875 50.953125 41.515625 
Q 57.328125 34.859375 57.328125 23.390625 
Q 57.328125 12.15625 50.6875 5.359375 
Q 44.046875 -1.421875 33.015625 -1.421875 
Q 20.359375 -1.421875 13.671875 8.265625 
Q 6.984375 17.96875 6.984375 36.375 
Q 6.984375 53.65625 15.1875 63.9375 
Q 23.390625 74.21875 37.203125 74.21875 
Q 40.921875 74.21875 44.703125 73.484375 
Q 48.484375 72.75 52.59375 71.296875 
z
" id="DejaVuSans-54"/>
      </defs>
      <g transform="translate(34.696875 176.046233)scale(0.1 -0.1)">
       <use xlink:href="#DejaVuSans-48"/>
       <use x="63.623047" xlink:href="#DejaVuSans-46"/>
       <use x="95.410156" xlink:href="#DejaVuSans-54"/>
      </g>
     </g>
    </g>
    <g id="ytick_4">
     <g id="line2d_21">
      <path clip-path="url(#p0916c3bae2)" d="M 57.6 123.012791 
L 414.72 123.012791 
" style="fill:none;stroke:#b0b0b0;stroke-linecap:square;stroke-width:0.8;"/>
     </g>
     <g id="line2d_22">
      <g>
       <use style="stroke:#000000;stroke-width:0.8;" x="57.6" xlink:href="#mdcad574aed" y="123.012791"/>
      </g>
     </g>
     <g id="text_12">
      <!-- 0.8 -->
      <defs>
       <path d="M 31.78125 34.625 
Q 24.75 34.625 20.71875 30.859375 
Q 16.703125 27.09375 16.703125 20.515625 
Q 16.703125 13.921875 20.71875 10.15625 
Q 24.75 6.390625 31.78125 6.390625 
Q 38.8125 6.390625 42.859375 10.171875 
Q 46.921875 13.96875 46.921875 20.515625 
Q 46.921875 27.09375 42.890625 30.859375 
Q 38.875 34.625 31.78125 34.625 
z
M 21.921875 38.8125 
Q 15.578125 40.375 12.03125 44.71875 
Q 8.5 49.078125 8.5 55.328125 
Q 8.5 64.0625 14.71875 69.140625 
Q 20.953125 74.21875 31.78125 74.21875 
Q 42.671875 74.21875 48.875 69.140625 
Q 55.078125 64.0625 55.078125 55.328125 
Q 55.078125 49.078125 51.53125 44.71875 
Q 48 40.375 41.703125 38.8125 
Q 48.828125 37.15625 52.796875 32.3125 
Q 56.78125 27.484375 56.78125 20.515625 
Q 56.78125 9.90625 50.3125 4.234375 
Q 43.84375 -1.421875 31.78125 -1.421875 
Q 19.734375 -1.421875 13.25 4.234375 
Q 6.78125 9.90625 6.78125 20.515625 
Q 6.78125 27.484375 10.78125 32.3125 
Q 14.796875 37.15625 21.921875 38.8125 
z
M 18.3125 54.390625 
Q 18.3125 48.734375 21.84375 45.5625 
Q 25.390625 42.390625 31.78125 42.390625 
Q 38.140625 42.390625 41.71875 45.5625 
Q 45.3125 48.734375 45.3125 54.390625 
Q 45.3125 60.0625 41.71875 63.234375 
Q 38.140625 66.40625 31.78125 66.40625 
Q 25.390625 66.40625 21.84375 63.234375 
Q 18.3125 60.0625 18.3125 54.390625 
z
" id="DejaVuSans-56"/>
      </defs>
      <g transform="translate(34.696875 126.81201)scale(0.1 -0.1)">
       <use xlink:href="#DejaVuSans-48"/>
       <use x="63.623047" xlink:href="#DejaVuSans-46"/>
       <use x="95.410156" xlink:href="#DejaVuSans-56"/>
      </g>
     </g>
    </g>
    <g id="ytick_5">
     <g id="line2d_23">
      <path clip-path="url(#p0916c3bae2)" d="M 57.6 73.778567 
L 414.72 73.778567 
" style="fill:none;stroke:#b0b0b0;stroke-linecap:square;stroke-width:0.8;"/>
     </g>
     <g id="line2d_24">
      <g>
       <use style="stroke:#000000;stroke-width:0.8;" x="57.6" xlink:href="#mdcad574aed" y="73.778567"/>
      </g>
     </g>
     <g id="text_13">
      <!-- 1.0 -->
      <g transform="translate(34.696875 77.577786)scale(0.1 -0.1)">
       <use xlink:href="#DejaVuSans-49"/>
       <use x="63.623047" xlink:href="#DejaVuSans-46"/>
       <use x="95.410156" xlink:href="#DejaVuSans-48"/>
      </g>
     </g>
    </g>
    <g id="text_14">
     <!-- Scores -->
     <defs>
      <path d="M 53.515625 70.515625 
L 53.515625 60.890625 
Q 47.90625 63.578125 42.921875 64.890625 
Q 37.9375 66.21875 33.296875 66.21875 
Q 25.25 66.21875 20.875 63.09375 
Q 16.5 59.96875 16.5 54.203125 
Q 16.5 49.359375 19.40625 46.890625 
Q 22.3125 44.4375 30.421875 42.921875 
L 36.375 41.703125 
Q 47.40625 39.59375 52.65625 34.296875 
Q 57.90625 29 57.90625 20.125 
Q 57.90625 9.515625 50.796875 4.046875 
Q 43.703125 -1.421875 29.984375 -1.421875 
Q 24.8125 -1.421875 18.96875 -0.25 
Q 13.140625 0.921875 6.890625 3.21875 
L 6.890625 13.375 
Q 12.890625 10.015625 18.65625 8.296875 
Q 24.421875 6.59375 29.984375 6.59375 
Q 38.421875 6.59375 43.015625 9.90625 
Q 47.609375 13.234375 47.609375 19.390625 
Q 47.609375 24.75 44.3125 27.78125 
Q 41.015625 30.8125 33.5 32.328125 
L 27.484375 33.5 
Q 16.453125 35.6875 11.515625 40.375 
Q 6.59375 45.0625 6.59375 53.421875 
Q 6.59375 63.09375 13.40625 68.65625 
Q 20.21875 74.21875 32.171875 74.21875 
Q 37.3125 74.21875 42.625 73.28125 
Q 47.953125 72.359375 53.515625 70.515625 
z
" id="DejaVuSans-83"/>
      <path d="M 48.78125 52.59375 
L 48.78125 44.1875 
Q 44.96875 46.296875 41.140625 47.34375 
Q 37.3125 48.390625 33.40625 48.390625 
Q 24.65625 48.390625 19.8125 42.84375 
Q 14.984375 37.3125 14.984375 27.296875 
Q 14.984375 17.28125 19.8125 11.734375 
Q 24.65625 6.203125 33.40625 6.203125 
Q 37.3125 6.203125 41.140625 7.25 
Q 44.96875 8.296875 48.78125 10.40625 
L 48.78125 2.09375 
Q 45.015625 0.34375 40.984375 -0.53125 
Q 36.96875 -1.421875 32.421875 -1.421875 
Q 20.0625 -1.421875 12.78125 6.34375 
Q 5.515625 14.109375 5.515625 27.296875 
Q 5.515625 40.671875 12.859375 48.328125 
Q 20.21875 56 33.015625 56 
Q 37.15625 56 41.109375 55.140625 
Q 45.0625 54.296875 48.78125 52.59375 
z
" id="DejaVuSans-99"/>
     </defs>
     <g transform="translate(28.617187 191.245969)rotate(-90)scale(0.1 -0.1)">
      <use xlink:href="#DejaVuSans-83"/>
      <use x="63.476562" xlink:href="#DejaVuSans-99"/>
      <use x="118.457031" xlink:href="#DejaVuSans-111"/>
      <use x="179.638672" xlink:href="#DejaVuSans-114"/>
      <use x="220.720703" xlink:href="#DejaVuSans-101"/>
      <use x="282.244141" xlink:href="#DejaVuSans-115"/>
     </g>
    </g>
   </g>
   <g id="line2d_25">
    <path clip-path="url(#p0916c3bae2)" d="M 73.832727 199.187981 
L 74.918528 195.170469 
L 76.00433 197.381085 
L 77.090131 194.904604 
L 78.175932 194.343334 
L 79.261733 188.95711 
L 80.347534 185.062683 
L 81.433335 192.20697 
L 82.519137 176.266135 
L 83.604938 158.476202 
L 84.690739 162.549803 
L 85.77654 148.780376 
L 86.862341 150.505181 
L 87.948142 140.174434 
L 89.033943 138.442796 
L 90.119745 109.109046 
L 91.205546 115.941405 
L 92.291347 133.057538 
L 93.377148 133.164888 
L 94.462949 112.573126 
L 95.54875 136.238455 
L 96.634552 128.438209 
L 97.720353 119.576242 
L 98.806154 132.642426 
L 99.891955 129.851424 
L 100.977756 124.657214 
L 102.063557 116.774815 
L 103.149358 126.060389 
L 104.23516 108.880559 
L 105.320961 110.558542 
L 106.406762 111.075905 
L 107.492563 114.416495 
L 108.578364 111.085559 
L 109.664165 101.226647 
L 110.749967 104.63034 
L 111.835768 116.046148 
L 112.921569 103.962161 
L 114.00737 115.095928 
L 115.093171 106.70521 
L 116.178972 114.918685 
L 117.264773 114.843929 
L 118.350575 110.689465 
L 119.436376 107.820516 
L 120.522177 117.798887 
L 121.607978 120.097353 
L 122.693779 105.378901 
L 123.77958 116.203698 
L 124.865382 114.460806 
L 125.951183 114.874663 
L 127.036984 108.286835 
L 128.122785 105.872523 
L 129.208586 114.642973 
L 130.294387 132.989961 
L 131.380189 111.354127 
L 132.46599 122.180732 
L 133.551791 109.202591 
L 135.723393 121.978872 
L 136.809194 121.200971 
L 137.894995 115.061464 
L 138.980797 106.450398 
L 140.066598 103.786827 
L 141.152399 109.562001 
L 142.2382 116.622189 
L 143.324001 113.668135 
L 144.409802 111.457519 
L 145.495604 106.785191 
L 146.581405 100.596449 
L 147.667206 93.063613 
L 148.753007 106.19438 
L 149.838808 101.04448 
L 150.924609 101.448201 
L 152.01041 104.628732 
L 153.096212 99.882553 
L 154.182013 104.476106 
L 155.267814 99.818548 
L 156.353615 104.357944 
L 157.439416 109.827866 
L 158.525217 94.722806 
L 159.611019 105.958056 
L 160.69682 101.256188 
L 161.782621 104.156083 
L 162.868422 111.619992 
L 163.954223 113.062554 
L 165.040024 125.174173 
L 166.125825 113.35796 
L 167.211627 125.513889 
L 168.297428 117.144071 
L 169.383229 119.906111 
L 170.46903 127.822974 
L 171.554831 118.990355 
L 172.640632 120.319679 
L 173.726434 119.896265 
L 174.812235 117.710265 
L 175.898036 124.588286 
L 176.983837 109.990339 
L 178.069638 107.582785 
L 179.155439 90.695447 
L 180.24124 102.752908 
L 181.327042 108.434537 
L 182.412843 111.649532 
L 183.498644 110.802703 
L 184.584445 113.01332 
L 185.670246 99.695463 
L 186.756047 111.053798 
L 187.841849 106.691646 
L 188.92765 104.717353 
L 190.013451 99.316359 
L 191.099252 127.626038 
L 192.185053 114.032469 
L 193.270854 109.763861 
L 194.356656 112.141874 
L 195.442457 102.393498 
L 197.614059 116.016608 
L 198.69986 117.754576 
L 199.785661 102.930151 
L 200.871462 119.714098 
L 201.957264 111.152266 
L 203.043065 114.82514 
L 204.128866 122.175809 
L 205.214667 120.900643 
L 206.300468 104.161007 
L 207.386269 124.396273 
L 208.472071 99.990868 
L 209.557872 106.967357 
L 210.643673 111.152266 
L 211.729474 101.034634 
L 212.815275 107.868344 
L 213.901076 112.378199 
L 214.986877 105.066916 
L 216.072679 100.783539 
L 218.244281 109.389681 
L 219.330082 119.448233 
L 221.501684 95.687797 
L 222.587486 102.688903 
L 223.673287 95.697644 
L 224.759088 101.679602 
L 225.844889 102.777525 
L 226.93069 112.456973 
L 228.016491 103.461881 
L 229.102292 111.127649 
L 230.188094 99.01235 
L 231.273895 113.852241 
L 232.359696 117.696489 
L 233.445497 127.109078 
L 234.531298 111.167037 
L 235.617099 122.76662 
L 236.702901 124.135331 
L 237.788702 110.773163 
L 238.874503 109.67524 
L 239.960304 107.292303 
L 241.046105 108.345916 
L 242.131906 105.613416 
L 243.217708 116.070765 
L 244.303509 106.854119 
L 245.38931 103.767133 
L 246.475111 94.988671 
L 247.560912 117.400089 
L 248.646713 99.53299 
L 249.732514 107.233222 
L 250.818316 106.440551 
L 251.904117 103.914836 
L 252.989918 123.982705 
L 254.075719 100.552138 
L 255.16152 101.906079 
L 256.247321 98.62708 
L 257.333123 110.557995 
L 258.418924 119.679634 
L 259.504725 115.319322 
L 260.590526 93.601559 
L 261.676327 121.949332 
L 262.762128 109.222235 
L 263.847929 121.333904 
L 264.933731 107.613691 
L 266.019532 114.418738 
L 267.105333 104.71243 
L 268.191134 115.203561 
L 269.276935 116.547691 
L 270.362736 111.334433 
L 271.448538 112.95146 
L 272.534339 126.409952 
L 273.62014 113.477925 
L 274.705941 97.932877 
L 275.791742 108.057286 
L 276.877543 133.058562 
L 277.963344 137.482729 
L 279.049146 135.19948 
L 280.134947 142.819719 
L 281.220748 131.461384 
L 282.306549 132.972874 
L 283.39235 119.315301 
L 284.478151 101.866692 
L 285.563953 112.914852 
L 286.649754 114.455883 
L 287.735555 111.024257 
L 288.821356 108.508389 
L 289.907157 116.956981 
L 290.992958 109.808172 
L 292.07876 107.297227 
L 293.164561 114.446036 
L 294.250362 103.092624 
L 295.336163 116.228315 
L 296.421964 117.380396 
L 297.507765 106.622718 
L 298.593566 114.357414 
L 299.679368 107.119984 
L 300.765169 104.077309 
L 302.936771 111.122726 
L 304.022572 108.414844 
L 305.108373 115.470108 
L 306.194175 108.97119 
L 307.279976 111.009487 
L 308.365777 106.603024 
L 309.451578 113.604131 
L 310.537379 102.66921 
L 311.62318 115.411027 
L 312.708981 113.515509 
L 313.794783 105.042299 
L 314.880584 117.887508 
L 315.966385 107.11506 
L 317.052186 108.808717 
L 318.137987 111.841546 
L 319.223788 112.058176 
L 320.30959 105.578952 
L 321.395391 107.410465 
L 322.481192 120.122742 
L 323.566993 111.14242 
L 324.652794 119.039589 
L 325.738595 113.018244 
L 326.824396 112.806536 
L 328.995999 100.837697 
L 330.0818 120.654472 
L 331.167601 115.622734 
L 332.253402 102.240872 
L 333.339203 106.283002 
L 334.425005 105.303241 
L 335.510806 109.020425 
L 336.596607 99.53299 
L 337.682408 106.430704 
L 338.768209 104.879826 
L 339.85401 96.544472 
L 340.939811 109.138587 
L 342.025613 103.082777 
L 343.111414 114.30818 
L 344.197215 109.497997 
L 345.283016 101.507282 
L 346.368817 106.657182 
L 347.454618 104.756741 
L 349.626221 109.329577 
L 350.712022 103.709076 
L 351.797823 108.203526 
L 352.883624 98.147071 
L 353.969425 103.511115 
L 355.055227 107.988893 
L 356.141028 104.393303 
L 357.226829 108.483772 
L 358.31263 95.256388 
L 359.398431 106.02206 
L 360.484232 95.575901 
L 361.570033 109.553812 
L 362.655835 111.102087 
L 363.741636 101.622714 
L 364.827437 118.315846 
L 365.913238 114.369449 
L 366.999039 112.106664 
L 368.08484 91.310874 
L 369.170642 103.284289 
L 370.256443 106.064282 
L 372.428045 97.055143 
L 373.513846 103.163112 
L 374.599647 107.159371 
L 375.685448 109.591542 
L 376.77125 116.553261 
L 377.857051 103.663741 
L 378.942852 105.559259 
L 380.028653 102.530349 
L 381.114454 97.441138 
L 382.200255 91.184314 
L 383.286057 93.107924 
L 384.371858 97.811626 
L 385.457659 107.134754 
L 386.54346 103.801396 
L 387.629261 98.873251 
L 388.715062 119.738715 
L 389.800863 105.484403 
L 390.886665 105.86287 
L 391.972466 105.716808 
L 393.058267 115.033951 
L 395.229869 102.378728 
L 396.31567 108.488695 
L 397.401472 119.970116 
L 398.487273 114.071856 
L 398.487273 114.071856 
" style="fill:none;stroke:#0000ff;stroke-linecap:square;stroke-width:1.5;"/>
   </g>
   <g id="line2d_26">
    <path clip-path="url(#p0916c3bae2)" d="M 73.832727 198.649 
L 74.918528 197.115678 
L 76.00433 196.794674 
L 77.090131 196.878412 
L 78.175932 195.277846 
L 79.261733 196.078323 
L 80.347534 194.594464 
L 81.433335 196.488585 
L 82.519137 195.601727 
L 83.604938 195.440995 
L 84.690739 197.449077 
L 85.77654 193.289684 
L 86.862341 193.069417 
L 87.948142 195.169555 
L 89.033943 196.085624 
L 90.119745 194.411625 
L 92.291347 188.658368 
L 93.377148 183.269179 
L 94.462949 188.351095 
L 95.54875 181.872688 
L 96.634552 181.306437 
L 97.720353 177.498845 
L 98.806154 185.909819 
L 99.891955 183.877256 
L 100.977756 177.404298 
L 102.063557 176.173117 
L 103.149358 175.36389 
L 104.23516 174.969937 
L 105.320961 175.883495 
L 106.406762 175.428785 
L 107.492563 171.790771 
L 108.578364 169.802139 
L 109.664165 169.708028 
L 110.749967 171.67679 
L 111.835768 175.003226 
L 112.921569 171.777327 
L 114.00737 174.461367 
L 115.093171 173.49825 
L 116.178972 177.499239 
L 117.264773 174.705483 
L 118.350575 172.555574 
L 119.436376 174.049942 
L 120.522177 178.543878 
L 121.607978 171.971872 
L 122.693779 172.290542 
L 123.77958 166.570772 
L 124.865382 173.837004 
L 125.951183 171.589647 
L 127.036984 178.087173 
L 128.122785 170.811352 
L 129.208586 169.997544 
L 130.294387 164.160632 
L 131.380189 167.290101 
L 132.46599 169.678716 
L 133.551791 166.400373 
L 134.637592 160.666667 
L 135.723393 162.037336 
L 136.809194 165.198182 
L 137.894995 169.391648 
L 138.980797 172.301015 
L 140.066598 169.660328 
L 141.152399 163.641169 
L 142.2382 163.0275 
L 143.324001 159.767718 
L 144.409802 157.677354 
L 145.495604 171.043918 
L 146.581405 165.095811 
L 147.667206 154.14546 
L 148.753007 156.423137 
L 149.838808 147.362153 
L 150.924609 153.391331 
L 152.01041 153.676416 
L 153.096212 151.295072 
L 154.182013 145.689674 
L 155.267814 143.533643 
L 156.353615 154.476326 
L 157.439416 149.260966 
L 158.525217 145.575917 
L 159.611019 155.120741 
L 160.69682 155.930958 
L 162.868422 144.530297 
L 163.954223 145.773315 
L 165.040024 152.399271 
L 166.125825 152.016301 
L 167.211627 148.396635 
L 168.297428 153.529883 
L 169.383229 148.978047 
L 170.46903 146.611219 
L 171.554831 145.952899 
L 172.640632 150.003466 
L 173.726434 152.632282 
L 174.812235 144.724809 
L 175.898036 148.370838 
L 176.983837 150.981111 
L 178.069638 151.954997 
L 179.155439 145.872616 
L 180.24124 141.015481 
L 181.327042 143.750481 
L 182.412843 150.257905 
L 183.498644 146.398244 
L 184.584445 151.084272 
L 185.670246 142.145646 
L 186.756047 139.309772 
L 187.841849 148.157631 
L 188.92765 150.494137 
L 190.013451 144.619191 
L 191.099252 146.795433 
L 192.185053 143.980978 
L 193.270854 145.865789 
L 194.356656 144.776424 
L 195.442457 146.842398 
L 196.528258 145.094562 
L 197.614059 147.65599 
L 198.69986 147.833073 
L 199.785661 142.686249 
L 200.871462 139.024848 
L 201.957264 144.983218 
L 203.043065 144.344878 
L 204.128866 141.262265 
L 205.214667 147.957227 
L 206.300468 149.965436 
L 207.386269 149.937212 
L 208.472071 144.061334 
L 209.557872 147.603537 
L 210.643673 152.815723 
L 211.729474 156.08729 
L 212.815275 144.47026 
L 213.901076 136.44898 
L 214.986877 145.488706 
L 216.072679 139.364789 
L 217.15848 141.866449 
L 219.330082 149.486728 
L 220.415883 152.087777 
L 221.501684 150.039814 
L 222.587486 155.834829 
L 223.673287 152.85663 
L 224.759088 148.124446 
L 225.844889 149.045386 
L 226.93069 150.240848 
L 228.016491 148.04306 
L 229.102292 150.892485 
L 231.273895 150.618769 
L 232.359696 146.38079 
L 233.445497 156.122552 
L 234.531298 145.967977 
L 235.617099 152.653572 
L 236.702901 144.354752 
L 237.788702 147.545963 
L 238.874503 147.945268 
L 239.960304 151.687314 
L 241.046105 153.104792 
L 243.217708 148.317141 
L 244.303509 151.646013 
L 245.38931 146.185699 
L 246.475111 147.56705 
L 247.560912 150.206823 
L 248.646713 150.615145 
L 249.732514 150.418256 
L 250.818316 142.558857 
L 251.904117 144.446528 
L 252.989918 143.079544 
L 254.075719 149.909403 
L 255.16152 148.931318 
L 256.247321 149.304109 
L 257.333123 148.775403 
L 258.418924 148.683283 
L 259.504725 148.38478 
L 260.590526 144.671162 
L 261.676327 143.450672 
L 262.762128 146.224698 
L 263.847929 146.303023 
L 264.933731 149.875015 
L 266.019532 146.649065 
L 267.105333 140.71534 
L 269.276935 144.421586 
L 270.362736 143.81455 
L 271.448538 144.926551 
L 272.534339 143.704121 
L 273.62014 150.776286 
L 274.705941 147.660552 
L 275.791742 152.985065 
L 276.877543 149.583444 
L 277.963344 136.73216 
L 279.049146 141.531463 
L 280.134947 143.724513 
L 281.220748 146.415724 
L 282.306549 143.092669 
L 283.39235 141.453385 
L 284.478151 148.469479 
L 285.563953 141.977647 
L 286.649754 139.059713 
L 287.735555 151.928002 
L 288.821356 149.379049 
L 289.907157 139.125548 
L 290.992958 144.229787 
L 292.07876 142.716822 
L 293.164561 146.957752 
L 294.250362 139.735407 
L 295.336163 138.041664 
L 296.421964 140.758648 
L 297.507765 143.013737 
L 299.679368 134.515622 
L 300.765169 136.112147 
L 301.85097 144.271763 
L 302.936771 138.375757 
L 304.022572 135.422864 
L 305.108373 144.970581 
L 306.194175 135.208105 
L 307.279976 132.555559 
L 308.365777 133.779008 
L 309.451578 139.770142 
L 310.537379 139.227864 
L 311.62318 136.335826 
L 312.708981 130.460356 
L 313.794783 138.006857 
L 314.880584 140.111816 
L 315.966385 145.88823 
L 317.052186 134.739016 
L 318.137987 139.714687 
L 319.223788 136.592672 
L 320.30959 147.410332 
L 321.395391 142.421624 
L 322.481192 129.673989 
L 323.566993 124.040876 
L 324.652794 133.568974 
L 325.738595 123.949587 
L 326.824396 116.753981 
L 327.910198 123.193903 
L 328.995999 124.637574 
L 330.0818 119.590428 
L 331.167601 112.222943 
L 332.253402 115.705759 
L 333.339203 115.983753 
L 334.425005 127.870828 
L 335.510806 113.1363 
L 336.596607 119.185094 
L 337.682408 118.555911 
L 338.768209 114.602768 
L 339.85401 115.643422 
L 340.939811 119.845553 
L 342.025613 114.957653 
L 343.111414 116.679287 
L 344.197215 125.120684 
L 345.283016 119.771795 
L 346.368817 126.867139 
L 347.454618 122.985021 
L 348.54042 115.5916 
L 349.626221 122.618072 
L 350.712022 125.309097 
L 351.797823 124.47062 
L 352.883624 125.529835 
L 353.969425 122.590414 
L 355.055227 128.696733 
L 356.141028 115.554033 
L 357.226829 104.016688 
L 358.31263 115.533401 
L 359.398431 131.101341 
L 360.484232 121.513087 
L 361.570033 126.454065 
L 362.655835 123.777239 
L 363.741636 126.770865 
L 364.827437 128.286639 
L 365.913238 121.716031 
L 366.999039 126.574834 
L 368.08484 129.842591 
L 369.170642 120.362388 
L 370.256443 124.269329 
L 371.342244 119.628843 
L 372.428045 112.507546 
L 373.513846 112.991492 
L 374.599647 122.230219 
L 375.685448 117.88905 
L 376.77125 123.766573 
L 377.857051 123.981227 
L 378.942852 127.198097 
L 380.028653 124.50497 
L 381.114454 127.338037 
L 382.200255 133.530905 
L 383.286057 128.610935 
L 384.371858 131.044578 
L 385.457659 136.025577 
L 386.54346 133.935437 
L 387.629261 127.678612 
L 388.715062 134.38611 
L 390.886665 122.688125 
L 391.972466 126.40279 
L 393.058267 124.538139 
L 394.144068 132.695908 
L 395.229869 124.366821 
L 396.31567 126.28678 
L 397.401472 131.509145 
L 398.487273 122.304879 
L 398.487273 122.304879 
" style="fill:none;stroke:#ff0000;stroke-linecap:square;stroke-width:1.5;"/>
   </g>
   <g id="line2d_27">
    <path clip-path="url(#p0916c3bae2)" d="M 73.832727 289.586435 
L 76.00433 288.592868 
L 77.090131 289.465955 
L 78.175932 287.672216 
L 79.261733 288.758982 
L 80.347534 287.466441 
L 81.433335 289.201153 
L 82.519137 289.055884 
L 83.604938 287.856332 
L 84.690739 290.253071 
L 85.77654 285.939455 
L 86.862341 285.995451 
L 87.948142 287.791894 
L 90.119745 287.23751 
L 91.205546 284.055795 
L 92.291347 283.304104 
L 93.377148 278.314444 
L 94.462949 282.969167 
L 95.54875 277.441104 
L 96.634552 278.243379 
L 97.720353 274.230187 
L 98.806154 280.875843 
L 99.891955 279.523361 
L 100.977756 275.698684 
L 102.063557 272.615405 
L 103.149358 276.293825 
L 104.23516 271.119929 
L 105.320961 273.890611 
L 106.406762 272.858775 
L 107.492563 269.601011 
L 108.578364 268.122431 
L 109.664165 267.187358 
L 110.749967 267.646798 
L 111.835768 272.175466 
L 112.921569 268.136055 
L 114.00737 270.806802 
L 115.093171 270.278883 
L 116.178972 273.343906 
L 117.264773 273.707446 
L 118.350575 270.901677 
L 119.436376 270.610569 
L 120.522177 275.967757 
L 121.607978 270.15535 
L 122.693779 270.595693 
L 123.77958 264.222806 
L 124.865382 271.161166 
L 125.951183 267.164896 
L 127.036984 274.006187 
L 128.122785 268.583032 
L 129.208586 268.604423 
L 130.294387 261.177505 
L 131.380189 262.127341 
L 132.46599 267.187701 
L 133.551791 261.204175 
L 134.637592 257.701966 
L 135.723393 259.212879 
L 136.809194 263.235224 
L 137.894995 264.741926 
L 138.980797 268.477857 
L 140.066598 266.656425 
L 141.152399 260.264149 
L 142.2382 258.110998 
L 143.324001 256.500992 
L 144.409802 252.370015 
L 145.495604 269.489867 
L 146.581405 260.526944 
L 147.667206 248.34167 
L 148.753007 250.860132 
L 149.838808 240.925666 
L 150.924609 247.426059 
L 152.01041 248.081998 
L 153.096212 245.097408 
L 154.182013 238.326822 
L 155.267814 236.48391 
L 156.353615 251.953379 
L 157.439416 243.882933 
L 158.525217 239.221454 
L 159.611019 251.277511 
L 160.69682 250.371505 
L 162.868422 237.328026 
L 163.954223 238.372247 
L 165.040024 245.398442 
L 166.125825 245.895626 
L 167.211627 242.387866 
L 168.297428 248.228378 
L 169.383229 242.784557 
L 170.46903 239.440383 
L 171.554831 238.060547 
L 172.640632 244.510707 
L 173.726434 246.336453 
L 174.812235 237.76789 
L 176.983837 244.466151 
L 178.069638 245.746326 
L 179.155439 238.780878 
L 180.24124 232.759251 
L 181.327042 237.233531 
L 182.412843 244.464586 
L 183.498644 238.472297 
L 184.584445 246.281341 
L 185.670246 233.217288 
L 186.756047 229.021744 
L 187.841849 243.515341 
L 188.92765 244.066129 
L 190.013451 235.891528 
L 191.099252 240.462494 
L 192.185053 240.553431 
L 193.270854 236.729414 
L 194.356656 233.97408 
L 195.442457 238.8183 
L 196.528258 239.642504 
L 197.614059 238.82877 
L 198.69986 241.737646 
L 199.785661 234.853542 
L 200.871462 230.760252 
L 201.957264 237.404411 
L 203.043065 238.716302 
L 204.128866 231.682571 
L 205.214667 241.205218 
L 206.300468 244.280884 
L 207.386269 244.974517 
L 208.472071 236.704908 
L 209.557872 241.393935 
L 210.643673 248.972315 
L 211.729474 251.357326 
L 212.815275 236.431461 
L 213.901076 231.546554 
L 214.986877 240.928208 
L 216.072679 231.524274 
L 217.15848 233.708314 
L 218.244281 240.801692 
L 219.330082 245.253874 
L 220.415883 246.580644 
L 221.501684 243.57715 
L 222.587486 251.000636 
L 224.759088 241.732851 
L 225.844889 243.923838 
L 226.93069 244.668485 
L 228.016491 241.297062 
L 229.102292 241.680863 
L 230.188094 247.135292 
L 231.273895 244.332291 
L 232.359696 240.741375 
L 233.445497 250.673866 
L 234.531298 240.741872 
L 235.617099 248.257788 
L 236.702901 238.470687 
L 237.788702 241.222911 
L 238.874503 242.881789 
L 239.960304 246.677469 
L 241.046105 247.896099 
L 242.131906 244.654411 
L 243.217708 243.996348 
L 244.303509 245.639082 
L 245.38931 238.844507 
L 246.475111 244.118505 
L 248.646713 245.515577 
L 249.732514 243.837815 
L 250.818316 234.439052 
L 251.904117 236.823526 
L 252.989918 233.17023 
L 254.075719 246.680373 
L 255.16152 242.276435 
L 257.333123 243.26858 
L 258.418924 241.985644 
L 259.504725 241.252336 
L 260.590526 237.413455 
L 261.676327 236.793553 
L 262.762128 239.765476 
L 263.847929 240.483553 
L 264.933731 243.086208 
L 266.019532 239.042405 
L 267.105333 232.56648 
L 268.191134 235.782382 
L 269.276935 236.621606 
L 270.362736 235.744856 
L 271.448538 238.738633 
L 272.534339 236.005334 
L 273.62014 244.918726 
L 274.705941 240.168767 
L 275.791742 246.518746 
L 276.877543 244.760134 
L 277.963344 226.372559 
L 279.049146 233.129817 
L 280.134947 237.569518 
L 281.220748 240.58907 
L 282.306549 236.262009 
L 283.39235 234.758139 
L 284.478151 241.545822 
L 285.563953 233.542715 
L 286.649754 229.688385 
L 287.735555 246.588038 
L 288.821356 242.967381 
L 289.907157 229.864079 
L 290.992958 235.359673 
L 292.07876 233.794546 
L 293.164561 240.085723 
L 294.250362 228.841034 
L 295.336163 226.281227 
L 296.421964 226.001219 
L 297.507765 229.775243 
L 298.593566 227.169012 
L 299.679368 220.294371 
L 300.765169 219.070979 
L 301.85097 236.292075 
L 302.936771 224.131119 
L 304.022572 216.39336 
L 305.108373 236.356599 
L 306.194175 217.106582 
L 307.279976 214.128882 
L 308.365777 217.254798 
L 309.451578 226.598597 
L 310.537379 222.597747 
L 311.62318 220.210682 
L 312.708981 209.269711 
L 313.794783 224.691047 
L 314.880584 226.125101 
L 315.966385 232.759676 
L 317.052186 219.695104 
L 318.137987 223.629412 
L 319.223788 220.332173 
L 320.30959 236.873767 
L 321.395391 229.459465 
L 322.481192 209.488888 
L 323.566993 197.867977 
L 324.652794 213.373598 
L 325.738595 196.801527 
L 326.824396 184.428019 
L 327.910198 192.359069 
L 328.995999 198.762227 
L 330.0818 189.835347 
L 331.167601 173.393225 
L 332.253402 180.381745 
L 333.339203 181.583983 
L 334.425005 205.854069 
L 335.510806 177.106955 
L 336.596607 191.044078 
L 337.682408 183.006223 
L 338.768209 176.987685 
L 339.85401 179.830622 
L 340.939811 186.853863 
L 342.025613 177.686642 
L 343.111414 183.84729 
L 344.197215 197.769605 
L 345.283016 186.993866 
L 346.368817 196.562801 
L 347.454618 192.087433 
L 348.54042 179.708122 
L 349.626221 193.528463 
L 351.797823 197.17621 
L 352.883624 200.176351 
L 353.969425 190.115696 
L 355.055227 207.292029 
L 356.141028 177.998263 
L 357.226829 154.778969 
L 358.31263 176.737082 
L 359.398431 209.646693 
L 360.484232 188.768179 
L 361.570033 196.967721 
L 362.655835 196.080476 
L 363.741636 198.121444 
L 364.827437 201.690667 
L 365.913238 192.173869 
L 366.999039 200.961716 
L 368.08484 205.29373 
L 369.170642 191.06301 
L 370.256443 193.969772 
L 371.342244 184.357005 
L 372.428045 173.107158 
L 373.513846 172.377233 
L 374.599647 191.138296 
L 375.685448 183.548394 
L 376.77125 193.287709 
L 377.857051 194.492186 
L 378.942852 198.186278 
L 380.028653 191.818119 
L 381.114454 195.380983 
L 382.200255 213.064804 
L 383.286057 201.588889 
L 384.371858 206.572224 
L 385.457659 210.741365 
L 386.54346 209.841454 
L 387.629261 200.964368 
L 388.715062 207.742305 
L 389.800863 203.148895 
L 390.886665 191.095592 
L 391.972466 197.368713 
L 393.058267 197.068299 
L 394.144068 209.654917 
L 395.229869 196.389776 
L 396.31567 202.557777 
L 397.401472 207.668721 
L 398.487273 192.379496 
L 398.487273 192.379496 
" style="fill:none;stroke:#008000;stroke-linecap:square;stroke-width:1.5;"/>
   </g>
   <g id="patch_3">
    <path d="M 57.6 307.584 
L 57.6 41.472 
" style="fill:none;stroke:#000000;stroke-linecap:square;stroke-linejoin:miter;stroke-width:0.8;"/>
   </g>
   <g id="patch_4">
    <path d="M 414.72 307.584 
L 414.72 41.472 
" style="fill:none;stroke:#000000;stroke-linecap:square;stroke-linejoin:miter;stroke-width:0.8;"/>
   </g>
   <g id="patch_5">
    <path d="M 57.6 307.584 
L 414.72 307.584 
" style="fill:none;stroke:#000000;stroke-linecap:square;stroke-linejoin:miter;stroke-width:0.8;"/>
   </g>
   <g id="patch_6">
    <path d="M 57.6 41.472 
L 414.72 41.472 
" style="fill:none;stroke:#000000;stroke-linecap:square;stroke-linejoin:miter;stroke-width:0.8;"/>
   </g>
   <g id="text_15">
    <!-- Scores by generation -->
    <defs>
     <path id="DejaVuSans-32"/>
     <path d="M 48.6875 27.296875 
Q 48.6875 37.203125 44.609375 42.84375 
Q 40.53125 48.484375 33.40625 48.484375 
Q 26.265625 48.484375 22.1875 42.84375 
Q 18.109375 37.203125 18.109375 27.296875 
Q 18.109375 17.390625 22.1875 11.75 
Q 26.265625 6.109375 33.40625 6.109375 
Q 40.53125 6.109375 44.609375 11.75 
Q 48.6875 17.390625 48.6875 27.296875 
z
M 18.109375 46.390625 
Q 20.953125 51.265625 25.265625 53.625 
Q 29.59375 56 35.59375 56 
Q 45.5625 56 51.78125 48.09375 
Q 58.015625 40.1875 58.015625 27.296875 
Q 58.015625 14.40625 51.78125 6.484375 
Q 45.5625 -1.421875 35.59375 -1.421875 
Q 29.59375 -1.421875 25.265625 0.953125 
Q 20.953125 3.328125 18.109375 8.203125 
L 18.109375 0 
L 9.078125 0 
L 9.078125 75.984375 
L 18.109375 75.984375 
z
" id="DejaVuSans-98"/>
     <path d="M 32.171875 -5.078125 
Q 28.375 -14.84375 24.75 -17.8125 
Q 21.140625 -20.796875 15.09375 -20.796875 
L 7.90625 -20.796875 
L 7.90625 -13.28125 
L 13.1875 -13.28125 
Q 16.890625 -13.28125 18.9375 -11.515625 
Q 21 -9.765625 23.484375 -3.21875 
L 25.09375 0.875 
L 2.984375 54.6875 
L 12.5 54.6875 
L 29.59375 11.921875 
L 46.6875 54.6875 
L 56.203125 54.6875 
z
" id="DejaVuSans-121"/>
     <path d="M 45.40625 27.984375 
Q 45.40625 37.75 41.375 43.109375 
Q 37.359375 48.484375 30.078125 48.484375 
Q 22.859375 48.484375 18.828125 43.109375 
Q 14.796875 37.75 14.796875 27.984375 
Q 14.796875 18.265625 18.828125 12.890625 
Q 22.859375 7.515625 30.078125 7.515625 
Q 37.359375 7.515625 41.375 12.890625 
Q 45.40625 18.265625 45.40625 27.984375 
z
M 54.390625 6.78125 
Q 54.390625 -7.171875 48.1875 -13.984375 
Q 42 -20.796875 29.203125 -20.796875 
Q 24.46875 -20.796875 20.265625 -20.09375 
Q 16.0625 -19.390625 12.109375 -17.921875 
L 12.109375 -9.1875 
Q 16.0625 -11.328125 19.921875 -12.34375 
Q 23.78125 -13.375 27.78125 -13.375 
Q 36.625 -13.375 41.015625 -8.765625 
Q 45.40625 -4.15625 45.40625 5.171875 
L 45.40625 9.625 
Q 42.625 4.78125 38.28125 2.390625 
Q 33.9375 0 27.875 0 
Q 17.828125 0 11.671875 7.65625 
Q 5.515625 15.328125 5.515625 27.984375 
Q 5.515625 40.671875 11.671875 48.328125 
Q 17.828125 56 27.875 56 
Q 33.9375 56 38.28125 53.609375 
Q 42.625 51.21875 45.40625 46.390625 
L 45.40625 54.6875 
L 54.390625 54.6875 
z
" id="DejaVuSans-103"/>
    </defs>
    <g transform="translate(172.292812 35.472)scale(0.12 -0.12)">
     <use xlink:href="#DejaVuSans-83"/>
     <use x="63.476562" xlink:href="#DejaVuSans-99"/>
     <use x="118.457031" xlink:href="#DejaVuSans-111"/>
     <use x="179.638672" xlink:href="#DejaVuSans-114"/>
     <use x="220.720703" xlink:href="#DejaVuSans-101"/>
     <use x="282.244141" xlink:href="#DejaVuSans-115"/>
     <use x="334.34375" xlink:href="#DejaVuSans-32"/>
     <use x="366.130859" xlink:href="#DejaVuSans-98"/>
     <use x="429.607422" xlink:href="#DejaVuSans-121"/>
     <use x="488.787109" xlink:href="#DejaVuSans-32"/>
     <use x="520.574219" xlink:href="#DejaVuSans-103"/>
     <use x="584.050781" xlink:href="#DejaVuSans-101"/>
     <use x="645.574219" xlink:href="#DejaVuSans-110"/>
     <use x="708.953125" xlink:href="#DejaVuSans-101"/>
     <use x="770.476562" xlink:href="#DejaVuSans-114"/>
     <use x="811.589844" xlink:href="#DejaVuSans-97"/>
     <use x="872.869141" xlink:href="#DejaVuSans-116"/>
     <use x="912.078125" xlink:href="#DejaVuSans-105"/>
     <use x="939.861328" xlink:href="#DejaVuSans-111"/>
     <use x="1001.042969" xlink:href="#DejaVuSans-110"/>
    </g>
   </g>
   <g id="legend_1">
    <g id="patch_7">
     <path d="M 64.6 93.506375 
L 133.95 93.506375 
Q 135.95 93.506375 135.95 91.506375 
L 135.95 48.472 
Q 135.95 46.472 133.95 46.472 
L 64.6 46.472 
Q 62.6 46.472 62.6 48.472 
L 62.6 91.506375 
Q 62.6 93.506375 64.6 93.506375 
z
" style="fill:#ffffff;opacity:0.8;stroke:#cccccc;stroke-linejoin:miter;"/>
    </g>
    <g id="line2d_28">
     <path d="M 66.6 54.570438 
L 86.6 54.570438 
" style="fill:none;stroke:#0000ff;stroke-linecap:square;stroke-width:1.5;"/>
    </g>
    <g id="line2d_29"/>
    <g id="text_16">
     <!-- species -->
     <defs>
      <path d="M 18.109375 8.203125 
L 18.109375 -20.796875 
L 9.078125 -20.796875 
L 9.078125 54.6875 
L 18.109375 54.6875 
L 18.109375 46.390625 
Q 20.953125 51.265625 25.265625 53.625 
Q 29.59375 56 35.59375 56 
Q 45.5625 56 51.78125 48.09375 
Q 58.015625 40.1875 58.015625 27.296875 
Q 58.015625 14.40625 51.78125 6.484375 
Q 45.5625 -1.421875 35.59375 -1.421875 
Q 29.59375 -1.421875 25.265625 0.953125 
Q 20.953125 3.328125 18.109375 8.203125 
z
M 48.6875 27.296875 
Q 48.6875 37.203125 44.609375 42.84375 
Q 40.53125 48.484375 33.40625 48.484375 
Q 26.265625 48.484375 22.1875 42.84375 
Q 18.109375 37.203125 18.109375 27.296875 
Q 18.109375 17.390625 22.1875 11.75 
Q 26.265625 6.109375 33.40625 6.109375 
Q 40.53125 6.109375 44.609375 11.75 
Q 48.6875 17.390625 48.6875 27.296875 
z
" id="DejaVuSans-112"/>
     </defs>
     <g transform="translate(94.6 58.070438)scale(0.1 -0.1)">
      <use xlink:href="#DejaVuSans-115"/>
      <use x="52.099609" xlink:href="#DejaVuSans-112"/>
      <use x="115.576172" xlink:href="#DejaVuSans-101"/>
      <use x="177.099609" xlink:href="#DejaVuSans-99"/>
      <use x="232.080078" xlink:href="#DejaVuSans-105"/>
      <use x="259.863281" xlink:href="#DejaVuSans-101"/>
      <use x="321.386719" xlink:href="#DejaVuSans-115"/>
     </g>
    </g>
    <g id="line2d_30">
     <path d="M 66.6 69.248563 
L 86.6 69.248563 
" style="fill:none;stroke:#ff0000;stroke-linecap:square;stroke-width:1.5;"/>
    </g>
    <g id="line2d_31"/>
    <g id="text_17">
     <!-- bits -->
     <g transform="translate(94.6 72.748563)scale(0.1 -0.1)">
      <use xlink:href="#DejaVuSans-98"/>
      <use x="63.476562" xlink:href="#DejaVuSans-105"/>
      <use x="91.259766" xlink:href="#DejaVuSans-116"/>
      <use x="130.46875" xlink:href="#DejaVuSans-115"/>
     </g>
    </g>
    <g id="line2d_32">
     <path d="M 66.6 83.926688 
L 86.6 83.926688 
" style="fill:none;stroke:#008000;stroke-linecap:square;stroke-width:1.5;"/>
    </g>
    <g id="line2d_33"/>
    <g id="text_18">
     <!-- total -->
     <defs>
      <path d="M 9.421875 75.984375 
L 18.40625 75.984375 
L 18.40625 0 
L 9.421875 0 
z
" id="DejaVuSans-108"/>
     </defs>
     <g transform="translate(94.6 87.426688)scale(0.1 -0.1)">
      <use xlink:href="#DejaVuSans-116"/>
      <use x="39.208984" xlink:href="#DejaVuSans-111"/>
      <use x="100.390625" xlink:href="#DejaVuSans-116"/>
      <use x="139.599609" xlink:href="#DejaVuSans-97"/>
      <use x="200.878906" xlink:href="#DejaVuSans-108"/>
     </g>
    </g>
   </g>
  </g>
 </g>
 <defs>
  <clipPath id="p0916c3bae2">
   <rect height="266.112" width="357.12" x="57.6" y="41.472"/>
  </clipPath>
 </defs>
</svg>
