<?xml version="1.0" encoding="utf-8" standalone="no"?>
<!DOCTYPE svg PUBLIC "-//W3C//DTD SVG 1.1//EN"
  "http://www.w3.org/Graphics/SVG/1.1/DTD/svg11.dtd">
<!-- Created with matplotlib (https://matplotlib.org/) -->
<svg height="345.6pt" version="1.1" viewBox="0 0 460.8 345.6" width="460.8pt" xmlns="http://www.w3.org/2000/svg" xmlns:xlink="http://www.w3.org/1999/xlink">
 <defs>
  <style type="text/css">
*{stroke-linecap:butt;stroke-linejoin:round;}
  </style>
 </defs>
 <g id="figure_1">
  <g id="patch_1">
   <path d="M 0 345.6 
L 460.8 345.6 
L 460.8 0 
L 0 0 
z
" style="fill:#ffffff;"/>
  </g>
  <g id="axes_1">
   <g id="patch_2">
    <path d="M 57.6 307.584 
L 414.72 307.584 
L 414.72 41.472 
L 57.6 41.472 
z
" style="fill:#ffffff;"/>
   </g>
   <g id="matplotlib.axis_1">
    <g id="xtick_1">
     <g id="line2d_1">
      <path clip-path="url(#peaae0a2dc8)" d="M 73.832727 307.584 
L 73.832727 41.472 
" style="fill:none;stroke:#b0b0b0;stroke-linecap:square;stroke-width:0.8;"/>
     </g>
     <g id="line2d_2">
      <defs>
       <path d="M 0 0 
L 0 3.5 
" id="m5d3371ac54" style="stroke:#000000;stroke-width:0.8;"/>
      </defs>
      <g>
       <use style="stroke:#000000;stroke-width:0.8;" x="73.832727" xlink:href="#m5d3371ac54" y="307.584"/>
      </g>
     </g>
     <g id="text_1">
      <!-- 0 -->
      <defs>
       <path d="M 31.78125 66.40625 
Q 24.171875 66.40625 20.328125 58.90625 
Q 16.5 51.421875 16.5 36.375 
Q 16.5 21.390625 20.328125 13.890625 
Q 24.171875 6.390625 31.78125 6.390625 
Q 39.453125 6.390625 43.28125 13.890625 
Q 47.125 21.390625 47.125 36.375 
Q 47.125 51.421875 43.28125 58.90625 
Q 39.453125 66.40625 31.78125 66.40625 
z
M 31.78125 74.21875 
Q 44.046875 74.21875 50.515625 64.515625 
Q 56.984375 54.828125 56.984375 36.375 
Q 56.984375 17.96875 50.515625 8.265625 
Q 44.046875 -1.421875 31.78125 -1.421875 
Q 19.53125 -1.421875 13.0625 8.265625 
Q 6.59375 17.96875 6.59375 36.375 
Q 6.59375 54.828125 13.0625 64.515625 
Q 19.53125 74.21875 31.78125 74.21875 
z
" id="DejaVuSans-48"/>
      </defs>
      <g transform="translate(70.651477 322.182437)scale(0.1 -0.1)">
       <use xlink:href="#DejaVuSans-48"/>
      </g>
     </g>
    </g>
    <g id="xtick_2">
     <g id="line2d_3">
      <path clip-path="url(#peaae0a2dc8)" d="M 128.122785 307.584 
L 128.122785 41.472 
" style="fill:none;stroke:#b0b0b0;stroke-linecap:square;stroke-width:0.8;"/>
     </g>
     <g id="line2d_4">
      <g>
       <use style="stroke:#000000;stroke-width:0.8;" x="128.122785" xlink:href="#m5d3371ac54" y="307.584"/>
      </g>
     </g>
     <g id="text_2">
      <!-- 50 -->
      <defs>
       <path d="M 10.796875 72.90625 
L 49.515625 72.90625 
L 49.515625 64.59375 
L 19.828125 64.59375 
L 19.828125 46.734375 
Q 21.96875 47.46875 24.109375 47.828125 
Q 26.265625 48.1875 28.421875 48.1875 
Q 40.625 48.1875 47.75 41.5 
Q 54.890625 34.8125 54.890625 23.390625 
Q 54.890625 11.625 47.5625 5.09375 
Q 40.234375 -1.421875 26.90625 -1.421875 
Q 22.3125 -1.421875 17.546875 -0.640625 
Q 12.796875 0.140625 7.71875 1.703125 
L 7.71875 11.625 
Q 12.109375 9.234375 16.796875 8.0625 
Q 21.484375 6.890625 26.703125 6.890625 
Q 35.15625 6.890625 40.078125 11.328125 
Q 45.015625 15.765625 45.015625 23.390625 
Q 45.015625 31 40.078125 35.4375 
Q 35.15625 39.890625 26.703125 39.890625 
Q 22.75 39.890625 18.8125 39.015625 
Q 14.890625 38.140625 10.796875 36.28125 
z
" id="DejaVuSans-53"/>
      </defs>
      <g transform="translate(121.760285 322.182437)scale(0.1 -0.1)">
       <use xlink:href="#DejaVuSans-53"/>
       <use x="63.623047" xlink:href="#DejaVuSans-48"/>
      </g>
     </g>
    </g>
    <g id="xtick_3">
     <g id="line2d_5">
      <path clip-path="url(#peaae0a2dc8)" d="M 182.412843 307.584 
L 182.412843 41.472 
" style="fill:none;stroke:#b0b0b0;stroke-linecap:square;stroke-width:0.8;"/>
     </g>
     <g id="line2d_6">
      <g>
       <use style="stroke:#000000;stroke-width:0.8;" x="182.412843" xlink:href="#m5d3371ac54" y="307.584"/>
      </g>
     </g>
     <g id="text_3">
      <!-- 100 -->
      <defs>
       <path d="M 12.40625 8.296875 
L 28.515625 8.296875 
L 28.515625 63.921875 
L 10.984375 60.40625 
L 10.984375 69.390625 
L 28.421875 72.90625 
L 38.28125 72.90625 
L 38.28125 8.296875 
L 54.390625 8.296875 
L 54.390625 0 
L 12.40625 0 
z
" id="DejaVuSans-49"/>
      </defs>
      <g transform="translate(172.869093 322.182437)scale(0.1 -0.1)">
       <use xlink:href="#DejaVuSans-49"/>
       <use x="63.623047" xlink:href="#DejaVuSans-48"/>
       <use x="127.246094" xlink:href="#DejaVuSans-48"/>
      </g>
     </g>
    </g>
    <g id="xtick_4">
     <g id="line2d_7">
      <path clip-path="url(#peaae0a2dc8)" d="M 236.702901 307.584 
L 236.702901 41.472 
" style="fill:none;stroke:#b0b0b0;stroke-linecap:square;stroke-width:0.8;"/>
     </g>
     <g id="line2d_8">
      <g>
       <use style="stroke:#000000;stroke-width:0.8;" x="236.702901" xlink:href="#m5d3371ac54" y="307.584"/>
      </g>
     </g>
     <g id="text_4">
      <!-- 150 -->
      <g transform="translate(227.159151 322.182437)scale(0.1 -0.1)">
       <use xlink:href="#DejaVuSans-49"/>
       <use x="63.623047" xlink:href="#DejaVuSans-53"/>
       <use x="127.246094" xlink:href="#DejaVuSans-48"/>
      </g>
     </g>
    </g>
    <g id="xtick_5">
     <g id="line2d_9">
      <path clip-path="url(#peaae0a2dc8)" d="M 290.992958 307.584 
L 290.992958 41.472 
" style="fill:none;stroke:#b0b0b0;stroke-linecap:square;stroke-width:0.8;"/>
     </g>
     <g id="line2d_10">
      <g>
       <use style="stroke:#000000;stroke-width:0.8;" x="290.992958" xlink:href="#m5d3371ac54" y="307.584"/>
      </g>
     </g>
     <g id="text_5">
      <!-- 200 -->
      <defs>
       <path d="M 19.1875 8.296875 
L 53.609375 8.296875 
L 53.609375 0 
L 7.328125 0 
L 7.328125 8.296875 
Q 12.9375 14.109375 22.625 23.890625 
Q 32.328125 33.6875 34.8125 36.53125 
Q 39.546875 41.84375 41.421875 45.53125 
Q 43.3125 49.21875 43.3125 52.78125 
Q 43.3125 58.59375 39.234375 62.25 
Q 35.15625 65.921875 28.609375 65.921875 
Q 23.96875 65.921875 18.8125 64.3125 
Q 13.671875 62.703125 7.8125 59.421875 
L 7.8125 69.390625 
Q 13.765625 71.78125 18.9375 73 
Q 24.125 74.21875 28.421875 74.21875 
Q 39.75 74.21875 46.484375 68.546875 
Q 53.21875 62.890625 53.21875 53.421875 
Q 53.21875 48.921875 51.53125 44.890625 
Q 49.859375 40.875 45.40625 35.40625 
Q 44.1875 33.984375 37.640625 27.21875 
Q 31.109375 20.453125 19.1875 8.296875 
z
" id="DejaVuSans-50"/>
      </defs>
      <g transform="translate(281.449208 322.182437)scale(0.1 -0.1)">
       <use xlink:href="#DejaVuSans-50"/>
       <use x="63.623047" xlink:href="#DejaVuSans-48"/>
       <use x="127.246094" xlink:href="#DejaVuSans-48"/>
      </g>
     </g>
    </g>
    <g id="xtick_6">
     <g id="line2d_11">
      <path clip-path="url(#peaae0a2dc8)" d="M 345.283016 307.584 
L 345.283016 41.472 
" style="fill:none;stroke:#b0b0b0;stroke-linecap:square;stroke-width:0.8;"/>
     </g>
     <g id="line2d_12">
      <g>
       <use style="stroke:#000000;stroke-width:0.8;" x="345.283016" xlink:href="#m5d3371ac54" y="307.584"/>
      </g>
     </g>
     <g id="text_6">
      <!-- 250 -->
      <g transform="translate(335.739266 322.182437)scale(0.1 -0.1)">
       <use xlink:href="#DejaVuSans-50"/>
       <use x="63.623047" xlink:href="#DejaVuSans-53"/>
       <use x="127.246094" xlink:href="#DejaVuSans-48"/>
      </g>
     </g>
    </g>
    <g id="xtick_7">
     <g id="line2d_13">
      <path clip-path="url(#peaae0a2dc8)" d="M 399.573074 307.584 
L 399.573074 41.472 
" style="fill:none;stroke:#b0b0b0;stroke-linecap:square;stroke-width:0.8;"/>
     </g>
     <g id="line2d_14">
      <g>
       <use style="stroke:#000000;stroke-width:0.8;" x="399.573074" xlink:href="#m5d3371ac54" y="307.584"/>
      </g>
     </g>
     <g id="text_7">
      <!-- 300 -->
      <defs>
       <path d="M 40.578125 39.3125 
Q 47.65625 37.796875 51.625 33 
Q 55.609375 28.21875 55.609375 21.1875 
Q 55.609375 10.40625 48.1875 4.484375 
Q 40.765625 -1.421875 27.09375 -1.421875 
Q 22.515625 -1.421875 17.65625 -0.515625 
Q 12.796875 0.390625 7.625 2.203125 
L 7.625 11.71875 
Q 11.71875 9.328125 16.59375 8.109375 
Q 21.484375 6.890625 26.8125 6.890625 
Q 36.078125 6.890625 40.9375 10.546875 
Q 45.796875 14.203125 45.796875 21.1875 
Q 45.796875 27.640625 41.28125 31.265625 
Q 36.765625 34.90625 28.71875 34.90625 
L 20.21875 34.90625 
L 20.21875 43.015625 
L 29.109375 43.015625 
Q 36.375 43.015625 40.234375 45.921875 
Q 44.09375 48.828125 44.09375 54.296875 
Q 44.09375 59.90625 40.109375 62.90625 
Q 36.140625 65.921875 28.71875 65.921875 
Q 24.65625 65.921875 20.015625 65.03125 
Q 15.375 64.15625 9.8125 62.3125 
L 9.8125 71.09375 
Q 15.4375 72.65625 20.34375 73.4375 
Q 25.25 74.21875 29.59375 74.21875 
Q 40.828125 74.21875 47.359375 69.109375 
Q 53.90625 64.015625 53.90625 55.328125 
Q 53.90625 49.265625 50.4375 45.09375 
Q 46.96875 40.921875 40.578125 39.3125 
z
" id="DejaVuSans-51"/>
      </defs>
      <g transform="translate(390.029324 322.182437)scale(0.1 -0.1)">
       <use xlink:href="#DejaVuSans-51"/>
       <use x="63.623047" xlink:href="#DejaVuSans-48"/>
       <use x="127.246094" xlink:href="#DejaVuSans-48"/>
      </g>
     </g>
    </g>
    <g id="text_8">
     <!-- Generations -->
     <defs>
      <path d="M 59.515625 10.40625 
L 59.515625 29.984375 
L 43.40625 29.984375 
L 43.40625 38.09375 
L 69.28125 38.09375 
L 69.28125 6.78125 
Q 63.578125 2.734375 56.6875 0.65625 
Q 49.8125 -1.421875 42 -1.421875 
Q 24.90625 -1.421875 15.25 8.5625 
Q 5.609375 18.5625 5.609375 36.375 
Q 5.609375 54.25 15.25 64.234375 
Q 24.90625 74.21875 42 74.21875 
Q 49.125 74.21875 55.546875 72.453125 
Q 61.96875 70.703125 67.390625 67.28125 
L 67.390625 56.78125 
Q 61.921875 61.421875 55.765625 63.765625 
Q 49.609375 66.109375 42.828125 66.109375 
Q 29.4375 66.109375 22.71875 58.640625 
Q 16.015625 51.171875 16.015625 36.375 
Q 16.015625 21.625 22.71875 14.15625 
Q 29.4375 6.6875 42.828125 6.6875 
Q 48.046875 6.6875 52.140625 7.59375 
Q 56.25 8.5 59.515625 10.40625 
z
" id="DejaVuSans-71"/>
      <path d="M 56.203125 29.59375 
L 56.203125 25.203125 
L 14.890625 25.203125 
Q 15.484375 15.921875 20.484375 11.0625 
Q 25.484375 6.203125 34.421875 6.203125 
Q 39.59375 6.203125 44.453125 7.46875 
Q 49.3125 8.734375 54.109375 11.28125 
L 54.109375 2.78125 
Q 49.265625 0.734375 44.1875 -0.34375 
Q 39.109375 -1.421875 33.890625 -1.421875 
Q 20.796875 -1.421875 13.15625 6.1875 
Q 5.515625 13.8125 5.515625 26.8125 
Q 5.515625 40.234375 12.765625 48.109375 
Q 20.015625 56 32.328125 56 
Q 43.359375 56 49.78125 48.890625 
Q 56.203125 41.796875 56.203125 29.59375 
z
M 47.21875 32.234375 
Q 47.125 39.59375 43.09375 43.984375 
Q 39.0625 48.390625 32.421875 48.390625 
Q 24.90625 48.390625 20.390625 44.140625 
Q 15.875 39.890625 15.1875 32.171875 
z
" id="DejaVuSans-101"/>
      <path d="M 54.890625 33.015625 
L 54.890625 0 
L 45.90625 0 
L 45.90625 32.71875 
Q 45.90625 40.484375 42.875 44.328125 
Q 39.84375 48.1875 33.796875 48.1875 
Q 26.515625 48.1875 22.3125 43.546875 
Q 18.109375 38.921875 18.109375 30.90625 
L 18.109375 0 
L 9.078125 0 
L 9.078125 54.6875 
L 18.109375 54.6875 
L 18.109375 46.1875 
Q 21.34375 51.125 25.703125 53.5625 
Q 30.078125 56 35.796875 56 
Q 45.21875 56 50.046875 50.171875 
Q 54.890625 44.34375 54.890625 33.015625 
z
" id="DejaVuSans-110"/>
      <path d="M 41.109375 46.296875 
Q 39.59375 47.171875 37.8125 47.578125 
Q 36.03125 48 33.890625 48 
Q 26.265625 48 22.1875 43.046875 
Q 18.109375 38.09375 18.109375 28.8125 
L 18.109375 0 
L 9.078125 0 
L 9.078125 54.6875 
L 18.109375 54.6875 
L 18.109375 46.1875 
Q 20.953125 51.171875 25.484375 53.578125 
Q 30.03125 56 36.53125 56 
Q 37.453125 56 38.578125 55.875 
Q 39.703125 55.765625 41.0625 55.515625 
z
" id="DejaVuSans-114"/>
      <path d="M 34.28125 27.484375 
Q 23.390625 27.484375 19.1875 25 
Q 14.984375 22.515625 14.984375 16.5 
Q 14.984375 11.71875 18.140625 8.90625 
Q 21.296875 6.109375 26.703125 6.109375 
Q 34.1875 6.109375 38.703125 11.40625 
Q 43.21875 16.703125 43.21875 25.484375 
L 43.21875 27.484375 
z
M 52.203125 31.203125 
L 52.203125 0 
L 43.21875 0 
L 43.21875 8.296875 
Q 40.140625 3.328125 35.546875 0.953125 
Q 30.953125 -1.421875 24.3125 -1.421875 
Q 15.921875 -1.421875 10.953125 3.296875 
Q 6 8.015625 6 15.921875 
Q 6 25.140625 12.171875 29.828125 
Q 18.359375 34.515625 30.609375 34.515625 
L 43.21875 34.515625 
L 43.21875 35.40625 
Q 43.21875 41.609375 39.140625 45 
Q 35.0625 48.390625 27.6875 48.390625 
Q 23 48.390625 18.546875 47.265625 
Q 14.109375 46.140625 10.015625 43.890625 
L 10.015625 52.203125 
Q 14.9375 54.109375 19.578125 55.046875 
Q 24.21875 56 28.609375 56 
Q 40.484375 56 46.34375 49.84375 
Q 52.203125 43.703125 52.203125 31.203125 
z
" id="DejaVuSans-97"/>
      <path d="M 18.3125 70.21875 
L 18.3125 54.6875 
L 36.8125 54.6875 
L 36.8125 47.703125 
L 18.3125 47.703125 
L 18.3125 18.015625 
Q 18.3125 11.328125 20.140625 9.421875 
Q 21.96875 7.515625 27.59375 7.515625 
L 36.8125 7.515625 
L 36.8125 0 
L 27.59375 0 
Q 17.1875 0 13.234375 3.875 
Q 9.28125 7.765625 9.28125 18.015625 
L 9.28125 47.703125 
L 2.6875 47.703125 
L 2.6875 54.6875 
L 9.28125 54.6875 
L 9.28125 70.21875 
z
" id="DejaVuSans-116"/>
      <path d="M 9.421875 54.6875 
L 18.40625 54.6875 
L 18.40625 0 
L 9.421875 0 
z
M 9.421875 75.984375 
L 18.40625 75.984375 
L 18.40625 64.59375 
L 9.421875 64.59375 
z
" id="DejaVuSans-105"/>
      <path d="M 30.609375 48.390625 
Q 23.390625 48.390625 19.1875 42.75 
Q 14.984375 37.109375 14.984375 27.296875 
Q 14.984375 17.484375 19.15625 11.84375 
Q 23.34375 6.203125 30.609375 6.203125 
Q 37.796875 6.203125 41.984375 11.859375 
Q 46.1875 17.53125 46.1875 27.296875 
Q 46.1875 37.015625 41.984375 42.703125 
Q 37.796875 48.390625 30.609375 48.390625 
z
M 30.609375 56 
Q 42.328125 56 49.015625 48.375 
Q 55.71875 40.765625 55.71875 27.296875 
Q 55.71875 13.875 49.015625 6.21875 
Q 42.328125 -1.421875 30.609375 -1.421875 
Q 18.84375 -1.421875 12.171875 6.21875 
Q 5.515625 13.875 5.515625 27.296875 
Q 5.515625 40.765625 12.171875 48.375 
Q 18.84375 56 30.609375 56 
z
" id="DejaVuSans-111"/>
      <path d="M 44.28125 53.078125 
L 44.28125 44.578125 
Q 40.484375 46.53125 36.375 47.5 
Q 32.28125 48.484375 27.875 48.484375 
Q 21.1875 48.484375 17.84375 46.4375 
Q 14.5 44.390625 14.5 40.28125 
Q 14.5 37.15625 16.890625 35.375 
Q 19.28125 33.59375 26.515625 31.984375 
L 29.59375 31.296875 
Q 39.15625 29.25 43.1875 25.515625 
Q 47.21875 21.78125 47.21875 15.09375 
Q 47.21875 7.46875 41.1875 3.015625 
Q 35.15625 -1.421875 24.609375 -1.421875 
Q 20.21875 -1.421875 15.453125 -0.5625 
Q 10.6875 0.296875 5.421875 2 
L 5.421875 11.28125 
Q 10.40625 8.6875 15.234375 7.390625 
Q 20.0625 6.109375 24.8125 6.109375 
Q 31.15625 6.109375 34.5625 8.28125 
Q 37.984375 10.453125 37.984375 14.40625 
Q 37.984375 18.0625 35.515625 20.015625 
Q 33.0625 21.96875 24.703125 23.78125 
L 21.578125 24.515625 
Q 13.234375 26.265625 9.515625 29.90625 
Q 5.8125 33.546875 5.8125 39.890625 
Q 5.8125 47.609375 11.28125 51.796875 
Q 16.75 56 26.8125 56 
Q 31.78125 56 36.171875 55.265625 
Q 40.578125 54.546875 44.28125 53.078125 
z
" id="DejaVuSans-115"/>
     </defs>
     <g transform="translate(205.662344 335.860562)scale(0.1 -0.1)">
      <use xlink:href="#DejaVuSans-71"/>
      <use x="77.490234" xlink:href="#DejaVuSans-101"/>
      <use x="139.013672" xlink:href="#DejaVuSans-110"/>
      <use x="202.392578" xlink:href="#DejaVuSans-101"/>
      <use x="263.916016" xlink:href="#DejaVuSans-114"/>
      <use x="305.029297" xlink:href="#DejaVuSans-97"/>
      <use x="366.308594" xlink:href="#DejaVuSans-116"/>
      <use x="405.517578" xlink:href="#DejaVuSans-105"/>
      <use x="433.300781" xlink:href="#DejaVuSans-111"/>
      <use x="494.482422" xlink:href="#DejaVuSans-110"/>
      <use x="557.861328" xlink:href="#DejaVuSans-115"/>
     </g>
    </g>
   </g>
   <g id="matplotlib.axis_2">
    <g id="ytick_1">
     <g id="line2d_15">
      <path clip-path="url(#peaae0a2dc8)" d="M 57.6 283.299913 
L 414.72 283.299913 
" style="fill:none;stroke:#b0b0b0;stroke-linecap:square;stroke-width:0.8;"/>
     </g>
     <g id="line2d_16">
      <defs>
       <path d="M 0 0 
L -3.5 0 
" id="m63a29846d5" style="stroke:#000000;stroke-width:0.8;"/>
      </defs>
      <g>
       <use style="stroke:#000000;stroke-width:0.8;" x="57.6" xlink:href="#m63a29846d5" y="283.299913"/>
      </g>
     </g>
     <g id="text_9">
      <!-- 600 -->
      <defs>
       <path d="M 33.015625 40.375 
Q 26.375 40.375 22.484375 35.828125 
Q 18.609375 31.296875 18.609375 23.390625 
Q 18.609375 15.53125 22.484375 10.953125 
Q 26.375 6.390625 33.015625 6.390625 
Q 39.65625 6.390625 43.53125 10.953125 
Q 47.40625 15.53125 47.40625 23.390625 
Q 47.40625 31.296875 43.53125 35.828125 
Q 39.65625 40.375 33.015625 40.375 
z
M 52.59375 71.296875 
L 52.59375 62.3125 
Q 48.875 64.0625 45.09375 64.984375 
Q 41.3125 65.921875 37.59375 65.921875 
Q 27.828125 65.921875 22.671875 59.328125 
Q 17.53125 52.734375 16.796875 39.40625 
Q 19.671875 43.65625 24.015625 45.921875 
Q 28.375 48.1875 33.59375 48.1875 
Q 44.578125 48.1875 50.953125 41.515625 
Q 57.328125 34.859375 57.328125 23.390625 
Q 57.328125 12.15625 50.6875 5.359375 
Q 44.046875 -1.421875 33.015625 -1.421875 
Q 20.359375 -1.421875 13.671875 8.265625 
Q 6.984375 17.96875 6.984375 36.375 
Q 6.984375 53.65625 15.1875 63.9375 
Q 23.390625 74.21875 37.203125 74.21875 
Q 40.921875 74.21875 44.703125 73.484375 
Q 48.484375 72.75 52.59375 71.296875 
z
" id="DejaVuSans-54"/>
      </defs>
      <g transform="translate(31.5125 287.099132)scale(0.1 -0.1)">
       <use xlink:href="#DejaVuSans-54"/>
       <use x="63.623047" xlink:href="#DejaVuSans-48"/>
       <use x="127.246094" xlink:href="#DejaVuSans-48"/>
      </g>
     </g>
    </g>
    <g id="ytick_2">
     <g id="line2d_17">
      <path clip-path="url(#peaae0a2dc8)" d="M 57.6 250.968844 
L 414.72 250.968844 
" style="fill:none;stroke:#b0b0b0;stroke-linecap:square;stroke-width:0.8;"/>
     </g>
     <g id="line2d_18">
      <g>
       <use style="stroke:#000000;stroke-width:0.8;" x="57.6" xlink:href="#m63a29846d5" y="250.968844"/>
      </g>
     </g>
     <g id="text_10">
      <!-- 800 -->
      <defs>
       <path d="M 31.78125 34.625 
Q 24.75 34.625 20.71875 30.859375 
Q 16.703125 27.09375 16.703125 20.515625 
Q 16.703125 13.921875 20.71875 10.15625 
Q 24.75 6.390625 31.78125 6.390625 
Q 38.8125 6.390625 42.859375 10.171875 
Q 46.921875 13.96875 46.921875 20.515625 
Q 46.921875 27.09375 42.890625 30.859375 
Q 38.875 34.625 31.78125 34.625 
z
M 21.921875 38.8125 
Q 15.578125 40.375 12.03125 44.71875 
Q 8.5 49.078125 8.5 55.328125 
Q 8.5 64.0625 14.71875 69.140625 
Q 20.953125 74.21875 31.78125 74.21875 
Q 42.671875 74.21875 48.875 69.140625 
Q 55.078125 64.0625 55.078125 55.328125 
Q 55.078125 49.078125 51.53125 44.71875 
Q 48 40.375 41.703125 38.8125 
Q 48.828125 37.15625 52.796875 32.3125 
Q 56.78125 27.484375 56.78125 20.515625 
Q 56.78125 9.90625 50.3125 4.234375 
Q 43.84375 -1.421875 31.78125 -1.421875 
Q 19.734375 -1.421875 13.25 4.234375 
Q 6.78125 9.90625 6.78125 20.515625 
Q 6.78125 27.484375 10.78125 32.3125 
Q 14.796875 37.15625 21.921875 38.8125 
z
M 18.3125 54.390625 
Q 18.3125 48.734375 21.84375 45.5625 
Q 25.390625 42.390625 31.78125 42.390625 
Q 38.140625 42.390625 41.71875 45.5625 
Q 45.3125 48.734375 45.3125 54.390625 
Q 45.3125 60.0625 41.71875 63.234375 
Q 38.140625 66.40625 31.78125 66.40625 
Q 25.390625 66.40625 21.84375 63.234375 
Q 18.3125 60.0625 18.3125 54.390625 
z
" id="DejaVuSans-56"/>
      </defs>
      <g transform="translate(31.5125 254.768063)scale(0.1 -0.1)">
       <use xlink:href="#DejaVuSans-56"/>
       <use x="63.623047" xlink:href="#DejaVuSans-48"/>
       <use x="127.246094" xlink:href="#DejaVuSans-48"/>
      </g>
     </g>
    </g>
    <g id="ytick_3">
     <g id="line2d_19">
      <path clip-path="url(#peaae0a2dc8)" d="M 57.6 218.637775 
L 414.72 218.637775 
" style="fill:none;stroke:#b0b0b0;stroke-linecap:square;stroke-width:0.8;"/>
     </g>
     <g id="line2d_20">
      <g>
       <use style="stroke:#000000;stroke-width:0.8;" x="57.6" xlink:href="#m63a29846d5" y="218.637775"/>
      </g>
     </g>
     <g id="text_11">
      <!-- 1000 -->
      <g transform="translate(25.15 222.436993)scale(0.1 -0.1)">
       <use xlink:href="#DejaVuSans-49"/>
       <use x="63.623047" xlink:href="#DejaVuSans-48"/>
       <use x="127.246094" xlink:href="#DejaVuSans-48"/>
       <use x="190.869141" xlink:href="#DejaVuSans-48"/>
      </g>
     </g>
    </g>
    <g id="ytick_4">
     <g id="line2d_21">
      <path clip-path="url(#peaae0a2dc8)" d="M 57.6 186.306705 
L 414.72 186.306705 
" style="fill:none;stroke:#b0b0b0;stroke-linecap:square;stroke-width:0.8;"/>
     </g>
     <g id="line2d_22">
      <g>
       <use style="stroke:#000000;stroke-width:0.8;" x="57.6" xlink:href="#m63a29846d5" y="186.306705"/>
      </g>
     </g>
     <g id="text_12">
      <!-- 1200 -->
      <g transform="translate(25.15 190.105924)scale(0.1 -0.1)">
       <use xlink:href="#DejaVuSans-49"/>
       <use x="63.623047" xlink:href="#DejaVuSans-50"/>
       <use x="127.246094" xlink:href="#DejaVuSans-48"/>
       <use x="190.869141" xlink:href="#DejaVuSans-48"/>
      </g>
     </g>
    </g>
    <g id="ytick_5">
     <g id="line2d_23">
      <path clip-path="url(#peaae0a2dc8)" d="M 57.6 153.975636 
L 414.72 153.975636 
" style="fill:none;stroke:#b0b0b0;stroke-linecap:square;stroke-width:0.8;"/>
     </g>
     <g id="line2d_24">
      <g>
       <use style="stroke:#000000;stroke-width:0.8;" x="57.6" xlink:href="#m63a29846d5" y="153.975636"/>
      </g>
     </g>
     <g id="text_13">
      <!-- 1400 -->
      <defs>
       <path d="M 37.796875 64.3125 
L 12.890625 25.390625 
L 37.796875 25.390625 
z
M 35.203125 72.90625 
L 47.609375 72.90625 
L 47.609375 25.390625 
L 58.015625 25.390625 
L 58.015625 17.1875 
L 47.609375 17.1875 
L 47.609375 0 
L 37.796875 0 
L 37.796875 17.1875 
L 4.890625 17.1875 
L 4.890625 26.703125 
z
" id="DejaVuSans-52"/>
      </defs>
      <g transform="translate(25.15 157.774855)scale(0.1 -0.1)">
       <use xlink:href="#DejaVuSans-49"/>
       <use x="63.623047" xlink:href="#DejaVuSans-52"/>
       <use x="127.246094" xlink:href="#DejaVuSans-48"/>
       <use x="190.869141" xlink:href="#DejaVuSans-48"/>
      </g>
     </g>
    </g>
    <g id="ytick_6">
     <g id="line2d_25">
      <path clip-path="url(#peaae0a2dc8)" d="M 57.6 121.644567 
L 414.72 121.644567 
" style="fill:none;stroke:#b0b0b0;stroke-linecap:square;stroke-width:0.8;"/>
     </g>
     <g id="line2d_26">
      <g>
       <use style="stroke:#000000;stroke-width:0.8;" x="57.6" xlink:href="#m63a29846d5" y="121.644567"/>
      </g>
     </g>
     <g id="text_14">
      <!-- 1600 -->
      <g transform="translate(25.15 125.443786)scale(0.1 -0.1)">
       <use xlink:href="#DejaVuSans-49"/>
       <use x="63.623047" xlink:href="#DejaVuSans-54"/>
       <use x="127.246094" xlink:href="#DejaVuSans-48"/>
       <use x="190.869141" xlink:href="#DejaVuSans-48"/>
      </g>
     </g>
    </g>
    <g id="ytick_7">
     <g id="line2d_27">
      <path clip-path="url(#peaae0a2dc8)" d="M 57.6 89.313498 
L 414.72 89.313498 
" style="fill:none;stroke:#b0b0b0;stroke-linecap:square;stroke-width:0.8;"/>
     </g>
     <g id="line2d_28">
      <g>
       <use style="stroke:#000000;stroke-width:0.8;" x="57.6" xlink:href="#m63a29846d5" y="89.313498"/>
      </g>
     </g>
     <g id="text_15">
      <!-- 1800 -->
      <g transform="translate(25.15 93.112716)scale(0.1 -0.1)">
       <use xlink:href="#DejaVuSans-49"/>
       <use x="63.623047" xlink:href="#DejaVuSans-56"/>
       <use x="127.246094" xlink:href="#DejaVuSans-48"/>
       <use x="190.869141" xlink:href="#DejaVuSans-48"/>
      </g>
     </g>
    </g>
    <g id="ytick_8">
     <g id="line2d_29">
      <path clip-path="url(#peaae0a2dc8)" d="M 57.6 56.982428 
L 414.72 56.982428 
" style="fill:none;stroke:#b0b0b0;stroke-linecap:square;stroke-width:0.8;"/>
     </g>
     <g id="line2d_30">
      <g>
       <use style="stroke:#000000;stroke-width:0.8;" x="57.6" xlink:href="#m63a29846d5" y="56.982428"/>
      </g>
     </g>
     <g id="text_16">
      <!-- 2000 -->
      <g transform="translate(25.15 60.781647)scale(0.1 -0.1)">
       <use xlink:href="#DejaVuSans-50"/>
       <use x="63.623047" xlink:href="#DejaVuSans-48"/>
       <use x="127.246094" xlink:href="#DejaVuSans-48"/>
       <use x="190.869141" xlink:href="#DejaVuSans-48"/>
      </g>
     </g>
    </g>
    <g id="text_17">
     <!-- Fitness -->
     <defs>
      <path d="M 9.8125 72.90625 
L 51.703125 72.90625 
L 51.703125 64.59375 
L 19.671875 64.59375 
L 19.671875 43.109375 
L 48.578125 43.109375 
L 48.578125 34.8125 
L 19.671875 34.8125 
L 19.671875 0 
L 9.8125 0 
z
" id="DejaVuSans-70"/>
     </defs>
     <g transform="translate(19.070312 192.202219)rotate(-90)scale(0.1 -0.1)">
      <use xlink:href="#DejaVuSans-70"/>
      <use x="57.410156" xlink:href="#DejaVuSans-105"/>
      <use x="85.193359" xlink:href="#DejaVuSans-116"/>
      <use x="124.402344" xlink:href="#DejaVuSans-110"/>
      <use x="187.78125" xlink:href="#DejaVuSans-101"/>
      <use x="249.304688" xlink:href="#DejaVuSans-115"/>
      <use x="301.404297" xlink:href="#DejaVuSans-115"/>
     </g>
    </g>
   </g>
   <g id="line2d_31">
    <path clip-path="url(#peaae0a2dc8)" d="M 73.832727 291.30723 
L 74.918528 213.738348 
L 76.00433 217.621037 
L 77.090131 217.095907 
L 78.175932 217.35182 
L 79.261733 224.891791 
L 81.433335 197.640027 
L 82.519137 215.069808 
L 83.604938 218.059396 
L 84.690739 208.984997 
L 85.77654 235.042895 
L 86.862341 201.797479 
L 87.948142 201.282917 
L 89.033943 185.460432 
L 90.119745 201.488954 
L 91.205546 205.466347 
L 92.291347 195.734213 
L 93.377148 193.313881 
L 94.462949 207.878712 
L 95.54875 210.556507 
L 96.634552 179.976791 
L 97.720353 199.676036 
L 98.806154 197.937595 
L 99.891955 202.63335 
L 100.977756 195.009821 
L 102.063557 173.695194 
L 103.149358 182.843391 
L 104.23516 179.02002 
L 105.320961 199.708157 
L 106.406762 181.825659 
L 107.492563 183.523445 
L 108.578364 182.396046 
L 109.664165 190.638809 
L 111.835768 157.734222 
L 112.921569 186.176358 
L 114.00737 176.734612 
L 115.093171 199.307601 
L 116.178972 182.559679 
L 117.264773 198.613662 
L 119.436376 183.92225 
L 120.522177 172.189398 
L 121.607978 162.499677 
L 122.693779 181.124736 
L 123.77958 181.982241 
L 124.865382 188.225757 
L 125.951183 166.7969 
L 127.036984 178.966067 
L 128.122785 175.718035 
L 129.208586 169.687021 
L 130.294387 166.436992 
L 131.380189 185.20433 
L 132.46599 190.418987 
L 133.551791 176.513841 
L 134.637592 172.850539 
L 135.723393 160.041746 
L 136.809194 174.998336 
L 137.894995 154.388926 
L 138.980797 174.222541 
L 140.066598 169.671131 
L 141.152399 153.461191 
L 142.2382 162.911528 
L 143.324001 157.939638 
L 144.409802 169.319456 
L 145.495604 166.618832 
L 146.581405 161.560025 
L 147.667206 174.287392 
L 148.753007 167.008039 
L 149.838808 158.133094 
L 150.924609 167.106069 
L 152.01041 167.475995 
L 153.096212 149.172684 
L 154.182013 150.012011 
L 155.267814 153.993888 
L 156.353615 158.493513 
L 157.439416 169.833481 
L 158.525217 161.243018 
L 159.611019 158.543506 
L 160.69682 157.708445 
L 162.868422 140.881833 
L 163.954223 147.165606 
L 165.040024 161.805221 
L 166.125825 167.822487 
L 167.211627 154.328417 
L 168.297428 163.296218 
L 169.383229 165.757841 
L 170.46903 159.753198 
L 171.554831 164.653203 
L 172.640632 168.244242 
L 173.726434 164.563359 
L 174.812235 168.599957 
L 175.898036 147.343477 
L 176.983837 163.454006 
L 178.069638 169.669463 
L 179.155439 157.794479 
L 180.24124 148.39794 
L 181.327042 157.503908 
L 182.412843 146.908572 
L 183.498644 152.562045 
L 184.584445 151.425228 
L 185.670246 146.982664 
L 186.756047 179.940481 
L 187.841849 185.408972 
L 188.92765 176.02725 
L 190.013451 172.588225 
L 191.099252 164.423001 
L 192.185053 186.792482 
L 193.270854 179.115595 
L 195.442457 147.278318 
L 196.528258 152.973364 
L 197.614059 165.146075 
L 198.69986 154.778535 
L 199.785661 128.105296 
L 200.871462 184.818304 
L 201.957264 154.674295 
L 203.043065 143.460159 
L 204.128866 143.828754 
L 205.214667 142.61806 
L 206.300468 139.280736 
L 207.386269 158.749158 
L 209.557872 134.701028 
L 210.643673 155.042522 
L 211.729474 180.393658 
L 212.815275 141.155361 
L 213.901076 134.819672 
L 214.986877 135.773814 
L 216.072679 157.219553 
L 217.15848 150.170093 
L 218.244281 134.163583 
L 219.330082 142.731094 
L 220.415883 162.685499 
L 221.501684 142.54221 
L 222.587486 170.387798 
L 223.673287 146.665208 
L 224.759088 146.247423 
L 225.844889 146.191007 
L 226.93069 143.732467 
L 228.016491 145.056305 
L 229.102292 151.485648 
L 230.188094 133.037348 
L 231.273895 153.7767 
L 232.359696 159.224782 
L 233.445497 145.128438 
L 234.531298 150.369693 
L 235.617099 175.484344 
L 236.702901 175.831674 
L 237.788702 153.133148 
L 238.874503 137.85834 
L 239.960304 154.570216 
L 241.046105 157.379563 
L 242.131906 156.105771 
L 243.217708 146.595418 
L 245.38931 160.510281 
L 246.475111 154.415664 
L 247.560912 135.26237 
L 248.646713 136.814287 
L 249.732514 138.779889 
L 250.818316 177.231112 
L 251.904117 163.176446 
L 252.989918 173.680092 
L 254.075719 145.653295 
L 255.16152 139.27166 
L 256.247321 136.858414 
L 257.333123 152.146753 
L 258.418924 164.862894 
L 259.504725 153.063319 
L 260.590526 157.799168 
L 261.676327 156.716275 
L 262.762128 155.951823 
L 263.847929 140.243439 
L 264.933731 157.389623 
L 266.019532 149.365334 
L 267.105333 139.830888 
L 268.191134 142.4625 
L 269.276935 156.096111 
L 270.362736 146.07165 
L 271.448538 151.678829 
L 272.534339 154.130642 
L 273.62014 143.060387 
L 274.705941 130.720129 
L 275.791742 144.987534 
L 276.877543 128.162077 
L 277.963344 145.881038 
L 279.049146 150.897996 
L 280.134947 136.515444 
L 282.306549 132.009892 
L 283.39235 155.154339 
L 284.478151 135.775975 
L 285.563953 141.512012 
L 286.649754 144.756511 
L 287.735555 145.991986 
L 288.821356 131.616333 
L 289.907157 139.79995 
L 290.992958 136.963603 
L 292.07876 130.503292 
L 293.164561 115.603422 
L 294.250362 136.499813 
L 295.336163 146.335177 
L 296.421964 129.226273 
L 297.507765 138.869122 
L 298.593566 122.822159 
L 299.679368 134.739977 
L 300.765169 125.102974 
L 301.85097 131.159639 
L 302.936771 132.960313 
L 304.022572 120.845076 
L 305.108373 136.358973 
L 306.194175 131.373791 
L 307.279976 135.934196 
L 308.365777 124.005747 
L 309.451578 139.122985 
L 310.537379 149.72529 
L 311.62318 137.752296 
L 312.708981 147.368102 
L 313.794783 140.126582 
L 314.880584 154.055085 
L 315.966385 131.996125 
L 317.052186 126.271149 
L 318.137987 144.643528 
L 319.223788 136.987515 
L 320.30959 123.029651 
L 321.395391 136.500259 
L 322.481192 121.998266 
L 323.566993 138.863287 
L 324.652794 123.820735 
L 325.738595 143.846879 
L 326.824396 140.6442 
L 327.910198 129.586322 
L 328.995999 151.462702 
L 330.0818 149.890161 
L 331.167601 141.402477 
L 332.253402 131.799142 
L 333.339203 135.665754 
L 334.425005 135.130721 
L 335.510806 165.333577 
L 336.596607 162.248752 
L 337.682408 151.536003 
L 339.85401 135.837209 
L 340.939811 149.540848 
L 342.025613 145.557668 
L 343.111414 140.755022 
L 344.197215 152.062999 
L 345.283016 130.431306 
L 346.368817 138.147045 
L 347.454618 127.705287 
L 349.626221 142.689702 
L 350.712022 128.243573 
L 351.797823 132.254868 
L 352.883624 147.661076 
L 353.969425 134.035071 
L 355.055227 152.964925 
L 356.141028 150.999258 
L 357.226829 153.114996 
L 358.31263 141.45247 
L 359.398431 136.756139 
L 360.484232 124.810692 
L 361.570033 124.004084 
L 362.655835 140.528814 
L 363.741636 150.930647 
L 364.827437 133.593987 
L 365.913238 134.733417 
L 366.999039 131.382626 
L 368.08484 157.066192 
L 369.170642 131.202811 
L 370.256443 132.454137 
L 371.342244 135.830212 
L 372.428045 127.236304 
L 373.513846 137.438177 
L 374.599647 122.615472 
L 376.77125 139.183791 
L 377.857051 163.566182 
L 378.942852 139.122916 
L 380.028653 128.054375 
L 381.114454 156.303139 
L 382.200255 156.19594 
L 383.286057 140.272101 
L 384.371858 144.012171 
L 385.457659 128.113246 
L 386.54346 121.747303 
L 387.629261 136.793723 
L 388.715062 144.428503 
L 389.800863 155.460209 
L 390.886665 135.1486 
L 391.972466 147.934323 
L 393.058267 125.67084 
L 394.144068 146.20937 
L 395.229869 145.002798 
L 396.31567 132.807578 
L 397.401472 116.964332 
L 398.487273 123.898165 
L 398.487273 123.898165 
" style="fill:none;stroke:#0000ff;stroke-linecap:square;stroke-width:1.5;"/>
   </g>
   <g id="line2d_32">
    <path clip-path="url(#peaae0a2dc8)" d="M 73.832727 295.488 
L 74.918528 219.849585 
L 76.00433 227.325596 
L 77.090131 230.36816 
L 78.175932 229.643917 
L 79.261733 232.071185 
L 80.347534 225.552381 
L 81.433335 205.375275 
L 82.519137 225.870625 
L 83.604938 231.861476 
L 84.690739 236.312063 
L 85.77654 272.419588 
L 86.862341 223.379208 
L 87.948142 229.724018 
L 89.033943 205.076696 
L 90.119745 224.598176 
L 91.205546 231.201067 
L 92.291347 229.20788 
L 93.377148 205.237435 
L 94.462949 245.379344 
L 95.54875 242.771742 
L 96.634552 195.272295 
L 97.720353 231.598773 
L 98.806154 234.925832 
L 99.891955 231.687824 
L 100.977756 231.620111 
L 102.063557 199.640996 
L 103.149358 209.995649 
L 104.23516 205.838426 
L 105.320961 228.635389 
L 106.406762 206.167196 
L 107.492563 203.78849 
L 108.578364 210.446023 
L 109.664165 234.692399 
L 110.749967 193.826195 
L 111.835768 178.080417 
L 112.921569 214.420196 
L 114.00737 214.045999 
L 115.093171 240.741081 
L 116.178972 215.614973 
L 117.264773 239.308872 
L 118.350575 233.213073 
L 119.436376 215.241175 
L 120.522177 211.263988 
L 121.607978 194.744545 
L 122.693779 211.194689 
L 123.77958 206.977867 
L 124.865382 213.5127 
L 125.951183 192.958096 
L 127.036984 197.606529 
L 128.122785 199.771257 
L 129.208586 192.358361 
L 130.294387 190.179104 
L 131.380189 207.229861 
L 132.46599 218.115196 
L 133.551791 199.474938 
L 134.637592 197.966282 
L 135.723393 180.338987 
L 136.809194 205.914269 
L 137.894995 176.840654 
L 138.980797 207.703634 
L 140.066598 200.517033 
L 141.152399 173.844954 
L 142.2382 186.003065 
L 143.324001 181.129325 
L 144.409802 193.274258 
L 145.495604 202.189964 
L 146.581405 209.764551 
L 147.667206 205.493817 
L 148.753007 202.587581 
L 149.838808 181.623465 
L 150.924609 205.500653 
L 152.01041 208.32069 
L 153.096212 177.547047 
L 154.182013 181.279957 
L 155.267814 190.298548 
L 156.353615 196.351146 
L 157.439416 218.463282 
L 158.525217 193.051974 
L 159.611019 178.123977 
L 160.69682 186.553582 
L 161.782621 178.40002 
L 162.868422 159.937423 
L 163.954223 166.810026 
L 166.125825 204.057119 
L 167.211627 186.633316 
L 168.297428 189.513019 
L 169.383229 184.211064 
L 170.46903 196.380665 
L 171.554831 203.39853 
L 172.640632 201.879837 
L 173.726434 205.793609 
L 174.812235 213.629288 
L 175.898036 174.282564 
L 178.069638 212.418579 
L 179.155439 195.914213 
L 180.24124 186.508796 
L 181.327042 193.618944 
L 182.412843 163.35503 
L 183.498644 173.69476 
L 184.584445 172.078918 
L 185.670246 172.610648 
L 186.756047 200.372928 
L 187.841849 209.196511 
L 188.92765 197.665242 
L 190.013451 196.34909 
L 191.099252 186.828681 
L 192.185053 214.075477 
L 193.270854 206.434783 
L 194.356656 183.92577 
L 195.442457 171.752135 
L 196.528258 178.289269 
L 197.614059 191.457891 
L 198.69986 196.131483 
L 199.785661 152.298839 
L 200.871462 231.292112 
L 201.957264 188.627704 
L 203.043065 183.385375 
L 204.128866 194.026941 
L 205.214667 189.592376 
L 206.300468 164.585205 
L 207.386269 213.403889 
L 208.472071 172.230095 
L 209.557872 170.175881 
L 210.643673 212.455695 
L 211.729474 266.21905 
L 212.815275 184.994178 
L 213.901076 166.931997 
L 214.986877 155.44442 
L 216.072679 219.226928 
L 217.15848 191.449414 
L 218.244281 160.623444 
L 219.330082 180.966726 
L 220.415883 224.52667 
L 221.501684 193.740039 
L 222.587486 226.64444 
L 223.673287 200.726686 
L 224.759088 187.878577 
L 225.844889 189.244988 
L 226.93069 180.822069 
L 228.016491 180.016672 
L 229.102292 206.845434 
L 230.188094 155.760549 
L 231.273895 222.542404 
L 232.359696 219.626379 
L 234.531298 184.925724 
L 235.617099 249.485154 
L 236.702901 220.701093 
L 237.788702 203.652197 
L 238.874503 162.830721 
L 239.960304 175.674054 
L 241.046105 206.285517 
L 242.131906 197.608687 
L 243.217708 186.734208 
L 244.303509 192.628256 
L 245.38931 216.356461 
L 246.475111 206.2259 
L 247.560912 153.785597 
L 248.646713 161.094116 
L 249.732514 175.602131 
L 250.818316 241.448583 
L 251.904117 223.514668 
L 252.989918 233.488815 
L 254.075719 184.67358 
L 255.16152 164.928415 
L 256.247321 188.742101 
L 257.333123 207.187926 
L 258.418924 236.918213 
L 259.504725 212.058399 
L 261.676327 221.513623 
L 262.762128 227.46378 
L 263.847929 188.861232 
L 264.933731 222.509977 
L 266.019532 187.006478 
L 268.191134 204.409057 
L 269.276935 221.674529 
L 270.362736 202.760679 
L 271.448538 214.010982 
L 272.534339 212.100246 
L 273.62014 196.712854 
L 274.705941 170.519947 
L 275.791742 203.792179 
L 276.877543 178.492826 
L 277.963344 206.729584 
L 279.049146 223.611069 
L 280.134947 185.977472 
L 281.220748 197.088211 
L 282.306549 193.61207 
L 283.39235 196.616225 
L 284.478151 173.013153 
L 285.563953 212.507181 
L 286.649754 203.250469 
L 287.735555 215.374878 
L 288.821356 181.079438 
L 289.907157 205.144581 
L 290.992958 199.820053 
L 292.07876 188.60519 
L 293.164561 154.716577 
L 294.250362 190.721197 
L 295.336163 198.487033 
L 296.421964 177.734679 
L 297.507765 196.798741 
L 298.593566 163.473946 
L 299.679368 189.639719 
L 300.765169 163.415868 
L 301.85097 163.78758 
L 302.936771 174.691764 
L 304.022572 164.895094 
L 305.108373 203.750431 
L 306.194175 180.179915 
L 307.279976 204.049757 
L 308.365777 180.283026 
L 309.451578 199.419203 
L 310.537379 232.827888 
L 311.62318 197.475606 
L 312.708981 211.798165 
L 313.794783 188.029284 
L 314.880584 238.19356 
L 315.966385 171.164609 
L 317.052186 176.673536 
L 318.137987 217.594645 
L 319.223788 204.318283 
L 320.30959 150.780472 
L 321.395391 197.446464 
L 322.481192 163.088667 
L 323.566993 203.209672 
L 324.652794 165.234382 
L 325.738595 184.275914 
L 326.824396 195.040123 
L 327.910198 182.732969 
L 328.995999 223.130409 
L 331.167601 193.067405 
L 332.253402 176.592324 
L 333.339203 217.763507 
L 334.425005 205.898325 
L 335.510806 216.271961 
L 336.596607 228.34989 
L 337.682408 220.433849 
L 338.768209 187.745949 
L 339.85401 175.646239 
L 340.939811 230.422278 
L 343.111414 183.089179 
L 344.197215 212.924129 
L 345.283016 158.391823 
L 346.368817 191.151628 
L 347.454618 159.666193 
L 348.54042 174.954714 
L 349.626221 209.452724 
L 350.712022 182.371072 
L 351.797823 181.381049 
L 352.883624 204.545992 
L 353.969425 196.274507 
L 355.055227 205.514739 
L 356.141028 228.003433 
L 357.226829 214.675262 
L 358.31263 192.925157 
L 359.398431 193.171714 
L 360.484232 177.316338 
L 361.570033 164.778735 
L 362.655835 191.662999 
L 363.741636 226.801066 
L 364.827437 187.185659 
L 365.913238 186.629318 
L 366.999039 185.614772 
L 368.08484 227.409192 
L 369.170642 154.344434 
L 370.256443 193.466948 
L 371.342244 199.548034 
L 372.428045 164.402291 
L 373.513846 205.371884 
L 374.599647 165.203069 
L 375.685448 184.440437 
L 376.77125 213.521082 
L 377.857051 234.500267 
L 378.942852 196.503334 
L 380.028653 165.13333 
L 381.114454 206.619808 
L 382.200255 231.042422 
L 383.286057 196.037654 
L 384.371858 210.81864 
L 385.457659 179.986962 
L 386.54346 144.78329 
L 387.629261 188.584399 
L 388.715062 199.738735 
L 389.800863 221.229571 
L 390.886665 197.392748 
L 391.972466 208.165199 
L 393.058267 162.260098 
L 394.144068 196.023931 
L 395.229869 205.415956 
L 396.31567 172.079781 
L 398.487273 152.745979 
L 398.487273 152.745979 
" style="fill:none;stroke:#008000;stroke-dasharray:9.6,2.4,1.5,2.4;stroke-dashoffset:0;stroke-width:1.5;"/>
   </g>
   <g id="line2d_33">
    <path clip-path="url(#peaae0a2dc8)" d="M 73.832727 287.126461 
L 74.918528 207.627111 
L 76.00433 207.916478 
L 77.090131 203.823653 
L 78.175932 205.059724 
L 79.261733 217.712398 
L 80.347534 196.101331 
L 81.433335 189.904779 
L 82.519137 204.26899 
L 83.604938 204.257315 
L 84.690739 181.657931 
L 85.77654 197.666202 
L 86.862341 180.215751 
L 89.033943 165.844169 
L 90.119745 178.379733 
L 91.205546 179.731627 
L 92.291347 162.260546 
L 93.377148 181.390327 
L 94.462949 170.37808 
L 95.54875 178.341271 
L 96.634552 164.681287 
L 97.720353 167.753299 
L 98.806154 160.949359 
L 99.891955 173.578876 
L 100.977756 158.399532 
L 102.063557 147.749392 
L 103.149358 155.691134 
L 104.23516 152.201614 
L 105.320961 170.780924 
L 106.406762 157.484122 
L 107.492563 163.2584 
L 108.578364 154.346069 
L 109.664165 146.585219 
L 110.749967 152.981775 
L 111.835768 137.388026 
L 112.921569 157.93252 
L 114.00737 139.423224 
L 115.093171 157.87412 
L 116.178972 149.504384 
L 117.264773 157.918453 
L 118.350575 148.705132 
L 119.436376 152.603326 
L 120.522177 133.114808 
L 121.607978 130.254809 
L 122.693779 151.054783 
L 124.865382 162.938814 
L 125.951183 140.635704 
L 127.036984 160.325605 
L 128.122785 151.664814 
L 130.294387 142.69488 
L 131.380189 163.178798 
L 132.46599 162.722778 
L 133.551791 153.552744 
L 134.637592 147.734796 
L 135.723393 139.744506 
L 136.809194 144.082403 
L 137.894995 131.937197 
L 138.980797 140.741448 
L 140.066598 138.825229 
L 141.152399 133.077428 
L 142.2382 139.819991 
L 143.324001 134.749951 
L 144.409802 145.364654 
L 145.495604 131.047699 
L 146.581405 113.355498 
L 147.667206 143.080966 
L 148.753007 131.428496 
L 149.838808 134.642724 
L 150.924609 128.711485 
L 152.01041 126.631301 
L 153.096212 120.798321 
L 154.182013 118.744066 
L 155.267814 117.689229 
L 156.353615 120.63588 
L 157.439416 121.20368 
L 158.525217 129.434063 
L 159.611019 138.963036 
L 160.69682 128.863308 
L 161.782621 120.053881 
L 162.868422 121.826243 
L 163.954223 127.521185 
L 165.040024 137.935315 
L 166.125825 131.587856 
L 167.211627 122.023518 
L 168.297428 137.079418 
L 169.383229 147.304619 
L 170.46903 123.12573 
L 171.554831 125.907876 
L 172.640632 134.608647 
L 173.726434 123.33311 
L 174.812235 123.570626 
L 175.898036 120.40439 
L 176.983837 134.184757 
L 179.155439 119.674746 
L 180.24124 110.287083 
L 181.327042 121.388872 
L 182.412843 130.462114 
L 183.498644 131.429329 
L 184.584445 130.771539 
L 185.670246 121.35468 
L 186.756047 159.508035 
L 187.841849 161.621434 
L 188.92765 154.389259 
L 190.013451 148.827359 
L 191.099252 142.017321 
L 192.185053 159.509487 
L 194.356656 143.408294 
L 195.442457 122.804501 
L 196.528258 127.657458 
L 197.614059 138.83426 
L 198.69986 113.425588 
L 199.785661 103.911754 
L 200.871462 138.344495 
L 203.043065 103.534943 
L 204.128866 93.630567 
L 205.214667 95.643745 
L 206.300468 113.976267 
L 207.386269 104.094427 
L 208.472071 120.598496 
L 209.557872 99.226174 
L 210.643673 97.629348 
L 211.729474 94.568267 
L 212.815275 97.316544 
L 213.901076 102.707348 
L 214.986877 116.103208 
L 216.072679 95.212178 
L 217.15848 108.890772 
L 218.244281 107.703722 
L 219.330082 104.495461 
L 220.415883 100.844328 
L 221.501684 91.344382 
L 222.587486 114.131157 
L 223.673287 92.60373 
L 224.759088 104.616268 
L 225.844889 103.137027 
L 228.016491 110.095938 
L 229.102292 96.125861 
L 230.188094 110.314148 
L 231.273895 85.010996 
L 232.359696 98.823186 
L 233.445497 87.291079 
L 234.531298 115.813662 
L 235.617099 101.483533 
L 236.702901 130.962255 
L 237.788702 102.6141 
L 238.874503 112.885959 
L 239.960304 133.466377 
L 241.046105 108.47361 
L 242.131906 114.602854 
L 243.217708 106.456627 
L 244.303509 114.438846 
L 245.38931 104.6641 
L 246.475111 102.605428 
L 247.560912 116.739143 
L 248.646713 112.534457 
L 249.732514 101.957647 
L 250.818316 113.013641 
L 251.904117 102.838224 
L 252.989918 113.871369 
L 254.075719 106.633009 
L 255.16152 113.614905 
L 256.247321 84.974727 
L 257.333123 97.105579 
L 258.418924 92.807574 
L 259.504725 94.06824 
L 260.590526 98.776097 
L 262.762128 84.439867 
L 263.847929 91.625646 
L 264.933731 92.26927 
L 266.019532 111.724191 
L 267.105333 84.31651 
L 268.191134 80.515942 
L 269.276935 90.517694 
L 270.362736 89.382621 
L 271.448538 89.346676 
L 272.534339 96.161038 
L 273.62014 89.407921 
L 274.705941 90.920312 
L 275.791742 86.182888 
L 276.877543 77.831328 
L 277.963344 85.032493 
L 279.049146 78.184924 
L 280.134947 87.053417 
L 281.220748 71.483714 
L 282.306549 70.407714 
L 283.39235 113.692454 
L 284.478151 98.538797 
L 285.563953 70.516842 
L 286.649754 86.262554 
L 287.735555 76.609094 
L 288.821356 82.153228 
L 289.907157 74.45532 
L 290.992958 74.107153 
L 292.07876 72.401395 
L 293.164561 76.490267 
L 294.250362 82.278429 
L 295.336163 94.183322 
L 296.421964 80.717867 
L 297.507765 80.939503 
L 298.593566 82.170372 
L 299.679368 79.840236 
L 300.765169 86.79008 
L 301.85097 98.531699 
L 302.936771 91.228863 
L 304.022572 76.795058 
L 305.108373 68.967516 
L 306.194175 82.567667 
L 307.279976 67.818636 
L 308.365777 67.728467 
L 309.451578 78.826766 
L 310.537379 66.622692 
L 311.62318 78.028986 
L 312.708981 82.938039 
L 313.794783 92.22388 
L 314.880584 69.916611 
L 315.966385 92.82764 
L 317.052186 75.868761 
L 318.137987 71.692411 
L 319.223788 69.656746 
L 320.30959 95.278829 
L 321.395391 75.554053 
L 322.481192 80.907866 
L 323.566993 74.516901 
L 324.652794 82.407087 
L 325.738595 103.417845 
L 326.824396 86.248276 
L 327.910198 76.439675 
L 328.995999 79.794995 
L 330.0818 91.199616 
L 331.167601 89.737549 
L 332.253402 87.005961 
L 333.339203 53.568 
L 334.425005 64.363117 
L 335.510806 114.395193 
L 336.596607 96.147614 
L 337.682408 82.638156 
L 338.768209 100.138174 
L 339.85401 96.028178 
L 340.939811 68.659418 
L 342.025613 85.572744 
L 343.111414 98.420865 
L 344.197215 91.201869 
L 345.283016 102.470788 
L 346.368817 85.142463 
L 347.454618 95.74438 
L 348.54042 94.915497 
L 349.626221 75.92668 
L 350.712022 74.116074 
L 351.797823 83.128686 
L 352.883624 90.77616 
L 353.969425 71.795635 
L 355.055227 100.41511 
L 356.141028 73.995082 
L 357.226829 91.55473 
L 358.31263 89.979783 
L 359.398431 80.340564 
L 360.484232 72.305045 
L 361.570033 83.229433 
L 362.655835 89.394629 
L 363.741636 75.060229 
L 364.827437 80.002315 
L 365.913238 82.837517 
L 366.999039 77.15048 
L 368.08484 86.723193 
L 369.170642 108.061188 
L 370.256443 71.441325 
L 371.342244 72.11239 
L 372.428045 90.070316 
L 373.513846 69.504471 
L 374.599647 80.027876 
L 375.685448 77.479518 
L 376.77125 64.8465 
L 377.857051 92.632097 
L 378.942852 81.742499 
L 380.028653 90.975421 
L 381.114454 105.986471 
L 382.200255 81.349458 
L 383.286057 84.506547 
L 384.371858 77.205701 
L 385.457659 76.239531 
L 386.54346 98.711317 
L 387.629261 85.003048 
L 388.715062 89.118271 
L 389.800863 89.690846 
L 390.886665 72.904451 
L 391.972466 87.703448 
L 393.058267 89.081582 
L 394.144068 96.39481 
L 395.229869 84.589639 
L 396.31567 93.535376 
L 397.401472 71.717812 
L 398.487273 95.050351 
L 398.487273 95.050351 
" style="fill:none;stroke:#008000;stroke-dasharray:9.6,2.4,1.5,2.4;stroke-dashoffset:0;stroke-width:1.5;"/>
   </g>
   <g id="line2d_34">
    <path clip-path="url(#peaae0a2dc8)" d="M 73.832727 281.078692 
L 74.918528 200.244295 
L 76.00433 199.931553 
L 77.090131 187.14681 
L 78.175932 183.326403 
L 79.261733 204.092679 
L 80.347534 192.199855 
L 81.433335 181.671092 
L 82.519137 194.16512 
L 83.604938 199.673345 
L 84.690739 178.998906 
L 85.77654 189.913887 
L 86.862341 168.813971 
L 87.948142 177.424078 
L 89.033943 156.02219 
L 90.119745 166.375643 
L 91.205546 180.060655 
L 92.291347 168.228908 
L 93.377148 176.927675 
L 94.462949 175.657953 
L 95.54875 175.215838 
L 96.634552 156.420823 
L 97.720353 151.750683 
L 98.806154 159.360936 
L 99.891955 171.864418 
L 100.977756 156.409275 
L 102.063557 148.776699 
L 103.149358 136.129137 
L 104.23516 155.108365 
L 105.320961 159.945152 
L 106.406762 157.71139 
L 107.492563 153.20929 
L 108.578364 147.524678 
L 109.664165 143.060184 
L 110.749967 149.669524 
L 111.835768 119.459431 
L 112.921569 154.834007 
L 114.00737 142.812483 
L 115.093171 154.016416 
L 116.178972 137.134607 
L 117.264773 160.887903 
L 118.350575 151.871028 
L 119.436376 152.873623 
L 120.522177 138.102486 
L 121.607978 127.321419 
L 122.693779 148.27957 
L 123.77958 139.960287 
L 124.865382 153.809303 
L 125.951183 139.227142 
L 127.036984 144.319302 
L 128.122785 144.658531 
L 129.208586 123.547468 
L 130.294387 132.72908 
L 131.380189 146.932551 
L 132.46599 145.803839 
L 133.551791 143.308303 
L 134.637592 133.925015 
L 135.723393 131.39568 
L 136.809194 142.587597 
L 137.894995 133.008756 
L 138.980797 139.899719 
L 141.152399 120.241066 
L 142.2382 135.459978 
L 143.324001 128.369814 
L 144.409802 145.744284 
L 146.581405 111.264963 
L 147.667206 134.891352 
L 148.753007 128.47261 
L 149.838808 123.711607 
L 150.924609 131.008286 
L 152.01041 139.894259 
L 153.096212 115.106376 
L 154.182013 114.047187 
L 155.267814 117.918785 
L 156.353615 120.899677 
L 157.439416 122.410607 
L 158.525217 131.413351 
L 159.611019 125.190625 
L 160.69682 121.543514 
L 161.782621 111.820958 
L 162.868422 109.621061 
L 163.954223 119.749263 
L 165.040024 125.315854 
L 166.125825 123.620276 
L 167.211627 115.563765 
L 168.297428 132.840605 
L 169.383229 142.512078 
L 170.46903 126.325632 
L 171.554831 119.800469 
L 172.640632 123.271786 
L 173.726434 118.555047 
L 174.812235 115.770594 
L 175.898036 116.526222 
L 176.983837 130.684939 
L 178.069638 125.316037 
L 179.155439 125.711895 
L 180.24124 109.301782 
L 181.327042 120.829751 
L 182.412843 124.865592 
L 183.498644 125.736252 
L 184.584445 113.804134 
L 185.670246 113.999726 
L 186.756047 151.716773 
L 187.841849 156.893456 
L 188.92765 139.415692 
L 190.013451 140.932496 
L 191.099252 131.647034 
L 192.185053 151.548248 
L 193.270854 145.99845 
L 195.442457 117.456364 
L 196.528258 118.053387 
L 197.614059 126.124458 
L 198.69986 113.711456 
L 199.785661 92.077746 
L 200.871462 146.803388 
L 201.957264 124.593771 
L 203.043065 108.763567 
L 204.128866 107.04331 
L 205.214667 104.494881 
L 206.300468 112.603042 
L 207.386269 114.686298 
L 208.472071 119.518944 
L 209.557872 107.801531 
L 210.643673 111.832092 
L 211.729474 115.387426 
L 212.815275 103.98009 
L 213.901076 99.085551 
L 214.986877 103.134449 
L 216.072679 102.550287 
L 217.15848 106.869573 
L 218.244281 101.740547 
L 219.330082 102.421928 
L 220.415883 124.424254 
L 221.501684 95.427927 
L 222.587486 131.457192 
L 223.673287 103.46898 
L 224.759088 105.596376 
L 225.844889 101.434998 
L 226.93069 105.849254 
L 228.016491 111.761046 
L 229.102292 106.187536 
L 230.188094 105.271001 
L 231.273895 106.091192 
L 232.359696 103.857512 
L 233.445497 102.106897 
L 234.531298 120.758812 
L 235.617099 102.594495 
L 236.702901 139.61834 
L 237.788702 108.196462 
L 238.874503 104.838486 
L 239.960304 128.561258 
L 241.046105 123.996663 
L 242.131906 116.916298 
L 243.217708 111.504362 
L 244.303509 123.138444 
L 245.38931 112.630588 
L 246.475111 116.752117 
L 247.560912 110.73964 
L 248.646713 99.614717 
L 249.732514 105.55745 
L 250.818316 112.693873 
L 251.904117 109.019563 
L 252.989918 128.018141 
L 254.075719 109.470122 
L 255.16152 105.395319 
L 256.247321 99.249709 
L 257.333123 105.30621 
L 258.418924 102.831501 
L 259.504725 109.105545 
L 260.590526 121.807047 
L 261.676327 103.876171 
L 262.762128 107.893948 
L 263.847929 101.875238 
L 264.933731 105.681062 
L 266.019532 117.796251 
L 267.105333 100.562285 
L 268.191134 103.58231 
L 269.276935 103.888596 
L 270.362736 95.533761 
L 271.448538 96.143505 
L 272.534339 105.847686 
L 273.62014 103.504406 
L 274.705941 87.831777 
L 275.791742 95.189107 
L 276.877543 77.307256 
L 277.963344 91.782457 
L 279.049146 90.070165 
L 280.134947 90.486797 
L 281.220748 79.748115 
L 282.306549 83.708981 
L 283.39235 110.369706 
L 284.478151 99.539656 
L 285.563953 95.30849 
L 286.649754 94.816761 
L 287.735555 90.696054 
L 288.821356 91.280732 
L 289.907157 87.297042 
L 292.07876 80.080656 
L 293.164561 84.903736 
L 294.250362 92.189163 
L 295.336163 96.479241 
L 296.421964 88.988755 
L 297.507765 87.014424 
L 298.593566 86.400445 
L 299.679368 88.313439 
L 300.765169 84.107926 
L 301.85097 91.770783 
L 302.936771 96.626051 
L 304.022572 80.771848 
L 305.108373 85.340937 
L 306.194175 87.206823 
L 307.279976 85.55081 
L 308.365777 75.630693 
L 309.451578 78.606954 
L 310.537379 84.442479 
L 311.62318 85.298546 
L 312.708981 96.212647 
L 313.794783 88.005174 
L 314.880584 84.850074 
L 315.966385 89.498408 
L 317.052186 81.071816 
L 318.137987 86.42015 
L 319.223788 84.2672 
L 320.30959 85.555983 
L 321.395391 84.127946 
L 322.481192 89.006615 
L 323.566993 89.457892 
L 324.652794 85.095181 
L 325.738595 89.284193 
L 326.824396 92.068624 
L 327.910198 85.907549 
L 328.995999 91.965953 
L 330.0818 105.608244 
L 331.167601 94.905403 
L 332.253402 90.388937 
L 333.339203 76.936241 
L 334.425005 87.303628 
L 335.510806 114.918621 
L 336.596607 110.233075 
L 337.682408 100.800179 
L 338.768209 105.47301 
L 339.85401 100.158849 
L 340.939811 87.586596 
L 342.025613 104.766883 
L 343.111414 101.079461 
L 344.197215 99.826044 
L 345.283016 93.759071 
L 346.368817 96.372281 
L 347.454618 86.718245 
L 348.54042 100.844949 
L 349.626221 96.597312 
L 350.712022 80.979002 
L 351.797823 87.648216 
L 352.883624 99.513409 
L 353.969425 85.734276 
L 355.055227 106.152419 
L 356.141028 87.804676 
L 357.226829 98.419464 
L 358.31263 96.587685 
L 359.398431 85.835747 
L 360.484232 90.335089 
L 361.570033 91.399064 
L 362.655835 95.411127 
L 363.741636 95.408608 
L 364.827437 85.867813 
L 365.913238 96.029923 
L 366.999039 86.719041 
L 368.08484 102.592416 
L 369.170642 96.007459 
L 370.256443 81.613878 
L 371.342244 81.385988 
L 372.428045 88.108143 
L 373.513846 76.305587 
L 374.599647 80.285658 
L 375.685448 82.721994 
L 376.77125 81.587844 
L 377.857051 94.012596 
L 378.942852 88.739207 
L 380.028653 78.720123 
L 381.114454 108.34838 
L 382.200255 95.804926 
L 384.371858 87.532579 
L 385.457659 86.603264 
L 386.54346 82.505549 
L 387.629261 84.863146 
L 388.715062 93.710677 
L 389.800863 92.969958 
L 390.886665 82.690565 
L 391.972466 106.106747 
L 393.058267 86.637566 
L 394.144068 91.254446 
L 395.229869 96.921918 
L 397.401472 79.455574 
L 398.487273 88.935236 
L 398.487273 88.935236 
" style="fill:none;stroke:#ff0000;stroke-linecap:square;stroke-width:1.5;"/>
   </g>
   <g id="patch_3">
    <path d="M 57.6 307.584 
L 57.6 41.472 
" style="fill:none;stroke:#000000;stroke-linecap:square;stroke-linejoin:miter;stroke-width:0.8;"/>
   </g>
   <g id="patch_4">
    <path d="M 414.72 307.584 
L 414.72 41.472 
" style="fill:none;stroke:#000000;stroke-linecap:square;stroke-linejoin:miter;stroke-width:0.8;"/>
   </g>
   <g id="patch_5">
    <path d="M 57.6 307.584 
L 414.72 307.584 
" style="fill:none;stroke:#000000;stroke-linecap:square;stroke-linejoin:miter;stroke-width:0.8;"/>
   </g>
   <g id="patch_6">
    <path d="M 57.6 41.472 
L 414.72 41.472 
" style="fill:none;stroke:#000000;stroke-linecap:square;stroke-linejoin:miter;stroke-width:0.8;"/>
   </g>
   <g id="text_18">
    <!-- Population's average and best fitness -->
    <defs>
     <path d="M 19.671875 64.796875 
L 19.671875 37.40625 
L 32.078125 37.40625 
Q 38.96875 37.40625 42.71875 40.96875 
Q 46.484375 44.53125 46.484375 51.125 
Q 46.484375 57.671875 42.71875 61.234375 
Q 38.96875 64.796875 32.078125 64.796875 
z
M 9.8125 72.90625 
L 32.078125 72.90625 
Q 44.34375 72.90625 50.609375 67.359375 
Q 56.890625 61.8125 56.890625 51.125 
Q 56.890625 40.328125 50.609375 34.8125 
Q 44.34375 29.296875 32.078125 29.296875 
L 19.671875 29.296875 
L 19.671875 0 
L 9.8125 0 
z
" id="DejaVuSans-80"/>
     <path d="M 18.109375 8.203125 
L 18.109375 -20.796875 
L 9.078125 -20.796875 
L 9.078125 54.6875 
L 18.109375 54.6875 
L 18.109375 46.390625 
Q 20.953125 51.265625 25.265625 53.625 
Q 29.59375 56 35.59375 56 
Q 45.5625 56 51.78125 48.09375 
Q 58.015625 40.1875 58.015625 27.296875 
Q 58.015625 14.40625 51.78125 6.484375 
Q 45.5625 -1.421875 35.59375 -1.421875 
Q 29.59375 -1.421875 25.265625 0.953125 
Q 20.953125 3.328125 18.109375 8.203125 
z
M 48.6875 27.296875 
Q 48.6875 37.203125 44.609375 42.84375 
Q 40.53125 48.484375 33.40625 48.484375 
Q 26.265625 48.484375 22.1875 42.84375 
Q 18.109375 37.203125 18.109375 27.296875 
Q 18.109375 17.390625 22.1875 11.75 
Q 26.265625 6.109375 33.40625 6.109375 
Q 40.53125 6.109375 44.609375 11.75 
Q 48.6875 17.390625 48.6875 27.296875 
z
" id="DejaVuSans-112"/>
     <path d="M 8.5 21.578125 
L 8.5 54.6875 
L 17.484375 54.6875 
L 17.484375 21.921875 
Q 17.484375 14.15625 20.5 10.265625 
Q 23.53125 6.390625 29.59375 6.390625 
Q 36.859375 6.390625 41.078125 11.03125 
Q 45.3125 15.671875 45.3125 23.6875 
L 45.3125 54.6875 
L 54.296875 54.6875 
L 54.296875 0 
L 45.3125 0 
L 45.3125 8.40625 
Q 42.046875 3.421875 37.71875 1 
Q 33.40625 -1.421875 27.6875 -1.421875 
Q 18.265625 -1.421875 13.375 4.4375 
Q 8.5 10.296875 8.5 21.578125 
z
M 31.109375 56 
z
" id="DejaVuSans-117"/>
     <path d="M 9.421875 75.984375 
L 18.40625 75.984375 
L 18.40625 0 
L 9.421875 0 
z
" id="DejaVuSans-108"/>
     <path d="M 17.921875 72.90625 
L 17.921875 45.796875 
L 9.625 45.796875 
L 9.625 72.90625 
z
" id="DejaVuSans-39"/>
     <path id="DejaVuSans-32"/>
     <path d="M 2.984375 54.6875 
L 12.5 54.6875 
L 29.59375 8.796875 
L 46.6875 54.6875 
L 56.203125 54.6875 
L 35.6875 0 
L 23.484375 0 
z
" id="DejaVuSans-118"/>
     <path d="M 45.40625 27.984375 
Q 45.40625 37.75 41.375 43.109375 
Q 37.359375 48.484375 30.078125 48.484375 
Q 22.859375 48.484375 18.828125 43.109375 
Q 14.796875 37.75 14.796875 27.984375 
Q 14.796875 18.265625 18.828125 12.890625 
Q 22.859375 7.515625 30.078125 7.515625 
Q 37.359375 7.515625 41.375 12.890625 
Q 45.40625 18.265625 45.40625 27.984375 
z
M 54.390625 6.78125 
Q 54.390625 -7.171875 48.1875 -13.984375 
Q 42 -20.796875 29.203125 -20.796875 
Q 24.46875 -20.796875 20.265625 -20.09375 
Q 16.0625 -19.390625 12.109375 -17.921875 
L 12.109375 -9.1875 
Q 16.0625 -11.328125 19.921875 -12.34375 
Q 23.78125 -13.375 27.78125 -13.375 
Q 36.625 -13.375 41.015625 -8.765625 
Q 45.40625 -4.15625 45.40625 5.171875 
L 45.40625 9.625 
Q 42.625 4.78125 38.28125 2.390625 
Q 33.9375 0 27.875 0 
Q 17.828125 0 11.671875 7.65625 
Q 5.515625 15.328125 5.515625 27.984375 
Q 5.515625 40.671875 11.671875 48.328125 
Q 17.828125 56 27.875 56 
Q 33.9375 56 38.28125 53.609375 
Q 42.625 51.21875 45.40625 46.390625 
L 45.40625 54.6875 
L 54.390625 54.6875 
z
" id="DejaVuSans-103"/>
     <path d="M 45.40625 46.390625 
L 45.40625 75.984375 
L 54.390625 75.984375 
L 54.390625 0 
L 45.40625 0 
L 45.40625 8.203125 
Q 42.578125 3.328125 38.25 0.953125 
Q 33.9375 -1.421875 27.875 -1.421875 
Q 17.96875 -1.421875 11.734375 6.484375 
Q 5.515625 14.40625 5.515625 27.296875 
Q 5.515625 40.1875 11.734375 48.09375 
Q 17.96875 56 27.875 56 
Q 33.9375 56 38.25 53.625 
Q 42.578125 51.265625 45.40625 46.390625 
z
M 14.796875 27.296875 
Q 14.796875 17.390625 18.875 11.75 
Q 22.953125 6.109375 30.078125 6.109375 
Q 37.203125 6.109375 41.296875 11.75 
Q 45.40625 17.390625 45.40625 27.296875 
Q 45.40625 37.203125 41.296875 42.84375 
Q 37.203125 48.484375 30.078125 48.484375 
Q 22.953125 48.484375 18.875 42.84375 
Q 14.796875 37.203125 14.796875 27.296875 
z
" id="DejaVuSans-100"/>
     <path d="M 48.6875 27.296875 
Q 48.6875 37.203125 44.609375 42.84375 
Q 40.53125 48.484375 33.40625 48.484375 
Q 26.265625 48.484375 22.1875 42.84375 
Q 18.109375 37.203125 18.109375 27.296875 
Q 18.109375 17.390625 22.1875 11.75 
Q 26.265625 6.109375 33.40625 6.109375 
Q 40.53125 6.109375 44.609375 11.75 
Q 48.6875 17.390625 48.6875 27.296875 
z
M 18.109375 46.390625 
Q 20.953125 51.265625 25.265625 53.625 
Q 29.59375 56 35.59375 56 
Q 45.5625 56 51.78125 48.09375 
Q 58.015625 40.1875 58.015625 27.296875 
Q 58.015625 14.40625 51.78125 6.484375 
Q 45.5625 -1.421875 35.59375 -1.421875 
Q 29.59375 -1.421875 25.265625 0.953125 
Q 20.953125 3.328125 18.109375 8.203125 
L 18.109375 0 
L 9.078125 0 
L 9.078125 75.984375 
L 18.109375 75.984375 
z
" id="DejaVuSans-98"/>
     <path d="M 37.109375 75.984375 
L 37.109375 68.5 
L 28.515625 68.5 
Q 23.6875 68.5 21.796875 66.546875 
Q 19.921875 64.59375 19.921875 59.515625 
L 19.921875 54.6875 
L 34.71875 54.6875 
L 34.71875 47.703125 
L 19.921875 47.703125 
L 19.921875 0 
L 10.890625 0 
L 10.890625 47.703125 
L 2.296875 47.703125 
L 2.296875 54.6875 
L 10.890625 54.6875 
L 10.890625 58.5 
Q 10.890625 67.625 15.140625 71.796875 
Q 19.390625 75.984375 28.609375 75.984375 
z
" id="DejaVuSans-102"/>
    </defs>
    <g transform="translate(123.315 35.472)scale(0.12 -0.12)">
     <use xlink:href="#DejaVuSans-80"/>
     <use x="60.255859" xlink:href="#DejaVuSans-111"/>
     <use x="121.4375" xlink:href="#DejaVuSans-112"/>
     <use x="184.914062" xlink:href="#DejaVuSans-117"/>
     <use x="248.292969" xlink:href="#DejaVuSans-108"/>
     <use x="276.076172" xlink:href="#DejaVuSans-97"/>
     <use x="337.355469" xlink:href="#DejaVuSans-116"/>
     <use x="376.564453" xlink:href="#DejaVuSans-105"/>
     <use x="404.347656" xlink:href="#DejaVuSans-111"/>
     <use x="465.529297" xlink:href="#DejaVuSans-110"/>
     <use x="528.908203" xlink:href="#DejaVuSans-39"/>
     <use x="556.398438" xlink:href="#DejaVuSans-115"/>
     <use x="608.498047" xlink:href="#DejaVuSans-32"/>
     <use x="640.285156" xlink:href="#DejaVuSans-97"/>
     <use x="701.564453" xlink:href="#DejaVuSans-118"/>
     <use x="760.744141" xlink:href="#DejaVuSans-101"/>
     <use x="822.267578" xlink:href="#DejaVuSans-114"/>
     <use x="863.380859" xlink:href="#DejaVuSans-97"/>
     <use x="924.660156" xlink:href="#DejaVuSans-103"/>
     <use x="988.136719" xlink:href="#DejaVuSans-101"/>
     <use x="1049.660156" xlink:href="#DejaVuSans-32"/>
     <use x="1081.447266" xlink:href="#DejaVuSans-97"/>
     <use x="1142.726562" xlink:href="#DejaVuSans-110"/>
     <use x="1206.105469" xlink:href="#DejaVuSans-100"/>
     <use x="1269.582031" xlink:href="#DejaVuSans-32"/>
     <use x="1301.369141" xlink:href="#DejaVuSans-98"/>
     <use x="1364.845703" xlink:href="#DejaVuSans-101"/>
     <use x="1426.369141" xlink:href="#DejaVuSans-115"/>
     <use x="1478.46875" xlink:href="#DejaVuSans-116"/>
     <use x="1517.677734" xlink:href="#DejaVuSans-32"/>
     <use x="1549.464844" xlink:href="#DejaVuSans-102"/>
     <use x="1584.669922" xlink:href="#DejaVuSans-105"/>
     <use x="1612.453125" xlink:href="#DejaVuSans-116"/>
     <use x="1651.662109" xlink:href="#DejaVuSans-110"/>
     <use x="1715.041016" xlink:href="#DejaVuSans-101"/>
     <use x="1776.564453" xlink:href="#DejaVuSans-115"/>
     <use x="1828.664062" xlink:href="#DejaVuSans-115"/>
    </g>
   </g>
   <g id="legend_1">
    <g id="patch_7">
     <path d="M 64.6 108.1845 
L 137.540625 108.1845 
Q 139.540625 108.1845 139.540625 106.1845 
L 139.540625 48.472 
Q 139.540625 46.472 137.540625 46.472 
L 64.6 46.472 
Q 62.6 46.472 62.6 48.472 
L 62.6 106.1845 
Q 62.6 108.1845 64.6 108.1845 
z
" style="fill:#ffffff;opacity:0.8;stroke:#cccccc;stroke-linejoin:miter;"/>
    </g>
    <g id="line2d_35">
     <path d="M 66.6 54.570438 
L 86.6 54.570438 
" style="fill:none;stroke:#0000ff;stroke-linecap:square;stroke-width:1.5;"/>
    </g>
    <g id="line2d_36"/>
    <g id="text_19">
     <!-- average -->
     <g transform="translate(94.6 58.070438)scale(0.1 -0.1)">
      <use xlink:href="#DejaVuSans-97"/>
      <use x="61.279297" xlink:href="#DejaVuSans-118"/>
      <use x="120.458984" xlink:href="#DejaVuSans-101"/>
      <use x="181.982422" xlink:href="#DejaVuSans-114"/>
      <use x="223.095703" xlink:href="#DejaVuSans-97"/>
      <use x="284.375" xlink:href="#DejaVuSans-103"/>
      <use x="347.851562" xlink:href="#DejaVuSans-101"/>
     </g>
    </g>
    <g id="line2d_37">
     <path d="M 66.6 69.248563 
L 86.6 69.248563 
" style="fill:none;stroke:#008000;stroke-dasharray:9.6,2.4,1.5,2.4;stroke-dashoffset:0;stroke-width:1.5;"/>
    </g>
    <g id="line2d_38"/>
    <g id="text_20">
     <!-- -1 sd -->
     <defs>
      <path d="M 4.890625 31.390625 
L 31.203125 31.390625 
L 31.203125 23.390625 
L 4.890625 23.390625 
z
" id="DejaVuSans-45"/>
     </defs>
     <g transform="translate(94.6 72.748563)scale(0.1 -0.1)">
      <use xlink:href="#DejaVuSans-45"/>
      <use x="36.083984" xlink:href="#DejaVuSans-49"/>
      <use x="99.707031" xlink:href="#DejaVuSans-32"/>
      <use x="131.494141" xlink:href="#DejaVuSans-115"/>
      <use x="183.59375" xlink:href="#DejaVuSans-100"/>
     </g>
    </g>
    <g id="line2d_39">
     <path d="M 66.6 83.926688 
L 86.6 83.926688 
" style="fill:none;stroke:#008000;stroke-dasharray:9.6,2.4,1.5,2.4;stroke-dashoffset:0;stroke-width:1.5;"/>
    </g>
    <g id="line2d_40"/>
    <g id="text_21">
     <!-- +1 sd -->
     <defs>
      <path d="M 46 62.703125 
L 46 35.5 
L 73.1875 35.5 
L 73.1875 27.203125 
L 46 27.203125 
L 46 0 
L 37.796875 0 
L 37.796875 27.203125 
L 10.59375 27.203125 
L 10.59375 35.5 
L 37.796875 35.5 
L 37.796875 62.703125 
z
" id="DejaVuSans-43"/>
     </defs>
     <g transform="translate(94.6 87.426688)scale(0.1 -0.1)">
      <use xlink:href="#DejaVuSans-43"/>
      <use x="83.789062" xlink:href="#DejaVuSans-49"/>
      <use x="147.412109" xlink:href="#DejaVuSans-32"/>
      <use x="179.199219" xlink:href="#DejaVuSans-115"/>
      <use x="231.298828" xlink:href="#DejaVuSans-100"/>
     </g>
    </g>
    <g id="line2d_41">
     <path d="M 66.6 98.604813 
L 86.6 98.604813 
" style="fill:none;stroke:#ff0000;stroke-linecap:square;stroke-width:1.5;"/>
    </g>
    <g id="line2d_42"/>
    <g id="text_22">
     <!-- best -->
     <g transform="translate(94.6 102.104813)scale(0.1 -0.1)">
      <use xlink:href="#DejaVuSans-98"/>
      <use x="63.476562" xlink:href="#DejaVuSans-101"/>
      <use x="125" xlink:href="#DejaVuSans-115"/>
      <use x="177.099609" xlink:href="#DejaVuSans-116"/>
     </g>
    </g>
   </g>
  </g>
 </g>
 <defs>
  <clipPath id="peaae0a2dc8">
   <rect height="266.112" width="357.12" x="57.6" y="41.472"/>
  </clipPath>
 </defs>
</svg>
