<?xml version="1.0" encoding="utf-8" standalone="no"?>
<!DOCTYPE svg PUBLIC "-//W3C//DTD SVG 1.1//EN"
  "http://www.w3.org/Graphics/SVG/1.1/DTD/svg11.dtd">
<!-- Created with matplotlib (https://matplotlib.org/) -->
<svg height="345.6pt" version="1.1" viewBox="0 0 460.8 345.6" width="460.8pt" xmlns="http://www.w3.org/2000/svg" xmlns:xlink="http://www.w3.org/1999/xlink">
 <defs>
  <style type="text/css">
*{stroke-linecap:butt;stroke-linejoin:round;}
  </style>
 </defs>
 <g id="figure_1">
  <g id="patch_1">
   <path d="M 0 345.6 
L 460.8 345.6 
L 460.8 0 
L 0 0 
z
" style="fill:#ffffff;"/>
  </g>
  <g id="axes_1">
   <g id="patch_2">
    <path d="M 57.6 307.584 
L 414.72 307.584 
L 414.72 41.472 
L 57.6 41.472 
z
" style="fill:#ffffff;"/>
   </g>
   <g id="matplotlib.axis_1">
    <g id="xtick_1">
     <g id="line2d_1">
      <path clip-path="url(#p3b0f293454)" d="M 73.832727 307.584 
L 73.832727 41.472 
" style="fill:none;stroke:#b0b0b0;stroke-linecap:square;stroke-width:0.8;"/>
     </g>
     <g id="line2d_2">
      <defs>
       <path d="M 0 0 
L 0 3.5 
" id="m31d2e94a93" style="stroke:#000000;stroke-width:0.8;"/>
      </defs>
      <g>
       <use style="stroke:#000000;stroke-width:0.8;" x="73.832727" xlink:href="#m31d2e94a93" y="307.584"/>
      </g>
     </g>
     <g id="text_1">
      <!-- 0 -->
      <defs>
       <path d="M 31.78125 66.40625 
Q 24.171875 66.40625 20.328125 58.90625 
Q 16.5 51.421875 16.5 36.375 
Q 16.5 21.390625 20.328125 13.890625 
Q 24.171875 6.390625 31.78125 6.390625 
Q 39.453125 6.390625 43.28125 13.890625 
Q 47.125 21.390625 47.125 36.375 
Q 47.125 51.421875 43.28125 58.90625 
Q 39.453125 66.40625 31.78125 66.40625 
z
M 31.78125 74.21875 
Q 44.046875 74.21875 50.515625 64.515625 
Q 56.984375 54.828125 56.984375 36.375 
Q 56.984375 17.96875 50.515625 8.265625 
Q 44.046875 -1.421875 31.78125 -1.421875 
Q 19.53125 -1.421875 13.0625 8.265625 
Q 6.59375 17.96875 6.59375 36.375 
Q 6.59375 54.828125 13.0625 64.515625 
Q 19.53125 74.21875 31.78125 74.21875 
z
" id="DejaVuSans-48"/>
      </defs>
      <g transform="translate(70.651477 322.182437)scale(0.1 -0.1)">
       <use xlink:href="#DejaVuSans-48"/>
      </g>
     </g>
    </g>
    <g id="xtick_2">
     <g id="line2d_3">
      <path clip-path="url(#p3b0f293454)" d="M 128.122785 307.584 
L 128.122785 41.472 
" style="fill:none;stroke:#b0b0b0;stroke-linecap:square;stroke-width:0.8;"/>
     </g>
     <g id="line2d_4">
      <g>
       <use style="stroke:#000000;stroke-width:0.8;" x="128.122785" xlink:href="#m31d2e94a93" y="307.584"/>
      </g>
     </g>
     <g id="text_2">
      <!-- 50 -->
      <defs>
       <path d="M 10.796875 72.90625 
L 49.515625 72.90625 
L 49.515625 64.59375 
L 19.828125 64.59375 
L 19.828125 46.734375 
Q 21.96875 47.46875 24.109375 47.828125 
Q 26.265625 48.1875 28.421875 48.1875 
Q 40.625 48.1875 47.75 41.5 
Q 54.890625 34.8125 54.890625 23.390625 
Q 54.890625 11.625 47.5625 5.09375 
Q 40.234375 -1.421875 26.90625 -1.421875 
Q 22.3125 -1.421875 17.546875 -0.640625 
Q 12.796875 0.140625 7.71875 1.703125 
L 7.71875 11.625 
Q 12.109375 9.234375 16.796875 8.0625 
Q 21.484375 6.890625 26.703125 6.890625 
Q 35.15625 6.890625 40.078125 11.328125 
Q 45.015625 15.765625 45.015625 23.390625 
Q 45.015625 31 40.078125 35.4375 
Q 35.15625 39.890625 26.703125 39.890625 
Q 22.75 39.890625 18.8125 39.015625 
Q 14.890625 38.140625 10.796875 36.28125 
z
" id="DejaVuSans-53"/>
      </defs>
      <g transform="translate(121.760285 322.182437)scale(0.1 -0.1)">
       <use xlink:href="#DejaVuSans-53"/>
       <use x="63.623047" xlink:href="#DejaVuSans-48"/>
      </g>
     </g>
    </g>
    <g id="xtick_3">
     <g id="line2d_5">
      <path clip-path="url(#p3b0f293454)" d="M 182.412843 307.584 
L 182.412843 41.472 
" style="fill:none;stroke:#b0b0b0;stroke-linecap:square;stroke-width:0.8;"/>
     </g>
     <g id="line2d_6">
      <g>
       <use style="stroke:#000000;stroke-width:0.8;" x="182.412843" xlink:href="#m31d2e94a93" y="307.584"/>
      </g>
     </g>
     <g id="text_3">
      <!-- 100 -->
      <defs>
       <path d="M 12.40625 8.296875 
L 28.515625 8.296875 
L 28.515625 63.921875 
L 10.984375 60.40625 
L 10.984375 69.390625 
L 28.421875 72.90625 
L 38.28125 72.90625 
L 38.28125 8.296875 
L 54.390625 8.296875 
L 54.390625 0 
L 12.40625 0 
z
" id="DejaVuSans-49"/>
      </defs>
      <g transform="translate(172.869093 322.182437)scale(0.1 -0.1)">
       <use xlink:href="#DejaVuSans-49"/>
       <use x="63.623047" xlink:href="#DejaVuSans-48"/>
       <use x="127.246094" xlink:href="#DejaVuSans-48"/>
      </g>
     </g>
    </g>
    <g id="xtick_4">
     <g id="line2d_7">
      <path clip-path="url(#p3b0f293454)" d="M 236.702901 307.584 
L 236.702901 41.472 
" style="fill:none;stroke:#b0b0b0;stroke-linecap:square;stroke-width:0.8;"/>
     </g>
     <g id="line2d_8">
      <g>
       <use style="stroke:#000000;stroke-width:0.8;" x="236.702901" xlink:href="#m31d2e94a93" y="307.584"/>
      </g>
     </g>
     <g id="text_4">
      <!-- 150 -->
      <g transform="translate(227.159151 322.182437)scale(0.1 -0.1)">
       <use xlink:href="#DejaVuSans-49"/>
       <use x="63.623047" xlink:href="#DejaVuSans-53"/>
       <use x="127.246094" xlink:href="#DejaVuSans-48"/>
      </g>
     </g>
    </g>
    <g id="xtick_5">
     <g id="line2d_9">
      <path clip-path="url(#p3b0f293454)" d="M 290.992958 307.584 
L 290.992958 41.472 
" style="fill:none;stroke:#b0b0b0;stroke-linecap:square;stroke-width:0.8;"/>
     </g>
     <g id="line2d_10">
      <g>
       <use style="stroke:#000000;stroke-width:0.8;" x="290.992958" xlink:href="#m31d2e94a93" y="307.584"/>
      </g>
     </g>
     <g id="text_5">
      <!-- 200 -->
      <defs>
       <path d="M 19.1875 8.296875 
L 53.609375 8.296875 
L 53.609375 0 
L 7.328125 0 
L 7.328125 8.296875 
Q 12.9375 14.109375 22.625 23.890625 
Q 32.328125 33.6875 34.8125 36.53125 
Q 39.546875 41.84375 41.421875 45.53125 
Q 43.3125 49.21875 43.3125 52.78125 
Q 43.3125 58.59375 39.234375 62.25 
Q 35.15625 65.921875 28.609375 65.921875 
Q 23.96875 65.921875 18.8125 64.3125 
Q 13.671875 62.703125 7.8125 59.421875 
L 7.8125 69.390625 
Q 13.765625 71.78125 18.9375 73 
Q 24.125 74.21875 28.421875 74.21875 
Q 39.75 74.21875 46.484375 68.546875 
Q 53.21875 62.890625 53.21875 53.421875 
Q 53.21875 48.921875 51.53125 44.890625 
Q 49.859375 40.875 45.40625 35.40625 
Q 44.1875 33.984375 37.640625 27.21875 
Q 31.109375 20.453125 19.1875 8.296875 
z
" id="DejaVuSans-50"/>
      </defs>
      <g transform="translate(281.449208 322.182437)scale(0.1 -0.1)">
       <use xlink:href="#DejaVuSans-50"/>
       <use x="63.623047" xlink:href="#DejaVuSans-48"/>
       <use x="127.246094" xlink:href="#DejaVuSans-48"/>
      </g>
     </g>
    </g>
    <g id="xtick_6">
     <g id="line2d_11">
      <path clip-path="url(#p3b0f293454)" d="M 345.283016 307.584 
L 345.283016 41.472 
" style="fill:none;stroke:#b0b0b0;stroke-linecap:square;stroke-width:0.8;"/>
     </g>
     <g id="line2d_12">
      <g>
       <use style="stroke:#000000;stroke-width:0.8;" x="345.283016" xlink:href="#m31d2e94a93" y="307.584"/>
      </g>
     </g>
     <g id="text_6">
      <!-- 250 -->
      <g transform="translate(335.739266 322.182437)scale(0.1 -0.1)">
       <use xlink:href="#DejaVuSans-50"/>
       <use x="63.623047" xlink:href="#DejaVuSans-53"/>
       <use x="127.246094" xlink:href="#DejaVuSans-48"/>
      </g>
     </g>
    </g>
    <g id="xtick_7">
     <g id="line2d_13">
      <path clip-path="url(#p3b0f293454)" d="M 399.573074 307.584 
L 399.573074 41.472 
" style="fill:none;stroke:#b0b0b0;stroke-linecap:square;stroke-width:0.8;"/>
     </g>
     <g id="line2d_14">
      <g>
       <use style="stroke:#000000;stroke-width:0.8;" x="399.573074" xlink:href="#m31d2e94a93" y="307.584"/>
      </g>
     </g>
     <g id="text_7">
      <!-- 300 -->
      <defs>
       <path d="M 40.578125 39.3125 
Q 47.65625 37.796875 51.625 33 
Q 55.609375 28.21875 55.609375 21.1875 
Q 55.609375 10.40625 48.1875 4.484375 
Q 40.765625 -1.421875 27.09375 -1.421875 
Q 22.515625 -1.421875 17.65625 -0.515625 
Q 12.796875 0.390625 7.625 2.203125 
L 7.625 11.71875 
Q 11.71875 9.328125 16.59375 8.109375 
Q 21.484375 6.890625 26.8125 6.890625 
Q 36.078125 6.890625 40.9375 10.546875 
Q 45.796875 14.203125 45.796875 21.1875 
Q 45.796875 27.640625 41.28125 31.265625 
Q 36.765625 34.90625 28.71875 34.90625 
L 20.21875 34.90625 
L 20.21875 43.015625 
L 29.109375 43.015625 
Q 36.375 43.015625 40.234375 45.921875 
Q 44.09375 48.828125 44.09375 54.296875 
Q 44.09375 59.90625 40.109375 62.90625 
Q 36.140625 65.921875 28.71875 65.921875 
Q 24.65625 65.921875 20.015625 65.03125 
Q 15.375 64.15625 9.8125 62.3125 
L 9.8125 71.09375 
Q 15.4375 72.65625 20.34375 73.4375 
Q 25.25 74.21875 29.59375 74.21875 
Q 40.828125 74.21875 47.359375 69.109375 
Q 53.90625 64.015625 53.90625 55.328125 
Q 53.90625 49.265625 50.4375 45.09375 
Q 46.96875 40.921875 40.578125 39.3125 
z
" id="DejaVuSans-51"/>
      </defs>
      <g transform="translate(390.029324 322.182437)scale(0.1 -0.1)">
       <use xlink:href="#DejaVuSans-51"/>
       <use x="63.623047" xlink:href="#DejaVuSans-48"/>
       <use x="127.246094" xlink:href="#DejaVuSans-48"/>
      </g>
     </g>
    </g>
    <g id="text_8">
     <!-- Generations -->
     <defs>
      <path d="M 59.515625 10.40625 
L 59.515625 29.984375 
L 43.40625 29.984375 
L 43.40625 38.09375 
L 69.28125 38.09375 
L 69.28125 6.78125 
Q 63.578125 2.734375 56.6875 0.65625 
Q 49.8125 -1.421875 42 -1.421875 
Q 24.90625 -1.421875 15.25 8.5625 
Q 5.609375 18.5625 5.609375 36.375 
Q 5.609375 54.25 15.25 64.234375 
Q 24.90625 74.21875 42 74.21875 
Q 49.125 74.21875 55.546875 72.453125 
Q 61.96875 70.703125 67.390625 67.28125 
L 67.390625 56.78125 
Q 61.921875 61.421875 55.765625 63.765625 
Q 49.609375 66.109375 42.828125 66.109375 
Q 29.4375 66.109375 22.71875 58.640625 
Q 16.015625 51.171875 16.015625 36.375 
Q 16.015625 21.625 22.71875 14.15625 
Q 29.4375 6.6875 42.828125 6.6875 
Q 48.046875 6.6875 52.140625 7.59375 
Q 56.25 8.5 59.515625 10.40625 
z
" id="DejaVuSans-71"/>
      <path d="M 56.203125 29.59375 
L 56.203125 25.203125 
L 14.890625 25.203125 
Q 15.484375 15.921875 20.484375 11.0625 
Q 25.484375 6.203125 34.421875 6.203125 
Q 39.59375 6.203125 44.453125 7.46875 
Q 49.3125 8.734375 54.109375 11.28125 
L 54.109375 2.78125 
Q 49.265625 0.734375 44.1875 -0.34375 
Q 39.109375 -1.421875 33.890625 -1.421875 
Q 20.796875 -1.421875 13.15625 6.1875 
Q 5.515625 13.8125 5.515625 26.8125 
Q 5.515625 40.234375 12.765625 48.109375 
Q 20.015625 56 32.328125 56 
Q 43.359375 56 49.78125 48.890625 
Q 56.203125 41.796875 56.203125 29.59375 
z
M 47.21875 32.234375 
Q 47.125 39.59375 43.09375 43.984375 
Q 39.0625 48.390625 32.421875 48.390625 
Q 24.90625 48.390625 20.390625 44.140625 
Q 15.875 39.890625 15.1875 32.171875 
z
" id="DejaVuSans-101"/>
      <path d="M 54.890625 33.015625 
L 54.890625 0 
L 45.90625 0 
L 45.90625 32.71875 
Q 45.90625 40.484375 42.875 44.328125 
Q 39.84375 48.1875 33.796875 48.1875 
Q 26.515625 48.1875 22.3125 43.546875 
Q 18.109375 38.921875 18.109375 30.90625 
L 18.109375 0 
L 9.078125 0 
L 9.078125 54.6875 
L 18.109375 54.6875 
L 18.109375 46.1875 
Q 21.34375 51.125 25.703125 53.5625 
Q 30.078125 56 35.796875 56 
Q 45.21875 56 50.046875 50.171875 
Q 54.890625 44.34375 54.890625 33.015625 
z
" id="DejaVuSans-110"/>
      <path d="M 41.109375 46.296875 
Q 39.59375 47.171875 37.8125 47.578125 
Q 36.03125 48 33.890625 48 
Q 26.265625 48 22.1875 43.046875 
Q 18.109375 38.09375 18.109375 28.8125 
L 18.109375 0 
L 9.078125 0 
L 9.078125 54.6875 
L 18.109375 54.6875 
L 18.109375 46.1875 
Q 20.953125 51.171875 25.484375 53.578125 
Q 30.03125 56 36.53125 56 
Q 37.453125 56 38.578125 55.875 
Q 39.703125 55.765625 41.0625 55.515625 
z
" id="DejaVuSans-114"/>
      <path d="M 34.28125 27.484375 
Q 23.390625 27.484375 19.1875 25 
Q 14.984375 22.515625 14.984375 16.5 
Q 14.984375 11.71875 18.140625 8.90625 
Q 21.296875 6.109375 26.703125 6.109375 
Q 34.1875 6.109375 38.703125 11.40625 
Q 43.21875 16.703125 43.21875 25.484375 
L 43.21875 27.484375 
z
M 52.203125 31.203125 
L 52.203125 0 
L 43.21875 0 
L 43.21875 8.296875 
Q 40.140625 3.328125 35.546875 0.953125 
Q 30.953125 -1.421875 24.3125 -1.421875 
Q 15.921875 -1.421875 10.953125 3.296875 
Q 6 8.015625 6 15.921875 
Q 6 25.140625 12.171875 29.828125 
Q 18.359375 34.515625 30.609375 34.515625 
L 43.21875 34.515625 
L 43.21875 35.40625 
Q 43.21875 41.609375 39.140625 45 
Q 35.0625 48.390625 27.6875 48.390625 
Q 23 48.390625 18.546875 47.265625 
Q 14.109375 46.140625 10.015625 43.890625 
L 10.015625 52.203125 
Q 14.9375 54.109375 19.578125 55.046875 
Q 24.21875 56 28.609375 56 
Q 40.484375 56 46.34375 49.84375 
Q 52.203125 43.703125 52.203125 31.203125 
z
" id="DejaVuSans-97"/>
      <path d="M 18.3125 70.21875 
L 18.3125 54.6875 
L 36.8125 54.6875 
L 36.8125 47.703125 
L 18.3125 47.703125 
L 18.3125 18.015625 
Q 18.3125 11.328125 20.140625 9.421875 
Q 21.96875 7.515625 27.59375 7.515625 
L 36.8125 7.515625 
L 36.8125 0 
L 27.59375 0 
Q 17.1875 0 13.234375 3.875 
Q 9.28125 7.765625 9.28125 18.015625 
L 9.28125 47.703125 
L 2.6875 47.703125 
L 2.6875 54.6875 
L 9.28125 54.6875 
L 9.28125 70.21875 
z
" id="DejaVuSans-116"/>
      <path d="M 9.421875 54.6875 
L 18.40625 54.6875 
L 18.40625 0 
L 9.421875 0 
z
M 9.421875 75.984375 
L 18.40625 75.984375 
L 18.40625 64.59375 
L 9.421875 64.59375 
z
" id="DejaVuSans-105"/>
      <path d="M 30.609375 48.390625 
Q 23.390625 48.390625 19.1875 42.75 
Q 14.984375 37.109375 14.984375 27.296875 
Q 14.984375 17.484375 19.15625 11.84375 
Q 23.34375 6.203125 30.609375 6.203125 
Q 37.796875 6.203125 41.984375 11.859375 
Q 46.1875 17.53125 46.1875 27.296875 
Q 46.1875 37.015625 41.984375 42.703125 
Q 37.796875 48.390625 30.609375 48.390625 
z
M 30.609375 56 
Q 42.328125 56 49.015625 48.375 
Q 55.71875 40.765625 55.71875 27.296875 
Q 55.71875 13.875 49.015625 6.21875 
Q 42.328125 -1.421875 30.609375 -1.421875 
Q 18.84375 -1.421875 12.171875 6.21875 
Q 5.515625 13.875 5.515625 27.296875 
Q 5.515625 40.765625 12.171875 48.375 
Q 18.84375 56 30.609375 56 
z
" id="DejaVuSans-111"/>
      <path d="M 44.28125 53.078125 
L 44.28125 44.578125 
Q 40.484375 46.53125 36.375 47.5 
Q 32.28125 48.484375 27.875 48.484375 
Q 21.1875 48.484375 17.84375 46.4375 
Q 14.5 44.390625 14.5 40.28125 
Q 14.5 37.15625 16.890625 35.375 
Q 19.28125 33.59375 26.515625 31.984375 
L 29.59375 31.296875 
Q 39.15625 29.25 43.1875 25.515625 
Q 47.21875 21.78125 47.21875 15.09375 
Q 47.21875 7.46875 41.1875 3.015625 
Q 35.15625 -1.421875 24.609375 -1.421875 
Q 20.21875 -1.421875 15.453125 -0.5625 
Q 10.6875 0.296875 5.421875 2 
L 5.421875 11.28125 
Q 10.40625 8.6875 15.234375 7.390625 
Q 20.0625 6.109375 24.8125 6.109375 
Q 31.15625 6.109375 34.5625 8.28125 
Q 37.984375 10.453125 37.984375 14.40625 
Q 37.984375 18.0625 35.515625 20.015625 
Q 33.0625 21.96875 24.703125 23.78125 
L 21.578125 24.515625 
Q 13.234375 26.265625 9.515625 29.90625 
Q 5.8125 33.546875 5.8125 39.890625 
Q 5.8125 47.609375 11.28125 51.796875 
Q 16.75 56 26.8125 56 
Q 31.78125 56 36.171875 55.265625 
Q 40.578125 54.546875 44.28125 53.078125 
z
" id="DejaVuSans-115"/>
     </defs>
     <g transform="translate(205.662344 335.860562)scale(0.1 -0.1)">
      <use xlink:href="#DejaVuSans-71"/>
      <use x="77.490234" xlink:href="#DejaVuSans-101"/>
      <use x="139.013672" xlink:href="#DejaVuSans-110"/>
      <use x="202.392578" xlink:href="#DejaVuSans-101"/>
      <use x="263.916016" xlink:href="#DejaVuSans-114"/>
      <use x="305.029297" xlink:href="#DejaVuSans-97"/>
      <use x="366.308594" xlink:href="#DejaVuSans-116"/>
      <use x="405.517578" xlink:href="#DejaVuSans-105"/>
      <use x="433.300781" xlink:href="#DejaVuSans-111"/>
      <use x="494.482422" xlink:href="#DejaVuSans-110"/>
      <use x="557.861328" xlink:href="#DejaVuSans-115"/>
     </g>
    </g>
   </g>
   <g id="matplotlib.axis_2">
    <g id="ytick_1">
     <g id="line2d_15">
      <path clip-path="url(#p3b0f293454)" d="M 57.6 297.740516 
L 414.72 297.740516 
" style="fill:none;stroke:#b0b0b0;stroke-linecap:square;stroke-width:0.8;"/>
     </g>
     <g id="line2d_16">
      <defs>
       <path d="M 0 0 
L -3.5 0 
" id="m7a00df0ef1" style="stroke:#000000;stroke-width:0.8;"/>
      </defs>
      <g>
       <use style="stroke:#000000;stroke-width:0.8;" x="57.6" xlink:href="#m7a00df0ef1" y="297.740516"/>
      </g>
     </g>
     <g id="text_9">
      <!-- 600 -->
      <defs>
       <path d="M 33.015625 40.375 
Q 26.375 40.375 22.484375 35.828125 
Q 18.609375 31.296875 18.609375 23.390625 
Q 18.609375 15.53125 22.484375 10.953125 
Q 26.375 6.390625 33.015625 6.390625 
Q 39.65625 6.390625 43.53125 10.953125 
Q 47.40625 15.53125 47.40625 23.390625 
Q 47.40625 31.296875 43.53125 35.828125 
Q 39.65625 40.375 33.015625 40.375 
z
M 52.59375 71.296875 
L 52.59375 62.3125 
Q 48.875 64.0625 45.09375 64.984375 
Q 41.3125 65.921875 37.59375 65.921875 
Q 27.828125 65.921875 22.671875 59.328125 
Q 17.53125 52.734375 16.796875 39.40625 
Q 19.671875 43.65625 24.015625 45.921875 
Q 28.375 48.1875 33.59375 48.1875 
Q 44.578125 48.1875 50.953125 41.515625 
Q 57.328125 34.859375 57.328125 23.390625 
Q 57.328125 12.15625 50.6875 5.359375 
Q 44.046875 -1.421875 33.015625 -1.421875 
Q 20.359375 -1.421875 13.671875 8.265625 
Q 6.984375 17.96875 6.984375 36.375 
Q 6.984375 53.65625 15.1875 63.9375 
Q 23.390625 74.21875 37.203125 74.21875 
Q 40.921875 74.21875 44.703125 73.484375 
Q 48.484375 72.75 52.59375 71.296875 
z
" id="DejaVuSans-54"/>
      </defs>
      <g transform="translate(31.5125 301.539735)scale(0.1 -0.1)">
       <use xlink:href="#DejaVuSans-54"/>
       <use x="63.623047" xlink:href="#DejaVuSans-48"/>
       <use x="127.246094" xlink:href="#DejaVuSans-48"/>
      </g>
     </g>
    </g>
    <g id="ytick_2">
     <g id="line2d_17">
      <path clip-path="url(#p3b0f293454)" d="M 57.6 256.588131 
L 414.72 256.588131 
" style="fill:none;stroke:#b0b0b0;stroke-linecap:square;stroke-width:0.8;"/>
     </g>
     <g id="line2d_18">
      <g>
       <use style="stroke:#000000;stroke-width:0.8;" x="57.6" xlink:href="#m7a00df0ef1" y="256.588131"/>
      </g>
     </g>
     <g id="text_10">
      <!-- 800 -->
      <defs>
       <path d="M 31.78125 34.625 
Q 24.75 34.625 20.71875 30.859375 
Q 16.703125 27.09375 16.703125 20.515625 
Q 16.703125 13.921875 20.71875 10.15625 
Q 24.75 6.390625 31.78125 6.390625 
Q 38.8125 6.390625 42.859375 10.171875 
Q 46.921875 13.96875 46.921875 20.515625 
Q 46.921875 27.09375 42.890625 30.859375 
Q 38.875 34.625 31.78125 34.625 
z
M 21.921875 38.8125 
Q 15.578125 40.375 12.03125 44.71875 
Q 8.5 49.078125 8.5 55.328125 
Q 8.5 64.0625 14.71875 69.140625 
Q 20.953125 74.21875 31.78125 74.21875 
Q 42.671875 74.21875 48.875 69.140625 
Q 55.078125 64.0625 55.078125 55.328125 
Q 55.078125 49.078125 51.53125 44.71875 
Q 48 40.375 41.703125 38.8125 
Q 48.828125 37.15625 52.796875 32.3125 
Q 56.78125 27.484375 56.78125 20.515625 
Q 56.78125 9.90625 50.3125 4.234375 
Q 43.84375 -1.421875 31.78125 -1.421875 
Q 19.734375 -1.421875 13.25 4.234375 
Q 6.78125 9.90625 6.78125 20.515625 
Q 6.78125 27.484375 10.78125 32.3125 
Q 14.796875 37.15625 21.921875 38.8125 
z
M 18.3125 54.390625 
Q 18.3125 48.734375 21.84375 45.5625 
Q 25.390625 42.390625 31.78125 42.390625 
Q 38.140625 42.390625 41.71875 45.5625 
Q 45.3125 48.734375 45.3125 54.390625 
Q 45.3125 60.0625 41.71875 63.234375 
Q 38.140625 66.40625 31.78125 66.40625 
Q 25.390625 66.40625 21.84375 63.234375 
Q 18.3125 60.0625 18.3125 54.390625 
z
" id="DejaVuSans-56"/>
      </defs>
      <g transform="translate(31.5125 260.387349)scale(0.1 -0.1)">
       <use xlink:href="#DejaVuSans-56"/>
       <use x="63.623047" xlink:href="#DejaVuSans-48"/>
       <use x="127.246094" xlink:href="#DejaVuSans-48"/>
      </g>
     </g>
    </g>
    <g id="ytick_3">
     <g id="line2d_19">
      <path clip-path="url(#p3b0f293454)" d="M 57.6 215.435745 
L 414.72 215.435745 
" style="fill:none;stroke:#b0b0b0;stroke-linecap:square;stroke-width:0.8;"/>
     </g>
     <g id="line2d_20">
      <g>
       <use style="stroke:#000000;stroke-width:0.8;" x="57.6" xlink:href="#m7a00df0ef1" y="215.435745"/>
      </g>
     </g>
     <g id="text_11">
      <!-- 1000 -->
      <g transform="translate(25.15 219.234964)scale(0.1 -0.1)">
       <use xlink:href="#DejaVuSans-49"/>
       <use x="63.623047" xlink:href="#DejaVuSans-48"/>
       <use x="127.246094" xlink:href="#DejaVuSans-48"/>
       <use x="190.869141" xlink:href="#DejaVuSans-48"/>
      </g>
     </g>
    </g>
    <g id="ytick_4">
     <g id="line2d_21">
      <path clip-path="url(#p3b0f293454)" d="M 57.6 174.28336 
L 414.72 174.28336 
" style="fill:none;stroke:#b0b0b0;stroke-linecap:square;stroke-width:0.8;"/>
     </g>
     <g id="line2d_22">
      <g>
       <use style="stroke:#000000;stroke-width:0.8;" x="57.6" xlink:href="#m7a00df0ef1" y="174.28336"/>
      </g>
     </g>
     <g id="text_12">
      <!-- 1200 -->
      <g transform="translate(25.15 178.082579)scale(0.1 -0.1)">
       <use xlink:href="#DejaVuSans-49"/>
       <use x="63.623047" xlink:href="#DejaVuSans-50"/>
       <use x="127.246094" xlink:href="#DejaVuSans-48"/>
       <use x="190.869141" xlink:href="#DejaVuSans-48"/>
      </g>
     </g>
    </g>
    <g id="ytick_5">
     <g id="line2d_23">
      <path clip-path="url(#p3b0f293454)" d="M 57.6 133.130975 
L 414.72 133.130975 
" style="fill:none;stroke:#b0b0b0;stroke-linecap:square;stroke-width:0.8;"/>
     </g>
     <g id="line2d_24">
      <g>
       <use style="stroke:#000000;stroke-width:0.8;" x="57.6" xlink:href="#m7a00df0ef1" y="133.130975"/>
      </g>
     </g>
     <g id="text_13">
      <!-- 1400 -->
      <defs>
       <path d="M 37.796875 64.3125 
L 12.890625 25.390625 
L 37.796875 25.390625 
z
M 35.203125 72.90625 
L 47.609375 72.90625 
L 47.609375 25.390625 
L 58.015625 25.390625 
L 58.015625 17.1875 
L 47.609375 17.1875 
L 47.609375 0 
L 37.796875 0 
L 37.796875 17.1875 
L 4.890625 17.1875 
L 4.890625 26.703125 
z
" id="DejaVuSans-52"/>
      </defs>
      <g transform="translate(25.15 136.930194)scale(0.1 -0.1)">
       <use xlink:href="#DejaVuSans-49"/>
       <use x="63.623047" xlink:href="#DejaVuSans-52"/>
       <use x="127.246094" xlink:href="#DejaVuSans-48"/>
       <use x="190.869141" xlink:href="#DejaVuSans-48"/>
      </g>
     </g>
    </g>
    <g id="ytick_6">
     <g id="line2d_25">
      <path clip-path="url(#p3b0f293454)" d="M 57.6 91.978589 
L 414.72 91.978589 
" style="fill:none;stroke:#b0b0b0;stroke-linecap:square;stroke-width:0.8;"/>
     </g>
     <g id="line2d_26">
      <g>
       <use style="stroke:#000000;stroke-width:0.8;" x="57.6" xlink:href="#m7a00df0ef1" y="91.978589"/>
      </g>
     </g>
     <g id="text_14">
      <!-- 1600 -->
      <g transform="translate(25.15 95.777808)scale(0.1 -0.1)">
       <use xlink:href="#DejaVuSans-49"/>
       <use x="63.623047" xlink:href="#DejaVuSans-54"/>
       <use x="127.246094" xlink:href="#DejaVuSans-48"/>
       <use x="190.869141" xlink:href="#DejaVuSans-48"/>
      </g>
     </g>
    </g>
    <g id="ytick_7">
     <g id="line2d_27">
      <path clip-path="url(#p3b0f293454)" d="M 57.6 50.826204 
L 414.72 50.826204 
" style="fill:none;stroke:#b0b0b0;stroke-linecap:square;stroke-width:0.8;"/>
     </g>
     <g id="line2d_28">
      <g>
       <use style="stroke:#000000;stroke-width:0.8;" x="57.6" xlink:href="#m7a00df0ef1" y="50.826204"/>
      </g>
     </g>
     <g id="text_15">
      <!-- 1800 -->
      <g transform="translate(25.15 54.625423)scale(0.1 -0.1)">
       <use xlink:href="#DejaVuSans-49"/>
       <use x="63.623047" xlink:href="#DejaVuSans-56"/>
       <use x="127.246094" xlink:href="#DejaVuSans-48"/>
       <use x="190.869141" xlink:href="#DejaVuSans-48"/>
      </g>
     </g>
    </g>
    <g id="text_16">
     <!-- Fitness -->
     <defs>
      <path d="M 9.8125 72.90625 
L 51.703125 72.90625 
L 51.703125 64.59375 
L 19.671875 64.59375 
L 19.671875 43.109375 
L 48.578125 43.109375 
L 48.578125 34.8125 
L 19.671875 34.8125 
L 19.671875 0 
L 9.8125 0 
z
" id="DejaVuSans-70"/>
     </defs>
     <g transform="translate(19.070312 192.202219)rotate(-90)scale(0.1 -0.1)">
      <use xlink:href="#DejaVuSans-70"/>
      <use x="57.410156" xlink:href="#DejaVuSans-105"/>
      <use x="85.193359" xlink:href="#DejaVuSans-116"/>
      <use x="124.402344" xlink:href="#DejaVuSans-110"/>
      <use x="187.78125" xlink:href="#DejaVuSans-101"/>
      <use x="249.304688" xlink:href="#DejaVuSans-115"/>
      <use x="301.404297" xlink:href="#DejaVuSans-115"/>
     </g>
    </g>
   </g>
   <g id="line2d_29">
    <path clip-path="url(#p3b0f293454)" d="M 73.832727 275.550838 
L 74.918528 214.034881 
L 76.00433 193.86025 
L 77.090131 207.310734 
L 78.175932 234.081866 
L 79.261733 231.67903 
L 80.347534 216.944473 
L 81.433335 192.404068 
L 82.519137 217.468775 
L 83.604938 203.174935 
L 84.690739 209.347371 
L 85.77654 204.436417 
L 86.862341 194.181568 
L 87.948142 193.646332 
L 89.033943 214.776456 
L 90.119745 202.277834 
L 91.205546 187.87791 
L 92.291347 198.028691 
L 93.377148 186.758624 
L 94.462949 187.645723 
L 95.54875 176.194048 
L 96.634552 193.973698 
L 97.720353 181.105522 
L 98.806154 158.296283 
L 99.891955 172.428728 
L 100.977756 170.122497 
L 102.063557 154.696176 
L 103.149358 166.591551 
L 104.23516 181.905808 
L 105.320961 173.854898 
L 106.406762 167.011195 
L 108.578364 189.20422 
L 109.664165 185.890016 
L 110.749967 193.658305 
L 111.835768 173.071305 
L 112.921569 173.380435 
L 114.00737 190.979642 
L 116.178972 212.48202 
L 117.264773 210.781586 
L 118.350575 187.198912 
L 119.436376 176.240309 
L 120.522177 178.92495 
L 121.607978 186.586118 
L 122.693779 192.597156 
L 123.77958 183.422411 
L 124.865382 185.050385 
L 125.951183 162.241646 
L 127.036984 178.451711 
L 128.122785 173.06701 
L 129.208586 185.534978 
L 130.294387 177.450254 
L 131.380189 173.029343 
L 132.46599 167.547267 
L 133.551791 165.790658 
L 134.637592 220.518746 
L 135.723393 192.467944 
L 136.809194 179.105051 
L 137.894995 163.276986 
L 138.980797 179.454583 
L 140.066598 168.331835 
L 141.152399 164.950061 
L 142.2382 164.495078 
L 143.324001 168.357052 
L 144.409802 157.727182 
L 145.495604 155.934134 
L 146.581405 191.704235 
L 147.667206 206.252681 
L 148.753007 152.949033 
L 149.838808 154.91936 
L 150.924609 159.302815 
L 152.01041 175.201667 
L 153.096212 153.278254 
L 154.182013 157.178669 
L 155.267814 166.024504 
L 156.353615 149.418511 
L 157.439416 161.896376 
L 158.525217 142.383414 
L 159.611019 159.469646 
L 160.69682 157.910021 
L 161.782621 158.191147 
L 162.868422 153.588294 
L 163.954223 152.374557 
L 165.040024 169.547617 
L 166.125825 167.855907 
L 167.211627 165.424117 
L 168.297428 183.824643 
L 169.383229 165.692303 
L 170.46903 187.134569 
L 171.554831 169.960961 
L 172.640632 163.342177 
L 173.726434 167.278725 
L 174.812235 159.977774 
L 175.898036 168.340068 
L 176.983837 169.999041 
L 178.069638 161.67738 
L 179.155439 157.276005 
L 180.24124 168.129795 
L 181.327042 152.357346 
L 182.412843 193.484966 
L 183.498644 161.268241 
L 184.584445 167.242746 
L 185.670246 169.064147 
L 186.756047 195.667354 
L 187.841849 163.213197 
L 188.92765 158.06829 
L 190.013451 146.932036 
L 191.099252 177.728433 
L 193.270854 175.726677 
L 194.356656 148.691516 
L 195.442457 189.073721 
L 196.528258 159.603279 
L 197.614059 146.535493 
L 198.69986 161.247398 
L 199.785661 160.780006 
L 200.871462 173.036636 
L 201.957264 156.100445 
L 203.043065 164.365066 
L 204.128866 180.054531 
L 205.214667 173.643427 
L 206.300468 164.383303 
L 207.386269 162.62484 
L 208.472071 156.400972 
L 209.557872 146.959548 
L 210.643673 176.562978 
L 211.729474 169.001957 
L 212.815275 180.558782 
L 213.901076 164.625807 
L 214.986877 193.141912 
L 216.072679 160.135772 
L 217.15848 157.249177 
L 218.244281 161.982206 
L 219.330082 171.193698 
L 220.415883 175.52202 
L 221.501684 157.228692 
L 222.587486 166.036051 
L 223.673287 155.885904 
L 224.759088 171.682414 
L 225.844889 169.982818 
L 226.93069 180.449584 
L 228.016491 175.302581 
L 229.102292 169.339735 
L 230.188094 193.285231 
L 231.273895 161.794642 
L 232.359696 173.089188 
L 233.445497 166.249966 
L 234.531298 165.095123 
L 235.617099 172.688616 
L 236.702901 171.135353 
L 237.788702 175.025767 
L 238.874503 196.951363 
L 239.960304 194.753192 
L 241.046105 163.799714 
L 242.131906 152.5738 
L 243.217708 157.418265 
L 244.303509 154.262345 
L 245.38931 157.65884 
L 246.475111 150.507751 
L 247.560912 173.642051 
L 248.646713 165.460068 
L 249.732514 155.2497 
L 250.818316 156.788928 
L 251.904117 153.709674 
L 252.989918 138.052299 
L 254.075719 150.411576 
L 255.16152 160.69594 
L 256.247321 159.054677 
L 257.333123 169.292669 
L 258.418924 156.247815 
L 259.504725 151.452752 
L 260.590526 162.063288 
L 261.676327 161.827997 
L 262.762128 148.69299 
L 263.847929 149.786314 
L 264.933731 159.880243 
L 266.019532 146.760867 
L 267.105333 150.059189 
L 268.191134 166.204041 
L 269.276935 171.37357 
L 270.362736 158.386621 
L 271.448538 127.257651 
L 272.534339 135.274899 
L 273.62014 149.392683 
L 274.705941 138.021514 
L 275.791742 156.076411 
L 276.877543 143.049762 
L 277.963344 149.103139 
L 279.049146 148.875549 
L 280.134947 134.10465 
L 281.220748 134.480867 
L 282.306549 136.761489 
L 283.39235 141.6085 
L 284.478151 137.667348 
L 285.563953 137.264818 
L 286.649754 128.363204 
L 287.735555 164.588252 
L 288.821356 138.237749 
L 289.907157 168.391506 
L 290.992958 147.240878 
L 292.07876 140.368368 
L 293.164561 154.851883 
L 294.250362 147.629944 
L 295.336163 161.077507 
L 296.421964 142.568381 
L 297.507765 152.070499 
L 298.593566 127.473953 
L 299.679368 129.890576 
L 300.765169 136.198714 
L 301.85097 128.146861 
L 302.936771 146.811503 
L 304.022572 156.217437 
L 305.108373 140.676975 
L 306.194175 176.386381 
L 307.279976 136.082845 
L 308.365777 155.234786 
L 309.451578 136.890462 
L 310.537379 140.136927 
L 311.62318 136.612119 
L 312.708981 132.059818 
L 313.794783 132.537992 
L 314.880584 146.691683 
L 315.966385 124.267916 
L 317.052186 131.490186 
L 318.137987 141.144136 
L 319.223788 131.023324 
L 320.30959 162.340854 
L 321.395391 133.684653 
L 322.481192 143.075176 
L 323.566993 154.943524 
L 324.652794 147.41271 
L 325.738595 147.320488 
L 326.824396 146.231196 
L 327.910198 140.10053 
L 328.995999 169.009943 
L 330.0818 151.180132 
L 331.167601 153.781899 
L 332.253402 158.978699 
L 333.339203 132.301112 
L 334.425005 148.67726 
L 335.510806 145.580836 
L 336.596607 148.503185 
L 337.682408 133.578601 
L 338.768209 145.648775 
L 339.85401 170.553845 
L 340.939811 127.426679 
L 342.025613 136.368463 
L 343.111414 134.679121 
L 344.197215 123.312763 
L 346.368817 166.691504 
L 347.454618 142.299323 
L 348.54042 152.323475 
L 349.626221 157.912644 
L 350.712022 159.320879 
L 351.797823 156.337414 
L 352.883624 179.079418 
L 353.969425 156.555083 
L 355.055227 173.374108 
L 356.141028 143.543173 
L 357.226829 165.441917 
L 358.31263 166.87176 
L 359.398431 172.234986 
L 360.484232 168.26059 
L 361.570033 137.765379 
L 362.655835 158.918847 
L 363.741636 150.121685 
L 364.827437 152.746651 
L 365.913238 149.139895 
L 366.999039 141.329556 
L 368.08484 185.328372 
L 369.170642 155.901655 
L 370.256443 149.512156 
L 371.342244 165.073361 
L 372.428045 154.439787 
L 373.513846 167.506384 
L 374.599647 146.296337 
L 375.685448 159.09923 
L 376.77125 146.49204 
L 377.857051 138.229115 
L 378.942852 151.786301 
L 380.028653 127.134256 
L 381.114454 133.452166 
L 382.200255 161.846335 
L 383.286057 143.767102 
L 385.457659 129.052898 
L 386.54346 148.348099 
L 387.629261 132.171598 
L 388.715062 143.718726 
L 389.800863 144.653631 
L 390.886665 140.614835 
L 391.972466 178.542546 
L 393.058267 170.876746 
L 394.144068 148.220334 
L 395.229869 151.784207 
L 396.31567 166.031263 
L 397.401472 140.889424 
L 398.487273 152.16629 
L 398.487273 152.16629 
" style="fill:none;stroke:#0000ff;stroke-linecap:square;stroke-width:1.5;"/>
   </g>
   <g id="line2d_30">
    <path clip-path="url(#p3b0f293454)" d="M 73.832727 283.32864 
L 74.918528 226.043375 
L 76.00433 203.049055 
L 77.090131 220.56844 
L 78.175932 267.327245 
L 79.261733 286.798116 
L 80.347534 243.610335 
L 81.433335 216.661576 
L 82.519137 262.862021 
L 83.604938 234.928046 
L 84.690739 236.839314 
L 85.77654 257.23933 
L 86.862341 232.383537 
L 87.948142 223.664612 
L 89.033943 254.194408 
L 90.119745 234.178928 
L 91.205546 217.000256 
L 92.291347 237.376524 
L 93.377148 229.262335 
L 94.462949 234.035579 
L 95.54875 210.871624 
L 96.634552 230.063438 
L 97.720353 225.82357 
L 98.806154 184.97318 
L 99.891955 206.519112 
L 100.977756 200.166264 
L 102.063557 178.937246 
L 103.149358 201.583094 
L 104.23516 219.888291 
L 105.320961 217.974856 
L 106.406762 192.435878 
L 107.492563 216.219146 
L 108.578364 249.773963 
L 109.664165 219.785078 
L 110.749967 253.541319 
L 111.835768 224.877437 
L 112.921569 205.683426 
L 114.00737 239.563663 
L 115.093171 280.661722 
L 116.178972 267.004149 
L 117.264773 286.299991 
L 118.350575 236.593855 
L 119.436376 224.344552 
L 120.522177 235.964864 
L 121.607978 240.368895 
L 122.693779 242.679264 
L 123.77958 239.322544 
L 124.865382 244.91405 
L 125.951183 203.595603 
L 127.036984 239.200637 
L 128.122785 229.149854 
L 129.208586 243.71685 
L 130.294387 236.567446 
L 131.380189 211.084724 
L 132.46599 215.483186 
L 133.551791 217.466386 
L 134.637592 282.384808 
L 135.723393 242.662814 
L 136.809194 236.906493 
L 137.894995 211.572673 
L 138.980797 222.624377 
L 140.066598 216.689875 
L 141.152399 200.742611 
L 142.2382 207.370616 
L 143.324001 210.896066 
L 144.409802 199.228705 
L 145.495604 180.810829 
L 146.581405 247.406997 
L 147.667206 295.488 
L 148.753007 189.711249 
L 149.838808 199.967312 
L 150.924609 181.325903 
L 152.01041 232.26229 
L 153.096212 190.465463 
L 154.182013 189.638982 
L 155.267814 191.031281 
L 156.353615 186.77911 
L 157.439416 197.442606 
L 158.525217 167.620812 
L 159.611019 183.218133 
L 160.69682 184.643579 
L 161.782621 204.80848 
L 163.954223 182.263486 
L 165.040024 227.524246 
L 166.125825 191.477962 
L 167.211627 216.400176 
L 168.297428 250.975452 
L 169.383229 190.68093 
L 170.46903 233.487153 
L 171.554831 204.149427 
L 172.640632 183.597634 
L 173.726434 207.941815 
L 174.812235 194.599031 
L 175.898036 202.105954 
L 176.983837 212.181919 
L 178.069638 196.818692 
L 179.155439 183.903543 
L 180.24124 221.979015 
L 181.327042 192.475878 
L 182.412843 280.300437 
L 183.498644 211.373324 
L 184.584445 211.886939 
L 185.670246 192.491252 
L 186.756047 257.968565 
L 187.841849 205.995715 
L 188.92765 204.333804 
L 190.013451 188.945292 
L 191.099252 218.266864 
L 192.185053 203.965909 
L 193.270854 220.002581 
L 194.356656 164.819793 
L 195.442457 255.155229 
L 196.528258 208.349322 
L 197.614059 166.711452 
L 198.69986 202.605241 
L 199.785661 196.089111 
L 200.871462 231.876704 
L 201.957264 196.444678 
L 203.043065 204.158444 
L 204.128866 204.558035 
L 205.214667 207.826115 
L 206.300468 188.893045 
L 207.386269 186.083016 
L 208.472071 179.612846 
L 209.557872 169.148737 
L 210.643673 212.208843 
L 211.729474 199.656988 
L 212.815275 218.514956 
L 213.901076 204.81684 
L 214.986877 254.987333 
L 216.072679 203.758355 
L 217.15848 184.017048 
L 218.244281 201.445934 
L 219.330082 223.719336 
L 220.415883 225.17311 
L 221.501684 181.458132 
L 222.587486 202.090095 
L 223.673287 181.449666 
L 224.759088 240.546471 
L 225.844889 226.380101 
L 226.93069 265.801578 
L 228.016491 217.137063 
L 229.102292 232.953278 
L 230.188094 266.684193 
L 231.273895 192.628237 
L 232.359696 222.780618 
L 233.445497 191.81309 
L 234.531298 202.575116 
L 235.617099 234.855664 
L 236.702901 218.196845 
L 237.788702 209.987757 
L 238.874503 279.148973 
L 239.960304 265.389634 
L 241.046105 191.496617 
L 242.131906 190.370498 
L 243.217708 180.574242 
L 244.303509 183.818251 
L 245.38931 188.686738 
L 246.475111 171.295445 
L 247.560912 219.241783 
L 248.646713 190.619072 
L 249.732514 188.429818 
L 250.818316 191.490524 
L 251.904117 187.96421 
L 252.989918 153.413455 
L 254.075719 184.349882 
L 255.16152 197.704984 
L 256.247321 191.598559 
L 257.333123 238.056604 
L 258.418924 198.230454 
L 259.504725 179.279225 
L 260.590526 210.548888 
L 261.676327 209.722657 
L 262.762128 180.363818 
L 263.847929 197.533312 
L 264.933731 208.181387 
L 266.019532 180.637503 
L 267.105333 193.121731 
L 268.191134 220.499181 
L 269.276935 251.440078 
L 270.362736 191.761412 
L 271.448538 155.122681 
L 272.534339 170.615354 
L 273.62014 195.428268 
L 274.705941 172.138426 
L 275.791742 212.915938 
L 276.877543 180.647677 
L 277.963344 172.593903 
L 279.049146 190.248694 
L 280.134947 180.631598 
L 281.220748 165.57184 
L 282.306549 178.942384 
L 283.39235 177.973123 
L 284.478151 183.198296 
L 285.563953 169.35244 
L 286.649754 168.513783 
L 287.735555 212.973499 
L 288.821356 194.818499 
L 289.907157 240.306393 
L 290.992958 192.771426 
L 292.07876 178.436463 
L 293.164561 209.625903 
L 294.250362 187.545431 
L 295.336163 218.693384 
L 296.421964 182.004793 
L 297.507765 198.020723 
L 298.593566 156.45915 
L 299.679368 161.256688 
L 300.765169 167.22286 
L 301.85097 161.070865 
L 302.936771 208.619796 
L 304.022572 209.526388 
L 305.108373 171.439224 
L 306.194175 232.011718 
L 307.279976 182.931656 
L 308.365777 194.566043 
L 309.451578 175.958648 
L 310.537379 195.687324 
L 311.62318 181.157648 
L 312.708981 172.559513 
L 313.794783 170.791341 
L 314.880584 185.188064 
L 315.966385 178.959302 
L 317.052186 175.91884 
L 318.137987 187.735685 
L 319.223788 169.823331 
L 320.30959 226.75099 
L 321.395391 174.105242 
L 322.481192 187.126208 
L 323.566993 209.819318 
L 324.652794 210.046285 
L 325.738595 194.721969 
L 326.824396 189.050886 
L 327.910198 181.733956 
L 328.995999 228.723125 
L 330.0818 208.591104 
L 331.167601 202.651499 
L 332.253402 210.437192 
L 333.339203 161.446892 
L 334.425005 194.142774 
L 335.510806 195.56037 
L 336.596607 204.450275 
L 337.682408 172.252567 
L 338.768209 195.960179 
L 339.85401 241.929668 
L 340.939811 173.925009 
L 342.025613 179.250563 
L 343.111414 191.520354 
L 344.197215 174.72778 
L 345.283016 216.633302 
L 346.368817 252.716517 
L 347.454618 215.23148 
L 348.54042 214.491209 
L 349.626221 242.056902 
L 350.712022 228.745082 
L 351.797823 217.594486 
L 352.883624 264.238054 
L 353.969425 222.551135 
L 355.055227 253.033086 
L 356.141028 188.251095 
L 357.226829 237.241684 
L 358.31263 249.321197 
L 359.398431 251.610361 
L 360.484232 242.481694 
L 361.570033 183.147927 
L 362.655835 228.668784 
L 363.741636 215.842446 
L 364.827437 219.005986 
L 365.913238 223.155803 
L 366.999039 194.479032 
L 368.08484 269.565273 
L 369.170642 215.283267 
L 370.256443 220.131123 
L 371.342244 227.36175 
L 372.428045 210.683023 
L 373.513846 225.459601 
L 374.599647 212.850366 
L 375.685448 214.339757 
L 376.77125 203.353667 
L 377.857051 171.334831 
L 378.942852 205.130602 
L 380.028653 158.904979 
L 381.114454 161.30712 
L 382.200255 229.854622 
L 383.286057 205.849251 
L 384.371858 169.76199 
L 385.457659 181.683198 
L 386.54346 212.514098 
L 387.629261 172.311977 
L 388.715062 225.893495 
L 389.800863 192.217558 
L 390.886665 198.815258 
L 391.972466 247.003249 
L 393.058267 232.90464 
L 394.144068 196.359696 
L 396.31567 233.727896 
L 397.401472 193.267712 
L 398.487273 216.833776 
L 398.487273 216.833776 
" style="fill:none;stroke:#008000;stroke-dasharray:9.6,2.4,1.5,2.4;stroke-dashoffset:0;stroke-width:1.5;"/>
   </g>
   <g id="line2d_31">
    <path clip-path="url(#p3b0f293454)" d="M 73.832727 267.773035 
L 74.918528 202.026388 
L 76.00433 184.671445 
L 77.090131 194.053029 
L 78.175932 200.836487 
L 79.261733 176.559945 
L 80.347534 190.278611 
L 81.433335 168.146559 
L 82.519137 172.075529 
L 83.604938 171.421824 
L 84.690739 181.855428 
L 85.77654 151.633503 
L 86.862341 155.9796 
L 87.948142 163.628051 
L 89.033943 175.358505 
L 90.119745 170.37674 
L 91.205546 158.755565 
L 92.291347 158.680858 
L 93.377148 144.254912 
L 94.462949 141.255867 
L 95.54875 141.516473 
L 96.634552 157.883959 
L 97.720353 136.387473 
L 98.806154 131.619387 
L 99.891955 138.338344 
L 100.977756 140.078731 
L 102.063557 130.455107 
L 103.149358 131.600008 
L 104.23516 143.923326 
L 105.320961 129.73494 
L 106.406762 141.586512 
L 107.492563 141.025999 
L 108.578364 128.634477 
L 109.664165 151.994953 
L 110.749967 133.77529 
L 111.835768 121.265173 
L 112.921569 141.077445 
L 114.00737 142.39562 
L 115.093171 123.599956 
L 116.178972 157.959891 
L 117.264773 135.263181 
L 118.350575 137.803969 
L 119.436376 128.136066 
L 120.522177 121.885036 
L 121.607978 132.803342 
L 122.693779 142.515049 
L 123.77958 127.522279 
L 124.865382 125.186719 
L 125.951183 120.887689 
L 127.036984 117.702786 
L 128.122785 116.984166 
L 129.208586 127.353106 
L 130.294387 118.333061 
L 131.380189 134.973961 
L 132.46599 119.611349 
L 133.551791 114.11493 
L 134.637592 158.652683 
L 135.723393 142.273073 
L 136.809194 121.303609 
L 137.894995 114.981299 
L 138.980797 136.28479 
L 140.066598 119.973796 
L 141.152399 129.157511 
L 142.2382 121.61954 
L 143.324001 125.818038 
L 144.409802 116.225659 
L 145.495604 131.05744 
L 146.581405 136.001473 
L 147.667206 117.017363 
L 148.753007 116.186816 
L 149.838808 109.871409 
L 150.924609 137.279727 
L 152.01041 118.141043 
L 153.096212 116.091046 
L 154.182013 124.718356 
L 155.267814 141.017728 
L 156.353615 112.057912 
L 157.439416 126.350146 
L 158.525217 117.146017 
L 159.611019 135.721159 
L 160.69682 131.176463 
L 161.782621 111.573814 
L 162.868422 113.253829 
L 163.954223 122.485627 
L 165.040024 111.570988 
L 166.125825 144.233853 
L 167.211627 114.448057 
L 168.297428 116.673833 
L 169.383229 140.703676 
L 170.46903 140.781985 
L 171.554831 135.772494 
L 172.640632 143.08672 
L 173.726434 126.615636 
L 174.812235 125.356518 
L 175.898036 134.574181 
L 176.983837 127.816164 
L 178.069638 126.536068 
L 179.155439 130.648467 
L 180.24124 114.280574 
L 181.327042 112.238815 
L 182.412843 106.669495 
L 183.498644 111.163158 
L 184.584445 122.598553 
L 185.670246 145.637043 
L 187.841849 120.43068 
L 188.92765 111.802776 
L 190.013451 104.918779 
L 191.099252 137.190001 
L 192.185053 149.396351 
L 193.270854 131.450774 
L 194.356656 132.56324 
L 195.442457 122.992213 
L 196.528258 110.857236 
L 197.614059 126.359534 
L 198.69986 119.889555 
L 199.785661 125.470901 
L 200.871462 114.196567 
L 201.957264 115.756212 
L 203.043065 124.571687 
L 204.128866 155.551028 
L 205.214667 139.46074 
L 206.300468 139.87356 
L 207.386269 139.166665 
L 208.472071 133.189097 
L 209.557872 124.77036 
L 210.643673 140.917112 
L 211.729474 138.346926 
L 212.815275 142.602609 
L 213.901076 124.434774 
L 214.986877 131.29649 
L 216.072679 116.51319 
L 217.15848 130.481307 
L 218.244281 122.518479 
L 219.330082 118.66806 
L 221.501684 132.999251 
L 222.587486 129.982008 
L 223.673287 130.322143 
L 224.759088 102.818356 
L 225.844889 113.585536 
L 226.93069 95.097591 
L 228.016491 133.468099 
L 229.102292 105.726191 
L 230.188094 119.886268 
L 231.273895 130.961046 
L 232.359696 123.397759 
L 233.445497 140.686842 
L 234.531298 127.615131 
L 235.617099 110.521568 
L 236.702901 124.073861 
L 237.788702 140.063777 
L 238.874503 114.753753 
L 239.960304 124.116751 
L 241.046105 136.10281 
L 242.131906 114.777101 
L 243.217708 134.262288 
L 244.303509 124.706438 
L 245.38931 126.630942 
L 246.475111 129.720058 
L 247.560912 128.042318 
L 248.646713 140.301063 
L 249.732514 122.069582 
L 250.818316 122.087332 
L 251.904117 119.455138 
L 252.989918 122.691143 
L 254.075719 116.47327 
L 255.16152 123.686897 
L 256.247321 126.510795 
L 257.333123 100.528734 
L 258.418924 114.265177 
L 259.504725 123.626279 
L 260.590526 113.577689 
L 261.676327 113.933336 
L 262.762128 117.022162 
L 263.847929 102.039316 
L 264.933731 111.5791 
L 266.019532 112.88423 
L 267.105333 106.996647 
L 268.191134 111.908902 
L 269.276935 91.307062 
L 270.362736 125.01183 
L 271.448538 99.392621 
L 272.534339 99.934443 
L 273.62014 103.357099 
L 274.705941 103.904603 
L 275.791742 99.236884 
L 276.877543 105.451847 
L 277.963344 125.612376 
L 280.134947 87.577702 
L 281.220748 103.389893 
L 282.306549 94.580593 
L 283.39235 105.243877 
L 284.478151 92.136399 
L 285.563953 105.177197 
L 286.649754 88.212625 
L 287.735555 116.203004 
L 288.821356 81.657 
L 289.907157 96.476619 
L 290.992958 101.71033 
L 292.07876 102.300273 
L 293.164561 100.077862 
L 294.250362 107.714457 
L 295.336163 103.46163 
L 296.421964 103.131969 
L 297.507765 106.120275 
L 298.593566 98.488756 
L 299.679368 98.524463 
L 300.765169 105.174568 
L 302.936771 85.00321 
L 304.022572 102.908487 
L 305.108373 109.914725 
L 306.194175 120.761043 
L 307.279976 89.234034 
L 308.365777 115.903528 
L 309.451578 97.822275 
L 310.537379 84.58653 
L 311.62318 92.066591 
L 312.708981 91.560122 
L 313.794783 94.284643 
L 314.880584 108.195301 
L 315.966385 69.576531 
L 317.052186 87.061532 
L 318.137987 94.552586 
L 319.223788 92.223316 
L 320.30959 97.930718 
L 321.395391 93.264065 
L 322.481192 99.024145 
L 323.566993 100.067731 
L 324.652794 84.779134 
L 325.738595 99.919006 
L 326.824396 103.411506 
L 327.910198 98.467103 
L 328.995999 109.296762 
L 330.0818 93.769161 
L 331.167601 104.912299 
L 332.253402 107.520207 
L 333.339203 103.155331 
L 334.425005 103.211745 
L 335.510806 95.601301 
L 336.596607 92.556096 
L 337.682408 94.904636 
L 338.768209 95.33737 
L 339.85401 99.178023 
L 340.939811 80.92835 
L 342.025613 93.486364 
L 343.111414 77.837888 
L 344.197215 71.897746 
L 345.283016 74.358101 
L 346.368817 80.666492 
L 347.454618 69.367166 
L 348.54042 90.155742 
L 349.626221 73.768385 
L 350.712022 89.896677 
L 351.797823 95.080343 
L 352.883624 93.920783 
L 353.969425 90.559031 
L 355.055227 93.715129 
L 356.141028 98.835252 
L 357.226829 93.64215 
L 358.31263 84.422323 
L 359.398431 92.85961 
L 360.484232 94.039486 
L 361.570033 92.382831 
L 362.655835 89.16891 
L 363.741636 84.400924 
L 364.827437 86.487316 
L 365.913238 75.123986 
L 368.08484 101.091471 
L 369.170642 96.520042 
L 370.256443 78.893189 
L 371.342244 102.784972 
L 372.428045 98.196551 
L 373.513846 109.553166 
L 374.599647 79.742308 
L 375.685448 103.858702 
L 376.77125 89.630412 
L 377.857051 105.123399 
L 378.942852 98.442 
L 380.028653 95.363533 
L 381.114454 105.597212 
L 383.286057 81.684953 
L 384.371858 102.390125 
L 385.457659 76.422597 
L 387.629261 92.03122 
L 388.715062 61.543956 
L 389.800863 97.089703 
L 390.886665 82.414412 
L 391.972466 110.081843 
L 393.058267 108.848851 
L 394.144068 100.080971 
L 395.229869 89.098414 
L 396.31567 98.334631 
L 397.401472 88.511136 
L 398.487273 87.498804 
L 398.487273 87.498804 
" style="fill:none;stroke:#008000;stroke-dasharray:9.6,2.4,1.5,2.4;stroke-dashoffset:0;stroke-width:1.5;"/>
   </g>
   <g id="line2d_32">
    <path clip-path="url(#p3b0f293454)" d="M 73.832727 256.955424 
L 74.918528 188.937841 
L 76.00433 175.736656 
L 77.090131 179.833886 
L 78.175932 194.276018 
L 80.347534 169.210996 
L 81.433335 135.775255 
L 82.519137 155.074657 
L 83.604938 171.907128 
L 84.690739 158.679023 
L 85.77654 138.63078 
L 86.862341 162.633072 
L 87.948142 154.96735 
L 89.033943 177.35684 
L 90.119745 158.524456 
L 91.205546 149.6433 
L 92.291347 139.427162 
L 93.377148 122.40992 
L 94.462949 130.822024 
L 95.54875 126.775585 
L 96.634552 134.461927 
L 97.720353 135.109229 
L 98.806154 125.394796 
L 99.891955 127.183029 
L 100.977756 117.229903 
L 102.063557 117.069018 
L 103.149358 115.663789 
L 104.23516 138.304736 
L 105.320961 119.737013 
L 106.406762 117.274456 
L 107.492563 141.906229 
L 108.578364 143.163615 
L 109.664165 153.5768 
L 110.749967 140.693204 
L 111.835768 131.66013 
L 112.921569 138.066383 
L 114.00737 154.773229 
L 115.093171 125.958786 
L 116.178972 151.770788 
L 117.264773 139.393261 
L 118.350575 142.161678 
L 119.436376 128.658416 
L 120.522177 132.102758 
L 121.607978 121.547736 
L 122.693779 133.984722 
L 123.77958 133.256651 
L 124.865382 123.307413 
L 125.951183 78.924256 
L 127.036984 120.315654 
L 128.122785 106.801285 
L 129.208586 104.072232 
L 130.294387 105.405419 
L 131.380189 119.98933 
L 132.46599 103.012955 
L 133.551791 105.305659 
L 134.637592 119.110421 
L 135.723393 140.000289 
L 136.809194 105.805537 
L 137.894995 105.976559 
L 138.980797 120.755183 
L 140.066598 113.046369 
L 141.152399 107.418702 
L 142.2382 117.964687 
L 143.324001 126.21279 
L 144.409802 103.545807 
L 145.495604 119.866227 
L 146.581405 146.108468 
L 147.667206 114.061323 
L 148.753007 115.03074 
L 149.838808 108.714579 
L 150.924609 126.797465 
L 152.01041 112.34853 
L 153.096212 119.484955 
L 154.182013 125.40271 
L 155.267814 121.973389 
L 156.353615 122.262828 
L 157.439416 120.817622 
L 158.525217 103.742896 
L 159.611019 119.065598 
L 160.69682 114.937065 
L 161.782621 121.534881 
L 162.868422 121.151048 
L 163.954223 112.239195 
L 165.040024 108.511445 
L 166.125825 114.624037 
L 167.211627 95.109854 
L 168.297428 115.545793 
L 169.383229 127.159014 
L 170.46903 129.501456 
L 171.554831 112.759158 
L 172.640632 119.560089 
L 173.726434 100.202156 
L 174.812235 122.905947 
L 175.898036 116.403461 
L 176.983837 137.962402 
L 178.069638 132.898464 
L 179.155439 126.112091 
L 180.24124 123.907311 
L 181.327042 112.280988 
L 182.412843 119.036184 
L 183.498644 102.20209 
L 184.584445 117.215208 
L 185.670246 108.078328 
L 186.756047 122.638685 
L 187.841849 98.748122 
L 188.92765 89.681762 
L 190.013451 101.20115 
L 191.099252 128.250851 
L 192.185053 129.957538 
L 193.270854 113.583495 
L 194.356656 119.155175 
L 195.442457 121.071693 
L 196.528258 106.832526 
L 197.614059 119.229955 
L 198.69986 91.847214 
L 199.785661 113.140517 
L 200.871462 113.422887 
L 201.957264 108.71802 
L 203.043065 110.034506 
L 204.128866 130.952031 
L 205.214667 120.926096 
L 206.300468 103.227291 
L 207.386269 116.593338 
L 208.472071 110.116744 
L 209.557872 107.720853 
L 210.643673 137.432654 
L 211.729474 125.723965 
L 212.815275 125.946799 
L 213.901076 111.376453 
L 214.986877 122.72001 
L 216.072679 94.984628 
L 217.15848 108.746352 
L 218.244281 78.353637 
L 219.330082 87.659133 
L 220.415883 110.389567 
L 221.501684 101.616461 
L 222.587486 113.647235 
L 223.673287 110.108955 
L 224.759088 100.951697 
L 225.844889 105.067913 
L 226.93069 103.239028 
L 228.016491 129.791517 
L 229.102292 113.628695 
L 230.188094 111.862249 
L 231.273895 109.558164 
L 232.359696 131.457622 
L 233.445497 109.82912 
L 234.531298 114.193695 
L 235.617099 97.268454 
L 236.702901 113.584848 
L 237.788702 117.621749 
L 238.874503 95.631563 
L 239.960304 106.071781 
L 241.046105 118.091139 
L 242.131906 104.35908 
L 243.217708 114.910067 
L 244.303509 112.20679 
L 245.38931 114.243173 
L 246.475111 117.673812 
L 247.560912 117.894029 
L 248.646713 121.011488 
L 249.732514 108.212711 
L 250.818316 120.666826 
L 251.904117 123.660453 
L 252.989918 112.255204 
L 254.075719 116.458609 
L 255.16152 106.82763 
L 256.247321 119.962703 
L 257.333123 115.245546 
L 258.418924 117.967248 
L 259.504725 121.180027 
L 260.590526 112.762689 
L 261.676327 100.897251 
L 262.762128 110.915563 
L 263.847929 108.945502 
L 264.933731 101.170338 
L 267.105333 93.366121 
L 268.191134 102.612168 
L 269.276935 95.328744 
L 270.362736 102.461772 
L 271.448538 86.231427 
L 272.534339 89.765089 
L 273.62014 90.480049 
L 274.705941 80.202984 
L 275.791742 90.940734 
L 276.877543 82.343001 
L 277.963344 112.350086 
L 279.049146 93.474461 
L 280.134947 87.708481 
L 281.220748 94.205016 
L 282.306549 79.948241 
L 283.39235 88.171937 
L 284.478151 85.505989 
L 285.563953 86.308115 
L 286.649754 69.991051 
L 287.735555 94.710721 
L 288.821356 64.332499 
L 289.907157 86.100293 
L 290.992958 86.694014 
L 292.07876 72.680332 
L 293.164561 79.573871 
L 294.250362 83.518481 
L 295.336163 91.079951 
L 296.421964 71.037619 
L 297.507765 89.526046 
L 298.593566 72.922327 
L 299.679368 78.224653 
L 300.765169 74.320393 
L 301.85097 85.252374 
L 302.936771 76.92427 
L 304.022572 92.939552 
L 305.108373 95.249658 
L 306.194175 118.665857 
L 307.279976 77.56888 
L 308.365777 89.912871 
L 309.451578 84.425648 
L 310.537379 73.510846 
L 311.62318 85.885988 
L 312.708981 84.453746 
L 314.880584 92.204182 
L 315.966385 74.036718 
L 317.052186 65.480547 
L 318.137987 83.321769 
L 319.223788 91.467649 
L 320.30959 97.234696 
L 321.395391 87.388268 
L 322.481192 88.780461 
L 323.566993 92.192204 
L 324.652794 82.740988 
L 325.738595 71.363754 
L 326.824396 80.168162 
L 327.910198 66.181793 
L 328.995999 94.465473 
L 330.0818 80.208218 
L 331.167601 93.001877 
L 332.253402 82.856014 
L 333.339203 86.936622 
L 334.425005 92.253401 
L 335.510806 87.719188 
L 336.596607 79.60278 
L 337.682408 79.59629 
L 338.768209 64.793012 
L 339.85401 78.214246 
L 340.939811 67.915911 
L 342.025613 73.023021 
L 343.111414 68.422938 
L 344.197215 67.986244 
L 345.283016 76.953786 
L 346.368817 75.671565 
L 347.454618 58.750098 
L 348.54042 67.122833 
L 349.626221 79.266092 
L 350.712022 94.157306 
L 351.797823 73.723812 
L 352.883624 79.972052 
L 353.969425 80.172814 
L 355.055227 73.387965 
L 356.141028 59.460234 
L 357.226829 70.23313 
L 358.31263 59.769686 
L 359.398431 71.50376 
L 360.484232 71.459712 
L 361.570033 68.678399 
L 362.655835 70.725314 
L 363.741636 69.598436 
L 364.827437 70.762697 
L 365.913238 71.717478 
L 366.999039 83.645052 
L 368.08484 98.669397 
L 369.170642 103.006394 
L 370.256443 85.966089 
L 371.342244 104.741527 
L 372.428045 96.66825 
L 373.513846 102.376114 
L 374.599647 79.482604 
L 375.685448 94.9661 
L 376.77125 91.795296 
L 377.857051 85.339116 
L 378.942852 89.345392 
L 380.028653 79.196062 
L 381.114454 89.512916 
L 382.200255 95.079939 
L 383.286057 83.931588 
L 384.371858 83.822923 
L 385.457659 69.133465 
L 386.54346 73.141731 
L 387.629261 65.064377 
L 388.715062 53.568 
L 389.800863 83.184203 
L 390.886665 77.328888 
L 391.972466 101.67981 
L 393.058267 99.313292 
L 394.144068 89.997155 
L 395.229869 88.854653 
L 396.31567 91.771459 
L 397.401472 58.934331 
L 398.487273 87.001675 
L 398.487273 87.001675 
" style="fill:none;stroke:#ff0000;stroke-linecap:square;stroke-width:1.5;"/>
   </g>
   <g id="patch_3">
    <path d="M 57.6 307.584 
L 57.6 41.472 
" style="fill:none;stroke:#000000;stroke-linecap:square;stroke-linejoin:miter;stroke-width:0.8;"/>
   </g>
   <g id="patch_4">
    <path d="M 414.72 307.584 
L 414.72 41.472 
" style="fill:none;stroke:#000000;stroke-linecap:square;stroke-linejoin:miter;stroke-width:0.8;"/>
   </g>
   <g id="patch_5">
    <path d="M 57.6 307.584 
L 414.72 307.584 
" style="fill:none;stroke:#000000;stroke-linecap:square;stroke-linejoin:miter;stroke-width:0.8;"/>
   </g>
   <g id="patch_6">
    <path d="M 57.6 41.472 
L 414.72 41.472 
" style="fill:none;stroke:#000000;stroke-linecap:square;stroke-linejoin:miter;stroke-width:0.8;"/>
   </g>
   <g id="text_17">
    <!-- Population's average and best fitness -->
    <defs>
     <path d="M 19.671875 64.796875 
L 19.671875 37.40625 
L 32.078125 37.40625 
Q 38.96875 37.40625 42.71875 40.96875 
Q 46.484375 44.53125 46.484375 51.125 
Q 46.484375 57.671875 42.71875 61.234375 
Q 38.96875 64.796875 32.078125 64.796875 
z
M 9.8125 72.90625 
L 32.078125 72.90625 
Q 44.34375 72.90625 50.609375 67.359375 
Q 56.890625 61.8125 56.890625 51.125 
Q 56.890625 40.328125 50.609375 34.8125 
Q 44.34375 29.296875 32.078125 29.296875 
L 19.671875 29.296875 
L 19.671875 0 
L 9.8125 0 
z
" id="DejaVuSans-80"/>
     <path d="M 18.109375 8.203125 
L 18.109375 -20.796875 
L 9.078125 -20.796875 
L 9.078125 54.6875 
L 18.109375 54.6875 
L 18.109375 46.390625 
Q 20.953125 51.265625 25.265625 53.625 
Q 29.59375 56 35.59375 56 
Q 45.5625 56 51.78125 48.09375 
Q 58.015625 40.1875 58.015625 27.296875 
Q 58.015625 14.40625 51.78125 6.484375 
Q 45.5625 -1.421875 35.59375 -1.421875 
Q 29.59375 -1.421875 25.265625 0.953125 
Q 20.953125 3.328125 18.109375 8.203125 
z
M 48.6875 27.296875 
Q 48.6875 37.203125 44.609375 42.84375 
Q 40.53125 48.484375 33.40625 48.484375 
Q 26.265625 48.484375 22.1875 42.84375 
Q 18.109375 37.203125 18.109375 27.296875 
Q 18.109375 17.390625 22.1875 11.75 
Q 26.265625 6.109375 33.40625 6.109375 
Q 40.53125 6.109375 44.609375 11.75 
Q 48.6875 17.390625 48.6875 27.296875 
z
" id="DejaVuSans-112"/>
     <path d="M 8.5 21.578125 
L 8.5 54.6875 
L 17.484375 54.6875 
L 17.484375 21.921875 
Q 17.484375 14.15625 20.5 10.265625 
Q 23.53125 6.390625 29.59375 6.390625 
Q 36.859375 6.390625 41.078125 11.03125 
Q 45.3125 15.671875 45.3125 23.6875 
L 45.3125 54.6875 
L 54.296875 54.6875 
L 54.296875 0 
L 45.3125 0 
L 45.3125 8.40625 
Q 42.046875 3.421875 37.71875 1 
Q 33.40625 -1.421875 27.6875 -1.421875 
Q 18.265625 -1.421875 13.375 4.4375 
Q 8.5 10.296875 8.5 21.578125 
z
M 31.109375 56 
z
" id="DejaVuSans-117"/>
     <path d="M 9.421875 75.984375 
L 18.40625 75.984375 
L 18.40625 0 
L 9.421875 0 
z
" id="DejaVuSans-108"/>
     <path d="M 17.921875 72.90625 
L 17.921875 45.796875 
L 9.625 45.796875 
L 9.625 72.90625 
z
" id="DejaVuSans-39"/>
     <path id="DejaVuSans-32"/>
     <path d="M 2.984375 54.6875 
L 12.5 54.6875 
L 29.59375 8.796875 
L 46.6875 54.6875 
L 56.203125 54.6875 
L 35.6875 0 
L 23.484375 0 
z
" id="DejaVuSans-118"/>
     <path d="M 45.40625 27.984375 
Q 45.40625 37.75 41.375 43.109375 
Q 37.359375 48.484375 30.078125 48.484375 
Q 22.859375 48.484375 18.828125 43.109375 
Q 14.796875 37.75 14.796875 27.984375 
Q 14.796875 18.265625 18.828125 12.890625 
Q 22.859375 7.515625 30.078125 7.515625 
Q 37.359375 7.515625 41.375 12.890625 
Q 45.40625 18.265625 45.40625 27.984375 
z
M 54.390625 6.78125 
Q 54.390625 -7.171875 48.1875 -13.984375 
Q 42 -20.796875 29.203125 -20.796875 
Q 24.46875 -20.796875 20.265625 -20.09375 
Q 16.0625 -19.390625 12.109375 -17.921875 
L 12.109375 -9.1875 
Q 16.0625 -11.328125 19.921875 -12.34375 
Q 23.78125 -13.375 27.78125 -13.375 
Q 36.625 -13.375 41.015625 -8.765625 
Q 45.40625 -4.15625 45.40625 5.171875 
L 45.40625 9.625 
Q 42.625 4.78125 38.28125 2.390625 
Q 33.9375 0 27.875 0 
Q 17.828125 0 11.671875 7.65625 
Q 5.515625 15.328125 5.515625 27.984375 
Q 5.515625 40.671875 11.671875 48.328125 
Q 17.828125 56 27.875 56 
Q 33.9375 56 38.28125 53.609375 
Q 42.625 51.21875 45.40625 46.390625 
L 45.40625 54.6875 
L 54.390625 54.6875 
z
" id="DejaVuSans-103"/>
     <path d="M 45.40625 46.390625 
L 45.40625 75.984375 
L 54.390625 75.984375 
L 54.390625 0 
L 45.40625 0 
L 45.40625 8.203125 
Q 42.578125 3.328125 38.25 0.953125 
Q 33.9375 -1.421875 27.875 -1.421875 
Q 17.96875 -1.421875 11.734375 6.484375 
Q 5.515625 14.40625 5.515625 27.296875 
Q 5.515625 40.1875 11.734375 48.09375 
Q 17.96875 56 27.875 56 
Q 33.9375 56 38.25 53.625 
Q 42.578125 51.265625 45.40625 46.390625 
z
M 14.796875 27.296875 
Q 14.796875 17.390625 18.875 11.75 
Q 22.953125 6.109375 30.078125 6.109375 
Q 37.203125 6.109375 41.296875 11.75 
Q 45.40625 17.390625 45.40625 27.296875 
Q 45.40625 37.203125 41.296875 42.84375 
Q 37.203125 48.484375 30.078125 48.484375 
Q 22.953125 48.484375 18.875 42.84375 
Q 14.796875 37.203125 14.796875 27.296875 
z
" id="DejaVuSans-100"/>
     <path d="M 48.6875 27.296875 
Q 48.6875 37.203125 44.609375 42.84375 
Q 40.53125 48.484375 33.40625 48.484375 
Q 26.265625 48.484375 22.1875 42.84375 
Q 18.109375 37.203125 18.109375 27.296875 
Q 18.109375 17.390625 22.1875 11.75 
Q 26.265625 6.109375 33.40625 6.109375 
Q 40.53125 6.109375 44.609375 11.75 
Q 48.6875 17.390625 48.6875 27.296875 
z
M 18.109375 46.390625 
Q 20.953125 51.265625 25.265625 53.625 
Q 29.59375 56 35.59375 56 
Q 45.5625 56 51.78125 48.09375 
Q 58.015625 40.1875 58.015625 27.296875 
Q 58.015625 14.40625 51.78125 6.484375 
Q 45.5625 -1.421875 35.59375 -1.421875 
Q 29.59375 -1.421875 25.265625 0.953125 
Q 20.953125 3.328125 18.109375 8.203125 
L 18.109375 0 
L 9.078125 0 
L 9.078125 75.984375 
L 18.109375 75.984375 
z
" id="DejaVuSans-98"/>
     <path d="M 37.109375 75.984375 
L 37.109375 68.5 
L 28.515625 68.5 
Q 23.6875 68.5 21.796875 66.546875 
Q 19.921875 64.59375 19.921875 59.515625 
L 19.921875 54.6875 
L 34.71875 54.6875 
L 34.71875 47.703125 
L 19.921875 47.703125 
L 19.921875 0 
L 10.890625 0 
L 10.890625 47.703125 
L 2.296875 47.703125 
L 2.296875 54.6875 
L 10.890625 54.6875 
L 10.890625 58.5 
Q 10.890625 67.625 15.140625 71.796875 
Q 19.390625 75.984375 28.609375 75.984375 
z
" id="DejaVuSans-102"/>
    </defs>
    <g transform="translate(123.315 35.472)scale(0.12 -0.12)">
     <use xlink:href="#DejaVuSans-80"/>
     <use x="60.255859" xlink:href="#DejaVuSans-111"/>
     <use x="121.4375" xlink:href="#DejaVuSans-112"/>
     <use x="184.914062" xlink:href="#DejaVuSans-117"/>
     <use x="248.292969" xlink:href="#DejaVuSans-108"/>
     <use x="276.076172" xlink:href="#DejaVuSans-97"/>
     <use x="337.355469" xlink:href="#DejaVuSans-116"/>
     <use x="376.564453" xlink:href="#DejaVuSans-105"/>
     <use x="404.347656" xlink:href="#DejaVuSans-111"/>
     <use x="465.529297" xlink:href="#DejaVuSans-110"/>
     <use x="528.908203" xlink:href="#DejaVuSans-39"/>
     <use x="556.398438" xlink:href="#DejaVuSans-115"/>
     <use x="608.498047" xlink:href="#DejaVuSans-32"/>
     <use x="640.285156" xlink:href="#DejaVuSans-97"/>
     <use x="701.564453" xlink:href="#DejaVuSans-118"/>
     <use x="760.744141" xlink:href="#DejaVuSans-101"/>
     <use x="822.267578" xlink:href="#DejaVuSans-114"/>
     <use x="863.380859" xlink:href="#DejaVuSans-97"/>
     <use x="924.660156" xlink:href="#DejaVuSans-103"/>
     <use x="988.136719" xlink:href="#DejaVuSans-101"/>
     <use x="1049.660156" xlink:href="#DejaVuSans-32"/>
     <use x="1081.447266" xlink:href="#DejaVuSans-97"/>
     <use x="1142.726562" xlink:href="#DejaVuSans-110"/>
     <use x="1206.105469" xlink:href="#DejaVuSans-100"/>
     <use x="1269.582031" xlink:href="#DejaVuSans-32"/>
     <use x="1301.369141" xlink:href="#DejaVuSans-98"/>
     <use x="1364.845703" xlink:href="#DejaVuSans-101"/>
     <use x="1426.369141" xlink:href="#DejaVuSans-115"/>
     <use x="1478.46875" xlink:href="#DejaVuSans-116"/>
     <use x="1517.677734" xlink:href="#DejaVuSans-32"/>
     <use x="1549.464844" xlink:href="#DejaVuSans-102"/>
     <use x="1584.669922" xlink:href="#DejaVuSans-105"/>
     <use x="1612.453125" xlink:href="#DejaVuSans-116"/>
     <use x="1651.662109" xlink:href="#DejaVuSans-110"/>
     <use x="1715.041016" xlink:href="#DejaVuSans-101"/>
     <use x="1776.564453" xlink:href="#DejaVuSans-115"/>
     <use x="1828.664062" xlink:href="#DejaVuSans-115"/>
    </g>
   </g>
   <g id="legend_1">
    <g id="patch_7">
     <path d="M 199.689687 302.584 
L 272.630313 302.584 
Q 274.630313 302.584 274.630313 300.584 
L 274.630313 242.8715 
Q 274.630313 240.8715 272.630313 240.8715 
L 199.689687 240.8715 
Q 197.689687 240.8715 197.689687 242.8715 
L 197.689687 300.584 
Q 197.689687 302.584 199.689687 302.584 
z
" style="fill:#ffffff;opacity:0.8;stroke:#cccccc;stroke-linejoin:miter;"/>
    </g>
    <g id="line2d_33">
     <path d="M 201.689687 248.969937 
L 221.689687 248.969937 
" style="fill:none;stroke:#0000ff;stroke-linecap:square;stroke-width:1.5;"/>
    </g>
    <g id="line2d_34"/>
    <g id="text_18">
     <!-- average -->
     <g transform="translate(229.689687 252.469937)scale(0.1 -0.1)">
      <use xlink:href="#DejaVuSans-97"/>
      <use x="61.279297" xlink:href="#DejaVuSans-118"/>
      <use x="120.458984" xlink:href="#DejaVuSans-101"/>
      <use x="181.982422" xlink:href="#DejaVuSans-114"/>
      <use x="223.095703" xlink:href="#DejaVuSans-97"/>
      <use x="284.375" xlink:href="#DejaVuSans-103"/>
      <use x="347.851562" xlink:href="#DejaVuSans-101"/>
     </g>
    </g>
    <g id="line2d_35">
     <path d="M 201.689687 263.648062 
L 221.689687 263.648062 
" style="fill:none;stroke:#008000;stroke-dasharray:9.6,2.4,1.5,2.4;stroke-dashoffset:0;stroke-width:1.5;"/>
    </g>
    <g id="line2d_36"/>
    <g id="text_19">
     <!-- -1 sd -->
     <defs>
      <path d="M 4.890625 31.390625 
L 31.203125 31.390625 
L 31.203125 23.390625 
L 4.890625 23.390625 
z
" id="DejaVuSans-45"/>
     </defs>
     <g transform="translate(229.689687 267.148062)scale(0.1 -0.1)">
      <use xlink:href="#DejaVuSans-45"/>
      <use x="36.083984" xlink:href="#DejaVuSans-49"/>
      <use x="99.707031" xlink:href="#DejaVuSans-32"/>
      <use x="131.494141" xlink:href="#DejaVuSans-115"/>
      <use x="183.59375" xlink:href="#DejaVuSans-100"/>
     </g>
    </g>
    <g id="line2d_37">
     <path d="M 201.689687 278.326187 
L 221.689687 278.326187 
" style="fill:none;stroke:#008000;stroke-dasharray:9.6,2.4,1.5,2.4;stroke-dashoffset:0;stroke-width:1.5;"/>
    </g>
    <g id="line2d_38"/>
    <g id="text_20">
     <!-- +1 sd -->
     <defs>
      <path d="M 46 62.703125 
L 46 35.5 
L 73.1875 35.5 
L 73.1875 27.203125 
L 46 27.203125 
L 46 0 
L 37.796875 0 
L 37.796875 27.203125 
L 10.59375 27.203125 
L 10.59375 35.5 
L 37.796875 35.5 
L 37.796875 62.703125 
z
" id="DejaVuSans-43"/>
     </defs>
     <g transform="translate(229.689687 281.826187)scale(0.1 -0.1)">
      <use xlink:href="#DejaVuSans-43"/>
      <use x="83.789062" xlink:href="#DejaVuSans-49"/>
      <use x="147.412109" xlink:href="#DejaVuSans-32"/>
      <use x="179.199219" xlink:href="#DejaVuSans-115"/>
      <use x="231.298828" xlink:href="#DejaVuSans-100"/>
     </g>
    </g>
    <g id="line2d_39">
     <path d="M 201.689687 293.004312 
L 221.689687 293.004312 
" style="fill:none;stroke:#ff0000;stroke-linecap:square;stroke-width:1.5;"/>
    </g>
    <g id="line2d_40"/>
    <g id="text_21">
     <!-- best -->
     <g transform="translate(229.689687 296.504312)scale(0.1 -0.1)">
      <use xlink:href="#DejaVuSans-98"/>
      <use x="63.476562" xlink:href="#DejaVuSans-101"/>
      <use x="125" xlink:href="#DejaVuSans-115"/>
      <use x="177.099609" xlink:href="#DejaVuSans-116"/>
     </g>
    </g>
   </g>
  </g>
 </g>
 <defs>
  <clipPath id="p3b0f293454">
   <rect height="266.112" width="357.12" x="57.6" y="41.472"/>
  </clipPath>
 </defs>
</svg>
