<?xml version="1.0" encoding="utf-8" standalone="no"?>
<!DOCTYPE svg PUBLIC "-//W3C//DTD SVG 1.1//EN"
  "http://www.w3.org/Graphics/SVG/1.1/DTD/svg11.dtd">
<!-- Created with matplotlib (https://matplotlib.org/) -->
<svg height="345.6pt" version="1.1" viewBox="0 0 460.8 345.6" width="460.8pt" xmlns="http://www.w3.org/2000/svg" xmlns:xlink="http://www.w3.org/1999/xlink">
 <defs>
  <style type="text/css">
*{stroke-linecap:butt;stroke-linejoin:round;}
  </style>
 </defs>
 <g id="figure_1">
  <g id="patch_1">
   <path d="M 0 345.6 
L 460.8 345.6 
L 460.8 0 
L 0 0 
z
" style="fill:#ffffff;"/>
  </g>
  <g id="axes_1">
   <g id="patch_2">
    <path d="M 57.6 307.584 
L 414.72 307.584 
L 414.72 41.472 
L 57.6 41.472 
z
" style="fill:#ffffff;"/>
   </g>
   <g id="matplotlib.axis_1">
    <g id="xtick_1">
     <g id="line2d_1">
      <path clip-path="url(#pdddce39b23)" d="M 73.832727 307.584 
L 73.832727 41.472 
" style="fill:none;stroke:#b0b0b0;stroke-linecap:square;stroke-width:0.8;"/>
     </g>
     <g id="line2d_2">
      <defs>
       <path d="M 0 0 
L 0 3.5 
" id="m34c96d2b97" style="stroke:#000000;stroke-width:0.8;"/>
      </defs>
      <g>
       <use style="stroke:#000000;stroke-width:0.8;" x="73.832727" xlink:href="#m34c96d2b97" y="307.584"/>
      </g>
     </g>
     <g id="text_1">
      <!-- 0 -->
      <defs>
       <path d="M 31.78125 66.40625 
Q 24.171875 66.40625 20.328125 58.90625 
Q 16.5 51.421875 16.5 36.375 
Q 16.5 21.390625 20.328125 13.890625 
Q 24.171875 6.390625 31.78125 6.390625 
Q 39.453125 6.390625 43.28125 13.890625 
Q 47.125 21.390625 47.125 36.375 
Q 47.125 51.421875 43.28125 58.90625 
Q 39.453125 66.40625 31.78125 66.40625 
z
M 31.78125 74.21875 
Q 44.046875 74.21875 50.515625 64.515625 
Q 56.984375 54.828125 56.984375 36.375 
Q 56.984375 17.96875 50.515625 8.265625 
Q 44.046875 -1.421875 31.78125 -1.421875 
Q 19.53125 -1.421875 13.0625 8.265625 
Q 6.59375 17.96875 6.59375 36.375 
Q 6.59375 54.828125 13.0625 64.515625 
Q 19.53125 74.21875 31.78125 74.21875 
z
" id="DejaVuSans-48"/>
      </defs>
      <g transform="translate(70.651477 322.182437)scale(0.1 -0.1)">
       <use xlink:href="#DejaVuSans-48"/>
      </g>
     </g>
    </g>
    <g id="xtick_2">
     <g id="line2d_3">
      <path clip-path="url(#pdddce39b23)" d="M 128.122785 307.584 
L 128.122785 41.472 
" style="fill:none;stroke:#b0b0b0;stroke-linecap:square;stroke-width:0.8;"/>
     </g>
     <g id="line2d_4">
      <g>
       <use style="stroke:#000000;stroke-width:0.8;" x="128.122785" xlink:href="#m34c96d2b97" y="307.584"/>
      </g>
     </g>
     <g id="text_2">
      <!-- 50 -->
      <defs>
       <path d="M 10.796875 72.90625 
L 49.515625 72.90625 
L 49.515625 64.59375 
L 19.828125 64.59375 
L 19.828125 46.734375 
Q 21.96875 47.46875 24.109375 47.828125 
Q 26.265625 48.1875 28.421875 48.1875 
Q 40.625 48.1875 47.75 41.5 
Q 54.890625 34.8125 54.890625 23.390625 
Q 54.890625 11.625 47.5625 5.09375 
Q 40.234375 -1.421875 26.90625 -1.421875 
Q 22.3125 -1.421875 17.546875 -0.640625 
Q 12.796875 0.140625 7.71875 1.703125 
L 7.71875 11.625 
Q 12.109375 9.234375 16.796875 8.0625 
Q 21.484375 6.890625 26.703125 6.890625 
Q 35.15625 6.890625 40.078125 11.328125 
Q 45.015625 15.765625 45.015625 23.390625 
Q 45.015625 31 40.078125 35.4375 
Q 35.15625 39.890625 26.703125 39.890625 
Q 22.75 39.890625 18.8125 39.015625 
Q 14.890625 38.140625 10.796875 36.28125 
z
" id="DejaVuSans-53"/>
      </defs>
      <g transform="translate(121.760285 322.182437)scale(0.1 -0.1)">
       <use xlink:href="#DejaVuSans-53"/>
       <use x="63.623047" xlink:href="#DejaVuSans-48"/>
      </g>
     </g>
    </g>
    <g id="xtick_3">
     <g id="line2d_5">
      <path clip-path="url(#pdddce39b23)" d="M 182.412843 307.584 
L 182.412843 41.472 
" style="fill:none;stroke:#b0b0b0;stroke-linecap:square;stroke-width:0.8;"/>
     </g>
     <g id="line2d_6">
      <g>
       <use style="stroke:#000000;stroke-width:0.8;" x="182.412843" xlink:href="#m34c96d2b97" y="307.584"/>
      </g>
     </g>
     <g id="text_3">
      <!-- 100 -->
      <defs>
       <path d="M 12.40625 8.296875 
L 28.515625 8.296875 
L 28.515625 63.921875 
L 10.984375 60.40625 
L 10.984375 69.390625 
L 28.421875 72.90625 
L 38.28125 72.90625 
L 38.28125 8.296875 
L 54.390625 8.296875 
L 54.390625 0 
L 12.40625 0 
z
" id="DejaVuSans-49"/>
      </defs>
      <g transform="translate(172.869093 322.182437)scale(0.1 -0.1)">
       <use xlink:href="#DejaVuSans-49"/>
       <use x="63.623047" xlink:href="#DejaVuSans-48"/>
       <use x="127.246094" xlink:href="#DejaVuSans-48"/>
      </g>
     </g>
    </g>
    <g id="xtick_4">
     <g id="line2d_7">
      <path clip-path="url(#pdddce39b23)" d="M 236.702901 307.584 
L 236.702901 41.472 
" style="fill:none;stroke:#b0b0b0;stroke-linecap:square;stroke-width:0.8;"/>
     </g>
     <g id="line2d_8">
      <g>
       <use style="stroke:#000000;stroke-width:0.8;" x="236.702901" xlink:href="#m34c96d2b97" y="307.584"/>
      </g>
     </g>
     <g id="text_4">
      <!-- 150 -->
      <g transform="translate(227.159151 322.182437)scale(0.1 -0.1)">
       <use xlink:href="#DejaVuSans-49"/>
       <use x="63.623047" xlink:href="#DejaVuSans-53"/>
       <use x="127.246094" xlink:href="#DejaVuSans-48"/>
      </g>
     </g>
    </g>
    <g id="xtick_5">
     <g id="line2d_9">
      <path clip-path="url(#pdddce39b23)" d="M 290.992958 307.584 
L 290.992958 41.472 
" style="fill:none;stroke:#b0b0b0;stroke-linecap:square;stroke-width:0.8;"/>
     </g>
     <g id="line2d_10">
      <g>
       <use style="stroke:#000000;stroke-width:0.8;" x="290.992958" xlink:href="#m34c96d2b97" y="307.584"/>
      </g>
     </g>
     <g id="text_5">
      <!-- 200 -->
      <defs>
       <path d="M 19.1875 8.296875 
L 53.609375 8.296875 
L 53.609375 0 
L 7.328125 0 
L 7.328125 8.296875 
Q 12.9375 14.109375 22.625 23.890625 
Q 32.328125 33.6875 34.8125 36.53125 
Q 39.546875 41.84375 41.421875 45.53125 
Q 43.3125 49.21875 43.3125 52.78125 
Q 43.3125 58.59375 39.234375 62.25 
Q 35.15625 65.921875 28.609375 65.921875 
Q 23.96875 65.921875 18.8125 64.3125 
Q 13.671875 62.703125 7.8125 59.421875 
L 7.8125 69.390625 
Q 13.765625 71.78125 18.9375 73 
Q 24.125 74.21875 28.421875 74.21875 
Q 39.75 74.21875 46.484375 68.546875 
Q 53.21875 62.890625 53.21875 53.421875 
Q 53.21875 48.921875 51.53125 44.890625 
Q 49.859375 40.875 45.40625 35.40625 
Q 44.1875 33.984375 37.640625 27.21875 
Q 31.109375 20.453125 19.1875 8.296875 
z
" id="DejaVuSans-50"/>
      </defs>
      <g transform="translate(281.449208 322.182437)scale(0.1 -0.1)">
       <use xlink:href="#DejaVuSans-50"/>
       <use x="63.623047" xlink:href="#DejaVuSans-48"/>
       <use x="127.246094" xlink:href="#DejaVuSans-48"/>
      </g>
     </g>
    </g>
    <g id="xtick_6">
     <g id="line2d_11">
      <path clip-path="url(#pdddce39b23)" d="M 345.283016 307.584 
L 345.283016 41.472 
" style="fill:none;stroke:#b0b0b0;stroke-linecap:square;stroke-width:0.8;"/>
     </g>
     <g id="line2d_12">
      <g>
       <use style="stroke:#000000;stroke-width:0.8;" x="345.283016" xlink:href="#m34c96d2b97" y="307.584"/>
      </g>
     </g>
     <g id="text_6">
      <!-- 250 -->
      <g transform="translate(335.739266 322.182437)scale(0.1 -0.1)">
       <use xlink:href="#DejaVuSans-50"/>
       <use x="63.623047" xlink:href="#DejaVuSans-53"/>
       <use x="127.246094" xlink:href="#DejaVuSans-48"/>
      </g>
     </g>
    </g>
    <g id="xtick_7">
     <g id="line2d_13">
      <path clip-path="url(#pdddce39b23)" d="M 399.573074 307.584 
L 399.573074 41.472 
" style="fill:none;stroke:#b0b0b0;stroke-linecap:square;stroke-width:0.8;"/>
     </g>
     <g id="line2d_14">
      <g>
       <use style="stroke:#000000;stroke-width:0.8;" x="399.573074" xlink:href="#m34c96d2b97" y="307.584"/>
      </g>
     </g>
     <g id="text_7">
      <!-- 300 -->
      <defs>
       <path d="M 40.578125 39.3125 
Q 47.65625 37.796875 51.625 33 
Q 55.609375 28.21875 55.609375 21.1875 
Q 55.609375 10.40625 48.1875 4.484375 
Q 40.765625 -1.421875 27.09375 -1.421875 
Q 22.515625 -1.421875 17.65625 -0.515625 
Q 12.796875 0.390625 7.625 2.203125 
L 7.625 11.71875 
Q 11.71875 9.328125 16.59375 8.109375 
Q 21.484375 6.890625 26.8125 6.890625 
Q 36.078125 6.890625 40.9375 10.546875 
Q 45.796875 14.203125 45.796875 21.1875 
Q 45.796875 27.640625 41.28125 31.265625 
Q 36.765625 34.90625 28.71875 34.90625 
L 20.21875 34.90625 
L 20.21875 43.015625 
L 29.109375 43.015625 
Q 36.375 43.015625 40.234375 45.921875 
Q 44.09375 48.828125 44.09375 54.296875 
Q 44.09375 59.90625 40.109375 62.90625 
Q 36.140625 65.921875 28.71875 65.921875 
Q 24.65625 65.921875 20.015625 65.03125 
Q 15.375 64.15625 9.8125 62.3125 
L 9.8125 71.09375 
Q 15.4375 72.65625 20.34375 73.4375 
Q 25.25 74.21875 29.59375 74.21875 
Q 40.828125 74.21875 47.359375 69.109375 
Q 53.90625 64.015625 53.90625 55.328125 
Q 53.90625 49.265625 50.4375 45.09375 
Q 46.96875 40.921875 40.578125 39.3125 
z
" id="DejaVuSans-51"/>
      </defs>
      <g transform="translate(390.029324 322.182437)scale(0.1 -0.1)">
       <use xlink:href="#DejaVuSans-51"/>
       <use x="63.623047" xlink:href="#DejaVuSans-48"/>
       <use x="127.246094" xlink:href="#DejaVuSans-48"/>
      </g>
     </g>
    </g>
    <g id="text_8">
     <!-- Generations -->
     <defs>
      <path d="M 59.515625 10.40625 
L 59.515625 29.984375 
L 43.40625 29.984375 
L 43.40625 38.09375 
L 69.28125 38.09375 
L 69.28125 6.78125 
Q 63.578125 2.734375 56.6875 0.65625 
Q 49.8125 -1.421875 42 -1.421875 
Q 24.90625 -1.421875 15.25 8.5625 
Q 5.609375 18.5625 5.609375 36.375 
Q 5.609375 54.25 15.25 64.234375 
Q 24.90625 74.21875 42 74.21875 
Q 49.125 74.21875 55.546875 72.453125 
Q 61.96875 70.703125 67.390625 67.28125 
L 67.390625 56.78125 
Q 61.921875 61.421875 55.765625 63.765625 
Q 49.609375 66.109375 42.828125 66.109375 
Q 29.4375 66.109375 22.71875 58.640625 
Q 16.015625 51.171875 16.015625 36.375 
Q 16.015625 21.625 22.71875 14.15625 
Q 29.4375 6.6875 42.828125 6.6875 
Q 48.046875 6.6875 52.140625 7.59375 
Q 56.25 8.5 59.515625 10.40625 
z
" id="DejaVuSans-71"/>
      <path d="M 56.203125 29.59375 
L 56.203125 25.203125 
L 14.890625 25.203125 
Q 15.484375 15.921875 20.484375 11.0625 
Q 25.484375 6.203125 34.421875 6.203125 
Q 39.59375 6.203125 44.453125 7.46875 
Q 49.3125 8.734375 54.109375 11.28125 
L 54.109375 2.78125 
Q 49.265625 0.734375 44.1875 -0.34375 
Q 39.109375 -1.421875 33.890625 -1.421875 
Q 20.796875 -1.421875 13.15625 6.1875 
Q 5.515625 13.8125 5.515625 26.8125 
Q 5.515625 40.234375 12.765625 48.109375 
Q 20.015625 56 32.328125 56 
Q 43.359375 56 49.78125 48.890625 
Q 56.203125 41.796875 56.203125 29.59375 
z
M 47.21875 32.234375 
Q 47.125 39.59375 43.09375 43.984375 
Q 39.0625 48.390625 32.421875 48.390625 
Q 24.90625 48.390625 20.390625 44.140625 
Q 15.875 39.890625 15.1875 32.171875 
z
" id="DejaVuSans-101"/>
      <path d="M 54.890625 33.015625 
L 54.890625 0 
L 45.90625 0 
L 45.90625 32.71875 
Q 45.90625 40.484375 42.875 44.328125 
Q 39.84375 48.1875 33.796875 48.1875 
Q 26.515625 48.1875 22.3125 43.546875 
Q 18.109375 38.921875 18.109375 30.90625 
L 18.109375 0 
L 9.078125 0 
L 9.078125 54.6875 
L 18.109375 54.6875 
L 18.109375 46.1875 
Q 21.34375 51.125 25.703125 53.5625 
Q 30.078125 56 35.796875 56 
Q 45.21875 56 50.046875 50.171875 
Q 54.890625 44.34375 54.890625 33.015625 
z
" id="DejaVuSans-110"/>
      <path d="M 41.109375 46.296875 
Q 39.59375 47.171875 37.8125 47.578125 
Q 36.03125 48 33.890625 48 
Q 26.265625 48 22.1875 43.046875 
Q 18.109375 38.09375 18.109375 28.8125 
L 18.109375 0 
L 9.078125 0 
L 9.078125 54.6875 
L 18.109375 54.6875 
L 18.109375 46.1875 
Q 20.953125 51.171875 25.484375 53.578125 
Q 30.03125 56 36.53125 56 
Q 37.453125 56 38.578125 55.875 
Q 39.703125 55.765625 41.0625 55.515625 
z
" id="DejaVuSans-114"/>
      <path d="M 34.28125 27.484375 
Q 23.390625 27.484375 19.1875 25 
Q 14.984375 22.515625 14.984375 16.5 
Q 14.984375 11.71875 18.140625 8.90625 
Q 21.296875 6.109375 26.703125 6.109375 
Q 34.1875 6.109375 38.703125 11.40625 
Q 43.21875 16.703125 43.21875 25.484375 
L 43.21875 27.484375 
z
M 52.203125 31.203125 
L 52.203125 0 
L 43.21875 0 
L 43.21875 8.296875 
Q 40.140625 3.328125 35.546875 0.953125 
Q 30.953125 -1.421875 24.3125 -1.421875 
Q 15.921875 -1.421875 10.953125 3.296875 
Q 6 8.015625 6 15.921875 
Q 6 25.140625 12.171875 29.828125 
Q 18.359375 34.515625 30.609375 34.515625 
L 43.21875 34.515625 
L 43.21875 35.40625 
Q 43.21875 41.609375 39.140625 45 
Q 35.0625 48.390625 27.6875 48.390625 
Q 23 48.390625 18.546875 47.265625 
Q 14.109375 46.140625 10.015625 43.890625 
L 10.015625 52.203125 
Q 14.9375 54.109375 19.578125 55.046875 
Q 24.21875 56 28.609375 56 
Q 40.484375 56 46.34375 49.84375 
Q 52.203125 43.703125 52.203125 31.203125 
z
" id="DejaVuSans-97"/>
      <path d="M 18.3125 70.21875 
L 18.3125 54.6875 
L 36.8125 54.6875 
L 36.8125 47.703125 
L 18.3125 47.703125 
L 18.3125 18.015625 
Q 18.3125 11.328125 20.140625 9.421875 
Q 21.96875 7.515625 27.59375 7.515625 
L 36.8125 7.515625 
L 36.8125 0 
L 27.59375 0 
Q 17.1875 0 13.234375 3.875 
Q 9.28125 7.765625 9.28125 18.015625 
L 9.28125 47.703125 
L 2.6875 47.703125 
L 2.6875 54.6875 
L 9.28125 54.6875 
L 9.28125 70.21875 
z
" id="DejaVuSans-116"/>
      <path d="M 9.421875 54.6875 
L 18.40625 54.6875 
L 18.40625 0 
L 9.421875 0 
z
M 9.421875 75.984375 
L 18.40625 75.984375 
L 18.40625 64.59375 
L 9.421875 64.59375 
z
" id="DejaVuSans-105"/>
      <path d="M 30.609375 48.390625 
Q 23.390625 48.390625 19.1875 42.75 
Q 14.984375 37.109375 14.984375 27.296875 
Q 14.984375 17.484375 19.15625 11.84375 
Q 23.34375 6.203125 30.609375 6.203125 
Q 37.796875 6.203125 41.984375 11.859375 
Q 46.1875 17.53125 46.1875 27.296875 
Q 46.1875 37.015625 41.984375 42.703125 
Q 37.796875 48.390625 30.609375 48.390625 
z
M 30.609375 56 
Q 42.328125 56 49.015625 48.375 
Q 55.71875 40.765625 55.71875 27.296875 
Q 55.71875 13.875 49.015625 6.21875 
Q 42.328125 -1.421875 30.609375 -1.421875 
Q 18.84375 -1.421875 12.171875 6.21875 
Q 5.515625 13.875 5.515625 27.296875 
Q 5.515625 40.765625 12.171875 48.375 
Q 18.84375 56 30.609375 56 
z
" id="DejaVuSans-111"/>
      <path d="M 44.28125 53.078125 
L 44.28125 44.578125 
Q 40.484375 46.53125 36.375 47.5 
Q 32.28125 48.484375 27.875 48.484375 
Q 21.1875 48.484375 17.84375 46.4375 
Q 14.5 44.390625 14.5 40.28125 
Q 14.5 37.15625 16.890625 35.375 
Q 19.28125 33.59375 26.515625 31.984375 
L 29.59375 31.296875 
Q 39.15625 29.25 43.1875 25.515625 
Q 47.21875 21.78125 47.21875 15.09375 
Q 47.21875 7.46875 41.1875 3.015625 
Q 35.15625 -1.421875 24.609375 -1.421875 
Q 20.21875 -1.421875 15.453125 -0.5625 
Q 10.6875 0.296875 5.421875 2 
L 5.421875 11.28125 
Q 10.40625 8.6875 15.234375 7.390625 
Q 20.0625 6.109375 24.8125 6.109375 
Q 31.15625 6.109375 34.5625 8.28125 
Q 37.984375 10.453125 37.984375 14.40625 
Q 37.984375 18.0625 35.515625 20.015625 
Q 33.0625 21.96875 24.703125 23.78125 
L 21.578125 24.515625 
Q 13.234375 26.265625 9.515625 29.90625 
Q 5.8125 33.546875 5.8125 39.890625 
Q 5.8125 47.609375 11.28125 51.796875 
Q 16.75 56 26.8125 56 
Q 31.78125 56 36.171875 55.265625 
Q 40.578125 54.546875 44.28125 53.078125 
z
" id="DejaVuSans-115"/>
     </defs>
     <g transform="translate(205.662344 335.860562)scale(0.1 -0.1)">
      <use xlink:href="#DejaVuSans-71"/>
      <use x="77.490234" xlink:href="#DejaVuSans-101"/>
      <use x="139.013672" xlink:href="#DejaVuSans-110"/>
      <use x="202.392578" xlink:href="#DejaVuSans-101"/>
      <use x="263.916016" xlink:href="#DejaVuSans-114"/>
      <use x="305.029297" xlink:href="#DejaVuSans-97"/>
      <use x="366.308594" xlink:href="#DejaVuSans-116"/>
      <use x="405.517578" xlink:href="#DejaVuSans-105"/>
      <use x="433.300781" xlink:href="#DejaVuSans-111"/>
      <use x="494.482422" xlink:href="#DejaVuSans-110"/>
      <use x="557.861328" xlink:href="#DejaVuSans-115"/>
     </g>
    </g>
   </g>
   <g id="matplotlib.axis_2">
    <g id="ytick_1">
     <g id="line2d_15">
      <path clip-path="url(#pdddce39b23)" d="M 57.6 299.255549 
L 414.72 299.255549 
" style="fill:none;stroke:#b0b0b0;stroke-linecap:square;stroke-width:0.8;"/>
     </g>
     <g id="line2d_16">
      <defs>
       <path d="M 0 0 
L -3.5 0 
" id="mf59755a558" style="stroke:#000000;stroke-width:0.8;"/>
      </defs>
      <g>
       <use style="stroke:#000000;stroke-width:0.8;" x="57.6" xlink:href="#mf59755a558" y="299.255549"/>
      </g>
     </g>
     <g id="text_9">
      <!-- 600 -->
      <defs>
       <path d="M 33.015625 40.375 
Q 26.375 40.375 22.484375 35.828125 
Q 18.609375 31.296875 18.609375 23.390625 
Q 18.609375 15.53125 22.484375 10.953125 
Q 26.375 6.390625 33.015625 6.390625 
Q 39.65625 6.390625 43.53125 10.953125 
Q 47.40625 15.53125 47.40625 23.390625 
Q 47.40625 31.296875 43.53125 35.828125 
Q 39.65625 40.375 33.015625 40.375 
z
M 52.59375 71.296875 
L 52.59375 62.3125 
Q 48.875 64.0625 45.09375 64.984375 
Q 41.3125 65.921875 37.59375 65.921875 
Q 27.828125 65.921875 22.671875 59.328125 
Q 17.53125 52.734375 16.796875 39.40625 
Q 19.671875 43.65625 24.015625 45.921875 
Q 28.375 48.1875 33.59375 48.1875 
Q 44.578125 48.1875 50.953125 41.515625 
Q 57.328125 34.859375 57.328125 23.390625 
Q 57.328125 12.15625 50.6875 5.359375 
Q 44.046875 -1.421875 33.015625 -1.421875 
Q 20.359375 -1.421875 13.671875 8.265625 
Q 6.984375 17.96875 6.984375 36.375 
Q 6.984375 53.65625 15.1875 63.9375 
Q 23.390625 74.21875 37.203125 74.21875 
Q 40.921875 74.21875 44.703125 73.484375 
Q 48.484375 72.75 52.59375 71.296875 
z
" id="DejaVuSans-54"/>
      </defs>
      <g transform="translate(31.5125 303.054768)scale(0.1 -0.1)">
       <use xlink:href="#DejaVuSans-54"/>
       <use x="63.623047" xlink:href="#DejaVuSans-48"/>
       <use x="127.246094" xlink:href="#DejaVuSans-48"/>
      </g>
     </g>
    </g>
    <g id="ytick_2">
     <g id="line2d_17">
      <path clip-path="url(#pdddce39b23)" d="M 57.6 267.819502 
L 414.72 267.819502 
" style="fill:none;stroke:#b0b0b0;stroke-linecap:square;stroke-width:0.8;"/>
     </g>
     <g id="line2d_18">
      <g>
       <use style="stroke:#000000;stroke-width:0.8;" x="57.6" xlink:href="#mf59755a558" y="267.819502"/>
      </g>
     </g>
     <g id="text_10">
      <!-- 800 -->
      <defs>
       <path d="M 31.78125 34.625 
Q 24.75 34.625 20.71875 30.859375 
Q 16.703125 27.09375 16.703125 20.515625 
Q 16.703125 13.921875 20.71875 10.15625 
Q 24.75 6.390625 31.78125 6.390625 
Q 38.8125 6.390625 42.859375 10.171875 
Q 46.921875 13.96875 46.921875 20.515625 
Q 46.921875 27.09375 42.890625 30.859375 
Q 38.875 34.625 31.78125 34.625 
z
M 21.921875 38.8125 
Q 15.578125 40.375 12.03125 44.71875 
Q 8.5 49.078125 8.5 55.328125 
Q 8.5 64.0625 14.71875 69.140625 
Q 20.953125 74.21875 31.78125 74.21875 
Q 42.671875 74.21875 48.875 69.140625 
Q 55.078125 64.0625 55.078125 55.328125 
Q 55.078125 49.078125 51.53125 44.71875 
Q 48 40.375 41.703125 38.8125 
Q 48.828125 37.15625 52.796875 32.3125 
Q 56.78125 27.484375 56.78125 20.515625 
Q 56.78125 9.90625 50.3125 4.234375 
Q 43.84375 -1.421875 31.78125 -1.421875 
Q 19.734375 -1.421875 13.25 4.234375 
Q 6.78125 9.90625 6.78125 20.515625 
Q 6.78125 27.484375 10.78125 32.3125 
Q 14.796875 37.15625 21.921875 38.8125 
z
M 18.3125 54.390625 
Q 18.3125 48.734375 21.84375 45.5625 
Q 25.390625 42.390625 31.78125 42.390625 
Q 38.140625 42.390625 41.71875 45.5625 
Q 45.3125 48.734375 45.3125 54.390625 
Q 45.3125 60.0625 41.71875 63.234375 
Q 38.140625 66.40625 31.78125 66.40625 
Q 25.390625 66.40625 21.84375 63.234375 
Q 18.3125 60.0625 18.3125 54.390625 
z
" id="DejaVuSans-56"/>
      </defs>
      <g transform="translate(31.5125 271.618721)scale(0.1 -0.1)">
       <use xlink:href="#DejaVuSans-56"/>
       <use x="63.623047" xlink:href="#DejaVuSans-48"/>
       <use x="127.246094" xlink:href="#DejaVuSans-48"/>
      </g>
     </g>
    </g>
    <g id="ytick_3">
     <g id="line2d_19">
      <path clip-path="url(#pdddce39b23)" d="M 57.6 236.383456 
L 414.72 236.383456 
" style="fill:none;stroke:#b0b0b0;stroke-linecap:square;stroke-width:0.8;"/>
     </g>
     <g id="line2d_20">
      <g>
       <use style="stroke:#000000;stroke-width:0.8;" x="57.6" xlink:href="#mf59755a558" y="236.383456"/>
      </g>
     </g>
     <g id="text_11">
      <!-- 1000 -->
      <g transform="translate(25.15 240.182675)scale(0.1 -0.1)">
       <use xlink:href="#DejaVuSans-49"/>
       <use x="63.623047" xlink:href="#DejaVuSans-48"/>
       <use x="127.246094" xlink:href="#DejaVuSans-48"/>
       <use x="190.869141" xlink:href="#DejaVuSans-48"/>
      </g>
     </g>
    </g>
    <g id="ytick_4">
     <g id="line2d_21">
      <path clip-path="url(#pdddce39b23)" d="M 57.6 204.94741 
L 414.72 204.94741 
" style="fill:none;stroke:#b0b0b0;stroke-linecap:square;stroke-width:0.8;"/>
     </g>
     <g id="line2d_22">
      <g>
       <use style="stroke:#000000;stroke-width:0.8;" x="57.6" xlink:href="#mf59755a558" y="204.94741"/>
      </g>
     </g>
     <g id="text_12">
      <!-- 1200 -->
      <g transform="translate(25.15 208.746629)scale(0.1 -0.1)">
       <use xlink:href="#DejaVuSans-49"/>
       <use x="63.623047" xlink:href="#DejaVuSans-50"/>
       <use x="127.246094" xlink:href="#DejaVuSans-48"/>
       <use x="190.869141" xlink:href="#DejaVuSans-48"/>
      </g>
     </g>
    </g>
    <g id="ytick_5">
     <g id="line2d_23">
      <path clip-path="url(#pdddce39b23)" d="M 57.6 173.511363 
L 414.72 173.511363 
" style="fill:none;stroke:#b0b0b0;stroke-linecap:square;stroke-width:0.8;"/>
     </g>
     <g id="line2d_24">
      <g>
       <use style="stroke:#000000;stroke-width:0.8;" x="57.6" xlink:href="#mf59755a558" y="173.511363"/>
      </g>
     </g>
     <g id="text_13">
      <!-- 1400 -->
      <defs>
       <path d="M 37.796875 64.3125 
L 12.890625 25.390625 
L 37.796875 25.390625 
z
M 35.203125 72.90625 
L 47.609375 72.90625 
L 47.609375 25.390625 
L 58.015625 25.390625 
L 58.015625 17.1875 
L 47.609375 17.1875 
L 47.609375 0 
L 37.796875 0 
L 37.796875 17.1875 
L 4.890625 17.1875 
L 4.890625 26.703125 
z
" id="DejaVuSans-52"/>
      </defs>
      <g transform="translate(25.15 177.310582)scale(0.1 -0.1)">
       <use xlink:href="#DejaVuSans-49"/>
       <use x="63.623047" xlink:href="#DejaVuSans-52"/>
       <use x="127.246094" xlink:href="#DejaVuSans-48"/>
       <use x="190.869141" xlink:href="#DejaVuSans-48"/>
      </g>
     </g>
    </g>
    <g id="ytick_6">
     <g id="line2d_25">
      <path clip-path="url(#pdddce39b23)" d="M 57.6 142.075317 
L 414.72 142.075317 
" style="fill:none;stroke:#b0b0b0;stroke-linecap:square;stroke-width:0.8;"/>
     </g>
     <g id="line2d_26">
      <g>
       <use style="stroke:#000000;stroke-width:0.8;" x="57.6" xlink:href="#mf59755a558" y="142.075317"/>
      </g>
     </g>
     <g id="text_14">
      <!-- 1600 -->
      <g transform="translate(25.15 145.874536)scale(0.1 -0.1)">
       <use xlink:href="#DejaVuSans-49"/>
       <use x="63.623047" xlink:href="#DejaVuSans-54"/>
       <use x="127.246094" xlink:href="#DejaVuSans-48"/>
       <use x="190.869141" xlink:href="#DejaVuSans-48"/>
      </g>
     </g>
    </g>
    <g id="ytick_7">
     <g id="line2d_27">
      <path clip-path="url(#pdddce39b23)" d="M 57.6 110.639271 
L 414.72 110.639271 
" style="fill:none;stroke:#b0b0b0;stroke-linecap:square;stroke-width:0.8;"/>
     </g>
     <g id="line2d_28">
      <g>
       <use style="stroke:#000000;stroke-width:0.8;" x="57.6" xlink:href="#mf59755a558" y="110.639271"/>
      </g>
     </g>
     <g id="text_15">
      <!-- 1800 -->
      <g transform="translate(25.15 114.438489)scale(0.1 -0.1)">
       <use xlink:href="#DejaVuSans-49"/>
       <use x="63.623047" xlink:href="#DejaVuSans-56"/>
       <use x="127.246094" xlink:href="#DejaVuSans-48"/>
       <use x="190.869141" xlink:href="#DejaVuSans-48"/>
      </g>
     </g>
    </g>
    <g id="ytick_8">
     <g id="line2d_29">
      <path clip-path="url(#pdddce39b23)" d="M 57.6 79.203224 
L 414.72 79.203224 
" style="fill:none;stroke:#b0b0b0;stroke-linecap:square;stroke-width:0.8;"/>
     </g>
     <g id="line2d_30">
      <g>
       <use style="stroke:#000000;stroke-width:0.8;" x="57.6" xlink:href="#mf59755a558" y="79.203224"/>
      </g>
     </g>
     <g id="text_16">
      <!-- 2000 -->
      <g transform="translate(25.15 83.002443)scale(0.1 -0.1)">
       <use xlink:href="#DejaVuSans-50"/>
       <use x="63.623047" xlink:href="#DejaVuSans-48"/>
       <use x="127.246094" xlink:href="#DejaVuSans-48"/>
       <use x="190.869141" xlink:href="#DejaVuSans-48"/>
      </g>
     </g>
    </g>
    <g id="ytick_9">
     <g id="line2d_31">
      <path clip-path="url(#pdddce39b23)" d="M 57.6 47.767178 
L 414.72 47.767178 
" style="fill:none;stroke:#b0b0b0;stroke-linecap:square;stroke-width:0.8;"/>
     </g>
     <g id="line2d_32">
      <g>
       <use style="stroke:#000000;stroke-width:0.8;" x="57.6" xlink:href="#mf59755a558" y="47.767178"/>
      </g>
     </g>
     <g id="text_17">
      <!-- 2200 -->
      <g transform="translate(25.15 51.566397)scale(0.1 -0.1)">
       <use xlink:href="#DejaVuSans-50"/>
       <use x="63.623047" xlink:href="#DejaVuSans-50"/>
       <use x="127.246094" xlink:href="#DejaVuSans-48"/>
       <use x="190.869141" xlink:href="#DejaVuSans-48"/>
      </g>
     </g>
    </g>
    <g id="text_18">
     <!-- Fitness -->
     <defs>
      <path d="M 9.8125 72.90625 
L 51.703125 72.90625 
L 51.703125 64.59375 
L 19.671875 64.59375 
L 19.671875 43.109375 
L 48.578125 43.109375 
L 48.578125 34.8125 
L 19.671875 34.8125 
L 19.671875 0 
L 9.8125 0 
z
" id="DejaVuSans-70"/>
     </defs>
     <g transform="translate(19.070312 192.202219)rotate(-90)scale(0.1 -0.1)">
      <use xlink:href="#DejaVuSans-70"/>
      <use x="57.410156" xlink:href="#DejaVuSans-105"/>
      <use x="85.193359" xlink:href="#DejaVuSans-116"/>
      <use x="124.402344" xlink:href="#DejaVuSans-110"/>
      <use x="187.78125" xlink:href="#DejaVuSans-101"/>
      <use x="249.304688" xlink:href="#DejaVuSans-115"/>
      <use x="301.404297" xlink:href="#DejaVuSans-115"/>
     </g>
    </g>
   </g>
   <g id="line2d_33">
    <path clip-path="url(#pdddce39b23)" d="M 73.832727 247.278117 
L 74.918528 221.07224 
L 76.00433 207.922801 
L 77.090131 203.441115 
L 78.175932 196.710248 
L 79.261733 188.027243 
L 80.347534 187.30331 
L 81.433335 169.665428 
L 82.519137 184.051877 
L 83.604938 183.158953 
L 84.690739 172.898583 
L 85.77654 166.058295 
L 86.862341 165.530379 
L 87.948142 162.208046 
L 89.033943 172.420544 
L 90.119745 170.038117 
L 91.205546 162.057998 
L 92.291347 166.350642 
L 93.377148 161.27854 
L 94.462949 168.611614 
L 95.54875 157.489795 
L 96.634552 171.196532 
L 97.720353 159.395734 
L 98.806154 143.097445 
L 99.891955 151.668866 
L 100.977756 147.097274 
L 102.063557 139.53083 
L 103.149358 141.096119 
L 104.23516 155.607562 
L 106.406762 142.934059 
L 107.492563 143.444607 
L 108.578364 148.660557 
L 109.664165 149.097501 
L 110.749967 156.945704 
L 111.835768 147.607889 
L 112.921569 158.196696 
L 114.00737 156.373541 
L 115.093171 163.109556 
L 116.178972 173.26055 
L 117.264773 163.569683 
L 118.350575 150.98329 
L 119.436376 158.946425 
L 120.522177 151.326317 
L 121.607978 158.059627 
L 122.693779 158.31375 
L 123.77958 149.463779 
L 124.865382 149.653134 
L 125.951183 142.841066 
L 127.036984 150.959565 
L 128.122785 143.87819 
L 129.208586 146.893703 
L 130.294387 139.020575 
L 131.380189 137.014804 
L 132.46599 136.381784 
L 133.551791 128.830421 
L 134.637592 178.463853 
L 135.723393 153.16525 
L 136.809194 140.49009 
L 137.894995 132.186125 
L 138.980797 138.978046 
L 140.066598 132.018196 
L 141.152399 126.459572 
L 142.2382 135.534389 
L 144.409802 122.695857 
L 145.495604 124.02569 
L 146.581405 143.332143 
L 147.667206 152.520862 
L 148.753007 114.602868 
L 149.838808 125.140699 
L 150.924609 115.346577 
L 152.01041 128.412668 
L 153.096212 120.49 
L 154.182013 125.695595 
L 155.267814 125.882737 
L 156.353615 116.418445 
L 157.439416 122.821805 
L 158.525217 110.542401 
L 159.611019 122.181735 
L 160.69682 123.430947 
L 161.782621 120.342708 
L 162.868422 118.199466 
L 163.954223 117.001483 
L 165.040024 133.384901 
L 166.125825 130.93108 
L 167.211627 127.300882 
L 168.297428 141.675389 
L 169.383229 126.913106 
L 170.46903 140.677105 
L 171.554831 132.327478 
L 172.640632 122.628452 
L 173.726434 127.01459 
L 174.812235 123.76287 
L 175.898036 127.295018 
L 176.983837 131.782247 
L 178.069638 127.226507 
L 179.155439 120.223739 
L 180.24124 134.203795 
L 181.327042 120.902716 
L 182.412843 143.395603 
L 183.498644 126.287941 
L 184.584445 128.694681 
L 185.670246 126.375305 
L 186.756047 146.650595 
L 187.841849 128.119821 
L 188.92765 121.698478 
L 190.013451 111.719201 
L 191.099252 136.824411 
L 192.185053 139.077346 
L 193.270854 134.932772 
L 194.356656 118.816893 
L 195.442457 142.485476 
L 196.528258 120.687925 
L 197.614059 118.306559 
L 198.69986 120.572249 
L 199.785661 118.470929 
L 200.871462 129.609615 
L 201.957264 121.298145 
L 204.128866 145.138773 
L 205.214667 134.201775 
L 206.300468 131.392524 
L 207.386269 126.319102 
L 208.472071 117.688897 
L 209.557872 124.132743 
L 210.643673 135.736786 
L 211.729474 126.907333 
L 212.815275 135.555032 
L 213.901076 128.997649 
L 214.986877 143.094226 
L 216.072679 121.62155 
L 217.15848 117.05901 
L 218.244281 127.494851 
L 219.330082 130.752936 
L 220.415883 138.267326 
L 221.501684 122.950149 
L 222.587486 123.649254 
L 223.673287 114.734039 
L 224.759088 127.067821 
L 225.844889 125.166446 
L 226.93069 131.513709 
L 228.016491 135.046839 
L 229.102292 126.595935 
L 230.188094 147.629266 
L 231.273895 121.712021 
L 232.359696 130.33111 
L 233.445497 124.456318 
L 234.531298 123.34918 
L 235.617099 125.200974 
L 236.702901 141.8146 
L 237.788702 130.535456 
L 238.874503 154.188476 
L 239.960304 156.791866 
L 241.046105 131.664452 
L 242.131906 123.396318 
L 243.217708 128.48426 
L 244.303509 131.568499 
L 245.38931 123.13943 
L 246.475111 121.916633 
L 247.560912 130.701141 
L 248.646713 135.408745 
L 249.732514 119.416113 
L 250.818316 125.466073 
L 251.904117 122.871334 
L 252.989918 105.237416 
L 254.075719 118.366939 
L 255.16152 125.492513 
L 256.247321 122.907813 
L 257.333123 128.375633 
L 258.418924 116.576504 
L 259.504725 114.254993 
L 260.590526 123.875523 
L 261.676327 130.103284 
L 262.762128 117.180226 
L 263.847929 115.628847 
L 264.933731 127.914964 
L 266.019532 118.121954 
L 267.105333 121.621916 
L 268.191134 126.739377 
L 269.276935 129.853997 
L 270.362736 124.914275 
L 271.448538 107.723336 
L 272.534339 106.674788 
L 273.62014 112.903675 
L 274.705941 104.211532 
L 275.791742 118.724296 
L 276.877543 113.707319 
L 277.963344 118.424568 
L 279.049146 114.913047 
L 280.134947 104.226112 
L 281.220748 103.478758 
L 282.306549 107.020126 
L 283.39235 111.299511 
L 284.478151 107.250411 
L 286.649754 101.698965 
L 287.735555 125.421287 
L 288.821356 109.418729 
L 289.907157 133.447465 
L 290.992958 113.4628 
L 292.07876 113.132624 
L 293.164561 117.712236 
L 294.250362 113.161229 
L 295.336163 118.90861 
L 296.421964 110.171759 
L 297.507765 119.223077 
L 298.593566 105.527395 
L 299.679368 99.39394 
L 300.765169 105.419657 
L 301.85097 96.237154 
L 302.936771 113.99512 
L 304.022572 119.979324 
L 305.108373 114.043822 
L 306.194175 135.38767 
L 307.279976 105.13646 
L 308.365777 116.66101 
L 309.451578 102.503799 
L 310.537379 105.125345 
L 311.62318 104.360824 
L 312.708981 103.072209 
L 313.794783 103.40634 
L 314.880584 113.156042 
L 315.966385 97.573309 
L 317.052186 98.706462 
L 318.137987 106.152143 
L 319.223788 104.318636 
L 320.30959 122.99156 
L 321.395391 99.423976 
L 322.481192 113.588118 
L 323.566993 119.649663 
L 325.738595 113.728337 
L 326.824396 118.578563 
L 327.910198 110.990544 
L 328.995999 131.083795 
L 330.0818 120.821986 
L 331.167601 116.966175 
L 332.253402 125.509617 
L 333.339203 103.212777 
L 334.425005 112.1965 
L 335.510806 114.39073 
L 336.596607 116.205429 
L 337.682408 100.595781 
L 338.768209 113.037597 
L 339.85401 128.041156 
L 340.939811 98.50257 
L 342.025613 107.060761 
L 343.111414 101.533821 
L 344.197215 91.89964 
L 345.283016 112.913424 
L 346.368817 128.860635 
L 347.454618 110.485239 
L 348.54042 116.951765 
L 349.626221 119.714971 
L 350.712022 118.603101 
L 351.797823 119.869354 
L 352.883624 142.474575 
L 353.969425 123.5344 
L 355.055227 137.512786 
L 356.141028 113.814197 
L 357.226829 133.382687 
L 358.31263 126.907792 
L 359.398431 136.162219 
L 360.484232 140.424063 
L 361.570033 113.592839 
L 362.655835 127.662596 
L 363.741636 116.678853 
L 364.827437 118.151234 
L 365.913238 122.668792 
L 366.999039 111.855192 
L 368.08484 144.242564 
L 369.170642 128.466577 
L 370.256443 117.944 
L 371.342244 129.728 
L 372.428045 120.789176 
L 373.513846 133.189139 
L 374.599647 115.677025 
L 375.685448 123.490873 
L 376.77125 116.877418 
L 377.857051 115.492013 
L 378.942852 122.386185 
L 380.028653 102.067902 
L 381.114454 105.24762 
L 382.200255 128.772937 
L 383.286057 113.59558 
L 384.371858 105.314589 
L 385.457659 101.991193 
L 386.54346 116.158611 
L 387.629261 108.857128 
L 388.715062 113.559932 
L 389.800863 118.907177 
L 390.886665 114.030791 
L 391.972466 140.110846 
L 393.058267 133.374541 
L 394.144068 121.14156 
L 395.229869 116.82997 
L 396.31567 125.222888 
L 397.401472 111.577079 
L 398.487273 116.104562 
L 398.487273 116.104562 
" style="fill:none;stroke:#0000ff;stroke-linecap:square;stroke-width:1.5;"/>
   </g>
   <g id="line2d_34">
    <path clip-path="url(#pdddce39b23)" d="M 73.832727 295.488 
L 74.918528 264.208942 
L 76.00433 246.042363 
L 77.090131 251.268177 
L 78.175932 248.722642 
L 79.261733 236.491869 
L 80.347534 245.029397 
L 81.433335 207.268353 
L 82.519137 216.559245 
L 83.604938 230.567532 
L 84.690739 228.261412 
L 85.77654 196.431492 
L 86.862341 208.120724 
L 87.948142 197.412064 
L 89.033943 223.940002 
L 90.119745 210.025336 
L 91.205546 200.511363 
L 92.291347 201.537359 
L 93.377148 190.575823 
L 94.462949 205.885123 
L 95.54875 185.177581 
L 96.634552 211.866935 
L 97.720353 190.291172 
L 98.806154 171.953065 
L 99.891955 185.392994 
L 100.977756 186.37271 
L 102.063557 181.925752 
L 103.149358 174.903599 
L 104.23516 211.099398 
L 105.320961 201.433005 
L 106.406762 199.213674 
L 107.492563 203.366536 
L 108.578364 199.770151 
L 109.664165 212.737271 
L 110.749967 208.893747 
L 111.835768 170.324674 
L 112.921569 203.411092 
L 114.00737 211.411448 
L 115.093171 204.910027 
L 116.178972 232.633458 
L 117.264773 210.052867 
L 118.350575 204.914928 
L 119.436376 196.806882 
L 120.522177 204.483532 
L 121.607978 207.510523 
L 122.693779 216.142553 
L 123.77958 194.537936 
L 124.865382 198.798484 
L 125.951183 178.159276 
L 127.036984 189.26561 
L 128.122785 163.824605 
L 129.208586 191.502111 
L 130.294387 192.835176 
L 131.380189 190.231879 
L 132.46599 175.748954 
L 133.551791 159.556812 
L 134.637592 229.028405 
L 135.723393 202.52542 
L 136.809194 170.999057 
L 137.894995 151.330171 
L 138.980797 186.15182 
L 140.066598 155.876686 
L 141.152399 162.231829 
L 142.2382 179.201405 
L 143.324001 160.604166 
L 144.409802 146.307255 
L 145.495604 162.412557 
L 146.581405 182.342872 
L 147.667206 188.768634 
L 148.753007 143.942594 
L 149.838808 146.583474 
L 150.924609 155.423841 
L 152.01041 162.654343 
L 153.096212 142.509701 
L 154.182013 161.593086 
L 155.267814 169.051664 
L 156.353615 135.57458 
L 157.439416 166.971169 
L 158.525217 129.770726 
L 159.611019 168.891352 
L 160.69682 158.636512 
L 161.782621 157.801354 
L 162.868422 143.607004 
L 163.954223 138.551487 
L 165.040024 157.51876 
L 166.125825 168.404112 
L 167.211627 164.019533 
L 168.297428 191.967075 
L 169.383229 171.377308 
L 170.46903 192.682342 
L 171.554831 173.812248 
L 172.640632 169.106624 
L 173.726434 160.706272 
L 174.812235 165.528176 
L 175.898036 166.544924 
L 176.983837 165.827473 
L 178.069638 170.383961 
L 179.155439 142.274492 
L 180.24124 162.721702 
L 181.327042 146.925799 
L 182.412843 175.623061 
L 183.498644 160.335587 
L 184.584445 162.419527 
L 185.670246 179.685164 
L 186.756047 193.753006 
L 187.841849 151.466058 
L 188.92765 149.501995 
L 190.013451 136.002467 
L 191.099252 196.375232 
L 192.185053 197.404791 
L 193.270854 163.136927 
L 194.356656 140.046657 
L 195.442457 173.580014 
L 196.528258 143.362829 
L 197.614059 139.604799 
L 198.69986 139.342525 
L 199.785661 147.198649 
L 200.871462 152.961309 
L 201.957264 135.534224 
L 203.043065 153.173869 
L 204.128866 193.142229 
L 205.214667 176.075645 
L 206.300468 171.219267 
L 207.386269 160.235605 
L 208.472071 139.729805 
L 209.557872 152.673787 
L 210.643673 182.176729 
L 211.729474 168.790387 
L 212.815275 186.397524 
L 213.901076 164.718302 
L 214.986877 192.398877 
L 216.072679 138.411248 
L 217.15848 152.321672 
L 218.244281 157.168085 
L 219.330082 155.604677 
L 220.415883 175.023276 
L 221.501684 143.477298 
L 222.587486 140.149584 
L 223.673287 138.122019 
L 224.759088 151.403196 
L 225.844889 157.827184 
L 226.93069 145.6713 
L 228.016491 178.401007 
L 229.102292 144.498237 
L 230.188094 179.901728 
L 231.273895 159.748647 
L 232.359696 171.984792 
L 233.445497 162.217232 
L 234.531298 159.124552 
L 235.617099 152.449173 
L 236.702901 186.1412 
L 237.788702 174.704301 
L 238.874503 171.702165 
L 239.960304 195.371346 
L 241.046105 169.489626 
L 242.131906 146.502681 
L 243.217708 168.546683 
L 244.303509 171.470993 
L 245.38931 150.475808 
L 247.560912 174.755365 
L 248.646713 178.204134 
L 249.732514 147.767786 
L 250.818316 160.900808 
L 251.904117 157.91726 
L 252.989918 136.776895 
L 254.075719 141.703081 
L 255.16152 165.111314 
L 256.247321 158.572892 
L 257.333123 165.030132 
L 258.418924 163.889618 
L 259.504725 152.764402 
L 261.676327 172.781287 
L 263.847929 151.554215 
L 264.933731 158.272902 
L 266.019532 162.161963 
L 267.105333 159.416314 
L 268.191134 168.989511 
L 269.276935 171.924514 
L 270.362736 171.782792 
L 271.448538 133.620911 
L 273.62014 154.231095 
L 274.705941 154.783711 
L 275.791742 164.229988 
L 276.877543 141.394923 
L 277.963344 174.821791 
L 279.049146 147.297921 
L 280.134947 132.437534 
L 281.220748 139.868305 
L 282.306549 134.281986 
L 283.39235 156.035277 
L 284.478151 130.721777 
L 285.563953 154.96506 
L 286.649754 125.648488 
L 287.735555 170.207616 
L 288.821356 146.919581 
L 289.907157 176.827677 
L 290.992958 153.077786 
L 292.07876 158.748615 
L 293.164561 152.998049 
L 294.250362 139.093645 
L 295.336163 170.616074 
L 296.421964 162.206224 
L 297.507765 166.759831 
L 298.593566 146.351382 
L 299.679368 145.21988 
L 300.765169 144.868104 
L 301.85097 128.556197 
L 302.936771 142.1212 
L 304.022572 157.558224 
L 305.108373 162.74197 
L 306.194175 202.617384 
L 307.279976 125.207704 
L 308.365777 162.823423 
L 309.451578 142.862122 
L 310.537379 125.648866 
L 311.62318 153.260057 
L 312.708981 133.060637 
L 313.794783 127.523158 
L 314.880584 168.437016 
L 315.966385 125.504314 
L 317.052186 129.210352 
L 318.137987 153.314117 
L 319.223788 147.967445 
L 320.30959 172.832031 
L 321.395391 119.451281 
L 322.481192 143.975482 
L 323.566993 154.917218 
L 324.652794 136.591011 
L 325.738595 143.599328 
L 326.824396 155.673103 
L 327.910198 137.138014 
L 328.995999 178.549623 
L 330.0818 166.836521 
L 331.167601 165.715114 
L 332.253402 157.112226 
L 333.339203 134.05642 
L 334.425005 143.400194 
L 335.510806 138.449321 
L 336.596607 152.685635 
L 337.682408 137.814019 
L 338.768209 148.670022 
L 339.85401 167.343709 
L 340.939811 120.996641 
L 342.025613 150.422172 
L 344.197215 106.198407 
L 346.368817 162.946871 
L 347.454618 132.412869 
L 348.54042 146.404435 
L 349.626221 141.511239 
L 350.712022 161.364762 
L 351.797823 159.122373 
L 352.883624 172.85638 
L 353.969425 156.889754 
L 355.055227 162.538379 
L 356.141028 150.503353 
L 357.226829 169.961851 
L 358.31263 150.009661 
L 360.484232 178.439648 
L 361.570033 151.078114 
L 362.655835 154.244917 
L 363.741636 151.704086 
L 364.827437 145.299923 
L 365.913238 144.035921 
L 366.999039 143.543997 
L 368.08484 188.45368 
L 369.170642 151.469789 
L 370.256443 144.739964 
L 371.342244 181.849623 
L 372.428045 161.831679 
L 373.513846 179.495038 
L 374.599647 140.580608 
L 375.685448 167.650929 
L 376.77125 140.843445 
L 377.857051 156.111697 
L 378.942852 157.605633 
L 380.028653 126.761113 
L 381.114454 144.968443 
L 382.200255 171.252537 
L 383.286057 135.522891 
L 384.371858 151.155811 
L 385.457659 128.516845 
L 386.54346 152.475298 
L 387.629261 132.982512 
L 388.715062 133.468221 
L 389.800863 150.918174 
L 390.886665 131.788694 
L 391.972466 186.306966 
L 393.058267 180.649385 
L 395.229869 151.395109 
L 396.31567 178.246667 
L 397.401472 146.298885 
L 398.487273 154.229822 
L 398.487273 154.229822 
" style="fill:none;stroke:#008000;stroke-dasharray:9.6,2.4,1.5,2.4;stroke-dashoffset:0;stroke-width:1.5;"/>
   </g>
   <g id="line2d_35">
    <path clip-path="url(#pdddce39b23)" d="M 73.832727 199.068233 
L 74.918528 177.935539 
L 76.00433 169.803239 
L 77.090131 155.614054 
L 78.175932 144.697855 
L 79.261733 139.562617 
L 80.347534 129.577223 
L 81.433335 132.062503 
L 82.519137 151.544508 
L 83.604938 135.750373 
L 84.690739 117.535753 
L 85.77654 135.685099 
L 86.862341 122.940033 
L 87.948142 127.004027 
L 89.033943 120.901085 
L 90.119745 130.050899 
L 91.205546 123.604633 
L 92.291347 131.163926 
L 93.377148 131.981257 
L 94.462949 131.338104 
L 95.54875 129.802009 
L 96.634552 130.526128 
L 97.720353 128.500296 
L 98.806154 114.241825 
L 99.891955 117.944737 
L 102.063557 97.135908 
L 103.149358 107.288639 
L 104.23516 100.115726 
L 105.320961 96.631606 
L 106.406762 86.654445 
L 107.492563 83.522677 
L 108.578364 97.550963 
L 109.664165 85.45773 
L 111.835768 124.891103 
L 114.00737 101.335635 
L 115.093171 121.309084 
L 116.178972 113.887643 
L 117.264773 117.086498 
L 118.350575 97.051653 
L 119.436376 121.085969 
L 120.522177 98.169101 
L 121.607978 108.60873 
L 122.693779 100.484946 
L 123.77958 104.389621 
L 124.865382 100.507784 
L 125.951183 107.522856 
L 127.036984 112.65352 
L 128.122785 123.931774 
L 129.208586 102.285295 
L 130.294387 85.205973 
L 131.380189 83.797729 
L 132.46599 97.014614 
L 133.551791 98.10403 
L 134.637592 127.8993 
L 135.723393 103.805081 
L 136.809194 109.981122 
L 137.894995 113.042079 
L 138.980797 91.804271 
L 140.066598 108.159707 
L 141.152399 90.687315 
L 142.2382 91.867374 
L 143.324001 97.64538 
L 144.409802 99.084459 
L 145.495604 85.638823 
L 146.581405 104.321414 
L 147.667206 116.27309 
L 148.753007 85.263143 
L 149.838808 103.697925 
L 150.924609 75.269313 
L 152.01041 94.170992 
L 153.096212 98.470298 
L 154.182013 89.798104 
L 155.267814 82.71381 
L 156.353615 97.26231 
L 157.439416 78.67244 
L 158.525217 91.314075 
L 159.611019 75.472119 
L 160.69682 88.225382 
L 161.782621 82.884062 
L 162.868422 92.791928 
L 163.954223 95.451479 
L 165.040024 109.251042 
L 166.125825 93.458047 
L 167.211627 90.582232 
L 168.297428 91.383704 
L 169.383229 82.448905 
L 170.46903 88.671869 
L 171.554831 90.842708 
L 172.640632 76.15028 
L 173.726434 93.322909 
L 174.812235 81.997565 
L 175.898036 88.045113 
L 176.983837 97.737022 
L 178.069638 84.069053 
L 179.155439 98.172986 
L 180.24124 105.685888 
L 181.327042 94.879632 
L 182.412843 111.168145 
L 183.498644 92.240295 
L 184.584445 94.969834 
L 185.670246 73.065446 
L 186.756047 99.548184 
L 187.841849 104.773584 
L 188.92765 93.894961 
L 190.013451 87.435935 
L 191.099252 77.27359 
L 192.185053 80.749901 
L 193.270854 106.728616 
L 194.356656 97.587129 
L 195.442457 111.390938 
L 196.528258 98.01302 
L 197.614059 97.008318 
L 198.69986 101.801973 
L 199.785661 89.743209 
L 200.871462 106.25792 
L 201.957264 107.062066 
L 203.043065 113.005081 
L 204.128866 97.135318 
L 205.214667 92.327906 
L 206.300468 91.565781 
L 207.386269 92.4026 
L 208.472071 95.647989 
L 209.557872 95.591699 
L 210.643673 89.296842 
L 211.729474 85.024278 
L 212.815275 84.712539 
L 213.901076 93.276995 
L 214.986877 93.789576 
L 216.072679 104.831851 
L 217.15848 81.796347 
L 218.244281 97.821617 
L 219.330082 105.901195 
L 220.415883 101.511376 
L 221.501684 102.423 
L 222.587486 107.148923 
L 223.673287 91.346059 
L 224.759088 102.732446 
L 225.844889 92.505708 
L 226.93069 117.356117 
L 228.016491 91.69267 
L 229.102292 108.693633 
L 230.188094 115.356804 
L 231.273895 83.675395 
L 232.359696 88.677428 
L 233.445497 86.695403 
L 234.531298 87.573809 
L 235.617099 97.952775 
L 236.702901 97.488 
L 237.788702 86.366611 
L 238.874503 136.674786 
L 239.960304 118.212385 
L 241.046105 93.839279 
L 242.131906 100.289954 
L 243.217708 88.421836 
L 244.303509 91.666006 
L 245.38931 95.803052 
L 246.475111 81.752111 
L 247.560912 86.646918 
L 248.646713 92.613357 
L 249.732514 91.064439 
L 250.818316 90.031338 
L 251.904117 87.825409 
L 252.989918 73.697938 
L 254.075719 95.030797 
L 255.16152 85.873713 
L 256.247321 87.242734 
L 257.333123 91.721133 
L 258.418924 69.26339 
L 259.504725 75.745585 
L 260.590526 85.324978 
L 261.676327 87.42528 
L 262.762128 72.157421 
L 263.847929 79.703479 
L 264.933731 97.557027 
L 266.019532 74.081946 
L 267.105333 83.827518 
L 268.191134 84.489244 
L 269.276935 87.78348 
L 270.362736 78.045758 
L 271.448538 81.825762 
L 272.534339 69.086626 
L 273.62014 71.576254 
L 274.705941 53.639352 
L 275.791742 73.218604 
L 276.877543 86.019716 
L 277.963344 62.027344 
L 279.049146 82.528174 
L 280.134947 76.014691 
L 281.220748 67.089212 
L 282.306549 79.758266 
L 283.39235 66.563746 
L 284.478151 83.779045 
L 285.563953 54.117894 
L 286.649754 77.749443 
L 287.735555 80.634959 
L 288.821356 71.917876 
L 289.907157 90.067252 
L 290.992958 73.847814 
L 292.07876 67.516634 
L 293.164561 82.426423 
L 294.250362 87.228813 
L 295.336163 67.201147 
L 296.421964 58.137294 
L 297.507765 71.686323 
L 298.593566 64.703408 
L 299.679368 53.568 
L 300.765169 65.97121 
L 301.85097 63.918112 
L 302.936771 85.869039 
L 304.022572 82.400423 
L 305.108373 65.345675 
L 306.194175 68.157956 
L 307.279976 85.065216 
L 308.365777 70.498597 
L 309.451578 62.145476 
L 310.537379 84.601824 
L 311.62318 55.461591 
L 312.708981 73.08378 
L 313.794783 79.289522 
L 314.880584 57.875069 
L 315.966385 69.642304 
L 317.052186 68.202572 
L 318.137987 58.990169 
L 319.223788 60.669826 
L 320.30959 73.151089 
L 321.395391 79.396672 
L 322.481192 83.200753 
L 323.566993 84.382108 
L 324.652794 96.631182 
L 325.738595 83.857346 
L 326.824396 81.484022 
L 327.910198 84.843073 
L 328.995999 83.617967 
L 330.0818 74.807451 
L 331.167601 68.217237 
L 332.253402 93.907007 
L 333.339203 72.369134 
L 335.510806 90.33214 
L 336.596607 79.725222 
L 337.682408 63.377544 
L 338.768209 77.405172 
L 339.85401 88.738603 
L 342.025613 63.699349 
L 343.111414 75.676965 
L 344.197215 77.600873 
L 345.283016 91.01592 
L 346.368817 94.774399 
L 347.454618 88.55761 
L 348.54042 87.499096 
L 349.626221 97.918703 
L 350.712022 75.84144 
L 351.797823 80.616335 
L 352.883624 112.092769 
L 353.969425 90.179045 
L 355.055227 112.487193 
L 356.141028 77.125042 
L 357.226829 96.803522 
L 358.31263 103.805924 
L 359.398431 108.658667 
L 360.484232 102.408477 
L 361.570033 76.107565 
L 362.655835 101.080274 
L 363.741636 81.65362 
L 365.913238 101.301663 
L 366.999039 80.166388 
L 368.08484 100.031448 
L 369.170642 105.463365 
L 371.342244 77.606378 
L 372.428045 79.746673 
L 373.513846 86.88324 
L 374.599647 90.773442 
L 375.685448 79.330818 
L 376.77125 92.911392 
L 377.857051 74.872329 
L 378.942852 87.166738 
L 380.028653 77.374691 
L 381.114454 65.526798 
L 382.200255 86.293338 
L 383.286057 91.668269 
L 384.371858 59.473367 
L 385.457659 75.465541 
L 386.54346 79.841923 
L 387.629261 84.731744 
L 388.715062 93.651643 
L 389.800863 86.896181 
L 390.886665 96.272888 
L 391.972466 93.914727 
L 393.058267 86.099697 
L 394.144068 76.383557 
L 395.229869 82.264831 
L 396.31567 72.199109 
L 397.401472 76.855274 
L 398.487273 77.979303 
L 398.487273 77.979303 
" style="fill:none;stroke:#008000;stroke-dasharray:9.6,2.4,1.5,2.4;stroke-dashoffset:0;stroke-width:1.5;"/>
   </g>
   <g id="line2d_36">
    <path clip-path="url(#pdddce39b23)" d="M 73.832727 188.557274 
L 74.918528 180.316723 
L 76.00433 164.547012 
L 77.090131 143.339366 
L 78.175932 145.922812 
L 79.261733 141.084149 
L 80.347534 135.480026 
L 81.433335 137.469755 
L 82.519137 152.677649 
L 83.604938 145.965954 
L 84.690739 125.670481 
L 85.77654 143.845684 
L 86.862341 139.233494 
L 87.948142 141.799964 
L 89.033943 136.298503 
L 90.119745 144.156367 
L 91.205546 136.051363 
L 92.291347 135.761001 
L 93.377148 135.813206 
L 94.462949 131.518378 
L 95.54875 128.867253 
L 96.634552 136.7369 
L 98.806154 118.553476 
L 99.891955 122.038542 
L 100.977756 112.768135 
L 102.063557 109.014688 
L 103.149358 111.47146 
L 104.23516 116.889962 
L 105.320961 112.129792 
L 106.406762 104.019801 
L 107.492563 105.532307 
L 108.578364 102.570764 
L 109.664165 107.883074 
L 110.749967 114.520709 
L 111.835768 111.532953 
L 112.921569 112.777522 
L 114.00737 119.555436 
L 115.093171 124.297808 
L 116.178972 127.584741 
L 117.264773 123.00001 
L 118.350575 113.489049 
L 119.436376 125.282131 
L 120.522177 111.243914 
L 121.607978 123.578407 
L 122.693779 107.372211 
L 123.77958 108.945598 
L 124.865382 110.943069 
L 125.951183 110.324197 
L 127.036984 113.730696 
L 128.122785 114.328558 
L 129.208586 110.480705 
L 131.380189 93.504974 
L 132.46599 98.080385 
L 133.551791 97.519318 
L 134.637592 122.021357 
L 135.723393 103.652531 
L 136.809194 107.226699 
L 137.894995 103.691389 
L 138.980797 97.627042 
L 140.066598 94.835876 
L 141.152399 90.330778 
L 142.2382 99.53714 
L 143.324001 87.314402 
L 144.409802 91.624176 
L 145.495604 86.316671 
L 146.581405 90.887604 
L 147.667206 114.895419 
L 148.753007 81.333764 
L 149.838808 98.910304 
L 150.924609 82.186327 
L 152.01041 96.068887 
L 153.096212 86.632905 
L 154.182013 91.667861 
L 155.267814 93.747577 
L 156.353615 89.743898 
L 157.439416 94.644302 
L 158.525217 91.959979 
L 159.611019 86.774271 
L 160.69682 95.056496 
L 161.782621 95.523366 
L 162.868422 90.809096 
L 163.954223 85.272896 
L 165.040024 104.561031 
L 166.125825 93.283658 
L 167.211627 96.36846 
L 168.297428 102.962005 
L 169.383229 92.012803 
L 170.46903 98.211431 
L 171.554831 99.250709 
L 172.640632 85.605001 
L 173.726434 95.651115 
L 174.812235 86.79005 
L 175.898036 88.537467 
L 176.983837 101.351544 
L 178.069638 92.337906 
L 179.155439 87.362062 
L 180.24124 101.644177 
L 181.327042 90.959689 
L 182.412843 110.608646 
L 183.498644 96.397931 
L 184.584445 93.350922 
L 185.670246 84.00721 
L 186.756047 103.32984 
L 187.841849 94.432405 
L 188.92765 90.999853 
L 190.013451 85.512014 
L 191.099252 89.252703 
L 192.185053 86.021447 
L 193.270854 90.943422 
L 194.356656 90.786898 
L 195.442457 104.336036 
L 196.528258 89.76293 
L 197.614059 91.616307 
L 198.69986 96.471368 
L 199.785661 88.572972 
L 200.871462 98.305373 
L 201.957264 92.643542 
L 203.043065 99.700021 
L 204.128866 102.961343 
L 205.214667 96.754473 
L 206.300468 92.143245 
L 207.386269 94.604412 
L 208.472071 89.860226 
L 209.557872 93.863506 
L 210.643673 106.884229 
L 211.729474 100.94145 
L 212.815275 97.205514 
L 213.901076 92.929422 
L 214.986877 107.399597 
L 217.15848 89.543376 
L 218.244281 95.918559 
L 219.330082 105.882079 
L 220.415883 109.051238 
L 221.501684 101.467061 
L 222.587486 102.904027 
L 223.673287 87.978805 
L 224.759088 106.711083 
L 225.844889 101.319479 
L 226.93069 117.769575 
L 228.016491 103.467537 
L 229.102292 107.547448 
L 230.188094 123.13092 
L 231.273895 88.803703 
L 232.359696 98.901202 
L 233.445497 90.353684 
L 235.617099 95.118461 
L 236.702901 109.519695 
L 237.788702 98.347134 
L 238.874503 120.661367 
L 239.960304 113.496233 
L 241.046105 95.612106 
L 242.131906 94.624982 
L 243.217708 87.644184 
L 244.303509 95.494034 
L 245.38931 96.829598 
L 246.475111 90.954703 
L 247.560912 86.245635 
L 248.646713 97.186323 
L 249.732514 83.801513 
L 250.818316 96.094079 
L 251.904117 95.272052 
L 252.989918 80.326875 
L 254.075719 91.123754 
L 255.16152 93.094774 
L 256.247321 91.107584 
L 257.333123 88.787833 
L 258.418924 85.422623 
L 259.504725 86.065289 
L 260.590526 85.456956 
L 261.676327 99.17343 
L 262.762128 76.838095 
L 263.847929 76.353909 
L 264.933731 85.429846 
L 266.019532 83.894539 
L 267.105333 90.318549 
L 268.191134 91.75156 
L 269.276935 97.755143 
L 270.362736 79.283556 
L 271.448538 74.315224 
L 272.534339 71.248282 
L 273.62014 81.769996 
L 274.705941 69.908887 
L 275.791742 88.359409 
L 276.877543 82.637766 
L 277.963344 68.281378 
L 279.049146 83.784045 
L 280.134947 75.101468 
L 281.220748 70.372839 
L 282.306549 76.115103 
L 283.39235 69.160107 
L 284.478151 83.360188 
L 285.563953 67.702934 
L 286.649754 76.061005 
L 287.735555 87.632488 
L 288.821356 80.156055 
L 289.907157 102.899996 
L 290.992958 82.57104 
L 292.07876 75.710536 
L 293.164561 85.954663 
L 294.250362 84.836906 
L 296.421964 71.119414 
L 297.507765 83.887741 
L 298.593566 69.214658 
L 299.679368 65.979922 
L 300.765169 70.283875 
L 301.85097 71.379889 
L 302.936771 82.939748 
L 304.022572 83.90252 
L 305.108373 71.701398 
L 306.194175 84.005208 
L 307.279976 84.486583 
L 308.365777 81.319816 
L 309.451578 75.981932 
L 310.537379 85.237897 
L 311.62318 71.495669 
L 312.708981 69.22841 
L 313.794783 71.544571 
L 314.880584 69.939851 
L 315.966385 72.073756 
L 317.052186 63.311828 
L 318.137987 69.276247 
L 319.223788 64.131719 
L 320.30959 83.06397 
L 321.395391 75.493889 
L 322.481192 75.538304 
L 323.566993 87.295838 
L 324.652794 90.533652 
L 325.738595 71.346402 
L 326.824396 81.120016 
L 327.910198 82.458822 
L 328.995999 79.527047 
L 330.0818 84.167004 
L 331.167601 84.343682 
L 332.253402 79.214877 
L 333.339203 72.491803 
L 334.425005 79.314266 
L 335.510806 85.087172 
L 336.596607 79.989825 
L 337.682408 71.315209 
L 338.768209 75.641729 
L 339.85401 90.595545 
L 340.939811 71.556376 
L 342.025613 69.937283 
L 343.111414 75.362263 
L 344.197215 74.230638 
L 345.283016 86.751941 
L 346.368817 97.732382 
L 347.454618 89.273651 
L 348.54042 86.129946 
L 349.626221 93.73735 
L 350.712022 84.957167 
L 351.797823 90.937823 
L 352.883624 104.968239 
L 353.969425 86.772555 
L 355.055227 95.682495 
L 356.141028 79.758553 
L 357.226829 93.804916 
L 358.31263 95.897229 
L 359.398431 104.211924 
L 360.484232 102.497177 
L 361.570033 80.50338 
L 362.655835 86.878429 
L 363.741636 84.747491 
L 364.827437 86.94677 
L 365.913238 94.12265 
L 366.999039 77.174443 
L 368.08484 94.054092 
L 370.256443 95.340708 
L 371.342244 90.702589 
L 372.428045 80.179194 
L 373.513846 93.841667 
L 374.599647 86.76517 
L 375.685448 89.945834 
L 376.77125 86.278196 
L 377.857051 76.275539 
L 378.942852 79.937029 
L 380.028653 75.894793 
L 381.114454 72.612467 
L 382.200255 95.820319 
L 383.286057 85.792723 
L 384.371858 73.509025 
L 385.457659 73.553904 
L 386.54346 86.430487 
L 387.629261 77.976869 
L 388.715062 89.596013 
L 389.800863 90.527619 
L 390.886665 91.914866 
L 391.972466 97.452919 
L 393.058267 97.411568 
L 394.144068 85.217925 
L 395.229869 87.27606 
L 396.31567 82.353284 
L 397.401472 82.288142 
L 398.487273 84.72288 
L 398.487273 84.72288 
" style="fill:none;stroke:#ff0000;stroke-linecap:square;stroke-width:1.5;"/>
   </g>
   <g id="patch_3">
    <path d="M 57.6 307.584 
L 57.6 41.472 
" style="fill:none;stroke:#000000;stroke-linecap:square;stroke-linejoin:miter;stroke-width:0.8;"/>
   </g>
   <g id="patch_4">
    <path d="M 414.72 307.584 
L 414.72 41.472 
" style="fill:none;stroke:#000000;stroke-linecap:square;stroke-linejoin:miter;stroke-width:0.8;"/>
   </g>
   <g id="patch_5">
    <path d="M 57.6 307.584 
L 414.72 307.584 
" style="fill:none;stroke:#000000;stroke-linecap:square;stroke-linejoin:miter;stroke-width:0.8;"/>
   </g>
   <g id="patch_6">
    <path d="M 57.6 41.472 
L 414.72 41.472 
" style="fill:none;stroke:#000000;stroke-linecap:square;stroke-linejoin:miter;stroke-width:0.8;"/>
   </g>
   <g id="text_19">
    <!-- Population's average and best fitness -->
    <defs>
     <path d="M 19.671875 64.796875 
L 19.671875 37.40625 
L 32.078125 37.40625 
Q 38.96875 37.40625 42.71875 40.96875 
Q 46.484375 44.53125 46.484375 51.125 
Q 46.484375 57.671875 42.71875 61.234375 
Q 38.96875 64.796875 32.078125 64.796875 
z
M 9.8125 72.90625 
L 32.078125 72.90625 
Q 44.34375 72.90625 50.609375 67.359375 
Q 56.890625 61.8125 56.890625 51.125 
Q 56.890625 40.328125 50.609375 34.8125 
Q 44.34375 29.296875 32.078125 29.296875 
L 19.671875 29.296875 
L 19.671875 0 
L 9.8125 0 
z
" id="DejaVuSans-80"/>
     <path d="M 18.109375 8.203125 
L 18.109375 -20.796875 
L 9.078125 -20.796875 
L 9.078125 54.6875 
L 18.109375 54.6875 
L 18.109375 46.390625 
Q 20.953125 51.265625 25.265625 53.625 
Q 29.59375 56 35.59375 56 
Q 45.5625 56 51.78125 48.09375 
Q 58.015625 40.1875 58.015625 27.296875 
Q 58.015625 14.40625 51.78125 6.484375 
Q 45.5625 -1.421875 35.59375 -1.421875 
Q 29.59375 -1.421875 25.265625 0.953125 
Q 20.953125 3.328125 18.109375 8.203125 
z
M 48.6875 27.296875 
Q 48.6875 37.203125 44.609375 42.84375 
Q 40.53125 48.484375 33.40625 48.484375 
Q 26.265625 48.484375 22.1875 42.84375 
Q 18.109375 37.203125 18.109375 27.296875 
Q 18.109375 17.390625 22.1875 11.75 
Q 26.265625 6.109375 33.40625 6.109375 
Q 40.53125 6.109375 44.609375 11.75 
Q 48.6875 17.390625 48.6875 27.296875 
z
" id="DejaVuSans-112"/>
     <path d="M 8.5 21.578125 
L 8.5 54.6875 
L 17.484375 54.6875 
L 17.484375 21.921875 
Q 17.484375 14.15625 20.5 10.265625 
Q 23.53125 6.390625 29.59375 6.390625 
Q 36.859375 6.390625 41.078125 11.03125 
Q 45.3125 15.671875 45.3125 23.6875 
L 45.3125 54.6875 
L 54.296875 54.6875 
L 54.296875 0 
L 45.3125 0 
L 45.3125 8.40625 
Q 42.046875 3.421875 37.71875 1 
Q 33.40625 -1.421875 27.6875 -1.421875 
Q 18.265625 -1.421875 13.375 4.4375 
Q 8.5 10.296875 8.5 21.578125 
z
M 31.109375 56 
z
" id="DejaVuSans-117"/>
     <path d="M 9.421875 75.984375 
L 18.40625 75.984375 
L 18.40625 0 
L 9.421875 0 
z
" id="DejaVuSans-108"/>
     <path d="M 17.921875 72.90625 
L 17.921875 45.796875 
L 9.625 45.796875 
L 9.625 72.90625 
z
" id="DejaVuSans-39"/>
     <path id="DejaVuSans-32"/>
     <path d="M 2.984375 54.6875 
L 12.5 54.6875 
L 29.59375 8.796875 
L 46.6875 54.6875 
L 56.203125 54.6875 
L 35.6875 0 
L 23.484375 0 
z
" id="DejaVuSans-118"/>
     <path d="M 45.40625 27.984375 
Q 45.40625 37.75 41.375 43.109375 
Q 37.359375 48.484375 30.078125 48.484375 
Q 22.859375 48.484375 18.828125 43.109375 
Q 14.796875 37.75 14.796875 27.984375 
Q 14.796875 18.265625 18.828125 12.890625 
Q 22.859375 7.515625 30.078125 7.515625 
Q 37.359375 7.515625 41.375 12.890625 
Q 45.40625 18.265625 45.40625 27.984375 
z
M 54.390625 6.78125 
Q 54.390625 -7.171875 48.1875 -13.984375 
Q 42 -20.796875 29.203125 -20.796875 
Q 24.46875 -20.796875 20.265625 -20.09375 
Q 16.0625 -19.390625 12.109375 -17.921875 
L 12.109375 -9.1875 
Q 16.0625 -11.328125 19.921875 -12.34375 
Q 23.78125 -13.375 27.78125 -13.375 
Q 36.625 -13.375 41.015625 -8.765625 
Q 45.40625 -4.15625 45.40625 5.171875 
L 45.40625 9.625 
Q 42.625 4.78125 38.28125 2.390625 
Q 33.9375 0 27.875 0 
Q 17.828125 0 11.671875 7.65625 
Q 5.515625 15.328125 5.515625 27.984375 
Q 5.515625 40.671875 11.671875 48.328125 
Q 17.828125 56 27.875 56 
Q 33.9375 56 38.28125 53.609375 
Q 42.625 51.21875 45.40625 46.390625 
L 45.40625 54.6875 
L 54.390625 54.6875 
z
" id="DejaVuSans-103"/>
     <path d="M 45.40625 46.390625 
L 45.40625 75.984375 
L 54.390625 75.984375 
L 54.390625 0 
L 45.40625 0 
L 45.40625 8.203125 
Q 42.578125 3.328125 38.25 0.953125 
Q 33.9375 -1.421875 27.875 -1.421875 
Q 17.96875 -1.421875 11.734375 6.484375 
Q 5.515625 14.40625 5.515625 27.296875 
Q 5.515625 40.1875 11.734375 48.09375 
Q 17.96875 56 27.875 56 
Q 33.9375 56 38.25 53.625 
Q 42.578125 51.265625 45.40625 46.390625 
z
M 14.796875 27.296875 
Q 14.796875 17.390625 18.875 11.75 
Q 22.953125 6.109375 30.078125 6.109375 
Q 37.203125 6.109375 41.296875 11.75 
Q 45.40625 17.390625 45.40625 27.296875 
Q 45.40625 37.203125 41.296875 42.84375 
Q 37.203125 48.484375 30.078125 48.484375 
Q 22.953125 48.484375 18.875 42.84375 
Q 14.796875 37.203125 14.796875 27.296875 
z
" id="DejaVuSans-100"/>
     <path d="M 48.6875 27.296875 
Q 48.6875 37.203125 44.609375 42.84375 
Q 40.53125 48.484375 33.40625 48.484375 
Q 26.265625 48.484375 22.1875 42.84375 
Q 18.109375 37.203125 18.109375 27.296875 
Q 18.109375 17.390625 22.1875 11.75 
Q 26.265625 6.109375 33.40625 6.109375 
Q 40.53125 6.109375 44.609375 11.75 
Q 48.6875 17.390625 48.6875 27.296875 
z
M 18.109375 46.390625 
Q 20.953125 51.265625 25.265625 53.625 
Q 29.59375 56 35.59375 56 
Q 45.5625 56 51.78125 48.09375 
Q 58.015625 40.1875 58.015625 27.296875 
Q 58.015625 14.40625 51.78125 6.484375 
Q 45.5625 -1.421875 35.59375 -1.421875 
Q 29.59375 -1.421875 25.265625 0.953125 
Q 20.953125 3.328125 18.109375 8.203125 
L 18.109375 0 
L 9.078125 0 
L 9.078125 75.984375 
L 18.109375 75.984375 
z
" id="DejaVuSans-98"/>
     <path d="M 37.109375 75.984375 
L 37.109375 68.5 
L 28.515625 68.5 
Q 23.6875 68.5 21.796875 66.546875 
Q 19.921875 64.59375 19.921875 59.515625 
L 19.921875 54.6875 
L 34.71875 54.6875 
L 34.71875 47.703125 
L 19.921875 47.703125 
L 19.921875 0 
L 10.890625 0 
L 10.890625 47.703125 
L 2.296875 47.703125 
L 2.296875 54.6875 
L 10.890625 54.6875 
L 10.890625 58.5 
Q 10.890625 67.625 15.140625 71.796875 
Q 19.390625 75.984375 28.609375 75.984375 
z
" id="DejaVuSans-102"/>
    </defs>
    <g transform="translate(123.315 35.472)scale(0.12 -0.12)">
     <use xlink:href="#DejaVuSans-80"/>
     <use x="60.255859" xlink:href="#DejaVuSans-111"/>
     <use x="121.4375" xlink:href="#DejaVuSans-112"/>
     <use x="184.914062" xlink:href="#DejaVuSans-117"/>
     <use x="248.292969" xlink:href="#DejaVuSans-108"/>
     <use x="276.076172" xlink:href="#DejaVuSans-97"/>
     <use x="337.355469" xlink:href="#DejaVuSans-116"/>
     <use x="376.564453" xlink:href="#DejaVuSans-105"/>
     <use x="404.347656" xlink:href="#DejaVuSans-111"/>
     <use x="465.529297" xlink:href="#DejaVuSans-110"/>
     <use x="528.908203" xlink:href="#DejaVuSans-39"/>
     <use x="556.398438" xlink:href="#DejaVuSans-115"/>
     <use x="608.498047" xlink:href="#DejaVuSans-32"/>
     <use x="640.285156" xlink:href="#DejaVuSans-97"/>
     <use x="701.564453" xlink:href="#DejaVuSans-118"/>
     <use x="760.744141" xlink:href="#DejaVuSans-101"/>
     <use x="822.267578" xlink:href="#DejaVuSans-114"/>
     <use x="863.380859" xlink:href="#DejaVuSans-97"/>
     <use x="924.660156" xlink:href="#DejaVuSans-103"/>
     <use x="988.136719" xlink:href="#DejaVuSans-101"/>
     <use x="1049.660156" xlink:href="#DejaVuSans-32"/>
     <use x="1081.447266" xlink:href="#DejaVuSans-97"/>
     <use x="1142.726562" xlink:href="#DejaVuSans-110"/>
     <use x="1206.105469" xlink:href="#DejaVuSans-100"/>
     <use x="1269.582031" xlink:href="#DejaVuSans-32"/>
     <use x="1301.369141" xlink:href="#DejaVuSans-98"/>
     <use x="1364.845703" xlink:href="#DejaVuSans-101"/>
     <use x="1426.369141" xlink:href="#DejaVuSans-115"/>
     <use x="1478.46875" xlink:href="#DejaVuSans-116"/>
     <use x="1517.677734" xlink:href="#DejaVuSans-32"/>
     <use x="1549.464844" xlink:href="#DejaVuSans-102"/>
     <use x="1584.669922" xlink:href="#DejaVuSans-105"/>
     <use x="1612.453125" xlink:href="#DejaVuSans-116"/>
     <use x="1651.662109" xlink:href="#DejaVuSans-110"/>
     <use x="1715.041016" xlink:href="#DejaVuSans-101"/>
     <use x="1776.564453" xlink:href="#DejaVuSans-115"/>
     <use x="1828.664062" xlink:href="#DejaVuSans-115"/>
    </g>
   </g>
   <g id="legend_1">
    <g id="patch_7">
     <path d="M 334.779375 302.584 
L 407.72 302.584 
Q 409.72 302.584 409.72 300.584 
L 409.72 242.8715 
Q 409.72 240.8715 407.72 240.8715 
L 334.779375 240.8715 
Q 332.779375 240.8715 332.779375 242.8715 
L 332.779375 300.584 
Q 332.779375 302.584 334.779375 302.584 
z
" style="fill:#ffffff;opacity:0.8;stroke:#cccccc;stroke-linejoin:miter;"/>
    </g>
    <g id="line2d_37">
     <path d="M 336.779375 248.969937 
L 356.779375 248.969937 
" style="fill:none;stroke:#0000ff;stroke-linecap:square;stroke-width:1.5;"/>
    </g>
    <g id="line2d_38"/>
    <g id="text_20">
     <!-- average -->
     <g transform="translate(364.779375 252.469937)scale(0.1 -0.1)">
      <use xlink:href="#DejaVuSans-97"/>
      <use x="61.279297" xlink:href="#DejaVuSans-118"/>
      <use x="120.458984" xlink:href="#DejaVuSans-101"/>
      <use x="181.982422" xlink:href="#DejaVuSans-114"/>
      <use x="223.095703" xlink:href="#DejaVuSans-97"/>
      <use x="284.375" xlink:href="#DejaVuSans-103"/>
      <use x="347.851562" xlink:href="#DejaVuSans-101"/>
     </g>
    </g>
    <g id="line2d_39">
     <path d="M 336.779375 263.648062 
L 356.779375 263.648062 
" style="fill:none;stroke:#008000;stroke-dasharray:9.6,2.4,1.5,2.4;stroke-dashoffset:0;stroke-width:1.5;"/>
    </g>
    <g id="line2d_40"/>
    <g id="text_21">
     <!-- -1 sd -->
     <defs>
      <path d="M 4.890625 31.390625 
L 31.203125 31.390625 
L 31.203125 23.390625 
L 4.890625 23.390625 
z
" id="DejaVuSans-45"/>
     </defs>
     <g transform="translate(364.779375 267.148062)scale(0.1 -0.1)">
      <use xlink:href="#DejaVuSans-45"/>
      <use x="36.083984" xlink:href="#DejaVuSans-49"/>
      <use x="99.707031" xlink:href="#DejaVuSans-32"/>
      <use x="131.494141" xlink:href="#DejaVuSans-115"/>
      <use x="183.59375" xlink:href="#DejaVuSans-100"/>
     </g>
    </g>
    <g id="line2d_41">
     <path d="M 336.779375 278.326187 
L 356.779375 278.326187 
" style="fill:none;stroke:#008000;stroke-dasharray:9.6,2.4,1.5,2.4;stroke-dashoffset:0;stroke-width:1.5;"/>
    </g>
    <g id="line2d_42"/>
    <g id="text_22">
     <!-- +1 sd -->
     <defs>
      <path d="M 46 62.703125 
L 46 35.5 
L 73.1875 35.5 
L 73.1875 27.203125 
L 46 27.203125 
L 46 0 
L 37.796875 0 
L 37.796875 27.203125 
L 10.59375 27.203125 
L 10.59375 35.5 
L 37.796875 35.5 
L 37.796875 62.703125 
z
" id="DejaVuSans-43"/>
     </defs>
     <g transform="translate(364.779375 281.826187)scale(0.1 -0.1)">
      <use xlink:href="#DejaVuSans-43"/>
      <use x="83.789062" xlink:href="#DejaVuSans-49"/>
      <use x="147.412109" xlink:href="#DejaVuSans-32"/>
      <use x="179.199219" xlink:href="#DejaVuSans-115"/>
      <use x="231.298828" xlink:href="#DejaVuSans-100"/>
     </g>
    </g>
    <g id="line2d_43">
     <path d="M 336.779375 293.004312 
L 356.779375 293.004312 
" style="fill:none;stroke:#ff0000;stroke-linecap:square;stroke-width:1.5;"/>
    </g>
    <g id="line2d_44"/>
    <g id="text_23">
     <!-- best -->
     <g transform="translate(364.779375 296.504312)scale(0.1 -0.1)">
      <use xlink:href="#DejaVuSans-98"/>
      <use x="63.476562" xlink:href="#DejaVuSans-101"/>
      <use x="125" xlink:href="#DejaVuSans-115"/>
      <use x="177.099609" xlink:href="#DejaVuSans-116"/>
     </g>
    </g>
   </g>
  </g>
 </g>
 <defs>
  <clipPath id="pdddce39b23">
   <rect height="266.112" width="357.12" x="57.6" y="41.472"/>
  </clipPath>
 </defs>
</svg>
