<?xml version="1.0" encoding="utf-8" standalone="no"?>
<!DOCTYPE svg PUBLIC "-//W3C//DTD SVG 1.1//EN"
  "http://www.w3.org/Graphics/SVG/1.1/DTD/svg11.dtd">
<!-- Created with matplotlib (https://matplotlib.org/) -->
<svg height="345.6pt" version="1.1" viewBox="0 0 460.8 345.6" width="460.8pt" xmlns="http://www.w3.org/2000/svg" xmlns:xlink="http://www.w3.org/1999/xlink">
 <defs>
  <style type="text/css">
*{stroke-linecap:butt;stroke-linejoin:round;}
  </style>
 </defs>
 <g id="figure_1">
  <g id="patch_1">
   <path d="M 0 345.6 
L 460.8 345.6 
L 460.8 0 
L 0 0 
z
" style="fill:#ffffff;"/>
  </g>
  <g id="axes_1">
   <g id="patch_2">
    <path d="M 57.6 307.584 
L 414.72 307.584 
L 414.72 41.472 
L 57.6 41.472 
z
" style="fill:#ffffff;"/>
   </g>
   <g id="matplotlib.axis_1">
    <g id="xtick_1">
     <g id="line2d_1">
      <path clip-path="url(#p0e3c0295b2)" d="M 73.832727 307.584 
L 73.832727 41.472 
" style="fill:none;stroke:#b0b0b0;stroke-linecap:square;stroke-width:0.8;"/>
     </g>
     <g id="line2d_2">
      <defs>
       <path d="M 0 0 
L 0 3.5 
" id="m34a451d706" style="stroke:#000000;stroke-width:0.8;"/>
      </defs>
      <g>
       <use style="stroke:#000000;stroke-width:0.8;" x="73.832727" xlink:href="#m34a451d706" y="307.584"/>
      </g>
     </g>
     <g id="text_1">
      <!-- 0 -->
      <defs>
       <path d="M 31.78125 66.40625 
Q 24.171875 66.40625 20.328125 58.90625 
Q 16.5 51.421875 16.5 36.375 
Q 16.5 21.390625 20.328125 13.890625 
Q 24.171875 6.390625 31.78125 6.390625 
Q 39.453125 6.390625 43.28125 13.890625 
Q 47.125 21.390625 47.125 36.375 
Q 47.125 51.421875 43.28125 58.90625 
Q 39.453125 66.40625 31.78125 66.40625 
z
M 31.78125 74.21875 
Q 44.046875 74.21875 50.515625 64.515625 
Q 56.984375 54.828125 56.984375 36.375 
Q 56.984375 17.96875 50.515625 8.265625 
Q 44.046875 -1.421875 31.78125 -1.421875 
Q 19.53125 -1.421875 13.0625 8.265625 
Q 6.59375 17.96875 6.59375 36.375 
Q 6.59375 54.828125 13.0625 64.515625 
Q 19.53125 74.21875 31.78125 74.21875 
z
" id="DejaVuSans-48"/>
      </defs>
      <g transform="translate(70.651477 322.182437)scale(0.1 -0.1)">
       <use xlink:href="#DejaVuSans-48"/>
      </g>
     </g>
    </g>
    <g id="xtick_2">
     <g id="line2d_3">
      <path clip-path="url(#p0e3c0295b2)" d="M 128.122785 307.584 
L 128.122785 41.472 
" style="fill:none;stroke:#b0b0b0;stroke-linecap:square;stroke-width:0.8;"/>
     </g>
     <g id="line2d_4">
      <g>
       <use style="stroke:#000000;stroke-width:0.8;" x="128.122785" xlink:href="#m34a451d706" y="307.584"/>
      </g>
     </g>
     <g id="text_2">
      <!-- 50 -->
      <defs>
       <path d="M 10.796875 72.90625 
L 49.515625 72.90625 
L 49.515625 64.59375 
L 19.828125 64.59375 
L 19.828125 46.734375 
Q 21.96875 47.46875 24.109375 47.828125 
Q 26.265625 48.1875 28.421875 48.1875 
Q 40.625 48.1875 47.75 41.5 
Q 54.890625 34.8125 54.890625 23.390625 
Q 54.890625 11.625 47.5625 5.09375 
Q 40.234375 -1.421875 26.90625 -1.421875 
Q 22.3125 -1.421875 17.546875 -0.640625 
Q 12.796875 0.140625 7.71875 1.703125 
L 7.71875 11.625 
Q 12.109375 9.234375 16.796875 8.0625 
Q 21.484375 6.890625 26.703125 6.890625 
Q 35.15625 6.890625 40.078125 11.328125 
Q 45.015625 15.765625 45.015625 23.390625 
Q 45.015625 31 40.078125 35.4375 
Q 35.15625 39.890625 26.703125 39.890625 
Q 22.75 39.890625 18.8125 39.015625 
Q 14.890625 38.140625 10.796875 36.28125 
z
" id="DejaVuSans-53"/>
      </defs>
      <g transform="translate(121.760285 322.182437)scale(0.1 -0.1)">
       <use xlink:href="#DejaVuSans-53"/>
       <use x="63.623047" xlink:href="#DejaVuSans-48"/>
      </g>
     </g>
    </g>
    <g id="xtick_3">
     <g id="line2d_5">
      <path clip-path="url(#p0e3c0295b2)" d="M 182.412843 307.584 
L 182.412843 41.472 
" style="fill:none;stroke:#b0b0b0;stroke-linecap:square;stroke-width:0.8;"/>
     </g>
     <g id="line2d_6">
      <g>
       <use style="stroke:#000000;stroke-width:0.8;" x="182.412843" xlink:href="#m34a451d706" y="307.584"/>
      </g>
     </g>
     <g id="text_3">
      <!-- 100 -->
      <defs>
       <path d="M 12.40625 8.296875 
L 28.515625 8.296875 
L 28.515625 63.921875 
L 10.984375 60.40625 
L 10.984375 69.390625 
L 28.421875 72.90625 
L 38.28125 72.90625 
L 38.28125 8.296875 
L 54.390625 8.296875 
L 54.390625 0 
L 12.40625 0 
z
" id="DejaVuSans-49"/>
      </defs>
      <g transform="translate(172.869093 322.182437)scale(0.1 -0.1)">
       <use xlink:href="#DejaVuSans-49"/>
       <use x="63.623047" xlink:href="#DejaVuSans-48"/>
       <use x="127.246094" xlink:href="#DejaVuSans-48"/>
      </g>
     </g>
    </g>
    <g id="xtick_4">
     <g id="line2d_7">
      <path clip-path="url(#p0e3c0295b2)" d="M 236.702901 307.584 
L 236.702901 41.472 
" style="fill:none;stroke:#b0b0b0;stroke-linecap:square;stroke-width:0.8;"/>
     </g>
     <g id="line2d_8">
      <g>
       <use style="stroke:#000000;stroke-width:0.8;" x="236.702901" xlink:href="#m34a451d706" y="307.584"/>
      </g>
     </g>
     <g id="text_4">
      <!-- 150 -->
      <g transform="translate(227.159151 322.182437)scale(0.1 -0.1)">
       <use xlink:href="#DejaVuSans-49"/>
       <use x="63.623047" xlink:href="#DejaVuSans-53"/>
       <use x="127.246094" xlink:href="#DejaVuSans-48"/>
      </g>
     </g>
    </g>
    <g id="xtick_5">
     <g id="line2d_9">
      <path clip-path="url(#p0e3c0295b2)" d="M 290.992958 307.584 
L 290.992958 41.472 
" style="fill:none;stroke:#b0b0b0;stroke-linecap:square;stroke-width:0.8;"/>
     </g>
     <g id="line2d_10">
      <g>
       <use style="stroke:#000000;stroke-width:0.8;" x="290.992958" xlink:href="#m34a451d706" y="307.584"/>
      </g>
     </g>
     <g id="text_5">
      <!-- 200 -->
      <defs>
       <path d="M 19.1875 8.296875 
L 53.609375 8.296875 
L 53.609375 0 
L 7.328125 0 
L 7.328125 8.296875 
Q 12.9375 14.109375 22.625 23.890625 
Q 32.328125 33.6875 34.8125 36.53125 
Q 39.546875 41.84375 41.421875 45.53125 
Q 43.3125 49.21875 43.3125 52.78125 
Q 43.3125 58.59375 39.234375 62.25 
Q 35.15625 65.921875 28.609375 65.921875 
Q 23.96875 65.921875 18.8125 64.3125 
Q 13.671875 62.703125 7.8125 59.421875 
L 7.8125 69.390625 
Q 13.765625 71.78125 18.9375 73 
Q 24.125 74.21875 28.421875 74.21875 
Q 39.75 74.21875 46.484375 68.546875 
Q 53.21875 62.890625 53.21875 53.421875 
Q 53.21875 48.921875 51.53125 44.890625 
Q 49.859375 40.875 45.40625 35.40625 
Q 44.1875 33.984375 37.640625 27.21875 
Q 31.109375 20.453125 19.1875 8.296875 
z
" id="DejaVuSans-50"/>
      </defs>
      <g transform="translate(281.449208 322.182437)scale(0.1 -0.1)">
       <use xlink:href="#DejaVuSans-50"/>
       <use x="63.623047" xlink:href="#DejaVuSans-48"/>
       <use x="127.246094" xlink:href="#DejaVuSans-48"/>
      </g>
     </g>
    </g>
    <g id="xtick_6">
     <g id="line2d_11">
      <path clip-path="url(#p0e3c0295b2)" d="M 345.283016 307.584 
L 345.283016 41.472 
" style="fill:none;stroke:#b0b0b0;stroke-linecap:square;stroke-width:0.8;"/>
     </g>
     <g id="line2d_12">
      <g>
       <use style="stroke:#000000;stroke-width:0.8;" x="345.283016" xlink:href="#m34a451d706" y="307.584"/>
      </g>
     </g>
     <g id="text_6">
      <!-- 250 -->
      <g transform="translate(335.739266 322.182437)scale(0.1 -0.1)">
       <use xlink:href="#DejaVuSans-50"/>
       <use x="63.623047" xlink:href="#DejaVuSans-53"/>
       <use x="127.246094" xlink:href="#DejaVuSans-48"/>
      </g>
     </g>
    </g>
    <g id="xtick_7">
     <g id="line2d_13">
      <path clip-path="url(#p0e3c0295b2)" d="M 399.573074 307.584 
L 399.573074 41.472 
" style="fill:none;stroke:#b0b0b0;stroke-linecap:square;stroke-width:0.8;"/>
     </g>
     <g id="line2d_14">
      <g>
       <use style="stroke:#000000;stroke-width:0.8;" x="399.573074" xlink:href="#m34a451d706" y="307.584"/>
      </g>
     </g>
     <g id="text_7">
      <!-- 300 -->
      <defs>
       <path d="M 40.578125 39.3125 
Q 47.65625 37.796875 51.625 33 
Q 55.609375 28.21875 55.609375 21.1875 
Q 55.609375 10.40625 48.1875 4.484375 
Q 40.765625 -1.421875 27.09375 -1.421875 
Q 22.515625 -1.421875 17.65625 -0.515625 
Q 12.796875 0.390625 7.625 2.203125 
L 7.625 11.71875 
Q 11.71875 9.328125 16.59375 8.109375 
Q 21.484375 6.890625 26.8125 6.890625 
Q 36.078125 6.890625 40.9375 10.546875 
Q 45.796875 14.203125 45.796875 21.1875 
Q 45.796875 27.640625 41.28125 31.265625 
Q 36.765625 34.90625 28.71875 34.90625 
L 20.21875 34.90625 
L 20.21875 43.015625 
L 29.109375 43.015625 
Q 36.375 43.015625 40.234375 45.921875 
Q 44.09375 48.828125 44.09375 54.296875 
Q 44.09375 59.90625 40.109375 62.90625 
Q 36.140625 65.921875 28.71875 65.921875 
Q 24.65625 65.921875 20.015625 65.03125 
Q 15.375 64.15625 9.8125 62.3125 
L 9.8125 71.09375 
Q 15.4375 72.65625 20.34375 73.4375 
Q 25.25 74.21875 29.59375 74.21875 
Q 40.828125 74.21875 47.359375 69.109375 
Q 53.90625 64.015625 53.90625 55.328125 
Q 53.90625 49.265625 50.4375 45.09375 
Q 46.96875 40.921875 40.578125 39.3125 
z
" id="DejaVuSans-51"/>
      </defs>
      <g transform="translate(390.029324 322.182437)scale(0.1 -0.1)">
       <use xlink:href="#DejaVuSans-51"/>
       <use x="63.623047" xlink:href="#DejaVuSans-48"/>
       <use x="127.246094" xlink:href="#DejaVuSans-48"/>
      </g>
     </g>
    </g>
    <g id="text_8">
     <!-- Generations -->
     <defs>
      <path d="M 59.515625 10.40625 
L 59.515625 29.984375 
L 43.40625 29.984375 
L 43.40625 38.09375 
L 69.28125 38.09375 
L 69.28125 6.78125 
Q 63.578125 2.734375 56.6875 0.65625 
Q 49.8125 -1.421875 42 -1.421875 
Q 24.90625 -1.421875 15.25 8.5625 
Q 5.609375 18.5625 5.609375 36.375 
Q 5.609375 54.25 15.25 64.234375 
Q 24.90625 74.21875 42 74.21875 
Q 49.125 74.21875 55.546875 72.453125 
Q 61.96875 70.703125 67.390625 67.28125 
L 67.390625 56.78125 
Q 61.921875 61.421875 55.765625 63.765625 
Q 49.609375 66.109375 42.828125 66.109375 
Q 29.4375 66.109375 22.71875 58.640625 
Q 16.015625 51.171875 16.015625 36.375 
Q 16.015625 21.625 22.71875 14.15625 
Q 29.4375 6.6875 42.828125 6.6875 
Q 48.046875 6.6875 52.140625 7.59375 
Q 56.25 8.5 59.515625 10.40625 
z
" id="DejaVuSans-71"/>
      <path d="M 56.203125 29.59375 
L 56.203125 25.203125 
L 14.890625 25.203125 
Q 15.484375 15.921875 20.484375 11.0625 
Q 25.484375 6.203125 34.421875 6.203125 
Q 39.59375 6.203125 44.453125 7.46875 
Q 49.3125 8.734375 54.109375 11.28125 
L 54.109375 2.78125 
Q 49.265625 0.734375 44.1875 -0.34375 
Q 39.109375 -1.421875 33.890625 -1.421875 
Q 20.796875 -1.421875 13.15625 6.1875 
Q 5.515625 13.8125 5.515625 26.8125 
Q 5.515625 40.234375 12.765625 48.109375 
Q 20.015625 56 32.328125 56 
Q 43.359375 56 49.78125 48.890625 
Q 56.203125 41.796875 56.203125 29.59375 
z
M 47.21875 32.234375 
Q 47.125 39.59375 43.09375 43.984375 
Q 39.0625 48.390625 32.421875 48.390625 
Q 24.90625 48.390625 20.390625 44.140625 
Q 15.875 39.890625 15.1875 32.171875 
z
" id="DejaVuSans-101"/>
      <path d="M 54.890625 33.015625 
L 54.890625 0 
L 45.90625 0 
L 45.90625 32.71875 
Q 45.90625 40.484375 42.875 44.328125 
Q 39.84375 48.1875 33.796875 48.1875 
Q 26.515625 48.1875 22.3125 43.546875 
Q 18.109375 38.921875 18.109375 30.90625 
L 18.109375 0 
L 9.078125 0 
L 9.078125 54.6875 
L 18.109375 54.6875 
L 18.109375 46.1875 
Q 21.34375 51.125 25.703125 53.5625 
Q 30.078125 56 35.796875 56 
Q 45.21875 56 50.046875 50.171875 
Q 54.890625 44.34375 54.890625 33.015625 
z
" id="DejaVuSans-110"/>
      <path d="M 41.109375 46.296875 
Q 39.59375 47.171875 37.8125 47.578125 
Q 36.03125 48 33.890625 48 
Q 26.265625 48 22.1875 43.046875 
Q 18.109375 38.09375 18.109375 28.8125 
L 18.109375 0 
L 9.078125 0 
L 9.078125 54.6875 
L 18.109375 54.6875 
L 18.109375 46.1875 
Q 20.953125 51.171875 25.484375 53.578125 
Q 30.03125 56 36.53125 56 
Q 37.453125 56 38.578125 55.875 
Q 39.703125 55.765625 41.0625 55.515625 
z
" id="DejaVuSans-114"/>
      <path d="M 34.28125 27.484375 
Q 23.390625 27.484375 19.1875 25 
Q 14.984375 22.515625 14.984375 16.5 
Q 14.984375 11.71875 18.140625 8.90625 
Q 21.296875 6.109375 26.703125 6.109375 
Q 34.1875 6.109375 38.703125 11.40625 
Q 43.21875 16.703125 43.21875 25.484375 
L 43.21875 27.484375 
z
M 52.203125 31.203125 
L 52.203125 0 
L 43.21875 0 
L 43.21875 8.296875 
Q 40.140625 3.328125 35.546875 0.953125 
Q 30.953125 -1.421875 24.3125 -1.421875 
Q 15.921875 -1.421875 10.953125 3.296875 
Q 6 8.015625 6 15.921875 
Q 6 25.140625 12.171875 29.828125 
Q 18.359375 34.515625 30.609375 34.515625 
L 43.21875 34.515625 
L 43.21875 35.40625 
Q 43.21875 41.609375 39.140625 45 
Q 35.0625 48.390625 27.6875 48.390625 
Q 23 48.390625 18.546875 47.265625 
Q 14.109375 46.140625 10.015625 43.890625 
L 10.015625 52.203125 
Q 14.9375 54.109375 19.578125 55.046875 
Q 24.21875 56 28.609375 56 
Q 40.484375 56 46.34375 49.84375 
Q 52.203125 43.703125 52.203125 31.203125 
z
" id="DejaVuSans-97"/>
      <path d="M 18.3125 70.21875 
L 18.3125 54.6875 
L 36.8125 54.6875 
L 36.8125 47.703125 
L 18.3125 47.703125 
L 18.3125 18.015625 
Q 18.3125 11.328125 20.140625 9.421875 
Q 21.96875 7.515625 27.59375 7.515625 
L 36.8125 7.515625 
L 36.8125 0 
L 27.59375 0 
Q 17.1875 0 13.234375 3.875 
Q 9.28125 7.765625 9.28125 18.015625 
L 9.28125 47.703125 
L 2.6875 47.703125 
L 2.6875 54.6875 
L 9.28125 54.6875 
L 9.28125 70.21875 
z
" id="DejaVuSans-116"/>
      <path d="M 9.421875 54.6875 
L 18.40625 54.6875 
L 18.40625 0 
L 9.421875 0 
z
M 9.421875 75.984375 
L 18.40625 75.984375 
L 18.40625 64.59375 
L 9.421875 64.59375 
z
" id="DejaVuSans-105"/>
      <path d="M 30.609375 48.390625 
Q 23.390625 48.390625 19.1875 42.75 
Q 14.984375 37.109375 14.984375 27.296875 
Q 14.984375 17.484375 19.15625 11.84375 
Q 23.34375 6.203125 30.609375 6.203125 
Q 37.796875 6.203125 41.984375 11.859375 
Q 46.1875 17.53125 46.1875 27.296875 
Q 46.1875 37.015625 41.984375 42.703125 
Q 37.796875 48.390625 30.609375 48.390625 
z
M 30.609375 56 
Q 42.328125 56 49.015625 48.375 
Q 55.71875 40.765625 55.71875 27.296875 
Q 55.71875 13.875 49.015625 6.21875 
Q 42.328125 -1.421875 30.609375 -1.421875 
Q 18.84375 -1.421875 12.171875 6.21875 
Q 5.515625 13.875 5.515625 27.296875 
Q 5.515625 40.765625 12.171875 48.375 
Q 18.84375 56 30.609375 56 
z
" id="DejaVuSans-111"/>
      <path d="M 44.28125 53.078125 
L 44.28125 44.578125 
Q 40.484375 46.53125 36.375 47.5 
Q 32.28125 48.484375 27.875 48.484375 
Q 21.1875 48.484375 17.84375 46.4375 
Q 14.5 44.390625 14.5 40.28125 
Q 14.5 37.15625 16.890625 35.375 
Q 19.28125 33.59375 26.515625 31.984375 
L 29.59375 31.296875 
Q 39.15625 29.25 43.1875 25.515625 
Q 47.21875 21.78125 47.21875 15.09375 
Q 47.21875 7.46875 41.1875 3.015625 
Q 35.15625 -1.421875 24.609375 -1.421875 
Q 20.21875 -1.421875 15.453125 -0.5625 
Q 10.6875 0.296875 5.421875 2 
L 5.421875 11.28125 
Q 10.40625 8.6875 15.234375 7.390625 
Q 20.0625 6.109375 24.8125 6.109375 
Q 31.15625 6.109375 34.5625 8.28125 
Q 37.984375 10.453125 37.984375 14.40625 
Q 37.984375 18.0625 35.515625 20.015625 
Q 33.0625 21.96875 24.703125 23.78125 
L 21.578125 24.515625 
Q 13.234375 26.265625 9.515625 29.90625 
Q 5.8125 33.546875 5.8125 39.890625 
Q 5.8125 47.609375 11.28125 51.796875 
Q 16.75 56 26.8125 56 
Q 31.78125 56 36.171875 55.265625 
Q 40.578125 54.546875 44.28125 53.078125 
z
" id="DejaVuSans-115"/>
     </defs>
     <g transform="translate(205.662344 335.860562)scale(0.1 -0.1)">
      <use xlink:href="#DejaVuSans-71"/>
      <use x="77.490234" xlink:href="#DejaVuSans-101"/>
      <use x="139.013672" xlink:href="#DejaVuSans-110"/>
      <use x="202.392578" xlink:href="#DejaVuSans-101"/>
      <use x="263.916016" xlink:href="#DejaVuSans-114"/>
      <use x="305.029297" xlink:href="#DejaVuSans-97"/>
      <use x="366.308594" xlink:href="#DejaVuSans-116"/>
      <use x="405.517578" xlink:href="#DejaVuSans-105"/>
      <use x="433.300781" xlink:href="#DejaVuSans-111"/>
      <use x="494.482422" xlink:href="#DejaVuSans-110"/>
      <use x="557.861328" xlink:href="#DejaVuSans-115"/>
     </g>
    </g>
   </g>
   <g id="matplotlib.axis_2">
    <g id="ytick_1">
     <g id="line2d_15">
      <path clip-path="url(#p0e3c0295b2)" d="M 57.6 278.99448 
L 414.72 278.99448 
" style="fill:none;stroke:#b0b0b0;stroke-linecap:square;stroke-width:0.8;"/>
     </g>
     <g id="line2d_16">
      <defs>
       <path d="M 0 0 
L -3.5 0 
" id="mbebccb4035" style="stroke:#000000;stroke-width:0.8;"/>
      </defs>
      <g>
       <use style="stroke:#000000;stroke-width:0.8;" x="57.6" xlink:href="#mbebccb4035" y="278.99448"/>
      </g>
     </g>
     <g id="text_9">
      <!-- 400 -->
      <defs>
       <path d="M 37.796875 64.3125 
L 12.890625 25.390625 
L 37.796875 25.390625 
z
M 35.203125 72.90625 
L 47.609375 72.90625 
L 47.609375 25.390625 
L 58.015625 25.390625 
L 58.015625 17.1875 
L 47.609375 17.1875 
L 47.609375 0 
L 37.796875 0 
L 37.796875 17.1875 
L 4.890625 17.1875 
L 4.890625 26.703125 
z
" id="DejaVuSans-52"/>
      </defs>
      <g transform="translate(31.5125 282.793699)scale(0.1 -0.1)">
       <use xlink:href="#DejaVuSans-52"/>
       <use x="63.623047" xlink:href="#DejaVuSans-48"/>
       <use x="127.246094" xlink:href="#DejaVuSans-48"/>
      </g>
     </g>
    </g>
    <g id="ytick_2">
     <g id="line2d_17">
      <path clip-path="url(#p0e3c0295b2)" d="M 57.6 248.23018 
L 414.72 248.23018 
" style="fill:none;stroke:#b0b0b0;stroke-linecap:square;stroke-width:0.8;"/>
     </g>
     <g id="line2d_18">
      <g>
       <use style="stroke:#000000;stroke-width:0.8;" x="57.6" xlink:href="#mbebccb4035" y="248.23018"/>
      </g>
     </g>
     <g id="text_10">
      <!-- 600 -->
      <defs>
       <path d="M 33.015625 40.375 
Q 26.375 40.375 22.484375 35.828125 
Q 18.609375 31.296875 18.609375 23.390625 
Q 18.609375 15.53125 22.484375 10.953125 
Q 26.375 6.390625 33.015625 6.390625 
Q 39.65625 6.390625 43.53125 10.953125 
Q 47.40625 15.53125 47.40625 23.390625 
Q 47.40625 31.296875 43.53125 35.828125 
Q 39.65625 40.375 33.015625 40.375 
z
M 52.59375 71.296875 
L 52.59375 62.3125 
Q 48.875 64.0625 45.09375 64.984375 
Q 41.3125 65.921875 37.59375 65.921875 
Q 27.828125 65.921875 22.671875 59.328125 
Q 17.53125 52.734375 16.796875 39.40625 
Q 19.671875 43.65625 24.015625 45.921875 
Q 28.375 48.1875 33.59375 48.1875 
Q 44.578125 48.1875 50.953125 41.515625 
Q 57.328125 34.859375 57.328125 23.390625 
Q 57.328125 12.15625 50.6875 5.359375 
Q 44.046875 -1.421875 33.015625 -1.421875 
Q 20.359375 -1.421875 13.671875 8.265625 
Q 6.984375 17.96875 6.984375 36.375 
Q 6.984375 53.65625 15.1875 63.9375 
Q 23.390625 74.21875 37.203125 74.21875 
Q 40.921875 74.21875 44.703125 73.484375 
Q 48.484375 72.75 52.59375 71.296875 
z
" id="DejaVuSans-54"/>
      </defs>
      <g transform="translate(31.5125 252.029398)scale(0.1 -0.1)">
       <use xlink:href="#DejaVuSans-54"/>
       <use x="63.623047" xlink:href="#DejaVuSans-48"/>
       <use x="127.246094" xlink:href="#DejaVuSans-48"/>
      </g>
     </g>
    </g>
    <g id="ytick_3">
     <g id="line2d_19">
      <path clip-path="url(#p0e3c0295b2)" d="M 57.6 217.465879 
L 414.72 217.465879 
" style="fill:none;stroke:#b0b0b0;stroke-linecap:square;stroke-width:0.8;"/>
     </g>
     <g id="line2d_20">
      <g>
       <use style="stroke:#000000;stroke-width:0.8;" x="57.6" xlink:href="#mbebccb4035" y="217.465879"/>
      </g>
     </g>
     <g id="text_11">
      <!-- 800 -->
      <defs>
       <path d="M 31.78125 34.625 
Q 24.75 34.625 20.71875 30.859375 
Q 16.703125 27.09375 16.703125 20.515625 
Q 16.703125 13.921875 20.71875 10.15625 
Q 24.75 6.390625 31.78125 6.390625 
Q 38.8125 6.390625 42.859375 10.171875 
Q 46.921875 13.96875 46.921875 20.515625 
Q 46.921875 27.09375 42.890625 30.859375 
Q 38.875 34.625 31.78125 34.625 
z
M 21.921875 38.8125 
Q 15.578125 40.375 12.03125 44.71875 
Q 8.5 49.078125 8.5 55.328125 
Q 8.5 64.0625 14.71875 69.140625 
Q 20.953125 74.21875 31.78125 74.21875 
Q 42.671875 74.21875 48.875 69.140625 
Q 55.078125 64.0625 55.078125 55.328125 
Q 55.078125 49.078125 51.53125 44.71875 
Q 48 40.375 41.703125 38.8125 
Q 48.828125 37.15625 52.796875 32.3125 
Q 56.78125 27.484375 56.78125 20.515625 
Q 56.78125 9.90625 50.3125 4.234375 
Q 43.84375 -1.421875 31.78125 -1.421875 
Q 19.734375 -1.421875 13.25 4.234375 
Q 6.78125 9.90625 6.78125 20.515625 
Q 6.78125 27.484375 10.78125 32.3125 
Q 14.796875 37.15625 21.921875 38.8125 
z
M 18.3125 54.390625 
Q 18.3125 48.734375 21.84375 45.5625 
Q 25.390625 42.390625 31.78125 42.390625 
Q 38.140625 42.390625 41.71875 45.5625 
Q 45.3125 48.734375 45.3125 54.390625 
Q 45.3125 60.0625 41.71875 63.234375 
Q 38.140625 66.40625 31.78125 66.40625 
Q 25.390625 66.40625 21.84375 63.234375 
Q 18.3125 60.0625 18.3125 54.390625 
z
" id="DejaVuSans-56"/>
      </defs>
      <g transform="translate(31.5125 221.265098)scale(0.1 -0.1)">
       <use xlink:href="#DejaVuSans-56"/>
       <use x="63.623047" xlink:href="#DejaVuSans-48"/>
       <use x="127.246094" xlink:href="#DejaVuSans-48"/>
      </g>
     </g>
    </g>
    <g id="ytick_4">
     <g id="line2d_21">
      <path clip-path="url(#p0e3c0295b2)" d="M 57.6 186.701579 
L 414.72 186.701579 
" style="fill:none;stroke:#b0b0b0;stroke-linecap:square;stroke-width:0.8;"/>
     </g>
     <g id="line2d_22">
      <g>
       <use style="stroke:#000000;stroke-width:0.8;" x="57.6" xlink:href="#mbebccb4035" y="186.701579"/>
      </g>
     </g>
     <g id="text_12">
      <!-- 1000 -->
      <g transform="translate(25.15 190.500797)scale(0.1 -0.1)">
       <use xlink:href="#DejaVuSans-49"/>
       <use x="63.623047" xlink:href="#DejaVuSans-48"/>
       <use x="127.246094" xlink:href="#DejaVuSans-48"/>
       <use x="190.869141" xlink:href="#DejaVuSans-48"/>
      </g>
     </g>
    </g>
    <g id="ytick_5">
     <g id="line2d_23">
      <path clip-path="url(#p0e3c0295b2)" d="M 57.6 155.937278 
L 414.72 155.937278 
" style="fill:none;stroke:#b0b0b0;stroke-linecap:square;stroke-width:0.8;"/>
     </g>
     <g id="line2d_24">
      <g>
       <use style="stroke:#000000;stroke-width:0.8;" x="57.6" xlink:href="#mbebccb4035" y="155.937278"/>
      </g>
     </g>
     <g id="text_13">
      <!-- 1200 -->
      <g transform="translate(25.15 159.736497)scale(0.1 -0.1)">
       <use xlink:href="#DejaVuSans-49"/>
       <use x="63.623047" xlink:href="#DejaVuSans-50"/>
       <use x="127.246094" xlink:href="#DejaVuSans-48"/>
       <use x="190.869141" xlink:href="#DejaVuSans-48"/>
      </g>
     </g>
    </g>
    <g id="ytick_6">
     <g id="line2d_25">
      <path clip-path="url(#p0e3c0295b2)" d="M 57.6 125.172978 
L 414.72 125.172978 
" style="fill:none;stroke:#b0b0b0;stroke-linecap:square;stroke-width:0.8;"/>
     </g>
     <g id="line2d_26">
      <g>
       <use style="stroke:#000000;stroke-width:0.8;" x="57.6" xlink:href="#mbebccb4035" y="125.172978"/>
      </g>
     </g>
     <g id="text_14">
      <!-- 1400 -->
      <g transform="translate(25.15 128.972196)scale(0.1 -0.1)">
       <use xlink:href="#DejaVuSans-49"/>
       <use x="63.623047" xlink:href="#DejaVuSans-52"/>
       <use x="127.246094" xlink:href="#DejaVuSans-48"/>
       <use x="190.869141" xlink:href="#DejaVuSans-48"/>
      </g>
     </g>
    </g>
    <g id="ytick_7">
     <g id="line2d_27">
      <path clip-path="url(#p0e3c0295b2)" d="M 57.6 94.408677 
L 414.72 94.408677 
" style="fill:none;stroke:#b0b0b0;stroke-linecap:square;stroke-width:0.8;"/>
     </g>
     <g id="line2d_28">
      <g>
       <use style="stroke:#000000;stroke-width:0.8;" x="57.6" xlink:href="#mbebccb4035" y="94.408677"/>
      </g>
     </g>
     <g id="text_15">
      <!-- 1600 -->
      <g transform="translate(25.15 98.207896)scale(0.1 -0.1)">
       <use xlink:href="#DejaVuSans-49"/>
       <use x="63.623047" xlink:href="#DejaVuSans-54"/>
       <use x="127.246094" xlink:href="#DejaVuSans-48"/>
       <use x="190.869141" xlink:href="#DejaVuSans-48"/>
      </g>
     </g>
    </g>
    <g id="ytick_8">
     <g id="line2d_29">
      <path clip-path="url(#p0e3c0295b2)" d="M 57.6 63.644377 
L 414.72 63.644377 
" style="fill:none;stroke:#b0b0b0;stroke-linecap:square;stroke-width:0.8;"/>
     </g>
     <g id="line2d_30">
      <g>
       <use style="stroke:#000000;stroke-width:0.8;" x="57.6" xlink:href="#mbebccb4035" y="63.644377"/>
      </g>
     </g>
     <g id="text_16">
      <!-- 1800 -->
      <g transform="translate(25.15 67.443595)scale(0.1 -0.1)">
       <use xlink:href="#DejaVuSans-49"/>
       <use x="63.623047" xlink:href="#DejaVuSans-56"/>
       <use x="127.246094" xlink:href="#DejaVuSans-48"/>
       <use x="190.869141" xlink:href="#DejaVuSans-48"/>
      </g>
     </g>
    </g>
    <g id="text_17">
     <!-- Fitness -->
     <defs>
      <path d="M 9.8125 72.90625 
L 51.703125 72.90625 
L 51.703125 64.59375 
L 19.671875 64.59375 
L 19.671875 43.109375 
L 48.578125 43.109375 
L 48.578125 34.8125 
L 19.671875 34.8125 
L 19.671875 0 
L 9.8125 0 
z
" id="DejaVuSans-70"/>
     </defs>
     <g transform="translate(19.070312 192.202219)rotate(-90)scale(0.1 -0.1)">
      <use xlink:href="#DejaVuSans-70"/>
      <use x="57.410156" xlink:href="#DejaVuSans-105"/>
      <use x="85.193359" xlink:href="#DejaVuSans-116"/>
      <use x="124.402344" xlink:href="#DejaVuSans-110"/>
      <use x="187.78125" xlink:href="#DejaVuSans-101"/>
      <use x="249.304688" xlink:href="#DejaVuSans-115"/>
      <use x="301.404297" xlink:href="#DejaVuSans-115"/>
     </g>
    </g>
   </g>
   <g id="line2d_31">
    <path clip-path="url(#p0e3c0295b2)" d="M 73.832727 265.715199 
L 74.918528 185.200829 
L 76.00433 182.718829 
L 77.090131 189.154601 
L 78.175932 208.98618 
L 79.261733 191.42733 
L 80.347534 186.977354 
L 81.433335 166.697064 
L 82.519137 206.646257 
L 83.604938 167.078972 
L 84.690739 171.631884 
L 85.77654 171.151477 
L 86.862341 184.84961 
L 87.948142 178.139302 
L 89.033943 169.118648 
L 90.119745 171.708619 
L 91.205546 159.299286 
L 92.291347 174.760895 
L 93.377148 157.755074 
L 94.462949 163.956911 
L 95.54875 150.562957 
L 96.634552 164.904364 
L 97.720353 158.520219 
L 98.806154 154.664307 
L 99.891955 151.804719 
L 100.977756 140.490786 
L 102.063557 148.915003 
L 103.149358 143.948648 
L 104.23516 157.217897 
L 105.320961 152.571 
L 106.406762 154.134072 
L 107.492563 172.506144 
L 108.578364 155.660523 
L 109.664165 164.223322 
L 110.749967 162.561957 
L 111.835768 142.797602 
L 112.921569 144.901324 
L 114.00737 176.452945 
L 115.093171 149.986338 
L 116.178972 164.344199 
L 117.264773 185.22664 
L 118.350575 185.507737 
L 119.436376 189.338118 
L 120.522177 183.336991 
L 121.607978 183.017248 
L 122.693779 214.022848 
L 123.77958 203.30233 
L 124.865382 210.383446 
L 125.951183 188.042479 
L 127.036984 184.914784 
L 128.122785 200.276524 
L 129.208586 167.511815 
L 130.294387 174.468966 
L 131.380189 202.269991 
L 132.46599 241.364032 
L 134.637592 176.520907 
L 135.723393 187.142046 
L 136.809194 191.747605 
L 137.894995 158.49666 
L 138.980797 169.106927 
L 140.066598 161.240325 
L 141.152399 174.394772 
L 142.2382 170.891073 
L 143.324001 158.696969 
L 144.409802 182.252698 
L 145.495604 179.790899 
L 146.581405 183.005682 
L 147.667206 166.114485 
L 148.753007 180.297771 
L 149.838808 188.956483 
L 150.924609 188.728938 
L 152.01041 178.386875 
L 153.096212 166.768959 
L 154.182013 186.920587 
L 155.267814 191.034086 
L 156.353615 149.746282 
L 157.439416 168.294552 
L 158.525217 183.931241 
L 159.611019 185.251324 
L 160.69682 152.605299 
L 161.782621 160.925105 
L 162.868422 158.970144 
L 163.954223 174.644828 
L 165.040024 148.348797 
L 166.125825 178.185425 
L 167.211627 151.452657 
L 168.297428 153.965967 
L 169.383229 178.957245 
L 170.46903 159.525595 
L 171.554831 154.206232 
L 172.640632 142.504447 
L 173.726434 155.537743 
L 174.812235 141.330688 
L 175.898036 168.245538 
L 176.983837 156.660001 
L 179.155439 147.641523 
L 180.24124 156.450452 
L 181.327042 161.090159 
L 182.412843 175.463864 
L 183.498644 160.163985 
L 184.584445 178.927259 
L 185.670246 142.917148 
L 186.756047 147.864918 
L 187.841849 148.579059 
L 188.92765 148.587496 
L 190.013451 162.83484 
L 191.099252 136.666567 
L 192.185053 156.998967 
L 193.270854 144.679827 
L 194.356656 139.667621 
L 195.442457 147.502921 
L 196.528258 124.645806 
L 197.614059 134.821423 
L 198.69986 163.648259 
L 199.785661 134.619861 
L 200.871462 138.518429 
L 201.957264 154.735481 
L 203.043065 147.303382 
L 204.128866 155.345908 
L 205.214667 148.543128 
L 206.300468 147.859091 
L 207.386269 158.99474 
L 208.472071 131.452965 
L 209.557872 147.033775 
L 210.643673 169.990842 
L 211.729474 150.255132 
L 212.815275 147.461884 
L 213.901076 157.765071 
L 214.986877 164.813848 
L 216.072679 146.030616 
L 217.15848 156.628832 
L 218.244281 130.796504 
L 219.330082 161.034249 
L 220.415883 144.518588 
L 221.501684 139.37293 
L 222.587486 166.088971 
L 223.673287 142.330952 
L 224.759088 151.922357 
L 225.844889 125.442404 
L 228.016491 148.274717 
L 229.102292 148.6404 
L 230.188094 137.694563 
L 231.273895 134.964572 
L 232.359696 150.093982 
L 233.445497 140.878815 
L 234.531298 155.655334 
L 235.617099 159.177012 
L 236.702901 144.77665 
L 237.788702 156.441883 
L 238.874503 144.71959 
L 239.960304 159.840615 
L 241.046105 153.802663 
L 242.131906 173.36821 
L 243.217708 156.123744 
L 244.303509 173.560417 
L 245.38931 177.141531 
L 246.475111 137.046157 
L 247.560912 154.851283 
L 248.646713 132.997569 
L 249.732514 129.488104 
L 250.818316 166.218402 
L 251.904117 150.306345 
L 252.989918 158.930409 
L 254.075719 153.505518 
L 255.16152 134.564843 
L 256.247321 161.677055 
L 257.333123 141.961122 
L 258.418924 140.103509 
L 259.504725 150.247863 
L 260.590526 158.675261 
L 261.676327 151.195611 
L 262.762128 148.558252 
L 263.847929 172.700209 
L 264.933731 154.06123 
L 266.019532 146.895777 
L 267.105333 157.52854 
L 268.191134 126.697136 
L 269.276935 133.549691 
L 270.362736 159.132344 
L 271.448538 157.211851 
L 272.534339 153.5185 
L 273.62014 171.855382 
L 274.705941 162.939885 
L 275.791742 161.561024 
L 276.877543 162.219697 
L 277.963344 157.03967 
L 279.049146 144.119521 
L 280.134947 164.027817 
L 281.220748 151.083355 
L 282.306549 160.480736 
L 283.39235 128.44973 
L 284.478151 142.693578 
L 285.563953 154.624542 
L 286.649754 148.772528 
L 287.735555 140.650797 
L 288.821356 137.730458 
L 289.907157 132.295999 
L 290.992958 160.849258 
L 292.07876 159.962828 
L 293.164561 139.970181 
L 294.250362 143.848306 
L 295.336163 142.105248 
L 296.421964 147.642027 
L 297.507765 144.106149 
L 298.593566 145.584693 
L 299.679368 151.918821 
L 300.765169 136.142321 
L 301.85097 172.463171 
L 302.936771 146.281477 
L 304.022572 144.938204 
L 305.108373 162.949279 
L 306.194175 142.979529 
L 307.279976 148.005308 
L 308.365777 144.976436 
L 309.451578 164.668536 
L 311.62318 152.262667 
L 312.708981 160.353445 
L 313.794783 148.441865 
L 314.880584 138.937059 
L 315.966385 145.643558 
L 317.052186 148.17316 
L 318.137987 149.589686 
L 319.223788 148.417757 
L 320.30959 132.976293 
L 321.395391 159.060415 
L 322.481192 149.634353 
L 323.566993 147.278202 
L 324.652794 154.850814 
L 325.738595 136.586328 
L 326.824396 158.509505 
L 327.910198 146.14261 
L 328.995999 139.102948 
L 330.0818 126.642184 
L 331.167601 140.120126 
L 332.253402 140.096253 
L 333.339203 147.690531 
L 334.425005 132.127589 
L 335.510806 150.485428 
L 336.596607 137.231151 
L 337.682408 137.485847 
L 338.768209 122.734166 
L 339.85401 121.381151 
L 340.939811 130.754009 
L 342.025613 144.638441 
L 343.111414 143.487734 
L 344.197215 134.706829 
L 345.283016 121.465778 
L 346.368817 120.899829 
L 347.454618 129.184814 
L 348.54042 129.825742 
L 349.626221 130.806952 
L 350.712022 147.394996 
L 351.797823 127.263874 
L 352.883624 116.991561 
L 353.969425 130.378679 
L 355.055227 129.224708 
L 356.141028 121.228436 
L 357.226829 132.937641 
L 358.31263 133.052886 
L 359.398431 122.777593 
L 360.484232 138.12833 
L 361.570033 128.875271 
L 362.655835 116.659691 
L 363.741636 117.397806 
L 364.827437 126.633712 
L 365.913238 126.827918 
L 366.999039 111.911534 
L 368.08484 128.210538 
L 369.170642 123.547361 
L 370.256443 120.942412 
L 371.342244 126.016714 
L 372.428045 138.405729 
L 373.513846 124.601645 
L 374.599647 118.926747 
L 375.685448 116.032244 
L 376.77125 97.986672 
L 377.857051 94.894583 
L 378.942852 105.502265 
L 380.028653 99.042863 
L 381.114454 110.385099 
L 382.200255 125.002937 
L 383.286057 111.819645 
L 384.371858 103.407216 
L 385.457659 111.092203 
L 386.54346 106.783607 
L 387.629261 115.61586 
L 388.715062 105.262598 
L 389.800863 108.883012 
L 390.886665 127.218561 
L 391.972466 102.073676 
L 393.058267 112.402704 
L 394.144068 99.199343 
L 395.229869 105.239369 
L 396.31567 99.812167 
L 397.401472 104.130847 
L 398.487273 106.407472 
L 398.487273 106.407472 
" style="fill:none;stroke:#0000ff;stroke-linecap:square;stroke-width:1.5;"/>
   </g>
   <g id="line2d_32">
    <path clip-path="url(#p0e3c0295b2)" d="M 73.832727 268.248596 
L 74.918528 192.996101 
L 76.00433 194.350765 
L 77.090131 206.319428 
L 78.175932 230.490033 
L 79.261733 203.342278 
L 80.347534 196.700298 
L 81.433335 185.489185 
L 82.519137 237.806212 
L 83.604938 191.324981 
L 84.690739 200.568929 
L 85.77654 199.890834 
L 86.862341 208.452438 
L 89.033943 181.042828 
L 90.119745 182.946135 
L 91.205546 176.997152 
L 92.291347 190.5882 
L 93.377148 174.761089 
L 94.462949 192.703939 
L 95.54875 171.28526 
L 96.634552 198.087507 
L 97.720353 174.675739 
L 98.806154 183.800291 
L 99.891955 179.313257 
L 100.977756 168.972971 
L 102.063557 177.129371 
L 103.149358 163.537633 
L 104.23516 186.024641 
L 105.320961 176.252429 
L 106.406762 181.188149 
L 107.492563 198.330705 
L 108.578364 173.694725 
L 109.664165 190.563681 
L 110.749967 195.879678 
L 111.835768 168.278836 
L 112.921569 160.778145 
L 114.00737 211.166775 
L 115.093171 171.038584 
L 116.178972 183.835149 
L 117.264773 203.281735 
L 118.350575 207.177101 
L 119.436376 209.356583 
L 120.522177 205.587899 
L 121.607978 203.455064 
L 122.693779 240.475583 
L 123.77958 216.990123 
L 124.865382 239.173907 
L 125.951183 215.515602 
L 127.036984 204.854786 
L 128.122785 237.83143 
L 129.208586 199.267433 
L 130.294387 216.15003 
L 131.380189 238.360193 
L 132.46599 295.488 
L 133.551791 243.305578 
L 134.637592 222.040527 
L 135.723393 225.253773 
L 136.809194 234.284731 
L 137.894995 193.334238 
L 138.980797 209.15725 
L 140.066598 211.079973 
L 141.152399 224.515293 
L 142.2382 225.57975 
L 143.324001 210.42531 
L 144.409802 253.105364 
L 145.495604 237.158187 
L 146.581405 252.005412 
L 147.667206 240.651532 
L 148.753007 258.789008 
L 149.838808 257.288458 
L 150.924609 264.470831 
L 152.01041 256.154827 
L 153.096212 218.044191 
L 154.182013 247.994735 
L 155.267814 258.832786 
L 156.353615 196.545719 
L 157.439416 233.423481 
L 158.525217 238.109096 
L 160.69682 205.04203 
L 161.782621 199.503368 
L 162.868422 201.12461 
L 163.954223 217.961621 
L 165.040024 188.523782 
L 166.125825 238.232035 
L 167.211627 203.847001 
L 168.297428 220.620838 
L 169.383229 243.895082 
L 170.46903 206.916721 
L 171.554831 211.991717 
L 172.640632 166.900223 
L 173.726434 192.268471 
L 174.812235 181.711651 
L 175.898036 221.444973 
L 176.983837 203.757874 
L 178.069638 184.212577 
L 179.155439 198.43181 
L 180.24124 202.560966 
L 181.327042 200.426039 
L 182.412843 216.994143 
L 183.498644 211.975009 
L 184.584445 230.159036 
L 185.670246 183.496694 
L 186.756047 186.413451 
L 187.841849 198.932131 
L 188.92765 203.485002 
L 190.013451 216.758553 
L 191.099252 176.621338 
L 192.185053 208.005058 
L 193.270854 179.172088 
L 194.356656 176.260954 
L 195.442457 186.929528 
L 196.528258 157.529895 
L 197.614059 179.891788 
L 198.69986 212.779141 
L 199.785661 160.835669 
L 201.957264 205.954331 
L 203.043065 186.647249 
L 204.128866 199.541455 
L 205.214667 194.448449 
L 206.300468 191.874083 
L 207.386269 222.948791 
L 208.472071 172.677984 
L 209.557872 204.014508 
L 210.643673 211.282707 
L 211.729474 216.562189 
L 212.815275 204.702956 
L 213.901076 214.34605 
L 214.986877 217.711881 
L 216.072679 179.406568 
L 217.15848 193.538745 
L 218.244281 167.404692 
L 219.330082 214.121389 
L 220.415883 197.212485 
L 221.501684 175.143094 
L 222.587486 200.760523 
L 223.673287 170.707138 
L 224.759088 182.632015 
L 225.844889 164.313864 
L 226.93069 171.608985 
L 228.016491 190.93597 
L 229.102292 182.739927 
L 230.188094 178.882273 
L 231.273895 181.801555 
L 232.359696 183.420555 
L 233.445497 193.967391 
L 234.531298 216.081638 
L 235.617099 210.857827 
L 236.702901 185.481339 
L 237.788702 201.687743 
L 238.874503 194.955384 
L 239.960304 221.688208 
L 241.046105 200.679866 
L 242.131906 251.072985 
L 243.217708 219.793305 
L 244.303509 226.547553 
L 245.38931 245.105674 
L 246.475111 171.323424 
L 247.560912 197.256675 
L 248.646713 164.710018 
L 249.732514 172.687338 
L 250.818316 217.128055 
L 251.904117 208.924103 
L 252.989918 198.228106 
L 254.075719 200.104688 
L 255.16152 175.895321 
L 256.247321 212.799931 
L 257.333123 172.133617 
L 258.418924 170.335042 
L 259.504725 199.89118 
L 260.590526 202.31517 
L 261.676327 183.422887 
L 262.762128 187.767669 
L 263.847929 228.258347 
L 264.933731 193.623097 
L 266.019532 181.238808 
L 267.105333 201.607046 
L 268.191134 167.682968 
L 269.276935 175.987058 
L 270.362736 234.374043 
L 271.448538 222.595975 
L 272.534339 216.498829 
L 273.62014 223.085713 
L 274.705941 221.131786 
L 275.791742 203.557404 
L 276.877543 209.86556 
L 277.963344 198.547339 
L 279.049146 179.254539 
L 280.134947 191.999464 
L 281.220748 192.449938 
L 282.306549 223.921177 
L 283.39235 165.163202 
L 284.478151 191.547233 
L 285.563953 205.605008 
L 286.649754 206.051032 
L 287.735555 188.567015 
L 288.821356 187.264181 
L 289.907157 173.993783 
L 290.992958 200.700363 
L 292.07876 192.410491 
L 293.164561 175.369421 
L 294.250362 192.506746 
L 295.336163 176.149699 
L 296.421964 194.955968 
L 297.507765 180.442807 
L 298.593566 194.064803 
L 299.679368 193.53599 
L 300.765169 179.947501 
L 301.85097 244.815914 
L 302.936771 204.133098 
L 304.022572 200.697581 
L 305.108373 196.278739 
L 306.194175 190.750099 
L 307.279976 189.039548 
L 308.365777 206.031526 
L 309.451578 214.515552 
L 310.537379 215.426962 
L 311.62318 194.630653 
L 312.708981 212.844559 
L 313.794783 188.668136 
L 314.880584 179.751641 
L 315.966385 199.126138 
L 317.052186 198.853632 
L 318.137987 191.417165 
L 319.223788 199.035174 
L 320.30959 186.417244 
L 321.395391 201.700536 
L 322.481192 207.660289 
L 323.566993 191.900533 
L 324.652794 222.603372 
L 325.738595 186.722902 
L 326.824396 222.645818 
L 327.910198 192.20722 
L 328.995999 186.977363 
L 330.0818 174.072459 
L 331.167601 190.881707 
L 332.253402 177.983585 
L 333.339203 200.588631 
L 334.425005 179.037839 
L 335.510806 182.40476 
L 336.596607 184.270332 
L 337.682408 178.569636 
L 338.768209 148.862411 
L 339.85401 148.635584 
L 340.939811 165.392159 
L 342.025613 179.86647 
L 343.111414 172.88837 
L 344.197215 172.977101 
L 345.283016 151.492627 
L 346.368817 144.659066 
L 347.454618 156.572713 
L 348.54042 160.566652 
L 349.626221 151.671983 
L 350.712022 186.06709 
L 351.797823 157.651788 
L 352.883624 137.288898 
L 353.969425 162.939515 
L 355.055227 151.71013 
L 356.141028 146.711546 
L 357.226829 172.212965 
L 358.31263 174.084387 
L 359.398431 154.043631 
L 360.484232 174.190026 
L 361.570033 152.358764 
L 362.655835 135.464054 
L 363.741636 137.874998 
L 364.827437 159.245267 
L 365.913238 161.339237 
L 366.999039 148.477311 
L 368.08484 178.628933 
L 369.170642 163.631499 
L 370.256443 157.119791 
L 371.342244 162.379693 
L 372.428045 173.551922 
L 373.513846 172.259404 
L 374.599647 145.2684 
L 375.685448 154.674422 
L 376.77125 124.41355 
L 377.857051 136.221166 
L 378.942852 130.552193 
L 380.028653 119.00028 
L 381.114454 147.164308 
L 382.200255 167.791033 
L 383.286057 137.747974 
L 384.371858 127.962088 
L 385.457659 135.092842 
L 386.54346 134.71917 
L 387.629261 143.51287 
L 388.715062 128.749887 
L 389.800863 136.946502 
L 390.886665 176.650516 
L 391.972466 145.404255 
L 393.058267 134.890836 
L 394.144068 121.731599 
L 395.229869 138.447004 
L 396.31567 125.809963 
L 398.487273 130.088641 
L 398.487273 130.088641 
" style="fill:none;stroke:#008000;stroke-dasharray:9.6,2.4,1.5,2.4;stroke-dashoffset:0;stroke-width:1.5;"/>
   </g>
   <g id="line2d_33">
    <path clip-path="url(#p0e3c0295b2)" d="M 73.832727 263.181802 
L 74.918528 177.405558 
L 76.00433 171.086893 
L 77.090131 171.989774 
L 78.175932 187.482328 
L 79.261733 179.512382 
L 80.347534 177.25441 
L 81.433335 147.904943 
L 82.519137 175.486301 
L 83.604938 142.832963 
L 84.690739 142.694839 
L 85.77654 142.412121 
L 86.862341 161.246781 
L 87.948142 162.060452 
L 89.033943 157.194468 
L 90.119745 160.471103 
L 91.205546 141.601421 
L 92.291347 158.93359 
L 93.377148 140.749058 
L 95.54875 129.840653 
L 96.634552 131.72122 
L 97.720353 142.364698 
L 98.806154 125.528324 
L 99.891955 124.296182 
L 100.977756 112.008601 
L 102.063557 120.700635 
L 103.149358 124.359663 
L 104.23516 128.411152 
L 105.320961 128.889571 
L 106.406762 127.079996 
L 107.492563 146.681584 
L 108.578364 137.626321 
L 109.664165 137.882963 
L 110.749967 129.244236 
L 111.835768 117.316368 
L 114.00737 141.739116 
L 115.093171 128.934093 
L 116.178972 144.85325 
L 117.264773 167.171546 
L 118.350575 163.838374 
L 119.436376 169.319653 
L 120.522177 161.086083 
L 121.607978 162.579432 
L 122.693779 187.570113 
L 123.77958 189.614538 
L 124.865382 181.592984 
L 125.951183 160.569357 
L 127.036984 164.974781 
L 128.122785 162.721618 
L 129.208586 135.756197 
L 130.294387 132.787902 
L 131.380189 166.179789 
L 132.46599 187.240064 
L 133.551791 172.875128 
L 134.637592 131.001287 
L 135.723393 149.030318 
L 136.809194 149.210478 
L 137.894995 123.659082 
L 138.980797 129.056605 
L 140.066598 111.400677 
L 141.152399 124.274252 
L 142.2382 116.202396 
L 143.324001 106.968629 
L 144.409802 111.400033 
L 145.495604 122.423611 
L 146.581405 114.005952 
L 147.667206 91.577439 
L 148.753007 101.806533 
L 149.838808 120.624509 
L 150.924609 112.987045 
L 152.01041 100.618923 
L 153.096212 115.493726 
L 154.182013 125.84644 
L 155.267814 123.235387 
L 156.353615 102.946845 
L 157.439416 103.165623 
L 158.525217 129.753387 
L 159.611019 148.724954 
L 160.69682 100.168568 
L 161.782621 122.346843 
L 162.868422 116.815678 
L 163.954223 131.328035 
L 165.040024 108.173812 
L 166.125825 118.138815 
L 167.211627 99.058313 
L 168.297428 87.311096 
L 169.383229 114.019409 
L 170.46903 112.134468 
L 171.554831 96.420748 
L 172.640632 118.108671 
L 173.726434 118.807016 
L 174.812235 100.949726 
L 175.898036 115.046103 
L 176.983837 109.562128 
L 178.069638 120.147656 
L 179.155439 96.851236 
L 180.24124 110.339939 
L 182.412843 133.933586 
L 183.498644 108.352962 
L 184.584445 127.695481 
L 185.670246 102.337601 
L 186.756047 109.316384 
L 187.841849 98.225988 
L 188.92765 93.68999 
L 190.013451 108.911127 
L 191.099252 96.711796 
L 192.185053 105.992876 
L 193.270854 110.187565 
L 194.356656 103.074289 
L 195.442457 108.076313 
L 196.528258 91.761717 
L 197.614059 89.751057 
L 198.69986 114.517377 
L 199.785661 108.404053 
L 200.871462 94.650172 
L 201.957264 103.516631 
L 203.043065 107.959514 
L 204.128866 111.150361 
L 205.214667 102.637808 
L 206.300468 103.844098 
L 207.386269 95.040689 
L 208.472071 90.227947 
L 209.557872 90.053043 
L 210.643673 128.698977 
L 211.729474 83.948076 
L 212.815275 90.220811 
L 214.986877 111.915816 
L 216.072679 112.654663 
L 217.15848 119.718919 
L 218.244281 94.188316 
L 219.330082 107.947109 
L 220.415883 91.824691 
L 221.501684 103.602765 
L 222.587486 131.417418 
L 223.673287 113.954766 
L 224.759088 121.212699 
L 225.844889 86.570944 
L 226.93069 102.483211 
L 228.016491 105.613464 
L 229.102292 114.540872 
L 230.188094 96.506854 
L 231.273895 88.127588 
L 232.359696 116.76741 
L 233.445497 87.790239 
L 234.531298 95.229029 
L 235.617099 107.496198 
L 236.702901 104.07196 
L 237.788702 111.196023 
L 238.874503 94.483795 
L 239.960304 97.993021 
L 241.046105 106.925459 
L 242.131906 95.663434 
L 243.217708 92.454182 
L 244.303509 120.57328 
L 245.38931 109.177388 
L 246.475111 102.76889 
L 247.560912 112.44589 
L 248.646713 101.285121 
L 249.732514 86.28887 
L 250.818316 115.308749 
L 251.904117 91.688587 
L 252.989918 119.632712 
L 255.16152 93.234365 
L 256.247321 110.55418 
L 257.333123 111.788627 
L 258.418924 109.871976 
L 259.504725 100.604547 
L 260.590526 115.035352 
L 261.676327 118.968334 
L 262.762128 109.348834 
L 263.847929 117.142071 
L 264.933731 114.499362 
L 266.019532 112.552745 
L 267.105333 113.450034 
L 268.191134 85.711305 
L 269.276935 91.112323 
L 270.362736 83.890644 
L 271.448538 91.827726 
L 272.534339 90.538171 
L 273.62014 120.625052 
L 274.705941 104.747984 
L 275.791742 119.564644 
L 276.877543 114.573835 
L 277.963344 115.532001 
L 279.049146 108.984503 
L 280.134947 136.05617 
L 281.220748 109.716773 
L 282.306549 97.040295 
L 283.39235 91.736258 
L 284.478151 93.839924 
L 285.563953 103.644077 
L 286.649754 91.494023 
L 287.735555 92.73458 
L 288.821356 88.196735 
L 289.907157 90.598215 
L 290.992958 120.998153 
L 292.07876 127.515166 
L 293.164561 104.57094 
L 294.250362 95.189867 
L 295.336163 108.060797 
L 296.421964 100.328087 
L 297.507765 107.769491 
L 298.593566 97.104583 
L 299.679368 110.301653 
L 300.765169 92.33714 
L 301.85097 100.110429 
L 302.936771 88.429855 
L 304.022572 89.178828 
L 305.108373 129.619819 
L 306.194175 95.20896 
L 307.279976 106.971067 
L 308.365777 83.921346 
L 309.451578 114.821521 
L 310.537379 101.963064 
L 311.62318 109.894681 
L 312.708981 107.862332 
L 313.794783 108.215594 
L 314.880584 98.122477 
L 315.966385 92.160977 
L 317.052186 97.492687 
L 318.137987 107.762206 
L 319.223788 97.800339 
L 320.30959 79.535341 
L 321.395391 116.420294 
L 322.481192 91.608416 
L 323.566993 102.65587 
L 324.652794 87.098256 
L 325.738595 86.449754 
L 326.824396 94.373193 
L 327.910198 100.078001 
L 328.995999 91.228532 
L 330.0818 79.211908 
L 331.167601 89.358545 
L 332.253402 102.208921 
L 333.339203 94.792431 
L 334.425005 85.21734 
L 335.510806 118.566096 
L 336.596607 90.191971 
L 337.682408 96.402057 
L 338.768209 96.605922 
L 339.85401 94.126718 
L 340.939811 96.115859 
L 342.025613 109.410411 
L 343.111414 114.087099 
L 344.197215 96.436556 
L 345.283016 91.43893 
L 346.368817 97.140592 
L 347.454618 101.796916 
L 348.54042 99.084833 
L 349.626221 109.941922 
L 350.712022 108.722902 
L 351.797823 96.87596 
L 352.883624 96.694224 
L 353.969425 97.817842 
L 355.055227 106.739286 
L 356.141028 95.745326 
L 357.226829 93.662317 
L 358.31263 92.021386 
L 359.398431 91.511555 
L 360.484232 102.066634 
L 361.570033 105.391778 
L 362.655835 97.855329 
L 363.741636 96.920614 
L 364.827437 94.022158 
L 365.913238 92.316598 
L 366.999039 75.345756 
L 368.08484 77.792144 
L 369.170642 83.463224 
L 370.256443 84.765033 
L 371.342244 89.653736 
L 372.428045 103.259535 
L 373.513846 76.943886 
L 374.599647 92.585095 
L 375.685448 77.390067 
L 376.77125 71.559795 
L 377.857051 53.568 
L 378.942852 80.452338 
L 380.028653 79.085447 
L 381.114454 73.60589 
L 382.200255 82.214841 
L 383.286057 85.891317 
L 384.371858 78.852344 
L 385.457659 87.091564 
L 386.54346 78.848044 
L 387.629261 87.718851 
L 388.715062 81.77531 
L 389.800863 80.819522 
L 390.886665 77.786606 
L 391.972466 58.743096 
L 393.058267 89.914572 
L 394.144068 76.667087 
L 395.229869 72.031734 
L 396.31567 73.814372 
L 397.401472 80.341812 
L 398.487273 82.726303 
L 398.487273 82.726303 
" style="fill:none;stroke:#008000;stroke-dasharray:9.6,2.4,1.5,2.4;stroke-dashoffset:0;stroke-width:1.5;"/>
   </g>
   <g id="line2d_34">
    <path clip-path="url(#p0e3c0295b2)" d="M 73.832727 259.831014 
L 74.918528 171.141063 
L 76.00433 159.986464 
L 77.090131 168.089568 
L 78.175932 182.225672 
L 79.261733 165.938331 
L 80.347534 169.872806 
L 81.433335 144.286183 
L 82.519137 173.968836 
L 83.604938 139.109176 
L 84.690739 145.70797 
L 86.862341 144.554871 
L 87.948142 152.973095 
L 90.119745 145.846875 
L 91.205546 127.572215 
L 92.291347 152.862902 
L 93.377148 127.063794 
L 94.462949 118.609947 
L 95.54875 116.766951 
L 96.634552 128.249593 
L 97.720353 125.540735 
L 98.806154 118.716282 
L 100.977756 93.510112 
L 102.063557 117.874497 
L 103.149358 112.049215 
L 104.23516 96.88864 
L 105.320961 113.060512 
L 106.406762 119.493876 
L 107.492563 141.49122 
L 108.578364 126.663695 
L 109.664165 130.507033 
L 110.749967 121.001667 
L 111.835768 91.926316 
L 112.921569 122.292505 
L 114.00737 133.618777 
L 115.093171 119.790141 
L 116.178972 129.939647 
L 117.264773 154.462647 
L 118.350575 157.262074 
L 119.436376 156.14543 
L 120.522177 154.600406 
L 121.607978 152.200837 
L 122.693779 178.419377 
L 123.77958 179.915495 
L 124.865382 173.962342 
L 125.951183 154.236557 
L 127.036984 155.457589 
L 128.122785 159.734388 
L 129.208586 128.527018 
L 130.294387 128.010924 
L 131.380189 153.215408 
L 132.46599 186.202528 
L 133.551791 168.953195 
L 134.637592 145.941897 
L 135.723393 161.546201 
L 136.809194 160.437484 
L 137.894995 127.407242 
L 138.980797 131.956149 
L 140.066598 109.723515 
L 141.152399 134.890218 
L 142.2382 126.491983 
L 143.324001 123.551803 
L 144.409802 111.503603 
L 145.495604 128.045988 
L 146.581405 116.257313 
L 147.667206 99.991491 
L 148.753007 104.848952 
L 149.838808 127.112964 
L 150.924609 117.770822 
L 152.01041 117.007613 
L 153.096212 123.153382 
L 154.182013 136.107391 
L 155.267814 132.289109 
L 156.353615 105.128495 
L 157.439416 116.171619 
L 158.525217 145.025683 
L 159.611019 151.261436 
L 160.69682 106.387343 
L 161.782621 123.096474 
L 162.868422 119.930864 
L 163.954223 118.488478 
L 165.040024 93.816927 
L 166.125825 115.089783 
L 167.211627 99.75368 
L 168.297428 86.787323 
L 169.383229 95.157766 
L 170.46903 116.6481 
L 171.554831 91.184479 
L 173.726434 118.330234 
L 174.812235 103.2918 
L 175.898036 115.925621 
L 176.983837 102.451393 
L 178.069638 103.47542 
L 179.155439 93.569897 
L 180.24124 112.443546 
L 181.327042 109.902053 
L 182.412843 129.47031 
L 183.498644 101.786313 
L 184.584445 128.442544 
L 185.670246 101.426914 
L 186.756047 109.893508 
L 187.841849 103.422437 
L 188.92765 84.953206 
L 190.013451 90.766744 
L 191.099252 92.938717 
L 192.185053 99.296844 
L 193.270854 108.462071 
L 194.356656 100.445858 
L 195.442457 100.812638 
L 196.528258 77.9263 
L 197.614059 77.635912 
L 198.69986 110.277591 
L 199.785661 91.076994 
L 200.871462 92.164092 
L 201.957264 95.199957 
L 204.128866 107.398185 
L 205.214667 105.332483 
L 206.300468 93.11092 
L 207.386269 106.399028 
L 208.472071 88.151974 
L 209.557872 79.755199 
L 210.643673 128.128052 
L 211.729474 78.676904 
L 212.815275 90.868536 
L 213.901076 81.956141 
L 214.986877 92.740745 
L 216.072679 94.722767 
L 217.15848 105.688858 
L 218.244281 87.46078 
L 219.330082 105.166525 
L 220.415883 92.266224 
L 221.501684 90.626094 
L 222.587486 114.062402 
L 223.673287 101.53636 
L 224.759088 119.445539 
L 225.844889 84.07508 
L 226.93069 102.185859 
L 228.016491 106.822199 
L 229.102292 107.122436 
L 230.188094 91.661938 
L 231.273895 93.762913 
L 232.359696 113.222401 
L 233.445497 88.143349 
L 234.531298 94.660135 
L 235.617099 104.185431 
L 236.702901 101.945896 
L 237.788702 117.255257 
L 238.874503 97.453528 
L 239.960304 92.006528 
L 241.046105 116.035122 
L 242.131906 100.991028 
L 243.217708 93.372039 
L 244.303509 118.96941 
L 245.38931 101.071406 
L 246.475111 91.897017 
L 247.560912 112.096179 
L 249.732514 79.840503 
L 250.818316 118.139435 
L 251.904117 87.729059 
L 252.989918 115.307573 
L 254.075719 104.880758 
L 255.16152 95.890545 
L 256.247321 99.565123 
L 257.333123 104.668748 
L 258.418924 90.764227 
L 259.504725 89.951239 
L 260.590526 112.038835 
L 261.676327 96.882859 
L 262.762128 96.06074 
L 263.847929 106.887114 
L 264.933731 107.548166 
L 266.019532 108.486135 
L 267.105333 108.568218 
L 268.191134 80.660707 
L 270.362736 90.174354 
L 271.448538 85.892771 
L 272.534339 85.233668 
L 273.62014 110.241004 
L 274.705941 92.175011 
L 275.791742 114.687672 
L 276.877543 105.079754 
L 277.963344 103.438106 
L 279.049146 93.682423 
L 280.134947 124.833841 
L 281.220748 90.667965 
L 282.306549 89.191586 
L 283.39235 85.297126 
L 284.478151 79.973756 
L 285.563953 99.579441 
L 286.649754 88.857772 
L 287.735555 82.58839 
L 288.821356 82.969879 
L 289.907157 82.985277 
L 290.992958 104.192261 
L 292.07876 113.331545 
L 293.164561 94.884328 
L 294.250362 96.681854 
L 295.336163 81.333882 
L 296.421964 96.582457 
L 297.507765 96.023347 
L 298.593566 93.446456 
L 299.679368 97.960097 
L 300.765169 91.195567 
L 301.85097 95.600334 
L 302.936771 83.511471 
L 304.022572 88.063892 
L 305.108373 125.812843 
L 306.194175 95.05498 
L 307.279976 96.345539 
L 308.365777 88.219061 
L 309.451578 105.167546 
L 310.537379 87.697494 
L 311.62318 101.374159 
L 312.708981 103.722204 
L 313.794783 90.758219 
L 314.880584 96.51373 
L 315.966385 92.256521 
L 317.052186 96.007045 
L 318.137987 105.498395 
L 319.223788 89.425293 
L 320.30959 89.733494 
L 321.395391 108.871515 
L 322.481192 98.2118 
L 323.566993 105.059668 
L 324.652794 96.691032 
L 325.738595 98.167115 
L 326.824396 106.426933 
L 327.910198 101.60402 
L 328.995999 89.064376 
L 330.0818 85.309543 
L 331.167601 87.730176 
L 332.253402 102.569176 
L 333.339203 100.661399 
L 334.425005 86.905315 
L 335.510806 110.705623 
L 336.596607 96.345497 
L 337.682408 85.940093 
L 338.768209 87.977636 
L 339.85401 85.454347 
L 340.939811 92.648564 
L 342.025613 102.126712 
L 343.111414 108.294523 
L 345.283016 81.787818 
L 347.454618 96.825077 
L 348.54042 96.961398 
L 349.626221 98.767141 
L 350.712022 106.512742 
L 351.797823 87.49794 
L 352.883624 84.458809 
L 353.969425 92.516022 
L 355.055227 92.602937 
L 356.141028 86.986536 
L 357.226829 84.531409 
L 358.31263 85.414639 
L 359.398431 76.765527 
L 360.484232 81.126639 
L 361.570033 86.964527 
L 362.655835 90.025375 
L 363.741636 85.108738 
L 364.827437 85.921084 
L 365.913238 94.631751 
L 366.999039 79.096957 
L 368.08484 79.244897 
L 369.170642 84.135189 
L 370.256443 81.861123 
L 371.342244 76.116692 
L 372.428045 108.595541 
L 373.513846 84.189309 
L 374.599647 64.560395 
L 375.685448 72.73756 
L 376.77125 61.021226 
L 377.857051 62.988795 
L 378.942852 72.784317 
L 380.028653 72.786711 
L 381.114454 71.472636 
L 382.200255 76.132165 
L 383.286057 72.268069 
L 384.371858 65.00817 
L 385.457659 73.918357 
L 386.54346 64.550793 
L 387.629261 75.436467 
L 388.715062 71.778347 
L 389.800863 77.357188 
L 390.886665 84.414545 
L 391.972466 70.084193 
L 393.058267 87.337707 
L 394.144068 70.638721 
L 395.229869 72.653534 
L 396.31567 68.152134 
L 397.401472 73.048873 
L 398.487273 72.618422 
L 398.487273 72.618422 
" style="fill:none;stroke:#ff0000;stroke-linecap:square;stroke-width:1.5;"/>
   </g>
   <g id="patch_3">
    <path d="M 57.6 307.584 
L 57.6 41.472 
" style="fill:none;stroke:#000000;stroke-linecap:square;stroke-linejoin:miter;stroke-width:0.8;"/>
   </g>
   <g id="patch_4">
    <path d="M 414.72 307.584 
L 414.72 41.472 
" style="fill:none;stroke:#000000;stroke-linecap:square;stroke-linejoin:miter;stroke-width:0.8;"/>
   </g>
   <g id="patch_5">
    <path d="M 57.6 307.584 
L 414.72 307.584 
" style="fill:none;stroke:#000000;stroke-linecap:square;stroke-linejoin:miter;stroke-width:0.8;"/>
   </g>
   <g id="patch_6">
    <path d="M 57.6 41.472 
L 414.72 41.472 
" style="fill:none;stroke:#000000;stroke-linecap:square;stroke-linejoin:miter;stroke-width:0.8;"/>
   </g>
   <g id="text_18">
    <!-- Population's average and best fitness -->
    <defs>
     <path d="M 19.671875 64.796875 
L 19.671875 37.40625 
L 32.078125 37.40625 
Q 38.96875 37.40625 42.71875 40.96875 
Q 46.484375 44.53125 46.484375 51.125 
Q 46.484375 57.671875 42.71875 61.234375 
Q 38.96875 64.796875 32.078125 64.796875 
z
M 9.8125 72.90625 
L 32.078125 72.90625 
Q 44.34375 72.90625 50.609375 67.359375 
Q 56.890625 61.8125 56.890625 51.125 
Q 56.890625 40.328125 50.609375 34.8125 
Q 44.34375 29.296875 32.078125 29.296875 
L 19.671875 29.296875 
L 19.671875 0 
L 9.8125 0 
z
" id="DejaVuSans-80"/>
     <path d="M 18.109375 8.203125 
L 18.109375 -20.796875 
L 9.078125 -20.796875 
L 9.078125 54.6875 
L 18.109375 54.6875 
L 18.109375 46.390625 
Q 20.953125 51.265625 25.265625 53.625 
Q 29.59375 56 35.59375 56 
Q 45.5625 56 51.78125 48.09375 
Q 58.015625 40.1875 58.015625 27.296875 
Q 58.015625 14.40625 51.78125 6.484375 
Q 45.5625 -1.421875 35.59375 -1.421875 
Q 29.59375 -1.421875 25.265625 0.953125 
Q 20.953125 3.328125 18.109375 8.203125 
z
M 48.6875 27.296875 
Q 48.6875 37.203125 44.609375 42.84375 
Q 40.53125 48.484375 33.40625 48.484375 
Q 26.265625 48.484375 22.1875 42.84375 
Q 18.109375 37.203125 18.109375 27.296875 
Q 18.109375 17.390625 22.1875 11.75 
Q 26.265625 6.109375 33.40625 6.109375 
Q 40.53125 6.109375 44.609375 11.75 
Q 48.6875 17.390625 48.6875 27.296875 
z
" id="DejaVuSans-112"/>
     <path d="M 8.5 21.578125 
L 8.5 54.6875 
L 17.484375 54.6875 
L 17.484375 21.921875 
Q 17.484375 14.15625 20.5 10.265625 
Q 23.53125 6.390625 29.59375 6.390625 
Q 36.859375 6.390625 41.078125 11.03125 
Q 45.3125 15.671875 45.3125 23.6875 
L 45.3125 54.6875 
L 54.296875 54.6875 
L 54.296875 0 
L 45.3125 0 
L 45.3125 8.40625 
Q 42.046875 3.421875 37.71875 1 
Q 33.40625 -1.421875 27.6875 -1.421875 
Q 18.265625 -1.421875 13.375 4.4375 
Q 8.5 10.296875 8.5 21.578125 
z
M 31.109375 56 
z
" id="DejaVuSans-117"/>
     <path d="M 9.421875 75.984375 
L 18.40625 75.984375 
L 18.40625 0 
L 9.421875 0 
z
" id="DejaVuSans-108"/>
     <path d="M 17.921875 72.90625 
L 17.921875 45.796875 
L 9.625 45.796875 
L 9.625 72.90625 
z
" id="DejaVuSans-39"/>
     <path id="DejaVuSans-32"/>
     <path d="M 2.984375 54.6875 
L 12.5 54.6875 
L 29.59375 8.796875 
L 46.6875 54.6875 
L 56.203125 54.6875 
L 35.6875 0 
L 23.484375 0 
z
" id="DejaVuSans-118"/>
     <path d="M 45.40625 27.984375 
Q 45.40625 37.75 41.375 43.109375 
Q 37.359375 48.484375 30.078125 48.484375 
Q 22.859375 48.484375 18.828125 43.109375 
Q 14.796875 37.75 14.796875 27.984375 
Q 14.796875 18.265625 18.828125 12.890625 
Q 22.859375 7.515625 30.078125 7.515625 
Q 37.359375 7.515625 41.375 12.890625 
Q 45.40625 18.265625 45.40625 27.984375 
z
M 54.390625 6.78125 
Q 54.390625 -7.171875 48.1875 -13.984375 
Q 42 -20.796875 29.203125 -20.796875 
Q 24.46875 -20.796875 20.265625 -20.09375 
Q 16.0625 -19.390625 12.109375 -17.921875 
L 12.109375 -9.1875 
Q 16.0625 -11.328125 19.921875 -12.34375 
Q 23.78125 -13.375 27.78125 -13.375 
Q 36.625 -13.375 41.015625 -8.765625 
Q 45.40625 -4.15625 45.40625 5.171875 
L 45.40625 9.625 
Q 42.625 4.78125 38.28125 2.390625 
Q 33.9375 0 27.875 0 
Q 17.828125 0 11.671875 7.65625 
Q 5.515625 15.328125 5.515625 27.984375 
Q 5.515625 40.671875 11.671875 48.328125 
Q 17.828125 56 27.875 56 
Q 33.9375 56 38.28125 53.609375 
Q 42.625 51.21875 45.40625 46.390625 
L 45.40625 54.6875 
L 54.390625 54.6875 
z
" id="DejaVuSans-103"/>
     <path d="M 45.40625 46.390625 
L 45.40625 75.984375 
L 54.390625 75.984375 
L 54.390625 0 
L 45.40625 0 
L 45.40625 8.203125 
Q 42.578125 3.328125 38.25 0.953125 
Q 33.9375 -1.421875 27.875 -1.421875 
Q 17.96875 -1.421875 11.734375 6.484375 
Q 5.515625 14.40625 5.515625 27.296875 
Q 5.515625 40.1875 11.734375 48.09375 
Q 17.96875 56 27.875 56 
Q 33.9375 56 38.25 53.625 
Q 42.578125 51.265625 45.40625 46.390625 
z
M 14.796875 27.296875 
Q 14.796875 17.390625 18.875 11.75 
Q 22.953125 6.109375 30.078125 6.109375 
Q 37.203125 6.109375 41.296875 11.75 
Q 45.40625 17.390625 45.40625 27.296875 
Q 45.40625 37.203125 41.296875 42.84375 
Q 37.203125 48.484375 30.078125 48.484375 
Q 22.953125 48.484375 18.875 42.84375 
Q 14.796875 37.203125 14.796875 27.296875 
z
" id="DejaVuSans-100"/>
     <path d="M 48.6875 27.296875 
Q 48.6875 37.203125 44.609375 42.84375 
Q 40.53125 48.484375 33.40625 48.484375 
Q 26.265625 48.484375 22.1875 42.84375 
Q 18.109375 37.203125 18.109375 27.296875 
Q 18.109375 17.390625 22.1875 11.75 
Q 26.265625 6.109375 33.40625 6.109375 
Q 40.53125 6.109375 44.609375 11.75 
Q 48.6875 17.390625 48.6875 27.296875 
z
M 18.109375 46.390625 
Q 20.953125 51.265625 25.265625 53.625 
Q 29.59375 56 35.59375 56 
Q 45.5625 56 51.78125 48.09375 
Q 58.015625 40.1875 58.015625 27.296875 
Q 58.015625 14.40625 51.78125 6.484375 
Q 45.5625 -1.421875 35.59375 -1.421875 
Q 29.59375 -1.421875 25.265625 0.953125 
Q 20.953125 3.328125 18.109375 8.203125 
L 18.109375 0 
L 9.078125 0 
L 9.078125 75.984375 
L 18.109375 75.984375 
z
" id="DejaVuSans-98"/>
     <path d="M 37.109375 75.984375 
L 37.109375 68.5 
L 28.515625 68.5 
Q 23.6875 68.5 21.796875 66.546875 
Q 19.921875 64.59375 19.921875 59.515625 
L 19.921875 54.6875 
L 34.71875 54.6875 
L 34.71875 47.703125 
L 19.921875 47.703125 
L 19.921875 0 
L 10.890625 0 
L 10.890625 47.703125 
L 2.296875 47.703125 
L 2.296875 54.6875 
L 10.890625 54.6875 
L 10.890625 58.5 
Q 10.890625 67.625 15.140625 71.796875 
Q 19.390625 75.984375 28.609375 75.984375 
z
" id="DejaVuSans-102"/>
    </defs>
    <g transform="translate(123.315 35.472)scale(0.12 -0.12)">
     <use xlink:href="#DejaVuSans-80"/>
     <use x="60.255859" xlink:href="#DejaVuSans-111"/>
     <use x="121.4375" xlink:href="#DejaVuSans-112"/>
     <use x="184.914062" xlink:href="#DejaVuSans-117"/>
     <use x="248.292969" xlink:href="#DejaVuSans-108"/>
     <use x="276.076172" xlink:href="#DejaVuSans-97"/>
     <use x="337.355469" xlink:href="#DejaVuSans-116"/>
     <use x="376.564453" xlink:href="#DejaVuSans-105"/>
     <use x="404.347656" xlink:href="#DejaVuSans-111"/>
     <use x="465.529297" xlink:href="#DejaVuSans-110"/>
     <use x="528.908203" xlink:href="#DejaVuSans-39"/>
     <use x="556.398438" xlink:href="#DejaVuSans-115"/>
     <use x="608.498047" xlink:href="#DejaVuSans-32"/>
     <use x="640.285156" xlink:href="#DejaVuSans-97"/>
     <use x="701.564453" xlink:href="#DejaVuSans-118"/>
     <use x="760.744141" xlink:href="#DejaVuSans-101"/>
     <use x="822.267578" xlink:href="#DejaVuSans-114"/>
     <use x="863.380859" xlink:href="#DejaVuSans-97"/>
     <use x="924.660156" xlink:href="#DejaVuSans-103"/>
     <use x="988.136719" xlink:href="#DejaVuSans-101"/>
     <use x="1049.660156" xlink:href="#DejaVuSans-32"/>
     <use x="1081.447266" xlink:href="#DejaVuSans-97"/>
     <use x="1142.726562" xlink:href="#DejaVuSans-110"/>
     <use x="1206.105469" xlink:href="#DejaVuSans-100"/>
     <use x="1269.582031" xlink:href="#DejaVuSans-32"/>
     <use x="1301.369141" xlink:href="#DejaVuSans-98"/>
     <use x="1364.845703" xlink:href="#DejaVuSans-101"/>
     <use x="1426.369141" xlink:href="#DejaVuSans-115"/>
     <use x="1478.46875" xlink:href="#DejaVuSans-116"/>
     <use x="1517.677734" xlink:href="#DejaVuSans-32"/>
     <use x="1549.464844" xlink:href="#DejaVuSans-102"/>
     <use x="1584.669922" xlink:href="#DejaVuSans-105"/>
     <use x="1612.453125" xlink:href="#DejaVuSans-116"/>
     <use x="1651.662109" xlink:href="#DejaVuSans-110"/>
     <use x="1715.041016" xlink:href="#DejaVuSans-101"/>
     <use x="1776.564453" xlink:href="#DejaVuSans-115"/>
     <use x="1828.664062" xlink:href="#DejaVuSans-115"/>
    </g>
   </g>
   <g id="legend_1">
    <g id="patch_7">
     <path d="M 334.779375 302.584 
L 407.72 302.584 
Q 409.72 302.584 409.72 300.584 
L 409.72 242.8715 
Q 409.72 240.8715 407.72 240.8715 
L 334.779375 240.8715 
Q 332.779375 240.8715 332.779375 242.8715 
L 332.779375 300.584 
Q 332.779375 302.584 334.779375 302.584 
z
" style="fill:#ffffff;opacity:0.8;stroke:#cccccc;stroke-linejoin:miter;"/>
    </g>
    <g id="line2d_35">
     <path d="M 336.779375 248.969937 
L 356.779375 248.969937 
" style="fill:none;stroke:#0000ff;stroke-linecap:square;stroke-width:1.5;"/>
    </g>
    <g id="line2d_36"/>
    <g id="text_19">
     <!-- average -->
     <g transform="translate(364.779375 252.469937)scale(0.1 -0.1)">
      <use xlink:href="#DejaVuSans-97"/>
      <use x="61.279297" xlink:href="#DejaVuSans-118"/>
      <use x="120.458984" xlink:href="#DejaVuSans-101"/>
      <use x="181.982422" xlink:href="#DejaVuSans-114"/>
      <use x="223.095703" xlink:href="#DejaVuSans-97"/>
      <use x="284.375" xlink:href="#DejaVuSans-103"/>
      <use x="347.851562" xlink:href="#DejaVuSans-101"/>
     </g>
    </g>
    <g id="line2d_37">
     <path d="M 336.779375 263.648062 
L 356.779375 263.648062 
" style="fill:none;stroke:#008000;stroke-dasharray:9.6,2.4,1.5,2.4;stroke-dashoffset:0;stroke-width:1.5;"/>
    </g>
    <g id="line2d_38"/>
    <g id="text_20">
     <!-- -1 sd -->
     <defs>
      <path d="M 4.890625 31.390625 
L 31.203125 31.390625 
L 31.203125 23.390625 
L 4.890625 23.390625 
z
" id="DejaVuSans-45"/>
     </defs>
     <g transform="translate(364.779375 267.148062)scale(0.1 -0.1)">
      <use xlink:href="#DejaVuSans-45"/>
      <use x="36.083984" xlink:href="#DejaVuSans-49"/>
      <use x="99.707031" xlink:href="#DejaVuSans-32"/>
      <use x="131.494141" xlink:href="#DejaVuSans-115"/>
      <use x="183.59375" xlink:href="#DejaVuSans-100"/>
     </g>
    </g>
    <g id="line2d_39">
     <path d="M 336.779375 278.326187 
L 356.779375 278.326187 
" style="fill:none;stroke:#008000;stroke-dasharray:9.6,2.4,1.5,2.4;stroke-dashoffset:0;stroke-width:1.5;"/>
    </g>
    <g id="line2d_40"/>
    <g id="text_21">
     <!-- +1 sd -->
     <defs>
      <path d="M 46 62.703125 
L 46 35.5 
L 73.1875 35.5 
L 73.1875 27.203125 
L 46 27.203125 
L 46 0 
L 37.796875 0 
L 37.796875 27.203125 
L 10.59375 27.203125 
L 10.59375 35.5 
L 37.796875 35.5 
L 37.796875 62.703125 
z
" id="DejaVuSans-43"/>
     </defs>
     <g transform="translate(364.779375 281.826187)scale(0.1 -0.1)">
      <use xlink:href="#DejaVuSans-43"/>
      <use x="83.789062" xlink:href="#DejaVuSans-49"/>
      <use x="147.412109" xlink:href="#DejaVuSans-32"/>
      <use x="179.199219" xlink:href="#DejaVuSans-115"/>
      <use x="231.298828" xlink:href="#DejaVuSans-100"/>
     </g>
    </g>
    <g id="line2d_41">
     <path d="M 336.779375 293.004312 
L 356.779375 293.004312 
" style="fill:none;stroke:#ff0000;stroke-linecap:square;stroke-width:1.5;"/>
    </g>
    <g id="line2d_42"/>
    <g id="text_22">
     <!-- best -->
     <g transform="translate(364.779375 296.504312)scale(0.1 -0.1)">
      <use xlink:href="#DejaVuSans-98"/>
      <use x="63.476562" xlink:href="#DejaVuSans-101"/>
      <use x="125" xlink:href="#DejaVuSans-115"/>
      <use x="177.099609" xlink:href="#DejaVuSans-116"/>
     </g>
    </g>
   </g>
  </g>
 </g>
 <defs>
  <clipPath id="p0e3c0295b2">
   <rect height="266.112" width="357.12" x="57.6" y="41.472"/>
  </clipPath>
 </defs>
</svg>
