<?xml version="1.0" encoding="UTF-8" standalone="no"?>
<!DOCTYPE svg PUBLIC "-//W3C//DTD SVG 1.1//EN"
 "http://www.w3.org/Graphics/SVG/1.1/DTD/svg11.dtd">
<!-- Generated by graphviz version 2.40.1 (20161225.0304)
 -->
<!-- Title: %3 Pages: 1 -->
<svg width="485pt" height="266pt"
 viewBox="0.00 0.00 484.77 265.93" xmlns="http://www.w3.org/2000/svg" xmlns:xlink="http://www.w3.org/1999/xlink">
<g id="graph0" class="graph" transform="scale(1 1) rotate(0) translate(4 261.9326)">
<title>%3</title>
<polygon fill="#ffffff" stroke="transparent" points="-4,4 -4,-261.9326 480.7661,-261.9326 480.7661,4 -4,4"/>
<!-- 0 -->
<g id="node1" class="node">
<title>0</title>
<polygon fill="#d3d3d3" stroke="#000000" points="103.389,-257.9326 83.3771,-257.9326 83.3771,-240.9326 103.389,-240.9326 103.389,-257.9326"/>
<text text-anchor="middle" x="93.383" y="-246.7326" font-family="Times,serif" font-size="9.00" fill="#000000">0</text>
</g>
<!-- 1 -->
<g id="node2" class="node">
<title>1</title>
<polygon fill="#d3d3d3" stroke="#000000" points="150.389,-257.9326 130.3771,-257.9326 130.3771,-240.9326 150.389,-240.9326 150.389,-257.9326"/>
<text text-anchor="middle" x="140.383" y="-246.7326" font-family="Times,serif" font-size="9.00" fill="#000000">1</text>
</g>
<!-- 0&#45;&gt;1 -->
<!-- E0 -->
<g id="node4" class="node">
<title>E0</title>
<ellipse fill="#add8e6" stroke="#000000" cx="18.383" cy="-18.383" rx="18.2668" ry="18.2668"/>
<text text-anchor="middle" x="18.383" y="-15.683" font-family="Times,serif" font-size="9.00" fill="#000000">E0</text>
</g>
<!-- 0&#45;&gt;E0 -->
<g id="edge21" class="edge">
<title>0&#45;&gt;E0</title>
<path fill="none" stroke="#ff0000" stroke-width=".4499" d="M90.5345,-240.6573C80.1494,-208.6643 44.0475,-97.4465 27.1861,-45.5024"/>
<polygon fill="#ff0000" stroke="#ff0000" stroke-width=".4499" points="30.5003,-44.3757 24.0837,-35.9449 23.8423,-46.537 30.5003,-44.3757"/>
</g>
<!-- E1 -->
<g id="node5" class="node">
<title>E1</title>
<ellipse fill="#add8e6" stroke="#000000" cx="73.383" cy="-18.383" rx="18.2668" ry="18.2668"/>
<text text-anchor="middle" x="73.383" y="-15.683" font-family="Times,serif" font-size="9.00" fill="#000000">E1</text>
</g>
<!-- 0&#45;&gt;E1 -->
<g id="edge16" class="edge">
<title>0&#45;&gt;E1</title>
<path fill="none" stroke="#ff0000" stroke-width=".5122" d="M92.6234,-240.6573C89.8799,-208.9623 80.4057,-99.5115 75.8575,-46.9692"/>
<polygon fill="#ff0000" stroke="#ff0000" stroke-width=".5122" points="79.3409,-46.625 74.9915,-36.9641 72.367,-47.2287 79.3409,-46.625"/>
</g>
<!-- E7 -->
<g id="node11" class="node">
<title>E7</title>
<ellipse fill="#add8e6" stroke="#000000" cx="403.383" cy="-18.383" rx="18.2668" ry="18.2668"/>
<text text-anchor="middle" x="403.383" y="-15.683" font-family="Times,serif" font-size="9.00" fill="#000000">E7</text>
</g>
<!-- 0&#45;&gt;E7 -->
<g id="edge15" class="edge">
<title>0&#45;&gt;E7</title>
<path fill="none" stroke="#00ff00" stroke-width="1.3319" d="M103.6212,-246.1109C129.2712,-237.728 195.7071,-215.6237 216.383,-204.9326 274.5539,-174.8537 291.8956,-167.9607 337.383,-120.8494 359.6606,-97.7765 378.6946,-66.1058 390.5164,-44.1064"/>
<polygon fill="#00ff00" stroke="#00ff00" stroke-width="1.3319" points="393.7296,-45.5156 395.278,-35.0345 387.5315,-42.2623 393.7296,-45.5156"/>
</g>
<!-- 2 -->
<g id="node3" class="node">
<title>2</title>
<polygon fill="#d3d3d3" stroke="#000000" points="189.389,-257.9326 169.3771,-257.9326 169.3771,-240.9326 189.389,-240.9326 189.389,-257.9326"/>
<text text-anchor="middle" x="179.383" y="-246.7326" font-family="Times,serif" font-size="9.00" fill="#000000">2</text>
</g>
<!-- 1&#45;&gt;2 -->
<!-- E8 -->
<g id="node12" class="node">
<title>E8</title>
<ellipse fill="#add8e6" stroke="#000000" cx="458.383" cy="-18.383" rx="18.2668" ry="18.2668"/>
<text text-anchor="middle" x="458.383" y="-15.683" font-family="Times,serif" font-size="9.00" fill="#000000">E8</text>
</g>
<!-- 1&#45;&gt;E8 -->
<g id="edge11" class="edge">
<title>1&#45;&gt;E8</title>
<path fill="none" stroke="#ff0000" stroke-width="2.6646" d="M150.4877,-244.9333C153.6344,-243.5876 157.1318,-242.148 160.383,-240.9326 208.9626,-222.7721 226.219,-230.4275 271.383,-204.9326 346.5358,-162.5092 412.2514,-81.6462 441.7918,-41.7851"/>
<polygon fill="#ff0000" stroke="#ff0000" stroke-width="2.6646" points="444.6231,-43.8427 447.6995,-33.7043 438.9722,-39.7114 444.6231,-43.8427"/>
</g>
<!-- 4877 -->
<g id="node13" class="node">
<title>4877</title>
<ellipse fill="#ffffff" stroke="#000000" cx="183.383" cy="-180.891" rx="24.0833" ry="24.0833"/>
<text text-anchor="middle" x="183.383" y="-178.191" font-family="Times,serif" font-size="9.00" fill="#000000">4877</text>
</g>
<!-- 2&#45;&gt;4877 -->
<g id="edge17" class="edge">
<title>2&#45;&gt;4877</title>
<path fill="none" stroke="#00ff00" stroke-width=".788" d="M179.8897,-240.7518C180.2725,-234.1912 180.825,-224.7236 181.3781,-215.2474"/>
<polygon fill="#00ff00" stroke="#00ff00" stroke-width=".788" points="184.8817,-215.2854 181.9703,-205.0984 177.8936,-214.8775 184.8817,-215.2854"/>
</g>
<!-- 445 -->
<g id="node15" class="node">
<title>445</title>
<ellipse fill="#ffffff" stroke="#000000" cx="131.383" cy="-96.8077" rx="20.7202" ry="20.7202"/>
<text text-anchor="middle" x="131.383" y="-94.1077" font-family="Times,serif" font-size="9.00" fill="#000000">445</text>
</g>
<!-- 2&#45;&gt;445 -->
<g id="edge12" class="edge">
<title>2&#45;&gt;445</title>
<path fill="none" stroke="#00ff00" stroke-width="4.9232" d="M172.238,-240.8202C165.5233,-232.2604 155.7298,-218.486 150.383,-204.9326 140.5856,-180.0974 135.8214,-150.0676 133.5157,-127.9638"/>
<polygon fill="#00ff00" stroke="#00ff00" stroke-width="4.9232" points="137.7864,-127.3645 132.5699,-117.807 129.2078,-128.1634 137.7864,-127.3645"/>
</g>
<!-- E0&#45;&gt;E1 -->
<!-- E2 -->
<g id="node6" class="node">
<title>E2</title>
<ellipse fill="#add8e6" stroke="#000000" cx="128.383" cy="-18.383" rx="18.2668" ry="18.2668"/>
<text text-anchor="middle" x="128.383" y="-15.683" font-family="Times,serif" font-size="9.00" fill="#000000">E2</text>
</g>
<!-- E1&#45;&gt;E2 -->
<!-- E3 -->
<g id="node7" class="node">
<title>E3</title>
<ellipse fill="#add8e6" stroke="#000000" cx="183.383" cy="-18.383" rx="18.2668" ry="18.2668"/>
<text text-anchor="middle" x="183.383" y="-15.683" font-family="Times,serif" font-size="9.00" fill="#000000">E3</text>
</g>
<!-- E2&#45;&gt;E3 -->
<!-- E4 -->
<g id="node8" class="node">
<title>E4</title>
<ellipse fill="#add8e6" stroke="#000000" cx="238.383" cy="-18.383" rx="18.2668" ry="18.2668"/>
<text text-anchor="middle" x="238.383" y="-15.683" font-family="Times,serif" font-size="9.00" fill="#000000">E4</text>
</g>
<!-- E3&#45;&gt;E4 -->
<!-- E5 -->
<g id="node9" class="node">
<title>E5</title>
<ellipse fill="#add8e6" stroke="#000000" cx="293.383" cy="-18.383" rx="18.2668" ry="18.2668"/>
<text text-anchor="middle" x="293.383" y="-15.683" font-family="Times,serif" font-size="9.00" fill="#000000">E5</text>
</g>
<!-- E4&#45;&gt;E5 -->
<!-- E6 -->
<g id="node10" class="node">
<title>E6</title>
<ellipse fill="#add8e6" stroke="#000000" cx="348.383" cy="-18.383" rx="18.2668" ry="18.2668"/>
<text text-anchor="middle" x="348.383" y="-15.683" font-family="Times,serif" font-size="9.00" fill="#000000">E6</text>
</g>
<!-- E5&#45;&gt;E6 -->
<!-- E6&#45;&gt;E7 -->
<!-- E7&#45;&gt;E8 -->
<!-- 4877&#45;&gt;E3 -->
<g id="edge20" class="edge">
<title>4877&#45;&gt;E3</title>
<path fill="none" stroke="#00ff00" stroke-width=".1774" d="M183.383,-156.5619C183.383,-127.2561 183.383,-78.0965 183.383,-46.9981"/>
<polygon fill="#00ff00" stroke="#00ff00" stroke-width=".1774" points="186.8831,-46.8135 183.383,-36.8135 179.8831,-46.8136 186.8831,-46.8135"/>
</g>
<!-- 4877&#45;&gt;445 -->
<g id="edge18" class="edge">
<title>4877&#45;&gt;445</title>
<path fill="none" stroke="#ff0000" stroke-width=".2223" d="M170.5291,-160.1064C163.6747,-149.0229 155.1661,-135.2646 147.8341,-123.4088"/>
<polygon fill="#ff0000" stroke="#ff0000" stroke-width=".2223" points="150.74,-121.4533 142.5035,-114.7893 144.7865,-125.1352 150.74,-121.4533"/>
</g>
<!-- 5292 -->
<g id="node16" class="node">
<title>5292</title>
<ellipse fill="none" stroke="#000000" cx="304.383" cy="-96.8077" rx="24.0833" ry="24.0833"/>
<text text-anchor="middle" x="304.383" y="-94.1077" font-family="Times,serif" font-size="9.00" fill="#000000">5292</text>
</g>
<!-- 4877&#45;&gt;5292 -->
<g id="edge22" class="edge">
<title>4877&#45;&gt;5292</title>
<path fill="none" stroke="#00ff00" stroke-width=".3856" d="M203.4254,-167.4731C221.3409,-155.4183 248.2571,-137.1569 271.383,-120.8494 273.034,-119.6852 274.7264,-118.4822 276.4305,-117.2635"/>
<polygon fill="#00ff00" stroke="#00ff00" stroke-width=".3856" points="278.8485,-119.8349 284.9113,-111.1462 274.7534,-114.1577 278.8485,-119.8349"/>
</g>
<!-- 4243 -->
<g id="node14" class="node">
<title>4243</title>
<ellipse fill="#ffffff" stroke="#000000" cx="238.383" cy="-96.8077" rx="24.0833" ry="24.0833"/>
<text text-anchor="middle" x="238.383" y="-94.1077" font-family="Times,serif" font-size="9.00" fill="#000000">4243</text>
</g>
<!-- 4243&#45;&gt;E4 -->
<g id="edge14" class="edge">
<title>4243&#45;&gt;E4</title>
<path fill="none" stroke="#ff0000" stroke-width=".5877" d="M238.383,-72.4236C238.383,-64.33 238.383,-55.248 238.383,-46.8729"/>
<polygon fill="#ff0000" stroke="#ff0000" stroke-width=".5877" points="241.8831,-46.7701 238.383,-36.7702 234.8831,-46.7702 241.8831,-46.7701"/>
</g>
<!-- 4243&#45;&gt;E6 -->
<g id="edge19" class="edge">
<title>4243&#45;&gt;E6</title>
<path fill="none" stroke="#00ff00" stroke-width=".1037" d="M257.8923,-82.5219C262.3189,-79.3007 267.0057,-75.9062 271.383,-72.7661 289.2807,-59.9273 309.6417,-45.5571 324.9293,-34.8141"/>
<polygon fill="#00ff00" stroke="#00ff00" stroke-width=".1037" points="327.1134,-37.5572 333.2871,-28.947 323.0915,-31.8279 327.1134,-37.5572"/>
</g>
<!-- 445&#45;&gt;E2 -->
<g id="edge13" class="edge">
<title>445&#45;&gt;E2</title>
<path fill="none" stroke="#00ff00" stroke-width=".6939" d="M130.5791,-75.7914C130.2411,-66.9566 129.8426,-56.5385 129.4785,-47.0191"/>
<polygon fill="#00ff00" stroke="#00ff00" stroke-width=".6939" points="132.9668,-46.6445 129.087,-36.7856 125.9719,-46.9121 132.9668,-46.6445"/>
</g>
</g>
</svg>
