<?xml version="1.0" encoding="utf-8" standalone="no"?>
<!DOCTYPE svg PUBLIC "-//W3C//DTD SVG 1.1//EN"
  "http://www.w3.org/Graphics/SVG/1.1/DTD/svg11.dtd">
<!-- Created with matplotlib (https://matplotlib.org/) -->
<svg height="345.6pt" version="1.1" viewBox="0 0 460.8 345.6" width="460.8pt" xmlns="http://www.w3.org/2000/svg" xmlns:xlink="http://www.w3.org/1999/xlink">
 <defs>
  <style type="text/css">
*{stroke-linecap:butt;stroke-linejoin:round;}
  </style>
 </defs>
 <g id="figure_1">
  <g id="patch_1">
   <path d="M 0 345.6 
L 460.8 345.6 
L 460.8 0 
L 0 0 
z
" style="fill:#ffffff;"/>
  </g>
  <g id="axes_1">
   <g id="patch_2">
    <path d="M 57.6 307.584 
L 414.72 307.584 
L 414.72 41.472 
L 57.6 41.472 
z
" style="fill:#ffffff;"/>
   </g>
   <g id="matplotlib.axis_1">
    <g id="xtick_1">
     <g id="line2d_1">
      <path clip-path="url(#pa1eef496b2)" d="M 73.832727 307.584 
L 73.832727 41.472 
" style="fill:none;stroke:#b0b0b0;stroke-linecap:square;stroke-width:0.8;"/>
     </g>
     <g id="line2d_2">
      <defs>
       <path d="M 0 0 
L 0 3.5 
" id="m04ec418e00" style="stroke:#000000;stroke-width:0.8;"/>
      </defs>
      <g>
       <use style="stroke:#000000;stroke-width:0.8;" x="73.832727" xlink:href="#m04ec418e00" y="307.584"/>
      </g>
     </g>
     <g id="text_1">
      <!-- 0 -->
      <defs>
       <path d="M 31.78125 66.40625 
Q 24.171875 66.40625 20.328125 58.90625 
Q 16.5 51.421875 16.5 36.375 
Q 16.5 21.390625 20.328125 13.890625 
Q 24.171875 6.390625 31.78125 6.390625 
Q 39.453125 6.390625 43.28125 13.890625 
Q 47.125 21.390625 47.125 36.375 
Q 47.125 51.421875 43.28125 58.90625 
Q 39.453125 66.40625 31.78125 66.40625 
z
M 31.78125 74.21875 
Q 44.046875 74.21875 50.515625 64.515625 
Q 56.984375 54.828125 56.984375 36.375 
Q 56.984375 17.96875 50.515625 8.265625 
Q 44.046875 -1.421875 31.78125 -1.421875 
Q 19.53125 -1.421875 13.0625 8.265625 
Q 6.59375 17.96875 6.59375 36.375 
Q 6.59375 54.828125 13.0625 64.515625 
Q 19.53125 74.21875 31.78125 74.21875 
z
" id="DejaVuSans-48"/>
      </defs>
      <g transform="translate(70.651477 322.182437)scale(0.1 -0.1)">
       <use xlink:href="#DejaVuSans-48"/>
      </g>
     </g>
    </g>
    <g id="xtick_2">
     <g id="line2d_3">
      <path clip-path="url(#pa1eef496b2)" d="M 128.122785 307.584 
L 128.122785 41.472 
" style="fill:none;stroke:#b0b0b0;stroke-linecap:square;stroke-width:0.8;"/>
     </g>
     <g id="line2d_4">
      <g>
       <use style="stroke:#000000;stroke-width:0.8;" x="128.122785" xlink:href="#m04ec418e00" y="307.584"/>
      </g>
     </g>
     <g id="text_2">
      <!-- 50 -->
      <defs>
       <path d="M 10.796875 72.90625 
L 49.515625 72.90625 
L 49.515625 64.59375 
L 19.828125 64.59375 
L 19.828125 46.734375 
Q 21.96875 47.46875 24.109375 47.828125 
Q 26.265625 48.1875 28.421875 48.1875 
Q 40.625 48.1875 47.75 41.5 
Q 54.890625 34.8125 54.890625 23.390625 
Q 54.890625 11.625 47.5625 5.09375 
Q 40.234375 -1.421875 26.90625 -1.421875 
Q 22.3125 -1.421875 17.546875 -0.640625 
Q 12.796875 0.140625 7.71875 1.703125 
L 7.71875 11.625 
Q 12.109375 9.234375 16.796875 8.0625 
Q 21.484375 6.890625 26.703125 6.890625 
Q 35.15625 6.890625 40.078125 11.328125 
Q 45.015625 15.765625 45.015625 23.390625 
Q 45.015625 31 40.078125 35.4375 
Q 35.15625 39.890625 26.703125 39.890625 
Q 22.75 39.890625 18.8125 39.015625 
Q 14.890625 38.140625 10.796875 36.28125 
z
" id="DejaVuSans-53"/>
      </defs>
      <g transform="translate(121.760285 322.182437)scale(0.1 -0.1)">
       <use xlink:href="#DejaVuSans-53"/>
       <use x="63.623047" xlink:href="#DejaVuSans-48"/>
      </g>
     </g>
    </g>
    <g id="xtick_3">
     <g id="line2d_5">
      <path clip-path="url(#pa1eef496b2)" d="M 182.412843 307.584 
L 182.412843 41.472 
" style="fill:none;stroke:#b0b0b0;stroke-linecap:square;stroke-width:0.8;"/>
     </g>
     <g id="line2d_6">
      <g>
       <use style="stroke:#000000;stroke-width:0.8;" x="182.412843" xlink:href="#m04ec418e00" y="307.584"/>
      </g>
     </g>
     <g id="text_3">
      <!-- 100 -->
      <defs>
       <path d="M 12.40625 8.296875 
L 28.515625 8.296875 
L 28.515625 63.921875 
L 10.984375 60.40625 
L 10.984375 69.390625 
L 28.421875 72.90625 
L 38.28125 72.90625 
L 38.28125 8.296875 
L 54.390625 8.296875 
L 54.390625 0 
L 12.40625 0 
z
" id="DejaVuSans-49"/>
      </defs>
      <g transform="translate(172.869093 322.182437)scale(0.1 -0.1)">
       <use xlink:href="#DejaVuSans-49"/>
       <use x="63.623047" xlink:href="#DejaVuSans-48"/>
       <use x="127.246094" xlink:href="#DejaVuSans-48"/>
      </g>
     </g>
    </g>
    <g id="xtick_4">
     <g id="line2d_7">
      <path clip-path="url(#pa1eef496b2)" d="M 236.702901 307.584 
L 236.702901 41.472 
" style="fill:none;stroke:#b0b0b0;stroke-linecap:square;stroke-width:0.8;"/>
     </g>
     <g id="line2d_8">
      <g>
       <use style="stroke:#000000;stroke-width:0.8;" x="236.702901" xlink:href="#m04ec418e00" y="307.584"/>
      </g>
     </g>
     <g id="text_4">
      <!-- 150 -->
      <g transform="translate(227.159151 322.182437)scale(0.1 -0.1)">
       <use xlink:href="#DejaVuSans-49"/>
       <use x="63.623047" xlink:href="#DejaVuSans-53"/>
       <use x="127.246094" xlink:href="#DejaVuSans-48"/>
      </g>
     </g>
    </g>
    <g id="xtick_5">
     <g id="line2d_9">
      <path clip-path="url(#pa1eef496b2)" d="M 290.992958 307.584 
L 290.992958 41.472 
" style="fill:none;stroke:#b0b0b0;stroke-linecap:square;stroke-width:0.8;"/>
     </g>
     <g id="line2d_10">
      <g>
       <use style="stroke:#000000;stroke-width:0.8;" x="290.992958" xlink:href="#m04ec418e00" y="307.584"/>
      </g>
     </g>
     <g id="text_5">
      <!-- 200 -->
      <defs>
       <path d="M 19.1875 8.296875 
L 53.609375 8.296875 
L 53.609375 0 
L 7.328125 0 
L 7.328125 8.296875 
Q 12.9375 14.109375 22.625 23.890625 
Q 32.328125 33.6875 34.8125 36.53125 
Q 39.546875 41.84375 41.421875 45.53125 
Q 43.3125 49.21875 43.3125 52.78125 
Q 43.3125 58.59375 39.234375 62.25 
Q 35.15625 65.921875 28.609375 65.921875 
Q 23.96875 65.921875 18.8125 64.3125 
Q 13.671875 62.703125 7.8125 59.421875 
L 7.8125 69.390625 
Q 13.765625 71.78125 18.9375 73 
Q 24.125 74.21875 28.421875 74.21875 
Q 39.75 74.21875 46.484375 68.546875 
Q 53.21875 62.890625 53.21875 53.421875 
Q 53.21875 48.921875 51.53125 44.890625 
Q 49.859375 40.875 45.40625 35.40625 
Q 44.1875 33.984375 37.640625 27.21875 
Q 31.109375 20.453125 19.1875 8.296875 
z
" id="DejaVuSans-50"/>
      </defs>
      <g transform="translate(281.449208 322.182437)scale(0.1 -0.1)">
       <use xlink:href="#DejaVuSans-50"/>
       <use x="63.623047" xlink:href="#DejaVuSans-48"/>
       <use x="127.246094" xlink:href="#DejaVuSans-48"/>
      </g>
     </g>
    </g>
    <g id="xtick_6">
     <g id="line2d_11">
      <path clip-path="url(#pa1eef496b2)" d="M 345.283016 307.584 
L 345.283016 41.472 
" style="fill:none;stroke:#b0b0b0;stroke-linecap:square;stroke-width:0.8;"/>
     </g>
     <g id="line2d_12">
      <g>
       <use style="stroke:#000000;stroke-width:0.8;" x="345.283016" xlink:href="#m04ec418e00" y="307.584"/>
      </g>
     </g>
     <g id="text_6">
      <!-- 250 -->
      <g transform="translate(335.739266 322.182437)scale(0.1 -0.1)">
       <use xlink:href="#DejaVuSans-50"/>
       <use x="63.623047" xlink:href="#DejaVuSans-53"/>
       <use x="127.246094" xlink:href="#DejaVuSans-48"/>
      </g>
     </g>
    </g>
    <g id="xtick_7">
     <g id="line2d_13">
      <path clip-path="url(#pa1eef496b2)" d="M 399.573074 307.584 
L 399.573074 41.472 
" style="fill:none;stroke:#b0b0b0;stroke-linecap:square;stroke-width:0.8;"/>
     </g>
     <g id="line2d_14">
      <g>
       <use style="stroke:#000000;stroke-width:0.8;" x="399.573074" xlink:href="#m04ec418e00" y="307.584"/>
      </g>
     </g>
     <g id="text_7">
      <!-- 300 -->
      <defs>
       <path d="M 40.578125 39.3125 
Q 47.65625 37.796875 51.625 33 
Q 55.609375 28.21875 55.609375 21.1875 
Q 55.609375 10.40625 48.1875 4.484375 
Q 40.765625 -1.421875 27.09375 -1.421875 
Q 22.515625 -1.421875 17.65625 -0.515625 
Q 12.796875 0.390625 7.625 2.203125 
L 7.625 11.71875 
Q 11.71875 9.328125 16.59375 8.109375 
Q 21.484375 6.890625 26.8125 6.890625 
Q 36.078125 6.890625 40.9375 10.546875 
Q 45.796875 14.203125 45.796875 21.1875 
Q 45.796875 27.640625 41.28125 31.265625 
Q 36.765625 34.90625 28.71875 34.90625 
L 20.21875 34.90625 
L 20.21875 43.015625 
L 29.109375 43.015625 
Q 36.375 43.015625 40.234375 45.921875 
Q 44.09375 48.828125 44.09375 54.296875 
Q 44.09375 59.90625 40.109375 62.90625 
Q 36.140625 65.921875 28.71875 65.921875 
Q 24.65625 65.921875 20.015625 65.03125 
Q 15.375 64.15625 9.8125 62.3125 
L 9.8125 71.09375 
Q 15.4375 72.65625 20.34375 73.4375 
Q 25.25 74.21875 29.59375 74.21875 
Q 40.828125 74.21875 47.359375 69.109375 
Q 53.90625 64.015625 53.90625 55.328125 
Q 53.90625 49.265625 50.4375 45.09375 
Q 46.96875 40.921875 40.578125 39.3125 
z
" id="DejaVuSans-51"/>
      </defs>
      <g transform="translate(390.029324 322.182437)scale(0.1 -0.1)">
       <use xlink:href="#DejaVuSans-51"/>
       <use x="63.623047" xlink:href="#DejaVuSans-48"/>
       <use x="127.246094" xlink:href="#DejaVuSans-48"/>
      </g>
     </g>
    </g>
    <g id="text_8">
     <!-- Generations -->
     <defs>
      <path d="M 59.515625 10.40625 
L 59.515625 29.984375 
L 43.40625 29.984375 
L 43.40625 38.09375 
L 69.28125 38.09375 
L 69.28125 6.78125 
Q 63.578125 2.734375 56.6875 0.65625 
Q 49.8125 -1.421875 42 -1.421875 
Q 24.90625 -1.421875 15.25 8.5625 
Q 5.609375 18.5625 5.609375 36.375 
Q 5.609375 54.25 15.25 64.234375 
Q 24.90625 74.21875 42 74.21875 
Q 49.125 74.21875 55.546875 72.453125 
Q 61.96875 70.703125 67.390625 67.28125 
L 67.390625 56.78125 
Q 61.921875 61.421875 55.765625 63.765625 
Q 49.609375 66.109375 42.828125 66.109375 
Q 29.4375 66.109375 22.71875 58.640625 
Q 16.015625 51.171875 16.015625 36.375 
Q 16.015625 21.625 22.71875 14.15625 
Q 29.4375 6.6875 42.828125 6.6875 
Q 48.046875 6.6875 52.140625 7.59375 
Q 56.25 8.5 59.515625 10.40625 
z
" id="DejaVuSans-71"/>
      <path d="M 56.203125 29.59375 
L 56.203125 25.203125 
L 14.890625 25.203125 
Q 15.484375 15.921875 20.484375 11.0625 
Q 25.484375 6.203125 34.421875 6.203125 
Q 39.59375 6.203125 44.453125 7.46875 
Q 49.3125 8.734375 54.109375 11.28125 
L 54.109375 2.78125 
Q 49.265625 0.734375 44.1875 -0.34375 
Q 39.109375 -1.421875 33.890625 -1.421875 
Q 20.796875 -1.421875 13.15625 6.1875 
Q 5.515625 13.8125 5.515625 26.8125 
Q 5.515625 40.234375 12.765625 48.109375 
Q 20.015625 56 32.328125 56 
Q 43.359375 56 49.78125 48.890625 
Q 56.203125 41.796875 56.203125 29.59375 
z
M 47.21875 32.234375 
Q 47.125 39.59375 43.09375 43.984375 
Q 39.0625 48.390625 32.421875 48.390625 
Q 24.90625 48.390625 20.390625 44.140625 
Q 15.875 39.890625 15.1875 32.171875 
z
" id="DejaVuSans-101"/>
      <path d="M 54.890625 33.015625 
L 54.890625 0 
L 45.90625 0 
L 45.90625 32.71875 
Q 45.90625 40.484375 42.875 44.328125 
Q 39.84375 48.1875 33.796875 48.1875 
Q 26.515625 48.1875 22.3125 43.546875 
Q 18.109375 38.921875 18.109375 30.90625 
L 18.109375 0 
L 9.078125 0 
L 9.078125 54.6875 
L 18.109375 54.6875 
L 18.109375 46.1875 
Q 21.34375 51.125 25.703125 53.5625 
Q 30.078125 56 35.796875 56 
Q 45.21875 56 50.046875 50.171875 
Q 54.890625 44.34375 54.890625 33.015625 
z
" id="DejaVuSans-110"/>
      <path d="M 41.109375 46.296875 
Q 39.59375 47.171875 37.8125 47.578125 
Q 36.03125 48 33.890625 48 
Q 26.265625 48 22.1875 43.046875 
Q 18.109375 38.09375 18.109375 28.8125 
L 18.109375 0 
L 9.078125 0 
L 9.078125 54.6875 
L 18.109375 54.6875 
L 18.109375 46.1875 
Q 20.953125 51.171875 25.484375 53.578125 
Q 30.03125 56 36.53125 56 
Q 37.453125 56 38.578125 55.875 
Q 39.703125 55.765625 41.0625 55.515625 
z
" id="DejaVuSans-114"/>
      <path d="M 34.28125 27.484375 
Q 23.390625 27.484375 19.1875 25 
Q 14.984375 22.515625 14.984375 16.5 
Q 14.984375 11.71875 18.140625 8.90625 
Q 21.296875 6.109375 26.703125 6.109375 
Q 34.1875 6.109375 38.703125 11.40625 
Q 43.21875 16.703125 43.21875 25.484375 
L 43.21875 27.484375 
z
M 52.203125 31.203125 
L 52.203125 0 
L 43.21875 0 
L 43.21875 8.296875 
Q 40.140625 3.328125 35.546875 0.953125 
Q 30.953125 -1.421875 24.3125 -1.421875 
Q 15.921875 -1.421875 10.953125 3.296875 
Q 6 8.015625 6 15.921875 
Q 6 25.140625 12.171875 29.828125 
Q 18.359375 34.515625 30.609375 34.515625 
L 43.21875 34.515625 
L 43.21875 35.40625 
Q 43.21875 41.609375 39.140625 45 
Q 35.0625 48.390625 27.6875 48.390625 
Q 23 48.390625 18.546875 47.265625 
Q 14.109375 46.140625 10.015625 43.890625 
L 10.015625 52.203125 
Q 14.9375 54.109375 19.578125 55.046875 
Q 24.21875 56 28.609375 56 
Q 40.484375 56 46.34375 49.84375 
Q 52.203125 43.703125 52.203125 31.203125 
z
" id="DejaVuSans-97"/>
      <path d="M 18.3125 70.21875 
L 18.3125 54.6875 
L 36.8125 54.6875 
L 36.8125 47.703125 
L 18.3125 47.703125 
L 18.3125 18.015625 
Q 18.3125 11.328125 20.140625 9.421875 
Q 21.96875 7.515625 27.59375 7.515625 
L 36.8125 7.515625 
L 36.8125 0 
L 27.59375 0 
Q 17.1875 0 13.234375 3.875 
Q 9.28125 7.765625 9.28125 18.015625 
L 9.28125 47.703125 
L 2.6875 47.703125 
L 2.6875 54.6875 
L 9.28125 54.6875 
L 9.28125 70.21875 
z
" id="DejaVuSans-116"/>
      <path d="M 9.421875 54.6875 
L 18.40625 54.6875 
L 18.40625 0 
L 9.421875 0 
z
M 9.421875 75.984375 
L 18.40625 75.984375 
L 18.40625 64.59375 
L 9.421875 64.59375 
z
" id="DejaVuSans-105"/>
      <path d="M 30.609375 48.390625 
Q 23.390625 48.390625 19.1875 42.75 
Q 14.984375 37.109375 14.984375 27.296875 
Q 14.984375 17.484375 19.15625 11.84375 
Q 23.34375 6.203125 30.609375 6.203125 
Q 37.796875 6.203125 41.984375 11.859375 
Q 46.1875 17.53125 46.1875 27.296875 
Q 46.1875 37.015625 41.984375 42.703125 
Q 37.796875 48.390625 30.609375 48.390625 
z
M 30.609375 56 
Q 42.328125 56 49.015625 48.375 
Q 55.71875 40.765625 55.71875 27.296875 
Q 55.71875 13.875 49.015625 6.21875 
Q 42.328125 -1.421875 30.609375 -1.421875 
Q 18.84375 -1.421875 12.171875 6.21875 
Q 5.515625 13.875 5.515625 27.296875 
Q 5.515625 40.765625 12.171875 48.375 
Q 18.84375 56 30.609375 56 
z
" id="DejaVuSans-111"/>
      <path d="M 44.28125 53.078125 
L 44.28125 44.578125 
Q 40.484375 46.53125 36.375 47.5 
Q 32.28125 48.484375 27.875 48.484375 
Q 21.1875 48.484375 17.84375 46.4375 
Q 14.5 44.390625 14.5 40.28125 
Q 14.5 37.15625 16.890625 35.375 
Q 19.28125 33.59375 26.515625 31.984375 
L 29.59375 31.296875 
Q 39.15625 29.25 43.1875 25.515625 
Q 47.21875 21.78125 47.21875 15.09375 
Q 47.21875 7.46875 41.1875 3.015625 
Q 35.15625 -1.421875 24.609375 -1.421875 
Q 20.21875 -1.421875 15.453125 -0.5625 
Q 10.6875 0.296875 5.421875 2 
L 5.421875 11.28125 
Q 10.40625 8.6875 15.234375 7.390625 
Q 20.0625 6.109375 24.8125 6.109375 
Q 31.15625 6.109375 34.5625 8.28125 
Q 37.984375 10.453125 37.984375 14.40625 
Q 37.984375 18.0625 35.515625 20.015625 
Q 33.0625 21.96875 24.703125 23.78125 
L 21.578125 24.515625 
Q 13.234375 26.265625 9.515625 29.90625 
Q 5.8125 33.546875 5.8125 39.890625 
Q 5.8125 47.609375 11.28125 51.796875 
Q 16.75 56 26.8125 56 
Q 31.78125 56 36.171875 55.265625 
Q 40.578125 54.546875 44.28125 53.078125 
z
" id="DejaVuSans-115"/>
     </defs>
     <g transform="translate(205.662344 335.860562)scale(0.1 -0.1)">
      <use xlink:href="#DejaVuSans-71"/>
      <use x="77.490234" xlink:href="#DejaVuSans-101"/>
      <use x="139.013672" xlink:href="#DejaVuSans-110"/>
      <use x="202.392578" xlink:href="#DejaVuSans-101"/>
      <use x="263.916016" xlink:href="#DejaVuSans-114"/>
      <use x="305.029297" xlink:href="#DejaVuSans-97"/>
      <use x="366.308594" xlink:href="#DejaVuSans-116"/>
      <use x="405.517578" xlink:href="#DejaVuSans-105"/>
      <use x="433.300781" xlink:href="#DejaVuSans-111"/>
      <use x="494.482422" xlink:href="#DejaVuSans-110"/>
      <use x="557.861328" xlink:href="#DejaVuSans-115"/>
     </g>
    </g>
   </g>
   <g id="matplotlib.axis_2">
    <g id="ytick_1">
     <g id="line2d_15">
      <path clip-path="url(#pa1eef496b2)" d="M 57.6 291.682752 
L 414.72 291.682752 
" style="fill:none;stroke:#b0b0b0;stroke-linecap:square;stroke-width:0.8;"/>
     </g>
     <g id="line2d_16">
      <defs>
       <path d="M 0 0 
L -3.5 0 
" id="mc9358505f8" style="stroke:#000000;stroke-width:0.8;"/>
      </defs>
      <g>
       <use style="stroke:#000000;stroke-width:0.8;" x="57.6" xlink:href="#mc9358505f8" y="291.682752"/>
      </g>
     </g>
     <g id="text_9">
      <!-- 500 -->
      <g transform="translate(31.5125 295.48197)scale(0.1 -0.1)">
       <use xlink:href="#DejaVuSans-53"/>
       <use x="63.623047" xlink:href="#DejaVuSans-48"/>
       <use x="127.246094" xlink:href="#DejaVuSans-48"/>
      </g>
     </g>
    </g>
    <g id="ytick_2">
     <g id="line2d_17">
      <path clip-path="url(#pa1eef496b2)" d="M 57.6 233.965934 
L 414.72 233.965934 
" style="fill:none;stroke:#b0b0b0;stroke-linecap:square;stroke-width:0.8;"/>
     </g>
     <g id="line2d_18">
      <g>
       <use style="stroke:#000000;stroke-width:0.8;" x="57.6" xlink:href="#mc9358505f8" y="233.965934"/>
      </g>
     </g>
     <g id="text_10">
      <!-- 1000 -->
      <g transform="translate(25.15 237.765152)scale(0.1 -0.1)">
       <use xlink:href="#DejaVuSans-49"/>
       <use x="63.623047" xlink:href="#DejaVuSans-48"/>
       <use x="127.246094" xlink:href="#DejaVuSans-48"/>
       <use x="190.869141" xlink:href="#DejaVuSans-48"/>
      </g>
     </g>
    </g>
    <g id="ytick_3">
     <g id="line2d_19">
      <path clip-path="url(#pa1eef496b2)" d="M 57.6 176.249116 
L 414.72 176.249116 
" style="fill:none;stroke:#b0b0b0;stroke-linecap:square;stroke-width:0.8;"/>
     </g>
     <g id="line2d_20">
      <g>
       <use style="stroke:#000000;stroke-width:0.8;" x="57.6" xlink:href="#mc9358505f8" y="176.249116"/>
      </g>
     </g>
     <g id="text_11">
      <!-- 1500 -->
      <g transform="translate(25.15 180.048335)scale(0.1 -0.1)">
       <use xlink:href="#DejaVuSans-49"/>
       <use x="63.623047" xlink:href="#DejaVuSans-53"/>
       <use x="127.246094" xlink:href="#DejaVuSans-48"/>
       <use x="190.869141" xlink:href="#DejaVuSans-48"/>
      </g>
     </g>
    </g>
    <g id="ytick_4">
     <g id="line2d_21">
      <path clip-path="url(#pa1eef496b2)" d="M 57.6 118.532298 
L 414.72 118.532298 
" style="fill:none;stroke:#b0b0b0;stroke-linecap:square;stroke-width:0.8;"/>
     </g>
     <g id="line2d_22">
      <g>
       <use style="stroke:#000000;stroke-width:0.8;" x="57.6" xlink:href="#mc9358505f8" y="118.532298"/>
      </g>
     </g>
     <g id="text_12">
      <!-- 2000 -->
      <g transform="translate(25.15 122.331517)scale(0.1 -0.1)">
       <use xlink:href="#DejaVuSans-50"/>
       <use x="63.623047" xlink:href="#DejaVuSans-48"/>
       <use x="127.246094" xlink:href="#DejaVuSans-48"/>
       <use x="190.869141" xlink:href="#DejaVuSans-48"/>
      </g>
     </g>
    </g>
    <g id="ytick_5">
     <g id="line2d_23">
      <path clip-path="url(#pa1eef496b2)" d="M 57.6 60.81548 
L 414.72 60.81548 
" style="fill:none;stroke:#b0b0b0;stroke-linecap:square;stroke-width:0.8;"/>
     </g>
     <g id="line2d_24">
      <g>
       <use style="stroke:#000000;stroke-width:0.8;" x="57.6" xlink:href="#mc9358505f8" y="60.81548"/>
      </g>
     </g>
     <g id="text_13">
      <!-- 2500 -->
      <g transform="translate(25.15 64.614699)scale(0.1 -0.1)">
       <use xlink:href="#DejaVuSans-50"/>
       <use x="63.623047" xlink:href="#DejaVuSans-53"/>
       <use x="127.246094" xlink:href="#DejaVuSans-48"/>
       <use x="190.869141" xlink:href="#DejaVuSans-48"/>
      </g>
     </g>
    </g>
    <g id="text_14">
     <!-- Fitness -->
     <defs>
      <path d="M 9.8125 72.90625 
L 51.703125 72.90625 
L 51.703125 64.59375 
L 19.671875 64.59375 
L 19.671875 43.109375 
L 48.578125 43.109375 
L 48.578125 34.8125 
L 19.671875 34.8125 
L 19.671875 0 
L 9.8125 0 
z
" id="DejaVuSans-70"/>
     </defs>
     <g transform="translate(19.070312 192.202219)rotate(-90)scale(0.1 -0.1)">
      <use xlink:href="#DejaVuSans-70"/>
      <use x="57.410156" xlink:href="#DejaVuSans-105"/>
      <use x="85.193359" xlink:href="#DejaVuSans-116"/>
      <use x="124.402344" xlink:href="#DejaVuSans-110"/>
      <use x="187.78125" xlink:href="#DejaVuSans-101"/>
      <use x="249.304688" xlink:href="#DejaVuSans-115"/>
      <use x="301.404297" xlink:href="#DejaVuSans-115"/>
     </g>
    </g>
   </g>
   <g id="line2d_25">
    <path clip-path="url(#pa1eef496b2)" d="M 73.832727 256.920336 
L 74.918528 215.101109 
L 76.00433 212.108431 
L 77.090131 212.047659 
L 78.175932 208.872781 
L 79.261733 207.313694 
L 80.347534 216.632025 
L 81.433335 189.917852 
L 82.519137 196.880765 
L 83.604938 182.384615 
L 84.690739 178.027699 
L 85.77654 185.212741 
L 86.862341 176.803191 
L 87.948142 178.274956 
L 89.033943 170.743862 
L 90.119745 166.124962 
L 91.205546 176.885713 
L 92.291347 165.043174 
L 93.377148 172.515975 
L 94.462949 171.280241 
L 95.54875 170.415296 
L 96.634552 171.986036 
L 97.720353 167.605906 
L 98.806154 167.772902 
L 99.891955 163.022452 
L 100.977756 159.450837 
L 102.063557 150.746848 
L 103.149358 162.365366 
L 104.23516 163.565917 
L 105.320961 155.150391 
L 106.406762 172.441165 
L 107.492563 172.838215 
L 108.578364 165.560638 
L 109.664165 167.793221 
L 110.749967 171.39296 
L 111.835768 157.616161 
L 112.921569 161.652238 
L 114.00737 152.293041 
L 115.093171 153.544791 
L 116.178972 159.117088 
L 117.264773 152.222799 
L 118.350575 157.849898 
L 119.436376 144.710113 
L 120.522177 143.301003 
L 122.693779 152.361241 
L 123.77958 148.586464 
L 124.865382 139.580195 
L 127.036984 161.363713 
L 128.122785 140.757122 
L 129.208586 137.349843 
L 130.294387 143.208214 
L 131.380189 136.493678 
L 132.46599 150.472583 
L 133.551791 151.852292 
L 134.637592 158.446149 
L 135.723393 141.230231 
L 136.809194 142.819201 
L 137.894995 142.2224 
L 138.980797 135.359207 
L 140.066598 148.551492 
L 141.152399 159.180714 
L 142.2382 151.001074 
L 143.324001 155.487459 
L 144.409802 143.896941 
L 145.495604 144.151538 
L 146.581405 143.879327 
L 147.667206 137.86928 
L 148.753007 143.704667 
L 149.838808 141.815255 
L 150.924609 148.559817 
L 152.01041 143.829352 
L 153.096212 141.326205 
L 154.182013 142.567155 
L 155.267814 136.163809 
L 156.353615 139.868604 
L 157.439416 140.806781 
L 158.525217 148.680745 
L 159.611019 135.91997 
L 160.69682 128.938389 
L 161.782621 137.898707 
L 162.868422 148.040711 
L 163.954223 148.04566 
L 166.125825 135.62439 
L 167.211627 139.875031 
L 168.297428 132.22656 
L 169.383229 146.06237 
L 170.46903 136.526081 
L 171.554831 145.346426 
L 172.640632 135.812024 
L 173.726434 135.866028 
L 174.812235 139.610998 
L 175.898036 140.964775 
L 176.983837 134.603475 
L 178.069638 130.437007 
L 179.155439 138.1158 
L 180.24124 134.864026 
L 181.327042 141.953768 
L 182.412843 136.001534 
L 184.584445 151.80316 
L 185.670246 143.686528 
L 186.756047 130.236973 
L 187.841849 129.531096 
L 188.92765 137.506575 
L 190.013451 136.513008 
L 191.099252 140.215437 
L 192.185053 139.937906 
L 193.270854 135.023093 
L 194.356656 133.384396 
L 195.442457 133.531356 
L 196.528258 144.353701 
L 197.614059 135.747007 
L 198.69986 143.919932 
L 199.785661 137.271584 
L 200.871462 134.253076 
L 201.957264 142.30914 
L 203.043065 137.723526 
L 204.128866 142.046099 
L 205.214667 138.470493 
L 206.300468 133.183946 
L 207.386269 129.985457 
L 208.472071 137.913077 
L 209.557872 127.678886 
L 211.729474 128.681605 
L 212.815275 157.995021 
L 214.986877 133.946624 
L 216.072679 125.278004 
L 217.15848 122.625518 
L 218.244281 134.298804 
L 219.330082 131.402831 
L 220.415883 126.778667 
L 221.501684 136.951725 
L 222.587486 134.400085 
L 223.673287 130.045652 
L 224.759088 135.256798 
L 225.844889 123.171024 
L 226.93069 128.219394 
L 228.016491 127.137933 
L 229.102292 127.282014 
L 230.188094 134.082756 
L 231.273895 131.981694 
L 232.359696 131.415374 
L 233.445497 124.967402 
L 234.531298 127.074527 
L 235.617099 119.250479 
L 236.702901 136.314805 
L 237.788702 124.935678 
L 238.874503 109.549122 
L 239.960304 124.182275 
L 241.046105 129.412144 
L 242.131906 132.097338 
L 243.217708 120.387396 
L 244.303509 118.067934 
L 245.38931 134.676474 
L 246.475111 131.518916 
L 247.560912 113.065715 
L 248.646713 111.551123 
L 249.732514 114.025491 
L 250.818316 118.282351 
L 251.904117 111.215967 
L 252.989918 116.334888 
L 254.075719 130.530551 
L 255.16152 134.552375 
L 256.247321 128.369435 
L 257.333123 137.659042 
L 258.418924 121.959474 
L 259.504725 120.876535 
L 260.590526 129.402592 
L 261.676327 126.085589 
L 262.762128 115.795081 
L 263.847929 136.546914 
L 264.933731 121.238692 
L 266.019532 103.483148 
L 267.105333 142.218616 
L 268.191134 129.808858 
L 269.276935 126.914217 
L 270.362736 119.222544 
L 271.448538 114.796835 
L 272.534339 131.630967 
L 273.62014 134.286211 
L 274.705941 124.450237 
L 275.791742 153.892511 
L 276.877543 137.136388 
L 277.963344 137.838297 
L 279.049146 117.232094 
L 280.134947 131.661741 
L 281.220748 128.856645 
L 282.306549 131.936344 
L 283.39235 132.34446 
L 284.478151 127.077233 
L 285.563953 135.937733 
L 286.649754 109.537137 
L 288.821356 132.487716 
L 289.907157 122.849392 
L 290.992958 119.692398 
L 292.07876 126.481273 
L 293.164561 101.327015 
L 294.250362 124.654587 
L 295.336163 123.32343 
L 296.421964 125.884004 
L 297.507765 121.733984 
L 298.593566 148.033752 
L 299.679368 126.174624 
L 300.765169 141.403811 
L 301.85097 120.531249 
L 302.936771 117.527158 
L 304.022572 122.067905 
L 305.108373 135.902046 
L 306.194175 134.301541 
L 307.279976 141.563279 
L 308.365777 132.501337 
L 309.451578 140.921986 
L 310.537379 134.367051 
L 311.62318 129.140014 
L 312.708981 129.622826 
L 313.794783 130.436684 
L 314.880584 117.753834 
L 315.966385 124.100042 
L 317.052186 140.090892 
L 318.137987 137.727494 
L 319.223788 130.624253 
L 320.30959 131.554258 
L 321.395391 136.729519 
L 322.481192 126.695278 
L 323.566993 119.881199 
L 324.652794 127.178583 
L 325.738595 124.72342 
L 326.824396 121.402161 
L 327.910198 127.032191 
L 328.995999 116.71215 
L 330.0818 123.998923 
L 331.167601 116.716494 
L 332.253402 119.78517 
L 333.339203 127.209295 
L 334.425005 127.504629 
L 335.510806 119.814693 
L 336.596607 127.340608 
L 337.682408 120.278712 
L 338.768209 116.815326 
L 339.85401 127.96798 
L 340.939811 122.202183 
L 342.025613 137.264643 
L 343.111414 122.941385 
L 344.197215 120.974674 
L 345.283016 124.938295 
L 346.368817 118.121833 
L 347.454618 120.377165 
L 348.54042 121.024206 
L 349.626221 124.717556 
L 350.712022 114.380211 
L 351.797823 114.80489 
L 352.883624 116.902806 
L 353.969425 121.92259 
L 355.055227 122.269838 
L 356.141028 115.773425 
L 357.226829 116.837343 
L 358.31263 128.322473 
L 359.398431 120.108315 
L 360.484232 126.840229 
L 361.570033 111.649193 
L 362.655835 123.427579 
L 363.741636 126.503936 
L 364.827437 131.428589 
L 365.913238 138.154838 
L 366.999039 130.95576 
L 368.08484 127.153449 
L 369.170642 136.590582 
L 370.256443 130.796421 
L 371.342244 131.410198 
L 372.428045 132.548299 
L 373.513846 126.267113 
L 374.599647 121.848435 
L 375.685448 118.509834 
L 376.77125 119.930645 
L 377.857051 117.177131 
L 378.942852 117.056191 
L 380.028653 125.333133 
L 381.114454 116.611249 
L 382.200255 121.618262 
L 383.286057 118.518528 
L 384.371858 124.42433 
L 385.457659 139.77939 
L 386.54346 132.483785 
L 387.629261 147.345295 
L 388.715062 128.098787 
L 389.800863 115.980122 
L 390.886665 134.752233 
L 391.972466 136.820129 
L 393.058267 102.628522 
L 395.229869 128.533059 
L 396.31567 128.381307 
L 397.401472 131.702238 
L 398.487273 122.964247 
L 398.487273 122.964247 
" style="fill:none;stroke:#0000ff;stroke-linecap:square;stroke-width:1.5;"/>
   </g>
   <g id="line2d_26">
    <path clip-path="url(#pa1eef496b2)" d="M 73.832727 295.488 
L 74.918528 241.895015 
L 76.00433 234.648499 
L 77.090131 240.764568 
L 78.175932 237.822142 
L 79.261733 239.05727 
L 80.347534 264.473614 
L 81.433335 229.609899 
L 82.519137 239.830459 
L 83.604938 216.825663 
L 84.690739 211.199115 
L 85.77654 222.054809 
L 86.862341 204.754839 
L 87.948142 220.13526 
L 89.033943 199.232188 
L 90.119745 197.584913 
L 91.205546 226.458031 
L 92.291347 202.925311 
L 93.377148 220.848179 
L 95.54875 204.578111 
L 96.634552 209.697682 
L 97.720353 212.354306 
L 98.806154 212.82553 
L 99.891955 195.318644 
L 100.977756 195.077357 
L 102.063557 177.89399 
L 103.149358 203.521656 
L 104.23516 203.253311 
L 105.320961 196.363493 
L 106.406762 217.366854 
L 107.492563 214.679937 
L 108.578364 209.059975 
L 109.664165 211.402535 
L 110.749967 208.378342 
L 111.835768 192.370706 
L 112.921569 208.168806 
L 114.00737 185.497539 
L 115.093171 197.317655 
L 116.178972 195.779784 
L 117.264773 170.965832 
L 118.350575 208.69987 
L 119.436376 171.416132 
L 120.522177 168.051888 
L 121.607978 193.99645 
L 122.693779 186.349732 
L 123.77958 183.661438 
L 124.865382 167.226315 
L 125.951183 189.451921 
L 127.036984 203.894486 
L 128.122785 180.569115 
L 129.208586 165.714538 
L 130.294387 169.896195 
L 131.380189 173.306925 
L 132.46599 173.969089 
L 133.551791 195.22981 
L 134.637592 210.819922 
L 135.723393 171.975829 
L 136.809194 171.289388 
L 137.894995 171.139852 
L 138.980797 154.360367 
L 140.066598 172.167148 
L 141.152399 216.053805 
L 142.2382 205.446509 
L 143.324001 207.665909 
L 144.409802 173.984346 
L 145.495604 190.234117 
L 146.581405 167.508322 
L 147.667206 164.062588 
L 148.753007 182.524432 
L 149.838808 185.064443 
L 150.924609 194.671938 
L 152.01041 172.447652 
L 153.096212 181.007504 
L 154.182013 180.654567 
L 155.267814 166.950366 
L 156.353615 182.316303 
L 157.439416 179.941185 
L 158.525217 190.432835 
L 159.611019 185.072118 
L 160.69682 160.366741 
L 161.782621 175.396957 
L 162.868422 193.87139 
L 163.954223 196.392886 
L 165.040024 189.811506 
L 166.125825 166.26805 
L 167.211627 160.781387 
L 168.297428 153.866955 
L 169.383229 180.442892 
L 170.46903 158.949702 
L 171.554831 187.486022 
L 172.640632 172.758307 
L 173.726434 166.811794 
L 174.812235 178.257458 
L 175.898036 182.985856 
L 176.983837 158.703326 
L 178.069638 147.045018 
L 179.155439 177.83244 
L 180.24124 167.453791 
L 181.327042 185.967922 
L 182.412843 174.790082 
L 183.498644 173.465865 
L 184.584445 184.126806 
L 185.670246 187.265413 
L 186.756047 164.480565 
L 187.841849 153.699186 
L 188.92765 172.771506 
L 190.013451 165.052766 
L 191.099252 168.337233 
L 192.185053 168.719699 
L 193.270854 160.215261 
L 194.356656 164.161078 
L 195.442457 166.403587 
L 196.528258 180.562332 
L 197.614059 171.425704 
L 198.69986 188.421099 
L 199.785661 174.838612 
L 200.871462 171.319444 
L 201.957264 187.285894 
L 203.043065 181.109428 
L 204.128866 185.944574 
L 206.300468 163.068433 
L 207.386269 163.54887 
L 208.472071 187.105276 
L 209.557872 157.358471 
L 210.643673 149.180045 
L 211.729474 147.494454 
L 212.815275 201.589972 
L 213.901076 188.807557 
L 214.986877 150.839472 
L 216.072679 158.297207 
L 217.15848 142.840868 
L 218.244281 178.437069 
L 219.330082 168.762759 
L 220.415883 167.693783 
L 221.501684 184.953817 
L 222.587486 180.725536 
L 223.673287 175.410347 
L 224.759088 182.154324 
L 225.844889 154.999741 
L 226.93069 167.312224 
L 228.016491 166.588659 
L 229.102292 152.159923 
L 230.188094 183.794047 
L 231.273895 175.645278 
L 232.359696 177.504195 
L 233.445497 167.20654 
L 234.531298 172.487863 
L 235.617099 160.577478 
L 236.702901 193.664653 
L 237.788702 174.899754 
L 238.874503 152.65921 
L 239.960304 167.860634 
L 241.046105 193.965964 
L 242.131906 181.28643 
L 243.217708 159.296312 
L 244.303509 145.940085 
L 245.38931 193.796546 
L 246.475111 191.573488 
L 247.560912 153.347752 
L 248.646713 150.894547 
L 250.818316 165.403439 
L 251.904117 135.633591 
L 252.989918 146.972707 
L 254.075719 188.257561 
L 255.16152 182.726344 
L 256.247321 179.786873 
L 257.333123 207.379612 
L 258.418924 157.515066 
L 259.504725 168.779799 
L 260.590526 186.707937 
L 261.676327 180.469768 
L 262.762128 163.779686 
L 263.847929 196.068689 
L 264.933731 180.120562 
L 266.019532 134.106791 
L 267.105333 198.565368 
L 268.191134 168.306975 
L 269.276935 179.286772 
L 270.362736 158.16557 
L 271.448538 161.396907 
L 272.534339 191.621383 
L 273.62014 191.578482 
L 274.705941 186.826986 
L 275.791742 229.625202 
L 276.877543 197.011092 
L 277.963344 199.666203 
L 279.049146 170.657656 
L 280.134947 188.806692 
L 281.220748 177.633938 
L 282.306549 159.194091 
L 283.39235 186.642409 
L 284.478151 185.916954 
L 285.563953 187.411528 
L 286.649754 148.546663 
L 287.735555 174.881016 
L 288.821356 188.828259 
L 289.907157 171.614254 
L 290.992958 173.334587 
L 292.07876 186.491105 
L 293.164561 122.538768 
L 294.250362 189.686059 
L 295.336163 175.872538 
L 296.421964 186.219073 
L 297.507765 182.53792 
L 298.593566 222.24887 
L 299.679368 195.019973 
L 300.765169 220.074084 
L 301.85097 163.847134 
L 302.936771 158.645463 
L 304.022572 164.898657 
L 305.108373 204.106673 
L 306.194175 185.335691 
L 307.279976 202.497882 
L 308.365777 188.138729 
L 309.451578 204.781224 
L 310.537379 190.857915 
L 311.62318 182.47938 
L 312.708981 181.381698 
L 313.794783 178.287523 
L 314.880584 155.447491 
L 315.966385 172.912783 
L 317.052186 197.942702 
L 318.137987 198.769314 
L 319.223788 178.54324 
L 320.30959 182.2356 
L 321.395391 195.24761 
L 322.481192 162.672976 
L 323.566993 156.23454 
L 324.652794 167.09062 
L 325.738595 156.577813 
L 327.910198 181.978338 
L 328.995999 153.618954 
L 330.0818 177.4855 
L 331.167601 165.250934 
L 332.253402 159.906941 
L 333.339203 184.300265 
L 334.425005 177.328375 
L 335.510806 159.976794 
L 336.596607 177.902564 
L 337.682408 161.061954 
L 338.768209 162.521406 
L 339.85401 186.271485 
L 340.939811 163.186205 
L 342.025613 192.345771 
L 343.111414 165.874997 
L 344.197215 157.877795 
L 345.283016 166.637888 
L 346.368817 167.680821 
L 347.454618 157.111523 
L 348.54042 164.225972 
L 349.626221 182.499555 
L 350.712022 145.82634 
L 351.797823 158.989541 
L 352.883624 170.756613 
L 353.969425 171.325999 
L 355.055227 169.345029 
L 356.141028 151.764514 
L 357.226829 157.825877 
L 358.31263 188.282061 
L 359.398431 178.080987 
L 360.484232 185.821609 
L 361.570033 153.849605 
L 362.655835 184.9623 
L 363.741636 184.888666 
L 365.913238 212.610338 
L 366.999039 196.28658 
L 368.08484 181.833688 
L 369.170642 205.750706 
L 370.256443 197.823819 
L 371.342244 196.644616 
L 372.428045 196.813144 
L 373.513846 186.401232 
L 374.599647 190.128869 
L 375.685448 169.20399 
L 376.77125 171.741393 
L 377.857051 167.287861 
L 378.942852 167.232085 
L 380.028653 187.884043 
L 381.114454 165.620478 
L 382.200255 182.936518 
L 383.286057 179.565231 
L 384.371858 182.514204 
L 385.457659 215.387376 
L 386.54346 194.267854 
L 387.629261 221.834126 
L 389.800863 158.489208 
L 390.886665 198.833339 
L 391.972466 203.193218 
L 393.058267 136.372315 
L 394.144068 174.736492 
L 395.229869 198.784554 
L 396.31567 190.648621 
L 397.401472 196.755496 
L 398.487273 176.19769 
L 398.487273 176.19769 
" style="fill:none;stroke:#008000;stroke-dasharray:9.6,2.4,1.5,2.4;stroke-dashoffset:0;stroke-width:1.5;"/>
   </g>
   <g id="line2d_27">
    <path clip-path="url(#pa1eef496b2)" d="M 73.832727 218.352671 
L 74.918528 188.307202 
L 76.00433 189.568363 
L 77.090131 183.330749 
L 78.175932 179.92342 
L 79.261733 175.570119 
L 80.347534 168.790436 
L 81.433335 150.225805 
L 82.519137 153.931071 
L 83.604938 147.943567 
L 84.690739 144.856283 
L 85.77654 148.370673 
L 86.862341 148.851542 
L 87.948142 136.414651 
L 89.033943 142.255535 
L 91.205546 127.313396 
L 92.291347 127.161036 
L 93.377148 124.183772 
L 95.54875 136.252481 
L 96.634552 134.27439 
L 97.720353 122.857506 
L 98.806154 122.720273 
L 99.891955 130.72626 
L 100.977756 123.824316 
L 102.063557 123.599706 
L 103.149358 121.209075 
L 104.23516 123.878523 
L 105.320961 113.937289 
L 106.406762 127.515477 
L 107.492563 130.996494 
L 108.578364 122.061301 
L 109.664165 124.183908 
L 110.749967 134.407578 
L 111.835768 122.861615 
L 112.921569 115.135669 
L 114.00737 119.088543 
L 115.093171 109.771927 
L 116.178972 122.454391 
L 117.264773 133.479766 
L 118.350575 106.999925 
L 119.436376 118.004094 
L 120.522177 118.550118 
L 121.607978 102.085099 
L 122.693779 118.37275 
L 123.77958 113.511489 
L 124.865382 111.934076 
L 125.951183 111.127588 
L 127.036984 118.83294 
L 128.122785 100.945129 
L 130.294387 116.520234 
L 131.380189 99.68043 
L 132.46599 126.976077 
L 133.551791 108.474774 
L 134.637592 106.072376 
L 135.723393 110.484632 
L 136.809194 114.349014 
L 137.894995 113.304947 
L 138.980797 116.358048 
L 140.066598 124.935837 
L 141.152399 102.307623 
L 142.2382 96.555639 
L 143.324001 103.309008 
L 144.409802 113.809536 
L 145.495604 98.06896 
L 146.581405 120.250331 
L 147.667206 111.675972 
L 149.838808 98.566066 
L 150.924609 102.447695 
L 152.01041 115.211052 
L 153.096212 101.644906 
L 154.182013 104.479744 
L 155.267814 105.377251 
L 156.353615 97.420905 
L 157.439416 101.672378 
L 158.525217 106.928655 
L 159.611019 86.767822 
L 160.69682 97.510037 
L 161.782621 100.400458 
L 162.868422 102.210032 
L 163.954223 99.698435 
L 165.040024 93.572852 
L 166.125825 104.980731 
L 167.211627 118.968675 
L 168.297428 110.586165 
L 169.383229 111.681847 
L 170.46903 114.10246 
L 171.554831 103.206829 
L 172.640632 98.865741 
L 173.726434 104.920262 
L 174.812235 100.964538 
L 175.898036 98.943695 
L 176.983837 110.503623 
L 178.069638 113.828996 
L 179.155439 98.399159 
L 180.24124 102.274261 
L 181.327042 97.939613 
L 182.412843 97.212987 
L 183.498644 114.732501 
L 184.584445 119.479513 
L 185.670246 100.107642 
L 186.756047 95.993381 
L 187.841849 105.363006 
L 188.92765 102.241644 
L 190.013451 107.97325 
L 191.099252 112.093641 
L 192.185053 111.156114 
L 193.270854 109.830926 
L 194.356656 102.607715 
L 195.442457 100.659125 
L 196.528258 108.14507 
L 197.614059 100.06831 
L 198.69986 99.418765 
L 199.785661 99.704557 
L 200.871462 97.186709 
L 201.957264 97.332386 
L 203.043065 94.337625 
L 205.214667 102.017848 
L 206.300468 103.29946 
L 207.386269 96.422044 
L 208.472071 88.720878 
L 210.643673 107.271618 
L 211.729474 109.868756 
L 212.815275 114.40007 
L 213.901076 103.265789 
L 214.986877 117.053775 
L 216.072679 92.258801 
L 217.15848 102.410168 
L 218.244281 90.16054 
L 219.330082 94.042904 
L 220.415883 85.863551 
L 221.501684 88.949632 
L 222.587486 88.074634 
L 223.673287 84.680958 
L 224.759088 88.359271 
L 225.844889 91.342308 
L 226.93069 89.126564 
L 228.016491 87.687207 
L 229.102292 102.404106 
L 230.188094 84.371465 
L 231.273895 88.31811 
L 232.359696 85.326553 
L 233.445497 82.728263 
L 234.531298 81.661191 
L 235.617099 77.923481 
L 236.702901 78.964956 
L 237.788702 74.971601 
L 238.874503 66.439034 
L 239.960304 80.503916 
L 241.046105 64.858324 
L 242.131906 82.908245 
L 243.217708 81.478481 
L 244.303509 90.195784 
L 245.38931 75.556402 
L 246.475111 71.464345 
L 247.560912 72.783679 
L 248.646713 72.2077 
L 249.732514 70.023542 
L 250.818316 71.161264 
L 251.904117 86.798343 
L 252.989918 85.697068 
L 254.075719 72.803541 
L 255.16152 86.378406 
L 257.333123 67.938472 
L 258.418924 86.403883 
L 259.504725 72.973271 
L 260.590526 72.097247 
L 261.676327 71.70141 
L 262.762128 67.810476 
L 263.847929 77.025139 
L 264.933731 62.356822 
L 266.019532 72.859504 
L 267.105333 85.871863 
L 268.191134 91.31074 
L 269.276935 74.541662 
L 270.362736 80.279518 
L 271.448538 68.196762 
L 272.534339 71.640551 
L 273.62014 76.993939 
L 274.705941 62.073489 
L 275.791742 78.15982 
L 276.877543 77.261684 
L 277.963344 76.010392 
L 279.049146 63.806533 
L 280.134947 74.51679 
L 281.220748 80.079351 
L 282.306549 104.678596 
L 283.39235 78.046512 
L 284.478151 68.237512 
L 285.563953 84.463939 
L 286.649754 70.527611 
L 287.735555 66.340312 
L 288.821356 76.147173 
L 289.907157 74.084529 
L 290.992958 66.050208 
L 292.07876 66.471441 
L 293.164561 80.115261 
L 294.250362 59.623114 
L 295.336163 70.774322 
L 296.421964 65.548936 
L 297.507765 60.930049 
L 298.593566 73.818634 
L 299.679368 57.329274 
L 300.765169 62.733538 
L 301.85097 77.215363 
L 302.936771 76.408853 
L 304.022572 79.237153 
L 305.108373 67.697418 
L 306.194175 83.26739 
L 307.279976 80.628677 
L 308.365777 76.863945 
L 309.451578 77.062749 
L 310.537379 77.876188 
L 311.62318 75.800647 
L 312.708981 77.863955 
L 313.794783 82.585844 
L 314.880584 80.060177 
L 315.966385 75.287301 
L 317.052186 82.239082 
L 318.137987 76.685674 
L 319.223788 82.705266 
L 320.30959 80.872917 
L 321.395391 78.211428 
L 322.481192 90.71758 
L 323.566993 83.527858 
L 324.652794 87.266546 
L 325.738595 92.869026 
L 326.824396 73.293209 
L 327.910198 72.086044 
L 328.995999 79.805346 
L 330.0818 70.512345 
L 331.167601 68.182054 
L 332.253402 79.663399 
L 333.339203 70.118325 
L 334.425005 77.680882 
L 335.510806 79.652593 
L 336.596607 76.778652 
L 337.682408 79.495471 
L 338.768209 71.109245 
L 339.85401 69.664476 
L 340.939811 81.21816 
L 342.025613 82.183515 
L 343.111414 80.007773 
L 344.197215 84.071552 
L 345.283016 83.238701 
L 346.368817 68.562846 
L 347.454618 83.642808 
L 348.54042 77.82244 
L 349.626221 66.935557 
L 350.712022 82.934082 
L 351.797823 70.620239 
L 352.883624 63.049 
L 353.969425 72.519181 
L 355.055227 75.194646 
L 356.141028 79.782335 
L 357.226829 75.848809 
L 358.31263 68.362885 
L 359.398431 62.135643 
L 360.484232 67.85885 
L 361.570033 69.44878 
L 362.655835 61.892858 
L 363.741636 68.119205 
L 364.827437 63.6428 
L 365.913238 63.699338 
L 366.999039 65.624939 
L 368.08484 72.473211 
L 369.170642 67.430457 
L 370.256443 63.769024 
L 371.342244 66.17578 
L 372.428045 68.283454 
L 373.513846 66.132995 
L 374.599647 53.568 
L 375.685448 67.815679 
L 376.77125 68.119897 
L 377.857051 67.066401 
L 378.942852 66.880297 
L 380.028653 62.782222 
L 381.114454 67.60202 
L 382.200255 60.300005 
L 383.286057 57.471826 
L 384.371858 66.334456 
L 385.457659 64.171404 
L 386.54346 70.699716 
L 387.629261 72.856464 
L 388.715062 67.497126 
L 389.800863 73.471035 
L 390.886665 70.671127 
L 391.972466 70.44704 
L 393.058267 68.884729 
L 394.144068 57.653111 
L 395.229869 58.281565 
L 396.31567 66.113994 
L 397.401472 66.648979 
L 398.487273 69.730805 
L 398.487273 69.730805 
" style="fill:none;stroke:#008000;stroke-dasharray:9.6,2.4,1.5,2.4;stroke-dashoffset:0;stroke-width:1.5;"/>
   </g>
   <g id="line2d_28">
    <path clip-path="url(#pa1eef496b2)" d="M 73.832727 200.229765 
L 74.918528 196.563179 
L 76.00433 196.664064 
L 77.090131 182.805994 
L 78.175932 183.420328 
L 79.261733 176.38627 
L 80.347534 161.710023 
L 81.433335 155.48111 
L 82.519137 157.691504 
L 83.604938 149.924579 
L 84.690739 148.331813 
L 85.77654 144.365303 
L 86.862341 143.14759 
L 87.948142 139.506008 
L 89.033943 134.606189 
L 90.119745 133.231618 
L 91.205546 134.072294 
L 92.291347 130.036884 
L 93.377148 128.720923 
L 94.462949 137.870735 
L 95.54875 137.721283 
L 96.634552 140.717454 
L 97.720353 136.713809 
L 98.806154 135.268266 
L 99.891955 130.932855 
L 100.977756 128.960758 
L 102.063557 130.478304 
L 103.149358 128.557503 
L 104.23516 129.211872 
L 105.320961 121.927583 
L 106.406762 127.458113 
L 107.492563 137.588555 
L 108.578364 134.034869 
L 109.664165 132.607207 
L 110.749967 135.856492 
L 111.835768 127.404872 
L 112.921569 120.887602 
L 114.00737 121.768064 
L 115.093171 114.579228 
L 116.178972 129.214141 
L 117.264773 133.645471 
L 118.350575 118.484768 
L 119.436376 117.899109 
L 120.522177 118.404827 
L 121.607978 114.090835 
L 122.693779 127.014313 
L 123.77958 115.947734 
L 124.865382 116.696288 
L 125.951183 114.110848 
L 127.036984 116.840851 
L 128.122785 110.053604 
L 129.208586 106.554391 
L 130.294387 115.177609 
L 131.380189 103.012383 
L 132.46599 122.142482 
L 133.551791 109.336393 
L 134.637592 113.829515 
L 135.723393 111.828832 
L 136.809194 111.511894 
L 137.894995 110.390043 
L 138.980797 113.746381 
L 140.066598 123.421767 
L 141.152399 109.170189 
L 142.2382 107.851787 
L 143.324001 118.641302 
L 144.409802 116.923345 
L 145.495604 114.784793 
L 146.581405 123.072378 
L 147.667206 120.588737 
L 148.753007 117.799055 
L 149.838808 107.504852 
L 150.924609 116.629683 
L 152.01041 119.093228 
L 153.096212 103.12069 
L 154.182013 113.468804 
L 155.267814 110.151265 
L 156.353615 110.981208 
L 157.439416 114.242578 
L 158.525217 116.033046 
L 159.611019 105.130431 
L 160.69682 107.622466 
L 161.782621 107.428411 
L 162.868422 117.714262 
L 163.954223 116.491963 
L 165.040024 104.727552 
L 166.125825 114.447142 
L 167.211627 118.748961 
L 168.297428 112.057843 
L 169.383229 116.207244 
L 170.46903 109.014114 
L 171.554831 110.507964 
L 172.640632 103.068112 
L 173.726434 104.453411 
L 174.812235 106.643873 
L 175.898036 109.987427 
L 176.983837 112.353925 
L 178.069638 114.035442 
L 179.155439 108.241402 
L 180.24124 107.582608 
L 181.327042 111.212121 
L 182.412843 108.874002 
L 184.584445 125.959248 
L 185.670246 110.934037 
L 186.756047 104.20458 
L 187.841849 113.335523 
L 188.92765 113.003246 
L 190.013451 116.222828 
L 191.099252 118.003 
L 192.185053 121.221687 
L 193.270854 111.236755 
L 194.356656 105.778514 
L 195.442457 107.161253 
L 196.528258 113.857095 
L 197.614059 106.962968 
L 198.69986 106.229223 
L 199.785661 106.700212 
L 200.871462 110.005734 
L 203.043065 109.630143 
L 204.128866 109.890745 
L 205.214667 104.184956 
L 206.300468 109.404478 
L 207.386269 103.004564 
L 208.472071 100.343263 
L 209.557872 107.714789 
L 210.643673 107.902644 
L 211.729474 109.606871 
L 212.815275 123.303623 
L 213.901076 111.098159 
L 214.986877 111.480706 
L 216.072679 96.227141 
L 217.15848 96.780957 
L 218.244281 102.676032 
L 219.330082 98.091299 
L 220.415883 100.335755 
L 221.501684 96.955416 
L 222.587486 94.619041 
L 223.673287 97.232794 
L 224.759088 98.44568 
L 225.844889 94.257137 
L 226.93069 96.395696 
L 228.016491 94.088179 
L 229.102292 94.203549 
L 230.188094 91.4845 
L 231.273895 94.833601 
L 232.359696 90.803579 
L 233.445497 87.803454 
L 234.531298 85.87491 
L 235.617099 82.246679 
L 236.702901 88.039019 
L 238.874503 81.169106 
L 239.960304 92.7841 
L 241.046105 85.762711 
L 242.131906 97.002251 
L 243.217708 88.17747 
L 244.303509 90.119256 
L 245.38931 86.813315 
L 246.475111 90.330047 
L 247.560912 87.952831 
L 248.646713 78.725806 
L 249.732514 82.938386 
L 250.818316 84.824286 
L 251.904117 86.365444 
L 252.989918 87.115478 
L 254.075719 89.259218 
L 255.16152 87.748338 
L 256.247321 90.969205 
L 257.333123 81.779033 
L 258.418924 87.320369 
L 259.504725 90.724894 
L 260.590526 87.381392 
L 261.676327 85.464829 
L 262.762128 81.559708 
L 263.847929 93.922293 
L 264.933731 81.268303 
L 266.019532 83.19988 
L 267.105333 94.669015 
L 268.191134 96.409823 
L 269.276935 87.099724 
L 270.362736 89.61157 
L 271.448538 81.219037 
L 272.534339 87.985304 
L 273.62014 85.241496 
L 274.705941 83.751573 
L 275.791742 81.962972 
L 276.877543 88.02662 
L 277.963344 89.131311 
L 279.049146 80.260294 
L 280.134947 84.069699 
L 281.220748 92.521333 
L 282.306549 107.784071 
L 283.39235 91.540394 
L 284.478151 90.483327 
L 285.563953 93.835643 
L 286.649754 81.039885 
L 287.735555 86.498345 
L 288.821356 87.554914 
L 289.907157 89.155893 
L 290.992958 85.232682 
L 292.07876 86.424349 
L 293.164561 81.039878 
L 294.250362 83.296711 
L 295.336163 88.65526 
L 296.421964 85.078174 
L 297.507765 82.676743 
L 298.593566 81.321923 
L 299.679368 76.843501 
L 300.765169 81.726755 
L 301.85097 89.921543 
L 302.936771 81.440021 
L 304.022572 86.153474 
L 305.108373 78.699794 
L 306.194175 87.482296 
L 307.279976 84.779109 
L 308.365777 86.007655 
L 309.451578 88.472061 
L 310.537379 84.243127 
L 311.62318 83.631297 
L 312.708981 88.396999 
L 313.794783 92.643522 
L 314.880584 80.629783 
L 315.966385 79.737536 
L 317.052186 85.626388 
L 318.137987 85.853618 
L 319.223788 88.402066 
L 320.30959 86.75321 
L 321.395391 88.383045 
L 322.481192 87.81025 
L 323.566993 87.419778 
L 324.652794 84.487282 
L 325.738595 88.594394 
L 326.824396 83.609301 
L 327.910198 79.886768 
L 328.995999 81.498405 
L 330.0818 78.189096 
L 331.167601 80.500222 
L 332.253402 78.197649 
L 333.339203 85.439161 
L 334.425005 91.775539 
L 335.510806 85.72473 
L 336.596607 83.907464 
L 337.682408 88.956779 
L 338.768209 80.881336 
L 339.85401 81.108618 
L 340.939811 88.088005 
L 342.025613 89.618669 
L 343.111414 88.223242 
L 344.197215 88.360866 
L 345.283016 82.56502 
L 346.368817 81.667944 
L 347.454618 85.024778 
L 348.54042 79.274415 
L 349.626221 77.894459 
L 350.712022 78.363771 
L 351.797823 75.423595 
L 352.883624 76.055778 
L 353.969425 78.557432 
L 355.055227 83.20141 
L 356.141028 82.260574 
L 357.226829 84.583417 
L 358.31263 83.533303 
L 359.398431 76.818482 
L 360.484232 80.408958 
L 361.570033 76.481221 
L 362.655835 77.582421 
L 363.741636 76.003265 
L 364.827437 77.704066 
L 365.913238 82.034459 
L 366.999039 78.713609 
L 368.08484 84.772231 
L 369.170642 81.406161 
L 370.256443 80.172644 
L 371.342244 80.923463 
L 372.428045 80.491402 
L 373.513846 76.745392 
L 374.599647 71.607572 
L 375.685448 79.331622 
L 376.77125 79.683878 
L 377.857051 83.468885 
L 378.942852 79.216276 
L 380.028653 82.425458 
L 381.114454 75.49372 
L 382.200255 75.395751 
L 383.286057 73.273108 
L 384.371858 76.499959 
L 385.457659 78.710241 
L 386.54346 84.002234 
L 387.629261 83.005866 
L 388.715062 78.768095 
L 389.800863 77.934179 
L 390.886665 81.851773 
L 391.972466 76.577122 
L 393.058267 73.892373 
L 395.229869 76.415134 
L 396.31567 82.479488 
L 397.401472 80.605509 
L 398.487273 75.354104 
L 398.487273 75.354104 
" style="fill:none;stroke:#ff0000;stroke-linecap:square;stroke-width:1.5;"/>
   </g>
   <g id="patch_3">
    <path d="M 57.6 307.584 
L 57.6 41.472 
" style="fill:none;stroke:#000000;stroke-linecap:square;stroke-linejoin:miter;stroke-width:0.8;"/>
   </g>
   <g id="patch_4">
    <path d="M 414.72 307.584 
L 414.72 41.472 
" style="fill:none;stroke:#000000;stroke-linecap:square;stroke-linejoin:miter;stroke-width:0.8;"/>
   </g>
   <g id="patch_5">
    <path d="M 57.6 307.584 
L 414.72 307.584 
" style="fill:none;stroke:#000000;stroke-linecap:square;stroke-linejoin:miter;stroke-width:0.8;"/>
   </g>
   <g id="patch_6">
    <path d="M 57.6 41.472 
L 414.72 41.472 
" style="fill:none;stroke:#000000;stroke-linecap:square;stroke-linejoin:miter;stroke-width:0.8;"/>
   </g>
   <g id="text_15">
    <!-- Population's average and best fitness -->
    <defs>
     <path d="M 19.671875 64.796875 
L 19.671875 37.40625 
L 32.078125 37.40625 
Q 38.96875 37.40625 42.71875 40.96875 
Q 46.484375 44.53125 46.484375 51.125 
Q 46.484375 57.671875 42.71875 61.234375 
Q 38.96875 64.796875 32.078125 64.796875 
z
M 9.8125 72.90625 
L 32.078125 72.90625 
Q 44.34375 72.90625 50.609375 67.359375 
Q 56.890625 61.8125 56.890625 51.125 
Q 56.890625 40.328125 50.609375 34.8125 
Q 44.34375 29.296875 32.078125 29.296875 
L 19.671875 29.296875 
L 19.671875 0 
L 9.8125 0 
z
" id="DejaVuSans-80"/>
     <path d="M 18.109375 8.203125 
L 18.109375 -20.796875 
L 9.078125 -20.796875 
L 9.078125 54.6875 
L 18.109375 54.6875 
L 18.109375 46.390625 
Q 20.953125 51.265625 25.265625 53.625 
Q 29.59375 56 35.59375 56 
Q 45.5625 56 51.78125 48.09375 
Q 58.015625 40.1875 58.015625 27.296875 
Q 58.015625 14.40625 51.78125 6.484375 
Q 45.5625 -1.421875 35.59375 -1.421875 
Q 29.59375 -1.421875 25.265625 0.953125 
Q 20.953125 3.328125 18.109375 8.203125 
z
M 48.6875 27.296875 
Q 48.6875 37.203125 44.609375 42.84375 
Q 40.53125 48.484375 33.40625 48.484375 
Q 26.265625 48.484375 22.1875 42.84375 
Q 18.109375 37.203125 18.109375 27.296875 
Q 18.109375 17.390625 22.1875 11.75 
Q 26.265625 6.109375 33.40625 6.109375 
Q 40.53125 6.109375 44.609375 11.75 
Q 48.6875 17.390625 48.6875 27.296875 
z
" id="DejaVuSans-112"/>
     <path d="M 8.5 21.578125 
L 8.5 54.6875 
L 17.484375 54.6875 
L 17.484375 21.921875 
Q 17.484375 14.15625 20.5 10.265625 
Q 23.53125 6.390625 29.59375 6.390625 
Q 36.859375 6.390625 41.078125 11.03125 
Q 45.3125 15.671875 45.3125 23.6875 
L 45.3125 54.6875 
L 54.296875 54.6875 
L 54.296875 0 
L 45.3125 0 
L 45.3125 8.40625 
Q 42.046875 3.421875 37.71875 1 
Q 33.40625 -1.421875 27.6875 -1.421875 
Q 18.265625 -1.421875 13.375 4.4375 
Q 8.5 10.296875 8.5 21.578125 
z
M 31.109375 56 
z
" id="DejaVuSans-117"/>
     <path d="M 9.421875 75.984375 
L 18.40625 75.984375 
L 18.40625 0 
L 9.421875 0 
z
" id="DejaVuSans-108"/>
     <path d="M 17.921875 72.90625 
L 17.921875 45.796875 
L 9.625 45.796875 
L 9.625 72.90625 
z
" id="DejaVuSans-39"/>
     <path id="DejaVuSans-32"/>
     <path d="M 2.984375 54.6875 
L 12.5 54.6875 
L 29.59375 8.796875 
L 46.6875 54.6875 
L 56.203125 54.6875 
L 35.6875 0 
L 23.484375 0 
z
" id="DejaVuSans-118"/>
     <path d="M 45.40625 27.984375 
Q 45.40625 37.75 41.375 43.109375 
Q 37.359375 48.484375 30.078125 48.484375 
Q 22.859375 48.484375 18.828125 43.109375 
Q 14.796875 37.75 14.796875 27.984375 
Q 14.796875 18.265625 18.828125 12.890625 
Q 22.859375 7.515625 30.078125 7.515625 
Q 37.359375 7.515625 41.375 12.890625 
Q 45.40625 18.265625 45.40625 27.984375 
z
M 54.390625 6.78125 
Q 54.390625 -7.171875 48.1875 -13.984375 
Q 42 -20.796875 29.203125 -20.796875 
Q 24.46875 -20.796875 20.265625 -20.09375 
Q 16.0625 -19.390625 12.109375 -17.921875 
L 12.109375 -9.1875 
Q 16.0625 -11.328125 19.921875 -12.34375 
Q 23.78125 -13.375 27.78125 -13.375 
Q 36.625 -13.375 41.015625 -8.765625 
Q 45.40625 -4.15625 45.40625 5.171875 
L 45.40625 9.625 
Q 42.625 4.78125 38.28125 2.390625 
Q 33.9375 0 27.875 0 
Q 17.828125 0 11.671875 7.65625 
Q 5.515625 15.328125 5.515625 27.984375 
Q 5.515625 40.671875 11.671875 48.328125 
Q 17.828125 56 27.875 56 
Q 33.9375 56 38.28125 53.609375 
Q 42.625 51.21875 45.40625 46.390625 
L 45.40625 54.6875 
L 54.390625 54.6875 
z
" id="DejaVuSans-103"/>
     <path d="M 45.40625 46.390625 
L 45.40625 75.984375 
L 54.390625 75.984375 
L 54.390625 0 
L 45.40625 0 
L 45.40625 8.203125 
Q 42.578125 3.328125 38.25 0.953125 
Q 33.9375 -1.421875 27.875 -1.421875 
Q 17.96875 -1.421875 11.734375 6.484375 
Q 5.515625 14.40625 5.515625 27.296875 
Q 5.515625 40.1875 11.734375 48.09375 
Q 17.96875 56 27.875 56 
Q 33.9375 56 38.25 53.625 
Q 42.578125 51.265625 45.40625 46.390625 
z
M 14.796875 27.296875 
Q 14.796875 17.390625 18.875 11.75 
Q 22.953125 6.109375 30.078125 6.109375 
Q 37.203125 6.109375 41.296875 11.75 
Q 45.40625 17.390625 45.40625 27.296875 
Q 45.40625 37.203125 41.296875 42.84375 
Q 37.203125 48.484375 30.078125 48.484375 
Q 22.953125 48.484375 18.875 42.84375 
Q 14.796875 37.203125 14.796875 27.296875 
z
" id="DejaVuSans-100"/>
     <path d="M 48.6875 27.296875 
Q 48.6875 37.203125 44.609375 42.84375 
Q 40.53125 48.484375 33.40625 48.484375 
Q 26.265625 48.484375 22.1875 42.84375 
Q 18.109375 37.203125 18.109375 27.296875 
Q 18.109375 17.390625 22.1875 11.75 
Q 26.265625 6.109375 33.40625 6.109375 
Q 40.53125 6.109375 44.609375 11.75 
Q 48.6875 17.390625 48.6875 27.296875 
z
M 18.109375 46.390625 
Q 20.953125 51.265625 25.265625 53.625 
Q 29.59375 56 35.59375 56 
Q 45.5625 56 51.78125 48.09375 
Q 58.015625 40.1875 58.015625 27.296875 
Q 58.015625 14.40625 51.78125 6.484375 
Q 45.5625 -1.421875 35.59375 -1.421875 
Q 29.59375 -1.421875 25.265625 0.953125 
Q 20.953125 3.328125 18.109375 8.203125 
L 18.109375 0 
L 9.078125 0 
L 9.078125 75.984375 
L 18.109375 75.984375 
z
" id="DejaVuSans-98"/>
     <path d="M 37.109375 75.984375 
L 37.109375 68.5 
L 28.515625 68.5 
Q 23.6875 68.5 21.796875 66.546875 
Q 19.921875 64.59375 19.921875 59.515625 
L 19.921875 54.6875 
L 34.71875 54.6875 
L 34.71875 47.703125 
L 19.921875 47.703125 
L 19.921875 0 
L 10.890625 0 
L 10.890625 47.703125 
L 2.296875 47.703125 
L 2.296875 54.6875 
L 10.890625 54.6875 
L 10.890625 58.5 
Q 10.890625 67.625 15.140625 71.796875 
Q 19.390625 75.984375 28.609375 75.984375 
z
" id="DejaVuSans-102"/>
    </defs>
    <g transform="translate(123.315 35.472)scale(0.12 -0.12)">
     <use xlink:href="#DejaVuSans-80"/>
     <use x="60.255859" xlink:href="#DejaVuSans-111"/>
     <use x="121.4375" xlink:href="#DejaVuSans-112"/>
     <use x="184.914062" xlink:href="#DejaVuSans-117"/>
     <use x="248.292969" xlink:href="#DejaVuSans-108"/>
     <use x="276.076172" xlink:href="#DejaVuSans-97"/>
     <use x="337.355469" xlink:href="#DejaVuSans-116"/>
     <use x="376.564453" xlink:href="#DejaVuSans-105"/>
     <use x="404.347656" xlink:href="#DejaVuSans-111"/>
     <use x="465.529297" xlink:href="#DejaVuSans-110"/>
     <use x="528.908203" xlink:href="#DejaVuSans-39"/>
     <use x="556.398438" xlink:href="#DejaVuSans-115"/>
     <use x="608.498047" xlink:href="#DejaVuSans-32"/>
     <use x="640.285156" xlink:href="#DejaVuSans-97"/>
     <use x="701.564453" xlink:href="#DejaVuSans-118"/>
     <use x="760.744141" xlink:href="#DejaVuSans-101"/>
     <use x="822.267578" xlink:href="#DejaVuSans-114"/>
     <use x="863.380859" xlink:href="#DejaVuSans-97"/>
     <use x="924.660156" xlink:href="#DejaVuSans-103"/>
     <use x="988.136719" xlink:href="#DejaVuSans-101"/>
     <use x="1049.660156" xlink:href="#DejaVuSans-32"/>
     <use x="1081.447266" xlink:href="#DejaVuSans-97"/>
     <use x="1142.726562" xlink:href="#DejaVuSans-110"/>
     <use x="1206.105469" xlink:href="#DejaVuSans-100"/>
     <use x="1269.582031" xlink:href="#DejaVuSans-32"/>
     <use x="1301.369141" xlink:href="#DejaVuSans-98"/>
     <use x="1364.845703" xlink:href="#DejaVuSans-101"/>
     <use x="1426.369141" xlink:href="#DejaVuSans-115"/>
     <use x="1478.46875" xlink:href="#DejaVuSans-116"/>
     <use x="1517.677734" xlink:href="#DejaVuSans-32"/>
     <use x="1549.464844" xlink:href="#DejaVuSans-102"/>
     <use x="1584.669922" xlink:href="#DejaVuSans-105"/>
     <use x="1612.453125" xlink:href="#DejaVuSans-116"/>
     <use x="1651.662109" xlink:href="#DejaVuSans-110"/>
     <use x="1715.041016" xlink:href="#DejaVuSans-101"/>
     <use x="1776.564453" xlink:href="#DejaVuSans-115"/>
     <use x="1828.664062" xlink:href="#DejaVuSans-115"/>
    </g>
   </g>
   <g id="legend_1">
    <g id="patch_7">
     <path d="M 334.779375 302.584 
L 407.72 302.584 
Q 409.72 302.584 409.72 300.584 
L 409.72 242.8715 
Q 409.72 240.8715 407.72 240.8715 
L 334.779375 240.8715 
Q 332.779375 240.8715 332.779375 242.8715 
L 332.779375 300.584 
Q 332.779375 302.584 334.779375 302.584 
z
" style="fill:#ffffff;opacity:0.8;stroke:#cccccc;stroke-linejoin:miter;"/>
    </g>
    <g id="line2d_29">
     <path d="M 336.779375 248.969937 
L 356.779375 248.969937 
" style="fill:none;stroke:#0000ff;stroke-linecap:square;stroke-width:1.5;"/>
    </g>
    <g id="line2d_30"/>
    <g id="text_16">
     <!-- average -->
     <g transform="translate(364.779375 252.469937)scale(0.1 -0.1)">
      <use xlink:href="#DejaVuSans-97"/>
      <use x="61.279297" xlink:href="#DejaVuSans-118"/>
      <use x="120.458984" xlink:href="#DejaVuSans-101"/>
      <use x="181.982422" xlink:href="#DejaVuSans-114"/>
      <use x="223.095703" xlink:href="#DejaVuSans-97"/>
      <use x="284.375" xlink:href="#DejaVuSans-103"/>
      <use x="347.851562" xlink:href="#DejaVuSans-101"/>
     </g>
    </g>
    <g id="line2d_31">
     <path d="M 336.779375 263.648062 
L 356.779375 263.648062 
" style="fill:none;stroke:#008000;stroke-dasharray:9.6,2.4,1.5,2.4;stroke-dashoffset:0;stroke-width:1.5;"/>
    </g>
    <g id="line2d_32"/>
    <g id="text_17">
     <!-- -1 sd -->
     <defs>
      <path d="M 4.890625 31.390625 
L 31.203125 31.390625 
L 31.203125 23.390625 
L 4.890625 23.390625 
z
" id="DejaVuSans-45"/>
     </defs>
     <g transform="translate(364.779375 267.148062)scale(0.1 -0.1)">
      <use xlink:href="#DejaVuSans-45"/>
      <use x="36.083984" xlink:href="#DejaVuSans-49"/>
      <use x="99.707031" xlink:href="#DejaVuSans-32"/>
      <use x="131.494141" xlink:href="#DejaVuSans-115"/>
      <use x="183.59375" xlink:href="#DejaVuSans-100"/>
     </g>
    </g>
    <g id="line2d_33">
     <path d="M 336.779375 278.326187 
L 356.779375 278.326187 
" style="fill:none;stroke:#008000;stroke-dasharray:9.6,2.4,1.5,2.4;stroke-dashoffset:0;stroke-width:1.5;"/>
    </g>
    <g id="line2d_34"/>
    <g id="text_18">
     <!-- +1 sd -->
     <defs>
      <path d="M 46 62.703125 
L 46 35.5 
L 73.1875 35.5 
L 73.1875 27.203125 
L 46 27.203125 
L 46 0 
L 37.796875 0 
L 37.796875 27.203125 
L 10.59375 27.203125 
L 10.59375 35.5 
L 37.796875 35.5 
L 37.796875 62.703125 
z
" id="DejaVuSans-43"/>
     </defs>
     <g transform="translate(364.779375 281.826187)scale(0.1 -0.1)">
      <use xlink:href="#DejaVuSans-43"/>
      <use x="83.789062" xlink:href="#DejaVuSans-49"/>
      <use x="147.412109" xlink:href="#DejaVuSans-32"/>
      <use x="179.199219" xlink:href="#DejaVuSans-115"/>
      <use x="231.298828" xlink:href="#DejaVuSans-100"/>
     </g>
    </g>
    <g id="line2d_35">
     <path d="M 336.779375 293.004312 
L 356.779375 293.004312 
" style="fill:none;stroke:#ff0000;stroke-linecap:square;stroke-width:1.5;"/>
    </g>
    <g id="line2d_36"/>
    <g id="text_19">
     <!-- best -->
     <g transform="translate(364.779375 296.504312)scale(0.1 -0.1)">
      <use xlink:href="#DejaVuSans-98"/>
      <use x="63.476562" xlink:href="#DejaVuSans-101"/>
      <use x="125" xlink:href="#DejaVuSans-115"/>
      <use x="177.099609" xlink:href="#DejaVuSans-116"/>
     </g>
    </g>
   </g>
  </g>
 </g>
 <defs>
  <clipPath id="pa1eef496b2">
   <rect height="266.112" width="357.12" x="57.6" y="41.472"/>
  </clipPath>
 </defs>
</svg>
