<?xml version="1.0" encoding="UTF-8" standalone="no"?>
<!DOCTYPE svg PUBLIC "-//W3C//DTD SVG 1.1//EN"
 "http://www.w3.org/Graphics/SVG/1.1/DTD/svg11.dtd">
<!-- Generated by graphviz version 2.40.1 (20161225.0304)
 -->
<!-- Title: %3 Pages: 1 -->
<svg width="500pt" height="434pt"
 viewBox="0.00 0.00 499.77 434.10" xmlns="http://www.w3.org/2000/svg" xmlns:xlink="http://www.w3.org/1999/xlink">
<g id="graph0" class="graph" transform="scale(1 1) rotate(0) translate(4 430.0991)">
<title>%3</title>
<polygon fill="#ffffff" stroke="transparent" points="-4,4 -4,-430.0991 495.7744,-430.0991 495.7744,4 -4,4"/>
<!-- 0 -->
<g id="node1" class="node">
<title>0</title>
<polygon fill="#d3d3d3" stroke="#000000" points="109.3973,-426.0991 89.3854,-426.0991 89.3854,-409.0991 109.3973,-409.0991 109.3973,-426.0991"/>
<text text-anchor="middle" x="99.3913" y="-414.8991" font-family="Times,serif" font-size="9.00" fill="#000000">0</text>
</g>
<!-- 1 -->
<g id="node2" class="node">
<title>1</title>
<polygon fill="#d3d3d3" stroke="#000000" points="173.3973,-426.0991 153.3854,-426.0991 153.3854,-409.0991 173.3973,-409.0991 173.3973,-426.0991"/>
<text text-anchor="middle" x="163.3913" y="-414.8991" font-family="Times,serif" font-size="9.00" fill="#000000">1</text>
</g>
<!-- 0&#45;&gt;1 -->
<!-- E8 -->
<g id="node12" class="node">
<title>E8</title>
<ellipse fill="#eee8aa" stroke="#000000" cx="473.3913" cy="-18.383" rx="18.2668" ry="18.2668"/>
<text text-anchor="middle" x="473.3913" y="-15.683" font-family="Times,serif" font-size="9.00" fill="#000000">E8</text>
</g>
<!-- 0&#45;&gt;E8 -->
<g id="edge12" class="edge">
<title>0&#45;&gt;E8</title>
<path fill="none" stroke="#ff0000" stroke-width="1.3482" d="M100.6378,-409.0151C103.8916,-385.8372 112.3913,-320.0224 112.3913,-264.9743 112.3913,-264.9743 112.3913,-264.9743 112.3913,-180.891 112.3913,-19.6238 303.4591,-113.3321 445.3913,-36.7661 446.7348,-36.0414 448.0972,-35.272 449.4604,-34.4747"/>
<polygon fill="#ff0000" stroke="#ff0000" stroke-width="1.3482" points="451.6381,-37.2419 458.279,-28.9866 447.9395,-31.2988 451.6381,-37.2419"/>
</g>
<!-- 5527 -->
<g id="node13" class="node">
<title>5527</title>
<ellipse fill="#add8e6" stroke="#000000" cx="60.3913" cy="-96.8077" rx="24.0833" ry="24.0833"/>
<text text-anchor="middle" x="60.3913" y="-98.6077" font-family="Times,serif" font-size="9.00" fill="#000000">5527</text>
<text text-anchor="middle" x="60.3913" y="-89.6077" font-family="Times,serif" font-size="9.00" fill="#000000">sigm</text>
</g>
<!-- 0&#45;&gt;5527 -->
<g id="edge21" class="edge">
<title>0&#45;&gt;5527</title>
<path fill="none" stroke="#00ff00" stroke-width=".2452" d="M89.1708,-414.7919C72.6784,-409.6458 40.701,-396.9719 27.3913,-373.0991 -19.4107,-289.1533 3.4944,-249.9421 27.3913,-156.8494 30.1928,-145.9359 35.4394,-134.8781 40.938,-125.2771"/>
<polygon fill="#00ff00" stroke="#00ff00" stroke-width=".2452" points="44.0249,-126.9365 46.2155,-116.5706 38.0388,-123.3079 44.0249,-126.9365"/>
</g>
<!-- 4612 -->
<g id="node14" class="node">
<title>4612</title>
<ellipse fill="#add8e6" stroke="#000000" cx="60.3913" cy="-349.0575" rx="24.0833" ry="24.0833"/>
<text text-anchor="middle" x="60.3913" y="-350.8575" font-family="Times,serif" font-size="9.00" fill="#000000">4612</text>
<text text-anchor="middle" x="60.3913" y="-341.8575" font-family="Times,serif" font-size="9.00" fill="#000000">sigm</text>
</g>
<!-- 0&#45;&gt;4612 -->
<g id="edge14" class="edge">
<title>0&#45;&gt;4612</title>
<path fill="none" stroke="#00ff00" stroke-width=".6936" d="M94.452,-408.9183C90.1284,-401.3198 83.5861,-389.8219 77.3872,-378.9273"/>
<polygon fill="#00ff00" stroke="#00ff00" stroke-width=".6936" points="80.3045,-376.9772 72.317,-370.0166 74.2205,-380.439 80.3045,-376.9772"/>
</g>
<!-- 2 -->
<g id="node3" class="node">
<title>2</title>
<polygon fill="#d3d3d3" stroke="#000000" points="236.3973,-426.0991 216.3854,-426.0991 216.3854,-409.0991 236.3973,-409.0991 236.3973,-426.0991"/>
<text text-anchor="middle" x="226.3913" y="-414.8991" font-family="Times,serif" font-size="9.00" fill="#000000">2</text>
</g>
<!-- 1&#45;&gt;2 -->
<!-- E1 -->
<g id="node5" class="node">
<title>E1</title>
<ellipse fill="#ffa07a" stroke="#000000" cx="88.3913" cy="-18.383" rx="18.2668" ry="18.2668"/>
<text text-anchor="middle" x="88.3913" y="-15.683" font-family="Times,serif" font-size="9.00" fill="#000000">E1</text>
</g>
<!-- 1&#45;&gt;E1 -->
<g id="edge17" class="edge">
<title>1&#45;&gt;E1</title>
<path fill="none" stroke="#00ff00" stroke-width=".6336" d="M162.1448,-409.0151C158.8911,-385.8372 150.3913,-320.0224 150.3913,-264.9743 150.3913,-264.9743 150.3913,-264.9743 150.3913,-180.891 150.3913,-128.8959 122.3425,-73.3267 103.9765,-42.5139"/>
<polygon fill="#00ff00" stroke="#00ff00" stroke-width=".6336" points="106.835,-40.4796 98.6294,-33.7775 100.8645,-44.1339 106.835,-40.4796"/>
</g>
<!-- E6 -->
<g id="node10" class="node">
<title>E6</title>
<ellipse fill="#eee8aa" stroke="#000000" cx="363.3913" cy="-18.383" rx="18.2668" ry="18.2668"/>
<text text-anchor="middle" x="363.3913" y="-15.683" font-family="Times,serif" font-size="9.00" fill="#000000">E6</text>
</g>
<!-- 1&#45;&gt;E6 -->
<g id="edge11" class="edge">
<title>1&#45;&gt;E6</title>
<path fill="none" stroke="#00ff00" stroke-width="2.3635" d="M167.7546,-408.8897C192.0231,-360.4479 310.7099,-123.5394 350.4203,-44.2744"/>
<polygon fill="#00ff00" stroke="#00ff00" stroke-width="2.3635" points="353.7186,-45.5046 355.0685,-34.9961 347.46,-42.3691 353.7186,-45.5046"/>
</g>
<!-- 2&#45;&gt;E1 -->
<g id="edge18" class="edge">
<title>2&#45;&gt;E1</title>
<path fill="none" stroke="#ff0000" stroke-width=".155" d="M226.3913,-408.9933C226.3913,-385.7611 226.3913,-319.8238 226.3913,-264.9743 226.3913,-264.9743 226.3913,-264.9743 226.3913,-180.891 226.3913,-145.3853 148.8847,-71.8262 110.0427,-37.1918"/>
<polygon fill="#ff0000" stroke="#ff0000" stroke-width=".155" points="112.1931,-34.4212 102.383,-30.4197 107.5565,-39.6655 112.1931,-34.4212"/>
</g>
<!-- E3 -->
<g id="node7" class="node">
<title>E3</title>
<ellipse fill="#eee8aa" stroke="#000000" cx="198.3913" cy="-18.383" rx="18.2668" ry="18.2668"/>
<text text-anchor="middle" x="198.3913" y="-15.683" font-family="Times,serif" font-size="9.00" fill="#000000">E3</text>
</g>
<!-- 2&#45;&gt;E3 -->
<g id="edge13" class="edge">
<title>2&#45;&gt;E3</title>
<path fill="none" stroke="#ff0000" stroke-width="1.0517" d="M230.1739,-408.8443C239.7855,-385.7753 264.3913,-321.2252 264.3913,-264.9743 264.3913,-264.9743 264.3913,-264.9743 264.3913,-180.891 264.3913,-131.6659 261.2701,-117.344 240.3913,-72.7661 234.7559,-60.7341 226.0744,-48.8779 218.0639,-39.322"/>
<polygon fill="#ff0000" stroke="#ff0000" stroke-width="1.0517" points="220.5059,-36.7974 211.2905,-31.5699 215.2346,-41.4032 220.5059,-36.7974"/>
</g>
<!-- E0 -->
<g id="node4" class="node">
<title>E0</title>
<ellipse fill="#87cefa" stroke="#000000" cx="33.3913" cy="-18.383" rx="18.2668" ry="18.2668"/>
<text text-anchor="middle" x="33.3913" y="-15.683" font-family="Times,serif" font-size="9.00" fill="#000000">E0</text>
</g>
<!-- E0&#45;&gt;E1 -->
<!-- E2 -->
<g id="node6" class="node">
<title>E2</title>
<ellipse fill="#eee8aa" stroke="#000000" cx="143.3913" cy="-18.383" rx="18.2668" ry="18.2668"/>
<text text-anchor="middle" x="143.3913" y="-15.683" font-family="Times,serif" font-size="9.00" fill="#000000">E2</text>
</g>
<!-- E1&#45;&gt;E2 -->
<!-- E2&#45;&gt;E3 -->
<!-- E4 -->
<g id="node8" class="node">
<title>E4</title>
<ellipse fill="#87cefa" stroke="#000000" cx="253.3913" cy="-18.383" rx="18.2668" ry="18.2668"/>
<text text-anchor="middle" x="253.3913" y="-15.683" font-family="Times,serif" font-size="9.00" fill="#000000">E4</text>
</g>
<!-- E3&#45;&gt;E4 -->
<!-- E5 -->
<g id="node9" class="node">
<title>E5</title>
<ellipse fill="#87cefa" stroke="#000000" cx="308.3913" cy="-18.383" rx="18.2668" ry="18.2668"/>
<text text-anchor="middle" x="308.3913" y="-15.683" font-family="Times,serif" font-size="9.00" fill="#000000">E5</text>
</g>
<!-- E4&#45;&gt;E5 -->
<!-- E5&#45;&gt;E6 -->
<!-- E7 -->
<g id="node11" class="node">
<title>E7</title>
<ellipse fill="#eee8aa" stroke="#000000" cx="418.3913" cy="-18.383" rx="18.2668" ry="18.2668"/>
<text text-anchor="middle" x="418.3913" y="-15.683" font-family="Times,serif" font-size="9.00" fill="#000000">E7</text>
</g>
<!-- E6&#45;&gt;E7 -->
<!-- E7&#45;&gt;E8 -->
<!-- 5527&#45;&gt;E6 -->
<g id="edge20" class="edge">
<title>5527&#45;&gt;E6</title>
<path fill="none" stroke="#00ff00" stroke-width=".2366" d="M79.6928,-82.4409C85.4542,-78.7616 91.9556,-75.1696 98.3913,-72.7661 198.1997,-35.4914 235.9007,-74.8808 335.3913,-36.7661 336.8168,-36.22 338.2443,-35.5926 339.6585,-34.9064"/>
<polygon fill="#00ff00" stroke="#00ff00" stroke-width=".2366" points="341.6995,-37.7707 348.6343,-29.7607 338.218,-31.6978 341.6995,-37.7707"/>
</g>
<!-- 3930 -->
<g id="node16" class="node">
<title>3930</title>
<ellipse fill="#add8e6" stroke="#000000" cx="60.3913" cy="-264.9743" rx="24.0833" ry="24.0833"/>
<text text-anchor="middle" x="60.3913" y="-266.7743" font-family="Times,serif" font-size="9.00" fill="#000000">3930</text>
<text text-anchor="middle" x="60.3913" y="-257.7743" font-family="Times,serif" font-size="9.00" fill="#000000">sigm</text>
</g>
<!-- 4612&#45;&gt;3930 -->
<g id="edge15" class="edge">
<title>4612&#45;&gt;3930</title>
<path fill="none" stroke="#ff0000" stroke-width=".3637" d="M60.3913,-324.7372C60.3913,-316.8063 60.3913,-307.8457 60.3913,-299.3219"/>
<polygon fill="#ff0000" stroke="#ff0000" stroke-width=".3637" points="63.8914,-299.2399 60.3913,-289.24 56.8914,-299.24 63.8914,-299.2399"/>
</g>
<!-- 4648 -->
<g id="node15" class="node">
<title>4648</title>
<ellipse fill="#add8e6" stroke="#000000" cx="60.3913" cy="-180.891" rx="24.0833" ry="24.0833"/>
<text text-anchor="middle" x="60.3913" y="-182.691" font-family="Times,serif" font-size="9.00" fill="#000000">4648</text>
<text text-anchor="middle" x="60.3913" y="-173.691" font-family="Times,serif" font-size="9.00" fill="#000000">sigm</text>
</g>
<!-- 4648&#45;&gt;5527 -->
<g id="edge19" class="edge">
<title>4648&#45;&gt;5527</title>
<path fill="none" stroke="#00ff00" stroke-width=".429" d="M60.3913,-156.5706C60.3913,-148.6398 60.3913,-139.6791 60.3913,-131.1553"/>
<polygon fill="#00ff00" stroke="#00ff00" stroke-width=".429" points="63.8914,-131.0734 60.3913,-121.0734 56.8914,-131.0735 63.8914,-131.0734"/>
</g>
<!-- 3930&#45;&gt;4648 -->
<g id="edge16" class="edge">
<title>3930&#45;&gt;4648</title>
<path fill="none" stroke="#ff0000" stroke-width=".2046" d="M60.3913,-240.6539C60.3913,-232.7231 60.3913,-223.7624 60.3913,-215.2386"/>
<polygon fill="#ff0000" stroke="#ff0000" stroke-width=".2046" points="63.8914,-215.1567 60.3913,-205.1567 56.8914,-215.1567 63.8914,-215.1567"/>
</g>
</g>
</svg>
