<?xml version="1.0" encoding="utf-8" standalone="no"?>
<!DOCTYPE svg PUBLIC "-//W3C//DTD SVG 1.1//EN"
  "http://www.w3.org/Graphics/SVG/1.1/DTD/svg11.dtd">
<!-- Created with matplotlib (https://matplotlib.org/) -->
<svg height="345.6pt" version="1.1" viewBox="0 0 460.8 345.6" width="460.8pt" xmlns="http://www.w3.org/2000/svg" xmlns:xlink="http://www.w3.org/1999/xlink">
 <defs>
  <style type="text/css">
*{stroke-linecap:butt;stroke-linejoin:round;}
  </style>
 </defs>
 <g id="figure_1">
  <g id="patch_1">
   <path d="M 0 345.6 
L 460.8 345.6 
L 460.8 0 
L 0 0 
z
" style="fill:#ffffff;"/>
  </g>
  <g id="axes_1">
   <g id="patch_2">
    <path d="M 57.6 307.584 
L 414.72 307.584 
L 414.72 41.472 
L 57.6 41.472 
z
" style="fill:#ffffff;"/>
   </g>
   <g id="PolyCollection_1">
    <path clip-path="url(#p9a5c385082)" d="M 73.832727 261.26094 
L 73.832727 264.090422 
L 74.918528 268.977519 
L 76.00433 269.0728 
L 77.090131 268.493073 
L 78.175932 268.665524 
L 79.261733 270.585131 
L 80.347534 274.400263 
L 81.433335 278.18553 
L 82.519137 284.733765 
L 83.604938 283.831927 
L 84.690739 285.144429 
L 85.77654 288.142037 
L 86.862341 285.986829 
L 87.948142 283.976402 
L 89.033943 282.439094 
L 90.119745 288.728596 
L 91.205546 284.956914 
L 92.291347 284.011951 
L 93.377148 281.205275 
L 94.462949 286.070497 
L 95.54875 284.628227 
L 96.634552 286.112077 
L 97.720353 286.775822 
L 98.806154 289.764675 
L 99.891955 288.224752 
L 100.977756 285.061641 
L 102.063557 286.015054 
L 103.149358 287.879278 
L 104.23516 287.71885 
L 105.320961 290.562827 
L 106.406762 294.827222 
L 107.492563 295.488 
L 108.578364 294.482026 
L 109.664165 292.259824 
L 110.749967 293.384632 
L 111.835768 292.281121 
L 112.921569 290.080417 
L 114.00737 288.016131 
L 115.093171 280.930464 
L 116.178972 275.892563 
L 117.264773 282.538847 
L 118.350575 287.935265 
L 119.436376 283.155056 
L 120.522177 282.216212 
L 121.607978 278.681741 
L 122.693779 279.52089 
L 123.77958 279.213039 
L 124.865382 276.672959 
L 125.951183 271.754431 
L 127.036984 280.007813 
L 128.122785 271.407581 
L 129.208586 275.302337 
L 130.294387 275.92787 
L 131.380189 256.852427 
L 132.46599 264.616756 
L 133.551791 250.418295 
L 134.637592 256.537584 
L 135.723393 263.735305 
L 136.809194 257.615572 
L 137.894995 259.17789 
L 138.980797 243.411276 
L 140.066598 269.075962 
L 141.152399 274.042101 
L 142.2382 264.731437 
L 143.324001 266.060715 
L 144.409802 267.79297 
L 145.495604 274.955898 
L 146.581405 278.586552 
L 147.667206 255.042995 
L 148.753007 257.335869 
L 149.838808 262.336386 
L 150.924609 276.615801 
L 152.01041 272.80717 
L 153.096212 269.273319 
L 154.182013 267.915026 
L 155.267814 270.084671 
L 156.353615 263.968255 
L 157.439416 253.894799 
L 158.525217 257.469711 
L 159.611019 267.344863 
L 160.69682 251.433971 
L 161.782621 263.390732 
L 162.868422 251.003864 
L 163.954223 256.687566 
L 165.040024 247.914293 
L 166.125825 234.525917 
L 167.211627 236.354648 
L 168.297428 235.422784 
L 169.383229 247.322056 
L 170.46903 247.435478 
L 171.554831 268.516861 
L 172.640632 261.137186 
L 173.726434 228.464739 
L 174.812235 221.908629 
L 175.898036 235.441413 
L 176.983837 246.525322 
L 178.069638 252.509282 
L 179.155439 270.933433 
L 180.24124 266.973691 
L 181.327042 261.056157 
L 182.412843 245.901767 
L 183.498644 250.796883 
L 184.584445 232.293398 
L 185.670246 251.856923 
L 186.756047 267.985661 
L 187.841849 271.03694 
L 188.92765 273.321595 
L 190.013451 256.330027 
L 191.099252 254.08737 
L 192.185053 261.23467 
L 193.270854 250.714694 
L 194.356656 249.276331 
L 195.442457 245.692863 
L 196.528258 252.567965 
L 197.614059 265.546869 
L 198.69986 253.617639 
L 199.785661 268.692196 
L 200.871462 277.591813 
L 201.957264 274.808425 
L 203.043065 272.597533 
L 204.128866 269.740291 
L 205.214667 273.667769 
L 206.300468 275.666783 
L 207.386269 271.46938 
L 208.472071 270.203381 
L 209.557872 262.216366 
L 210.643673 278.013432 
L 211.729474 274.372765 
L 212.815275 274.588519 
L 213.901076 276.04164 
L 214.986877 261.50351 
L 216.072679 267.973921 
L 217.15848 260.482238 
L 218.244281 251.738068 
L 219.330082 267.677257 
L 220.415883 267.097458 
L 221.501684 266.11304 
L 222.587486 266.289782 
L 223.673287 276.787841 
L 224.759088 277.66793 
L 225.844889 273.798188 
L 226.93069 267.04863 
L 228.016491 268.099081 
L 229.102292 275.500108 
L 230.188094 268.618153 
L 231.273895 267.723632 
L 232.359696 263.584773 
L 233.445497 258.83277 
L 234.531298 247.656461 
L 235.617099 239.946055 
L 236.702901 260.844532 
L 237.788702 260.182933 
L 238.874503 253.811117 
L 239.960304 258.571368 
L 241.046105 247.490263 
L 242.131906 238.523028 
L 243.217708 252.430906 
L 244.303509 246.547186 
L 245.38931 255.226706 
L 246.475111 262.42353 
L 247.560912 264.312959 
L 248.646713 265.285905 
L 249.732514 248.379902 
L 250.818316 260.53934 
L 251.904117 238.653675 
L 252.989918 230.871823 
L 254.075719 180.730736 
L 255.16152 184.894655 
L 256.247321 213.317258 
L 257.333123 228.668988 
L 258.418924 249.636642 
L 259.504725 253.416214 
L 260.590526 264.437914 
L 261.676327 249.710728 
L 262.762128 251.812622 
L 263.847929 247.579803 
L 264.933731 257.179929 
L 266.019532 256.299967 
L 267.105333 254.422093 
L 268.191134 251.321439 
L 269.276935 247.809329 
L 270.362736 232.053644 
L 271.448538 228.344812 
L 272.534339 216.929657 
L 273.62014 221.423485 
L 274.705941 191.589605 
L 275.791742 221.352631 
L 276.877543 211.813069 
L 277.963344 197.402691 
L 279.049146 197.684522 
L 280.134947 217.104928 
L 281.220748 192.893161 
L 282.306549 190.778875 
L 283.39235 194.235026 
L 284.478151 194.236729 
L 285.563953 213.506638 
L 286.649754 231.357909 
L 287.735555 239.137599 
L 288.821356 245.019003 
L 289.907157 247.490987 
L 290.992958 230.530045 
L 292.07876 220.153115 
L 293.164561 234.137114 
L 294.250362 228.915555 
L 295.336163 242.425264 
L 296.421964 230.381285 
L 297.507765 228.035648 
L 298.593566 255.134829 
L 299.679368 253.387716 
L 300.765169 242.866363 
L 301.85097 247.54541 
L 302.936771 252.745708 
L 304.022572 240.934844 
L 305.108373 253.44476 
L 306.194175 255.130377 
L 307.279976 258.747693 
L 308.365777 262.308298 
L 309.451578 256.98165 
L 310.537379 265.86144 
L 311.62318 269.368599 
L 312.708981 263.466383 
L 313.794783 257.118869 
L 314.880584 257.846149 
L 315.966385 253.842342 
L 317.052186 262.164351 
L 318.137987 252.723524 
L 319.223788 256.038716 
L 320.30959 241.722478 
L 321.395391 232.781792 
L 322.481192 247.750996 
L 323.566993 243.961084 
L 324.652794 229.840688 
L 325.738595 240.283353 
L 326.824396 239.47951 
L 327.910198 235.785384 
L 328.995999 247.015878 
L 330.0818 246.128549 
L 331.167601 249.07051 
L 332.253402 249.39465 
L 333.339203 246.351419 
L 334.425005 249.570344 
L 335.510806 246.405918 
L 336.596607 236.558978 
L 337.682408 237.349272 
L 338.768209 248.300433 
L 339.85401 241.859063 
L 340.939811 252.488056 
L 342.025613 246.406307 
L 343.111414 253.136614 
L 344.197215 246.670101 
L 345.283016 249.942651 
L 346.368817 248.624519 
L 347.454618 236.515205 
L 348.54042 231.36049 
L 349.626221 208.853202 
L 350.712022 198.430471 
L 351.797823 207.531402 
L 352.883624 211.352966 
L 353.969425 208.262315 
L 355.055227 208.097512 
L 356.141028 229.048015 
L 357.226829 233.498272 
L 358.31263 241.774588 
L 359.398431 230.587209 
L 360.484232 223.748052 
L 361.570033 221.182267 
L 362.655835 220.32431 
L 363.741636 224.330148 
L 364.827437 220.586267 
L 365.913238 221.333295 
L 366.999039 211.604527 
L 368.08484 219.598185 
L 369.170642 209.682434 
L 370.256443 210.426629 
L 371.342244 216.694953 
L 372.428045 203.149258 
L 373.513846 191.699448 
L 374.599647 200.745621 
L 375.685448 209.6802 
L 376.77125 204.016313 
L 377.857051 216.525704 
L 378.942852 206.243398 
L 380.028653 214.03057 
L 381.114454 211.486559 
L 382.200255 212.813642 
L 383.286057 225.146134 
L 384.371858 223.555603 
L 385.457659 209.933569 
L 386.54346 207.785514 
L 387.629261 215.118081 
L 388.715062 213.219565 
L 389.800863 216.383766 
L 390.886665 190.008215 
L 391.972466 192.796516 
L 393.058267 177.780026 
L 394.144068 190.671213 
L 395.229869 206.856368 
L 396.31567 186.076217 
L 397.401472 207.532572 
L 398.487273 181.305448 
L 398.487273 100.46975 
L 398.487273 100.46975 
L 397.401472 110.880293 
L 396.31567 103.833486 
L 395.229869 83.024729 
L 394.144068 80.838737 
L 393.058267 63.829543 
L 391.972466 67.659399 
L 390.886665 53.568 
L 389.800863 71.33563 
L 388.715062 93.105099 
L 387.629261 104.020914 
L 386.54346 67.732903 
L 385.457659 83.179089 
L 384.371858 106.395326 
L 383.286057 99.568135 
L 382.200255 96.232333 
L 381.114454 105.804225 
L 380.028653 105.899757 
L 378.942852 102.5932 
L 377.857051 112.354643 
L 376.77125 93.197261 
L 375.685448 111.43644 
L 374.599647 102.545886 
L 373.513846 98.951148 
L 372.428045 84.547434 
L 371.342244 116.171716 
L 370.256443 99.16848 
L 369.170642 109.896166 
L 368.08484 123.863538 
L 366.999039 139.117381 
L 365.913238 130.013523 
L 364.827437 99.885872 
L 363.741636 112.790183 
L 362.655835 155.108938 
L 361.570033 135.099869 
L 360.484232 123.729745 
L 359.398431 134.305693 
L 358.31263 148.856907 
L 357.226829 145.498704 
L 356.141028 143.845871 
L 355.055227 102.249539 
L 353.969425 126.113303 
L 352.883624 143.401452 
L 351.797823 121.336827 
L 350.712022 124.869887 
L 349.626221 125.993268 
L 348.54042 161.939671 
L 347.454618 166.170611 
L 346.368817 210.073186 
L 345.283016 184.411409 
L 344.197215 182.14025 
L 343.111414 188.957996 
L 342.025613 183.99116 
L 340.939811 183.515025 
L 339.85401 184.533846 
L 338.768209 184.674018 
L 337.682408 187.659218 
L 336.596607 199.616888 
L 335.510806 193.817873 
L 334.425005 194.888567 
L 333.339203 190.614184 
L 332.253402 197.265844 
L 331.167601 193.070928 
L 330.0818 200.653999 
L 328.995999 188.644448 
L 327.910198 183.001947 
L 326.824396 168.629828 
L 325.738595 182.492497 
L 324.652794 176.633852 
L 323.566993 179.709552 
L 322.481192 195.227132 
L 321.395391 174.333029 
L 320.30959 188.54869 
L 319.223788 221.854759 
L 318.137987 201.778146 
L 317.052186 186.48627 
L 315.966385 186.455377 
L 314.880584 185.441664 
L 313.794783 188.908195 
L 312.708981 206.840634 
L 311.62318 206.065007 
L 310.537379 198.381992 
L 309.451578 206.129484 
L 308.365777 191.31823 
L 307.279976 207.233561 
L 306.194175 195.266828 
L 305.108373 190.732125 
L 304.022572 180.109408 
L 302.936771 183.504936 
L 301.85097 203.551998 
L 300.765169 183.932124 
L 299.679368 201.678275 
L 298.593566 177.736465 
L 297.507765 156.360303 
L 296.421964 167.509227 
L 295.336163 182.560938 
L 294.250362 162.568781 
L 293.164561 177.598322 
L 292.07876 162.928518 
L 290.992958 163.849385 
L 289.907157 155.607113 
L 288.821356 178.64133 
L 287.735555 164.091392 
L 286.649754 175.279057 
L 285.563953 136.471062 
L 284.478151 130.787802 
L 283.39235 127.113307 
L 282.306549 129.392392 
L 281.220748 122.959841 
L 280.134947 145.774609 
L 279.049146 137.045102 
L 277.963344 124.694336 
L 276.877543 151.517421 
L 275.791742 165.219386 
L 274.705941 133.410134 
L 273.62014 143.838261 
L 272.534339 126.047932 
L 271.448538 131.950348 
L 270.362736 153.316129 
L 269.276935 142.848559 
L 268.191134 159.853939 
L 267.105333 166.071368 
L 266.019532 150.700106 
L 264.933731 170.022346 
L 263.847929 183.200753 
L 262.762128 167.30424 
L 261.676327 176.99899 
L 260.590526 176.991333 
L 259.504725 158.758827 
L 258.418924 184.827973 
L 257.333123 148.260785 
L 256.247321 117.381958 
L 255.16152 114.775757 
L 254.075719 120.523732 
L 252.989918 156.026139 
L 251.904117 147.191481 
L 250.818316 182.05044 
L 249.732514 189.03078 
L 248.646713 161.568519 
L 247.560912 211.253369 
L 246.475111 179.284029 
L 245.38931 161.801036 
L 244.303509 139.692622 
L 243.217708 151.027806 
L 242.131906 172.268583 
L 241.046105 142.475942 
L 239.960304 183.787123 
L 238.874503 167.720581 
L 237.788702 186.076756 
L 236.702901 172.316768 
L 235.617099 165.880326 
L 234.531298 190.464083 
L 233.445497 205.464822 
L 232.359696 160.918899 
L 231.273895 212.871967 
L 230.188094 191.216596 
L 229.102292 194.465548 
L 228.016491 207.085983 
L 226.93069 193.316852 
L 225.844889 204.224983 
L 224.759088 206.303406 
L 223.673287 176.082544 
L 222.587486 155.752198 
L 221.501684 166.960959 
L 220.415883 171.628638 
L 219.330082 193.358302 
L 218.244281 200.084478 
L 217.15848 164.390958 
L 216.072679 185.757935 
L 214.986877 138.700617 
L 213.901076 174.85875 
L 212.815275 213.518432 
L 211.729474 175.481353 
L 210.643673 196.716982 
L 209.557872 211.711538 
L 208.472071 179.144863 
L 207.386269 171.28425 
L 206.300468 212.3961 
L 205.214667 202.843731 
L 204.128866 178.941863 
L 203.043065 182.924509 
L 201.957264 203.706233 
L 200.871462 209.051081 
L 199.785661 201.601612 
L 198.69986 173.338741 
L 197.614059 196.667644 
L 196.528258 185.179296 
L 195.442457 157.550088 
L 194.356656 165.866478 
L 193.270854 181.154124 
L 192.185053 168.532885 
L 191.099252 160.862879 
L 190.013451 166.859946 
L 188.92765 179.143536 
L 187.841849 201.836095 
L 186.756047 172.752611 
L 185.670246 155.117458 
L 184.584445 147.681212 
L 183.498644 131.155272 
L 182.412843 136.139625 
L 181.327042 177.26905 
L 180.24124 178.337615 
L 179.155439 157.228621 
L 178.069638 178.41517 
L 176.983837 163.468748 
L 175.898036 123.09722 
L 174.812235 126.084208 
L 173.726434 151.967992 
L 172.640632 178.984127 
L 171.554831 201.058409 
L 170.46903 168.91289 
L 169.383229 171.938068 
L 168.297428 172.952441 
L 167.211627 167.578835 
L 166.125825 168.549094 
L 165.040024 185.330254 
L 163.954223 172.426108 
L 162.868422 201.091666 
L 161.782621 221.683017 
L 160.69682 205.876507 
L 159.611019 187.987506 
L 158.525217 207.746346 
L 157.439416 197.739691 
L 156.353615 214.535468 
L 155.267814 197.048625 
L 154.182013 221.492382 
L 153.096212 214.398094 
L 152.01041 171.401609 
L 150.924609 189.132929 
L 149.838808 164.781826 
L 148.753007 156.737627 
L 147.667206 131.471729 
L 146.581405 148.821187 
L 145.495604 175.421115 
L 144.409802 181.9906 
L 143.324001 190.009455 
L 142.2382 203.621519 
L 141.152399 202.920725 
L 140.066598 196.86225 
L 138.980797 198.31548 
L 137.894995 198.594197 
L 136.809194 202.625723 
L 135.723393 229.009647 
L 134.637592 224.094703 
L 133.551791 234.475562 
L 132.46599 234.649361 
L 131.380189 236.943628 
L 130.294387 241.798096 
L 129.208586 242.602646 
L 128.122785 243.183479 
L 127.036984 239.695841 
L 125.951183 239.689826 
L 124.865382 242.080759 
L 123.77958 245.090456 
L 122.693779 248.987031 
L 121.607978 242.817731 
L 120.522177 248.885245 
L 119.436376 252.935191 
L 118.350575 253.727332 
L 117.264773 254.415089 
L 116.178972 248.649445 
L 115.093171 253.863352 
L 114.00737 254.383943 
L 112.921569 252.680455 
L 111.835768 269.595595 
L 110.749967 278.484731 
L 109.664165 270.689521 
L 108.578364 288.021923 
L 107.492563 289.902195 
L 106.406762 288.467077 
L 105.320961 282.354475 
L 104.23516 284.623364 
L 103.149358 282.560191 
L 102.063557 280.231563 
L 100.977756 277.927734 
L 99.891955 279.880637 
L 98.806154 282.213597 
L 97.720353 276.121457 
L 96.634552 284.011024 
L 95.54875 279.396789 
L 94.462949 281.518809 
L 93.377148 276.95579 
L 92.291347 279.10502 
L 91.205546 280.25057 
L 90.119745 283.983448 
L 89.033943 280.950994 
L 87.948142 279.098462 
L 86.862341 282.107426 
L 85.77654 282.66699 
L 84.690739 279.273814 
L 83.604938 277.855092 
L 82.519137 278.653705 
L 81.433335 271.997624 
L 80.347534 270.764821 
L 79.261733 265.976482 
L 78.175932 265.169812 
L 77.090131 264.558106 
L 76.00433 264.771057 
L 74.918528 266.00122 
L 73.832727 261.26094 
z
" style="fill:#0000ff;fill-opacity:0.25;"/>
   </g>
   <g id="matplotlib.axis_1">
    <g id="xtick_1">
     <g id="line2d_1">
      <defs>
       <path d="M 0 0 
L 0 3.5 
" id="ma1f3b1c772" style="stroke:#000000;stroke-width:0.8;"/>
      </defs>
      <g>
       <use style="stroke:#000000;stroke-width:0.8;" x="73.832727" xlink:href="#ma1f3b1c772" y="307.584"/>
      </g>
     </g>
     <g id="text_1">
      <!-- 0 -->
      <defs>
       <path d="M 31.78125 66.40625 
Q 24.171875 66.40625 20.328125 58.90625 
Q 16.5 51.421875 16.5 36.375 
Q 16.5 21.390625 20.328125 13.890625 
Q 24.171875 6.390625 31.78125 6.390625 
Q 39.453125 6.390625 43.28125 13.890625 
Q 47.125 21.390625 47.125 36.375 
Q 47.125 51.421875 43.28125 58.90625 
Q 39.453125 66.40625 31.78125 66.40625 
z
M 31.78125 74.21875 
Q 44.046875 74.21875 50.515625 64.515625 
Q 56.984375 54.828125 56.984375 36.375 
Q 56.984375 17.96875 50.515625 8.265625 
Q 44.046875 -1.421875 31.78125 -1.421875 
Q 19.53125 -1.421875 13.0625 8.265625 
Q 6.59375 17.96875 6.59375 36.375 
Q 6.59375 54.828125 13.0625 64.515625 
Q 19.53125 74.21875 31.78125 74.21875 
z
" id="DejaVuSans-48"/>
      </defs>
      <g transform="translate(70.651477 322.182437)scale(0.1 -0.1)">
       <use xlink:href="#DejaVuSans-48"/>
      </g>
     </g>
    </g>
    <g id="xtick_2">
     <g id="line2d_2">
      <g>
       <use style="stroke:#000000;stroke-width:0.8;" x="128.122785" xlink:href="#ma1f3b1c772" y="307.584"/>
      </g>
     </g>
     <g id="text_2">
      <!-- 50 -->
      <defs>
       <path d="M 10.796875 72.90625 
L 49.515625 72.90625 
L 49.515625 64.59375 
L 19.828125 64.59375 
L 19.828125 46.734375 
Q 21.96875 47.46875 24.109375 47.828125 
Q 26.265625 48.1875 28.421875 48.1875 
Q 40.625 48.1875 47.75 41.5 
Q 54.890625 34.8125 54.890625 23.390625 
Q 54.890625 11.625 47.5625 5.09375 
Q 40.234375 -1.421875 26.90625 -1.421875 
Q 22.3125 -1.421875 17.546875 -0.640625 
Q 12.796875 0.140625 7.71875 1.703125 
L 7.71875 11.625 
Q 12.109375 9.234375 16.796875 8.0625 
Q 21.484375 6.890625 26.703125 6.890625 
Q 35.15625 6.890625 40.078125 11.328125 
Q 45.015625 15.765625 45.015625 23.390625 
Q 45.015625 31 40.078125 35.4375 
Q 35.15625 39.890625 26.703125 39.890625 
Q 22.75 39.890625 18.8125 39.015625 
Q 14.890625 38.140625 10.796875 36.28125 
z
" id="DejaVuSans-53"/>
      </defs>
      <g transform="translate(121.760285 322.182437)scale(0.1 -0.1)">
       <use xlink:href="#DejaVuSans-53"/>
       <use x="63.623047" xlink:href="#DejaVuSans-48"/>
      </g>
     </g>
    </g>
    <g id="xtick_3">
     <g id="line2d_3">
      <g>
       <use style="stroke:#000000;stroke-width:0.8;" x="182.412843" xlink:href="#ma1f3b1c772" y="307.584"/>
      </g>
     </g>
     <g id="text_3">
      <!-- 100 -->
      <defs>
       <path d="M 12.40625 8.296875 
L 28.515625 8.296875 
L 28.515625 63.921875 
L 10.984375 60.40625 
L 10.984375 69.390625 
L 28.421875 72.90625 
L 38.28125 72.90625 
L 38.28125 8.296875 
L 54.390625 8.296875 
L 54.390625 0 
L 12.40625 0 
z
" id="DejaVuSans-49"/>
      </defs>
      <g transform="translate(172.869093 322.182437)scale(0.1 -0.1)">
       <use xlink:href="#DejaVuSans-49"/>
       <use x="63.623047" xlink:href="#DejaVuSans-48"/>
       <use x="127.246094" xlink:href="#DejaVuSans-48"/>
      </g>
     </g>
    </g>
    <g id="xtick_4">
     <g id="line2d_4">
      <g>
       <use style="stroke:#000000;stroke-width:0.8;" x="236.702901" xlink:href="#ma1f3b1c772" y="307.584"/>
      </g>
     </g>
     <g id="text_4">
      <!-- 150 -->
      <g transform="translate(227.159151 322.182437)scale(0.1 -0.1)">
       <use xlink:href="#DejaVuSans-49"/>
       <use x="63.623047" xlink:href="#DejaVuSans-53"/>
       <use x="127.246094" xlink:href="#DejaVuSans-48"/>
      </g>
     </g>
    </g>
    <g id="xtick_5">
     <g id="line2d_5">
      <g>
       <use style="stroke:#000000;stroke-width:0.8;" x="290.992958" xlink:href="#ma1f3b1c772" y="307.584"/>
      </g>
     </g>
     <g id="text_5">
      <!-- 200 -->
      <defs>
       <path d="M 19.1875 8.296875 
L 53.609375 8.296875 
L 53.609375 0 
L 7.328125 0 
L 7.328125 8.296875 
Q 12.9375 14.109375 22.625 23.890625 
Q 32.328125 33.6875 34.8125 36.53125 
Q 39.546875 41.84375 41.421875 45.53125 
Q 43.3125 49.21875 43.3125 52.78125 
Q 43.3125 58.59375 39.234375 62.25 
Q 35.15625 65.921875 28.609375 65.921875 
Q 23.96875 65.921875 18.8125 64.3125 
Q 13.671875 62.703125 7.8125 59.421875 
L 7.8125 69.390625 
Q 13.765625 71.78125 18.9375 73 
Q 24.125 74.21875 28.421875 74.21875 
Q 39.75 74.21875 46.484375 68.546875 
Q 53.21875 62.890625 53.21875 53.421875 
Q 53.21875 48.921875 51.53125 44.890625 
Q 49.859375 40.875 45.40625 35.40625 
Q 44.1875 33.984375 37.640625 27.21875 
Q 31.109375 20.453125 19.1875 8.296875 
z
" id="DejaVuSans-50"/>
      </defs>
      <g transform="translate(281.449208 322.182437)scale(0.1 -0.1)">
       <use xlink:href="#DejaVuSans-50"/>
       <use x="63.623047" xlink:href="#DejaVuSans-48"/>
       <use x="127.246094" xlink:href="#DejaVuSans-48"/>
      </g>
     </g>
    </g>
    <g id="xtick_6">
     <g id="line2d_6">
      <g>
       <use style="stroke:#000000;stroke-width:0.8;" x="345.283016" xlink:href="#ma1f3b1c772" y="307.584"/>
      </g>
     </g>
     <g id="text_6">
      <!-- 250 -->
      <g transform="translate(335.739266 322.182437)scale(0.1 -0.1)">
       <use xlink:href="#DejaVuSans-50"/>
       <use x="63.623047" xlink:href="#DejaVuSans-53"/>
       <use x="127.246094" xlink:href="#DejaVuSans-48"/>
      </g>
     </g>
    </g>
    <g id="xtick_7">
     <g id="line2d_7">
      <g>
       <use style="stroke:#000000;stroke-width:0.8;" x="399.573074" xlink:href="#ma1f3b1c772" y="307.584"/>
      </g>
     </g>
     <g id="text_7">
      <!-- 300 -->
      <defs>
       <path d="M 40.578125 39.3125 
Q 47.65625 37.796875 51.625 33 
Q 55.609375 28.21875 55.609375 21.1875 
Q 55.609375 10.40625 48.1875 4.484375 
Q 40.765625 -1.421875 27.09375 -1.421875 
Q 22.515625 -1.421875 17.65625 -0.515625 
Q 12.796875 0.390625 7.625 2.203125 
L 7.625 11.71875 
Q 11.71875 9.328125 16.59375 8.109375 
Q 21.484375 6.890625 26.8125 6.890625 
Q 36.078125 6.890625 40.9375 10.546875 
Q 45.796875 14.203125 45.796875 21.1875 
Q 45.796875 27.640625 41.28125 31.265625 
Q 36.765625 34.90625 28.71875 34.90625 
L 20.21875 34.90625 
L 20.21875 43.015625 
L 29.109375 43.015625 
Q 36.375 43.015625 40.234375 45.921875 
Q 44.09375 48.828125 44.09375 54.296875 
Q 44.09375 59.90625 40.109375 62.90625 
Q 36.140625 65.921875 28.71875 65.921875 
Q 24.65625 65.921875 20.015625 65.03125 
Q 15.375 64.15625 9.8125 62.3125 
L 9.8125 71.09375 
Q 15.4375 72.65625 20.34375 73.4375 
Q 25.25 74.21875 29.59375 74.21875 
Q 40.828125 74.21875 47.359375 69.109375 
Q 53.90625 64.015625 53.90625 55.328125 
Q 53.90625 49.265625 50.4375 45.09375 
Q 46.96875 40.921875 40.578125 39.3125 
z
" id="DejaVuSans-51"/>
      </defs>
      <g transform="translate(390.029324 322.182437)scale(0.1 -0.1)">
       <use xlink:href="#DejaVuSans-51"/>
       <use x="63.623047" xlink:href="#DejaVuSans-48"/>
       <use x="127.246094" xlink:href="#DejaVuSans-48"/>
      </g>
     </g>
    </g>
   </g>
   <g id="matplotlib.axis_2">
    <g id="ytick_1">
     <g id="line2d_8">
      <defs>
       <path d="M 0 0 
L -3.5 0 
" id="m9e91414a1c" style="stroke:#000000;stroke-width:0.8;"/>
      </defs>
      <g>
       <use style="stroke:#000000;stroke-width:0.8;" x="57.6" xlink:href="#m9e91414a1c" y="286.310462"/>
      </g>
     </g>
     <g id="text_8">
      <!-- 1 -->
      <g transform="translate(44.2375 290.109681)scale(0.1 -0.1)">
       <use xlink:href="#DejaVuSans-49"/>
      </g>
     </g>
    </g>
    <g id="ytick_2">
     <g id="line2d_9">
      <g>
       <use style="stroke:#000000;stroke-width:0.8;" x="57.6" xlink:href="#m9e91414a1c" y="255.473268"/>
      </g>
     </g>
     <g id="text_9">
      <!-- 2 -->
      <g transform="translate(44.2375 259.272486)scale(0.1 -0.1)">
       <use xlink:href="#DejaVuSans-50"/>
      </g>
     </g>
    </g>
    <g id="ytick_3">
     <g id="line2d_10">
      <g>
       <use style="stroke:#000000;stroke-width:0.8;" x="57.6" xlink:href="#m9e91414a1c" y="224.636073"/>
      </g>
     </g>
     <g id="text_10">
      <!-- 3 -->
      <g transform="translate(44.2375 228.435292)scale(0.1 -0.1)">
       <use xlink:href="#DejaVuSans-51"/>
      </g>
     </g>
    </g>
    <g id="ytick_4">
     <g id="line2d_11">
      <g>
       <use style="stroke:#000000;stroke-width:0.8;" x="57.6" xlink:href="#m9e91414a1c" y="193.798878"/>
      </g>
     </g>
     <g id="text_11">
      <!-- 4 -->
      <defs>
       <path d="M 37.796875 64.3125 
L 12.890625 25.390625 
L 37.796875 25.390625 
z
M 35.203125 72.90625 
L 47.609375 72.90625 
L 47.609375 25.390625 
L 58.015625 25.390625 
L 58.015625 17.1875 
L 47.609375 17.1875 
L 47.609375 0 
L 37.796875 0 
L 37.796875 17.1875 
L 4.890625 17.1875 
L 4.890625 26.703125 
z
" id="DejaVuSans-52"/>
      </defs>
      <g transform="translate(44.2375 197.598097)scale(0.1 -0.1)">
       <use xlink:href="#DejaVuSans-52"/>
      </g>
     </g>
    </g>
    <g id="ytick_5">
     <g id="line2d_12">
      <g>
       <use style="stroke:#000000;stroke-width:0.8;" x="57.6" xlink:href="#m9e91414a1c" y="162.961683"/>
      </g>
     </g>
     <g id="text_12">
      <!-- 5 -->
      <g transform="translate(44.2375 166.760902)scale(0.1 -0.1)">
       <use xlink:href="#DejaVuSans-53"/>
      </g>
     </g>
    </g>
    <g id="ytick_6">
     <g id="line2d_13">
      <g>
       <use style="stroke:#000000;stroke-width:0.8;" x="57.6" xlink:href="#m9e91414a1c" y="132.124488"/>
      </g>
     </g>
     <g id="text_13">
      <!-- 6 -->
      <defs>
       <path d="M 33.015625 40.375 
Q 26.375 40.375 22.484375 35.828125 
Q 18.609375 31.296875 18.609375 23.390625 
Q 18.609375 15.53125 22.484375 10.953125 
Q 26.375 6.390625 33.015625 6.390625 
Q 39.65625 6.390625 43.53125 10.953125 
Q 47.40625 15.53125 47.40625 23.390625 
Q 47.40625 31.296875 43.53125 35.828125 
Q 39.65625 40.375 33.015625 40.375 
z
M 52.59375 71.296875 
L 52.59375 62.3125 
Q 48.875 64.0625 45.09375 64.984375 
Q 41.3125 65.921875 37.59375 65.921875 
Q 27.828125 65.921875 22.671875 59.328125 
Q 17.53125 52.734375 16.796875 39.40625 
Q 19.671875 43.65625 24.015625 45.921875 
Q 28.375 48.1875 33.59375 48.1875 
Q 44.578125 48.1875 50.953125 41.515625 
Q 57.328125 34.859375 57.328125 23.390625 
Q 57.328125 12.15625 50.6875 5.359375 
Q 44.046875 -1.421875 33.015625 -1.421875 
Q 20.359375 -1.421875 13.671875 8.265625 
Q 6.984375 17.96875 6.984375 36.375 
Q 6.984375 53.65625 15.1875 63.9375 
Q 23.390625 74.21875 37.203125 74.21875 
Q 40.921875 74.21875 44.703125 73.484375 
Q 48.484375 72.75 52.59375 71.296875 
z
" id="DejaVuSans-54"/>
      </defs>
      <g transform="translate(44.2375 135.923707)scale(0.1 -0.1)">
       <use xlink:href="#DejaVuSans-54"/>
      </g>
     </g>
    </g>
    <g id="ytick_7">
     <g id="line2d_14">
      <g>
       <use style="stroke:#000000;stroke-width:0.8;" x="57.6" xlink:href="#m9e91414a1c" y="101.287294"/>
      </g>
     </g>
     <g id="text_14">
      <!-- 7 -->
      <defs>
       <path d="M 8.203125 72.90625 
L 55.078125 72.90625 
L 55.078125 68.703125 
L 28.609375 0 
L 18.3125 0 
L 43.21875 64.59375 
L 8.203125 64.59375 
z
" id="DejaVuSans-55"/>
      </defs>
      <g transform="translate(44.2375 105.086512)scale(0.1 -0.1)">
       <use xlink:href="#DejaVuSans-55"/>
      </g>
     </g>
    </g>
    <g id="ytick_8">
     <g id="line2d_15">
      <g>
       <use style="stroke:#000000;stroke-width:0.8;" x="57.6" xlink:href="#m9e91414a1c" y="70.450099"/>
      </g>
     </g>
     <g id="text_15">
      <!-- 8 -->
      <defs>
       <path d="M 31.78125 34.625 
Q 24.75 34.625 20.71875 30.859375 
Q 16.703125 27.09375 16.703125 20.515625 
Q 16.703125 13.921875 20.71875 10.15625 
Q 24.75 6.390625 31.78125 6.390625 
Q 38.8125 6.390625 42.859375 10.171875 
Q 46.921875 13.96875 46.921875 20.515625 
Q 46.921875 27.09375 42.890625 30.859375 
Q 38.875 34.625 31.78125 34.625 
z
M 21.921875 38.8125 
Q 15.578125 40.375 12.03125 44.71875 
Q 8.5 49.078125 8.5 55.328125 
Q 8.5 64.0625 14.71875 69.140625 
Q 20.953125 74.21875 31.78125 74.21875 
Q 42.671875 74.21875 48.875 69.140625 
Q 55.078125 64.0625 55.078125 55.328125 
Q 55.078125 49.078125 51.53125 44.71875 
Q 48 40.375 41.703125 38.8125 
Q 48.828125 37.15625 52.796875 32.3125 
Q 56.78125 27.484375 56.78125 20.515625 
Q 56.78125 9.90625 50.3125 4.234375 
Q 43.84375 -1.421875 31.78125 -1.421875 
Q 19.734375 -1.421875 13.25 4.234375 
Q 6.78125 9.90625 6.78125 20.515625 
Q 6.78125 27.484375 10.78125 32.3125 
Q 14.796875 37.15625 21.921875 38.8125 
z
M 18.3125 54.390625 
Q 18.3125 48.734375 21.84375 45.5625 
Q 25.390625 42.390625 31.78125 42.390625 
Q 38.140625 42.390625 41.71875 45.5625 
Q 45.3125 48.734375 45.3125 54.390625 
Q 45.3125 60.0625 41.71875 63.234375 
Q 38.140625 66.40625 31.78125 66.40625 
Q 25.390625 66.40625 21.84375 63.234375 
Q 18.3125 60.0625 18.3125 54.390625 
z
" id="DejaVuSans-56"/>
      </defs>
      <g transform="translate(44.2375 74.249318)scale(0.1 -0.1)">
       <use xlink:href="#DejaVuSans-56"/>
      </g>
     </g>
    </g>
    <g id="text_16">
     <!-- Distance -->
     <defs>
      <path d="M 19.671875 64.796875 
L 19.671875 8.109375 
L 31.59375 8.109375 
Q 46.6875 8.109375 53.6875 14.9375 
Q 60.6875 21.78125 60.6875 36.53125 
Q 60.6875 51.171875 53.6875 57.984375 
Q 46.6875 64.796875 31.59375 64.796875 
z
M 9.8125 72.90625 
L 30.078125 72.90625 
Q 51.265625 72.90625 61.171875 64.09375 
Q 71.09375 55.28125 71.09375 36.53125 
Q 71.09375 17.671875 61.125 8.828125 
Q 51.171875 0 30.078125 0 
L 9.8125 0 
z
" id="DejaVuSans-68"/>
      <path d="M 9.421875 54.6875 
L 18.40625 54.6875 
L 18.40625 0 
L 9.421875 0 
z
M 9.421875 75.984375 
L 18.40625 75.984375 
L 18.40625 64.59375 
L 9.421875 64.59375 
z
" id="DejaVuSans-105"/>
      <path d="M 44.28125 53.078125 
L 44.28125 44.578125 
Q 40.484375 46.53125 36.375 47.5 
Q 32.28125 48.484375 27.875 48.484375 
Q 21.1875 48.484375 17.84375 46.4375 
Q 14.5 44.390625 14.5 40.28125 
Q 14.5 37.15625 16.890625 35.375 
Q 19.28125 33.59375 26.515625 31.984375 
L 29.59375 31.296875 
Q 39.15625 29.25 43.1875 25.515625 
Q 47.21875 21.78125 47.21875 15.09375 
Q 47.21875 7.46875 41.1875 3.015625 
Q 35.15625 -1.421875 24.609375 -1.421875 
Q 20.21875 -1.421875 15.453125 -0.5625 
Q 10.6875 0.296875 5.421875 2 
L 5.421875 11.28125 
Q 10.40625 8.6875 15.234375 7.390625 
Q 20.0625 6.109375 24.8125 6.109375 
Q 31.15625 6.109375 34.5625 8.28125 
Q 37.984375 10.453125 37.984375 14.40625 
Q 37.984375 18.0625 35.515625 20.015625 
Q 33.0625 21.96875 24.703125 23.78125 
L 21.578125 24.515625 
Q 13.234375 26.265625 9.515625 29.90625 
Q 5.8125 33.546875 5.8125 39.890625 
Q 5.8125 47.609375 11.28125 51.796875 
Q 16.75 56 26.8125 56 
Q 31.78125 56 36.171875 55.265625 
Q 40.578125 54.546875 44.28125 53.078125 
z
" id="DejaVuSans-115"/>
      <path d="M 18.3125 70.21875 
L 18.3125 54.6875 
L 36.8125 54.6875 
L 36.8125 47.703125 
L 18.3125 47.703125 
L 18.3125 18.015625 
Q 18.3125 11.328125 20.140625 9.421875 
Q 21.96875 7.515625 27.59375 7.515625 
L 36.8125 7.515625 
L 36.8125 0 
L 27.59375 0 
Q 17.1875 0 13.234375 3.875 
Q 9.28125 7.765625 9.28125 18.015625 
L 9.28125 47.703125 
L 2.6875 47.703125 
L 2.6875 54.6875 
L 9.28125 54.6875 
L 9.28125 70.21875 
z
" id="DejaVuSans-116"/>
      <path d="M 34.28125 27.484375 
Q 23.390625 27.484375 19.1875 25 
Q 14.984375 22.515625 14.984375 16.5 
Q 14.984375 11.71875 18.140625 8.90625 
Q 21.296875 6.109375 26.703125 6.109375 
Q 34.1875 6.109375 38.703125 11.40625 
Q 43.21875 16.703125 43.21875 25.484375 
L 43.21875 27.484375 
z
M 52.203125 31.203125 
L 52.203125 0 
L 43.21875 0 
L 43.21875 8.296875 
Q 40.140625 3.328125 35.546875 0.953125 
Q 30.953125 -1.421875 24.3125 -1.421875 
Q 15.921875 -1.421875 10.953125 3.296875 
Q 6 8.015625 6 15.921875 
Q 6 25.140625 12.171875 29.828125 
Q 18.359375 34.515625 30.609375 34.515625 
L 43.21875 34.515625 
L 43.21875 35.40625 
Q 43.21875 41.609375 39.140625 45 
Q 35.0625 48.390625 27.6875 48.390625 
Q 23 48.390625 18.546875 47.265625 
Q 14.109375 46.140625 10.015625 43.890625 
L 10.015625 52.203125 
Q 14.9375 54.109375 19.578125 55.046875 
Q 24.21875 56 28.609375 56 
Q 40.484375 56 46.34375 49.84375 
Q 52.203125 43.703125 52.203125 31.203125 
z
" id="DejaVuSans-97"/>
      <path d="M 54.890625 33.015625 
L 54.890625 0 
L 45.90625 0 
L 45.90625 32.71875 
Q 45.90625 40.484375 42.875 44.328125 
Q 39.84375 48.1875 33.796875 48.1875 
Q 26.515625 48.1875 22.3125 43.546875 
Q 18.109375 38.921875 18.109375 30.90625 
L 18.109375 0 
L 9.078125 0 
L 9.078125 54.6875 
L 18.109375 54.6875 
L 18.109375 46.1875 
Q 21.34375 51.125 25.703125 53.5625 
Q 30.078125 56 35.796875 56 
Q 45.21875 56 50.046875 50.171875 
Q 54.890625 44.34375 54.890625 33.015625 
z
" id="DejaVuSans-110"/>
      <path d="M 48.78125 52.59375 
L 48.78125 44.1875 
Q 44.96875 46.296875 41.140625 47.34375 
Q 37.3125 48.390625 33.40625 48.390625 
Q 24.65625 48.390625 19.8125 42.84375 
Q 14.984375 37.3125 14.984375 27.296875 
Q 14.984375 17.28125 19.8125 11.734375 
Q 24.65625 6.203125 33.40625 6.203125 
Q 37.3125 6.203125 41.140625 7.25 
Q 44.96875 8.296875 48.78125 10.40625 
L 48.78125 2.09375 
Q 45.015625 0.34375 40.984375 -0.53125 
Q 36.96875 -1.421875 32.421875 -1.421875 
Q 20.0625 -1.421875 12.78125 6.34375 
Q 5.515625 14.109375 5.515625 27.296875 
Q 5.515625 40.671875 12.859375 48.328125 
Q 20.21875 56 33.015625 56 
Q 37.15625 56 41.109375 55.140625 
Q 45.0625 54.296875 48.78125 52.59375 
z
" id="DejaVuSans-99"/>
      <path d="M 56.203125 29.59375 
L 56.203125 25.203125 
L 14.890625 25.203125 
Q 15.484375 15.921875 20.484375 11.0625 
Q 25.484375 6.203125 34.421875 6.203125 
Q 39.59375 6.203125 44.453125 7.46875 
Q 49.3125 8.734375 54.109375 11.28125 
L 54.109375 2.78125 
Q 49.265625 0.734375 44.1875 -0.34375 
Q 39.109375 -1.421875 33.890625 -1.421875 
Q 20.796875 -1.421875 13.15625 6.1875 
Q 5.515625 13.8125 5.515625 26.8125 
Q 5.515625 40.234375 12.765625 48.109375 
Q 20.015625 56 32.328125 56 
Q 43.359375 56 49.78125 48.890625 
Q 56.203125 41.796875 56.203125 29.59375 
z
M 47.21875 32.234375 
Q 47.125 39.59375 43.09375 43.984375 
Q 39.0625 48.390625 32.421875 48.390625 
Q 24.90625 48.390625 20.390625 44.140625 
Q 15.875 39.890625 15.1875 32.171875 
z
" id="DejaVuSans-101"/>
     </defs>
     <g transform="translate(38.157812 196.3905)rotate(-90)scale(0.1 -0.1)">
      <use xlink:href="#DejaVuSans-68"/>
      <use x="77.001953" xlink:href="#DejaVuSans-105"/>
      <use x="104.785156" xlink:href="#DejaVuSans-115"/>
      <use x="156.884766" xlink:href="#DejaVuSans-116"/>
      <use x="196.09375" xlink:href="#DejaVuSans-97"/>
      <use x="257.373047" xlink:href="#DejaVuSans-110"/>
      <use x="320.751953" xlink:href="#DejaVuSans-99"/>
      <use x="375.732422" xlink:href="#DejaVuSans-101"/>
     </g>
    </g>
   </g>
   <g id="line2d_16">
    <path clip-path="url(#p9a5c385082)" d="M 73.832727 262.675681 
L 74.918528 267.489369 
L 76.00433 266.921928 
L 77.090131 266.52559 
L 78.175932 266.917668 
L 79.261733 268.280806 
L 80.347534 272.582542 
L 81.433335 275.091577 
L 82.519137 281.693735 
L 83.604938 280.84351 
L 84.690739 282.209121 
L 85.77654 285.404514 
L 86.862341 284.047127 
L 87.948142 281.537432 
L 89.033943 281.695044 
L 90.119745 286.356022 
L 91.205546 282.603742 
L 92.291347 281.558486 
L 93.377148 279.080532 
L 94.462949 283.794653 
L 95.54875 282.012508 
L 96.634552 285.06155 
L 97.720353 281.448639 
L 98.806154 285.989136 
L 99.891955 284.052694 
L 100.977756 281.494688 
L 102.063557 283.123309 
L 103.149358 285.219735 
L 104.23516 286.171107 
L 105.320961 286.458651 
L 106.406762 291.647149 
L 107.492563 292.695097 
L 108.578364 291.251974 
L 109.664165 281.474672 
L 110.749967 285.934681 
L 111.835768 280.938358 
L 112.921569 271.380436 
L 114.00737 271.200037 
L 115.093171 267.396908 
L 116.178972 262.271004 
L 117.264773 268.476968 
L 118.350575 270.831298 
L 120.522177 265.550728 
L 121.607978 260.749736 
L 122.693779 264.25396 
L 123.77958 262.151747 
L 124.865382 259.376859 
L 125.951183 255.722129 
L 127.036984 259.851827 
L 128.122785 257.29553 
L 129.208586 258.952492 
L 130.294387 258.862983 
L 131.380189 246.898027 
L 132.46599 249.633058 
L 133.551791 242.446928 
L 134.637592 240.316144 
L 135.723393 246.372476 
L 136.809194 230.120647 
L 137.894995 228.886043 
L 138.980797 220.863378 
L 140.066598 232.969106 
L 141.152399 238.481413 
L 142.2382 234.176478 
L 143.324001 228.035085 
L 144.409802 224.891785 
L 145.495604 225.188506 
L 146.581405 213.703869 
L 147.667206 193.257362 
L 148.753007 207.036748 
L 149.838808 213.559106 
L 150.924609 232.874365 
L 152.01041 222.10439 
L 153.096212 241.835706 
L 154.182013 244.703704 
L 155.267814 233.566648 
L 156.353615 239.251862 
L 157.439416 225.817245 
L 158.525217 232.608028 
L 159.611019 227.666184 
L 160.69682 228.655239 
L 161.782621 242.536874 
L 162.868422 226.047765 
L 163.954223 214.556837 
L 165.040024 216.622274 
L 166.125825 201.537506 
L 167.211627 201.966741 
L 168.297428 204.187613 
L 169.383229 209.630062 
L 170.46903 208.174184 
L 171.554831 234.787635 
L 172.640632 220.060657 
L 173.726434 190.216366 
L 174.812235 173.996419 
L 175.898036 179.269316 
L 176.983837 204.997035 
L 178.069638 215.462226 
L 179.155439 214.081027 
L 180.24124 222.655653 
L 181.327042 219.162604 
L 182.412843 191.020696 
L 183.498644 190.976078 
L 184.584445 189.987305 
L 185.670246 203.487191 
L 187.841849 236.436518 
L 188.92765 226.232565 
L 190.013451 211.594987 
L 191.099252 207.475124 
L 192.185053 214.883777 
L 193.270854 215.934409 
L 194.356656 207.571404 
L 195.442457 201.621475 
L 196.528258 218.87363 
L 197.614059 231.107256 
L 198.69986 213.47819 
L 199.785661 235.146904 
L 200.871462 243.321447 
L 201.957264 239.257329 
L 203.043065 227.761021 
L 204.128866 224.341077 
L 205.214667 238.25575 
L 206.300468 244.031442 
L 207.386269 221.376815 
L 208.472071 224.674122 
L 209.557872 236.963952 
L 210.643673 237.365207 
L 211.729474 224.927059 
L 212.815275 244.053476 
L 213.901076 225.450195 
L 214.986877 200.102063 
L 216.072679 226.865928 
L 217.15848 212.436598 
L 218.244281 225.911273 
L 219.330082 230.51778 
L 220.415883 219.363048 
L 221.501684 216.536999 
L 222.587486 211.02099 
L 224.759088 241.985668 
L 225.844889 239.011585 
L 226.93069 230.182741 
L 228.016491 237.592532 
L 229.102292 234.982828 
L 230.188094 229.917374 
L 231.273895 240.297799 
L 232.359696 212.251836 
L 233.445497 232.148796 
L 234.531298 219.060272 
L 235.617099 202.91319 
L 236.702901 216.58065 
L 237.788702 223.129844 
L 238.874503 210.765849 
L 239.960304 221.179246 
L 241.046105 194.983103 
L 242.131906 205.395805 
L 243.217708 201.729356 
L 244.303509 193.119904 
L 245.38931 208.513871 
L 246.475111 220.85378 
L 247.560912 237.783164 
L 248.646713 213.427212 
L 249.732514 218.705341 
L 250.818316 221.29489 
L 251.904117 192.922578 
L 252.989918 193.448981 
L 254.075719 150.627234 
L 255.16152 149.835206 
L 256.247321 165.349608 
L 257.333123 188.464887 
L 258.418924 217.232307 
L 259.504725 206.08752 
L 260.590526 220.714623 
L 261.676327 213.354859 
L 262.762128 209.558431 
L 263.847929 215.390278 
L 264.933731 213.601137 
L 266.019532 203.500037 
L 267.105333 210.246731 
L 268.191134 205.587689 
L 269.276935 195.328944 
L 270.362736 192.684886 
L 271.448538 180.14758 
L 272.534339 171.488795 
L 273.62014 182.630873 
L 274.705941 162.49987 
L 275.791742 193.286009 
L 276.877543 181.665245 
L 277.963344 161.048514 
L 279.049146 167.364812 
L 280.134947 181.439768 
L 281.220748 157.926501 
L 282.306549 160.085634 
L 283.39235 160.674166 
L 284.478151 162.512266 
L 285.563953 174.98885 
L 286.649754 203.318483 
L 287.735555 201.614495 
L 288.821356 211.830167 
L 289.907157 201.54905 
L 290.992958 197.189715 
L 292.07876 191.540816 
L 293.164561 205.867718 
L 294.250362 195.742168 
L 295.336163 212.493101 
L 296.421964 198.945256 
L 297.507765 192.197976 
L 298.593566 216.435647 
L 299.679368 227.532995 
L 300.765169 213.399243 
L 301.85097 225.548704 
L 304.022572 210.522126 
L 305.108373 222.088442 
L 306.194175 225.198602 
L 307.279976 232.990627 
L 308.365777 226.813264 
L 309.451578 231.555567 
L 310.537379 232.121716 
L 311.62318 237.716803 
L 312.708981 235.153509 
L 313.794783 223.013532 
L 315.966385 220.148859 
L 317.052186 224.325311 
L 318.137987 227.250835 
L 319.223788 238.946738 
L 320.30959 215.135584 
L 321.395391 203.557411 
L 322.481192 221.489064 
L 323.566993 211.835318 
L 324.652794 203.23727 
L 325.738595 211.387925 
L 326.824396 204.054669 
L 327.910198 209.393665 
L 328.995999 217.830163 
L 330.0818 223.391274 
L 331.167601 221.070719 
L 332.253402 223.330247 
L 333.339203 218.482801 
L 334.425005 222.229455 
L 336.596607 218.087933 
L 337.682408 212.504245 
L 338.768209 216.487226 
L 339.85401 213.196454 
L 340.939811 218.001541 
L 342.025613 215.198733 
L 343.111414 221.047305 
L 344.197215 214.405176 
L 345.283016 217.17703 
L 346.368817 229.348852 
L 347.454618 201.342908 
L 348.54042 196.650081 
L 349.626221 167.423235 
L 350.712022 161.650179 
L 351.797823 164.434115 
L 352.883624 177.377209 
L 353.969425 167.187809 
L 355.055227 155.173526 
L 356.141028 186.446943 
L 357.226829 189.498488 
L 358.31263 195.315747 
L 359.398431 182.446451 
L 360.484232 173.738899 
L 361.570033 178.141068 
L 362.655835 187.716624 
L 363.741636 168.560165 
L 364.827437 160.236069 
L 365.913238 175.673409 
L 366.999039 175.360954 
L 368.08484 171.730862 
L 369.170642 159.7893 
L 370.256443 154.797555 
L 371.342244 166.433334 
L 372.428045 143.848346 
L 373.513846 145.325298 
L 374.599647 151.645753 
L 375.685448 160.55832 
L 376.77125 148.606787 
L 377.857051 164.440173 
L 378.942852 154.418299 
L 380.028653 159.965163 
L 381.114454 158.645392 
L 382.200255 154.522987 
L 383.286057 162.357134 
L 384.371858 164.975464 
L 385.457659 146.556329 
L 386.54346 137.759209 
L 387.629261 159.569498 
L 388.715062 153.162332 
L 389.800863 143.859698 
L 390.886665 121.788107 
L 391.972466 130.227958 
L 393.058267 120.804784 
L 394.144068 135.754975 
L 395.229869 144.940548 
L 396.31567 144.954851 
L 397.401472 159.206433 
L 398.487273 140.887599 
L 398.487273 140.887599 
" style="fill:none;stroke:#0000ff;stroke-linecap:square;stroke-width:1.5;"/>
   </g>
   <g id="patch_3">
    <path d="M 57.6 307.584 
L 57.6 41.472 
" style="fill:none;stroke:#000000;stroke-linecap:square;stroke-linejoin:miter;stroke-width:0.8;"/>
   </g>
   <g id="patch_4">
    <path d="M 414.72 307.584 
L 414.72 41.472 
" style="fill:none;stroke:#000000;stroke-linecap:square;stroke-linejoin:miter;stroke-width:0.8;"/>
   </g>
   <g id="patch_5">
    <path d="M 57.6 307.584 
L 414.72 307.584 
" style="fill:none;stroke:#000000;stroke-linecap:square;stroke-linejoin:miter;stroke-width:0.8;"/>
   </g>
   <g id="patch_6">
    <path d="M 57.6 41.472 
L 414.72 41.472 
" style="fill:none;stroke:#000000;stroke-linecap:square;stroke-linejoin:miter;stroke-width:0.8;"/>
   </g>
  </g>
  <g id="axes_2">
   <g id="PolyCollection_2">
    <path clip-path="url(#p9a5c385082)" d="M 73.832727 197.103168 
L 73.832727 230.796405 
L 74.918528 227.281349 
L 76.00433 229.570017 
L 77.090131 228.789864 
L 78.175932 228.722678 
L 79.261733 233.017391 
L 80.347534 233.917322 
L 81.433335 235.639285 
L 82.519137 235.062782 
L 83.604938 235.973999 
L 84.690739 236.265013 
L 85.77654 236.32587 
L 86.862341 236.491115 
L 87.948142 236.421866 
L 89.033943 236.381162 
L 90.119745 237.166904 
L 91.205546 237.214287 
L 92.291347 237.531613 
L 93.377148 237.47741 
L 94.462949 237.056646 
L 95.54875 237.585666 
L 96.634552 237.090988 
L 97.720353 238.63999 
L 98.806154 236.735937 
L 99.891955 237.111244 
L 100.977756 237.068884 
L 102.063557 237.369692 
L 103.149358 236.596962 
L 104.23516 236.554173 
L 105.320961 237.006863 
L 106.406762 237.397761 
L 107.492563 237.293394 
L 108.578364 237.488474 
L 109.664165 240.323378 
L 110.749967 239.3672 
L 111.835768 241.663032 
L 112.921569 245.367951 
L 114.00737 243.178315 
L 115.093171 242.985792 
L 116.178972 244.400841 
L 117.264773 243.218616 
L 118.350575 244.472402 
L 119.436376 242.745199 
L 120.522177 244.016276 
L 121.607978 245.184049 
L 122.693779 243.939129 
L 123.77958 241.922845 
L 124.865382 243.861213 
L 125.951183 241.738122 
L 127.036984 243.148462 
L 128.122785 246.11638 
L 129.208586 245.374769 
L 130.294387 243.332573 
L 131.380189 247.934145 
L 132.46599 245.997456 
L 133.551791 244.683658 
L 134.637592 244.988231 
L 135.723393 243.440113 
L 136.809194 250.301268 
L 137.894995 255.716284 
L 138.980797 252.208259 
L 140.066598 251.787683 
L 141.152399 249.842154 
L 142.2382 251.98547 
L 143.324001 260.293605 
L 144.409802 262.544934 
L 145.495604 269.676101 
L 146.581405 267.02282 
L 147.667206 272.690813 
L 148.753007 269.625805 
L 149.838808 268.482948 
L 150.924609 253.962115 
L 152.01041 262.535504 
L 153.096212 258.842666 
L 154.182013 257.475872 
L 155.267814 259.162786 
L 156.353615 263.449622 
L 157.439416 261.275351 
L 158.525217 261.723949 
L 159.611019 263.676278 
L 160.69682 259.346544 
L 161.782621 258.443521 
L 162.868422 259.826832 
L 163.954223 261.014318 
L 165.040024 264.229407 
L 166.125825 264.636928 
L 167.211627 268.281555 
L 168.297428 262.760652 
L 169.383229 264.753958 
L 170.46903 264.178375 
L 171.554831 268.136781 
L 172.640632 267.142109 
L 173.726434 276.337372 
L 174.812235 278.896556 
L 175.898036 278.974491 
L 176.983837 277.469653 
L 178.069638 269.446279 
L 179.155439 268.122562 
L 180.24124 261.586267 
L 181.327042 262.146204 
L 182.412843 270.238184 
L 183.498644 268.637661 
L 184.584445 273.453793 
L 185.670246 270.260219 
L 186.756047 263.551002 
L 187.841849 262.78873 
L 188.92765 270.924033 
L 190.013451 273.05103 
L 191.099252 280.137736 
L 192.185053 275.538092 
L 193.270854 275.974609 
L 194.356656 276.43846 
L 195.442457 279.44899 
L 196.528258 276.353374 
L 197.614059 276.438731 
L 198.69986 276.017737 
L 199.785661 275.353001 
L 200.871462 279.804172 
L 201.957264 278.318233 
L 203.043065 276.64332 
L 204.128866 274.519858 
L 205.214667 273.165596 
L 206.300468 272.131019 
L 207.386269 275.764149 
L 208.472071 284.010964 
L 209.557872 283.747258 
L 210.643673 283.898193 
L 211.729474 283.760375 
L 212.815275 286.568826 
L 213.901076 280.277059 
L 214.986877 279.530261 
L 216.072679 283.56397 
L 217.15848 280.280042 
L 218.244281 276.444384 
L 219.330082 279.003289 
L 220.415883 282.950268 
L 221.501684 277.557357 
L 222.587486 278.931186 
L 223.673287 277.980678 
L 224.759088 279.350324 
L 225.844889 280.344226 
L 226.93069 274.568524 
L 228.016491 272.576254 
L 229.102292 275.811918 
L 230.188094 276.011375 
L 231.273895 279.153198 
L 232.359696 279.539946 
L 233.445497 283.132207 
L 234.531298 278.968996 
L 235.617099 279.984435 
L 236.702901 282.003304 
L 237.788702 280.228859 
L 238.874503 278.574312 
L 239.960304 277.623793 
L 241.046105 277.715938 
L 242.131906 275.020149 
L 243.217708 275.685072 
L 244.303509 275.625316 
L 245.38931 273.059642 
L 246.475111 274.7165 
L 247.560912 273.760216 
L 248.646713 274.633528 
L 249.732514 279.890139 
L 250.818316 278.729263 
L 251.904117 277.481019 
L 252.989918 277.768724 
L 254.075719 281.300613 
L 255.16152 277.110093 
L 256.247321 270.220196 
L 257.333123 267.578274 
L 258.418924 266.996378 
L 259.504725 264.838504 
L 260.590526 266.821792 
L 261.676327 267.686425 
L 262.762128 262.9541 
L 263.847929 265.664736 
L 264.933731 266.839754 
L 266.019532 269.142754 
L 267.105333 265.915541 
L 268.191134 264.969025 
L 269.276935 260.946049 
L 270.362736 266.18109 
L 271.448538 268.875684 
L 272.534339 264.312173 
L 273.62014 264.178786 
L 274.705941 262.70875 
L 275.791742 263.647578 
L 276.877543 265.558186 
L 277.963344 264.394567 
L 279.049146 266.99432 
L 280.134947 265.278892 
L 281.220748 262.45457 
L 282.306549 265.751774 
L 283.39235 264.768186 
L 284.478151 268.066152 
L 285.563953 268.984091 
L 286.649754 270.683754 
L 287.735555 273.550764 
L 288.821356 269.339925 
L 289.907157 268.53176 
L 290.992958 276.243992 
L 292.07876 272.857879 
L 293.164561 273.169278 
L 294.250362 272.32342 
L 295.336163 272.358282 
L 296.421964 269.667204 
L 297.507765 272.134541 
L 298.593566 267.833237 
L 299.679368 263.413635 
L 300.765169 260.762869 
L 301.85097 261.600949 
L 302.936771 263.316924 
L 304.022572 263.528688 
L 305.108373 258.287533 
L 306.194175 262.613426 
L 307.279976 267.636548 
L 308.365777 264.035334 
L 309.451578 266.136405 
L 310.537379 263.022058 
L 311.62318 259.316581 
L 312.708981 261.812129 
L 313.794783 262.349727 
L 314.880584 263.158713 
L 315.966385 266.156727 
L 317.052186 263.766321 
L 318.137987 262.767167 
L 319.223788 262.860411 
L 320.30959 263.972503 
L 321.395391 267.909973 
L 322.481192 263.235845 
L 323.566993 265.458658 
L 324.652794 265.489283 
L 325.738595 262.437343 
L 326.824396 266.811591 
L 327.910198 263.740055 
L 328.995999 262.292565 
L 330.0818 263.156883 
L 331.167601 264.70695 
L 332.253402 263.378665 
L 333.339203 264.721136 
L 334.425005 265.755088 
L 335.510806 266.180514 
L 336.596607 265.590262 
L 337.682408 267.657444 
L 338.768209 267.723226 
L 339.85401 268.381461 
L 340.939811 268.472493 
L 342.025613 265.883194 
L 343.111414 266.641338 
L 344.197215 267.316812 
L 345.283016 267.176549 
L 346.368817 265.227594 
L 347.454618 265.056995 
L 348.54042 262.592692 
L 349.626221 268.839298 
L 350.712022 268.79314 
L 351.797823 269.980118 
L 352.883624 265.445016 
L 353.969425 263.675563 
L 355.055227 272.118853 
L 356.141028 267.103051 
L 357.226829 276.640521 
L 358.31263 277.55175 
L 359.398431 278.159673 
L 360.484232 281.192883 
L 361.570033 278.655779 
L 362.655835 282.660965 
L 363.741636 284.43214 
L 364.827437 285.568971 
L 365.913238 283.767739 
L 366.999039 287.643125 
L 368.08484 284.750055 
L 369.170642 284.528963 
L 370.256443 289.653287 
L 371.342244 287.105154 
L 372.428045 289.924598 
L 373.513846 289.968498 
L 374.599647 287.152569 
L 375.685448 289.660695 
L 376.77125 287.554575 
L 377.857051 290.567882 
L 378.942852 292.681148 
L 380.028653 291.621605 
L 381.114454 288.582414 
L 382.200255 291.656552 
L 383.286057 292.079122 
L 384.371858 295.488 
L 385.457659 289.111714 
L 386.54346 295.195147 
L 387.629261 288.807026 
L 388.715062 286.690213 
L 389.800863 291.001567 
L 390.886665 294.152973 
L 391.972466 283.463147 
L 393.058267 283.344963 
L 394.144068 287.80564 
L 395.229869 290.873937 
L 396.31567 288.230313 
L 397.401472 288.756184 
L 398.487273 288.225383 
L 398.487273 71.210241 
L 398.487273 71.210241 
L 397.401472 63.41141 
L 396.31567 63.018134 
L 395.229869 64.795048 
L 394.144068 63.50741 
L 393.058267 64.938194 
L 391.972466 73.100202 
L 390.886665 56.633794 
L 389.800863 67.705702 
L 388.715062 68.547766 
L 387.629261 65.347705 
L 386.54346 53.616131 
L 385.457659 71.760643 
L 384.371858 62.144558 
L 383.286057 66.580997 
L 382.200255 69.280363 
L 381.114454 69.442285 
L 380.028653 68.569704 
L 378.942852 56.58839 
L 377.857051 74.241193 
L 376.77125 66.100114 
L 375.685448 55.306559 
L 374.599647 58.227142 
L 373.513846 53.568 
L 372.428045 60.840535 
L 371.342244 68.52421 
L 370.256443 61.492714 
L 369.170642 62.167619 
L 368.08484 74.243689 
L 366.999039 70.910273 
L 365.913238 74.715231 
L 364.827437 69.902378 
L 363.741636 79.993507 
L 362.655835 76.877139 
L 361.570033 98.434635 
L 360.484232 91.801103 
L 359.398431 97.490252 
L 358.31263 103.240948 
L 357.226829 99.024394 
L 356.141028 115.035149 
L 355.055227 89.671916 
L 353.969425 106.309637 
L 352.883624 106.388051 
L 351.797823 102.328098 
L 350.712022 108.395123 
L 349.626221 112.175821 
L 348.54042 121.458416 
L 347.454618 126.61169 
L 346.368817 129.358086 
L 345.283016 134.437915 
L 344.197215 129.620822 
L 343.111414 128.97863 
L 342.025613 126.459532 
L 340.939811 124.726409 
L 339.85401 126.152251 
L 338.768209 123.921217 
L 337.682408 120.841801 
L 336.596607 125.677707 
L 335.510806 122.113557 
L 334.425005 119.199346 
L 333.339203 127.87775 
L 332.253402 131.734407 
L 331.167601 129.245904 
L 330.0818 125.784994 
L 328.995999 132.314056 
L 327.910198 110.794661 
L 326.824396 119.625043 
L 325.738595 123.990709 
L 324.652794 124.904812 
L 323.566993 123.560895 
L 322.481192 127.174042 
L 321.395391 121.312025 
L 320.30959 130.063121 
L 319.223788 127.50567 
L 318.137987 130.967607 
L 317.052186 126.618773 
L 315.966385 131.426327 
L 314.880584 140.200847 
L 313.794783 139.967829 
L 312.708981 134.794858 
L 311.62318 145.235252 
L 310.537379 134.886836 
L 309.451578 126.726611 
L 308.365777 139.504574 
L 307.279976 128.957135 
L 306.194175 142.714105 
L 305.108373 149.145877 
L 304.022572 135.732618 
L 302.936771 137.342158 
L 301.85097 127.011127 
L 300.765169 138.323676 
L 299.679368 127.42001 
L 298.593566 124.028005 
L 297.507765 110.621933 
L 296.421964 113.376501 
L 295.336163 114.901332 
L 294.250362 115.651184 
L 293.164561 106.245109 
L 292.07876 110.774459 
L 290.992958 109.216476 
L 289.907157 129.624696 
L 288.821356 123.211686 
L 287.735555 122.644664 
L 286.649754 130.646123 
L 285.563953 120.449938 
L 284.478151 110.580457 
L 283.39235 109.589128 
L 282.306549 116.621887 
L 281.220748 127.479089 
L 280.134947 125.047413 
L 279.049146 117.12385 
L 277.963344 121.037063 
L 276.877543 120.639261 
L 275.791742 124.417117 
L 274.705941 116.826476 
L 273.62014 121.000075 
L 272.534339 125.004779 
L 271.448538 122.26581 
L 270.362736 119.041432 
L 269.276935 139.803711 
L 268.191134 128.060513 
L 267.105333 124.703243 
L 266.019532 123.740297 
L 264.933731 129.283085 
L 263.847929 124.808251 
L 262.762128 131.554572 
L 261.676327 123.96108 
L 260.590526 132.311746 
L 259.504725 130.220536 
L 258.418924 126.454077 
L 257.333123 113.255652 
L 256.247321 110.559492 
L 255.16152 98.814355 
L 254.075719 89.609238 
L 252.989918 110.454602 
L 251.904117 118.543389 
L 250.818316 118.322468 
L 249.732514 113.472345 
L 248.646713 128.223204 
L 247.560912 117.425698 
L 246.475111 122.730656 
L 245.38931 120.955937 
L 244.303509 118.951558 
L 243.217708 116.308945 
L 242.131906 106.324657 
L 241.046105 107.806951 
L 239.960304 112.629003 
L 238.874503 113.482083 
L 237.788702 107.737496 
L 236.702901 110.103414 
L 235.617099 103.140608 
L 234.531298 113.396859 
L 233.445497 103.498492 
L 232.359696 115.496064 
L 231.273895 113.382838 
L 230.188094 124.105836 
L 229.102292 128.536263 
L 228.016491 123.446569 
L 226.93069 120.33193 
L 225.844889 113.977066 
L 224.759088 114.535449 
L 223.673287 115.798021 
L 222.587486 109.653541 
L 221.501684 110.970923 
L 220.415883 101.64775 
L 219.330082 110.122478 
L 218.244281 114.119436 
L 217.15848 104.127019 
L 216.072679 105.392271 
L 214.986877 122.944418 
L 213.901076 124.256814 
L 212.815275 109.732299 
L 211.729474 116.947921 
L 210.643673 111.804055 
L 209.557872 106.266128 
L 208.472071 116.806151 
L 207.386269 130.087217 
L 206.300468 135.490306 
L 205.214667 136.184072 
L 204.128866 135.052253 
L 203.043065 136.028245 
L 201.957264 126.41468 
L 200.871462 127.350781 
L 199.785661 128.856925 
L 198.69986 121.410743 
L 197.614059 119.379443 
L 196.528258 118.269305 
L 195.442457 115.32163 
L 194.356656 116.188692 
L 193.270854 118.939758 
L 192.185053 125.833265 
L 191.099252 121.371895 
L 190.013451 125.348161 
L 188.92765 128.265692 
L 187.841849 147.202423 
L 186.756047 140.480809 
L 185.670246 119.029031 
L 184.584445 108.921243 
L 183.498644 127.567417 
L 182.412843 119.190993 
L 181.327042 137.864143 
L 180.24124 139.44734 
L 179.155439 132.034267 
L 178.069638 127.165813 
L 176.983837 113.00106 
L 175.898036 114.53846 
L 174.812235 115.573215 
L 173.726434 122.229694 
L 172.640632 134.37429 
L 171.554831 132.824227 
L 170.46903 139.729142 
L 169.383229 137.826344 
L 168.297428 131.737297 
L 167.211627 129.525333 
L 166.125825 129.102261 
L 165.040024 136.429585 
L 163.954223 145.87192 
L 162.868422 143.380626 
L 161.782621 142.730438 
L 160.69682 147.632432 
L 159.611019 145.323833 
L 158.525217 145.498195 
L 157.439416 141.970487 
L 156.353615 141.926214 
L 155.267814 151.961546 
L 154.182013 152.87256 
L 153.096212 149.308357 
L 152.01041 146.304866 
L 150.924609 160.035607 
L 149.838808 143.015521 
L 148.753007 143.725586 
L 147.667206 136.90171 
L 146.581405 144.979351 
L 145.495604 138.004109 
L 144.409802 150.302431 
L 143.324001 150.588633 
L 142.2382 166.384574 
L 141.152399 165.421495 
L 140.066598 160.378088 
L 138.980797 157.064899 
L 137.894995 155.804413 
L 136.809194 164.142153 
L 135.723393 173.535637 
L 134.637592 172.885399 
L 133.551791 173.425304 
L 132.46599 175.846347 
L 131.380189 172.744878 
L 130.294387 181.760041 
L 129.208586 178.806625 
L 128.122785 174.955296 
L 127.036984 184.436638 
L 125.951183 185.376587 
L 124.865382 185.158646 
L 123.77958 182.096575 
L 122.693779 183.684255 
L 121.607978 181.774497 
L 120.522177 186.731853 
L 119.436376 192.813991 
L 118.350575 192.375637 
L 117.264773 193.471899 
L 116.178972 189.547072 
L 115.093171 195.056019 
L 114.00737 195.274371 
L 112.921569 193.856536 
L 111.835768 200.615064 
L 110.749967 203.674681 
L 109.664165 200.133444 
L 108.578364 204.086431 
L 107.492563 206.150828 
L 106.406762 207.796256 
L 105.320961 205.428249 
L 104.23516 204.986285 
L 103.149358 205.659061 
L 102.063557 204.352464 
L 100.977756 204.167821 
L 99.891955 204.384485 
L 98.806154 206.519801 
L 97.720353 204.21137 
L 96.634552 205.834569 
L 95.54875 204.348798 
L 94.462949 205.43907 
L 93.377148 205.490729 
L 92.291347 207.428912 
L 91.205546 208.9538 
L 90.119745 209.503593 
L 89.033943 206.500727 
L 87.948142 206.156637 
L 86.862341 205.987384 
L 85.77654 205.2033 
L 84.690739 204.747986 
L 83.604938 203.739552 
L 82.519137 202.615272 
L 81.433335 200.089297 
L 80.347534 199.840971 
L 79.261733 197.380552 
L 78.175932 193.430699 
L 77.090131 193.26294 
L 76.00433 195.082958 
L 74.918528 193.169937 
L 73.832727 197.103168 
z
" style="fill:#008000;fill-opacity:0.25;"/>
   </g>
   <g id="matplotlib.axis_3">
    <g id="ytick_9">
     <g id="line2d_17">
      <path clip-path="url(#p9a5c385082)" d="M 57.6 307.217032 
L 414.72 307.217032 
" style="fill:none;stroke:#b0b0b0;stroke-linecap:square;stroke-width:0.8;"/>
     </g>
     <g id="line2d_18">
      <defs>
       <path d="M 0 0 
L 3.5 0 
" id="mf034f9f51c" style="stroke:#000000;stroke-width:0.8;"/>
      </defs>
      <g>
       <use style="stroke:#000000;stroke-width:0.8;" x="414.72" xlink:href="#mf034f9f51c" y="307.217032"/>
      </g>
     </g>
     <g id="text_17">
      <!-- 2 -->
      <defs>
       <path d="M 10.59375 35.5 
L 73.1875 35.5 
L 73.1875 27.203125 
L 10.59375 27.203125 
z
" id="DejaVuSans-8722"/>
      </defs>
      <g transform="translate(421.72 311.016251)scale(0.1 -0.1)">
       <use xlink:href="#DejaVuSans-8722"/>
       <use x="83.789062" xlink:href="#DejaVuSans-50"/>
      </g>
     </g>
    </g>
    <g id="ytick_10">
     <g id="line2d_19">
      <path clip-path="url(#p9a5c385082)" d="M 57.6 268.769215 
L 414.72 268.769215 
" style="fill:none;stroke:#b0b0b0;stroke-linecap:square;stroke-width:0.8;"/>
     </g>
     <g id="line2d_20">
      <g>
       <use style="stroke:#000000;stroke-width:0.8;" x="414.72" xlink:href="#mf034f9f51c" y="268.769215"/>
      </g>
     </g>
     <g id="text_18">
      <!-- 1 -->
      <g transform="translate(421.72 272.568434)scale(0.1 -0.1)">
       <use xlink:href="#DejaVuSans-8722"/>
       <use x="83.789062" xlink:href="#DejaVuSans-49"/>
      </g>
     </g>
    </g>
    <g id="ytick_11">
     <g id="line2d_21">
      <path clip-path="url(#p9a5c385082)" d="M 57.6 230.321398 
L 414.72 230.321398 
" style="fill:none;stroke:#b0b0b0;stroke-linecap:square;stroke-width:0.8;"/>
     </g>
     <g id="line2d_22">
      <g>
       <use style="stroke:#000000;stroke-width:0.8;" x="414.72" xlink:href="#mf034f9f51c" y="230.321398"/>
      </g>
     </g>
     <g id="text_19">
      <!-- 0 -->
      <g transform="translate(421.72 234.120617)scale(0.1 -0.1)">
       <use xlink:href="#DejaVuSans-48"/>
      </g>
     </g>
    </g>
    <g id="ytick_12">
     <g id="line2d_23">
      <path clip-path="url(#p9a5c385082)" d="M 57.6 191.873582 
L 414.72 191.873582 
" style="fill:none;stroke:#b0b0b0;stroke-linecap:square;stroke-width:0.8;"/>
     </g>
     <g id="line2d_24">
      <g>
       <use style="stroke:#000000;stroke-width:0.8;" x="414.72" xlink:href="#mf034f9f51c" y="191.873582"/>
      </g>
     </g>
     <g id="text_20">
      <!-- 1 -->
      <g transform="translate(421.72 195.6728)scale(0.1 -0.1)">
       <use xlink:href="#DejaVuSans-49"/>
      </g>
     </g>
    </g>
    <g id="ytick_13">
     <g id="line2d_25">
      <path clip-path="url(#p9a5c385082)" d="M 57.6 153.425765 
L 414.72 153.425765 
" style="fill:none;stroke:#b0b0b0;stroke-linecap:square;stroke-width:0.8;"/>
     </g>
     <g id="line2d_26">
      <g>
       <use style="stroke:#000000;stroke-width:0.8;" x="414.72" xlink:href="#mf034f9f51c" y="153.425765"/>
      </g>
     </g>
     <g id="text_21">
      <!-- 2 -->
      <g transform="translate(421.72 157.224984)scale(0.1 -0.1)">
       <use xlink:href="#DejaVuSans-50"/>
      </g>
     </g>
    </g>
    <g id="ytick_14">
     <g id="line2d_27">
      <path clip-path="url(#p9a5c385082)" d="M 57.6 114.977948 
L 414.72 114.977948 
" style="fill:none;stroke:#b0b0b0;stroke-linecap:square;stroke-width:0.8;"/>
     </g>
     <g id="line2d_28">
      <g>
       <use style="stroke:#000000;stroke-width:0.8;" x="414.72" xlink:href="#mf034f9f51c" y="114.977948"/>
      </g>
     </g>
     <g id="text_22">
      <!-- 3 -->
      <g transform="translate(421.72 118.777167)scale(0.1 -0.1)">
       <use xlink:href="#DejaVuSans-51"/>
      </g>
     </g>
    </g>
    <g id="ytick_15">
     <g id="line2d_29">
      <path clip-path="url(#p9a5c385082)" d="M 57.6 76.530132 
L 414.72 76.530132 
" style="fill:none;stroke:#b0b0b0;stroke-linecap:square;stroke-width:0.8;"/>
     </g>
     <g id="line2d_30">
      <g>
       <use style="stroke:#000000;stroke-width:0.8;" x="414.72" xlink:href="#mf034f9f51c" y="76.530132"/>
      </g>
     </g>
     <g id="text_23">
      <!-- 4 -->
      <g transform="translate(421.72 80.32935)scale(0.1 -0.1)">
       <use xlink:href="#DejaVuSans-52"/>
      </g>
     </g>
    </g>
    <g id="text_24">
     <!-- Loudness -->
     <defs>
      <path d="M 9.8125 72.90625 
L 19.671875 72.90625 
L 19.671875 8.296875 
L 55.171875 8.296875 
L 55.171875 0 
L 9.8125 0 
z
" id="DejaVuSans-76"/>
      <path d="M 30.609375 48.390625 
Q 23.390625 48.390625 19.1875 42.75 
Q 14.984375 37.109375 14.984375 27.296875 
Q 14.984375 17.484375 19.15625 11.84375 
Q 23.34375 6.203125 30.609375 6.203125 
Q 37.796875 6.203125 41.984375 11.859375 
Q 46.1875 17.53125 46.1875 27.296875 
Q 46.1875 37.015625 41.984375 42.703125 
Q 37.796875 48.390625 30.609375 48.390625 
z
M 30.609375 56 
Q 42.328125 56 49.015625 48.375 
Q 55.71875 40.765625 55.71875 27.296875 
Q 55.71875 13.875 49.015625 6.21875 
Q 42.328125 -1.421875 30.609375 -1.421875 
Q 18.84375 -1.421875 12.171875 6.21875 
Q 5.515625 13.875 5.515625 27.296875 
Q 5.515625 40.765625 12.171875 48.375 
Q 18.84375 56 30.609375 56 
z
" id="DejaVuSans-111"/>
      <path d="M 8.5 21.578125 
L 8.5 54.6875 
L 17.484375 54.6875 
L 17.484375 21.921875 
Q 17.484375 14.15625 20.5 10.265625 
Q 23.53125 6.390625 29.59375 6.390625 
Q 36.859375 6.390625 41.078125 11.03125 
Q 45.3125 15.671875 45.3125 23.6875 
L 45.3125 54.6875 
L 54.296875 54.6875 
L 54.296875 0 
L 45.3125 0 
L 45.3125 8.40625 
Q 42.046875 3.421875 37.71875 1 
Q 33.40625 -1.421875 27.6875 -1.421875 
Q 18.265625 -1.421875 13.375 4.4375 
Q 8.5 10.296875 8.5 21.578125 
z
M 31.109375 56 
z
" id="DejaVuSans-117"/>
      <path d="M 45.40625 46.390625 
L 45.40625 75.984375 
L 54.390625 75.984375 
L 54.390625 0 
L 45.40625 0 
L 45.40625 8.203125 
Q 42.578125 3.328125 38.25 0.953125 
Q 33.9375 -1.421875 27.875 -1.421875 
Q 17.96875 -1.421875 11.734375 6.484375 
Q 5.515625 14.40625 5.515625 27.296875 
Q 5.515625 40.1875 11.734375 48.09375 
Q 17.96875 56 27.875 56 
Q 33.9375 56 38.25 53.625 
Q 42.578125 51.265625 45.40625 46.390625 
z
M 14.796875 27.296875 
Q 14.796875 17.390625 18.875 11.75 
Q 22.953125 6.109375 30.078125 6.109375 
Q 37.203125 6.109375 41.296875 11.75 
Q 45.40625 17.390625 45.40625 27.296875 
Q 45.40625 37.203125 41.296875 42.84375 
Q 37.203125 48.484375 30.078125 48.484375 
Q 22.953125 48.484375 18.875 42.84375 
Q 14.796875 37.203125 14.796875 27.296875 
z
" id="DejaVuSans-100"/>
     </defs>
     <g transform="translate(448.060625 198.170187)rotate(-90)scale(0.1 -0.1)">
      <use xlink:href="#DejaVuSans-76"/>
      <use x="55.697266" xlink:href="#DejaVuSans-111"/>
      <use x="116.878906" xlink:href="#DejaVuSans-117"/>
      <use x="180.257812" xlink:href="#DejaVuSans-100"/>
      <use x="243.734375" xlink:href="#DejaVuSans-110"/>
      <use x="307.113281" xlink:href="#DejaVuSans-101"/>
      <use x="368.636719" xlink:href="#DejaVuSans-115"/>
      <use x="420.736328" xlink:href="#DejaVuSans-115"/>
     </g>
    </g>
   </g>
   <g id="line2d_31">
    <path clip-path="url(#p9a5c385082)" d="M 73.832727 213.949787 
L 74.918528 210.225643 
L 76.00433 212.326487 
L 77.090131 211.026402 
L 78.175932 211.076688 
L 79.261733 215.198972 
L 80.347534 216.879147 
L 83.604938 219.856776 
L 84.690739 220.506499 
L 85.77654 220.764585 
L 86.862341 221.239249 
L 89.033943 221.440945 
L 90.119745 223.335249 
L 91.205546 223.084044 
L 92.291347 222.480262 
L 93.377148 221.48407 
L 95.54875 220.967232 
L 96.634552 221.462779 
L 97.720353 221.42568 
L 98.806154 221.627869 
L 99.891955 220.747864 
L 100.977756 220.618352 
L 103.149358 221.128011 
L 104.23516 220.770229 
L 105.320961 221.217556 
L 106.406762 222.597008 
L 108.578364 220.787452 
L 109.664165 220.228411 
L 110.749967 221.52094 
L 111.835768 221.139048 
L 112.921569 219.612244 
L 114.00737 219.226343 
L 115.093171 219.020906 
L 116.178972 216.973957 
L 117.264773 218.345257 
L 118.350575 218.424019 
L 119.436376 217.779595 
L 120.522177 215.374064 
L 121.607978 213.479273 
L 122.693779 213.811692 
L 123.77958 212.00971 
L 124.865382 214.50993 
L 125.951183 213.557354 
L 127.036984 213.79255 
L 128.122785 210.535838 
L 129.208586 212.090697 
L 130.294387 212.546307 
L 131.380189 210.339512 
L 132.46599 210.921902 
L 133.551791 209.054481 
L 134.637592 208.936815 
L 135.723393 208.487875 
L 136.809194 207.221711 
L 137.894995 205.760349 
L 138.980797 204.636579 
L 141.152399 207.631824 
L 142.2382 209.185022 
L 143.324001 205.441119 
L 144.409802 206.423682 
L 145.495604 203.840105 
L 146.581405 206.001086 
L 147.667206 204.796261 
L 148.753007 206.675696 
L 149.838808 205.749235 
L 150.924609 206.998861 
L 152.01041 204.420185 
L 153.096212 204.075511 
L 154.182013 205.174216 
L 155.267814 205.562166 
L 156.353615 202.687918 
L 157.439416 201.622919 
L 158.525217 203.611072 
L 159.611019 204.500055 
L 160.69682 203.489488 
L 161.782621 200.58698 
L 162.868422 201.603729 
L 163.954223 203.443119 
L 165.040024 200.329496 
L 166.125825 196.869595 
L 167.211627 198.903444 
L 168.297428 197.248975 
L 169.383229 201.290151 
L 170.46903 201.953758 
L 171.554831 200.480504 
L 172.640632 200.758199 
L 173.726434 199.283533 
L 174.812235 197.234886 
L 175.898036 196.756475 
L 176.983837 195.235357 
L 178.069638 198.306046 
L 179.155439 200.078415 
L 180.24124 200.516804 
L 181.327042 200.005174 
L 182.412843 194.714588 
L 183.498644 198.102539 
L 184.584445 191.187518 
L 185.670246 194.644625 
L 186.756047 202.015906 
L 187.841849 204.995577 
L 188.92765 199.594863 
L 190.013451 199.199596 
L 191.099252 200.754816 
L 192.185053 200.685679 
L 193.270854 197.457183 
L 194.356656 196.313576 
L 195.442457 197.38531 
L 196.528258 197.311339 
L 197.614059 197.909087 
L 198.69986 198.71424 
L 199.785661 202.104963 
L 200.871462 203.577477 
L 201.957264 202.366457 
L 203.043065 206.335783 
L 204.128866 204.786056 
L 205.214667 204.674834 
L 207.386269 202.925683 
L 208.472071 200.408557 
L 209.557872 195.006693 
L 210.643673 197.851124 
L 211.729474 200.354148 
L 212.815275 198.150563 
L 213.901076 202.266936 
L 214.986877 201.23734 
L 216.072679 194.478121 
L 217.15848 192.20353 
L 218.244281 195.28191 
L 219.330082 194.562884 
L 220.415883 192.299009 
L 221.501684 194.26414 
L 222.587486 194.292363 
L 223.673287 196.889349 
L 224.759088 196.942887 
L 226.93069 197.450227 
L 228.016491 198.011411 
L 229.102292 202.174091 
L 230.188094 200.058605 
L 231.273895 196.268018 
L 232.359696 197.518005 
L 233.445497 193.31535 
L 234.531298 196.182928 
L 235.617099 191.562522 
L 236.702901 196.053359 
L 237.788702 193.983177 
L 238.874503 196.028197 
L 239.960304 195.126398 
L 241.046105 192.761444 
L 242.131906 190.672403 
L 243.217708 195.997008 
L 244.303509 197.288437 
L 245.38931 197.00779 
L 246.475111 198.723578 
L 247.560912 195.592957 
L 248.646713 201.428366 
L 249.732514 196.681242 
L 250.818316 198.525865 
L 251.904117 198.012204 
L 252.989918 194.111663 
L 254.075719 185.454925 
L 256.247321 190.389844 
L 257.333123 190.416963 
L 258.418924 196.725227 
L 259.504725 197.52952 
L 260.590526 199.566769 
L 261.676327 195.823752 
L 262.762128 197.254336 
L 263.847929 195.236494 
L 264.933731 198.06142 
L 266.019532 196.441526 
L 267.105333 195.309392 
L 268.191134 196.514769 
L 269.276935 200.37488 
L 270.362736 192.611261 
L 271.448538 195.570747 
L 272.534339 194.658476 
L 273.62014 192.58943 
L 274.705941 189.767613 
L 275.791742 194.032347 
L 276.877543 193.098724 
L 277.963344 192.715815 
L 279.049146 192.059085 
L 280.134947 195.163152 
L 281.220748 194.966829 
L 283.39235 187.178657 
L 284.478151 189.323305 
L 286.649754 200.664938 
L 287.735555 198.097714 
L 288.821356 196.275806 
L 289.907157 199.078228 
L 290.992958 192.730234 
L 292.07876 191.816169 
L 293.164561 189.707194 
L 294.250362 193.987302 
L 295.336163 193.629807 
L 296.421964 191.521853 
L 297.507765 191.378237 
L 298.593566 195.930621 
L 299.679368 195.416823 
L 300.765169 199.543272 
L 301.85097 194.306038 
L 302.936771 200.329541 
L 304.022572 199.630653 
L 305.108373 203.716705 
L 306.194175 202.663765 
L 307.279976 198.296841 
L 308.365777 201.769954 
L 309.451578 196.431508 
L 310.537379 198.954447 
L 311.62318 202.275916 
L 312.708981 198.303494 
L 313.794783 201.158778 
L 314.880584 201.67978 
L 315.966385 198.791527 
L 317.052186 195.192547 
L 318.137987 196.867387 
L 319.223788 195.18304 
L 320.30959 197.017812 
L 321.395391 194.610999 
L 322.481192 195.204944 
L 323.566993 194.509777 
L 324.652794 195.197048 
L 325.738595 193.214026 
L 326.824396 193.218317 
L 327.910198 187.267358 
L 328.995999 197.30331 
L 330.0818 194.470938 
L 331.167601 196.976427 
L 332.253402 197.556536 
L 333.339203 196.299443 
L 334.425005 192.477217 
L 336.596607 195.633984 
L 337.682408 194.249623 
L 339.85401 197.266856 
L 340.939811 196.599451 
L 342.025613 196.171363 
L 343.111414 197.809984 
L 344.197215 198.468817 
L 345.283016 200.807232 
L 346.368817 197.29284 
L 347.454618 195.834343 
L 348.54042 192.025554 
L 349.626221 190.507559 
L 350.712022 188.594132 
L 351.797823 186.154108 
L 352.883624 185.916534 
L 353.969425 184.9926 
L 355.055227 180.895385 
L 356.141028 191.0691 
L 357.226829 187.832458 
L 358.31263 190.396349 
L 359.398431 187.824962 
L 360.484232 186.496993 
L 361.570033 188.545207 
L 362.655835 179.769052 
L 363.741636 182.212823 
L 364.827437 177.735675 
L 365.913238 179.241485 
L 366.999039 179.276699 
L 368.08484 179.496872 
L 369.170642 173.348291 
L 371.342244 177.814682 
L 372.428045 175.382566 
L 373.513846 171.768249 
L 374.599647 172.689856 
L 375.685448 172.483627 
L 376.77125 176.827345 
L 377.857051 182.404537 
L 378.942852 174.634769 
L 380.028653 180.095654 
L 381.114454 179.01235 
L 382.200255 180.468457 
L 383.286057 179.33006 
L 384.371858 178.816279 
L 385.457659 180.436178 
L 386.54346 174.405639 
L 387.629261 177.077365 
L 388.715062 177.618989 
L 389.800863 179.353635 
L 390.886665 175.393384 
L 391.972466 178.281675 
L 393.058267 174.141578 
L 394.144068 175.656525 
L 395.229869 177.834493 
L 396.31567 175.624223 
L 397.401472 176.083797 
L 398.487273 179.717812 
L 398.487273 179.717812 
" style="fill:none;stroke:#008000;stroke-linecap:square;stroke-width:1.5;"/>
   </g>
   <g id="patch_7">
    <path d="M 57.6 307.584 
L 57.6 41.472 
" style="fill:none;stroke:#000000;stroke-linecap:square;stroke-linejoin:miter;stroke-width:0.8;"/>
   </g>
   <g id="patch_8">
    <path d="M 414.72 307.584 
L 414.72 41.472 
" style="fill:none;stroke:#000000;stroke-linecap:square;stroke-linejoin:miter;stroke-width:0.8;"/>
   </g>
   <g id="patch_9">
    <path d="M 57.6 307.584 
L 414.72 307.584 
" style="fill:none;stroke:#000000;stroke-linecap:square;stroke-linejoin:miter;stroke-width:0.8;"/>
   </g>
   <g id="patch_10">
    <path d="M 57.6 41.472 
L 414.72 41.472 
" style="fill:none;stroke:#000000;stroke-linecap:square;stroke-linejoin:miter;stroke-width:0.8;"/>
   </g>
   <g id="text_25">
    <!-- Message Difference and Loudness -->
    <defs>
     <path d="M 9.8125 72.90625 
L 24.515625 72.90625 
L 43.109375 23.296875 
L 61.8125 72.90625 
L 76.515625 72.90625 
L 76.515625 0 
L 66.890625 0 
L 66.890625 64.015625 
L 48.09375 14.015625 
L 38.1875 14.015625 
L 19.390625 64.015625 
L 19.390625 0 
L 9.8125 0 
z
" id="DejaVuSans-77"/>
     <path d="M 45.40625 27.984375 
Q 45.40625 37.75 41.375 43.109375 
Q 37.359375 48.484375 30.078125 48.484375 
Q 22.859375 48.484375 18.828125 43.109375 
Q 14.796875 37.75 14.796875 27.984375 
Q 14.796875 18.265625 18.828125 12.890625 
Q 22.859375 7.515625 30.078125 7.515625 
Q 37.359375 7.515625 41.375 12.890625 
Q 45.40625 18.265625 45.40625 27.984375 
z
M 54.390625 6.78125 
Q 54.390625 -7.171875 48.1875 -13.984375 
Q 42 -20.796875 29.203125 -20.796875 
Q 24.46875 -20.796875 20.265625 -20.09375 
Q 16.0625 -19.390625 12.109375 -17.921875 
L 12.109375 -9.1875 
Q 16.0625 -11.328125 19.921875 -12.34375 
Q 23.78125 -13.375 27.78125 -13.375 
Q 36.625 -13.375 41.015625 -8.765625 
Q 45.40625 -4.15625 45.40625 5.171875 
L 45.40625 9.625 
Q 42.625 4.78125 38.28125 2.390625 
Q 33.9375 0 27.875 0 
Q 17.828125 0 11.671875 7.65625 
Q 5.515625 15.328125 5.515625 27.984375 
Q 5.515625 40.671875 11.671875 48.328125 
Q 17.828125 56 27.875 56 
Q 33.9375 56 38.28125 53.609375 
Q 42.625 51.21875 45.40625 46.390625 
L 45.40625 54.6875 
L 54.390625 54.6875 
z
" id="DejaVuSans-103"/>
     <path id="DejaVuSans-32"/>
     <path d="M 37.109375 75.984375 
L 37.109375 68.5 
L 28.515625 68.5 
Q 23.6875 68.5 21.796875 66.546875 
Q 19.921875 64.59375 19.921875 59.515625 
L 19.921875 54.6875 
L 34.71875 54.6875 
L 34.71875 47.703125 
L 19.921875 47.703125 
L 19.921875 0 
L 10.890625 0 
L 10.890625 47.703125 
L 2.296875 47.703125 
L 2.296875 54.6875 
L 10.890625 54.6875 
L 10.890625 58.5 
Q 10.890625 67.625 15.140625 71.796875 
Q 19.390625 75.984375 28.609375 75.984375 
z
" id="DejaVuSans-102"/>
     <path d="M 41.109375 46.296875 
Q 39.59375 47.171875 37.8125 47.578125 
Q 36.03125 48 33.890625 48 
Q 26.265625 48 22.1875 43.046875 
Q 18.109375 38.09375 18.109375 28.8125 
L 18.109375 0 
L 9.078125 0 
L 9.078125 54.6875 
L 18.109375 54.6875 
L 18.109375 46.1875 
Q 20.953125 51.171875 25.484375 53.578125 
Q 30.03125 56 36.53125 56 
Q 37.453125 56 38.578125 55.875 
Q 39.703125 55.765625 41.0625 55.515625 
z
" id="DejaVuSans-114"/>
    </defs>
    <g transform="translate(133.329375 35.472)scale(0.12 -0.12)">
     <use xlink:href="#DejaVuSans-77"/>
     <use x="86.279297" xlink:href="#DejaVuSans-101"/>
     <use x="147.802734" xlink:href="#DejaVuSans-115"/>
     <use x="199.902344" xlink:href="#DejaVuSans-115"/>
     <use x="252.001953" xlink:href="#DejaVuSans-97"/>
     <use x="313.28125" xlink:href="#DejaVuSans-103"/>
     <use x="376.757812" xlink:href="#DejaVuSans-101"/>
     <use x="438.28125" xlink:href="#DejaVuSans-32"/>
     <use x="470.068359" xlink:href="#DejaVuSans-68"/>
     <use x="547.070312" xlink:href="#DejaVuSans-105"/>
     <use x="574.853516" xlink:href="#DejaVuSans-102"/>
     <use x="610.058594" xlink:href="#DejaVuSans-102"/>
     <use x="645.263672" xlink:href="#DejaVuSans-101"/>
     <use x="706.787109" xlink:href="#DejaVuSans-114"/>
     <use x="747.869141" xlink:href="#DejaVuSans-101"/>
     <use x="809.392578" xlink:href="#DejaVuSans-110"/>
     <use x="872.771484" xlink:href="#DejaVuSans-99"/>
     <use x="927.751953" xlink:href="#DejaVuSans-101"/>
     <use x="989.275391" xlink:href="#DejaVuSans-32"/>
     <use x="1021.0625" xlink:href="#DejaVuSans-97"/>
     <use x="1082.341797" xlink:href="#DejaVuSans-110"/>
     <use x="1145.720703" xlink:href="#DejaVuSans-100"/>
     <use x="1209.197266" xlink:href="#DejaVuSans-32"/>
     <use x="1240.984375" xlink:href="#DejaVuSans-76"/>
     <use x="1296.681641" xlink:href="#DejaVuSans-111"/>
     <use x="1357.863281" xlink:href="#DejaVuSans-117"/>
     <use x="1421.242188" xlink:href="#DejaVuSans-100"/>
     <use x="1484.71875" xlink:href="#DejaVuSans-110"/>
     <use x="1548.097656" xlink:href="#DejaVuSans-101"/>
     <use x="1609.621094" xlink:href="#DejaVuSans-115"/>
     <use x="1661.720703" xlink:href="#DejaVuSans-115"/>
    </g>
   </g>
   <g id="legend_1">
    <g id="patch_11">
     <path d="M 331.227813 64.150125 
L 407.72 64.150125 
Q 409.72 64.150125 409.72 62.150125 
L 409.72 48.472 
Q 409.72 46.472 407.72 46.472 
L 331.227813 46.472 
Q 329.227813 46.472 329.227813 48.472 
L 329.227813 62.150125 
Q 329.227813 64.150125 331.227813 64.150125 
z
" style="fill:#ffffff;opacity:0.8;stroke:#cccccc;stroke-linejoin:miter;"/>
    </g>
    <g id="line2d_32">
     <path d="M 333.227813 54.570438 
L 353.227813 54.570438 
" style="fill:none;stroke:#008000;stroke-linecap:square;stroke-width:1.5;"/>
    </g>
    <g id="line2d_33"/>
    <g id="text_26">
     <!-- loudness -->
     <defs>
      <path d="M 9.421875 75.984375 
L 18.40625 75.984375 
L 18.40625 0 
L 9.421875 0 
z
" id="DejaVuSans-108"/>
     </defs>
     <g transform="translate(361.227813 58.070438)scale(0.1 -0.1)">
      <use xlink:href="#DejaVuSans-108"/>
      <use x="27.783203" xlink:href="#DejaVuSans-111"/>
      <use x="88.964844" xlink:href="#DejaVuSans-117"/>
      <use x="152.34375" xlink:href="#DejaVuSans-100"/>
      <use x="215.820312" xlink:href="#DejaVuSans-110"/>
      <use x="279.199219" xlink:href="#DejaVuSans-101"/>
      <use x="340.722656" xlink:href="#DejaVuSans-115"/>
      <use x="392.822266" xlink:href="#DejaVuSans-115"/>
     </g>
    </g>
   </g>
  </g>
 </g>
 <defs>
  <clipPath id="p9a5c385082">
   <rect height="266.112" width="357.12" x="57.6" y="41.472"/>
  </clipPath>
 </defs>
</svg>
