<?xml version="1.0" encoding="UTF-8" standalone="no"?>
<!DOCTYPE svg PUBLIC "-//W3C//DTD SVG 1.1//EN"
 "http://www.w3.org/Graphics/SVG/1.1/DTD/svg11.dtd">
<!-- Generated by graphviz version 2.40.1 (20161225.0304)
 -->
<!-- Title: %3 Pages: 1 -->
<svg width="386pt" height="259pt"
 viewBox="0.00 0.00 386.00 258.87" xmlns="http://www.w3.org/2000/svg" xmlns:xlink="http://www.w3.org/1999/xlink">
<g id="graph0" class="graph" transform="scale(1 1) rotate(0) translate(4 254.8726)">
<title>%3</title>
<polygon fill="#ffffff" stroke="transparent" points="-4,4 -4,-254.8726 381.9976,-254.8726 381.9976,4 -4,4"/>
<!-- E0 -->
<g id="node1" class="node">
<title>E0</title>
<polygon fill="#d3d3d3" stroke="#000000" points="25.9963,-250.8726 .0012,-250.8726 .0012,-233.8726 25.9963,-233.8726 25.9963,-250.8726"/>
<text text-anchor="middle" x="12.9988" y="-239.6726" font-family="Times,serif" font-size="9.00" fill="#000000">E0</text>
</g>
<!-- E1 -->
<g id="node2" class="node">
<title>E1</title>
<polygon fill="#d3d3d3" stroke="#000000" points="69.9963,-250.8726 44.0012,-250.8726 44.0012,-233.8726 69.9963,-233.8726 69.9963,-250.8726"/>
<text text-anchor="middle" x="56.9988" y="-239.6726" font-family="Times,serif" font-size="9.00" fill="#000000">E1</text>
</g>
<!-- E0&#45;&gt;E1 -->
<!-- 2 -->
<g id="node12" class="node">
<title>2</title>
<ellipse fill="#ffa07a" stroke="#000000" cx="166.9988" cy="-14.853" rx="14.4914" ry="14.4914"/>
<text text-anchor="middle" x="166.9988" y="-12.153" font-family="Times,serif" font-size="9.00" fill="#000000">2</text>
</g>
<!-- E0&#45;&gt;2 -->
<g id="edge14" class="edge">
<title>E0&#45;&gt;2</title>
<path fill="none" stroke="#00ff00" stroke-width=".4485" d="M14.6959,-233.6768C20.4305,-206.1975 41.3359,-119.8513 86.9988,-65.7061 88.1169,-64.3802 122.4688,-42.7392 145.7899,-28.1198"/>
<polygon fill="#00ff00" stroke="#00ff00" stroke-width=".4485" points="147.7733,-31.0074 154.3904,-22.733 144.0576,-25.0749 147.7733,-31.0074"/>
</g>
<!-- E2 -->
<g id="node3" class="node">
<title>E2</title>
<polygon fill="#d3d3d3" stroke="#000000" points="113.9963,-250.8726 88.0012,-250.8726 88.0012,-233.8726 113.9963,-233.8726 113.9963,-250.8726"/>
<text text-anchor="middle" x="100.9988" y="-239.6726" font-family="Times,serif" font-size="9.00" fill="#000000">E2</text>
</g>
<!-- E1&#45;&gt;E2 -->
<!-- E3 -->
<g id="node4" class="node">
<title>E3</title>
<polygon fill="#d3d3d3" stroke="#000000" points="157.9963,-250.8726 132.0012,-250.8726 132.0012,-233.8726 157.9963,-233.8726 157.9963,-250.8726"/>
<text text-anchor="middle" x="144.9988" y="-239.6726" font-family="Times,serif" font-size="9.00" fill="#000000">E3</text>
</g>
<!-- E2&#45;&gt;E3 -->
<!-- 4655 -->
<g id="node15" class="node">
<title>4655</title>
<ellipse fill="#add8e6" stroke="#000000" cx="100.9988" cy="-173.831" rx="24.0833" ry="24.0833"/>
<text text-anchor="middle" x="100.9988" y="-175.631" font-family="Times,serif" font-size="9.00" fill="#000000">4655</text>
<text text-anchor="middle" x="100.9988" y="-166.631" font-family="Times,serif" font-size="9.00" fill="#000000">sigm</text>
</g>
<!-- E2&#45;&gt;4655 -->
<g id="edge20" class="edge">
<title>E2&#45;&gt;4655</title>
<path fill="none" stroke="#ff0000" stroke-width=".1509" d="M100.9988,-233.6918C100.9988,-227.1311 100.9988,-217.6636 100.9988,-208.1874"/>
<polygon fill="#ff0000" stroke="#ff0000" stroke-width=".1509" points="104.4989,-208.0383 100.9988,-198.0384 97.4989,-208.0384 104.4989,-208.0383"/>
</g>
<!-- E4 -->
<g id="node5" class="node">
<title>E4</title>
<polygon fill="#d3d3d3" stroke="#000000" points="201.9963,-250.8726 176.0012,-250.8726 176.0012,-233.8726 201.9963,-233.8726 201.9963,-250.8726"/>
<text text-anchor="middle" x="188.9988" y="-239.6726" font-family="Times,serif" font-size="9.00" fill="#000000">E4</text>
</g>
<!-- E3&#45;&gt;E4 -->
<!-- E5 -->
<g id="node6" class="node">
<title>E5</title>
<polygon fill="#d3d3d3" stroke="#000000" points="245.9963,-250.8726 220.0012,-250.8726 220.0012,-233.8726 245.9963,-233.8726 245.9963,-250.8726"/>
<text text-anchor="middle" x="232.9988" y="-239.6726" font-family="Times,serif" font-size="9.00" fill="#000000">E5</text>
</g>
<!-- E4&#45;&gt;E5 -->
<!-- S -->
<g id="node13" class="node">
<title>S</title>
<ellipse fill="#ffa07a" stroke="#000000" cx="213.9988" cy="-14.853" rx="14.7075" ry="14.7075"/>
<text text-anchor="middle" x="213.9988" y="-12.153" font-family="Times,serif" font-size="9.00" fill="#000000">S</text>
</g>
<!-- E4&#45;&gt;S -->
<g id="edge15" class="edge">
<title>E4&#45;&gt;S</title>
<path fill="none" stroke="#00ff00" stroke-width=".4525" d="M189.9483,-233.7314C193.4465,-201.8947 205.6989,-90.3884 211.2402,-39.9584"/>
<polygon fill="#00ff00" stroke="#00ff00" stroke-width=".4525" points="214.7322,-40.222 212.3455,-29.8995 207.7741,-39.4574 214.7322,-40.222"/>
</g>
<!-- 3749 -->
<g id="node14" class="node">
<title>3749</title>
<ellipse fill="#f08080" stroke="#000000" cx="119.9988" cy="-89.7477" rx="24.0833" ry="24.0833"/>
<text text-anchor="middle" x="119.9988" y="-91.5477" font-family="Times,serif" font-size="9.00" fill="#000000">3749</text>
<text text-anchor="middle" x="119.9988" y="-82.5477" font-family="Times,serif" font-size="9.00" fill="#000000">relu</text>
</g>
<!-- E4&#45;&gt;3749 -->
<g id="edge16" class="edge">
<title>E4&#45;&gt;3749</title>
<path fill="none" stroke="#00ff00" stroke-width=".3675" d="M185.0913,-233.7295C175.4756,-212.46 150.2804,-156.7293 134.2052,-121.1717"/>
<polygon fill="#00ff00" stroke="#00ff00" stroke-width=".3675" points="137.2423,-119.3933 129.9336,-111.723 130.8639,-122.2769 137.2423,-119.3933"/>
</g>
<!-- E4&#45;&gt;4655 -->
<g id="edge17" class="edge">
<title>E4&#45;&gt;4655</title>
<path fill="none" stroke="#00ff00" stroke-width=".4366" d="M177.8535,-233.6918C165.4869,-224.0596 145.0756,-208.1617 128.3952,-195.1695"/>
<polygon fill="#00ff00" stroke="#00ff00" stroke-width=".4366" points="130.1149,-192.0726 120.0748,-188.689 125.8134,-197.5951 130.1149,-192.0726"/>
</g>
<!-- E6 -->
<g id="node7" class="node">
<title>E6</title>
<polygon fill="#d3d3d3" stroke="#000000" points="289.9963,-250.8726 264.0012,-250.8726 264.0012,-233.8726 289.9963,-233.8726 289.9963,-250.8726"/>
<text text-anchor="middle" x="276.9988" y="-239.6726" font-family="Times,serif" font-size="9.00" fill="#000000">E6</text>
</g>
<!-- E5&#45;&gt;E6 -->
<!-- E5&#45;&gt;S -->
<g id="edge12" class="edge">
<title>E5&#45;&gt;S</title>
<path fill="none" stroke="#00ff00" stroke-width="2.8649" d="M232.2772,-233.7314C229.6185,-201.8947 220.3067,-90.3884 216.0953,-39.9584"/>
<polygon fill="#00ff00" stroke="#00ff00" stroke-width="2.8649" points="219.5754,-39.5735 215.2553,-29.8995 212.5997,-40.1561 219.5754,-39.5735"/>
</g>
<!-- E7 -->
<g id="node8" class="node">
<title>E7</title>
<polygon fill="#d3d3d3" stroke="#000000" points="333.9963,-250.8726 308.0012,-250.8726 308.0012,-233.8726 333.9963,-233.8726 333.9963,-250.8726"/>
<text text-anchor="middle" x="320.9988" y="-239.6726" font-family="Times,serif" font-size="9.00" fill="#000000">E7</text>
</g>
<!-- E6&#45;&gt;E7 -->
<!-- E8 -->
<g id="node9" class="node">
<title>E8</title>
<polygon fill="#d3d3d3" stroke="#000000" points="377.9963,-250.8726 352.0012,-250.8726 352.0012,-233.8726 377.9963,-233.8726 377.9963,-250.8726"/>
<text text-anchor="middle" x="364.9988" y="-239.6726" font-family="Times,serif" font-size="9.00" fill="#000000">E8</text>
</g>
<!-- E7&#45;&gt;E8 -->
<!-- 0 -->
<g id="node10" class="node">
<title>0</title>
<ellipse fill="#eee8aa" stroke="#000000" cx="72.9988" cy="-14.853" rx="14.4914" ry="14.4914"/>
<text text-anchor="middle" x="72.9988" y="-12.153" font-family="Times,serif" font-size="9.00" fill="#000000">0</text>
</g>
<!-- E7&#45;&gt;0 -->
<g id="edge13" class="edge">
<title>E7&#45;&gt;0</title>
<path fill="none" stroke="#ff0000" stroke-width="1.2603" d="M313.9573,-233.5618C292.032,-206.4576 222.2944,-122.7103 152.9988,-65.7061 147.7441,-61.3835 115.8936,-41.4241 94.0016,-27.8344"/>
<polygon fill="#ff0000" stroke="#ff0000" stroke-width="1.2603" points="95.6796,-24.7567 85.3357,-22.4644 91.9924,-30.7069 95.6796,-24.7567"/>
</g>
<!-- 1 -->
<g id="node11" class="node">
<title>1</title>
<ellipse fill="#eee8aa" stroke="#000000" cx="119.9988" cy="-14.853" rx="14.4914" ry="14.4914"/>
<text text-anchor="middle" x="119.9988" y="-12.153" font-family="Times,serif" font-size="9.00" fill="#000000">1</text>
</g>
<!-- 0&#45;&gt;1 -->
<!-- 1&#45;&gt;2 -->
<!-- 2&#45;&gt;S -->
<!-- 3749&#45;&gt;1 -->
<g id="edge19" class="edge">
<title>3749&#45;&gt;1</title>
<path fill="none" stroke="#00ff00" stroke-width=".3907" d="M119.9988,-65.6383C119.9988,-57.432 119.9988,-48.2428 119.9988,-39.9602"/>
<polygon fill="#00ff00" stroke="#00ff00" stroke-width=".3907" points="123.4989,-39.7533 119.9988,-29.7534 116.4989,-39.7534 123.4989,-39.7533"/>
</g>
<!-- 4655&#45;&gt;3749 -->
<g id="edge18" class="edge">
<title>4655&#45;&gt;3749</title>
<path fill="none" stroke="#ff0000" stroke-width=".6808" d="M106.3926,-149.961C108.2738,-141.6358 110.421,-132.1334 112.4451,-123.1761"/>
<polygon fill="#ff0000" stroke="#ff0000" stroke-width=".6808" points="115.867,-123.9119 114.6572,-113.3863 109.0391,-122.369 115.867,-123.9119"/>
</g>
</g>
</svg>
