<?xml version="1.0" encoding="UTF-8" standalone="no"?>
<!DOCTYPE svg PUBLIC "-//W3C//DTD SVG 1.1//EN"
 "http://www.w3.org/Graphics/SVG/1.1/DTD/svg11.dtd">
<!-- Generated by graphviz version 2.40.1 (20161225.0304)
 -->
<!-- Title: %3 Pages: 1 -->
<svg width="382pt" height="168pt"
 viewBox="0.00 0.00 381.61 167.71" xmlns="http://www.w3.org/2000/svg" xmlns:xlink="http://www.w3.org/1999/xlink">
<g id="graph0" class="graph" transform="scale(1 1) rotate(0) translate(4 163.7107)">
<title>%3</title>
<polygon fill="#ffffff" stroke="transparent" points="-4,4 -4,-163.7107 377.6082,-163.7107 377.6082,4 -4,4"/>
<!-- &#45;1 -->
<g id="node1" class="node">
<title>&#45;1</title>
<polygon fill="#d3d3d3" stroke="#000000" points="40.8621,-159.7107 16.8572,-159.7107 16.8572,-142.7107 40.8621,-142.7107 40.8621,-159.7107"/>
<text text-anchor="middle" x="28.8597" y="-148.5107" font-family="Times,serif" font-size="9.00" fill="#000000">&#45;1</text>
</g>
<!-- &#45;2 -->
<g id="node2" class="node">
<title>&#45;2</title>
<polygon fill="#d3d3d3" stroke="#000000" points="81.8621,-159.7107 57.8572,-159.7107 57.8572,-142.7107 81.8621,-142.7107 81.8621,-159.7107"/>
<text text-anchor="middle" x="69.8597" y="-148.5107" font-family="Times,serif" font-size="9.00" fill="#000000">&#45;2</text>
</g>
<!-- &#45;1&#45;&gt;&#45;2 -->
<!-- 2 -->
<g id="node12" class="node">
<title>2</title>
<ellipse fill="#add8e6" stroke="#000000" cx="230.8597" cy="-14.4957" rx="14.4914" ry="14.4914"/>
<text text-anchor="middle" x="230.8597" y="-11.7957" font-family="Times,serif" font-size="9.00" fill="#000000">2</text>
</g>
<!-- &#45;1&#45;&gt;2 -->
<g id="edge12" class="edge">
<title>&#45;1&#45;&gt;2</title>
<path fill="none" stroke="#ff0000" stroke-width=".4026" d="M40.8907,-143.068C74.2832,-120.4677 168.4051,-56.7654 210.3018,-28.4094"/>
<polygon fill="#ff0000" stroke="#ff0000" stroke-width=".4026" points="212.3164,-31.2722 218.6362,-22.7686 208.3929,-25.4751 212.3164,-31.2722"/>
</g>
<!-- &#45;3 -->
<g id="node3" class="node">
<title>&#45;3</title>
<polygon fill="#d3d3d3" stroke="#000000" points="122.8621,-159.7107 98.8572,-159.7107 98.8572,-142.7107 122.8621,-142.7107 122.8621,-159.7107"/>
<text text-anchor="middle" x="110.8597" y="-148.5107" font-family="Times,serif" font-size="9.00" fill="#000000">&#45;3</text>
</g>
<!-- &#45;2&#45;&gt;&#45;3 -->
<!-- 0 -->
<g id="node10" class="node">
<title>0</title>
<ellipse fill="#add8e6" stroke="#000000" cx="107.8597" cy="-14.4957" rx="14.4914" ry="14.4914"/>
<text text-anchor="middle" x="107.8597" y="-11.7957" font-family="Times,serif" font-size="9.00" fill="#000000">0</text>
</g>
<!-- &#45;2&#45;&gt;0 -->
<g id="edge21" class="edge">
<title>&#45;2&#45;&gt;0</title>
<path fill="none" stroke="#00ff00" stroke-width=".1067" d="M72.2367,-142.6585C77.9343,-122.1601 92.5367,-69.624 101.1741,-38.5488"/>
<polygon fill="#00ff00" stroke="#00ff00" stroke-width=".1067" points="104.6502,-39.1119 103.9561,-28.5399 97.9059,-37.2373 104.6502,-39.1119"/>
</g>
<!-- 293 -->
<g id="node13" class="node">
<title>293</title>
<ellipse fill="#ffffff" stroke="#000000" cx="232.8597" cy="-85.851" rx="20.7202" ry="20.7202"/>
<text text-anchor="middle" x="232.8597" y="-83.151" font-family="Times,serif" font-size="9.00" fill="#000000">293</text>
</g>
<!-- &#45;2&#45;&gt;293 -->
<g id="edge18" class="edge">
<title>&#45;2&#45;&gt;293</title>
<path fill="none" stroke="#00ff00" stroke-width=".5023" d="M81.6851,-146.1308C84.3678,-144.9934 87.2078,-143.8012 89.8597,-142.7107 129.2031,-126.5309 174.9256,-108.4815 203.8716,-97.1475"/>
<polygon fill="#00ff00" stroke="#00ff00" stroke-width=".5023" points="205.3337,-100.3339 213.3725,-93.4326 202.7846,-93.8145 205.3337,-100.3339"/>
</g>
<!-- 267 -->
<g id="node14" class="node">
<title>267</title>
<ellipse fill="#ffffff" stroke="#000000" cx="20.8597" cy="-85.851" rx="20.7202" ry="20.7202"/>
<text text-anchor="middle" x="20.8597" y="-83.151" font-family="Times,serif" font-size="9.00" fill="#000000">267</text>
</g>
<!-- &#45;2&#45;&gt;267 -->
<g id="edge17" class="edge">
<title>&#45;2&#45;&gt;267</title>
<path fill="none" stroke="#ff0000" stroke-width=".2056" d="M63.4538,-142.666C57.4175,-134.6145 48.0704,-122.1466 39.6685,-110.9396"/>
<polygon fill="#ff0000" stroke="#ff0000" stroke-width=".2056" points="42.2972,-108.611 33.4983,-102.7093 36.6964,-112.81 42.2972,-108.611"/>
</g>
<!-- &#45;4 -->
<g id="node4" class="node">
<title>&#45;4</title>
<polygon fill="#d3d3d3" stroke="#000000" points="163.8621,-159.7107 139.8572,-159.7107 139.8572,-142.7107 163.8621,-142.7107 163.8621,-159.7107"/>
<text text-anchor="middle" x="151.8597" y="-148.5107" font-family="Times,serif" font-size="9.00" fill="#000000">&#45;4</text>
</g>
<!-- &#45;3&#45;&gt;&#45;4 -->
<!-- &#45;3&#45;&gt;0 -->
<g id="edge11" class="edge">
<title>&#45;3&#45;&gt;0</title>
<path fill="none" stroke="#ff0000" stroke-width=".469" d="M110.672,-142.6585C110.2268,-122.3692 109.0928,-70.6929 108.4085,-39.5068"/>
<polygon fill="#ff0000" stroke="#ff0000" stroke-width=".469" points="111.9057,-39.3362 108.187,-29.4154 104.9074,-39.4898 111.9057,-39.3362"/>
</g>
<!-- &#45;5 -->
<g id="node5" class="node">
<title>&#45;5</title>
<polygon fill="#d3d3d3" stroke="#000000" points="204.8621,-159.7107 180.8572,-159.7107 180.8572,-142.7107 204.8621,-142.7107 204.8621,-159.7107"/>
<text text-anchor="middle" x="192.8597" y="-148.5107" font-family="Times,serif" font-size="9.00" fill="#000000">&#45;5</text>
</g>
<!-- &#45;4&#45;&gt;&#45;5 -->
<!-- &#45;6 -->
<g id="node6" class="node">
<title>&#45;6</title>
<polygon fill="#d3d3d3" stroke="#000000" points="248.8621,-159.7107 224.8572,-159.7107 224.8572,-142.7107 248.8621,-142.7107 248.8621,-159.7107"/>
<text text-anchor="middle" x="236.8597" y="-148.5107" font-family="Times,serif" font-size="9.00" fill="#000000">&#45;6</text>
</g>
<!-- &#45;5&#45;&gt;&#45;6 -->
<!-- 1 -->
<g id="node11" class="node">
<title>1</title>
<ellipse fill="#add8e6" stroke="#000000" cx="183.8597" cy="-14.4957" rx="14.4914" ry="14.4914"/>
<text text-anchor="middle" x="183.8597" y="-11.7957" font-family="Times,serif" font-size="9.00" fill="#000000">1</text>
</g>
<!-- &#45;5&#45;&gt;1 -->
<g id="edge20" class="edge">
<title>&#45;5&#45;&gt;1</title>
<path fill="none" stroke="#ff0000" stroke-width=".5607" d="M192.2967,-142.6585C190.9541,-122.2646 187.524,-70.1593 185.4745,-39.0261"/>
<polygon fill="#ff0000" stroke="#ff0000" stroke-width=".5607" points="188.9622,-38.7234 184.8128,-28.975 181.9774,-39.1833 188.9622,-38.7234"/>
</g>
<!-- &#45;7 -->
<g id="node7" class="node">
<title>&#45;7</title>
<polygon fill="#d3d3d3" stroke="#000000" points="291.8621,-159.7107 267.8572,-159.7107 267.8572,-142.7107 291.8621,-142.7107 291.8621,-159.7107"/>
<text text-anchor="middle" x="279.8597" y="-148.5107" font-family="Times,serif" font-size="9.00" fill="#000000">&#45;7</text>
</g>
<!-- &#45;6&#45;&gt;&#45;7 -->
<!-- &#45;6&#45;&gt;1 -->
<g id="edge13" class="edge">
<title>&#45;6&#45;&gt;1</title>
<path fill="none" stroke="#ff0000" stroke-width=".3556" d="M243.6256,-142.6755C255.4439,-126.654 277.2782,-91.3199 262.8597,-64.9914 261.2276,-62.0112 228.1093,-41.4325 205.277,-27.4829"/>
<polygon fill="#ff0000" stroke="#ff0000" stroke-width=".3556" points="206.8958,-24.3708 196.5346,-22.1579 203.2544,-30.3491 206.8958,-24.3708"/>
</g>
<!-- &#45;6&#45;&gt;293 -->
<g id="edge15" class="edge">
<title>&#45;6&#45;&gt;293</title>
<path fill="none" stroke="#00ff00" stroke-width=".6262" d="M236.3367,-142.666C235.9293,-136.0083 235.337,-126.331 234.7564,-116.8437"/>
<polygon fill="#00ff00" stroke="#00ff00" stroke-width=".6262" points="238.2446,-116.5431 234.1402,-106.7756 231.2577,-116.9708 238.2446,-116.5431"/>
</g>
<!-- &#45;8 -->
<g id="node8" class="node">
<title>&#45;8</title>
<polygon fill="#d3d3d3" stroke="#000000" points="332.8621,-159.7107 308.8572,-159.7107 308.8572,-142.7107 332.8621,-142.7107 332.8621,-159.7107"/>
<text text-anchor="middle" x="320.8597" y="-148.5107" font-family="Times,serif" font-size="9.00" fill="#000000">&#45;8</text>
</g>
<!-- &#45;7&#45;&gt;&#45;8 -->
<!-- &#45;7&#45;&gt;0 -->
<g id="edge19" class="edge">
<title>&#45;7&#45;&gt;0</title>
<path fill="none" stroke="#00ff00" stroke-width=".5688" stroke-dasharray="1,5" d="M280.7855,-142.6497C282.1282,-125.6269 282.5944,-87.2546 262.8597,-64.9914 258.3707,-59.9273 174.0472,-34.2373 131.704,-21.5733"/>
<polygon fill="#00ff00" stroke="#00ff00" stroke-width=".5688" points="132.5006,-18.1586 121.9174,-18.6547 130.5,-24.8666 132.5006,-18.1586"/>
</g>
<!-- &#45;9 -->
<g id="node9" class="node">
<title>&#45;9</title>
<polygon fill="#d3d3d3" stroke="#000000" points="373.8621,-159.7107 349.8572,-159.7107 349.8572,-142.7107 373.8621,-142.7107 373.8621,-159.7107"/>
<text text-anchor="middle" x="361.8597" y="-148.5107" font-family="Times,serif" font-size="9.00" fill="#000000">&#45;9</text>
</g>
<!-- &#45;8&#45;&gt;&#45;9 -->
<!-- 0&#45;&gt;1 -->
<!-- 1&#45;&gt;2 -->
<!-- 293&#45;&gt;1 -->
<g id="edge16" class="edge">
<title>293&#45;&gt;1</title>
<path fill="none" stroke="#ff0000" stroke-width=".4871" d="M220.9981,-68.5779C214.0057,-58.3954 205.122,-45.4585 197.7965,-34.7909"/>
<polygon fill="#ff0000" stroke="#ff0000" stroke-width=".4871" points="200.6314,-32.7364 192.0853,-26.4742 194.861,-36.699 200.6314,-32.7364"/>
</g>
<!-- 267&#45;&gt;0 -->
<g id="edge14" class="edge">
<title>267&#45;&gt;0</title>
<path fill="none" stroke="#00ff00" stroke-width=".124" d="M37.2237,-72.4296C51.8427,-60.4395 73.2697,-42.8655 88.6872,-30.2205"/>
<polygon fill="#00ff00" stroke="#00ff00" stroke-width=".124" points="91.0404,-32.8171 96.5528,-23.7693 86.6012,-27.4047 91.0404,-32.8171"/>
</g>
</g>
</svg>
