<?xml version="1.0" encoding="UTF-8" standalone="no"?>
<!DOCTYPE svg PUBLIC "-//W3C//DTD SVG 1.1//EN"
 "http://www.w3.org/Graphics/SVG/1.1/DTD/svg11.dtd">
<!-- Generated by graphviz version 2.40.1 (20161225.0304)
 -->
<!-- Title: %3 Pages: 1 -->
<svg width="450pt" height="239pt"
 viewBox="0.00 0.00 449.99 239.07" xmlns="http://www.w3.org/2000/svg" xmlns:xlink="http://www.w3.org/1999/xlink">
<g id="graph0" class="graph" transform="scale(1 1) rotate(0) translate(4 235.066)">
<title>%3</title>
<polygon fill="#ffffff" stroke="transparent" points="-4,4 -4,-235.066 445.9914,-235.066 445.9914,4 -4,4"/>
<!-- &#45;1 -->
<g id="node1" class="node">
<title>&#45;1</title>
<polygon fill="#d3d3d3" stroke="#000000" points="103.4981,-231.066 79.4932,-231.066 79.4932,-214.066 103.4981,-214.066 103.4981,-231.066"/>
<text text-anchor="middle" x="91.4957" y="-219.866" font-family="Times,serif" font-size="9.00" fill="#000000">&#45;1</text>
</g>
<!-- &#45;2 -->
<g id="node2" class="node">
<title>&#45;2</title>
<polygon fill="#d3d3d3" stroke="#000000" points="144.4981,-231.066 120.4932,-231.066 120.4932,-214.066 144.4981,-214.066 144.4981,-231.066"/>
<text text-anchor="middle" x="132.4957" y="-219.866" font-family="Times,serif" font-size="9.00" fill="#000000">&#45;2</text>
</g>
<!-- &#45;1&#45;&gt;&#45;2 -->
<!-- &#45;3 -->
<g id="node3" class="node">
<title>&#45;3</title>
<polygon fill="#d3d3d3" stroke="#000000" points="303.4981,-231.066 279.4932,-231.066 279.4932,-214.066 303.4981,-214.066 303.4981,-231.066"/>
<text text-anchor="middle" x="291.4957" y="-219.866" font-family="Times,serif" font-size="9.00" fill="#000000">&#45;3</text>
</g>
<!-- &#45;2&#45;&gt;&#45;3 -->
<!-- 5 -->
<g id="node9" class="node">
<title>5</title>
<ellipse fill="#add8e6" stroke="#000000" cx="14.4957" cy="-163.5703" rx="14.4914" ry="14.4914"/>
<text text-anchor="middle" x="14.4957" y="-160.8703" font-family="Times,serif" font-size="9.00" fill="#000000">5</text>
</g>
<!-- &#45;2&#45;&gt;5 -->
<g id="edge11" class="edge">
<title>&#45;2&#45;&gt;5</title>
<path fill="none" stroke="#ff0000" stroke-width=".3777" d="M120.7309,-217.4575C102.7443,-209.5447 67.4479,-193.611 38.4957,-178.066 37.6701,-177.6228 36.833,-177.1642 35.9908,-176.6951"/>
<polygon fill="#ff0000" stroke="#ff0000" stroke-width=".3777" points="37.4631,-173.5021 27.0616,-171.487 33.9362,-179.5487 37.4631,-173.5021"/>
</g>
<!-- 6 -->
<g id="node10" class="node">
<title>6</title>
<ellipse fill="#add8e6" stroke="#000000" cx="333.4957" cy="-163.5703" rx="14.4914" ry="14.4914"/>
<text text-anchor="middle" x="333.4957" y="-160.8703" font-family="Times,serif" font-size="9.00" fill="#000000">6</text>
</g>
<!-- &#45;3&#45;&gt;6 -->
<g id="edge12" class="edge">
<title>&#45;3&#45;&gt;6</title>
<path fill="none" stroke="#ff0000" stroke-width=".1949" stroke-dasharray="1,5" d="M297.6929,-213.861C303.2699,-206.0273 311.6808,-194.2128 318.9492,-184.0032"/>
<polygon fill="#ff0000" stroke="#ff0000" stroke-width=".1949" points="321.9942,-185.7609 324.9426,-175.5845 316.2917,-181.7011 321.9942,-185.7609"/>
</g>
<!-- 78 -->
<g id="node14" class="node">
<title>78</title>
<ellipse fill="#ffffff" stroke="#000000" cx="289.4957" cy="-95.397" rx="17.8571" ry="17.8571"/>
<text text-anchor="middle" x="289.4957" y="-92.697" font-family="Times,serif" font-size="9.00" fill="#000000">78</text>
</g>
<!-- &#45;3&#45;&gt;78 -->
<g id="edge13" class="edge">
<title>&#45;3&#45;&gt;78</title>
<path fill="none" stroke="#00ff00" stroke-width=".1598" stroke-dasharray="1,5" d="M291.3582,-213.8252C291.0702,-195.514 290.3928,-152.4392 289.9393,-123.6036"/>
<polygon fill="#00ff00" stroke="#00ff00" stroke-width=".1598" points="293.4346,-123.2744 289.7777,-113.3307 286.4355,-123.3845 293.4346,-123.2744"/>
</g>
<!-- 0 -->
<g id="node4" class="node">
<title>0</title>
<ellipse fill="#add8e6" stroke="#000000" cx="61.4957" cy="-163.5703" rx="14.4914" ry="14.4914"/>
<text text-anchor="middle" x="61.4957" y="-160.8703" font-family="Times,serif" font-size="9.00" fill="#000000">0</text>
</g>
<!-- 1 -->
<g id="node5" class="node">
<title>1</title>
<ellipse fill="#add8e6" stroke="#000000" cx="108.4957" cy="-163.5703" rx="14.4914" ry="14.4914"/>
<text text-anchor="middle" x="108.4957" y="-160.8703" font-family="Times,serif" font-size="9.00" fill="#000000">1</text>
</g>
<!-- 0&#45;&gt;1 -->
<!-- 2 -->
<g id="node6" class="node">
<title>2</title>
<ellipse fill="#add8e6" stroke="#000000" cx="155.4957" cy="-163.5703" rx="14.4914" ry="14.4914"/>
<text text-anchor="middle" x="155.4957" y="-160.8703" font-family="Times,serif" font-size="9.00" fill="#000000">2</text>
</g>
<!-- 1&#45;&gt;2 -->
<!-- 1&#45;&gt;78 -->
<g id="edge17" class="edge">
<title>1&#45;&gt;78</title>
<path fill="none" stroke="#00ff00" stroke-width=".1473" d="M120.9219,-155.3749C124.5645,-153.1638 128.6136,-150.8852 132.4957,-149.0746 176.3564,-128.6189 230.2678,-111.8934 262.1468,-102.8123"/>
<polygon fill="#00ff00" stroke="#00ff00" stroke-width=".1473" points="263.3829,-106.1008 272.0669,-100.0313 261.4933,-99.3606 263.3829,-106.1008"/>
</g>
<!-- 3 -->
<g id="node7" class="node">
<title>3</title>
<ellipse fill="#add8e6" stroke="#000000" cx="202.4957" cy="-163.5703" rx="14.4914" ry="14.4914"/>
<text text-anchor="middle" x="202.4957" y="-160.8703" font-family="Times,serif" font-size="9.00" fill="#000000">3</text>
</g>
<!-- 2&#45;&gt;3 -->
<!-- 4 -->
<g id="node8" class="node">
<title>4</title>
<ellipse fill="#add8e6" stroke="#000000" cx="249.4957" cy="-163.5703" rx="14.4914" ry="14.4914"/>
<text text-anchor="middle" x="249.4957" y="-160.8703" font-family="Times,serif" font-size="9.00" fill="#000000">4</text>
</g>
<!-- 3&#45;&gt;4 -->
<!-- 4&#45;&gt;5 -->
<!-- 5&#45;&gt;6 -->
<!-- 7 -->
<g id="node11" class="node">
<title>7</title>
<ellipse fill="#add8e6" stroke="#000000" cx="380.4957" cy="-163.5703" rx="14.4914" ry="14.4914"/>
<text text-anchor="middle" x="380.4957" y="-160.8703" font-family="Times,serif" font-size="9.00" fill="#000000">7</text>
</g>
<!-- 6&#45;&gt;7 -->
<!-- 8 -->
<g id="node12" class="node">
<title>8</title>
<ellipse fill="#add8e6" stroke="#000000" cx="427.4957" cy="-163.5703" rx="14.4914" ry="14.4914"/>
<text text-anchor="middle" x="427.4957" y="-160.8703" font-family="Times,serif" font-size="9.00" fill="#000000">8</text>
</g>
<!-- 7&#45;&gt;8 -->
<!-- 101 -->
<g id="node13" class="node">
<title>101</title>
<ellipse fill="#ffffff" stroke="#000000" cx="312.4957" cy="-20.8597" rx="20.7202" ry="20.7202"/>
<text text-anchor="middle" x="312.4957" y="-18.1597" font-family="Times,serif" font-size="9.00" fill="#000000">101</text>
</g>
<!-- 101&#45;&gt;6 -->
<g id="edge16" class="edge">
<title>101&#45;&gt;6</title>
<path fill="none" stroke="#ff0000" stroke-width=".2354" d="M315.5772,-41.8009C319.3888,-67.7038 325.8668,-111.726 329.9011,-139.1422"/>
<polygon fill="#ff0000" stroke="#ff0000" stroke-width=".2354" points="326.4479,-139.7172 331.3665,-149.1011 333.3733,-138.6981 326.4479,-139.7172"/>
</g>
<!-- 78&#45;&gt;6 -->
<g id="edge14" class="edge">
<title>78&#45;&gt;6</title>
<path fill="none" stroke="#00ff00" stroke-width=".2087" stroke-dasharray="1,5" d="M299.1364,-110.3342C305.2824,-119.8569 313.3335,-132.3312 320.0972,-142.8108"/>
<polygon fill="#00ff00" stroke="#00ff00" stroke-width=".2087" points="317.2659,-144.8783 325.6294,-151.3823 323.1473,-141.0823 317.2659,-144.8783"/>
</g>
<!-- 78&#45;&gt;101 -->
<g id="edge15" class="edge">
<title>78&#45;&gt;101</title>
<path fill="none" stroke="#00ff00" stroke-width=".2163" d="M294.7147,-78.4833C297.2723,-70.1948 300.4278,-59.9688 303.3671,-50.443"/>
<polygon fill="#00ff00" stroke="#00ff00" stroke-width=".2163" points="306.7137,-51.4677 306.3179,-40.8802 300.0249,-49.4037 306.7137,-51.4677"/>
</g>
</g>
</svg>
