<?xml version="1.0" encoding="utf-8" standalone="no"?>
<!DOCTYPE svg PUBLIC "-//W3C//DTD SVG 1.1//EN"
  "http://www.w3.org/Graphics/SVG/1.1/DTD/svg11.dtd">
<!-- Created with matplotlib (https://matplotlib.org/) -->
<svg height="345.6pt" version="1.1" viewBox="0 0 460.8 345.6" width="460.8pt" xmlns="http://www.w3.org/2000/svg" xmlns:xlink="http://www.w3.org/1999/xlink">
 <defs>
  <style type="text/css">
*{stroke-linecap:butt;stroke-linejoin:round;}
  </style>
 </defs>
 <g id="figure_1">
  <g id="patch_1">
   <path d="M 0 345.6 
L 460.8 345.6 
L 460.8 0 
L 0 0 
z
" style="fill:#ffffff;"/>
  </g>
  <g id="axes_1">
   <g id="patch_2">
    <path d="M 57.6 307.584 
L 414.72 307.584 
L 414.72 41.472 
L 57.6 41.472 
z
" style="fill:#ffffff;"/>
   </g>
   <g id="matplotlib.axis_1">
    <g id="xtick_1">
     <g id="line2d_1">
      <path clip-path="url(#p05a54edf35)" d="M 73.832727 307.584 
L 73.832727 41.472 
" style="fill:none;stroke:#b0b0b0;stroke-linecap:square;stroke-width:0.8;"/>
     </g>
     <g id="line2d_2">
      <defs>
       <path d="M 0 0 
L 0 3.5 
" id="m5815a4ac69" style="stroke:#000000;stroke-width:0.8;"/>
      </defs>
      <g>
       <use style="stroke:#000000;stroke-width:0.8;" x="73.832727" xlink:href="#m5815a4ac69" y="307.584"/>
      </g>
     </g>
     <g id="text_1">
      <!-- 0 -->
      <defs>
       <path d="M 31.78125 66.40625 
Q 24.171875 66.40625 20.328125 58.90625 
Q 16.5 51.421875 16.5 36.375 
Q 16.5 21.390625 20.328125 13.890625 
Q 24.171875 6.390625 31.78125 6.390625 
Q 39.453125 6.390625 43.28125 13.890625 
Q 47.125 21.390625 47.125 36.375 
Q 47.125 51.421875 43.28125 58.90625 
Q 39.453125 66.40625 31.78125 66.40625 
z
M 31.78125 74.21875 
Q 44.046875 74.21875 50.515625 64.515625 
Q 56.984375 54.828125 56.984375 36.375 
Q 56.984375 17.96875 50.515625 8.265625 
Q 44.046875 -1.421875 31.78125 -1.421875 
Q 19.53125 -1.421875 13.0625 8.265625 
Q 6.59375 17.96875 6.59375 36.375 
Q 6.59375 54.828125 13.0625 64.515625 
Q 19.53125 74.21875 31.78125 74.21875 
z
" id="DejaVuSans-48"/>
      </defs>
      <g transform="translate(70.651477 322.182437)scale(0.1 -0.1)">
       <use xlink:href="#DejaVuSans-48"/>
      </g>
     </g>
    </g>
    <g id="xtick_2">
     <g id="line2d_3">
      <path clip-path="url(#p05a54edf35)" d="M 128.122785 307.584 
L 128.122785 41.472 
" style="fill:none;stroke:#b0b0b0;stroke-linecap:square;stroke-width:0.8;"/>
     </g>
     <g id="line2d_4">
      <g>
       <use style="stroke:#000000;stroke-width:0.8;" x="128.122785" xlink:href="#m5815a4ac69" y="307.584"/>
      </g>
     </g>
     <g id="text_2">
      <!-- 50 -->
      <defs>
       <path d="M 10.796875 72.90625 
L 49.515625 72.90625 
L 49.515625 64.59375 
L 19.828125 64.59375 
L 19.828125 46.734375 
Q 21.96875 47.46875 24.109375 47.828125 
Q 26.265625 48.1875 28.421875 48.1875 
Q 40.625 48.1875 47.75 41.5 
Q 54.890625 34.8125 54.890625 23.390625 
Q 54.890625 11.625 47.5625 5.09375 
Q 40.234375 -1.421875 26.90625 -1.421875 
Q 22.3125 -1.421875 17.546875 -0.640625 
Q 12.796875 0.140625 7.71875 1.703125 
L 7.71875 11.625 
Q 12.109375 9.234375 16.796875 8.0625 
Q 21.484375 6.890625 26.703125 6.890625 
Q 35.15625 6.890625 40.078125 11.328125 
Q 45.015625 15.765625 45.015625 23.390625 
Q 45.015625 31 40.078125 35.4375 
Q 35.15625 39.890625 26.703125 39.890625 
Q 22.75 39.890625 18.8125 39.015625 
Q 14.890625 38.140625 10.796875 36.28125 
z
" id="DejaVuSans-53"/>
      </defs>
      <g transform="translate(121.760285 322.182437)scale(0.1 -0.1)">
       <use xlink:href="#DejaVuSans-53"/>
       <use x="63.623047" xlink:href="#DejaVuSans-48"/>
      </g>
     </g>
    </g>
    <g id="xtick_3">
     <g id="line2d_5">
      <path clip-path="url(#p05a54edf35)" d="M 182.412843 307.584 
L 182.412843 41.472 
" style="fill:none;stroke:#b0b0b0;stroke-linecap:square;stroke-width:0.8;"/>
     </g>
     <g id="line2d_6">
      <g>
       <use style="stroke:#000000;stroke-width:0.8;" x="182.412843" xlink:href="#m5815a4ac69" y="307.584"/>
      </g>
     </g>
     <g id="text_3">
      <!-- 100 -->
      <defs>
       <path d="M 12.40625 8.296875 
L 28.515625 8.296875 
L 28.515625 63.921875 
L 10.984375 60.40625 
L 10.984375 69.390625 
L 28.421875 72.90625 
L 38.28125 72.90625 
L 38.28125 8.296875 
L 54.390625 8.296875 
L 54.390625 0 
L 12.40625 0 
z
" id="DejaVuSans-49"/>
      </defs>
      <g transform="translate(172.869093 322.182437)scale(0.1 -0.1)">
       <use xlink:href="#DejaVuSans-49"/>
       <use x="63.623047" xlink:href="#DejaVuSans-48"/>
       <use x="127.246094" xlink:href="#DejaVuSans-48"/>
      </g>
     </g>
    </g>
    <g id="xtick_4">
     <g id="line2d_7">
      <path clip-path="url(#p05a54edf35)" d="M 236.702901 307.584 
L 236.702901 41.472 
" style="fill:none;stroke:#b0b0b0;stroke-linecap:square;stroke-width:0.8;"/>
     </g>
     <g id="line2d_8">
      <g>
       <use style="stroke:#000000;stroke-width:0.8;" x="236.702901" xlink:href="#m5815a4ac69" y="307.584"/>
      </g>
     </g>
     <g id="text_4">
      <!-- 150 -->
      <g transform="translate(227.159151 322.182437)scale(0.1 -0.1)">
       <use xlink:href="#DejaVuSans-49"/>
       <use x="63.623047" xlink:href="#DejaVuSans-53"/>
       <use x="127.246094" xlink:href="#DejaVuSans-48"/>
      </g>
     </g>
    </g>
    <g id="xtick_5">
     <g id="line2d_9">
      <path clip-path="url(#p05a54edf35)" d="M 290.992958 307.584 
L 290.992958 41.472 
" style="fill:none;stroke:#b0b0b0;stroke-linecap:square;stroke-width:0.8;"/>
     </g>
     <g id="line2d_10">
      <g>
       <use style="stroke:#000000;stroke-width:0.8;" x="290.992958" xlink:href="#m5815a4ac69" y="307.584"/>
      </g>
     </g>
     <g id="text_5">
      <!-- 200 -->
      <defs>
       <path d="M 19.1875 8.296875 
L 53.609375 8.296875 
L 53.609375 0 
L 7.328125 0 
L 7.328125 8.296875 
Q 12.9375 14.109375 22.625 23.890625 
Q 32.328125 33.6875 34.8125 36.53125 
Q 39.546875 41.84375 41.421875 45.53125 
Q 43.3125 49.21875 43.3125 52.78125 
Q 43.3125 58.59375 39.234375 62.25 
Q 35.15625 65.921875 28.609375 65.921875 
Q 23.96875 65.921875 18.8125 64.3125 
Q 13.671875 62.703125 7.8125 59.421875 
L 7.8125 69.390625 
Q 13.765625 71.78125 18.9375 73 
Q 24.125 74.21875 28.421875 74.21875 
Q 39.75 74.21875 46.484375 68.546875 
Q 53.21875 62.890625 53.21875 53.421875 
Q 53.21875 48.921875 51.53125 44.890625 
Q 49.859375 40.875 45.40625 35.40625 
Q 44.1875 33.984375 37.640625 27.21875 
Q 31.109375 20.453125 19.1875 8.296875 
z
" id="DejaVuSans-50"/>
      </defs>
      <g transform="translate(281.449208 322.182437)scale(0.1 -0.1)">
       <use xlink:href="#DejaVuSans-50"/>
       <use x="63.623047" xlink:href="#DejaVuSans-48"/>
       <use x="127.246094" xlink:href="#DejaVuSans-48"/>
      </g>
     </g>
    </g>
    <g id="xtick_6">
     <g id="line2d_11">
      <path clip-path="url(#p05a54edf35)" d="M 345.283016 307.584 
L 345.283016 41.472 
" style="fill:none;stroke:#b0b0b0;stroke-linecap:square;stroke-width:0.8;"/>
     </g>
     <g id="line2d_12">
      <g>
       <use style="stroke:#000000;stroke-width:0.8;" x="345.283016" xlink:href="#m5815a4ac69" y="307.584"/>
      </g>
     </g>
     <g id="text_6">
      <!-- 250 -->
      <g transform="translate(335.739266 322.182437)scale(0.1 -0.1)">
       <use xlink:href="#DejaVuSans-50"/>
       <use x="63.623047" xlink:href="#DejaVuSans-53"/>
       <use x="127.246094" xlink:href="#DejaVuSans-48"/>
      </g>
     </g>
    </g>
    <g id="xtick_7">
     <g id="line2d_13">
      <path clip-path="url(#p05a54edf35)" d="M 399.573074 307.584 
L 399.573074 41.472 
" style="fill:none;stroke:#b0b0b0;stroke-linecap:square;stroke-width:0.8;"/>
     </g>
     <g id="line2d_14">
      <g>
       <use style="stroke:#000000;stroke-width:0.8;" x="399.573074" xlink:href="#m5815a4ac69" y="307.584"/>
      </g>
     </g>
     <g id="text_7">
      <!-- 300 -->
      <defs>
       <path d="M 40.578125 39.3125 
Q 47.65625 37.796875 51.625 33 
Q 55.609375 28.21875 55.609375 21.1875 
Q 55.609375 10.40625 48.1875 4.484375 
Q 40.765625 -1.421875 27.09375 -1.421875 
Q 22.515625 -1.421875 17.65625 -0.515625 
Q 12.796875 0.390625 7.625 2.203125 
L 7.625 11.71875 
Q 11.71875 9.328125 16.59375 8.109375 
Q 21.484375 6.890625 26.8125 6.890625 
Q 36.078125 6.890625 40.9375 10.546875 
Q 45.796875 14.203125 45.796875 21.1875 
Q 45.796875 27.640625 41.28125 31.265625 
Q 36.765625 34.90625 28.71875 34.90625 
L 20.21875 34.90625 
L 20.21875 43.015625 
L 29.109375 43.015625 
Q 36.375 43.015625 40.234375 45.921875 
Q 44.09375 48.828125 44.09375 54.296875 
Q 44.09375 59.90625 40.109375 62.90625 
Q 36.140625 65.921875 28.71875 65.921875 
Q 24.65625 65.921875 20.015625 65.03125 
Q 15.375 64.15625 9.8125 62.3125 
L 9.8125 71.09375 
Q 15.4375 72.65625 20.34375 73.4375 
Q 25.25 74.21875 29.59375 74.21875 
Q 40.828125 74.21875 47.359375 69.109375 
Q 53.90625 64.015625 53.90625 55.328125 
Q 53.90625 49.265625 50.4375 45.09375 
Q 46.96875 40.921875 40.578125 39.3125 
z
" id="DejaVuSans-51"/>
      </defs>
      <g transform="translate(390.029324 322.182437)scale(0.1 -0.1)">
       <use xlink:href="#DejaVuSans-51"/>
       <use x="63.623047" xlink:href="#DejaVuSans-48"/>
       <use x="127.246094" xlink:href="#DejaVuSans-48"/>
      </g>
     </g>
    </g>
    <g id="text_8">
     <!-- Generations -->
     <defs>
      <path d="M 59.515625 10.40625 
L 59.515625 29.984375 
L 43.40625 29.984375 
L 43.40625 38.09375 
L 69.28125 38.09375 
L 69.28125 6.78125 
Q 63.578125 2.734375 56.6875 0.65625 
Q 49.8125 -1.421875 42 -1.421875 
Q 24.90625 -1.421875 15.25 8.5625 
Q 5.609375 18.5625 5.609375 36.375 
Q 5.609375 54.25 15.25 64.234375 
Q 24.90625 74.21875 42 74.21875 
Q 49.125 74.21875 55.546875 72.453125 
Q 61.96875 70.703125 67.390625 67.28125 
L 67.390625 56.78125 
Q 61.921875 61.421875 55.765625 63.765625 
Q 49.609375 66.109375 42.828125 66.109375 
Q 29.4375 66.109375 22.71875 58.640625 
Q 16.015625 51.171875 16.015625 36.375 
Q 16.015625 21.625 22.71875 14.15625 
Q 29.4375 6.6875 42.828125 6.6875 
Q 48.046875 6.6875 52.140625 7.59375 
Q 56.25 8.5 59.515625 10.40625 
z
" id="DejaVuSans-71"/>
      <path d="M 56.203125 29.59375 
L 56.203125 25.203125 
L 14.890625 25.203125 
Q 15.484375 15.921875 20.484375 11.0625 
Q 25.484375 6.203125 34.421875 6.203125 
Q 39.59375 6.203125 44.453125 7.46875 
Q 49.3125 8.734375 54.109375 11.28125 
L 54.109375 2.78125 
Q 49.265625 0.734375 44.1875 -0.34375 
Q 39.109375 -1.421875 33.890625 -1.421875 
Q 20.796875 -1.421875 13.15625 6.1875 
Q 5.515625 13.8125 5.515625 26.8125 
Q 5.515625 40.234375 12.765625 48.109375 
Q 20.015625 56 32.328125 56 
Q 43.359375 56 49.78125 48.890625 
Q 56.203125 41.796875 56.203125 29.59375 
z
M 47.21875 32.234375 
Q 47.125 39.59375 43.09375 43.984375 
Q 39.0625 48.390625 32.421875 48.390625 
Q 24.90625 48.390625 20.390625 44.140625 
Q 15.875 39.890625 15.1875 32.171875 
z
" id="DejaVuSans-101"/>
      <path d="M 54.890625 33.015625 
L 54.890625 0 
L 45.90625 0 
L 45.90625 32.71875 
Q 45.90625 40.484375 42.875 44.328125 
Q 39.84375 48.1875 33.796875 48.1875 
Q 26.515625 48.1875 22.3125 43.546875 
Q 18.109375 38.921875 18.109375 30.90625 
L 18.109375 0 
L 9.078125 0 
L 9.078125 54.6875 
L 18.109375 54.6875 
L 18.109375 46.1875 
Q 21.34375 51.125 25.703125 53.5625 
Q 30.078125 56 35.796875 56 
Q 45.21875 56 50.046875 50.171875 
Q 54.890625 44.34375 54.890625 33.015625 
z
" id="DejaVuSans-110"/>
      <path d="M 41.109375 46.296875 
Q 39.59375 47.171875 37.8125 47.578125 
Q 36.03125 48 33.890625 48 
Q 26.265625 48 22.1875 43.046875 
Q 18.109375 38.09375 18.109375 28.8125 
L 18.109375 0 
L 9.078125 0 
L 9.078125 54.6875 
L 18.109375 54.6875 
L 18.109375 46.1875 
Q 20.953125 51.171875 25.484375 53.578125 
Q 30.03125 56 36.53125 56 
Q 37.453125 56 38.578125 55.875 
Q 39.703125 55.765625 41.0625 55.515625 
z
" id="DejaVuSans-114"/>
      <path d="M 34.28125 27.484375 
Q 23.390625 27.484375 19.1875 25 
Q 14.984375 22.515625 14.984375 16.5 
Q 14.984375 11.71875 18.140625 8.90625 
Q 21.296875 6.109375 26.703125 6.109375 
Q 34.1875 6.109375 38.703125 11.40625 
Q 43.21875 16.703125 43.21875 25.484375 
L 43.21875 27.484375 
z
M 52.203125 31.203125 
L 52.203125 0 
L 43.21875 0 
L 43.21875 8.296875 
Q 40.140625 3.328125 35.546875 0.953125 
Q 30.953125 -1.421875 24.3125 -1.421875 
Q 15.921875 -1.421875 10.953125 3.296875 
Q 6 8.015625 6 15.921875 
Q 6 25.140625 12.171875 29.828125 
Q 18.359375 34.515625 30.609375 34.515625 
L 43.21875 34.515625 
L 43.21875 35.40625 
Q 43.21875 41.609375 39.140625 45 
Q 35.0625 48.390625 27.6875 48.390625 
Q 23 48.390625 18.546875 47.265625 
Q 14.109375 46.140625 10.015625 43.890625 
L 10.015625 52.203125 
Q 14.9375 54.109375 19.578125 55.046875 
Q 24.21875 56 28.609375 56 
Q 40.484375 56 46.34375 49.84375 
Q 52.203125 43.703125 52.203125 31.203125 
z
" id="DejaVuSans-97"/>
      <path d="M 18.3125 70.21875 
L 18.3125 54.6875 
L 36.8125 54.6875 
L 36.8125 47.703125 
L 18.3125 47.703125 
L 18.3125 18.015625 
Q 18.3125 11.328125 20.140625 9.421875 
Q 21.96875 7.515625 27.59375 7.515625 
L 36.8125 7.515625 
L 36.8125 0 
L 27.59375 0 
Q 17.1875 0 13.234375 3.875 
Q 9.28125 7.765625 9.28125 18.015625 
L 9.28125 47.703125 
L 2.6875 47.703125 
L 2.6875 54.6875 
L 9.28125 54.6875 
L 9.28125 70.21875 
z
" id="DejaVuSans-116"/>
      <path d="M 9.421875 54.6875 
L 18.40625 54.6875 
L 18.40625 0 
L 9.421875 0 
z
M 9.421875 75.984375 
L 18.40625 75.984375 
L 18.40625 64.59375 
L 9.421875 64.59375 
z
" id="DejaVuSans-105"/>
      <path d="M 30.609375 48.390625 
Q 23.390625 48.390625 19.1875 42.75 
Q 14.984375 37.109375 14.984375 27.296875 
Q 14.984375 17.484375 19.15625 11.84375 
Q 23.34375 6.203125 30.609375 6.203125 
Q 37.796875 6.203125 41.984375 11.859375 
Q 46.1875 17.53125 46.1875 27.296875 
Q 46.1875 37.015625 41.984375 42.703125 
Q 37.796875 48.390625 30.609375 48.390625 
z
M 30.609375 56 
Q 42.328125 56 49.015625 48.375 
Q 55.71875 40.765625 55.71875 27.296875 
Q 55.71875 13.875 49.015625 6.21875 
Q 42.328125 -1.421875 30.609375 -1.421875 
Q 18.84375 -1.421875 12.171875 6.21875 
Q 5.515625 13.875 5.515625 27.296875 
Q 5.515625 40.765625 12.171875 48.375 
Q 18.84375 56 30.609375 56 
z
" id="DejaVuSans-111"/>
      <path d="M 44.28125 53.078125 
L 44.28125 44.578125 
Q 40.484375 46.53125 36.375 47.5 
Q 32.28125 48.484375 27.875 48.484375 
Q 21.1875 48.484375 17.84375 46.4375 
Q 14.5 44.390625 14.5 40.28125 
Q 14.5 37.15625 16.890625 35.375 
Q 19.28125 33.59375 26.515625 31.984375 
L 29.59375 31.296875 
Q 39.15625 29.25 43.1875 25.515625 
Q 47.21875 21.78125 47.21875 15.09375 
Q 47.21875 7.46875 41.1875 3.015625 
Q 35.15625 -1.421875 24.609375 -1.421875 
Q 20.21875 -1.421875 15.453125 -0.5625 
Q 10.6875 0.296875 5.421875 2 
L 5.421875 11.28125 
Q 10.40625 8.6875 15.234375 7.390625 
Q 20.0625 6.109375 24.8125 6.109375 
Q 31.15625 6.109375 34.5625 8.28125 
Q 37.984375 10.453125 37.984375 14.40625 
Q 37.984375 18.0625 35.515625 20.015625 
Q 33.0625 21.96875 24.703125 23.78125 
L 21.578125 24.515625 
Q 13.234375 26.265625 9.515625 29.90625 
Q 5.8125 33.546875 5.8125 39.890625 
Q 5.8125 47.609375 11.28125 51.796875 
Q 16.75 56 26.8125 56 
Q 31.78125 56 36.171875 55.265625 
Q 40.578125 54.546875 44.28125 53.078125 
z
" id="DejaVuSans-115"/>
     </defs>
     <g transform="translate(205.662344 335.860562)scale(0.1 -0.1)">
      <use xlink:href="#DejaVuSans-71"/>
      <use x="77.490234" xlink:href="#DejaVuSans-101"/>
      <use x="139.013672" xlink:href="#DejaVuSans-110"/>
      <use x="202.392578" xlink:href="#DejaVuSans-101"/>
      <use x="263.916016" xlink:href="#DejaVuSans-114"/>
      <use x="305.029297" xlink:href="#DejaVuSans-97"/>
      <use x="366.308594" xlink:href="#DejaVuSans-116"/>
      <use x="405.517578" xlink:href="#DejaVuSans-105"/>
      <use x="433.300781" xlink:href="#DejaVuSans-111"/>
      <use x="494.482422" xlink:href="#DejaVuSans-110"/>
      <use x="557.861328" xlink:href="#DejaVuSans-115"/>
     </g>
    </g>
   </g>
   <g id="matplotlib.axis_2">
    <g id="ytick_1">
     <g id="line2d_15">
      <path clip-path="url(#p05a54edf35)" d="M 57.6 294.30459 
L 414.72 294.30459 
" style="fill:none;stroke:#b0b0b0;stroke-linecap:square;stroke-width:0.8;"/>
     </g>
     <g id="line2d_16">
      <defs>
       <path d="M 0 0 
L -3.5 0 
" id="md2dc2d5edf" style="stroke:#000000;stroke-width:0.8;"/>
      </defs>
      <g>
       <use style="stroke:#000000;stroke-width:0.8;" x="57.6" xlink:href="#md2dc2d5edf" y="294.30459"/>
      </g>
     </g>
     <g id="text_9">
      <!-- 500 -->
      <g transform="translate(31.5125 298.103808)scale(0.1 -0.1)">
       <use xlink:href="#DejaVuSans-53"/>
       <use x="63.623047" xlink:href="#DejaVuSans-48"/>
       <use x="127.246094" xlink:href="#DejaVuSans-48"/>
      </g>
     </g>
    </g>
    <g id="ytick_2">
     <g id="line2d_17">
      <path clip-path="url(#p05a54edf35)" d="M 57.6 261.361163 
L 414.72 261.361163 
" style="fill:none;stroke:#b0b0b0;stroke-linecap:square;stroke-width:0.8;"/>
     </g>
     <g id="line2d_18">
      <g>
       <use style="stroke:#000000;stroke-width:0.8;" x="57.6" xlink:href="#md2dc2d5edf" y="261.361163"/>
      </g>
     </g>
     <g id="text_10">
      <!-- 750 -->
      <defs>
       <path d="M 8.203125 72.90625 
L 55.078125 72.90625 
L 55.078125 68.703125 
L 28.609375 0 
L 18.3125 0 
L 43.21875 64.59375 
L 8.203125 64.59375 
z
" id="DejaVuSans-55"/>
      </defs>
      <g transform="translate(31.5125 265.160382)scale(0.1 -0.1)">
       <use xlink:href="#DejaVuSans-55"/>
       <use x="63.623047" xlink:href="#DejaVuSans-53"/>
       <use x="127.246094" xlink:href="#DejaVuSans-48"/>
      </g>
     </g>
    </g>
    <g id="ytick_3">
     <g id="line2d_19">
      <path clip-path="url(#p05a54edf35)" d="M 57.6 228.417736 
L 414.72 228.417736 
" style="fill:none;stroke:#b0b0b0;stroke-linecap:square;stroke-width:0.8;"/>
     </g>
     <g id="line2d_20">
      <g>
       <use style="stroke:#000000;stroke-width:0.8;" x="57.6" xlink:href="#md2dc2d5edf" y="228.417736"/>
      </g>
     </g>
     <g id="text_11">
      <!-- 1000 -->
      <g transform="translate(25.15 232.216955)scale(0.1 -0.1)">
       <use xlink:href="#DejaVuSans-49"/>
       <use x="63.623047" xlink:href="#DejaVuSans-48"/>
       <use x="127.246094" xlink:href="#DejaVuSans-48"/>
       <use x="190.869141" xlink:href="#DejaVuSans-48"/>
      </g>
     </g>
    </g>
    <g id="ytick_4">
     <g id="line2d_21">
      <path clip-path="url(#p05a54edf35)" d="M 57.6 195.47431 
L 414.72 195.47431 
" style="fill:none;stroke:#b0b0b0;stroke-linecap:square;stroke-width:0.8;"/>
     </g>
     <g id="line2d_22">
      <g>
       <use style="stroke:#000000;stroke-width:0.8;" x="57.6" xlink:href="#md2dc2d5edf" y="195.47431"/>
      </g>
     </g>
     <g id="text_12">
      <!-- 1250 -->
      <g transform="translate(25.15 199.273528)scale(0.1 -0.1)">
       <use xlink:href="#DejaVuSans-49"/>
       <use x="63.623047" xlink:href="#DejaVuSans-50"/>
       <use x="127.246094" xlink:href="#DejaVuSans-53"/>
       <use x="190.869141" xlink:href="#DejaVuSans-48"/>
      </g>
     </g>
    </g>
    <g id="ytick_5">
     <g id="line2d_23">
      <path clip-path="url(#p05a54edf35)" d="M 57.6 162.530883 
L 414.72 162.530883 
" style="fill:none;stroke:#b0b0b0;stroke-linecap:square;stroke-width:0.8;"/>
     </g>
     <g id="line2d_24">
      <g>
       <use style="stroke:#000000;stroke-width:0.8;" x="57.6" xlink:href="#md2dc2d5edf" y="162.530883"/>
      </g>
     </g>
     <g id="text_13">
      <!-- 1500 -->
      <g transform="translate(25.15 166.330102)scale(0.1 -0.1)">
       <use xlink:href="#DejaVuSans-49"/>
       <use x="63.623047" xlink:href="#DejaVuSans-53"/>
       <use x="127.246094" xlink:href="#DejaVuSans-48"/>
       <use x="190.869141" xlink:href="#DejaVuSans-48"/>
      </g>
     </g>
    </g>
    <g id="ytick_6">
     <g id="line2d_25">
      <path clip-path="url(#p05a54edf35)" d="M 57.6 129.587456 
L 414.72 129.587456 
" style="fill:none;stroke:#b0b0b0;stroke-linecap:square;stroke-width:0.8;"/>
     </g>
     <g id="line2d_26">
      <g>
       <use style="stroke:#000000;stroke-width:0.8;" x="57.6" xlink:href="#md2dc2d5edf" y="129.587456"/>
      </g>
     </g>
     <g id="text_14">
      <!-- 1750 -->
      <g transform="translate(25.15 133.386675)scale(0.1 -0.1)">
       <use xlink:href="#DejaVuSans-49"/>
       <use x="63.623047" xlink:href="#DejaVuSans-55"/>
       <use x="127.246094" xlink:href="#DejaVuSans-53"/>
       <use x="190.869141" xlink:href="#DejaVuSans-48"/>
      </g>
     </g>
    </g>
    <g id="ytick_7">
     <g id="line2d_27">
      <path clip-path="url(#p05a54edf35)" d="M 57.6 96.64403 
L 414.72 96.64403 
" style="fill:none;stroke:#b0b0b0;stroke-linecap:square;stroke-width:0.8;"/>
     </g>
     <g id="line2d_28">
      <g>
       <use style="stroke:#000000;stroke-width:0.8;" x="57.6" xlink:href="#md2dc2d5edf" y="96.64403"/>
      </g>
     </g>
     <g id="text_15">
      <!-- 2000 -->
      <g transform="translate(25.15 100.443248)scale(0.1 -0.1)">
       <use xlink:href="#DejaVuSans-50"/>
       <use x="63.623047" xlink:href="#DejaVuSans-48"/>
       <use x="127.246094" xlink:href="#DejaVuSans-48"/>
       <use x="190.869141" xlink:href="#DejaVuSans-48"/>
      </g>
     </g>
    </g>
    <g id="ytick_8">
     <g id="line2d_29">
      <path clip-path="url(#p05a54edf35)" d="M 57.6 63.700603 
L 414.72 63.700603 
" style="fill:none;stroke:#b0b0b0;stroke-linecap:square;stroke-width:0.8;"/>
     </g>
     <g id="line2d_30">
      <g>
       <use style="stroke:#000000;stroke-width:0.8;" x="57.6" xlink:href="#md2dc2d5edf" y="63.700603"/>
      </g>
     </g>
     <g id="text_16">
      <!-- 2250 -->
      <g transform="translate(25.15 67.499822)scale(0.1 -0.1)">
       <use xlink:href="#DejaVuSans-50"/>
       <use x="63.623047" xlink:href="#DejaVuSans-50"/>
       <use x="127.246094" xlink:href="#DejaVuSans-53"/>
       <use x="190.869141" xlink:href="#DejaVuSans-48"/>
      </g>
     </g>
    </g>
    <g id="text_17">
     <!-- Fitness -->
     <defs>
      <path d="M 9.8125 72.90625 
L 51.703125 72.90625 
L 51.703125 64.59375 
L 19.671875 64.59375 
L 19.671875 43.109375 
L 48.578125 43.109375 
L 48.578125 34.8125 
L 19.671875 34.8125 
L 19.671875 0 
L 9.8125 0 
z
" id="DejaVuSans-70"/>
     </defs>
     <g transform="translate(19.070312 192.202219)rotate(-90)scale(0.1 -0.1)">
      <use xlink:href="#DejaVuSans-70"/>
      <use x="57.410156" xlink:href="#DejaVuSans-105"/>
      <use x="85.193359" xlink:href="#DejaVuSans-116"/>
      <use x="124.402344" xlink:href="#DejaVuSans-110"/>
      <use x="187.78125" xlink:href="#DejaVuSans-101"/>
      <use x="249.304688" xlink:href="#DejaVuSans-115"/>
      <use x="301.404297" xlink:href="#DejaVuSans-115"/>
     </g>
    </g>
   </g>
   <g id="line2d_31">
    <path clip-path="url(#p05a54edf35)" d="M 73.832727 255.044014 
L 74.918528 211.534346 
L 77.090131 200.597863 
L 78.175932 211.838655 
L 79.261733 194.462268 
L 80.347534 193.691259 
L 81.433335 177.758373 
L 82.519137 195.077033 
L 83.604938 168.005542 
L 84.690739 165.612794 
L 85.77654 168.569529 
L 86.862341 170.909604 
L 87.948142 168.579312 
L 89.033943 156.808389 
L 90.119745 162.527999 
L 91.205546 158.110155 
L 92.291347 160.958733 
L 93.377148 149.53714 
L 94.462949 167.340188 
L 95.54875 149.150801 
L 96.634552 157.15421 
L 97.720353 148.859412 
L 98.806154 149.688447 
L 100.977756 139.956893 
L 102.063557 149.388337 
L 103.149358 143.173765 
L 104.23516 156.246839 
L 105.320961 148.002603 
L 106.406762 154.752191 
L 107.492563 170.062729 
L 108.578364 166.74172 
L 109.664165 162.891661 
L 110.749967 161.275703 
L 111.835768 152.830412 
L 112.921569 146.871914 
L 114.00737 170.046907 
L 115.093171 157.305356 
L 116.178972 167.594811 
L 117.264773 189.36323 
L 118.350575 187.746571 
L 119.436376 188.56006 
L 120.522177 184.162344 
L 121.607978 177.548689 
L 122.693779 202.930075 
L 123.77958 198.525147 
L 124.865382 198.070601 
L 125.951183 182.64678 
L 127.036984 186.015878 
L 128.122785 191.031558 
L 129.208586 155.407373 
L 130.294387 160.301611 
L 131.380189 181.221983 
L 132.46599 212.661061 
L 134.637592 161.488167 
L 135.723393 168.741867 
L 136.809194 172.822609 
L 137.894995 141.676249 
L 138.980797 157.720017 
L 140.066598 157.680839 
L 141.152399 155.461442 
L 142.2382 154.936402 
L 143.324001 147.412227 
L 144.409802 165.990255 
L 145.495604 162.736217 
L 146.581405 164.269151 
L 147.667206 153.462461 
L 148.753007 165.182287 
L 149.838808 171.08499 
L 150.924609 171.061453 
L 152.01041 161.221411 
L 153.096212 153.994803 
L 154.182013 170.043487 
L 155.267814 169.041878 
L 156.353615 136.640908 
L 157.439416 150.009591 
L 158.525217 166.804006 
L 159.611019 163.824423 
L 160.69682 133.839456 
L 161.782621 145.535999 
L 162.868422 143.945999 
L 163.954223 163.579707 
L 165.040024 138.214863 
L 166.125825 164.042692 
L 167.211627 139.334775 
L 168.297428 141.55903 
L 169.383229 162.581516 
L 170.46903 147.050567 
L 171.554831 140.10033 
L 172.640632 135.002812 
L 173.726434 144.669457 
L 174.812235 132.588221 
L 175.898036 147.952225 
L 176.983837 141.573341 
L 178.069638 140.949608 
L 179.155439 138.769919 
L 180.24124 142.018769 
L 181.327042 147.16224 
L 182.412843 156.261692 
L 183.498644 145.247804 
L 184.584445 160.241403 
L 185.670246 126.884761 
L 186.756047 134.458989 
L 187.841849 136.035562 
L 188.92765 133.997561 
L 190.013451 148.89364 
L 191.099252 126.847991 
L 192.185053 143.669233 
L 194.356656 126.990386 
L 195.442457 132.618065 
L 196.528258 111.696923 
L 197.614059 123.206431 
L 198.69986 144.700872 
L 199.785661 125.273067 
L 200.871462 124.974508 
L 201.957264 148.568226 
L 203.043065 135.637602 
L 204.128866 142.002907 
L 205.214667 137.275376 
L 206.300468 137.232309 
L 207.386269 143.338361 
L 208.472071 120.705574 
L 209.557872 132.794119 
L 210.643673 153.621798 
L 211.729474 136.382147 
L 212.815275 142.720454 
L 213.901076 145.005139 
L 214.986877 157.165191 
L 216.072679 135.430933 
L 217.15848 145.493508 
L 218.244281 126.823249 
L 219.330082 149.522928 
L 220.415883 134.155261 
L 221.501684 130.08864 
L 222.587486 154.644796 
L 223.673287 137.471593 
L 224.759088 140.774427 
L 225.844889 118.393619 
L 228.016491 138.344981 
L 229.102292 142.882335 
L 230.188094 130.412523 
L 231.273895 128.154279 
L 232.359696 145.071546 
L 233.445497 137.792908 
L 234.531298 148.132174 
L 235.617099 150.276171 
L 236.702901 136.177145 
L 237.788702 144.83226 
L 238.874503 138.421624 
L 239.960304 148.426863 
L 241.046105 145.711372 
L 242.131906 160.049853 
L 243.217708 144.944126 
L 244.303509 159.563295 
L 245.38931 162.151674 
L 246.475111 140.670975 
L 247.560912 147.943539 
L 248.646713 132.501924 
L 249.732514 124.588381 
L 250.818316 150.958469 
L 251.904117 137.338779 
L 252.989918 151.49156 
L 254.075719 143.790929 
L 255.16152 125.437462 
L 256.247321 151.823 
L 257.333123 141.170634 
L 258.418924 137.155137 
L 259.504725 146.841947 
L 260.590526 158.104076 
L 261.676327 150.125624 
L 262.762128 146.184224 
L 263.847929 163.399975 
L 264.933731 152.145259 
L 266.019532 138.87322 
L 267.105333 150.821022 
L 268.191134 129.60247 
L 269.276935 129.699135 
L 270.362736 145.423845 
L 271.448538 145.39342 
L 272.534339 144.627834 
L 273.62014 155.174271 
L 274.705941 149.260293 
L 275.791742 149.718026 
L 276.877543 157.388232 
L 277.963344 154.923624 
L 279.049146 144.986269 
L 280.134947 158.28966 
L 281.220748 144.393571 
L 282.306549 155.353379 
L 283.39235 135.451842 
L 284.478151 142.401194 
L 285.563953 151.113892 
L 286.649754 143.50031 
L 287.735555 133.247138 
L 288.821356 129.755064 
L 289.907157 122.931931 
L 290.992958 148.282918 
L 292.07876 149.267385 
L 293.164561 131.284521 
L 294.250362 127.790902 
L 295.336163 128.305629 
L 296.421964 133.985128 
L 297.507765 130.423034 
L 298.593566 134.270028 
L 299.679368 142.875393 
L 300.765169 129.711051 
L 301.85097 155.972163 
L 302.936771 134.191202 
L 304.022572 136.804367 
L 305.108373 153.246101 
L 306.194175 136.382037 
L 307.279976 137.507909 
L 308.365777 135.128036 
L 309.451578 149.9694 
L 310.537379 144.722811 
L 311.62318 143.934919 
L 312.708981 141.460246 
L 313.794783 136.919968 
L 314.880584 126.595339 
L 315.966385 131.35837 
L 317.052186 134.801055 
L 318.137987 134.448818 
L 319.223788 134.249994 
L 320.30959 124.715497 
L 321.395391 146.537351 
L 322.481192 141.337461 
L 323.566993 131.528939 
L 324.652794 141.612225 
L 325.738595 128.628564 
L 326.824396 144.385179 
L 327.910198 129.693767 
L 328.995999 132.81083 
L 330.0818 118.555168 
L 331.167601 123.563019 
L 332.253402 129.690236 
L 333.339203 131.511075 
L 334.425005 121.633858 
L 335.510806 145.332147 
L 336.596607 132.049649 
L 337.682408 130.717113 
L 338.768209 115.885965 
L 339.85401 109.996341 
L 340.939811 122.651482 
L 342.025613 130.532234 
L 343.111414 135.032099 
L 344.197215 126.502357 
L 345.283016 111.838397 
L 346.368817 108.570082 
L 347.454618 125.949102 
L 348.54042 116.926696 
L 349.626221 123.940142 
L 350.712022 136.638711 
L 351.797823 119.411714 
L 352.883624 107.753608 
L 353.969425 115.596361 
L 355.055227 120.749868 
L 356.141028 114.334822 
L 357.226829 126.596417 
L 358.31263 129.38883 
L 359.398431 107.795963 
L 360.484232 125.90184 
L 361.570033 111.06265 
L 362.655835 112.087303 
L 363.741636 107.763612 
L 364.827437 115.525772 
L 365.913238 115.98605 
L 366.999039 105.866565 
L 368.08484 116.918782 
L 369.170642 112.153581 
L 370.256443 111.558775 
L 371.342244 120.388237 
L 372.428045 120.039897 
L 373.513846 114.324247 
L 374.599647 113.434534 
L 375.685448 109.502142 
L 376.77125 94.059146 
L 377.857051 90.550543 
L 378.942852 91.892685 
L 380.028653 90.515944 
L 381.114454 105.437545 
L 382.200255 107.86719 
L 383.286057 103.986765 
L 385.457659 100.717578 
L 386.54346 99.776187 
L 387.629261 106.090947 
L 388.715062 96.508765 
L 389.800863 98.509606 
L 390.886665 116.073162 
L 391.972466 98.101008 
L 393.058267 97.432842 
L 394.144068 96.992027 
L 395.229869 94.579013 
L 396.31567 96.349908 
L 397.401472 101.530492 
L 398.487273 105.009226 
L 398.487273 105.009226 
" style="fill:none;stroke:#0000ff;stroke-linecap:square;stroke-width:1.5;"/>
   </g>
   <g id="line2d_32">
    <path clip-path="url(#p05a54edf35)" d="M 73.832727 295.488 
L 74.918528 240.397186 
L 76.00433 239.944642 
L 77.090131 240.482523 
L 78.175932 254.064081 
L 79.261733 239.208567 
L 80.347534 238.594556 
L 81.433335 203.938519 
L 82.519137 246.049077 
L 83.604938 198.568872 
L 84.690739 201.305508 
L 85.77654 207.369615 
L 86.862341 225.218392 
L 87.948142 219.31542 
L 89.033943 196.379525 
L 90.119745 208.568682 
L 91.205546 186.4433 
L 92.291347 210.420061 
L 93.377148 183.674099 
L 94.462949 197.190857 
L 95.54875 185.281708 
L 96.634552 199.069513 
L 97.720353 185.912168 
L 98.806154 177.587269 
L 99.891955 171.489936 
L 100.977756 166.698187 
L 102.063557 193.679226 
L 103.149358 179.279553 
L 104.23516 196.474644 
L 105.320961 193.529261 
L 106.406762 195.011673 
L 107.492563 229.517222 
L 108.578364 223.1068 
L 109.664165 212.693001 
L 110.749967 205.560391 
L 111.835768 181.184964 
L 112.921569 192.610298 
L 114.00737 219.086248 
L 115.093171 202.066423 
L 116.178972 221.76958 
L 117.264773 248.25795 
L 118.350575 247.138275 
L 119.436376 248.381941 
L 120.522177 248.257479 
L 121.607978 242.174934 
L 122.693779 268.878198 
L 123.77958 267.434579 
L 124.865382 265.491262 
L 125.951183 248.893583 
L 127.036984 253.981871 
L 128.122785 256.513083 
L 129.208586 214.387911 
L 130.294387 221.284446 
L 131.380189 253.852627 
L 132.46599 275.263796 
L 133.551791 257.654359 
L 134.637592 217.745899 
L 135.723393 233.932688 
L 136.809194 239.538335 
L 137.894995 196.686786 
L 138.980797 210.152899 
L 140.066598 198.584468 
L 141.152399 212.825839 
L 142.2382 206.985549 
L 143.324001 194.141247 
L 144.409802 215.033815 
L 145.495604 213.861818 
L 146.581405 210.397584 
L 147.667206 178.091259 
L 149.838808 220.90347 
L 150.924609 218.142045 
L 152.01041 207.379744 
L 153.096212 211.713056 
L 154.182013 227.973119 
L 155.267814 221.13176 
L 156.353615 185.162653 
L 157.439416 203.797459 
L 158.525217 234.003487 
L 159.611019 239.007934 
L 160.69682 188.254923 
L 161.782621 213.424832 
L 162.868422 205.765013 
L 163.954223 231.437149 
L 165.040024 198.499922 
L 166.125825 214.742468 
L 167.211627 186.447095 
L 168.297428 163.487867 
L 169.383229 209.381669 
L 170.46903 194.634335 
L 171.554831 178.251802 
L 172.640632 185.137535 
L 173.726434 193.7588 
L 174.812235 175.153159 
L 175.898036 194.437985 
L 176.983837 196.355398 
L 178.069638 197.506556 
L 179.155439 182.506697 
L 180.24124 198.160681 
L 181.327042 196.415993 
L 182.412843 219.679379 
L 183.498644 198.661139 
L 184.584445 223.666385 
L 185.670246 165.929334 
L 186.756047 191.050786 
L 187.841849 181.726719 
L 188.92765 177.588533 
L 190.013451 191.528145 
L 191.099252 150.823291 
L 192.185053 184.880158 
L 193.270854 186.300268 
L 194.356656 165.929973 
L 195.442457 163.969755 
L 196.528258 137.453712 
L 197.614059 153.970516 
L 198.69986 187.302314 
L 199.785661 162.419764 
L 200.871462 168.00287 
L 201.957264 187.547714 
L 203.043065 175.899014 
L 204.128866 191.409791 
L 205.214667 181.886169 
L 206.300468 164.50534 
L 207.386269 190.402279 
L 208.472071 148.505898 
L 209.557872 174.001238 
L 210.643673 220.158322 
L 211.729474 172.987642 
L 212.815275 175.442606 
L 213.901076 187.848597 
L 214.986877 202.795018 
L 216.072679 180.038207 
L 217.15848 199.251102 
L 218.244281 164.748156 
L 219.330082 198.490699 
L 220.415883 169.795274 
L 221.501684 167.407441 
L 222.587486 209.0342 
L 223.673287 173.345037 
L 224.759088 195.075709 
L 225.844889 146.786023 
L 226.93069 174.346232 
L 228.016491 194.132317 
L 229.102292 190.031777 
L 230.188094 165.029346 
L 231.273895 168.512999 
L 232.359696 195.317156 
L 233.445497 175.016604 
L 234.531298 181.757046 
L 235.617099 194.213651 
L 236.702901 179.227848 
L 237.788702 205.599459 
L 238.874503 180.038107 
L 239.960304 186.864371 
L 241.046105 198.055582 
L 242.131906 200.86998 
L 243.217708 186.964882 
L 244.303509 220.93255 
L 245.38931 203.875261 
L 246.475111 165.087989 
L 247.560912 198.209524 
L 249.732514 153.993053 
L 250.818316 211.118683 
L 251.904117 170.755878 
L 252.989918 204.457774 
L 254.075719 192.397697 
L 255.16152 168.324414 
L 256.247321 194.460317 
L 257.333123 195.845286 
L 258.418924 172.572627 
L 259.504725 179.113333 
L 260.590526 210.277473 
L 262.762128 184.643125 
L 263.847929 209.381925 
L 266.019532 191.476523 
L 267.105333 202.243225 
L 268.191134 156.672091 
L 269.276935 156.006314 
L 270.362736 177.911393 
L 271.448538 185.35834 
L 272.534339 187.669155 
L 273.62014 217.017812 
L 274.705941 190.114232 
L 275.791742 203.240203 
L 276.877543 203.215294 
L 277.963344 200.069434 
L 279.049146 185.548568 
L 280.134947 221.65279 
L 281.220748 183.625946 
L 282.306549 186.09477 
L 283.39235 152.901315 
L 284.478151 163.65448 
L 285.563953 186.480987 
L 286.649754 172.861319 
L 287.735555 162.285244 
L 288.821356 166.155749 
L 289.907157 153.336784 
L 290.992958 198.768886 
L 292.07876 208.941649 
L 293.164561 170.52894 
L 294.250362 172.07518 
L 295.336163 159.116065 
L 296.421964 181.12072 
L 297.507765 168.308985 
L 298.593566 171.973393 
L 299.679368 187.43797 
L 300.765169 162.53761 
L 301.85097 196.13824 
L 302.936771 168.635169 
L 304.022572 174.92151 
L 305.108373 213.581752 
L 306.194175 169.387528 
L 307.279976 179.390371 
L 308.365777 154.093744 
L 309.451578 193.287614 
L 310.537379 182.79798 
L 311.62318 191.230952 
L 312.708981 195.709207 
L 313.794783 182.764364 
L 314.880584 167.205811 
L 317.052186 189.172719 
L 318.137987 181.869295 
L 319.223788 172.010613 
L 320.30959 158.41002 
L 321.395391 201.814035 
L 322.481192 187.61402 
L 323.566993 187.748832 
L 324.652794 173.19107 
L 325.738595 168.863606 
L 326.824396 191.818991 
L 327.910198 181.630266 
L 328.995999 172.766273 
L 330.0818 137.483602 
L 331.167601 161.5211 
L 332.253402 175.394727 
L 333.339203 176.08574 
L 334.425005 147.938158 
L 335.510806 204.427165 
L 336.596607 164.505027 
L 338.768209 147.331525 
L 339.85401 130.031692 
L 340.939811 149.237076 
L 342.025613 180.476074 
L 343.111414 182.407744 
L 345.283016 133.909758 
L 346.368817 128.358633 
L 347.454618 161.158959 
L 348.54042 146.194179 
L 349.626221 163.170849 
L 350.712022 182.263338 
L 351.797823 146.336134 
L 352.883624 132.562116 
L 353.969425 154.233814 
L 355.055227 159.182277 
L 356.141028 140.275247 
L 357.226829 164.824957 
L 358.31263 167.569496 
L 359.398431 130.371511 
L 360.484232 159.263932 
L 361.570033 144.686636 
L 362.655835 158.873482 
L 363.741636 142.038186 
L 364.827437 142.318591 
L 365.913238 159.880966 
L 366.999039 140.469661 
L 368.08484 149.87161 
L 369.170642 163.436306 
L 370.256443 139.337303 
L 371.342244 153.057218 
L 372.428045 174.593517 
L 373.513846 145.743824 
L 374.599647 156.467355 
L 376.77125 129.474178 
L 377.857051 124.696762 
L 378.942852 116.791909 
L 380.028653 127.043548 
L 381.114454 128.433523 
L 382.200255 142.161867 
L 383.286057 143.727755 
L 384.371858 125.502837 
L 385.457659 140.064234 
L 386.54346 139.059708 
L 387.629261 146.217331 
L 388.715062 120.120918 
L 389.800863 132.644393 
L 390.886665 157.783685 
L 391.972466 124.065891 
L 393.058267 140.080968 
L 394.144068 135.738315 
L 395.229869 132.361441 
L 396.31567 134.128516 
L 397.401472 131.699211 
L 398.487273 145.566951 
L 398.487273 145.566951 
" style="fill:none;stroke:#008000;stroke-dasharray:9.6,2.4,1.5,2.4;stroke-dashoffset:0;stroke-width:1.5;"/>
   </g>
   <g id="line2d_33">
    <path clip-path="url(#p05a54edf35)" d="M 73.832727 214.600028 
L 74.918528 182.671505 
L 77.090131 160.713202 
L 78.175932 169.61323 
L 79.261733 149.715969 
L 80.347534 148.787961 
L 81.433335 151.578228 
L 82.519137 144.104989 
L 83.604938 137.442212 
L 84.690739 129.920079 
L 85.77654 129.769444 
L 86.862341 116.600817 
L 87.948142 117.843204 
L 89.033943 117.237253 
L 90.119745 116.487316 
L 91.205546 129.77701 
L 92.291347 111.497404 
L 93.377148 115.400182 
L 94.462949 137.48952 
L 95.54875 113.019894 
L 96.634552 115.238907 
L 97.720353 111.806655 
L 98.806154 121.789624 
L 99.891955 117.84279 
L 100.977756 113.215598 
L 102.063557 105.097448 
L 103.149358 107.067976 
L 104.23516 116.019035 
L 105.320961 102.475946 
L 106.406762 114.492708 
L 107.492563 110.608236 
L 108.578364 110.376641 
L 109.664165 113.090321 
L 110.749967 116.991015 
L 111.835768 124.47586 
L 112.921569 101.13353 
L 114.00737 121.007565 
L 115.093171 112.544289 
L 116.178972 113.420042 
L 117.264773 130.468509 
L 118.350575 128.354866 
L 119.436376 128.73818 
L 120.522177 120.06721 
L 121.607978 112.922444 
L 122.693779 136.981953 
L 123.77958 129.615715 
L 124.865382 130.649939 
L 125.951183 116.399978 
L 127.036984 118.049886 
L 128.122785 125.550032 
L 129.208586 96.426836 
L 130.294387 99.318775 
L 131.380189 108.591339 
L 132.46599 150.058326 
L 133.551791 117.106265 
L 134.637592 105.230435 
L 135.723393 103.551046 
L 136.809194 106.106883 
L 137.894995 86.665712 
L 138.980797 105.287135 
L 140.066598 116.777211 
L 141.152399 98.097045 
L 142.2382 102.887256 
L 143.324001 100.683207 
L 144.409802 116.946694 
L 145.495604 111.610615 
L 146.581405 118.140719 
L 147.667206 128.833663 
L 148.753007 130.607216 
L 149.838808 121.26651 
L 150.924609 123.980861 
L 152.01041 115.063078 
L 153.096212 96.27655 
L 154.182013 112.113856 
L 155.267814 116.951995 
L 156.353615 88.119164 
L 157.439416 96.221722 
L 158.525217 99.604526 
L 159.611019 88.640912 
L 160.69682 79.42399 
L 161.782621 77.647167 
L 162.868422 82.126985 
L 163.954223 95.722265 
L 165.040024 77.929805 
L 166.125825 113.342916 
L 167.211627 92.222456 
L 168.297428 119.630194 
L 169.383229 115.781363 
L 170.46903 99.4668 
L 171.554831 101.948858 
L 172.640632 84.868089 
L 173.726434 95.580114 
L 174.812235 90.023283 
L 175.898036 101.466466 
L 176.983837 86.791284 
L 178.069638 84.39266 
L 179.155439 95.03314 
L 180.24124 85.876856 
L 181.327042 97.908486 
L 182.412843 92.844005 
L 183.498644 91.834469 
L 184.584445 96.816422 
L 185.670246 87.840188 
L 186.756047 77.867193 
L 187.841849 90.344405 
L 188.92765 90.406589 
L 190.013451 106.259134 
L 191.099252 102.87269 
L 192.185053 102.458307 
L 193.270854 84.319691 
L 194.356656 88.050798 
L 195.442457 101.266375 
L 196.528258 85.940135 
L 197.614059 92.442346 
L 198.69986 102.099429 
L 199.785661 88.126369 
L 200.871462 81.946146 
L 201.957264 109.588739 
L 203.043065 95.37619 
L 204.128866 92.596022 
L 205.214667 92.664583 
L 206.300468 109.959278 
L 207.386269 96.274443 
L 208.472071 92.905251 
L 209.557872 91.587 
L 210.643673 87.085273 
L 211.729474 99.776651 
L 212.815275 109.998302 
L 213.901076 102.161681 
L 214.986877 111.535364 
L 216.072679 90.82366 
L 217.15848 91.735913 
L 218.244281 88.898342 
L 219.330082 100.555156 
L 220.415883 98.515248 
L 221.501684 92.769839 
L 222.587486 100.255392 
L 223.673287 101.598148 
L 224.759088 86.473146 
L 225.844889 90.001215 
L 226.93069 81.825106 
L 228.016491 82.557644 
L 229.102292 95.732893 
L 230.188094 95.795699 
L 231.273895 87.79556 
L 232.359696 94.825936 
L 233.445497 100.569211 
L 234.531298 114.507303 
L 235.617099 106.338691 
L 236.702901 93.126442 
L 237.788702 84.06506 
L 239.960304 109.989355 
L 241.046105 93.367162 
L 242.131906 119.229727 
L 243.217708 102.92337 
L 244.303509 98.194041 
L 245.38931 120.428087 
L 246.475111 116.253962 
L 247.560912 97.677554 
L 248.646713 89.672359 
L 249.732514 95.18371 
L 250.818316 90.798255 
L 251.904117 103.92168 
L 252.989918 98.525346 
L 254.075719 95.18416 
L 255.16152 82.55051 
L 256.247321 109.185684 
L 257.333123 86.495982 
L 258.418924 101.737647 
L 259.504725 114.570561 
L 260.590526 105.930678 
L 261.676327 102.261801 
L 262.762128 107.725324 
L 263.847929 117.418026 
L 264.933731 103.850099 
L 266.019532 86.269918 
L 267.105333 99.398818 
L 268.191134 102.532849 
L 269.276935 103.391957 
L 270.362736 112.936298 
L 271.448538 105.4285 
L 272.534339 101.586514 
L 273.62014 93.33073 
L 274.705941 108.406355 
L 275.791742 96.195849 
L 276.877543 111.561171 
L 277.963344 109.777815 
L 279.049146 104.423969 
L 280.134947 94.92653 
L 281.220748 105.161196 
L 282.306549 124.611987 
L 283.39235 118.002369 
L 284.478151 121.147909 
L 285.563953 115.746797 
L 286.649754 114.1393 
L 288.821356 93.35438 
L 289.907157 92.527078 
L 290.992958 97.796949 
L 292.07876 89.593121 
L 293.164561 92.040101 
L 294.250362 83.506624 
L 295.336163 97.495192 
L 296.421964 86.849536 
L 297.507765 92.537082 
L 298.593566 96.566663 
L 299.679368 98.312817 
L 300.765169 96.884493 
L 301.85097 115.806086 
L 302.936771 99.747236 
L 304.022572 98.687224 
L 305.108373 92.910451 
L 306.194175 103.376545 
L 307.279976 95.625448 
L 308.365777 116.162329 
L 309.451578 106.651185 
L 310.537379 106.647642 
L 312.708981 87.211285 
L 313.794783 91.075572 
L 314.880584 85.984867 
L 315.966385 83.95908 
L 317.052186 80.429391 
L 318.137987 87.02834 
L 319.223788 96.489375 
L 320.30959 91.020975 
L 321.395391 91.260666 
L 322.481192 95.060903 
L 323.566993 75.309047 
L 324.652794 110.03338 
L 325.738595 88.393523 
L 326.824396 96.951368 
L 327.910198 77.757268 
L 328.995999 92.855387 
L 330.0818 99.626734 
L 331.167601 85.604939 
L 332.253402 83.985745 
L 333.339203 86.936409 
L 334.425005 95.329558 
L 335.510806 86.237129 
L 336.596607 99.594272 
L 337.682408 105.360293 
L 338.768209 84.440405 
L 339.85401 89.960989 
L 340.939811 96.065889 
L 342.025613 80.588394 
L 343.111414 87.656455 
L 344.197215 95.980022 
L 345.283016 89.767036 
L 346.368817 88.781531 
L 347.454618 90.739245 
L 349.626221 84.709436 
L 350.712022 91.014084 
L 351.797823 92.487295 
L 352.883624 82.9451 
L 353.969425 76.958908 
L 355.055227 82.317459 
L 356.141028 88.394396 
L 357.226829 88.367877 
L 358.31263 91.208165 
L 359.398431 85.220416 
L 360.484232 92.539747 
L 361.570033 77.438665 
L 362.655835 65.301124 
L 363.741636 73.489038 
L 364.827437 88.732954 
L 365.913238 72.091135 
L 366.999039 71.26347 
L 368.08484 83.965953 
L 369.170642 60.870857 
L 370.256443 83.780247 
L 371.342244 87.719255 
L 372.428045 65.486278 
L 373.513846 82.90467 
L 374.599647 70.401713 
L 375.685448 76.115267 
L 376.77125 58.644113 
L 377.857051 56.404323 
L 378.942852 66.993462 
L 380.028653 53.988339 
L 381.114454 82.441568 
L 383.286057 64.245775 
L 384.371858 79.098987 
L 385.457659 61.370921 
L 386.54346 60.492666 
L 387.629261 65.964563 
L 388.715062 72.896613 
L 389.800863 64.374819 
L 390.886665 74.362639 
L 391.972466 72.136125 
L 393.058267 54.784716 
L 394.144068 58.245738 
L 395.229869 56.796585 
L 396.31567 58.5713 
L 397.401472 71.361774 
L 398.487273 64.451502 
L 398.487273 64.451502 
" style="fill:none;stroke:#008000;stroke-dasharray:9.6,2.4,1.5,2.4;stroke-dashoffset:0;stroke-width:1.5;"/>
   </g>
   <g id="line2d_34">
    <path clip-path="url(#p05a54edf35)" d="M 73.832727 191.442201 
L 74.918528 182.278367 
L 76.00433 163.466566 
L 77.090131 163.451793 
L 78.175932 167.465858 
L 79.261733 156.83001 
L 80.347534 148.621165 
L 81.433335 148.179606 
L 82.519137 149.353089 
L 83.604938 139.303547 
L 84.690739 140.120933 
L 85.77654 142.516701 
L 86.862341 132.444091 
L 87.948142 132.431068 
L 89.033943 136.294904 
L 90.119745 128.357426 
L 91.205546 139.212586 
L 92.291347 127.727932 
L 93.377148 125.372328 
L 94.462949 132.311808 
L 95.54875 117.039908 
L 96.634552 122.378245 
L 97.720353 118.833347 
L 98.806154 125.436497 
L 99.891955 117.181945 
L 100.977756 110.431159 
L 102.063557 110.672904 
L 103.149358 108.067965 
L 104.23516 112.226839 
L 105.320961 112.922475 
L 106.406762 115.025048 
L 107.492563 114.677246 
L 108.578364 116.45882 
L 109.664165 117.187544 
L 110.749967 114.951463 
L 111.835768 111.443233 
L 112.921569 103.408744 
L 114.00737 108.918416 
L 115.093171 109.915312 
L 116.178972 116.654365 
L 117.264773 127.031862 
L 118.350575 121.154868 
L 119.436376 122.56253 
L 120.522177 118.135747 
L 121.607978 112.403539 
L 122.693779 118.740721 
L 123.77958 113.887936 
L 124.865382 116.928556 
L 125.951183 115.814267 
L 127.036984 114.103272 
L 128.122785 116.764839 
L 129.208586 113.256052 
L 130.294387 118.909928 
L 131.380189 116.111904 
L 132.46599 153.670174 
L 133.551791 127.483246 
L 134.637592 123.917809 
L 135.723393 118.723121 
L 136.809194 122.947239 
L 137.894995 109.75849 
L 138.980797 121.792751 
L 140.066598 126.310204 
L 141.152399 116.78851 
L 142.2382 122.65915 
L 143.324001 116.498325 
L 144.409802 135.991686 
L 145.495604 129.988597 
L 146.581405 136.046246 
L 147.667206 135.829745 
L 148.753007 140.874964 
L 149.838808 134.997477 
L 150.924609 143.0316 
L 152.01041 132.583184 
L 153.096212 116.108838 
L 154.182013 127.951289 
L 155.267814 135.273614 
L 156.353615 105.422304 
L 157.439416 119.41819 
L 158.525217 119.198598 
L 159.611019 103.799699 
L 160.69682 102.320439 
L 161.782621 94.499792 
L 162.868422 103.63367 
L 163.954223 110.617788 
L 165.040024 97.287484 
L 166.125825 117.870942 
L 167.211627 112.877244 
L 168.297428 119.287918 
L 169.383229 122.029812 
L 170.46903 106.677127 
L 171.554831 109.478465 
L 172.640632 95.579548 
L 173.726434 102.154096 
L 174.812235 96.261297 
L 175.898036 114.256087 
L 176.983837 108.361261 
L 178.069638 99.975785 
L 179.155439 104.456091 
L 180.24124 99.006266 
L 181.327042 116.008198 
L 182.412843 113.593416 
L 183.498644 104.338718 
L 184.584445 116.961582 
L 185.670246 100.712541 
L 186.756047 95.394416 
L 187.841849 104.405176 
L 188.92765 107.930623 
L 190.013451 120.238091 
L 191.099252 106.421249 
L 192.185053 114.513972 
L 193.270854 98.141145 
L 194.356656 100.584831 
L 195.442457 108.600865 
L 196.528258 97.292097 
L 197.614059 100.631709 
L 198.69986 114.266384 
L 199.785661 103.525552 
L 200.871462 99.567345 
L 201.957264 122.810637 
L 203.043065 109.792411 
L 204.128866 112.707531 
L 205.214667 106.303951 
L 206.300468 119.600491 
L 207.386269 113.532066 
L 208.472071 101.460241 
L 209.557872 108.019448 
L 210.643673 103.879052 
L 211.729474 112.516394 
L 212.815275 111.16603 
L 213.901076 111.479946 
L 214.986877 116.882635 
L 216.072679 102.158813 
L 217.15848 107.009406 
L 218.244281 99.908797 
L 219.330082 108.750605 
L 220.415883 102.314887 
L 221.501684 100.993137 
L 222.587486 107.607088 
L 223.673287 109.447018 
L 225.844889 97.88353 
L 226.93069 98.159238 
L 228.016491 103.869036 
L 229.102292 108.021538 
L 230.188094 106.591496 
L 231.273895 97.876897 
L 232.359696 114.649298 
L 233.445497 115.832167 
L 234.531298 125.611293 
L 235.617099 120.637685 
L 236.702901 112.438299 
L 237.788702 107.336743 
L 238.874503 108.029708 
L 239.960304 119.170632 
L 241.046105 112.132318 
L 242.131906 124.741846 
L 243.217708 118.299925 
L 244.303509 119.659391 
L 245.38931 118.5286 
L 246.475111 118.624865 
L 247.560912 107.739187 
L 248.646713 105.837637 
L 249.732514 105.908317 
L 250.818316 111.419203 
L 251.904117 114.456907 
L 252.989918 105.652065 
L 254.075719 106.790249 
L 255.16152 98.691599 
L 256.247321 119.911744 
L 257.333123 100.709254 
L 258.418924 111.190503 
L 259.504725 118.856355 
L 260.590526 116.095005 
L 261.676327 117.402849 
L 262.762128 116.549278 
L 263.847929 125.517981 
L 264.933731 112.427908 
L 266.019532 103.771756 
L 267.105333 116.299891 
L 268.191134 110.073048 
L 269.276935 110.669691 
L 270.362736 123.569402 
L 271.448538 122.626838 
L 272.534339 116.435387 
L 273.62014 113.246806 
L 274.705941 122.198573 
L 275.791742 111.736521 
L 276.877543 115.994549 
L 277.963344 120.977268 
L 279.049146 119.841893 
L 280.134947 111.138411 
L 281.220748 104.60059 
L 282.306549 113.480332 
L 283.39235 112.086784 
L 284.478151 116.549732 
L 285.563953 117.235503 
L 286.649754 120.539999 
L 287.735555 107.623721 
L 288.821356 106.378283 
L 289.907157 98.937993 
L 290.992958 108.676602 
L 292.07876 105.145482 
L 293.164561 100.729553 
L 294.250362 100.597485 
L 295.336163 103.736118 
L 296.421964 104.880713 
L 297.507765 98.307366 
L 298.593566 99.610221 
L 299.679368 110.835067 
L 300.765169 103.082021 
L 301.85097 125.551894 
L 302.936771 109.951422 
L 304.022572 105.922674 
L 305.108373 106.240808 
L 306.194175 109.034153 
L 307.279976 109.653226 
L 308.365777 107.547178 
L 309.451578 116.25134 
L 310.537379 119.680567 
L 311.62318 106.027327 
L 312.708981 106.335178 
L 314.880584 98.324746 
L 315.966385 103.541978 
L 317.052186 99.219194 
L 318.137987 102.316053 
L 319.223788 106.455572 
L 320.30959 101.162119 
L 321.395391 109.085796 
L 322.481192 111.829482 
L 323.566993 94.636699 
L 324.652794 112.615287 
L 325.738595 98.902437 
L 326.824396 111.75907 
L 327.910198 87.746047 
L 328.995999 99.995676 
L 330.0818 96.730832 
L 331.167601 88.703866 
L 332.253402 95.27772 
L 333.339203 93.021714 
L 334.425005 91.9752 
L 335.510806 99.841895 
L 336.596607 105.953704 
L 337.682408 110.991331 
L 338.768209 90.03999 
L 339.85401 88.564134 
L 340.939811 101.135912 
L 342.025613 84.117572 
L 343.111414 93.310084 
L 344.197215 104.874408 
L 345.283016 88.896317 
L 346.368817 86.770434 
L 347.454618 96.876912 
L 348.54042 87.467209 
L 349.626221 91.908308 
L 350.712022 101.608938 
L 351.797823 97.07038 
L 352.883624 84.355617 
L 353.969425 84.996674 
L 355.055227 88.66215 
L 356.141028 88.814377 
L 357.226829 92.789854 
L 358.31263 100.267229 
L 359.398431 86.366868 
L 360.484232 97.989046 
L 361.570033 83.835712 
L 362.655835 68.172598 
L 364.827437 85.819641 
L 366.999039 74.47836 
L 368.08484 84.720323 
L 369.170642 70.552799 
L 370.256443 76.718936 
L 371.342244 79.746433 
L 372.428045 74.001899 
L 373.513846 82.556974 
L 374.599647 72.773394 
L 375.685448 82.20904 
L 376.77125 67.370028 
L 377.857051 60.595064 
L 378.942852 66.649542 
L 380.028653 61.555427 
L 381.114454 71.963362 
L 382.200255 77.838288 
L 383.286057 65.297958 
L 384.371858 69.021367 
L 385.457659 64.5389 
L 386.54346 70.134307 
L 387.629261 65.475711 
L 388.715062 63.128797 
L 389.800863 67.685842 
L 390.886665 79.842498 
L 393.058267 53.568 
L 394.144068 59.388003 
L 395.229869 54.342666 
L 396.31567 58.674005 
L 397.401472 62.532566 
L 398.487273 63.871968 
L 398.487273 63.871968 
" style="fill:none;stroke:#ff0000;stroke-linecap:square;stroke-width:1.5;"/>
   </g>
   <g id="patch_3">
    <path d="M 57.6 307.584 
L 57.6 41.472 
" style="fill:none;stroke:#000000;stroke-linecap:square;stroke-linejoin:miter;stroke-width:0.8;"/>
   </g>
   <g id="patch_4">
    <path d="M 414.72 307.584 
L 414.72 41.472 
" style="fill:none;stroke:#000000;stroke-linecap:square;stroke-linejoin:miter;stroke-width:0.8;"/>
   </g>
   <g id="patch_5">
    <path d="M 57.6 307.584 
L 414.72 307.584 
" style="fill:none;stroke:#000000;stroke-linecap:square;stroke-linejoin:miter;stroke-width:0.8;"/>
   </g>
   <g id="patch_6">
    <path d="M 57.6 41.472 
L 414.72 41.472 
" style="fill:none;stroke:#000000;stroke-linecap:square;stroke-linejoin:miter;stroke-width:0.8;"/>
   </g>
   <g id="text_18">
    <!-- Population's average and best fitness -->
    <defs>
     <path d="M 19.671875 64.796875 
L 19.671875 37.40625 
L 32.078125 37.40625 
Q 38.96875 37.40625 42.71875 40.96875 
Q 46.484375 44.53125 46.484375 51.125 
Q 46.484375 57.671875 42.71875 61.234375 
Q 38.96875 64.796875 32.078125 64.796875 
z
M 9.8125 72.90625 
L 32.078125 72.90625 
Q 44.34375 72.90625 50.609375 67.359375 
Q 56.890625 61.8125 56.890625 51.125 
Q 56.890625 40.328125 50.609375 34.8125 
Q 44.34375 29.296875 32.078125 29.296875 
L 19.671875 29.296875 
L 19.671875 0 
L 9.8125 0 
z
" id="DejaVuSans-80"/>
     <path d="M 18.109375 8.203125 
L 18.109375 -20.796875 
L 9.078125 -20.796875 
L 9.078125 54.6875 
L 18.109375 54.6875 
L 18.109375 46.390625 
Q 20.953125 51.265625 25.265625 53.625 
Q 29.59375 56 35.59375 56 
Q 45.5625 56 51.78125 48.09375 
Q 58.015625 40.1875 58.015625 27.296875 
Q 58.015625 14.40625 51.78125 6.484375 
Q 45.5625 -1.421875 35.59375 -1.421875 
Q 29.59375 -1.421875 25.265625 0.953125 
Q 20.953125 3.328125 18.109375 8.203125 
z
M 48.6875 27.296875 
Q 48.6875 37.203125 44.609375 42.84375 
Q 40.53125 48.484375 33.40625 48.484375 
Q 26.265625 48.484375 22.1875 42.84375 
Q 18.109375 37.203125 18.109375 27.296875 
Q 18.109375 17.390625 22.1875 11.75 
Q 26.265625 6.109375 33.40625 6.109375 
Q 40.53125 6.109375 44.609375 11.75 
Q 48.6875 17.390625 48.6875 27.296875 
z
" id="DejaVuSans-112"/>
     <path d="M 8.5 21.578125 
L 8.5 54.6875 
L 17.484375 54.6875 
L 17.484375 21.921875 
Q 17.484375 14.15625 20.5 10.265625 
Q 23.53125 6.390625 29.59375 6.390625 
Q 36.859375 6.390625 41.078125 11.03125 
Q 45.3125 15.671875 45.3125 23.6875 
L 45.3125 54.6875 
L 54.296875 54.6875 
L 54.296875 0 
L 45.3125 0 
L 45.3125 8.40625 
Q 42.046875 3.421875 37.71875 1 
Q 33.40625 -1.421875 27.6875 -1.421875 
Q 18.265625 -1.421875 13.375 4.4375 
Q 8.5 10.296875 8.5 21.578125 
z
M 31.109375 56 
z
" id="DejaVuSans-117"/>
     <path d="M 9.421875 75.984375 
L 18.40625 75.984375 
L 18.40625 0 
L 9.421875 0 
z
" id="DejaVuSans-108"/>
     <path d="M 17.921875 72.90625 
L 17.921875 45.796875 
L 9.625 45.796875 
L 9.625 72.90625 
z
" id="DejaVuSans-39"/>
     <path id="DejaVuSans-32"/>
     <path d="M 2.984375 54.6875 
L 12.5 54.6875 
L 29.59375 8.796875 
L 46.6875 54.6875 
L 56.203125 54.6875 
L 35.6875 0 
L 23.484375 0 
z
" id="DejaVuSans-118"/>
     <path d="M 45.40625 27.984375 
Q 45.40625 37.75 41.375 43.109375 
Q 37.359375 48.484375 30.078125 48.484375 
Q 22.859375 48.484375 18.828125 43.109375 
Q 14.796875 37.75 14.796875 27.984375 
Q 14.796875 18.265625 18.828125 12.890625 
Q 22.859375 7.515625 30.078125 7.515625 
Q 37.359375 7.515625 41.375 12.890625 
Q 45.40625 18.265625 45.40625 27.984375 
z
M 54.390625 6.78125 
Q 54.390625 -7.171875 48.1875 -13.984375 
Q 42 -20.796875 29.203125 -20.796875 
Q 24.46875 -20.796875 20.265625 -20.09375 
Q 16.0625 -19.390625 12.109375 -17.921875 
L 12.109375 -9.1875 
Q 16.0625 -11.328125 19.921875 -12.34375 
Q 23.78125 -13.375 27.78125 -13.375 
Q 36.625 -13.375 41.015625 -8.765625 
Q 45.40625 -4.15625 45.40625 5.171875 
L 45.40625 9.625 
Q 42.625 4.78125 38.28125 2.390625 
Q 33.9375 0 27.875 0 
Q 17.828125 0 11.671875 7.65625 
Q 5.515625 15.328125 5.515625 27.984375 
Q 5.515625 40.671875 11.671875 48.328125 
Q 17.828125 56 27.875 56 
Q 33.9375 56 38.28125 53.609375 
Q 42.625 51.21875 45.40625 46.390625 
L 45.40625 54.6875 
L 54.390625 54.6875 
z
" id="DejaVuSans-103"/>
     <path d="M 45.40625 46.390625 
L 45.40625 75.984375 
L 54.390625 75.984375 
L 54.390625 0 
L 45.40625 0 
L 45.40625 8.203125 
Q 42.578125 3.328125 38.25 0.953125 
Q 33.9375 -1.421875 27.875 -1.421875 
Q 17.96875 -1.421875 11.734375 6.484375 
Q 5.515625 14.40625 5.515625 27.296875 
Q 5.515625 40.1875 11.734375 48.09375 
Q 17.96875 56 27.875 56 
Q 33.9375 56 38.25 53.625 
Q 42.578125 51.265625 45.40625 46.390625 
z
M 14.796875 27.296875 
Q 14.796875 17.390625 18.875 11.75 
Q 22.953125 6.109375 30.078125 6.109375 
Q 37.203125 6.109375 41.296875 11.75 
Q 45.40625 17.390625 45.40625 27.296875 
Q 45.40625 37.203125 41.296875 42.84375 
Q 37.203125 48.484375 30.078125 48.484375 
Q 22.953125 48.484375 18.875 42.84375 
Q 14.796875 37.203125 14.796875 27.296875 
z
" id="DejaVuSans-100"/>
     <path d="M 48.6875 27.296875 
Q 48.6875 37.203125 44.609375 42.84375 
Q 40.53125 48.484375 33.40625 48.484375 
Q 26.265625 48.484375 22.1875 42.84375 
Q 18.109375 37.203125 18.109375 27.296875 
Q 18.109375 17.390625 22.1875 11.75 
Q 26.265625 6.109375 33.40625 6.109375 
Q 40.53125 6.109375 44.609375 11.75 
Q 48.6875 17.390625 48.6875 27.296875 
z
M 18.109375 46.390625 
Q 20.953125 51.265625 25.265625 53.625 
Q 29.59375 56 35.59375 56 
Q 45.5625 56 51.78125 48.09375 
Q 58.015625 40.1875 58.015625 27.296875 
Q 58.015625 14.40625 51.78125 6.484375 
Q 45.5625 -1.421875 35.59375 -1.421875 
Q 29.59375 -1.421875 25.265625 0.953125 
Q 20.953125 3.328125 18.109375 8.203125 
L 18.109375 0 
L 9.078125 0 
L 9.078125 75.984375 
L 18.109375 75.984375 
z
" id="DejaVuSans-98"/>
     <path d="M 37.109375 75.984375 
L 37.109375 68.5 
L 28.515625 68.5 
Q 23.6875 68.5 21.796875 66.546875 
Q 19.921875 64.59375 19.921875 59.515625 
L 19.921875 54.6875 
L 34.71875 54.6875 
L 34.71875 47.703125 
L 19.921875 47.703125 
L 19.921875 0 
L 10.890625 0 
L 10.890625 47.703125 
L 2.296875 47.703125 
L 2.296875 54.6875 
L 10.890625 54.6875 
L 10.890625 58.5 
Q 10.890625 67.625 15.140625 71.796875 
Q 19.390625 75.984375 28.609375 75.984375 
z
" id="DejaVuSans-102"/>
    </defs>
    <g transform="translate(123.315 35.472)scale(0.12 -0.12)">
     <use xlink:href="#DejaVuSans-80"/>
     <use x="60.255859" xlink:href="#DejaVuSans-111"/>
     <use x="121.4375" xlink:href="#DejaVuSans-112"/>
     <use x="184.914062" xlink:href="#DejaVuSans-117"/>
     <use x="248.292969" xlink:href="#DejaVuSans-108"/>
     <use x="276.076172" xlink:href="#DejaVuSans-97"/>
     <use x="337.355469" xlink:href="#DejaVuSans-116"/>
     <use x="376.564453" xlink:href="#DejaVuSans-105"/>
     <use x="404.347656" xlink:href="#DejaVuSans-111"/>
     <use x="465.529297" xlink:href="#DejaVuSans-110"/>
     <use x="528.908203" xlink:href="#DejaVuSans-39"/>
     <use x="556.398438" xlink:href="#DejaVuSans-115"/>
     <use x="608.498047" xlink:href="#DejaVuSans-32"/>
     <use x="640.285156" xlink:href="#DejaVuSans-97"/>
     <use x="701.564453" xlink:href="#DejaVuSans-118"/>
     <use x="760.744141" xlink:href="#DejaVuSans-101"/>
     <use x="822.267578" xlink:href="#DejaVuSans-114"/>
     <use x="863.380859" xlink:href="#DejaVuSans-97"/>
     <use x="924.660156" xlink:href="#DejaVuSans-103"/>
     <use x="988.136719" xlink:href="#DejaVuSans-101"/>
     <use x="1049.660156" xlink:href="#DejaVuSans-32"/>
     <use x="1081.447266" xlink:href="#DejaVuSans-97"/>
     <use x="1142.726562" xlink:href="#DejaVuSans-110"/>
     <use x="1206.105469" xlink:href="#DejaVuSans-100"/>
     <use x="1269.582031" xlink:href="#DejaVuSans-32"/>
     <use x="1301.369141" xlink:href="#DejaVuSans-98"/>
     <use x="1364.845703" xlink:href="#DejaVuSans-101"/>
     <use x="1426.369141" xlink:href="#DejaVuSans-115"/>
     <use x="1478.46875" xlink:href="#DejaVuSans-116"/>
     <use x="1517.677734" xlink:href="#DejaVuSans-32"/>
     <use x="1549.464844" xlink:href="#DejaVuSans-102"/>
     <use x="1584.669922" xlink:href="#DejaVuSans-105"/>
     <use x="1612.453125" xlink:href="#DejaVuSans-116"/>
     <use x="1651.662109" xlink:href="#DejaVuSans-110"/>
     <use x="1715.041016" xlink:href="#DejaVuSans-101"/>
     <use x="1776.564453" xlink:href="#DejaVuSans-115"/>
     <use x="1828.664062" xlink:href="#DejaVuSans-115"/>
    </g>
   </g>
   <g id="legend_1">
    <g id="patch_7">
     <path d="M 334.779375 302.584 
L 407.72 302.584 
Q 409.72 302.584 409.72 300.584 
L 409.72 242.8715 
Q 409.72 240.8715 407.72 240.8715 
L 334.779375 240.8715 
Q 332.779375 240.8715 332.779375 242.8715 
L 332.779375 300.584 
Q 332.779375 302.584 334.779375 302.584 
z
" style="fill:#ffffff;opacity:0.8;stroke:#cccccc;stroke-linejoin:miter;"/>
    </g>
    <g id="line2d_35">
     <path d="M 336.779375 248.969937 
L 356.779375 248.969937 
" style="fill:none;stroke:#0000ff;stroke-linecap:square;stroke-width:1.5;"/>
    </g>
    <g id="line2d_36"/>
    <g id="text_19">
     <!-- average -->
     <g transform="translate(364.779375 252.469937)scale(0.1 -0.1)">
      <use xlink:href="#DejaVuSans-97"/>
      <use x="61.279297" xlink:href="#DejaVuSans-118"/>
      <use x="120.458984" xlink:href="#DejaVuSans-101"/>
      <use x="181.982422" xlink:href="#DejaVuSans-114"/>
      <use x="223.095703" xlink:href="#DejaVuSans-97"/>
      <use x="284.375" xlink:href="#DejaVuSans-103"/>
      <use x="347.851562" xlink:href="#DejaVuSans-101"/>
     </g>
    </g>
    <g id="line2d_37">
     <path d="M 336.779375 263.648062 
L 356.779375 263.648062 
" style="fill:none;stroke:#008000;stroke-dasharray:9.6,2.4,1.5,2.4;stroke-dashoffset:0;stroke-width:1.5;"/>
    </g>
    <g id="line2d_38"/>
    <g id="text_20">
     <!-- -1 sd -->
     <defs>
      <path d="M 4.890625 31.390625 
L 31.203125 31.390625 
L 31.203125 23.390625 
L 4.890625 23.390625 
z
" id="DejaVuSans-45"/>
     </defs>
     <g transform="translate(364.779375 267.148062)scale(0.1 -0.1)">
      <use xlink:href="#DejaVuSans-45"/>
      <use x="36.083984" xlink:href="#DejaVuSans-49"/>
      <use x="99.707031" xlink:href="#DejaVuSans-32"/>
      <use x="131.494141" xlink:href="#DejaVuSans-115"/>
      <use x="183.59375" xlink:href="#DejaVuSans-100"/>
     </g>
    </g>
    <g id="line2d_39">
     <path d="M 336.779375 278.326187 
L 356.779375 278.326187 
" style="fill:none;stroke:#008000;stroke-dasharray:9.6,2.4,1.5,2.4;stroke-dashoffset:0;stroke-width:1.5;"/>
    </g>
    <g id="line2d_40"/>
    <g id="text_21">
     <!-- +1 sd -->
     <defs>
      <path d="M 46 62.703125 
L 46 35.5 
L 73.1875 35.5 
L 73.1875 27.203125 
L 46 27.203125 
L 46 0 
L 37.796875 0 
L 37.796875 27.203125 
L 10.59375 27.203125 
L 10.59375 35.5 
L 37.796875 35.5 
L 37.796875 62.703125 
z
" id="DejaVuSans-43"/>
     </defs>
     <g transform="translate(364.779375 281.826187)scale(0.1 -0.1)">
      <use xlink:href="#DejaVuSans-43"/>
      <use x="83.789062" xlink:href="#DejaVuSans-49"/>
      <use x="147.412109" xlink:href="#DejaVuSans-32"/>
      <use x="179.199219" xlink:href="#DejaVuSans-115"/>
      <use x="231.298828" xlink:href="#DejaVuSans-100"/>
     </g>
    </g>
    <g id="line2d_41">
     <path d="M 336.779375 293.004312 
L 356.779375 293.004312 
" style="fill:none;stroke:#ff0000;stroke-linecap:square;stroke-width:1.5;"/>
    </g>
    <g id="line2d_42"/>
    <g id="text_22">
     <!-- best -->
     <g transform="translate(364.779375 296.504312)scale(0.1 -0.1)">
      <use xlink:href="#DejaVuSans-98"/>
      <use x="63.476562" xlink:href="#DejaVuSans-101"/>
      <use x="125" xlink:href="#DejaVuSans-115"/>
      <use x="177.099609" xlink:href="#DejaVuSans-116"/>
     </g>
    </g>
   </g>
  </g>
 </g>
 <defs>
  <clipPath id="p05a54edf35">
   <rect height="266.112" width="357.12" x="57.6" y="41.472"/>
  </clipPath>
 </defs>
</svg>
