<?xml version="1.0" encoding="UTF-8" standalone="no"?>
<!DOCTYPE svg PUBLIC "-//W3C//DTD SVG 1.1//EN"
 "http://www.w3.org/Graphics/SVG/1.1/DTD/svg11.dtd">
<!-- Generated by graphviz version 2.40.1 (20161225.0304)
 -->
<!-- Title: %3 Pages: 1 -->
<svg width="528pt" height="182pt"
 viewBox="0.00 0.00 527.56 181.85" xmlns="http://www.w3.org/2000/svg" xmlns:xlink="http://www.w3.org/1999/xlink">
<g id="graph0" class="graph" transform="scale(1 1) rotate(0) translate(4 177.8494)">
<title>%3</title>
<polygon fill="#ffffff" stroke="transparent" points="-4,4 -4,-177.8494 523.5619,-177.8494 523.5619,4 -4,4"/>
<!-- 0 -->
<g id="node1" class="node">
<title>0</title>
<polygon fill="#d3d3d3" stroke="#000000" points="158.1848,-173.8494 138.1729,-173.8494 138.1729,-156.8494 158.1848,-156.8494 158.1848,-173.8494"/>
<text text-anchor="middle" x="148.1788" y="-162.6494" font-family="Times,serif" font-size="9.00" fill="#000000">0</text>
</g>
<!-- 1 -->
<g id="node2" class="node">
<title>1</title>
<polygon fill="#d3d3d3" stroke="#000000" points="222.1848,-173.8494 202.1729,-173.8494 202.1729,-156.8494 222.1848,-156.8494 222.1848,-173.8494"/>
<text text-anchor="middle" x="212.1788" y="-162.6494" font-family="Times,serif" font-size="9.00" fill="#000000">1</text>
</g>
<!-- 0&#45;&gt;1 -->
<!-- E0 -->
<g id="node4" class="node">
<title>E0</title>
<ellipse fill="#eee8aa" stroke="#000000" cx="19.1788" cy="-18.383" rx="18.2668" ry="18.2668"/>
<text text-anchor="middle" x="19.1788" y="-15.683" font-family="Times,serif" font-size="9.00" fill="#000000">E0</text>
</g>
<!-- 0&#45;&gt;E0 -->
<g id="edge11" class="edge">
<title>0&#45;&gt;E0</title>
<path fill="none" stroke="#00ff00" stroke-width="2.1385" d="M137.9202,-163.6249C108.6326,-158.4726 25.7388,-142.2159 10.1788,-120.8494 -5.6837,-99.0674 .2797,-67.3648 7.8508,-45.0035"/>
<polygon fill="#00ff00" stroke="#00ff00" stroke-width="2.1385" points="11.1954,-46.0494 11.3699,-35.456 4.6274,-43.6285 11.1954,-46.0494"/>
</g>
<!-- E2 -->
<g id="node6" class="node">
<title>E2</title>
<ellipse fill="#eee8aa" stroke="#000000" cx="135.1788" cy="-18.383" rx="18.2668" ry="18.2668"/>
<text text-anchor="middle" x="135.1788" y="-15.683" font-family="Times,serif" font-size="9.00" fill="#000000">E2</text>
</g>
<!-- 0&#45;&gt;E2 -->
<g id="edge22" class="edge">
<title>0&#45;&gt;E2</title>
<path fill="none" stroke="#00ff00" stroke-width=".2543" d="M147.7992,-156.6549C147.0416,-140.2354 145.1543,-103.5484 142.1788,-72.7661 141.3609,-64.305 140.2619,-55.1297 139.1774,-46.768"/>
<polygon fill="#00ff00" stroke="#00ff00" stroke-width=".2543" points="142.6292,-46.1739 137.8337,-36.7265 135.6911,-47.1024 142.6292,-46.1739"/>
</g>
<!-- 4587 -->
<g id="node14" class="node">
<title>4587</title>
<ellipse fill="#f08080" stroke="#000000" cx="109.1788" cy="-96.8077" rx="24.0833" ry="24.0833"/>
<text text-anchor="middle" x="109.1788" y="-98.6077" font-family="Times,serif" font-size="9.00" fill="#000000">4587</text>
<text text-anchor="middle" x="109.1788" y="-89.6077" font-family="Times,serif" font-size="9.00" fill="#000000">relu</text>
</g>
<!-- 0&#45;&gt;4587 -->
<g id="edge20" class="edge">
<title>0&#45;&gt;4587</title>
<path fill="none" stroke="#00ff00" stroke-width=".5678" d="M143.2394,-156.6685C138.9159,-149.07 132.3736,-137.5721 126.1746,-126.6775"/>
<polygon fill="#00ff00" stroke="#00ff00" stroke-width=".5678" points="129.092,-124.7274 121.1045,-117.7668 123.0079,-128.1892 129.092,-124.7274"/>
</g>
<!-- 2 -->
<g id="node3" class="node">
<title>2</title>
<polygon fill="#d3d3d3" stroke="#000000" points="332.1848,-173.8494 312.1729,-173.8494 312.1729,-156.8494 332.1848,-156.8494 332.1848,-173.8494"/>
<text text-anchor="middle" x="322.1788" y="-162.6494" font-family="Times,serif" font-size="9.00" fill="#000000">2</text>
</g>
<!-- 1&#45;&gt;2 -->
<!-- 1&#45;&gt;E2 -->
<g id="edge21" class="edge">
<title>1&#45;&gt;E2</title>
<path fill="none" stroke="#00ff00" stroke-width=".2214" d="M207.5927,-156.5961C196.2182,-134.8862 166.3586,-77.8945 148.7374,-44.2616"/>
<polygon fill="#00ff00" stroke="#00ff00" stroke-width=".2214" points="151.6476,-42.2744 143.9063,-35.0409 145.447,-45.5231 151.6476,-42.2744"/>
</g>
<!-- 1866 -->
<g id="node15" class="node">
<title>1866</title>
<ellipse fill="#f0e68c" stroke="#000000" cx="446.1788" cy="-96.8077" rx="24.0833" ry="24.0833"/>
<text text-anchor="middle" x="446.1788" y="-98.6077" font-family="Times,serif" font-size="9.00" fill="#000000">1866</text>
<text text-anchor="middle" x="446.1788" y="-89.6077" font-family="Times,serif" font-size="9.00" fill="#000000">soft</text>
</g>
<!-- 1&#45;&gt;1866 -->
<g id="edge13" class="edge">
<title>1&#45;&gt;1866</title>
<path fill="none" stroke="#00ff00" stroke-width="1.5597" d="M222.2335,-162.4042C254.942,-152.8235 359.3093,-122.2529 413.23,-106.4589"/>
<polygon fill="#00ff00" stroke="#00ff00" stroke-width="1.5597" points="414.3812,-109.7688 422.9941,-103.5988 412.4135,-103.051 414.3812,-109.7688"/>
</g>
<!-- E4 -->
<g id="node8" class="node">
<title>E4</title>
<ellipse fill="#eee8aa" stroke="#000000" cx="281.1788" cy="-18.383" rx="18.2668" ry="18.2668"/>
<text text-anchor="middle" x="281.1788" y="-15.683" font-family="Times,serif" font-size="9.00" fill="#000000">E4</text>
</g>
<!-- 2&#45;&gt;E4 -->
<g id="edge23" class="edge">
<title>2&#45;&gt;E4</title>
<path fill="none" stroke="#ff0000" stroke-width=".2383" d="M319.7369,-156.5961C313.8001,-135.3154 298.4058,-80.1341 288.9623,-46.2832"/>
<polygon fill="#ff0000" stroke="#ff0000" stroke-width=".2383" points="292.2981,-45.2154 286.2396,-36.5237 285.5556,-47.0965 292.2981,-45.2154"/>
</g>
<!-- E5 -->
<g id="node9" class="node">
<title>E5</title>
<ellipse fill="#87cefa" stroke="#000000" cx="336.1788" cy="-18.383" rx="18.2668" ry="18.2668"/>
<text text-anchor="middle" x="336.1788" y="-15.683" font-family="Times,serif" font-size="9.00" fill="#000000">E5</text>
</g>
<!-- 2&#45;&gt;E5 -->
<g id="edge14" class="edge">
<title>2&#45;&gt;E5</title>
<path fill="none" stroke="#ff0000" stroke-width="2.161" d="M323.0126,-156.5961C325.0258,-135.4629 330.2237,-80.8974 333.4537,-46.9901"/>
<polygon fill="#ff0000" stroke="#ff0000" stroke-width="2.161" points="336.9626,-47.0626 334.4267,-36.7757 329.9941,-46.3987 336.9626,-47.0626"/>
</g>
<!-- E6 -->
<g id="node10" class="node">
<title>E6</title>
<ellipse fill="#eee8aa" stroke="#000000" cx="391.1788" cy="-18.383" rx="18.2668" ry="18.2668"/>
<text text-anchor="middle" x="391.1788" y="-15.683" font-family="Times,serif" font-size="9.00" fill="#000000">E6</text>
</g>
<!-- 2&#45;&gt;E6 -->
<g id="edge12" class="edge">
<title>2&#45;&gt;E6</title>
<path fill="none" stroke="#00ff00" stroke-width="1.7865" d="M326.2884,-156.5961C336.4811,-134.8862 363.2384,-77.8945 379.0289,-44.2616"/>
<polygon fill="#00ff00" stroke="#00ff00" stroke-width="1.7865" points="382.2763,-45.5804 383.358,-35.0409 375.9399,-42.6054 382.2763,-45.5804"/>
</g>
<!-- E1 -->
<g id="node5" class="node">
<title>E1</title>
<ellipse fill="#87cefa" stroke="#000000" cx="78.1788" cy="-18.383" rx="18.2668" ry="18.2668"/>
<text text-anchor="middle" x="78.1788" y="-15.683" font-family="Times,serif" font-size="9.00" fill="#000000">E1</text>
</g>
<!-- E0&#45;&gt;E1 -->
<!-- E1&#45;&gt;E2 -->
<!-- E3 -->
<g id="node7" class="node">
<title>E3</title>
<ellipse fill="#87cefa" stroke="#000000" cx="226.1788" cy="-18.383" rx="18.2668" ry="18.2668"/>
<text text-anchor="middle" x="226.1788" y="-15.683" font-family="Times,serif" font-size="9.00" fill="#000000">E3</text>
</g>
<!-- E2&#45;&gt;E3 -->
<!-- E3&#45;&gt;E4 -->
<!-- E4&#45;&gt;E5 -->
<!-- E5&#45;&gt;E6 -->
<!-- E7 -->
<g id="node11" class="node">
<title>E7</title>
<ellipse fill="#87cefa" stroke="#000000" cx="446.1788" cy="-18.383" rx="18.2668" ry="18.2668"/>
<text text-anchor="middle" x="446.1788" y="-15.683" font-family="Times,serif" font-size="9.00" fill="#000000">E7</text>
</g>
<!-- E6&#45;&gt;E7 -->
<!-- E8 -->
<g id="node12" class="node">
<title>E8</title>
<ellipse fill="#87cefa" stroke="#000000" cx="501.1788" cy="-18.383" rx="18.2668" ry="18.2668"/>
<text text-anchor="middle" x="501.1788" y="-15.683" font-family="Times,serif" font-size="9.00" fill="#000000">E8</text>
</g>
<!-- E7&#45;&gt;E8 -->
<!-- 3529 -->
<g id="node13" class="node">
<title>3529</title>
<ellipse fill="#f0e68c" stroke="#000000" cx="43.1788" cy="-96.8077" rx="24.0833" ry="24.0833"/>
<text text-anchor="middle" x="43.1788" y="-98.6077" font-family="Times,serif" font-size="9.00" fill="#000000">3529</text>
<text text-anchor="middle" x="43.1788" y="-89.6077" font-family="Times,serif" font-size="9.00" fill="#000000">soft</text>
</g>
<!-- 3529&#45;&gt;E2 -->
<g id="edge18" class="edge">
<title>3529&#45;&gt;E2</title>
<path fill="none" stroke="#00ff00" stroke-width=".2359" d="M61.7964,-80.9373C76.73,-68.2073 97.7173,-50.3168 113.4242,-36.9276"/>
<polygon fill="#00ff00" stroke="#00ff00" stroke-width=".2359" points="115.7568,-39.5383 121.0964,-30.3875 111.2156,-34.2112 115.7568,-39.5383"/>
</g>
<!-- 4587&#45;&gt;E2 -->
<g id="edge17" class="edge">
<title>4587&#45;&gt;E2</title>
<path fill="none" stroke="#ff0000" stroke-width=".1757" d="M116.839,-73.7019C119.7871,-64.8095 123.1787,-54.5794 126.2371,-45.3542"/>
<polygon fill="#ff0000" stroke="#ff0000" stroke-width=".1757" points="129.5636,-46.4423 129.3884,-35.8489 122.9193,-44.2394 129.5636,-46.4423"/>
</g>
<!-- 1866&#45;&gt;E7 -->
<g id="edge15" class="edge">
<title>1866&#45;&gt;E7</title>
<path fill="none" stroke="#ff0000" stroke-width=".2112" d="M446.1788,-72.4236C446.1788,-64.33 446.1788,-55.248 446.1788,-46.8729"/>
<polygon fill="#ff0000" stroke="#ff0000" stroke-width=".2112" points="449.6789,-46.7701 446.1788,-36.7702 442.6789,-46.7702 449.6789,-46.7701"/>
</g>
<!-- 1866&#45;&gt;E8 -->
<g id="edge16" class="edge">
<title>1866&#45;&gt;E8</title>
<path fill="none" stroke="#00ff00" stroke-width=".4586" d="M460.0576,-77.0179C467.4903,-66.4197 476.6989,-53.289 484.5165,-42.1419"/>
<polygon fill="#00ff00" stroke="#00ff00" stroke-width=".4586" points="487.551,-43.9106 490.4273,-33.7136 481.8199,-39.8913 487.551,-43.9106"/>
</g>
<!-- 3967 -->
<g id="node16" class="node">
<title>3967</title>
<ellipse fill="#add8e6" stroke="#000000" cx="251.1788" cy="-96.8077" rx="24.0833" ry="24.0833"/>
<text text-anchor="middle" x="251.1788" y="-98.6077" font-family="Times,serif" font-size="9.00" fill="#000000">3967</text>
<text text-anchor="middle" x="251.1788" y="-89.6077" font-family="Times,serif" font-size="9.00" fill="#000000">sigm</text>
</g>
<!-- 3967&#45;&gt;E3 -->
<g id="edge19" class="edge">
<title>3967&#45;&gt;E3</title>
<path fill="none" stroke="#ff0000" stroke-width=".3174" d="M243.8132,-73.7019C241.0296,-64.9697 237.8348,-54.9477 234.9359,-45.8539"/>
<polygon fill="#ff0000" stroke="#ff0000" stroke-width=".3174" points="238.1982,-44.5638 231.8263,-36.0992 231.5289,-46.6899 238.1982,-44.5638"/>
</g>
</g>
</svg>
