<?xml version="1.0" encoding="utf-8" standalone="no"?>
<!DOCTYPE svg PUBLIC "-//W3C//DTD SVG 1.1//EN"
  "http://www.w3.org/Graphics/SVG/1.1/DTD/svg11.dtd">
<!-- Created with matplotlib (https://matplotlib.org/) -->
<svg height="345.6pt" version="1.1" viewBox="0 0 460.8 345.6" width="460.8pt" xmlns="http://www.w3.org/2000/svg" xmlns:xlink="http://www.w3.org/1999/xlink">
 <defs>
  <style type="text/css">
*{stroke-linecap:butt;stroke-linejoin:round;}
  </style>
 </defs>
 <g id="figure_1">
  <g id="patch_1">
   <path d="M 0 345.6 
L 460.8 345.6 
L 460.8 0 
L 0 0 
z
" style="fill:#ffffff;"/>
  </g>
  <g id="axes_1">
   <g id="patch_2">
    <path d="M 57.6 307.584 
L 414.72 307.584 
L 414.72 41.472 
L 57.6 41.472 
z
" style="fill:#ffffff;"/>
   </g>
   <g id="matplotlib.axis_1">
    <g id="xtick_1">
     <g id="line2d_1">
      <path clip-path="url(#p47a672e994)" d="M 73.832727 307.584 
L 73.832727 41.472 
" style="fill:none;stroke:#b0b0b0;stroke-linecap:square;stroke-width:0.8;"/>
     </g>
     <g id="line2d_2">
      <defs>
       <path d="M 0 0 
L 0 3.5 
" id="m1854a9aaa7" style="stroke:#000000;stroke-width:0.8;"/>
      </defs>
      <g>
       <use style="stroke:#000000;stroke-width:0.8;" x="73.832727" xlink:href="#m1854a9aaa7" y="307.584"/>
      </g>
     </g>
     <g id="text_1">
      <!-- 0 -->
      <defs>
       <path d="M 31.78125 66.40625 
Q 24.171875 66.40625 20.328125 58.90625 
Q 16.5 51.421875 16.5 36.375 
Q 16.5 21.390625 20.328125 13.890625 
Q 24.171875 6.390625 31.78125 6.390625 
Q 39.453125 6.390625 43.28125 13.890625 
Q 47.125 21.390625 47.125 36.375 
Q 47.125 51.421875 43.28125 58.90625 
Q 39.453125 66.40625 31.78125 66.40625 
z
M 31.78125 74.21875 
Q 44.046875 74.21875 50.515625 64.515625 
Q 56.984375 54.828125 56.984375 36.375 
Q 56.984375 17.96875 50.515625 8.265625 
Q 44.046875 -1.421875 31.78125 -1.421875 
Q 19.53125 -1.421875 13.0625 8.265625 
Q 6.59375 17.96875 6.59375 36.375 
Q 6.59375 54.828125 13.0625 64.515625 
Q 19.53125 74.21875 31.78125 74.21875 
z
" id="DejaVuSans-48"/>
      </defs>
      <g transform="translate(70.651477 322.182437)scale(0.1 -0.1)">
       <use xlink:href="#DejaVuSans-48"/>
      </g>
     </g>
    </g>
    <g id="xtick_2">
     <g id="line2d_3">
      <path clip-path="url(#p47a672e994)" d="M 128.122785 307.584 
L 128.122785 41.472 
" style="fill:none;stroke:#b0b0b0;stroke-linecap:square;stroke-width:0.8;"/>
     </g>
     <g id="line2d_4">
      <g>
       <use style="stroke:#000000;stroke-width:0.8;" x="128.122785" xlink:href="#m1854a9aaa7" y="307.584"/>
      </g>
     </g>
     <g id="text_2">
      <!-- 50 -->
      <defs>
       <path d="M 10.796875 72.90625 
L 49.515625 72.90625 
L 49.515625 64.59375 
L 19.828125 64.59375 
L 19.828125 46.734375 
Q 21.96875 47.46875 24.109375 47.828125 
Q 26.265625 48.1875 28.421875 48.1875 
Q 40.625 48.1875 47.75 41.5 
Q 54.890625 34.8125 54.890625 23.390625 
Q 54.890625 11.625 47.5625 5.09375 
Q 40.234375 -1.421875 26.90625 -1.421875 
Q 22.3125 -1.421875 17.546875 -0.640625 
Q 12.796875 0.140625 7.71875 1.703125 
L 7.71875 11.625 
Q 12.109375 9.234375 16.796875 8.0625 
Q 21.484375 6.890625 26.703125 6.890625 
Q 35.15625 6.890625 40.078125 11.328125 
Q 45.015625 15.765625 45.015625 23.390625 
Q 45.015625 31 40.078125 35.4375 
Q 35.15625 39.890625 26.703125 39.890625 
Q 22.75 39.890625 18.8125 39.015625 
Q 14.890625 38.140625 10.796875 36.28125 
z
" id="DejaVuSans-53"/>
      </defs>
      <g transform="translate(121.760285 322.182437)scale(0.1 -0.1)">
       <use xlink:href="#DejaVuSans-53"/>
       <use x="63.623047" xlink:href="#DejaVuSans-48"/>
      </g>
     </g>
    </g>
    <g id="xtick_3">
     <g id="line2d_5">
      <path clip-path="url(#p47a672e994)" d="M 182.412843 307.584 
L 182.412843 41.472 
" style="fill:none;stroke:#b0b0b0;stroke-linecap:square;stroke-width:0.8;"/>
     </g>
     <g id="line2d_6">
      <g>
       <use style="stroke:#000000;stroke-width:0.8;" x="182.412843" xlink:href="#m1854a9aaa7" y="307.584"/>
      </g>
     </g>
     <g id="text_3">
      <!-- 100 -->
      <defs>
       <path d="M 12.40625 8.296875 
L 28.515625 8.296875 
L 28.515625 63.921875 
L 10.984375 60.40625 
L 10.984375 69.390625 
L 28.421875 72.90625 
L 38.28125 72.90625 
L 38.28125 8.296875 
L 54.390625 8.296875 
L 54.390625 0 
L 12.40625 0 
z
" id="DejaVuSans-49"/>
      </defs>
      <g transform="translate(172.869093 322.182437)scale(0.1 -0.1)">
       <use xlink:href="#DejaVuSans-49"/>
       <use x="63.623047" xlink:href="#DejaVuSans-48"/>
       <use x="127.246094" xlink:href="#DejaVuSans-48"/>
      </g>
     </g>
    </g>
    <g id="xtick_4">
     <g id="line2d_7">
      <path clip-path="url(#p47a672e994)" d="M 236.702901 307.584 
L 236.702901 41.472 
" style="fill:none;stroke:#b0b0b0;stroke-linecap:square;stroke-width:0.8;"/>
     </g>
     <g id="line2d_8">
      <g>
       <use style="stroke:#000000;stroke-width:0.8;" x="236.702901" xlink:href="#m1854a9aaa7" y="307.584"/>
      </g>
     </g>
     <g id="text_4">
      <!-- 150 -->
      <g transform="translate(227.159151 322.182437)scale(0.1 -0.1)">
       <use xlink:href="#DejaVuSans-49"/>
       <use x="63.623047" xlink:href="#DejaVuSans-53"/>
       <use x="127.246094" xlink:href="#DejaVuSans-48"/>
      </g>
     </g>
    </g>
    <g id="xtick_5">
     <g id="line2d_9">
      <path clip-path="url(#p47a672e994)" d="M 290.992958 307.584 
L 290.992958 41.472 
" style="fill:none;stroke:#b0b0b0;stroke-linecap:square;stroke-width:0.8;"/>
     </g>
     <g id="line2d_10">
      <g>
       <use style="stroke:#000000;stroke-width:0.8;" x="290.992958" xlink:href="#m1854a9aaa7" y="307.584"/>
      </g>
     </g>
     <g id="text_5">
      <!-- 200 -->
      <defs>
       <path d="M 19.1875 8.296875 
L 53.609375 8.296875 
L 53.609375 0 
L 7.328125 0 
L 7.328125 8.296875 
Q 12.9375 14.109375 22.625 23.890625 
Q 32.328125 33.6875 34.8125 36.53125 
Q 39.546875 41.84375 41.421875 45.53125 
Q 43.3125 49.21875 43.3125 52.78125 
Q 43.3125 58.59375 39.234375 62.25 
Q 35.15625 65.921875 28.609375 65.921875 
Q 23.96875 65.921875 18.8125 64.3125 
Q 13.671875 62.703125 7.8125 59.421875 
L 7.8125 69.390625 
Q 13.765625 71.78125 18.9375 73 
Q 24.125 74.21875 28.421875 74.21875 
Q 39.75 74.21875 46.484375 68.546875 
Q 53.21875 62.890625 53.21875 53.421875 
Q 53.21875 48.921875 51.53125 44.890625 
Q 49.859375 40.875 45.40625 35.40625 
Q 44.1875 33.984375 37.640625 27.21875 
Q 31.109375 20.453125 19.1875 8.296875 
z
" id="DejaVuSans-50"/>
      </defs>
      <g transform="translate(281.449208 322.182437)scale(0.1 -0.1)">
       <use xlink:href="#DejaVuSans-50"/>
       <use x="63.623047" xlink:href="#DejaVuSans-48"/>
       <use x="127.246094" xlink:href="#DejaVuSans-48"/>
      </g>
     </g>
    </g>
    <g id="xtick_6">
     <g id="line2d_11">
      <path clip-path="url(#p47a672e994)" d="M 345.283016 307.584 
L 345.283016 41.472 
" style="fill:none;stroke:#b0b0b0;stroke-linecap:square;stroke-width:0.8;"/>
     </g>
     <g id="line2d_12">
      <g>
       <use style="stroke:#000000;stroke-width:0.8;" x="345.283016" xlink:href="#m1854a9aaa7" y="307.584"/>
      </g>
     </g>
     <g id="text_6">
      <!-- 250 -->
      <g transform="translate(335.739266 322.182437)scale(0.1 -0.1)">
       <use xlink:href="#DejaVuSans-50"/>
       <use x="63.623047" xlink:href="#DejaVuSans-53"/>
       <use x="127.246094" xlink:href="#DejaVuSans-48"/>
      </g>
     </g>
    </g>
    <g id="xtick_7">
     <g id="line2d_13">
      <path clip-path="url(#p47a672e994)" d="M 399.573074 307.584 
L 399.573074 41.472 
" style="fill:none;stroke:#b0b0b0;stroke-linecap:square;stroke-width:0.8;"/>
     </g>
     <g id="line2d_14">
      <g>
       <use style="stroke:#000000;stroke-width:0.8;" x="399.573074" xlink:href="#m1854a9aaa7" y="307.584"/>
      </g>
     </g>
     <g id="text_7">
      <!-- 300 -->
      <defs>
       <path d="M 40.578125 39.3125 
Q 47.65625 37.796875 51.625 33 
Q 55.609375 28.21875 55.609375 21.1875 
Q 55.609375 10.40625 48.1875 4.484375 
Q 40.765625 -1.421875 27.09375 -1.421875 
Q 22.515625 -1.421875 17.65625 -0.515625 
Q 12.796875 0.390625 7.625 2.203125 
L 7.625 11.71875 
Q 11.71875 9.328125 16.59375 8.109375 
Q 21.484375 6.890625 26.8125 6.890625 
Q 36.078125 6.890625 40.9375 10.546875 
Q 45.796875 14.203125 45.796875 21.1875 
Q 45.796875 27.640625 41.28125 31.265625 
Q 36.765625 34.90625 28.71875 34.90625 
L 20.21875 34.90625 
L 20.21875 43.015625 
L 29.109375 43.015625 
Q 36.375 43.015625 40.234375 45.921875 
Q 44.09375 48.828125 44.09375 54.296875 
Q 44.09375 59.90625 40.109375 62.90625 
Q 36.140625 65.921875 28.71875 65.921875 
Q 24.65625 65.921875 20.015625 65.03125 
Q 15.375 64.15625 9.8125 62.3125 
L 9.8125 71.09375 
Q 15.4375 72.65625 20.34375 73.4375 
Q 25.25 74.21875 29.59375 74.21875 
Q 40.828125 74.21875 47.359375 69.109375 
Q 53.90625 64.015625 53.90625 55.328125 
Q 53.90625 49.265625 50.4375 45.09375 
Q 46.96875 40.921875 40.578125 39.3125 
z
" id="DejaVuSans-51"/>
      </defs>
      <g transform="translate(390.029324 322.182437)scale(0.1 -0.1)">
       <use xlink:href="#DejaVuSans-51"/>
       <use x="63.623047" xlink:href="#DejaVuSans-48"/>
       <use x="127.246094" xlink:href="#DejaVuSans-48"/>
      </g>
     </g>
    </g>
    <g id="text_8">
     <!-- Generations -->
     <defs>
      <path d="M 59.515625 10.40625 
L 59.515625 29.984375 
L 43.40625 29.984375 
L 43.40625 38.09375 
L 69.28125 38.09375 
L 69.28125 6.78125 
Q 63.578125 2.734375 56.6875 0.65625 
Q 49.8125 -1.421875 42 -1.421875 
Q 24.90625 -1.421875 15.25 8.5625 
Q 5.609375 18.5625 5.609375 36.375 
Q 5.609375 54.25 15.25 64.234375 
Q 24.90625 74.21875 42 74.21875 
Q 49.125 74.21875 55.546875 72.453125 
Q 61.96875 70.703125 67.390625 67.28125 
L 67.390625 56.78125 
Q 61.921875 61.421875 55.765625 63.765625 
Q 49.609375 66.109375 42.828125 66.109375 
Q 29.4375 66.109375 22.71875 58.640625 
Q 16.015625 51.171875 16.015625 36.375 
Q 16.015625 21.625 22.71875 14.15625 
Q 29.4375 6.6875 42.828125 6.6875 
Q 48.046875 6.6875 52.140625 7.59375 
Q 56.25 8.5 59.515625 10.40625 
z
" id="DejaVuSans-71"/>
      <path d="M 56.203125 29.59375 
L 56.203125 25.203125 
L 14.890625 25.203125 
Q 15.484375 15.921875 20.484375 11.0625 
Q 25.484375 6.203125 34.421875 6.203125 
Q 39.59375 6.203125 44.453125 7.46875 
Q 49.3125 8.734375 54.109375 11.28125 
L 54.109375 2.78125 
Q 49.265625 0.734375 44.1875 -0.34375 
Q 39.109375 -1.421875 33.890625 -1.421875 
Q 20.796875 -1.421875 13.15625 6.1875 
Q 5.515625 13.8125 5.515625 26.8125 
Q 5.515625 40.234375 12.765625 48.109375 
Q 20.015625 56 32.328125 56 
Q 43.359375 56 49.78125 48.890625 
Q 56.203125 41.796875 56.203125 29.59375 
z
M 47.21875 32.234375 
Q 47.125 39.59375 43.09375 43.984375 
Q 39.0625 48.390625 32.421875 48.390625 
Q 24.90625 48.390625 20.390625 44.140625 
Q 15.875 39.890625 15.1875 32.171875 
z
" id="DejaVuSans-101"/>
      <path d="M 54.890625 33.015625 
L 54.890625 0 
L 45.90625 0 
L 45.90625 32.71875 
Q 45.90625 40.484375 42.875 44.328125 
Q 39.84375 48.1875 33.796875 48.1875 
Q 26.515625 48.1875 22.3125 43.546875 
Q 18.109375 38.921875 18.109375 30.90625 
L 18.109375 0 
L 9.078125 0 
L 9.078125 54.6875 
L 18.109375 54.6875 
L 18.109375 46.1875 
Q 21.34375 51.125 25.703125 53.5625 
Q 30.078125 56 35.796875 56 
Q 45.21875 56 50.046875 50.171875 
Q 54.890625 44.34375 54.890625 33.015625 
z
" id="DejaVuSans-110"/>
      <path d="M 41.109375 46.296875 
Q 39.59375 47.171875 37.8125 47.578125 
Q 36.03125 48 33.890625 48 
Q 26.265625 48 22.1875 43.046875 
Q 18.109375 38.09375 18.109375 28.8125 
L 18.109375 0 
L 9.078125 0 
L 9.078125 54.6875 
L 18.109375 54.6875 
L 18.109375 46.1875 
Q 20.953125 51.171875 25.484375 53.578125 
Q 30.03125 56 36.53125 56 
Q 37.453125 56 38.578125 55.875 
Q 39.703125 55.765625 41.0625 55.515625 
z
" id="DejaVuSans-114"/>
      <path d="M 34.28125 27.484375 
Q 23.390625 27.484375 19.1875 25 
Q 14.984375 22.515625 14.984375 16.5 
Q 14.984375 11.71875 18.140625 8.90625 
Q 21.296875 6.109375 26.703125 6.109375 
Q 34.1875 6.109375 38.703125 11.40625 
Q 43.21875 16.703125 43.21875 25.484375 
L 43.21875 27.484375 
z
M 52.203125 31.203125 
L 52.203125 0 
L 43.21875 0 
L 43.21875 8.296875 
Q 40.140625 3.328125 35.546875 0.953125 
Q 30.953125 -1.421875 24.3125 -1.421875 
Q 15.921875 -1.421875 10.953125 3.296875 
Q 6 8.015625 6 15.921875 
Q 6 25.140625 12.171875 29.828125 
Q 18.359375 34.515625 30.609375 34.515625 
L 43.21875 34.515625 
L 43.21875 35.40625 
Q 43.21875 41.609375 39.140625 45 
Q 35.0625 48.390625 27.6875 48.390625 
Q 23 48.390625 18.546875 47.265625 
Q 14.109375 46.140625 10.015625 43.890625 
L 10.015625 52.203125 
Q 14.9375 54.109375 19.578125 55.046875 
Q 24.21875 56 28.609375 56 
Q 40.484375 56 46.34375 49.84375 
Q 52.203125 43.703125 52.203125 31.203125 
z
" id="DejaVuSans-97"/>
      <path d="M 18.3125 70.21875 
L 18.3125 54.6875 
L 36.8125 54.6875 
L 36.8125 47.703125 
L 18.3125 47.703125 
L 18.3125 18.015625 
Q 18.3125 11.328125 20.140625 9.421875 
Q 21.96875 7.515625 27.59375 7.515625 
L 36.8125 7.515625 
L 36.8125 0 
L 27.59375 0 
Q 17.1875 0 13.234375 3.875 
Q 9.28125 7.765625 9.28125 18.015625 
L 9.28125 47.703125 
L 2.6875 47.703125 
L 2.6875 54.6875 
L 9.28125 54.6875 
L 9.28125 70.21875 
z
" id="DejaVuSans-116"/>
      <path d="M 9.421875 54.6875 
L 18.40625 54.6875 
L 18.40625 0 
L 9.421875 0 
z
M 9.421875 75.984375 
L 18.40625 75.984375 
L 18.40625 64.59375 
L 9.421875 64.59375 
z
" id="DejaVuSans-105"/>
      <path d="M 30.609375 48.390625 
Q 23.390625 48.390625 19.1875 42.75 
Q 14.984375 37.109375 14.984375 27.296875 
Q 14.984375 17.484375 19.15625 11.84375 
Q 23.34375 6.203125 30.609375 6.203125 
Q 37.796875 6.203125 41.984375 11.859375 
Q 46.1875 17.53125 46.1875 27.296875 
Q 46.1875 37.015625 41.984375 42.703125 
Q 37.796875 48.390625 30.609375 48.390625 
z
M 30.609375 56 
Q 42.328125 56 49.015625 48.375 
Q 55.71875 40.765625 55.71875 27.296875 
Q 55.71875 13.875 49.015625 6.21875 
Q 42.328125 -1.421875 30.609375 -1.421875 
Q 18.84375 -1.421875 12.171875 6.21875 
Q 5.515625 13.875 5.515625 27.296875 
Q 5.515625 40.765625 12.171875 48.375 
Q 18.84375 56 30.609375 56 
z
" id="DejaVuSans-111"/>
      <path d="M 44.28125 53.078125 
L 44.28125 44.578125 
Q 40.484375 46.53125 36.375 47.5 
Q 32.28125 48.484375 27.875 48.484375 
Q 21.1875 48.484375 17.84375 46.4375 
Q 14.5 44.390625 14.5 40.28125 
Q 14.5 37.15625 16.890625 35.375 
Q 19.28125 33.59375 26.515625 31.984375 
L 29.59375 31.296875 
Q 39.15625 29.25 43.1875 25.515625 
Q 47.21875 21.78125 47.21875 15.09375 
Q 47.21875 7.46875 41.1875 3.015625 
Q 35.15625 -1.421875 24.609375 -1.421875 
Q 20.21875 -1.421875 15.453125 -0.5625 
Q 10.6875 0.296875 5.421875 2 
L 5.421875 11.28125 
Q 10.40625 8.6875 15.234375 7.390625 
Q 20.0625 6.109375 24.8125 6.109375 
Q 31.15625 6.109375 34.5625 8.28125 
Q 37.984375 10.453125 37.984375 14.40625 
Q 37.984375 18.0625 35.515625 20.015625 
Q 33.0625 21.96875 24.703125 23.78125 
L 21.578125 24.515625 
Q 13.234375 26.265625 9.515625 29.90625 
Q 5.8125 33.546875 5.8125 39.890625 
Q 5.8125 47.609375 11.28125 51.796875 
Q 16.75 56 26.8125 56 
Q 31.78125 56 36.171875 55.265625 
Q 40.578125 54.546875 44.28125 53.078125 
z
" id="DejaVuSans-115"/>
     </defs>
     <g transform="translate(205.662344 335.860562)scale(0.1 -0.1)">
      <use xlink:href="#DejaVuSans-71"/>
      <use x="77.490234" xlink:href="#DejaVuSans-101"/>
      <use x="139.013672" xlink:href="#DejaVuSans-110"/>
      <use x="202.392578" xlink:href="#DejaVuSans-101"/>
      <use x="263.916016" xlink:href="#DejaVuSans-114"/>
      <use x="305.029297" xlink:href="#DejaVuSans-97"/>
      <use x="366.308594" xlink:href="#DejaVuSans-116"/>
      <use x="405.517578" xlink:href="#DejaVuSans-105"/>
      <use x="433.300781" xlink:href="#DejaVuSans-111"/>
      <use x="494.482422" xlink:href="#DejaVuSans-110"/>
      <use x="557.861328" xlink:href="#DejaVuSans-115"/>
     </g>
    </g>
   </g>
   <g id="matplotlib.axis_2">
    <g id="ytick_1">
     <g id="line2d_15">
      <path clip-path="url(#p47a672e994)" d="M 57.6 294.695844 
L 414.72 294.695844 
" style="fill:none;stroke:#b0b0b0;stroke-linecap:square;stroke-width:0.8;"/>
     </g>
     <g id="line2d_16">
      <defs>
       <path d="M 0 0 
L -3.5 0 
" id="mfc6b55efe8" style="stroke:#000000;stroke-width:0.8;"/>
      </defs>
      <g>
       <use style="stroke:#000000;stroke-width:0.8;" x="57.6" xlink:href="#mfc6b55efe8" y="294.695844"/>
      </g>
     </g>
     <g id="text_9">
      <!-- 500 -->
      <g transform="translate(31.5125 298.495063)scale(0.1 -0.1)">
       <use xlink:href="#DejaVuSans-53"/>
       <use x="63.623047" xlink:href="#DejaVuSans-48"/>
       <use x="127.246094" xlink:href="#DejaVuSans-48"/>
      </g>
     </g>
    </g>
    <g id="ytick_2">
     <g id="line2d_17">
      <path clip-path="url(#p47a672e994)" d="M 57.6 260.570701 
L 414.72 260.570701 
" style="fill:none;stroke:#b0b0b0;stroke-linecap:square;stroke-width:0.8;"/>
     </g>
     <g id="line2d_18">
      <g>
       <use style="stroke:#000000;stroke-width:0.8;" x="57.6" xlink:href="#mfc6b55efe8" y="260.570701"/>
      </g>
     </g>
     <g id="text_10">
      <!-- 750 -->
      <defs>
       <path d="M 8.203125 72.90625 
L 55.078125 72.90625 
L 55.078125 68.703125 
L 28.609375 0 
L 18.3125 0 
L 43.21875 64.59375 
L 8.203125 64.59375 
z
" id="DejaVuSans-55"/>
      </defs>
      <g transform="translate(31.5125 264.36992)scale(0.1 -0.1)">
       <use xlink:href="#DejaVuSans-55"/>
       <use x="63.623047" xlink:href="#DejaVuSans-53"/>
       <use x="127.246094" xlink:href="#DejaVuSans-48"/>
      </g>
     </g>
    </g>
    <g id="ytick_3">
     <g id="line2d_19">
      <path clip-path="url(#p47a672e994)" d="M 57.6 226.445558 
L 414.72 226.445558 
" style="fill:none;stroke:#b0b0b0;stroke-linecap:square;stroke-width:0.8;"/>
     </g>
     <g id="line2d_20">
      <g>
       <use style="stroke:#000000;stroke-width:0.8;" x="57.6" xlink:href="#mfc6b55efe8" y="226.445558"/>
      </g>
     </g>
     <g id="text_11">
      <!-- 1000 -->
      <g transform="translate(25.15 230.244777)scale(0.1 -0.1)">
       <use xlink:href="#DejaVuSans-49"/>
       <use x="63.623047" xlink:href="#DejaVuSans-48"/>
       <use x="127.246094" xlink:href="#DejaVuSans-48"/>
       <use x="190.869141" xlink:href="#DejaVuSans-48"/>
      </g>
     </g>
    </g>
    <g id="ytick_4">
     <g id="line2d_21">
      <path clip-path="url(#p47a672e994)" d="M 57.6 192.320415 
L 414.72 192.320415 
" style="fill:none;stroke:#b0b0b0;stroke-linecap:square;stroke-width:0.8;"/>
     </g>
     <g id="line2d_22">
      <g>
       <use style="stroke:#000000;stroke-width:0.8;" x="57.6" xlink:href="#mfc6b55efe8" y="192.320415"/>
      </g>
     </g>
     <g id="text_12">
      <!-- 1250 -->
      <g transform="translate(25.15 196.119634)scale(0.1 -0.1)">
       <use xlink:href="#DejaVuSans-49"/>
       <use x="63.623047" xlink:href="#DejaVuSans-50"/>
       <use x="127.246094" xlink:href="#DejaVuSans-53"/>
       <use x="190.869141" xlink:href="#DejaVuSans-48"/>
      </g>
     </g>
    </g>
    <g id="ytick_5">
     <g id="line2d_23">
      <path clip-path="url(#p47a672e994)" d="M 57.6 158.195272 
L 414.72 158.195272 
" style="fill:none;stroke:#b0b0b0;stroke-linecap:square;stroke-width:0.8;"/>
     </g>
     <g id="line2d_24">
      <g>
       <use style="stroke:#000000;stroke-width:0.8;" x="57.6" xlink:href="#mfc6b55efe8" y="158.195272"/>
      </g>
     </g>
     <g id="text_13">
      <!-- 1500 -->
      <g transform="translate(25.15 161.994491)scale(0.1 -0.1)">
       <use xlink:href="#DejaVuSans-49"/>
       <use x="63.623047" xlink:href="#DejaVuSans-53"/>
       <use x="127.246094" xlink:href="#DejaVuSans-48"/>
       <use x="190.869141" xlink:href="#DejaVuSans-48"/>
      </g>
     </g>
    </g>
    <g id="ytick_6">
     <g id="line2d_25">
      <path clip-path="url(#p47a672e994)" d="M 57.6 124.070129 
L 414.72 124.070129 
" style="fill:none;stroke:#b0b0b0;stroke-linecap:square;stroke-width:0.8;"/>
     </g>
     <g id="line2d_26">
      <g>
       <use style="stroke:#000000;stroke-width:0.8;" x="57.6" xlink:href="#mfc6b55efe8" y="124.070129"/>
      </g>
     </g>
     <g id="text_14">
      <!-- 1750 -->
      <g transform="translate(25.15 127.869348)scale(0.1 -0.1)">
       <use xlink:href="#DejaVuSans-49"/>
       <use x="63.623047" xlink:href="#DejaVuSans-55"/>
       <use x="127.246094" xlink:href="#DejaVuSans-53"/>
       <use x="190.869141" xlink:href="#DejaVuSans-48"/>
      </g>
     </g>
    </g>
    <g id="ytick_7">
     <g id="line2d_27">
      <path clip-path="url(#p47a672e994)" d="M 57.6 89.944987 
L 414.72 89.944987 
" style="fill:none;stroke:#b0b0b0;stroke-linecap:square;stroke-width:0.8;"/>
     </g>
     <g id="line2d_28">
      <g>
       <use style="stroke:#000000;stroke-width:0.8;" x="57.6" xlink:href="#mfc6b55efe8" y="89.944987"/>
      </g>
     </g>
     <g id="text_15">
      <!-- 2000 -->
      <g transform="translate(25.15 93.744205)scale(0.1 -0.1)">
       <use xlink:href="#DejaVuSans-50"/>
       <use x="63.623047" xlink:href="#DejaVuSans-48"/>
       <use x="127.246094" xlink:href="#DejaVuSans-48"/>
       <use x="190.869141" xlink:href="#DejaVuSans-48"/>
      </g>
     </g>
    </g>
    <g id="ytick_8">
     <g id="line2d_29">
      <path clip-path="url(#p47a672e994)" d="M 57.6 55.819844 
L 414.72 55.819844 
" style="fill:none;stroke:#b0b0b0;stroke-linecap:square;stroke-width:0.8;"/>
     </g>
     <g id="line2d_30">
      <g>
       <use style="stroke:#000000;stroke-width:0.8;" x="57.6" xlink:href="#mfc6b55efe8" y="55.819844"/>
      </g>
     </g>
     <g id="text_16">
      <!-- 2250 -->
      <g transform="translate(25.15 59.619062)scale(0.1 -0.1)">
       <use xlink:href="#DejaVuSans-50"/>
       <use x="63.623047" xlink:href="#DejaVuSans-50"/>
       <use x="127.246094" xlink:href="#DejaVuSans-53"/>
       <use x="190.869141" xlink:href="#DejaVuSans-48"/>
      </g>
     </g>
    </g>
    <g id="text_17">
     <!-- Fitness -->
     <defs>
      <path d="M 9.8125 72.90625 
L 51.703125 72.90625 
L 51.703125 64.59375 
L 19.671875 64.59375 
L 19.671875 43.109375 
L 48.578125 43.109375 
L 48.578125 34.8125 
L 19.671875 34.8125 
L 19.671875 0 
L 9.8125 0 
z
" id="DejaVuSans-70"/>
     </defs>
     <g transform="translate(19.070312 192.202219)rotate(-90)scale(0.1 -0.1)">
      <use xlink:href="#DejaVuSans-70"/>
      <use x="57.410156" xlink:href="#DejaVuSans-105"/>
      <use x="85.193359" xlink:href="#DejaVuSans-116"/>
      <use x="124.402344" xlink:href="#DejaVuSans-110"/>
      <use x="187.78125" xlink:href="#DejaVuSans-101"/>
      <use x="249.304688" xlink:href="#DejaVuSans-115"/>
      <use x="301.404297" xlink:href="#DejaVuSans-115"/>
     </g>
    </g>
   </g>
   <g id="line2d_31">
    <path clip-path="url(#p47a672e994)" d="M 73.832727 253.587499 
L 74.918528 212.058533 
L 76.00433 191.383625 
L 77.090131 191.448404 
L 78.175932 183.923334 
L 79.261733 200.06882 
L 80.347534 205.187874 
L 81.433335 188.12435 
L 82.519137 190.733787 
L 83.604938 190.399165 
L 84.690739 185.694821 
L 85.77654 160.314282 
L 86.862341 193.012896 
L 87.948142 209.694736 
L 89.033943 177.577167 
L 90.119745 190.931959 
L 91.205546 167.785624 
L 92.291347 171.743086 
L 93.377148 186.927162 
L 94.462949 170.233071 
L 95.54875 163.855182 
L 96.634552 172.296957 
L 97.720353 184.474877 
L 98.806154 175.424016 
L 99.891955 169.976382 
L 100.977756 150.035953 
L 102.063557 172.140954 
L 103.149358 163.687731 
L 104.23516 161.393033 
L 105.320961 157.377214 
L 106.406762 168.311738 
L 107.492563 167.55402 
L 108.578364 158.471934 
L 109.664165 145.875748 
L 110.749967 146.620263 
L 111.835768 161.467985 
L 112.921569 152.382234 
L 114.00737 139.868193 
L 115.093171 151.033472 
L 116.178972 158.733143 
L 117.264773 163.107482 
L 118.350575 155.888725 
L 119.436376 145.177681 
L 120.522177 164.470333 
L 121.607978 143.453789 
L 122.693779 140.123464 
L 123.77958 125.67455 
L 124.865382 121.690439 
L 125.951183 130.426386 
L 127.036984 119.724786 
L 128.122785 138.995697 
L 129.208586 123.898234 
L 130.294387 130.076392 
L 131.380189 127.924912 
L 132.46599 130.444482 
L 133.551791 141.355383 
L 134.637592 119.869006 
L 135.723393 118.868215 
L 136.809194 115.190333 
L 137.894995 140.631703 
L 138.980797 130.662764 
L 140.066598 148.620711 
L 141.152399 123.40159 
L 142.2382 132.707244 
L 143.324001 133.76377 
L 145.495604 121.550129 
L 146.581405 137.023281 
L 147.667206 138.764406 
L 148.753007 127.61977 
L 149.838808 131.400152 
L 150.924609 129.780879 
L 152.01041 130.617459 
L 153.096212 130.960612 
L 154.182013 113.481245 
L 155.267814 119.282455 
L 156.353615 111.052095 
L 157.439416 137.271882 
L 158.525217 126.585117 
L 159.611019 125.64113 
L 160.69682 135.005511 
L 161.782621 130.339036 
L 162.868422 133.480309 
L 163.954223 130.109503 
L 165.040024 134.007391 
L 166.125825 132.130229 
L 167.211627 131.561788 
L 168.297428 127.415438 
L 169.383229 133.003813 
L 170.46903 127.355805 
L 171.554831 134.2981 
L 172.640632 134.902747 
L 173.726434 124.524963 
L 174.812235 125.647831 
L 175.898036 125.527376 
L 176.983837 120.201069 
L 178.069638 122.838105 
L 179.155439 125.956399 
L 180.24124 121.343298 
L 181.327042 146.090022 
L 182.412843 134.897428 
L 183.498644 131.560446 
L 185.670246 139.912002 
L 186.756047 120.92683 
L 187.841849 135.676375 
L 188.92765 136.449505 
L 190.013451 122.558902 
L 191.099252 122.852055 
L 192.185053 127.934536 
L 193.270854 135.012956 
L 194.356656 120.898309 
L 195.442457 132.076082 
L 196.528258 129.710272 
L 197.614059 126.578536 
L 198.69986 139.813773 
L 199.785661 130.693791 
L 200.871462 131.078967 
L 201.957264 119.489915 
L 203.043065 135.391152 
L 204.128866 126.228216 
L 205.214667 135.093786 
L 206.300468 133.060072 
L 207.386269 128.97266 
L 208.472071 111.619201 
L 209.557872 106.203099 
L 210.643673 120.743006 
L 211.729474 108.60239 
L 212.815275 130.870214 
L 213.901076 124.742323 
L 214.986877 121.415104 
L 216.072679 129.913599 
L 217.15848 115.283325 
L 218.244281 103.724259 
L 219.330082 106.163209 
L 220.415883 116.562388 
L 221.501684 106.445233 
L 222.587486 113.908137 
L 223.673287 113.18669 
L 224.759088 115.460804 
L 225.844889 109.806069 
L 226.93069 107.388877 
L 228.016491 117.544126 
L 229.102292 110.197375 
L 230.188094 114.92512 
L 231.273895 104.89242 
L 232.359696 112.564683 
L 233.445497 131.360308 
L 234.531298 119.173229 
L 235.617099 126.940881 
L 236.702901 111.93857 
L 237.788702 102.398786 
L 238.874503 113.420865 
L 239.960304 115.675195 
L 241.046105 115.494886 
L 242.131906 126.991467 
L 243.217708 114.759625 
L 244.303509 117.223408 
L 245.38931 99.599105 
L 246.475111 124.470839 
L 247.560912 116.639234 
L 248.646713 104.444464 
L 249.732514 96.280853 
L 250.818316 112.988868 
L 251.904117 118.285448 
L 252.989918 107.869625 
L 254.075719 110.280774 
L 255.16152 108.749349 
L 256.247321 108.344606 
L 257.333123 126.543301 
L 258.418924 126.215384 
L 259.504725 127.918768 
L 260.590526 109.088638 
L 261.676327 110.648381 
L 262.762128 107.157019 
L 263.847929 110.356692 
L 264.933731 106.631683 
L 266.019532 110.530369 
L 267.105333 105.153128 
L 268.191134 105.50716 
L 269.276935 111.379575 
L 270.362736 95.300199 
L 271.448538 104.961263 
L 272.534339 111.046027 
L 273.62014 116.438035 
L 274.705941 112.272121 
L 275.791742 110.071045 
L 276.877543 105.629686 
L 277.963344 119.369338 
L 279.049146 122.648126 
L 280.134947 116.329496 
L 281.220748 116.320109 
L 282.306549 114.736389 
L 283.39235 104.069192 
L 284.478151 106.644588 
L 285.563953 109.883373 
L 286.649754 107.692298 
L 287.735555 106.389398 
L 288.821356 113.623809 
L 289.907157 114.537819 
L 290.992958 100.093927 
L 292.07876 111.624271 
L 293.164561 105.770424 
L 294.250362 108.089766 
L 295.336163 110.992305 
L 296.421964 104.652665 
L 297.507765 109.652441 
L 298.593566 120.152763 
L 300.765169 118.20825 
L 301.85097 120.721677 
L 302.936771 104.256818 
L 304.022572 109.753262 
L 305.108373 109.002867 
L 306.194175 106.057258 
L 307.279976 102.751284 
L 308.365777 100.627975 
L 309.451578 103.465149 
L 310.537379 121.737137 
L 311.62318 115.190157 
L 312.708981 122.903276 
L 314.880584 97.427362 
L 315.966385 111.771726 
L 317.052186 112.162077 
L 318.137987 117.954008 
L 319.223788 112.30163 
L 320.30959 98.115471 
L 321.395391 105.054718 
L 322.481192 109.136869 
L 323.566993 121.985606 
L 324.652794 122.961834 
L 325.738595 131.744625 
L 326.824396 99.466483 
L 328.995999 127.332315 
L 330.0818 120.943982 
L 331.167601 126.135664 
L 332.253402 123.49336 
L 333.339203 106.346516 
L 334.425005 114.70971 
L 335.510806 115.880107 
L 336.596607 121.476518 
L 337.682408 115.581835 
L 338.768209 119.613658 
L 339.85401 110.579994 
L 340.939811 131.151449 
L 342.025613 143.964975 
L 343.111414 138.517388 
L 344.197215 124.153063 
L 345.283016 112.916173 
L 346.368817 122.506765 
L 347.454618 114.613956 
L 348.54042 124.998937 
L 350.712022 129.223964 
L 351.797823 123.348038 
L 352.883624 133.926758 
L 353.969425 124.984825 
L 355.055227 127.91502 
L 356.141028 158.431411 
L 357.226829 133.916896 
L 358.31263 126.843263 
L 359.398431 138.426531 
L 360.484232 125.123669 
L 361.570033 126.877833 
L 362.655835 160.618827 
L 363.741636 144.999524 
L 364.827437 136.423689 
L 365.913238 160.230216 
L 366.999039 148.996474 
L 368.08484 153.20914 
L 370.256443 120.833288 
L 371.342244 138.723418 
L 372.428045 122.911766 
L 373.513846 143.228626 
L 374.599647 137.016344 
L 375.685448 125.473531 
L 376.77125 133.158461 
L 377.857051 146.250921 
L 378.942852 133.065938 
L 380.028653 127.981344 
L 381.114454 132.329388 
L 382.200255 135.585606 
L 383.286057 131.725032 
L 384.371858 117.47082 
L 385.457659 118.329417 
L 386.54346 141.839837 
L 387.629261 114.256643 
L 388.715062 130.978131 
L 389.800863 150.362646 
L 390.886665 145.960894 
L 391.972466 140.681157 
L 393.058267 128.740543 
L 394.144068 130.513056 
L 395.229869 137.935822 
L 396.31567 129.491457 
L 397.401472 143.478286 
L 398.487273 127.677525 
L 398.487273 127.677525 
" style="fill:none;stroke:#0000ff;stroke-linecap:square;stroke-width:1.5;"/>
   </g>
   <g id="line2d_32">
    <path clip-path="url(#p47a672e994)" d="M 73.832727 295.488 
L 74.918528 249.291376 
L 76.00433 209.592318 
L 77.090131 220.95171 
L 78.175932 223.239022 
L 80.347534 258.316009 
L 81.433335 240.718718 
L 82.519137 237.217349 
L 83.604938 237.302187 
L 84.690739 234.065549 
L 85.77654 193.853205 
L 86.862341 239.058242 
L 87.948142 250.313995 
L 89.033943 225.476552 
L 90.119745 236.601422 
L 91.205546 220.713723 
L 92.291347 213.809564 
L 93.377148 243.301189 
L 94.462949 213.36742 
L 95.54875 194.598238 
L 96.634552 228.828948 
L 97.720353 248.186791 
L 98.806154 231.081094 
L 99.891955 227.813709 
L 100.977756 196.557355 
L 102.063557 244.273781 
L 103.149358 223.427356 
L 104.23516 223.201441 
L 105.320961 215.903597 
L 106.406762 232.141005 
L 107.492563 242.740834 
L 108.578364 224.355526 
L 109.664165 211.756844 
L 110.749967 203.672665 
L 111.835768 219.884767 
L 112.921569 206.77663 
L 114.00737 177.255585 
L 115.093171 197.967452 
L 116.178972 211.299855 
L 117.264773 231.229896 
L 118.350575 210.405729 
L 119.436376 180.438267 
L 120.522177 217.240713 
L 121.607978 183.78779 
L 122.693779 180.770738 
L 123.77958 156.316698 
L 124.865382 161.780305 
L 125.951183 175.698287 
L 127.036984 151.86196 
L 128.122785 176.775695 
L 129.208586 147.551818 
L 130.294387 164.36179 
L 131.380189 144.932608 
L 132.46599 147.760595 
L 133.551791 189.176948 
L 134.637592 152.383646 
L 135.723393 157.85396 
L 136.809194 134.355665 
L 137.894995 184.191434 
L 138.980797 167.440433 
L 140.066598 214.661384 
L 141.152399 166.38955 
L 142.2382 178.671571 
L 143.324001 181.594691 
L 144.409802 165.054189 
L 145.495604 143.224546 
L 146.581405 185.852464 
L 147.667206 184.58232 
L 148.753007 160.008166 
L 149.838808 172.092218 
L 150.924609 161.319749 
L 152.01041 167.915883 
L 153.096212 176.433168 
L 154.182013 132.659831 
L 155.267814 158.511566 
L 156.353615 142.988464 
L 157.439416 181.100409 
L 159.611019 154.721486 
L 160.69682 179.681854 
L 161.782621 184.082724 
L 162.868422 177.043072 
L 163.954223 175.785388 
L 165.040024 147.592533 
L 166.125825 168.801367 
L 167.211627 174.266971 
L 168.297428 160.15376 
L 169.383229 164.967474 
L 170.46903 159.109019 
L 171.554831 188.852285 
L 172.640632 180.696715 
L 173.726434 158.884053 
L 174.812235 140.277036 
L 175.898036 165.788982 
L 176.983837 150.971966 
L 178.069638 160.376928 
L 179.155439 159.119762 
L 180.24124 140.365069 
L 181.327042 196.728835 
L 182.412843 178.000158 
L 183.498644 166.288043 
L 184.584445 182.375172 
L 185.670246 189.551087 
L 186.756047 153.414475 
L 187.841849 188.96909 
L 188.92765 187.871546 
L 190.013451 140.825972 
L 192.185053 165.119139 
L 193.270854 152.9838 
L 194.356656 149.541797 
L 195.442457 173.392574 
L 196.528258 182.826923 
L 197.614059 171.633418 
L 198.69986 191.425576 
L 199.785661 148.020615 
L 200.871462 183.208313 
L 201.957264 146.361154 
L 203.043065 178.436858 
L 204.128866 177.008523 
L 205.214667 162.785238 
L 206.300468 170.774091 
L 207.386269 149.974195 
L 208.472071 142.995726 
L 209.557872 126.463731 
L 210.643673 149.968241 
L 211.729474 124.073987 
L 212.815275 161.805226 
L 213.901076 164.102112 
L 214.986877 151.634795 
L 216.072679 175.590697 
L 217.15848 129.933458 
L 218.244281 123.814956 
L 219.330082 119.84042 
L 220.415883 165.321835 
L 221.501684 139.502609 
L 222.587486 149.928523 
L 223.673287 147.174524 
L 224.759088 172.621111 
L 225.844889 143.712844 
L 226.93069 152.810658 
L 228.016491 159.974879 
L 229.102292 161.679318 
L 230.188094 166.114971 
L 231.273895 131.372388 
L 232.359696 155.095059 
L 233.445497 191.729321 
L 234.531298 173.576439 
L 235.617099 158.083266 
L 236.702901 162.122735 
L 237.788702 134.495217 
L 238.874503 156.728813 
L 239.960304 145.874416 
L 241.046105 163.287511 
L 242.131906 175.362228 
L 243.217708 157.18957 
L 244.303509 167.44317 
L 245.38931 133.467469 
L 246.475111 142.512729 
L 247.560912 147.289244 
L 248.646713 123.603159 
L 249.732514 130.802569 
L 250.818316 146.409367 
L 251.904117 159.063742 
L 252.989918 128.447579 
L 254.075719 148.86651 
L 255.16152 153.137649 
L 256.247321 159.850092 
L 257.333123 173.339959 
L 258.418924 173.83874 
L 259.504725 175.210554 
L 260.590526 158.647872 
L 261.676327 164.971559 
L 262.762128 132.599485 
L 263.847929 132.721959 
L 264.933731 141.960852 
L 266.019532 146.130028 
L 267.105333 122.417939 
L 268.191134 141.111553 
L 269.276935 169.19115 
L 270.362736 115.494988 
L 271.448538 128.392898 
L 272.534339 142.73697 
L 273.62014 150.718095 
L 274.705941 138.583718 
L 275.791742 147.300518 
L 276.877543 138.342387 
L 277.963344 168.032055 
L 279.049146 162.053022 
L 280.134947 163.53723 
L 281.220748 149.724983 
L 282.306549 143.196536 
L 283.39235 134.331587 
L 284.478151 126.441139 
L 285.563953 131.714745 
L 286.649754 150.905892 
L 287.735555 123.722642 
L 288.821356 144.699974 
L 289.907157 157.532791 
L 290.992958 135.098936 
L 292.07876 145.308265 
L 293.164561 135.220069 
L 294.250362 143.868467 
L 295.336163 127.756095 
L 296.421964 127.168418 
L 297.507765 130.490418 
L 298.593566 144.752577 
L 299.679368 161.697665 
L 300.765169 153.555196 
L 301.85097 153.718477 
L 302.936771 134.688397 
L 304.022572 145.093669 
L 305.108373 143.803619 
L 306.194175 133.55879 
L 307.279976 125.342289 
L 308.365777 124.93111 
L 309.451578 126.777968 
L 310.537379 145.01839 
L 311.62318 153.27425 
L 312.708981 159.101285 
L 313.794783 143.970247 
L 314.880584 120.535869 
L 315.966385 147.6684 
L 317.052186 150.666128 
L 318.137987 157.578354 
L 319.223788 154.10376 
L 320.30959 122.677716 
L 321.395391 148.530092 
L 322.481192 149.147792 
L 323.566993 146.027889 
L 324.652794 144.676884 
L 325.738595 160.425471 
L 326.824396 119.287683 
L 327.910198 136.819951 
L 328.995999 149.882573 
L 330.0818 154.131546 
L 331.167601 157.453322 
L 332.253402 170.645273 
L 333.339203 134.308595 
L 334.425005 159.151919 
L 335.510806 149.062688 
L 336.596607 159.772231 
L 337.682408 164.290127 
L 338.768209 161.229208 
L 339.85401 153.902075 
L 340.939811 198.08344 
L 342.025613 212.127223 
L 343.111414 198.786024 
L 344.197215 181.540512 
L 345.283016 168.937022 
L 346.368817 184.511264 
L 347.454618 171.812446 
L 348.54042 186.06115 
L 349.626221 191.706986 
L 350.712022 166.472813 
L 351.797823 168.880144 
L 352.883624 204.169312 
L 353.969425 188.623398 
L 355.055227 198.438189 
L 356.141028 214.66117 
L 357.226829 183.531591 
L 358.31263 178.483055 
L 359.398431 186.505782 
L 360.484232 174.86121 
L 361.570033 165.144725 
L 362.655835 206.664615 
L 363.741636 203.240447 
L 364.827437 185.628822 
L 365.913238 216.064114 
L 366.999039 215.974712 
L 368.08484 219.571222 
L 369.170642 194.087471 
L 370.256443 160.10519 
L 371.342244 185.732277 
L 372.428045 158.456685 
L 373.513846 220.674819 
L 374.599647 205.754742 
L 375.685448 179.70023 
L 376.77125 191.545621 
L 377.857051 206.495918 
L 378.942852 197.887091 
L 380.028653 167.911476 
L 381.114454 190.931571 
L 382.200255 198.045467 
L 383.286057 192.678235 
L 384.371858 176.903428 
L 385.457659 168.376789 
L 386.54346 190.81872 
L 387.629261 149.164746 
L 388.715062 194.80006 
L 389.800863 188.002909 
L 390.886665 203.738368 
L 391.972466 208.160761 
L 394.144068 178.124019 
L 395.229869 198.305302 
L 396.31567 161.026281 
L 397.401472 198.367856 
L 398.487273 165.92857 
L 398.487273 165.92857 
" style="fill:none;stroke:#008000;stroke-dasharray:9.6,2.4,1.5,2.4;stroke-dashoffset:0;stroke-width:1.5;"/>
   </g>
   <g id="line2d_33">
    <path clip-path="url(#p47a672e994)" d="M 73.832727 211.686998 
L 74.918528 174.82569 
L 76.00433 173.174932 
L 77.090131 161.945097 
L 78.175932 144.607646 
L 79.261733 158.901295 
L 80.347534 152.05974 
L 81.433335 135.529983 
L 82.519137 144.250225 
L 83.604938 143.496144 
L 84.690739 137.324094 
L 85.77654 126.77536 
L 87.948142 169.075476 
L 89.033943 129.677781 
L 90.119745 145.262496 
L 91.205546 114.857525 
L 92.291347 129.676608 
L 93.377148 130.553135 
L 94.462949 127.098721 
L 95.54875 133.112125 
L 96.634552 115.764967 
L 97.720353 120.762963 
L 98.806154 119.766939 
L 99.891955 112.139054 
L 100.977756 103.514552 
L 102.063557 100.008127 
L 103.149358 103.948106 
L 104.23516 99.584626 
L 105.320961 98.850832 
L 106.406762 104.48247 
L 107.492563 92.367207 
L 108.578364 92.588341 
L 109.664165 79.994652 
L 110.749967 89.567861 
L 111.835768 103.051203 
L 112.921569 97.987839 
L 114.00737 102.4808 
L 115.093171 104.099492 
L 116.178972 106.166432 
L 117.264773 94.985069 
L 118.350575 101.371721 
L 119.436376 109.917096 
L 120.522177 111.699954 
L 121.607978 103.119788 
L 122.693779 99.476189 
L 123.77958 95.032403 
L 124.865382 81.600574 
L 125.951183 85.154484 
L 127.036984 87.587613 
L 128.122785 101.215699 
L 129.208586 100.244649 
L 130.294387 95.790995 
L 131.380189 110.917216 
L 132.46599 113.128368 
L 133.551791 93.533817 
L 134.637592 87.354365 
L 135.723393 79.882471 
L 136.809194 96.025001 
L 137.894995 97.071972 
L 138.980797 93.885095 
L 140.066598 82.580038 
L 141.152399 80.413631 
L 142.2382 86.742918 
L 143.324001 85.932849 
L 144.409802 90.611413 
L 145.495604 99.875712 
L 146.581405 88.194097 
L 147.667206 92.946492 
L 148.753007 95.231375 
L 149.838808 90.708086 
L 150.924609 98.242009 
L 152.01041 93.319036 
L 153.096212 85.488055 
L 154.182013 94.30266 
L 155.267814 80.053344 
L 156.353615 79.115725 
L 157.439416 93.443355 
L 158.525217 85.880076 
L 159.611019 96.560775 
L 160.69682 90.329168 
L 161.782621 76.595348 
L 162.868422 89.917547 
L 163.954223 84.433617 
L 165.040024 120.42225 
L 166.125825 95.459092 
L 167.211627 88.856606 
L 169.383229 101.040152 
L 170.46903 95.602592 
L 171.554831 79.743914 
L 172.640632 89.108779 
L 173.726434 90.165873 
L 174.812235 111.018626 
L 175.898036 85.265771 
L 176.983837 89.430173 
L 178.069638 85.299282 
L 179.155439 92.793035 
L 180.24124 102.321526 
L 181.327042 95.451209 
L 182.412843 91.794699 
L 183.498644 96.832848 
L 184.584445 89.416998 
L 185.670246 90.272917 
L 186.756047 88.439184 
L 187.841849 82.383661 
L 188.92765 85.027464 
L 190.013451 104.291832 
L 191.099252 92.602598 
L 192.185053 90.749933 
L 193.270854 117.042112 
L 194.356656 92.254821 
L 195.442457 90.75959 
L 196.528258 76.593621 
L 197.614059 81.523653 
L 198.69986 88.20197 
L 199.785661 113.366967 
L 200.871462 78.949622 
L 201.957264 92.618675 
L 203.043065 92.345447 
L 204.128866 75.447908 
L 205.214667 107.402334 
L 206.300468 95.346052 
L 207.386269 107.971126 
L 208.472071 80.242675 
L 210.643673 91.517772 
L 211.729474 93.130793 
L 212.815275 99.935202 
L 213.901076 85.382534 
L 214.986877 91.195414 
L 216.072679 84.236501 
L 217.15848 100.633192 
L 218.244281 83.633561 
L 219.330082 92.485998 
L 220.415883 67.802942 
L 221.501684 73.387857 
L 222.587486 77.88775 
L 223.673287 79.198856 
L 224.759088 58.300497 
L 225.844889 75.899295 
L 226.93069 61.967095 
L 228.016491 75.113373 
L 229.102292 58.715433 
L 230.188094 63.735269 
L 231.273895 78.412451 
L 232.359696 70.034307 
L 233.445497 70.991294 
L 234.531298 64.77002 
L 235.617099 95.798496 
L 236.702901 61.754405 
L 237.788702 70.302356 
L 238.874503 70.112918 
L 239.960304 85.475974 
L 241.046105 67.702261 
L 242.131906 78.620707 
L 243.217708 72.32968 
L 244.303509 67.003645 
L 245.38931 65.73074 
L 246.475111 106.42895 
L 247.560912 85.989224 
L 248.646713 85.285768 
L 249.732514 61.759137 
L 250.818316 79.568369 
L 251.904117 77.507154 
L 252.989918 87.291671 
L 254.075719 71.695038 
L 256.247321 56.839121 
L 257.333123 79.746643 
L 258.418924 78.592028 
L 259.504725 80.626982 
L 260.590526 59.529404 
L 261.676327 56.325203 
L 262.762128 81.714553 
L 263.847929 87.991425 
L 264.933731 71.302514 
L 266.019532 74.93071 
L 267.105333 87.888317 
L 269.276935 53.568 
L 270.362736 75.105409 
L 271.448538 81.529628 
L 272.534339 79.355083 
L 273.62014 82.157975 
L 274.705941 85.960524 
L 275.791742 72.841573 
L 276.877543 72.916985 
L 277.963344 70.706621 
L 279.049146 83.24323 
L 280.134947 69.121763 
L 281.220748 82.915235 
L 282.306549 86.276241 
L 283.39235 73.806798 
L 284.478151 86.848037 
L 285.563953 88.052001 
L 286.649754 64.478703 
L 287.735555 89.056155 
L 288.821356 82.547645 
L 289.907157 71.542846 
L 290.992958 65.088918 
L 292.07876 77.940277 
L 293.164561 76.320778 
L 294.250362 72.311065 
L 295.336163 94.228516 
L 296.421964 82.136911 
L 298.593566 95.552948 
L 299.679368 76.609559 
L 300.765169 82.861305 
L 301.85097 87.724878 
L 302.936771 73.82524 
L 304.022572 74.412855 
L 305.108373 74.202116 
L 306.194175 78.555726 
L 307.279976 80.160279 
L 308.365777 76.324839 
L 309.451578 80.15233 
L 310.537379 98.455883 
L 311.62318 77.106064 
L 312.708981 86.705267 
L 313.794783 77.380884 
L 314.880584 74.318855 
L 315.966385 75.875051 
L 317.052186 73.658026 
L 318.137987 78.329662 
L 319.223788 70.4995 
L 320.30959 73.553225 
L 321.395391 61.579343 
L 322.481192 69.125947 
L 323.566993 97.943324 
L 324.652794 101.246785 
L 325.738595 103.063779 
L 326.824396 79.645284 
L 327.910198 89.769431 
L 328.995999 104.782058 
L 330.0818 87.756417 
L 331.167601 94.818005 
L 332.253402 76.341448 
L 333.339203 78.384437 
L 334.425005 70.2675 
L 335.510806 82.697525 
L 336.596607 83.180805 
L 337.682408 66.873543 
L 338.768209 77.998107 
L 339.85401 67.257913 
L 340.939811 64.219457 
L 342.025613 75.802726 
L 343.111414 78.248751 
L 344.197215 66.765613 
L 345.283016 56.895324 
L 346.368817 60.502265 
L 347.454618 57.415466 
L 348.54042 63.936724 
L 349.626221 62.349556 
L 350.712022 91.975115 
L 352.883624 63.684203 
L 353.969425 61.346252 
L 355.055227 57.39185 
L 356.141028 102.201652 
L 357.226829 84.302201 
L 358.31263 75.203471 
L 359.398431 90.347281 
L 360.484232 75.386128 
L 361.570033 88.61094 
L 362.655835 114.573038 
L 363.741636 86.758601 
L 364.827437 87.218557 
L 365.913238 104.396318 
L 366.999039 82.018236 
L 368.08484 86.847058 
L 369.170642 80.360431 
L 370.256443 81.561386 
L 371.342244 91.714559 
L 372.428045 87.366848 
L 373.513846 65.782434 
L 374.599647 68.277946 
L 375.685448 71.246832 
L 376.77125 74.7713 
L 377.857051 86.005925 
L 378.942852 68.244785 
L 380.028653 88.051211 
L 381.114454 73.727205 
L 382.200255 73.125746 
L 383.286057 70.771829 
L 384.371858 58.038213 
L 385.457659 68.282046 
L 386.54346 92.860954 
L 388.715062 67.156202 
L 389.800863 112.722383 
L 390.886665 88.183421 
L 391.972466 73.201553 
L 393.058267 64.973364 
L 394.144068 82.902093 
L 395.229869 77.566342 
L 396.31567 97.956634 
L 397.401472 88.588716 
L 398.487273 89.42648 
L 398.487273 89.42648 
" style="fill:none;stroke:#008000;stroke-dasharray:9.6,2.4,1.5,2.4;stroke-dashoffset:0;stroke-width:1.5;"/>
   </g>
   <g id="line2d_34">
    <path clip-path="url(#p47a672e994)" d="M 73.832727 189.340849 
L 74.918528 179.829747 
L 76.00433 164.558896 
L 77.090131 163.647891 
L 78.175932 154.471984 
L 79.261733 158.840954 
L 81.433335 140.409915 
L 82.519137 150.527974 
L 83.604938 155.017633 
L 84.690739 148.626414 
L 85.77654 130.000119 
L 86.862341 152.468599 
L 87.948142 158.29314 
L 89.033943 129.36336 
L 90.119745 157.155039 
L 91.205546 130.967652 
L 92.291347 149.234666 
L 94.462949 141.462487 
L 95.54875 145.193475 
L 96.634552 138.82592 
L 98.806154 131.209079 
L 99.891955 126.867612 
L 100.977756 118.874321 
L 102.063557 105.881759 
L 103.149358 122.844185 
L 104.23516 117.223857 
L 105.320961 109.647356 
L 106.406762 119.784785 
L 107.492563 113.42884 
L 108.578364 109.348226 
L 109.664165 96.690375 
L 110.749967 108.703233 
L 111.835768 117.690006 
L 114.00737 107.287329 
L 115.093171 110.148723 
L 116.178972 98.39601 
L 117.264773 104.689362 
L 118.350575 108.96366 
L 119.436376 108.470818 
L 120.522177 107.827802 
L 121.607978 111.941743 
L 122.693779 108.178912 
L 123.77958 103.74569 
L 124.865382 98.43124 
L 125.951183 101.616177 
L 127.036984 95.004393 
L 128.122785 108.084167 
L 130.294387 103.766333 
L 131.380189 114.827529 
L 132.46599 110.52008 
L 134.637592 98.67953 
L 135.723393 95.098183 
L 136.809194 98.955395 
L 137.894995 99.39775 
L 138.980797 104.980545 
L 140.066598 102.213901 
L 141.152399 91.718457 
L 142.2382 107.526629 
L 143.324001 101.146009 
L 144.409802 101.188588 
L 145.495604 100.634325 
L 146.581405 98.710567 
L 147.667206 105.163205 
L 148.753007 103.245127 
L 149.838808 98.529704 
L 150.924609 103.593855 
L 152.01041 102.048272 
L 153.096212 96.977307 
L 154.182013 94.910089 
L 155.267814 95.502624 
L 156.353615 90.374162 
L 157.439416 102.345956 
L 158.525217 98.609862 
L 159.611019 101.858697 
L 160.69682 100.916884 
L 161.782621 97.417821 
L 162.868422 99.278434 
L 163.954223 101.883093 
L 165.040024 118.881524 
L 166.125825 103.560032 
L 167.211627 100.371415 
L 168.297428 104.372575 
L 169.383229 108.964649 
L 170.46903 97.936514 
L 171.554831 97.693114 
L 173.726434 98.966126 
L 174.812235 108.256797 
L 175.898036 99.429505 
L 176.983837 96.697537 
L 178.069638 92.471326 
L 179.155439 100.886315 
L 180.24124 98.878069 
L 181.327042 106.255995 
L 182.412843 106.903508 
L 183.498644 105.647109 
L 185.670246 101.303802 
L 186.756047 99.906568 
L 187.841849 98.137333 
L 188.92765 92.080954 
L 190.013451 104.19686 
L 191.099252 102.019448 
L 192.185053 94.768573 
L 193.270854 116.214774 
L 194.356656 98.542023 
L 195.442457 100.538236 
L 196.528258 93.151059 
L 197.614059 100.643816 
L 198.69986 105.787293 
L 199.785661 107.346684 
L 200.871462 97.881932 
L 201.957264 94.467815 
L 203.043065 107.293793 
L 204.128866 92.63511 
L 205.214667 115.56649 
L 206.300468 107.137301 
L 207.386269 108.76153 
L 208.472071 90.559623 
L 209.557872 87.54626 
L 210.643673 100.691473 
L 211.729474 89.728609 
L 212.815275 97.651352 
L 213.901076 92.050657 
L 214.986877 90.903178 
L 216.072679 100.2934 
L 217.15848 93.619983 
L 218.244281 80.595294 
L 219.330082 87.816848 
L 220.415883 81.071116 
L 221.501684 72.737146 
L 222.587486 74.794436 
L 223.673287 77.795996 
L 224.759088 64.364087 
L 225.844889 80.900254 
L 226.93069 67.7284 
L 228.016491 80.714558 
L 229.102292 71.526715 
L 230.188094 68.380373 
L 231.273895 72.876114 
L 232.359696 74.989035 
L 233.445497 76.57356 
L 234.531298 77.409668 
L 235.617099 90.993778 
L 236.702901 67.387402 
L 237.788702 71.288984 
L 238.874503 70.227287 
L 239.960304 86.656417 
L 241.046105 79.275093 
L 242.131906 84.930788 
L 243.217708 73.746523 
L 244.303509 72.788924 
L 245.38931 65.629751 
L 246.475111 92.723384 
L 247.560912 82.515803 
L 248.646713 76.400879 
L 249.732514 64.3175 
L 250.818316 77.244807 
L 251.904117 80.284766 
L 252.989918 79.762082 
L 254.075719 67.649119 
L 255.16152 65.231207 
L 256.247321 60.3348 
L 257.333123 83.320207 
L 258.418924 79.446981 
L 259.504725 77.799258 
L 260.590526 64.563687 
L 261.676327 54.964931 
L 262.762128 72.212972 
L 263.847929 73.736249 
L 264.933731 70.109806 
L 266.019532 74.79211 
L 267.105333 78.339443 
L 268.191134 67.560071 
L 269.276935 64.773769 
L 270.362736 69.692006 
L 271.448538 77.183481 
L 272.534339 79.459118 
L 273.62014 82.498448 
L 274.705941 76.449859 
L 275.791742 72.60415 
L 276.877543 74.850794 
L 277.963344 75.190626 
L 279.049146 81.91086 
L 280.134947 69.241115 
L 281.220748 65.747697 
L 282.306549 82.040252 
L 283.39235 67.91176 
L 284.478151 75.789029 
L 285.563953 78.098493 
L 286.649754 71.314047 
L 287.735555 79.10218 
L 288.821356 84.300173 
L 290.992958 67.687836 
L 292.07876 74.13775 
L 293.164561 75.306845 
L 294.250362 71.320832 
L 295.336163 86.190087 
L 296.421964 73.210995 
L 297.507765 81.662484 
L 298.593566 73.282443 
L 299.679368 75.976612 
L 300.765169 75.329606 
L 301.85097 75.726986 
L 302.936771 54.306858 
L 304.022572 64.483395 
L 305.108373 70.616028 
L 306.194175 69.537551 
L 307.279976 69.040988 
L 308.365777 67.277856 
L 309.451578 71.866829 
L 310.537379 75.060409 
L 311.62318 71.048615 
L 312.708981 70.82914 
L 313.794783 71.657916 
L 314.880584 63.442472 
L 315.966385 65.459265 
L 317.052186 71.010636 
L 318.137987 70.940133 
L 319.223788 68.71573 
L 320.30959 60.55619 
L 321.395391 65.135775 
L 322.481192 66.059256 
L 323.566993 88.130794 
L 324.652794 84.616221 
L 325.738595 97.535478 
L 326.824396 75.323474 
L 327.910198 81.401691 
L 328.995999 100.277794 
L 330.0818 92.9484 
L 331.167601 96.079184 
L 332.253402 80.688237 
L 333.339203 75.003107 
L 334.425005 67.801435 
L 335.510806 81.585704 
L 336.596607 87.111509 
L 337.682408 70.992381 
L 338.768209 79.276937 
L 339.85401 63.213945 
L 340.939811 78.559359 
L 342.025613 85.625355 
L 343.111414 85.579489 
L 344.197215 70.656245 
L 345.283016 64.623297 
L 346.368817 74.95267 
L 347.454618 74.509522 
L 348.54042 79.928038 
L 349.626221 82.811345 
L 350.712022 100.532362 
L 351.797823 94.887614 
L 352.883624 82.94103 
L 353.969425 73.670582 
L 355.055227 75.979319 
L 356.141028 117.397184 
L 357.226829 97.670551 
L 358.31263 95.950636 
L 359.398431 96.235601 
L 360.484232 86.6062 
L 361.570033 93.883816 
L 362.655835 111.139874 
L 363.741636 96.029456 
L 364.827437 98.796462 
L 365.913238 105.473577 
L 366.999039 86.233667 
L 368.08484 92.794464 
L 369.170642 97.8067 
L 371.342244 81.210002 
L 372.428045 84.969678 
L 373.513846 71.907694 
L 374.599647 83.538289 
L 375.685448 84.965982 
L 376.77125 81.281142 
L 377.857051 93.01115 
L 378.942852 76.008963 
L 380.028653 94.939588 
L 381.114454 84.167214 
L 382.200255 82.217586 
L 383.286057 71.614618 
L 384.371858 70.782128 
L 385.457659 76.431195 
L 386.54346 93.037119 
L 387.629261 69.475545 
L 388.715062 75.588308 
L 389.800863 109.384179 
L 390.886665 90.713444 
L 391.972466 84.689956 
L 393.058267 75.112066 
L 394.144068 92.174446 
L 395.229869 87.738685 
L 396.31567 87.449985 
L 397.401472 88.853981 
L 398.487273 87.642138 
L 398.487273 87.642138 
" style="fill:none;stroke:#ff0000;stroke-linecap:square;stroke-width:1.5;"/>
   </g>
   <g id="patch_3">
    <path d="M 57.6 307.584 
L 57.6 41.472 
" style="fill:none;stroke:#000000;stroke-linecap:square;stroke-linejoin:miter;stroke-width:0.8;"/>
   </g>
   <g id="patch_4">
    <path d="M 414.72 307.584 
L 414.72 41.472 
" style="fill:none;stroke:#000000;stroke-linecap:square;stroke-linejoin:miter;stroke-width:0.8;"/>
   </g>
   <g id="patch_5">
    <path d="M 57.6 307.584 
L 414.72 307.584 
" style="fill:none;stroke:#000000;stroke-linecap:square;stroke-linejoin:miter;stroke-width:0.8;"/>
   </g>
   <g id="patch_6">
    <path d="M 57.6 41.472 
L 414.72 41.472 
" style="fill:none;stroke:#000000;stroke-linecap:square;stroke-linejoin:miter;stroke-width:0.8;"/>
   </g>
   <g id="text_18">
    <!-- Population's average and best fitness -->
    <defs>
     <path d="M 19.671875 64.796875 
L 19.671875 37.40625 
L 32.078125 37.40625 
Q 38.96875 37.40625 42.71875 40.96875 
Q 46.484375 44.53125 46.484375 51.125 
Q 46.484375 57.671875 42.71875 61.234375 
Q 38.96875 64.796875 32.078125 64.796875 
z
M 9.8125 72.90625 
L 32.078125 72.90625 
Q 44.34375 72.90625 50.609375 67.359375 
Q 56.890625 61.8125 56.890625 51.125 
Q 56.890625 40.328125 50.609375 34.8125 
Q 44.34375 29.296875 32.078125 29.296875 
L 19.671875 29.296875 
L 19.671875 0 
L 9.8125 0 
z
" id="DejaVuSans-80"/>
     <path d="M 18.109375 8.203125 
L 18.109375 -20.796875 
L 9.078125 -20.796875 
L 9.078125 54.6875 
L 18.109375 54.6875 
L 18.109375 46.390625 
Q 20.953125 51.265625 25.265625 53.625 
Q 29.59375 56 35.59375 56 
Q 45.5625 56 51.78125 48.09375 
Q 58.015625 40.1875 58.015625 27.296875 
Q 58.015625 14.40625 51.78125 6.484375 
Q 45.5625 -1.421875 35.59375 -1.421875 
Q 29.59375 -1.421875 25.265625 0.953125 
Q 20.953125 3.328125 18.109375 8.203125 
z
M 48.6875 27.296875 
Q 48.6875 37.203125 44.609375 42.84375 
Q 40.53125 48.484375 33.40625 48.484375 
Q 26.265625 48.484375 22.1875 42.84375 
Q 18.109375 37.203125 18.109375 27.296875 
Q 18.109375 17.390625 22.1875 11.75 
Q 26.265625 6.109375 33.40625 6.109375 
Q 40.53125 6.109375 44.609375 11.75 
Q 48.6875 17.390625 48.6875 27.296875 
z
" id="DejaVuSans-112"/>
     <path d="M 8.5 21.578125 
L 8.5 54.6875 
L 17.484375 54.6875 
L 17.484375 21.921875 
Q 17.484375 14.15625 20.5 10.265625 
Q 23.53125 6.390625 29.59375 6.390625 
Q 36.859375 6.390625 41.078125 11.03125 
Q 45.3125 15.671875 45.3125 23.6875 
L 45.3125 54.6875 
L 54.296875 54.6875 
L 54.296875 0 
L 45.3125 0 
L 45.3125 8.40625 
Q 42.046875 3.421875 37.71875 1 
Q 33.40625 -1.421875 27.6875 -1.421875 
Q 18.265625 -1.421875 13.375 4.4375 
Q 8.5 10.296875 8.5 21.578125 
z
M 31.109375 56 
z
" id="DejaVuSans-117"/>
     <path d="M 9.421875 75.984375 
L 18.40625 75.984375 
L 18.40625 0 
L 9.421875 0 
z
" id="DejaVuSans-108"/>
     <path d="M 17.921875 72.90625 
L 17.921875 45.796875 
L 9.625 45.796875 
L 9.625 72.90625 
z
" id="DejaVuSans-39"/>
     <path id="DejaVuSans-32"/>
     <path d="M 2.984375 54.6875 
L 12.5 54.6875 
L 29.59375 8.796875 
L 46.6875 54.6875 
L 56.203125 54.6875 
L 35.6875 0 
L 23.484375 0 
z
" id="DejaVuSans-118"/>
     <path d="M 45.40625 27.984375 
Q 45.40625 37.75 41.375 43.109375 
Q 37.359375 48.484375 30.078125 48.484375 
Q 22.859375 48.484375 18.828125 43.109375 
Q 14.796875 37.75 14.796875 27.984375 
Q 14.796875 18.265625 18.828125 12.890625 
Q 22.859375 7.515625 30.078125 7.515625 
Q 37.359375 7.515625 41.375 12.890625 
Q 45.40625 18.265625 45.40625 27.984375 
z
M 54.390625 6.78125 
Q 54.390625 -7.171875 48.1875 -13.984375 
Q 42 -20.796875 29.203125 -20.796875 
Q 24.46875 -20.796875 20.265625 -20.09375 
Q 16.0625 -19.390625 12.109375 -17.921875 
L 12.109375 -9.1875 
Q 16.0625 -11.328125 19.921875 -12.34375 
Q 23.78125 -13.375 27.78125 -13.375 
Q 36.625 -13.375 41.015625 -8.765625 
Q 45.40625 -4.15625 45.40625 5.171875 
L 45.40625 9.625 
Q 42.625 4.78125 38.28125 2.390625 
Q 33.9375 0 27.875 0 
Q 17.828125 0 11.671875 7.65625 
Q 5.515625 15.328125 5.515625 27.984375 
Q 5.515625 40.671875 11.671875 48.328125 
Q 17.828125 56 27.875 56 
Q 33.9375 56 38.28125 53.609375 
Q 42.625 51.21875 45.40625 46.390625 
L 45.40625 54.6875 
L 54.390625 54.6875 
z
" id="DejaVuSans-103"/>
     <path d="M 45.40625 46.390625 
L 45.40625 75.984375 
L 54.390625 75.984375 
L 54.390625 0 
L 45.40625 0 
L 45.40625 8.203125 
Q 42.578125 3.328125 38.25 0.953125 
Q 33.9375 -1.421875 27.875 -1.421875 
Q 17.96875 -1.421875 11.734375 6.484375 
Q 5.515625 14.40625 5.515625 27.296875 
Q 5.515625 40.1875 11.734375 48.09375 
Q 17.96875 56 27.875 56 
Q 33.9375 56 38.25 53.625 
Q 42.578125 51.265625 45.40625 46.390625 
z
M 14.796875 27.296875 
Q 14.796875 17.390625 18.875 11.75 
Q 22.953125 6.109375 30.078125 6.109375 
Q 37.203125 6.109375 41.296875 11.75 
Q 45.40625 17.390625 45.40625 27.296875 
Q 45.40625 37.203125 41.296875 42.84375 
Q 37.203125 48.484375 30.078125 48.484375 
Q 22.953125 48.484375 18.875 42.84375 
Q 14.796875 37.203125 14.796875 27.296875 
z
" id="DejaVuSans-100"/>
     <path d="M 48.6875 27.296875 
Q 48.6875 37.203125 44.609375 42.84375 
Q 40.53125 48.484375 33.40625 48.484375 
Q 26.265625 48.484375 22.1875 42.84375 
Q 18.109375 37.203125 18.109375 27.296875 
Q 18.109375 17.390625 22.1875 11.75 
Q 26.265625 6.109375 33.40625 6.109375 
Q 40.53125 6.109375 44.609375 11.75 
Q 48.6875 17.390625 48.6875 27.296875 
z
M 18.109375 46.390625 
Q 20.953125 51.265625 25.265625 53.625 
Q 29.59375 56 35.59375 56 
Q 45.5625 56 51.78125 48.09375 
Q 58.015625 40.1875 58.015625 27.296875 
Q 58.015625 14.40625 51.78125 6.484375 
Q 45.5625 -1.421875 35.59375 -1.421875 
Q 29.59375 -1.421875 25.265625 0.953125 
Q 20.953125 3.328125 18.109375 8.203125 
L 18.109375 0 
L 9.078125 0 
L 9.078125 75.984375 
L 18.109375 75.984375 
z
" id="DejaVuSans-98"/>
     <path d="M 37.109375 75.984375 
L 37.109375 68.5 
L 28.515625 68.5 
Q 23.6875 68.5 21.796875 66.546875 
Q 19.921875 64.59375 19.921875 59.515625 
L 19.921875 54.6875 
L 34.71875 54.6875 
L 34.71875 47.703125 
L 19.921875 47.703125 
L 19.921875 0 
L 10.890625 0 
L 10.890625 47.703125 
L 2.296875 47.703125 
L 2.296875 54.6875 
L 10.890625 54.6875 
L 10.890625 58.5 
Q 10.890625 67.625 15.140625 71.796875 
Q 19.390625 75.984375 28.609375 75.984375 
z
" id="DejaVuSans-102"/>
    </defs>
    <g transform="translate(123.315 35.472)scale(0.12 -0.12)">
     <use xlink:href="#DejaVuSans-80"/>
     <use x="60.255859" xlink:href="#DejaVuSans-111"/>
     <use x="121.4375" xlink:href="#DejaVuSans-112"/>
     <use x="184.914062" xlink:href="#DejaVuSans-117"/>
     <use x="248.292969" xlink:href="#DejaVuSans-108"/>
     <use x="276.076172" xlink:href="#DejaVuSans-97"/>
     <use x="337.355469" xlink:href="#DejaVuSans-116"/>
     <use x="376.564453" xlink:href="#DejaVuSans-105"/>
     <use x="404.347656" xlink:href="#DejaVuSans-111"/>
     <use x="465.529297" xlink:href="#DejaVuSans-110"/>
     <use x="528.908203" xlink:href="#DejaVuSans-39"/>
     <use x="556.398438" xlink:href="#DejaVuSans-115"/>
     <use x="608.498047" xlink:href="#DejaVuSans-32"/>
     <use x="640.285156" xlink:href="#DejaVuSans-97"/>
     <use x="701.564453" xlink:href="#DejaVuSans-118"/>
     <use x="760.744141" xlink:href="#DejaVuSans-101"/>
     <use x="822.267578" xlink:href="#DejaVuSans-114"/>
     <use x="863.380859" xlink:href="#DejaVuSans-97"/>
     <use x="924.660156" xlink:href="#DejaVuSans-103"/>
     <use x="988.136719" xlink:href="#DejaVuSans-101"/>
     <use x="1049.660156" xlink:href="#DejaVuSans-32"/>
     <use x="1081.447266" xlink:href="#DejaVuSans-97"/>
     <use x="1142.726562" xlink:href="#DejaVuSans-110"/>
     <use x="1206.105469" xlink:href="#DejaVuSans-100"/>
     <use x="1269.582031" xlink:href="#DejaVuSans-32"/>
     <use x="1301.369141" xlink:href="#DejaVuSans-98"/>
     <use x="1364.845703" xlink:href="#DejaVuSans-101"/>
     <use x="1426.369141" xlink:href="#DejaVuSans-115"/>
     <use x="1478.46875" xlink:href="#DejaVuSans-116"/>
     <use x="1517.677734" xlink:href="#DejaVuSans-32"/>
     <use x="1549.464844" xlink:href="#DejaVuSans-102"/>
     <use x="1584.669922" xlink:href="#DejaVuSans-105"/>
     <use x="1612.453125" xlink:href="#DejaVuSans-116"/>
     <use x="1651.662109" xlink:href="#DejaVuSans-110"/>
     <use x="1715.041016" xlink:href="#DejaVuSans-101"/>
     <use x="1776.564453" xlink:href="#DejaVuSans-115"/>
     <use x="1828.664062" xlink:href="#DejaVuSans-115"/>
    </g>
   </g>
   <g id="legend_1">
    <g id="patch_7">
     <path d="M 334.779375 302.584 
L 407.72 302.584 
Q 409.72 302.584 409.72 300.584 
L 409.72 242.8715 
Q 409.72 240.8715 407.72 240.8715 
L 334.779375 240.8715 
Q 332.779375 240.8715 332.779375 242.8715 
L 332.779375 300.584 
Q 332.779375 302.584 334.779375 302.584 
z
" style="fill:#ffffff;opacity:0.8;stroke:#cccccc;stroke-linejoin:miter;"/>
    </g>
    <g id="line2d_35">
     <path d="M 336.779375 248.969937 
L 356.779375 248.969937 
" style="fill:none;stroke:#0000ff;stroke-linecap:square;stroke-width:1.5;"/>
    </g>
    <g id="line2d_36"/>
    <g id="text_19">
     <!-- average -->
     <g transform="translate(364.779375 252.469937)scale(0.1 -0.1)">
      <use xlink:href="#DejaVuSans-97"/>
      <use x="61.279297" xlink:href="#DejaVuSans-118"/>
      <use x="120.458984" xlink:href="#DejaVuSans-101"/>
      <use x="181.982422" xlink:href="#DejaVuSans-114"/>
      <use x="223.095703" xlink:href="#DejaVuSans-97"/>
      <use x="284.375" xlink:href="#DejaVuSans-103"/>
      <use x="347.851562" xlink:href="#DejaVuSans-101"/>
     </g>
    </g>
    <g id="line2d_37">
     <path d="M 336.779375 263.648062 
L 356.779375 263.648062 
" style="fill:none;stroke:#008000;stroke-dasharray:9.6,2.4,1.5,2.4;stroke-dashoffset:0;stroke-width:1.5;"/>
    </g>
    <g id="line2d_38"/>
    <g id="text_20">
     <!-- -1 sd -->
     <defs>
      <path d="M 4.890625 31.390625 
L 31.203125 31.390625 
L 31.203125 23.390625 
L 4.890625 23.390625 
z
" id="DejaVuSans-45"/>
     </defs>
     <g transform="translate(364.779375 267.148062)scale(0.1 -0.1)">
      <use xlink:href="#DejaVuSans-45"/>
      <use x="36.083984" xlink:href="#DejaVuSans-49"/>
      <use x="99.707031" xlink:href="#DejaVuSans-32"/>
      <use x="131.494141" xlink:href="#DejaVuSans-115"/>
      <use x="183.59375" xlink:href="#DejaVuSans-100"/>
     </g>
    </g>
    <g id="line2d_39">
     <path d="M 336.779375 278.326187 
L 356.779375 278.326187 
" style="fill:none;stroke:#008000;stroke-dasharray:9.6,2.4,1.5,2.4;stroke-dashoffset:0;stroke-width:1.5;"/>
    </g>
    <g id="line2d_40"/>
    <g id="text_21">
     <!-- +1 sd -->
     <defs>
      <path d="M 46 62.703125 
L 46 35.5 
L 73.1875 35.5 
L 73.1875 27.203125 
L 46 27.203125 
L 46 0 
L 37.796875 0 
L 37.796875 27.203125 
L 10.59375 27.203125 
L 10.59375 35.5 
L 37.796875 35.5 
L 37.796875 62.703125 
z
" id="DejaVuSans-43"/>
     </defs>
     <g transform="translate(364.779375 281.826187)scale(0.1 -0.1)">
      <use xlink:href="#DejaVuSans-43"/>
      <use x="83.789062" xlink:href="#DejaVuSans-49"/>
      <use x="147.412109" xlink:href="#DejaVuSans-32"/>
      <use x="179.199219" xlink:href="#DejaVuSans-115"/>
      <use x="231.298828" xlink:href="#DejaVuSans-100"/>
     </g>
    </g>
    <g id="line2d_41">
     <path d="M 336.779375 293.004312 
L 356.779375 293.004312 
" style="fill:none;stroke:#ff0000;stroke-linecap:square;stroke-width:1.5;"/>
    </g>
    <g id="line2d_42"/>
    <g id="text_22">
     <!-- best -->
     <g transform="translate(364.779375 296.504312)scale(0.1 -0.1)">
      <use xlink:href="#DejaVuSans-98"/>
      <use x="63.476562" xlink:href="#DejaVuSans-101"/>
      <use x="125" xlink:href="#DejaVuSans-115"/>
      <use x="177.099609" xlink:href="#DejaVuSans-116"/>
     </g>
    </g>
   </g>
  </g>
 </g>
 <defs>
  <clipPath id="p47a672e994">
   <rect height="266.112" width="357.12" x="57.6" y="41.472"/>
  </clipPath>
 </defs>
</svg>
