<?xml version="1.0" encoding="UTF-8" standalone="no"?>
<!DOCTYPE svg PUBLIC "-//W3C//DTD SVG 1.1//EN"
 "http://www.w3.org/Graphics/SVG/1.1/DTD/svg11.dtd">
<!-- Generated by graphviz version 2.40.1 (20161225.0304)
 -->
<!-- Title: %3 Pages: 1 -->
<svg width="438pt" height="175pt"
 viewBox="0.00 0.00 438.04 174.79" xmlns="http://www.w3.org/2000/svg" xmlns:xlink="http://www.w3.org/1999/xlink">
<g id="graph0" class="graph" transform="scale(1 1) rotate(0) translate(4 170.7893)">
<title>%3</title>
<polygon fill="#ffffff" stroke="transparent" points="-4,4 -4,-170.7893 434.0404,-170.7893 434.0404,4 -4,4"/>
<!-- E0 -->
<g id="node1" class="node">
<title>E0</title>
<polygon fill="#d3d3d3" stroke="#000000" points="78.0392,-166.7893 52.0441,-166.7893 52.0441,-149.7893 78.0392,-149.7893 78.0392,-166.7893"/>
<text text-anchor="middle" x="65.0416" y="-155.5893" font-family="Times,serif" font-size="9.00" fill="#000000">E0</text>
</g>
<!-- E1 -->
<g id="node2" class="node">
<title>E1</title>
<polygon fill="#d3d3d3" stroke="#000000" points="122.0392,-166.7893 96.0441,-166.7893 96.0441,-149.7893 122.0392,-149.7893 122.0392,-166.7893"/>
<text text-anchor="middle" x="109.0416" y="-155.5893" font-family="Times,serif" font-size="9.00" fill="#000000">E1</text>
</g>
<!-- E0&#45;&gt;E1 -->
<!-- 1 -->
<g id="node11" class="node">
<title>1</title>
<ellipse fill="#87cefa" stroke="#000000" cx="152.0416" cy="-14.853" rx="14.4914" ry="14.4914"/>
<text text-anchor="middle" x="152.0416" y="-12.153" font-family="Times,serif" font-size="9.00" fill="#000000">1</text>
</g>
<!-- E0&#45;&gt;1 -->
<g id="edge13" class="edge">
<title>E0&#45;&gt;1</title>
<path fill="none" stroke="#ff0000" stroke-width=".6153" d="M70.2233,-149.7463C83.6077,-127.6796 119.6452,-68.2647 139.1243,-36.1497"/>
<polygon fill="#ff0000" stroke="#ff0000" stroke-width=".6153" points="142.1775,-37.8648 144.371,-27.4995 136.1924,-34.2345 142.1775,-37.8648"/>
</g>
<!-- S -->
<g id="node13" class="node">
<title>S</title>
<ellipse fill="#87cefa" stroke="#000000" cx="285.0416" cy="-14.853" rx="14.7075" ry="14.7075"/>
<text text-anchor="middle" x="285.0416" y="-12.153" font-family="Times,serif" font-size="9.00" fill="#000000">S</text>
</g>
<!-- E0&#45;&gt;S -->
<g id="edge17" class="edge">
<title>E0&#45;&gt;S</title>
<path fill="none" stroke="#00ff00" stroke-width=".6222" d="M78.1448,-149.7463C114.8482,-125.8163 218.9178,-57.9647 263.8995,-28.6374"/>
<polygon fill="#00ff00" stroke="#00ff00" stroke-width=".6222" points="266.0904,-31.3871 272.5557,-22.9936 262.2673,-25.5233 266.0904,-31.3871"/>
</g>
<!-- E2 -->
<g id="node3" class="node">
<title>E2</title>
<polygon fill="#d3d3d3" stroke="#000000" points="166.0392,-166.7893 140.0441,-166.7893 140.0441,-149.7893 166.0392,-149.7893 166.0392,-166.7893"/>
<text text-anchor="middle" x="153.0416" y="-155.5893" font-family="Times,serif" font-size="9.00" fill="#000000">E2</text>
</g>
<!-- E1&#45;&gt;E2 -->
<!-- 5445 -->
<g id="node14" class="node">
<title>5445</title>
<ellipse fill="#add8e6" stroke="#000000" cx="24.0416" cy="-89.7477" rx="24.0833" ry="24.0833"/>
<text text-anchor="middle" x="24.0416" y="-91.5477" font-family="Times,serif" font-size="9.00" fill="#000000">5445</text>
<text text-anchor="middle" x="24.0416" y="-82.5477" font-family="Times,serif" font-size="9.00" fill="#000000">sigm</text>
</g>
<!-- E1&#45;&gt;5445 -->
<g id="edge21" class="edge">
<title>E1&#45;&gt;5445</title>
<path fill="none" stroke="#ff0000" stroke-width=".2663" d="M98.2763,-149.6085C86.4074,-140.0377 66.8667,-124.2807 50.8124,-111.3349"/>
<polygon fill="#ff0000" stroke="#ff0000" stroke-width=".2663" points="52.7754,-108.4216 42.7939,-104.869 48.3813,-113.8708 52.7754,-108.4216"/>
</g>
<!-- E3 -->
<g id="node4" class="node">
<title>E3</title>
<polygon fill="#d3d3d3" stroke="#000000" points="210.0392,-166.7893 184.0441,-166.7893 184.0441,-149.7893 210.0392,-149.7893 210.0392,-166.7893"/>
<text text-anchor="middle" x="197.0416" y="-155.5893" font-family="Times,serif" font-size="9.00" fill="#000000">E3</text>
</g>
<!-- E2&#45;&gt;E3 -->
<!-- 2 -->
<g id="node12" class="node">
<title>2</title>
<ellipse fill="#87cefa" stroke="#000000" cx="204.0416" cy="-14.853" rx="14.4914" ry="14.4914"/>
<text text-anchor="middle" x="204.0416" y="-12.153" font-family="Times,serif" font-size="9.00" fill="#000000">2</text>
</g>
<!-- E2&#45;&gt;2 -->
<g id="edge18" class="edge">
<title>E2&#45;&gt;2</title>
<path fill="none" stroke="#ff0000" stroke-width=".1435" d="M156.0792,-149.7463C163.7417,-128.1955 184.07,-71.0227 195.6528,-38.4463"/>
<polygon fill="#ff0000" stroke="#ff0000" stroke-width=".1435" points="199.0266,-39.4049 199.0791,-28.8102 192.4311,-37.0598 199.0266,-39.4049"/>
</g>
<!-- E4 -->
<g id="node5" class="node">
<title>E4</title>
<polygon fill="#d3d3d3" stroke="#000000" points="254.0392,-166.7893 228.0441,-166.7893 228.0441,-149.7893 254.0392,-149.7893 254.0392,-166.7893"/>
<text text-anchor="middle" x="241.0416" y="-155.5893" font-family="Times,serif" font-size="9.00" fill="#000000">E4</text>
</g>
<!-- E3&#45;&gt;E4 -->
<!-- 0 -->
<g id="node10" class="node">
<title>0</title>
<ellipse fill="#eee8aa" stroke="#000000" cx="95.0416" cy="-14.853" rx="14.4914" ry="14.4914"/>
<text text-anchor="middle" x="95.0416" y="-12.153" font-family="Times,serif" font-size="9.00" fill="#000000">0</text>
</g>
<!-- E3&#45;&gt;0 -->
<g id="edge14" class="edge">
<title>E3&#45;&gt;0</title>
<path fill="none" stroke="#00ff00" stroke-width=".9294" d="M183.7331,-151.0119C170.6164,-143.2656 150.7455,-129.914 138.0416,-113.7893 120.2934,-91.262 108.3925,-60.2857 101.6939,-39.0282"/>
<polygon fill="#00ff00" stroke="#00ff00" stroke-width=".9294" points="104.9643,-37.7483 98.7411,-29.1737 98.2588,-39.7575 104.9643,-37.7483"/>
</g>
<!-- E3&#45;&gt;S -->
<g id="edge19" class="edge">
<title>E3&#45;&gt;S</title>
<path fill="none" stroke="#00ff00" stroke-width=".241" d="M210.0977,-153.1483C231.3448,-144.4959 271.862,-126.7044 280.0416,-113.7893 294.054,-91.6648 293.1658,-60.8559 290.1456,-39.5217"/>
<polygon fill="#00ff00" stroke="#00ff00" stroke-width=".241" points="293.5897,-38.8963 288.4938,-29.6074 286.6848,-40.0467 293.5897,-38.8963"/>
</g>
<!-- E5 -->
<g id="node6" class="node">
<title>E5</title>
<polygon fill="#d3d3d3" stroke="#000000" points="298.0392,-166.7893 272.0441,-166.7893 272.0441,-149.7893 298.0392,-149.7893 298.0392,-166.7893"/>
<text text-anchor="middle" x="285.0416" y="-155.5893" font-family="Times,serif" font-size="9.00" fill="#000000">E5</text>
</g>
<!-- E4&#45;&gt;E5 -->
<!-- E6 -->
<g id="node7" class="node">
<title>E6</title>
<polygon fill="#d3d3d3" stroke="#000000" points="342.0392,-166.7893 316.0441,-166.7893 316.0441,-149.7893 342.0392,-149.7893 342.0392,-166.7893"/>
<text text-anchor="middle" x="329.0416" y="-155.5893" font-family="Times,serif" font-size="9.00" fill="#000000">E6</text>
</g>
<!-- E5&#45;&gt;E6 -->
<!-- E7 -->
<g id="node8" class="node">
<title>E7</title>
<polygon fill="#d3d3d3" stroke="#000000" points="386.0392,-166.7893 360.0441,-166.7893 360.0441,-149.7893 386.0392,-149.7893 386.0392,-166.7893"/>
<text text-anchor="middle" x="373.0416" y="-155.5893" font-family="Times,serif" font-size="9.00" fill="#000000">E7</text>
</g>
<!-- E6&#45;&gt;E7 -->
<!-- E6&#45;&gt;0 -->
<g id="edge16" class="edge">
<title>E6&#45;&gt;0</title>
<path fill="none" stroke="#ff0000" stroke-width=".4408" d="M316.0207,-153.234C313.0704,-152.0954 309.9499,-150.8965 307.0416,-149.7893 264.4549,-133.5778 250.301,-136.9226 211.0416,-113.7893 172.046,-90.8115 133.389,-54.387 112.0173,-32.732"/>
<polygon fill="#ff0000" stroke="#ff0000" stroke-width=".4408" points="114.4388,-30.2017 104.957,-25.4744 109.4213,-35.0828 114.4388,-30.2017"/>
</g>
<!-- E6&#45;&gt;S -->
<g id="edge15" class="edge">
<title>E6&#45;&gt;S</title>
<path fill="none" stroke="#ff0000" stroke-width="1.3848" d="M329.3009,-149.5656C329.5219,-132.7879 328.6639,-95.0847 318.0416,-65.7061 314.0694,-54.7198 307.3377,-43.7001 300.9863,-34.7415"/>
<polygon fill="#ff0000" stroke="#ff0000" stroke-width="1.3848" points="303.6608,-32.473 294.878,-26.5474 298.0486,-36.6567 303.6608,-32.473"/>
</g>
<!-- E8 -->
<g id="node9" class="node">
<title>E8</title>
<polygon fill="#d3d3d3" stroke="#000000" points="430.0392,-166.7893 404.0441,-166.7893 404.0441,-149.7893 430.0392,-149.7893 430.0392,-166.7893"/>
<text text-anchor="middle" x="417.0416" y="-155.5893" font-family="Times,serif" font-size="9.00" fill="#000000">E8</text>
</g>
<!-- E7&#45;&gt;E8 -->
<!-- E7&#45;&gt;1 -->
<g id="edge22" class="edge">
<title>E7&#45;&gt;1</title>
<path fill="none" stroke="#ff0000" stroke-width=".2415" d="M359.803,-152.8994C341.5212,-145.2326 307.7753,-130.2679 281.0416,-113.7893 239.5612,-88.2209 195.3591,-52.142 170.9717,-31.3577"/>
<polygon fill="#ff0000" stroke="#ff0000" stroke-width=".2415" points="173.0743,-28.5497 163.209,-24.6862 168.5117,-33.8585 173.0743,-28.5497"/>
</g>
<!-- E8&#45;&gt;2 -->
<g id="edge12" class="edge">
<title>E8&#45;&gt;2</title>
<path fill="none" stroke="#ff0000" stroke-width="3.1516" d="M404.3554,-149.7463C368.8198,-125.8163 268.0615,-57.9647 224.5111,-28.6374"/>
<polygon fill="#ff0000" stroke="#ff0000" stroke-width="3.1516" points="226.3799,-25.6762 216.1303,-22.9936 222.4699,-31.4825 226.3799,-25.6762"/>
</g>
<!-- 0&#45;&gt;1 -->
<!-- 1&#45;&gt;2 -->
<!-- 2&#45;&gt;S -->
<!-- 5445&#45;&gt;0 -->
<g id="edge20" class="edge">
<title>5445&#45;&gt;0</title>
<path fill="none" stroke="#ff0000" stroke-width=".4562" d="M40.8676,-71.9987C51.9293,-60.3303 66.3726,-45.0947 77.5638,-33.2896"/>
<polygon fill="#ff0000" stroke="#ff0000" stroke-width=".4562" points="80.3707,-35.4161 84.7105,-25.7509 75.2906,-30.6002 80.3707,-35.4161"/>
</g>
</g>
</svg>
