<?xml version="1.0" encoding="utf-8" standalone="no"?>
<!DOCTYPE svg PUBLIC "-//W3C//DTD SVG 1.1//EN"
  "http://www.w3.org/Graphics/SVG/1.1/DTD/svg11.dtd">
<!-- Created with matplotlib (https://matplotlib.org/) -->
<svg height="345.6pt" version="1.1" viewBox="0 0 460.8 345.6" width="460.8pt" xmlns="http://www.w3.org/2000/svg" xmlns:xlink="http://www.w3.org/1999/xlink">
 <defs>
  <style type="text/css">
*{stroke-linecap:butt;stroke-linejoin:round;}
  </style>
 </defs>
 <g id="figure_1">
  <g id="patch_1">
   <path d="M 0 345.6 
L 460.8 345.6 
L 460.8 0 
L 0 0 
z
" style="fill:#ffffff;"/>
  </g>
  <g id="axes_1">
   <g id="patch_2">
    <path d="M 57.6 307.584 
L 414.72 307.584 
L 414.72 41.472 
L 57.6 41.472 
z
" style="fill:#ffffff;"/>
   </g>
   <g id="PolyCollection_1">
    <path clip-path="url(#p79f5dfd67a)" d="M 73.832727 53.568 
L 73.832727 66.299204 
L 74.918528 92.313106 
L 76.00433 152.419564 
L 77.090131 160.684973 
L 78.175932 171.050083 
L 79.261733 161.437367 
L 80.347534 186.754586 
L 81.433335 177.691135 
L 82.519137 178.413185 
L 83.604938 169.052243 
L 84.690739 164.072065 
L 85.77654 147.35996 
L 86.862341 138.534846 
L 87.948142 150.424081 
L 89.033943 171.546142 
L 90.119745 190.599865 
L 91.205546 193.489328 
L 92.291347 178.569922 
L 93.377148 190.709992 
L 94.462949 187.563139 
L 95.54875 188.592311 
L 96.634552 210.731634 
L 97.720353 200.086912 
L 98.806154 206.320009 
L 99.891955 203.681503 
L 100.977756 238.749113 
L 102.063557 228.584359 
L 103.149358 231.785877 
L 104.23516 235.722523 
L 105.320961 232.270631 
L 106.406762 221.376122 
L 107.492563 214.163921 
L 108.578364 212.951438 
L 109.664165 217.906781 
L 110.749967 230.966588 
L 111.835768 268.535053 
L 112.921569 275.650389 
L 114.00737 226.217015 
L 115.093171 248.67793 
L 116.178972 281.462091 
L 117.264773 277.943597 
L 118.350575 274.466109 
L 119.436376 252.976588 
L 120.522177 262.947129 
L 121.607978 225.35291 
L 122.693779 221.063125 
L 123.77958 253.763464 
L 124.865382 243.892016 
L 125.951183 252.493796 
L 127.036984 247.7937 
L 128.122785 230.009266 
L 129.208586 206.397298 
L 130.294387 231.578822 
L 131.380189 194.421182 
L 132.46599 194.545952 
L 133.551791 181.676408 
L 134.637592 194.52244 
L 135.723393 212.602156 
L 136.809194 209.484805 
L 137.894995 206.702406 
L 138.980797 202.870237 
L 140.066598 192.943592 
L 141.152399 193.828695 
L 142.2382 173.168248 
L 143.324001 222.001858 
L 144.409802 194.310943 
L 145.495604 183.147888 
L 146.581405 181.413419 
L 147.667206 180.009896 
L 148.753007 188.072079 
L 149.838808 191.489529 
L 150.924609 189.078642 
L 152.01041 190.160965 
L 153.096212 218.449979 
L 154.182013 246.005981 
L 155.267814 228.283271 
L 156.353615 238.313502 
L 157.439416 232.100264 
L 158.525217 182.572174 
L 159.611019 218.437734 
L 160.69682 200.662801 
L 161.782621 205.964129 
L 162.868422 197.681096 
L 163.954223 243.849264 
L 165.040024 246.418029 
L 166.125825 264.495808 
L 167.211627 256.041566 
L 168.297428 270.913339 
L 169.383229 280.663519 
L 170.46903 263.856331 
L 171.554831 259.0471 
L 172.640632 280.239791 
L 173.726434 270.65107 
L 174.812235 263.526619 
L 175.898036 232.017985 
L 176.983837 236.88763 
L 178.069638 222.91356 
L 179.155439 215.851667 
L 180.24124 194.262596 
L 181.327042 224.080874 
L 182.412843 201.981665 
L 183.498644 184.351428 
L 184.584445 238.379908 
L 185.670246 234.317058 
L 186.756047 260.953651 
L 187.841849 238.064065 
L 188.92765 250.228113 
L 190.013451 235.640618 
L 191.099252 226.759655 
L 192.185053 198.207224 
L 193.270854 218.836665 
L 194.356656 203.840634 
L 195.442457 197.036209 
L 196.528258 254.195186 
L 197.614059 243.826869 
L 198.69986 275.626938 
L 199.785661 253.526315 
L 200.871462 255.155714 
L 201.957264 252.185247 
L 203.043065 225.442486 
L 204.128866 217.777404 
L 205.214667 260.982359 
L 206.300468 242.886791 
L 207.386269 257.16706 
L 208.472071 219.531318 
L 209.557872 223.121648 
L 210.643673 221.147293 
L 211.729474 211.626198 
L 212.815275 243.342029 
L 213.901076 246.706143 
L 214.986877 295.488 
L 216.072679 265.574031 
L 217.15848 264.662238 
L 218.244281 245.117407 
L 219.330082 224.593426 
L 220.415883 228.689229 
L 221.501684 256.840781 
L 222.587486 265.939633 
L 223.673287 234.415334 
L 224.759088 210.250121 
L 225.844889 267.254193 
L 226.93069 243.925051 
L 228.016491 233.230768 
L 229.102292 200.183395 
L 230.188094 213.87578 
L 231.273895 203.933793 
L 232.359696 192.460601 
L 233.445497 240.294342 
L 234.531298 274.937612 
L 235.617099 267.89794 
L 236.702901 273.566954 
L 237.788702 272.494217 
L 238.874503 270.895164 
L 239.960304 241.38548 
L 241.046105 272.452021 
L 242.131906 291.388054 
L 243.217708 263.29853 
L 244.303509 235.710328 
L 245.38931 260.119272 
L 246.475111 243.557268 
L 247.560912 217.110278 
L 248.646713 230.628829 
L 249.732514 249.192097 
L 250.818316 224.339813 
L 251.904117 222.711323 
L 252.989918 284.936997 
L 254.075719 229.432729 
L 255.16152 246.298712 
L 256.247321 233.796778 
L 257.333123 220.345909 
L 258.418924 215.976143 
L 259.504725 213.162111 
L 260.590526 255.97348 
L 261.676327 241.513921 
L 262.762128 232.633207 
L 263.847929 222.489179 
L 264.933731 222.218558 
L 266.019532 235.693625 
L 267.105333 226.251587 
L 268.191134 227.362008 
L 269.276935 211.534319 
L 270.362736 185.813464 
L 271.448538 169.757042 
L 272.534339 189.448533 
L 273.62014 215.148993 
L 274.705941 232.985695 
L 275.791742 217.710663 
L 276.877543 236.613062 
L 277.963344 238.816373 
L 279.049146 239.909491 
L 280.134947 244.431831 
L 281.220748 216.567776 
L 282.306549 182.472591 
L 283.39235 179.316246 
L 284.478151 153.07668 
L 285.563953 187.200341 
L 286.649754 210.167174 
L 287.735555 249.014523 
L 288.821356 220.536312 
L 289.907157 228.238758 
L 290.992958 239.86135 
L 292.07876 221.782104 
L 293.164561 214.105857 
L 294.250362 212.224224 
L 295.336163 223.765926 
L 296.421964 210.645082 
L 297.507765 197.763292 
L 298.593566 213.782972 
L 299.679368 201.698951 
L 300.765169 233.785386 
L 301.85097 232.186773 
L 302.936771 230.638616 
L 304.022572 229.89235 
L 305.108373 218.790265 
L 306.194175 201.869177 
L 307.279976 196.987886 
L 308.365777 197.177416 
L 309.451578 182.109054 
L 310.537379 206.429431 
L 311.62318 249.220533 
L 312.708981 219.413602 
L 313.794783 246.63388 
L 314.880584 269.40154 
L 315.966385 248.830922 
L 317.052186 247.570694 
L 318.137987 225.49662 
L 319.223788 210.850845 
L 320.30959 189.609358 
L 321.395391 198.991196 
L 322.481192 218.722682 
L 323.566993 215.930008 
L 324.652794 228.131365 
L 325.738595 219.480653 
L 326.824396 241.211537 
L 327.910198 252.763951 
L 328.995999 214.086704 
L 330.0818 189.948151 
L 331.167601 193.130562 
L 332.253402 200.943565 
L 333.339203 218.604689 
L 334.425005 215.015351 
L 335.510806 220.686271 
L 336.596607 216.282905 
L 337.682408 200.710646 
L 338.768209 185.021904 
L 339.85401 206.007124 
L 340.939811 200.678886 
L 342.025613 219.172717 
L 343.111414 230.393074 
L 344.197215 208.680669 
L 345.283016 207.366605 
L 346.368817 211.693289 
L 347.454618 209.869522 
L 348.54042 216.904726 
L 349.626221 239.613985 
L 350.712022 206.897239 
L 351.797823 206.398731 
L 352.883624 218.347979 
L 353.969425 204.684148 
L 355.055227 208.974493 
L 356.141028 193.145861 
L 357.226829 191.246947 
L 358.31263 206.175225 
L 359.398431 208.727949 
L 360.484232 186.696711 
L 361.570033 205.383098 
L 362.655835 208.500728 
L 363.741636 213.780923 
L 364.827437 196.899345 
L 365.913238 212.64521 
L 366.999039 190.599053 
L 368.08484 197.182111 
L 369.170642 222.653927 
L 370.256443 199.766799 
L 371.342244 207.648934 
L 372.428045 205.330894 
L 373.513846 206.007864 
L 374.599647 216.145639 
L 375.685448 230.79595 
L 376.77125 196.071916 
L 377.857051 221.939109 
L 378.942852 202.397602 
L 380.028653 204.422766 
L 381.114454 192.758051 
L 382.200255 197.462552 
L 383.286057 177.441249 
L 384.371858 173.209892 
L 385.457659 164.309487 
L 386.54346 211.460848 
L 387.629261 195.193081 
L 388.715062 197.28227 
L 389.800863 171.179662 
L 390.886665 177.161181 
L 391.972466 184.788488 
L 393.058267 177.946485 
L 394.144068 177.488967 
L 395.229869 179.085465 
L 396.31567 170.683714 
L 397.401472 181.244595 
L 398.487273 174.327183 
L 398.487273 151.560172 
L 398.487273 151.560172 
L 397.401472 152.538628 
L 396.31567 149.788134 
L 395.229869 151.330918 
L 394.144068 143.198617 
L 393.058267 145.387988 
L 391.972466 155.380078 
L 390.886665 140.046756 
L 389.800863 147.032546 
L 388.715062 152.40706 
L 387.629261 151.014697 
L 386.54346 180.120276 
L 385.457659 139.232592 
L 384.371858 141.051887 
L 383.286057 161.90812 
L 382.200255 169.949576 
L 381.114454 180.569275 
L 380.028653 171.43042 
L 378.942852 176.437994 
L 377.857051 194.277815 
L 376.77125 155.682676 
L 375.685448 180.943395 
L 374.599647 165.100652 
L 373.513846 170.366621 
L 372.428045 161.701459 
L 371.342244 162.931208 
L 370.256443 165.160804 
L 369.170642 175.070628 
L 368.08484 177.000265 
L 366.999039 146.788265 
L 365.913238 168.09618 
L 364.827437 179.07508 
L 363.741636 199.461024 
L 362.655835 179.579675 
L 361.570033 166.806668 
L 360.484232 172.984075 
L 359.398431 188.970328 
L 358.31263 184.67434 
L 357.226829 170.489713 
L 356.141028 160.593011 
L 355.055227 174.009831 
L 353.969425 165.813575 
L 352.883624 184.524726 
L 351.797823 176.047863 
L 350.712022 195.750149 
L 349.626221 226.19617 
L 348.54042 207.514838 
L 347.454618 200.752873 
L 346.368817 176.782704 
L 345.283016 187.268963 
L 344.197215 187.43934 
L 343.111414 211.794213 
L 342.025613 200.267563 
L 340.939811 177.881352 
L 339.85401 172.678998 
L 338.768209 175.800302 
L 337.682408 173.719302 
L 336.596607 201.763987 
L 335.510806 200.066379 
L 334.425005 187.662943 
L 333.339203 181.664457 
L 332.253402 170.769848 
L 331.167601 173.741505 
L 330.0818 167.410334 
L 328.995999 182.852945 
L 327.910198 187.907054 
L 326.824396 203.100395 
L 325.738595 188.452181 
L 324.652794 189.534722 
L 323.566993 182.784581 
L 322.481192 201.160582 
L 321.395391 171.579192 
L 320.30959 168.488183 
L 319.223788 191.398785 
L 318.137987 195.111004 
L 317.052186 215.47531 
L 315.966385 225.894538 
L 314.880584 246.242842 
L 313.794783 221.188169 
L 312.708981 202.944602 
L 311.62318 241.97105 
L 310.537379 189.847195 
L 309.451578 160.154805 
L 308.365777 175.222284 
L 307.279976 183.31833 
L 306.194175 180.099639 
L 305.108373 191.666387 
L 304.022572 206.075385 
L 302.936771 186.048492 
L 301.85097 205.267984 
L 300.765169 196.934444 
L 299.679368 189.500073 
L 298.593566 192.176604 
L 297.507765 166.454406 
L 296.421964 202.462292 
L 295.336163 211.856305 
L 294.250362 192.93796 
L 293.164561 187.805094 
L 292.07876 199.846857 
L 290.992958 213.987113 
L 289.907157 206.636748 
L 288.821356 203.019525 
L 287.735555 228.833904 
L 286.649754 195.946013 
L 285.563953 169.553143 
L 284.478151 144.506983 
L 283.39235 157.668625 
L 282.306549 159.614201 
L 281.220748 186.407562 
L 280.134947 216.794107 
L 279.049146 225.818075 
L 277.963344 210.631463 
L 276.877543 213.21842 
L 275.791742 201.862567 
L 274.705941 188.421608 
L 273.62014 164.586947 
L 272.534339 148.315932 
L 271.448538 161.233016 
L 270.362736 173.475748 
L 269.276935 188.208567 
L 268.191134 203.32855 
L 267.105333 201.444725 
L 266.019532 216.740768 
L 264.933731 190.08651 
L 263.847929 198.515943 
L 262.762128 205.365743 
L 261.676327 200.638786 
L 260.590526 214.936362 
L 259.504725 173.188258 
L 258.418924 197.26348 
L 257.333123 193.380956 
L 256.247321 225.909509 
L 255.16152 225.400689 
L 254.075719 209.124607 
L 252.989918 255.885876 
L 251.904117 204.060031 
L 250.818316 204.921347 
L 249.732514 220.759507 
L 248.646713 213.296483 
L 247.560912 185.965106 
L 246.475111 201.477187 
L 245.38931 217.341214 
L 244.303509 200.728636 
L 243.217708 230.91178 
L 242.131906 252.485681 
L 241.046105 232.014861 
L 239.960304 213.823121 
L 238.874503 233.309811 
L 237.788702 245.991823 
L 236.702901 247.215319 
L 235.617099 226.12656 
L 234.531298 236.972893 
L 233.445497 208.413183 
L 232.359696 166.153077 
L 231.273895 172.926266 
L 230.188094 185.625504 
L 229.102292 173.829654 
L 228.016491 203.144771 
L 226.93069 216.641369 
L 225.844889 238.482542 
L 224.759088 177.158649 
L 223.673287 207.304088 
L 222.587486 245.080128 
L 221.501684 228.213932 
L 220.415883 215.044708 
L 219.330082 215.820971 
L 218.244281 222.844217 
L 217.15848 232.934309 
L 216.072679 243.248469 
L 214.986877 266.293961 
L 213.901076 208.947262 
L 212.815275 214.322839 
L 211.729474 192.990922 
L 210.643673 213.457695 
L 209.557872 207.038286 
L 208.472071 199.785428 
L 207.386269 239.598504 
L 206.300468 236.940279 
L 205.214667 235.373614 
L 204.128866 206.524085 
L 203.043065 201.186611 
L 201.957264 239.118326 
L 200.871462 236.324749 
L 199.785661 213.430235 
L 198.69986 240.238226 
L 197.614059 227.057837 
L 196.528258 239.528827 
L 195.442457 180.514248 
L 194.356656 161.355343 
L 193.270854 187.753876 
L 192.185053 170.451263 
L 191.099252 184.293857 
L 190.013451 183.008646 
L 188.92765 201.412465 
L 187.841849 204.301133 
L 186.756047 209.307241 
L 185.670246 196.797315 
L 184.584445 201.31021 
L 183.498644 144.06907 
L 182.412843 154.999216 
L 181.327042 173.56164 
L 180.24124 149.304042 
L 179.155439 172.521719 
L 178.069638 183.763583 
L 176.983837 177.742561 
L 175.898036 193.580876 
L 174.812235 211.002438 
L 173.726434 217.800215 
L 172.640632 232.900288 
L 171.554831 217.494084 
L 170.46903 218.957151 
L 169.383229 225.507703 
L 168.297428 203.078805 
L 167.211627 211.712979 
L 166.125825 197.675838 
L 165.040024 198.276786 
L 163.954223 179.302078 
L 162.868422 150.224635 
L 161.782621 152.002208 
L 160.69682 154.442403 
L 159.611019 174.604898 
L 158.525217 141.257606 
L 157.439416 166.471219 
L 156.353615 161.850739 
L 155.267814 173.244211 
L 154.182013 183.130592 
L 153.096212 169.48395 
L 152.01041 160.884671 
L 150.924609 155.455227 
L 149.838808 152.591575 
L 148.753007 145.01065 
L 147.667206 140.421134 
L 146.581405 150.610838 
L 145.495604 159.313642 
L 144.409802 163.952072 
L 143.324001 175.117853 
L 142.2382 151.505287 
L 141.152399 155.781044 
L 140.066598 151.833488 
L 138.980797 161.860947 
L 137.894995 169.031455 
L 136.809194 176.351411 
L 135.723393 178.217491 
L 134.637592 160.355754 
L 133.551791 163.461115 
L 132.46599 173.34583 
L 131.380189 177.018774 
L 130.294387 189.402401 
L 129.208586 180.111608 
L 128.122785 197.649298 
L 127.036984 226.904154 
L 125.951183 216.360549 
L 124.865382 199.033428 
L 123.77958 218.604146 
L 122.693779 198.548882 
L 121.607978 196.287254 
L 120.522177 236.305762 
L 119.436376 225.600939 
L 118.350575 244.834199 
L 117.264773 235.040209 
L 116.178972 241.516202 
L 115.093171 210.483905 
L 114.00737 201.696096 
L 112.921569 254.333213 
L 111.835768 241.713165 
L 110.749967 199.23739 
L 109.664165 197.359691 
L 108.578364 195.236513 
L 107.492563 195.477357 
L 106.406762 201.851647 
L 105.320961 207.514467 
L 104.23516 205.515084 
L 103.149358 215.554266 
L 102.063557 208.642198 
L 100.977756 213.939947 
L 99.891955 184.632443 
L 98.806154 186.360441 
L 97.720353 182.041085 
L 96.634552 195.500836 
L 95.54875 170.570908 
L 94.462949 175.021579 
L 93.377148 167.288616 
L 92.291347 169.585669 
L 91.205546 180.34962 
L 90.119745 168.774281 
L 89.033943 149.570997 
L 87.948142 137.706998 
L 86.862341 126.938858 
L 85.77654 126.226868 
L 84.690739 148.205056 
L 83.604938 150.00548 
L 82.519137 159.515421 
L 81.433335 160.853364 
L 80.347534 146.780233 
L 79.261733 144.099718 
L 78.175932 164.197783 
L 77.090131 153.077925 
L 76.00433 139.772057 
L 74.918528 76.20488 
L 73.832727 53.568 
z
" style="fill:#0000ff;fill-opacity:0.25;"/>
   </g>
   <g id="matplotlib.axis_1">
    <g id="xtick_1">
     <g id="line2d_1">
      <defs>
       <path d="M 0 0 
L 0 3.5 
" id="mcf649813bc" style="stroke:#000000;stroke-width:0.8;"/>
      </defs>
      <g>
       <use style="stroke:#000000;stroke-width:0.8;" x="73.832727" xlink:href="#mcf649813bc" y="307.584"/>
      </g>
     </g>
     <g id="text_1">
      <!-- 0 -->
      <defs>
       <path d="M 31.78125 66.40625 
Q 24.171875 66.40625 20.328125 58.90625 
Q 16.5 51.421875 16.5 36.375 
Q 16.5 21.390625 20.328125 13.890625 
Q 24.171875 6.390625 31.78125 6.390625 
Q 39.453125 6.390625 43.28125 13.890625 
Q 47.125 21.390625 47.125 36.375 
Q 47.125 51.421875 43.28125 58.90625 
Q 39.453125 66.40625 31.78125 66.40625 
z
M 31.78125 74.21875 
Q 44.046875 74.21875 50.515625 64.515625 
Q 56.984375 54.828125 56.984375 36.375 
Q 56.984375 17.96875 50.515625 8.265625 
Q 44.046875 -1.421875 31.78125 -1.421875 
Q 19.53125 -1.421875 13.0625 8.265625 
Q 6.59375 17.96875 6.59375 36.375 
Q 6.59375 54.828125 13.0625 64.515625 
Q 19.53125 74.21875 31.78125 74.21875 
z
" id="DejaVuSans-48"/>
      </defs>
      <g transform="translate(70.651477 322.182437)scale(0.1 -0.1)">
       <use xlink:href="#DejaVuSans-48"/>
      </g>
     </g>
    </g>
    <g id="xtick_2">
     <g id="line2d_2">
      <g>
       <use style="stroke:#000000;stroke-width:0.8;" x="128.122785" xlink:href="#mcf649813bc" y="307.584"/>
      </g>
     </g>
     <g id="text_2">
      <!-- 50 -->
      <defs>
       <path d="M 10.796875 72.90625 
L 49.515625 72.90625 
L 49.515625 64.59375 
L 19.828125 64.59375 
L 19.828125 46.734375 
Q 21.96875 47.46875 24.109375 47.828125 
Q 26.265625 48.1875 28.421875 48.1875 
Q 40.625 48.1875 47.75 41.5 
Q 54.890625 34.8125 54.890625 23.390625 
Q 54.890625 11.625 47.5625 5.09375 
Q 40.234375 -1.421875 26.90625 -1.421875 
Q 22.3125 -1.421875 17.546875 -0.640625 
Q 12.796875 0.140625 7.71875 1.703125 
L 7.71875 11.625 
Q 12.109375 9.234375 16.796875 8.0625 
Q 21.484375 6.890625 26.703125 6.890625 
Q 35.15625 6.890625 40.078125 11.328125 
Q 45.015625 15.765625 45.015625 23.390625 
Q 45.015625 31 40.078125 35.4375 
Q 35.15625 39.890625 26.703125 39.890625 
Q 22.75 39.890625 18.8125 39.015625 
Q 14.890625 38.140625 10.796875 36.28125 
z
" id="DejaVuSans-53"/>
      </defs>
      <g transform="translate(121.760285 322.182437)scale(0.1 -0.1)">
       <use xlink:href="#DejaVuSans-53"/>
       <use x="63.623047" xlink:href="#DejaVuSans-48"/>
      </g>
     </g>
    </g>
    <g id="xtick_3">
     <g id="line2d_3">
      <g>
       <use style="stroke:#000000;stroke-width:0.8;" x="182.412843" xlink:href="#mcf649813bc" y="307.584"/>
      </g>
     </g>
     <g id="text_3">
      <!-- 100 -->
      <defs>
       <path d="M 12.40625 8.296875 
L 28.515625 8.296875 
L 28.515625 63.921875 
L 10.984375 60.40625 
L 10.984375 69.390625 
L 28.421875 72.90625 
L 38.28125 72.90625 
L 38.28125 8.296875 
L 54.390625 8.296875 
L 54.390625 0 
L 12.40625 0 
z
" id="DejaVuSans-49"/>
      </defs>
      <g transform="translate(172.869093 322.182437)scale(0.1 -0.1)">
       <use xlink:href="#DejaVuSans-49"/>
       <use x="63.623047" xlink:href="#DejaVuSans-48"/>
       <use x="127.246094" xlink:href="#DejaVuSans-48"/>
      </g>
     </g>
    </g>
    <g id="xtick_4">
     <g id="line2d_4">
      <g>
       <use style="stroke:#000000;stroke-width:0.8;" x="236.702901" xlink:href="#mcf649813bc" y="307.584"/>
      </g>
     </g>
     <g id="text_4">
      <!-- 150 -->
      <g transform="translate(227.159151 322.182437)scale(0.1 -0.1)">
       <use xlink:href="#DejaVuSans-49"/>
       <use x="63.623047" xlink:href="#DejaVuSans-53"/>
       <use x="127.246094" xlink:href="#DejaVuSans-48"/>
      </g>
     </g>
    </g>
    <g id="xtick_5">
     <g id="line2d_5">
      <g>
       <use style="stroke:#000000;stroke-width:0.8;" x="290.992958" xlink:href="#mcf649813bc" y="307.584"/>
      </g>
     </g>
     <g id="text_5">
      <!-- 200 -->
      <defs>
       <path d="M 19.1875 8.296875 
L 53.609375 8.296875 
L 53.609375 0 
L 7.328125 0 
L 7.328125 8.296875 
Q 12.9375 14.109375 22.625 23.890625 
Q 32.328125 33.6875 34.8125 36.53125 
Q 39.546875 41.84375 41.421875 45.53125 
Q 43.3125 49.21875 43.3125 52.78125 
Q 43.3125 58.59375 39.234375 62.25 
Q 35.15625 65.921875 28.609375 65.921875 
Q 23.96875 65.921875 18.8125 64.3125 
Q 13.671875 62.703125 7.8125 59.421875 
L 7.8125 69.390625 
Q 13.765625 71.78125 18.9375 73 
Q 24.125 74.21875 28.421875 74.21875 
Q 39.75 74.21875 46.484375 68.546875 
Q 53.21875 62.890625 53.21875 53.421875 
Q 53.21875 48.921875 51.53125 44.890625 
Q 49.859375 40.875 45.40625 35.40625 
Q 44.1875 33.984375 37.640625 27.21875 
Q 31.109375 20.453125 19.1875 8.296875 
z
" id="DejaVuSans-50"/>
      </defs>
      <g transform="translate(281.449208 322.182437)scale(0.1 -0.1)">
       <use xlink:href="#DejaVuSans-50"/>
       <use x="63.623047" xlink:href="#DejaVuSans-48"/>
       <use x="127.246094" xlink:href="#DejaVuSans-48"/>
      </g>
     </g>
    </g>
    <g id="xtick_6">
     <g id="line2d_6">
      <g>
       <use style="stroke:#000000;stroke-width:0.8;" x="345.283016" xlink:href="#mcf649813bc" y="307.584"/>
      </g>
     </g>
     <g id="text_6">
      <!-- 250 -->
      <g transform="translate(335.739266 322.182437)scale(0.1 -0.1)">
       <use xlink:href="#DejaVuSans-50"/>
       <use x="63.623047" xlink:href="#DejaVuSans-53"/>
       <use x="127.246094" xlink:href="#DejaVuSans-48"/>
      </g>
     </g>
    </g>
    <g id="xtick_7">
     <g id="line2d_7">
      <g>
       <use style="stroke:#000000;stroke-width:0.8;" x="399.573074" xlink:href="#mcf649813bc" y="307.584"/>
      </g>
     </g>
     <g id="text_7">
      <!-- 300 -->
      <defs>
       <path d="M 40.578125 39.3125 
Q 47.65625 37.796875 51.625 33 
Q 55.609375 28.21875 55.609375 21.1875 
Q 55.609375 10.40625 48.1875 4.484375 
Q 40.765625 -1.421875 27.09375 -1.421875 
Q 22.515625 -1.421875 17.65625 -0.515625 
Q 12.796875 0.390625 7.625 2.203125 
L 7.625 11.71875 
Q 11.71875 9.328125 16.59375 8.109375 
Q 21.484375 6.890625 26.8125 6.890625 
Q 36.078125 6.890625 40.9375 10.546875 
Q 45.796875 14.203125 45.796875 21.1875 
Q 45.796875 27.640625 41.28125 31.265625 
Q 36.765625 34.90625 28.71875 34.90625 
L 20.21875 34.90625 
L 20.21875 43.015625 
L 29.109375 43.015625 
Q 36.375 43.015625 40.234375 45.921875 
Q 44.09375 48.828125 44.09375 54.296875 
Q 44.09375 59.90625 40.109375 62.90625 
Q 36.140625 65.921875 28.71875 65.921875 
Q 24.65625 65.921875 20.015625 65.03125 
Q 15.375 64.15625 9.8125 62.3125 
L 9.8125 71.09375 
Q 15.4375 72.65625 20.34375 73.4375 
Q 25.25 74.21875 29.59375 74.21875 
Q 40.828125 74.21875 47.359375 69.109375 
Q 53.90625 64.015625 53.90625 55.328125 
Q 53.90625 49.265625 50.4375 45.09375 
Q 46.96875 40.921875 40.578125 39.3125 
z
" id="DejaVuSans-51"/>
      </defs>
      <g transform="translate(390.029324 322.182437)scale(0.1 -0.1)">
       <use xlink:href="#DejaVuSans-51"/>
       <use x="63.623047" xlink:href="#DejaVuSans-48"/>
       <use x="127.246094" xlink:href="#DejaVuSans-48"/>
      </g>
     </g>
    </g>
   </g>
   <g id="matplotlib.axis_2">
    <g id="ytick_1">
     <g id="line2d_8">
      <defs>
       <path d="M 0 0 
L -3.5 0 
" id="m9be675de70" style="stroke:#000000;stroke-width:0.8;"/>
      </defs>
      <g>
       <use style="stroke:#000000;stroke-width:0.8;" x="57.6" xlink:href="#m9be675de70" y="301.468438"/>
      </g>
     </g>
     <g id="text_8">
      <!-- 0.4 -->
      <defs>
       <path d="M 10.6875 12.40625 
L 21 12.40625 
L 21 0 
L 10.6875 0 
z
" id="DejaVuSans-46"/>
       <path d="M 37.796875 64.3125 
L 12.890625 25.390625 
L 37.796875 25.390625 
z
M 35.203125 72.90625 
L 47.609375 72.90625 
L 47.609375 25.390625 
L 58.015625 25.390625 
L 58.015625 17.1875 
L 47.609375 17.1875 
L 47.609375 0 
L 37.796875 0 
L 37.796875 17.1875 
L 4.890625 17.1875 
L 4.890625 26.703125 
z
" id="DejaVuSans-52"/>
      </defs>
      <g transform="translate(34.696875 305.267657)scale(0.1 -0.1)">
       <use xlink:href="#DejaVuSans-48"/>
       <use x="63.623047" xlink:href="#DejaVuSans-46"/>
       <use x="95.410156" xlink:href="#DejaVuSans-52"/>
      </g>
     </g>
    </g>
    <g id="ytick_2">
     <g id="line2d_9">
      <g>
       <use style="stroke:#000000;stroke-width:0.8;" x="57.6" xlink:href="#m9be675de70" y="266.648831"/>
      </g>
     </g>
     <g id="text_9">
      <!-- 0.6 -->
      <defs>
       <path d="M 33.015625 40.375 
Q 26.375 40.375 22.484375 35.828125 
Q 18.609375 31.296875 18.609375 23.390625 
Q 18.609375 15.53125 22.484375 10.953125 
Q 26.375 6.390625 33.015625 6.390625 
Q 39.65625 6.390625 43.53125 10.953125 
Q 47.40625 15.53125 47.40625 23.390625 
Q 47.40625 31.296875 43.53125 35.828125 
Q 39.65625 40.375 33.015625 40.375 
z
M 52.59375 71.296875 
L 52.59375 62.3125 
Q 48.875 64.0625 45.09375 64.984375 
Q 41.3125 65.921875 37.59375 65.921875 
Q 27.828125 65.921875 22.671875 59.328125 
Q 17.53125 52.734375 16.796875 39.40625 
Q 19.671875 43.65625 24.015625 45.921875 
Q 28.375 48.1875 33.59375 48.1875 
Q 44.578125 48.1875 50.953125 41.515625 
Q 57.328125 34.859375 57.328125 23.390625 
Q 57.328125 12.15625 50.6875 5.359375 
Q 44.046875 -1.421875 33.015625 -1.421875 
Q 20.359375 -1.421875 13.671875 8.265625 
Q 6.984375 17.96875 6.984375 36.375 
Q 6.984375 53.65625 15.1875 63.9375 
Q 23.390625 74.21875 37.203125 74.21875 
Q 40.921875 74.21875 44.703125 73.484375 
Q 48.484375 72.75 52.59375 71.296875 
z
" id="DejaVuSans-54"/>
      </defs>
      <g transform="translate(34.696875 270.448049)scale(0.1 -0.1)">
       <use xlink:href="#DejaVuSans-48"/>
       <use x="63.623047" xlink:href="#DejaVuSans-46"/>
       <use x="95.410156" xlink:href="#DejaVuSans-54"/>
      </g>
     </g>
    </g>
    <g id="ytick_3">
     <g id="line2d_10">
      <g>
       <use style="stroke:#000000;stroke-width:0.8;" x="57.6" xlink:href="#m9be675de70" y="231.829223"/>
      </g>
     </g>
     <g id="text_10">
      <!-- 0.8 -->
      <defs>
       <path d="M 31.78125 34.625 
Q 24.75 34.625 20.71875 30.859375 
Q 16.703125 27.09375 16.703125 20.515625 
Q 16.703125 13.921875 20.71875 10.15625 
Q 24.75 6.390625 31.78125 6.390625 
Q 38.8125 6.390625 42.859375 10.171875 
Q 46.921875 13.96875 46.921875 20.515625 
Q 46.921875 27.09375 42.890625 30.859375 
Q 38.875 34.625 31.78125 34.625 
z
M 21.921875 38.8125 
Q 15.578125 40.375 12.03125 44.71875 
Q 8.5 49.078125 8.5 55.328125 
Q 8.5 64.0625 14.71875 69.140625 
Q 20.953125 74.21875 31.78125 74.21875 
Q 42.671875 74.21875 48.875 69.140625 
Q 55.078125 64.0625 55.078125 55.328125 
Q 55.078125 49.078125 51.53125 44.71875 
Q 48 40.375 41.703125 38.8125 
Q 48.828125 37.15625 52.796875 32.3125 
Q 56.78125 27.484375 56.78125 20.515625 
Q 56.78125 9.90625 50.3125 4.234375 
Q 43.84375 -1.421875 31.78125 -1.421875 
Q 19.734375 -1.421875 13.25 4.234375 
Q 6.78125 9.90625 6.78125 20.515625 
Q 6.78125 27.484375 10.78125 32.3125 
Q 14.796875 37.15625 21.921875 38.8125 
z
M 18.3125 54.390625 
Q 18.3125 48.734375 21.84375 45.5625 
Q 25.390625 42.390625 31.78125 42.390625 
Q 38.140625 42.390625 41.71875 45.5625 
Q 45.3125 48.734375 45.3125 54.390625 
Q 45.3125 60.0625 41.71875 63.234375 
Q 38.140625 66.40625 31.78125 66.40625 
Q 25.390625 66.40625 21.84375 63.234375 
Q 18.3125 60.0625 18.3125 54.390625 
z
" id="DejaVuSans-56"/>
      </defs>
      <g transform="translate(34.696875 235.628442)scale(0.1 -0.1)">
       <use xlink:href="#DejaVuSans-48"/>
       <use x="63.623047" xlink:href="#DejaVuSans-46"/>
       <use x="95.410156" xlink:href="#DejaVuSans-56"/>
      </g>
     </g>
    </g>
    <g id="ytick_4">
     <g id="line2d_11">
      <g>
       <use style="stroke:#000000;stroke-width:0.8;" x="57.6" xlink:href="#m9be675de70" y="197.009615"/>
      </g>
     </g>
     <g id="text_11">
      <!-- 1.0 -->
      <g transform="translate(34.696875 200.808834)scale(0.1 -0.1)">
       <use xlink:href="#DejaVuSans-49"/>
       <use x="63.623047" xlink:href="#DejaVuSans-46"/>
       <use x="95.410156" xlink:href="#DejaVuSans-48"/>
      </g>
     </g>
    </g>
    <g id="ytick_5">
     <g id="line2d_12">
      <g>
       <use style="stroke:#000000;stroke-width:0.8;" x="57.6" xlink:href="#m9be675de70" y="162.190008"/>
      </g>
     </g>
     <g id="text_12">
      <!-- 1.2 -->
      <g transform="translate(34.696875 165.989227)scale(0.1 -0.1)">
       <use xlink:href="#DejaVuSans-49"/>
       <use x="63.623047" xlink:href="#DejaVuSans-46"/>
       <use x="95.410156" xlink:href="#DejaVuSans-50"/>
      </g>
     </g>
    </g>
    <g id="ytick_6">
     <g id="line2d_13">
      <g>
       <use style="stroke:#000000;stroke-width:0.8;" x="57.6" xlink:href="#m9be675de70" y="127.3704"/>
      </g>
     </g>
     <g id="text_13">
      <!-- 1.4 -->
      <g transform="translate(34.696875 131.169619)scale(0.1 -0.1)">
       <use xlink:href="#DejaVuSans-49"/>
       <use x="63.623047" xlink:href="#DejaVuSans-46"/>
       <use x="95.410156" xlink:href="#DejaVuSans-52"/>
      </g>
     </g>
    </g>
    <g id="ytick_7">
     <g id="line2d_14">
      <g>
       <use style="stroke:#000000;stroke-width:0.8;" x="57.6" xlink:href="#m9be675de70" y="92.550793"/>
      </g>
     </g>
     <g id="text_14">
      <!-- 1.6 -->
      <g transform="translate(34.696875 96.350011)scale(0.1 -0.1)">
       <use xlink:href="#DejaVuSans-49"/>
       <use x="63.623047" xlink:href="#DejaVuSans-46"/>
       <use x="95.410156" xlink:href="#DejaVuSans-54"/>
      </g>
     </g>
    </g>
    <g id="ytick_8">
     <g id="line2d_15">
      <g>
       <use style="stroke:#000000;stroke-width:0.8;" x="57.6" xlink:href="#m9be675de70" y="57.731185"/>
      </g>
     </g>
     <g id="text_15">
      <!-- 1.8 -->
      <g transform="translate(34.696875 61.530404)scale(0.1 -0.1)">
       <use xlink:href="#DejaVuSans-49"/>
       <use x="63.623047" xlink:href="#DejaVuSans-46"/>
       <use x="95.410156" xlink:href="#DejaVuSans-56"/>
      </g>
     </g>
    </g>
    <g id="text_16">
     <!-- Distance -->
     <defs>
      <path d="M 19.671875 64.796875 
L 19.671875 8.109375 
L 31.59375 8.109375 
Q 46.6875 8.109375 53.6875 14.9375 
Q 60.6875 21.78125 60.6875 36.53125 
Q 60.6875 51.171875 53.6875 57.984375 
Q 46.6875 64.796875 31.59375 64.796875 
z
M 9.8125 72.90625 
L 30.078125 72.90625 
Q 51.265625 72.90625 61.171875 64.09375 
Q 71.09375 55.28125 71.09375 36.53125 
Q 71.09375 17.671875 61.125 8.828125 
Q 51.171875 0 30.078125 0 
L 9.8125 0 
z
" id="DejaVuSans-68"/>
      <path d="M 9.421875 54.6875 
L 18.40625 54.6875 
L 18.40625 0 
L 9.421875 0 
z
M 9.421875 75.984375 
L 18.40625 75.984375 
L 18.40625 64.59375 
L 9.421875 64.59375 
z
" id="DejaVuSans-105"/>
      <path d="M 44.28125 53.078125 
L 44.28125 44.578125 
Q 40.484375 46.53125 36.375 47.5 
Q 32.28125 48.484375 27.875 48.484375 
Q 21.1875 48.484375 17.84375 46.4375 
Q 14.5 44.390625 14.5 40.28125 
Q 14.5 37.15625 16.890625 35.375 
Q 19.28125 33.59375 26.515625 31.984375 
L 29.59375 31.296875 
Q 39.15625 29.25 43.1875 25.515625 
Q 47.21875 21.78125 47.21875 15.09375 
Q 47.21875 7.46875 41.1875 3.015625 
Q 35.15625 -1.421875 24.609375 -1.421875 
Q 20.21875 -1.421875 15.453125 -0.5625 
Q 10.6875 0.296875 5.421875 2 
L 5.421875 11.28125 
Q 10.40625 8.6875 15.234375 7.390625 
Q 20.0625 6.109375 24.8125 6.109375 
Q 31.15625 6.109375 34.5625 8.28125 
Q 37.984375 10.453125 37.984375 14.40625 
Q 37.984375 18.0625 35.515625 20.015625 
Q 33.0625 21.96875 24.703125 23.78125 
L 21.578125 24.515625 
Q 13.234375 26.265625 9.515625 29.90625 
Q 5.8125 33.546875 5.8125 39.890625 
Q 5.8125 47.609375 11.28125 51.796875 
Q 16.75 56 26.8125 56 
Q 31.78125 56 36.171875 55.265625 
Q 40.578125 54.546875 44.28125 53.078125 
z
" id="DejaVuSans-115"/>
      <path d="M 18.3125 70.21875 
L 18.3125 54.6875 
L 36.8125 54.6875 
L 36.8125 47.703125 
L 18.3125 47.703125 
L 18.3125 18.015625 
Q 18.3125 11.328125 20.140625 9.421875 
Q 21.96875 7.515625 27.59375 7.515625 
L 36.8125 7.515625 
L 36.8125 0 
L 27.59375 0 
Q 17.1875 0 13.234375 3.875 
Q 9.28125 7.765625 9.28125 18.015625 
L 9.28125 47.703125 
L 2.6875 47.703125 
L 2.6875 54.6875 
L 9.28125 54.6875 
L 9.28125 70.21875 
z
" id="DejaVuSans-116"/>
      <path d="M 34.28125 27.484375 
Q 23.390625 27.484375 19.1875 25 
Q 14.984375 22.515625 14.984375 16.5 
Q 14.984375 11.71875 18.140625 8.90625 
Q 21.296875 6.109375 26.703125 6.109375 
Q 34.1875 6.109375 38.703125 11.40625 
Q 43.21875 16.703125 43.21875 25.484375 
L 43.21875 27.484375 
z
M 52.203125 31.203125 
L 52.203125 0 
L 43.21875 0 
L 43.21875 8.296875 
Q 40.140625 3.328125 35.546875 0.953125 
Q 30.953125 -1.421875 24.3125 -1.421875 
Q 15.921875 -1.421875 10.953125 3.296875 
Q 6 8.015625 6 15.921875 
Q 6 25.140625 12.171875 29.828125 
Q 18.359375 34.515625 30.609375 34.515625 
L 43.21875 34.515625 
L 43.21875 35.40625 
Q 43.21875 41.609375 39.140625 45 
Q 35.0625 48.390625 27.6875 48.390625 
Q 23 48.390625 18.546875 47.265625 
Q 14.109375 46.140625 10.015625 43.890625 
L 10.015625 52.203125 
Q 14.9375 54.109375 19.578125 55.046875 
Q 24.21875 56 28.609375 56 
Q 40.484375 56 46.34375 49.84375 
Q 52.203125 43.703125 52.203125 31.203125 
z
" id="DejaVuSans-97"/>
      <path d="M 54.890625 33.015625 
L 54.890625 0 
L 45.90625 0 
L 45.90625 32.71875 
Q 45.90625 40.484375 42.875 44.328125 
Q 39.84375 48.1875 33.796875 48.1875 
Q 26.515625 48.1875 22.3125 43.546875 
Q 18.109375 38.921875 18.109375 30.90625 
L 18.109375 0 
L 9.078125 0 
L 9.078125 54.6875 
L 18.109375 54.6875 
L 18.109375 46.1875 
Q 21.34375 51.125 25.703125 53.5625 
Q 30.078125 56 35.796875 56 
Q 45.21875 56 50.046875 50.171875 
Q 54.890625 44.34375 54.890625 33.015625 
z
" id="DejaVuSans-110"/>
      <path d="M 48.78125 52.59375 
L 48.78125 44.1875 
Q 44.96875 46.296875 41.140625 47.34375 
Q 37.3125 48.390625 33.40625 48.390625 
Q 24.65625 48.390625 19.8125 42.84375 
Q 14.984375 37.3125 14.984375 27.296875 
Q 14.984375 17.28125 19.8125 11.734375 
Q 24.65625 6.203125 33.40625 6.203125 
Q 37.3125 6.203125 41.140625 7.25 
Q 44.96875 8.296875 48.78125 10.40625 
L 48.78125 2.09375 
Q 45.015625 0.34375 40.984375 -0.53125 
Q 36.96875 -1.421875 32.421875 -1.421875 
Q 20.0625 -1.421875 12.78125 6.34375 
Q 5.515625 14.109375 5.515625 27.296875 
Q 5.515625 40.671875 12.859375 48.328125 
Q 20.21875 56 33.015625 56 
Q 37.15625 56 41.109375 55.140625 
Q 45.0625 54.296875 48.78125 52.59375 
z
" id="DejaVuSans-99"/>
      <path d="M 56.203125 29.59375 
L 56.203125 25.203125 
L 14.890625 25.203125 
Q 15.484375 15.921875 20.484375 11.0625 
Q 25.484375 6.203125 34.421875 6.203125 
Q 39.59375 6.203125 44.453125 7.46875 
Q 49.3125 8.734375 54.109375 11.28125 
L 54.109375 2.78125 
Q 49.265625 0.734375 44.1875 -0.34375 
Q 39.109375 -1.421875 33.890625 -1.421875 
Q 20.796875 -1.421875 13.15625 6.1875 
Q 5.515625 13.8125 5.515625 26.8125 
Q 5.515625 40.234375 12.765625 48.109375 
Q 20.015625 56 32.328125 56 
Q 43.359375 56 49.78125 48.890625 
Q 56.203125 41.796875 56.203125 29.59375 
z
M 47.21875 32.234375 
Q 47.125 39.59375 43.09375 43.984375 
Q 39.0625 48.390625 32.421875 48.390625 
Q 24.90625 48.390625 20.390625 44.140625 
Q 15.875 39.890625 15.1875 32.171875 
z
" id="DejaVuSans-101"/>
     </defs>
     <g transform="translate(28.617187 196.3905)rotate(-90)scale(0.1 -0.1)">
      <use xlink:href="#DejaVuSans-68"/>
      <use x="77.001953" xlink:href="#DejaVuSans-105"/>
      <use x="104.785156" xlink:href="#DejaVuSans-115"/>
      <use x="156.884766" xlink:href="#DejaVuSans-116"/>
      <use x="196.09375" xlink:href="#DejaVuSans-97"/>
      <use x="257.373047" xlink:href="#DejaVuSans-110"/>
      <use x="320.751953" xlink:href="#DejaVuSans-99"/>
      <use x="375.732422" xlink:href="#DejaVuSans-101"/>
     </g>
    </g>
   </g>
   <g id="line2d_16">
    <path clip-path="url(#p79f5dfd67a)" d="M 73.832727 59.933602 
L 74.918528 84.258993 
L 76.00433 146.09581 
L 78.175932 167.623933 
L 79.261733 152.768542 
L 80.347534 166.767409 
L 81.433335 169.272249 
L 82.519137 168.964303 
L 83.604938 159.528861 
L 84.690739 156.13856 
L 85.77654 136.793414 
L 86.862341 132.736852 
L 87.948142 144.06554 
L 89.033943 160.558569 
L 90.119745 179.687073 
L 91.205546 186.919474 
L 92.291347 174.077796 
L 93.377148 178.999304 
L 94.462949 181.292359 
L 95.54875 179.58161 
L 96.634552 203.116235 
L 97.720353 191.063999 
L 98.806154 196.340225 
L 99.891955 194.156973 
L 100.977756 226.34453 
L 102.063557 218.613279 
L 103.149358 223.670071 
L 104.23516 220.618803 
L 105.320961 219.892549 
L 106.406762 211.613884 
L 107.492563 204.820639 
L 108.578364 204.093976 
L 109.664165 207.633236 
L 110.749967 215.101989 
L 111.835768 255.124109 
L 112.921569 264.991801 
L 114.00737 213.956555 
L 115.093171 229.580917 
L 116.178972 261.489146 
L 117.264773 256.491903 
L 118.350575 259.650154 
L 119.436376 239.288764 
L 120.522177 249.626445 
L 121.607978 210.820082 
L 122.693779 209.806003 
L 123.77958 236.183805 
L 124.865382 221.462722 
L 125.951183 234.427172 
L 127.036984 237.348927 
L 128.122785 213.829282 
L 129.208586 193.254453 
L 130.294387 210.490611 
L 131.380189 185.719978 
L 132.46599 183.945891 
L 133.551791 172.568762 
L 134.637592 177.439097 
L 135.723393 195.409824 
L 136.809194 192.918108 
L 138.980797 182.365592 
L 140.066598 172.38854 
L 141.152399 174.804869 
L 142.2382 162.336767 
L 143.324001 198.559856 
L 144.409802 179.131508 
L 145.495604 171.230765 
L 146.581405 166.012128 
L 147.667206 160.215515 
L 148.753007 166.541364 
L 149.838808 172.040552 
L 150.924609 172.266935 
L 152.01041 175.522818 
L 153.096212 193.966964 
L 154.182013 214.568287 
L 155.267814 200.763741 
L 157.439416 199.285741 
L 158.525217 161.91489 
L 159.611019 196.521316 
L 160.69682 177.552602 
L 161.782621 178.983168 
L 162.868422 173.952865 
L 163.954223 211.575671 
L 165.040024 222.347407 
L 166.125825 231.085823 
L 167.211627 233.877273 
L 168.297428 236.996072 
L 169.383229 253.085611 
L 170.46903 241.406741 
L 171.554831 238.270592 
L 172.640632 256.570039 
L 173.726434 244.225643 
L 174.812235 237.264529 
L 175.898036 212.799431 
L 176.983837 207.315096 
L 178.069638 203.338571 
L 179.155439 194.186693 
L 180.24124 171.783319 
L 181.327042 198.821257 
L 182.412843 178.49044 
L 183.498644 164.210249 
L 184.584445 219.845059 
L 185.670246 215.557187 
L 186.756047 235.130446 
L 187.841849 221.182599 
L 188.92765 225.820289 
L 190.013451 209.324632 
L 191.099252 205.526756 
L 192.185053 184.329243 
L 193.270854 203.295271 
L 194.356656 182.597988 
L 195.442457 188.775228 
L 196.528258 246.862006 
L 197.614059 235.442353 
L 198.69986 257.932582 
L 199.785661 233.478275 
L 200.871462 245.740231 
L 201.957264 245.651787 
L 203.043065 213.314549 
L 204.128866 212.150744 
L 205.214667 248.177987 
L 206.300468 239.913535 
L 207.386269 248.382782 
L 208.472071 209.658373 
L 209.557872 215.079967 
L 210.643673 217.302494 
L 211.729474 202.30856 
L 212.815275 228.832434 
L 213.901076 227.826702 
L 214.986877 280.890981 
L 216.072679 254.41125 
L 217.15848 248.798273 
L 219.330082 220.207198 
L 220.415883 221.866968 
L 221.501684 242.527356 
L 222.587486 255.50988 
L 223.673287 220.859711 
L 224.759088 193.704385 
L 225.844889 252.868368 
L 226.93069 230.28321 
L 228.016491 218.187769 
L 229.102292 187.006525 
L 230.188094 199.750642 
L 231.273895 188.43003 
L 232.359696 179.306839 
L 233.445497 224.353763 
L 234.531298 255.955253 
L 235.617099 247.01225 
L 236.702901 260.391136 
L 237.788702 259.24302 
L 238.874503 252.102487 
L 239.960304 227.6043 
L 241.046105 252.233441 
L 242.131906 271.936868 
L 243.217708 247.105155 
L 244.303509 218.219482 
L 245.38931 238.730243 
L 246.475111 222.517228 
L 247.560912 201.537692 
L 248.646713 221.962656 
L 249.732514 234.975802 
L 250.818316 214.63058 
L 251.904117 213.385677 
L 252.989918 270.411436 
L 254.075719 219.278668 
L 255.16152 235.8497 
L 256.247321 229.853143 
L 257.333123 206.863432 
L 258.418924 206.619811 
L 259.504725 193.175185 
L 260.590526 235.454921 
L 261.676327 221.076354 
L 262.762128 218.999475 
L 263.847929 210.502561 
L 264.933731 206.152534 
L 266.019532 226.217197 
L 267.105333 213.848156 
L 268.191134 215.345279 
L 269.276935 199.871443 
L 270.362736 179.644606 
L 271.448538 165.495029 
L 272.534339 168.882232 
L 274.705941 210.703651 
L 275.791742 209.786615 
L 276.877543 224.915741 
L 277.963344 224.723918 
L 279.049146 232.863783 
L 280.134947 230.612969 
L 282.306549 171.043396 
L 283.39235 168.492436 
L 284.478151 148.791832 
L 285.563953 178.376742 
L 286.649754 203.056594 
L 287.735555 238.924213 
L 288.821356 211.777919 
L 289.907157 217.437753 
L 290.992958 226.924232 
L 292.07876 210.81448 
L 293.164561 200.955476 
L 294.250362 202.581092 
L 295.336163 217.811115 
L 296.421964 206.553687 
L 297.507765 182.108849 
L 298.593566 202.979788 
L 299.679368 195.599512 
L 300.765169 215.359915 
L 301.85097 218.727378 
L 302.936771 208.343554 
L 304.022572 217.983868 
L 305.108373 205.228326 
L 306.194175 190.984408 
L 307.279976 190.153108 
L 308.365777 186.19985 
L 309.451578 171.13193 
L 310.537379 198.138313 
L 311.62318 245.595791 
L 312.708981 211.179102 
L 314.880584 257.822191 
L 315.966385 237.36273 
L 317.052186 231.523002 
L 318.137987 210.303812 
L 319.223788 201.124815 
L 320.30959 179.04877 
L 321.395391 185.285194 
L 322.481192 209.941632 
L 323.566993 199.357295 
L 324.652794 208.833043 
L 325.738595 203.966417 
L 326.824396 222.155966 
L 327.910198 220.335503 
L 330.0818 178.679243 
L 331.167601 183.436033 
L 332.253402 185.856706 
L 333.339203 200.134573 
L 334.425005 201.339147 
L 335.510806 210.376325 
L 336.596607 209.023446 
L 337.682408 187.214974 
L 338.768209 180.411103 
L 339.85401 189.343061 
L 340.939811 189.280119 
L 342.025613 209.72014 
L 343.111414 221.093644 
L 344.197215 198.060004 
L 345.283016 197.317784 
L 346.368817 194.237997 
L 347.454618 205.311198 
L 348.54042 212.209782 
L 349.626221 232.905077 
L 350.712022 201.323694 
L 351.797823 191.223297 
L 352.883624 201.436352 
L 353.969425 185.248861 
L 355.055227 191.492162 
L 356.141028 176.869436 
L 357.226829 180.86833 
L 358.31263 195.424782 
L 359.398431 198.849139 
L 360.484232 179.840393 
L 361.570033 186.094883 
L 362.655835 194.040201 
L 363.741636 206.620974 
L 364.827437 187.987213 
L 365.913238 190.370695 
L 366.999039 168.693659 
L 368.08484 187.091188 
L 369.170642 198.862278 
L 370.256443 182.463801 
L 371.342244 185.290071 
L 372.428045 183.516177 
L 373.513846 188.187242 
L 374.599647 190.623146 
L 375.685448 205.869673 
L 376.77125 175.877296 
L 377.857051 208.108462 
L 378.942852 189.417798 
L 380.028653 187.926593 
L 381.114454 186.663663 
L 382.200255 183.706064 
L 383.286057 169.674685 
L 384.371858 157.13089 
L 385.457659 151.771039 
L 386.54346 195.790562 
L 387.629261 173.103889 
L 388.715062 174.844665 
L 389.800863 159.106104 
L 390.886665 158.603969 
L 391.972466 170.084283 
L 393.058267 161.667237 
L 394.144068 160.343792 
L 395.229869 165.208191 
L 396.31567 160.235924 
L 397.401472 166.891612 
L 398.487273 162.943678 
L 398.487273 162.943678 
" style="fill:none;stroke:#0000ff;stroke-linecap:square;stroke-width:1.5;"/>
   </g>
   <g id="patch_3">
    <path d="M 57.6 307.584 
L 57.6 41.472 
" style="fill:none;stroke:#000000;stroke-linecap:square;stroke-linejoin:miter;stroke-width:0.8;"/>
   </g>
   <g id="patch_4">
    <path d="M 414.72 307.584 
L 414.72 41.472 
" style="fill:none;stroke:#000000;stroke-linecap:square;stroke-linejoin:miter;stroke-width:0.8;"/>
   </g>
   <g id="patch_5">
    <path d="M 57.6 307.584 
L 414.72 307.584 
" style="fill:none;stroke:#000000;stroke-linecap:square;stroke-linejoin:miter;stroke-width:0.8;"/>
   </g>
   <g id="patch_6">
    <path d="M 57.6 41.472 
L 414.72 41.472 
" style="fill:none;stroke:#000000;stroke-linecap:square;stroke-linejoin:miter;stroke-width:0.8;"/>
   </g>
  </g>
  <g id="axes_2">
   <g id="PolyCollection_2">
    <path clip-path="url(#p79f5dfd67a)" d="M 73.832727 53.568 
L 73.832727 259.096182 
L 74.918528 260.434203 
L 76.00433 278.595745 
L 77.090131 280.836336 
L 78.175932 281.432734 
L 79.261733 281.847746 
L 80.347534 284.453579 
L 81.433335 285.270498 
L 82.519137 282.527049 
L 83.604938 279.780469 
L 84.690739 280.059462 
L 85.77654 271.180477 
L 86.862341 277.987296 
L 87.948142 280.253532 
L 89.033943 285.190473 
L 90.119745 286.037749 
L 91.205546 285.061842 
L 92.291347 284.443048 
L 93.377148 287.530135 
L 94.462949 286.204941 
L 95.54875 286.483037 
L 96.634552 289.460277 
L 97.720353 287.774535 
L 98.806154 290.13821 
L 99.891955 289.252828 
L 100.977756 292.472616 
L 102.063557 291.805968 
L 103.149358 291.292761 
L 104.23516 291.919551 
L 105.320961 292.077972 
L 106.406762 292.049551 
L 107.492563 291.20025 
L 108.578364 290.808777 
L 109.664165 291.172953 
L 110.749967 291.617717 
L 111.835768 294.558763 
L 112.921569 294.405856 
L 114.00737 292.408235 
L 115.093171 293.351609 
L 116.178972 294.581596 
L 117.264773 293.697913 
L 118.350575 294.274624 
L 119.436376 294.706304 
L 120.522177 294.660336 
L 121.607978 293.252826 
L 122.693779 293.426204 
L 123.77958 293.527782 
L 124.865382 292.798384 
L 125.951183 293.874141 
L 127.036984 293.483018 
L 128.122785 293.0202 
L 129.208586 293.311395 
L 130.294387 291.779 
L 131.380189 290.349079 
L 132.46599 290.551079 
L 133.551791 289.745927 
L 134.637592 291.22521 
L 135.723393 292.408057 
L 136.809194 291.493677 
L 137.894995 293.115413 
L 138.980797 291.692799 
L 140.066598 290.379921 
L 141.152399 289.097712 
L 142.2382 287.662154 
L 143.324001 291.088906 
L 144.409802 289.742092 
L 145.495604 288.019329 
L 146.581405 288.678336 
L 147.667206 290.388434 
L 148.753007 291.871825 
L 149.838808 290.079092 
L 150.924609 290.591928 
L 152.01041 290.916639 
L 153.096212 291.904873 
L 154.182013 291.895412 
L 155.267814 291.750566 
L 156.353615 292.416825 
L 157.439416 291.484253 
L 158.525217 290.856175 
L 159.611019 292.565577 
L 160.69682 291.124733 
L 161.782621 291.624973 
L 162.868422 292.383953 
L 163.954223 293.940417 
L 165.040024 294.116891 
L 166.125825 294.549423 
L 167.211627 294.361506 
L 168.297428 294.651548 
L 169.383229 295.075204 
L 170.46903 295.110554 
L 171.554831 295.488 
L 172.640632 294.606293 
L 173.726434 294.984246 
L 174.812235 295.186967 
L 175.898036 293.531087 
L 176.983837 293.177917 
L 178.069638 292.65308 
L 179.155439 291.202146 
L 180.24124 289.074384 
L 181.327042 288.277507 
L 182.412843 289.644592 
L 183.498644 290.90456 
L 184.584445 293.644587 
L 185.670246 293.625489 
L 186.756047 294.642774 
L 187.841849 294.951134 
L 188.92765 294.822286 
L 190.013451 294.665167 
L 191.099252 293.423095 
L 192.185053 292.311803 
L 193.270854 293.751323 
L 194.356656 293.387475 
L 195.442457 290.725987 
L 196.528258 292.682183 
L 197.614059 294.079607 
L 198.69986 294.835683 
L 199.785661 294.591643 
L 200.871462 293.679414 
L 201.957264 293.319532 
L 203.043065 291.906274 
L 204.128866 290.868229 
L 205.214667 292.447068 
L 206.300468 293.673417 
L 207.386269 292.890991 
L 208.472071 292.73769 
L 209.557872 291.413107 
L 210.643673 291.83248 
L 211.729474 289.928072 
L 212.815275 292.906842 
L 213.901076 292.647583 
L 214.986877 294.917132 
L 216.072679 293.92692 
L 217.15848 293.028677 
L 218.244281 293.632355 
L 219.330082 290.589136 
L 220.415883 289.606656 
L 221.501684 293.574029 
L 222.587486 294.420938 
L 223.673287 292.320414 
L 224.759088 291.041143 
L 225.844889 293.072184 
L 226.93069 292.918398 
L 228.016491 292.499317 
L 229.102292 292.609585 
L 230.188094 293.160028 
L 231.273895 292.953347 
L 232.359696 290.162386 
L 233.445497 293.770147 
L 234.531298 294.447834 
L 235.617099 295.354426 
L 236.702901 294.961268 
L 237.788702 294.445827 
L 238.874503 294.799314 
L 239.960304 294.554532 
L 241.046105 294.881826 
L 242.131906 295.242905 
L 243.217708 294.660537 
L 244.303509 292.909378 
L 245.38931 293.469388 
L 246.475111 293.182355 
L 247.560912 291.392835 
L 248.646713 291.495465 
L 249.732514 292.349729 
L 250.818316 292.705857 
L 251.904117 292.319553 
L 252.989918 293.758287 
L 254.075719 293.624078 
L 255.16152 293.428009 
L 256.247321 293.779171 
L 257.333123 293.270263 
L 258.418924 291.496329 
L 259.504725 292.899048 
L 260.590526 292.429041 
L 261.676327 291.747549 
L 262.762128 291.611329 
L 263.847929 291.118531 
L 264.933731 292.433996 
L 266.019532 291.530762 
L 267.105333 289.456248 
L 268.191134 289.558997 
L 269.276935 288.733946 
L 270.362736 289.425924 
L 271.448538 284.71768 
L 272.534339 288.21915 
L 273.62014 289.601345 
L 274.705941 292.180413 
L 275.791742 291.668711 
L 276.877543 291.880842 
L 277.963344 292.378339 
L 279.049146 291.481213 
L 280.134947 292.368343 
L 281.220748 289.035007 
L 282.306549 285.452458 
L 283.39235 287.361567 
L 284.478151 285.473557 
L 285.563953 288.147111 
L 286.649754 289.84896 
L 287.735555 291.371054 
L 288.821356 290.633121 
L 289.907157 290.132249 
L 290.992958 289.988861 
L 292.07876 290.961594 
L 293.164561 289.816909 
L 294.250362 289.391317 
L 295.336163 290.805686 
L 296.421964 289.892643 
L 297.507765 291.094695 
L 298.593566 288.415388 
L 299.679368 288.721692 
L 300.765169 289.142807 
L 301.85097 289.593785 
L 302.936771 289.888333 
L 304.022572 290.473738 
L 305.108373 289.765298 
L 306.194175 288.345788 
L 307.279976 288.921858 
L 308.365777 288.517407 
L 309.451578 287.210972 
L 310.537379 290.198173 
L 311.62318 291.595485 
L 312.708981 291.811467 
L 313.794783 292.903064 
L 314.880584 293.231996 
L 315.966385 291.856037 
L 317.052186 292.163006 
L 318.137987 290.297254 
L 319.223788 287.894207 
L 320.30959 284.613259 
L 321.395391 286.798017 
L 322.481192 289.716887 
L 323.566993 289.947831 
L 324.652794 290.502783 
L 325.738595 291.456089 
L 326.824396 291.157316 
L 327.910198 291.58671 
L 328.995999 288.842963 
L 330.0818 286.702701 
L 331.167601 287.546991 
L 332.253402 291.375049 
L 333.339203 292.231575 
L 334.425005 290.998137 
L 335.510806 290.73997 
L 336.596607 289.932809 
L 337.682408 291.141196 
L 338.768209 287.711763 
L 339.85401 290.602588 
L 340.939811 290.53888 
L 342.025613 290.794162 
L 343.111414 292.255125 
L 344.197215 292.211948 
L 345.283016 291.881873 
L 346.368817 292.638676 
L 347.454618 291.243469 
L 348.54042 289.467419 
L 349.626221 291.031328 
L 350.712022 290.024235 
L 351.797823 291.301642 
L 352.883624 291.740693 
L 353.969425 290.291795 
L 355.055227 292.013493 
L 356.141028 286.90114 
L 357.226829 279.735471 
L 358.31263 282.185768 
L 359.398431 286.876046 
L 360.484232 284.347953 
L 361.570033 290.481445 
L 362.655835 291.594402 
L 363.741636 292.402093 
L 364.827437 289.997186 
L 365.913238 289.056125 
L 366.999039 287.579867 
L 368.08484 287.495832 
L 369.170642 286.977726 
L 370.256443 286.87546 
L 371.342244 287.873616 
L 372.428045 286.866771 
L 373.513846 289.887688 
L 374.599647 288.745642 
L 375.685448 291.24298 
L 376.77125 288.500537 
L 377.857051 290.74225 
L 378.942852 291.193951 
L 380.028653 290.876699 
L 381.114454 290.131288 
L 382.200255 290.352641 
L 383.286057 289.498988 
L 384.371858 290.051123 
L 385.457659 287.775301 
L 386.54346 290.932478 
L 387.629261 289.474074 
L 388.715062 287.951931 
L 389.800863 288.895415 
L 390.886665 287.496629 
L 391.972466 287.077129 
L 393.058267 286.843362 
L 394.144068 286.997877 
L 395.229869 287.690127 
L 396.31567 286.793112 
L 397.401472 287.003398 
L 398.487273 285.022874 
L 398.487273 94.809296 
L 398.487273 94.809296 
L 397.401472 102.520216 
L 396.31567 100.107493 
L 395.229869 98.306756 
L 394.144068 101.033149 
L 393.058267 101.111389 
L 391.972466 100.962872 
L 390.886665 101.875954 
L 389.800863 106.731527 
L 388.715062 106.150261 
L 387.629261 105.981153 
L 386.54346 107.639584 
L 385.457659 95.773705 
L 384.371858 102.463323 
L 383.286057 99.894139 
L 382.200255 106.914895 
L 381.114454 105.87867 
L 380.028653 111.197406 
L 378.942852 108.974514 
L 377.857051 109.67744 
L 376.77125 94.77603 
L 375.685448 109.758489 
L 374.599647 104.517009 
L 373.513846 106.912809 
L 372.428045 94.720331 
L 371.342244 100.07568 
L 370.256443 97.029487 
L 369.170642 100.709927 
L 368.08484 98.781338 
L 366.999039 100.335339 
L 365.913238 104.967481 
L 364.827437 101.657955 
L 363.741636 107.744599 
L 362.655835 108.397519 
L 361.570033 105.860282 
L 360.484232 82.435108 
L 359.398431 87.282038 
L 358.31263 76.385635 
L 357.226829 71.784536 
L 356.141028 87.860244 
L 355.055227 105.968805 
L 353.969425 105.37037 
L 352.883624 115.012918 
L 351.797823 109.922227 
L 350.712022 107.341848 
L 349.626221 115.847543 
L 348.54042 113.492446 
L 347.454618 116.277136 
L 346.368817 119.068954 
L 345.283016 117.209402 
L 344.197215 119.458363 
L 343.111414 122.619506 
L 342.025613 111.011682 
L 340.939811 112.159769 
L 339.85401 109.44585 
L 338.768209 92.364841 
L 337.682408 108.751585 
L 336.596607 101.507022 
L 335.510806 103.148637 
L 334.425005 103.645524 
L 333.339203 114.136071 
L 332.253402 109.735841 
L 331.167601 95.616507 
L 330.0818 89.926429 
L 328.995999 100.145454 
L 327.910198 117.142244 
L 326.824396 122.877536 
L 325.738595 112.753284 
L 324.652794 113.180096 
L 323.566993 115.21436 
L 322.481192 117.771413 
L 321.395391 98.084254 
L 320.30959 89.089025 
L 319.223788 97.161096 
L 318.137987 116.808284 
L 317.052186 117.566617 
L 315.966385 117.376007 
L 314.880584 121.472351 
L 313.794783 118.941525 
L 312.708981 114.19207 
L 311.62318 116.077377 
L 310.537379 103.775897 
L 309.451578 100.825223 
L 308.365777 100.559905 
L 307.279976 100.776037 
L 306.194175 102.566598 
L 305.108373 109.931478 
L 304.022572 115.767305 
L 302.936771 113.954009 
L 301.85097 115.427363 
L 300.765169 118.770327 
L 299.679368 106.486101 
L 298.593566 107.59203 
L 297.507765 111.89806 
L 296.421964 110.144605 
L 295.336163 117.767741 
L 294.250362 107.637331 
L 293.164561 107.435009 
L 292.07876 107.418827 
L 290.992958 109.68084 
L 289.907157 107.024013 
L 288.821356 116.109249 
L 287.735555 114.074927 
L 286.649754 107.734061 
L 285.563953 104.10256 
L 284.478151 92.108898 
L 283.39235 104.386846 
L 282.306549 94.203499 
L 281.220748 107.77284 
L 280.134947 119.290735 
L 279.049146 116.601561 
L 277.963344 114.991033 
L 276.877543 111.887548 
L 275.791742 109.165763 
L 274.705941 111.064359 
L 273.62014 97.724028 
L 272.534339 94.618439 
L 271.448538 85.375173 
L 270.362736 100.41921 
L 269.276935 107.001596 
L 268.191134 110.241908 
L 267.105333 105.602939 
L 266.019532 115.821364 
L 264.933731 126.136226 
L 263.847929 120.070503 
L 262.762128 113.963109 
L 261.676327 124.782518 
L 260.590526 119.458372 
L 259.504725 111.174095 
L 258.418924 108.416097 
L 257.333123 113.717986 
L 256.247321 120.207154 
L 255.16152 124.710652 
L 254.075719 120.618476 
L 252.989918 128.413178 
L 251.904117 120.178528 
L 250.818316 119.413548 
L 249.732514 119.041587 
L 248.646713 115.108712 
L 247.560912 116.967913 
L 246.475111 123.428339 
L 245.38931 119.717224 
L 244.303509 115.92818 
L 243.217708 126.1222 
L 242.131906 125.853722 
L 241.046105 126.327485 
L 239.960304 121.858087 
L 238.874503 127.042484 
L 237.788702 120.94032 
L 236.702901 123.731962 
L 235.617099 127.372665 
L 234.531298 125.517759 
L 233.445497 115.817069 
L 232.359696 101.994345 
L 231.273895 112.899823 
L 230.188094 118.340375 
L 229.102292 112.935169 
L 228.016491 112.861959 
L 226.93069 115.595825 
L 225.844889 119.936858 
L 224.759088 103.560834 
L 223.673287 112.669337 
L 222.587486 121.664213 
L 221.501684 122.503298 
L 220.415883 98.346762 
L 219.330082 109.825689 
L 218.244281 117.72008 
L 217.15848 120.921255 
L 216.072679 124.550147 
L 214.986877 120.536709 
L 213.901076 113.586192 
L 212.815275 116.28154 
L 211.729474 101.396797 
L 210.643673 106.116644 
L 209.557872 104.361553 
L 208.472071 107.960707 
L 207.386269 117.953456 
L 206.300468 121.344072 
L 205.214667 118.358423 
L 204.128866 104.989557 
L 203.043065 112.670108 
L 201.957264 117.002126 
L 200.871462 119.973105 
L 199.785661 127.916527 
L 198.69986 126.558817 
L 197.614059 117.871972 
L 196.528258 116.027966 
L 195.442457 108.022796 
L 194.356656 118.603917 
L 193.270854 117.55273 
L 192.185053 116.149422 
L 191.099252 119.689283 
L 190.013451 125.024352 
L 188.92765 127.819862 
L 187.841849 129.840914 
L 186.756047 132.061878 
L 185.670246 127.343676 
L 184.584445 121.662385 
L 183.498644 104.983998 
L 182.412843 101.93381 
L 181.327042 97.11915 
L 180.24124 98.539215 
L 179.155439 113.522077 
L 178.069638 120.06544 
L 176.983837 121.722228 
L 175.898036 120.896054 
L 174.812235 130.155784 
L 173.726434 134.716753 
L 172.640632 129.366814 
L 171.554831 132.632643 
L 170.46903 135.239255 
L 169.383229 134.840067 
L 168.297428 136.781108 
L 167.211627 131.071315 
L 166.125825 132.801244 
L 165.040024 124.651978 
L 163.954223 130.26729 
L 162.868422 114.650832 
L 161.782621 116.559924 
L 160.69682 117.264747 
L 159.611019 125.837271 
L 158.525217 108.70578 
L 157.439416 124.094229 
L 156.353615 125.863543 
L 155.267814 124.319477 
L 154.182013 125.21372 
L 153.096212 122.06454 
L 152.01041 109.297427 
L 150.924609 101.47077 
L 149.838808 105.068322 
L 148.753007 114.365354 
L 147.667206 103.124337 
L 146.581405 96.279601 
L 145.495604 95.230639 
L 144.409802 103.863281 
L 143.324001 120.921593 
L 142.2382 100.83879 
L 141.152399 102.535992 
L 140.066598 109.161596 
L 138.980797 116.530383 
L 137.894995 117.462299 
L 136.809194 117.48844 
L 135.723393 113.61717 
L 134.637592 110.620686 
L 133.551791 109.167849 
L 132.46599 104.193822 
L 131.380189 102.251969 
L 130.294387 109.252519 
L 129.208586 109.184615 
L 128.122785 113.167868 
L 127.036984 117.037053 
L 125.951183 124.934184 
L 124.865382 119.618381 
L 123.77958 120.004346 
L 122.693779 117.169197 
L 121.607978 118.088672 
L 120.522177 122.987339 
L 119.436376 119.995292 
L 118.350575 122.882186 
L 117.264773 119.991779 
L 116.178972 127.203079 
L 115.093171 127.493928 
L 114.00737 120.001702 
L 112.921569 125.9787 
L 111.835768 128.978121 
L 110.749967 111.931483 
L 109.664165 114.56785 
L 108.578364 113.579743 
L 107.492563 113.816757 
L 106.406762 119.20837 
L 105.320961 119.234006 
L 104.23516 120.184697 
L 103.149358 113.298803 
L 102.063557 117.532652 
L 100.977756 116.793796 
L 99.891955 103.473141 
L 98.806154 110.235357 
L 97.720353 100.368441 
L 96.634552 107.458033 
L 95.54875 94.943911 
L 94.462949 97.503432 
L 93.377148 108.457685 
L 92.291347 102.08811 
L 91.205546 98.359193 
L 90.119745 105.860573 
L 89.033943 99.011827 
L 87.948142 80.73345 
L 86.862341 77.754785 
L 85.77654 67.18466 
L 84.690739 86.514725 
L 83.604938 88.110127 
L 82.519137 98.086162 
L 81.433335 113.866587 
L 80.347534 109.247724 
L 79.261733 102.089431 
L 78.175932 102.972005 
L 77.090131 100.341862 
L 76.00433 88.170467 
L 74.918528 54.739822 
L 73.832727 53.568 
z
" style="fill:#008000;fill-opacity:0.25;"/>
   </g>
   <g id="matplotlib.axis_3">
    <g id="ytick_9">
     <g id="line2d_17">
      <path clip-path="url(#p79f5dfd67a)" d="M 57.6 294.522882 
L 414.72 294.522882 
" style="fill:none;stroke:#b0b0b0;stroke-linecap:square;stroke-width:0.8;"/>
     </g>
     <g id="line2d_18">
      <defs>
       <path d="M 0 0 
L 3.5 0 
" id="m46044db47c" style="stroke:#000000;stroke-width:0.8;"/>
      </defs>
      <g>
       <use style="stroke:#000000;stroke-width:0.8;" x="414.72" xlink:href="#m46044db47c" y="294.522882"/>
      </g>
     </g>
     <g id="text_17">
      <!-- 0.2 -->
      <defs>
       <path d="M 10.59375 35.5 
L 73.1875 35.5 
L 73.1875 27.203125 
L 10.59375 27.203125 
z
" id="DejaVuSans-8722"/>
      </defs>
      <g transform="translate(421.72 298.322101)scale(0.1 -0.1)">
       <use xlink:href="#DejaVuSans-8722"/>
       <use x="83.789062" xlink:href="#DejaVuSans-48"/>
       <use x="147.412109" xlink:href="#DejaVuSans-46"/>
       <use x="179.199219" xlink:href="#DejaVuSans-50"/>
      </g>
     </g>
    </g>
    <g id="ytick_10">
     <g id="line2d_19">
      <path clip-path="url(#p79f5dfd67a)" d="M 57.6 247.8914 
L 414.72 247.8914 
" style="fill:none;stroke:#b0b0b0;stroke-linecap:square;stroke-width:0.8;"/>
     </g>
     <g id="line2d_20">
      <g>
       <use style="stroke:#000000;stroke-width:0.8;" x="414.72" xlink:href="#m46044db47c" y="247.8914"/>
      </g>
     </g>
     <g id="text_18">
      <!-- 0.0 -->
      <g transform="translate(421.72 251.690619)scale(0.1 -0.1)">
       <use xlink:href="#DejaVuSans-48"/>
       <use x="63.623047" xlink:href="#DejaVuSans-46"/>
       <use x="95.410156" xlink:href="#DejaVuSans-48"/>
      </g>
     </g>
    </g>
    <g id="ytick_11">
     <g id="line2d_21">
      <path clip-path="url(#p79f5dfd67a)" d="M 57.6 201.259919 
L 414.72 201.259919 
" style="fill:none;stroke:#b0b0b0;stroke-linecap:square;stroke-width:0.8;"/>
     </g>
     <g id="line2d_22">
      <g>
       <use style="stroke:#000000;stroke-width:0.8;" x="414.72" xlink:href="#m46044db47c" y="201.259919"/>
      </g>
     </g>
     <g id="text_19">
      <!-- 0.2 -->
      <g transform="translate(421.72 205.059138)scale(0.1 -0.1)">
       <use xlink:href="#DejaVuSans-48"/>
       <use x="63.623047" xlink:href="#DejaVuSans-46"/>
       <use x="95.410156" xlink:href="#DejaVuSans-50"/>
      </g>
     </g>
    </g>
    <g id="ytick_12">
     <g id="line2d_23">
      <path clip-path="url(#p79f5dfd67a)" d="M 57.6 154.628437 
L 414.72 154.628437 
" style="fill:none;stroke:#b0b0b0;stroke-linecap:square;stroke-width:0.8;"/>
     </g>
     <g id="line2d_24">
      <g>
       <use style="stroke:#000000;stroke-width:0.8;" x="414.72" xlink:href="#m46044db47c" y="154.628437"/>
      </g>
     </g>
     <g id="text_20">
      <!-- 0.4 -->
      <g transform="translate(421.72 158.427656)scale(0.1 -0.1)">
       <use xlink:href="#DejaVuSans-48"/>
       <use x="63.623047" xlink:href="#DejaVuSans-46"/>
       <use x="95.410156" xlink:href="#DejaVuSans-52"/>
      </g>
     </g>
    </g>
    <g id="ytick_13">
     <g id="line2d_25">
      <path clip-path="url(#p79f5dfd67a)" d="M 57.6 107.996956 
L 414.72 107.996956 
" style="fill:none;stroke:#b0b0b0;stroke-linecap:square;stroke-width:0.8;"/>
     </g>
     <g id="line2d_26">
      <g>
       <use style="stroke:#000000;stroke-width:0.8;" x="414.72" xlink:href="#m46044db47c" y="107.996956"/>
      </g>
     </g>
     <g id="text_21">
      <!-- 0.6 -->
      <g transform="translate(421.72 111.796175)scale(0.1 -0.1)">
       <use xlink:href="#DejaVuSans-48"/>
       <use x="63.623047" xlink:href="#DejaVuSans-46"/>
       <use x="95.410156" xlink:href="#DejaVuSans-54"/>
      </g>
     </g>
    </g>
    <g id="ytick_14">
     <g id="line2d_27">
      <path clip-path="url(#p79f5dfd67a)" d="M 57.6 61.365475 
L 414.72 61.365475 
" style="fill:none;stroke:#b0b0b0;stroke-linecap:square;stroke-width:0.8;"/>
     </g>
     <g id="line2d_28">
      <g>
       <use style="stroke:#000000;stroke-width:0.8;" x="414.72" xlink:href="#m46044db47c" y="61.365475"/>
      </g>
     </g>
     <g id="text_22">
      <!-- 0.8 -->
      <g transform="translate(421.72 65.164693)scale(0.1 -0.1)">
       <use xlink:href="#DejaVuSans-48"/>
       <use x="63.623047" xlink:href="#DejaVuSans-46"/>
       <use x="95.410156" xlink:href="#DejaVuSans-56"/>
      </g>
     </g>
    </g>
    <g id="text_23">
     <!-- Loudness -->
     <defs>
      <path d="M 9.8125 72.90625 
L 19.671875 72.90625 
L 19.671875 8.296875 
L 55.171875 8.296875 
L 55.171875 0 
L 9.8125 0 
z
" id="DejaVuSans-76"/>
      <path d="M 30.609375 48.390625 
Q 23.390625 48.390625 19.1875 42.75 
Q 14.984375 37.109375 14.984375 27.296875 
Q 14.984375 17.484375 19.15625 11.84375 
Q 23.34375 6.203125 30.609375 6.203125 
Q 37.796875 6.203125 41.984375 11.859375 
Q 46.1875 17.53125 46.1875 27.296875 
Q 46.1875 37.015625 41.984375 42.703125 
Q 37.796875 48.390625 30.609375 48.390625 
z
M 30.609375 56 
Q 42.328125 56 49.015625 48.375 
Q 55.71875 40.765625 55.71875 27.296875 
Q 55.71875 13.875 49.015625 6.21875 
Q 42.328125 -1.421875 30.609375 -1.421875 
Q 18.84375 -1.421875 12.171875 6.21875 
Q 5.515625 13.875 5.515625 27.296875 
Q 5.515625 40.765625 12.171875 48.375 
Q 18.84375 56 30.609375 56 
z
" id="DejaVuSans-111"/>
      <path d="M 8.5 21.578125 
L 8.5 54.6875 
L 17.484375 54.6875 
L 17.484375 21.921875 
Q 17.484375 14.15625 20.5 10.265625 
Q 23.53125 6.390625 29.59375 6.390625 
Q 36.859375 6.390625 41.078125 11.03125 
Q 45.3125 15.671875 45.3125 23.6875 
L 45.3125 54.6875 
L 54.296875 54.6875 
L 54.296875 0 
L 45.3125 0 
L 45.3125 8.40625 
Q 42.046875 3.421875 37.71875 1 
Q 33.40625 -1.421875 27.6875 -1.421875 
Q 18.265625 -1.421875 13.375 4.4375 
Q 8.5 10.296875 8.5 21.578125 
z
M 31.109375 56 
z
" id="DejaVuSans-117"/>
      <path d="M 45.40625 46.390625 
L 45.40625 75.984375 
L 54.390625 75.984375 
L 54.390625 0 
L 45.40625 0 
L 45.40625 8.203125 
Q 42.578125 3.328125 38.25 0.953125 
Q 33.9375 -1.421875 27.875 -1.421875 
Q 17.96875 -1.421875 11.734375 6.484375 
Q 5.515625 14.40625 5.515625 27.296875 
Q 5.515625 40.1875 11.734375 48.09375 
Q 17.96875 56 27.875 56 
Q 33.9375 56 38.25 53.625 
Q 42.578125 51.265625 45.40625 46.390625 
z
M 14.796875 27.296875 
Q 14.796875 17.390625 18.875 11.75 
Q 22.953125 6.109375 30.078125 6.109375 
Q 37.203125 6.109375 41.296875 11.75 
Q 45.40625 17.390625 45.40625 27.296875 
Q 45.40625 37.203125 41.296875 42.84375 
Q 37.203125 48.484375 30.078125 48.484375 
Q 22.953125 48.484375 18.875 42.84375 
Q 14.796875 37.203125 14.796875 27.296875 
z
" id="DejaVuSans-100"/>
     </defs>
     <g transform="translate(457.60125 198.170187)rotate(-90)scale(0.1 -0.1)">
      <use xlink:href="#DejaVuSans-76"/>
      <use x="55.697266" xlink:href="#DejaVuSans-111"/>
      <use x="116.878906" xlink:href="#DejaVuSans-117"/>
      <use x="180.257812" xlink:href="#DejaVuSans-100"/>
      <use x="243.734375" xlink:href="#DejaVuSans-110"/>
      <use x="307.113281" xlink:href="#DejaVuSans-101"/>
      <use x="368.636719" xlink:href="#DejaVuSans-115"/>
      <use x="420.736328" xlink:href="#DejaVuSans-115"/>
     </g>
    </g>
   </g>
   <g id="line2d_29">
    <path clip-path="url(#p79f5dfd67a)" d="M 73.832727 156.332091 
L 74.918528 157.587013 
L 76.00433 183.383106 
L 77.090131 190.589099 
L 78.175932 192.20237 
L 79.261733 191.968589 
L 80.347534 196.850652 
L 81.433335 199.568543 
L 82.519137 190.306606 
L 83.604938 183.945298 
L 84.690739 183.287094 
L 85.77654 169.182569 
L 86.862341 177.871041 
L 87.948142 180.493491 
L 89.033943 192.10115 
L 90.119745 195.949161 
L 91.205546 191.710517 
L 92.291347 193.265579 
L 93.377148 197.99391 
L 94.462949 191.854187 
L 95.54875 190.713474 
L 96.634552 198.459155 
L 97.720353 194.071488 
L 98.806154 200.186783 
L 99.891955 196.362985 
L 100.977756 204.633206 
L 102.063557 204.66931 
L 103.149358 202.295782 
L 104.23516 206.052124 
L 105.320961 205.655989 
L 106.406762 205.628961 
L 107.492563 202.508503 
L 108.578364 202.19426 
L 109.664165 202.870401 
L 110.749967 201.7746 
L 111.835768 211.768442 
L 112.921569 210.192278 
L 114.00737 206.204968 
L 115.093171 210.422769 
L 116.178972 210.892338 
L 117.264773 206.844846 
L 118.350575 208.578405 
L 119.436376 207.350798 
L 120.522177 208.823837 
L 121.607978 205.670749 
L 122.693779 205.2977 
L 123.77958 206.766064 
L 124.865382 206.208382 
L 125.951183 209.404163 
L 127.036984 205.260036 
L 128.122785 203.094034 
L 129.208586 201.248005 
L 130.294387 200.51576 
L 131.380189 196.300524 
L 132.46599 197.372451 
L 133.551791 199.456888 
L 134.637592 200.922948 
L 135.723393 203.012614 
L 136.809194 204.491058 
L 137.894995 205.288856 
L 138.980797 204.111591 
L 141.152399 195.816852 
L 142.2382 194.250472 
L 143.324001 206.00525 
L 144.409802 196.802686 
L 145.495604 191.624984 
L 146.581405 192.478969 
L 147.667206 196.756385 
L 148.753007 203.118589 
L 149.838808 197.573707 
L 150.924609 196.031349 
L 152.01041 200.107033 
L 153.096212 206.984706 
L 154.182013 208.554566 
L 155.267814 208.035022 
L 156.353615 209.140184 
L 157.439416 207.789241 
L 158.525217 199.780977 
L 159.611019 209.201424 
L 160.69682 204.19474 
L 161.782621 204.092448 
L 162.868422 203.517393 
L 163.954223 212.103854 
L 165.040024 209.384435 
L 166.125825 213.675334 
L 167.211627 212.71641 
L 168.297428 215.716328 
L 169.383229 214.957636 
L 170.46903 215.174904 
L 171.554831 214.060322 
L 172.640632 211.986553 
L 173.726434 214.8505 
L 174.812235 212.671376 
L 175.898036 207.213571 
L 176.983837 207.450073 
L 178.069638 206.35926 
L 179.155439 202.362111 
L 180.24124 193.806799 
L 181.327042 192.698329 
L 182.412843 195.789201 
L 183.498644 197.944279 
L 184.584445 207.653486 
L 186.756047 213.352326 
L 188.92765 211.321074 
L 190.013451 209.84476 
L 191.099252 206.556189 
L 192.185053 204.230613 
L 193.270854 205.652027 
L 194.356656 205.995696 
L 195.442457 199.374392 
L 196.528258 204.355075 
L 197.614059 205.975789 
L 198.69986 210.69725 
L 199.785661 211.254085 
L 200.871462 206.826259 
L 201.957264 205.160829 
L 203.043065 202.288191 
L 204.128866 197.928893 
L 205.214667 205.402746 
L 206.300468 207.508745 
L 207.386269 205.422223 
L 208.472071 200.349199 
L 209.557872 197.88733 
L 210.643673 198.974562 
L 211.729474 195.662435 
L 212.815275 204.594191 
L 213.901076 203.116887 
L 214.986877 207.72692 
L 216.072679 209.238533 
L 217.15848 206.974966 
L 218.244281 205.676218 
L 219.330082 200.207413 
L 220.415883 193.976709 
L 221.501684 208.038663 
L 222.587486 208.042576 
L 224.759088 197.300989 
L 225.844889 206.504521 
L 226.93069 204.257111 
L 228.016491 202.680638 
L 229.102292 202.772377 
L 230.188094 205.750202 
L 231.273895 202.926585 
L 232.359696 196.078366 
L 233.445497 204.793608 
L 234.531298 209.982796 
L 235.617099 211.363546 
L 236.702901 209.346615 
L 237.788702 207.693074 
L 238.874503 210.920899 
L 239.960304 208.20631 
L 241.046105 210.604655 
L 243.217708 210.391369 
L 244.303509 204.418779 
L 245.38931 206.593306 
L 246.475111 208.305347 
L 247.560912 204.180374 
L 248.646713 203.302088 
L 249.732514 205.695658 
L 250.818316 206.059702 
L 251.904117 206.24904 
L 252.989918 211.085732 
L 254.075719 207.121277 
L 255.16152 209.069331 
L 256.247321 206.993163 
L 258.418924 199.956213 
L 259.504725 202.036572 
L 260.590526 205.943706 
L 261.676327 208.265033 
L 262.762128 202.787219 
L 263.847929 205.594517 
L 264.933731 209.285111 
L 267.105333 197.529594 
L 268.191134 199.900453 
L 269.276935 197.867771 
L 270.362736 194.922567 
L 271.448538 185.046426 
L 272.534339 191.418795 
L 273.62014 193.662686 
L 274.705941 201.622386 
L 275.791742 200.417237 
L 276.877543 201.884195 
L 277.963344 203.684686 
L 279.049146 204.041387 
L 280.134947 205.829539 
L 281.220748 198.403923 
L 282.306549 189.827978 
L 283.39235 195.874207 
L 284.478151 188.791228 
L 285.563953 196.124835 
L 286.649754 198.791511 
L 287.735555 202.722991 
L 288.821356 203.371185 
L 289.907157 198.578131 
L 290.992958 199.834851 
L 293.164561 198.625959 
L 294.250362 198.514324 
L 295.336163 204.286714 
L 296.421964 200.018624 
L 297.507765 201.496377 
L 298.593566 198.003709 
L 299.679368 197.603897 
L 300.765169 203.956567 
L 301.85097 202.510574 
L 302.936771 201.921171 
L 304.022572 203.120521 
L 305.108373 199.848388 
L 306.194175 195.456193 
L 307.279976 194.848947 
L 308.365777 194.538656 
L 309.451578 194.018097 
L 310.537379 196.987035 
L 311.62318 203.836431 
L 312.708981 203.001769 
L 313.794783 205.922294 
L 314.880584 207.352174 
L 315.966385 204.616022 
L 317.052186 204.864812 
L 318.137987 203.552769 
L 319.223788 192.527652 
L 320.30959 186.851142 
L 321.395391 192.441135 
L 322.481192 203.74415 
L 323.566993 202.581096 
L 324.652794 201.84144 
L 325.738595 202.104686 
L 326.824396 207.017426 
L 327.910198 204.364477 
L 328.995999 194.494208 
L 330.0818 188.314565 
L 331.167601 191.581749 
L 332.253402 200.555445 
L 333.339203 203.183823 
L 334.425005 197.321831 
L 335.510806 196.944304 
L 336.596607 195.719916 
L 337.682408 199.94639 
L 338.768209 190.038302 
L 339.85401 200.024219 
L 340.939811 201.349325 
L 342.025613 200.902922 
L 343.111414 207.437315 
L 344.197215 205.835155 
L 345.283016 204.545638 
L 346.368817 205.853815 
L 348.54042 201.479933 
L 349.626221 203.439436 
L 350.712022 198.683042 
L 351.797823 200.611935 
L 352.883624 203.376805 
L 353.969425 197.831083 
L 355.055227 198.991149 
L 357.226829 175.760004 
L 358.31263 179.285701 
L 359.398431 187.079042 
L 360.484232 183.39153 
L 361.570033 198.170863 
L 362.655835 199.99596 
L 363.741636 200.073346 
L 364.827437 195.827571 
L 365.913238 197.011803 
L 366.999039 193.957603 
L 368.08484 193.138585 
L 369.170642 193.843826 
L 370.256443 191.952474 
L 371.342244 193.974648 
L 372.428045 190.793551 
L 373.513846 198.400248 
L 374.599647 196.631325 
L 375.685448 200.500735 
L 376.77125 191.638284 
L 377.857051 200.209845 
L 378.942852 200.084233 
L 380.028653 201.037052 
L 381.114454 198.004979 
L 382.200255 198.633768 
L 383.286057 194.696564 
L 384.371858 196.257223 
L 385.457659 191.774503 
L 386.54346 199.286031 
L 387.629261 197.727614 
L 388.715062 197.051096 
L 389.800863 197.813471 
L 390.886665 194.686292 
L 391.972466 194.020001 
L 394.144068 194.015513 
L 395.229869 192.998441 
L 396.31567 193.450302 
L 397.401472 194.761807 
L 398.487273 189.916085 
L 398.487273 189.916085 
" style="fill:none;stroke:#008000;stroke-linecap:square;stroke-width:1.5;"/>
   </g>
   <g id="patch_7">
    <path d="M 57.6 307.584 
L 57.6 41.472 
" style="fill:none;stroke:#000000;stroke-linecap:square;stroke-linejoin:miter;stroke-width:0.8;"/>
   </g>
   <g id="patch_8">
    <path d="M 414.72 307.584 
L 414.72 41.472 
" style="fill:none;stroke:#000000;stroke-linecap:square;stroke-linejoin:miter;stroke-width:0.8;"/>
   </g>
   <g id="patch_9">
    <path d="M 57.6 307.584 
L 414.72 307.584 
" style="fill:none;stroke:#000000;stroke-linecap:square;stroke-linejoin:miter;stroke-width:0.8;"/>
   </g>
   <g id="patch_10">
    <path d="M 57.6 41.472 
L 414.72 41.472 
" style="fill:none;stroke:#000000;stroke-linecap:square;stroke-linejoin:miter;stroke-width:0.8;"/>
   </g>
   <g id="text_24">
    <!-- Message Difference and Loudness -->
    <defs>
     <path d="M 9.8125 72.90625 
L 24.515625 72.90625 
L 43.109375 23.296875 
L 61.8125 72.90625 
L 76.515625 72.90625 
L 76.515625 0 
L 66.890625 0 
L 66.890625 64.015625 
L 48.09375 14.015625 
L 38.1875 14.015625 
L 19.390625 64.015625 
L 19.390625 0 
L 9.8125 0 
z
" id="DejaVuSans-77"/>
     <path d="M 45.40625 27.984375 
Q 45.40625 37.75 41.375 43.109375 
Q 37.359375 48.484375 30.078125 48.484375 
Q 22.859375 48.484375 18.828125 43.109375 
Q 14.796875 37.75 14.796875 27.984375 
Q 14.796875 18.265625 18.828125 12.890625 
Q 22.859375 7.515625 30.078125 7.515625 
Q 37.359375 7.515625 41.375 12.890625 
Q 45.40625 18.265625 45.40625 27.984375 
z
M 54.390625 6.78125 
Q 54.390625 -7.171875 48.1875 -13.984375 
Q 42 -20.796875 29.203125 -20.796875 
Q 24.46875 -20.796875 20.265625 -20.09375 
Q 16.0625 -19.390625 12.109375 -17.921875 
L 12.109375 -9.1875 
Q 16.0625 -11.328125 19.921875 -12.34375 
Q 23.78125 -13.375 27.78125 -13.375 
Q 36.625 -13.375 41.015625 -8.765625 
Q 45.40625 -4.15625 45.40625 5.171875 
L 45.40625 9.625 
Q 42.625 4.78125 38.28125 2.390625 
Q 33.9375 0 27.875 0 
Q 17.828125 0 11.671875 7.65625 
Q 5.515625 15.328125 5.515625 27.984375 
Q 5.515625 40.671875 11.671875 48.328125 
Q 17.828125 56 27.875 56 
Q 33.9375 56 38.28125 53.609375 
Q 42.625 51.21875 45.40625 46.390625 
L 45.40625 54.6875 
L 54.390625 54.6875 
z
" id="DejaVuSans-103"/>
     <path id="DejaVuSans-32"/>
     <path d="M 37.109375 75.984375 
L 37.109375 68.5 
L 28.515625 68.5 
Q 23.6875 68.5 21.796875 66.546875 
Q 19.921875 64.59375 19.921875 59.515625 
L 19.921875 54.6875 
L 34.71875 54.6875 
L 34.71875 47.703125 
L 19.921875 47.703125 
L 19.921875 0 
L 10.890625 0 
L 10.890625 47.703125 
L 2.296875 47.703125 
L 2.296875 54.6875 
L 10.890625 54.6875 
L 10.890625 58.5 
Q 10.890625 67.625 15.140625 71.796875 
Q 19.390625 75.984375 28.609375 75.984375 
z
" id="DejaVuSans-102"/>
     <path d="M 41.109375 46.296875 
Q 39.59375 47.171875 37.8125 47.578125 
Q 36.03125 48 33.890625 48 
Q 26.265625 48 22.1875 43.046875 
Q 18.109375 38.09375 18.109375 28.8125 
L 18.109375 0 
L 9.078125 0 
L 9.078125 54.6875 
L 18.109375 54.6875 
L 18.109375 46.1875 
Q 20.953125 51.171875 25.484375 53.578125 
Q 30.03125 56 36.53125 56 
Q 37.453125 56 38.578125 55.875 
Q 39.703125 55.765625 41.0625 55.515625 
z
" id="DejaVuSans-114"/>
    </defs>
    <g transform="translate(133.329375 35.472)scale(0.12 -0.12)">
     <use xlink:href="#DejaVuSans-77"/>
     <use x="86.279297" xlink:href="#DejaVuSans-101"/>
     <use x="147.802734" xlink:href="#DejaVuSans-115"/>
     <use x="199.902344" xlink:href="#DejaVuSans-115"/>
     <use x="252.001953" xlink:href="#DejaVuSans-97"/>
     <use x="313.28125" xlink:href="#DejaVuSans-103"/>
     <use x="376.757812" xlink:href="#DejaVuSans-101"/>
     <use x="438.28125" xlink:href="#DejaVuSans-32"/>
     <use x="470.068359" xlink:href="#DejaVuSans-68"/>
     <use x="547.070312" xlink:href="#DejaVuSans-105"/>
     <use x="574.853516" xlink:href="#DejaVuSans-102"/>
     <use x="610.058594" xlink:href="#DejaVuSans-102"/>
     <use x="645.263672" xlink:href="#DejaVuSans-101"/>
     <use x="706.787109" xlink:href="#DejaVuSans-114"/>
     <use x="747.869141" xlink:href="#DejaVuSans-101"/>
     <use x="809.392578" xlink:href="#DejaVuSans-110"/>
     <use x="872.771484" xlink:href="#DejaVuSans-99"/>
     <use x="927.751953" xlink:href="#DejaVuSans-101"/>
     <use x="989.275391" xlink:href="#DejaVuSans-32"/>
     <use x="1021.0625" xlink:href="#DejaVuSans-97"/>
     <use x="1082.341797" xlink:href="#DejaVuSans-110"/>
     <use x="1145.720703" xlink:href="#DejaVuSans-100"/>
     <use x="1209.197266" xlink:href="#DejaVuSans-32"/>
     <use x="1240.984375" xlink:href="#DejaVuSans-76"/>
     <use x="1296.681641" xlink:href="#DejaVuSans-111"/>
     <use x="1357.863281" xlink:href="#DejaVuSans-117"/>
     <use x="1421.242188" xlink:href="#DejaVuSans-100"/>
     <use x="1484.71875" xlink:href="#DejaVuSans-110"/>
     <use x="1548.097656" xlink:href="#DejaVuSans-101"/>
     <use x="1609.621094" xlink:href="#DejaVuSans-115"/>
     <use x="1661.720703" xlink:href="#DejaVuSans-115"/>
    </g>
   </g>
   <g id="legend_1">
    <g id="patch_11">
     <path d="M 331.227813 64.150125 
L 407.72 64.150125 
Q 409.72 64.150125 409.72 62.150125 
L 409.72 48.472 
Q 409.72 46.472 407.72 46.472 
L 331.227813 46.472 
Q 329.227813 46.472 329.227813 48.472 
L 329.227813 62.150125 
Q 329.227813 64.150125 331.227813 64.150125 
z
" style="fill:#ffffff;opacity:0.8;stroke:#cccccc;stroke-linejoin:miter;"/>
    </g>
    <g id="line2d_30">
     <path d="M 333.227813 54.570438 
L 353.227813 54.570438 
" style="fill:none;stroke:#008000;stroke-linecap:square;stroke-width:1.5;"/>
    </g>
    <g id="line2d_31"/>
    <g id="text_25">
     <!-- loudness -->
     <defs>
      <path d="M 9.421875 75.984375 
L 18.40625 75.984375 
L 18.40625 0 
L 9.421875 0 
z
" id="DejaVuSans-108"/>
     </defs>
     <g transform="translate(361.227813 58.070438)scale(0.1 -0.1)">
      <use xlink:href="#DejaVuSans-108"/>
      <use x="27.783203" xlink:href="#DejaVuSans-111"/>
      <use x="88.964844" xlink:href="#DejaVuSans-117"/>
      <use x="152.34375" xlink:href="#DejaVuSans-100"/>
      <use x="215.820312" xlink:href="#DejaVuSans-110"/>
      <use x="279.199219" xlink:href="#DejaVuSans-101"/>
      <use x="340.722656" xlink:href="#DejaVuSans-115"/>
      <use x="392.822266" xlink:href="#DejaVuSans-115"/>
     </g>
    </g>
   </g>
  </g>
 </g>
 <defs>
  <clipPath id="p79f5dfd67a">
   <rect height="266.112" width="357.12" x="57.6" y="41.472"/>
  </clipPath>
 </defs>
</svg>
