<?xml version="1.0" encoding="UTF-8" standalone="no"?>
<!DOCTYPE svg PUBLIC "-//W3C//DTD SVG 1.1//EN"
 "http://www.w3.org/Graphics/SVG/1.1/DTD/svg11.dtd">
<!-- Generated by graphviz version 2.40.1 (20161225.0304)
 -->
<!-- Title: %3 Pages: 1 -->
<svg width="386pt" height="91pt"
 viewBox="0.00 0.00 386.00 90.71" xmlns="http://www.w3.org/2000/svg" xmlns:xlink="http://www.w3.org/1999/xlink">
<g id="graph0" class="graph" transform="scale(1 1) rotate(0) translate(4 86.7061)">
<title>%3</title>
<polygon fill="#ffffff" stroke="transparent" points="-4,4 -4,-86.7061 381.9976,-86.7061 381.9976,4 -4,4"/>
<!-- E0 -->
<g id="node1" class="node">
<title>E0</title>
<polygon fill="#d3d3d3" stroke="#000000" points="25.9963,-82.7061 .0012,-82.7061 .0012,-65.7061 25.9963,-65.7061 25.9963,-82.7061"/>
<text text-anchor="middle" x="12.9988" y="-71.5061" font-family="Times,serif" font-size="9.00" fill="#000000">E0</text>
</g>
<!-- E1 -->
<g id="node2" class="node">
<title>E1</title>
<polygon fill="#d3d3d3" stroke="#000000" points="69.9963,-82.7061 44.0012,-82.7061 44.0012,-65.7061 69.9963,-65.7061 69.9963,-82.7061"/>
<text text-anchor="middle" x="56.9988" y="-71.5061" font-family="Times,serif" font-size="9.00" fill="#000000">E1</text>
</g>
<!-- E0&#45;&gt;E1 -->
<!-- S -->
<g id="node13" class="node">
<title>S</title>
<ellipse fill="#eee8aa" stroke="#000000" cx="280.9988" cy="-14.853" rx="14.7075" ry="14.7075"/>
<text text-anchor="middle" x="280.9988" y="-12.153" font-family="Times,serif" font-size="9.00" fill="#000000">S</text>
</g>
<!-- E0&#45;&gt;S -->
<g id="edge21" class="edge">
<title>E0&#45;&gt;S</title>
<path fill="none" stroke="#ff0000" stroke-width=".1496" d="M26.3471,-68.5404C29.1683,-67.4873 32.1534,-66.4775 34.9988,-65.7061 131.4722,-39.5529 163.362,-64.6814 256.9988,-29.7061 257.8824,-29.376 258.7689,-29.0116 259.6527,-28.6199"/>
<polygon fill="#ff0000" stroke="#ff0000" stroke-width=".1496" points="261.6367,-31.5264 268.7758,-23.698 258.3131,-25.3658 261.6367,-31.5264"/>
</g>
<!-- E2 -->
<g id="node3" class="node">
<title>E2</title>
<polygon fill="#d3d3d3" stroke="#000000" points="113.9963,-82.7061 88.0012,-82.7061 88.0012,-65.7061 113.9963,-65.7061 113.9963,-82.7061"/>
<text text-anchor="middle" x="100.9988" y="-71.5061" font-family="Times,serif" font-size="9.00" fill="#000000">E2</text>
</g>
<!-- E1&#45;&gt;E2 -->
<!-- 1 -->
<g id="node11" class="node">
<title>1</title>
<ellipse fill="#87cefa" stroke="#000000" cx="186.9988" cy="-14.853" rx="14.4914" ry="14.4914"/>
<text text-anchor="middle" x="186.9988" y="-12.153" font-family="Times,serif" font-size="9.00" fill="#000000">1</text>
</g>
<!-- E1&#45;&gt;1 -->
<g id="edge20" class="edge">
<title>E1&#45;&gt;1</title>
<path fill="none" stroke="#00ff00" stroke-width=".5622" d="M70.3678,-68.8986C94.8578,-59.1257 145.9669,-38.4829 162.9988,-29.7061 163.8373,-29.274 164.6853,-28.8229 165.5368,-28.3581"/>
<polygon fill="#00ff00" stroke="#00ff00" stroke-width=".5622" points="167.6542,-31.1739 174.5091,-23.0954 164.1126,-25.1359 167.6542,-31.1739"/>
</g>
<!-- E3 -->
<g id="node4" class="node">
<title>E3</title>
<polygon fill="#d3d3d3" stroke="#000000" points="157.9963,-82.7061 132.0012,-82.7061 132.0012,-65.7061 157.9963,-65.7061 157.9963,-82.7061"/>
<text text-anchor="middle" x="144.9988" y="-71.5061" font-family="Times,serif" font-size="9.00" fill="#000000">E3</text>
</g>
<!-- E2&#45;&gt;E3 -->
<!-- E4 -->
<g id="node5" class="node">
<title>E4</title>
<polygon fill="#d3d3d3" stroke="#000000" points="201.9963,-82.7061 176.0012,-82.7061 176.0012,-65.7061 201.9963,-65.7061 201.9963,-82.7061"/>
<text text-anchor="middle" x="188.9988" y="-71.5061" font-family="Times,serif" font-size="9.00" fill="#000000">E4</text>
</g>
<!-- E3&#45;&gt;E4 -->
<!-- 0 -->
<g id="node10" class="node">
<title>0</title>
<ellipse fill="#87cefa" stroke="#000000" cx="139.9988" cy="-14.853" rx="14.4914" ry="14.4914"/>
<text text-anchor="middle" x="139.9988" y="-12.153" font-family="Times,serif" font-size="9.00" fill="#000000">0</text>
</g>
<!-- E3&#45;&gt;0 -->
<g id="edge19" class="edge">
<title>E3&#45;&gt;0</title>
<path fill="none" stroke="#00ff00" stroke-width=".2951" d="M144.2824,-65.7022C143.7017,-58.8086 142.853,-48.7346 142.064,-39.3682"/>
<polygon fill="#00ff00" stroke="#00ff00" stroke-width=".2951" points="145.5431,-38.9721 141.2159,-29.3013 138.5678,-39.5598 145.5431,-38.9721"/>
</g>
<!-- E5 -->
<g id="node6" class="node">
<title>E5</title>
<polygon fill="#d3d3d3" stroke="#000000" points="245.9963,-82.7061 220.0012,-82.7061 220.0012,-65.7061 245.9963,-65.7061 245.9963,-82.7061"/>
<text text-anchor="middle" x="232.9988" y="-71.5061" font-family="Times,serif" font-size="9.00" fill="#000000">E5</text>
</g>
<!-- E4&#45;&gt;E5 -->
<!-- E4&#45;&gt;1 -->
<g id="edge16" class="edge">
<title>E4&#45;&gt;1</title>
<path fill="none" stroke="#ff0000" stroke-width=".3997" d="M188.7122,-65.7022C188.4855,-58.9749 188.1568,-49.2187 187.8477,-40.0472"/>
<polygon fill="#ff0000" stroke="#ff0000" stroke-width=".3997" points="191.3362,-39.6421 187.5013,-29.7657 184.3401,-39.8779 191.3362,-39.6421"/>
</g>
<!-- E4&#45;&gt;S -->
<g id="edge18" class="edge">
<title>E4&#45;&gt;S</title>
<path fill="none" stroke="#00ff00" stroke-width=".6607" d="M202.1801,-65.7022C217.2425,-55.9849 242.1006,-39.9479 259.8736,-28.4818"/>
<polygon fill="#00ff00" stroke="#00ff00" stroke-width=".6607" points="261.9269,-31.3223 268.4325,-22.9601 258.132,-25.4402 261.9269,-31.3223"/>
</g>
<!-- E6 -->
<g id="node7" class="node">
<title>E6</title>
<polygon fill="#d3d3d3" stroke="#000000" points="289.9963,-82.7061 264.0012,-82.7061 264.0012,-65.7061 289.9963,-65.7061 289.9963,-82.7061"/>
<text text-anchor="middle" x="276.9988" y="-71.5061" font-family="Times,serif" font-size="9.00" fill="#000000">E6</text>
</g>
<!-- E5&#45;&gt;E6 -->
<!-- 2 -->
<g id="node12" class="node">
<title>2</title>
<ellipse fill="#87cefa" stroke="#000000" cx="233.9988" cy="-14.853" rx="14.4914" ry="14.4914"/>
<text text-anchor="middle" x="233.9988" y="-12.153" font-family="Times,serif" font-size="9.00" fill="#000000">2</text>
</g>
<!-- E5&#45;&gt;2 -->
<g id="edge12" class="edge">
<title>E5&#45;&gt;2</title>
<path fill="none" stroke="#00ff00" stroke-width="1.7253" d="M233.1421,-65.7022C233.2554,-58.9749 233.4198,-49.2187 233.5743,-40.0472"/>
<polygon fill="#00ff00" stroke="#00ff00" stroke-width="1.7253" points="237.0785,-39.8232 233.7475,-29.7657 230.0795,-39.7053 237.0785,-39.8232"/>
</g>
<!-- E7 -->
<g id="node8" class="node">
<title>E7</title>
<polygon fill="#d3d3d3" stroke="#000000" points="333.9963,-82.7061 308.0012,-82.7061 308.0012,-65.7061 333.9963,-65.7061 333.9963,-82.7061"/>
<text text-anchor="middle" x="320.9988" y="-71.5061" font-family="Times,serif" font-size="9.00" fill="#000000">E7</text>
</g>
<!-- E6&#45;&gt;E7 -->
<!-- E6&#45;&gt;S -->
<g id="edge15" class="edge">
<title>E6&#45;&gt;S</title>
<path fill="none" stroke="#00ff00" stroke-width="2.38" d="M277.5719,-65.7022C278.0302,-58.9018 278.6971,-49.0063 279.321,-39.7483"/>
<polygon fill="#00ff00" stroke="#00ff00" stroke-width="2.38" points="282.8133,-39.9784 279.9938,-29.7657 275.8292,-39.5077 282.8133,-39.9784"/>
</g>
<!-- E8 -->
<g id="node9" class="node">
<title>E8</title>
<polygon fill="#d3d3d3" stroke="#000000" points="377.9963,-82.7061 352.0012,-82.7061 352.0012,-65.7061 377.9963,-65.7061 377.9963,-82.7061"/>
<text text-anchor="middle" x="364.9988" y="-71.5061" font-family="Times,serif" font-size="9.00" fill="#000000">E8</text>
</g>
<!-- E7&#45;&gt;E8 -->
<!-- E7&#45;&gt;1 -->
<g id="edge13" class="edge">
<title>E7&#45;&gt;1</title>
<path fill="none" stroke="#00ff00" stroke-width="1.9086" d="M307.6056,-68.9358C280.3094,-58.1731 220.0477,-34.2947 210.9988,-29.7061 210.1575,-29.2795 209.307,-28.833 208.4535,-28.3722"/>
<polygon fill="#00ff00" stroke="#00ff00" stroke-width="1.9086" points="209.8724,-25.1477 199.4719,-23.1278 206.3427,-31.1927 209.8724,-25.1477"/>
</g>
<!-- E7&#45;&gt;2 -->
<g id="edge17" class="edge">
<title>E7&#45;&gt;2</title>
<path fill="none" stroke="#ff0000" stroke-width=".3937" d="M308.5338,-65.7022C294.5,-56.1281 271.474,-40.4193 254.7234,-28.9918"/>
<polygon fill="#ff0000" stroke="#ff0000" stroke-width=".3937" points="256.3934,-25.8942 246.1601,-23.1497 252.4484,-31.6767 256.3934,-25.8942"/>
</g>
<!-- E8&#45;&gt;0 -->
<g id="edge14" class="edge">
<title>E8&#45;&gt;0</title>
<path fill="none" stroke="#ff0000" stroke-width="1.0195" d="M351.6271,-68.6234C348.8077,-67.5642 345.8291,-66.531 342.9988,-65.7061 265.0914,-43.001 239.4686,-59.5287 163.9988,-29.7061 163.1215,-29.3594 162.2405,-28.9809 161.3612,-28.5773"/>
<polygon fill="#ff0000" stroke="#ff0000" stroke-width="1.0195" points="162.7125,-25.3272 152.2594,-23.6 159.3539,-31.4688 162.7125,-25.3272"/>
</g>
<!-- 0&#45;&gt;1 -->
<!-- 1&#45;&gt;2 -->
<!-- 2&#45;&gt;S -->
</g>
</svg>
