<?xml version="1.0" encoding="UTF-8" standalone="no"?>
<!DOCTYPE svg PUBLIC "-//W3C//DTD SVG 1.1//EN"
 "http://www.w3.org/Graphics/SVG/1.1/DTD/svg11.dtd">
<!-- Generated by graphviz version 2.40.1 (20161225.0304)
 -->
<!-- Title: %3 Pages: 1 -->
<svg width="485pt" height="182pt"
 viewBox="0.00 0.00 484.77 181.85" xmlns="http://www.w3.org/2000/svg" xmlns:xlink="http://www.w3.org/1999/xlink">
<g id="graph0" class="graph" transform="scale(1 1) rotate(0) translate(4 177.8494)">
<title>%3</title>
<polygon fill="#ffffff" stroke="transparent" points="-4,4 -4,-177.8494 480.7661,-177.8494 480.7661,4 -4,4"/>
<!-- 0 -->
<g id="node1" class="node">
<title>0</title>
<polygon fill="#d3d3d3" stroke="#000000" points="170.389,-173.8494 150.3771,-173.8494 150.3771,-156.8494 170.389,-156.8494 170.389,-173.8494"/>
<text text-anchor="middle" x="160.383" y="-162.6494" font-family="Times,serif" font-size="9.00" fill="#000000">0</text>
</g>
<!-- 1 -->
<g id="node2" class="node">
<title>1</title>
<polygon fill="#d3d3d3" stroke="#000000" points="209.389,-173.8494 189.3771,-173.8494 189.3771,-156.8494 209.389,-156.8494 209.389,-173.8494"/>
<text text-anchor="middle" x="199.383" y="-162.6494" font-family="Times,serif" font-size="9.00" fill="#000000">1</text>
</g>
<!-- 0&#45;&gt;1 -->
<!-- E1 -->
<g id="node5" class="node">
<title>E1</title>
<ellipse fill="#87cefa" stroke="#000000" cx="73.383" cy="-18.383" rx="18.2668" ry="18.2668"/>
<text text-anchor="middle" x="73.383" y="-15.683" font-family="Times,serif" font-size="9.00" fill="#000000">E1</text>
</g>
<!-- 0&#45;&gt;E1 -->
<g id="edge14" class="edge">
<title>0&#45;&gt;E1</title>
<path fill="none" stroke="#00ff00" stroke-width=".4705" d="M155.2013,-156.5961C142.2277,-134.68 107.9696,-76.809 88.1391,-43.3099"/>
<polygon fill="#00ff00" stroke="#00ff00" stroke-width=".4705" points="91.064,-41.3802 82.9581,-34.5578 85.0404,-44.9461 91.064,-41.3802"/>
</g>
<!-- E3 -->
<g id="node7" class="node">
<title>E3</title>
<ellipse fill="#87cefa" stroke="#000000" cx="183.383" cy="-18.383" rx="18.2668" ry="18.2668"/>
<text text-anchor="middle" x="183.383" y="-15.683" font-family="Times,serif" font-size="9.00" fill="#000000">E3</text>
</g>
<!-- 0&#45;&gt;E3 -->
<g id="edge11" class="edge">
<title>0&#45;&gt;E3</title>
<path fill="none" stroke="#00ff00" stroke-width="1.8167" d="M161.7529,-156.5961C165.0602,-135.4629 173.5997,-80.8974 178.9061,-46.9901"/>
<polygon fill="#00ff00" stroke="#00ff00" stroke-width="1.8167" points="182.4163,-47.1966 180.5046,-36.7757 175.5005,-46.1143 182.4163,-47.1966"/>
</g>
<!-- 2 -->
<g id="node3" class="node">
<title>2</title>
<polygon fill="#d3d3d3" stroke="#000000" points="270.389,-173.8494 250.3771,-173.8494 250.3771,-156.8494 270.389,-156.8494 270.389,-173.8494"/>
<text text-anchor="middle" x="260.383" y="-162.6494" font-family="Times,serif" font-size="9.00" fill="#000000">2</text>
</g>
<!-- 1&#45;&gt;2 -->
<!-- E0 -->
<g id="node4" class="node">
<title>E0</title>
<ellipse fill="#87cefa" stroke="#000000" cx="18.383" cy="-18.383" rx="18.2668" ry="18.2668"/>
<text text-anchor="middle" x="18.383" y="-15.683" font-family="Times,serif" font-size="9.00" fill="#000000">E0</text>
</g>
<!-- 1&#45;&gt;E0 -->
<g id="edge13" class="edge">
<title>1&#45;&gt;E0</title>
<path fill="none" stroke="#ff0000" stroke-width="1.7981" d="M189.1331,-157.0267C160.7666,-133.994 80.7141,-68.9939 41.1272,-36.8506"/>
<polygon fill="#ff0000" stroke="#ff0000" stroke-width="1.7981" points="42.849,-33.7401 32.8796,-30.1538 38.4365,-39.1743 42.849,-33.7401"/>
</g>
<!-- E8 -->
<g id="node12" class="node">
<title>E8</title>
<ellipse fill="#87cefa" stroke="#000000" cx="458.383" cy="-18.383" rx="18.2668" ry="18.2668"/>
<text text-anchor="middle" x="458.383" y="-15.683" font-family="Times,serif" font-size="9.00" fill="#000000">E8</text>
</g>
<!-- 2&#45;&gt;E8 -->
<g id="edge12" class="edge">
<title>2&#45;&gt;E8</title>
<path fill="none" stroke="#ff0000" stroke-width="2.1615" d="M270.4741,-157.8592C300.8494,-135.313 391.9862,-67.6664 435.1843,-35.6025"/>
<polygon fill="#ff0000" stroke="#ff0000" stroke-width="2.1615" points="437.4506,-38.2791 443.3943,-29.5085 433.2785,-32.6582 437.4506,-38.2791"/>
</g>
<!-- 5714 -->
<g id="node13" class="node">
<title>5714</title>
<ellipse fill="#add8e6" stroke="#000000" cx="260.383" cy="-96.8077" rx="24.0833" ry="24.0833"/>
<text text-anchor="middle" x="260.383" y="-98.6077" font-family="Times,serif" font-size="9.00" fill="#000000">5714</text>
<text text-anchor="middle" x="260.383" y="-89.6077" font-family="Times,serif" font-size="9.00" fill="#000000">sigm</text>
</g>
<!-- 2&#45;&gt;5714 -->
<g id="edge15" class="edge">
<title>2&#45;&gt;5714</title>
<path fill="none" stroke="#00ff00" stroke-width=".2382" d="M260.383,-156.6685C260.383,-150.1079 260.383,-140.6404 260.383,-131.1641"/>
<polygon fill="#00ff00" stroke="#00ff00" stroke-width=".2382" points="263.8831,-131.0151 260.383,-121.0151 256.8831,-131.0152 263.8831,-131.0151"/>
</g>
<!-- E0&#45;&gt;E1 -->
<!-- E2 -->
<g id="node6" class="node">
<title>E2</title>
<ellipse fill="#87cefa" stroke="#000000" cx="128.383" cy="-18.383" rx="18.2668" ry="18.2668"/>
<text text-anchor="middle" x="128.383" y="-15.683" font-family="Times,serif" font-size="9.00" fill="#000000">E2</text>
</g>
<!-- E1&#45;&gt;E2 -->
<!-- E2&#45;&gt;E3 -->
<!-- E4 -->
<g id="node8" class="node">
<title>E4</title>
<ellipse fill="#87cefa" stroke="#000000" cx="238.383" cy="-18.383" rx="18.2668" ry="18.2668"/>
<text text-anchor="middle" x="238.383" y="-15.683" font-family="Times,serif" font-size="9.00" fill="#000000">E4</text>
</g>
<!-- E3&#45;&gt;E4 -->
<!-- E5 -->
<g id="node9" class="node">
<title>E5</title>
<ellipse fill="#87cefa" stroke="#000000" cx="293.383" cy="-18.383" rx="18.2668" ry="18.2668"/>
<text text-anchor="middle" x="293.383" y="-15.683" font-family="Times,serif" font-size="9.00" fill="#000000">E5</text>
</g>
<!-- E4&#45;&gt;E5 -->
<!-- E6 -->
<g id="node10" class="node">
<title>E6</title>
<ellipse fill="#87cefa" stroke="#000000" cx="348.383" cy="-18.383" rx="18.2668" ry="18.2668"/>
<text text-anchor="middle" x="348.383" y="-15.683" font-family="Times,serif" font-size="9.00" fill="#000000">E6</text>
</g>
<!-- E5&#45;&gt;E6 -->
<!-- E7 -->
<g id="node11" class="node">
<title>E7</title>
<ellipse fill="#87cefa" stroke="#000000" cx="403.383" cy="-18.383" rx="18.2668" ry="18.2668"/>
<text text-anchor="middle" x="403.383" y="-15.683" font-family="Times,serif" font-size="9.00" fill="#000000">E7</text>
</g>
<!-- E6&#45;&gt;E7 -->
<!-- E7&#45;&gt;E8 -->
<!-- 5714&#45;&gt;E4 -->
<g id="edge17" class="edge">
<title>5714&#45;&gt;E4</title>
<path fill="none" stroke="#00ff00" stroke-width=".2165" d="M253.7823,-73.2777C251.3807,-64.7166 248.6441,-54.9613 246.1507,-46.073"/>
<polygon fill="#00ff00" stroke="#00ff00" stroke-width=".2165" points="249.441,-44.8434 243.37,-36.1604 242.7012,-46.7341 249.441,-44.8434"/>
</g>
<!-- 5714&#45;&gt;E5 -->
<g id="edge16" class="edge">
<title>5714&#45;&gt;E5</title>
<path fill="none" stroke="#ff0000" stroke-width="1.0561" d="M269.7513,-74.5441C273.598,-65.4023 278.0852,-54.7385 282.1097,-45.1742"/>
<polygon fill="#ff0000" stroke="#ff0000" stroke-width="1.0561" points="285.4375,-46.2898 286.09,-35.7151 278.9854,-43.5748 285.4375,-46.2898"/>
</g>
</g>
</svg>
