<?xml version="1.0" encoding="UTF-8" standalone="no"?>
<!DOCTYPE svg PUBLIC "-//W3C//DTD SVG 1.1//EN"
 "http://www.w3.org/Graphics/SVG/1.1/DTD/svg11.dtd">
<!-- Generated by graphviz version 2.40.1 (20161225.0304)
 -->
<!-- Title: %3 Pages: 1 -->
<svg width="485pt" height="182pt"
 viewBox="0.00 0.00 484.77 181.85" xmlns="http://www.w3.org/2000/svg" xmlns:xlink="http://www.w3.org/1999/xlink">
<g id="graph0" class="graph" transform="scale(1 1) rotate(0) translate(4 177.8494)">
<title>%3</title>
<polygon fill="#ffffff" stroke="transparent" points="-4,4 -4,-177.8494 480.7661,-177.8494 480.7661,4 -4,4"/>
<!-- 0 -->
<g id="node1" class="node">
<title>0</title>
<polygon fill="#d3d3d3" stroke="#000000" points="285.389,-173.8494 265.3771,-173.8494 265.3771,-156.8494 285.389,-156.8494 285.389,-173.8494"/>
<text text-anchor="middle" x="275.383" y="-162.6494" font-family="Times,serif" font-size="9.00" fill="#000000">0</text>
</g>
<!-- 1 -->
<g id="node2" class="node">
<title>1</title>
<polygon fill="#d3d3d3" stroke="#000000" points="324.389,-173.8494 304.3771,-173.8494 304.3771,-156.8494 324.389,-156.8494 324.389,-173.8494"/>
<text text-anchor="middle" x="314.383" y="-162.6494" font-family="Times,serif" font-size="9.00" fill="#000000">1</text>
</g>
<!-- 0&#45;&gt;1 -->
<!-- E4 -->
<g id="node8" class="node">
<title>E4</title>
<ellipse fill="#87cefa" stroke="#000000" cx="238.383" cy="-18.383" rx="18.2668" ry="18.2668"/>
<text text-anchor="middle" x="238.383" y="-15.683" font-family="Times,serif" font-size="9.00" fill="#000000">E4</text>
</g>
<!-- 0&#45;&gt;E4 -->
<g id="edge13" class="edge">
<title>0&#45;&gt;E4</title>
<path fill="none" stroke="#00ff00" stroke-width="1.0232" d="M272.6515,-156.5235C269.9175,-147.5729 265.6582,-133.3037 262.383,-120.8494 255.8145,-95.8712 249.1822,-67.2353 244.5595,-46.5973"/>
<polygon fill="#00ff00" stroke="#00ff00" stroke-width="1.0232" points="247.9228,-45.5979 242.3362,-36.5957 241.0896,-47.1169 247.9228,-45.5979"/>
</g>
<!-- E6 -->
<g id="node10" class="node">
<title>E6</title>
<ellipse fill="#87cefa" stroke="#000000" cx="348.383" cy="-18.383" rx="18.2668" ry="18.2668"/>
<text text-anchor="middle" x="348.383" y="-15.683" font-family="Times,serif" font-size="9.00" fill="#000000">E6</text>
</g>
<!-- 0&#45;&gt;E6 -->
<g id="edge17" class="edge">
<title>0&#45;&gt;E6</title>
<path fill="none" stroke="#ff0000" stroke-width=".273" d="M276.3799,-156.6939C278.6157,-139.7135 285.0843,-101.2125 300.383,-72.7661 307.2547,-59.9891 317.6622,-47.6985 327.0316,-38.0441"/>
<polygon fill="#ff0000" stroke="#ff0000" stroke-width=".273" points="329.5946,-40.4318 334.2358,-30.9076 324.6682,-35.4587 329.5946,-40.4318"/>
</g>
<!-- E8 -->
<g id="node12" class="node">
<title>E8</title>
<ellipse fill="#87cefa" stroke="#000000" cx="458.383" cy="-18.383" rx="18.2668" ry="18.2668"/>
<text text-anchor="middle" x="458.383" y="-15.683" font-family="Times,serif" font-size="9.00" fill="#000000">E8</text>
</g>
<!-- 0&#45;&gt;E8 -->
<g id="edge14" class="edge">
<title>0&#45;&gt;E8</title>
<path fill="none" stroke="#ff0000" stroke-width="1.5206" d="M285.4826,-157.2385C314.0937,-134.2611 396.1949,-68.326 436.0893,-36.2871"/>
<polygon fill="#ff0000" stroke="#ff0000" stroke-width="1.5206" points="438.3219,-38.9831 443.9272,-29.9924 433.9387,-33.5252 438.3219,-38.9831"/>
</g>
<!-- 2 -->
<g id="node3" class="node">
<title>2</title>
<polygon fill="#d3d3d3" stroke="#000000" points="381.389,-173.8494 361.3771,-173.8494 361.3771,-156.8494 381.389,-156.8494 381.389,-173.8494"/>
<text text-anchor="middle" x="371.383" y="-162.6494" font-family="Times,serif" font-size="9.00" fill="#000000">2</text>
</g>
<!-- 1&#45;&gt;2 -->
<!-- E0 -->
<g id="node4" class="node">
<title>E0</title>
<ellipse fill="#87cefa" stroke="#000000" cx="18.383" cy="-18.383" rx="18.2668" ry="18.2668"/>
<text text-anchor="middle" x="18.383" y="-15.683" font-family="Times,serif" font-size="9.00" fill="#000000">E0</text>
</g>
<!-- 1&#45;&gt;E0 -->
<g id="edge18" class="edge">
<title>1&#45;&gt;E0</title>
<path fill="none" stroke="#00ff00" stroke-width=".1063" d="M304.3274,-160.7118C301.1827,-159.3605 297.6741,-157.9525 294.383,-156.8494 231.8337,-135.8832 209.7123,-149.6946 150.383,-120.8494 106.3581,-99.4449 63.0214,-61.74 38.5927,-38.5223"/>
<polygon fill="#00ff00" stroke="#00ff00" stroke-width=".1063" points="40.9751,-35.9575 31.3487,-31.5322 36.1144,-40.9947 40.9751,-35.9575"/>
</g>
<!-- E7 -->
<g id="node11" class="node">
<title>E7</title>
<ellipse fill="#87cefa" stroke="#000000" cx="403.383" cy="-18.383" rx="18.2668" ry="18.2668"/>
<text text-anchor="middle" x="403.383" y="-15.683" font-family="Times,serif" font-size="9.00" fill="#000000">E7</text>
</g>
<!-- 1&#45;&gt;E7 -->
<g id="edge11" class="edge">
<title>1&#45;&gt;E7</title>
<path fill="none" stroke="#00ff00" stroke-width="1.6533" d="M319.6839,-156.5961C332.9558,-134.68 368.0014,-76.809 388.2878,-43.3099"/>
<polygon fill="#00ff00" stroke="#00ff00" stroke-width="1.6533" points="391.4017,-44.9247 393.5879,-34.5578 385.414,-41.2986 391.4017,-44.9247"/>
</g>
<!-- 3309 -->
<g id="node13" class="node">
<title>3309</title>
<ellipse fill="#add8e6" stroke="#000000" cx="183.383" cy="-96.8077" rx="24.0833" ry="24.0833"/>
<text text-anchor="middle" x="183.383" y="-98.6077" font-family="Times,serif" font-size="9.00" fill="#000000">3309</text>
<text text-anchor="middle" x="183.383" y="-89.6077" font-family="Times,serif" font-size="9.00" fill="#000000">sigm</text>
</g>
<!-- 1&#45;&gt;3309 -->
<g id="edge15" class="edge">
<title>1&#45;&gt;3309</title>
<path fill="none" stroke="#00ff00" stroke-width=".8196" d="M304.1037,-159.971C284.9457,-149.9472 243.0983,-128.0519 214.0857,-112.8719"/>
<polygon fill="#00ff00" stroke="#00ff00" stroke-width=".8196" points="215.6452,-109.7378 205.1621,-108.2029 212.4,-115.9401 215.6452,-109.7378"/>
</g>
<!-- E5 -->
<g id="node9" class="node">
<title>E5</title>
<ellipse fill="#87cefa" stroke="#000000" cx="293.383" cy="-18.383" rx="18.2668" ry="18.2668"/>
<text text-anchor="middle" x="293.383" y="-15.683" font-family="Times,serif" font-size="9.00" fill="#000000">E5</text>
</g>
<!-- 2&#45;&gt;E5 -->
<g id="edge12" class="edge">
<title>2&#45;&gt;E5</title>
<path fill="none" stroke="#00ff00" stroke-width="2.1986" d="M366.7374,-156.5961C355.2152,-134.8862 324.9678,-77.8945 307.1177,-44.2616"/>
<polygon fill="#00ff00" stroke="#00ff00" stroke-width="2.1986" points="310.0035,-42.2331 302.2239,-35.0409 303.8204,-45.5148 310.0035,-42.2331"/>
</g>
<!-- E1 -->
<g id="node5" class="node">
<title>E1</title>
<ellipse fill="#87cefa" stroke="#000000" cx="73.383" cy="-18.383" rx="18.2668" ry="18.2668"/>
<text text-anchor="middle" x="73.383" y="-15.683" font-family="Times,serif" font-size="9.00" fill="#000000">E1</text>
</g>
<!-- E0&#45;&gt;E1 -->
<!-- E2 -->
<g id="node6" class="node">
<title>E2</title>
<ellipse fill="#87cefa" stroke="#000000" cx="128.383" cy="-18.383" rx="18.2668" ry="18.2668"/>
<text text-anchor="middle" x="128.383" y="-15.683" font-family="Times,serif" font-size="9.00" fill="#000000">E2</text>
</g>
<!-- E1&#45;&gt;E2 -->
<!-- E3 -->
<g id="node7" class="node">
<title>E3</title>
<ellipse fill="#87cefa" stroke="#000000" cx="183.383" cy="-18.383" rx="18.2668" ry="18.2668"/>
<text text-anchor="middle" x="183.383" y="-15.683" font-family="Times,serif" font-size="9.00" fill="#000000">E3</text>
</g>
<!-- E2&#45;&gt;E3 -->
<!-- E3&#45;&gt;E4 -->
<!-- E4&#45;&gt;E5 -->
<!-- E5&#45;&gt;E6 -->
<!-- E6&#45;&gt;E7 -->
<!-- E7&#45;&gt;E8 -->
<!-- 3309&#45;&gt;E1 -->
<g id="edge16" class="edge">
<title>3309&#45;&gt;E1</title>
<path fill="none" stroke="#ff0000" stroke-width=".442" d="M163.7173,-82.787C144.9842,-69.4312 116.7672,-49.3139 96.8635,-35.1235"/>
<polygon fill="#ff0000" stroke="#ff0000" stroke-width=".442" points="98.8054,-32.2095 88.6311,-29.2542 94.7418,-37.9093 98.8054,-32.2095"/>
</g>
<!-- 3309&#45;&gt;E3 -->
<g id="edge19" class="edge">
<title>3309&#45;&gt;E3</title>
<path fill="none" stroke="#ff0000" stroke-width=".7959" d="M183.383,-72.4236C183.383,-64.33 183.383,-55.248 183.383,-46.8729"/>
<polygon fill="#ff0000" stroke="#ff0000" stroke-width=".7959" points="186.8831,-46.7701 183.383,-36.7702 179.8831,-46.7702 186.8831,-46.7701"/>
</g>
</g>
</svg>
