<?xml version="1.0" encoding="utf-8" standalone="no"?>
<!DOCTYPE svg PUBLIC "-//W3C//DTD SVG 1.1//EN"
  "http://www.w3.org/Graphics/SVG/1.1/DTD/svg11.dtd">
<!-- Created with matplotlib (https://matplotlib.org/) -->
<svg height="345.6pt" version="1.1" viewBox="0 0 460.8 345.6" width="460.8pt" xmlns="http://www.w3.org/2000/svg" xmlns:xlink="http://www.w3.org/1999/xlink">
 <defs>
  <style type="text/css">
*{stroke-linecap:butt;stroke-linejoin:round;}
  </style>
 </defs>
 <g id="figure_1">
  <g id="patch_1">
   <path d="M 0 345.6 
L 460.8 345.6 
L 460.8 0 
L 0 0 
z
" style="fill:#ffffff;"/>
  </g>
  <g id="axes_1">
   <g id="patch_2">
    <path d="M 57.6 307.584 
L 414.72 307.584 
L 414.72 41.472 
L 57.6 41.472 
z
" style="fill:#ffffff;"/>
   </g>
   <g id="matplotlib.axis_1">
    <g id="xtick_1">
     <g id="line2d_1">
      <path clip-path="url(#p2de2541c23)" d="M 73.832727 307.584 
L 73.832727 41.472 
" style="fill:none;stroke:#b0b0b0;stroke-linecap:square;stroke-width:0.8;"/>
     </g>
     <g id="line2d_2">
      <defs>
       <path d="M 0 0 
L 0 3.5 
" id="m0c1d8fa821" style="stroke:#000000;stroke-width:0.8;"/>
      </defs>
      <g>
       <use style="stroke:#000000;stroke-width:0.8;" x="73.832727" xlink:href="#m0c1d8fa821" y="307.584"/>
      </g>
     </g>
     <g id="text_1">
      <!-- 0 -->
      <defs>
       <path d="M 31.78125 66.40625 
Q 24.171875 66.40625 20.328125 58.90625 
Q 16.5 51.421875 16.5 36.375 
Q 16.5 21.390625 20.328125 13.890625 
Q 24.171875 6.390625 31.78125 6.390625 
Q 39.453125 6.390625 43.28125 13.890625 
Q 47.125 21.390625 47.125 36.375 
Q 47.125 51.421875 43.28125 58.90625 
Q 39.453125 66.40625 31.78125 66.40625 
z
M 31.78125 74.21875 
Q 44.046875 74.21875 50.515625 64.515625 
Q 56.984375 54.828125 56.984375 36.375 
Q 56.984375 17.96875 50.515625 8.265625 
Q 44.046875 -1.421875 31.78125 -1.421875 
Q 19.53125 -1.421875 13.0625 8.265625 
Q 6.59375 17.96875 6.59375 36.375 
Q 6.59375 54.828125 13.0625 64.515625 
Q 19.53125 74.21875 31.78125 74.21875 
z
" id="DejaVuSans-48"/>
      </defs>
      <g transform="translate(70.651477 322.182437)scale(0.1 -0.1)">
       <use xlink:href="#DejaVuSans-48"/>
      </g>
     </g>
    </g>
    <g id="xtick_2">
     <g id="line2d_3">
      <path clip-path="url(#p2de2541c23)" d="M 128.122785 307.584 
L 128.122785 41.472 
" style="fill:none;stroke:#b0b0b0;stroke-linecap:square;stroke-width:0.8;"/>
     </g>
     <g id="line2d_4">
      <g>
       <use style="stroke:#000000;stroke-width:0.8;" x="128.122785" xlink:href="#m0c1d8fa821" y="307.584"/>
      </g>
     </g>
     <g id="text_2">
      <!-- 50 -->
      <defs>
       <path d="M 10.796875 72.90625 
L 49.515625 72.90625 
L 49.515625 64.59375 
L 19.828125 64.59375 
L 19.828125 46.734375 
Q 21.96875 47.46875 24.109375 47.828125 
Q 26.265625 48.1875 28.421875 48.1875 
Q 40.625 48.1875 47.75 41.5 
Q 54.890625 34.8125 54.890625 23.390625 
Q 54.890625 11.625 47.5625 5.09375 
Q 40.234375 -1.421875 26.90625 -1.421875 
Q 22.3125 -1.421875 17.546875 -0.640625 
Q 12.796875 0.140625 7.71875 1.703125 
L 7.71875 11.625 
Q 12.109375 9.234375 16.796875 8.0625 
Q 21.484375 6.890625 26.703125 6.890625 
Q 35.15625 6.890625 40.078125 11.328125 
Q 45.015625 15.765625 45.015625 23.390625 
Q 45.015625 31 40.078125 35.4375 
Q 35.15625 39.890625 26.703125 39.890625 
Q 22.75 39.890625 18.8125 39.015625 
Q 14.890625 38.140625 10.796875 36.28125 
z
" id="DejaVuSans-53"/>
      </defs>
      <g transform="translate(121.760285 322.182437)scale(0.1 -0.1)">
       <use xlink:href="#DejaVuSans-53"/>
       <use x="63.623047" xlink:href="#DejaVuSans-48"/>
      </g>
     </g>
    </g>
    <g id="xtick_3">
     <g id="line2d_5">
      <path clip-path="url(#p2de2541c23)" d="M 182.412843 307.584 
L 182.412843 41.472 
" style="fill:none;stroke:#b0b0b0;stroke-linecap:square;stroke-width:0.8;"/>
     </g>
     <g id="line2d_6">
      <g>
       <use style="stroke:#000000;stroke-width:0.8;" x="182.412843" xlink:href="#m0c1d8fa821" y="307.584"/>
      </g>
     </g>
     <g id="text_3">
      <!-- 100 -->
      <defs>
       <path d="M 12.40625 8.296875 
L 28.515625 8.296875 
L 28.515625 63.921875 
L 10.984375 60.40625 
L 10.984375 69.390625 
L 28.421875 72.90625 
L 38.28125 72.90625 
L 38.28125 8.296875 
L 54.390625 8.296875 
L 54.390625 0 
L 12.40625 0 
z
" id="DejaVuSans-49"/>
      </defs>
      <g transform="translate(172.869093 322.182437)scale(0.1 -0.1)">
       <use xlink:href="#DejaVuSans-49"/>
       <use x="63.623047" xlink:href="#DejaVuSans-48"/>
       <use x="127.246094" xlink:href="#DejaVuSans-48"/>
      </g>
     </g>
    </g>
    <g id="xtick_4">
     <g id="line2d_7">
      <path clip-path="url(#p2de2541c23)" d="M 236.702901 307.584 
L 236.702901 41.472 
" style="fill:none;stroke:#b0b0b0;stroke-linecap:square;stroke-width:0.8;"/>
     </g>
     <g id="line2d_8">
      <g>
       <use style="stroke:#000000;stroke-width:0.8;" x="236.702901" xlink:href="#m0c1d8fa821" y="307.584"/>
      </g>
     </g>
     <g id="text_4">
      <!-- 150 -->
      <g transform="translate(227.159151 322.182437)scale(0.1 -0.1)">
       <use xlink:href="#DejaVuSans-49"/>
       <use x="63.623047" xlink:href="#DejaVuSans-53"/>
       <use x="127.246094" xlink:href="#DejaVuSans-48"/>
      </g>
     </g>
    </g>
    <g id="xtick_5">
     <g id="line2d_9">
      <path clip-path="url(#p2de2541c23)" d="M 290.992958 307.584 
L 290.992958 41.472 
" style="fill:none;stroke:#b0b0b0;stroke-linecap:square;stroke-width:0.8;"/>
     </g>
     <g id="line2d_10">
      <g>
       <use style="stroke:#000000;stroke-width:0.8;" x="290.992958" xlink:href="#m0c1d8fa821" y="307.584"/>
      </g>
     </g>
     <g id="text_5">
      <!-- 200 -->
      <defs>
       <path d="M 19.1875 8.296875 
L 53.609375 8.296875 
L 53.609375 0 
L 7.328125 0 
L 7.328125 8.296875 
Q 12.9375 14.109375 22.625 23.890625 
Q 32.328125 33.6875 34.8125 36.53125 
Q 39.546875 41.84375 41.421875 45.53125 
Q 43.3125 49.21875 43.3125 52.78125 
Q 43.3125 58.59375 39.234375 62.25 
Q 35.15625 65.921875 28.609375 65.921875 
Q 23.96875 65.921875 18.8125 64.3125 
Q 13.671875 62.703125 7.8125 59.421875 
L 7.8125 69.390625 
Q 13.765625 71.78125 18.9375 73 
Q 24.125 74.21875 28.421875 74.21875 
Q 39.75 74.21875 46.484375 68.546875 
Q 53.21875 62.890625 53.21875 53.421875 
Q 53.21875 48.921875 51.53125 44.890625 
Q 49.859375 40.875 45.40625 35.40625 
Q 44.1875 33.984375 37.640625 27.21875 
Q 31.109375 20.453125 19.1875 8.296875 
z
" id="DejaVuSans-50"/>
      </defs>
      <g transform="translate(281.449208 322.182437)scale(0.1 -0.1)">
       <use xlink:href="#DejaVuSans-50"/>
       <use x="63.623047" xlink:href="#DejaVuSans-48"/>
       <use x="127.246094" xlink:href="#DejaVuSans-48"/>
      </g>
     </g>
    </g>
    <g id="xtick_6">
     <g id="line2d_11">
      <path clip-path="url(#p2de2541c23)" d="M 345.283016 307.584 
L 345.283016 41.472 
" style="fill:none;stroke:#b0b0b0;stroke-linecap:square;stroke-width:0.8;"/>
     </g>
     <g id="line2d_12">
      <g>
       <use style="stroke:#000000;stroke-width:0.8;" x="345.283016" xlink:href="#m0c1d8fa821" y="307.584"/>
      </g>
     </g>
     <g id="text_6">
      <!-- 250 -->
      <g transform="translate(335.739266 322.182437)scale(0.1 -0.1)">
       <use xlink:href="#DejaVuSans-50"/>
       <use x="63.623047" xlink:href="#DejaVuSans-53"/>
       <use x="127.246094" xlink:href="#DejaVuSans-48"/>
      </g>
     </g>
    </g>
    <g id="xtick_7">
     <g id="line2d_13">
      <path clip-path="url(#p2de2541c23)" d="M 399.573074 307.584 
L 399.573074 41.472 
" style="fill:none;stroke:#b0b0b0;stroke-linecap:square;stroke-width:0.8;"/>
     </g>
     <g id="line2d_14">
      <g>
       <use style="stroke:#000000;stroke-width:0.8;" x="399.573074" xlink:href="#m0c1d8fa821" y="307.584"/>
      </g>
     </g>
     <g id="text_7">
      <!-- 300 -->
      <defs>
       <path d="M 40.578125 39.3125 
Q 47.65625 37.796875 51.625 33 
Q 55.609375 28.21875 55.609375 21.1875 
Q 55.609375 10.40625 48.1875 4.484375 
Q 40.765625 -1.421875 27.09375 -1.421875 
Q 22.515625 -1.421875 17.65625 -0.515625 
Q 12.796875 0.390625 7.625 2.203125 
L 7.625 11.71875 
Q 11.71875 9.328125 16.59375 8.109375 
Q 21.484375 6.890625 26.8125 6.890625 
Q 36.078125 6.890625 40.9375 10.546875 
Q 45.796875 14.203125 45.796875 21.1875 
Q 45.796875 27.640625 41.28125 31.265625 
Q 36.765625 34.90625 28.71875 34.90625 
L 20.21875 34.90625 
L 20.21875 43.015625 
L 29.109375 43.015625 
Q 36.375 43.015625 40.234375 45.921875 
Q 44.09375 48.828125 44.09375 54.296875 
Q 44.09375 59.90625 40.109375 62.90625 
Q 36.140625 65.921875 28.71875 65.921875 
Q 24.65625 65.921875 20.015625 65.03125 
Q 15.375 64.15625 9.8125 62.3125 
L 9.8125 71.09375 
Q 15.4375 72.65625 20.34375 73.4375 
Q 25.25 74.21875 29.59375 74.21875 
Q 40.828125 74.21875 47.359375 69.109375 
Q 53.90625 64.015625 53.90625 55.328125 
Q 53.90625 49.265625 50.4375 45.09375 
Q 46.96875 40.921875 40.578125 39.3125 
z
" id="DejaVuSans-51"/>
      </defs>
      <g transform="translate(390.029324 322.182437)scale(0.1 -0.1)">
       <use xlink:href="#DejaVuSans-51"/>
       <use x="63.623047" xlink:href="#DejaVuSans-48"/>
       <use x="127.246094" xlink:href="#DejaVuSans-48"/>
      </g>
     </g>
    </g>
    <g id="text_8">
     <!-- Generations -->
     <defs>
      <path d="M 59.515625 10.40625 
L 59.515625 29.984375 
L 43.40625 29.984375 
L 43.40625 38.09375 
L 69.28125 38.09375 
L 69.28125 6.78125 
Q 63.578125 2.734375 56.6875 0.65625 
Q 49.8125 -1.421875 42 -1.421875 
Q 24.90625 -1.421875 15.25 8.5625 
Q 5.609375 18.5625 5.609375 36.375 
Q 5.609375 54.25 15.25 64.234375 
Q 24.90625 74.21875 42 74.21875 
Q 49.125 74.21875 55.546875 72.453125 
Q 61.96875 70.703125 67.390625 67.28125 
L 67.390625 56.78125 
Q 61.921875 61.421875 55.765625 63.765625 
Q 49.609375 66.109375 42.828125 66.109375 
Q 29.4375 66.109375 22.71875 58.640625 
Q 16.015625 51.171875 16.015625 36.375 
Q 16.015625 21.625 22.71875 14.15625 
Q 29.4375 6.6875 42.828125 6.6875 
Q 48.046875 6.6875 52.140625 7.59375 
Q 56.25 8.5 59.515625 10.40625 
z
" id="DejaVuSans-71"/>
      <path d="M 56.203125 29.59375 
L 56.203125 25.203125 
L 14.890625 25.203125 
Q 15.484375 15.921875 20.484375 11.0625 
Q 25.484375 6.203125 34.421875 6.203125 
Q 39.59375 6.203125 44.453125 7.46875 
Q 49.3125 8.734375 54.109375 11.28125 
L 54.109375 2.78125 
Q 49.265625 0.734375 44.1875 -0.34375 
Q 39.109375 -1.421875 33.890625 -1.421875 
Q 20.796875 -1.421875 13.15625 6.1875 
Q 5.515625 13.8125 5.515625 26.8125 
Q 5.515625 40.234375 12.765625 48.109375 
Q 20.015625 56 32.328125 56 
Q 43.359375 56 49.78125 48.890625 
Q 56.203125 41.796875 56.203125 29.59375 
z
M 47.21875 32.234375 
Q 47.125 39.59375 43.09375 43.984375 
Q 39.0625 48.390625 32.421875 48.390625 
Q 24.90625 48.390625 20.390625 44.140625 
Q 15.875 39.890625 15.1875 32.171875 
z
" id="DejaVuSans-101"/>
      <path d="M 54.890625 33.015625 
L 54.890625 0 
L 45.90625 0 
L 45.90625 32.71875 
Q 45.90625 40.484375 42.875 44.328125 
Q 39.84375 48.1875 33.796875 48.1875 
Q 26.515625 48.1875 22.3125 43.546875 
Q 18.109375 38.921875 18.109375 30.90625 
L 18.109375 0 
L 9.078125 0 
L 9.078125 54.6875 
L 18.109375 54.6875 
L 18.109375 46.1875 
Q 21.34375 51.125 25.703125 53.5625 
Q 30.078125 56 35.796875 56 
Q 45.21875 56 50.046875 50.171875 
Q 54.890625 44.34375 54.890625 33.015625 
z
" id="DejaVuSans-110"/>
      <path d="M 41.109375 46.296875 
Q 39.59375 47.171875 37.8125 47.578125 
Q 36.03125 48 33.890625 48 
Q 26.265625 48 22.1875 43.046875 
Q 18.109375 38.09375 18.109375 28.8125 
L 18.109375 0 
L 9.078125 0 
L 9.078125 54.6875 
L 18.109375 54.6875 
L 18.109375 46.1875 
Q 20.953125 51.171875 25.484375 53.578125 
Q 30.03125 56 36.53125 56 
Q 37.453125 56 38.578125 55.875 
Q 39.703125 55.765625 41.0625 55.515625 
z
" id="DejaVuSans-114"/>
      <path d="M 34.28125 27.484375 
Q 23.390625 27.484375 19.1875 25 
Q 14.984375 22.515625 14.984375 16.5 
Q 14.984375 11.71875 18.140625 8.90625 
Q 21.296875 6.109375 26.703125 6.109375 
Q 34.1875 6.109375 38.703125 11.40625 
Q 43.21875 16.703125 43.21875 25.484375 
L 43.21875 27.484375 
z
M 52.203125 31.203125 
L 52.203125 0 
L 43.21875 0 
L 43.21875 8.296875 
Q 40.140625 3.328125 35.546875 0.953125 
Q 30.953125 -1.421875 24.3125 -1.421875 
Q 15.921875 -1.421875 10.953125 3.296875 
Q 6 8.015625 6 15.921875 
Q 6 25.140625 12.171875 29.828125 
Q 18.359375 34.515625 30.609375 34.515625 
L 43.21875 34.515625 
L 43.21875 35.40625 
Q 43.21875 41.609375 39.140625 45 
Q 35.0625 48.390625 27.6875 48.390625 
Q 23 48.390625 18.546875 47.265625 
Q 14.109375 46.140625 10.015625 43.890625 
L 10.015625 52.203125 
Q 14.9375 54.109375 19.578125 55.046875 
Q 24.21875 56 28.609375 56 
Q 40.484375 56 46.34375 49.84375 
Q 52.203125 43.703125 52.203125 31.203125 
z
" id="DejaVuSans-97"/>
      <path d="M 18.3125 70.21875 
L 18.3125 54.6875 
L 36.8125 54.6875 
L 36.8125 47.703125 
L 18.3125 47.703125 
L 18.3125 18.015625 
Q 18.3125 11.328125 20.140625 9.421875 
Q 21.96875 7.515625 27.59375 7.515625 
L 36.8125 7.515625 
L 36.8125 0 
L 27.59375 0 
Q 17.1875 0 13.234375 3.875 
Q 9.28125 7.765625 9.28125 18.015625 
L 9.28125 47.703125 
L 2.6875 47.703125 
L 2.6875 54.6875 
L 9.28125 54.6875 
L 9.28125 70.21875 
z
" id="DejaVuSans-116"/>
      <path d="M 9.421875 54.6875 
L 18.40625 54.6875 
L 18.40625 0 
L 9.421875 0 
z
M 9.421875 75.984375 
L 18.40625 75.984375 
L 18.40625 64.59375 
L 9.421875 64.59375 
z
" id="DejaVuSans-105"/>
      <path d="M 30.609375 48.390625 
Q 23.390625 48.390625 19.1875 42.75 
Q 14.984375 37.109375 14.984375 27.296875 
Q 14.984375 17.484375 19.15625 11.84375 
Q 23.34375 6.203125 30.609375 6.203125 
Q 37.796875 6.203125 41.984375 11.859375 
Q 46.1875 17.53125 46.1875 27.296875 
Q 46.1875 37.015625 41.984375 42.703125 
Q 37.796875 48.390625 30.609375 48.390625 
z
M 30.609375 56 
Q 42.328125 56 49.015625 48.375 
Q 55.71875 40.765625 55.71875 27.296875 
Q 55.71875 13.875 49.015625 6.21875 
Q 42.328125 -1.421875 30.609375 -1.421875 
Q 18.84375 -1.421875 12.171875 6.21875 
Q 5.515625 13.875 5.515625 27.296875 
Q 5.515625 40.765625 12.171875 48.375 
Q 18.84375 56 30.609375 56 
z
" id="DejaVuSans-111"/>
      <path d="M 44.28125 53.078125 
L 44.28125 44.578125 
Q 40.484375 46.53125 36.375 47.5 
Q 32.28125 48.484375 27.875 48.484375 
Q 21.1875 48.484375 17.84375 46.4375 
Q 14.5 44.390625 14.5 40.28125 
Q 14.5 37.15625 16.890625 35.375 
Q 19.28125 33.59375 26.515625 31.984375 
L 29.59375 31.296875 
Q 39.15625 29.25 43.1875 25.515625 
Q 47.21875 21.78125 47.21875 15.09375 
Q 47.21875 7.46875 41.1875 3.015625 
Q 35.15625 -1.421875 24.609375 -1.421875 
Q 20.21875 -1.421875 15.453125 -0.5625 
Q 10.6875 0.296875 5.421875 2 
L 5.421875 11.28125 
Q 10.40625 8.6875 15.234375 7.390625 
Q 20.0625 6.109375 24.8125 6.109375 
Q 31.15625 6.109375 34.5625 8.28125 
Q 37.984375 10.453125 37.984375 14.40625 
Q 37.984375 18.0625 35.515625 20.015625 
Q 33.0625 21.96875 24.703125 23.78125 
L 21.578125 24.515625 
Q 13.234375 26.265625 9.515625 29.90625 
Q 5.8125 33.546875 5.8125 39.890625 
Q 5.8125 47.609375 11.28125 51.796875 
Q 16.75 56 26.8125 56 
Q 31.78125 56 36.171875 55.265625 
Q 40.578125 54.546875 44.28125 53.078125 
z
" id="DejaVuSans-115"/>
     </defs>
     <g transform="translate(205.662344 335.860562)scale(0.1 -0.1)">
      <use xlink:href="#DejaVuSans-71"/>
      <use x="77.490234" xlink:href="#DejaVuSans-101"/>
      <use x="139.013672" xlink:href="#DejaVuSans-110"/>
      <use x="202.392578" xlink:href="#DejaVuSans-101"/>
      <use x="263.916016" xlink:href="#DejaVuSans-114"/>
      <use x="305.029297" xlink:href="#DejaVuSans-97"/>
      <use x="366.308594" xlink:href="#DejaVuSans-116"/>
      <use x="405.517578" xlink:href="#DejaVuSans-105"/>
      <use x="433.300781" xlink:href="#DejaVuSans-111"/>
      <use x="494.482422" xlink:href="#DejaVuSans-110"/>
      <use x="557.861328" xlink:href="#DejaVuSans-115"/>
     </g>
    </g>
   </g>
   <g id="matplotlib.axis_2">
    <g id="ytick_1">
     <g id="line2d_15">
      <path clip-path="url(#p2de2541c23)" d="M 57.6 305.426304 
L 414.72 305.426304 
" style="fill:none;stroke:#b0b0b0;stroke-linecap:square;stroke-width:0.8;"/>
     </g>
     <g id="line2d_16">
      <defs>
       <path d="M 0 0 
L -3.5 0 
" id="m42a61a5d8c" style="stroke:#000000;stroke-width:0.8;"/>
      </defs>
      <g>
       <use style="stroke:#000000;stroke-width:0.8;" x="57.6" xlink:href="#m42a61a5d8c" y="305.426304"/>
      </g>
     </g>
     <g id="text_9">
      <!-- 250 -->
      <g transform="translate(31.5125 309.225523)scale(0.1 -0.1)">
       <use xlink:href="#DejaVuSans-50"/>
       <use x="63.623047" xlink:href="#DejaVuSans-53"/>
       <use x="127.246094" xlink:href="#DejaVuSans-48"/>
      </g>
     </g>
    </g>
    <g id="ytick_2">
     <g id="line2d_17">
      <path clip-path="url(#p2de2541c23)" d="M 57.6 274.977161 
L 414.72 274.977161 
" style="fill:none;stroke:#b0b0b0;stroke-linecap:square;stroke-width:0.8;"/>
     </g>
     <g id="line2d_18">
      <g>
       <use style="stroke:#000000;stroke-width:0.8;" x="57.6" xlink:href="#m42a61a5d8c" y="274.977161"/>
      </g>
     </g>
     <g id="text_10">
      <!-- 500 -->
      <g transform="translate(31.5125 278.776379)scale(0.1 -0.1)">
       <use xlink:href="#DejaVuSans-53"/>
       <use x="63.623047" xlink:href="#DejaVuSans-48"/>
       <use x="127.246094" xlink:href="#DejaVuSans-48"/>
      </g>
     </g>
    </g>
    <g id="ytick_3">
     <g id="line2d_19">
      <path clip-path="url(#p2de2541c23)" d="M 57.6 244.528017 
L 414.72 244.528017 
" style="fill:none;stroke:#b0b0b0;stroke-linecap:square;stroke-width:0.8;"/>
     </g>
     <g id="line2d_20">
      <g>
       <use style="stroke:#000000;stroke-width:0.8;" x="57.6" xlink:href="#m42a61a5d8c" y="244.528017"/>
      </g>
     </g>
     <g id="text_11">
      <!-- 750 -->
      <defs>
       <path d="M 8.203125 72.90625 
L 55.078125 72.90625 
L 55.078125 68.703125 
L 28.609375 0 
L 18.3125 0 
L 43.21875 64.59375 
L 8.203125 64.59375 
z
" id="DejaVuSans-55"/>
      </defs>
      <g transform="translate(31.5125 248.327236)scale(0.1 -0.1)">
       <use xlink:href="#DejaVuSans-55"/>
       <use x="63.623047" xlink:href="#DejaVuSans-53"/>
       <use x="127.246094" xlink:href="#DejaVuSans-48"/>
      </g>
     </g>
    </g>
    <g id="ytick_4">
     <g id="line2d_21">
      <path clip-path="url(#p2de2541c23)" d="M 57.6 214.078874 
L 414.72 214.078874 
" style="fill:none;stroke:#b0b0b0;stroke-linecap:square;stroke-width:0.8;"/>
     </g>
     <g id="line2d_22">
      <g>
       <use style="stroke:#000000;stroke-width:0.8;" x="57.6" xlink:href="#m42a61a5d8c" y="214.078874"/>
      </g>
     </g>
     <g id="text_12">
      <!-- 1000 -->
      <g transform="translate(25.15 217.878093)scale(0.1 -0.1)">
       <use xlink:href="#DejaVuSans-49"/>
       <use x="63.623047" xlink:href="#DejaVuSans-48"/>
       <use x="127.246094" xlink:href="#DejaVuSans-48"/>
       <use x="190.869141" xlink:href="#DejaVuSans-48"/>
      </g>
     </g>
    </g>
    <g id="ytick_5">
     <g id="line2d_23">
      <path clip-path="url(#p2de2541c23)" d="M 57.6 183.629731 
L 414.72 183.629731 
" style="fill:none;stroke:#b0b0b0;stroke-linecap:square;stroke-width:0.8;"/>
     </g>
     <g id="line2d_24">
      <g>
       <use style="stroke:#000000;stroke-width:0.8;" x="57.6" xlink:href="#m42a61a5d8c" y="183.629731"/>
      </g>
     </g>
     <g id="text_13">
      <!-- 1250 -->
      <g transform="translate(25.15 187.42895)scale(0.1 -0.1)">
       <use xlink:href="#DejaVuSans-49"/>
       <use x="63.623047" xlink:href="#DejaVuSans-50"/>
       <use x="127.246094" xlink:href="#DejaVuSans-53"/>
       <use x="190.869141" xlink:href="#DejaVuSans-48"/>
      </g>
     </g>
    </g>
    <g id="ytick_6">
     <g id="line2d_25">
      <path clip-path="url(#p2de2541c23)" d="M 57.6 153.180588 
L 414.72 153.180588 
" style="fill:none;stroke:#b0b0b0;stroke-linecap:square;stroke-width:0.8;"/>
     </g>
     <g id="line2d_26">
      <g>
       <use style="stroke:#000000;stroke-width:0.8;" x="57.6" xlink:href="#m42a61a5d8c" y="153.180588"/>
      </g>
     </g>
     <g id="text_14">
      <!-- 1500 -->
      <g transform="translate(25.15 156.979807)scale(0.1 -0.1)">
       <use xlink:href="#DejaVuSans-49"/>
       <use x="63.623047" xlink:href="#DejaVuSans-53"/>
       <use x="127.246094" xlink:href="#DejaVuSans-48"/>
       <use x="190.869141" xlink:href="#DejaVuSans-48"/>
      </g>
     </g>
    </g>
    <g id="ytick_7">
     <g id="line2d_27">
      <path clip-path="url(#p2de2541c23)" d="M 57.6 122.731445 
L 414.72 122.731445 
" style="fill:none;stroke:#b0b0b0;stroke-linecap:square;stroke-width:0.8;"/>
     </g>
     <g id="line2d_28">
      <g>
       <use style="stroke:#000000;stroke-width:0.8;" x="57.6" xlink:href="#m42a61a5d8c" y="122.731445"/>
      </g>
     </g>
     <g id="text_15">
      <!-- 1750 -->
      <g transform="translate(25.15 126.530663)scale(0.1 -0.1)">
       <use xlink:href="#DejaVuSans-49"/>
       <use x="63.623047" xlink:href="#DejaVuSans-55"/>
       <use x="127.246094" xlink:href="#DejaVuSans-53"/>
       <use x="190.869141" xlink:href="#DejaVuSans-48"/>
      </g>
     </g>
    </g>
    <g id="ytick_8">
     <g id="line2d_29">
      <path clip-path="url(#p2de2541c23)" d="M 57.6 92.282301 
L 414.72 92.282301 
" style="fill:none;stroke:#b0b0b0;stroke-linecap:square;stroke-width:0.8;"/>
     </g>
     <g id="line2d_30">
      <g>
       <use style="stroke:#000000;stroke-width:0.8;" x="57.6" xlink:href="#m42a61a5d8c" y="92.282301"/>
      </g>
     </g>
     <g id="text_16">
      <!-- 2000 -->
      <g transform="translate(25.15 96.08152)scale(0.1 -0.1)">
       <use xlink:href="#DejaVuSans-50"/>
       <use x="63.623047" xlink:href="#DejaVuSans-48"/>
       <use x="127.246094" xlink:href="#DejaVuSans-48"/>
       <use x="190.869141" xlink:href="#DejaVuSans-48"/>
      </g>
     </g>
    </g>
    <g id="ytick_9">
     <g id="line2d_31">
      <path clip-path="url(#p2de2541c23)" d="M 57.6 61.833158 
L 414.72 61.833158 
" style="fill:none;stroke:#b0b0b0;stroke-linecap:square;stroke-width:0.8;"/>
     </g>
     <g id="line2d_32">
      <g>
       <use style="stroke:#000000;stroke-width:0.8;" x="57.6" xlink:href="#m42a61a5d8c" y="61.833158"/>
      </g>
     </g>
     <g id="text_17">
      <!-- 2250 -->
      <g transform="translate(25.15 65.632377)scale(0.1 -0.1)">
       <use xlink:href="#DejaVuSans-50"/>
       <use x="63.623047" xlink:href="#DejaVuSans-50"/>
       <use x="127.246094" xlink:href="#DejaVuSans-53"/>
       <use x="190.869141" xlink:href="#DejaVuSans-48"/>
      </g>
     </g>
    </g>
    <g id="text_18">
     <!-- Fitness -->
     <defs>
      <path d="M 9.8125 72.90625 
L 51.703125 72.90625 
L 51.703125 64.59375 
L 19.671875 64.59375 
L 19.671875 43.109375 
L 48.578125 43.109375 
L 48.578125 34.8125 
L 19.671875 34.8125 
L 19.671875 0 
L 9.8125 0 
z
" id="DejaVuSans-70"/>
     </defs>
     <g transform="translate(19.070312 192.202219)rotate(-90)scale(0.1 -0.1)">
      <use xlink:href="#DejaVuSans-70"/>
      <use x="57.410156" xlink:href="#DejaVuSans-105"/>
      <use x="85.193359" xlink:href="#DejaVuSans-116"/>
      <use x="124.402344" xlink:href="#DejaVuSans-110"/>
      <use x="187.78125" xlink:href="#DejaVuSans-101"/>
      <use x="249.304688" xlink:href="#DejaVuSans-115"/>
      <use x="301.404297" xlink:href="#DejaVuSans-115"/>
     </g>
    </g>
   </g>
   <g id="line2d_33">
    <path clip-path="url(#p2de2541c23)" d="M 73.832727 279.093649 
L 74.918528 257.638849 
L 76.00433 250.346404 
L 77.090131 249.219696 
L 78.175932 240.886044 
L 79.261733 240.710344 
L 80.347534 227.792644 
L 81.433335 221.419781 
L 82.519137 226.442234 
L 83.604938 223.427095 
L 84.690739 215.845725 
L 85.77654 211.566786 
L 86.862341 223.23688 
L 87.948142 210.267223 
L 89.033943 216.434303 
L 90.119745 209.467096 
L 91.205546 210.833292 
L 92.291347 212.387917 
L 93.377148 196.749083 
L 94.462949 191.430752 
L 95.54875 189.965138 
L 96.634552 191.163108 
L 97.720353 194.065392 
L 98.806154 187.280993 
L 99.891955 198.559371 
L 100.977756 192.454753 
L 102.063557 192.866556 
L 103.149358 188.417254 
L 104.23516 189.053244 
L 105.320961 185.734942 
L 106.406762 193.53846 
L 108.578364 178.177362 
L 109.664165 176.283691 
L 110.749967 198.999935 
L 111.835768 190.270132 
L 112.921569 185.848287 
L 114.00737 199.831346 
L 115.093171 184.862498 
L 116.178972 200.301018 
L 117.264773 189.999116 
L 118.350575 192.103996 
L 119.436376 180.042324 
L 120.522177 193.913642 
L 121.607978 179.979274 
L 122.693779 176.592308 
L 123.77958 196.115959 
L 124.865382 194.110062 
L 125.951183 193.627917 
L 127.036984 189.843098 
L 128.122785 190.659627 
L 129.208586 200.381396 
L 130.294387 185.794569 
L 131.380189 182.194489 
L 132.46599 193.643315 
L 133.551791 187.426764 
L 135.723393 189.752943 
L 136.809194 184.771114 
L 137.894995 186.005107 
L 138.980797 194.025386 
L 140.066598 194.897338 
L 141.152399 189.747815 
L 142.2382 199.144546 
L 143.324001 193.308667 
L 144.409802 188.972612 
L 145.495604 204.557822 
L 146.581405 204.761992 
L 147.667206 198.335612 
L 148.753007 192.762176 
L 149.838808 190.220272 
L 150.924609 195.846083 
L 152.01041 198.259802 
L 153.096212 198.811851 
L 154.182013 200.619276 
L 155.267814 189.85743 
L 156.353615 184.695242 
L 157.439416 185.045006 
L 158.525217 174.94626 
L 159.611019 180.227857 
L 160.69682 179.636541 
L 161.782621 182.005423 
L 162.868422 175.118432 
L 163.954223 178.889623 
L 165.040024 180.628692 
L 166.125825 178.427678 
L 167.211627 179.811916 
L 168.297428 161.946995 
L 169.383229 169.452693 
L 170.46903 182.31654 
L 171.554831 180.229159 
L 172.640632 169.135626 
L 173.726434 168.649512 
L 174.812235 177.256965 
L 175.898036 168.849853 
L 176.983837 169.855831 
L 178.069638 185.8288 
L 179.155439 198.269946 
L 180.24124 201.22209 
L 181.327042 192.082322 
L 182.412843 188.10496 
L 183.498644 168.209871 
L 184.584445 192.012073 
L 185.670246 190.143577 
L 186.756047 189.076074 
L 187.841849 193.603532 
L 188.92765 188.030872 
L 190.013451 183.609768 
L 191.099252 197.269117 
L 192.185053 186.588822 
L 193.270854 197.961901 
L 194.356656 184.693948 
L 195.442457 183.507707 
L 196.528258 194.831326 
L 197.614059 166.882556 
L 198.69986 186.440319 
L 199.785661 193.289291 
L 200.871462 206.285252 
L 201.957264 196.946275 
L 203.043065 177.991631 
L 204.128866 200.466202 
L 205.214667 196.548769 
L 206.300468 189.257196 
L 207.386269 197.420492 
L 208.472071 199.393878 
L 209.557872 170.06012 
L 210.643673 174.777468 
L 211.729474 174.799653 
L 212.815275 174.671881 
L 213.901076 191.073543 
L 214.986877 177.848218 
L 216.072679 204.387261 
L 217.15848 196.199552 
L 218.244281 204.340917 
L 219.330082 193.837291 
L 220.415883 163.652764 
L 221.501684 177.731478 
L 222.587486 172.494931 
L 223.673287 179.584608 
L 224.759088 179.823706 
L 225.844889 176.228944 
L 226.93069 169.376377 
L 228.016491 171.900396 
L 229.102292 191.35797 
L 230.188094 190.414194 
L 231.273895 194.147914 
L 232.359696 176.983216 
L 233.445497 187.506333 
L 234.531298 180.507626 
L 235.617099 167.620113 
L 236.702901 185.630308 
L 237.788702 163.184365 
L 238.874503 187.946786 
L 239.960304 170.881207 
L 241.046105 182.431055 
L 242.131906 167.372959 
L 243.217708 172.430806 
L 244.303509 170.324025 
L 245.38931 170.16485 
L 246.475111 196.427531 
L 248.646713 169.60829 
L 249.732514 178.094838 
L 250.818316 165.06806 
L 251.904117 159.4163 
L 252.989918 176.616626 
L 254.075719 178.692481 
L 255.16152 183.218955 
L 256.247321 177.805451 
L 257.333123 158.737463 
L 258.418924 178.48092 
L 259.504725 186.84733 
L 260.590526 171.633389 
L 261.676327 180.150991 
L 262.762128 170.575125 
L 263.847929 187.775297 
L 264.933731 179.769529 
L 266.019532 191.789963 
L 267.105333 181.709601 
L 268.191134 177.714996 
L 269.276935 164.962383 
L 270.362736 190.859545 
L 272.534339 169.722324 
L 273.62014 190.221457 
L 274.705941 172.0751 
L 275.791742 186.63127 
L 276.877543 170.975909 
L 277.963344 177.194688 
L 279.049146 171.197247 
L 280.134947 190.757605 
L 281.220748 184.106265 
L 282.306549 195.673637 
L 283.39235 190.603479 
L 284.478151 186.641556 
L 285.563953 186.176111 
L 286.649754 172.178149 
L 287.735555 176.755291 
L 288.821356 160.756118 
L 289.907157 158.918108 
L 292.07876 195.511069 
L 293.164561 181.744988 
L 294.250362 183.680862 
L 295.336163 179.150311 
L 296.421964 168.578053 
L 297.507765 182.61798 
L 298.593566 170.047169 
L 299.679368 198.491359 
L 300.765169 176.422279 
L 301.85097 173.493177 
L 302.936771 158.250171 
L 304.022572 178.073165 
L 305.108373 165.992738 
L 306.194175 173.518951 
L 307.279976 180.113591 
L 308.365777 151.410232 
L 309.451578 179.31752 
L 310.537379 153.160254 
L 311.62318 163.664106 
L 312.708981 149.326028 
L 313.794783 175.191329 
L 314.880584 156.003268 
L 315.966385 156.568174 
L 317.052186 165.651724 
L 318.137987 183.207306 
L 319.223788 166.435112 
L 320.30959 147.483148 
L 321.395391 183.061569 
L 322.481192 154.403177 
L 323.566993 143.003834 
L 324.652794 159.320171 
L 325.738595 172.442794 
L 326.824396 174.337287 
L 327.910198 169.244896 
L 328.995999 168.17631 
L 330.0818 164.544165 
L 331.167601 162.933093 
L 332.253402 161.080108 
L 333.339203 154.62206 
L 335.510806 164.005956 
L 336.596607 165.667931 
L 337.682408 166.673124 
L 338.768209 183.360212 
L 339.85401 165.36177 
L 340.939811 165.223554 
L 343.111414 148.32543 
L 344.197215 152.22134 
L 345.283016 164.569333 
L 346.368817 169.993405 
L 347.454618 186.574384 
L 348.54042 154.634041 
L 349.626221 152.142685 
L 350.712022 163.759298 
L 351.797823 148.39972 
L 352.883624 138.52571 
L 353.969425 170.6559 
L 355.055227 149.945446 
L 356.141028 164.508716 
L 357.226829 148.581117 
L 358.31263 162.220469 
L 359.398431 160.777267 
L 360.484232 176.922835 
L 361.570033 166.175799 
L 362.655835 177.416831 
L 363.741636 162.969855 
L 364.827437 181.840797 
L 365.913238 161.788171 
L 366.999039 152.816376 
L 368.08484 157.067832 
L 369.170642 159.397961 
L 370.256443 155.069067 
L 371.342244 164.788539 
L 372.428045 136.703214 
L 373.513846 160.440561 
L 374.599647 154.974712 
L 375.685448 147.295702 
L 377.857051 142.361121 
L 378.942852 166.909106 
L 380.028653 175.094384 
L 381.114454 171.257235 
L 382.200255 178.098616 
L 383.286057 173.869199 
L 384.371858 174.51836 
L 385.457659 172.82169 
L 386.54346 178.957707 
L 387.629261 167.183088 
L 388.715062 173.8755 
L 389.800863 149.317669 
L 390.886665 186.80197 
L 391.972466 180.819683 
L 393.058267 193.339113 
L 394.144068 174.424635 
L 395.229869 176.87568 
L 396.31567 183.46287 
L 397.401472 189.000506 
L 398.487273 198.150303 
L 398.487273 198.150303 
" style="fill:none;stroke:#0000ff;stroke-linecap:square;stroke-width:1.5;"/>
   </g>
   <g id="line2d_34">
    <path clip-path="url(#p2de2541c23)" d="M 73.832727 295.488 
L 74.918528 270.570575 
L 76.00433 262.898529 
L 77.090131 267.205974 
L 78.175932 259.806269 
L 79.261733 267.235567 
L 80.347534 267.553376 
L 81.433335 250.531919 
L 82.519137 262.617299 
L 83.604938 253.455524 
L 84.690739 250.661609 
L 85.77654 243.087577 
L 86.862341 264.224541 
L 87.948142 244.396668 
L 89.033943 256.922987 
L 90.119745 251.797215 
L 91.205546 253.028172 
L 92.291347 258.6004 
L 93.377148 238.539125 
L 94.462949 242.809748 
L 95.54875 230.674261 
L 96.634552 234.331885 
L 97.720353 241.661183 
L 98.806154 228.889201 
L 99.891955 234.124976 
L 100.977756 232.332401 
L 102.063557 234.09466 
L 103.149358 216.863043 
L 104.23516 221.805481 
L 105.320961 218.118396 
L 106.406762 233.556395 
L 107.492563 225.087892 
L 108.578364 215.638074 
L 109.664165 212.475622 
L 110.749967 227.933077 
L 111.835768 233.479001 
L 112.921569 217.243258 
L 114.00737 251.975632 
L 115.093171 222.637697 
L 116.178972 235.670102 
L 117.264773 224.309322 
L 118.350575 228.246514 
L 119.436376 214.286606 
L 120.522177 245.234882 
L 121.607978 221.205261 
L 122.693779 212.633229 
L 123.77958 245.52865 
L 124.865382 226.868062 
L 125.951183 236.526676 
L 127.036984 235.21618 
L 128.122785 227.684347 
L 129.208586 245.379626 
L 130.294387 222.020256 
L 131.380189 217.13438 
L 132.46599 224.173346 
L 133.551791 218.699408 
L 134.637592 225.44898 
L 135.723393 217.999403 
L 136.809194 218.360638 
L 137.894995 222.019308 
L 138.980797 237.944263 
L 140.066598 228.718375 
L 141.152399 222.734649 
L 142.2382 235.997664 
L 143.324001 224.869605 
L 144.409802 225.10973 
L 145.495604 251.983305 
L 146.581405 240.0924 
L 147.667206 246.892669 
L 148.753007 226.851199 
L 149.838808 222.266464 
L 150.924609 231.566745 
L 152.01041 227.311876 
L 153.096212 223.589776 
L 154.182013 225.920528 
L 155.267814 222.875881 
L 156.353615 216.794332 
L 157.439416 215.862091 
L 158.525217 212.133648 
L 159.611019 218.333877 
L 160.69682 213.681667 
L 161.782621 219.49667 
L 162.868422 221.794591 
L 163.954223 219.29414 
L 165.040024 219.086354 
L 166.125825 220.88271 
L 167.211627 225.473526 
L 168.297428 206.233995 
L 169.383229 210.249434 
L 170.46903 228.753171 
L 171.554831 228.777323 
L 172.640632 215.576398 
L 173.726434 214.846453 
L 174.812235 220.582313 
L 175.898036 223.439419 
L 176.983837 210.756182 
L 179.155439 261.378997 
L 180.24124 261.017427 
L 181.327042 245.938774 
L 182.412843 238.180859 
L 183.498644 215.409941 
L 184.584445 253.017209 
L 185.670246 237.694648 
L 186.756047 228.648434 
L 187.841849 251.155813 
L 188.92765 241.798038 
L 190.013451 217.66187 
L 191.099252 246.081844 
L 192.185053 239.274224 
L 193.270854 254.011363 
L 194.356656 234.119878 
L 195.442457 227.23205 
L 196.528258 263.98196 
L 197.614059 227.653905 
L 198.69986 254.991168 
L 199.785661 254.619682 
L 200.871462 262.442468 
L 201.957264 257.843534 
L 203.043065 237.643235 
L 204.128866 268.075057 
L 205.214667 271.574483 
L 206.300468 251.005915 
L 207.386269 251.633104 
L 208.472071 255.980897 
L 209.557872 221.636858 
L 210.643673 235.447014 
L 211.729474 234.358457 
L 212.815275 227.744128 
L 213.901076 252.075525 
L 214.986877 230.174041 
L 216.072679 261.88498 
L 217.15848 245.277611 
L 218.244281 263.985756 
L 219.330082 254.104224 
L 220.415883 209.467091 
L 221.501684 234.417714 
L 222.587486 231.334772 
L 223.673287 238.100144 
L 224.759088 243.281746 
L 225.844889 224.01888 
L 226.93069 214.894845 
L 228.016491 221.277633 
L 229.102292 257.91737 
L 230.188094 243.489181 
L 231.273895 253.016358 
L 232.359696 228.101088 
L 233.445497 253.365732 
L 234.531298 243.213599 
L 235.617099 212.34893 
L 236.702901 241.453061 
L 237.788702 206.843635 
L 238.874503 239.357653 
L 239.960304 233.795147 
L 241.046105 239.456368 
L 242.131906 223.643919 
L 243.217708 228.939872 
L 244.303509 220.741952 
L 245.38931 232.442626 
L 246.475111 256.01823 
L 247.560912 251.590228 
L 248.646713 219.193265 
L 249.732514 241.151857 
L 250.818316 225.353941 
L 251.904117 222.486017 
L 252.989918 227.330307 
L 254.075719 244.801576 
L 255.16152 241.612719 
L 256.247321 249.222633 
L 257.333123 219.894218 
L 258.418924 235.68543 
L 259.504725 257.755823 
L 260.590526 239.185529 
L 261.676327 230.821621 
L 262.762128 229.681479 
L 263.847929 242.613903 
L 264.933731 223.367201 
L 266.019532 245.563802 
L 267.105333 247.553319 
L 268.191134 240.923516 
L 269.276935 228.739477 
L 270.362736 261.507804 
L 271.448538 257.420239 
L 272.534339 235.389438 
L 273.62014 248.439448 
L 274.705941 234.934549 
L 275.791742 252.185665 
L 276.877543 227.132105 
L 277.963344 248.101499 
L 279.049146 240.561754 
L 280.134947 269.682735 
L 281.220748 262.746526 
L 282.306549 258.535799 
L 283.39235 252.044873 
L 284.478151 241.01926 
L 285.563953 246.976421 
L 286.649754 215.485767 
L 287.735555 230.940037 
L 288.821356 208.445843 
L 289.907157 217.73496 
L 290.992958 242.230934 
L 292.07876 256.007784 
L 293.164561 234.909209 
L 294.250362 233.593092 
L 295.336163 236.420118 
L 296.421964 230.981867 
L 297.507765 249.314783 
L 298.593566 229.641087 
L 299.679368 262.137632 
L 300.765169 224.842868 
L 301.85097 228.41702 
L 302.936771 199.063841 
L 304.022572 241.892978 
L 305.108373 216.734911 
L 306.194175 220.751801 
L 307.279976 233.071668 
L 308.365777 197.152197 
L 309.451578 235.1924 
L 310.537379 221.163338 
L 311.62318 225.057925 
L 312.708981 200.967558 
L 313.794783 242.36078 
L 314.880584 213.84361 
L 315.966385 213.315144 
L 317.052186 222.178676 
L 318.137987 251.624551 
L 319.223788 219.186586 
L 320.30959 202.704515 
L 321.395391 257.347149 
L 322.481192 217.614229 
L 323.566993 206.625982 
L 324.652794 238.710364 
L 325.738595 233.453659 
L 326.824396 248.116987 
L 327.910198 237.574459 
L 328.995999 236.701466 
L 330.0818 232.611047 
L 331.167601 226.292326 
L 332.253402 227.910602 
L 333.339203 208.542904 
L 334.425005 223.183946 
L 335.510806 229.84351 
L 336.596607 231.7808 
L 337.682408 222.037335 
L 338.768209 257.286414 
L 339.85401 240.484362 
L 342.025613 223.445933 
L 343.111414 203.886748 
L 344.197215 220.424333 
L 345.283016 234.807358 
L 346.368817 263.008499 
L 347.454618 273.694576 
L 348.54042 229.631657 
L 349.626221 222.469345 
L 350.712022 238.215879 
L 351.797823 238.824707 
L 352.883624 203.788337 
L 353.969425 235.518209 
L 355.055227 228.011688 
L 356.141028 234.641948 
L 357.226829 220.410466 
L 358.31263 243.033505 
L 359.398431 229.768429 
L 360.484232 255.034894 
L 361.570033 244.029127 
L 362.655835 254.482914 
L 363.741636 237.015066 
L 364.827437 263.478012 
L 365.913238 224.637283 
L 366.999039 227.60492 
L 368.08484 219.007061 
L 369.170642 229.103579 
L 370.256443 219.848662 
L 371.342244 238.865039 
L 372.428045 206.837159 
L 373.513846 240.656654 
L 374.599647 228.722764 
L 375.685448 226.292768 
L 376.77125 213.414775 
L 377.857051 208.219114 
L 378.942852 242.081019 
L 380.028653 250.975235 
L 381.114454 249.807751 
L 382.200255 247.444906 
L 383.286057 249.181197 
L 384.371858 236.785223 
L 385.457659 239.57776 
L 386.54346 239.799912 
L 387.629261 226.138944 
L 388.715062 250.973815 
L 389.800863 208.547876 
L 390.886665 248.785176 
L 391.972466 252.542697 
L 393.058267 269.145127 
L 394.144068 247.892587 
L 395.229869 243.187925 
L 396.31567 265.214043 
L 397.401472 266.389884 
L 398.487273 273.471247 
L 398.487273 273.471247 
" style="fill:none;stroke:#008000;stroke-dasharray:9.6,2.4,1.5,2.4;stroke-dashoffset:0;stroke-width:1.5;"/>
   </g>
   <g id="line2d_35">
    <path clip-path="url(#p2de2541c23)" d="M 73.832727 262.699298 
L 74.918528 244.707123 
L 77.090131 231.233417 
L 78.175932 221.965819 
L 79.261733 214.185121 
L 80.347534 188.031911 
L 81.433335 192.307644 
L 82.519137 190.267168 
L 83.604938 193.398667 
L 84.690739 181.029842 
L 85.77654 180.045994 
L 86.862341 182.24922 
L 87.948142 176.137779 
L 89.033943 175.945618 
L 90.119745 167.136977 
L 91.205546 168.638413 
L 92.291347 166.175435 
L 93.377148 154.959041 
L 94.462949 140.051755 
L 95.54875 149.256015 
L 96.634552 147.994331 
L 97.720353 146.4696 
L 98.806154 145.672785 
L 99.891955 162.993766 
L 100.977756 152.577106 
L 102.063557 151.638452 
L 103.149358 159.971465 
L 104.23516 156.301007 
L 105.320961 153.351487 
L 106.406762 153.520524 
L 107.492563 145.880683 
L 108.578364 140.716651 
L 109.664165 140.09176 
L 110.749967 170.066794 
L 111.835768 147.061264 
L 112.921569 154.453316 
L 114.00737 147.68706 
L 115.093171 147.0873 
L 116.178972 164.931934 
L 117.264773 155.68891 
L 118.350575 155.961478 
L 119.436376 145.798042 
L 120.522177 142.592402 
L 121.607978 138.753288 
L 122.693779 140.551387 
L 123.77958 146.703268 
L 124.865382 161.352061 
L 125.951183 150.729157 
L 127.036984 144.470016 
L 128.122785 153.634907 
L 129.208586 155.383166 
L 130.294387 149.568882 
L 131.380189 147.254599 
L 132.46599 163.113285 
L 133.551791 156.154119 
L 134.637592 151.73605 
L 135.723393 161.506483 
L 136.809194 151.181589 
L 137.894995 149.990906 
L 138.980797 150.106509 
L 140.066598 161.0763 
L 141.152399 156.760982 
L 142.2382 162.291428 
L 143.324001 161.74773 
L 144.409802 152.835494 
L 145.495604 157.132338 
L 146.581405 169.431585 
L 147.667206 149.778555 
L 148.753007 158.673153 
L 149.838808 158.174081 
L 150.924609 160.12542 
L 152.01041 169.207728 
L 153.096212 174.033925 
L 154.182013 175.318024 
L 155.267814 156.838979 
L 156.353615 152.596151 
L 157.439416 154.227922 
L 158.525217 137.758873 
L 159.611019 142.121838 
L 160.69682 145.591414 
L 161.782621 144.514176 
L 162.868422 128.442272 
L 163.954223 138.485106 
L 165.040024 142.171029 
L 166.125825 135.972645 
L 167.211627 134.150307 
L 168.297428 117.659994 
L 169.383229 128.655952 
L 170.46903 135.879908 
L 171.554831 131.680994 
L 172.640632 122.694854 
L 173.726434 122.452571 
L 174.812235 133.931617 
L 175.898036 114.260286 
L 176.983837 128.955479 
L 178.069638 136.390879 
L 179.155439 135.160894 
L 180.24124 141.426753 
L 181.327042 138.225869 
L 182.412843 138.02906 
L 183.498644 121.0098 
L 184.584445 131.006937 
L 185.670246 142.592506 
L 186.756047 149.503715 
L 187.841849 136.051251 
L 188.92765 134.263706 
L 190.013451 149.557667 
L 191.099252 148.456391 
L 192.185053 133.90342 
L 193.270854 141.912439 
L 194.356656 135.268017 
L 195.442457 139.783364 
L 196.528258 125.680692 
L 197.614059 106.111206 
L 198.69986 117.889469 
L 199.785661 131.958899 
L 200.871462 150.128036 
L 201.957264 136.049017 
L 203.043065 118.340026 
L 204.128866 132.857348 
L 205.214667 121.523056 
L 206.300468 127.508477 
L 207.386269 143.207881 
L 208.472071 142.806859 
L 209.557872 118.483382 
L 210.643673 114.107921 
L 211.729474 115.24085 
L 212.815275 121.599635 
L 213.901076 130.07156 
L 214.986877 125.522396 
L 216.072679 146.889542 
L 217.15848 147.121493 
L 218.244281 144.696077 
L 219.330082 133.570357 
L 220.415883 117.838438 
L 221.501684 121.045242 
L 222.587486 113.655089 
L 223.673287 121.069072 
L 224.759088 116.365667 
L 225.844889 128.439008 
L 226.93069 123.857909 
L 228.016491 122.523159 
L 229.102292 124.798571 
L 230.188094 137.339208 
L 231.273895 135.27947 
L 232.359696 125.865345 
L 234.531298 117.801654 
L 235.617099 122.891296 
L 236.702901 129.807555 
L 237.788702 119.525095 
L 238.874503 136.53592 
L 239.960304 107.967266 
L 241.046105 125.405742 
L 242.131906 111.102 
L 243.217708 115.921741 
L 244.303509 119.906098 
L 245.38931 107.887074 
L 246.475111 136.836832 
L 247.560912 113.312847 
L 248.646713 120.023315 
L 249.732514 115.037819 
L 250.818316 104.78218 
L 251.904117 96.346583 
L 252.989918 125.902946 
L 254.075719 112.583386 
L 255.16152 124.825191 
L 256.247321 106.388268 
L 257.333123 97.580709 
L 258.418924 121.27641 
L 259.504725 115.938837 
L 260.590526 104.08125 
L 261.676327 129.480362 
L 262.762128 111.468771 
L 263.847929 132.936691 
L 264.933731 136.171857 
L 266.019532 138.016124 
L 267.105333 115.865882 
L 268.191134 114.506476 
L 269.276935 101.18529 
L 270.362736 120.211286 
L 271.448538 103.475914 
L 272.534339 104.055211 
L 273.62014 132.003466 
L 274.705941 109.21565 
L 275.791742 121.076876 
L 276.877543 114.819713 
L 277.963344 106.287877 
L 279.049146 101.832739 
L 280.134947 111.832475 
L 281.220748 105.466004 
L 282.306549 132.811475 
L 283.39235 129.162085 
L 284.478151 132.263852 
L 285.563953 125.375802 
L 286.649754 128.870531 
L 287.735555 122.570546 
L 288.821356 113.066394 
L 289.907157 100.101257 
L 290.992958 113.499979 
L 292.07876 135.014354 
L 293.164561 128.580767 
L 294.250362 133.768631 
L 295.336163 121.880504 
L 296.421964 106.174238 
L 297.507765 115.921177 
L 298.593566 110.453251 
L 299.679368 134.845086 
L 300.765169 128.001691 
L 301.85097 118.569335 
L 302.936771 117.436502 
L 304.022572 114.253353 
L 305.108373 115.250566 
L 306.194175 126.286101 
L 307.279976 127.155514 
L 308.365777 105.668267 
L 309.451578 123.44264 
L 310.537379 85.15717 
L 311.62318 102.270287 
L 312.708981 97.684498 
L 313.794783 108.021878 
L 314.880584 98.162925 
L 315.966385 99.821205 
L 317.052186 109.124772 
L 318.137987 114.790062 
L 319.223788 113.683637 
L 320.30959 92.261781 
L 321.395391 108.775988 
L 322.481192 91.192126 
L 323.566993 79.381687 
L 324.652794 79.929978 
L 325.738595 111.431929 
L 326.824396 100.557587 
L 327.910198 100.915333 
L 328.995999 99.651154 
L 330.0818 96.477284 
L 331.167601 99.57386 
L 332.253402 94.249615 
L 333.339203 100.701217 
L 334.425005 95.859648 
L 335.510806 98.168401 
L 336.596607 99.555061 
L 337.682408 111.308912 
L 338.768209 109.434009 
L 339.85401 90.239177 
L 340.939811 98.157974 
L 342.025613 89.448749 
L 343.111414 92.764111 
L 344.197215 84.018347 
L 345.283016 94.331308 
L 346.368817 76.97831 
L 347.454618 99.454191 
L 348.54042 79.636424 
L 349.626221 81.816024 
L 350.712022 89.302717 
L 351.797823 57.974734 
L 352.883624 73.263083 
L 353.969425 105.793591 
L 355.055227 71.879205 
L 356.141028 94.375484 
L 357.226829 76.751767 
L 358.31263 81.407434 
L 359.398431 91.786106 
L 360.484232 98.810775 
L 361.570033 88.322472 
L 362.655835 100.350748 
L 363.741636 88.924644 
L 364.827437 100.203582 
L 365.913238 98.939059 
L 366.999039 78.027831 
L 368.08484 95.128603 
L 369.170642 89.692343 
L 370.256443 90.289472 
L 371.342244 90.712038 
L 372.428045 66.569269 
L 373.513846 80.224467 
L 374.599647 81.22666 
L 375.685448 68.298635 
L 376.77125 76.464011 
L 377.857051 76.503129 
L 378.942852 91.737193 
L 380.028653 99.213532 
L 381.114454 92.706718 
L 382.200255 108.752326 
L 383.286057 98.5572 
L 384.371858 112.251498 
L 385.457659 106.06562 
L 386.54346 118.115502 
L 387.629261 108.227232 
L 388.715062 96.777184 
L 389.800863 90.087461 
L 390.886665 124.818764 
L 391.972466 109.09667 
L 393.058267 117.5331 
L 394.144068 100.956684 
L 395.229869 110.563435 
L 396.31567 101.711697 
L 397.401472 111.611127 
L 398.487273 122.829359 
L 398.487273 122.829359 
" style="fill:none;stroke:#008000;stroke-dasharray:9.6,2.4,1.5,2.4;stroke-dashoffset:0;stroke-width:1.5;"/>
   </g>
   <g id="line2d_36">
    <path clip-path="url(#p2de2541c23)" d="M 73.832727 249.071542 
L 76.00433 237.558363 
L 77.090131 220.197367 
L 78.175932 208.504179 
L 79.261733 198.69754 
L 80.347534 155.943827 
L 81.433335 156.309326 
L 82.519137 162.481839 
L 83.604938 183.54776 
L 84.690739 156.358805 
L 85.77654 159.980158 
L 86.862341 166.126532 
L 87.948142 165.878904 
L 89.033943 152.161443 
L 90.119745 151.50054 
L 91.205546 144.259958 
L 92.291347 144.768029 
L 93.377148 132.361105 
L 94.462949 129.542372 
L 95.54875 136.199437 
L 96.634552 137.710083 
L 97.720353 142.249731 
L 98.806154 134.646315 
L 99.891955 150.318151 
L 100.977756 134.892563 
L 102.063557 138.710103 
L 103.149358 145.491542 
L 104.23516 149.991148 
L 105.320961 141.349763 
L 106.406762 139.821674 
L 108.578364 137.994732 
L 109.664165 139.479905 
L 110.749967 152.618866 
L 111.835768 148.301342 
L 112.921569 142.569904 
L 114.00737 143.593296 
L 115.093171 145.593579 
L 116.178972 152.262317 
L 117.264773 145.229294 
L 118.350575 144.937722 
L 119.436376 138.917382 
L 120.522177 145.215316 
L 121.607978 141.578032 
L 122.693779 135.563432 
L 123.77958 144.036769 
L 124.865382 153.904872 
L 125.951183 141.706755 
L 127.036984 144.294859 
L 128.122785 149.149809 
L 129.208586 151.756572 
L 130.294387 147.533299 
L 131.380189 146.642358 
L 132.46599 155.674668 
L 133.551791 157.929664 
L 134.637592 155.743635 
L 135.723393 155.857624 
L 136.809194 141.516093 
L 137.894995 140.153582 
L 138.980797 145.554112 
L 140.066598 154.264138 
L 141.152399 145.351419 
L 142.2382 146.532066 
L 143.324001 150.651053 
L 144.409802 155.55563 
L 145.495604 151.506954 
L 146.581405 154.46688 
L 147.667206 146.341609 
L 148.753007 148.141299 
L 149.838808 150.421383 
L 150.924609 153.182332 
L 152.01041 160.538398 
L 153.096212 165.399701 
L 154.182013 160.442122 
L 155.267814 153.896403 
L 156.353615 152.57378 
L 157.439416 145.308432 
L 158.525217 128.213711 
L 159.611019 135.67278 
L 160.69682 118.063524 
L 161.782621 132.571373 
L 162.868422 108.254798 
L 163.954223 116.943749 
L 165.040024 112.892949 
L 166.125825 122.806337 
L 167.211627 112.746236 
L 168.297428 92.160117 
L 169.383229 108.556505 
L 170.46903 114.26094 
L 171.554831 111.260685 
L 172.640632 110.762133 
L 173.726434 98.889807 
L 174.812235 119.056865 
L 175.898036 97.644999 
L 176.983837 109.920572 
L 178.069638 129.126412 
L 179.155439 110.377728 
L 180.24124 125.600965 
L 181.327042 115.113898 
L 182.412843 103.237417 
L 183.498644 103.671038 
L 184.584445 111.860181 
L 185.670246 117.631518 
L 186.756047 130.123965 
L 188.92765 95.013774 
L 190.013451 131.034079 
L 191.099252 121.265835 
L 192.185053 106.231733 
L 193.270854 117.122019 
L 194.356656 103.740242 
L 195.442457 114.630342 
L 196.528258 99.69442 
L 197.614059 97.155863 
L 198.69986 95.855317 
L 199.785661 123.528708 
L 200.871462 112.01568 
L 201.957264 116.295206 
L 203.043065 108.276245 
L 204.128866 109.144048 
L 205.214667 100.823248 
L 206.300468 114.634133 
L 207.386269 124.603815 
L 208.472071 118.617165 
L 209.557872 100.907981 
L 210.643673 106.905697 
L 211.729474 92.86619 
L 212.815275 100.88044 
L 213.901076 110.373272 
L 214.986877 107.04787 
L 216.072679 120.416327 
L 217.15848 125.888542 
L 218.244281 118.621001 
L 219.330082 118.490547 
L 220.415883 107.570428 
L 221.501684 108.252877 
L 222.587486 111.332328 
L 223.673287 112.223286 
L 224.759088 109.793039 
L 225.844889 127.021946 
L 226.93069 126.797473 
L 228.016491 121.389398 
L 229.102292 117.82264 
L 231.273895 134.141366 
L 232.359696 128.888504 
L 234.531298 111.306794 
L 235.617099 127.479143 
L 236.702901 127.111835 
L 237.788702 122.099702 
L 238.874503 135.86822 
L 239.960304 108.138871 
L 241.046105 124.777037 
L 242.131906 106.214617 
L 243.217708 119.60661 
L 244.303509 116.130153 
L 245.38931 109.852768 
L 246.475111 123.607322 
L 247.560912 102.330691 
L 248.646713 123.199901 
L 249.732514 110.753122 
L 250.818316 109.84212 
L 251.904117 100.319096 
L 252.989918 121.49585 
L 254.075719 107.382518 
L 255.16152 111.032852 
L 256.247321 99.385458 
L 257.333123 99.251404 
L 258.418924 118.04412 
L 259.504725 105.383766 
L 260.590526 105.923113 
L 261.676327 120.084411 
L 262.762128 108.465743 
L 263.847929 120.506762 
L 264.933731 130.040505 
L 266.019532 128.726672 
L 267.105333 115.88156 
L 268.191134 114.703951 
L 269.276935 94.701248 
L 270.362736 99.934429 
L 272.534339 90.374873 
L 273.62014 120.147563 
L 274.705941 104.897484 
L 275.791742 111.79494 
L 276.877543 121.3176 
L 277.963344 100.799048 
L 279.049146 105.15284 
L 280.134947 105.500947 
L 281.220748 93.168327 
L 282.306549 118.267588 
L 283.39235 113.532953 
L 284.478151 121.329101 
L 285.563953 117.125592 
L 286.649754 119.960682 
L 287.735555 103.819679 
L 288.821356 100.39394 
L 289.907157 89.179584 
L 290.992958 109.326532 
L 292.07876 117.312126 
L 293.164561 119.472496 
L 294.250362 110.781322 
L 295.336163 113.635121 
L 296.421964 98.615445 
L 297.507765 97.04745 
L 298.593566 95.72768 
L 299.679368 118.277486 
L 300.765169 119.921866 
L 301.85097 105.524757 
L 302.936771 111.470927 
L 304.022572 95.271581 
L 305.108373 114.245114 
L 306.194175 110.096514 
L 307.279976 125.450693 
L 308.365777 104.147772 
L 309.451578 98.150036 
L 310.537379 88.888969 
L 311.62318 94.712597 
L 312.708981 90.1174 
L 313.794783 99.87085 
L 314.880584 95.923891 
L 315.966385 93.60419 
L 317.052186 102.8557 
L 318.137987 93.386901 
L 319.223788 95.466211 
L 320.30959 81.408415 
L 321.395391 84.186658 
L 322.481192 76.236654 
L 323.566993 76.882705 
L 324.652794 59.597323 
L 325.738595 94.761074 
L 326.824396 78.719801 
L 327.910198 91.835255 
L 328.995999 74.991438 
L 330.0818 79.615408 
L 331.167601 77.550194 
L 332.253402 62.802981 
L 333.339203 83.239209 
L 334.425005 89.952607 
L 335.510806 89.875024 
L 336.596607 74.626316 
L 337.682408 93.213982 
L 338.768209 79.283625 
L 339.85401 73.665992 
L 340.939811 84.874669 
L 342.025613 66.133973 
L 343.111414 70.000072 
L 344.197215 77.364322 
L 345.283016 70.750049 
L 346.368817 53.568 
L 347.454618 68.680398 
L 348.54042 77.814101 
L 349.626221 58.567686 
L 350.712022 78.548366 
L 351.797823 62.043818 
L 352.883624 78.396433 
L 353.969425 90.554308 
L 355.055227 77.038747 
L 356.141028 87.771716 
L 357.226829 78.88309 
L 358.31263 67.159007 
L 359.398431 93.116103 
L 360.484232 97.020529 
L 361.570033 76.205513 
L 362.655835 76.491492 
L 363.741636 74.151594 
L 364.827437 73.15095 
L 365.913238 87.256254 
L 366.999039 67.084178 
L 368.08484 84.65968 
L 369.170642 78.958798 
L 370.256443 83.322607 
L 371.342244 80.074013 
L 372.428045 66.324895 
L 373.513846 73.977309 
L 374.599647 86.871713 
L 375.685448 76.622437 
L 376.77125 70.589963 
L 377.857051 82.374649 
L 378.942852 86.889916 
L 380.028653 95.13579 
L 381.114454 91.35477 
L 382.200255 93.2683 
L 383.286057 96.667911 
L 384.371858 102.941975 
L 385.457659 92.919318 
L 386.54346 111.84046 
L 387.629261 105.758685 
L 388.715062 92.035171 
L 389.800863 85.089144 
L 390.886665 109.704284 
L 391.972466 90.860128 
L 393.058267 95.999639 
L 394.144068 96.973917 
L 395.229869 98.889817 
L 396.31567 92.14766 
L 397.401472 96.016337 
L 398.487273 106.236314 
L 398.487273 106.236314 
" style="fill:none;stroke:#ff0000;stroke-linecap:square;stroke-width:1.5;"/>
   </g>
   <g id="patch_3">
    <path d="M 57.6 307.584 
L 57.6 41.472 
" style="fill:none;stroke:#000000;stroke-linecap:square;stroke-linejoin:miter;stroke-width:0.8;"/>
   </g>
   <g id="patch_4">
    <path d="M 414.72 307.584 
L 414.72 41.472 
" style="fill:none;stroke:#000000;stroke-linecap:square;stroke-linejoin:miter;stroke-width:0.8;"/>
   </g>
   <g id="patch_5">
    <path d="M 57.6 307.584 
L 414.72 307.584 
" style="fill:none;stroke:#000000;stroke-linecap:square;stroke-linejoin:miter;stroke-width:0.8;"/>
   </g>
   <g id="patch_6">
    <path d="M 57.6 41.472 
L 414.72 41.472 
" style="fill:none;stroke:#000000;stroke-linecap:square;stroke-linejoin:miter;stroke-width:0.8;"/>
   </g>
   <g id="text_19">
    <!-- Population's average and best fitness -->
    <defs>
     <path d="M 19.671875 64.796875 
L 19.671875 37.40625 
L 32.078125 37.40625 
Q 38.96875 37.40625 42.71875 40.96875 
Q 46.484375 44.53125 46.484375 51.125 
Q 46.484375 57.671875 42.71875 61.234375 
Q 38.96875 64.796875 32.078125 64.796875 
z
M 9.8125 72.90625 
L 32.078125 72.90625 
Q 44.34375 72.90625 50.609375 67.359375 
Q 56.890625 61.8125 56.890625 51.125 
Q 56.890625 40.328125 50.609375 34.8125 
Q 44.34375 29.296875 32.078125 29.296875 
L 19.671875 29.296875 
L 19.671875 0 
L 9.8125 0 
z
" id="DejaVuSans-80"/>
     <path d="M 18.109375 8.203125 
L 18.109375 -20.796875 
L 9.078125 -20.796875 
L 9.078125 54.6875 
L 18.109375 54.6875 
L 18.109375 46.390625 
Q 20.953125 51.265625 25.265625 53.625 
Q 29.59375 56 35.59375 56 
Q 45.5625 56 51.78125 48.09375 
Q 58.015625 40.1875 58.015625 27.296875 
Q 58.015625 14.40625 51.78125 6.484375 
Q 45.5625 -1.421875 35.59375 -1.421875 
Q 29.59375 -1.421875 25.265625 0.953125 
Q 20.953125 3.328125 18.109375 8.203125 
z
M 48.6875 27.296875 
Q 48.6875 37.203125 44.609375 42.84375 
Q 40.53125 48.484375 33.40625 48.484375 
Q 26.265625 48.484375 22.1875 42.84375 
Q 18.109375 37.203125 18.109375 27.296875 
Q 18.109375 17.390625 22.1875 11.75 
Q 26.265625 6.109375 33.40625 6.109375 
Q 40.53125 6.109375 44.609375 11.75 
Q 48.6875 17.390625 48.6875 27.296875 
z
" id="DejaVuSans-112"/>
     <path d="M 8.5 21.578125 
L 8.5 54.6875 
L 17.484375 54.6875 
L 17.484375 21.921875 
Q 17.484375 14.15625 20.5 10.265625 
Q 23.53125 6.390625 29.59375 6.390625 
Q 36.859375 6.390625 41.078125 11.03125 
Q 45.3125 15.671875 45.3125 23.6875 
L 45.3125 54.6875 
L 54.296875 54.6875 
L 54.296875 0 
L 45.3125 0 
L 45.3125 8.40625 
Q 42.046875 3.421875 37.71875 1 
Q 33.40625 -1.421875 27.6875 -1.421875 
Q 18.265625 -1.421875 13.375 4.4375 
Q 8.5 10.296875 8.5 21.578125 
z
M 31.109375 56 
z
" id="DejaVuSans-117"/>
     <path d="M 9.421875 75.984375 
L 18.40625 75.984375 
L 18.40625 0 
L 9.421875 0 
z
" id="DejaVuSans-108"/>
     <path d="M 17.921875 72.90625 
L 17.921875 45.796875 
L 9.625 45.796875 
L 9.625 72.90625 
z
" id="DejaVuSans-39"/>
     <path id="DejaVuSans-32"/>
     <path d="M 2.984375 54.6875 
L 12.5 54.6875 
L 29.59375 8.796875 
L 46.6875 54.6875 
L 56.203125 54.6875 
L 35.6875 0 
L 23.484375 0 
z
" id="DejaVuSans-118"/>
     <path d="M 45.40625 27.984375 
Q 45.40625 37.75 41.375 43.109375 
Q 37.359375 48.484375 30.078125 48.484375 
Q 22.859375 48.484375 18.828125 43.109375 
Q 14.796875 37.75 14.796875 27.984375 
Q 14.796875 18.265625 18.828125 12.890625 
Q 22.859375 7.515625 30.078125 7.515625 
Q 37.359375 7.515625 41.375 12.890625 
Q 45.40625 18.265625 45.40625 27.984375 
z
M 54.390625 6.78125 
Q 54.390625 -7.171875 48.1875 -13.984375 
Q 42 -20.796875 29.203125 -20.796875 
Q 24.46875 -20.796875 20.265625 -20.09375 
Q 16.0625 -19.390625 12.109375 -17.921875 
L 12.109375 -9.1875 
Q 16.0625 -11.328125 19.921875 -12.34375 
Q 23.78125 -13.375 27.78125 -13.375 
Q 36.625 -13.375 41.015625 -8.765625 
Q 45.40625 -4.15625 45.40625 5.171875 
L 45.40625 9.625 
Q 42.625 4.78125 38.28125 2.390625 
Q 33.9375 0 27.875 0 
Q 17.828125 0 11.671875 7.65625 
Q 5.515625 15.328125 5.515625 27.984375 
Q 5.515625 40.671875 11.671875 48.328125 
Q 17.828125 56 27.875 56 
Q 33.9375 56 38.28125 53.609375 
Q 42.625 51.21875 45.40625 46.390625 
L 45.40625 54.6875 
L 54.390625 54.6875 
z
" id="DejaVuSans-103"/>
     <path d="M 45.40625 46.390625 
L 45.40625 75.984375 
L 54.390625 75.984375 
L 54.390625 0 
L 45.40625 0 
L 45.40625 8.203125 
Q 42.578125 3.328125 38.25 0.953125 
Q 33.9375 -1.421875 27.875 -1.421875 
Q 17.96875 -1.421875 11.734375 6.484375 
Q 5.515625 14.40625 5.515625 27.296875 
Q 5.515625 40.1875 11.734375 48.09375 
Q 17.96875 56 27.875 56 
Q 33.9375 56 38.25 53.625 
Q 42.578125 51.265625 45.40625 46.390625 
z
M 14.796875 27.296875 
Q 14.796875 17.390625 18.875 11.75 
Q 22.953125 6.109375 30.078125 6.109375 
Q 37.203125 6.109375 41.296875 11.75 
Q 45.40625 17.390625 45.40625 27.296875 
Q 45.40625 37.203125 41.296875 42.84375 
Q 37.203125 48.484375 30.078125 48.484375 
Q 22.953125 48.484375 18.875 42.84375 
Q 14.796875 37.203125 14.796875 27.296875 
z
" id="DejaVuSans-100"/>
     <path d="M 48.6875 27.296875 
Q 48.6875 37.203125 44.609375 42.84375 
Q 40.53125 48.484375 33.40625 48.484375 
Q 26.265625 48.484375 22.1875 42.84375 
Q 18.109375 37.203125 18.109375 27.296875 
Q 18.109375 17.390625 22.1875 11.75 
Q 26.265625 6.109375 33.40625 6.109375 
Q 40.53125 6.109375 44.609375 11.75 
Q 48.6875 17.390625 48.6875 27.296875 
z
M 18.109375 46.390625 
Q 20.953125 51.265625 25.265625 53.625 
Q 29.59375 56 35.59375 56 
Q 45.5625 56 51.78125 48.09375 
Q 58.015625 40.1875 58.015625 27.296875 
Q 58.015625 14.40625 51.78125 6.484375 
Q 45.5625 -1.421875 35.59375 -1.421875 
Q 29.59375 -1.421875 25.265625 0.953125 
Q 20.953125 3.328125 18.109375 8.203125 
L 18.109375 0 
L 9.078125 0 
L 9.078125 75.984375 
L 18.109375 75.984375 
z
" id="DejaVuSans-98"/>
     <path d="M 37.109375 75.984375 
L 37.109375 68.5 
L 28.515625 68.5 
Q 23.6875 68.5 21.796875 66.546875 
Q 19.921875 64.59375 19.921875 59.515625 
L 19.921875 54.6875 
L 34.71875 54.6875 
L 34.71875 47.703125 
L 19.921875 47.703125 
L 19.921875 0 
L 10.890625 0 
L 10.890625 47.703125 
L 2.296875 47.703125 
L 2.296875 54.6875 
L 10.890625 54.6875 
L 10.890625 58.5 
Q 10.890625 67.625 15.140625 71.796875 
Q 19.390625 75.984375 28.609375 75.984375 
z
" id="DejaVuSans-102"/>
    </defs>
    <g transform="translate(123.315 35.472)scale(0.12 -0.12)">
     <use xlink:href="#DejaVuSans-80"/>
     <use x="60.255859" xlink:href="#DejaVuSans-111"/>
     <use x="121.4375" xlink:href="#DejaVuSans-112"/>
     <use x="184.914062" xlink:href="#DejaVuSans-117"/>
     <use x="248.292969" xlink:href="#DejaVuSans-108"/>
     <use x="276.076172" xlink:href="#DejaVuSans-97"/>
     <use x="337.355469" xlink:href="#DejaVuSans-116"/>
     <use x="376.564453" xlink:href="#DejaVuSans-105"/>
     <use x="404.347656" xlink:href="#DejaVuSans-111"/>
     <use x="465.529297" xlink:href="#DejaVuSans-110"/>
     <use x="528.908203" xlink:href="#DejaVuSans-39"/>
     <use x="556.398438" xlink:href="#DejaVuSans-115"/>
     <use x="608.498047" xlink:href="#DejaVuSans-32"/>
     <use x="640.285156" xlink:href="#DejaVuSans-97"/>
     <use x="701.564453" xlink:href="#DejaVuSans-118"/>
     <use x="760.744141" xlink:href="#DejaVuSans-101"/>
     <use x="822.267578" xlink:href="#DejaVuSans-114"/>
     <use x="863.380859" xlink:href="#DejaVuSans-97"/>
     <use x="924.660156" xlink:href="#DejaVuSans-103"/>
     <use x="988.136719" xlink:href="#DejaVuSans-101"/>
     <use x="1049.660156" xlink:href="#DejaVuSans-32"/>
     <use x="1081.447266" xlink:href="#DejaVuSans-97"/>
     <use x="1142.726562" xlink:href="#DejaVuSans-110"/>
     <use x="1206.105469" xlink:href="#DejaVuSans-100"/>
     <use x="1269.582031" xlink:href="#DejaVuSans-32"/>
     <use x="1301.369141" xlink:href="#DejaVuSans-98"/>
     <use x="1364.845703" xlink:href="#DejaVuSans-101"/>
     <use x="1426.369141" xlink:href="#DejaVuSans-115"/>
     <use x="1478.46875" xlink:href="#DejaVuSans-116"/>
     <use x="1517.677734" xlink:href="#DejaVuSans-32"/>
     <use x="1549.464844" xlink:href="#DejaVuSans-102"/>
     <use x="1584.669922" xlink:href="#DejaVuSans-105"/>
     <use x="1612.453125" xlink:href="#DejaVuSans-116"/>
     <use x="1651.662109" xlink:href="#DejaVuSans-110"/>
     <use x="1715.041016" xlink:href="#DejaVuSans-101"/>
     <use x="1776.564453" xlink:href="#DejaVuSans-115"/>
     <use x="1828.664062" xlink:href="#DejaVuSans-115"/>
    </g>
   </g>
   <g id="legend_1">
    <g id="patch_7">
     <path d="M 64.6 108.1845 
L 137.540625 108.1845 
Q 139.540625 108.1845 139.540625 106.1845 
L 139.540625 48.472 
Q 139.540625 46.472 137.540625 46.472 
L 64.6 46.472 
Q 62.6 46.472 62.6 48.472 
L 62.6 106.1845 
Q 62.6 108.1845 64.6 108.1845 
z
" style="fill:#ffffff;opacity:0.8;stroke:#cccccc;stroke-linejoin:miter;"/>
    </g>
    <g id="line2d_37">
     <path d="M 66.6 54.570438 
L 86.6 54.570438 
" style="fill:none;stroke:#0000ff;stroke-linecap:square;stroke-width:1.5;"/>
    </g>
    <g id="line2d_38"/>
    <g id="text_20">
     <!-- average -->
     <g transform="translate(94.6 58.070438)scale(0.1 -0.1)">
      <use xlink:href="#DejaVuSans-97"/>
      <use x="61.279297" xlink:href="#DejaVuSans-118"/>
      <use x="120.458984" xlink:href="#DejaVuSans-101"/>
      <use x="181.982422" xlink:href="#DejaVuSans-114"/>
      <use x="223.095703" xlink:href="#DejaVuSans-97"/>
      <use x="284.375" xlink:href="#DejaVuSans-103"/>
      <use x="347.851562" xlink:href="#DejaVuSans-101"/>
     </g>
    </g>
    <g id="line2d_39">
     <path d="M 66.6 69.248563 
L 86.6 69.248563 
" style="fill:none;stroke:#008000;stroke-dasharray:9.6,2.4,1.5,2.4;stroke-dashoffset:0;stroke-width:1.5;"/>
    </g>
    <g id="line2d_40"/>
    <g id="text_21">
     <!-- -1 sd -->
     <defs>
      <path d="M 4.890625 31.390625 
L 31.203125 31.390625 
L 31.203125 23.390625 
L 4.890625 23.390625 
z
" id="DejaVuSans-45"/>
     </defs>
     <g transform="translate(94.6 72.748563)scale(0.1 -0.1)">
      <use xlink:href="#DejaVuSans-45"/>
      <use x="36.083984" xlink:href="#DejaVuSans-49"/>
      <use x="99.707031" xlink:href="#DejaVuSans-32"/>
      <use x="131.494141" xlink:href="#DejaVuSans-115"/>
      <use x="183.59375" xlink:href="#DejaVuSans-100"/>
     </g>
    </g>
    <g id="line2d_41">
     <path d="M 66.6 83.926688 
L 86.6 83.926688 
" style="fill:none;stroke:#008000;stroke-dasharray:9.6,2.4,1.5,2.4;stroke-dashoffset:0;stroke-width:1.5;"/>
    </g>
    <g id="line2d_42"/>
    <g id="text_22">
     <!-- +1 sd -->
     <defs>
      <path d="M 46 62.703125 
L 46 35.5 
L 73.1875 35.5 
L 73.1875 27.203125 
L 46 27.203125 
L 46 0 
L 37.796875 0 
L 37.796875 27.203125 
L 10.59375 27.203125 
L 10.59375 35.5 
L 37.796875 35.5 
L 37.796875 62.703125 
z
" id="DejaVuSans-43"/>
     </defs>
     <g transform="translate(94.6 87.426688)scale(0.1 -0.1)">
      <use xlink:href="#DejaVuSans-43"/>
      <use x="83.789062" xlink:href="#DejaVuSans-49"/>
      <use x="147.412109" xlink:href="#DejaVuSans-32"/>
      <use x="179.199219" xlink:href="#DejaVuSans-115"/>
      <use x="231.298828" xlink:href="#DejaVuSans-100"/>
     </g>
    </g>
    <g id="line2d_43">
     <path d="M 66.6 98.604813 
L 86.6 98.604813 
" style="fill:none;stroke:#ff0000;stroke-linecap:square;stroke-width:1.5;"/>
    </g>
    <g id="line2d_44"/>
    <g id="text_23">
     <!-- best -->
     <g transform="translate(94.6 102.104813)scale(0.1 -0.1)">
      <use xlink:href="#DejaVuSans-98"/>
      <use x="63.476562" xlink:href="#DejaVuSans-101"/>
      <use x="125" xlink:href="#DejaVuSans-115"/>
      <use x="177.099609" xlink:href="#DejaVuSans-116"/>
     </g>
    </g>
   </g>
  </g>
 </g>
 <defs>
  <clipPath id="p2de2541c23">
   <rect height="266.112" width="357.12" x="57.6" y="41.472"/>
  </clipPath>
 </defs>
</svg>
