<?xml version="1.0" encoding="UTF-8" standalone="no"?>
<!DOCTYPE svg PUBLIC "-//W3C//DTD SVG 1.1//EN"
 "http://www.w3.org/Graphics/SVG/1.1/DTD/svg11.dtd">
<!-- Generated by graphviz version 2.40.1 (20161225.0304)
 -->
<!-- Title: %3 Pages: 1 -->
<svg width="485pt" height="350pt"
 viewBox="0.00 0.00 484.77 350.02" xmlns="http://www.w3.org/2000/svg" xmlns:xlink="http://www.w3.org/1999/xlink">
<g id="graph0" class="graph" transform="scale(1 1) rotate(0) translate(4 346.0159)">
<title>%3</title>
<polygon fill="#ffffff" stroke="transparent" points="-4,4 -4,-346.0159 480.7661,-346.0159 480.7661,4 -4,4"/>
<!-- 0 -->
<g id="node1" class="node">
<title>0</title>
<polygon fill="#d3d3d3" stroke="#000000" points="169.389,-342.0159 149.3771,-342.0159 149.3771,-325.0159 169.389,-325.0159 169.389,-342.0159"/>
<text text-anchor="middle" x="159.383" y="-330.8159" font-family="Times,serif" font-size="9.00" fill="#000000">0</text>
</g>
<!-- 1 -->
<g id="node2" class="node">
<title>1</title>
<polygon fill="#d3d3d3" stroke="#000000" points="303.389,-342.0159 283.3771,-342.0159 283.3771,-325.0159 303.389,-325.0159 303.389,-342.0159"/>
<text text-anchor="middle" x="293.383" y="-330.8159" font-family="Times,serif" font-size="9.00" fill="#000000">1</text>
</g>
<!-- 0&#45;&gt;1 -->
<!-- E2 -->
<g id="node6" class="node">
<title>E2</title>
<ellipse fill="#87cefa" stroke="#000000" cx="128.383" cy="-18.383" rx="18.2668" ry="18.2668"/>
<text text-anchor="middle" x="128.383" y="-15.683" font-family="Times,serif" font-size="9.00" fill="#000000">E2</text>
</g>
<!-- 0&#45;&gt;E2 -->
<g id="edge13" class="edge">
<title>0&#45;&gt;E2</title>
<path fill="none" stroke="#00ff00" stroke-width="1.2872" d="M158.5216,-324.7585C154.5488,-284.373 137.9048,-115.1774 131.1999,-47.0177"/>
<polygon fill="#00ff00" stroke="#00ff00" stroke-width="1.2872" points="134.6748,-46.5905 130.2126,-36.9812 127.7085,-47.2759 134.6748,-46.5905"/>
</g>
<!-- 5397 -->
<g id="node15" class="node">
<title>5397</title>
<ellipse fill="#add8e6" stroke="#000000" cx="241.383" cy="-180.891" rx="24.0833" ry="24.0833"/>
<text text-anchor="middle" x="241.383" y="-182.691" font-family="Times,serif" font-size="9.00" fill="#000000">5397</text>
<text text-anchor="middle" x="241.383" y="-173.691" font-family="Times,serif" font-size="9.00" fill="#000000">sigm</text>
</g>
<!-- 0&#45;&gt;5397 -->
<g id="edge15" class="edge">
<title>0&#45;&gt;5397</title>
<path fill="none" stroke="#00ff00" stroke-width=".4486" d="M164.0267,-324.8728C175.5651,-303.3966 205.9798,-246.7863 225.0538,-211.2843"/>
<polygon fill="#00ff00" stroke="#00ff00" stroke-width=".4486" points="228.2243,-212.7782 229.874,-202.3125 222.0579,-209.4651 228.2243,-212.7782"/>
</g>
<!-- 2 -->
<g id="node3" class="node">
<title>2</title>
<polygon fill="#d3d3d3" stroke="#000000" points="342.389,-342.0159 322.3771,-342.0159 322.3771,-325.0159 342.389,-325.0159 342.389,-342.0159"/>
<text text-anchor="middle" x="332.383" y="-330.8159" font-family="Times,serif" font-size="9.00" fill="#000000">2</text>
</g>
<!-- 1&#45;&gt;2 -->
<!-- E5 -->
<g id="node9" class="node">
<title>E5</title>
<ellipse fill="#87cefa" stroke="#000000" cx="293.383" cy="-18.383" rx="18.2668" ry="18.2668"/>
<text text-anchor="middle" x="293.383" y="-15.683" font-family="Times,serif" font-size="9.00" fill="#000000">E5</text>
</g>
<!-- 1&#45;&gt;E5 -->
<g id="edge14" class="edge">
<title>1&#45;&gt;E5</title>
<path fill="none" stroke="#ff0000" stroke-width=".7053" d="M293.383,-324.7585C293.383,-284.373 293.383,-115.1774 293.383,-47.0177"/>
<polygon fill="#ff0000" stroke="#ff0000" stroke-width=".7053" points="296.8831,-46.9812 293.383,-36.9812 289.8831,-46.9813 296.8831,-46.9812"/>
</g>
<!-- E8 -->
<g id="node12" class="node">
<title>E8</title>
<ellipse fill="#87cefa" stroke="#000000" cx="458.383" cy="-18.383" rx="18.2668" ry="18.2668"/>
<text text-anchor="middle" x="458.383" y="-15.683" font-family="Times,serif" font-size="9.00" fill="#000000">E8</text>
</g>
<!-- 1&#45;&gt;E8 -->
<g id="edge11" class="edge">
<title>1&#45;&gt;E8</title>
<path fill="none" stroke="#ff0000" stroke-width="2.3041" d="M297.9683,-324.7585C319.4488,-283.733 410.527,-109.7831 445.0464,-43.8547"/>
<polygon fill="#ff0000" stroke="#ff0000" stroke-width="2.3041" points="448.1761,-45.4227 449.714,-34.94 441.9747,-42.1757 448.1761,-45.4227"/>
</g>
<!-- E0 -->
<g id="node4" class="node">
<title>E0</title>
<ellipse fill="#87cefa" stroke="#000000" cx="18.383" cy="-18.383" rx="18.2668" ry="18.2668"/>
<text text-anchor="middle" x="18.383" y="-15.683" font-family="Times,serif" font-size="9.00" fill="#000000">E0</text>
</g>
<!-- 2&#45;&gt;E0 -->
<g id="edge12" class="edge">
<title>2&#45;&gt;E0</title>
<path fill="none" stroke="#00ff00" stroke-width=".9991" d="M323.6572,-324.7585C281.673,-282.6229 99.977,-100.2714 38.6714,-38.7446"/>
<polygon fill="#00ff00" stroke="#00ff00" stroke-width=".9991" points="41.024,-36.147 31.4863,-31.5336 36.0653,-41.0878 41.024,-36.147"/>
</g>
<!-- 5534 -->
<g id="node13" class="node">
<title>5534</title>
<ellipse fill="#add8e6" stroke="#000000" cx="383.383" cy="-264.9743" rx="24.0833" ry="24.0833"/>
<text text-anchor="middle" x="383.383" y="-266.7743" font-family="Times,serif" font-size="9.00" fill="#000000">5534</text>
<text text-anchor="middle" x="383.383" y="-257.7743" font-family="Times,serif" font-size="9.00" fill="#000000">sigm</text>
</g>
<!-- 2&#45;&gt;5534 -->
<g id="edge18" class="edge">
<title>2&#45;&gt;5534</title>
<path fill="none" stroke="#00ff00" stroke-width=".1188" d="M338.8422,-324.835C344.8814,-316.7187 354.2309,-304.1534 362.8077,-292.6265"/>
<polygon fill="#00ff00" stroke="#00ff00" stroke-width=".1188" points="365.6965,-294.6073 368.8581,-284.4952 360.0805,-290.4286 365.6965,-294.6073"/>
</g>
<!-- E1 -->
<g id="node5" class="node">
<title>E1</title>
<ellipse fill="#87cefa" stroke="#000000" cx="73.383" cy="-18.383" rx="18.2668" ry="18.2668"/>
<text text-anchor="middle" x="73.383" y="-15.683" font-family="Times,serif" font-size="9.00" fill="#000000">E1</text>
</g>
<!-- E0&#45;&gt;E1 -->
<!-- E1&#45;&gt;E2 -->
<!-- E3 -->
<g id="node7" class="node">
<title>E3</title>
<ellipse fill="#87cefa" stroke="#000000" cx="183.383" cy="-18.383" rx="18.2668" ry="18.2668"/>
<text text-anchor="middle" x="183.383" y="-15.683" font-family="Times,serif" font-size="9.00" fill="#000000">E3</text>
</g>
<!-- E2&#45;&gt;E3 -->
<!-- E4 -->
<g id="node8" class="node">
<title>E4</title>
<ellipse fill="#87cefa" stroke="#000000" cx="238.383" cy="-18.383" rx="18.2668" ry="18.2668"/>
<text text-anchor="middle" x="238.383" y="-15.683" font-family="Times,serif" font-size="9.00" fill="#000000">E4</text>
</g>
<!-- E3&#45;&gt;E4 -->
<!-- E4&#45;&gt;E5 -->
<!-- E6 -->
<g id="node10" class="node">
<title>E6</title>
<ellipse fill="#87cefa" stroke="#000000" cx="348.383" cy="-18.383" rx="18.2668" ry="18.2668"/>
<text text-anchor="middle" x="348.383" y="-15.683" font-family="Times,serif" font-size="9.00" fill="#000000">E6</text>
</g>
<!-- E5&#45;&gt;E6 -->
<!-- E7 -->
<g id="node11" class="node">
<title>E7</title>
<ellipse fill="#87cefa" stroke="#000000" cx="403.383" cy="-18.383" rx="18.2668" ry="18.2668"/>
<text text-anchor="middle" x="403.383" y="-15.683" font-family="Times,serif" font-size="9.00" fill="#000000">E7</text>
</g>
<!-- E6&#45;&gt;E7 -->
<!-- E7&#45;&gt;E8 -->
<!-- 5534&#45;&gt;5397 -->
<g id="edge19" class="edge">
<title>5534&#45;&gt;5397</title>
<path fill="none" stroke="#ff0000" stroke-width=".3431" d="M362.4305,-252.5675C338.3097,-238.2847 298.5092,-214.7174 271.1735,-198.531"/>
<polygon fill="#ff0000" stroke="#ff0000" stroke-width=".3431" points="272.8096,-195.4322 262.4216,-193.3487 269.2429,-201.4555 272.8096,-195.4322"/>
</g>
<!-- 5478 -->
<g id="node14" class="node">
<title>5478</title>
<ellipse fill="#add8e6" stroke="#000000" cx="241.383" cy="-96.8077" rx="24.0833" ry="24.0833"/>
<text text-anchor="middle" x="241.383" y="-98.6077" font-family="Times,serif" font-size="9.00" fill="#000000">5478</text>
<text text-anchor="middle" x="241.383" y="-89.6077" font-family="Times,serif" font-size="9.00" fill="#000000">sigm</text>
</g>
<!-- 5478&#45;&gt;E3 -->
<g id="edge17" class="edge">
<title>5478&#45;&gt;E3</title>
<path fill="none" stroke="#ff0000" stroke-width=".1671" d="M227.046,-77.4218C219.0264,-66.5782 208.9767,-52.9895 200.5411,-41.5833"/>
<polygon fill="#ff0000" stroke="#ff0000" stroke-width=".1671" points="203.2255,-39.3268 194.4653,-33.3679 197.5974,-43.4892 203.2255,-39.3268"/>
</g>
<!-- 5397&#45;&gt;5478 -->
<g id="edge16" class="edge">
<title>5397&#45;&gt;5478</title>
<path fill="none" stroke="#00ff00" stroke-width=".4492" d="M241.383,-156.5706C241.383,-148.6398 241.383,-139.6791 241.383,-131.1553"/>
<polygon fill="#00ff00" stroke="#00ff00" stroke-width=".4492" points="244.8831,-131.0734 241.383,-121.0734 237.8831,-131.0735 244.8831,-131.0734"/>
</g>
</g>
</svg>
