<?xml version="1.0" encoding="UTF-8" standalone="no"?>
<!DOCTYPE svg PUBLIC "-//W3C//DTD SVG 1.1//EN"
 "http://www.w3.org/Graphics/SVG/1.1/DTD/svg11.dtd">
<!-- Generated by graphviz version 2.40.1 (20161225.0304)
 -->
<!-- Title: %3 Pages: 1 -->
<svg width="386pt" height="91pt"
 viewBox="0.00 0.00 386.00 90.71" xmlns="http://www.w3.org/2000/svg" xmlns:xlink="http://www.w3.org/1999/xlink">
<g id="graph0" class="graph" transform="scale(1 1) rotate(0) translate(4 86.7061)">
<title>%3</title>
<polygon fill="#ffffff" stroke="transparent" points="-4,4 -4,-86.7061 381.9976,-86.7061 381.9976,4 -4,4"/>
<!-- E0 -->
<g id="node1" class="node">
<title>E0</title>
<polygon fill="#d3d3d3" stroke="#000000" points="25.9963,-82.7061 .0012,-82.7061 .0012,-65.7061 25.9963,-65.7061 25.9963,-82.7061"/>
<text text-anchor="middle" x="12.9988" y="-71.5061" font-family="Times,serif" font-size="9.00" fill="#000000">E0</text>
</g>
<!-- E1 -->
<g id="node2" class="node">
<title>E1</title>
<polygon fill="#d3d3d3" stroke="#000000" points="69.9963,-82.7061 44.0012,-82.7061 44.0012,-65.7061 69.9963,-65.7061 69.9963,-82.7061"/>
<text text-anchor="middle" x="56.9988" y="-71.5061" font-family="Times,serif" font-size="9.00" fill="#000000">E1</text>
</g>
<!-- E0&#45;&gt;E1 -->
<!-- 0 -->
<g id="node10" class="node">
<title>0</title>
<ellipse fill="#87cefa" stroke="#000000" cx="50.9988" cy="-14.853" rx="14.4914" ry="14.4914"/>
<text text-anchor="middle" x="50.9988" y="-12.153" font-family="Times,serif" font-size="9.00" fill="#000000">0</text>
</g>
<!-- E0&#45;&gt;0 -->
<g id="edge16" class="edge">
<title>E0&#45;&gt;0</title>
<path fill="none" stroke="#00ff00" stroke-width=".6497" d="M18.4433,-65.7022C23.3955,-57.9672 30.9114,-46.228 37.4743,-35.9772"/>
<polygon fill="#00ff00" stroke="#00ff00" stroke-width=".6497" points="40.4636,-37.7993 42.908,-27.4902 34.5683,-34.0249 40.4636,-37.7993"/>
</g>
<!-- 1 -->
<g id="node11" class="node">
<title>1</title>
<ellipse fill="#87cefa" stroke="#000000" cx="97.9988" cy="-14.853" rx="14.4914" ry="14.4914"/>
<text text-anchor="middle" x="97.9988" y="-12.153" font-family="Times,serif" font-size="9.00" fill="#000000">1</text>
</g>
<!-- E0&#45;&gt;1 -->
<g id="edge13" class="edge">
<title>E0&#45;&gt;1</title>
<path fill="none" stroke="#ff0000" stroke-width="2.1698" d="M25.1772,-65.7022C38.8109,-56.1822 61.1312,-40.5966 77.4726,-29.1859"/>
<polygon fill="#ff0000" stroke="#ff0000" stroke-width="2.1698" points="79.6478,-31.9359 85.8429,-23.3411 75.6402,-26.1966 79.6478,-31.9359"/>
</g>
<!-- E2 -->
<g id="node3" class="node">
<title>E2</title>
<polygon fill="#d3d3d3" stroke="#000000" points="113.9963,-82.7061 88.0012,-82.7061 88.0012,-65.7061 113.9963,-65.7061 113.9963,-82.7061"/>
<text text-anchor="middle" x="100.9988" y="-71.5061" font-family="Times,serif" font-size="9.00" fill="#000000">E2</text>
</g>
<!-- E1&#45;&gt;E2 -->
<!-- E1&#45;&gt;0 -->
<g id="edge17" class="edge">
<title>E1&#45;&gt;0</title>
<path fill="none" stroke="#ff0000" stroke-width=".1521" d="M56.1391,-65.7022C55.4423,-58.8086 54.4239,-48.7346 53.477,-39.3682"/>
<polygon fill="#ff0000" stroke="#ff0000" stroke-width=".1521" points="56.9475,-38.8985 52.4594,-29.3013 49.983,-39.6026 56.9475,-38.8985"/>
</g>
<!-- E3 -->
<g id="node4" class="node">
<title>E3</title>
<polygon fill="#d3d3d3" stroke="#000000" points="157.9963,-82.7061 132.0012,-82.7061 132.0012,-65.7061 157.9963,-65.7061 157.9963,-82.7061"/>
<text text-anchor="middle" x="144.9988" y="-71.5061" font-family="Times,serif" font-size="9.00" fill="#000000">E3</text>
</g>
<!-- E2&#45;&gt;E3 -->
<!-- S -->
<g id="node13" class="node">
<title>S</title>
<ellipse fill="#87cefa" stroke="#000000" cx="191.9988" cy="-14.853" rx="14.7075" ry="14.7075"/>
<text text-anchor="middle" x="191.9988" y="-12.153" font-family="Times,serif" font-size="9.00" fill="#000000">S</text>
</g>
<!-- E2&#45;&gt;S -->
<g id="edge14" class="edge">
<title>E2&#45;&gt;S</title>
<path fill="none" stroke="#ff0000" stroke-width="2.3479" d="M114.0369,-65.7022C128.8518,-56.0395 153.2474,-40.1279 170.8063,-28.6755"/>
<polygon fill="#ff0000" stroke="#ff0000" stroke-width="2.3479" points="172.8144,-31.5444 179.2783,-23.1497 168.9903,-25.6812 172.8144,-31.5444"/>
</g>
<!-- E4 -->
<g id="node5" class="node">
<title>E4</title>
<polygon fill="#d3d3d3" stroke="#000000" points="201.9963,-82.7061 176.0012,-82.7061 176.0012,-65.7061 201.9963,-65.7061 201.9963,-82.7061"/>
<text text-anchor="middle" x="188.9988" y="-71.5061" font-family="Times,serif" font-size="9.00" fill="#000000">E4</text>
</g>
<!-- E3&#45;&gt;E4 -->
<!-- 2 -->
<g id="node12" class="node">
<title>2</title>
<ellipse fill="#87cefa" stroke="#000000" cx="144.9988" cy="-14.853" rx="14.4914" ry="14.4914"/>
<text text-anchor="middle" x="144.9988" y="-12.153" font-family="Times,serif" font-size="9.00" fill="#000000">2</text>
</g>
<!-- E3&#45;&gt;2 -->
<g id="edge18" class="edge">
<title>E3&#45;&gt;2</title>
<path fill="none" stroke="#00ff00" stroke-width=".1743" d="M144.9988,-65.7022C144.9988,-58.9749 144.9988,-49.2187 144.9988,-40.0472"/>
<polygon fill="#00ff00" stroke="#00ff00" stroke-width=".1743" points="148.4989,-39.7656 144.9988,-29.7657 141.4989,-39.7657 148.4989,-39.7656"/>
</g>
<!-- E5 -->
<g id="node6" class="node">
<title>E5</title>
<polygon fill="#d3d3d3" stroke="#000000" points="245.9963,-82.7061 220.0012,-82.7061 220.0012,-65.7061 245.9963,-65.7061 245.9963,-82.7061"/>
<text text-anchor="middle" x="232.9988" y="-71.5061" font-family="Times,serif" font-size="9.00" fill="#000000">E5</text>
</g>
<!-- E4&#45;&gt;E5 -->
<!-- E4&#45;&gt;0 -->
<g id="edge12" class="edge">
<title>E4&#45;&gt;0</title>
<path fill="none" stroke="#00ff00" stroke-width="1.7985" d="M175.8045,-69.0917C146.3024,-57.6514 77.3866,-30.8986 74.9988,-29.7061 74.1549,-29.2846 73.3022,-28.8426 72.4469,-28.3854"/>
<polygon fill="#00ff00" stroke="#00ff00" stroke-width="1.7985" points="73.8608,-25.1589 63.4565,-23.1583 70.3423,-31.2104 73.8608,-25.1589"/>
</g>
<!-- E6 -->
<g id="node7" class="node">
<title>E6</title>
<polygon fill="#d3d3d3" stroke="#000000" points="289.9963,-82.7061 264.0012,-82.7061 264.0012,-65.7061 289.9963,-65.7061 289.9963,-82.7061"/>
<text text-anchor="middle" x="276.9988" y="-71.5061" font-family="Times,serif" font-size="9.00" fill="#000000">E6</text>
</g>
<!-- E5&#45;&gt;E6 -->
<!-- E7 -->
<g id="node8" class="node">
<title>E7</title>
<polygon fill="#d3d3d3" stroke="#000000" points="333.9963,-82.7061 308.0012,-82.7061 308.0012,-65.7061 333.9963,-65.7061 333.9963,-82.7061"/>
<text text-anchor="middle" x="320.9988" y="-71.5061" font-family="Times,serif" font-size="9.00" fill="#000000">E7</text>
</g>
<!-- E6&#45;&gt;E7 -->
<!-- E6&#45;&gt;2 -->
<g id="edge15" class="edge">
<title>E6&#45;&gt;2</title>
<path fill="none" stroke="#ff0000" stroke-width="2.1334" d="M263.721,-68.9461C236.6609,-58.2028 176.9255,-34.3592 167.9988,-29.7061 167.1874,-29.2831 166.368,-28.8398 165.5463,-28.3816"/>
<polygon fill="#ff0000" stroke="#ff0000" stroke-width="2.1334" points="167.2867,-25.3437 156.9216,-23.1494 163.656,-31.3286 167.2867,-25.3437"/>
</g>
<!-- E8 -->
<g id="node9" class="node">
<title>E8</title>
<polygon fill="#d3d3d3" stroke="#000000" points="377.9963,-82.7061 352.0012,-82.7061 352.0012,-65.7061 377.9963,-65.7061 377.9963,-82.7061"/>
<text text-anchor="middle" x="364.9988" y="-71.5061" font-family="Times,serif" font-size="9.00" fill="#000000">E8</text>
</g>
<!-- E7&#45;&gt;E8 -->
<!-- 0&#45;&gt;1 -->
<!-- 1&#45;&gt;2 -->
<!-- 2&#45;&gt;S -->
</g>
</svg>
