<?xml version="1.0" encoding="UTF-8" standalone="no"?>
<!DOCTYPE svg PUBLIC "-//W3C//DTD SVG 1.1//EN"
 "http://www.w3.org/Graphics/SVG/1.1/DTD/svg11.dtd">
<!-- Generated by graphviz version 2.40.1 (20161225.0304)
 -->
<!-- Title: %3 Pages: 1 -->
<svg width="386pt" height="91pt"
 viewBox="0.00 0.00 386.00 90.71" xmlns="http://www.w3.org/2000/svg" xmlns:xlink="http://www.w3.org/1999/xlink">
<g id="graph0" class="graph" transform="scale(1 1) rotate(0) translate(4 86.7061)">
<title>%3</title>
<polygon fill="#ffffff" stroke="transparent" points="-4,4 -4,-86.7061 381.9976,-86.7061 381.9976,4 -4,4"/>
<!-- E0 -->
<g id="node1" class="node">
<title>E0</title>
<polygon fill="#d3d3d3" stroke="#000000" points="25.9963,-82.7061 .0012,-82.7061 .0012,-65.7061 25.9963,-65.7061 25.9963,-82.7061"/>
<text text-anchor="middle" x="12.9988" y="-71.5061" font-family="Times,serif" font-size="9.00" fill="#000000">E0</text>
</g>
<!-- E1 -->
<g id="node2" class="node">
<title>E1</title>
<polygon fill="#d3d3d3" stroke="#000000" points="69.9963,-82.7061 44.0012,-82.7061 44.0012,-65.7061 69.9963,-65.7061 69.9963,-82.7061"/>
<text text-anchor="middle" x="56.9988" y="-71.5061" font-family="Times,serif" font-size="9.00" fill="#000000">E1</text>
</g>
<!-- E0&#45;&gt;E1 -->
<!-- 2 -->
<g id="node12" class="node">
<title>2</title>
<ellipse fill="#87cefa" stroke="#000000" cx="163.9988" cy="-14.853" rx="14.4914" ry="14.4914"/>
<text text-anchor="middle" x="163.9988" y="-12.153" font-family="Times,serif" font-size="9.00" fill="#000000">2</text>
</g>
<!-- E0&#45;&gt;2 -->
<g id="edge13" class="edge">
<title>E0&#45;&gt;2</title>
<path fill="none" stroke="#00ff00" stroke-width="2.5555" d="M25.9967,-69.0892C28.9483,-67.9537 32.075,-66.7717 34.9988,-65.7061 81.3497,-48.8131 95.4116,-50.8191 139.9988,-29.7061 140.8513,-29.3024 141.7113,-28.8754 142.5729,-28.431"/>
<polygon fill="#00ff00" stroke="#00ff00" stroke-width="2.5555" points="144.6555,-31.2716 151.592,-23.2632 141.1754,-25.1979 144.6555,-31.2716"/>
</g>
<!-- E2 -->
<g id="node3" class="node">
<title>E2</title>
<polygon fill="#d3d3d3" stroke="#000000" points="113.9963,-82.7061 88.0012,-82.7061 88.0012,-65.7061 113.9963,-65.7061 113.9963,-82.7061"/>
<text text-anchor="middle" x="100.9988" y="-71.5061" font-family="Times,serif" font-size="9.00" fill="#000000">E2</text>
</g>
<!-- E1&#45;&gt;E2 -->
<!-- E1&#45;&gt;2 -->
<g id="edge17" class="edge">
<title>E1&#45;&gt;2</title>
<path fill="none" stroke="#ff0000" stroke-width=".3033" d="M70.0747,-67.5151C86.5446,-59.0147 115.6381,-43.7566 139.9988,-29.7061 140.8159,-29.2348 141.6458,-28.7504 142.482,-28.2576"/>
<polygon fill="#ff0000" stroke="#ff0000" stroke-width=".3033" points="144.6443,-31.0397 151.3828,-22.864 141.0166,-25.0531 144.6443,-31.0397"/>
</g>
<!-- E3 -->
<g id="node4" class="node">
<title>E3</title>
<polygon fill="#d3d3d3" stroke="#000000" points="157.9963,-82.7061 132.0012,-82.7061 132.0012,-65.7061 157.9963,-65.7061 157.9963,-82.7061"/>
<text text-anchor="middle" x="144.9988" y="-71.5061" font-family="Times,serif" font-size="9.00" fill="#000000">E3</text>
</g>
<!-- E2&#45;&gt;E3 -->
<!-- 0 -->
<g id="node10" class="node">
<title>0</title>
<ellipse fill="#87cefa" stroke="#000000" cx="69.9988" cy="-14.853" rx="14.4914" ry="14.4914"/>
<text text-anchor="middle" x="69.9988" y="-12.153" font-family="Times,serif" font-size="9.00" fill="#000000">0</text>
</g>
<!-- E2&#45;&gt;0 -->
<g id="edge14" class="edge">
<title>E2&#45;&gt;0</title>
<path fill="none" stroke="#00ff00" stroke-width="1.647" d="M96.5572,-65.7022C92.6496,-58.2206 86.7854,-46.9929 81.5606,-36.9894"/>
<polygon fill="#00ff00" stroke="#00ff00" stroke-width="1.647" points="84.5638,-35.1792 76.8318,-27.9357 78.3591,-38.4199 84.5638,-35.1792"/>
</g>
<!-- S -->
<g id="node13" class="node">
<title>S</title>
<ellipse fill="#87cefa" stroke="#000000" cx="210.9988" cy="-14.853" rx="14.7075" ry="14.7075"/>
<text text-anchor="middle" x="210.9988" y="-12.153" font-family="Times,serif" font-size="9.00" fill="#000000">S</text>
</g>
<!-- E2&#45;&gt;S -->
<g id="edge15" class="edge">
<title>E2&#45;&gt;S</title>
<path fill="none" stroke="#00ff00" stroke-width="1.1124" d="M114.2792,-67.73C131.3197,-59.3306 161.7002,-44.0518 186.9988,-29.7061 187.8193,-29.2408 188.6521,-28.7615 189.4908,-28.2729"/>
<polygon fill="#00ff00" stroke="#00ff00" stroke-width="1.1124" points="191.6465,-31.0602 198.4031,-22.8994 188.032,-25.0655 191.6465,-31.0602"/>
</g>
<!-- E4 -->
<g id="node5" class="node">
<title>E4</title>
<polygon fill="#d3d3d3" stroke="#000000" points="201.9963,-82.7061 176.0012,-82.7061 176.0012,-65.7061 201.9963,-65.7061 201.9963,-82.7061"/>
<text text-anchor="middle" x="188.9988" y="-71.5061" font-family="Times,serif" font-size="9.00" fill="#000000">E4</text>
</g>
<!-- E3&#45;&gt;E4 -->
<!-- E3&#45;&gt;S -->
<g id="edge16" class="edge">
<title>E3&#45;&gt;S</title>
<path fill="none" stroke="#00ff00" stroke-width=".3847" d="M154.455,-65.7022C164.2793,-56.8674 179.9125,-42.8086 192.2533,-31.7106"/>
<polygon fill="#00ff00" stroke="#00ff00" stroke-width=".3847" points="194.6982,-34.2191 199.7934,-24.9299 190.0175,-29.0142 194.6982,-34.2191"/>
</g>
<!-- E5 -->
<g id="node6" class="node">
<title>E5</title>
<polygon fill="#d3d3d3" stroke="#000000" points="245.9963,-82.7061 220.0012,-82.7061 220.0012,-65.7061 245.9963,-65.7061 245.9963,-82.7061"/>
<text text-anchor="middle" x="232.9988" y="-71.5061" font-family="Times,serif" font-size="9.00" fill="#000000">E5</text>
</g>
<!-- E4&#45;&gt;E5 -->
<!-- E4&#45;&gt;S -->
<g id="edge20" class="edge">
<title>E4&#45;&gt;S</title>
<path fill="none" stroke="#ff0000" stroke-width=".3611" d="M192.1508,-65.7022C194.7963,-58.5652 198.7053,-48.0192 202.2786,-38.3789"/>
<polygon fill="#ff0000" stroke="#ff0000" stroke-width=".3611" points="205.62,-39.4344 205.8138,-28.8414 199.0564,-37.0015 205.62,-39.4344"/>
</g>
<!-- E6 -->
<g id="node7" class="node">
<title>E6</title>
<polygon fill="#d3d3d3" stroke="#000000" points="289.9963,-82.7061 264.0012,-82.7061 264.0012,-65.7061 289.9963,-65.7061 289.9963,-82.7061"/>
<text text-anchor="middle" x="276.9988" y="-71.5061" font-family="Times,serif" font-size="9.00" fill="#000000">E6</text>
</g>
<!-- E5&#45;&gt;E6 -->
<!-- E5&#45;&gt;S -->
<g id="edge21" class="edge">
<title>E5&#45;&gt;S</title>
<path fill="none" stroke="#00ff00" stroke-width=".4732" d="M229.8467,-65.7022C227.2013,-58.5652 223.2923,-48.0192 219.7189,-38.3789"/>
<polygon fill="#00ff00" stroke="#00ff00" stroke-width=".4732" points="222.9412,-37.0015 216.1837,-28.8414 216.3776,-39.4344 222.9412,-37.0015"/>
</g>
<!-- E7 -->
<g id="node8" class="node">
<title>E7</title>
<polygon fill="#d3d3d3" stroke="#000000" points="333.9963,-82.7061 308.0012,-82.7061 308.0012,-65.7061 333.9963,-65.7061 333.9963,-82.7061"/>
<text text-anchor="middle" x="320.9988" y="-71.5061" font-family="Times,serif" font-size="9.00" fill="#000000">E7</text>
</g>
<!-- E6&#45;&gt;E7 -->
<!-- E8 -->
<g id="node9" class="node">
<title>E8</title>
<polygon fill="#d3d3d3" stroke="#000000" points="377.9963,-82.7061 352.0012,-82.7061 352.0012,-65.7061 377.9963,-65.7061 377.9963,-82.7061"/>
<text text-anchor="middle" x="364.9988" y="-71.5061" font-family="Times,serif" font-size="9.00" fill="#000000">E8</text>
</g>
<!-- E7&#45;&gt;E8 -->
<!-- E7&#45;&gt;2 -->
<g id="edge18" class="edge">
<title>E7&#45;&gt;2</title>
<path fill="none" stroke="#ff0000" stroke-width=".5876" d="M307.5483,-68.868C304.7345,-67.7911 301.7783,-66.6888 298.9988,-65.7061 249.7032,-48.2769 234.2555,-52.0809 186.9988,-29.7061 186.1718,-29.3145 185.3391,-28.8979 184.5063,-28.4621"/>
<polygon fill="#ff0000" stroke="#ff0000" stroke-width=".5876" points="186.2193,-25.409 175.8295,-23.3348 182.6581,-31.4354 186.2193,-25.409"/>
</g>
<!-- E8&#45;&gt;0 -->
<g id="edge19" class="edge">
<title>E8&#45;&gt;0</title>
<path fill="none" stroke="#00ff00" stroke-width=".1474" d="M351.6605,-68.5025C348.8387,-67.4521 345.8507,-66.453 342.9988,-65.7061 234.8295,-37.3774 199.0796,-67.9307 93.9988,-29.7061 92.9397,-29.3208 91.8771,-28.8849 90.8203,-28.4105"/>
<polygon fill="#00ff00" stroke="#00ff00" stroke-width=".1474" points="92.1654,-25.1571 81.7119,-23.4326 88.8084,-31.2996 92.1654,-25.1571"/>
</g>
<!-- 1 -->
<g id="node11" class="node">
<title>1</title>
<ellipse fill="#87cefa" stroke="#000000" cx="116.9988" cy="-14.853" rx="14.4914" ry="14.4914"/>
<text text-anchor="middle" x="116.9988" y="-12.153" font-family="Times,serif" font-size="9.00" fill="#000000">1</text>
</g>
<!-- E8&#45;&gt;1 -->
<g id="edge12" class="edge">
<title>E8&#45;&gt;1</title>
<path fill="none" stroke="#ff0000" stroke-width="2.3069" d="M351.641,-68.5748C348.8205,-67.5192 345.8381,-66.4996 342.9988,-65.7061 255.1721,-41.1598 226.1748,-62.2806 140.9988,-29.7061 140.1177,-29.3691 139.2335,-28.9989 138.3515,-28.6022"/>
<polygon fill="#ff0000" stroke="#ff0000" stroke-width="2.3069" points="139.6959,-25.3497 129.2371,-23.6574 136.3578,-31.5025 139.6959,-25.3497"/>
</g>
<!-- 0&#45;&gt;1 -->
<!-- 1&#45;&gt;2 -->
<!-- 2&#45;&gt;S -->
</g>
</svg>
