<?xml version="1.0" encoding="UTF-8" standalone="no"?>
<!DOCTYPE svg PUBLIC "-//W3C//DTD SVG 1.1//EN"
 "http://www.w3.org/Graphics/SVG/1.1/DTD/svg11.dtd">
<!-- Generated by graphviz version 2.40.1 (20161225.0304)
 -->
<!-- Title: %3 Pages: 1 -->
<svg width="485pt" height="182pt"
 viewBox="0.00 0.00 484.77 181.85" xmlns="http://www.w3.org/2000/svg" xmlns:xlink="http://www.w3.org/1999/xlink">
<g id="graph0" class="graph" transform="scale(1 1) rotate(0) translate(4 177.8494)">
<title>%3</title>
<polygon fill="#ffffff" stroke="transparent" points="-4,4 -4,-177.8494 480.7661,-177.8494 480.7661,4 -4,4"/>
<!-- 0 -->
<g id="node1" class="node">
<title>0</title>
<polygon fill="#d3d3d3" stroke="#000000" points="110.389,-173.8494 90.3771,-173.8494 90.3771,-156.8494 110.389,-156.8494 110.389,-173.8494"/>
<text text-anchor="middle" x="100.383" y="-162.6494" font-family="Times,serif" font-size="9.00" fill="#000000">0</text>
</g>
<!-- 1 -->
<g id="node2" class="node">
<title>1</title>
<polygon fill="#d3d3d3" stroke="#000000" points="149.389,-173.8494 129.3771,-173.8494 129.3771,-156.8494 149.389,-156.8494 149.389,-173.8494"/>
<text text-anchor="middle" x="139.383" y="-162.6494" font-family="Times,serif" font-size="9.00" fill="#000000">1</text>
</g>
<!-- 0&#45;&gt;1 -->
<!-- E3 -->
<g id="node7" class="node">
<title>E3</title>
<ellipse fill="#87cefa" stroke="#000000" cx="183.383" cy="-18.383" rx="18.2668" ry="18.2668"/>
<text text-anchor="middle" x="183.383" y="-15.683" font-family="Times,serif" font-size="9.00" fill="#000000">E3</text>
</g>
<!-- 0&#45;&gt;E3 -->
<g id="edge19" class="edge">
<title>0&#45;&gt;E3</title>
<path fill="none" stroke="#ff0000" stroke-width=".2847" d="M98.1068,-156.7693C94.0524,-139.5918 87.3373,-100.2704 102.383,-72.7661 103.212,-71.2508 135.8856,-49.5772 159.4761,-34.0558"/>
<polygon fill="#ff0000" stroke="#ff0000" stroke-width=".2847" points="161.552,-36.8797 167.9873,-28.4631 157.708,-31.0296 161.552,-36.8797"/>
</g>
<!-- E4 -->
<g id="node8" class="node">
<title>E4</title>
<ellipse fill="#87cefa" stroke="#000000" cx="238.383" cy="-18.383" rx="18.2668" ry="18.2668"/>
<text text-anchor="middle" x="238.383" y="-15.683" font-family="Times,serif" font-size="9.00" fill="#000000">E4</text>
</g>
<!-- 0&#45;&gt;E4 -->
<g id="edge12" class="edge">
<title>0&#45;&gt;E4</title>
<path fill="none" stroke="#00ff00" stroke-width="2.9015" d="M101.4567,-156.8381C104.1084,-139.0899 112.4984,-97.7108 135.383,-72.7661 160.3787,-45.5204 178.1906,-54.9528 210.383,-36.7661 211.7121,-36.0153 213.063,-35.2251 214.4173,-34.4116"/>
<polygon fill="#00ff00" stroke="#00ff00" stroke-width="2.9015" points="216.6129,-37.1652 223.2082,-28.8735 212.8816,-31.2425 216.6129,-37.1652"/>
</g>
<!-- 2 -->
<g id="node3" class="node">
<title>2</title>
<polygon fill="#d3d3d3" stroke="#000000" points="194.389,-173.8494 174.3771,-173.8494 174.3771,-156.8494 194.389,-156.8494 194.389,-173.8494"/>
<text text-anchor="middle" x="184.383" y="-162.6494" font-family="Times,serif" font-size="9.00" fill="#000000">2</text>
</g>
<!-- 1&#45;&gt;2 -->
<!-- E0 -->
<g id="node4" class="node">
<title>E0</title>
<ellipse fill="#87cefa" stroke="#000000" cx="18.383" cy="-18.383" rx="18.2668" ry="18.2668"/>
<text text-anchor="middle" x="18.383" y="-15.683" font-family="Times,serif" font-size="9.00" fill="#000000">E0</text>
</g>
<!-- 1&#45;&gt;E0 -->
<g id="edge11" class="edge">
<title>1&#45;&gt;E0</title>
<path fill="none" stroke="#ff0000" stroke-width="1.8834" d="M132.1763,-156.5961C113.603,-134.037 63.6647,-73.382 36.5311,-40.4256"/>
<polygon fill="#ff0000" stroke="#ff0000" stroke-width="1.8834" points="39.2152,-38.1792 30.157,-32.6837 33.8111,-42.6284 39.2152,-38.1792"/>
</g>
<!-- E6 -->
<g id="node10" class="node">
<title>E6</title>
<ellipse fill="#87cefa" stroke="#000000" cx="348.383" cy="-18.383" rx="18.2668" ry="18.2668"/>
<text text-anchor="middle" x="348.383" y="-15.683" font-family="Times,serif" font-size="9.00" fill="#000000">E6</text>
</g>
<!-- 2&#45;&gt;E6 -->
<g id="edge13" class="edge">
<title>2&#45;&gt;E6</title>
<path fill="none" stroke="#ff0000" stroke-width="1.6017" d="M194.416,-163.7759C224.766,-158.8081 314.6653,-142.4959 333.383,-120.8494 350.8442,-100.6559 353.0961,-69.4159 351.9078,-46.7371"/>
<polygon fill="#ff0000" stroke="#ff0000" stroke-width="1.6017" points="355.3911,-46.3849 351.131,-36.6842 348.4119,-46.9242 355.3911,-46.3849"/>
</g>
<!-- E7 -->
<g id="node11" class="node">
<title>E7</title>
<ellipse fill="#87cefa" stroke="#000000" cx="403.383" cy="-18.383" rx="18.2668" ry="18.2668"/>
<text text-anchor="middle" x="403.383" y="-15.683" font-family="Times,serif" font-size="9.00" fill="#000000">E7</text>
</g>
<!-- 2&#45;&gt;E7 -->
<g id="edge14" class="edge">
<title>2&#45;&gt;E7</title>
<path fill="none" stroke="#00ff00" stroke-width=".2087" d="M194.7093,-163.8597C227.887,-158.8967 331.076,-142.0338 356.383,-120.8494 378.8976,-102.0025 391.165,-70.0552 397.4633,-46.8346"/>
<polygon fill="#00ff00" stroke="#00ff00" stroke-width=".2087" points="400.9275,-47.408 399.9525,-36.8581 394.1357,-45.7134 400.9275,-47.408"/>
</g>
<!-- 5462 -->
<g id="node15" class="node">
<title>5462</title>
<ellipse fill="#add8e6" stroke="#000000" cx="168.383" cy="-96.8077" rx="24.0833" ry="24.0833"/>
<text text-anchor="middle" x="168.383" y="-98.6077" font-family="Times,serif" font-size="9.00" fill="#000000">5462</text>
<text text-anchor="middle" x="168.383" y="-89.6077" font-family="Times,serif" font-size="9.00" fill="#000000">sigm</text>
</g>
<!-- 2&#45;&gt;5462 -->
<g id="edge17" class="edge">
<title>2&#45;&gt;5462</title>
<path fill="none" stroke="#00ff00" stroke-width=".1601" d="M182.3566,-156.6685C180.7839,-149.9312 178.4955,-140.1282 176.2243,-130.3983"/>
<polygon fill="#00ff00" stroke="#00ff00" stroke-width=".1601" points="179.5759,-129.3594 173.8942,-120.4169 172.7592,-130.9507 179.5759,-129.3594"/>
</g>
<!-- E1 -->
<g id="node5" class="node">
<title>E1</title>
<ellipse fill="#87cefa" stroke="#000000" cx="73.383" cy="-18.383" rx="18.2668" ry="18.2668"/>
<text text-anchor="middle" x="73.383" y="-15.683" font-family="Times,serif" font-size="9.00" fill="#000000">E1</text>
</g>
<!-- E0&#45;&gt;E1 -->
<!-- E2 -->
<g id="node6" class="node">
<title>E2</title>
<ellipse fill="#87cefa" stroke="#000000" cx="128.383" cy="-18.383" rx="18.2668" ry="18.2668"/>
<text text-anchor="middle" x="128.383" y="-15.683" font-family="Times,serif" font-size="9.00" fill="#000000">E2</text>
</g>
<!-- E1&#45;&gt;E2 -->
<!-- E2&#45;&gt;E3 -->
<!-- E3&#45;&gt;E4 -->
<!-- E5 -->
<g id="node9" class="node">
<title>E5</title>
<ellipse fill="#87cefa" stroke="#000000" cx="293.383" cy="-18.383" rx="18.2668" ry="18.2668"/>
<text text-anchor="middle" x="293.383" y="-15.683" font-family="Times,serif" font-size="9.00" fill="#000000">E5</text>
</g>
<!-- E4&#45;&gt;E5 -->
<!-- E5&#45;&gt;E6 -->
<!-- E6&#45;&gt;E7 -->
<!-- E8 -->
<g id="node12" class="node">
<title>E8</title>
<ellipse fill="#87cefa" stroke="#000000" cx="458.383" cy="-18.383" rx="18.2668" ry="18.2668"/>
<text text-anchor="middle" x="458.383" y="-15.683" font-family="Times,serif" font-size="9.00" fill="#000000">E8</text>
</g>
<!-- E7&#45;&gt;E8 -->
<!-- 5375 -->
<g id="node13" class="node">
<title>5375</title>
<ellipse fill="#add8e6" stroke="#000000" cx="234.383" cy="-96.8077" rx="24.0833" ry="24.0833"/>
<text text-anchor="middle" x="234.383" y="-98.6077" font-family="Times,serif" font-size="9.00" fill="#000000">5375</text>
<text text-anchor="middle" x="234.383" y="-89.6077" font-family="Times,serif" font-size="9.00" fill="#000000">sigm</text>
</g>
<!-- 5375&#45;&gt;E5 -->
<g id="edge15" class="edge">
<title>5375&#45;&gt;E5</title>
<path fill="none" stroke="#00ff00" stroke-width=".212" d="M248.9673,-77.4218C257.1795,-66.5059 267.4845,-52.8082 276.1006,-41.3555"/>
<polygon fill="#00ff00" stroke="#00ff00" stroke-width=".212" points="279.0825,-43.2136 282.2975,-33.1183 273.4887,-39.0053 279.0825,-43.2136"/>
</g>
<!-- 4267 -->
<g id="node14" class="node">
<title>4267</title>
<ellipse fill="#add8e6" stroke="#000000" cx="300.383" cy="-96.8077" rx="24.0833" ry="24.0833"/>
<text text-anchor="middle" x="300.383" y="-98.6077" font-family="Times,serif" font-size="9.00" fill="#000000">4267</text>
<text text-anchor="middle" x="300.383" y="-89.6077" font-family="Times,serif" font-size="9.00" fill="#000000">sigm</text>
</g>
<!-- 4267&#45;&gt;E5 -->
<g id="edge16" class="edge">
<title>4267&#45;&gt;E5</title>
<path fill="none" stroke="#00ff00" stroke-width=".3802" d="M298.2448,-72.8516C297.5211,-64.7434 296.7053,-55.6042 295.9517,-47.161"/>
<polygon fill="#00ff00" stroke="#00ff00" stroke-width=".3802" points="299.4172,-46.6178 295.042,-36.9686 292.4449,-47.2402 299.4172,-46.6178"/>
</g>
<!-- 5462&#45;&gt;E0 -->
<g id="edge18" class="edge">
<title>5462&#45;&gt;E0</title>
<path fill="none" stroke="#00ff00" stroke-width=".2182" d="M146.3647,-86.9718C121.6035,-75.6823 80.4068,-56.2085 46.383,-36.7661 45.0577,-36.0087 43.7097,-35.2134 42.3578,-34.3959"/>
<polygon fill="#00ff00" stroke="#00ff00" stroke-width=".2182" points="43.8972,-31.2285 33.5739,-28.8452 40.1578,-37.146 43.8972,-31.2285"/>
</g>
</g>
</svg>
