<?xml version="1.0" encoding="UTF-8" standalone="no"?>
<!DOCTYPE svg PUBLIC "-//W3C//DTD SVG 1.1//EN"
 "http://www.w3.org/Graphics/SVG/1.1/DTD/svg11.dtd">
<!-- Generated by graphviz version 2.40.1 (20161225.0304)
 -->
<!-- Title: %3 Pages: 1 -->
<svg width="485pt" height="434pt"
 viewBox="0.00 0.00 484.77 434.10" xmlns="http://www.w3.org/2000/svg" xmlns:xlink="http://www.w3.org/1999/xlink">
<g id="graph0" class="graph" transform="scale(1 1) rotate(0) translate(4 430.0991)">
<title>%3</title>
<polygon fill="#ffffff" stroke="transparent" points="-4,4 -4,-430.0991 480.7661,-430.0991 480.7661,4 -4,4"/>
<!-- 0 -->
<g id="node1" class="node">
<title>0</title>
<polygon fill="#d3d3d3" stroke="#000000" points="88.389,-426.0991 68.3771,-426.0991 68.3771,-409.0991 88.389,-409.0991 88.389,-426.0991"/>
<text text-anchor="middle" x="78.383" y="-414.8991" font-family="Times,serif" font-size="9.00" fill="#000000">0</text>
</g>
<!-- 1 -->
<g id="node2" class="node">
<title>1</title>
<polygon fill="#d3d3d3" stroke="#000000" points="145.389,-426.0991 125.3771,-426.0991 125.3771,-409.0991 145.389,-409.0991 145.389,-426.0991"/>
<text text-anchor="middle" x="135.383" y="-414.8991" font-family="Times,serif" font-size="9.00" fill="#000000">1</text>
</g>
<!-- 0&#45;&gt;1 -->
<!-- E0 -->
<g id="node4" class="node">
<title>E0</title>
<ellipse fill="#87cefa" stroke="#000000" cx="18.383" cy="-18.383" rx="18.2668" ry="18.2668"/>
<text text-anchor="middle" x="18.383" y="-15.683" font-family="Times,serif" font-size="9.00" fill="#000000">E0</text>
</g>
<!-- 0&#45;&gt;E0 -->
<g id="edge12" class="edge">
<title>0&#45;&gt;E0</title>
<path fill="none" stroke="#ff0000" stroke-width="2.7967" d="M76.9448,-409.0223C73.1904,-385.8623 63.383,-320.0881 63.383,-264.9743 63.383,-264.9743 63.383,-264.9743 63.383,-180.891 63.383,-131.2289 43.6228,-76.0249 30.2909,-44.4313"/>
<polygon fill="#ff0000" stroke="#ff0000" stroke-width="2.7967" points="33.409,-42.8241 26.2215,-35.0401 26.9861,-45.6074 33.409,-42.8241"/>
</g>
<!-- 2 -->
<g id="node3" class="node">
<title>2</title>
<polygon fill="#d3d3d3" stroke="#000000" points="276.389,-426.0991 256.3771,-426.0991 256.3771,-409.0991 276.389,-409.0991 276.389,-426.0991"/>
<text text-anchor="middle" x="266.383" y="-414.8991" font-family="Times,serif" font-size="9.00" fill="#000000">2</text>
</g>
<!-- 1&#45;&gt;2 -->
<!-- E8 -->
<g id="node12" class="node">
<title>E8</title>
<ellipse fill="#87cefa" stroke="#000000" cx="458.383" cy="-18.383" rx="18.2668" ry="18.2668"/>
<text text-anchor="middle" x="458.383" y="-15.683" font-family="Times,serif" font-size="9.00" fill="#000000">E8</text>
</g>
<!-- 1&#45;&gt;E8 -->
<g id="edge11" class="edge">
<title>1&#45;&gt;E8</title>
<path fill="none" stroke="#ff0000" stroke-width="2.0813" d="M133.1777,-409.0614C127.421,-385.9982 112.383,-320.4431 112.383,-264.9743 112.383,-264.9743 112.383,-264.9743 112.383,-180.891 112.383,-120.5791 142.5498,-103.6019 194.383,-72.7661 285.5693,-18.519 331.3147,-74.7548 430.383,-36.7661 431.8083,-36.2196 433.2357,-35.5918 434.6498,-34.9053"/>
<polygon fill="#ff0000" stroke="#ff0000" stroke-width="2.0813" points="436.6912,-37.7694 443.6252,-29.7588 433.2091,-31.6968 436.6912,-37.7694"/>
</g>
<!-- 4319 -->
<g id="node13" class="node">
<title>4319</title>
<ellipse fill="#add8e6" stroke="#000000" cx="201.383" cy="-180.891" rx="24.0833" ry="24.0833"/>
<text text-anchor="middle" x="201.383" y="-182.691" font-family="Times,serif" font-size="9.00" fill="#000000">4319</text>
<text text-anchor="middle" x="201.383" y="-173.691" font-family="Times,serif" font-size="9.00" fill="#000000">sigm</text>
</g>
<!-- 1&#45;&gt;4319 -->
<g id="edge15" class="edge">
<title>1&#45;&gt;4319</title>
<path fill="none" stroke="#00ff00" stroke-width=".2066" d="M137.6995,-408.753C144.4941,-382.8774 165.0481,-305.1096 183.383,-240.9326 185.9243,-232.0377 188.7626,-222.4297 191.4204,-213.5629"/>
<polygon fill="#00ff00" stroke="#00ff00" stroke-width=".2066" points="194.7847,-214.529 194.3192,-203.9444 188.0824,-212.5091 194.7847,-214.529"/>
</g>
<!-- E2 -->
<g id="node6" class="node">
<title>E2</title>
<ellipse fill="#87cefa" stroke="#000000" cx="128.383" cy="-18.383" rx="18.2668" ry="18.2668"/>
<text text-anchor="middle" x="128.383" y="-15.683" font-family="Times,serif" font-size="9.00" fill="#000000">E2</text>
</g>
<!-- 2&#45;&gt;E2 -->
<g id="edge13" class="edge">
<title>2&#45;&gt;E2</title>
<path fill="none" stroke="#ff0000" stroke-width="2.0554" d="M268.876,-409.0801C275.3836,-386.0636 292.383,-320.614 292.383,-264.9743 292.383,-264.9743 292.383,-264.9743 292.383,-180.891 292.383,-130.7751 295.005,-109.0004 260.383,-72.7661 226.592,-37.4014 200.2745,-58.3538 156.383,-36.7661 155.0133,-36.0924 153.63,-35.3636 152.2505,-34.598"/>
<polygon fill="#ff0000" stroke="#ff0000" stroke-width="2.0554" points="153.7448,-31.4105 143.3815,-29.2077 150.1092,-37.3924 153.7448,-31.4105"/>
</g>
<!-- E3 -->
<g id="node7" class="node">
<title>E3</title>
<ellipse fill="#87cefa" stroke="#000000" cx="183.383" cy="-18.383" rx="18.2668" ry="18.2668"/>
<text text-anchor="middle" x="183.383" y="-15.683" font-family="Times,serif" font-size="9.00" fill="#000000">E3</text>
</g>
<!-- 2&#45;&gt;E3 -->
<g id="edge19" class="edge">
<title>2&#45;&gt;E3</title>
<path fill="none" stroke="#00ff00" stroke-width=".1112" d="M276.5305,-409.1294C285.7359,-400.8807 298.9673,-387.5082 306.383,-373.0991 328.9091,-329.3306 330.383,-314.1993 330.383,-264.9743 330.383,-264.9743 330.383,-264.9743 330.383,-180.891 330.383,-131.6659 338.6,-109.9841 306.383,-72.7661 276.8318,-38.6276 251.6067,-57.279 211.383,-36.7661 210.0232,-36.0726 208.6478,-35.3281 207.2744,-34.5502"/>
<polygon fill="#00ff00" stroke="#00ff00" stroke-width=".1112" points="208.7787,-31.367 198.4244,-29.122 205.1187,-37.334 208.7787,-31.367"/>
</g>
<!-- E7 -->
<g id="node11" class="node">
<title>E7</title>
<ellipse fill="#87cefa" stroke="#000000" cx="403.383" cy="-18.383" rx="18.2668" ry="18.2668"/>
<text text-anchor="middle" x="403.383" y="-15.683" font-family="Times,serif" font-size="9.00" fill="#000000">E7</text>
</g>
<!-- 2&#45;&gt;E7 -->
<g id="edge14" class="edge">
<title>2&#45;&gt;E7</title>
<path fill="none" stroke="#ff0000" stroke-width=".1924" d="M276.6123,-411.8082C306.466,-394.0644 391.383,-337.2417 391.383,-264.9743 391.383,-264.9743 391.383,-264.9743 391.383,-180.891 391.383,-133.8699 396.4415,-79.4031 399.9899,-46.9803"/>
<polygon fill="#ff0000" stroke="#ff0000" stroke-width=".1924" points="403.4871,-47.2008 401.1259,-36.8725 396.5309,-46.419 403.4871,-47.2008"/>
</g>
<!-- 2&#45;&gt;4319 -->
<g id="edge16" class="edge">
<title>2&#45;&gt;4319</title>
<path fill="none" stroke="#00ff00" stroke-width=".4385" d="M256.2142,-413.3708C242.3075,-406.9704 217.8862,-393.3778 207.383,-373.0991 181.3073,-322.7542 187.1872,-254.6199 194.1006,-214.4535"/>
<polygon fill="#00ff00" stroke="#00ff00" stroke-width=".4385" points="197.5851,-214.8571 195.9567,-204.3882 190.7012,-213.5876 197.5851,-214.8571"/>
</g>
<!-- 5428 -->
<g id="node16" class="node">
<title>5428</title>
<ellipse fill="#add8e6" stroke="#000000" cx="240.383" cy="-349.0575" rx="24.0833" ry="24.0833"/>
<text text-anchor="middle" x="240.383" y="-350.8575" font-family="Times,serif" font-size="9.00" fill="#000000">5428</text>
<text text-anchor="middle" x="240.383" y="-341.8575" font-family="Times,serif" font-size="9.00" fill="#000000">sigm</text>
</g>
<!-- 2&#45;&gt;5428 -->
<g id="edge18" class="edge">
<title>2&#45;&gt;5428</title>
<path fill="none" stroke="#00ff00" stroke-width=".4694" d="M263.0901,-408.9183C260.4185,-401.8753 256.4761,-391.4823 252.623,-381.3247"/>
<polygon fill="#00ff00" stroke="#00ff00" stroke-width=".4694" points="255.8199,-379.8838 249.0006,-371.7753 249.2749,-382.3666 255.8199,-379.8838"/>
</g>
<!-- E1 -->
<g id="node5" class="node">
<title>E1</title>
<ellipse fill="#87cefa" stroke="#000000" cx="73.383" cy="-18.383" rx="18.2668" ry="18.2668"/>
<text text-anchor="middle" x="73.383" y="-15.683" font-family="Times,serif" font-size="9.00" fill="#000000">E1</text>
</g>
<!-- E0&#45;&gt;E1 -->
<!-- E1&#45;&gt;E2 -->
<!-- E2&#45;&gt;E3 -->
<!-- E4 -->
<g id="node8" class="node">
<title>E4</title>
<ellipse fill="#87cefa" stroke="#000000" cx="238.383" cy="-18.383" rx="18.2668" ry="18.2668"/>
<text text-anchor="middle" x="238.383" y="-15.683" font-family="Times,serif" font-size="9.00" fill="#000000">E4</text>
</g>
<!-- E3&#45;&gt;E4 -->
<!-- E5 -->
<g id="node9" class="node">
<title>E5</title>
<ellipse fill="#87cefa" stroke="#000000" cx="293.383" cy="-18.383" rx="18.2668" ry="18.2668"/>
<text text-anchor="middle" x="293.383" y="-15.683" font-family="Times,serif" font-size="9.00" fill="#000000">E5</text>
</g>
<!-- E4&#45;&gt;E5 -->
<!-- E6 -->
<g id="node10" class="node">
<title>E6</title>
<ellipse fill="#87cefa" stroke="#000000" cx="348.383" cy="-18.383" rx="18.2668" ry="18.2668"/>
<text text-anchor="middle" x="348.383" y="-15.683" font-family="Times,serif" font-size="9.00" fill="#000000">E6</text>
</g>
<!-- E5&#45;&gt;E6 -->
<!-- E6&#45;&gt;E7 -->
<!-- E7&#45;&gt;E8 -->
<!-- 4810 -->
<g id="node15" class="node">
<title>4810</title>
<ellipse fill="#add8e6" stroke="#000000" cx="227.383" cy="-96.8077" rx="24.0833" ry="24.0833"/>
<text text-anchor="middle" x="227.383" y="-98.6077" font-family="Times,serif" font-size="9.00" fill="#000000">4810</text>
<text text-anchor="middle" x="227.383" y="-89.6077" font-family="Times,serif" font-size="9.00" fill="#000000">sigm</text>
</g>
<!-- 4319&#45;&gt;4810 -->
<g id="edge17" class="edge">
<title>4319&#45;&gt;4810</title>
<path fill="none" stroke="#00ff00" stroke-width=".1333" d="M208.4877,-157.9149C211.1597,-149.2735 214.2534,-139.2687 217.154,-129.8881"/>
<polygon fill="#00ff00" stroke="#00ff00" stroke-width=".1333" points="220.5862,-130.6359 220.1967,-120.0482 213.8987,-128.5679 220.5862,-130.6359"/>
</g>
<!-- 5479 -->
<g id="node14" class="node">
<title>5479</title>
<ellipse fill="#add8e6" stroke="#000000" cx="240.383" cy="-264.9743" rx="24.0833" ry="24.0833"/>
<text text-anchor="middle" x="240.383" y="-266.7743" font-family="Times,serif" font-size="9.00" fill="#000000">5479</text>
<text text-anchor="middle" x="240.383" y="-257.7743" font-family="Times,serif" font-size="9.00" fill="#000000">sigm</text>
</g>
<!-- 5479&#45;&gt;4319 -->
<g id="edge21" class="edge">
<title>5479&#45;&gt;4319</title>
<path fill="none" stroke="#00ff00" stroke-width=".6801" d="M230.1363,-242.8824C225.7474,-233.4201 220.5444,-222.2026 215.779,-211.9283"/>
<polygon fill="#00ff00" stroke="#00ff00" stroke-width=".6801" points="218.9442,-210.4343 211.5614,-202.8353 212.5941,-213.3797 218.9442,-210.4343"/>
</g>
<!-- 4810&#45;&gt;E7 -->
<g id="edge22" class="edge">
<title>4810&#45;&gt;E7</title>
<path fill="none" stroke="#00ff00" stroke-width=".1102" d="M250.3148,-89.0837C279.9452,-78.7506 332.7817,-59.1172 375.383,-36.7661 376.7348,-36.0569 378.1037,-35.2999 379.4721,-34.5122"/>
<polygon fill="#00ff00" stroke="#00ff00" stroke-width=".1102" points="381.6389,-37.2877 388.3065,-29.0539 377.9596,-31.3326 381.6389,-37.2877"/>
</g>
<!-- 5428&#45;&gt;5479 -->
<g id="edge20" class="edge">
<title>5428&#45;&gt;5479</title>
<path fill="none" stroke="#00ff00" stroke-width=".2176" d="M240.383,-324.7372C240.383,-316.8063 240.383,-307.8457 240.383,-299.3219"/>
<polygon fill="#00ff00" stroke="#00ff00" stroke-width=".2176" points="243.8831,-299.2399 240.383,-289.24 236.8831,-299.24 243.8831,-299.2399"/>
</g>
</g>
</svg>
