<?xml version="1.0" encoding="utf-8" standalone="no"?>
<!DOCTYPE svg PUBLIC "-//W3C//DTD SVG 1.1//EN"
  "http://www.w3.org/Graphics/SVG/1.1/DTD/svg11.dtd">
<!-- Created with matplotlib (https://matplotlib.org/) -->
<svg height="345.6pt" version="1.1" viewBox="0 0 460.8 345.6" width="460.8pt" xmlns="http://www.w3.org/2000/svg" xmlns:xlink="http://www.w3.org/1999/xlink">
 <defs>
  <style type="text/css">
*{stroke-linecap:butt;stroke-linejoin:round;}
  </style>
 </defs>
 <g id="figure_1">
  <g id="patch_1">
   <path d="M 0 345.6 
L 460.8 345.6 
L 460.8 0 
L 0 0 
z
" style="fill:#ffffff;"/>
  </g>
  <g id="axes_1">
   <g id="patch_2">
    <path d="M 57.6 307.584 
L 414.72 307.584 
L 414.72 41.472 
L 57.6 41.472 
z
" style="fill:#ffffff;"/>
   </g>
   <g id="PolyCollection_1">
    <path clip-path="url(#p89ced0121c)" d="M 73.832727 53.568 
L 73.832727 64.055935 
L 74.918528 77.785549 
L 76.00433 98.971754 
L 77.090131 99.32294 
L 78.175932 109.689546 
L 79.261733 107.545726 
L 80.347534 124.933721 
L 81.433335 133.551855 
L 82.519137 148.359561 
L 83.604938 146.934061 
L 84.690739 164.551268 
L 85.77654 179.340257 
L 86.862341 181.514145 
L 87.948142 167.754304 
L 89.033943 175.396219 
L 90.119745 183.531594 
L 91.205546 189.183868 
L 92.291347 164.467706 
L 93.377148 145.857032 
L 94.462949 164.566852 
L 95.54875 157.315153 
L 96.634552 162.419045 
L 97.720353 158.976149 
L 98.806154 175.169375 
L 99.891955 167.141059 
L 100.977756 201.548046 
L 102.063557 201.887019 
L 103.149358 157.297379 
L 104.23516 197.279039 
L 105.320961 196.227226 
L 106.406762 170.347533 
L 107.492563 211.591726 
L 108.578364 178.348434 
L 109.664165 211.550577 
L 110.749967 196.606665 
L 111.835768 183.429088 
L 112.921569 195.701662 
L 114.00737 185.331766 
L 115.093171 188.444429 
L 116.178972 167.586105 
L 117.264773 227.463311 
L 118.350575 233.628894 
L 119.436376 233.35089 
L 120.522177 259.399184 
L 121.607978 276.950011 
L 122.693779 227.451114 
L 123.77958 265.160854 
L 124.865382 217.671379 
L 125.951183 225.177082 
L 127.036984 256.386196 
L 128.122785 266.431187 
L 129.208586 255.333122 
L 130.294387 237.526568 
L 131.380189 268.324658 
L 132.46599 270.465347 
L 133.551791 240.210815 
L 134.637592 272.304447 
L 135.723393 265.790331 
L 136.809194 234.735223 
L 137.894995 293.082887 
L 138.980797 273.811988 
L 140.066598 276.477595 
L 141.152399 250.117099 
L 142.2382 250.143058 
L 143.324001 233.409463 
L 144.409802 203.307318 
L 145.495604 222.349167 
L 146.581405 246.81448 
L 147.667206 295.488 
L 148.753007 265.513851 
L 149.838808 248.642068 
L 150.924609 267.052007 
L 152.01041 221.526355 
L 153.096212 235.843709 
L 154.182013 254.940319 
L 155.267814 209.9129 
L 156.353615 204.910382 
L 157.439416 210.630946 
L 158.525217 243.692119 
L 159.611019 233.059352 
L 160.69682 202.993222 
L 161.782621 217.421947 
L 162.868422 205.370093 
L 163.954223 229.745937 
L 165.040024 247.164438 
L 166.125825 274.367833 
L 167.211627 238.596402 
L 168.297428 274.815975 
L 169.383229 256.360146 
L 170.46903 263.556939 
L 171.554831 213.995188 
L 172.640632 232.310817 
L 173.726434 205.957343 
L 174.812235 193.372914 
L 175.898036 214.660334 
L 176.983837 211.563303 
L 178.069638 265.178549 
L 179.155439 209.492022 
L 180.24124 188.5279 
L 181.327042 194.599262 
L 182.412843 200.222943 
L 183.498644 191.041129 
L 184.584445 221.182316 
L 185.670246 198.939155 
L 186.756047 186.60479 
L 187.841849 171.857055 
L 188.92765 199.348789 
L 190.013451 175.982601 
L 191.099252 173.25011 
L 192.185053 172.249613 
L 193.270854 198.342972 
L 194.356656 202.120727 
L 195.442457 213.904308 
L 196.528258 200.397435 
L 197.614059 218.72772 
L 198.69986 227.4829 
L 199.785661 223.563383 
L 200.871462 189.444752 
L 201.957264 201.795566 
L 203.043065 220.021855 
L 204.128866 222.276001 
L 205.214667 243.866833 
L 206.300468 252.486685 
L 207.386269 241.386944 
L 208.472071 234.176125 
L 209.557872 183.186902 
L 210.643673 241.151186 
L 211.729474 224.955921 
L 212.815275 212.012883 
L 213.901076 239.675439 
L 214.986877 243.092562 
L 216.072679 207.950437 
L 217.15848 204.737781 
L 218.244281 211.223359 
L 219.330082 209.134234 
L 220.415883 190.938824 
L 221.501684 207.847837 
L 222.587486 225.377 
L 223.673287 232.180675 
L 224.759088 232.89039 
L 225.844889 225.464144 
L 226.93069 242.702632 
L 228.016491 207.718433 
L 229.102292 192.222004 
L 230.188094 182.334352 
L 231.273895 206.20073 
L 232.359696 180.912356 
L 233.445497 232.607705 
L 234.531298 192.132712 
L 235.617099 226.407348 
L 236.702901 215.4129 
L 237.788702 193.272198 
L 238.874503 166.30157 
L 239.960304 144.138747 
L 241.046105 146.315453 
L 242.131906 179.643226 
L 243.217708 190.754746 
L 244.303509 194.228744 
L 245.38931 203.221249 
L 246.475111 198.910884 
L 247.560912 174.910105 
L 248.646713 149.413896 
L 249.732514 184.14791 
L 250.818316 150.69916 
L 251.904117 154.15339 
L 252.989918 173.343734 
L 254.075719 153.031621 
L 255.16152 141.818498 
L 256.247321 133.79643 
L 257.333123 164.941088 
L 258.418924 186.940871 
L 259.504725 179.782696 
L 260.590526 156.81215 
L 261.676327 150.992971 
L 262.762128 152.085145 
L 263.847929 174.174302 
L 264.933731 166.253256 
L 266.019532 164.603203 
L 267.105333 166.007126 
L 268.191134 134.91148 
L 269.276935 161.613609 
L 270.362736 175.210251 
L 271.448538 164.677384 
L 272.534339 172.52377 
L 273.62014 149.658302 
L 274.705941 174.306265 
L 275.791742 152.050828 
L 276.877543 147.950515 
L 277.963344 179.422393 
L 279.049146 178.615514 
L 280.134947 190.407915 
L 281.220748 198.069738 
L 282.306549 163.448 
L 283.39235 157.872337 
L 284.478151 152.52225 
L 285.563953 175.717056 
L 286.649754 152.400464 
L 287.735555 196.371863 
L 288.821356 196.326697 
L 289.907157 204.475011 
L 290.992958 163.554596 
L 292.07876 162.276071 
L 293.164561 178.646191 
L 294.250362 200.013574 
L 295.336163 178.619462 
L 296.421964 168.776227 
L 297.507765 180.186718 
L 298.593566 184.70751 
L 299.679368 201.256558 
L 300.765169 211.314419 
L 301.85097 242.432963 
L 302.936771 203.078939 
L 304.022572 226.267004 
L 305.108373 215.097036 
L 306.194175 259.221562 
L 307.279976 235.494181 
L 308.365777 254.185154 
L 309.451578 241.580102 
L 310.537379 213.446387 
L 311.62318 233.02113 
L 312.708981 221.490711 
L 313.794783 220.473587 
L 314.880584 183.212334 
L 315.966385 157.239375 
L 317.052186 189.868921 
L 318.137987 195.272685 
L 319.223788 178.528896 
L 320.30959 166.028203 
L 321.395391 191.639141 
L 322.481192 174.207411 
L 323.566993 172.761407 
L 324.652794 183.410005 
L 325.738595 202.605407 
L 326.824396 180.450841 
L 327.910198 166.843192 
L 328.995999 195.144769 
L 330.0818 230.175696 
L 331.167601 259.989704 
L 332.253402 213.443529 
L 333.339203 221.628686 
L 334.425005 243.642904 
L 335.510806 238.611073 
L 336.596607 256.065114 
L 337.682408 229.501358 
L 338.768209 251.035733 
L 339.85401 200.851177 
L 340.939811 170.370743 
L 342.025613 187.948841 
L 343.111414 174.554404 
L 344.197215 192.840294 
L 345.283016 207.100093 
L 346.368817 205.723545 
L 347.454618 215.959899 
L 348.54042 208.652514 
L 349.626221 228.148116 
L 350.712022 239.085346 
L 351.797823 204.470919 
L 352.883624 187.690323 
L 353.969425 222.357203 
L 355.055227 251.664141 
L 356.141028 271.538904 
L 357.226829 280.348222 
L 358.31263 233.819094 
L 359.398431 205.951499 
L 360.484232 247.146897 
L 361.570033 238.858043 
L 362.655835 251.977096 
L 363.741636 248.01741 
L 364.827437 200.23832 
L 365.913238 191.38144 
L 366.999039 188.559618 
L 368.08484 195.018659 
L 369.170642 162.924081 
L 370.256443 226.759781 
L 371.342244 193.540073 
L 372.428045 221.105468 
L 373.513846 228.613791 
L 374.599647 251.706505 
L 375.685448 247.26609 
L 376.77125 220.898466 
L 377.857051 244.930768 
L 378.942852 247.592802 
L 380.028653 264.910102 
L 381.114454 257.80325 
L 382.200255 213.333608 
L 383.286057 198.244304 
L 384.371858 209.059452 
L 385.457659 191.758064 
L 386.54346 215.344577 
L 387.629261 202.588138 
L 388.715062 217.260541 
L 389.800863 181.053495 
L 390.886665 194.573935 
L 391.972466 197.83653 
L 393.058267 218.807609 
L 394.144068 206.244582 
L 395.229869 196.346628 
L 396.31567 204.676598 
L 397.401472 221.577803 
L 398.487273 188.279218 
L 398.487273 183.472842 
L 398.487273 183.472842 
L 397.401472 201.968506 
L 396.31567 197.640652 
L 395.229869 179.992554 
L 394.144068 191.37857 
L 393.058267 202.65654 
L 391.972466 191.061388 
L 390.886665 183.185532 
L 389.800863 177.065768 
L 388.715062 199.002536 
L 387.629261 178.195773 
L 386.54346 205.646686 
L 385.457659 175.011229 
L 384.371858 200.824869 
L 383.286057 188.279402 
L 382.200255 194.16504 
L 381.114454 224.459995 
L 380.028653 237.959948 
L 378.942852 226.416635 
L 377.857051 233.596847 
L 376.77125 198.101322 
L 375.685448 230.628717 
L 374.599647 223.001377 
L 373.513846 201.920162 
L 372.428045 193.968777 
L 371.342244 175.843615 
L 370.256443 196.644023 
L 369.170642 155.269644 
L 368.08484 182.555527 
L 366.999039 173.352318 
L 365.913238 163.259086 
L 364.827437 172.127182 
L 363.741636 211.045006 
L 362.655835 223.814036 
L 361.570033 227.055622 
L 360.484232 202.401039 
L 359.398431 180.43612 
L 358.31263 190.396034 
L 357.226829 225.277133 
L 356.141028 222.310143 
L 355.055227 213.070922 
L 353.969425 184.228819 
L 352.883624 152.252588 
L 351.797823 173.333627 
L 350.712022 183.942957 
L 349.626221 185.078887 
L 348.54042 157.803547 
L 347.454618 172.676921 
L 346.368817 163.416822 
L 345.283016 165.660628 
L 344.197215 164.971314 
L 343.111414 159.519367 
L 342.025613 157.297121 
L 340.939811 140.819814 
L 339.85401 179.628729 
L 338.768209 210.427545 
L 337.682408 202.851549 
L 336.596607 209.909804 
L 335.510806 193.455018 
L 334.425005 195.778642 
L 333.339203 194.664675 
L 332.253402 193.923214 
L 331.167601 211.979358 
L 330.0818 203.623518 
L 328.995999 174.807284 
L 327.910198 135.287097 
L 326.824396 167.818511 
L 325.738595 170.744505 
L 324.652794 160.485689 
L 323.566993 156.455479 
L 322.481192 144.574699 
L 321.395391 157.325298 
L 320.30959 153.913173 
L 319.223788 150.058199 
L 318.137987 156.422314 
L 317.052186 154.632203 
L 315.966385 146.502851 
L 314.880584 152.566161 
L 313.794783 187.815411 
L 312.708981 195.67562 
L 311.62318 220.540736 
L 310.537379 196.794702 
L 309.451578 208.57505 
L 308.365777 214.303198 
L 307.279976 209.179266 
L 306.194175 237.44535 
L 305.108373 188.669936 
L 304.022572 215.689881 
L 302.936771 187.956481 
L 301.85097 205.999141 
L 300.765169 189.957531 
L 299.679368 185.37352 
L 298.593566 167.957857 
L 297.507765 159.376088 
L 296.421964 155.677778 
L 295.336163 163.099249 
L 294.250362 188.586467 
L 293.164561 164.760468 
L 292.07876 155.981465 
L 290.992958 160.909354 
L 289.907157 173.83219 
L 288.821356 178.615006 
L 287.735555 179.478982 
L 286.649754 144.744038 
L 285.563953 164.999365 
L 284.478151 144.930947 
L 283.39235 146.872082 
L 282.306549 145.282206 
L 281.220748 189.205448 
L 280.134947 177.569194 
L 279.049146 155.49957 
L 277.963344 152.772812 
L 276.877543 135.745728 
L 275.791742 141.193112 
L 274.705941 164.293333 
L 273.62014 123.319937 
L 272.534339 152.297919 
L 271.448538 140.309043 
L 270.362736 142.685322 
L 269.276935 137.015927 
L 268.191134 114.795985 
L 267.105333 131.681567 
L 266.019532 143.993753 
L 264.933731 146.165599 
L 263.847929 141.632181 
L 262.762128 137.714942 
L 261.676327 136.138895 
L 260.590526 145.149784 
L 259.504725 168.334598 
L 258.418924 179.178441 
L 257.333123 138.399505 
L 256.247321 120.049909 
L 255.16152 132.105783 
L 254.075719 140.762387 
L 252.989918 152.284074 
L 251.904117 137.660417 
L 250.818316 136.77268 
L 249.732514 156.931545 
L 248.646713 125.371611 
L 247.560912 151.857806 
L 246.475111 183.988738 
L 245.38931 182.368712 
L 244.303509 176.781676 
L 243.217708 174.783768 
L 242.131906 165.11406 
L 241.046105 126.746267 
L 239.960304 125.216551 
L 238.874503 151.807302 
L 237.788702 172.04546 
L 236.702901 192.022405 
L 235.617099 186.985837 
L 234.531298 168.190588 
L 233.445497 199.959824 
L 232.359696 160.081071 
L 231.273895 173.420037 
L 230.188094 152.500713 
L 229.102292 161.242595 
L 228.016491 188.83731 
L 226.93069 195.397536 
L 225.844889 178.406701 
L 224.759088 216.159059 
L 223.673287 225.461791 
L 222.587486 191.640765 
L 221.501684 173.70798 
L 220.415883 164.045891 
L 219.330082 197.370689 
L 218.244281 197.231113 
L 217.15848 195.733334 
L 216.072679 199.963914 
L 214.986877 220.253663 
L 213.901076 210.5166 
L 212.815275 195.7599 
L 211.729474 187.25018 
L 210.643673 223.093129 
L 209.557872 169.006192 
L 208.472071 210.181407 
L 207.386269 210.064269 
L 206.300468 204.460447 
L 205.214667 188.532013 
L 204.128866 183.05626 
L 203.043065 171.615928 
L 201.957264 166.365408 
L 200.871462 168.152688 
L 199.785661 194.751146 
L 198.69986 204.585248 
L 197.614059 206.649205 
L 196.528258 172.326488 
L 195.442457 195.595825 
L 194.356656 177.163335 
L 193.270854 171.469914 
L 192.185053 166.483118 
L 191.099252 156.077869 
L 190.013451 158.947983 
L 188.92765 174.705444 
L 187.841849 152.436688 
L 186.756047 174.587594 
L 185.670246 185.021924 
L 184.584445 200.252445 
L 183.498644 175.368181 
L 182.412843 181.334986 
L 181.327042 175.125312 
L 180.24124 175.525156 
L 179.155439 183.159479 
L 178.069638 220.458227 
L 176.983837 173.653087 
L 175.898036 183.279913 
L 174.812235 169.719133 
L 173.726434 183.035507 
L 172.640632 201.955484 
L 171.554831 185.529151 
L 170.46903 237.968378 
L 169.383229 224.116239 
L 168.297428 233.772303 
L 167.211627 219.642837 
L 166.125825 242.878574 
L 165.040024 212.859863 
L 163.954223 209.674868 
L 162.868422 189.242244 
L 161.782621 198.538827 
L 160.69682 180.084545 
L 159.611019 218.543762 
L 158.525217 223.435124 
L 157.439416 202.843325 
L 156.353615 193.091304 
L 155.267814 192.857357 
L 154.182013 236.53488 
L 153.096212 228.928324 
L 152.01041 199.923392 
L 150.924609 214.929614 
L 149.838808 219.00236 
L 148.753007 233.119787 
L 147.667206 244.965222 
L 146.581405 206.222183 
L 145.495604 203.535145 
L 144.409802 197.150092 
L 143.324001 207.235492 
L 142.2382 226.263923 
L 141.152399 219.422999 
L 140.066598 253.855057 
L 138.980797 249.946902 
L 137.894995 250.73093 
L 136.809194 216.462377 
L 135.723393 244.702286 
L 134.637592 246.984013 
L 133.551791 225.771483 
L 132.46599 257.193715 
L 131.380189 259.949493 
L 130.294387 223.144512 
L 129.208586 219.038373 
L 128.122785 251.442735 
L 127.036984 235.112114 
L 125.951183 210.476089 
L 124.865382 204.232339 
L 123.77958 249.032509 
L 122.693779 219.094143 
L 121.607978 245.826875 
L 120.522177 232.757313 
L 119.436376 210.460508 
L 118.350575 220.80023 
L 117.264773 180.013413 
L 116.178972 152.031583 
L 115.093171 174.612919 
L 114.00737 176.751617 
L 112.921569 165.771687 
L 111.835768 177.158984 
L 110.749967 160.715555 
L 109.664165 163.36676 
L 108.578364 169.533515 
L 107.492563 183.366824 
L 106.406762 152.477074 
L 105.320961 183.863283 
L 104.23516 177.941246 
L 103.149358 152.250768 
L 102.063557 169.676381 
L 100.977756 177.690934 
L 99.891955 149.317705 
L 98.806154 164.81797 
L 97.720353 141.471336 
L 96.634552 149.129467 
L 95.54875 148.93441 
L 94.462949 142.278308 
L 93.377148 112.306739 
L 92.291347 131.776818 
L 91.205546 174.687092 
L 90.119745 144.154748 
L 89.033943 149.161801 
L 87.948142 148.620347 
L 86.862341 154.290662 
L 85.77654 130.201524 
L 84.690739 139.815476 
L 83.604938 133.084966 
L 82.519137 124.176397 
L 81.433335 124.875257 
L 80.347534 111.150002 
L 79.261733 92.145327 
L 78.175932 92.901863 
L 77.090131 86.152719 
L 76.00433 90.256087 
L 74.918528 64.628169 
L 73.832727 53.568 
z
" style="fill:#0000ff;fill-opacity:0.25;"/>
   </g>
   <g id="matplotlib.axis_1">
    <g id="xtick_1">
     <g id="line2d_1">
      <defs>
       <path d="M 0 0 
L 0 3.5 
" id="maf519e6988" style="stroke:#000000;stroke-width:0.8;"/>
      </defs>
      <g>
       <use style="stroke:#000000;stroke-width:0.8;" x="73.832727" xlink:href="#maf519e6988" y="307.584"/>
      </g>
     </g>
     <g id="text_1">
      <!-- 0 -->
      <defs>
       <path d="M 31.78125 66.40625 
Q 24.171875 66.40625 20.328125 58.90625 
Q 16.5 51.421875 16.5 36.375 
Q 16.5 21.390625 20.328125 13.890625 
Q 24.171875 6.390625 31.78125 6.390625 
Q 39.453125 6.390625 43.28125 13.890625 
Q 47.125 21.390625 47.125 36.375 
Q 47.125 51.421875 43.28125 58.90625 
Q 39.453125 66.40625 31.78125 66.40625 
z
M 31.78125 74.21875 
Q 44.046875 74.21875 50.515625 64.515625 
Q 56.984375 54.828125 56.984375 36.375 
Q 56.984375 17.96875 50.515625 8.265625 
Q 44.046875 -1.421875 31.78125 -1.421875 
Q 19.53125 -1.421875 13.0625 8.265625 
Q 6.59375 17.96875 6.59375 36.375 
Q 6.59375 54.828125 13.0625 64.515625 
Q 19.53125 74.21875 31.78125 74.21875 
z
" id="DejaVuSans-48"/>
      </defs>
      <g transform="translate(70.651477 322.182437)scale(0.1 -0.1)">
       <use xlink:href="#DejaVuSans-48"/>
      </g>
     </g>
    </g>
    <g id="xtick_2">
     <g id="line2d_2">
      <g>
       <use style="stroke:#000000;stroke-width:0.8;" x="128.122785" xlink:href="#maf519e6988" y="307.584"/>
      </g>
     </g>
     <g id="text_2">
      <!-- 50 -->
      <defs>
       <path d="M 10.796875 72.90625 
L 49.515625 72.90625 
L 49.515625 64.59375 
L 19.828125 64.59375 
L 19.828125 46.734375 
Q 21.96875 47.46875 24.109375 47.828125 
Q 26.265625 48.1875 28.421875 48.1875 
Q 40.625 48.1875 47.75 41.5 
Q 54.890625 34.8125 54.890625 23.390625 
Q 54.890625 11.625 47.5625 5.09375 
Q 40.234375 -1.421875 26.90625 -1.421875 
Q 22.3125 -1.421875 17.546875 -0.640625 
Q 12.796875 0.140625 7.71875 1.703125 
L 7.71875 11.625 
Q 12.109375 9.234375 16.796875 8.0625 
Q 21.484375 6.890625 26.703125 6.890625 
Q 35.15625 6.890625 40.078125 11.328125 
Q 45.015625 15.765625 45.015625 23.390625 
Q 45.015625 31 40.078125 35.4375 
Q 35.15625 39.890625 26.703125 39.890625 
Q 22.75 39.890625 18.8125 39.015625 
Q 14.890625 38.140625 10.796875 36.28125 
z
" id="DejaVuSans-53"/>
      </defs>
      <g transform="translate(121.760285 322.182437)scale(0.1 -0.1)">
       <use xlink:href="#DejaVuSans-53"/>
       <use x="63.623047" xlink:href="#DejaVuSans-48"/>
      </g>
     </g>
    </g>
    <g id="xtick_3">
     <g id="line2d_3">
      <g>
       <use style="stroke:#000000;stroke-width:0.8;" x="182.412843" xlink:href="#maf519e6988" y="307.584"/>
      </g>
     </g>
     <g id="text_3">
      <!-- 100 -->
      <defs>
       <path d="M 12.40625 8.296875 
L 28.515625 8.296875 
L 28.515625 63.921875 
L 10.984375 60.40625 
L 10.984375 69.390625 
L 28.421875 72.90625 
L 38.28125 72.90625 
L 38.28125 8.296875 
L 54.390625 8.296875 
L 54.390625 0 
L 12.40625 0 
z
" id="DejaVuSans-49"/>
      </defs>
      <g transform="translate(172.869093 322.182437)scale(0.1 -0.1)">
       <use xlink:href="#DejaVuSans-49"/>
       <use x="63.623047" xlink:href="#DejaVuSans-48"/>
       <use x="127.246094" xlink:href="#DejaVuSans-48"/>
      </g>
     </g>
    </g>
    <g id="xtick_4">
     <g id="line2d_4">
      <g>
       <use style="stroke:#000000;stroke-width:0.8;" x="236.702901" xlink:href="#maf519e6988" y="307.584"/>
      </g>
     </g>
     <g id="text_4">
      <!-- 150 -->
      <g transform="translate(227.159151 322.182437)scale(0.1 -0.1)">
       <use xlink:href="#DejaVuSans-49"/>
       <use x="63.623047" xlink:href="#DejaVuSans-53"/>
       <use x="127.246094" xlink:href="#DejaVuSans-48"/>
      </g>
     </g>
    </g>
    <g id="xtick_5">
     <g id="line2d_5">
      <g>
       <use style="stroke:#000000;stroke-width:0.8;" x="290.992958" xlink:href="#maf519e6988" y="307.584"/>
      </g>
     </g>
     <g id="text_5">
      <!-- 200 -->
      <defs>
       <path d="M 19.1875 8.296875 
L 53.609375 8.296875 
L 53.609375 0 
L 7.328125 0 
L 7.328125 8.296875 
Q 12.9375 14.109375 22.625 23.890625 
Q 32.328125 33.6875 34.8125 36.53125 
Q 39.546875 41.84375 41.421875 45.53125 
Q 43.3125 49.21875 43.3125 52.78125 
Q 43.3125 58.59375 39.234375 62.25 
Q 35.15625 65.921875 28.609375 65.921875 
Q 23.96875 65.921875 18.8125 64.3125 
Q 13.671875 62.703125 7.8125 59.421875 
L 7.8125 69.390625 
Q 13.765625 71.78125 18.9375 73 
Q 24.125 74.21875 28.421875 74.21875 
Q 39.75 74.21875 46.484375 68.546875 
Q 53.21875 62.890625 53.21875 53.421875 
Q 53.21875 48.921875 51.53125 44.890625 
Q 49.859375 40.875 45.40625 35.40625 
Q 44.1875 33.984375 37.640625 27.21875 
Q 31.109375 20.453125 19.1875 8.296875 
z
" id="DejaVuSans-50"/>
      </defs>
      <g transform="translate(281.449208 322.182437)scale(0.1 -0.1)">
       <use xlink:href="#DejaVuSans-50"/>
       <use x="63.623047" xlink:href="#DejaVuSans-48"/>
       <use x="127.246094" xlink:href="#DejaVuSans-48"/>
      </g>
     </g>
    </g>
    <g id="xtick_6">
     <g id="line2d_6">
      <g>
       <use style="stroke:#000000;stroke-width:0.8;" x="345.283016" xlink:href="#maf519e6988" y="307.584"/>
      </g>
     </g>
     <g id="text_6">
      <!-- 250 -->
      <g transform="translate(335.739266 322.182437)scale(0.1 -0.1)">
       <use xlink:href="#DejaVuSans-50"/>
       <use x="63.623047" xlink:href="#DejaVuSans-53"/>
       <use x="127.246094" xlink:href="#DejaVuSans-48"/>
      </g>
     </g>
    </g>
    <g id="xtick_7">
     <g id="line2d_7">
      <g>
       <use style="stroke:#000000;stroke-width:0.8;" x="399.573074" xlink:href="#maf519e6988" y="307.584"/>
      </g>
     </g>
     <g id="text_7">
      <!-- 300 -->
      <defs>
       <path d="M 40.578125 39.3125 
Q 47.65625 37.796875 51.625 33 
Q 55.609375 28.21875 55.609375 21.1875 
Q 55.609375 10.40625 48.1875 4.484375 
Q 40.765625 -1.421875 27.09375 -1.421875 
Q 22.515625 -1.421875 17.65625 -0.515625 
Q 12.796875 0.390625 7.625 2.203125 
L 7.625 11.71875 
Q 11.71875 9.328125 16.59375 8.109375 
Q 21.484375 6.890625 26.8125 6.890625 
Q 36.078125 6.890625 40.9375 10.546875 
Q 45.796875 14.203125 45.796875 21.1875 
Q 45.796875 27.640625 41.28125 31.265625 
Q 36.765625 34.90625 28.71875 34.90625 
L 20.21875 34.90625 
L 20.21875 43.015625 
L 29.109375 43.015625 
Q 36.375 43.015625 40.234375 45.921875 
Q 44.09375 48.828125 44.09375 54.296875 
Q 44.09375 59.90625 40.109375 62.90625 
Q 36.140625 65.921875 28.71875 65.921875 
Q 24.65625 65.921875 20.015625 65.03125 
Q 15.375 64.15625 9.8125 62.3125 
L 9.8125 71.09375 
Q 15.4375 72.65625 20.34375 73.4375 
Q 25.25 74.21875 29.59375 74.21875 
Q 40.828125 74.21875 47.359375 69.109375 
Q 53.90625 64.015625 53.90625 55.328125 
Q 53.90625 49.265625 50.4375 45.09375 
Q 46.96875 40.921875 40.578125 39.3125 
z
" id="DejaVuSans-51"/>
      </defs>
      <g transform="translate(390.029324 322.182437)scale(0.1 -0.1)">
       <use xlink:href="#DejaVuSans-51"/>
       <use x="63.623047" xlink:href="#DejaVuSans-48"/>
       <use x="127.246094" xlink:href="#DejaVuSans-48"/>
      </g>
     </g>
    </g>
   </g>
   <g id="matplotlib.axis_2">
    <g id="ytick_1">
     <g id="line2d_8">
      <defs>
       <path d="M 0 0 
L -3.5 0 
" id="m7a73d488a5" style="stroke:#000000;stroke-width:0.8;"/>
      </defs>
      <g>
       <use style="stroke:#000000;stroke-width:0.8;" x="57.6" xlink:href="#m7a73d488a5" y="287.484352"/>
      </g>
     </g>
     <g id="text_8">
      <!-- 0.6 -->
      <defs>
       <path d="M 10.6875 12.40625 
L 21 12.40625 
L 21 0 
L 10.6875 0 
z
" id="DejaVuSans-46"/>
       <path d="M 33.015625 40.375 
Q 26.375 40.375 22.484375 35.828125 
Q 18.609375 31.296875 18.609375 23.390625 
Q 18.609375 15.53125 22.484375 10.953125 
Q 26.375 6.390625 33.015625 6.390625 
Q 39.65625 6.390625 43.53125 10.953125 
Q 47.40625 15.53125 47.40625 23.390625 
Q 47.40625 31.296875 43.53125 35.828125 
Q 39.65625 40.375 33.015625 40.375 
z
M 52.59375 71.296875 
L 52.59375 62.3125 
Q 48.875 64.0625 45.09375 64.984375 
Q 41.3125 65.921875 37.59375 65.921875 
Q 27.828125 65.921875 22.671875 59.328125 
Q 17.53125 52.734375 16.796875 39.40625 
Q 19.671875 43.65625 24.015625 45.921875 
Q 28.375 48.1875 33.59375 48.1875 
Q 44.578125 48.1875 50.953125 41.515625 
Q 57.328125 34.859375 57.328125 23.390625 
Q 57.328125 12.15625 50.6875 5.359375 
Q 44.046875 -1.421875 33.015625 -1.421875 
Q 20.359375 -1.421875 13.671875 8.265625 
Q 6.984375 17.96875 6.984375 36.375 
Q 6.984375 53.65625 15.1875 63.9375 
Q 23.390625 74.21875 37.203125 74.21875 
Q 40.921875 74.21875 44.703125 73.484375 
Q 48.484375 72.75 52.59375 71.296875 
z
" id="DejaVuSans-54"/>
      </defs>
      <g transform="translate(34.696875 291.283571)scale(0.1 -0.1)">
       <use xlink:href="#DejaVuSans-48"/>
       <use x="63.623047" xlink:href="#DejaVuSans-46"/>
       <use x="95.410156" xlink:href="#DejaVuSans-54"/>
      </g>
     </g>
    </g>
    <g id="ytick_2">
     <g id="line2d_9">
      <g>
       <use style="stroke:#000000;stroke-width:0.8;" x="57.6" xlink:href="#m7a73d488a5" y="249.867648"/>
      </g>
     </g>
     <g id="text_9">
      <!-- 0.8 -->
      <defs>
       <path d="M 31.78125 34.625 
Q 24.75 34.625 20.71875 30.859375 
Q 16.703125 27.09375 16.703125 20.515625 
Q 16.703125 13.921875 20.71875 10.15625 
Q 24.75 6.390625 31.78125 6.390625 
Q 38.8125 6.390625 42.859375 10.171875 
Q 46.921875 13.96875 46.921875 20.515625 
Q 46.921875 27.09375 42.890625 30.859375 
Q 38.875 34.625 31.78125 34.625 
z
M 21.921875 38.8125 
Q 15.578125 40.375 12.03125 44.71875 
Q 8.5 49.078125 8.5 55.328125 
Q 8.5 64.0625 14.71875 69.140625 
Q 20.953125 74.21875 31.78125 74.21875 
Q 42.671875 74.21875 48.875 69.140625 
Q 55.078125 64.0625 55.078125 55.328125 
Q 55.078125 49.078125 51.53125 44.71875 
Q 48 40.375 41.703125 38.8125 
Q 48.828125 37.15625 52.796875 32.3125 
Q 56.78125 27.484375 56.78125 20.515625 
Q 56.78125 9.90625 50.3125 4.234375 
Q 43.84375 -1.421875 31.78125 -1.421875 
Q 19.734375 -1.421875 13.25 4.234375 
Q 6.78125 9.90625 6.78125 20.515625 
Q 6.78125 27.484375 10.78125 32.3125 
Q 14.796875 37.15625 21.921875 38.8125 
z
M 18.3125 54.390625 
Q 18.3125 48.734375 21.84375 45.5625 
Q 25.390625 42.390625 31.78125 42.390625 
Q 38.140625 42.390625 41.71875 45.5625 
Q 45.3125 48.734375 45.3125 54.390625 
Q 45.3125 60.0625 41.71875 63.234375 
Q 38.140625 66.40625 31.78125 66.40625 
Q 25.390625 66.40625 21.84375 63.234375 
Q 18.3125 60.0625 18.3125 54.390625 
z
" id="DejaVuSans-56"/>
      </defs>
      <g transform="translate(34.696875 253.666867)scale(0.1 -0.1)">
       <use xlink:href="#DejaVuSans-48"/>
       <use x="63.623047" xlink:href="#DejaVuSans-46"/>
       <use x="95.410156" xlink:href="#DejaVuSans-56"/>
      </g>
     </g>
    </g>
    <g id="ytick_3">
     <g id="line2d_10">
      <g>
       <use style="stroke:#000000;stroke-width:0.8;" x="57.6" xlink:href="#m7a73d488a5" y="212.250944"/>
      </g>
     </g>
     <g id="text_10">
      <!-- 1.0 -->
      <g transform="translate(34.696875 216.050163)scale(0.1 -0.1)">
       <use xlink:href="#DejaVuSans-49"/>
       <use x="63.623047" xlink:href="#DejaVuSans-46"/>
       <use x="95.410156" xlink:href="#DejaVuSans-48"/>
      </g>
     </g>
    </g>
    <g id="ytick_4">
     <g id="line2d_11">
      <g>
       <use style="stroke:#000000;stroke-width:0.8;" x="57.6" xlink:href="#m7a73d488a5" y="174.634241"/>
      </g>
     </g>
     <g id="text_11">
      <!-- 1.2 -->
      <g transform="translate(34.696875 178.433459)scale(0.1 -0.1)">
       <use xlink:href="#DejaVuSans-49"/>
       <use x="63.623047" xlink:href="#DejaVuSans-46"/>
       <use x="95.410156" xlink:href="#DejaVuSans-50"/>
      </g>
     </g>
    </g>
    <g id="ytick_5">
     <g id="line2d_12">
      <g>
       <use style="stroke:#000000;stroke-width:0.8;" x="57.6" xlink:href="#m7a73d488a5" y="137.017537"/>
      </g>
     </g>
     <g id="text_12">
      <!-- 1.4 -->
      <defs>
       <path d="M 37.796875 64.3125 
L 12.890625 25.390625 
L 37.796875 25.390625 
z
M 35.203125 72.90625 
L 47.609375 72.90625 
L 47.609375 25.390625 
L 58.015625 25.390625 
L 58.015625 17.1875 
L 47.609375 17.1875 
L 47.609375 0 
L 37.796875 0 
L 37.796875 17.1875 
L 4.890625 17.1875 
L 4.890625 26.703125 
z
" id="DejaVuSans-52"/>
      </defs>
      <g transform="translate(34.696875 140.816756)scale(0.1 -0.1)">
       <use xlink:href="#DejaVuSans-49"/>
       <use x="63.623047" xlink:href="#DejaVuSans-46"/>
       <use x="95.410156" xlink:href="#DejaVuSans-52"/>
      </g>
     </g>
    </g>
    <g id="ytick_6">
     <g id="line2d_13">
      <g>
       <use style="stroke:#000000;stroke-width:0.8;" x="57.6" xlink:href="#m7a73d488a5" y="99.400833"/>
      </g>
     </g>
     <g id="text_13">
      <!-- 1.6 -->
      <g transform="translate(34.696875 103.200052)scale(0.1 -0.1)">
       <use xlink:href="#DejaVuSans-49"/>
       <use x="63.623047" xlink:href="#DejaVuSans-46"/>
       <use x="95.410156" xlink:href="#DejaVuSans-54"/>
      </g>
     </g>
    </g>
    <g id="ytick_7">
     <g id="line2d_14">
      <g>
       <use style="stroke:#000000;stroke-width:0.8;" x="57.6" xlink:href="#m7a73d488a5" y="61.784129"/>
      </g>
     </g>
     <g id="text_14">
      <!-- 1.8 -->
      <g transform="translate(34.696875 65.583348)scale(0.1 -0.1)">
       <use xlink:href="#DejaVuSans-49"/>
       <use x="63.623047" xlink:href="#DejaVuSans-46"/>
       <use x="95.410156" xlink:href="#DejaVuSans-56"/>
      </g>
     </g>
    </g>
    <g id="text_15">
     <!-- Distance -->
     <defs>
      <path d="M 19.671875 64.796875 
L 19.671875 8.109375 
L 31.59375 8.109375 
Q 46.6875 8.109375 53.6875 14.9375 
Q 60.6875 21.78125 60.6875 36.53125 
Q 60.6875 51.171875 53.6875 57.984375 
Q 46.6875 64.796875 31.59375 64.796875 
z
M 9.8125 72.90625 
L 30.078125 72.90625 
Q 51.265625 72.90625 61.171875 64.09375 
Q 71.09375 55.28125 71.09375 36.53125 
Q 71.09375 17.671875 61.125 8.828125 
Q 51.171875 0 30.078125 0 
L 9.8125 0 
z
" id="DejaVuSans-68"/>
      <path d="M 9.421875 54.6875 
L 18.40625 54.6875 
L 18.40625 0 
L 9.421875 0 
z
M 9.421875 75.984375 
L 18.40625 75.984375 
L 18.40625 64.59375 
L 9.421875 64.59375 
z
" id="DejaVuSans-105"/>
      <path d="M 44.28125 53.078125 
L 44.28125 44.578125 
Q 40.484375 46.53125 36.375 47.5 
Q 32.28125 48.484375 27.875 48.484375 
Q 21.1875 48.484375 17.84375 46.4375 
Q 14.5 44.390625 14.5 40.28125 
Q 14.5 37.15625 16.890625 35.375 
Q 19.28125 33.59375 26.515625 31.984375 
L 29.59375 31.296875 
Q 39.15625 29.25 43.1875 25.515625 
Q 47.21875 21.78125 47.21875 15.09375 
Q 47.21875 7.46875 41.1875 3.015625 
Q 35.15625 -1.421875 24.609375 -1.421875 
Q 20.21875 -1.421875 15.453125 -0.5625 
Q 10.6875 0.296875 5.421875 2 
L 5.421875 11.28125 
Q 10.40625 8.6875 15.234375 7.390625 
Q 20.0625 6.109375 24.8125 6.109375 
Q 31.15625 6.109375 34.5625 8.28125 
Q 37.984375 10.453125 37.984375 14.40625 
Q 37.984375 18.0625 35.515625 20.015625 
Q 33.0625 21.96875 24.703125 23.78125 
L 21.578125 24.515625 
Q 13.234375 26.265625 9.515625 29.90625 
Q 5.8125 33.546875 5.8125 39.890625 
Q 5.8125 47.609375 11.28125 51.796875 
Q 16.75 56 26.8125 56 
Q 31.78125 56 36.171875 55.265625 
Q 40.578125 54.546875 44.28125 53.078125 
z
" id="DejaVuSans-115"/>
      <path d="M 18.3125 70.21875 
L 18.3125 54.6875 
L 36.8125 54.6875 
L 36.8125 47.703125 
L 18.3125 47.703125 
L 18.3125 18.015625 
Q 18.3125 11.328125 20.140625 9.421875 
Q 21.96875 7.515625 27.59375 7.515625 
L 36.8125 7.515625 
L 36.8125 0 
L 27.59375 0 
Q 17.1875 0 13.234375 3.875 
Q 9.28125 7.765625 9.28125 18.015625 
L 9.28125 47.703125 
L 2.6875 47.703125 
L 2.6875 54.6875 
L 9.28125 54.6875 
L 9.28125 70.21875 
z
" id="DejaVuSans-116"/>
      <path d="M 34.28125 27.484375 
Q 23.390625 27.484375 19.1875 25 
Q 14.984375 22.515625 14.984375 16.5 
Q 14.984375 11.71875 18.140625 8.90625 
Q 21.296875 6.109375 26.703125 6.109375 
Q 34.1875 6.109375 38.703125 11.40625 
Q 43.21875 16.703125 43.21875 25.484375 
L 43.21875 27.484375 
z
M 52.203125 31.203125 
L 52.203125 0 
L 43.21875 0 
L 43.21875 8.296875 
Q 40.140625 3.328125 35.546875 0.953125 
Q 30.953125 -1.421875 24.3125 -1.421875 
Q 15.921875 -1.421875 10.953125 3.296875 
Q 6 8.015625 6 15.921875 
Q 6 25.140625 12.171875 29.828125 
Q 18.359375 34.515625 30.609375 34.515625 
L 43.21875 34.515625 
L 43.21875 35.40625 
Q 43.21875 41.609375 39.140625 45 
Q 35.0625 48.390625 27.6875 48.390625 
Q 23 48.390625 18.546875 47.265625 
Q 14.109375 46.140625 10.015625 43.890625 
L 10.015625 52.203125 
Q 14.9375 54.109375 19.578125 55.046875 
Q 24.21875 56 28.609375 56 
Q 40.484375 56 46.34375 49.84375 
Q 52.203125 43.703125 52.203125 31.203125 
z
" id="DejaVuSans-97"/>
      <path d="M 54.890625 33.015625 
L 54.890625 0 
L 45.90625 0 
L 45.90625 32.71875 
Q 45.90625 40.484375 42.875 44.328125 
Q 39.84375 48.1875 33.796875 48.1875 
Q 26.515625 48.1875 22.3125 43.546875 
Q 18.109375 38.921875 18.109375 30.90625 
L 18.109375 0 
L 9.078125 0 
L 9.078125 54.6875 
L 18.109375 54.6875 
L 18.109375 46.1875 
Q 21.34375 51.125 25.703125 53.5625 
Q 30.078125 56 35.796875 56 
Q 45.21875 56 50.046875 50.171875 
Q 54.890625 44.34375 54.890625 33.015625 
z
" id="DejaVuSans-110"/>
      <path d="M 48.78125 52.59375 
L 48.78125 44.1875 
Q 44.96875 46.296875 41.140625 47.34375 
Q 37.3125 48.390625 33.40625 48.390625 
Q 24.65625 48.390625 19.8125 42.84375 
Q 14.984375 37.3125 14.984375 27.296875 
Q 14.984375 17.28125 19.8125 11.734375 
Q 24.65625 6.203125 33.40625 6.203125 
Q 37.3125 6.203125 41.140625 7.25 
Q 44.96875 8.296875 48.78125 10.40625 
L 48.78125 2.09375 
Q 45.015625 0.34375 40.984375 -0.53125 
Q 36.96875 -1.421875 32.421875 -1.421875 
Q 20.0625 -1.421875 12.78125 6.34375 
Q 5.515625 14.109375 5.515625 27.296875 
Q 5.515625 40.671875 12.859375 48.328125 
Q 20.21875 56 33.015625 56 
Q 37.15625 56 41.109375 55.140625 
Q 45.0625 54.296875 48.78125 52.59375 
z
" id="DejaVuSans-99"/>
      <path d="M 56.203125 29.59375 
L 56.203125 25.203125 
L 14.890625 25.203125 
Q 15.484375 15.921875 20.484375 11.0625 
Q 25.484375 6.203125 34.421875 6.203125 
Q 39.59375 6.203125 44.453125 7.46875 
Q 49.3125 8.734375 54.109375 11.28125 
L 54.109375 2.78125 
Q 49.265625 0.734375 44.1875 -0.34375 
Q 39.109375 -1.421875 33.890625 -1.421875 
Q 20.796875 -1.421875 13.15625 6.1875 
Q 5.515625 13.8125 5.515625 26.8125 
Q 5.515625 40.234375 12.765625 48.109375 
Q 20.015625 56 32.328125 56 
Q 43.359375 56 49.78125 48.890625 
Q 56.203125 41.796875 56.203125 29.59375 
z
M 47.21875 32.234375 
Q 47.125 39.59375 43.09375 43.984375 
Q 39.0625 48.390625 32.421875 48.390625 
Q 24.90625 48.390625 20.390625 44.140625 
Q 15.875 39.890625 15.1875 32.171875 
z
" id="DejaVuSans-101"/>
     </defs>
     <g transform="translate(28.617187 196.3905)rotate(-90)scale(0.1 -0.1)">
      <use xlink:href="#DejaVuSans-68"/>
      <use x="77.001953" xlink:href="#DejaVuSans-105"/>
      <use x="104.785156" xlink:href="#DejaVuSans-115"/>
      <use x="156.884766" xlink:href="#DejaVuSans-116"/>
      <use x="196.09375" xlink:href="#DejaVuSans-97"/>
      <use x="257.373047" xlink:href="#DejaVuSans-110"/>
      <use x="320.751953" xlink:href="#DejaVuSans-99"/>
      <use x="375.732422" xlink:href="#DejaVuSans-101"/>
     </g>
    </g>
   </g>
   <g id="line2d_15">
    <path clip-path="url(#p89ced0121c)" d="M 73.832727 58.811967 
L 74.918528 71.206859 
L 76.00433 94.613921 
L 77.090131 92.737829 
L 78.175932 101.295705 
L 79.261733 99.845527 
L 80.347534 118.041862 
L 81.433335 129.213556 
L 82.519137 136.267979 
L 83.604938 140.009514 
L 84.690739 152.183372 
L 85.77654 154.770891 
L 86.862341 167.902403 
L 87.948142 158.187326 
L 89.033943 162.27901 
L 90.119745 163.843171 
L 91.205546 181.93548 
L 92.291347 148.122262 
L 93.377148 129.081885 
L 94.462949 153.42258 
L 95.54875 153.124782 
L 96.634552 155.774256 
L 97.720353 150.223743 
L 98.806154 169.993673 
L 99.891955 158.229382 
L 100.977756 189.61949 
L 102.063557 185.7817 
L 103.149358 154.774073 
L 104.23516 187.610142 
L 105.320961 190.045254 
L 106.406762 161.412304 
L 107.492563 197.479275 
L 108.578364 173.940974 
L 109.664165 187.458668 
L 110.749967 178.66111 
L 111.835768 180.294036 
L 112.921569 180.736674 
L 114.00737 181.041692 
L 115.093171 181.528674 
L 116.178972 159.808844 
L 117.264773 203.738362 
L 118.350575 227.214562 
L 119.436376 221.905699 
L 120.522177 246.078249 
L 121.607978 261.388443 
L 122.693779 223.272629 
L 123.77958 257.096682 
L 124.865382 210.951859 
L 125.951183 217.826585 
L 127.036984 245.749155 
L 128.122785 258.936961 
L 129.208586 237.185748 
L 130.294387 230.33554 
L 131.380189 264.137075 
L 132.46599 263.829531 
L 133.551791 232.991149 
L 134.637592 259.64423 
L 135.723393 255.246308 
L 136.809194 225.5988 
L 137.894995 271.906908 
L 138.980797 261.879445 
L 140.066598 265.166326 
L 141.152399 234.770049 
L 142.2382 238.203491 
L 143.324001 220.322478 
L 144.409802 200.228705 
L 146.581405 226.518332 
L 147.667206 270.226611 
L 148.753007 249.316819 
L 149.838808 233.822214 
L 150.924609 240.990811 
L 152.01041 210.724873 
L 153.096212 232.386016 
L 154.182013 245.7376 
L 155.267814 201.385129 
L 156.353615 199.000843 
L 157.439416 206.737135 
L 158.525217 233.563621 
L 159.611019 225.801557 
L 160.69682 191.538883 
L 161.782621 207.980387 
L 162.868422 197.306168 
L 163.954223 219.710403 
L 165.040024 230.012151 
L 166.125825 258.623204 
L 167.211627 229.11962 
L 168.297428 254.294139 
L 169.383229 240.238192 
L 170.46903 250.762658 
L 171.554831 199.762169 
L 172.640632 217.13315 
L 173.726434 194.496425 
L 174.812235 181.546023 
L 175.898036 198.970123 
L 176.983837 192.608195 
L 178.069638 242.818388 
L 179.155439 196.32575 
L 180.24124 182.026528 
L 181.327042 184.862287 
L 182.412843 190.778964 
L 183.498644 183.204655 
L 184.584445 210.717381 
L 185.670246 191.980539 
L 186.756047 180.596192 
L 187.841849 162.146871 
L 188.92765 187.027117 
L 190.013451 167.465292 
L 191.099252 164.663989 
L 192.185053 169.366365 
L 193.270854 184.906443 
L 194.356656 189.642031 
L 195.442457 204.750066 
L 196.528258 186.361962 
L 197.614059 212.688462 
L 198.69986 216.034074 
L 199.785661 209.157265 
L 200.871462 178.79872 
L 201.957264 184.080487 
L 203.043065 195.818892 
L 204.128866 202.666131 
L 206.300468 228.473566 
L 207.386269 225.725606 
L 208.472071 222.178766 
L 209.557872 176.096547 
L 210.643673 232.122157 
L 211.729474 206.103051 
L 212.815275 203.886391 
L 213.901076 225.09602 
L 214.986877 231.673113 
L 216.072679 203.957175 
L 217.15848 200.235558 
L 218.244281 204.227236 
L 219.330082 203.252461 
L 220.415883 177.492358 
L 221.501684 190.777909 
L 222.587486 208.508883 
L 223.673287 228.821233 
L 224.759088 224.524725 
L 225.844889 201.935423 
L 226.93069 219.050084 
L 229.102292 176.7323 
L 230.188094 167.417532 
L 231.273895 189.810383 
L 232.359696 170.496713 
L 233.445497 216.283765 
L 234.531298 180.16165 
L 235.617099 206.696592 
L 236.702901 203.717653 
L 237.788702 182.658829 
L 239.960304 134.677649 
L 241.046105 136.53086 
L 242.131906 172.378643 
L 243.217708 182.769257 
L 244.303509 185.50521 
L 245.38931 192.794981 
L 246.475111 191.449811 
L 248.646713 137.392754 
L 249.732514 170.539727 
L 250.818316 143.73592 
L 251.904117 145.906904 
L 252.989918 162.813904 
L 254.075719 146.897004 
L 256.247321 126.923169 
L 257.333123 151.670297 
L 258.418924 183.059656 
L 259.504725 174.058647 
L 260.590526 150.980967 
L 261.676327 143.565933 
L 262.762128 144.900044 
L 263.847929 157.903241 
L 264.933731 156.209428 
L 266.019532 154.298478 
L 267.105333 148.844347 
L 268.191134 124.853733 
L 269.276935 149.314768 
L 270.362736 158.947787 
L 271.448538 152.493214 
L 272.534339 162.410845 
L 273.62014 136.48912 
L 274.705941 169.299799 
L 275.791742 146.62197 
L 276.877543 141.848121 
L 277.963344 166.097603 
L 279.049146 167.057542 
L 280.134947 183.988554 
L 281.220748 193.637593 
L 282.306549 154.365103 
L 283.39235 152.372209 
L 284.478151 148.726599 
L 285.563953 170.35821 
L 286.649754 148.572251 
L 287.735555 187.925422 
L 288.821356 187.470852 
L 289.907157 189.1536 
L 290.992958 162.231975 
L 292.07876 159.128768 
L 293.164561 171.703329 
L 294.250362 194.300021 
L 295.336163 170.859355 
L 296.421964 162.227002 
L 297.507765 169.781403 
L 298.593566 176.332684 
L 299.679368 193.315039 
L 300.765169 200.635975 
L 301.85097 224.216052 
L 302.936771 195.51771 
L 304.022572 220.978443 
L 305.108373 201.883486 
L 306.194175 248.333456 
L 307.279976 222.336723 
L 308.365777 234.244176 
L 309.451578 225.077576 
L 310.537379 205.120545 
L 311.62318 226.780933 
L 312.708981 208.583166 
L 313.794783 204.144499 
L 314.880584 167.889247 
L 315.966385 151.871113 
L 317.052186 172.250562 
L 318.137987 175.8475 
L 319.223788 164.293547 
L 320.30959 159.970688 
L 321.395391 174.48222 
L 322.481192 159.391055 
L 323.566993 164.608443 
L 324.652794 171.947847 
L 325.738595 186.674956 
L 326.824396 174.134676 
L 327.910198 151.065144 
L 330.0818 216.899607 
L 331.167601 235.984531 
L 332.253402 203.683371 
L 333.339203 208.14668 
L 334.425005 219.710773 
L 335.510806 216.033046 
L 336.596607 232.987459 
L 337.682408 216.176454 
L 338.768209 230.731639 
L 339.85401 190.239953 
L 340.939811 155.595278 
L 342.025613 172.622981 
L 343.111414 167.036886 
L 344.197215 178.905804 
L 345.283016 186.380361 
L 346.368817 184.570184 
L 347.454618 194.31841 
L 348.54042 183.22803 
L 349.626221 206.613502 
L 350.712022 211.514152 
L 351.797823 188.902273 
L 352.883624 169.971455 
L 353.969425 203.293011 
L 355.055227 232.367531 
L 356.141028 246.924524 
L 357.226829 252.812678 
L 358.31263 212.107564 
L 359.398431 193.193809 
L 360.484232 224.773968 
L 361.570033 232.956832 
L 362.655835 237.895566 
L 363.741636 229.531208 
L 364.827437 186.182751 
L 365.913238 177.320263 
L 366.999039 180.955968 
L 368.08484 188.787093 
L 369.170642 159.096862 
L 370.256443 211.701902 
L 371.342244 184.691844 
L 372.428045 207.537123 
L 373.513846 215.266976 
L 374.599647 237.353941 
L 375.685448 238.947403 
L 376.77125 209.499894 
L 377.857051 239.263808 
L 378.942852 237.004718 
L 380.028653 251.435025 
L 381.114454 241.131623 
L 382.200255 203.749324 
L 383.286057 193.261853 
L 384.371858 204.94216 
L 385.457659 183.384646 
L 386.54346 210.495632 
L 387.629261 190.391956 
L 388.715062 208.131538 
L 389.800863 179.059632 
L 390.886665 188.879734 
L 391.972466 194.448959 
L 393.058267 210.732074 
L 394.144068 198.811576 
L 395.229869 188.169591 
L 396.31567 201.158625 
L 397.401472 211.773154 
L 398.487273 185.87603 
L 398.487273 185.87603 
" style="fill:none;stroke:#0000ff;stroke-linecap:square;stroke-width:1.5;"/>
   </g>
   <g id="patch_3">
    <path d="M 57.6 307.584 
L 57.6 41.472 
" style="fill:none;stroke:#000000;stroke-linecap:square;stroke-linejoin:miter;stroke-width:0.8;"/>
   </g>
   <g id="patch_4">
    <path d="M 414.72 307.584 
L 414.72 41.472 
" style="fill:none;stroke:#000000;stroke-linecap:square;stroke-linejoin:miter;stroke-width:0.8;"/>
   </g>
   <g id="patch_5">
    <path d="M 57.6 307.584 
L 414.72 307.584 
" style="fill:none;stroke:#000000;stroke-linecap:square;stroke-linejoin:miter;stroke-width:0.8;"/>
   </g>
   <g id="patch_6">
    <path d="M 57.6 41.472 
L 414.72 41.472 
" style="fill:none;stroke:#000000;stroke-linecap:square;stroke-linejoin:miter;stroke-width:0.8;"/>
   </g>
  </g>
  <g id="axes_2">
   <g id="PolyCollection_2">
    <path clip-path="url(#p89ced0121c)" d="M 73.832727 61.495198 
L 73.832727 255.599083 
L 74.918528 252.694626 
L 76.00433 251.612647 
L 77.090131 250.171084 
L 78.175932 260.605509 
L 79.261733 261.428695 
L 80.347534 260.474389 
L 81.433335 265.71364 
L 82.519137 265.234997 
L 83.604938 268.904426 
L 84.690739 264.789283 
L 85.77654 267.394685 
L 86.862341 269.355957 
L 87.948142 271.20838 
L 89.033943 276.233859 
L 90.119745 275.918307 
L 91.205546 272.230296 
L 92.291347 265.27105 
L 93.377148 273.287768 
L 94.462949 275.711391 
L 95.54875 280.167299 
L 96.634552 280.136222 
L 97.720353 281.186351 
L 98.806154 282.337 
L 99.891955 281.515501 
L 100.977756 285.46303 
L 102.063557 281.131753 
L 103.149358 277.869294 
L 104.23516 280.219914 
L 105.320961 278.694666 
L 106.406762 276.045612 
L 107.492563 286.865637 
L 108.578364 287.189385 
L 109.664165 287.746412 
L 110.749967 285.305963 
L 111.835768 285.472861 
L 112.921569 286.748263 
L 114.00737 282.904155 
L 115.093171 290.469356 
L 116.178972 286.581099 
L 117.264773 291.492182 
L 118.350575 293.358345 
L 119.436376 292.774442 
L 120.522177 294.360699 
L 121.607978 294.655833 
L 122.693779 293.5622 
L 123.77958 294.089733 
L 124.865382 292.552428 
L 125.951183 293.061043 
L 127.036984 293.513762 
L 128.122785 294.508388 
L 129.208586 293.331575 
L 130.294387 293.043518 
L 131.380189 293.821245 
L 132.46599 294.454043 
L 133.551791 293.309737 
L 134.637592 294.483215 
L 135.723393 294.489704 
L 136.809194 292.34744 
L 137.894995 294.641257 
L 138.980797 293.043605 
L 140.066598 292.76279 
L 141.152399 292.851427 
L 142.2382 291.860848 
L 143.324001 292.369027 
L 144.409802 289.752623 
L 145.495604 291.857646 
L 146.581405 293.870916 
L 147.667206 294.136397 
L 148.753007 293.787988 
L 149.838808 294.141314 
L 150.924609 294.607643 
L 152.01041 292.03445 
L 153.096212 293.348029 
L 154.182013 294.5906 
L 155.267814 292.758315 
L 156.353615 292.803572 
L 157.439416 293.153606 
L 158.525217 293.635217 
L 159.611019 292.958013 
L 160.69682 291.233675 
L 161.782621 292.071064 
L 162.868422 289.97232 
L 163.954223 292.998775 
L 165.040024 293.699598 
L 166.125825 295.038706 
L 167.211627 294.230291 
L 168.297428 294.350688 
L 169.383229 293.505169 
L 170.46903 293.790663 
L 171.554831 291.405242 
L 172.640632 291.423784 
L 173.726434 290.362166 
L 174.812235 287.983598 
L 175.898036 291.417208 
L 176.983837 291.514636 
L 178.069638 292.866008 
L 179.155439 289.31961 
L 180.24124 287.881007 
L 181.327042 288.731034 
L 182.412843 289.340398 
L 183.498644 287.922106 
L 184.584445 292.087344 
L 185.670246 292.396512 
L 186.756047 290.916603 
L 187.841849 287.651458 
L 188.92765 289.530648 
L 190.013451 287.172005 
L 191.099252 286.71298 
L 192.185053 284.297178 
L 193.270854 289.978447 
L 194.356656 290.667913 
L 195.442457 289.972489 
L 196.528258 290.945159 
L 197.614059 292.918606 
L 198.69986 293.14163 
L 199.785661 292.894433 
L 200.871462 289.449368 
L 201.957264 290.638571 
L 203.043065 291.02431 
L 204.128866 291.592922 
L 205.214667 293.547307 
L 206.300468 293.910243 
L 207.386269 293.785407 
L 208.472071 292.690391 
L 209.557872 290.441554 
L 210.643673 292.569265 
L 211.729474 293.368772 
L 212.815275 290.526705 
L 213.901076 293.622065 
L 214.986877 292.372706 
L 216.072679 290.379907 
L 217.15848 286.249364 
L 218.244281 289.422288 
L 219.330082 286.106572 
L 220.415883 289.032962 
L 221.501684 290.39809 
L 222.587486 293.147993 
L 223.673287 293.758766 
L 224.759088 293.832159 
L 225.844889 292.790928 
L 226.93069 292.031901 
L 228.016491 291.566157 
L 229.102292 289.588508 
L 230.188094 288.222553 
L 231.273895 291.490872 
L 232.359696 288.71806 
L 233.445497 291.61863 
L 234.531298 289.400995 
L 235.617099 292.49769 
L 236.702901 292.274258 
L 237.788702 288.893727 
L 238.874503 286.805244 
L 239.960304 285.684114 
L 241.046105 287.08274 
L 242.131906 290.245864 
L 243.217708 288.86419 
L 244.303509 291.324927 
L 245.38931 291.871219 
L 246.475111 290.179379 
L 247.560912 288.258963 
L 248.646713 285.628385 
L 249.732514 289.466026 
L 250.818316 286.755065 
L 251.904117 284.898676 
L 252.989918 285.591319 
L 254.075719 281.744365 
L 255.16152 278.281912 
L 256.247321 276.57975 
L 257.333123 279.635597 
L 258.418924 282.47971 
L 259.504725 280.604212 
L 260.590526 273.475927 
L 261.676327 278.884213 
L 262.762128 270.865789 
L 263.847929 261.978208 
L 264.933731 266.046252 
L 266.019532 268.535294 
L 267.105333 266.548215 
L 268.191134 273.861173 
L 269.276935 271.979204 
L 270.362736 273.999222 
L 271.448538 275.294919 
L 272.534339 279.592605 
L 273.62014 274.294171 
L 274.705941 278.510216 
L 275.791742 274.571369 
L 276.877543 277.544869 
L 277.963344 287.992513 
L 279.049146 288.610308 
L 280.134947 290.388381 
L 281.220748 288.557919 
L 282.306549 288.063463 
L 283.39235 285.966428 
L 284.478151 283.232369 
L 285.563953 284.320007 
L 286.649754 279.646697 
L 287.735555 287.80617 
L 288.821356 287.311308 
L 289.907157 289.476113 
L 290.992958 286.093052 
L 292.07876 284.796449 
L 293.164561 289.237306 
L 294.250362 290.900303 
L 295.336163 288.940407 
L 296.421964 288.311982 
L 297.507765 289.538579 
L 298.593566 290.763116 
L 299.679368 291.210176 
L 300.765169 291.903481 
L 301.85097 293.243865 
L 302.936771 288.15574 
L 304.022572 288.199921 
L 305.108373 292.487552 
L 306.194175 295.467735 
L 307.279976 294.828767 
L 308.365777 294.272609 
L 309.451578 295.488 
L 310.537379 293.498736 
L 311.62318 294.395573 
L 312.708981 293.615099 
L 313.794783 292.697411 
L 314.880584 289.478988 
L 315.966385 286.216295 
L 317.052186 290.443895 
L 318.137987 288.44381 
L 319.223788 286.147435 
L 320.30959 285.143699 
L 321.395391 287.186397 
L 322.481192 288.23951 
L 323.566993 289.02592 
L 324.652794 290.657486 
L 325.738595 288.731378 
L 326.824396 288.055552 
L 327.910198 286.445656 
L 328.995999 286.596665 
L 330.0818 288.220587 
L 331.167601 293.087145 
L 332.253402 291.180368 
L 333.339203 291.557078 
L 334.425005 290.676814 
L 335.510806 289.285528 
L 336.596607 287.751568 
L 337.682408 286.668558 
L 338.768209 288.60141 
L 339.85401 290.497159 
L 340.939811 287.226269 
L 342.025613 287.168623 
L 343.111414 286.871563 
L 344.197215 288.626399 
L 345.283016 289.850381 
L 346.368817 289.824326 
L 347.454618 291.105346 
L 348.54042 291.123561 
L 349.626221 293.105833 
L 350.712022 293.560255 
L 351.797823 291.687263 
L 352.883624 290.661707 
L 353.969425 293.616642 
L 355.055227 292.772409 
L 356.141028 293.553776 
L 357.226829 294.000815 
L 358.31263 291.589217 
L 359.398431 289.553536 
L 360.484232 292.674769 
L 361.570033 293.107104 
L 362.655835 294.006525 
L 363.741636 292.767948 
L 364.827437 290.179333 
L 365.913238 289.093936 
L 366.999039 288.859667 
L 368.08484 290.443208 
L 369.170642 286.25325 
L 370.256443 290.342947 
L 371.342244 290.771785 
L 372.428045 289.898027 
L 373.513846 292.196923 
L 374.599647 291.736023 
L 375.685448 290.802063 
L 376.77125 291.864624 
L 377.857051 292.201794 
L 378.942852 291.355536 
L 380.028653 289.336289 
L 381.114454 287.381597 
L 382.200255 287.783152 
L 383.286057 286.816621 
L 384.371858 288.987642 
L 385.457659 286.982065 
L 386.54346 289.84852 
L 387.629261 288.795384 
L 388.715062 291.665064 
L 389.800863 287.867016 
L 390.886665 289.07548 
L 391.972466 288.927602 
L 393.058267 289.261541 
L 394.144068 289.787128 
L 395.229869 289.254152 
L 396.31567 289.665224 
L 397.401472 284.744212 
L 398.487273 285.988336 
L 398.487273 105.640513 
L 398.487273 105.640513 
L 397.401472 98.320419 
L 396.31567 114.185068 
L 395.229869 111.353778 
L 394.144068 113.211392 
L 393.058267 113.41044 
L 391.972466 109.530536 
L 390.886665 107.856798 
L 389.800863 105.589517 
L 388.715062 116.619707 
L 387.629261 107.40313 
L 386.54346 110.525404 
L 385.457659 101.227103 
L 384.371858 110.735084 
L 383.286057 105.879679 
L 382.200255 108.278735 
L 381.114454 102.145502 
L 380.028653 104.387131 
L 378.942852 114.928197 
L 377.857051 118.64924 
L 376.77125 122.993309 
L 375.685448 134.731924 
L 374.599647 125.422954 
L 373.513846 127.176346 
L 372.428045 121.878615 
L 371.342244 118.316442 
L 370.256443 120.694585 
L 369.170642 102.654401 
L 368.08484 114.74034 
L 366.999039 111.191943 
L 365.913238 111.181833 
L 364.827437 113.999207 
L 363.741636 132.486158 
L 362.655835 137.364732 
L 361.570033 131.868025 
L 360.484232 135.043043 
L 359.398431 115.139799 
L 358.31263 119.681571 
L 357.226829 135.495212 
L 356.141028 124.370566 
L 355.055227 120.811046 
L 353.969425 119.24712 
L 352.883624 107.22094 
L 351.797823 111.709611 
L 350.712022 121.772153 
L 349.626221 117.602081 
L 348.54042 112.038766 
L 347.454618 115.337718 
L 346.368817 110.992439 
L 345.283016 109.442187 
L 344.197215 102.184203 
L 343.111414 97.442972 
L 342.025613 98.381238 
L 340.939811 99.174946 
L 339.85401 114.035361 
L 338.768209 106.225102 
L 337.682408 98.998005 
L 336.596607 104.008919 
L 335.510806 108.77286 
L 334.425005 116.514052 
L 333.339203 125.485528 
L 332.253402 126.038091 
L 331.167601 130.97223 
L 330.0818 111.006346 
L 328.995999 110.154634 
L 327.910198 107.614435 
L 326.824396 115.812973 
L 325.738595 120.284887 
L 324.652794 114.3139 
L 323.566993 108.822559 
L 322.481192 103.055932 
L 321.395391 102.510763 
L 320.30959 95.492231 
L 319.223788 99.453699 
L 318.137987 107.582373 
L 317.052186 110.711995 
L 315.966385 95.892107 
L 314.880584 105.12757 
L 313.794783 113.681601 
L 312.708981 118.171423 
L 311.62318 124.181435 
L 310.537379 121.416018 
L 309.451578 131.500397 
L 308.365777 121.877511 
L 307.279976 125.49378 
L 306.194175 134.680174 
L 305.108373 119.112568 
L 304.022572 103.207927 
L 302.936771 104.273747 
L 301.85097 128.275367 
L 300.765169 121.186046 
L 299.679368 116.554166 
L 298.593566 116.256486 
L 297.507765 112.44481 
L 296.421964 104.351895 
L 295.336163 102.775072 
L 294.250362 111.437882 
L 293.164561 105.045203 
L 292.07876 91.213449 
L 290.992958 96.178852 
L 289.907157 107.656103 
L 288.821356 105.763473 
L 287.735555 105.538872 
L 286.649754 84.644498 
L 285.563953 96.748866 
L 284.478151 92.807218 
L 283.39235 101.407899 
L 282.306549 103.933484 
L 281.220748 106.94142 
L 280.134947 108.751704 
L 279.049146 103.699034 
L 277.963344 103.450057 
L 276.877543 79.236583 
L 275.791742 71.988613 
L 274.705941 79.832121 
L 273.62014 73.614646 
L 272.534339 89.607107 
L 271.448538 80.624266 
L 270.362736 82.236073 
L 269.276935 71.966468 
L 268.191134 72.530431 
L 267.105333 59.757252 
L 266.019532 63.676283 
L 264.933731 60.652741 
L 263.847929 57.391586 
L 262.762128 68.772056 
L 261.676327 81.803077 
L 260.590526 74.557408 
L 259.504725 86.825511 
L 258.418924 91.682348 
L 257.333123 85.42068 
L 256.247321 79.326444 
L 255.16152 81.470942 
L 254.075719 91.223318 
L 252.989918 104.340026 
L 251.904117 97.791942 
L 250.818316 100.003503 
L 249.732514 113.006681 
L 248.646713 98.918309 
L 247.560912 103.905683 
L 246.475111 107.140675 
L 245.38931 117.935458 
L 244.303509 117.456672 
L 243.217708 107.275622 
L 242.131906 110.38798 
L 241.046105 98.206292 
L 239.960304 96.361518 
L 238.874503 106.200553 
L 237.788702 112.998953 
L 236.702901 122.49025 
L 235.617099 127.733391 
L 234.531298 114.419121 
L 233.445497 122.651424 
L 232.359696 108.465867 
L 231.273895 123.701253 
L 230.188094 110.965418 
L 229.102292 117.570324 
L 228.016491 123.086404 
L 226.93069 131.382279 
L 225.844889 127.407627 
L 224.759088 134.576018 
L 223.673287 131.867567 
L 222.587486 127.469377 
L 221.501684 118.707352 
L 220.415883 112.77977 
L 219.330082 102.025755 
L 218.244281 111.697843 
L 217.15848 103.266127 
L 216.072679 114.935745 
L 214.986877 114.092384 
L 213.901076 125.941286 
L 212.815275 117.356675 
L 211.729474 129.902571 
L 210.643673 132.890679 
L 209.557872 110.203282 
L 208.472071 125.699801 
L 207.386269 127.653433 
L 206.300468 128.011882 
L 205.214667 129.89527 
L 204.128866 117.019118 
L 203.043065 119.216731 
L 201.957264 119.838057 
L 200.871462 111.541235 
L 199.785661 126.525047 
L 198.69986 126.84361 
L 197.614059 126.710282 
L 196.528258 116.612227 
L 195.442457 116.246248 
L 194.356656 115.780549 
L 193.270854 109.042891 
L 192.185053 97.973838 
L 191.099252 101.173335 
L 190.013451 101.370115 
L 188.92765 109.977707 
L 187.841849 100.378959 
L 186.756047 115.53909 
L 185.670246 125.936148 
L 184.584445 122.635461 
L 183.498644 101.968752 
L 182.412843 105.964646 
L 181.327042 112.991001 
L 180.24124 111.805861 
L 179.155439 119.210879 
L 178.069638 133.741115 
L 176.983837 123.959238 
L 175.898036 123.889825 
L 174.812235 104.857272 
L 173.726434 117.704351 
L 172.640632 120.431099 
L 171.554831 121.07418 
L 170.46903 131.494048 
L 169.383229 137.654803 
L 168.297428 147.397992 
L 167.211627 132.299346 
L 166.125825 138.332922 
L 165.040024 131.165559 
L 163.954223 128.029014 
L 162.868422 120.837766 
L 161.782621 125.178292 
L 160.69682 118.54891 
L 159.611019 128.37001 
L 158.525217 135.347822 
L 157.439416 127.260084 
L 156.353615 123.244558 
L 155.267814 120.058119 
L 154.182013 131.518858 
L 153.096212 128.517546 
L 152.01041 124.986194 
L 150.924609 133.282235 
L 149.838808 128.665398 
L 148.753007 132.457232 
L 147.667206 138.25524 
L 146.581405 127.912957 
L 145.495604 121.475442 
L 144.409802 112.99191 
L 143.324001 125.87786 
L 142.2382 135.875477 
L 141.152399 131.576576 
L 140.066598 135.857001 
L 138.980797 137.505214 
L 137.894995 141.95562 
L 136.809194 123.994191 
L 135.723393 134.396149 
L 134.637592 138.265632 
L 133.551791 132.299962 
L 132.46599 131.850433 
L 131.380189 132.191487 
L 130.294387 129.388421 
L 129.208586 130.687133 
L 128.122785 132.540304 
L 127.036984 129.847052 
L 125.951183 127.374042 
L 124.865382 120.809897 
L 123.77958 133.89987 
L 122.693779 125.491812 
L 121.607978 139.376526 
L 120.522177 134.427143 
L 119.436376 118.448173 
L 118.350575 130.077079 
L 117.264773 122.57967 
L 116.178972 102.08203 
L 115.093171 117.931509 
L 114.00737 94.420553 
L 112.921569 102.609085 
L 111.835768 97.621147 
L 110.749967 101.812523 
L 109.664165 106.818804 
L 108.578364 103.613911 
L 107.492563 104.324063 
L 106.406762 78.200605 
L 105.320961 84.468887 
L 104.23516 90.469356 
L 103.149358 79.716432 
L 102.063557 86.7518 
L 100.977756 95.146812 
L 99.891955 88.850191 
L 98.806154 91.181051 
L 97.720353 89.734448 
L 96.634552 90.217259 
L 95.54875 88.086272 
L 94.462949 78.084842 
L 93.377148 74.408796 
L 92.291347 63.941552 
L 91.205546 72.316492 
L 90.119745 82.539532 
L 89.033943 85.419961 
L 87.948142 77.25572 
L 86.862341 71.824722 
L 85.77654 71.043985 
L 84.690739 66.85778 
L 83.604938 73.058518 
L 82.519137 65.111451 
L 81.433335 72.572191 
L 80.347534 66.674459 
L 79.261733 67.437015 
L 78.175932 69.060138 
L 77.090131 53.568 
L 76.00433 55.930753 
L 74.918528 56.611222 
L 73.832727 61.495198 
z
" style="fill:#008000;fill-opacity:0.25;"/>
   </g>
   <g id="matplotlib.axis_3">
    <g id="ytick_8">
     <g id="line2d_16">
      <path clip-path="url(#p89ced0121c)" d="M 57.6 295.551721 
L 414.72 295.551721 
" style="fill:none;stroke:#b0b0b0;stroke-linecap:square;stroke-width:0.8;"/>
     </g>
     <g id="line2d_17">
      <defs>
       <path d="M 0 0 
L 3.5 0 
" id="m3da1f07414" style="stroke:#000000;stroke-width:0.8;"/>
      </defs>
      <g>
       <use style="stroke:#000000;stroke-width:0.8;" x="414.72" xlink:href="#m3da1f07414" y="295.551721"/>
      </g>
     </g>
     <g id="text_16">
      <!-- 0.2 -->
      <defs>
       <path d="M 10.59375 35.5 
L 73.1875 35.5 
L 73.1875 27.203125 
L 10.59375 27.203125 
z
" id="DejaVuSans-8722"/>
      </defs>
      <g transform="translate(421.72 299.35094)scale(0.1 -0.1)">
       <use xlink:href="#DejaVuSans-8722"/>
       <use x="83.789062" xlink:href="#DejaVuSans-48"/>
       <use x="147.412109" xlink:href="#DejaVuSans-46"/>
       <use x="179.199219" xlink:href="#DejaVuSans-50"/>
      </g>
     </g>
    </g>
    <g id="ytick_9">
     <g id="line2d_18">
      <path clip-path="url(#p89ced0121c)" d="M 57.6 251.72124 
L 414.72 251.72124 
" style="fill:none;stroke:#b0b0b0;stroke-linecap:square;stroke-width:0.8;"/>
     </g>
     <g id="line2d_19">
      <g>
       <use style="stroke:#000000;stroke-width:0.8;" x="414.72" xlink:href="#m3da1f07414" y="251.72124"/>
      </g>
     </g>
     <g id="text_17">
      <!-- 0.0 -->
      <g transform="translate(421.72 255.520459)scale(0.1 -0.1)">
       <use xlink:href="#DejaVuSans-48"/>
       <use x="63.623047" xlink:href="#DejaVuSans-46"/>
       <use x="95.410156" xlink:href="#DejaVuSans-48"/>
      </g>
     </g>
    </g>
    <g id="ytick_10">
     <g id="line2d_20">
      <path clip-path="url(#p89ced0121c)" d="M 57.6 207.890759 
L 414.72 207.890759 
" style="fill:none;stroke:#b0b0b0;stroke-linecap:square;stroke-width:0.8;"/>
     </g>
     <g id="line2d_21">
      <g>
       <use style="stroke:#000000;stroke-width:0.8;" x="414.72" xlink:href="#m3da1f07414" y="207.890759"/>
      </g>
     </g>
     <g id="text_18">
      <!-- 0.2 -->
      <g transform="translate(421.72 211.689978)scale(0.1 -0.1)">
       <use xlink:href="#DejaVuSans-48"/>
       <use x="63.623047" xlink:href="#DejaVuSans-46"/>
       <use x="95.410156" xlink:href="#DejaVuSans-50"/>
      </g>
     </g>
    </g>
    <g id="ytick_11">
     <g id="line2d_22">
      <path clip-path="url(#p89ced0121c)" d="M 57.6 164.060278 
L 414.72 164.060278 
" style="fill:none;stroke:#b0b0b0;stroke-linecap:square;stroke-width:0.8;"/>
     </g>
     <g id="line2d_23">
      <g>
       <use style="stroke:#000000;stroke-width:0.8;" x="414.72" xlink:href="#m3da1f07414" y="164.060278"/>
      </g>
     </g>
     <g id="text_19">
      <!-- 0.4 -->
      <g transform="translate(421.72 167.859496)scale(0.1 -0.1)">
       <use xlink:href="#DejaVuSans-48"/>
       <use x="63.623047" xlink:href="#DejaVuSans-46"/>
       <use x="95.410156" xlink:href="#DejaVuSans-52"/>
      </g>
     </g>
    </g>
    <g id="ytick_12">
     <g id="line2d_24">
      <path clip-path="url(#p89ced0121c)" d="M 57.6 120.229797 
L 414.72 120.229797 
" style="fill:none;stroke:#b0b0b0;stroke-linecap:square;stroke-width:0.8;"/>
     </g>
     <g id="line2d_25">
      <g>
       <use style="stroke:#000000;stroke-width:0.8;" x="414.72" xlink:href="#m3da1f07414" y="120.229797"/>
      </g>
     </g>
     <g id="text_20">
      <!-- 0.6 -->
      <g transform="translate(421.72 124.029015)scale(0.1 -0.1)">
       <use xlink:href="#DejaVuSans-48"/>
       <use x="63.623047" xlink:href="#DejaVuSans-46"/>
       <use x="95.410156" xlink:href="#DejaVuSans-54"/>
      </g>
     </g>
    </g>
    <g id="ytick_13">
     <g id="line2d_26">
      <path clip-path="url(#p89ced0121c)" d="M 57.6 76.399316 
L 414.72 76.399316 
" style="fill:none;stroke:#b0b0b0;stroke-linecap:square;stroke-width:0.8;"/>
     </g>
     <g id="line2d_27">
      <g>
       <use style="stroke:#000000;stroke-width:0.8;" x="414.72" xlink:href="#m3da1f07414" y="76.399316"/>
      </g>
     </g>
     <g id="text_21">
      <!-- 0.8 -->
      <g transform="translate(421.72 80.198534)scale(0.1 -0.1)">
       <use xlink:href="#DejaVuSans-48"/>
       <use x="63.623047" xlink:href="#DejaVuSans-46"/>
       <use x="95.410156" xlink:href="#DejaVuSans-56"/>
      </g>
     </g>
    </g>
    <g id="text_22">
     <!-- Loudness -->
     <defs>
      <path d="M 9.8125 72.90625 
L 19.671875 72.90625 
L 19.671875 8.296875 
L 55.171875 8.296875 
L 55.171875 0 
L 9.8125 0 
z
" id="DejaVuSans-76"/>
      <path d="M 30.609375 48.390625 
Q 23.390625 48.390625 19.1875 42.75 
Q 14.984375 37.109375 14.984375 27.296875 
Q 14.984375 17.484375 19.15625 11.84375 
Q 23.34375 6.203125 30.609375 6.203125 
Q 37.796875 6.203125 41.984375 11.859375 
Q 46.1875 17.53125 46.1875 27.296875 
Q 46.1875 37.015625 41.984375 42.703125 
Q 37.796875 48.390625 30.609375 48.390625 
z
M 30.609375 56 
Q 42.328125 56 49.015625 48.375 
Q 55.71875 40.765625 55.71875 27.296875 
Q 55.71875 13.875 49.015625 6.21875 
Q 42.328125 -1.421875 30.609375 -1.421875 
Q 18.84375 -1.421875 12.171875 6.21875 
Q 5.515625 13.875 5.515625 27.296875 
Q 5.515625 40.765625 12.171875 48.375 
Q 18.84375 56 30.609375 56 
z
" id="DejaVuSans-111"/>
      <path d="M 8.5 21.578125 
L 8.5 54.6875 
L 17.484375 54.6875 
L 17.484375 21.921875 
Q 17.484375 14.15625 20.5 10.265625 
Q 23.53125 6.390625 29.59375 6.390625 
Q 36.859375 6.390625 41.078125 11.03125 
Q 45.3125 15.671875 45.3125 23.6875 
L 45.3125 54.6875 
L 54.296875 54.6875 
L 54.296875 0 
L 45.3125 0 
L 45.3125 8.40625 
Q 42.046875 3.421875 37.71875 1 
Q 33.40625 -1.421875 27.6875 -1.421875 
Q 18.265625 -1.421875 13.375 4.4375 
Q 8.5 10.296875 8.5 21.578125 
z
M 31.109375 56 
z
" id="DejaVuSans-117"/>
      <path d="M 45.40625 46.390625 
L 45.40625 75.984375 
L 54.390625 75.984375 
L 54.390625 0 
L 45.40625 0 
L 45.40625 8.203125 
Q 42.578125 3.328125 38.25 0.953125 
Q 33.9375 -1.421875 27.875 -1.421875 
Q 17.96875 -1.421875 11.734375 6.484375 
Q 5.515625 14.40625 5.515625 27.296875 
Q 5.515625 40.1875 11.734375 48.09375 
Q 17.96875 56 27.875 56 
Q 33.9375 56 38.25 53.625 
Q 42.578125 51.265625 45.40625 46.390625 
z
M 14.796875 27.296875 
Q 14.796875 17.390625 18.875 11.75 
Q 22.953125 6.109375 30.078125 6.109375 
Q 37.203125 6.109375 41.296875 11.75 
Q 45.40625 17.390625 45.40625 27.296875 
Q 45.40625 37.203125 41.296875 42.84375 
Q 37.203125 48.484375 30.078125 48.484375 
Q 22.953125 48.484375 18.875 42.84375 
Q 14.796875 37.203125 14.796875 27.296875 
z
" id="DejaVuSans-100"/>
     </defs>
     <g transform="translate(457.60125 198.170187)rotate(-90)scale(0.1 -0.1)">
      <use xlink:href="#DejaVuSans-76"/>
      <use x="55.697266" xlink:href="#DejaVuSans-111"/>
      <use x="116.878906" xlink:href="#DejaVuSans-117"/>
      <use x="180.257812" xlink:href="#DejaVuSans-100"/>
      <use x="243.734375" xlink:href="#DejaVuSans-110"/>
      <use x="307.113281" xlink:href="#DejaVuSans-101"/>
      <use x="368.636719" xlink:href="#DejaVuSans-115"/>
      <use x="420.736328" xlink:href="#DejaVuSans-115"/>
     </g>
    </g>
   </g>
   <g id="line2d_28">
    <path clip-path="url(#p89ced0121c)" d="M 73.832727 158.547141 
L 74.918528 154.652924 
L 76.00433 153.7717 
L 77.090131 151.869542 
L 78.175932 164.832823 
L 79.261733 164.432855 
L 80.347534 163.574424 
L 81.433335 169.142916 
L 82.519137 165.173224 
L 83.604938 170.981472 
L 84.690739 165.823532 
L 85.77654 169.219335 
L 86.862341 170.590339 
L 87.948142 174.23205 
L 89.033943 180.82691 
L 90.119745 179.228919 
L 92.291347 164.606301 
L 93.377148 173.848282 
L 94.462949 176.898116 
L 95.54875 184.126786 
L 96.634552 185.176741 
L 97.720353 185.4604 
L 98.806154 186.759026 
L 99.891955 185.182846 
L 100.977756 190.304921 
L 102.063557 183.941776 
L 103.149358 178.792863 
L 104.23516 185.344635 
L 105.320961 181.581776 
L 106.406762 177.123109 
L 107.492563 195.59485 
L 108.578364 195.401648 
L 109.664165 197.282608 
L 110.749967 193.559243 
L 111.835768 191.547004 
L 112.921569 194.678674 
L 114.00737 188.662354 
L 115.093171 204.200432 
L 116.178972 194.331564 
L 117.264773 207.035926 
L 118.350575 211.717712 
L 119.436376 205.611308 
L 120.522177 214.393921 
L 121.607978 217.01618 
L 122.693779 209.527006 
L 123.77958 213.994802 
L 124.865382 206.681163 
L 125.951183 210.217543 
L 127.036984 211.680407 
L 128.122785 213.524346 
L 129.208586 212.009354 
L 130.294387 211.21597 
L 131.380189 213.006366 
L 132.46599 213.152238 
L 133.551791 212.804849 
L 134.637592 216.374424 
L 135.723393 214.442926 
L 136.809194 208.170815 
L 137.894995 218.298438 
L 138.980797 215.27441 
L 140.066598 214.309895 
L 141.152399 212.214001 
L 142.2382 213.868162 
L 143.324001 209.123444 
L 144.409802 201.372267 
L 145.495604 206.666544 
L 146.581405 210.891937 
L 147.667206 216.195819 
L 148.753007 213.12261 
L 149.838808 211.403356 
L 150.924609 213.944939 
L 152.01041 208.510322 
L 153.096212 210.932787 
L 154.182013 213.054729 
L 155.267814 206.408217 
L 156.353615 208.024065 
L 157.439416 210.206845 
L 158.525217 214.49152 
L 159.611019 210.664011 
L 160.69682 204.891293 
L 161.782621 208.624678 
L 162.868422 205.405043 
L 163.954223 210.513895 
L 165.040024 212.432579 
L 166.125825 216.685814 
L 167.211627 213.264819 
L 168.297428 220.87434 
L 169.383229 215.579986 
L 170.46903 212.642355 
L 171.554831 206.239711 
L 172.640632 205.927442 
L 173.726434 204.033259 
L 174.812235 196.420435 
L 175.898036 207.653517 
L 176.983837 207.736937 
L 178.069638 213.303562 
L 179.155439 204.265245 
L 180.24124 199.843434 
L 181.327042 200.861017 
L 182.412843 197.652522 
L 183.498644 194.945429 
L 184.584445 207.361403 
L 185.670246 209.16633 
L 186.756047 203.227847 
L 187.841849 194.015208 
L 188.92765 199.754177 
L 190.013451 194.27106 
L 191.099252 193.943157 
L 192.185053 191.135508 
L 193.270854 199.510669 
L 194.356656 203.224231 
L 195.442457 203.109369 
L 196.528258 203.778693 
L 197.614059 209.814444 
L 198.69986 209.99262 
L 199.785661 209.70974 
L 200.871462 200.495302 
L 201.957264 205.238314 
L 203.043065 205.12052 
L 204.128866 204.30602 
L 205.214667 211.721288 
L 206.300468 210.961062 
L 207.386269 210.71942 
L 208.472071 209.195096 
L 209.557872 200.322418 
L 210.643673 212.729972 
L 211.729474 211.635671 
L 212.815275 203.94169 
L 213.901076 209.781675 
L 214.986877 203.232545 
L 216.072679 202.657826 
L 217.15848 194.757746 
L 218.244281 200.560065 
L 219.330082 194.066164 
L 220.415883 200.906366 
L 221.501684 204.552721 
L 222.587486 210.308685 
L 223.673287 212.813167 
L 224.759088 214.204089 
L 225.844889 210.099278 
L 226.93069 211.70709 
L 228.016491 207.326281 
L 230.188094 199.593985 
L 231.273895 207.596062 
L 232.359696 198.591963 
L 233.445497 207.135027 
L 234.531298 201.910058 
L 235.617099 210.115541 
L 236.702901 207.382254 
L 237.788702 200.94634 
L 238.874503 196.502899 
L 239.960304 191.022816 
L 241.046105 192.644516 
L 242.131906 200.316922 
L 243.217708 198.069906 
L 244.303509 204.3908 
L 245.38931 204.903339 
L 246.475111 198.660027 
L 247.560912 196.082323 
L 248.646713 192.273347 
L 249.732514 201.236354 
L 250.818316 193.379284 
L 251.904117 191.345309 
L 252.989918 194.965672 
L 254.075719 186.483841 
L 255.16152 179.876427 
L 256.247321 177.953097 
L 258.418924 187.081029 
L 259.504725 183.714862 
L 260.590526 174.016668 
L 261.676327 180.343645 
L 263.847929 159.684897 
L 264.933731 163.349497 
L 266.019532 166.105789 
L 267.105333 163.152733 
L 268.191134 173.195802 
L 269.276935 171.972836 
L 270.362736 178.117648 
L 271.448538 177.959593 
L 272.534339 184.599856 
L 273.62014 173.954408 
L 274.705941 179.171168 
L 275.791742 173.279991 
L 276.877543 178.390726 
L 277.963344 195.721285 
L 279.049146 196.154671 
L 280.134947 199.570042 
L 282.306549 195.998473 
L 283.39235 193.687164 
L 284.478151 188.019793 
L 285.563953 190.534436 
L 286.649754 182.145598 
L 287.735555 196.672521 
L 288.821356 196.53739 
L 289.907157 198.566108 
L 290.992958 191.135952 
L 292.07876 188.004949 
L 293.164561 197.141254 
L 294.250362 201.169092 
L 295.336163 195.857739 
L 296.421964 196.331939 
L 297.507765 200.991694 
L 298.593566 203.509801 
L 299.679368 203.882171 
L 300.765169 206.544763 
L 301.85097 210.759616 
L 302.936771 196.214743 
L 304.022572 195.703924 
L 306.194175 215.073955 
L 307.279976 210.161273 
L 308.365777 208.07506 
L 309.451578 213.494199 
L 310.537379 207.457377 
L 311.62318 209.288504 
L 312.708981 205.893261 
L 313.794783 203.189506 
L 315.966385 191.054201 
L 317.052186 200.577945 
L 318.137987 198.013091 
L 319.223788 192.800567 
L 320.30959 190.317965 
L 321.395391 194.84858 
L 322.481192 195.647721 
L 324.652794 202.485693 
L 325.738595 204.508132 
L 326.824396 201.934263 
L 327.910198 197.030045 
L 330.0818 199.613467 
L 331.167601 212.029687 
L 332.253402 208.609229 
L 333.339203 208.521303 
L 335.510806 199.029194 
L 337.682408 192.833281 
L 339.85401 202.26626 
L 340.939811 193.200608 
L 342.025613 192.77493 
L 343.111414 192.157267 
L 344.197215 195.405301 
L 345.283016 199.646284 
L 346.368817 200.408382 
L 347.454618 203.221532 
L 348.54042 201.581163 
L 349.626221 205.353957 
L 350.712022 207.666204 
L 351.797823 201.698437 
L 352.883624 198.941324 
L 353.969425 206.431881 
L 355.055227 206.791728 
L 356.141028 208.962171 
L 357.226829 214.748014 
L 358.31263 205.635394 
L 359.398431 202.346668 
L 360.484232 213.858906 
L 361.570033 212.487564 
L 362.655835 215.685628 
L 363.741636 212.627053 
L 364.827437 202.08927 
L 365.913238 200.137885 
L 366.999039 200.025805 
L 368.08484 202.591774 
L 369.170642 194.453826 
L 370.256443 205.518766 
L 371.342244 204.544114 
L 372.428045 205.888321 
L 373.513846 209.686634 
L 374.599647 208.579488 
L 375.685448 212.766994 
L 376.77125 207.428966 
L 377.857051 205.425517 
L 378.942852 203.141867 
L 380.028653 196.86171 
L 381.114454 194.763549 
L 382.200255 198.030944 
L 383.286057 196.34815 
L 384.371858 199.861363 
L 385.457659 194.104584 
L 386.54346 200.186962 
L 387.629261 198.099257 
L 388.715062 204.142385 
L 389.800863 196.728267 
L 390.886665 198.466139 
L 391.972466 199.229069 
L 393.058267 201.33599 
L 394.144068 201.49926 
L 395.229869 200.303965 
L 396.31567 201.925146 
L 397.401472 191.532315 
L 398.487273 195.814425 
L 398.487273 195.814425 
" style="fill:none;stroke:#008000;stroke-linecap:square;stroke-width:1.5;"/>
   </g>
   <g id="patch_7">
    <path d="M 57.6 307.584 
L 57.6 41.472 
" style="fill:none;stroke:#000000;stroke-linecap:square;stroke-linejoin:miter;stroke-width:0.8;"/>
   </g>
   <g id="patch_8">
    <path d="M 414.72 307.584 
L 414.72 41.472 
" style="fill:none;stroke:#000000;stroke-linecap:square;stroke-linejoin:miter;stroke-width:0.8;"/>
   </g>
   <g id="patch_9">
    <path d="M 57.6 307.584 
L 414.72 307.584 
" style="fill:none;stroke:#000000;stroke-linecap:square;stroke-linejoin:miter;stroke-width:0.8;"/>
   </g>
   <g id="patch_10">
    <path d="M 57.6 41.472 
L 414.72 41.472 
" style="fill:none;stroke:#000000;stroke-linecap:square;stroke-linejoin:miter;stroke-width:0.8;"/>
   </g>
   <g id="text_23">
    <!-- Message Difference and Loudness -->
    <defs>
     <path d="M 9.8125 72.90625 
L 24.515625 72.90625 
L 43.109375 23.296875 
L 61.8125 72.90625 
L 76.515625 72.90625 
L 76.515625 0 
L 66.890625 0 
L 66.890625 64.015625 
L 48.09375 14.015625 
L 38.1875 14.015625 
L 19.390625 64.015625 
L 19.390625 0 
L 9.8125 0 
z
" id="DejaVuSans-77"/>
     <path d="M 45.40625 27.984375 
Q 45.40625 37.75 41.375 43.109375 
Q 37.359375 48.484375 30.078125 48.484375 
Q 22.859375 48.484375 18.828125 43.109375 
Q 14.796875 37.75 14.796875 27.984375 
Q 14.796875 18.265625 18.828125 12.890625 
Q 22.859375 7.515625 30.078125 7.515625 
Q 37.359375 7.515625 41.375 12.890625 
Q 45.40625 18.265625 45.40625 27.984375 
z
M 54.390625 6.78125 
Q 54.390625 -7.171875 48.1875 -13.984375 
Q 42 -20.796875 29.203125 -20.796875 
Q 24.46875 -20.796875 20.265625 -20.09375 
Q 16.0625 -19.390625 12.109375 -17.921875 
L 12.109375 -9.1875 
Q 16.0625 -11.328125 19.921875 -12.34375 
Q 23.78125 -13.375 27.78125 -13.375 
Q 36.625 -13.375 41.015625 -8.765625 
Q 45.40625 -4.15625 45.40625 5.171875 
L 45.40625 9.625 
Q 42.625 4.78125 38.28125 2.390625 
Q 33.9375 0 27.875 0 
Q 17.828125 0 11.671875 7.65625 
Q 5.515625 15.328125 5.515625 27.984375 
Q 5.515625 40.671875 11.671875 48.328125 
Q 17.828125 56 27.875 56 
Q 33.9375 56 38.28125 53.609375 
Q 42.625 51.21875 45.40625 46.390625 
L 45.40625 54.6875 
L 54.390625 54.6875 
z
" id="DejaVuSans-103"/>
     <path id="DejaVuSans-32"/>
     <path d="M 37.109375 75.984375 
L 37.109375 68.5 
L 28.515625 68.5 
Q 23.6875 68.5 21.796875 66.546875 
Q 19.921875 64.59375 19.921875 59.515625 
L 19.921875 54.6875 
L 34.71875 54.6875 
L 34.71875 47.703125 
L 19.921875 47.703125 
L 19.921875 0 
L 10.890625 0 
L 10.890625 47.703125 
L 2.296875 47.703125 
L 2.296875 54.6875 
L 10.890625 54.6875 
L 10.890625 58.5 
Q 10.890625 67.625 15.140625 71.796875 
Q 19.390625 75.984375 28.609375 75.984375 
z
" id="DejaVuSans-102"/>
     <path d="M 41.109375 46.296875 
Q 39.59375 47.171875 37.8125 47.578125 
Q 36.03125 48 33.890625 48 
Q 26.265625 48 22.1875 43.046875 
Q 18.109375 38.09375 18.109375 28.8125 
L 18.109375 0 
L 9.078125 0 
L 9.078125 54.6875 
L 18.109375 54.6875 
L 18.109375 46.1875 
Q 20.953125 51.171875 25.484375 53.578125 
Q 30.03125 56 36.53125 56 
Q 37.453125 56 38.578125 55.875 
Q 39.703125 55.765625 41.0625 55.515625 
z
" id="DejaVuSans-114"/>
    </defs>
    <g transform="translate(133.329375 35.472)scale(0.12 -0.12)">
     <use xlink:href="#DejaVuSans-77"/>
     <use x="86.279297" xlink:href="#DejaVuSans-101"/>
     <use x="147.802734" xlink:href="#DejaVuSans-115"/>
     <use x="199.902344" xlink:href="#DejaVuSans-115"/>
     <use x="252.001953" xlink:href="#DejaVuSans-97"/>
     <use x="313.28125" xlink:href="#DejaVuSans-103"/>
     <use x="376.757812" xlink:href="#DejaVuSans-101"/>
     <use x="438.28125" xlink:href="#DejaVuSans-32"/>
     <use x="470.068359" xlink:href="#DejaVuSans-68"/>
     <use x="547.070312" xlink:href="#DejaVuSans-105"/>
     <use x="574.853516" xlink:href="#DejaVuSans-102"/>
     <use x="610.058594" xlink:href="#DejaVuSans-102"/>
     <use x="645.263672" xlink:href="#DejaVuSans-101"/>
     <use x="706.787109" xlink:href="#DejaVuSans-114"/>
     <use x="747.869141" xlink:href="#DejaVuSans-101"/>
     <use x="809.392578" xlink:href="#DejaVuSans-110"/>
     <use x="872.771484" xlink:href="#DejaVuSans-99"/>
     <use x="927.751953" xlink:href="#DejaVuSans-101"/>
     <use x="989.275391" xlink:href="#DejaVuSans-32"/>
     <use x="1021.0625" xlink:href="#DejaVuSans-97"/>
     <use x="1082.341797" xlink:href="#DejaVuSans-110"/>
     <use x="1145.720703" xlink:href="#DejaVuSans-100"/>
     <use x="1209.197266" xlink:href="#DejaVuSans-32"/>
     <use x="1240.984375" xlink:href="#DejaVuSans-76"/>
     <use x="1296.681641" xlink:href="#DejaVuSans-111"/>
     <use x="1357.863281" xlink:href="#DejaVuSans-117"/>
     <use x="1421.242188" xlink:href="#DejaVuSans-100"/>
     <use x="1484.71875" xlink:href="#DejaVuSans-110"/>
     <use x="1548.097656" xlink:href="#DejaVuSans-101"/>
     <use x="1609.621094" xlink:href="#DejaVuSans-115"/>
     <use x="1661.720703" xlink:href="#DejaVuSans-115"/>
    </g>
   </g>
   <g id="legend_1">
    <g id="patch_11">
     <path d="M 331.227813 64.150125 
L 407.72 64.150125 
Q 409.72 64.150125 409.72 62.150125 
L 409.72 48.472 
Q 409.72 46.472 407.72 46.472 
L 331.227813 46.472 
Q 329.227813 46.472 329.227813 48.472 
L 329.227813 62.150125 
Q 329.227813 64.150125 331.227813 64.150125 
z
" style="fill:#ffffff;opacity:0.8;stroke:#cccccc;stroke-linejoin:miter;"/>
    </g>
    <g id="line2d_29">
     <path d="M 333.227813 54.570438 
L 353.227813 54.570438 
" style="fill:none;stroke:#008000;stroke-linecap:square;stroke-width:1.5;"/>
    </g>
    <g id="line2d_30"/>
    <g id="text_24">
     <!-- loudness -->
     <defs>
      <path d="M 9.421875 75.984375 
L 18.40625 75.984375 
L 18.40625 0 
L 9.421875 0 
z
" id="DejaVuSans-108"/>
     </defs>
     <g transform="translate(361.227813 58.070438)scale(0.1 -0.1)">
      <use xlink:href="#DejaVuSans-108"/>
      <use x="27.783203" xlink:href="#DejaVuSans-111"/>
      <use x="88.964844" xlink:href="#DejaVuSans-117"/>
      <use x="152.34375" xlink:href="#DejaVuSans-100"/>
      <use x="215.820312" xlink:href="#DejaVuSans-110"/>
      <use x="279.199219" xlink:href="#DejaVuSans-101"/>
      <use x="340.722656" xlink:href="#DejaVuSans-115"/>
      <use x="392.822266" xlink:href="#DejaVuSans-115"/>
     </g>
    </g>
   </g>
  </g>
 </g>
 <defs>
  <clipPath id="p89ced0121c">
   <rect height="266.112" width="357.12" x="57.6" y="41.472"/>
  </clipPath>
 </defs>
</svg>
