<?xml version="1.0" encoding="UTF-8" standalone="no"?>
<!DOCTYPE svg PUBLIC "-//W3C//DTD SVG 1.1//EN"
 "http://www.w3.org/Graphics/SVG/1.1/DTD/svg11.dtd">
<!-- Generated by graphviz version 2.40.1 (20161225.0304)
 -->
<!-- Title: %3 Pages: 1 -->
<svg width="386pt" height="259pt"
 viewBox="0.00 0.00 386.00 258.87" xmlns="http://www.w3.org/2000/svg" xmlns:xlink="http://www.w3.org/1999/xlink">
<g id="graph0" class="graph" transform="scale(1 1) rotate(0) translate(4 254.8726)">
<title>%3</title>
<polygon fill="#ffffff" stroke="transparent" points="-4,4 -4,-254.8726 381.9976,-254.8726 381.9976,4 -4,4"/>
<!-- E0 -->
<g id="node1" class="node">
<title>E0</title>
<polygon fill="#d3d3d3" stroke="#000000" points="25.9963,-250.8726 .0012,-250.8726 .0012,-233.8726 25.9963,-233.8726 25.9963,-250.8726"/>
<text text-anchor="middle" x="12.9988" y="-239.6726" font-family="Times,serif" font-size="9.00" fill="#000000">E0</text>
</g>
<!-- E1 -->
<g id="node2" class="node">
<title>E1</title>
<polygon fill="#d3d3d3" stroke="#000000" points="69.9963,-250.8726 44.0012,-250.8726 44.0012,-233.8726 69.9963,-233.8726 69.9963,-250.8726"/>
<text text-anchor="middle" x="56.9988" y="-239.6726" font-family="Times,serif" font-size="9.00" fill="#000000">E1</text>
</g>
<!-- E0&#45;&gt;E1 -->
<!-- 0 -->
<g id="node10" class="node">
<title>0</title>
<ellipse fill="#87cefa" stroke="#000000" cx="84.9988" cy="-14.853" rx="14.4914" ry="14.4914"/>
<text text-anchor="middle" x="84.9988" y="-12.153" font-family="Times,serif" font-size="9.00" fill="#000000">0</text>
</g>
<!-- E0&#45;&gt;0 -->
<g id="edge12" class="edge">
<title>E0&#45;&gt;0</title>
<path fill="none" stroke="#ff0000" stroke-width=".5895" d="M15.7333,-233.7314C25.9253,-201.5249 61.9184,-87.7868 77.6024,-38.2257"/>
<polygon fill="#ff0000" stroke="#ff0000" stroke-width=".5895" points="80.944,-39.2665 80.6243,-28.6764 74.2702,-37.1544 80.944,-39.2665"/>
</g>
<!-- S -->
<g id="node13" class="node">
<title>S</title>
<ellipse fill="#87cefa" stroke="#000000" cx="268.9988" cy="-14.853" rx="14.7075" ry="14.7075"/>
<text text-anchor="middle" x="268.9988" y="-12.153" font-family="Times,serif" font-size="9.00" fill="#000000">S</text>
</g>
<!-- E0&#45;&gt;S -->
<g id="edge15" class="edge">
<title>E0&#45;&gt;S</title>
<path fill="none" stroke="#ff0000" stroke-width=".1145" d="M26.3484,-236.7117C29.1695,-235.6582 32.1542,-234.6471 34.9988,-233.8726 82.5865,-220.9167 220.5678,-234.1329 253.9988,-197.8726 293.9986,-154.4876 283.9974,-78.161 275.3892,-39.2097"/>
<polygon fill="#ff0000" stroke="#ff0000" stroke-width=".1145" points="278.7471,-38.2 273.0409,-29.2731 271.9347,-39.81 278.7471,-38.2"/>
</g>
<!-- E2 -->
<g id="node3" class="node">
<title>E2</title>
<polygon fill="#d3d3d3" stroke="#000000" points="113.9963,-250.8726 88.0012,-250.8726 88.0012,-233.8726 113.9963,-233.8726 113.9963,-250.8726"/>
<text text-anchor="middle" x="100.9988" y="-239.6726" font-family="Times,serif" font-size="9.00" fill="#000000">E2</text>
</g>
<!-- E1&#45;&gt;E2 -->
<!-- E3 -->
<g id="node4" class="node">
<title>E3</title>
<polygon fill="#d3d3d3" stroke="#000000" points="157.9963,-250.8726 132.0012,-250.8726 132.0012,-233.8726 157.9963,-233.8726 157.9963,-250.8726"/>
<text text-anchor="middle" x="144.9988" y="-239.6726" font-family="Times,serif" font-size="9.00" fill="#000000">E3</text>
</g>
<!-- E2&#45;&gt;E3 -->
<!-- 2 -->
<g id="node12" class="node">
<title>2</title>
<ellipse fill="#87cefa" stroke="#000000" cx="217.9988" cy="-14.853" rx="14.4914" ry="14.4914"/>
<text text-anchor="middle" x="217.9988" y="-12.153" font-family="Times,serif" font-size="9.00" fill="#000000">2</text>
</g>
<!-- E2&#45;&gt;2 -->
<g id="edge14" class="edge">
<title>E2&#45;&gt;2</title>
<path fill="none" stroke="#ff0000" stroke-width="2.8902" d="M104.9401,-233.7987C116.8428,-208.0355 153.7126,-129.1754 187.9988,-65.7061 193.3503,-55.7996 199.6326,-45.032 205.0616,-35.9661"/>
<polygon fill="#ff0000" stroke="#ff0000" stroke-width="2.8902" points="208.1574,-37.6105 210.3357,-27.2419 202.167,-33.989 208.1574,-37.6105"/>
</g>
<!-- E4 -->
<g id="node5" class="node">
<title>E4</title>
<polygon fill="#d3d3d3" stroke="#000000" points="201.9963,-250.8726 176.0012,-250.8726 176.0012,-233.8726 201.9963,-233.8726 201.9963,-250.8726"/>
<text text-anchor="middle" x="188.9988" y="-239.6726" font-family="Times,serif" font-size="9.00" fill="#000000">E4</text>
</g>
<!-- E3&#45;&gt;E4 -->
<!-- E5 -->
<g id="node6" class="node">
<title>E5</title>
<polygon fill="#d3d3d3" stroke="#000000" points="245.9963,-250.8726 220.0012,-250.8726 220.0012,-233.8726 245.9963,-233.8726 245.9963,-250.8726"/>
<text text-anchor="middle" x="232.9988" y="-239.6726" font-family="Times,serif" font-size="9.00" fill="#000000">E5</text>
</g>
<!-- E4&#45;&gt;E5 -->
<!-- E6 -->
<g id="node7" class="node">
<title>E6</title>
<polygon fill="#d3d3d3" stroke="#000000" points="289.9963,-250.8726 264.0012,-250.8726 264.0012,-233.8726 289.9963,-233.8726 289.9963,-250.8726"/>
<text text-anchor="middle" x="276.9988" y="-239.6726" font-family="Times,serif" font-size="9.00" fill="#000000">E6</text>
</g>
<!-- E5&#45;&gt;E6 -->
<!-- 5393 -->
<g id="node15" class="node">
<title>5393</title>
<ellipse fill="#add8e6" stroke="#000000" cx="220.9988" cy="-173.831" rx="24.0833" ry="24.0833"/>
<text text-anchor="middle" x="220.9988" y="-175.631" font-family="Times,serif" font-size="9.00" fill="#000000">5393</text>
<text text-anchor="middle" x="220.9988" y="-166.631" font-family="Times,serif" font-size="9.00" fill="#000000">sigm</text>
</g>
<!-- E5&#45;&gt;5393 -->
<g id="edge20" class="edge">
<title>E5&#45;&gt;5393</title>
<path fill="none" stroke="#ff0000" stroke-width=".543" d="M231.479,-233.6918C230.3088,-227.0079 228.6104,-217.3068 226.9203,-207.6533"/>
<polygon fill="#ff0000" stroke="#ff0000" stroke-width=".543" points="230.3567,-206.9854 225.1845,-197.7389 223.4615,-208.1926 230.3567,-206.9854"/>
</g>
<!-- E7 -->
<g id="node8" class="node">
<title>E7</title>
<polygon fill="#d3d3d3" stroke="#000000" points="333.9963,-250.8726 308.0012,-250.8726 308.0012,-233.8726 333.9963,-233.8726 333.9963,-250.8726"/>
<text text-anchor="middle" x="320.9988" y="-239.6726" font-family="Times,serif" font-size="9.00" fill="#000000">E7</text>
</g>
<!-- E6&#45;&gt;E7 -->
<!-- E8 -->
<g id="node9" class="node">
<title>E8</title>
<polygon fill="#d3d3d3" stroke="#000000" points="377.9963,-250.8726 352.0012,-250.8726 352.0012,-233.8726 377.9963,-233.8726 377.9963,-250.8726"/>
<text text-anchor="middle" x="364.9988" y="-239.6726" font-family="Times,serif" font-size="9.00" fill="#000000">E8</text>
</g>
<!-- E7&#45;&gt;E8 -->
<!-- E7&#45;&gt;S -->
<g id="edge16" class="edge">
<title>E7&#45;&gt;S</title>
<path fill="none" stroke="#ff0000" stroke-width=".378" d="M319.8174,-233.8108C316.1682,-208.0817 304.2701,-129.3067 286.9988,-65.7061 284.5559,-56.7104 281.2917,-47.0226 278.2141,-38.5408"/>
<polygon fill="#ff0000" stroke="#ff0000" stroke-width=".378" points="281.3985,-37.0634 274.6203,-28.9204 274.8411,-39.513 281.3985,-37.0634"/>
</g>
<!-- 1 -->
<g id="node11" class="node">
<title>1</title>
<ellipse fill="#87cefa" stroke="#000000" cx="168.9988" cy="-14.853" rx="14.4914" ry="14.4914"/>
<text text-anchor="middle" x="168.9988" y="-12.153" font-family="Times,serif" font-size="9.00" fill="#000000">1</text>
</g>
<!-- E8&#45;&gt;1 -->
<g id="edge13" class="edge">
<title>E8&#45;&gt;1</title>
<path fill="none" stroke="#ff0000" stroke-width="4.2366" d="M355.9873,-233.7952C337.6855,-216.6223 294.461,-177.3088 253.9988,-149.7893 226.3701,-130.9983 207.7,-140.7765 187.9988,-113.7893 172.2071,-92.1575 168.5092,-61.0053 168.0872,-39.4619"/>
<polygon fill="#ff0000" stroke="#ff0000" stroke-width="4.2366" points="171.7941,-39.4667 168.1114,-29.4578 164.3802,-39.4488 171.7941,-39.4667"/>
</g>
<!-- 0&#45;&gt;1 -->
<!-- 1&#45;&gt;2 -->
<!-- 2&#45;&gt;S -->
<!-- 5378 -->
<g id="node14" class="node">
<title>5378</title>
<ellipse fill="#add8e6" stroke="#000000" cx="220.9988" cy="-89.7477" rx="24.0833" ry="24.0833"/>
<text text-anchor="middle" x="220.9988" y="-91.5477" font-family="Times,serif" font-size="9.00" fill="#000000">5378</text>
<text text-anchor="middle" x="220.9988" y="-82.5477" font-family="Times,serif" font-size="9.00" fill="#000000">sigm</text>
</g>
<!-- 5378&#45;&gt;2 -->
<g id="edge19" class="edge">
<title>5378&#45;&gt;2</title>
<path fill="none" stroke="#ff0000" stroke-width=".2342" d="M220.033,-65.6383C219.7043,-57.432 219.3362,-48.2428 219.0045,-39.9602"/>
<polygon fill="#ff0000" stroke="#ff0000" stroke-width=".2342" points="222.4932,-39.6052 218.5956,-29.7534 215.4988,-39.8855 222.4932,-39.6052"/>
</g>
<!-- 5378&#45;&gt;S -->
<g id="edge17" class="edge">
<title>5378&#45;&gt;S</title>
<path fill="none" stroke="#00ff00" stroke-width=".1197" d="M234.115,-69.2824C240.7274,-58.9651 248.7382,-46.4657 255.4147,-36.0483"/>
<polygon fill="#00ff00" stroke="#00ff00" stroke-width=".1197" points="258.4206,-37.8446 260.8698,-27.5367 252.5271,-34.0674 258.4206,-37.8446"/>
</g>
<!-- 5393&#45;&gt;5378 -->
<g id="edge18" class="edge">
<title>5393&#45;&gt;5378</title>
<path fill="none" stroke="#00ff00" stroke-width=".2081" d="M220.9988,-149.5106C220.9988,-141.5798 220.9988,-132.6191 220.9988,-124.0953"/>
<polygon fill="#00ff00" stroke="#00ff00" stroke-width=".2081" points="224.4989,-124.0134 220.9988,-114.0134 217.4989,-124.0135 224.4989,-124.0134"/>
</g>
</g>
</svg>
