<?xml version="1.0" encoding="UTF-8" standalone="no"?>
<!DOCTYPE svg PUBLIC "-//W3C//DTD SVG 1.1//EN"
 "http://www.w3.org/Graphics/SVG/1.1/DTD/svg11.dtd">
<!-- Generated by graphviz version 2.40.1 (20161225.0304)
 -->
<!-- Title: %3 Pages: 1 -->
<svg width="485pt" height="266pt"
 viewBox="0.00 0.00 484.77 265.93" xmlns="http://www.w3.org/2000/svg" xmlns:xlink="http://www.w3.org/1999/xlink">
<g id="graph0" class="graph" transform="scale(1 1) rotate(0) translate(4 261.9326)">
<title>%3</title>
<polygon fill="#ffffff" stroke="transparent" points="-4,4 -4,-261.9326 480.7661,-261.9326 480.7661,4 -4,4"/>
<!-- 0 -->
<g id="node1" class="node">
<title>0</title>
<polygon fill="#d3d3d3" stroke="#000000" points="242.389,-257.9326 222.3771,-257.9326 222.3771,-240.9326 242.389,-240.9326 242.389,-257.9326"/>
<text text-anchor="middle" x="232.383" y="-246.7326" font-family="Times,serif" font-size="9.00" fill="#000000">0</text>
</g>
<!-- 1 -->
<g id="node2" class="node">
<title>1</title>
<polygon fill="#d3d3d3" stroke="#000000" points="281.389,-257.9326 261.3771,-257.9326 261.3771,-240.9326 281.389,-240.9326 281.389,-257.9326"/>
<text text-anchor="middle" x="271.383" y="-246.7326" font-family="Times,serif" font-size="9.00" fill="#000000">1</text>
</g>
<!-- 0&#45;&gt;1 -->
<!-- E0 -->
<g id="node4" class="node">
<title>E0</title>
<ellipse fill="#87cefa" stroke="#000000" cx="18.383" cy="-18.383" rx="18.2668" ry="18.2668"/>
<text text-anchor="middle" x="18.383" y="-15.683" font-family="Times,serif" font-size="9.00" fill="#000000">E0</text>
</g>
<!-- 0&#45;&gt;E0 -->
<g id="edge12" class="edge">
<title>0&#45;&gt;E0</title>
<path fill="none" stroke="#00ff00" stroke-width=".5293" d="M221.9812,-248.0844C188.5809,-243.5547 84.8634,-227.8687 61.383,-204.9326 18.6056,-163.1468 14.7177,-87.9495 16.1849,-46.9456"/>
<polygon fill="#00ff00" stroke="#00ff00" stroke-width=".5293" points="19.6873,-46.9803 16.6826,-36.8205 12.6957,-46.6366 19.6873,-46.9803"/>
</g>
<!-- E3 -->
<g id="node7" class="node">
<title>E3</title>
<ellipse fill="#87cefa" stroke="#000000" cx="183.383" cy="-18.383" rx="18.2668" ry="18.2668"/>
<text text-anchor="middle" x="183.383" y="-15.683" font-family="Times,serif" font-size="9.00" fill="#000000">E3</text>
</g>
<!-- 0&#45;&gt;E3 -->
<g id="edge13" class="edge">
<title>0&#45;&gt;E3</title>
<path fill="none" stroke="#ff0000" stroke-width="1.946" d="M230.7771,-240.7365C227.7255,-224.3141 220.818,-187.6227 214.383,-156.8494 206.38,-118.5768 196.3841,-74.5348 189.943,-46.59"/>
<polygon fill="#ff0000" stroke="#ff0000" stroke-width="1.946" points="193.3223,-45.6685 187.66,-36.7137 186.5022,-47.245 193.3223,-45.6685"/>
</g>
<!-- E8 -->
<g id="node12" class="node">
<title>E8</title>
<ellipse fill="#87cefa" stroke="#000000" cx="458.383" cy="-18.383" rx="18.2668" ry="18.2668"/>
<text text-anchor="middle" x="458.383" y="-15.683" font-family="Times,serif" font-size="9.00" fill="#000000">E8</text>
</g>
<!-- 0&#45;&gt;E8 -->
<g id="edge14" class="edge">
<title>0&#45;&gt;E8</title>
<path fill="none" stroke="#00ff00" stroke-width=".5161" d="M239.0928,-240.8579C259.9547,-214.4333 326.0837,-132.4341 389.383,-72.7661 403.6772,-59.292 421.0524,-45.6111 434.7909,-35.3418"/>
<polygon fill="#00ff00" stroke="#00ff00" stroke-width=".5161" points="437.2538,-37.8743 443.225,-29.1224 433.0993,-32.2405 437.2538,-37.8743"/>
</g>
<!-- 2 -->
<g id="node3" class="node">
<title>2</title>
<polygon fill="#d3d3d3" stroke="#000000" points="320.389,-257.9326 300.3771,-257.9326 300.3771,-240.9326 320.389,-240.9326 320.389,-257.9326"/>
<text text-anchor="middle" x="310.383" y="-246.7326" font-family="Times,serif" font-size="9.00" fill="#000000">2</text>
</g>
<!-- 1&#45;&gt;2 -->
<!-- 4513 -->
<g id="node13" class="node">
<title>4513</title>
<ellipse fill="#add8e6" stroke="#000000" cx="70.383" cy="-96.8077" rx="24.0833" ry="24.0833"/>
<text text-anchor="middle" x="70.383" y="-98.6077" font-family="Times,serif" font-size="9.00" fill="#000000">4513</text>
<text text-anchor="middle" x="70.383" y="-89.6077" font-family="Times,serif" font-size="9.00" fill="#000000">sigm</text>
</g>
<!-- 1&#45;&gt;4513 -->
<g id="edge15" class="edge">
<title>1&#45;&gt;4513</title>
<path fill="none" stroke="#00ff00" stroke-width=".7267" d="M261.3506,-244.7238C258.2068,-243.3696 254.6929,-241.9778 251.383,-240.9326 178.1513,-217.8071 133.9229,-261.8653 82.383,-204.9326 64.4958,-185.1737 62.6825,-154.3433 64.6572,-130.6514"/>
<polygon fill="#00ff00" stroke="#00ff00" stroke-width=".7267" points="68.1419,-130.9812 65.743,-120.6615 61.1829,-130.2248 68.1419,-130.9812"/>
</g>
<!-- 2&#45;&gt;E8 -->
<g id="edge11" class="edge">
<title>2&#45;&gt;E8</title>
<path fill="none" stroke="#ff0000" stroke-width="2.182" d="M316.0041,-240.6573C336.881,-208.0654 410.4236,-93.2547 442.8397,-42.6484"/>
<polygon fill="#ff0000" stroke="#ff0000" stroke-width="2.182" points="445.9453,-44.2891 448.392,-33.9806 440.0509,-40.5133 445.9453,-44.2891"/>
</g>
<!-- 5122 -->
<g id="node14" class="node">
<title>5122</title>
<ellipse fill="#add8e6" stroke="#000000" cx="159.383" cy="-96.8077" rx="24.0833" ry="24.0833"/>
<text text-anchor="middle" x="159.383" y="-98.6077" font-family="Times,serif" font-size="9.00" fill="#000000">5122</text>
<text text-anchor="middle" x="159.383" y="-89.6077" font-family="Times,serif" font-size="9.00" fill="#000000">sigm</text>
</g>
<!-- 2&#45;&gt;5122 -->
<g id="edge21" class="edge">
<title>2&#45;&gt;5122</title>
<path fill="none" stroke="#ff0000" stroke-width=".191" d="M301.832,-240.7895C279.3852,-218.1012 218.1436,-156.2006 183.7148,-121.4013"/>
<polygon fill="#ff0000" stroke="#ff0000" stroke-width=".191" points="185.913,-118.6467 176.3917,-113.9994 180.9368,-123.5699 185.913,-118.6467"/>
</g>
<!-- E1 -->
<g id="node5" class="node">
<title>E1</title>
<ellipse fill="#87cefa" stroke="#000000" cx="73.383" cy="-18.383" rx="18.2668" ry="18.2668"/>
<text text-anchor="middle" x="73.383" y="-15.683" font-family="Times,serif" font-size="9.00" fill="#000000">E1</text>
</g>
<!-- E0&#45;&gt;E1 -->
<!-- E2 -->
<g id="node6" class="node">
<title>E2</title>
<ellipse fill="#87cefa" stroke="#000000" cx="128.383" cy="-18.383" rx="18.2668" ry="18.2668"/>
<text text-anchor="middle" x="128.383" y="-15.683" font-family="Times,serif" font-size="9.00" fill="#000000">E2</text>
</g>
<!-- E1&#45;&gt;E2 -->
<!-- E2&#45;&gt;E3 -->
<!-- E4 -->
<g id="node8" class="node">
<title>E4</title>
<ellipse fill="#87cefa" stroke="#000000" cx="238.383" cy="-18.383" rx="18.2668" ry="18.2668"/>
<text text-anchor="middle" x="238.383" y="-15.683" font-family="Times,serif" font-size="9.00" fill="#000000">E4</text>
</g>
<!-- E3&#45;&gt;E4 -->
<!-- E5 -->
<g id="node9" class="node">
<title>E5</title>
<ellipse fill="#87cefa" stroke="#000000" cx="293.383" cy="-18.383" rx="18.2668" ry="18.2668"/>
<text text-anchor="middle" x="293.383" y="-15.683" font-family="Times,serif" font-size="9.00" fill="#000000">E5</text>
</g>
<!-- E4&#45;&gt;E5 -->
<!-- E6 -->
<g id="node10" class="node">
<title>E6</title>
<ellipse fill="#87cefa" stroke="#000000" cx="348.383" cy="-18.383" rx="18.2668" ry="18.2668"/>
<text text-anchor="middle" x="348.383" y="-15.683" font-family="Times,serif" font-size="9.00" fill="#000000">E6</text>
</g>
<!-- E5&#45;&gt;E6 -->
<!-- E7 -->
<g id="node11" class="node">
<title>E7</title>
<ellipse fill="#87cefa" stroke="#000000" cx="403.383" cy="-18.383" rx="18.2668" ry="18.2668"/>
<text text-anchor="middle" x="403.383" y="-15.683" font-family="Times,serif" font-size="9.00" fill="#000000">E7</text>
</g>
<!-- E6&#45;&gt;E7 -->
<!-- E7&#45;&gt;E8 -->
<!-- 4513&#45;&gt;E0 -->
<g id="edge17" class="edge">
<title>4513&#45;&gt;E0</title>
<path fill="none" stroke="#ff0000" stroke-width=".5423" d="M56.9918,-76.6114C50.127,-66.2582 41.7149,-53.5713 34.4971,-42.6857"/>
<polygon fill="#ff0000" stroke="#ff0000" stroke-width=".5423" points="37.2184,-40.4564 28.7752,-34.0561 31.3844,-44.3247 37.2184,-40.4564"/>
</g>
<!-- 4513&#45;&gt;E1 -->
<g id="edge16" class="edge">
<title>4513&#45;&gt;E1</title>
<path fill="none" stroke="#ff0000" stroke-width="2.076" d="M71.3158,-72.4236C71.6254,-64.33 71.9728,-55.248 72.2932,-46.8729"/>
<polygon fill="#ff0000" stroke="#ff0000" stroke-width="2.076" points="75.7948,-46.8967 72.6797,-36.7702 68.7999,-46.629 75.7948,-46.8967"/>
</g>
<!-- 5122&#45;&gt;E2 -->
<g id="edge19" class="edge">
<title>5122&#45;&gt;E2</title>
<path fill="none" stroke="#00ff00" stroke-width=".4958" d="M150.4166,-74.1241C146.8067,-64.9917 142.6181,-54.3952 138.8683,-44.909"/>
<polygon fill="#00ff00" stroke="#00ff00" stroke-width=".4958" points="142.0932,-43.5463 135.1622,-35.5331 135.5834,-46.1196 142.0932,-43.5463"/>
</g>
<!-- 4898 -->
<g id="node15" class="node">
<title>4898</title>
<ellipse fill="#add8e6" stroke="#000000" cx="115.383" cy="-180.891" rx="24.0833" ry="24.0833"/>
<text text-anchor="middle" x="115.383" y="-182.691" font-family="Times,serif" font-size="9.00" fill="#000000">4898</text>
<text text-anchor="middle" x="115.383" y="-173.691" font-family="Times,serif" font-size="9.00" fill="#000000">sigm</text>
</g>
<!-- 4898&#45;&gt;5122 -->
<g id="edge18" class="edge">
<title>4898&#45;&gt;5122</title>
<path fill="none" stroke="#00ff00" stroke-width=".2491" d="M126.7141,-159.2375C131.7951,-149.5278 137.8779,-137.9037 143.4098,-127.3323"/>
<polygon fill="#00ff00" stroke="#00ff00" stroke-width=".2491" points="146.5549,-128.8709 148.0904,-118.3879 140.3528,-125.6253 146.5549,-128.8709"/>
</g>
<!-- 5300 -->
<g id="node16" class="node">
<title>5300</title>
<ellipse fill="#add8e6" stroke="#000000" cx="181.383" cy="-180.891" rx="24.0833" ry="24.0833"/>
<text text-anchor="middle" x="181.383" y="-182.691" font-family="Times,serif" font-size="9.00" fill="#000000">5300</text>
<text text-anchor="middle" x="181.383" y="-173.691" font-family="Times,serif" font-size="9.00" fill="#000000">sigm</text>
</g>
<!-- 5300&#45;&gt;5122 -->
<g id="edge20" class="edge">
<title>5300&#45;&gt;5122</title>
<path fill="none" stroke="#00ff00" stroke-width=".3155" d="M175.2548,-157.4691C173.014,-148.9046 170.4351,-139.0482 168.0164,-129.8042"/>
<polygon fill="#00ff00" stroke="#00ff00" stroke-width=".3155" points="171.3958,-128.8924 165.4784,-120.104 164.6237,-130.6643 171.3958,-128.8924"/>
</g>
</g>
</svg>
