<?xml version="1.0" encoding="UTF-8" standalone="no"?>
<!DOCTYPE svg PUBLIC "-//W3C//DTD SVG 1.1//EN"
 "http://www.w3.org/Graphics/SVG/1.1/DTD/svg11.dtd">
<!-- Generated by graphviz version 2.40.1 (20161225.0304)
 -->
<!-- Title: %3 Pages: 1 -->
<svg width="442pt" height="175pt"
 viewBox="0.00 0.00 442.04 174.79" xmlns="http://www.w3.org/2000/svg" xmlns:xlink="http://www.w3.org/1999/xlink">
<g id="graph0" class="graph" transform="scale(1 1) rotate(0) translate(4 170.7893)">
<title>%3</title>
<polygon fill="#ffffff" stroke="transparent" points="-4,4 -4,-170.7893 438.0404,-170.7893 438.0404,4 -4,4"/>
<!-- E0 -->
<g id="node1" class="node">
<title>E0</title>
<polygon fill="#d3d3d3" stroke="#000000" points="25.9963,-166.7893 .0012,-166.7893 .0012,-149.7893 25.9963,-149.7893 25.9963,-166.7893"/>
<text text-anchor="middle" x="12.9988" y="-155.5893" font-family="Times,serif" font-size="9.00" fill="#000000">E0</text>
</g>
<!-- E1 -->
<g id="node2" class="node">
<title>E1</title>
<polygon fill="#d3d3d3" stroke="#000000" points="69.9963,-166.7893 44.0012,-166.7893 44.0012,-149.7893 69.9963,-149.7893 69.9963,-166.7893"/>
<text text-anchor="middle" x="56.9988" y="-155.5893" font-family="Times,serif" font-size="9.00" fill="#000000">E1</text>
</g>
<!-- E0&#45;&gt;E1 -->
<!-- 2 -->
<g id="node12" class="node">
<title>2</title>
<ellipse fill="#ffa07a" stroke="#000000" cx="243.9988" cy="-14.853" rx="14.4914" ry="14.4914"/>
<text text-anchor="middle" x="243.9988" y="-12.153" font-family="Times,serif" font-size="9.00" fill="#000000">2</text>
</g>
<!-- E0&#45;&gt;2 -->
<g id="edge17" class="edge">
<title>E0&#45;&gt;2</title>
<path fill="none" stroke="#00ff00" stroke-width=".1056" d="M26.4454,-152.9402C29.2594,-151.8642 32.2168,-150.765 34.9988,-149.7893 85.138,-132.2061 103.8631,-141.8229 148.9988,-113.7893 182.5721,-92.9372 212.5429,-57.5384 229.4711,-35.219"/>
<polygon fill="#00ff00" stroke="#00ff00" stroke-width=".1056" points="232.3562,-37.2042 235.5008,-27.0868 226.7333,-33.0349 232.3562,-37.2042"/>
</g>
<!-- S -->
<g id="node13" class="node">
<title>S</title>
<ellipse fill="#ffa07a" stroke="#000000" cx="304.9988" cy="-14.853" rx="14.7075" ry="14.7075"/>
<text text-anchor="middle" x="304.9988" y="-12.153" font-family="Times,serif" font-size="9.00" fill="#000000">S</text>
</g>
<!-- E0&#45;&gt;S -->
<g id="edge13" class="edge">
<title>E0&#45;&gt;S</title>
<path fill="none" stroke="#00ff00" stroke-width="2.0661" d="M26.3899,-152.7717C29.208,-151.7078 32.181,-150.6562 34.9988,-149.7893 102.5948,-128.9939 126.9234,-145.7765 189.9988,-113.7893 229.9562,-93.5259 267.5889,-56.5071 288.3433,-33.9478"/>
<polygon fill="#00ff00" stroke="#00ff00" stroke-width="2.0661" points="291.0993,-36.118 295.1991,-26.3485 285.9018,-31.429 291.0993,-36.118"/>
</g>
<!-- E2 -->
<g id="node3" class="node">
<title>E2</title>
<polygon fill="#d3d3d3" stroke="#000000" points="113.9963,-166.7893 88.0012,-166.7893 88.0012,-149.7893 113.9963,-149.7893 113.9963,-166.7893"/>
<text text-anchor="middle" x="100.9988" y="-155.5893" font-family="Times,serif" font-size="9.00" fill="#000000">E2</text>
</g>
<!-- E1&#45;&gt;E2 -->
<!-- 1 -->
<g id="node11" class="node">
<title>1</title>
<ellipse fill="#87cefa" stroke="#000000" cx="179.9988" cy="-14.853" rx="14.4914" ry="14.4914"/>
<text text-anchor="middle" x="179.9988" y="-12.153" font-family="Times,serif" font-size="9.00" fill="#000000">1</text>
</g>
<!-- E1&#45;&gt;1 -->
<g id="edge14" class="edge">
<title>E1&#45;&gt;1</title>
<path fill="none" stroke="#ff0000" stroke-width="1.9128" d="M57.2196,-149.6062C58.103,-131.8955 62.4012,-91.1328 82.9988,-65.7061 93.0365,-53.3149 131.563,-35.3301 156.9366,-24.4012"/>
<polygon fill="#ff0000" stroke="#ff0000" stroke-width="1.9128" points="158.409,-27.5786 166.2484,-20.4516 155.6756,-21.1343 158.409,-27.5786"/>
</g>
<!-- E1&#45;&gt;S -->
<g id="edge16" class="edge">
<title>E1&#45;&gt;S</title>
<path fill="none" stroke="#00ff00" stroke-width=".3184" d="M70.3493,-152.6317C73.1703,-151.578 76.1548,-150.5659 78.9988,-149.7893 126.1539,-136.9138 262.731,-149.6033 295.9988,-113.7893 314.2572,-94.1334 313.6505,-61.8379 310.363,-39.5192"/>
<polygon fill="#00ff00" stroke="#00ff00" stroke-width=".3184" points="313.7749,-38.7109 308.6047,-29.4633 306.8795,-39.9167 313.7749,-38.7109"/>
</g>
<!-- E3 -->
<g id="node4" class="node">
<title>E3</title>
<polygon fill="#d3d3d3" stroke="#000000" points="157.9963,-166.7893 132.0012,-166.7893 132.0012,-149.7893 157.9963,-149.7893 157.9963,-166.7893"/>
<text text-anchor="middle" x="144.9988" y="-155.5893" font-family="Times,serif" font-size="9.00" fill="#000000">E3</text>
</g>
<!-- E2&#45;&gt;E3 -->
<!-- E4 -->
<g id="node5" class="node">
<title>E4</title>
<polygon fill="#d3d3d3" stroke="#000000" points="201.9963,-166.7893 176.0012,-166.7893 176.0012,-149.7893 201.9963,-149.7893 201.9963,-166.7893"/>
<text text-anchor="middle" x="188.9988" y="-155.5893" font-family="Times,serif" font-size="9.00" fill="#000000">E4</text>
</g>
<!-- E3&#45;&gt;E4 -->
<!-- 0 -->
<g id="node10" class="node">
<title>0</title>
<ellipse fill="#eee8aa" stroke="#000000" cx="115.9988" cy="-14.853" rx="14.4914" ry="14.4914"/>
<text text-anchor="middle" x="115.9988" y="-12.153" font-family="Times,serif" font-size="9.00" fill="#000000">0</text>
</g>
<!-- E3&#45;&gt;0 -->
<g id="edge15" class="edge">
<title>E3&#45;&gt;0</title>
<path fill="none" stroke="#ff0000" stroke-width="1.5249" d="M131.9261,-153.2666C116.9674,-146.7231 93.222,-133.7109 82.9988,-113.7893 73.2418,-94.7764 76.9327,-86.1974 82.9988,-65.7061 86.3597,-54.3529 93.1396,-43.1574 99.6845,-34.1735"/>
<polygon fill="#ff0000" stroke="#ff0000" stroke-width="1.5249" points="102.6572,-36.0513 106.0157,-26.0029 97.1239,-31.7637 102.6572,-36.0513"/>
</g>
<!-- E5 -->
<g id="node6" class="node">
<title>E5</title>
<polygon fill="#d3d3d3" stroke="#000000" points="245.9963,-166.7893 220.0012,-166.7893 220.0012,-149.7893 245.9963,-149.7893 245.9963,-166.7893"/>
<text text-anchor="middle" x="232.9988" y="-155.5893" font-family="Times,serif" font-size="9.00" fill="#000000">E5</text>
</g>
<!-- E4&#45;&gt;E5 -->
<!-- E6 -->
<g id="node7" class="node">
<title>E6</title>
<polygon fill="#d3d3d3" stroke="#000000" points="289.9963,-166.7893 264.0012,-166.7893 264.0012,-149.7893 289.9963,-149.7893 289.9963,-166.7893"/>
<text text-anchor="middle" x="276.9988" y="-155.5893" font-family="Times,serif" font-size="9.00" fill="#000000">E6</text>
</g>
<!-- E5&#45;&gt;E6 -->
<!-- E7 -->
<g id="node8" class="node">
<title>E7</title>
<polygon fill="#d3d3d3" stroke="#000000" points="333.9963,-166.7893 308.0012,-166.7893 308.0012,-149.7893 333.9963,-149.7893 333.9963,-166.7893"/>
<text text-anchor="middle" x="320.9988" y="-155.5893" font-family="Times,serif" font-size="9.00" fill="#000000">E7</text>
</g>
<!-- E6&#45;&gt;E7 -->
<!-- E8 -->
<g id="node9" class="node">
<title>E8</title>
<polygon fill="#d3d3d3" stroke="#000000" points="377.9963,-166.7893 352.0012,-166.7893 352.0012,-149.7893 377.9963,-149.7893 377.9963,-166.7893"/>
<text text-anchor="middle" x="364.9988" y="-155.5893" font-family="Times,serif" font-size="9.00" fill="#000000">E8</text>
</g>
<!-- E7&#45;&gt;E8 -->
<!-- E7&#45;&gt;1 -->
<g id="edge21" class="edge">
<title>E7&#45;&gt;1</title>
<path fill="none" stroke="#00ff00" stroke-width=".5013" d="M309.88,-149.482C299.0954,-140.7776 282.4371,-126.8993 268.9988,-113.7893 241.9638,-87.4151 213.164,-54.3803 195.8777,-33.9465"/>
<polygon fill="#00ff00" stroke="#00ff00" stroke-width=".5013" points="198.5372,-31.6709 189.4232,-26.2686 193.179,-36.1754 198.5372,-31.6709"/>
</g>
<!-- E7&#45;&gt;2 -->
<g id="edge18" class="edge">
<title>E7&#45;&gt;2</title>
<path fill="none" stroke="#00ff00" stroke-width=".3263" d="M316.4127,-149.7463C304.6763,-127.8836 273.2595,-69.3602 255.9133,-37.0474"/>
<polygon fill="#00ff00" stroke="#00ff00" stroke-width=".3263" points="258.8327,-35.0857 251.019,-27.9304 252.6651,-38.3966 258.8327,-35.0857"/>
</g>
<!-- 5354 -->
<g id="node14" class="node">
<title>5354</title>
<ellipse fill="#add8e6" stroke="#000000" cx="115.9988" cy="-89.7477" rx="24.0833" ry="24.0833"/>
<text text-anchor="middle" x="115.9988" y="-91.5477" font-family="Times,serif" font-size="9.00" fill="#000000">5354</text>
<text text-anchor="middle" x="115.9988" y="-82.5477" font-family="Times,serif" font-size="9.00" fill="#000000">sigm</text>
</g>
<!-- E7&#45;&gt;5354 -->
<g id="edge19" class="edge">
<title>E7&#45;&gt;5354</title>
<path fill="none" stroke="#00ff00" stroke-width=".2769" d="M307.5437,-152.9643C304.7303,-151.8864 301.7753,-150.7805 298.9988,-149.7893 270.9521,-139.7778 193.3379,-114.6298 148.7128,-100.2563"/>
<polygon fill="#00ff00" stroke="#00ff00" stroke-width=".2769" points="149.5156,-96.8379 138.9242,-97.1058 147.3709,-103.5013 149.5156,-96.8379"/>
</g>
<!-- E8&#45;&gt;2 -->
<g id="edge12" class="edge">
<title>E8&#45;&gt;2</title>
<path fill="none" stroke="#ff0000" stroke-width="2.2306" d="M359.5834,-149.7163C348.7821,-132.8803 323.4059,-94.6206 297.9988,-65.7061 287.1609,-53.3721 273.7239,-40.7098 262.965,-31.1056"/>
<polygon fill="#ff0000" stroke="#ff0000" stroke-width="2.2306" points="265.1698,-28.3838 255.347,-24.4135 260.5499,-33.6428 265.1698,-28.3838"/>
</g>
<!-- 5517 -->
<g id="node15" class="node">
<title>5517</title>
<ellipse fill="#add8e6" stroke="#000000" cx="409.9988" cy="-89.7477" rx="24.0833" ry="24.0833"/>
<text text-anchor="middle" x="409.9988" y="-91.5477" font-family="Times,serif" font-size="9.00" fill="#000000">5517</text>
<text text-anchor="middle" x="409.9988" y="-82.5477" font-family="Times,serif" font-size="9.00" fill="#000000">sigm</text>
</g>
<!-- E8&#45;&gt;5517 -->
<g id="edge22" class="edge">
<title>E8&#45;&gt;5517</title>
<path fill="none" stroke="#00ff00" stroke-width=".2025" d="M370.6981,-149.6085C375.8113,-141.8203 383.614,-129.9356 390.9231,-118.8028"/>
<polygon fill="#00ff00" stroke="#00ff00" stroke-width=".2025" points="394.0557,-120.4086 396.6182,-110.1283 388.2041,-116.5668 394.0557,-120.4086"/>
</g>
<!-- 0&#45;&gt;1 -->
<!-- 1&#45;&gt;2 -->
<!-- 2&#45;&gt;S -->
<!-- 5354&#45;&gt;0 -->
<g id="edge20" class="edge">
<title>5354&#45;&gt;0</title>
<path fill="none" stroke="#ff0000" stroke-width=".1407" d="M115.9988,-65.6383C115.9988,-57.432 115.9988,-48.2428 115.9988,-39.9602"/>
<polygon fill="#ff0000" stroke="#ff0000" stroke-width=".1407" points="119.4989,-39.7533 115.9988,-29.7534 112.4989,-39.7534 119.4989,-39.7533"/>
</g>
<!-- 5517&#45;&gt;S -->
<g id="edge23" class="edge">
<title>5517&#45;&gt;S</title>
<path fill="none" stroke="#00ff00" stroke-width=".8569" d="M390.2491,-75.6606C371.6842,-62.4186 344.0223,-42.6878 325.2847,-29.3226"/>
<polygon fill="#00ff00" stroke="#00ff00" stroke-width=".8569" points="327.299,-26.4603 317.1253,-23.5027 323.2341,-32.1591 327.299,-26.4603"/>
</g>
</g>
</svg>
