<?xml version="1.0" encoding="UTF-8" standalone="no"?>
<!DOCTYPE svg PUBLIC "-//W3C//DTD SVG 1.1//EN"
 "http://www.w3.org/Graphics/SVG/1.1/DTD/svg11.dtd">
<!-- Generated by graphviz version 2.40.1 (20161225.0304)
 -->
<!-- Title: %3 Pages: 1 -->
<svg width="485pt" height="266pt"
 viewBox="0.00 0.00 484.77 265.93" xmlns="http://www.w3.org/2000/svg" xmlns:xlink="http://www.w3.org/1999/xlink">
<g id="graph0" class="graph" transform="scale(1 1) rotate(0) translate(4 261.9326)">
<title>%3</title>
<polygon fill="#ffffff" stroke="transparent" points="-4,4 -4,-261.9326 480.7661,-261.9326 480.7661,4 -4,4"/>
<!-- 0 -->
<g id="node1" class="node">
<title>0</title>
<polygon fill="#d3d3d3" stroke="#000000" points="268.389,-257.9326 248.3771,-257.9326 248.3771,-240.9326 268.389,-240.9326 268.389,-257.9326"/>
<text text-anchor="middle" x="258.383" y="-246.7326" font-family="Times,serif" font-size="9.00" fill="#000000">0</text>
</g>
<!-- 1 -->
<g id="node2" class="node">
<title>1</title>
<polygon fill="#d3d3d3" stroke="#000000" points="307.389,-257.9326 287.3771,-257.9326 287.3771,-240.9326 307.389,-240.9326 307.389,-257.9326"/>
<text text-anchor="middle" x="297.383" y="-246.7326" font-family="Times,serif" font-size="9.00" fill="#000000">1</text>
</g>
<!-- 0&#45;&gt;1 -->
<!-- E6 -->
<g id="node10" class="node">
<title>E6</title>
<ellipse fill="#87cefa" stroke="#000000" cx="348.383" cy="-18.383" rx="18.2668" ry="18.2668"/>
<text text-anchor="middle" x="348.383" y="-15.683" font-family="Times,serif" font-size="9.00" fill="#000000">E6</text>
</g>
<!-- 0&#45;&gt;E6 -->
<g id="edge13" class="edge">
<title>0&#45;&gt;E6</title>
<path fill="none" stroke="#ff0000" stroke-width="1.6964" d="M264.0472,-240.7825C277.0054,-220.6127 309.0271,-168.5482 326.383,-120.8494 335.1775,-96.6797 340.9676,-67.9595 344.3898,-47.0837"/>
<polygon fill="#ff0000" stroke="#ff0000" stroke-width="1.6964" points="347.8878,-47.367 345.9669,-36.9477 340.971,-46.2907 347.8878,-47.367"/>
</g>
<!-- 2 -->
<g id="node3" class="node">
<title>2</title>
<polygon fill="#d3d3d3" stroke="#000000" points="346.389,-257.9326 326.3771,-257.9326 326.3771,-240.9326 346.389,-240.9326 346.389,-257.9326"/>
<text text-anchor="middle" x="336.383" y="-246.7326" font-family="Times,serif" font-size="9.00" fill="#000000">2</text>
</g>
<!-- 1&#45;&gt;2 -->
<!-- E4 -->
<g id="node8" class="node">
<title>E4</title>
<ellipse fill="#87cefa" stroke="#000000" cx="238.383" cy="-18.383" rx="18.2668" ry="18.2668"/>
<text text-anchor="middle" x="238.383" y="-15.683" font-family="Times,serif" font-size="9.00" fill="#000000">E4</text>
</g>
<!-- 1&#45;&gt;E4 -->
<g id="edge11" class="edge">
<title>1&#45;&gt;E4</title>
<path fill="none" stroke="#ff0000" stroke-width="1.7095" d="M294.663,-240.7577C288.2376,-220.1084 271.8027,-166.3618 260.383,-120.8494 254.1236,-95.9028 248.0689,-67.2636 243.9014,-46.6163"/>
<polygon fill="#ff0000" stroke="#ff0000" stroke-width="1.7095" points="247.2937,-45.7303 241.903,-36.6094 240.4292,-47.1012 247.2937,-45.7303"/>
</g>
<!-- E1 -->
<g id="node5" class="node">
<title>E1</title>
<ellipse fill="#87cefa" stroke="#000000" cx="73.383" cy="-18.383" rx="18.2668" ry="18.2668"/>
<text text-anchor="middle" x="73.383" y="-15.683" font-family="Times,serif" font-size="9.00" fill="#000000">E1</text>
</g>
<!-- 2&#45;&gt;E1 -->
<g id="edge14" class="edge">
<title>2&#45;&gt;E1</title>
<path fill="none" stroke="#ff0000" stroke-width=".7273" d="M325.969,-244.4461C322.9326,-243.1468 319.5726,-241.8543 316.383,-240.9326 220.3567,-213.1829 163.3218,-277.3105 94.383,-204.9326 53.8366,-162.3634 60.0032,-87.1658 67.1841,-46.4554"/>
<polygon fill="#ff0000" stroke="#ff0000" stroke-width=".7273" points="70.6634,-46.8945 69.1008,-36.4156 63.7875,-45.5818 70.6634,-46.8945"/>
</g>
<!-- E7 -->
<g id="node11" class="node">
<title>E7</title>
<ellipse fill="#87cefa" stroke="#000000" cx="403.383" cy="-18.383" rx="18.2668" ry="18.2668"/>
<text text-anchor="middle" x="403.383" y="-15.683" font-family="Times,serif" font-size="9.00" fill="#000000">E7</text>
</g>
<!-- 2&#45;&gt;E7 -->
<g id="edge12" class="edge">
<title>2&#45;&gt;E7</title>
<path fill="none" stroke="#00ff00" stroke-width="2.0876" d="M341.8864,-240.8965C347.2918,-232.1713 355.428,-218.0737 360.383,-204.9326 380.8214,-150.7286 393.3616,-83.8594 399.2843,-46.6968"/>
<polygon fill="#00ff00" stroke="#00ff00" stroke-width="2.0876" points="402.7762,-47.0183 400.8461,-36.6007 395.8584,-45.9481 402.7762,-47.0183"/>
</g>
<!-- E0 -->
<g id="node4" class="node">
<title>E0</title>
<ellipse fill="#87cefa" stroke="#000000" cx="18.383" cy="-18.383" rx="18.2668" ry="18.2668"/>
<text text-anchor="middle" x="18.383" y="-15.683" font-family="Times,serif" font-size="9.00" fill="#000000">E0</text>
</g>
<!-- E0&#45;&gt;E1 -->
<!-- E2 -->
<g id="node6" class="node">
<title>E2</title>
<ellipse fill="#87cefa" stroke="#000000" cx="128.383" cy="-18.383" rx="18.2668" ry="18.2668"/>
<text text-anchor="middle" x="128.383" y="-15.683" font-family="Times,serif" font-size="9.00" fill="#000000">E2</text>
</g>
<!-- E1&#45;&gt;E2 -->
<!-- E3 -->
<g id="node7" class="node">
<title>E3</title>
<ellipse fill="#87cefa" stroke="#000000" cx="183.383" cy="-18.383" rx="18.2668" ry="18.2668"/>
<text text-anchor="middle" x="183.383" y="-15.683" font-family="Times,serif" font-size="9.00" fill="#000000">E3</text>
</g>
<!-- E2&#45;&gt;E3 -->
<!-- E3&#45;&gt;E4 -->
<!-- E5 -->
<g id="node9" class="node">
<title>E5</title>
<ellipse fill="#87cefa" stroke="#000000" cx="293.383" cy="-18.383" rx="18.2668" ry="18.2668"/>
<text text-anchor="middle" x="293.383" y="-15.683" font-family="Times,serif" font-size="9.00" fill="#000000">E5</text>
</g>
<!-- E4&#45;&gt;E5 -->
<!-- E5&#45;&gt;E6 -->
<!-- E6&#45;&gt;E7 -->
<!-- E8 -->
<g id="node12" class="node">
<title>E8</title>
<ellipse fill="#87cefa" stroke="#000000" cx="458.383" cy="-18.383" rx="18.2668" ry="18.2668"/>
<text text-anchor="middle" x="458.383" y="-15.683" font-family="Times,serif" font-size="9.00" fill="#000000">E8</text>
</g>
<!-- E7&#45;&gt;E8 -->
<!-- 4609 -->
<g id="node13" class="node">
<title>4609</title>
<ellipse fill="#add8e6" stroke="#000000" cx="293.383" cy="-96.8077" rx="24.0833" ry="24.0833"/>
<text text-anchor="middle" x="293.383" y="-98.6077" font-family="Times,serif" font-size="9.00" fill="#000000">4609</text>
<text text-anchor="middle" x="293.383" y="-89.6077" font-family="Times,serif" font-size="9.00" fill="#000000">sigm</text>
</g>
<!-- 4609&#45;&gt;E5 -->
<g id="edge15" class="edge">
<title>4609&#45;&gt;E5</title>
<path fill="none" stroke="#ff0000" stroke-width=".2582" d="M293.383,-72.4236C293.383,-64.33 293.383,-55.248 293.383,-46.8729"/>
<polygon fill="#ff0000" stroke="#ff0000" stroke-width=".2582" points="296.8831,-46.7701 293.383,-36.7702 289.8831,-46.7702 296.8831,-46.7701"/>
</g>
<!-- 4955 -->
<g id="node14" class="node">
<title>4955</title>
<ellipse fill="#add8e6" stroke="#000000" cx="146.383" cy="-96.8077" rx="24.0833" ry="24.0833"/>
<text text-anchor="middle" x="146.383" y="-98.6077" font-family="Times,serif" font-size="9.00" fill="#000000">4955</text>
<text text-anchor="middle" x="146.383" y="-89.6077" font-family="Times,serif" font-size="9.00" fill="#000000">sigm</text>
</g>
<!-- 4955&#45;&gt;E2 -->
<g id="edge17" class="edge">
<title>4955&#45;&gt;E2</title>
<path fill="none" stroke="#ff0000" stroke-width=".54" d="M140.9825,-73.2777C139.0324,-64.7814 136.8124,-55.1091 134.7848,-46.2751"/>
<polygon fill="#ff0000" stroke="#ff0000" stroke-width=".54" points="138.1691,-45.3742 132.5207,-36.4106 131.3465,-46.9402 138.1691,-45.3742"/>
</g>
<!-- 4339 -->
<g id="node15" class="node">
<title>4339</title>
<ellipse fill="#add8e6" stroke="#000000" cx="127.383" cy="-180.891" rx="24.0833" ry="24.0833"/>
<text text-anchor="middle" x="127.383" y="-182.691" font-family="Times,serif" font-size="9.00" fill="#000000">4339</text>
<text text-anchor="middle" x="127.383" y="-173.691" font-family="Times,serif" font-size="9.00" fill="#000000">sigm</text>
</g>
<!-- 4339&#45;&gt;E1 -->
<g id="edge16" class="edge">
<title>4339&#45;&gt;E1</title>
<path fill="none" stroke="#00ff00" stroke-width=".6392" d="M119.7607,-157.9522C109.9919,-128.5539 93.0702,-77.6296 82.5917,-46.0955"/>
<polygon fill="#00ff00" stroke="#00ff00" stroke-width=".6392" points="85.7796,-44.5899 79.3047,-36.2038 79.1368,-46.7973 85.7796,-44.5899"/>
</g>
<!-- 4339&#45;&gt;4955 -->
<g id="edge18" class="edge">
<title>4339&#45;&gt;4955</title>
<path fill="none" stroke="#ff0000" stroke-width=".6897" d="M132.7769,-157.021C134.6581,-148.6958 136.8053,-139.1935 138.8294,-130.2361"/>
<polygon fill="#ff0000" stroke="#ff0000" stroke-width=".6897" points="142.2513,-130.9719 141.0415,-120.4464 135.4234,-129.429 142.2513,-130.9719"/>
</g>
</g>
</svg>
