<?xml version="1.0" encoding="UTF-8" standalone="no"?>
<!DOCTYPE svg PUBLIC "-//W3C//DTD SVG 1.1//EN"
 "http://www.w3.org/Graphics/SVG/1.1/DTD/svg11.dtd">
<!-- Generated by graphviz version 2.40.1 (20161225.0304)
 -->
<!-- Title: %3 Pages: 1 -->
<svg width="386pt" height="91pt"
 viewBox="0.00 0.00 386.00 90.71" xmlns="http://www.w3.org/2000/svg" xmlns:xlink="http://www.w3.org/1999/xlink">
<g id="graph0" class="graph" transform="scale(1 1) rotate(0) translate(4 86.7061)">
<title>%3</title>
<polygon fill="#ffffff" stroke="transparent" points="-4,4 -4,-86.7061 381.9976,-86.7061 381.9976,4 -4,4"/>
<!-- E0 -->
<g id="node1" class="node">
<title>E0</title>
<polygon fill="#d3d3d3" stroke="#000000" points="25.9963,-82.7061 .0012,-82.7061 .0012,-65.7061 25.9963,-65.7061 25.9963,-82.7061"/>
<text text-anchor="middle" x="12.9988" y="-71.5061" font-family="Times,serif" font-size="9.00" fill="#000000">E0</text>
</g>
<!-- E1 -->
<g id="node2" class="node">
<title>E1</title>
<polygon fill="#d3d3d3" stroke="#000000" points="69.9963,-82.7061 44.0012,-82.7061 44.0012,-65.7061 69.9963,-65.7061 69.9963,-82.7061"/>
<text text-anchor="middle" x="56.9988" y="-71.5061" font-family="Times,serif" font-size="9.00" fill="#000000">E1</text>
</g>
<!-- E0&#45;&gt;E1 -->
<!-- E2 -->
<g id="node3" class="node">
<title>E2</title>
<polygon fill="#d3d3d3" stroke="#000000" points="113.9963,-82.7061 88.0012,-82.7061 88.0012,-65.7061 113.9963,-65.7061 113.9963,-82.7061"/>
<text text-anchor="middle" x="100.9988" y="-71.5061" font-family="Times,serif" font-size="9.00" fill="#000000">E2</text>
</g>
<!-- E1&#45;&gt;E2 -->
<!-- S -->
<g id="node13" class="node">
<title>S</title>
<ellipse fill="#add8e6" stroke="#000000" cx="285.9988" cy="-14.853" rx="14.7075" ry="14.7075"/>
<text text-anchor="middle" x="285.9988" y="-12.153" font-family="Times,serif" font-size="9.00" fill="#000000">S</text>
</g>
<!-- E1&#45;&gt;S -->
<g id="edge12" class="edge">
<title>E1&#45;&gt;S</title>
<path fill="none" stroke="#ff0000" stroke-width=".8057" d="M70.3677,-68.6141C73.1874,-67.5556 76.1667,-66.525 78.9988,-65.7061 158.629,-42.6814 184.8431,-60.0064 261.9988,-29.7061 262.8768,-29.3613 263.7584,-28.9844 264.6382,-28.5821"/>
<polygon fill="#ff0000" stroke="#ff0000" stroke-width=".8057" points="266.6429,-31.4753 273.7425,-23.611 263.2883,-25.3314 266.6429,-31.4753"/>
</g>
<!-- E3 -->
<g id="node4" class="node">
<title>E3</title>
<polygon fill="#d3d3d3" stroke="#000000" points="157.9963,-82.7061 132.0012,-82.7061 132.0012,-65.7061 157.9963,-65.7061 157.9963,-82.7061"/>
<text text-anchor="middle" x="144.9988" y="-71.5061" font-family="Times,serif" font-size="9.00" fill="#000000">E3</text>
</g>
<!-- E2&#45;&gt;E3 -->
<!-- 1 -->
<g id="node11" class="node">
<title>1</title>
<ellipse fill="#add8e6" stroke="#000000" cx="191.9988" cy="-14.853" rx="14.4914" ry="14.4914"/>
<text text-anchor="middle" x="191.9988" y="-12.153" font-family="Times,serif" font-size="9.00" fill="#000000">1</text>
</g>
<!-- E2&#45;&gt;1 -->
<g id="edge14" class="edge">
<title>E2&#45;&gt;1</title>
<path fill="none" stroke="#ff0000" stroke-width="2.8182" d="M114.0369,-65.7022C129.0192,-55.9303 153.8,-39.7675 171.3988,-28.289"/>
<polygon fill="#ff0000" stroke="#ff0000" stroke-width="2.8182" points="173.3935,-31.1667 179.8573,-22.7721 169.5694,-25.3036 173.3935,-31.1667"/>
</g>
<!-- E4 -->
<g id="node5" class="node">
<title>E4</title>
<polygon fill="#d3d3d3" stroke="#000000" points="201.9963,-82.7061 176.0012,-82.7061 176.0012,-65.7061 201.9963,-65.7061 201.9963,-82.7061"/>
<text text-anchor="middle" x="188.9988" y="-71.5061" font-family="Times,serif" font-size="9.00" fill="#000000">E4</text>
</g>
<!-- E3&#45;&gt;E4 -->
<!-- 0 -->
<g id="node10" class="node">
<title>0</title>
<ellipse fill="#add8e6" stroke="#000000" cx="144.9988" cy="-14.853" rx="14.4914" ry="14.4914"/>
<text text-anchor="middle" x="144.9988" y="-12.153" font-family="Times,serif" font-size="9.00" fill="#000000">0</text>
</g>
<!-- E3&#45;&gt;0 -->
<g id="edge19" class="edge">
<title>E3&#45;&gt;0</title>
<path fill="none" stroke="#ff0000" stroke-width=".239" d="M144.9988,-65.7022C144.9988,-58.9749 144.9988,-49.2187 144.9988,-40.0472"/>
<polygon fill="#ff0000" stroke="#ff0000" stroke-width=".239" points="148.4989,-39.7656 144.9988,-29.7657 141.4989,-39.7657 148.4989,-39.7656"/>
</g>
<!-- 2 -->
<g id="node12" class="node">
<title>2</title>
<ellipse fill="#add8e6" stroke="#000000" cx="238.9988" cy="-14.853" rx="14.4914" ry="14.4914"/>
<text text-anchor="middle" x="238.9988" y="-12.153" font-family="Times,serif" font-size="9.00" fill="#000000">2</text>
</g>
<!-- E3&#45;&gt;2 -->
<g id="edge20" class="edge">
<title>E3&#45;&gt;2</title>
<path fill="none" stroke="#00ff00" stroke-width=".1013" d="M158.0691,-65.9533C173.605,-56.1437 199.7319,-39.6468 218.0878,-28.0566"/>
<polygon fill="#00ff00" stroke="#00ff00" stroke-width=".1013" points="220.0506,-30.9566 226.6375,-22.6582 216.3133,-25.0377 220.0506,-30.9566"/>
</g>
<!-- E5 -->
<g id="node6" class="node">
<title>E5</title>
<polygon fill="#d3d3d3" stroke="#000000" points="245.9963,-82.7061 220.0012,-82.7061 220.0012,-65.7061 245.9963,-65.7061 245.9963,-82.7061"/>
<text text-anchor="middle" x="232.9988" y="-71.5061" font-family="Times,serif" font-size="9.00" fill="#000000">E5</text>
</g>
<!-- E4&#45;&gt;E5 -->
<!-- E6 -->
<g id="node7" class="node">
<title>E6</title>
<polygon fill="#d3d3d3" stroke="#000000" points="289.9963,-82.7061 264.0012,-82.7061 264.0012,-65.7061 289.9963,-65.7061 289.9963,-82.7061"/>
<text text-anchor="middle" x="276.9988" y="-71.5061" font-family="Times,serif" font-size="9.00" fill="#000000">E6</text>
</g>
<!-- E5&#45;&gt;E6 -->
<!-- E5&#45;&gt;0 -->
<g id="edge15" class="edge">
<title>E5&#45;&gt;0</title>
<path fill="none" stroke="#ff0000" stroke-width="1.9977" d="M220.3905,-65.7022C206.1152,-56.074 182.6412,-40.2416 165.6751,-28.7985"/>
<polygon fill="#ff0000" stroke="#ff0000" stroke-width="1.9977" points="167.2663,-25.6501 157.0187,-22.9601 163.3521,-31.4535 167.2663,-25.6501"/>
</g>
<!-- E7 -->
<g id="node8" class="node">
<title>E7</title>
<polygon fill="#d3d3d3" stroke="#000000" points="333.9963,-82.7061 308.0012,-82.7061 308.0012,-65.7061 333.9963,-65.7061 333.9963,-82.7061"/>
<text text-anchor="middle" x="320.9988" y="-71.5061" font-family="Times,serif" font-size="9.00" fill="#000000">E7</text>
</g>
<!-- E6&#45;&gt;E7 -->
<!-- E6&#45;&gt;2 -->
<g id="edge13" class="edge">
<title>E6&#45;&gt;2</title>
<path fill="none" stroke="#00ff00" stroke-width=".5826" d="M271.5543,-65.7022C266.6021,-57.9672 259.0862,-46.228 252.5233,-35.9772"/>
<polygon fill="#00ff00" stroke="#00ff00" stroke-width=".5826" points="255.4292,-34.0249 247.0896,-27.4902 249.5339,-37.7993 255.4292,-34.0249"/>
</g>
<!-- E6&#45;&gt;S -->
<g id="edge17" class="edge">
<title>E6&#45;&gt;S</title>
<path fill="none" stroke="#00ff00" stroke-width="1.3574" d="M278.2883,-65.7022C279.3194,-58.9018 280.82,-49.0063 282.2238,-39.7483"/>
<polygon fill="#00ff00" stroke="#00ff00" stroke-width="1.3574" points="285.6986,-40.1774 283.7375,-29.7657 278.7778,-39.1279 285.6986,-40.1774"/>
</g>
<!-- E8 -->
<g id="node9" class="node">
<title>E8</title>
<polygon fill="#d3d3d3" stroke="#000000" points="377.9963,-82.7061 352.0012,-82.7061 352.0012,-65.7061 377.9963,-65.7061 377.9963,-82.7061"/>
<text text-anchor="middle" x="364.9988" y="-71.5061" font-family="Times,serif" font-size="9.00" fill="#000000">E8</text>
</g>
<!-- E7&#45;&gt;E8 -->
<!-- E8&#45;&gt;2 -->
<g id="edge18" class="edge">
<title>E8&#45;&gt;2</title>
<path fill="none" stroke="#00ff00" stroke-width=".1993" d="M351.9977,-68.905C328.1835,-59.1428 278.4933,-38.517 261.9988,-29.7061 261.1917,-29.275 260.3759,-28.8247 259.5574,-28.3606"/>
<polygon fill="#00ff00" stroke="#00ff00" stroke-width=".1993" points="261.3055,-25.3271 250.9471,-23.1011 257.6565,-31.3008 261.3055,-25.3271"/>
</g>
<!-- E8&#45;&gt;S -->
<g id="edge16" class="edge">
<title>E8&#45;&gt;S</title>
<path fill="none" stroke="#ff0000" stroke-width=".4404" d="M353.68,-65.7022C341.34,-56.4311 321.3433,-41.4075 306.2785,-30.0893"/>
<polygon fill="#ff0000" stroke="#ff0000" stroke-width=".4404" points="308.1711,-27.1335 298.0738,-23.925 303.9664,-32.73 308.1711,-27.1335"/>
</g>
<!-- 0&#45;&gt;1 -->
<!-- 1&#45;&gt;2 -->
<!-- 2&#45;&gt;S -->
</g>
</svg>
