<?xml version="1.0" encoding="utf-8" standalone="no"?>
<!DOCTYPE svg PUBLIC "-//W3C//DTD SVG 1.1//EN"
  "http://www.w3.org/Graphics/SVG/1.1/DTD/svg11.dtd">
<!-- Created with matplotlib (https://matplotlib.org/) -->
<svg height="345.6pt" version="1.1" viewBox="0 0 460.8 345.6" width="460.8pt" xmlns="http://www.w3.org/2000/svg" xmlns:xlink="http://www.w3.org/1999/xlink">
 <defs>
  <style type="text/css">
*{stroke-linecap:butt;stroke-linejoin:round;}
  </style>
 </defs>
 <g id="figure_1">
  <g id="patch_1">
   <path d="M 0 345.6 
L 460.8 345.6 
L 460.8 0 
L 0 0 
z
" style="fill:#ffffff;"/>
  </g>
  <g id="axes_1">
   <g id="patch_2">
    <path d="M 57.6 307.584 
L 414.72 307.584 
L 414.72 41.472 
L 57.6 41.472 
z
" style="fill:#ffffff;"/>
   </g>
   <g id="matplotlib.axis_1">
    <g id="xtick_1">
     <g id="line2d_1">
      <path clip-path="url(#p066a478175)" d="M 73.832727 307.584 
L 73.832727 41.472 
" style="fill:none;stroke:#b0b0b0;stroke-linecap:square;stroke-width:0.8;"/>
     </g>
     <g id="line2d_2">
      <defs>
       <path d="M 0 0 
L 0 3.5 
" id="m5103480261" style="stroke:#000000;stroke-width:0.8;"/>
      </defs>
      <g>
       <use style="stroke:#000000;stroke-width:0.8;" x="73.832727" xlink:href="#m5103480261" y="307.584"/>
      </g>
     </g>
     <g id="text_1">
      <!-- 0 -->
      <defs>
       <path d="M 31.78125 66.40625 
Q 24.171875 66.40625 20.328125 58.90625 
Q 16.5 51.421875 16.5 36.375 
Q 16.5 21.390625 20.328125 13.890625 
Q 24.171875 6.390625 31.78125 6.390625 
Q 39.453125 6.390625 43.28125 13.890625 
Q 47.125 21.390625 47.125 36.375 
Q 47.125 51.421875 43.28125 58.90625 
Q 39.453125 66.40625 31.78125 66.40625 
z
M 31.78125 74.21875 
Q 44.046875 74.21875 50.515625 64.515625 
Q 56.984375 54.828125 56.984375 36.375 
Q 56.984375 17.96875 50.515625 8.265625 
Q 44.046875 -1.421875 31.78125 -1.421875 
Q 19.53125 -1.421875 13.0625 8.265625 
Q 6.59375 17.96875 6.59375 36.375 
Q 6.59375 54.828125 13.0625 64.515625 
Q 19.53125 74.21875 31.78125 74.21875 
z
" id="DejaVuSans-48"/>
      </defs>
      <g transform="translate(70.651477 322.182437)scale(0.1 -0.1)">
       <use xlink:href="#DejaVuSans-48"/>
      </g>
     </g>
    </g>
    <g id="xtick_2">
     <g id="line2d_3">
      <path clip-path="url(#p066a478175)" d="M 128.122785 307.584 
L 128.122785 41.472 
" style="fill:none;stroke:#b0b0b0;stroke-linecap:square;stroke-width:0.8;"/>
     </g>
     <g id="line2d_4">
      <g>
       <use style="stroke:#000000;stroke-width:0.8;" x="128.122785" xlink:href="#m5103480261" y="307.584"/>
      </g>
     </g>
     <g id="text_2">
      <!-- 50 -->
      <defs>
       <path d="M 10.796875 72.90625 
L 49.515625 72.90625 
L 49.515625 64.59375 
L 19.828125 64.59375 
L 19.828125 46.734375 
Q 21.96875 47.46875 24.109375 47.828125 
Q 26.265625 48.1875 28.421875 48.1875 
Q 40.625 48.1875 47.75 41.5 
Q 54.890625 34.8125 54.890625 23.390625 
Q 54.890625 11.625 47.5625 5.09375 
Q 40.234375 -1.421875 26.90625 -1.421875 
Q 22.3125 -1.421875 17.546875 -0.640625 
Q 12.796875 0.140625 7.71875 1.703125 
L 7.71875 11.625 
Q 12.109375 9.234375 16.796875 8.0625 
Q 21.484375 6.890625 26.703125 6.890625 
Q 35.15625 6.890625 40.078125 11.328125 
Q 45.015625 15.765625 45.015625 23.390625 
Q 45.015625 31 40.078125 35.4375 
Q 35.15625 39.890625 26.703125 39.890625 
Q 22.75 39.890625 18.8125 39.015625 
Q 14.890625 38.140625 10.796875 36.28125 
z
" id="DejaVuSans-53"/>
      </defs>
      <g transform="translate(121.760285 322.182437)scale(0.1 -0.1)">
       <use xlink:href="#DejaVuSans-53"/>
       <use x="63.623047" xlink:href="#DejaVuSans-48"/>
      </g>
     </g>
    </g>
    <g id="xtick_3">
     <g id="line2d_5">
      <path clip-path="url(#p066a478175)" d="M 182.412843 307.584 
L 182.412843 41.472 
" style="fill:none;stroke:#b0b0b0;stroke-linecap:square;stroke-width:0.8;"/>
     </g>
     <g id="line2d_6">
      <g>
       <use style="stroke:#000000;stroke-width:0.8;" x="182.412843" xlink:href="#m5103480261" y="307.584"/>
      </g>
     </g>
     <g id="text_3">
      <!-- 100 -->
      <defs>
       <path d="M 12.40625 8.296875 
L 28.515625 8.296875 
L 28.515625 63.921875 
L 10.984375 60.40625 
L 10.984375 69.390625 
L 28.421875 72.90625 
L 38.28125 72.90625 
L 38.28125 8.296875 
L 54.390625 8.296875 
L 54.390625 0 
L 12.40625 0 
z
" id="DejaVuSans-49"/>
      </defs>
      <g transform="translate(172.869093 322.182437)scale(0.1 -0.1)">
       <use xlink:href="#DejaVuSans-49"/>
       <use x="63.623047" xlink:href="#DejaVuSans-48"/>
       <use x="127.246094" xlink:href="#DejaVuSans-48"/>
      </g>
     </g>
    </g>
    <g id="xtick_4">
     <g id="line2d_7">
      <path clip-path="url(#p066a478175)" d="M 236.702901 307.584 
L 236.702901 41.472 
" style="fill:none;stroke:#b0b0b0;stroke-linecap:square;stroke-width:0.8;"/>
     </g>
     <g id="line2d_8">
      <g>
       <use style="stroke:#000000;stroke-width:0.8;" x="236.702901" xlink:href="#m5103480261" y="307.584"/>
      </g>
     </g>
     <g id="text_4">
      <!-- 150 -->
      <g transform="translate(227.159151 322.182437)scale(0.1 -0.1)">
       <use xlink:href="#DejaVuSans-49"/>
       <use x="63.623047" xlink:href="#DejaVuSans-53"/>
       <use x="127.246094" xlink:href="#DejaVuSans-48"/>
      </g>
     </g>
    </g>
    <g id="xtick_5">
     <g id="line2d_9">
      <path clip-path="url(#p066a478175)" d="M 290.992958 307.584 
L 290.992958 41.472 
" style="fill:none;stroke:#b0b0b0;stroke-linecap:square;stroke-width:0.8;"/>
     </g>
     <g id="line2d_10">
      <g>
       <use style="stroke:#000000;stroke-width:0.8;" x="290.992958" xlink:href="#m5103480261" y="307.584"/>
      </g>
     </g>
     <g id="text_5">
      <!-- 200 -->
      <defs>
       <path d="M 19.1875 8.296875 
L 53.609375 8.296875 
L 53.609375 0 
L 7.328125 0 
L 7.328125 8.296875 
Q 12.9375 14.109375 22.625 23.890625 
Q 32.328125 33.6875 34.8125 36.53125 
Q 39.546875 41.84375 41.421875 45.53125 
Q 43.3125 49.21875 43.3125 52.78125 
Q 43.3125 58.59375 39.234375 62.25 
Q 35.15625 65.921875 28.609375 65.921875 
Q 23.96875 65.921875 18.8125 64.3125 
Q 13.671875 62.703125 7.8125 59.421875 
L 7.8125 69.390625 
Q 13.765625 71.78125 18.9375 73 
Q 24.125 74.21875 28.421875 74.21875 
Q 39.75 74.21875 46.484375 68.546875 
Q 53.21875 62.890625 53.21875 53.421875 
Q 53.21875 48.921875 51.53125 44.890625 
Q 49.859375 40.875 45.40625 35.40625 
Q 44.1875 33.984375 37.640625 27.21875 
Q 31.109375 20.453125 19.1875 8.296875 
z
" id="DejaVuSans-50"/>
      </defs>
      <g transform="translate(281.449208 322.182437)scale(0.1 -0.1)">
       <use xlink:href="#DejaVuSans-50"/>
       <use x="63.623047" xlink:href="#DejaVuSans-48"/>
       <use x="127.246094" xlink:href="#DejaVuSans-48"/>
      </g>
     </g>
    </g>
    <g id="xtick_6">
     <g id="line2d_11">
      <path clip-path="url(#p066a478175)" d="M 345.283016 307.584 
L 345.283016 41.472 
" style="fill:none;stroke:#b0b0b0;stroke-linecap:square;stroke-width:0.8;"/>
     </g>
     <g id="line2d_12">
      <g>
       <use style="stroke:#000000;stroke-width:0.8;" x="345.283016" xlink:href="#m5103480261" y="307.584"/>
      </g>
     </g>
     <g id="text_6">
      <!-- 250 -->
      <g transform="translate(335.739266 322.182437)scale(0.1 -0.1)">
       <use xlink:href="#DejaVuSans-50"/>
       <use x="63.623047" xlink:href="#DejaVuSans-53"/>
       <use x="127.246094" xlink:href="#DejaVuSans-48"/>
      </g>
     </g>
    </g>
    <g id="xtick_7">
     <g id="line2d_13">
      <path clip-path="url(#p066a478175)" d="M 399.573074 307.584 
L 399.573074 41.472 
" style="fill:none;stroke:#b0b0b0;stroke-linecap:square;stroke-width:0.8;"/>
     </g>
     <g id="line2d_14">
      <g>
       <use style="stroke:#000000;stroke-width:0.8;" x="399.573074" xlink:href="#m5103480261" y="307.584"/>
      </g>
     </g>
     <g id="text_7">
      <!-- 300 -->
      <defs>
       <path d="M 40.578125 39.3125 
Q 47.65625 37.796875 51.625 33 
Q 55.609375 28.21875 55.609375 21.1875 
Q 55.609375 10.40625 48.1875 4.484375 
Q 40.765625 -1.421875 27.09375 -1.421875 
Q 22.515625 -1.421875 17.65625 -0.515625 
Q 12.796875 0.390625 7.625 2.203125 
L 7.625 11.71875 
Q 11.71875 9.328125 16.59375 8.109375 
Q 21.484375 6.890625 26.8125 6.890625 
Q 36.078125 6.890625 40.9375 10.546875 
Q 45.796875 14.203125 45.796875 21.1875 
Q 45.796875 27.640625 41.28125 31.265625 
Q 36.765625 34.90625 28.71875 34.90625 
L 20.21875 34.90625 
L 20.21875 43.015625 
L 29.109375 43.015625 
Q 36.375 43.015625 40.234375 45.921875 
Q 44.09375 48.828125 44.09375 54.296875 
Q 44.09375 59.90625 40.109375 62.90625 
Q 36.140625 65.921875 28.71875 65.921875 
Q 24.65625 65.921875 20.015625 65.03125 
Q 15.375 64.15625 9.8125 62.3125 
L 9.8125 71.09375 
Q 15.4375 72.65625 20.34375 73.4375 
Q 25.25 74.21875 29.59375 74.21875 
Q 40.828125 74.21875 47.359375 69.109375 
Q 53.90625 64.015625 53.90625 55.328125 
Q 53.90625 49.265625 50.4375 45.09375 
Q 46.96875 40.921875 40.578125 39.3125 
z
" id="DejaVuSans-51"/>
      </defs>
      <g transform="translate(390.029324 322.182437)scale(0.1 -0.1)">
       <use xlink:href="#DejaVuSans-51"/>
       <use x="63.623047" xlink:href="#DejaVuSans-48"/>
       <use x="127.246094" xlink:href="#DejaVuSans-48"/>
      </g>
     </g>
    </g>
    <g id="text_8">
     <!-- Generations -->
     <defs>
      <path d="M 59.515625 10.40625 
L 59.515625 29.984375 
L 43.40625 29.984375 
L 43.40625 38.09375 
L 69.28125 38.09375 
L 69.28125 6.78125 
Q 63.578125 2.734375 56.6875 0.65625 
Q 49.8125 -1.421875 42 -1.421875 
Q 24.90625 -1.421875 15.25 8.5625 
Q 5.609375 18.5625 5.609375 36.375 
Q 5.609375 54.25 15.25 64.234375 
Q 24.90625 74.21875 42 74.21875 
Q 49.125 74.21875 55.546875 72.453125 
Q 61.96875 70.703125 67.390625 67.28125 
L 67.390625 56.78125 
Q 61.921875 61.421875 55.765625 63.765625 
Q 49.609375 66.109375 42.828125 66.109375 
Q 29.4375 66.109375 22.71875 58.640625 
Q 16.015625 51.171875 16.015625 36.375 
Q 16.015625 21.625 22.71875 14.15625 
Q 29.4375 6.6875 42.828125 6.6875 
Q 48.046875 6.6875 52.140625 7.59375 
Q 56.25 8.5 59.515625 10.40625 
z
" id="DejaVuSans-71"/>
      <path d="M 56.203125 29.59375 
L 56.203125 25.203125 
L 14.890625 25.203125 
Q 15.484375 15.921875 20.484375 11.0625 
Q 25.484375 6.203125 34.421875 6.203125 
Q 39.59375 6.203125 44.453125 7.46875 
Q 49.3125 8.734375 54.109375 11.28125 
L 54.109375 2.78125 
Q 49.265625 0.734375 44.1875 -0.34375 
Q 39.109375 -1.421875 33.890625 -1.421875 
Q 20.796875 -1.421875 13.15625 6.1875 
Q 5.515625 13.8125 5.515625 26.8125 
Q 5.515625 40.234375 12.765625 48.109375 
Q 20.015625 56 32.328125 56 
Q 43.359375 56 49.78125 48.890625 
Q 56.203125 41.796875 56.203125 29.59375 
z
M 47.21875 32.234375 
Q 47.125 39.59375 43.09375 43.984375 
Q 39.0625 48.390625 32.421875 48.390625 
Q 24.90625 48.390625 20.390625 44.140625 
Q 15.875 39.890625 15.1875 32.171875 
z
" id="DejaVuSans-101"/>
      <path d="M 54.890625 33.015625 
L 54.890625 0 
L 45.90625 0 
L 45.90625 32.71875 
Q 45.90625 40.484375 42.875 44.328125 
Q 39.84375 48.1875 33.796875 48.1875 
Q 26.515625 48.1875 22.3125 43.546875 
Q 18.109375 38.921875 18.109375 30.90625 
L 18.109375 0 
L 9.078125 0 
L 9.078125 54.6875 
L 18.109375 54.6875 
L 18.109375 46.1875 
Q 21.34375 51.125 25.703125 53.5625 
Q 30.078125 56 35.796875 56 
Q 45.21875 56 50.046875 50.171875 
Q 54.890625 44.34375 54.890625 33.015625 
z
" id="DejaVuSans-110"/>
      <path d="M 41.109375 46.296875 
Q 39.59375 47.171875 37.8125 47.578125 
Q 36.03125 48 33.890625 48 
Q 26.265625 48 22.1875 43.046875 
Q 18.109375 38.09375 18.109375 28.8125 
L 18.109375 0 
L 9.078125 0 
L 9.078125 54.6875 
L 18.109375 54.6875 
L 18.109375 46.1875 
Q 20.953125 51.171875 25.484375 53.578125 
Q 30.03125 56 36.53125 56 
Q 37.453125 56 38.578125 55.875 
Q 39.703125 55.765625 41.0625 55.515625 
z
" id="DejaVuSans-114"/>
      <path d="M 34.28125 27.484375 
Q 23.390625 27.484375 19.1875 25 
Q 14.984375 22.515625 14.984375 16.5 
Q 14.984375 11.71875 18.140625 8.90625 
Q 21.296875 6.109375 26.703125 6.109375 
Q 34.1875 6.109375 38.703125 11.40625 
Q 43.21875 16.703125 43.21875 25.484375 
L 43.21875 27.484375 
z
M 52.203125 31.203125 
L 52.203125 0 
L 43.21875 0 
L 43.21875 8.296875 
Q 40.140625 3.328125 35.546875 0.953125 
Q 30.953125 -1.421875 24.3125 -1.421875 
Q 15.921875 -1.421875 10.953125 3.296875 
Q 6 8.015625 6 15.921875 
Q 6 25.140625 12.171875 29.828125 
Q 18.359375 34.515625 30.609375 34.515625 
L 43.21875 34.515625 
L 43.21875 35.40625 
Q 43.21875 41.609375 39.140625 45 
Q 35.0625 48.390625 27.6875 48.390625 
Q 23 48.390625 18.546875 47.265625 
Q 14.109375 46.140625 10.015625 43.890625 
L 10.015625 52.203125 
Q 14.9375 54.109375 19.578125 55.046875 
Q 24.21875 56 28.609375 56 
Q 40.484375 56 46.34375 49.84375 
Q 52.203125 43.703125 52.203125 31.203125 
z
" id="DejaVuSans-97"/>
      <path d="M 18.3125 70.21875 
L 18.3125 54.6875 
L 36.8125 54.6875 
L 36.8125 47.703125 
L 18.3125 47.703125 
L 18.3125 18.015625 
Q 18.3125 11.328125 20.140625 9.421875 
Q 21.96875 7.515625 27.59375 7.515625 
L 36.8125 7.515625 
L 36.8125 0 
L 27.59375 0 
Q 17.1875 0 13.234375 3.875 
Q 9.28125 7.765625 9.28125 18.015625 
L 9.28125 47.703125 
L 2.6875 47.703125 
L 2.6875 54.6875 
L 9.28125 54.6875 
L 9.28125 70.21875 
z
" id="DejaVuSans-116"/>
      <path d="M 9.421875 54.6875 
L 18.40625 54.6875 
L 18.40625 0 
L 9.421875 0 
z
M 9.421875 75.984375 
L 18.40625 75.984375 
L 18.40625 64.59375 
L 9.421875 64.59375 
z
" id="DejaVuSans-105"/>
      <path d="M 30.609375 48.390625 
Q 23.390625 48.390625 19.1875 42.75 
Q 14.984375 37.109375 14.984375 27.296875 
Q 14.984375 17.484375 19.15625 11.84375 
Q 23.34375 6.203125 30.609375 6.203125 
Q 37.796875 6.203125 41.984375 11.859375 
Q 46.1875 17.53125 46.1875 27.296875 
Q 46.1875 37.015625 41.984375 42.703125 
Q 37.796875 48.390625 30.609375 48.390625 
z
M 30.609375 56 
Q 42.328125 56 49.015625 48.375 
Q 55.71875 40.765625 55.71875 27.296875 
Q 55.71875 13.875 49.015625 6.21875 
Q 42.328125 -1.421875 30.609375 -1.421875 
Q 18.84375 -1.421875 12.171875 6.21875 
Q 5.515625 13.875 5.515625 27.296875 
Q 5.515625 40.765625 12.171875 48.375 
Q 18.84375 56 30.609375 56 
z
" id="DejaVuSans-111"/>
      <path d="M 44.28125 53.078125 
L 44.28125 44.578125 
Q 40.484375 46.53125 36.375 47.5 
Q 32.28125 48.484375 27.875 48.484375 
Q 21.1875 48.484375 17.84375 46.4375 
Q 14.5 44.390625 14.5 40.28125 
Q 14.5 37.15625 16.890625 35.375 
Q 19.28125 33.59375 26.515625 31.984375 
L 29.59375 31.296875 
Q 39.15625 29.25 43.1875 25.515625 
Q 47.21875 21.78125 47.21875 15.09375 
Q 47.21875 7.46875 41.1875 3.015625 
Q 35.15625 -1.421875 24.609375 -1.421875 
Q 20.21875 -1.421875 15.453125 -0.5625 
Q 10.6875 0.296875 5.421875 2 
L 5.421875 11.28125 
Q 10.40625 8.6875 15.234375 7.390625 
Q 20.0625 6.109375 24.8125 6.109375 
Q 31.15625 6.109375 34.5625 8.28125 
Q 37.984375 10.453125 37.984375 14.40625 
Q 37.984375 18.0625 35.515625 20.015625 
Q 33.0625 21.96875 24.703125 23.78125 
L 21.578125 24.515625 
Q 13.234375 26.265625 9.515625 29.90625 
Q 5.8125 33.546875 5.8125 39.890625 
Q 5.8125 47.609375 11.28125 51.796875 
Q 16.75 56 26.8125 56 
Q 31.78125 56 36.171875 55.265625 
Q 40.578125 54.546875 44.28125 53.078125 
z
" id="DejaVuSans-115"/>
     </defs>
     <g transform="translate(205.662344 335.860562)scale(0.1 -0.1)">
      <use xlink:href="#DejaVuSans-71"/>
      <use x="77.490234" xlink:href="#DejaVuSans-101"/>
      <use x="139.013672" xlink:href="#DejaVuSans-110"/>
      <use x="202.392578" xlink:href="#DejaVuSans-101"/>
      <use x="263.916016" xlink:href="#DejaVuSans-114"/>
      <use x="305.029297" xlink:href="#DejaVuSans-97"/>
      <use x="366.308594" xlink:href="#DejaVuSans-116"/>
      <use x="405.517578" xlink:href="#DejaVuSans-105"/>
      <use x="433.300781" xlink:href="#DejaVuSans-111"/>
      <use x="494.482422" xlink:href="#DejaVuSans-110"/>
      <use x="557.861328" xlink:href="#DejaVuSans-115"/>
     </g>
    </g>
   </g>
   <g id="matplotlib.axis_2">
    <g id="ytick_1">
     <g id="line2d_15">
      <path clip-path="url(#p066a478175)" d="M 57.6 306.878495 
L 414.72 306.878495 
" style="fill:none;stroke:#b0b0b0;stroke-linecap:square;stroke-width:0.8;"/>
     </g>
     <g id="line2d_16">
      <defs>
       <path d="M 0 0 
L -3.5 0 
" id="m18ed926e70" style="stroke:#000000;stroke-width:0.8;"/>
      </defs>
      <g>
       <use style="stroke:#000000;stroke-width:0.8;" x="57.6" xlink:href="#m18ed926e70" y="306.878495"/>
      </g>
     </g>
     <g id="text_9">
      <!-- 400 -->
      <defs>
       <path d="M 37.796875 64.3125 
L 12.890625 25.390625 
L 37.796875 25.390625 
z
M 35.203125 72.90625 
L 47.609375 72.90625 
L 47.609375 25.390625 
L 58.015625 25.390625 
L 58.015625 17.1875 
L 47.609375 17.1875 
L 47.609375 0 
L 37.796875 0 
L 37.796875 17.1875 
L 4.890625 17.1875 
L 4.890625 26.703125 
z
" id="DejaVuSans-52"/>
      </defs>
      <g transform="translate(31.5125 310.677714)scale(0.1 -0.1)">
       <use xlink:href="#DejaVuSans-52"/>
       <use x="63.623047" xlink:href="#DejaVuSans-48"/>
       <use x="127.246094" xlink:href="#DejaVuSans-48"/>
      </g>
     </g>
    </g>
    <g id="ytick_2">
     <g id="line2d_17">
      <path clip-path="url(#p066a478175)" d="M 57.6 273.530971 
L 414.72 273.530971 
" style="fill:none;stroke:#b0b0b0;stroke-linecap:square;stroke-width:0.8;"/>
     </g>
     <g id="line2d_18">
      <g>
       <use style="stroke:#000000;stroke-width:0.8;" x="57.6" xlink:href="#m18ed926e70" y="273.530971"/>
      </g>
     </g>
     <g id="text_10">
      <!-- 600 -->
      <defs>
       <path d="M 33.015625 40.375 
Q 26.375 40.375 22.484375 35.828125 
Q 18.609375 31.296875 18.609375 23.390625 
Q 18.609375 15.53125 22.484375 10.953125 
Q 26.375 6.390625 33.015625 6.390625 
Q 39.65625 6.390625 43.53125 10.953125 
Q 47.40625 15.53125 47.40625 23.390625 
Q 47.40625 31.296875 43.53125 35.828125 
Q 39.65625 40.375 33.015625 40.375 
z
M 52.59375 71.296875 
L 52.59375 62.3125 
Q 48.875 64.0625 45.09375 64.984375 
Q 41.3125 65.921875 37.59375 65.921875 
Q 27.828125 65.921875 22.671875 59.328125 
Q 17.53125 52.734375 16.796875 39.40625 
Q 19.671875 43.65625 24.015625 45.921875 
Q 28.375 48.1875 33.59375 48.1875 
Q 44.578125 48.1875 50.953125 41.515625 
Q 57.328125 34.859375 57.328125 23.390625 
Q 57.328125 12.15625 50.6875 5.359375 
Q 44.046875 -1.421875 33.015625 -1.421875 
Q 20.359375 -1.421875 13.671875 8.265625 
Q 6.984375 17.96875 6.984375 36.375 
Q 6.984375 53.65625 15.1875 63.9375 
Q 23.390625 74.21875 37.203125 74.21875 
Q 40.921875 74.21875 44.703125 73.484375 
Q 48.484375 72.75 52.59375 71.296875 
z
" id="DejaVuSans-54"/>
      </defs>
      <g transform="translate(31.5125 277.330189)scale(0.1 -0.1)">
       <use xlink:href="#DejaVuSans-54"/>
       <use x="63.623047" xlink:href="#DejaVuSans-48"/>
       <use x="127.246094" xlink:href="#DejaVuSans-48"/>
      </g>
     </g>
    </g>
    <g id="ytick_3">
     <g id="line2d_19">
      <path clip-path="url(#p066a478175)" d="M 57.6 240.183446 
L 414.72 240.183446 
" style="fill:none;stroke:#b0b0b0;stroke-linecap:square;stroke-width:0.8;"/>
     </g>
     <g id="line2d_20">
      <g>
       <use style="stroke:#000000;stroke-width:0.8;" x="57.6" xlink:href="#m18ed926e70" y="240.183446"/>
      </g>
     </g>
     <g id="text_11">
      <!-- 800 -->
      <defs>
       <path d="M 31.78125 34.625 
Q 24.75 34.625 20.71875 30.859375 
Q 16.703125 27.09375 16.703125 20.515625 
Q 16.703125 13.921875 20.71875 10.15625 
Q 24.75 6.390625 31.78125 6.390625 
Q 38.8125 6.390625 42.859375 10.171875 
Q 46.921875 13.96875 46.921875 20.515625 
Q 46.921875 27.09375 42.890625 30.859375 
Q 38.875 34.625 31.78125 34.625 
z
M 21.921875 38.8125 
Q 15.578125 40.375 12.03125 44.71875 
Q 8.5 49.078125 8.5 55.328125 
Q 8.5 64.0625 14.71875 69.140625 
Q 20.953125 74.21875 31.78125 74.21875 
Q 42.671875 74.21875 48.875 69.140625 
Q 55.078125 64.0625 55.078125 55.328125 
Q 55.078125 49.078125 51.53125 44.71875 
Q 48 40.375 41.703125 38.8125 
Q 48.828125 37.15625 52.796875 32.3125 
Q 56.78125 27.484375 56.78125 20.515625 
Q 56.78125 9.90625 50.3125 4.234375 
Q 43.84375 -1.421875 31.78125 -1.421875 
Q 19.734375 -1.421875 13.25 4.234375 
Q 6.78125 9.90625 6.78125 20.515625 
Q 6.78125 27.484375 10.78125 32.3125 
Q 14.796875 37.15625 21.921875 38.8125 
z
M 18.3125 54.390625 
Q 18.3125 48.734375 21.84375 45.5625 
Q 25.390625 42.390625 31.78125 42.390625 
Q 38.140625 42.390625 41.71875 45.5625 
Q 45.3125 48.734375 45.3125 54.390625 
Q 45.3125 60.0625 41.71875 63.234375 
Q 38.140625 66.40625 31.78125 66.40625 
Q 25.390625 66.40625 21.84375 63.234375 
Q 18.3125 60.0625 18.3125 54.390625 
z
" id="DejaVuSans-56"/>
      </defs>
      <g transform="translate(31.5125 243.982664)scale(0.1 -0.1)">
       <use xlink:href="#DejaVuSans-56"/>
       <use x="63.623047" xlink:href="#DejaVuSans-48"/>
       <use x="127.246094" xlink:href="#DejaVuSans-48"/>
      </g>
     </g>
    </g>
    <g id="ytick_4">
     <g id="line2d_21">
      <path clip-path="url(#p066a478175)" d="M 57.6 206.835921 
L 414.72 206.835921 
" style="fill:none;stroke:#b0b0b0;stroke-linecap:square;stroke-width:0.8;"/>
     </g>
     <g id="line2d_22">
      <g>
       <use style="stroke:#000000;stroke-width:0.8;" x="57.6" xlink:href="#m18ed926e70" y="206.835921"/>
      </g>
     </g>
     <g id="text_12">
      <!-- 1000 -->
      <g transform="translate(25.15 210.635139)scale(0.1 -0.1)">
       <use xlink:href="#DejaVuSans-49"/>
       <use x="63.623047" xlink:href="#DejaVuSans-48"/>
       <use x="127.246094" xlink:href="#DejaVuSans-48"/>
       <use x="190.869141" xlink:href="#DejaVuSans-48"/>
      </g>
     </g>
    </g>
    <g id="ytick_5">
     <g id="line2d_23">
      <path clip-path="url(#p066a478175)" d="M 57.6 173.488396 
L 414.72 173.488396 
" style="fill:none;stroke:#b0b0b0;stroke-linecap:square;stroke-width:0.8;"/>
     </g>
     <g id="line2d_24">
      <g>
       <use style="stroke:#000000;stroke-width:0.8;" x="57.6" xlink:href="#m18ed926e70" y="173.488396"/>
      </g>
     </g>
     <g id="text_13">
      <!-- 1200 -->
      <g transform="translate(25.15 177.287615)scale(0.1 -0.1)">
       <use xlink:href="#DejaVuSans-49"/>
       <use x="63.623047" xlink:href="#DejaVuSans-50"/>
       <use x="127.246094" xlink:href="#DejaVuSans-48"/>
       <use x="190.869141" xlink:href="#DejaVuSans-48"/>
      </g>
     </g>
    </g>
    <g id="ytick_6">
     <g id="line2d_25">
      <path clip-path="url(#p066a478175)" d="M 57.6 140.140871 
L 414.72 140.140871 
" style="fill:none;stroke:#b0b0b0;stroke-linecap:square;stroke-width:0.8;"/>
     </g>
     <g id="line2d_26">
      <g>
       <use style="stroke:#000000;stroke-width:0.8;" x="57.6" xlink:href="#m18ed926e70" y="140.140871"/>
      </g>
     </g>
     <g id="text_14">
      <!-- 1400 -->
      <g transform="translate(25.15 143.94009)scale(0.1 -0.1)">
       <use xlink:href="#DejaVuSans-49"/>
       <use x="63.623047" xlink:href="#DejaVuSans-52"/>
       <use x="127.246094" xlink:href="#DejaVuSans-48"/>
       <use x="190.869141" xlink:href="#DejaVuSans-48"/>
      </g>
     </g>
    </g>
    <g id="ytick_7">
     <g id="line2d_27">
      <path clip-path="url(#p066a478175)" d="M 57.6 106.793346 
L 414.72 106.793346 
" style="fill:none;stroke:#b0b0b0;stroke-linecap:square;stroke-width:0.8;"/>
     </g>
     <g id="line2d_28">
      <g>
       <use style="stroke:#000000;stroke-width:0.8;" x="57.6" xlink:href="#m18ed926e70" y="106.793346"/>
      </g>
     </g>
     <g id="text_15">
      <!-- 1600 -->
      <g transform="translate(25.15 110.592565)scale(0.1 -0.1)">
       <use xlink:href="#DejaVuSans-49"/>
       <use x="63.623047" xlink:href="#DejaVuSans-54"/>
       <use x="127.246094" xlink:href="#DejaVuSans-48"/>
       <use x="190.869141" xlink:href="#DejaVuSans-48"/>
      </g>
     </g>
    </g>
    <g id="ytick_8">
     <g id="line2d_29">
      <path clip-path="url(#p066a478175)" d="M 57.6 73.445821 
L 414.72 73.445821 
" style="fill:none;stroke:#b0b0b0;stroke-linecap:square;stroke-width:0.8;"/>
     </g>
     <g id="line2d_30">
      <g>
       <use style="stroke:#000000;stroke-width:0.8;" x="57.6" xlink:href="#m18ed926e70" y="73.445821"/>
      </g>
     </g>
     <g id="text_16">
      <!-- 1800 -->
      <g transform="translate(25.15 77.24504)scale(0.1 -0.1)">
       <use xlink:href="#DejaVuSans-49"/>
       <use x="63.623047" xlink:href="#DejaVuSans-56"/>
       <use x="127.246094" xlink:href="#DejaVuSans-48"/>
       <use x="190.869141" xlink:href="#DejaVuSans-48"/>
      </g>
     </g>
    </g>
    <g id="text_17">
     <!-- Fitness -->
     <defs>
      <path d="M 9.8125 72.90625 
L 51.703125 72.90625 
L 51.703125 64.59375 
L 19.671875 64.59375 
L 19.671875 43.109375 
L 48.578125 43.109375 
L 48.578125 34.8125 
L 19.671875 34.8125 
L 19.671875 0 
L 9.8125 0 
z
" id="DejaVuSans-70"/>
     </defs>
     <g transform="translate(19.070312 192.202219)rotate(-90)scale(0.1 -0.1)">
      <use xlink:href="#DejaVuSans-70"/>
      <use x="57.410156" xlink:href="#DejaVuSans-105"/>
      <use x="85.193359" xlink:href="#DejaVuSans-116"/>
      <use x="124.402344" xlink:href="#DejaVuSans-110"/>
      <use x="187.78125" xlink:href="#DejaVuSans-101"/>
      <use x="249.304688" xlink:href="#DejaVuSans-115"/>
      <use x="301.404297" xlink:href="#DejaVuSans-115"/>
     </g>
    </g>
   </g>
   <g id="line2d_31">
    <path clip-path="url(#p066a478175)" d="M 73.832727 289.692102 
L 74.918528 196.308792 
L 76.00433 200.741076 
L 77.090131 180.881475 
L 78.175932 197.639818 
L 79.261733 182.55556 
L 80.347534 200.59129 
L 81.433335 205.019531 
L 82.519137 206.948865 
L 83.604938 224.674427 
L 84.690739 202.330396 
L 85.77654 204.689821 
L 86.862341 211.308273 
L 87.948142 220.168965 
L 89.033943 203.826723 
L 90.119745 224.999125 
L 91.205546 212.610454 
L 92.291347 212.337083 
L 93.377148 218.962311 
L 94.462949 201.504034 
L 95.54875 202.399008 
L 96.634552 180.020278 
L 97.720353 202.515195 
L 98.806154 191.900588 
L 99.891955 187.146877 
L 100.977756 211.49959 
L 102.063557 212.240552 
L 103.149358 211.95477 
L 104.23516 215.831325 
L 105.320961 201.43232 
L 106.406762 209.367521 
L 107.492563 193.863879 
L 108.578364 209.07635 
L 109.664165 186.295 
L 110.749967 189.056001 
L 111.835768 192.482243 
L 112.921569 189.861864 
L 114.00737 216.722101 
L 115.093171 197.340919 
L 116.178972 183.027114 
L 117.264773 165.679525 
L 118.350575 173.9664 
L 119.436376 163.910835 
L 120.522177 171.099474 
L 121.607978 184.495783 
L 122.693779 175.148161 
L 123.77958 163.109015 
L 124.865382 179.026924 
L 125.951183 167.243452 
L 127.036984 176.412214 
L 129.208586 171.823527 
L 130.294387 163.416768 
L 131.380189 158.461966 
L 132.46599 177.432277 
L 133.551791 168.622355 
L 134.637592 165.181684 
L 135.723393 160.564974 
L 136.809194 138.40471 
L 137.894995 159.650109 
L 138.980797 148.355778 
L 140.066598 181.087197 
L 141.152399 169.566763 
L 142.2382 141.064288 
L 143.324001 135.691514 
L 145.495604 160.142065 
L 146.581405 139.609797 
L 147.667206 139.410898 
L 149.838808 184.850125 
L 150.924609 157.582477 
L 152.01041 138.978128 
L 153.096212 150.854588 
L 154.182013 138.71121 
L 155.267814 147.457906 
L 156.353615 138.344408 
L 157.439416 145.833387 
L 158.525217 137.433494 
L 159.611019 136.419157 
L 160.69682 129.619068 
L 161.782621 156.6512 
L 162.868422 125.855506 
L 163.954223 141.327662 
L 165.040024 147.254291 
L 166.125825 146.443549 
L 167.211627 128.335805 
L 168.297428 164.819744 
L 169.383229 138.223023 
L 170.46903 155.696387 
L 171.554831 160.009847 
L 172.640632 134.980177 
L 173.726434 125.238145 
L 174.812235 136.089478 
L 175.898036 142.823979 
L 176.983837 160.458322 
L 178.069638 129.765366 
L 179.155439 144.815058 
L 180.24124 162.298859 
L 181.327042 137.62295 
L 182.412843 131.590091 
L 183.498644 146.520472 
L 184.584445 131.485449 
L 185.670246 142.728885 
L 186.756047 127.603926 
L 187.841849 121.780703 
L 188.92765 184.983947 
L 190.013451 131.311058 
L 191.099252 146.512297 
L 192.185053 146.327487 
L 193.270854 143.195519 
L 194.356656 146.558113 
L 195.442457 140.978295 
L 196.528258 143.149462 
L 197.614059 137.348524 
L 198.69986 148.827848 
L 199.785661 142.309347 
L 200.871462 129.693078 
L 201.957264 132.242605 
L 203.043065 134.083143 
L 204.128866 133.373976 
L 205.214667 141.592648 
L 206.300468 153.946057 
L 207.386269 122.144811 
L 208.472071 151.168689 
L 209.557872 143.768479 
L 210.643673 141.474021 
L 211.729474 133.428702 
L 212.815275 142.152062 
L 213.901076 148.321812 
L 214.986877 153.051975 
L 217.15848 144.434171 
L 218.244281 143.991467 
L 219.330082 119.432113 
L 220.415883 158.834751 
L 221.501684 131.250326 
L 222.587486 161.884827 
L 223.673287 128.613659 
L 224.759088 158.106179 
L 225.844889 135.575695 
L 226.93069 146.204011 
L 228.016491 134.475674 
L 229.102292 139.047497 
L 230.188094 135.625111 
L 231.273895 145.687578 
L 232.359696 137.48527 
L 233.445497 143.711938 
L 234.531298 142.325599 
L 235.617099 153.810719 
L 236.702901 138.284081 
L 237.788702 126.429415 
L 238.874503 125.967535 
L 239.960304 121.084844 
L 242.131906 136.76703 
L 243.217708 138.267619 
L 244.303509 124.006966 
L 245.38931 129.586631 
L 246.475111 131.635749 
L 247.560912 148.62494 
L 249.732514 133.343068 
L 250.818316 139.980189 
L 251.904117 154.470681 
L 252.989918 157.527195 
L 254.075719 127.569337 
L 255.16152 142.419307 
L 256.247321 129.761873 
L 257.333123 174.960276 
L 258.418924 140.404526 
L 259.504725 137.189777 
L 260.590526 155.409236 
L 261.676327 145.130556 
L 262.762128 138.948088 
L 263.847929 141.64256 
L 264.933731 160.04867 
L 266.019532 139.037372 
L 267.105333 133.552705 
L 268.191134 141.564191 
L 269.276935 134.957602 
L 270.362736 125.749763 
L 271.448538 136.532019 
L 272.534339 114.744297 
L 273.62014 145.99137 
L 274.705941 110.493632 
L 275.791742 119.527862 
L 276.877543 132.546126 
L 277.963344 129.85284 
L 279.049146 124.173994 
L 281.220748 141.568294 
L 282.306549 114.447341 
L 283.39235 149.058952 
L 284.478151 113.794457 
L 285.563953 145.776797 
L 286.649754 134.580101 
L 287.735555 131.61349 
L 288.821356 127.400151 
L 289.907157 139.827086 
L 290.992958 117.996372 
L 292.07876 126.619501 
L 293.164561 102.781516 
L 294.250362 129.388955 
L 295.336163 126.338841 
L 296.421964 121.831949 
L 297.507765 127.854122 
L 298.593566 119.394239 
L 299.679368 106.907659 
L 300.765169 121.350373 
L 301.85097 113.75265 
L 302.936771 121.532953 
L 304.022572 137.15398 
L 305.108373 132.552617 
L 306.194175 123.654791 
L 307.279976 135.538914 
L 308.365777 121.264106 
L 309.451578 103.967603 
L 310.537379 128.695184 
L 311.62318 113.366071 
L 312.708981 110.733404 
L 313.794783 125.951671 
L 314.880584 120.766194 
L 315.966385 127.793771 
L 317.052186 143.025148 
L 318.137987 128.900522 
L 319.223788 147.698691 
L 320.30959 123.034632 
L 321.395391 116.108204 
L 322.481192 129.177876 
L 323.566993 119.013514 
L 324.652794 135.251895 
L 325.738595 116.694429 
L 326.824396 138.220788 
L 327.910198 127.233458 
L 328.995999 129.155701 
L 330.0818 140.330848 
L 331.167601 122.695929 
L 332.253402 124.732963 
L 333.339203 116.522805 
L 334.425005 132.299042 
L 335.510806 117.222419 
L 336.596607 131.196333 
L 337.682408 133.809691 
L 338.768209 115.417875 
L 339.85401 109.856429 
L 340.939811 121.393596 
L 342.025613 129.8215 
L 343.111414 141.884806 
L 344.197215 119.448147 
L 345.283016 117.471478 
L 346.368817 149.028944 
L 347.454618 132.515402 
L 348.54042 145.579799 
L 349.626221 142.466771 
L 350.712022 132.657966 
L 351.797823 143.44915 
L 352.883624 96.59046 
L 353.969425 100.199094 
L 355.055227 102.977522 
L 356.141028 115.174346 
L 357.226829 108.188487 
L 358.31263 118.886187 
L 359.398431 96.511551 
L 360.484232 120.577233 
L 361.570033 117.709545 
L 362.655835 115.803244 
L 363.741636 98.384835 
L 364.827437 111.9319 
L 365.913238 109.157607 
L 366.999039 122.657346 
L 368.08484 106.361495 
L 369.170642 117.92788 
L 370.256443 111.677155 
L 371.342244 108.071731 
L 372.428045 116.840944 
L 373.513846 122.043956 
L 374.599647 115.928858 
L 375.685448 118.386321 
L 376.77125 106.424671 
L 377.857051 119.904171 
L 378.942852 110.843064 
L 381.114454 119.129 
L 382.200255 117.09384 
L 383.286057 93.173324 
L 384.371858 106.013356 
L 385.457659 115.409921 
L 386.54346 101.832151 
L 387.629261 106.944109 
L 388.715062 127.091704 
L 389.800863 113.64924 
L 390.886665 92.650482 
L 391.972466 130.158656 
L 393.058267 108.000823 
L 394.144068 105.827472 
L 395.229869 132.576719 
L 396.31567 102.970601 
L 397.401472 114.427819 
L 398.487273 101.057886 
L 398.487273 101.057886 
" style="fill:none;stroke:#0000ff;stroke-linecap:square;stroke-width:1.5;"/>
   </g>
   <g id="line2d_32">
    <path clip-path="url(#p066a478175)" d="M 73.832727 295.488 
L 74.918528 205.574265 
L 76.00433 208.918639 
L 77.090131 190.824091 
L 78.175932 212.832321 
L 79.261733 195.699611 
L 80.347534 226.9458 
L 81.433335 238.657 
L 82.519137 260.378029 
L 83.604938 274.990388 
L 84.690739 248.838371 
L 85.77654 240.866106 
L 86.862341 253.512239 
L 87.948142 259.903136 
L 89.033943 247.988675 
L 90.119745 293.160095 
L 91.205546 251.926924 
L 92.291347 265.652598 
L 93.377148 292.509034 
L 94.462949 236.475018 
L 95.54875 268.250377 
L 96.634552 226.048207 
L 97.720353 273.36817 
L 98.806154 251.80552 
L 99.891955 249.118978 
L 100.977756 257.530381 
L 102.063557 283.991616 
L 103.149358 270.718358 
L 104.23516 288.648052 
L 105.320961 238.943436 
L 106.406762 270.184127 
L 107.492563 263.270025 
L 108.578364 258.512903 
L 109.664165 229.365522 
L 110.749967 227.51035 
L 111.835768 226.889141 
L 112.921569 234.844685 
L 114.00737 260.451759 
L 115.093171 227.529083 
L 116.178972 213.029985 
L 117.264773 202.307253 
L 118.350575 207.729705 
L 119.436376 198.374234 
L 120.522177 202.472647 
L 121.607978 215.010211 
L 122.693779 216.690508 
L 123.77958 184.29084 
L 124.865382 220.332222 
L 127.036984 209.808087 
L 128.122785 206.922022 
L 129.208586 194.774152 
L 130.294387 186.969462 
L 131.380189 183.855165 
L 132.46599 210.041998 
L 133.551791 204.955837 
L 134.637592 201.766844 
L 136.809194 159.038111 
L 137.894995 188.258567 
L 138.980797 185.823025 
L 140.066598 222.007809 
L 141.152399 204.839674 
L 142.2382 168.606218 
L 143.324001 157.696452 
L 144.409802 184.773642 
L 145.495604 186.610612 
L 146.581405 161.995997 
L 147.667206 166.840705 
L 149.838808 208.810276 
L 152.01041 166.245757 
L 153.096212 193.879516 
L 154.182013 163.166943 
L 155.267814 179.243272 
L 156.353615 162.067393 
L 157.439416 183.845283 
L 158.525217 161.279024 
L 159.611019 160.703231 
L 160.69682 150.408261 
L 161.782621 182.56895 
L 162.868422 146.179338 
L 163.954223 167.264229 
L 166.125825 176.891699 
L 167.211627 159.429578 
L 168.297428 183.505152 
L 169.383229 166.820798 
L 170.46903 188.227261 
L 171.554831 184.651716 
L 172.640632 168.379439 
L 173.726434 168.282528 
L 174.812235 162.839492 
L 175.898036 183.663698 
L 176.983837 182.026535 
L 178.069638 163.723441 
L 179.155439 166.71032 
L 180.24124 200.044625 
L 181.327042 168.414244 
L 182.412843 155.821357 
L 183.498644 170.882145 
L 184.584445 170.394152 
L 185.670246 174.504421 
L 186.756047 154.443767 
L 187.841849 153.109727 
L 188.92765 219.946486 
L 190.013451 163.224338 
L 191.099252 175.948959 
L 192.185053 174.644915 
L 193.270854 170.836504 
L 194.356656 168.642865 
L 195.442457 169.862274 
L 196.528258 174.710229 
L 197.614059 165.808899 
L 198.69986 178.672435 
L 199.785661 165.980249 
L 200.871462 157.810037 
L 201.957264 156.987756 
L 203.043065 173.486832 
L 204.128866 157.796072 
L 205.214667 170.769882 
L 206.300468 186.999004 
L 207.386269 140.845502 
L 208.472071 177.52234 
L 209.557872 181.280205 
L 210.643673 177.113895 
L 211.729474 158.984825 
L 212.815275 180.45949 
L 213.901076 172.358859 
L 214.986877 177.893437 
L 216.072679 175.907288 
L 217.15848 167.331121 
L 218.244281 179.866088 
L 219.330082 148.27898 
L 220.415883 192.672431 
L 221.501684 169.712423 
L 222.587486 181.745103 
L 223.673287 157.476928 
L 224.759088 186.954485 
L 225.844889 157.532706 
L 226.93069 168.341877 
L 228.016491 177.720419 
L 229.102292 169.556446 
L 230.188094 174.609388 
L 231.273895 174.549767 
L 232.359696 175.39232 
L 233.445497 170.709919 
L 234.531298 172.457057 
L 235.617099 180.210606 
L 236.702901 179.358597 
L 237.788702 155.936543 
L 238.874503 147.544643 
L 239.960304 145.805384 
L 241.046105 153.427053 
L 242.131906 170.977298 
L 243.217708 164.132075 
L 244.303509 144.861726 
L 245.38931 152.378855 
L 246.475111 161.176033 
L 247.560912 174.318416 
L 249.732514 160.938975 
L 250.818316 173.135258 
L 251.904117 188.430838 
L 252.989918 198.496798 
L 254.075719 161.048192 
L 255.16152 168.480828 
L 256.247321 159.339333 
L 257.333123 212.005348 
L 258.418924 193.332757 
L 259.504725 171.93978 
L 260.590526 187.19145 
L 261.676327 188.286392 
L 262.762128 170.188162 
L 263.847929 186.138699 
L 264.933731 190.665208 
L 266.019532 179.632259 
L 267.105333 162.386736 
L 268.191134 177.323495 
L 269.276935 160.681253 
L 270.362736 153.890315 
L 271.448538 164.536901 
L 272.534339 147.24167 
L 273.62014 168.807124 
L 274.705941 140.390262 
L 275.791742 140.443307 
L 276.877543 172.149474 
L 277.963344 155.428457 
L 279.049146 148.941478 
L 280.134947 160.186508 
L 281.220748 184.000403 
L 282.306549 155.486407 
L 283.39235 180.133793 
L 284.478151 140.215379 
L 285.563953 173.740627 
L 286.649754 187.235942 
L 287.735555 162.853954 
L 288.821356 151.144326 
L 289.907157 172.814056 
L 290.992958 147.493764 
L 292.07876 153.358446 
L 293.164561 135.104134 
L 294.250362 166.596988 
L 295.336163 144.633758 
L 296.421964 158.096628 
L 297.507765 153.96063 
L 298.593566 146.635391 
L 299.679368 133.166718 
L 300.765169 147.445868 
L 301.85097 146.454224 
L 302.936771 147.81194 
L 304.022572 187.542706 
L 305.108373 183.07588 
L 306.194175 146.379739 
L 307.279976 160.765827 
L 308.365777 157.930995 
L 309.451578 134.355352 
L 310.537379 156.513094 
L 311.62318 157.258595 
L 312.708981 138.755433 
L 313.794783 167.853199 
L 314.880584 150.06583 
L 315.966385 152.656149 
L 317.052186 168.157796 
L 318.137987 155.297301 
L 319.223788 177.221781 
L 320.30959 152.880185 
L 321.395391 150.191092 
L 322.481192 151.716789 
L 323.566993 144.617 
L 324.652794 169.406079 
L 325.738595 149.313962 
L 326.824396 175.994044 
L 327.910198 161.999508 
L 328.995999 155.073995 
L 330.0818 170.036764 
L 331.167601 151.535583 
L 332.253402 149.238316 
L 333.339203 149.752838 
L 334.425005 168.877383 
L 335.510806 143.049821 
L 336.596607 170.182333 
L 337.682408 167.681392 
L 338.768209 138.129702 
L 339.85401 129.153824 
L 340.939811 148.207545 
L 342.025613 155.753526 
L 343.111414 165.94701 
L 344.197215 160.881411 
L 345.283016 148.11834 
L 346.368817 185.914988 
L 347.454618 169.893789 
L 348.54042 192.861554 
L 349.626221 169.933075 
L 350.712022 165.189054 
L 351.797823 193.329465 
L 352.883624 121.697702 
L 353.969425 135.198502 
L 355.055227 128.616542 
L 356.141028 148.954838 
L 357.226829 135.917727 
L 358.31263 150.361815 
L 359.398431 139.455103 
L 360.484232 166.148818 
L 361.570033 144.781743 
L 362.655835 144.788949 
L 363.741636 122.264038 
L 364.827437 146.380144 
L 365.913238 152.92226 
L 366.999039 176.953098 
L 368.08484 136.305158 
L 369.170642 151.646698 
L 370.256443 136.614971 
L 371.342244 136.85773 
L 372.428045 152.090574 
L 373.513846 165.275554 
L 374.599647 147.3487 
L 375.685448 142.418162 
L 376.77125 132.214647 
L 377.857051 164.106184 
L 378.942852 153.592178 
L 380.028653 141.277895 
L 381.114454 154.543879 
L 382.200255 145.639065 
L 383.286057 117.925212 
L 384.371858 130.350325 
L 385.457659 166.059215 
L 386.54346 126.550311 
L 387.629261 126.499965 
L 388.715062 151.749384 
L 389.800863 146.37042 
L 390.886665 120.14434 
L 391.972466 183.093596 
L 393.058267 137.274553 
L 394.144068 140.16073 
L 395.229869 179.792894 
L 396.31567 135.815314 
L 397.401472 158.120941 
L 398.487273 140.951526 
L 398.487273 140.951526 
" style="fill:none;stroke:#008000;stroke-dasharray:9.6,2.4,1.5,2.4;stroke-dashoffset:0;stroke-width:1.5;"/>
   </g>
   <g id="line2d_33">
    <path clip-path="url(#p066a478175)" d="M 73.832727 283.896204 
L 74.918528 187.043318 
L 76.00433 192.563513 
L 77.090131 170.938859 
L 78.175932 182.447315 
L 79.261733 169.411508 
L 80.347534 174.23678 
L 81.433335 171.382062 
L 82.519137 153.5197 
L 83.604938 174.358465 
L 84.690739 155.822421 
L 85.77654 168.513536 
L 86.862341 169.104307 
L 87.948142 180.434794 
L 89.033943 159.66477 
L 90.119745 156.838155 
L 91.205546 173.293983 
L 93.377148 145.415589 
L 94.462949 166.533051 
L 95.54875 136.547638 
L 97.720353 131.66222 
L 98.806154 131.995656 
L 99.891955 125.174776 
L 100.977756 165.468799 
L 102.063557 140.489489 
L 103.149358 153.191182 
L 104.23516 143.014598 
L 105.320961 163.921203 
L 106.406762 148.550915 
L 107.492563 124.457732 
L 108.578364 159.639797 
L 109.664165 143.224479 
L 111.835768 158.075344 
L 112.921569 144.879043 
L 114.00737 172.992443 
L 115.093171 167.152755 
L 116.178972 153.024243 
L 117.264773 129.051797 
L 118.350575 140.203096 
L 119.436376 129.447436 
L 120.522177 139.726301 
L 121.607978 153.981354 
L 122.693779 133.605814 
L 123.77958 141.927191 
L 124.865382 137.721627 
L 125.951183 119.450068 
L 127.036984 143.016341 
L 128.122785 141.061457 
L 129.208586 148.872901 
L 130.294387 139.864074 
L 131.380189 133.068767 
L 132.46599 144.822557 
L 133.551791 132.288872 
L 134.637592 128.596523 
L 135.723393 140.226535 
L 136.809194 117.771308 
L 137.894995 131.041651 
L 138.980797 110.888532 
L 140.066598 140.166585 
L 141.152399 134.293853 
L 142.2382 113.522357 
L 143.324001 113.686575 
L 144.409802 110.941997 
L 145.495604 133.673519 
L 146.581405 117.223597 
L 147.667206 111.981091 
L 149.838808 160.889974 
L 150.924609 128.440889 
L 152.01041 111.7105 
L 153.096212 107.82966 
L 154.182013 114.255477 
L 155.267814 115.67254 
L 156.353615 114.621424 
L 157.439416 107.82149 
L 158.525217 113.587964 
L 159.611019 112.135082 
L 160.69682 108.829875 
L 161.782621 130.733451 
L 162.868422 105.531674 
L 163.954223 115.391094 
L 165.040024 122.270898 
L 166.125825 115.9954 
L 167.211627 97.242033 
L 168.297428 146.134335 
L 169.383229 109.625248 
L 171.554831 135.367979 
L 172.640632 101.580914 
L 173.726434 82.193762 
L 174.812235 109.339463 
L 175.898036 101.98426 
L 176.983837 138.89011 
L 178.069638 95.807291 
L 179.155439 122.919796 
L 180.24124 124.553092 
L 181.327042 106.831656 
L 182.412843 107.358825 
L 183.498644 122.1588 
L 184.584445 92.576747 
L 185.670246 110.953349 
L 187.841849 90.451679 
L 188.92765 150.021408 
L 190.013451 99.397778 
L 191.099252 117.075634 
L 192.185053 118.010059 
L 193.270854 115.554534 
L 194.356656 124.473361 
L 195.442457 112.094317 
L 196.528258 111.588694 
L 197.614059 108.88815 
L 198.69986 118.983262 
L 199.785661 118.638444 
L 200.871462 101.576119 
L 201.957264 107.497454 
L 203.043065 94.679454 
L 204.128866 108.95188 
L 205.214667 112.415413 
L 206.300468 120.893111 
L 207.386269 103.44412 
L 208.472071 124.815038 
L 209.557872 106.256754 
L 210.643673 105.834147 
L 211.729474 107.87258 
L 212.815275 103.844634 
L 213.901076 124.284765 
L 214.986877 128.210512 
L 216.072679 121.345102 
L 217.15848 121.53722 
L 218.244281 108.116845 
L 219.330082 90.585246 
L 220.415883 124.99707 
L 221.501684 92.78823 
L 222.587486 142.024551 
L 223.673287 99.750391 
L 224.759088 129.257873 
L 225.844889 113.618684 
L 226.93069 124.066146 
L 228.016491 91.230928 
L 229.102292 108.538548 
L 230.188094 96.640834 
L 231.273895 116.825389 
L 232.359696 99.57822 
L 233.445497 116.713956 
L 234.531298 112.194141 
L 235.617099 127.410832 
L 236.702901 97.209566 
L 237.788702 96.922287 
L 238.874503 104.390427 
L 239.960304 96.364305 
L 241.046105 104.195818 
L 242.131906 102.556762 
L 243.217708 112.403164 
L 244.303509 103.152206 
L 245.38931 106.794407 
L 246.475111 102.095464 
L 247.560912 122.931464 
L 249.732514 105.74716 
L 250.818316 106.82512 
L 251.904117 120.510524 
L 252.989918 116.557592 
L 254.075719 94.090481 
L 255.16152 116.357786 
L 256.247321 100.184412 
L 257.333123 137.915205 
L 258.418924 87.476296 
L 259.504725 102.439775 
L 260.590526 123.627023 
L 261.676327 101.974719 
L 262.762128 107.708015 
L 263.847929 97.146421 
L 264.933731 129.432131 
L 266.019532 98.442484 
L 267.105333 104.718673 
L 268.191134 105.804887 
L 269.276935 109.233952 
L 270.362736 97.60921 
L 271.448538 108.527137 
L 272.534339 82.246924 
L 273.62014 123.175616 
L 274.705941 80.597002 
L 275.791742 98.612418 
L 276.877543 92.942778 
L 277.963344 104.277223 
L 279.049146 99.40651 
L 280.134947 106.154432 
L 281.220748 99.136185 
L 282.306549 73.408275 
L 283.39235 117.984111 
L 284.478151 87.373534 
L 285.563953 117.812968 
L 286.649754 81.92426 
L 287.735555 100.373026 
L 289.907157 106.840117 
L 290.992958 88.498979 
L 292.07876 99.880556 
L 293.164561 70.458897 
L 294.250362 92.180921 
L 295.336163 108.043924 
L 296.421964 85.567269 
L 297.507765 101.747614 
L 298.593566 92.153087 
L 299.679368 80.648599 
L 300.765169 95.254877 
L 301.85097 81.051075 
L 302.936771 95.253966 
L 304.022572 86.765254 
L 305.108373 82.029355 
L 306.194175 100.929843 
L 307.279976 110.312002 
L 308.365777 84.597217 
L 309.451578 73.579855 
L 310.537379 100.877275 
L 311.62318 69.473547 
L 312.708981 82.711375 
L 313.794783 84.050144 
L 314.880584 91.466558 
L 315.966385 102.931392 
L 317.052186 117.892501 
L 318.137987 102.503744 
L 319.223788 118.1756 
L 320.30959 93.189078 
L 321.395391 82.025315 
L 322.481192 106.638963 
L 323.566993 93.410029 
L 324.652794 101.097711 
L 325.738595 84.074897 
L 326.824396 100.447533 
L 327.910198 92.467408 
L 328.995999 103.237406 
L 330.0818 110.624932 
L 331.167601 93.856275 
L 332.253402 100.227609 
L 333.339203 83.292773 
L 334.425005 95.720701 
L 335.510806 91.395016 
L 336.596607 92.210332 
L 337.682408 99.937991 
L 338.768209 92.706049 
L 339.85401 90.559033 
L 340.939811 94.579646 
L 342.025613 103.889475 
L 343.111414 117.822602 
L 344.197215 78.014883 
L 345.283016 86.824616 
L 346.368817 112.1429 
L 347.454618 95.137015 
L 348.54042 98.298045 
L 349.626221 115.000467 
L 350.712022 100.126878 
L 351.797823 93.568835 
L 352.883624 71.483218 
L 353.969425 65.199686 
L 355.055227 77.338503 
L 356.141028 81.393854 
L 357.226829 80.459247 
L 358.31263 87.410558 
L 359.398431 53.568 
L 360.484232 75.005648 
L 361.570033 90.637348 
L 362.655835 86.817539 
L 363.741636 74.505633 
L 364.827437 77.483655 
L 365.913238 65.392954 
L 366.999039 68.361594 
L 369.170642 84.209061 
L 370.256443 86.73934 
L 371.342244 79.285732 
L 372.428045 81.591315 
L 373.513846 78.812358 
L 374.599647 84.509016 
L 375.685448 94.35448 
L 376.77125 80.634695 
L 377.857051 75.702157 
L 378.942852 68.093949 
L 380.028653 88.478792 
L 381.114454 83.71412 
L 382.200255 88.548614 
L 383.286057 68.421436 
L 384.371858 81.676387 
L 385.457659 64.760627 
L 386.54346 77.113991 
L 387.629261 87.388254 
L 388.715062 102.434023 
L 389.800863 80.928061 
L 390.886665 65.156624 
L 391.972466 77.223716 
L 393.058267 78.727094 
L 394.144068 71.494214 
L 395.229869 85.360545 
L 396.31567 70.125889 
L 397.401472 70.734697 
L 398.487273 61.164245 
L 398.487273 61.164245 
" style="fill:none;stroke:#008000;stroke-dasharray:9.6,2.4,1.5,2.4;stroke-dashoffset:0;stroke-width:1.5;"/>
   </g>
   <g id="line2d_34">
    <path clip-path="url(#p066a478175)" d="M 73.832727 278.725706 
L 74.918528 169.268453 
L 76.00433 185.146913 
L 77.090131 161.810578 
L 78.175932 175.047253 
L 79.261733 162.260184 
L 80.347534 173.833119 
L 81.433335 161.261909 
L 82.519137 156.908335 
L 83.604938 181.887002 
L 84.690739 162.934296 
L 85.77654 168.165061 
L 86.862341 168.227391 
L 87.948142 171.191913 
L 89.033943 164.71446 
L 90.119745 164.933107 
L 91.205546 168.942469 
L 92.291347 169.578028 
L 93.377148 140.367976 
L 94.462949 168.183973 
L 95.54875 157.59177 
L 96.634552 151.678416 
L 97.720353 136.907612 
L 98.806154 146.100661 
L 99.891955 142.196786 
L 100.977756 167.270239 
L 102.063557 146.970392 
L 103.149358 156.591047 
L 104.23516 143.089965 
L 105.320961 158.0617 
L 106.406762 142.82936 
L 107.492563 119.883898 
L 108.578364 146.898745 
L 109.664165 133.642722 
L 110.749967 148.500403 
L 111.835768 153.408951 
L 112.921569 142.001627 
L 114.00737 162.884767 
L 115.093171 159.381826 
L 117.264773 124.040502 
L 118.350575 132.553728 
L 119.436376 125.671128 
L 120.522177 134.231428 
L 121.607978 151.288526 
L 122.693779 125.795996 
L 123.77958 143.44075 
L 124.865382 139.027922 
L 125.951183 122.180449 
L 127.036984 139.630687 
L 128.122785 127.537119 
L 129.208586 135.2501 
L 130.294387 121.771368 
L 131.380189 111.365426 
L 132.46599 148.717274 
L 133.551791 130.571523 
L 134.637592 122.380293 
L 135.723393 134.806315 
L 136.809194 112.963244 
L 137.894995 120.96247 
L 138.980797 99.128763 
L 140.066598 134.767802 
L 141.152399 130.129795 
L 142.2382 106.108367 
L 143.324001 103.529796 
L 144.409802 109.605923 
L 145.495604 129.659301 
L 146.581405 112.849131 
L 147.667206 102.719136 
L 149.838808 155.091198 
L 152.01041 101.601218 
L 153.096212 112.811383 
L 154.182013 107.196586 
L 155.267814 93.525822 
L 156.353615 104.089659 
L 157.439416 104.991171 
L 158.525217 102.329714 
L 159.611019 105.360533 
L 160.69682 102.731281 
L 161.782621 124.532577 
L 162.868422 100.227706 
L 163.954223 116.780466 
L 165.040024 119.59644 
L 166.125825 112.441668 
L 167.211627 99.753351 
L 168.297428 134.934225 
L 169.383229 104.480542 
L 170.46903 122.350791 
L 171.554831 128.783509 
L 172.640632 100.842811 
L 173.726434 88.637047 
L 174.812235 104.992038 
L 175.898036 97.644071 
L 176.983837 127.812634 
L 178.069638 103.727238 
L 179.155439 119.698207 
L 180.24124 120.213257 
L 181.327042 99.050807 
L 182.412843 94.325994 
L 183.498644 118.005409 
L 184.584445 90.456247 
L 185.670246 108.530459 
L 186.756047 85.993935 
L 187.841849 91.283124 
L 188.92765 146.659672 
L 190.013451 98.447141 
L 191.099252 108.120056 
L 192.185053 110.658079 
L 193.270854 113.548513 
L 194.356656 122.315797 
L 195.442457 106.536002 
L 196.528258 111.333799 
L 197.614059 101.220144 
L 198.69986 118.336954 
L 199.785661 106.532191 
L 200.871462 96.499963 
L 201.957264 100.21279 
L 203.043065 88.491462 
L 204.128866 103.997206 
L 205.214667 104.407429 
L 206.300468 108.525576 
L 207.386269 99.54981 
L 208.472071 120.353575 
L 209.557872 108.780914 
L 210.643673 103.651071 
L 211.729474 102.836624 
L 212.815275 109.496285 
L 213.901076 118.129965 
L 214.986877 125.373466 
L 216.072679 121.277264 
L 217.15848 113.147897 
L 218.244281 110.76171 
L 219.330082 87.338375 
L 220.415883 116.43131 
L 221.501684 94.876986 
L 222.587486 136.222952 
L 223.673287 98.494338 
L 224.759088 128.401445 
L 225.844889 112.87992 
L 226.93069 117.318392 
L 228.016491 89.776768 
L 229.102292 94.300921 
L 230.188094 95.859464 
L 231.273895 106.384767 
L 232.359696 94.535695 
L 233.445497 115.02044 
L 234.531298 109.748143 
L 235.617099 119.220189 
L 236.702901 96.023481 
L 237.788702 100.478691 
L 238.874503 102.718152 
L 239.960304 96.655393 
L 241.046105 96.169115 
L 242.131906 107.901095 
L 243.217708 106.86181 
L 244.303509 101.936177 
L 245.38931 100.05769 
L 246.475111 100.704183 
L 247.560912 119.117095 
L 248.646713 107.775994 
L 249.732514 99.104634 
L 250.818316 102.764228 
L 251.904117 109.633877 
L 252.989918 113.070997 
L 254.075719 92.403642 
L 255.16152 112.479642 
L 256.247321 100.64027 
L 257.333123 136.005001 
L 258.418924 99.810947 
L 259.504725 92.040915 
L 260.590526 117.988171 
L 261.676327 101.597681 
L 262.762128 104.210749 
L 263.847929 88.871244 
L 264.933731 122.501425 
L 266.019532 86.003397 
L 267.105333 100.420187 
L 268.191134 106.766979 
L 269.276935 103.360908 
L 270.362736 94.198694 
L 271.448538 104.995334 
L 272.534339 85.973684 
L 273.62014 120.156971 
L 274.705941 76.882772 
L 275.791742 86.866125 
L 276.877543 89.5227 
L 277.963344 99.991449 
L 279.049146 86.847785 
L 280.134947 95.881822 
L 281.220748 98.220543 
L 282.306549 77.894416 
L 283.39235 117.919979 
L 284.478151 77.182464 
L 285.563953 113.595173 
L 286.649754 87.915402 
L 287.735555 96.802381 
L 288.821356 96.446573 
L 289.907157 110.450017 
L 290.992958 86.158135 
L 292.07876 97.44969 
L 293.164561 73.151155 
L 294.250362 90.903237 
L 295.336163 105.986406 
L 296.421964 83.845045 
L 297.507765 92.675274 
L 298.593566 87.241143 
L 299.679368 78.504974 
L 300.765169 92.576249 
L 301.85097 75.76298 
L 302.936771 93.913519 
L 304.022572 90.881015 
L 305.108373 85.725851 
L 306.194175 88.09923 
L 307.279976 110.813625 
L 308.365777 81.045011 
L 309.451578 76.427255 
L 310.537379 97.321965 
L 311.62318 65.045133 
L 313.794783 85.283543 
L 314.880584 86.598339 
L 315.966385 99.392701 
L 317.052186 117.743241 
L 318.137987 99.141152 
L 319.223788 116.737493 
L 320.30959 92.02752 
L 321.395391 76.757637 
L 322.481192 103.426879 
L 323.566993 88.544483 
L 324.652794 101.956274 
L 325.738595 83.057096 
L 326.824396 111.231373 
L 327.910198 87.619953 
L 328.995999 97.261916 
L 330.0818 99.143875 
L 331.167601 89.486502 
L 332.253402 96.577399 
L 333.339203 76.39344 
L 334.425005 93.222194 
L 335.510806 89.620569 
L 336.596607 103.252531 
L 337.682408 107.69826 
L 338.768209 86.029468 
L 339.85401 89.37475 
L 340.939811 97.608476 
L 342.025613 92.649827 
L 343.111414 108.191603 
L 344.197215 91.345247 
L 345.283016 83.42618 
L 346.368817 113.336128 
L 347.454618 104.083456 
L 348.54042 112.33405 
L 349.626221 113.612744 
L 350.712022 104.585179 
L 351.797823 96.505535 
L 352.883624 65.834321 
L 353.969425 67.00064 
L 355.055227 73.380484 
L 356.141028 78.328576 
L 357.226829 78.357909 
L 358.31263 88.322974 
L 359.398431 68.37187 
L 360.484232 79.655942 
L 361.570033 87.381076 
L 362.655835 83.785736 
L 363.741636 71.825723 
L 364.827437 78.226033 
L 365.913238 71.108426 
L 366.999039 76.533432 
L 368.08484 62.341823 
L 369.170642 73.331377 
L 370.256443 78.909737 
L 371.342244 71.419311 
L 372.428045 77.671611 
L 373.513846 75.641677 
L 374.599647 73.027537 
L 375.685448 77.82136 
L 376.77125 73.727451 
L 377.857051 81.237012 
L 378.942852 66.217395 
L 380.028653 75.790434 
L 381.114454 73.27429 
L 382.200255 77.409824 
L 383.286057 62.325255 
L 384.371858 74.339957 
L 385.457659 75.003696 
L 386.54346 70.79747 
L 387.629261 84.530677 
L 388.715062 94.828429 
L 389.800863 80.863573 
L 390.886665 65.166433 
L 391.972466 86.081934 
L 393.058267 75.912701 
L 394.144068 71.050369 
L 395.229869 80.813576 
L 396.31567 70.607343 
L 397.401472 84.767142 
L 398.487273 64.849745 
L 398.487273 64.849745 
" style="fill:none;stroke:#ff0000;stroke-linecap:square;stroke-width:1.5;"/>
   </g>
   <g id="patch_3">
    <path d="M 57.6 307.584 
L 57.6 41.472 
" style="fill:none;stroke:#000000;stroke-linecap:square;stroke-linejoin:miter;stroke-width:0.8;"/>
   </g>
   <g id="patch_4">
    <path d="M 414.72 307.584 
L 414.72 41.472 
" style="fill:none;stroke:#000000;stroke-linecap:square;stroke-linejoin:miter;stroke-width:0.8;"/>
   </g>
   <g id="patch_5">
    <path d="M 57.6 307.584 
L 414.72 307.584 
" style="fill:none;stroke:#000000;stroke-linecap:square;stroke-linejoin:miter;stroke-width:0.8;"/>
   </g>
   <g id="patch_6">
    <path d="M 57.6 41.472 
L 414.72 41.472 
" style="fill:none;stroke:#000000;stroke-linecap:square;stroke-linejoin:miter;stroke-width:0.8;"/>
   </g>
   <g id="text_18">
    <!-- Population's average and best fitness -->
    <defs>
     <path d="M 19.671875 64.796875 
L 19.671875 37.40625 
L 32.078125 37.40625 
Q 38.96875 37.40625 42.71875 40.96875 
Q 46.484375 44.53125 46.484375 51.125 
Q 46.484375 57.671875 42.71875 61.234375 
Q 38.96875 64.796875 32.078125 64.796875 
z
M 9.8125 72.90625 
L 32.078125 72.90625 
Q 44.34375 72.90625 50.609375 67.359375 
Q 56.890625 61.8125 56.890625 51.125 
Q 56.890625 40.328125 50.609375 34.8125 
Q 44.34375 29.296875 32.078125 29.296875 
L 19.671875 29.296875 
L 19.671875 0 
L 9.8125 0 
z
" id="DejaVuSans-80"/>
     <path d="M 18.109375 8.203125 
L 18.109375 -20.796875 
L 9.078125 -20.796875 
L 9.078125 54.6875 
L 18.109375 54.6875 
L 18.109375 46.390625 
Q 20.953125 51.265625 25.265625 53.625 
Q 29.59375 56 35.59375 56 
Q 45.5625 56 51.78125 48.09375 
Q 58.015625 40.1875 58.015625 27.296875 
Q 58.015625 14.40625 51.78125 6.484375 
Q 45.5625 -1.421875 35.59375 -1.421875 
Q 29.59375 -1.421875 25.265625 0.953125 
Q 20.953125 3.328125 18.109375 8.203125 
z
M 48.6875 27.296875 
Q 48.6875 37.203125 44.609375 42.84375 
Q 40.53125 48.484375 33.40625 48.484375 
Q 26.265625 48.484375 22.1875 42.84375 
Q 18.109375 37.203125 18.109375 27.296875 
Q 18.109375 17.390625 22.1875 11.75 
Q 26.265625 6.109375 33.40625 6.109375 
Q 40.53125 6.109375 44.609375 11.75 
Q 48.6875 17.390625 48.6875 27.296875 
z
" id="DejaVuSans-112"/>
     <path d="M 8.5 21.578125 
L 8.5 54.6875 
L 17.484375 54.6875 
L 17.484375 21.921875 
Q 17.484375 14.15625 20.5 10.265625 
Q 23.53125 6.390625 29.59375 6.390625 
Q 36.859375 6.390625 41.078125 11.03125 
Q 45.3125 15.671875 45.3125 23.6875 
L 45.3125 54.6875 
L 54.296875 54.6875 
L 54.296875 0 
L 45.3125 0 
L 45.3125 8.40625 
Q 42.046875 3.421875 37.71875 1 
Q 33.40625 -1.421875 27.6875 -1.421875 
Q 18.265625 -1.421875 13.375 4.4375 
Q 8.5 10.296875 8.5 21.578125 
z
M 31.109375 56 
z
" id="DejaVuSans-117"/>
     <path d="M 9.421875 75.984375 
L 18.40625 75.984375 
L 18.40625 0 
L 9.421875 0 
z
" id="DejaVuSans-108"/>
     <path d="M 17.921875 72.90625 
L 17.921875 45.796875 
L 9.625 45.796875 
L 9.625 72.90625 
z
" id="DejaVuSans-39"/>
     <path id="DejaVuSans-32"/>
     <path d="M 2.984375 54.6875 
L 12.5 54.6875 
L 29.59375 8.796875 
L 46.6875 54.6875 
L 56.203125 54.6875 
L 35.6875 0 
L 23.484375 0 
z
" id="DejaVuSans-118"/>
     <path d="M 45.40625 27.984375 
Q 45.40625 37.75 41.375 43.109375 
Q 37.359375 48.484375 30.078125 48.484375 
Q 22.859375 48.484375 18.828125 43.109375 
Q 14.796875 37.75 14.796875 27.984375 
Q 14.796875 18.265625 18.828125 12.890625 
Q 22.859375 7.515625 30.078125 7.515625 
Q 37.359375 7.515625 41.375 12.890625 
Q 45.40625 18.265625 45.40625 27.984375 
z
M 54.390625 6.78125 
Q 54.390625 -7.171875 48.1875 -13.984375 
Q 42 -20.796875 29.203125 -20.796875 
Q 24.46875 -20.796875 20.265625 -20.09375 
Q 16.0625 -19.390625 12.109375 -17.921875 
L 12.109375 -9.1875 
Q 16.0625 -11.328125 19.921875 -12.34375 
Q 23.78125 -13.375 27.78125 -13.375 
Q 36.625 -13.375 41.015625 -8.765625 
Q 45.40625 -4.15625 45.40625 5.171875 
L 45.40625 9.625 
Q 42.625 4.78125 38.28125 2.390625 
Q 33.9375 0 27.875 0 
Q 17.828125 0 11.671875 7.65625 
Q 5.515625 15.328125 5.515625 27.984375 
Q 5.515625 40.671875 11.671875 48.328125 
Q 17.828125 56 27.875 56 
Q 33.9375 56 38.28125 53.609375 
Q 42.625 51.21875 45.40625 46.390625 
L 45.40625 54.6875 
L 54.390625 54.6875 
z
" id="DejaVuSans-103"/>
     <path d="M 45.40625 46.390625 
L 45.40625 75.984375 
L 54.390625 75.984375 
L 54.390625 0 
L 45.40625 0 
L 45.40625 8.203125 
Q 42.578125 3.328125 38.25 0.953125 
Q 33.9375 -1.421875 27.875 -1.421875 
Q 17.96875 -1.421875 11.734375 6.484375 
Q 5.515625 14.40625 5.515625 27.296875 
Q 5.515625 40.1875 11.734375 48.09375 
Q 17.96875 56 27.875 56 
Q 33.9375 56 38.25 53.625 
Q 42.578125 51.265625 45.40625 46.390625 
z
M 14.796875 27.296875 
Q 14.796875 17.390625 18.875 11.75 
Q 22.953125 6.109375 30.078125 6.109375 
Q 37.203125 6.109375 41.296875 11.75 
Q 45.40625 17.390625 45.40625 27.296875 
Q 45.40625 37.203125 41.296875 42.84375 
Q 37.203125 48.484375 30.078125 48.484375 
Q 22.953125 48.484375 18.875 42.84375 
Q 14.796875 37.203125 14.796875 27.296875 
z
" id="DejaVuSans-100"/>
     <path d="M 48.6875 27.296875 
Q 48.6875 37.203125 44.609375 42.84375 
Q 40.53125 48.484375 33.40625 48.484375 
Q 26.265625 48.484375 22.1875 42.84375 
Q 18.109375 37.203125 18.109375 27.296875 
Q 18.109375 17.390625 22.1875 11.75 
Q 26.265625 6.109375 33.40625 6.109375 
Q 40.53125 6.109375 44.609375 11.75 
Q 48.6875 17.390625 48.6875 27.296875 
z
M 18.109375 46.390625 
Q 20.953125 51.265625 25.265625 53.625 
Q 29.59375 56 35.59375 56 
Q 45.5625 56 51.78125 48.09375 
Q 58.015625 40.1875 58.015625 27.296875 
Q 58.015625 14.40625 51.78125 6.484375 
Q 45.5625 -1.421875 35.59375 -1.421875 
Q 29.59375 -1.421875 25.265625 0.953125 
Q 20.953125 3.328125 18.109375 8.203125 
L 18.109375 0 
L 9.078125 0 
L 9.078125 75.984375 
L 18.109375 75.984375 
z
" id="DejaVuSans-98"/>
     <path d="M 37.109375 75.984375 
L 37.109375 68.5 
L 28.515625 68.5 
Q 23.6875 68.5 21.796875 66.546875 
Q 19.921875 64.59375 19.921875 59.515625 
L 19.921875 54.6875 
L 34.71875 54.6875 
L 34.71875 47.703125 
L 19.921875 47.703125 
L 19.921875 0 
L 10.890625 0 
L 10.890625 47.703125 
L 2.296875 47.703125 
L 2.296875 54.6875 
L 10.890625 54.6875 
L 10.890625 58.5 
Q 10.890625 67.625 15.140625 71.796875 
Q 19.390625 75.984375 28.609375 75.984375 
z
" id="DejaVuSans-102"/>
    </defs>
    <g transform="translate(123.315 35.472)scale(0.12 -0.12)">
     <use xlink:href="#DejaVuSans-80"/>
     <use x="60.255859" xlink:href="#DejaVuSans-111"/>
     <use x="121.4375" xlink:href="#DejaVuSans-112"/>
     <use x="184.914062" xlink:href="#DejaVuSans-117"/>
     <use x="248.292969" xlink:href="#DejaVuSans-108"/>
     <use x="276.076172" xlink:href="#DejaVuSans-97"/>
     <use x="337.355469" xlink:href="#DejaVuSans-116"/>
     <use x="376.564453" xlink:href="#DejaVuSans-105"/>
     <use x="404.347656" xlink:href="#DejaVuSans-111"/>
     <use x="465.529297" xlink:href="#DejaVuSans-110"/>
     <use x="528.908203" xlink:href="#DejaVuSans-39"/>
     <use x="556.398438" xlink:href="#DejaVuSans-115"/>
     <use x="608.498047" xlink:href="#DejaVuSans-32"/>
     <use x="640.285156" xlink:href="#DejaVuSans-97"/>
     <use x="701.564453" xlink:href="#DejaVuSans-118"/>
     <use x="760.744141" xlink:href="#DejaVuSans-101"/>
     <use x="822.267578" xlink:href="#DejaVuSans-114"/>
     <use x="863.380859" xlink:href="#DejaVuSans-97"/>
     <use x="924.660156" xlink:href="#DejaVuSans-103"/>
     <use x="988.136719" xlink:href="#DejaVuSans-101"/>
     <use x="1049.660156" xlink:href="#DejaVuSans-32"/>
     <use x="1081.447266" xlink:href="#DejaVuSans-97"/>
     <use x="1142.726562" xlink:href="#DejaVuSans-110"/>
     <use x="1206.105469" xlink:href="#DejaVuSans-100"/>
     <use x="1269.582031" xlink:href="#DejaVuSans-32"/>
     <use x="1301.369141" xlink:href="#DejaVuSans-98"/>
     <use x="1364.845703" xlink:href="#DejaVuSans-101"/>
     <use x="1426.369141" xlink:href="#DejaVuSans-115"/>
     <use x="1478.46875" xlink:href="#DejaVuSans-116"/>
     <use x="1517.677734" xlink:href="#DejaVuSans-32"/>
     <use x="1549.464844" xlink:href="#DejaVuSans-102"/>
     <use x="1584.669922" xlink:href="#DejaVuSans-105"/>
     <use x="1612.453125" xlink:href="#DejaVuSans-116"/>
     <use x="1651.662109" xlink:href="#DejaVuSans-110"/>
     <use x="1715.041016" xlink:href="#DejaVuSans-101"/>
     <use x="1776.564453" xlink:href="#DejaVuSans-115"/>
     <use x="1828.664062" xlink:href="#DejaVuSans-115"/>
    </g>
   </g>
   <g id="legend_1">
    <g id="patch_7">
     <path d="M 334.779375 302.584 
L 407.72 302.584 
Q 409.72 302.584 409.72 300.584 
L 409.72 242.8715 
Q 409.72 240.8715 407.72 240.8715 
L 334.779375 240.8715 
Q 332.779375 240.8715 332.779375 242.8715 
L 332.779375 300.584 
Q 332.779375 302.584 334.779375 302.584 
z
" style="fill:#ffffff;opacity:0.8;stroke:#cccccc;stroke-linejoin:miter;"/>
    </g>
    <g id="line2d_35">
     <path d="M 336.779375 248.969937 
L 356.779375 248.969937 
" style="fill:none;stroke:#0000ff;stroke-linecap:square;stroke-width:1.5;"/>
    </g>
    <g id="line2d_36"/>
    <g id="text_19">
     <!-- average -->
     <g transform="translate(364.779375 252.469937)scale(0.1 -0.1)">
      <use xlink:href="#DejaVuSans-97"/>
      <use x="61.279297" xlink:href="#DejaVuSans-118"/>
      <use x="120.458984" xlink:href="#DejaVuSans-101"/>
      <use x="181.982422" xlink:href="#DejaVuSans-114"/>
      <use x="223.095703" xlink:href="#DejaVuSans-97"/>
      <use x="284.375" xlink:href="#DejaVuSans-103"/>
      <use x="347.851562" xlink:href="#DejaVuSans-101"/>
     </g>
    </g>
    <g id="line2d_37">
     <path d="M 336.779375 263.648062 
L 356.779375 263.648062 
" style="fill:none;stroke:#008000;stroke-dasharray:9.6,2.4,1.5,2.4;stroke-dashoffset:0;stroke-width:1.5;"/>
    </g>
    <g id="line2d_38"/>
    <g id="text_20">
     <!-- -1 sd -->
     <defs>
      <path d="M 4.890625 31.390625 
L 31.203125 31.390625 
L 31.203125 23.390625 
L 4.890625 23.390625 
z
" id="DejaVuSans-45"/>
     </defs>
     <g transform="translate(364.779375 267.148062)scale(0.1 -0.1)">
      <use xlink:href="#DejaVuSans-45"/>
      <use x="36.083984" xlink:href="#DejaVuSans-49"/>
      <use x="99.707031" xlink:href="#DejaVuSans-32"/>
      <use x="131.494141" xlink:href="#DejaVuSans-115"/>
      <use x="183.59375" xlink:href="#DejaVuSans-100"/>
     </g>
    </g>
    <g id="line2d_39">
     <path d="M 336.779375 278.326187 
L 356.779375 278.326187 
" style="fill:none;stroke:#008000;stroke-dasharray:9.6,2.4,1.5,2.4;stroke-dashoffset:0;stroke-width:1.5;"/>
    </g>
    <g id="line2d_40"/>
    <g id="text_21">
     <!-- +1 sd -->
     <defs>
      <path d="M 46 62.703125 
L 46 35.5 
L 73.1875 35.5 
L 73.1875 27.203125 
L 46 27.203125 
L 46 0 
L 37.796875 0 
L 37.796875 27.203125 
L 10.59375 27.203125 
L 10.59375 35.5 
L 37.796875 35.5 
L 37.796875 62.703125 
z
" id="DejaVuSans-43"/>
     </defs>
     <g transform="translate(364.779375 281.826187)scale(0.1 -0.1)">
      <use xlink:href="#DejaVuSans-43"/>
      <use x="83.789062" xlink:href="#DejaVuSans-49"/>
      <use x="147.412109" xlink:href="#DejaVuSans-32"/>
      <use x="179.199219" xlink:href="#DejaVuSans-115"/>
      <use x="231.298828" xlink:href="#DejaVuSans-100"/>
     </g>
    </g>
    <g id="line2d_41">
     <path d="M 336.779375 293.004312 
L 356.779375 293.004312 
" style="fill:none;stroke:#ff0000;stroke-linecap:square;stroke-width:1.5;"/>
    </g>
    <g id="line2d_42"/>
    <g id="text_22">
     <!-- best -->
     <g transform="translate(364.779375 296.504312)scale(0.1 -0.1)">
      <use xlink:href="#DejaVuSans-98"/>
      <use x="63.476562" xlink:href="#DejaVuSans-101"/>
      <use x="125" xlink:href="#DejaVuSans-115"/>
      <use x="177.099609" xlink:href="#DejaVuSans-116"/>
     </g>
    </g>
   </g>
  </g>
 </g>
 <defs>
  <clipPath id="p066a478175">
   <rect height="266.112" width="357.12" x="57.6" y="41.472"/>
  </clipPath>
 </defs>
</svg>
