<?xml version="1.0" encoding="utf-8" standalone="no"?>
<!DOCTYPE svg PUBLIC "-//W3C//DTD SVG 1.1//EN"
  "http://www.w3.org/Graphics/SVG/1.1/DTD/svg11.dtd">
<!-- Created with matplotlib (https://matplotlib.org/) -->
<svg height="345.6pt" version="1.1" viewBox="0 0 460.8 345.6" width="460.8pt" xmlns="http://www.w3.org/2000/svg" xmlns:xlink="http://www.w3.org/1999/xlink">
 <defs>
  <style type="text/css">
*{stroke-linecap:butt;stroke-linejoin:round;}
  </style>
 </defs>
 <g id="figure_1">
  <g id="patch_1">
   <path d="M 0 345.6 
L 460.8 345.6 
L 460.8 0 
L 0 0 
z
" style="fill:#ffffff;"/>
  </g>
  <g id="axes_1">
   <g id="patch_2">
    <path d="M 57.6 307.584 
L 414.72 307.584 
L 414.72 41.472 
L 57.6 41.472 
z
" style="fill:#ffffff;"/>
   </g>
   <g id="PolyCollection_1">
    <path clip-path="url(#p07de54c32d)" d="M 73.832727 263.248674 
L 73.832727 266.092318 
L 74.918528 272.149959 
L 76.00433 270.875941 
L 77.090131 270.103868 
L 78.175932 269.609816 
L 79.261733 267.773609 
L 80.347534 263.762824 
L 81.433335 267.883168 
L 82.519137 268.897935 
L 83.604938 273.956304 
L 84.690739 273.253158 
L 85.77654 276.576504 
L 86.862341 277.233993 
L 87.948142 277.613698 
L 89.033943 279.574654 
L 90.119745 271.901862 
L 91.205546 274.020045 
L 92.291347 270.109625 
L 93.377148 272.622838 
L 94.462949 266.981299 
L 95.54875 274.20623 
L 96.634552 260.367623 
L 97.720353 250.648819 
L 98.806154 220.494227 
L 99.891955 225.480633 
L 100.977756 204.38746 
L 102.063557 180.489192 
L 103.149358 160.603919 
L 104.23516 115.997655 
L 105.320961 135.234101 
L 106.406762 215.818545 
L 107.492563 258.423751 
L 108.578364 259.470363 
L 109.664165 265.87238 
L 110.749967 266.36636 
L 111.835768 260.524487 
L 112.921569 271.783313 
L 114.00737 274.726716 
L 115.093171 275.690554 
L 116.178972 274.6611 
L 117.264773 276.966568 
L 118.350575 276.043964 
L 119.436376 273.800062 
L 120.522177 271.656698 
L 121.607978 273.787398 
L 122.693779 274.750364 
L 123.77958 274.427114 
L 124.865382 280.172634 
L 125.951183 276.787006 
L 127.036984 276.884453 
L 128.122785 273.828572 
L 129.208586 273.952579 
L 130.294387 280.643099 
L 131.380189 276.738308 
L 132.46599 276.179362 
L 133.551791 273.91404 
L 134.637592 275.278612 
L 135.723393 277.022696 
L 136.809194 274.146208 
L 137.894995 278.03363 
L 138.980797 269.832631 
L 140.066598 271.153078 
L 141.152399 255.873061 
L 142.2382 269.883429 
L 143.324001 269.564875 
L 144.409802 276.029182 
L 145.495604 274.799978 
L 146.581405 276.090729 
L 147.667206 270.609857 
L 148.753007 268.380179 
L 149.838808 273.87555 
L 150.924609 272.518515 
L 152.01041 269.670932 
L 153.096212 267.310815 
L 154.182013 270.206584 
L 155.267814 262.730097 
L 156.353615 272.49117 
L 157.439416 275.474816 
L 158.525217 269.119439 
L 159.611019 292.555603 
L 160.69682 284.029634 
L 161.782621 286.215601 
L 162.868422 280.503245 
L 163.954223 283.528768 
L 165.040024 280.595723 
L 166.125825 280.602136 
L 167.211627 287.31331 
L 168.297428 284.71768 
L 169.383229 282.743202 
L 170.46903 287.579863 
L 171.554831 286.723646 
L 172.640632 287.806716 
L 173.726434 284.731784 
L 174.812235 293.33048 
L 175.898036 287.956395 
L 176.983837 287.52589 
L 178.069638 295.488 
L 179.155439 280.723363 
L 180.24124 276.225444 
L 181.327042 274.262316 
L 182.412843 282.811093 
L 183.498644 281.268684 
L 184.584445 277.226924 
L 185.670246 275.657838 
L 186.756047 280.147527 
L 187.841849 277.655095 
L 188.92765 273.410493 
L 190.013451 260.563997 
L 191.099252 242.47754 
L 192.185053 256.009227 
L 193.270854 240.710141 
L 194.356656 233.402996 
L 195.442457 214.550621 
L 196.528258 236.69885 
L 197.614059 213.007331 
L 198.69986 228.776244 
L 199.785661 247.905753 
L 200.871462 259.843381 
L 201.957264 251.248784 
L 203.043065 206.789043 
L 204.128866 216.554282 
L 205.214667 240.923986 
L 206.300468 238.944591 
L 207.386269 209.914882 
L 208.472071 234.600613 
L 209.557872 260.730382 
L 210.643673 275.33483 
L 211.729474 255.068189 
L 212.815275 270.640588 
L 213.901076 277.324052 
L 214.986877 273.163804 
L 216.072679 279.418443 
L 217.15848 271.104365 
L 218.244281 274.734311 
L 219.330082 275.821568 
L 220.415883 264.471209 
L 221.501684 265.935684 
L 222.587486 273.279712 
L 223.673287 261.250466 
L 224.759088 257.819547 
L 225.844889 274.406312 
L 226.93069 276.008347 
L 228.016491 256.29351 
L 229.102292 260.144774 
L 230.188094 274.146279 
L 231.273895 260.258769 
L 232.359696 261.168653 
L 233.445497 248.972445 
L 234.531298 263.810823 
L 235.617099 255.090959 
L 236.702901 257.780624 
L 237.788702 266.202432 
L 238.874503 250.462017 
L 239.960304 270.047348 
L 241.046105 267.642541 
L 242.131906 274.583523 
L 243.217708 254.40267 
L 244.303509 268.382509 
L 245.38931 231.992599 
L 246.475111 247.707632 
L 247.560912 235.329778 
L 248.646713 232.033792 
L 249.732514 214.673922 
L 250.818316 159.62652 
L 251.904117 161.886963 
L 252.989918 162.973445 
L 254.075719 178.365435 
L 255.16152 170.556167 
L 256.247321 210.162356 
L 257.333123 195.675364 
L 258.418924 203.813552 
L 259.504725 197.518564 
L 260.590526 200.072247 
L 261.676327 180.541529 
L 262.762128 210.304908 
L 263.847929 198.726074 
L 264.933731 200.823022 
L 266.019532 178.686753 
L 267.105333 190.362506 
L 268.191134 195.759258 
L 269.276935 207.09781 
L 270.362736 208.288251 
L 271.448538 206.648826 
L 272.534339 219.210821 
L 273.62014 215.05577 
L 274.705941 222.334587 
L 275.791742 217.211584 
L 276.877543 215.164705 
L 277.963344 222.635552 
L 279.049146 222.650656 
L 280.134947 215.536029 
L 281.220748 234.571223 
L 282.306549 222.784975 
L 283.39235 223.741528 
L 284.478151 201.957661 
L 285.563953 211.348772 
L 286.649754 233.930095 
L 287.735555 221.872759 
L 288.821356 216.015696 
L 289.907157 210.430747 
L 290.992958 206.83832 
L 292.07876 220.414177 
L 293.164561 225.488824 
L 294.250362 218.786882 
L 295.336163 217.869178 
L 296.421964 215.493831 
L 297.507765 209.768204 
L 298.593566 215.403645 
L 299.679368 206.620766 
L 300.765169 204.460591 
L 301.85097 190.803531 
L 302.936771 207.916943 
L 304.022572 194.753767 
L 305.108373 188.174347 
L 306.194175 196.836417 
L 307.279976 205.083356 
L 308.365777 189.940818 
L 309.451578 183.163601 
L 310.537379 197.427473 
L 311.62318 202.013553 
L 312.708981 204.735534 
L 313.794783 184.323747 
L 314.880584 170.002462 
L 315.966385 168.884799 
L 317.052186 177.126268 
L 318.137987 226.642663 
L 319.223788 225.781394 
L 320.30959 221.717807 
L 321.395391 221.992848 
L 322.481192 219.18288 
L 323.566993 207.095337 
L 324.652794 212.259338 
L 325.738595 223.277505 
L 326.824396 218.766496 
L 327.910198 211.662787 
L 328.995999 207.209818 
L 330.0818 203.120675 
L 331.167601 180.491026 
L 332.253402 194.373575 
L 333.339203 201.117279 
L 334.425005 187.492329 
L 335.510806 208.899475 
L 336.596607 221.504015 
L 337.682408 232.618908 
L 338.768209 215.624677 
L 339.85401 224.237812 
L 340.939811 224.95829 
L 342.025613 200.177406 
L 343.111414 192.717236 
L 344.197215 217.058139 
L 345.283016 216.51144 
L 346.368817 198.32426 
L 347.454618 206.068224 
L 348.54042 212.964749 
L 349.626221 204.282319 
L 350.712022 213.92465 
L 351.797823 194.31189 
L 352.883624 229.117047 
L 353.969425 216.973176 
L 355.055227 205.723662 
L 356.141028 215.131282 
L 357.226829 187.270333 
L 358.31263 193.009875 
L 359.398431 230.739807 
L 360.484232 186.478785 
L 361.570033 172.460635 
L 362.655835 199.593266 
L 363.741636 185.059662 
L 364.827437 182.387515 
L 365.913238 180.890693 
L 366.999039 170.089381 
L 368.08484 191.299702 
L 369.170642 192.360723 
L 370.256443 194.303162 
L 371.342244 204.033288 
L 372.428045 178.122691 
L 373.513846 173.154065 
L 374.599647 175.718843 
L 375.685448 180.962271 
L 376.77125 176.451491 
L 377.857051 181.718571 
L 378.942852 184.861029 
L 380.028653 167.803282 
L 381.114454 177.391273 
L 382.200255 178.540165 
L 383.286057 184.169685 
L 384.371858 181.845191 
L 385.457659 183.920734 
L 386.54346 191.58504 
L 387.629261 190.277151 
L 388.715062 185.112075 
L 389.800863 188.714441 
L 390.886665 191.241233 
L 391.972466 189.546076 
L 393.058267 190.069233 
L 394.144068 185.090476 
L 395.229869 175.136185 
L 396.31567 187.740231 
L 397.401472 179.118083 
L 398.487273 188.107708 
L 398.487273 99.533866 
L 398.487273 99.533866 
L 397.401472 119.509913 
L 396.31567 124.734128 
L 395.229869 112.883024 
L 394.144068 113.546924 
L 393.058267 119.425501 
L 391.972466 95.973153 
L 390.886665 120.233403 
L 389.800863 99.107316 
L 388.715062 107.224553 
L 387.629261 118.538729 
L 386.54346 124.21858 
L 385.457659 90.755814 
L 384.371858 105.677477 
L 383.286057 123.522985 
L 382.200255 101.830331 
L 381.114454 80.600591 
L 380.028653 95.78132 
L 378.942852 108.68371 
L 377.857051 95.256633 
L 376.77125 80.461728 
L 375.685448 95.68418 
L 374.599647 88.750115 
L 373.513846 82.093635 
L 372.428045 89.255042 
L 371.342244 106.818673 
L 370.256443 91.050871 
L 369.170642 87.13088 
L 368.08484 108.921017 
L 366.999039 85.224515 
L 365.913238 103.00593 
L 364.827437 151.008573 
L 363.741636 135.139608 
L 362.655835 142.200951 
L 361.570033 119.227782 
L 360.484232 95.374743 
L 359.398431 101.483754 
L 358.31263 157.485716 
L 357.226829 112.730649 
L 356.141028 139.486162 
L 355.055227 137.477626 
L 353.969425 122.93061 
L 352.883624 161.891587 
L 351.797823 102.882507 
L 350.712022 148.065056 
L 349.626221 138.206822 
L 348.54042 105.752863 
L 347.454618 129.509192 
L 346.368817 124.012597 
L 345.283016 119.795608 
L 344.197215 160.62381 
L 343.111414 154.997274 
L 342.025613 117.478843 
L 340.939811 149.20845 
L 339.85401 145.444792 
L 338.768209 194.962303 
L 337.682408 137.75562 
L 336.596607 156.989889 
L 335.510806 148.41352 
L 334.425005 117.683805 
L 333.339203 137.244595 
L 332.253402 109.296491 
L 331.167601 130.892103 
L 330.0818 158.05063 
L 328.995999 150.335719 
L 327.910198 142.231242 
L 326.824396 164.70249 
L 325.738595 144.125741 
L 324.652794 120.96133 
L 323.566993 143.28336 
L 322.481192 137.193188 
L 321.395391 142.303228 
L 320.30959 155.095438 
L 319.223788 165.129727 
L 318.137987 162.350617 
L 317.052186 92.908243 
L 315.966385 94.271642 
L 314.880584 106.735843 
L 313.794783 88.011255 
L 312.708981 131.537662 
L 311.62318 111.468457 
L 310.537379 149.768723 
L 309.451578 132.393476 
L 308.365777 115.192046 
L 307.279976 131.772196 
L 306.194175 102.592137 
L 305.108373 96.011305 
L 304.022572 107.314113 
L 302.936771 123.222984 
L 301.85097 104.015418 
L 300.765169 131.948719 
L 299.679368 123.757773 
L 298.593566 118.864244 
L 297.507765 126.059662 
L 296.421964 127.376073 
L 295.336163 139.160924 
L 294.250362 118.23688 
L 293.164561 141.395756 
L 292.07876 125.977676 
L 290.992958 130.593666 
L 289.907157 121.921501 
L 288.821356 128.929848 
L 287.735555 112.824106 
L 286.649754 113.757384 
L 285.563953 110.272672 
L 284.478151 142.43185 
L 283.39235 123.792815 
L 282.306549 124.639154 
L 281.220748 116.752635 
L 280.134947 124.978051 
L 279.049146 112.799801 
L 277.963344 122.885891 
L 276.877543 111.249651 
L 275.791742 123.312035 
L 274.705941 115.479959 
L 273.62014 98.555182 
L 272.534339 122.373577 
L 271.448538 92.642005 
L 270.362736 96.029983 
L 269.276935 103.406647 
L 268.191134 98.040494 
L 267.105333 84.130108 
L 266.019532 57.82671 
L 264.933731 88.333046 
L 263.847929 98.918607 
L 262.762128 100.916882 
L 261.676327 89.551608 
L 260.590526 100.068603 
L 259.504725 98.094234 
L 258.418924 98.788311 
L 257.333123 70.946167 
L 256.247321 142.383435 
L 255.16152 123.167797 
L 254.075719 122.547775 
L 252.989918 92.082472 
L 251.904117 105.699374 
L 250.818316 126.869409 
L 249.732514 186.08039 
L 248.646713 127.500007 
L 247.560912 160.815269 
L 246.475111 174.104226 
L 245.38931 163.588893 
L 244.303509 190.318099 
L 243.217708 178.931615 
L 242.131906 207.256828 
L 241.046105 173.386574 
L 239.960304 220.350552 
L 238.874503 211.857951 
L 237.788702 167.627764 
L 236.702901 157.131939 
L 235.617099 208.209404 
L 234.531298 146.387936 
L 233.445497 172.666612 
L 232.359696 172.472456 
L 231.273895 204.864317 
L 230.188094 209.157968 
L 229.102292 143.639695 
L 228.016491 175.141237 
L 226.93069 167.79328 
L 225.844889 207.85238 
L 224.759088 174.988415 
L 223.673287 217.158526 
L 222.587486 209.025092 
L 221.501684 165.188338 
L 220.415883 200.237753 
L 219.330082 188.577678 
L 218.244281 188.554234 
L 217.15848 196.529259 
L 216.072679 184.943414 
L 214.986877 194.144198 
L 213.901076 197.292631 
L 212.815275 218.020944 
L 211.729474 201.624308 
L 210.643673 207.408194 
L 209.557872 204.408908 
L 208.472071 151.225382 
L 207.386269 147.808591 
L 206.300468 144.268097 
L 205.214667 157.339281 
L 204.128866 169.314422 
L 203.043065 142.96189 
L 201.957264 197.911939 
L 200.871462 190.380393 
L 199.785661 159.917674 
L 198.69986 190.384131 
L 197.614059 156.54687 
L 196.528258 151.842177 
L 195.442457 162.690225 
L 194.356656 179.342726 
L 193.270854 188.404822 
L 192.185053 186.003279 
L 191.099252 199.475782 
L 190.013451 182.487468 
L 188.92765 185.484553 
L 187.841849 206.407343 
L 186.756047 208.543292 
L 185.670246 212.890555 
L 184.584445 181.166836 
L 183.498644 214.357547 
L 182.412843 230.773466 
L 181.327042 196.262493 
L 180.24124 215.292338 
L 179.155439 204.760847 
L 178.069638 207.56532 
L 176.983837 210.681168 
L 175.898036 208.74683 
L 174.812235 220.571143 
L 173.726434 214.810027 
L 172.640632 219.578217 
L 171.554831 218.781044 
L 170.46903 229.432984 
L 169.383229 252.976393 
L 168.297428 233.129215 
L 167.211627 237.911957 
L 166.125825 213.832131 
L 165.040024 224.240971 
L 163.954223 225.040702 
L 162.868422 251.784947 
L 161.782621 233.704322 
L 160.69682 219.464399 
L 159.611019 239.480491 
L 158.525217 249.069589 
L 157.439416 220.121792 
L 156.353615 234.918074 
L 155.267814 225.151615 
L 154.182013 237.983675 
L 153.096212 218.931021 
L 152.01041 235.049364 
L 150.924609 215.296119 
L 149.838808 227.972998 
L 148.753007 236.412027 
L 147.667206 242.890557 
L 146.581405 239.972397 
L 145.495604 221.070077 
L 144.409802 222.917522 
L 143.324001 218.128647 
L 142.2382 227.040429 
L 141.152399 223.628513 
L 140.066598 225.312676 
L 138.980797 230.674421 
L 137.894995 239.81442 
L 136.809194 241.077911 
L 135.723393 250.976186 
L 134.637592 234.094408 
L 133.551791 246.198492 
L 132.46599 243.534987 
L 131.380189 249.068455 
L 130.294387 260.289837 
L 129.208586 249.943979 
L 128.122785 255.528266 
L 127.036984 250.86229 
L 125.951183 258.090417 
L 124.865382 262.471356 
L 123.77958 249.385886 
L 122.693779 250.15598 
L 121.607978 251.20253 
L 120.522177 254.798973 
L 119.436376 248.431176 
L 118.350575 256.770406 
L 117.264773 262.625635 
L 116.178972 260.324874 
L 115.093171 254.212951 
L 114.00737 251.189471 
L 112.921569 245.698253 
L 111.835768 230.192746 
L 110.749967 246.218008 
L 109.664165 252.589738 
L 108.578364 237.025189 
L 107.492563 216.425172 
L 106.406762 187.418774 
L 105.320961 97.617185 
L 104.23516 53.568 
L 103.149358 131.02747 
L 102.063557 146.807624 
L 100.977756 183.073504 
L 99.891955 210.60471 
L 98.806154 198.369618 
L 97.720353 230.141537 
L 96.634552 239.393466 
L 95.54875 270.138788 
L 94.462949 250.013507 
L 93.377148 254.767531 
L 92.291347 262.421752 
L 91.205546 263.896654 
L 90.119745 265.34258 
L 89.033943 274.509982 
L 87.948142 274.277236 
L 86.862341 274.139185 
L 85.77654 273.204503 
L 84.690739 269.699482 
L 83.604938 269.598008 
L 82.519137 266.580467 
L 81.433335 265.499556 
L 80.347534 259.402293 
L 79.261733 262.829424 
L 78.175932 265.898179 
L 77.090131 266.449561 
L 76.00433 266.790987 
L 74.918528 268.220602 
L 73.832727 263.248674 
z
" style="fill:#0000ff;fill-opacity:0.25;"/>
   </g>
   <g id="matplotlib.axis_1">
    <g id="xtick_1">
     <g id="line2d_1">
      <defs>
       <path d="M 0 0 
L 0 3.5 
" id="m2aa9c9abe2" style="stroke:#000000;stroke-width:0.8;"/>
      </defs>
      <g>
       <use style="stroke:#000000;stroke-width:0.8;" x="73.832727" xlink:href="#m2aa9c9abe2" y="307.584"/>
      </g>
     </g>
     <g id="text_1">
      <!-- 0 -->
      <defs>
       <path d="M 31.78125 66.40625 
Q 24.171875 66.40625 20.328125 58.90625 
Q 16.5 51.421875 16.5 36.375 
Q 16.5 21.390625 20.328125 13.890625 
Q 24.171875 6.390625 31.78125 6.390625 
Q 39.453125 6.390625 43.28125 13.890625 
Q 47.125 21.390625 47.125 36.375 
Q 47.125 51.421875 43.28125 58.90625 
Q 39.453125 66.40625 31.78125 66.40625 
z
M 31.78125 74.21875 
Q 44.046875 74.21875 50.515625 64.515625 
Q 56.984375 54.828125 56.984375 36.375 
Q 56.984375 17.96875 50.515625 8.265625 
Q 44.046875 -1.421875 31.78125 -1.421875 
Q 19.53125 -1.421875 13.0625 8.265625 
Q 6.59375 17.96875 6.59375 36.375 
Q 6.59375 54.828125 13.0625 64.515625 
Q 19.53125 74.21875 31.78125 74.21875 
z
" id="DejaVuSans-48"/>
      </defs>
      <g transform="translate(70.651477 322.182437)scale(0.1 -0.1)">
       <use xlink:href="#DejaVuSans-48"/>
      </g>
     </g>
    </g>
    <g id="xtick_2">
     <g id="line2d_2">
      <g>
       <use style="stroke:#000000;stroke-width:0.8;" x="128.122785" xlink:href="#m2aa9c9abe2" y="307.584"/>
      </g>
     </g>
     <g id="text_2">
      <!-- 50 -->
      <defs>
       <path d="M 10.796875 72.90625 
L 49.515625 72.90625 
L 49.515625 64.59375 
L 19.828125 64.59375 
L 19.828125 46.734375 
Q 21.96875 47.46875 24.109375 47.828125 
Q 26.265625 48.1875 28.421875 48.1875 
Q 40.625 48.1875 47.75 41.5 
Q 54.890625 34.8125 54.890625 23.390625 
Q 54.890625 11.625 47.5625 5.09375 
Q 40.234375 -1.421875 26.90625 -1.421875 
Q 22.3125 -1.421875 17.546875 -0.640625 
Q 12.796875 0.140625 7.71875 1.703125 
L 7.71875 11.625 
Q 12.109375 9.234375 16.796875 8.0625 
Q 21.484375 6.890625 26.703125 6.890625 
Q 35.15625 6.890625 40.078125 11.328125 
Q 45.015625 15.765625 45.015625 23.390625 
Q 45.015625 31 40.078125 35.4375 
Q 35.15625 39.890625 26.703125 39.890625 
Q 22.75 39.890625 18.8125 39.015625 
Q 14.890625 38.140625 10.796875 36.28125 
z
" id="DejaVuSans-53"/>
      </defs>
      <g transform="translate(121.760285 322.182437)scale(0.1 -0.1)">
       <use xlink:href="#DejaVuSans-53"/>
       <use x="63.623047" xlink:href="#DejaVuSans-48"/>
      </g>
     </g>
    </g>
    <g id="xtick_3">
     <g id="line2d_3">
      <g>
       <use style="stroke:#000000;stroke-width:0.8;" x="182.412843" xlink:href="#m2aa9c9abe2" y="307.584"/>
      </g>
     </g>
     <g id="text_3">
      <!-- 100 -->
      <defs>
       <path d="M 12.40625 8.296875 
L 28.515625 8.296875 
L 28.515625 63.921875 
L 10.984375 60.40625 
L 10.984375 69.390625 
L 28.421875 72.90625 
L 38.28125 72.90625 
L 38.28125 8.296875 
L 54.390625 8.296875 
L 54.390625 0 
L 12.40625 0 
z
" id="DejaVuSans-49"/>
      </defs>
      <g transform="translate(172.869093 322.182437)scale(0.1 -0.1)">
       <use xlink:href="#DejaVuSans-49"/>
       <use x="63.623047" xlink:href="#DejaVuSans-48"/>
       <use x="127.246094" xlink:href="#DejaVuSans-48"/>
      </g>
     </g>
    </g>
    <g id="xtick_4">
     <g id="line2d_4">
      <g>
       <use style="stroke:#000000;stroke-width:0.8;" x="236.702901" xlink:href="#m2aa9c9abe2" y="307.584"/>
      </g>
     </g>
     <g id="text_4">
      <!-- 150 -->
      <g transform="translate(227.159151 322.182437)scale(0.1 -0.1)">
       <use xlink:href="#DejaVuSans-49"/>
       <use x="63.623047" xlink:href="#DejaVuSans-53"/>
       <use x="127.246094" xlink:href="#DejaVuSans-48"/>
      </g>
     </g>
    </g>
    <g id="xtick_5">
     <g id="line2d_5">
      <g>
       <use style="stroke:#000000;stroke-width:0.8;" x="290.992958" xlink:href="#m2aa9c9abe2" y="307.584"/>
      </g>
     </g>
     <g id="text_5">
      <!-- 200 -->
      <defs>
       <path d="M 19.1875 8.296875 
L 53.609375 8.296875 
L 53.609375 0 
L 7.328125 0 
L 7.328125 8.296875 
Q 12.9375 14.109375 22.625 23.890625 
Q 32.328125 33.6875 34.8125 36.53125 
Q 39.546875 41.84375 41.421875 45.53125 
Q 43.3125 49.21875 43.3125 52.78125 
Q 43.3125 58.59375 39.234375 62.25 
Q 35.15625 65.921875 28.609375 65.921875 
Q 23.96875 65.921875 18.8125 64.3125 
Q 13.671875 62.703125 7.8125 59.421875 
L 7.8125 69.390625 
Q 13.765625 71.78125 18.9375 73 
Q 24.125 74.21875 28.421875 74.21875 
Q 39.75 74.21875 46.484375 68.546875 
Q 53.21875 62.890625 53.21875 53.421875 
Q 53.21875 48.921875 51.53125 44.890625 
Q 49.859375 40.875 45.40625 35.40625 
Q 44.1875 33.984375 37.640625 27.21875 
Q 31.109375 20.453125 19.1875 8.296875 
z
" id="DejaVuSans-50"/>
      </defs>
      <g transform="translate(281.449208 322.182437)scale(0.1 -0.1)">
       <use xlink:href="#DejaVuSans-50"/>
       <use x="63.623047" xlink:href="#DejaVuSans-48"/>
       <use x="127.246094" xlink:href="#DejaVuSans-48"/>
      </g>
     </g>
    </g>
    <g id="xtick_6">
     <g id="line2d_6">
      <g>
       <use style="stroke:#000000;stroke-width:0.8;" x="345.283016" xlink:href="#m2aa9c9abe2" y="307.584"/>
      </g>
     </g>
     <g id="text_6">
      <!-- 250 -->
      <g transform="translate(335.739266 322.182437)scale(0.1 -0.1)">
       <use xlink:href="#DejaVuSans-50"/>
       <use x="63.623047" xlink:href="#DejaVuSans-53"/>
       <use x="127.246094" xlink:href="#DejaVuSans-48"/>
      </g>
     </g>
    </g>
    <g id="xtick_7">
     <g id="line2d_7">
      <g>
       <use style="stroke:#000000;stroke-width:0.8;" x="399.573074" xlink:href="#m2aa9c9abe2" y="307.584"/>
      </g>
     </g>
     <g id="text_7">
      <!-- 300 -->
      <defs>
       <path d="M 40.578125 39.3125 
Q 47.65625 37.796875 51.625 33 
Q 55.609375 28.21875 55.609375 21.1875 
Q 55.609375 10.40625 48.1875 4.484375 
Q 40.765625 -1.421875 27.09375 -1.421875 
Q 22.515625 -1.421875 17.65625 -0.515625 
Q 12.796875 0.390625 7.625 2.203125 
L 7.625 11.71875 
Q 11.71875 9.328125 16.59375 8.109375 
Q 21.484375 6.890625 26.8125 6.890625 
Q 36.078125 6.890625 40.9375 10.546875 
Q 45.796875 14.203125 45.796875 21.1875 
Q 45.796875 27.640625 41.28125 31.265625 
Q 36.765625 34.90625 28.71875 34.90625 
L 20.21875 34.90625 
L 20.21875 43.015625 
L 29.109375 43.015625 
Q 36.375 43.015625 40.234375 45.921875 
Q 44.09375 48.828125 44.09375 54.296875 
Q 44.09375 59.90625 40.109375 62.90625 
Q 36.140625 65.921875 28.71875 65.921875 
Q 24.65625 65.921875 20.015625 65.03125 
Q 15.375 64.15625 9.8125 62.3125 
L 9.8125 71.09375 
Q 15.4375 72.65625 20.34375 73.4375 
Q 25.25 74.21875 29.59375 74.21875 
Q 40.828125 74.21875 47.359375 69.109375 
Q 53.90625 64.015625 53.90625 55.328125 
Q 53.90625 49.265625 50.4375 45.09375 
Q 46.96875 40.921875 40.578125 39.3125 
z
" id="DejaVuSans-51"/>
      </defs>
      <g transform="translate(390.029324 322.182437)scale(0.1 -0.1)">
       <use xlink:href="#DejaVuSans-51"/>
       <use x="63.623047" xlink:href="#DejaVuSans-48"/>
       <use x="127.246094" xlink:href="#DejaVuSans-48"/>
      </g>
     </g>
    </g>
   </g>
   <g id="matplotlib.axis_2">
    <g id="ytick_1">
     <g id="line2d_8">
      <defs>
       <path d="M 0 0 
L -3.5 0 
" id="ma3cc4181fb" style="stroke:#000000;stroke-width:0.8;"/>
      </defs>
      <g>
       <use style="stroke:#000000;stroke-width:0.8;" x="57.6" xlink:href="#ma3cc4181fb" y="287.140193"/>
      </g>
     </g>
     <g id="text_8">
      <!-- 1 -->
      <g transform="translate(44.2375 290.939412)scale(0.1 -0.1)">
       <use xlink:href="#DejaVuSans-49"/>
      </g>
     </g>
    </g>
    <g id="ytick_2">
     <g id="line2d_9">
      <g>
       <use style="stroke:#000000;stroke-width:0.8;" x="57.6" xlink:href="#ma3cc4181fb" y="256.909015"/>
      </g>
     </g>
     <g id="text_9">
      <!-- 2 -->
      <g transform="translate(44.2375 260.708234)scale(0.1 -0.1)">
       <use xlink:href="#DejaVuSans-50"/>
      </g>
     </g>
    </g>
    <g id="ytick_3">
     <g id="line2d_10">
      <g>
       <use style="stroke:#000000;stroke-width:0.8;" x="57.6" xlink:href="#ma3cc4181fb" y="226.677837"/>
      </g>
     </g>
     <g id="text_10">
      <!-- 3 -->
      <g transform="translate(44.2375 230.477056)scale(0.1 -0.1)">
       <use xlink:href="#DejaVuSans-51"/>
      </g>
     </g>
    </g>
    <g id="ytick_4">
     <g id="line2d_11">
      <g>
       <use style="stroke:#000000;stroke-width:0.8;" x="57.6" xlink:href="#ma3cc4181fb" y="196.446659"/>
      </g>
     </g>
     <g id="text_11">
      <!-- 4 -->
      <defs>
       <path d="M 37.796875 64.3125 
L 12.890625 25.390625 
L 37.796875 25.390625 
z
M 35.203125 72.90625 
L 47.609375 72.90625 
L 47.609375 25.390625 
L 58.015625 25.390625 
L 58.015625 17.1875 
L 47.609375 17.1875 
L 47.609375 0 
L 37.796875 0 
L 37.796875 17.1875 
L 4.890625 17.1875 
L 4.890625 26.703125 
z
" id="DejaVuSans-52"/>
      </defs>
      <g transform="translate(44.2375 200.245878)scale(0.1 -0.1)">
       <use xlink:href="#DejaVuSans-52"/>
      </g>
     </g>
    </g>
    <g id="ytick_5">
     <g id="line2d_12">
      <g>
       <use style="stroke:#000000;stroke-width:0.8;" x="57.6" xlink:href="#ma3cc4181fb" y="166.215481"/>
      </g>
     </g>
     <g id="text_12">
      <!-- 5 -->
      <g transform="translate(44.2375 170.0147)scale(0.1 -0.1)">
       <use xlink:href="#DejaVuSans-53"/>
      </g>
     </g>
    </g>
    <g id="ytick_6">
     <g id="line2d_13">
      <g>
       <use style="stroke:#000000;stroke-width:0.8;" x="57.6" xlink:href="#ma3cc4181fb" y="135.984303"/>
      </g>
     </g>
     <g id="text_13">
      <!-- 6 -->
      <defs>
       <path d="M 33.015625 40.375 
Q 26.375 40.375 22.484375 35.828125 
Q 18.609375 31.296875 18.609375 23.390625 
Q 18.609375 15.53125 22.484375 10.953125 
Q 26.375 6.390625 33.015625 6.390625 
Q 39.65625 6.390625 43.53125 10.953125 
Q 47.40625 15.53125 47.40625 23.390625 
Q 47.40625 31.296875 43.53125 35.828125 
Q 39.65625 40.375 33.015625 40.375 
z
M 52.59375 71.296875 
L 52.59375 62.3125 
Q 48.875 64.0625 45.09375 64.984375 
Q 41.3125 65.921875 37.59375 65.921875 
Q 27.828125 65.921875 22.671875 59.328125 
Q 17.53125 52.734375 16.796875 39.40625 
Q 19.671875 43.65625 24.015625 45.921875 
Q 28.375 48.1875 33.59375 48.1875 
Q 44.578125 48.1875 50.953125 41.515625 
Q 57.328125 34.859375 57.328125 23.390625 
Q 57.328125 12.15625 50.6875 5.359375 
Q 44.046875 -1.421875 33.015625 -1.421875 
Q 20.359375 -1.421875 13.671875 8.265625 
Q 6.984375 17.96875 6.984375 36.375 
Q 6.984375 53.65625 15.1875 63.9375 
Q 23.390625 74.21875 37.203125 74.21875 
Q 40.921875 74.21875 44.703125 73.484375 
Q 48.484375 72.75 52.59375 71.296875 
z
" id="DejaVuSans-54"/>
      </defs>
      <g transform="translate(44.2375 139.783522)scale(0.1 -0.1)">
       <use xlink:href="#DejaVuSans-54"/>
      </g>
     </g>
    </g>
    <g id="ytick_7">
     <g id="line2d_14">
      <g>
       <use style="stroke:#000000;stroke-width:0.8;" x="57.6" xlink:href="#ma3cc4181fb" y="105.753125"/>
      </g>
     </g>
     <g id="text_14">
      <!-- 7 -->
      <defs>
       <path d="M 8.203125 72.90625 
L 55.078125 72.90625 
L 55.078125 68.703125 
L 28.609375 0 
L 18.3125 0 
L 43.21875 64.59375 
L 8.203125 64.59375 
z
" id="DejaVuSans-55"/>
      </defs>
      <g transform="translate(44.2375 109.552344)scale(0.1 -0.1)">
       <use xlink:href="#DejaVuSans-55"/>
      </g>
     </g>
    </g>
    <g id="ytick_8">
     <g id="line2d_15">
      <g>
       <use style="stroke:#000000;stroke-width:0.8;" x="57.6" xlink:href="#ma3cc4181fb" y="75.521948"/>
      </g>
     </g>
     <g id="text_15">
      <!-- 8 -->
      <defs>
       <path d="M 31.78125 34.625 
Q 24.75 34.625 20.71875 30.859375 
Q 16.703125 27.09375 16.703125 20.515625 
Q 16.703125 13.921875 20.71875 10.15625 
Q 24.75 6.390625 31.78125 6.390625 
Q 38.8125 6.390625 42.859375 10.171875 
Q 46.921875 13.96875 46.921875 20.515625 
Q 46.921875 27.09375 42.890625 30.859375 
Q 38.875 34.625 31.78125 34.625 
z
M 21.921875 38.8125 
Q 15.578125 40.375 12.03125 44.71875 
Q 8.5 49.078125 8.5 55.328125 
Q 8.5 64.0625 14.71875 69.140625 
Q 20.953125 74.21875 31.78125 74.21875 
Q 42.671875 74.21875 48.875 69.140625 
Q 55.078125 64.0625 55.078125 55.328125 
Q 55.078125 49.078125 51.53125 44.71875 
Q 48 40.375 41.703125 38.8125 
Q 48.828125 37.15625 52.796875 32.3125 
Q 56.78125 27.484375 56.78125 20.515625 
Q 56.78125 9.90625 50.3125 4.234375 
Q 43.84375 -1.421875 31.78125 -1.421875 
Q 19.734375 -1.421875 13.25 4.234375 
Q 6.78125 9.90625 6.78125 20.515625 
Q 6.78125 27.484375 10.78125 32.3125 
Q 14.796875 37.15625 21.921875 38.8125 
z
M 18.3125 54.390625 
Q 18.3125 48.734375 21.84375 45.5625 
Q 25.390625 42.390625 31.78125 42.390625 
Q 38.140625 42.390625 41.71875 45.5625 
Q 45.3125 48.734375 45.3125 54.390625 
Q 45.3125 60.0625 41.71875 63.234375 
Q 38.140625 66.40625 31.78125 66.40625 
Q 25.390625 66.40625 21.84375 63.234375 
Q 18.3125 60.0625 18.3125 54.390625 
z
" id="DejaVuSans-56"/>
      </defs>
      <g transform="translate(44.2375 79.321166)scale(0.1 -0.1)">
       <use xlink:href="#DejaVuSans-56"/>
      </g>
     </g>
    </g>
    <g id="ytick_9">
     <g id="line2d_16">
      <g>
       <use style="stroke:#000000;stroke-width:0.8;" x="57.6" xlink:href="#ma3cc4181fb" y="45.29077"/>
      </g>
     </g>
     <g id="text_16">
      <!-- 9 -->
      <defs>
       <path d="M 10.984375 1.515625 
L 10.984375 10.5 
Q 14.703125 8.734375 18.5 7.8125 
Q 22.3125 6.890625 25.984375 6.890625 
Q 35.75 6.890625 40.890625 13.453125 
Q 46.046875 20.015625 46.78125 33.40625 
Q 43.953125 29.203125 39.59375 26.953125 
Q 35.25 24.703125 29.984375 24.703125 
Q 19.046875 24.703125 12.671875 31.3125 
Q 6.296875 37.9375 6.296875 49.421875 
Q 6.296875 60.640625 12.9375 67.421875 
Q 19.578125 74.21875 30.609375 74.21875 
Q 43.265625 74.21875 49.921875 64.515625 
Q 56.59375 54.828125 56.59375 36.375 
Q 56.59375 19.140625 48.40625 8.859375 
Q 40.234375 -1.421875 26.421875 -1.421875 
Q 22.703125 -1.421875 18.890625 -0.6875 
Q 15.09375 0.046875 10.984375 1.515625 
z
M 30.609375 32.421875 
Q 37.25 32.421875 41.125 36.953125 
Q 45.015625 41.5 45.015625 49.421875 
Q 45.015625 57.28125 41.125 61.84375 
Q 37.25 66.40625 30.609375 66.40625 
Q 23.96875 66.40625 20.09375 61.84375 
Q 16.21875 57.28125 16.21875 49.421875 
Q 16.21875 41.5 20.09375 36.953125 
Q 23.96875 32.421875 30.609375 32.421875 
z
" id="DejaVuSans-57"/>
      </defs>
      <g transform="translate(44.2375 49.089988)scale(0.1 -0.1)">
       <use xlink:href="#DejaVuSans-57"/>
      </g>
     </g>
    </g>
    <g id="text_17">
     <!-- Distance -->
     <defs>
      <path d="M 19.671875 64.796875 
L 19.671875 8.109375 
L 31.59375 8.109375 
Q 46.6875 8.109375 53.6875 14.9375 
Q 60.6875 21.78125 60.6875 36.53125 
Q 60.6875 51.171875 53.6875 57.984375 
Q 46.6875 64.796875 31.59375 64.796875 
z
M 9.8125 72.90625 
L 30.078125 72.90625 
Q 51.265625 72.90625 61.171875 64.09375 
Q 71.09375 55.28125 71.09375 36.53125 
Q 71.09375 17.671875 61.125 8.828125 
Q 51.171875 0 30.078125 0 
L 9.8125 0 
z
" id="DejaVuSans-68"/>
      <path d="M 9.421875 54.6875 
L 18.40625 54.6875 
L 18.40625 0 
L 9.421875 0 
z
M 9.421875 75.984375 
L 18.40625 75.984375 
L 18.40625 64.59375 
L 9.421875 64.59375 
z
" id="DejaVuSans-105"/>
      <path d="M 44.28125 53.078125 
L 44.28125 44.578125 
Q 40.484375 46.53125 36.375 47.5 
Q 32.28125 48.484375 27.875 48.484375 
Q 21.1875 48.484375 17.84375 46.4375 
Q 14.5 44.390625 14.5 40.28125 
Q 14.5 37.15625 16.890625 35.375 
Q 19.28125 33.59375 26.515625 31.984375 
L 29.59375 31.296875 
Q 39.15625 29.25 43.1875 25.515625 
Q 47.21875 21.78125 47.21875 15.09375 
Q 47.21875 7.46875 41.1875 3.015625 
Q 35.15625 -1.421875 24.609375 -1.421875 
Q 20.21875 -1.421875 15.453125 -0.5625 
Q 10.6875 0.296875 5.421875 2 
L 5.421875 11.28125 
Q 10.40625 8.6875 15.234375 7.390625 
Q 20.0625 6.109375 24.8125 6.109375 
Q 31.15625 6.109375 34.5625 8.28125 
Q 37.984375 10.453125 37.984375 14.40625 
Q 37.984375 18.0625 35.515625 20.015625 
Q 33.0625 21.96875 24.703125 23.78125 
L 21.578125 24.515625 
Q 13.234375 26.265625 9.515625 29.90625 
Q 5.8125 33.546875 5.8125 39.890625 
Q 5.8125 47.609375 11.28125 51.796875 
Q 16.75 56 26.8125 56 
Q 31.78125 56 36.171875 55.265625 
Q 40.578125 54.546875 44.28125 53.078125 
z
" id="DejaVuSans-115"/>
      <path d="M 18.3125 70.21875 
L 18.3125 54.6875 
L 36.8125 54.6875 
L 36.8125 47.703125 
L 18.3125 47.703125 
L 18.3125 18.015625 
Q 18.3125 11.328125 20.140625 9.421875 
Q 21.96875 7.515625 27.59375 7.515625 
L 36.8125 7.515625 
L 36.8125 0 
L 27.59375 0 
Q 17.1875 0 13.234375 3.875 
Q 9.28125 7.765625 9.28125 18.015625 
L 9.28125 47.703125 
L 2.6875 47.703125 
L 2.6875 54.6875 
L 9.28125 54.6875 
L 9.28125 70.21875 
z
" id="DejaVuSans-116"/>
      <path d="M 34.28125 27.484375 
Q 23.390625 27.484375 19.1875 25 
Q 14.984375 22.515625 14.984375 16.5 
Q 14.984375 11.71875 18.140625 8.90625 
Q 21.296875 6.109375 26.703125 6.109375 
Q 34.1875 6.109375 38.703125 11.40625 
Q 43.21875 16.703125 43.21875 25.484375 
L 43.21875 27.484375 
z
M 52.203125 31.203125 
L 52.203125 0 
L 43.21875 0 
L 43.21875 8.296875 
Q 40.140625 3.328125 35.546875 0.953125 
Q 30.953125 -1.421875 24.3125 -1.421875 
Q 15.921875 -1.421875 10.953125 3.296875 
Q 6 8.015625 6 15.921875 
Q 6 25.140625 12.171875 29.828125 
Q 18.359375 34.515625 30.609375 34.515625 
L 43.21875 34.515625 
L 43.21875 35.40625 
Q 43.21875 41.609375 39.140625 45 
Q 35.0625 48.390625 27.6875 48.390625 
Q 23 48.390625 18.546875 47.265625 
Q 14.109375 46.140625 10.015625 43.890625 
L 10.015625 52.203125 
Q 14.9375 54.109375 19.578125 55.046875 
Q 24.21875 56 28.609375 56 
Q 40.484375 56 46.34375 49.84375 
Q 52.203125 43.703125 52.203125 31.203125 
z
" id="DejaVuSans-97"/>
      <path d="M 54.890625 33.015625 
L 54.890625 0 
L 45.90625 0 
L 45.90625 32.71875 
Q 45.90625 40.484375 42.875 44.328125 
Q 39.84375 48.1875 33.796875 48.1875 
Q 26.515625 48.1875 22.3125 43.546875 
Q 18.109375 38.921875 18.109375 30.90625 
L 18.109375 0 
L 9.078125 0 
L 9.078125 54.6875 
L 18.109375 54.6875 
L 18.109375 46.1875 
Q 21.34375 51.125 25.703125 53.5625 
Q 30.078125 56 35.796875 56 
Q 45.21875 56 50.046875 50.171875 
Q 54.890625 44.34375 54.890625 33.015625 
z
" id="DejaVuSans-110"/>
      <path d="M 48.78125 52.59375 
L 48.78125 44.1875 
Q 44.96875 46.296875 41.140625 47.34375 
Q 37.3125 48.390625 33.40625 48.390625 
Q 24.65625 48.390625 19.8125 42.84375 
Q 14.984375 37.3125 14.984375 27.296875 
Q 14.984375 17.28125 19.8125 11.734375 
Q 24.65625 6.203125 33.40625 6.203125 
Q 37.3125 6.203125 41.140625 7.25 
Q 44.96875 8.296875 48.78125 10.40625 
L 48.78125 2.09375 
Q 45.015625 0.34375 40.984375 -0.53125 
Q 36.96875 -1.421875 32.421875 -1.421875 
Q 20.0625 -1.421875 12.78125 6.34375 
Q 5.515625 14.109375 5.515625 27.296875 
Q 5.515625 40.671875 12.859375 48.328125 
Q 20.21875 56 33.015625 56 
Q 37.15625 56 41.109375 55.140625 
Q 45.0625 54.296875 48.78125 52.59375 
z
" id="DejaVuSans-99"/>
      <path d="M 56.203125 29.59375 
L 56.203125 25.203125 
L 14.890625 25.203125 
Q 15.484375 15.921875 20.484375 11.0625 
Q 25.484375 6.203125 34.421875 6.203125 
Q 39.59375 6.203125 44.453125 7.46875 
Q 49.3125 8.734375 54.109375 11.28125 
L 54.109375 2.78125 
Q 49.265625 0.734375 44.1875 -0.34375 
Q 39.109375 -1.421875 33.890625 -1.421875 
Q 20.796875 -1.421875 13.15625 6.1875 
Q 5.515625 13.8125 5.515625 26.8125 
Q 5.515625 40.234375 12.765625 48.109375 
Q 20.015625 56 32.328125 56 
Q 43.359375 56 49.78125 48.890625 
Q 56.203125 41.796875 56.203125 29.59375 
z
M 47.21875 32.234375 
Q 47.125 39.59375 43.09375 43.984375 
Q 39.0625 48.390625 32.421875 48.390625 
Q 24.90625 48.390625 20.390625 44.140625 
Q 15.875 39.890625 15.1875 32.171875 
z
" id="DejaVuSans-101"/>
     </defs>
     <g transform="translate(38.157812 196.3905)rotate(-90)scale(0.1 -0.1)">
      <use xlink:href="#DejaVuSans-68"/>
      <use x="77.001953" xlink:href="#DejaVuSans-105"/>
      <use x="104.785156" xlink:href="#DejaVuSans-115"/>
      <use x="156.884766" xlink:href="#DejaVuSans-116"/>
      <use x="196.09375" xlink:href="#DejaVuSans-97"/>
      <use x="257.373047" xlink:href="#DejaVuSans-110"/>
      <use x="320.751953" xlink:href="#DejaVuSans-99"/>
      <use x="375.732422" xlink:href="#DejaVuSans-101"/>
     </g>
    </g>
   </g>
   <g id="line2d_17">
    <path clip-path="url(#p07de54c32d)" d="M 73.832727 264.670496 
L 74.918528 270.185281 
L 76.00433 268.833464 
L 78.175932 267.753997 
L 79.261733 265.301517 
L 80.347534 261.582559 
L 81.433335 266.691362 
L 82.519137 267.739201 
L 83.604938 271.777156 
L 84.690739 271.47632 
L 85.77654 274.890504 
L 86.862341 275.686589 
L 87.948142 275.945467 
L 89.033943 277.042318 
L 90.119745 268.622221 
L 91.205546 268.958349 
L 93.377148 263.695184 
L 94.462949 258.497403 
L 95.54875 272.172509 
L 96.634552 249.880544 
L 97.720353 240.395178 
L 98.806154 209.431923 
L 99.891955 218.042671 
L 100.977756 193.730482 
L 102.063557 163.648408 
L 103.149358 145.815694 
L 104.23516 84.782827 
L 105.320961 116.425643 
L 106.406762 201.618659 
L 107.492563 237.424461 
L 109.664165 259.231059 
L 110.749967 256.292184 
L 111.835768 245.358616 
L 112.921569 258.740783 
L 114.00737 262.958093 
L 115.093171 264.951753 
L 117.264773 269.796102 
L 118.350575 266.407185 
L 119.436376 261.115619 
L 120.522177 263.227836 
L 121.607978 262.494964 
L 122.693779 262.453172 
L 123.77958 261.9065 
L 124.865382 271.321995 
L 127.036984 263.873372 
L 128.122785 264.678419 
L 129.208586 261.948279 
L 130.294387 270.466468 
L 131.380189 262.903382 
L 132.46599 259.857174 
L 133.551791 260.056266 
L 134.637592 254.68651 
L 135.723393 263.999441 
L 136.809194 257.612059 
L 137.894995 258.924025 
L 138.980797 250.253526 
L 140.066598 248.232877 
L 141.152399 239.750787 
L 142.2382 248.461929 
L 143.324001 243.846761 
L 144.409802 249.473352 
L 145.495604 247.935027 
L 146.581405 258.031563 
L 147.667206 256.750207 
L 148.753007 252.396103 
L 149.838808 250.924274 
L 150.924609 243.907317 
L 152.01041 252.360148 
L 153.096212 243.120918 
L 154.182013 254.095129 
L 155.267814 243.940856 
L 156.353615 253.704622 
L 157.439416 247.798304 
L 158.525217 259.094514 
L 159.611019 266.018047 
L 160.69682 251.747016 
L 161.782621 259.959961 
L 162.868422 266.144096 
L 163.954223 254.284735 
L 165.040024 252.418347 
L 166.125825 247.217134 
L 167.211627 262.612634 
L 168.297428 258.923447 
L 169.383229 267.859798 
L 170.46903 258.506424 
L 171.554831 252.752345 
L 172.640632 253.692466 
L 173.726434 249.770905 
L 174.812235 256.950811 
L 175.898036 248.351613 
L 176.983837 249.103529 
L 178.069638 251.52666 
L 179.155439 242.742105 
L 180.24124 245.758891 
L 181.327042 235.262404 
L 182.412843 256.79228 
L 183.498644 247.813115 
L 184.584445 229.19688 
L 185.670246 244.274197 
L 186.756047 244.345409 
L 187.841849 242.031219 
L 188.92765 229.447523 
L 190.013451 221.525732 
L 191.099252 220.976661 
L 192.185053 221.006253 
L 193.270854 214.557482 
L 194.356656 206.372861 
L 195.442457 188.620423 
L 196.528258 194.270514 
L 197.614059 184.777101 
L 198.69986 209.580187 
L 199.785661 203.911713 
L 200.871462 225.111887 
L 201.957264 224.580361 
L 203.043065 174.875466 
L 204.128866 192.934352 
L 205.214667 199.131634 
L 206.300468 191.606344 
L 207.386269 178.861737 
L 208.472071 192.912997 
L 209.557872 232.569645 
L 210.643673 241.371512 
L 211.729474 228.346249 
L 212.815275 244.330766 
L 213.901076 237.308341 
L 214.986877 233.654001 
L 216.072679 232.180928 
L 217.15848 233.816812 
L 218.244281 231.644272 
L 219.330082 232.199623 
L 220.415883 232.354481 
L 221.501684 215.562011 
L 222.587486 241.152402 
L 223.673287 239.204496 
L 224.759088 216.403981 
L 225.844889 241.129346 
L 226.93069 221.900813 
L 228.016491 215.717373 
L 229.102292 201.892235 
L 230.188094 241.652124 
L 231.273895 232.561543 
L 232.359696 216.820554 
L 234.531298 205.09938 
L 235.617099 231.650181 
L 236.702901 207.456281 
L 237.788702 216.915098 
L 239.960304 245.19895 
L 241.046105 220.514558 
L 242.131906 240.920175 
L 243.217708 216.667142 
L 244.303509 229.350304 
L 245.38931 197.790746 
L 246.475111 210.905929 
L 247.560912 198.072524 
L 248.646713 179.766899 
L 249.732514 200.377156 
L 250.818316 143.247964 
L 251.904117 133.793168 
L 252.989918 127.527958 
L 254.075719 150.456605 
L 255.16152 146.861982 
L 256.247321 176.272895 
L 257.333123 133.310765 
L 258.418924 151.300931 
L 259.504725 147.806399 
L 260.590526 150.070425 
L 261.676327 135.046569 
L 262.762128 155.610895 
L 263.847929 148.822341 
L 264.933731 144.578034 
L 266.019532 118.256731 
L 267.105333 137.246307 
L 268.191134 146.899876 
L 269.276935 155.252228 
L 270.362736 152.159117 
L 271.448538 149.645415 
L 272.534339 170.792199 
L 273.62014 156.805476 
L 274.705941 168.907273 
L 275.791742 170.261809 
L 276.877543 163.207178 
L 277.963344 172.760721 
L 279.049146 167.725229 
L 280.134947 170.25704 
L 281.220748 175.661929 
L 282.306549 173.712065 
L 283.39235 173.767171 
L 284.478151 172.194755 
L 285.563953 160.810722 
L 286.649754 173.843739 
L 287.735555 167.348433 
L 288.821356 172.472772 
L 289.907157 166.176124 
L 290.992958 168.715993 
L 292.07876 173.195927 
L 293.164561 183.44229 
L 294.250362 168.511881 
L 295.336163 178.515051 
L 296.421964 171.434952 
L 297.507765 167.913933 
L 298.593566 167.133945 
L 299.679368 165.18927 
L 300.765169 168.204655 
L 301.85097 147.409474 
L 302.936771 165.569963 
L 304.022572 151.03394 
L 305.108373 142.092826 
L 306.194175 149.714277 
L 307.279976 168.427776 
L 308.365777 152.566432 
L 309.451578 157.778539 
L 310.537379 173.598098 
L 311.62318 156.741005 
L 312.708981 168.136598 
L 313.794783 136.167501 
L 314.880584 138.369153 
L 315.966385 131.57822 
L 317.052186 135.017255 
L 318.137987 194.49664 
L 319.223788 195.455561 
L 320.30959 188.406623 
L 321.395391 182.148038 
L 322.481192 178.188034 
L 323.566993 175.189349 
L 324.652794 166.610334 
L 325.738595 183.701623 
L 326.824396 191.734493 
L 327.910198 176.947015 
L 330.0818 180.585652 
L 331.167601 155.691564 
L 332.253402 151.835033 
L 333.339203 169.180937 
L 334.425005 152.588067 
L 335.510806 178.656498 
L 336.596607 189.246952 
L 337.682408 185.187264 
L 338.768209 205.29349 
L 339.85401 184.841302 
L 340.939811 187.08337 
L 342.025613 158.828125 
L 344.197215 188.840974 
L 345.283016 168.153524 
L 346.368817 161.168428 
L 347.454618 167.788708 
L 348.54042 159.358806 
L 349.626221 171.244571 
L 350.712022 180.994853 
L 351.797823 148.597198 
L 352.883624 195.504317 
L 353.969425 169.951893 
L 355.055227 171.600644 
L 356.141028 177.308722 
L 357.226829 150.000491 
L 358.31263 175.247795 
L 359.398431 166.111781 
L 360.484232 140.926764 
L 361.570033 145.844208 
L 362.655835 170.897109 
L 363.741636 160.099635 
L 364.827437 166.698044 
L 365.913238 141.948312 
L 366.999039 127.656948 
L 368.08484 150.11036 
L 369.170642 139.745802 
L 370.256443 142.677016 
L 371.342244 155.42598 
L 372.428045 133.688866 
L 373.513846 127.62385 
L 374.599647 132.234479 
L 375.685448 138.323226 
L 376.77125 128.456609 
L 377.857051 138.487602 
L 378.942852 146.772369 
L 380.028653 131.792301 
L 381.114454 128.995932 
L 382.200255 140.185248 
L 383.286057 153.846335 
L 384.371858 143.761334 
L 385.457659 137.338274 
L 386.54346 157.90181 
L 387.629261 154.40794 
L 388.715062 146.168314 
L 389.800863 143.910878 
L 390.886665 155.737318 
L 391.972466 142.759614 
L 393.058267 154.747367 
L 395.229869 144.009604 
L 396.31567 156.237179 
L 397.401472 149.313998 
L 398.487273 143.820787 
L 398.487273 143.820787 
" style="fill:none;stroke:#0000ff;stroke-linecap:square;stroke-width:1.5;"/>
   </g>
   <g id="patch_3">
    <path d="M 57.6 307.584 
L 57.6 41.472 
" style="fill:none;stroke:#000000;stroke-linecap:square;stroke-linejoin:miter;stroke-width:0.8;"/>
   </g>
   <g id="patch_4">
    <path d="M 414.72 307.584 
L 414.72 41.472 
" style="fill:none;stroke:#000000;stroke-linecap:square;stroke-linejoin:miter;stroke-width:0.8;"/>
   </g>
   <g id="patch_5">
    <path d="M 57.6 307.584 
L 414.72 307.584 
" style="fill:none;stroke:#000000;stroke-linecap:square;stroke-linejoin:miter;stroke-width:0.8;"/>
   </g>
   <g id="patch_6">
    <path d="M 57.6 41.472 
L 414.72 41.472 
" style="fill:none;stroke:#000000;stroke-linecap:square;stroke-linejoin:miter;stroke-width:0.8;"/>
   </g>
  </g>
  <g id="axes_2">
   <g id="PolyCollection_2">
    <path clip-path="url(#p07de54c32d)" d="M 73.832727 199.354958 
L 73.832727 227.072762 
L 74.918528 228.545694 
L 76.00433 228.298368 
L 77.090131 227.870743 
L 78.175932 226.533501 
L 79.261733 226.721031 
L 80.347534 228.031994 
L 81.433335 227.054586 
L 82.519137 227.915263 
L 83.604938 228.820022 
L 84.690739 230.138352 
L 85.77654 230.405622 
L 86.862341 230.946951 
L 87.948142 230.660282 
L 89.033943 230.912206 
L 90.119745 230.992169 
L 91.205546 232.389365 
L 92.291347 234.784489 
L 93.377148 235.03001 
L 94.462949 236.204612 
L 95.54875 231.998241 
L 96.634552 240.76759 
L 97.720353 243.506016 
L 98.806154 255.003325 
L 99.891955 252.810292 
L 100.977756 260.674654 
L 102.063557 269.769898 
L 103.149358 276.133187 
L 104.23516 295.488 
L 105.320961 288.09446 
L 106.406762 259.892664 
L 107.492563 245.389743 
L 108.578364 241.93761 
L 109.664165 239.104187 
L 110.749967 241.632998 
L 111.835768 244.037335 
L 112.921569 239.54413 
L 114.00737 239.558337 
L 115.093171 240.474297 
L 116.178972 236.822619 
L 117.264773 237.814403 
L 118.350575 239.325611 
L 119.436376 239.78637 
L 120.522177 238.503377 
L 121.607978 240.944998 
L 122.693779 239.876747 
L 123.77958 242.362254 
L 124.865382 242.142998 
L 125.951183 239.901887 
L 127.036984 240.57841 
L 128.122785 238.367946 
L 129.208586 237.73841 
L 130.294387 236.793977 
L 131.380189 238.606774 
L 132.46599 239.393013 
L 133.551791 239.668584 
L 134.637592 240.545772 
L 135.723393 242.833545 
L 136.809194 242.094744 
L 137.894995 245.706079 
L 138.980797 243.873115 
L 140.066598 248.705211 
L 141.152399 249.533891 
L 142.2382 250.631462 
L 143.324001 250.182398 
L 144.409802 250.465883 
L 145.495604 248.870758 
L 146.581405 245.624223 
L 147.667206 244.454739 
L 148.753007 244.184075 
L 149.838808 246.447794 
L 150.924609 248.210541 
L 152.01041 245.965204 
L 153.096212 247.048197 
L 154.182013 244.632276 
L 155.267814 245.397928 
L 156.353615 249.220011 
L 157.439416 251.583878 
L 158.525217 252.991209 
L 159.611019 252.361395 
L 160.69682 253.761409 
L 161.782621 254.648565 
L 162.868422 254.914607 
L 163.954223 253.705619 
L 165.040024 255.200407 
L 166.125825 255.643196 
L 167.211627 259.015712 
L 168.297428 255.13407 
L 169.383229 257.126479 
L 170.46903 258.14933 
L 171.554831 255.948115 
L 172.640632 256.680998 
L 173.726434 256.296464 
L 174.812235 259.669087 
L 175.898036 258.918136 
L 176.983837 254.92759 
L 178.069638 253.937445 
L 179.155439 255.17308 
L 180.24124 259.433396 
L 181.327042 255.115797 
L 182.412843 255.050054 
L 183.498644 258.374013 
L 184.584445 261.379792 
L 185.670246 256.077749 
L 186.756047 255.837543 
L 187.841849 252.520705 
L 188.92765 257.959554 
L 190.013451 258.41895 
L 191.099252 266.469697 
L 192.185053 265.668943 
L 193.270854 264.015203 
L 194.356656 264.552126 
L 195.442457 265.770354 
L 196.528258 262.887881 
L 197.614059 262.453237 
L 198.69986 267.000632 
L 199.785661 261.406 
L 200.871462 265.18337 
L 201.957264 267.250305 
L 203.043065 266.101546 
L 204.128866 266.758039 
L 205.214667 265.70976 
L 206.300468 261.613791 
L 207.386269 265.167183 
L 208.472071 266.856262 
L 209.557872 261.230019 
L 210.643673 267.29218 
L 211.729474 269.433364 
L 212.815275 265.66048 
L 213.901076 266.217243 
L 214.986877 262.899507 
L 216.072679 264.461517 
L 217.15848 267.167607 
L 218.244281 268.432456 
L 219.330082 270.2521 
L 220.415883 272.632576 
L 221.501684 270.363694 
L 222.587486 270.652711 
L 223.673287 274.42964 
L 224.759088 271.987298 
L 225.844889 275.278008 
L 226.93069 273.315973 
L 228.016491 275.044997 
L 229.102292 271.477655 
L 230.188094 276.266427 
L 231.273895 275.145007 
L 232.359696 274.276126 
L 233.445497 276.574622 
L 234.531298 278.759054 
L 235.617099 279.833066 
L 236.702901 280.134396 
L 237.788702 280.592274 
L 238.874503 283.221087 
L 239.960304 278.094184 
L 241.046105 279.066664 
L 242.131906 276.181982 
L 243.217708 276.921754 
L 244.303509 277.99591 
L 245.38931 280.816774 
L 246.475111 279.952711 
L 247.560912 278.702564 
L 248.646713 276.68876 
L 249.732514 281.820584 
L 250.818316 278.490934 
L 251.904117 279.57718 
L 252.989918 279.698949 
L 254.075719 280.549278 
L 255.16152 281.846354 
L 256.247321 278.004254 
L 257.333123 279.404918 
L 258.418924 283.168002 
L 259.504725 278.986105 
L 260.590526 276.45317 
L 261.676327 275.46312 
L 262.762128 271.182562 
L 263.847929 269.903112 
L 264.933731 272.259314 
L 266.019532 273.795885 
L 267.105333 270.01176 
L 268.191134 268.446461 
L 269.276935 268.853263 
L 270.362736 272.373996 
L 271.448538 271.211654 
L 272.534339 269.077414 
L 273.62014 267.540955 
L 274.705941 271.339351 
L 275.791742 270.140941 
L 276.877543 268.433416 
L 277.963344 270.001313 
L 279.049146 270.231771 
L 280.134947 268.25128 
L 281.220748 270.233945 
L 282.306549 269.23448 
L 283.39235 269.870805 
L 284.478151 271.988434 
L 285.563953 267.418508 
L 286.649754 267.527017 
L 287.735555 269.613999 
L 288.821356 268.152609 
L 289.907157 270.049302 
L 290.992958 269.974255 
L 292.07876 269.118187 
L 293.164561 267.284719 
L 294.250362 266.644887 
L 295.336163 268.515622 
L 296.421964 270.901705 
L 297.507765 269.081857 
L 298.593566 270.053655 
L 299.679368 268.473618 
L 300.765169 269.280002 
L 301.85097 270.642949 
L 302.936771 271.301267 
L 304.022572 269.572432 
L 305.108373 266.787166 
L 306.194175 265.620233 
L 307.279976 267.738051 
L 308.365777 267.166308 
L 309.451578 269.69976 
L 310.537379 268.284102 
L 311.62318 269.265596 
L 312.708981 272.001237 
L 313.794783 272.551093 
L 314.880584 271.544799 
L 315.966385 271.769872 
L 317.052186 269.181673 
L 318.137987 275.762358 
L 319.223788 273.565282 
L 320.30959 270.852997 
L 321.395391 269.420173 
L 322.481192 270.853129 
L 323.566993 270.297379 
L 324.652794 268.883351 
L 325.738595 269.024044 
L 326.824396 270.635039 
L 327.910198 271.179734 
L 328.995999 269.369054 
L 330.0818 274.016468 
L 331.167601 270.691941 
L 332.253402 268.149514 
L 333.339203 270.497017 
L 334.425005 269.002466 
L 335.510806 269.233529 
L 336.596607 271.338811 
L 337.682408 267.218645 
L 338.768209 270.884536 
L 339.85401 268.274244 
L 340.939811 268.952118 
L 342.025613 264.762853 
L 343.111414 271.127617 
L 344.197215 273.092349 
L 345.283016 273.683034 
L 346.368817 274.651247 
L 347.454618 274.521665 
L 348.54042 276.82201 
L 349.626221 276.418199 
L 350.712022 274.463092 
L 351.797823 275.218667 
L 352.883624 273.684937 
L 353.969425 274.318206 
L 355.055227 276.52844 
L 356.141028 273.201412 
L 357.226829 274.521294 
L 358.31263 277.066146 
L 359.398431 278.340818 
L 360.484232 277.611435 
L 361.570033 279.470585 
L 362.655835 278.042059 
L 363.741636 277.301308 
L 364.827437 281.473359 
L 365.913238 275.709028 
L 366.999039 274.623307 
L 368.08484 272.257785 
L 369.170642 272.651697 
L 370.256443 269.987292 
L 371.342244 268.648323 
L 372.428045 267.343429 
L 373.513846 267.349899 
L 374.599647 268.675892 
L 375.685448 270.594123 
L 376.77125 271.303278 
L 377.857051 268.912563 
L 378.942852 268.82504 
L 380.028653 270.573584 
L 381.114454 270.353031 
L 382.200255 269.968804 
L 383.286057 267.239004 
L 384.371858 267.695989 
L 385.457659 266.54358 
L 386.54346 267.630855 
L 387.629261 270.357857 
L 388.715062 269.888673 
L 389.800863 268.777656 
L 390.886665 268.106903 
L 391.972466 267.805649 
L 393.058267 270.141783 
L 394.144068 265.587937 
L 395.229869 269.158735 
L 396.31567 266.918587 
L 397.401472 268.971883 
L 398.487273 267.115686 
L 398.487273 97.394237 
L 398.487273 97.394237 
L 397.401472 93.902715 
L 396.31567 97.185933 
L 395.229869 101.786665 
L 394.144068 104.750491 
L 393.058267 96.401519 
L 391.972466 103.519672 
L 390.886665 97.268445 
L 389.800863 91.103098 
L 388.715062 94.389981 
L 387.629261 86.39359 
L 386.54346 88.53968 
L 385.457659 100.611635 
L 384.371858 94.094428 
L 383.286057 88.457326 
L 382.200255 86.229144 
L 381.114454 99.520118 
L 380.028653 92.230941 
L 378.942852 96.36169 
L 377.857051 91.886886 
L 376.77125 88.434831 
L 375.685448 89.887081 
L 374.599647 91.303872 
L 373.513846 97.69578 
L 372.428045 86.223528 
L 371.342244 89.131639 
L 370.256443 88.347075 
L 369.170642 86.898474 
L 368.08484 82.62297 
L 366.999039 81.286006 
L 365.913238 69.288568 
L 364.827437 53.568 
L 363.741636 71.704757 
L 362.655835 65.327277 
L 361.570033 68.076159 
L 360.484232 68.154869 
L 359.398431 58.196224 
L 358.31263 58.837697 
L 357.226829 69.377841 
L 356.141028 69.854716 
L 355.055227 69.448185 
L 353.969425 74.469376 
L 352.883624 69.713352 
L 351.797823 81.062298 
L 350.712022 80.766105 
L 349.626221 76.889562 
L 348.54042 79.158072 
L 347.454618 83.587253 
L 346.368817 79.781274 
L 345.283016 87.366031 
L 344.197215 86.02234 
L 343.111414 88.135405 
L 342.025613 102.165705 
L 340.939811 87.838662 
L 339.85401 98.796937 
L 338.768209 94.542652 
L 337.682408 105.955791 
L 336.596607 96.547965 
L 335.510806 100.43619 
L 334.425005 96.952399 
L 333.339203 103.019578 
L 332.253402 103.191373 
L 331.167601 89.228643 
L 330.0818 94.50248 
L 328.995999 93.596263 
L 327.910198 103.636272 
L 326.824396 101.123757 
L 325.738595 107.169434 
L 324.652794 113.197761 
L 323.566993 106.575385 
L 322.481192 108.696038 
L 321.395391 114.521664 
L 320.30959 107.214948 
L 319.223788 107.277961 
L 318.137987 101.83897 
L 317.052186 108.802708 
L 315.966385 103.952187 
L 314.880584 100.9416 
L 313.794783 104.427725 
L 312.708981 112.974559 
L 311.62318 113.743944 
L 310.537379 110.146382 
L 309.451578 106.619299 
L 308.365777 110.536517 
L 307.279976 110.522616 
L 306.194175 117.027032 
L 305.108373 120.71768 
L 304.022572 112.85395 
L 302.936771 110.650962 
L 301.85097 112.80386 
L 300.765169 113.007797 
L 299.679368 114.889018 
L 298.593566 107.74585 
L 297.507765 116.682284 
L 296.421964 114.760028 
L 295.336163 109.631688 
L 294.250362 116.735935 
L 293.164561 113.12693 
L 292.07876 112.995073 
L 290.992958 113.506217 
L 289.907157 110.820526 
L 288.821356 115.302674 
L 287.735555 115.146128 
L 286.649754 124.603336 
L 285.563953 115.779396 
L 284.478151 111.680503 
L 283.39235 111.928807 
L 282.306549 117.128901 
L 281.220748 122.276307 
L 280.134947 118.560241 
L 279.049146 116.333888 
L 277.963344 116.547303 
L 276.877543 121.363371 
L 275.791742 117.1229 
L 274.705941 116.853888 
L 273.62014 122.58766 
L 272.534339 119.235683 
L 271.448538 118.159616 
L 270.362736 112.699461 
L 269.276935 118.076822 
L 268.191134 117.169251 
L 267.105333 106.215523 
L 266.019532 108.212246 
L 264.933731 112.718329 
L 263.847929 123.261527 
L 262.762128 114.523751 
L 261.676327 105.194317 
L 260.590526 108.306609 
L 259.504725 104.546603 
L 258.418924 95.90661 
L 257.333123 102.151312 
L 256.247321 106.195168 
L 255.16152 88.33045 
L 254.075719 95.87846 
L 252.989918 98.872252 
L 251.904117 97.417654 
L 250.818316 93.180989 
L 249.732514 101.075942 
L 248.646713 115.621872 
L 247.560912 110.521232 
L 246.475111 113.306854 
L 245.38931 107.813307 
L 244.303509 118.637664 
L 243.217708 114.116495 
L 242.131906 119.634644 
L 241.046105 113.867028 
L 239.960304 111.0244 
L 238.874503 98.180389 
L 237.788702 107.769506 
L 236.702901 110.488669 
L 235.617099 106.966769 
L 234.531298 112.681598 
L 233.445497 111.008969 
L 232.359696 123.013113 
L 231.273895 118.480357 
L 230.188094 115.99949 
L 229.102292 125.83315 
L 228.016491 123.09721 
L 226.93069 127.486447 
L 225.844889 122.91733 
L 224.759088 126.107745 
L 223.673287 119.945621 
L 222.587486 126.770912 
L 221.501684 133.512386 
L 220.415883 125.013167 
L 219.330082 132.202231 
L 218.244281 134.166167 
L 217.15848 135.70292 
L 216.072679 143.38071 
L 214.986877 141.377937 
L 213.901076 137.743095 
L 212.815275 134.434518 
L 211.729474 129.23123 
L 210.643673 136.987745 
L 209.557872 141.406972 
L 208.472071 127.109328 
L 207.386269 124.619356 
L 206.300468 137.774387 
L 205.214667 128.309631 
L 204.128866 115.655041 
L 203.043065 118.653059 
L 201.957264 119.699519 
L 200.871462 128.944033 
L 199.785661 134.987035 
L 198.69986 121.725933 
L 197.614059 131.560274 
L 196.528258 133.188899 
L 195.442457 126.578663 
L 194.356656 127.378569 
L 193.270854 131.63575 
L 192.185053 128.941039 
L 191.099252 127.082877 
L 190.013451 146.220146 
L 188.92765 150.351383 
L 187.841849 158.996546 
L 186.756047 152.541564 
L 185.670246 149.751569 
L 184.584445 144.583593 
L 183.498644 152.05368 
L 182.412843 157.014191 
L 181.327042 157.811667 
L 180.24124 153.631291 
L 179.155439 159.842713 
L 178.069638 166.197902 
L 176.983837 162.466716 
L 175.898036 156.92587 
L 174.812235 154.883335 
L 173.726434 158.620706 
L 172.640632 158.817098 
L 171.554831 160.061349 
L 170.46903 157.763699 
L 169.383229 156.175558 
L 168.297428 156.967946 
L 167.211627 153.066191 
L 166.125825 157.841901 
L 165.040024 158.847365 
L 163.954223 159.825246 
L 162.868422 155.15926 
L 161.782621 159.937491 
L 160.69682 160.590433 
L 159.611019 165.101157 
L 158.525217 158.971541 
L 157.439416 164.899343 
L 156.353615 166.573096 
L 155.267814 171.373723 
L 154.182013 168.959751 
L 153.096212 168.289129 
L 152.01041 163.158498 
L 150.924609 161.648774 
L 149.838808 166.65524 
L 148.753007 167.036661 
L 147.667206 165.695107 
L 146.581405 167.409965 
L 145.495604 163.006831 
L 144.409802 164.56964 
L 143.324001 162.978382 
L 142.2382 159.271666 
L 141.152399 161.027615 
L 140.066598 165.07628 
L 138.980797 170.948106 
L 137.894995 170.519385 
L 136.809194 172.422405 
L 135.723393 173.959724 
L 134.637592 180.693882 
L 133.551791 179.72798 
L 132.46599 183.512014 
L 131.380189 183.464798 
L 130.294387 188.51797 
L 129.208586 187.87534 
L 128.122785 187.526126 
L 127.036984 186.139435 
L 125.951183 185.480443 
L 124.865382 185.048895 
L 123.77958 179.829199 
L 122.693779 188.832186 
L 121.607978 182.512091 
L 120.522177 184.269408 
L 119.436376 182.470158 
L 118.350575 183.561852 
L 117.264773 189.367504 
L 116.178972 188.742014 
L 115.093171 186.561985 
L 114.00737 191.282664 
L 112.921569 189.099713 
L 111.835768 181.762069 
L 110.749967 185.733561 
L 109.664165 189.517885 
L 108.578364 185.912504 
L 107.492563 180.139363 
L 106.406762 156.627392 
L 105.320961 101.772431 
L 104.23516 94.685271 
L 103.149358 125.513805 
L 102.063557 135.381127 
L 100.977756 144.791476 
L 99.891955 162.937607 
L 98.806154 157.778855 
L 97.720353 182.778455 
L 96.634552 185.192909 
L 95.54875 198.319153 
L 94.462949 190.278057 
L 93.377148 195.214939 
L 92.291347 196.027555 
L 91.205546 197.015932 
L 90.119745 199.864606 
L 89.033943 202.568404 
L 87.948142 202.809429 
L 86.862341 204.244632 
L 85.77654 202.979203 
L 84.690739 200.573499 
L 83.604938 200.068258 
L 82.519137 198.933119 
L 81.433335 197.03565 
L 80.347534 192.872182 
L 79.261733 193.60975 
L 78.175932 195.998312 
L 77.090131 198.049704 
L 76.00433 199.36241 
L 74.918528 201.140168 
L 73.832727 199.354958 
z
" style="fill:#008000;fill-opacity:0.25;"/>
   </g>
   <g id="matplotlib.axis_3">
    <g id="ytick_10">
     <g id="line2d_18">
      <path clip-path="url(#p07de54c32d)" d="M 57.6 290.305543 
L 414.72 290.305543 
" style="fill:none;stroke:#b0b0b0;stroke-linecap:square;stroke-width:0.8;"/>
     </g>
     <g id="line2d_19">
      <defs>
       <path d="M 0 0 
L 3.5 0 
" id="mc17474a909" style="stroke:#000000;stroke-width:0.8;"/>
      </defs>
      <g>
       <use style="stroke:#000000;stroke-width:0.8;" x="414.72" xlink:href="#mc17474a909" y="290.305543"/>
      </g>
     </g>
     <g id="text_18">
      <!-- 2 -->
      <defs>
       <path d="M 10.59375 35.5 
L 73.1875 35.5 
L 73.1875 27.203125 
L 10.59375 27.203125 
z
" id="DejaVuSans-8722"/>
      </defs>
      <g transform="translate(421.72 294.104762)scale(0.1 -0.1)">
       <use xlink:href="#DejaVuSans-8722"/>
       <use x="83.789062" xlink:href="#DejaVuSans-50"/>
      </g>
     </g>
    </g>
    <g id="ytick_11">
     <g id="line2d_20">
      <path clip-path="url(#p07de54c32d)" d="M 57.6 258.217733 
L 414.72 258.217733 
" style="fill:none;stroke:#b0b0b0;stroke-linecap:square;stroke-width:0.8;"/>
     </g>
     <g id="line2d_21">
      <g>
       <use style="stroke:#000000;stroke-width:0.8;" x="414.72" xlink:href="#mc17474a909" y="258.217733"/>
      </g>
     </g>
     <g id="text_19">
      <!-- 1 -->
      <g transform="translate(421.72 262.016952)scale(0.1 -0.1)">
       <use xlink:href="#DejaVuSans-8722"/>
       <use x="83.789062" xlink:href="#DejaVuSans-49"/>
      </g>
     </g>
    </g>
    <g id="ytick_12">
     <g id="line2d_22">
      <path clip-path="url(#p07de54c32d)" d="M 57.6 226.129923 
L 414.72 226.129923 
" style="fill:none;stroke:#b0b0b0;stroke-linecap:square;stroke-width:0.8;"/>
     </g>
     <g id="line2d_23">
      <g>
       <use style="stroke:#000000;stroke-width:0.8;" x="414.72" xlink:href="#mc17474a909" y="226.129923"/>
      </g>
     </g>
     <g id="text_20">
      <!-- 0 -->
      <g transform="translate(421.72 229.929142)scale(0.1 -0.1)">
       <use xlink:href="#DejaVuSans-48"/>
      </g>
     </g>
    </g>
    <g id="ytick_13">
     <g id="line2d_24">
      <path clip-path="url(#p07de54c32d)" d="M 57.6 194.042113 
L 414.72 194.042113 
" style="fill:none;stroke:#b0b0b0;stroke-linecap:square;stroke-width:0.8;"/>
     </g>
     <g id="line2d_25">
      <g>
       <use style="stroke:#000000;stroke-width:0.8;" x="414.72" xlink:href="#mc17474a909" y="194.042113"/>
      </g>
     </g>
     <g id="text_21">
      <!-- 1 -->
      <g transform="translate(421.72 197.841331)scale(0.1 -0.1)">
       <use xlink:href="#DejaVuSans-49"/>
      </g>
     </g>
    </g>
    <g id="ytick_14">
     <g id="line2d_26">
      <path clip-path="url(#p07de54c32d)" d="M 57.6 161.954303 
L 414.72 161.954303 
" style="fill:none;stroke:#b0b0b0;stroke-linecap:square;stroke-width:0.8;"/>
     </g>
     <g id="line2d_27">
      <g>
       <use style="stroke:#000000;stroke-width:0.8;" x="414.72" xlink:href="#mc17474a909" y="161.954303"/>
      </g>
     </g>
     <g id="text_22">
      <!-- 2 -->
      <g transform="translate(421.72 165.753521)scale(0.1 -0.1)">
       <use xlink:href="#DejaVuSans-50"/>
      </g>
     </g>
    </g>
    <g id="ytick_15">
     <g id="line2d_28">
      <path clip-path="url(#p07de54c32d)" d="M 57.6 129.866493 
L 414.72 129.866493 
" style="fill:none;stroke:#b0b0b0;stroke-linecap:square;stroke-width:0.8;"/>
     </g>
     <g id="line2d_29">
      <g>
       <use style="stroke:#000000;stroke-width:0.8;" x="414.72" xlink:href="#mc17474a909" y="129.866493"/>
      </g>
     </g>
     <g id="text_23">
      <!-- 3 -->
      <g transform="translate(421.72 133.665711)scale(0.1 -0.1)">
       <use xlink:href="#DejaVuSans-51"/>
      </g>
     </g>
    </g>
    <g id="ytick_16">
     <g id="line2d_30">
      <path clip-path="url(#p07de54c32d)" d="M 57.6 97.778682 
L 414.72 97.778682 
" style="fill:none;stroke:#b0b0b0;stroke-linecap:square;stroke-width:0.8;"/>
     </g>
     <g id="line2d_31">
      <g>
       <use style="stroke:#000000;stroke-width:0.8;" x="414.72" xlink:href="#mc17474a909" y="97.778682"/>
      </g>
     </g>
     <g id="text_24">
      <!-- 4 -->
      <g transform="translate(421.72 101.577901)scale(0.1 -0.1)">
       <use xlink:href="#DejaVuSans-52"/>
      </g>
     </g>
    </g>
    <g id="ytick_17">
     <g id="line2d_32">
      <path clip-path="url(#p07de54c32d)" d="M 57.6 65.690872 
L 414.72 65.690872 
" style="fill:none;stroke:#b0b0b0;stroke-linecap:square;stroke-width:0.8;"/>
     </g>
     <g id="line2d_33">
      <g>
       <use style="stroke:#000000;stroke-width:0.8;" x="414.72" xlink:href="#mc17474a909" y="65.690872"/>
      </g>
     </g>
     <g id="text_25">
      <!-- 5 -->
      <g transform="translate(421.72 69.490091)scale(0.1 -0.1)">
       <use xlink:href="#DejaVuSans-53"/>
      </g>
     </g>
    </g>
    <g id="text_26">
     <!-- Loudness -->
     <defs>
      <path d="M 9.8125 72.90625 
L 19.671875 72.90625 
L 19.671875 8.296875 
L 55.171875 8.296875 
L 55.171875 0 
L 9.8125 0 
z
" id="DejaVuSans-76"/>
      <path d="M 30.609375 48.390625 
Q 23.390625 48.390625 19.1875 42.75 
Q 14.984375 37.109375 14.984375 27.296875 
Q 14.984375 17.484375 19.15625 11.84375 
Q 23.34375 6.203125 30.609375 6.203125 
Q 37.796875 6.203125 41.984375 11.859375 
Q 46.1875 17.53125 46.1875 27.296875 
Q 46.1875 37.015625 41.984375 42.703125 
Q 37.796875 48.390625 30.609375 48.390625 
z
M 30.609375 56 
Q 42.328125 56 49.015625 48.375 
Q 55.71875 40.765625 55.71875 27.296875 
Q 55.71875 13.875 49.015625 6.21875 
Q 42.328125 -1.421875 30.609375 -1.421875 
Q 18.84375 -1.421875 12.171875 6.21875 
Q 5.515625 13.875 5.515625 27.296875 
Q 5.515625 40.765625 12.171875 48.375 
Q 18.84375 56 30.609375 56 
z
" id="DejaVuSans-111"/>
      <path d="M 8.5 21.578125 
L 8.5 54.6875 
L 17.484375 54.6875 
L 17.484375 21.921875 
Q 17.484375 14.15625 20.5 10.265625 
Q 23.53125 6.390625 29.59375 6.390625 
Q 36.859375 6.390625 41.078125 11.03125 
Q 45.3125 15.671875 45.3125 23.6875 
L 45.3125 54.6875 
L 54.296875 54.6875 
L 54.296875 0 
L 45.3125 0 
L 45.3125 8.40625 
Q 42.046875 3.421875 37.71875 1 
Q 33.40625 -1.421875 27.6875 -1.421875 
Q 18.265625 -1.421875 13.375 4.4375 
Q 8.5 10.296875 8.5 21.578125 
z
M 31.109375 56 
z
" id="DejaVuSans-117"/>
      <path d="M 45.40625 46.390625 
L 45.40625 75.984375 
L 54.390625 75.984375 
L 54.390625 0 
L 45.40625 0 
L 45.40625 8.203125 
Q 42.578125 3.328125 38.25 0.953125 
Q 33.9375 -1.421875 27.875 -1.421875 
Q 17.96875 -1.421875 11.734375 6.484375 
Q 5.515625 14.40625 5.515625 27.296875 
Q 5.515625 40.1875 11.734375 48.09375 
Q 17.96875 56 27.875 56 
Q 33.9375 56 38.25 53.625 
Q 42.578125 51.265625 45.40625 46.390625 
z
M 14.796875 27.296875 
Q 14.796875 17.390625 18.875 11.75 
Q 22.953125 6.109375 30.078125 6.109375 
Q 37.203125 6.109375 41.296875 11.75 
Q 45.40625 17.390625 45.40625 27.296875 
Q 45.40625 37.203125 41.296875 42.84375 
Q 37.203125 48.484375 30.078125 48.484375 
Q 22.953125 48.484375 18.875 42.84375 
Q 14.796875 37.203125 14.796875 27.296875 
z
" id="DejaVuSans-100"/>
     </defs>
     <g transform="translate(448.060625 198.170187)rotate(-90)scale(0.1 -0.1)">
      <use xlink:href="#DejaVuSans-76"/>
      <use x="55.697266" xlink:href="#DejaVuSans-111"/>
      <use x="116.878906" xlink:href="#DejaVuSans-117"/>
      <use x="180.257812" xlink:href="#DejaVuSans-100"/>
      <use x="243.734375" xlink:href="#DejaVuSans-110"/>
      <use x="307.113281" xlink:href="#DejaVuSans-101"/>
      <use x="368.636719" xlink:href="#DejaVuSans-115"/>
      <use x="420.736328" xlink:href="#DejaVuSans-115"/>
     </g>
    </g>
   </g>
   <g id="line2d_34">
    <path clip-path="url(#p07de54c32d)" d="M 73.832727 213.21386 
L 74.918528 214.842931 
L 77.090131 212.960224 
L 78.175932 211.265906 
L 79.261733 210.16539 
L 80.347534 210.452088 
L 81.433335 212.045118 
L 82.519137 213.424191 
L 84.690739 215.355925 
L 85.77654 216.692412 
L 86.862341 217.595791 
L 87.948142 216.734855 
L 89.033943 216.740305 
L 90.119745 215.428387 
L 91.205546 214.702649 
L 92.291347 215.406022 
L 93.377148 215.122475 
L 94.462949 213.241335 
L 95.54875 215.158697 
L 96.634552 212.980249 
L 97.720353 213.142235 
L 98.806154 206.39109 
L 99.891955 207.873949 
L 100.977756 202.733065 
L 102.063557 202.575513 
L 103.149358 200.823496 
L 104.23516 195.086635 
L 105.320961 194.933446 
L 106.406762 208.260028 
L 107.492563 212.764553 
L 108.578364 213.925057 
L 109.664165 214.311036 
L 110.749967 213.683279 
L 111.835768 212.899702 
L 112.921569 214.321921 
L 114.00737 215.420501 
L 115.093171 213.518141 
L 116.178972 212.782316 
L 117.264773 213.590954 
L 118.350575 211.443732 
L 119.436376 211.128264 
L 121.607978 211.728545 
L 122.693779 214.354466 
L 123.77958 211.095726 
L 124.865382 213.595947 
L 125.951183 212.691165 
L 127.036984 213.358923 
L 128.122785 212.947036 
L 130.294387 212.655974 
L 131.380189 211.035786 
L 132.46599 211.452513 
L 133.551791 209.698282 
L 134.637592 210.619827 
L 135.723393 208.396635 
L 136.809194 207.258574 
L 137.894995 208.112732 
L 138.980797 207.410611 
L 140.066598 206.890745 
L 141.152399 205.280753 
L 142.2382 204.951564 
L 143.324001 206.58039 
L 144.409802 207.517761 
L 145.495604 205.938794 
L 146.581405 206.517094 
L 147.667206 205.074923 
L 148.753007 205.610368 
L 149.838808 206.551517 
L 150.924609 204.929657 
L 152.01041 204.561851 
L 153.096212 207.668663 
L 154.182013 206.796013 
L 155.267814 208.385825 
L 156.353615 207.896554 
L 157.439416 208.24161 
L 158.525217 205.981375 
L 159.611019 208.731276 
L 160.69682 207.175921 
L 161.782621 207.293028 
L 162.868422 205.036934 
L 163.954223 206.765433 
L 165.040024 207.023886 
L 166.125825 206.742549 
L 167.211627 206.040952 
L 168.297428 206.051008 
L 169.383229 206.651018 
L 170.46903 207.956515 
L 171.554831 208.004732 
L 174.812235 207.276211 
L 175.898036 207.922003 
L 176.983837 208.697153 
L 178.069638 210.067674 
L 179.155439 207.507897 
L 180.24124 206.532344 
L 181.327042 206.463732 
L 182.412843 206.032122 
L 183.498644 205.213846 
L 184.584445 202.981693 
L 185.670246 202.914659 
L 186.756047 204.189553 
L 187.841849 205.758626 
L 188.92765 204.155468 
L 190.013451 202.319548 
L 191.099252 196.776287 
L 193.270854 197.825476 
L 194.356656 195.965347 
L 195.442457 196.174508 
L 196.528258 198.03839 
L 197.614059 197.006756 
L 198.69986 194.363282 
L 199.785661 198.196518 
L 200.871462 197.063702 
L 201.957264 193.474912 
L 204.128866 191.20654 
L 205.214667 197.009696 
L 206.300468 199.694089 
L 207.386269 194.893269 
L 208.472071 196.982795 
L 209.557872 201.318495 
L 210.643673 202.139963 
L 211.729474 199.332297 
L 212.815275 200.047499 
L 213.901076 201.980169 
L 214.986877 202.138722 
L 216.072679 203.921113 
L 217.15848 201.435264 
L 219.330082 201.227166 
L 220.415883 198.822871 
L 221.501684 201.93804 
L 222.587486 198.711811 
L 223.673287 197.18763 
L 224.759088 199.047521 
L 225.844889 199.097669 
L 226.93069 200.40121 
L 228.016491 199.071104 
L 229.102292 198.655402 
L 230.188094 196.132959 
L 231.273895 196.812682 
L 232.359696 198.644619 
L 233.445497 193.791795 
L 234.531298 195.720326 
L 235.617099 193.399918 
L 236.702901 195.311533 
L 237.788702 194.18089 
L 238.874503 190.700738 
L 239.960304 194.559292 
L 241.046105 196.466846 
L 242.131906 197.908313 
L 243.217708 195.519125 
L 244.303509 198.316787 
L 245.38931 194.315041 
L 246.475111 196.629782 
L 247.560912 194.611898 
L 248.646713 196.155316 
L 249.732514 191.448263 
L 250.818316 185.835961 
L 251.904117 188.497417 
L 252.989918 189.285601 
L 254.075719 188.213869 
L 255.16152 185.088402 
L 256.247321 192.099711 
L 258.418924 189.537306 
L 259.504725 191.766354 
L 260.590526 192.37989 
L 261.676327 190.328719 
L 262.762128 192.853156 
L 263.847929 196.582319 
L 264.933731 192.488821 
L 266.019532 191.004066 
L 267.105333 188.113642 
L 268.191134 192.807856 
L 269.276935 193.465042 
L 270.362736 192.536728 
L 271.448538 194.685635 
L 272.534339 194.156549 
L 273.62014 195.064307 
L 274.705941 194.09662 
L 275.791742 193.631921 
L 276.877543 194.898394 
L 277.963344 193.274308 
L 279.049146 193.28283 
L 280.134947 193.405761 
L 281.220748 196.255126 
L 282.306549 193.18169 
L 283.39235 190.899806 
L 284.478151 191.834468 
L 285.563953 191.598952 
L 286.649754 196.065176 
L 287.735555 192.380063 
L 288.821356 191.727641 
L 289.907157 190.434914 
L 290.992958 191.740236 
L 292.07876 191.05663 
L 293.164561 190.205824 
L 294.250362 191.690411 
L 295.336163 189.073655 
L 296.421964 192.830866 
L 297.507765 192.882071 
L 298.593566 188.899753 
L 299.679368 191.681318 
L 300.765169 191.1439 
L 301.85097 191.723404 
L 302.936771 190.976114 
L 304.022572 191.213191 
L 305.108373 193.752423 
L 307.279976 189.130334 
L 308.365777 188.851412 
L 309.451578 188.159529 
L 310.537379 189.215242 
L 311.62318 191.50477 
L 312.708981 192.487898 
L 313.794783 188.489409 
L 314.880584 186.2432 
L 315.966385 187.86103 
L 317.052186 188.99219 
L 318.137987 188.800664 
L 319.223788 190.421622 
L 320.30959 189.033972 
L 321.395391 191.970919 
L 322.481192 189.774584 
L 323.566993 188.436382 
L 324.652794 191.040556 
L 325.738595 188.096739 
L 326.824396 185.879398 
L 327.910198 187.408003 
L 328.995999 181.482658 
L 330.0818 184.259474 
L 331.167601 179.960292 
L 332.253402 185.670444 
L 333.339203 186.758298 
L 334.425005 182.977432 
L 335.510806 184.834859 
L 336.596607 183.943388 
L 337.682408 186.587218 
L 338.768209 182.713594 
L 339.85401 183.535591 
L 340.939811 178.39539 
L 342.025613 183.464279 
L 343.111414 179.631511 
L 344.197215 179.557344 
L 345.283016 180.524533 
L 346.368817 177.216261 
L 347.454618 179.054459 
L 348.54042 177.990041 
L 349.626221 176.65388 
L 350.712022 177.614599 
L 351.797823 178.140483 
L 352.883624 171.699144 
L 353.969425 174.393791 
L 356.141028 171.528064 
L 357.226829 171.949568 
L 358.31263 167.951922 
L 359.398431 168.268521 
L 360.484232 172.883152 
L 361.570033 173.773372 
L 362.655835 171.684668 
L 363.741636 174.503033 
L 364.827437 167.520679 
L 366.999039 177.954656 
L 368.08484 177.440377 
L 369.170642 179.775085 
L 370.256443 179.167183 
L 371.342244 178.889981 
L 372.428045 176.783478 
L 373.513846 182.522839 
L 374.599647 179.989882 
L 375.685448 180.240602 
L 376.77125 179.869055 
L 377.857051 180.399725 
L 378.942852 182.593365 
L 380.028653 181.402262 
L 381.114454 184.936574 
L 382.200255 178.098974 
L 383.286057 177.848165 
L 384.371858 180.895208 
L 385.457659 183.577607 
L 386.54346 178.085267 
L 387.629261 178.375724 
L 388.715062 182.139327 
L 389.800863 179.940377 
L 391.972466 185.662661 
L 393.058267 183.271651 
L 394.144068 185.169214 
L 395.229869 185.4727 
L 396.31567 182.05226 
L 397.401472 181.437299 
L 398.487273 182.254962 
L 398.487273 182.254962 
" style="fill:none;stroke:#008000;stroke-linecap:square;stroke-width:1.5;"/>
   </g>
   <g id="patch_7">
    <path d="M 57.6 307.584 
L 57.6 41.472 
" style="fill:none;stroke:#000000;stroke-linecap:square;stroke-linejoin:miter;stroke-width:0.8;"/>
   </g>
   <g id="patch_8">
    <path d="M 414.72 307.584 
L 414.72 41.472 
" style="fill:none;stroke:#000000;stroke-linecap:square;stroke-linejoin:miter;stroke-width:0.8;"/>
   </g>
   <g id="patch_9">
    <path d="M 57.6 307.584 
L 414.72 307.584 
" style="fill:none;stroke:#000000;stroke-linecap:square;stroke-linejoin:miter;stroke-width:0.8;"/>
   </g>
   <g id="patch_10">
    <path d="M 57.6 41.472 
L 414.72 41.472 
" style="fill:none;stroke:#000000;stroke-linecap:square;stroke-linejoin:miter;stroke-width:0.8;"/>
   </g>
   <g id="text_27">
    <!-- Message Difference and Loudness -->
    <defs>
     <path d="M 9.8125 72.90625 
L 24.515625 72.90625 
L 43.109375 23.296875 
L 61.8125 72.90625 
L 76.515625 72.90625 
L 76.515625 0 
L 66.890625 0 
L 66.890625 64.015625 
L 48.09375 14.015625 
L 38.1875 14.015625 
L 19.390625 64.015625 
L 19.390625 0 
L 9.8125 0 
z
" id="DejaVuSans-77"/>
     <path d="M 45.40625 27.984375 
Q 45.40625 37.75 41.375 43.109375 
Q 37.359375 48.484375 30.078125 48.484375 
Q 22.859375 48.484375 18.828125 43.109375 
Q 14.796875 37.75 14.796875 27.984375 
Q 14.796875 18.265625 18.828125 12.890625 
Q 22.859375 7.515625 30.078125 7.515625 
Q 37.359375 7.515625 41.375 12.890625 
Q 45.40625 18.265625 45.40625 27.984375 
z
M 54.390625 6.78125 
Q 54.390625 -7.171875 48.1875 -13.984375 
Q 42 -20.796875 29.203125 -20.796875 
Q 24.46875 -20.796875 20.265625 -20.09375 
Q 16.0625 -19.390625 12.109375 -17.921875 
L 12.109375 -9.1875 
Q 16.0625 -11.328125 19.921875 -12.34375 
Q 23.78125 -13.375 27.78125 -13.375 
Q 36.625 -13.375 41.015625 -8.765625 
Q 45.40625 -4.15625 45.40625 5.171875 
L 45.40625 9.625 
Q 42.625 4.78125 38.28125 2.390625 
Q 33.9375 0 27.875 0 
Q 17.828125 0 11.671875 7.65625 
Q 5.515625 15.328125 5.515625 27.984375 
Q 5.515625 40.671875 11.671875 48.328125 
Q 17.828125 56 27.875 56 
Q 33.9375 56 38.28125 53.609375 
Q 42.625 51.21875 45.40625 46.390625 
L 45.40625 54.6875 
L 54.390625 54.6875 
z
" id="DejaVuSans-103"/>
     <path id="DejaVuSans-32"/>
     <path d="M 37.109375 75.984375 
L 37.109375 68.5 
L 28.515625 68.5 
Q 23.6875 68.5 21.796875 66.546875 
Q 19.921875 64.59375 19.921875 59.515625 
L 19.921875 54.6875 
L 34.71875 54.6875 
L 34.71875 47.703125 
L 19.921875 47.703125 
L 19.921875 0 
L 10.890625 0 
L 10.890625 47.703125 
L 2.296875 47.703125 
L 2.296875 54.6875 
L 10.890625 54.6875 
L 10.890625 58.5 
Q 10.890625 67.625 15.140625 71.796875 
Q 19.390625 75.984375 28.609375 75.984375 
z
" id="DejaVuSans-102"/>
     <path d="M 41.109375 46.296875 
Q 39.59375 47.171875 37.8125 47.578125 
Q 36.03125 48 33.890625 48 
Q 26.265625 48 22.1875 43.046875 
Q 18.109375 38.09375 18.109375 28.8125 
L 18.109375 0 
L 9.078125 0 
L 9.078125 54.6875 
L 18.109375 54.6875 
L 18.109375 46.1875 
Q 20.953125 51.171875 25.484375 53.578125 
Q 30.03125 56 36.53125 56 
Q 37.453125 56 38.578125 55.875 
Q 39.703125 55.765625 41.0625 55.515625 
z
" id="DejaVuSans-114"/>
    </defs>
    <g transform="translate(133.329375 35.472)scale(0.12 -0.12)">
     <use xlink:href="#DejaVuSans-77"/>
     <use x="86.279297" xlink:href="#DejaVuSans-101"/>
     <use x="147.802734" xlink:href="#DejaVuSans-115"/>
     <use x="199.902344" xlink:href="#DejaVuSans-115"/>
     <use x="252.001953" xlink:href="#DejaVuSans-97"/>
     <use x="313.28125" xlink:href="#DejaVuSans-103"/>
     <use x="376.757812" xlink:href="#DejaVuSans-101"/>
     <use x="438.28125" xlink:href="#DejaVuSans-32"/>
     <use x="470.068359" xlink:href="#DejaVuSans-68"/>
     <use x="547.070312" xlink:href="#DejaVuSans-105"/>
     <use x="574.853516" xlink:href="#DejaVuSans-102"/>
     <use x="610.058594" xlink:href="#DejaVuSans-102"/>
     <use x="645.263672" xlink:href="#DejaVuSans-101"/>
     <use x="706.787109" xlink:href="#DejaVuSans-114"/>
     <use x="747.869141" xlink:href="#DejaVuSans-101"/>
     <use x="809.392578" xlink:href="#DejaVuSans-110"/>
     <use x="872.771484" xlink:href="#DejaVuSans-99"/>
     <use x="927.751953" xlink:href="#DejaVuSans-101"/>
     <use x="989.275391" xlink:href="#DejaVuSans-32"/>
     <use x="1021.0625" xlink:href="#DejaVuSans-97"/>
     <use x="1082.341797" xlink:href="#DejaVuSans-110"/>
     <use x="1145.720703" xlink:href="#DejaVuSans-100"/>
     <use x="1209.197266" xlink:href="#DejaVuSans-32"/>
     <use x="1240.984375" xlink:href="#DejaVuSans-76"/>
     <use x="1296.681641" xlink:href="#DejaVuSans-111"/>
     <use x="1357.863281" xlink:href="#DejaVuSans-117"/>
     <use x="1421.242188" xlink:href="#DejaVuSans-100"/>
     <use x="1484.71875" xlink:href="#DejaVuSans-110"/>
     <use x="1548.097656" xlink:href="#DejaVuSans-101"/>
     <use x="1609.621094" xlink:href="#DejaVuSans-115"/>
     <use x="1661.720703" xlink:href="#DejaVuSans-115"/>
    </g>
   </g>
   <g id="legend_1">
    <g id="patch_11">
     <path d="M 331.227813 64.150125 
L 407.72 64.150125 
Q 409.72 64.150125 409.72 62.150125 
L 409.72 48.472 
Q 409.72 46.472 407.72 46.472 
L 331.227813 46.472 
Q 329.227813 46.472 329.227813 48.472 
L 329.227813 62.150125 
Q 329.227813 64.150125 331.227813 64.150125 
z
" style="fill:#ffffff;opacity:0.8;stroke:#cccccc;stroke-linejoin:miter;"/>
    </g>
    <g id="line2d_35">
     <path d="M 333.227813 54.570438 
L 353.227813 54.570438 
" style="fill:none;stroke:#008000;stroke-linecap:square;stroke-width:1.5;"/>
    </g>
    <g id="line2d_36"/>
    <g id="text_28">
     <!-- loudness -->
     <defs>
      <path d="M 9.421875 75.984375 
L 18.40625 75.984375 
L 18.40625 0 
L 9.421875 0 
z
" id="DejaVuSans-108"/>
     </defs>
     <g transform="translate(361.227813 58.070438)scale(0.1 -0.1)">
      <use xlink:href="#DejaVuSans-108"/>
      <use x="27.783203" xlink:href="#DejaVuSans-111"/>
      <use x="88.964844" xlink:href="#DejaVuSans-117"/>
      <use x="152.34375" xlink:href="#DejaVuSans-100"/>
      <use x="215.820312" xlink:href="#DejaVuSans-110"/>
      <use x="279.199219" xlink:href="#DejaVuSans-101"/>
      <use x="340.722656" xlink:href="#DejaVuSans-115"/>
      <use x="392.822266" xlink:href="#DejaVuSans-115"/>
     </g>
    </g>
   </g>
  </g>
 </g>
 <defs>
  <clipPath id="p07de54c32d">
   <rect height="266.112" width="357.12" x="57.6" y="41.472"/>
  </clipPath>
 </defs>
</svg>
