<?xml version="1.0" encoding="utf-8" standalone="no"?>
<!DOCTYPE svg PUBLIC "-//W3C//DTD SVG 1.1//EN"
  "http://www.w3.org/Graphics/SVG/1.1/DTD/svg11.dtd">
<!-- Created with matplotlib (https://matplotlib.org/) -->
<svg height="345.6pt" version="1.1" viewBox="0 0 460.8 345.6" width="460.8pt" xmlns="http://www.w3.org/2000/svg" xmlns:xlink="http://www.w3.org/1999/xlink">
 <defs>
  <style type="text/css">
*{stroke-linecap:butt;stroke-linejoin:round;}
  </style>
 </defs>
 <g id="figure_1">
  <g id="patch_1">
   <path d="M 0 345.6 
L 460.8 345.6 
L 460.8 0 
L 0 0 
z
" style="fill:#ffffff;"/>
  </g>
  <g id="axes_1">
   <g id="patch_2">
    <path d="M 57.6 307.584 
L 414.72 307.584 
L 414.72 41.472 
L 57.6 41.472 
z
" style="fill:#ffffff;"/>
   </g>
   <g id="PolyCollection_1">
    <path clip-path="url(#pb42cec416d)" d="M 73.832727 53.568 
L 73.832727 64.937202 
L 74.918528 79.223653 
L 76.00433 99.880007 
L 77.090131 112.90834 
L 78.175932 116.555544 
L 79.261733 140.706143 
L 80.347534 160.298621 
L 81.433335 142.012762 
L 82.519137 152.780105 
L 83.604938 172.258709 
L 84.690739 159.607644 
L 85.77654 145.268894 
L 86.862341 150.772635 
L 87.948142 153.323122 
L 89.033943 145.402085 
L 90.119745 149.471393 
L 91.205546 150.296017 
L 92.291347 154.718835 
L 93.377148 161.266378 
L 94.462949 168.284614 
L 95.54875 181.119267 
L 96.634552 173.606681 
L 97.720353 182.99919 
L 98.806154 197.157389 
L 99.891955 210.449066 
L 100.977756 231.077479 
L 102.063557 230.479964 
L 103.149358 226.934091 
L 104.23516 203.830431 
L 105.320961 260.305309 
L 106.406762 246.155127 
L 107.492563 262.214785 
L 108.578364 230.935342 
L 109.664165 237.926913 
L 110.749967 190.421819 
L 111.835768 200.614832 
L 112.921569 197.985118 
L 114.00737 234.670693 
L 115.093171 215.582795 
L 116.178972 231.914961 
L 117.264773 234.452145 
L 118.350575 215.149431 
L 119.436376 195.985278 
L 120.522177 225.624837 
L 121.607978 239.836995 
L 122.693779 217.321246 
L 123.77958 214.789454 
L 124.865382 205.141869 
L 125.951183 174.407272 
L 127.036984 215.849994 
L 128.122785 250.502831 
L 129.208586 232.380384 
L 130.294387 252.820007 
L 131.380189 240.706551 
L 132.46599 229.640972 
L 133.551791 243.995926 
L 134.637592 254.428207 
L 135.723393 241.108007 
L 136.809194 244.877876 
L 137.894995 266.235724 
L 138.980797 278.58544 
L 140.066598 253.358695 
L 141.152399 239.443242 
L 142.2382 198.786668 
L 143.324001 188.25909 
L 144.409802 196.095661 
L 145.495604 211.662891 
L 146.581405 177.732772 
L 147.667206 239.627156 
L 148.753007 255.025259 
L 149.838808 226.293346 
L 150.924609 228.31171 
L 152.01041 246.066952 
L 153.096212 232.318689 
L 154.182013 231.720216 
L 155.267814 233.501711 
L 156.353615 212.541866 
L 157.439416 234.470358 
L 158.525217 228.118679 
L 159.611019 185.621112 
L 160.69682 193.671852 
L 161.782621 268.179979 
L 162.868422 249.808861 
L 163.954223 227.446483 
L 165.040024 212.883182 
L 166.125825 234.335318 
L 167.211627 225.941787 
L 168.297428 245.100349 
L 169.383229 205.394945 
L 170.46903 210.501116 
L 171.554831 246.493798 
L 172.640632 250.442829 
L 173.726434 230.436819 
L 174.812235 210.291352 
L 175.898036 178.314805 
L 176.983837 206.731142 
L 178.069638 199.094794 
L 179.155439 188.891728 
L 180.24124 175.751608 
L 181.327042 162.313312 
L 182.412843 155.625068 
L 183.498644 167.980258 
L 184.584445 178.027946 
L 185.670246 151.932911 
L 186.756047 153.924763 
L 187.841849 147.273105 
L 188.92765 149.342616 
L 190.013451 169.661318 
L 191.099252 159.029003 
L 192.185053 214.17702 
L 193.270854 186.651792 
L 194.356656 168.530057 
L 195.442457 159.25492 
L 196.528258 162.309191 
L 197.614059 181.804145 
L 198.69986 180.114549 
L 199.785661 204.970191 
L 200.871462 154.894906 
L 201.957264 172.832836 
L 203.043065 184.882322 
L 204.128866 183.050203 
L 205.214667 197.932785 
L 206.300468 188.110094 
L 207.386269 204.706583 
L 208.472071 197.700082 
L 209.557872 218.986867 
L 210.643673 217.283728 
L 211.729474 231.341078 
L 212.815275 240.934073 
L 213.901076 209.180673 
L 214.986877 212.932036 
L 216.072679 216.790064 
L 217.15848 230.653749 
L 218.244281 228.506283 
L 219.330082 236.022132 
L 220.415883 237.693865 
L 221.501684 223.892805 
L 222.587486 228.794526 
L 223.673287 218.483639 
L 224.759088 221.009207 
L 225.844889 170.228339 
L 226.93069 196.447887 
L 228.016491 198.902168 
L 229.102292 219.77237 
L 230.188094 209.009979 
L 231.273895 222.687536 
L 232.359696 237.811335 
L 233.445497 248.237825 
L 234.531298 236.47304 
L 235.617099 225.20166 
L 236.702901 232.207386 
L 237.788702 258.147075 
L 238.874503 222.977725 
L 239.960304 255.375499 
L 241.046105 218.712561 
L 242.131906 192.003841 
L 243.217708 222.635729 
L 244.303509 225.352204 
L 245.38931 224.414634 
L 246.475111 206.643922 
L 247.560912 191.776809 
L 248.646713 182.278673 
L 249.732514 187.057332 
L 250.818316 180.48456 
L 251.904117 205.307191 
L 252.989918 179.049049 
L 254.075719 160.911457 
L 255.16152 146.095507 
L 256.247321 170.77247 
L 257.333123 208.887257 
L 258.418924 179.984162 
L 259.504725 174.211166 
L 260.590526 198.317736 
L 261.676327 174.103278 
L 262.762128 188.450678 
L 263.847929 185.674309 
L 264.933731 171.939797 
L 266.019532 165.27885 
L 267.105333 164.699126 
L 268.191134 181.304721 
L 269.276935 169.115283 
L 270.362736 203.301978 
L 271.448538 163.901507 
L 272.534339 179.437978 
L 273.62014 141.818495 
L 274.705941 168.621049 
L 275.791742 175.624162 
L 276.877543 141.360509 
L 277.963344 163.336179 
L 279.049146 160.807855 
L 280.134947 164.936146 
L 281.220748 170.928108 
L 282.306549 197.512715 
L 283.39235 203.446175 
L 284.478151 214.014894 
L 285.563953 204.837987 
L 286.649754 206.087781 
L 287.735555 222.295601 
L 288.821356 230.885206 
L 289.907157 233.237838 
L 290.992958 214.782915 
L 292.07876 211.574407 
L 293.164561 222.783939 
L 294.250362 227.473393 
L 295.336163 220.6788 
L 296.421964 194.465016 
L 297.507765 189.837671 
L 298.593566 198.991677 
L 299.679368 221.7076 
L 300.765169 189.723258 
L 301.85097 172.785831 
L 302.936771 172.294732 
L 304.022572 184.743177 
L 305.108373 176.636732 
L 306.194175 179.816066 
L 307.279976 181.892687 
L 308.365777 196.836288 
L 309.451578 197.111581 
L 310.537379 189.380683 
L 311.62318 217.573453 
L 312.708981 239.11762 
L 313.794783 232.468256 
L 314.880584 223.701969 
L 315.966385 219.857333 
L 317.052186 224.924514 
L 318.137987 225.47309 
L 319.223788 199.612561 
L 320.30959 231.070624 
L 321.395391 205.244887 
L 322.481192 211.861622 
L 323.566993 205.07552 
L 324.652794 219.798721 
L 325.738595 202.334685 
L 326.824396 213.03612 
L 327.910198 197.875125 
L 328.995999 176.583099 
L 330.0818 200.649968 
L 331.167601 198.902967 
L 332.253402 185.014356 
L 333.339203 200.918576 
L 334.425005 238.740121 
L 335.510806 233.186172 
L 336.596607 254.642448 
L 337.682408 215.339752 
L 338.768209 219.180899 
L 339.85401 187.781728 
L 340.939811 188.108245 
L 342.025613 197.292947 
L 343.111414 174.192809 
L 344.197215 174.133586 
L 345.283016 160.688851 
L 346.368817 172.020951 
L 347.454618 209.898631 
L 348.54042 233.416618 
L 349.626221 197.25128 
L 350.712022 197.330704 
L 351.797823 196.053235 
L 352.883624 197.63625 
L 353.969425 207.093902 
L 355.055227 192.153888 
L 356.141028 182.115932 
L 357.226829 181.113882 
L 358.31263 199.919897 
L 359.398431 192.060461 
L 360.484232 185.443856 
L 361.570033 170.533432 
L 362.655835 189.717277 
L 363.741636 184.523323 
L 364.827437 172.528659 
L 365.913238 164.445857 
L 366.999039 154.350809 
L 368.08484 160.428725 
L 369.170642 149.425708 
L 370.256443 173.107242 
L 371.342244 215.026456 
L 372.428045 227.157827 
L 373.513846 236.904678 
L 374.599647 181.958329 
L 375.685448 238.448312 
L 376.77125 201.580636 
L 377.857051 181.29524 
L 378.942852 224.546012 
L 380.028653 210.726153 
L 381.114454 202.054158 
L 382.200255 199.256179 
L 383.286057 201.619217 
L 384.371858 200.206807 
L 385.457659 211.402595 
L 386.54346 188.422725 
L 387.629261 196.693295 
L 388.715062 198.399378 
L 389.800863 209.111991 
L 390.886665 250.323309 
L 391.972466 291.891777 
L 393.058267 295.488 
L 394.144068 242.303819 
L 395.229869 243.375008 
L 396.31567 222.739655 
L 397.401472 207.003158 
L 398.487273 205.206928 
L 398.487273 193.037626 
L 398.487273 193.037626 
L 397.401472 185.665805 
L 396.31567 189.07752 
L 395.229869 229.016186 
L 394.144068 220.232243 
L 393.058267 257.641442 
L 391.972466 270.282323 
L 390.886665 219.249235 
L 389.800863 194.689268 
L 388.715062 175.752849 
L 387.629261 173.303883 
L 386.54346 180.857972 
L 385.457659 192.606101 
L 384.371858 182.10954 
L 383.286057 173.218479 
L 382.200255 162.588981 
L 381.114454 177.56049 
L 380.028653 164.521636 
L 378.942852 184.933103 
L 377.857051 164.412316 
L 376.77125 156.37401 
L 375.685448 213.677633 
L 374.599647 167.06005 
L 373.513846 200.956401 
L 372.428045 217.119366 
L 371.342244 196.34461 
L 370.256443 158.280343 
L 369.170642 129.174474 
L 368.08484 152.412136 
L 366.999039 135.066349 
L 365.913238 148.282888 
L 364.827437 163.774723 
L 363.741636 173.87738 
L 362.655835 169.379 
L 361.570033 161.889153 
L 360.484232 158.532216 
L 359.398431 186.92742 
L 358.31263 175.071989 
L 357.226829 173.15083 
L 356.141028 165.589026 
L 355.055227 172.936772 
L 353.969425 179.065829 
L 352.883624 187.276084 
L 351.797823 186.275933 
L 350.712022 172.467144 
L 349.626221 184.29231 
L 348.54042 199.143191 
L 347.454618 181.387567 
L 346.368817 158.785914 
L 345.283016 143.42566 
L 344.197215 152.391836 
L 343.111414 162.10111 
L 342.025613 180.398145 
L 340.939811 162.599354 
L 339.85401 160.009711 
L 338.768209 196.453293 
L 337.682408 206.426134 
L 336.596607 231.715768 
L 335.510806 220.020557 
L 334.425005 204.412564 
L 333.339203 188.013691 
L 332.253402 179.173026 
L 331.167601 174.50876 
L 330.0818 191.717968 
L 328.995999 166.118923 
L 327.910198 194.930341 
L 326.824396 205.805198 
L 325.738595 180.683941 
L 324.652794 186.869183 
L 323.566993 190.190677 
L 322.481192 192.663158 
L 321.395391 187.760992 
L 320.30959 201.91998 
L 319.223788 185.041816 
L 318.137987 215.729984 
L 317.052186 200.995693 
L 315.966385 197.275169 
L 314.880584 205.307107 
L 313.794783 218.105879 
L 312.708981 223.548574 
L 311.62318 208.538344 
L 310.537379 167.881929 
L 309.451578 171.891349 
L 308.365777 177.432182 
L 307.279976 171.622835 
L 306.194175 172.333124 
L 305.108373 167.645179 
L 304.022572 164.749017 
L 302.936771 157.211831 
L 301.85097 155.327395 
L 300.765169 162.942291 
L 299.679368 196.818973 
L 298.593566 188.308637 
L 297.507765 172.314737 
L 296.421964 174.204415 
L 295.336163 202.895462 
L 294.250362 206.88184 
L 293.164561 216.561778 
L 292.07876 200.997143 
L 290.992958 205.732436 
L 289.907157 216.831682 
L 288.821356 195.27776 
L 287.735555 201.911372 
L 286.649754 195.64311 
L 285.563953 189.60978 
L 284.478151 187.060784 
L 283.39235 177.069878 
L 282.306549 171.66994 
L 281.220748 161.957764 
L 280.134947 150.398302 
L 279.049146 147.762648 
L 277.963344 138.849414 
L 276.877543 112.538963 
L 275.791742 165.782461 
L 274.705941 154.792937 
L 273.62014 136.037399 
L 272.534339 154.22175 
L 271.448538 150.896335 
L 270.362736 193.748144 
L 269.276935 136.789381 
L 268.191134 157.258132 
L 267.105333 159.809522 
L 266.019532 147.185587 
L 264.933731 145.095974 
L 263.847929 178.19448 
L 262.762128 175.980852 
L 261.676327 159.218573 
L 260.590526 175.295208 
L 259.504725 149.60747 
L 258.418924 157.41751 
L 257.333123 187.394205 
L 256.247321 151.227004 
L 255.16152 133.798481 
L 254.075719 143.981274 
L 252.989918 164.024238 
L 251.904117 185.679897 
L 250.818316 162.335903 
L 249.732514 169.346173 
L 248.646713 161.278518 
L 247.560912 179.846699 
L 246.475111 195.792979 
L 245.38931 209.04133 
L 244.303509 198.649338 
L 243.217708 182.840793 
L 242.131906 174.784254 
L 241.046105 193.464625 
L 239.960304 230.975535 
L 238.874503 209.761343 
L 237.788702 238.168461 
L 236.702901 213.018746 
L 235.617099 207.865476 
L 234.531298 218.354004 
L 233.445497 226.037194 
L 232.359696 213.14909 
L 231.273895 195.336856 
L 230.188094 185.563366 
L 229.102292 196.900954 
L 228.016491 173.214237 
L 226.93069 166.135936 
L 225.844889 161.666971 
L 224.759088 199.477804 
L 223.673287 205.164617 
L 222.587486 208.728058 
L 221.501684 197.267502 
L 220.415883 215.607598 
L 219.330082 209.893727 
L 218.244281 209.561478 
L 217.15848 223.455192 
L 216.072679 196.306519 
L 214.986877 203.251374 
L 213.901076 186.074545 
L 212.815275 213.774855 
L 211.729474 215.096836 
L 210.643673 193.203427 
L 209.557872 211.163285 
L 208.472071 157.678731 
L 207.386269 176.553324 
L 206.300468 162.293065 
L 205.214667 165.21809 
L 204.128866 165.248558 
L 203.043065 160.008361 
L 201.957264 155.51721 
L 200.871462 144.188671 
L 199.785661 173.362819 
L 198.69986 159.934997 
L 197.614059 160.085136 
L 196.528258 147.595674 
L 195.442457 139.771525 
L 194.356656 143.592742 
L 193.270854 175.867247 
L 192.185053 196.283246 
L 191.099252 144.291664 
L 190.013451 155.544519 
L 188.92765 135.00814 
L 187.841849 134.055935 
L 186.756047 141.7779 
L 185.670246 134.009978 
L 184.584445 162.97968 
L 183.498644 158.684349 
L 182.412843 145.701743 
L 181.327042 152.486959 
L 180.24124 153.59975 
L 179.155439 171.381534 
L 178.069638 182.454371 
L 176.983837 187.258171 
L 175.898036 158.589694 
L 174.812235 191.027874 
L 173.726434 196.488602 
L 172.640632 201.546323 
L 171.554831 234.119619 
L 170.46903 195.678198 
L 169.383229 188.730847 
L 168.297428 211.942832 
L 167.211627 217.205477 
L 166.125825 202.628455 
L 165.040024 190.002712 
L 163.954223 211.133078 
L 162.868422 233.056567 
L 161.782621 227.657573 
L 160.69682 171.435157 
L 159.611019 170.61202 
L 158.525217 214.765369 
L 157.439416 209.329132 
L 156.353615 189.858536 
L 155.267814 216.484846 
L 154.182013 215.065026 
L 153.096212 214.274136 
L 152.01041 217.109392 
L 150.924609 206.280902 
L 149.838808 217.342688 
L 148.753007 230.059626 
L 147.667206 202.401359 
L 146.581405 159.201477 
L 145.495604 183.436044 
L 144.409802 171.443696 
L 143.324001 175.398852 
L 142.2382 190.714084 
L 141.152399 207.097352 
L 140.066598 236.206767 
L 138.980797 264.467768 
L 137.894995 233.96695 
L 136.809194 208.814433 
L 135.723393 220.576874 
L 134.637592 240.34081 
L 133.551791 219.613331 
L 132.46599 198.939444 
L 131.380189 210.111186 
L 130.294387 225.858562 
L 129.208586 197.961106 
L 128.122785 213.013293 
L 127.036984 194.392994 
L 125.951183 165.920365 
L 124.865382 184.934846 
L 123.77958 189.11227 
L 122.693779 184.879916 
L 121.607978 204.027868 
L 120.522177 193.596898 
L 119.436376 187.724691 
L 118.350575 185.194875 
L 117.264773 185.124249 
L 116.178972 204.081524 
L 115.093171 194.944404 
L 114.00737 204.552621 
L 112.921569 146.003729 
L 111.835768 162.022241 
L 110.749967 165.851484 
L 109.664165 193.187483 
L 108.578364 201.455685 
L 107.492563 239.176008 
L 106.406762 200.689512 
L 105.320961 235.539071 
L 104.23516 182.302293 
L 103.149358 197.527103 
L 102.063557 193.442745 
L 100.977756 180.371788 
L 99.891955 196.557986 
L 98.806154 163.907552 
L 97.720353 155.248414 
L 96.634552 139.913622 
L 95.54875 161.261237 
L 94.462949 150.677987 
L 93.377148 150.012431 
L 92.291347 132.242978 
L 91.205546 125.590086 
L 90.119745 132.208413 
L 89.033943 121.976432 
L 87.948142 124.031481 
L 86.862341 128.485249 
L 85.77654 124.837226 
L 84.690739 153.531885 
L 83.604938 150.402192 
L 82.519137 129.182873 
L 81.433335 134.000092 
L 80.347534 134.480556 
L 79.261733 126.34826 
L 78.175932 98.82551 
L 77.090131 101.555646 
L 76.00433 89.407497 
L 74.918528 66.33959 
L 73.832727 53.568 
z
" style="fill:#0000ff;fill-opacity:0.25;"/>
   </g>
   <g id="matplotlib.axis_1">
    <g id="xtick_1">
     <g id="line2d_1">
      <defs>
       <path d="M 0 0 
L 0 3.5 
" id="m6536db5931" style="stroke:#000000;stroke-width:0.8;"/>
      </defs>
      <g>
       <use style="stroke:#000000;stroke-width:0.8;" x="73.832727" xlink:href="#m6536db5931" y="307.584"/>
      </g>
     </g>
     <g id="text_1">
      <!-- 0 -->
      <defs>
       <path d="M 31.78125 66.40625 
Q 24.171875 66.40625 20.328125 58.90625 
Q 16.5 51.421875 16.5 36.375 
Q 16.5 21.390625 20.328125 13.890625 
Q 24.171875 6.390625 31.78125 6.390625 
Q 39.453125 6.390625 43.28125 13.890625 
Q 47.125 21.390625 47.125 36.375 
Q 47.125 51.421875 43.28125 58.90625 
Q 39.453125 66.40625 31.78125 66.40625 
z
M 31.78125 74.21875 
Q 44.046875 74.21875 50.515625 64.515625 
Q 56.984375 54.828125 56.984375 36.375 
Q 56.984375 17.96875 50.515625 8.265625 
Q 44.046875 -1.421875 31.78125 -1.421875 
Q 19.53125 -1.421875 13.0625 8.265625 
Q 6.59375 17.96875 6.59375 36.375 
Q 6.59375 54.828125 13.0625 64.515625 
Q 19.53125 74.21875 31.78125 74.21875 
z
" id="DejaVuSans-48"/>
      </defs>
      <g transform="translate(70.651477 322.182437)scale(0.1 -0.1)">
       <use xlink:href="#DejaVuSans-48"/>
      </g>
     </g>
    </g>
    <g id="xtick_2">
     <g id="line2d_2">
      <g>
       <use style="stroke:#000000;stroke-width:0.8;" x="128.122785" xlink:href="#m6536db5931" y="307.584"/>
      </g>
     </g>
     <g id="text_2">
      <!-- 50 -->
      <defs>
       <path d="M 10.796875 72.90625 
L 49.515625 72.90625 
L 49.515625 64.59375 
L 19.828125 64.59375 
L 19.828125 46.734375 
Q 21.96875 47.46875 24.109375 47.828125 
Q 26.265625 48.1875 28.421875 48.1875 
Q 40.625 48.1875 47.75 41.5 
Q 54.890625 34.8125 54.890625 23.390625 
Q 54.890625 11.625 47.5625 5.09375 
Q 40.234375 -1.421875 26.90625 -1.421875 
Q 22.3125 -1.421875 17.546875 -0.640625 
Q 12.796875 0.140625 7.71875 1.703125 
L 7.71875 11.625 
Q 12.109375 9.234375 16.796875 8.0625 
Q 21.484375 6.890625 26.703125 6.890625 
Q 35.15625 6.890625 40.078125 11.328125 
Q 45.015625 15.765625 45.015625 23.390625 
Q 45.015625 31 40.078125 35.4375 
Q 35.15625 39.890625 26.703125 39.890625 
Q 22.75 39.890625 18.8125 39.015625 
Q 14.890625 38.140625 10.796875 36.28125 
z
" id="DejaVuSans-53"/>
      </defs>
      <g transform="translate(121.760285 322.182437)scale(0.1 -0.1)">
       <use xlink:href="#DejaVuSans-53"/>
       <use x="63.623047" xlink:href="#DejaVuSans-48"/>
      </g>
     </g>
    </g>
    <g id="xtick_3">
     <g id="line2d_3">
      <g>
       <use style="stroke:#000000;stroke-width:0.8;" x="182.412843" xlink:href="#m6536db5931" y="307.584"/>
      </g>
     </g>
     <g id="text_3">
      <!-- 100 -->
      <defs>
       <path d="M 12.40625 8.296875 
L 28.515625 8.296875 
L 28.515625 63.921875 
L 10.984375 60.40625 
L 10.984375 69.390625 
L 28.421875 72.90625 
L 38.28125 72.90625 
L 38.28125 8.296875 
L 54.390625 8.296875 
L 54.390625 0 
L 12.40625 0 
z
" id="DejaVuSans-49"/>
      </defs>
      <g transform="translate(172.869093 322.182437)scale(0.1 -0.1)">
       <use xlink:href="#DejaVuSans-49"/>
       <use x="63.623047" xlink:href="#DejaVuSans-48"/>
       <use x="127.246094" xlink:href="#DejaVuSans-48"/>
      </g>
     </g>
    </g>
    <g id="xtick_4">
     <g id="line2d_4">
      <g>
       <use style="stroke:#000000;stroke-width:0.8;" x="236.702901" xlink:href="#m6536db5931" y="307.584"/>
      </g>
     </g>
     <g id="text_4">
      <!-- 150 -->
      <g transform="translate(227.159151 322.182437)scale(0.1 -0.1)">
       <use xlink:href="#DejaVuSans-49"/>
       <use x="63.623047" xlink:href="#DejaVuSans-53"/>
       <use x="127.246094" xlink:href="#DejaVuSans-48"/>
      </g>
     </g>
    </g>
    <g id="xtick_5">
     <g id="line2d_5">
      <g>
       <use style="stroke:#000000;stroke-width:0.8;" x="290.992958" xlink:href="#m6536db5931" y="307.584"/>
      </g>
     </g>
     <g id="text_5">
      <!-- 200 -->
      <defs>
       <path d="M 19.1875 8.296875 
L 53.609375 8.296875 
L 53.609375 0 
L 7.328125 0 
L 7.328125 8.296875 
Q 12.9375 14.109375 22.625 23.890625 
Q 32.328125 33.6875 34.8125 36.53125 
Q 39.546875 41.84375 41.421875 45.53125 
Q 43.3125 49.21875 43.3125 52.78125 
Q 43.3125 58.59375 39.234375 62.25 
Q 35.15625 65.921875 28.609375 65.921875 
Q 23.96875 65.921875 18.8125 64.3125 
Q 13.671875 62.703125 7.8125 59.421875 
L 7.8125 69.390625 
Q 13.765625 71.78125 18.9375 73 
Q 24.125 74.21875 28.421875 74.21875 
Q 39.75 74.21875 46.484375 68.546875 
Q 53.21875 62.890625 53.21875 53.421875 
Q 53.21875 48.921875 51.53125 44.890625 
Q 49.859375 40.875 45.40625 35.40625 
Q 44.1875 33.984375 37.640625 27.21875 
Q 31.109375 20.453125 19.1875 8.296875 
z
" id="DejaVuSans-50"/>
      </defs>
      <g transform="translate(281.449208 322.182437)scale(0.1 -0.1)">
       <use xlink:href="#DejaVuSans-50"/>
       <use x="63.623047" xlink:href="#DejaVuSans-48"/>
       <use x="127.246094" xlink:href="#DejaVuSans-48"/>
      </g>
     </g>
    </g>
    <g id="xtick_6">
     <g id="line2d_6">
      <g>
       <use style="stroke:#000000;stroke-width:0.8;" x="345.283016" xlink:href="#m6536db5931" y="307.584"/>
      </g>
     </g>
     <g id="text_6">
      <!-- 250 -->
      <g transform="translate(335.739266 322.182437)scale(0.1 -0.1)">
       <use xlink:href="#DejaVuSans-50"/>
       <use x="63.623047" xlink:href="#DejaVuSans-53"/>
       <use x="127.246094" xlink:href="#DejaVuSans-48"/>
      </g>
     </g>
    </g>
    <g id="xtick_7">
     <g id="line2d_7">
      <g>
       <use style="stroke:#000000;stroke-width:0.8;" x="399.573074" xlink:href="#m6536db5931" y="307.584"/>
      </g>
     </g>
     <g id="text_7">
      <!-- 300 -->
      <defs>
       <path d="M 40.578125 39.3125 
Q 47.65625 37.796875 51.625 33 
Q 55.609375 28.21875 55.609375 21.1875 
Q 55.609375 10.40625 48.1875 4.484375 
Q 40.765625 -1.421875 27.09375 -1.421875 
Q 22.515625 -1.421875 17.65625 -0.515625 
Q 12.796875 0.390625 7.625 2.203125 
L 7.625 11.71875 
Q 11.71875 9.328125 16.59375 8.109375 
Q 21.484375 6.890625 26.8125 6.890625 
Q 36.078125 6.890625 40.9375 10.546875 
Q 45.796875 14.203125 45.796875 21.1875 
Q 45.796875 27.640625 41.28125 31.265625 
Q 36.765625 34.90625 28.71875 34.90625 
L 20.21875 34.90625 
L 20.21875 43.015625 
L 29.109375 43.015625 
Q 36.375 43.015625 40.234375 45.921875 
Q 44.09375 48.828125 44.09375 54.296875 
Q 44.09375 59.90625 40.109375 62.90625 
Q 36.140625 65.921875 28.71875 65.921875 
Q 24.65625 65.921875 20.015625 65.03125 
Q 15.375 64.15625 9.8125 62.3125 
L 9.8125 71.09375 
Q 15.4375 72.65625 20.34375 73.4375 
Q 25.25 74.21875 29.59375 74.21875 
Q 40.828125 74.21875 47.359375 69.109375 
Q 53.90625 64.015625 53.90625 55.328125 
Q 53.90625 49.265625 50.4375 45.09375 
Q 46.96875 40.921875 40.578125 39.3125 
z
" id="DejaVuSans-51"/>
      </defs>
      <g transform="translate(390.029324 322.182437)scale(0.1 -0.1)">
       <use xlink:href="#DejaVuSans-51"/>
       <use x="63.623047" xlink:href="#DejaVuSans-48"/>
       <use x="127.246094" xlink:href="#DejaVuSans-48"/>
      </g>
     </g>
    </g>
   </g>
   <g id="matplotlib.axis_2">
    <g id="ytick_1">
     <g id="line2d_8">
      <defs>
       <path d="M 0 0 
L -3.5 0 
" id="m0788b7f17a" style="stroke:#000000;stroke-width:0.8;"/>
      </defs>
      <g>
       <use style="stroke:#000000;stroke-width:0.8;" x="57.6" xlink:href="#m0788b7f17a" y="283.911927"/>
      </g>
     </g>
     <g id="text_8">
      <!-- 0.6 -->
      <defs>
       <path d="M 10.6875 12.40625 
L 21 12.40625 
L 21 0 
L 10.6875 0 
z
" id="DejaVuSans-46"/>
       <path d="M 33.015625 40.375 
Q 26.375 40.375 22.484375 35.828125 
Q 18.609375 31.296875 18.609375 23.390625 
Q 18.609375 15.53125 22.484375 10.953125 
Q 26.375 6.390625 33.015625 6.390625 
Q 39.65625 6.390625 43.53125 10.953125 
Q 47.40625 15.53125 47.40625 23.390625 
Q 47.40625 31.296875 43.53125 35.828125 
Q 39.65625 40.375 33.015625 40.375 
z
M 52.59375 71.296875 
L 52.59375 62.3125 
Q 48.875 64.0625 45.09375 64.984375 
Q 41.3125 65.921875 37.59375 65.921875 
Q 27.828125 65.921875 22.671875 59.328125 
Q 17.53125 52.734375 16.796875 39.40625 
Q 19.671875 43.65625 24.015625 45.921875 
Q 28.375 48.1875 33.59375 48.1875 
Q 44.578125 48.1875 50.953125 41.515625 
Q 57.328125 34.859375 57.328125 23.390625 
Q 57.328125 12.15625 50.6875 5.359375 
Q 44.046875 -1.421875 33.015625 -1.421875 
Q 20.359375 -1.421875 13.671875 8.265625 
Q 6.984375 17.96875 6.984375 36.375 
Q 6.984375 53.65625 15.1875 63.9375 
Q 23.390625 74.21875 37.203125 74.21875 
Q 40.921875 74.21875 44.703125 73.484375 
Q 48.484375 72.75 52.59375 71.296875 
z
" id="DejaVuSans-54"/>
      </defs>
      <g transform="translate(34.696875 287.711146)scale(0.1 -0.1)">
       <use xlink:href="#DejaVuSans-48"/>
       <use x="63.623047" xlink:href="#DejaVuSans-46"/>
       <use x="95.410156" xlink:href="#DejaVuSans-54"/>
      </g>
     </g>
    </g>
    <g id="ytick_2">
     <g id="line2d_9">
      <g>
       <use style="stroke:#000000;stroke-width:0.8;" x="57.6" xlink:href="#m0788b7f17a" y="246.607202"/>
      </g>
     </g>
     <g id="text_9">
      <!-- 0.8 -->
      <defs>
       <path d="M 31.78125 34.625 
Q 24.75 34.625 20.71875 30.859375 
Q 16.703125 27.09375 16.703125 20.515625 
Q 16.703125 13.921875 20.71875 10.15625 
Q 24.75 6.390625 31.78125 6.390625 
Q 38.8125 6.390625 42.859375 10.171875 
Q 46.921875 13.96875 46.921875 20.515625 
Q 46.921875 27.09375 42.890625 30.859375 
Q 38.875 34.625 31.78125 34.625 
z
M 21.921875 38.8125 
Q 15.578125 40.375 12.03125 44.71875 
Q 8.5 49.078125 8.5 55.328125 
Q 8.5 64.0625 14.71875 69.140625 
Q 20.953125 74.21875 31.78125 74.21875 
Q 42.671875 74.21875 48.875 69.140625 
Q 55.078125 64.0625 55.078125 55.328125 
Q 55.078125 49.078125 51.53125 44.71875 
Q 48 40.375 41.703125 38.8125 
Q 48.828125 37.15625 52.796875 32.3125 
Q 56.78125 27.484375 56.78125 20.515625 
Q 56.78125 9.90625 50.3125 4.234375 
Q 43.84375 -1.421875 31.78125 -1.421875 
Q 19.734375 -1.421875 13.25 4.234375 
Q 6.78125 9.90625 6.78125 20.515625 
Q 6.78125 27.484375 10.78125 32.3125 
Q 14.796875 37.15625 21.921875 38.8125 
z
M 18.3125 54.390625 
Q 18.3125 48.734375 21.84375 45.5625 
Q 25.390625 42.390625 31.78125 42.390625 
Q 38.140625 42.390625 41.71875 45.5625 
Q 45.3125 48.734375 45.3125 54.390625 
Q 45.3125 60.0625 41.71875 63.234375 
Q 38.140625 66.40625 31.78125 66.40625 
Q 25.390625 66.40625 21.84375 63.234375 
Q 18.3125 60.0625 18.3125 54.390625 
z
" id="DejaVuSans-56"/>
      </defs>
      <g transform="translate(34.696875 250.406421)scale(0.1 -0.1)">
       <use xlink:href="#DejaVuSans-48"/>
       <use x="63.623047" xlink:href="#DejaVuSans-46"/>
       <use x="95.410156" xlink:href="#DejaVuSans-56"/>
      </g>
     </g>
    </g>
    <g id="ytick_3">
     <g id="line2d_10">
      <g>
       <use style="stroke:#000000;stroke-width:0.8;" x="57.6" xlink:href="#m0788b7f17a" y="209.302476"/>
      </g>
     </g>
     <g id="text_10">
      <!-- 1.0 -->
      <g transform="translate(34.696875 213.101695)scale(0.1 -0.1)">
       <use xlink:href="#DejaVuSans-49"/>
       <use x="63.623047" xlink:href="#DejaVuSans-46"/>
       <use x="95.410156" xlink:href="#DejaVuSans-48"/>
      </g>
     </g>
    </g>
    <g id="ytick_4">
     <g id="line2d_11">
      <g>
       <use style="stroke:#000000;stroke-width:0.8;" x="57.6" xlink:href="#m0788b7f17a" y="171.997751"/>
      </g>
     </g>
     <g id="text_11">
      <!-- 1.2 -->
      <g transform="translate(34.696875 175.79697)scale(0.1 -0.1)">
       <use xlink:href="#DejaVuSans-49"/>
       <use x="63.623047" xlink:href="#DejaVuSans-46"/>
       <use x="95.410156" xlink:href="#DejaVuSans-50"/>
      </g>
     </g>
    </g>
    <g id="ytick_5">
     <g id="line2d_12">
      <g>
       <use style="stroke:#000000;stroke-width:0.8;" x="57.6" xlink:href="#m0788b7f17a" y="134.693026"/>
      </g>
     </g>
     <g id="text_12">
      <!-- 1.4 -->
      <defs>
       <path d="M 37.796875 64.3125 
L 12.890625 25.390625 
L 37.796875 25.390625 
z
M 35.203125 72.90625 
L 47.609375 72.90625 
L 47.609375 25.390625 
L 58.015625 25.390625 
L 58.015625 17.1875 
L 47.609375 17.1875 
L 47.609375 0 
L 37.796875 0 
L 37.796875 17.1875 
L 4.890625 17.1875 
L 4.890625 26.703125 
z
" id="DejaVuSans-52"/>
      </defs>
      <g transform="translate(34.696875 138.492244)scale(0.1 -0.1)">
       <use xlink:href="#DejaVuSans-49"/>
       <use x="63.623047" xlink:href="#DejaVuSans-46"/>
       <use x="95.410156" xlink:href="#DejaVuSans-52"/>
      </g>
     </g>
    </g>
    <g id="ytick_6">
     <g id="line2d_13">
      <g>
       <use style="stroke:#000000;stroke-width:0.8;" x="57.6" xlink:href="#m0788b7f17a" y="97.3883"/>
      </g>
     </g>
     <g id="text_13">
      <!-- 1.6 -->
      <g transform="translate(34.696875 101.187519)scale(0.1 -0.1)">
       <use xlink:href="#DejaVuSans-49"/>
       <use x="63.623047" xlink:href="#DejaVuSans-46"/>
       <use x="95.410156" xlink:href="#DejaVuSans-54"/>
      </g>
     </g>
    </g>
    <g id="ytick_7">
     <g id="line2d_14">
      <g>
       <use style="stroke:#000000;stroke-width:0.8;" x="57.6" xlink:href="#m0788b7f17a" y="60.083575"/>
      </g>
     </g>
     <g id="text_14">
      <!-- 1.8 -->
      <g transform="translate(34.696875 63.882794)scale(0.1 -0.1)">
       <use xlink:href="#DejaVuSans-49"/>
       <use x="63.623047" xlink:href="#DejaVuSans-46"/>
       <use x="95.410156" xlink:href="#DejaVuSans-56"/>
      </g>
     </g>
    </g>
    <g id="text_15">
     <!-- Distance -->
     <defs>
      <path d="M 19.671875 64.796875 
L 19.671875 8.109375 
L 31.59375 8.109375 
Q 46.6875 8.109375 53.6875 14.9375 
Q 60.6875 21.78125 60.6875 36.53125 
Q 60.6875 51.171875 53.6875 57.984375 
Q 46.6875 64.796875 31.59375 64.796875 
z
M 9.8125 72.90625 
L 30.078125 72.90625 
Q 51.265625 72.90625 61.171875 64.09375 
Q 71.09375 55.28125 71.09375 36.53125 
Q 71.09375 17.671875 61.125 8.828125 
Q 51.171875 0 30.078125 0 
L 9.8125 0 
z
" id="DejaVuSans-68"/>
      <path d="M 9.421875 54.6875 
L 18.40625 54.6875 
L 18.40625 0 
L 9.421875 0 
z
M 9.421875 75.984375 
L 18.40625 75.984375 
L 18.40625 64.59375 
L 9.421875 64.59375 
z
" id="DejaVuSans-105"/>
      <path d="M 44.28125 53.078125 
L 44.28125 44.578125 
Q 40.484375 46.53125 36.375 47.5 
Q 32.28125 48.484375 27.875 48.484375 
Q 21.1875 48.484375 17.84375 46.4375 
Q 14.5 44.390625 14.5 40.28125 
Q 14.5 37.15625 16.890625 35.375 
Q 19.28125 33.59375 26.515625 31.984375 
L 29.59375 31.296875 
Q 39.15625 29.25 43.1875 25.515625 
Q 47.21875 21.78125 47.21875 15.09375 
Q 47.21875 7.46875 41.1875 3.015625 
Q 35.15625 -1.421875 24.609375 -1.421875 
Q 20.21875 -1.421875 15.453125 -0.5625 
Q 10.6875 0.296875 5.421875 2 
L 5.421875 11.28125 
Q 10.40625 8.6875 15.234375 7.390625 
Q 20.0625 6.109375 24.8125 6.109375 
Q 31.15625 6.109375 34.5625 8.28125 
Q 37.984375 10.453125 37.984375 14.40625 
Q 37.984375 18.0625 35.515625 20.015625 
Q 33.0625 21.96875 24.703125 23.78125 
L 21.578125 24.515625 
Q 13.234375 26.265625 9.515625 29.90625 
Q 5.8125 33.546875 5.8125 39.890625 
Q 5.8125 47.609375 11.28125 51.796875 
Q 16.75 56 26.8125 56 
Q 31.78125 56 36.171875 55.265625 
Q 40.578125 54.546875 44.28125 53.078125 
z
" id="DejaVuSans-115"/>
      <path d="M 18.3125 70.21875 
L 18.3125 54.6875 
L 36.8125 54.6875 
L 36.8125 47.703125 
L 18.3125 47.703125 
L 18.3125 18.015625 
Q 18.3125 11.328125 20.140625 9.421875 
Q 21.96875 7.515625 27.59375 7.515625 
L 36.8125 7.515625 
L 36.8125 0 
L 27.59375 0 
Q 17.1875 0 13.234375 3.875 
Q 9.28125 7.765625 9.28125 18.015625 
L 9.28125 47.703125 
L 2.6875 47.703125 
L 2.6875 54.6875 
L 9.28125 54.6875 
L 9.28125 70.21875 
z
" id="DejaVuSans-116"/>
      <path d="M 34.28125 27.484375 
Q 23.390625 27.484375 19.1875 25 
Q 14.984375 22.515625 14.984375 16.5 
Q 14.984375 11.71875 18.140625 8.90625 
Q 21.296875 6.109375 26.703125 6.109375 
Q 34.1875 6.109375 38.703125 11.40625 
Q 43.21875 16.703125 43.21875 25.484375 
L 43.21875 27.484375 
z
M 52.203125 31.203125 
L 52.203125 0 
L 43.21875 0 
L 43.21875 8.296875 
Q 40.140625 3.328125 35.546875 0.953125 
Q 30.953125 -1.421875 24.3125 -1.421875 
Q 15.921875 -1.421875 10.953125 3.296875 
Q 6 8.015625 6 15.921875 
Q 6 25.140625 12.171875 29.828125 
Q 18.359375 34.515625 30.609375 34.515625 
L 43.21875 34.515625 
L 43.21875 35.40625 
Q 43.21875 41.609375 39.140625 45 
Q 35.0625 48.390625 27.6875 48.390625 
Q 23 48.390625 18.546875 47.265625 
Q 14.109375 46.140625 10.015625 43.890625 
L 10.015625 52.203125 
Q 14.9375 54.109375 19.578125 55.046875 
Q 24.21875 56 28.609375 56 
Q 40.484375 56 46.34375 49.84375 
Q 52.203125 43.703125 52.203125 31.203125 
z
" id="DejaVuSans-97"/>
      <path d="M 54.890625 33.015625 
L 54.890625 0 
L 45.90625 0 
L 45.90625 32.71875 
Q 45.90625 40.484375 42.875 44.328125 
Q 39.84375 48.1875 33.796875 48.1875 
Q 26.515625 48.1875 22.3125 43.546875 
Q 18.109375 38.921875 18.109375 30.90625 
L 18.109375 0 
L 9.078125 0 
L 9.078125 54.6875 
L 18.109375 54.6875 
L 18.109375 46.1875 
Q 21.34375 51.125 25.703125 53.5625 
Q 30.078125 56 35.796875 56 
Q 45.21875 56 50.046875 50.171875 
Q 54.890625 44.34375 54.890625 33.015625 
z
" id="DejaVuSans-110"/>
      <path d="M 48.78125 52.59375 
L 48.78125 44.1875 
Q 44.96875 46.296875 41.140625 47.34375 
Q 37.3125 48.390625 33.40625 48.390625 
Q 24.65625 48.390625 19.8125 42.84375 
Q 14.984375 37.3125 14.984375 27.296875 
Q 14.984375 17.28125 19.8125 11.734375 
Q 24.65625 6.203125 33.40625 6.203125 
Q 37.3125 6.203125 41.140625 7.25 
Q 44.96875 8.296875 48.78125 10.40625 
L 48.78125 2.09375 
Q 45.015625 0.34375 40.984375 -0.53125 
Q 36.96875 -1.421875 32.421875 -1.421875 
Q 20.0625 -1.421875 12.78125 6.34375 
Q 5.515625 14.109375 5.515625 27.296875 
Q 5.515625 40.671875 12.859375 48.328125 
Q 20.21875 56 33.015625 56 
Q 37.15625 56 41.109375 55.140625 
Q 45.0625 54.296875 48.78125 52.59375 
z
" id="DejaVuSans-99"/>
      <path d="M 56.203125 29.59375 
L 56.203125 25.203125 
L 14.890625 25.203125 
Q 15.484375 15.921875 20.484375 11.0625 
Q 25.484375 6.203125 34.421875 6.203125 
Q 39.59375 6.203125 44.453125 7.46875 
Q 49.3125 8.734375 54.109375 11.28125 
L 54.109375 2.78125 
Q 49.265625 0.734375 44.1875 -0.34375 
Q 39.109375 -1.421875 33.890625 -1.421875 
Q 20.796875 -1.421875 13.15625 6.1875 
Q 5.515625 13.8125 5.515625 26.8125 
Q 5.515625 40.234375 12.765625 48.109375 
Q 20.015625 56 32.328125 56 
Q 43.359375 56 49.78125 48.890625 
Q 56.203125 41.796875 56.203125 29.59375 
z
M 47.21875 32.234375 
Q 47.125 39.59375 43.09375 43.984375 
Q 39.0625 48.390625 32.421875 48.390625 
Q 24.90625 48.390625 20.390625 44.140625 
Q 15.875 39.890625 15.1875 32.171875 
z
" id="DejaVuSans-101"/>
     </defs>
     <g transform="translate(28.617187 196.3905)rotate(-90)scale(0.1 -0.1)">
      <use xlink:href="#DejaVuSans-68"/>
      <use x="77.001953" xlink:href="#DejaVuSans-105"/>
      <use x="104.785156" xlink:href="#DejaVuSans-115"/>
      <use x="156.884766" xlink:href="#DejaVuSans-116"/>
      <use x="196.09375" xlink:href="#DejaVuSans-97"/>
      <use x="257.373047" xlink:href="#DejaVuSans-110"/>
      <use x="320.751953" xlink:href="#DejaVuSans-99"/>
      <use x="375.732422" xlink:href="#DejaVuSans-101"/>
     </g>
    </g>
   </g>
   <g id="line2d_15">
    <path clip-path="url(#pb42cec416d)" d="M 73.832727 59.252601 
L 74.918528 72.781621 
L 76.00433 94.643752 
L 77.090131 107.231993 
L 78.175932 107.690527 
L 79.261733 133.527201 
L 80.347534 147.389588 
L 81.433335 138.006427 
L 82.519137 140.981489 
L 83.604938 161.330451 
L 84.690739 156.569765 
L 85.77654 135.05306 
L 86.862341 139.628942 
L 87.948142 138.677301 
L 89.033943 133.689258 
L 90.119745 140.839903 
L 91.205546 137.943051 
L 92.291347 143.480907 
L 93.377148 155.639405 
L 94.462949 159.481301 
L 95.54875 171.190252 
L 96.634552 156.760151 
L 98.806154 180.53247 
L 99.891955 203.503526 
L 100.977756 205.724634 
L 102.063557 211.961355 
L 103.149358 212.230597 
L 104.23516 193.066362 
L 105.320961 247.92219 
L 106.406762 223.422319 
L 107.492563 250.695396 
L 108.578364 216.195514 
L 109.664165 215.557198 
L 110.749967 178.136652 
L 111.835768 181.318536 
L 112.921569 171.994424 
L 114.00737 219.611657 
L 115.093171 205.2636 
L 116.178972 217.998242 
L 117.264773 209.788197 
L 118.350575 200.172153 
L 119.436376 191.854985 
L 120.522177 209.610868 
L 121.607978 221.932432 
L 122.693779 201.100581 
L 123.77958 201.950862 
L 124.865382 195.038358 
L 125.951183 170.163819 
L 127.036984 205.121494 
L 128.122785 231.758062 
L 129.208586 215.170745 
L 130.294387 239.339285 
L 131.380189 225.408868 
L 132.46599 214.290208 
L 133.551791 231.804629 
L 134.637592 247.384508 
L 135.723393 230.842441 
L 136.809194 226.846155 
L 138.980797 271.526604 
L 140.066598 244.782731 
L 141.152399 223.270297 
L 142.2382 194.750376 
L 143.324001 181.828971 
L 144.409802 183.769679 
L 145.495604 197.549467 
L 146.581405 168.467124 
L 147.667206 221.014258 
L 148.753007 242.542442 
L 149.838808 221.818017 
L 150.924609 217.296306 
L 152.01041 231.588172 
L 153.096212 223.296413 
L 154.182013 223.392621 
L 155.267814 224.993279 
L 156.353615 201.200201 
L 157.439416 221.899745 
L 158.525217 221.442024 
L 159.611019 178.116566 
L 160.69682 182.553504 
L 161.782621 247.918776 
L 162.868422 241.432714 
L 163.954223 219.28978 
L 165.040024 201.442947 
L 166.125825 218.481886 
L 167.211627 221.573632 
L 168.297428 228.521591 
L 169.383229 197.062896 
L 170.46903 203.089657 
L 171.554831 240.306709 
L 172.640632 225.994576 
L 174.812235 200.659613 
L 175.898036 168.45225 
L 176.983837 196.994657 
L 178.069638 190.774583 
L 179.155439 180.136631 
L 180.24124 164.675679 
L 182.412843 150.663405 
L 183.498644 163.332304 
L 184.584445 170.503813 
L 185.670246 142.971444 
L 186.756047 147.851331 
L 187.841849 140.66452 
L 188.92765 142.175378 
L 190.013451 162.602919 
L 191.099252 151.660333 
L 192.185053 205.230133 
L 194.356656 156.0614 
L 195.442457 149.513222 
L 196.528258 154.952432 
L 197.614059 170.94464 
L 198.69986 170.024773 
L 199.785661 189.166505 
L 200.871462 149.541789 
L 201.957264 164.175023 
L 203.043065 172.445341 
L 204.128866 174.149381 
L 205.214667 181.575437 
L 206.300468 175.20158 
L 207.386269 190.629954 
L 208.472071 177.689407 
L 209.557872 215.075076 
L 210.643673 205.243578 
L 211.729474 223.218957 
L 212.815275 227.354464 
L 213.901076 197.627609 
L 214.986877 208.091705 
L 216.072679 206.548292 
L 217.15848 227.054471 
L 218.244281 219.033881 
L 220.415883 226.650732 
L 221.501684 210.580154 
L 222.587486 218.761292 
L 223.673287 211.824128 
L 224.759088 210.243505 
L 225.844889 165.947655 
L 226.93069 181.291912 
L 228.016491 186.058203 
L 229.102292 208.336662 
L 230.188094 197.286672 
L 231.273895 209.012196 
L 232.359696 225.480213 
L 233.445497 237.137509 
L 234.531298 227.413522 
L 235.617099 216.533568 
L 236.702901 222.613066 
L 237.788702 248.157768 
L 238.874503 216.369534 
L 239.960304 243.175517 
L 241.046105 206.088593 
L 242.131906 183.394047 
L 243.217708 202.738261 
L 244.303509 212.000771 
L 245.38931 216.727982 
L 248.646713 171.778595 
L 249.732514 178.201752 
L 250.818316 171.410231 
L 251.904117 195.493544 
L 252.989918 171.536644 
L 254.075719 152.446366 
L 255.16152 139.946994 
L 256.247321 160.999737 
L 257.333123 198.140731 
L 258.418924 168.700836 
L 259.504725 161.909318 
L 260.590526 186.806472 
L 261.676327 166.660925 
L 262.762128 182.215765 
L 263.847929 181.934394 
L 264.933731 158.517885 
L 266.019532 156.232219 
L 267.105333 162.254324 
L 268.191134 169.281426 
L 269.276935 152.952332 
L 270.362736 198.525061 
L 271.448538 157.398921 
L 272.534339 166.829864 
L 273.62014 138.927947 
L 274.705941 161.706993 
L 275.791742 170.703311 
L 276.877543 126.949736 
L 277.963344 151.092796 
L 280.134947 157.667224 
L 281.220748 166.442936 
L 282.306549 184.591327 
L 283.39235 190.258027 
L 284.478151 200.537839 
L 285.563953 197.223884 
L 286.649754 200.865446 
L 287.735555 212.103486 
L 288.821356 213.081483 
L 289.907157 225.03476 
L 290.992958 210.257676 
L 292.07876 206.285775 
L 293.164561 219.672859 
L 294.250362 217.177616 
L 295.336163 211.787131 
L 296.421964 184.334716 
L 297.507765 181.076204 
L 298.593566 193.650157 
L 299.679368 209.263287 
L 300.765169 176.332775 
L 301.85097 164.056613 
L 302.936771 164.753282 
L 304.022572 174.746097 
L 305.108373 172.140955 
L 306.194175 176.074595 
L 307.279976 176.757761 
L 308.365777 187.134235 
L 309.451578 184.501465 
L 310.537379 178.631306 
L 311.62318 213.055898 
L 312.708981 231.333097 
L 313.794783 225.287067 
L 314.880584 214.504538 
L 315.966385 208.566251 
L 317.052186 212.960104 
L 318.137987 220.601537 
L 319.223788 192.327189 
L 320.30959 216.495302 
L 321.395391 196.502939 
L 322.481192 202.26239 
L 323.566993 197.633099 
L 324.652794 203.333952 
L 325.738595 191.509313 
L 326.824396 209.420659 
L 327.910198 196.402733 
L 328.995999 171.351011 
L 330.0818 196.183968 
L 331.167601 186.705864 
L 332.253402 182.093691 
L 333.339203 194.466134 
L 334.425005 221.576343 
L 335.510806 226.603364 
L 336.596607 243.179108 
L 337.682408 210.882943 
L 338.768209 207.817096 
L 339.85401 173.89572 
L 340.939811 175.3538 
L 342.025613 188.845546 
L 343.111414 168.146959 
L 344.197215 163.262711 
L 345.283016 152.057255 
L 346.368817 165.403433 
L 347.454618 195.643099 
L 348.54042 216.279905 
L 349.626221 190.771795 
L 350.712022 184.898924 
L 351.797823 191.164584 
L 352.883624 192.456167 
L 353.969425 193.079866 
L 355.055227 182.54533 
L 356.141028 173.852479 
L 357.226829 177.132356 
L 358.31263 187.495943 
L 359.398431 189.49394 
L 360.484232 171.988036 
L 361.570033 166.211292 
L 362.655835 179.548138 
L 363.741636 179.200352 
L 365.913238 156.364373 
L 366.999039 144.708579 
L 368.08484 156.42043 
L 369.170642 139.300091 
L 370.256443 165.693792 
L 371.342244 205.685533 
L 372.428045 222.138597 
L 373.513846 218.93054 
L 374.599647 174.509189 
L 375.685448 226.062972 
L 376.77125 178.977323 
L 377.857051 172.853778 
L 378.942852 204.739557 
L 380.028653 187.623894 
L 381.114454 189.807324 
L 382.200255 180.92258 
L 383.286057 187.418848 
L 384.371858 191.158174 
L 385.457659 202.004348 
L 386.54346 184.640349 
L 387.629261 184.998589 
L 388.715062 187.076114 
L 389.800863 201.90063 
L 390.886665 234.786272 
L 391.972466 281.08705 
L 393.058267 276.564721 
L 394.144068 231.268031 
L 395.229869 236.195597 
L 396.31567 205.908587 
L 397.401472 196.334482 
L 398.487273 199.122277 
L 398.487273 199.122277 
" style="fill:none;stroke:#0000ff;stroke-linecap:square;stroke-width:1.5;"/>
   </g>
   <g id="patch_3">
    <path d="M 57.6 307.584 
L 57.6 41.472 
" style="fill:none;stroke:#000000;stroke-linecap:square;stroke-linejoin:miter;stroke-width:0.8;"/>
   </g>
   <g id="patch_4">
    <path d="M 414.72 307.584 
L 414.72 41.472 
" style="fill:none;stroke:#000000;stroke-linecap:square;stroke-linejoin:miter;stroke-width:0.8;"/>
   </g>
   <g id="patch_5">
    <path d="M 57.6 307.584 
L 414.72 307.584 
" style="fill:none;stroke:#000000;stroke-linecap:square;stroke-linejoin:miter;stroke-width:0.8;"/>
   </g>
   <g id="patch_6">
    <path d="M 57.6 41.472 
L 414.72 41.472 
" style="fill:none;stroke:#000000;stroke-linecap:square;stroke-linejoin:miter;stroke-width:0.8;"/>
   </g>
  </g>
  <g id="axes_2">
   <g id="PolyCollection_2">
    <path clip-path="url(#pb42cec416d)" d="M 73.832727 82.082862 
L 73.832727 268.52465 
L 74.918528 273.613335 
L 76.00433 278.294112 
L 77.090131 269.422373 
L 78.175932 276.272374 
L 79.261733 274.625176 
L 80.347534 273.396798 
L 81.433335 274.68134 
L 82.519137 279.132196 
L 83.604938 274.818526 
L 84.690739 269.451545 
L 85.77654 262.581338 
L 86.862341 263.609012 
L 87.948142 266.275856 
L 89.033943 270.044171 
L 90.119745 274.532664 
L 91.205546 274.862963 
L 92.291347 274.051237 
L 93.377148 275.852603 
L 94.462949 274.469181 
L 95.54875 279.203545 
L 96.634552 276.060485 
L 97.720353 276.575871 
L 98.806154 285.437941 
L 99.891955 286.737942 
L 100.977756 283.825315 
L 102.063557 284.735667 
L 103.149358 286.006772 
L 104.23516 285.346064 
L 105.320961 287.727732 
L 106.406762 285.650979 
L 107.492563 289.817441 
L 108.578364 286.629996 
L 109.664165 286.854197 
L 110.749967 282.522209 
L 111.835768 280.9563 
L 112.921569 278.324693 
L 114.00737 287.860999 
L 115.093171 286.266884 
L 116.178972 288.311596 
L 117.264773 286.961618 
L 118.350575 284.34476 
L 119.436376 283.760592 
L 120.522177 284.807729 
L 121.607978 285.947388 
L 122.693779 280.33453 
L 123.77958 281.839694 
L 124.865382 282.754983 
L 125.951183 272.54564 
L 127.036984 281.788802 
L 128.122785 285.709304 
L 129.208586 283.018283 
L 130.294387 287.350237 
L 131.380189 286.628298 
L 132.46599 285.735515 
L 133.551791 285.404619 
L 134.637592 289.824106 
L 135.723393 289.518144 
L 136.809194 285.997908 
L 137.894995 288.854096 
L 138.980797 290.864378 
L 140.066598 290.9458 
L 141.152399 286.791863 
L 142.2382 285.029662 
L 143.324001 283.589838 
L 144.409802 284.691335 
L 145.495604 281.875409 
L 146.581405 277.977725 
L 147.667206 282.214611 
L 148.753007 289.041097 
L 149.838808 287.420622 
L 150.924609 291.913195 
L 152.01041 288.696948 
L 153.096212 286.666265 
L 154.182013 289.804474 
L 155.267814 290.518502 
L 156.353615 289.072885 
L 157.439416 290.607336 
L 158.525217 290.86594 
L 159.611019 290.393934 
L 160.69682 289.600959 
L 161.782621 292.00676 
L 162.868422 291.687464 
L 163.954223 294.18059 
L 165.040024 292.288007 
L 166.125825 293.344591 
L 167.211627 291.700057 
L 168.297428 290.378376 
L 169.383229 287.349994 
L 170.46903 288.525781 
L 171.554831 290.41362 
L 172.640632 292.682922 
L 173.726434 290.808449 
L 174.812235 286.405488 
L 175.898036 278.766445 
L 176.983837 281.962486 
L 178.069638 283.417058 
L 179.155439 285.290177 
L 180.24124 276.047696 
L 181.327042 278.384961 
L 182.412843 279.526115 
L 183.498644 279.944975 
L 184.584445 283.890438 
L 185.670246 283.26329 
L 186.756047 272.855794 
L 187.841849 276.276767 
L 188.92765 273.137347 
L 190.013451 270.090897 
L 191.099252 266.651515 
L 192.185053 265.069922 
L 193.270854 273.988517 
L 194.356656 276.226902 
L 195.442457 281.879445 
L 196.528258 278.437294 
L 197.614059 284.263044 
L 198.69986 276.739613 
L 199.785661 275.156733 
L 200.871462 283.307177 
L 201.957264 272.366311 
L 203.043065 273.384803 
L 204.128866 263.61698 
L 205.214667 276.786663 
L 206.300468 275.114647 
L 207.386269 272.594231 
L 208.472071 278.254544 
L 209.557872 273.014999 
L 210.643673 272.999727 
L 211.729474 274.198763 
L 212.815275 273.530201 
L 213.901076 275.719481 
L 214.986877 274.285553 
L 216.072679 272.469927 
L 217.15848 274.917627 
L 218.244281 276.416025 
L 219.330082 277.835305 
L 220.415883 273.861315 
L 221.501684 275.977425 
L 222.587486 275.820504 
L 223.673287 278.456236 
L 224.759088 281.894062 
L 225.844889 277.584578 
L 226.93069 277.752711 
L 228.016491 279.115094 
L 229.102292 277.402714 
L 230.188094 271.041691 
L 231.273895 275.24701 
L 232.359696 277.538896 
L 233.445497 277.212616 
L 234.531298 276.745956 
L 235.617099 278.0941 
L 236.702901 280.341536 
L 237.788702 278.942976 
L 238.874503 276.422765 
L 239.960304 274.915704 
L 241.046105 279.8749 
L 242.131906 277.050526 
L 243.217708 276.280815 
L 244.303509 277.972879 
L 245.38931 276.295164 
L 246.475111 283.595084 
L 247.560912 282.132334 
L 248.646713 285.606728 
L 249.732514 285.126914 
L 250.818316 279.82408 
L 251.904117 278.305747 
L 252.989918 274.530881 
L 254.075719 276.788979 
L 255.16152 277.19663 
L 256.247321 275.940436 
L 257.333123 276.42589 
L 258.418924 270.900081 
L 259.504725 272.824673 
L 260.590526 272.992776 
L 261.676327 274.442438 
L 262.762128 264.260519 
L 263.847929 265.696231 
L 264.933731 270.774742 
L 266.019532 267.455439 
L 267.105333 268.599849 
L 268.191134 268.035652 
L 269.276935 265.804807 
L 270.362736 265.995373 
L 271.448538 256.138302 
L 272.534339 266.242941 
L 273.62014 272.486509 
L 274.705941 281.332588 
L 275.791742 279.804776 
L 276.877543 275.68157 
L 277.963344 270.936373 
L 279.049146 269.061771 
L 280.134947 268.8349 
L 281.220748 283.010404 
L 282.306549 282.219169 
L 283.39235 281.343345 
L 284.478151 286.185744 
L 285.563953 286.333968 
L 286.649754 286.619125 
L 287.735555 289.781148 
L 288.821356 292.209174 
L 289.907157 293.123148 
L 290.992958 288.750321 
L 292.07876 289.200905 
L 293.164561 291.041257 
L 294.250362 286.288171 
L 295.336163 290.923209 
L 296.421964 284.921393 
L 297.507765 285.373951 
L 298.593566 285.128387 
L 299.679368 288.84223 
L 300.765169 286.531237 
L 301.85097 285.053304 
L 302.936771 289.474276 
L 304.022572 287.028308 
L 305.108373 287.761748 
L 306.194175 287.329268 
L 307.279976 289.859958 
L 308.365777 290.960943 
L 309.451578 291.946236 
L 310.537379 292.181726 
L 311.62318 292.698161 
L 312.708981 293.004163 
L 313.794783 293.335776 
L 314.880584 292.401924 
L 315.966385 294.428158 
L 317.052186 295.488 
L 318.137987 291.314944 
L 319.223788 289.104046 
L 320.30959 290.183515 
L 321.395391 285.374655 
L 322.481192 288.592873 
L 323.566993 283.692225 
L 324.652794 284.015888 
L 325.738595 284.090739 
L 326.824396 280.963897 
L 327.910198 282.583385 
L 328.995999 280.263722 
L 330.0818 281.732925 
L 331.167601 281.600698 
L 332.253402 279.844691 
L 333.339203 288.43381 
L 334.425005 284.068237 
L 335.510806 290.765427 
L 336.596607 287.915986 
L 337.682408 287.191229 
L 338.768209 285.473712 
L 339.85401 284.245849 
L 340.939811 278.93422 
L 342.025613 281.62703 
L 343.111414 274.838803 
L 344.197215 278.61788 
L 345.283016 278.380766 
L 346.368817 280.520173 
L 347.454618 285.439168 
L 348.54042 285.948582 
L 349.626221 282.602968 
L 350.712022 280.745601 
L 351.797823 278.282971 
L 352.883624 285.375359 
L 353.969425 288.998228 
L 355.055227 283.510233 
L 356.141028 281.458924 
L 357.226829 282.882418 
L 358.31263 282.7668 
L 359.398431 282.918148 
L 360.484232 269.590165 
L 361.570033 274.61858 
L 362.655835 270.995705 
L 363.741636 275.932156 
L 364.827437 276.688995 
L 365.913238 274.696426 
L 366.999039 276.45146 
L 368.08484 276.393846 
L 369.170642 268.99905 
L 370.256443 275.805238 
L 371.342244 284.625482 
L 372.428045 287.486596 
L 373.513846 288.169183 
L 374.599647 285.166494 
L 375.685448 285.432477 
L 376.77125 288.313345 
L 377.857051 285.193079 
L 378.942852 286.868402 
L 380.028653 287.030232 
L 381.114454 287.309772 
L 382.200255 284.482534 
L 383.286057 287.001261 
L 384.371858 288.326017 
L 385.457659 288.800767 
L 386.54346 287.246439 
L 387.629261 284.960131 
L 388.715062 287.575308 
L 389.800863 288.669464 
L 390.886665 291.728926 
L 391.972466 290.681272 
L 393.058267 293.065505 
L 394.144068 293.172757 
L 395.229869 288.997303 
L 396.31567 287.689395 
L 397.401472 283.978929 
L 398.487273 285.876008 
L 398.487273 95.064778 
L 398.487273 95.064778 
L 397.401472 89.624855 
L 396.31567 96.125571 
L 395.229869 95.478257 
L 394.144068 106.055754 
L 393.058267 104.853562 
L 391.972466 98.977432 
L 390.886665 102.54391 
L 389.800863 98.409818 
L 388.715062 93.996292 
L 387.629261 89.962921 
L 386.54346 94.78171 
L 385.457659 96.781959 
L 384.371858 96.358495 
L 383.286057 93.190303 
L 382.200255 88.845358 
L 381.114454 93.14056 
L 380.028653 92.314149 
L 378.942852 92.483065 
L 377.857051 89.604888 
L 376.77125 94.683896 
L 375.685448 90.758282 
L 374.599647 89.581945 
L 373.513846 95.869586 
L 372.428045 93.405229 
L 371.342244 87.395502 
L 370.256443 77.728658 
L 369.170642 66.800799 
L 368.08484 75.112154 
L 366.999039 75.915383 
L 365.913238 72.575642 
L 364.827437 75.459519 
L 363.741636 75.143926 
L 362.655835 66.940241 
L 361.570033 74.435058 
L 360.484232 66.585831 
L 359.398431 83.322014 
L 358.31263 83.896805 
L 357.226829 85.824028 
L 356.141028 80.937747 
L 355.055227 85.968268 
L 353.969425 95.960508 
L 352.883624 90.228427 
L 351.797823 79.841492 
L 350.712022 83.745973 
L 349.626221 86.329714 
L 348.54042 91.881444 
L 347.454618 92.098744 
L 346.368817 86.628629 
L 345.283016 82.549325 
L 344.197215 82.659321 
L 343.111414 75.512506 
L 342.025613 83.558616 
L 340.939811 79.388485 
L 339.85401 86.866137 
L 338.768209 88.533323 
L 337.682408 92.565505 
L 336.596607 93.683547 
L 335.510806 101.201767 
L 334.425005 89.233873 
L 333.339203 98.346895 
L 332.253402 81.861944 
L 331.167601 83.391437 
L 330.0818 84.246165 
L 328.995999 81.987242 
L 327.910198 86.402461 
L 326.824396 84.311323 
L 325.738595 90.147848 
L 324.652794 89.071244 
L 323.566993 89.203484 
L 322.481192 100.586794 
L 321.395391 92.24501 
L 320.30959 102.08724 
L 319.223788 98.805337 
L 318.137987 100.460962 
L 317.052186 111.173625 
L 315.966385 109.290605 
L 314.880584 103.858283 
L 313.794783 107.999101 
L 312.708981 105.41501 
L 311.62318 105.497816 
L 310.537379 104.146333 
L 309.451578 103.577573 
L 308.365777 100.263123 
L 307.279976 99.575509 
L 306.194175 94.726678 
L 305.108373 96.196865 
L 304.022572 92.801476 
L 302.936771 98.258283 
L 301.85097 89.014825 
L 300.765169 91.352307 
L 299.679368 98.868193 
L 298.593566 90.506807 
L 297.507765 91.412846 
L 296.421964 90.016558 
L 295.336163 101.815757 
L 294.250362 93.244005 
L 293.164561 101.523563 
L 292.07876 97.100419 
L 290.992958 93.974741 
L 289.907157 104.167873 
L 288.821356 102.688643 
L 287.735555 96.44812 
L 286.649754 91.453012 
L 285.563953 91.923859 
L 284.478151 90.660502 
L 283.39235 84.653404 
L 282.306549 86.537114 
L 281.220748 88.458108 
L 280.134947 67.429343 
L 279.049146 68.217339 
L 277.963344 71.749015 
L 276.877543 78.044582 
L 275.791742 84.716584 
L 274.705941 88.427567 
L 273.62014 73.974642 
L 272.534339 64.346272 
L 271.448538 53.568 
L 270.362736 63.732905 
L 269.276935 63.627429 
L 268.191134 65.401678 
L 267.105333 64.865997 
L 266.019532 64.597627 
L 264.933731 68.051401 
L 263.847929 62.274652 
L 262.762128 59.945562 
L 261.676327 72.356767 
L 260.590526 68.888775 
L 259.504725 68.94584 
L 258.418924 66.996122 
L 257.333123 75.258341 
L 256.247321 77.24854 
L 255.16152 80.487526 
L 254.075719 75.950609 
L 252.989918 69.508843 
L 251.904117 75.944284 
L 250.818316 78.991422 
L 249.732514 86.021904 
L 248.646713 88.580332 
L 247.560912 81.421019 
L 246.475111 84.63472 
L 245.38931 71.189931 
L 244.303509 76.348992 
L 243.217708 74.527521 
L 242.131906 74.880759 
L 241.046105 79.157345 
L 239.960304 71.607926 
L 238.874503 73.903608 
L 237.788702 79.888488 
L 236.702901 80.14696 
L 235.617099 75.710847 
L 234.531298 73.360786 
L 233.445497 73.853647 
L 232.359696 74.797569 
L 231.273895 72.930181 
L 230.188094 67.32482 
L 229.102292 75.570897 
L 228.016491 79.79471 
L 226.93069 79.008689 
L 225.844889 78.101702 
L 224.759088 85.365863 
L 223.673287 79.113079 
L 222.587486 73.591097 
L 221.501684 74.00665 
L 220.415883 71.357129 
L 219.330082 75.769505 
L 218.244281 73.791406 
L 217.15848 72.176761 
L 216.072679 68.427243 
L 214.986877 69.261401 
L 213.901076 73.315711 
L 212.815275 69.70042 
L 211.729474 72.897787 
L 210.643673 70.628201 
L 209.557872 70.773119 
L 208.472071 79.601734 
L 207.386269 69.118538 
L 206.300468 74.151781 
L 205.214667 77.920337 
L 204.128866 59.592255 
L 203.043065 73.655464 
L 201.957264 69.999742 
L 200.871462 86.231299 
L 199.785661 73.85868 
L 198.69986 79.863015 
L 197.614059 91.161829 
L 196.528258 82.683755 
L 195.442457 89.064905 
L 194.356656 79.484527 
L 193.270854 77.004872 
L 192.185053 65.491521 
L 191.099252 66.162995 
L 190.013451 70.002986 
L 188.92765 73.498844 
L 187.841849 76.190459 
L 186.756047 75.826503 
L 185.670246 88.149062 
L 184.584445 87.205705 
L 183.498644 85.636644 
L 182.412843 82.959934 
L 181.327042 80.09638 
L 180.24124 75.764457 
L 179.155439 92.079516 
L 178.069638 85.136449 
L 176.983837 83.057568 
L 175.898036 79.612798 
L 174.812235 91.864741 
L 173.726434 100.006954 
L 172.640632 102.587903 
L 171.554831 97.40789 
L 170.46903 95.613563 
L 169.383229 92.20998 
L 168.297428 97.907015 
L 167.211627 102.519412 
L 166.125825 106.739337 
L 165.040024 102.581465 
L 163.954223 107.99733 
L 162.868422 99.318091 
L 161.782621 99.464813 
L 160.69682 97.642706 
L 159.611019 99.410085 
L 158.525217 100.251292 
L 157.439416 99.528991 
L 156.353615 96.69484 
L 155.267814 99.521614 
L 154.182013 99.144085 
L 153.096212 92.978079 
L 152.01041 97.400353 
L 150.924609 103.424066 
L 149.838808 93.878735 
L 148.753007 98.91723 
L 147.667206 84.675828 
L 146.581405 78.243178 
L 145.495604 85.337239 
L 144.409802 88.747714 
L 143.324001 85.732824 
L 142.2382 87.441769 
L 141.152399 90.740205 
L 140.066598 98.108635 
L 138.980797 97.689474 
L 137.894995 97.399324 
L 136.809194 91.436789 
L 135.723393 99.486826 
L 134.637592 98.99092 
L 133.551791 92.855111 
L 132.46599 93.171675 
L 131.380189 93.437438 
L 130.294387 94.092686 
L 129.208586 88.927422 
L 128.122785 93.231233 
L 127.036984 86.396595 
L 125.951183 71.160195 
L 124.865382 84.375321 
L 123.77958 82.705919 
L 122.693779 83.031043 
L 121.607978 89.538415 
L 120.522177 87.364139 
L 119.436376 88.782717 
L 118.350575 89.823505 
L 117.264773 94.311913 
L 116.178972 96.507378 
L 115.093171 94.032689 
L 114.00737 97.314923 
L 112.921569 80.901702 
L 111.835768 83.8631 
L 110.749967 86.832348 
L 109.664165 94.363757 
L 108.578364 94.818651 
L 107.492563 99.174215 
L 106.406762 93.087713 
L 105.320961 94.536111 
L 104.23516 90.795136 
L 103.149358 90.523716 
L 102.063557 88.26898 
L 100.977756 88.355727 
L 99.891955 94.282947 
L 98.806154 94.460719 
L 97.720353 78.971278 
L 96.634552 80.39352 
L 95.54875 86.140145 
L 94.462949 79.526702 
L 93.377148 82.962779 
L 92.291347 77.658857 
L 91.205546 80.784627 
L 90.119745 80.691 
L 89.033943 74.414655 
L 87.948142 70.157374 
L 86.862341 66.233269 
L 85.77654 65.69652 
L 84.690739 73.658892 
L 83.604938 80.872786 
L 82.519137 90.301641 
L 81.433335 85.799897 
L 80.347534 82.614139 
L 79.261733 83.922436 
L 78.175932 85.051386 
L 77.090131 77.92632 
L 76.00433 96.634625 
L 74.918528 87.644644 
L 73.832727 82.082862 
z
" style="fill:#008000;fill-opacity:0.25;"/>
   </g>
   <g id="matplotlib.axis_3">
    <g id="ytick_8">
     <g id="line2d_16">
      <path clip-path="url(#pb42cec416d)" d="M 57.6 302.794702 
L 414.72 302.794702 
" style="fill:none;stroke:#b0b0b0;stroke-linecap:square;stroke-width:0.8;"/>
     </g>
     <g id="line2d_17">
      <defs>
       <path d="M 0 0 
L 3.5 0 
" id="m233cd80398" style="stroke:#000000;stroke-width:0.8;"/>
      </defs>
      <g>
       <use style="stroke:#000000;stroke-width:0.8;" x="414.72" xlink:href="#m233cd80398" y="302.794702"/>
      </g>
     </g>
     <g id="text_16">
      <!-- 0.2 -->
      <defs>
       <path d="M 10.59375 35.5 
L 73.1875 35.5 
L 73.1875 27.203125 
L 10.59375 27.203125 
z
" id="DejaVuSans-8722"/>
      </defs>
      <g transform="translate(421.72 306.593921)scale(0.1 -0.1)">
       <use xlink:href="#DejaVuSans-8722"/>
       <use x="83.789062" xlink:href="#DejaVuSans-48"/>
       <use x="147.412109" xlink:href="#DejaVuSans-46"/>
       <use x="179.199219" xlink:href="#DejaVuSans-50"/>
      </g>
     </g>
    </g>
    <g id="ytick_9">
     <g id="line2d_18">
      <path clip-path="url(#pb42cec416d)" d="M 57.6 260.660534 
L 414.72 260.660534 
" style="fill:none;stroke:#b0b0b0;stroke-linecap:square;stroke-width:0.8;"/>
     </g>
     <g id="line2d_19">
      <g>
       <use style="stroke:#000000;stroke-width:0.8;" x="414.72" xlink:href="#m233cd80398" y="260.660534"/>
      </g>
     </g>
     <g id="text_17">
      <!-- 0.0 -->
      <g transform="translate(421.72 264.459753)scale(0.1 -0.1)">
       <use xlink:href="#DejaVuSans-48"/>
       <use x="63.623047" xlink:href="#DejaVuSans-46"/>
       <use x="95.410156" xlink:href="#DejaVuSans-48"/>
      </g>
     </g>
    </g>
    <g id="ytick_10">
     <g id="line2d_20">
      <path clip-path="url(#pb42cec416d)" d="M 57.6 218.526366 
L 414.72 218.526366 
" style="fill:none;stroke:#b0b0b0;stroke-linecap:square;stroke-width:0.8;"/>
     </g>
     <g id="line2d_21">
      <g>
       <use style="stroke:#000000;stroke-width:0.8;" x="414.72" xlink:href="#m233cd80398" y="218.526366"/>
      </g>
     </g>
     <g id="text_18">
      <!-- 0.2 -->
      <g transform="translate(421.72 222.325585)scale(0.1 -0.1)">
       <use xlink:href="#DejaVuSans-48"/>
       <use x="63.623047" xlink:href="#DejaVuSans-46"/>
       <use x="95.410156" xlink:href="#DejaVuSans-50"/>
      </g>
     </g>
    </g>
    <g id="ytick_11">
     <g id="line2d_22">
      <path clip-path="url(#pb42cec416d)" d="M 57.6 176.392197 
L 414.72 176.392197 
" style="fill:none;stroke:#b0b0b0;stroke-linecap:square;stroke-width:0.8;"/>
     </g>
     <g id="line2d_23">
      <g>
       <use style="stroke:#000000;stroke-width:0.8;" x="414.72" xlink:href="#m233cd80398" y="176.392197"/>
      </g>
     </g>
     <g id="text_19">
      <!-- 0.4 -->
      <g transform="translate(421.72 180.191416)scale(0.1 -0.1)">
       <use xlink:href="#DejaVuSans-48"/>
       <use x="63.623047" xlink:href="#DejaVuSans-46"/>
       <use x="95.410156" xlink:href="#DejaVuSans-52"/>
      </g>
     </g>
    </g>
    <g id="ytick_12">
     <g id="line2d_24">
      <path clip-path="url(#pb42cec416d)" d="M 57.6 134.258029 
L 414.72 134.258029 
" style="fill:none;stroke:#b0b0b0;stroke-linecap:square;stroke-width:0.8;"/>
     </g>
     <g id="line2d_25">
      <g>
       <use style="stroke:#000000;stroke-width:0.8;" x="414.72" xlink:href="#m233cd80398" y="134.258029"/>
      </g>
     </g>
     <g id="text_20">
      <!-- 0.6 -->
      <g transform="translate(421.72 138.057248)scale(0.1 -0.1)">
       <use xlink:href="#DejaVuSans-48"/>
       <use x="63.623047" xlink:href="#DejaVuSans-46"/>
       <use x="95.410156" xlink:href="#DejaVuSans-54"/>
      </g>
     </g>
    </g>
    <g id="ytick_13">
     <g id="line2d_26">
      <path clip-path="url(#pb42cec416d)" d="M 57.6 92.123861 
L 414.72 92.123861 
" style="fill:none;stroke:#b0b0b0;stroke-linecap:square;stroke-width:0.8;"/>
     </g>
     <g id="line2d_27">
      <g>
       <use style="stroke:#000000;stroke-width:0.8;" x="414.72" xlink:href="#m233cd80398" y="92.123861"/>
      </g>
     </g>
     <g id="text_21">
      <!-- 0.8 -->
      <g transform="translate(421.72 95.92308)scale(0.1 -0.1)">
       <use xlink:href="#DejaVuSans-48"/>
       <use x="63.623047" xlink:href="#DejaVuSans-46"/>
       <use x="95.410156" xlink:href="#DejaVuSans-56"/>
      </g>
     </g>
    </g>
    <g id="ytick_14">
     <g id="line2d_28">
      <path clip-path="url(#pb42cec416d)" d="M 57.6 49.989693 
L 414.72 49.989693 
" style="fill:none;stroke:#b0b0b0;stroke-linecap:square;stroke-width:0.8;"/>
     </g>
     <g id="line2d_29">
      <g>
       <use style="stroke:#000000;stroke-width:0.8;" x="414.72" xlink:href="#m233cd80398" y="49.989693"/>
      </g>
     </g>
     <g id="text_22">
      <!-- 1.0 -->
      <g transform="translate(421.72 53.788911)scale(0.1 -0.1)">
       <use xlink:href="#DejaVuSans-49"/>
       <use x="63.623047" xlink:href="#DejaVuSans-46"/>
       <use x="95.410156" xlink:href="#DejaVuSans-48"/>
      </g>
     </g>
    </g>
    <g id="text_23">
     <!-- Loudness -->
     <defs>
      <path d="M 9.8125 72.90625 
L 19.671875 72.90625 
L 19.671875 8.296875 
L 55.171875 8.296875 
L 55.171875 0 
L 9.8125 0 
z
" id="DejaVuSans-76"/>
      <path d="M 30.609375 48.390625 
Q 23.390625 48.390625 19.1875 42.75 
Q 14.984375 37.109375 14.984375 27.296875 
Q 14.984375 17.484375 19.15625 11.84375 
Q 23.34375 6.203125 30.609375 6.203125 
Q 37.796875 6.203125 41.984375 11.859375 
Q 46.1875 17.53125 46.1875 27.296875 
Q 46.1875 37.015625 41.984375 42.703125 
Q 37.796875 48.390625 30.609375 48.390625 
z
M 30.609375 56 
Q 42.328125 56 49.015625 48.375 
Q 55.71875 40.765625 55.71875 27.296875 
Q 55.71875 13.875 49.015625 6.21875 
Q 42.328125 -1.421875 30.609375 -1.421875 
Q 18.84375 -1.421875 12.171875 6.21875 
Q 5.515625 13.875 5.515625 27.296875 
Q 5.515625 40.765625 12.171875 48.375 
Q 18.84375 56 30.609375 56 
z
" id="DejaVuSans-111"/>
      <path d="M 8.5 21.578125 
L 8.5 54.6875 
L 17.484375 54.6875 
L 17.484375 21.921875 
Q 17.484375 14.15625 20.5 10.265625 
Q 23.53125 6.390625 29.59375 6.390625 
Q 36.859375 6.390625 41.078125 11.03125 
Q 45.3125 15.671875 45.3125 23.6875 
L 45.3125 54.6875 
L 54.296875 54.6875 
L 54.296875 0 
L 45.3125 0 
L 45.3125 8.40625 
Q 42.046875 3.421875 37.71875 1 
Q 33.40625 -1.421875 27.6875 -1.421875 
Q 18.265625 -1.421875 13.375 4.4375 
Q 8.5 10.296875 8.5 21.578125 
z
M 31.109375 56 
z
" id="DejaVuSans-117"/>
      <path d="M 45.40625 46.390625 
L 45.40625 75.984375 
L 54.390625 75.984375 
L 54.390625 0 
L 45.40625 0 
L 45.40625 8.203125 
Q 42.578125 3.328125 38.25 0.953125 
Q 33.9375 -1.421875 27.875 -1.421875 
Q 17.96875 -1.421875 11.734375 6.484375 
Q 5.515625 14.40625 5.515625 27.296875 
Q 5.515625 40.1875 11.734375 48.09375 
Q 17.96875 56 27.875 56 
Q 33.9375 56 38.25 53.625 
Q 42.578125 51.265625 45.40625 46.390625 
z
M 14.796875 27.296875 
Q 14.796875 17.390625 18.875 11.75 
Q 22.953125 6.109375 30.078125 6.109375 
Q 37.203125 6.109375 41.296875 11.75 
Q 45.40625 17.390625 45.40625 27.296875 
Q 45.40625 37.203125 41.296875 42.84375 
Q 37.203125 48.484375 30.078125 48.484375 
Q 22.953125 48.484375 18.875 42.84375 
Q 14.796875 37.203125 14.796875 27.296875 
z
" id="DejaVuSans-100"/>
     </defs>
     <g transform="translate(457.60125 198.170187)rotate(-90)scale(0.1 -0.1)">
      <use xlink:href="#DejaVuSans-76"/>
      <use x="55.697266" xlink:href="#DejaVuSans-111"/>
      <use x="116.878906" xlink:href="#DejaVuSans-117"/>
      <use x="180.257812" xlink:href="#DejaVuSans-100"/>
      <use x="243.734375" xlink:href="#DejaVuSans-110"/>
      <use x="307.113281" xlink:href="#DejaVuSans-101"/>
      <use x="368.636719" xlink:href="#DejaVuSans-115"/>
      <use x="420.736328" xlink:href="#DejaVuSans-115"/>
     </g>
    </g>
   </g>
   <g id="line2d_30">
    <path clip-path="url(#pb42cec416d)" d="M 73.832727 175.303756 
L 74.918528 180.628989 
L 76.00433 187.464369 
L 77.090131 173.674346 
L 78.175932 180.66188 
L 80.347534 178.005468 
L 81.433335 180.240619 
L 82.519137 184.716919 
L 85.77654 164.138929 
L 86.862341 164.92114 
L 87.948142 168.216615 
L 89.033943 172.229413 
L 90.119745 177.611832 
L 91.205546 177.823795 
L 92.291347 175.855047 
L 93.377148 179.407691 
L 94.462949 176.997941 
L 95.54875 182.671845 
L 96.634552 178.227003 
L 97.720353 177.773574 
L 98.806154 189.94933 
L 99.891955 190.510445 
L 100.977756 186.090521 
L 102.063557 186.502323 
L 103.149358 188.265244 
L 104.23516 188.0706 
L 105.320961 191.131922 
L 106.406762 189.369346 
L 107.492563 194.495828 
L 108.578364 190.724323 
L 109.664165 190.608977 
L 110.749967 184.677279 
L 111.835768 182.4097 
L 112.921569 179.613197 
L 114.00737 192.587961 
L 115.093171 190.149787 
L 116.178972 192.409487 
L 117.264773 190.636765 
L 118.350575 187.084132 
L 119.436376 186.271655 
L 120.522177 186.085934 
L 121.607978 187.742901 
L 122.693779 181.682786 
L 123.77958 182.272807 
L 124.865382 183.565152 
L 125.951183 171.852918 
L 127.036984 184.092698 
L 128.122785 189.470269 
L 129.208586 185.972852 
L 130.294387 190.721462 
L 132.46599 189.453595 
L 133.551791 189.129865 
L 134.637592 194.407513 
L 135.723393 194.502485 
L 136.809194 188.717349 
L 137.894995 193.12671 
L 138.980797 194.276926 
L 140.066598 194.527217 
L 141.152399 188.766034 
L 142.2382 186.235716 
L 143.324001 184.661331 
L 144.409802 186.719524 
L 145.495604 183.606324 
L 146.581405 178.110451 
L 147.667206 183.445219 
L 148.753007 193.979163 
L 149.838808 190.649678 
L 150.924609 197.668631 
L 152.01041 193.04865 
L 153.096212 189.822172 
L 154.182013 194.47428 
L 155.267814 195.020058 
L 156.353615 192.883863 
L 157.439416 195.068164 
L 158.525217 195.558616 
L 159.611019 194.90201 
L 160.69682 193.621833 
L 161.782621 195.735786 
L 162.868422 195.502777 
L 163.954223 201.08896 
L 165.040024 197.434736 
L 166.125825 200.041964 
L 168.297428 194.142695 
L 169.383229 189.779987 
L 170.46903 192.069672 
L 171.554831 193.910755 
L 172.640632 197.635413 
L 173.726434 195.407702 
L 174.812235 189.135114 
L 175.898036 179.189622 
L 176.983837 182.510027 
L 178.069638 184.276754 
L 179.155439 188.684846 
L 180.24124 175.906076 
L 181.327042 179.24067 
L 182.412843 181.243025 
L 183.498644 182.790809 
L 184.584445 185.548072 
L 185.670246 185.706176 
L 186.756047 174.341149 
L 187.841849 176.233613 
L 188.92765 173.318095 
L 190.013451 170.046942 
L 191.099252 166.407255 
L 192.185053 165.280722 
L 193.270854 175.496694 
L 194.356656 177.855715 
L 195.442457 185.472175 
L 196.528258 180.560524 
L 197.614059 187.712436 
L 198.69986 178.301314 
L 199.785661 174.507706 
L 200.871462 184.769238 
L 201.957264 171.183026 
L 203.043065 173.520134 
L 204.128866 161.604618 
L 205.214667 177.3535 
L 206.300468 174.633214 
L 207.386269 170.856384 
L 208.472071 178.928139 
L 209.557872 171.894059 
L 210.643673 171.813964 
L 211.729474 173.548275 
L 212.815275 171.615311 
L 213.901076 174.517596 
L 214.986877 171.773477 
L 216.072679 170.448585 
L 217.15848 173.547194 
L 219.330082 176.802405 
L 220.415883 172.609222 
L 221.501684 174.992037 
L 222.587486 174.7058 
L 223.673287 178.784657 
L 224.759088 183.629963 
L 225.844889 177.84314 
L 226.93069 178.3807 
L 228.016491 179.454902 
L 229.102292 176.486806 
L 230.188094 169.183255 
L 231.273895 174.088595 
L 232.359696 176.168233 
L 233.445497 175.533132 
L 234.531298 175.053371 
L 235.617099 176.902474 
L 236.702901 180.244248 
L 237.788702 179.415732 
L 238.874503 175.163186 
L 239.960304 173.261815 
L 241.046105 179.516122 
L 242.131906 175.965642 
L 243.217708 175.404168 
L 244.303509 177.160935 
L 245.38931 173.742548 
L 246.475111 184.114902 
L 247.560912 181.776676 
L 248.646713 187.09353 
L 249.732514 185.574409 
L 250.818316 179.407751 
L 251.904117 177.125015 
L 252.989918 172.019862 
L 254.075719 176.369794 
L 255.16152 178.842078 
L 256.247321 176.594488 
L 257.333123 175.842116 
L 258.418924 168.948101 
L 259.504725 170.885257 
L 260.590526 170.940775 
L 261.676327 173.399602 
L 262.762128 162.10304 
L 263.847929 163.985441 
L 264.933731 169.413071 
L 266.019532 166.026533 
L 267.105333 166.732923 
L 268.191134 166.718665 
L 269.276935 164.716118 
L 270.362736 164.864139 
L 271.448538 154.853151 
L 272.534339 165.294607 
L 273.62014 173.230576 
L 274.705941 184.880078 
L 275.791742 182.26068 
L 277.963344 171.342694 
L 279.049146 168.639555 
L 280.134947 168.132121 
L 281.220748 185.734256 
L 283.39235 182.998374 
L 284.478151 188.423123 
L 285.563953 189.128913 
L 286.649754 189.036068 
L 288.821356 197.448909 
L 289.907157 198.64551 
L 290.992958 191.362531 
L 292.07876 193.150662 
L 293.164561 196.28241 
L 294.250362 189.766088 
L 295.336163 196.369483 
L 296.421964 187.468975 
L 297.507765 188.393398 
L 298.593566 187.817597 
L 299.679368 193.855211 
L 300.765169 188.941772 
L 301.85097 187.034065 
L 302.936771 193.86628 
L 304.022572 189.914892 
L 305.108373 191.979306 
L 306.194175 191.027973 
L 307.279976 194.717733 
L 308.365777 195.612033 
L 309.451578 197.761904 
L 310.537379 198.164029 
L 311.62318 199.097988 
L 312.708981 199.209586 
L 313.794783 200.667439 
L 314.880584 198.130104 
L 315.966385 201.859382 
L 317.052186 203.330812 
L 318.137987 195.887953 
L 319.223788 193.954691 
L 320.30959 196.135378 
L 321.395391 188.809832 
L 322.481192 194.589833 
L 323.566993 186.447854 
L 324.652794 186.543566 
L 325.738595 187.119293 
L 326.824396 182.63761 
L 327.910198 184.492923 
L 328.995999 181.125482 
L 330.0818 182.989545 
L 331.167601 182.496067 
L 332.253402 180.853317 
L 333.339203 193.390353 
L 334.425005 186.651055 
L 335.510806 195.983597 
L 336.596607 190.799767 
L 337.682408 189.878367 
L 338.768209 187.003517 
L 339.85401 185.555993 
L 340.939811 179.161352 
L 342.025613 182.592823 
L 343.111414 175.175654 
L 344.197215 180.6386 
L 345.283016 180.465045 
L 346.368817 183.574401 
L 347.454618 188.768956 
L 348.54042 188.915013 
L 349.626221 184.466341 
L 350.712022 182.245787 
L 351.797823 179.062231 
L 352.883624 187.801893 
L 353.969425 192.479368 
L 355.055227 184.73925 
L 356.141028 181.198336 
L 357.226829 184.353223 
L 358.31263 183.331803 
L 359.398431 183.120081 
L 360.484232 168.087998 
L 361.570033 174.526819 
L 362.655835 168.967973 
L 363.741636 175.538041 
L 364.827437 176.074257 
L 365.913238 173.636034 
L 366.999039 176.183422 
L 368.08484 175.753 
L 369.170642 167.899924 
L 371.342244 186.010492 
L 372.428045 190.445913 
L 373.513846 192.019385 
L 374.599647 187.37422 
L 375.685448 188.09538 
L 376.77125 191.498621 
L 377.857051 187.398984 
L 378.942852 189.675734 
L 380.028653 189.672191 
L 381.114454 190.225166 
L 382.200255 186.663946 
L 383.286057 190.095782 
L 384.371858 192.342256 
L 385.457659 192.791363 
L 386.54346 191.014074 
L 387.629261 187.461526 
L 388.715062 190.7858 
L 389.800863 193.539641 
L 390.886665 197.136418 
L 391.972466 194.829352 
L 393.058267 198.959534 
L 394.144068 199.614255 
L 395.229869 192.23778 
L 396.31567 191.907483 
L 397.401472 186.801892 
L 398.487273 190.470393 
L 398.487273 190.470393 
" style="fill:none;stroke:#008000;stroke-linecap:square;stroke-width:1.5;"/>
   </g>
   <g id="patch_7">
    <path d="M 57.6 307.584 
L 57.6 41.472 
" style="fill:none;stroke:#000000;stroke-linecap:square;stroke-linejoin:miter;stroke-width:0.8;"/>
   </g>
   <g id="patch_8">
    <path d="M 414.72 307.584 
L 414.72 41.472 
" style="fill:none;stroke:#000000;stroke-linecap:square;stroke-linejoin:miter;stroke-width:0.8;"/>
   </g>
   <g id="patch_9">
    <path d="M 57.6 307.584 
L 414.72 307.584 
" style="fill:none;stroke:#000000;stroke-linecap:square;stroke-linejoin:miter;stroke-width:0.8;"/>
   </g>
   <g id="patch_10">
    <path d="M 57.6 41.472 
L 414.72 41.472 
" style="fill:none;stroke:#000000;stroke-linecap:square;stroke-linejoin:miter;stroke-width:0.8;"/>
   </g>
   <g id="text_24">
    <!-- Message Difference and Loudness -->
    <defs>
     <path d="M 9.8125 72.90625 
L 24.515625 72.90625 
L 43.109375 23.296875 
L 61.8125 72.90625 
L 76.515625 72.90625 
L 76.515625 0 
L 66.890625 0 
L 66.890625 64.015625 
L 48.09375 14.015625 
L 38.1875 14.015625 
L 19.390625 64.015625 
L 19.390625 0 
L 9.8125 0 
z
" id="DejaVuSans-77"/>
     <path d="M 45.40625 27.984375 
Q 45.40625 37.75 41.375 43.109375 
Q 37.359375 48.484375 30.078125 48.484375 
Q 22.859375 48.484375 18.828125 43.109375 
Q 14.796875 37.75 14.796875 27.984375 
Q 14.796875 18.265625 18.828125 12.890625 
Q 22.859375 7.515625 30.078125 7.515625 
Q 37.359375 7.515625 41.375 12.890625 
Q 45.40625 18.265625 45.40625 27.984375 
z
M 54.390625 6.78125 
Q 54.390625 -7.171875 48.1875 -13.984375 
Q 42 -20.796875 29.203125 -20.796875 
Q 24.46875 -20.796875 20.265625 -20.09375 
Q 16.0625 -19.390625 12.109375 -17.921875 
L 12.109375 -9.1875 
Q 16.0625 -11.328125 19.921875 -12.34375 
Q 23.78125 -13.375 27.78125 -13.375 
Q 36.625 -13.375 41.015625 -8.765625 
Q 45.40625 -4.15625 45.40625 5.171875 
L 45.40625 9.625 
Q 42.625 4.78125 38.28125 2.390625 
Q 33.9375 0 27.875 0 
Q 17.828125 0 11.671875 7.65625 
Q 5.515625 15.328125 5.515625 27.984375 
Q 5.515625 40.671875 11.671875 48.328125 
Q 17.828125 56 27.875 56 
Q 33.9375 56 38.28125 53.609375 
Q 42.625 51.21875 45.40625 46.390625 
L 45.40625 54.6875 
L 54.390625 54.6875 
z
" id="DejaVuSans-103"/>
     <path id="DejaVuSans-32"/>
     <path d="M 37.109375 75.984375 
L 37.109375 68.5 
L 28.515625 68.5 
Q 23.6875 68.5 21.796875 66.546875 
Q 19.921875 64.59375 19.921875 59.515625 
L 19.921875 54.6875 
L 34.71875 54.6875 
L 34.71875 47.703125 
L 19.921875 47.703125 
L 19.921875 0 
L 10.890625 0 
L 10.890625 47.703125 
L 2.296875 47.703125 
L 2.296875 54.6875 
L 10.890625 54.6875 
L 10.890625 58.5 
Q 10.890625 67.625 15.140625 71.796875 
Q 19.390625 75.984375 28.609375 75.984375 
z
" id="DejaVuSans-102"/>
     <path d="M 41.109375 46.296875 
Q 39.59375 47.171875 37.8125 47.578125 
Q 36.03125 48 33.890625 48 
Q 26.265625 48 22.1875 43.046875 
Q 18.109375 38.09375 18.109375 28.8125 
L 18.109375 0 
L 9.078125 0 
L 9.078125 54.6875 
L 18.109375 54.6875 
L 18.109375 46.1875 
Q 20.953125 51.171875 25.484375 53.578125 
Q 30.03125 56 36.53125 56 
Q 37.453125 56 38.578125 55.875 
Q 39.703125 55.765625 41.0625 55.515625 
z
" id="DejaVuSans-114"/>
    </defs>
    <g transform="translate(133.329375 35.472)scale(0.12 -0.12)">
     <use xlink:href="#DejaVuSans-77"/>
     <use x="86.279297" xlink:href="#DejaVuSans-101"/>
     <use x="147.802734" xlink:href="#DejaVuSans-115"/>
     <use x="199.902344" xlink:href="#DejaVuSans-115"/>
     <use x="252.001953" xlink:href="#DejaVuSans-97"/>
     <use x="313.28125" xlink:href="#DejaVuSans-103"/>
     <use x="376.757812" xlink:href="#DejaVuSans-101"/>
     <use x="438.28125" xlink:href="#DejaVuSans-32"/>
     <use x="470.068359" xlink:href="#DejaVuSans-68"/>
     <use x="547.070312" xlink:href="#DejaVuSans-105"/>
     <use x="574.853516" xlink:href="#DejaVuSans-102"/>
     <use x="610.058594" xlink:href="#DejaVuSans-102"/>
     <use x="645.263672" xlink:href="#DejaVuSans-101"/>
     <use x="706.787109" xlink:href="#DejaVuSans-114"/>
     <use x="747.869141" xlink:href="#DejaVuSans-101"/>
     <use x="809.392578" xlink:href="#DejaVuSans-110"/>
     <use x="872.771484" xlink:href="#DejaVuSans-99"/>
     <use x="927.751953" xlink:href="#DejaVuSans-101"/>
     <use x="989.275391" xlink:href="#DejaVuSans-32"/>
     <use x="1021.0625" xlink:href="#DejaVuSans-97"/>
     <use x="1082.341797" xlink:href="#DejaVuSans-110"/>
     <use x="1145.720703" xlink:href="#DejaVuSans-100"/>
     <use x="1209.197266" xlink:href="#DejaVuSans-32"/>
     <use x="1240.984375" xlink:href="#DejaVuSans-76"/>
     <use x="1296.681641" xlink:href="#DejaVuSans-111"/>
     <use x="1357.863281" xlink:href="#DejaVuSans-117"/>
     <use x="1421.242188" xlink:href="#DejaVuSans-100"/>
     <use x="1484.71875" xlink:href="#DejaVuSans-110"/>
     <use x="1548.097656" xlink:href="#DejaVuSans-101"/>
     <use x="1609.621094" xlink:href="#DejaVuSans-115"/>
     <use x="1661.720703" xlink:href="#DejaVuSans-115"/>
    </g>
   </g>
   <g id="legend_1">
    <g id="patch_11">
     <path d="M 331.227813 64.150125 
L 407.72 64.150125 
Q 409.72 64.150125 409.72 62.150125 
L 409.72 48.472 
Q 409.72 46.472 407.72 46.472 
L 331.227813 46.472 
Q 329.227813 46.472 329.227813 48.472 
L 329.227813 62.150125 
Q 329.227813 64.150125 331.227813 64.150125 
z
" style="fill:#ffffff;opacity:0.8;stroke:#cccccc;stroke-linejoin:miter;"/>
    </g>
    <g id="line2d_31">
     <path d="M 333.227813 54.570438 
L 353.227813 54.570438 
" style="fill:none;stroke:#008000;stroke-linecap:square;stroke-width:1.5;"/>
    </g>
    <g id="line2d_32"/>
    <g id="text_25">
     <!-- loudness -->
     <defs>
      <path d="M 9.421875 75.984375 
L 18.40625 75.984375 
L 18.40625 0 
L 9.421875 0 
z
" id="DejaVuSans-108"/>
     </defs>
     <g transform="translate(361.227813 58.070438)scale(0.1 -0.1)">
      <use xlink:href="#DejaVuSans-108"/>
      <use x="27.783203" xlink:href="#DejaVuSans-111"/>
      <use x="88.964844" xlink:href="#DejaVuSans-117"/>
      <use x="152.34375" xlink:href="#DejaVuSans-100"/>
      <use x="215.820312" xlink:href="#DejaVuSans-110"/>
      <use x="279.199219" xlink:href="#DejaVuSans-101"/>
      <use x="340.722656" xlink:href="#DejaVuSans-115"/>
      <use x="392.822266" xlink:href="#DejaVuSans-115"/>
     </g>
    </g>
   </g>
  </g>
 </g>
 <defs>
  <clipPath id="pb42cec416d">
   <rect height="266.112" width="357.12" x="57.6" y="41.472"/>
  </clipPath>
 </defs>
</svg>
