<?xml version="1.0" encoding="utf-8" standalone="no"?>
<!DOCTYPE svg PUBLIC "-//W3C//DTD SVG 1.1//EN"
  "http://www.w3.org/Graphics/SVG/1.1/DTD/svg11.dtd">
<!-- Created with matplotlib (https://matplotlib.org/) -->
<svg height="345.6pt" version="1.1" viewBox="0 0 460.8 345.6" width="460.8pt" xmlns="http://www.w3.org/2000/svg" xmlns:xlink="http://www.w3.org/1999/xlink">
 <defs>
  <style type="text/css">
*{stroke-linecap:butt;stroke-linejoin:round;}
  </style>
 </defs>
 <g id="figure_1">
  <g id="patch_1">
   <path d="M 0 345.6 
L 460.8 345.6 
L 460.8 0 
L 0 0 
z
" style="fill:#ffffff;"/>
  </g>
  <g id="axes_1">
   <g id="patch_2">
    <path d="M 57.6 307.584 
L 414.72 307.584 
L 414.72 41.472 
L 57.6 41.472 
z
" style="fill:#ffffff;"/>
   </g>
   <g id="matplotlib.axis_1">
    <g id="xtick_1">
     <g id="line2d_1">
      <path clip-path="url(#p0b864439bc)" d="M 73.832727 307.584 
L 73.832727 41.472 
" style="fill:none;stroke:#b0b0b0;stroke-linecap:square;stroke-width:0.8;"/>
     </g>
     <g id="line2d_2">
      <defs>
       <path d="M 0 0 
L 0 3.5 
" id="m3c17c8ccbe" style="stroke:#000000;stroke-width:0.8;"/>
      </defs>
      <g>
       <use style="stroke:#000000;stroke-width:0.8;" x="73.832727" xlink:href="#m3c17c8ccbe" y="307.584"/>
      </g>
     </g>
     <g id="text_1">
      <!-- 0 -->
      <defs>
       <path d="M 31.78125 66.40625 
Q 24.171875 66.40625 20.328125 58.90625 
Q 16.5 51.421875 16.5 36.375 
Q 16.5 21.390625 20.328125 13.890625 
Q 24.171875 6.390625 31.78125 6.390625 
Q 39.453125 6.390625 43.28125 13.890625 
Q 47.125 21.390625 47.125 36.375 
Q 47.125 51.421875 43.28125 58.90625 
Q 39.453125 66.40625 31.78125 66.40625 
z
M 31.78125 74.21875 
Q 44.046875 74.21875 50.515625 64.515625 
Q 56.984375 54.828125 56.984375 36.375 
Q 56.984375 17.96875 50.515625 8.265625 
Q 44.046875 -1.421875 31.78125 -1.421875 
Q 19.53125 -1.421875 13.0625 8.265625 
Q 6.59375 17.96875 6.59375 36.375 
Q 6.59375 54.828125 13.0625 64.515625 
Q 19.53125 74.21875 31.78125 74.21875 
z
" id="DejaVuSans-48"/>
      </defs>
      <g transform="translate(70.651477 322.182437)scale(0.1 -0.1)">
       <use xlink:href="#DejaVuSans-48"/>
      </g>
     </g>
    </g>
    <g id="xtick_2">
     <g id="line2d_3">
      <path clip-path="url(#p0b864439bc)" d="M 128.122785 307.584 
L 128.122785 41.472 
" style="fill:none;stroke:#b0b0b0;stroke-linecap:square;stroke-width:0.8;"/>
     </g>
     <g id="line2d_4">
      <g>
       <use style="stroke:#000000;stroke-width:0.8;" x="128.122785" xlink:href="#m3c17c8ccbe" y="307.584"/>
      </g>
     </g>
     <g id="text_2">
      <!-- 50 -->
      <defs>
       <path d="M 10.796875 72.90625 
L 49.515625 72.90625 
L 49.515625 64.59375 
L 19.828125 64.59375 
L 19.828125 46.734375 
Q 21.96875 47.46875 24.109375 47.828125 
Q 26.265625 48.1875 28.421875 48.1875 
Q 40.625 48.1875 47.75 41.5 
Q 54.890625 34.8125 54.890625 23.390625 
Q 54.890625 11.625 47.5625 5.09375 
Q 40.234375 -1.421875 26.90625 -1.421875 
Q 22.3125 -1.421875 17.546875 -0.640625 
Q 12.796875 0.140625 7.71875 1.703125 
L 7.71875 11.625 
Q 12.109375 9.234375 16.796875 8.0625 
Q 21.484375 6.890625 26.703125 6.890625 
Q 35.15625 6.890625 40.078125 11.328125 
Q 45.015625 15.765625 45.015625 23.390625 
Q 45.015625 31 40.078125 35.4375 
Q 35.15625 39.890625 26.703125 39.890625 
Q 22.75 39.890625 18.8125 39.015625 
Q 14.890625 38.140625 10.796875 36.28125 
z
" id="DejaVuSans-53"/>
      </defs>
      <g transform="translate(121.760285 322.182437)scale(0.1 -0.1)">
       <use xlink:href="#DejaVuSans-53"/>
       <use x="63.623047" xlink:href="#DejaVuSans-48"/>
      </g>
     </g>
    </g>
    <g id="xtick_3">
     <g id="line2d_5">
      <path clip-path="url(#p0b864439bc)" d="M 182.412843 307.584 
L 182.412843 41.472 
" style="fill:none;stroke:#b0b0b0;stroke-linecap:square;stroke-width:0.8;"/>
     </g>
     <g id="line2d_6">
      <g>
       <use style="stroke:#000000;stroke-width:0.8;" x="182.412843" xlink:href="#m3c17c8ccbe" y="307.584"/>
      </g>
     </g>
     <g id="text_3">
      <!-- 100 -->
      <defs>
       <path d="M 12.40625 8.296875 
L 28.515625 8.296875 
L 28.515625 63.921875 
L 10.984375 60.40625 
L 10.984375 69.390625 
L 28.421875 72.90625 
L 38.28125 72.90625 
L 38.28125 8.296875 
L 54.390625 8.296875 
L 54.390625 0 
L 12.40625 0 
z
" id="DejaVuSans-49"/>
      </defs>
      <g transform="translate(172.869093 322.182437)scale(0.1 -0.1)">
       <use xlink:href="#DejaVuSans-49"/>
       <use x="63.623047" xlink:href="#DejaVuSans-48"/>
       <use x="127.246094" xlink:href="#DejaVuSans-48"/>
      </g>
     </g>
    </g>
    <g id="xtick_4">
     <g id="line2d_7">
      <path clip-path="url(#p0b864439bc)" d="M 236.702901 307.584 
L 236.702901 41.472 
" style="fill:none;stroke:#b0b0b0;stroke-linecap:square;stroke-width:0.8;"/>
     </g>
     <g id="line2d_8">
      <g>
       <use style="stroke:#000000;stroke-width:0.8;" x="236.702901" xlink:href="#m3c17c8ccbe" y="307.584"/>
      </g>
     </g>
     <g id="text_4">
      <!-- 150 -->
      <g transform="translate(227.159151 322.182437)scale(0.1 -0.1)">
       <use xlink:href="#DejaVuSans-49"/>
       <use x="63.623047" xlink:href="#DejaVuSans-53"/>
       <use x="127.246094" xlink:href="#DejaVuSans-48"/>
      </g>
     </g>
    </g>
    <g id="xtick_5">
     <g id="line2d_9">
      <path clip-path="url(#p0b864439bc)" d="M 290.992958 307.584 
L 290.992958 41.472 
" style="fill:none;stroke:#b0b0b0;stroke-linecap:square;stroke-width:0.8;"/>
     </g>
     <g id="line2d_10">
      <g>
       <use style="stroke:#000000;stroke-width:0.8;" x="290.992958" xlink:href="#m3c17c8ccbe" y="307.584"/>
      </g>
     </g>
     <g id="text_5">
      <!-- 200 -->
      <defs>
       <path d="M 19.1875 8.296875 
L 53.609375 8.296875 
L 53.609375 0 
L 7.328125 0 
L 7.328125 8.296875 
Q 12.9375 14.109375 22.625 23.890625 
Q 32.328125 33.6875 34.8125 36.53125 
Q 39.546875 41.84375 41.421875 45.53125 
Q 43.3125 49.21875 43.3125 52.78125 
Q 43.3125 58.59375 39.234375 62.25 
Q 35.15625 65.921875 28.609375 65.921875 
Q 23.96875 65.921875 18.8125 64.3125 
Q 13.671875 62.703125 7.8125 59.421875 
L 7.8125 69.390625 
Q 13.765625 71.78125 18.9375 73 
Q 24.125 74.21875 28.421875 74.21875 
Q 39.75 74.21875 46.484375 68.546875 
Q 53.21875 62.890625 53.21875 53.421875 
Q 53.21875 48.921875 51.53125 44.890625 
Q 49.859375 40.875 45.40625 35.40625 
Q 44.1875 33.984375 37.640625 27.21875 
Q 31.109375 20.453125 19.1875 8.296875 
z
" id="DejaVuSans-50"/>
      </defs>
      <g transform="translate(281.449208 322.182437)scale(0.1 -0.1)">
       <use xlink:href="#DejaVuSans-50"/>
       <use x="63.623047" xlink:href="#DejaVuSans-48"/>
       <use x="127.246094" xlink:href="#DejaVuSans-48"/>
      </g>
     </g>
    </g>
    <g id="xtick_6">
     <g id="line2d_11">
      <path clip-path="url(#p0b864439bc)" d="M 345.283016 307.584 
L 345.283016 41.472 
" style="fill:none;stroke:#b0b0b0;stroke-linecap:square;stroke-width:0.8;"/>
     </g>
     <g id="line2d_12">
      <g>
       <use style="stroke:#000000;stroke-width:0.8;" x="345.283016" xlink:href="#m3c17c8ccbe" y="307.584"/>
      </g>
     </g>
     <g id="text_6">
      <!-- 250 -->
      <g transform="translate(335.739266 322.182437)scale(0.1 -0.1)">
       <use xlink:href="#DejaVuSans-50"/>
       <use x="63.623047" xlink:href="#DejaVuSans-53"/>
       <use x="127.246094" xlink:href="#DejaVuSans-48"/>
      </g>
     </g>
    </g>
    <g id="xtick_7">
     <g id="line2d_13">
      <path clip-path="url(#p0b864439bc)" d="M 399.573074 307.584 
L 399.573074 41.472 
" style="fill:none;stroke:#b0b0b0;stroke-linecap:square;stroke-width:0.8;"/>
     </g>
     <g id="line2d_14">
      <g>
       <use style="stroke:#000000;stroke-width:0.8;" x="399.573074" xlink:href="#m3c17c8ccbe" y="307.584"/>
      </g>
     </g>
     <g id="text_7">
      <!-- 300 -->
      <defs>
       <path d="M 40.578125 39.3125 
Q 47.65625 37.796875 51.625 33 
Q 55.609375 28.21875 55.609375 21.1875 
Q 55.609375 10.40625 48.1875 4.484375 
Q 40.765625 -1.421875 27.09375 -1.421875 
Q 22.515625 -1.421875 17.65625 -0.515625 
Q 12.796875 0.390625 7.625 2.203125 
L 7.625 11.71875 
Q 11.71875 9.328125 16.59375 8.109375 
Q 21.484375 6.890625 26.8125 6.890625 
Q 36.078125 6.890625 40.9375 10.546875 
Q 45.796875 14.203125 45.796875 21.1875 
Q 45.796875 27.640625 41.28125 31.265625 
Q 36.765625 34.90625 28.71875 34.90625 
L 20.21875 34.90625 
L 20.21875 43.015625 
L 29.109375 43.015625 
Q 36.375 43.015625 40.234375 45.921875 
Q 44.09375 48.828125 44.09375 54.296875 
Q 44.09375 59.90625 40.109375 62.90625 
Q 36.140625 65.921875 28.71875 65.921875 
Q 24.65625 65.921875 20.015625 65.03125 
Q 15.375 64.15625 9.8125 62.3125 
L 9.8125 71.09375 
Q 15.4375 72.65625 20.34375 73.4375 
Q 25.25 74.21875 29.59375 74.21875 
Q 40.828125 74.21875 47.359375 69.109375 
Q 53.90625 64.015625 53.90625 55.328125 
Q 53.90625 49.265625 50.4375 45.09375 
Q 46.96875 40.921875 40.578125 39.3125 
z
" id="DejaVuSans-51"/>
      </defs>
      <g transform="translate(390.029324 322.182437)scale(0.1 -0.1)">
       <use xlink:href="#DejaVuSans-51"/>
       <use x="63.623047" xlink:href="#DejaVuSans-48"/>
       <use x="127.246094" xlink:href="#DejaVuSans-48"/>
      </g>
     </g>
    </g>
    <g id="text_8">
     <!-- Generations -->
     <defs>
      <path d="M 59.515625 10.40625 
L 59.515625 29.984375 
L 43.40625 29.984375 
L 43.40625 38.09375 
L 69.28125 38.09375 
L 69.28125 6.78125 
Q 63.578125 2.734375 56.6875 0.65625 
Q 49.8125 -1.421875 42 -1.421875 
Q 24.90625 -1.421875 15.25 8.5625 
Q 5.609375 18.5625 5.609375 36.375 
Q 5.609375 54.25 15.25 64.234375 
Q 24.90625 74.21875 42 74.21875 
Q 49.125 74.21875 55.546875 72.453125 
Q 61.96875 70.703125 67.390625 67.28125 
L 67.390625 56.78125 
Q 61.921875 61.421875 55.765625 63.765625 
Q 49.609375 66.109375 42.828125 66.109375 
Q 29.4375 66.109375 22.71875 58.640625 
Q 16.015625 51.171875 16.015625 36.375 
Q 16.015625 21.625 22.71875 14.15625 
Q 29.4375 6.6875 42.828125 6.6875 
Q 48.046875 6.6875 52.140625 7.59375 
Q 56.25 8.5 59.515625 10.40625 
z
" id="DejaVuSans-71"/>
      <path d="M 56.203125 29.59375 
L 56.203125 25.203125 
L 14.890625 25.203125 
Q 15.484375 15.921875 20.484375 11.0625 
Q 25.484375 6.203125 34.421875 6.203125 
Q 39.59375 6.203125 44.453125 7.46875 
Q 49.3125 8.734375 54.109375 11.28125 
L 54.109375 2.78125 
Q 49.265625 0.734375 44.1875 -0.34375 
Q 39.109375 -1.421875 33.890625 -1.421875 
Q 20.796875 -1.421875 13.15625 6.1875 
Q 5.515625 13.8125 5.515625 26.8125 
Q 5.515625 40.234375 12.765625 48.109375 
Q 20.015625 56 32.328125 56 
Q 43.359375 56 49.78125 48.890625 
Q 56.203125 41.796875 56.203125 29.59375 
z
M 47.21875 32.234375 
Q 47.125 39.59375 43.09375 43.984375 
Q 39.0625 48.390625 32.421875 48.390625 
Q 24.90625 48.390625 20.390625 44.140625 
Q 15.875 39.890625 15.1875 32.171875 
z
" id="DejaVuSans-101"/>
      <path d="M 54.890625 33.015625 
L 54.890625 0 
L 45.90625 0 
L 45.90625 32.71875 
Q 45.90625 40.484375 42.875 44.328125 
Q 39.84375 48.1875 33.796875 48.1875 
Q 26.515625 48.1875 22.3125 43.546875 
Q 18.109375 38.921875 18.109375 30.90625 
L 18.109375 0 
L 9.078125 0 
L 9.078125 54.6875 
L 18.109375 54.6875 
L 18.109375 46.1875 
Q 21.34375 51.125 25.703125 53.5625 
Q 30.078125 56 35.796875 56 
Q 45.21875 56 50.046875 50.171875 
Q 54.890625 44.34375 54.890625 33.015625 
z
" id="DejaVuSans-110"/>
      <path d="M 41.109375 46.296875 
Q 39.59375 47.171875 37.8125 47.578125 
Q 36.03125 48 33.890625 48 
Q 26.265625 48 22.1875 43.046875 
Q 18.109375 38.09375 18.109375 28.8125 
L 18.109375 0 
L 9.078125 0 
L 9.078125 54.6875 
L 18.109375 54.6875 
L 18.109375 46.1875 
Q 20.953125 51.171875 25.484375 53.578125 
Q 30.03125 56 36.53125 56 
Q 37.453125 56 38.578125 55.875 
Q 39.703125 55.765625 41.0625 55.515625 
z
" id="DejaVuSans-114"/>
      <path d="M 34.28125 27.484375 
Q 23.390625 27.484375 19.1875 25 
Q 14.984375 22.515625 14.984375 16.5 
Q 14.984375 11.71875 18.140625 8.90625 
Q 21.296875 6.109375 26.703125 6.109375 
Q 34.1875 6.109375 38.703125 11.40625 
Q 43.21875 16.703125 43.21875 25.484375 
L 43.21875 27.484375 
z
M 52.203125 31.203125 
L 52.203125 0 
L 43.21875 0 
L 43.21875 8.296875 
Q 40.140625 3.328125 35.546875 0.953125 
Q 30.953125 -1.421875 24.3125 -1.421875 
Q 15.921875 -1.421875 10.953125 3.296875 
Q 6 8.015625 6 15.921875 
Q 6 25.140625 12.171875 29.828125 
Q 18.359375 34.515625 30.609375 34.515625 
L 43.21875 34.515625 
L 43.21875 35.40625 
Q 43.21875 41.609375 39.140625 45 
Q 35.0625 48.390625 27.6875 48.390625 
Q 23 48.390625 18.546875 47.265625 
Q 14.109375 46.140625 10.015625 43.890625 
L 10.015625 52.203125 
Q 14.9375 54.109375 19.578125 55.046875 
Q 24.21875 56 28.609375 56 
Q 40.484375 56 46.34375 49.84375 
Q 52.203125 43.703125 52.203125 31.203125 
z
" id="DejaVuSans-97"/>
      <path d="M 18.3125 70.21875 
L 18.3125 54.6875 
L 36.8125 54.6875 
L 36.8125 47.703125 
L 18.3125 47.703125 
L 18.3125 18.015625 
Q 18.3125 11.328125 20.140625 9.421875 
Q 21.96875 7.515625 27.59375 7.515625 
L 36.8125 7.515625 
L 36.8125 0 
L 27.59375 0 
Q 17.1875 0 13.234375 3.875 
Q 9.28125 7.765625 9.28125 18.015625 
L 9.28125 47.703125 
L 2.6875 47.703125 
L 2.6875 54.6875 
L 9.28125 54.6875 
L 9.28125 70.21875 
z
" id="DejaVuSans-116"/>
      <path d="M 9.421875 54.6875 
L 18.40625 54.6875 
L 18.40625 0 
L 9.421875 0 
z
M 9.421875 75.984375 
L 18.40625 75.984375 
L 18.40625 64.59375 
L 9.421875 64.59375 
z
" id="DejaVuSans-105"/>
      <path d="M 30.609375 48.390625 
Q 23.390625 48.390625 19.1875 42.75 
Q 14.984375 37.109375 14.984375 27.296875 
Q 14.984375 17.484375 19.15625 11.84375 
Q 23.34375 6.203125 30.609375 6.203125 
Q 37.796875 6.203125 41.984375 11.859375 
Q 46.1875 17.53125 46.1875 27.296875 
Q 46.1875 37.015625 41.984375 42.703125 
Q 37.796875 48.390625 30.609375 48.390625 
z
M 30.609375 56 
Q 42.328125 56 49.015625 48.375 
Q 55.71875 40.765625 55.71875 27.296875 
Q 55.71875 13.875 49.015625 6.21875 
Q 42.328125 -1.421875 30.609375 -1.421875 
Q 18.84375 -1.421875 12.171875 6.21875 
Q 5.515625 13.875 5.515625 27.296875 
Q 5.515625 40.765625 12.171875 48.375 
Q 18.84375 56 30.609375 56 
z
" id="DejaVuSans-111"/>
      <path d="M 44.28125 53.078125 
L 44.28125 44.578125 
Q 40.484375 46.53125 36.375 47.5 
Q 32.28125 48.484375 27.875 48.484375 
Q 21.1875 48.484375 17.84375 46.4375 
Q 14.5 44.390625 14.5 40.28125 
Q 14.5 37.15625 16.890625 35.375 
Q 19.28125 33.59375 26.515625 31.984375 
L 29.59375 31.296875 
Q 39.15625 29.25 43.1875 25.515625 
Q 47.21875 21.78125 47.21875 15.09375 
Q 47.21875 7.46875 41.1875 3.015625 
Q 35.15625 -1.421875 24.609375 -1.421875 
Q 20.21875 -1.421875 15.453125 -0.5625 
Q 10.6875 0.296875 5.421875 2 
L 5.421875 11.28125 
Q 10.40625 8.6875 15.234375 7.390625 
Q 20.0625 6.109375 24.8125 6.109375 
Q 31.15625 6.109375 34.5625 8.28125 
Q 37.984375 10.453125 37.984375 14.40625 
Q 37.984375 18.0625 35.515625 20.015625 
Q 33.0625 21.96875 24.703125 23.78125 
L 21.578125 24.515625 
Q 13.234375 26.265625 9.515625 29.90625 
Q 5.8125 33.546875 5.8125 39.890625 
Q 5.8125 47.609375 11.28125 51.796875 
Q 16.75 56 26.8125 56 
Q 31.78125 56 36.171875 55.265625 
Q 40.578125 54.546875 44.28125 53.078125 
z
" id="DejaVuSans-115"/>
     </defs>
     <g transform="translate(205.662344 335.860562)scale(0.1 -0.1)">
      <use xlink:href="#DejaVuSans-71"/>
      <use x="77.490234" xlink:href="#DejaVuSans-101"/>
      <use x="139.013672" xlink:href="#DejaVuSans-110"/>
      <use x="202.392578" xlink:href="#DejaVuSans-101"/>
      <use x="263.916016" xlink:href="#DejaVuSans-114"/>
      <use x="305.029297" xlink:href="#DejaVuSans-97"/>
      <use x="366.308594" xlink:href="#DejaVuSans-116"/>
      <use x="405.517578" xlink:href="#DejaVuSans-105"/>
      <use x="433.300781" xlink:href="#DejaVuSans-111"/>
      <use x="494.482422" xlink:href="#DejaVuSans-110"/>
      <use x="557.861328" xlink:href="#DejaVuSans-115"/>
     </g>
    </g>
   </g>
   <g id="matplotlib.axis_2">
    <g id="ytick_1">
     <g id="line2d_15">
      <path clip-path="url(#p0b864439bc)" d="M 57.6 278.009217 
L 414.72 278.009217 
" style="fill:none;stroke:#b0b0b0;stroke-linecap:square;stroke-width:0.8;"/>
     </g>
     <g id="line2d_16">
      <defs>
       <path d="M 0 0 
L -3.5 0 
" id="mbea7712e24" style="stroke:#000000;stroke-width:0.8;"/>
      </defs>
      <g>
       <use style="stroke:#000000;stroke-width:0.8;" x="57.6" xlink:href="#mbea7712e24" y="278.009217"/>
      </g>
     </g>
     <g id="text_9">
      <!-- 500 -->
      <g transform="translate(31.5125 281.808436)scale(0.1 -0.1)">
       <use xlink:href="#DejaVuSans-53"/>
       <use x="63.623047" xlink:href="#DejaVuSans-48"/>
       <use x="127.246094" xlink:href="#DejaVuSans-48"/>
      </g>
     </g>
    </g>
    <g id="ytick_2">
     <g id="line2d_17">
      <path clip-path="url(#p0b864439bc)" d="M 57.6 247.708848 
L 414.72 247.708848 
" style="fill:none;stroke:#b0b0b0;stroke-linecap:square;stroke-width:0.8;"/>
     </g>
     <g id="line2d_18">
      <g>
       <use style="stroke:#000000;stroke-width:0.8;" x="57.6" xlink:href="#mbea7712e24" y="247.708848"/>
      </g>
     </g>
     <g id="text_10">
      <!-- 750 -->
      <defs>
       <path d="M 8.203125 72.90625 
L 55.078125 72.90625 
L 55.078125 68.703125 
L 28.609375 0 
L 18.3125 0 
L 43.21875 64.59375 
L 8.203125 64.59375 
z
" id="DejaVuSans-55"/>
      </defs>
      <g transform="translate(31.5125 251.508067)scale(0.1 -0.1)">
       <use xlink:href="#DejaVuSans-55"/>
       <use x="63.623047" xlink:href="#DejaVuSans-53"/>
       <use x="127.246094" xlink:href="#DejaVuSans-48"/>
      </g>
     </g>
    </g>
    <g id="ytick_3">
     <g id="line2d_19">
      <path clip-path="url(#p0b864439bc)" d="M 57.6 217.408478 
L 414.72 217.408478 
" style="fill:none;stroke:#b0b0b0;stroke-linecap:square;stroke-width:0.8;"/>
     </g>
     <g id="line2d_20">
      <g>
       <use style="stroke:#000000;stroke-width:0.8;" x="57.6" xlink:href="#mbea7712e24" y="217.408478"/>
      </g>
     </g>
     <g id="text_11">
      <!-- 1000 -->
      <g transform="translate(25.15 221.207697)scale(0.1 -0.1)">
       <use xlink:href="#DejaVuSans-49"/>
       <use x="63.623047" xlink:href="#DejaVuSans-48"/>
       <use x="127.246094" xlink:href="#DejaVuSans-48"/>
       <use x="190.869141" xlink:href="#DejaVuSans-48"/>
      </g>
     </g>
    </g>
    <g id="ytick_4">
     <g id="line2d_21">
      <path clip-path="url(#p0b864439bc)" d="M 57.6 187.108109 
L 414.72 187.108109 
" style="fill:none;stroke:#b0b0b0;stroke-linecap:square;stroke-width:0.8;"/>
     </g>
     <g id="line2d_22">
      <g>
       <use style="stroke:#000000;stroke-width:0.8;" x="57.6" xlink:href="#mbea7712e24" y="187.108109"/>
      </g>
     </g>
     <g id="text_12">
      <!-- 1250 -->
      <g transform="translate(25.15 190.907327)scale(0.1 -0.1)">
       <use xlink:href="#DejaVuSans-49"/>
       <use x="63.623047" xlink:href="#DejaVuSans-50"/>
       <use x="127.246094" xlink:href="#DejaVuSans-53"/>
       <use x="190.869141" xlink:href="#DejaVuSans-48"/>
      </g>
     </g>
    </g>
    <g id="ytick_5">
     <g id="line2d_23">
      <path clip-path="url(#p0b864439bc)" d="M 57.6 156.807739 
L 414.72 156.807739 
" style="fill:none;stroke:#b0b0b0;stroke-linecap:square;stroke-width:0.8;"/>
     </g>
     <g id="line2d_24">
      <g>
       <use style="stroke:#000000;stroke-width:0.8;" x="57.6" xlink:href="#mbea7712e24" y="156.807739"/>
      </g>
     </g>
     <g id="text_13">
      <!-- 1500 -->
      <g transform="translate(25.15 160.606958)scale(0.1 -0.1)">
       <use xlink:href="#DejaVuSans-49"/>
       <use x="63.623047" xlink:href="#DejaVuSans-53"/>
       <use x="127.246094" xlink:href="#DejaVuSans-48"/>
       <use x="190.869141" xlink:href="#DejaVuSans-48"/>
      </g>
     </g>
    </g>
    <g id="ytick_6">
     <g id="line2d_25">
      <path clip-path="url(#p0b864439bc)" d="M 57.6 126.50737 
L 414.72 126.50737 
" style="fill:none;stroke:#b0b0b0;stroke-linecap:square;stroke-width:0.8;"/>
     </g>
     <g id="line2d_26">
      <g>
       <use style="stroke:#000000;stroke-width:0.8;" x="57.6" xlink:href="#mbea7712e24" y="126.50737"/>
      </g>
     </g>
     <g id="text_14">
      <!-- 1750 -->
      <g transform="translate(25.15 130.306588)scale(0.1 -0.1)">
       <use xlink:href="#DejaVuSans-49"/>
       <use x="63.623047" xlink:href="#DejaVuSans-55"/>
       <use x="127.246094" xlink:href="#DejaVuSans-53"/>
       <use x="190.869141" xlink:href="#DejaVuSans-48"/>
      </g>
     </g>
    </g>
    <g id="ytick_7">
     <g id="line2d_27">
      <path clip-path="url(#p0b864439bc)" d="M 57.6 96.207 
L 414.72 96.207 
" style="fill:none;stroke:#b0b0b0;stroke-linecap:square;stroke-width:0.8;"/>
     </g>
     <g id="line2d_28">
      <g>
       <use style="stroke:#000000;stroke-width:0.8;" x="57.6" xlink:href="#mbea7712e24" y="96.207"/>
      </g>
     </g>
     <g id="text_15">
      <!-- 2000 -->
      <g transform="translate(25.15 100.006219)scale(0.1 -0.1)">
       <use xlink:href="#DejaVuSans-50"/>
       <use x="63.623047" xlink:href="#DejaVuSans-48"/>
       <use x="127.246094" xlink:href="#DejaVuSans-48"/>
       <use x="190.869141" xlink:href="#DejaVuSans-48"/>
      </g>
     </g>
    </g>
    <g id="ytick_8">
     <g id="line2d_29">
      <path clip-path="url(#p0b864439bc)" d="M 57.6 65.906631 
L 414.72 65.906631 
" style="fill:none;stroke:#b0b0b0;stroke-linecap:square;stroke-width:0.8;"/>
     </g>
     <g id="line2d_30">
      <g>
       <use style="stroke:#000000;stroke-width:0.8;" x="57.6" xlink:href="#mbea7712e24" y="65.906631"/>
      </g>
     </g>
     <g id="text_16">
      <!-- 2250 -->
      <g transform="translate(25.15 69.705849)scale(0.1 -0.1)">
       <use xlink:href="#DejaVuSans-50"/>
       <use x="63.623047" xlink:href="#DejaVuSans-50"/>
       <use x="127.246094" xlink:href="#DejaVuSans-53"/>
       <use x="190.869141" xlink:href="#DejaVuSans-48"/>
      </g>
     </g>
    </g>
    <g id="text_17">
     <!-- Fitness -->
     <defs>
      <path d="M 9.8125 72.90625 
L 51.703125 72.90625 
L 51.703125 64.59375 
L 19.671875 64.59375 
L 19.671875 43.109375 
L 48.578125 43.109375 
L 48.578125 34.8125 
L 19.671875 34.8125 
L 19.671875 0 
L 9.8125 0 
z
" id="DejaVuSans-70"/>
     </defs>
     <g transform="translate(19.070312 192.202219)rotate(-90)scale(0.1 -0.1)">
      <use xlink:href="#DejaVuSans-70"/>
      <use x="57.410156" xlink:href="#DejaVuSans-105"/>
      <use x="85.193359" xlink:href="#DejaVuSans-116"/>
      <use x="124.402344" xlink:href="#DejaVuSans-110"/>
      <use x="187.78125" xlink:href="#DejaVuSans-101"/>
      <use x="249.304688" xlink:href="#DejaVuSans-115"/>
      <use x="301.404297" xlink:href="#DejaVuSans-115"/>
     </g>
    </g>
   </g>
   <g id="line2d_31">
    <path clip-path="url(#p0b864439bc)" d="M 73.832727 279.845421 
L 74.918528 265.674585 
L 76.00433 263.433503 
L 77.090131 256.051172 
L 78.175932 259.949952 
L 79.261733 249.766261 
L 80.347534 241.73814 
L 81.433335 247.892094 
L 82.519137 236.142527 
L 83.604938 235.062274 
L 84.690739 235.849042 
L 85.77654 224.474743 
L 86.862341 225.001112 
L 87.948142 218.803503 
L 89.033943 220.458579 
L 90.119745 225.535823 
L 91.205546 225.814052 
L 92.291347 213.319707 
L 94.462949 224.784478 
L 95.54875 217.6633 
L 96.634552 204.628785 
L 97.720353 206.209438 
L 98.806154 213.951838 
L 99.891955 207.856116 
L 100.977756 206.666506 
L 102.063557 218.1609 
L 103.149358 218.461674 
L 104.23516 211.126054 
L 105.320961 197.181015 
L 106.406762 195.24228 
L 107.492563 203.843138 
L 108.578364 202.257712 
L 109.664165 197.0067 
L 110.749967 209.698706 
L 111.835768 190.770591 
L 112.921569 190.953217 
L 114.00737 192.333812 
L 115.093171 196.222239 
L 116.178972 195.352016 
L 117.264773 194.760859 
L 118.350575 189.672022 
L 119.436376 194.890549 
L 120.522177 200.779103 
L 121.607978 193.050272 
L 122.693779 186.251164 
L 123.77958 195.350195 
L 124.865382 197.747618 
L 125.951183 193.479942 
L 127.036984 197.619815 
L 128.122785 200.030128 
L 129.208586 194.323852 
L 130.294387 198.247132 
L 132.46599 187.048106 
L 133.551791 194.502043 
L 134.637592 178.137173 
L 135.723393 183.547205 
L 136.809194 179.437828 
L 137.894995 204.068953 
L 138.980797 192.825981 
L 140.066598 176.931984 
L 141.152399 170.738411 
L 142.2382 169.396098 
L 143.324001 184.551461 
L 144.409802 175.791322 
L 145.495604 163.8204 
L 146.581405 190.262282 
L 147.667206 183.982784 
L 148.753007 175.543127 
L 149.838808 169.678915 
L 150.924609 161.319413 
L 152.01041 185.715916 
L 153.096212 175.515516 
L 154.182013 169.440268 
L 155.267814 179.705849 
L 156.353615 181.146483 
L 157.439416 186.470338 
L 158.525217 178.447254 
L 159.611019 193.036037 
L 160.69682 161.4112 
L 161.782621 177.739309 
L 162.868422 175.349191 
L 163.954223 180.153955 
L 165.040024 188.745936 
L 166.125825 166.190234 
L 167.211627 171.741355 
L 169.383229 185.987753 
L 170.46903 168.978168 
L 171.554831 176.777852 
L 172.640632 160.758956 
L 173.726434 169.56958 
L 174.812235 165.066605 
L 175.898036 165.455698 
L 176.983837 165.422129 
L 178.069638 172.048155 
L 179.155439 164.092454 
L 180.24124 153.578479 
L 181.327042 145.092171 
L 182.412843 175.462059 
L 183.498644 168.531562 
L 184.584445 185.587116 
L 185.670246 165.858685 
L 186.756047 184.970359 
L 187.841849 199.711282 
L 188.92765 186.673688 
L 191.099252 197.048749 
L 192.185053 195.569496 
L 193.270854 176.916595 
L 194.356656 162.698087 
L 195.442457 162.226072 
L 196.528258 164.566578 
L 197.614059 176.161652 
L 198.69986 172.576686 
L 199.785661 181.196408 
L 200.871462 207.067518 
L 201.957264 200.816658 
L 203.043065 179.209677 
L 204.128866 161.68017 
L 205.214667 178.083812 
L 206.300468 182.944085 
L 207.386269 185.159939 
L 208.472071 177.913067 
L 209.557872 160.974864 
L 210.643673 166.089961 
L 211.729474 178.939761 
L 212.815275 180.056836 
L 213.901076 178.60277 
L 214.986877 187.897479 
L 216.072679 171.721064 
L 217.15848 171.154726 
L 218.244281 151.249065 
L 219.330082 168.675304 
L 220.415883 167.840711 
L 221.501684 173.089791 
L 222.587486 168.455799 
L 223.673287 169.239474 
L 224.759088 181.263428 
L 225.844889 172.908657 
L 226.93069 179.696863 
L 228.016491 185.68967 
L 229.102292 167.681083 
L 230.188094 177.588118 
L 231.273895 184.930656 
L 232.359696 184.09921 
L 233.445497 178.475292 
L 234.531298 162.118694 
L 235.617099 178.83172 
L 236.702901 170.454985 
L 237.788702 151.486274 
L 238.874503 165.552878 
L 239.960304 172.701019 
L 241.046105 169.577701 
L 242.131906 176.703554 
L 243.217708 154.026886 
L 244.303509 164.309684 
L 245.38931 151.027899 
L 246.475111 159.425548 
L 247.560912 159.110641 
L 248.646713 154.728268 
L 249.732514 175.271417 
L 250.818316 165.929045 
L 251.904117 159.767048 
L 254.075719 182.66452 
L 255.16152 175.24593 
L 256.247321 173.938965 
L 257.333123 153.88862 
L 258.418924 152.781784 
L 259.504725 163.936125 
L 260.590526 162.27874 
L 261.676327 161.444932 
L 262.762128 165.966565 
L 263.847929 157.568689 
L 264.933731 172.037083 
L 266.019532 177.3937 
L 267.105333 179.554423 
L 268.191134 153.15571 
L 269.276935 168.59139 
L 270.362736 204.474368 
L 271.448538 160.558713 
L 272.534339 188.355617 
L 273.62014 173.784935 
L 274.705941 181.168642 
L 275.791742 173.63523 
L 276.877543 172.299788 
L 277.963344 155.761699 
L 279.049146 169.947289 
L 280.134947 186.292089 
L 281.220748 188.798088 
L 282.306549 150.238318 
L 283.39235 160.218888 
L 284.478151 149.751165 
L 285.563953 174.251918 
L 286.649754 166.942743 
L 287.735555 165.890206 
L 288.821356 155.05261 
L 289.907157 147.840306 
L 290.992958 157.256374 
L 292.07876 164.799545 
L 293.164561 169.012029 
L 294.250362 180.160459 
L 295.336163 170.410264 
L 296.421964 176.692646 
L 297.507765 170.579741 
L 298.593566 161.826498 
L 299.679368 180.064565 
L 300.765169 164.096605 
L 301.85097 176.596007 
L 302.936771 185.441952 
L 304.022572 162.298704 
L 305.108373 164.011196 
L 306.194175 179.652922 
L 307.279976 169.710626 
L 308.365777 149.602574 
L 309.451578 172.166205 
L 310.537379 165.426991 
L 311.62318 170.951617 
L 312.708981 171.00644 
L 313.794783 179.479174 
L 314.880584 178.008085 
L 315.966385 184.853967 
L 317.052186 162.920461 
L 318.137987 153.767342 
L 319.223788 152.329345 
L 320.30959 149.200058 
L 321.395391 163.078648 
L 322.481192 188.711231 
L 323.566993 160.347932 
L 324.652794 149.484131 
L 325.738595 178.290347 
L 326.824396 153.908352 
L 327.910198 166.796926 
L 330.0818 147.922482 
L 331.167601 170.554796 
L 332.253402 159.258383 
L 333.339203 163.13783 
L 334.425005 145.568767 
L 335.510806 137.574474 
L 336.596607 158.73778 
L 337.682408 171.285553 
L 338.768209 145.356978 
L 339.85401 153.254222 
L 340.939811 155.06232 
L 342.025613 149.075359 
L 344.197215 167.761685 
L 345.283016 168.574349 
L 346.368817 162.324738 
L 347.454618 154.64599 
L 348.54042 166.404279 
L 349.626221 151.908484 
L 350.712022 156.524601 
L 351.797823 152.991429 
L 352.883624 153.835228 
L 353.969425 146.212816 
L 355.055227 171.118516 
L 356.141028 167.334284 
L 357.226829 159.404684 
L 358.31263 165.020784 
L 359.398431 161.398112 
L 360.484232 158.886284 
L 361.570033 166.837052 
L 362.655835 157.458812 
L 363.741636 146.637323 
L 364.827437 142.186845 
L 365.913238 141.172822 
L 366.999039 146.133901 
L 368.08484 129.696069 
L 369.170642 136.550599 
L 370.256443 122.89177 
L 371.342244 155.230333 
L 372.428045 145.825712 
L 373.513846 140.231662 
L 374.599647 142.343416 
L 375.685448 146.662675 
L 376.77125 132.557657 
L 377.857051 141.788014 
L 378.942852 138.720849 
L 380.028653 122.844967 
L 381.114454 138.005642 
L 382.200255 149.613215 
L 383.286057 136.25491 
L 384.371858 159.009411 
L 385.457659 133.939522 
L 386.54346 151.226868 
L 387.629261 150.963975 
L 388.715062 159.240319 
L 389.800863 155.411909 
L 390.886665 158.991869 
L 391.972466 128.940785 
L 393.058267 137.006819 
L 394.144068 165.596817 
L 395.229869 137.500355 
L 396.31567 142.462447 
L 397.401472 153.560022 
L 398.487273 165.982424 
L 398.487273 165.982424 
" style="fill:none;stroke:#0000ff;stroke-linecap:square;stroke-width:1.5;"/>
   </g>
   <g id="line2d_32">
    <path clip-path="url(#p0b864439bc)" d="M 73.832727 295.488 
L 74.918528 280.669906 
L 76.00433 278.757819 
L 77.090131 266.726186 
L 78.175932 275.760769 
L 79.261733 269.790927 
L 80.347534 264.74293 
L 81.433335 273.26638 
L 82.519137 251.233739 
L 83.604938 259.610626 
L 84.690739 261.849749 
L 85.77654 250.417156 
L 86.862341 256.257795 
L 87.948142 249.261536 
L 89.033943 245.794078 
L 90.119745 255.531073 
L 91.205546 257.755091 
L 92.291347 238.573541 
L 93.377148 248.722674 
L 94.462949 264.492157 
L 95.54875 250.103566 
L 96.634552 239.511146 
L 97.720353 233.881013 
L 98.806154 242.377297 
L 99.891955 249.321299 
L 100.977756 248.557569 
L 102.063557 264.577119 
L 103.149358 264.304899 
L 105.320961 239.540788 
L 106.406762 239.44823 
L 107.492563 247.244132 
L 108.578364 240.442733 
L 109.664165 242.140765 
L 110.749967 262.962385 
L 111.835768 226.104128 
L 112.921569 227.128175 
L 114.00737 240.745427 
L 115.093171 240.477954 
L 116.178972 230.431312 
L 117.264773 240.07481 
L 118.350575 222.239699 
L 119.436376 235.119252 
L 120.522177 250.956017 
L 121.607978 233.78848 
L 122.693779 224.754272 
L 123.77958 241.517523 
L 124.865382 242.76624 
L 125.951183 237.791644 
L 127.036984 248.952845 
L 128.122785 243.52103 
L 129.208586 230.346916 
L 130.294387 246.625664 
L 131.380189 239.509521 
L 132.46599 229.546014 
L 133.551791 252.579078 
L 134.637592 218.081796 
L 135.723393 222.111461 
L 136.809194 233.640862 
L 137.894995 264.889264 
L 138.980797 245.677435 
L 140.066598 219.99613 
L 141.152399 214.263161 
L 142.2382 203.056114 
L 143.324001 232.668747 
L 144.409802 219.623676 
L 145.495604 210.330521 
L 146.581405 247.351588 
L 147.667206 221.426638 
L 148.753007 228.527455 
L 149.838808 224.752552 
L 150.924609 202.739308 
L 152.01041 244.697415 
L 153.096212 225.369826 
L 154.182013 211.926196 
L 155.267814 232.383473 
L 156.353615 235.79222 
L 157.439416 227.700797 
L 158.525217 227.931964 
L 159.611019 238.184044 
L 160.69682 195.974248 
L 161.782621 229.901717 
L 162.868422 216.143814 
L 163.954223 222.736733 
L 165.040024 231.095977 
L 166.125825 203.189942 
L 167.211627 209.251883 
L 168.297428 222.568161 
L 169.383229 248.231024 
L 170.46903 213.242092 
L 171.554831 224.992143 
L 172.640632 212.656222 
L 173.726434 218.514556 
L 174.812235 220.361095 
L 175.898036 225.356116 
L 176.983837 220.481228 
L 178.069638 228.035988 
L 180.24124 201.397183 
L 181.327042 206.969149 
L 182.412843 236.096752 
L 183.498644 230.802209 
L 184.584445 252.648403 
L 185.670246 232.530394 
L 186.756047 258.164345 
L 187.841849 263.837132 
L 188.92765 252.312234 
L 190.013451 257.74355 
L 191.099252 257.449127 
L 192.185053 260.966789 
L 193.270854 241.176744 
L 195.442457 211.541299 
L 196.528258 243.315352 
L 197.614059 235.312692 
L 198.69986 241.264127 
L 199.785661 237.248437 
L 200.871462 263.670636 
L 201.957264 262.063464 
L 203.043065 243.858267 
L 204.128866 227.658485 
L 205.214667 243.144283 
L 206.300468 239.601803 
L 207.386269 246.791955 
L 208.472071 243.436199 
L 209.557872 205.008801 
L 210.643673 217.73161 
L 211.729474 249.293566 
L 212.815275 236.279548 
L 213.901076 241.751364 
L 214.986877 244.229205 
L 216.072679 235.229472 
L 217.15848 217.110414 
L 218.244281 202.719981 
L 219.330082 228.956184 
L 220.415883 220.917134 
L 221.501684 222.129132 
L 222.587486 211.430048 
L 223.673287 210.210305 
L 224.759088 234.80434 
L 225.844889 232.946009 
L 226.93069 236.940402 
L 228.016491 245.340609 
L 229.102292 220.762265 
L 230.188094 224.525886 
L 231.273895 236.075731 
L 232.359696 243.134152 
L 233.445497 230.239786 
L 234.531298 215.969897 
L 235.617099 230.264461 
L 236.702901 211.328455 
L 237.788702 196.986413 
L 238.874503 218.716449 
L 239.960304 232.611003 
L 241.046105 211.460223 
L 242.131906 228.831162 
L 243.217708 200.490119 
L 244.303509 215.913483 
L 245.38931 200.629222 
L 246.475111 218.958789 
L 247.560912 207.873602 
L 248.646713 205.332604 
L 249.732514 219.558422 
L 250.818316 209.998339 
L 251.904117 210.591314 
L 252.989918 221.339801 
L 254.075719 242.067823 
L 255.16152 226.198868 
L 256.247321 225.256206 
L 257.333123 201.572457 
L 258.418924 199.141616 
L 259.504725 220.129908 
L 260.590526 220.52938 
L 261.676327 197.731284 
L 262.762128 227.864217 
L 263.847929 219.180759 
L 264.933731 225.859327 
L 266.019532 225.746489 
L 267.105333 242.021764 
L 268.191134 220.174299 
L 269.276935 230.551857 
L 270.362736 269.606055 
L 271.448538 211.031761 
L 272.534339 245.478762 
L 273.62014 238.184286 
L 274.705941 251.050415 
L 275.791742 235.934186 
L 276.877543 233.532581 
L 277.963344 235.24954 
L 279.049146 231.663122 
L 280.134947 246.326069 
L 281.220748 257.142259 
L 282.306549 214.961164 
L 283.39235 217.06729 
L 284.478151 218.252635 
L 285.563953 230.3237 
L 286.649754 251.279294 
L 287.735555 236.79438 
L 288.821356 213.453318 
L 289.907157 212.457238 
L 290.992958 216.054578 
L 292.07876 235.362366 
L 293.164561 232.392385 
L 294.250362 242.658939 
L 295.336163 231.869031 
L 296.421964 234.788092 
L 297.507765 236.905852 
L 298.593566 228.540382 
L 299.679368 247.215508 
L 300.765169 231.69047 
L 301.85097 244.941647 
L 302.936771 261.975476 
L 304.022572 218.136392 
L 305.108373 218.763171 
L 306.194175 255.351384 
L 307.279976 239.7565 
L 308.365777 220.404324 
L 309.451578 240.418687 
L 310.537379 228.00955 
L 311.62318 247.466477 
L 312.708981 235.680682 
L 313.794783 249.047933 
L 314.880584 252.746108 
L 315.966385 240.22195 
L 317.052186 232.15497 
L 318.137987 213.924709 
L 319.223788 214.089006 
L 320.30959 225.346735 
L 321.395391 234.503481 
L 322.481192 255.455353 
L 323.566993 231.680549 
L 324.652794 213.711219 
L 325.738595 246.900567 
L 326.824396 219.815604 
L 327.910198 223.70853 
L 328.995999 225.105987 
L 330.0818 199.239049 
L 331.167601 239.300868 
L 332.253402 231.500696 
L 333.339203 221.762344 
L 334.425005 210.729976 
L 335.510806 196.707956 
L 336.596607 224.08918 
L 337.682408 240.189183 
L 338.768209 212.996138 
L 339.85401 212.508352 
L 340.939811 223.291739 
L 342.025613 221.539402 
L 343.111414 237.944941 
L 344.197215 234.499589 
L 345.283016 212.462161 
L 346.368817 219.875878 
L 347.454618 214.768112 
L 348.54042 234.206186 
L 349.626221 205.24972 
L 350.712022 220.093949 
L 351.797823 207.509404 
L 353.969425 214.114541 
L 355.055227 255.562516 
L 356.141028 224.18128 
L 357.226829 216.38664 
L 358.31263 227.537836 
L 359.398431 232.214196 
L 360.484232 224.914862 
L 361.570033 240.54422 
L 362.655835 232.369303 
L 363.741636 205.09033 
L 364.827437 203.884187 
L 365.913238 209.36448 
L 366.999039 219.204886 
L 368.08484 197.142271 
L 369.170642 207.504342 
L 370.256443 188.982012 
L 371.342244 215.653601 
L 373.513846 193.816857 
L 374.599647 202.807113 
L 375.685448 201.900207 
L 376.77125 179.006718 
L 377.857051 205.576096 
L 378.942852 194.234938 
L 380.028653 170.448217 
L 381.114454 193.625519 
L 382.200255 208.533901 
L 383.286057 205.104224 
L 384.371858 221.569447 
L 385.457659 197.052844 
L 386.54346 219.396334 
L 387.629261 221.824405 
L 388.715062 225.014506 
L 389.800863 212.622434 
L 390.886665 219.451209 
L 391.972466 191.190133 
L 393.058267 193.126431 
L 394.144068 224.482652 
L 395.229869 197.135705 
L 396.31567 218.036388 
L 397.401472 217.229616 
L 398.487273 234.295248 
L 398.487273 234.295248 
" style="fill:none;stroke:#008000;stroke-dasharray:9.6,2.4,1.5,2.4;stroke-dashoffset:0;stroke-width:1.5;"/>
   </g>
   <g id="line2d_33">
    <path clip-path="url(#p0b864439bc)" d="M 73.832727 264.202843 
L 74.918528 250.679264 
L 77.090131 245.376158 
L 78.175932 244.139135 
L 79.261733 229.741594 
L 80.347534 218.73335 
L 81.433335 222.517807 
L 82.519137 221.051315 
L 83.604938 210.513923 
L 84.690739 209.848335 
L 85.77654 198.53233 
L 86.862341 193.744428 
L 87.948142 188.345469 
L 89.033943 195.123081 
L 90.119745 195.540572 
L 91.205546 193.873013 
L 92.291347 188.065874 
L 93.377148 189.85532 
L 94.462949 185.0768 
L 95.54875 185.223035 
L 96.634552 169.746424 
L 97.720353 178.537864 
L 98.806154 185.526378 
L 99.891955 166.390934 
L 100.977756 164.775443 
L 102.063557 171.74468 
L 103.149358 172.618448 
L 104.23516 169.944417 
L 105.320961 154.821242 
L 106.406762 151.03633 
L 107.492563 160.442144 
L 108.578364 164.072692 
L 109.664165 151.872634 
L 110.749967 156.435026 
L 111.835768 155.437054 
L 112.921569 154.778258 
L 114.00737 143.922198 
L 116.178972 160.27272 
L 117.264773 149.446908 
L 118.350575 157.104344 
L 119.436376 154.661847 
L 120.522177 150.60219 
L 121.607978 152.312063 
L 122.693779 147.748055 
L 123.77958 149.182866 
L 124.865382 152.728996 
L 125.951183 149.168241 
L 127.036984 146.286786 
L 128.122785 156.539226 
L 129.208586 158.300788 
L 130.294387 149.8686 
L 131.380189 146.222232 
L 132.46599 144.550198 
L 133.551791 136.425007 
L 134.637592 138.19255 
L 135.723393 144.98295 
L 136.809194 125.234793 
L 137.894995 143.248642 
L 138.980797 139.974527 
L 141.152399 127.213661 
L 142.2382 135.736082 
L 143.324001 136.434176 
L 144.409802 131.958969 
L 145.495604 117.310278 
L 146.581405 133.172975 
L 147.667206 146.53893 
L 148.753007 122.558798 
L 149.838808 114.605279 
L 150.924609 119.899518 
L 152.01041 126.734418 
L 153.096212 125.661206 
L 154.182013 126.954339 
L 155.267814 127.028224 
L 156.353615 126.500745 
L 157.439416 145.23988 
L 158.525217 128.962544 
L 159.611019 147.88803 
L 160.69682 126.848151 
L 161.782621 125.576901 
L 162.868422 134.554567 
L 163.954223 137.571178 
L 165.040024 146.395895 
L 166.125825 129.190526 
L 167.211627 134.230828 
L 168.297428 135.589641 
L 169.383229 123.744482 
L 170.46903 124.714244 
L 171.554831 128.563561 
L 172.640632 108.861691 
L 173.726434 120.624605 
L 174.812235 109.772115 
L 175.898036 105.55528 
L 176.983837 110.36303 
L 178.069638 116.060322 
L 179.155439 113.196743 
L 180.24124 105.759774 
L 181.327042 83.215193 
L 182.412843 114.827366 
L 183.498644 106.260915 
L 184.584445 118.525829 
L 185.670246 99.186976 
L 186.756047 111.776373 
L 187.841849 135.585433 
L 188.92765 121.035141 
L 190.013451 126.05959 
L 191.099252 136.648371 
L 192.185053 130.172203 
L 193.270854 112.656445 
L 194.356656 99.255455 
L 195.442457 112.910844 
L 196.528258 85.817804 
L 197.614059 117.010611 
L 198.69986 103.889245 
L 199.785661 125.144378 
L 200.871462 150.4644 
L 201.957264 139.569851 
L 203.043065 114.561087 
L 204.128866 95.701855 
L 205.214667 113.02334 
L 206.300468 126.286367 
L 207.386269 123.527923 
L 208.472071 112.389935 
L 209.557872 116.940926 
L 210.643673 114.448312 
L 211.729474 108.585955 
L 212.815275 123.834124 
L 213.901076 115.454176 
L 214.986877 131.565753 
L 216.072679 108.212655 
L 217.15848 125.199038 
L 218.244281 99.778148 
L 219.330082 108.394424 
L 220.415883 114.764288 
L 221.501684 124.05045 
L 222.587486 125.481549 
L 223.673287 128.268642 
L 224.759088 127.722516 
L 225.844889 112.871304 
L 226.93069 122.453324 
L 228.016491 126.038732 
L 229.102292 114.599902 
L 230.188094 130.650349 
L 231.273895 133.785582 
L 232.359696 125.064267 
L 233.445497 126.710799 
L 234.531298 108.267491 
L 235.617099 127.398978 
L 236.702901 129.581514 
L 237.788702 105.986136 
L 238.874503 112.389308 
L 239.960304 112.791035 
L 241.046105 127.695179 
L 242.131906 124.575946 
L 243.217708 107.563653 
L 244.303509 112.705886 
L 245.38931 101.426577 
L 246.475111 99.892307 
L 247.560912 110.347681 
L 248.646713 104.123932 
L 249.732514 130.984412 
L 250.818316 121.859752 
L 251.904117 108.942782 
L 252.989918 121.900389 
L 254.075719 123.261216 
L 255.16152 124.292992 
L 256.247321 122.621725 
L 257.333123 106.204783 
L 258.418924 106.421952 
L 259.504725 107.742341 
L 260.590526 104.0281 
L 261.676327 125.15858 
L 262.762128 104.068912 
L 263.847929 95.956618 
L 264.933731 118.214839 
L 266.019532 129.04091 
L 267.105333 117.087082 
L 268.191134 86.137122 
L 269.276935 106.630922 
L 270.362736 139.342682 
L 271.448538 110.085666 
L 272.534339 131.232471 
L 273.62014 109.385585 
L 274.705941 111.286868 
L 275.791742 111.336273 
L 276.877543 111.066995 
L 277.963344 76.273859 
L 279.049146 108.231455 
L 280.134947 126.25811 
L 281.220748 120.453916 
L 282.306549 85.515472 
L 283.39235 103.370486 
L 284.478151 81.249695 
L 285.563953 118.180135 
L 286.649754 82.606192 
L 287.735555 94.986032 
L 288.821356 96.651902 
L 289.907157 83.223375 
L 290.992958 98.458169 
L 292.07876 94.236725 
L 294.250362 117.66198 
L 295.336163 108.951498 
L 296.421964 118.597201 
L 297.507765 104.253629 
L 298.593566 95.112614 
L 299.679368 112.913621 
L 300.765169 96.50274 
L 301.85097 108.250367 
L 302.936771 108.908429 
L 304.022572 106.461016 
L 305.108373 109.259222 
L 306.194175 103.954461 
L 307.279976 99.664753 
L 308.365777 78.800824 
L 309.451578 103.913722 
L 310.537379 102.844431 
L 311.62318 94.436757 
L 312.708981 106.332198 
L 313.794783 109.910416 
L 314.880584 103.270062 
L 315.966385 129.485984 
L 317.052186 93.685952 
L 318.137987 93.609975 
L 319.223788 90.569683 
L 320.30959 73.053381 
L 321.395391 91.653815 
L 322.481192 121.967109 
L 323.566993 89.015314 
L 324.652794 85.257043 
L 325.738595 109.680127 
L 326.824396 88.001099 
L 327.910198 109.885321 
L 328.995999 88.750155 
L 330.0818 96.605914 
L 331.167601 101.808724 
L 332.253402 87.01607 
L 333.339203 104.513316 
L 334.425005 80.407558 
L 335.510806 78.440991 
L 336.596607 93.386381 
L 337.682408 102.381923 
L 338.768209 77.717818 
L 339.85401 94.000092 
L 340.939811 86.832901 
L 342.025613 76.611317 
L 343.111414 78.416031 
L 345.283016 124.686536 
L 346.368817 104.773598 
L 347.454618 94.523867 
L 348.54042 98.602373 
L 349.626221 98.567247 
L 350.712022 92.955253 
L 351.797823 98.473454 
L 352.883624 96.852067 
L 353.969425 78.311092 
L 355.055227 86.674516 
L 356.141028 110.487287 
L 357.226829 102.422728 
L 358.31263 102.503732 
L 359.398431 90.582029 
L 360.484232 92.857705 
L 361.570033 93.129883 
L 362.655835 82.548322 
L 363.741636 88.184315 
L 365.913238 72.981164 
L 366.999039 73.062916 
L 368.08484 62.249866 
L 369.170642 65.596857 
L 370.256443 56.801529 
L 371.342244 94.807065 
L 372.428045 87.174561 
L 373.513846 86.646467 
L 374.599647 81.879719 
L 375.685448 91.425143 
L 376.77125 86.108597 
L 377.857051 77.999932 
L 378.942852 83.206759 
L 380.028653 75.241717 
L 381.114454 82.385765 
L 382.200255 90.692528 
L 383.286057 67.405596 
L 384.371858 96.449376 
L 385.457659 70.8262 
L 386.54346 83.057402 
L 387.629261 80.103545 
L 388.715062 93.466131 
L 389.800863 98.201384 
L 390.886665 98.53253 
L 391.972466 66.691438 
L 393.058267 80.887207 
L 394.144068 106.710983 
L 395.229869 77.865006 
L 396.31567 66.888505 
L 397.401472 89.890429 
L 398.487273 97.6696 
L 398.487273 97.6696 
" style="fill:none;stroke:#008000;stroke-dasharray:9.6,2.4,1.5,2.4;stroke-dashoffset:0;stroke-width:1.5;"/>
   </g>
   <g id="line2d_34">
    <path clip-path="url(#p0b864439bc)" d="M 73.832727 254.51231 
L 74.918528 251.600015 
L 76.00433 245.518041 
L 77.090131 237.808375 
L 78.175932 231.376506 
L 79.261733 207.07247 
L 80.347534 207.077928 
L 81.433335 209.446424 
L 82.519137 213.915486 
L 83.604938 197.800653 
L 84.690739 199.628593 
L 85.77654 196.648633 
L 86.862341 188.15952 
L 87.948142 190.008138 
L 89.033943 186.644398 
L 90.119745 191.223213 
L 91.205546 194.749969 
L 92.291347 187.308219 
L 93.377148 183.959783 
L 94.462949 168.211249 
L 95.54875 172.059382 
L 96.634552 159.353824 
L 97.720353 166.038622 
L 98.806154 173.996336 
L 99.891955 140.501141 
L 100.977756 149.325228 
L 102.063557 155.102595 
L 103.149358 161.49767 
L 104.23516 163.217487 
L 105.320961 145.960272 
L 106.406762 140.330933 
L 107.492563 145.289115 
L 108.578364 151.466407 
L 109.664165 136.879167 
L 110.749967 148.181523 
L 111.835768 150.748171 
L 112.921569 139.434682 
L 114.00737 134.738898 
L 116.178972 144.245634 
L 117.264773 139.809818 
L 118.350575 148.420755 
L 119.436376 137.127932 
L 120.522177 146.176419 
L 121.607978 141.961596 
L 122.693779 131.280611 
L 123.77958 139.678415 
L 124.865382 142.129548 
L 125.951183 139.104717 
L 127.036984 139.959493 
L 128.122785 146.030948 
L 130.294387 140.018344 
L 131.380189 136.794587 
L 132.46599 143.016769 
L 133.551791 135.300987 
L 134.637592 135.099319 
L 135.723393 139.237662 
L 136.809194 120.924961 
L 137.894995 136.571829 
L 138.980797 137.84405 
L 140.066598 131.736391 
L 141.152399 129.892845 
L 142.2382 126.792425 
L 143.324001 135.735601 
L 144.409802 127.198238 
L 145.495604 120.0176 
L 146.581405 130.833799 
L 147.667206 144.751285 
L 148.753007 127.590969 
L 149.838808 125.270104 
L 150.924609 127.934437 
L 152.01041 132.984356 
L 153.096212 140.907594 
L 154.182013 129.08798 
L 156.353615 134.253018 
L 157.439416 150.581295 
L 158.525217 136.493206 
L 159.611019 150.670694 
L 160.69682 133.625087 
L 161.782621 131.087232 
L 162.868422 140.283164 
L 163.954223 138.599517 
L 165.040024 132.47302 
L 166.125825 107.234302 
L 167.211627 107.718761 
L 168.297428 117.380645 
L 169.383229 98.680257 
L 170.46903 94.58267 
L 171.554831 106.886587 
L 172.640632 89.369486 
L 173.726434 115.872727 
L 174.812235 84.492667 
L 175.898036 87.760479 
L 176.983837 92.965287 
L 178.069638 75.031569 
L 179.155439 94.110962 
L 180.24124 77.264713 
L 181.327042 67.619199 
L 182.412843 86.319836 
L 183.498644 80.988846 
L 184.584445 101.748564 
L 185.670246 77.379811 
L 186.756047 68.632267 
L 187.841849 101.978731 
L 188.92765 88.593472 
L 190.013451 101.587781 
L 191.099252 111.811179 
L 192.185053 88.33891 
L 193.270854 82.945689 
L 194.356656 85.147513 
L 195.442457 84.040805 
L 196.528258 55.81096 
L 197.614059 94.223582 
L 198.69986 73.846339 
L 199.785661 114.34086 
L 200.871462 125.696133 
L 201.957264 109.6872 
L 203.043065 101.921623 
L 204.128866 68.171687 
L 205.214667 84.044444 
L 206.300468 93.731172 
L 207.386269 91.052397 
L 208.472071 85.565279 
L 209.557872 96.828017 
L 210.643673 79.389363 
L 211.729474 79.699605 
L 212.815275 91.516642 
L 213.901076 67.130947 
L 214.986877 96.840475 
L 216.072679 88.815473 
L 217.15848 105.304652 
L 218.244281 84.323692 
L 219.330082 89.946495 
L 220.415883 99.370678 
L 221.501684 104.241951 
L 222.587486 93.017569 
L 223.673287 87.918097 
L 224.759088 106.1333 
L 225.844889 84.223045 
L 226.93069 95.736337 
L 228.016491 110.10123 
L 229.102292 90.993002 
L 230.188094 118.158564 
L 231.273895 109.355613 
L 232.359696 87.515152 
L 233.445497 108.512481 
L 234.531298 81.017423 
L 235.617099 115.412047 
L 236.702901 102.234384 
L 237.788702 87.683758 
L 238.874503 91.112408 
L 239.960304 85.279741 
L 241.046105 92.942327 
L 242.131906 97.971097 
L 243.217708 93.701914 
L 244.303509 77.155983 
L 245.38931 78.279805 
L 246.475111 75.871493 
L 247.560912 92.207485 
L 248.646713 79.394044 
L 249.732514 106.929048 
L 250.818316 83.504328 
L 251.904117 89.289218 
L 252.989918 97.648829 
L 254.075719 100.798783 
L 255.16152 101.369806 
L 256.247321 95.265678 
L 257.333123 86.935457 
L 258.418924 95.598298 
L 259.504725 96.370326 
L 260.590526 62.740866 
L 261.676327 105.821561 
L 262.762128 76.921404 
L 263.847929 66.414934 
L 264.933731 105.951057 
L 266.019532 90.955395 
L 267.105333 91.166736 
L 268.191134 77.997974 
L 269.276935 84.977444 
L 270.362736 94.753189 
L 271.448538 80.669011 
L 272.534339 104.09011 
L 273.62014 73.035945 
L 274.705941 89.430302 
L 275.791742 86.998114 
L 276.877543 94.35214 
L 277.963344 63.660126 
L 279.049146 91.97002 
L 280.134947 100.323403 
L 281.220748 94.562117 
L 282.306549 78.480398 
L 283.39235 69.477824 
L 284.478151 69.178383 
L 285.563953 101.394483 
L 286.649754 63.537723 
L 287.735555 79.132369 
L 288.821356 74.471453 
L 289.907157 80.035939 
L 290.992958 76.810634 
L 292.07876 60.879841 
L 293.164561 68.953309 
L 294.250362 99.140719 
L 295.336163 81.98315 
L 296.421964 105.967498 
L 298.593566 64.391175 
L 299.679368 81.12151 
L 300.765169 72.435077 
L 301.85097 71.914272 
L 302.936771 76.864143 
L 305.108373 84.721094 
L 306.194175 67.271754 
L 307.279976 71.360868 
L 308.365777 66.333174 
L 309.451578 67.832329 
L 310.537379 81.573324 
L 311.62318 71.1416 
L 312.708981 76.000561 
L 313.794783 82.555289 
L 314.880584 77.366266 
L 315.966385 110.538618 
L 317.052186 83.955363 
L 319.223788 79.071924 
L 320.30959 63.523453 
L 321.395391 75.642565 
L 322.481192 92.778478 
L 323.566993 65.898229 
L 324.652794 68.217918 
L 325.738595 87.250471 
L 326.824396 66.437512 
L 327.910198 81.415969 
L 328.995999 70.981061 
L 330.0818 80.177691 
L 331.167601 72.150079 
L 332.253402 75.004529 
L 333.339203 84.728765 
L 334.425005 68.559401 
L 335.510806 61.292597 
L 336.596607 83.115107 
L 337.682408 81.141374 
L 338.768209 64.28893 
L 339.85401 83.441861 
L 340.939811 76.221566 
L 342.025613 61.527989 
L 343.111414 53.568 
L 345.283016 111.912571 
L 346.368817 67.48957 
L 347.454618 80.751495 
L 348.54042 89.379602 
L 349.626221 77.66417 
L 350.712022 87.979672 
L 351.797823 68.284611 
L 352.883624 85.094456 
L 353.969425 70.039736 
L 355.055227 73.200186 
L 356.141028 104.16085 
L 357.226829 92.016035 
L 358.31263 87.187498 
L 359.398431 79.185957 
L 360.484232 56.235647 
L 361.570033 77.102437 
L 362.655835 69.363589 
L 363.741636 69.756071 
L 364.827437 74.878023 
L 365.913238 58.817022 
L 366.999039 65.779815 
L 368.08484 63.173083 
L 369.170642 72.960753 
L 370.256443 59.432064 
L 371.342244 78.336647 
L 372.428045 72.814191 
L 373.513846 87.762806 
L 374.599647 73.909317 
L 375.685448 81.834285 
L 376.77125 94.154503 
L 377.857051 76.10005 
L 378.942852 88.148382 
L 380.028653 75.403982 
L 381.114454 84.045125 
L 382.200255 85.281181 
L 383.286057 61.747929 
L 384.371858 69.06107 
L 385.457659 74.451899 
L 386.54346 68.346936 
L 387.629261 58.810949 
L 388.715062 71.12336 
L 389.800863 72.695284 
L 390.886665 86.713408 
L 391.972466 61.535462 
L 394.144068 79.109677 
L 395.229869 61.71542 
L 396.31567 64.602611 
L 397.401472 72.893461 
L 398.487273 83.351274 
L 398.487273 83.351274 
" style="fill:none;stroke:#ff0000;stroke-linecap:square;stroke-width:1.5;"/>
   </g>
   <g id="patch_3">
    <path d="M 57.6 307.584 
L 57.6 41.472 
" style="fill:none;stroke:#000000;stroke-linecap:square;stroke-linejoin:miter;stroke-width:0.8;"/>
   </g>
   <g id="patch_4">
    <path d="M 414.72 307.584 
L 414.72 41.472 
" style="fill:none;stroke:#000000;stroke-linecap:square;stroke-linejoin:miter;stroke-width:0.8;"/>
   </g>
   <g id="patch_5">
    <path d="M 57.6 307.584 
L 414.72 307.584 
" style="fill:none;stroke:#000000;stroke-linecap:square;stroke-linejoin:miter;stroke-width:0.8;"/>
   </g>
   <g id="patch_6">
    <path d="M 57.6 41.472 
L 414.72 41.472 
" style="fill:none;stroke:#000000;stroke-linecap:square;stroke-linejoin:miter;stroke-width:0.8;"/>
   </g>
   <g id="text_18">
    <!-- Population's average and best fitness -->
    <defs>
     <path d="M 19.671875 64.796875 
L 19.671875 37.40625 
L 32.078125 37.40625 
Q 38.96875 37.40625 42.71875 40.96875 
Q 46.484375 44.53125 46.484375 51.125 
Q 46.484375 57.671875 42.71875 61.234375 
Q 38.96875 64.796875 32.078125 64.796875 
z
M 9.8125 72.90625 
L 32.078125 72.90625 
Q 44.34375 72.90625 50.609375 67.359375 
Q 56.890625 61.8125 56.890625 51.125 
Q 56.890625 40.328125 50.609375 34.8125 
Q 44.34375 29.296875 32.078125 29.296875 
L 19.671875 29.296875 
L 19.671875 0 
L 9.8125 0 
z
" id="DejaVuSans-80"/>
     <path d="M 18.109375 8.203125 
L 18.109375 -20.796875 
L 9.078125 -20.796875 
L 9.078125 54.6875 
L 18.109375 54.6875 
L 18.109375 46.390625 
Q 20.953125 51.265625 25.265625 53.625 
Q 29.59375 56 35.59375 56 
Q 45.5625 56 51.78125 48.09375 
Q 58.015625 40.1875 58.015625 27.296875 
Q 58.015625 14.40625 51.78125 6.484375 
Q 45.5625 -1.421875 35.59375 -1.421875 
Q 29.59375 -1.421875 25.265625 0.953125 
Q 20.953125 3.328125 18.109375 8.203125 
z
M 48.6875 27.296875 
Q 48.6875 37.203125 44.609375 42.84375 
Q 40.53125 48.484375 33.40625 48.484375 
Q 26.265625 48.484375 22.1875 42.84375 
Q 18.109375 37.203125 18.109375 27.296875 
Q 18.109375 17.390625 22.1875 11.75 
Q 26.265625 6.109375 33.40625 6.109375 
Q 40.53125 6.109375 44.609375 11.75 
Q 48.6875 17.390625 48.6875 27.296875 
z
" id="DejaVuSans-112"/>
     <path d="M 8.5 21.578125 
L 8.5 54.6875 
L 17.484375 54.6875 
L 17.484375 21.921875 
Q 17.484375 14.15625 20.5 10.265625 
Q 23.53125 6.390625 29.59375 6.390625 
Q 36.859375 6.390625 41.078125 11.03125 
Q 45.3125 15.671875 45.3125 23.6875 
L 45.3125 54.6875 
L 54.296875 54.6875 
L 54.296875 0 
L 45.3125 0 
L 45.3125 8.40625 
Q 42.046875 3.421875 37.71875 1 
Q 33.40625 -1.421875 27.6875 -1.421875 
Q 18.265625 -1.421875 13.375 4.4375 
Q 8.5 10.296875 8.5 21.578125 
z
M 31.109375 56 
z
" id="DejaVuSans-117"/>
     <path d="M 9.421875 75.984375 
L 18.40625 75.984375 
L 18.40625 0 
L 9.421875 0 
z
" id="DejaVuSans-108"/>
     <path d="M 17.921875 72.90625 
L 17.921875 45.796875 
L 9.625 45.796875 
L 9.625 72.90625 
z
" id="DejaVuSans-39"/>
     <path id="DejaVuSans-32"/>
     <path d="M 2.984375 54.6875 
L 12.5 54.6875 
L 29.59375 8.796875 
L 46.6875 54.6875 
L 56.203125 54.6875 
L 35.6875 0 
L 23.484375 0 
z
" id="DejaVuSans-118"/>
     <path d="M 45.40625 27.984375 
Q 45.40625 37.75 41.375 43.109375 
Q 37.359375 48.484375 30.078125 48.484375 
Q 22.859375 48.484375 18.828125 43.109375 
Q 14.796875 37.75 14.796875 27.984375 
Q 14.796875 18.265625 18.828125 12.890625 
Q 22.859375 7.515625 30.078125 7.515625 
Q 37.359375 7.515625 41.375 12.890625 
Q 45.40625 18.265625 45.40625 27.984375 
z
M 54.390625 6.78125 
Q 54.390625 -7.171875 48.1875 -13.984375 
Q 42 -20.796875 29.203125 -20.796875 
Q 24.46875 -20.796875 20.265625 -20.09375 
Q 16.0625 -19.390625 12.109375 -17.921875 
L 12.109375 -9.1875 
Q 16.0625 -11.328125 19.921875 -12.34375 
Q 23.78125 -13.375 27.78125 -13.375 
Q 36.625 -13.375 41.015625 -8.765625 
Q 45.40625 -4.15625 45.40625 5.171875 
L 45.40625 9.625 
Q 42.625 4.78125 38.28125 2.390625 
Q 33.9375 0 27.875 0 
Q 17.828125 0 11.671875 7.65625 
Q 5.515625 15.328125 5.515625 27.984375 
Q 5.515625 40.671875 11.671875 48.328125 
Q 17.828125 56 27.875 56 
Q 33.9375 56 38.28125 53.609375 
Q 42.625 51.21875 45.40625 46.390625 
L 45.40625 54.6875 
L 54.390625 54.6875 
z
" id="DejaVuSans-103"/>
     <path d="M 45.40625 46.390625 
L 45.40625 75.984375 
L 54.390625 75.984375 
L 54.390625 0 
L 45.40625 0 
L 45.40625 8.203125 
Q 42.578125 3.328125 38.25 0.953125 
Q 33.9375 -1.421875 27.875 -1.421875 
Q 17.96875 -1.421875 11.734375 6.484375 
Q 5.515625 14.40625 5.515625 27.296875 
Q 5.515625 40.1875 11.734375 48.09375 
Q 17.96875 56 27.875 56 
Q 33.9375 56 38.25 53.625 
Q 42.578125 51.265625 45.40625 46.390625 
z
M 14.796875 27.296875 
Q 14.796875 17.390625 18.875 11.75 
Q 22.953125 6.109375 30.078125 6.109375 
Q 37.203125 6.109375 41.296875 11.75 
Q 45.40625 17.390625 45.40625 27.296875 
Q 45.40625 37.203125 41.296875 42.84375 
Q 37.203125 48.484375 30.078125 48.484375 
Q 22.953125 48.484375 18.875 42.84375 
Q 14.796875 37.203125 14.796875 27.296875 
z
" id="DejaVuSans-100"/>
     <path d="M 48.6875 27.296875 
Q 48.6875 37.203125 44.609375 42.84375 
Q 40.53125 48.484375 33.40625 48.484375 
Q 26.265625 48.484375 22.1875 42.84375 
Q 18.109375 37.203125 18.109375 27.296875 
Q 18.109375 17.390625 22.1875 11.75 
Q 26.265625 6.109375 33.40625 6.109375 
Q 40.53125 6.109375 44.609375 11.75 
Q 48.6875 17.390625 48.6875 27.296875 
z
M 18.109375 46.390625 
Q 20.953125 51.265625 25.265625 53.625 
Q 29.59375 56 35.59375 56 
Q 45.5625 56 51.78125 48.09375 
Q 58.015625 40.1875 58.015625 27.296875 
Q 58.015625 14.40625 51.78125 6.484375 
Q 45.5625 -1.421875 35.59375 -1.421875 
Q 29.59375 -1.421875 25.265625 0.953125 
Q 20.953125 3.328125 18.109375 8.203125 
L 18.109375 0 
L 9.078125 0 
L 9.078125 75.984375 
L 18.109375 75.984375 
z
" id="DejaVuSans-98"/>
     <path d="M 37.109375 75.984375 
L 37.109375 68.5 
L 28.515625 68.5 
Q 23.6875 68.5 21.796875 66.546875 
Q 19.921875 64.59375 19.921875 59.515625 
L 19.921875 54.6875 
L 34.71875 54.6875 
L 34.71875 47.703125 
L 19.921875 47.703125 
L 19.921875 0 
L 10.890625 0 
L 10.890625 47.703125 
L 2.296875 47.703125 
L 2.296875 54.6875 
L 10.890625 54.6875 
L 10.890625 58.5 
Q 10.890625 67.625 15.140625 71.796875 
Q 19.390625 75.984375 28.609375 75.984375 
z
" id="DejaVuSans-102"/>
    </defs>
    <g transform="translate(123.315 35.472)scale(0.12 -0.12)">
     <use xlink:href="#DejaVuSans-80"/>
     <use x="60.255859" xlink:href="#DejaVuSans-111"/>
     <use x="121.4375" xlink:href="#DejaVuSans-112"/>
     <use x="184.914062" xlink:href="#DejaVuSans-117"/>
     <use x="248.292969" xlink:href="#DejaVuSans-108"/>
     <use x="276.076172" xlink:href="#DejaVuSans-97"/>
     <use x="337.355469" xlink:href="#DejaVuSans-116"/>
     <use x="376.564453" xlink:href="#DejaVuSans-105"/>
     <use x="404.347656" xlink:href="#DejaVuSans-111"/>
     <use x="465.529297" xlink:href="#DejaVuSans-110"/>
     <use x="528.908203" xlink:href="#DejaVuSans-39"/>
     <use x="556.398438" xlink:href="#DejaVuSans-115"/>
     <use x="608.498047" xlink:href="#DejaVuSans-32"/>
     <use x="640.285156" xlink:href="#DejaVuSans-97"/>
     <use x="701.564453" xlink:href="#DejaVuSans-118"/>
     <use x="760.744141" xlink:href="#DejaVuSans-101"/>
     <use x="822.267578" xlink:href="#DejaVuSans-114"/>
     <use x="863.380859" xlink:href="#DejaVuSans-97"/>
     <use x="924.660156" xlink:href="#DejaVuSans-103"/>
     <use x="988.136719" xlink:href="#DejaVuSans-101"/>
     <use x="1049.660156" xlink:href="#DejaVuSans-32"/>
     <use x="1081.447266" xlink:href="#DejaVuSans-97"/>
     <use x="1142.726562" xlink:href="#DejaVuSans-110"/>
     <use x="1206.105469" xlink:href="#DejaVuSans-100"/>
     <use x="1269.582031" xlink:href="#DejaVuSans-32"/>
     <use x="1301.369141" xlink:href="#DejaVuSans-98"/>
     <use x="1364.845703" xlink:href="#DejaVuSans-101"/>
     <use x="1426.369141" xlink:href="#DejaVuSans-115"/>
     <use x="1478.46875" xlink:href="#DejaVuSans-116"/>
     <use x="1517.677734" xlink:href="#DejaVuSans-32"/>
     <use x="1549.464844" xlink:href="#DejaVuSans-102"/>
     <use x="1584.669922" xlink:href="#DejaVuSans-105"/>
     <use x="1612.453125" xlink:href="#DejaVuSans-116"/>
     <use x="1651.662109" xlink:href="#DejaVuSans-110"/>
     <use x="1715.041016" xlink:href="#DejaVuSans-101"/>
     <use x="1776.564453" xlink:href="#DejaVuSans-115"/>
     <use x="1828.664062" xlink:href="#DejaVuSans-115"/>
    </g>
   </g>
   <g id="legend_1">
    <g id="patch_7">
     <path d="M 64.6 108.1845 
L 137.540625 108.1845 
Q 139.540625 108.1845 139.540625 106.1845 
L 139.540625 48.472 
Q 139.540625 46.472 137.540625 46.472 
L 64.6 46.472 
Q 62.6 46.472 62.6 48.472 
L 62.6 106.1845 
Q 62.6 108.1845 64.6 108.1845 
z
" style="fill:#ffffff;opacity:0.8;stroke:#cccccc;stroke-linejoin:miter;"/>
    </g>
    <g id="line2d_35">
     <path d="M 66.6 54.570438 
L 86.6 54.570438 
" style="fill:none;stroke:#0000ff;stroke-linecap:square;stroke-width:1.5;"/>
    </g>
    <g id="line2d_36"/>
    <g id="text_19">
     <!-- average -->
     <g transform="translate(94.6 58.070438)scale(0.1 -0.1)">
      <use xlink:href="#DejaVuSans-97"/>
      <use x="61.279297" xlink:href="#DejaVuSans-118"/>
      <use x="120.458984" xlink:href="#DejaVuSans-101"/>
      <use x="181.982422" xlink:href="#DejaVuSans-114"/>
      <use x="223.095703" xlink:href="#DejaVuSans-97"/>
      <use x="284.375" xlink:href="#DejaVuSans-103"/>
      <use x="347.851562" xlink:href="#DejaVuSans-101"/>
     </g>
    </g>
    <g id="line2d_37">
     <path d="M 66.6 69.248563 
L 86.6 69.248563 
" style="fill:none;stroke:#008000;stroke-dasharray:9.6,2.4,1.5,2.4;stroke-dashoffset:0;stroke-width:1.5;"/>
    </g>
    <g id="line2d_38"/>
    <g id="text_20">
     <!-- -1 sd -->
     <defs>
      <path d="M 4.890625 31.390625 
L 31.203125 31.390625 
L 31.203125 23.390625 
L 4.890625 23.390625 
z
" id="DejaVuSans-45"/>
     </defs>
     <g transform="translate(94.6 72.748563)scale(0.1 -0.1)">
      <use xlink:href="#DejaVuSans-45"/>
      <use x="36.083984" xlink:href="#DejaVuSans-49"/>
      <use x="99.707031" xlink:href="#DejaVuSans-32"/>
      <use x="131.494141" xlink:href="#DejaVuSans-115"/>
      <use x="183.59375" xlink:href="#DejaVuSans-100"/>
     </g>
    </g>
    <g id="line2d_39">
     <path d="M 66.6 83.926688 
L 86.6 83.926688 
" style="fill:none;stroke:#008000;stroke-dasharray:9.6,2.4,1.5,2.4;stroke-dashoffset:0;stroke-width:1.5;"/>
    </g>
    <g id="line2d_40"/>
    <g id="text_21">
     <!-- +1 sd -->
     <defs>
      <path d="M 46 62.703125 
L 46 35.5 
L 73.1875 35.5 
L 73.1875 27.203125 
L 46 27.203125 
L 46 0 
L 37.796875 0 
L 37.796875 27.203125 
L 10.59375 27.203125 
L 10.59375 35.5 
L 37.796875 35.5 
L 37.796875 62.703125 
z
" id="DejaVuSans-43"/>
     </defs>
     <g transform="translate(94.6 87.426688)scale(0.1 -0.1)">
      <use xlink:href="#DejaVuSans-43"/>
      <use x="83.789062" xlink:href="#DejaVuSans-49"/>
      <use x="147.412109" xlink:href="#DejaVuSans-32"/>
      <use x="179.199219" xlink:href="#DejaVuSans-115"/>
      <use x="231.298828" xlink:href="#DejaVuSans-100"/>
     </g>
    </g>
    <g id="line2d_41">
     <path d="M 66.6 98.604813 
L 86.6 98.604813 
" style="fill:none;stroke:#ff0000;stroke-linecap:square;stroke-width:1.5;"/>
    </g>
    <g id="line2d_42"/>
    <g id="text_22">
     <!-- best -->
     <g transform="translate(94.6 102.104813)scale(0.1 -0.1)">
      <use xlink:href="#DejaVuSans-98"/>
      <use x="63.476562" xlink:href="#DejaVuSans-101"/>
      <use x="125" xlink:href="#DejaVuSans-115"/>
      <use x="177.099609" xlink:href="#DejaVuSans-116"/>
     </g>
    </g>
   </g>
  </g>
 </g>
 <defs>
  <clipPath id="p0b864439bc">
   <rect height="266.112" width="357.12" x="57.6" y="41.472"/>
  </clipPath>
 </defs>
</svg>
