<?xml version="1.0" encoding="UTF-8" standalone="no"?>
<!DOCTYPE svg PUBLIC "-//W3C//DTD SVG 1.1//EN"
 "http://www.w3.org/Graphics/SVG/1.1/DTD/svg11.dtd">
<!-- Generated by graphviz version 2.40.1 (20161225.0304)
 -->
<!-- Title: %3 Pages: 1 -->
<svg width="490pt" height="182pt"
 viewBox="0.00 0.00 490.42 181.85" xmlns="http://www.w3.org/2000/svg" xmlns:xlink="http://www.w3.org/1999/xlink">
<g id="graph0" class="graph" transform="scale(1 1) rotate(0) translate(4 177.8494)">
<title>%3</title>
<polygon fill="#ffffff" stroke="transparent" points="-4,4 -4,-177.8494 486.4247,-177.8494 486.4247,4 -4,4"/>
<!-- 0 -->
<g id="node1" class="node">
<title>0</title>
<polygon fill="#d3d3d3" stroke="#000000" points="214.0476,-173.8494 194.0357,-173.8494 194.0357,-156.8494 214.0476,-156.8494 214.0476,-173.8494"/>
<text text-anchor="middle" x="204.0416" y="-162.6494" font-family="Times,serif" font-size="9.00" fill="#000000">0</text>
</g>
<!-- 1 -->
<g id="node2" class="node">
<title>1</title>
<polygon fill="#d3d3d3" stroke="#000000" points="271.0476,-173.8494 251.0357,-173.8494 251.0357,-156.8494 271.0476,-156.8494 271.0476,-173.8494"/>
<text text-anchor="middle" x="261.0416" y="-162.6494" font-family="Times,serif" font-size="9.00" fill="#000000">1</text>
</g>
<!-- 0&#45;&gt;1 -->
<!-- E2 -->
<g id="node6" class="node">
<title>E2</title>
<ellipse fill="#87cefa" stroke="#000000" cx="134.0416" cy="-18.383" rx="18.2668" ry="18.2668"/>
<text text-anchor="middle" x="134.0416" y="-15.683" font-family="Times,serif" font-size="9.00" fill="#000000">E2</text>
</g>
<!-- 0&#45;&gt;E2 -->
<g id="edge15" class="edge">
<title>0&#45;&gt;E2</title>
<path fill="none" stroke="#00ff00" stroke-width=".6025" d="M201.132,-156.7191C195.4125,-140.1011 181.9566,-102.6592 167.0416,-72.7661 161.9385,-62.5382 155.5677,-51.6913 149.7883,-42.3977"/>
<polygon fill="#00ff00" stroke="#00ff00" stroke-width=".6025" points="152.5858,-40.2736 144.275,-33.7023 146.674,-44.022 152.5858,-40.2736"/>
</g>
<!-- E4 -->
<g id="node8" class="node">
<title>E4</title>
<ellipse fill="#87cefa" stroke="#000000" cx="244.0416" cy="-18.383" rx="18.2668" ry="18.2668"/>
<text text-anchor="middle" x="244.0416" y="-15.683" font-family="Times,serif" font-size="9.00" fill="#000000">E4</text>
</g>
<!-- 0&#45;&gt;E4 -->
<g id="edge11" class="edge">
<title>0&#45;&gt;E4</title>
<path fill="none" stroke="#ff0000" stroke-width="1.3113" d="M206.424,-156.5961C212.216,-135.3154 227.2348,-80.1341 236.448,-46.2832"/>
<polygon fill="#ff0000" stroke="#ff0000" stroke-width="1.3113" points="239.8552,-47.0919 239.1043,-36.5237 233.1009,-45.2535 239.8552,-47.0919"/>
</g>
<!-- 5299 -->
<g id="node15" class="node">
<title>5299</title>
<ellipse fill="#add8e6" stroke="#000000" cx="134.0416" cy="-96.8077" rx="24.0833" ry="24.0833"/>
<text text-anchor="middle" x="134.0416" y="-98.6077" font-family="Times,serif" font-size="9.00" fill="#000000">5299</text>
<text text-anchor="middle" x="134.0416" y="-89.6077" font-family="Times,serif" font-size="9.00" fill="#000000">sigm</text>
</g>
<!-- 0&#45;&gt;5299 -->
<g id="edge19" class="edge">
<title>0&#45;&gt;5299</title>
<path fill="none" stroke="#00ff00" stroke-width=".5632" d="M195.1761,-156.6685C186.0116,-147.6949 171.293,-133.283 158.5943,-120.8489"/>
<polygon fill="#00ff00" stroke="#00ff00" stroke-width=".5632" points="161.0021,-118.308 151.4082,-113.8125 156.1047,-123.3096 161.0021,-118.308"/>
</g>
<!-- 2 -->
<g id="node3" class="node">
<title>2</title>
<polygon fill="#d3d3d3" stroke="#000000" points="310.0476,-173.8494 290.0357,-173.8494 290.0357,-156.8494 310.0476,-156.8494 310.0476,-173.8494"/>
<text text-anchor="middle" x="300.0416" y="-162.6494" font-family="Times,serif" font-size="9.00" fill="#000000">2</text>
</g>
<!-- 1&#45;&gt;2 -->
<!-- E7 -->
<g id="node11" class="node">
<title>E7</title>
<ellipse fill="#87cefa" stroke="#000000" cx="409.0416" cy="-18.383" rx="18.2668" ry="18.2668"/>
<text text-anchor="middle" x="409.0416" y="-15.683" font-family="Times,serif" font-size="9.00" fill="#000000">E7</text>
</g>
<!-- 1&#45;&gt;E7 -->
<g id="edge14" class="edge">
<title>1&#45;&gt;E7</title>
<path fill="none" stroke="#ff0000" stroke-width="3.146" d="M269.8565,-156.5961C293.0162,-133.5981 356.0468,-71.0077 388.7487,-38.5342"/>
<polygon fill="#ff0000" stroke="#ff0000" stroke-width="3.146" points="391.3632,-40.8706 395.9928,-31.3407 386.4308,-35.9035 391.3632,-40.8706"/>
</g>
<!-- E1 -->
<g id="node5" class="node">
<title>E1</title>
<ellipse fill="#87cefa" stroke="#000000" cx="79.0416" cy="-18.383" rx="18.2668" ry="18.2668"/>
<text text-anchor="middle" x="79.0416" y="-15.683" font-family="Times,serif" font-size="9.00" fill="#000000">E1</text>
</g>
<!-- 2&#45;&gt;E1 -->
<g id="edge18" class="edge">
<title>2&#45;&gt;E1</title>
<path fill="none" stroke="#ff0000" stroke-width=".1607" d="M289.8563,-157.9055C267.7954,-141.8615 213.8112,-103.0262 167.0416,-72.7661 140.9317,-55.8728 133.3785,-53.3033 107.0416,-36.7661 105.7489,-35.9544 104.4268,-35.1158 103.0951,-34.2645"/>
<polygon fill="#ff0000" stroke="#ff0000" stroke-width=".1607" points="104.6685,-31.1133 94.3738,-28.6096 100.8602,-36.9867 104.6685,-31.1133"/>
</g>
<!-- E5 -->
<g id="node9" class="node">
<title>E5</title>
<ellipse fill="#87cefa" stroke="#000000" cx="299.0416" cy="-18.383" rx="18.2668" ry="18.2668"/>
<text text-anchor="middle" x="299.0416" y="-15.683" font-family="Times,serif" font-size="9.00" fill="#000000">E5</text>
</g>
<!-- 2&#45;&gt;E5 -->
<g id="edge13" class="edge">
<title>2&#45;&gt;E5</title>
<path fill="none" stroke="#00ff00" stroke-width="3.1967" d="M299.9821,-156.5961C299.8383,-135.4629 299.467,-80.8974 299.2363,-46.9901"/>
<polygon fill="#00ff00" stroke="#00ff00" stroke-width="3.1967" points="302.7348,-46.7516 299.1668,-36.7757 295.735,-46.7993 302.7348,-46.7516"/>
</g>
<!-- E6 -->
<g id="node10" class="node">
<title>E6</title>
<ellipse fill="#87cefa" stroke="#000000" cx="354.0416" cy="-18.383" rx="18.2668" ry="18.2668"/>
<text text-anchor="middle" x="354.0416" y="-15.683" font-family="Times,serif" font-size="9.00" fill="#000000">E6</text>
</g>
<!-- 2&#45;&gt;E6 -->
<g id="edge12" class="edge">
<title>2&#45;&gt;E6</title>
<path fill="none" stroke="#ff0000" stroke-width="4.3973" d="M303.2579,-156.5961C311.1182,-135.2034 331.5661,-79.5523 343.986,-45.7505"/>
<polygon fill="#ff0000" stroke="#ff0000" stroke-width="4.3973" points="347.7225,-46.7374 347.5598,-36.0239 340.4994,-44.0833 347.7225,-46.7374"/>
</g>
<!-- E0 -->
<g id="node4" class="node">
<title>E0</title>
<ellipse fill="#87cefa" stroke="#000000" cx="24.0416" cy="-18.383" rx="18.2668" ry="18.2668"/>
<text text-anchor="middle" x="24.0416" y="-15.683" font-family="Times,serif" font-size="9.00" fill="#000000">E0</text>
</g>
<!-- E0&#45;&gt;E1 -->
<!-- E1&#45;&gt;E2 -->
<!-- E3 -->
<g id="node7" class="node">
<title>E3</title>
<ellipse fill="#87cefa" stroke="#000000" cx="189.0416" cy="-18.383" rx="18.2668" ry="18.2668"/>
<text text-anchor="middle" x="189.0416" y="-15.683" font-family="Times,serif" font-size="9.00" fill="#000000">E3</text>
</g>
<!-- E2&#45;&gt;E3 -->
<!-- E3&#45;&gt;E4 -->
<!-- E4&#45;&gt;E5 -->
<!-- E5&#45;&gt;E6 -->
<!-- E6&#45;&gt;E7 -->
<!-- E8 -->
<g id="node12" class="node">
<title>E8</title>
<ellipse fill="#87cefa" stroke="#000000" cx="464.0416" cy="-18.383" rx="18.2668" ry="18.2668"/>
<text text-anchor="middle" x="464.0416" y="-15.683" font-family="Times,serif" font-size="9.00" fill="#000000">E8</text>
</g>
<!-- E7&#45;&gt;E8 -->
<!-- 3691 -->
<g id="node13" class="node">
<title>3691</title>
<ellipse fill="#add8e6" stroke="#000000" cx="456.0416" cy="-96.8077" rx="24.0833" ry="24.0833"/>
<text text-anchor="middle" x="456.0416" y="-98.6077" font-family="Times,serif" font-size="9.00" fill="#000000">3691</text>
<text text-anchor="middle" x="456.0416" y="-89.6077" font-family="Times,serif" font-size="9.00" fill="#000000">sigm</text>
</g>
<!-- 3691&#45;&gt;E1 -->
<g id="edge17" class="edge">
<title>3691&#45;&gt;E1</title>
<path fill="none" stroke="#00ff00" stroke-width=".3524" d="M432.103,-93.9828C363.4696,-85.6805 167.0943,-60.4505 107.0416,-36.7661 105.6216,-36.206 104.1984,-35.5676 102.7876,-34.8726"/>
<polygon fill="#00ff00" stroke="#00ff00" stroke-width=".3524" points="104.2331,-31.6659 93.8222,-29.7002 100.735,-37.7292 104.2331,-31.6659"/>
</g>
<!-- 3691&#45;&gt;E8 -->
<g id="edge16" class="edge">
<title>3691&#45;&gt;E8</title>
<path fill="none" stroke="#00ff00" stroke-width=".1543" d="M458.4854,-72.8516C459.3125,-64.7434 460.2447,-55.6042 461.106,-47.161"/>
<polygon fill="#00ff00" stroke="#00ff00" stroke-width=".1543" points="464.6128,-47.2722 462.1457,-36.9686 457.6489,-46.5618 464.6128,-47.2722"/>
</g>
<!-- 4748 -->
<g id="node14" class="node">
<title>4748</title>
<ellipse fill="#add8e6" stroke="#000000" cx="24.0416" cy="-96.8077" rx="24.0833" ry="24.0833"/>
<text text-anchor="middle" x="24.0416" y="-98.6077" font-family="Times,serif" font-size="9.00" fill="#000000">4748</text>
<text text-anchor="middle" x="24.0416" y="-89.6077" font-family="Times,serif" font-size="9.00" fill="#000000">sigm</text>
</g>
<!-- 4748&#45;&gt;E0 -->
<g id="edge21" class="edge">
<title>4748&#45;&gt;E0</title>
<path fill="none" stroke="#ff0000" stroke-width=".5964" d="M24.0416,-72.4236C24.0416,-64.33 24.0416,-55.248 24.0416,-46.8729"/>
<polygon fill="#ff0000" stroke="#ff0000" stroke-width=".5964" points="27.5417,-46.7701 24.0416,-36.7702 20.5417,-46.7702 27.5417,-46.7701"/>
</g>
<!-- 5299&#45;&gt;E2 -->
<g id="edge20" class="edge">
<title>5299&#45;&gt;E2</title>
<path fill="none" stroke="#00ff00" stroke-width=".3" d="M134.0416,-72.4236C134.0416,-64.33 134.0416,-55.248 134.0416,-46.8729"/>
<polygon fill="#00ff00" stroke="#00ff00" stroke-width=".3" points="137.5417,-46.7701 134.0416,-36.7702 130.5417,-46.7702 137.5417,-46.7701"/>
</g>
</g>
</svg>
