<?xml version="1.0" encoding="UTF-8" standalone="no"?>
<!DOCTYPE svg PUBLIC "-//W3C//DTD SVG 1.1//EN"
 "http://www.w3.org/Graphics/SVG/1.1/DTD/svg11.dtd">
<!-- Generated by graphviz version 2.40.1 (20161225.0304)
 -->
<!-- Title: %3 Pages: 1 -->
<svg width="679pt" height="266pt"
 viewBox="0.00 0.00 678.52 265.93" xmlns="http://www.w3.org/2000/svg" xmlns:xlink="http://www.w3.org/1999/xlink">
<g id="graph0" class="graph" transform="scale(1 1) rotate(0) translate(4 261.9326)">
<title>%3</title>
<polygon fill="#ffffff" stroke="transparent" points="-4,4 -4,-261.9326 674.5175,-261.9326 674.5175,4 -4,4"/>
<!-- 0 -->
<g id="node1" class="node">
<title>0</title>
<polygon fill="#d3d3d3" stroke="#000000" points="66.0476,-257.9326 46.0357,-257.9326 46.0357,-240.9326 66.0476,-240.9326 66.0476,-257.9326"/>
<text text-anchor="middle" x="56.0416" y="-246.7326" font-family="Times,serif" font-size="9.00" fill="#000000">0</text>
</g>
<!-- 1 -->
<g id="node2" class="node">
<title>1</title>
<polygon fill="#d3d3d3" stroke="#000000" points="108.0476,-257.9326 88.0357,-257.9326 88.0357,-240.9326 108.0476,-240.9326 108.0476,-257.9326"/>
<text text-anchor="middle" x="98.0416" y="-246.7326" font-family="Times,serif" font-size="9.00" fill="#000000">1</text>
</g>
<!-- 0&#45;&gt;1 -->
<!-- E8 -->
<g id="node12" class="node">
<title>E8</title>
<ellipse fill="#ffa07a" stroke="#000000" cx="635.0416" cy="-18.383" rx="18.2668" ry="18.2668"/>
<text text-anchor="middle" x="635.0416" y="-15.683" font-family="Times,serif" font-size="9.00" fill="#000000">E8</text>
</g>
<!-- 0&#45;&gt;E8 -->
<g id="edge11" class="edge">
<title>0&#45;&gt;E8</title>
<path fill="none" stroke="#00ff00" stroke-width="2.0301" d="M66.1572,-244.971C70.1023,-243.4242 74.7103,-241.8494 79.0416,-240.9326 141.0171,-227.8143 604.6847,-251.1194 648.0416,-204.9326 688.805,-161.5086 664.4693,-84.5213 647.4028,-44.3743"/>
<polygon fill="#00ff00" stroke="#00ff00" stroke-width="2.0301" points="650.5062,-42.7377 643.2645,-35.004 644.1028,-45.5657 650.5062,-42.7377"/>
</g>
<!-- 4367 -->
<g id="node14" class="node">
<title>4367</title>
<ellipse fill="#add8e6" stroke="#000000" cx="24.0416" cy="-96.8077" rx="24.0833" ry="24.0833"/>
<text text-anchor="middle" x="24.0416" y="-98.6077" font-family="Times,serif" font-size="9.00" fill="#000000">4367</text>
<text text-anchor="middle" x="24.0416" y="-89.6077" font-family="Times,serif" font-size="9.00" fill="#000000">sigm</text>
</g>
<!-- 0&#45;&gt;4367 -->
<g id="edge17" class="edge">
<title>0&#45;&gt;4367</title>
<path fill="none" stroke="#00ff00" stroke-width=".3478" d="M51.219,-240.8681C46.5305,-232.1209 39.6101,-218.0065 36.0416,-204.9326 29.4898,-180.9287 26.5033,-152.9955 25.1478,-131.5343"/>
<polygon fill="#00ff00" stroke="#00ff00" stroke-width=".3478" points="28.6272,-131.057 24.5911,-121.2611 21.6374,-131.4358 28.6272,-131.057"/>
</g>
<!-- 3401 -->
<g id="node23" class="node">
<title>3401</title>
<ellipse fill="none" stroke="#000000" cx="140.0416" cy="-96.8077" rx="24.0833" ry="24.0833"/>
<text text-anchor="middle" x="140.0416" y="-94.1077" font-family="Times,serif" font-size="9.00" fill="#000000">3401</text>
</g>
<!-- 0&#45;&gt;3401 -->
<g id="edge14" class="edge">
<title>0&#45;&gt;3401</title>
<path fill="none" stroke="#ff0000" stroke-width=".5786" d="M60.7985,-240.7895C72.6502,-219.2555 103.943,-162.3976 123.4719,-126.9144"/>
<polygon fill="#ff0000" stroke="#ff0000" stroke-width=".5786" points="126.6477,-128.4028 128.4032,-117.9544 120.5152,-125.0276 126.6477,-128.4028"/>
</g>
<!-- 2 -->
<g id="node3" class="node">
<title>2</title>
<polygon fill="#d3d3d3" stroke="#000000" points="147.0476,-257.9326 127.0357,-257.9326 127.0357,-240.9326 147.0476,-240.9326 147.0476,-257.9326"/>
<text text-anchor="middle" x="137.0416" y="-246.7326" font-family="Times,serif" font-size="9.00" fill="#000000">2</text>
</g>
<!-- 1&#45;&gt;2 -->
<!-- E6 -->
<g id="node10" class="node">
<title>E6</title>
<ellipse fill="#eee8aa" stroke="#000000" cx="431.0416" cy="-18.383" rx="18.2668" ry="18.2668"/>
<text text-anchor="middle" x="431.0416" y="-15.683" font-family="Times,serif" font-size="9.00" fill="#000000">E6</text>
</g>
<!-- 1&#45;&gt;E6 -->
<g id="edge12" class="edge">
<title>1&#45;&gt;E6</title>
<path fill="none" stroke="#ff0000" stroke-width="1.7122" d="M108.0616,-244.6836C111.2049,-243.3278 114.7216,-241.9452 118.0416,-240.9326 198.9973,-216.2419 228.0428,-240.0701 305.0416,-204.9326 360.0652,-179.8233 380.7357,-172.5989 412.0416,-120.8494 425.5807,-98.4688 429.8874,-68.6867 431.0714,-47.001"/>
<polygon fill="#ff0000" stroke="#ff0000" stroke-width="1.7122" points="434.5772,-46.8953 431.4336,-36.7776 427.5816,-46.6474 434.5772,-46.8953"/>
</g>
<!-- E0 -->
<g id="node4" class="node">
<title>E0</title>
<ellipse fill="#ffa07a" stroke="#000000" cx="87.0416" cy="-18.383" rx="18.2668" ry="18.2668"/>
<text text-anchor="middle" x="87.0416" y="-15.683" font-family="Times,serif" font-size="9.00" fill="#000000">E0</text>
</g>
<!-- 2&#45;&gt;E0 -->
<g id="edge13" class="edge">
<title>2&#45;&gt;E0</title>
<path fill="none" stroke="#00ff00" stroke-width="1.6252" d="M129.1664,-240.6172C122.0754,-232.1243 112.0255,-218.5865 107.0416,-204.9326 87.5752,-151.6018 85.3449,-84.4168 85.9042,-46.9637"/>
<polygon fill="#00ff00" stroke="#00ff00" stroke-width="1.6252" points="89.4074,-46.861 86.1375,-36.7834 82.4093,-46.7006 89.4074,-46.861"/>
</g>
<!-- 5171 -->
<g id="node24" class="node">
<title>5171</title>
<ellipse fill="none" stroke="#000000" cx="140.0416" cy="-180.891" rx="24.0833" ry="24.0833"/>
<text text-anchor="middle" x="140.0416" y="-178.191" font-family="Times,serif" font-size="9.00" fill="#000000">5171</text>
</g>
<!-- 2&#45;&gt;5171 -->
<g id="edge22" class="edge">
<title>2&#45;&gt;5171</title>
<path fill="none" stroke="#00ff00" stroke-width=".179" d="M137.4216,-240.7518C137.7087,-234.1912 138.1231,-224.7236 138.5379,-215.2474"/>
<polygon fill="#00ff00" stroke="#00ff00" stroke-width=".179" points="142.0414,-215.2419 138.9821,-205.0984 135.0481,-214.9358 142.0414,-215.2419"/>
</g>
<!-- E1 -->
<g id="node5" class="node">
<title>E1</title>
<ellipse fill="#87cefa" stroke="#000000" cx="142.0416" cy="-18.383" rx="18.2668" ry="18.2668"/>
<text text-anchor="middle" x="142.0416" y="-15.683" font-family="Times,serif" font-size="9.00" fill="#000000">E1</text>
</g>
<!-- E0&#45;&gt;E1 -->
<!-- E2 -->
<g id="node6" class="node">
<title>E2</title>
<ellipse fill="#87cefa" stroke="#000000" cx="197.0416" cy="-18.383" rx="18.2668" ry="18.2668"/>
<text text-anchor="middle" x="197.0416" y="-15.683" font-family="Times,serif" font-size="9.00" fill="#000000">E2</text>
</g>
<!-- E1&#45;&gt;E2 -->
<!-- E3 -->
<g id="node7" class="node">
<title>E3</title>
<ellipse fill="#eee8aa" stroke="#000000" cx="252.0416" cy="-18.383" rx="18.2668" ry="18.2668"/>
<text text-anchor="middle" x="252.0416" y="-15.683" font-family="Times,serif" font-size="9.00" fill="#000000">E3</text>
</g>
<!-- E2&#45;&gt;E3 -->
<!-- E4 -->
<g id="node8" class="node">
<title>E4</title>
<ellipse fill="#ffa07a" stroke="#000000" cx="313.0416" cy="-18.383" rx="18.2668" ry="18.2668"/>
<text text-anchor="middle" x="313.0416" y="-15.683" font-family="Times,serif" font-size="9.00" fill="#000000">E4</text>
</g>
<!-- E3&#45;&gt;E4 -->
<!-- E5 -->
<g id="node9" class="node">
<title>E5</title>
<ellipse fill="#87cefa" stroke="#000000" cx="368.0416" cy="-18.383" rx="18.2668" ry="18.2668"/>
<text text-anchor="middle" x="368.0416" y="-15.683" font-family="Times,serif" font-size="9.00" fill="#000000">E5</text>
</g>
<!-- E4&#45;&gt;E5 -->
<!-- E5&#45;&gt;E6 -->
<!-- E7 -->
<g id="node11" class="node">
<title>E7</title>
<ellipse fill="#87cefa" stroke="#000000" cx="549.0416" cy="-18.383" rx="18.2668" ry="18.2668"/>
<text text-anchor="middle" x="549.0416" y="-15.683" font-family="Times,serif" font-size="9.00" fill="#000000">E7</text>
</g>
<!-- E6&#45;&gt;E7 -->
<!-- E7&#45;&gt;E8 -->
<!-- 4480 -->
<g id="node13" class="node">
<title>4480</title>
<ellipse fill="#add8e6" stroke="#000000" cx="483.0416" cy="-180.891" rx="24.0833" ry="24.0833"/>
<text text-anchor="middle" x="483.0416" y="-182.691" font-family="Times,serif" font-size="9.00" fill="#000000">4480</text>
<text text-anchor="middle" x="483.0416" y="-173.691" font-family="Times,serif" font-size="9.00" fill="#000000">sigm</text>
</g>
<!-- 4939 -->
<g id="node21" class="node">
<title>4939</title>
<ellipse fill="#add8e6" stroke="#000000" cx="549.0416" cy="-96.8077" rx="24.0833" ry="24.0833"/>
<text text-anchor="middle" x="549.0416" y="-98.6077" font-family="Times,serif" font-size="9.00" fill="#000000">4939</text>
<text text-anchor="middle" x="549.0416" y="-89.6077" font-family="Times,serif" font-size="9.00" fill="#000000">sigm</text>
</g>
<!-- 4480&#45;&gt;4939 -->
<g id="edge28" class="edge">
<title>4480&#45;&gt;4939</title>
<path fill="none" stroke="#00ff00" stroke-width=".719" d="M498.0181,-161.8112C506.7941,-150.6306 518.0234,-136.3246 527.7121,-123.9813"/>
<polygon fill="#00ff00" stroke="#00ff00" stroke-width=".719" points="530.7032,-125.8393 534.1245,-115.812 525.1968,-121.5171 530.7032,-125.8393"/>
</g>
<!-- 4367&#45;&gt;E2 -->
<g id="edge26" class="edge">
<title>4367&#45;&gt;E2</title>
<path fill="none" stroke="#ff0000" stroke-width=".1303" d="M46.9988,-88.8285C76.1062,-78.3697 127.5007,-58.7516 169.0416,-36.7661 170.3908,-36.0521 171.7577,-35.2912 173.1245,-34.5005"/>
<polygon fill="#ff0000" stroke="#ff0000" stroke-width=".1303" points="175.2948,-37.2734 181.954,-29.0329 171.6094,-31.322 175.2948,-37.2734"/>
</g>
<!-- 3875 -->
<g id="node15" class="node">
<title>3875</title>
<ellipse fill="#f08080" stroke="#000000" cx="206.0416" cy="-180.891" rx="24.0833" ry="24.0833"/>
<text text-anchor="middle" x="206.0416" y="-182.691" font-family="Times,serif" font-size="9.00" fill="#000000">3875</text>
<text text-anchor="middle" x="206.0416" y="-173.691" font-family="Times,serif" font-size="9.00" fill="#000000">relu</text>
</g>
<!-- 3875&#45;&gt;E2 -->
<g id="edge24" class="edge">
<title>3875&#45;&gt;E2</title>
<path fill="none" stroke="#00ff00" stroke-width=".1087" d="M204.6942,-156.5619C203.0712,-127.2561 200.3487,-78.0965 198.6264,-46.9981"/>
<polygon fill="#00ff00" stroke="#00ff00" stroke-width=".1087" points="202.1101,-46.6047 198.0623,-36.8135 195.1208,-46.9918 202.1101,-46.6047"/>
</g>
<!-- 3875&#45;&gt;3401 -->
<g id="edge30" class="edge">
<title>3875&#45;&gt;3401</title>
<path fill="none" stroke="#00ff00" stroke-width=".2056" d="M191.0652,-161.8112C182.2892,-150.6306 171.0599,-136.3246 161.3711,-123.9813"/>
<polygon fill="#00ff00" stroke="#00ff00" stroke-width=".2056" points="163.8864,-121.5171 154.9588,-115.812 158.3801,-125.8393 163.8864,-121.5171"/>
</g>
<!-- 4388 -->
<g id="node16" class="node">
<title>4388</title>
<ellipse fill="#add8e6" stroke="#000000" cx="549.0416" cy="-180.891" rx="24.0833" ry="24.0833"/>
<text text-anchor="middle" x="549.0416" y="-182.691" font-family="Times,serif" font-size="9.00" fill="#000000">4388</text>
<text text-anchor="middle" x="549.0416" y="-173.691" font-family="Times,serif" font-size="9.00" fill="#000000">sigm</text>
</g>
<!-- 4388&#45;&gt;4939 -->
<g id="edge18" class="edge">
<title>4388&#45;&gt;4939</title>
<path fill="none" stroke="#ff0000" stroke-width=".27" d="M549.0416,-156.5706C549.0416,-148.6398 549.0416,-139.6791 549.0416,-131.1553"/>
<polygon fill="#ff0000" stroke="#ff0000" stroke-width=".27" points="552.5417,-131.0734 549.0416,-121.0734 545.5417,-131.0735 552.5417,-131.0734"/>
</g>
<!-- 4906 -->
<g id="node17" class="node">
<title>4906</title>
<ellipse fill="#add8e6" stroke="#000000" cx="247.0416" cy="-96.8077" rx="24.0833" ry="24.0833"/>
<text text-anchor="middle" x="247.0416" y="-98.6077" font-family="Times,serif" font-size="9.00" fill="#000000">4906</text>
<text text-anchor="middle" x="247.0416" y="-89.6077" font-family="Times,serif" font-size="9.00" fill="#000000">sigm</text>
</g>
<!-- 4906&#45;&gt;E3 -->
<g id="edge16" class="edge">
<title>4906&#45;&gt;E3</title>
<path fill="none" stroke="#ff0000" stroke-width=".3826" d="M248.5963,-72.4236C249.1123,-64.33 249.6913,-55.248 250.2252,-46.8729"/>
<polygon fill="#ff0000" stroke="#ff0000" stroke-width=".3826" points="253.7259,-46.9726 250.8694,-36.7702 246.7401,-46.5272 253.7259,-46.9726"/>
</g>
<!-- 4290 -->
<g id="node18" class="node">
<title>4290</title>
<ellipse fill="#add8e6" stroke="#000000" cx="313.0416" cy="-96.8077" rx="24.0833" ry="24.0833"/>
<text text-anchor="middle" x="313.0416" y="-98.6077" font-family="Times,serif" font-size="9.00" fill="#000000">4290</text>
<text text-anchor="middle" x="313.0416" y="-89.6077" font-family="Times,serif" font-size="9.00" fill="#000000">sigm</text>
</g>
<!-- 4290&#45;&gt;E2 -->
<g id="edge29" class="edge">
<title>4290&#45;&gt;E2</title>
<path fill="none" stroke="#00ff00" stroke-width=".6807" d="M293.6137,-82.4064C289.1828,-79.1912 284.4738,-75.8283 280.0416,-72.7661 256.0053,-56.1594 249.4749,-52.7831 225.0416,-36.7661 223.765,-35.9292 222.4558,-35.0707 221.1341,-34.2037"/>
<polygon fill="#00ff00" stroke="#00ff00" stroke-width=".6807" points="222.7245,-31.0611 212.4437,-28.5006 218.8838,-36.9134 222.7245,-31.0611"/>
</g>
<!-- 4290&#45;&gt;E4 -->
<g id="edge20" class="edge">
<title>4290&#45;&gt;E4</title>
<path fill="none" stroke="#00ff00" stroke-width=".9404" d="M313.0416,-72.4236C313.0416,-64.33 313.0416,-55.248 313.0416,-46.8729"/>
<polygon fill="#00ff00" stroke="#00ff00" stroke-width=".9404" points="316.5417,-46.7701 313.0416,-36.7702 309.5417,-46.7702 316.5417,-46.7701"/>
</g>
<!-- 4290&#45;&gt;E5 -->
<g id="edge15" class="edge">
<title>4290&#45;&gt;E5</title>
<path fill="none" stroke="#ff0000" stroke-width=".1329" d="M326.9205,-77.0179C334.3531,-66.4197 343.5617,-53.289 351.3793,-42.1419"/>
<polygon fill="#ff0000" stroke="#ff0000" stroke-width=".1329" points="354.4138,-43.9106 357.2902,-33.7136 348.6827,-39.8913 354.4138,-43.9106"/>
</g>
<!-- 5187 -->
<g id="node19" class="node">
<title>5187</title>
<ellipse fill="#add8e6" stroke="#000000" cx="379.0416" cy="-96.8077" rx="24.0833" ry="24.0833"/>
<text text-anchor="middle" x="379.0416" y="-98.6077" font-family="Times,serif" font-size="9.00" fill="#000000">5187</text>
<text text-anchor="middle" x="379.0416" y="-89.6077" font-family="Times,serif" font-size="9.00" fill="#000000">sigm</text>
</g>
<!-- 5187&#45;&gt;E4 -->
<g id="edge25" class="edge">
<title>5187&#45;&gt;E4</title>
<path fill="none" stroke="#ff0000" stroke-width=".147" d="M363.4006,-78.2222C353.8612,-66.887 341.6164,-52.3371 331.5898,-40.4229"/>
<polygon fill="#ff0000" stroke="#ff0000" stroke-width=".147" points="334.18,-38.0651 325.0631,-32.6676 328.8242,-42.5724 334.18,-38.0651"/>
</g>
<!-- 5320 -->
<g id="node20" class="node">
<title>5320</title>
<ellipse fill="#add8e6" stroke="#000000" cx="272.0416" cy="-180.891" rx="24.0833" ry="24.0833"/>
<text text-anchor="middle" x="272.0416" y="-182.691" font-family="Times,serif" font-size="9.00" fill="#000000">5320</text>
<text text-anchor="middle" x="272.0416" y="-173.691" font-family="Times,serif" font-size="9.00" fill="#000000">sigm</text>
</g>
<!-- 5320&#45;&gt;4906 -->
<g id="edge27" class="edge">
<title>5320&#45;&gt;4906</title>
<path fill="none" stroke="#ff0000" stroke-width=".4648" d="M265.0777,-157.4691C262.5313,-148.9046 259.6008,-139.0482 256.8523,-129.8042"/>
<polygon fill="#ff0000" stroke="#ff0000" stroke-width=".4648" points="260.173,-128.6918 253.9682,-120.104 253.4633,-130.6868 260.173,-128.6918"/>
</g>
<!-- 4939&#45;&gt;E7 -->
<g id="edge19" class="edge">
<title>4939&#45;&gt;E7</title>
<path fill="none" stroke="#00ff00" stroke-width=".4686" d="M549.0416,-72.4236C549.0416,-64.33 549.0416,-55.248 549.0416,-46.8729"/>
<polygon fill="#00ff00" stroke="#00ff00" stroke-width=".4686" points="552.5417,-46.7701 549.0416,-36.7702 545.5417,-46.7702 552.5417,-46.7701"/>
</g>
<!-- 5114 -->
<g id="node22" class="node">
<title>5114</title>
<ellipse fill="#add8e6" stroke="#000000" cx="615.0416" cy="-180.891" rx="23.6187" ry="23.6187"/>
<text text-anchor="middle" x="615.0416" y="-182.691" font-family="Times,serif" font-size="9.00" fill="#000000">5114</text>
<text text-anchor="middle" x="615.0416" y="-173.691" font-family="Times,serif" font-size="9.00" fill="#000000">sigm</text>
</g>
<!-- 5114&#45;&gt;4939 -->
<g id="edge21" class="edge">
<title>5114&#45;&gt;4939</title>
<path fill="none" stroke="#ff0000" stroke-width=".3871" d="M600.0652,-161.8112C591.2892,-150.6306 580.0599,-136.3246 570.3711,-123.9813"/>
<polygon fill="#ff0000" stroke="#ff0000" stroke-width=".3871" points="572.8864,-121.5171 563.9588,-115.812 567.3801,-125.8393 572.8864,-121.5171"/>
</g>
<!-- 5171&#45;&gt;3401 -->
<g id="edge23" class="edge">
<title>5171&#45;&gt;3401</title>
<path fill="none" stroke="#00ff00" stroke-width=".1737" d="M140.0416,-156.5706C140.0416,-148.6398 140.0416,-139.6791 140.0416,-131.1553"/>
<polygon fill="#00ff00" stroke="#00ff00" stroke-width=".1737" points="143.5417,-131.0734 140.0416,-121.0734 136.5417,-131.0735 143.5417,-131.0734"/>
</g>
</g>
</svg>
