<?xml version="1.0" encoding="UTF-8" standalone="no"?>
<!DOCTYPE svg PUBLIC "-//W3C//DTD SVG 1.1//EN"
 "http://www.w3.org/Graphics/SVG/1.1/DTD/svg11.dtd">
<!-- Generated by graphviz version 2.40.1 (20161225.0304)
 -->
<!-- Title: %3 Pages: 1 -->
<svg width="399pt" height="175pt"
 viewBox="0.00 0.00 399.49 174.79" xmlns="http://www.w3.org/2000/svg" xmlns:xlink="http://www.w3.org/1999/xlink">
<g id="graph0" class="graph" transform="scale(1 1) rotate(0) translate(4 170.7893)">
<title>%3</title>
<polygon fill="#ffffff" stroke="transparent" points="-4,4 -4,-170.7893 395.4945,-170.7893 395.4945,4 -4,4"/>
<!-- E0 -->
<g id="node1" class="node">
<title>E0</title>
<polygon fill="#d3d3d3" stroke="#000000" points="39.4932,-166.7893 13.4981,-166.7893 13.4981,-149.7893 39.4932,-149.7893 39.4932,-166.7893"/>
<text text-anchor="middle" x="26.4957" y="-155.5893" font-family="Times,serif" font-size="9.00" fill="#000000">E0</text>
</g>
<!-- E1 -->
<g id="node2" class="node">
<title>E1</title>
<polygon fill="#d3d3d3" stroke="#000000" points="83.4932,-166.7893 57.4981,-166.7893 57.4981,-149.7893 83.4932,-149.7893 83.4932,-166.7893"/>
<text text-anchor="middle" x="70.4957" y="-155.5893" font-family="Times,serif" font-size="9.00" fill="#000000">E1</text>
</g>
<!-- E0&#45;&gt;E1 -->
<!-- 2 -->
<g id="node12" class="node">
<title>2</title>
<ellipse fill="#ffa07a" stroke="#000000" cx="108.4957" cy="-14.853" rx="14.4914" ry="14.4914"/>
<text text-anchor="middle" x="108.4957" y="-12.153" font-family="Times,serif" font-size="9.00" fill="#000000">2</text>
</g>
<!-- E0&#45;&gt;2 -->
<g id="edge16" class="edge">
<title>E0&#45;&gt;2</title>
<path fill="none" stroke="#ff0000" stroke-width=".5856" d="M31.3796,-149.7463C43.9406,-127.7743 77.67,-68.774 96.0835,-36.5647"/>
<polygon fill="#ff0000" stroke="#ff0000" stroke-width=".5856" points="99.3414,-37.9181 101.2659,-27.4995 93.2643,-34.4439 99.3414,-37.9181"/>
</g>
<!-- E2 -->
<g id="node3" class="node">
<title>E2</title>
<polygon fill="#d3d3d3" stroke="#000000" points="127.4932,-166.7893 101.4981,-166.7893 101.4981,-149.7893 127.4932,-149.7893 127.4932,-166.7893"/>
<text text-anchor="middle" x="114.4957" y="-155.5893" font-family="Times,serif" font-size="9.00" fill="#000000">E2</text>
</g>
<!-- E1&#45;&gt;E2 -->
<!-- 0 -->
<g id="node10" class="node">
<title>0</title>
<ellipse fill="#ffa07a" stroke="#000000" cx="14.4957" cy="-14.853" rx="14.4914" ry="14.4914"/>
<text text-anchor="middle" x="14.4957" y="-12.153" font-family="Times,serif" font-size="9.00" fill="#000000">0</text>
</g>
<!-- E1&#45;&gt;0 -->
<g id="edge21" class="edge">
<title>E1&#45;&gt;0</title>
<path fill="none" stroke="#00ff00" stroke-width=".1304" d="M67.1603,-149.7463C58.704,-128.0867 36.1995,-70.4443 23.5149,-37.9546"/>
<polygon fill="#00ff00" stroke="#00ff00" stroke-width=".1304" points="26.6691,-36.4097 19.7719,-28.3674 20.1485,-38.9555 26.6691,-36.4097"/>
</g>
<!-- S -->
<g id="node13" class="node">
<title>S</title>
<ellipse fill="#ffa07a" stroke="#000000" cx="170.4957" cy="-14.853" rx="14.7075" ry="14.7075"/>
<text text-anchor="middle" x="170.4957" y="-12.153" font-family="Times,serif" font-size="9.00" fill="#000000">S</text>
</g>
<!-- E1&#45;&gt;S -->
<g id="edge18" class="edge">
<title>E1&#45;&gt;S</title>
<path fill="none" stroke="#ff0000" stroke-width=".1794" d="M76.4517,-149.7463C91.9125,-127.5698 133.6713,-67.6726 155.981,-35.6724"/>
<polygon fill="#ff0000" stroke="#ff0000" stroke-width=".1794" points="159.1272,-37.2795 161.9751,-27.0746 153.3849,-33.2761 159.1272,-37.2795"/>
</g>
<!-- E3 -->
<g id="node4" class="node">
<title>E3</title>
<polygon fill="#d3d3d3" stroke="#000000" points="171.4932,-166.7893 145.4981,-166.7893 145.4981,-149.7893 171.4932,-149.7893 171.4932,-166.7893"/>
<text text-anchor="middle" x="158.4957" y="-155.5893" font-family="Times,serif" font-size="9.00" fill="#000000">E3</text>
</g>
<!-- E2&#45;&gt;E3 -->
<!-- 1 -->
<g id="node11" class="node">
<title>1</title>
<ellipse fill="#eee8aa" stroke="#000000" cx="61.4957" cy="-14.853" rx="14.4914" ry="14.4914"/>
<text text-anchor="middle" x="61.4957" y="-12.153" font-family="Times,serif" font-size="9.00" fill="#000000">1</text>
</g>
<!-- E2&#45;&gt;1 -->
<g id="edge15" class="edge">
<title>E2&#45;&gt;1</title>
<path fill="none" stroke="#00ff00" stroke-width=".1914" d="M111.339,-149.7463C103.376,-128.1955 82.2505,-71.0227 70.2134,-38.4463"/>
<polygon fill="#00ff00" stroke="#00ff00" stroke-width=".1914" points="73.402,-36.9772 66.6529,-28.8102 66.8359,-39.4034 73.402,-36.9772"/>
</g>
<!-- E2&#45;&gt;S -->
<g id="edge17" class="edge">
<title>E2&#45;&gt;S</title>
<path fill="none" stroke="#00ff00" stroke-width=".4315" d="M122.214,-149.7246C129.5002,-141.2001 140.2184,-127.4512 146.4957,-113.7893 157.4422,-89.9654 163.7612,-60.5318 167.1399,-39.9888"/>
<polygon fill="#00ff00" stroke="#00ff00" stroke-width=".4315" points="170.6372,-40.2721 168.6866,-29.8583 163.7174,-39.2155 170.6372,-40.2721"/>
</g>
<!-- E4 -->
<g id="node5" class="node">
<title>E4</title>
<polygon fill="#d3d3d3" stroke="#000000" points="215.4932,-166.7893 189.4981,-166.7893 189.4981,-149.7893 215.4932,-149.7893 215.4932,-166.7893"/>
<text text-anchor="middle" x="202.4957" y="-155.5893" font-family="Times,serif" font-size="9.00" fill="#000000">E4</text>
</g>
<!-- E3&#45;&gt;E4 -->
<!-- E5 -->
<g id="node6" class="node">
<title>E5</title>
<polygon fill="#d3d3d3" stroke="#000000" points="259.4932,-166.7893 233.4981,-166.7893 233.4981,-149.7893 259.4932,-149.7893 259.4932,-166.7893"/>
<text text-anchor="middle" x="246.4957" y="-155.5893" font-family="Times,serif" font-size="9.00" fill="#000000">E5</text>
</g>
<!-- E4&#45;&gt;E5 -->
<!-- E4&#45;&gt;S -->
<g id="edge14" class="edge">
<title>E4&#45;&gt;S</title>
<path fill="none" stroke="#00ff00" stroke-width=".2368" d="M201.029,-149.5623C198.2095,-133.0885 191.6733,-96.3147 184.4957,-65.7061 182.4671,-57.0555 179.9651,-47.6569 177.6399,-39.32"/>
<polygon fill="#00ff00" stroke="#00ff00" stroke-width=".2368" points="180.9392,-38.126 174.8381,-29.4641 174.2059,-40.0401 180.9392,-38.126"/>
</g>
<!-- E6 -->
<g id="node7" class="node">
<title>E6</title>
<polygon fill="#d3d3d3" stroke="#000000" points="303.4932,-166.7893 277.4981,-166.7893 277.4981,-149.7893 303.4932,-149.7893 303.4932,-166.7893"/>
<text text-anchor="middle" x="290.4957" y="-155.5893" font-family="Times,serif" font-size="9.00" fill="#000000">E6</text>
</g>
<!-- E5&#45;&gt;E6 -->
<!-- E5&#45;&gt;S -->
<g id="edge12" class="edge">
<title>E5&#45;&gt;S</title>
<path fill="none" stroke="#00ff00" stroke-width=".2031" d="M243.1252,-149.6366C236.5173,-132.9802 221.0541,-95.4755 204.4957,-65.7061 198.7655,-55.4041 191.6123,-44.4753 185.3475,-35.4001"/>
<polygon fill="#00ff00" stroke="#00ff00" stroke-width=".2031" points="188.0798,-33.201 179.4643,-27.0346 182.354,-37.2278 188.0798,-33.201"/>
</g>
<!-- E7 -->
<g id="node8" class="node">
<title>E7</title>
<polygon fill="#d3d3d3" stroke="#000000" points="347.4932,-166.7893 321.4981,-166.7893 321.4981,-149.7893 347.4932,-149.7893 347.4932,-166.7893"/>
<text text-anchor="middle" x="334.4957" y="-155.5893" font-family="Times,serif" font-size="9.00" fill="#000000">E7</text>
</g>
<!-- E6&#45;&gt;E7 -->
<!-- E6&#45;&gt;0 -->
<g id="edge13" class="edge">
<title>E6&#45;&gt;0</title>
<path fill="none" stroke="#ff0000" stroke-width="1.0755" d="M277.447,-152.102C239.8324,-134.1662 128.1487,-80.2079 38.4957,-29.7061 37.6738,-29.2431 36.8399,-28.7658 36.0003,-28.2789"/>
<polygon fill="#ff0000" stroke="#ff0000" stroke-width="1.0755" points="37.4565,-25.0704 27.0836,-22.9131 33.8472,-31.0682 37.4565,-25.0704"/>
</g>
<!-- E8 -->
<g id="node9" class="node">
<title>E8</title>
<polygon fill="#d3d3d3" stroke="#000000" points="391.4932,-166.7893 365.4981,-166.7893 365.4981,-149.7893 391.4932,-149.7893 391.4932,-166.7893"/>
<text text-anchor="middle" x="378.4957" y="-155.5893" font-family="Times,serif" font-size="9.00" fill="#000000">E8</text>
</g>
<!-- E7&#45;&gt;E8 -->
<!-- 5350 -->
<g id="node14" class="node">
<title>5350</title>
<ellipse fill="#add8e6" stroke="#000000" cx="316.4957" cy="-89.7477" rx="24.0833" ry="24.0833"/>
<text text-anchor="middle" x="316.4957" y="-91.5477" font-family="Times,serif" font-size="9.00" fill="#000000">5350</text>
<text text-anchor="middle" x="316.4957" y="-82.5477" font-family="Times,serif" font-size="9.00" fill="#000000">sigm</text>
</g>
<!-- E7&#45;&gt;5350 -->
<g id="edge19" class="edge">
<title>E7&#45;&gt;5350</title>
<path fill="none" stroke="#00ff00" stroke-width=".3095" d="M332.216,-149.6085C330.4138,-142.7462 327.7765,-132.7035 325.1749,-122.7971"/>
<polygon fill="#00ff00" stroke="#00ff00" stroke-width=".3095" points="328.5428,-121.8419 322.6175,-113.0589 321.7724,-123.62 328.5428,-121.8419"/>
</g>
<!-- 0&#45;&gt;1 -->
<!-- 1&#45;&gt;2 -->
<!-- 2&#45;&gt;S -->
<!-- 5350&#45;&gt;1 -->
<g id="edge20" class="edge">
<title>5350&#45;&gt;1</title>
<path fill="none" stroke="#00ff00" stroke-width=".1317" d="M292.446,-85.9502C249.5784,-78.6511 157.6895,-60.5905 85.4957,-29.7061 84.6285,-29.3351 83.7559,-28.9359 82.8838,-28.5148"/>
<polygon fill="#00ff00" stroke="#00ff00" stroke-width=".1317" points="84.2537,-25.2713 73.8155,-23.4562 80.8435,-31.3845 84.2537,-25.2713"/>
</g>
</g>
</svg>
