<?xml version="1.0" encoding="UTF-8" standalone="no"?>
<!DOCTYPE svg PUBLIC "-//W3C//DTD SVG 1.1//EN"
 "http://www.w3.org/Graphics/SVG/1.1/DTD/svg11.dtd">
<!-- Generated by graphviz version 2.40.1 (20161225.0304)
 -->
<!-- Title: %3 Pages: 1 -->
<svg width="386pt" height="343pt"
 viewBox="0.00 0.00 386.00 342.96" xmlns="http://www.w3.org/2000/svg" xmlns:xlink="http://www.w3.org/1999/xlink">
<g id="graph0" class="graph" transform="scale(1 1) rotate(0) translate(4 338.9559)">
<title>%3</title>
<polygon fill="#ffffff" stroke="transparent" points="-4,4 -4,-338.9559 381.9976,-338.9559 381.9976,4 -4,4"/>
<!-- E0 -->
<g id="node1" class="node">
<title>E0</title>
<polygon fill="#d3d3d3" stroke="#000000" points="25.9963,-334.9559 .0012,-334.9559 .0012,-317.9559 25.9963,-317.9559 25.9963,-334.9559"/>
<text text-anchor="middle" x="12.9988" y="-323.7559" font-family="Times,serif" font-size="9.00" fill="#000000">E0</text>
</g>
<!-- E1 -->
<g id="node2" class="node">
<title>E1</title>
<polygon fill="#d3d3d3" stroke="#000000" points="69.9963,-334.9559 44.0012,-334.9559 44.0012,-317.9559 69.9963,-317.9559 69.9963,-334.9559"/>
<text text-anchor="middle" x="56.9988" y="-323.7559" font-family="Times,serif" font-size="9.00" fill="#000000">E1</text>
</g>
<!-- E0&#45;&gt;E1 -->
<!-- 2 -->
<g id="node12" class="node">
<title>2</title>
<ellipse fill="#eee8aa" stroke="#000000" cx="147.9988" cy="-14.853" rx="14.4914" ry="14.4914"/>
<text text-anchor="middle" x="147.9988" y="-12.153" font-family="Times,serif" font-size="9.00" fill="#000000">2</text>
</g>
<!-- E0&#45;&gt;2 -->
<g id="edge15" class="edge">
<title>E0&#45;&gt;2</title>
<path fill="none" stroke="#00ff00" stroke-width="1.0637" d="M16.1591,-317.7474C28.3214,-284.4713 73.7392,-162.3688 119.9988,-65.7061 124.6635,-55.9588 130.3324,-45.456 135.3461,-36.5403"/>
<polygon fill="#00ff00" stroke="#00ff00" stroke-width="1.0637" points="138.5319,-38.0193 140.4508,-27.5997 132.453,-34.5485 138.5319,-38.0193"/>
</g>
<!-- E2 -->
<g id="node3" class="node">
<title>E2</title>
<polygon fill="#d3d3d3" stroke="#000000" points="113.9963,-334.9559 88.0012,-334.9559 88.0012,-317.9559 113.9963,-317.9559 113.9963,-334.9559"/>
<text text-anchor="middle" x="100.9988" y="-323.7559" font-family="Times,serif" font-size="9.00" fill="#000000">E2</text>
</g>
<!-- E1&#45;&gt;E2 -->
<!-- 4804 -->
<g id="node14" class="node">
<title>4804</title>
<ellipse fill="#f0e68c" stroke="#000000" cx="152.9988" cy="-89.7477" rx="24.0833" ry="24.0833"/>
<text text-anchor="middle" x="152.9988" y="-91.5477" font-family="Times,serif" font-size="9.00" fill="#000000">4804</text>
<text text-anchor="middle" x="152.9988" y="-82.5477" font-family="Times,serif" font-size="9.00" fill="#000000">soft</text>
</g>
<!-- E1&#45;&gt;4804 -->
<g id="edge19" class="edge">
<title>E1&#45;&gt;4804</title>
<path fill="none" stroke="#00ff00" stroke-width=".2811" d="M59.6166,-317.6715C64.6254,-301.102 76.1271,-264.1752 87.9988,-233.8726 103.5613,-194.1489 124.1872,-149.5331 137.9912,-120.6088"/>
<polygon fill="#00ff00" stroke="#00ff00" stroke-width=".2811" points="141.2243,-121.9611 142.3939,-111.431 134.9129,-118.9334 141.2243,-121.9611"/>
</g>
<!-- 5051 -->
<g id="node15" class="node">
<title>5051</title>
<ellipse fill="#add8e6" stroke="#000000" cx="181.9988" cy="-257.9142" rx="24.0833" ry="24.0833"/>
<text text-anchor="middle" x="181.9988" y="-259.7142" font-family="Times,serif" font-size="9.00" fill="#000000">5051</text>
<text text-anchor="middle" x="181.9988" y="-250.7142" font-family="Times,serif" font-size="9.00" fill="#000000">sigm</text>
</g>
<!-- E1&#45;&gt;5051 -->
<g id="edge21" class="edge">
<title>E1&#45;&gt;5051</title>
<path fill="none" stroke="#ff0000" stroke-width=".1311" d="M70.376,-319.1207C89.672,-308.5401 125.8436,-288.706 151.7852,-274.4813"/>
<polygon fill="#ff0000" stroke="#ff0000" stroke-width=".1311" points="153.7441,-277.3989 160.8296,-269.522 150.3785,-271.2611 153.7441,-277.3989"/>
</g>
<!-- 4797 -->
<g id="node16" class="node">
<title>4797</title>
<ellipse fill="#f0e68c" stroke="#000000" cx="172.9988" cy="-173.831" rx="24.0833" ry="24.0833"/>
<text text-anchor="middle" x="172.9988" y="-175.631" font-family="Times,serif" font-size="9.00" fill="#000000">4797</text>
<text text-anchor="middle" x="172.9988" y="-166.631" font-family="Times,serif" font-size="9.00" fill="#000000">soft</text>
</g>
<!-- E1&#45;&gt;4797 -->
<g id="edge18" class="edge">
<title>E1&#45;&gt;4797</title>
<path fill="none" stroke="#ff0000" stroke-width=".282" d="M63.5678,-317.8128C80.3843,-295.6868 125.5443,-236.2684 152.3029,-201.0612"/>
<polygon fill="#ff0000" stroke="#ff0000" stroke-width=".282" points="155.0951,-203.1715 158.3596,-193.0921 149.5221,-198.9358 155.0951,-203.1715"/>
</g>
<!-- E3 -->
<g id="node4" class="node">
<title>E3</title>
<polygon fill="#d3d3d3" stroke="#000000" points="157.9963,-334.9559 132.0012,-334.9559 132.0012,-317.9559 157.9963,-317.9559 157.9963,-334.9559"/>
<text text-anchor="middle" x="144.9988" y="-323.7559" font-family="Times,serif" font-size="9.00" fill="#000000">E3</text>
</g>
<!-- E2&#45;&gt;E3 -->
<!-- E4 -->
<g id="node5" class="node">
<title>E4</title>
<polygon fill="#d3d3d3" stroke="#000000" points="201.9963,-334.9559 176.0012,-334.9559 176.0012,-317.9559 201.9963,-317.9559 201.9963,-334.9559"/>
<text text-anchor="middle" x="188.9988" y="-323.7559" font-family="Times,serif" font-size="9.00" fill="#000000">E4</text>
</g>
<!-- E3&#45;&gt;E4 -->
<!-- E5 -->
<g id="node6" class="node">
<title>E5</title>
<polygon fill="#d3d3d3" stroke="#000000" points="245.9963,-334.9559 220.0012,-334.9559 220.0012,-317.9559 245.9963,-317.9559 245.9963,-334.9559"/>
<text text-anchor="middle" x="232.9988" y="-323.7559" font-family="Times,serif" font-size="9.00" fill="#000000">E5</text>
</g>
<!-- E4&#45;&gt;E5 -->
<!-- S -->
<g id="node13" class="node">
<title>S</title>
<ellipse fill="#87cefa" stroke="#000000" cx="204.9988" cy="-14.853" rx="14.7075" ry="14.7075"/>
<text text-anchor="middle" x="204.9988" y="-12.153" font-family="Times,serif" font-size="9.00" fill="#000000">S</text>
</g>
<!-- E4&#45;&gt;S -->
<g id="edge13" class="edge">
<title>E4&#45;&gt;S</title>
<path fill="none" stroke="#ff0000" stroke-width="1.0621" d="M195.888,-317.8842C202.2664,-309.3547 211.3044,-295.602 214.9988,-281.9559 238.455,-195.3134 220.7551,-87.1085 210.7021,-39.3926"/>
<polygon fill="#ff0000" stroke="#ff0000" stroke-width="1.0621" points="214.0689,-38.4045 208.5152,-29.382 207.2302,-39.8986 214.0689,-38.4045"/>
</g>
<!-- E6 -->
<g id="node7" class="node">
<title>E6</title>
<polygon fill="#d3d3d3" stroke="#000000" points="289.9963,-334.9559 264.0012,-334.9559 264.0012,-317.9559 289.9963,-317.9559 289.9963,-334.9559"/>
<text text-anchor="middle" x="276.9988" y="-323.7559" font-family="Times,serif" font-size="9.00" fill="#000000">E6</text>
</g>
<!-- E5&#45;&gt;E6 -->
<!-- 0 -->
<g id="node10" class="node">
<title>0</title>
<ellipse fill="#ffa07a" stroke="#000000" cx="53.9988" cy="-14.853" rx="14.4914" ry="14.4914"/>
<text text-anchor="middle" x="53.9988" y="-12.153" font-family="Times,serif" font-size="9.00" fill="#000000">0</text>
</g>
<!-- E5&#45;&gt;0 -->
<g id="edge17" class="edge">
<title>E5&#45;&gt;0</title>
<path fill="none" stroke="#00ff00" stroke-width=".5602" d="M219.975,-321.408C217.0249,-320.2689 213.9052,-319.068 210.9988,-317.9559 168.8285,-301.8194 145.9967,-315.7025 115.9988,-281.9559 53.6793,-211.8486 50.5631,-91.4239 52.4332,-39.6736"/>
<polygon fill="#00ff00" stroke="#00ff00" stroke-width=".5602" points="55.9408,-39.5885 52.904,-29.4382 48.9481,-39.2668 55.9408,-39.5885"/>
</g>
<!-- E5&#45;&gt;S -->
<g id="edge16" class="edge">
<title>E5&#45;&gt;S</title>
<path fill="none" stroke="#ff0000" stroke-width=".7897" d="M234.8954,-317.6239C241.7541,-283.9018 263.3597,-160.3986 233.9988,-65.7061 230.7372,-55.1872 225.041,-44.4621 219.5555,-35.5899"/>
<polygon fill="#ff0000" stroke="#ff0000" stroke-width=".7897" points="222.417,-33.5702 214.0263,-27.1013 216.5515,-37.3908 222.417,-33.5702"/>
</g>
<!-- E7 -->
<g id="node8" class="node">
<title>E7</title>
<polygon fill="#d3d3d3" stroke="#000000" points="333.9963,-334.9559 308.0012,-334.9559 308.0012,-317.9559 333.9963,-317.9559 333.9963,-334.9559"/>
<text text-anchor="middle" x="320.9988" y="-323.7559" font-family="Times,serif" font-size="9.00" fill="#000000">E7</text>
</g>
<!-- E6&#45;&gt;E7 -->
<!-- 1 -->
<g id="node11" class="node">
<title>1</title>
<ellipse fill="#eee8aa" stroke="#000000" cx="100.9988" cy="-14.853" rx="14.4914" ry="14.4914"/>
<text text-anchor="middle" x="100.9988" y="-12.153" font-family="Times,serif" font-size="9.00" fill="#000000">1</text>
</g>
<!-- E6&#45;&gt;1 -->
<g id="edge14" class="edge">
<title>E6&#45;&gt;1</title>
<path fill="none" stroke="#ff0000" stroke-width="2.9545" d="M263.5357,-321.1531C260.7228,-320.0736 257.7701,-318.9614 254.9988,-317.9559 208.2281,-300.9866 181.4528,-319.6678 148.9988,-281.9559 88.4427,-211.589 92.6694,-91.3043 97.8282,-39.6323"/>
<polygon fill="#ff0000" stroke="#ff0000" stroke-width="2.9545" points="101.3378,-39.736 98.9536,-29.413 94.3799,-38.9697 101.3378,-39.736"/>
</g>
<!-- E8 -->
<g id="node9" class="node">
<title>E8</title>
<polygon fill="#d3d3d3" stroke="#000000" points="377.9963,-334.9559 352.0012,-334.9559 352.0012,-317.9559 377.9963,-317.9559 377.9963,-334.9559"/>
<text text-anchor="middle" x="364.9988" y="-323.7559" font-family="Times,serif" font-size="9.00" fill="#000000">E8</text>
</g>
<!-- E7&#45;&gt;E8 -->
<!-- E7&#45;&gt;5051 -->
<g id="edge23" class="edge">
<title>E7&#45;&gt;5051</title>
<path fill="none" stroke="#00ff00" stroke-width=".3767" d="M307.922,-320.0076C286.3342,-309.3626 242.6695,-287.8313 212.8775,-273.1407"/>
<polygon fill="#00ff00" stroke="#00ff00" stroke-width=".3767" points="214.2546,-269.9174 203.7378,-268.6339 211.1588,-276.1956 214.2546,-269.9174"/>
</g>
<!-- E8&#45;&gt;0 -->
<g id="edge12" class="edge">
<title>E8&#45;&gt;0</title>
<path fill="none" stroke="#00ff00" stroke-width=".3816" d="M361.518,-317.7599C346.4744,-281.2723 283.3731,-139.0377 185.9988,-65.7061 145.5816,-35.2684 123.8197,-51.164 77.9988,-29.7061 77.1445,-29.306 76.2831,-28.8822 75.4203,-28.4403"/>
<polygon fill="#00ff00" stroke="#00ff00" stroke-width=".3816" points="76.8145,-25.206 66.3954,-23.2847 73.3423,-31.2842 76.8145,-25.206"/>
</g>
<!-- 0&#45;&gt;1 -->
<!-- 1&#45;&gt;2 -->
<!-- 2&#45;&gt;S -->
<!-- 4804&#45;&gt;S -->
<g id="edge20" class="edge">
<title>4804&#45;&gt;S</title>
<path fill="none" stroke="#00ff00" stroke-width=".5491" d="M166.9338,-69.6773C174.2668,-59.1157 183.245,-46.1846 190.6399,-35.5339"/>
<polygon fill="#00ff00" stroke="#00ff00" stroke-width=".5491" points="193.5801,-37.436 196.4084,-27.2256 187.8302,-33.4437 193.5801,-37.436"/>
</g>
<!-- 5051&#45;&gt;4797 -->
<g id="edge22" class="edge">
<title>5051&#45;&gt;4797</title>
<path fill="none" stroke="#00ff00" stroke-width=".8693" d="M179.3956,-233.5939C178.5393,-225.5941 177.5709,-216.5465 176.6514,-207.9563"/>
<polygon fill="#00ff00" stroke="#00ff00" stroke-width=".8693" points="180.1095,-207.377 175.565,-197.8063 173.1493,-208.122 180.1095,-207.377"/>
</g>
<!-- 4797&#45;&gt;S -->
<g id="edge24" class="edge">
<title>4797&#45;&gt;S</title>
<path fill="none" stroke="#00ff00" stroke-width=".1638" d="M178.2518,-150.189C180.6716,-139.1432 183.5443,-125.8065 185.9988,-113.7893 191.1612,-88.5143 196.6819,-59.5225 200.4344,-39.4864"/>
<polygon fill="#00ff00" stroke="#00ff00" stroke-width=".1638" points="203.8808,-40.0972 202.274,-29.6249 196.9995,-38.8135 203.8808,-40.0972"/>
</g>
<!-- 4797&#45;&gt;4804 -->
<g id="edge25" class="edge">
<title>4797&#45;&gt;4804</title>
<path fill="none" stroke="#ff0000" stroke-width=".1312" d="M167.4277,-150.4091C165.429,-142.0063 163.1345,-132.36 160.972,-123.2685"/>
<polygon fill="#ff0000" stroke="#ff0000" stroke-width=".1312" points="164.3285,-122.2542 158.6094,-113.3356 157.5185,-123.8741 164.3285,-122.2542"/>
</g>
</g>
</svg>
