<?xml version="1.0" encoding="UTF-8" standalone="no"?>
<!DOCTYPE svg PUBLIC "-//W3C//DTD SVG 1.1//EN"
 "http://www.w3.org/Graphics/SVG/1.1/DTD/svg11.dtd">
<!-- Generated by graphviz version 2.40.1 (20161225.0304)
 -->
<!-- Title: %3 Pages: 1 -->
<svg width="485pt" height="266pt"
 viewBox="0.00 0.00 484.77 265.93" xmlns="http://www.w3.org/2000/svg" xmlns:xlink="http://www.w3.org/1999/xlink">
<g id="graph0" class="graph" transform="scale(1 1) rotate(0) translate(4 261.9326)">
<title>%3</title>
<polygon fill="#ffffff" stroke="transparent" points="-4,4 -4,-261.9326 480.7661,-261.9326 480.7661,4 -4,4"/>
<!-- 0 -->
<g id="node1" class="node">
<title>0</title>
<polygon fill="#d3d3d3" stroke="#000000" points="184.389,-257.9326 164.3771,-257.9326 164.3771,-240.9326 184.389,-240.9326 184.389,-257.9326"/>
<text text-anchor="middle" x="174.383" y="-246.7326" font-family="Times,serif" font-size="9.00" fill="#000000">0</text>
</g>
<!-- 1 -->
<g id="node2" class="node">
<title>1</title>
<polygon fill="#d3d3d3" stroke="#000000" points="223.389,-257.9326 203.3771,-257.9326 203.3771,-240.9326 223.389,-240.9326 223.389,-257.9326"/>
<text text-anchor="middle" x="213.383" y="-246.7326" font-family="Times,serif" font-size="9.00" fill="#000000">1</text>
</g>
<!-- 0&#45;&gt;1 -->
<!-- E6 -->
<g id="node10" class="node">
<title>E6</title>
<ellipse fill="#87cefa" stroke="#000000" cx="348.383" cy="-18.383" rx="18.2668" ry="18.2668"/>
<text text-anchor="middle" x="348.383" y="-15.683" font-family="Times,serif" font-size="9.00" fill="#000000">E6</text>
</g>
<!-- 0&#45;&gt;E6 -->
<g id="edge11" class="edge">
<title>0&#45;&gt;E6</title>
<path fill="none" stroke="#ff0000" stroke-width=".6181" d="M167.2327,-240.9067C160.6119,-232.4111 151.2282,-218.6828 147.383,-204.9326 141.6277,-184.3519 137.443,-175.7673 147.383,-156.8494 149.8518,-152.1509 271.6348,-69.9519 324.412,-34.4723"/>
<polygon fill="#ff0000" stroke="#ff0000" stroke-width=".6181" points="326.494,-37.2901 332.8424,-28.8078 322.59,-31.4798 326.494,-37.2901"/>
</g>
<!-- 3913 -->
<g id="node13" class="node">
<title>3913</title>
<ellipse fill="#add8e6" stroke="#000000" cx="180.383" cy="-180.891" rx="24.0833" ry="24.0833"/>
<text text-anchor="middle" x="180.383" y="-182.691" font-family="Times,serif" font-size="9.00" fill="#000000">3913</text>
<text text-anchor="middle" x="180.383" y="-173.691" font-family="Times,serif" font-size="9.00" fill="#000000">sigm</text>
</g>
<!-- 0&#45;&gt;3913 -->
<g id="edge15" class="edge">
<title>0&#45;&gt;3913</title>
<path fill="none" stroke="#00ff00" stroke-width=".2001" d="M175.143,-240.7518C175.7173,-234.1912 176.546,-224.7236 177.3756,-215.2474"/>
<polygon fill="#00ff00" stroke="#00ff00" stroke-width=".2001" points="180.8785,-215.3655 178.264,-205.0984 173.9052,-214.7551 180.8785,-215.3655"/>
</g>
<!-- 2 -->
<g id="node3" class="node">
<title>2</title>
<polygon fill="#d3d3d3" stroke="#000000" points="262.389,-257.9326 242.3771,-257.9326 242.3771,-240.9326 262.389,-240.9326 262.389,-257.9326"/>
<text text-anchor="middle" x="252.383" y="-246.7326" font-family="Times,serif" font-size="9.00" fill="#000000">2</text>
</g>
<!-- 1&#45;&gt;2 -->
<!-- E2 -->
<g id="node6" class="node">
<title>E2</title>
<ellipse fill="#eee8aa" stroke="#000000" cx="128.383" cy="-18.383" rx="18.2668" ry="18.2668"/>
<text text-anchor="middle" x="128.383" y="-15.683" font-family="Times,serif" font-size="9.00" fill="#000000">E2</text>
</g>
<!-- 1&#45;&gt;E2 -->
<g id="edge12" class="edge">
<title>1&#45;&gt;E2</title>
<path fill="none" stroke="#00ff00" stroke-width="2.7486" d="M203.2993,-244.0404C186.5226,-234.8526 154.0567,-216.0777 147.383,-204.9326 117.8023,-155.5322 120.0268,-85.3447 124.2282,-46.675"/>
<polygon fill="#00ff00" stroke="#00ff00" stroke-width="2.7486" points="127.7148,-46.9953 125.4408,-36.6474 120.7655,-46.1549 127.7148,-46.9953"/>
</g>
<!-- 5179 -->
<g id="node15" class="node">
<title>5179</title>
<ellipse fill="#add8e6" stroke="#000000" cx="246.383" cy="-180.891" rx="24.0833" ry="24.0833"/>
<text text-anchor="middle" x="246.383" y="-182.691" font-family="Times,serif" font-size="9.00" fill="#000000">5179</text>
<text text-anchor="middle" x="246.383" y="-173.691" font-family="Times,serif" font-size="9.00" fill="#000000">sigm</text>
</g>
<!-- 1&#45;&gt;5179 -->
<g id="edge21" class="edge">
<title>1&#45;&gt;5179</title>
<path fill="none" stroke="#ff0000" stroke-width=".5498" d="M217.5625,-240.7518C221.1038,-233.3964 226.4043,-222.3872 231.4976,-211.8083"/>
<polygon fill="#ff0000" stroke="#ff0000" stroke-width=".5498" points="234.6863,-213.2536 235.8708,-202.7252 228.3792,-210.217 234.6863,-213.2536"/>
</g>
<!-- E0 -->
<g id="node4" class="node">
<title>E0</title>
<ellipse fill="#eee8aa" stroke="#000000" cx="18.383" cy="-18.383" rx="18.2668" ry="18.2668"/>
<text text-anchor="middle" x="18.383" y="-15.683" font-family="Times,serif" font-size="9.00" fill="#000000">E0</text>
</g>
<!-- 2&#45;&gt;E0 -->
<g id="edge13" class="edge">
<title>2&#45;&gt;E0</title>
<path fill="none" stroke="#ff0000" stroke-width=".5703" d="M259.1462,-240.9161C271.8161,-223.8529 296.3775,-184.7266 279.383,-156.8494 218.7426,-57.3763 146.9928,-95.5012 46.383,-36.7661 45.0648,-35.9965 43.7224,-35.1914 42.3749,-34.3663"/>
<polygon fill="#ff0000" stroke="#ff0000" stroke-width=".5703" points="43.9217,-31.2023 33.6046,-28.7922 40.1668,-37.1101 43.9217,-31.2023"/>
</g>
<!-- E5 -->
<g id="node9" class="node">
<title>E5</title>
<ellipse fill="#ffa07a" stroke="#000000" cx="293.383" cy="-18.383" rx="18.2668" ry="18.2668"/>
<text text-anchor="middle" x="293.383" y="-15.683" font-family="Times,serif" font-size="9.00" fill="#000000">E5</text>
</g>
<!-- 2&#45;&gt;E5 -->
<g id="edge16" class="edge">
<title>2&#45;&gt;E5</title>
<path fill="none" stroke="#00ff00" stroke-width=".1125" d="M262.8084,-245.2993C277.0508,-239.0118 302.004,-225.5525 312.383,-204.9326 338.5389,-152.9693 318.9208,-82.6522 304.6884,-44.9247"/>
<polygon fill="#00ff00" stroke="#00ff00" stroke-width=".1125" points="307.777,-43.2151 300.8595,-35.1902 301.2628,-45.7774 307.777,-43.2151"/>
</g>
<!-- 2&#45;&gt;3913 -->
<g id="edge22" class="edge">
<title>2&#45;&gt;3913</title>
<path fill="none" stroke="#ff0000" stroke-width=".1942" d="M243.2642,-240.7518C233.7746,-231.718 218.4952,-217.1726 205.3746,-204.6821"/>
<polygon fill="#ff0000" stroke="#ff0000" stroke-width=".1942" points="207.615,-201.9825 197.9588,-197.6225 202.7885,-207.0526 207.615,-201.9825"/>
</g>
<!-- 2&#45;&gt;5179 -->
<g id="edge17" class="edge">
<title>2&#45;&gt;5179</title>
<path fill="none" stroke="#00ff00" stroke-width=".4454" d="M251.6231,-240.7518C251.0488,-234.1912 250.2201,-224.7236 249.3905,-215.2474"/>
<polygon fill="#00ff00" stroke="#00ff00" stroke-width=".4454" points="252.8609,-214.7551 248.5021,-205.0984 245.8876,-215.3655 252.8609,-214.7551"/>
</g>
<!-- E1 -->
<g id="node5" class="node">
<title>E1</title>
<ellipse fill="#eee8aa" stroke="#000000" cx="73.383" cy="-18.383" rx="18.2668" ry="18.2668"/>
<text text-anchor="middle" x="73.383" y="-15.683" font-family="Times,serif" font-size="9.00" fill="#000000">E1</text>
</g>
<!-- E0&#45;&gt;E1 -->
<!-- E1&#45;&gt;E2 -->
<!-- E3 -->
<g id="node7" class="node">
<title>E3</title>
<ellipse fill="#eee8aa" stroke="#000000" cx="183.383" cy="-18.383" rx="18.2668" ry="18.2668"/>
<text text-anchor="middle" x="183.383" y="-15.683" font-family="Times,serif" font-size="9.00" fill="#000000">E3</text>
</g>
<!-- E2&#45;&gt;E3 -->
<!-- E4 -->
<g id="node8" class="node">
<title>E4</title>
<ellipse fill="#ffa07a" stroke="#000000" cx="238.383" cy="-18.383" rx="18.2668" ry="18.2668"/>
<text text-anchor="middle" x="238.383" y="-15.683" font-family="Times,serif" font-size="9.00" fill="#000000">E4</text>
</g>
<!-- E3&#45;&gt;E4 -->
<!-- E4&#45;&gt;E5 -->
<!-- E5&#45;&gt;E6 -->
<!-- E7 -->
<g id="node11" class="node">
<title>E7</title>
<ellipse fill="#ffa07a" stroke="#000000" cx="403.383" cy="-18.383" rx="18.2668" ry="18.2668"/>
<text text-anchor="middle" x="403.383" y="-15.683" font-family="Times,serif" font-size="9.00" fill="#000000">E7</text>
</g>
<!-- E6&#45;&gt;E7 -->
<!-- E8 -->
<g id="node12" class="node">
<title>E8</title>
<ellipse fill="#eee8aa" stroke="#000000" cx="458.383" cy="-18.383" rx="18.2668" ry="18.2668"/>
<text text-anchor="middle" x="458.383" y="-15.683" font-family="Times,serif" font-size="9.00" fill="#000000">E8</text>
</g>
<!-- E7&#45;&gt;E8 -->
<!-- 3913&#45;&gt;E4 -->
<g id="edge14" class="edge">
<title>3913&#45;&gt;E4</title>
<path fill="none" stroke="#00ff00" stroke-width=".2859" d="M188.57,-157.9522C199.1644,-128.2682 217.5916,-76.6378 228.8185,-45.1817"/>
<polygon fill="#00ff00" stroke="#00ff00" stroke-width=".2859" points="232.1264,-46.3256 232.1915,-35.7309 225.5337,-43.9725 232.1264,-46.3256"/>
</g>
<!-- 5297 -->
<g id="node14" class="node">
<title>5297</title>
<ellipse fill="#add8e6" stroke="#000000" cx="388.383" cy="-96.8077" rx="24.0833" ry="24.0833"/>
<text text-anchor="middle" x="388.383" y="-98.6077" font-family="Times,serif" font-size="9.00" fill="#000000">5297</text>
<text text-anchor="middle" x="388.383" y="-89.6077" font-family="Times,serif" font-size="9.00" fill="#000000">sigm</text>
</g>
<!-- 3913&#45;&gt;5297 -->
<g id="edge19" class="edge">
<title>3913&#45;&gt;5297</title>
<path fill="none" stroke="#00ff00" stroke-width=".1544" d="M199.2978,-165.638C203.7552,-162.467 208.6048,-159.3373 213.383,-156.8494 260.0571,-132.5464 318.6623,-114.7595 354.813,-105.1018"/>
<polygon fill="#00ff00" stroke="#00ff00" stroke-width=".1544" points="356.0408,-108.3984 364.8291,-102.4809 354.2688,-101.6264 356.0408,-108.3984"/>
</g>
<!-- 5297&#45;&gt;E6 -->
<g id="edge20" class="edge">
<title>5297&#45;&gt;E6</title>
<path fill="none" stroke="#00ff00" stroke-width=".1403" d="M377.4529,-75.3778C372.5096,-65.686 366.6285,-54.1555 361.4537,-44.0095"/>
<polygon fill="#00ff00" stroke="#00ff00" stroke-width=".1403" points="364.4238,-42.1294 356.7623,-34.8115 358.188,-45.31 364.4238,-42.1294"/>
</g>
<!-- 5179&#45;&gt;E5 -->
<g id="edge18" class="edge">
<title>5179&#45;&gt;E5</title>
<path fill="none" stroke="#ff0000" stroke-width=".5676" d="M253.117,-157.6076C261.646,-128.1177 276.3229,-77.3705 285.4048,-45.9689"/>
<polygon fill="#ff0000" stroke="#ff0000" stroke-width=".5676" points="288.8371,-46.6987 288.2532,-36.12 282.1126,-44.7539 288.8371,-46.6987"/>
</g>
</g>
</svg>
