<?xml version="1.0" encoding="UTF-8" standalone="no"?>
<!DOCTYPE svg PUBLIC "-//W3C//DTD SVG 1.1//EN"
 "http://www.w3.org/Graphics/SVG/1.1/DTD/svg11.dtd">
<!-- Generated by graphviz version 2.40.1 (20161225.0304)
 -->
<!-- Title: %3 Pages: 1 -->
<svg width="396pt" height="91pt"
 viewBox="0.00 0.00 396.49 90.71" xmlns="http://www.w3.org/2000/svg" xmlns:xlink="http://www.w3.org/1999/xlink">
<g id="graph0" class="graph" transform="scale(1 1) rotate(0) translate(4 86.7061)">
<title>%3</title>
<polygon fill="#ffffff" stroke="transparent" points="-4,4 -4,-86.7061 392.4945,-86.7061 392.4945,4 -4,4"/>
<!-- E0 -->
<g id="node1" class="node">
<title>E0</title>
<polygon fill="#d3d3d3" stroke="#000000" points="36.4932,-82.7061 10.4981,-82.7061 10.4981,-65.7061 36.4932,-65.7061 36.4932,-82.7061"/>
<text text-anchor="middle" x="23.4957" y="-71.5061" font-family="Times,serif" font-size="9.00" fill="#000000">E0</text>
</g>
<!-- E1 -->
<g id="node2" class="node">
<title>E1</title>
<polygon fill="#d3d3d3" stroke="#000000" points="80.4932,-82.7061 54.4981,-82.7061 54.4981,-65.7061 80.4932,-65.7061 80.4932,-82.7061"/>
<text text-anchor="middle" x="67.4957" y="-71.5061" font-family="Times,serif" font-size="9.00" fill="#000000">E1</text>
</g>
<!-- E0&#45;&gt;E1 -->
<!-- 1 -->
<g id="node11" class="node">
<title>1</title>
<ellipse fill="#87cefa" stroke="#000000" cx="61.4957" cy="-14.853" rx="14.4914" ry="14.4914"/>
<text text-anchor="middle" x="61.4957" y="-12.153" font-family="Times,serif" font-size="9.00" fill="#000000">1</text>
</g>
<!-- E0&#45;&gt;1 -->
<g id="edge14" class="edge">
<title>E0&#45;&gt;1</title>
<path fill="none" stroke="#ff0000" stroke-width="2.0492" d="M28.9402,-65.7022C33.8924,-57.9672 41.4083,-46.228 47.9712,-35.9772"/>
<polygon fill="#ff0000" stroke="#ff0000" stroke-width="2.0492" points="50.9605,-37.7993 53.4049,-27.4902 45.0653,-34.0249 50.9605,-37.7993"/>
</g>
<!-- E2 -->
<g id="node3" class="node">
<title>E2</title>
<polygon fill="#d3d3d3" stroke="#000000" points="124.4932,-82.7061 98.4981,-82.7061 98.4981,-65.7061 124.4932,-65.7061 124.4932,-82.7061"/>
<text text-anchor="middle" x="111.4957" y="-71.5061" font-family="Times,serif" font-size="9.00" fill="#000000">E2</text>
</g>
<!-- E1&#45;&gt;E2 -->
<!-- S -->
<g id="node13" class="node">
<title>S</title>
<ellipse fill="#87cefa" stroke="#000000" cx="155.4957" cy="-14.853" rx="14.7075" ry="14.7075"/>
<text text-anchor="middle" x="155.4957" y="-12.153" font-family="Times,serif" font-size="9.00" fill="#000000">S</text>
</g>
<!-- E1&#45;&gt;S -->
<g id="edge16" class="edge">
<title>E1&#45;&gt;S</title>
<path fill="none" stroke="#ff0000" stroke-width=".2627" d="M80.1039,-65.7022C94.2189,-56.1822 117.3269,-40.5966 134.2451,-29.1859"/>
<polygon fill="#ff0000" stroke="#ff0000" stroke-width=".2627" points="136.5774,-31.8345 142.9108,-23.3411 132.6632,-26.0311 136.5774,-31.8345"/>
</g>
<!-- E3 -->
<g id="node4" class="node">
<title>E3</title>
<polygon fill="#d3d3d3" stroke="#000000" points="168.4932,-82.7061 142.4981,-82.7061 142.4981,-65.7061 168.4932,-65.7061 168.4932,-82.7061"/>
<text text-anchor="middle" x="155.4957" y="-71.5061" font-family="Times,serif" font-size="9.00" fill="#000000">E3</text>
</g>
<!-- E2&#45;&gt;E3 -->
<!-- E4 -->
<g id="node5" class="node">
<title>E4</title>
<polygon fill="#d3d3d3" stroke="#000000" points="212.4932,-82.7061 186.4981,-82.7061 186.4981,-65.7061 212.4932,-65.7061 212.4932,-82.7061"/>
<text text-anchor="middle" x="199.4957" y="-71.5061" font-family="Times,serif" font-size="9.00" fill="#000000">E4</text>
</g>
<!-- E3&#45;&gt;E4 -->
<!-- E3&#45;&gt;S -->
<g id="edge15" class="edge">
<title>E3&#45;&gt;S</title>
<path fill="none" stroke="#ff0000" stroke-width="1.5106" d="M155.4957,-65.7022C155.4957,-58.9749 155.4957,-49.2187 155.4957,-40.0472"/>
<polygon fill="#ff0000" stroke="#ff0000" stroke-width="1.5106" points="158.9958,-39.7656 155.4957,-29.7657 151.9958,-39.7657 158.9958,-39.7656"/>
</g>
<!-- E5 -->
<g id="node6" class="node">
<title>E5</title>
<polygon fill="#d3d3d3" stroke="#000000" points="256.4932,-82.7061 230.4981,-82.7061 230.4981,-65.7061 256.4932,-65.7061 256.4932,-82.7061"/>
<text text-anchor="middle" x="243.4957" y="-71.5061" font-family="Times,serif" font-size="9.00" fill="#000000">E5</text>
</g>
<!-- E4&#45;&gt;E5 -->
<!-- E6 -->
<g id="node7" class="node">
<title>E6</title>
<polygon fill="#d3d3d3" stroke="#000000" points="300.4932,-82.7061 274.4981,-82.7061 274.4981,-65.7061 300.4932,-65.7061 300.4932,-82.7061"/>
<text text-anchor="middle" x="287.4957" y="-71.5061" font-family="Times,serif" font-size="9.00" fill="#000000">E6</text>
</g>
<!-- E5&#45;&gt;E6 -->
<!-- E7 -->
<g id="node8" class="node">
<title>E7</title>
<polygon fill="#d3d3d3" stroke="#000000" points="344.4932,-82.7061 318.4981,-82.7061 318.4981,-65.7061 344.4932,-65.7061 344.4932,-82.7061"/>
<text text-anchor="middle" x="331.4957" y="-71.5061" font-family="Times,serif" font-size="9.00" fill="#000000">E7</text>
</g>
<!-- E6&#45;&gt;E7 -->
<!-- 0 -->
<g id="node10" class="node">
<title>0</title>
<ellipse fill="#87cefa" stroke="#000000" cx="14.4957" cy="-14.853" rx="14.4914" ry="14.4914"/>
<text text-anchor="middle" x="14.4957" y="-12.153" font-family="Times,serif" font-size="9.00" fill="#000000">0</text>
</g>
<!-- E6&#45;&gt;0 -->
<g id="edge12" class="edge">
<title>E6&#45;&gt;0</title>
<path fill="none" stroke="#ff0000" stroke-width="2.0017" d="M274.1494,-68.5328C271.3281,-67.4802 268.3424,-66.4725 265.4957,-65.7061 166.8581,-39.1505 134.25,-65.2825 38.4957,-29.7061 37.4392,-29.3136 36.3789,-28.8717 35.3239,-28.3925"/>
<polygon fill="#ff0000" stroke="#ff0000" stroke-width="2.0017" points="36.6723,-25.1401 26.2219,-23.397 33.3044,-31.2766 36.6723,-25.1401"/>
</g>
<!-- E8 -->
<g id="node9" class="node">
<title>E8</title>
<polygon fill="#d3d3d3" stroke="#000000" points="388.4932,-82.7061 362.4981,-82.7061 362.4981,-65.7061 388.4932,-65.7061 388.4932,-82.7061"/>
<text text-anchor="middle" x="375.4957" y="-71.5061" font-family="Times,serif" font-size="9.00" fill="#000000">E8</text>
</g>
<!-- E7&#45;&gt;E8 -->
<!-- 2 -->
<g id="node12" class="node">
<title>2</title>
<ellipse fill="#eee8aa" stroke="#000000" cx="108.4957" cy="-14.853" rx="14.4914" ry="14.4914"/>
<text text-anchor="middle" x="108.4957" y="-12.153" font-family="Times,serif" font-size="9.00" fill="#000000">2</text>
</g>
<!-- E7&#45;&gt;2 -->
<g id="edge13" class="edge">
<title>E7&#45;&gt;2</title>
<path fill="none" stroke="#00ff00" stroke-width="1.4741" d="M318.1233,-68.6257C315.3039,-67.5664 312.3256,-66.5325 309.4957,-65.7061 232.0188,-43.0808 206.2553,-60.1293 131.4957,-29.7061 130.6482,-29.3612 129.7981,-28.9842 128.9505,-28.5818"/>
<polygon fill="#00ff00" stroke="#00ff00" stroke-width="1.4741" points="130.6284,-25.5097 120.2052,-23.6104 127.169,-31.5951 130.6284,-25.5097"/>
</g>
<!-- 0&#45;&gt;1 -->
<!-- 1&#45;&gt;2 -->
<!-- 2&#45;&gt;S -->
</g>
</svg>
