<?xml version="1.0" encoding="utf-8" standalone="no"?>
<!DOCTYPE svg PUBLIC "-//W3C//DTD SVG 1.1//EN"
  "http://www.w3.org/Graphics/SVG/1.1/DTD/svg11.dtd">
<!-- Created with matplotlib (https://matplotlib.org/) -->
<svg height="345.6pt" version="1.1" viewBox="0 0 460.8 345.6" width="460.8pt" xmlns="http://www.w3.org/2000/svg" xmlns:xlink="http://www.w3.org/1999/xlink">
 <defs>
  <style type="text/css">
*{stroke-linecap:butt;stroke-linejoin:round;}
  </style>
 </defs>
 <g id="figure_1">
  <g id="patch_1">
   <path d="M 0 345.6 
L 460.8 345.6 
L 460.8 0 
L 0 0 
z
" style="fill:#ffffff;"/>
  </g>
  <g id="axes_1">
   <g id="patch_2">
    <path d="M 57.6 307.584 
L 414.72 307.584 
L 414.72 41.472 
L 57.6 41.472 
z
" style="fill:#ffffff;"/>
   </g>
   <g id="PolyCollection_1">
    <path clip-path="url(#p89f7888668)" d="M 73.832727 53.568 
L 73.832727 57.857253 
L 74.918528 82.118326 
L 76.00433 106.156612 
L 77.090131 97.945277 
L 78.175932 110.118353 
L 79.261733 110.497528 
L 80.347534 141.244826 
L 81.433335 159.889862 
L 82.519137 146.205977 
L 83.604938 163.674944 
L 84.690739 178.931805 
L 85.77654 165.785107 
L 86.862341 171.4098 
L 87.948142 172.327629 
L 89.033943 177.154966 
L 90.119745 166.26197 
L 91.205546 157.861998 
L 92.291347 157.963314 
L 93.377148 166.534005 
L 94.462949 167.340002 
L 95.54875 166.645106 
L 96.634552 153.538372 
L 97.720353 177.557152 
L 98.806154 177.709424 
L 99.891955 206.66461 
L 100.977756 169.77129 
L 102.063557 192.897083 
L 103.149358 196.776355 
L 104.23516 188.768192 
L 105.320961 195.527274 
L 106.406762 196.888013 
L 107.492563 192.892677 
L 108.578364 194.405802 
L 109.664165 193.71764 
L 110.749967 212.876696 
L 111.835768 220.998083 
L 112.921569 226.919808 
L 114.00737 216.732905 
L 115.093171 207.218505 
L 116.178972 196.932194 
L 117.264773 177.056547 
L 118.350575 187.248913 
L 119.436376 177.087867 
L 120.522177 167.466221 
L 121.607978 144.550479 
L 122.693779 149.113303 
L 123.77958 170.382175 
L 124.865382 153.613253 
L 125.951183 156.592114 
L 127.036984 154.100698 
L 128.122785 159.839732 
L 129.208586 131.417404 
L 130.294387 143.074673 
L 131.380189 152.121175 
L 132.46599 139.869682 
L 133.551791 137.987386 
L 134.637592 137.206098 
L 135.723393 145.293791 
L 136.809194 140.277124 
L 137.894995 131.235864 
L 138.980797 140.905091 
L 140.066598 132.427318 
L 141.152399 136.196878 
L 142.2382 158.644779 
L 143.324001 174.192861 
L 144.409802 202.905752 
L 145.495604 174.006243 
L 146.581405 185.129218 
L 147.667206 179.821019 
L 148.753007 202.933802 
L 149.838808 198.246035 
L 150.924609 201.507092 
L 152.01041 220.117323 
L 153.096212 221.843276 
L 154.182013 211.084084 
L 155.267814 210.781924 
L 156.353615 206.843711 
L 157.439416 192.972253 
L 158.525217 194.97961 
L 159.611019 179.452862 
L 160.69682 192.679777 
L 161.782621 174.461495 
L 162.868422 176.663677 
L 163.954223 158.684873 
L 165.040024 187.576742 
L 166.125825 183.170025 
L 167.211627 183.770337 
L 168.297428 179.6867 
L 169.383229 206.164743 
L 170.46903 217.072848 
L 171.554831 226.823559 
L 172.640632 208.319374 
L 173.726434 233.139855 
L 174.812235 243.94233 
L 175.898036 249.40394 
L 176.983837 253.439902 
L 178.069638 217.982519 
L 179.155439 211.065766 
L 180.24124 223.563065 
L 181.327042 219.557644 
L 182.412843 211.196739 
L 183.498644 244.579218 
L 184.584445 205.879921 
L 185.670246 212.754793 
L 186.756047 218.263636 
L 187.841849 190.73567 
L 188.92765 211.167215 
L 190.013451 183.292888 
L 191.099252 218.746868 
L 192.185053 235.227224 
L 193.270854 208.162853 
L 194.356656 218.248823 
L 195.442457 189.239586 
L 196.528258 210.314665 
L 197.614059 228.302507 
L 198.69986 222.406646 
L 199.785661 251.740263 
L 200.871462 231.904657 
L 201.957264 239.30468 
L 203.043065 246.500353 
L 204.128866 237.256096 
L 205.214667 232.409569 
L 206.300468 247.572944 
L 207.386269 248.917754 
L 208.472071 244.799349 
L 209.557872 222.912653 
L 210.643673 231.018612 
L 211.729474 219.105508 
L 212.815275 235.528928 
L 213.901076 252.2298 
L 214.986877 231.858501 
L 216.072679 217.558863 
L 217.15848 228.866869 
L 218.244281 209.29972 
L 219.330082 235.311785 
L 220.415883 228.795519 
L 221.501684 249.592692 
L 222.587486 219.516824 
L 223.673287 208.825321 
L 224.759088 202.712028 
L 225.844889 174.459502 
L 226.93069 186.974978 
L 228.016491 184.001387 
L 229.102292 191.740413 
L 230.188094 229.322265 
L 231.273895 249.390579 
L 232.359696 232.867058 
L 233.445497 229.831323 
L 234.531298 194.752055 
L 235.617099 205.191816 
L 236.702901 196.498732 
L 237.788702 202.815813 
L 238.874503 226.392484 
L 239.960304 225.353117 
L 241.046105 225.215175 
L 242.131906 232.774882 
L 243.217708 224.184413 
L 244.303509 213.592775 
L 245.38931 205.387839 
L 246.475111 185.095973 
L 247.560912 185.118326 
L 248.646713 168.475335 
L 249.732514 178.825634 
L 250.818316 197.376216 
L 251.904117 165.265061 
L 252.989918 175.793647 
L 254.075719 196.43367 
L 255.16152 179.942875 
L 256.247321 203.615757 
L 257.333123 211.440679 
L 258.418924 191.34571 
L 259.504725 202.381322 
L 260.590526 218.682241 
L 261.676327 197.20172 
L 262.762128 194.657994 
L 263.847929 174.961153 
L 264.933731 182.331816 
L 266.019532 199.567997 
L 267.105333 190.749249 
L 268.191134 186.025821 
L 269.276935 198.969198 
L 270.362736 268.460541 
L 271.448538 254.373829 
L 272.534339 240.245803 
L 273.62014 243.892726 
L 274.705941 260.47023 
L 275.791742 233.852574 
L 276.877543 188.005462 
L 277.963344 221.843991 
L 279.049146 234.504524 
L 280.134947 194.313626 
L 281.220748 205.867859 
L 282.306549 209.376919 
L 283.39235 245.32627 
L 284.478151 265.800207 
L 285.563953 249.510584 
L 286.649754 253.720935 
L 287.735555 239.760323 
L 288.821356 213.952821 
L 289.907157 223.064043 
L 290.992958 223.141813 
L 292.07876 243.295246 
L 293.164561 264.552775 
L 294.250362 238.962383 
L 295.336163 249.301297 
L 296.421964 233.938414 
L 297.507765 239.798356 
L 298.593566 237.592488 
L 299.679368 234.927349 
L 300.765169 241.242416 
L 301.85097 256.01522 
L 302.936771 238.854938 
L 304.022572 211.491794 
L 305.108373 208.583816 
L 306.194175 234.755776 
L 307.279976 219.044986 
L 308.365777 180.535097 
L 309.451578 181.651034 
L 310.537379 175.592081 
L 311.62318 189.279041 
L 312.708981 224.83088 
L 313.794783 186.167758 
L 314.880584 176.378475 
L 315.966385 158.205604 
L 317.052186 141.593946 
L 318.137987 146.443178 
L 319.223788 139.037363 
L 320.30959 136.510867 
L 321.395391 157.175481 
L 322.481192 155.22107 
L 323.566993 149.153979 
L 324.652794 144.351039 
L 325.738595 141.54659 
L 326.824396 149.415635 
L 327.910198 168.532388 
L 328.995999 145.635917 
L 330.0818 145.205241 
L 331.167601 139.593879 
L 332.253402 145.246682 
L 333.339203 124.07442 
L 334.425005 128.967791 
L 335.510806 134.112492 
L 336.596607 146.81223 
L 337.682408 142.216692 
L 338.768209 141.224294 
L 339.85401 146.79736 
L 340.939811 150.578867 
L 342.025613 155.049872 
L 343.111414 156.937131 
L 344.197215 170.16639 
L 345.283016 183.130715 
L 346.368817 179.498046 
L 347.454618 191.508708 
L 348.54042 192.877865 
L 349.626221 209.821522 
L 350.712022 204.015946 
L 351.797823 177.19792 
L 352.883624 194.822876 
L 353.969425 196.127281 
L 355.055227 209.702247 
L 356.141028 217.394139 
L 357.226829 232.785973 
L 358.31263 212.481908 
L 359.398431 229.90738 
L 360.484232 175.33174 
L 361.570033 181.212796 
L 362.655835 161.510004 
L 363.741636 158.618529 
L 364.827437 135.81525 
L 365.913238 136.229238 
L 366.999039 137.346039 
L 368.08484 149.747431 
L 369.170642 134.741858 
L 370.256443 142.535229 
L 371.342244 139.31919 
L 372.428045 132.030877 
L 373.513846 154.393387 
L 374.599647 130.401602 
L 375.685448 142.971643 
L 376.77125 146.773938 
L 377.857051 138.923005 
L 378.942852 174.44833 
L 380.028653 190.652301 
L 381.114454 202.000677 
L 382.200255 252.900743 
L 383.286057 288.264201 
L 384.371858 287.817948 
L 385.457659 268.565756 
L 386.54346 270.213893 
L 387.629261 284.12286 
L 388.715062 278.75312 
L 389.800863 265.917548 
L 390.886665 263.141902 
L 391.972466 232.994086 
L 393.058267 253.208496 
L 394.144068 280.774351 
L 395.229869 287.767864 
L 396.31567 295.488 
L 397.401472 252.457813 
L 398.487273 265.153551 
L 398.487273 226.824949 
L 398.487273 226.824949 
L 397.401472 223.864192 
L 396.31567 278.642274 
L 395.229869 235.632378 
L 394.144068 240.76001 
L 393.058267 215.403596 
L 391.972466 206.313541 
L 390.886665 236.071968 
L 389.800863 229.998055 
L 388.715062 247.6345 
L 387.629261 230.340844 
L 386.54346 214.515841 
L 385.457659 215.487959 
L 384.371858 265.201844 
L 383.286057 258.078526 
L 382.200255 225.747853 
L 381.114454 176.831139 
L 380.028653 170.744899 
L 378.942852 149.536892 
L 377.857051 126.13082 
L 376.77125 132.901177 
L 375.685448 132.466701 
L 374.599647 111.61465 
L 373.513846 142.404219 
L 372.428045 118.784191 
L 371.342244 125.059654 
L 370.256443 131.572406 
L 369.170642 116.898945 
L 368.08484 131.565923 
L 366.999039 108.689404 
L 365.913238 107.439374 
L 364.827437 120.105701 
L 363.741636 144.765928 
L 362.655835 145.380988 
L 361.570033 165.693259 
L 360.484232 166.608267 
L 359.398431 194.954855 
L 358.31263 184.525679 
L 357.226829 221.687336 
L 356.141028 185.474212 
L 355.055227 172.576967 
L 353.969425 176.963722 
L 352.883624 170.036863 
L 351.797823 160.41657 
L 350.712022 170.949531 
L 349.626221 177.663827 
L 348.54042 167.201106 
L 347.454618 167.512663 
L 346.368817 161.863524 
L 345.283016 173.466312 
L 344.197215 151.999594 
L 343.111414 148.89072 
L 342.025613 140.280588 
L 340.939811 136.144468 
L 339.85401 130.727322 
L 338.768209 128.584357 
L 337.682408 132.85648 
L 336.596607 134.336542 
L 335.510806 117.732548 
L 334.425005 114.282613 
L 333.339203 114.624998 
L 332.253402 131.744166 
L 331.167601 122.815047 
L 330.0818 128.6429 
L 328.995999 128.462212 
L 327.910198 148.721486 
L 326.824396 128.302791 
L 325.738595 124.921954 
L 324.652794 123.993861 
L 323.566993 137.894497 
L 322.481192 136.203002 
L 321.395391 140.123072 
L 320.30959 120.702602 
L 319.223788 127.228332 
L 318.137987 135.770337 
L 317.052186 131.986578 
L 315.966385 149.618621 
L 314.880584 150.805647 
L 313.794783 149.38216 
L 312.708981 175.964858 
L 311.62318 153.879994 
L 310.537379 143.931763 
L 309.451578 156.405263 
L 308.365777 162.135118 
L 307.279976 185.774774 
L 306.194175 209.850785 
L 305.108373 184.045101 
L 304.022572 196.021912 
L 302.936771 208.044494 
L 301.85097 226.93488 
L 300.765169 210.70175 
L 299.679368 212.397092 
L 298.593566 197.943835 
L 297.507765 182.434609 
L 296.421964 199.532058 
L 295.336163 205.900583 
L 294.250362 221.082172 
L 293.164561 212.397957 
L 292.07876 226.731705 
L 290.992958 202.018742 
L 289.907157 179.722978 
L 288.821356 192.651289 
L 287.735555 202.275185 
L 286.649754 202.887969 
L 285.563953 200.020787 
L 284.478151 208.369002 
L 283.39235 209.111585 
L 282.306549 179.850842 
L 281.220748 179.479735 
L 280.134947 167.036818 
L 279.049146 196.08444 
L 277.963344 193.898083 
L 276.877543 168.249859 
L 275.791742 204.562155 
L 274.705941 231.138236 
L 273.62014 229.305488 
L 272.534339 212.194269 
L 271.448538 216.201068 
L 270.362736 258.213952 
L 269.276935 173.116929 
L 268.191134 162.328789 
L 267.105333 165.540084 
L 266.019532 178.227557 
L 264.933731 177.758387 
L 263.847929 159.808766 
L 262.762128 172.422091 
L 261.676327 172.429692 
L 260.590526 188.990701 
L 259.504725 189.572104 
L 258.418924 183.818714 
L 257.333123 194.820462 
L 256.247321 179.892212 
L 255.16152 165.995552 
L 254.075719 170.733914 
L 252.989918 160.830588 
L 251.904117 145.135127 
L 250.818316 177.038898 
L 249.732514 146.724841 
L 248.646713 150.761406 
L 247.560912 171.486051 
L 246.475111 154.292677 
L 245.38931 177.233153 
L 244.303509 195.10067 
L 243.217708 190.531485 
L 242.131906 192.608946 
L 241.046105 209.095186 
L 239.960304 206.798698 
L 238.874503 196.60875 
L 237.788702 186.263816 
L 236.702901 178.574671 
L 235.617099 199.22345 
L 234.531298 186.732041 
L 233.445497 201.785841 
L 232.359696 197.895084 
L 231.273895 208.804209 
L 230.188094 217.110244 
L 229.102292 187.266508 
L 228.016491 169.004809 
L 226.93069 172.223495 
L 225.844889 162.621491 
L 224.759088 178.596593 
L 223.673287 200.957099 
L 222.587486 212.895031 
L 221.501684 216.47973 
L 220.415883 213.851133 
L 219.330082 226.224846 
L 218.244281 193.747499 
L 217.15848 214.897791 
L 216.072679 209.282504 
L 214.986877 215.015607 
L 213.901076 236.17505 
L 212.815275 230.071137 
L 211.729474 214.129322 
L 210.643673 202.598607 
L 209.557872 198.687645 
L 208.472071 230.360055 
L 207.386269 230.252567 
L 206.300468 220.732847 
L 205.214667 217.177494 
L 204.128866 218.132412 
L 203.043065 230.266906 
L 201.957264 234.154629 
L 200.871462 219.736051 
L 199.785661 235.458476 
L 198.69986 209.971878 
L 197.614059 206.451696 
L 196.528258 199.790724 
L 195.442457 182.483119 
L 194.356656 202.834061 
L 193.270854 194.737137 
L 192.185053 214.637934 
L 191.099252 191.416238 
L 190.013451 169.055561 
L 188.92765 176.603446 
L 187.841849 166.417639 
L 186.756047 185.549891 
L 185.670246 195.748581 
L 184.584445 190.759654 
L 183.498644 205.507121 
L 182.412843 198.301692 
L 181.327042 204.227623 
L 180.24124 192.861569 
L 179.155439 188.430978 
L 178.069638 181.834339 
L 176.983837 224.934794 
L 175.898036 223.091287 
L 174.812235 216.754591 
L 173.726434 210.599782 
L 172.640632 192.483146 
L 171.554831 221.344926 
L 170.46903 198.81576 
L 169.383229 191.153321 
L 168.297428 163.985649 
L 167.211627 165.30296 
L 166.125825 160.062481 
L 165.040024 173.601624 
L 163.954223 146.23263 
L 162.868422 166.259594 
L 161.782621 149.767368 
L 160.69682 186.955182 
L 159.611019 162.18297 
L 158.525217 180.608051 
L 157.439416 184.928833 
L 156.353615 197.25036 
L 155.267814 202.273695 
L 154.182013 204.405182 
L 153.096212 202.409542 
L 152.01041 195.039879 
L 150.924609 191.520073 
L 149.838808 184.511858 
L 148.753007 183.00767 
L 147.667206 164.926338 
L 146.581405 168.851695 
L 145.495604 151.713172 
L 144.409802 177.818979 
L 143.324001 155.508674 
L 142.2382 132.575955 
L 141.152399 115.005612 
L 140.066598 124.792886 
L 138.980797 125.746317 
L 137.894995 105.608584 
L 136.809194 121.343154 
L 135.723393 122.272722 
L 134.637592 124.591507 
L 133.551791 124.641923 
L 132.46599 115.407216 
L 131.380189 134.077435 
L 130.294387 129.321489 
L 129.208586 120.478612 
L 128.122785 136.042242 
L 127.036984 132.193757 
L 125.951183 135.921475 
L 124.865382 135.238881 
L 123.77958 152.552738 
L 122.693779 136.335761 
L 121.607978 129.229014 
L 120.522177 160.785057 
L 119.436376 156.295794 
L 118.350575 180.822079 
L 117.264773 159.266801 
L 116.178972 173.238891 
L 115.093171 190.093639 
L 114.00737 197.948072 
L 112.921569 198.380806 
L 111.835768 180.053442 
L 110.749967 170.066868 
L 109.664165 179.856392 
L 108.578364 164.377299 
L 107.492563 173.45483 
L 106.406762 183.752343 
L 105.320961 178.742717 
L 104.23516 178.018628 
L 103.149358 192.779236 
L 102.063557 172.074675 
L 100.977756 164.147516 
L 99.891955 194.535627 
L 98.806154 166.536528 
L 97.720353 164.273943 
L 96.634552 137.695581 
L 95.54875 149.186524 
L 94.462949 149.247577 
L 93.377148 153.733166 
L 92.291347 144.314806 
L 91.205546 146.574902 
L 90.119745 147.077693 
L 89.033943 165.862468 
L 87.948142 164.699345 
L 86.862341 163.014858 
L 85.77654 153.157602 
L 84.690739 167.206318 
L 83.604938 139.169999 
L 82.519137 139.24301 
L 81.433335 135.061642 
L 80.347534 133.004481 
L 79.261733 103.389533 
L 78.175932 86.821139 
L 77.090131 85.391342 
L 76.00433 95.417126 
L 74.918528 73.109553 
L 73.832727 53.568 
z
" style="fill:#0000ff;fill-opacity:0.25;"/>
   </g>
   <g id="matplotlib.axis_1">
    <g id="xtick_1">
     <g id="line2d_1">
      <defs>
       <path d="M 0 0 
L 0 3.5 
" id="m9f8d3a726f" style="stroke:#000000;stroke-width:0.8;"/>
      </defs>
      <g>
       <use style="stroke:#000000;stroke-width:0.8;" x="73.832727" xlink:href="#m9f8d3a726f" y="307.584"/>
      </g>
     </g>
     <g id="text_1">
      <!-- 0 -->
      <defs>
       <path d="M 31.78125 66.40625 
Q 24.171875 66.40625 20.328125 58.90625 
Q 16.5 51.421875 16.5 36.375 
Q 16.5 21.390625 20.328125 13.890625 
Q 24.171875 6.390625 31.78125 6.390625 
Q 39.453125 6.390625 43.28125 13.890625 
Q 47.125 21.390625 47.125 36.375 
Q 47.125 51.421875 43.28125 58.90625 
Q 39.453125 66.40625 31.78125 66.40625 
z
M 31.78125 74.21875 
Q 44.046875 74.21875 50.515625 64.515625 
Q 56.984375 54.828125 56.984375 36.375 
Q 56.984375 17.96875 50.515625 8.265625 
Q 44.046875 -1.421875 31.78125 -1.421875 
Q 19.53125 -1.421875 13.0625 8.265625 
Q 6.59375 17.96875 6.59375 36.375 
Q 6.59375 54.828125 13.0625 64.515625 
Q 19.53125 74.21875 31.78125 74.21875 
z
" id="DejaVuSans-48"/>
      </defs>
      <g transform="translate(70.651477 322.182437)scale(0.1 -0.1)">
       <use xlink:href="#DejaVuSans-48"/>
      </g>
     </g>
    </g>
    <g id="xtick_2">
     <g id="line2d_2">
      <g>
       <use style="stroke:#000000;stroke-width:0.8;" x="128.122785" xlink:href="#m9f8d3a726f" y="307.584"/>
      </g>
     </g>
     <g id="text_2">
      <!-- 50 -->
      <defs>
       <path d="M 10.796875 72.90625 
L 49.515625 72.90625 
L 49.515625 64.59375 
L 19.828125 64.59375 
L 19.828125 46.734375 
Q 21.96875 47.46875 24.109375 47.828125 
Q 26.265625 48.1875 28.421875 48.1875 
Q 40.625 48.1875 47.75 41.5 
Q 54.890625 34.8125 54.890625 23.390625 
Q 54.890625 11.625 47.5625 5.09375 
Q 40.234375 -1.421875 26.90625 -1.421875 
Q 22.3125 -1.421875 17.546875 -0.640625 
Q 12.796875 0.140625 7.71875 1.703125 
L 7.71875 11.625 
Q 12.109375 9.234375 16.796875 8.0625 
Q 21.484375 6.890625 26.703125 6.890625 
Q 35.15625 6.890625 40.078125 11.328125 
Q 45.015625 15.765625 45.015625 23.390625 
Q 45.015625 31 40.078125 35.4375 
Q 35.15625 39.890625 26.703125 39.890625 
Q 22.75 39.890625 18.8125 39.015625 
Q 14.890625 38.140625 10.796875 36.28125 
z
" id="DejaVuSans-53"/>
      </defs>
      <g transform="translate(121.760285 322.182437)scale(0.1 -0.1)">
       <use xlink:href="#DejaVuSans-53"/>
       <use x="63.623047" xlink:href="#DejaVuSans-48"/>
      </g>
     </g>
    </g>
    <g id="xtick_3">
     <g id="line2d_3">
      <g>
       <use style="stroke:#000000;stroke-width:0.8;" x="182.412843" xlink:href="#m9f8d3a726f" y="307.584"/>
      </g>
     </g>
     <g id="text_3">
      <!-- 100 -->
      <defs>
       <path d="M 12.40625 8.296875 
L 28.515625 8.296875 
L 28.515625 63.921875 
L 10.984375 60.40625 
L 10.984375 69.390625 
L 28.421875 72.90625 
L 38.28125 72.90625 
L 38.28125 8.296875 
L 54.390625 8.296875 
L 54.390625 0 
L 12.40625 0 
z
" id="DejaVuSans-49"/>
      </defs>
      <g transform="translate(172.869093 322.182437)scale(0.1 -0.1)">
       <use xlink:href="#DejaVuSans-49"/>
       <use x="63.623047" xlink:href="#DejaVuSans-48"/>
       <use x="127.246094" xlink:href="#DejaVuSans-48"/>
      </g>
     </g>
    </g>
    <g id="xtick_4">
     <g id="line2d_4">
      <g>
       <use style="stroke:#000000;stroke-width:0.8;" x="236.702901" xlink:href="#m9f8d3a726f" y="307.584"/>
      </g>
     </g>
     <g id="text_4">
      <!-- 150 -->
      <g transform="translate(227.159151 322.182437)scale(0.1 -0.1)">
       <use xlink:href="#DejaVuSans-49"/>
       <use x="63.623047" xlink:href="#DejaVuSans-53"/>
       <use x="127.246094" xlink:href="#DejaVuSans-48"/>
      </g>
     </g>
    </g>
    <g id="xtick_5">
     <g id="line2d_5">
      <g>
       <use style="stroke:#000000;stroke-width:0.8;" x="290.992958" xlink:href="#m9f8d3a726f" y="307.584"/>
      </g>
     </g>
     <g id="text_5">
      <!-- 200 -->
      <defs>
       <path d="M 19.1875 8.296875 
L 53.609375 8.296875 
L 53.609375 0 
L 7.328125 0 
L 7.328125 8.296875 
Q 12.9375 14.109375 22.625 23.890625 
Q 32.328125 33.6875 34.8125 36.53125 
Q 39.546875 41.84375 41.421875 45.53125 
Q 43.3125 49.21875 43.3125 52.78125 
Q 43.3125 58.59375 39.234375 62.25 
Q 35.15625 65.921875 28.609375 65.921875 
Q 23.96875 65.921875 18.8125 64.3125 
Q 13.671875 62.703125 7.8125 59.421875 
L 7.8125 69.390625 
Q 13.765625 71.78125 18.9375 73 
Q 24.125 74.21875 28.421875 74.21875 
Q 39.75 74.21875 46.484375 68.546875 
Q 53.21875 62.890625 53.21875 53.421875 
Q 53.21875 48.921875 51.53125 44.890625 
Q 49.859375 40.875 45.40625 35.40625 
Q 44.1875 33.984375 37.640625 27.21875 
Q 31.109375 20.453125 19.1875 8.296875 
z
" id="DejaVuSans-50"/>
      </defs>
      <g transform="translate(281.449208 322.182437)scale(0.1 -0.1)">
       <use xlink:href="#DejaVuSans-50"/>
       <use x="63.623047" xlink:href="#DejaVuSans-48"/>
       <use x="127.246094" xlink:href="#DejaVuSans-48"/>
      </g>
     </g>
    </g>
    <g id="xtick_6">
     <g id="line2d_6">
      <g>
       <use style="stroke:#000000;stroke-width:0.8;" x="345.283016" xlink:href="#m9f8d3a726f" y="307.584"/>
      </g>
     </g>
     <g id="text_6">
      <!-- 250 -->
      <g transform="translate(335.739266 322.182437)scale(0.1 -0.1)">
       <use xlink:href="#DejaVuSans-50"/>
       <use x="63.623047" xlink:href="#DejaVuSans-53"/>
       <use x="127.246094" xlink:href="#DejaVuSans-48"/>
      </g>
     </g>
    </g>
    <g id="xtick_7">
     <g id="line2d_7">
      <g>
       <use style="stroke:#000000;stroke-width:0.8;" x="399.573074" xlink:href="#m9f8d3a726f" y="307.584"/>
      </g>
     </g>
     <g id="text_7">
      <!-- 300 -->
      <defs>
       <path d="M 40.578125 39.3125 
Q 47.65625 37.796875 51.625 33 
Q 55.609375 28.21875 55.609375 21.1875 
Q 55.609375 10.40625 48.1875 4.484375 
Q 40.765625 -1.421875 27.09375 -1.421875 
Q 22.515625 -1.421875 17.65625 -0.515625 
Q 12.796875 0.390625 7.625 2.203125 
L 7.625 11.71875 
Q 11.71875 9.328125 16.59375 8.109375 
Q 21.484375 6.890625 26.8125 6.890625 
Q 36.078125 6.890625 40.9375 10.546875 
Q 45.796875 14.203125 45.796875 21.1875 
Q 45.796875 27.640625 41.28125 31.265625 
Q 36.765625 34.90625 28.71875 34.90625 
L 20.21875 34.90625 
L 20.21875 43.015625 
L 29.109375 43.015625 
Q 36.375 43.015625 40.234375 45.921875 
Q 44.09375 48.828125 44.09375 54.296875 
Q 44.09375 59.90625 40.109375 62.90625 
Q 36.140625 65.921875 28.71875 65.921875 
Q 24.65625 65.921875 20.015625 65.03125 
Q 15.375 64.15625 9.8125 62.3125 
L 9.8125 71.09375 
Q 15.4375 72.65625 20.34375 73.4375 
Q 25.25 74.21875 29.59375 74.21875 
Q 40.828125 74.21875 47.359375 69.109375 
Q 53.90625 64.015625 53.90625 55.328125 
Q 53.90625 49.265625 50.4375 45.09375 
Q 46.96875 40.921875 40.578125 39.3125 
z
" id="DejaVuSans-51"/>
      </defs>
      <g transform="translate(390.029324 322.182437)scale(0.1 -0.1)">
       <use xlink:href="#DejaVuSans-51"/>
       <use x="63.623047" xlink:href="#DejaVuSans-48"/>
       <use x="127.246094" xlink:href="#DejaVuSans-48"/>
      </g>
     </g>
    </g>
   </g>
   <g id="matplotlib.axis_2">
    <g id="ytick_1">
     <g id="line2d_8">
      <defs>
       <path d="M 0 0 
L -3.5 0 
" id="mbe468d8893" style="stroke:#000000;stroke-width:0.8;"/>
      </defs>
      <g>
       <use style="stroke:#000000;stroke-width:0.8;" x="57.6" xlink:href="#mbe468d8893" y="298.110018"/>
      </g>
     </g>
     <g id="text_8">
      <!-- 0.4 -->
      <defs>
       <path d="M 10.6875 12.40625 
L 21 12.40625 
L 21 0 
L 10.6875 0 
z
" id="DejaVuSans-46"/>
       <path d="M 37.796875 64.3125 
L 12.890625 25.390625 
L 37.796875 25.390625 
z
M 35.203125 72.90625 
L 47.609375 72.90625 
L 47.609375 25.390625 
L 58.015625 25.390625 
L 58.015625 17.1875 
L 47.609375 17.1875 
L 47.609375 0 
L 37.796875 0 
L 37.796875 17.1875 
L 4.890625 17.1875 
L 4.890625 26.703125 
z
" id="DejaVuSans-52"/>
      </defs>
      <g transform="translate(34.696875 301.909236)scale(0.1 -0.1)">
       <use xlink:href="#DejaVuSans-48"/>
       <use x="63.623047" xlink:href="#DejaVuSans-46"/>
       <use x="95.410156" xlink:href="#DejaVuSans-52"/>
      </g>
     </g>
    </g>
    <g id="ytick_2">
     <g id="line2d_9">
      <g>
       <use style="stroke:#000000;stroke-width:0.8;" x="57.6" xlink:href="#mbe468d8893" y="264.164277"/>
      </g>
     </g>
     <g id="text_9">
      <!-- 0.6 -->
      <defs>
       <path d="M 33.015625 40.375 
Q 26.375 40.375 22.484375 35.828125 
Q 18.609375 31.296875 18.609375 23.390625 
Q 18.609375 15.53125 22.484375 10.953125 
Q 26.375 6.390625 33.015625 6.390625 
Q 39.65625 6.390625 43.53125 10.953125 
Q 47.40625 15.53125 47.40625 23.390625 
Q 47.40625 31.296875 43.53125 35.828125 
Q 39.65625 40.375 33.015625 40.375 
z
M 52.59375 71.296875 
L 52.59375 62.3125 
Q 48.875 64.0625 45.09375 64.984375 
Q 41.3125 65.921875 37.59375 65.921875 
Q 27.828125 65.921875 22.671875 59.328125 
Q 17.53125 52.734375 16.796875 39.40625 
Q 19.671875 43.65625 24.015625 45.921875 
Q 28.375 48.1875 33.59375 48.1875 
Q 44.578125 48.1875 50.953125 41.515625 
Q 57.328125 34.859375 57.328125 23.390625 
Q 57.328125 12.15625 50.6875 5.359375 
Q 44.046875 -1.421875 33.015625 -1.421875 
Q 20.359375 -1.421875 13.671875 8.265625 
Q 6.984375 17.96875 6.984375 36.375 
Q 6.984375 53.65625 15.1875 63.9375 
Q 23.390625 74.21875 37.203125 74.21875 
Q 40.921875 74.21875 44.703125 73.484375 
Q 48.484375 72.75 52.59375 71.296875 
z
" id="DejaVuSans-54"/>
      </defs>
      <g transform="translate(34.696875 267.963496)scale(0.1 -0.1)">
       <use xlink:href="#DejaVuSans-48"/>
       <use x="63.623047" xlink:href="#DejaVuSans-46"/>
       <use x="95.410156" xlink:href="#DejaVuSans-54"/>
      </g>
     </g>
    </g>
    <g id="ytick_3">
     <g id="line2d_10">
      <g>
       <use style="stroke:#000000;stroke-width:0.8;" x="57.6" xlink:href="#mbe468d8893" y="230.218537"/>
      </g>
     </g>
     <g id="text_10">
      <!-- 0.8 -->
      <defs>
       <path d="M 31.78125 34.625 
Q 24.75 34.625 20.71875 30.859375 
Q 16.703125 27.09375 16.703125 20.515625 
Q 16.703125 13.921875 20.71875 10.15625 
Q 24.75 6.390625 31.78125 6.390625 
Q 38.8125 6.390625 42.859375 10.171875 
Q 46.921875 13.96875 46.921875 20.515625 
Q 46.921875 27.09375 42.890625 30.859375 
Q 38.875 34.625 31.78125 34.625 
z
M 21.921875 38.8125 
Q 15.578125 40.375 12.03125 44.71875 
Q 8.5 49.078125 8.5 55.328125 
Q 8.5 64.0625 14.71875 69.140625 
Q 20.953125 74.21875 31.78125 74.21875 
Q 42.671875 74.21875 48.875 69.140625 
Q 55.078125 64.0625 55.078125 55.328125 
Q 55.078125 49.078125 51.53125 44.71875 
Q 48 40.375 41.703125 38.8125 
Q 48.828125 37.15625 52.796875 32.3125 
Q 56.78125 27.484375 56.78125 20.515625 
Q 56.78125 9.90625 50.3125 4.234375 
Q 43.84375 -1.421875 31.78125 -1.421875 
Q 19.734375 -1.421875 13.25 4.234375 
Q 6.78125 9.90625 6.78125 20.515625 
Q 6.78125 27.484375 10.78125 32.3125 
Q 14.796875 37.15625 21.921875 38.8125 
z
M 18.3125 54.390625 
Q 18.3125 48.734375 21.84375 45.5625 
Q 25.390625 42.390625 31.78125 42.390625 
Q 38.140625 42.390625 41.71875 45.5625 
Q 45.3125 48.734375 45.3125 54.390625 
Q 45.3125 60.0625 41.71875 63.234375 
Q 38.140625 66.40625 31.78125 66.40625 
Q 25.390625 66.40625 21.84375 63.234375 
Q 18.3125 60.0625 18.3125 54.390625 
z
" id="DejaVuSans-56"/>
      </defs>
      <g transform="translate(34.696875 234.017755)scale(0.1 -0.1)">
       <use xlink:href="#DejaVuSans-48"/>
       <use x="63.623047" xlink:href="#DejaVuSans-46"/>
       <use x="95.410156" xlink:href="#DejaVuSans-56"/>
      </g>
     </g>
    </g>
    <g id="ytick_4">
     <g id="line2d_11">
      <g>
       <use style="stroke:#000000;stroke-width:0.8;" x="57.6" xlink:href="#mbe468d8893" y="196.272796"/>
      </g>
     </g>
     <g id="text_11">
      <!-- 1.0 -->
      <g transform="translate(34.696875 200.072015)scale(0.1 -0.1)">
       <use xlink:href="#DejaVuSans-49"/>
       <use x="63.623047" xlink:href="#DejaVuSans-46"/>
       <use x="95.410156" xlink:href="#DejaVuSans-48"/>
      </g>
     </g>
    </g>
    <g id="ytick_5">
     <g id="line2d_12">
      <g>
       <use style="stroke:#000000;stroke-width:0.8;" x="57.6" xlink:href="#mbe468d8893" y="162.327056"/>
      </g>
     </g>
     <g id="text_12">
      <!-- 1.2 -->
      <g transform="translate(34.696875 166.126275)scale(0.1 -0.1)">
       <use xlink:href="#DejaVuSans-49"/>
       <use x="63.623047" xlink:href="#DejaVuSans-46"/>
       <use x="95.410156" xlink:href="#DejaVuSans-50"/>
      </g>
     </g>
    </g>
    <g id="ytick_6">
     <g id="line2d_13">
      <g>
       <use style="stroke:#000000;stroke-width:0.8;" x="57.6" xlink:href="#mbe468d8893" y="128.381315"/>
      </g>
     </g>
     <g id="text_13">
      <!-- 1.4 -->
      <g transform="translate(34.696875 132.180534)scale(0.1 -0.1)">
       <use xlink:href="#DejaVuSans-49"/>
       <use x="63.623047" xlink:href="#DejaVuSans-46"/>
       <use x="95.410156" xlink:href="#DejaVuSans-52"/>
      </g>
     </g>
    </g>
    <g id="ytick_7">
     <g id="line2d_14">
      <g>
       <use style="stroke:#000000;stroke-width:0.8;" x="57.6" xlink:href="#mbe468d8893" y="94.435575"/>
      </g>
     </g>
     <g id="text_14">
      <!-- 1.6 -->
      <g transform="translate(34.696875 98.234794)scale(0.1 -0.1)">
       <use xlink:href="#DejaVuSans-49"/>
       <use x="63.623047" xlink:href="#DejaVuSans-46"/>
       <use x="95.410156" xlink:href="#DejaVuSans-54"/>
      </g>
     </g>
    </g>
    <g id="ytick_8">
     <g id="line2d_15">
      <g>
       <use style="stroke:#000000;stroke-width:0.8;" x="57.6" xlink:href="#mbe468d8893" y="60.489835"/>
      </g>
     </g>
     <g id="text_15">
      <!-- 1.8 -->
      <g transform="translate(34.696875 64.289053)scale(0.1 -0.1)">
       <use xlink:href="#DejaVuSans-49"/>
       <use x="63.623047" xlink:href="#DejaVuSans-46"/>
       <use x="95.410156" xlink:href="#DejaVuSans-56"/>
      </g>
     </g>
    </g>
    <g id="text_16">
     <!-- Distance -->
     <defs>
      <path d="M 19.671875 64.796875 
L 19.671875 8.109375 
L 31.59375 8.109375 
Q 46.6875 8.109375 53.6875 14.9375 
Q 60.6875 21.78125 60.6875 36.53125 
Q 60.6875 51.171875 53.6875 57.984375 
Q 46.6875 64.796875 31.59375 64.796875 
z
M 9.8125 72.90625 
L 30.078125 72.90625 
Q 51.265625 72.90625 61.171875 64.09375 
Q 71.09375 55.28125 71.09375 36.53125 
Q 71.09375 17.671875 61.125 8.828125 
Q 51.171875 0 30.078125 0 
L 9.8125 0 
z
" id="DejaVuSans-68"/>
      <path d="M 9.421875 54.6875 
L 18.40625 54.6875 
L 18.40625 0 
L 9.421875 0 
z
M 9.421875 75.984375 
L 18.40625 75.984375 
L 18.40625 64.59375 
L 9.421875 64.59375 
z
" id="DejaVuSans-105"/>
      <path d="M 44.28125 53.078125 
L 44.28125 44.578125 
Q 40.484375 46.53125 36.375 47.5 
Q 32.28125 48.484375 27.875 48.484375 
Q 21.1875 48.484375 17.84375 46.4375 
Q 14.5 44.390625 14.5 40.28125 
Q 14.5 37.15625 16.890625 35.375 
Q 19.28125 33.59375 26.515625 31.984375 
L 29.59375 31.296875 
Q 39.15625 29.25 43.1875 25.515625 
Q 47.21875 21.78125 47.21875 15.09375 
Q 47.21875 7.46875 41.1875 3.015625 
Q 35.15625 -1.421875 24.609375 -1.421875 
Q 20.21875 -1.421875 15.453125 -0.5625 
Q 10.6875 0.296875 5.421875 2 
L 5.421875 11.28125 
Q 10.40625 8.6875 15.234375 7.390625 
Q 20.0625 6.109375 24.8125 6.109375 
Q 31.15625 6.109375 34.5625 8.28125 
Q 37.984375 10.453125 37.984375 14.40625 
Q 37.984375 18.0625 35.515625 20.015625 
Q 33.0625 21.96875 24.703125 23.78125 
L 21.578125 24.515625 
Q 13.234375 26.265625 9.515625 29.90625 
Q 5.8125 33.546875 5.8125 39.890625 
Q 5.8125 47.609375 11.28125 51.796875 
Q 16.75 56 26.8125 56 
Q 31.78125 56 36.171875 55.265625 
Q 40.578125 54.546875 44.28125 53.078125 
z
" id="DejaVuSans-115"/>
      <path d="M 18.3125 70.21875 
L 18.3125 54.6875 
L 36.8125 54.6875 
L 36.8125 47.703125 
L 18.3125 47.703125 
L 18.3125 18.015625 
Q 18.3125 11.328125 20.140625 9.421875 
Q 21.96875 7.515625 27.59375 7.515625 
L 36.8125 7.515625 
L 36.8125 0 
L 27.59375 0 
Q 17.1875 0 13.234375 3.875 
Q 9.28125 7.765625 9.28125 18.015625 
L 9.28125 47.703125 
L 2.6875 47.703125 
L 2.6875 54.6875 
L 9.28125 54.6875 
L 9.28125 70.21875 
z
" id="DejaVuSans-116"/>
      <path d="M 34.28125 27.484375 
Q 23.390625 27.484375 19.1875 25 
Q 14.984375 22.515625 14.984375 16.5 
Q 14.984375 11.71875 18.140625 8.90625 
Q 21.296875 6.109375 26.703125 6.109375 
Q 34.1875 6.109375 38.703125 11.40625 
Q 43.21875 16.703125 43.21875 25.484375 
L 43.21875 27.484375 
z
M 52.203125 31.203125 
L 52.203125 0 
L 43.21875 0 
L 43.21875 8.296875 
Q 40.140625 3.328125 35.546875 0.953125 
Q 30.953125 -1.421875 24.3125 -1.421875 
Q 15.921875 -1.421875 10.953125 3.296875 
Q 6 8.015625 6 15.921875 
Q 6 25.140625 12.171875 29.828125 
Q 18.359375 34.515625 30.609375 34.515625 
L 43.21875 34.515625 
L 43.21875 35.40625 
Q 43.21875 41.609375 39.140625 45 
Q 35.0625 48.390625 27.6875 48.390625 
Q 23 48.390625 18.546875 47.265625 
Q 14.109375 46.140625 10.015625 43.890625 
L 10.015625 52.203125 
Q 14.9375 54.109375 19.578125 55.046875 
Q 24.21875 56 28.609375 56 
Q 40.484375 56 46.34375 49.84375 
Q 52.203125 43.703125 52.203125 31.203125 
z
" id="DejaVuSans-97"/>
      <path d="M 54.890625 33.015625 
L 54.890625 0 
L 45.90625 0 
L 45.90625 32.71875 
Q 45.90625 40.484375 42.875 44.328125 
Q 39.84375 48.1875 33.796875 48.1875 
Q 26.515625 48.1875 22.3125 43.546875 
Q 18.109375 38.921875 18.109375 30.90625 
L 18.109375 0 
L 9.078125 0 
L 9.078125 54.6875 
L 18.109375 54.6875 
L 18.109375 46.1875 
Q 21.34375 51.125 25.703125 53.5625 
Q 30.078125 56 35.796875 56 
Q 45.21875 56 50.046875 50.171875 
Q 54.890625 44.34375 54.890625 33.015625 
z
" id="DejaVuSans-110"/>
      <path d="M 48.78125 52.59375 
L 48.78125 44.1875 
Q 44.96875 46.296875 41.140625 47.34375 
Q 37.3125 48.390625 33.40625 48.390625 
Q 24.65625 48.390625 19.8125 42.84375 
Q 14.984375 37.3125 14.984375 27.296875 
Q 14.984375 17.28125 19.8125 11.734375 
Q 24.65625 6.203125 33.40625 6.203125 
Q 37.3125 6.203125 41.140625 7.25 
Q 44.96875 8.296875 48.78125 10.40625 
L 48.78125 2.09375 
Q 45.015625 0.34375 40.984375 -0.53125 
Q 36.96875 -1.421875 32.421875 -1.421875 
Q 20.0625 -1.421875 12.78125 6.34375 
Q 5.515625 14.109375 5.515625 27.296875 
Q 5.515625 40.671875 12.859375 48.328125 
Q 20.21875 56 33.015625 56 
Q 37.15625 56 41.109375 55.140625 
Q 45.0625 54.296875 48.78125 52.59375 
z
" id="DejaVuSans-99"/>
      <path d="M 56.203125 29.59375 
L 56.203125 25.203125 
L 14.890625 25.203125 
Q 15.484375 15.921875 20.484375 11.0625 
Q 25.484375 6.203125 34.421875 6.203125 
Q 39.59375 6.203125 44.453125 7.46875 
Q 49.3125 8.734375 54.109375 11.28125 
L 54.109375 2.78125 
Q 49.265625 0.734375 44.1875 -0.34375 
Q 39.109375 -1.421875 33.890625 -1.421875 
Q 20.796875 -1.421875 13.15625 6.1875 
Q 5.515625 13.8125 5.515625 26.8125 
Q 5.515625 40.234375 12.765625 48.109375 
Q 20.015625 56 32.328125 56 
Q 43.359375 56 49.78125 48.890625 
Q 56.203125 41.796875 56.203125 29.59375 
z
M 47.21875 32.234375 
Q 47.125 39.59375 43.09375 43.984375 
Q 39.0625 48.390625 32.421875 48.390625 
Q 24.90625 48.390625 20.390625 44.140625 
Q 15.875 39.890625 15.1875 32.171875 
z
" id="DejaVuSans-101"/>
     </defs>
     <g transform="translate(28.617187 196.3905)rotate(-90)scale(0.1 -0.1)">
      <use xlink:href="#DejaVuSans-68"/>
      <use x="77.001953" xlink:href="#DejaVuSans-105"/>
      <use x="104.785156" xlink:href="#DejaVuSans-115"/>
      <use x="156.884766" xlink:href="#DejaVuSans-116"/>
      <use x="196.09375" xlink:href="#DejaVuSans-97"/>
      <use x="257.373047" xlink:href="#DejaVuSans-110"/>
      <use x="320.751953" xlink:href="#DejaVuSans-99"/>
      <use x="375.732422" xlink:href="#DejaVuSans-101"/>
     </g>
    </g>
   </g>
   <g id="line2d_16">
    <path clip-path="url(#p89f7888668)" d="M 73.832727 55.712627 
L 76.00433 100.786869 
L 77.090131 91.668309 
L 78.175932 98.469746 
L 79.261733 106.943531 
L 80.347534 137.124654 
L 81.433335 147.475752 
L 82.519137 142.724493 
L 83.604938 151.422472 
L 84.690739 173.069061 
L 85.77654 159.471355 
L 86.862341 167.212329 
L 87.948142 168.513487 
L 89.033943 171.508717 
L 90.119745 156.669832 
L 91.205546 152.21845 
L 92.291347 151.13906 
L 93.377148 160.133585 
L 94.462949 158.293789 
L 95.54875 157.915815 
L 96.634552 145.616976 
L 97.720353 170.915547 
L 98.806154 172.122976 
L 99.891955 200.600119 
L 100.977756 166.959403 
L 102.063557 182.485879 
L 103.149358 194.777795 
L 104.23516 183.39341 
L 105.320961 187.134996 
L 106.406762 190.320178 
L 107.492563 183.173753 
L 108.578364 179.391551 
L 109.664165 186.787016 
L 110.749967 191.471782 
L 111.835768 200.525762 
L 112.921569 212.650307 
L 114.00737 207.340488 
L 115.093171 198.656072 
L 116.178972 185.085543 
L 117.264773 168.161674 
L 118.350575 184.035496 
L 119.436376 166.691831 
L 120.522177 164.125639 
L 121.607978 136.889747 
L 122.693779 142.724532 
L 123.77958 161.467456 
L 124.865382 144.426067 
L 125.951183 146.256795 
L 127.036984 143.147228 
L 128.122785 147.940987 
L 129.208586 125.948008 
L 130.294387 136.198081 
L 131.380189 143.099305 
L 132.46599 127.638449 
L 133.551791 131.314655 
L 134.637592 130.898802 
L 135.723393 133.783257 
L 136.809194 130.810139 
L 137.894995 118.422224 
L 138.980797 133.325704 
L 140.066598 128.610102 
L 141.152399 125.601245 
L 143.324001 164.850768 
L 144.409802 190.362365 
L 145.495604 162.859707 
L 146.581405 176.990456 
L 147.667206 172.373679 
L 148.753007 192.970736 
L 149.838808 191.378946 
L 150.924609 196.513582 
L 152.01041 207.578601 
L 153.096212 212.126409 
L 154.182013 207.744633 
L 155.267814 206.527809 
L 156.353615 202.047035 
L 157.439416 188.950543 
L 158.525217 187.793831 
L 159.611019 170.817916 
L 160.69682 189.81748 
L 161.782621 162.114431 
L 162.868422 171.461635 
L 163.954223 152.458751 
L 165.040024 180.589183 
L 166.125825 171.616253 
L 167.211627 174.536648 
L 168.297428 171.836175 
L 169.383229 198.659032 
L 170.46903 207.944304 
L 171.554831 224.084242 
L 172.640632 200.40126 
L 173.726434 221.869818 
L 174.812235 230.34846 
L 175.898036 236.247613 
L 176.983837 239.187348 
L 178.069638 199.908429 
L 179.155439 199.748372 
L 180.24124 208.212317 
L 181.327042 211.892634 
L 182.412843 204.749215 
L 183.498644 225.043169 
L 184.584445 198.319788 
L 185.670246 204.251687 
L 186.756047 201.906763 
L 187.841849 178.576654 
L 188.92765 193.885331 
L 190.013451 176.174224 
L 191.099252 205.081553 
L 192.185053 224.932579 
L 193.270854 201.449995 
L 194.356656 210.541442 
L 195.442457 185.861353 
L 196.528258 205.052694 
L 197.614059 217.377101 
L 198.69986 216.189262 
L 199.785661 243.599369 
L 200.871462 225.820354 
L 201.957264 236.729654 
L 203.043065 238.38363 
L 204.128866 227.694254 
L 205.214667 224.793531 
L 206.300468 234.152895 
L 207.386269 239.58516 
L 208.472071 237.579702 
L 209.557872 210.800149 
L 210.643673 216.808609 
L 211.729474 216.617415 
L 212.815275 232.800033 
L 213.901076 244.202425 
L 214.986877 223.437054 
L 216.072679 213.420683 
L 217.15848 221.88233 
L 218.244281 201.52361 
L 219.330082 230.768316 
L 220.415883 221.323326 
L 221.501684 233.036211 
L 222.587486 216.205928 
L 223.673287 204.89121 
L 224.759088 190.65431 
L 225.844889 168.540496 
L 226.93069 179.599236 
L 228.016491 176.503098 
L 229.102292 189.50346 
L 230.188094 223.216255 
L 231.273895 229.097394 
L 232.359696 215.381071 
L 233.445497 215.808582 
L 234.531298 190.742048 
L 235.617099 202.207633 
L 236.702901 187.536701 
L 237.788702 194.539815 
L 238.874503 211.500617 
L 239.960304 216.075908 
L 241.046105 217.155181 
L 242.131906 212.691914 
L 243.217708 207.357949 
L 244.303509 204.346722 
L 245.38931 191.310496 
L 246.475111 169.694325 
L 247.560912 178.302189 
L 248.646713 159.61837 
L 249.732514 162.775238 
L 250.818316 187.207557 
L 251.904117 155.200094 
L 252.989918 168.312117 
L 254.075719 183.583792 
L 255.16152 172.969213 
L 256.247321 191.753985 
L 257.333123 203.130571 
L 258.418924 187.582212 
L 260.590526 203.836471 
L 261.676327 184.815706 
L 262.762128 183.540043 
L 263.847929 167.384959 
L 264.933731 180.045102 
L 266.019532 188.897777 
L 267.105333 178.144666 
L 268.191134 174.177305 
L 269.276935 186.043064 
L 270.362736 263.337247 
L 271.448538 235.287448 
L 272.534339 226.220036 
L 273.62014 236.599107 
L 274.705941 245.804233 
L 275.791742 219.207364 
L 276.877543 178.127661 
L 277.963344 207.871037 
L 279.049146 215.294482 
L 280.134947 180.675222 
L 281.220748 192.673797 
L 282.306549 194.613881 
L 283.39235 227.218927 
L 284.478151 237.084605 
L 285.563953 224.765685 
L 286.649754 228.304452 
L 287.735555 221.017754 
L 288.821356 203.302055 
L 289.907157 201.393511 
L 290.992958 212.580277 
L 292.07876 235.013476 
L 293.164561 238.475366 
L 294.250362 230.022278 
L 295.336163 227.60094 
L 296.421964 216.735236 
L 297.507765 211.116483 
L 298.593566 217.768161 
L 299.679368 223.662221 
L 300.765169 225.972083 
L 301.85097 241.47505 
L 304.022572 203.756853 
L 305.108373 196.314459 
L 306.194175 222.303281 
L 307.279976 202.40988 
L 308.365777 171.335108 
L 309.451578 169.028148 
L 310.537379 159.761922 
L 311.62318 171.579518 
L 312.708981 200.397869 
L 313.794783 167.774959 
L 314.880584 163.592061 
L 315.966385 153.912113 
L 317.052186 136.790262 
L 318.137987 141.106758 
L 319.223788 133.132848 
L 320.30959 128.606734 
L 321.395391 148.649276 
L 322.481192 145.712036 
L 323.566993 143.524238 
L 324.652794 134.17245 
L 325.738595 133.234272 
L 326.824396 138.859213 
L 327.910198 158.626937 
L 328.995999 137.049065 
L 330.0818 136.924071 
L 331.167601 131.204463 
L 332.253402 138.495424 
L 333.339203 119.349709 
L 334.425005 121.625202 
L 335.510806 125.92252 
L 336.596607 140.574386 
L 337.682408 137.536586 
L 338.768209 134.904326 
L 339.85401 138.762341 
L 343.111414 152.913926 
L 344.197215 161.082992 
L 345.283016 178.298514 
L 346.368817 170.680785 
L 347.454618 179.510686 
L 348.54042 180.039485 
L 349.626221 193.742675 
L 350.712022 187.482738 
L 351.797823 168.807245 
L 352.883624 182.42987 
L 353.969425 186.545502 
L 355.055227 191.139607 
L 356.141028 201.434176 
L 357.226829 227.236654 
L 358.31263 198.503794 
L 359.398431 212.431118 
L 360.484232 170.970004 
L 361.570033 173.453027 
L 362.655835 153.445496 
L 363.741636 151.692229 
L 364.827437 127.960476 
L 365.913238 121.834306 
L 366.999039 123.017722 
L 368.08484 140.656677 
L 369.170642 125.820401 
L 370.256443 137.053817 
L 371.342244 132.189422 
L 372.428045 125.407534 
L 373.513846 148.398803 
L 374.599647 121.008126 
L 375.685448 137.719172 
L 376.77125 139.837558 
L 377.857051 132.526912 
L 378.942852 161.992611 
L 380.028653 180.6986 
L 381.114454 189.415908 
L 382.200255 239.324298 
L 383.286057 273.171363 
L 384.371858 276.509896 
L 385.457659 242.026858 
L 386.54346 242.364867 
L 387.629261 257.231852 
L 388.715062 263.19381 
L 389.800863 247.957801 
L 390.886665 249.606935 
L 391.972466 219.653814 
L 393.058267 234.306046 
L 394.144068 260.767181 
L 395.229869 261.700121 
L 396.31567 287.065137 
L 397.401472 238.161003 
L 398.487273 245.98925 
L 398.487273 245.98925 
" style="fill:none;stroke:#0000ff;stroke-linecap:square;stroke-width:1.5;"/>
   </g>
   <g id="patch_3">
    <path d="M 57.6 307.584 
L 57.6 41.472 
" style="fill:none;stroke:#000000;stroke-linecap:square;stroke-linejoin:miter;stroke-width:0.8;"/>
   </g>
   <g id="patch_4">
    <path d="M 414.72 307.584 
L 414.72 41.472 
" style="fill:none;stroke:#000000;stroke-linecap:square;stroke-linejoin:miter;stroke-width:0.8;"/>
   </g>
   <g id="patch_5">
    <path d="M 57.6 307.584 
L 414.72 307.584 
" style="fill:none;stroke:#000000;stroke-linecap:square;stroke-linejoin:miter;stroke-width:0.8;"/>
   </g>
   <g id="patch_6">
    <path d="M 57.6 41.472 
L 414.72 41.472 
" style="fill:none;stroke:#000000;stroke-linecap:square;stroke-linejoin:miter;stroke-width:0.8;"/>
   </g>
  </g>
  <g id="axes_2">
   <g id="PolyCollection_2">
    <path clip-path="url(#p89f7888668)" d="M 73.832727 60.307163 
L 73.832727 253.165533 
L 74.918528 256.540905 
L 76.00433 248.572982 
L 77.090131 258.756442 
L 78.175932 261.881313 
L 79.261733 271.093449 
L 80.347534 273.296108 
L 81.433335 279.518436 
L 82.519137 281.641976 
L 83.604938 279.096797 
L 84.690739 279.453095 
L 85.77654 277.626628 
L 86.862341 275.942529 
L 87.948142 277.036227 
L 89.033943 276.62483 
L 90.119745 272.733701 
L 91.205546 264.021919 
L 92.291347 260.796142 
L 93.377148 257.576477 
L 94.462949 268.32793 
L 95.54875 276.988173 
L 96.634552 277.172194 
L 97.720353 278.443166 
L 98.806154 279.071402 
L 99.891955 281.462781 
L 100.977756 277.643343 
L 102.063557 282.853301 
L 103.149358 286.683156 
L 104.23516 285.046828 
L 105.320961 282.590881 
L 106.406762 283.346906 
L 107.492563 283.117864 
L 108.578364 284.61898 
L 109.664165 285.864838 
L 110.749967 287.607662 
L 111.835768 284.704328 
L 112.921569 285.873644 
L 114.00737 286.554373 
L 115.093171 283.775225 
L 116.178972 282.699672 
L 117.264773 280.575781 
L 118.350575 280.879411 
L 119.436376 281.160242 
L 120.522177 279.837017 
L 121.607978 270.689835 
L 122.693779 271.519097 
L 123.77958 273.560179 
L 124.865382 274.908842 
L 125.951183 275.611357 
L 127.036984 274.100033 
L 128.122785 270.557924 
L 129.208586 267.357297 
L 130.294387 273.154136 
L 131.380189 275.644719 
L 132.46599 268.658918 
L 133.551791 263.613872 
L 134.637592 272.279569 
L 135.723393 274.232929 
L 136.809194 270.20576 
L 137.894995 272.56747 
L 138.980797 278.665186 
L 140.066598 275.47808 
L 141.152399 279.754146 
L 142.2382 278.65249 
L 143.324001 284.375395 
L 144.409802 284.596758 
L 145.495604 285.107907 
L 146.581405 285.658636 
L 147.667206 287.320862 
L 148.753007 288.583983 
L 149.838808 288.414333 
L 150.924609 287.458757 
L 152.01041 289.24488 
L 153.096212 289.480053 
L 154.182013 289.010325 
L 155.267814 287.599766 
L 156.353615 288.847204 
L 157.439416 287.183315 
L 158.525217 286.513856 
L 159.611019 286.120365 
L 160.69682 287.151538 
L 161.782621 286.201374 
L 162.868422 283.068405 
L 163.954223 283.937867 
L 165.040024 284.75621 
L 166.125825 285.305851 
L 167.211627 284.605562 
L 168.297428 285.118605 
L 169.383229 290.76911 
L 170.46903 289.653461 
L 171.554831 290.365992 
L 172.640632 289.501919 
L 173.726434 289.745829 
L 174.812235 290.372478 
L 175.898036 290.145823 
L 176.983837 291.284491 
L 178.069638 288.582428 
L 179.155439 290.3678 
L 180.24124 290.109222 
L 181.327042 289.307275 
L 182.412843 290.406554 
L 183.498644 290.479988 
L 184.584445 289.073761 
L 185.670246 288.491584 
L 186.756047 289.276919 
L 187.841849 288.48416 
L 188.92765 286.349266 
L 190.013451 285.899974 
L 191.099252 288.551579 
L 192.185053 290.047869 
L 193.270854 290.724363 
L 194.356656 290.441353 
L 195.442457 288.260966 
L 196.528258 289.558432 
L 197.614059 290.069051 
L 198.69986 289.696768 
L 199.785661 290.447241 
L 200.871462 291.756738 
L 201.957264 291.149559 
L 203.043065 291.294867 
L 204.128866 291.268141 
L 205.214667 289.630715 
L 206.300468 291.738178 
L 207.386269 291.087246 
L 208.472071 290.692029 
L 209.557872 290.33229 
L 210.643673 290.675065 
L 211.729474 290.084699 
L 212.815275 290.476948 
L 213.901076 289.833391 
L 214.986877 289.305267 
L 216.072679 289.584223 
L 217.15848 289.921377 
L 218.244281 290.063566 
L 219.330082 290.239841 
L 220.415883 292.023524 
L 221.501684 289.478671 
L 222.587486 288.697131 
L 223.673287 286.38111 
L 224.759088 283.086704 
L 225.844889 281.458587 
L 226.93069 282.388676 
L 228.016491 284.719437 
L 229.102292 283.991349 
L 230.188094 285.84265 
L 231.273895 283.716569 
L 232.359696 284.433581 
L 233.445497 285.195379 
L 234.531298 286.317833 
L 235.617099 286.821556 
L 236.702901 288.163866 
L 237.788702 286.211592 
L 238.874503 289.351837 
L 239.960304 290.740386 
L 241.046105 290.28659 
L 242.131906 289.329327 
L 243.217708 286.655105 
L 244.303509 284.01654 
L 245.38931 279.000547 
L 246.475111 282.468782 
L 247.560912 281.572034 
L 248.646713 287.774044 
L 249.732514 287.423038 
L 250.818316 284.209691 
L 251.904117 280.813471 
L 252.989918 280.790959 
L 254.075719 283.947489 
L 255.16152 285.507132 
L 256.247321 285.960245 
L 257.333123 284.05752 
L 258.418924 286.9949 
L 259.504725 287.438059 
L 260.590526 283.113798 
L 261.676327 281.570711 
L 262.762128 287.566873 
L 263.847929 283.216492 
L 264.933731 285.32332 
L 266.019532 285.41963 
L 267.105333 287.095562 
L 268.191134 290.224282 
L 269.276935 289.382425 
L 270.362736 292.239944 
L 271.448538 292.709921 
L 272.534339 292.799738 
L 273.62014 291.391619 
L 274.705941 293.446414 
L 275.791742 292.491994 
L 276.877543 290.991698 
L 277.963344 291.46704 
L 279.049146 290.529831 
L 280.134947 293.286435 
L 281.220748 293.084963 
L 282.306549 293.657177 
L 283.39235 294.697997 
L 284.478151 295.451582 
L 285.563953 294.892645 
L 286.649754 295.073739 
L 287.735555 294.374707 
L 288.821356 293.503145 
L 289.907157 292.806161 
L 290.992958 292.572499 
L 292.07876 292.878014 
L 293.164561 293.912563 
L 294.250362 293.756227 
L 295.336163 294.452656 
L 296.421964 293.915013 
L 297.507765 294.084874 
L 298.593566 294.079625 
L 299.679368 294.135007 
L 300.765169 293.292084 
L 301.85097 293.532251 
L 302.936771 293.364369 
L 304.022572 292.757191 
L 305.108373 291.396722 
L 306.194175 291.807136 
L 307.279976 292.808794 
L 308.365777 291.058599 
L 309.451578 291.557179 
L 310.537379 288.599774 
L 311.62318 283.659287 
L 312.708981 286.564638 
L 313.794783 282.219306 
L 314.880584 278.671156 
L 315.966385 277.224225 
L 317.052186 275.864208 
L 318.137987 283.504277 
L 319.223788 280.789739 
L 320.30959 277.834192 
L 321.395391 285.29707 
L 322.481192 283.305237 
L 323.566993 280.188645 
L 324.652794 279.531483 
L 325.738595 280.643983 
L 326.824396 281.000837 
L 327.910198 284.581101 
L 328.995999 284.154258 
L 330.0818 280.913992 
L 331.167601 278.915708 
L 332.253402 281.898536 
L 333.339203 277.234217 
L 334.425005 276.632846 
L 335.510806 281.31167 
L 336.596607 281.059988 
L 337.682408 280.366852 
L 338.768209 281.575114 
L 339.85401 280.636443 
L 340.939811 285.608295 
L 342.025613 283.986456 
L 343.111414 284.181167 
L 344.197215 286.123154 
L 345.283016 287.596828 
L 346.368817 286.763894 
L 347.454618 289.256224 
L 348.54042 289.916952 
L 349.626221 290.275115 
L 350.712022 291.101287 
L 351.797823 287.155332 
L 352.883624 289.653584 
L 353.969425 287.492058 
L 355.055227 290.825594 
L 356.141028 291.320845 
L 357.226829 291.806497 
L 358.31263 289.697449 
L 359.398431 291.802587 
L 360.484232 286.838349 
L 361.570033 284.788644 
L 362.655835 283.635368 
L 363.741636 283.698737 
L 364.827437 279.400708 
L 365.913238 280.470436 
L 366.999039 279.796108 
L 368.08484 281.750901 
L 369.170642 279.113623 
L 370.256443 278.46015 
L 371.342244 280.514871 
L 372.428045 273.829179 
L 373.513846 264.246679 
L 374.599647 277.144711 
L 375.685448 268.379849 
L 376.77125 271.546896 
L 377.857051 280.48861 
L 378.942852 285.207421 
L 380.028653 287.365303 
L 381.114454 290.739837 
L 382.200255 294.064875 
L 383.286057 295.078377 
L 384.371858 294.900506 
L 385.457659 294.308289 
L 386.54346 294.445068 
L 387.629261 294.440211 
L 388.715062 294.802879 
L 389.800863 294.645389 
L 390.886665 294.237828 
L 391.972466 294.552719 
L 393.058267 294.060978 
L 394.144068 295.009081 
L 395.229869 295.488 
L 396.31567 295.205517 
L 397.401472 294.589742 
L 398.487273 294.876947 
L 398.487273 136.612048 
L 398.487273 136.612048 
L 397.401472 131.803496 
L 396.31567 135.110429 
L 395.229869 140.493209 
L 394.144068 137.50004 
L 393.058267 130.472424 
L 391.972466 126.725401 
L 390.886665 130.497789 
L 389.800863 135.405488 
L 388.715062 134.982825 
L 387.629261 129.635024 
L 386.54346 130.979189 
L 385.457659 131.057599 
L 384.371858 137.673966 
L 383.286057 133.741787 
L 382.200255 131.431643 
L 381.114454 121.309196 
L 380.028653 113.917787 
L 378.942852 105.411469 
L 377.857051 92.817774 
L 376.77125 71.399288 
L 375.685448 67.219183 
L 374.599647 78.599243 
L 373.513846 58.771814 
L 372.428045 72.089133 
L 371.342244 85.110823 
L 370.256443 82.266419 
L 369.170642 83.7723 
L 368.08484 91.402793 
L 366.999039 87.2851 
L 365.913238 86.495816 
L 364.827437 87.348809 
L 363.741636 99.55699 
L 362.655835 98.334552 
L 361.570033 99.261391 
L 360.484232 105.130907 
L 359.398431 126.711007 
L 358.31263 117.075907 
L 357.226829 125.309467 
L 356.141028 120.972806 
L 355.055227 123.770419 
L 353.969425 110.338986 
L 352.883624 114.498311 
L 351.797823 105.064781 
L 350.712022 123.158717 
L 349.626221 122.768614 
L 348.54042 118.206266 
L 347.454618 120.158471 
L 346.368817 111.115784 
L 345.283016 117.726429 
L 344.197215 108.62867 
L 343.111414 95.716379 
L 342.025613 93.695395 
L 340.939811 99.607094 
L 339.85401 90.441959 
L 338.768209 86.872258 
L 337.682408 84.61784 
L 336.596607 87.483846 
L 335.510806 87.585049 
L 334.425005 79.602954 
L 333.339203 80.759378 
L 332.253402 89.259382 
L 331.167601 83.485968 
L 330.0818 87.238967 
L 328.995999 95.437633 
L 327.910198 100.079908 
L 326.824396 90.795193 
L 325.738595 90.945639 
L 324.652794 85.036897 
L 323.566993 87.433004 
L 322.481192 94.490114 
L 321.395391 104.183087 
L 320.30959 83.745964 
L 319.223788 89.876203 
L 318.137987 96.650016 
L 317.052186 77.357412 
L 315.966385 79.784654 
L 314.880584 80.861323 
L 313.794783 90.325628 
L 312.708981 103.040755 
L 311.62318 95.300194 
L 310.537379 112.163929 
L 309.451578 121.075179 
L 308.365777 120.177349 
L 307.279976 129.642233 
L 306.194175 130.104607 
L 305.108373 120.719626 
L 304.022572 126.765601 
L 302.936771 128.649504 
L 301.85097 136.750522 
L 300.765169 136.198745 
L 299.679368 139.098211 
L 298.593566 138.836537 
L 297.507765 141.346913 
L 296.421964 137.578545 
L 295.336163 140.153242 
L 294.250362 132.073839 
L 293.164561 141.796324 
L 292.07876 136.10226 
L 290.992958 132.887772 
L 289.907157 135.696619 
L 288.821356 129.311095 
L 287.735555 143.488491 
L 286.649754 147.337949 
L 285.563953 146.152131 
L 284.478151 143.940615 
L 283.39235 142.659802 
L 282.306549 133.568812 
L 281.220748 126.275247 
L 280.134947 126.990048 
L 279.049146 132.762393 
L 277.963344 131.978519 
L 276.877543 122.636424 
L 275.791742 132.880372 
L 274.705941 140.39681 
L 273.62014 130.955237 
L 272.534339 136.223852 
L 271.448538 141.578905 
L 270.362736 137.980839 
L 269.276935 119.152637 
L 268.191134 122.827398 
L 267.105333 113.237789 
L 266.019532 112.644395 
L 264.933731 108.10984 
L 263.847929 98.947937 
L 262.762128 108.955815 
L 261.676327 90.536826 
L 260.590526 92.870504 
L 259.504725 107.306989 
L 258.418924 105.558365 
L 257.333123 98.073816 
L 256.247321 103.40077 
L 255.16152 100.161526 
L 254.075719 97.523102 
L 252.989918 86.467584 
L 251.904117 86.970934 
L 250.818316 96.834213 
L 249.732514 104.903059 
L 248.646713 107.262369 
L 247.560912 89.562584 
L 246.475111 90.737648 
L 245.38931 81.729431 
L 244.303509 93.462688 
L 243.217708 102.073596 
L 242.131906 107.667833 
L 241.046105 112.03459 
L 239.960304 113.135493 
L 238.874503 107.493124 
L 237.788702 97.33823 
L 236.702901 102.904532 
L 235.617099 100.224224 
L 234.531298 96.913749 
L 233.445497 93.347088 
L 232.359696 92.074563 
L 231.273895 88.665149 
L 230.188094 93.924225 
L 229.102292 94.651062 
L 228.016491 97.712235 
L 226.93069 95.420885 
L 225.844889 93.817136 
L 224.759088 94.377464 
L 223.673287 99.968764 
L 222.587486 109.108748 
L 221.501684 109.120218 
L 220.415883 121.22954 
L 219.330082 116.304225 
L 218.244281 114.745857 
L 217.15848 113.389412 
L 216.072679 112.503362 
L 214.986877 113.320589 
L 213.901076 115.479154 
L 212.815275 116.704339 
L 211.729474 118.326323 
L 210.643673 121.236455 
L 209.557872 123.439854 
L 208.472071 119.196734 
L 207.386269 124.461709 
L 206.300468 128.461432 
L 205.214667 120.824609 
L 204.128866 128.053157 
L 203.043065 128.891237 
L 201.957264 125.372236 
L 200.871462 124.732921 
L 199.785661 119.786458 
L 198.69986 117.768641 
L 197.614059 116.621257 
L 196.528258 116.766817 
L 195.442457 109.918028 
L 194.356656 122.75655 
L 193.270854 121.420363 
L 192.185053 123.472914 
L 191.099252 120.78916 
L 190.013451 110.425472 
L 188.92765 115.257354 
L 187.841849 121.443475 
L 186.756047 122.346339 
L 185.670246 118.635899 
L 184.584445 120.535341 
L 183.498644 129.425776 
L 182.412843 121.938722 
L 181.327042 118.475803 
L 180.24124 120.373842 
L 179.155439 120.673312 
L 178.069638 122.729253 
L 176.983837 130.5356 
L 175.898036 126.710073 
L 174.812235 128.300997 
L 173.726434 122.271817 
L 172.640632 121.700631 
L 171.554831 122.549056 
L 170.46903 117.07282 
L 169.383229 119.9425 
L 168.297428 102.154267 
L 167.211627 100.063576 
L 166.125825 103.217264 
L 165.040024 102.576009 
L 163.954223 100.242945 
L 162.868422 98.98602 
L 161.782621 106.217632 
L 160.69682 114.439316 
L 159.611019 108.16734 
L 158.525217 109.41545 
L 157.439416 109.478117 
L 156.353615 118.127986 
L 155.267814 113.855111 
L 154.182013 114.622151 
L 153.096212 115.882358 
L 152.01041 121.952167 
L 150.924609 113.994798 
L 149.838808 114.821832 
L 148.753007 111.469035 
L 147.667206 109.682654 
L 146.581405 109.350027 
L 145.495604 105.653785 
L 144.409802 107.339656 
L 143.324001 105.177556 
L 142.2382 89.820765 
L 141.152399 90.186137 
L 140.066598 80.066931 
L 138.980797 88.385419 
L 137.894995 75.234549 
L 136.809194 72.219613 
L 135.723393 77.142764 
L 134.637592 71.549582 
L 133.551791 61.401094 
L 132.46599 70.398269 
L 131.380189 82.161398 
L 130.294387 77.493062 
L 129.208586 66.127001 
L 128.122785 68.725625 
L 127.036984 75.304583 
L 125.951183 77.904782 
L 124.865382 78.303639 
L 123.77958 73.500423 
L 122.693779 71.971553 
L 121.607978 71.025256 
L 120.522177 89.091984 
L 119.436376 89.543309 
L 118.350575 92.118455 
L 117.264773 92.59577 
L 116.178972 98.036298 
L 115.093171 100.726513 
L 114.00737 106.902623 
L 112.921569 107.400649 
L 111.835768 101.135379 
L 110.749967 112.705052 
L 109.664165 105.805253 
L 108.578364 103.451574 
L 107.492563 96.908498 
L 106.406762 99.838919 
L 105.320961 99.090044 
L 104.23516 103.123323 
L 103.149358 106.861707 
L 102.063557 101.838336 
L 100.977756 87.902275 
L 99.891955 93.482192 
L 98.806154 89.633458 
L 97.720353 88.431075 
L 96.634552 85.03863 
L 95.54875 84.150663 
L 94.462949 68.219627 
L 93.377148 55.262143 
L 92.291347 57.542554 
L 91.205546 63.02567 
L 90.119745 76.013102 
L 89.033943 85.035586 
L 87.948142 85.651869 
L 86.862341 82.679636 
L 85.77654 86.005643 
L 84.690739 94.205023 
L 83.604938 93.568234 
L 82.519137 99.838226 
L 81.433335 93.766976 
L 80.347534 85.117415 
L 79.261733 79.189799 
L 78.175932 66.211645 
L 77.090131 61.340497 
L 76.00433 53.568 
L 74.918528 63.598946 
L 73.832727 60.307163 
z
" style="fill:#008000;fill-opacity:0.25;"/>
   </g>
   <g id="matplotlib.axis_3">
    <g id="ytick_9">
     <g id="line2d_17">
      <path clip-path="url(#p89f7888668)" d="M 57.6 294.66713 
L 414.72 294.66713 
" style="fill:none;stroke:#b0b0b0;stroke-linecap:square;stroke-width:0.8;"/>
     </g>
     <g id="line2d_18">
      <defs>
       <path d="M 0 0 
L 3.5 0 
" id="m9668bdef60" style="stroke:#000000;stroke-width:0.8;"/>
      </defs>
      <g>
       <use style="stroke:#000000;stroke-width:0.8;" x="414.72" xlink:href="#m9668bdef60" y="294.66713"/>
      </g>
     </g>
     <g id="text_17">
      <!-- 0.2 -->
      <defs>
       <path d="M 10.59375 35.5 
L 73.1875 35.5 
L 73.1875 27.203125 
L 10.59375 27.203125 
z
" id="DejaVuSans-8722"/>
      </defs>
      <g transform="translate(421.72 298.466349)scale(0.1 -0.1)">
       <use xlink:href="#DejaVuSans-8722"/>
       <use x="83.789062" xlink:href="#DejaVuSans-48"/>
       <use x="147.412109" xlink:href="#DejaVuSans-46"/>
       <use x="179.199219" xlink:href="#DejaVuSans-50"/>
      </g>
     </g>
    </g>
    <g id="ytick_10">
     <g id="line2d_19">
      <path clip-path="url(#p89f7888668)" d="M 57.6 251.531674 
L 414.72 251.531674 
" style="fill:none;stroke:#b0b0b0;stroke-linecap:square;stroke-width:0.8;"/>
     </g>
     <g id="line2d_20">
      <g>
       <use style="stroke:#000000;stroke-width:0.8;" x="414.72" xlink:href="#m9668bdef60" y="251.531674"/>
      </g>
     </g>
     <g id="text_18">
      <!-- 0.0 -->
      <g transform="translate(421.72 255.330893)scale(0.1 -0.1)">
       <use xlink:href="#DejaVuSans-48"/>
       <use x="63.623047" xlink:href="#DejaVuSans-46"/>
       <use x="95.410156" xlink:href="#DejaVuSans-48"/>
      </g>
     </g>
    </g>
    <g id="ytick_11">
     <g id="line2d_21">
      <path clip-path="url(#p89f7888668)" d="M 57.6 208.396218 
L 414.72 208.396218 
" style="fill:none;stroke:#b0b0b0;stroke-linecap:square;stroke-width:0.8;"/>
     </g>
     <g id="line2d_22">
      <g>
       <use style="stroke:#000000;stroke-width:0.8;" x="414.72" xlink:href="#m9668bdef60" y="208.396218"/>
      </g>
     </g>
     <g id="text_19">
      <!-- 0.2 -->
      <g transform="translate(421.72 212.195437)scale(0.1 -0.1)">
       <use xlink:href="#DejaVuSans-48"/>
       <use x="63.623047" xlink:href="#DejaVuSans-46"/>
       <use x="95.410156" xlink:href="#DejaVuSans-50"/>
      </g>
     </g>
    </g>
    <g id="ytick_12">
     <g id="line2d_23">
      <path clip-path="url(#p89f7888668)" d="M 57.6 165.260762 
L 414.72 165.260762 
" style="fill:none;stroke:#b0b0b0;stroke-linecap:square;stroke-width:0.8;"/>
     </g>
     <g id="line2d_24">
      <g>
       <use style="stroke:#000000;stroke-width:0.8;" x="414.72" xlink:href="#m9668bdef60" y="165.260762"/>
      </g>
     </g>
     <g id="text_20">
      <!-- 0.4 -->
      <g transform="translate(421.72 169.05998)scale(0.1 -0.1)">
       <use xlink:href="#DejaVuSans-48"/>
       <use x="63.623047" xlink:href="#DejaVuSans-46"/>
       <use x="95.410156" xlink:href="#DejaVuSans-52"/>
      </g>
     </g>
    </g>
    <g id="ytick_13">
     <g id="line2d_25">
      <path clip-path="url(#p89f7888668)" d="M 57.6 122.125306 
L 414.72 122.125306 
" style="fill:none;stroke:#b0b0b0;stroke-linecap:square;stroke-width:0.8;"/>
     </g>
     <g id="line2d_26">
      <g>
       <use style="stroke:#000000;stroke-width:0.8;" x="414.72" xlink:href="#m9668bdef60" y="122.125306"/>
      </g>
     </g>
     <g id="text_21">
      <!-- 0.6 -->
      <g transform="translate(421.72 125.924524)scale(0.1 -0.1)">
       <use xlink:href="#DejaVuSans-48"/>
       <use x="63.623047" xlink:href="#DejaVuSans-46"/>
       <use x="95.410156" xlink:href="#DejaVuSans-54"/>
      </g>
     </g>
    </g>
    <g id="ytick_14">
     <g id="line2d_27">
      <path clip-path="url(#p89f7888668)" d="M 57.6 78.989849 
L 414.72 78.989849 
" style="fill:none;stroke:#b0b0b0;stroke-linecap:square;stroke-width:0.8;"/>
     </g>
     <g id="line2d_28">
      <g>
       <use style="stroke:#000000;stroke-width:0.8;" x="414.72" xlink:href="#m9668bdef60" y="78.989849"/>
      </g>
     </g>
     <g id="text_22">
      <!-- 0.8 -->
      <g transform="translate(421.72 82.789068)scale(0.1 -0.1)">
       <use xlink:href="#DejaVuSans-48"/>
       <use x="63.623047" xlink:href="#DejaVuSans-46"/>
       <use x="95.410156" xlink:href="#DejaVuSans-56"/>
      </g>
     </g>
    </g>
    <g id="text_23">
     <!-- Loudness -->
     <defs>
      <path d="M 9.8125 72.90625 
L 19.671875 72.90625 
L 19.671875 8.296875 
L 55.171875 8.296875 
L 55.171875 0 
L 9.8125 0 
z
" id="DejaVuSans-76"/>
      <path d="M 30.609375 48.390625 
Q 23.390625 48.390625 19.1875 42.75 
Q 14.984375 37.109375 14.984375 27.296875 
Q 14.984375 17.484375 19.15625 11.84375 
Q 23.34375 6.203125 30.609375 6.203125 
Q 37.796875 6.203125 41.984375 11.859375 
Q 46.1875 17.53125 46.1875 27.296875 
Q 46.1875 37.015625 41.984375 42.703125 
Q 37.796875 48.390625 30.609375 48.390625 
z
M 30.609375 56 
Q 42.328125 56 49.015625 48.375 
Q 55.71875 40.765625 55.71875 27.296875 
Q 55.71875 13.875 49.015625 6.21875 
Q 42.328125 -1.421875 30.609375 -1.421875 
Q 18.84375 -1.421875 12.171875 6.21875 
Q 5.515625 13.875 5.515625 27.296875 
Q 5.515625 40.765625 12.171875 48.375 
Q 18.84375 56 30.609375 56 
z
" id="DejaVuSans-111"/>
      <path d="M 8.5 21.578125 
L 8.5 54.6875 
L 17.484375 54.6875 
L 17.484375 21.921875 
Q 17.484375 14.15625 20.5 10.265625 
Q 23.53125 6.390625 29.59375 6.390625 
Q 36.859375 6.390625 41.078125 11.03125 
Q 45.3125 15.671875 45.3125 23.6875 
L 45.3125 54.6875 
L 54.296875 54.6875 
L 54.296875 0 
L 45.3125 0 
L 45.3125 8.40625 
Q 42.046875 3.421875 37.71875 1 
Q 33.40625 -1.421875 27.6875 -1.421875 
Q 18.265625 -1.421875 13.375 4.4375 
Q 8.5 10.296875 8.5 21.578125 
z
M 31.109375 56 
z
" id="DejaVuSans-117"/>
      <path d="M 45.40625 46.390625 
L 45.40625 75.984375 
L 54.390625 75.984375 
L 54.390625 0 
L 45.40625 0 
L 45.40625 8.203125 
Q 42.578125 3.328125 38.25 0.953125 
Q 33.9375 -1.421875 27.875 -1.421875 
Q 17.96875 -1.421875 11.734375 6.484375 
Q 5.515625 14.40625 5.515625 27.296875 
Q 5.515625 40.1875 11.734375 48.09375 
Q 17.96875 56 27.875 56 
Q 33.9375 56 38.25 53.625 
Q 42.578125 51.265625 45.40625 46.390625 
z
M 14.796875 27.296875 
Q 14.796875 17.390625 18.875 11.75 
Q 22.953125 6.109375 30.078125 6.109375 
Q 37.203125 6.109375 41.296875 11.75 
Q 45.40625 17.390625 45.40625 27.296875 
Q 45.40625 37.203125 41.296875 42.84375 
Q 37.203125 48.484375 30.078125 48.484375 
Q 22.953125 48.484375 18.875 42.84375 
Q 14.796875 37.203125 14.796875 27.296875 
z
" id="DejaVuSans-100"/>
     </defs>
     <g transform="translate(457.60125 198.170187)rotate(-90)scale(0.1 -0.1)">
      <use xlink:href="#DejaVuSans-76"/>
      <use x="55.697266" xlink:href="#DejaVuSans-111"/>
      <use x="116.878906" xlink:href="#DejaVuSans-117"/>
      <use x="180.257812" xlink:href="#DejaVuSans-100"/>
      <use x="243.734375" xlink:href="#DejaVuSans-110"/>
      <use x="307.113281" xlink:href="#DejaVuSans-101"/>
      <use x="368.636719" xlink:href="#DejaVuSans-115"/>
      <use x="420.736328" xlink:href="#DejaVuSans-115"/>
     </g>
    </g>
   </g>
   <g id="line2d_29">
    <path clip-path="url(#p89f7888668)" d="M 73.832727 156.736348 
L 74.918528 160.069926 
L 76.00433 151.070491 
L 77.090131 160.048469 
L 78.175932 164.046479 
L 79.261733 175.141624 
L 80.347534 179.206762 
L 81.433335 186.642706 
L 82.519137 190.740101 
L 83.604938 186.332515 
L 84.690739 186.829059 
L 85.77654 181.816136 
L 86.862341 179.311083 
L 87.948142 181.344048 
L 89.033943 180.830208 
L 90.119745 174.373401 
L 91.205546 163.523795 
L 92.291347 159.169348 
L 93.377148 156.41931 
L 95.54875 180.569418 
L 96.634552 181.105412 
L 97.720353 183.43712 
L 98.806154 184.35243 
L 99.891955 187.472486 
L 100.977756 182.772809 
L 102.063557 192.345819 
L 103.149358 196.772431 
L 104.23516 194.085076 
L 105.320961 190.840463 
L 106.406762 191.592913 
L 107.492563 190.013181 
L 108.578364 194.035277 
L 109.664165 195.835045 
L 110.749967 200.156357 
L 111.835768 192.919854 
L 112.921569 196.637146 
L 114.00737 196.728498 
L 115.093171 192.250869 
L 116.178972 190.367985 
L 117.264773 186.585776 
L 118.350575 186.498933 
L 119.436376 185.351776 
L 120.522177 184.4645 
L 121.607978 170.857546 
L 122.693779 171.745325 
L 123.77958 173.530301 
L 124.865382 176.60624 
L 125.951183 176.758069 
L 127.036984 174.702308 
L 128.122785 169.641775 
L 129.208586 166.742149 
L 130.294387 175.323599 
L 131.380189 178.903058 
L 132.46599 169.528593 
L 133.551791 162.507483 
L 134.637592 171.914576 
L 135.723393 175.687847 
L 136.809194 171.212687 
L 137.894995 173.90101 
L 138.980797 183.525302 
L 140.066598 177.772506 
L 141.152399 184.970141 
L 142.2382 184.236628 
L 143.324001 194.776475 
L 144.409802 195.968207 
L 145.495604 195.380846 
L 146.581405 197.504331 
L 147.667206 198.501758 
L 149.838808 201.618083 
L 150.924609 200.726777 
L 152.01041 205.598523 
L 153.096212 202.681205 
L 154.182013 201.816238 
L 155.267814 200.727439 
L 156.353615 203.487595 
L 157.439416 198.330716 
L 158.525217 197.964653 
L 159.611019 197.143853 
L 160.69682 200.795427 
L 161.782621 196.209503 
L 162.868422 191.027213 
L 163.954223 192.090406 
L 165.040024 193.666109 
L 166.125825 194.261557 
L 167.211627 192.334569 
L 168.297428 193.636436 
L 169.383229 205.355805 
L 170.46903 203.36314 
L 171.554831 206.457524 
L 172.640632 205.601275 
L 173.726434 206.008823 
L 174.812235 209.336738 
L 175.898036 208.427948 
L 176.983837 210.910046 
L 178.069638 205.65584 
L 179.155439 205.520556 
L 180.24124 205.241532 
L 181.327042 203.891539 
L 182.412843 206.172638 
L 183.498644 209.952882 
L 184.584445 204.804551 
L 185.670246 203.563742 
L 186.756047 205.811629 
L 187.841849 204.963818 
L 188.92765 200.80331 
L 190.013451 198.162723 
L 191.099252 204.67037 
L 192.185053 206.760392 
L 193.270854 206.072363 
L 194.356656 206.598952 
L 195.442457 199.089497 
L 196.528258 203.162625 
L 197.614059 203.345154 
L 198.69986 203.732704 
L 199.785661 205.11685 
L 200.871462 208.24483 
L 201.957264 208.260897 
L 203.043065 210.093052 
L 204.128866 209.660649 
L 205.214667 205.227662 
L 206.300468 210.099805 
L 207.386269 207.774477 
L 208.472071 204.944382 
L 209.557872 206.886072 
L 210.643673 205.95576 
L 211.729474 204.205511 
L 212.815275 203.590643 
L 213.901076 202.656272 
L 214.986877 201.312928 
L 216.072679 201.043792 
L 217.15848 201.655394 
L 219.330082 203.272033 
L 220.415883 206.626532 
L 221.501684 199.299444 
L 222.587486 198.90294 
L 223.673287 193.174937 
L 224.759088 188.732084 
L 225.844889 187.637862 
L 226.93069 188.90478 
L 228.016491 191.215836 
L 229.102292 189.321205 
L 230.188094 189.883437 
L 231.273895 186.190859 
L 232.359696 188.254072 
L 233.445497 189.271233 
L 234.531298 191.615791 
L 236.702901 195.534199 
L 237.788702 191.774911 
L 238.874503 198.422481 
L 239.960304 201.937939 
L 241.046105 201.16059 
L 242.131906 198.49858 
L 243.217708 194.364351 
L 244.303509 188.739614 
L 245.38931 180.364989 
L 246.475111 186.603215 
L 247.560912 185.567309 
L 248.646713 197.518207 
L 249.732514 196.163048 
L 250.818316 190.521952 
L 251.904117 183.892202 
L 252.989918 183.629272 
L 254.075719 190.735295 
L 255.16152 192.834329 
L 256.247321 194.680508 
L 257.333123 191.065668 
L 258.418924 196.276633 
L 259.504725 197.372524 
L 260.590526 187.992151 
L 261.676327 186.053769 
L 262.762128 198.261344 
L 263.847929 191.082215 
L 264.933731 196.71658 
L 266.019532 199.032012 
L 267.105333 200.166676 
L 268.191134 206.52584 
L 269.276935 204.267531 
L 270.362736 215.110391 
L 271.448538 217.144413 
L 272.534339 214.511795 
L 273.62014 211.173428 
L 274.705941 216.921612 
L 275.791742 212.686183 
L 276.877543 206.814061 
L 277.963344 211.722779 
L 279.049146 211.646112 
L 280.134947 210.138241 
L 281.220748 209.680105 
L 282.306549 213.612995 
L 283.39235 218.6789 
L 284.478151 219.696098 
L 285.563953 220.522388 
L 286.649754 221.205844 
L 287.735555 218.931599 
L 288.821356 211.40712 
L 289.907157 214.25139 
L 290.992958 212.730135 
L 292.07876 214.490137 
L 293.164561 217.854443 
L 294.250362 212.915033 
L 295.336163 217.302949 
L 296.421964 215.746779 
L 297.507765 217.715893 
L 298.593566 216.458081 
L 299.679368 216.616609 
L 300.765169 214.745415 
L 301.85097 215.141387 
L 302.936771 211.006936 
L 304.022572 209.761396 
L 305.108373 206.058174 
L 306.194175 210.955871 
L 307.279976 211.225513 
L 308.365777 205.617974 
L 309.451578 206.316179 
L 310.537379 200.381851 
L 311.62318 189.479741 
L 312.708981 194.802697 
L 313.794783 186.272467 
L 314.880584 179.766239 
L 315.966385 178.504439 
L 317.052186 176.61081 
L 318.137987 190.077147 
L 320.30959 180.790078 
L 321.395391 194.740079 
L 322.481192 188.897675 
L 323.566993 183.810824 
L 324.652794 182.28419 
L 325.738595 185.794811 
L 326.824396 185.898015 
L 327.910198 192.330504 
L 328.995999 189.795945 
L 330.0818 184.076479 
L 331.167601 181.200838 
L 332.253402 185.578959 
L 333.339203 178.996798 
L 334.425005 178.1179 
L 335.510806 184.448359 
L 336.596607 184.271917 
L 337.682408 182.492346 
L 338.768209 184.223686 
L 339.85401 185.539201 
L 340.939811 192.607694 
L 342.025613 188.840925 
L 343.111414 189.948773 
L 344.197215 197.375912 
L 345.283016 202.661629 
L 346.368817 198.939839 
L 347.454618 204.707348 
L 348.54042 204.061609 
L 349.626221 206.521864 
L 350.712022 207.130002 
L 351.797823 196.110056 
L 352.883624 202.075947 
L 353.969425 198.915522 
L 355.055227 207.298007 
L 356.141028 206.146825 
L 357.226829 208.557982 
L 358.31263 203.386678 
L 359.398431 209.256797 
L 360.484232 195.984628 
L 361.570033 192.025017 
L 362.655835 190.98496 
L 363.741636 191.627863 
L 364.827437 183.374759 
L 366.999039 183.540604 
L 368.08484 186.576847 
L 369.170642 181.442961 
L 370.256443 180.363285 
L 371.342244 182.812847 
L 372.428045 172.959156 
L 373.513846 161.509247 
L 374.599647 177.871977 
L 375.685448 167.799516 
L 376.77125 171.473092 
L 377.857051 186.653192 
L 378.942852 195.309445 
L 381.114454 206.024517 
L 382.200255 212.748259 
L 383.286057 214.410082 
L 384.371858 216.287236 
L 385.457659 212.682944 
L 386.54346 212.712128 
L 387.629261 212.037617 
L 388.715062 214.892852 
L 389.800863 215.025438 
L 390.886665 212.367808 
L 391.972466 210.63906 
L 393.058267 212.266701 
L 394.144068 216.254561 
L 395.229869 217.990604 
L 396.31567 215.157973 
L 397.401472 213.196619 
L 398.487273 215.744498 
L 398.487273 215.744498 
" style="fill:none;stroke:#008000;stroke-linecap:square;stroke-width:1.5;"/>
   </g>
   <g id="patch_7">
    <path d="M 57.6 307.584 
L 57.6 41.472 
" style="fill:none;stroke:#000000;stroke-linecap:square;stroke-linejoin:miter;stroke-width:0.8;"/>
   </g>
   <g id="patch_8">
    <path d="M 414.72 307.584 
L 414.72 41.472 
" style="fill:none;stroke:#000000;stroke-linecap:square;stroke-linejoin:miter;stroke-width:0.8;"/>
   </g>
   <g id="patch_9">
    <path d="M 57.6 307.584 
L 414.72 307.584 
" style="fill:none;stroke:#000000;stroke-linecap:square;stroke-linejoin:miter;stroke-width:0.8;"/>
   </g>
   <g id="patch_10">
    <path d="M 57.6 41.472 
L 414.72 41.472 
" style="fill:none;stroke:#000000;stroke-linecap:square;stroke-linejoin:miter;stroke-width:0.8;"/>
   </g>
   <g id="text_24">
    <!-- Message Difference and Loudness -->
    <defs>
     <path d="M 9.8125 72.90625 
L 24.515625 72.90625 
L 43.109375 23.296875 
L 61.8125 72.90625 
L 76.515625 72.90625 
L 76.515625 0 
L 66.890625 0 
L 66.890625 64.015625 
L 48.09375 14.015625 
L 38.1875 14.015625 
L 19.390625 64.015625 
L 19.390625 0 
L 9.8125 0 
z
" id="DejaVuSans-77"/>
     <path d="M 45.40625 27.984375 
Q 45.40625 37.75 41.375 43.109375 
Q 37.359375 48.484375 30.078125 48.484375 
Q 22.859375 48.484375 18.828125 43.109375 
Q 14.796875 37.75 14.796875 27.984375 
Q 14.796875 18.265625 18.828125 12.890625 
Q 22.859375 7.515625 30.078125 7.515625 
Q 37.359375 7.515625 41.375 12.890625 
Q 45.40625 18.265625 45.40625 27.984375 
z
M 54.390625 6.78125 
Q 54.390625 -7.171875 48.1875 -13.984375 
Q 42 -20.796875 29.203125 -20.796875 
Q 24.46875 -20.796875 20.265625 -20.09375 
Q 16.0625 -19.390625 12.109375 -17.921875 
L 12.109375 -9.1875 
Q 16.0625 -11.328125 19.921875 -12.34375 
Q 23.78125 -13.375 27.78125 -13.375 
Q 36.625 -13.375 41.015625 -8.765625 
Q 45.40625 -4.15625 45.40625 5.171875 
L 45.40625 9.625 
Q 42.625 4.78125 38.28125 2.390625 
Q 33.9375 0 27.875 0 
Q 17.828125 0 11.671875 7.65625 
Q 5.515625 15.328125 5.515625 27.984375 
Q 5.515625 40.671875 11.671875 48.328125 
Q 17.828125 56 27.875 56 
Q 33.9375 56 38.28125 53.609375 
Q 42.625 51.21875 45.40625 46.390625 
L 45.40625 54.6875 
L 54.390625 54.6875 
z
" id="DejaVuSans-103"/>
     <path id="DejaVuSans-32"/>
     <path d="M 37.109375 75.984375 
L 37.109375 68.5 
L 28.515625 68.5 
Q 23.6875 68.5 21.796875 66.546875 
Q 19.921875 64.59375 19.921875 59.515625 
L 19.921875 54.6875 
L 34.71875 54.6875 
L 34.71875 47.703125 
L 19.921875 47.703125 
L 19.921875 0 
L 10.890625 0 
L 10.890625 47.703125 
L 2.296875 47.703125 
L 2.296875 54.6875 
L 10.890625 54.6875 
L 10.890625 58.5 
Q 10.890625 67.625 15.140625 71.796875 
Q 19.390625 75.984375 28.609375 75.984375 
z
" id="DejaVuSans-102"/>
     <path d="M 41.109375 46.296875 
Q 39.59375 47.171875 37.8125 47.578125 
Q 36.03125 48 33.890625 48 
Q 26.265625 48 22.1875 43.046875 
Q 18.109375 38.09375 18.109375 28.8125 
L 18.109375 0 
L 9.078125 0 
L 9.078125 54.6875 
L 18.109375 54.6875 
L 18.109375 46.1875 
Q 20.953125 51.171875 25.484375 53.578125 
Q 30.03125 56 36.53125 56 
Q 37.453125 56 38.578125 55.875 
Q 39.703125 55.765625 41.0625 55.515625 
z
" id="DejaVuSans-114"/>
    </defs>
    <g transform="translate(133.329375 35.472)scale(0.12 -0.12)">
     <use xlink:href="#DejaVuSans-77"/>
     <use x="86.279297" xlink:href="#DejaVuSans-101"/>
     <use x="147.802734" xlink:href="#DejaVuSans-115"/>
     <use x="199.902344" xlink:href="#DejaVuSans-115"/>
     <use x="252.001953" xlink:href="#DejaVuSans-97"/>
     <use x="313.28125" xlink:href="#DejaVuSans-103"/>
     <use x="376.757812" xlink:href="#DejaVuSans-101"/>
     <use x="438.28125" xlink:href="#DejaVuSans-32"/>
     <use x="470.068359" xlink:href="#DejaVuSans-68"/>
     <use x="547.070312" xlink:href="#DejaVuSans-105"/>
     <use x="574.853516" xlink:href="#DejaVuSans-102"/>
     <use x="610.058594" xlink:href="#DejaVuSans-102"/>
     <use x="645.263672" xlink:href="#DejaVuSans-101"/>
     <use x="706.787109" xlink:href="#DejaVuSans-114"/>
     <use x="747.869141" xlink:href="#DejaVuSans-101"/>
     <use x="809.392578" xlink:href="#DejaVuSans-110"/>
     <use x="872.771484" xlink:href="#DejaVuSans-99"/>
     <use x="927.751953" xlink:href="#DejaVuSans-101"/>
     <use x="989.275391" xlink:href="#DejaVuSans-32"/>
     <use x="1021.0625" xlink:href="#DejaVuSans-97"/>
     <use x="1082.341797" xlink:href="#DejaVuSans-110"/>
     <use x="1145.720703" xlink:href="#DejaVuSans-100"/>
     <use x="1209.197266" xlink:href="#DejaVuSans-32"/>
     <use x="1240.984375" xlink:href="#DejaVuSans-76"/>
     <use x="1296.681641" xlink:href="#DejaVuSans-111"/>
     <use x="1357.863281" xlink:href="#DejaVuSans-117"/>
     <use x="1421.242188" xlink:href="#DejaVuSans-100"/>
     <use x="1484.71875" xlink:href="#DejaVuSans-110"/>
     <use x="1548.097656" xlink:href="#DejaVuSans-101"/>
     <use x="1609.621094" xlink:href="#DejaVuSans-115"/>
     <use x="1661.720703" xlink:href="#DejaVuSans-115"/>
    </g>
   </g>
   <g id="legend_1">
    <g id="patch_11">
     <path d="M 331.227813 64.150125 
L 407.72 64.150125 
Q 409.72 64.150125 409.72 62.150125 
L 409.72 48.472 
Q 409.72 46.472 407.72 46.472 
L 331.227813 46.472 
Q 329.227813 46.472 329.227813 48.472 
L 329.227813 62.150125 
Q 329.227813 64.150125 331.227813 64.150125 
z
" style="fill:#ffffff;opacity:0.8;stroke:#cccccc;stroke-linejoin:miter;"/>
    </g>
    <g id="line2d_30">
     <path d="M 333.227813 54.570438 
L 353.227813 54.570438 
" style="fill:none;stroke:#008000;stroke-linecap:square;stroke-width:1.5;"/>
    </g>
    <g id="line2d_31"/>
    <g id="text_25">
     <!-- loudness -->
     <defs>
      <path d="M 9.421875 75.984375 
L 18.40625 75.984375 
L 18.40625 0 
L 9.421875 0 
z
" id="DejaVuSans-108"/>
     </defs>
     <g transform="translate(361.227813 58.070438)scale(0.1 -0.1)">
      <use xlink:href="#DejaVuSans-108"/>
      <use x="27.783203" xlink:href="#DejaVuSans-111"/>
      <use x="88.964844" xlink:href="#DejaVuSans-117"/>
      <use x="152.34375" xlink:href="#DejaVuSans-100"/>
      <use x="215.820312" xlink:href="#DejaVuSans-110"/>
      <use x="279.199219" xlink:href="#DejaVuSans-101"/>
      <use x="340.722656" xlink:href="#DejaVuSans-115"/>
      <use x="392.822266" xlink:href="#DejaVuSans-115"/>
     </g>
    </g>
   </g>
  </g>
 </g>
 <defs>
  <clipPath id="p89f7888668">
   <rect height="266.112" width="357.12" x="57.6" y="41.472"/>
  </clipPath>
 </defs>
</svg>
