<?xml version="1.0" encoding="UTF-8" standalone="no"?>
<!DOCTYPE svg PUBLIC "-//W3C//DTD SVG 1.1//EN"
 "http://www.w3.org/Graphics/SVG/1.1/DTD/svg11.dtd">
<!-- Generated by graphviz version 2.40.1 (20161225.0304)
 -->
<!-- Title: %3 Pages: 1 -->
<svg width="485pt" height="350pt"
 viewBox="0.00 0.00 484.77 350.02" xmlns="http://www.w3.org/2000/svg" xmlns:xlink="http://www.w3.org/1999/xlink">
<g id="graph0" class="graph" transform="scale(1 1) rotate(0) translate(4 346.0159)">
<title>%3</title>
<polygon fill="#ffffff" stroke="transparent" points="-4,4 -4,-346.0159 480.7661,-346.0159 480.7661,4 -4,4"/>
<!-- 0 -->
<g id="node1" class="node">
<title>0</title>
<polygon fill="#d3d3d3" stroke="#000000" points="292.389,-342.0159 272.3771,-342.0159 272.3771,-325.0159 292.389,-325.0159 292.389,-342.0159"/>
<text text-anchor="middle" x="282.383" y="-330.8159" font-family="Times,serif" font-size="9.00" fill="#000000">0</text>
</g>
<!-- 1 -->
<g id="node2" class="node">
<title>1</title>
<polygon fill="#d3d3d3" stroke="#000000" points="334.389,-342.0159 314.3771,-342.0159 314.3771,-325.0159 334.389,-325.0159 334.389,-342.0159"/>
<text text-anchor="middle" x="324.383" y="-330.8159" font-family="Times,serif" font-size="9.00" fill="#000000">1</text>
</g>
<!-- 0&#45;&gt;1 -->
<!-- E6 -->
<g id="node10" class="node">
<title>E6</title>
<ellipse fill="#87cefa" stroke="#000000" cx="348.383" cy="-18.383" rx="18.2668" ry="18.2668"/>
<text text-anchor="middle" x="348.383" y="-15.683" font-family="Times,serif" font-size="9.00" fill="#000000">E6</text>
</g>
<!-- 0&#45;&gt;E6 -->
<g id="edge12" class="edge">
<title>0&#45;&gt;E6</title>
<path fill="none" stroke="#ff0000" stroke-width="1.3915" d="M283.33,-324.7915C285.1791,-308.322 289.6001,-271.5552 295.383,-240.9326 308.7681,-170.0545 329.8352,-87.7385 340.9486,-45.8835"/>
<polygon fill="#ff0000" stroke="#ff0000" stroke-width="1.3915" points="344.3504,-46.7101 343.5489,-36.1457 337.5874,-44.9042 344.3504,-46.7101"/>
</g>
<!-- 2 -->
<g id="node3" class="node">
<title>2</title>
<polygon fill="#d3d3d3" stroke="#000000" points="390.389,-342.0159 370.3771,-342.0159 370.3771,-325.0159 390.389,-325.0159 390.389,-342.0159"/>
<text text-anchor="middle" x="380.383" y="-330.8159" font-family="Times,serif" font-size="9.00" fill="#000000">2</text>
</g>
<!-- 1&#45;&gt;2 -->
<!-- E0 -->
<g id="node4" class="node">
<title>E0</title>
<ellipse fill="#87cefa" stroke="#000000" cx="18.383" cy="-18.383" rx="18.2668" ry="18.2668"/>
<text text-anchor="middle" x="18.383" y="-15.683" font-family="Times,serif" font-size="9.00" fill="#000000">E0</text>
</g>
<!-- 1&#45;&gt;E0 -->
<g id="edge13" class="edge">
<title>1&#45;&gt;E0</title>
<path fill="none" stroke="#ff0000" stroke-width="3.6946" d="M314.2533,-329.5268C271.8481,-312.2416 107.5457,-239.3023 37.383,-120.8494 24.1314,-98.4771 19.7705,-68.93 18.4943,-47.3151"/>
<polygon fill="#ff0000" stroke="#ff0000" stroke-width="3.6946" points="21.9831,-46.9629 18.0836,-37.1117 14.9887,-47.2444 21.9831,-46.9629"/>
</g>
<!-- 5585 -->
<g id="node16" class="node">
<title>5585</title>
<ellipse fill="#add8e6" stroke="#000000" cx="328.383" cy="-264.9743" rx="24.0833" ry="24.0833"/>
<text text-anchor="middle" x="328.383" y="-266.7743" font-family="Times,serif" font-size="9.00" fill="#000000">5585</text>
<text text-anchor="middle" x="328.383" y="-257.7743" font-family="Times,serif" font-size="9.00" fill="#000000">sigm</text>
</g>
<!-- 1&#45;&gt;5585 -->
<g id="edge18" class="edge">
<title>1&#45;&gt;5585</title>
<path fill="none" stroke="#00ff00" stroke-width=".4624" d="M324.8897,-324.835C325.2725,-318.2744 325.825,-308.8069 326.3781,-299.3307"/>
<polygon fill="#00ff00" stroke="#00ff00" stroke-width=".4624" points="329.8817,-299.3686 326.9703,-289.1817 322.8936,-298.9607 329.8817,-299.3686"/>
</g>
<!-- E7 -->
<g id="node11" class="node">
<title>E7</title>
<ellipse fill="#87cefa" stroke="#000000" cx="403.383" cy="-18.383" rx="18.2668" ry="18.2668"/>
<text text-anchor="middle" x="403.383" y="-15.683" font-family="Times,serif" font-size="9.00" fill="#000000">E7</text>
</g>
<!-- 2&#45;&gt;E7 -->
<g id="edge11" class="edge">
<title>2&#45;&gt;E7</title>
<path fill="none" stroke="#00ff00" stroke-width="1.603" d="M381.0222,-324.7585C383.9697,-284.373 396.3185,-115.1774 401.2931,-47.0177"/>
<polygon fill="#00ff00" stroke="#00ff00" stroke-width="1.603" points="404.7884,-47.2095 402.0257,-36.9812 397.8069,-46.6999 404.7884,-47.2095"/>
</g>
<!-- E1 -->
<g id="node5" class="node">
<title>E1</title>
<ellipse fill="#87cefa" stroke="#000000" cx="73.383" cy="-18.383" rx="18.2668" ry="18.2668"/>
<text text-anchor="middle" x="73.383" y="-15.683" font-family="Times,serif" font-size="9.00" fill="#000000">E1</text>
</g>
<!-- E0&#45;&gt;E1 -->
<!-- E2 -->
<g id="node6" class="node">
<title>E2</title>
<ellipse fill="#87cefa" stroke="#000000" cx="128.383" cy="-18.383" rx="18.2668" ry="18.2668"/>
<text text-anchor="middle" x="128.383" y="-15.683" font-family="Times,serif" font-size="9.00" fill="#000000">E2</text>
</g>
<!-- E1&#45;&gt;E2 -->
<!-- E3 -->
<g id="node7" class="node">
<title>E3</title>
<ellipse fill="#87cefa" stroke="#000000" cx="183.383" cy="-18.383" rx="18.2668" ry="18.2668"/>
<text text-anchor="middle" x="183.383" y="-15.683" font-family="Times,serif" font-size="9.00" fill="#000000">E3</text>
</g>
<!-- E2&#45;&gt;E3 -->
<!-- E4 -->
<g id="node8" class="node">
<title>E4</title>
<ellipse fill="#87cefa" stroke="#000000" cx="238.383" cy="-18.383" rx="18.2668" ry="18.2668"/>
<text text-anchor="middle" x="238.383" y="-15.683" font-family="Times,serif" font-size="9.00" fill="#000000">E4</text>
</g>
<!-- E3&#45;&gt;E4 -->
<!-- E5 -->
<g id="node9" class="node">
<title>E5</title>
<ellipse fill="#87cefa" stroke="#000000" cx="293.383" cy="-18.383" rx="18.2668" ry="18.2668"/>
<text text-anchor="middle" x="293.383" y="-15.683" font-family="Times,serif" font-size="9.00" fill="#000000">E5</text>
</g>
<!-- E4&#45;&gt;E5 -->
<!-- E5&#45;&gt;E6 -->
<!-- E6&#45;&gt;E7 -->
<!-- E8 -->
<g id="node12" class="node">
<title>E8</title>
<ellipse fill="#87cefa" stroke="#000000" cx="458.383" cy="-18.383" rx="18.2668" ry="18.2668"/>
<text text-anchor="middle" x="458.383" y="-15.683" font-family="Times,serif" font-size="9.00" fill="#000000">E8</text>
</g>
<!-- E7&#45;&gt;E8 -->
<!-- 5091 -->
<g id="node13" class="node">
<title>5091</title>
<ellipse fill="#add8e6" stroke="#000000" cx="173.383" cy="-180.891" rx="24.0833" ry="24.0833"/>
<text text-anchor="middle" x="173.383" y="-182.691" font-family="Times,serif" font-size="9.00" fill="#000000">5091</text>
<text text-anchor="middle" x="173.383" y="-173.691" font-family="Times,serif" font-size="9.00" fill="#000000">sigm</text>
</g>
<!-- 5091&#45;&gt;E0 -->
<g id="edge14" class="edge">
<title>5091&#45;&gt;E0</title>
<path fill="none" stroke="#ff0000" stroke-width=".1429" d="M162.8631,-159.0257C150.8543,-135.6746 129.4606,-98.5525 103.383,-72.7661 82.0774,-51.6984 71.5743,-52.9889 46.383,-36.7661 45.0997,-35.9396 43.7851,-35.0893 42.4592,-34.2289"/>
<polygon fill="#ff0000" stroke="#ff0000" stroke-width=".1429" points="44.0424,-31.0826 33.7558,-28.5456 40.2152,-36.9437 44.0424,-31.0826"/>
</g>
<!-- 5091&#45;&gt;E4 -->
<g id="edge20" class="edge">
<title>5091&#45;&gt;E4</title>
<path fill="none" stroke="#00ff00" stroke-width=".1684" d="M186.3509,-160.6286C193.2453,-149.2525 201.4897,-134.6148 207.383,-120.8494 217.8333,-96.4403 226.2741,-67.3635 231.6938,-46.4305"/>
<polygon fill="#00ff00" stroke="#00ff00" stroke-width=".1684" points="235.1264,-47.132 234.1772,-36.5797 228.3388,-45.4208 235.1264,-47.132"/>
</g>
<!-- 5510 -->
<g id="node14" class="node">
<title>5510</title>
<ellipse fill="#add8e6" stroke="#000000" cx="70.383" cy="-96.8077" rx="24.0833" ry="24.0833"/>
<text text-anchor="middle" x="70.383" y="-98.6077" font-family="Times,serif" font-size="9.00" fill="#000000">5510</text>
<text text-anchor="middle" x="70.383" y="-89.6077" font-family="Times,serif" font-size="9.00" fill="#000000">sigm</text>
</g>
<!-- 5091&#45;&gt;5510 -->
<g id="edge16" class="edge">
<title>5091&#45;&gt;5510</title>
<path fill="none" stroke="#00ff00" stroke-width=".2267" d="M154.4913,-165.4688C138.375,-152.3124 115.0213,-133.2478 97.0096,-118.5441"/>
<polygon fill="#00ff00" stroke="#00ff00" stroke-width=".2267" points="99.115,-115.7447 89.1551,-112.1321 94.6883,-121.1673 99.115,-115.7447"/>
</g>
<!-- 5510&#45;&gt;E0 -->
<g id="edge17" class="edge">
<title>5510&#45;&gt;E0</title>
<path fill="none" stroke="#00ff00" stroke-width=".1906" d="M56.9918,-76.6114C50.127,-66.2582 41.7149,-53.5713 34.4971,-42.6857"/>
<polygon fill="#00ff00" stroke="#00ff00" stroke-width=".1906" points="37.2184,-40.4564 28.7752,-34.0561 31.3844,-44.3247 37.2184,-40.4564"/>
</g>
<!-- 5323 -->
<g id="node15" class="node">
<title>5323</title>
<ellipse fill="#add8e6" stroke="#000000" cx="174.383" cy="-96.8077" rx="24.0833" ry="24.0833"/>
<text text-anchor="middle" x="174.383" y="-98.6077" font-family="Times,serif" font-size="9.00" fill="#000000">5323</text>
<text text-anchor="middle" x="174.383" y="-89.6077" font-family="Times,serif" font-size="9.00" fill="#000000">sigm</text>
</g>
<!-- 5323&#45;&gt;E2 -->
<g id="edge15" class="edge">
<title>5323&#45;&gt;E2</title>
<path fill="none" stroke="#00ff00" stroke-width=".4222" d="M162.0559,-75.7914C156.1691,-65.755 149.0836,-53.6752 142.9341,-43.1909"/>
<polygon fill="#00ff00" stroke="#00ff00" stroke-width=".4222" points="145.903,-41.3346 137.8246,-34.4797 139.865,-44.8763 145.903,-41.3346"/>
</g>
<!-- 5585&#45;&gt;5091 -->
<g id="edge19" class="edge">
<title>5585&#45;&gt;5091</title>
<path fill="none" stroke="#ff0000" stroke-width=".1712" d="M307.156,-253.4591C280.4067,-238.9484 234.2524,-213.911 203.7694,-197.3748"/>
<polygon fill="#ff0000" stroke="#ff0000" stroke-width=".1712" points="205.3101,-194.2287 194.8512,-192.5369 201.9722,-200.3817 205.3101,-194.2287"/>
</g>
</g>
</svg>
