<?xml version="1.0" encoding="UTF-8" standalone="no"?>
<!DOCTYPE svg PUBLIC "-//W3C//DTD SVG 1.1//EN"
 "http://www.w3.org/Graphics/SVG/1.1/DTD/svg11.dtd">
<!-- Generated by graphviz version 2.40.1 (20161225.0304)
 -->
<!-- Title: %3 Pages: 1 -->
<svg width="485pt" height="350pt"
 viewBox="0.00 0.00 484.77 350.02" xmlns="http://www.w3.org/2000/svg" xmlns:xlink="http://www.w3.org/1999/xlink">
<g id="graph0" class="graph" transform="scale(1 1) rotate(0) translate(4 346.0159)">
<title>%3</title>
<polygon fill="#ffffff" stroke="transparent" points="-4,4 -4,-346.0159 480.7661,-346.0159 480.7661,4 -4,4"/>
<!-- 0 -->
<g id="node1" class="node">
<title>0</title>
<polygon fill="#d3d3d3" stroke="#000000" points="240.389,-342.0159 220.3771,-342.0159 220.3771,-325.0159 240.389,-325.0159 240.389,-342.0159"/>
<text text-anchor="middle" x="230.383" y="-330.8159" font-family="Times,serif" font-size="9.00" fill="#000000">0</text>
</g>
<!-- 1 -->
<g id="node2" class="node">
<title>1</title>
<polygon fill="#d3d3d3" stroke="#000000" points="279.389,-342.0159 259.3771,-342.0159 259.3771,-325.0159 279.389,-325.0159 279.389,-342.0159"/>
<text text-anchor="middle" x="269.383" y="-330.8159" font-family="Times,serif" font-size="9.00" fill="#000000">1</text>
</g>
<!-- 0&#45;&gt;1 -->
<!-- E6 -->
<g id="node10" class="node">
<title>E6</title>
<ellipse fill="#87cefa" stroke="#000000" cx="348.383" cy="-18.383" rx="18.2668" ry="18.2668"/>
<text text-anchor="middle" x="348.383" y="-15.683" font-family="Times,serif" font-size="9.00" fill="#000000">E6</text>
</g>
<!-- 0&#45;&gt;E6 -->
<g id="edge11" class="edge">
<title>0&#45;&gt;E6</title>
<path fill="none" stroke="#00ff00" stroke-width="1.3021" d="M230.3957,-324.7183C230.8186,-290.0898 235.9396,-160.778 287.383,-72.7661 296.3996,-57.3401 311.3074,-43.9304 324.1281,-34.2864"/>
<polygon fill="#00ff00" stroke="#00ff00" stroke-width="1.3021" points="326.4842,-36.9038 332.5724,-28.2329 322.4058,-31.2146 326.4842,-36.9038"/>
</g>
<!-- 2 -->
<g id="node3" class="node">
<title>2</title>
<polygon fill="#d3d3d3" stroke="#000000" points="324.389,-342.0159 304.3771,-342.0159 304.3771,-325.0159 324.389,-325.0159 324.389,-342.0159"/>
<text text-anchor="middle" x="314.383" y="-330.8159" font-family="Times,serif" font-size="9.00" fill="#000000">2</text>
</g>
<!-- 1&#45;&gt;2 -->
<!-- E1 -->
<g id="node5" class="node">
<title>E1</title>
<ellipse fill="#87cefa" stroke="#000000" cx="73.383" cy="-18.383" rx="18.2668" ry="18.2668"/>
<text text-anchor="middle" x="73.383" y="-15.683" font-family="Times,serif" font-size="9.00" fill="#000000">E1</text>
</g>
<!-- 1&#45;&gt;E1 -->
<g id="edge13" class="edge">
<title>1&#45;&gt;E1</title>
<path fill="none" stroke="#ff0000" stroke-width=".651" d="M259.6169,-324.9042C229.7887,-298.0189 139.2462,-211.9758 95.383,-120.8494 84.1093,-97.4279 78.5669,-68.2364 75.87,-47.0091"/>
<polygon fill="#ff0000" stroke="#ff0000" stroke-width=".651" points="79.3392,-46.5394 74.7328,-36.9983 72.384,-47.3295 79.3392,-46.5394"/>
</g>
<!-- E5 -->
<g id="node9" class="node">
<title>E5</title>
<ellipse fill="#87cefa" stroke="#000000" cx="293.383" cy="-18.383" rx="18.2668" ry="18.2668"/>
<text text-anchor="middle" x="293.383" y="-15.683" font-family="Times,serif" font-size="9.00" fill="#000000">E5</text>
</g>
<!-- 2&#45;&gt;E5 -->
<g id="edge12" class="edge">
<title>2&#45;&gt;E5</title>
<path fill="none" stroke="#ff0000" stroke-width="2.698" d="M307.2327,-324.99C300.6119,-316.4943 291.2282,-302.7661 287.383,-289.0159 263.4461,-203.4188 278.1512,-96.5904 287.4678,-46.6167"/>
<polygon fill="#ff0000" stroke="#ff0000" stroke-width="2.698" points="290.9492,-47.0484 289.4142,-36.5653 284.0768,-45.7175 290.9492,-47.0484"/>
</g>
<!-- 2&#45;&gt;E6 -->
<g id="edge20" class="edge">
<title>2&#45;&gt;E6</title>
<path fill="none" stroke="#ff0000" stroke-width=".3999" d="M324.6406,-325.6237C334.1517,-317.5979 347.6681,-304.2075 353.383,-289.0159 384.8957,-205.2478 366.7528,-96.3316 355.3963,-46.0489"/>
<polygon fill="#ff0000" stroke="#ff0000" stroke-width=".3999" points="358.7866,-45.1762 353.0962,-36.2392 351.9715,-46.7742 358.7866,-45.1762"/>
</g>
<!-- 3437 -->
<g id="node14" class="node">
<title>3437</title>
<ellipse fill="#add8e6" stroke="#000000" cx="320.383" cy="-264.9743" rx="24.0833" ry="24.0833"/>
<text text-anchor="middle" x="320.383" y="-266.7743" font-family="Times,serif" font-size="9.00" fill="#000000">3437</text>
<text text-anchor="middle" x="320.383" y="-257.7743" font-family="Times,serif" font-size="9.00" fill="#000000">sigm</text>
</g>
<!-- 2&#45;&gt;3437 -->
<g id="edge14" class="edge">
<title>2&#45;&gt;3437</title>
<path fill="none" stroke="#ff0000" stroke-width=".1594" d="M315.143,-324.835C315.7173,-318.2744 316.546,-308.8069 317.3756,-299.3307"/>
<polygon fill="#ff0000" stroke="#ff0000" stroke-width=".1594" points="320.8785,-299.4488 318.264,-289.1817 313.9052,-298.8383 320.8785,-299.4488"/>
</g>
<!-- E0 -->
<g id="node4" class="node">
<title>E0</title>
<ellipse fill="#87cefa" stroke="#000000" cx="18.383" cy="-18.383" rx="18.2668" ry="18.2668"/>
<text text-anchor="middle" x="18.383" y="-15.683" font-family="Times,serif" font-size="9.00" fill="#000000">E0</text>
</g>
<!-- E0&#45;&gt;E1 -->
<!-- E2 -->
<g id="node6" class="node">
<title>E2</title>
<ellipse fill="#87cefa" stroke="#000000" cx="128.383" cy="-18.383" rx="18.2668" ry="18.2668"/>
<text text-anchor="middle" x="128.383" y="-15.683" font-family="Times,serif" font-size="9.00" fill="#000000">E2</text>
</g>
<!-- E1&#45;&gt;E2 -->
<!-- E3 -->
<g id="node7" class="node">
<title>E3</title>
<ellipse fill="#87cefa" stroke="#000000" cx="183.383" cy="-18.383" rx="18.2668" ry="18.2668"/>
<text text-anchor="middle" x="183.383" y="-15.683" font-family="Times,serif" font-size="9.00" fill="#000000">E3</text>
</g>
<!-- E2&#45;&gt;E3 -->
<!-- E4 -->
<g id="node8" class="node">
<title>E4</title>
<ellipse fill="#87cefa" stroke="#000000" cx="238.383" cy="-18.383" rx="18.2668" ry="18.2668"/>
<text text-anchor="middle" x="238.383" y="-15.683" font-family="Times,serif" font-size="9.00" fill="#000000">E4</text>
</g>
<!-- E3&#45;&gt;E4 -->
<!-- E4&#45;&gt;E5 -->
<!-- E5&#45;&gt;E6 -->
<!-- E7 -->
<g id="node11" class="node">
<title>E7</title>
<ellipse fill="#87cefa" stroke="#000000" cx="403.383" cy="-18.383" rx="18.2668" ry="18.2668"/>
<text text-anchor="middle" x="403.383" y="-15.683" font-family="Times,serif" font-size="9.00" fill="#000000">E7</text>
</g>
<!-- E6&#45;&gt;E7 -->
<!-- E8 -->
<g id="node12" class="node">
<title>E8</title>
<ellipse fill="#87cefa" stroke="#000000" cx="458.383" cy="-18.383" rx="18.2668" ry="18.2668"/>
<text text-anchor="middle" x="458.383" y="-15.683" font-family="Times,serif" font-size="9.00" fill="#000000">E8</text>
</g>
<!-- E7&#45;&gt;E8 -->
<!-- 2339 -->
<g id="node13" class="node">
<title>2339</title>
<ellipse fill="#add8e6" stroke="#000000" cx="128.383" cy="-96.8077" rx="24.0833" ry="24.0833"/>
<text text-anchor="middle" x="128.383" y="-98.6077" font-family="Times,serif" font-size="9.00" fill="#000000">2339</text>
<text text-anchor="middle" x="128.383" y="-89.6077" font-family="Times,serif" font-size="9.00" fill="#000000">sigm</text>
</g>
<!-- 2339&#45;&gt;E2 -->
<g id="edge16" class="edge">
<title>2339&#45;&gt;E2</title>
<path fill="none" stroke="#00ff00" stroke-width=".3091" d="M128.383,-72.4236C128.383,-64.33 128.383,-55.248 128.383,-46.8729"/>
<polygon fill="#00ff00" stroke="#00ff00" stroke-width=".3091" points="131.8831,-46.7701 128.383,-36.7702 124.8831,-46.7702 131.8831,-46.7701"/>
</g>
<!-- 2833 -->
<g id="node15" class="node">
<title>2833</title>
<ellipse fill="#add8e6" stroke="#000000" cx="320.383" cy="-180.891" rx="24.0833" ry="24.0833"/>
<text text-anchor="middle" x="320.383" y="-182.691" font-family="Times,serif" font-size="9.00" fill="#000000">2833</text>
<text text-anchor="middle" x="320.383" y="-173.691" font-family="Times,serif" font-size="9.00" fill="#000000">sigm</text>
</g>
<!-- 3437&#45;&gt;2833 -->
<g id="edge17" class="edge">
<title>3437&#45;&gt;2833</title>
<path fill="none" stroke="#00ff00" stroke-width=".5943" d="M320.383,-240.6539C320.383,-232.7231 320.383,-223.7624 320.383,-215.2386"/>
<polygon fill="#00ff00" stroke="#00ff00" stroke-width=".5943" points="323.8831,-215.1567 320.383,-205.1567 316.8831,-215.1567 323.8831,-215.1567"/>
</g>
<!-- 3546 -->
<g id="node16" class="node">
<title>3546</title>
<ellipse fill="#add8e6" stroke="#000000" cx="320.383" cy="-96.8077" rx="24.0833" ry="24.0833"/>
<text text-anchor="middle" x="320.383" y="-98.6077" font-family="Times,serif" font-size="9.00" fill="#000000">3546</text>
<text text-anchor="middle" x="320.383" y="-89.6077" font-family="Times,serif" font-size="9.00" fill="#000000">sigm</text>
</g>
<!-- 2833&#45;&gt;3546 -->
<g id="edge19" class="edge">
<title>2833&#45;&gt;3546</title>
<path fill="none" stroke="#00ff00" stroke-width=".9079" d="M320.383,-156.5706C320.383,-148.6398 320.383,-139.6791 320.383,-131.1553"/>
<polygon fill="#00ff00" stroke="#00ff00" stroke-width=".9079" points="323.8831,-131.0734 320.383,-121.0734 316.8831,-131.0735 323.8831,-131.0734"/>
</g>
<!-- 3546&#45;&gt;E3 -->
<g id="edge15" class="edge">
<title>3546&#45;&gt;E3</title>
<path fill="none" stroke="#00ff00" stroke-width=".128" d="M298.8012,-85.5549C276.608,-73.836 241.1773,-54.7158 211.383,-36.7661 210.0755,-35.9784 208.7417,-35.1589 207.4008,-34.3225"/>
<polygon fill="#00ff00" stroke="#00ff00" stroke-width=".128" points="208.9588,-31.1638 198.6512,-28.7136 205.181,-37.057 208.9588,-31.1638"/>
</g>
<!-- 3546&#45;&gt;E8 -->
<g id="edge18" class="edge">
<title>3546&#45;&gt;E8</title>
<path fill="none" stroke="#ff0000" stroke-width=".3155" d="M341.7588,-85.8004C364.1365,-74.1243 400.1575,-54.8964 430.383,-36.7661 431.6921,-35.9809 433.0271,-35.1634 434.3689,-34.3286"/>
<polygon fill="#ff0000" stroke="#ff0000" stroke-width=".3155" points="436.5871,-37.0643 443.1215,-28.7245 432.8125,-31.1692 436.5871,-37.0643"/>
</g>
</g>
</svg>
