<?xml version="1.0" encoding="utf-8" standalone="no"?>
<!DOCTYPE svg PUBLIC "-//W3C//DTD SVG 1.1//EN"
  "http://www.w3.org/Graphics/SVG/1.1/DTD/svg11.dtd">
<!-- Created with matplotlib (https://matplotlib.org/) -->
<svg height="345.6pt" version="1.1" viewBox="0 0 460.8 345.6" width="460.8pt" xmlns="http://www.w3.org/2000/svg" xmlns:xlink="http://www.w3.org/1999/xlink">
 <defs>
  <style type="text/css">
*{stroke-linecap:butt;stroke-linejoin:round;}
  </style>
 </defs>
 <g id="figure_1">
  <g id="patch_1">
   <path d="M 0 345.6 
L 460.8 345.6 
L 460.8 0 
L 0 0 
z
" style="fill:#ffffff;"/>
  </g>
  <g id="axes_1">
   <g id="patch_2">
    <path d="M 57.6 307.584 
L 414.72 307.584 
L 414.72 41.472 
L 57.6 41.472 
z
" style="fill:#ffffff;"/>
   </g>
   <g id="PolyCollection_1">
    <path clip-path="url(#p3a843c7b47)" d="M 73.832727 175.160819 
L 73.832727 186.480521 
L 74.918528 188.987461 
L 76.00433 188.114853 
L 77.090131 188.427773 
L 78.175932 187.46754 
L 79.261733 186.154429 
L 80.347534 194.393255 
L 81.433335 190.813425 
L 82.519137 185.8674 
L 83.604938 193.439433 
L 84.690739 187.322701 
L 85.77654 197.632785 
L 86.862341 186.469984 
L 87.948142 187.536208 
L 89.033943 196.577772 
L 90.119745 202.656415 
L 91.205546 194.047472 
L 92.291347 187.916579 
L 93.377148 182.897092 
L 94.462949 174.653559 
L 95.54875 171.220241 
L 96.634552 155.119447 
L 97.720353 157.640327 
L 98.806154 163.769712 
L 99.891955 142.970861 
L 100.977756 157.287758 
L 102.063557 143.890631 
L 103.149358 151.898822 
L 104.23516 143.46826 
L 105.320961 144.392672 
L 106.406762 149.099214 
L 107.492563 146.306978 
L 108.578364 147.905485 
L 109.664165 131.250661 
L 110.749967 154.472073 
L 111.835768 184.645149 
L 112.921569 159.508737 
L 114.00737 178.892356 
L 115.093171 186.019394 
L 116.178972 183.26918 
L 117.264773 171.872135 
L 118.350575 181.722646 
L 119.436376 184.539987 
L 120.522177 199.919842 
L 121.607978 196.911215 
L 122.693779 186.227209 
L 123.77958 186.449784 
L 124.865382 190.920479 
L 125.951183 189.534261 
L 127.036984 180.579219 
L 128.122785 181.76497 
L 129.208586 164.421142 
L 130.294387 164.572063 
L 131.380189 153.424135 
L 132.46599 153.417543 
L 133.551791 155.583283 
L 134.637592 157.325487 
L 135.723393 148.552379 
L 136.809194 135.503086 
L 137.894995 157.021246 
L 138.980797 135.670453 
L 140.066598 139.483867 
L 141.152399 141.27693 
L 142.2382 142.229634 
L 143.324001 139.31652 
L 144.409802 147.12648 
L 145.495604 148.197541 
L 146.581405 146.299385 
L 147.667206 147.810778 
L 148.753007 160.063122 
L 149.838808 148.924154 
L 150.924609 145.014343 
L 152.01041 121.693159 
L 153.096212 133.34505 
L 154.182013 134.532499 
L 155.267814 119.053204 
L 156.353615 120.912455 
L 157.439416 132.099598 
L 158.525217 132.653452 
L 159.611019 126.611421 
L 160.69682 133.949218 
L 161.782621 137.92072 
L 162.868422 137.554383 
L 163.954223 142.720558 
L 165.040024 137.581301 
L 166.125825 118.911814 
L 167.211627 148.805833 
L 168.297428 139.830091 
L 169.383229 119.607268 
L 170.46903 133.814557 
L 171.554831 142.098039 
L 172.640632 131.77086 
L 173.726434 137.15963 
L 174.812235 134.995456 
L 175.898036 129.358952 
L 176.983837 126.909609 
L 178.069638 117.389959 
L 179.155439 132.571737 
L 180.24124 135.759654 
L 181.327042 126.673473 
L 182.412843 132.649258 
L 183.498644 141.492458 
L 184.584445 136.88849 
L 185.670246 125.092535 
L 186.756047 119.012923 
L 187.841849 124.573803 
L 188.92765 118.841552 
L 190.013451 135.327846 
L 191.099252 134.556523 
L 192.185053 137.793635 
L 193.270854 147.413242 
L 194.356656 130.231688 
L 195.442457 134.727893 
L 196.528258 144.665016 
L 197.614059 121.21084 
L 198.69986 129.716706 
L 199.785661 156.95086 
L 200.871462 144.409569 
L 201.957264 145.863242 
L 203.043065 132.115451 
L 204.128866 129.164003 
L 205.214667 138.102183 
L 206.300468 121.382263 
L 207.386269 165.76579 
L 208.472071 151.024528 
L 209.557872 154.494202 
L 210.643673 151.413694 
L 211.729474 142.332989 
L 212.815275 152.289658 
L 213.901076 130.892413 
L 214.986877 136.338499 
L 216.072679 154.112645 
L 217.15848 165.732596 
L 218.244281 172.331798 
L 219.330082 159.575377 
L 220.415883 152.40423 
L 221.501684 140.406578 
L 222.587486 147.609243 
L 223.673287 151.62424 
L 224.759088 166.966758 
L 225.844889 167.910499 
L 226.93069 150.728727 
L 228.016491 146.019625 
L 229.102292 165.306987 
L 230.188094 166.587874 
L 231.273895 138.915792 
L 232.359696 157.60572 
L 233.445497 146.195603 
L 234.531298 144.911302 
L 235.617099 144.707781 
L 236.702901 157.024425 
L 237.788702 156.09425 
L 238.874503 154.338907 
L 239.960304 145.422731 
L 241.046105 144.610506 
L 242.131906 154.524873 
L 243.217708 151.551869 
L 244.303509 146.799065 
L 245.38931 133.473072 
L 246.475111 159.174203 
L 247.560912 166.712461 
L 248.646713 145.355747 
L 249.732514 152.975085 
L 250.818316 165.046556 
L 251.904117 132.731196 
L 252.989918 168.049409 
L 254.075719 147.430842 
L 255.16152 168.653514 
L 256.247321 151.969886 
L 257.333123 161.592965 
L 258.418924 168.054997 
L 259.504725 166.521882 
L 260.590526 156.537111 
L 261.676327 150.802355 
L 262.762128 136.017466 
L 263.847929 131.790834 
L 264.933731 149.462799 
L 266.019532 130.381859 
L 267.105333 159.053746 
L 268.191134 155.241947 
L 269.276935 157.049548 
L 270.362736 156.501985 
L 271.448538 153.995019 
L 272.534339 161.549441 
L 273.62014 165.735427 
L 274.705941 169.603544 
L 275.791742 152.305466 
L 276.877543 167.762117 
L 277.963344 157.468294 
L 279.049146 157.02847 
L 280.134947 169.007819 
L 281.220748 180.450065 
L 282.306549 161.026002 
L 283.39235 165.873637 
L 284.478151 156.734357 
L 285.563953 159.31823 
L 286.649754 149.999998 
L 287.735555 139.863053 
L 288.821356 161.469531 
L 289.907157 146.543347 
L 290.992958 155.503053 
L 292.07876 163.655234 
L 293.164561 172.462665 
L 294.250362 146.596943 
L 295.336163 146.171957 
L 296.421964 141.279912 
L 297.507765 148.091521 
L 298.593566 129.182523 
L 299.679368 153.669081 
L 300.765169 147.537674 
L 301.85097 138.031826 
L 302.936771 140.43133 
L 304.022572 162.896879 
L 305.108373 134.291514 
L 306.194175 138.474327 
L 307.279976 150.989175 
L 308.365777 152.436735 
L 309.451578 151.76957 
L 310.537379 147.708506 
L 311.62318 158.151569 
L 312.708981 151.201841 
L 313.794783 146.503683 
L 314.880584 150.300951 
L 315.966385 148.471816 
L 317.052186 152.848581 
L 318.137987 146.164802 
L 319.223788 150.383632 
L 320.30959 154.591994 
L 321.395391 160.318966 
L 322.481192 151.896327 
L 323.566993 163.112507 
L 324.652794 138.755669 
L 325.738595 142.4022 
L 326.824396 139.741162 
L 327.910198 158.048102 
L 328.995999 163.573706 
L 330.0818 141.280522 
L 331.167601 164.184704 
L 332.253402 154.558027 
L 333.339203 152.712361 
L 334.425005 147.711271 
L 335.510806 141.514304 
L 336.596607 143.137049 
L 337.682408 153.33417 
L 338.768209 142.784561 
L 339.85401 155.395024 
L 340.939811 142.738223 
L 342.025613 154.672275 
L 343.111414 152.876674 
L 344.197215 132.679529 
L 345.283016 171.528437 
L 346.368817 166.158647 
L 347.454618 154.65313 
L 348.54042 164.407194 
L 349.626221 141.525822 
L 350.712022 157.694612 
L 351.797823 160.117129 
L 352.883624 149.245195 
L 353.969425 146.486472 
L 355.055227 127.216893 
L 356.141028 148.585744 
L 357.226829 155.257866 
L 358.31263 161.819271 
L 359.398431 132.015318 
L 360.484232 135.228182 
L 361.570033 156.68011 
L 362.655835 149.916017 
L 363.741636 149.933397 
L 364.827437 153.028718 
L 365.913238 156.979437 
L 366.999039 159.376506 
L 368.08484 165.596744 
L 369.170642 157.41699 
L 370.256443 149.919278 
L 371.342244 131.813958 
L 372.428045 163.383946 
L 373.513846 134.096125 
L 374.599647 155.839575 
L 375.685448 146.596501 
L 376.77125 141.681028 
L 377.857051 132.463752 
L 378.942852 130.038532 
L 380.028653 137.53818 
L 381.114454 147.208951 
L 382.200255 134.42132 
L 383.286057 153.863696 
L 384.371858 153.171094 
L 385.457659 149.258796 
L 386.54346 157.131164 
L 387.629261 157.210514 
L 388.715062 157.093482 
L 389.800863 163.776192 
L 390.886665 160.904444 
L 391.972466 159.304618 
L 393.058267 150.516355 
L 394.144068 169.209921 
L 395.229869 143.590416 
L 396.31567 156.98696 
L 397.401472 141.698196 
L 398.487273 156.496025 
L 398.487273 78.751459 
L 398.487273 78.751459 
L 397.401472 81.704334 
L 396.31567 80.483891 
L 395.229869 78.498897 
L 394.144068 87.699137 
L 393.058267 93.351552 
L 391.972466 90.323239 
L 390.886665 87.527215 
L 389.800863 90.415418 
L 388.715062 77.204846 
L 387.629261 77.321852 
L 386.54346 77.297185 
L 385.457659 78.746493 
L 384.371858 78.760843 
L 383.286057 82.827026 
L 382.200255 83.169251 
L 381.114454 76.388611 
L 380.028653 77.399953 
L 378.942852 79.529715 
L 377.857051 80.394038 
L 376.77125 74.752352 
L 375.685448 73.72452 
L 374.599647 74.454091 
L 373.513846 77.136397 
L 372.428045 83.435447 
L 371.342244 76.714117 
L 370.256443 75.628605 
L 369.170642 79.169715 
L 368.08484 87.95776 
L 366.999039 89.107162 
L 365.913238 97.784267 
L 364.827437 94.895858 
L 363.741636 94.168548 
L 362.655835 93.522818 
L 361.570033 90.269305 
L 360.484232 82.115348 
L 359.398431 77.045845 
L 358.31263 82.971787 
L 357.226829 76.544049 
L 356.141028 69.394891 
L 355.055227 70.987479 
L 353.969425 80.218603 
L 352.883624 73.754268 
L 351.797823 77.860805 
L 350.712022 75.225488 
L 349.626221 77.976064 
L 348.54042 76.587239 
L 347.454618 79.521999 
L 346.368817 67.398558 
L 345.283016 74.773446 
L 344.197215 58.711718 
L 343.111414 60.139768 
L 342.025613 67.419402 
L 340.939811 62.92938 
L 339.85401 73.283159 
L 338.768209 54.006182 
L 337.682408 64.88313 
L 336.596607 68.933782 
L 335.510806 66.458882 
L 334.425005 74.866344 
L 333.339203 72.767754 
L 332.253402 62.858131 
L 331.167601 68.584492 
L 330.0818 65.661291 
L 328.995999 63.679429 
L 327.910198 67.064145 
L 326.824396 57.487276 
L 325.738595 62.090613 
L 324.652794 53.568 
L 323.566993 68.00187 
L 322.481192 63.418474 
L 321.395391 85.642285 
L 320.30959 78.549143 
L 319.223788 71.224601 
L 318.137987 62.872196 
L 317.052186 79.999416 
L 315.966385 72.89752 
L 314.880584 60.075662 
L 313.794783 71.606973 
L 312.708981 78.192051 
L 311.62318 78.253106 
L 310.537379 74.803442 
L 309.451578 71.753656 
L 308.365777 80.463796 
L 307.279976 63.629552 
L 306.194175 63.607388 
L 305.108373 59.744319 
L 304.022572 63.450045 
L 302.936771 67.843926 
L 301.85097 70.119187 
L 300.765169 63.486813 
L 299.679368 83.260958 
L 298.593566 67.357574 
L 297.507765 62.451886 
L 296.421964 64.413695 
L 295.336163 58.715517 
L 294.250362 64.436343 
L 293.164561 80.374489 
L 292.07876 74.816782 
L 290.992958 76.031596 
L 289.907157 60.917633 
L 288.821356 86.689083 
L 287.735555 71.708706 
L 286.649754 65.94638 
L 285.563953 91.868355 
L 284.478151 80.307423 
L 283.39235 73.911595 
L 282.306549 82.379363 
L 281.220748 108.269708 
L 280.134947 97.777091 
L 279.049146 84.960819 
L 277.963344 73.21814 
L 276.877543 87.976749 
L 275.791742 75.816843 
L 274.705941 86.031304 
L 273.62014 78.873602 
L 272.534339 91.86204 
L 271.448538 73.113122 
L 270.362736 75.325934 
L 269.276935 81.448473 
L 268.191134 69.473799 
L 267.105333 65.831028 
L 266.019532 54.410864 
L 264.933731 61.565936 
L 263.847929 61.932526 
L 262.762128 55.250583 
L 261.676327 60.196128 
L 260.590526 56.09846 
L 259.504725 72.10616 
L 258.418924 63.09488 
L 257.333123 65.606191 
L 256.247321 56.98831 
L 255.16152 65.007708 
L 254.075719 54.290807 
L 252.989918 72.292084 
L 251.904117 64.367993 
L 250.818316 73.750127 
L 249.732514 71.311591 
L 248.646713 64.446539 
L 247.560912 73.397825 
L 246.475111 71.262487 
L 245.38931 71.297383 
L 244.303509 64.930296 
L 243.217708 67.104877 
L 242.131906 74.672016 
L 241.046105 63.914286 
L 239.960304 69.294366 
L 238.874503 68.095671 
L 237.788702 90.774062 
L 236.702901 66.794174 
L 235.617099 67.244849 
L 234.531298 74.343543 
L 233.445497 67.871258 
L 232.359696 67.539097 
L 231.273895 63.153049 
L 230.188094 74.36348 
L 229.102292 102.939942 
L 228.016491 88.70646 
L 226.93069 87.347046 
L 225.844889 81.91239 
L 224.759088 96.976461 
L 223.673287 85.009711 
L 222.587486 74.532078 
L 221.501684 65.136913 
L 220.415883 65.885109 
L 219.330082 81.640091 
L 218.244281 99.776768 
L 217.15848 91.878578 
L 216.072679 93.38286 
L 214.986877 91.445753 
L 213.901076 60.940908 
L 212.815275 68.850498 
L 211.729474 66.22109 
L 210.643673 69.206376 
L 209.557872 68.401244 
L 208.472071 66.67006 
L 207.386269 75.527692 
L 206.300468 66.212358 
L 205.214667 61.363397 
L 204.128866 59.977873 
L 203.043065 55.908241 
L 201.957264 62.196756 
L 200.871462 57.591429 
L 199.785661 62.14796 
L 198.69986 68.669695 
L 197.614059 61.455968 
L 196.528258 65.761372 
L 195.442457 67.468138 
L 194.356656 65.931347 
L 193.270854 67.927958 
L 192.185053 65.715612 
L 191.099252 70.708014 
L 190.013451 84.980173 
L 188.92765 79.739882 
L 187.841849 74.943785 
L 186.756047 73.210462 
L 185.670246 73.137841 
L 184.584445 69.221186 
L 183.498644 72.457511 
L 182.412843 76.125858 
L 181.327042 66.967146 
L 180.24124 75.810923 
L 179.155439 79.349898 
L 178.069638 76.965778 
L 176.983837 65.378786 
L 175.898036 65.607886 
L 174.812235 70.20407 
L 173.726434 66.141582 
L 172.640632 80.852891 
L 171.554831 75.297499 
L 170.46903 84.075063 
L 169.383229 79.84531 
L 168.297428 86.640945 
L 167.211627 79.784552 
L 166.125825 70.724144 
L 165.040024 68.476366 
L 163.954223 71.190405 
L 162.868422 76.005523 
L 161.782621 77.758535 
L 160.69682 80.247793 
L 159.611019 82.241707 
L 158.525217 62.183364 
L 157.439416 66.078769 
L 156.353615 69.958706 
L 155.267814 64.913819 
L 154.182013 66.766384 
L 153.096212 80.370882 
L 152.01041 77.252335 
L 150.924609 79.142311 
L 149.838808 65.701928 
L 148.753007 77.71978 
L 147.667206 73.043331 
L 146.581405 67.715596 
L 145.495604 84.189471 
L 144.409802 77.212204 
L 143.324001 79.392235 
L 142.2382 80.600802 
L 141.152399 69.383497 
L 140.066598 73.230899 
L 138.980797 73.000646 
L 137.894995 68.60465 
L 136.809194 73.909135 
L 135.723393 71.508599 
L 134.637592 74.749473 
L 133.551791 84.38398 
L 132.46599 84.6124 
L 131.380189 84.462784 
L 130.294387 84.028625 
L 129.208586 95.374393 
L 128.122785 99.744147 
L 127.036984 93.596689 
L 125.951183 98.345908 
L 124.865382 110.364902 
L 123.77958 108.399535 
L 122.693779 111.963661 
L 121.607978 130.560487 
L 120.522177 138.408651 
L 119.436376 132.087925 
L 118.350575 129.379354 
L 117.264773 125.954675 
L 116.178972 102.218594 
L 115.093171 93.110331 
L 114.00737 100.926483 
L 112.921569 100.858891 
L 111.835768 94.653604 
L 110.749967 91.177127 
L 109.664165 61.19376 
L 108.578364 54.524584 
L 107.492563 65.718674 
L 106.406762 62.783415 
L 105.320961 60.403788 
L 104.23516 54.853131 
L 103.149358 62.909289 
L 102.063557 75.533243 
L 100.977756 74.709189 
L 99.891955 66.090302 
L 98.806154 88.328553 
L 97.720353 93.911847 
L 96.634552 89.54159 
L 95.54875 104.866981 
L 94.462949 86.026121 
L 93.377148 93.268143 
L 92.291347 103.877235 
L 91.205546 135.062499 
L 90.119745 127.961806 
L 89.033943 149.096933 
L 87.948142 170.477532 
L 86.862341 175.01533 
L 85.77654 157.351456 
L 84.690739 173.876565 
L 83.604938 170.984366 
L 82.519137 175.734933 
L 81.433335 171.295992 
L 80.347534 167.183073 
L 79.261733 152.408103 
L 78.175932 150.548901 
L 77.090131 167.648648 
L 76.00433 169.326793 
L 74.918528 173.915086 
L 73.832727 175.160819 
z
" style="fill:#0000ff;fill-opacity:0.5;"/>
   </g>
   <g id="PolyCollection_2">
    <path clip-path="url(#p3a843c7b47)" d="M 73.832727 187.466164 
L 73.832727 288.832427 
L 74.918528 223.683476 
L 76.00433 220.190398 
L 77.090131 208.216378 
L 78.175932 233.444655 
L 79.261733 222.519482 
L 80.347534 222.328276 
L 81.433335 219.162011 
L 82.519137 210.493434 
L 83.604938 216.126022 
L 84.690739 178.948357 
L 85.77654 218.314221 
L 86.862341 180.187881 
L 87.948142 213.119899 
L 89.033943 216.974993 
L 90.119745 217.051685 
L 91.205546 253.750445 
L 92.291347 252.994257 
L 93.377148 220.692136 
L 94.462949 249.897511 
L 95.54875 223.820814 
L 96.634552 219.703322 
L 97.720353 222.738241 
L 98.806154 235.347785 
L 99.891955 235.550264 
L 100.977756 225.232364 
L 102.063557 227.9655 
L 103.149358 239.045281 
L 104.23516 230.091246 
L 105.320961 226.782409 
L 106.406762 233.767854 
L 107.492563 219.868308 
L 108.578364 207.154608 
L 109.664165 175.262684 
L 110.749967 240.172529 
L 111.835768 227.992103 
L 112.921569 234.171664 
L 114.00737 230.591124 
L 115.093171 231.455116 
L 116.178972 245.493886 
L 117.264773 234.837448 
L 118.350575 242.147353 
L 119.436376 248.413394 
L 120.522177 195.615833 
L 121.607978 195.598094 
L 122.693779 230.574974 
L 123.77958 234.831514 
L 124.865382 241.517017 
L 125.951183 232.395192 
L 127.036984 217.333562 
L 128.122785 246.872418 
L 129.208586 203.10495 
L 130.294387 205.305864 
L 131.380189 210.183173 
L 132.46599 225.408427 
L 133.551791 227.038916 
L 134.637592 236.905289 
L 135.723393 217.79508 
L 136.809194 191.390126 
L 137.894995 210.992165 
L 138.980797 197.258727 
L 140.066598 209.605482 
L 141.152399 188.821262 
L 142.2382 201.667519 
L 143.324001 174.03297 
L 144.409802 203.827367 
L 145.495604 201.580549 
L 146.581405 197.582596 
L 147.667206 184.08043 
L 148.753007 238.823504 
L 149.838808 186.729199 
L 150.924609 205.824818 
L 152.01041 164.316749 
L 153.096212 182.392369 
L 154.182013 201.335867 
L 155.267814 183.094017 
L 156.353615 173.945272 
L 157.439416 199.628996 
L 158.525217 187.859202 
L 159.611019 166.320989 
L 160.69682 170.797888 
L 161.782621 193.759728 
L 162.868422 166.366795 
L 163.954223 185.346864 
L 165.040024 195.522965 
L 166.125825 183.505016 
L 167.211627 196.480576 
L 168.297428 172.090311 
L 169.383229 179.698338 
L 170.46903 178.057067 
L 171.554831 178.34995 
L 172.640632 196.01255 
L 173.726434 176.907043 
L 174.812235 191.159744 
L 175.898036 182.941886 
L 176.983837 191.880318 
L 178.069638 159.431942 
L 179.155439 153.061635 
L 180.24124 200.100631 
L 181.327042 182.115789 
L 182.412843 184.395338 
L 183.498644 183.235738 
L 184.584445 203.691544 
L 185.670246 190.472274 
L 186.756047 175.739003 
L 187.841849 178.67918 
L 188.92765 172.749239 
L 190.013451 171.65534 
L 191.099252 177.663672 
L 192.185053 202.531136 
L 193.270854 203.816736 
L 194.356656 199.587768 
L 195.442457 176.108527 
L 196.528258 216.377918 
L 197.614059 177.690855 
L 198.69986 162.048369 
L 199.785661 194.24543 
L 200.871462 186.174301 
L 201.957264 207.316538 
L 203.043065 183.28884 
L 204.128866 182.2666 
L 205.214667 200.650729 
L 206.300468 174.953536 
L 207.386269 216.896621 
L 208.472071 185.170699 
L 209.557872 190.513918 
L 210.643673 210.580477 
L 211.729474 184.910797 
L 212.815275 205.11592 
L 213.901076 183.746048 
L 214.986877 183.851687 
L 216.072679 199.606787 
L 217.15848 202.962897 
L 218.244281 218.601347 
L 219.330082 200.477644 
L 220.415883 187.211326 
L 221.501684 206.732966 
L 222.587486 200.3228 
L 223.673287 217.452244 
L 224.759088 201.293108 
L 225.844889 183.800025 
L 226.93069 169.763441 
L 228.016491 190.231402 
L 229.102292 246.381692 
L 230.188094 212.632767 
L 231.273895 204.466117 
L 232.359696 223.557313 
L 233.445497 180.720177 
L 234.531298 205.781075 
L 235.617099 211.053985 
L 236.702901 199.33384 
L 237.788702 177.124281 
L 238.874503 216.838914 
L 239.960304 195.152987 
L 241.046105 189.502611 
L 242.131906 197.062123 
L 243.217708 190.350674 
L 244.303509 193.615153 
L 245.38931 187.249649 
L 246.475111 184.717774 
L 247.560912 176.540116 
L 248.646713 192.126753 
L 249.732514 197.718428 
L 250.818316 198.022745 
L 251.904117 173.113939 
L 252.989918 227.755431 
L 254.075719 177.44467 
L 255.16152 203.666184 
L 256.247321 200.814836 
L 257.333123 196.24654 
L 258.418924 185.590046 
L 259.504725 176.726305 
L 260.590526 176.178284 
L 261.676327 168.6319 
L 262.762128 146.010086 
L 263.847929 174.706339 
L 264.933731 187.27814 
L 266.019532 169.254483 
L 267.105333 195.697427 
L 268.191134 196.577646 
L 269.276935 196.189531 
L 270.362736 198.172624 
L 271.448538 194.881456 
L 272.534339 195.60664 
L 273.62014 199.030955 
L 274.705941 195.204526 
L 275.791742 152.051413 
L 276.877543 204.264081 
L 277.963344 225.421584 
L 279.049146 171.491545 
L 280.134947 191.433248 
L 281.220748 224.186728 
L 282.306549 181.929522 
L 283.39235 227.018215 
L 284.478151 205.035195 
L 285.563953 217.065755 
L 286.649754 201.8316 
L 287.735555 185.666282 
L 288.821356 195.315158 
L 289.907157 179.414106 
L 290.992958 220.781523 
L 292.07876 197.890789 
L 293.164561 184.856984 
L 294.250362 197.883054 
L 295.336163 193.975023 
L 296.421964 206.379899 
L 297.507765 214.710991 
L 298.593566 153.605794 
L 299.679368 221.066766 
L 300.765169 190.255636 
L 301.85097 199.06846 
L 302.936771 205.274218 
L 304.022572 220.475964 
L 305.108373 192.730304 
L 306.194175 192.519836 
L 307.279976 179.767288 
L 308.365777 214.690439 
L 309.451578 204.886246 
L 310.537379 203.579899 
L 311.62318 222.221896 
L 312.708981 213.433722 
L 313.794783 213.217578 
L 314.880584 202.626044 
L 315.966385 216.113882 
L 317.052186 201.597713 
L 318.137987 200.254028 
L 319.223788 203.777489 
L 320.30959 214.874545 
L 321.395391 215.345023 
L 322.481192 200.713393 
L 323.566993 230.616637 
L 324.652794 213.542166 
L 325.738595 220.31799 
L 326.824396 208.500726 
L 327.910198 238.620901 
L 328.995999 248.829919 
L 330.0818 220.32682 
L 331.167601 252.408058 
L 332.253402 231.103619 
L 333.339203 223.063264 
L 334.425005 222.565571 
L 335.510806 215.631396 
L 336.596607 224.794678 
L 337.682408 225.002896 
L 338.768209 209.058419 
L 339.85401 228.845471 
L 340.939811 213.281605 
L 342.025613 224.477463 
L 343.111414 215.760002 
L 344.197215 183.278592 
L 345.283016 213.888751 
L 346.368817 228.64227 
L 347.454618 238.104354 
L 348.54042 210.369932 
L 349.626221 184.73101 
L 350.712022 194.703292 
L 351.797823 206.109454 
L 352.883624 192.807289 
L 353.969425 180.149668 
L 355.055227 165.563985 
L 356.141028 191.64841 
L 357.226829 171.041369 
L 358.31263 207.791375 
L 359.398431 182.442336 
L 360.484232 166.017596 
L 361.570033 174.213417 
L 362.655835 153.928219 
L 363.741636 175.491713 
L 364.827437 193.458141 
L 365.913238 215.731707 
L 366.999039 182.647151 
L 368.08484 199.454743 
L 369.170642 208.928818 
L 370.256443 214.896372 
L 371.342244 199.032614 
L 372.428045 229.533593 
L 373.513846 183.690952 
L 374.599647 221.23545 
L 375.685448 206.931707 
L 376.77125 205.347069 
L 377.857051 193.905203 
L 378.942852 189.635462 
L 380.028653 197.710783 
L 381.114454 201.115305 
L 382.200255 173.117275 
L 383.286057 220.758379 
L 384.371858 197.072327 
L 385.457659 206.796255 
L 386.54346 206.054711 
L 387.629261 210.908705 
L 388.715062 227.155803 
L 389.800863 215.242585 
L 390.886665 212.056771 
L 391.972466 212.708813 
L 393.058267 203.480938 
L 394.144068 203.756911 
L 395.229869 176.523384 
L 396.31567 215.927719 
L 397.401472 192.558769 
L 398.487273 193.783766 
L 398.487273 92.137413 
L 398.487273 92.137413 
L 397.401472 100.253547 
L 396.31567 93.501339 
L 395.229869 97.227786 
L 394.144068 95.755843 
L 393.058267 99.091655 
L 391.972466 98.20249 
L 390.886665 87.074588 
L 389.800863 89.791747 
L 388.715062 87.370096 
L 387.629261 87.676564 
L 386.54346 89.054651 
L 385.457659 90.818187 
L 384.371858 86.889861 
L 383.286057 71.169791 
L 382.200255 102.072799 
L 381.114454 91.766356 
L 380.028653 80.833846 
L 378.942852 84.904505 
L 377.857051 100.814094 
L 376.77125 91.253205 
L 375.685448 87.111478 
L 374.599647 90.846045 
L 373.513846 91.863183 
L 372.428045 87.081317 
L 371.342244 104.016724 
L 370.256443 86.029283 
L 369.170642 91.485419 
L 368.08484 85.174889 
L 366.999039 93.565759 
L 365.913238 100.406457 
L 364.827437 92.307012 
L 363.741636 90.137451 
L 362.655835 99.392248 
L 361.570033 105.978149 
L 360.484232 88.741775 
L 359.398431 102.412667 
L 358.31263 99.106598 
L 357.226829 99.493937 
L 356.141028 97.211254 
L 355.055227 114.272189 
L 353.969425 125.283397 
L 352.883624 94.734824 
L 351.797823 104.957874 
L 350.712022 108.311374 
L 349.626221 118.179639 
L 348.54042 108.498683 
L 347.454618 121.773028 
L 346.368817 96.770759 
L 345.283016 96.086397 
L 344.197215 91.46941 
L 343.111414 78.291852 
L 342.025613 95.292634 
L 340.939811 97.742382 
L 339.85401 89.979804 
L 338.768209 82.210975 
L 337.682408 91.282627 
L 336.596607 106.261282 
L 335.510806 95.704643 
L 334.425005 110.137327 
L 333.339203 103.875349 
L 332.253402 95.098207 
L 331.167601 101.219625 
L 330.0818 109.368248 
L 328.995999 98.366037 
L 327.910198 97.020481 
L 326.824396 95.450095 
L 325.738595 94.320594 
L 324.652794 88.735712 
L 323.566993 110.667677 
L 322.481192 82.8674 
L 321.395391 90.088042 
L 320.30959 98.793212 
L 319.223788 86.373721 
L 318.137987 81.168409 
L 317.052186 82.451157 
L 315.966385 85.808603 
L 314.880584 97.502146 
L 313.794783 95.249321 
L 312.708981 98.925153 
L 311.62318 102.775064 
L 310.537379 104.358246 
L 309.451578 81.50301 
L 308.365777 93.022335 
L 307.279976 90.854699 
L 306.194175 96.383168 
L 305.108373 91.405247 
L 304.022572 96.416325 
L 302.936771 97.948482 
L 301.85097 111.071382 
L 300.765169 85.203149 
L 299.679368 107.059376 
L 298.593566 101.899033 
L 297.507765 94.605382 
L 296.421964 101.480233 
L 295.336163 90.87998 
L 294.250362 103.718712 
L 293.164561 94.485109 
L 292.07876 95.81434 
L 290.992958 101.719025 
L 289.907157 93.981673 
L 288.821356 108.254266 
L 287.735555 98.079205 
L 286.649754 85.748245 
L 285.563953 108.696207 
L 284.478151 95.014981 
L 283.39235 90.911415 
L 282.306549 112.477724 
L 281.220748 96.762231 
L 280.134947 105.648724 
L 279.049146 97.067436 
L 277.963344 93.126311 
L 276.877543 96.106815 
L 275.791742 95.305403 
L 274.705941 92.259574 
L 273.62014 97.586655 
L 272.534339 105.830432 
L 271.448538 87.451131 
L 270.362736 83.709222 
L 269.276935 77.032886 
L 268.191134 84.584748 
L 267.105333 80.402798 
L 266.019532 76.004653 
L 264.933731 68.374044 
L 263.847929 78.804825 
L 262.762128 71.979217 
L 261.676327 75.361693 
L 260.590526 85.454887 
L 259.504725 81.873032 
L 258.418924 80.949268 
L 257.333123 89.995358 
L 256.247321 81.743121 
L 255.16152 82.098969 
L 254.075719 74.94831 
L 252.989918 75.14655 
L 251.904117 88.137836 
L 250.818316 98.594865 
L 249.732514 84.319443 
L 248.646713 80.670927 
L 247.560912 85.145063 
L 246.475111 86.354955 
L 245.38931 91.398996 
L 244.303509 89.142171 
L 243.217708 93.516165 
L 242.131906 103.750847 
L 241.046105 108.562571 
L 239.960304 109.508618 
L 238.874503 103.329916 
L 237.788702 100.232818 
L 236.702901 86.379304 
L 235.617099 98.089026 
L 234.531298 103.769336 
L 233.445497 96.108168 
L 232.359696 97.174943 
L 231.273895 95.722749 
L 230.188094 90.737291 
L 229.102292 103.397357 
L 228.016491 94.727618 
L 226.93069 86.31348 
L 225.844889 83.649439 
L 224.759088 89.638231 
L 223.673287 84.262208 
L 222.587486 74.936619 
L 221.501684 85.749962 
L 220.415883 77.759062 
L 219.330082 86.501042 
L 218.244281 98.793692 
L 217.15848 80.253835 
L 216.072679 92.234702 
L 214.986877 89.665445 
L 213.901076 85.50638 
L 212.815275 91.09429 
L 211.729474 82.226615 
L 210.643673 93.673727 
L 209.557872 80.19475 
L 208.472071 90.010708 
L 207.386269 94.942168 
L 206.300468 98.260212 
L 205.214667 91.702177 
L 204.128866 95.376546 
L 203.043065 98.558333 
L 201.957264 87.515445 
L 200.871462 87.594206 
L 199.785661 92.100486 
L 198.69986 98.102557 
L 197.614059 89.593915 
L 196.528258 78.280702 
L 195.442457 87.388285 
L 194.356656 93.181207 
L 193.270854 97.811034 
L 192.185053 94.537216 
L 191.099252 91.502075 
L 190.013451 94.138517 
L 188.92765 105.6567 
L 187.841849 84.592262 
L 186.756047 99.494412 
L 185.670246 92.042342 
L 184.584445 95.91656 
L 183.498644 93.982671 
L 182.412843 98.760718 
L 181.327042 105.859729 
L 180.24124 103.460125 
L 179.155439 95.240003 
L 178.069638 106.041196 
L 176.983837 82.494956 
L 175.898036 100.430872 
L 174.812235 95.19484 
L 173.726434 94.399724 
L 172.640632 106.603384 
L 171.554831 94.101006 
L 170.46903 97.557745 
L 169.383229 102.252852 
L 168.297428 96.520678 
L 167.211627 93.956681 
L 166.125825 102.918912 
L 165.040024 94.948965 
L 163.954223 96.491641 
L 162.868422 97.650103 
L 161.782621 98.116433 
L 160.69682 112.063452 
L 159.611019 106.112631 
L 158.525217 102.422029 
L 157.439416 86.8036 
L 156.353615 104.547347 
L 155.267814 96.77683 
L 154.182013 100.014524 
L 153.096212 108.877025 
L 152.01041 102.352587 
L 150.924609 89.66594 
L 149.838808 96.77358 
L 148.753007 96.254453 
L 147.667206 104.683885 
L 146.581405 90.366918 
L 145.495604 96.631991 
L 144.409802 96.292154 
L 143.324001 87.652209 
L 142.2382 101.979918 
L 141.152399 93.389971 
L 140.066598 88.901773 
L 138.980797 101.248528 
L 137.894995 96.694606 
L 136.809194 95.163824 
L 135.723393 99.721312 
L 134.637592 97.938629 
L 133.551791 108.212403 
L 132.46599 95.003109 
L 131.380189 96.359409 
L 130.294387 89.794829 
L 129.208586 94.830211 
L 128.122785 105.611077 
L 127.036984 94.58324 
L 125.951183 100.992486 
L 124.865382 108.964148 
L 123.77958 104.069073 
L 122.693779 107.718846 
L 121.607978 104.686121 
L 120.522177 107.832238 
L 119.436376 126.130408 
L 118.350575 136.054386 
L 117.264773 142.280779 
L 116.178972 121.552012 
L 115.093171 120.222246 
L 114.00737 135.345258 
L 112.921569 151.675336 
L 111.835768 124.309362 
L 110.749967 151.213385 
L 109.664165 121.675645 
L 108.578364 111.826692 
L 107.492563 119.639046 
L 106.406762 117.372086 
L 105.320961 113.834462 
L 104.23516 105.35077 
L 103.149358 118.517719 
L 102.063557 120.261959 
L 100.977756 114.04962 
L 99.891955 131.703668 
L 98.806154 127.70212 
L 97.720353 131.756252 
L 96.634552 122.829198 
L 95.54875 121.216785 
L 94.462949 121.603789 
L 93.377148 122.516495 
L 92.291347 139.405825 
L 91.205546 124.694001 
L 90.119745 119.759891 
L 89.033943 122.064284 
L 87.948142 117.467984 
L 86.862341 134.667405 
L 85.77654 128.613024 
L 84.690739 151.292802 
L 83.604938 136.747537 
L 82.519137 142.830866 
L 81.433335 147.693189 
L 80.347534 155.760777 
L 79.261733 162.0013 
L 78.175932 159.588198 
L 77.090131 163.770336 
L 76.00433 162.900147 
L 74.918528 163.95782 
L 73.832727 187.466164 
z
" style="fill:#ff0000;fill-opacity:0.5;"/>
   </g>
   <g id="PolyCollection_3">
    <path clip-path="url(#p3a843c7b47)" d="M 73.832727 267.699595 
L 73.832727 295.488 
L 74.918528 277.03384 
L 76.00433 275.035564 
L 77.090131 274.717697 
L 78.175932 280.29148 
L 79.261733 277.830108 
L 80.347534 277.645921 
L 81.433335 276.227407 
L 82.519137 274.095863 
L 83.604938 272.468019 
L 84.690739 265.191253 
L 85.77654 272.747429 
L 86.862341 262.977587 
L 87.948142 268.461099 
L 89.033943 270.220091 
L 90.119745 269.183149 
L 91.205546 282.86665 
L 92.291347 281.543533 
L 93.377148 269.986988 
L 94.462949 280.879592 
L 95.54875 268.653474 
L 96.634552 265.132592 
L 97.720353 268.579373 
L 98.806154 275.466346 
L 99.891955 275.053788 
L 100.977756 271.876662 
L 102.063557 268.113335 
L 103.149358 274.859094 
L 104.23516 269.659747 
L 105.320961 268.625922 
L 106.406762 270.830973 
L 107.492563 265.606981 
L 108.578364 264.055616 
L 109.664165 246.944595 
L 110.749967 274.015179 
L 111.835768 272.293821 
L 112.921569 269.332892 
L 114.00737 270.975273 
L 115.093171 270.514594 
L 116.178972 274.644778 
L 117.264773 272.01013 
L 118.350575 276.100427 
L 119.436376 276.095542 
L 120.522177 254.314759 
L 121.607978 253.462594 
L 122.693779 270.112654 
L 123.77958 268.928871 
L 124.865382 275.369217 
L 125.951183 268.6477 
L 127.036984 263.922386 
L 128.122785 278.38309 
L 129.208586 249.570217 
L 130.294387 260.056409 
L 131.380189 259.515667 
L 132.46599 268.432446 
L 133.551791 270.954251 
L 134.637592 272.612607 
L 135.723393 270.226978 
L 136.809194 257.912711 
L 137.894995 269.913903 
L 138.980797 264.766518 
L 140.066598 261.399387 
L 141.152399 250.872297 
L 142.2382 261.708709 
L 143.324001 247.434381 
L 144.409802 258.5219 
L 145.495604 260.043419 
L 146.581405 258.868909 
L 147.667206 254.452138 
L 148.753007 273.738369 
L 149.838808 248.289119 
L 150.924609 254.45724 
L 152.01041 244.819764 
L 153.096212 247.837847 
L 154.182013 260.766406 
L 155.267814 251.287967 
L 156.353615 243.696711 
L 157.439416 252.202136 
L 158.525217 256.564258 
L 159.611019 245.476874 
L 160.69682 252.098141 
L 161.782621 259.557789 
L 162.868422 239.708541 
L 163.954223 251.812601 
L 165.040024 258.784802 
L 166.125825 256.749965 
L 167.211627 255.334063 
L 168.297428 247.360024 
L 169.383229 256.177603 
L 170.46903 256.734259 
L 171.554831 249.211182 
L 172.640632 258.712739 
L 173.726434 247.674793 
L 174.812235 252.337243 
L 175.898036 244.877473 
L 176.983837 252.74676 
L 178.069638 242.324149 
L 179.155439 236.318984 
L 180.24124 259.026878 
L 181.327042 256.780647 
L 182.412843 255.205219 
L 183.498644 255.111506 
L 184.584445 260.299685 
L 185.670246 247.943278 
L 186.756047 253.036644 
L 187.841849 241.790263 
L 188.92765 242.741974 
L 190.013451 253.886603 
L 191.099252 253.914815 
L 192.185053 260.865365 
L 193.270854 259.113972 
L 194.356656 265.015569 
L 195.442457 249.801659 
L 196.528258 257.760902 
L 197.614059 241.840309 
L 198.69986 234.159966 
L 199.785661 251.458 
L 200.871462 252.038737 
L 201.957264 252.910869 
L 203.043065 254.382886 
L 204.128866 247.480572 
L 205.214667 257.105809 
L 206.300468 247.283145 
L 207.386269 262.481329 
L 208.472071 250.404081 
L 209.557872 246.938464 
L 210.643673 258.178187 
L 211.729474 248.784591 
L 212.815275 255.740464 
L 213.901076 248.256177 
L 214.986877 245.871918 
L 216.072679 256.048495 
L 217.15848 254.139208 
L 218.244281 263.733266 
L 219.330082 259.736264 
L 220.415883 242.155915 
L 221.501684 259.291902 
L 222.587486 249.581505 
L 223.673287 263.025562 
L 224.759088 260.246479 
L 225.844889 251.148165 
L 226.93069 239.206326 
L 228.016491 256.403955 
L 229.102292 276.853501 
L 230.188094 262.92851 
L 231.273895 256.729983 
L 232.359696 268.721969 
L 233.445497 255.796846 
L 234.531298 260.573429 
L 235.617099 258.850558 
L 236.702901 252.480524 
L 237.788702 244.268896 
L 238.874503 269.615987 
L 239.960304 253.088628 
L 241.046105 259.172948 
L 242.131906 257.617284 
L 243.217708 253.281322 
L 244.303509 254.363434 
L 245.38931 246.345559 
L 246.475111 246.799384 
L 247.560912 236.701804 
L 248.646713 247.531607 
L 249.732514 253.902684 
L 250.818316 258.835177 
L 251.904117 242.177844 
L 252.989918 264.410482 
L 254.075719 240.427465 
L 255.16152 256.716491 
L 256.247321 252.435183 
L 257.333123 251.884857 
L 258.418924 244.918874 
L 259.504725 238.573052 
L 260.590526 240.890131 
L 261.676327 227.382753 
L 262.762128 200.794127 
L 263.847929 237.753066 
L 264.933731 235.52314 
L 266.019532 230.09897 
L 267.105333 245.682092 
L 268.191134 247.547967 
L 269.276935 245.64795 
L 270.362736 246.830101 
L 271.448538 254.210911 
L 272.534339 252.561967 
L 273.62014 254.878738 
L 274.705941 243.563909 
L 275.791742 221.601463 
L 276.877543 253.25169 
L 277.963344 264.657483 
L 279.049146 236.302809 
L 280.134947 255.530428 
L 281.220748 263.02448 
L 282.306549 246.154122 
L 283.39235 271.811019 
L 284.478151 257.890121 
L 285.563953 256.317783 
L 286.649754 253.597314 
L 287.735555 236.755208 
L 288.821356 255.775165 
L 289.907157 248.566936 
L 290.992958 268.03376 
L 292.07876 246.105125 
L 293.164561 240.938607 
L 294.250362 251.889473 
L 295.336163 246.181869 
L 296.421964 252.223313 
L 297.507765 261.183301 
L 298.593566 224.083667 
L 299.679368 260.169186 
L 300.765169 242.942229 
L 301.85097 249.051914 
L 302.936771 261.277244 
L 304.022572 266.627024 
L 305.108373 250.326797 
L 306.194175 252.304818 
L 307.279976 245.075936 
L 308.365777 262.26979 
L 309.451578 251.252668 
L 310.537379 254.637622 
L 311.62318 264.877175 
L 312.708981 254.329248 
L 313.794783 254.670553 
L 314.880584 252.954749 
L 315.966385 251.886268 
L 317.052186 248.445073 
L 318.137987 253.75473 
L 319.223788 256.145326 
L 320.30959 260.348934 
L 321.395391 257.841153 
L 322.481192 256.594382 
L 323.566993 272.130945 
L 324.652794 264.131116 
L 325.738595 260.178534 
L 326.824396 258.202163 
L 327.910198 270.473727 
L 328.995999 275.793682 
L 330.0818 261.480419 
L 331.167601 278.505888 
L 332.253402 268.916686 
L 333.339203 259.693464 
L 334.425005 263.17805 
L 335.510806 256.488408 
L 336.596607 265.491788 
L 337.682408 261.651745 
L 338.768209 252.994086 
L 339.85401 258.803851 
L 340.939811 254.728163 
L 342.025613 257.891063 
L 343.111414 259.09423 
L 344.197215 246.646566 
L 345.283016 262.610873 
L 346.368817 272.226922 
L 347.454618 273.873192 
L 348.54042 259.957375 
L 349.626221 253.306982 
L 350.712022 246.864235 
L 351.797823 257.912098 
L 352.883624 255.268796 
L 353.969425 256.729268 
L 355.055227 239.413736 
L 356.141028 252.171039 
L 357.226829 247.892237 
L 358.31263 260.790153 
L 359.398431 249.531812 
L 360.484232 234.629784 
L 361.570033 248.263963 
L 362.655835 228.419676 
L 363.741636 250.806023 
L 364.827437 251.799445 
L 365.913238 261.910216 
L 366.999039 245.130695 
L 368.08484 254.307736 
L 369.170642 259.220599 
L 370.256443 262.831598 
L 371.342244 260.059111 
L 372.428045 267.609189 
L 373.513846 244.923831 
L 374.599647 258.417604 
L 375.685448 255.080652 
L 376.77125 251.065299 
L 377.857051 253.341467 
L 378.942852 252.818702 
L 380.028653 246.09674 
L 381.114454 253.085265 
L 382.200255 230.999292 
L 383.286057 255.309442 
L 384.371858 256.630512 
L 385.457659 251.17248 
L 386.54346 257.961247 
L 387.629261 261.469056 
L 388.715062 265.89731 
L 389.800863 264.486734 
L 390.886665 256.64339 
L 391.972466 262.994161 
L 393.058267 258.630773 
L 394.144068 257.338154 
L 395.229869 246.2669 
L 396.31567 262.666304 
L 397.401472 246.913733 
L 398.487273 248.065689 
L 398.487273 156.937805 
L 398.487273 156.937805 
L 397.401472 160.794208 
L 396.31567 160.202138 
L 395.229869 159.464714 
L 394.144068 167.688645 
L 393.058267 161.221171 
L 391.972466 162.422702 
L 390.886665 158.683808 
L 389.800863 151.542579 
L 388.715062 147.765613 
L 387.629261 147.409078 
L 386.54346 149.382633 
L 385.457659 152.920864 
L 384.371858 142.209966 
L 383.286057 115.030333 
L 382.200255 147.3238 
L 381.114454 161.201761 
L 380.028653 132.382378 
L 378.942852 135.02196 
L 377.857051 166.328448 
L 376.77125 145.53881 
L 375.685448 152.107203 
L 374.599647 156.103461 
L 373.513846 143.930999 
L 372.428045 143.973391 
L 371.342244 165.565786 
L 370.256443 150.6753 
L 369.170642 163.647843 
L 368.08484 151.631912 
L 366.999039 149.02901 
L 365.913238 162.466475 
L 364.827437 146.104878 
L 363.741636 134.252181 
L 362.655835 155.026261 
L 361.570033 163.838703 
L 360.484232 147.671964 
L 359.398431 165.067266 
L 358.31263 168.345323 
L 357.226829 165.692674 
L 356.141028 161.075815 
L 355.055227 160.856977 
L 353.969425 179.765423 
L 352.883624 164.609152 
L 351.797823 180.064837 
L 350.712022 170.673327 
L 349.626221 172.421932 
L 348.54042 171.882547 
L 347.454618 192.786476 
L 346.368817 167.700334 
L 345.283016 161.453767 
L 344.197215 144.730681 
L 343.111414 131.502887 
L 342.025613 151.40314 
L 340.939811 171.96291 
L 339.85401 150.022274 
L 338.768209 144.962246 
L 337.682408 153.701457 
L 336.596607 170.638843 
L 335.510806 150.699447 
L 334.425005 178.049422 
L 333.339203 167.309661 
L 332.253402 159.620692 
L 331.167601 171.953107 
L 330.0818 171.789739 
L 328.995999 166.655991 
L 327.910198 160.222007 
L 326.824396 154.160546 
L 325.738595 157.176999 
L 324.652794 151.118069 
L 323.566993 179.758286 
L 322.481192 143.806353 
L 321.395391 146.720269 
L 320.30959 163.455662 
L 319.223788 152.290735 
L 318.137987 138.766705 
L 317.052186 132.660478 
L 315.966385 140.063073 
L 314.880584 157.509646 
L 313.794783 149.682835 
L 312.708981 151.220336 
L 311.62318 170.863391 
L 310.537379 166.098469 
L 309.451578 136.19793 
L 308.365777 152.433305 
L 307.279976 140.164297 
L 306.194175 155.715174 
L 305.108373 139.72423 
L 304.022572 163.834671 
L 302.936771 151.05946 
L 301.85097 159.098099 
L 300.765169 137.981292 
L 299.679368 167.900114 
L 298.593566 137.050589 
L 297.507765 157.576463 
L 296.421964 158.995207 
L 295.336163 143.401081 
L 294.250362 160.083171 
L 293.164561 157.095737 
L 292.07876 157.520142 
L 290.992958 172.127535 
L 289.907157 159.036988 
L 288.821356 171.904071 
L 287.735555 140.579721 
L 286.649754 134.379489 
L 285.563953 150.60136 
L 284.478151 161.883811 
L 283.39235 151.179484 
L 282.306549 176.948359 
L 281.220748 166.735099 
L 280.134947 174.704128 
L 279.049146 143.294494 
L 277.963344 153.270144 
L 276.877543 145.354748 
L 275.791742 127.024729 
L 274.705941 142.508461 
L 273.62014 155.949717 
L 272.534339 151.219326 
L 271.448538 140.364863 
L 270.362736 139.034235 
L 269.276935 130.958859 
L 268.191134 146.351695 
L 267.105333 135.033395 
L 266.019532 130.567208 
L 264.933731 112.296919 
L 263.847929 133.704894 
L 262.762128 113.37638 
L 261.676327 126.730344 
L 260.590526 142.165742 
L 259.504725 138.501834 
L 258.418924 136.940801 
L 257.333123 146.539552 
L 256.247321 142.062578 
L 255.16152 142.280012 
L 254.075719 125.413568 
L 252.989918 129.905249 
L 251.904117 146.078887 
L 250.818316 159.612535 
L 249.732514 150.00863 
L 248.646713 131.233558 
L 247.560912 145.365906 
L 246.475111 143.199634 
L 245.38931 142.951344 
L 244.303509 148.689739 
L 243.217708 149.173752 
L 242.131906 172.766399 
L 241.046105 170.560627 
L 239.960304 169.077698 
L 238.874503 162.457974 
L 237.788702 146.302217 
L 236.702901 155.071391 
L 235.617099 165.396111 
L 234.531298 165.857601 
L 233.445497 150.714897 
L 232.359696 163.508017 
L 231.273895 155.632725 
L 230.188094 155.883263 
L 229.102292 165.024078 
L 228.016491 164.982243 
L 226.93069 140.156938 
L 225.844889 136.016386 
L 224.759088 155.002706 
L 223.673287 133.214486 
L 222.587486 129.859772 
L 221.501684 145.061485 
L 220.415883 125.687448 
L 219.330082 149.063857 
L 218.244281 152.712116 
L 217.15848 134.507588 
L 216.072679 158.004493 
L 214.986877 154.840868 
L 213.901076 146.683657 
L 212.815275 150.22519 
L 211.729474 128.914398 
L 210.643673 155.224694 
L 209.557872 132.580826 
L 208.472071 147.370221 
L 207.386269 158.800852 
L 206.300468 153.793701 
L 205.214667 165.398574 
L 204.128866 157.340892 
L 203.043065 162.270531 
L 201.957264 142.575055 
L 200.871462 139.936607 
L 199.785661 158.824365 
L 198.69986 149.52001 
L 197.614059 146.312405 
L 196.528258 142.769854 
L 195.442457 143.083836 
L 194.356656 153.744196 
L 193.270854 170.90565 
L 192.185053 153.135614 
L 191.099252 144.353568 
L 190.013451 152.027042 
L 188.92765 165.694087 
L 187.841849 145.374288 
L 186.756047 164.44891 
L 185.670246 147.984719 
L 184.584445 160.09835 
L 183.498644 156.315048 
L 182.412843 153.932958 
L 181.327042 166.529868 
L 180.24124 165.713873 
L 179.155439 152.275803 
L 178.069638 160.182933 
L 176.983837 142.817177 
L 175.898036 163.350554 
L 174.812235 155.656745 
L 173.726434 159.435049 
L 172.640632 173.335218 
L 171.554831 154.388081 
L 170.46903 154.718299 
L 169.383229 169.655329 
L 168.297428 157.929518 
L 167.211627 162.697581 
L 166.125825 176.182138 
L 165.040024 157.11449 
L 163.954223 159.379915 
L 162.868422 153.489006 
L 161.782621 170.851897 
L 160.69682 170.952331 
L 159.611019 159.734654 
L 158.525217 172.077137 
L 157.439416 157.222088 
L 156.353615 154.077591 
L 155.267814 163.649167 
L 154.182013 169.851315 
L 153.096212 151.860772 
L 152.01041 156.855181 
L 150.924609 146.28155 
L 149.838808 168.338294 
L 148.753007 161.196064 
L 147.667206 170.756691 
L 146.581405 153.935873 
L 145.495604 158.300276 
L 144.409802 168.27319 
L 143.324001 140.250256 
L 142.2382 174.551943 
L 141.152399 157.745794 
L 140.066598 141.289726 
L 138.980797 164.811031 
L 137.894995 162.394097 
L 136.809194 157.804551 
L 135.723393 173.782953 
L 134.637592 181.460984 
L 133.551791 186.967976 
L 132.46599 170.220601 
L 131.380189 169.359766 
L 130.294387 156.128931 
L 129.208586 171.503929 
L 128.122785 182.737664 
L 127.036984 172.754335 
L 125.951183 169.537269 
L 124.865382 183.021086 
L 123.77958 183.246406 
L 122.693779 198.939409 
L 121.607978 193.90189 
L 120.522177 197.730498 
L 119.436376 205.98467 
L 118.350575 210.530537 
L 117.264773 220.523808 
L 116.178972 207.539452 
L 115.093171 206.598798 
L 114.00737 217.189944 
L 112.921569 219.118371 
L 111.835768 204.87158 
L 110.749967 221.093183 
L 109.664165 199.275701 
L 108.578364 204.7104 
L 107.492563 199.284395 
L 106.406762 201.185579 
L 105.320961 202.428471 
L 104.23516 195.985754 
L 103.149358 205.192784 
L 102.063557 195.945904 
L 100.977756 205.83483 
L 99.891955 219.430471 
L 98.806154 217.743703 
L 97.720353 217.817552 
L 96.634552 205.687762 
L 95.54875 208.485923 
L 94.462949 209.521994 
L 93.377148 216.253911 
L 92.291347 222.614322 
L 91.205546 218.638768 
L 90.119745 211.72687 
L 89.033943 213.758434 
L 87.948142 212.526933 
L 86.862341 220.194806 
L 85.77654 223.999204 
L 84.690739 236.106131 
L 83.604938 234.888364 
L 82.519137 235.392872 
L 81.433335 240.386503 
L 80.347534 245.495067 
L 79.261733 252.852124 
L 78.175932 256.50176 
L 77.090131 258.512955 
L 76.00433 258.897204 
L 74.918528 258.901259 
L 73.832727 267.699595 
z
" style="fill:#008000;fill-opacity:0.5;"/>
   </g>
   <g id="matplotlib.axis_1">
    <g id="xtick_1">
     <g id="line2d_1">
      <path clip-path="url(#p3a843c7b47)" d="M 73.832727 307.584 
L 73.832727 41.472 
" style="fill:none;stroke:#b0b0b0;stroke-linecap:square;stroke-width:0.8;"/>
     </g>
     <g id="line2d_2">
      <defs>
       <path d="M 0 0 
L 0 3.5 
" id="m46273e4dea" style="stroke:#000000;stroke-width:0.8;"/>
      </defs>
      <g>
       <use style="stroke:#000000;stroke-width:0.8;" x="73.832727" xlink:href="#m46273e4dea" y="307.584"/>
      </g>
     </g>
     <g id="text_1">
      <!-- 0 -->
      <defs>
       <path d="M 31.78125 66.40625 
Q 24.171875 66.40625 20.328125 58.90625 
Q 16.5 51.421875 16.5 36.375 
Q 16.5 21.390625 20.328125 13.890625 
Q 24.171875 6.390625 31.78125 6.390625 
Q 39.453125 6.390625 43.28125 13.890625 
Q 47.125 21.390625 47.125 36.375 
Q 47.125 51.421875 43.28125 58.90625 
Q 39.453125 66.40625 31.78125 66.40625 
z
M 31.78125 74.21875 
Q 44.046875 74.21875 50.515625 64.515625 
Q 56.984375 54.828125 56.984375 36.375 
Q 56.984375 17.96875 50.515625 8.265625 
Q 44.046875 -1.421875 31.78125 -1.421875 
Q 19.53125 -1.421875 13.0625 8.265625 
Q 6.59375 17.96875 6.59375 36.375 
Q 6.59375 54.828125 13.0625 64.515625 
Q 19.53125 74.21875 31.78125 74.21875 
z
" id="DejaVuSans-48"/>
      </defs>
      <g transform="translate(70.651477 322.182437)scale(0.1 -0.1)">
       <use xlink:href="#DejaVuSans-48"/>
      </g>
     </g>
    </g>
    <g id="xtick_2">
     <g id="line2d_3">
      <path clip-path="url(#p3a843c7b47)" d="M 128.122785 307.584 
L 128.122785 41.472 
" style="fill:none;stroke:#b0b0b0;stroke-linecap:square;stroke-width:0.8;"/>
     </g>
     <g id="line2d_4">
      <g>
       <use style="stroke:#000000;stroke-width:0.8;" x="128.122785" xlink:href="#m46273e4dea" y="307.584"/>
      </g>
     </g>
     <g id="text_2">
      <!-- 50 -->
      <defs>
       <path d="M 10.796875 72.90625 
L 49.515625 72.90625 
L 49.515625 64.59375 
L 19.828125 64.59375 
L 19.828125 46.734375 
Q 21.96875 47.46875 24.109375 47.828125 
Q 26.265625 48.1875 28.421875 48.1875 
Q 40.625 48.1875 47.75 41.5 
Q 54.890625 34.8125 54.890625 23.390625 
Q 54.890625 11.625 47.5625 5.09375 
Q 40.234375 -1.421875 26.90625 -1.421875 
Q 22.3125 -1.421875 17.546875 -0.640625 
Q 12.796875 0.140625 7.71875 1.703125 
L 7.71875 11.625 
Q 12.109375 9.234375 16.796875 8.0625 
Q 21.484375 6.890625 26.703125 6.890625 
Q 35.15625 6.890625 40.078125 11.328125 
Q 45.015625 15.765625 45.015625 23.390625 
Q 45.015625 31 40.078125 35.4375 
Q 35.15625 39.890625 26.703125 39.890625 
Q 22.75 39.890625 18.8125 39.015625 
Q 14.890625 38.140625 10.796875 36.28125 
z
" id="DejaVuSans-53"/>
      </defs>
      <g transform="translate(121.760285 322.182437)scale(0.1 -0.1)">
       <use xlink:href="#DejaVuSans-53"/>
       <use x="63.623047" xlink:href="#DejaVuSans-48"/>
      </g>
     </g>
    </g>
    <g id="xtick_3">
     <g id="line2d_5">
      <path clip-path="url(#p3a843c7b47)" d="M 182.412843 307.584 
L 182.412843 41.472 
" style="fill:none;stroke:#b0b0b0;stroke-linecap:square;stroke-width:0.8;"/>
     </g>
     <g id="line2d_6">
      <g>
       <use style="stroke:#000000;stroke-width:0.8;" x="182.412843" xlink:href="#m46273e4dea" y="307.584"/>
      </g>
     </g>
     <g id="text_3">
      <!-- 100 -->
      <defs>
       <path d="M 12.40625 8.296875 
L 28.515625 8.296875 
L 28.515625 63.921875 
L 10.984375 60.40625 
L 10.984375 69.390625 
L 28.421875 72.90625 
L 38.28125 72.90625 
L 38.28125 8.296875 
L 54.390625 8.296875 
L 54.390625 0 
L 12.40625 0 
z
" id="DejaVuSans-49"/>
      </defs>
      <g transform="translate(172.869093 322.182437)scale(0.1 -0.1)">
       <use xlink:href="#DejaVuSans-49"/>
       <use x="63.623047" xlink:href="#DejaVuSans-48"/>
       <use x="127.246094" xlink:href="#DejaVuSans-48"/>
      </g>
     </g>
    </g>
    <g id="xtick_4">
     <g id="line2d_7">
      <path clip-path="url(#p3a843c7b47)" d="M 236.702901 307.584 
L 236.702901 41.472 
" style="fill:none;stroke:#b0b0b0;stroke-linecap:square;stroke-width:0.8;"/>
     </g>
     <g id="line2d_8">
      <g>
       <use style="stroke:#000000;stroke-width:0.8;" x="236.702901" xlink:href="#m46273e4dea" y="307.584"/>
      </g>
     </g>
     <g id="text_4">
      <!-- 150 -->
      <g transform="translate(227.159151 322.182437)scale(0.1 -0.1)">
       <use xlink:href="#DejaVuSans-49"/>
       <use x="63.623047" xlink:href="#DejaVuSans-53"/>
       <use x="127.246094" xlink:href="#DejaVuSans-48"/>
      </g>
     </g>
    </g>
    <g id="xtick_5">
     <g id="line2d_9">
      <path clip-path="url(#p3a843c7b47)" d="M 290.992958 307.584 
L 290.992958 41.472 
" style="fill:none;stroke:#b0b0b0;stroke-linecap:square;stroke-width:0.8;"/>
     </g>
     <g id="line2d_10">
      <g>
       <use style="stroke:#000000;stroke-width:0.8;" x="290.992958" xlink:href="#m46273e4dea" y="307.584"/>
      </g>
     </g>
     <g id="text_5">
      <!-- 200 -->
      <defs>
       <path d="M 19.1875 8.296875 
L 53.609375 8.296875 
L 53.609375 0 
L 7.328125 0 
L 7.328125 8.296875 
Q 12.9375 14.109375 22.625 23.890625 
Q 32.328125 33.6875 34.8125 36.53125 
Q 39.546875 41.84375 41.421875 45.53125 
Q 43.3125 49.21875 43.3125 52.78125 
Q 43.3125 58.59375 39.234375 62.25 
Q 35.15625 65.921875 28.609375 65.921875 
Q 23.96875 65.921875 18.8125 64.3125 
Q 13.671875 62.703125 7.8125 59.421875 
L 7.8125 69.390625 
Q 13.765625 71.78125 18.9375 73 
Q 24.125 74.21875 28.421875 74.21875 
Q 39.75 74.21875 46.484375 68.546875 
Q 53.21875 62.890625 53.21875 53.421875 
Q 53.21875 48.921875 51.53125 44.890625 
Q 49.859375 40.875 45.40625 35.40625 
Q 44.1875 33.984375 37.640625 27.21875 
Q 31.109375 20.453125 19.1875 8.296875 
z
" id="DejaVuSans-50"/>
      </defs>
      <g transform="translate(281.449208 322.182437)scale(0.1 -0.1)">
       <use xlink:href="#DejaVuSans-50"/>
       <use x="63.623047" xlink:href="#DejaVuSans-48"/>
       <use x="127.246094" xlink:href="#DejaVuSans-48"/>
      </g>
     </g>
    </g>
    <g id="xtick_6">
     <g id="line2d_11">
      <path clip-path="url(#p3a843c7b47)" d="M 345.283016 307.584 
L 345.283016 41.472 
" style="fill:none;stroke:#b0b0b0;stroke-linecap:square;stroke-width:0.8;"/>
     </g>
     <g id="line2d_12">
      <g>
       <use style="stroke:#000000;stroke-width:0.8;" x="345.283016" xlink:href="#m46273e4dea" y="307.584"/>
      </g>
     </g>
     <g id="text_6">
      <!-- 250 -->
      <g transform="translate(335.739266 322.182437)scale(0.1 -0.1)">
       <use xlink:href="#DejaVuSans-50"/>
       <use x="63.623047" xlink:href="#DejaVuSans-53"/>
       <use x="127.246094" xlink:href="#DejaVuSans-48"/>
      </g>
     </g>
    </g>
    <g id="xtick_7">
     <g id="line2d_13">
      <path clip-path="url(#p3a843c7b47)" d="M 399.573074 307.584 
L 399.573074 41.472 
" style="fill:none;stroke:#b0b0b0;stroke-linecap:square;stroke-width:0.8;"/>
     </g>
     <g id="line2d_14">
      <g>
       <use style="stroke:#000000;stroke-width:0.8;" x="399.573074" xlink:href="#m46273e4dea" y="307.584"/>
      </g>
     </g>
     <g id="text_7">
      <!-- 300 -->
      <defs>
       <path d="M 40.578125 39.3125 
Q 47.65625 37.796875 51.625 33 
Q 55.609375 28.21875 55.609375 21.1875 
Q 55.609375 10.40625 48.1875 4.484375 
Q 40.765625 -1.421875 27.09375 -1.421875 
Q 22.515625 -1.421875 17.65625 -0.515625 
Q 12.796875 0.390625 7.625 2.203125 
L 7.625 11.71875 
Q 11.71875 9.328125 16.59375 8.109375 
Q 21.484375 6.890625 26.8125 6.890625 
Q 36.078125 6.890625 40.9375 10.546875 
Q 45.796875 14.203125 45.796875 21.1875 
Q 45.796875 27.640625 41.28125 31.265625 
Q 36.765625 34.90625 28.71875 34.90625 
L 20.21875 34.90625 
L 20.21875 43.015625 
L 29.109375 43.015625 
Q 36.375 43.015625 40.234375 45.921875 
Q 44.09375 48.828125 44.09375 54.296875 
Q 44.09375 59.90625 40.109375 62.90625 
Q 36.140625 65.921875 28.71875 65.921875 
Q 24.65625 65.921875 20.015625 65.03125 
Q 15.375 64.15625 9.8125 62.3125 
L 9.8125 71.09375 
Q 15.4375 72.65625 20.34375 73.4375 
Q 25.25 74.21875 29.59375 74.21875 
Q 40.828125 74.21875 47.359375 69.109375 
Q 53.90625 64.015625 53.90625 55.328125 
Q 53.90625 49.265625 50.4375 45.09375 
Q 46.96875 40.921875 40.578125 39.3125 
z
" id="DejaVuSans-51"/>
      </defs>
      <g transform="translate(390.029324 322.182437)scale(0.1 -0.1)">
       <use xlink:href="#DejaVuSans-51"/>
       <use x="63.623047" xlink:href="#DejaVuSans-48"/>
       <use x="127.246094" xlink:href="#DejaVuSans-48"/>
      </g>
     </g>
    </g>
    <g id="text_8">
     <!-- Generations -->
     <defs>
      <path d="M 59.515625 10.40625 
L 59.515625 29.984375 
L 43.40625 29.984375 
L 43.40625 38.09375 
L 69.28125 38.09375 
L 69.28125 6.78125 
Q 63.578125 2.734375 56.6875 0.65625 
Q 49.8125 -1.421875 42 -1.421875 
Q 24.90625 -1.421875 15.25 8.5625 
Q 5.609375 18.5625 5.609375 36.375 
Q 5.609375 54.25 15.25 64.234375 
Q 24.90625 74.21875 42 74.21875 
Q 49.125 74.21875 55.546875 72.453125 
Q 61.96875 70.703125 67.390625 67.28125 
L 67.390625 56.78125 
Q 61.921875 61.421875 55.765625 63.765625 
Q 49.609375 66.109375 42.828125 66.109375 
Q 29.4375 66.109375 22.71875 58.640625 
Q 16.015625 51.171875 16.015625 36.375 
Q 16.015625 21.625 22.71875 14.15625 
Q 29.4375 6.6875 42.828125 6.6875 
Q 48.046875 6.6875 52.140625 7.59375 
Q 56.25 8.5 59.515625 10.40625 
z
" id="DejaVuSans-71"/>
      <path d="M 56.203125 29.59375 
L 56.203125 25.203125 
L 14.890625 25.203125 
Q 15.484375 15.921875 20.484375 11.0625 
Q 25.484375 6.203125 34.421875 6.203125 
Q 39.59375 6.203125 44.453125 7.46875 
Q 49.3125 8.734375 54.109375 11.28125 
L 54.109375 2.78125 
Q 49.265625 0.734375 44.1875 -0.34375 
Q 39.109375 -1.421875 33.890625 -1.421875 
Q 20.796875 -1.421875 13.15625 6.1875 
Q 5.515625 13.8125 5.515625 26.8125 
Q 5.515625 40.234375 12.765625 48.109375 
Q 20.015625 56 32.328125 56 
Q 43.359375 56 49.78125 48.890625 
Q 56.203125 41.796875 56.203125 29.59375 
z
M 47.21875 32.234375 
Q 47.125 39.59375 43.09375 43.984375 
Q 39.0625 48.390625 32.421875 48.390625 
Q 24.90625 48.390625 20.390625 44.140625 
Q 15.875 39.890625 15.1875 32.171875 
z
" id="DejaVuSans-101"/>
      <path d="M 54.890625 33.015625 
L 54.890625 0 
L 45.90625 0 
L 45.90625 32.71875 
Q 45.90625 40.484375 42.875 44.328125 
Q 39.84375 48.1875 33.796875 48.1875 
Q 26.515625 48.1875 22.3125 43.546875 
Q 18.109375 38.921875 18.109375 30.90625 
L 18.109375 0 
L 9.078125 0 
L 9.078125 54.6875 
L 18.109375 54.6875 
L 18.109375 46.1875 
Q 21.34375 51.125 25.703125 53.5625 
Q 30.078125 56 35.796875 56 
Q 45.21875 56 50.046875 50.171875 
Q 54.890625 44.34375 54.890625 33.015625 
z
" id="DejaVuSans-110"/>
      <path d="M 41.109375 46.296875 
Q 39.59375 47.171875 37.8125 47.578125 
Q 36.03125 48 33.890625 48 
Q 26.265625 48 22.1875 43.046875 
Q 18.109375 38.09375 18.109375 28.8125 
L 18.109375 0 
L 9.078125 0 
L 9.078125 54.6875 
L 18.109375 54.6875 
L 18.109375 46.1875 
Q 20.953125 51.171875 25.484375 53.578125 
Q 30.03125 56 36.53125 56 
Q 37.453125 56 38.578125 55.875 
Q 39.703125 55.765625 41.0625 55.515625 
z
" id="DejaVuSans-114"/>
      <path d="M 34.28125 27.484375 
Q 23.390625 27.484375 19.1875 25 
Q 14.984375 22.515625 14.984375 16.5 
Q 14.984375 11.71875 18.140625 8.90625 
Q 21.296875 6.109375 26.703125 6.109375 
Q 34.1875 6.109375 38.703125 11.40625 
Q 43.21875 16.703125 43.21875 25.484375 
L 43.21875 27.484375 
z
M 52.203125 31.203125 
L 52.203125 0 
L 43.21875 0 
L 43.21875 8.296875 
Q 40.140625 3.328125 35.546875 0.953125 
Q 30.953125 -1.421875 24.3125 -1.421875 
Q 15.921875 -1.421875 10.953125 3.296875 
Q 6 8.015625 6 15.921875 
Q 6 25.140625 12.171875 29.828125 
Q 18.359375 34.515625 30.609375 34.515625 
L 43.21875 34.515625 
L 43.21875 35.40625 
Q 43.21875 41.609375 39.140625 45 
Q 35.0625 48.390625 27.6875 48.390625 
Q 23 48.390625 18.546875 47.265625 
Q 14.109375 46.140625 10.015625 43.890625 
L 10.015625 52.203125 
Q 14.9375 54.109375 19.578125 55.046875 
Q 24.21875 56 28.609375 56 
Q 40.484375 56 46.34375 49.84375 
Q 52.203125 43.703125 52.203125 31.203125 
z
" id="DejaVuSans-97"/>
      <path d="M 18.3125 70.21875 
L 18.3125 54.6875 
L 36.8125 54.6875 
L 36.8125 47.703125 
L 18.3125 47.703125 
L 18.3125 18.015625 
Q 18.3125 11.328125 20.140625 9.421875 
Q 21.96875 7.515625 27.59375 7.515625 
L 36.8125 7.515625 
L 36.8125 0 
L 27.59375 0 
Q 17.1875 0 13.234375 3.875 
Q 9.28125 7.765625 9.28125 18.015625 
L 9.28125 47.703125 
L 2.6875 47.703125 
L 2.6875 54.6875 
L 9.28125 54.6875 
L 9.28125 70.21875 
z
" id="DejaVuSans-116"/>
      <path d="M 9.421875 54.6875 
L 18.40625 54.6875 
L 18.40625 0 
L 9.421875 0 
z
M 9.421875 75.984375 
L 18.40625 75.984375 
L 18.40625 64.59375 
L 9.421875 64.59375 
z
" id="DejaVuSans-105"/>
      <path d="M 30.609375 48.390625 
Q 23.390625 48.390625 19.1875 42.75 
Q 14.984375 37.109375 14.984375 27.296875 
Q 14.984375 17.484375 19.15625 11.84375 
Q 23.34375 6.203125 30.609375 6.203125 
Q 37.796875 6.203125 41.984375 11.859375 
Q 46.1875 17.53125 46.1875 27.296875 
Q 46.1875 37.015625 41.984375 42.703125 
Q 37.796875 48.390625 30.609375 48.390625 
z
M 30.609375 56 
Q 42.328125 56 49.015625 48.375 
Q 55.71875 40.765625 55.71875 27.296875 
Q 55.71875 13.875 49.015625 6.21875 
Q 42.328125 -1.421875 30.609375 -1.421875 
Q 18.84375 -1.421875 12.171875 6.21875 
Q 5.515625 13.875 5.515625 27.296875 
Q 5.515625 40.765625 12.171875 48.375 
Q 18.84375 56 30.609375 56 
z
" id="DejaVuSans-111"/>
      <path d="M 44.28125 53.078125 
L 44.28125 44.578125 
Q 40.484375 46.53125 36.375 47.5 
Q 32.28125 48.484375 27.875 48.484375 
Q 21.1875 48.484375 17.84375 46.4375 
Q 14.5 44.390625 14.5 40.28125 
Q 14.5 37.15625 16.890625 35.375 
Q 19.28125 33.59375 26.515625 31.984375 
L 29.59375 31.296875 
Q 39.15625 29.25 43.1875 25.515625 
Q 47.21875 21.78125 47.21875 15.09375 
Q 47.21875 7.46875 41.1875 3.015625 
Q 35.15625 -1.421875 24.609375 -1.421875 
Q 20.21875 -1.421875 15.453125 -0.5625 
Q 10.6875 0.296875 5.421875 2 
L 5.421875 11.28125 
Q 10.40625 8.6875 15.234375 7.390625 
Q 20.0625 6.109375 24.8125 6.109375 
Q 31.15625 6.109375 34.5625 8.28125 
Q 37.984375 10.453125 37.984375 14.40625 
Q 37.984375 18.0625 35.515625 20.015625 
Q 33.0625 21.96875 24.703125 23.78125 
L 21.578125 24.515625 
Q 13.234375 26.265625 9.515625 29.90625 
Q 5.8125 33.546875 5.8125 39.890625 
Q 5.8125 47.609375 11.28125 51.796875 
Q 16.75 56 26.8125 56 
Q 31.78125 56 36.171875 55.265625 
Q 40.578125 54.546875 44.28125 53.078125 
z
" id="DejaVuSans-115"/>
     </defs>
     <g transform="translate(205.662344 335.860562)scale(0.1 -0.1)">
      <use xlink:href="#DejaVuSans-71"/>
      <use x="77.490234" xlink:href="#DejaVuSans-101"/>
      <use x="139.013672" xlink:href="#DejaVuSans-110"/>
      <use x="202.392578" xlink:href="#DejaVuSans-101"/>
      <use x="263.916016" xlink:href="#DejaVuSans-114"/>
      <use x="305.029297" xlink:href="#DejaVuSans-97"/>
      <use x="366.308594" xlink:href="#DejaVuSans-116"/>
      <use x="405.517578" xlink:href="#DejaVuSans-105"/>
      <use x="433.300781" xlink:href="#DejaVuSans-111"/>
      <use x="494.482422" xlink:href="#DejaVuSans-110"/>
      <use x="557.861328" xlink:href="#DejaVuSans-115"/>
     </g>
    </g>
   </g>
   <g id="matplotlib.axis_2">
    <g id="ytick_1">
     <g id="line2d_15">
      <path clip-path="url(#p3a843c7b47)" d="M 57.6 295.558102 
L 414.72 295.558102 
" style="fill:none;stroke:#b0b0b0;stroke-linecap:square;stroke-width:0.8;"/>
     </g>
     <g id="line2d_16">
      <defs>
       <path d="M 0 0 
L -3.5 0 
" id="m993b9dbcc9" style="stroke:#000000;stroke-width:0.8;"/>
      </defs>
      <g>
       <use style="stroke:#000000;stroke-width:0.8;" x="57.6" xlink:href="#m993b9dbcc9" y="295.558102"/>
      </g>
     </g>
     <g id="text_9">
      <!-- 0.0 -->
      <defs>
       <path d="M 10.6875 12.40625 
L 21 12.40625 
L 21 0 
L 10.6875 0 
z
" id="DejaVuSans-46"/>
      </defs>
      <g transform="translate(34.696875 299.357321)scale(0.1 -0.1)">
       <use xlink:href="#DejaVuSans-48"/>
       <use x="63.623047" xlink:href="#DejaVuSans-46"/>
       <use x="95.410156" xlink:href="#DejaVuSans-48"/>
      </g>
     </g>
    </g>
    <g id="ytick_2">
     <g id="line2d_17">
      <path clip-path="url(#p3a843c7b47)" d="M 57.6 250.050593 
L 414.72 250.050593 
" style="fill:none;stroke:#b0b0b0;stroke-linecap:square;stroke-width:0.8;"/>
     </g>
     <g id="line2d_18">
      <g>
       <use style="stroke:#000000;stroke-width:0.8;" x="57.6" xlink:href="#m993b9dbcc9" y="250.050593"/>
      </g>
     </g>
     <g id="text_10">
      <!-- 0.2 -->
      <g transform="translate(34.696875 253.849812)scale(0.1 -0.1)">
       <use xlink:href="#DejaVuSans-48"/>
       <use x="63.623047" xlink:href="#DejaVuSans-46"/>
       <use x="95.410156" xlink:href="#DejaVuSans-50"/>
      </g>
     </g>
    </g>
    <g id="ytick_3">
     <g id="line2d_19">
      <path clip-path="url(#p3a843c7b47)" d="M 57.6 204.543084 
L 414.72 204.543084 
" style="fill:none;stroke:#b0b0b0;stroke-linecap:square;stroke-width:0.8;"/>
     </g>
     <g id="line2d_20">
      <g>
       <use style="stroke:#000000;stroke-width:0.8;" x="57.6" xlink:href="#m993b9dbcc9" y="204.543084"/>
      </g>
     </g>
     <g id="text_11">
      <!-- 0.4 -->
      <defs>
       <path d="M 37.796875 64.3125 
L 12.890625 25.390625 
L 37.796875 25.390625 
z
M 35.203125 72.90625 
L 47.609375 72.90625 
L 47.609375 25.390625 
L 58.015625 25.390625 
L 58.015625 17.1875 
L 47.609375 17.1875 
L 47.609375 0 
L 37.796875 0 
L 37.796875 17.1875 
L 4.890625 17.1875 
L 4.890625 26.703125 
z
" id="DejaVuSans-52"/>
      </defs>
      <g transform="translate(34.696875 208.342303)scale(0.1 -0.1)">
       <use xlink:href="#DejaVuSans-48"/>
       <use x="63.623047" xlink:href="#DejaVuSans-46"/>
       <use x="95.410156" xlink:href="#DejaVuSans-52"/>
      </g>
     </g>
    </g>
    <g id="ytick_4">
     <g id="line2d_21">
      <path clip-path="url(#p3a843c7b47)" d="M 57.6 159.035575 
L 414.72 159.035575 
" style="fill:none;stroke:#b0b0b0;stroke-linecap:square;stroke-width:0.8;"/>
     </g>
     <g id="line2d_22">
      <g>
       <use style="stroke:#000000;stroke-width:0.8;" x="57.6" xlink:href="#m993b9dbcc9" y="159.035575"/>
      </g>
     </g>
     <g id="text_12">
      <!-- 0.6 -->
      <defs>
       <path d="M 33.015625 40.375 
Q 26.375 40.375 22.484375 35.828125 
Q 18.609375 31.296875 18.609375 23.390625 
Q 18.609375 15.53125 22.484375 10.953125 
Q 26.375 6.390625 33.015625 6.390625 
Q 39.65625 6.390625 43.53125 10.953125 
Q 47.40625 15.53125 47.40625 23.390625 
Q 47.40625 31.296875 43.53125 35.828125 
Q 39.65625 40.375 33.015625 40.375 
z
M 52.59375 71.296875 
L 52.59375 62.3125 
Q 48.875 64.0625 45.09375 64.984375 
Q 41.3125 65.921875 37.59375 65.921875 
Q 27.828125 65.921875 22.671875 59.328125 
Q 17.53125 52.734375 16.796875 39.40625 
Q 19.671875 43.65625 24.015625 45.921875 
Q 28.375 48.1875 33.59375 48.1875 
Q 44.578125 48.1875 50.953125 41.515625 
Q 57.328125 34.859375 57.328125 23.390625 
Q 57.328125 12.15625 50.6875 5.359375 
Q 44.046875 -1.421875 33.015625 -1.421875 
Q 20.359375 -1.421875 13.671875 8.265625 
Q 6.984375 17.96875 6.984375 36.375 
Q 6.984375 53.65625 15.1875 63.9375 
Q 23.390625 74.21875 37.203125 74.21875 
Q 40.921875 74.21875 44.703125 73.484375 
Q 48.484375 72.75 52.59375 71.296875 
z
" id="DejaVuSans-54"/>
      </defs>
      <g transform="translate(34.696875 162.834794)scale(0.1 -0.1)">
       <use xlink:href="#DejaVuSans-48"/>
       <use x="63.623047" xlink:href="#DejaVuSans-46"/>
       <use x="95.410156" xlink:href="#DejaVuSans-54"/>
      </g>
     </g>
    </g>
    <g id="ytick_5">
     <g id="line2d_23">
      <path clip-path="url(#p3a843c7b47)" d="M 57.6 113.528066 
L 414.72 113.528066 
" style="fill:none;stroke:#b0b0b0;stroke-linecap:square;stroke-width:0.8;"/>
     </g>
     <g id="line2d_24">
      <g>
       <use style="stroke:#000000;stroke-width:0.8;" x="57.6" xlink:href="#m993b9dbcc9" y="113.528066"/>
      </g>
     </g>
     <g id="text_13">
      <!-- 0.8 -->
      <defs>
       <path d="M 31.78125 34.625 
Q 24.75 34.625 20.71875 30.859375 
Q 16.703125 27.09375 16.703125 20.515625 
Q 16.703125 13.921875 20.71875 10.15625 
Q 24.75 6.390625 31.78125 6.390625 
Q 38.8125 6.390625 42.859375 10.171875 
Q 46.921875 13.96875 46.921875 20.515625 
Q 46.921875 27.09375 42.890625 30.859375 
Q 38.875 34.625 31.78125 34.625 
z
M 21.921875 38.8125 
Q 15.578125 40.375 12.03125 44.71875 
Q 8.5 49.078125 8.5 55.328125 
Q 8.5 64.0625 14.71875 69.140625 
Q 20.953125 74.21875 31.78125 74.21875 
Q 42.671875 74.21875 48.875 69.140625 
Q 55.078125 64.0625 55.078125 55.328125 
Q 55.078125 49.078125 51.53125 44.71875 
Q 48 40.375 41.703125 38.8125 
Q 48.828125 37.15625 52.796875 32.3125 
Q 56.78125 27.484375 56.78125 20.515625 
Q 56.78125 9.90625 50.3125 4.234375 
Q 43.84375 -1.421875 31.78125 -1.421875 
Q 19.734375 -1.421875 13.25 4.234375 
Q 6.78125 9.90625 6.78125 20.515625 
Q 6.78125 27.484375 10.78125 32.3125 
Q 14.796875 37.15625 21.921875 38.8125 
z
M 18.3125 54.390625 
Q 18.3125 48.734375 21.84375 45.5625 
Q 25.390625 42.390625 31.78125 42.390625 
Q 38.140625 42.390625 41.71875 45.5625 
Q 45.3125 48.734375 45.3125 54.390625 
Q 45.3125 60.0625 41.71875 63.234375 
Q 38.140625 66.40625 31.78125 66.40625 
Q 25.390625 66.40625 21.84375 63.234375 
Q 18.3125 60.0625 18.3125 54.390625 
z
" id="DejaVuSans-56"/>
      </defs>
      <g transform="translate(34.696875 117.327285)scale(0.1 -0.1)">
       <use xlink:href="#DejaVuSans-48"/>
       <use x="63.623047" xlink:href="#DejaVuSans-46"/>
       <use x="95.410156" xlink:href="#DejaVuSans-56"/>
      </g>
     </g>
    </g>
    <g id="ytick_6">
     <g id="line2d_25">
      <path clip-path="url(#p3a843c7b47)" d="M 57.6 68.020557 
L 414.72 68.020557 
" style="fill:none;stroke:#b0b0b0;stroke-linecap:square;stroke-width:0.8;"/>
     </g>
     <g id="line2d_26">
      <g>
       <use style="stroke:#000000;stroke-width:0.8;" x="57.6" xlink:href="#m993b9dbcc9" y="68.020557"/>
      </g>
     </g>
     <g id="text_14">
      <!-- 1.0 -->
      <g transform="translate(34.696875 71.819776)scale(0.1 -0.1)">
       <use xlink:href="#DejaVuSans-49"/>
       <use x="63.623047" xlink:href="#DejaVuSans-46"/>
       <use x="95.410156" xlink:href="#DejaVuSans-48"/>
      </g>
     </g>
    </g>
    <g id="text_15">
     <!-- Scores -->
     <defs>
      <path d="M 53.515625 70.515625 
L 53.515625 60.890625 
Q 47.90625 63.578125 42.921875 64.890625 
Q 37.9375 66.21875 33.296875 66.21875 
Q 25.25 66.21875 20.875 63.09375 
Q 16.5 59.96875 16.5 54.203125 
Q 16.5 49.359375 19.40625 46.890625 
Q 22.3125 44.4375 30.421875 42.921875 
L 36.375 41.703125 
Q 47.40625 39.59375 52.65625 34.296875 
Q 57.90625 29 57.90625 20.125 
Q 57.90625 9.515625 50.796875 4.046875 
Q 43.703125 -1.421875 29.984375 -1.421875 
Q 24.8125 -1.421875 18.96875 -0.25 
Q 13.140625 0.921875 6.890625 3.21875 
L 6.890625 13.375 
Q 12.890625 10.015625 18.65625 8.296875 
Q 24.421875 6.59375 29.984375 6.59375 
Q 38.421875 6.59375 43.015625 9.90625 
Q 47.609375 13.234375 47.609375 19.390625 
Q 47.609375 24.75 44.3125 27.78125 
Q 41.015625 30.8125 33.5 32.328125 
L 27.484375 33.5 
Q 16.453125 35.6875 11.515625 40.375 
Q 6.59375 45.0625 6.59375 53.421875 
Q 6.59375 63.09375 13.40625 68.65625 
Q 20.21875 74.21875 32.171875 74.21875 
Q 37.3125 74.21875 42.625 73.28125 
Q 47.953125 72.359375 53.515625 70.515625 
z
" id="DejaVuSans-83"/>
      <path d="M 48.78125 52.59375 
L 48.78125 44.1875 
Q 44.96875 46.296875 41.140625 47.34375 
Q 37.3125 48.390625 33.40625 48.390625 
Q 24.65625 48.390625 19.8125 42.84375 
Q 14.984375 37.3125 14.984375 27.296875 
Q 14.984375 17.28125 19.8125 11.734375 
Q 24.65625 6.203125 33.40625 6.203125 
Q 37.3125 6.203125 41.140625 7.25 
Q 44.96875 8.296875 48.78125 10.40625 
L 48.78125 2.09375 
Q 45.015625 0.34375 40.984375 -0.53125 
Q 36.96875 -1.421875 32.421875 -1.421875 
Q 20.0625 -1.421875 12.78125 6.34375 
Q 5.515625 14.109375 5.515625 27.296875 
Q 5.515625 40.671875 12.859375 48.328125 
Q 20.21875 56 33.015625 56 
Q 37.15625 56 41.109375 55.140625 
Q 45.0625 54.296875 48.78125 52.59375 
z
" id="DejaVuSans-99"/>
     </defs>
     <g transform="translate(28.617187 191.245969)rotate(-90)scale(0.1 -0.1)">
      <use xlink:href="#DejaVuSans-83"/>
      <use x="63.476562" xlink:href="#DejaVuSans-99"/>
      <use x="118.457031" xlink:href="#DejaVuSans-111"/>
      <use x="179.638672" xlink:href="#DejaVuSans-114"/>
      <use x="220.720703" xlink:href="#DejaVuSans-101"/>
      <use x="282.244141" xlink:href="#DejaVuSans-115"/>
     </g>
    </g>
   </g>
   <g id="line2d_27">
    <path clip-path="url(#p3a843c7b47)" d="M 73.832727 180.82067 
L 74.918528 181.451274 
L 76.00433 178.720823 
L 77.090131 178.038211 
L 78.175932 169.008221 
L 79.261733 169.281266 
L 80.347534 180.788164 
L 81.433335 181.054708 
L 82.519137 180.801167 
L 83.604938 182.211899 
L 84.690739 180.599633 
L 85.77654 177.492121 
L 86.862341 180.742657 
L 87.948142 179.00687 
L 89.033943 172.837352 
L 90.119745 165.30911 
L 91.205546 164.554986 
L 92.291347 145.896907 
L 94.462949 130.33984 
L 95.54875 138.043611 
L 96.634552 122.330519 
L 97.720353 125.776087 
L 98.806154 126.049132 
L 99.891955 104.530582 
L 100.977756 115.998474 
L 102.063557 109.711937 
L 103.149358 107.404056 
L 104.23516 99.160696 
L 106.406762 105.941314 
L 107.492563 106.012826 
L 109.664165 96.222211 
L 110.749967 122.8246 
L 111.835768 139.649376 
L 112.921569 130.183814 
L 114.00737 139.909419 
L 115.093171 139.564862 
L 116.178972 142.743887 
L 118.350575 155.551 
L 119.436376 158.313956 
L 120.522177 169.164246 
L 121.607978 163.735851 
L 122.693779 149.095435 
L 123.77958 147.424659 
L 124.865382 150.64269 
L 127.036984 137.087954 
L 128.122785 140.754559 
L 129.208586 129.897767 
L 131.380189 118.94346 
L 132.46599 119.014972 
L 133.551791 119.983631 
L 134.637592 116.03748 
L 135.723393 110.030489 
L 136.809194 104.706111 
L 137.894995 112.812948 
L 138.980797 104.335549 
L 140.066598 106.357383 
L 141.152399 105.330214 
L 142.2382 111.415218 
L 143.324001 109.354378 
L 144.409802 112.169342 
L 145.495604 116.193506 
L 146.581405 107.00749 
L 147.667206 110.427055 
L 148.753007 118.891451 
L 149.838808 107.313041 
L 150.924609 112.078327 
L 152.01041 99.472747 
L 153.096212 106.857966 
L 154.182013 100.649441 
L 155.267814 91.983511 
L 157.439416 99.089184 
L 158.525217 97.418408 
L 159.611019 104.426564 
L 160.69682 107.098505 
L 161.782621 107.839628 
L 162.868422 106.779953 
L 163.954223 106.955482 
L 165.040024 103.028834 
L 166.125825 94.817979 
L 167.211627 114.295193 
L 168.297428 113.235518 
L 169.383229 99.726289 
L 170.46903 108.94481 
L 171.554831 108.697769 
L 172.640632 106.311876 
L 173.726434 101.650606 
L 174.812235 102.599763 
L 175.898036 97.483419 
L 176.983837 96.144198 
L 178.069638 97.177868 
L 179.155439 105.960818 
L 180.24124 105.785289 
L 181.327042 96.820309 
L 182.412843 104.387558 
L 183.498644 106.974985 
L 185.670246 99.115188 
L 186.756047 96.111692 
L 187.841849 99.758794 
L 188.92765 99.290717 
L 190.013451 110.154009 
L 191.099252 102.632268 
L 192.185053 101.754624 
L 193.270854 107.6706 
L 194.356656 98.081517 
L 195.442457 101.098015 
L 196.528258 105.213194 
L 197.614059 91.333404 
L 198.69986 99.193201 
L 199.785661 109.54941 
L 200.871462 101.000499 
L 201.957264 104.029999 
L 203.043065 94.011846 
L 204.128866 94.570938 
L 205.214667 99.73279 
L 206.300468 93.797311 
L 207.386269 120.646741 
L 208.472071 108.847294 
L 209.557872 111.447723 
L 210.643673 110.310035 
L 211.729474 104.27704 
L 212.815275 110.570078 
L 213.901076 95.91666 
L 214.986877 113.892126 
L 216.072679 123.747752 
L 217.15848 128.805587 
L 218.244281 136.054283 
L 219.330082 120.607734 
L 220.415883 109.14467 
L 221.501684 102.771746 
L 222.587486 111.070661 
L 223.673287 118.316975 
L 224.759088 131.971609 
L 225.844889 124.911445 
L 226.93069 119.037886 
L 228.016491 117.363042 
L 229.102292 134.123465 
L 230.188094 120.475677 
L 231.273895 101.034421 
L 232.359696 112.572409 
L 233.445497 107.03343 
L 234.531298 109.627423 
L 235.617099 105.976315 
L 236.702901 111.909299 
L 237.788702 123.434156 
L 238.874503 111.217289 
L 239.960304 107.358548 
L 241.046105 104.262396 
L 242.131906 114.598445 
L 243.217708 109.328373 
L 245.38931 102.385228 
L 246.475111 115.218345 
L 247.560912 120.055143 
L 248.646713 104.901143 
L 250.818316 119.398342 
L 251.904117 98.549595 
L 252.989918 120.170746 
L 254.075719 100.860825 
L 255.16152 116.830611 
L 256.247321 104.479098 
L 257.333123 113.599578 
L 258.418924 115.574939 
L 259.504725 119.314021 
L 260.590526 106.317786 
L 261.676327 105.499241 
L 262.762128 95.634025 
L 263.847929 96.86168 
L 264.933731 105.514368 
L 266.019532 92.396362 
L 267.105333 112.442387 
L 268.191134 112.357873 
L 269.276935 119.24901 
L 270.362736 115.91396 
L 271.448538 113.554071 
L 272.534339 126.705741 
L 273.62014 122.304514 
L 274.705941 127.817424 
L 275.791742 114.061154 
L 276.877543 127.869433 
L 277.963344 115.343217 
L 279.049146 120.994645 
L 280.134947 133.392455 
L 281.220748 144.359886 
L 282.306549 121.702682 
L 283.39235 119.892616 
L 284.478151 118.52089 
L 285.563953 125.593292 
L 286.649754 107.973189 
L 287.735555 105.78588 
L 288.821356 124.079307 
L 289.907157 103.73049 
L 290.992958 115.767325 
L 292.07876 119.236008 
L 293.164561 126.418577 
L 294.250362 105.516643 
L 295.336163 102.443737 
L 296.421964 102.846804 
L 297.507765 105.271704 
L 298.593566 98.270049 
L 299.679368 118.465019 
L 300.765169 105.512244 
L 301.85097 104.075507 
L 302.936771 104.137628 
L 304.022572 113.173462 
L 305.108373 97.017916 
L 306.194175 101.040857 
L 307.279976 107.309363 
L 308.365777 116.450266 
L 309.451578 111.761613 
L 310.537379 111.255974 
L 311.62318 118.202337 
L 312.708981 114.696946 
L 313.794783 109.055328 
L 314.880584 105.188306 
L 317.052186 116.423999 
L 318.137987 104.518499 
L 321.395391 122.980626 
L 322.481192 107.657401 
L 323.566993 115.557189 
L 324.652794 96.161834 
L 325.738595 102.246407 
L 326.824396 98.614219 
L 327.910198 112.556124 
L 328.995999 113.626567 
L 330.0818 103.470907 
L 331.167601 116.384598 
L 332.253402 108.708079 
L 333.339203 112.740057 
L 334.425005 111.288808 
L 335.510806 103.986593 
L 336.596607 106.035416 
L 337.682408 109.10865 
L 338.768209 98.395371 
L 339.85401 114.339091 
L 340.939811 102.833802 
L 342.025613 111.045838 
L 343.111414 106.508221 
L 344.197215 95.695624 
L 345.283016 123.150941 
L 346.368817 116.778603 
L 347.454618 117.087564 
L 348.54042 120.497216 
L 349.626221 109.750943 
L 350.712022 116.46005 
L 351.797823 118.988967 
L 352.883624 111.499732 
L 353.969425 113.352537 
L 355.055227 99.102186 
L 356.141028 108.990317 
L 358.31263 122.395529 
L 359.398431 104.530582 
L 360.484232 108.671765 
L 361.570033 123.474707 
L 362.655835 121.719418 
L 363.741636 122.050973 
L 364.827437 123.962288 
L 365.913238 127.381852 
L 366.999039 124.241834 
L 368.08484 126.777252 
L 369.170642 118.293353 
L 370.256443 112.773942 
L 371.342244 104.264038 
L 372.428045 123.409697 
L 373.513846 105.616261 
L 374.599647 115.146833 
L 375.685448 110.160511 
L 377.857051 106.428895 
L 378.942852 104.784123 
L 380.028653 107.469066 
L 381.114454 111.798781 
L 382.200255 108.795285 
L 383.286057 118.345361 
L 384.371858 115.965968 
L 385.457659 114.002645 
L 386.54346 117.214174 
L 387.629261 117.266183 
L 388.715062 117.149164 
L 389.800863 127.095805 
L 390.886665 124.21583 
L 391.972466 124.813928 
L 393.058267 121.933953 
L 394.144068 128.454529 
L 395.229869 111.044656 
L 396.31567 118.735425 
L 397.401472 111.701265 
L 398.487273 117.623742 
L 398.487273 117.623742 
" style="fill:none;stroke:#0000ff;stroke-linecap:square;stroke-width:1.5;"/>
   </g>
   <g id="line2d_28">
    <path clip-path="url(#p3a843c7b47)" d="M 73.832727 238.149296 
L 74.918528 193.820648 
L 76.00433 191.545273 
L 77.090131 185.993357 
L 78.175932 196.516426 
L 79.261733 192.260391 
L 80.347534 189.044527 
L 81.433335 183.4276 
L 82.519137 176.66215 
L 83.604938 176.43678 
L 84.690739 165.120579 
L 85.77654 173.463622 
L 86.862341 157.427643 
L 87.948142 165.293941 
L 89.033943 169.519638 
L 90.119745 168.405788 
L 91.205546 189.222223 
L 92.291347 196.200041 
L 93.377148 171.604316 
L 94.462949 185.75065 
L 95.54875 172.5188 
L 96.634552 171.26626 
L 97.720353 177.247247 
L 98.806154 181.524953 
L 99.891955 183.626966 
L 100.977756 169.640992 
L 103.149358 178.7815 
L 104.23516 167.721008 
L 105.320961 170.308435 
L 106.406762 175.56997 
L 107.492563 169.753677 
L 109.664165 148.469165 
L 110.749967 195.692957 
L 111.835768 176.150733 
L 112.921569 192.9235 
L 114.00737 182.968191 
L 115.093171 175.838681 
L 116.178972 183.522949 
L 117.264773 188.559113 
L 118.350575 189.100869 
L 119.436376 187.271901 
L 120.522177 151.724035 
L 121.607978 150.142108 
L 122.693779 169.14691 
L 123.77958 169.450294 
L 124.865382 175.240582 
L 125.951183 166.693839 
L 127.036984 155.958401 
L 128.122785 176.241748 
L 129.208586 148.967581 
L 130.294387 147.550347 
L 131.380189 153.271291 
L 133.551791 167.625659 
L 134.637592 167.421959 
L 135.723393 158.758196 
L 136.809194 143.276975 
L 137.894995 153.843385 
L 138.980797 149.253628 
L 140.066598 149.253628 
L 141.152399 141.105617 
L 142.2382 151.823718 
L 143.324001 130.84259 
L 144.409802 150.059761 
L 145.495604 149.10627 
L 146.581405 143.974757 
L 147.667206 144.382157 
L 148.753007 167.538978 
L 149.838808 141.75139 
L 150.924609 147.745379 
L 152.01041 133.334668 
L 153.096212 145.634697 
L 154.182013 150.675196 
L 155.267814 139.935424 
L 156.353615 139.24631 
L 157.439416 143.216298 
L 158.525217 145.140616 
L 159.611019 136.21681 
L 160.69682 141.43067 
L 161.782621 145.938081 
L 162.868422 132.008449 
L 163.954223 140.919253 
L 165.040024 145.235965 
L 166.125825 143.211964 
L 167.211627 145.218629 
L 168.297428 134.305495 
L 169.383229 140.975595 
L 170.46903 137.807406 
L 171.554831 136.225478 
L 172.640632 151.307967 
L 173.726434 135.653384 
L 174.812235 143.177292 
L 175.898036 141.686379 
L 178.069638 132.736569 
L 179.155439 124.150819 
L 180.24124 151.780378 
L 181.327042 143.987759 
L 182.412843 141.578028 
L 183.498644 138.609205 
L 184.584445 149.804052 
L 185.670246 141.257308 
L 186.756047 137.616708 
L 187.841849 131.635721 
L 188.92765 139.202969 
L 190.013451 132.896929 
L 191.099252 134.582874 
L 192.185053 148.534176 
L 193.270854 150.813885 
L 194.356656 146.384488 
L 195.442457 131.748406 
L 196.528258 147.32931 
L 197.614059 133.642385 
L 198.69986 130.075463 
L 199.785661 143.172958 
L 200.871462 136.884253 
L 201.957264 147.415991 
L 203.043065 140.923587 
L 204.128866 138.821573 
L 205.214667 146.176453 
L 206.300468 136.606874 
L 207.386269 155.919394 
L 208.472071 137.590703 
L 209.557872 135.354334 
L 210.643673 152.127102 
L 211.729474 133.568706 
L 212.815275 148.105105 
L 213.901076 134.626214 
L 214.986877 136.758566 
L 216.072679 145.920744 
L 217.15848 141.608366 
L 218.244281 158.697519 
L 219.330082 143.489343 
L 220.415883 132.485194 
L 221.501684 146.241464 
L 222.587486 137.62971 
L 223.673287 150.857226 
L 224.759088 145.465669 
L 225.844889 133.724732 
L 226.93069 128.03846 
L 228.016491 142.47951 
L 229.102292 174.889524 
L 230.188094 151.685029 
L 231.273895 150.094433 
L 232.359696 160.366128 
L 233.445497 138.414173 
L 234.531298 154.775205 
L 235.617099 154.571505 
L 236.702901 142.856572 
L 237.788702 138.678549 
L 238.874503 160.084415 
L 239.960304 152.330802 
L 241.046105 149.032591 
L 242.131906 150.406485 
L 243.217708 141.93342 
L 244.303509 141.378662 
L 245.38931 139.324323 
L 246.475111 135.536364 
L 247.560912 130.84259 
L 248.646713 136.39884 
L 249.732514 141.018936 
L 250.818316 148.308805 
L 251.904117 130.625887 
L 252.989918 151.45099 
L 254.075719 126.19649 
L 255.16152 142.882576 
L 256.247321 141.278979 
L 257.333123 143.120949 
L 258.418924 133.269657 
L 259.504725 129.299669 
L 260.590526 130.816586 
L 261.676327 121.996797 
L 262.762128 108.994652 
L 263.847929 126.755582 
L 264.933731 127.826092 
L 266.019532 122.629568 
L 267.105333 138.050112 
L 268.191134 140.581197 
L 269.276935 136.611208 
L 270.362736 140.940923 
L 271.448538 141.166293 
L 272.534339 150.718536 
L 273.62014 148.308805 
L 274.705941 143.73205 
L 275.791742 123.678408 
L 276.877543 150.185448 
L 277.963344 159.273948 
L 279.049146 134.27949 
L 280.134947 148.540986 
L 281.220748 160.474479 
L 282.306549 147.203623 
L 283.39235 158.964815 
L 284.478151 150.025088 
L 285.563953 162.880981 
L 286.649754 143.789922 
L 287.735555 141.872743 
L 288.821356 151.784712 
L 289.907157 136.697889 
L 290.992958 161.250274 
L 292.07876 146.852565 
L 293.164561 139.671047 
L 294.250362 150.800883 
L 295.336163 142.427501 
L 296.421964 153.930066 
L 297.507765 154.658186 
L 298.593566 127.752413 
L 299.679368 164.063071 
L 300.765169 137.729393 
L 301.85097 155.069921 
L 302.936771 151.61135 
L 304.022572 158.446145 
L 305.108373 142.067775 
L 306.194175 144.451502 
L 307.279976 135.310994 
L 308.365777 153.856387 
L 309.451578 143.194628 
L 310.537379 153.969072 
L 311.62318 162.49848 
L 312.708981 156.179437 
L 313.794783 154.233449 
L 314.880584 150.064095 
L 315.966385 150.961243 
L 317.052186 142.024435 
L 318.137987 140.711218 
L 319.223788 145.075605 
L 320.30959 156.833878 
L 321.395391 152.716532 
L 322.481192 141.790396 
L 323.566993 170.642157 
L 324.652794 151.138939 
L 325.738595 157.319292 
L 326.824396 151.97541 
L 327.910198 167.820691 
L 328.995999 173.597978 
L 330.0818 164.847534 
L 331.167601 176.813842 
L 332.253402 163.100913 
L 333.339203 163.469307 
L 334.425005 166.351449 
L 335.510806 155.668019 
L 336.596607 165.52798 
L 337.682408 158.142761 
L 338.768209 145.634697 
L 339.85401 159.412637 
L 340.939811 155.511994 
L 342.025613 159.885049 
L 343.111414 147.025927 
L 344.197215 137.374001 
L 345.283016 154.987574 
L 346.368817 162.706514 
L 347.454618 179.938691 
L 348.54042 159.434308 
L 349.626221 151.455324 
L 350.712022 151.507333 
L 351.797823 155.533664 
L 352.883624 143.771056 
L 353.969425 152.716532 
L 355.055227 139.918087 
L 356.141028 144.429832 
L 357.226829 135.267653 
L 358.31263 153.448987 
L 359.398431 142.427501 
L 360.484232 127.379685 
L 361.570033 140.095783 
L 362.655835 126.660233 
L 363.741636 132.814582 
L 364.827437 142.882576 
L 365.913238 158.069082 
L 366.999039 138.106455 
L 368.08484 142.314816 
L 369.170642 150.207118 
L 370.256443 150.462827 
L 371.342244 151.524669 
L 372.428045 158.307455 
L 373.513846 137.777067 
L 374.599647 156.040748 
L 375.685448 147.021593 
L 376.77125 148.300137 
L 377.857051 147.359649 
L 378.942852 137.269984 
L 380.028653 139.272314 
L 381.114454 146.44083 
L 382.200255 137.595037 
L 383.286057 145.964085 
L 384.371858 141.981094 
L 385.457659 148.807221 
L 386.54346 147.554681 
L 387.629261 149.292634 
L 388.715062 157.262949 
L 389.800863 152.517166 
L 390.886665 149.565679 
L 391.972466 155.455651 
L 393.058267 151.286296 
L 394.144068 149.756377 
L 395.229869 136.875585 
L 396.31567 154.714529 
L 397.401472 146.406158 
L 398.487273 142.960589 
L 398.487273 142.960589 
" style="fill:none;stroke:#ff0000;stroke-linecap:square;stroke-width:1.5;"/>
   </g>
   <g id="line2d_29">
    <path clip-path="url(#p3a843c7b47)" d="M 73.832727 281.593798 
L 74.918528 267.967549 
L 76.00433 266.966384 
L 77.090131 266.615326 
L 78.175932 268.39662 
L 79.261733 265.341116 
L 80.347534 261.570494 
L 82.519137 254.744367 
L 83.604938 253.678191 
L 84.690739 250.648692 
L 85.77654 248.373316 
L 86.862341 241.586196 
L 87.948142 240.494016 
L 89.033943 241.989263 
L 90.119745 240.45501 
L 91.205546 250.752709 
L 92.291347 252.078928 
L 93.377148 243.120449 
L 94.462949 245.200793 
L 95.54875 238.569699 
L 96.634552 235.410177 
L 97.720353 243.198462 
L 98.806154 246.605024 
L 99.891955 247.24213 
L 100.977756 238.855746 
L 102.063557 232.029619 
L 103.149358 240.025939 
L 104.23516 232.82275 
L 105.320961 235.527197 
L 106.406762 236.008276 
L 107.492563 232.445688 
L 108.578364 234.383008 
L 109.664165 223.110148 
L 110.749967 247.554181 
L 111.835768 238.582701 
L 112.921569 244.225632 
L 114.00737 244.082608 
L 115.093171 238.556696 
L 116.178972 241.092115 
L 117.264773 246.266969 
L 118.350575 243.315482 
L 119.436376 241.040106 
L 120.522177 226.022628 
L 121.607978 223.682242 
L 122.693779 234.526031 
L 123.77958 226.087639 
L 124.865382 229.195152 
L 125.951183 219.092485 
L 127.036984 218.33836 
L 128.122785 230.560377 
L 129.208586 210.537073 
L 130.294387 208.09267 
L 131.380189 214.437717 
L 132.46599 219.326523 
L 133.551791 228.961113 
L 134.637592 227.036796 
L 135.723393 222.004965 
L 136.809194 207.858631 
L 137.894995 216.154 
L 138.980797 214.788775 
L 140.066598 201.344556 
L 141.152399 204.309045 
L 142.2382 218.130326 
L 143.324001 193.842318 
L 144.409802 213.397545 
L 145.495604 209.171848 
L 146.581405 206.402391 
L 147.667206 212.604414 
L 148.753007 217.467217 
L 149.838808 208.313706 
L 150.924609 200.369395 
L 152.01041 200.837473 
L 153.096212 199.84931 
L 154.182013 215.30886 
L 156.353615 198.887151 
L 157.439416 204.712112 
L 158.525217 214.320697 
L 159.611019 202.605764 
L 160.69682 211.525236 
L 161.782621 215.204843 
L 162.868422 196.598773 
L 163.954223 205.596258 
L 165.040024 207.949646 
L 166.125825 216.466051 
L 167.211627 209.015822 
L 168.297428 202.644771 
L 169.383229 212.916466 
L 170.46903 205.726279 
L 171.554831 201.799631 
L 172.640632 216.023978 
L 173.726434 203.554921 
L 174.812235 203.996994 
L 175.898036 204.114013 
L 176.983837 197.781968 
L 178.069638 201.253541 
L 179.155439 194.297393 
L 180.24124 212.370376 
L 181.327042 211.655258 
L 182.412843 204.569088 
L 183.498644 205.713277 
L 184.584445 210.199017 
L 185.670246 197.963998 
L 186.756047 208.742777 
L 187.841849 193.582275 
L 188.92765 204.21803 
L 190.013451 202.956822 
L 191.099252 199.134192 
L 193.270854 215.009811 
L 194.356656 209.379882 
L 195.442457 196.442747 
L 196.528258 200.265378 
L 197.614059 194.076357 
L 198.69986 191.839988 
L 199.785661 205.141183 
L 200.871462 195.987672 
L 201.957264 197.742962 
L 203.043065 208.326708 
L 204.128866 202.410732 
L 205.214667 211.252191 
L 206.300468 200.538423 
L 207.386269 210.64109 
L 208.472071 198.887151 
L 209.557872 189.759645 
L 210.643673 206.70144 
L 211.729474 188.849495 
L 212.815275 202.982827 
L 213.901076 197.469917 
L 214.986877 200.356393 
L 216.072679 207.026494 
L 217.15848 194.323398 
L 218.244281 208.222691 
L 219.330082 204.40006 
L 220.415883 183.921681 
L 221.501684 202.176694 
L 222.587486 189.720638 
L 223.673287 198.120024 
L 224.759088 207.624592 
L 225.844889 193.582275 
L 226.93069 189.681632 
L 228.016491 210.693099 
L 229.102292 220.938789 
L 230.188094 209.405886 
L 231.273895 206.181354 
L 232.359696 216.114993 
L 233.445497 203.255872 
L 234.531298 213.215515 
L 235.617099 212.123335 
L 237.788702 195.285556 
L 238.874503 216.036981 
L 239.960304 211.083163 
L 241.046105 214.866787 
L 242.131906 215.191841 
L 243.217708 201.227537 
L 244.303509 201.526586 
L 245.38931 194.648451 
L 246.475111 194.999509 
L 247.560912 191.033855 
L 248.646713 189.382582 
L 249.732514 201.955657 
L 250.818316 209.223856 
L 251.904117 194.128366 
L 252.989918 197.157865 
L 254.075719 182.920516 
L 255.16152 199.498252 
L 256.247321 197.24888 
L 257.333123 199.212204 
L 258.418924 190.929838 
L 259.504725 188.537443 
L 260.590526 191.527936 
L 261.676327 177.056549 
L 262.762128 157.085253 
L 263.847929 185.72898 
L 264.933731 173.910029 
L 266.019532 180.333089 
L 267.105333 190.357743 
L 268.191134 196.949831 
L 269.276935 188.303404 
L 272.534339 201.890646 
L 273.62014 205.414228 
L 274.705941 193.036185 
L 275.791742 174.313096 
L 276.877543 199.303219 
L 277.963344 208.963813 
L 279.049146 189.798651 
L 280.134947 215.117278 
L 281.220748 214.87979 
L 282.306549 211.55124 
L 283.39235 211.495252 
L 284.478151 209.886966 
L 285.563953 203.459572 
L 286.649754 193.988401 
L 287.735555 188.667464 
L 288.821356 213.839618 
L 289.907157 203.801962 
L 290.992958 220.080648 
L 292.07876 201.812633 
L 293.164561 199.017172 
L 294.250362 205.986322 
L 295.336163 194.791475 
L 296.421964 205.60926 
L 297.507765 209.379882 
L 298.593566 180.567128 
L 299.679368 214.03465 
L 300.765169 190.461761 
L 301.85097 204.075007 
L 302.936771 206.168352 
L 304.022572 215.230848 
L 305.108373 195.025514 
L 306.194175 204.009996 
L 307.279976 192.620117 
L 308.365777 207.351547 
L 309.451578 193.725299 
L 310.537379 210.368045 
L 311.62318 217.870283 
L 312.708981 202.774792 
L 313.794783 202.176694 
L 314.880584 205.232198 
L 315.966385 195.97467 
L 317.052186 190.552776 
L 318.137987 196.260717 
L 320.30959 211.902298 
L 321.395391 202.280711 
L 322.481192 200.200367 
L 323.566993 225.944615 
L 324.652794 207.624592 
L 325.738595 208.677766 
L 326.824396 206.181354 
L 327.910198 215.347867 
L 328.995999 221.224837 
L 330.0818 216.635079 
L 331.167601 225.229497 
L 332.253402 214.268689 
L 333.339203 213.501562 
L 334.425005 220.613736 
L 335.510806 203.593927 
L 336.596607 218.065315 
L 337.682408 207.676601 
L 338.768209 198.978166 
L 339.85401 204.413063 
L 340.939811 213.345536 
L 343.111414 195.298559 
L 344.197215 195.688623 
L 345.283016 212.03232 
L 346.368817 219.963628 
L 347.454618 233.329834 
L 348.54042 215.919961 
L 349.626221 212.864457 
L 350.712022 208.768781 
L 351.797823 218.988468 
L 352.883624 209.938974 
L 353.969425 218.247345 
L 355.055227 200.135357 
L 356.141028 206.623427 
L 357.226829 206.792455 
L 358.31263 214.567738 
L 359.398431 207.299539 
L 360.484232 191.150874 
L 361.570033 206.051333 
L 362.655835 191.722969 
L 363.741636 192.529102 
L 364.827437 198.952162 
L 365.913238 212.188346 
L 366.999039 197.079853 
L 368.08484 202.969824 
L 369.170642 211.434221 
L 370.256443 206.753449 
L 371.342244 212.812448 
L 372.428045 205.79129 
L 373.513846 194.427415 
L 374.599647 207.260532 
L 375.685448 203.593927 
L 376.77125 198.302054 
L 377.857051 209.834957 
L 378.942852 193.920331 
L 380.028653 189.239559 
L 381.114454 207.143513 
L 382.200255 189.161546 
L 383.286057 185.169887 
L 384.371858 199.420239 
L 385.457659 202.046672 
L 386.54346 203.67194 
L 387.629261 204.439067 
L 388.715062 206.831462 
L 389.800863 208.014657 
L 390.886665 207.663599 
L 391.972466 212.708431 
L 393.058267 209.925972 
L 394.144068 212.513399 
L 395.229869 202.865807 
L 396.31567 211.434221 
L 397.401472 203.85397 
L 398.487273 202.501747 
L 398.487273 202.501747 
" style="fill:none;stroke:#008000;stroke-linecap:square;stroke-width:1.5;"/>
   </g>
   <g id="patch_3">
    <path d="M 57.6 307.584 
L 57.6 41.472 
" style="fill:none;stroke:#000000;stroke-linecap:square;stroke-linejoin:miter;stroke-width:0.8;"/>
   </g>
   <g id="patch_4">
    <path d="M 414.72 307.584 
L 414.72 41.472 
" style="fill:none;stroke:#000000;stroke-linecap:square;stroke-linejoin:miter;stroke-width:0.8;"/>
   </g>
   <g id="patch_5">
    <path d="M 57.6 307.584 
L 414.72 307.584 
" style="fill:none;stroke:#000000;stroke-linecap:square;stroke-linejoin:miter;stroke-width:0.8;"/>
   </g>
   <g id="patch_6">
    <path d="M 57.6 41.472 
L 414.72 41.472 
" style="fill:none;stroke:#000000;stroke-linecap:square;stroke-linejoin:miter;stroke-width:0.8;"/>
   </g>
   <g id="text_16">
    <!-- Scores by generation -->
    <defs>
     <path id="DejaVuSans-32"/>
     <path d="M 48.6875 27.296875 
Q 48.6875 37.203125 44.609375 42.84375 
Q 40.53125 48.484375 33.40625 48.484375 
Q 26.265625 48.484375 22.1875 42.84375 
Q 18.109375 37.203125 18.109375 27.296875 
Q 18.109375 17.390625 22.1875 11.75 
Q 26.265625 6.109375 33.40625 6.109375 
Q 40.53125 6.109375 44.609375 11.75 
Q 48.6875 17.390625 48.6875 27.296875 
z
M 18.109375 46.390625 
Q 20.953125 51.265625 25.265625 53.625 
Q 29.59375 56 35.59375 56 
Q 45.5625 56 51.78125 48.09375 
Q 58.015625 40.1875 58.015625 27.296875 
Q 58.015625 14.40625 51.78125 6.484375 
Q 45.5625 -1.421875 35.59375 -1.421875 
Q 29.59375 -1.421875 25.265625 0.953125 
Q 20.953125 3.328125 18.109375 8.203125 
L 18.109375 0 
L 9.078125 0 
L 9.078125 75.984375 
L 18.109375 75.984375 
z
" id="DejaVuSans-98"/>
     <path d="M 32.171875 -5.078125 
Q 28.375 -14.84375 24.75 -17.8125 
Q 21.140625 -20.796875 15.09375 -20.796875 
L 7.90625 -20.796875 
L 7.90625 -13.28125 
L 13.1875 -13.28125 
Q 16.890625 -13.28125 18.9375 -11.515625 
Q 21 -9.765625 23.484375 -3.21875 
L 25.09375 0.875 
L 2.984375 54.6875 
L 12.5 54.6875 
L 29.59375 11.921875 
L 46.6875 54.6875 
L 56.203125 54.6875 
z
" id="DejaVuSans-121"/>
     <path d="M 45.40625 27.984375 
Q 45.40625 37.75 41.375 43.109375 
Q 37.359375 48.484375 30.078125 48.484375 
Q 22.859375 48.484375 18.828125 43.109375 
Q 14.796875 37.75 14.796875 27.984375 
Q 14.796875 18.265625 18.828125 12.890625 
Q 22.859375 7.515625 30.078125 7.515625 
Q 37.359375 7.515625 41.375 12.890625 
Q 45.40625 18.265625 45.40625 27.984375 
z
M 54.390625 6.78125 
Q 54.390625 -7.171875 48.1875 -13.984375 
Q 42 -20.796875 29.203125 -20.796875 
Q 24.46875 -20.796875 20.265625 -20.09375 
Q 16.0625 -19.390625 12.109375 -17.921875 
L 12.109375 -9.1875 
Q 16.0625 -11.328125 19.921875 -12.34375 
Q 23.78125 -13.375 27.78125 -13.375 
Q 36.625 -13.375 41.015625 -8.765625 
Q 45.40625 -4.15625 45.40625 5.171875 
L 45.40625 9.625 
Q 42.625 4.78125 38.28125 2.390625 
Q 33.9375 0 27.875 0 
Q 17.828125 0 11.671875 7.65625 
Q 5.515625 15.328125 5.515625 27.984375 
Q 5.515625 40.671875 11.671875 48.328125 
Q 17.828125 56 27.875 56 
Q 33.9375 56 38.28125 53.609375 
Q 42.625 51.21875 45.40625 46.390625 
L 45.40625 54.6875 
L 54.390625 54.6875 
z
" id="DejaVuSans-103"/>
    </defs>
    <g transform="translate(172.292812 35.472)scale(0.12 -0.12)">
     <use xlink:href="#DejaVuSans-83"/>
     <use x="63.476562" xlink:href="#DejaVuSans-99"/>
     <use x="118.457031" xlink:href="#DejaVuSans-111"/>
     <use x="179.638672" xlink:href="#DejaVuSans-114"/>
     <use x="220.720703" xlink:href="#DejaVuSans-101"/>
     <use x="282.244141" xlink:href="#DejaVuSans-115"/>
     <use x="334.34375" xlink:href="#DejaVuSans-32"/>
     <use x="366.130859" xlink:href="#DejaVuSans-98"/>
     <use x="429.607422" xlink:href="#DejaVuSans-121"/>
     <use x="488.787109" xlink:href="#DejaVuSans-32"/>
     <use x="520.574219" xlink:href="#DejaVuSans-103"/>
     <use x="584.050781" xlink:href="#DejaVuSans-101"/>
     <use x="645.574219" xlink:href="#DejaVuSans-110"/>
     <use x="708.953125" xlink:href="#DejaVuSans-101"/>
     <use x="770.476562" xlink:href="#DejaVuSans-114"/>
     <use x="811.589844" xlink:href="#DejaVuSans-97"/>
     <use x="872.869141" xlink:href="#DejaVuSans-116"/>
     <use x="912.078125" xlink:href="#DejaVuSans-105"/>
     <use x="939.861328" xlink:href="#DejaVuSans-111"/>
     <use x="1001.042969" xlink:href="#DejaVuSans-110"/>
    </g>
   </g>
   <g id="legend_1">
    <g id="patch_7">
     <path d="M 338.37 93.506375 
L 407.72 93.506375 
Q 409.72 93.506375 409.72 91.506375 
L 409.72 48.472 
Q 409.72 46.472 407.72 46.472 
L 338.37 46.472 
Q 336.37 46.472 336.37 48.472 
L 336.37 91.506375 
Q 336.37 93.506375 338.37 93.506375 
z
" style="fill:#ffffff;opacity:0.8;stroke:#cccccc;stroke-linejoin:miter;"/>
    </g>
    <g id="line2d_30">
     <path d="M 340.37 54.570438 
L 360.37 54.570438 
" style="fill:none;stroke:#0000ff;stroke-linecap:square;stroke-width:1.5;"/>
    </g>
    <g id="line2d_31"/>
    <g id="text_17">
     <!-- species -->
     <defs>
      <path d="M 18.109375 8.203125 
L 18.109375 -20.796875 
L 9.078125 -20.796875 
L 9.078125 54.6875 
L 18.109375 54.6875 
L 18.109375 46.390625 
Q 20.953125 51.265625 25.265625 53.625 
Q 29.59375 56 35.59375 56 
Q 45.5625 56 51.78125 48.09375 
Q 58.015625 40.1875 58.015625 27.296875 
Q 58.015625 14.40625 51.78125 6.484375 
Q 45.5625 -1.421875 35.59375 -1.421875 
Q 29.59375 -1.421875 25.265625 0.953125 
Q 20.953125 3.328125 18.109375 8.203125 
z
M 48.6875 27.296875 
Q 48.6875 37.203125 44.609375 42.84375 
Q 40.53125 48.484375 33.40625 48.484375 
Q 26.265625 48.484375 22.1875 42.84375 
Q 18.109375 37.203125 18.109375 27.296875 
Q 18.109375 17.390625 22.1875 11.75 
Q 26.265625 6.109375 33.40625 6.109375 
Q 40.53125 6.109375 44.609375 11.75 
Q 48.6875 17.390625 48.6875 27.296875 
z
" id="DejaVuSans-112"/>
     </defs>
     <g transform="translate(368.37 58.070438)scale(0.1 -0.1)">
      <use xlink:href="#DejaVuSans-115"/>
      <use x="52.099609" xlink:href="#DejaVuSans-112"/>
      <use x="115.576172" xlink:href="#DejaVuSans-101"/>
      <use x="177.099609" xlink:href="#DejaVuSans-99"/>
      <use x="232.080078" xlink:href="#DejaVuSans-105"/>
      <use x="259.863281" xlink:href="#DejaVuSans-101"/>
      <use x="321.386719" xlink:href="#DejaVuSans-115"/>
     </g>
    </g>
    <g id="line2d_32">
     <path d="M 340.37 69.248563 
L 360.37 69.248563 
" style="fill:none;stroke:#ff0000;stroke-linecap:square;stroke-width:1.5;"/>
    </g>
    <g id="line2d_33"/>
    <g id="text_18">
     <!-- bits -->
     <g transform="translate(368.37 72.748563)scale(0.1 -0.1)">
      <use xlink:href="#DejaVuSans-98"/>
      <use x="63.476562" xlink:href="#DejaVuSans-105"/>
      <use x="91.259766" xlink:href="#DejaVuSans-116"/>
      <use x="130.46875" xlink:href="#DejaVuSans-115"/>
     </g>
    </g>
    <g id="line2d_34">
     <path d="M 340.37 83.926688 
L 360.37 83.926688 
" style="fill:none;stroke:#008000;stroke-linecap:square;stroke-width:1.5;"/>
    </g>
    <g id="line2d_35"/>
    <g id="text_19">
     <!-- total -->
     <defs>
      <path d="M 9.421875 75.984375 
L 18.40625 75.984375 
L 18.40625 0 
L 9.421875 0 
z
" id="DejaVuSans-108"/>
     </defs>
     <g transform="translate(368.37 87.426688)scale(0.1 -0.1)">
      <use xlink:href="#DejaVuSans-116"/>
      <use x="39.208984" xlink:href="#DejaVuSans-111"/>
      <use x="100.390625" xlink:href="#DejaVuSans-116"/>
      <use x="139.599609" xlink:href="#DejaVuSans-97"/>
      <use x="200.878906" xlink:href="#DejaVuSans-108"/>
     </g>
    </g>
   </g>
  </g>
 </g>
 <defs>
  <clipPath id="p3a843c7b47">
   <rect height="266.112" width="357.12" x="57.6" y="41.472"/>
  </clipPath>
 </defs>
</svg>
