<?xml version="1.0" encoding="UTF-8" standalone="no"?>
<!DOCTYPE svg PUBLIC "-//W3C//DTD SVG 1.1//EN"
 "http://www.w3.org/Graphics/SVG/1.1/DTD/svg11.dtd">
<!-- Generated by graphviz version 2.40.1 (20161225.0304)
 -->
<!-- Title: %3 Pages: 1 -->
<svg width="485pt" height="266pt"
 viewBox="0.00 0.00 484.77 265.93" xmlns="http://www.w3.org/2000/svg" xmlns:xlink="http://www.w3.org/1999/xlink">
<g id="graph0" class="graph" transform="scale(1 1) rotate(0) translate(4 261.9326)">
<title>%3</title>
<polygon fill="#ffffff" stroke="transparent" points="-4,4 -4,-261.9326 480.7661,-261.9326 480.7661,4 -4,4"/>
<!-- 0 -->
<g id="node1" class="node">
<title>0</title>
<polygon fill="#d3d3d3" stroke="#000000" points="138.389,-257.9326 118.3771,-257.9326 118.3771,-240.9326 138.389,-240.9326 138.389,-257.9326"/>
<text text-anchor="middle" x="128.383" y="-246.7326" font-family="Times,serif" font-size="9.00" fill="#000000">0</text>
</g>
<!-- 1 -->
<g id="node2" class="node">
<title>1</title>
<polygon fill="#d3d3d3" stroke="#000000" points="274.389,-257.9326 254.3771,-257.9326 254.3771,-240.9326 274.389,-240.9326 274.389,-257.9326"/>
<text text-anchor="middle" x="264.383" y="-246.7326" font-family="Times,serif" font-size="9.00" fill="#000000">1</text>
</g>
<!-- 0&#45;&gt;1 -->
<!-- E1 -->
<g id="node5" class="node">
<title>E1</title>
<ellipse fill="#87cefa" stroke="#000000" cx="73.383" cy="-18.383" rx="18.2668" ry="18.2668"/>
<text text-anchor="middle" x="73.383" y="-15.683" font-family="Times,serif" font-size="9.00" fill="#000000">E1</text>
</g>
<!-- 0&#45;&gt;E1 -->
<g id="edge12" class="edge">
<title>0&#45;&gt;E1</title>
<path fill="none" stroke="#ff0000" stroke-width="2.6875" d="M126.2941,-240.6573C118.7126,-208.8081 92.4412,-98.4444 80.0062,-46.2062"/>
<polygon fill="#ff0000" stroke="#ff0000" stroke-width="2.6875" points="83.3644,-45.1996 77.6438,-36.2819 76.5547,-46.8206 83.3644,-45.1996"/>
</g>
<!-- E2 -->
<g id="node6" class="node">
<title>E2</title>
<ellipse fill="#87cefa" stroke="#000000" cx="128.383" cy="-18.383" rx="18.2668" ry="18.2668"/>
<text text-anchor="middle" x="128.383" y="-15.683" font-family="Times,serif" font-size="9.00" fill="#000000">E2</text>
</g>
<!-- 0&#45;&gt;E2 -->
<g id="edge15" class="edge">
<title>0&#45;&gt;E2</title>
<path fill="none" stroke="#ff0000" stroke-width=".209" d="M128.383,-240.6573C128.383,-208.9623 128.383,-99.5115 128.383,-46.9692"/>
<polygon fill="#ff0000" stroke="#ff0000" stroke-width=".209" points="131.8831,-46.964 128.383,-36.9641 124.8831,-46.9641 131.8831,-46.964"/>
</g>
<!-- 2 -->
<g id="node3" class="node">
<title>2</title>
<polygon fill="#d3d3d3" stroke="#000000" points="364.389,-257.9326 344.3771,-257.9326 344.3771,-240.9326 364.389,-240.9326 364.389,-257.9326"/>
<text text-anchor="middle" x="354.383" y="-246.7326" font-family="Times,serif" font-size="9.00" fill="#000000">2</text>
</g>
<!-- 1&#45;&gt;2 -->
<!-- E4 -->
<g id="node8" class="node">
<title>E4</title>
<ellipse fill="#87cefa" stroke="#000000" cx="238.383" cy="-18.383" rx="18.2668" ry="18.2668"/>
<text text-anchor="middle" x="238.383" y="-15.683" font-family="Times,serif" font-size="9.00" fill="#000000">E4</text>
</g>
<!-- 1&#45;&gt;E4 -->
<g id="edge11" class="edge">
<title>1&#45;&gt;E4</title>
<path fill="none" stroke="#ff0000" stroke-width="1.3704" d="M262.9028,-240.9215C261.3809,-231.9799 259.0099,-217.4973 257.383,-204.9326 250.1542,-149.1021 244.0217,-83.575 240.803,-46.9276"/>
<polygon fill="#ff0000" stroke="#ff0000" stroke-width="1.3704" points="244.2892,-46.6158 239.9368,-36.9563 237.3155,-47.2217 244.2892,-46.6158"/>
</g>
<!-- 5370 -->
<g id="node13" class="node">
<title>5370</title>
<ellipse fill="#add8e6" stroke="#000000" cx="290.383" cy="-180.891" rx="24.0833" ry="24.0833"/>
<text text-anchor="middle" x="290.383" y="-182.691" font-family="Times,serif" font-size="9.00" fill="#000000">5370</text>
<text text-anchor="middle" x="290.383" y="-173.691" font-family="Times,serif" font-size="9.00" fill="#000000">sigm</text>
</g>
<!-- 1&#45;&gt;5370 -->
<g id="edge16" class="edge">
<title>1&#45;&gt;5370</title>
<path fill="none" stroke="#00ff00" stroke-width=".1549" d="M267.676,-240.7518C270.3476,-233.7088 274.29,-223.3157 278.1431,-213.1582"/>
<polygon fill="#00ff00" stroke="#00ff00" stroke-width=".1549" points="281.4912,-214.2 281.7655,-203.6088 274.9462,-211.7173 281.4912,-214.2"/>
</g>
<!-- E8 -->
<g id="node12" class="node">
<title>E8</title>
<ellipse fill="#87cefa" stroke="#000000" cx="458.383" cy="-18.383" rx="18.2668" ry="18.2668"/>
<text text-anchor="middle" x="458.383" y="-15.683" font-family="Times,serif" font-size="9.00" fill="#000000">E8</text>
</g>
<!-- 2&#45;&gt;E8 -->
<g id="edge13" class="edge">
<title>2&#45;&gt;E8</title>
<path fill="none" stroke="#ff0000" stroke-width="2.2196" d="M358.333,-240.6573C372.8334,-208.4428 423.49,-95.9024 446.6579,-44.4319"/>
<polygon fill="#ff0000" stroke="#ff0000" stroke-width="2.2196" points="449.8648,-45.8345 450.7778,-35.2791 443.4816,-42.9613 449.8648,-45.8345"/>
</g>
<!-- E0 -->
<g id="node4" class="node">
<title>E0</title>
<ellipse fill="#87cefa" stroke="#000000" cx="18.383" cy="-18.383" rx="18.2668" ry="18.2668"/>
<text text-anchor="middle" x="18.383" y="-15.683" font-family="Times,serif" font-size="9.00" fill="#000000">E0</text>
</g>
<!-- E0&#45;&gt;E1 -->
<!-- E1&#45;&gt;E2 -->
<!-- E3 -->
<g id="node7" class="node">
<title>E3</title>
<ellipse fill="#87cefa" stroke="#000000" cx="183.383" cy="-18.383" rx="18.2668" ry="18.2668"/>
<text text-anchor="middle" x="183.383" y="-15.683" font-family="Times,serif" font-size="9.00" fill="#000000">E3</text>
</g>
<!-- E2&#45;&gt;E3 -->
<!-- E3&#45;&gt;E4 -->
<!-- E5 -->
<g id="node9" class="node">
<title>E5</title>
<ellipse fill="#87cefa" stroke="#000000" cx="293.383" cy="-18.383" rx="18.2668" ry="18.2668"/>
<text text-anchor="middle" x="293.383" y="-15.683" font-family="Times,serif" font-size="9.00" fill="#000000">E5</text>
</g>
<!-- E4&#45;&gt;E5 -->
<!-- E6 -->
<g id="node10" class="node">
<title>E6</title>
<ellipse fill="#87cefa" stroke="#000000" cx="348.383" cy="-18.383" rx="18.2668" ry="18.2668"/>
<text text-anchor="middle" x="348.383" y="-15.683" font-family="Times,serif" font-size="9.00" fill="#000000">E6</text>
</g>
<!-- E5&#45;&gt;E6 -->
<!-- E7 -->
<g id="node11" class="node">
<title>E7</title>
<ellipse fill="#87cefa" stroke="#000000" cx="403.383" cy="-18.383" rx="18.2668" ry="18.2668"/>
<text text-anchor="middle" x="403.383" y="-15.683" font-family="Times,serif" font-size="9.00" fill="#000000">E7</text>
</g>
<!-- E6&#45;&gt;E7 -->
<!-- E7&#45;&gt;E8 -->
<!-- 5370&#45;&gt;E4 -->
<g id="edge18" class="edge">
<title>5370&#45;&gt;E4</title>
<path fill="none" stroke="#00ff00" stroke-width=".1139" d="M283.043,-157.9522C273.636,-128.5539 257.341,-77.6296 247.2506,-46.0955"/>
<polygon fill="#00ff00" stroke="#00ff00" stroke-width=".1139" points="250.4666,-44.6614 244.0854,-36.2038 243.7996,-46.7948 250.4666,-44.6614"/>
</g>
<!-- 4504 -->
<g id="node14" class="node">
<title>4504</title>
<ellipse fill="#add8e6" stroke="#000000" cx="370.383" cy="-96.8077" rx="24.0833" ry="24.0833"/>
<text text-anchor="middle" x="370.383" y="-98.6077" font-family="Times,serif" font-size="9.00" fill="#000000">4504</text>
<text text-anchor="middle" x="370.383" y="-89.6077" font-family="Times,serif" font-size="9.00" fill="#000000">sigm</text>
</g>
<!-- 5370&#45;&gt;4504 -->
<g id="edge17" class="edge">
<title>5370&#45;&gt;4504</title>
<path fill="none" stroke="#ff0000" stroke-width=".3116" d="M306.9591,-163.4689C318.36,-151.4861 333.6808,-135.3833 346.4082,-122.0063"/>
<polygon fill="#ff0000" stroke="#ff0000" stroke-width=".3116" points="349.1957,-124.1542 353.553,-114.4968 344.1243,-119.3291 349.1957,-124.1542"/>
</g>
<!-- 4504&#45;&gt;E8 -->
<g id="edge14" class="edge">
<title>4504&#45;&gt;E8</title>
<path fill="none" stroke="#ff0000" stroke-width=".2381" d="M388.6167,-80.5581C402.6342,-68.0659 422.0385,-50.7729 436.8252,-37.5952"/>
<polygon fill="#ff0000" stroke="#ff0000" stroke-width=".2381" points="439.3645,-40.0205 444.5014,-30.7542 434.7072,-34.7945 439.3645,-40.0205"/>
</g>
</g>
</svg>
