<?xml version="1.0" encoding="UTF-8" standalone="no"?>
<!DOCTYPE svg PUBLIC "-//W3C//DTD SVG 1.1//EN"
 "http://www.w3.org/Graphics/SVG/1.1/DTD/svg11.dtd">
<!-- Generated by graphviz version 2.40.1 (20161225.0304)
 -->
<!-- Title: %3 Pages: 1 -->
<svg width="485pt" height="182pt"
 viewBox="0.00 0.00 484.77 181.85" xmlns="http://www.w3.org/2000/svg" xmlns:xlink="http://www.w3.org/1999/xlink">
<g id="graph0" class="graph" transform="scale(1 1) rotate(0) translate(4 177.8494)">
<title>%3</title>
<polygon fill="#ffffff" stroke="transparent" points="-4,4 -4,-177.8494 480.7661,-177.8494 480.7661,4 -4,4"/>
<!-- 0 -->
<g id="node1" class="node">
<title>0</title>
<polygon fill="#d3d3d3" stroke="#000000" points="284.389,-173.8494 264.3771,-173.8494 264.3771,-156.8494 284.389,-156.8494 284.389,-173.8494"/>
<text text-anchor="middle" x="274.383" y="-162.6494" font-family="Times,serif" font-size="9.00" fill="#000000">0</text>
</g>
<!-- 1 -->
<g id="node2" class="node">
<title>1</title>
<polygon fill="#d3d3d3" stroke="#000000" points="323.389,-173.8494 303.3771,-173.8494 303.3771,-156.8494 323.389,-156.8494 323.389,-173.8494"/>
<text text-anchor="middle" x="313.383" y="-162.6494" font-family="Times,serif" font-size="9.00" fill="#000000">1</text>
</g>
<!-- 0&#45;&gt;1 -->
<!-- E2 -->
<g id="node6" class="node">
<title>E2</title>
<ellipse fill="#87cefa" stroke="#000000" cx="128.383" cy="-18.383" rx="18.2668" ry="18.2668"/>
<text text-anchor="middle" x="128.383" y="-15.683" font-family="Times,serif" font-size="9.00" fill="#000000">E2</text>
</g>
<!-- 0&#45;&gt;E2 -->
<g id="edge11" class="edge">
<title>0&#45;&gt;E2</title>
<path fill="none" stroke="#ff0000" stroke-width=".9453" d="M265.6873,-156.5961C242.9543,-133.7126 181.2795,-71.6296 148.8854,-39.0211"/>
<polygon fill="#ff0000" stroke="#ff0000" stroke-width=".9453" points="151.225,-36.41 141.6942,-31.7823 146.2589,-41.3434 151.225,-36.41"/>
</g>
<!-- E7 -->
<g id="node11" class="node">
<title>E7</title>
<ellipse fill="#87cefa" stroke="#000000" cx="403.383" cy="-18.383" rx="18.2668" ry="18.2668"/>
<text text-anchor="middle" x="403.383" y="-15.683" font-family="Times,serif" font-size="9.00" fill="#000000">E7</text>
</g>
<!-- 0&#45;&gt;E7 -->
<g id="edge19" class="edge">
<title>0&#45;&gt;E7</title>
<path fill="none" stroke="#00ff00" stroke-width=".1127" d="M284.822,-160.9696C299.9402,-154.2067 328.1141,-139.9774 346.383,-120.8494 357.8407,-108.8529 377.8131,-70.5987 390.8142,-44.3838"/>
<polygon fill="#00ff00" stroke="#00ff00" stroke-width=".1127" points="393.9887,-45.8596 395.2599,-35.3413 387.7069,-42.7711 393.9887,-45.8596"/>
</g>
<!-- 2 -->
<g id="node3" class="node">
<title>2</title>
<polygon fill="#d3d3d3" stroke="#000000" points="362.389,-173.8494 342.3771,-173.8494 342.3771,-156.8494 362.389,-156.8494 362.389,-173.8494"/>
<text text-anchor="middle" x="352.383" y="-162.6494" font-family="Times,serif" font-size="9.00" fill="#000000">2</text>
</g>
<!-- 1&#45;&gt;2 -->
<!-- E4 -->
<g id="node8" class="node">
<title>E4</title>
<ellipse fill="#87cefa" stroke="#000000" cx="238.383" cy="-18.383" rx="18.2668" ry="18.2668"/>
<text text-anchor="middle" x="238.383" y="-15.683" font-family="Times,serif" font-size="9.00" fill="#000000">E4</text>
</g>
<!-- 1&#45;&gt;E4 -->
<g id="edge18" class="edge">
<title>1&#45;&gt;E4</title>
<path fill="none" stroke="#ff0000" stroke-width=".1689" d="M305.8598,-156.5976C298.6693,-147.9345 287.8487,-134.0859 280.383,-120.8494 266.6657,-96.5288 254.9948,-66.8242 247.4633,-45.6722"/>
<polygon fill="#ff0000" stroke="#ff0000" stroke-width=".1689" points="250.7019,-44.3293 244.1077,-36.0366 244.0913,-46.6314 250.7019,-44.3293"/>
</g>
<!-- 1&#45;&gt;E7 -->
<g id="edge17" class="edge">
<title>1&#45;&gt;E7</title>
<path fill="none" stroke="#00ff00" stroke-width=".2443" d="M323.6455,-161.3261C338.3676,-155.0074 365.2591,-141.3259 379.383,-120.8494 394.4496,-99.0062 400.1455,-68.968 402.2539,-47.0636"/>
<polygon fill="#00ff00" stroke="#00ff00" stroke-width=".2443" points="405.7479,-47.2747 403.026,-37.0354 398.7685,-46.7372 405.7479,-47.2747"/>
</g>
<!-- 4498 -->
<g id="node13" class="node">
<title>4498</title>
<ellipse fill="#add8e6" stroke="#000000" cx="313.383" cy="-96.8077" rx="24.0833" ry="24.0833"/>
<text text-anchor="middle" x="313.383" y="-98.6077" font-family="Times,serif" font-size="9.00" fill="#000000">4498</text>
<text text-anchor="middle" x="313.383" y="-89.6077" font-family="Times,serif" font-size="9.00" fill="#000000">sigm</text>
</g>
<!-- 1&#45;&gt;4498 -->
<g id="edge14" class="edge">
<title>1&#45;&gt;4498</title>
<path fill="none" stroke="#00ff00" stroke-width="1.4071" d="M313.383,-156.6685C313.383,-150.1079 313.383,-140.6404 313.383,-131.1641"/>
<polygon fill="#00ff00" stroke="#00ff00" stroke-width="1.4071" points="316.8831,-131.0151 313.383,-121.0151 309.8831,-131.0152 316.8831,-131.0151"/>
</g>
<!-- E0 -->
<g id="node4" class="node">
<title>E0</title>
<ellipse fill="#87cefa" stroke="#000000" cx="18.383" cy="-18.383" rx="18.2668" ry="18.2668"/>
<text text-anchor="middle" x="18.383" y="-15.683" font-family="Times,serif" font-size="9.00" fill="#000000">E0</text>
</g>
<!-- 2&#45;&gt;E0 -->
<g id="edge13" class="edge">
<title>2&#45;&gt;E0</title>
<path fill="none" stroke="#00ff00" stroke-width=".3373" d="M342.2122,-161.0166C339.0627,-159.6777 335.5804,-158.2 332.383,-156.8494 205.3884,-103.2026 168.0717,-101.5543 46.383,-36.7661 45.0356,-36.0487 43.6702,-35.2852 42.3045,-34.4925"/>
<polygon fill="#00ff00" stroke="#00ff00" stroke-width=".3373" points="43.8213,-31.3148 33.4783,-29.0185 40.1319,-37.2636 43.8213,-31.3148"/>
</g>
<!-- E6 -->
<g id="node10" class="node">
<title>E6</title>
<ellipse fill="#87cefa" stroke="#000000" cx="348.383" cy="-18.383" rx="18.2668" ry="18.2668"/>
<text text-anchor="middle" x="348.383" y="-15.683" font-family="Times,serif" font-size="9.00" fill="#000000">E6</text>
</g>
<!-- 2&#45;&gt;E6 -->
<g id="edge12" class="edge">
<title>2&#45;&gt;E6</title>
<path fill="none" stroke="#00ff00" stroke-width="1.7964" d="M352.1448,-156.5961C351.5696,-135.4629 350.0845,-80.8974 349.1617,-46.9901"/>
<polygon fill="#00ff00" stroke="#00ff00" stroke-width="1.7964" points="352.6545,-46.6768 348.8836,-36.7757 345.6571,-46.8673 352.6545,-46.6768"/>
</g>
<!-- E1 -->
<g id="node5" class="node">
<title>E1</title>
<ellipse fill="#87cefa" stroke="#000000" cx="73.383" cy="-18.383" rx="18.2668" ry="18.2668"/>
<text text-anchor="middle" x="73.383" y="-15.683" font-family="Times,serif" font-size="9.00" fill="#000000">E1</text>
</g>
<!-- E0&#45;&gt;E1 -->
<!-- E1&#45;&gt;E2 -->
<!-- E3 -->
<g id="node7" class="node">
<title>E3</title>
<ellipse fill="#87cefa" stroke="#000000" cx="183.383" cy="-18.383" rx="18.2668" ry="18.2668"/>
<text text-anchor="middle" x="183.383" y="-15.683" font-family="Times,serif" font-size="9.00" fill="#000000">E3</text>
</g>
<!-- E2&#45;&gt;E3 -->
<!-- E3&#45;&gt;E4 -->
<!-- E5 -->
<g id="node9" class="node">
<title>E5</title>
<ellipse fill="#87cefa" stroke="#000000" cx="293.383" cy="-18.383" rx="18.2668" ry="18.2668"/>
<text text-anchor="middle" x="293.383" y="-15.683" font-family="Times,serif" font-size="9.00" fill="#000000">E5</text>
</g>
<!-- E4&#45;&gt;E5 -->
<!-- E5&#45;&gt;E6 -->
<!-- E6&#45;&gt;E7 -->
<!-- E8 -->
<g id="node12" class="node">
<title>E8</title>
<ellipse fill="#87cefa" stroke="#000000" cx="458.383" cy="-18.383" rx="18.2668" ry="18.2668"/>
<text text-anchor="middle" x="458.383" y="-15.683" font-family="Times,serif" font-size="9.00" fill="#000000">E8</text>
</g>
<!-- E7&#45;&gt;E8 -->
<!-- 4498&#45;&gt;E1 -->
<g id="edge16" class="edge">
<title>4498&#45;&gt;E1</title>
<path fill="none" stroke="#ff0000" stroke-width=".4686" d="M293.602,-82.4107C287.9387,-78.8203 281.6077,-75.2817 275.383,-72.7661 202.1648,-43.1767 174.3493,-66.9716 101.383,-36.7661 99.9726,-36.1822 98.5571,-35.5248 97.1522,-34.8151"/>
<polygon fill="#ff0000" stroke="#ff0000" stroke-width=".4686" points="98.6069,-31.6117 88.2053,-29.5971 95.0802,-37.6585 98.6069,-31.6117"/>
</g>
<!-- 4498&#45;&gt;E6 -->
<g id="edge20" class="edge">
<title>4498&#45;&gt;E6</title>
<path fill="none" stroke="#ff0000" stroke-width=".3856" d="M323.319,-74.5441C327.5025,-65.1702 332.4001,-54.1961 336.7506,-44.448"/>
<polygon fill="#ff0000" stroke="#ff0000" stroke-width=".3856" points="339.9926,-45.7714 340.872,-35.2131 333.6003,-42.9186 339.9926,-45.7714"/>
</g>
<!-- 4498&#45;&gt;E7 -->
<g id="edge15" class="edge">
<title>4498&#45;&gt;E7</title>
<path fill="none" stroke="#ff0000" stroke-width="1.6678" d="M331.5959,-80.9373C345.9842,-68.3996 366.117,-50.8562 381.4014,-37.5375"/>
<polygon fill="#ff0000" stroke="#ff0000" stroke-width="1.6678" points="384.0868,-39.8399 389.3267,-30.6315 379.4881,-34.5624 384.0868,-39.8399"/>
</g>
</g>
</svg>
