<?xml version="1.0" encoding="UTF-8" standalone="no"?>
<!DOCTYPE svg PUBLIC "-//W3C//DTD SVG 1.1//EN"
 "http://www.w3.org/Graphics/SVG/1.1/DTD/svg11.dtd">
<!-- Generated by graphviz version 2.40.1 (20161225.0304)
 -->
<!-- Title: %3 Pages: 1 -->
<svg width="401pt" height="175pt"
 viewBox="0.00 0.00 401.00 174.79" xmlns="http://www.w3.org/2000/svg" xmlns:xlink="http://www.w3.org/1999/xlink">
<g id="graph0" class="graph" transform="scale(1 1) rotate(0) translate(4 170.7893)">
<title>%3</title>
<polygon fill="#ffffff" stroke="transparent" points="-4,4 -4,-170.7893 396.9976,-170.7893 396.9976,4 -4,4"/>
<!-- E0 -->
<g id="node1" class="node">
<title>E0</title>
<polygon fill="#d3d3d3" stroke="#000000" points="25.9963,-166.7893 .0012,-166.7893 .0012,-149.7893 25.9963,-149.7893 25.9963,-166.7893"/>
<text text-anchor="middle" x="12.9988" y="-155.5893" font-family="Times,serif" font-size="9.00" fill="#000000">E0</text>
</g>
<!-- E1 -->
<g id="node2" class="node">
<title>E1</title>
<polygon fill="#d3d3d3" stroke="#000000" points="69.9963,-166.7893 44.0012,-166.7893 44.0012,-149.7893 69.9963,-149.7893 69.9963,-166.7893"/>
<text text-anchor="middle" x="56.9988" y="-155.5893" font-family="Times,serif" font-size="9.00" fill="#000000">E1</text>
</g>
<!-- E0&#45;&gt;E1 -->
<!-- 4500 -->
<g id="node14" class="node">
<title>4500</title>
<ellipse fill="#add8e6" stroke="#000000" cx="187.9988" cy="-89.7477" rx="24.0833" ry="24.0833"/>
<text text-anchor="middle" x="187.9988" y="-91.5477" font-family="Times,serif" font-size="9.00" fill="#000000">4500</text>
<text text-anchor="middle" x="187.9988" y="-82.5477" font-family="Times,serif" font-size="9.00" fill="#000000">sigm</text>
</g>
<!-- E0&#45;&gt;4500 -->
<g id="edge17" class="edge">
<title>E0&#45;&gt;4500</title>
<path fill="none" stroke="#00ff00" stroke-width=".217" d="M26.1522,-153.1376C53.4423,-142.449 116.9055,-117.5926 155.7597,-102.3747"/>
<polygon fill="#00ff00" stroke="#00ff00" stroke-width=".217" points="157.5081,-105.4488 165.543,-98.5429 154.9553,-98.9309 157.5081,-105.4488"/>
</g>
<!-- E2 -->
<g id="node3" class="node">
<title>E2</title>
<polygon fill="#d3d3d3" stroke="#000000" points="113.9963,-166.7893 88.0012,-166.7893 88.0012,-149.7893 113.9963,-149.7893 113.9963,-166.7893"/>
<text text-anchor="middle" x="100.9988" y="-155.5893" font-family="Times,serif" font-size="9.00" fill="#000000">E2</text>
</g>
<!-- E1&#45;&gt;E2 -->
<!-- 0 -->
<g id="node10" class="node">
<title>0</title>
<ellipse fill="#87cefa" stroke="#000000" cx="92.9988" cy="-14.853" rx="14.4914" ry="14.4914"/>
<text text-anchor="middle" x="92.9988" y="-12.153" font-family="Times,serif" font-size="9.00" fill="#000000">0</text>
</g>
<!-- E1&#45;&gt;0 -->
<g id="edge13" class="edge">
<title>E1&#45;&gt;0</title>
<path fill="none" stroke="#ff0000" stroke-width="2.4706" d="M53.362,-149.774C46.7728,-133.0391 34.555,-94.9485 45.9988,-65.7061 51.53,-51.5722 63.0365,-39.0109 73.2795,-29.9087"/>
<polygon fill="#ff0000" stroke="#ff0000" stroke-width="2.4706" points="75.6555,-32.4844 81.085,-23.3865 71.167,-27.1128 75.6555,-32.4844"/>
</g>
<!-- 1 -->
<g id="node11" class="node">
<title>1</title>
<ellipse fill="#87cefa" stroke="#000000" cx="139.9988" cy="-14.853" rx="14.4914" ry="14.4914"/>
<text text-anchor="middle" x="139.9988" y="-12.153" font-family="Times,serif" font-size="9.00" fill="#000000">1</text>
</g>
<!-- E1&#45;&gt;1 -->
<g id="edge22" class="edge">
<title>E1&#45;&gt;1</title>
<path fill="none" stroke="#00ff00" stroke-width=".1625" d="M61.9422,-149.7463C74.6564,-127.7743 108.7972,-68.774 127.4352,-36.5647"/>
<polygon fill="#00ff00" stroke="#00ff00" stroke-width=".1625" points="130.7017,-37.9079 132.6809,-27.4995 124.643,-34.4019 130.7017,-37.9079"/>
</g>
<!-- E3 -->
<g id="node4" class="node">
<title>E3</title>
<polygon fill="#d3d3d3" stroke="#000000" points="157.9963,-166.7893 132.0012,-166.7893 132.0012,-149.7893 157.9963,-149.7893 157.9963,-166.7893"/>
<text text-anchor="middle" x="144.9988" y="-155.5893" font-family="Times,serif" font-size="9.00" fill="#000000">E3</text>
</g>
<!-- E2&#45;&gt;E3 -->
<!-- E2&#45;&gt;0 -->
<g id="edge19" class="edge">
<title>E2&#45;&gt;0</title>
<path fill="none" stroke="#ff0000" stroke-width=".3213" d="M100.5223,-149.7463C99.3376,-128.5056 96.2229,-72.6603 94.3939,-39.8674"/>
<polygon fill="#ff0000" stroke="#ff0000" stroke-width=".3213" points="97.8791,-39.5029 93.8276,-29.7133 90.89,-39.8927 97.8791,-39.5029"/>
</g>
<!-- E4 -->
<g id="node5" class="node">
<title>E4</title>
<polygon fill="#d3d3d3" stroke="#000000" points="201.9963,-166.7893 176.0012,-166.7893 176.0012,-149.7893 201.9963,-149.7893 201.9963,-166.7893"/>
<text text-anchor="middle" x="188.9988" y="-155.5893" font-family="Times,serif" font-size="9.00" fill="#000000">E4</text>
</g>
<!-- E3&#45;&gt;E4 -->
<!-- S -->
<g id="node13" class="node">
<title>S</title>
<ellipse fill="#87cefa" stroke="#000000" cx="315.9988" cy="-14.853" rx="14.7075" ry="14.7075"/>
<text text-anchor="middle" x="315.9988" y="-12.153" font-family="Times,serif" font-size="9.00" fill="#000000">S</text>
</g>
<!-- E3&#45;&gt;S -->
<g id="edge20" class="edge">
<title>E3&#45;&gt;S</title>
<path fill="none" stroke="#ff0000" stroke-width=".1641" d="M158.0566,-152.0464C173.7709,-144.2262 200.588,-129.8836 220.9988,-113.7893 251.7316,-89.556 282.1598,-55.6592 300.0071,-34.4956"/>
<polygon fill="#ff0000" stroke="#ff0000" stroke-width=".1641" points="302.9284,-36.4569 306.6355,-26.5318 297.5481,-31.9789 302.9284,-36.4569"/>
</g>
<!-- E5 -->
<g id="node6" class="node">
<title>E5</title>
<polygon fill="#d3d3d3" stroke="#000000" points="245.9963,-166.7893 220.0012,-166.7893 220.0012,-149.7893 245.9963,-149.7893 245.9963,-166.7893"/>
<text text-anchor="middle" x="232.9988" y="-155.5893" font-family="Times,serif" font-size="9.00" fill="#000000">E5</text>
</g>
<!-- E4&#45;&gt;E5 -->
<!-- E4&#45;&gt;1 -->
<g id="edge14" class="edge">
<title>E4&#45;&gt;1</title>
<path fill="none" stroke="#ff0000" stroke-width="1.4454" d="M180.2009,-149.6147C172.2545,-141.2212 160.9254,-127.7508 154.9988,-113.7893 144.8713,-89.932 141.4535,-60.2809 140.3644,-39.6912"/>
<polygon fill="#ff0000" stroke="#ff0000" stroke-width="1.4454" points="143.8565,-39.4132 139.9775,-29.5541 136.8616,-39.6803 143.8565,-39.4132"/>
</g>
<!-- E4&#45;&gt;S -->
<g id="edge16" class="edge">
<title>E4&#45;&gt;S</title>
<path fill="none" stroke="#ff0000" stroke-width=".1751" d="M202.4363,-152.9141C205.251,-151.8399 208.2109,-150.7481 210.9988,-149.7893 263.2513,-131.8196 297.066,-158.159 329.9988,-113.7893 346.4963,-91.5626 336.9894,-58.6074 327.4856,-36.9325"/>
<polygon fill="#ff0000" stroke="#ff0000" stroke-width=".1751" points="330.6357,-35.4064 323.2126,-27.8466 324.3012,-38.3854 330.6357,-35.4064"/>
</g>
<!-- E6 -->
<g id="node7" class="node">
<title>E6</title>
<polygon fill="#d3d3d3" stroke="#000000" points="289.9963,-166.7893 264.0012,-166.7893 264.0012,-149.7893 289.9963,-149.7893 289.9963,-166.7893"/>
<text text-anchor="middle" x="276.9988" y="-155.5893" font-family="Times,serif" font-size="9.00" fill="#000000">E6</text>
</g>
<!-- E5&#45;&gt;E6 -->
<!-- E7 -->
<g id="node8" class="node">
<title>E7</title>
<polygon fill="#d3d3d3" stroke="#000000" points="333.9963,-166.7893 308.0012,-166.7893 308.0012,-149.7893 333.9963,-149.7893 333.9963,-166.7893"/>
<text text-anchor="middle" x="320.9988" y="-155.5893" font-family="Times,serif" font-size="9.00" fill="#000000">E7</text>
</g>
<!-- E6&#45;&gt;E7 -->
<!-- 2 -->
<g id="node12" class="node">
<title>2</title>
<ellipse fill="#87cefa" stroke="#000000" cx="239.9988" cy="-14.853" rx="14.4914" ry="14.4914"/>
<text text-anchor="middle" x="239.9988" y="-12.153" font-family="Times,serif" font-size="9.00" fill="#000000">2</text>
</g>
<!-- E6&#45;&gt;2 -->
<g id="edge21" class="edge">
<title>E6&#45;&gt;2</title>
<path fill="none" stroke="#ff0000" stroke-width=".5771" d="M274.7951,-149.7463C269.288,-128.3972 254.7632,-72.0896 246.3223,-39.3672"/>
<polygon fill="#ff0000" stroke="#ff0000" stroke-width=".5771" points="249.6017,-38.0676 243.7148,-29.2589 242.8236,-39.8161 249.6017,-38.0676"/>
</g>
<!-- E8 -->
<g id="node9" class="node">
<title>E8</title>
<polygon fill="#d3d3d3" stroke="#000000" points="392.9963,-166.7893 367.0012,-166.7893 367.0012,-149.7893 392.9963,-149.7893 392.9963,-166.7893"/>
<text text-anchor="middle" x="379.9988" y="-155.5893" font-family="Times,serif" font-size="9.00" fill="#000000">E8</text>
</g>
<!-- E7&#45;&gt;E8 -->
<!-- E7&#45;&gt;1 -->
<g id="edge15" class="edge">
<title>E7&#45;&gt;1</title>
<path fill="none" stroke="#ff0000" stroke-width=".296" d="M312.6547,-149.5404C296.0749,-132.396 257.4336,-93.6209 220.9988,-65.7061 201.9376,-51.1022 178.5631,-36.7697 161.8314,-27.0623"/>
<polygon fill="#ff0000" stroke="#ff0000" stroke-width=".296" points="163.2487,-23.8409 152.8305,-21.9142 159.7733,-29.9173 163.2487,-23.8409"/>
</g>
<!-- E8&#45;&gt;2 -->
<g id="edge12" class="edge">
<title>E8&#45;&gt;2</title>
<path fill="none" stroke="#ff0000" stroke-width=".7504" d="M371.8535,-149.5083C356.4448,-132.9443 321.8908,-96.0263 291.9988,-65.7061 280.9466,-54.4955 268.3264,-42.1433 258.2868,-32.4202"/>
<polygon fill="#ff0000" stroke="#ff0000" stroke-width=".7504" points="260.4932,-29.6854 250.8676,-25.2581 255.6314,-34.7216 260.4932,-29.6854"/>
</g>
<!-- 0&#45;&gt;1 -->
<!-- 1&#45;&gt;2 -->
<!-- 2&#45;&gt;S -->
<!-- 4500&#45;&gt;2 -->
<g id="edge18" class="edge">
<title>4500&#45;&gt;2</title>
<path fill="none" stroke="#00ff00" stroke-width=".4529" d="M201.9338,-69.6773C209.3608,-58.9803 218.4755,-45.8527 225.9236,-35.1253"/>
<polygon fill="#00ff00" stroke="#00ff00" stroke-width=".4529" points="228.8861,-36.9954 231.7143,-26.785 223.1361,-33.0031 228.8861,-36.9954"/>
</g>
</g>
</svg>
