<?xml version="1.0" encoding="UTF-8" standalone="no"?>
<!DOCTYPE svg PUBLIC "-//W3C//DTD SVG 1.1//EN"
 "http://www.w3.org/Graphics/SVG/1.1/DTD/svg11.dtd">
<!-- Generated by graphviz version 2.40.1 (20161225.0304)
 -->
<!-- Title: %3 Pages: 1 -->
<svg width="386pt" height="91pt"
 viewBox="0.00 0.00 386.00 90.71" xmlns="http://www.w3.org/2000/svg" xmlns:xlink="http://www.w3.org/1999/xlink">
<g id="graph0" class="graph" transform="scale(1 1) rotate(0) translate(4 86.7061)">
<title>%3</title>
<polygon fill="#ffffff" stroke="transparent" points="-4,4 -4,-86.7061 381.9976,-86.7061 381.9976,4 -4,4"/>
<!-- E0 -->
<g id="node1" class="node">
<title>E0</title>
<polygon fill="#d3d3d3" stroke="#000000" points="25.9963,-82.7061 .0012,-82.7061 .0012,-65.7061 25.9963,-65.7061 25.9963,-82.7061"/>
<text text-anchor="middle" x="12.9988" y="-71.5061" font-family="Times,serif" font-size="9.00" fill="#000000">E0</text>
</g>
<!-- E1 -->
<g id="node2" class="node">
<title>E1</title>
<polygon fill="#d3d3d3" stroke="#000000" points="69.9963,-82.7061 44.0012,-82.7061 44.0012,-65.7061 69.9963,-65.7061 69.9963,-82.7061"/>
<text text-anchor="middle" x="56.9988" y="-71.5061" font-family="Times,serif" font-size="9.00" fill="#000000">E1</text>
</g>
<!-- E0&#45;&gt;E1 -->
<!-- E2 -->
<g id="node3" class="node">
<title>E2</title>
<polygon fill="#d3d3d3" stroke="#000000" points="113.9963,-82.7061 88.0012,-82.7061 88.0012,-65.7061 113.9963,-65.7061 113.9963,-82.7061"/>
<text text-anchor="middle" x="100.9988" y="-71.5061" font-family="Times,serif" font-size="9.00" fill="#000000">E2</text>
</g>
<!-- E1&#45;&gt;E2 -->
<!-- 0 -->
<g id="node10" class="node">
<title>0</title>
<ellipse fill="#eee8aa" stroke="#000000" cx="75.9988" cy="-14.853" rx="14.4914" ry="14.4914"/>
<text text-anchor="middle" x="75.9988" y="-12.153" font-family="Times,serif" font-size="9.00" fill="#000000">0</text>
</g>
<!-- E1&#45;&gt;0 -->
<g id="edge16" class="edge">
<title>E1&#45;&gt;0</title>
<path fill="none" stroke="#ff0000" stroke-width="1.1737" d="M59.721,-65.7022C62.0057,-58.5652 65.3817,-48.0192 68.4677,-38.3789"/>
<polygon fill="#ff0000" stroke="#ff0000" stroke-width="1.1737" points="71.8054,-39.4324 71.5209,-28.8414 65.1386,-37.2982 71.8054,-39.4324"/>
</g>
<!-- E3 -->
<g id="node4" class="node">
<title>E3</title>
<polygon fill="#d3d3d3" stroke="#000000" points="157.9963,-82.7061 132.0012,-82.7061 132.0012,-65.7061 157.9963,-65.7061 157.9963,-82.7061"/>
<text text-anchor="middle" x="144.9988" y="-71.5061" font-family="Times,serif" font-size="9.00" fill="#000000">E3</text>
</g>
<!-- E2&#45;&gt;E3 -->
<!-- S -->
<g id="node13" class="node">
<title>S</title>
<ellipse fill="#eee8aa" stroke="#000000" cx="235.9988" cy="-14.853" rx="14.7075" ry="14.7075"/>
<text text-anchor="middle" x="235.9988" y="-12.153" font-family="Times,serif" font-size="9.00" fill="#000000">S</text>
</g>
<!-- E2&#45;&gt;S -->
<g id="edge13" class="edge">
<title>E2&#45;&gt;S</title>
<path fill="none" stroke="#ff0000" stroke-width=".2342" d="M114.0975,-69.102C141.4413,-58.4258 202.8255,-34.3396 211.9988,-29.7061 212.8407,-29.2808 213.6918,-28.8355 214.5457,-28.3756"/>
<polygon fill="#ff0000" stroke="#ff0000" stroke-width=".2342" points="216.655,-31.1972 223.5296,-23.1356 213.1282,-25.1506 216.655,-31.1972"/>
</g>
<!-- E4 -->
<g id="node5" class="node">
<title>E4</title>
<polygon fill="#d3d3d3" stroke="#000000" points="201.9963,-82.7061 176.0012,-82.7061 176.0012,-65.7061 201.9963,-65.7061 201.9963,-82.7061"/>
<text text-anchor="middle" x="188.9988" y="-71.5061" font-family="Times,serif" font-size="9.00" fill="#000000">E4</text>
</g>
<!-- E3&#45;&gt;E4 -->
<!-- E3&#45;&gt;S -->
<g id="edge17" class="edge">
<title>E3&#45;&gt;S</title>
<path fill="none" stroke="#ff0000" stroke-width=".2279" d="M158.0369,-65.7022C172.8518,-56.0395 197.2474,-40.1279 214.8063,-28.6755"/>
<polygon fill="#ff0000" stroke="#ff0000" stroke-width=".2279" points="216.8144,-31.5444 223.2783,-23.1497 212.9903,-25.6812 216.8144,-31.5444"/>
</g>
<!-- E5 -->
<g id="node6" class="node">
<title>E5</title>
<polygon fill="#d3d3d3" stroke="#000000" points="245.9963,-82.7061 220.0012,-82.7061 220.0012,-65.7061 245.9963,-65.7061 245.9963,-82.7061"/>
<text text-anchor="middle" x="232.9988" y="-71.5061" font-family="Times,serif" font-size="9.00" fill="#000000">E5</text>
</g>
<!-- E4&#45;&gt;E5 -->
<!-- 2 -->
<g id="node12" class="node">
<title>2</title>
<ellipse fill="#87cefa" stroke="#000000" cx="188.9988" cy="-14.853" rx="14.4914" ry="14.4914"/>
<text text-anchor="middle" x="188.9988" y="-12.153" font-family="Times,serif" font-size="9.00" fill="#000000">2</text>
</g>
<!-- E4&#45;&gt;2 -->
<g id="edge15" class="edge">
<title>E4&#45;&gt;2</title>
<path fill="none" stroke="#ff0000" stroke-width=".2433" d="M188.9988,-65.7022C188.9988,-58.9749 188.9988,-49.2187 188.9988,-40.0472"/>
<polygon fill="#ff0000" stroke="#ff0000" stroke-width=".2433" points="192.4989,-39.7656 188.9988,-29.7657 185.4989,-39.7657 192.4989,-39.7656"/>
</g>
<!-- E6 -->
<g id="node7" class="node">
<title>E6</title>
<polygon fill="#d3d3d3" stroke="#000000" points="289.9963,-82.7061 264.0012,-82.7061 264.0012,-65.7061 289.9963,-65.7061 289.9963,-82.7061"/>
<text text-anchor="middle" x="276.9988" y="-71.5061" font-family="Times,serif" font-size="9.00" fill="#000000">E6</text>
</g>
<!-- E5&#45;&gt;E6 -->
<!-- 1 -->
<g id="node11" class="node">
<title>1</title>
<ellipse fill="#ffa07a" stroke="#000000" cx="141.9988" cy="-14.853" rx="14.4914" ry="14.4914"/>
<text text-anchor="middle" x="141.9988" y="-12.153" font-family="Times,serif" font-size="9.00" fill="#000000">1</text>
</g>
<!-- E5&#45;&gt;1 -->
<g id="edge12" class="edge">
<title>E5&#45;&gt;1</title>
<path fill="none" stroke="#00ff00" stroke-width=".5198" d="M219.9607,-65.7022C204.9783,-55.9303 180.1976,-39.7675 162.5987,-28.289"/>
<polygon fill="#00ff00" stroke="#00ff00" stroke-width=".5198" points="164.4282,-25.3036 154.1402,-22.7721 160.604,-31.1667 164.4282,-25.3036"/>
</g>
<!-- E7 -->
<g id="node8" class="node">
<title>E7</title>
<polygon fill="#d3d3d3" stroke="#000000" points="333.9963,-82.7061 308.0012,-82.7061 308.0012,-65.7061 333.9963,-65.7061 333.9963,-82.7061"/>
<text text-anchor="middle" x="320.9988" y="-71.5061" font-family="Times,serif" font-size="9.00" fill="#000000">E7</text>
</g>
<!-- E6&#45;&gt;E7 -->
<!-- E6&#45;&gt;1 -->
<g id="edge18" class="edge">
<title>E6&#45;&gt;1</title>
<path fill="none" stroke="#00ff00" stroke-width=".2202" d="M263.9001,-69.102C236.5562,-58.4258 175.172,-34.3396 165.9988,-29.7061 165.1568,-29.2808 164.3058,-28.8355 163.4518,-28.3756"/>
<polygon fill="#00ff00" stroke="#00ff00" stroke-width=".2202" points="164.8694,-25.1506 154.4679,-23.1356 161.3426,-31.1972 164.8694,-25.1506"/>
</g>
<!-- E8 -->
<g id="node9" class="node">
<title>E8</title>
<polygon fill="#d3d3d3" stroke="#000000" points="377.9963,-82.7061 352.0012,-82.7061 352.0012,-65.7061 377.9963,-65.7061 377.9963,-82.7061"/>
<text text-anchor="middle" x="364.9988" y="-71.5061" font-family="Times,serif" font-size="9.00" fill="#000000">E8</text>
</g>
<!-- E7&#45;&gt;E8 -->
<!-- E7&#45;&gt;S -->
<g id="edge14" class="edge">
<title>E7&#45;&gt;S</title>
<path fill="none" stroke="#ff0000" stroke-width=".9633" d="M308.8204,-65.7022C295.2641,-56.2363 273.1197,-40.7735 256.8041,-29.3808"/>
<polygon fill="#ff0000" stroke="#ff0000" stroke-width=".9633" points="258.6338,-26.3896 248.431,-23.5341 254.6262,-32.1289 258.6338,-26.3896"/>
</g>
<!-- 0&#45;&gt;1 -->
<!-- 1&#45;&gt;2 -->
<!-- 2&#45;&gt;S -->
</g>
</svg>
