<?xml version="1.0" encoding="UTF-8" standalone="no"?>
<!DOCTYPE svg PUBLIC "-//W3C//DTD SVG 1.1//EN"
 "http://www.w3.org/Graphics/SVG/1.1/DTD/svg11.dtd">
<!-- Generated by graphviz version 2.40.1 (20161225.0304)
 -->
<!-- Title: %3 Pages: 1 -->
<svg width="502pt" height="350pt"
 viewBox="0.00 0.00 501.77 350.02" xmlns="http://www.w3.org/2000/svg" xmlns:xlink="http://www.w3.org/1999/xlink">
<g id="graph0" class="graph" transform="scale(1 1) rotate(0) translate(4 346.0159)">
<title>%3</title>
<polygon fill="#ffffff" stroke="transparent" points="-4,4 -4,-346.0159 497.7661,-346.0159 497.7661,4 -4,4"/>
<!-- 0 -->
<g id="node1" class="node">
<title>0</title>
<polygon fill="#d3d3d3" stroke="#000000" points="36.389,-342.0159 16.3771,-342.0159 16.3771,-325.0159 36.389,-325.0159 36.389,-342.0159"/>
<text text-anchor="middle" x="26.383" y="-330.8159" font-family="Times,serif" font-size="9.00" fill="#000000">0</text>
</g>
<!-- 1 -->
<g id="node2" class="node">
<title>1</title>
<polygon fill="#d3d3d3" stroke="#000000" points="75.389,-342.0159 55.3771,-342.0159 55.3771,-325.0159 75.389,-325.0159 75.389,-342.0159"/>
<text text-anchor="middle" x="65.383" y="-330.8159" font-family="Times,serif" font-size="9.00" fill="#000000">1</text>
</g>
<!-- 0&#45;&gt;1 -->
<!-- E6 -->
<g id="node10" class="node">
<title>E6</title>
<ellipse fill="#ffa07a" stroke="#000000" cx="365.383" cy="-18.383" rx="18.2668" ry="18.2668"/>
<text text-anchor="middle" x="365.383" y="-15.683" font-family="Times,serif" font-size="9.00" fill="#000000">E6</text>
</g>
<!-- 0&#45;&gt;E6 -->
<g id="edge13" class="edge">
<title>0&#45;&gt;E6</title>
<path fill="none" stroke="#ff0000" stroke-width="2.2704" d="M26.4667,-324.9003C27.342,-287.514 36.2256,-138.2782 121.383,-72.7661 198.5218,-13.4229 246.7529,-72.2369 337.383,-36.7661 338.8045,-36.2098 340.2289,-35.5742 341.6406,-34.8816"/>
<polygon fill="#ff0000" stroke="#ff0000" stroke-width="2.2704" points="343.6901,-37.7402 350.6088,-29.7163 340.1964,-31.6744 343.6901,-37.7402"/>
</g>
<!-- 2 -->
<g id="node3" class="node">
<title>2</title>
<polygon fill="#d3d3d3" stroke="#000000" points="192.389,-342.0159 172.3771,-342.0159 172.3771,-325.0159 192.389,-325.0159 192.389,-342.0159"/>
<text text-anchor="middle" x="182.383" y="-330.8159" font-family="Times,serif" font-size="9.00" fill="#000000">2</text>
</g>
<!-- 1&#45;&gt;2 -->
<!-- E1 -->
<g id="node5" class="node">
<title>E1</title>
<ellipse fill="#ffa07a" stroke="#000000" cx="73.383" cy="-18.383" rx="18.2668" ry="18.2668"/>
<text text-anchor="middle" x="73.383" y="-15.683" font-family="Times,serif" font-size="9.00" fill="#000000">E1</text>
</g>
<!-- 1&#45;&gt;E1 -->
<g id="edge12" class="edge">
<title>1&#45;&gt;E1</title>
<path fill="none" stroke="#00ff00" stroke-width="2.58" d="M65.6054,-324.7585C66.6306,-284.373 70.9258,-115.1774 72.6561,-47.0177"/>
<polygon fill="#00ff00" stroke="#00ff00" stroke-width="2.58" points="76.1559,-47.0669 72.9109,-36.9812 69.1582,-46.8892 76.1559,-47.0669"/>
</g>
<!-- E3 -->
<g id="node7" class="node">
<title>E3</title>
<ellipse fill="#87cefa" stroke="#000000" cx="200.383" cy="-18.383" rx="18.2668" ry="18.2668"/>
<text text-anchor="middle" x="200.383" y="-15.683" font-family="Times,serif" font-size="9.00" fill="#000000">E3</text>
</g>
<!-- 2&#45;&gt;E3 -->
<g id="edge11" class="edge">
<title>2&#45;&gt;E3</title>
<path fill="none" stroke="#ff0000" stroke-width="1.0526" d="M185.3887,-324.7139C188.3828,-315.782 193.0077,-301.527 196.383,-289.0159 206.3627,-252.0259 211.1346,-243.0089 215.383,-204.9326 217.7528,-183.6941 216.5355,-178.1886 215.383,-156.8494 213.3225,-118.695 208.0903,-74.8841 204.3872,-46.9381"/>
<polygon fill="#ff0000" stroke="#ff0000" stroke-width="1.0526" points="207.8112,-46.1398 203.0043,-36.6982 200.8742,-47.0766 207.8112,-46.1398"/>
</g>
<!-- 5248 -->
<g id="node13" class="node">
<title>5248</title>
<ellipse fill="#add8e6" stroke="#000000" cx="182.383" cy="-180.891" rx="24.0833" ry="24.0833"/>
<text text-anchor="middle" x="182.383" y="-182.691" font-family="Times,serif" font-size="9.00" fill="#000000">5248</text>
<text text-anchor="middle" x="182.383" y="-173.691" font-family="Times,serif" font-size="9.00" fill="#000000">sigm</text>
</g>
<!-- 2&#45;&gt;5248 -->
<g id="edge23" class="edge">
<title>2&#45;&gt;5248</title>
<path fill="none" stroke="#ff0000" stroke-width=".3475" d="M182.383,-324.8728C182.383,-304.2423 182.383,-251.19 182.383,-215.5728"/>
<polygon fill="#ff0000" stroke="#ff0000" stroke-width=".3475" points="185.8831,-215.1341 182.383,-205.1341 178.8831,-215.1342 185.8831,-215.1341"/>
</g>
<!-- 4980 -->
<g id="node18" class="node">
<title>4980</title>
<ellipse fill="#add8e6" stroke="#000000" cx="286.383" cy="-264.9743" rx="24.0833" ry="24.0833"/>
<text text-anchor="middle" x="286.383" y="-266.7743" font-family="Times,serif" font-size="9.00" fill="#000000">4980</text>
<text text-anchor="middle" x="286.383" y="-257.7743" font-family="Times,serif" font-size="9.00" fill="#000000">sigm</text>
</g>
<!-- 2&#45;&gt;4980 -->
<g id="edge17" class="edge">
<title>2&#45;&gt;4980</title>
<path fill="none" stroke="#00ff00" stroke-width=".1473" d="M192.7352,-326.6933C207.7271,-316.8127 236.048,-298.1478 257.6356,-283.9204"/>
<polygon fill="#00ff00" stroke="#00ff00" stroke-width=".1473" points="259.6989,-286.7524 266.1226,-278.327 255.8468,-280.9076 259.6989,-286.7524"/>
</g>
<!-- 5211 -->
<g id="node19" class="node">
<title>5211</title>
<ellipse fill="#add8e6" stroke="#000000" cx="123.383" cy="-264.9743" rx="23.6187" ry="23.6187"/>
<text text-anchor="middle" x="123.383" y="-266.7743" font-family="Times,serif" font-size="9.00" fill="#000000">5211</text>
<text text-anchor="middle" x="123.383" y="-257.7743" font-family="Times,serif" font-size="9.00" fill="#000000">sigm</text>
</g>
<!-- 2&#45;&gt;5211 -->
<g id="edge21" class="edge">
<title>2&#45;&gt;5211</title>
<path fill="none" stroke="#ff0000" stroke-width=".104" d="M174.9107,-324.835C167.5342,-316.2656 155.8885,-302.7366 145.5333,-290.7067"/>
<polygon fill="#ff0000" stroke="#ff0000" stroke-width=".104" points="148.1491,-288.3806 138.9726,-283.085 142.8439,-292.9473 148.1491,-288.3806"/>
</g>
<!-- E0 -->
<g id="node4" class="node">
<title>E0</title>
<ellipse fill="#ffa07a" stroke="#000000" cx="18.383" cy="-18.383" rx="18.2668" ry="18.2668"/>
<text text-anchor="middle" x="18.383" y="-15.683" font-family="Times,serif" font-size="9.00" fill="#000000">E0</text>
</g>
<!-- E0&#45;&gt;E1 -->
<!-- E2 -->
<g id="node6" class="node">
<title>E2</title>
<ellipse fill="#ffa07a" stroke="#000000" cx="145.383" cy="-18.383" rx="18.2668" ry="18.2668"/>
<text text-anchor="middle" x="145.383" y="-15.683" font-family="Times,serif" font-size="9.00" fill="#000000">E2</text>
</g>
<!-- E1&#45;&gt;E2 -->
<!-- E2&#45;&gt;E3 -->
<!-- E4 -->
<g id="node8" class="node">
<title>E4</title>
<ellipse fill="#eee8aa" stroke="#000000" cx="255.383" cy="-18.383" rx="18.2668" ry="18.2668"/>
<text text-anchor="middle" x="255.383" y="-15.683" font-family="Times,serif" font-size="9.00" fill="#000000">E4</text>
</g>
<!-- E3&#45;&gt;E4 -->
<!-- E5 -->
<g id="node9" class="node">
<title>E5</title>
<ellipse fill="#87cefa" stroke="#000000" cx="310.383" cy="-18.383" rx="18.2668" ry="18.2668"/>
<text text-anchor="middle" x="310.383" y="-15.683" font-family="Times,serif" font-size="9.00" fill="#000000">E5</text>
</g>
<!-- E4&#45;&gt;E5 -->
<!-- E5&#45;&gt;E6 -->
<!-- E7 -->
<g id="node11" class="node">
<title>E7</title>
<ellipse fill="#eee8aa" stroke="#000000" cx="420.383" cy="-18.383" rx="18.2668" ry="18.2668"/>
<text text-anchor="middle" x="420.383" y="-15.683" font-family="Times,serif" font-size="9.00" fill="#000000">E7</text>
</g>
<!-- E6&#45;&gt;E7 -->
<!-- E8 -->
<g id="node12" class="node">
<title>E8</title>
<ellipse fill="#87cefa" stroke="#000000" cx="475.383" cy="-18.383" rx="18.2668" ry="18.2668"/>
<text text-anchor="middle" x="475.383" y="-15.683" font-family="Times,serif" font-size="9.00" fill="#000000">E8</text>
</g>
<!-- E7&#45;&gt;E8 -->
<!-- 3855 -->
<g id="node16" class="node">
<title>3855</title>
<ellipse fill="#f08080" stroke="#000000" cx="154.383" cy="-96.8077" rx="24.0833" ry="24.0833"/>
<text text-anchor="middle" x="154.383" y="-98.6077" font-family="Times,serif" font-size="9.00" fill="#000000">3855</text>
<text text-anchor="middle" x="154.383" y="-89.6077" font-family="Times,serif" font-size="9.00" fill="#000000">relu</text>
</g>
<!-- 5248&#45;&gt;3855 -->
<g id="edge24" class="edge">
<title>5248&#45;&gt;3855</title>
<path fill="none" stroke="#00ff00" stroke-width=".2469" d="M174.7319,-157.9149C171.7997,-149.1094 168.396,-138.8882 165.2212,-129.3544"/>
<polygon fill="#00ff00" stroke="#00ff00" stroke-width=".2469" points="168.5052,-128.138 162.0249,-119.7561 161.8637,-130.3497 168.5052,-128.138"/>
</g>
<!-- 4833 -->
<g id="node14" class="node">
<title>4833</title>
<ellipse fill="#f08080" stroke="#000000" cx="286.383" cy="-96.8077" rx="24.0833" ry="24.0833"/>
<text text-anchor="middle" x="286.383" y="-98.6077" font-family="Times,serif" font-size="9.00" fill="#000000">4833</text>
<text text-anchor="middle" x="286.383" y="-89.6077" font-family="Times,serif" font-size="9.00" fill="#000000">relu</text>
</g>
<!-- 4833&#45;&gt;E4 -->
<g id="edge19" class="edge">
<title>4833&#45;&gt;E4</title>
<path fill="none" stroke="#ff0000" stroke-width=".5977" d="M277.4166,-74.1241C273.8067,-64.9917 269.6181,-54.3952 265.8683,-44.909"/>
<polygon fill="#ff0000" stroke="#ff0000" stroke-width=".5977" points="269.0932,-43.5463 262.1622,-35.5331 262.5834,-46.1196 269.0932,-43.5463"/>
</g>
<!-- 4679 -->
<g id="node15" class="node">
<title>4679</title>
<ellipse fill="#add8e6" stroke="#000000" cx="286.383" cy="-180.891" rx="24.0833" ry="24.0833"/>
<text text-anchor="middle" x="286.383" y="-182.691" font-family="Times,serif" font-size="9.00" fill="#000000">4679</text>
<text text-anchor="middle" x="286.383" y="-173.691" font-family="Times,serif" font-size="9.00" fill="#000000">sigm</text>
</g>
<!-- 4679&#45;&gt;E7 -->
<g id="edge15" class="edge">
<title>4679&#45;&gt;E7</title>
<path fill="none" stroke="#00ff00" stroke-width=".1302" d="M301.7546,-162.2493C326.492,-132.249 375.0548,-73.3548 401.7338,-40.9999"/>
<polygon fill="#00ff00" stroke="#00ff00" stroke-width=".1302" points="404.6676,-42.9434 408.3292,-33.0013 399.2669,-38.49 404.6676,-42.9434"/>
</g>
<!-- 4679&#45;&gt;4833 -->
<g id="edge16" class="edge">
<title>4679&#45;&gt;4833</title>
<path fill="none" stroke="#ff0000" stroke-width=".271" d="M286.383,-156.5706C286.383,-148.6398 286.383,-139.6791 286.383,-131.1553"/>
<polygon fill="#ff0000" stroke="#ff0000" stroke-width=".271" points="289.8831,-131.0734 286.383,-121.0734 282.8831,-131.0735 289.8831,-131.0734"/>
</g>
<!-- 3855&#45;&gt;E2 -->
<g id="edge14" class="edge">
<title>3855&#45;&gt;E2</title>
<path fill="none" stroke="#00ff00" stroke-width=".4435" d="M151.6339,-72.8516C150.7034,-64.7434 149.6545,-55.6042 148.6856,-47.161"/>
<polygon fill="#00ff00" stroke="#00ff00" stroke-width=".4435" points="152.1333,-46.5043 147.5159,-36.9686 145.1789,-47.3025 152.1333,-46.5043"/>
</g>
<!-- 5200 -->
<g id="node17" class="node">
<title>5200</title>
<ellipse fill="#add8e6" stroke="#000000" cx="116.383" cy="-180.891" rx="24.0833" ry="24.0833"/>
<text text-anchor="middle" x="116.383" y="-182.691" font-family="Times,serif" font-size="9.00" fill="#000000">5200</text>
<text text-anchor="middle" x="116.383" y="-173.691" font-family="Times,serif" font-size="9.00" fill="#000000">sigm</text>
</g>
<!-- 5200&#45;&gt;3855 -->
<g id="edge20" class="edge">
<title>5200&#45;&gt;3855</title>
<path fill="none" stroke="#00ff00" stroke-width=".2291" d="M126.3671,-158.7991C130.5998,-149.4334 135.6096,-138.3481 140.214,-128.1599"/>
<polygon fill="#00ff00" stroke="#00ff00" stroke-width=".2291" points="143.5367,-129.3061 144.4657,-118.7521 137.1579,-126.4233 143.5367,-129.3061"/>
</g>
<!-- 4980&#45;&gt;4679 -->
<g id="edge18" class="edge">
<title>4980&#45;&gt;4679</title>
<path fill="none" stroke="#00ff00" stroke-width=".1322" d="M286.383,-240.6539C286.383,-232.7231 286.383,-223.7624 286.383,-215.2386"/>
<polygon fill="#00ff00" stroke="#00ff00" stroke-width=".1322" points="289.8831,-215.1567 286.383,-205.1567 282.8831,-215.1567 289.8831,-215.1567"/>
</g>
<!-- 5211&#45;&gt;5200 -->
<g id="edge22" class="edge">
<title>5211&#45;&gt;5200</title>
<path fill="none" stroke="#ff0000" stroke-width=".1177" d="M121.3959,-241.1043C120.7292,-233.0962 119.9718,-223.9989 119.2514,-215.3452"/>
<polygon fill="#ff0000" stroke="#ff0000" stroke-width=".1177" points="122.7172,-214.7878 118.3995,-205.1126 115.7413,-215.3686 122.7172,-214.7878"/>
</g>
</g>
</svg>
