<?xml version="1.0" encoding="UTF-8" standalone="no"?>
<!DOCTYPE svg PUBLIC "-//W3C//DTD SVG 1.1//EN"
 "http://www.w3.org/Graphics/SVG/1.1/DTD/svg11.dtd">
<!-- Generated by graphviz version 2.40.1 (20161225.0304)
 -->
<!-- Title: %3 Pages: 1 -->
<svg width="485pt" height="182pt"
 viewBox="0.00 0.00 484.77 181.85" xmlns="http://www.w3.org/2000/svg" xmlns:xlink="http://www.w3.org/1999/xlink">
<g id="graph0" class="graph" transform="scale(1 1) rotate(0) translate(4 177.8494)">
<title>%3</title>
<polygon fill="#ffffff" stroke="transparent" points="-4,4 -4,-177.8494 480.7661,-177.8494 480.7661,4 -4,4"/>
<!-- 0 -->
<g id="node1" class="node">
<title>0</title>
<polygon fill="#d3d3d3" stroke="#000000" points="60.389,-173.8494 40.3771,-173.8494 40.3771,-156.8494 60.389,-156.8494 60.389,-173.8494"/>
<text text-anchor="middle" x="50.383" y="-162.6494" font-family="Times,serif" font-size="9.00" fill="#000000">0</text>
</g>
<!-- 1 -->
<g id="node2" class="node">
<title>1</title>
<polygon fill="#d3d3d3" stroke="#000000" points="99.389,-173.8494 79.3771,-173.8494 79.3771,-156.8494 99.389,-156.8494 99.389,-173.8494"/>
<text text-anchor="middle" x="89.383" y="-162.6494" font-family="Times,serif" font-size="9.00" fill="#000000">1</text>
</g>
<!-- 0&#45;&gt;1 -->
<!-- E1 -->
<g id="node5" class="node">
<title>E1</title>
<ellipse fill="#eee8aa" stroke="#000000" cx="73.383" cy="-18.383" rx="18.2668" ry="18.2668"/>
<text text-anchor="middle" x="73.383" y="-15.683" font-family="Times,serif" font-size="9.00" fill="#000000">E1</text>
</g>
<!-- 0&#45;&gt;E1 -->
<g id="edge12" class="edge">
<title>0&#45;&gt;E1</title>
<path fill="none" stroke="#ff0000" stroke-width="1.683" d="M51.7529,-156.5961C55.0602,-135.4629 63.5997,-80.8974 68.9061,-46.9901"/>
<polygon fill="#ff0000" stroke="#ff0000" stroke-width="1.683" points="72.4163,-47.1966 70.5046,-36.7757 65.5005,-46.1143 72.4163,-47.1966"/>
</g>
<!-- E8 -->
<g id="node12" class="node">
<title>E8</title>
<ellipse fill="#ffa07a" stroke="#000000" cx="458.383" cy="-18.383" rx="18.2668" ry="18.2668"/>
<text text-anchor="middle" x="458.383" y="-15.683" font-family="Times,serif" font-size="9.00" fill="#000000">E8</text>
</g>
<!-- 0&#45;&gt;E8 -->
<g id="edge15" class="edge">
<title>0&#45;&gt;E8</title>
<path fill="none" stroke="#ff0000" stroke-width=".2706" d="M60.4939,-160.8668C63.6409,-159.5217 67.1369,-158.0783 70.383,-156.8494 228.1235,-97.1304 278.6149,-110.3516 430.383,-36.7661 431.7566,-36.1001 433.1429,-35.3775 434.5248,-34.6167"/>
<polygon fill="#ff0000" stroke="#ff0000" stroke-width=".2706" points="436.6603,-37.4152 443.401,-29.2412 433.0342,-31.4276 436.6603,-37.4152"/>
</g>
<!-- 2 -->
<g id="node3" class="node">
<title>2</title>
<polygon fill="#d3d3d3" stroke="#000000" points="190.389,-173.8494 170.3771,-173.8494 170.3771,-156.8494 190.389,-156.8494 190.389,-173.8494"/>
<text text-anchor="middle" x="180.383" y="-162.6494" font-family="Times,serif" font-size="9.00" fill="#000000">2</text>
</g>
<!-- 1&#45;&gt;2 -->
<!-- E0 -->
<g id="node4" class="node">
<title>E0</title>
<ellipse fill="#87cefa" stroke="#000000" cx="18.383" cy="-18.383" rx="18.2668" ry="18.2668"/>
<text text-anchor="middle" x="18.383" y="-15.683" font-family="Times,serif" font-size="9.00" fill="#000000">E0</text>
</g>
<!-- 1&#45;&gt;E0 -->
<g id="edge13" class="edge">
<title>1&#45;&gt;E0</title>
<path fill="none" stroke="#ff0000" stroke-width=".118" d="M85.1543,-156.5961C74.6662,-134.8862 47.1333,-77.8945 30.8851,-44.2616"/>
<polygon fill="#ff0000" stroke="#ff0000" stroke-width=".118" points="33.9321,-42.5227 26.4305,-35.0409 27.6291,-45.5677 33.9321,-42.5227"/>
</g>
<!-- 1&#45;&gt;E1 -->
<g id="edge14" class="edge">
<title>1&#45;&gt;E1</title>
<path fill="none" stroke="#00ff00" stroke-width=".1336" d="M88.4301,-156.5961C86.1294,-135.4629 80.1889,-80.8974 76.4975,-46.9901"/>
<polygon fill="#00ff00" stroke="#00ff00" stroke-width=".1336" points="79.9472,-46.3381 75.3854,-36.7757 72.9884,-47.0958 79.9472,-46.3381"/>
</g>
<!-- E5 -->
<g id="node9" class="node">
<title>E5</title>
<ellipse fill="#ffa07a" stroke="#000000" cx="293.383" cy="-18.383" rx="18.2668" ry="18.2668"/>
<text text-anchor="middle" x="293.383" y="-15.683" font-family="Times,serif" font-size="9.00" fill="#000000">E5</text>
</g>
<!-- 1&#45;&gt;E5 -->
<g id="edge11" class="edge">
<title>1&#45;&gt;E5</title>
<path fill="none" stroke="#00ff00" stroke-width="2.9903" d="M99.4419,-160.3981C114.7822,-152.6909 144.7347,-137.0219 168.383,-120.8494 189.0256,-106.7324 241.5201,-62.6003 271.5051,-37.0933"/>
<polygon fill="#00ff00" stroke="#00ff00" stroke-width="2.9903" points="273.9792,-39.5834 279.3203,-30.4333 269.4389,-34.2555 273.9792,-39.5834"/>
</g>
<!-- E3 -->
<g id="node7" class="node">
<title>E3</title>
<ellipse fill="#87cefa" stroke="#000000" cx="183.383" cy="-18.383" rx="18.2668" ry="18.2668"/>
<text text-anchor="middle" x="183.383" y="-15.683" font-family="Times,serif" font-size="9.00" fill="#000000">E3</text>
</g>
<!-- 2&#45;&gt;E3 -->
<g id="edge19" class="edge">
<title>2&#45;&gt;E3</title>
<path fill="none" stroke="#00ff00" stroke-width=".2316" d="M180.5617,-156.5961C180.9931,-135.4629 182.107,-80.8974 182.7991,-46.9901"/>
<polygon fill="#00ff00" stroke="#00ff00" stroke-width=".2316" points="186.3027,-46.8451 183.0076,-36.7757 179.3042,-46.7022 186.3027,-46.8451"/>
</g>
<!-- E6 -->
<g id="node10" class="node">
<title>E6</title>
<ellipse fill="#eee8aa" stroke="#000000" cx="348.383" cy="-18.383" rx="18.2668" ry="18.2668"/>
<text text-anchor="middle" x="348.383" y="-15.683" font-family="Times,serif" font-size="9.00" fill="#000000">E6</text>
</g>
<!-- 2&#45;&gt;E6 -->
<g id="edge18" class="edge">
<title>2&#45;&gt;E6</title>
<path fill="none" stroke="#ff0000" stroke-width=".119" d="M190.3891,-156.5961C216.9208,-133.3862 289.5493,-69.8508 326.3653,-37.6442"/>
<polygon fill="#ff0000" stroke="#ff0000" stroke-width=".119" points="328.8465,-40.1239 334.0685,-30.9054 324.2375,-34.8553 328.8465,-40.1239"/>
</g>
<!-- 5340 -->
<g id="node13" class="node">
<title>5340</title>
<ellipse fill="#add8e6" stroke="#000000" cx="135.383" cy="-96.8077" rx="24.0833" ry="24.0833"/>
<text text-anchor="middle" x="135.383" y="-98.6077" font-family="Times,serif" font-size="9.00" fill="#000000">5340</text>
<text text-anchor="middle" x="135.383" y="-89.6077" font-family="Times,serif" font-size="9.00" fill="#000000">sigm</text>
</g>
<!-- 2&#45;&gt;5340 -->
<g id="edge16" class="edge">
<title>2&#45;&gt;5340</title>
<path fill="none" stroke="#00ff00" stroke-width=".2161" d="M174.6838,-156.6685C169.5705,-148.8803 161.7678,-136.9956 154.4587,-125.8628"/>
<polygon fill="#00ff00" stroke="#00ff00" stroke-width=".2161" points="157.1777,-123.6269 148.7636,-117.1884 151.3261,-127.4686 157.1777,-123.6269"/>
</g>
<!-- E0&#45;&gt;E1 -->
<!-- E2 -->
<g id="node6" class="node">
<title>E2</title>
<ellipse fill="#87cefa" stroke="#000000" cx="128.383" cy="-18.383" rx="18.2668" ry="18.2668"/>
<text text-anchor="middle" x="128.383" y="-15.683" font-family="Times,serif" font-size="9.00" fill="#000000">E2</text>
</g>
<!-- E1&#45;&gt;E2 -->
<!-- E2&#45;&gt;E3 -->
<!-- E4 -->
<g id="node8" class="node">
<title>E4</title>
<ellipse fill="#87cefa" stroke="#000000" cx="238.383" cy="-18.383" rx="18.2668" ry="18.2668"/>
<text text-anchor="middle" x="238.383" y="-15.683" font-family="Times,serif" font-size="9.00" fill="#000000">E4</text>
</g>
<!-- E3&#45;&gt;E4 -->
<!-- E4&#45;&gt;E5 -->
<!-- E5&#45;&gt;E6 -->
<!-- E7 -->
<g id="node11" class="node">
<title>E7</title>
<ellipse fill="#eee8aa" stroke="#000000" cx="403.383" cy="-18.383" rx="18.2668" ry="18.2668"/>
<text text-anchor="middle" x="403.383" y="-15.683" font-family="Times,serif" font-size="9.00" fill="#000000">E7</text>
</g>
<!-- E6&#45;&gt;E7 -->
<!-- E7&#45;&gt;E8 -->
<!-- 5340&#45;&gt;E2 -->
<g id="edge17" class="edge">
<title>5340&#45;&gt;E2</title>
<path fill="none" stroke="#ff0000" stroke-width=".193" d="M133.2448,-72.8516C132.5211,-64.7434 131.7053,-55.6042 130.9517,-47.161"/>
<polygon fill="#ff0000" stroke="#ff0000" stroke-width=".193" points="134.4172,-46.6178 130.042,-36.9686 127.4449,-47.2402 134.4172,-46.6178"/>
</g>
</g>
</svg>
