<?xml version="1.0" encoding="utf-8" standalone="no"?>
<!DOCTYPE svg PUBLIC "-//W3C//DTD SVG 1.1//EN"
  "http://www.w3.org/Graphics/SVG/1.1/DTD/svg11.dtd">
<!-- Created with matplotlib (https://matplotlib.org/) -->
<svg height="345.6pt" version="1.1" viewBox="0 0 460.8 345.6" width="460.8pt" xmlns="http://www.w3.org/2000/svg" xmlns:xlink="http://www.w3.org/1999/xlink">
 <defs>
  <style type="text/css">
*{stroke-linecap:butt;stroke-linejoin:round;}
  </style>
 </defs>
 <g id="figure_1">
  <g id="patch_1">
   <path d="M 0 345.6 
L 460.8 345.6 
L 460.8 0 
L 0 0 
z
" style="fill:#ffffff;"/>
  </g>
  <g id="axes_1">
   <g id="patch_2">
    <path d="M 57.6 157.17287 
L 414.72 157.17287 
L 414.72 41.472 
L 57.6 41.472 
z
" style="fill:#ffffff;"/>
   </g>
   <g id="matplotlib.axis_1">
    <g id="xtick_1">
     <g id="line2d_1">
      <path clip-path="url(#p4ba2d1c38f)" d="M 73.832727 157.17287 
L 73.832727 41.472 
" style="fill:none;stroke:#b0b0b0;stroke-linecap:square;stroke-width:0.8;"/>
     </g>
     <g id="line2d_2">
      <defs>
       <path d="M 0 0 
L 0 3.5 
" id="m9bdf870fdf" style="stroke:#000000;stroke-width:0.8;"/>
      </defs>
      <g>
       <use style="stroke:#000000;stroke-width:0.8;" x="73.832727" xlink:href="#m9bdf870fdf" y="157.17287"/>
      </g>
     </g>
    </g>
    <g id="xtick_2">
     <g id="line2d_3">
      <path clip-path="url(#p4ba2d1c38f)" d="M 128.122785 157.17287 
L 128.122785 41.472 
" style="fill:none;stroke:#b0b0b0;stroke-linecap:square;stroke-width:0.8;"/>
     </g>
     <g id="line2d_4">
      <g>
       <use style="stroke:#000000;stroke-width:0.8;" x="128.122785" xlink:href="#m9bdf870fdf" y="157.17287"/>
      </g>
     </g>
    </g>
    <g id="xtick_3">
     <g id="line2d_5">
      <path clip-path="url(#p4ba2d1c38f)" d="M 182.412843 157.17287 
L 182.412843 41.472 
" style="fill:none;stroke:#b0b0b0;stroke-linecap:square;stroke-width:0.8;"/>
     </g>
     <g id="line2d_6">
      <g>
       <use style="stroke:#000000;stroke-width:0.8;" x="182.412843" xlink:href="#m9bdf870fdf" y="157.17287"/>
      </g>
     </g>
    </g>
    <g id="xtick_4">
     <g id="line2d_7">
      <path clip-path="url(#p4ba2d1c38f)" d="M 236.702901 157.17287 
L 236.702901 41.472 
" style="fill:none;stroke:#b0b0b0;stroke-linecap:square;stroke-width:0.8;"/>
     </g>
     <g id="line2d_8">
      <g>
       <use style="stroke:#000000;stroke-width:0.8;" x="236.702901" xlink:href="#m9bdf870fdf" y="157.17287"/>
      </g>
     </g>
    </g>
    <g id="xtick_5">
     <g id="line2d_9">
      <path clip-path="url(#p4ba2d1c38f)" d="M 290.992958 157.17287 
L 290.992958 41.472 
" style="fill:none;stroke:#b0b0b0;stroke-linecap:square;stroke-width:0.8;"/>
     </g>
     <g id="line2d_10">
      <g>
       <use style="stroke:#000000;stroke-width:0.8;" x="290.992958" xlink:href="#m9bdf870fdf" y="157.17287"/>
      </g>
     </g>
    </g>
    <g id="xtick_6">
     <g id="line2d_11">
      <path clip-path="url(#p4ba2d1c38f)" d="M 345.283016 157.17287 
L 345.283016 41.472 
" style="fill:none;stroke:#b0b0b0;stroke-linecap:square;stroke-width:0.8;"/>
     </g>
     <g id="line2d_12">
      <g>
       <use style="stroke:#000000;stroke-width:0.8;" x="345.283016" xlink:href="#m9bdf870fdf" y="157.17287"/>
      </g>
     </g>
    </g>
    <g id="xtick_7">
     <g id="line2d_13">
      <path clip-path="url(#p4ba2d1c38f)" d="M 399.573074 157.17287 
L 399.573074 41.472 
" style="fill:none;stroke:#b0b0b0;stroke-linecap:square;stroke-width:0.8;"/>
     </g>
     <g id="line2d_14">
      <g>
       <use style="stroke:#000000;stroke-width:0.8;" x="399.573074" xlink:href="#m9bdf870fdf" y="157.17287"/>
      </g>
     </g>
    </g>
   </g>
   <g id="matplotlib.axis_2">
    <g id="ytick_1">
     <g id="line2d_15">
      <path clip-path="url(#p4ba2d1c38f)" d="M 57.6 151.998851 
L 414.72 151.998851 
" style="fill:none;stroke:#b0b0b0;stroke-linecap:square;stroke-width:0.8;"/>
     </g>
     <g id="line2d_16">
      <defs>
       <path d="M 0 0 
L -3.5 0 
" id="mb618bef938" style="stroke:#000000;stroke-width:0.8;"/>
      </defs>
      <g>
       <use style="stroke:#000000;stroke-width:0.8;" x="57.6" xlink:href="#mb618bef938" y="151.998851"/>
      </g>
     </g>
     <g id="text_1">
      <!-- 0 -->
      <defs>
       <path d="M 31.78125 66.40625 
Q 24.171875 66.40625 20.328125 58.90625 
Q 16.5 51.421875 16.5 36.375 
Q 16.5 21.390625 20.328125 13.890625 
Q 24.171875 6.390625 31.78125 6.390625 
Q 39.453125 6.390625 43.28125 13.890625 
Q 47.125 21.390625 47.125 36.375 
Q 47.125 51.421875 43.28125 58.90625 
Q 39.453125 66.40625 31.78125 66.40625 
z
M 31.78125 74.21875 
Q 44.046875 74.21875 50.515625 64.515625 
Q 56.984375 54.828125 56.984375 36.375 
Q 56.984375 17.96875 50.515625 8.265625 
Q 44.046875 -1.421875 31.78125 -1.421875 
Q 19.53125 -1.421875 13.0625 8.265625 
Q 6.59375 17.96875 6.59375 36.375 
Q 6.59375 54.828125 13.0625 64.515625 
Q 19.53125 74.21875 31.78125 74.21875 
z
" id="DejaVuSans-48"/>
      </defs>
      <g transform="translate(44.2375 155.79807)scale(0.1 -0.1)">
       <use xlink:href="#DejaVuSans-48"/>
      </g>
     </g>
    </g>
    <g id="ytick_2">
     <g id="line2d_17">
      <path clip-path="url(#p4ba2d1c38f)" d="M 57.6 119.238426 
L 414.72 119.238426 
" style="fill:none;stroke:#b0b0b0;stroke-linecap:square;stroke-width:0.8;"/>
     </g>
     <g id="line2d_18">
      <g>
       <use style="stroke:#000000;stroke-width:0.8;" x="57.6" xlink:href="#mb618bef938" y="119.238426"/>
      </g>
     </g>
     <g id="text_2">
      <!-- 500 -->
      <defs>
       <path d="M 10.796875 72.90625 
L 49.515625 72.90625 
L 49.515625 64.59375 
L 19.828125 64.59375 
L 19.828125 46.734375 
Q 21.96875 47.46875 24.109375 47.828125 
Q 26.265625 48.1875 28.421875 48.1875 
Q 40.625 48.1875 47.75 41.5 
Q 54.890625 34.8125 54.890625 23.390625 
Q 54.890625 11.625 47.5625 5.09375 
Q 40.234375 -1.421875 26.90625 -1.421875 
Q 22.3125 -1.421875 17.546875 -0.640625 
Q 12.796875 0.140625 7.71875 1.703125 
L 7.71875 11.625 
Q 12.109375 9.234375 16.796875 8.0625 
Q 21.484375 6.890625 26.703125 6.890625 
Q 35.15625 6.890625 40.078125 11.328125 
Q 45.015625 15.765625 45.015625 23.390625 
Q 45.015625 31 40.078125 35.4375 
Q 35.15625 39.890625 26.703125 39.890625 
Q 22.75 39.890625 18.8125 39.015625 
Q 14.890625 38.140625 10.796875 36.28125 
z
" id="DejaVuSans-53"/>
      </defs>
      <g transform="translate(31.5125 123.037645)scale(0.1 -0.1)">
       <use xlink:href="#DejaVuSans-53"/>
       <use x="63.623047" xlink:href="#DejaVuSans-48"/>
       <use x="127.246094" xlink:href="#DejaVuSans-48"/>
      </g>
     </g>
    </g>
    <g id="ytick_3">
     <g id="line2d_19">
      <path clip-path="url(#p4ba2d1c38f)" d="M 57.6 86.478002 
L 414.72 86.478002 
" style="fill:none;stroke:#b0b0b0;stroke-linecap:square;stroke-width:0.8;"/>
     </g>
     <g id="line2d_20">
      <g>
       <use style="stroke:#000000;stroke-width:0.8;" x="57.6" xlink:href="#mb618bef938" y="86.478002"/>
      </g>
     </g>
     <g id="text_3">
      <!-- 1000 -->
      <defs>
       <path d="M 12.40625 8.296875 
L 28.515625 8.296875 
L 28.515625 63.921875 
L 10.984375 60.40625 
L 10.984375 69.390625 
L 28.421875 72.90625 
L 38.28125 72.90625 
L 38.28125 8.296875 
L 54.390625 8.296875 
L 54.390625 0 
L 12.40625 0 
z
" id="DejaVuSans-49"/>
      </defs>
      <g transform="translate(25.15 90.27722)scale(0.1 -0.1)">
       <use xlink:href="#DejaVuSans-49"/>
       <use x="63.623047" xlink:href="#DejaVuSans-48"/>
       <use x="127.246094" xlink:href="#DejaVuSans-48"/>
       <use x="190.869141" xlink:href="#DejaVuSans-48"/>
      </g>
     </g>
    </g>
    <g id="ytick_4">
     <g id="line2d_21">
      <path clip-path="url(#p4ba2d1c38f)" d="M 57.6 53.717577 
L 414.72 53.717577 
" style="fill:none;stroke:#b0b0b0;stroke-linecap:square;stroke-width:0.8;"/>
     </g>
     <g id="line2d_22">
      <g>
       <use style="stroke:#000000;stroke-width:0.8;" x="57.6" xlink:href="#mb618bef938" y="53.717577"/>
      </g>
     </g>
     <g id="text_4">
      <!-- 1500 -->
      <g transform="translate(25.15 57.516796)scale(0.1 -0.1)">
       <use xlink:href="#DejaVuSans-49"/>
       <use x="63.623047" xlink:href="#DejaVuSans-53"/>
       <use x="127.246094" xlink:href="#DejaVuSans-48"/>
       <use x="190.869141" xlink:href="#DejaVuSans-48"/>
      </g>
     </g>
    </g>
    <g id="text_5">
     <!-- CH Score -->
     <defs>
      <path d="M 64.40625 67.28125 
L 64.40625 56.890625 
Q 59.421875 61.53125 53.78125 63.8125 
Q 48.140625 66.109375 41.796875 66.109375 
Q 29.296875 66.109375 22.65625 58.46875 
Q 16.015625 50.828125 16.015625 36.375 
Q 16.015625 21.96875 22.65625 14.328125 
Q 29.296875 6.6875 41.796875 6.6875 
Q 48.140625 6.6875 53.78125 8.984375 
Q 59.421875 11.28125 64.40625 15.921875 
L 64.40625 5.609375 
Q 59.234375 2.09375 53.4375 0.328125 
Q 47.65625 -1.421875 41.21875 -1.421875 
Q 24.65625 -1.421875 15.125 8.703125 
Q 5.609375 18.84375 5.609375 36.375 
Q 5.609375 53.953125 15.125 64.078125 
Q 24.65625 74.21875 41.21875 74.21875 
Q 47.75 74.21875 53.53125 72.484375 
Q 59.328125 70.75 64.40625 67.28125 
z
" id="DejaVuSans-67"/>
      <path d="M 9.8125 72.90625 
L 19.671875 72.90625 
L 19.671875 43.015625 
L 55.515625 43.015625 
L 55.515625 72.90625 
L 65.375 72.90625 
L 65.375 0 
L 55.515625 0 
L 55.515625 34.71875 
L 19.671875 34.71875 
L 19.671875 0 
L 9.8125 0 
z
" id="DejaVuSans-72"/>
      <path id="DejaVuSans-32"/>
      <path d="M 53.515625 70.515625 
L 53.515625 60.890625 
Q 47.90625 63.578125 42.921875 64.890625 
Q 37.9375 66.21875 33.296875 66.21875 
Q 25.25 66.21875 20.875 63.09375 
Q 16.5 59.96875 16.5 54.203125 
Q 16.5 49.359375 19.40625 46.890625 
Q 22.3125 44.4375 30.421875 42.921875 
L 36.375 41.703125 
Q 47.40625 39.59375 52.65625 34.296875 
Q 57.90625 29 57.90625 20.125 
Q 57.90625 9.515625 50.796875 4.046875 
Q 43.703125 -1.421875 29.984375 -1.421875 
Q 24.8125 -1.421875 18.96875 -0.25 
Q 13.140625 0.921875 6.890625 3.21875 
L 6.890625 13.375 
Q 12.890625 10.015625 18.65625 8.296875 
Q 24.421875 6.59375 29.984375 6.59375 
Q 38.421875 6.59375 43.015625 9.90625 
Q 47.609375 13.234375 47.609375 19.390625 
Q 47.609375 24.75 44.3125 27.78125 
Q 41.015625 30.8125 33.5 32.328125 
L 27.484375 33.5 
Q 16.453125 35.6875 11.515625 40.375 
Q 6.59375 45.0625 6.59375 53.421875 
Q 6.59375 63.09375 13.40625 68.65625 
Q 20.21875 74.21875 32.171875 74.21875 
Q 37.3125 74.21875 42.625 73.28125 
Q 47.953125 72.359375 53.515625 70.515625 
z
" id="DejaVuSans-83"/>
      <path d="M 48.78125 52.59375 
L 48.78125 44.1875 
Q 44.96875 46.296875 41.140625 47.34375 
Q 37.3125 48.390625 33.40625 48.390625 
Q 24.65625 48.390625 19.8125 42.84375 
Q 14.984375 37.3125 14.984375 27.296875 
Q 14.984375 17.28125 19.8125 11.734375 
Q 24.65625 6.203125 33.40625 6.203125 
Q 37.3125 6.203125 41.140625 7.25 
Q 44.96875 8.296875 48.78125 10.40625 
L 48.78125 2.09375 
Q 45.015625 0.34375 40.984375 -0.53125 
Q 36.96875 -1.421875 32.421875 -1.421875 
Q 20.0625 -1.421875 12.78125 6.34375 
Q 5.515625 14.109375 5.515625 27.296875 
Q 5.515625 40.671875 12.859375 48.328125 
Q 20.21875 56 33.015625 56 
Q 37.15625 56 41.109375 55.140625 
Q 45.0625 54.296875 48.78125 52.59375 
z
" id="DejaVuSans-99"/>
      <path d="M 30.609375 48.390625 
Q 23.390625 48.390625 19.1875 42.75 
Q 14.984375 37.109375 14.984375 27.296875 
Q 14.984375 17.484375 19.15625 11.84375 
Q 23.34375 6.203125 30.609375 6.203125 
Q 37.796875 6.203125 41.984375 11.859375 
Q 46.1875 17.53125 46.1875 27.296875 
Q 46.1875 37.015625 41.984375 42.703125 
Q 37.796875 48.390625 30.609375 48.390625 
z
M 30.609375 56 
Q 42.328125 56 49.015625 48.375 
Q 55.71875 40.765625 55.71875 27.296875 
Q 55.71875 13.875 49.015625 6.21875 
Q 42.328125 -1.421875 30.609375 -1.421875 
Q 18.84375 -1.421875 12.171875 6.21875 
Q 5.515625 13.875 5.515625 27.296875 
Q 5.515625 40.765625 12.171875 48.375 
Q 18.84375 56 30.609375 56 
z
" id="DejaVuSans-111"/>
      <path d="M 41.109375 46.296875 
Q 39.59375 47.171875 37.8125 47.578125 
Q 36.03125 48 33.890625 48 
Q 26.265625 48 22.1875 43.046875 
Q 18.109375 38.09375 18.109375 28.8125 
L 18.109375 0 
L 9.078125 0 
L 9.078125 54.6875 
L 18.109375 54.6875 
L 18.109375 46.1875 
Q 20.953125 51.171875 25.484375 53.578125 
Q 30.03125 56 36.53125 56 
Q 37.453125 56 38.578125 55.875 
Q 39.703125 55.765625 41.0625 55.515625 
z
" id="DejaVuSans-114"/>
      <path d="M 56.203125 29.59375 
L 56.203125 25.203125 
L 14.890625 25.203125 
Q 15.484375 15.921875 20.484375 11.0625 
Q 25.484375 6.203125 34.421875 6.203125 
Q 39.59375 6.203125 44.453125 7.46875 
Q 49.3125 8.734375 54.109375 11.28125 
L 54.109375 2.78125 
Q 49.265625 0.734375 44.1875 -0.34375 
Q 39.109375 -1.421875 33.890625 -1.421875 
Q 20.796875 -1.421875 13.15625 6.1875 
Q 5.515625 13.8125 5.515625 26.8125 
Q 5.515625 40.234375 12.765625 48.109375 
Q 20.015625 56 32.328125 56 
Q 43.359375 56 49.78125 48.890625 
Q 56.203125 41.796875 56.203125 29.59375 
z
M 47.21875 32.234375 
Q 47.125 39.59375 43.09375 43.984375 
Q 39.0625 48.390625 32.421875 48.390625 
Q 24.90625 48.390625 20.390625 44.140625 
Q 15.875 39.890625 15.1875 32.171875 
z
" id="DejaVuSans-101"/>
     </defs>
     <g transform="translate(19.070312 122.276341)rotate(-90)scale(0.1 -0.1)">
      <use xlink:href="#DejaVuSans-67"/>
      <use x="69.824219" xlink:href="#DejaVuSans-72"/>
      <use x="145.019531" xlink:href="#DejaVuSans-32"/>
      <use x="176.806641" xlink:href="#DejaVuSans-83"/>
      <use x="240.283203" xlink:href="#DejaVuSans-99"/>
      <use x="295.263672" xlink:href="#DejaVuSans-111"/>
      <use x="356.445312" xlink:href="#DejaVuSans-114"/>
      <use x="397.527344" xlink:href="#DejaVuSans-101"/>
     </g>
    </g>
   </g>
   <g id="line2d_23">
    <path clip-path="url(#p4ba2d1c38f)" d="M 73.832727 151.913739 
L 76.00433 151.833211 
L 78.175932 151.810093 
L 79.261733 151.58567 
L 80.347534 151.549811 
L 81.433335 151.326256 
L 83.604938 151.240797 
L 84.690739 151.566884 
L 85.77654 151.321978 
L 90.119745 151.434083 
L 92.291347 151.432521 
L 93.377148 151.531426 
L 94.462949 151.480168 
L 96.634552 150.598135 
L 97.720353 149.452185 
L 98.806154 150.796636 
L 99.891955 150.370898 
L 100.977756 151.291641 
L 102.063557 149.979245 
L 103.149358 151.094105 
L 104.23516 150.613981 
L 106.406762 151.131517 
L 107.492563 151.07078 
L 108.578364 151.597233 
L 109.664165 151.311541 
L 110.749967 151.443554 
L 111.835768 150.812437 
L 112.921569 150.764732 
L 115.093171 151.221513 
L 118.350575 150.71216 
L 119.436376 150.898539 
L 120.522177 151.229663 
L 121.607978 151.150604 
L 123.77958 151.379072 
L 125.951183 151.320468 
L 127.036984 151.620762 
L 130.294387 151.067288 
L 131.380189 151.158784 
L 132.46599 150.895363 
L 133.551791 151.289966 
L 134.637592 151.089369 
L 135.723393 151.180944 
L 136.809194 150.748786 
L 138.980797 151.438505 
L 140.066598 151.316925 
L 141.152399 151.534619 
L 144.409802 151.35311 
L 145.495604 151.328625 
L 146.581405 151.119264 
L 147.667206 151.451502 
L 148.753007 151.092164 
L 149.838808 151.366796 
L 150.924609 151.018125 
L 152.01041 151.543886 
L 153.096212 151.381439 
L 154.182013 151.43651 
L 155.267814 151.158726 
L 156.353615 151.170839 
L 157.439416 150.943421 
L 158.525217 151.239944 
L 159.611019 151.052779 
L 161.782621 151.188898 
L 162.868422 150.854167 
L 163.954223 151.022664 
L 165.040024 150.612712 
L 166.125825 150.831784 
L 167.211627 150.642972 
L 168.297428 151.028758 
L 169.383229 150.793111 
L 170.46903 150.72015 
L 171.554831 150.967368 
L 172.640632 150.662307 
L 173.726434 150.784254 
L 174.812235 150.633616 
L 175.898036 151.044247 
L 176.983837 150.581188 
L 178.069638 150.82688 
L 180.24124 150.857565 
L 181.327042 150.71582 
L 182.412843 151.16746 
L 183.498644 151.083506 
L 184.584445 150.723649 
L 185.670246 150.763827 
L 186.756047 151.002917 
L 187.841849 151.057385 
L 188.92765 150.918769 
L 190.013451 151.129009 
L 192.185053 150.792799 
L 193.270854 150.387815 
L 194.356656 150.671664 
L 195.442457 150.567243 
L 197.614059 150.068292 
L 198.69986 149.888511 
L 199.785661 150.112087 
L 200.871462 150.562932 
L 201.957264 150.496826 
L 204.128866 150.87947 
L 205.214667 150.899886 
L 206.300468 150.507021 
L 207.386269 150.377797 
L 208.472071 150.06719 
L 209.557872 150.507441 
L 210.643673 150.167815 
L 212.815275 150.206027 
L 213.901076 148.938626 
L 214.986877 149.169987 
L 216.072679 148.807511 
L 217.15848 149.569662 
L 218.244281 149.624876 
L 220.415883 150.084357 
L 221.501684 149.961822 
L 222.587486 149.668587 
L 223.673287 149.759874 
L 224.759088 149.621907 
L 225.844889 148.216915 
L 228.016491 149.877915 
L 229.102292 149.36257 
L 230.188094 148.320897 
L 231.273895 149.140653 
L 232.359696 149.679552 
L 233.445497 149.2473 
L 234.531298 148.27048 
L 235.617099 150.119641 
L 236.702901 149.325032 
L 237.788702 149.473514 
L 238.874503 149.28034 
L 239.960304 148.636389 
L 241.046105 149.597833 
L 242.131906 149.238781 
L 243.217708 149.166246 
L 244.303509 148.70295 
L 245.38931 148.852495 
L 246.475111 150.219915 
L 247.560912 150.086341 
L 248.646713 149.631473 
L 249.732514 150.117589 
L 250.818316 150.779517 
L 251.904117 150.307977 
L 252.989918 150.825776 
L 254.075719 150.29431 
L 255.16152 150.015572 
L 257.333123 150.077827 
L 258.418924 148.736414 
L 259.504725 150.150837 
L 261.676327 149.517089 
L 262.762128 150.209661 
L 266.019532 150.326993 
L 267.105333 149.184973 
L 268.191134 149.296429 
L 269.276935 149.1349 
L 270.362736 148.079094 
L 271.448538 148.775599 
L 272.534339 148.629557 
L 273.62014 149.273761 
L 274.705941 148.555606 
L 275.791742 148.892229 
L 276.877543 149.35713 
L 277.963344 149.426868 
L 279.049146 149.385185 
L 280.134947 149.753615 
L 281.220748 148.679725 
L 282.306549 149.759726 
L 283.39235 150.054848 
L 284.478151 149.492711 
L 285.563953 149.751003 
L 286.649754 148.938545 
L 287.735555 149.231398 
L 288.821356 148.962692 
L 289.907157 148.443884 
L 290.992958 148.644436 
L 292.07876 149.623364 
L 293.164561 149.456701 
L 294.250362 148.653904 
L 295.336163 149.764005 
L 296.421964 149.189705 
L 297.507765 148.905438 
L 298.593566 148.316135 
L 299.679368 148.809419 
L 300.765169 148.615393 
L 301.85097 149.48559 
L 302.936771 148.811014 
L 304.022572 148.620384 
L 305.108373 149.095067 
L 306.194175 149.703234 
L 307.279976 149.718053 
L 308.365777 149.413103 
L 309.451578 149.236739 
L 310.537379 148.691094 
L 311.62318 149.355773 
L 312.708981 148.274212 
L 313.794783 148.467272 
L 314.880584 149.603184 
L 315.966385 149.946837 
L 317.052186 148.698806 
L 318.137987 148.931529 
L 319.223788 149.959554 
L 320.30959 149.880924 
L 321.395391 149.180482 
L 322.481192 148.862654 
L 323.566993 150.091835 
L 324.652794 150.067829 
L 325.738595 150.231789 
L 326.824396 150.124866 
L 327.910198 150.603018 
L 328.995999 150.585517 
L 330.0818 149.179939 
L 331.167601 149.011194 
L 332.253402 150.347503 
L 333.339203 150.149061 
L 334.425005 149.6468 
L 335.510806 150.514903 
L 336.596607 149.639826 
L 337.682408 148.988209 
L 338.768209 149.622888 
L 339.85401 149.856851 
L 340.939811 150.352184 
L 342.025613 150.064752 
L 343.111414 149.997719 
L 344.197215 149.73709 
L 345.283016 151.295439 
L 346.368817 151.253649 
L 347.454618 149.801987 
L 348.54042 149.111824 
L 349.626221 148.998985 
L 351.797823 150.004017 
L 352.883624 148.83864 
L 353.969425 149.986617 
L 355.055227 149.359512 
L 356.141028 149.551495 
L 357.226829 148.838068 
L 358.31263 149.413641 
L 359.398431 150.363644 
L 360.484232 150.35114 
L 361.570033 149.489517 
L 362.655835 150.646394 
L 363.741636 150.308793 
L 364.827437 148.938933 
L 365.913238 150.242722 
L 368.08484 150.869118 
L 371.342244 150.501293 
L 372.428045 151.108475 
L 373.513846 150.405495 
L 374.599647 150.571885 
L 375.685448 150.292144 
L 376.77125 149.83541 
L 377.857051 150.474424 
L 378.942852 150.72512 
L 380.028653 150.361839 
L 381.114454 151.180488 
L 382.200255 151.059131 
L 383.286057 150.688722 
L 384.371858 150.122094 
L 385.457659 149.817245 
L 386.54346 150.14695 
L 387.629261 151.111671 
L 388.715062 149.953925 
L 389.800863 150.110036 
L 390.886665 150.146842 
L 393.058267 150.536066 
L 394.144068 150.015479 
L 395.229869 149.69692 
L 396.31567 149.656217 
L 397.401472 149.188025 
L 398.487273 150.429185 
L 398.487273 150.429185 
" style="fill:none;stroke:#0000ff;stroke-linecap:square;stroke-width:1.5;"/>
   </g>
   <g id="line2d_24">
    <path clip-path="url(#p4ba2d1c38f)" d="M 73.832727 151.901227 
L 77.090131 151.806116 
L 79.261733 151.233061 
L 80.347534 151.319056 
L 81.433335 151.269557 
L 82.519137 151.470966 
L 83.604938 151.405983 
L 85.77654 150.954804 
L 86.862341 150.339888 
L 87.948142 150.777021 
L 89.033943 150.559953 
L 90.119745 150.680658 
L 91.205546 150.566999 
L 92.291347 150.899348 
L 93.377148 150.303084 
L 94.462949 150.955509 
L 95.54875 150.404857 
L 96.634552 150.680492 
L 97.720353 150.738421 
L 98.806154 149.773631 
L 99.891955 149.615255 
L 100.977756 149.091865 
L 102.063557 146.488953 
L 103.149358 148.345324 
L 104.23516 147.285914 
L 105.320961 146.914996 
L 106.406762 148.268889 
L 107.492563 148.766155 
L 108.578364 150.010995 
L 109.664165 149.669045 
L 110.749967 149.208358 
L 111.835768 148.895583 
L 112.921569 148.902044 
L 114.00737 147.078132 
L 115.093171 149.028727 
L 116.178972 149.596409 
L 117.264773 149.90447 
L 118.350575 149.157047 
L 119.436376 147.718377 
L 120.522177 148.749586 
L 121.607978 146.962686 
L 122.693779 148.572444 
L 123.77958 147.863896 
L 124.865382 148.054056 
L 125.951183 147.973605 
L 127.036984 146.903762 
L 128.122785 146.912356 
L 129.208586 147.961839 
L 130.294387 148.508078 
L 131.380189 141.373333 
L 132.46599 145.968655 
L 133.551791 145.948814 
L 134.637592 144.27393 
L 135.723393 143.72466 
L 136.809194 144.049617 
L 137.894995 145.104958 
L 138.980797 143.268303 
L 140.066598 147.131365 
L 142.2382 143.393616 
L 143.324001 144.70165 
L 144.409802 144.408939 
L 145.495604 141.593841 
L 146.581405 147.122498 
L 147.667206 136.967633 
L 148.753007 145.53752 
L 149.838808 147.141077 
L 150.924609 140.304392 
L 152.01041 145.874645 
L 153.096212 146.000987 
L 154.182013 147.294645 
L 155.267814 148.819642 
L 156.353615 144.865529 
L 157.439416 148.943939 
L 158.525217 149.43504 
L 159.611019 148.205882 
L 160.69682 148.579984 
L 161.782621 146.418249 
L 162.868422 148.758546 
L 163.954223 147.146561 
L 165.040024 148.754011 
L 166.125825 148.738462 
L 167.211627 149.191734 
L 168.297428 149.48352 
L 169.383229 150.177028 
L 170.46903 148.788734 
L 171.554831 149.745212 
L 172.640632 149.745857 
L 173.726434 149.861408 
L 174.812235 149.639959 
L 175.898036 149.978824 
L 176.983837 151.286541 
L 178.069638 151.226505 
L 179.155439 150.743194 
L 180.24124 149.079266 
L 181.327042 149.252711 
L 182.412843 148.710659 
L 184.584445 146.889728 
L 185.670246 149.411658 
L 186.756047 148.269226 
L 187.841849 148.487496 
L 188.92765 146.74605 
L 190.013451 148.517417 
L 191.099252 148.360755 
L 192.185053 146.548925 
L 193.270854 149.473718 
L 195.442457 147.605069 
L 196.528258 148.783954 
L 197.614059 146.561865 
L 198.69986 148.439902 
L 200.871462 150.19921 
L 201.957264 148.429703 
L 203.043065 145.947117 
L 204.128866 144.795032 
L 205.214667 145.638592 
L 206.300468 147.940305 
L 207.386269 147.82124 
L 208.472071 145.138226 
L 209.557872 148.452988 
L 210.643673 146.603846 
L 211.729474 142.55959 
L 212.815275 145.66472 
L 213.901076 147.159321 
L 214.986877 141.20891 
L 216.072679 144.928453 
L 217.15848 147.773812 
L 218.244281 141.990367 
L 219.330082 145.132809 
L 220.415883 142.64428 
L 221.501684 139.644129 
L 222.587486 146.249688 
L 223.673287 147.797781 
L 224.759088 145.96819 
L 225.844889 138.079394 
L 226.93069 143.90791 
L 228.016491 145.787163 
L 229.102292 145.752404 
L 230.188094 144.398035 
L 231.273895 145.15968 
L 232.359696 145.335476 
L 233.445497 146.066399 
L 234.531298 140.855837 
L 235.617099 146.205288 
L 236.702901 146.399299 
L 237.788702 147.944177 
L 238.874503 147.111918 
L 241.046105 149.450609 
L 242.131906 145.257468 
L 243.217708 146.209873 
L 244.303509 147.978996 
L 245.38931 147.002052 
L 246.475111 146.427841 
L 247.560912 147.684538 
L 248.646713 147.679004 
L 249.732514 148.086882 
L 250.818316 149.399607 
L 251.904117 149.706552 
L 252.989918 148.429154 
L 254.075719 150.247084 
L 255.16152 148.767526 
L 256.247321 150.387732 
L 257.333123 150.465091 
L 258.418924 150.215064 
L 259.504725 150.184981 
L 260.590526 149.717898 
L 261.676327 150.037735 
L 263.847929 149.497012 
L 264.933731 150.419378 
L 267.105333 150.422554 
L 268.191134 149.5504 
L 269.276935 149.524274 
L 270.362736 149.866581 
L 271.448538 149.357029 
L 272.534339 149.178232 
L 273.62014 149.447624 
L 275.791742 148.685651 
L 276.877543 149.057987 
L 279.049146 148.945638 
L 280.134947 148.543077 
L 281.220748 149.177576 
L 282.306549 149.314122 
L 283.39235 149.707038 
L 284.478151 147.460589 
L 285.563953 147.788057 
L 286.649754 147.090857 
L 287.735555 148.451502 
L 288.821356 143.636175 
L 289.907157 144.547438 
L 290.992958 143.065262 
L 292.07876 148.072017 
L 293.164561 146.468763 
L 294.250362 147.830918 
L 295.336163 147.942131 
L 296.421964 148.720924 
L 297.507765 150.032541 
L 299.679368 149.453539 
L 300.765169 149.377345 
L 301.85097 150.665753 
L 302.936771 150.929411 
L 304.022572 150.072549 
L 305.108373 149.739377 
L 306.194175 148.922257 
L 307.279976 149.050452 
L 308.365777 147.666533 
L 309.451578 145.945468 
L 310.537379 146.50097 
L 311.62318 147.458208 
L 312.708981 146.739058 
L 313.794783 147.874002 
L 315.966385 148.455356 
L 317.052186 146.875287 
L 318.137987 148.176197 
L 319.223788 148.554335 
L 320.30959 147.759541 
L 321.395391 148.172177 
L 322.481192 147.843414 
L 323.566993 146.151251 
L 324.652794 146.976513 
L 325.738595 148.002143 
L 326.824396 145.51083 
L 327.910198 146.964957 
L 330.0818 145.15931 
L 331.167601 145.627393 
L 332.253402 146.221289 
L 333.339203 145.057297 
L 334.425005 147.995026 
L 335.510806 147.056774 
L 337.682408 143.454755 
L 338.768209 144.694967 
L 339.85401 144.086881 
L 340.939811 147.423468 
L 342.025613 147.121932 
L 343.111414 145.615488 
L 344.197215 145.06905 
L 345.283016 145.82332 
L 346.368817 143.424145 
L 347.454618 145.093569 
L 348.54042 141.694156 
L 349.626221 145.497823 
L 350.712022 142.427123 
L 351.797823 145.926095 
L 352.883624 146.169361 
L 353.969425 143.92129 
L 355.055227 139.384774 
L 356.141028 145.526121 
L 357.226829 142.874929 
L 358.31263 144.649392 
L 360.484232 146.674007 
L 361.570033 146.285818 
L 362.655835 144.518765 
L 363.741636 144.037343 
L 364.827437 137.334539 
L 365.913238 140.434869 
L 366.999039 137.460838 
L 369.170642 146.180376 
L 370.256443 142.121878 
L 371.342244 146.737931 
L 372.428045 145.283115 
L 373.513846 144.234693 
L 374.599647 143.357939 
L 375.685448 147.045505 
L 376.77125 147.266814 
L 377.857051 144.946198 
L 378.942852 147.686217 
L 380.028653 145.47677 
L 381.114454 144.716985 
L 382.200255 147.05933 
L 383.286057 143.431692 
L 384.371858 141.731682 
L 385.457659 147.445502 
L 386.54346 146.403009 
L 387.629261 145.030446 
L 388.715062 145.756467 
L 389.800863 143.203402 
L 390.886665 147.378866 
L 391.972466 144.534713 
L 393.058267 147.417096 
L 395.229869 144.753678 
L 396.31567 147.026171 
L 397.401472 147.337851 
L 398.487273 147.891039 
L 398.487273 147.891039 
" style="fill:none;stroke:#008000;stroke-linecap:square;stroke-width:1.5;"/>
   </g>
   <g id="line2d_25">
    <path clip-path="url(#p4ba2d1c38f)" d="M 73.832727 151.578671 
L 74.918528 145.844741 
L 76.00433 143.637011 
L 77.090131 144.506707 
L 78.175932 144.143773 
L 79.261733 141.415588 
L 80.347534 140.997477 
L 81.433335 141.484734 
L 82.519137 141.689332 
L 83.604938 145.258954 
L 84.690739 142.567579 
L 85.77654 142.941665 
L 86.862341 141.730124 
L 87.948142 130.440237 
L 89.033943 130.074707 
L 90.119745 134.950205 
L 91.205546 135.015965 
L 92.291347 134.151296 
L 93.377148 136.097363 
L 94.462949 140.025021 
L 95.54875 132.514408 
L 96.634552 135.845607 
L 97.720353 135.448157 
L 98.806154 135.290575 
L 100.977756 131.331623 
L 102.063557 122.080406 
L 103.149358 125.71811 
L 104.23516 131.553666 
L 105.320961 127.851602 
L 106.406762 128.199667 
L 107.492563 123.77074 
L 108.578364 121.943047 
L 109.664165 121.944869 
L 110.749967 117.920393 
L 111.835768 90.044501 
L 112.921569 107.32583 
L 114.00737 113.154981 
L 115.093171 112.548096 
L 116.178972 120.577866 
L 117.264773 124.358529 
L 118.350575 121.777597 
L 119.436376 117.353385 
L 120.522177 121.099665 
L 121.607978 113.069325 
L 122.693779 119.775679 
L 123.77958 116.745417 
L 124.865382 115.20559 
L 125.951183 106.070167 
L 127.036984 127.398796 
L 128.122785 127.075047 
L 129.208586 127.786748 
L 130.294387 119.44324 
L 131.380189 118.831216 
L 132.46599 130.19949 
L 133.551791 128.436656 
L 134.637592 123.125781 
L 135.723393 127.775417 
L 136.809194 128.563175 
L 137.894995 124.096464 
L 138.980797 127.605856 
L 140.066598 124.797008 
L 141.152399 127.953373 
L 142.2382 125.632816 
L 143.324001 128.308795 
L 144.409802 126.78182 
L 145.495604 124.48012 
L 146.581405 128.111267 
L 147.667206 124.66559 
L 148.753007 116.102829 
L 149.838808 128.398024 
L 150.924609 119.498576 
L 152.01041 126.075222 
L 153.096212 125.388574 
L 154.182013 122.349964 
L 155.267814 126.637637 
L 156.353615 122.269841 
L 157.439416 124.579513 
L 158.525217 131.783803 
L 159.611019 132.169476 
L 160.69682 130.762963 
L 161.782621 131.802111 
L 162.868422 129.514932 
L 163.954223 125.206892 
L 166.125825 128.681479 
L 167.211627 127.618427 
L 168.297428 133.510168 
L 169.383229 131.503122 
L 170.46903 125.345766 
L 171.554831 129.943702 
L 172.640632 131.381988 
L 173.726434 126.753795 
L 174.812235 126.54241 
L 175.898036 128.291036 
L 176.983837 118.857841 
L 178.069638 118.635031 
L 179.155439 112.474643 
L 180.24124 123.895005 
L 181.327042 120.5416 
L 182.412843 124.926531 
L 183.498644 118.537408 
L 184.584445 119.521899 
L 185.670246 125.580579 
L 186.756047 118.174847 
L 187.841849 118.093346 
L 188.92765 118.580021 
L 190.013451 117.89436 
L 191.099252 121.578392 
L 192.185053 117.211481 
L 193.270854 111.027221 
L 194.356656 122.058146 
L 195.442457 119.460867 
L 196.528258 122.192752 
L 197.614059 113.900377 
L 198.69986 118.867927 
L 199.785661 121.541335 
L 200.871462 115.347139 
L 201.957264 118.729189 
L 203.043065 116.431698 
L 204.128866 116.647171 
L 205.214667 115.699335 
L 206.300468 108.122892 
L 207.386269 114.898803 
L 208.472071 118.343663 
L 209.557872 112.041711 
L 210.643673 115.553434 
L 211.729474 112.813215 
L 212.815275 114.883388 
L 213.901076 114.029751 
L 214.986877 111.86316 
L 216.072679 115.123857 
L 217.15848 121.939017 
L 218.244281 120.095463 
L 219.330082 126.14232 
L 220.415883 121.376616 
L 221.501684 124.053353 
L 222.587486 122.008233 
L 223.673287 124.961983 
L 224.759088 122.848864 
L 225.844889 118.693777 
L 226.93069 119.845568 
L 228.016491 124.680484 
L 229.102292 123.933181 
L 230.188094 117.236548 
L 231.273895 118.316645 
L 232.359696 122.251934 
L 233.445497 124.057448 
L 234.531298 119.204395 
L 235.617099 119.920669 
L 236.702901 118.022622 
L 237.788702 123.28022 
L 238.874503 123.389538 
L 239.960304 125.172948 
L 241.046105 122.354516 
L 242.131906 117.58856 
L 243.217708 118.624346 
L 244.303509 121.78691 
L 245.38931 121.858387 
L 246.475111 129.219525 
L 247.560912 128.478161 
L 248.646713 129.05882 
L 249.732514 133.374597 
L 250.818316 129.900596 
L 251.904117 121.274631 
L 252.989918 127.063947 
L 254.075719 124.82584 
L 255.16152 124.688813 
L 256.247321 117.776347 
L 257.333123 116.16659 
L 258.418924 115.105529 
L 259.504725 122.499121 
L 260.590526 120.485621 
L 261.676327 116.836634 
L 262.762128 124.626729 
L 263.847929 128.480726 
L 264.933731 133.551081 
L 266.019532 131.284795 
L 267.105333 117.639143 
L 268.191134 119.199474 
L 269.276935 120.486429 
L 270.362736 122.087708 
L 271.448538 122.416151 
L 272.534339 126.410523 
L 273.62014 127.334371 
L 274.705941 122.624211 
L 275.791742 128.11802 
L 276.877543 124.930641 
L 277.963344 123.202946 
L 279.049146 126.362721 
L 280.134947 128.733113 
L 281.220748 128.059846 
L 282.306549 121.868322 
L 283.39235 124.678242 
L 284.478151 117.067441 
L 285.563953 122.148793 
L 286.649754 113.6731 
L 287.735555 120.590266 
L 288.821356 114.716508 
L 289.907157 114.395997 
L 290.992958 113.869592 
L 292.07876 116.116716 
L 293.164561 119.087724 
L 294.250362 117.199022 
L 295.336163 119.039508 
L 296.421964 121.16496 
L 297.507765 119.70777 
L 298.593566 111.638134 
L 299.679368 113.538432 
L 300.765169 117.866527 
L 301.85097 112.572872 
L 302.936771 110.106458 
L 304.022572 113.929777 
L 305.108373 112.539238 
L 306.194175 108.461807 
L 307.279976 112.105505 
L 308.365777 107.693625 
L 309.451578 110.197536 
L 310.537379 109.763439 
L 311.62318 108.734841 
L 312.708981 99.208305 
L 313.794783 91.211283 
L 314.880584 108.214872 
L 315.966385 112.334393 
L 317.052186 100.096263 
L 318.137987 93.806678 
L 319.223788 99.796747 
L 320.30959 112.112286 
L 321.395391 94.605669 
L 322.481192 80.936951 
L 323.566993 100.655141 
L 324.652794 87.566162 
L 325.738595 109.204799 
L 326.824396 105.741409 
L 327.910198 86.064674 
L 328.995999 103.129179 
L 330.0818 81.754438 
L 331.167601 86.57125 
L 332.253402 96.732317 
L 333.339203 93.683551 
L 334.425005 103.486543 
L 335.510806 105.327861 
L 336.596607 99.861215 
L 337.682408 101.331708 
L 338.768209 98.297791 
L 339.85401 94.883084 
L 340.939811 106.797426 
L 342.025613 86.836951 
L 343.111414 97.951388 
L 344.197215 94.384069 
L 345.283016 129.13885 
L 346.368817 121.421492 
L 347.454618 93.819795 
L 348.54042 76.471224 
L 349.626221 98.023943 
L 350.712022 99.547478 
L 351.797823 95.405534 
L 352.883624 77.211461 
L 353.969425 88.469366 
L 355.055227 95.350089 
L 356.141028 93.257381 
L 357.226829 91.585476 
L 358.31263 85.498302 
L 359.398431 110.094019 
L 360.484232 113.060168 
L 361.570033 89.980675 
L 362.655835 114.009956 
L 363.741636 100.18861 
L 364.827437 91.73055 
L 365.913238 105.656682 
L 366.999039 116.350483 
L 368.08484 115.696619 
L 369.170642 116.130446 
L 370.256443 109.91359 
L 371.342244 109.1595 
L 372.428045 111.707459 
L 373.513846 102.287557 
L 374.599647 101.277401 
L 375.685448 102.841184 
L 376.77125 107.550681 
L 377.857051 106.750713 
L 378.942852 107.812792 
L 380.028653 100.391313 
L 381.114454 128.014859 
L 382.200255 122.019284 
L 383.286057 113.688776 
L 384.371858 92.467268 
L 385.457659 94.587129 
L 386.54346 94.607611 
L 387.629261 123.821753 
L 388.715062 90.352833 
L 389.800863 84.104704 
L 390.886665 79.531935 
L 391.972466 86.184778 
L 393.058267 93.715992 
L 394.144068 82.370118 
L 395.229869 79.971074 
L 396.31567 46.73113 
L 397.401472 81.019353 
L 398.487273 93.2587 
L 398.487273 93.2587 
" style="fill:none;stroke:#ff0000;stroke-linecap:square;stroke-width:1.5;"/>
   </g>
   <g id="patch_3">
    <path d="M 57.6 157.17287 
L 57.6 41.472 
" style="fill:none;stroke:#000000;stroke-linecap:square;stroke-linejoin:miter;stroke-width:0.8;"/>
   </g>
   <g id="patch_4">
    <path d="M 414.72 157.17287 
L 414.72 41.472 
" style="fill:none;stroke:#000000;stroke-linecap:square;stroke-linejoin:miter;stroke-width:0.8;"/>
   </g>
   <g id="patch_5">
    <path d="M 57.6 157.17287 
L 414.72 157.17287 
" style="fill:none;stroke:#000000;stroke-linecap:square;stroke-linejoin:miter;stroke-width:0.8;"/>
   </g>
   <g id="patch_6">
    <path d="M 57.6 41.472 
L 414.72 41.472 
" style="fill:none;stroke:#000000;stroke-linecap:square;stroke-linejoin:miter;stroke-width:0.8;"/>
   </g>
  </g>
  <g id="axes_2">
   <g id="patch_7">
    <path d="M 57.6 307.584 
L 414.72 307.584 
L 414.72 191.88313 
L 57.6 191.88313 
z
" style="fill:#ffffff;"/>
   </g>
   <g id="matplotlib.axis_3">
    <g id="xtick_8">
     <g id="line2d_26">
      <path clip-path="url(#pcd08da4841)" d="M 73.832727 307.584 
L 73.832727 191.88313 
" style="fill:none;stroke:#b0b0b0;stroke-linecap:square;stroke-width:0.8;"/>
     </g>
     <g id="line2d_27">
      <g>
       <use style="stroke:#000000;stroke-width:0.8;" x="73.832727" xlink:href="#m9bdf870fdf" y="307.584"/>
      </g>
     </g>
     <g id="text_6">
      <!-- 0 -->
      <g transform="translate(70.651477 322.182437)scale(0.1 -0.1)">
       <use xlink:href="#DejaVuSans-48"/>
      </g>
     </g>
    </g>
    <g id="xtick_9">
     <g id="line2d_28">
      <path clip-path="url(#pcd08da4841)" d="M 128.122785 307.584 
L 128.122785 191.88313 
" style="fill:none;stroke:#b0b0b0;stroke-linecap:square;stroke-width:0.8;"/>
     </g>
     <g id="line2d_29">
      <g>
       <use style="stroke:#000000;stroke-width:0.8;" x="128.122785" xlink:href="#m9bdf870fdf" y="307.584"/>
      </g>
     </g>
     <g id="text_7">
      <!-- 50 -->
      <g transform="translate(121.760285 322.182437)scale(0.1 -0.1)">
       <use xlink:href="#DejaVuSans-53"/>
       <use x="63.623047" xlink:href="#DejaVuSans-48"/>
      </g>
     </g>
    </g>
    <g id="xtick_10">
     <g id="line2d_30">
      <path clip-path="url(#pcd08da4841)" d="M 182.412843 307.584 
L 182.412843 191.88313 
" style="fill:none;stroke:#b0b0b0;stroke-linecap:square;stroke-width:0.8;"/>
     </g>
     <g id="line2d_31">
      <g>
       <use style="stroke:#000000;stroke-width:0.8;" x="182.412843" xlink:href="#m9bdf870fdf" y="307.584"/>
      </g>
     </g>
     <g id="text_8">
      <!-- 100 -->
      <g transform="translate(172.869093 322.182437)scale(0.1 -0.1)">
       <use xlink:href="#DejaVuSans-49"/>
       <use x="63.623047" xlink:href="#DejaVuSans-48"/>
       <use x="127.246094" xlink:href="#DejaVuSans-48"/>
      </g>
     </g>
    </g>
    <g id="xtick_11">
     <g id="line2d_32">
      <path clip-path="url(#pcd08da4841)" d="M 236.702901 307.584 
L 236.702901 191.88313 
" style="fill:none;stroke:#b0b0b0;stroke-linecap:square;stroke-width:0.8;"/>
     </g>
     <g id="line2d_33">
      <g>
       <use style="stroke:#000000;stroke-width:0.8;" x="236.702901" xlink:href="#m9bdf870fdf" y="307.584"/>
      </g>
     </g>
     <g id="text_9">
      <!-- 150 -->
      <g transform="translate(227.159151 322.182437)scale(0.1 -0.1)">
       <use xlink:href="#DejaVuSans-49"/>
       <use x="63.623047" xlink:href="#DejaVuSans-53"/>
       <use x="127.246094" xlink:href="#DejaVuSans-48"/>
      </g>
     </g>
    </g>
    <g id="xtick_12">
     <g id="line2d_34">
      <path clip-path="url(#pcd08da4841)" d="M 290.992958 307.584 
L 290.992958 191.88313 
" style="fill:none;stroke:#b0b0b0;stroke-linecap:square;stroke-width:0.8;"/>
     </g>
     <g id="line2d_35">
      <g>
       <use style="stroke:#000000;stroke-width:0.8;" x="290.992958" xlink:href="#m9bdf870fdf" y="307.584"/>
      </g>
     </g>
     <g id="text_10">
      <!-- 200 -->
      <defs>
       <path d="M 19.1875 8.296875 
L 53.609375 8.296875 
L 53.609375 0 
L 7.328125 0 
L 7.328125 8.296875 
Q 12.9375 14.109375 22.625 23.890625 
Q 32.328125 33.6875 34.8125 36.53125 
Q 39.546875 41.84375 41.421875 45.53125 
Q 43.3125 49.21875 43.3125 52.78125 
Q 43.3125 58.59375 39.234375 62.25 
Q 35.15625 65.921875 28.609375 65.921875 
Q 23.96875 65.921875 18.8125 64.3125 
Q 13.671875 62.703125 7.8125 59.421875 
L 7.8125 69.390625 
Q 13.765625 71.78125 18.9375 73 
Q 24.125 74.21875 28.421875 74.21875 
Q 39.75 74.21875 46.484375 68.546875 
Q 53.21875 62.890625 53.21875 53.421875 
Q 53.21875 48.921875 51.53125 44.890625 
Q 49.859375 40.875 45.40625 35.40625 
Q 44.1875 33.984375 37.640625 27.21875 
Q 31.109375 20.453125 19.1875 8.296875 
z
" id="DejaVuSans-50"/>
      </defs>
      <g transform="translate(281.449208 322.182437)scale(0.1 -0.1)">
       <use xlink:href="#DejaVuSans-50"/>
       <use x="63.623047" xlink:href="#DejaVuSans-48"/>
       <use x="127.246094" xlink:href="#DejaVuSans-48"/>
      </g>
     </g>
    </g>
    <g id="xtick_13">
     <g id="line2d_36">
      <path clip-path="url(#pcd08da4841)" d="M 345.283016 307.584 
L 345.283016 191.88313 
" style="fill:none;stroke:#b0b0b0;stroke-linecap:square;stroke-width:0.8;"/>
     </g>
     <g id="line2d_37">
      <g>
       <use style="stroke:#000000;stroke-width:0.8;" x="345.283016" xlink:href="#m9bdf870fdf" y="307.584"/>
      </g>
     </g>
     <g id="text_11">
      <!-- 250 -->
      <g transform="translate(335.739266 322.182437)scale(0.1 -0.1)">
       <use xlink:href="#DejaVuSans-50"/>
       <use x="63.623047" xlink:href="#DejaVuSans-53"/>
       <use x="127.246094" xlink:href="#DejaVuSans-48"/>
      </g>
     </g>
    </g>
    <g id="xtick_14">
     <g id="line2d_38">
      <path clip-path="url(#pcd08da4841)" d="M 399.573074 307.584 
L 399.573074 191.88313 
" style="fill:none;stroke:#b0b0b0;stroke-linecap:square;stroke-width:0.8;"/>
     </g>
     <g id="line2d_39">
      <g>
       <use style="stroke:#000000;stroke-width:0.8;" x="399.573074" xlink:href="#m9bdf870fdf" y="307.584"/>
      </g>
     </g>
     <g id="text_12">
      <!-- 300 -->
      <defs>
       <path d="M 40.578125 39.3125 
Q 47.65625 37.796875 51.625 33 
Q 55.609375 28.21875 55.609375 21.1875 
Q 55.609375 10.40625 48.1875 4.484375 
Q 40.765625 -1.421875 27.09375 -1.421875 
Q 22.515625 -1.421875 17.65625 -0.515625 
Q 12.796875 0.390625 7.625 2.203125 
L 7.625 11.71875 
Q 11.71875 9.328125 16.59375 8.109375 
Q 21.484375 6.890625 26.8125 6.890625 
Q 36.078125 6.890625 40.9375 10.546875 
Q 45.796875 14.203125 45.796875 21.1875 
Q 45.796875 27.640625 41.28125 31.265625 
Q 36.765625 34.90625 28.71875 34.90625 
L 20.21875 34.90625 
L 20.21875 43.015625 
L 29.109375 43.015625 
Q 36.375 43.015625 40.234375 45.921875 
Q 44.09375 48.828125 44.09375 54.296875 
Q 44.09375 59.90625 40.109375 62.90625 
Q 36.140625 65.921875 28.71875 65.921875 
Q 24.65625 65.921875 20.015625 65.03125 
Q 15.375 64.15625 9.8125 62.3125 
L 9.8125 71.09375 
Q 15.4375 72.65625 20.34375 73.4375 
Q 25.25 74.21875 29.59375 74.21875 
Q 40.828125 74.21875 47.359375 69.109375 
Q 53.90625 64.015625 53.90625 55.328125 
Q 53.90625 49.265625 50.4375 45.09375 
Q 46.96875 40.921875 40.578125 39.3125 
z
" id="DejaVuSans-51"/>
      </defs>
      <g transform="translate(390.029324 322.182437)scale(0.1 -0.1)">
       <use xlink:href="#DejaVuSans-51"/>
       <use x="63.623047" xlink:href="#DejaVuSans-48"/>
       <use x="127.246094" xlink:href="#DejaVuSans-48"/>
      </g>
     </g>
    </g>
    <g id="text_13">
     <!-- Generations -->
     <defs>
      <path d="M 59.515625 10.40625 
L 59.515625 29.984375 
L 43.40625 29.984375 
L 43.40625 38.09375 
L 69.28125 38.09375 
L 69.28125 6.78125 
Q 63.578125 2.734375 56.6875 0.65625 
Q 49.8125 -1.421875 42 -1.421875 
Q 24.90625 -1.421875 15.25 8.5625 
Q 5.609375 18.5625 5.609375 36.375 
Q 5.609375 54.25 15.25 64.234375 
Q 24.90625 74.21875 42 74.21875 
Q 49.125 74.21875 55.546875 72.453125 
Q 61.96875 70.703125 67.390625 67.28125 
L 67.390625 56.78125 
Q 61.921875 61.421875 55.765625 63.765625 
Q 49.609375 66.109375 42.828125 66.109375 
Q 29.4375 66.109375 22.71875 58.640625 
Q 16.015625 51.171875 16.015625 36.375 
Q 16.015625 21.625 22.71875 14.15625 
Q 29.4375 6.6875 42.828125 6.6875 
Q 48.046875 6.6875 52.140625 7.59375 
Q 56.25 8.5 59.515625 10.40625 
z
" id="DejaVuSans-71"/>
      <path d="M 54.890625 33.015625 
L 54.890625 0 
L 45.90625 0 
L 45.90625 32.71875 
Q 45.90625 40.484375 42.875 44.328125 
Q 39.84375 48.1875 33.796875 48.1875 
Q 26.515625 48.1875 22.3125 43.546875 
Q 18.109375 38.921875 18.109375 30.90625 
L 18.109375 0 
L 9.078125 0 
L 9.078125 54.6875 
L 18.109375 54.6875 
L 18.109375 46.1875 
Q 21.34375 51.125 25.703125 53.5625 
Q 30.078125 56 35.796875 56 
Q 45.21875 56 50.046875 50.171875 
Q 54.890625 44.34375 54.890625 33.015625 
z
" id="DejaVuSans-110"/>
      <path d="M 34.28125 27.484375 
Q 23.390625 27.484375 19.1875 25 
Q 14.984375 22.515625 14.984375 16.5 
Q 14.984375 11.71875 18.140625 8.90625 
Q 21.296875 6.109375 26.703125 6.109375 
Q 34.1875 6.109375 38.703125 11.40625 
Q 43.21875 16.703125 43.21875 25.484375 
L 43.21875 27.484375 
z
M 52.203125 31.203125 
L 52.203125 0 
L 43.21875 0 
L 43.21875 8.296875 
Q 40.140625 3.328125 35.546875 0.953125 
Q 30.953125 -1.421875 24.3125 -1.421875 
Q 15.921875 -1.421875 10.953125 3.296875 
Q 6 8.015625 6 15.921875 
Q 6 25.140625 12.171875 29.828125 
Q 18.359375 34.515625 30.609375 34.515625 
L 43.21875 34.515625 
L 43.21875 35.40625 
Q 43.21875 41.609375 39.140625 45 
Q 35.0625 48.390625 27.6875 48.390625 
Q 23 48.390625 18.546875 47.265625 
Q 14.109375 46.140625 10.015625 43.890625 
L 10.015625 52.203125 
Q 14.9375 54.109375 19.578125 55.046875 
Q 24.21875 56 28.609375 56 
Q 40.484375 56 46.34375 49.84375 
Q 52.203125 43.703125 52.203125 31.203125 
z
" id="DejaVuSans-97"/>
      <path d="M 18.3125 70.21875 
L 18.3125 54.6875 
L 36.8125 54.6875 
L 36.8125 47.703125 
L 18.3125 47.703125 
L 18.3125 18.015625 
Q 18.3125 11.328125 20.140625 9.421875 
Q 21.96875 7.515625 27.59375 7.515625 
L 36.8125 7.515625 
L 36.8125 0 
L 27.59375 0 
Q 17.1875 0 13.234375 3.875 
Q 9.28125 7.765625 9.28125 18.015625 
L 9.28125 47.703125 
L 2.6875 47.703125 
L 2.6875 54.6875 
L 9.28125 54.6875 
L 9.28125 70.21875 
z
" id="DejaVuSans-116"/>
      <path d="M 9.421875 54.6875 
L 18.40625 54.6875 
L 18.40625 0 
L 9.421875 0 
z
M 9.421875 75.984375 
L 18.40625 75.984375 
L 18.40625 64.59375 
L 9.421875 64.59375 
z
" id="DejaVuSans-105"/>
      <path d="M 44.28125 53.078125 
L 44.28125 44.578125 
Q 40.484375 46.53125 36.375 47.5 
Q 32.28125 48.484375 27.875 48.484375 
Q 21.1875 48.484375 17.84375 46.4375 
Q 14.5 44.390625 14.5 40.28125 
Q 14.5 37.15625 16.890625 35.375 
Q 19.28125 33.59375 26.515625 31.984375 
L 29.59375 31.296875 
Q 39.15625 29.25 43.1875 25.515625 
Q 47.21875 21.78125 47.21875 15.09375 
Q 47.21875 7.46875 41.1875 3.015625 
Q 35.15625 -1.421875 24.609375 -1.421875 
Q 20.21875 -1.421875 15.453125 -0.5625 
Q 10.6875 0.296875 5.421875 2 
L 5.421875 11.28125 
Q 10.40625 8.6875 15.234375 7.390625 
Q 20.0625 6.109375 24.8125 6.109375 
Q 31.15625 6.109375 34.5625 8.28125 
Q 37.984375 10.453125 37.984375 14.40625 
Q 37.984375 18.0625 35.515625 20.015625 
Q 33.0625 21.96875 24.703125 23.78125 
L 21.578125 24.515625 
Q 13.234375 26.265625 9.515625 29.90625 
Q 5.8125 33.546875 5.8125 39.890625 
Q 5.8125 47.609375 11.28125 51.796875 
Q 16.75 56 26.8125 56 
Q 31.78125 56 36.171875 55.265625 
Q 40.578125 54.546875 44.28125 53.078125 
z
" id="DejaVuSans-115"/>
     </defs>
     <g transform="translate(205.662344 335.860562)scale(0.1 -0.1)">
      <use xlink:href="#DejaVuSans-71"/>
      <use x="77.490234" xlink:href="#DejaVuSans-101"/>
      <use x="139.013672" xlink:href="#DejaVuSans-110"/>
      <use x="202.392578" xlink:href="#DejaVuSans-101"/>
      <use x="263.916016" xlink:href="#DejaVuSans-114"/>
      <use x="305.029297" xlink:href="#DejaVuSans-97"/>
      <use x="366.308594" xlink:href="#DejaVuSans-116"/>
      <use x="405.517578" xlink:href="#DejaVuSans-105"/>
      <use x="433.300781" xlink:href="#DejaVuSans-111"/>
      <use x="494.482422" xlink:href="#DejaVuSans-110"/>
      <use x="557.861328" xlink:href="#DejaVuSans-115"/>
     </g>
    </g>
   </g>
   <g id="matplotlib.axis_4">
    <g id="ytick_5">
     <g id="line2d_40">
      <path clip-path="url(#pcd08da4841)" d="M 57.6 294.455668 
L 414.72 294.455668 
" style="fill:none;stroke:#b0b0b0;stroke-linecap:square;stroke-width:0.8;"/>
     </g>
     <g id="line2d_41">
      <g>
       <use style="stroke:#000000;stroke-width:0.8;" x="57.6" xlink:href="#mb618bef938" y="294.455668"/>
      </g>
     </g>
     <g id="text_14">
      <!-- −0.2 -->
      <defs>
       <path d="M 10.59375 35.5 
L 73.1875 35.5 
L 73.1875 27.203125 
L 10.59375 27.203125 
z
" id="DejaVuSans-8722"/>
       <path d="M 10.6875 12.40625 
L 21 12.40625 
L 21 0 
L 10.6875 0 
z
" id="DejaVuSans-46"/>
      </defs>
      <g transform="translate(26.317187 298.254887)scale(0.1 -0.1)">
       <use xlink:href="#DejaVuSans-8722"/>
       <use x="83.789062" xlink:href="#DejaVuSans-48"/>
       <use x="147.412109" xlink:href="#DejaVuSans-46"/>
       <use x="179.199219" xlink:href="#DejaVuSans-50"/>
      </g>
     </g>
    </g>
    <g id="ytick_6">
     <g id="line2d_42">
      <path clip-path="url(#pcd08da4841)" d="M 57.6 268.631056 
L 414.72 268.631056 
" style="fill:none;stroke:#b0b0b0;stroke-linecap:square;stroke-width:0.8;"/>
     </g>
     <g id="line2d_43">
      <g>
       <use style="stroke:#000000;stroke-width:0.8;" x="57.6" xlink:href="#mb618bef938" y="268.631056"/>
      </g>
     </g>
     <g id="text_15">
      <!-- 0.0 -->
      <g transform="translate(34.696875 272.430274)scale(0.1 -0.1)">
       <use xlink:href="#DejaVuSans-48"/>
       <use x="63.623047" xlink:href="#DejaVuSans-46"/>
       <use x="95.410156" xlink:href="#DejaVuSans-48"/>
      </g>
     </g>
    </g>
    <g id="ytick_7">
     <g id="line2d_44">
      <path clip-path="url(#pcd08da4841)" d="M 57.6 242.806443 
L 414.72 242.806443 
" style="fill:none;stroke:#b0b0b0;stroke-linecap:square;stroke-width:0.8;"/>
     </g>
     <g id="line2d_45">
      <g>
       <use style="stroke:#000000;stroke-width:0.8;" x="57.6" xlink:href="#mb618bef938" y="242.806443"/>
      </g>
     </g>
     <g id="text_16">
      <!-- 0.2 -->
      <g transform="translate(34.696875 246.605662)scale(0.1 -0.1)">
       <use xlink:href="#DejaVuSans-48"/>
       <use x="63.623047" xlink:href="#DejaVuSans-46"/>
       <use x="95.410156" xlink:href="#DejaVuSans-50"/>
      </g>
     </g>
    </g>
    <g id="ytick_8">
     <g id="line2d_46">
      <path clip-path="url(#pcd08da4841)" d="M 57.6 216.98183 
L 414.72 216.98183 
" style="fill:none;stroke:#b0b0b0;stroke-linecap:square;stroke-width:0.8;"/>
     </g>
     <g id="line2d_47">
      <g>
       <use style="stroke:#000000;stroke-width:0.8;" x="57.6" xlink:href="#mb618bef938" y="216.98183"/>
      </g>
     </g>
     <g id="text_17">
      <!-- 0.4 -->
      <defs>
       <path d="M 37.796875 64.3125 
L 12.890625 25.390625 
L 37.796875 25.390625 
z
M 35.203125 72.90625 
L 47.609375 72.90625 
L 47.609375 25.390625 
L 58.015625 25.390625 
L 58.015625 17.1875 
L 47.609375 17.1875 
L 47.609375 0 
L 37.796875 0 
L 37.796875 17.1875 
L 4.890625 17.1875 
L 4.890625 26.703125 
z
" id="DejaVuSans-52"/>
      </defs>
      <g transform="translate(34.696875 220.781049)scale(0.1 -0.1)">
       <use xlink:href="#DejaVuSans-48"/>
       <use x="63.623047" xlink:href="#DejaVuSans-46"/>
       <use x="95.410156" xlink:href="#DejaVuSans-52"/>
      </g>
     </g>
    </g>
    <g id="text_18">
     <!-- Silhouette Score -->
     <defs>
      <path d="M 9.421875 75.984375 
L 18.40625 75.984375 
L 18.40625 0 
L 9.421875 0 
z
" id="DejaVuSans-108"/>
      <path d="M 54.890625 33.015625 
L 54.890625 0 
L 45.90625 0 
L 45.90625 32.71875 
Q 45.90625 40.484375 42.875 44.328125 
Q 39.84375 48.1875 33.796875 48.1875 
Q 26.515625 48.1875 22.3125 43.546875 
Q 18.109375 38.921875 18.109375 30.90625 
L 18.109375 0 
L 9.078125 0 
L 9.078125 75.984375 
L 18.109375 75.984375 
L 18.109375 46.1875 
Q 21.34375 51.125 25.703125 53.5625 
Q 30.078125 56 35.796875 56 
Q 45.21875 56 50.046875 50.171875 
Q 54.890625 44.34375 54.890625 33.015625 
z
" id="DejaVuSans-104"/>
      <path d="M 8.5 21.578125 
L 8.5 54.6875 
L 17.484375 54.6875 
L 17.484375 21.921875 
Q 17.484375 14.15625 20.5 10.265625 
Q 23.53125 6.390625 29.59375 6.390625 
Q 36.859375 6.390625 41.078125 11.03125 
Q 45.3125 15.671875 45.3125 23.6875 
L 45.3125 54.6875 
L 54.296875 54.6875 
L 54.296875 0 
L 45.3125 0 
L 45.3125 8.40625 
Q 42.046875 3.421875 37.71875 1 
Q 33.40625 -1.421875 27.6875 -1.421875 
Q 18.265625 -1.421875 13.375 4.4375 
Q 8.5 10.296875 8.5 21.578125 
z
M 31.109375 56 
z
" id="DejaVuSans-117"/>
     </defs>
     <g transform="translate(20.2375 290.858565)rotate(-90)scale(0.1 -0.1)">
      <use xlink:href="#DejaVuSans-83"/>
      <use x="63.476562" xlink:href="#DejaVuSans-105"/>
      <use x="91.259766" xlink:href="#DejaVuSans-108"/>
      <use x="119.042969" xlink:href="#DejaVuSans-104"/>
      <use x="182.421875" xlink:href="#DejaVuSans-111"/>
      <use x="243.603516" xlink:href="#DejaVuSans-117"/>
      <use x="306.982422" xlink:href="#DejaVuSans-101"/>
      <use x="368.505859" xlink:href="#DejaVuSans-116"/>
      <use x="407.714844" xlink:href="#DejaVuSans-116"/>
      <use x="446.923828" xlink:href="#DejaVuSans-101"/>
      <use x="508.447266" xlink:href="#DejaVuSans-32"/>
      <use x="540.234375" xlink:href="#DejaVuSans-83"/>
      <use x="603.710938" xlink:href="#DejaVuSans-99"/>
      <use x="658.691406" xlink:href="#DejaVuSans-111"/>
      <use x="719.873047" xlink:href="#DejaVuSans-114"/>
      <use x="760.955078" xlink:href="#DejaVuSans-101"/>
     </g>
    </g>
   </g>
   <g id="line2d_48">
    <path clip-path="url(#pcd08da4841)" d="M 73.832727 272.492913 
L 74.918528 274.028776 
L 76.00433 274.139679 
L 77.090131 274.506492 
L 78.175932 276.427085 
L 79.261733 275.722492 
L 80.347534 276.492401 
L 81.433335 275.257276 
L 82.519137 275.595543 
L 83.604938 274.528143 
L 84.690739 276.235431 
L 85.77654 274.831148 
L 86.862341 275.597962 
L 87.948142 276.086535 
L 89.033943 277.547484 
L 90.119745 277.296788 
L 91.205546 275.608279 
L 92.291347 275.669806 
L 93.377148 276.665057 
L 94.462949 275.801624 
L 95.54875 279.923198 
L 96.634552 279.416324 
L 97.720353 280.849179 
L 98.806154 283.146522 
L 99.891955 286.353787 
L 100.977756 285.574836 
L 102.063557 281.845999 
L 103.149358 281.570403 
L 104.23516 277.727155 
L 105.320961 281.683469 
L 106.406762 281.362262 
L 107.492563 278.608876 
L 108.578364 276.716706 
L 109.664165 275.416259 
L 110.749967 276.10668 
L 111.835768 279.556827 
L 112.921569 281.364556 
L 114.00737 280.446699 
L 115.093171 278.267184 
L 116.178972 278.079169 
L 117.264773 279.451318 
L 118.350575 279.245045 
L 119.436376 279.258726 
L 120.522177 277.962818 
L 121.607978 278.055249 
L 122.693779 277.210817 
L 123.77958 276.19518 
L 124.865382 276.670406 
L 125.951183 277.300967 
L 127.036984 276.663452 
L 128.122785 277.251972 
L 129.208586 278.102625 
L 130.294387 281.207642 
L 131.380189 279.564491 
L 132.46599 279.458105 
L 133.551791 279.472814 
L 134.637592 276.943968 
L 135.723393 277.470519 
L 136.809194 275.521619 
L 137.894995 276.572536 
L 138.980797 275.643944 
L 140.066598 279.280077 
L 141.152399 275.249504 
L 142.2382 275.228816 
L 143.324001 275.697292 
L 144.409802 277.473467 
L 145.495604 277.986803 
L 146.581405 277.866589 
L 147.667206 278.335267 
L 148.753007 277.774473 
L 149.838808 280.67382 
L 150.924609 276.035409 
L 152.01041 279.789709 
L 153.096212 281.759827 
L 154.182013 280.528999 
L 155.267814 278.704159 
L 156.353615 279.227303 
L 157.439416 278.29733 
L 158.525217 279.741037 
L 159.611019 280.489462 
L 160.69682 279.809024 
L 161.782621 279.935006 
L 162.868422 279.409373 
L 163.954223 279.723031 
L 165.040024 280.412586 
L 166.125825 282.661592 
L 167.211627 279.242513 
L 168.297428 282.780304 
L 169.383229 281.859938 
L 170.46903 282.569087 
L 171.554831 281.53155 
L 172.640632 279.961779 
L 173.726434 280.60794 
L 174.812235 279.238629 
L 175.898036 279.049868 
L 176.983837 276.40619 
L 178.069638 278.995184 
L 179.155439 276.10294 
L 181.327042 280.477053 
L 182.412843 277.677813 
L 183.498644 277.723251 
L 184.584445 276.68617 
L 185.670246 277.991505 
L 186.756047 275.765835 
L 187.841849 275.979509 
L 188.92765 277.253568 
L 190.013451 280.55082 
L 191.099252 280.055366 
L 192.185053 278.172437 
L 194.356656 278.437793 
L 195.442457 274.555084 
L 196.528258 277.388489 
L 197.614059 276.856783 
L 198.69986 276.835106 
L 199.785661 277.652909 
L 200.871462 278.260654 
L 203.043065 276.900564 
L 204.128866 278.436661 
L 205.214667 278.70227 
L 206.300468 276.517397 
L 207.386269 275.861054 
L 209.557872 277.992578 
L 210.643673 275.88992 
L 211.729474 275.596562 
L 212.815275 276.876259 
L 213.901076 274.149628 
L 214.986877 272.625335 
L 216.072679 273.973487 
L 217.15848 273.756761 
L 218.244281 276.705036 
L 219.330082 276.188998 
L 220.415883 275.972832 
L 221.501684 277.154219 
L 222.587486 274.602863 
L 223.673287 273.86246 
L 224.759088 277.785177 
L 225.844889 270.015918 
L 226.93069 272.042117 
L 228.016491 274.8493 
L 229.102292 269.383411 
L 230.188094 265.521886 
L 231.273895 271.712116 
L 232.359696 274.842247 
L 233.445497 273.310229 
L 234.531298 267.231852 
L 235.617099 274.487976 
L 236.702901 271.280777 
L 237.788702 269.620268 
L 238.874503 267.402568 
L 241.046105 271.838329 
L 242.131906 271.304261 
L 243.217708 275.365962 
L 244.303509 275.204091 
L 245.38931 275.581885 
L 246.475111 278.165448 
L 247.560912 283.138602 
L 248.646713 276.019316 
L 249.732514 279.772363 
L 250.818316 279.552896 
L 251.904117 276.927147 
L 252.989918 281.316858 
L 254.075719 278.067483 
L 255.16152 277.566117 
L 256.247321 276.874194 
L 257.333123 277.431788 
L 258.418924 273.04061 
L 259.504725 279.20101 
L 260.590526 279.261779 
L 261.676327 280.713984 
L 262.762128 278.98679 
L 263.847929 274.934406 
L 264.933731 277.893507 
L 266.019532 277.774065 
L 267.105333 278.980016 
L 268.191134 279.636722 
L 269.276935 280.903315 
L 270.362736 275.75342 
L 271.448538 278.263866 
L 272.534339 276.732262 
L 273.62014 277.785525 
L 274.705941 277.665643 
L 275.791742 278.44746 
L 276.877543 277.70443 
L 277.963344 277.227135 
L 279.049146 276.116305 
L 280.134947 278.424686 
L 281.220748 274.682831 
L 282.306549 277.279728 
L 283.39235 277.249918 
L 284.478151 276.051283 
L 285.563953 276.792391 
L 286.649754 274.905718 
L 287.735555 272.137949 
L 288.821356 270.306142 
L 289.907157 269.485258 
L 290.992958 270.848124 
L 292.07876 276.045529 
L 293.164561 274.49829 
L 294.250362 272.374499 
L 295.336163 277.437957 
L 296.421964 272.461547 
L 298.593566 272.040699 
L 300.765169 270.526275 
L 301.85097 273.552151 
L 302.936771 272.355412 
L 304.022572 269.920055 
L 305.108373 272.753731 
L 306.194175 274.875003 
L 307.279976 274.155632 
L 308.365777 272.349469 
L 309.451578 274.901134 
L 310.537379 272.467977 
L 311.62318 276.958147 
L 312.708981 274.687089 
L 313.794783 281.792116 
L 314.880584 281.113073 
L 315.966385 281.197975 
L 317.052186 278.506043 
L 318.137987 276.143552 
L 319.223788 275.838019 
L 320.30959 278.161294 
L 321.395391 276.282084 
L 322.481192 276.514326 
L 323.566993 277.811437 
L 324.652794 278.007152 
L 325.738595 276.747085 
L 326.824396 277.036457 
L 327.910198 285.136452 
L 328.995999 281.699034 
L 330.0818 276.949435 
L 331.167601 276.016472 
L 332.253402 279.554072 
L 333.339203 281.691847 
L 334.425005 276.563586 
L 335.510806 278.615719 
L 337.682408 273.433025 
L 338.768209 276.245017 
L 339.85401 278.014901 
L 340.939811 278.699649 
L 342.025613 282.315313 
L 343.111414 278.521287 
L 344.197215 277.27333 
L 345.283016 282.795767 
L 346.368817 285.450594 
L 347.454618 277.436252 
L 348.54042 279.877811 
L 349.626221 277.64957 
L 350.712022 276.601041 
L 351.797823 278.882711 
L 352.883624 275.835344 
L 353.969425 279.793137 
L 355.055227 275.547087 
L 356.141028 276.276532 
L 357.226829 273.518608 
L 358.31263 275.994299 
L 359.398431 276.711237 
L 360.484232 274.298012 
L 361.570033 275.555367 
L 362.655835 278.229397 
L 363.741636 277.734632 
L 364.827437 277.441298 
L 365.913238 277.6844 
L 366.999039 280.28776 
L 368.08484 279.913707 
L 369.170642 277.227196 
L 370.256443 276.818968 
L 371.342244 276.674704 
L 372.428045 277.878778 
L 373.513846 275.268924 
L 374.599647 276.425576 
L 375.685448 279.309286 
L 376.77125 275.443193 
L 377.857051 276.856115 
L 378.942852 282.127339 
L 380.028653 278.986881 
L 381.114454 287.795152 
L 382.200255 277.725412 
L 383.286057 277.859731 
L 384.371858 276.57345 
L 385.457659 278.970043 
L 386.54346 278.651353 
L 387.629261 282.02347 
L 388.715062 280.335585 
L 389.800863 282.551324 
L 390.886665 282.134191 
L 391.972466 282.224026 
L 393.058267 278.762162 
L 394.144068 280.334188 
L 395.229869 279.459903 
L 396.31567 284.21168 
L 397.401472 277.364518 
L 398.487273 279.369648 
L 398.487273 279.369648 
" style="fill:none;stroke:#0000ff;stroke-linecap:square;stroke-width:1.5;"/>
   </g>
   <g id="line2d_49">
    <path clip-path="url(#pcd08da4841)" d="M 73.832727 272.854424 
L 74.918528 273.526754 
L 76.00433 274.858292 
L 77.090131 273.955126 
L 78.175932 273.473242 
L 79.261733 273.635658 
L 80.347534 273.530108 
L 81.433335 274.093463 
L 82.519137 273.091771 
L 83.604938 274.283389 
L 84.690739 273.851383 
L 85.77654 275.158742 
L 86.862341 274.486127 
L 87.948142 280.203328 
L 89.033943 275.25646 
L 90.119745 277.049668 
L 91.205546 275.968677 
L 92.291347 276.776398 
L 93.377148 275.639972 
L 94.462949 275.040217 
L 95.54875 276.889868 
L 96.634552 280.883873 
L 97.720353 288.121962 
L 98.806154 279.047446 
L 99.891955 279.811392 
L 102.063557 278.502536 
L 103.149358 280.889329 
L 104.23516 279.227507 
L 105.320961 281.27862 
L 106.406762 281.266198 
L 107.492563 278.482638 
L 108.578364 282.125449 
L 109.664165 278.267648 
L 110.749967 278.10356 
L 111.835768 277.079723 
L 112.921569 279.002701 
L 114.00737 278.098393 
L 115.093171 285.950873 
L 116.178972 283.384119 
L 117.264773 286.412378 
L 118.350575 285.352828 
L 119.436376 279.335797 
L 120.522177 282.499983 
L 121.607978 276.552335 
L 122.693779 280.478122 
L 123.77958 280.239158 
L 124.865382 280.377651 
L 125.951183 281.118142 
L 127.036984 277.576547 
L 128.122785 284.397415 
L 129.208586 284.122122 
L 130.294387 280.884661 
L 131.380189 274.748883 
L 132.46599 280.625736 
L 133.551791 281.718076 
L 134.637592 277.97834 
L 135.723393 280.480286 
L 136.809194 281.799822 
L 137.894995 283.766431 
L 138.980797 281.774963 
L 140.066598 284.457041 
L 141.152399 282.037074 
L 142.2382 281.500235 
L 143.324001 284.709807 
L 144.409802 284.663348 
L 145.495604 281.389089 
L 146.581405 289.773694 
L 147.667206 275.033176 
L 148.753007 287.089805 
L 149.838808 287.832616 
L 150.924609 276.464635 
L 152.01041 286.597203 
L 153.096212 285.659963 
L 154.182013 286.156772 
L 155.267814 287.424913 
L 156.353615 279.957802 
L 157.439416 288.008222 
L 158.525217 291.862427 
L 159.611019 288.256675 
L 160.69682 288.915094 
L 161.782621 284.73839 
L 162.868422 292.630586 
L 163.954223 287.148182 
L 165.040024 294.41732 
L 166.125825 296.140879 
L 167.211627 298.544041 
L 168.297428 297.313469 
L 169.383229 302.32487 
L 170.46903 295.390913 
L 171.554831 296.59791 
L 172.640632 298.348298 
L 173.726434 301.89218 
L 174.812235 300.581829 
L 175.898036 302.198125 
L 176.983837 300.744019 
L 178.069638 301.939423 
L 179.155439 297.518481 
L 180.24124 300.488352 
L 181.327042 300.860195 
L 182.412843 295.319629 
L 183.498644 290.583262 
L 184.584445 292.392275 
L 185.670246 299.338805 
L 186.756047 297.553676 
L 187.841849 296.998433 
L 188.92765 294.901936 
L 190.013451 295.846238 
L 191.099252 292.661681 
L 192.185053 287.922802 
L 193.270854 294.69896 
L 194.356656 288.843833 
L 195.442457 287.016742 
L 196.528258 286.819068 
L 197.614059 284.419176 
L 198.69986 288.664137 
L 199.785661 287.863785 
L 200.871462 290.604611 
L 201.957264 282.841719 
L 203.043065 283.699763 
L 204.128866 281.831408 
L 205.214667 281.838411 
L 206.300468 284.278368 
L 207.386269 285.050057 
L 208.472071 284.250599 
L 209.557872 289.393473 
L 210.643673 281.183819 
L 211.729474 280.020996 
L 213.901076 284.738505 
L 214.986877 277.453683 
L 216.072679 282.239066 
L 217.15848 287.938465 
L 218.244281 279.064511 
L 219.330082 281.598871 
L 220.415883 280.321393 
L 221.501684 278.234813 
L 222.587486 283.888327 
L 223.673287 285.809535 
L 224.759088 284.064638 
L 225.844889 277.613136 
L 226.93069 282.122235 
L 228.016491 284.651718 
L 230.188094 279.904104 
L 231.273895 282.787814 
L 232.359696 281.826862 
L 233.445497 286.963487 
L 234.531298 278.713277 
L 235.617099 283.771787 
L 236.702901 282.50346 
L 237.788702 288.018364 
L 238.874503 284.902018 
L 239.960304 288.539304 
L 241.046105 294.329289 
L 242.131906 283.52808 
L 243.217708 282.700301 
L 244.303509 284.457266 
L 245.38931 285.563785 
L 246.475111 281.500039 
L 247.560912 287.31421 
L 248.646713 286.469236 
L 249.732514 287.440941 
L 250.818316 287.303929 
L 251.904117 292.533538 
L 252.989918 286.441625 
L 254.075719 290.156017 
L 255.16152 287.321581 
L 256.247321 287.4961 
L 257.333123 287.378399 
L 258.418924 285.690823 
L 259.504725 286.821042 
L 260.590526 286.611145 
L 261.676327 286.629091 
L 263.847929 284.875445 
L 266.019532 288.547049 
L 267.105333 285.539738 
L 268.191134 284.870963 
L 269.276935 284.859356 
L 270.362736 281.624693 
L 271.448538 280.929635 
L 272.534339 282.14001 
L 273.62014 282.956493 
L 275.791742 280.782286 
L 276.877543 279.155946 
L 277.963344 279.151829 
L 279.049146 280.165616 
L 280.134947 279.504433 
L 281.220748 282.41281 
L 282.306549 283.112547 
L 283.39235 285.576085 
L 284.478151 283.16824 
L 285.563953 282.145766 
L 286.649754 277.237325 
L 287.735555 284.63475 
L 288.821356 275.982458 
L 289.907157 278.403725 
L 290.992958 274.92282 
L 292.07876 289.85764 
L 293.164561 277.531461 
L 294.250362 284.646545 
L 295.336163 282.884073 
L 296.421964 285.592776 
L 297.507765 291.581845 
L 298.593566 285.068087 
L 299.679368 283.946494 
L 300.765169 281.319689 
L 301.85097 290.180035 
L 302.936771 293.626527 
L 304.022572 290.662588 
L 305.108373 286.796973 
L 306.194175 285.84905 
L 307.279976 284.126844 
L 309.451578 262.560363 
L 310.537379 266.443219 
L 311.62318 273.258177 
L 312.708981 266.013665 
L 313.794783 267.923992 
L 314.880584 274.282005 
L 315.966385 273.721896 
L 317.052186 266.982932 
L 318.137987 269.922215 
L 319.223788 276.034807 
L 320.30959 268.760754 
L 321.395391 270.89592 
L 322.481192 269.713269 
L 323.566993 264.35555 
L 324.652794 269.387652 
L 325.738595 273.382785 
L 326.824396 262.670755 
L 327.910198 271.449385 
L 328.995999 272.002668 
L 330.0818 271.676844 
L 332.253402 268.939635 
L 333.339203 271.580915 
L 334.425005 276.555962 
L 335.510806 273.567177 
L 336.596607 267.896486 
L 337.682408 265.300579 
L 338.768209 273.270818 
L 339.85401 267.436791 
L 340.939811 274.106101 
L 343.111414 272.517824 
L 344.197215 269.635176 
L 345.283016 276.127895 
L 346.368817 270.221654 
L 347.454618 272.93461 
L 348.54042 261.414306 
L 349.626221 265.024813 
L 350.712022 263.048391 
L 351.797823 270.399803 
L 352.883624 272.011266 
L 353.969425 263.744817 
L 355.055227 263.687885 
L 356.141028 275.093848 
L 357.226829 271.471889 
L 358.31263 267.284485 
L 359.398431 267.946944 
L 360.484232 270.958966 
L 361.570033 270.41336 
L 362.655835 272.79951 
L 363.741636 266.532398 
L 364.827437 264.020816 
L 365.913238 266.426272 
L 366.999039 264.713365 
L 368.08484 265.266882 
L 369.170642 275.779208 
L 370.256443 270.16847 
L 371.342244 275.867661 
L 372.428045 274.868979 
L 373.513846 270.794101 
L 374.599647 271.080544 
L 375.685448 274.149691 
L 376.77125 278.312308 
L 377.857051 269.031571 
L 378.942852 277.071388 
L 380.028653 268.80993 
L 381.114454 268.828749 
L 382.200255 271.803733 
L 383.286057 269.378937 
L 384.371858 267.304426 
L 385.457659 273.62859 
L 386.54346 271.840519 
L 387.629261 268.64142 
L 388.715062 271.842066 
L 389.800863 268.133509 
L 390.886665 270.697935 
L 391.972466 270.597345 
L 393.058267 273.039923 
L 394.144068 269.359986 
L 395.229869 264.714381 
L 396.31567 269.088743 
L 397.401472 267.716679 
L 398.487273 270.160777 
L 398.487273 270.160777 
" style="fill:none;stroke:#008000;stroke-linecap:square;stroke-width:1.5;"/>
   </g>
   <g id="line2d_50">
    <path clip-path="url(#pcd08da4841)" d="M 73.832727 267.57362 
L 74.918528 257.220675 
L 76.00433 253.675819 
L 77.090131 255.378412 
L 78.175932 253.800003 
L 79.261733 248.357562 
L 80.347534 246.848782 
L 81.433335 249.526581 
L 82.519137 249.914852 
L 83.604938 255.798536 
L 84.690739 251.651498 
L 85.77654 252.529447 
L 86.862341 250.607771 
L 87.948142 238.421249 
L 89.033943 237.476778 
L 90.119745 241.716406 
L 91.205546 242.662582 
L 92.291347 240.467504 
L 93.377148 241.904902 
L 94.462949 247.36777 
L 95.54875 237.922887 
L 96.634552 240.485944 
L 97.720353 239.987735 
L 98.806154 240.58995 
L 99.891955 240.882901 
L 100.977756 236.14805 
L 102.063557 230.795901 
L 103.149358 233.920982 
L 104.23516 240.436984 
L 105.320961 235.480834 
L 106.406762 235.330464 
L 107.492563 232.490841 
L 108.578364 230.495317 
L 109.664165 230.024015 
L 110.749967 224.05952 
L 111.835768 211.324513 
L 114.00737 224.646147 
L 115.093171 223.27026 
L 116.178972 228.700153 
L 117.264773 230.973384 
L 118.350575 227.223862 
L 119.436376 227.730546 
L 120.522177 227.878964 
L 121.607978 222.809871 
L 122.693779 227.951156 
L 123.77958 226.17403 
L 124.865382 225.243424 
L 125.951183 217.972597 
L 127.036984 234.619042 
L 128.122785 233.509387 
L 129.208586 235.303886 
L 130.294387 228.639161 
L 131.380189 228.620339 
L 132.46599 238.776422 
L 133.551791 237.244886 
L 134.637592 233.043234 
L 135.723393 237.348285 
L 136.809194 237.982707 
L 137.894995 232.473173 
L 138.980797 235.372425 
L 140.066598 232.247532 
L 141.152399 236.531492 
L 143.324001 231.91232 
L 144.409802 231.701329 
L 145.495604 228.854861 
L 146.581405 230.732588 
L 147.667206 231.165617 
L 148.753007 222.551457 
L 149.838808 232.703454 
L 150.924609 228.658979 
L 152.01041 234.755475 
L 153.096212 232.850514 
L 154.182013 229.94713 
L 155.267814 232.683621 
L 156.353615 233.426626 
L 157.439416 232.076985 
L 158.525217 240.166484 
L 159.611019 237.901061 
L 160.69682 237.660717 
L 161.782621 241.105987 
L 163.954223 233.503806 
L 165.040024 233.102849 
L 166.125825 235.294726 
L 167.211627 229.795238 
L 168.297428 237.939504 
L 169.383229 237.760752 
L 170.46903 229.133324 
L 171.554831 235.066951 
L 172.640632 236.438867 
L 174.812235 224.971348 
L 175.898036 227.858247 
L 176.983837 219.018907 
L 178.069638 217.456894 
L 179.155439 216.40263 
L 180.24124 225.417426 
L 181.327042 220.326651 
L 182.412843 226.401218 
L 183.498644 221.451027 
L 184.584445 223.753263 
L 185.670246 227.275977 
L 186.756047 219.954078 
L 187.841849 224.48911 
L 188.92765 222.409113 
L 190.013451 222.612509 
L 191.099252 226.843889 
L 192.185053 224.346362 
L 193.270854 219.607561 
L 194.356656 228.451377 
L 195.442457 226.626923 
L 196.528258 230.560377 
L 197.614059 222.166703 
L 198.69986 226.317305 
L 199.785661 229.316075 
L 200.871462 224.44903 
L 201.957264 228.598397 
L 203.043065 226.480011 
L 204.128866 227.904706 
L 205.214667 226.5294 
L 206.300468 219.74202 
L 208.472071 228.701125 
L 209.557872 222.104858 
L 210.643673 225.180221 
L 211.729474 223.603103 
L 212.815275 225.586076 
L 213.901076 223.734096 
L 214.986877 223.644272 
L 216.072679 224.308176 
L 217.15848 230.79918 
L 218.244281 229.711666 
L 219.330082 235.274692 
L 220.415883 232.332589 
L 221.501684 233.828786 
L 222.587486 231.751753 
L 223.673287 232.743329 
L 224.759088 231.231647 
L 225.844889 228.217753 
L 226.93069 228.714669 
L 228.016491 233.611645 
L 229.102292 231.503471 
L 230.188094 227.669417 
L 231.273895 228.325044 
L 232.359696 230.557762 
L 233.445497 233.122875 
L 234.531298 230.235214 
L 235.617099 230.205659 
L 236.702901 228.237376 
L 237.788702 232.717811 
L 238.874503 231.572836 
L 239.960304 231.102646 
L 241.046105 227.004993 
L 242.131906 225.988382 
L 243.217708 226.302011 
L 244.303509 230.312619 
L 245.38931 228.895399 
L 246.475111 232.875763 
L 247.560912 231.350182 
L 248.646713 230.267486 
L 249.732514 234.875936 
L 250.818316 229.330819 
L 251.904117 229.32782 
L 252.989918 233.356202 
L 254.075719 231.256331 
L 255.16152 232.060266 
L 256.247321 226.867037 
L 257.333123 224.254152 
L 258.418924 225.189793 
L 259.504725 228.677046 
L 260.590526 226.563064 
L 261.676327 225.030044 
L 262.762128 231.818195 
L 263.847929 231.968321 
L 264.933731 233.534977 
L 266.019532 230.920616 
L 267.105333 225.50464 
L 268.191134 228.576152 
L 269.276935 229.190762 
L 271.448538 230.859878 
L 272.534339 234.915977 
L 273.62014 234.952231 
L 274.705941 231.496014 
L 275.791742 238.01017 
L 276.877543 234.572898 
L 277.963344 232.927689 
L 280.134947 238.033685 
L 281.220748 237.416339 
L 282.306549 228.978236 
L 283.39235 231.081378 
L 284.478151 225.693222 
L 285.563953 230.4585 
L 286.649754 223.031041 
L 287.735555 228.742059 
L 288.821356 222.138739 
L 289.907157 224.799521 
L 290.992958 223.281161 
L 292.07876 220.924716 
L 293.164561 227.76235 
L 294.250362 224.852682 
L 295.336163 224.906188 
L 296.421964 225.138127 
L 297.507765 223.715447 
L 298.593566 217.41432 
L 299.679368 220.346086 
L 300.765169 222.46429 
L 301.85097 220.139176 
L 302.936771 215.501349 
L 304.022572 218.987681 
L 305.108373 218.75932 
L 306.194175 217.283563 
L 307.279976 219.81517 
L 308.365777 220.158291 
L 309.451578 220.802411 
L 310.537379 220.268042 
L 311.62318 218.650343 
L 312.708981 214.712094 
L 313.794783 207.87092 
L 314.880584 217.878314 
L 315.966385 217.853043 
L 318.137987 210.837317 
L 319.223788 212.66868 
L 320.30959 221.303173 
L 321.395391 210.213061 
L 322.481192 206.14905 
L 323.566993 214.593496 
L 324.652794 208.754502 
L 325.738595 220.853254 
L 326.824396 209.249396 
L 327.910198 207.722487 
L 328.995999 216.77177 
L 330.0818 205.891201 
L 331.167601 208.353027 
L 332.253402 213.624018 
L 333.339203 211.659251 
L 334.425005 216.329846 
L 335.510806 217.495485 
L 336.596607 213.973819 
L 337.682408 212.942421 
L 338.768209 212.74431 
L 339.85401 211.822773 
L 340.939811 218.53279 
L 342.025613 207.733692 
L 343.111414 212.223504 
L 344.197215 210.334639 
L 345.283016 210.853133 
L 346.368817 209.924687 
L 347.454618 211.059539 
L 348.54042 203.53863 
L 349.626221 212.168497 
L 350.712022 214.015708 
L 351.797823 209.495632 
L 352.883624 203.6346 
L 353.969425 209.034449 
L 355.055227 212.968525 
L 356.141028 212.014916 
L 357.226829 211.59342 
L 358.31263 208.890763 
L 359.398431 221.763998 
L 360.484232 221.996053 
L 361.570033 210.605571 
L 362.655835 212.903783 
L 363.741636 216.699492 
L 364.827437 212.792674 
L 366.999039 225.936452 
L 369.170642 225.475475 
L 370.256443 221.351199 
L 371.342244 220.418843 
L 372.428045 221.192346 
L 373.513846 215.035203 
L 374.599647 212.686355 
L 375.685448 216.965518 
L 376.77125 218.767698 
L 377.857051 218.97119 
L 378.942852 209.852949 
L 380.028653 209.422836 
L 381.114454 213.45571 
L 383.286057 212.222554 
L 384.371858 213.402181 
L 385.457659 213.183037 
L 386.54346 212.44425 
L 387.629261 223.124647 
L 388.715062 209.88269 
L 390.886665 206.721721 
L 391.972466 208.803006 
L 393.058267 214.080426 
L 394.144068 206.801382 
L 395.229869 205.784648 
L 396.31567 197.142261 
L 397.401472 206.215881 
L 398.487273 211.257283 
L 398.487273 211.257283 
" style="fill:none;stroke:#ff0000;stroke-linecap:square;stroke-width:1.5;"/>
   </g>
   <g id="patch_8">
    <path d="M 57.6 307.584 
L 57.6 191.88313 
" style="fill:none;stroke:#000000;stroke-linecap:square;stroke-linejoin:miter;stroke-width:0.8;"/>
   </g>
   <g id="patch_9">
    <path d="M 414.72 307.584 
L 414.72 191.88313 
" style="fill:none;stroke:#000000;stroke-linecap:square;stroke-linejoin:miter;stroke-width:0.8;"/>
   </g>
   <g id="patch_10">
    <path d="M 57.6 307.584 
L 414.72 307.584 
" style="fill:none;stroke:#000000;stroke-linecap:square;stroke-linejoin:miter;stroke-width:0.8;"/>
   </g>
   <g id="patch_11">
    <path d="M 57.6 191.88313 
L 414.72 191.88313 
" style="fill:none;stroke:#000000;stroke-linecap:square;stroke-linejoin:miter;stroke-width:0.8;"/>
   </g>
   <g id="legend_1">
    <g id="patch_12">
     <path d="M 64.6 243.917505 
L 114.584375 243.917505 
Q 116.584375 243.917505 116.584375 241.917505 
L 116.584375 198.88313 
Q 116.584375 196.88313 114.584375 196.88313 
L 64.6 196.88313 
Q 62.6 196.88313 62.6 198.88313 
L 62.6 241.917505 
Q 62.6 243.917505 64.6 243.917505 
z
" style="fill:#ffffff;opacity:0.8;stroke:#cccccc;stroke-linejoin:miter;"/>
    </g>
    <g id="line2d_51">
     <path d="M 66.6 204.981568 
L 86.6 204.981568 
" style="fill:none;stroke:#0000ff;stroke-linecap:square;stroke-width:1.5;"/>
    </g>
    <g id="line2d_52"/>
    <g id="text_19">
     <!-- 0 -->
     <g transform="translate(94.6 208.481568)scale(0.1 -0.1)">
      <use xlink:href="#DejaVuSans-48"/>
     </g>
    </g>
    <g id="line2d_53">
     <path d="M 66.6 219.659693 
L 86.6 219.659693 
" style="fill:none;stroke:#008000;stroke-linecap:square;stroke-width:1.5;"/>
    </g>
    <g id="line2d_54"/>
    <g id="text_20">
     <!-- 1 -->
     <g transform="translate(94.6 223.159693)scale(0.1 -0.1)">
      <use xlink:href="#DejaVuSans-49"/>
     </g>
    </g>
    <g id="line2d_55">
     <path d="M 66.6 234.337818 
L 86.6 234.337818 
" style="fill:none;stroke:#ff0000;stroke-linecap:square;stroke-width:1.5;"/>
    </g>
    <g id="line2d_56"/>
    <g id="text_21">
     <!-- ALL -->
     <defs>
      <path d="M 34.1875 63.1875 
L 20.796875 26.90625 
L 47.609375 26.90625 
z
M 28.609375 72.90625 
L 39.796875 72.90625 
L 67.578125 0 
L 57.328125 0 
L 50.6875 18.703125 
L 17.828125 18.703125 
L 11.1875 0 
L 0.78125 0 
z
" id="DejaVuSans-65"/>
      <path d="M 9.8125 72.90625 
L 19.671875 72.90625 
L 19.671875 8.296875 
L 55.171875 8.296875 
L 55.171875 0 
L 9.8125 0 
z
" id="DejaVuSans-76"/>
     </defs>
     <g transform="translate(94.6 237.837818)scale(0.1 -0.1)">
      <use xlink:href="#DejaVuSans-65"/>
      <use x="68.408203" xlink:href="#DejaVuSans-76"/>
      <use x="124.121094" xlink:href="#DejaVuSans-76"/>
     </g>
    </g>
   </g>
  </g>
  <g id="text_22">
   <!-- Clustering of Messages -->
   <defs>
    <path d="M 45.40625 27.984375 
Q 45.40625 37.75 41.375 43.109375 
Q 37.359375 48.484375 30.078125 48.484375 
Q 22.859375 48.484375 18.828125 43.109375 
Q 14.796875 37.75 14.796875 27.984375 
Q 14.796875 18.265625 18.828125 12.890625 
Q 22.859375 7.515625 30.078125 7.515625 
Q 37.359375 7.515625 41.375 12.890625 
Q 45.40625 18.265625 45.40625 27.984375 
z
M 54.390625 6.78125 
Q 54.390625 -7.171875 48.1875 -13.984375 
Q 42 -20.796875 29.203125 -20.796875 
Q 24.46875 -20.796875 20.265625 -20.09375 
Q 16.0625 -19.390625 12.109375 -17.921875 
L 12.109375 -9.1875 
Q 16.0625 -11.328125 19.921875 -12.34375 
Q 23.78125 -13.375 27.78125 -13.375 
Q 36.625 -13.375 41.015625 -8.765625 
Q 45.40625 -4.15625 45.40625 5.171875 
L 45.40625 9.625 
Q 42.625 4.78125 38.28125 2.390625 
Q 33.9375 0 27.875 0 
Q 17.828125 0 11.671875 7.65625 
Q 5.515625 15.328125 5.515625 27.984375 
Q 5.515625 40.671875 11.671875 48.328125 
Q 17.828125 56 27.875 56 
Q 33.9375 56 38.28125 53.609375 
Q 42.625 51.21875 45.40625 46.390625 
L 45.40625 54.6875 
L 54.390625 54.6875 
z
" id="DejaVuSans-103"/>
    <path d="M 37.109375 75.984375 
L 37.109375 68.5 
L 28.515625 68.5 
Q 23.6875 68.5 21.796875 66.546875 
Q 19.921875 64.59375 19.921875 59.515625 
L 19.921875 54.6875 
L 34.71875 54.6875 
L 34.71875 47.703125 
L 19.921875 47.703125 
L 19.921875 0 
L 10.890625 0 
L 10.890625 47.703125 
L 2.296875 47.703125 
L 2.296875 54.6875 
L 10.890625 54.6875 
L 10.890625 58.5 
Q 10.890625 67.625 15.140625 71.796875 
Q 19.390625 75.984375 28.609375 75.984375 
z
" id="DejaVuSans-102"/>
    <path d="M 9.8125 72.90625 
L 24.515625 72.90625 
L 43.109375 23.296875 
L 61.8125 72.90625 
L 76.515625 72.90625 
L 76.515625 0 
L 66.890625 0 
L 66.890625 64.015625 
L 48.09375 14.015625 
L 38.1875 14.015625 
L 19.390625 64.015625 
L 19.390625 0 
L 9.8125 0 
z
" id="DejaVuSans-77"/>
   </defs>
   <g transform="translate(160.805625 16.030125)scale(0.12 -0.12)">
    <use xlink:href="#DejaVuSans-67"/>
    <use x="69.824219" xlink:href="#DejaVuSans-108"/>
    <use x="97.607422" xlink:href="#DejaVuSans-117"/>
    <use x="160.986328" xlink:href="#DejaVuSans-115"/>
    <use x="213.085938" xlink:href="#DejaVuSans-116"/>
    <use x="252.294922" xlink:href="#DejaVuSans-101"/>
    <use x="313.818359" xlink:href="#DejaVuSans-114"/>
    <use x="354.931641" xlink:href="#DejaVuSans-105"/>
    <use x="382.714844" xlink:href="#DejaVuSans-110"/>
    <use x="446.09375" xlink:href="#DejaVuSans-103"/>
    <use x="509.570312" xlink:href="#DejaVuSans-32"/>
    <use x="541.357422" xlink:href="#DejaVuSans-111"/>
    <use x="602.539062" xlink:href="#DejaVuSans-102"/>
    <use x="637.744141" xlink:href="#DejaVuSans-32"/>
    <use x="669.53125" xlink:href="#DejaVuSans-77"/>
    <use x="755.810547" xlink:href="#DejaVuSans-101"/>
    <use x="817.333984" xlink:href="#DejaVuSans-115"/>
    <use x="869.433594" xlink:href="#DejaVuSans-115"/>
    <use x="921.533203" xlink:href="#DejaVuSans-97"/>
    <use x="982.8125" xlink:href="#DejaVuSans-103"/>
    <use x="1046.289062" xlink:href="#DejaVuSans-101"/>
    <use x="1107.8125" xlink:href="#DejaVuSans-115"/>
   </g>
  </g>
 </g>
 <defs>
  <clipPath id="p4ba2d1c38f">
   <rect height="115.70087" width="357.12" x="57.6" y="41.472"/>
  </clipPath>
  <clipPath id="pcd08da4841">
   <rect height="115.70087" width="357.12" x="57.6" y="191.88313"/>
  </clipPath>
 </defs>
</svg>
