<?xml version="1.0" encoding="UTF-8" standalone="no"?>
<!DOCTYPE svg PUBLIC "-//W3C//DTD SVG 1.1//EN"
 "http://www.w3.org/Graphics/SVG/1.1/DTD/svg11.dtd">
<!-- Generated by graphviz version 2.40.1 (20161225.0304)
 -->
<!-- Title: %3 Pages: 1 -->
<svg width="386pt" height="91pt"
 viewBox="0.00 0.00 386.00 90.71" xmlns="http://www.w3.org/2000/svg" xmlns:xlink="http://www.w3.org/1999/xlink">
<g id="graph0" class="graph" transform="scale(1 1) rotate(0) translate(4 86.7061)">
<title>%3</title>
<polygon fill="#ffffff" stroke="transparent" points="-4,4 -4,-86.7061 381.9976,-86.7061 381.9976,4 -4,4"/>
<!-- E0 -->
<g id="node1" class="node">
<title>E0</title>
<polygon fill="#d3d3d3" stroke="#000000" points="25.9963,-82.7061 .0012,-82.7061 .0012,-65.7061 25.9963,-65.7061 25.9963,-82.7061"/>
<text text-anchor="middle" x="12.9988" y="-71.5061" font-family="Times,serif" font-size="9.00" fill="#000000">E0</text>
</g>
<!-- E1 -->
<g id="node2" class="node">
<title>E1</title>
<polygon fill="#d3d3d3" stroke="#000000" points="69.9963,-82.7061 44.0012,-82.7061 44.0012,-65.7061 69.9963,-65.7061 69.9963,-82.7061"/>
<text text-anchor="middle" x="56.9988" y="-71.5061" font-family="Times,serif" font-size="9.00" fill="#000000">E1</text>
</g>
<!-- E0&#45;&gt;E1 -->
<!-- E2 -->
<g id="node3" class="node">
<title>E2</title>
<polygon fill="#d3d3d3" stroke="#000000" points="113.9963,-82.7061 88.0012,-82.7061 88.0012,-65.7061 113.9963,-65.7061 113.9963,-82.7061"/>
<text text-anchor="middle" x="100.9988" y="-71.5061" font-family="Times,serif" font-size="9.00" fill="#000000">E2</text>
</g>
<!-- E1&#45;&gt;E2 -->
<!-- 2 -->
<g id="node12" class="node">
<title>2</title>
<ellipse fill="#ffa07a" stroke="#000000" cx="157.9988" cy="-14.853" rx="14.4914" ry="14.4914"/>
<text text-anchor="middle" x="157.9988" y="-12.153" font-family="Times,serif" font-size="9.00" fill="#000000">2</text>
</g>
<!-- E1&#45;&gt;2 -->
<g id="edge14" class="edge">
<title>E1&#45;&gt;2</title>
<path fill="none" stroke="#ff0000" stroke-width="1.4551" d="M70.1483,-66.7668C85.5338,-58.0256 111.7387,-43.0224 133.9988,-29.7061 134.8083,-29.2218 135.6317,-28.7264 136.4624,-28.2243"/>
<polygon fill="#ff0000" stroke="#ff0000" stroke-width="1.4551" points="138.6389,-30.9956 145.3379,-22.7874 134.9823,-25.0265 138.6389,-30.9956"/>
</g>
<!-- S -->
<g id="node13" class="node">
<title>S</title>
<ellipse fill="#eee8aa" stroke="#000000" cx="223.9988" cy="-14.853" rx="14.7075" ry="14.7075"/>
<text text-anchor="middle" x="223.9988" y="-12.153" font-family="Times,serif" font-size="9.00" fill="#000000">S</text>
</g>
<!-- E1&#45;&gt;S -->
<g id="edge18" class="edge">
<title>E1&#45;&gt;S</title>
<path fill="none" stroke="#00ff00" stroke-width=".1407" d="M70.0023,-69.1043C72.9535,-67.9681 76.0788,-66.7819 78.9988,-65.7061 101.684,-57.3481 164.9315,-35.3338 199.9329,-23.1904"/>
<polygon fill="#00ff00" stroke="#00ff00" stroke-width=".1407" points="201.5109,-26.3477 209.8124,-19.7647 199.2176,-19.734 201.5109,-26.3477"/>
</g>
<!-- E3 -->
<g id="node4" class="node">
<title>E3</title>
<polygon fill="#d3d3d3" stroke="#000000" points="157.9963,-82.7061 132.0012,-82.7061 132.0012,-65.7061 157.9963,-65.7061 157.9963,-82.7061"/>
<text text-anchor="middle" x="144.9988" y="-71.5061" font-family="Times,serif" font-size="9.00" fill="#000000">E3</text>
</g>
<!-- E2&#45;&gt;E3 -->
<!-- 1 -->
<g id="node11" class="node">
<title>1</title>
<ellipse fill="#87cefa" stroke="#000000" cx="110.9988" cy="-14.853" rx="14.4914" ry="14.4914"/>
<text text-anchor="middle" x="110.9988" y="-12.153" font-family="Times,serif" font-size="9.00" fill="#000000">1</text>
</g>
<!-- E2&#45;&gt;1 -->
<g id="edge12" class="edge">
<title>E2&#45;&gt;1</title>
<path fill="none" stroke="#ff0000" stroke-width="1.7108" d="M102.4315,-65.7022C103.593,-58.8086 105.2903,-48.7346 106.8684,-39.3682"/>
<polygon fill="#ff0000" stroke="#ff0000" stroke-width="1.7108" points="110.3544,-39.7438 108.5645,-29.3013 103.4516,-38.5808 110.3544,-39.7438"/>
</g>
<!-- E2&#45;&gt;S -->
<g id="edge17" class="edge">
<title>E2&#45;&gt;S</title>
<path fill="none" stroke="#00ff00" stroke-width=".1726" d="M114.1619,-67.8543C134.9522,-57.822 175.6517,-38.1827 201.2456,-25.8325"/>
<polygon fill="#00ff00" stroke="#00ff00" stroke-width=".1726" points="203.0722,-28.8373 210.5574,-21.3391 200.03,-22.5329 203.0722,-28.8373"/>
</g>
<!-- E4 -->
<g id="node5" class="node">
<title>E4</title>
<polygon fill="#d3d3d3" stroke="#000000" points="201.9963,-82.7061 176.0012,-82.7061 176.0012,-65.7061 201.9963,-65.7061 201.9963,-82.7061"/>
<text text-anchor="middle" x="188.9988" y="-71.5061" font-family="Times,serif" font-size="9.00" fill="#000000">E4</text>
</g>
<!-- E3&#45;&gt;E4 -->
<!-- E5 -->
<g id="node6" class="node">
<title>E5</title>
<polygon fill="#d3d3d3" stroke="#000000" points="245.9963,-82.7061 220.0012,-82.7061 220.0012,-65.7061 245.9963,-65.7061 245.9963,-82.7061"/>
<text text-anchor="middle" x="232.9988" y="-71.5061" font-family="Times,serif" font-size="9.00" fill="#000000">E5</text>
</g>
<!-- E4&#45;&gt;E5 -->
<!-- E6 -->
<g id="node7" class="node">
<title>E6</title>
<polygon fill="#d3d3d3" stroke="#000000" points="289.9963,-82.7061 264.0012,-82.7061 264.0012,-65.7061 289.9963,-65.7061 289.9963,-82.7061"/>
<text text-anchor="middle" x="276.9988" y="-71.5061" font-family="Times,serif" font-size="9.00" fill="#000000">E6</text>
</g>
<!-- E5&#45;&gt;E6 -->
<!-- E5&#45;&gt;S -->
<g id="edge19" class="edge">
<title>E5&#45;&gt;S</title>
<path fill="none" stroke="#ff0000" stroke-width=".8246" d="M231.7093,-65.7022C230.6781,-58.9018 229.1776,-49.0063 227.7738,-39.7483"/>
<polygon fill="#ff0000" stroke="#ff0000" stroke-width=".8246" points="231.2198,-39.1279 226.2601,-29.7657 224.2989,-40.1774 231.2198,-39.1279"/>
</g>
<!-- E7 -->
<g id="node8" class="node">
<title>E7</title>
<polygon fill="#d3d3d3" stroke="#000000" points="333.9963,-82.7061 308.0012,-82.7061 308.0012,-65.7061 333.9963,-65.7061 333.9963,-82.7061"/>
<text text-anchor="middle" x="320.9988" y="-71.5061" font-family="Times,serif" font-size="9.00" fill="#000000">E7</text>
</g>
<!-- E6&#45;&gt;E7 -->
<!-- E8 -->
<g id="node9" class="node">
<title>E8</title>
<polygon fill="#d3d3d3" stroke="#000000" points="377.9963,-82.7061 352.0012,-82.7061 352.0012,-65.7061 377.9963,-65.7061 377.9963,-82.7061"/>
<text text-anchor="middle" x="364.9988" y="-71.5061" font-family="Times,serif" font-size="9.00" fill="#000000">E8</text>
</g>
<!-- E7&#45;&gt;E8 -->
<!-- E7&#45;&gt;S -->
<g id="edge15" class="edge">
<title>E7&#45;&gt;S</title>
<path fill="none" stroke="#00ff00" stroke-width=".5164" d="M307.9169,-66.2015C291.9183,-56.4121 264.6142,-39.7051 245.5085,-28.0145"/>
<polygon fill="#00ff00" stroke="#00ff00" stroke-width=".5164" points="247.23,-24.9647 236.8734,-22.7308 243.5765,-30.9357 247.23,-24.9647"/>
</g>
<!-- 0 -->
<g id="node10" class="node">
<title>0</title>
<ellipse fill="#eee8aa" stroke="#000000" cx="63.9988" cy="-14.853" rx="14.4914" ry="14.4914"/>
<text text-anchor="middle" x="63.9988" y="-12.153" font-family="Times,serif" font-size="9.00" fill="#000000">0</text>
</g>
<!-- E8&#45;&gt;0 -->
<g id="edge16" class="edge">
<title>E8&#45;&gt;0</title>
<path fill="none" stroke="#00ff00" stroke-width=".2639" d="M351.6625,-68.4951C348.8405,-67.4453 345.852,-66.4482 342.9988,-65.7061 232.2276,-36.8932 195.6255,-68.6538 87.9988,-29.7061 86.939,-29.3226 85.876,-28.8881 84.8188,-28.4149"/>
<polygon fill="#00ff00" stroke="#00ff00" stroke-width=".2639" points="86.163,-25.1612 75.7087,-23.4413 82.8087,-31.3052 86.163,-25.1612"/>
</g>
<!-- E8&#45;&gt;S -->
<g id="edge13" class="edge">
<title>E8&#45;&gt;S</title>
<path fill="none" stroke="#00ff00" stroke-width=".8072" d="M351.9866,-68.7287C328.0986,-58.6732 276.9641,-37.1484 247.0635,-24.562"/>
<polygon fill="#00ff00" stroke="#00ff00" stroke-width=".8072" points="248.3821,-21.3196 237.8074,-20.6657 245.6662,-27.7713 248.3821,-21.3196"/>
</g>
<!-- 0&#45;&gt;1 -->
<!-- 1&#45;&gt;2 -->
<!-- 2&#45;&gt;S -->
</g>
</svg>
