<?xml version="1.0" encoding="UTF-8" standalone="no"?>
<!DOCTYPE svg PUBLIC "-//W3C//DTD SVG 1.1//EN"
 "http://www.w3.org/Graphics/SVG/1.1/DTD/svg11.dtd">
<!-- Generated by graphviz version 2.40.1 (20161225.0304)
 -->
<!-- Title: %3 Pages: 1 -->
<svg width="530pt" height="259pt"
 viewBox="0.00 0.00 529.79 258.87" xmlns="http://www.w3.org/2000/svg" xmlns:xlink="http://www.w3.org/1999/xlink">
<g id="graph0" class="graph" transform="scale(1 1) rotate(0) translate(4 254.8726)">
<title>%3</title>
<polygon fill="#ffffff" stroke="transparent" points="-4,4 -4,-254.8726 525.7944,-254.8726 525.7944,4 -4,4"/>
<!-- E0 -->
<g id="node1" class="node">
<title>E0</title>
<polygon fill="#d3d3d3" stroke="#000000" points="25.9963,-250.8726 .0012,-250.8726 .0012,-233.8726 25.9963,-233.8726 25.9963,-250.8726"/>
<text text-anchor="middle" x="12.9988" y="-239.6726" font-family="Times,serif" font-size="9.00" fill="#000000">E0</text>
</g>
<!-- E1 -->
<g id="node2" class="node">
<title>E1</title>
<polygon fill="#d3d3d3" stroke="#000000" points="69.9963,-250.8726 44.0012,-250.8726 44.0012,-233.8726 69.9963,-233.8726 69.9963,-250.8726"/>
<text text-anchor="middle" x="56.9988" y="-239.6726" font-family="Times,serif" font-size="9.00" fill="#000000">E1</text>
</g>
<!-- E0&#45;&gt;E1 -->
<!-- E2 -->
<g id="node3" class="node">
<title>E2</title>
<polygon fill="#d3d3d3" stroke="#000000" points="113.9963,-250.8726 88.0012,-250.8726 88.0012,-233.8726 113.9963,-233.8726 113.9963,-250.8726"/>
<text text-anchor="middle" x="100.9988" y="-239.6726" font-family="Times,serif" font-size="9.00" fill="#000000">E2</text>
</g>
<!-- E1&#45;&gt;E2 -->
<!-- 0 -->
<g id="node10" class="node">
<title>0</title>
<ellipse fill="#87cefa" stroke="#000000" cx="132.9988" cy="-14.853" rx="14.4914" ry="14.4914"/>
<text text-anchor="middle" x="132.9988" y="-12.153" font-family="Times,serif" font-size="9.00" fill="#000000">0</text>
</g>
<!-- E1&#45;&gt;0 -->
<g id="edge16" class="edge">
<title>E1&#45;&gt;0</title>
<path fill="none" stroke="#ff0000" stroke-width="1.2587" d="M59.8853,-233.7314C70.6434,-201.5249 108.6362,-87.7868 125.1914,-38.2257"/>
<polygon fill="#ff0000" stroke="#ff0000" stroke-width="1.2587" points="128.5326,-39.2702 128.3812,-28.6764 121.8932,-37.0524 128.5326,-39.2702"/>
</g>
<!-- 2 -->
<g id="node12" class="node">
<title>2</title>
<ellipse fill="#eee8aa" stroke="#000000" cx="272.9988" cy="-14.853" rx="14.4914" ry="14.4914"/>
<text text-anchor="middle" x="272.9988" y="-12.153" font-family="Times,serif" font-size="9.00" fill="#000000">2</text>
</g>
<!-- E1&#45;&gt;2 -->
<g id="edge18" class="edge">
<title>E1&#45;&gt;2</title>
<path fill="none" stroke="#ff0000" stroke-width=".347" d="M65.2025,-233.7314C96.8978,-200.3457 211.7685,-79.3489 255.7258,-33.0472"/>
<polygon fill="#ff0000" stroke="#ff0000" stroke-width=".347" points="258.4965,-35.2122 262.8434,-25.5501 253.4199,-30.3926 258.4965,-35.2122"/>
</g>
<!-- S -->
<g id="node13" class="node">
<title>S</title>
<ellipse fill="#ffa07a" stroke="#000000" cx="416.9988" cy="-14.853" rx="14.7075" ry="14.7075"/>
<text text-anchor="middle" x="416.9988" y="-12.153" font-family="Times,serif" font-size="9.00" fill="#000000">S</text>
</g>
<!-- E1&#45;&gt;S -->
<g id="edge20" class="edge">
<title>E1&#45;&gt;S</title>
<path fill="none" stroke="#ff0000" stroke-width=".2572" d="M70.3276,-236.6323C73.1501,-235.5845 76.1407,-234.5958 78.9988,-233.8726 140.2438,-218.3754 310.3872,-235.6823 360.9988,-197.8726 410.4994,-160.8928 417.6348,-81.0711 417.8335,-40.157"/>
<polygon fill="#ff0000" stroke="#ff0000" stroke-width=".2572" points="421.3315,-39.9153 417.7405,-29.9476 414.3318,-39.9791 421.3315,-39.9153"/>
</g>
<!-- 5355 -->
<g id="node15" class="node">
<title>5355</title>
<ellipse fill="#add8e6" stroke="#000000" cx="364.9988" cy="-89.7477" rx="24.0833" ry="24.0833"/>
<text text-anchor="middle" x="364.9988" y="-91.5477" font-family="Times,serif" font-size="9.00" fill="#000000">5355</text>
<text text-anchor="middle" x="364.9988" y="-82.5477" font-family="Times,serif" font-size="9.00" fill="#000000">sigm</text>
</g>
<!-- E1&#45;&gt;5355 -->
<g id="edge23" class="edge">
<title>E1&#45;&gt;5355</title>
<path fill="none" stroke="#00ff00" stroke-width=".1938" d="M70.3348,-236.6605C73.1568,-235.6107 76.1454,-234.614 78.9988,-233.8726 134.6013,-219.4258 291.8058,-235.7502 334.9988,-197.8726 355.7954,-179.6352 362.7515,-148.3661 364.8225,-124.1314"/>
<polygon fill="#00ff00" stroke="#00ff00" stroke-width=".1938" points="368.3312,-124.0952 365.45,-113.8997 361.3444,-123.6666 368.3312,-124.0952"/>
</g>
<!-- E3 -->
<g id="node4" class="node">
<title>E3</title>
<polygon fill="#d3d3d3" stroke="#000000" points="157.9963,-250.8726 132.0012,-250.8726 132.0012,-233.8726 157.9963,-233.8726 157.9963,-250.8726"/>
<text text-anchor="middle" x="144.9988" y="-239.6726" font-family="Times,serif" font-size="9.00" fill="#000000">E3</text>
</g>
<!-- E2&#45;&gt;E3 -->
<!-- E4 -->
<g id="node5" class="node">
<title>E4</title>
<polygon fill="#d3d3d3" stroke="#000000" points="201.9963,-250.8726 176.0012,-250.8726 176.0012,-233.8726 201.9963,-233.8726 201.9963,-250.8726"/>
<text text-anchor="middle" x="188.9988" y="-239.6726" font-family="Times,serif" font-size="9.00" fill="#000000">E4</text>
</g>
<!-- E3&#45;&gt;E4 -->
<!-- E5 -->
<g id="node6" class="node">
<title>E5</title>
<polygon fill="#d3d3d3" stroke="#000000" points="245.9963,-250.8726 220.0012,-250.8726 220.0012,-233.8726 245.9963,-233.8726 245.9963,-250.8726"/>
<text text-anchor="middle" x="232.9988" y="-239.6726" font-family="Times,serif" font-size="9.00" fill="#000000">E5</text>
</g>
<!-- E4&#45;&gt;E5 -->
<!-- 1 -->
<g id="node11" class="node">
<title>1</title>
<ellipse fill="#87cefa" stroke="#000000" cx="215.9988" cy="-14.853" rx="14.4914" ry="14.4914"/>
<text text-anchor="middle" x="215.9988" y="-12.153" font-family="Times,serif" font-size="9.00" fill="#000000">1</text>
</g>
<!-- E4&#45;&gt;1 -->
<g id="edge12" class="edge">
<title>E4&#45;&gt;1</title>
<path fill="none" stroke="#ff0000" stroke-width="1.3174" d="M188.2222,-233.7823C186.1152,-207.9736 181.3238,-128.9993 194.9988,-65.7061 197.1093,-55.9379 201.0023,-45.6601 204.8683,-36.9209"/>
<polygon fill="#ff0000" stroke="#ff0000" stroke-width="1.3174" points="208.06,-38.358 209.1252,-27.8169 201.7189,-35.393 208.06,-38.358"/>
</g>
<!-- E6 -->
<g id="node7" class="node">
<title>E6</title>
<polygon fill="#d3d3d3" stroke="#000000" points="289.9963,-250.8726 264.0012,-250.8726 264.0012,-233.8726 289.9963,-233.8726 289.9963,-250.8726"/>
<text text-anchor="middle" x="276.9988" y="-239.6726" font-family="Times,serif" font-size="9.00" fill="#000000">E6</text>
</g>
<!-- E5&#45;&gt;E6 -->
<!-- E5&#45;&gt;0 -->
<g id="edge28" class="edge">
<title>E5&#45;&gt;0</title>
<path fill="none" stroke="#ff0000" stroke-width=".3704" d="M229.2008,-233.7314C214.9823,-201.3815 164.6092,-86.7729 142.9825,-37.5679"/>
<polygon fill="#ff0000" stroke="#ff0000" stroke-width=".3704" points="146.1711,-36.1242 138.9432,-28.3777 139.7628,-38.9408 146.1711,-36.1242"/>
</g>
<!-- E5&#45;&gt;2 -->
<g id="edge17" class="edge">
<title>E5&#45;&gt;2</title>
<path fill="none" stroke="#ff0000" stroke-width=".3634" d="M233.878,-233.849C236.6009,-208.2263 245.5301,-129.7179 258.9988,-65.7061 260.8754,-56.7872 263.409,-47.1165 265.8051,-38.6269"/>
<polygon fill="#ff0000" stroke="#ff0000" stroke-width=".3634" points="269.1768,-39.5664 268.6062,-28.987 262.4548,-37.6132 269.1768,-39.5664"/>
</g>
<!-- E7 -->
<g id="node8" class="node">
<title>E7</title>
<polygon fill="#d3d3d3" stroke="#000000" points="461.9963,-250.8726 436.0012,-250.8726 436.0012,-233.8726 461.9963,-233.8726 461.9963,-250.8726"/>
<text text-anchor="middle" x="448.9988" y="-239.6726" font-family="Times,serif" font-size="9.00" fill="#000000">E7</text>
</g>
<!-- E6&#45;&gt;E7 -->
<!-- E6&#45;&gt;2 -->
<g id="edge13" class="edge">
<title>E6&#45;&gt;2</title>
<path fill="none" stroke="#00ff00" stroke-width="1.3661" d="M275.0322,-233.5608C273.1276,-224.6212 270.3372,-210.3604 268.9988,-197.8726 262.7374,-139.4514 261.9833,-124.3245 265.9988,-65.7061 266.5832,-57.1748 267.7129,-47.8947 268.8971,-39.6255"/>
<polygon fill="#00ff00" stroke="#00ff00" stroke-width="1.3661" points="272.3958,-39.8988 270.4438,-29.4854 265.4758,-38.8432 272.3958,-39.8988"/>
</g>
<!-- E8 -->
<g id="node9" class="node">
<title>E8</title>
<polygon fill="#d3d3d3" stroke="#000000" points="505.9963,-250.8726 480.0012,-250.8726 480.0012,-233.8726 505.9963,-233.8726 505.9963,-250.8726"/>
<text text-anchor="middle" x="492.9988" y="-239.6726" font-family="Times,serif" font-size="9.00" fill="#000000">E8</text>
</g>
<!-- E7&#45;&gt;E8 -->
<!-- E7&#45;&gt;S -->
<g id="edge15" class="edge">
<title>E7&#45;&gt;S</title>
<path fill="none" stroke="#ff0000" stroke-width=".6042" d="M448.6355,-233.8423C447.4357,-208.2011 442.9707,-129.6464 430.9988,-65.7061 429.3636,-56.9726 426.9567,-47.5539 424.598,-39.2241"/>
<polygon fill="#ff0000" stroke="#ff0000" stroke-width=".6042" points="427.8833,-37.9907 421.6978,-29.3889 421.1691,-39.9706 427.8833,-37.9907"/>
</g>
<!-- E8&#45;&gt;2 -->
<g id="edge19" class="edge">
<title>E8&#45;&gt;2</title>
<path fill="none" stroke="#00ff00" stroke-width=".2281" d="M490.6433,-233.6888C482.575,-205.5009 453.4382,-115.5094 397.9988,-65.7061 368.9188,-39.5824 324.6458,-25.9095 297.3375,-19.5547"/>
<polygon fill="#00ff00" stroke="#00ff00" stroke-width=".2281" points="297.9501,-16.1061 287.4344,-17.3988 296.4611,-22.9459 297.9501,-16.1061"/>
</g>
<!-- E8&#45;&gt;S -->
<g id="edge14" class="edge">
<title>E8&#45;&gt;S</title>
<path fill="none" stroke="#ff0000" stroke-width=".6447" d="M497.0109,-233.5026C508.6986,-206.2279 539.8742,-122.0422 506.9988,-65.7061 493.0066,-41.7287 463.0635,-28.1607 441.5549,-21.1768"/>
<polygon fill="#ff0000" stroke="#ff0000" stroke-width=".6447" points="442.3638,-17.7658 431.7805,-18.2605 440.3624,-24.4736 442.3638,-17.7658"/>
</g>
<!-- 5470 -->
<g id="node16" class="node">
<title>5470</title>
<ellipse fill="#add8e6" stroke="#000000" cx="301.9988" cy="-173.831" rx="24.0833" ry="24.0833"/>
<text text-anchor="middle" x="301.9988" y="-175.631" font-family="Times,serif" font-size="9.00" fill="#000000">5470</text>
<text text-anchor="middle" x="301.9988" y="-166.631" font-family="Times,serif" font-size="9.00" fill="#000000">sigm</text>
</g>
<!-- E8&#45;&gt;5470 -->
<g id="edge25" class="edge">
<title>E8&#45;&gt;5470</title>
<path fill="none" stroke="#00ff00" stroke-width=".1308" d="M479.992,-237.2797C477.0409,-236.143 473.9166,-234.9544 470.9988,-233.8726 423.7711,-216.3634 368.7488,-197.008 334.6405,-185.1309"/>
<polygon fill="#00ff00" stroke="#00ff00" stroke-width=".1308" points="335.3531,-181.6732 324.7583,-181.6953 333.0544,-188.285 335.3531,-181.6732"/>
</g>
<!-- 0&#45;&gt;1 -->
<!-- 1&#45;&gt;2 -->
<!-- 2&#45;&gt;S -->
<!-- 5056 -->
<g id="node14" class="node">
<title>5056</title>
<ellipse fill="#f0e68c" stroke="#000000" cx="298.9988" cy="-89.7477" rx="24.0833" ry="24.0833"/>
<text text-anchor="middle" x="298.9988" y="-91.5477" font-family="Times,serif" font-size="9.00" fill="#000000">5056</text>
<text text-anchor="middle" x="298.9988" y="-82.5477" font-family="Times,serif" font-size="9.00" fill="#000000">soft</text>
</g>
<!-- 5056&#45;&gt;1 -->
<g id="edge21" class="edge">
<title>5056&#45;&gt;1</title>
<path fill="none" stroke="#00ff00" stroke-width=".1966" d="M280.989,-73.4967C267.2787,-61.1252 248.4682,-44.1517 234.6113,-31.648"/>
<polygon fill="#00ff00" stroke="#00ff00" stroke-width=".1966" points="236.8701,-28.9719 227.101,-24.8711 232.1806,-34.1689 236.8701,-28.9719"/>
</g>
<!-- 5056&#45;&gt;2 -->
<g id="edge22" class="edge">
<title>5056&#45;&gt;2</title>
<path fill="none" stroke="#ff0000" stroke-width=".4947" d="M291.0566,-66.8699C287.9317,-57.8684 284.3449,-47.5363 281.1956,-38.4646"/>
<polygon fill="#ff0000" stroke="#ff0000" stroke-width=".4947" points="284.46,-37.1953 277.8739,-28.8962 277.8471,-39.491 284.46,-37.1953"/>
</g>
<!-- 5355&#45;&gt;2 -->
<g id="edge24" class="edge">
<title>5355&#45;&gt;2</title>
<path fill="none" stroke="#00ff00" stroke-width=".1997" d="M345.9363,-74.2295C330.3047,-61.5042 308.2654,-43.5627 292.5123,-30.7384"/>
<polygon fill="#00ff00" stroke="#00ff00" stroke-width=".1997" points="294.4527,-27.8049 284.4878,-24.2059 290.0333,-33.2336 294.4527,-27.8049"/>
</g>
<!-- 5355&#45;&gt;S -->
<g id="edge27" class="edge">
<title>5355&#45;&gt;S</title>
<path fill="none" stroke="#00ff00" stroke-width=".2837" d="M378.9338,-69.6773C386.2668,-59.1157 395.245,-46.1846 402.6399,-35.5339"/>
<polygon fill="#00ff00" stroke="#00ff00" stroke-width=".2837" points="405.5801,-37.436 408.4084,-27.2256 399.8302,-33.4437 405.5801,-37.436"/>
</g>
<!-- 5470&#45;&gt;5056 -->
<g id="edge26" class="edge">
<title>5470&#45;&gt;5056</title>
<path fill="none" stroke="#00ff00" stroke-width=".2821" d="M301.1311,-149.5106C300.8481,-141.5798 300.5284,-132.6191 300.2243,-124.0953"/>
<polygon fill="#00ff00" stroke="#00ff00" stroke-width=".2821" points="303.719,-123.8822 299.8646,-114.0134 296.7234,-124.1319 303.719,-123.8822"/>
</g>
</g>
</svg>
