<?xml version="1.0" encoding="UTF-8" standalone="no"?>
<!DOCTYPE svg PUBLIC "-//W3C//DTD SVG 1.1//EN"
 "http://www.w3.org/Graphics/SVG/1.1/DTD/svg11.dtd">
<!-- Generated by graphviz version 2.40.1 (20161225.0304)
 -->
<!-- Title: %3 Pages: 1 -->
<svg width="413pt" height="175pt"
 viewBox="0.00 0.00 412.86 174.79" xmlns="http://www.w3.org/2000/svg" xmlns:xlink="http://www.w3.org/1999/xlink">
<g id="graph0" class="graph" transform="scale(1 1) rotate(0) translate(4 170.7893)">
<title>%3</title>
<polygon fill="#ffffff" stroke="transparent" points="-4,4 -4,-170.7893 408.8583,-170.7893 408.8583,4 -4,4"/>
<!-- E0 -->
<g id="node1" class="node">
<title>E0</title>
<polygon fill="#d3d3d3" stroke="#000000" points="25.9963,-166.7893 .0012,-166.7893 .0012,-149.7893 25.9963,-149.7893 25.9963,-166.7893"/>
<text text-anchor="middle" x="12.9988" y="-155.5893" font-family="Times,serif" font-size="9.00" fill="#000000">E0</text>
</g>
<!-- E1 -->
<g id="node2" class="node">
<title>E1</title>
<polygon fill="#d3d3d3" stroke="#000000" points="69.9963,-166.7893 44.0012,-166.7893 44.0012,-149.7893 69.9963,-149.7893 69.9963,-166.7893"/>
<text text-anchor="middle" x="56.9988" y="-155.5893" font-family="Times,serif" font-size="9.00" fill="#000000">E1</text>
</g>
<!-- E0&#45;&gt;E1 -->
<!-- E2 -->
<g id="node3" class="node">
<title>E2</title>
<polygon fill="#d3d3d3" stroke="#000000" points="113.9963,-166.7893 88.0012,-166.7893 88.0012,-149.7893 113.9963,-149.7893 113.9963,-166.7893"/>
<text text-anchor="middle" x="100.9988" y="-155.5893" font-family="Times,serif" font-size="9.00" fill="#000000">E2</text>
</g>
<!-- E1&#45;&gt;E2 -->
<!-- S -->
<g id="node13" class="node">
<title>S</title>
<ellipse fill="#87cefa" stroke="#000000" cx="317.9988" cy="-14.853" rx="14.7075" ry="14.7075"/>
<text text-anchor="middle" x="317.9988" y="-12.153" font-family="Times,serif" font-size="9.00" fill="#000000">S</text>
</g>
<!-- E1&#45;&gt;S -->
<g id="edge15" class="edge">
<title>E1&#45;&gt;S</title>
<path fill="none" stroke="#ff0000" stroke-width="1.2843" d="M70.0169,-153.2267C72.9674,-152.0884 76.0886,-150.8915 78.9988,-149.7893 122.0024,-133.5026 135.2524,-135.1037 175.9988,-113.7893 222.6426,-89.3901 271.9493,-52.0502 298.4287,-30.9089"/>
<polygon fill="#ff0000" stroke="#ff0000" stroke-width="1.2843" points="300.9098,-33.4044 306.4968,-24.4024 296.5155,-27.9555 300.9098,-33.4044"/>
</g>
<!-- E3 -->
<g id="node4" class="node">
<title>E3</title>
<polygon fill="#d3d3d3" stroke="#000000" points="157.9963,-166.7893 132.0012,-166.7893 132.0012,-149.7893 157.9963,-149.7893 157.9963,-166.7893"/>
<text text-anchor="middle" x="144.9988" y="-155.5893" font-family="Times,serif" font-size="9.00" fill="#000000">E3</text>
</g>
<!-- E2&#45;&gt;E3 -->
<!-- 2 -->
<g id="node12" class="node">
<title>2</title>
<ellipse fill="#87cefa" stroke="#000000" cx="270.9988" cy="-14.853" rx="14.4914" ry="14.4914"/>
<text text-anchor="middle" x="270.9988" y="-12.153" font-family="Times,serif" font-size="9.00" fill="#000000">2</text>
</g>
<!-- E2&#45;&gt;2 -->
<g id="edge13" class="edge">
<title>E2&#45;&gt;2</title>
<path fill="none" stroke="#ff0000" stroke-width="1.657" d="M114.1518,-151.8736C129.6881,-143.9906 155.9526,-129.6906 175.9988,-113.7893 206.8252,-89.337 237.4351,-55.233 255.2657,-34.1235"/>
<polygon fill="#ff0000" stroke="#ff0000" stroke-width="1.657" points="258.1588,-36.1192 261.8751,-26.1975 252.7827,-31.6361 258.1588,-36.1192"/>
</g>
<!-- E4 -->
<g id="node5" class="node">
<title>E4</title>
<polygon fill="#d3d3d3" stroke="#000000" points="201.9963,-166.7893 176.0012,-166.7893 176.0012,-149.7893 201.9963,-149.7893 201.9963,-166.7893"/>
<text text-anchor="middle" x="188.9988" y="-155.5893" font-family="Times,serif" font-size="9.00" fill="#000000">E4</text>
</g>
<!-- E3&#45;&gt;E4 -->
<!-- E5 -->
<g id="node6" class="node">
<title>E5</title>
<polygon fill="#d3d3d3" stroke="#000000" points="245.9963,-166.7893 220.0012,-166.7893 220.0012,-149.7893 245.9963,-149.7893 245.9963,-166.7893"/>
<text text-anchor="middle" x="232.9988" y="-155.5893" font-family="Times,serif" font-size="9.00" fill="#000000">E5</text>
</g>
<!-- E4&#45;&gt;E5 -->
<!-- 4972 -->
<g id="node15" class="node">
<title>4972</title>
<ellipse fill="#add8e6" stroke="#000000" cx="38.9988" cy="-89.7477" rx="24.0833" ry="24.0833"/>
<text text-anchor="middle" x="38.9988" y="-91.5477" font-family="Times,serif" font-size="9.00" fill="#000000">4972</text>
<text text-anchor="middle" x="38.9988" y="-82.5477" font-family="Times,serif" font-size="9.00" fill="#000000">sigm</text>
</g>
<!-- E4&#45;&gt;4972 -->
<g id="edge17" class="edge">
<title>E4&#45;&gt;4972</title>
<path fill="none" stroke="#ff0000" stroke-width="1.0231" d="M175.9345,-153.1736C147.3973,-141.9887 81.6596,-116.1636 76.9988,-113.7893 73.9142,-112.218 70.758,-110.4697 67.6476,-108.6528"/>
<polygon fill="#ff0000" stroke="#ff0000" stroke-width="1.0231" points="69.4606,-105.659 59.1005,-103.4411 65.8163,-111.6356 69.4606,-105.659"/>
</g>
<!-- E6 -->
<g id="node7" class="node">
<title>E6</title>
<polygon fill="#d3d3d3" stroke="#000000" points="289.9963,-166.7893 264.0012,-166.7893 264.0012,-149.7893 289.9963,-149.7893 289.9963,-166.7893"/>
<text text-anchor="middle" x="276.9988" y="-155.5893" font-family="Times,serif" font-size="9.00" fill="#000000">E6</text>
</g>
<!-- E5&#45;&gt;E6 -->
<!-- 1 -->
<g id="node11" class="node">
<title>1</title>
<ellipse fill="#87cefa" stroke="#000000" cx="223.9988" cy="-14.853" rx="14.4914" ry="14.4914"/>
<text text-anchor="middle" x="223.9988" y="-12.153" font-family="Times,serif" font-size="9.00" fill="#000000">1</text>
</g>
<!-- E5&#45;&gt;1 -->
<g id="edge14" class="edge">
<title>E5&#45;&gt;1</title>
<path fill="none" stroke="#ff0000" stroke-width="1.6696" d="M232.4627,-149.7463C231.13,-128.5056 227.6259,-72.6603 225.5683,-39.8674"/>
<polygon fill="#ff0000" stroke="#ff0000" stroke-width="1.6696" points="229.0506,-39.4745 224.9312,-29.7133 222.0644,-39.9129 229.0506,-39.4745"/>
</g>
<!-- E7 -->
<g id="node8" class="node">
<title>E7</title>
<polygon fill="#d3d3d3" stroke="#000000" points="333.9963,-166.7893 308.0012,-166.7893 308.0012,-149.7893 333.9963,-149.7893 333.9963,-166.7893"/>
<text text-anchor="middle" x="320.9988" y="-155.5893" font-family="Times,serif" font-size="9.00" fill="#000000">E7</text>
</g>
<!-- E6&#45;&gt;E7 -->
<!-- 0 -->
<g id="node10" class="node">
<title>0</title>
<ellipse fill="#87cefa" stroke="#000000" cx="159.9988" cy="-14.853" rx="14.4914" ry="14.4914"/>
<text text-anchor="middle" x="159.9988" y="-12.153" font-family="Times,serif" font-size="9.00" fill="#000000">0</text>
</g>
<!-- E6&#45;&gt;0 -->
<g id="edge16" class="edge">
<title>E6&#45;&gt;0</title>
<path fill="none" stroke="#00ff00" stroke-width=".1055" d="M263.5973,-152.8047C260.78,-151.7385 257.8099,-150.6775 254.9988,-149.7893 191.6829,-129.7846 150.9052,-166.0937 109.9988,-113.7893 96.8335,-96.9558 101.9043,-85.4841 109.9988,-65.7061 116.0529,-50.9135 128.7157,-38.1084 139.7825,-29.048"/>
<polygon fill="#00ff00" stroke="#00ff00" stroke-width=".1055" points="142.0086,-31.7514 147.7984,-22.8785 137.7391,-26.2042 142.0086,-31.7514"/>
</g>
<!-- 5413 -->
<g id="node14" class="node">
<title>5413</title>
<ellipse fill="#add8e6" stroke="#000000" cx="142.9988" cy="-89.7477" rx="24.0833" ry="24.0833"/>
<text text-anchor="middle" x="142.9988" y="-91.5477" font-family="Times,serif" font-size="9.00" fill="#000000">5413</text>
<text text-anchor="middle" x="142.9988" y="-82.5477" font-family="Times,serif" font-size="9.00" fill="#000000">sigm</text>
</g>
<!-- E6&#45;&gt;5413 -->
<g id="edge20" class="edge">
<title>E6&#45;&gt;5413</title>
<path fill="none" stroke="#00ff00" stroke-width=".5983" d="M263.6892,-152.772C244.9063,-144.8402 209.7092,-129.4396 180.9988,-113.7893 177.9592,-112.1325 174.8325,-110.3282 171.7401,-108.4774"/>
<polygon fill="#00ff00" stroke="#00ff00" stroke-width=".5983" points="173.5652,-105.4909 163.2162,-103.2217 169.8912,-111.4493 173.5652,-105.4909"/>
</g>
<!-- 5456 -->
<g id="node16" class="node">
<title>5456</title>
<ellipse fill="#add8e6" stroke="#000000" cx="360.9988" cy="-89.7477" rx="24.0833" ry="24.0833"/>
<text text-anchor="middle" x="360.9988" y="-91.5477" font-family="Times,serif" font-size="9.00" fill="#000000">5456</text>
<text text-anchor="middle" x="360.9988" y="-82.5477" font-family="Times,serif" font-size="9.00" fill="#000000">sigm</text>
</g>
<!-- E6&#45;&gt;5456 -->
<g id="edge22" class="edge">
<title>E6&#45;&gt;5456</title>
<path fill="none" stroke="#00ff00" stroke-width=".3884" d="M287.6374,-149.6085C299.2915,-140.0991 318.4303,-124.4824 334.2375,-111.5842"/>
<polygon fill="#00ff00" stroke="#00ff00" stroke-width=".3884" points="336.6074,-114.1677 342.1426,-105.1338 332.1819,-108.7442 336.6074,-114.1677"/>
</g>
<!-- E8 -->
<g id="node9" class="node">
<title>E8</title>
<polygon fill="#d3d3d3" stroke="#000000" points="401.9963,-166.7893 376.0012,-166.7893 376.0012,-149.7893 401.9963,-149.7893 401.9963,-166.7893"/>
<text text-anchor="middle" x="388.9988" y="-155.5893" font-family="Times,serif" font-size="9.00" fill="#000000">E8</text>
</g>
<!-- E7&#45;&gt;E8 -->
<!-- E7&#45;&gt;0 -->
<g id="edge18" class="edge">
<title>E7&#45;&gt;0</title>
<path fill="none" stroke="#00ff00" stroke-width=".3423" d="M311.4096,-149.7463C285.3383,-126.5191 212.8201,-61.9121 178.4807,-31.3188"/>
<polygon fill="#00ff00" stroke="#00ff00" stroke-width=".3423" points="180.7965,-28.6943 171.0016,-24.6555 176.14,-33.921 180.7965,-28.6943"/>
</g>
<!-- E8&#45;&gt;0 -->
<g id="edge12" class="edge">
<title>E8&#45;&gt;0</title>
<path fill="none" stroke="#ff0000" stroke-width="3.0556" d="M392.902,-149.69C400.3779,-131.7752 414.2619,-90.0984 393.9988,-65.7061 338.2417,1.413 285.1875,-52.6426 200.9988,-29.7061 195.1552,-28.114 188.9599,-26.0665 183.2034,-24.0037"/>
<polygon fill="#ff0000" stroke="#ff0000" stroke-width="3.0556" points="184.0789,-20.5944 173.4865,-20.3691 181.6265,-27.1507 184.0789,-20.5944"/>
</g>
<!-- 0&#45;&gt;1 -->
<!-- 1&#45;&gt;2 -->
<!-- 2&#45;&gt;S -->
<!-- 5413&#45;&gt;0 -->
<g id="edge21" class="edge">
<title>5413&#45;&gt;0</title>
<path fill="none" stroke="#00ff00" stroke-width=".1234" d="M148.3777,-66.0506C150.3417,-57.3979 152.5639,-47.6078 154.5353,-38.9229"/>
<polygon fill="#00ff00" stroke="#00ff00" stroke-width=".1234" points="157.9808,-39.5549 156.7812,-29.0282 151.1544,-38.0054 157.9808,-39.5549"/>
</g>
<!-- 4972&#45;&gt;0 -->
<g id="edge19" class="edge">
<title>4972&#45;&gt;0</title>
<path fill="none" stroke="#ff0000" stroke-width=".3639" d="M59.4749,-76.7173C65.1409,-73.1323 71.2995,-69.2547 76.9988,-65.7061 97.8652,-52.7139 121.8144,-38.0688 138.6071,-27.8433"/>
<polygon fill="#ff0000" stroke="#ff0000" stroke-width=".3639" points="140.8653,-30.5664 147.59,-22.3793 137.2275,-24.5859 140.8653,-30.5664"/>
</g>
<!-- 5456&#45;&gt;S -->
<g id="edge23" class="edge">
<title>5456&#45;&gt;S</title>
<path fill="none" stroke="#ff0000" stroke-width="1.5218" d="M349.0209,-68.8854C343.237,-58.8113 336.3009,-46.7305 330.4554,-36.5493"/>
<polygon fill="#ff0000" stroke="#ff0000" stroke-width="1.5218" points="333.4726,-34.7748 325.4581,-27.8452 327.402,-38.2602 333.4726,-34.7748"/>
</g>
</g>
</svg>
