<?xml version="1.0" encoding="UTF-8" standalone="no"?>
<!DOCTYPE svg PUBLIC "-//W3C//DTD SVG 1.1//EN"
 "http://www.w3.org/Graphics/SVG/1.1/DTD/svg11.dtd">
<!-- Generated by graphviz version 2.40.1 (20161225.0304)
 -->
<!-- Title: %3 Pages: 1 -->
<svg width="388pt" height="175pt"
 viewBox="0.00 0.00 388.00 174.79" xmlns="http://www.w3.org/2000/svg" xmlns:xlink="http://www.w3.org/1999/xlink">
<g id="graph0" class="graph" transform="scale(1 1) rotate(0) translate(4 170.7893)">
<title>%3</title>
<polygon fill="#ffffff" stroke="transparent" points="-4,4 -4,-170.7893 383.9976,-170.7893 383.9976,4 -4,4"/>
<!-- E0 -->
<g id="node1" class="node">
<title>E0</title>
<polygon fill="#d3d3d3" stroke="#000000" points="25.9963,-166.7893 .0012,-166.7893 .0012,-149.7893 25.9963,-149.7893 25.9963,-166.7893"/>
<text text-anchor="middle" x="12.9988" y="-155.5893" font-family="Times,serif" font-size="9.00" fill="#000000">E0</text>
</g>
<!-- E1 -->
<g id="node2" class="node">
<title>E1</title>
<polygon fill="#d3d3d3" stroke="#000000" points="69.9963,-166.7893 44.0012,-166.7893 44.0012,-149.7893 69.9963,-149.7893 69.9963,-166.7893"/>
<text text-anchor="middle" x="56.9988" y="-155.5893" font-family="Times,serif" font-size="9.00" fill="#000000">E1</text>
</g>
<!-- E0&#45;&gt;E1 -->
<!-- E2 -->
<g id="node3" class="node">
<title>E2</title>
<polygon fill="#d3d3d3" stroke="#000000" points="113.9963,-166.7893 88.0012,-166.7893 88.0012,-149.7893 113.9963,-149.7893 113.9963,-166.7893"/>
<text text-anchor="middle" x="100.9988" y="-155.5893" font-family="Times,serif" font-size="9.00" fill="#000000">E2</text>
</g>
<!-- E1&#45;&gt;E2 -->
<!-- 2 -->
<g id="node12" class="node">
<title>2</title>
<ellipse fill="#87cefa" stroke="#000000" cx="222.9988" cy="-14.853" rx="14.4914" ry="14.4914"/>
<text text-anchor="middle" x="222.9988" y="-12.153" font-family="Times,serif" font-size="9.00" fill="#000000">2</text>
</g>
<!-- E1&#45;&gt;2 -->
<g id="edge12" class="edge">
<title>E1&#45;&gt;2</title>
<path fill="none" stroke="#ff0000" stroke-width=".4661" d="M70.4619,-152.9865C73.2747,-151.9071 76.2274,-150.7948 78.9988,-149.7893 125.7695,-132.8201 149.1327,-148.2724 184.9988,-113.7893 205.6303,-93.9534 215.2192,-61.6966 219.5677,-39.436"/>
<polygon fill="#ff0000" stroke="#ff0000" stroke-width=".4661" points="223.0463,-39.8604 221.3069,-29.4093 216.1493,-38.664 223.0463,-39.8604"/>
</g>
<!-- E3 -->
<g id="node4" class="node">
<title>E3</title>
<polygon fill="#d3d3d3" stroke="#000000" points="157.9963,-166.7893 132.0012,-166.7893 132.0012,-149.7893 157.9963,-149.7893 157.9963,-166.7893"/>
<text text-anchor="middle" x="144.9988" y="-155.5893" font-family="Times,serif" font-size="9.00" fill="#000000">E3</text>
</g>
<!-- E2&#45;&gt;E3 -->
<!-- 0 -->
<g id="node10" class="node">
<title>0</title>
<ellipse fill="#87cefa" stroke="#000000" cx="114.9988" cy="-14.853" rx="14.4914" ry="14.4914"/>
<text text-anchor="middle" x="114.9988" y="-12.153" font-family="Times,serif" font-size="9.00" fill="#000000">0</text>
</g>
<!-- E2&#45;&gt;0 -->
<g id="edge13" class="edge">
<title>E2&#45;&gt;0</title>
<path fill="none" stroke="#ff0000" stroke-width="2.7072" d="M101.8326,-149.7463C103.9058,-128.5056 109.3565,-72.6603 112.5573,-39.8674"/>
<polygon fill="#ff0000" stroke="#ff0000" stroke-width="2.7072" points="116.0603,-40.006 113.5484,-29.7133 109.0934,-39.326 116.0603,-40.006"/>
</g>
<!-- E4 -->
<g id="node5" class="node">
<title>E4</title>
<polygon fill="#d3d3d3" stroke="#000000" points="201.9963,-166.7893 176.0012,-166.7893 176.0012,-149.7893 201.9963,-149.7893 201.9963,-166.7893"/>
<text text-anchor="middle" x="188.9988" y="-155.5893" font-family="Times,serif" font-size="9.00" fill="#000000">E4</text>
</g>
<!-- E3&#45;&gt;E4 -->
<!-- E5 -->
<g id="node6" class="node">
<title>E5</title>
<polygon fill="#d3d3d3" stroke="#000000" points="247.9963,-166.7893 222.0012,-166.7893 222.0012,-149.7893 247.9963,-149.7893 247.9963,-166.7893"/>
<text text-anchor="middle" x="234.9988" y="-155.5893" font-family="Times,serif" font-size="9.00" fill="#000000">E5</text>
</g>
<!-- E4&#45;&gt;E5 -->
<!-- 5427 -->
<g id="node14" class="node">
<title>5427</title>
<ellipse fill="#add8e6" stroke="#000000" cx="151.9988" cy="-89.7477" rx="24.0833" ry="24.0833"/>
<text text-anchor="middle" x="151.9988" y="-91.5477" font-family="Times,serif" font-size="9.00" fill="#000000">5427</text>
<text text-anchor="middle" x="151.9988" y="-82.5477" font-family="Times,serif" font-size="9.00" fill="#000000">sigm</text>
</g>
<!-- E4&#45;&gt;5427 -->
<g id="edge18" class="edge">
<title>E4&#45;&gt;5427</title>
<path fill="none" stroke="#00ff00" stroke-width=".4483" d="M184.3127,-149.6085C180.2413,-142.0663 174.0959,-130.6822 168.2538,-119.8597"/>
<polygon fill="#00ff00" stroke="#00ff00" stroke-width=".4483" points="171.3,-118.1346 163.4698,-110.9975 165.1402,-121.4598 171.3,-118.1346"/>
</g>
<!-- E6 -->
<g id="node7" class="node">
<title>E6</title>
<polygon fill="#d3d3d3" stroke="#000000" points="291.9963,-166.7893 266.0012,-166.7893 266.0012,-149.7893 291.9963,-149.7893 291.9963,-166.7893"/>
<text text-anchor="middle" x="278.9988" y="-155.5893" font-family="Times,serif" font-size="9.00" fill="#000000">E6</text>
</g>
<!-- E5&#45;&gt;E6 -->
<!-- E5&#45;&gt;2 -->
<g id="edge16" class="edge">
<title>E5&#45;&gt;2</title>
<path fill="none" stroke="#00ff00" stroke-width=".5112" d="M234.2841,-149.7463C232.507,-128.5056 227.835,-72.6603 225.0915,-39.8674"/>
<polygon fill="#00ff00" stroke="#00ff00" stroke-width=".5112" points="228.5636,-39.3867 224.242,-29.7133 221.588,-39.9703 228.5636,-39.3867"/>
</g>
<!-- E7 -->
<g id="node8" class="node">
<title>E7</title>
<polygon fill="#d3d3d3" stroke="#000000" points="335.9963,-166.7893 310.0012,-166.7893 310.0012,-149.7893 335.9963,-149.7893 335.9963,-166.7893"/>
<text text-anchor="middle" x="322.9988" y="-155.5893" font-family="Times,serif" font-size="9.00" fill="#000000">E7</text>
</g>
<!-- E6&#45;&gt;E7 -->
<!-- 1 -->
<g id="node11" class="node">
<title>1</title>
<ellipse fill="#87cefa" stroke="#000000" cx="163.9988" cy="-14.853" rx="14.4914" ry="14.4914"/>
<text text-anchor="middle" x="163.9988" y="-12.153" font-family="Times,serif" font-size="9.00" fill="#000000">1</text>
</g>
<!-- E6&#45;&gt;1 -->
<g id="edge14" class="edge">
<title>E6&#45;&gt;1</title>
<path fill="none" stroke="#ff0000" stroke-width="1.602" d="M272.1494,-149.7463C254.1163,-127.2541 204.9735,-65.9597 179.6088,-34.323"/>
<polygon fill="#ff0000" stroke="#ff0000" stroke-width="1.602" points="182.1168,-31.8559 173.1308,-26.2432 176.6554,-36.2346 182.1168,-31.8559"/>
</g>
<!-- E8 -->
<g id="node9" class="node">
<title>E8</title>
<polygon fill="#d3d3d3" stroke="#000000" points="379.9963,-166.7893 354.0012,-166.7893 354.0012,-149.7893 379.9963,-149.7893 379.9963,-166.7893"/>
<text text-anchor="middle" x="366.9988" y="-155.5893" font-family="Times,serif" font-size="9.00" fill="#000000">E8</text>
</g>
<!-- E7&#45;&gt;E8 -->
<!-- S -->
<g id="node13" class="node">
<title>S</title>
<ellipse fill="#87cefa" stroke="#000000" cx="322.9988" cy="-14.853" rx="14.7075" ry="14.7075"/>
<text text-anchor="middle" x="322.9988" y="-12.153" font-family="Times,serif" font-size="9.00" fill="#000000">S</text>
</g>
<!-- E7&#45;&gt;S -->
<g id="edge15" class="edge">
<title>E7&#45;&gt;S</title>
<path fill="none" stroke="#ff0000" stroke-width="1.8404" d="M322.9988,-149.7463C322.9988,-128.5056 322.9988,-72.6603 322.9988,-39.8674"/>
<polygon fill="#ff0000" stroke="#ff0000" stroke-width="1.8404" points="326.4989,-39.7133 322.9988,-29.7133 319.4989,-39.7133 326.4989,-39.7133"/>
</g>
<!-- E8&#45;&gt;S -->
<g id="edge17" class="edge">
<title>E8&#45;&gt;S</title>
<path fill="none" stroke="#ff0000" stroke-width=".4749" d="M364.3781,-149.7463C357.8007,-128.3044 340.406,-71.5993 330.3881,-38.9418"/>
<polygon fill="#ff0000" stroke="#ff0000" stroke-width=".4749" points="333.6967,-37.7927 327.4179,-29.2589 327.0045,-39.8456 333.6967,-37.7927"/>
</g>
<!-- 0&#45;&gt;1 -->
<!-- 1&#45;&gt;2 -->
<!-- 2&#45;&gt;S -->
<!-- 5427&#45;&gt;1 -->
<g id="edge19" class="edge">
<title>5427&#45;&gt;1</title>
<path fill="none" stroke="#00ff00" stroke-width=".4519" d="M155.8617,-65.6383C157.2106,-57.2196 158.7253,-47.7662 160.0788,-39.3188"/>
<polygon fill="#00ff00" stroke="#00ff00" stroke-width=".4519" points="163.5562,-39.7379 161.6824,-29.3101 156.6443,-38.6304 163.5562,-39.7379"/>
</g>
</g>
</svg>
