<?xml version="1.0" encoding="UTF-8" standalone="no"?>
<!DOCTYPE svg PUBLIC "-//W3C//DTD SVG 1.1//EN"
 "http://www.w3.org/Graphics/SVG/1.1/DTD/svg11.dtd">
<!-- Generated by graphviz version 2.40.1 (20161225.0304)
 -->
<!-- Title: %3 Pages: 1 -->
<svg width="399pt" height="343pt"
 viewBox="0.00 0.00 399.00 342.96" xmlns="http://www.w3.org/2000/svg" xmlns:xlink="http://www.w3.org/1999/xlink">
<g id="graph0" class="graph" transform="scale(1 1) rotate(0) translate(4 338.9559)">
<title>%3</title>
<polygon fill="#ffffff" stroke="transparent" points="-4,4 -4,-338.9559 394.9976,-338.9559 394.9976,4 -4,4"/>
<!-- E0 -->
<g id="node1" class="node">
<title>E0</title>
<polygon fill="#d3d3d3" stroke="#000000" points="25.9963,-334.9559 .0012,-334.9559 .0012,-317.9559 25.9963,-317.9559 25.9963,-334.9559"/>
<text text-anchor="middle" x="12.9988" y="-323.7559" font-family="Times,serif" font-size="9.00" fill="#000000">E0</text>
</g>
<!-- E1 -->
<g id="node2" class="node">
<title>E1</title>
<polygon fill="#d3d3d3" stroke="#000000" points="69.9963,-334.9559 44.0012,-334.9559 44.0012,-317.9559 69.9963,-317.9559 69.9963,-334.9559"/>
<text text-anchor="middle" x="56.9988" y="-323.7559" font-family="Times,serif" font-size="9.00" fill="#000000">E1</text>
</g>
<!-- E0&#45;&gt;E1 -->
<!-- E2 -->
<g id="node3" class="node">
<title>E2</title>
<polygon fill="#d3d3d3" stroke="#000000" points="113.9963,-334.9559 88.0012,-334.9559 88.0012,-317.9559 113.9963,-317.9559 113.9963,-334.9559"/>
<text text-anchor="middle" x="100.9988" y="-323.7559" font-family="Times,serif" font-size="9.00" fill="#000000">E2</text>
</g>
<!-- E1&#45;&gt;E2 -->
<!-- E3 -->
<g id="node4" class="node">
<title>E3</title>
<polygon fill="#d3d3d3" stroke="#000000" points="157.9963,-334.9559 132.0012,-334.9559 132.0012,-317.9559 157.9963,-317.9559 157.9963,-334.9559"/>
<text text-anchor="middle" x="144.9988" y="-323.7559" font-family="Times,serif" font-size="9.00" fill="#000000">E3</text>
</g>
<!-- E2&#45;&gt;E3 -->
<!-- 3814 -->
<g id="node15" class="node">
<title>3814</title>
<ellipse fill="#add8e6" stroke="#000000" cx="186.9988" cy="-173.831" rx="24.0833" ry="24.0833"/>
<text text-anchor="middle" x="186.9988" y="-175.631" font-family="Times,serif" font-size="9.00" fill="#000000">3814</text>
<text text-anchor="middle" x="186.9988" y="-166.631" font-family="Times,serif" font-size="9.00" fill="#000000">sigm</text>
</g>
<!-- E2&#45;&gt;3814 -->
<g id="edge18" class="edge">
<title>E2&#45;&gt;3814</title>
<path fill="none" stroke="#00ff00" stroke-width=".1959" d="M107.5425,-317.8285C114.0851,-309.0324 124.2598,-294.8809 131.9988,-281.9559 147.078,-256.7719 162.0404,-226.9608 172.5436,-205.0257"/>
<polygon fill="#00ff00" stroke="#00ff00" stroke-width=".1959" points="175.7747,-206.3806 176.8994,-195.8456 169.4505,-203.3798 175.7747,-206.3806"/>
</g>
<!-- 3576 -->
<g id="node17" class="node">
<title>3576</title>
<ellipse fill="#add8e6" stroke="#000000" cx="98.9988" cy="-257.9142" rx="24.0833" ry="24.0833"/>
<text text-anchor="middle" x="98.9988" y="-259.7142" font-family="Times,serif" font-size="9.00" fill="#000000">3576</text>
<text text-anchor="middle" x="98.9988" y="-250.7142" font-family="Times,serif" font-size="9.00" fill="#000000">sigm</text>
</g>
<!-- E2&#45;&gt;3576 -->
<g id="edge16" class="edge">
<title>E2&#45;&gt;3576</title>
<path fill="none" stroke="#ff0000" stroke-width=".3708" d="M100.7455,-317.775C100.554,-311.2144 100.2778,-301.7469 100.0013,-292.2706"/>
<polygon fill="#ff0000" stroke="#ff0000" stroke-width=".3708" points="103.4954,-292.0153 99.7051,-282.1216 96.4984,-292.2195 103.4954,-292.0153"/>
</g>
<!-- E4 -->
<g id="node5" class="node">
<title>E4</title>
<polygon fill="#d3d3d3" stroke="#000000" points="201.9963,-334.9559 176.0012,-334.9559 176.0012,-317.9559 201.9963,-317.9559 201.9963,-334.9559"/>
<text text-anchor="middle" x="188.9988" y="-323.7559" font-family="Times,serif" font-size="9.00" fill="#000000">E4</text>
</g>
<!-- E3&#45;&gt;E4 -->
<!-- 0 -->
<g id="node10" class="node">
<title>0</title>
<ellipse fill="#87cefa" stroke="#000000" cx="110.9988" cy="-14.853" rx="14.4914" ry="14.4914"/>
<text text-anchor="middle" x="110.9988" y="-12.153" font-family="Times,serif" font-size="9.00" fill="#000000">0</text>
</g>
<!-- E3&#45;&gt;0 -->
<g id="edge19" class="edge">
<title>E3&#45;&gt;0</title>
<path fill="none" stroke="#ff0000" stroke-width=".1858" d="M131.6664,-321.1207C103.3113,-309.7461 39.4727,-283.978 37.9988,-281.9559 -19.1208,-203.5926 15.579,-147.922 66.9988,-65.7061 74.4681,-53.7633 84.6706,-41.7818 93.3708,-32.451"/>
<polygon fill="#ff0000" stroke="#ff0000" stroke-width=".1858" points="96.1223,-34.6387 100.5231,-25.0011 91.0728,-29.7908 96.1223,-34.6387"/>
</g>
<!-- S -->
<g id="node13" class="node">
<title>S</title>
<ellipse fill="#87cefa" stroke="#000000" cx="295.9988" cy="-14.853" rx="14.7075" ry="14.7075"/>
<text text-anchor="middle" x="295.9988" y="-12.153" font-family="Times,serif" font-size="9.00" fill="#000000">S</text>
</g>
<!-- E3&#45;&gt;S -->
<g id="edge13" class="edge">
<title>E3&#45;&gt;S</title>
<path fill="none" stroke="#ff0000" stroke-width="3.4091" d="M150.5967,-317.8766C168.7954,-289.6862 227.1196,-196.9506 261.9988,-113.7893 272.5271,-88.6869 282.3814,-59.0664 288.7422,-38.8219"/>
<polygon fill="#ff0000" stroke="#ff0000" stroke-width="3.4091" points="292.1183,-39.7514 291.7352,-29.1635 285.432,-37.6794 292.1183,-39.7514"/>
</g>
<!-- E5 -->
<g id="node6" class="node">
<title>E5</title>
<polygon fill="#d3d3d3" stroke="#000000" points="245.9963,-334.9559 220.0012,-334.9559 220.0012,-317.9559 245.9963,-317.9559 245.9963,-334.9559"/>
<text text-anchor="middle" x="232.9988" y="-323.7559" font-family="Times,serif" font-size="9.00" fill="#000000">E5</text>
</g>
<!-- E4&#45;&gt;E5 -->
<!-- 1 -->
<g id="node11" class="node">
<title>1</title>
<ellipse fill="#87cefa" stroke="#000000" cx="174.9988" cy="-14.853" rx="14.4914" ry="14.4914"/>
<text text-anchor="middle" x="174.9988" y="-12.153" font-family="Times,serif" font-size="9.00" fill="#000000">1</text>
</g>
<!-- E4&#45;&gt;1 -->
<g id="edge25" class="edge">
<title>E4&#45;&gt;1</title>
<path fill="none" stroke="#00ff00" stroke-width=".1027" d="M175.9912,-321.3651C173.0402,-320.2283 169.9161,-319.0391 166.9988,-317.9559 122.3242,-301.367 93.4627,-320.9013 65.9988,-281.9559 39.9791,-245.0584 4.2872,-178.316 77.9988,-65.7061 86.7784,-52.2934 126.0743,-34.4878 151.8779,-23.895"/>
<polygon fill="#00ff00" stroke="#00ff00" stroke-width=".1027" points="153.3692,-27.0676 161.3375,-20.085 150.7539,-20.5745 153.3692,-27.0676"/>
</g>
<!-- 2 -->
<g id="node12" class="node">
<title>2</title>
<ellipse fill="#87cefa" stroke="#000000" cx="229.9988" cy="-14.853" rx="14.4914" ry="14.4914"/>
<text text-anchor="middle" x="229.9988" y="-12.153" font-family="Times,serif" font-size="9.00" fill="#000000">2</text>
</g>
<!-- E4&#45;&gt;2 -->
<g id="edge24" class="edge">
<title>E4&#45;&gt;2</title>
<path fill="none" stroke="#00ff00" stroke-width=".42" d="M191.6567,-317.8319C197.8588,-297.2929 213.2698,-243.7674 219.9988,-197.8726 228.2047,-141.9043 229.8362,-75.4169 230.067,-40.005"/>
<polygon fill="#00ff00" stroke="#00ff00" stroke-width=".42" points="233.568,-39.6632 230.0992,-29.6523 226.568,-39.6413 233.568,-39.6632"/>
</g>
<!-- E6 -->
<g id="node7" class="node">
<title>E6</title>
<polygon fill="#d3d3d3" stroke="#000000" points="289.9963,-334.9559 264.0012,-334.9559 264.0012,-317.9559 289.9963,-317.9559 289.9963,-334.9559"/>
<text text-anchor="middle" x="276.9988" y="-323.7559" font-family="Times,serif" font-size="9.00" fill="#000000">E6</text>
</g>
<!-- E5&#45;&gt;E6 -->
<!-- E7 -->
<g id="node8" class="node">
<title>E7</title>
<polygon fill="#d3d3d3" stroke="#000000" points="333.9963,-334.9559 308.0012,-334.9559 308.0012,-317.9559 333.9963,-317.9559 333.9963,-334.9559"/>
<text text-anchor="middle" x="320.9988" y="-323.7559" font-family="Times,serif" font-size="9.00" fill="#000000">E7</text>
</g>
<!-- E6&#45;&gt;E7 -->
<!-- E6&#45;&gt;2 -->
<g id="edge12" class="edge">
<title>E6&#45;&gt;2</title>
<path fill="none" stroke="#00ff00" stroke-width="2.4995" d="M276.2565,-317.8424C273.3381,-284.9099 261.8777,-163.8859 242.9988,-65.7061 241.3049,-56.8973 238.9916,-47.3438 236.7856,-38.9209"/>
<polygon fill="#00ff00" stroke="#00ff00" stroke-width="2.4995" points="240.0916,-37.7379 234.1035,-28.9975 233.334,-39.5644 240.0916,-37.7379"/>
</g>
<!-- E8 -->
<g id="node9" class="node">
<title>E8</title>
<polygon fill="#d3d3d3" stroke="#000000" points="390.9963,-334.9559 365.0012,-334.9559 365.0012,-317.9559 390.9963,-317.9559 390.9963,-334.9559"/>
<text text-anchor="middle" x="377.9988" y="-323.7559" font-family="Times,serif" font-size="9.00" fill="#000000">E8</text>
</g>
<!-- E7&#45;&gt;E8 -->
<!-- E7&#45;&gt;1 -->
<g id="edge15" class="edge">
<title>E7&#45;&gt;1</title>
<path fill="none" stroke="#ff0000" stroke-width="2.9894" d="M323.9203,-317.7882C329.0746,-301.1062 338.3911,-263.5597 328.9988,-233.8726 301.8695,-148.1228 227.7764,-66.8789 193.209,-32.3146"/>
<polygon fill="#ff0000" stroke="#ff0000" stroke-width="2.9894" points="195.2834,-29.4453 185.702,-24.9234 190.3723,-34.4334 195.2834,-29.4453"/>
</g>
<!-- 4776 -->
<g id="node14" class="node">
<title>4776</title>
<ellipse fill="#add8e6" stroke="#000000" cx="120.9988" cy="-173.831" rx="24.0833" ry="24.0833"/>
<text text-anchor="middle" x="120.9988" y="-175.631" font-family="Times,serif" font-size="9.00" fill="#000000">4776</text>
<text text-anchor="middle" x="120.9988" y="-166.631" font-family="Times,serif" font-size="9.00" fill="#000000">sigm</text>
</g>
<!-- E7&#45;&gt;4776 -->
<g id="edge28" class="edge">
<title>E7&#45;&gt;4776</title>
<path fill="none" stroke="#ff0000" stroke-width=".1117" d="M309.6729,-317.8128C278.8534,-294.2937 192.8184,-228.6382 148.3643,-194.7143"/>
<polygon fill="#ff0000" stroke="#ff0000" stroke-width=".1117" points="150.3862,-191.8546 140.3133,-188.5703 146.1396,-197.4193 150.3862,-191.8546"/>
</g>
<!-- E7&#45;&gt;3576 -->
<g id="edge23" class="edge">
<title>E7&#45;&gt;3576</title>
<path fill="none" stroke="#ff0000" stroke-width=".4124" d="M307.614,-320.9174C304.7955,-319.855 301.8207,-318.8093 298.9988,-317.9559 228.4003,-296.605 205.1778,-310.0916 136.9988,-281.9559 133.8957,-280.6753 130.763,-279.1467 127.6981,-277.4894"/>
<polygon fill="#ff0000" stroke="#ff0000" stroke-width=".4124" points="129.1972,-274.3104 118.8045,-272.251 125.6447,-280.3419 129.1972,-274.3104"/>
</g>
<!-- E8&#45;&gt;0 -->
<g id="edge14" class="edge">
<title>E8&#45;&gt;0</title>
<path fill="none" stroke="#00ff00" stroke-width="1.2598" d="M370.579,-317.7966C334.6958,-275.9191 178.7904,-93.9693 127.4557,-34.0591"/>
<polygon fill="#00ff00" stroke="#00ff00" stroke-width="1.2598" points="129.8317,-31.4529 120.6672,-26.1366 124.5162,-36.0076 129.8317,-31.4529"/>
</g>
<!-- 0&#45;&gt;1 -->
<!-- 1&#45;&gt;2 -->
<!-- 2&#45;&gt;S -->
<!-- 4776&#45;&gt;2 -->
<g id="edge21" class="edge">
<title>4776&#45;&gt;2</title>
<path fill="none" stroke="#ff0000" stroke-width=".2225" d="M134.8037,-153.6963C155.5698,-123.4086 194.6497,-66.4101 215.7013,-35.7062"/>
<polygon fill="#ff0000" stroke="#ff0000" stroke-width=".2225" points="218.8473,-37.3071 221.6155,-27.0802 213.0739,-33.3487 218.8473,-37.3071"/>
</g>
<!-- 5520 -->
<g id="node16" class="node">
<title>5520</title>
<ellipse fill="#add8e6" stroke="#000000" cx="110.9988" cy="-89.7477" rx="24.0833" ry="24.0833"/>
<text text-anchor="middle" x="110.9988" y="-91.5477" font-family="Times,serif" font-size="9.00" fill="#000000">5520</text>
<text text-anchor="middle" x="110.9988" y="-82.5477" font-family="Times,serif" font-size="9.00" fill="#000000">sigm</text>
</g>
<!-- 4776&#45;&gt;5520 -->
<g id="edge26" class="edge">
<title>4776&#45;&gt;5520</title>
<path fill="none" stroke="#00ff00" stroke-width=".2502" d="M118.1064,-149.5106C117.155,-141.5108 116.0789,-132.4632 115.0573,-123.8731"/>
<polygon fill="#00ff00" stroke="#00ff00" stroke-width=".2502" points="118.5067,-123.2397 113.8502,-113.723 111.5557,-124.0664 118.5067,-123.2397"/>
</g>
<!-- 3814&#45;&gt;2 -->
<g id="edge17" class="edge">
<title>3814&#45;&gt;2</title>
<path fill="none" stroke="#ff0000" stroke-width=".6848" d="M193.3436,-150.3732C201.4519,-120.3955 215.4114,-68.7851 223.5631,-38.6467"/>
<polygon fill="#ff0000" stroke="#ff0000" stroke-width=".6848" points="226.9527,-39.5195 226.1852,-28.9525 220.1955,-37.6918 226.9527,-39.5195"/>
</g>
<!-- 5520&#45;&gt;0 -->
<g id="edge27" class="edge">
<title>5520&#45;&gt;0</title>
<path fill="none" stroke="#00ff00" stroke-width=".3187" d="M110.9988,-65.6383C110.9988,-57.432 110.9988,-48.2428 110.9988,-39.9602"/>
<polygon fill="#00ff00" stroke="#00ff00" stroke-width=".3187" points="114.4989,-39.7533 110.9988,-29.7534 107.4989,-39.7534 114.4989,-39.7533"/>
</g>
<!-- 3576&#45;&gt;0 -->
<g id="edge22" class="edge">
<title>3576&#45;&gt;0</title>
<path fill="none" stroke="#ff0000" stroke-width=".5763" d="M90.8854,-235.2064C79.0864,-198.7139 60.4188,-125.0917 77.9988,-65.7061 81.3597,-54.3529 88.1396,-43.1574 94.6845,-34.1735"/>
<polygon fill="#ff0000" stroke="#ff0000" stroke-width=".5763" points="97.6572,-36.0513 101.0157,-26.0029 92.1239,-31.7637 97.6572,-36.0513"/>
</g>
<!-- 3576&#45;&gt;4776 -->
<g id="edge20" class="edge">
<title>3576&#45;&gt;4776</title>
<path fill="none" stroke="#ff0000" stroke-width=".564" d="M105.127,-234.4924C107.3679,-225.9279 109.9468,-216.0714 112.3654,-206.8275"/>
<polygon fill="#ff0000" stroke="#ff0000" stroke-width=".564" points="115.7581,-207.6875 114.9034,-197.1272 108.9861,-205.9156 115.7581,-207.6875"/>
</g>
</g>
</svg>
