<?xml version="1.0" encoding="utf-8" standalone="no"?>
<!DOCTYPE svg PUBLIC "-//W3C//DTD SVG 1.1//EN"
  "http://www.w3.org/Graphics/SVG/1.1/DTD/svg11.dtd">
<!-- Created with matplotlib (https://matplotlib.org/) -->
<svg height="345.6pt" version="1.1" viewBox="0 0 460.8 345.6" width="460.8pt" xmlns="http://www.w3.org/2000/svg" xmlns:xlink="http://www.w3.org/1999/xlink">
 <defs>
  <style type="text/css">
*{stroke-linecap:butt;stroke-linejoin:round;}
  </style>
 </defs>
 <g id="figure_1">
  <g id="patch_1">
   <path d="M 0 345.6 
L 460.8 345.6 
L 460.8 0 
L 0 0 
z
" style="fill:#ffffff;"/>
  </g>
  <g id="axes_1">
   <g id="patch_2">
    <path d="M 57.6 307.584 
L 414.72 307.584 
L 414.72 41.472 
L 57.6 41.472 
z
" style="fill:#ffffff;"/>
   </g>
   <g id="PolyCollection_1">
    <path clip-path="url(#p43f84e8461)" d="M 73.832727 181.007087 
L 73.832727 189.261494 
L 74.918528 191.544517 
L 76.00433 189.864924 
L 77.090131 189.201728 
L 78.175932 197.682543 
L 79.261733 189.933942 
L 80.347534 176.692711 
L 81.433335 197.111538 
L 82.519137 184.095513 
L 83.604938 173.432225 
L 84.690739 157.184983 
L 85.77654 156.93416 
L 86.862341 173.616355 
L 87.948142 165.968507 
L 89.033943 176.283524 
L 90.119745 170.554906 
L 91.205546 175.467682 
L 92.291347 193.284009 
L 93.377148 171.872919 
L 94.462949 174.196114 
L 95.54875 182.736009 
L 96.634552 167.090841 
L 97.720353 171.814616 
L 98.806154 163.945262 
L 99.891955 164.732002 
L 100.977756 165.886611 
L 102.063557 157.27233 
L 103.149358 162.187234 
L 104.23516 156.678454 
L 105.320961 157.485391 
L 106.406762 167.255458 
L 107.492563 156.300225 
L 108.578364 143.614091 
L 109.664165 144.352233 
L 110.749967 149.242265 
L 111.835768 135.366327 
L 112.921569 157.635211 
L 114.00737 159.3966 
L 115.093171 155.020827 
L 116.178972 159.85929 
L 117.264773 181.151322 
L 118.350575 171.247219 
L 119.436376 160.589812 
L 120.522177 154.102797 
L 121.607978 147.580193 
L 122.693779 168.066726 
L 123.77958 165.114687 
L 124.865382 167.267195 
L 125.951183 153.834923 
L 127.036984 143.335207 
L 128.122785 133.40749 
L 129.208586 161.915237 
L 130.294387 147.304735 
L 131.380189 148.113948 
L 132.46599 153.004878 
L 133.551791 166.115257 
L 134.637592 154.222851 
L 135.723393 136.890214 
L 136.809194 161.883632 
L 137.894995 158.539245 
L 138.980797 166.014177 
L 140.066598 152.970966 
L 141.152399 169.789936 
L 142.2382 140.648383 
L 143.324001 150.905562 
L 144.409802 172.303005 
L 145.495604 156.209263 
L 146.581405 163.613851 
L 147.667206 142.645953 
L 148.753007 167.473236 
L 149.838808 173.452935 
L 150.924609 156.976431 
L 152.01041 156.474728 
L 153.096212 156.410566 
L 154.182013 154.490089 
L 155.267814 158.599126 
L 156.353615 166.728424 
L 157.439416 170.697685 
L 158.525217 148.954713 
L 159.611019 159.879011 
L 160.69682 159.044032 
L 161.782621 157.865638 
L 162.868422 167.738983 
L 163.954223 158.880382 
L 165.040024 170.723838 
L 166.125825 163.829721 
L 167.211627 174.390701 
L 168.297428 156.170046 
L 169.383229 158.414465 
L 170.46903 138.557331 
L 171.554831 151.812659 
L 172.640632 147.5152 
L 173.726434 149.59195 
L 174.812235 153.408666 
L 175.898036 144.80896 
L 176.983837 155.083482 
L 178.069638 163.325248 
L 179.155439 138.423156 
L 180.24124 145.328909 
L 181.327042 160.131871 
L 182.412843 147.330107 
L 183.498644 144.433813 
L 184.584445 138.32709 
L 185.670246 145.415053 
L 186.756047 144.535108 
L 187.841849 139.590666 
L 188.92765 152.878189 
L 190.013451 148.017789 
L 191.099252 120.26176 
L 192.185053 139.960837 
L 193.270854 145.54561 
L 194.356656 139.854997 
L 195.442457 146.435229 
L 196.528258 154.663228 
L 197.614059 145.19926 
L 198.69986 151.566156 
L 199.785661 144.683432 
L 200.871462 142.057166 
L 201.957264 162.239351 
L 203.043065 155.670874 
L 204.128866 155.304593 
L 205.214667 151.589675 
L 206.300468 163.150748 
L 207.386269 153.699698 
L 208.472071 175.501185 
L 209.557872 177.855752 
L 210.643673 164.575948 
L 211.729474 149.783377 
L 212.815275 151.44125 
L 213.901076 141.935081 
L 214.986877 145.092825 
L 216.072679 154.962458 
L 217.15848 153.395982 
L 218.244281 153.559356 
L 219.330082 146.168697 
L 220.415883 167.314988 
L 221.501684 184.29758 
L 222.587486 148.401974 
L 223.673287 140.330499 
L 224.759088 170.051155 
L 225.844889 140.671924 
L 226.93069 145.48425 
L 228.016491 162.115256 
L 229.102292 136.591767 
L 230.188094 158.756505 
L 231.273895 168.477501 
L 232.359696 160.103598 
L 233.445497 149.691656 
L 234.531298 144.861921 
L 235.617099 143.754227 
L 236.702901 157.075261 
L 237.788702 156.78867 
L 238.874503 136.574891 
L 239.960304 172.681468 
L 241.046105 168.295626 
L 242.131906 162.997379 
L 243.217708 173.612945 
L 244.303509 148.509481 
L 245.38931 139.826311 
L 246.475111 163.075251 
L 247.560912 141.214069 
L 248.646713 159.926634 
L 249.732514 136.023803 
L 250.818316 157.201615 
L 251.904117 148.730156 
L 252.989918 158.720952 
L 254.075719 167.598577 
L 255.16152 141.148826 
L 256.247321 141.392051 
L 257.333123 154.067167 
L 258.418924 142.607492 
L 259.504725 154.760869 
L 260.590526 159.669181 
L 261.676327 158.419156 
L 262.762128 163.995491 
L 263.847929 157.969469 
L 264.933731 167.779462 
L 266.019532 162.081311 
L 267.105333 134.436381 
L 268.191134 155.620224 
L 269.276935 147.658468 
L 270.362736 162.924997 
L 271.448538 163.481338 
L 272.534339 184.178636 
L 273.62014 175.652905 
L 274.705941 142.408368 
L 275.791742 158.307811 
L 276.877543 147.343376 
L 277.963344 151.440177 
L 279.049146 133.799001 
L 280.134947 151.922446 
L 281.220748 158.402346 
L 282.306549 160.249643 
L 283.39235 158.614976 
L 284.478151 163.845705 
L 285.563953 153.964444 
L 286.649754 172.662771 
L 287.735555 165.586868 
L 288.821356 158.635262 
L 289.907157 151.457261 
L 290.992958 175.437827 
L 292.07876 174.859825 
L 293.164561 166.13366 
L 294.250362 168.476489 
L 295.336163 171.331784 
L 296.421964 147.968121 
L 297.507765 146.031735 
L 298.593566 158.798479 
L 299.679368 156.547522 
L 300.765169 169.445453 
L 301.85097 156.086624 
L 302.936771 172.454531 
L 304.022572 157.683292 
L 305.108373 160.133008 
L 306.194175 160.319149 
L 307.279976 149.223682 
L 308.365777 159.108721 
L 309.451578 135.209127 
L 310.537379 169.920202 
L 311.62318 166.004189 
L 312.708981 175.155732 
L 313.794783 154.46035 
L 314.880584 152.716435 
L 315.966385 157.9323 
L 317.052186 143.862612 
L 318.137987 148.387386 
L 319.223788 138.104043 
L 320.30959 165.162633 
L 321.395391 154.176794 
L 322.481192 128.827973 
L 323.566993 160.976605 
L 324.652794 160.408454 
L 325.738595 158.514944 
L 326.824396 127.264096 
L 327.910198 150.41749 
L 328.995999 152.749686 
L 330.0818 149.397173 
L 331.167601 173.704183 
L 332.253402 147.59659 
L 333.339203 144.065231 
L 334.425005 153.941364 
L 335.510806 124.796114 
L 336.596607 149.882534 
L 337.682408 140.435489 
L 338.768209 171.03654 
L 339.85401 131.083996 
L 340.939811 150.844285 
L 342.025613 169.977005 
L 343.111414 166.145333 
L 344.197215 147.011735 
L 345.283016 160.257007 
L 346.368817 137.660349 
L 347.454618 139.970731 
L 348.54042 151.835231 
L 349.626221 161.235668 
L 350.712022 138.838584 
L 351.797823 143.06336 
L 352.883624 141.737876 
L 353.969425 136.959804 
L 355.055227 160.202412 
L 356.141028 163.981628 
L 357.226829 145.43832 
L 358.31263 151.563147 
L 359.398431 147.107248 
L 360.484232 148.837348 
L 361.570033 151.416812 
L 362.655835 160.021043 
L 363.741636 138.531981 
L 364.827437 130.67084 
L 365.913238 147.881142 
L 366.999039 141.161511 
L 368.08484 139.886567 
L 369.170642 148.030126 
L 370.256443 145.809119 
L 371.342244 152.142954 
L 372.428045 164.452658 
L 373.513846 157.212783 
L 374.599647 143.040179 
L 375.685448 127.1217 
L 376.77125 140.766414 
L 377.857051 144.855721 
L 378.942852 145.020288 
L 380.028653 155.767771 
L 381.114454 137.686809 
L 382.200255 146.925699 
L 383.286057 145.607418 
L 384.371858 125.128727 
L 385.457659 150.239461 
L 386.54346 141.299015 
L 387.629261 144.65387 
L 388.715062 148.259315 
L 389.800863 160.320672 
L 390.886665 151.192251 
L 391.972466 163.981878 
L 393.058267 151.336526 
L 394.144068 143.719315 
L 395.229869 134.783186 
L 396.31567 153.515526 
L 397.401472 159.415886 
L 398.487273 143.836627 
L 398.487273 73.243393 
L 398.487273 73.243393 
L 397.401472 65.91171 
L 396.31567 64.933205 
L 395.229869 81.113951 
L 394.144068 63.772897 
L 393.058267 65.810892 
L 391.972466 73.744147 
L 390.886665 65.793861 
L 389.800863 79.574207 
L 388.715062 69.334632 
L 387.629261 72.340453 
L 386.54346 59.08443 
L 385.457659 73.605892 
L 384.371858 74.757157 
L 383.286057 69.256324 
L 382.200255 72.237478 
L 381.114454 62.683877 
L 380.028653 63.586776 
L 378.942852 75.048705 
L 377.857051 61.434664 
L 376.77125 71.239542 
L 375.685448 62.621598 
L 374.599647 72.499735 
L 373.513846 82.860709 
L 372.428045 83.288373 
L 371.342244 77.03523 
L 370.256443 73.826103 
L 369.170642 74.960443 
L 368.08484 75.538525 
L 366.999039 87.391532 
L 365.913238 83.26177 
L 364.827437 82.113352 
L 363.741636 67.043958 
L 362.655835 65.339855 
L 361.570033 86.320811 
L 360.484232 81.501812 
L 359.398431 72.434158 
L 358.31263 75.561004 
L 357.226829 79.682577 
L 356.141028 81.998804 
L 355.055227 79.016295 
L 353.969425 71.613626 
L 352.883624 75.805039 
L 351.797823 64.06802 
L 350.712022 63.785337 
L 349.626221 63.176963 
L 348.54042 78.767804 
L 347.454618 70.68288 
L 346.368817 63.259575 
L 345.283016 64.555116 
L 344.197215 59.224839 
L 343.111414 84.198325 
L 342.025613 66.716784 
L 340.939811 63.955666 
L 339.85401 65.892555 
L 338.768209 60.667723 
L 337.682408 61.468428 
L 336.596607 61.558282 
L 335.510806 64.794087 
L 334.425005 79.465898 
L 333.339203 69.219806 
L 332.253402 65.56213 
L 331.167601 81.315839 
L 330.0818 65.403663 
L 328.995999 73.419639 
L 327.910198 62.634619 
L 326.824396 60.934476 
L 325.738595 71.262865 
L 324.652794 81.360963 
L 323.566993 77.56593 
L 322.481192 58.499015 
L 321.395391 53.568 
L 320.30959 70.82238 
L 319.223788 65.647506 
L 318.137987 89.963779 
L 317.052186 61.541932 
L 315.966385 65.152987 
L 314.880584 87.739796 
L 313.794783 76.546898 
L 312.708981 69.88061 
L 311.62318 69.95505 
L 310.537379 76.302631 
L 309.451578 67.806375 
L 308.365777 71.85558 
L 307.279976 69.227701 
L 306.194175 70.543608 
L 305.108373 85.286957 
L 304.022572 86.421718 
L 302.936771 85.316062 
L 301.85097 82.736587 
L 300.765169 88.67915 
L 299.679368 87.072817 
L 298.593566 81.581704 
L 297.507765 70.008241 
L 296.421964 64.816071 
L 295.336163 85.567649 
L 294.250362 76.804528 
L 293.164561 72.482921 
L 292.07876 90.704092 
L 290.992958 80.085566 
L 289.907157 67.597864 
L 288.821356 66.064875 
L 287.735555 86.313522 
L 286.649754 99.343921 
L 285.563953 70.255643 
L 284.478151 78.702832 
L 283.39235 86.318052 
L 282.306549 65.930418 
L 281.220748 69.589347 
L 280.134947 70.800205 
L 279.049146 64.989698 
L 277.963344 67.148892 
L 276.877543 69.102354 
L 275.791742 77.389696 
L 274.705941 73.23361 
L 273.62014 76.834091 
L 272.534339 84.638564 
L 271.448538 74.002286 
L 270.362736 78.641176 
L 269.276935 79.210524 
L 268.191134 76.288166 
L 267.105333 60.996971 
L 266.019532 66.841714 
L 264.933731 70.724799 
L 263.847929 70.685639 
L 262.762128 67.058115 
L 261.676327 66.383045 
L 260.590526 70.465851 
L 259.504725 62.016568 
L 258.418924 71.375949 
L 257.333123 70.620212 
L 256.247321 74.186137 
L 255.16152 74.697279 
L 254.075719 72.895927 
L 252.989918 83.291751 
L 251.904117 81.136959 
L 250.818316 61.97432 
L 249.732514 60.570524 
L 248.646713 62.898081 
L 247.560912 63.392264 
L 246.475111 80.58323 
L 245.38931 65.647564 
L 244.303509 66.303228 
L 243.217708 79.01439 
L 242.131906 68.400692 
L 241.046105 80.950846 
L 239.960304 77.34324 
L 238.874503 66.487727 
L 237.788702 69.302086 
L 236.702901 65.762212 
L 235.617099 68.213455 
L 234.531298 59.718896 
L 233.445497 62.543943 
L 232.359696 77.341751 
L 231.273895 77.592236 
L 230.188094 86.165015 
L 229.102292 63.664098 
L 228.016491 73.952232 
L 226.93069 64.059418 
L 225.844889 72.507765 
L 224.759088 80.49663 
L 223.673287 69.276958 
L 222.587486 63.068147 
L 221.501684 84.889601 
L 220.415883 73.051937 
L 219.330082 58.09317 
L 218.244281 63.077744 
L 217.15848 61.952562 
L 216.072679 73.539553 
L 214.986877 71.263599 
L 213.901076 59.073504 
L 212.815275 75.670143 
L 211.729474 83.936644 
L 210.643673 83.968836 
L 209.557872 94.4061 
L 208.472071 91.455751 
L 207.386269 79.501758 
L 206.300468 72.967773 
L 205.214667 72.694088 
L 204.128866 89.744507 
L 203.043065 90.393306 
L 201.957264 79.365097 
L 200.871462 69.558834 
L 199.785661 76.444472 
L 198.69986 75.980018 
L 197.614059 74.586996 
L 196.528258 80.485687 
L 195.442457 64.72769 
L 194.356656 73.669157 
L 193.270854 70.284386 
L 192.185053 61.298865 
L 191.099252 70.096825 
L 190.013451 74.271091 
L 188.92765 70.529269 
L 187.841849 68.95788 
L 186.756047 67.234131 
L 185.670246 82.812082 
L 184.584445 65.183089 
L 183.498644 72.014752 
L 182.412843 78.849954 
L 181.327042 75.438057 
L 180.24124 74.16095 
L 179.155439 68.377547 
L 178.069638 77.079951 
L 176.983837 80.677816 
L 175.898036 84.985649 
L 174.812235 77.687003 
L 173.726434 90.838765 
L 172.640632 75.938318 
L 171.554831 87.58466 
L 170.46903 78.517203 
L 169.383229 83.71306 
L 168.297428 95.047848 
L 167.211627 84.001973 
L 166.125825 93.352209 
L 165.040024 84.633702 
L 163.954223 82.914299 
L 162.868422 71.607304 
L 161.782621 84.950817 
L 160.69682 84.984431 
L 159.611019 80.628251 
L 158.525217 84.44636 
L 157.439416 76.979557 
L 156.353615 90.121799 
L 155.267814 84.77868 
L 154.182013 81.717737 
L 153.096212 83.650168 
L 152.01041 95.540224 
L 150.924609 76.016387 
L 149.838808 86.510233 
L 148.753007 90.270045 
L 147.667206 76.325854 
L 146.581405 79.904292 
L 145.495604 85.216573 
L 144.409802 82.77386 
L 143.324001 87.139411 
L 142.2382 78.412731 
L 141.152399 91.359723 
L 140.066598 85.68639 
L 138.980797 88.718223 
L 137.894995 62.218679 
L 136.809194 70.879542 
L 135.723393 63.799422 
L 134.637592 67.236761 
L 133.551791 94.141344 
L 132.46599 93.779306 
L 131.380189 88.923146 
L 130.294387 84.922604 
L 129.208586 89.500091 
L 128.122785 82.681016 
L 127.036984 73.276376 
L 125.951183 95.641193 
L 124.865382 90.297474 
L 123.77958 100.627841 
L 122.693779 86.933591 
L 121.607978 86.254651 
L 120.522177 88.82848 
L 119.436376 86.602627 
L 118.350575 92.619887 
L 117.264773 89.464751 
L 116.178972 80.647973 
L 115.093171 88.612138 
L 114.00737 81.391338 
L 112.921569 80.537342 
L 111.835768 87.688031 
L 110.749967 82.372692 
L 109.664165 91.791803 
L 108.578364 92.555462 
L 107.492563 92.282832 
L 106.406762 98.818778 
L 105.320961 95.129185 
L 104.23516 84.88772 
L 103.149358 91.664865 
L 102.063557 91.502097 
L 100.977756 99.894191 
L 99.891955 85.52235 
L 98.806154 93.364247 
L 97.720353 96.760182 
L 96.634552 100.578141 
L 95.54875 95.44554 
L 94.462949 88.828967 
L 93.377148 92.759665 
L 92.291347 95.945943 
L 91.205546 77.98892 
L 90.119745 88.438656 
L 89.033943 93.19709 
L 87.948142 81.593913 
L 86.862341 92.228237 
L 85.77654 83.266911 
L 84.690739 86.511772 
L 83.604938 99.327188 
L 82.519137 111.449634 
L 81.433335 111.57432 
L 80.347534 127.464067 
L 79.261733 125.449851 
L 78.175932 154.099739 
L 77.090131 176.333647 
L 76.00433 179.038555 
L 74.918528 177.358962 
L 73.832727 181.007087 
z
" style="fill:#0000ff;fill-opacity:0.5;"/>
   </g>
   <g id="PolyCollection_2">
    <path clip-path="url(#p43f84e8461)" d="M 73.832727 197.317462 
L 73.832727 290.864537 
L 74.918528 246.323954 
L 76.00433 194.366073 
L 77.090131 225.37638 
L 78.175932 233.256542 
L 79.261733 253.248148 
L 80.347534 242.191499 
L 81.433335 224.744958 
L 82.519137 222.994492 
L 83.604938 234.511042 
L 84.690739 233.520179 
L 85.77654 208.199206 
L 86.862341 258.489746 
L 87.948142 243.897719 
L 89.033943 246.901476 
L 90.119745 255.675988 
L 91.205546 246.354976 
L 92.291347 265.714838 
L 93.377148 242.360178 
L 94.462949 229.588463 
L 95.54875 203.07426 
L 96.634552 217.280664 
L 97.720353 194.681616 
L 98.806154 192.155196 
L 99.891955 193.007877 
L 100.977756 210.233802 
L 102.063557 204.833756 
L 103.149358 174.097638 
L 104.23516 195.174824 
L 105.320961 210.7712 
L 106.406762 182.740821 
L 107.492563 191.141493 
L 108.578364 182.137746 
L 109.664165 202.895252 
L 110.749967 202.455602 
L 111.835768 177.463006 
L 112.921569 190.065945 
L 114.00737 226.04834 
L 115.093171 210.530072 
L 116.178972 209.778611 
L 117.264773 224.745321 
L 118.350575 245.881878 
L 119.436376 229.3042 
L 120.522177 218.003275 
L 121.607978 191.079641 
L 122.693779 194.015817 
L 123.77958 209.408771 
L 124.865382 214.927821 
L 125.951183 178.699169 
L 127.036984 172.020478 
L 128.122785 181.958715 
L 129.208586 221.675762 
L 130.294387 204.16173 
L 131.380189 207.66241 
L 132.46599 208.16064 
L 133.551791 228.659811 
L 134.637592 207.999273 
L 135.723393 192.769683 
L 136.809194 197.930232 
L 137.894995 231.802929 
L 138.980797 230.644838 
L 140.066598 228.242973 
L 141.152399 235.640749 
L 142.2382 193.982682 
L 143.324001 225.784365 
L 144.409802 236.505322 
L 145.495604 206.391879 
L 146.581405 236.755778 
L 147.667206 205.586504 
L 148.753007 257.711708 
L 149.838808 256.681237 
L 150.924609 234.546232 
L 152.01041 226.160569 
L 153.096212 225.792177 
L 154.182013 217.293837 
L 155.267814 200.509846 
L 156.353615 245.849287 
L 157.439416 240.092494 
L 158.525217 224.997446 
L 159.611019 228.024579 
L 160.69682 213.460544 
L 161.782621 174.432853 
L 162.868422 216.619673 
L 163.954223 176.540215 
L 165.040024 210.93222 
L 166.125825 204.174785 
L 167.211627 186.603215 
L 168.297428 193.115579 
L 169.383229 178.33522 
L 170.46903 182.813378 
L 171.554831 193.626831 
L 172.640632 191.612484 
L 173.726434 184.732609 
L 174.812235 179.354419 
L 175.898036 166.30427 
L 176.983837 207.095004 
L 178.069638 193.937718 
L 179.155439 185.992668 
L 180.24124 202.393014 
L 181.327042 211.860062 
L 182.412843 189.752089 
L 183.498644 177.677845 
L 184.584445 184.339572 
L 185.670246 196.464246 
L 186.756047 217.453231 
L 187.841849 203.866992 
L 188.92765 218.29455 
L 190.013451 214.648297 
L 191.099252 172.009293 
L 192.185053 190.876206 
L 193.270854 197.218346 
L 194.356656 206.013787 
L 195.442457 213.041573 
L 196.528258 206.596558 
L 197.614059 206.564594 
L 198.69986 199.044252 
L 199.785661 190.313251 
L 200.871462 204.376664 
L 201.957264 221.808335 
L 203.043065 194.860362 
L 204.128866 213.645195 
L 205.214667 221.949928 
L 206.300468 220.885034 
L 207.386269 215.094635 
L 208.472071 256.03732 
L 209.557872 249.78938 
L 210.643673 209.903304 
L 211.729474 194.371243 
L 212.815275 227.205952 
L 213.901076 190.960505 
L 214.986877 213.973614 
L 216.072679 217.579535 
L 217.15848 230.07042 
L 218.244281 219.432623 
L 219.330082 207.923571 
L 220.415883 218.225772 
L 221.501684 248.157103 
L 222.587486 217.099231 
L 223.673287 214.792492 
L 224.759088 250.889357 
L 225.844889 177.241722 
L 226.93069 214.989419 
L 228.016491 225.937788 
L 229.102292 161.749798 
L 230.188094 196.574448 
L 231.273895 225.70592 
L 232.359696 209.982513 
L 233.445497 224.123992 
L 234.531298 205.8408 
L 235.617099 220.57844 
L 236.702901 199.769348 
L 237.788702 226.953036 
L 238.874503 210.536782 
L 239.960304 229.377734 
L 241.046105 244.816561 
L 242.131906 237.546893 
L 243.217708 203.129717 
L 244.303509 225.400677 
L 245.38931 208.297109 
L 246.475111 238.062209 
L 247.560912 193.889065 
L 248.646713 229.578329 
L 249.732514 179.24159 
L 250.818316 232.930704 
L 251.904117 202.188539 
L 252.989918 206.881984 
L 254.075719 247.761607 
L 255.16152 200.223641 
L 256.247321 192.418089 
L 257.333123 221.293945 
L 258.418924 183.431495 
L 259.504725 206.201833 
L 260.590526 223.372577 
L 261.676327 230.707116 
L 262.762128 179.460908 
L 263.847929 199.003933 
L 264.933731 188.136043 
L 266.019532 200.366422 
L 267.105333 202.824889 
L 268.191134 189.996338 
L 269.276935 157.794505 
L 270.362736 215.023811 
L 271.448538 165.19975 
L 272.534339 217.368206 
L 273.62014 210.627363 
L 274.705941 175.230572 
L 275.791742 208.932735 
L 276.877543 214.683507 
L 277.963344 178.610803 
L 279.049146 183.383029 
L 280.134947 191.336958 
L 281.220748 184.450865 
L 282.306549 190.668915 
L 283.39235 210.80784 
L 284.478151 213.833955 
L 285.563953 175.367284 
L 286.649754 208.791703 
L 287.735555 197.644494 
L 288.821356 172.220324 
L 289.907157 184.302595 
L 290.992958 221.129506 
L 292.07876 223.210394 
L 293.164561 222.078908 
L 294.250362 225.328264 
L 295.336163 221.970197 
L 296.421964 194.275309 
L 297.507765 181.332997 
L 298.593566 225.239783 
L 299.679368 209.774236 
L 300.765169 219.461193 
L 301.85097 210.297756 
L 302.936771 227.436015 
L 304.022572 188.336547 
L 305.108373 216.992292 
L 306.194175 236.63656 
L 307.279976 230.74582 
L 308.365777 237.503038 
L 309.451578 182.883633 
L 310.537379 229.58903 
L 311.62318 229.439795 
L 312.708981 253.970409 
L 313.794783 225.592512 
L 314.880584 214.351105 
L 315.966385 234.853606 
L 317.052186 205.475623 
L 318.137987 184.427146 
L 319.223788 167.220682 
L 320.30959 225.238738 
L 321.395391 226.900022 
L 322.481192 198.601098 
L 323.566993 223.698092 
L 324.652794 232.433337 
L 325.738595 232.431246 
L 326.824396 198.968223 
L 327.910198 222.142265 
L 328.995999 210.390163 
L 330.0818 212.501792 
L 331.167601 236.670367 
L 332.253402 229.515753 
L 333.339203 207.703646 
L 334.425005 229.056833 
L 335.510806 199.761567 
L 336.596607 216.759143 
L 337.682408 183.936111 
L 338.768209 218.715866 
L 339.85401 208.28598 
L 340.939811 208.528717 
L 342.025613 229.175075 
L 343.111414 249.172033 
L 344.197215 205.2002 
L 345.283016 218.742425 
L 346.368817 209.714895 
L 347.454618 185.24132 
L 348.54042 217.773057 
L 349.626221 232.977823 
L 350.712022 200.805088 
L 351.797823 200.821727 
L 352.883624 189.011767 
L 353.969425 167.228277 
L 355.055227 208.818025 
L 356.141028 227.128433 
L 357.226829 202.715002 
L 358.31263 192.30413 
L 359.398431 212.3835 
L 360.484232 198.956199 
L 361.570033 207.538067 
L 362.655835 225.432267 
L 363.741636 192.778369 
L 364.827437 167.91589 
L 365.913238 203.931587 
L 366.999039 180.789767 
L 368.08484 197.793812 
L 369.170642 211.395075 
L 370.256443 219.928377 
L 371.342244 215.827938 
L 372.428045 238.360758 
L 373.513846 226.688155 
L 374.599647 208.792468 
L 375.685448 198.170319 
L 376.77125 194.647974 
L 377.857051 204.45745 
L 378.942852 179.152753 
L 380.028653 223.373502 
L 381.114454 203.153924 
L 382.200255 210.682294 
L 383.286057 196.9071 
L 384.371858 175.653113 
L 385.457659 212.63024 
L 386.54346 208.181926 
L 387.629261 188.058486 
L 388.715062 152.944798 
L 389.800863 189.732915 
L 390.886665 209.931466 
L 391.972466 245.419682 
L 393.058267 229.044476 
L 394.144068 208.276022 
L 395.229869 193.302069 
L 396.31567 220.242622 
L 397.401472 208.58186 
L 398.487273 222.578662 
L 398.487273 91.345427 
L 398.487273 91.345427 
L 397.401472 81.188874 
L 396.31567 90.807712 
L 395.229869 92.530011 
L 394.144068 96.4658 
L 393.058267 95.104042 
L 391.972466 86.766357 
L 390.886665 79.676973 
L 389.800863 67.818997 
L 388.715062 92.971844 
L 387.629261 83.016874 
L 386.54346 81.171353 
L 385.457659 95.281634 
L 384.371858 87.452768 
L 383.286057 79.909347 
L 382.200255 97.637835 
L 381.114454 83.154453 
L 380.028653 99.618293 
L 378.942852 90.340619 
L 377.857051 84.598143 
L 376.77125 85.528072 
L 375.685448 79.91342 
L 374.599647 85.204713 
L 373.513846 81.674501 
L 372.428045 89.615152 
L 371.342244 86.368366 
L 370.256443 100.945595 
L 369.170642 86.880278 
L 368.08484 98.54233 
L 366.999039 96.911233 
L 365.913238 100.237949 
L 364.827437 102.47054 
L 363.741636 89.056213 
L 362.655835 78.652215 
L 361.570033 83.431221 
L 360.484232 85.685136 
L 359.398431 86.385162 
L 358.31263 79.766351 
L 357.226829 82.708822 
L 356.141028 83.61571 
L 355.055227 85.97015 
L 353.969425 93.946898 
L 352.883624 87.022191 
L 351.797823 71.980212 
L 350.712022 79.473022 
L 349.626221 82.469759 
L 348.54042 79.26052 
L 347.454618 84.609275 
L 346.368817 78.200986 
L 345.283016 81.506162 
L 344.197215 83.481159 
L 343.111414 82.308065 
L 342.025613 74.552184 
L 340.939811 79.982537 
L 339.85401 84.154728 
L 338.768209 78.351733 
L 337.682408 89.860949 
L 336.596607 79.985254 
L 335.510806 87.210224 
L 334.425005 91.357852 
L 333.339203 84.839126 
L 332.253402 82.903937 
L 331.167601 82.732186 
L 330.0818 92.416211 
L 328.995999 80.468557 
L 327.910198 89.112197 
L 326.824396 85.264857 
L 325.738595 89.191194 
L 324.652794 90.796607 
L 323.566993 92.634043 
L 322.481192 89.842112 
L 321.395391 86.412727 
L 320.30959 87.325542 
L 319.223788 97.739358 
L 318.137987 102.068348 
L 317.052186 87.279782 
L 315.966385 80.160205 
L 314.880584 87.164773 
L 313.794783 84.68384 
L 312.708981 97.692799 
L 311.62318 81.942247 
L 310.537379 83.060304 
L 309.451578 88.021621 
L 308.365777 89.231095 
L 307.279976 82.924151 
L 306.194175 78.320318 
L 305.108373 94.500319 
L 304.022572 88.896661 
L 302.936771 78.018156 
L 301.85097 82.457649 
L 300.765169 82.428919 
L 299.679368 91.068721 
L 298.593566 86.218139 
L 297.507765 83.295669 
L 296.421964 84.607929 
L 295.336163 83.196891 
L 294.250362 89.796116 
L 293.164561 95.441135 
L 292.07876 90.918864 
L 290.992958 97.567106 
L 289.907157 95.765138 
L 288.821356 92.212386 
L 287.735555 93.445432 
L 286.649754 96.687651 
L 285.563953 88.677683 
L 284.478151 83.310192 
L 283.39235 88.359071 
L 282.306549 86.649345 
L 281.220748 74.385348 
L 280.134947 91.331144 
L 279.049146 77.460438 
L 277.963344 80.76975 
L 276.877543 88.091158 
L 275.791742 82.674453 
L 274.705941 81.045542 
L 273.62014 82.323664 
L 272.534339 82.140418 
L 271.448538 87.376552 
L 270.362736 87.308577 
L 269.276935 84.498873 
L 268.191134 77.540811 
L 267.105333 85.847965 
L 266.019532 94.064529 
L 264.933731 77.640507 
L 263.847929 80.636278 
L 262.762128 80.668113 
L 261.676327 85.403881 
L 260.590526 86.452992 
L 259.504725 80.769958 
L 258.418924 102.485637 
L 257.333123 92.869335 
L 256.247321 80.621998 
L 255.16152 85.982672 
L 254.075719 89.578653 
L 252.989918 75.462917 
L 251.904117 77.273061 
L 250.818316 80.509624 
L 249.732514 71.650661 
L 248.646713 80.664001 
L 247.560912 77.858215 
L 246.475111 76.943096 
L 245.38931 82.00026 
L 244.303509 74.235526 
L 243.217708 79.682976 
L 242.131906 99.06191 
L 241.046105 93.884549 
L 239.960304 75.616818 
L 238.874503 88.333943 
L 237.788702 82.566342 
L 236.702901 74.810201 
L 235.617099 87.282402 
L 234.531298 80.288965 
L 233.445497 80.955613 
L 232.359696 87.102096 
L 231.273895 90.549666 
L 230.188094 91.486024 
L 229.102292 90.112058 
L 228.016491 86.175711 
L 226.93069 86.279805 
L 225.844889 85.685547 
L 224.759088 84.936956 
L 223.673287 83.874106 
L 222.587486 75.545604 
L 221.501684 92.874462 
L 220.415883 81.155273 
L 219.330082 79.082241 
L 218.244281 71.834352 
L 217.15848 81.498738 
L 216.072679 83.170865 
L 214.986877 84.480351 
L 213.901076 86.272702 
L 212.815275 78.273403 
L 211.729474 77.069845 
L 210.643673 79.44147 
L 209.557872 90.315106 
L 208.472071 90.922449 
L 207.386269 79.1492 
L 206.300468 92.223587 
L 205.214667 81.836869 
L 204.128866 87.445418 
L 203.043065 77.813997 
L 201.957264 86.333182 
L 200.871462 84.032526 
L 199.785661 84.470426 
L 198.69986 82.441612 
L 197.614059 80.126522 
L 196.528258 87.000873 
L 195.442457 72.008018 
L 194.356656 95.246932 
L 193.270854 81.690408 
L 192.185053 81.704594 
L 191.099252 96.871696 
L 190.013451 77.88597 
L 188.92765 69.510762 
L 187.841849 81.769465 
L 186.756047 78.831879 
L 185.670246 74.9088 
L 184.584445 75.95105 
L 183.498644 64.538986 
L 182.412843 81.850601 
L 181.327042 81.09947 
L 180.24124 82.180279 
L 179.155439 84.785006 
L 178.069638 79.53614 
L 176.983837 83.457524 
L 175.898036 76.822629 
L 174.812235 81.786734 
L 173.726434 80.346505 
L 172.640632 76.868756 
L 171.554831 80.272293 
L 170.46903 80.275493 
L 169.383229 84.04771 
L 168.297428 78.436078 
L 167.211627 79.624116 
L 166.125825 91.642533 
L 165.040024 96.903106 
L 163.954223 101.075731 
L 162.868422 91.300706 
L 161.782621 100.078653 
L 160.69682 101.842448 
L 159.611019 110.276781 
L 158.525217 104.883653 
L 157.439416 111.264523 
L 156.353615 112.311981 
L 155.267814 93.802031 
L 154.182013 103.401524 
L 153.096212 106.827634 
L 152.01041 104.094765 
L 150.924609 102.640932 
L 149.838808 119.664391 
L 148.753007 115.49546 
L 147.667206 101.721493 
L 146.581405 103.52732 
L 145.495604 97.922247 
L 144.409802 103.675713 
L 143.324001 100.898736 
L 142.2382 107.022877 
L 141.152399 103.817334 
L 140.066598 103.934561 
L 138.980797 102.714935 
L 137.894995 108.088925 
L 136.809194 106.400905 
L 135.723393 107.223744 
L 134.637592 99.368261 
L 133.551791 107.353619 
L 132.46599 112.271056 
L 131.380189 109.333139 
L 130.294387 117.673343 
L 129.208586 111.445862 
L 128.122785 121.419827 
L 127.036984 117.02661 
L 125.951183 123.590692 
L 124.865382 112.758908 
L 123.77958 134.88033 
L 122.693779 112.050404 
L 121.607978 139.754053 
L 120.522177 122.756121 
L 119.436376 124.238683 
L 118.350575 127.537923 
L 117.264773 125.863229 
L 116.178972 125.698985 
L 115.093171 118.636581 
L 114.00737 123.318433 
L 112.921569 120.695209 
L 111.835768 135.279886 
L 110.749967 136.517678 
L 109.664165 124.859519 
L 108.578364 123.53723 
L 107.492563 121.567377 
L 106.406762 124.694756 
L 105.320961 134.3174 
L 104.23516 125.197335 
L 103.149358 114.796355 
L 102.063557 123.286743 
L 100.977756 117.68257 
L 99.891955 124.566033 
L 98.806154 124.908396 
L 97.720353 129.96021 
L 96.634552 131.269599 
L 95.54875 133.73867 
L 94.462949 124.201074 
L 93.377148 139.071629 
L 92.291347 137.107832 
L 91.205546 132.967512 
L 90.119745 145.232987 
L 89.033943 145.281047 
L 87.948142 142.730834 
L 86.862341 151.868632 
L 85.77654 139.364441 
L 84.690739 150.131515 
L 83.604938 150.084741 
L 82.519137 149.234565 
L 81.433335 142.755144 
L 80.347534 158.683454 
L 79.261733 156.787028 
L 78.175932 149.170386 
L 77.090131 149.191638 
L 76.00433 164.74779 
L 74.918528 163.141367 
L 73.832727 197.317462 
z
" style="fill:#ff0000;fill-opacity:0.5;"/>
   </g>
   <g id="PolyCollection_3">
    <path clip-path="url(#p43f84e8461)" d="M 73.832727 270.50061 
L 73.832727 295.488 
L 74.918528 284.516282 
L 76.00433 269.697256 
L 77.090131 276.846297 
L 78.175932 277.901774 
L 79.261733 284.148946 
L 80.347534 280.556092 
L 81.433335 275.334179 
L 82.519137 276.373487 
L 83.604938 277.593072 
L 84.690739 276.182239 
L 85.77654 267.10294 
L 86.862341 286.447513 
L 87.948142 281.148171 
L 89.033943 281.062034 
L 90.119745 283.570926 
L 91.205546 280.040948 
L 92.291347 287.1961 
L 93.377148 280.96618 
L 94.462949 276.009318 
L 95.54875 267.097315 
L 96.634552 270.070937 
L 97.720353 264.457501 
L 98.806154 259.045782 
L 99.891955 261.701847 
L 100.977756 265.591738 
L 102.063557 268.71333 
L 103.149358 255.043636 
L 104.23516 266.056003 
L 105.320961 268.901323 
L 106.406762 262.217564 
L 107.492563 260.812942 
L 108.578364 256.854118 
L 109.664165 266.417802 
L 110.749967 268.319495 
L 111.835768 255.643318 
L 112.921569 257.198806 
L 114.00737 269.562855 
L 115.093171 257.731351 
L 116.178972 258.205797 
L 117.264773 267.607276 
L 118.350575 277.91237 
L 119.436376 270.035495 
L 120.522177 267.381407 
L 121.607978 256.461523 
L 122.693779 247.778486 
L 123.77958 259.250558 
L 124.865382 266.842914 
L 125.951183 246.329926 
L 127.036984 244.260203 
L 128.122785 255.972981 
L 129.208586 263.966604 
L 130.294387 258.459112 
L 131.380189 257.756439 
L 132.46599 260.102318 
L 133.551791 267.954692 
L 134.637592 259.077674 
L 135.723393 250.284021 
L 136.809194 254.983259 
L 137.894995 271.267433 
L 138.980797 269.161934 
L 140.066598 268.878597 
L 141.152399 267.653505 
L 142.2382 253.863691 
L 143.324001 264.165967 
L 144.409802 274.072019 
L 145.495604 259.63803 
L 146.581405 269.582994 
L 147.667206 258.783113 
L 148.753007 283.434118 
L 149.838808 284.198298 
L 150.924609 271.127802 
L 152.01041 270.277133 
L 153.096212 268.453252 
L 154.182013 266.819083 
L 155.267814 254.383062 
L 156.353615 276.591962 
L 157.439416 278.078632 
L 158.525217 266.473017 
L 159.611019 274.455974 
L 160.69682 263.710967 
L 161.782621 244.071434 
L 162.868422 263.214018 
L 163.954223 249.438729 
L 165.040024 269.675122 
L 166.125825 263.921323 
L 167.211627 245.053495 
L 168.297428 239.897393 
L 169.383229 246.90606 
L 170.46903 245.009326 
L 171.554831 249.731644 
L 172.640632 246.425866 
L 173.726434 243.242293 
L 174.812235 244.857215 
L 175.898036 229.663109 
L 176.983837 255.284034 
L 178.069638 245.498336 
L 179.155439 246.750516 
L 180.24124 249.0489 
L 181.327042 258.843597 
L 182.412843 250.866447 
L 183.498644 228.736719 
L 184.584445 237.973015 
L 185.670246 243.424053 
L 186.756047 258.63399 
L 187.841849 245.359388 
L 188.92765 255.406514 
L 190.013451 257.800831 
L 191.099252 244.145702 
L 192.185053 251.03162 
L 193.270854 242.186379 
L 194.356656 258.667827 
L 195.442457 253.039626 
L 196.528258 252.089149 
L 197.614059 249.174229 
L 198.69986 247.456839 
L 199.785661 247.166096 
L 200.871462 261.558381 
L 201.957264 265.535794 
L 203.043065 246.180434 
L 204.128866 252.909824 
L 205.214667 262.067091 
L 206.300468 256.31434 
L 207.386269 254.966027 
L 208.472071 280.620284 
L 209.557872 278.488864 
L 210.643673 259.830288 
L 211.729474 248.702252 
L 212.815275 268.392392 
L 213.901076 251.07433 
L 214.986877 263.80259 
L 216.072679 262.601394 
L 217.15848 272.746017 
L 218.244281 258.996021 
L 219.330082 259.679999 
L 220.415883 268.333161 
L 221.501684 281.225007 
L 222.587486 262.237734 
L 223.673287 265.312748 
L 224.759088 279.017094 
L 225.844889 242.67648 
L 226.93069 260.808465 
L 228.016491 272.686639 
L 229.102292 247.068961 
L 230.188094 257.890059 
L 231.273895 270.519092 
L 232.359696 258.867959 
L 233.445497 267.449612 
L 234.531298 253.801898 
L 235.617099 260.006249 
L 236.702901 251.084144 
L 237.788702 265.941364 
L 238.874503 263.422128 
L 239.960304 263.891596 
L 241.046105 281.731648 
L 242.131906 285.172302 
L 243.217708 254.78934 
L 244.303509 262.312814 
L 245.38931 258.279522 
L 246.475111 270.460941 
L 247.560912 245.482818 
L 248.646713 268.517205 
L 249.732514 232.928059 
L 250.818316 265.776257 
L 251.904117 251.335377 
L 252.989918 254.593986 
L 254.075719 279.378412 
L 255.16152 258.441924 
L 256.247321 256.115803 
L 257.333123 269.017339 
L 258.418924 250.869285 
L 259.504725 253.168128 
L 260.590526 263.472392 
L 261.676327 265.039004 
L 262.762128 240.924892 
L 263.847929 250.524166 
L 264.933731 247.410326 
L 266.019532 251.476128 
L 267.105333 263.792386 
L 268.191134 246.545773 
L 269.276935 228.189379 
L 270.362736 265.917087 
L 271.448538 232.573187 
L 272.534339 262.292643 
L 273.62014 258.927414 
L 274.705941 242.039436 
L 275.791742 261.876851 
L 276.877543 260.257319 
L 277.963344 242.474771 
L 279.049146 242.201612 
L 280.134947 247.587409 
L 281.220748 245.131893 
L 282.306549 255.433337 
L 283.39235 259.485858 
L 284.478151 266.648689 
L 285.563953 252.060003 
L 286.649754 268.529142 
L 287.735555 262.846846 
L 288.821356 254.250331 
L 289.907157 255.907544 
L 290.992958 272.284848 
L 292.07876 270.612615 
L 293.164561 276.512211 
L 294.250362 272.845637 
L 295.336163 265.104733 
L 296.421964 260.994139 
L 297.507765 256.982226 
L 298.593566 271.538454 
L 299.679368 263.229312 
L 300.765169 266.416356 
L 301.85097 260.702538 
L 302.936771 265.76773 
L 304.022572 250.18156 
L 305.108373 262.635218 
L 306.194175 268.703711 
L 307.279976 268.697237 
L 308.365777 276.05077 
L 309.451578 247.230074 
L 310.537379 265.518598 
L 311.62318 271.229253 
L 312.708981 287.020755 
L 313.794783 272.891191 
L 314.880584 267.871474 
L 315.966385 273.598928 
L 317.052186 261.896167 
L 318.137987 253.96345 
L 319.223788 248.570512 
L 320.30959 267.685305 
L 321.395391 269.994642 
L 322.481192 260.039314 
L 323.566993 267.876098 
L 324.652794 272.571199 
L 325.738595 276.829988 
L 326.824396 259.466192 
L 327.910198 269.338273 
L 328.995999 264.235553 
L 330.0818 270.074972 
L 331.167601 276.134692 
L 332.253402 270.815869 
L 333.339203 264.233418 
L 334.425005 271.324369 
L 335.510806 260.418072 
L 336.596607 266.582007 
L 337.682408 254.62387 
L 338.768209 275.254466 
L 339.85401 267.943537 
L 340.939811 260.760914 
L 342.025613 274.369917 
L 343.111414 277.041091 
L 344.197215 256.677979 
L 345.283016 266.492785 
L 346.368817 256.047432 
L 347.454618 244.575441 
L 348.54042 261.710763 
L 349.626221 269.396006 
L 350.712022 255.381158 
L 351.797823 245.820184 
L 352.883624 251.28857 
L 353.969425 241.517345 
L 355.055227 264.61186 
L 356.141028 262.595543 
L 357.226829 254.965381 
L 358.31263 251.482074 
L 359.398431 264.576898 
L 360.484232 254.030926 
L 361.570033 255.440806 
L 362.655835 260.841374 
L 363.741636 254.973 
L 364.827437 253.658467 
L 365.913238 260.9567 
L 366.999039 250.861657 
L 368.08484 264.013503 
L 369.170642 267.617739 
L 370.256443 270.407786 
L 371.342244 266.179644 
L 372.428045 284.723584 
L 373.513846 266.401726 
L 374.599647 264.735869 
L 375.685448 253.384668 
L 376.77125 258.412751 
L 377.857051 258.28637 
L 378.942852 252.411727 
L 380.028653 269.115686 
L 381.114454 263.624286 
L 382.200255 264.297227 
L 383.286057 254.317205 
L 384.371858 247.018919 
L 385.457659 264.325448 
L 386.54346 258.699575 
L 387.629261 249.060611 
L 388.715062 234.595731 
L 389.800863 244.108902 
L 390.886665 260.964892 
L 391.972466 273.696553 
L 393.058267 269.864212 
L 394.144068 262.856602 
L 395.229869 253.361662 
L 396.31567 264.977878 
L 397.401472 254.433844 
L 398.487273 273.867488 
L 398.487273 164.182109 
L 398.487273 164.182109 
L 397.401472 149.559782 
L 396.31567 167.587875 
L 395.229869 164.404845 
L 394.144068 173.318355 
L 393.058267 170.203227 
L 391.972466 148.713855 
L 390.886665 144.349835 
L 389.800863 113.414467 
L 388.715062 136.93589 
L 387.629261 144.72091 
L 386.54346 142.379506 
L 385.457659 161.248937 
L 384.371858 143.649658 
L 383.286057 136.478952 
L 382.200255 168.243009 
L 381.114454 140.644288 
L 380.028653 177.152127 
L 378.942852 148.565291 
L 377.857051 146.900778 
L 376.77125 138.838938 
L 375.685448 139.47828 
L 374.599647 143.028389 
L 373.513846 143.097616 
L 372.428045 153.04742 
L 371.342244 154.750839 
L 370.256443 177.212372 
L 369.170642 152.700361 
L 368.08484 165.03105 
L 366.999039 153.662076 
L 365.913238 168.496107 
L 364.827437 152.702414 
L 363.741636 151.234785 
L 362.655835 128.678985 
L 361.570033 149.848405 
L 360.484232 139.954723 
L 359.398431 149.617377 
L 358.31263 130.944854 
L 357.226829 143.638654 
L 356.141028 146.801735 
L 355.055227 146.010183 
L 353.969425 149.406391 
L 352.883624 141.064059 
L 351.797823 126.88517 
L 350.712022 130.43939 
L 349.626221 142.476318 
L 348.54042 144.394958 
L 347.454618 155.661614 
L 346.368817 140.107072 
L 345.283016 146.604305 
L 344.197215 146.723052 
L 343.111414 139.347555 
L 342.025613 127.372579 
L 340.939811 150.524544 
L 339.85401 150.333289 
L 338.768209 136.082024 
L 337.682408 154.747892 
L 336.596607 145.111705 
L 335.510806 157.450499 
L 334.425005 157.924311 
L 333.339203 149.552602 
L 332.253402 153.610298 
L 331.167601 143.29035 
L 330.0818 166.037496 
L 328.995999 146.080299 
L 327.910198 152.230109 
L 326.824396 151.615138 
L 325.738595 161.629947 
L 324.652794 156.907125 
L 323.566993 168.466014 
L 322.481192 154.052897 
L 321.395391 154.048787 
L 320.30959 152.352121 
L 319.223788 150.952096 
L 318.137987 169.033824 
L 317.052186 159.978406 
L 315.966385 140.085028 
L 314.880584 150.354319 
L 313.794783 153.423156 
L 312.708981 172.18364 
L 311.62318 143.832564 
L 310.537379 139.056167 
L 309.451578 146.194225 
L 308.365777 157.586652 
L 307.279976 148.507919 
L 306.194175 135.966869 
L 305.108373 165.005958 
L 304.022572 156.281385 
L 302.936771 138.039556 
L 301.85097 146.755529 
L 300.765169 145.379421 
L 299.679368 161.616117 
L 298.593566 157.909851 
L 297.507765 137.043949 
L 296.421964 142.534472 
L 295.336163 149.40771 
L 294.250362 153.392162 
L 293.164561 162.366986 
L 292.07876 151.874341 
L 290.992958 164.618614 
L 289.907157 161.260639 
L 288.821356 146.981845 
L 287.735555 159.424526 
L 286.649754 157.555561 
L 285.563953 148.995564 
L 284.478151 148.897931 
L 283.39235 144.221365 
L 282.306549 148.350434 
L 281.220748 127.9562 
L 280.134947 161.171971 
L 279.049146 137.010307 
L 277.963344 138.29362 
L 276.877543 150.160597 
L 275.791742 151.296787 
L 274.705941 133.243029 
L 273.62014 149.934029 
L 272.534339 145.267487 
L 271.448538 138.830855 
L 270.362736 149.527469 
L 269.276935 124.128738 
L 268.191134 134.579842 
L 267.105333 142.670559 
L 266.019532 160.932031 
L 264.933731 130.729924 
L 263.847929 141.802947 
L 262.762128 125.299413 
L 261.676327 144.715497 
L 260.590526 144.011191 
L 259.504725 136.837034 
L 258.418924 156.767393 
L 257.333123 156.633593 
L 256.247321 136.951273 
L 255.16152 143.861922 
L 254.075719 157.040247 
L 252.989918 134.160895 
L 251.904117 141.195864 
L 250.818316 144.871302 
L 249.732514 120.563791 
L 248.646713 140.854557 
L 247.560912 133.958745 
L 246.475111 128.780992 
L 245.38931 138.487365 
L 244.303509 134.403041 
L 243.217708 137.99706 
L 242.131906 172.85836 
L 241.046105 163.643108 
L 239.960304 132.645647 
L 238.874503 157.865578 
L 237.788702 141.108447 
L 236.702901 128.102259 
L 235.617099 153.703223 
L 234.531298 139.775496 
L 233.445497 140.442226 
L 232.359696 156.270406 
L 231.273895 161.383247 
L 230.188094 154.926355 
L 229.102292 134.158718 
L 228.016491 159.164667 
L 226.93069 147.517143 
L 225.844889 137.020242 
L 224.759088 138.902508 
L 223.673287 149.595973 
L 222.587486 136.18769 
L 221.501684 167.007534 
L 220.415883 143.028844 
L 219.330082 145.94092 
L 218.244281 129.274057 
L 217.15848 145.454261 
L 216.072679 153.481061 
L 214.986877 141.690749 
L 213.901076 153.679046 
L 212.815275 144.883309 
L 211.729474 125.380963 
L 210.643673 145.765114 
L 209.557872 153.719665 
L 208.472071 155.874924 
L 207.386269 134.988104 
L 206.300468 156.731717 
L 205.214667 143.860019 
L 204.128866 142.55575 
L 203.043065 137.981578 
L 201.957264 150.010826 
L 200.871462 146.665163 
L 199.785661 141.690849 
L 198.69986 146.146071 
L 197.614059 142.48947 
L 196.528258 146.719013 
L 195.442457 127.422574 
L 194.356656 168.258902 
L 193.270854 132.994021 
L 192.185053 141.397557 
L 191.099252 151.090229 
L 190.013451 137.17994 
L 188.92765 126.561127 
L 187.841849 133.775983 
L 186.756047 137.80119 
L 185.670246 130.837773 
L 184.584445 133.584122 
L 183.498644 105.465079 
L 182.412843 140.950347 
L 181.327042 145.373945 
L 180.24124 143.788532 
L 179.155439 143.841514 
L 178.069638 143.996508 
L 176.983837 146.101238 
L 175.898036 122.246754 
L 174.812235 136.931814 
L 173.726434 141.532102 
L 172.640632 136.409317 
L 171.554831 145.249127 
L 170.46903 135.095651 
L 169.383229 140.700604 
L 168.297428 132.910025 
L 167.211627 142.374557 
L 166.125825 164.306719 
L 165.040024 170.902636 
L 163.954223 174.579184 
L 162.868422 164.580253 
L 161.782621 172.444792 
L 160.69682 186.61388 
L 159.611019 201.665491 
L 158.525217 190.33288 
L 157.439416 199.828948 
L 156.353615 195.140761 
L 155.267814 178.718525 
L 154.182013 186.006327 
L 153.096212 196.135007 
L 152.01041 192.729137 
L 150.924609 192.133629 
L 149.838808 205.548679 
L 148.753007 202.077213 
L 147.667206 191.13348 
L 146.581405 189.825529 
L 145.495604 186.451171 
L 144.409802 191.638941 
L 143.324001 187.715353 
L 142.2382 196.25703 
L 141.152399 188.999296 
L 140.066598 193.183584 
L 138.980797 190.476232 
L 137.894995 201.741086 
L 136.809194 194.729207 
L 135.723393 193.253586 
L 134.637592 184.638545 
L 133.551791 192.015182 
L 132.46599 200.709581 
L 131.380189 192.389797 
L 130.294387 205.567797 
L 129.208586 198.32522 
L 128.122785 200.118469 
L 127.036984 198.103671 
L 125.951183 199.784792 
L 124.865382 201.827895 
L 123.77958 210.160214 
L 122.693779 191.880699 
L 121.607978 213.587148 
L 120.522177 207.464261 
L 119.436376 209.454073 
L 118.350575 212.242862 
L 117.264773 211.474038 
L 116.178972 207.760323 
L 115.093171 201.677172 
L 114.00737 209.671554 
L 112.921569 202.464876 
L 111.835768 215.068767 
L 110.749967 224.20872 
L 109.664165 210.698785 
L 108.578364 205.003936 
L 107.492563 208.801958 
L 106.406762 209.00484 
L 105.320961 220.05466 
L 104.23516 210.57578 
L 103.149358 194.770893 
L 102.063557 211.64378 
L 100.977756 209.407025 
L 99.891955 213.807235 
L 98.806154 219.065926 
L 97.720353 217.889853 
L 96.634552 219.752588 
L 95.54875 223.925459 
L 94.462949 223.459232 
L 93.377148 233.276101 
L 92.291347 236.589143 
L 91.205546 232.90002 
L 90.119745 241.005311 
L 89.033943 241.753603 
L 87.948142 238.988292 
L 86.862341 244.813901 
L 85.77654 238.183246 
L 84.690739 243.16323 
L 83.604938 242.339264 
L 82.519137 248.611005 
L 81.433335 243.296844 
L 80.347534 249.480556 
L 79.261733 248.66894 
L 78.175932 248.996413 
L 77.090131 250.000859 
L 76.00433 254.44521 
L 74.918528 260.089969 
L 73.832727 270.50061 
z
" style="fill:#008000;fill-opacity:0.5;"/>
   </g>
   <g id="matplotlib.axis_1">
    <g id="xtick_1">
     <g id="line2d_1">
      <path clip-path="url(#p43f84e8461)" d="M 73.832727 307.584 
L 73.832727 41.472 
" style="fill:none;stroke:#b0b0b0;stroke-linecap:square;stroke-width:0.8;"/>
     </g>
     <g id="line2d_2">
      <defs>
       <path d="M 0 0 
L 0 3.5 
" id="m8fac709023" style="stroke:#000000;stroke-width:0.8;"/>
      </defs>
      <g>
       <use style="stroke:#000000;stroke-width:0.8;" x="73.832727" xlink:href="#m8fac709023" y="307.584"/>
      </g>
     </g>
     <g id="text_1">
      <!-- 0 -->
      <defs>
       <path d="M 31.78125 66.40625 
Q 24.171875 66.40625 20.328125 58.90625 
Q 16.5 51.421875 16.5 36.375 
Q 16.5 21.390625 20.328125 13.890625 
Q 24.171875 6.390625 31.78125 6.390625 
Q 39.453125 6.390625 43.28125 13.890625 
Q 47.125 21.390625 47.125 36.375 
Q 47.125 51.421875 43.28125 58.90625 
Q 39.453125 66.40625 31.78125 66.40625 
z
M 31.78125 74.21875 
Q 44.046875 74.21875 50.515625 64.515625 
Q 56.984375 54.828125 56.984375 36.375 
Q 56.984375 17.96875 50.515625 8.265625 
Q 44.046875 -1.421875 31.78125 -1.421875 
Q 19.53125 -1.421875 13.0625 8.265625 
Q 6.59375 17.96875 6.59375 36.375 
Q 6.59375 54.828125 13.0625 64.515625 
Q 19.53125 74.21875 31.78125 74.21875 
z
" id="DejaVuSans-48"/>
      </defs>
      <g transform="translate(70.651477 322.182437)scale(0.1 -0.1)">
       <use xlink:href="#DejaVuSans-48"/>
      </g>
     </g>
    </g>
    <g id="xtick_2">
     <g id="line2d_3">
      <path clip-path="url(#p43f84e8461)" d="M 128.122785 307.584 
L 128.122785 41.472 
" style="fill:none;stroke:#b0b0b0;stroke-linecap:square;stroke-width:0.8;"/>
     </g>
     <g id="line2d_4">
      <g>
       <use style="stroke:#000000;stroke-width:0.8;" x="128.122785" xlink:href="#m8fac709023" y="307.584"/>
      </g>
     </g>
     <g id="text_2">
      <!-- 50 -->
      <defs>
       <path d="M 10.796875 72.90625 
L 49.515625 72.90625 
L 49.515625 64.59375 
L 19.828125 64.59375 
L 19.828125 46.734375 
Q 21.96875 47.46875 24.109375 47.828125 
Q 26.265625 48.1875 28.421875 48.1875 
Q 40.625 48.1875 47.75 41.5 
Q 54.890625 34.8125 54.890625 23.390625 
Q 54.890625 11.625 47.5625 5.09375 
Q 40.234375 -1.421875 26.90625 -1.421875 
Q 22.3125 -1.421875 17.546875 -0.640625 
Q 12.796875 0.140625 7.71875 1.703125 
L 7.71875 11.625 
Q 12.109375 9.234375 16.796875 8.0625 
Q 21.484375 6.890625 26.703125 6.890625 
Q 35.15625 6.890625 40.078125 11.328125 
Q 45.015625 15.765625 45.015625 23.390625 
Q 45.015625 31 40.078125 35.4375 
Q 35.15625 39.890625 26.703125 39.890625 
Q 22.75 39.890625 18.8125 39.015625 
Q 14.890625 38.140625 10.796875 36.28125 
z
" id="DejaVuSans-53"/>
      </defs>
      <g transform="translate(121.760285 322.182437)scale(0.1 -0.1)">
       <use xlink:href="#DejaVuSans-53"/>
       <use x="63.623047" xlink:href="#DejaVuSans-48"/>
      </g>
     </g>
    </g>
    <g id="xtick_3">
     <g id="line2d_5">
      <path clip-path="url(#p43f84e8461)" d="M 182.412843 307.584 
L 182.412843 41.472 
" style="fill:none;stroke:#b0b0b0;stroke-linecap:square;stroke-width:0.8;"/>
     </g>
     <g id="line2d_6">
      <g>
       <use style="stroke:#000000;stroke-width:0.8;" x="182.412843" xlink:href="#m8fac709023" y="307.584"/>
      </g>
     </g>
     <g id="text_3">
      <!-- 100 -->
      <defs>
       <path d="M 12.40625 8.296875 
L 28.515625 8.296875 
L 28.515625 63.921875 
L 10.984375 60.40625 
L 10.984375 69.390625 
L 28.421875 72.90625 
L 38.28125 72.90625 
L 38.28125 8.296875 
L 54.390625 8.296875 
L 54.390625 0 
L 12.40625 0 
z
" id="DejaVuSans-49"/>
      </defs>
      <g transform="translate(172.869093 322.182437)scale(0.1 -0.1)">
       <use xlink:href="#DejaVuSans-49"/>
       <use x="63.623047" xlink:href="#DejaVuSans-48"/>
       <use x="127.246094" xlink:href="#DejaVuSans-48"/>
      </g>
     </g>
    </g>
    <g id="xtick_4">
     <g id="line2d_7">
      <path clip-path="url(#p43f84e8461)" d="M 236.702901 307.584 
L 236.702901 41.472 
" style="fill:none;stroke:#b0b0b0;stroke-linecap:square;stroke-width:0.8;"/>
     </g>
     <g id="line2d_8">
      <g>
       <use style="stroke:#000000;stroke-width:0.8;" x="236.702901" xlink:href="#m8fac709023" y="307.584"/>
      </g>
     </g>
     <g id="text_4">
      <!-- 150 -->
      <g transform="translate(227.159151 322.182437)scale(0.1 -0.1)">
       <use xlink:href="#DejaVuSans-49"/>
       <use x="63.623047" xlink:href="#DejaVuSans-53"/>
       <use x="127.246094" xlink:href="#DejaVuSans-48"/>
      </g>
     </g>
    </g>
    <g id="xtick_5">
     <g id="line2d_9">
      <path clip-path="url(#p43f84e8461)" d="M 290.992958 307.584 
L 290.992958 41.472 
" style="fill:none;stroke:#b0b0b0;stroke-linecap:square;stroke-width:0.8;"/>
     </g>
     <g id="line2d_10">
      <g>
       <use style="stroke:#000000;stroke-width:0.8;" x="290.992958" xlink:href="#m8fac709023" y="307.584"/>
      </g>
     </g>
     <g id="text_5">
      <!-- 200 -->
      <defs>
       <path d="M 19.1875 8.296875 
L 53.609375 8.296875 
L 53.609375 0 
L 7.328125 0 
L 7.328125 8.296875 
Q 12.9375 14.109375 22.625 23.890625 
Q 32.328125 33.6875 34.8125 36.53125 
Q 39.546875 41.84375 41.421875 45.53125 
Q 43.3125 49.21875 43.3125 52.78125 
Q 43.3125 58.59375 39.234375 62.25 
Q 35.15625 65.921875 28.609375 65.921875 
Q 23.96875 65.921875 18.8125 64.3125 
Q 13.671875 62.703125 7.8125 59.421875 
L 7.8125 69.390625 
Q 13.765625 71.78125 18.9375 73 
Q 24.125 74.21875 28.421875 74.21875 
Q 39.75 74.21875 46.484375 68.546875 
Q 53.21875 62.890625 53.21875 53.421875 
Q 53.21875 48.921875 51.53125 44.890625 
Q 49.859375 40.875 45.40625 35.40625 
Q 44.1875 33.984375 37.640625 27.21875 
Q 31.109375 20.453125 19.1875 8.296875 
z
" id="DejaVuSans-50"/>
      </defs>
      <g transform="translate(281.449208 322.182437)scale(0.1 -0.1)">
       <use xlink:href="#DejaVuSans-50"/>
       <use x="63.623047" xlink:href="#DejaVuSans-48"/>
       <use x="127.246094" xlink:href="#DejaVuSans-48"/>
      </g>
     </g>
    </g>
    <g id="xtick_6">
     <g id="line2d_11">
      <path clip-path="url(#p43f84e8461)" d="M 345.283016 307.584 
L 345.283016 41.472 
" style="fill:none;stroke:#b0b0b0;stroke-linecap:square;stroke-width:0.8;"/>
     </g>
     <g id="line2d_12">
      <g>
       <use style="stroke:#000000;stroke-width:0.8;" x="345.283016" xlink:href="#m8fac709023" y="307.584"/>
      </g>
     </g>
     <g id="text_6">
      <!-- 250 -->
      <g transform="translate(335.739266 322.182437)scale(0.1 -0.1)">
       <use xlink:href="#DejaVuSans-50"/>
       <use x="63.623047" xlink:href="#DejaVuSans-53"/>
       <use x="127.246094" xlink:href="#DejaVuSans-48"/>
      </g>
     </g>
    </g>
    <g id="xtick_7">
     <g id="line2d_13">
      <path clip-path="url(#p43f84e8461)" d="M 399.573074 307.584 
L 399.573074 41.472 
" style="fill:none;stroke:#b0b0b0;stroke-linecap:square;stroke-width:0.8;"/>
     </g>
     <g id="line2d_14">
      <g>
       <use style="stroke:#000000;stroke-width:0.8;" x="399.573074" xlink:href="#m8fac709023" y="307.584"/>
      </g>
     </g>
     <g id="text_7">
      <!-- 300 -->
      <defs>
       <path d="M 40.578125 39.3125 
Q 47.65625 37.796875 51.625 33 
Q 55.609375 28.21875 55.609375 21.1875 
Q 55.609375 10.40625 48.1875 4.484375 
Q 40.765625 -1.421875 27.09375 -1.421875 
Q 22.515625 -1.421875 17.65625 -0.515625 
Q 12.796875 0.390625 7.625 2.203125 
L 7.625 11.71875 
Q 11.71875 9.328125 16.59375 8.109375 
Q 21.484375 6.890625 26.8125 6.890625 
Q 36.078125 6.890625 40.9375 10.546875 
Q 45.796875 14.203125 45.796875 21.1875 
Q 45.796875 27.640625 41.28125 31.265625 
Q 36.765625 34.90625 28.71875 34.90625 
L 20.21875 34.90625 
L 20.21875 43.015625 
L 29.109375 43.015625 
Q 36.375 43.015625 40.234375 45.921875 
Q 44.09375 48.828125 44.09375 54.296875 
Q 44.09375 59.90625 40.109375 62.90625 
Q 36.140625 65.921875 28.71875 65.921875 
Q 24.65625 65.921875 20.015625 65.03125 
Q 15.375 64.15625 9.8125 62.3125 
L 9.8125 71.09375 
Q 15.4375 72.65625 20.34375 73.4375 
Q 25.25 74.21875 29.59375 74.21875 
Q 40.828125 74.21875 47.359375 69.109375 
Q 53.90625 64.015625 53.90625 55.328125 
Q 53.90625 49.265625 50.4375 45.09375 
Q 46.96875 40.921875 40.578125 39.3125 
z
" id="DejaVuSans-51"/>
      </defs>
      <g transform="translate(390.029324 322.182437)scale(0.1 -0.1)">
       <use xlink:href="#DejaVuSans-51"/>
       <use x="63.623047" xlink:href="#DejaVuSans-48"/>
       <use x="127.246094" xlink:href="#DejaVuSans-48"/>
      </g>
     </g>
    </g>
    <g id="text_8">
     <!-- Generations -->
     <defs>
      <path d="M 59.515625 10.40625 
L 59.515625 29.984375 
L 43.40625 29.984375 
L 43.40625 38.09375 
L 69.28125 38.09375 
L 69.28125 6.78125 
Q 63.578125 2.734375 56.6875 0.65625 
Q 49.8125 -1.421875 42 -1.421875 
Q 24.90625 -1.421875 15.25 8.5625 
Q 5.609375 18.5625 5.609375 36.375 
Q 5.609375 54.25 15.25 64.234375 
Q 24.90625 74.21875 42 74.21875 
Q 49.125 74.21875 55.546875 72.453125 
Q 61.96875 70.703125 67.390625 67.28125 
L 67.390625 56.78125 
Q 61.921875 61.421875 55.765625 63.765625 
Q 49.609375 66.109375 42.828125 66.109375 
Q 29.4375 66.109375 22.71875 58.640625 
Q 16.015625 51.171875 16.015625 36.375 
Q 16.015625 21.625 22.71875 14.15625 
Q 29.4375 6.6875 42.828125 6.6875 
Q 48.046875 6.6875 52.140625 7.59375 
Q 56.25 8.5 59.515625 10.40625 
z
" id="DejaVuSans-71"/>
      <path d="M 56.203125 29.59375 
L 56.203125 25.203125 
L 14.890625 25.203125 
Q 15.484375 15.921875 20.484375 11.0625 
Q 25.484375 6.203125 34.421875 6.203125 
Q 39.59375 6.203125 44.453125 7.46875 
Q 49.3125 8.734375 54.109375 11.28125 
L 54.109375 2.78125 
Q 49.265625 0.734375 44.1875 -0.34375 
Q 39.109375 -1.421875 33.890625 -1.421875 
Q 20.796875 -1.421875 13.15625 6.1875 
Q 5.515625 13.8125 5.515625 26.8125 
Q 5.515625 40.234375 12.765625 48.109375 
Q 20.015625 56 32.328125 56 
Q 43.359375 56 49.78125 48.890625 
Q 56.203125 41.796875 56.203125 29.59375 
z
M 47.21875 32.234375 
Q 47.125 39.59375 43.09375 43.984375 
Q 39.0625 48.390625 32.421875 48.390625 
Q 24.90625 48.390625 20.390625 44.140625 
Q 15.875 39.890625 15.1875 32.171875 
z
" id="DejaVuSans-101"/>
      <path d="M 54.890625 33.015625 
L 54.890625 0 
L 45.90625 0 
L 45.90625 32.71875 
Q 45.90625 40.484375 42.875 44.328125 
Q 39.84375 48.1875 33.796875 48.1875 
Q 26.515625 48.1875 22.3125 43.546875 
Q 18.109375 38.921875 18.109375 30.90625 
L 18.109375 0 
L 9.078125 0 
L 9.078125 54.6875 
L 18.109375 54.6875 
L 18.109375 46.1875 
Q 21.34375 51.125 25.703125 53.5625 
Q 30.078125 56 35.796875 56 
Q 45.21875 56 50.046875 50.171875 
Q 54.890625 44.34375 54.890625 33.015625 
z
" id="DejaVuSans-110"/>
      <path d="M 41.109375 46.296875 
Q 39.59375 47.171875 37.8125 47.578125 
Q 36.03125 48 33.890625 48 
Q 26.265625 48 22.1875 43.046875 
Q 18.109375 38.09375 18.109375 28.8125 
L 18.109375 0 
L 9.078125 0 
L 9.078125 54.6875 
L 18.109375 54.6875 
L 18.109375 46.1875 
Q 20.953125 51.171875 25.484375 53.578125 
Q 30.03125 56 36.53125 56 
Q 37.453125 56 38.578125 55.875 
Q 39.703125 55.765625 41.0625 55.515625 
z
" id="DejaVuSans-114"/>
      <path d="M 34.28125 27.484375 
Q 23.390625 27.484375 19.1875 25 
Q 14.984375 22.515625 14.984375 16.5 
Q 14.984375 11.71875 18.140625 8.90625 
Q 21.296875 6.109375 26.703125 6.109375 
Q 34.1875 6.109375 38.703125 11.40625 
Q 43.21875 16.703125 43.21875 25.484375 
L 43.21875 27.484375 
z
M 52.203125 31.203125 
L 52.203125 0 
L 43.21875 0 
L 43.21875 8.296875 
Q 40.140625 3.328125 35.546875 0.953125 
Q 30.953125 -1.421875 24.3125 -1.421875 
Q 15.921875 -1.421875 10.953125 3.296875 
Q 6 8.015625 6 15.921875 
Q 6 25.140625 12.171875 29.828125 
Q 18.359375 34.515625 30.609375 34.515625 
L 43.21875 34.515625 
L 43.21875 35.40625 
Q 43.21875 41.609375 39.140625 45 
Q 35.0625 48.390625 27.6875 48.390625 
Q 23 48.390625 18.546875 47.265625 
Q 14.109375 46.140625 10.015625 43.890625 
L 10.015625 52.203125 
Q 14.9375 54.109375 19.578125 55.046875 
Q 24.21875 56 28.609375 56 
Q 40.484375 56 46.34375 49.84375 
Q 52.203125 43.703125 52.203125 31.203125 
z
" id="DejaVuSans-97"/>
      <path d="M 18.3125 70.21875 
L 18.3125 54.6875 
L 36.8125 54.6875 
L 36.8125 47.703125 
L 18.3125 47.703125 
L 18.3125 18.015625 
Q 18.3125 11.328125 20.140625 9.421875 
Q 21.96875 7.515625 27.59375 7.515625 
L 36.8125 7.515625 
L 36.8125 0 
L 27.59375 0 
Q 17.1875 0 13.234375 3.875 
Q 9.28125 7.765625 9.28125 18.015625 
L 9.28125 47.703125 
L 2.6875 47.703125 
L 2.6875 54.6875 
L 9.28125 54.6875 
L 9.28125 70.21875 
z
" id="DejaVuSans-116"/>
      <path d="M 9.421875 54.6875 
L 18.40625 54.6875 
L 18.40625 0 
L 9.421875 0 
z
M 9.421875 75.984375 
L 18.40625 75.984375 
L 18.40625 64.59375 
L 9.421875 64.59375 
z
" id="DejaVuSans-105"/>
      <path d="M 30.609375 48.390625 
Q 23.390625 48.390625 19.1875 42.75 
Q 14.984375 37.109375 14.984375 27.296875 
Q 14.984375 17.484375 19.15625 11.84375 
Q 23.34375 6.203125 30.609375 6.203125 
Q 37.796875 6.203125 41.984375 11.859375 
Q 46.1875 17.53125 46.1875 27.296875 
Q 46.1875 37.015625 41.984375 42.703125 
Q 37.796875 48.390625 30.609375 48.390625 
z
M 30.609375 56 
Q 42.328125 56 49.015625 48.375 
Q 55.71875 40.765625 55.71875 27.296875 
Q 55.71875 13.875 49.015625 6.21875 
Q 42.328125 -1.421875 30.609375 -1.421875 
Q 18.84375 -1.421875 12.171875 6.21875 
Q 5.515625 13.875 5.515625 27.296875 
Q 5.515625 40.765625 12.171875 48.375 
Q 18.84375 56 30.609375 56 
z
" id="DejaVuSans-111"/>
      <path d="M 44.28125 53.078125 
L 44.28125 44.578125 
Q 40.484375 46.53125 36.375 47.5 
Q 32.28125 48.484375 27.875 48.484375 
Q 21.1875 48.484375 17.84375 46.4375 
Q 14.5 44.390625 14.5 40.28125 
Q 14.5 37.15625 16.890625 35.375 
Q 19.28125 33.59375 26.515625 31.984375 
L 29.59375 31.296875 
Q 39.15625 29.25 43.1875 25.515625 
Q 47.21875 21.78125 47.21875 15.09375 
Q 47.21875 7.46875 41.1875 3.015625 
Q 35.15625 -1.421875 24.609375 -1.421875 
Q 20.21875 -1.421875 15.453125 -0.5625 
Q 10.6875 0.296875 5.421875 2 
L 5.421875 11.28125 
Q 10.40625 8.6875 15.234375 7.390625 
Q 20.0625 6.109375 24.8125 6.109375 
Q 31.15625 6.109375 34.5625 8.28125 
Q 37.984375 10.453125 37.984375 14.40625 
Q 37.984375 18.0625 35.515625 20.015625 
Q 33.0625 21.96875 24.703125 23.78125 
L 21.578125 24.515625 
Q 13.234375 26.265625 9.515625 29.90625 
Q 5.8125 33.546875 5.8125 39.890625 
Q 5.8125 47.609375 11.28125 51.796875 
Q 16.75 56 26.8125 56 
Q 31.78125 56 36.171875 55.265625 
Q 40.578125 54.546875 44.28125 53.078125 
z
" id="DejaVuSans-115"/>
     </defs>
     <g transform="translate(205.662344 335.860562)scale(0.1 -0.1)">
      <use xlink:href="#DejaVuSans-71"/>
      <use x="77.490234" xlink:href="#DejaVuSans-101"/>
      <use x="139.013672" xlink:href="#DejaVuSans-110"/>
      <use x="202.392578" xlink:href="#DejaVuSans-101"/>
      <use x="263.916016" xlink:href="#DejaVuSans-114"/>
      <use x="305.029297" xlink:href="#DejaVuSans-97"/>
      <use x="366.308594" xlink:href="#DejaVuSans-116"/>
      <use x="405.517578" xlink:href="#DejaVuSans-105"/>
      <use x="433.300781" xlink:href="#DejaVuSans-111"/>
      <use x="494.482422" xlink:href="#DejaVuSans-110"/>
      <use x="557.861328" xlink:href="#DejaVuSans-115"/>
     </g>
    </g>
   </g>
   <g id="matplotlib.axis_2">
    <g id="ytick_1">
     <g id="line2d_15">
      <path clip-path="url(#p43f84e8461)" d="M 57.6 296.262594 
L 414.72 296.262594 
" style="fill:none;stroke:#b0b0b0;stroke-linecap:square;stroke-width:0.8;"/>
     </g>
     <g id="line2d_16">
      <defs>
       <path d="M 0 0 
L -3.5 0 
" id="mef4b46fe12" style="stroke:#000000;stroke-width:0.8;"/>
      </defs>
      <g>
       <use style="stroke:#000000;stroke-width:0.8;" x="57.6" xlink:href="#mef4b46fe12" y="296.262594"/>
      </g>
     </g>
     <g id="text_9">
      <!-- 0.0 -->
      <defs>
       <path d="M 10.6875 12.40625 
L 21 12.40625 
L 21 0 
L 10.6875 0 
z
" id="DejaVuSans-46"/>
      </defs>
      <g transform="translate(34.696875 300.061813)scale(0.1 -0.1)">
       <use xlink:href="#DejaVuSans-48"/>
       <use x="63.623047" xlink:href="#DejaVuSans-46"/>
       <use x="95.410156" xlink:href="#DejaVuSans-48"/>
      </g>
     </g>
    </g>
    <g id="ytick_2">
     <g id="line2d_17">
      <path clip-path="url(#p43f84e8461)" d="M 57.6 251.609697 
L 414.72 251.609697 
" style="fill:none;stroke:#b0b0b0;stroke-linecap:square;stroke-width:0.8;"/>
     </g>
     <g id="line2d_18">
      <g>
       <use style="stroke:#000000;stroke-width:0.8;" x="57.6" xlink:href="#mef4b46fe12" y="251.609697"/>
      </g>
     </g>
     <g id="text_10">
      <!-- 0.2 -->
      <g transform="translate(34.696875 255.408916)scale(0.1 -0.1)">
       <use xlink:href="#DejaVuSans-48"/>
       <use x="63.623047" xlink:href="#DejaVuSans-46"/>
       <use x="95.410156" xlink:href="#DejaVuSans-50"/>
      </g>
     </g>
    </g>
    <g id="ytick_3">
     <g id="line2d_19">
      <path clip-path="url(#p43f84e8461)" d="M 57.6 206.9568 
L 414.72 206.9568 
" style="fill:none;stroke:#b0b0b0;stroke-linecap:square;stroke-width:0.8;"/>
     </g>
     <g id="line2d_20">
      <g>
       <use style="stroke:#000000;stroke-width:0.8;" x="57.6" xlink:href="#mef4b46fe12" y="206.9568"/>
      </g>
     </g>
     <g id="text_11">
      <!-- 0.4 -->
      <defs>
       <path d="M 37.796875 64.3125 
L 12.890625 25.390625 
L 37.796875 25.390625 
z
M 35.203125 72.90625 
L 47.609375 72.90625 
L 47.609375 25.390625 
L 58.015625 25.390625 
L 58.015625 17.1875 
L 47.609375 17.1875 
L 47.609375 0 
L 37.796875 0 
L 37.796875 17.1875 
L 4.890625 17.1875 
L 4.890625 26.703125 
z
" id="DejaVuSans-52"/>
      </defs>
      <g transform="translate(34.696875 210.756019)scale(0.1 -0.1)">
       <use xlink:href="#DejaVuSans-48"/>
       <use x="63.623047" xlink:href="#DejaVuSans-46"/>
       <use x="95.410156" xlink:href="#DejaVuSans-52"/>
      </g>
     </g>
    </g>
    <g id="ytick_4">
     <g id="line2d_21">
      <path clip-path="url(#p43f84e8461)" d="M 57.6 162.303902 
L 414.72 162.303902 
" style="fill:none;stroke:#b0b0b0;stroke-linecap:square;stroke-width:0.8;"/>
     </g>
     <g id="line2d_22">
      <g>
       <use style="stroke:#000000;stroke-width:0.8;" x="57.6" xlink:href="#mef4b46fe12" y="162.303902"/>
      </g>
     </g>
     <g id="text_12">
      <!-- 0.6 -->
      <defs>
       <path d="M 33.015625 40.375 
Q 26.375 40.375 22.484375 35.828125 
Q 18.609375 31.296875 18.609375 23.390625 
Q 18.609375 15.53125 22.484375 10.953125 
Q 26.375 6.390625 33.015625 6.390625 
Q 39.65625 6.390625 43.53125 10.953125 
Q 47.40625 15.53125 47.40625 23.390625 
Q 47.40625 31.296875 43.53125 35.828125 
Q 39.65625 40.375 33.015625 40.375 
z
M 52.59375 71.296875 
L 52.59375 62.3125 
Q 48.875 64.0625 45.09375 64.984375 
Q 41.3125 65.921875 37.59375 65.921875 
Q 27.828125 65.921875 22.671875 59.328125 
Q 17.53125 52.734375 16.796875 39.40625 
Q 19.671875 43.65625 24.015625 45.921875 
Q 28.375 48.1875 33.59375 48.1875 
Q 44.578125 48.1875 50.953125 41.515625 
Q 57.328125 34.859375 57.328125 23.390625 
Q 57.328125 12.15625 50.6875 5.359375 
Q 44.046875 -1.421875 33.015625 -1.421875 
Q 20.359375 -1.421875 13.671875 8.265625 
Q 6.984375 17.96875 6.984375 36.375 
Q 6.984375 53.65625 15.1875 63.9375 
Q 23.390625 74.21875 37.203125 74.21875 
Q 40.921875 74.21875 44.703125 73.484375 
Q 48.484375 72.75 52.59375 71.296875 
z
" id="DejaVuSans-54"/>
      </defs>
      <g transform="translate(34.696875 166.103121)scale(0.1 -0.1)">
       <use xlink:href="#DejaVuSans-48"/>
       <use x="63.623047" xlink:href="#DejaVuSans-46"/>
       <use x="95.410156" xlink:href="#DejaVuSans-54"/>
      </g>
     </g>
    </g>
    <g id="ytick_5">
     <g id="line2d_23">
      <path clip-path="url(#p43f84e8461)" d="M 57.6 117.651005 
L 414.72 117.651005 
" style="fill:none;stroke:#b0b0b0;stroke-linecap:square;stroke-width:0.8;"/>
     </g>
     <g id="line2d_24">
      <g>
       <use style="stroke:#000000;stroke-width:0.8;" x="57.6" xlink:href="#mef4b46fe12" y="117.651005"/>
      </g>
     </g>
     <g id="text_13">
      <!-- 0.8 -->
      <defs>
       <path d="M 31.78125 34.625 
Q 24.75 34.625 20.71875 30.859375 
Q 16.703125 27.09375 16.703125 20.515625 
Q 16.703125 13.921875 20.71875 10.15625 
Q 24.75 6.390625 31.78125 6.390625 
Q 38.8125 6.390625 42.859375 10.171875 
Q 46.921875 13.96875 46.921875 20.515625 
Q 46.921875 27.09375 42.890625 30.859375 
Q 38.875 34.625 31.78125 34.625 
z
M 21.921875 38.8125 
Q 15.578125 40.375 12.03125 44.71875 
Q 8.5 49.078125 8.5 55.328125 
Q 8.5 64.0625 14.71875 69.140625 
Q 20.953125 74.21875 31.78125 74.21875 
Q 42.671875 74.21875 48.875 69.140625 
Q 55.078125 64.0625 55.078125 55.328125 
Q 55.078125 49.078125 51.53125 44.71875 
Q 48 40.375 41.703125 38.8125 
Q 48.828125 37.15625 52.796875 32.3125 
Q 56.78125 27.484375 56.78125 20.515625 
Q 56.78125 9.90625 50.3125 4.234375 
Q 43.84375 -1.421875 31.78125 -1.421875 
Q 19.734375 -1.421875 13.25 4.234375 
Q 6.78125 9.90625 6.78125 20.515625 
Q 6.78125 27.484375 10.78125 32.3125 
Q 14.796875 37.15625 21.921875 38.8125 
z
M 18.3125 54.390625 
Q 18.3125 48.734375 21.84375 45.5625 
Q 25.390625 42.390625 31.78125 42.390625 
Q 38.140625 42.390625 41.71875 45.5625 
Q 45.3125 48.734375 45.3125 54.390625 
Q 45.3125 60.0625 41.71875 63.234375 
Q 38.140625 66.40625 31.78125 66.40625 
Q 25.390625 66.40625 21.84375 63.234375 
Q 18.3125 60.0625 18.3125 54.390625 
z
" id="DejaVuSans-56"/>
      </defs>
      <g transform="translate(34.696875 121.450224)scale(0.1 -0.1)">
       <use xlink:href="#DejaVuSans-48"/>
       <use x="63.623047" xlink:href="#DejaVuSans-46"/>
       <use x="95.410156" xlink:href="#DejaVuSans-56"/>
      </g>
     </g>
    </g>
    <g id="ytick_6">
     <g id="line2d_25">
      <path clip-path="url(#p43f84e8461)" d="M 57.6 72.998108 
L 414.72 72.998108 
" style="fill:none;stroke:#b0b0b0;stroke-linecap:square;stroke-width:0.8;"/>
     </g>
     <g id="line2d_26">
      <g>
       <use style="stroke:#000000;stroke-width:0.8;" x="57.6" xlink:href="#mef4b46fe12" y="72.998108"/>
      </g>
     </g>
     <g id="text_14">
      <!-- 1.0 -->
      <g transform="translate(34.696875 76.797327)scale(0.1 -0.1)">
       <use xlink:href="#DejaVuSans-49"/>
       <use x="63.623047" xlink:href="#DejaVuSans-46"/>
       <use x="95.410156" xlink:href="#DejaVuSans-48"/>
      </g>
     </g>
    </g>
    <g id="text_15">
     <!-- Scores -->
     <defs>
      <path d="M 53.515625 70.515625 
L 53.515625 60.890625 
Q 47.90625 63.578125 42.921875 64.890625 
Q 37.9375 66.21875 33.296875 66.21875 
Q 25.25 66.21875 20.875 63.09375 
Q 16.5 59.96875 16.5 54.203125 
Q 16.5 49.359375 19.40625 46.890625 
Q 22.3125 44.4375 30.421875 42.921875 
L 36.375 41.703125 
Q 47.40625 39.59375 52.65625 34.296875 
Q 57.90625 29 57.90625 20.125 
Q 57.90625 9.515625 50.796875 4.046875 
Q 43.703125 -1.421875 29.984375 -1.421875 
Q 24.8125 -1.421875 18.96875 -0.25 
Q 13.140625 0.921875 6.890625 3.21875 
L 6.890625 13.375 
Q 12.890625 10.015625 18.65625 8.296875 
Q 24.421875 6.59375 29.984375 6.59375 
Q 38.421875 6.59375 43.015625 9.90625 
Q 47.609375 13.234375 47.609375 19.390625 
Q 47.609375 24.75 44.3125 27.78125 
Q 41.015625 30.8125 33.5 32.328125 
L 27.484375 33.5 
Q 16.453125 35.6875 11.515625 40.375 
Q 6.59375 45.0625 6.59375 53.421875 
Q 6.59375 63.09375 13.40625 68.65625 
Q 20.21875 74.21875 32.171875 74.21875 
Q 37.3125 74.21875 42.625 73.28125 
Q 47.953125 72.359375 53.515625 70.515625 
z
" id="DejaVuSans-83"/>
      <path d="M 48.78125 52.59375 
L 48.78125 44.1875 
Q 44.96875 46.296875 41.140625 47.34375 
Q 37.3125 48.390625 33.40625 48.390625 
Q 24.65625 48.390625 19.8125 42.84375 
Q 14.984375 37.3125 14.984375 27.296875 
Q 14.984375 17.28125 19.8125 11.734375 
Q 24.65625 6.203125 33.40625 6.203125 
Q 37.3125 6.203125 41.140625 7.25 
Q 44.96875 8.296875 48.78125 10.40625 
L 48.78125 2.09375 
Q 45.015625 0.34375 40.984375 -0.53125 
Q 36.96875 -1.421875 32.421875 -1.421875 
Q 20.0625 -1.421875 12.78125 6.34375 
Q 5.515625 14.109375 5.515625 27.296875 
Q 5.515625 40.671875 12.859375 48.328125 
Q 20.21875 56 33.015625 56 
Q 37.15625 56 41.109375 55.140625 
Q 45.0625 54.296875 48.78125 52.59375 
z
" id="DejaVuSans-99"/>
     </defs>
     <g transform="translate(28.617187 191.245969)rotate(-90)scale(0.1 -0.1)">
      <use xlink:href="#DejaVuSans-83"/>
      <use x="63.476562" xlink:href="#DejaVuSans-99"/>
      <use x="118.457031" xlink:href="#DejaVuSans-111"/>
      <use x="179.638672" xlink:href="#DejaVuSans-114"/>
      <use x="220.720703" xlink:href="#DejaVuSans-101"/>
      <use x="282.244141" xlink:href="#DejaVuSans-115"/>
     </g>
    </g>
   </g>
   <g id="line2d_27">
    <path clip-path="url(#p43f84e8461)" d="M 73.832727 185.134291 
L 74.918528 184.45174 
L 76.00433 184.45174 
L 77.090131 182.767687 
L 78.175932 175.891141 
L 79.261733 157.691896 
L 80.347534 152.078389 
L 81.433335 154.342929 
L 82.519137 147.772574 
L 83.604938 136.379706 
L 84.690739 121.848377 
L 85.77654 120.100536 
L 86.862341 132.922296 
L 87.948142 123.78121 
L 89.033943 134.740307 
L 90.119745 129.496781 
L 91.205546 126.728301 
L 92.291347 144.614976 
L 93.377148 132.316292 
L 94.462949 131.51254 
L 95.54875 139.090775 
L 96.634552 133.834491 
L 97.720353 134.287399 
L 98.806154 128.654755 
L 99.891955 125.127176 
L 100.977756 132.890401 
L 102.063557 124.387214 
L 103.149358 126.92605 
L 104.23516 120.783087 
L 105.320961 126.307288 
L 106.406762 133.037118 
L 107.492563 124.291529 
L 108.578364 118.084776 
L 109.664165 118.072018 
L 110.749967 115.807478 
L 111.835768 111.527179 
L 112.921569 119.086277 
L 115.093171 121.816483 
L 116.178972 120.253631 
L 117.264773 135.308037 
L 118.350575 131.933553 
L 119.436376 123.596219 
L 120.522177 121.465638 
L 121.607978 116.917422 
L 122.693779 127.500158 
L 123.77958 132.871264 
L 125.951183 124.738058 
L 127.036984 108.305792 
L 128.122785 108.044253 
L 129.208586 125.707664 
L 130.294387 116.11367 
L 131.380189 118.518547 
L 132.46599 123.392092 
L 133.551791 130.1283 
L 134.637592 110.729806 
L 135.723393 100.344818 
L 136.809194 116.381587 
L 137.894995 110.378962 
L 138.980797 127.3662 
L 140.066598 119.328678 
L 141.152399 130.574829 
L 142.2382 109.530557 
L 144.409802 127.538432 
L 145.495604 120.712918 
L 146.581405 121.759072 
L 147.667206 109.485904 
L 148.753007 128.87164 
L 149.838808 129.981584 
L 150.924609 116.496409 
L 152.01041 126.007476 
L 153.096212 120.030367 
L 154.182013 118.103913 
L 155.267814 121.688903 
L 156.353615 128.425111 
L 157.439416 123.838621 
L 158.525217 116.700536 
L 159.611019 120.253631 
L 160.69682 122.014231 
L 161.782621 121.408227 
L 162.868422 119.673143 
L 163.954223 120.89734 
L 165.040024 127.67877 
L 166.125825 128.590965 
L 167.211627 129.196337 
L 168.297428 125.608947 
L 169.383229 121.063762 
L 170.46903 108.537267 
L 171.554831 119.698659 
L 172.640632 111.726759 
L 173.726434 120.215357 
L 174.812235 115.547835 
L 175.898036 114.897305 
L 176.983837 117.880649 
L 178.069638 120.202599 
L 179.155439 103.400352 
L 180.24124 109.744929 
L 181.327042 117.784964 
L 183.498644 108.224282 
L 184.584445 101.755089 
L 185.670246 114.113568 
L 186.756047 105.884619 
L 187.841849 104.274273 
L 188.92765 111.703729 
L 190.013451 111.14444 
L 191.099252 95.179292 
L 192.185053 100.629851 
L 193.270854 107.914998 
L 195.442457 105.58146 
L 196.528258 117.574457 
L 197.614059 109.893128 
L 198.69986 113.773087 
L 199.785661 110.563952 
L 200.871462 105.808 
L 201.957264 120.802224 
L 203.043065 123.03209 
L 204.128866 122.52455 
L 205.214667 112.141881 
L 206.300468 118.05926 
L 207.386269 116.600728 
L 208.472071 133.478468 
L 209.557872 136.130926 
L 210.643673 124.272392 
L 211.729474 116.860011 
L 212.815275 113.555697 
L 213.901076 100.504293 
L 214.986877 108.178212 
L 216.072679 114.251006 
L 217.15848 107.674272 
L 218.244281 108.31855 
L 219.330082 102.130934 
L 220.415883 120.183462 
L 221.501684 134.59359 
L 222.587486 105.735061 
L 223.673287 104.803729 
L 224.759088 125.273893 
L 225.844889 106.589845 
L 226.93069 104.771834 
L 228.016491 118.033744 
L 229.102292 100.127932 
L 230.188094 122.46076 
L 231.273895 123.034869 
L 232.359696 118.722675 
L 233.445497 106.1178 
L 234.531298 102.290408 
L 235.617099 105.983841 
L 236.702901 111.418736 
L 237.788702 113.045378 
L 238.874503 101.531309 
L 239.960304 125.012354 
L 241.046105 124.623236 
L 242.131906 115.699036 
L 243.217708 126.313667 
L 244.303509 107.406355 
L 245.38931 102.736937 
L 246.475111 121.829241 
L 247.560912 102.303166 
L 248.646713 111.412357 
L 249.732514 98.297164 
L 250.818316 109.587968 
L 251.904117 114.933557 
L 252.989918 121.006351 
L 254.075719 120.247252 
L 255.16152 107.923053 
L 256.247321 107.789094 
L 257.333123 112.343689 
L 258.418924 106.991721 
L 259.504725 108.388718 
L 260.590526 115.067516 
L 261.676327 112.4011 
L 262.762128 115.526803 
L 263.847929 114.327554 
L 264.933731 119.25213 
L 266.019532 114.461512 
L 267.105333 97.716676 
L 268.191134 115.954195 
L 269.276935 113.434496 
L 270.362736 120.783087 
L 271.448538 118.741812 
L 272.534339 134.4086 
L 273.62014 126.243498 
L 274.705941 107.820989 
L 275.791742 117.848754 
L 276.877543 108.222865 
L 277.963344 109.294534 
L 279.049146 99.394349 
L 280.134947 111.361326 
L 281.220748 113.995847 
L 282.306549 113.090031 
L 283.39235 122.466514 
L 284.478151 121.274269 
L 285.563953 112.110043 
L 286.649754 136.003346 
L 287.735555 125.950195 
L 288.821356 112.350068 
L 289.907157 109.527563 
L 290.992958 127.761697 
L 292.07876 132.781958 
L 293.164561 119.308291 
L 294.250362 122.640509 
L 295.336163 128.449716 
L 296.421964 106.392096 
L 297.507765 108.019988 
L 298.593566 120.190091 
L 299.679368 121.810169 
L 300.765169 129.062301 
L 301.85097 119.411605 
L 302.936771 128.885297 
L 304.022572 122.052505 
L 305.108373 122.709983 
L 306.194175 115.431379 
L 307.279976 109.225692 
L 308.365777 115.48215 
L 309.451578 101.507751 
L 310.537379 123.111417 
L 311.62318 117.97962 
L 312.708981 122.518171 
L 313.794783 115.503624 
L 314.880584 120.228115 
L 317.052186 102.702272 
L 318.137987 119.175583 
L 319.223788 101.875774 
L 320.30959 117.992506 
L 321.395391 103.872397 
L 322.481192 93.663494 
L 323.566993 119.271267 
L 324.652794 120.884709 
L 325.738595 114.888904 
L 326.824396 94.099286 
L 327.910198 106.526055 
L 328.995999 113.084662 
L 330.0818 107.400418 
L 331.167601 127.510011 
L 332.253402 106.57936 
L 333.339203 106.642519 
L 334.425005 116.703631 
L 335.510806 94.795101 
L 336.596607 105.720408 
L 337.682408 100.951958 
L 338.768209 115.852131 
L 339.85401 98.488275 
L 340.939811 107.399976 
L 342.025613 118.346894 
L 343.111414 125.171829 
L 344.197215 103.118287 
L 345.283016 112.406062 
L 346.368817 100.459962 
L 347.454618 105.326805 
L 348.54042 115.301517 
L 349.626221 112.206316 
L 350.712022 101.311961 
L 351.797823 103.56569 
L 352.883624 108.771458 
L 353.969425 104.286715 
L 355.055227 119.609354 
L 356.141028 122.990216 
L 357.226829 112.560449 
L 358.31263 113.562076 
L 359.398431 109.770703 
L 360.484232 115.16958 
L 361.570033 118.868811 
L 362.655835 112.680449 
L 363.741636 102.787969 
L 364.827437 106.392096 
L 365.913238 115.571456 
L 366.999039 114.276522 
L 368.08484 107.712546 
L 369.170642 111.495284 
L 370.256443 109.817611 
L 371.342244 114.589092 
L 372.428045 123.870516 
L 373.513846 120.036746 
L 375.685448 94.871649 
L 376.77125 106.002978 
L 377.857051 103.145192 
L 378.942852 110.034497 
L 380.028653 109.677273 
L 381.114454 100.185343 
L 382.200255 109.581589 
L 383.286057 107.431871 
L 384.371858 99.942942 
L 385.457659 111.922676 
L 386.54346 100.191722 
L 387.629261 108.497161 
L 388.715062 108.796973 
L 389.800863 119.94744 
L 390.886665 108.493056 
L 391.972466 118.863012 
L 393.058267 108.573709 
L 394.144068 103.746106 
L 395.229869 107.948568 
L 396.31567 109.224366 
L 397.401472 112.663798 
L 398.487273 108.54001 
L 398.487273 108.54001 
" style="fill:none;stroke:#0000ff;stroke-linecap:square;stroke-width:1.5;"/>
   </g>
   <g id="line2d_28">
    <path clip-path="url(#p43f84e8461)" d="M 73.832727 244.091 
L 74.918528 204.73266 
L 76.00433 179.556931 
L 77.090131 187.284009 
L 78.175932 191.213464 
L 79.261733 205.017588 
L 80.347534 200.437477 
L 81.433335 183.750051 
L 82.519137 186.114528 
L 83.604938 192.297891 
L 84.690739 191.825847 
L 85.77654 173.781823 
L 86.862341 205.179189 
L 87.948142 193.314276 
L 89.033943 196.091261 
L 90.119745 200.454487 
L 91.205546 189.661244 
L 92.291347 201.411335 
L 93.377148 190.715903 
L 94.462949 176.894768 
L 95.54875 168.406465 
L 96.634552 174.275132 
L 97.720353 162.320913 
L 98.806154 158.531796 
L 99.891955 158.786955 
L 100.977756 163.958186 
L 102.063557 164.06025 
L 103.149358 144.446996 
L 104.23516 160.186079 
L 105.320961 172.5443 
L 106.406762 153.717788 
L 107.492563 156.354435 
L 108.578364 152.837488 
L 109.664165 163.877385 
L 110.749967 169.48664 
L 111.835768 156.371446 
L 112.921569 155.380577 
L 114.00737 174.683387 
L 115.093171 164.583327 
L 116.178972 167.738798 
L 117.264773 175.304275 
L 118.350575 186.7099 
L 119.436376 176.771441 
L 120.522177 170.379698 
L 121.607978 165.416847 
L 122.693779 153.03311 
L 123.77958 172.14455 
L 124.865382 163.843364 
L 125.951183 151.144931 
L 127.036984 144.523544 
L 128.122785 151.689271 
L 129.208586 166.560812 
L 130.294387 160.917536 
L 131.380189 158.497775 
L 132.46599 160.215848 
L 133.551791 168.006715 
L 134.637592 153.683767 
L 135.723393 149.996713 
L 136.809194 152.165568 
L 137.894995 169.945927 
L 138.980797 166.679886 
L 140.066598 166.088767 
L 141.152399 169.729041 
L 142.2382 150.50278 
L 143.324001 163.341551 
L 144.409802 170.090517 
L 145.495604 152.157063 
L 146.581405 170.141549 
L 147.667206 153.653998 
L 148.753007 186.603584 
L 149.838808 188.172814 
L 150.924609 168.593582 
L 152.01041 165.127667 
L 153.096212 166.309905 
L 154.182013 160.34768 
L 155.267814 147.155939 
L 156.353615 179.080634 
L 157.439416 175.678508 
L 158.525217 164.94055 
L 159.611019 169.15068 
L 160.69682 157.651496 
L 161.782621 137.255753 
L 162.868422 153.96019 
L 163.954223 138.807973 
L 165.040024 153.917663 
L 166.125825 147.908659 
L 167.211627 133.113666 
L 168.297428 135.775829 
L 169.383229 131.191465 
L 170.46903 131.544435 
L 171.554831 136.949562 
L 172.640632 134.24062 
L 173.726434 132.539557 
L 174.812235 130.570577 
L 175.898036 121.563449 
L 176.983837 145.276264 
L 178.069638 136.736929 
L 179.155439 135.388837 
L 180.24124 142.286646 
L 181.327042 146.479766 
L 182.412843 135.801345 
L 183.498644 121.108415 
L 184.584445 130.145311 
L 185.670246 135.686523 
L 186.756047 148.142555 
L 187.841849 142.818229 
L 188.92765 143.902656 
L 190.013451 146.267133 
L 191.099252 134.440495 
L 192.185053 136.2904 
L 193.270854 139.454377 
L 194.356656 150.630359 
L 195.442457 142.524795 
L 196.528258 146.798715 
L 197.614059 143.345558 
L 198.69986 140.742932 
L 199.785661 137.391838 
L 200.871462 144.204595 
L 201.957264 154.070759 
L 203.043065 136.337179 
L 204.128866 150.545306 
L 205.214667 151.893398 
L 206.300468 156.55431 
L 207.386269 147.121917 
L 208.472071 173.479885 
L 209.557872 170.052243 
L 210.643673 144.672387 
L 211.729474 135.720544 
L 212.815275 152.739677 
L 213.901076 138.616604 
L 214.986877 149.226983 
L 216.072679 150.3752 
L 217.15848 155.784579 
L 218.244281 145.633487 
L 219.330082 143.502906 
L 220.415883 149.690522 
L 221.501684 170.515783 
L 222.587486 146.322418 
L 223.673287 149.333299 
L 224.759088 167.913157 
L 225.844889 131.463635 
L 226.93069 150.634612 
L 228.016491 156.056749 
L 229.102292 125.930928 
L 230.188094 144.030236 
L 231.273895 158.127793 
L 232.359696 148.542305 
L 233.445497 152.539802 
L 234.531298 143.064883 
L 235.617099 153.930421 
L 236.702901 137.289775 
L 237.788702 154.759689 
L 238.874503 149.435363 
L 239.960304 152.497276 
L 241.046105 169.350555 
L 242.131906 168.304401 
L 243.217708 141.406347 
L 244.303509 149.818102 
L 245.38931 145.148685 
L 246.475111 157.502653 
L 247.560912 135.87364 
L 248.646713 155.121165 
L 249.732514 125.446125 
L 250.818316 156.720164 
L 251.904117 139.7308 
L 252.989918 141.17245 
L 254.075719 168.67013 
L 255.16152 143.103157 
L 256.247321 136.520044 
L 257.333123 157.08164 
L 258.418924 142.958566 
L 259.504725 143.485896 
L 260.590526 154.912785 
L 261.676327 158.055498 
L 262.762128 130.064511 
L 263.847929 139.820105 
L 264.933731 132.888275 
L 266.019532 147.215476 
L 267.105333 144.336427 
L 268.191134 133.768575 
L 269.276935 121.146689 
L 270.362736 151.166194 
L 271.448538 126.288151 
L 272.534339 149.754312 
L 273.62014 146.475514 
L 274.705941 128.138057 
L 275.791742 145.803594 
L 276.877543 151.387332 
L 277.963344 129.690277 
L 279.049146 130.421734 
L 280.134947 141.334051 
L 281.220748 129.418107 
L 282.306549 138.65913 
L 283.39235 149.583455 
L 284.478151 148.572073 
L 285.563953 132.022484 
L 286.649754 152.739677 
L 287.735555 145.544963 
L 288.821356 132.216355 
L 289.907157 140.033867 
L 290.992958 159.348306 
L 292.07876 157.064629 
L 293.164561 158.760022 
L 294.250362 157.56219 
L 295.336163 152.583544 
L 296.421964 139.441619 
L 297.507765 132.314333 
L 298.593566 155.728961 
L 299.679368 150.421479 
L 300.765169 150.945056 
L 301.85097 146.377702 
L 302.936771 152.727086 
L 304.022572 138.616604 
L 305.108373 155.746306 
L 306.194175 157.478439 
L 307.279976 156.834986 
L 308.365777 163.367067 
L 309.451578 135.452627 
L 310.537379 156.324667 
L 311.62318 155.691021 
L 312.708981 175.831604 
L 313.794783 155.138176 
L 314.880584 150.757939 
L 315.966385 157.506905 
L 317.052186 146.377702 
L 318.137987 143.247747 
L 319.223788 132.48002 
L 320.30959 156.28214 
L 321.395391 156.656374 
L 322.481192 144.221605 
L 323.566993 158.166067 
L 324.652794 161.614972 
L 325.738595 160.81122 
L 326.824396 142.11654 
L 327.910198 155.627231 
L 328.995999 145.42936 
L 331.167601 159.701276 
L 332.253402 156.209845 
L 333.339203 146.271386 
L 334.425005 160.207343 
L 335.510806 143.485896 
L 336.596607 148.372198 
L 337.682408 136.89853 
L 338.768209 148.533799 
L 339.85401 146.220354 
L 340.939811 144.255627 
L 342.025613 151.86363 
L 343.111414 165.740049 
L 344.197215 144.34068 
L 345.283016 150.124293 
L 346.368817 143.957941 
L 347.454618 134.925297 
L 348.54042 148.516789 
L 349.626221 157.723791 
L 350.712022 140.139055 
L 351.797823 136.400969 
L 352.883624 138.016979 
L 353.969425 130.587587 
L 355.055227 147.394087 
L 356.141028 155.372072 
L 357.226829 142.711912 
L 358.31263 136.035241 
L 359.398431 149.384331 
L 360.484232 142.320668 
L 361.570033 145.484644 
L 362.655835 152.042241 
L 363.741636 140.917291 
L 364.827437 135.193215 
L 365.913238 152.084768 
L 366.999039 138.8505 
L 368.08484 148.168071 
L 369.170642 149.137677 
L 370.256443 160.436986 
L 371.342244 151.098152 
L 372.428045 163.987955 
L 373.513846 154.181328 
L 374.599647 146.99859 
L 375.685448 139.041869 
L 376.77125 140.088023 
L 377.857051 144.527797 
L 378.942852 134.746686 
L 380.028653 161.495898 
L 381.114454 143.154188 
L 382.200255 154.160065 
L 383.286057 138.408223 
L 384.371858 131.552941 
L 385.457659 153.955937 
L 387.629261 135.53768 
L 388.715062 122.958321 
L 389.800863 128.775956 
L 390.886665 144.804219 
L 391.972466 166.09302 
L 393.058267 162.074259 
L 395.229869 142.91604 
L 396.31567 155.525167 
L 397.401472 144.885367 
L 398.487273 156.962045 
L 398.487273 156.962045 
" style="fill:none;stroke:#ff0000;stroke-linecap:square;stroke-width:1.5;"/>
   </g>
   <g id="line2d_29">
    <path clip-path="url(#p43f84e8461)" d="M 73.832727 282.994305 
L 76.00433 262.071233 
L 77.090131 263.423578 
L 78.175932 263.449094 
L 79.261733 266.408943 
L 80.347534 265.018324 
L 81.433335 259.315511 
L 82.519137 262.492246 
L 83.604938 259.966168 
L 84.690739 259.672735 
L 85.77654 252.643093 
L 86.862341 265.630707 
L 87.948142 260.068232 
L 89.033943 261.407819 
L 90.119745 262.288119 
L 91.205546 256.470484 
L 92.291347 261.892621 
L 93.377148 257.12114 
L 94.462949 249.734275 
L 95.54875 245.511387 
L 96.634552 244.911762 
L 97.720353 241.173677 
L 98.806154 239.055854 
L 99.891955 237.754541 
L 100.977756 237.499382 
L 102.063557 240.178555 
L 103.149358 224.907264 
L 104.23516 238.315892 
L 105.320961 244.477991 
L 106.406762 235.611202 
L 107.492563 234.80745 
L 108.578364 230.929027 
L 110.749967 246.264107 
L 111.835768 235.356042 
L 112.921569 229.831841 
L 114.00737 239.617205 
L 115.093171 229.704261 
L 116.178972 232.98306 
L 117.264773 239.540657 
L 118.350575 245.077616 
L 119.436376 239.744784 
L 121.607978 235.024335 
L 122.693779 219.829592 
L 123.77958 234.705386 
L 124.865382 234.335405 
L 125.951183 223.057359 
L 127.036984 221.181937 
L 128.122785 228.045725 
L 129.208586 231.145912 
L 130.294387 232.013454 
L 131.380189 225.073118 
L 132.46599 230.40595 
L 133.551791 229.984937 
L 134.637592 221.85811 
L 135.723393 221.768804 
L 136.809194 224.856233 
L 137.894995 236.50426 
L 138.980797 229.819083 
L 140.066598 231.03109 
L 141.152399 228.326401 
L 142.2382 225.06036 
L 143.324001 225.94066 
L 144.409802 232.85548 
L 145.495604 223.044601 
L 146.581405 229.704261 
L 147.667206 224.958296 
L 148.753007 242.755665 
L 149.838808 244.873489 
L 150.924609 231.630715 
L 152.01041 231.503135 
L 153.096212 232.29413 
L 154.182013 226.412705 
L 155.267814 216.550794 
L 156.353615 235.866361 
L 157.439416 238.95379 
L 158.525217 228.402948 
L 159.611019 238.060732 
L 160.69682 225.162424 
L 161.782621 208.258113 
L 162.868422 213.897136 
L 163.954223 212.008956 
L 165.040024 220.288879 
L 166.125825 214.114021 
L 167.211627 193.714026 
L 168.297428 186.403709 
L 169.383229 193.803332 
L 170.46903 190.052489 
L 171.554831 197.490386 
L 172.640632 191.417592 
L 173.726434 192.387197 
L 174.812235 190.894515 
L 175.898036 175.954931 
L 176.983837 200.692636 
L 178.069638 194.747422 
L 179.155439 195.296015 
L 180.24124 196.418716 
L 181.327042 202.108771 
L 182.412843 195.908397 
L 183.498644 167.100899 
L 184.584445 185.778568 
L 185.670246 187.130913 
L 186.756047 198.21759 
L 187.841849 189.567686 
L 188.92765 190.98382 
L 190.013451 197.490386 
L 191.099252 197.617965 
L 192.185053 196.214588 
L 193.270854 187.5902 
L 194.356656 213.463365 
L 195.442457 190.2311 
L 196.528258 199.404081 
L 197.614059 195.831849 
L 198.69986 196.801455 
L 199.785661 194.428473 
L 200.871462 204.111772 
L 201.957264 207.77331 
L 203.043065 192.081006 
L 205.214667 202.963555 
L 206.300468 206.523029 
L 207.386269 194.977065 
L 208.472071 218.247604 
L 209.557872 216.104265 
L 210.643673 202.797701 
L 211.729474 187.041608 
L 212.815275 206.637851 
L 213.901076 202.376688 
L 214.986877 202.746669 
L 216.072679 208.041227 
L 217.15848 209.100139 
L 218.244281 194.135039 
L 219.330082 202.810459 
L 220.415883 205.681003 
L 221.501684 224.11627 
L 222.587486 199.212712 
L 223.673287 207.454361 
L 224.759088 208.959801 
L 225.844889 189.848361 
L 226.93069 204.162804 
L 228.016491 215.925653 
L 229.102292 190.613839 
L 230.188094 206.408207 
L 231.273895 215.951169 
L 232.359696 207.569182 
L 233.445497 203.945919 
L 234.531298 196.788697 
L 235.617099 206.854736 
L 236.702901 189.593202 
L 237.788702 203.524906 
L 238.874503 210.643853 
L 239.960304 198.268622 
L 241.046105 222.687378 
L 242.131906 229.015331 
L 243.217708 196.3932 
L 244.303509 198.357928 
L 245.38931 198.383443 
L 246.475111 199.620967 
L 247.560912 189.720781 
L 248.646713 204.685881 
L 249.732514 176.745925 
L 250.818316 205.32378 
L 251.904117 196.26562 
L 252.989918 194.377441 
L 254.075719 218.20933 
L 255.16152 201.151923 
L 256.247321 196.533538 
L 257.333123 212.825466 
L 259.504725 195.002581 
L 260.590526 203.741791 
L 261.676327 204.877251 
L 262.762128 183.112153 
L 263.847929 196.163557 
L 264.933731 189.070125 
L 266.019532 206.204079 
L 267.105333 203.231472 
L 268.191134 190.562807 
L 269.276935 176.159059 
L 270.362736 207.722278 
L 271.448538 185.702021 
L 272.534339 203.780065 
L 273.62014 204.430722 
L 274.705941 187.641232 
L 275.791742 206.586819 
L 276.877543 205.208958 
L 277.963344 190.384196 
L 279.049146 189.60596 
L 280.134947 204.37969 
L 281.220748 186.544047 
L 282.306549 201.891885 
L 283.39235 201.853612 
L 284.478151 207.77331 
L 285.563953 200.527783 
L 286.649754 213.042352 
L 287.735555 211.135686 
L 288.821356 200.616088 
L 289.907157 208.584092 
L 290.992958 218.451731 
L 292.07876 211.243478 
L 293.164561 219.439599 
L 295.336163 207.256222 
L 296.421964 201.764306 
L 297.507765 197.013087 
L 298.593566 214.724152 
L 299.679368 212.422715 
L 300.765169 205.897888 
L 301.85097 203.729033 
L 302.936771 201.903643 
L 304.022572 203.231472 
L 305.108373 213.820588 
L 306.194175 202.33529 
L 307.279976 208.602578 
L 308.365777 216.818711 
L 309.451578 196.712149 
L 311.62318 207.530908 
L 312.708981 229.602198 
L 313.794783 213.157174 
L 314.880584 209.112897 
L 315.966385 206.841978 
L 317.052186 210.937287 
L 318.137987 211.498637 
L 319.223788 199.761304 
L 320.30959 210.018713 
L 321.395391 212.021714 
L 322.481192 207.046106 
L 323.566993 218.171056 
L 324.652794 214.739162 
L 325.738595 219.229968 
L 326.824396 205.540665 
L 327.910198 210.784191 
L 328.995999 205.157926 
L 330.0818 218.056234 
L 331.167601 209.712521 
L 332.253402 212.213084 
L 333.339203 206.89301 
L 334.425005 214.62434 
L 335.510806 208.934285 
L 336.596607 205.846856 
L 337.682408 204.685881 
L 338.768209 205.668245 
L 339.85401 209.138413 
L 340.939811 205.642729 
L 342.025613 200.871248 
L 343.111414 208.194323 
L 344.197215 201.700516 
L 345.283016 206.548545 
L 346.368817 198.077252 
L 347.454618 200.118527 
L 349.626221 205.936162 
L 350.712022 192.910274 
L 351.797823 186.352677 
L 352.883624 196.176315 
L 353.969425 195.461868 
L 355.055227 205.311022 
L 356.141028 204.698639 
L 357.226829 199.302017 
L 358.31263 191.213464 
L 359.398431 207.097137 
L 360.484232 196.992825 
L 361.570033 202.644606 
L 362.655835 194.76018 
L 363.741636 203.103893 
L 364.827437 203.18044 
L 365.913238 214.726404 
L 366.999039 202.261867 
L 368.08484 214.522276 
L 369.170642 210.15905 
L 370.256443 223.810079 
L 371.342244 210.465242 
L 372.428045 218.885502 
L 373.513846 204.749671 
L 374.599647 203.882129 
L 375.685448 196.431474 
L 376.77125 198.625845 
L 377.857051 202.593574 
L 378.942852 200.488509 
L 380.028653 223.133907 
L 381.114454 202.134287 
L 382.200255 216.270118 
L 383.286057 195.398078 
L 384.371858 195.334288 
L 385.457659 212.787192 
L 386.54346 200.539541 
L 387.629261 196.890761 
L 388.715062 185.76581 
L 389.800863 178.761685 
L 390.886665 202.657364 
L 393.058267 220.03372 
L 394.144068 218.087478 
L 395.229869 208.883253 
L 396.31567 216.282876 
L 397.401472 201.996813 
L 398.487273 219.024799 
L 398.487273 219.024799 
" style="fill:none;stroke:#008000;stroke-linecap:square;stroke-width:1.5;"/>
   </g>
   <g id="patch_3">
    <path d="M 57.6 307.584 
L 57.6 41.472 
" style="fill:none;stroke:#000000;stroke-linecap:square;stroke-linejoin:miter;stroke-width:0.8;"/>
   </g>
   <g id="patch_4">
    <path d="M 414.72 307.584 
L 414.72 41.472 
" style="fill:none;stroke:#000000;stroke-linecap:square;stroke-linejoin:miter;stroke-width:0.8;"/>
   </g>
   <g id="patch_5">
    <path d="M 57.6 307.584 
L 414.72 307.584 
" style="fill:none;stroke:#000000;stroke-linecap:square;stroke-linejoin:miter;stroke-width:0.8;"/>
   </g>
   <g id="patch_6">
    <path d="M 57.6 41.472 
L 414.72 41.472 
" style="fill:none;stroke:#000000;stroke-linecap:square;stroke-linejoin:miter;stroke-width:0.8;"/>
   </g>
   <g id="text_16">
    <!-- Scores by generation -->
    <defs>
     <path id="DejaVuSans-32"/>
     <path d="M 48.6875 27.296875 
Q 48.6875 37.203125 44.609375 42.84375 
Q 40.53125 48.484375 33.40625 48.484375 
Q 26.265625 48.484375 22.1875 42.84375 
Q 18.109375 37.203125 18.109375 27.296875 
Q 18.109375 17.390625 22.1875 11.75 
Q 26.265625 6.109375 33.40625 6.109375 
Q 40.53125 6.109375 44.609375 11.75 
Q 48.6875 17.390625 48.6875 27.296875 
z
M 18.109375 46.390625 
Q 20.953125 51.265625 25.265625 53.625 
Q 29.59375 56 35.59375 56 
Q 45.5625 56 51.78125 48.09375 
Q 58.015625 40.1875 58.015625 27.296875 
Q 58.015625 14.40625 51.78125 6.484375 
Q 45.5625 -1.421875 35.59375 -1.421875 
Q 29.59375 -1.421875 25.265625 0.953125 
Q 20.953125 3.328125 18.109375 8.203125 
L 18.109375 0 
L 9.078125 0 
L 9.078125 75.984375 
L 18.109375 75.984375 
z
" id="DejaVuSans-98"/>
     <path d="M 32.171875 -5.078125 
Q 28.375 -14.84375 24.75 -17.8125 
Q 21.140625 -20.796875 15.09375 -20.796875 
L 7.90625 -20.796875 
L 7.90625 -13.28125 
L 13.1875 -13.28125 
Q 16.890625 -13.28125 18.9375 -11.515625 
Q 21 -9.765625 23.484375 -3.21875 
L 25.09375 0.875 
L 2.984375 54.6875 
L 12.5 54.6875 
L 29.59375 11.921875 
L 46.6875 54.6875 
L 56.203125 54.6875 
z
" id="DejaVuSans-121"/>
     <path d="M 45.40625 27.984375 
Q 45.40625 37.75 41.375 43.109375 
Q 37.359375 48.484375 30.078125 48.484375 
Q 22.859375 48.484375 18.828125 43.109375 
Q 14.796875 37.75 14.796875 27.984375 
Q 14.796875 18.265625 18.828125 12.890625 
Q 22.859375 7.515625 30.078125 7.515625 
Q 37.359375 7.515625 41.375 12.890625 
Q 45.40625 18.265625 45.40625 27.984375 
z
M 54.390625 6.78125 
Q 54.390625 -7.171875 48.1875 -13.984375 
Q 42 -20.796875 29.203125 -20.796875 
Q 24.46875 -20.796875 20.265625 -20.09375 
Q 16.0625 -19.390625 12.109375 -17.921875 
L 12.109375 -9.1875 
Q 16.0625 -11.328125 19.921875 -12.34375 
Q 23.78125 -13.375 27.78125 -13.375 
Q 36.625 -13.375 41.015625 -8.765625 
Q 45.40625 -4.15625 45.40625 5.171875 
L 45.40625 9.625 
Q 42.625 4.78125 38.28125 2.390625 
Q 33.9375 0 27.875 0 
Q 17.828125 0 11.671875 7.65625 
Q 5.515625 15.328125 5.515625 27.984375 
Q 5.515625 40.671875 11.671875 48.328125 
Q 17.828125 56 27.875 56 
Q 33.9375 56 38.28125 53.609375 
Q 42.625 51.21875 45.40625 46.390625 
L 45.40625 54.6875 
L 54.390625 54.6875 
z
" id="DejaVuSans-103"/>
    </defs>
    <g transform="translate(172.292812 35.472)scale(0.12 -0.12)">
     <use xlink:href="#DejaVuSans-83"/>
     <use x="63.476562" xlink:href="#DejaVuSans-99"/>
     <use x="118.457031" xlink:href="#DejaVuSans-111"/>
     <use x="179.638672" xlink:href="#DejaVuSans-114"/>
     <use x="220.720703" xlink:href="#DejaVuSans-101"/>
     <use x="282.244141" xlink:href="#DejaVuSans-115"/>
     <use x="334.34375" xlink:href="#DejaVuSans-32"/>
     <use x="366.130859" xlink:href="#DejaVuSans-98"/>
     <use x="429.607422" xlink:href="#DejaVuSans-121"/>
     <use x="488.787109" xlink:href="#DejaVuSans-32"/>
     <use x="520.574219" xlink:href="#DejaVuSans-103"/>
     <use x="584.050781" xlink:href="#DejaVuSans-101"/>
     <use x="645.574219" xlink:href="#DejaVuSans-110"/>
     <use x="708.953125" xlink:href="#DejaVuSans-101"/>
     <use x="770.476562" xlink:href="#DejaVuSans-114"/>
     <use x="811.589844" xlink:href="#DejaVuSans-97"/>
     <use x="872.869141" xlink:href="#DejaVuSans-116"/>
     <use x="912.078125" xlink:href="#DejaVuSans-105"/>
     <use x="939.861328" xlink:href="#DejaVuSans-111"/>
     <use x="1001.042969" xlink:href="#DejaVuSans-110"/>
    </g>
   </g>
   <g id="legend_1">
    <g id="patch_7">
     <path d="M 338.37 93.506375 
L 407.72 93.506375 
Q 409.72 93.506375 409.72 91.506375 
L 409.72 48.472 
Q 409.72 46.472 407.72 46.472 
L 338.37 46.472 
Q 336.37 46.472 336.37 48.472 
L 336.37 91.506375 
Q 336.37 93.506375 338.37 93.506375 
z
" style="fill:#ffffff;opacity:0.8;stroke:#cccccc;stroke-linejoin:miter;"/>
    </g>
    <g id="line2d_30">
     <path d="M 340.37 54.570438 
L 360.37 54.570438 
" style="fill:none;stroke:#0000ff;stroke-linecap:square;stroke-width:1.5;"/>
    </g>
    <g id="line2d_31"/>
    <g id="text_17">
     <!-- species -->
     <defs>
      <path d="M 18.109375 8.203125 
L 18.109375 -20.796875 
L 9.078125 -20.796875 
L 9.078125 54.6875 
L 18.109375 54.6875 
L 18.109375 46.390625 
Q 20.953125 51.265625 25.265625 53.625 
Q 29.59375 56 35.59375 56 
Q 45.5625 56 51.78125 48.09375 
Q 58.015625 40.1875 58.015625 27.296875 
Q 58.015625 14.40625 51.78125 6.484375 
Q 45.5625 -1.421875 35.59375 -1.421875 
Q 29.59375 -1.421875 25.265625 0.953125 
Q 20.953125 3.328125 18.109375 8.203125 
z
M 48.6875 27.296875 
Q 48.6875 37.203125 44.609375 42.84375 
Q 40.53125 48.484375 33.40625 48.484375 
Q 26.265625 48.484375 22.1875 42.84375 
Q 18.109375 37.203125 18.109375 27.296875 
Q 18.109375 17.390625 22.1875 11.75 
Q 26.265625 6.109375 33.40625 6.109375 
Q 40.53125 6.109375 44.609375 11.75 
Q 48.6875 17.390625 48.6875 27.296875 
z
" id="DejaVuSans-112"/>
     </defs>
     <g transform="translate(368.37 58.070438)scale(0.1 -0.1)">
      <use xlink:href="#DejaVuSans-115"/>
      <use x="52.099609" xlink:href="#DejaVuSans-112"/>
      <use x="115.576172" xlink:href="#DejaVuSans-101"/>
      <use x="177.099609" xlink:href="#DejaVuSans-99"/>
      <use x="232.080078" xlink:href="#DejaVuSans-105"/>
      <use x="259.863281" xlink:href="#DejaVuSans-101"/>
      <use x="321.386719" xlink:href="#DejaVuSans-115"/>
     </g>
    </g>
    <g id="line2d_32">
     <path d="M 340.37 69.248563 
L 360.37 69.248563 
" style="fill:none;stroke:#ff0000;stroke-linecap:square;stroke-width:1.5;"/>
    </g>
    <g id="line2d_33"/>
    <g id="text_18">
     <!-- bits -->
     <g transform="translate(368.37 72.748563)scale(0.1 -0.1)">
      <use xlink:href="#DejaVuSans-98"/>
      <use x="63.476562" xlink:href="#DejaVuSans-105"/>
      <use x="91.259766" xlink:href="#DejaVuSans-116"/>
      <use x="130.46875" xlink:href="#DejaVuSans-115"/>
     </g>
    </g>
    <g id="line2d_34">
     <path d="M 340.37 83.926688 
L 360.37 83.926688 
" style="fill:none;stroke:#008000;stroke-linecap:square;stroke-width:1.5;"/>
    </g>
    <g id="line2d_35"/>
    <g id="text_19">
     <!-- total -->
     <defs>
      <path d="M 9.421875 75.984375 
L 18.40625 75.984375 
L 18.40625 0 
L 9.421875 0 
z
" id="DejaVuSans-108"/>
     </defs>
     <g transform="translate(368.37 87.426688)scale(0.1 -0.1)">
      <use xlink:href="#DejaVuSans-116"/>
      <use x="39.208984" xlink:href="#DejaVuSans-111"/>
      <use x="100.390625" xlink:href="#DejaVuSans-116"/>
      <use x="139.599609" xlink:href="#DejaVuSans-97"/>
      <use x="200.878906" xlink:href="#DejaVuSans-108"/>
     </g>
    </g>
   </g>
  </g>
 </g>
 <defs>
  <clipPath id="p43f84e8461">
   <rect height="266.112" width="357.12" x="57.6" y="41.472"/>
  </clipPath>
 </defs>
</svg>
