<?xml version="1.0" encoding="UTF-8" standalone="no"?>
<!DOCTYPE svg PUBLIC "-//W3C//DTD SVG 1.1//EN"
 "http://www.w3.org/Graphics/SVG/1.1/DTD/svg11.dtd">
<!-- Generated by graphviz version 2.40.1 (20161225.0304)
 -->
<!-- Title: %3 Pages: 1 -->
<svg width="386pt" height="175pt"
 viewBox="0.00 0.00 386.00 174.79" xmlns="http://www.w3.org/2000/svg" xmlns:xlink="http://www.w3.org/1999/xlink">
<g id="graph0" class="graph" transform="scale(1 1) rotate(0) translate(4 170.7893)">
<title>%3</title>
<polygon fill="#ffffff" stroke="transparent" points="-4,4 -4,-170.7893 381.9976,-170.7893 381.9976,4 -4,4"/>
<!-- E0 -->
<g id="node1" class="node">
<title>E0</title>
<polygon fill="#d3d3d3" stroke="#000000" points="25.9963,-166.7893 .0012,-166.7893 .0012,-149.7893 25.9963,-149.7893 25.9963,-166.7893"/>
<text text-anchor="middle" x="12.9988" y="-155.5893" font-family="Times,serif" font-size="9.00" fill="#000000">E0</text>
</g>
<!-- E1 -->
<g id="node2" class="node">
<title>E1</title>
<polygon fill="#d3d3d3" stroke="#000000" points="69.9963,-166.7893 44.0012,-166.7893 44.0012,-149.7893 69.9963,-149.7893 69.9963,-166.7893"/>
<text text-anchor="middle" x="56.9988" y="-155.5893" font-family="Times,serif" font-size="9.00" fill="#000000">E1</text>
</g>
<!-- E0&#45;&gt;E1 -->
<!-- 0 -->
<g id="node10" class="node">
<title>0</title>
<ellipse fill="#87cefa" stroke="#000000" cx="96.9988" cy="-14.853" rx="14.4914" ry="14.4914"/>
<text text-anchor="middle" x="96.9988" y="-12.153" font-family="Times,serif" font-size="9.00" fill="#000000">0</text>
</g>
<!-- E0&#45;&gt;0 -->
<g id="edge12" class="edge">
<title>E0&#45;&gt;0</title>
<path fill="none" stroke="#ff0000" stroke-width="1.0282" d="M18.0018,-149.7463C30.9246,-127.6796 65.7195,-68.2647 84.5269,-36.1497"/>
<polygon fill="#ff0000" stroke="#ff0000" stroke-width="1.0282" points="87.5594,-37.8974 89.5927,-27.4995 81.519,-34.3599 87.5594,-37.8974"/>
</g>
<!-- E2 -->
<g id="node3" class="node">
<title>E2</title>
<polygon fill="#d3d3d3" stroke="#000000" points="113.9963,-166.7893 88.0012,-166.7893 88.0012,-149.7893 113.9963,-149.7893 113.9963,-166.7893"/>
<text text-anchor="middle" x="100.9988" y="-155.5893" font-family="Times,serif" font-size="9.00" fill="#000000">E2</text>
</g>
<!-- E1&#45;&gt;E2 -->
<!-- E3 -->
<g id="node4" class="node">
<title>E3</title>
<polygon fill="#d3d3d3" stroke="#000000" points="157.9963,-166.7893 132.0012,-166.7893 132.0012,-149.7893 157.9963,-149.7893 157.9963,-166.7893"/>
<text text-anchor="middle" x="144.9988" y="-155.5893" font-family="Times,serif" font-size="9.00" fill="#000000">E3</text>
</g>
<!-- E2&#45;&gt;E3 -->
<!-- S -->
<g id="node13" class="node">
<title>S</title>
<ellipse fill="#87cefa" stroke="#000000" cx="237.9988" cy="-14.853" rx="14.7075" ry="14.7075"/>
<text text-anchor="middle" x="237.9988" y="-12.153" font-family="Times,serif" font-size="9.00" fill="#000000">S</text>
</g>
<!-- E2&#45;&gt;S -->
<g id="edge17" class="edge">
<title>E2&#45;&gt;S</title>
<path fill="none" stroke="#00ff00" stroke-width="1.7061" d="M105.4694,-149.6011C114.6991,-132.2291 137.2528,-92.5751 163.9988,-65.7061 172.5518,-57.1138 198.0307,-40.1888 216.7093,-28.2292"/>
<polygon fill="#00ff00" stroke="#00ff00" stroke-width="1.7061" points="218.6659,-31.1329 225.2286,-22.8153 214.9114,-25.2249 218.6659,-31.1329"/>
</g>
<!-- E4 -->
<g id="node5" class="node">
<title>E4</title>
<polygon fill="#d3d3d3" stroke="#000000" points="201.9963,-166.7893 176.0012,-166.7893 176.0012,-149.7893 201.9963,-149.7893 201.9963,-166.7893"/>
<text text-anchor="middle" x="188.9988" y="-155.5893" font-family="Times,serif" font-size="9.00" fill="#000000">E4</text>
</g>
<!-- E3&#45;&gt;E4 -->
<!-- E3&#45;&gt;S -->
<g id="edge13" class="edge">
<title>E3&#45;&gt;S</title>
<path fill="none" stroke="#00ff00" stroke-width="1.3357" d="M149.1276,-149.55C157.2133,-132.7454 176.0909,-94.9985 195.9988,-65.7061 203.5654,-54.5725 213.0399,-42.9402 221.0741,-33.6152"/>
<polygon fill="#00ff00" stroke="#00ff00" stroke-width="1.3357" points="223.7163,-35.9106 227.6796,-26.085 218.454,-31.2945 223.7163,-35.9106"/>
</g>
<!-- E5 -->
<g id="node6" class="node">
<title>E5</title>
<polygon fill="#d3d3d3" stroke="#000000" points="245.9963,-166.7893 220.0012,-166.7893 220.0012,-149.7893 245.9963,-149.7893 245.9963,-166.7893"/>
<text text-anchor="middle" x="232.9988" y="-155.5893" font-family="Times,serif" font-size="9.00" fill="#000000">E5</text>
</g>
<!-- E4&#45;&gt;E5 -->
<!-- 2 -->
<g id="node12" class="node">
<title>2</title>
<ellipse fill="#87cefa" stroke="#000000" cx="190.9988" cy="-14.853" rx="14.4914" ry="14.4914"/>
<text text-anchor="middle" x="190.9988" y="-12.153" font-family="Times,serif" font-size="9.00" fill="#000000">2</text>
</g>
<!-- E4&#45;&gt;2 -->
<g id="edge16" class="edge">
<title>E4&#45;&gt;2</title>
<path fill="none" stroke="#ff0000" stroke-width="2.5308" d="M189.1179,-149.7463C189.4141,-128.5056 190.1927,-72.6603 190.65,-39.8674"/>
<polygon fill="#ff0000" stroke="#ff0000" stroke-width="2.5308" points="194.1517,-39.7612 190.7916,-29.7133 187.1524,-39.6635 194.1517,-39.7612"/>
</g>
<!-- 56 -->
<g id="node15" class="node">
<title>56</title>
<ellipse fill="#add8e6" stroke="#000000" cx="228.9988" cy="-89.7477" rx="23.8825" ry="23.8825"/>
<text text-anchor="middle" x="228.9988" y="-91.5477" font-family="Times,serif" font-size="9.00" fill="#000000">56</text>
<text text-anchor="middle" x="228.9988" y="-82.5477" font-family="Times,serif" font-size="9.00" fill="#000000">sigm</text>
</g>
<!-- E4&#45;&gt;56 -->
<g id="edge22" class="edge">
<title>E4&#45;&gt;56</title>
<path fill="none" stroke="#ff0000" stroke-width=".18" d="M194.0648,-149.6085C198.5321,-141.9537 205.3088,-130.3415 211.7084,-119.3755"/>
<polygon fill="#ff0000" stroke="#ff0000" stroke-width=".18" points="214.9189,-120.818 216.9364,-110.417 208.8731,-117.2897 214.9189,-120.818"/>
</g>
<!-- E6 -->
<g id="node7" class="node">
<title>E6</title>
<polygon fill="#d3d3d3" stroke="#000000" points="289.9963,-166.7893 264.0012,-166.7893 264.0012,-149.7893 289.9963,-149.7893 289.9963,-166.7893"/>
<text text-anchor="middle" x="276.9988" y="-155.5893" font-family="Times,serif" font-size="9.00" fill="#000000">E6</text>
</g>
<!-- E5&#45;&gt;E6 -->
<!-- E5&#45;&gt;56 -->
<g id="edge14" class="edge">
<title>E5&#45;&gt;56</title>
<path fill="none" stroke="#ff0000" stroke-width="1.097" d="M232.4922,-149.6085C232.1062,-142.995 231.5479,-133.4275 230.9904,-123.8749"/>
<polygon fill="#ff0000" stroke="#ff0000" stroke-width="1.097" points="234.4708,-123.4347 230.394,-113.6556 227.4826,-123.8425 234.4708,-123.4347"/>
</g>
<!-- E7 -->
<g id="node8" class="node">
<title>E7</title>
<polygon fill="#d3d3d3" stroke="#000000" points="333.9963,-166.7893 308.0012,-166.7893 308.0012,-149.7893 333.9963,-149.7893 333.9963,-166.7893"/>
<text text-anchor="middle" x="320.9988" y="-155.5893" font-family="Times,serif" font-size="9.00" fill="#000000">E7</text>
</g>
<!-- E6&#45;&gt;E7 -->
<!-- 1 -->
<g id="node11" class="node">
<title>1</title>
<ellipse fill="#87cefa" stroke="#000000" cx="143.9988" cy="-14.853" rx="14.4914" ry="14.4914"/>
<text text-anchor="middle" x="143.9988" y="-12.153" font-family="Times,serif" font-size="9.00" fill="#000000">1</text>
</g>
<!-- E6&#45;&gt;1 -->
<g id="edge20" class="edge">
<title>E6&#45;&gt;1</title>
<path fill="none" stroke="#00ff00" stroke-width=".6589" d="M290.0876,-152.6588C313.7566,-142.3474 361.6394,-120.843 365.9988,-113.7893 377.2338,-95.6106 379.6918,-82.1132 365.9988,-65.7061 308.6886,2.9637 251.4847,-61.8012 167.9988,-29.7061 167.1183,-29.3676 166.2346,-28.9961 165.353,-28.5983"/>
<polygon fill="#00ff00" stroke="#00ff00" stroke-width=".6589" points="166.6985,-25.3461 156.2406,-23.6483 163.3571,-31.4972 166.6985,-25.3461"/>
</g>
<!-- E8 -->
<g id="node9" class="node">
<title>E8</title>
<polygon fill="#d3d3d3" stroke="#000000" points="377.9963,-166.7893 352.0012,-166.7893 352.0012,-149.7893 377.9963,-149.7893 377.9963,-166.7893"/>
<text text-anchor="middle" x="364.9988" y="-155.5893" font-family="Times,serif" font-size="9.00" fill="#000000">E8</text>
</g>
<!-- E7&#45;&gt;E8 -->
<!-- E7&#45;&gt;0 -->
<g id="edge21" class="edge">
<title>E7&#45;&gt;0</title>
<path fill="none" stroke="#ff0000" stroke-width=".4698" d="M316.4742,-149.4865C305.586,-128.6203 277.6682,-77.0519 261.9988,-65.7061 209.6126,-27.7745 180.5177,-55.0164 120.9988,-29.7061 120.1307,-29.337 119.2576,-28.9393 118.3849,-28.5196"/>
<polygon fill="#ff0000" stroke="#ff0000" stroke-width=".4698" points="119.7532,-25.2755 109.3138,-23.4672 116.347,-31.3909 119.7532,-25.2755"/>
</g>
<!-- 3684 -->
<g id="node14" class="node">
<title>3684</title>
<ellipse fill="#add8e6" stroke="#000000" cx="332.9988" cy="-89.7477" rx="24.0833" ry="24.0833"/>
<text text-anchor="middle" x="332.9988" y="-91.5477" font-family="Times,serif" font-size="9.00" fill="#000000">3684</text>
<text text-anchor="middle" x="332.9988" y="-82.5477" font-family="Times,serif" font-size="9.00" fill="#000000">sigm</text>
</g>
<!-- E8&#45;&gt;3684 -->
<g id="edge18" class="edge">
<title>E8&#45;&gt;3684</title>
<path fill="none" stroke="#00ff00" stroke-width=".149" d="M360.946,-149.6085C357.512,-142.2531 352.3721,-131.2439 347.4331,-120.6651"/>
<polygon fill="#00ff00" stroke="#00ff00" stroke-width=".149" points="350.5943,-119.1624 343.1925,-111.5819 344.2515,-122.1237 350.5943,-119.1624"/>
</g>
<!-- 0&#45;&gt;1 -->
<!-- 1&#45;&gt;2 -->
<!-- 2&#45;&gt;S -->
<!-- 3684&#45;&gt;0 -->
<g id="edge19" class="edge">
<title>3684&#45;&gt;0</title>
<path fill="none" stroke="#00ff00" stroke-width=".171" d="M313.2177,-75.3507C307.5544,-71.7603 301.2235,-68.2216 294.9988,-65.7061 221.7805,-36.1167 194.3628,-58.9322 120.9988,-29.7061 120.1225,-29.357 119.2423,-28.9764 118.3637,-28.5711"/>
<polygon fill="#00ff00" stroke="#00ff00" stroke-width=".171" points="119.7168,-25.3215 109.2651,-23.5856 116.353,-31.4604 119.7168,-25.3215"/>
</g>
<!-- 56&#45;&gt;1 -->
<g id="edge15" class="edge">
<title>56&#45;&gt;1</title>
<path fill="none" stroke="#ff0000" stroke-width=".819" d="M210.9725,-73.8645C196.7959,-61.3733 177.1082,-44.0262 162.7485,-31.3736"/>
<polygon fill="#ff0000" stroke="#ff0000" stroke-width=".819" points="164.8082,-28.5237 154.9913,-24.5387 160.1805,-33.7758 164.8082,-28.5237"/>
</g>
</g>
</svg>
