<?xml version="1.0" encoding="utf-8" standalone="no"?>
<!DOCTYPE svg PUBLIC "-//W3C//DTD SVG 1.1//EN"
  "http://www.w3.org/Graphics/SVG/1.1/DTD/svg11.dtd">
<!-- Created with matplotlib (https://matplotlib.org/) -->
<svg height="345.6pt" version="1.1" viewBox="0 0 460.8 345.6" width="460.8pt" xmlns="http://www.w3.org/2000/svg" xmlns:xlink="http://www.w3.org/1999/xlink">
 <defs>
  <style type="text/css">
*{stroke-linecap:butt;stroke-linejoin:round;}
  </style>
 </defs>
 <g id="figure_1">
  <g id="patch_1">
   <path d="M 0 345.6 
L 460.8 345.6 
L 460.8 0 
L 0 0 
z
" style="fill:#ffffff;"/>
  </g>
  <g id="axes_1">
   <g id="patch_2">
    <path d="M 57.6 307.584 
L 414.72 307.584 
L 414.72 41.472 
L 57.6 41.472 
z
" style="fill:#ffffff;"/>
   </g>
   <g id="PolyCollection_1">
    <path clip-path="url(#pfcf3e2a7ff)" d="M 73.832727 53.568 
L 73.832727 60.639916 
L 74.918528 114.566636 
L 76.00433 161.242508 
L 77.090131 165.241423 
L 78.175932 148.909517 
L 79.261733 160.096135 
L 80.347534 131.542572 
L 81.433335 164.210439 
L 82.519137 179.307891 
L 83.604938 189.354024 
L 84.690739 161.113098 
L 85.77654 175.573582 
L 86.862341 190.572518 
L 87.948142 154.821212 
L 89.033943 161.258841 
L 90.119745 176.260791 
L 91.205546 190.715283 
L 92.291347 155.33866 
L 93.377148 178.552466 
L 94.462949 168.471248 
L 95.54875 182.650772 
L 96.634552 173.876274 
L 97.720353 182.362656 
L 98.806154 210.153063 
L 99.891955 222.817799 
L 100.977756 195.605856 
L 102.063557 213.871292 
L 103.149358 188.879875 
L 104.23516 206.705894 
L 105.320961 219.609332 
L 106.406762 243.51968 
L 107.492563 254.774523 
L 108.578364 226.00467 
L 109.664165 252.425049 
L 110.749967 242.935633 
L 111.835768 195.254599 
L 112.921569 162.214242 
L 114.00737 159.069305 
L 115.093171 163.368835 
L 116.178972 182.510977 
L 117.264773 207.471704 
L 118.350575 216.223796 
L 119.436376 221.307073 
L 120.522177 209.983728 
L 121.607978 185.473627 
L 122.693779 191.773535 
L 123.77958 166.191305 
L 124.865382 205.268569 
L 125.951183 155.731479 
L 127.036984 200.984632 
L 128.122785 176.358345 
L 129.208586 191.393576 
L 130.294387 204.497083 
L 131.380189 191.890056 
L 132.46599 189.86374 
L 133.551791 201.440688 
L 134.637592 229.927059 
L 135.723393 209.080292 
L 136.809194 209.617411 
L 137.894995 193.131925 
L 138.980797 199.542818 
L 140.066598 293.874749 
L 141.152399 241.245702 
L 142.2382 239.117919 
L 143.324001 232.340247 
L 144.409802 217.069923 
L 145.495604 191.9022 
L 146.581405 178.806136 
L 147.667206 155.873207 
L 148.753007 139.477087 
L 149.838808 164.108284 
L 150.924609 156.15564 
L 152.01041 160.100131 
L 153.096212 160.60257 
L 154.182013 188.495631 
L 155.267814 181.123578 
L 156.353615 211.973682 
L 157.439416 251.047225 
L 158.525217 212.006127 
L 159.611019 229.304715 
L 160.69682 207.051207 
L 161.782621 221.680618 
L 162.868422 217.408556 
L 163.954223 199.90907 
L 165.040024 205.105543 
L 166.125825 197.133303 
L 167.211627 222.472254 
L 168.297428 245.479226 
L 169.383229 264.972705 
L 170.46903 252.547593 
L 171.554831 219.337312 
L 172.640632 255.285234 
L 173.726434 238.378897 
L 174.812235 272.057006 
L 175.898036 264.929628 
L 176.983837 213.615017 
L 178.069638 240.878841 
L 179.155439 255.662525 
L 180.24124 239.655494 
L 181.327042 232.727582 
L 182.412843 250.940327 
L 183.498644 256.660842 
L 184.584445 228.857705 
L 185.670246 196.639775 
L 186.756047 198.389919 
L 187.841849 213.822385 
L 188.92765 208.798411 
L 190.013451 184.007932 
L 191.099252 170.576428 
L 192.185053 183.315166 
L 193.270854 182.793329 
L 194.356656 207.634959 
L 195.442457 180.159943 
L 196.528258 195.689907 
L 197.614059 198.561062 
L 198.69986 206.017387 
L 199.785661 209.287629 
L 200.871462 252.269304 
L 201.957264 222.03333 
L 203.043065 195.431427 
L 204.128866 220.217156 
L 205.214667 253.112661 
L 206.300468 243.696303 
L 207.386269 233.691613 
L 208.472071 218.671584 
L 209.557872 202.59243 
L 210.643673 197.083768 
L 211.729474 204.389498 
L 212.815275 194.157704 
L 213.901076 201.27708 
L 214.986877 185.544716 
L 216.072679 188.99427 
L 217.15848 228.934529 
L 218.244281 200.598764 
L 219.330082 235.730893 
L 220.415883 173.710464 
L 221.501684 228.370437 
L 222.587486 237.35432 
L 223.673287 218.781978 
L 224.759088 225.335601 
L 225.844889 224.873337 
L 226.93069 274.64506 
L 228.016491 225.024003 
L 229.102292 267.855246 
L 230.188094 246.528922 
L 231.273895 233.195927 
L 232.359696 218.620254 
L 233.445497 259.302721 
L 234.531298 295.488 
L 235.617099 268.754162 
L 236.702901 282.541455 
L 237.788702 232.627747 
L 238.874503 287.529259 
L 239.960304 248.478301 
L 241.046105 263.175759 
L 242.131906 273.351159 
L 243.217708 222.764872 
L 244.303509 272.013531 
L 245.38931 219.792143 
L 246.475111 176.41052 
L 247.560912 223.509909 
L 248.646713 260.065273 
L 249.732514 207.879378 
L 250.818316 227.372744 
L 251.904117 182.755134 
L 252.989918 197.052978 
L 254.075719 179.656291 
L 255.16152 162.403261 
L 256.247321 166.406569 
L 257.333123 226.94969 
L 258.418924 254.140299 
L 259.504725 291.361757 
L 260.590526 286.045172 
L 261.676327 289.981104 
L 262.762128 292.411802 
L 263.847929 240.148312 
L 264.933731 241.80136 
L 266.019532 244.221207 
L 267.105333 248.850063 
L 268.191134 238.039167 
L 269.276935 208.572785 
L 270.362736 226.964373 
L 271.448538 267.799801 
L 272.534339 238.198494 
L 273.62014 250.557884 
L 274.705941 220.481396 
L 275.791742 272.929213 
L 276.877543 281.725269 
L 277.963344 250.339287 
L 279.049146 265.176246 
L 280.134947 230.632368 
L 281.220748 210.984047 
L 282.306549 224.019451 
L 283.39235 222.632409 
L 284.478151 212.777265 
L 285.563953 199.436337 
L 286.649754 183.084365 
L 287.735555 202.343439 
L 288.821356 278.736839 
L 289.907157 231.316334 
L 290.992958 227.566274 
L 292.07876 215.939998 
L 293.164561 197.93432 
L 294.250362 220.5563 
L 295.336163 166.538551 
L 296.421964 206.681789 
L 297.507765 185.660339 
L 298.593566 219.177547 
L 299.679368 168.87696 
L 300.765169 161.49674 
L 301.85097 175.557131 
L 302.936771 163.944797 
L 304.022572 169.588871 
L 305.108373 182.418504 
L 306.194175 198.962162 
L 307.279976 186.201703 
L 308.365777 180.490259 
L 309.451578 173.610679 
L 310.537379 168.097117 
L 311.62318 165.311269 
L 312.708981 166.774395 
L 313.794783 199.136459 
L 314.880584 205.627893 
L 315.966385 197.327036 
L 317.052186 204.873169 
L 318.137987 173.626853 
L 319.223788 199.940524 
L 320.30959 196.872505 
L 321.395391 200.443422 
L 322.481192 207.45165 
L 323.566993 176.497389 
L 324.652794 219.197645 
L 325.738595 227.692621 
L 326.824396 219.454778 
L 327.910198 251.36443 
L 328.995999 231.426314 
L 330.0818 201.313141 
L 331.167601 164.452073 
L 332.253402 185.102814 
L 333.339203 220.089331 
L 334.425005 221.624385 
L 335.510806 248.567955 
L 336.596607 233.87495 
L 337.682408 253.304312 
L 338.768209 206.378049 
L 339.85401 206.436524 
L 340.939811 255.189579 
L 342.025613 212.261132 
L 343.111414 203.573808 
L 344.197215 214.558131 
L 345.283016 224.624397 
L 346.368817 224.617416 
L 347.454618 204.81691 
L 348.54042 211.987486 
L 349.626221 204.333297 
L 350.712022 222.86402 
L 351.797823 218.756223 
L 352.883624 232.98409 
L 353.969425 272.680592 
L 355.055227 226.554782 
L 356.141028 252.025192 
L 357.226829 244.740719 
L 358.31263 226.910713 
L 359.398431 243.953839 
L 360.484232 231.911305 
L 361.570033 245.197154 
L 362.655835 251.968121 
L 363.741636 231.259947 
L 364.827437 171.277264 
L 365.913238 160.586554 
L 366.999039 186.211601 
L 368.08484 194.851446 
L 369.170642 193.493814 
L 370.256443 180.947833 
L 371.342244 184.344444 
L 372.428045 155.015437 
L 373.513846 158.407838 
L 374.599647 143.413871 
L 375.685448 182.533118 
L 376.77125 170.751435 
L 377.857051 205.434923 
L 378.942852 194.536945 
L 380.028653 233.521682 
L 381.114454 254.406004 
L 382.200255 200.842712 
L 383.286057 232.837539 
L 384.371858 234.230384 
L 385.457659 243.685016 
L 386.54346 274.362607 
L 387.629261 244.322217 
L 388.715062 242.287297 
L 389.800863 204.708397 
L 390.886665 182.73743 
L 391.972466 164.135855 
L 393.058267 153.893488 
L 394.144068 177.08715 
L 395.229869 162.139222 
L 396.31567 188.920953 
L 397.401472 168.010158 
L 398.487273 177.609151 
L 398.487273 149.530301 
L 398.487273 149.530301 
L 397.401472 146.802646 
L 396.31567 169.557916 
L 395.229869 152.056708 
L 394.144068 162.705645 
L 393.058267 123.433331 
L 391.972466 138.905174 
L 390.886665 163.623986 
L 389.800863 168.475065 
L 388.715062 206.133307 
L 387.629261 208.307857 
L 386.54346 249.934878 
L 385.457659 223.295631 
L 384.371858 221.904391 
L 383.286057 218.445142 
L 382.200255 183.85181 
L 381.114454 215.399798 
L 380.028653 197.668477 
L 378.942852 169.430197 
L 377.857051 186.969359 
L 376.77125 160.655649 
L 375.685448 154.423974 
L 374.599647 128.693333 
L 373.513846 148.941285 
L 372.428045 140.785996 
L 371.342244 156.044625 
L 370.256443 147.972707 
L 369.170642 165.492656 
L 368.08484 168.990873 
L 366.999039 151.605002 
L 365.913238 140.014011 
L 364.827437 155.506177 
L 363.741636 193.94996 
L 362.655835 236.719514 
L 361.570033 216.939882 
L 360.484232 203.196289 
L 359.398431 219.171971 
L 358.31263 176.801782 
L 357.226829 199.35325 
L 356.141028 186.224606 
L 355.055227 191.770242 
L 353.969425 215.983838 
L 352.883624 164.784664 
L 351.797823 178.464865 
L 350.712022 158.028175 
L 349.626221 160.084746 
L 348.54042 161.682637 
L 347.454618 139.1061 
L 346.368817 154.096691 
L 345.283016 191.72922 
L 344.197215 165.3645 
L 343.111414 155.176483 
L 342.025613 153.011712 
L 340.939811 165.471426 
L 339.85401 161.389125 
L 338.768209 166.927971 
L 337.682408 182.619479 
L 336.596607 172.802156 
L 335.510806 168.473008 
L 334.425005 160.619858 
L 333.339203 174.179998 
L 332.253402 163.111459 
L 331.167601 139.377775 
L 330.0818 180.510745 
L 328.995999 174.182683 
L 327.910198 184.751198 
L 326.824396 176.239288 
L 325.738595 171.035842 
L 324.652794 172.394998 
L 323.566993 162.367761 
L 322.481192 188.333921 
L 321.395391 176.585625 
L 320.30959 166.080116 
L 319.223788 168.191938 
L 318.137987 145.449443 
L 317.052186 182.71135 
L 315.966385 178.725468 
L 314.880584 176.61748 
L 313.794783 163.996313 
L 312.708981 150.469585 
L 311.62318 134.709656 
L 310.537379 149.835538 
L 309.451578 146.780072 
L 308.365777 150.973887 
L 307.279976 176.352481 
L 306.194175 175.561137 
L 305.108373 175.098011 
L 304.022572 148.59037 
L 302.936771 146.97238 
L 301.85097 157.030243 
L 300.765169 143.597432 
L 299.679368 149.193574 
L 298.593566 165.406545 
L 297.507765 163.81372 
L 296.421964 189.32908 
L 295.336163 152.292679 
L 294.250362 202.150811 
L 293.164561 181.943707 
L 292.07876 196.245941 
L 290.992958 206.928317 
L 289.907157 213.116321 
L 288.821356 242.702909 
L 287.735555 174.372498 
L 286.649754 170.986994 
L 285.563953 176.697831 
L 284.478151 186.348953 
L 283.39235 211.277984 
L 282.306549 182.332927 
L 281.220748 172.877196 
L 280.134947 202.504668 
L 279.049146 225.101144 
L 277.963344 221.379072 
L 276.877543 237.511887 
L 275.791742 226.480271 
L 274.705941 202.955307 
L 273.62014 232.984276 
L 272.534339 207.298909 
L 271.448538 250.110468 
L 270.362736 223.300655 
L 269.276935 189.984106 
L 268.191134 226.223552 
L 267.105333 225.740844 
L 266.019532 228.307814 
L 264.933731 219.972411 
L 263.847929 222.493323 
L 262.762128 251.597735 
L 261.676327 271.276862 
L 260.590526 252.866293 
L 259.504725 234.529958 
L 258.418924 225.521054 
L 257.333123 191.193482 
L 256.247321 130.587268 
L 255.16152 143.427906 
L 254.075719 152.482029 
L 252.989918 158.909203 
L 251.904117 161.459876 
L 250.818316 201.688805 
L 249.732514 197.706678 
L 248.646713 221.426922 
L 247.560912 200.769333 
L 246.475111 169.880572 
L 245.38931 196.811617 
L 244.303509 228.772473 
L 243.217708 213.0475 
L 242.131906 246.199872 
L 241.046105 225.658972 
L 239.960304 203.199787 
L 238.874503 228.933059 
L 237.788702 224.146771 
L 236.702901 242.663501 
L 235.617099 233.204493 
L 234.531298 266.001461 
L 233.445497 239.603574 
L 232.359696 208.073842 
L 231.273895 198.684594 
L 230.188094 218.846307 
L 229.102292 219.122923 
L 228.016491 209.941015 
L 226.93069 229.228572 
L 225.844889 183.615487 
L 224.759088 206.162293 
L 223.673287 187.370929 
L 222.587486 198.347897 
L 221.501684 188.162264 
L 220.415883 141.8672 
L 219.330082 201.131898 
L 218.244281 176.065782 
L 217.15848 190.278234 
L 216.072679 161.238434 
L 214.986877 177.829202 
L 213.901076 189.167163 
L 212.815275 168.189544 
L 211.729474 181.650372 
L 210.643673 172.143161 
L 209.557872 184.315176 
L 208.472071 174.590335 
L 207.386269 197.639946 
L 206.300468 203.448399 
L 205.214667 174.55994 
L 204.128866 174.463654 
L 203.043065 151.602585 
L 201.957264 155.484274 
L 200.871462 196.655617 
L 199.785661 169.227759 
L 198.69986 160.530211 
L 197.614059 136.27835 
L 196.528258 151.295194 
L 195.442457 124.419316 
L 194.356656 138.823767 
L 193.270854 130.131212 
L 192.185053 143.283491 
L 191.099252 137.901172 
L 190.013451 135.854333 
L 188.92765 162.477372 
L 187.841849 185.559924 
L 186.756047 160.88318 
L 185.670246 148.120062 
L 184.584445 174.114968 
L 183.498644 180.756388 
L 182.412843 206.113208 
L 181.327042 210.759444 
L 180.24124 198.035213 
L 179.155439 220.558788 
L 178.069638 208.434286 
L 176.983837 193.041867 
L 175.898036 196.124881 
L 174.812235 211.355265 
L 173.726434 187.567689 
L 172.640632 212.136976 
L 171.554831 166.440283 
L 170.46903 223.506053 
L 169.383229 207.52996 
L 168.297428 192.583118 
L 167.211627 154.912663 
L 166.125825 154.483765 
L 165.040024 160.407511 
L 163.954223 179.300105 
L 162.868422 181.019108 
L 161.782621 201.269535 
L 160.69682 164.149719 
L 159.611019 177.996536 
L 158.525217 180.731149 
L 157.439416 223.478694 
L 156.353615 191.545965 
L 155.267814 161.306597 
L 154.182013 176.763074 
L 153.096212 142.233872 
L 152.01041 140.602212 
L 150.924609 143.962661 
L 149.838808 139.706029 
L 148.753007 107.681691 
L 147.667206 113.728667 
L 146.581405 136.365557 
L 145.495604 132.583395 
L 144.409802 147.927734 
L 143.324001 182.573181 
L 142.2382 192.619008 
L 141.152399 179.653941 
L 140.066598 217.479315 
L 138.980797 134.745666 
L 137.894995 155.427012 
L 136.809194 177.557014 
L 135.723393 167.813901 
L 134.637592 185.356134 
L 133.551791 174.354729 
L 132.46599 180.315718 
L 131.380189 171.44949 
L 130.294387 191.704737 
L 129.208586 180.218215 
L 128.122785 157.944851 
L 127.036984 165.738565 
L 125.951183 124.723867 
L 124.865382 167.283287 
L 123.77958 135.31138 
L 122.693779 172.431812 
L 121.607978 164.618369 
L 120.522177 179.450493 
L 119.436376 188.695677 
L 118.350575 198.533732 
L 117.264773 172.185969 
L 116.178972 163.253651 
L 115.093171 131.81569 
L 114.00737 135.169704 
L 112.921569 142.258887 
L 111.835768 162.16132 
L 110.749967 225.943774 
L 109.664165 220.182716 
L 108.578364 193.530953 
L 107.492563 209.056389 
L 106.406762 213.326584 
L 105.320961 192.460809 
L 104.23516 189.511934 
L 103.149358 169.617163 
L 102.063557 193.499293 
L 100.977756 163.189342 
L 99.891955 202.787871 
L 98.806154 183.66389 
L 97.720353 158.839491 
L 96.634552 148.618947 
L 95.54875 162.666885 
L 94.462949 150.063613 
L 93.377148 145.92827 
L 92.291347 137.940714 
L 91.205546 145.607766 
L 90.119745 146.088174 
L 89.033943 135.345138 
L 87.948142 127.3853 
L 86.862341 149.115564 
L 85.77654 153.724597 
L 84.690739 144.4143 
L 83.604938 173.596069 
L 82.519137 141.044694 
L 81.433335 127.061614 
L 80.347534 113.982634 
L 79.261733 137.841845 
L 78.175932 132.930824 
L 77.090131 143.300238 
L 76.00433 138.712608 
L 74.918528 100.97728 
L 73.832727 53.568 
z
" style="fill:#0000ff;fill-opacity:0.25;"/>
   </g>
   <g id="matplotlib.axis_1">
    <g id="xtick_1">
     <g id="line2d_1">
      <defs>
       <path d="M 0 0 
L 0 3.5 
" id="me82316d1ef" style="stroke:#000000;stroke-width:0.8;"/>
      </defs>
      <g>
       <use style="stroke:#000000;stroke-width:0.8;" x="73.832727" xlink:href="#me82316d1ef" y="307.584"/>
      </g>
     </g>
     <g id="text_1">
      <!-- 0 -->
      <defs>
       <path d="M 31.78125 66.40625 
Q 24.171875 66.40625 20.328125 58.90625 
Q 16.5 51.421875 16.5 36.375 
Q 16.5 21.390625 20.328125 13.890625 
Q 24.171875 6.390625 31.78125 6.390625 
Q 39.453125 6.390625 43.28125 13.890625 
Q 47.125 21.390625 47.125 36.375 
Q 47.125 51.421875 43.28125 58.90625 
Q 39.453125 66.40625 31.78125 66.40625 
z
M 31.78125 74.21875 
Q 44.046875 74.21875 50.515625 64.515625 
Q 56.984375 54.828125 56.984375 36.375 
Q 56.984375 17.96875 50.515625 8.265625 
Q 44.046875 -1.421875 31.78125 -1.421875 
Q 19.53125 -1.421875 13.0625 8.265625 
Q 6.59375 17.96875 6.59375 36.375 
Q 6.59375 54.828125 13.0625 64.515625 
Q 19.53125 74.21875 31.78125 74.21875 
z
" id="DejaVuSans-48"/>
      </defs>
      <g transform="translate(70.651477 322.182437)scale(0.1 -0.1)">
       <use xlink:href="#DejaVuSans-48"/>
      </g>
     </g>
    </g>
    <g id="xtick_2">
     <g id="line2d_2">
      <g>
       <use style="stroke:#000000;stroke-width:0.8;" x="128.122785" xlink:href="#me82316d1ef" y="307.584"/>
      </g>
     </g>
     <g id="text_2">
      <!-- 50 -->
      <defs>
       <path d="M 10.796875 72.90625 
L 49.515625 72.90625 
L 49.515625 64.59375 
L 19.828125 64.59375 
L 19.828125 46.734375 
Q 21.96875 47.46875 24.109375 47.828125 
Q 26.265625 48.1875 28.421875 48.1875 
Q 40.625 48.1875 47.75 41.5 
Q 54.890625 34.8125 54.890625 23.390625 
Q 54.890625 11.625 47.5625 5.09375 
Q 40.234375 -1.421875 26.90625 -1.421875 
Q 22.3125 -1.421875 17.546875 -0.640625 
Q 12.796875 0.140625 7.71875 1.703125 
L 7.71875 11.625 
Q 12.109375 9.234375 16.796875 8.0625 
Q 21.484375 6.890625 26.703125 6.890625 
Q 35.15625 6.890625 40.078125 11.328125 
Q 45.015625 15.765625 45.015625 23.390625 
Q 45.015625 31 40.078125 35.4375 
Q 35.15625 39.890625 26.703125 39.890625 
Q 22.75 39.890625 18.8125 39.015625 
Q 14.890625 38.140625 10.796875 36.28125 
z
" id="DejaVuSans-53"/>
      </defs>
      <g transform="translate(121.760285 322.182437)scale(0.1 -0.1)">
       <use xlink:href="#DejaVuSans-53"/>
       <use x="63.623047" xlink:href="#DejaVuSans-48"/>
      </g>
     </g>
    </g>
    <g id="xtick_3">
     <g id="line2d_3">
      <g>
       <use style="stroke:#000000;stroke-width:0.8;" x="182.412843" xlink:href="#me82316d1ef" y="307.584"/>
      </g>
     </g>
     <g id="text_3">
      <!-- 100 -->
      <defs>
       <path d="M 12.40625 8.296875 
L 28.515625 8.296875 
L 28.515625 63.921875 
L 10.984375 60.40625 
L 10.984375 69.390625 
L 28.421875 72.90625 
L 38.28125 72.90625 
L 38.28125 8.296875 
L 54.390625 8.296875 
L 54.390625 0 
L 12.40625 0 
z
" id="DejaVuSans-49"/>
      </defs>
      <g transform="translate(172.869093 322.182437)scale(0.1 -0.1)">
       <use xlink:href="#DejaVuSans-49"/>
       <use x="63.623047" xlink:href="#DejaVuSans-48"/>
       <use x="127.246094" xlink:href="#DejaVuSans-48"/>
      </g>
     </g>
    </g>
    <g id="xtick_4">
     <g id="line2d_4">
      <g>
       <use style="stroke:#000000;stroke-width:0.8;" x="236.702901" xlink:href="#me82316d1ef" y="307.584"/>
      </g>
     </g>
     <g id="text_4">
      <!-- 150 -->
      <g transform="translate(227.159151 322.182437)scale(0.1 -0.1)">
       <use xlink:href="#DejaVuSans-49"/>
       <use x="63.623047" xlink:href="#DejaVuSans-53"/>
       <use x="127.246094" xlink:href="#DejaVuSans-48"/>
      </g>
     </g>
    </g>
    <g id="xtick_5">
     <g id="line2d_5">
      <g>
       <use style="stroke:#000000;stroke-width:0.8;" x="290.992958" xlink:href="#me82316d1ef" y="307.584"/>
      </g>
     </g>
     <g id="text_5">
      <!-- 200 -->
      <defs>
       <path d="M 19.1875 8.296875 
L 53.609375 8.296875 
L 53.609375 0 
L 7.328125 0 
L 7.328125 8.296875 
Q 12.9375 14.109375 22.625 23.890625 
Q 32.328125 33.6875 34.8125 36.53125 
Q 39.546875 41.84375 41.421875 45.53125 
Q 43.3125 49.21875 43.3125 52.78125 
Q 43.3125 58.59375 39.234375 62.25 
Q 35.15625 65.921875 28.609375 65.921875 
Q 23.96875 65.921875 18.8125 64.3125 
Q 13.671875 62.703125 7.8125 59.421875 
L 7.8125 69.390625 
Q 13.765625 71.78125 18.9375 73 
Q 24.125 74.21875 28.421875 74.21875 
Q 39.75 74.21875 46.484375 68.546875 
Q 53.21875 62.890625 53.21875 53.421875 
Q 53.21875 48.921875 51.53125 44.890625 
Q 49.859375 40.875 45.40625 35.40625 
Q 44.1875 33.984375 37.640625 27.21875 
Q 31.109375 20.453125 19.1875 8.296875 
z
" id="DejaVuSans-50"/>
      </defs>
      <g transform="translate(281.449208 322.182437)scale(0.1 -0.1)">
       <use xlink:href="#DejaVuSans-50"/>
       <use x="63.623047" xlink:href="#DejaVuSans-48"/>
       <use x="127.246094" xlink:href="#DejaVuSans-48"/>
      </g>
     </g>
    </g>
    <g id="xtick_6">
     <g id="line2d_6">
      <g>
       <use style="stroke:#000000;stroke-width:0.8;" x="345.283016" xlink:href="#me82316d1ef" y="307.584"/>
      </g>
     </g>
     <g id="text_6">
      <!-- 250 -->
      <g transform="translate(335.739266 322.182437)scale(0.1 -0.1)">
       <use xlink:href="#DejaVuSans-50"/>
       <use x="63.623047" xlink:href="#DejaVuSans-53"/>
       <use x="127.246094" xlink:href="#DejaVuSans-48"/>
      </g>
     </g>
    </g>
    <g id="xtick_7">
     <g id="line2d_7">
      <g>
       <use style="stroke:#000000;stroke-width:0.8;" x="399.573074" xlink:href="#me82316d1ef" y="307.584"/>
      </g>
     </g>
     <g id="text_7">
      <!-- 300 -->
      <defs>
       <path d="M 40.578125 39.3125 
Q 47.65625 37.796875 51.625 33 
Q 55.609375 28.21875 55.609375 21.1875 
Q 55.609375 10.40625 48.1875 4.484375 
Q 40.765625 -1.421875 27.09375 -1.421875 
Q 22.515625 -1.421875 17.65625 -0.515625 
Q 12.796875 0.390625 7.625 2.203125 
L 7.625 11.71875 
Q 11.71875 9.328125 16.59375 8.109375 
Q 21.484375 6.890625 26.8125 6.890625 
Q 36.078125 6.890625 40.9375 10.546875 
Q 45.796875 14.203125 45.796875 21.1875 
Q 45.796875 27.640625 41.28125 31.265625 
Q 36.765625 34.90625 28.71875 34.90625 
L 20.21875 34.90625 
L 20.21875 43.015625 
L 29.109375 43.015625 
Q 36.375 43.015625 40.234375 45.921875 
Q 44.09375 48.828125 44.09375 54.296875 
Q 44.09375 59.90625 40.109375 62.90625 
Q 36.140625 65.921875 28.71875 65.921875 
Q 24.65625 65.921875 20.015625 65.03125 
Q 15.375 64.15625 9.8125 62.3125 
L 9.8125 71.09375 
Q 15.4375 72.65625 20.34375 73.4375 
Q 25.25 74.21875 29.59375 74.21875 
Q 40.828125 74.21875 47.359375 69.109375 
Q 53.90625 64.015625 53.90625 55.328125 
Q 53.90625 49.265625 50.4375 45.09375 
Q 46.96875 40.921875 40.578125 39.3125 
z
" id="DejaVuSans-51"/>
      </defs>
      <g transform="translate(390.029324 322.182437)scale(0.1 -0.1)">
       <use xlink:href="#DejaVuSans-51"/>
       <use x="63.623047" xlink:href="#DejaVuSans-48"/>
       <use x="127.246094" xlink:href="#DejaVuSans-48"/>
      </g>
     </g>
    </g>
   </g>
   <g id="matplotlib.axis_2">
    <g id="ytick_1">
     <g id="line2d_8">
      <defs>
       <path d="M 0 0 
L -3.5 0 
" id="m12448ea634" style="stroke:#000000;stroke-width:0.8;"/>
      </defs>
      <g>
       <use style="stroke:#000000;stroke-width:0.8;" x="57.6" xlink:href="#m12448ea634" y="273.87297"/>
      </g>
     </g>
     <g id="text_8">
      <!-- 0.8 -->
      <defs>
       <path d="M 10.6875 12.40625 
L 21 12.40625 
L 21 0 
L 10.6875 0 
z
" id="DejaVuSans-46"/>
       <path d="M 31.78125 34.625 
Q 24.75 34.625 20.71875 30.859375 
Q 16.703125 27.09375 16.703125 20.515625 
Q 16.703125 13.921875 20.71875 10.15625 
Q 24.75 6.390625 31.78125 6.390625 
Q 38.8125 6.390625 42.859375 10.171875 
Q 46.921875 13.96875 46.921875 20.515625 
Q 46.921875 27.09375 42.890625 30.859375 
Q 38.875 34.625 31.78125 34.625 
z
M 21.921875 38.8125 
Q 15.578125 40.375 12.03125 44.71875 
Q 8.5 49.078125 8.5 55.328125 
Q 8.5 64.0625 14.71875 69.140625 
Q 20.953125 74.21875 31.78125 74.21875 
Q 42.671875 74.21875 48.875 69.140625 
Q 55.078125 64.0625 55.078125 55.328125 
Q 55.078125 49.078125 51.53125 44.71875 
Q 48 40.375 41.703125 38.8125 
Q 48.828125 37.15625 52.796875 32.3125 
Q 56.78125 27.484375 56.78125 20.515625 
Q 56.78125 9.90625 50.3125 4.234375 
Q 43.84375 -1.421875 31.78125 -1.421875 
Q 19.734375 -1.421875 13.25 4.234375 
Q 6.78125 9.90625 6.78125 20.515625 
Q 6.78125 27.484375 10.78125 32.3125 
Q 14.796875 37.15625 21.921875 38.8125 
z
M 18.3125 54.390625 
Q 18.3125 48.734375 21.84375 45.5625 
Q 25.390625 42.390625 31.78125 42.390625 
Q 38.140625 42.390625 41.71875 45.5625 
Q 45.3125 48.734375 45.3125 54.390625 
Q 45.3125 60.0625 41.71875 63.234375 
Q 38.140625 66.40625 31.78125 66.40625 
Q 25.390625 66.40625 21.84375 63.234375 
Q 18.3125 60.0625 18.3125 54.390625 
z
" id="DejaVuSans-56"/>
      </defs>
      <g transform="translate(34.696875 277.672189)scale(0.1 -0.1)">
       <use xlink:href="#DejaVuSans-48"/>
       <use x="63.623047" xlink:href="#DejaVuSans-46"/>
       <use x="95.410156" xlink:href="#DejaVuSans-56"/>
      </g>
     </g>
    </g>
    <g id="ytick_2">
     <g id="line2d_9">
      <g>
       <use style="stroke:#000000;stroke-width:0.8;" x="57.6" xlink:href="#m12448ea634" y="229.135466"/>
      </g>
     </g>
     <g id="text_9">
      <!-- 1.0 -->
      <g transform="translate(34.696875 232.934685)scale(0.1 -0.1)">
       <use xlink:href="#DejaVuSans-49"/>
       <use x="63.623047" xlink:href="#DejaVuSans-46"/>
       <use x="95.410156" xlink:href="#DejaVuSans-48"/>
      </g>
     </g>
    </g>
    <g id="ytick_3">
     <g id="line2d_10">
      <g>
       <use style="stroke:#000000;stroke-width:0.8;" x="57.6" xlink:href="#m12448ea634" y="184.397963"/>
      </g>
     </g>
     <g id="text_10">
      <!-- 1.2 -->
      <g transform="translate(34.696875 188.197181)scale(0.1 -0.1)">
       <use xlink:href="#DejaVuSans-49"/>
       <use x="63.623047" xlink:href="#DejaVuSans-46"/>
       <use x="95.410156" xlink:href="#DejaVuSans-50"/>
      </g>
     </g>
    </g>
    <g id="ytick_4">
     <g id="line2d_11">
      <g>
       <use style="stroke:#000000;stroke-width:0.8;" x="57.6" xlink:href="#m12448ea634" y="139.660459"/>
      </g>
     </g>
     <g id="text_11">
      <!-- 1.4 -->
      <defs>
       <path d="M 37.796875 64.3125 
L 12.890625 25.390625 
L 37.796875 25.390625 
z
M 35.203125 72.90625 
L 47.609375 72.90625 
L 47.609375 25.390625 
L 58.015625 25.390625 
L 58.015625 17.1875 
L 47.609375 17.1875 
L 47.609375 0 
L 37.796875 0 
L 37.796875 17.1875 
L 4.890625 17.1875 
L 4.890625 26.703125 
z
" id="DejaVuSans-52"/>
      </defs>
      <g transform="translate(34.696875 143.459678)scale(0.1 -0.1)">
       <use xlink:href="#DejaVuSans-49"/>
       <use x="63.623047" xlink:href="#DejaVuSans-46"/>
       <use x="95.410156" xlink:href="#DejaVuSans-52"/>
      </g>
     </g>
    </g>
    <g id="ytick_5">
     <g id="line2d_12">
      <g>
       <use style="stroke:#000000;stroke-width:0.8;" x="57.6" xlink:href="#m12448ea634" y="94.922956"/>
      </g>
     </g>
     <g id="text_12">
      <!-- 1.6 -->
      <defs>
       <path d="M 33.015625 40.375 
Q 26.375 40.375 22.484375 35.828125 
Q 18.609375 31.296875 18.609375 23.390625 
Q 18.609375 15.53125 22.484375 10.953125 
Q 26.375 6.390625 33.015625 6.390625 
Q 39.65625 6.390625 43.53125 10.953125 
Q 47.40625 15.53125 47.40625 23.390625 
Q 47.40625 31.296875 43.53125 35.828125 
Q 39.65625 40.375 33.015625 40.375 
z
M 52.59375 71.296875 
L 52.59375 62.3125 
Q 48.875 64.0625 45.09375 64.984375 
Q 41.3125 65.921875 37.59375 65.921875 
Q 27.828125 65.921875 22.671875 59.328125 
Q 17.53125 52.734375 16.796875 39.40625 
Q 19.671875 43.65625 24.015625 45.921875 
Q 28.375 48.1875 33.59375 48.1875 
Q 44.578125 48.1875 50.953125 41.515625 
Q 57.328125 34.859375 57.328125 23.390625 
Q 57.328125 12.15625 50.6875 5.359375 
Q 44.046875 -1.421875 33.015625 -1.421875 
Q 20.359375 -1.421875 13.671875 8.265625 
Q 6.984375 17.96875 6.984375 36.375 
Q 6.984375 53.65625 15.1875 63.9375 
Q 23.390625 74.21875 37.203125 74.21875 
Q 40.921875 74.21875 44.703125 73.484375 
Q 48.484375 72.75 52.59375 71.296875 
z
" id="DejaVuSans-54"/>
      </defs>
      <g transform="translate(34.696875 98.722174)scale(0.1 -0.1)">
       <use xlink:href="#DejaVuSans-49"/>
       <use x="63.623047" xlink:href="#DejaVuSans-46"/>
       <use x="95.410156" xlink:href="#DejaVuSans-54"/>
      </g>
     </g>
    </g>
    <g id="ytick_6">
     <g id="line2d_13">
      <g>
       <use style="stroke:#000000;stroke-width:0.8;" x="57.6" xlink:href="#m12448ea634" y="50.185452"/>
      </g>
     </g>
     <g id="text_13">
      <!-- 1.8 -->
      <g transform="translate(34.696875 53.984671)scale(0.1 -0.1)">
       <use xlink:href="#DejaVuSans-49"/>
       <use x="63.623047" xlink:href="#DejaVuSans-46"/>
       <use x="95.410156" xlink:href="#DejaVuSans-56"/>
      </g>
     </g>
    </g>
    <g id="text_14">
     <!-- Distance -->
     <defs>
      <path d="M 19.671875 64.796875 
L 19.671875 8.109375 
L 31.59375 8.109375 
Q 46.6875 8.109375 53.6875 14.9375 
Q 60.6875 21.78125 60.6875 36.53125 
Q 60.6875 51.171875 53.6875 57.984375 
Q 46.6875 64.796875 31.59375 64.796875 
z
M 9.8125 72.90625 
L 30.078125 72.90625 
Q 51.265625 72.90625 61.171875 64.09375 
Q 71.09375 55.28125 71.09375 36.53125 
Q 71.09375 17.671875 61.125 8.828125 
Q 51.171875 0 30.078125 0 
L 9.8125 0 
z
" id="DejaVuSans-68"/>
      <path d="M 9.421875 54.6875 
L 18.40625 54.6875 
L 18.40625 0 
L 9.421875 0 
z
M 9.421875 75.984375 
L 18.40625 75.984375 
L 18.40625 64.59375 
L 9.421875 64.59375 
z
" id="DejaVuSans-105"/>
      <path d="M 44.28125 53.078125 
L 44.28125 44.578125 
Q 40.484375 46.53125 36.375 47.5 
Q 32.28125 48.484375 27.875 48.484375 
Q 21.1875 48.484375 17.84375 46.4375 
Q 14.5 44.390625 14.5 40.28125 
Q 14.5 37.15625 16.890625 35.375 
Q 19.28125 33.59375 26.515625 31.984375 
L 29.59375 31.296875 
Q 39.15625 29.25 43.1875 25.515625 
Q 47.21875 21.78125 47.21875 15.09375 
Q 47.21875 7.46875 41.1875 3.015625 
Q 35.15625 -1.421875 24.609375 -1.421875 
Q 20.21875 -1.421875 15.453125 -0.5625 
Q 10.6875 0.296875 5.421875 2 
L 5.421875 11.28125 
Q 10.40625 8.6875 15.234375 7.390625 
Q 20.0625 6.109375 24.8125 6.109375 
Q 31.15625 6.109375 34.5625 8.28125 
Q 37.984375 10.453125 37.984375 14.40625 
Q 37.984375 18.0625 35.515625 20.015625 
Q 33.0625 21.96875 24.703125 23.78125 
L 21.578125 24.515625 
Q 13.234375 26.265625 9.515625 29.90625 
Q 5.8125 33.546875 5.8125 39.890625 
Q 5.8125 47.609375 11.28125 51.796875 
Q 16.75 56 26.8125 56 
Q 31.78125 56 36.171875 55.265625 
Q 40.578125 54.546875 44.28125 53.078125 
z
" id="DejaVuSans-115"/>
      <path d="M 18.3125 70.21875 
L 18.3125 54.6875 
L 36.8125 54.6875 
L 36.8125 47.703125 
L 18.3125 47.703125 
L 18.3125 18.015625 
Q 18.3125 11.328125 20.140625 9.421875 
Q 21.96875 7.515625 27.59375 7.515625 
L 36.8125 7.515625 
L 36.8125 0 
L 27.59375 0 
Q 17.1875 0 13.234375 3.875 
Q 9.28125 7.765625 9.28125 18.015625 
L 9.28125 47.703125 
L 2.6875 47.703125 
L 2.6875 54.6875 
L 9.28125 54.6875 
L 9.28125 70.21875 
z
" id="DejaVuSans-116"/>
      <path d="M 34.28125 27.484375 
Q 23.390625 27.484375 19.1875 25 
Q 14.984375 22.515625 14.984375 16.5 
Q 14.984375 11.71875 18.140625 8.90625 
Q 21.296875 6.109375 26.703125 6.109375 
Q 34.1875 6.109375 38.703125 11.40625 
Q 43.21875 16.703125 43.21875 25.484375 
L 43.21875 27.484375 
z
M 52.203125 31.203125 
L 52.203125 0 
L 43.21875 0 
L 43.21875 8.296875 
Q 40.140625 3.328125 35.546875 0.953125 
Q 30.953125 -1.421875 24.3125 -1.421875 
Q 15.921875 -1.421875 10.953125 3.296875 
Q 6 8.015625 6 15.921875 
Q 6 25.140625 12.171875 29.828125 
Q 18.359375 34.515625 30.609375 34.515625 
L 43.21875 34.515625 
L 43.21875 35.40625 
Q 43.21875 41.609375 39.140625 45 
Q 35.0625 48.390625 27.6875 48.390625 
Q 23 48.390625 18.546875 47.265625 
Q 14.109375 46.140625 10.015625 43.890625 
L 10.015625 52.203125 
Q 14.9375 54.109375 19.578125 55.046875 
Q 24.21875 56 28.609375 56 
Q 40.484375 56 46.34375 49.84375 
Q 52.203125 43.703125 52.203125 31.203125 
z
" id="DejaVuSans-97"/>
      <path d="M 54.890625 33.015625 
L 54.890625 0 
L 45.90625 0 
L 45.90625 32.71875 
Q 45.90625 40.484375 42.875 44.328125 
Q 39.84375 48.1875 33.796875 48.1875 
Q 26.515625 48.1875 22.3125 43.546875 
Q 18.109375 38.921875 18.109375 30.90625 
L 18.109375 0 
L 9.078125 0 
L 9.078125 54.6875 
L 18.109375 54.6875 
L 18.109375 46.1875 
Q 21.34375 51.125 25.703125 53.5625 
Q 30.078125 56 35.796875 56 
Q 45.21875 56 50.046875 50.171875 
Q 54.890625 44.34375 54.890625 33.015625 
z
" id="DejaVuSans-110"/>
      <path d="M 48.78125 52.59375 
L 48.78125 44.1875 
Q 44.96875 46.296875 41.140625 47.34375 
Q 37.3125 48.390625 33.40625 48.390625 
Q 24.65625 48.390625 19.8125 42.84375 
Q 14.984375 37.3125 14.984375 27.296875 
Q 14.984375 17.28125 19.8125 11.734375 
Q 24.65625 6.203125 33.40625 6.203125 
Q 37.3125 6.203125 41.140625 7.25 
Q 44.96875 8.296875 48.78125 10.40625 
L 48.78125 2.09375 
Q 45.015625 0.34375 40.984375 -0.53125 
Q 36.96875 -1.421875 32.421875 -1.421875 
Q 20.0625 -1.421875 12.78125 6.34375 
Q 5.515625 14.109375 5.515625 27.296875 
Q 5.515625 40.671875 12.859375 48.328125 
Q 20.21875 56 33.015625 56 
Q 37.15625 56 41.109375 55.140625 
Q 45.0625 54.296875 48.78125 52.59375 
z
" id="DejaVuSans-99"/>
      <path d="M 56.203125 29.59375 
L 56.203125 25.203125 
L 14.890625 25.203125 
Q 15.484375 15.921875 20.484375 11.0625 
Q 25.484375 6.203125 34.421875 6.203125 
Q 39.59375 6.203125 44.453125 7.46875 
Q 49.3125 8.734375 54.109375 11.28125 
L 54.109375 2.78125 
Q 49.265625 0.734375 44.1875 -0.34375 
Q 39.109375 -1.421875 33.890625 -1.421875 
Q 20.796875 -1.421875 13.15625 6.1875 
Q 5.515625 13.8125 5.515625 26.8125 
Q 5.515625 40.234375 12.765625 48.109375 
Q 20.015625 56 32.328125 56 
Q 43.359375 56 49.78125 48.890625 
Q 56.203125 41.796875 56.203125 29.59375 
z
M 47.21875 32.234375 
Q 47.125 39.59375 43.09375 43.984375 
Q 39.0625 48.390625 32.421875 48.390625 
Q 24.90625 48.390625 20.390625 44.140625 
Q 15.875 39.890625 15.1875 32.171875 
z
" id="DejaVuSans-101"/>
     </defs>
     <g transform="translate(28.617187 196.3905)rotate(-90)scale(0.1 -0.1)">
      <use xlink:href="#DejaVuSans-68"/>
      <use x="77.001953" xlink:href="#DejaVuSans-105"/>
      <use x="104.785156" xlink:href="#DejaVuSans-115"/>
      <use x="156.884766" xlink:href="#DejaVuSans-116"/>
      <use x="196.09375" xlink:href="#DejaVuSans-97"/>
      <use x="257.373047" xlink:href="#DejaVuSans-110"/>
      <use x="320.751953" xlink:href="#DejaVuSans-99"/>
      <use x="375.732422" xlink:href="#DejaVuSans-101"/>
     </g>
    </g>
   </g>
   <g id="line2d_14">
    <path clip-path="url(#pfcf3e2a7ff)" d="M 73.832727 57.103958 
L 74.918528 107.771958 
L 76.00433 149.977558 
L 77.090131 154.27083 
L 78.175932 140.92017 
L 79.261733 148.96899 
L 80.347534 122.762603 
L 81.433335 145.636027 
L 82.519137 160.176292 
L 83.604938 181.475047 
L 84.690739 152.763699 
L 85.77654 164.649089 
L 86.862341 169.844041 
L 87.948142 141.103256 
L 89.033943 148.30199 
L 90.119745 161.174483 
L 91.205546 168.161525 
L 92.291347 146.639687 
L 93.377148 162.240368 
L 94.462949 159.267431 
L 95.54875 172.658828 
L 96.634552 161.24761 
L 97.720353 170.601074 
L 98.806154 196.908476 
L 99.891955 212.802835 
L 100.977756 179.397599 
L 102.063557 203.685292 
L 103.149358 179.248519 
L 104.23516 198.108914 
L 105.320961 206.035071 
L 106.406762 228.423132 
L 107.492563 231.915456 
L 108.578364 209.767812 
L 109.664165 236.303883 
L 110.749967 234.439703 
L 111.835768 178.707959 
L 112.921569 152.236564 
L 114.00737 147.119505 
L 115.093171 147.592262 
L 116.178972 172.882314 
L 118.350575 207.378764 
L 119.436376 205.001375 
L 120.522177 194.71711 
L 121.607978 175.045998 
L 122.693779 182.102673 
L 123.77958 150.751343 
L 124.865382 186.275928 
L 125.951183 140.227673 
L 127.036984 183.361599 
L 128.122785 167.151598 
L 129.208586 185.805896 
L 130.294387 198.10091 
L 131.380189 181.669773 
L 132.46599 185.089729 
L 133.551791 187.897708 
L 134.637592 207.641597 
L 135.723393 188.447096 
L 136.809194 193.587212 
L 137.894995 174.279469 
L 138.980797 167.144242 
L 140.066598 255.677032 
L 141.152399 210.449821 
L 142.2382 215.868463 
L 143.324001 207.456714 
L 144.409802 182.498828 
L 145.495604 162.242798 
L 146.581405 157.585847 
L 147.667206 134.800937 
L 148.753007 123.579389 
L 149.838808 151.907157 
L 150.924609 150.05915 
L 152.01041 150.351171 
L 153.096212 151.418221 
L 154.182013 182.629352 
L 155.267814 171.215087 
L 156.353615 201.759823 
L 157.439416 237.26296 
L 158.525217 196.368638 
L 159.611019 203.650626 
L 160.69682 185.600463 
L 161.782621 211.475077 
L 162.868422 199.213832 
L 163.954223 189.604588 
L 166.125825 175.808534 
L 167.211627 188.692458 
L 168.297428 219.031172 
L 169.383229 236.251333 
L 170.46903 238.026823 
L 171.554831 192.888798 
L 172.640632 233.711105 
L 173.726434 212.973293 
L 174.812235 241.706135 
L 175.898036 230.527254 
L 176.983837 203.328442 
L 178.069638 224.656564 
L 179.155439 238.110656 
L 180.24124 218.845354 
L 181.327042 221.743513 
L 182.412843 228.526767 
L 183.498644 218.708615 
L 184.584445 201.486336 
L 185.670246 172.379918 
L 186.756047 179.636549 
L 187.841849 199.691155 
L 188.92765 185.637891 
L 190.013451 159.931132 
L 191.099252 154.2388 
L 192.185053 163.299328 
L 193.270854 156.46227 
L 194.356656 173.229363 
L 195.442457 152.28963 
L 196.528258 173.49255 
L 197.614059 167.419706 
L 198.69986 183.273799 
L 199.785661 189.257694 
L 200.871462 224.46246 
L 201.957264 188.758802 
L 203.043065 173.517006 
L 204.128866 197.340405 
L 205.214667 213.8363 
L 206.300468 223.572351 
L 207.386269 215.665779 
L 208.472071 196.630959 
L 209.557872 193.453803 
L 210.643673 184.613465 
L 211.729474 193.019935 
L 212.815275 181.173624 
L 213.901076 195.222121 
L 214.986877 181.686959 
L 216.072679 175.116352 
L 217.15848 209.606382 
L 218.244281 188.332273 
L 219.330082 218.431396 
L 220.415883 157.788832 
L 221.501684 208.266351 
L 222.587486 217.851109 
L 223.673287 203.076454 
L 224.759088 215.748947 
L 225.844889 204.244412 
L 226.93069 251.936816 
L 228.016491 217.482509 
L 229.102292 243.489084 
L 230.188094 232.687615 
L 231.273895 215.940261 
L 232.359696 213.347048 
L 233.445497 249.453148 
L 234.531298 280.744731 
L 235.617099 250.979328 
L 236.702901 262.602478 
L 237.788702 228.387259 
L 238.874503 258.231159 
L 239.960304 225.839044 
L 241.046105 244.417365 
L 242.131906 259.775515 
L 243.217708 217.906186 
L 244.303509 250.393002 
L 245.38931 208.30188 
L 246.475111 173.145546 
L 247.560912 212.139621 
L 248.646713 240.746098 
L 249.732514 202.793028 
L 250.818316 214.530775 
L 251.904117 172.107505 
L 252.989918 177.981091 
L 254.075719 166.06916 
L 255.16152 152.915584 
L 256.247321 148.496919 
L 257.333123 209.071586 
L 258.418924 239.830676 
L 259.504725 262.945857 
L 260.590526 269.455733 
L 261.676327 280.628983 
L 262.762128 272.004768 
L 263.847929 231.320818 
L 264.933731 230.886885 
L 266.019532 236.26451 
L 267.105333 237.295453 
L 268.191134 232.131359 
L 269.276935 199.278445 
L 270.362736 225.132514 
L 271.448538 258.955134 
L 272.534339 222.748701 
L 273.62014 241.77108 
L 274.705941 211.718352 
L 275.791742 249.704742 
L 276.877543 259.618578 
L 277.963344 235.859179 
L 279.049146 245.138695 
L 280.134947 216.568518 
L 281.220748 191.930622 
L 282.306549 203.176189 
L 283.39235 216.955197 
L 284.478151 199.563109 
L 286.649754 177.03568 
L 287.735555 188.357969 
L 288.821356 260.719874 
L 289.907157 222.216328 
L 290.992958 217.247295 
L 292.07876 206.09297 
L 293.164561 189.939013 
L 294.250362 211.353556 
L 295.336163 159.415615 
L 296.421964 198.005435 
L 297.507765 174.737029 
L 298.593566 192.292046 
L 299.679368 159.035267 
L 300.765169 152.547086 
L 301.85097 166.293687 
L 302.936771 155.458588 
L 304.022572 159.089621 
L 305.108373 178.758257 
L 306.194175 187.261649 
L 307.279976 181.277092 
L 308.365777 165.732073 
L 309.451578 160.195375 
L 310.537379 158.966327 
L 311.62318 150.010463 
L 312.708981 158.62199 
L 313.794783 181.566386 
L 314.880584 191.122687 
L 315.966385 188.026252 
L 317.052186 193.79226 
L 318.137987 159.538148 
L 319.223788 184.066231 
L 320.30959 181.476311 
L 321.395391 188.514523 
L 322.481192 197.892785 
L 323.566993 169.432575 
L 324.652794 195.796321 
L 325.738595 199.364232 
L 326.824396 197.847033 
L 327.910198 218.057814 
L 328.995999 202.804499 
L 330.0818 190.911943 
L 331.167601 151.914924 
L 333.339203 197.134664 
L 334.425005 191.122121 
L 335.510806 208.520482 
L 336.596607 203.338553 
L 337.682408 217.961895 
L 338.768209 186.65301 
L 339.85401 183.912824 
L 340.939811 210.330502 
L 342.025613 182.636422 
L 343.111414 179.375145 
L 344.197215 189.961316 
L 345.283016 208.176809 
L 347.454618 171.961505 
L 348.54042 186.835062 
L 349.626221 182.209021 
L 351.797823 198.610544 
L 352.883624 198.884377 
L 353.969425 244.332215 
L 355.055227 209.162512 
L 356.141028 219.124899 
L 357.226829 222.046985 
L 358.31263 201.856247 
L 359.398431 231.562905 
L 360.484232 217.553797 
L 362.655835 244.343817 
L 363.741636 212.604954 
L 364.827437 163.391721 
L 365.913238 150.300283 
L 366.999039 168.908302 
L 368.08484 181.92116 
L 369.170642 179.493235 
L 370.256443 164.46027 
L 371.342244 170.194535 
L 372.428045 147.900717 
L 373.513846 153.674561 
L 374.599647 136.053602 
L 375.685448 168.478546 
L 376.77125 165.703542 
L 377.857051 196.202141 
L 378.942852 181.983571 
L 380.028653 215.59508 
L 381.114454 234.902901 
L 382.200255 192.347261 
L 383.286057 225.641341 
L 384.371858 228.067388 
L 385.457659 233.490323 
L 386.54346 262.148743 
L 387.629261 226.315037 
L 388.715062 224.210302 
L 389.800863 186.591731 
L 390.886665 173.180708 
L 391.972466 151.520514 
L 393.058267 138.66341 
L 394.144068 169.896398 
L 395.229869 157.097965 
L 396.31567 179.239434 
L 397.401472 157.406402 
L 398.487273 163.569726 
L 398.487273 163.569726 
" style="fill:none;stroke:#0000ff;stroke-linecap:square;stroke-width:1.5;"/>
   </g>
   <g id="patch_3">
    <path d="M 57.6 307.584 
L 57.6 41.472 
" style="fill:none;stroke:#000000;stroke-linecap:square;stroke-linejoin:miter;stroke-width:0.8;"/>
   </g>
   <g id="patch_4">
    <path d="M 414.72 307.584 
L 414.72 41.472 
" style="fill:none;stroke:#000000;stroke-linecap:square;stroke-linejoin:miter;stroke-width:0.8;"/>
   </g>
   <g id="patch_5">
    <path d="M 57.6 307.584 
L 414.72 307.584 
" style="fill:none;stroke:#000000;stroke-linecap:square;stroke-linejoin:miter;stroke-width:0.8;"/>
   </g>
   <g id="patch_6">
    <path d="M 57.6 41.472 
L 414.72 41.472 
" style="fill:none;stroke:#000000;stroke-linecap:square;stroke-linejoin:miter;stroke-width:0.8;"/>
   </g>
  </g>
  <g id="axes_2">
   <g id="PolyCollection_2">
    <path clip-path="url(#pfcf3e2a7ff)" d="M 73.832727 87.795179 
L 73.832727 271.484591 
L 74.918528 284.206942 
L 76.00433 264.603538 
L 77.090131 261.610283 
L 78.175932 276.179566 
L 79.261733 273.829081 
L 80.347534 274.655444 
L 81.433335 266.499007 
L 82.519137 271.181557 
L 83.604938 277.716621 
L 84.690739 274.800955 
L 85.77654 285.610819 
L 86.862341 284.98726 
L 87.948142 277.549854 
L 89.033943 278.678366 
L 90.119745 284.964915 
L 91.205546 282.133797 
L 92.291347 274.869395 
L 93.377148 279.736236 
L 94.462949 278.775245 
L 95.54875 284.18318 
L 96.634552 286.367108 
L 97.720353 287.295007 
L 98.806154 291.775677 
L 99.891955 292.387426 
L 100.977756 286.719499 
L 102.063557 290.390459 
L 103.149358 286.017028 
L 104.23516 286.126872 
L 105.320961 287.470615 
L 106.406762 293.204768 
L 107.492563 294.675402 
L 108.578364 292.249503 
L 109.664165 295.488 
L 110.749967 291.182157 
L 111.835768 287.818058 
L 112.921569 285.053997 
L 114.00737 281.054053 
L 115.093171 283.181145 
L 116.178972 281.073845 
L 117.264773 289.1738 
L 118.350575 291.068262 
L 119.436376 291.894511 
L 120.522177 291.952274 
L 121.607978 287.72609 
L 122.693779 288.247325 
L 123.77958 287.463305 
L 124.865382 287.519556 
L 125.951183 283.333908 
L 127.036984 283.083138 
L 128.122785 282.489754 
L 129.208586 284.030592 
L 130.294387 284.111997 
L 131.380189 286.119522 
L 132.46599 283.759794 
L 133.551791 280.361745 
L 134.637592 283.626618 
L 135.723393 281.1378 
L 136.809194 282.909462 
L 137.894995 279.521477 
L 138.980797 287.099554 
L 140.066598 293.476651 
L 141.152399 291.814318 
L 142.2382 290.54619 
L 143.324001 290.039511 
L 144.409802 289.650861 
L 145.495604 284.322144 
L 146.581405 282.310694 
L 147.667206 277.915074 
L 148.753007 271.570047 
L 149.838808 269.275404 
L 150.924609 268.258038 
L 152.01041 271.430912 
L 153.096212 274.154857 
L 154.182013 276.762189 
L 155.267814 277.23441 
L 156.353615 282.532538 
L 157.439416 284.390186 
L 158.525217 284.147784 
L 159.611019 281.909737 
L 160.69682 282.117573 
L 161.782621 282.885478 
L 162.868422 283.026213 
L 163.954223 282.628827 
L 165.040024 281.666493 
L 166.125825 281.120892 
L 167.211627 284.485403 
L 168.297428 286.135122 
L 169.383229 286.104985 
L 170.46903 283.181064 
L 171.554831 284.153704 
L 172.640632 282.092837 
L 173.726434 285.403637 
L 174.812235 284.003098 
L 175.898036 287.014613 
L 176.983837 281.996881 
L 178.069638 281.135743 
L 179.155439 281.893213 
L 180.24124 282.049213 
L 181.327042 280.482887 
L 182.412843 284.432785 
L 183.498644 282.555636 
L 184.584445 280.080504 
L 185.670246 280.336688 
L 186.756047 274.283369 
L 187.841849 272.165234 
L 188.92765 275.854498 
L 190.013451 274.376538 
L 191.099252 271.879329 
L 192.185053 272.350108 
L 193.270854 271.077738 
L 194.356656 275.892054 
L 195.442457 276.217087 
L 196.528258 279.065048 
L 197.614059 278.956488 
L 198.69986 282.961524 
L 199.785661 284.111854 
L 200.871462 284.618124 
L 201.957264 282.080967 
L 203.043065 282.99066 
L 204.128866 286.568259 
L 205.214667 286.728533 
L 206.300468 286.477705 
L 207.386269 287.624813 
L 208.472071 286.466555 
L 209.557872 285.950026 
L 210.643673 280.637037 
L 211.729474 282.0958 
L 212.815275 278.674456 
L 213.901076 275.993445 
L 214.986877 272.988562 
L 216.072679 275.043522 
L 217.15848 275.580622 
L 218.244281 274.322429 
L 219.330082 266.211571 
L 220.415883 267.237163 
L 221.501684 275.966353 
L 222.587486 276.544785 
L 223.673287 279.17191 
L 224.759088 278.956188 
L 225.844889 284.110653 
L 226.93069 285.262871 
L 228.016491 285.608972 
L 229.102292 287.408114 
L 230.188094 287.839176 
L 231.273895 286.085245 
L 232.359696 283.420772 
L 233.445497 284.701987 
L 234.531298 286.576851 
L 235.617099 286.182686 
L 236.702901 286.173538 
L 237.788702 283.457166 
L 238.874503 290.291075 
L 239.960304 287.09267 
L 241.046105 288.82218 
L 242.131906 288.356395 
L 243.217708 287.376276 
L 244.303509 285.756292 
L 245.38931 278.793053 
L 246.475111 278.50332 
L 247.560912 279.11234 
L 248.646713 279.810351 
L 249.732514 277.867616 
L 250.818316 274.172583 
L 251.904117 279.02698 
L 252.989918 273.503308 
L 254.075719 273.872754 
L 255.16152 270.561884 
L 256.247321 276.405161 
L 257.333123 276.241693 
L 258.418924 281.440239 
L 259.504725 285.852789 
L 260.590526 286.203878 
L 261.676327 285.39408 
L 262.762128 287.171697 
L 263.847929 283.917031 
L 264.933731 284.45924 
L 266.019532 281.368266 
L 267.105333 283.588478 
L 268.191134 284.473926 
L 269.276935 277.953471 
L 270.362736 272.521777 
L 271.448538 272.287231 
L 272.534339 271.336035 
L 273.62014 270.750629 
L 274.705941 273.369282 
L 275.791742 273.536262 
L 276.877543 275.761275 
L 277.963344 270.579009 
L 279.049146 267.979291 
L 280.134947 268.095109 
L 281.220748 268.084831 
L 282.306549 265.327073 
L 283.39235 271.128352 
L 284.478151 269.145606 
L 285.563953 268.864517 
L 286.649754 280.509754 
L 287.735555 283.940971 
L 288.821356 283.545756 
L 289.907157 283.002827 
L 290.992958 283.035388 
L 292.07876 285.351887 
L 293.164561 279.289908 
L 294.250362 281.130221 
L 295.336163 279.733383 
L 296.421964 273.376057 
L 297.507765 272.290929 
L 298.593566 275.729976 
L 299.679368 272.02039 
L 300.765169 269.997019 
L 301.85097 269.878412 
L 302.936771 269.654479 
L 304.022572 271.186485 
L 305.108373 276.735617 
L 306.194175 275.782456 
L 307.279976 271.417219 
L 308.365777 264.403057 
L 309.451578 263.707837 
L 310.537379 269.641256 
L 311.62318 264.439339 
L 312.708981 263.089482 
L 313.794783 263.007125 
L 314.880584 265.433258 
L 315.966385 262.36916 
L 317.052186 262.547052 
L 318.137987 265.365272 
L 319.223788 264.840657 
L 320.30959 267.722737 
L 321.395391 264.021733 
L 322.481192 262.691594 
L 323.566993 270.200587 
L 324.652794 273.291357 
L 325.738595 274.810379 
L 326.824396 270.900168 
L 327.910198 272.77556 
L 328.995999 274.832886 
L 330.0818 271.151251 
L 331.167601 266.379101 
L 332.253402 268.46332 
L 333.339203 267.606425 
L 334.425005 275.899512 
L 335.510806 269.890589 
L 336.596607 272.065017 
L 337.682408 272.958181 
L 338.768209 272.291338 
L 339.85401 272.234261 
L 340.939811 272.961565 
L 342.025613 264.867426 
L 343.111414 272.201975 
L 344.197215 269.522142 
L 345.283016 265.628681 
L 346.368817 269.941063 
L 347.454618 272.860867 
L 348.54042 274.227668 
L 349.626221 270.559048 
L 350.712022 273.177988 
L 351.797823 267.809756 
L 352.883624 274.85821 
L 353.969425 276.864251 
L 355.055227 280.325624 
L 356.141028 282.525774 
L 357.226829 279.721715 
L 358.31263 281.21039 
L 359.398431 282.058469 
L 360.484232 279.47795 
L 361.570033 285.78825 
L 362.655835 282.145987 
L 363.741636 281.809381 
L 364.827437 275.729372 
L 365.913238 269.68102 
L 366.999039 279.308501 
L 368.08484 273.544817 
L 369.170642 271.272105 
L 370.256443 268.44402 
L 371.342244 272.142727 
L 372.428045 267.186057 
L 373.513846 269.517198 
L 374.599647 267.972942 
L 375.685448 266.568541 
L 376.77125 267.308567 
L 377.857051 267.054606 
L 378.942852 269.569112 
L 380.028653 272.968174 
L 381.114454 277.689324 
L 382.200255 277.199793 
L 383.286057 277.307224 
L 384.371858 275.544991 
L 385.457659 275.353121 
L 386.54346 277.703067 
L 387.629261 279.611794 
L 388.715062 279.081298 
L 389.800863 275.009547 
L 390.886665 265.357496 
L 391.972466 258.971365 
L 393.058267 260.931443 
L 394.144068 264.11528 
L 395.229869 267.95872 
L 396.31567 266.561926 
L 397.401472 264.118701 
L 398.487273 268.736236 
L 398.487273 65.27566 
L 398.487273 65.27566 
L 397.401472 59.247101 
L 396.31567 64.152935 
L 395.229869 66.285723 
L 394.144068 61.093249 
L 393.058267 56.764723 
L 391.972466 53.568 
L 390.886665 60.128493 
L 389.800863 71.578821 
L 388.715062 78.484209 
L 387.629261 82.079085 
L 386.54346 78.151499 
L 385.457659 76.212083 
L 384.371858 75.746248 
L 383.286057 78.227643 
L 382.200255 79.859927 
L 381.114454 83.614141 
L 380.028653 74.156533 
L 378.942852 67.909939 
L 377.857051 63.91723 
L 376.77125 65.614077 
L 375.685448 64.207834 
L 374.599647 65.834304 
L 373.513846 69.084258 
L 372.428045 66.095801 
L 371.342244 69.370194 
L 370.256443 63.934751 
L 369.170642 68.934126 
L 368.08484 72.432671 
L 366.999039 81.751054 
L 365.913238 67.116685 
L 364.827437 75.559305 
L 363.741636 84.546479 
L 362.655835 82.69253 
L 361.570033 89.656586 
L 360.484232 77.767857 
L 359.398431 82.653732 
L 358.31263 82.171176 
L 357.226829 81.948448 
L 356.141028 85.631831 
L 355.055227 80.851303 
L 353.969425 76.997757 
L 352.883624 73.867397 
L 351.797823 63.292148 
L 350.712022 73.2881 
L 349.626221 68.665888 
L 348.54042 72.165132 
L 347.454618 70.442867 
L 346.368817 67.149743 
L 345.283016 62.095978 
L 344.197215 66.70091 
L 343.111414 71.00941 
L 342.025613 61.849902 
L 340.939811 71.063327 
L 339.85401 71.506244 
L 338.768209 71.759502 
L 337.682408 72.500943 
L 336.596607 69.906247 
L 335.510806 67.313784 
L 334.425005 76.340126 
L 333.339203 64.888269 
L 332.253402 63.455474 
L 331.167601 59.481008 
L 330.0818 67.618703 
L 328.995999 71.630569 
L 327.910198 69.054086 
L 326.824396 67.521057 
L 325.738595 72.701128 
L 324.652794 71.324923 
L 323.566993 65.36853 
L 322.481192 55.377887 
L 321.395391 59.62192 
L 320.30959 63.324127 
L 319.223788 60.612006 
L 318.137987 62.904885 
L 317.052186 60.448217 
L 315.966385 60.328659 
L 314.880584 63.315696 
L 313.794783 59.335546 
L 312.708981 58.536135 
L 311.62318 60.083714 
L 310.537379 68.279653 
L 309.451578 61.979813 
L 308.365777 62.588424 
L 307.279976 73.127531 
L 306.194175 78.030674 
L 305.108373 80.473313 
L 304.022572 74.968475 
L 302.936771 71.503897 
L 301.85097 71.161944 
L 300.765169 71.373408 
L 299.679368 70.81233 
L 298.593566 74.925118 
L 297.507765 69.767787 
L 296.421964 70.849654 
L 295.336163 81.244083 
L 294.250362 82.00443 
L 293.164561 80.067185 
L 292.07876 93.114702 
L 290.992958 86.807703 
L 289.907157 86.637857 
L 288.821356 88.080563 
L 287.735555 87.490665 
L 286.649754 82.39063 
L 285.563953 62.291127 
L 284.478151 62.679506 
L 283.39235 65.283825 
L 282.306549 59.848142 
L 281.220748 63.405886 
L 280.134947 62.441165 
L 279.049146 62.358523 
L 277.963344 65.635107 
L 276.877543 72.460106 
L 275.791742 68.508507 
L 274.705941 67.604005 
L 273.62014 63.747378 
L 272.534339 66.581447 
L 271.448538 67.32778 
L 270.362736 68.680041 
L 269.276935 78.341582 
L 268.191134 88.109016 
L 267.105333 88.490151 
L 266.019532 83.780269 
L 264.933731 87.801488 
L 263.847929 86.819171 
L 262.762128 92.712488 
L 261.676327 88.776927 
L 260.590526 92.881355 
L 259.504725 93.414433 
L 258.418924 85.556408 
L 257.333123 77.575634 
L 256.247321 77.279753 
L 255.16152 70.303697 
L 254.075719 75.943461 
L 252.989918 74.765675 
L 251.904117 81.358147 
L 250.818316 72.68747 
L 249.732514 81.303735 
L 248.646713 85.565575 
L 247.560912 85.404604 
L 246.475111 83.372714 
L 245.38931 83.252719 
L 244.303509 92.831559 
L 243.217708 96.544855 
L 242.131906 97.543718 
L 241.046105 100.651691 
L 239.960304 93.810289 
L 238.874503 100.883799 
L 237.788702 86.758285 
L 236.702901 90.745994 
L 235.617099 91.528868 
L 234.531298 90.629187 
L 233.445497 88.387337 
L 232.359696 86.229894 
L 231.273895 94.243264 
L 230.188094 95.971082 
L 229.102292 93.531268 
L 228.016491 90.119796 
L 226.93069 88.345031 
L 225.844889 87.106882 
L 224.759088 77.538244 
L 223.673287 77.533393 
L 222.587486 73.41804 
L 221.501684 71.844771 
L 220.415883 61.91407 
L 219.330082 61.113648 
L 218.244281 71.238788 
L 217.15848 75.810522 
L 216.072679 74.722468 
L 214.986877 71.63955 
L 213.901076 77.386606 
L 212.815275 79.806731 
L 211.729474 85.966006 
L 210.643673 81.096392 
L 209.557872 92.480491 
L 208.472071 94.315039 
L 207.386269 94.110846 
L 206.300468 94.242723 
L 205.214667 93.010869 
L 204.128866 93.904684 
L 203.043065 85.465325 
L 201.957264 83.833534 
L 200.871462 87.614172 
L 199.785661 87.711745 
L 198.69986 86.650738 
L 197.614059 77.608635 
L 196.528258 78.75022 
L 195.442457 75.108635 
L 194.356656 75.22082 
L 193.270854 68.66238 
L 192.185053 68.759055 
L 191.099252 67.50779 
L 190.013451 71.480302 
L 188.92765 72.943047 
L 187.841849 67.538046 
L 186.756047 74.238838 
L 185.670246 81.559033 
L 184.584445 82.994797 
L 183.498644 88.162253 
L 182.412843 90.911734 
L 181.327042 84.304514 
L 180.24124 87.621523 
L 179.155439 85.357835 
L 178.069638 85.570413 
L 176.983837 86.329205 
L 175.898036 96.721303 
L 174.812235 92.141526 
L 173.726434 92.520157 
L 172.640632 83.520784 
L 171.554831 88.727124 
L 170.46903 85.972715 
L 169.383229 90.577765 
L 168.297428 91.386721 
L 167.211627 88.461471 
L 166.125825 83.9553 
L 165.040024 83.71229 
L 163.954223 83.164059 
L 162.868422 85.626281 
L 161.782621 84.16663 
L 160.69682 83.945965 
L 159.611019 85.132338 
L 158.525217 88.811193 
L 157.439416 91.807431 
L 156.353615 88.555917 
L 155.267814 77.472429 
L 154.182013 79.74443 
L 153.096212 75.486728 
L 152.01041 71.215042 
L 150.924609 67.507857 
L 149.838808 67.288217 
L 148.753007 70.199185 
L 147.667206 78.227786 
L 146.581405 89.265996 
L 145.495604 92.928455 
L 144.409802 107.198818 
L 143.324001 105.381122 
L 142.2382 104.455605 
L 141.152399 107.993066 
L 140.066598 109.930384 
L 138.980797 96.537232 
L 137.894995 82.493104 
L 136.809194 90.450479 
L 135.723393 85.603437 
L 134.637592 90.651159 
L 133.551791 81.774144 
L 132.46599 91.304748 
L 131.380189 96.259545 
L 130.294387 92.780167 
L 129.208586 92.508023 
L 128.122785 88.616703 
L 127.036984 90.61468 
L 125.951183 92.528127 
L 124.865382 100.164536 
L 123.77958 99.754957 
L 122.693779 99.870367 
L 121.607978 100.043042 
L 120.522177 113.800914 
L 119.436376 113.85177 
L 118.350575 109.054084 
L 117.264773 102.660559 
L 116.178972 85.702435 
L 115.093171 88.569746 
L 114.00737 83.268553 
L 112.921569 92.716229 
L 111.835768 98.386741 
L 110.749967 103.85575 
L 109.664165 117.870304 
L 108.578364 107.793956 
L 107.492563 118.076055 
L 106.406762 114.769582 
L 105.320961 103.579683 
L 104.23516 101.104621 
L 103.149358 100.035898 
L 102.063557 110.69683 
L 100.977756 99.614143 
L 99.891955 114.691483 
L 98.806154 113.879824 
L 97.720353 102.157404 
L 96.634552 101.898552 
L 95.54875 99.561829 
L 94.462949 91.93976 
L 93.377148 93.981281 
L 92.291347 82.363184 
L 91.205546 97.486842 
L 90.119745 104.559695 
L 89.033943 88.108026 
L 87.948142 85.937294 
L 86.862341 102.353507 
L 85.77654 102.649813 
L 84.690739 84.308793 
L 83.604938 88.846345 
L 82.519137 76.790589 
L 81.433335 69.325424 
L 80.347534 84.284812 
L 79.261733 78.991486 
L 78.175932 83.384122 
L 77.090131 62.504721 
L 76.00433 70.19747 
L 74.918528 111.937751 
L 73.832727 87.795179 
z
" style="fill:#008000;fill-opacity:0.25;"/>
   </g>
   <g id="matplotlib.axis_3">
    <g id="ytick_7">
     <g id="line2d_15">
      <path clip-path="url(#pfcf3e2a7ff)" d="M 57.6 299.537361 
L 414.72 299.537361 
" style="fill:none;stroke:#b0b0b0;stroke-linecap:square;stroke-width:0.8;"/>
     </g>
     <g id="line2d_16">
      <defs>
       <path d="M 0 0 
L 3.5 0 
" id="mb47fd43220" style="stroke:#000000;stroke-width:0.8;"/>
      </defs>
      <g>
       <use style="stroke:#000000;stroke-width:0.8;" x="414.72" xlink:href="#mb47fd43220" y="299.537361"/>
      </g>
     </g>
     <g id="text_15">
      <!-- 0.2 -->
      <defs>
       <path d="M 10.59375 35.5 
L 73.1875 35.5 
L 73.1875 27.203125 
L 10.59375 27.203125 
z
" id="DejaVuSans-8722"/>
      </defs>
      <g transform="translate(421.72 303.33658)scale(0.1 -0.1)">
       <use xlink:href="#DejaVuSans-8722"/>
       <use x="83.789062" xlink:href="#DejaVuSans-48"/>
       <use x="147.412109" xlink:href="#DejaVuSans-46"/>
       <use x="179.199219" xlink:href="#DejaVuSans-50"/>
      </g>
     </g>
    </g>
    <g id="ytick_8">
     <g id="line2d_17">
      <path clip-path="url(#pfcf3e2a7ff)" d="M 57.6 256.965024 
L 414.72 256.965024 
" style="fill:none;stroke:#b0b0b0;stroke-linecap:square;stroke-width:0.8;"/>
     </g>
     <g id="line2d_18">
      <g>
       <use style="stroke:#000000;stroke-width:0.8;" x="414.72" xlink:href="#mb47fd43220" y="256.965024"/>
      </g>
     </g>
     <g id="text_16">
      <!-- 0.0 -->
      <g transform="translate(421.72 260.764243)scale(0.1 -0.1)">
       <use xlink:href="#DejaVuSans-48"/>
       <use x="63.623047" xlink:href="#DejaVuSans-46"/>
       <use x="95.410156" xlink:href="#DejaVuSans-48"/>
      </g>
     </g>
    </g>
    <g id="ytick_9">
     <g id="line2d_19">
      <path clip-path="url(#pfcf3e2a7ff)" d="M 57.6 214.392688 
L 414.72 214.392688 
" style="fill:none;stroke:#b0b0b0;stroke-linecap:square;stroke-width:0.8;"/>
     </g>
     <g id="line2d_20">
      <g>
       <use style="stroke:#000000;stroke-width:0.8;" x="414.72" xlink:href="#mb47fd43220" y="214.392688"/>
      </g>
     </g>
     <g id="text_17">
      <!-- 0.2 -->
      <g transform="translate(421.72 218.191906)scale(0.1 -0.1)">
       <use xlink:href="#DejaVuSans-48"/>
       <use x="63.623047" xlink:href="#DejaVuSans-46"/>
       <use x="95.410156" xlink:href="#DejaVuSans-50"/>
      </g>
     </g>
    </g>
    <g id="ytick_10">
     <g id="line2d_21">
      <path clip-path="url(#pfcf3e2a7ff)" d="M 57.6 171.820351 
L 414.72 171.820351 
" style="fill:none;stroke:#b0b0b0;stroke-linecap:square;stroke-width:0.8;"/>
     </g>
     <g id="line2d_22">
      <g>
       <use style="stroke:#000000;stroke-width:0.8;" x="414.72" xlink:href="#mb47fd43220" y="171.820351"/>
      </g>
     </g>
     <g id="text_18">
      <!-- 0.4 -->
      <g transform="translate(421.72 175.61957)scale(0.1 -0.1)">
       <use xlink:href="#DejaVuSans-48"/>
       <use x="63.623047" xlink:href="#DejaVuSans-46"/>
       <use x="95.410156" xlink:href="#DejaVuSans-52"/>
      </g>
     </g>
    </g>
    <g id="ytick_11">
     <g id="line2d_23">
      <path clip-path="url(#pfcf3e2a7ff)" d="M 57.6 129.248014 
L 414.72 129.248014 
" style="fill:none;stroke:#b0b0b0;stroke-linecap:square;stroke-width:0.8;"/>
     </g>
     <g id="line2d_24">
      <g>
       <use style="stroke:#000000;stroke-width:0.8;" x="414.72" xlink:href="#mb47fd43220" y="129.248014"/>
      </g>
     </g>
     <g id="text_19">
      <!-- 0.6 -->
      <g transform="translate(421.72 133.047233)scale(0.1 -0.1)">
       <use xlink:href="#DejaVuSans-48"/>
       <use x="63.623047" xlink:href="#DejaVuSans-46"/>
       <use x="95.410156" xlink:href="#DejaVuSans-54"/>
      </g>
     </g>
    </g>
    <g id="ytick_12">
     <g id="line2d_25">
      <path clip-path="url(#pfcf3e2a7ff)" d="M 57.6 86.675678 
L 414.72 86.675678 
" style="fill:none;stroke:#b0b0b0;stroke-linecap:square;stroke-width:0.8;"/>
     </g>
     <g id="line2d_26">
      <g>
       <use style="stroke:#000000;stroke-width:0.8;" x="414.72" xlink:href="#mb47fd43220" y="86.675678"/>
      </g>
     </g>
     <g id="text_20">
      <!-- 0.8 -->
      <g transform="translate(421.72 90.474896)scale(0.1 -0.1)">
       <use xlink:href="#DejaVuSans-48"/>
       <use x="63.623047" xlink:href="#DejaVuSans-46"/>
       <use x="95.410156" xlink:href="#DejaVuSans-56"/>
      </g>
     </g>
    </g>
    <g id="ytick_13">
     <g id="line2d_27">
      <path clip-path="url(#pfcf3e2a7ff)" d="M 57.6 44.103341 
L 414.72 44.103341 
" style="fill:none;stroke:#b0b0b0;stroke-linecap:square;stroke-width:0.8;"/>
     </g>
     <g id="line2d_28">
      <g>
       <use style="stroke:#000000;stroke-width:0.8;" x="414.72" xlink:href="#mb47fd43220" y="44.103341"/>
      </g>
     </g>
     <g id="text_21">
      <!-- 1.0 -->
      <g transform="translate(421.72 47.90256)scale(0.1 -0.1)">
       <use xlink:href="#DejaVuSans-49"/>
       <use x="63.623047" xlink:href="#DejaVuSans-46"/>
       <use x="95.410156" xlink:href="#DejaVuSans-48"/>
      </g>
     </g>
    </g>
    <g id="text_22">
     <!-- Loudness -->
     <defs>
      <path d="M 9.8125 72.90625 
L 19.671875 72.90625 
L 19.671875 8.296875 
L 55.171875 8.296875 
L 55.171875 0 
L 9.8125 0 
z
" id="DejaVuSans-76"/>
      <path d="M 30.609375 48.390625 
Q 23.390625 48.390625 19.1875 42.75 
Q 14.984375 37.109375 14.984375 27.296875 
Q 14.984375 17.484375 19.15625 11.84375 
Q 23.34375 6.203125 30.609375 6.203125 
Q 37.796875 6.203125 41.984375 11.859375 
Q 46.1875 17.53125 46.1875 27.296875 
Q 46.1875 37.015625 41.984375 42.703125 
Q 37.796875 48.390625 30.609375 48.390625 
z
M 30.609375 56 
Q 42.328125 56 49.015625 48.375 
Q 55.71875 40.765625 55.71875 27.296875 
Q 55.71875 13.875 49.015625 6.21875 
Q 42.328125 -1.421875 30.609375 -1.421875 
Q 18.84375 -1.421875 12.171875 6.21875 
Q 5.515625 13.875 5.515625 27.296875 
Q 5.515625 40.765625 12.171875 48.375 
Q 18.84375 56 30.609375 56 
z
" id="DejaVuSans-111"/>
      <path d="M 8.5 21.578125 
L 8.5 54.6875 
L 17.484375 54.6875 
L 17.484375 21.921875 
Q 17.484375 14.15625 20.5 10.265625 
Q 23.53125 6.390625 29.59375 6.390625 
Q 36.859375 6.390625 41.078125 11.03125 
Q 45.3125 15.671875 45.3125 23.6875 
L 45.3125 54.6875 
L 54.296875 54.6875 
L 54.296875 0 
L 45.3125 0 
L 45.3125 8.40625 
Q 42.046875 3.421875 37.71875 1 
Q 33.40625 -1.421875 27.6875 -1.421875 
Q 18.265625 -1.421875 13.375 4.4375 
Q 8.5 10.296875 8.5 21.578125 
z
M 31.109375 56 
z
" id="DejaVuSans-117"/>
      <path d="M 45.40625 46.390625 
L 45.40625 75.984375 
L 54.390625 75.984375 
L 54.390625 0 
L 45.40625 0 
L 45.40625 8.203125 
Q 42.578125 3.328125 38.25 0.953125 
Q 33.9375 -1.421875 27.875 -1.421875 
Q 17.96875 -1.421875 11.734375 6.484375 
Q 5.515625 14.40625 5.515625 27.296875 
Q 5.515625 40.1875 11.734375 48.09375 
Q 17.96875 56 27.875 56 
Q 33.9375 56 38.25 53.625 
Q 42.578125 51.265625 45.40625 46.390625 
z
M 14.796875 27.296875 
Q 14.796875 17.390625 18.875 11.75 
Q 22.953125 6.109375 30.078125 6.109375 
Q 37.203125 6.109375 41.296875 11.75 
Q 45.40625 17.390625 45.40625 27.296875 
Q 45.40625 37.203125 41.296875 42.84375 
Q 37.203125 48.484375 30.078125 48.484375 
Q 22.953125 48.484375 18.875 42.84375 
Q 14.796875 37.203125 14.796875 27.296875 
z
" id="DejaVuSans-100"/>
     </defs>
     <g transform="translate(457.60125 198.170187)rotate(-90)scale(0.1 -0.1)">
      <use xlink:href="#DejaVuSans-76"/>
      <use x="55.697266" xlink:href="#DejaVuSans-111"/>
      <use x="116.878906" xlink:href="#DejaVuSans-117"/>
      <use x="180.257812" xlink:href="#DejaVuSans-100"/>
      <use x="243.734375" xlink:href="#DejaVuSans-110"/>
      <use x="307.113281" xlink:href="#DejaVuSans-101"/>
      <use x="368.636719" xlink:href="#DejaVuSans-115"/>
      <use x="420.736328" xlink:href="#DejaVuSans-115"/>
     </g>
    </g>
   </g>
   <g id="line2d_29">
    <path clip-path="url(#pfcf3e2a7ff)" d="M 73.832727 179.639885 
L 74.918528 198.072347 
L 76.00433 167.400504 
L 77.090131 162.057502 
L 78.175932 179.781844 
L 79.261733 176.410284 
L 80.347534 179.470128 
L 81.433335 167.912216 
L 82.519137 173.986073 
L 83.604938 183.281483 
L 84.690739 179.554874 
L 85.77654 194.130316 
L 86.862341 193.670383 
L 87.948142 181.743574 
L 89.033943 183.393196 
L 90.119745 194.762305 
L 91.205546 189.810319 
L 92.291347 178.616289 
L 93.377148 186.858759 
L 94.462949 185.357502 
L 95.54875 191.872505 
L 96.634552 194.13283 
L 97.720353 194.726206 
L 98.806154 202.827751 
L 99.891955 203.539455 
L 100.977756 193.166821 
L 102.063557 200.543645 
L 103.149358 193.026463 
L 104.23516 193.615747 
L 105.320961 195.525149 
L 106.406762 203.987175 
L 107.492563 206.375728 
L 108.578364 200.021729 
L 109.664165 206.679152 
L 110.749967 197.518953 
L 112.921569 188.885113 
L 114.00737 182.161303 
L 115.093171 185.875445 
L 116.178972 183.38814 
L 117.264773 195.91718 
L 118.350575 200.061173 
L 119.436376 202.87314 
L 120.522177 202.876594 
L 121.607978 193.884566 
L 122.693779 194.058846 
L 123.77958 193.609131 
L 124.865382 193.842046 
L 125.951183 187.931017 
L 127.036984 186.848909 
L 128.122785 185.553228 
L 129.208586 188.269308 
L 130.294387 188.446082 
L 131.380189 191.189533 
L 132.46599 187.532271 
L 133.551791 181.067945 
L 134.637592 187.138889 
L 135.723393 183.370618 
L 136.809194 186.67997 
L 137.894995 181.007291 
L 140.066598 201.703517 
L 141.152399 199.903692 
L 142.2382 197.500897 
L 143.324001 197.710317 
L 144.409802 198.42484 
L 145.495604 188.6253 
L 146.581405 185.788345 
L 148.753007 170.884616 
L 149.838808 168.281811 
L 150.924609 167.882947 
L 154.182013 178.253309 
L 155.267814 177.353419 
L 156.353615 185.544227 
L 157.439416 188.098808 
L 158.525217 186.479489 
L 159.611019 183.521037 
L 160.69682 183.031769 
L 161.782621 183.526054 
L 162.868422 184.326247 
L 163.954223 182.896443 
L 166.125825 182.538096 
L 167.211627 186.473437 
L 168.297428 188.760921 
L 169.383229 188.341375 
L 170.46903 184.576889 
L 171.554831 186.440414 
L 172.640632 182.80681 
L 173.726434 188.961897 
L 174.812235 188.072312 
L 175.898036 191.867958 
L 176.983837 184.163043 
L 178.069638 183.353078 
L 179.155439 183.625524 
L 180.24124 184.835368 
L 181.327042 182.393701 
L 182.412843 187.672259 
L 183.498644 185.358945 
L 184.584445 181.537651 
L 185.670246 180.947861 
L 186.756047 174.261103 
L 187.841849 169.85164 
L 188.92765 174.398772 
L 190.013451 172.92842 
L 191.099252 169.693559 
L 192.185053 170.554581 
L 193.270854 169.870059 
L 194.356656 175.556437 
L 195.442457 175.662861 
L 196.528258 178.907634 
L 197.614059 178.282561 
L 198.69986 184.806131 
L 199.785661 185.9118 
L 200.871462 186.116148 
L 201.957264 182.957251 
L 203.043065 184.227993 
L 204.128866 190.236472 
L 205.214667 189.869701 
L 207.386269 190.867829 
L 208.472071 190.390797 
L 209.557872 189.215259 
L 210.643673 180.866714 
L 211.729474 184.030903 
L 212.815275 179.240594 
L 213.901076 176.690025 
L 214.986877 172.314056 
L 216.072679 174.882995 
L 217.15848 175.695572 
L 218.244281 172.780609 
L 219.330082 163.662609 
L 220.415883 164.575616 
L 221.501684 173.905562 
L 222.587486 174.981413 
L 223.673287 178.352652 
L 224.759088 178.247216 
L 225.844889 185.608768 
L 228.016491 187.864384 
L 229.102292 190.469691 
L 230.188094 191.905129 
L 231.273895 190.164255 
L 232.359696 184.825333 
L 233.445497 186.544662 
L 234.531298 188.603019 
L 235.617099 188.855777 
L 236.702901 188.459766 
L 237.788702 185.107725 
L 238.874503 195.587437 
L 239.960304 190.451479 
L 241.046105 194.736936 
L 242.131906 192.950056 
L 243.217708 191.960566 
L 244.303509 189.293926 
L 245.38931 181.022886 
L 246.475111 180.938017 
L 247.560912 182.258472 
L 248.646713 182.687963 
L 249.732514 179.585676 
L 250.818316 173.430027 
L 251.904117 180.192564 
L 252.989918 174.134491 
L 254.075719 174.908108 
L 255.16152 170.43279 
L 256.247321 176.842457 
L 257.333123 176.908663 
L 259.504725 189.633611 
L 260.590526 189.542617 
L 261.676327 187.085503 
L 262.762128 189.942093 
L 263.847929 185.368101 
L 264.933731 186.130364 
L 266.019532 182.574267 
L 267.105333 186.039314 
L 268.191134 186.291471 
L 270.362736 170.600909 
L 272.534339 168.958741 
L 273.62014 167.249004 
L 274.705941 170.486644 
L 275.791742 171.022384 
L 276.877543 174.11069 
L 277.963344 168.107058 
L 279.049146 165.168907 
L 280.134947 165.268137 
L 281.220748 165.745358 
L 282.306549 162.587607 
L 283.39235 168.206088 
L 284.478151 165.912556 
L 285.563953 165.577822 
L 286.649754 181.450192 
L 287.735555 185.715818 
L 288.821356 185.81316 
L 289.907157 184.820342 
L 290.992958 184.921545 
L 292.07876 189.233294 
L 293.164561 179.678546 
L 294.250362 181.567325 
L 295.336163 180.488733 
L 296.421964 172.112855 
L 297.507765 171.029358 
L 298.593566 175.327547 
L 299.679368 171.41636 
L 300.765169 170.685214 
L 301.85097 170.520178 
L 302.936771 170.579188 
L 304.022572 173.07748 
L 305.108373 178.604465 
L 306.194175 176.906565 
L 307.279976 172.272375 
L 308.365777 163.49574 
L 309.451578 162.843825 
L 310.537379 168.960455 
L 311.62318 162.261526 
L 312.708981 160.812809 
L 313.794783 161.171336 
L 314.880584 164.374477 
L 315.966385 161.348909 
L 317.052186 161.497635 
L 318.137987 164.135079 
L 319.223788 162.726332 
L 320.30959 165.523432 
L 321.395391 161.821826 
L 322.481192 159.03474 
L 323.566993 167.784559 
L 324.652794 172.30814 
L 325.738595 173.755753 
L 326.824396 169.210613 
L 327.910198 170.914823 
L 328.995999 173.231727 
L 330.0818 169.384977 
L 331.167601 162.930054 
L 332.253402 165.959397 
L 333.339203 166.247347 
L 334.425005 176.119819 
L 335.510806 168.602186 
L 336.596607 170.985632 
L 337.682408 172.729562 
L 338.768209 172.02542 
L 339.85401 171.870252 
L 340.939811 172.012446 
L 342.025613 163.358664 
L 343.111414 171.605692 
L 344.197215 168.111526 
L 345.283016 163.86233 
L 346.368817 168.545403 
L 347.454618 171.651867 
L 348.54042 173.1964 
L 349.626221 169.612468 
L 350.712022 173.233044 
L 351.797823 165.550952 
L 352.883624 174.362804 
L 353.969425 176.931004 
L 356.141028 184.078802 
L 357.226829 180.835082 
L 358.31263 181.690783 
L 359.398431 182.356101 
L 360.484232 178.622903 
L 361.570033 187.722418 
L 362.655835 182.419259 
L 363.741636 183.17793 
L 365.913238 168.398852 
L 366.999039 180.529778 
L 368.08484 172.988744 
L 369.170642 170.103116 
L 370.256443 166.189385 
L 371.342244 170.75646 
L 372.428045 166.640929 
L 373.513846 169.300728 
L 374.599647 166.903623 
L 375.685448 165.388188 
L 376.77125 166.461322 
L 377.857051 165.485918 
L 378.942852 168.739526 
L 380.028653 173.562353 
L 381.114454 180.651733 
L 382.200255 178.52986 
L 383.286057 177.767433 
L 384.371858 175.64562 
L 385.457659 175.782602 
L 386.54346 177.927283 
L 387.629261 180.845439 
L 388.715062 178.782753 
L 389.800863 173.294184 
L 390.886665 162.742995 
L 391.972466 156.269683 
L 393.058267 158.848083 
L 394.144068 162.604264 
L 395.229869 167.122222 
L 396.31567 165.35743 
L 397.401472 161.682901 
L 398.487273 167.005948 
L 398.487273 167.005948 
" style="fill:none;stroke:#008000;stroke-linecap:square;stroke-width:1.5;"/>
   </g>
   <g id="patch_7">
    <path d="M 57.6 307.584 
L 57.6 41.472 
" style="fill:none;stroke:#000000;stroke-linecap:square;stroke-linejoin:miter;stroke-width:0.8;"/>
   </g>
   <g id="patch_8">
    <path d="M 414.72 307.584 
L 414.72 41.472 
" style="fill:none;stroke:#000000;stroke-linecap:square;stroke-linejoin:miter;stroke-width:0.8;"/>
   </g>
   <g id="patch_9">
    <path d="M 57.6 307.584 
L 414.72 307.584 
" style="fill:none;stroke:#000000;stroke-linecap:square;stroke-linejoin:miter;stroke-width:0.8;"/>
   </g>
   <g id="patch_10">
    <path d="M 57.6 41.472 
L 414.72 41.472 
" style="fill:none;stroke:#000000;stroke-linecap:square;stroke-linejoin:miter;stroke-width:0.8;"/>
   </g>
   <g id="text_23">
    <!-- Message Difference and Loudness -->
    <defs>
     <path d="M 9.8125 72.90625 
L 24.515625 72.90625 
L 43.109375 23.296875 
L 61.8125 72.90625 
L 76.515625 72.90625 
L 76.515625 0 
L 66.890625 0 
L 66.890625 64.015625 
L 48.09375 14.015625 
L 38.1875 14.015625 
L 19.390625 64.015625 
L 19.390625 0 
L 9.8125 0 
z
" id="DejaVuSans-77"/>
     <path d="M 45.40625 27.984375 
Q 45.40625 37.75 41.375 43.109375 
Q 37.359375 48.484375 30.078125 48.484375 
Q 22.859375 48.484375 18.828125 43.109375 
Q 14.796875 37.75 14.796875 27.984375 
Q 14.796875 18.265625 18.828125 12.890625 
Q 22.859375 7.515625 30.078125 7.515625 
Q 37.359375 7.515625 41.375 12.890625 
Q 45.40625 18.265625 45.40625 27.984375 
z
M 54.390625 6.78125 
Q 54.390625 -7.171875 48.1875 -13.984375 
Q 42 -20.796875 29.203125 -20.796875 
Q 24.46875 -20.796875 20.265625 -20.09375 
Q 16.0625 -19.390625 12.109375 -17.921875 
L 12.109375 -9.1875 
Q 16.0625 -11.328125 19.921875 -12.34375 
Q 23.78125 -13.375 27.78125 -13.375 
Q 36.625 -13.375 41.015625 -8.765625 
Q 45.40625 -4.15625 45.40625 5.171875 
L 45.40625 9.625 
Q 42.625 4.78125 38.28125 2.390625 
Q 33.9375 0 27.875 0 
Q 17.828125 0 11.671875 7.65625 
Q 5.515625 15.328125 5.515625 27.984375 
Q 5.515625 40.671875 11.671875 48.328125 
Q 17.828125 56 27.875 56 
Q 33.9375 56 38.28125 53.609375 
Q 42.625 51.21875 45.40625 46.390625 
L 45.40625 54.6875 
L 54.390625 54.6875 
z
" id="DejaVuSans-103"/>
     <path id="DejaVuSans-32"/>
     <path d="M 37.109375 75.984375 
L 37.109375 68.5 
L 28.515625 68.5 
Q 23.6875 68.5 21.796875 66.546875 
Q 19.921875 64.59375 19.921875 59.515625 
L 19.921875 54.6875 
L 34.71875 54.6875 
L 34.71875 47.703125 
L 19.921875 47.703125 
L 19.921875 0 
L 10.890625 0 
L 10.890625 47.703125 
L 2.296875 47.703125 
L 2.296875 54.6875 
L 10.890625 54.6875 
L 10.890625 58.5 
Q 10.890625 67.625 15.140625 71.796875 
Q 19.390625 75.984375 28.609375 75.984375 
z
" id="DejaVuSans-102"/>
     <path d="M 41.109375 46.296875 
Q 39.59375 47.171875 37.8125 47.578125 
Q 36.03125 48 33.890625 48 
Q 26.265625 48 22.1875 43.046875 
Q 18.109375 38.09375 18.109375 28.8125 
L 18.109375 0 
L 9.078125 0 
L 9.078125 54.6875 
L 18.109375 54.6875 
L 18.109375 46.1875 
Q 20.953125 51.171875 25.484375 53.578125 
Q 30.03125 56 36.53125 56 
Q 37.453125 56 38.578125 55.875 
Q 39.703125 55.765625 41.0625 55.515625 
z
" id="DejaVuSans-114"/>
    </defs>
    <g transform="translate(133.329375 35.472)scale(0.12 -0.12)">
     <use xlink:href="#DejaVuSans-77"/>
     <use x="86.279297" xlink:href="#DejaVuSans-101"/>
     <use x="147.802734" xlink:href="#DejaVuSans-115"/>
     <use x="199.902344" xlink:href="#DejaVuSans-115"/>
     <use x="252.001953" xlink:href="#DejaVuSans-97"/>
     <use x="313.28125" xlink:href="#DejaVuSans-103"/>
     <use x="376.757812" xlink:href="#DejaVuSans-101"/>
     <use x="438.28125" xlink:href="#DejaVuSans-32"/>
     <use x="470.068359" xlink:href="#DejaVuSans-68"/>
     <use x="547.070312" xlink:href="#DejaVuSans-105"/>
     <use x="574.853516" xlink:href="#DejaVuSans-102"/>
     <use x="610.058594" xlink:href="#DejaVuSans-102"/>
     <use x="645.263672" xlink:href="#DejaVuSans-101"/>
     <use x="706.787109" xlink:href="#DejaVuSans-114"/>
     <use x="747.869141" xlink:href="#DejaVuSans-101"/>
     <use x="809.392578" xlink:href="#DejaVuSans-110"/>
     <use x="872.771484" xlink:href="#DejaVuSans-99"/>
     <use x="927.751953" xlink:href="#DejaVuSans-101"/>
     <use x="989.275391" xlink:href="#DejaVuSans-32"/>
     <use x="1021.0625" xlink:href="#DejaVuSans-97"/>
     <use x="1082.341797" xlink:href="#DejaVuSans-110"/>
     <use x="1145.720703" xlink:href="#DejaVuSans-100"/>
     <use x="1209.197266" xlink:href="#DejaVuSans-32"/>
     <use x="1240.984375" xlink:href="#DejaVuSans-76"/>
     <use x="1296.681641" xlink:href="#DejaVuSans-111"/>
     <use x="1357.863281" xlink:href="#DejaVuSans-117"/>
     <use x="1421.242188" xlink:href="#DejaVuSans-100"/>
     <use x="1484.71875" xlink:href="#DejaVuSans-110"/>
     <use x="1548.097656" xlink:href="#DejaVuSans-101"/>
     <use x="1609.621094" xlink:href="#DejaVuSans-115"/>
     <use x="1661.720703" xlink:href="#DejaVuSans-115"/>
    </g>
   </g>
   <g id="legend_1">
    <g id="patch_11">
     <path d="M 331.227813 64.150125 
L 407.72 64.150125 
Q 409.72 64.150125 409.72 62.150125 
L 409.72 48.472 
Q 409.72 46.472 407.72 46.472 
L 331.227813 46.472 
Q 329.227813 46.472 329.227813 48.472 
L 329.227813 62.150125 
Q 329.227813 64.150125 331.227813 64.150125 
z
" style="fill:#ffffff;opacity:0.8;stroke:#cccccc;stroke-linejoin:miter;"/>
    </g>
    <g id="line2d_30">
     <path d="M 333.227813 54.570438 
L 353.227813 54.570438 
" style="fill:none;stroke:#008000;stroke-linecap:square;stroke-width:1.5;"/>
    </g>
    <g id="line2d_31"/>
    <g id="text_24">
     <!-- loudness -->
     <defs>
      <path d="M 9.421875 75.984375 
L 18.40625 75.984375 
L 18.40625 0 
L 9.421875 0 
z
" id="DejaVuSans-108"/>
     </defs>
     <g transform="translate(361.227813 58.070438)scale(0.1 -0.1)">
      <use xlink:href="#DejaVuSans-108"/>
      <use x="27.783203" xlink:href="#DejaVuSans-111"/>
      <use x="88.964844" xlink:href="#DejaVuSans-117"/>
      <use x="152.34375" xlink:href="#DejaVuSans-100"/>
      <use x="215.820312" xlink:href="#DejaVuSans-110"/>
      <use x="279.199219" xlink:href="#DejaVuSans-101"/>
      <use x="340.722656" xlink:href="#DejaVuSans-115"/>
      <use x="392.822266" xlink:href="#DejaVuSans-115"/>
     </g>
    </g>
   </g>
  </g>
 </g>
 <defs>
  <clipPath id="pfcf3e2a7ff">
   <rect height="266.112" width="357.12" x="57.6" y="41.472"/>
  </clipPath>
 </defs>
</svg>
