<?xml version="1.0" encoding="UTF-8" standalone="no"?>
<!DOCTYPE svg PUBLIC "-//W3C//DTD SVG 1.1//EN"
 "http://www.w3.org/Graphics/SVG/1.1/DTD/svg11.dtd">
<!-- Generated by graphviz version 2.40.1 (20161225.0304)
 -->
<!-- Title: %3 Pages: 1 -->
<svg width="485pt" height="98pt"
 viewBox="0.00 0.00 484.77 97.77" xmlns="http://www.w3.org/2000/svg" xmlns:xlink="http://www.w3.org/1999/xlink">
<g id="graph0" class="graph" transform="scale(1 1) rotate(0) translate(4 93.7661)">
<title>%3</title>
<polygon fill="#ffffff" stroke="transparent" points="-4,4 -4,-93.7661 480.7661,-93.7661 480.7661,4 -4,4"/>
<!-- 0 -->
<g id="node1" class="node">
<title>0</title>
<polygon fill="#d3d3d3" stroke="#000000" points="303.389,-89.7661 283.3771,-89.7661 283.3771,-72.7661 303.389,-72.7661 303.389,-89.7661"/>
<text text-anchor="middle" x="293.383" y="-78.5661" font-family="Times,serif" font-size="9.00" fill="#000000">0</text>
</g>
<!-- 1 -->
<g id="node2" class="node">
<title>1</title>
<polygon fill="#d3d3d3" stroke="#000000" points="342.389,-89.7661 322.3771,-89.7661 322.3771,-72.7661 342.389,-72.7661 342.389,-89.7661"/>
<text text-anchor="middle" x="332.383" y="-78.5661" font-family="Times,serif" font-size="9.00" fill="#000000">1</text>
</g>
<!-- 0&#45;&gt;1 -->
<!-- E1 -->
<g id="node5" class="node">
<title>E1</title>
<ellipse fill="#87cefa" stroke="#000000" cx="73.383" cy="-18.383" rx="18.2668" ry="18.2668"/>
<text text-anchor="middle" x="73.383" y="-15.683" font-family="Times,serif" font-size="9.00" fill="#000000">E1</text>
</g>
<!-- 0&#45;&gt;E1 -->
<g id="edge15" class="edge">
<title>0&#45;&gt;E1</title>
<path fill="none" stroke="#ff0000" stroke-width=".3592" d="M282.9926,-80.162C253.496,-76.7571 167.1294,-64.9012 101.383,-36.7661 99.9797,-36.1655 98.5697,-35.4949 97.1692,-34.7748"/>
<polygon fill="#ff0000" stroke="#ff0000" stroke-width=".3592" points="98.6306,-31.5739 88.2358,-29.5247 95.0839,-37.6089 98.6306,-31.5739"/>
</g>
<!-- E5 -->
<g id="node9" class="node">
<title>E5</title>
<ellipse fill="#87cefa" stroke="#000000" cx="293.383" cy="-18.383" rx="18.2668" ry="18.2668"/>
<text text-anchor="middle" x="293.383" y="-15.683" font-family="Times,serif" font-size="9.00" fill="#000000">E5</text>
</g>
<!-- 0&#45;&gt;E5 -->
<g id="edge14" class="edge">
<title>0&#45;&gt;E5</title>
<path fill="none" stroke="#ff0000" stroke-width="1.0345" d="M293.383,-72.5225C293.383,-65.8532 293.383,-56.2664 293.383,-47.008"/>
<polygon fill="#ff0000" stroke="#ff0000" stroke-width="1.0345" points="296.8831,-46.8675 293.383,-36.8675 289.8831,-46.8676 296.8831,-46.8675"/>
</g>
<!-- E8 -->
<g id="node12" class="node">
<title>E8</title>
<ellipse fill="#87cefa" stroke="#000000" cx="458.383" cy="-18.383" rx="18.2668" ry="18.2668"/>
<text text-anchor="middle" x="458.383" y="-15.683" font-family="Times,serif" font-size="9.00" fill="#000000">E8</text>
</g>
<!-- 0&#45;&gt;E8 -->
<g id="edge11" class="edge">
<title>0&#45;&gt;E8</title>
<path fill="none" stroke="#ff0000" stroke-width="2.8646" d="M303.4765,-76.7365C306.6228,-75.3896 310.1227,-73.9569 313.383,-72.7661 364.487,-54.101 381.1529,-59.9263 430.383,-36.7661 431.7643,-36.1163 433.1567,-35.4065 434.5434,-34.6557"/>
<polygon fill="#ff0000" stroke="#ff0000" stroke-width="2.8646" points="436.6669,-37.463 443.4345,-29.3113 433.0605,-31.4635 436.6669,-37.463"/>
</g>
<!-- 2 -->
<g id="node3" class="node">
<title>2</title>
<polygon fill="#d3d3d3" stroke="#000000" points="397.389,-89.7661 377.3771,-89.7661 377.3771,-72.7661 397.389,-72.7661 397.389,-89.7661"/>
<text text-anchor="middle" x="387.383" y="-78.5661" font-family="Times,serif" font-size="9.00" fill="#000000">2</text>
</g>
<!-- 1&#45;&gt;2 -->
<!-- E0 -->
<g id="node4" class="node">
<title>E0</title>
<ellipse fill="#87cefa" stroke="#000000" cx="18.383" cy="-18.383" rx="18.2668" ry="18.2668"/>
<text text-anchor="middle" x="18.383" y="-15.683" font-family="Times,serif" font-size="9.00" fill="#000000">E0</text>
</g>
<!-- 1&#45;&gt;E0 -->
<g id="edge12" class="edge">
<title>1&#45;&gt;E0</title>
<path fill="none" stroke="#ff0000" stroke-width="2.5023" d="M321.9843,-76.2254C318.9481,-74.9252 315.5844,-73.6459 312.383,-72.7661 197.3479,-41.1525 158.1303,-78.5399 46.383,-36.7661 44.9532,-36.2316 43.5222,-35.6134 42.1053,-34.9343"/>
<polygon fill="#ff0000" stroke="#ff0000" stroke-width="2.5023" points="43.5417,-31.7244 33.1211,-29.8109 40.074,-37.8052 43.5417,-31.7244"/>
</g>
<!-- E7 -->
<g id="node11" class="node">
<title>E7</title>
<ellipse fill="#87cefa" stroke="#000000" cx="403.383" cy="-18.383" rx="18.2668" ry="18.2668"/>
<text text-anchor="middle" x="403.383" y="-15.683" font-family="Times,serif" font-size="9.00" fill="#000000">E7</text>
</g>
<!-- 2&#45;&gt;E7 -->
<g id="edge13" class="edge">
<title>2&#45;&gt;E7</title>
<path fill="none" stroke="#ff0000" stroke-width="1.8973" d="M389.6078,-72.5225C391.3482,-65.6824 393.8694,-55.7734 396.2806,-46.2972"/>
<polygon fill="#ff0000" stroke="#ff0000" stroke-width="1.8973" points="399.7375,-46.9045 398.8115,-36.3502 392.9536,-45.1783 399.7375,-46.9045"/>
</g>
<!-- E0&#45;&gt;E1 -->
<!-- E2 -->
<g id="node6" class="node">
<title>E2</title>
<ellipse fill="#87cefa" stroke="#000000" cx="128.383" cy="-18.383" rx="18.2668" ry="18.2668"/>
<text text-anchor="middle" x="128.383" y="-15.683" font-family="Times,serif" font-size="9.00" fill="#000000">E2</text>
</g>
<!-- E1&#45;&gt;E2 -->
<!-- E3 -->
<g id="node7" class="node">
<title>E3</title>
<ellipse fill="#87cefa" stroke="#000000" cx="183.383" cy="-18.383" rx="18.2668" ry="18.2668"/>
<text text-anchor="middle" x="183.383" y="-15.683" font-family="Times,serif" font-size="9.00" fill="#000000">E3</text>
</g>
<!-- E2&#45;&gt;E3 -->
<!-- E4 -->
<g id="node8" class="node">
<title>E4</title>
<ellipse fill="#87cefa" stroke="#000000" cx="238.383" cy="-18.383" rx="18.2668" ry="18.2668"/>
<text text-anchor="middle" x="238.383" y="-15.683" font-family="Times,serif" font-size="9.00" fill="#000000">E4</text>
</g>
<!-- E3&#45;&gt;E4 -->
<!-- E4&#45;&gt;E5 -->
<!-- E6 -->
<g id="node10" class="node">
<title>E6</title>
<ellipse fill="#87cefa" stroke="#000000" cx="348.383" cy="-18.383" rx="18.2668" ry="18.2668"/>
<text text-anchor="middle" x="348.383" y="-15.683" font-family="Times,serif" font-size="9.00" fill="#000000">E6</text>
</g>
<!-- E5&#45;&gt;E6 -->
<!-- E6&#45;&gt;E7 -->
<!-- E7&#45;&gt;E8 -->
</g>
</svg>
