<?xml version="1.0" encoding="UTF-8" standalone="no"?>
<!DOCTYPE svg PUBLIC "-//W3C//DTD SVG 1.1//EN"
 "http://www.w3.org/Graphics/SVG/1.1/DTD/svg11.dtd">
<!-- Generated by graphviz version 2.40.1 (20161225.0304)
 -->
<!-- Title: %3 Pages: 1 -->
<svg width="386pt" height="175pt"
 viewBox="0.00 0.00 386.00 174.79" xmlns="http://www.w3.org/2000/svg" xmlns:xlink="http://www.w3.org/1999/xlink">
<g id="graph0" class="graph" transform="scale(1 1) rotate(0) translate(4 170.7893)">
<title>%3</title>
<polygon fill="#ffffff" stroke="transparent" points="-4,4 -4,-170.7893 381.9976,-170.7893 381.9976,4 -4,4"/>
<!-- E0 -->
<g id="node1" class="node">
<title>E0</title>
<polygon fill="#d3d3d3" stroke="#000000" points="25.9963,-166.7893 .0012,-166.7893 .0012,-149.7893 25.9963,-149.7893 25.9963,-166.7893"/>
<text text-anchor="middle" x="12.9988" y="-155.5893" font-family="Times,serif" font-size="9.00" fill="#000000">E0</text>
</g>
<!-- E1 -->
<g id="node2" class="node">
<title>E1</title>
<polygon fill="#d3d3d3" stroke="#000000" points="69.9963,-166.7893 44.0012,-166.7893 44.0012,-149.7893 69.9963,-149.7893 69.9963,-166.7893"/>
<text text-anchor="middle" x="56.9988" y="-155.5893" font-family="Times,serif" font-size="9.00" fill="#000000">E1</text>
</g>
<!-- E0&#45;&gt;E1 -->
<!-- 1 -->
<g id="node11" class="node">
<title>1</title>
<ellipse fill="#87cefa" stroke="#000000" cx="101.9988" cy="-14.853" rx="14.4914" ry="14.4914"/>
<text text-anchor="middle" x="101.9988" y="-12.153" font-family="Times,serif" font-size="9.00" fill="#000000">1</text>
</g>
<!-- E0&#45;&gt;1 -->
<g id="edge17" class="edge">
<title>E0&#45;&gt;1</title>
<path fill="none" stroke="#00ff00" stroke-width=".4785" d="M18.2996,-149.7463C31.9917,-127.6796 68.8577,-68.2647 88.7845,-36.1497"/>
<polygon fill="#00ff00" stroke="#00ff00" stroke-width=".4785" points="91.8535,-37.842 94.1518,-27.4995 85.9054,-34.1513 91.8535,-37.842"/>
</g>
<!-- E2 -->
<g id="node3" class="node">
<title>E2</title>
<polygon fill="#d3d3d3" stroke="#000000" points="113.9963,-166.7893 88.0012,-166.7893 88.0012,-149.7893 113.9963,-149.7893 113.9963,-166.7893"/>
<text text-anchor="middle" x="100.9988" y="-155.5893" font-family="Times,serif" font-size="9.00" fill="#000000">E2</text>
</g>
<!-- E1&#45;&gt;E2 -->
<!-- E3 -->
<g id="node4" class="node">
<title>E3</title>
<polygon fill="#d3d3d3" stroke="#000000" points="157.9963,-166.7893 132.0012,-166.7893 132.0012,-149.7893 157.9963,-149.7893 157.9963,-166.7893"/>
<text text-anchor="middle" x="144.9988" y="-155.5893" font-family="Times,serif" font-size="9.00" fill="#000000">E3</text>
</g>
<!-- E2&#45;&gt;E3 -->
<!-- 2 -->
<g id="node12" class="node">
<title>2</title>
<ellipse fill="#87cefa" stroke="#000000" cx="148.9988" cy="-14.853" rx="14.4914" ry="14.4914"/>
<text text-anchor="middle" x="148.9988" y="-12.153" font-family="Times,serif" font-size="9.00" fill="#000000">2</text>
</g>
<!-- E2&#45;&gt;2 -->
<g id="edge13" class="edge">
<title>E2&#45;&gt;2</title>
<path fill="none" stroke="#00ff00" stroke-width="1.6794" d="M103.8577,-149.7463C111.0695,-128.1955 130.202,-71.0227 141.1034,-38.4463"/>
<polygon fill="#00ff00" stroke="#00ff00" stroke-width="1.6794" points="144.4737,-39.404 144.3281,-28.8102 137.8355,-37.1825 144.4737,-39.404"/>
</g>
<!-- E4 -->
<g id="node5" class="node">
<title>E4</title>
<polygon fill="#d3d3d3" stroke="#000000" points="201.9963,-166.7893 176.0012,-166.7893 176.0012,-149.7893 201.9963,-149.7893 201.9963,-166.7893"/>
<text text-anchor="middle" x="188.9988" y="-155.5893" font-family="Times,serif" font-size="9.00" fill="#000000">E4</text>
</g>
<!-- E3&#45;&gt;E4 -->
<!-- E3&#45;&gt;1 -->
<g id="edge12" class="edge">
<title>E3&#45;&gt;1</title>
<path fill="none" stroke="#ff0000" stroke-width="2.694" d="M142.4377,-149.7463C135.9771,-128.1955 118.8376,-71.0227 109.0717,-38.4463"/>
<polygon fill="#ff0000" stroke="#ff0000" stroke-width="2.694" points="112.4072,-37.3839 106.1829,-28.8102 105.702,-39.3941 112.4072,-37.3839"/>
</g>
<!-- E3&#45;&gt;2 -->
<g id="edge15" class="edge">
<title>E3&#45;&gt;2</title>
<path fill="none" stroke="#ff0000" stroke-width=".3294" d="M148.5985,-149.6127C152.0546,-140.7783 157.0315,-126.5976 158.9988,-113.7893 162.9088,-88.3322 158.8655,-58.946 154.8107,-38.8557"/>
<polygon fill="#ff0000" stroke="#ff0000" stroke-width=".3294" points="158.213,-38.03 152.6695,-29.0011 151.3727,-39.5163 158.213,-38.03"/>
</g>
<!-- E5 -->
<g id="node6" class="node">
<title>E5</title>
<polygon fill="#d3d3d3" stroke="#000000" points="245.9963,-166.7893 220.0012,-166.7893 220.0012,-149.7893 245.9963,-149.7893 245.9963,-166.7893"/>
<text text-anchor="middle" x="232.9988" y="-155.5893" font-family="Times,serif" font-size="9.00" fill="#000000">E5</text>
</g>
<!-- E4&#45;&gt;E5 -->
<!-- E6 -->
<g id="node7" class="node">
<title>E6</title>
<polygon fill="#d3d3d3" stroke="#000000" points="289.9963,-166.7893 264.0012,-166.7893 264.0012,-149.7893 289.9963,-149.7893 289.9963,-166.7893"/>
<text text-anchor="middle" x="276.9988" y="-155.5893" font-family="Times,serif" font-size="9.00" fill="#000000">E6</text>
</g>
<!-- E5&#45;&gt;E6 -->
<!-- E7 -->
<g id="node8" class="node">
<title>E7</title>
<polygon fill="#d3d3d3" stroke="#000000" points="333.9963,-166.7893 308.0012,-166.7893 308.0012,-149.7893 333.9963,-149.7893 333.9963,-166.7893"/>
<text text-anchor="middle" x="320.9988" y="-155.5893" font-family="Times,serif" font-size="9.00" fill="#000000">E7</text>
</g>
<!-- E6&#45;&gt;E7 -->
<!-- 0 -->
<g id="node10" class="node">
<title>0</title>
<ellipse fill="#87cefa" stroke="#000000" cx="54.9988" cy="-14.853" rx="14.4914" ry="14.4914"/>
<text text-anchor="middle" x="54.9988" y="-12.153" font-family="Times,serif" font-size="9.00" fill="#000000">0</text>
</g>
<!-- E6&#45;&gt;0 -->
<g id="edge14" class="edge">
<title>E6&#45;&gt;0</title>
<path fill="none" stroke="#ff0000" stroke-width="2.9598" d="M263.7765,-149.7463C226.5746,-125.7098 120.7878,-57.3599 75.7307,-28.2481"/>
<polygon fill="#ff0000" stroke="#ff0000" stroke-width="2.9598" points="77.6241,-25.3045 67.3253,-22.8173 73.8252,-31.184 77.6241,-25.3045"/>
</g>
<!-- E8 -->
<g id="node9" class="node">
<title>E8</title>
<polygon fill="#d3d3d3" stroke="#000000" points="377.9963,-166.7893 352.0012,-166.7893 352.0012,-149.7893 377.9963,-149.7893 377.9963,-166.7893"/>
<text text-anchor="middle" x="364.9988" y="-155.5893" font-family="Times,serif" font-size="9.00" fill="#000000">E8</text>
</g>
<!-- E7&#45;&gt;E8 -->
<!-- 4727 -->
<g id="node14" class="node">
<title>4727</title>
<ellipse fill="#add8e6" stroke="#000000" cx="318.9988" cy="-89.7477" rx="24.0833" ry="24.0833"/>
<text text-anchor="middle" x="318.9988" y="-91.5477" font-family="Times,serif" font-size="9.00" fill="#000000">4727</text>
<text text-anchor="middle" x="318.9988" y="-82.5477" font-family="Times,serif" font-size="9.00" fill="#000000">sigm</text>
</g>
<!-- E8&#45;&gt;4727 -->
<g id="edge16" class="edge">
<title>E8&#45;&gt;4727</title>
<path fill="none" stroke="#00ff00" stroke-width=".3865" d="M359.1728,-149.6085C353.8557,-141.6858 345.6935,-129.5238 338.1117,-118.2266"/>
<polygon fill="#00ff00" stroke="#00ff00" stroke-width=".3865" points="340.9625,-116.1936 332.4837,-109.8407 335.1501,-120.0945 340.9625,-116.1936"/>
</g>
<!-- 0&#45;&gt;1 -->
<!-- 1&#45;&gt;2 -->
<!-- S -->
<g id="node13" class="node">
<title>S</title>
<ellipse fill="#87cefa" stroke="#000000" cx="195.9988" cy="-14.853" rx="14.7075" ry="14.7075"/>
<text text-anchor="middle" x="195.9988" y="-12.153" font-family="Times,serif" font-size="9.00" fill="#000000">S</text>
</g>
<!-- 2&#45;&gt;S -->
<!-- 4727&#45;&gt;0 -->
<g id="edge18" class="edge">
<title>4727&#45;&gt;0</title>
<path fill="none" stroke="#ff0000" stroke-width=".3579" d="M295.0544,-86.2746C250.972,-79.3384 154.5697,-61.6269 78.9988,-29.7061 78.1299,-29.3391 77.2559,-28.9432 76.3826,-28.525"/>
<polygon fill="#ff0000" stroke="#ff0000" stroke-width=".3579" points="77.7493,-25.2803 67.3086,-23.4796 74.3476,-31.3982 77.7493,-25.2803"/>
</g>
</g>
</svg>
