<?xml version="1.0" encoding="UTF-8" standalone="no"?>
<!DOCTYPE svg PUBLIC "-//W3C//DTD SVG 1.1//EN"
 "http://www.w3.org/Graphics/SVG/1.1/DTD/svg11.dtd">
<!-- Generated by graphviz version 2.40.1 (20161225.0304)
 -->
<!-- Title: %3 Pages: 1 -->
<svg width="386pt" height="175pt"
 viewBox="0.00 0.00 386.00 174.79" xmlns="http://www.w3.org/2000/svg" xmlns:xlink="http://www.w3.org/1999/xlink">
<g id="graph0" class="graph" transform="scale(1 1) rotate(0) translate(4 170.7893)">
<title>%3</title>
<polygon fill="#ffffff" stroke="transparent" points="-4,4 -4,-170.7893 381.9976,-170.7893 381.9976,4 -4,4"/>
<!-- E0 -->
<g id="node1" class="node">
<title>E0</title>
<polygon fill="#d3d3d3" stroke="#000000" points="25.9963,-166.7893 .0012,-166.7893 .0012,-149.7893 25.9963,-149.7893 25.9963,-166.7893"/>
<text text-anchor="middle" x="12.9988" y="-155.5893" font-family="Times,serif" font-size="9.00" fill="#000000">E0</text>
</g>
<!-- E1 -->
<g id="node2" class="node">
<title>E1</title>
<polygon fill="#d3d3d3" stroke="#000000" points="69.9963,-166.7893 44.0012,-166.7893 44.0012,-149.7893 69.9963,-149.7893 69.9963,-166.7893"/>
<text text-anchor="middle" x="56.9988" y="-155.5893" font-family="Times,serif" font-size="9.00" fill="#000000">E1</text>
</g>
<!-- E0&#45;&gt;E1 -->
<!-- 4754 -->
<g id="node15" class="node">
<title>4754</title>
<ellipse fill="#add8e6" stroke="#000000" cx="202.9988" cy="-89.7477" rx="24.0833" ry="24.0833"/>
<text text-anchor="middle" x="202.9988" y="-91.5477" font-family="Times,serif" font-size="9.00" fill="#000000">4754</text>
<text text-anchor="middle" x="202.9988" y="-82.5477" font-family="Times,serif" font-size="9.00" fill="#000000">sigm</text>
</g>
<!-- E0&#45;&gt;4754 -->
<g id="edge14" class="edge">
<title>E0&#45;&gt;4754</title>
<path fill="none" stroke="#00ff00" stroke-width=".6909" d="M26.0071,-153.2004C28.958,-152.0636 32.082,-150.8738 34.9988,-149.7893 81.8305,-132.3769 136.3484,-113.0684 170.271,-101.1672"/>
<polygon fill="#00ff00" stroke="#00ff00" stroke-width=".6909" points="171.8257,-104.3312 180.1062,-97.7218 169.5113,-97.7248 171.8257,-104.3312"/>
</g>
<!-- E2 -->
<g id="node3" class="node">
<title>E2</title>
<polygon fill="#d3d3d3" stroke="#000000" points="113.9963,-166.7893 88.0012,-166.7893 88.0012,-149.7893 113.9963,-149.7893 113.9963,-166.7893"/>
<text text-anchor="middle" x="100.9988" y="-155.5893" font-family="Times,serif" font-size="9.00" fill="#000000">E2</text>
</g>
<!-- E1&#45;&gt;E2 -->
<!-- E3 -->
<g id="node4" class="node">
<title>E3</title>
<polygon fill="#d3d3d3" stroke="#000000" points="157.9963,-166.7893 132.0012,-166.7893 132.0012,-149.7893 157.9963,-149.7893 157.9963,-166.7893"/>
<text text-anchor="middle" x="144.9988" y="-155.5893" font-family="Times,serif" font-size="9.00" fill="#000000">E3</text>
</g>
<!-- E2&#45;&gt;E3 -->
<!-- E4 -->
<g id="node5" class="node">
<title>E4</title>
<polygon fill="#d3d3d3" stroke="#000000" points="201.9963,-166.7893 176.0012,-166.7893 176.0012,-149.7893 201.9963,-149.7893 201.9963,-166.7893"/>
<text text-anchor="middle" x="188.9988" y="-155.5893" font-family="Times,serif" font-size="9.00" fill="#000000">E4</text>
</g>
<!-- E3&#45;&gt;E4 -->
<!-- 5347 -->
<g id="node14" class="node">
<title>5347</title>
<ellipse fill="#add8e6" stroke="#000000" cx="268.9988" cy="-89.7477" rx="24.0833" ry="24.0833"/>
<text text-anchor="middle" x="268.9988" y="-91.5477" font-family="Times,serif" font-size="9.00" fill="#000000">5347</text>
<text text-anchor="middle" x="268.9988" y="-82.5477" font-family="Times,serif" font-size="9.00" fill="#000000">sigm</text>
</g>
<!-- E3&#45;&gt;5347 -->
<g id="edge17" class="edge">
<title>E3&#45;&gt;5347</title>
<path fill="none" stroke="#00ff00" stroke-width=".2584" d="M158.0307,-152.7807C176.0407,-144.9763 209.3356,-129.8526 235.9988,-113.7893 237.7292,-112.7469 239.4833,-111.6385 241.2344,-110.4919"/>
<polygon fill="#00ff00" stroke="#00ff00" stroke-width=".2584" points="243.5884,-113.1206 249.8412,-104.5676 239.6194,-107.3546 243.5884,-113.1206"/>
</g>
<!-- E5 -->
<g id="node6" class="node">
<title>E5</title>
<polygon fill="#d3d3d3" stroke="#000000" points="245.9963,-166.7893 220.0012,-166.7893 220.0012,-149.7893 245.9963,-149.7893 245.9963,-166.7893"/>
<text text-anchor="middle" x="232.9988" y="-155.5893" font-family="Times,serif" font-size="9.00" fill="#000000">E5</text>
</g>
<!-- E4&#45;&gt;E5 -->
<!-- E6 -->
<g id="node7" class="node">
<title>E6</title>
<polygon fill="#d3d3d3" stroke="#000000" points="289.9963,-166.7893 264.0012,-166.7893 264.0012,-149.7893 289.9963,-149.7893 289.9963,-166.7893"/>
<text text-anchor="middle" x="276.9988" y="-155.5893" font-family="Times,serif" font-size="9.00" fill="#000000">E6</text>
</g>
<!-- E5&#45;&gt;E6 -->
<!-- E7 -->
<g id="node8" class="node">
<title>E7</title>
<polygon fill="#d3d3d3" stroke="#000000" points="333.9963,-166.7893 308.0012,-166.7893 308.0012,-149.7893 333.9963,-149.7893 333.9963,-166.7893"/>
<text text-anchor="middle" x="320.9988" y="-155.5893" font-family="Times,serif" font-size="9.00" fill="#000000">E7</text>
</g>
<!-- E6&#45;&gt;E7 -->
<!-- E8 -->
<g id="node9" class="node">
<title>E8</title>
<polygon fill="#d3d3d3" stroke="#000000" points="377.9963,-166.7893 352.0012,-166.7893 352.0012,-149.7893 377.9963,-149.7893 377.9963,-166.7893"/>
<text text-anchor="middle" x="364.9988" y="-155.5893" font-family="Times,serif" font-size="9.00" fill="#000000">E8</text>
</g>
<!-- E7&#45;&gt;E8 -->
<!-- 0 -->
<g id="node10" class="node">
<title>0</title>
<ellipse fill="#87cefa" stroke="#000000" cx="164.9988" cy="-14.853" rx="14.4914" ry="14.4914"/>
<text text-anchor="middle" x="164.9988" y="-12.153" font-family="Times,serif" font-size="9.00" fill="#000000">0</text>
</g>
<!-- E7&#45;&gt;0 -->
<g id="edge16" class="edge">
<title>E7&#45;&gt;0</title>
<path fill="none" stroke="#ff0000" stroke-width=".1055" d="M307.5771,-152.8673C304.7612,-151.7965 301.7968,-150.7179 298.9988,-149.7893 242.5043,-131.0413 207.1753,-160.2761 169.9988,-113.7893 153.2908,-92.8971 155.0406,-60.8676 158.9864,-38.9481"/>
<polygon fill="#ff0000" stroke="#ff0000" stroke-width=".1055" points="162.4266,-39.595 161.0286,-29.0928 155.5723,-38.1746 162.4266,-39.595"/>
</g>
<!-- 2 -->
<g id="node12" class="node">
<title>2</title>
<ellipse fill="#87cefa" stroke="#000000" cx="268.9988" cy="-14.853" rx="14.4914" ry="14.4914"/>
<text text-anchor="middle" x="268.9988" y="-12.153" font-family="Times,serif" font-size="9.00" fill="#000000">2</text>
</g>
<!-- E7&#45;&gt;2 -->
<g id="edge13" class="edge">
<title>E7&#45;&gt;2</title>
<path fill="none" stroke="#ff0000" stroke-width="2.0593" d="M320.2953,-149.5517C318.7096,-132.7502 314.0099,-95.0082 301.9988,-65.7061 297.508,-54.7505 290.5913,-43.6032 284.2481,-34.5483"/>
<polygon fill="#ff0000" stroke="#ff0000" stroke-width="2.0593" points="286.931,-32.2875 278.207,-26.2756 281.2778,-36.4157 286.931,-32.2875"/>
</g>
<!-- E8&#45;&gt;0 -->
<g id="edge12" class="edge">
<title>E8&#45;&gt;0</title>
<path fill="none" stroke="#ff0000" stroke-width=".8512" d="M361.5143,-149.7299C353.6677,-131.5188 332.8556,-88.7215 301.9988,-65.7061 259.7479,-34.192 236.8811,-51.7414 188.9988,-29.7061 188.1419,-29.3117 187.2782,-28.8927 186.4135,-28.455"/>
<polygon fill="#ff0000" stroke="#ff0000" stroke-width=".8512" points="187.8028,-25.2187 177.3797,-23.3184 184.3427,-31.3038 187.8028,-25.2187"/>
</g>
<!-- 1 -->
<g id="node11" class="node">
<title>1</title>
<ellipse fill="#87cefa" stroke="#000000" cx="211.9988" cy="-14.853" rx="14.4914" ry="14.4914"/>
<text text-anchor="middle" x="211.9988" y="-12.153" font-family="Times,serif" font-size="9.00" fill="#000000">1</text>
</g>
<!-- 0&#45;&gt;1 -->
<!-- 1&#45;&gt;2 -->
<!-- S -->
<g id="node13" class="node">
<title>S</title>
<ellipse fill="#87cefa" stroke="#000000" cx="315.9988" cy="-14.853" rx="14.7075" ry="14.7075"/>
<text text-anchor="middle" x="315.9988" y="-12.153" font-family="Times,serif" font-size="9.00" fill="#000000">S</text>
</g>
<!-- 2&#45;&gt;S -->
<!-- 5347&#45;&gt;2 -->
<g id="edge18" class="edge">
<title>5347&#45;&gt;2</title>
<path fill="none" stroke="#00ff00" stroke-width=".1093" d="M268.9988,-65.6383C268.9988,-57.432 268.9988,-48.2428 268.9988,-39.9602"/>
<polygon fill="#00ff00" stroke="#00ff00" stroke-width=".1093" points="272.4989,-39.7533 268.9988,-29.7534 265.4989,-39.7534 272.4989,-39.7533"/>
</g>
<!-- 4754&#45;&gt;1 -->
<g id="edge15" class="edge">
<title>4754&#45;&gt;1</title>
<path fill="none" stroke="#ff0000" stroke-width=".6958" d="M205.896,-65.6383C206.9076,-57.2196 208.0436,-47.7662 209.0588,-39.3188"/>
<polygon fill="#ff0000" stroke="#ff0000" stroke-width=".6958" points="212.5433,-39.6563 210.2615,-29.3101 205.5933,-38.8211 212.5433,-39.6563"/>
</g>
</g>
</svg>
