<?xml version="1.0" encoding="UTF-8" standalone="no"?>
<!DOCTYPE svg PUBLIC "-//W3C//DTD SVG 1.1//EN"
 "http://www.w3.org/Graphics/SVG/1.1/DTD/svg11.dtd">
<!-- Generated by graphviz version 2.40.1 (20161225.0304)
 -->
<!-- Title: %3 Pages: 1 -->
<svg width="386pt" height="91pt"
 viewBox="0.00 0.00 386.00 90.71" xmlns="http://www.w3.org/2000/svg" xmlns:xlink="http://www.w3.org/1999/xlink">
<g id="graph0" class="graph" transform="scale(1 1) rotate(0) translate(4 86.7061)">
<title>%3</title>
<polygon fill="#ffffff" stroke="transparent" points="-4,4 -4,-86.7061 381.9976,-86.7061 381.9976,4 -4,4"/>
<!-- E0 -->
<g id="node1" class="node">
<title>E0</title>
<polygon fill="#d3d3d3" stroke="#000000" points="25.9963,-82.7061 .0012,-82.7061 .0012,-65.7061 25.9963,-65.7061 25.9963,-82.7061"/>
<text text-anchor="middle" x="12.9988" y="-71.5061" font-family="Times,serif" font-size="9.00" fill="#000000">E0</text>
</g>
<!-- E1 -->
<g id="node2" class="node">
<title>E1</title>
<polygon fill="#d3d3d3" stroke="#000000" points="69.9963,-82.7061 44.0012,-82.7061 44.0012,-65.7061 69.9963,-65.7061 69.9963,-82.7061"/>
<text text-anchor="middle" x="56.9988" y="-71.5061" font-family="Times,serif" font-size="9.00" fill="#000000">E1</text>
</g>
<!-- E0&#45;&gt;E1 -->
<!-- 1 -->
<g id="node11" class="node">
<title>1</title>
<ellipse fill="#add8e6" stroke="#000000" cx="141.9988" cy="-14.853" rx="14.4914" ry="14.4914"/>
<text text-anchor="middle" x="141.9988" y="-12.153" font-family="Times,serif" font-size="9.00" fill="#000000">1</text>
</g>
<!-- E0&#45;&gt;1 -->
<g id="edge19" class="edge">
<title>E0&#45;&gt;1</title>
<path fill="none" stroke="#00ff00" stroke-width=".358" d="M26.2399,-68.8908C50.496,-59.1049 101.1182,-38.4412 117.9988,-29.7061 118.8365,-29.2726 119.684,-28.8203 120.535,-28.3545"/>
<polygon fill="#00ff00" stroke="#00ff00" stroke-width=".358" points="122.6541,-31.169 129.5048,-23.087 119.1093,-25.1328 122.6541,-31.169"/>
</g>
<!-- E2 -->
<g id="node3" class="node">
<title>E2</title>
<polygon fill="#d3d3d3" stroke="#000000" points="113.9963,-82.7061 88.0012,-82.7061 88.0012,-65.7061 113.9963,-65.7061 113.9963,-82.7061"/>
<text text-anchor="middle" x="100.9988" y="-71.5061" font-family="Times,serif" font-size="9.00" fill="#000000">E2</text>
</g>
<!-- E1&#45;&gt;E2 -->
<!-- E1&#45;&gt;1 -->
<g id="edge18" class="edge">
<title>E1&#45;&gt;1</title>
<path fill="none" stroke="#00ff00" stroke-width=".2464" d="M69.1772,-65.7022C82.8109,-56.1822 105.1312,-40.5966 121.4726,-29.1859"/>
<polygon fill="#00ff00" stroke="#00ff00" stroke-width=".2464" points="123.6478,-31.9359 129.8429,-23.3411 119.6402,-26.1966 123.6478,-31.9359"/>
</g>
<!-- S -->
<g id="node13" class="node">
<title>S</title>
<ellipse fill="#add8e6" stroke="#000000" cx="235.9988" cy="-14.853" rx="14.7075" ry="14.7075"/>
<text text-anchor="middle" x="235.9988" y="-12.153" font-family="Times,serif" font-size="9.00" fill="#000000">S</text>
</g>
<!-- E1&#45;&gt;S -->
<g id="edge12" class="edge">
<title>E1&#45;&gt;S</title>
<path fill="none" stroke="#ff0000" stroke-width=".6355" d="M70.4149,-68.7671C73.2311,-67.6975 76.1971,-66.6237 78.9988,-65.7061 137.195,-46.645 155.8179,-54.0748 211.9988,-29.7061 212.8641,-29.3307 213.7351,-28.9278 214.6058,-28.5037"/>
<polygon fill="#ff0000" stroke="#ff0000" stroke-width=".6355" points="216.6519,-31.3694 223.6679,-23.4305 213.2325,-25.2614 216.6519,-31.3694"/>
</g>
<!-- E3 -->
<g id="node4" class="node">
<title>E3</title>
<polygon fill="#d3d3d3" stroke="#000000" points="157.9963,-82.7061 132.0012,-82.7061 132.0012,-65.7061 157.9963,-65.7061 157.9963,-82.7061"/>
<text text-anchor="middle" x="144.9988" y="-71.5061" font-family="Times,serif" font-size="9.00" fill="#000000">E3</text>
</g>
<!-- E2&#45;&gt;E3 -->
<!-- E2&#45;&gt;S -->
<g id="edge16" class="edge">
<title>E2&#45;&gt;S</title>
<path fill="none" stroke="#00ff00" stroke-width=".9619" d="M114.0975,-69.102C141.4413,-58.4258 202.8255,-34.3396 211.9988,-29.7061 212.8407,-29.2808 213.6918,-28.8355 214.5457,-28.3756"/>
<polygon fill="#00ff00" stroke="#00ff00" stroke-width=".9619" points="216.655,-31.1972 223.5296,-23.1356 213.1282,-25.1506 216.655,-31.1972"/>
</g>
<!-- E4 -->
<g id="node5" class="node">
<title>E4</title>
<polygon fill="#d3d3d3" stroke="#000000" points="201.9963,-82.7061 176.0012,-82.7061 176.0012,-65.7061 201.9963,-65.7061 201.9963,-82.7061"/>
<text text-anchor="middle" x="188.9988" y="-71.5061" font-family="Times,serif" font-size="9.00" fill="#000000">E4</text>
</g>
<!-- E3&#45;&gt;E4 -->
<!-- E5 -->
<g id="node6" class="node">
<title>E5</title>
<polygon fill="#d3d3d3" stroke="#000000" points="245.9963,-82.7061 220.0012,-82.7061 220.0012,-65.7061 245.9963,-65.7061 245.9963,-82.7061"/>
<text text-anchor="middle" x="232.9988" y="-71.5061" font-family="Times,serif" font-size="9.00" fill="#000000">E5</text>
</g>
<!-- E4&#45;&gt;E5 -->
<!-- E6 -->
<g id="node7" class="node">
<title>E6</title>
<polygon fill="#d3d3d3" stroke="#000000" points="289.9963,-82.7061 264.0012,-82.7061 264.0012,-65.7061 289.9963,-65.7061 289.9963,-82.7061"/>
<text text-anchor="middle" x="276.9988" y="-71.5061" font-family="Times,serif" font-size="9.00" fill="#000000">E6</text>
</g>
<!-- E5&#45;&gt;E6 -->
<!-- 0 -->
<g id="node10" class="node">
<title>0</title>
<ellipse fill="#add8e6" stroke="#000000" cx="94.9988" cy="-14.853" rx="14.4914" ry="14.4914"/>
<text text-anchor="middle" x="94.9988" y="-12.153" font-family="Times,serif" font-size="9.00" fill="#000000">0</text>
</g>
<!-- E5&#45;&gt;0 -->
<g id="edge14" class="edge">
<title>E5&#45;&gt;0</title>
<path fill="none" stroke="#ff0000" stroke-width="2.2469" d="M219.8045,-69.0917C190.3024,-57.6514 121.3866,-30.8986 118.9988,-29.7061 118.1549,-29.2846 117.3022,-28.8426 116.4469,-28.3854"/>
<polygon fill="#ff0000" stroke="#ff0000" stroke-width="2.2469" points="117.8608,-25.1589 107.4565,-23.1583 114.3423,-31.2104 117.8608,-25.1589"/>
</g>
<!-- E7 -->
<g id="node8" class="node">
<title>E7</title>
<polygon fill="#d3d3d3" stroke="#000000" points="333.9963,-82.7061 308.0012,-82.7061 308.0012,-65.7061 333.9963,-65.7061 333.9963,-82.7061"/>
<text text-anchor="middle" x="320.9988" y="-71.5061" font-family="Times,serif" font-size="9.00" fill="#000000">E7</text>
</g>
<!-- E6&#45;&gt;E7 -->
<!-- E8 -->
<g id="node9" class="node">
<title>E8</title>
<polygon fill="#d3d3d3" stroke="#000000" points="377.9963,-82.7061 352.0012,-82.7061 352.0012,-65.7061 377.9963,-65.7061 377.9963,-82.7061"/>
<text text-anchor="middle" x="364.9988" y="-71.5061" font-family="Times,serif" font-size="9.00" fill="#000000">E8</text>
</g>
<!-- E7&#45;&gt;E8 -->
<!-- E7&#45;&gt;S -->
<g id="edge15" class="edge">
<title>E7&#45;&gt;S</title>
<path fill="none" stroke="#ff0000" stroke-width=".9858" d="M308.8204,-65.7022C295.2641,-56.2363 273.1197,-40.7735 256.8041,-29.3808"/>
<polygon fill="#ff0000" stroke="#ff0000" stroke-width=".9858" points="258.6338,-26.3896 248.431,-23.5341 254.6262,-32.1289 258.6338,-26.3896"/>
</g>
<!-- E8&#45;&gt;0 -->
<g id="edge17" class="edge">
<title>E8&#45;&gt;0</title>
<path fill="none" stroke="#00ff00" stroke-width=".3202" d="M351.6513,-68.5373C348.8301,-67.4844 345.8447,-66.4754 342.9988,-65.7061 245.6598,-39.392 213.4825,-64.9218 118.9988,-29.7061 117.9427,-29.3125 116.8827,-28.8697 115.828,-28.3898"/>
<polygon fill="#00ff00" stroke="#00ff00" stroke-width=".3202" points="117.177,-25.1376 106.727,-23.3916 113.8073,-31.2732 117.177,-25.1376"/>
</g>
<!-- 2 -->
<g id="node12" class="node">
<title>2</title>
<ellipse fill="#add8e6" stroke="#000000" cx="188.9988" cy="-14.853" rx="14.4914" ry="14.4914"/>
<text text-anchor="middle" x="188.9988" y="-12.153" font-family="Times,serif" font-size="9.00" fill="#000000">2</text>
</g>
<!-- E8&#45;&gt;2 -->
<g id="edge13" class="edge">
<title>E8&#45;&gt;2</title>
<path fill="none" stroke="#ff0000" stroke-width="1.8481" d="M351.5799,-68.7755C348.7639,-67.7053 345.7987,-66.6291 342.9988,-65.7061 285.6538,-46.8016 267.1121,-54.3709 211.9988,-29.7061 211.1636,-29.3323 210.324,-28.9308 209.4853,-28.5077"/>
<polygon fill="#ff0000" stroke="#ff0000" stroke-width="1.8481" points="211.1841,-25.4469 200.7811,-23.4398 207.6619,-31.4962 211.1841,-25.4469"/>
</g>
<!-- 0&#45;&gt;1 -->
<!-- 1&#45;&gt;2 -->
<!-- 2&#45;&gt;S -->
</g>
</svg>
