<?xml version="1.0" encoding="utf-8" standalone="no"?>
<!DOCTYPE svg PUBLIC "-//W3C//DTD SVG 1.1//EN"
  "http://www.w3.org/Graphics/SVG/1.1/DTD/svg11.dtd">
<!-- Created with matplotlib (https://matplotlib.org/) -->
<svg height="345.6pt" version="1.1" viewBox="0 0 460.8 345.6" width="460.8pt" xmlns="http://www.w3.org/2000/svg" xmlns:xlink="http://www.w3.org/1999/xlink">
 <defs>
  <style type="text/css">
*{stroke-linecap:butt;stroke-linejoin:round;}
  </style>
 </defs>
 <g id="figure_1">
  <g id="patch_1">
   <path d="M 0 345.6 
L 460.8 345.6 
L 460.8 0 
L 0 0 
z
" style="fill:#ffffff;"/>
  </g>
  <g id="axes_1">
   <g id="patch_2">
    <path d="M 57.6 307.584 
L 414.72 307.584 
L 414.72 41.472 
L 57.6 41.472 
z
" style="fill:#ffffff;"/>
   </g>
   <g id="PolyCollection_1">
    <path clip-path="url(#pce8a2ee528)" d="M 73.832727 136.388961 
L 73.832727 150.203415 
L 74.918528 152.069801 
L 76.00433 145.594526 
L 77.090131 141.652063 
L 78.175932 141.692327 
L 79.261733 141.652063 
L 80.347534 141.652063 
L 81.433335 141.652063 
L 82.519137 147.772233 
L 83.604938 148.810956 
L 84.690739 151.993996 
L 85.77654 145.012063 
L 86.862341 150.275916 
L 87.948142 143.972539 
L 89.033943 141.652063 
L 90.119745 153.548563 
L 91.205546 170.887127 
L 92.291347 169.492689 
L 93.377148 163.959469 
L 94.462949 169.891054 
L 95.54875 177.083665 
L 96.634552 190.914157 
L 97.720353 165.245039 
L 98.806154 158.656133 
L 99.891955 159.031023 
L 100.977756 174.627991 
L 102.063557 171.419884 
L 103.149358 190.691195 
L 104.23516 177.314305 
L 105.320961 157.915346 
L 106.406762 150.953488 
L 107.492563 154.012334 
L 108.578364 149.263476 
L 109.664165 147.141752 
L 110.749967 146.637072 
L 111.835768 149.679149 
L 112.921569 162.818145 
L 114.00737 152.883369 
L 115.093171 154.600954 
L 116.178972 156.670669 
L 117.264773 151.592137 
L 118.350575 158.590247 
L 119.436376 152.676418 
L 120.522177 153.615564 
L 121.607978 163.492157 
L 122.693779 150.107958 
L 123.77958 150.920909 
L 124.865382 150.223386 
L 125.951183 152.91865 
L 127.036984 154.191851 
L 128.122785 158.955343 
L 129.208586 162.626012 
L 130.294387 153.978962 
L 131.380189 154.776498 
L 132.46599 152.046165 
L 133.551791 158.971232 
L 134.637592 150.916173 
L 135.723393 154.800735 
L 136.809194 158.832105 
L 137.894995 151.46404 
L 138.980797 155.114083 
L 140.066598 156.175376 
L 141.152399 154.468814 
L 142.2382 152.86626 
L 143.324001 155.671575 
L 144.409802 149.06251 
L 145.495604 149.569163 
L 146.581405 154.131712 
L 147.667206 146.783548 
L 148.753007 150.69204 
L 149.838808 145.842337 
L 150.924609 143.480591 
L 152.01041 152.558089 
L 153.096212 143.113109 
L 154.182013 151.413493 
L 155.267814 152.371976 
L 156.353615 146.068743 
L 157.439416 143.250694 
L 158.525217 143.906863 
L 159.611019 152.657632 
L 160.69682 153.462917 
L 161.782621 153.860629 
L 162.868422 141.81312 
L 163.954223 141.652063 
L 165.040024 153.409232 
L 166.125825 147.405563 
L 167.211627 143.393023 
L 168.297428 144.282663 
L 169.383229 142.926653 
L 170.46903 150.799799 
L 171.554831 151.236883 
L 172.640632 153.048767 
L 173.726434 151.755062 
L 174.812235 149.444821 
L 175.898036 155.492635 
L 176.983837 159.892174 
L 178.069638 157.439457 
L 179.155439 158.09836 
L 180.24124 160.606311 
L 181.327042 154.236008 
L 182.412843 148.181252 
L 183.498644 152.21338 
L 184.584445 149.496604 
L 185.670246 153.607952 
L 186.756047 144.308877 
L 187.841849 147.885772 
L 188.92765 142.215763 
L 190.013451 142.625386 
L 191.099252 145.076816 
L 192.185053 142.135235 
L 193.270854 146.314982 
L 194.356656 142.09497 
L 195.442457 148.148033 
L 196.528258 148.892761 
L 197.614059 141.652063 
L 198.69986 144.031805 
L 199.785661 142.135235 
L 200.871462 146.738663 
L 201.957264 144.197148 
L 203.043065 142.492525 
L 204.128866 143.343163 
L 205.214667 147.181788 
L 206.300468 141.608142 
L 207.386269 143.088474 
L 208.472071 142.64736 
L 209.557872 144.165473 
L 210.643673 143.645159 
L 211.729474 145.018716 
L 212.815275 141.652063 
L 213.901076 144.155658 
L 214.986877 142.457349 
L 216.072679 142.618406 
L 217.15848 141.652063 
L 218.244281 141.652063 
L 219.330082 141.652063 
L 220.415883 143.155263 
L 221.501684 145.302691 
L 222.587486 141.652063 
L 223.673287 141.652063 
L 224.759088 141.652063 
L 225.844889 141.652063 
L 226.93069 141.652063 
L 228.016491 145.114791 
L 229.102292 152.20999 
L 230.188094 147.819433 
L 231.273895 142.8383 
L 232.359696 141.652063 
L 233.445497 141.652063 
L 234.531298 148.094347 
L 235.617099 141.652063 
L 236.702901 141.652063 
L 237.788702 141.652063 
L 238.874503 141.652063 
L 239.960304 147.949667 
L 241.046105 145.785862 
L 242.131906 141.652063 
L 243.217708 157.859328 
L 244.303509 144.901233 
L 245.38931 150.756467 
L 246.475111 141.964252 
L 247.560912 148.944028 
L 248.646713 145.030874 
L 249.732514 144.897278 
L 250.818316 143.334791 
L 251.904117 147.253572 
L 252.989918 143.314364 
L 254.075719 152.420364 
L 255.16152 146.040869 
L 256.247321 152.018304 
L 257.333123 152.949229 
L 258.418924 148.106566 
L 259.504725 148.975129 
L 260.590526 147.614096 
L 261.676327 149.386546 
L 262.762128 145.570994 
L 263.847929 161.204329 
L 264.933731 170.385431 
L 266.019532 158.50784 
L 267.105333 158.230356 
L 268.191134 161.506063 
L 269.276935 161.669378 
L 270.362736 149.46856 
L 271.448538 150.138339 
L 272.534339 150.163838 
L 273.62014 150.158955 
L 274.705941 160.5239 
L 275.791742 155.973323 
L 276.877543 143.614413 
L 277.963344 143.079073 
L 279.049146 148.550057 
L 280.134947 143.971663 
L 281.220748 143.070007 
L 282.306549 146.131325 
L 283.39235 148.718492 
L 284.478151 142.665506 
L 285.563953 141.705749 
L 286.649754 145.158955 
L 287.735555 145.779179 
L 288.821356 143.077608 
L 289.907157 146.654358 
L 290.992958 148.69807 
L 292.07876 147.48823 
L 293.164561 149.314068 
L 294.250362 149.445751 
L 295.336163 151.610241 
L 296.421964 148.927021 
L 297.507765 151.329978 
L 298.593566 156.121146 
L 299.679368 151.569772 
L 300.765169 155.905094 
L 301.85097 152.16518 
L 302.936771 156.021978 
L 304.022572 153.856256 
L 305.108373 156.05151 
L 306.194175 154.753134 
L 307.279976 151.927148 
L 308.365777 153.929399 
L 309.451578 145.387855 
L 310.537379 147.33893 
L 311.62318 141.652063 
L 312.708981 158.532546 
L 313.794783 155.463804 
L 314.880584 151.002789 
L 315.966385 159.855965 
L 317.052186 156.764031 
L 318.137987 153.634205 
L 319.223788 161.421062 
L 320.30959 146.449717 
L 321.395391 146.898301 
L 322.481192 146.15718 
L 323.566993 148.320448 
L 324.652794 148.579095 
L 325.738595 152.754702 
L 326.824396 149.677332 
L 327.910198 151.128982 
L 328.995999 149.135607 
L 330.0818 151.725739 
L 331.167601 151.93549 
L 332.253402 150.977547 
L 333.339203 151.890556 
L 334.425005 157.387738 
L 335.510806 155.929838 
L 336.596607 155.962292 
L 337.682408 154.598222 
L 338.768209 165.345291 
L 339.85401 155.762563 
L 340.939811 154.232024 
L 342.025613 152.5677 
L 343.111414 144.705931 
L 344.197215 143.703692 
L 345.283016 149.405265 
L 346.368817 144.44983 
L 347.454618 146.911483 
L 348.54042 148.595577 
L 349.626221 146.551536 
L 350.712022 154.851102 
L 351.797823 145.873718 
L 352.883624 150.770215 
L 353.969425 167.093001 
L 355.055227 164.9469 
L 356.141028 149.614576 
L 357.226829 156.452708 
L 358.31263 158.32373 
L 359.398431 146.107975 
L 360.484232 153.916503 
L 361.570033 144.533296 
L 362.655835 144.446612 
L 363.741636 143.847714 
L 364.827437 145.220905 
L 365.913238 144.903687 
L 366.999039 146.767545 
L 368.08484 148.537662 
L 369.170642 150.439718 
L 370.256443 143.638537 
L 371.342244 143.756442 
L 372.428045 144.770443 
L 373.513846 147.364424 
L 374.599647 149.644784 
L 375.685448 151.914934 
L 376.77125 144.591967 
L 377.857051 159.598415 
L 378.942852 150.846086 
L 380.028653 156.696382 
L 381.114454 154.806762 
L 382.200255 151.70423 
L 383.286057 161.324411 
L 384.371858 156.642547 
L 385.457659 149.589601 
L 386.54346 147.566532 
L 387.629261 151.928803 
L 388.715062 158.321575 
L 389.800863 153.338624 
L 390.886665 149.680065 
L 391.972466 159.685085 
L 393.058267 148.611083 
L 394.144068 143.600592 
L 395.229869 145.189924 
L 396.31567 142.223753 
L 397.401472 145.277097 
L 398.487273 146.839351 
L 398.487273 138.793788 
L 398.487273 138.793788 
L 397.401472 139.073901 
L 396.31567 140.790892 
L 395.229869 140.021486 
L 394.144068 139.046158 
L 393.058267 136.384143 
L 391.972466 131.219951 
L 390.886665 134.856641 
L 389.800863 128.126767 
L 388.715062 131.706686 
L 387.629261 133.607663 
L 386.54346 135.603381 
L 385.457659 127.414673 
L 384.371858 126.498729 
L 383.286057 119.120952 
L 382.200255 128.096905 
L 381.114454 124.954109 
L 380.028653 127.037231 
L 378.942852 125.487117 
L 377.857051 128.416632 
L 376.77125 136.529973 
L 375.685448 135.795216 
L 374.599647 133.835584 
L 373.513846 135.254936 
L 372.428045 136.168323 
L 371.342244 140.604332 
L 370.256443 141.183972 
L 369.170642 130.643138 
L 368.08484 136.042815 
L 366.999039 137.666108 
L 365.913238 138.258062 
L 364.827437 138.241121 
L 363.741636 139.649134 
L 362.655835 141.013077 
L 361.570033 136.11366 
L 360.484232 137.834163 
L 359.398431 133.14261 
L 358.31263 132.295074 
L 357.226829 131.576308 
L 356.141028 137.794928 
L 355.055227 133.83134 
L 353.969425 129.323858 
L 352.883624 138.012045 
L 351.797823 134.558223 
L 350.712022 136.718496 
L 349.626221 137.204401 
L 348.54042 136.831326 
L 347.454618 137.142664 
L 346.368817 138.946404 
L 345.283016 134.095478 
L 344.197215 140.560988 
L 343.111414 137.875143 
L 342.025613 137.769253 
L 340.939811 134.386987 
L 339.85401 126.391156 
L 338.768209 127.326443 
L 337.682408 136.334204 
L 336.596607 133.348254 
L 335.510806 123.11504 
L 334.425005 119.635161 
L 333.339203 127.870314 
L 332.253402 128.004881 
L 331.167601 124.376074 
L 330.0818 132.182351 
L 328.995999 132.866641 
L 327.910198 137.288707 
L 326.824396 137.800857 
L 325.738595 137.394351 
L 324.652794 137.970825 
L 323.566993 138.311644 
L 322.481192 138.686463 
L 321.395391 138.905895 
L 320.30959 139.459745 
L 319.223788 127.541116 
L 318.137987 133.275285 
L 317.052186 127.345381 
L 315.966385 125.233211 
L 314.880584 133.92533 
L 313.794783 129.128779 
L 312.708981 129.126964 
L 311.62318 141.652063 
L 310.537379 135.938879 
L 309.451578 136.990193 
L 308.365777 133.427998 
L 307.279976 123.310702 
L 306.194175 110.834711 
L 305.108373 119.32302 
L 304.022572 127.206493 
L 302.936771 125.094456 
L 301.85097 134.028661 
L 300.765169 131.116768 
L 299.679368 129.197705 
L 298.593566 129.250975 
L 297.507765 131.584927 
L 296.421964 128.793792 
L 295.336163 135.282062 
L 294.250362 135.334732 
L 293.164561 129.108344 
L 292.07876 133.473726 
L 290.992958 135.988463 
L 289.907157 130.768027 
L 288.821356 139.501761 
L 287.735555 134.142749 
L 286.649754 136.542817 
L 285.563953 141.611799 
L 284.478151 140.866785 
L 283.39235 136.557762 
L 282.306549 136.958058 
L 281.220748 140.694659 
L 280.134947 138.687708 
L 279.049146 135.451984 
L 277.963344 140.708225 
L 276.877543 139.073424 
L 275.791742 131.934352 
L 274.705941 131.326114 
L 273.62014 136.658427 
L 272.534339 138.350959 
L 271.448538 136.950629 
L 270.362736 137.993577 
L 269.276935 133.781139 
L 268.191134 131.703076 
L 267.105333 133.08554 
L 266.019532 131.493578 
L 264.933731 129.970061 
L 263.847929 129.863171 
L 262.762128 135.434215 
L 261.676327 135.578648 
L 260.590526 134.965273 
L 259.504725 132.211951 
L 258.418924 133.020003 
L 257.333123 133.589461 
L 256.247321 133.962637 
L 255.16152 135.800322 
L 254.075719 136.354978 
L 252.989918 141.878058 
L 251.904117 135.553961 
L 250.818316 140.7612 
L 249.732514 139.051603 
L 248.646713 137.11715 
L 247.560912 135.037814 
L 246.475111 140.037597 
L 245.38931 136.683649 
L 244.303509 139.495029 
L 243.217708 132.504469 
L 242.131906 141.652063 
L 241.046105 138.551714 
L 239.960304 136.943118 
L 238.874503 141.652063 
L 237.788702 141.652063 
L 236.702901 141.652063 
L 235.617099 141.652063 
L 234.531298 136.82035 
L 233.445497 141.652063 
L 232.359696 141.652063 
L 231.273895 142.8383 
L 230.188094 133.478124 
L 229.102292 133.040243 
L 228.016491 137.035093 
L 226.93069 141.652063 
L 225.844889 141.652063 
L 224.759088 141.652063 
L 223.673287 141.652063 
L 222.587486 141.652063 
L 221.501684 138.914092 
L 220.415883 140.524664 
L 219.330082 141.652063 
L 218.244281 141.652063 
L 217.15848 141.652063 
L 216.072679 140.927306 
L 214.986877 140.578349 
L 213.901076 139.551111 
L 212.815275 141.652063 
L 211.729474 139.426232 
L 210.643673 140.423989 
L 209.557872 137.690203 
L 208.472071 140.938617 
L 207.386269 140.255917 
L 206.300468 139.968474 
L 205.214667 136.108917 
L 204.128866 139.397264 
L 203.043065 140.408959 
L 201.957264 138.529857 
L 200.871462 137.773392 
L 199.785661 141.007835 
L 198.69986 140.077607 
L 197.614059 141.652063 
L 196.528258 134.452451 
L 195.442457 136.780086 
L 194.356656 141.061521 
L 193.270854 135.217516 
L 192.185053 140.954149 
L 191.099252 136.576475 
L 190.013451 139.779505 
L 188.92765 140.900463 
L 187.841849 135.029133 
L 186.756047 137.143093 
L 185.670246 128.676146 
L 184.584445 135.928108 
L 183.498644 132.526839 
L 182.412843 135.404725 
L 181.327042 130.208939 
L 180.24124 119.570623 
L 179.155439 127.312931 
L 178.069638 127.220234 
L 176.983837 126.955209 
L 175.898036 130.24077 
L 174.812235 135.966469 
L 173.726434 137.172642 
L 172.640632 135.731301 
L 171.554831 136.805006 
L 170.46903 135.349669 
L 169.383229 139.692981 
L 168.297428 139.679114 
L 167.211627 139.535303 
L 166.125825 132.677422 
L 165.040024 132.834187 
L 163.954223 141.652063 
L 162.868422 141.43732 
L 161.782621 119.055315 
L 160.69682 132.793923 
L 159.611019 133.397887 
L 158.525217 139.960964 
L 157.439416 139.113933 
L 156.353615 136.631419 
L 155.267814 136.944949 
L 154.182013 135.366783 
L 153.096212 140.446025 
L 152.01041 135.752229 
L 150.924609 139.273257 
L 149.838808 138.669718 
L 148.753007 128.773559 
L 147.667206 138.574056 
L 146.581405 132.13855 
L 145.495604 137.063477 
L 144.409802 136.885637 
L 143.324001 129.229701 
L 142.2382 122.733968 
L 141.152399 128.593727 
L 140.066598 131.128335 
L 138.980797 127.841087 
L 137.894995 117.210733 
L 136.809194 113.050388 
L 135.723393 91.581051 
L 134.637592 95.411927 
L 133.551791 76.002343 
L 132.46599 80.216281 
L 131.380189 88.343882 
L 130.294387 83.182305 
L 129.208586 100.237284 
L 128.122785 106.310388 
L 127.036984 127.662762 
L 125.951183 116.145344 
L 124.865382 118.679551 
L 123.77958 124.035091 
L 122.693779 126.05597 
L 121.607978 115.718435 
L 120.522177 128.843013 
L 119.436376 134.707821 
L 118.350575 109.051076 
L 117.264773 130.718804 
L 116.178972 133.384434 
L 115.093171 133.776472 
L 114.00737 135.520899 
L 112.921569 131.49155 
L 111.835768 133.571292 
L 110.749967 138.707111 
L 109.664165 138.860081 
L 108.578364 133.275629 
L 107.492563 133.949027 
L 106.406762 138.537915 
L 105.320961 129.643372 
L 104.23516 119.532039 
L 103.149358 123.374838 
L 102.063557 121.614776 
L 100.977756 109.105621 
L 99.891955 123.736247 
L 98.806154 105.817734 
L 97.720353 94.786336 
L 96.634552 117.555141 
L 95.54875 126.057327 
L 94.462949 131.250146 
L 93.377148 131.437362 
L 92.291347 129.769512 
L 91.205546 126.912139 
L 90.119745 130.695064 
L 89.033943 141.652063 
L 87.948142 137.425745 
L 86.862341 134.692468 
L 85.77654 137.714942 
L 84.690739 128.437946 
L 83.604938 130.668064 
L 82.519137 133.491837 
L 81.433335 141.652063 
L 80.347534 141.652063 
L 79.261733 141.652063 
L 78.175932 141.598378 
L 77.090131 141.652063 
L 76.00433 134.850837 
L 74.918528 137.783981 
L 73.832727 136.388961 
z
" style="fill:#0000ff;fill-opacity:0.5;"/>
   </g>
   <g id="PolyCollection_2">
    <path clip-path="url(#pce8a2ee528)" d="M 73.832727 165.929521 
L 73.832727 258.37115 
L 74.918528 273.519947 
L 76.00433 279.050208 
L 77.090131 274.470486 
L 78.175932 286.282593 
L 79.261733 276.2958 
L 80.347534 282.964072 
L 81.433335 259.089533 
L 82.519137 284.723312 
L 83.604938 286.423881 
L 84.690739 287.760343 
L 85.77654 289.625987 
L 86.862341 292.407835 
L 87.948142 292.161918 
L 89.033943 287.225902 
L 90.119745 289.031882 
L 91.205546 287.133087 
L 92.291347 286.644277 
L 93.377148 287.790594 
L 94.462949 261.761648 
L 95.54875 280.3648 
L 96.634552 264.791504 
L 97.720353 214.440796 
L 98.806154 163.119786 
L 99.891955 204.112156 
L 100.977756 223.482202 
L 102.063557 201.509713 
L 103.149358 225.786625 
L 104.23516 229.06615 
L 105.320961 231.703266 
L 106.406762 170.209646 
L 107.492563 173.94542 
L 108.578364 167.389133 
L 109.664165 207.660189 
L 110.749967 204.74135 
L 111.835768 228.325061 
L 112.921569 262.313672 
L 114.00737 238.363806 
L 115.093171 235.132717 
L 116.178972 193.117784 
L 117.264773 249.725909 
L 118.350575 233.125481 
L 119.436376 239.493355 
L 120.522177 220.737964 
L 121.607978 202.56519 
L 122.693779 216.319762 
L 123.77958 201.722748 
L 124.865382 181.733426 
L 125.951183 218.627953 
L 127.036984 224.489149 
L 128.122785 198.247112 
L 129.208586 199.493783 
L 130.294387 201.339961 
L 131.380189 197.453358 
L 132.46599 205.65324 
L 133.551791 229.117502 
L 134.637592 180.05386 
L 135.723393 182.196232 
L 136.809194 170.692071 
L 137.894995 166.992123 
L 138.980797 205.645449 
L 140.066598 196.554475 
L 141.152399 173.898203 
L 142.2382 210.458153 
L 143.324001 243.539281 
L 144.409802 268.261986 
L 145.495604 277.555581 
L 146.581405 250.875687 
L 147.667206 257.37049 
L 148.753007 278.008279 
L 149.838808 272.574957 
L 150.924609 250.990774 
L 152.01041 256.298652 
L 153.096212 242.87495 
L 154.182013 231.526748 
L 155.267814 204.759401 
L 156.353615 236.952073 
L 157.439416 270.194553 
L 158.525217 289.207724 
L 159.611019 292.541589 
L 160.69682 292.508301 
L 161.782621 289.4188 
L 162.868422 293.385475 
L 163.954223 289.668032 
L 165.040024 291.141037 
L 166.125825 292.587589 
L 167.211627 287.46711 
L 168.297428 288.842838 
L 169.383229 293.125466 
L 170.46903 290.520361 
L 171.554831 273.550888 
L 172.640632 283.119113 
L 173.726434 276.82371 
L 174.812235 290.446673 
L 175.898036 274.714949 
L 176.983837 268.438337 
L 178.069638 258.244444 
L 179.155439 268.944077 
L 180.24124 265.364856 
L 181.327042 269.512086 
L 182.412843 271.459802 
L 183.498644 245.22741 
L 184.584445 244.134509 
L 185.670246 270.611748 
L 186.756047 271.24746 
L 187.841849 287.611007 
L 188.92765 285.054772 
L 190.013451 276.528219 
L 191.099252 276.932803 
L 192.185053 280.668911 
L 193.270854 289.839664 
L 194.356656 291.309135 
L 195.442457 294.422054 
L 196.528258 291.526184 
L 197.614059 283.257844 
L 198.69986 283.328147 
L 199.785661 292.833225 
L 200.871462 290.724548 
L 201.957264 291.272279 
L 203.043065 292.767874 
L 204.128866 291.539827 
L 205.214667 282.219189 
L 206.300468 294.054998 
L 207.386269 294.352147 
L 208.472071 283.97196 
L 209.557872 295.161832 
L 210.643673 293.099975 
L 211.729474 295.488 
L 212.815275 290.775973 
L 213.901076 294.034874 
L 214.986877 289.431186 
L 216.072679 285.349759 
L 217.15848 283.68819 
L 218.244281 286.447636 
L 219.330082 290.095298 
L 220.415883 277.101086 
L 221.501684 263.625975 
L 222.587486 259.089533 
L 223.673287 259.089533 
L 224.759088 259.089533 
L 225.844889 280.644342 
L 226.93069 259.089533 
L 228.016491 281.683254 
L 229.102292 284.130033 
L 230.188094 281.333688 
L 231.273895 259.089533 
L 232.359696 259.089533 
L 233.445497 259.089533 
L 234.531298 283.214526 
L 235.617099 280.134328 
L 236.702901 276.436854 
L 237.788702 281.556999 
L 238.874503 259.089533 
L 239.960304 270.483016 
L 241.046105 274.309429 
L 242.131906 278.395 
L 243.217708 286.050541 
L 244.303509 288.402278 
L 245.38931 287.322104 
L 246.475111 293.337371 
L 247.560912 287.181961 
L 248.646713 293.57296 
L 249.732514 288.611045 
L 250.818316 285.100848 
L 251.904117 290.036159 
L 252.989918 289.115439 
L 254.075719 285.987663 
L 255.16152 289.730362 
L 256.247321 291.305152 
L 257.333123 285.669371 
L 258.418924 290.443434 
L 259.504725 280.9723 
L 260.590526 287.498469 
L 261.676327 287.866131 
L 262.762128 289.300498 
L 263.847929 281.856511 
L 264.933731 284.739533 
L 266.019532 289.715815 
L 267.105333 279.627171 
L 268.191134 284.54895 
L 269.276935 281.419123 
L 270.362736 284.960594 
L 271.448538 289.660246 
L 272.534339 284.270847 
L 273.62014 284.280004 
L 274.705941 287.218618 
L 275.791742 286.703832 
L 276.877543 283.927837 
L 277.963344 293.850222 
L 279.049146 277.825371 
L 280.134947 278.4632 
L 281.220748 293.514901 
L 282.306549 287.868775 
L 283.39235 281.931826 
L 284.478151 276.007667 
L 285.563953 261.648272 
L 286.649754 255.987051 
L 287.735555 266.745015 
L 288.821356 262.717105 
L 289.907157 263.184337 
L 290.992958 255.655526 
L 292.07876 271.531251 
L 293.164561 275.614681 
L 294.250362 281.604482 
L 295.336163 278.233041 
L 296.421964 281.681163 
L 297.507765 281.946723 
L 298.593566 283.250934 
L 299.679368 287.505909 
L 300.765169 277.459556 
L 301.85097 284.974458 
L 302.936771 285.215336 
L 304.022572 287.846035 
L 305.108373 292.574396 
L 306.194175 286.794469 
L 307.279976 289.360684 
L 308.365777 283.279588 
L 309.451578 272.643934 
L 310.537379 287.039019 
L 311.62318 292.711273 
L 312.708981 287.757998 
L 313.794783 288.596084 
L 314.880584 289.252755 
L 315.966385 287.390748 
L 317.052186 283.883045 
L 318.137987 285.352394 
L 319.223788 285.574488 
L 320.30959 291.656406 
L 321.395391 291.039278 
L 322.481192 290.178107 
L 323.566993 288.34656 
L 324.652794 291.472038 
L 325.738595 284.996909 
L 326.824396 289.981205 
L 327.910198 291.941722 
L 328.995999 285.347023 
L 330.0818 286.878417 
L 331.167601 284.480465 
L 332.253402 281.555934 
L 333.339203 266.248853 
L 334.425005 262.85421 
L 335.510806 269.037612 
L 336.596607 279.373045 
L 337.682408 279.352272 
L 338.768209 274.290261 
L 339.85401 286.876236 
L 340.939811 275.714503 
L 342.025613 279.774025 
L 343.111414 288.778 
L 344.197215 290.280494 
L 345.283016 283.486547 
L 346.368817 284.509522 
L 347.454618 281.212611 
L 348.54042 277.6971 
L 349.626221 287.901278 
L 350.712022 275.456881 
L 351.797823 279.454022 
L 352.883624 273.045734 
L 353.969425 267.653334 
L 355.055227 263.808981 
L 356.141028 276.648802 
L 357.226829 265.375156 
L 358.31263 268.950686 
L 359.398431 273.763481 
L 360.484232 283.416125 
L 361.570033 277.066507 
L 362.655835 285.830966 
L 363.741636 282.980092 
L 364.827437 286.561193 
L 365.913238 279.729462 
L 366.999039 283.994778 
L 368.08484 282.059798 
L 369.170642 272.342452 
L 370.256443 292.773959 
L 371.342244 289.673159 
L 372.428045 290.00205 
L 373.513846 287.225917 
L 374.599647 269.314319 
L 375.685448 275.139141 
L 376.77125 275.483243 
L 377.857051 256.333512 
L 378.942852 267.785436 
L 380.028653 278.014876 
L 381.114454 251.910643 
L 382.200255 246.883423 
L 383.286057 244.634932 
L 384.371858 270.063709 
L 385.457659 286.917218 
L 386.54346 289.854454 
L 387.629261 285.552478 
L 388.715062 285.849789 
L 389.800863 288.06207 
L 390.886665 290.032935 
L 391.972466 288.849489 
L 393.058267 290.998104 
L 394.144068 289.532109 
L 395.229869 291.125163 
L 396.31567 289.832459 
L 397.401472 292.095894 
L 398.487273 291.097287 
L 398.487273 172.992559 
L 398.487273 172.992559 
L 397.401472 160.031866 
L 396.31567 155.967405 
L 395.229869 146.946417 
L 394.144068 193.778642 
L 393.058267 200.364955 
L 391.972466 202.112388 
L 390.886665 172.031792 
L 389.800863 186.318412 
L 388.715062 209.664964 
L 387.629261 189.906284 
L 386.54346 180.884348 
L 385.457659 143.922152 
L 384.371858 108.664119 
L 383.286057 86.691054 
L 382.200255 84.165187 
L 381.114454 90.91303 
L 380.028653 131.235904 
L 378.942852 112.317296 
L 377.857051 96.099901 
L 376.77125 111.832542 
L 375.685448 114.167402 
L 374.599647 103.394394 
L 373.513846 138.664874 
L 372.428045 166.232665 
L 371.342244 159.960145 
L 370.256443 182.223909 
L 369.170642 105.069549 
L 368.08484 125.002149 
L 366.999039 147.616096 
L 365.913238 126.622656 
L 364.827437 161.238727 
L 363.741636 154.85464 
L 362.655835 142.218757 
L 361.570033 161.648775 
L 360.484232 165.085569 
L 359.398431 175.223665 
L 358.31263 171.267795 
L 357.226829 166.12159 
L 356.141028 182.256689 
L 355.055227 144.252994 
L 353.969425 167.491848 
L 352.883624 143.002678 
L 351.797823 166.311982 
L 350.712022 160.806754 
L 349.626221 184.081243 
L 348.54042 157.634339 
L 347.454618 184.298327 
L 346.368817 162.685118 
L 345.283016 160.518603 
L 344.197215 154.536887 
L 343.111414 170.64505 
L 342.025613 186.392545 
L 340.939811 129.572483 
L 339.85401 154.581581 
L 338.768209 144.387655 
L 337.682408 146.118528 
L 336.596607 135.138933 
L 335.510806 122.715282 
L 334.425005 117.325763 
L 333.339203 123.809289 
L 332.253402 125.72637 
L 331.167601 131.642084 
L 330.0818 152.060555 
L 328.995999 142.738491 
L 327.910198 166.037779 
L 326.824396 163.265007 
L 325.738595 161.654909 
L 324.652794 178.079471 
L 323.566993 155.914236 
L 322.481192 163.911462 
L 321.395391 172.041768 
L 320.30959 164.871826 
L 319.223788 175.506502 
L 318.137987 200.983683 
L 317.052186 211.837504 
L 315.966385 171.796681 
L 314.880584 189.35995 
L 313.794783 167.593894 
L 312.708981 177.19152 
L 311.62318 198.472834 
L 310.537379 207.516585 
L 309.451578 236.963315 
L 308.365777 215.509993 
L 307.279976 166.891927 
L 306.194175 163.0427 
L 305.108373 169.745977 
L 304.022572 174.544641 
L 302.936771 190.650451 
L 301.85097 209.584726 
L 300.765169 223.665353 
L 299.679368 200.072308 
L 298.593566 180.831572 
L 297.507765 179.638668 
L 296.421964 168.531806 
L 295.336163 160.0292 
L 294.250362 150.516407 
L 293.164561 149.588121 
L 292.07876 135.214898 
L 290.992958 108.159256 
L 289.907157 117.464596 
L 288.821356 112.854846 
L 287.735555 107.538479 
L 286.649754 95.182009 
L 285.563953 104.788162 
L 284.478151 117.674259 
L 283.39235 132.263151 
L 282.306549 152.97604 
L 281.220748 166.206402 
L 280.134947 136.309487 
L 279.049146 128.222162 
L 277.963344 174.419038 
L 276.877543 137.233499 
L 275.791742 171.391988 
L 274.705941 168.153657 
L 273.62014 168.70427 
L 272.534339 181.705016 
L 271.448538 157.304738 
L 270.362736 176.146713 
L 269.276935 162.13682 
L 268.191134 150.94519 
L 267.105333 144.611049 
L 266.019532 157.669708 
L 264.933731 172.349224 
L 263.847929 195.400367 
L 262.762128 137.917097 
L 261.676327 139.722881 
L 260.590526 136.909574 
L 259.504725 143.072575 
L 258.418924 136.360378 
L 257.333123 156.284948 
L 256.247321 167.217049 
L 255.16152 199.530007 
L 254.075719 211.529713 
L 252.989918 199.545622 
L 251.904117 192.35244 
L 250.818316 185.360579 
L 249.732514 156.899338 
L 248.646713 163.762313 
L 247.560912 158.020343 
L 246.475111 147.78482 
L 245.38931 165.210672 
L 244.303509 143.432287 
L 243.217708 205.482523 
L 242.131906 233.424241 
L 241.046105 238.796338 
L 239.960304 243.852228 
L 238.874503 259.089533 
L 237.788702 229.132912 
L 236.702901 235.88974 
L 235.617099 231.029807 
L 234.531298 223.153686 
L 233.445497 259.089533 
L 232.359696 259.089533 
L 231.273895 259.089533 
L 230.188094 220.229654 
L 229.102292 210.597329 
L 228.016491 227.011339 
L 226.93069 259.089533 
L 225.844889 230.349788 
L 224.759088 259.089533 
L 223.673287 259.089533 
L 222.587486 259.089533 
L 221.501684 253.040944 
L 220.415883 235.07413 
L 219.330082 207.325297 
L 218.244281 217.808938 
L 217.15848 221.883685 
L 216.072679 219.372091 
L 214.986877 162.571307 
L 213.901076 172.185382 
L 212.815275 201.329738 
L 211.729474 174.534993 
L 210.643673 177.611985 
L 209.557872 167.318321 
L 208.472071 219.085634 
L 207.386269 182.417349 
L 206.300468 183.519784 
L 205.214667 222.314761 
L 204.128866 183.753313 
L 203.043065 190.685492 
L 201.957264 158.68121 
L 200.871462 182.707487 
L 199.785661 157.988183 
L 198.69986 126.504228 
L 197.614059 133.347876 
L 196.528258 182.416961 
L 195.442457 167.700194 
L 194.356656 144.999239 
L 193.270854 127.803981 
L 192.185053 116.431006 
L 191.099252 112.400582 
L 190.013451 108.223986 
L 188.92765 126.397122 
L 187.841849 127.214139 
L 186.756047 108.288285 
L 185.670246 99.851113 
L 184.584445 71.389986 
L 183.498644 76.828844 
L 182.412843 105.507976 
L 181.327042 101.460789 
L 180.24124 107.03069 
L 179.155439 99.630838 
L 178.069638 94.484241 
L 176.983837 97.899673 
L 175.898036 128.102494 
L 174.812235 150.675518 
L 173.726434 130.682285 
L 172.640632 138.139369 
L 171.554831 126.286999 
L 170.46903 147.344897 
L 169.383229 164.710873 
L 168.297428 205.106082 
L 167.211627 169.107615 
L 166.125825 171.467343 
L 165.040024 198.521974 
L 163.954223 208.110468 
L 162.868422 179.268118 
L 161.782621 158.76306 
L 160.69682 165.050662 
L 159.611019 177.714042 
L 158.525217 149.167548 
L 157.439416 117.080881 
L 156.353615 72.980161 
L 155.267814 68.934985 
L 154.182013 72.840069 
L 153.096212 79.682371 
L 152.01041 92.466239 
L 150.924609 78.151993 
L 149.838808 104.652303 
L 148.753007 116.344719 
L 147.667206 75.494485 
L 146.581405 83.313536 
L 145.495604 118.255879 
L 144.409802 98.791833 
L 143.324001 80.127545 
L 142.2382 67.325294 
L 141.152399 63.048321 
L 140.066598 63.673748 
L 138.980797 73.524879 
L 137.894995 57.302471 
L 136.809194 54.425704 
L 135.723393 53.846583 
L 134.637592 70.636204 
L 133.551791 69.236516 
L 132.46599 67.522184 
L 131.380189 66.828135 
L 130.294387 66.47584 
L 129.208586 74.164813 
L 128.122785 80.180563 
L 127.036984 76.200196 
L 125.951183 74.285914 
L 124.865382 68.017137 
L 123.77958 66.62991 
L 122.693779 72.728734 
L 121.607978 60.696275 
L 120.522177 64.257262 
L 119.436376 76.040087 
L 118.350575 82.220061 
L 117.264773 91.907731 
L 116.178972 71.530561 
L 115.093171 74.969521 
L 114.00737 82.099772 
L 112.921569 97.242045 
L 111.835768 79.987654 
L 110.749967 68.380388 
L 109.664165 69.36271 
L 108.578364 53.568 
L 107.492563 53.66874 
L 106.406762 62.782031 
L 105.320961 80.761143 
L 104.23516 70.987915 
L 103.149358 71.636841 
L 102.063557 56.141596 
L 100.977756 62.023038 
L 99.891955 64.222608 
L 98.806154 61.174807 
L 97.720353 61.025218 
L 96.634552 111.496256 
L 95.54875 124.447963 
L 94.462949 92.541817 
L 93.377148 150.727841 
L 92.291347 147.552458 
L 91.205546 203.004149 
L 90.119745 198.063163 
L 89.033943 216.520659 
L 87.948142 168.501868 
L 86.862341 168.202266 
L 85.77654 196.07323 
L 84.690739 182.155278 
L 83.604938 201.091702 
L 82.519137 216.222644 
L 81.433335 259.089533 
L 80.347534 223.019393 
L 79.261733 236.147844 
L 78.175932 190.075313 
L 77.090131 238.581596 
L 76.00433 208.188 
L 74.918528 177.104612 
L 73.832727 165.929521 
z
" style="fill:#ff0000;fill-opacity:0.5;"/>
   </g>
   <g id="PolyCollection_3">
    <path clip-path="url(#pce8a2ee528)" d="M 73.832727 234.232802 
L 73.832727 260.002442 
L 74.918528 263.545824 
L 76.00433 264.302088 
L 77.090131 263.760189 
L 78.175932 267.799539 
L 79.261733 264.968117 
L 80.347534 268.11413 
L 81.433335 259.089533 
L 82.519137 269.315335 
L 83.604938 271.396358 
L 84.690739 272.252881 
L 85.77654 274.697963 
L 86.862341 277.715648 
L 87.948142 275.253819 
L 89.033943 274.634384 
L 90.119745 275.359143 
L 91.205546 272.729656 
L 92.291347 274.315518 
L 93.377148 274.376842 
L 94.462949 263.345394 
L 95.54875 271.955074 
L 96.634552 265.00302 
L 97.720353 243.455268 
L 98.806154 224.759616 
L 99.891955 239.762072 
L 100.977756 245.440535 
L 102.063557 237.797425 
L 103.149358 250.921945 
L 104.23516 249.567011 
L 105.320961 253.724592 
L 106.406762 224.103913 
L 107.492563 221.626977 
L 108.578364 217.568488 
L 109.664165 239.846953 
L 110.749967 237.721956 
L 111.835768 250.730746 
L 112.921569 263.210528 
L 114.00737 253.564714 
L 115.093171 251.03377 
L 116.178972 234.840456 
L 117.264773 258.659137 
L 118.350575 251.309228 
L 119.436376 252.310803 
L 120.522177 245.37565 
L 121.607978 232.705503 
L 122.693779 242.579836 
L 123.77958 235.791714 
L 124.865382 224.021649 
L 125.951183 240.441956 
L 127.036984 244.379577 
L 128.122785 232.285112 
L 129.208586 232.519543 
L 130.294387 234.184394 
L 131.380189 234.483779 
L 132.46599 234.626327 
L 133.551791 246.99651 
L 134.637592 231.076276 
L 135.723393 228.883959 
L 136.809194 221.294344 
L 137.894995 218.527102 
L 138.980797 240.770283 
L 140.066598 235.745738 
L 141.152399 228.10092 
L 142.2382 246.016166 
L 143.324001 254.571292 
L 144.409802 267.554649 
L 145.495604 273.237175 
L 146.581405 258.619994 
L 147.667206 261.795087 
L 148.753007 275.003342 
L 149.838808 269.473224 
L 150.924609 258.981357 
L 152.01041 261.676009 
L 153.096212 256.972926 
L 154.182013 252.902968 
L 155.267814 237.609814 
L 156.353615 251.675031 
L 157.439416 268.04494 
L 158.525217 277.615845 
L 159.611019 277.45476 
L 160.69682 279.266268 
L 161.782621 277.583399 
L 162.868422 279.120637 
L 163.954223 276.787193 
L 165.040024 276.950998 
L 166.125825 279.029483 
L 167.211627 273.268194 
L 168.297428 275.348332 
L 169.383229 279.639265 
L 170.46903 277.098596 
L 171.554831 269.249963 
L 172.640632 276.13784 
L 173.726434 272.964854 
L 174.812235 277.692105 
L 175.898036 270.549641 
L 176.983837 267.939751 
L 178.069638 263.948973 
L 179.155439 268.650237 
L 180.24124 267.891725 
L 181.327042 267.615111 
L 182.412843 270.543979 
L 183.498644 255.784087 
L 184.584445 253.02392 
L 185.670246 267.270641 
L 186.756047 268.276865 
L 187.841849 277.987156 
L 188.92765 277.965351 
L 190.013451 271.34298 
L 191.099252 272.298811 
L 192.185053 274.87524 
L 193.270854 280.066769 
L 194.356656 278.203094 
L 195.442457 280.092146 
L 196.528258 279.205039 
L 197.614059 273.620135 
L 198.69986 275.284089 
L 199.785661 278.201996 
L 200.871462 274.119757 
L 201.957264 276.787908 
L 203.043065 277.487439 
L 204.128866 276.014013 
L 205.214667 270.053978 
L 206.300468 279.043268 
L 207.386269 280.086605 
L 208.472071 273.277109 
L 209.557872 282.620266 
L 210.643673 279.079999 
L 211.729474 281.392591 
L 212.815275 276.559413 
L 213.901076 279.357424 
L 214.986877 274.854569 
L 216.072679 274.167326 
L 217.15848 269.346885 
L 218.244281 275.242477 
L 219.330082 277.37074 
L 220.415883 268.511374 
L 221.501684 259.492176 
L 222.587486 259.089533 
L 223.673287 259.089533 
L 224.759088 259.089533 
L 225.844889 271.329873 
L 226.93069 259.089533 
L 228.016491 273.098868 
L 229.102292 271.504815 
L 230.188094 267.533844 
L 231.273895 259.089533 
L 232.359696 259.089533 
L 233.445497 259.089533 
L 234.531298 273.764352 
L 235.617099 271.088287 
L 236.702901 266.152951 
L 237.788702 272.779387 
L 238.874503 259.089533 
L 239.960304 263.798478 
L 241.046105 267.867145 
L 242.131906 266.598694 
L 243.217708 275.702778 
L 244.303509 276.553147 
L 245.38931 274.160934 
L 246.475111 279.349453 
L 247.560912 274.887128 
L 248.646713 281.917945 
L 249.732514 276.366229 
L 250.818316 274.26999 
L 251.904117 276.626587 
L 252.989918 275.242764 
L 254.075719 274.357392 
L 255.16152 277.71742 
L 256.247321 279.187284 
L 257.333123 275.44628 
L 258.418924 278.886914 
L 259.504725 272.514339 
L 260.590526 277.033343 
L 261.676327 277.345445 
L 262.762128 278.794514 
L 263.847929 273.004336 
L 264.933731 276.668273 
L 266.019532 277.891086 
L 267.105333 270.916945 
L 268.191134 274.59393 
L 269.276935 272.264973 
L 270.362736 273.906485 
L 271.448538 277.583793 
L 272.534339 274.695875 
L 273.62014 272.738284 
L 274.705941 274.508782 
L 275.791742 275.046633 
L 276.877543 274.365047 
L 277.963344 282.987076 
L 279.049146 272.637741 
L 280.134947 271.147743 
L 281.220748 281.551058 
L 282.306549 277.502897 
L 283.39235 272.473235 
L 284.478151 273.588303 
L 285.563953 268.400362 
L 286.649754 263.16297 
L 287.735555 266.411471 
L 288.821356 265.192138 
L 289.907157 266.829066 
L 290.992958 260.20784 
L 292.07876 268.940471 
L 293.164561 270.043825 
L 294.250362 274.70995 
L 295.336163 268.720636 
L 296.421964 273.255659 
L 297.507765 270.655069 
L 298.593566 272.104585 
L 299.679368 274.243908 
L 300.765169 265.997791 
L 301.85097 273.424625 
L 302.936771 274.412688 
L 304.022572 277.004174 
L 305.108373 279.116942 
L 306.194175 276.266085 
L 307.279976 277.423689 
L 308.365777 269.552377 
L 309.451578 263.934738 
L 310.537379 274.241567 
L 311.62318 281.280501 
L 312.708981 275.757619 
L 313.794783 276.271834 
L 314.880584 275.935891 
L 315.966385 273.790709 
L 317.052186 276.034153 
L 318.137987 273.664683 
L 319.223788 274.530273 
L 320.30959 278.336035 
L 321.395391 279.720026 
L 322.481192 279.568485 
L 323.566993 276.982113 
L 324.652794 278.815863 
L 325.738595 275.156913 
L 326.824396 278.881065 
L 327.910198 281.468935 
L 328.995999 276.859106 
L 330.0818 275.761652 
L 331.167601 275.159854 
L 332.253402 273.48514 
L 333.339203 265.503912 
L 334.425005 264.973258 
L 335.510806 268.296011 
L 336.596607 272.712648 
L 337.682408 272.342259 
L 338.768209 269.23092 
L 339.85401 276.725893 
L 340.939811 270.556173 
L 342.025613 270.626587 
L 343.111414 276.087276 
L 344.197215 278.984611 
L 345.283016 276.980818 
L 346.368817 273.076436 
L 347.454618 273.871834 
L 348.54042 271.396513 
L 349.626221 275.886766 
L 350.712022 270.874152 
L 351.797823 273.962612 
L 352.883624 269.837165 
L 353.969425 267.197774 
L 355.055227 263.453002 
L 356.141028 269.377422 
L 357.226829 264.588674 
L 358.31263 264.988539 
L 359.398431 269.200825 
L 360.484232 273.970138 
L 361.570033 270.657689 
L 362.655835 274.123063 
L 363.741636 273.10715 
L 364.827437 276.991162 
L 365.913238 272.825366 
L 366.999039 273.123476 
L 368.08484 273.988955 
L 369.170642 269.523326 
L 370.256443 278.682411 
L 371.342244 277.65925 
L 372.428045 279.941239 
L 373.513846 275.969176 
L 374.599647 269.190246 
L 375.685448 270.045997 
L 376.77125 272.234348 
L 377.857051 263.525481 
L 378.942852 268.731115 
L 380.028653 272.003864 
L 381.114454 260.848141 
L 382.200255 259.225263 
L 383.286057 259.043576 
L 384.371858 269.634806 
L 385.457659 276.049717 
L 386.54346 273.12836 
L 387.629261 270.00523 
L 388.715062 269.253353 
L 389.800863 271.743154 
L 390.886665 273.018358 
L 391.972466 276.313363 
L 393.058267 276.357775 
L 394.144068 274.372905 
L 395.229869 278.483247 
L 396.31567 275.340924 
L 397.401472 277.764219 
L 398.487273 276.91173 
L 398.487273 213.950789 
L 398.487273 213.950789 
L 397.401472 205.975471 
L 396.31567 206.995042 
L 395.229869 198.773631 
L 394.144068 228.303046 
L 393.058267 228.104595 
L 391.972466 227.102135 
L 390.886665 221.440393 
L 389.800863 228.451203 
L 388.715062 240.577587 
L 387.629261 233.738957 
L 386.54346 227.227054 
L 385.457659 199.947727 
L 384.371858 180.831855 
L 383.286057 169.909856 
L 382.200255 165.567527 
L 381.114454 167.890548 
L 380.028653 189.590474 
L 378.942852 175.49316 
L 377.857051 173.212377 
L 376.77125 172.679527 
L 375.685448 174.717874 
L 374.599647 177.372096 
L 373.513846 194.139276 
L 372.428045 203.717922 
L 371.342244 207.887332 
L 370.256443 218.102903 
L 369.170642 169.390382 
L 368.08484 182.26734 
L 366.999039 203.556544 
L 365.913238 190.764108 
L 364.827437 207.239594 
L 363.741636 204.781325 
L 362.655835 197.537344 
L 361.570033 211.739858 
L 360.484232 208.944792 
L 359.398431 211.398251 
L 358.31263 206.081325 
L 357.226829 210.614442 
L 356.141028 221.800895 
L 355.055227 198.408711 
L 353.969425 213.777102 
L 352.883624 198.189597 
L 351.797823 212.005034 
L 350.712022 200.866784 
L 349.626221 217.274764 
L 348.54042 204.847447 
L 347.454618 218.306511 
L 346.368817 213.417541 
L 345.283016 207.151653 
L 344.197215 201.009185 
L 343.111414 213.590999 
L 342.025613 223.286543 
L 340.939811 186.984895 
L 339.85401 199.846756 
L 338.768209 199.480608 
L 337.682408 196.807519 
L 336.596607 187.217433 
L 335.510806 190.938347 
L 334.425005 178.07267 
L 333.339203 182.051615 
L 332.253402 181.371643 
L 331.167601 185.54867 
L 330.0818 202.877896 
L 328.995999 196.358186 
L 327.910198 199.908583 
L 326.824396 205.10021 
L 325.738595 207.052734 
L 324.652794 214.245965 
L 323.566993 201.097022 
L 322.481192 207.136023 
L 321.395391 211.247759 
L 320.30959 205.605239 
L 319.223788 217.96387 
L 318.137987 227.645494 
L 317.052186 228.320845 
L 315.966385 215.532293 
L 314.880584 221.735238 
L 313.794783 213.158539 
L 312.708981 217.052323 
L 311.62318 222.000784 
L 310.537379 232.437181 
L 309.451578 251.211086 
L 308.365777 240.332249 
L 307.279976 211.067185 
L 306.194175 207.795719 
L 305.108373 210.000631 
L 304.022572 208.453457 
L 302.936771 219.929927 
L 301.85097 234.099473 
L 300.765169 248.208534 
L 299.679368 229.386333 
L 298.593566 220.765508 
L 297.507765 222.399089 
L 296.421964 210.081388 
L 295.336163 214.918804 
L 294.250362 202.721669 
L 293.164561 202.739244 
L 292.07876 189.579045 
L 290.992958 178.435861 
L 289.907157 182.269136 
L 288.821356 187.678273 
L 287.735555 181.385642 
L 286.649754 175.090141 
L 285.563953 182.510522 
L 284.478151 181.885866 
L 283.39235 195.27962 
L 282.306549 203.874622 
L 281.220748 202.179684 
L 280.134947 202.13534 
L 279.049146 191.882468 
L 277.963344 205.342741 
L 276.877543 196.263827 
L 275.791742 213.846883 
L 274.705941 212.417537 
L 273.62014 212.387234 
L 272.534339 213.008661 
L 271.448538 198.451999 
L 270.362736 217.456047 
L 269.276935 209.219917 
L 268.191134 201.683447 
L 267.105333 204.614858 
L 266.019532 200.07739 
L 264.933731 207.10812 
L 263.847929 223.805716 
L 262.762128 186.879938 
L 261.676327 189.859597 
L 260.590526 187.701608 
L 259.504725 200.716111 
L 258.418924 185.93514 
L 257.333123 202.629568 
L 256.247321 205.547782 
L 255.16152 225.644393 
L 254.075719 232.098471 
L 252.989918 230.637895 
L 251.904117 222.118255 
L 250.818316 219.884726 
L 249.732514 201.232763 
L 248.646713 200.050116 
L 247.560912 207.80569 
L 246.475111 197.250039 
L 245.38931 212.655823 
L 244.303509 195.65096 
L 243.217708 226.880592 
L 242.131906 249.10662 
L 241.046105 247.38605 
L 239.960304 252.79193 
L 238.874503 259.089533 
L 237.788702 240.836395 
L 236.702901 249.643128 
L 235.617099 243.091194 
L 234.531298 237.22083 
L 233.445497 259.089533 
L 232.359696 259.089533 
L 231.273895 259.089533 
L 230.188094 244.551896 
L 229.102292 235.373411 
L 228.016491 239.174772 
L 226.93069 259.089533 
L 225.844889 242.76908 
L 224.759088 259.089533 
L 223.673287 259.089533 
L 222.587486 259.089533 
L 221.501684 258.552676 
L 220.415883 246.527079 
L 219.330082 229.15853 
L 218.244281 235.044791 
L 217.15848 243.570983 
L 216.072679 236.361528 
L 214.986877 215.864262 
L 213.901076 210.046107 
L 212.815275 228.681399 
L 211.729474 209.353082 
L 210.643673 213.866788 
L 209.557872 202.971581 
L 208.472071 239.291802 
L 207.386269 215.920267 
L 206.300468 217.124661 
L 205.214667 241.763333 
L 204.128866 221.22763 
L 203.043065 223.404831 
L 201.957264 206.46861 
L 200.871462 224.517714 
L 199.785661 204.812936 
L 198.69986 187.947663 
L 197.614059 197.127615 
L 196.528258 218.978843 
L 195.442457 206.170772 
L 194.356656 195.819483 
L 193.270854 178.279584 
L 192.185053 181.001571 
L 191.099252 176.223059 
L 190.013451 174.36039 
L 188.92765 184.997973 
L 187.841849 179.44654 
L 186.756047 177.345977 
L 185.670246 167.561375 
L 184.584445 154.562603 
L 183.498644 158.647363 
L 182.412843 170.945064 
L 181.327042 169.015377 
L 180.24124 179.046416 
L 179.155439 168.678164 
L 178.069638 171.017258 
L 176.983837 168.180722 
L 175.898036 196.466953 
L 174.812235 200.517958 
L 173.726434 189.434769 
L 172.640632 189.348711 
L 171.554831 197.820316 
L 170.46903 198.668767 
L 169.383229 208.395281 
L 168.297428 231.503052 
L 167.211627 218.926993 
L 166.125825 213.997832 
L 165.040024 225.900801 
L 163.954223 231.030533 
L 162.868422 217.154663 
L 161.782621 205.377848 
L 160.69682 212.284691 
L 159.611019 219.411083 
L 158.525217 201.990046 
L 157.439416 188.127143 
L 156.353615 154.19355 
L 155.267814 153.092556 
L 154.182013 156.938355 
L 153.096212 159.337524 
L 152.01041 168.082708 
L 150.924609 155.181665 
L 149.838808 170.190505 
L 148.753007 177.947598 
L 147.667206 144.046651 
L 146.581405 158.817855 
L 145.495604 181.431707 
L 144.409802 168.43161 
L 143.324001 162.114957 
L 142.2382 148.22946 
L 141.152399 154.333852 
L 140.066598 146.474291 
L 138.980797 159.890784 
L 137.894995 145.842432 
L 136.809194 135.934992 
L 135.723393 142.142602 
L 134.637592 160.216637 
L 133.551791 148.269145 
L 132.46599 153.042801 
L 131.380189 151.225821 
L 130.294387 143.713937 
L 129.208586 147.150416 
L 128.122785 157.021431 
L 127.036984 156.630448 
L 125.951183 153.749984 
L 124.865382 149.984469 
L 123.77958 149.300501 
L 122.693779 157.866489 
L 121.607978 147.957642 
L 120.522177 155.20489 
L 119.436376 156.805763 
L 118.350575 165.994407 
L 117.264773 171.636438 
L 116.178972 161.955241 
L 115.093171 161.089195 
L 114.00737 165.295806 
L 112.921569 174.252087 
L 111.835768 171.458287 
L 110.749967 162.268041 
L 109.664165 164.196314 
L 108.578364 146.908418 
L 107.492563 141.131986 
L 106.406762 154.331274 
L 105.320961 170.719241 
L 104.23516 159.844826 
L 103.149358 164.797962 
L 102.063557 148.234289 
L 100.977756 150.603563 
L 99.891955 160.523196 
L 98.806154 154.373486 
L 97.720353 155.595228 
L 96.634552 187.035264 
L 95.54875 187.411307 
L 94.462949 172.050322 
L 93.377148 206.651719 
L 92.291347 206.149343 
L 91.205546 231.732714 
L 90.119745 226.177356 
L 89.033943 235.572355 
L 87.948142 217.048739 
L 86.862341 211.365769 
L 85.77654 227.778036 
L 84.690739 225.25719 
L 83.604938 235.186597 
L 82.519137 242.099333 
L 81.433335 259.089533 
L 80.347534 245.555337 
L 79.261733 251.251421 
L 78.175932 237.119159 
L 77.090131 252.861992 
L 76.00433 245.716752 
L 74.918528 236.836433 
L 73.832727 234.232802 
z
" style="fill:#008000;fill-opacity:0.5;"/>
   </g>
   <g id="matplotlib.axis_1">
    <g id="xtick_1">
     <g id="line2d_1">
      <path clip-path="url(#pce8a2ee528)" d="M 73.832727 307.584 
L 73.832727 41.472 
" style="fill:none;stroke:#b0b0b0;stroke-linecap:square;stroke-width:0.8;"/>
     </g>
     <g id="line2d_2">
      <defs>
       <path d="M 0 0 
L 0 3.5 
" id="m70d612c432" style="stroke:#000000;stroke-width:0.8;"/>
      </defs>
      <g>
       <use style="stroke:#000000;stroke-width:0.8;" x="73.832727" xlink:href="#m70d612c432" y="307.584"/>
      </g>
     </g>
     <g id="text_1">
      <!-- 0 -->
      <defs>
       <path d="M 31.78125 66.40625 
Q 24.171875 66.40625 20.328125 58.90625 
Q 16.5 51.421875 16.5 36.375 
Q 16.5 21.390625 20.328125 13.890625 
Q 24.171875 6.390625 31.78125 6.390625 
Q 39.453125 6.390625 43.28125 13.890625 
Q 47.125 21.390625 47.125 36.375 
Q 47.125 51.421875 43.28125 58.90625 
Q 39.453125 66.40625 31.78125 66.40625 
z
M 31.78125 74.21875 
Q 44.046875 74.21875 50.515625 64.515625 
Q 56.984375 54.828125 56.984375 36.375 
Q 56.984375 17.96875 50.515625 8.265625 
Q 44.046875 -1.421875 31.78125 -1.421875 
Q 19.53125 -1.421875 13.0625 8.265625 
Q 6.59375 17.96875 6.59375 36.375 
Q 6.59375 54.828125 13.0625 64.515625 
Q 19.53125 74.21875 31.78125 74.21875 
z
" id="DejaVuSans-48"/>
      </defs>
      <g transform="translate(70.651477 322.182437)scale(0.1 -0.1)">
       <use xlink:href="#DejaVuSans-48"/>
      </g>
     </g>
    </g>
    <g id="xtick_2">
     <g id="line2d_3">
      <path clip-path="url(#pce8a2ee528)" d="M 128.122785 307.584 
L 128.122785 41.472 
" style="fill:none;stroke:#b0b0b0;stroke-linecap:square;stroke-width:0.8;"/>
     </g>
     <g id="line2d_4">
      <g>
       <use style="stroke:#000000;stroke-width:0.8;" x="128.122785" xlink:href="#m70d612c432" y="307.584"/>
      </g>
     </g>
     <g id="text_2">
      <!-- 50 -->
      <defs>
       <path d="M 10.796875 72.90625 
L 49.515625 72.90625 
L 49.515625 64.59375 
L 19.828125 64.59375 
L 19.828125 46.734375 
Q 21.96875 47.46875 24.109375 47.828125 
Q 26.265625 48.1875 28.421875 48.1875 
Q 40.625 48.1875 47.75 41.5 
Q 54.890625 34.8125 54.890625 23.390625 
Q 54.890625 11.625 47.5625 5.09375 
Q 40.234375 -1.421875 26.90625 -1.421875 
Q 22.3125 -1.421875 17.546875 -0.640625 
Q 12.796875 0.140625 7.71875 1.703125 
L 7.71875 11.625 
Q 12.109375 9.234375 16.796875 8.0625 
Q 21.484375 6.890625 26.703125 6.890625 
Q 35.15625 6.890625 40.078125 11.328125 
Q 45.015625 15.765625 45.015625 23.390625 
Q 45.015625 31 40.078125 35.4375 
Q 35.15625 39.890625 26.703125 39.890625 
Q 22.75 39.890625 18.8125 39.015625 
Q 14.890625 38.140625 10.796875 36.28125 
z
" id="DejaVuSans-53"/>
      </defs>
      <g transform="translate(121.760285 322.182437)scale(0.1 -0.1)">
       <use xlink:href="#DejaVuSans-53"/>
       <use x="63.623047" xlink:href="#DejaVuSans-48"/>
      </g>
     </g>
    </g>
    <g id="xtick_3">
     <g id="line2d_5">
      <path clip-path="url(#pce8a2ee528)" d="M 182.412843 307.584 
L 182.412843 41.472 
" style="fill:none;stroke:#b0b0b0;stroke-linecap:square;stroke-width:0.8;"/>
     </g>
     <g id="line2d_6">
      <g>
       <use style="stroke:#000000;stroke-width:0.8;" x="182.412843" xlink:href="#m70d612c432" y="307.584"/>
      </g>
     </g>
     <g id="text_3">
      <!-- 100 -->
      <defs>
       <path d="M 12.40625 8.296875 
L 28.515625 8.296875 
L 28.515625 63.921875 
L 10.984375 60.40625 
L 10.984375 69.390625 
L 28.421875 72.90625 
L 38.28125 72.90625 
L 38.28125 8.296875 
L 54.390625 8.296875 
L 54.390625 0 
L 12.40625 0 
z
" id="DejaVuSans-49"/>
      </defs>
      <g transform="translate(172.869093 322.182437)scale(0.1 -0.1)">
       <use xlink:href="#DejaVuSans-49"/>
       <use x="63.623047" xlink:href="#DejaVuSans-48"/>
       <use x="127.246094" xlink:href="#DejaVuSans-48"/>
      </g>
     </g>
    </g>
    <g id="xtick_4">
     <g id="line2d_7">
      <path clip-path="url(#pce8a2ee528)" d="M 236.702901 307.584 
L 236.702901 41.472 
" style="fill:none;stroke:#b0b0b0;stroke-linecap:square;stroke-width:0.8;"/>
     </g>
     <g id="line2d_8">
      <g>
       <use style="stroke:#000000;stroke-width:0.8;" x="236.702901" xlink:href="#m70d612c432" y="307.584"/>
      </g>
     </g>
     <g id="text_4">
      <!-- 150 -->
      <g transform="translate(227.159151 322.182437)scale(0.1 -0.1)">
       <use xlink:href="#DejaVuSans-49"/>
       <use x="63.623047" xlink:href="#DejaVuSans-53"/>
       <use x="127.246094" xlink:href="#DejaVuSans-48"/>
      </g>
     </g>
    </g>
    <g id="xtick_5">
     <g id="line2d_9">
      <path clip-path="url(#pce8a2ee528)" d="M 290.992958 307.584 
L 290.992958 41.472 
" style="fill:none;stroke:#b0b0b0;stroke-linecap:square;stroke-width:0.8;"/>
     </g>
     <g id="line2d_10">
      <g>
       <use style="stroke:#000000;stroke-width:0.8;" x="290.992958" xlink:href="#m70d612c432" y="307.584"/>
      </g>
     </g>
     <g id="text_5">
      <!-- 200 -->
      <defs>
       <path d="M 19.1875 8.296875 
L 53.609375 8.296875 
L 53.609375 0 
L 7.328125 0 
L 7.328125 8.296875 
Q 12.9375 14.109375 22.625 23.890625 
Q 32.328125 33.6875 34.8125 36.53125 
Q 39.546875 41.84375 41.421875 45.53125 
Q 43.3125 49.21875 43.3125 52.78125 
Q 43.3125 58.59375 39.234375 62.25 
Q 35.15625 65.921875 28.609375 65.921875 
Q 23.96875 65.921875 18.8125 64.3125 
Q 13.671875 62.703125 7.8125 59.421875 
L 7.8125 69.390625 
Q 13.765625 71.78125 18.9375 73 
Q 24.125 74.21875 28.421875 74.21875 
Q 39.75 74.21875 46.484375 68.546875 
Q 53.21875 62.890625 53.21875 53.421875 
Q 53.21875 48.921875 51.53125 44.890625 
Q 49.859375 40.875 45.40625 35.40625 
Q 44.1875 33.984375 37.640625 27.21875 
Q 31.109375 20.453125 19.1875 8.296875 
z
" id="DejaVuSans-50"/>
      </defs>
      <g transform="translate(281.449208 322.182437)scale(0.1 -0.1)">
       <use xlink:href="#DejaVuSans-50"/>
       <use x="63.623047" xlink:href="#DejaVuSans-48"/>
       <use x="127.246094" xlink:href="#DejaVuSans-48"/>
      </g>
     </g>
    </g>
    <g id="xtick_6">
     <g id="line2d_11">
      <path clip-path="url(#pce8a2ee528)" d="M 345.283016 307.584 
L 345.283016 41.472 
" style="fill:none;stroke:#b0b0b0;stroke-linecap:square;stroke-width:0.8;"/>
     </g>
     <g id="line2d_12">
      <g>
       <use style="stroke:#000000;stroke-width:0.8;" x="345.283016" xlink:href="#m70d612c432" y="307.584"/>
      </g>
     </g>
     <g id="text_6">
      <!-- 250 -->
      <g transform="translate(335.739266 322.182437)scale(0.1 -0.1)">
       <use xlink:href="#DejaVuSans-50"/>
       <use x="63.623047" xlink:href="#DejaVuSans-53"/>
       <use x="127.246094" xlink:href="#DejaVuSans-48"/>
      </g>
     </g>
    </g>
    <g id="xtick_7">
     <g id="line2d_13">
      <path clip-path="url(#pce8a2ee528)" d="M 399.573074 307.584 
L 399.573074 41.472 
" style="fill:none;stroke:#b0b0b0;stroke-linecap:square;stroke-width:0.8;"/>
     </g>
     <g id="line2d_14">
      <g>
       <use style="stroke:#000000;stroke-width:0.8;" x="399.573074" xlink:href="#m70d612c432" y="307.584"/>
      </g>
     </g>
     <g id="text_7">
      <!-- 300 -->
      <defs>
       <path d="M 40.578125 39.3125 
Q 47.65625 37.796875 51.625 33 
Q 55.609375 28.21875 55.609375 21.1875 
Q 55.609375 10.40625 48.1875 4.484375 
Q 40.765625 -1.421875 27.09375 -1.421875 
Q 22.515625 -1.421875 17.65625 -0.515625 
Q 12.796875 0.390625 7.625 2.203125 
L 7.625 11.71875 
Q 11.71875 9.328125 16.59375 8.109375 
Q 21.484375 6.890625 26.8125 6.890625 
Q 36.078125 6.890625 40.9375 10.546875 
Q 45.796875 14.203125 45.796875 21.1875 
Q 45.796875 27.640625 41.28125 31.265625 
Q 36.765625 34.90625 28.71875 34.90625 
L 20.21875 34.90625 
L 20.21875 43.015625 
L 29.109375 43.015625 
Q 36.375 43.015625 40.234375 45.921875 
Q 44.09375 48.828125 44.09375 54.296875 
Q 44.09375 59.90625 40.109375 62.90625 
Q 36.140625 65.921875 28.71875 65.921875 
Q 24.65625 65.921875 20.015625 65.03125 
Q 15.375 64.15625 9.8125 62.3125 
L 9.8125 71.09375 
Q 15.4375 72.65625 20.34375 73.4375 
Q 25.25 74.21875 29.59375 74.21875 
Q 40.828125 74.21875 47.359375 69.109375 
Q 53.90625 64.015625 53.90625 55.328125 
Q 53.90625 49.265625 50.4375 45.09375 
Q 46.96875 40.921875 40.578125 39.3125 
z
" id="DejaVuSans-51"/>
      </defs>
      <g transform="translate(390.029324 322.182437)scale(0.1 -0.1)">
       <use xlink:href="#DejaVuSans-51"/>
       <use x="63.623047" xlink:href="#DejaVuSans-48"/>
       <use x="127.246094" xlink:href="#DejaVuSans-48"/>
      </g>
     </g>
    </g>
    <g id="text_8">
     <!-- Generations -->
     <defs>
      <path d="M 59.515625 10.40625 
L 59.515625 29.984375 
L 43.40625 29.984375 
L 43.40625 38.09375 
L 69.28125 38.09375 
L 69.28125 6.78125 
Q 63.578125 2.734375 56.6875 0.65625 
Q 49.8125 -1.421875 42 -1.421875 
Q 24.90625 -1.421875 15.25 8.5625 
Q 5.609375 18.5625 5.609375 36.375 
Q 5.609375 54.25 15.25 64.234375 
Q 24.90625 74.21875 42 74.21875 
Q 49.125 74.21875 55.546875 72.453125 
Q 61.96875 70.703125 67.390625 67.28125 
L 67.390625 56.78125 
Q 61.921875 61.421875 55.765625 63.765625 
Q 49.609375 66.109375 42.828125 66.109375 
Q 29.4375 66.109375 22.71875 58.640625 
Q 16.015625 51.171875 16.015625 36.375 
Q 16.015625 21.625 22.71875 14.15625 
Q 29.4375 6.6875 42.828125 6.6875 
Q 48.046875 6.6875 52.140625 7.59375 
Q 56.25 8.5 59.515625 10.40625 
z
" id="DejaVuSans-71"/>
      <path d="M 56.203125 29.59375 
L 56.203125 25.203125 
L 14.890625 25.203125 
Q 15.484375 15.921875 20.484375 11.0625 
Q 25.484375 6.203125 34.421875 6.203125 
Q 39.59375 6.203125 44.453125 7.46875 
Q 49.3125 8.734375 54.109375 11.28125 
L 54.109375 2.78125 
Q 49.265625 0.734375 44.1875 -0.34375 
Q 39.109375 -1.421875 33.890625 -1.421875 
Q 20.796875 -1.421875 13.15625 6.1875 
Q 5.515625 13.8125 5.515625 26.8125 
Q 5.515625 40.234375 12.765625 48.109375 
Q 20.015625 56 32.328125 56 
Q 43.359375 56 49.78125 48.890625 
Q 56.203125 41.796875 56.203125 29.59375 
z
M 47.21875 32.234375 
Q 47.125 39.59375 43.09375 43.984375 
Q 39.0625 48.390625 32.421875 48.390625 
Q 24.90625 48.390625 20.390625 44.140625 
Q 15.875 39.890625 15.1875 32.171875 
z
" id="DejaVuSans-101"/>
      <path d="M 54.890625 33.015625 
L 54.890625 0 
L 45.90625 0 
L 45.90625 32.71875 
Q 45.90625 40.484375 42.875 44.328125 
Q 39.84375 48.1875 33.796875 48.1875 
Q 26.515625 48.1875 22.3125 43.546875 
Q 18.109375 38.921875 18.109375 30.90625 
L 18.109375 0 
L 9.078125 0 
L 9.078125 54.6875 
L 18.109375 54.6875 
L 18.109375 46.1875 
Q 21.34375 51.125 25.703125 53.5625 
Q 30.078125 56 35.796875 56 
Q 45.21875 56 50.046875 50.171875 
Q 54.890625 44.34375 54.890625 33.015625 
z
" id="DejaVuSans-110"/>
      <path d="M 41.109375 46.296875 
Q 39.59375 47.171875 37.8125 47.578125 
Q 36.03125 48 33.890625 48 
Q 26.265625 48 22.1875 43.046875 
Q 18.109375 38.09375 18.109375 28.8125 
L 18.109375 0 
L 9.078125 0 
L 9.078125 54.6875 
L 18.109375 54.6875 
L 18.109375 46.1875 
Q 20.953125 51.171875 25.484375 53.578125 
Q 30.03125 56 36.53125 56 
Q 37.453125 56 38.578125 55.875 
Q 39.703125 55.765625 41.0625 55.515625 
z
" id="DejaVuSans-114"/>
      <path d="M 34.28125 27.484375 
Q 23.390625 27.484375 19.1875 25 
Q 14.984375 22.515625 14.984375 16.5 
Q 14.984375 11.71875 18.140625 8.90625 
Q 21.296875 6.109375 26.703125 6.109375 
Q 34.1875 6.109375 38.703125 11.40625 
Q 43.21875 16.703125 43.21875 25.484375 
L 43.21875 27.484375 
z
M 52.203125 31.203125 
L 52.203125 0 
L 43.21875 0 
L 43.21875 8.296875 
Q 40.140625 3.328125 35.546875 0.953125 
Q 30.953125 -1.421875 24.3125 -1.421875 
Q 15.921875 -1.421875 10.953125 3.296875 
Q 6 8.015625 6 15.921875 
Q 6 25.140625 12.171875 29.828125 
Q 18.359375 34.515625 30.609375 34.515625 
L 43.21875 34.515625 
L 43.21875 35.40625 
Q 43.21875 41.609375 39.140625 45 
Q 35.0625 48.390625 27.6875 48.390625 
Q 23 48.390625 18.546875 47.265625 
Q 14.109375 46.140625 10.015625 43.890625 
L 10.015625 52.203125 
Q 14.9375 54.109375 19.578125 55.046875 
Q 24.21875 56 28.609375 56 
Q 40.484375 56 46.34375 49.84375 
Q 52.203125 43.703125 52.203125 31.203125 
z
" id="DejaVuSans-97"/>
      <path d="M 18.3125 70.21875 
L 18.3125 54.6875 
L 36.8125 54.6875 
L 36.8125 47.703125 
L 18.3125 47.703125 
L 18.3125 18.015625 
Q 18.3125 11.328125 20.140625 9.421875 
Q 21.96875 7.515625 27.59375 7.515625 
L 36.8125 7.515625 
L 36.8125 0 
L 27.59375 0 
Q 17.1875 0 13.234375 3.875 
Q 9.28125 7.765625 9.28125 18.015625 
L 9.28125 47.703125 
L 2.6875 47.703125 
L 2.6875 54.6875 
L 9.28125 54.6875 
L 9.28125 70.21875 
z
" id="DejaVuSans-116"/>
      <path d="M 9.421875 54.6875 
L 18.40625 54.6875 
L 18.40625 0 
L 9.421875 0 
z
M 9.421875 75.984375 
L 18.40625 75.984375 
L 18.40625 64.59375 
L 9.421875 64.59375 
z
" id="DejaVuSans-105"/>
      <path d="M 30.609375 48.390625 
Q 23.390625 48.390625 19.1875 42.75 
Q 14.984375 37.109375 14.984375 27.296875 
Q 14.984375 17.484375 19.15625 11.84375 
Q 23.34375 6.203125 30.609375 6.203125 
Q 37.796875 6.203125 41.984375 11.859375 
Q 46.1875 17.53125 46.1875 27.296875 
Q 46.1875 37.015625 41.984375 42.703125 
Q 37.796875 48.390625 30.609375 48.390625 
z
M 30.609375 56 
Q 42.328125 56 49.015625 48.375 
Q 55.71875 40.765625 55.71875 27.296875 
Q 55.71875 13.875 49.015625 6.21875 
Q 42.328125 -1.421875 30.609375 -1.421875 
Q 18.84375 -1.421875 12.171875 6.21875 
Q 5.515625 13.875 5.515625 27.296875 
Q 5.515625 40.765625 12.171875 48.375 
Q 18.84375 56 30.609375 56 
z
" id="DejaVuSans-111"/>
      <path d="M 44.28125 53.078125 
L 44.28125 44.578125 
Q 40.484375 46.53125 36.375 47.5 
Q 32.28125 48.484375 27.875 48.484375 
Q 21.1875 48.484375 17.84375 46.4375 
Q 14.5 44.390625 14.5 40.28125 
Q 14.5 37.15625 16.890625 35.375 
Q 19.28125 33.59375 26.515625 31.984375 
L 29.59375 31.296875 
Q 39.15625 29.25 43.1875 25.515625 
Q 47.21875 21.78125 47.21875 15.09375 
Q 47.21875 7.46875 41.1875 3.015625 
Q 35.15625 -1.421875 24.609375 -1.421875 
Q 20.21875 -1.421875 15.453125 -0.5625 
Q 10.6875 0.296875 5.421875 2 
L 5.421875 11.28125 
Q 10.40625 8.6875 15.234375 7.390625 
Q 20.0625 6.109375 24.8125 6.109375 
Q 31.15625 6.109375 34.5625 8.28125 
Q 37.984375 10.453125 37.984375 14.40625 
Q 37.984375 18.0625 35.515625 20.015625 
Q 33.0625 21.96875 24.703125 23.78125 
L 21.578125 24.515625 
Q 13.234375 26.265625 9.515625 29.90625 
Q 5.8125 33.546875 5.8125 39.890625 
Q 5.8125 47.609375 11.28125 51.796875 
Q 16.75 56 26.8125 56 
Q 31.78125 56 36.171875 55.265625 
Q 40.578125 54.546875 44.28125 53.078125 
z
" id="DejaVuSans-115"/>
     </defs>
     <g transform="translate(205.662344 335.860562)scale(0.1 -0.1)">
      <use xlink:href="#DejaVuSans-71"/>
      <use x="77.490234" xlink:href="#DejaVuSans-101"/>
      <use x="139.013672" xlink:href="#DejaVuSans-110"/>
      <use x="202.392578" xlink:href="#DejaVuSans-101"/>
      <use x="263.916016" xlink:href="#DejaVuSans-114"/>
      <use x="305.029297" xlink:href="#DejaVuSans-97"/>
      <use x="366.308594" xlink:href="#DejaVuSans-116"/>
      <use x="405.517578" xlink:href="#DejaVuSans-105"/>
      <use x="433.300781" xlink:href="#DejaVuSans-111"/>
      <use x="494.482422" xlink:href="#DejaVuSans-110"/>
      <use x="557.861328" xlink:href="#DejaVuSans-115"/>
     </g>
    </g>
   </g>
   <g id="matplotlib.axis_2">
    <g id="ytick_1">
     <g id="line2d_15">
      <path clip-path="url(#pce8a2ee528)" d="M 57.6 306.064521 
L 414.72 306.064521 
" style="fill:none;stroke:#b0b0b0;stroke-linecap:square;stroke-width:0.8;"/>
     </g>
     <g id="line2d_16">
      <defs>
       <path d="M 0 0 
L -3.5 0 
" id="m436e2de331" style="stroke:#000000;stroke-width:0.8;"/>
      </defs>
      <g>
       <use style="stroke:#000000;stroke-width:0.8;" x="57.6" xlink:href="#m436e2de331" y="306.064521"/>
      </g>
     </g>
     <g id="text_9">
      <!-- 0.2 -->
      <defs>
       <path d="M 10.59375 35.5 
L 73.1875 35.5 
L 73.1875 27.203125 
L 10.59375 27.203125 
z
" id="DejaVuSans-8722"/>
       <path d="M 10.6875 12.40625 
L 21 12.40625 
L 21 0 
L 10.6875 0 
z
" id="DejaVuSans-46"/>
      </defs>
      <g transform="translate(26.317187 309.86374)scale(0.1 -0.1)">
       <use xlink:href="#DejaVuSans-8722"/>
       <use x="83.789062" xlink:href="#DejaVuSans-48"/>
       <use x="147.412109" xlink:href="#DejaVuSans-46"/>
       <use x="179.199219" xlink:href="#DejaVuSans-50"/>
      </g>
     </g>
    </g>
    <g id="ytick_2">
     <g id="line2d_17">
      <path clip-path="url(#pce8a2ee528)" d="M 57.6 259.089533 
L 414.72 259.089533 
" style="fill:none;stroke:#b0b0b0;stroke-linecap:square;stroke-width:0.8;"/>
     </g>
     <g id="line2d_18">
      <g>
       <use style="stroke:#000000;stroke-width:0.8;" x="57.6" xlink:href="#m436e2de331" y="259.089533"/>
      </g>
     </g>
     <g id="text_10">
      <!-- 0.0 -->
      <g transform="translate(34.696875 262.888752)scale(0.1 -0.1)">
       <use xlink:href="#DejaVuSans-48"/>
       <use x="63.623047" xlink:href="#DejaVuSans-46"/>
       <use x="95.410156" xlink:href="#DejaVuSans-48"/>
      </g>
     </g>
    </g>
    <g id="ytick_3">
     <g id="line2d_19">
      <path clip-path="url(#pce8a2ee528)" d="M 57.6 212.114545 
L 414.72 212.114545 
" style="fill:none;stroke:#b0b0b0;stroke-linecap:square;stroke-width:0.8;"/>
     </g>
     <g id="line2d_20">
      <g>
       <use style="stroke:#000000;stroke-width:0.8;" x="57.6" xlink:href="#m436e2de331" y="212.114545"/>
      </g>
     </g>
     <g id="text_11">
      <!-- 0.2 -->
      <g transform="translate(34.696875 215.913764)scale(0.1 -0.1)">
       <use xlink:href="#DejaVuSans-48"/>
       <use x="63.623047" xlink:href="#DejaVuSans-46"/>
       <use x="95.410156" xlink:href="#DejaVuSans-50"/>
      </g>
     </g>
    </g>
    <g id="ytick_4">
     <g id="line2d_21">
      <path clip-path="url(#pce8a2ee528)" d="M 57.6 165.139557 
L 414.72 165.139557 
" style="fill:none;stroke:#b0b0b0;stroke-linecap:square;stroke-width:0.8;"/>
     </g>
     <g id="line2d_22">
      <g>
       <use style="stroke:#000000;stroke-width:0.8;" x="57.6" xlink:href="#m436e2de331" y="165.139557"/>
      </g>
     </g>
     <g id="text_12">
      <!-- 0.4 -->
      <defs>
       <path d="M 37.796875 64.3125 
L 12.890625 25.390625 
L 37.796875 25.390625 
z
M 35.203125 72.90625 
L 47.609375 72.90625 
L 47.609375 25.390625 
L 58.015625 25.390625 
L 58.015625 17.1875 
L 47.609375 17.1875 
L 47.609375 0 
L 37.796875 0 
L 37.796875 17.1875 
L 4.890625 17.1875 
L 4.890625 26.703125 
z
" id="DejaVuSans-52"/>
      </defs>
      <g transform="translate(34.696875 168.938776)scale(0.1 -0.1)">
       <use xlink:href="#DejaVuSans-48"/>
       <use x="63.623047" xlink:href="#DejaVuSans-46"/>
       <use x="95.410156" xlink:href="#DejaVuSans-52"/>
      </g>
     </g>
    </g>
    <g id="ytick_5">
     <g id="line2d_23">
      <path clip-path="url(#pce8a2ee528)" d="M 57.6 118.164569 
L 414.72 118.164569 
" style="fill:none;stroke:#b0b0b0;stroke-linecap:square;stroke-width:0.8;"/>
     </g>
     <g id="line2d_24">
      <g>
       <use style="stroke:#000000;stroke-width:0.8;" x="57.6" xlink:href="#m436e2de331" y="118.164569"/>
      </g>
     </g>
     <g id="text_13">
      <!-- 0.6 -->
      <defs>
       <path d="M 33.015625 40.375 
Q 26.375 40.375 22.484375 35.828125 
Q 18.609375 31.296875 18.609375 23.390625 
Q 18.609375 15.53125 22.484375 10.953125 
Q 26.375 6.390625 33.015625 6.390625 
Q 39.65625 6.390625 43.53125 10.953125 
Q 47.40625 15.53125 47.40625 23.390625 
Q 47.40625 31.296875 43.53125 35.828125 
Q 39.65625 40.375 33.015625 40.375 
z
M 52.59375 71.296875 
L 52.59375 62.3125 
Q 48.875 64.0625 45.09375 64.984375 
Q 41.3125 65.921875 37.59375 65.921875 
Q 27.828125 65.921875 22.671875 59.328125 
Q 17.53125 52.734375 16.796875 39.40625 
Q 19.671875 43.65625 24.015625 45.921875 
Q 28.375 48.1875 33.59375 48.1875 
Q 44.578125 48.1875 50.953125 41.515625 
Q 57.328125 34.859375 57.328125 23.390625 
Q 57.328125 12.15625 50.6875 5.359375 
Q 44.046875 -1.421875 33.015625 -1.421875 
Q 20.359375 -1.421875 13.671875 8.265625 
Q 6.984375 17.96875 6.984375 36.375 
Q 6.984375 53.65625 15.1875 63.9375 
Q 23.390625 74.21875 37.203125 74.21875 
Q 40.921875 74.21875 44.703125 73.484375 
Q 48.484375 72.75 52.59375 71.296875 
z
" id="DejaVuSans-54"/>
      </defs>
      <g transform="translate(34.696875 121.963788)scale(0.1 -0.1)">
       <use xlink:href="#DejaVuSans-48"/>
       <use x="63.623047" xlink:href="#DejaVuSans-46"/>
       <use x="95.410156" xlink:href="#DejaVuSans-54"/>
      </g>
     </g>
    </g>
    <g id="ytick_6">
     <g id="line2d_25">
      <path clip-path="url(#pce8a2ee528)" d="M 57.6 71.189581 
L 414.72 71.189581 
" style="fill:none;stroke:#b0b0b0;stroke-linecap:square;stroke-width:0.8;"/>
     </g>
     <g id="line2d_26">
      <g>
       <use style="stroke:#000000;stroke-width:0.8;" x="57.6" xlink:href="#m436e2de331" y="71.189581"/>
      </g>
     </g>
     <g id="text_14">
      <!-- 0.8 -->
      <defs>
       <path d="M 31.78125 34.625 
Q 24.75 34.625 20.71875 30.859375 
Q 16.703125 27.09375 16.703125 20.515625 
Q 16.703125 13.921875 20.71875 10.15625 
Q 24.75 6.390625 31.78125 6.390625 
Q 38.8125 6.390625 42.859375 10.171875 
Q 46.921875 13.96875 46.921875 20.515625 
Q 46.921875 27.09375 42.890625 30.859375 
Q 38.875 34.625 31.78125 34.625 
z
M 21.921875 38.8125 
Q 15.578125 40.375 12.03125 44.71875 
Q 8.5 49.078125 8.5 55.328125 
Q 8.5 64.0625 14.71875 69.140625 
Q 20.953125 74.21875 31.78125 74.21875 
Q 42.671875 74.21875 48.875 69.140625 
Q 55.078125 64.0625 55.078125 55.328125 
Q 55.078125 49.078125 51.53125 44.71875 
Q 48 40.375 41.703125 38.8125 
Q 48.828125 37.15625 52.796875 32.3125 
Q 56.78125 27.484375 56.78125 20.515625 
Q 56.78125 9.90625 50.3125 4.234375 
Q 43.84375 -1.421875 31.78125 -1.421875 
Q 19.734375 -1.421875 13.25 4.234375 
Q 6.78125 9.90625 6.78125 20.515625 
Q 6.78125 27.484375 10.78125 32.3125 
Q 14.796875 37.15625 21.921875 38.8125 
z
M 18.3125 54.390625 
Q 18.3125 48.734375 21.84375 45.5625 
Q 25.390625 42.390625 31.78125 42.390625 
Q 38.140625 42.390625 41.71875 45.5625 
Q 45.3125 48.734375 45.3125 54.390625 
Q 45.3125 60.0625 41.71875 63.234375 
Q 38.140625 66.40625 31.78125 66.40625 
Q 25.390625 66.40625 21.84375 63.234375 
Q 18.3125 60.0625 18.3125 54.390625 
z
" id="DejaVuSans-56"/>
      </defs>
      <g transform="translate(34.696875 74.9888)scale(0.1 -0.1)">
       <use xlink:href="#DejaVuSans-48"/>
       <use x="63.623047" xlink:href="#DejaVuSans-46"/>
       <use x="95.410156" xlink:href="#DejaVuSans-56"/>
      </g>
     </g>
    </g>
    <g id="text_15">
     <!-- Scores -->
     <defs>
      <path d="M 53.515625 70.515625 
L 53.515625 60.890625 
Q 47.90625 63.578125 42.921875 64.890625 
Q 37.9375 66.21875 33.296875 66.21875 
Q 25.25 66.21875 20.875 63.09375 
Q 16.5 59.96875 16.5 54.203125 
Q 16.5 49.359375 19.40625 46.890625 
Q 22.3125 44.4375 30.421875 42.921875 
L 36.375 41.703125 
Q 47.40625 39.59375 52.65625 34.296875 
Q 57.90625 29 57.90625 20.125 
Q 57.90625 9.515625 50.796875 4.046875 
Q 43.703125 -1.421875 29.984375 -1.421875 
Q 24.8125 -1.421875 18.96875 -0.25 
Q 13.140625 0.921875 6.890625 3.21875 
L 6.890625 13.375 
Q 12.890625 10.015625 18.65625 8.296875 
Q 24.421875 6.59375 29.984375 6.59375 
Q 38.421875 6.59375 43.015625 9.90625 
Q 47.609375 13.234375 47.609375 19.390625 
Q 47.609375 24.75 44.3125 27.78125 
Q 41.015625 30.8125 33.5 32.328125 
L 27.484375 33.5 
Q 16.453125 35.6875 11.515625 40.375 
Q 6.59375 45.0625 6.59375 53.421875 
Q 6.59375 63.09375 13.40625 68.65625 
Q 20.21875 74.21875 32.171875 74.21875 
Q 37.3125 74.21875 42.625 73.28125 
Q 47.953125 72.359375 53.515625 70.515625 
z
" id="DejaVuSans-83"/>
      <path d="M 48.78125 52.59375 
L 48.78125 44.1875 
Q 44.96875 46.296875 41.140625 47.34375 
Q 37.3125 48.390625 33.40625 48.390625 
Q 24.65625 48.390625 19.8125 42.84375 
Q 14.984375 37.3125 14.984375 27.296875 
Q 14.984375 17.28125 19.8125 11.734375 
Q 24.65625 6.203125 33.40625 6.203125 
Q 37.3125 6.203125 41.140625 7.25 
Q 44.96875 8.296875 48.78125 10.40625 
L 48.78125 2.09375 
Q 45.015625 0.34375 40.984375 -0.53125 
Q 36.96875 -1.421875 32.421875 -1.421875 
Q 20.0625 -1.421875 12.78125 6.34375 
Q 5.515625 14.109375 5.515625 27.296875 
Q 5.515625 40.671875 12.859375 48.328125 
Q 20.21875 56 33.015625 56 
Q 37.15625 56 41.109375 55.140625 
Q 45.0625 54.296875 48.78125 52.59375 
z
" id="DejaVuSans-99"/>
     </defs>
     <g transform="translate(20.2375 191.245969)rotate(-90)scale(0.1 -0.1)">
      <use xlink:href="#DejaVuSans-83"/>
      <use x="63.476562" xlink:href="#DejaVuSans-99"/>
      <use x="118.457031" xlink:href="#DejaVuSans-111"/>
      <use x="179.638672" xlink:href="#DejaVuSans-114"/>
      <use x="220.720703" xlink:href="#DejaVuSans-101"/>
      <use x="282.244141" xlink:href="#DejaVuSans-115"/>
     </g>
    </g>
   </g>
   <g id="line2d_27">
    <path clip-path="url(#pce8a2ee528)" d="M 73.832727 143.296188 
L 74.918528 144.926891 
L 76.00433 140.222681 
L 77.090131 141.652063 
L 81.433335 141.652063 
L 83.604938 139.73951 
L 84.690739 140.215971 
L 86.862341 142.484192 
L 87.948142 140.699142 
L 89.033943 141.652063 
L 90.119745 142.121813 
L 91.205546 148.899633 
L 92.291347 149.6311 
L 93.377148 147.698415 
L 94.462949 150.5706 
L 95.54875 151.570496 
L 96.634552 154.234649 
L 97.720353 130.015688 
L 98.806154 132.236933 
L 99.891955 141.383635 
L 100.977756 141.866806 
L 102.063557 146.51733 
L 103.149358 157.033016 
L 104.23516 148.423172 
L 105.320961 143.779359 
L 106.406762 144.745702 
L 107.492563 143.98068 
L 108.578364 141.269553 
L 109.664165 143.000916 
L 110.749967 142.672092 
L 111.835768 141.62522 
L 112.921569 147.154848 
L 114.00737 144.202134 
L 115.093171 144.188713 
L 116.178972 145.027552 
L 117.264773 141.15547 
L 118.350575 133.820662 
L 119.436376 143.69212 
L 120.522177 141.229288 
L 122.693779 138.081964 
L 123.77958 137.478 
L 124.865382 134.451469 
L 125.951183 134.531997 
L 127.036984 140.927306 
L 128.122785 132.632866 
L 129.208586 131.431648 
L 130.294387 118.580633 
L 131.380189 121.56019 
L 132.46599 116.131223 
L 133.551791 117.486787 
L 134.637592 123.16405 
L 135.723393 123.190893 
L 136.809194 135.941247 
L 137.894995 134.337387 
L 138.980797 141.477585 
L 140.066598 143.651856 
L 141.152399 141.53127 
L 142.2382 137.800114 
L 143.324001 142.450638 
L 144.409802 142.974074 
L 145.495604 143.31632 
L 146.581405 143.135131 
L 147.667206 142.678802 
L 148.753007 139.732799 
L 149.838808 142.256027 
L 150.924609 141.376924 
L 152.01041 144.155159 
L 153.096212 141.779567 
L 154.182013 143.390138 
L 155.267814 144.658462 
L 156.353615 141.350081 
L 157.439416 141.182313 
L 158.525217 141.933913 
L 159.611019 143.027759 
L 160.69682 143.12842 
L 161.782621 136.457972 
L 162.868422 141.62522 
L 163.954223 141.652063 
L 165.040024 143.121709 
L 166.125825 140.041492 
L 167.211627 141.464163 
L 168.297428 141.980888 
L 169.383229 141.309817 
L 170.46903 143.074734 
L 171.554831 144.020945 
L 172.640632 144.390034 
L 173.726434 144.463852 
L 174.812235 142.705645 
L 175.898036 142.866702 
L 176.983837 143.423691 
L 178.069638 142.329845 
L 179.155439 142.705645 
L 180.24124 140.088467 
L 181.327042 142.222474 
L 182.412843 141.792988 
L 183.498644 142.370109 
L 184.584445 142.712356 
L 185.670246 141.142049 
L 186.756047 140.725985 
L 187.841849 141.457453 
L 188.92765 141.558113 
L 191.099252 140.826646 
L 192.185053 141.544692 
L 193.270854 140.766249 
L 195.442457 142.464059 
L 196.528258 141.672606 
L 197.614059 141.652063 
L 198.69986 142.054706 
L 199.785661 141.571535 
L 200.871462 142.256027 
L 201.957264 141.363503 
L 203.043065 141.450742 
L 204.128866 141.370213 
L 205.214667 141.645353 
L 206.300468 140.788308 
L 207.386269 141.672195 
L 208.472071 141.792988 
L 209.557872 140.927838 
L 210.643673 142.034574 
L 211.729474 142.222474 
L 212.815275 141.652063 
L 213.901076 141.853385 
L 214.986877 141.517849 
L 216.072679 141.772856 
L 217.15848 141.652063 
L 219.330082 141.652063 
L 221.501684 142.108392 
L 222.587486 141.652063 
L 226.93069 141.652063 
L 228.016491 141.074942 
L 229.102292 142.625117 
L 230.188094 140.648778 
L 231.273895 142.8383 
L 232.359696 141.652063 
L 233.445497 141.652063 
L 234.531298 142.457349 
L 235.617099 141.652063 
L 238.874503 141.652063 
L 239.960304 142.446392 
L 241.046105 142.168788 
L 242.131906 141.652063 
L 243.217708 145.181898 
L 244.303509 142.198131 
L 245.38931 143.720058 
L 246.475111 141.000925 
L 247.560912 141.990921 
L 248.646713 141.074012 
L 249.732514 141.974441 
L 250.818316 142.047995 
L 251.904117 141.403767 
L 252.989918 142.596211 
L 254.075719 144.387671 
L 255.16152 140.920596 
L 256.247321 142.990471 
L 257.333123 143.269345 
L 258.418924 140.563284 
L 259.504725 140.59354 
L 260.590526 141.289685 
L 261.676327 142.482597 
L 262.762128 140.502605 
L 264.933731 150.177746 
L 266.019532 145.000709 
L 267.105333 145.657948 
L 268.191134 146.604569 
L 269.276935 147.725258 
L 270.362736 143.731068 
L 271.448538 143.544484 
L 272.534339 144.257399 
L 273.62014 143.408691 
L 274.705941 145.925007 
L 275.791742 143.953838 
L 276.877543 141.343918 
L 277.963344 141.893649 
L 279.049146 142.00102 
L 280.134947 141.329686 
L 281.220748 141.882333 
L 282.306549 141.544692 
L 283.39235 142.638127 
L 284.478151 141.766145 
L 285.563953 141.658774 
L 287.735555 139.960964 
L 288.821356 141.289685 
L 289.907157 138.711192 
L 290.992958 142.343267 
L 292.07876 140.480978 
L 293.164561 139.211206 
L 294.250362 142.390242 
L 295.336163 143.446152 
L 296.421964 138.860407 
L 297.507765 141.457453 
L 298.593566 142.686061 
L 299.679368 140.383739 
L 300.765169 143.510931 
L 301.85097 143.096921 
L 302.936771 140.558217 
L 304.022572 140.531374 
L 305.108373 137.687265 
L 306.194175 132.793923 
L 307.279976 137.618925 
L 308.365777 143.678698 
L 309.451578 141.189024 
L 310.537379 141.638905 
L 311.62318 141.652063 
L 312.708981 143.829755 
L 313.794783 142.296292 
L 315.966385 142.544588 
L 317.052186 142.054706 
L 318.137987 143.454745 
L 319.223788 144.481089 
L 320.30959 142.954731 
L 321.395391 142.902098 
L 322.481192 142.421821 
L 323.566993 143.316046 
L 324.652794 143.27496 
L 325.738595 145.074527 
L 326.824396 143.739095 
L 327.910198 144.208845 
L 328.995999 141.001124 
L 330.0818 141.954045 
L 331.167601 138.155782 
L 332.253402 139.491214 
L 333.339203 139.880435 
L 334.425005 138.51145 
L 335.510806 139.522439 
L 336.596607 144.655273 
L 338.768209 146.335867 
L 339.85401 141.076859 
L 340.939811 144.309505 
L 342.025613 145.168477 
L 343.111414 141.290537 
L 344.197215 142.13234 
L 345.283016 141.750371 
L 346.368817 141.698117 
L 347.454618 142.027074 
L 348.54042 142.713451 
L 349.626221 141.877968 
L 350.712022 145.784799 
L 351.797823 140.215971 
L 353.969425 148.208429 
L 355.055227 149.38912 
L 356.141028 143.704752 
L 357.226829 144.014508 
L 358.31263 145.309402 
L 359.398431 139.625292 
L 360.484232 145.875333 
L 361.570033 140.323478 
L 362.655835 142.729844 
L 363.741636 141.748424 
L 364.827437 141.731013 
L 365.913238 141.580875 
L 366.999039 142.216826 
L 368.08484 142.290239 
L 369.170642 140.541428 
L 370.256443 142.411255 
L 371.342244 142.180387 
L 372.428045 140.469383 
L 373.513846 141.30968 
L 374.599647 141.740184 
L 375.685448 143.855075 
L 376.77125 140.56097 
L 377.857051 144.007523 
L 378.942852 138.166601 
L 380.028653 141.866806 
L 381.114454 139.880435 
L 382.200255 139.900567 
L 383.286057 140.222681 
L 384.371858 141.570638 
L 385.457659 138.502137 
L 386.54346 141.584956 
L 387.629261 142.768233 
L 388.715062 145.01413 
L 389.800863 140.732696 
L 390.886665 142.268353 
L 391.972466 145.452518 
L 393.058267 142.497613 
L 394.144068 141.323375 
L 395.229869 142.605705 
L 396.31567 141.507322 
L 398.487273 142.816569 
L 398.487273 142.816569 
" style="fill:none;stroke:#0000ff;stroke-linecap:square;stroke-width:1.5;"/>
   </g>
   <g id="line2d_28">
    <path clip-path="url(#pce8a2ee528)" d="M 73.832727 212.150336 
L 74.918528 225.31228 
L 76.00433 243.619104 
L 77.090131 256.526041 
L 78.175932 238.178953 
L 79.261733 256.221822 
L 80.347534 252.991732 
L 81.433335 259.089533 
L 82.519137 250.472978 
L 83.604938 243.757792 
L 84.690739 234.957811 
L 85.77654 242.849609 
L 86.862341 230.30505 
L 87.948142 230.331893 
L 89.033943 251.87328 
L 90.119745 243.547523 
L 91.205546 245.068618 
L 92.291347 217.098368 
L 93.377148 219.259217 
L 94.462949 177.151733 
L 95.54875 202.406381 
L 96.634552 188.14388 
L 97.720353 137.733007 
L 98.806154 112.147297 
L 99.891955 134.167382 
L 100.977756 142.75262 
L 102.063557 128.825655 
L 103.149358 148.711733 
L 104.23516 150.027033 
L 105.320961 156.232205 
L 106.406762 116.495839 
L 107.492563 113.80708 
L 108.578364 110.478566 
L 109.664165 138.51145 
L 110.749967 136.560869 
L 111.835768 154.156358 
L 112.921569 179.777858 
L 114.00737 160.231789 
L 115.093171 155.051119 
L 116.178972 132.324173 
L 117.264773 170.81682 
L 118.350575 157.672771 
L 119.436376 157.766721 
L 120.522177 142.497613 
L 121.607978 131.630732 
L 122.693779 144.524248 
L 124.865382 124.875282 
L 125.951183 146.456933 
L 127.036984 150.344673 
L 128.122785 139.213838 
L 129.208586 136.829298 
L 130.294387 133.907901 
L 131.380189 132.140747 
L 132.46599 136.587712 
L 133.551791 149.177009 
L 134.637592 125.345032 
L 135.723393 118.021407 
L 136.809194 112.558887 
L 137.894995 112.147297 
L 138.980797 139.585164 
L 140.066598 130.114111 
L 141.152399 118.473262 
L 142.2382 138.891723 
L 144.409802 183.52691 
L 145.495604 197.90573 
L 146.581405 167.094611 
L 147.667206 166.432488 
L 148.753007 197.176499 
L 149.838808 188.61363 
L 150.924609 164.571384 
L 152.01041 174.382445 
L 153.096212 161.278661 
L 154.182013 152.183408 
L 155.267814 136.847193 
L 156.353615 154.966117 
L 157.439416 193.637717 
L 158.525217 219.187636 
L 159.611019 235.127816 
L 160.69682 228.779481 
L 161.782621 224.09093 
L 163.954223 248.88925 
L 165.040024 244.831506 
L 166.125825 232.027466 
L 167.211627 228.287363 
L 168.297428 246.97446 
L 169.383229 228.918169 
L 170.46903 218.932629 
L 171.554831 199.918944 
L 172.640632 210.629241 
L 173.726434 203.752997 
L 174.812235 220.561095 
L 176.983837 183.169005 
L 178.069638 176.364342 
L 179.155439 184.287457 
L 180.24124 186.197773 
L 181.327042 185.486438 
L 182.412843 188.483889 
L 183.498644 161.028127 
L 184.584445 157.762247 
L 185.670246 185.231431 
L 186.756047 189.767872 
L 187.841849 207.412573 
L 188.92765 205.725947 
L 190.013451 192.376103 
L 191.099252 194.666693 
L 192.185053 198.549958 
L 194.356656 218.154187 
L 195.442457 231.061124 
L 196.528258 236.971572 
L 197.614059 208.30286 
L 198.69986 204.916188 
L 199.785661 225.410704 
L 200.871462 236.716017 
L 201.957264 224.976744 
L 203.043065 241.726683 
L 204.128866 237.64657 
L 205.214667 252.266975 
L 206.300468 238.787391 
L 207.386269 238.384748 
L 208.472071 251.528797 
L 209.557872 231.240076 
L 210.643673 235.35598 
L 211.729474 235.011496 
L 212.815275 246.052856 
L 213.901076 233.110128 
L 214.986877 226.001246 
L 216.072679 252.360925 
L 217.15848 252.785937 
L 218.244281 252.128287 
L 219.330082 248.710298 
L 220.415883 256.087608 
L 221.501684 258.33346 
L 222.587486 259.089533 
L 224.759088 259.089533 
L 225.844889 255.497065 
L 226.93069 259.089533 
L 228.016491 254.347296 
L 229.102292 247.363681 
L 230.188094 250.781671 
L 231.273895 259.089533 
L 233.445497 259.089533 
L 234.531298 253.184106 
L 235.617099 255.582067 
L 236.702901 256.163297 
L 237.788702 255.344956 
L 238.874503 259.089533 
L 239.960304 257.167622 
L 242.131906 255.90962 
L 243.217708 245.766532 
L 244.303509 215.917282 
L 245.38931 226.266388 
L 246.475111 220.561095 
L 247.560912 222.601152 
L 248.646713 228.667636 
L 249.732514 222.755191 
L 250.818316 235.230713 
L 251.904117 241.1943 
L 252.989918 244.330531 
L 254.075719 248.758688 
L 255.16152 244.630185 
L 256.247321 229.261101 
L 258.418924 213.401906 
L 259.504725 212.022437 
L 260.590526 212.204021 
L 261.676327 213.794506 
L 262.762128 213.608797 
L 263.847929 238.628439 
L 264.933731 228.544378 
L 266.019532 223.692761 
L 267.105333 212.11911 
L 268.191134 217.74707 
L 269.276935 221.777971 
L 270.362736 230.553653 
L 271.448538 223.482492 
L 272.534339 232.987932 
L 273.62014 226.492137 
L 274.705941 227.686137 
L 275.791742 229.04791 
L 276.877543 210.580668 
L 277.963344 234.13463 
L 279.049146 203.023767 
L 280.134947 207.386344 
L 281.220748 229.860652 
L 282.306549 220.422407 
L 283.39235 207.097489 
L 284.478151 196.840963 
L 285.563953 183.218217 
L 286.649754 175.58453 
L 287.735555 187.141747 
L 288.821356 187.785975 
L 289.907157 190.324467 
L 290.992958 181.907391 
L 292.07876 203.373075 
L 293.164561 212.601401 
L 294.250362 216.060444 
L 295.336163 219.13112 
L 297.507765 230.792695 
L 298.593566 232.041253 
L 299.679368 243.789109 
L 300.765169 250.562454 
L 301.85097 247.279592 
L 302.936771 237.932893 
L 304.022572 231.195338 
L 305.108373 231.160187 
L 306.194175 224.918585 
L 307.279976 228.126305 
L 308.365777 249.39479 
L 309.451578 254.803625 
L 310.537379 247.277802 
L 311.62318 245.592053 
L 312.708981 232.474759 
L 313.794783 228.094989 
L 314.880584 239.306353 
L 315.966385 229.593715 
L 317.052186 247.860274 
L 318.137987 243.168039 
L 319.223788 230.540495 
L 320.30959 228.264116 
L 321.395391 231.540523 
L 323.566993 222.130398 
L 324.652794 234.775754 
L 325.738595 223.325909 
L 326.824396 226.623106 
L 327.910198 228.98975 
L 328.995999 214.042757 
L 330.0818 219.469486 
L 331.167601 208.061275 
L 332.253402 203.641152 
L 333.339203 195.029071 
L 334.425005 190.089987 
L 335.510806 195.876447 
L 336.596607 207.255989 
L 337.682408 212.7354 
L 338.768209 209.338958 
L 339.85401 220.728909 
L 340.939811 202.643493 
L 342.025613 233.083285 
L 343.111414 229.711525 
L 344.197215 222.408691 
L 345.283016 222.002575 
L 346.368817 223.59732 
L 347.454618 232.755469 
L 348.54042 217.66572 
L 349.626221 235.991261 
L 350.712022 218.131817 
L 351.797823 222.883002 
L 352.883624 208.024206 
L 353.969425 217.572591 
L 355.055227 204.030988 
L 356.141028 229.452746 
L 357.226829 215.748373 
L 359.398431 224.493573 
L 360.484232 224.250847 
L 362.655835 214.024861 
L 364.827437 223.89996 
L 365.913238 203.176059 
L 366.999039 215.805437 
L 368.08484 203.530974 
L 369.170642 188.706001 
L 370.256443 237.498934 
L 371.342244 224.816652 
L 372.428045 228.117358 
L 373.513846 212.945395 
L 374.599647 186.354357 
L 375.685448 194.653271 
L 376.77125 193.657893 
L 377.857051 176.216707 
L 380.028653 204.62539 
L 381.114454 171.411837 
L 382.200255 165.524305 
L 383.286057 165.662993 
L 386.54346 235.369401 
L 387.629261 237.729381 
L 388.715062 247.757377 
L 389.800863 237.190241 
L 390.886665 231.032364 
L 391.972466 245.480939 
L 393.058267 245.681529 
L 394.144068 241.655376 
L 395.229869 219.03579 
L 396.31567 222.899932 
L 397.401472 226.06388 
L 398.487273 232.044923 
L 398.487273 232.044923 
" style="fill:none;stroke:#ff0000;stroke-linecap:square;stroke-width:1.5;"/>
   </g>
   <g id="line2d_29">
    <path clip-path="url(#pce8a2ee528)" d="M 73.832727 247.117622 
L 74.918528 250.191128 
L 76.00433 255.00942 
L 77.090131 258.311091 
L 78.175932 252.459349 
L 79.261733 258.109769 
L 80.347534 256.834734 
L 81.433335 259.089533 
L 82.519137 255.707334 
L 83.604938 253.291478 
L 84.690739 248.755036 
L 85.77654 251.237999 
L 86.862341 244.540708 
L 87.948142 246.151279 
L 89.033943 255.10337 
L 90.119745 250.76825 
L 91.205546 252.231185 
L 92.291347 240.232431 
L 93.377148 240.514281 
L 94.462949 217.697858 
L 95.54875 229.683191 
L 96.634552 226.019142 
L 97.720353 199.525248 
L 98.806154 189.566551 
L 99.891955 200.142634 
L 100.977756 198.022049 
L 102.063557 193.015857 
L 103.149358 207.859953 
L 104.23516 204.705919 
L 105.320961 212.221917 
L 106.406762 189.217594 
L 107.492563 181.379482 
L 108.578364 182.238453 
L 109.664165 202.021634 
L 110.749967 199.994998 
L 111.835768 211.094517 
L 112.921569 218.731308 
L 114.00737 209.43026 
L 115.093171 206.061482 
L 116.178972 198.397849 
L 117.264773 215.147787 
L 118.350575 208.651818 
L 120.522177 200.29027 
L 121.607978 190.331572 
L 122.693779 200.223163 
L 123.77958 192.546107 
L 124.865382 187.003059 
L 125.951183 197.09597 
L 127.036984 200.505012 
L 128.122785 194.653271 
L 129.208586 189.834979 
L 130.294387 188.949165 
L 131.380189 192.8548 
L 132.46599 193.834564 
L 133.551791 197.632827 
L 134.637592 195.646457 
L 135.723393 185.513281 
L 136.809194 178.614668 
L 137.894995 182.184767 
L 138.980797 200.330534 
L 140.066598 191.110015 
L 141.152399 191.217386 
L 142.2382 197.122813 
L 143.324001 208.343125 
L 145.495604 227.334441 
L 146.581405 208.718925 
L 147.667206 202.920869 
L 148.753007 226.47547 
L 149.838808 219.831865 
L 150.924609 207.081511 
L 152.01041 214.879359 
L 153.096212 208.155225 
L 154.182013 204.920661 
L 155.267814 195.351185 
L 156.353615 202.93429 
L 157.439416 228.086041 
L 158.525217 239.802945 
L 159.611019 248.432922 
L 160.69682 245.775479 
L 161.782621 241.480623 
L 162.868422 248.13765 
L 163.954223 253.908863 
L 165.040024 251.425899 
L 166.125825 246.513658 
L 167.211627 246.097594 
L 168.297428 253.425692 
L 169.383229 244.017273 
L 170.46903 237.883681 
L 171.554831 233.53514 
L 172.640632 232.743276 
L 173.726434 231.199812 
L 174.812235 239.105031 
L 175.898036 233.508297 
L 176.983837 218.060237 
L 178.069638 217.483115 
L 179.155439 218.664201 
L 180.24124 223.469071 
L 181.327042 218.315244 
L 182.412843 220.744522 
L 183.498644 207.215725 
L 184.584445 203.793262 
L 185.670246 217.416008 
L 187.841849 228.716848 
L 188.92765 231.481662 
L 190.013451 222.851685 
L 191.099252 224.260935 
L 192.185053 227.938405 
L 193.270854 229.173177 
L 194.356656 237.011289 
L 196.528258 249.091941 
L 197.614059 235.373875 
L 198.69986 231.615876 
L 199.785661 241.507466 
L 200.871462 249.318736 
L 201.957264 241.628259 
L 203.043065 250.446135 
L 204.128866 248.620822 
L 205.214667 255.908655 
L 206.300468 248.083965 
L 207.386269 248.003436 
L 208.472071 256.284455 
L 209.557872 242.795923 
L 210.643673 246.473394 
L 211.729474 245.372837 
L 212.815275 252.620406 
L 213.901076 244.701765 
L 214.986877 245.359415 
L 216.072679 255.264427 
L 217.15848 256.458934 
L 218.244281 255.143634 
L 219.330082 253.264635 
L 220.415883 257.519226 
L 221.501684 259.022426 
L 223.673287 259.089533 
L 224.759088 259.089533 
L 225.844889 257.049477 
L 226.93069 259.089533 
L 229.102292 253.439113 
L 230.188094 256.04287 
L 231.273895 259.089533 
L 233.445497 259.089533 
L 234.531298 255.492591 
L 235.617099 257.089741 
L 236.702901 257.898039 
L 237.788702 256.807891 
L 238.874503 259.089533 
L 241.046105 257.626598 
L 242.131906 257.852657 
L 243.217708 251.291685 
L 244.303509 236.102053 
L 245.38931 243.408378 
L 246.475111 238.299746 
L 247.560912 241.346409 
L 248.646713 240.984031 
L 249.732514 238.799496 
L 250.818316 247.077358 
L 251.904117 249.372421 
L 252.989918 252.940329 
L 254.075719 253.227931 
L 255.16152 251.680907 
L 256.247321 242.367533 
L 257.333123 239.037924 
L 258.418924 232.411027 
L 259.504725 236.615225 
L 260.590526 232.367476 
L 261.676327 233.602521 
L 262.762128 232.837226 
L 263.847929 248.405026 
L 264.933731 241.888196 
L 266.019532 238.984238 
L 267.105333 237.765902 
L 268.191134 238.138689 
L 269.276935 240.742445 
L 270.362736 245.681266 
L 271.448538 238.017896 
L 272.534339 243.852268 
L 273.62014 242.562759 
L 275.791742 244.446758 
L 276.877543 235.314437 
L 277.963344 244.164908 
L 279.049146 232.260104 
L 280.134947 236.641542 
L 281.220748 241.865371 
L 282.306549 240.688759 
L 284.478151 227.737084 
L 285.563953 225.455442 
L 286.649754 219.126555 
L 287.735555 223.898556 
L 288.821356 226.435206 
L 289.907157 224.549101 
L 290.992958 219.321851 
L 292.07876 229.259758 
L 293.164561 236.391535 
L 294.250362 238.71581 
L 295.336163 241.81972 
L 296.421964 241.668523 
L 297.507765 246.527079 
L 298.593566 246.435047 
L 300.765169 257.103162 
L 301.85097 253.762049 
L 302.936771 247.171308 
L 304.022572 242.728816 
L 305.108373 244.558786 
L 306.194175 242.030902 
L 307.279976 244.245437 
L 308.365777 254.942313 
L 309.451578 257.572912 
L 310.537379 253.339374 
L 311.62318 251.640642 
L 312.708981 246.404971 
L 313.794783 244.715187 
L 314.880584 248.835564 
L 315.966385 244.661501 
L 317.052186 252.177499 
L 318.137987 250.655089 
L 320.30959 241.970637 
L 321.395391 245.483892 
L 322.481192 243.352254 
L 323.566993 239.039567 
L 324.652794 246.530914 
L 325.738595 241.104824 
L 326.824396 241.990638 
L 327.910198 240.688759 
L 328.995999 236.608646 
L 330.0818 239.319774 
L 331.167601 230.354262 
L 332.253402 227.428391 
L 333.339203 223.777764 
L 334.425005 221.522964 
L 335.510806 229.617179 
L 336.596607 229.965041 
L 337.682408 234.574889 
L 338.768209 234.355764 
L 339.85401 238.286324 
L 340.939811 228.770534 
L 342.025613 246.956565 
L 343.111414 244.839138 
L 344.197215 239.996898 
L 345.283016 242.066236 
L 346.368817 243.246988 
L 347.454618 246.089172 
L 348.54042 238.12198 
L 349.626221 246.580765 
L 350.712022 235.870468 
L 351.797823 242.983823 
L 352.883624 234.013381 
L 353.969425 240.487438 
L 355.055227 230.930857 
L 356.141028 245.589159 
L 357.226829 237.601558 
L 358.31263 235.534932 
L 359.398431 240.299538 
L 360.484232 241.457465 
L 361.570033 241.198773 
L 362.655835 235.830203 
L 364.827437 242.115378 
L 365.913238 231.794737 
L 366.999039 238.34001 
L 368.08484 228.128148 
L 369.170642 219.456854 
L 370.256443 248.392657 
L 371.342244 242.773291 
L 372.428045 241.82958 
L 373.513846 235.054226 
L 374.599647 223.281171 
L 375.685448 222.381935 
L 376.77125 222.456938 
L 377.857051 218.368929 
L 378.942852 222.112137 
L 380.028653 230.797169 
L 381.114454 214.369345 
L 382.200255 212.396395 
L 383.286057 214.476716 
L 384.371858 225.23333 
L 386.54346 250.177707 
L 387.629261 251.872093 
L 388.715062 254.91547 
L 389.800863 250.097178 
L 390.886665 247.229376 
L 391.972466 251.707749 
L 393.058267 252.231185 
L 394.144068 251.337975 
L 395.229869 238.628439 
L 396.31567 241.167983 
L 397.401472 241.869845 
L 398.487273 245.431259 
L 398.487273 245.431259 
" style="fill:none;stroke:#008000;stroke-linecap:square;stroke-width:1.5;"/>
   </g>
   <g id="patch_3">
    <path d="M 57.6 307.584 
L 57.6 41.472 
" style="fill:none;stroke:#000000;stroke-linecap:square;stroke-linejoin:miter;stroke-width:0.8;"/>
   </g>
   <g id="patch_4">
    <path d="M 414.72 307.584 
L 414.72 41.472 
" style="fill:none;stroke:#000000;stroke-linecap:square;stroke-linejoin:miter;stroke-width:0.8;"/>
   </g>
   <g id="patch_5">
    <path d="M 57.6 307.584 
L 414.72 307.584 
" style="fill:none;stroke:#000000;stroke-linecap:square;stroke-linejoin:miter;stroke-width:0.8;"/>
   </g>
   <g id="patch_6">
    <path d="M 57.6 41.472 
L 414.72 41.472 
" style="fill:none;stroke:#000000;stroke-linecap:square;stroke-linejoin:miter;stroke-width:0.8;"/>
   </g>
   <g id="text_16">
    <!-- Scores by generation -->
    <defs>
     <path id="DejaVuSans-32"/>
     <path d="M 48.6875 27.296875 
Q 48.6875 37.203125 44.609375 42.84375 
Q 40.53125 48.484375 33.40625 48.484375 
Q 26.265625 48.484375 22.1875 42.84375 
Q 18.109375 37.203125 18.109375 27.296875 
Q 18.109375 17.390625 22.1875 11.75 
Q 26.265625 6.109375 33.40625 6.109375 
Q 40.53125 6.109375 44.609375 11.75 
Q 48.6875 17.390625 48.6875 27.296875 
z
M 18.109375 46.390625 
Q 20.953125 51.265625 25.265625 53.625 
Q 29.59375 56 35.59375 56 
Q 45.5625 56 51.78125 48.09375 
Q 58.015625 40.1875 58.015625 27.296875 
Q 58.015625 14.40625 51.78125 6.484375 
Q 45.5625 -1.421875 35.59375 -1.421875 
Q 29.59375 -1.421875 25.265625 0.953125 
Q 20.953125 3.328125 18.109375 8.203125 
L 18.109375 0 
L 9.078125 0 
L 9.078125 75.984375 
L 18.109375 75.984375 
z
" id="DejaVuSans-98"/>
     <path d="M 32.171875 -5.078125 
Q 28.375 -14.84375 24.75 -17.8125 
Q 21.140625 -20.796875 15.09375 -20.796875 
L 7.90625 -20.796875 
L 7.90625 -13.28125 
L 13.1875 -13.28125 
Q 16.890625 -13.28125 18.9375 -11.515625 
Q 21 -9.765625 23.484375 -3.21875 
L 25.09375 0.875 
L 2.984375 54.6875 
L 12.5 54.6875 
L 29.59375 11.921875 
L 46.6875 54.6875 
L 56.203125 54.6875 
z
" id="DejaVuSans-121"/>
     <path d="M 45.40625 27.984375 
Q 45.40625 37.75 41.375 43.109375 
Q 37.359375 48.484375 30.078125 48.484375 
Q 22.859375 48.484375 18.828125 43.109375 
Q 14.796875 37.75 14.796875 27.984375 
Q 14.796875 18.265625 18.828125 12.890625 
Q 22.859375 7.515625 30.078125 7.515625 
Q 37.359375 7.515625 41.375 12.890625 
Q 45.40625 18.265625 45.40625 27.984375 
z
M 54.390625 6.78125 
Q 54.390625 -7.171875 48.1875 -13.984375 
Q 42 -20.796875 29.203125 -20.796875 
Q 24.46875 -20.796875 20.265625 -20.09375 
Q 16.0625 -19.390625 12.109375 -17.921875 
L 12.109375 -9.1875 
Q 16.0625 -11.328125 19.921875 -12.34375 
Q 23.78125 -13.375 27.78125 -13.375 
Q 36.625 -13.375 41.015625 -8.765625 
Q 45.40625 -4.15625 45.40625 5.171875 
L 45.40625 9.625 
Q 42.625 4.78125 38.28125 2.390625 
Q 33.9375 0 27.875 0 
Q 17.828125 0 11.671875 7.65625 
Q 5.515625 15.328125 5.515625 27.984375 
Q 5.515625 40.671875 11.671875 48.328125 
Q 17.828125 56 27.875 56 
Q 33.9375 56 38.28125 53.609375 
Q 42.625 51.21875 45.40625 46.390625 
L 45.40625 54.6875 
L 54.390625 54.6875 
z
" id="DejaVuSans-103"/>
    </defs>
    <g transform="translate(172.292812 35.472)scale(0.12 -0.12)">
     <use xlink:href="#DejaVuSans-83"/>
     <use x="63.476562" xlink:href="#DejaVuSans-99"/>
     <use x="118.457031" xlink:href="#DejaVuSans-111"/>
     <use x="179.638672" xlink:href="#DejaVuSans-114"/>
     <use x="220.720703" xlink:href="#DejaVuSans-101"/>
     <use x="282.244141" xlink:href="#DejaVuSans-115"/>
     <use x="334.34375" xlink:href="#DejaVuSans-32"/>
     <use x="366.130859" xlink:href="#DejaVuSans-98"/>
     <use x="429.607422" xlink:href="#DejaVuSans-121"/>
     <use x="488.787109" xlink:href="#DejaVuSans-32"/>
     <use x="520.574219" xlink:href="#DejaVuSans-103"/>
     <use x="584.050781" xlink:href="#DejaVuSans-101"/>
     <use x="645.574219" xlink:href="#DejaVuSans-110"/>
     <use x="708.953125" xlink:href="#DejaVuSans-101"/>
     <use x="770.476562" xlink:href="#DejaVuSans-114"/>
     <use x="811.589844" xlink:href="#DejaVuSans-97"/>
     <use x="872.869141" xlink:href="#DejaVuSans-116"/>
     <use x="912.078125" xlink:href="#DejaVuSans-105"/>
     <use x="939.861328" xlink:href="#DejaVuSans-111"/>
     <use x="1001.042969" xlink:href="#DejaVuSans-110"/>
    </g>
   </g>
   <g id="legend_1">
    <g id="patch_7">
     <path d="M 338.37 93.506375 
L 407.72 93.506375 
Q 409.72 93.506375 409.72 91.506375 
L 409.72 48.472 
Q 409.72 46.472 407.72 46.472 
L 338.37 46.472 
Q 336.37 46.472 336.37 48.472 
L 336.37 91.506375 
Q 336.37 93.506375 338.37 93.506375 
z
" style="fill:#ffffff;opacity:0.8;stroke:#cccccc;stroke-linejoin:miter;"/>
    </g>
    <g id="line2d_30">
     <path d="M 340.37 54.570438 
L 360.37 54.570438 
" style="fill:none;stroke:#0000ff;stroke-linecap:square;stroke-width:1.5;"/>
    </g>
    <g id="line2d_31"/>
    <g id="text_17">
     <!-- species -->
     <defs>
      <path d="M 18.109375 8.203125 
L 18.109375 -20.796875 
L 9.078125 -20.796875 
L 9.078125 54.6875 
L 18.109375 54.6875 
L 18.109375 46.390625 
Q 20.953125 51.265625 25.265625 53.625 
Q 29.59375 56 35.59375 56 
Q 45.5625 56 51.78125 48.09375 
Q 58.015625 40.1875 58.015625 27.296875 
Q 58.015625 14.40625 51.78125 6.484375 
Q 45.5625 -1.421875 35.59375 -1.421875 
Q 29.59375 -1.421875 25.265625 0.953125 
Q 20.953125 3.328125 18.109375 8.203125 
z
M 48.6875 27.296875 
Q 48.6875 37.203125 44.609375 42.84375 
Q 40.53125 48.484375 33.40625 48.484375 
Q 26.265625 48.484375 22.1875 42.84375 
Q 18.109375 37.203125 18.109375 27.296875 
Q 18.109375 17.390625 22.1875 11.75 
Q 26.265625 6.109375 33.40625 6.109375 
Q 40.53125 6.109375 44.609375 11.75 
Q 48.6875 17.390625 48.6875 27.296875 
z
" id="DejaVuSans-112"/>
     </defs>
     <g transform="translate(368.37 58.070438)scale(0.1 -0.1)">
      <use xlink:href="#DejaVuSans-115"/>
      <use x="52.099609" xlink:href="#DejaVuSans-112"/>
      <use x="115.576172" xlink:href="#DejaVuSans-101"/>
      <use x="177.099609" xlink:href="#DejaVuSans-99"/>
      <use x="232.080078" xlink:href="#DejaVuSans-105"/>
      <use x="259.863281" xlink:href="#DejaVuSans-101"/>
      <use x="321.386719" xlink:href="#DejaVuSans-115"/>
     </g>
    </g>
    <g id="line2d_32">
     <path d="M 340.37 69.248563 
L 360.37 69.248563 
" style="fill:none;stroke:#ff0000;stroke-linecap:square;stroke-width:1.5;"/>
    </g>
    <g id="line2d_33"/>
    <g id="text_18">
     <!-- bits -->
     <g transform="translate(368.37 72.748563)scale(0.1 -0.1)">
      <use xlink:href="#DejaVuSans-98"/>
      <use x="63.476562" xlink:href="#DejaVuSans-105"/>
      <use x="91.259766" xlink:href="#DejaVuSans-116"/>
      <use x="130.46875" xlink:href="#DejaVuSans-115"/>
     </g>
    </g>
    <g id="line2d_34">
     <path d="M 340.37 83.926688 
L 360.37 83.926688 
" style="fill:none;stroke:#008000;stroke-linecap:square;stroke-width:1.5;"/>
    </g>
    <g id="line2d_35"/>
    <g id="text_19">
     <!-- total -->
     <defs>
      <path d="M 9.421875 75.984375 
L 18.40625 75.984375 
L 18.40625 0 
L 9.421875 0 
z
" id="DejaVuSans-108"/>
     </defs>
     <g transform="translate(368.37 87.426688)scale(0.1 -0.1)">
      <use xlink:href="#DejaVuSans-116"/>
      <use x="39.208984" xlink:href="#DejaVuSans-111"/>
      <use x="100.390625" xlink:href="#DejaVuSans-116"/>
      <use x="139.599609" xlink:href="#DejaVuSans-97"/>
      <use x="200.878906" xlink:href="#DejaVuSans-108"/>
     </g>
    </g>
   </g>
  </g>
 </g>
 <defs>
  <clipPath id="pce8a2ee528">
   <rect height="266.112" width="357.12" x="57.6" y="41.472"/>
  </clipPath>
 </defs>
</svg>
