<?xml version="1.0" encoding="UTF-8" standalone="no"?>
<!DOCTYPE svg PUBLIC "-//W3C//DTD SVG 1.1//EN"
 "http://www.w3.org/Graphics/SVG/1.1/DTD/svg11.dtd">
<!-- Generated by graphviz version 2.40.1 (20161225.0304)
 -->
<!-- Title: %3 Pages: 1 -->
<svg width="485pt" height="182pt"
 viewBox="0.00 0.00 484.77 181.85" xmlns="http://www.w3.org/2000/svg" xmlns:xlink="http://www.w3.org/1999/xlink">
<g id="graph0" class="graph" transform="scale(1 1) rotate(0) translate(4 177.8494)">
<title>%3</title>
<polygon fill="#ffffff" stroke="transparent" points="-4,4 -4,-177.8494 480.7661,-177.8494 480.7661,4 -4,4"/>
<!-- 0 -->
<g id="node1" class="node">
<title>0</title>
<polygon fill="#d3d3d3" stroke="#000000" points="229.389,-173.8494 209.3771,-173.8494 209.3771,-156.8494 229.389,-156.8494 229.389,-173.8494"/>
<text text-anchor="middle" x="219.383" y="-162.6494" font-family="Times,serif" font-size="9.00" fill="#000000">0</text>
</g>
<!-- 1 -->
<g id="node2" class="node">
<title>1</title>
<polygon fill="#d3d3d3" stroke="#000000" points="280.389,-173.8494 260.3771,-173.8494 260.3771,-156.8494 280.389,-156.8494 280.389,-173.8494"/>
<text text-anchor="middle" x="270.383" y="-162.6494" font-family="Times,serif" font-size="9.00" fill="#000000">1</text>
</g>
<!-- 0&#45;&gt;1 -->
<!-- E3 -->
<g id="node7" class="node">
<title>E3</title>
<ellipse fill="#87cefa" stroke="#000000" cx="183.383" cy="-18.383" rx="18.2668" ry="18.2668"/>
<text text-anchor="middle" x="183.383" y="-15.683" font-family="Times,serif" font-size="9.00" fill="#000000">E3</text>
</g>
<!-- 0&#45;&gt;E3 -->
<g id="edge11" class="edge">
<title>0&#45;&gt;E3</title>
<path fill="none" stroke="#00ff00" stroke-width="2.1637" d="M210.4603,-156.7733C202.4764,-148.4495 191.2973,-135.0262 186.383,-120.8494 178.0938,-96.9362 178.0883,-67.9707 179.7211,-46.9456"/>
<polygon fill="#00ff00" stroke="#00ff00" stroke-width="2.1637" points="183.2288,-47.0293 180.6892,-36.7434 176.2601,-46.3681 183.2288,-47.0293"/>
</g>
<!-- 5416 -->
<g id="node13" class="node">
<title>5416</title>
<ellipse fill="#add8e6" stroke="#000000" cx="219.383" cy="-96.8077" rx="24.0833" ry="24.0833"/>
<text text-anchor="middle" x="219.383" y="-98.6077" font-family="Times,serif" font-size="9.00" fill="#000000">5416</text>
<text text-anchor="middle" x="219.383" y="-89.6077" font-family="Times,serif" font-size="9.00" fill="#000000">sigm</text>
</g>
<!-- 0&#45;&gt;5416 -->
<g id="edge14" class="edge">
<title>0&#45;&gt;5416</title>
<path fill="none" stroke="#00ff00" stroke-width=".2824" d="M219.383,-156.6685C219.383,-150.1079 219.383,-140.6404 219.383,-131.1641"/>
<polygon fill="#00ff00" stroke="#00ff00" stroke-width=".2824" points="222.8831,-131.0151 219.383,-121.0151 215.8831,-131.0152 222.8831,-131.0151"/>
</g>
<!-- 2 -->
<g id="node3" class="node">
<title>2</title>
<polygon fill="#d3d3d3" stroke="#000000" points="319.389,-173.8494 299.3771,-173.8494 299.3771,-156.8494 319.389,-156.8494 319.389,-173.8494"/>
<text text-anchor="middle" x="309.383" y="-162.6494" font-family="Times,serif" font-size="9.00" fill="#000000">2</text>
</g>
<!-- 1&#45;&gt;2 -->
<!-- E7 -->
<g id="node11" class="node">
<title>E7</title>
<ellipse fill="#87cefa" stroke="#000000" cx="403.383" cy="-18.383" rx="18.2668" ry="18.2668"/>
<text text-anchor="middle" x="403.383" y="-15.683" font-family="Times,serif" font-size="9.00" fill="#000000">E7</text>
</g>
<!-- 1&#45;&gt;E7 -->
<g id="edge12" class="edge">
<title>1&#45;&gt;E7</title>
<path fill="none" stroke="#00ff00" stroke-width="2.6096" d="M278.3045,-156.5961C298.8229,-133.923 354.166,-72.7684 383.8852,-39.9284"/>
<polygon fill="#00ff00" stroke="#00ff00" stroke-width="2.6096" points="386.7371,-41.9931 390.852,-32.23 381.5469,-37.2961 386.7371,-41.9931"/>
</g>
<!-- E5 -->
<g id="node9" class="node">
<title>E5</title>
<ellipse fill="#87cefa" stroke="#000000" cx="293.383" cy="-18.383" rx="18.2668" ry="18.2668"/>
<text text-anchor="middle" x="293.383" y="-15.683" font-family="Times,serif" font-size="9.00" fill="#000000">E5</text>
</g>
<!-- 2&#45;&gt;E5 -->
<g id="edge13" class="edge">
<title>2&#45;&gt;E5</title>
<path fill="none" stroke="#00ff00" stroke-width="1.8875" d="M308.4301,-156.5961C306.1294,-135.4629 300.1889,-80.8974 296.4975,-46.9901"/>
<polygon fill="#00ff00" stroke="#00ff00" stroke-width="1.8875" points="299.9472,-46.3381 295.3854,-36.7757 292.9884,-47.0958 299.9472,-46.3381"/>
</g>
<!-- E0 -->
<g id="node4" class="node">
<title>E0</title>
<ellipse fill="#87cefa" stroke="#000000" cx="18.383" cy="-18.383" rx="18.2668" ry="18.2668"/>
<text text-anchor="middle" x="18.383" y="-15.683" font-family="Times,serif" font-size="9.00" fill="#000000">E0</text>
</g>
<!-- E1 -->
<g id="node5" class="node">
<title>E1</title>
<ellipse fill="#87cefa" stroke="#000000" cx="73.383" cy="-18.383" rx="18.2668" ry="18.2668"/>
<text text-anchor="middle" x="73.383" y="-15.683" font-family="Times,serif" font-size="9.00" fill="#000000">E1</text>
</g>
<!-- E0&#45;&gt;E1 -->
<!-- E2 -->
<g id="node6" class="node">
<title>E2</title>
<ellipse fill="#87cefa" stroke="#000000" cx="128.383" cy="-18.383" rx="18.2668" ry="18.2668"/>
<text text-anchor="middle" x="128.383" y="-15.683" font-family="Times,serif" font-size="9.00" fill="#000000">E2</text>
</g>
<!-- E1&#45;&gt;E2 -->
<!-- E2&#45;&gt;E3 -->
<!-- E4 -->
<g id="node8" class="node">
<title>E4</title>
<ellipse fill="#87cefa" stroke="#000000" cx="238.383" cy="-18.383" rx="18.2668" ry="18.2668"/>
<text text-anchor="middle" x="238.383" y="-15.683" font-family="Times,serif" font-size="9.00" fill="#000000">E4</text>
</g>
<!-- E3&#45;&gt;E4 -->
<!-- E4&#45;&gt;E5 -->
<!-- E6 -->
<g id="node10" class="node">
<title>E6</title>
<ellipse fill="#87cefa" stroke="#000000" cx="348.383" cy="-18.383" rx="18.2668" ry="18.2668"/>
<text text-anchor="middle" x="348.383" y="-15.683" font-family="Times,serif" font-size="9.00" fill="#000000">E6</text>
</g>
<!-- E5&#45;&gt;E6 -->
<!-- E6&#45;&gt;E7 -->
<!-- E8 -->
<g id="node12" class="node">
<title>E8</title>
<ellipse fill="#87cefa" stroke="#000000" cx="458.383" cy="-18.383" rx="18.2668" ry="18.2668"/>
<text text-anchor="middle" x="458.383" y="-15.683" font-family="Times,serif" font-size="9.00" fill="#000000">E8</text>
</g>
<!-- E7&#45;&gt;E8 -->
<!-- 5416&#45;&gt;E0 -->
<g id="edge16" class="edge">
<title>5416&#45;&gt;E0</title>
<path fill="none" stroke="#00ff00" stroke-width=".2277" d="M195.9859,-90.6802C162.0359,-81.3503 97.5811,-61.9732 46.383,-36.7661 45.0136,-36.0918 43.6305,-35.3626 42.2511,-34.5967"/>
<polygon fill="#00ff00" stroke="#00ff00" stroke-width=".2277" points="43.7457,-31.4093 33.3826,-29.2053 40.1094,-37.3907 43.7457,-31.4093"/>
</g>
<!-- 5416&#45;&gt;E3 -->
<g id="edge17" class="edge">
<title>5416&#45;&gt;E3</title>
<path fill="none" stroke="#00ff00" stroke-width=".1555" d="M209.1632,-74.5441C204.8602,-65.1702 199.8226,-54.1961 195.3479,-44.448"/>
<polygon fill="#00ff00" stroke="#00ff00" stroke-width=".1555" points="198.4615,-42.8412 191.1087,-35.2131 192.0997,-45.7615 198.4615,-42.8412"/>
</g>
<!-- 5416&#45;&gt;E5 -->
<g id="edge15" class="edge">
<title>5416&#45;&gt;E5</title>
<path fill="none" stroke="#00ff00" stroke-width=".3364" d="M236.1748,-79.012C247.2286,-67.2972 261.7536,-51.9037 273.4016,-39.5593"/>
<polygon fill="#00ff00" stroke="#00ff00" stroke-width=".3364" points="276.2578,-41.6322 280.5751,-31.9568 271.1665,-36.8281 276.2578,-41.6322"/>
</g>
</g>
</svg>
