<?xml version="1.0" encoding="UTF-8" standalone="no"?>
<!DOCTYPE svg PUBLIC "-//W3C//DTD SVG 1.1//EN"
 "http://www.w3.org/Graphics/SVG/1.1/DTD/svg11.dtd">
<!-- Generated by graphviz version 2.40.1 (20161225.0304)
 -->
<!-- Title: %3 Pages: 1 -->
<svg width="431pt" height="258pt"
 viewBox="0.00 0.00 430.92 258.16" xmlns="http://www.w3.org/2000/svg" xmlns:xlink="http://www.w3.org/1999/xlink">
<g id="graph0" class="graph" transform="scale(1 1) rotate(0) translate(4 254.1579)">
<title>%3</title>
<polygon fill="#ffffff" stroke="transparent" points="-4,4 -4,-254.1579 426.915,-254.1579 426.915,4 -4,4"/>
<!-- &#45;1 -->
<g id="node1" class="node">
<title>&#45;1</title>
<polygon fill="#d3d3d3" stroke="#000000" points="23.751,-250.1579 -.2539,-250.1579 -.2539,-233.1579 23.751,-233.1579 23.751,-250.1579"/>
<text text-anchor="middle" x="11.7485" y="-238.9579" font-family="Times,serif" font-size="9.00" fill="#000000">&#45;1</text>
</g>
<!-- &#45;2 -->
<g id="node2" class="node">
<title>&#45;2</title>
<polygon fill="#d3d3d3" stroke="#000000" points="64.751,-250.1579 40.7461,-250.1579 40.7461,-233.1579 64.751,-233.1579 64.751,-250.1579"/>
<text text-anchor="middle" x="52.7485" y="-238.9579" font-family="Times,serif" font-size="9.00" fill="#000000">&#45;2</text>
</g>
<!-- &#45;1&#45;&gt;&#45;2 -->
<!-- &#45;3 -->
<g id="node3" class="node">
<title>&#45;3</title>
<polygon fill="#d3d3d3" stroke="#000000" points="105.751,-250.1579 81.7461,-250.1579 81.7461,-233.1579 105.751,-233.1579 105.751,-250.1579"/>
<text text-anchor="middle" x="93.7485" y="-238.9579" font-family="Times,serif" font-size="9.00" fill="#000000">&#45;3</text>
</g>
<!-- &#45;2&#45;&gt;&#45;3 -->
<!-- 2 -->
<g id="node12" class="node">
<title>2</title>
<ellipse fill="#add8e6" stroke="#000000" cx="158.7485" cy="-14.4957" rx="14.4914" ry="14.4914"/>
<text text-anchor="middle" x="158.7485" y="-11.7957" font-family="Times,serif" font-size="9.00" fill="#000000">2</text>
</g>
<!-- &#45;2&#45;&gt;2 -->
<g id="edge15" class="edge">
<title>&#45;2&#45;&gt;2</title>
<path fill="none" stroke="#00ff00" stroke-width=".4169" d="M56.7744,-233.0303C71.8814,-200.6554 125.4924,-85.765 148.3267,-36.83"/>
<polygon fill="#00ff00" stroke="#00ff00" stroke-width=".4169" points="151.5284,-38.2458 152.5853,-27.7038 145.185,-35.2857 151.5284,-38.2458"/>
</g>
<!-- 2505 -->
<g id="node14" class="node">
<title>2505</title>
<ellipse fill="#ffffff" stroke="#000000" cx="282.7485" cy="-89.033" rx="24.0833" ry="24.0833"/>
<text text-anchor="middle" x="282.7485" y="-86.333" font-family="Times,serif" font-size="9.00" fill="#000000">2505</text>
</g>
<!-- &#45;2&#45;&gt;2505 -->
<g id="edge21" class="edge">
<title>&#45;2&#45;&gt;2505</title>
<path fill="none" stroke="#00ff00" stroke-width=".5732" stroke-dasharray="1,5" d="M64.7905,-233.667C99.93,-210.3489 203.0558,-141.916 253.8306,-108.2226"/>
<polygon fill="#00ff00" stroke="#00ff00" stroke-width=".5732" points="255.987,-110.9922 262.3841,-102.5466 252.1165,-105.1595 255.987,-110.9922"/>
</g>
<!-- &#45;4 -->
<g id="node4" class="node">
<title>&#45;4</title>
<polygon fill="#d3d3d3" stroke="#000000" points="146.751,-250.1579 122.7461,-250.1579 122.7461,-233.1579 146.751,-233.1579 146.751,-250.1579"/>
<text text-anchor="middle" x="134.7485" y="-238.9579" font-family="Times,serif" font-size="9.00" fill="#000000">&#45;4</text>
</g>
<!-- &#45;3&#45;&gt;&#45;4 -->
<!-- 1 -->
<g id="node11" class="node">
<title>1</title>
<ellipse fill="#add8e6" stroke="#000000" cx="111.7485" cy="-14.4957" rx="14.4914" ry="14.4914"/>
<text text-anchor="middle" x="111.7485" y="-11.7957" font-family="Times,serif" font-size="9.00" fill="#000000">1</text>
</g>
<!-- &#45;3&#45;&gt;1 -->
<g id="edge16" class="edge">
<title>&#45;3&#45;&gt;1</title>
<path fill="none" stroke="#ff0000" stroke-width=".3911" d="M93.8075,-232.8021C94.0641,-206.9003 95.4353,-129.0686 102.7485,-64.9914 103.7174,-56.5021 105.2244,-47.2826 106.73,-39.073"/>
<polygon fill="#ff0000" stroke="#ff0000" stroke-width=".3911" points="110.2139,-39.4894 108.663,-29.0087 103.3395,-38.169 110.2139,-39.4894"/>
</g>
<!-- 3 -->
<g id="node13" class="node">
<title>3</title>
<ellipse fill="#add8e6" stroke="#000000" cx="230.7485" cy="-14.4957" rx="14.4914" ry="14.4914"/>
<text text-anchor="middle" x="230.7485" y="-11.7957" font-family="Times,serif" font-size="9.00" fill="#000000">3</text>
</g>
<!-- &#45;3&#45;&gt;3 -->
<g id="edge14" class="edge">
<title>&#45;3&#45;&gt;3</title>
<path fill="none" stroke="#ff0000" stroke-width="1.5566" d="M98.9518,-233.0303C118.6093,-200.4359 188.7086,-84.2029 217.8737,-35.8436"/>
<polygon fill="#ff0000" stroke="#ff0000" stroke-width="1.5566" points="220.9666,-37.4924 223.1339,-27.1216 214.9723,-33.8773 220.9666,-37.4924"/>
</g>
<!-- &#45;5 -->
<g id="node5" class="node">
<title>&#45;5</title>
<polygon fill="#d3d3d3" stroke="#000000" points="187.751,-250.1579 163.7461,-250.1579 163.7461,-233.1579 187.751,-233.1579 187.751,-250.1579"/>
<text text-anchor="middle" x="175.7485" y="-238.9579" font-family="Times,serif" font-size="9.00" fill="#000000">&#45;5</text>
</g>
<!-- &#45;4&#45;&gt;&#45;5 -->
<!-- 0 -->
<g id="node10" class="node">
<title>0</title>
<ellipse fill="#add8e6" stroke="#000000" cx="64.7485" cy="-14.4957" rx="14.4914" ry="14.4914"/>
<text text-anchor="middle" x="64.7485" y="-11.7957" font-family="Times,serif" font-size="9.00" fill="#000000">0</text>
</g>
<!-- &#45;4&#45;&gt;0 -->
<g id="edge12" class="edge">
<title>&#45;4&#45;&gt;0</title>
<path fill="none" stroke="#00ff00" stroke-width=".8121" d="M132.0899,-233.0303C122.2044,-200.95 87.3523,-87.8488 72.0475,-38.182"/>
<polygon fill="#00ff00" stroke="#00ff00" stroke-width=".8121" points="75.384,-37.1243 69.0943,-28.5985 68.6944,-39.1857 75.384,-37.1243"/>
</g>
<!-- &#45;4&#45;&gt;2 -->
<g id="edge18" class="edge">
<title>&#45;4&#45;&gt;2</title>
<path fill="none" stroke="#ff0000" stroke-width=".1804" d="M135.6601,-233.0303C139.0263,-201.1681 150.8366,-89.3831 156.1381,-39.2038"/>
<polygon fill="#ff0000" stroke="#ff0000" stroke-width=".1804" points="159.6239,-39.5215 157.194,-29.209 152.6627,-38.7859 159.6239,-39.5215"/>
</g>
<!-- &#45;6 -->
<g id="node6" class="node">
<title>&#45;6</title>
<polygon fill="#d3d3d3" stroke="#000000" points="238.751,-250.1579 214.7461,-250.1579 214.7461,-233.1579 238.751,-233.1579 238.751,-250.1579"/>
<text text-anchor="middle" x="226.7485" y="-238.9579" font-family="Times,serif" font-size="9.00" fill="#000000">&#45;6</text>
</g>
<!-- &#45;5&#45;&gt;&#45;6 -->
<!-- &#45;5&#45;&gt;1 -->
<g id="edge13" class="edge">
<title>&#45;5&#45;&gt;1</title>
<path fill="none" stroke="#ff0000" stroke-width="2.0888" d="M173.3178,-233.0303C164.2985,-201.0171 132.5481,-88.3217 118.5099,-38.4946"/>
<polygon fill="#ff0000" stroke="#ff0000" stroke-width="2.0888" points="121.8025,-37.2746 115.7218,-28.5985 115.0648,-39.1729 121.8025,-37.2746"/>
</g>
<!-- &#45;7 -->
<g id="node7" class="node">
<title>&#45;7</title>
<polygon fill="#d3d3d3" stroke="#000000" points="301.751,-250.1579 277.7461,-250.1579 277.7461,-233.1579 301.751,-233.1579 301.751,-250.1579"/>
<text text-anchor="middle" x="289.7485" y="-238.9579" font-family="Times,serif" font-size="9.00" fill="#000000">&#45;7</text>
</g>
<!-- &#45;6&#45;&gt;&#45;7 -->
<!-- &#45;8 -->
<g id="node8" class="node">
<title>&#45;8</title>
<polygon fill="#d3d3d3" stroke="#000000" points="342.751,-250.1579 318.7461,-250.1579 318.7461,-233.1579 342.751,-233.1579 342.751,-250.1579"/>
<text text-anchor="middle" x="330.7485" y="-238.9579" font-family="Times,serif" font-size="9.00" fill="#000000">&#45;8</text>
</g>
<!-- &#45;7&#45;&gt;&#45;8 -->
<!-- &#45;7&#45;&gt;3 -->
<g id="edge17" class="edge">
<title>&#45;7&#45;&gt;3</title>
<path fill="none" stroke="#ff0000" stroke-width=".7742" d="M294.6696,-232.8575C309.0922,-205.7832 348.2554,-122.113 315.7485,-64.9914 302.7485,-42.1476 274.8881,-28.5651 254.5964,-21.3379"/>
<polygon fill="#ff0000" stroke="#ff0000" stroke-width=".7742" points="255.6608,-18.0036 245.0679,-18.205 253.4743,-24.6534 255.6608,-18.0036"/>
</g>
<!-- &#45;9 -->
<g id="node9" class="node">
<title>&#45;9</title>
<polygon fill="#d3d3d3" stroke="#000000" points="394.751,-250.1579 370.7461,-250.1579 370.7461,-233.1579 394.751,-233.1579 394.751,-250.1579"/>
<text text-anchor="middle" x="382.7485" y="-238.9579" font-family="Times,serif" font-size="9.00" fill="#000000">&#45;9</text>
</g>
<!-- &#45;8&#45;&gt;&#45;9 -->
<!-- &#45;8&#45;&gt;2 -->
<g id="edge22" class="edge">
<title>&#45;8&#45;&gt;2</title>
<path fill="none" stroke="#00ff00" stroke-width=".4357" stroke-dasharray="1,5" d="M324.216,-233.0303C299.2604,-200.0712 209.5513,-81.5915 173.7029,-34.2461"/>
<polygon fill="#00ff00" stroke="#00ff00" stroke-width=".4357" points="176.4907,-32.1298 167.6638,-26.2701 170.9099,-36.3554 176.4907,-32.1298"/>
</g>
<!-- &#45;9&#45;&gt;2505 -->
<g id="edge19" class="edge">
<title>&#45;9&#45;&gt;2505</title>
<path fill="none" stroke="#ff0000" stroke-width=".2538" stroke-dasharray="1,5" d="M391.7665,-233.1141C399.8176,-224.8131 411.0423,-211.4051 415.7485,-197.1579 422.4515,-176.866 427.3413,-167.0274 415.7485,-149.0746 394.0792,-115.5171 348.6484,-100.5198 316.9469,-93.9499"/>
<polygon fill="#ff0000" stroke="#ff0000" stroke-width=".2538" points="317.2521,-90.4458 306.7764,-92.0302 315.9538,-97.3243 317.2521,-90.4458"/>
</g>
<!-- 2744 -->
<g id="node15" class="node">
<title>2744</title>
<ellipse fill="#ffffff" stroke="#000000" cx="382.7485" cy="-173.1163" rx="24.0833" ry="24.0833"/>
<text text-anchor="middle" x="382.7485" y="-170.4163" font-family="Times,serif" font-size="9.00" fill="#000000">2744</text>
</g>
<!-- &#45;9&#45;&gt;2744 -->
<g id="edge23" class="edge">
<title>&#45;9&#45;&gt;2744</title>
<path fill="none" stroke="#00ff00" stroke-width=".2351" d="M382.7485,-232.9771C382.7485,-226.4164 382.7485,-216.9489 382.7485,-207.4727"/>
<polygon fill="#00ff00" stroke="#00ff00" stroke-width=".2351" points="386.2486,-207.3236 382.7485,-197.3237 379.2486,-207.3237 386.2486,-207.3236"/>
</g>
<!-- 0&#45;&gt;1 -->
<!-- 1&#45;&gt;2 -->
<!-- 2&#45;&gt;3 -->
<!-- 2505&#45;&gt;0 -->
<g id="edge20" class="edge">
<title>2505&#45;&gt;0</title>
<path fill="none" stroke="#ff0000" stroke-width=".3397" d="M259.0855,-83.6861C221.8587,-74.8411 147.7757,-55.4749 88.7485,-28.9914 87.8936,-28.6078 87.0316,-28.1999 86.1683,-27.7736"/>
<polygon fill="#ff0000" stroke="#ff0000" stroke-width=".3397" points="87.5833,-24.5562 77.141,-22.7649 84.1871,-30.6771 87.5833,-24.5562"/>
</g>
<!-- 2744&#45;&gt;2505 -->
<g id="edge24" class="edge">
<title>2744&#45;&gt;2505</title>
<path fill="none" stroke="#00ff00" stroke-width=".1516" d="M363.9393,-157.3009C348.575,-144.3821 326.6685,-125.9624 309.482,-111.5113"/>
<polygon fill="#00ff00" stroke="#00ff00" stroke-width=".1516" points="311.3799,-108.5343 301.4734,-104.7775 306.8749,-113.8921 311.3799,-108.5343"/>
</g>
</g>
</svg>
