<?xml version="1.0" encoding="UTF-8" standalone="no"?>
<!DOCTYPE svg PUBLIC "-//W3C//DTD SVG 1.1//EN"
 "http://www.w3.org/Graphics/SVG/1.1/DTD/svg11.dtd">
<!-- Generated by graphviz version 2.40.1 (20161225.0304)
 -->
<!-- Title: %3 Pages: 1 -->
<svg width="614pt" height="174pt"
 viewBox="0.00 0.00 613.79 174.07" xmlns="http://www.w3.org/2000/svg" xmlns:xlink="http://www.w3.org/1999/xlink">
<g id="graph0" class="graph" transform="scale(1 1) rotate(0) translate(4 170.0746)">
<title>%3</title>
<polygon fill="#ffffff" stroke="transparent" points="-4,4 -4,-170.0746 609.7902,-170.0746 609.7902,4 -4,4"/>
<!-- &#45;1 -->
<g id="node1" class="node">
<title>&#45;1</title>
<polygon fill="#d3d3d3" stroke="#000000" points="200.0441,-166.0746 176.0392,-166.0746 176.0392,-149.0746 200.0441,-149.0746 200.0441,-166.0746"/>
<text text-anchor="middle" x="188.0416" y="-154.8746" font-family="Times,serif" font-size="9.00" fill="#000000">&#45;1</text>
</g>
<!-- &#45;2 -->
<g id="node2" class="node">
<title>&#45;2</title>
<polygon fill="#d3d3d3" stroke="#000000" points="241.0441,-166.0746 217.0392,-166.0746 217.0392,-149.0746 241.0441,-149.0746 241.0441,-166.0746"/>
<text text-anchor="middle" x="229.0416" y="-154.8746" font-family="Times,serif" font-size="9.00" fill="#000000">&#45;2</text>
</g>
<!-- &#45;1&#45;&gt;&#45;2 -->
<!-- 2 -->
<g id="node12" class="node">
<title>2</title>
<ellipse fill="#add8e6" stroke="#000000" cx="228.0416" cy="-14.4957" rx="14.4914" ry="14.4914"/>
<text text-anchor="middle" x="228.0416" y="-11.7957" font-family="Times,serif" font-size="9.00" fill="#000000">2</text>
</g>
<!-- &#45;1&#45;&gt;2 -->
<g id="edge23" class="edge">
<title>&#45;1&#45;&gt;2</title>
<path fill="none" stroke="#00ff00" stroke-width=".2437" d="M190.424,-149.0529C196.4035,-127.6644 212.2168,-71.1005 221.324,-38.5244"/>
<polygon fill="#00ff00" stroke="#00ff00" stroke-width=".2437" points="224.7025,-39.4387 224.0243,-28.8656 217.961,-37.554 224.7025,-39.4387"/>
</g>
<!-- 3 -->
<g id="node13" class="node">
<title>3</title>
<ellipse fill="#add8e6" stroke="#000000" cx="380.0416" cy="-14.4957" rx="14.4914" ry="14.4914"/>
<text text-anchor="middle" x="380.0416" y="-11.7957" font-family="Times,serif" font-size="9.00" fill="#000000">3</text>
</g>
<!-- &#45;1&#45;&gt;3 -->
<g id="edge15" class="edge">
<title>&#45;1&#45;&gt;3</title>
<path fill="none" stroke="#ff0000" stroke-width=".5787" stroke-dasharray="1,5" d="M199.4771,-149.0529C230.9999,-125.562 319.4603,-59.6411 359.6791,-29.6699"/>
<polygon fill="#ff0000" stroke="#ff0000" stroke-width=".5787" points="362.0041,-32.3023 367.9311,-23.5205 357.8213,-26.6894 362.0041,-32.3023"/>
</g>
<!-- 2465 -->
<g id="node14" class="node">
<title>2465</title>
<ellipse fill="#ffffff" stroke="#000000" cx="24.0416" cy="-89.033" rx="24.0833" ry="24.0833"/>
<text text-anchor="middle" x="24.0416" y="-86.333" font-family="Times,serif" font-size="9.00" fill="#000000">2465</text>
</g>
<!-- &#45;1&#45;&gt;2465 -->
<g id="edge25" class="edge">
<title>&#45;1&#45;&gt;2465</title>
<path fill="none" stroke="#00ff00" stroke-width=".3615" d="M176.2236,-154.3676C153.4831,-147.9885 102.3235,-132.6225 62.0416,-113.0746 58.9272,-111.5633 55.7515,-109.8541 52.6293,-108.0611"/>
<polygon fill="#00ff00" stroke="#00ff00" stroke-width=".3615" points="54.4345,-105.0626 44.0669,-102.8803 50.8107,-111.0516 54.4345,-105.0626"/>
</g>
<!-- &#45;3 -->
<g id="node3" class="node">
<title>&#45;3</title>
<polygon fill="#d3d3d3" stroke="#000000" points="351.0441,-166.0746 327.0392,-166.0746 327.0392,-149.0746 351.0441,-149.0746 351.0441,-166.0746"/>
<text text-anchor="middle" x="339.0416" y="-154.8746" font-family="Times,serif" font-size="9.00" fill="#000000">&#45;3</text>
</g>
<!-- &#45;2&#45;&gt;&#45;3 -->
<!-- 1 -->
<g id="node11" class="node">
<title>1</title>
<ellipse fill="#add8e6" stroke="#000000" cx="152.0416" cy="-14.4957" rx="14.4914" ry="14.4914"/>
<text text-anchor="middle" x="152.0416" y="-11.7957" font-family="Times,serif" font-size="9.00" fill="#000000">1</text>
</g>
<!-- &#45;2&#45;&gt;1 -->
<g id="edge26" class="edge">
<title>&#45;2&#45;&gt;1</title>
<path fill="none" stroke="#ff0000" stroke-width=".2277" stroke-dasharray="1,5" d="M217.1344,-152.1586C192.9868,-141.12 140.3346,-116.7484 138.0416,-113.0746 123.5822,-89.9081 132.3005,-57.7928 141.0966,-36.5959"/>
<polygon fill="#ff0000" stroke="#ff0000" stroke-width=".2277" points="144.3099,-37.9837 145.1898,-27.4254 137.9177,-35.1305 144.3099,-37.9837"/>
</g>
<!-- &#45;2&#45;&gt;2 -->
<g id="edge17" class="edge">
<title>&#45;2&#45;&gt;2</title>
<path fill="none" stroke="#00ff00" stroke-width=".2895" d="M228.9821,-149.0529C228.834,-127.8651 228.4446,-72.1589 228.216,-39.4477"/>
<polygon fill="#00ff00" stroke="#00ff00" stroke-width=".2895" points="231.7151,-39.2942 228.1452,-29.3189 224.7153,-39.3432 231.7151,-39.2942"/>
</g>
<!-- &#45;4 -->
<g id="node4" class="node">
<title>&#45;4</title>
<polygon fill="#d3d3d3" stroke="#000000" points="392.0441,-166.0746 368.0392,-166.0746 368.0392,-149.0746 392.0441,-149.0746 392.0441,-166.0746"/>
<text text-anchor="middle" x="380.0416" y="-154.8746" font-family="Times,serif" font-size="9.00" fill="#000000">&#45;4</text>
</g>
<!-- &#45;3&#45;&gt;&#45;4 -->
<!-- &#45;3&#45;&gt;3 -->
<g id="edge18" class="edge">
<title>&#45;3&#45;&gt;3</title>
<path fill="none" stroke="#00ff00" stroke-width="1.0073" d="M341.4836,-149.0529C347.6126,-127.6644 363.8212,-71.1005 373.1561,-38.5244"/>
<polygon fill="#00ff00" stroke="#00ff00" stroke-width="1.0073" points="376.5337,-39.4429 375.9239,-28.8656 369.8045,-37.5146 376.5337,-39.4429"/>
</g>
<!-- &#45;5 -->
<g id="node5" class="node">
<title>&#45;5</title>
<polygon fill="#d3d3d3" stroke="#000000" points="433.0441,-166.0746 409.0392,-166.0746 409.0392,-149.0746 433.0441,-149.0746 433.0441,-166.0746"/>
<text text-anchor="middle" x="421.0416" y="-154.8746" font-family="Times,serif" font-size="9.00" fill="#000000">&#45;5</text>
</g>
<!-- &#45;4&#45;&gt;&#45;5 -->
<!-- &#45;4&#45;&gt;3 -->
<g id="edge14" class="edge">
<title>&#45;4&#45;&gt;3</title>
<path fill="none" stroke="#00ff00" stroke-width=".7642" stroke-dasharray="1,5" d="M380.0416,-149.0529C380.0416,-127.8651 380.0416,-72.1589 380.0416,-39.4477"/>
<polygon fill="#00ff00" stroke="#00ff00" stroke-width=".7642" points="383.5417,-39.3189 380.0416,-29.3189 376.5417,-39.319 383.5417,-39.3189"/>
</g>
<!-- &#45;6 -->
<g id="node6" class="node">
<title>&#45;6</title>
<polygon fill="#d3d3d3" stroke="#000000" points="474.0441,-166.0746 450.0392,-166.0746 450.0392,-149.0746 474.0441,-149.0746 474.0441,-166.0746"/>
<text text-anchor="middle" x="462.0416" y="-154.8746" font-family="Times,serif" font-size="9.00" fill="#000000">&#45;6</text>
</g>
<!-- &#45;5&#45;&gt;&#45;6 -->
<!-- 0 -->
<g id="node10" class="node">
<title>0</title>
<ellipse fill="#add8e6" stroke="#000000" cx="105.0416" cy="-14.4957" rx="14.4914" ry="14.4914"/>
<text text-anchor="middle" x="105.0416" y="-11.7957" font-family="Times,serif" font-size="9.00" fill="#000000">0</text>
</g>
<!-- &#45;5&#45;&gt;0 -->
<g id="edge12" class="edge">
<title>&#45;5&#45;&gt;0</title>
<path fill="none" stroke="#00ff00" stroke-width=".6058" d="M408.9181,-151.9627C406.3526,-150.9057 403.6357,-149.8807 401.0416,-149.0746 324.3798,-125.2543 296.4581,-147.7201 224.0416,-113.0746 182.4429,-93.173 143.0567,-55.5536 121.6663,-32.9821"/>
<polygon fill="#00ff00" stroke="#00ff00" stroke-width=".6058" points="123.9998,-30.3516 114.6291,-25.4078 118.8715,-35.1162 123.9998,-30.3516"/>
</g>
<!-- 1531 -->
<g id="node15" class="node">
<title>1531</title>
<ellipse fill="#ffffff" stroke="#000000" cx="432.0416" cy="-89.033" rx="24.0833" ry="24.0833"/>
<text text-anchor="middle" x="432.0416" y="-86.333" font-family="Times,serif" font-size="9.00" fill="#000000">1531</text>
</g>
<!-- &#45;5&#45;&gt;1531 -->
<g id="edge21" class="edge">
<title>&#45;5&#45;&gt;1531</title>
<path fill="none" stroke="#00ff00" stroke-width=".1677" d="M422.4348,-148.8938C423.5075,-142.2099 425.0643,-132.5089 426.6136,-122.8553"/>
<polygon fill="#00ff00" stroke="#00ff00" stroke-width=".1677" points="430.0758,-123.3692 428.2047,-112.9409 423.1643,-122.2599 430.0758,-123.3692"/>
</g>
<!-- &#45;7 -->
<g id="node7" class="node">
<title>&#45;7</title>
<polygon fill="#d3d3d3" stroke="#000000" points="524.0441,-166.0746 500.0392,-166.0746 500.0392,-149.0746 524.0441,-149.0746 524.0441,-166.0746"/>
<text text-anchor="middle" x="512.0416" y="-154.8746" font-family="Times,serif" font-size="9.00" fill="#000000">&#45;7</text>
</g>
<!-- &#45;6&#45;&gt;&#45;7 -->
<!-- &#45;6&#45;&gt;1 -->
<g id="edge16" class="edge">
<title>&#45;6&#45;&gt;1</title>
<path fill="none" stroke="#ff0000" stroke-width="1.5993" d="M449.8695,-152.1096C447.3075,-151.0419 444.6043,-149.9755 442.0416,-149.0746 386.2896,-129.4773 368.2302,-136.6532 314.0416,-113.0746 259.8714,-89.5041 202.0495,-50.5442 172.3088,-29.3489"/>
<polygon fill="#ff0000" stroke="#ff0000" stroke-width="1.5993" points="174.1761,-26.3805 164.0156,-23.378 170.0861,-32.0614 174.1761,-26.3805"/>
</g>
<!-- &#45;6&#45;&gt;2 -->
<g id="edge19" class="edge">
<title>&#45;6&#45;&gt;2</title>
<path fill="none" stroke="#00ff00" stroke-width=".3035" stroke-dasharray="1,5" d="M450.1158,-150.2826C412.6585,-127.3794 297.0184,-56.6714 249.1371,-27.3945"/>
<polygon fill="#00ff00" stroke="#00ff00" stroke-width=".3035" points="250.8649,-24.3485 240.5075,-22.1179 247.2132,-30.3206 250.8649,-24.3485"/>
</g>
<!-- &#45;6&#45;&gt;3 -->
<g id="edge22" class="edge">
<title>&#45;6&#45;&gt;3</title>
<path fill="none" stroke="#00ff00" stroke-width=".1222" d="M465.1134,-148.9522C470.6927,-131.6985 480.5522,-92.2468 465.0416,-64.9914 452.0416,-42.1476 424.1812,-28.5651 403.8895,-21.3379"/>
<polygon fill="#00ff00" stroke="#00ff00" stroke-width=".1222" points="404.9539,-18.0036 394.3609,-18.205 402.7674,-24.6534 404.9539,-18.0036"/>
</g>
<!-- &#45;8 -->
<g id="node8" class="node">
<title>&#45;8</title>
<polygon fill="#d3d3d3" stroke="#000000" points="565.0441,-166.0746 541.0392,-166.0746 541.0392,-149.0746 565.0441,-149.0746 565.0441,-166.0746"/>
<text text-anchor="middle" x="553.0416" y="-154.8746" font-family="Times,serif" font-size="9.00" fill="#000000">&#45;8</text>
</g>
<!-- &#45;7&#45;&gt;&#45;8 -->
<!-- &#45;7&#45;&gt;0 -->
<g id="edge24" class="edge">
<title>&#45;7&#45;&gt;0</title>
<path fill="none" stroke="#ff0000" stroke-width=".9136" d="M510.4806,-148.8785C506.5909,-130.007 494.5689,-85.3612 465.0416,-64.9914 403.2293,-22.3493 200.2035,-52.9725 129.0416,-28.9914 128.1537,-28.6921 127.2635,-28.3559 126.3766,-27.99"/>
<polygon fill="#ff0000" stroke="#ff0000" stroke-width=".9136" points="127.7291,-24.7491 117.239,-23.263 124.5127,-30.9665 127.7291,-24.7491"/>
</g>
<!-- &#45;7&#45;&gt;3 -->
<g id="edge13" class="edge">
<title>&#45;7&#45;&gt;3</title>
<path fill="none" stroke="#00ff00" stroke-width="1.1523" d="M518.5336,-149.0386C530.9472,-131.5991 555.1859,-91.3105 536.0416,-64.9914 520.3577,-43.4295 444.0979,-26.3854 404.3115,-18.7926"/>
<polygon fill="#00ff00" stroke="#00ff00" stroke-width="1.1523" points="404.8335,-15.3298 394.3627,-16.9463 403.5562,-22.2123 404.8335,-15.3298"/>
</g>
<!-- &#45;7&#45;&gt;1531 -->
<g id="edge27" class="edge">
<title>&#45;7&#45;&gt;1531</title>
<path fill="none" stroke="#00ff00" stroke-width=".4583" d="M501.9096,-148.8938C490.9832,-139.5324 473.1488,-124.2524 458.2339,-111.4738"/>
<polygon fill="#00ff00" stroke="#00ff00" stroke-width=".4583" points="460.1818,-108.5338 450.3106,-104.6853 455.6274,-113.8496 460.1818,-108.5338"/>
</g>
<!-- &#45;9 -->
<g id="node9" class="node">
<title>&#45;9</title>
<polygon fill="#d3d3d3" stroke="#000000" points="606.0441,-166.0746 582.0392,-166.0746 582.0392,-149.0746 606.0441,-149.0746 606.0441,-166.0746"/>
<text text-anchor="middle" x="594.0416" y="-154.8746" font-family="Times,serif" font-size="9.00" fill="#000000">&#45;9</text>
</g>
<!-- &#45;8&#45;&gt;&#45;9 -->
<!-- 0&#45;&gt;1 -->
<!-- 1&#45;&gt;2 -->
<!-- 2&#45;&gt;3 -->
<!-- 1531&#45;&gt;3 -->
<g id="edge20" class="edge">
<title>1531&#45;&gt;3</title>
<path fill="none" stroke="#00ff00" stroke-width=".7872" d="M418.1066,-69.0584C410.7736,-58.5472 401.7954,-45.6778 394.4005,-35.0778"/>
<polygon fill="#00ff00" stroke="#00ff00" stroke-width=".7872" points="397.2242,-33.0081 388.632,-26.8092 391.4832,-37.0132 397.2242,-33.0081"/>
</g>
</g>
</svg>
