<?xml version="1.0" encoding="UTF-8" standalone="no"?>
<!DOCTYPE svg PUBLIC "-//W3C//DTD SVG 1.1//EN"
 "http://www.w3.org/Graphics/SVG/1.1/DTD/svg11.dtd">
<!-- Generated by graphviz version 2.40.1 (20161225.0304)
 -->
<!-- Title: %3 Pages: 1 -->
<svg width="413pt" height="174pt"
 viewBox="0.00 0.00 412.99 174.07" xmlns="http://www.w3.org/2000/svg" xmlns:xlink="http://www.w3.org/1999/xlink">
<g id="graph0" class="graph" transform="scale(1 1) rotate(0) translate(4 170.0746)">
<title>%3</title>
<polygon fill="#ffffff" stroke="transparent" points="-4,4 -4,-170.0746 408.9914,-170.0746 408.9914,4 -4,4"/>
<!-- &#45;1 -->
<g id="node1" class="node">
<title>&#45;1</title>
<polygon fill="#d3d3d3" stroke="#000000" points="208.4981,-166.0746 184.4932,-166.0746 184.4932,-149.0746 208.4981,-149.0746 208.4981,-166.0746"/>
<text text-anchor="middle" x="196.4957" y="-154.8746" font-family="Times,serif" font-size="9.00" fill="#000000">&#45;1</text>
</g>
<!-- &#45;2 -->
<g id="node2" class="node">
<title>&#45;2</title>
<polygon fill="#d3d3d3" stroke="#000000" points="293.4981,-166.0746 269.4932,-166.0746 269.4932,-149.0746 293.4981,-149.0746 293.4981,-166.0746"/>
<text text-anchor="middle" x="281.4957" y="-154.8746" font-family="Times,serif" font-size="9.00" fill="#000000">&#45;2</text>
</g>
<!-- &#45;1&#45;&gt;&#45;2 -->
<!-- 3 -->
<g id="node7" class="node">
<title>3</title>
<ellipse fill="#add8e6" stroke="#000000" cx="155.4957" cy="-14.4957" rx="14.4914" ry="14.4914"/>
<text text-anchor="middle" x="155.4957" y="-11.7957" font-family="Times,serif" font-size="9.00" fill="#000000">3</text>
</g>
<!-- &#45;1&#45;&gt;3 -->
<g id="edge20" class="edge">
<title>&#45;1&#45;&gt;3</title>
<path fill="none" stroke="#00ff00" stroke-width=".2713" d="M184.5649,-155.0685C156.3197,-148.8688 86.7345,-131.9428 73.4957,-113.0746 61.2213,-95.5809 63.074,-83.6483 73.4957,-64.9914 73.9295,-64.2148 110.053,-42.1381 134.2043,-27.4355"/>
<polygon fill="#00ff00" stroke="#00ff00" stroke-width=".2713" points="136.0508,-30.409 142.7749,-22.2214 132.4125,-24.4287 136.0508,-30.409"/>
</g>
<!-- 4 -->
<g id="node8" class="node">
<title>4</title>
<ellipse fill="#add8e6" stroke="#000000" cx="202.4957" cy="-14.4957" rx="14.4914" ry="14.4914"/>
<text text-anchor="middle" x="202.4957" y="-11.7957" font-family="Times,serif" font-size="9.00" fill="#000000">4</text>
</g>
<!-- &#45;1&#45;&gt;4 -->
<g id="edge14" class="edge">
<title>&#45;1&#45;&gt;4</title>
<path fill="none" stroke="#00ff00" stroke-width="3.0825" d="M192.8959,-148.898C189.4399,-140.0636 184.4629,-125.8829 182.4957,-113.0746 179.2514,-91.952 178.49,-85.9829 182.4957,-64.9914 184.325,-55.4051 187.9442,-45.3164 191.6071,-36.6985"/>
<polygon fill="#00ff00" stroke="#00ff00" stroke-width="3.0825" points="194.8916,-37.9295 195.8224,-27.3756 188.5133,-35.0456 194.8916,-37.9295"/>
</g>
<!-- 5 -->
<g id="node9" class="node">
<title>5</title>
<ellipse fill="#add8e6" stroke="#000000" cx="249.4957" cy="-14.4957" rx="14.4914" ry="14.4914"/>
<text text-anchor="middle" x="249.4957" y="-11.7957" font-family="Times,serif" font-size="9.00" fill="#000000">5</text>
</g>
<!-- &#45;1&#45;&gt;5 -->
<g id="edge11" class="edge">
<title>&#45;1&#45;&gt;5</title>
<path fill="none" stroke="#00ff00" stroke-width=".4167" stroke-dasharray="1,5" d="M197.9407,-148.9041C200.8947,-132.2172 208.3865,-94.6627 220.4957,-64.9914 224.6349,-54.8489 230.4658,-44.2456 235.8147,-35.3887"/>
<polygon fill="#00ff00" stroke="#00ff00" stroke-width=".4167" points="238.7975,-37.22 241.1232,-26.8836 232.8592,-33.5136 238.7975,-37.22"/>
</g>
<!-- 6 -->
<g id="node10" class="node">
<title>6</title>
<ellipse fill="#add8e6" stroke="#000000" cx="296.4957" cy="-14.4957" rx="14.4914" ry="14.4914"/>
<text text-anchor="middle" x="296.4957" y="-11.7957" font-family="Times,serif" font-size="9.00" fill="#000000">6</text>
</g>
<!-- &#45;1&#45;&gt;6 -->
<g id="edge16" class="edge">
<title>&#45;1&#45;&gt;6</title>
<path fill="none" stroke="#00ff00" stroke-width=".3827" d="M202.4517,-149.0529C217.9125,-126.9316 259.6713,-67.1837 281.981,-35.2632"/>
<polygon fill="#00ff00" stroke="#00ff00" stroke-width=".3827" points="285.1152,-36.8884 287.9751,-26.6868 279.3777,-32.8783 285.1152,-36.8884"/>
</g>
<!-- 7 -->
<g id="node11" class="node">
<title>7</title>
<ellipse fill="#add8e6" stroke="#000000" cx="343.4957" cy="-14.4957" rx="14.4914" ry="14.4914"/>
<text text-anchor="middle" x="343.4957" y="-11.7957" font-family="Times,serif" font-size="9.00" fill="#000000">7</text>
</g>
<!-- &#45;1&#45;&gt;7 -->
<g id="edge17" class="edge">
<title>&#45;1&#45;&gt;7</title>
<path fill="none" stroke="#00ff00" stroke-width=".1735" d="M208.5503,-150.1461C221.5269,-141.8785 242.4624,-127.7405 258.4957,-113.0746 285.6334,-88.2515 312.6202,-55.1481 328.6798,-34.3254"/>
<polygon fill="#00ff00" stroke="#00ff00" stroke-width=".1735" points="331.5844,-36.2884 334.8621,-26.2132 326.0169,-32.0454 331.5844,-36.2884"/>
</g>
<!-- 2623 -->
<g id="node13" class="node">
<title>2623</title>
<ellipse fill="#ffffff" stroke="#000000" cx="106.4957" cy="-89.033" rx="24.0833" ry="24.0833"/>
<text text-anchor="middle" x="106.4957" y="-86.333" font-family="Times,serif" font-size="9.00" fill="#000000">2623</text>
</g>
<!-- &#45;1&#45;&gt;2623 -->
<g id="edge18" class="edge">
<title>&#45;1&#45;&gt;2623</title>
<path fill="none" stroke="#00ff00" stroke-width=".2059" d="M185.0971,-148.8938C172.2521,-139.1114 150.9209,-122.8661 133.7191,-109.7656"/>
<polygon fill="#00ff00" stroke="#00ff00" stroke-width=".2059" points="135.7377,-106.9036 125.6615,-103.6292 131.4966,-112.4725 135.7377,-106.9036"/>
</g>
<!-- &#45;3 -->
<g id="node3" class="node">
<title>&#45;3</title>
<polygon fill="#d3d3d3" stroke="#000000" points="351.4981,-166.0746 327.4932,-166.0746 327.4932,-149.0746 351.4981,-149.0746 351.4981,-166.0746"/>
<text text-anchor="middle" x="339.4957" y="-154.8746" font-family="Times,serif" font-size="9.00" fill="#000000">&#45;3</text>
</g>
<!-- &#45;2&#45;&gt;&#45;3 -->
<!-- 2 -->
<g id="node6" class="node">
<title>2</title>
<ellipse fill="#add8e6" stroke="#000000" cx="108.4957" cy="-14.4957" rx="14.4914" ry="14.4914"/>
<text text-anchor="middle" x="108.4957" y="-11.7957" font-family="Times,serif" font-size="9.00" fill="#000000">2</text>
</g>
<!-- &#45;2&#45;&gt;2 -->
<g id="edge15" class="edge">
<title>&#45;2&#45;&gt;2</title>
<path fill="none" stroke="#ff0000" stroke-width=".1633" d="M271.1918,-149.0529C243.0425,-125.7721 164.5036,-60.8168 127.8258,-30.4826"/>
<polygon fill="#ff0000" stroke="#ff0000" stroke-width=".1633" points="129.7959,-27.57 119.8592,-23.8939 125.3346,-32.9642 129.7959,-27.57"/>
</g>
<!-- &#45;2&#45;&gt;5 -->
<g id="edge13" class="edge">
<title>&#45;2&#45;&gt;5</title>
<path fill="none" stroke="#ff0000" stroke-width=".7346" d="M284.0102,-148.8779C288.4083,-132.1462 296.1556,-94.5184 286.4957,-64.9914 282.5113,-52.8124 274.3484,-41.1405 266.7012,-32.0921"/>
<polygon fill="#ff0000" stroke="#ff0000" stroke-width=".7346" points="269.2428,-29.6839 259.958,-24.5807 264.0338,-34.3602 269.2428,-29.6839"/>
</g>
<!-- 1 -->
<g id="node5" class="node">
<title>1</title>
<ellipse fill="#add8e6" stroke="#000000" cx="61.4957" cy="-14.4957" rx="14.4914" ry="14.4914"/>
<text text-anchor="middle" x="61.4957" y="-11.7957" font-family="Times,serif" font-size="9.00" fill="#000000">1</text>
</g>
<!-- &#45;3&#45;&gt;1 -->
<g id="edge12" class="edge">
<title>&#45;3&#45;&gt;1</title>
<path fill="none" stroke="#00ff00" stroke-width="2.4804" d="M327.6873,-151.9856C291.1924,-134.6299 177.1488,-79.7762 85.4957,-28.9914 84.6761,-28.5372 83.844,-28.0694 83.006,-27.5926"/>
<polygon fill="#00ff00" stroke="#00ff00" stroke-width="2.4804" points="84.49,-24.4048 74.0967,-22.348 80.9389,-30.4372 84.49,-24.4048"/>
</g>
<!-- 0 -->
<g id="node4" class="node">
<title>0</title>
<ellipse fill="#add8e6" stroke="#000000" cx="14.4957" cy="-14.4957" rx="14.4914" ry="14.4914"/>
<text text-anchor="middle" x="14.4957" y="-11.7957" font-family="Times,serif" font-size="9.00" fill="#000000">0</text>
</g>
<!-- 0&#45;&gt;1 -->
<!-- 1&#45;&gt;2 -->
<!-- 2&#45;&gt;3 -->
<!-- 3&#45;&gt;4 -->
<!-- 4&#45;&gt;5 -->
<!-- 5&#45;&gt;6 -->
<!-- 6&#45;&gt;7 -->
<!-- 8 -->
<g id="node12" class="node">
<title>8</title>
<ellipse fill="#add8e6" stroke="#000000" cx="390.4957" cy="-14.4957" rx="14.4914" ry="14.4914"/>
<text text-anchor="middle" x="390.4957" y="-11.7957" font-family="Times,serif" font-size="9.00" fill="#000000">8</text>
</g>
<!-- 7&#45;&gt;8 -->
<!-- 2623&#45;&gt;1 -->
<g id="edge19" class="edge">
<title>2623&#45;&gt;1</title>
<path fill="none" stroke="#00ff00" stroke-width=".1499" d="M93.9607,-68.2702C87.8281,-58.1123 80.4578,-45.9043 74.2909,-35.6894"/>
<polygon fill="#00ff00" stroke="#00ff00" stroke-width=".1499" points="77.2003,-33.7366 69.0356,-26.9847 71.2077,-37.3545 77.2003,-33.7366"/>
</g>
<!-- 2623&#45;&gt;8 -->
<g id="edge21" class="edge">
<title>2623&#45;&gt;8</title>
<path fill="none" stroke="#ff0000" stroke-width=".2356" d="M130.5653,-86.0663C177.3874,-79.7391 283.4202,-62.6698 366.4957,-28.9914 367.3641,-28.6393 368.2376,-28.2583 369.1105,-27.8546"/>
<polygon fill="#ff0000" stroke="#ff0000" stroke-width=".2356" points="371.0496,-30.785 378.1827,-22.9511 367.7212,-24.627 371.0496,-30.785"/>
</g>
</g>
</svg>
