<?xml version="1.0" encoding="UTF-8" standalone="no"?>
<!DOCTYPE svg PUBLIC "-//W3C//DTD SVG 1.1//EN"
 "http://www.w3.org/Graphics/SVG/1.1/DTD/svg11.dtd">
<!-- Generated by graphviz version 2.40.1 (20161225.0304)
 -->
<!-- Title: %3 Pages: 1 -->
<svg width="413pt" height="174pt"
 viewBox="0.00 0.00 412.99 174.07" xmlns="http://www.w3.org/2000/svg" xmlns:xlink="http://www.w3.org/1999/xlink">
<g id="graph0" class="graph" transform="scale(1 1) rotate(0) translate(4 170.0746)">
<title>%3</title>
<polygon fill="#ffffff" stroke="transparent" points="-4,4 -4,-170.0746 408.9914,-170.0746 408.9914,4 -4,4"/>
<!-- &#45;1 -->
<g id="node1" class="node">
<title>&#45;1</title>
<polygon fill="#d3d3d3" stroke="#000000" points="192.4981,-166.0746 168.4932,-166.0746 168.4932,-149.0746 192.4981,-149.0746 192.4981,-166.0746"/>
<text text-anchor="middle" x="180.4957" y="-154.8746" font-family="Times,serif" font-size="9.00" fill="#000000">&#45;1</text>
</g>
<!-- &#45;2 -->
<g id="node2" class="node">
<title>&#45;2</title>
<polygon fill="#d3d3d3" stroke="#000000" points="250.4981,-166.0746 226.4932,-166.0746 226.4932,-149.0746 250.4981,-149.0746 250.4981,-166.0746"/>
<text text-anchor="middle" x="238.4957" y="-154.8746" font-family="Times,serif" font-size="9.00" fill="#000000">&#45;2</text>
</g>
<!-- &#45;1&#45;&gt;&#45;2 -->
<!-- 3 -->
<g id="node7" class="node">
<title>3</title>
<ellipse fill="#add8e6" stroke="#000000" cx="155.4957" cy="-14.4957" rx="14.4914" ry="14.4914"/>
<text text-anchor="middle" x="155.4957" y="-11.7957" font-family="Times,serif" font-size="9.00" fill="#000000">3</text>
</g>
<!-- &#45;1&#45;&gt;3 -->
<g id="edge19" class="edge">
<title>&#45;1&#45;&gt;3</title>
<path fill="none" stroke="#00ff00" stroke-width=".2713" d="M168.7178,-156.9789C144.9434,-155.0652 91.5258,-147.0064 68.4957,-113.0746 56.4944,-95.3924 57.7693,-83.4748 68.4957,-64.9914 84.6823,-37.0989 103.6913,-45.329 131.4957,-28.9914 132.3036,-28.5167 133.1257,-28.0314 133.9553,-27.5398"/>
<polygon fill="#00ff00" stroke="#00ff00" stroke-width=".2713" points="136.0452,-30.3679 142.8254,-22.2266 132.4481,-24.3628 136.0452,-30.3679"/>
</g>
<!-- 4 -->
<g id="node8" class="node">
<title>4</title>
<ellipse fill="#add8e6" stroke="#000000" cx="202.4957" cy="-14.4957" rx="14.4914" ry="14.4914"/>
<text text-anchor="middle" x="202.4957" y="-11.7957" font-family="Times,serif" font-size="9.00" fill="#000000">4</text>
</g>
<!-- &#45;1&#45;&gt;4 -->
<g id="edge13" class="edge">
<title>&#45;1&#45;&gt;4</title>
<path fill="none" stroke="#00ff00" stroke-width="3.0825" d="M178.7079,-148.7457C175.6657,-132.1021 170.4607,-95.0566 177.4957,-64.9914 179.8853,-54.7789 184.6586,-44.2632 189.3997,-35.4898"/>
<polygon fill="#00ff00" stroke="#00ff00" stroke-width="3.0825" points="192.4736,-37.1653 194.4174,-26.7503 186.403,-33.6799 192.4736,-37.1653"/>
</g>
<!-- 6 -->
<g id="node10" class="node">
<title>6</title>
<ellipse fill="#add8e6" stroke="#000000" cx="296.4957" cy="-14.4957" rx="14.4914" ry="14.4914"/>
<text text-anchor="middle" x="296.4957" y="-11.7957" font-family="Times,serif" font-size="9.00" fill="#000000">6</text>
</g>
<!-- &#45;1&#45;&gt;6 -->
<g id="edge15" class="edge">
<title>&#45;1&#45;&gt;6</title>
<path fill="none" stroke="#00ff00" stroke-width=".3827" d="M187.4046,-149.0529C205.5945,-126.6167 255.1647,-65.475 280.7499,-33.9171"/>
<polygon fill="#00ff00" stroke="#00ff00" stroke-width=".3827" points="283.7053,-35.8295 287.2843,-25.8574 278.2678,-31.4211 283.7053,-35.8295"/>
</g>
<!-- 7 -->
<g id="node11" class="node">
<title>7</title>
<ellipse fill="#add8e6" stroke="#000000" cx="343.4957" cy="-14.4957" rx="14.4914" ry="14.4914"/>
<text text-anchor="middle" x="343.4957" y="-11.7957" font-family="Times,serif" font-size="9.00" fill="#000000">7</text>
</g>
<!-- &#45;1&#45;&gt;7 -->
<g id="edge16" class="edge">
<title>&#45;1&#45;&gt;7</title>
<path fill="none" stroke="#00ff00" stroke-width=".1735" d="M192.3023,-151.1113C206.5216,-143.0741 230.8218,-128.5179 249.4957,-113.0746 279.4471,-88.305 309.6851,-54.7078 327.4964,-33.8275"/>
<polygon fill="#00ff00" stroke="#00ff00" stroke-width=".1735" points="330.3454,-35.8782 334.1174,-25.9775 324.9946,-31.365 330.3454,-35.8782"/>
</g>
<!-- 2623 -->
<g id="node13" class="node">
<title>2623</title>
<ellipse fill="#ffffff" stroke="#000000" cx="101.4957" cy="-89.033" rx="24.0833" ry="24.0833"/>
<text text-anchor="middle" x="101.4957" y="-86.333" font-family="Times,serif" font-size="9.00" fill="#000000">2623</text>
</g>
<!-- &#45;1&#45;&gt;2623 -->
<g id="edge17" class="edge">
<title>&#45;1&#45;&gt;2623</title>
<path fill="none" stroke="#00ff00" stroke-width=".2059" d="M170.4903,-148.8938C159.7706,-139.5932 142.3175,-124.4506 127.6479,-111.723"/>
<polygon fill="#00ff00" stroke="#00ff00" stroke-width=".2059" points="129.6919,-108.8628 119.8449,-104.953 125.1045,-114.1501 129.6919,-108.8628"/>
</g>
<!-- &#45;3 -->
<g id="node3" class="node">
<title>&#45;3</title>
<polygon fill="#d3d3d3" stroke="#000000" points="308.4981,-166.0746 284.4932,-166.0746 284.4932,-149.0746 308.4981,-149.0746 308.4981,-166.0746"/>
<text text-anchor="middle" x="296.4957" y="-154.8746" font-family="Times,serif" font-size="9.00" fill="#000000">&#45;3</text>
</g>
<!-- &#45;2&#45;&gt;&#45;3 -->
<!-- 2 -->
<g id="node6" class="node">
<title>2</title>
<ellipse fill="#add8e6" stroke="#000000" cx="108.4957" cy="-14.4957" rx="14.4914" ry="14.4914"/>
<text text-anchor="middle" x="108.4957" y="-11.7957" font-family="Times,serif" font-size="9.00" fill="#000000">2</text>
</g>
<!-- &#45;2&#45;&gt;2 -->
<g id="edge14" class="edge">
<title>&#45;2&#45;&gt;2</title>
<path fill="none" stroke="#ff0000" stroke-width=".1633" d="M230.7529,-149.0529C210.1802,-126.4104 153.7902,-64.3471 125.3576,-33.054"/>
<polygon fill="#ff0000" stroke="#ff0000" stroke-width=".1633" points="127.7657,-30.4997 118.4505,-25.452 122.5848,-35.207 127.7657,-30.4997"/>
</g>
<!-- 5 -->
<g id="node9" class="node">
<title>5</title>
<ellipse fill="#add8e6" stroke="#000000" cx="249.4957" cy="-14.4957" rx="14.4914" ry="14.4914"/>
<text text-anchor="middle" x="249.4957" y="-11.7957" font-family="Times,serif" font-size="9.00" fill="#000000">5</text>
</g>
<!-- &#45;2&#45;&gt;5 -->
<g id="edge12" class="edge">
<title>&#45;2&#45;&gt;5</title>
<path fill="none" stroke="#ff0000" stroke-width=".7346" d="M239.5837,-149.0566C240.6959,-140.1093 242.4096,-125.6221 243.4957,-113.0746 245.6664,-87.9958 247.3207,-59.2604 248.3369,-39.3105"/>
<polygon fill="#ff0000" stroke="#ff0000" stroke-width=".7346" points="251.8382,-39.3705 248.8351,-29.2101 244.8467,-39.0255 251.8382,-39.3705"/>
</g>
<!-- 1 -->
<g id="node5" class="node">
<title>1</title>
<ellipse fill="#add8e6" stroke="#000000" cx="61.4957" cy="-14.4957" rx="14.4914" ry="14.4914"/>
<text text-anchor="middle" x="61.4957" y="-11.7957" font-family="Times,serif" font-size="9.00" fill="#000000">1</text>
</g>
<!-- &#45;3&#45;&gt;1 -->
<g id="edge11" class="edge">
<title>&#45;3&#45;&gt;1</title>
<path fill="none" stroke="#00ff00" stroke-width="2.4804" d="M284.5189,-150.2826C246.9015,-127.3794 130.7672,-56.6714 82.6813,-27.3945"/>
<polygon fill="#00ff00" stroke="#00ff00" stroke-width="2.4804" points="84.3764,-24.3289 74.0148,-22.1179 80.7361,-30.3079 84.3764,-24.3289"/>
</g>
<!-- 0 -->
<g id="node4" class="node">
<title>0</title>
<ellipse fill="#add8e6" stroke="#000000" cx="14.4957" cy="-14.4957" rx="14.4914" ry="14.4914"/>
<text text-anchor="middle" x="14.4957" y="-11.7957" font-family="Times,serif" font-size="9.00" fill="#000000">0</text>
</g>
<!-- 0&#45;&gt;1 -->
<!-- 1&#45;&gt;2 -->
<!-- 2&#45;&gt;3 -->
<!-- 3&#45;&gt;4 -->
<!-- 4&#45;&gt;5 -->
<!-- 5&#45;&gt;6 -->
<!-- 6&#45;&gt;7 -->
<!-- 8 -->
<g id="node12" class="node">
<title>8</title>
<ellipse fill="#add8e6" stroke="#000000" cx="390.4957" cy="-14.4957" rx="14.4914" ry="14.4914"/>
<text text-anchor="middle" x="390.4957" y="-11.7957" font-family="Times,serif" font-size="9.00" fill="#000000">8</text>
</g>
<!-- 7&#45;&gt;8 -->
<!-- 2623&#45;&gt;1 -->
<g id="edge18" class="edge">
<title>2623&#45;&gt;1</title>
<path fill="none" stroke="#00ff00" stroke-width=".1499" d="M89.926,-67.4737C84.7345,-57.7997 78.6154,-46.3972 73.3866,-36.6536"/>
<polygon fill="#00ff00" stroke="#00ff00" stroke-width=".1499" points="76.3344,-34.7448 68.5218,-27.5884 70.1665,-38.0548 76.3344,-34.7448"/>
</g>
<!-- 2623&#45;&gt;8 -->
<g id="edge20" class="edge">
<title>2623&#45;&gt;8</title>
<path fill="none" stroke="#ff0000" stroke-width=".2356" d="M125.6611,-86.1928C173.1966,-80.0408 281.6132,-63.1979 366.4957,-28.9914 367.3648,-28.6411 368.2389,-28.2616 369.1124,-27.8592"/>
<polygon fill="#ff0000" stroke="#ff0000" stroke-width=".2356" points="371.049,-30.7912 378.187,-22.9618 367.7245,-24.631 371.049,-30.7912"/>
</g>
</g>
</svg>
