<?xml version="1.0" encoding="UTF-8" standalone="no"?>
<!DOCTYPE svg PUBLIC "-//W3C//DTD SVG 1.1//EN"
 "http://www.w3.org/Graphics/SVG/1.1/DTD/svg11.dtd">
<!-- Generated by graphviz version 2.40.1 (20161225.0304)
 -->
<!-- Title: %3 Pages: 1 -->
<svg width="472pt" height="174pt"
 viewBox="0.00 0.00 471.79 174.07" xmlns="http://www.w3.org/2000/svg" xmlns:xlink="http://www.w3.org/1999/xlink">
<g id="graph0" class="graph" transform="scale(1 1) rotate(0) translate(4 170.0746)">
<title>%3</title>
<polygon fill="#ffffff" stroke="transparent" points="-4,4 -4,-170.0746 467.7902,-170.0746 467.7902,4 -4,4"/>
<!-- &#45;1 -->
<g id="node1" class="node">
<title>&#45;1</title>
<polygon fill="#d3d3d3" stroke="#000000" points="136.0441,-166.0746 112.0392,-166.0746 112.0392,-149.0746 136.0441,-149.0746 136.0441,-166.0746"/>
<text text-anchor="middle" x="124.0416" y="-154.8746" font-family="Times,serif" font-size="9.00" fill="#000000">&#45;1</text>
</g>
<!-- &#45;2 -->
<g id="node2" class="node">
<title>&#45;2</title>
<polygon fill="#d3d3d3" stroke="#000000" points="177.0441,-166.0746 153.0392,-166.0746 153.0392,-149.0746 177.0441,-149.0746 177.0441,-166.0746"/>
<text text-anchor="middle" x="165.0416" y="-154.8746" font-family="Times,serif" font-size="9.00" fill="#000000">&#45;2</text>
</g>
<!-- &#45;1&#45;&gt;&#45;2 -->
<!-- 2 -->
<g id="node12" class="node">
<title>2</title>
<ellipse fill="#add8e6" stroke="#000000" cx="185.0416" cy="-14.4957" rx="14.4914" ry="14.4914"/>
<text text-anchor="middle" x="185.0416" y="-11.7957" font-family="Times,serif" font-size="9.00" fill="#000000">2</text>
</g>
<!-- &#45;1&#45;&gt;2 -->
<g id="edge20" class="edge">
<title>&#45;1&#45;&gt;2</title>
<path fill="none" stroke="#00ff00" stroke-width=".2437" d="M127.6748,-149.0529C136.8861,-127.4472 161.4,-69.9484 175.2171,-37.5397"/>
<polygon fill="#00ff00" stroke="#00ff00" stroke-width=".2437" points="178.592,-38.5479 179.2943,-27.9763 172.1528,-35.8026 178.592,-38.5479"/>
</g>
<!-- 2465 -->
<g id="node15" class="node">
<title>2465</title>
<ellipse fill="none" stroke="#000000" cx="24.0416" cy="-89.033" rx="24.0833" ry="24.0833"/>
<text text-anchor="middle" x="24.0416" y="-86.333" font-family="Times,serif" font-size="9.00" fill="#000000">2465</text>
</g>
<!-- &#45;1&#45;&gt;2465 -->
<g id="edge22" class="edge">
<title>&#45;1&#45;&gt;2465</title>
<path fill="none" stroke="#00ff00" stroke-width=".3615" d="M112.1776,-149.4429C97.5759,-139.4346 72.2908,-122.1038 52.5376,-108.5646"/>
<polygon fill="#00ff00" stroke="#00ff00" stroke-width=".3615" points="54.4114,-105.6057 44.1841,-102.839 50.4538,-111.3796 54.4114,-105.6057"/>
</g>
<!-- &#45;3 -->
<g id="node3" class="node">
<title>&#45;3</title>
<polygon fill="#d3d3d3" stroke="#000000" points="218.0441,-166.0746 194.0392,-166.0746 194.0392,-149.0746 218.0441,-149.0746 218.0441,-166.0746"/>
<text text-anchor="middle" x="206.0416" y="-154.8746" font-family="Times,serif" font-size="9.00" fill="#000000">&#45;3</text>
</g>
<!-- &#45;2&#45;&gt;&#45;3 -->
<!-- &#45;2&#45;&gt;2 -->
<g id="edge15" class="edge">
<title>&#45;2&#45;&gt;2</title>
<path fill="none" stroke="#00ff00" stroke-width=".2895" d="M166.2328,-149.0529C169.2096,-127.757 177.0609,-71.5896 181.6235,-38.9488"/>
<polygon fill="#00ff00" stroke="#00ff00" stroke-width=".2895" points="185.1148,-39.2539 183.033,-28.8656 178.1822,-38.2848 185.1148,-39.2539"/>
</g>
<!-- &#45;4 -->
<g id="node4" class="node">
<title>&#45;4</title>
<polygon fill="#d3d3d3" stroke="#000000" points="259.0441,-166.0746 235.0392,-166.0746 235.0392,-149.0746 259.0441,-149.0746 259.0441,-166.0746"/>
<text text-anchor="middle" x="247.0416" y="-154.8746" font-family="Times,serif" font-size="9.00" fill="#000000">&#45;4</text>
</g>
<!-- &#45;3&#45;&gt;&#45;4 -->
<!-- 3 -->
<g id="node13" class="node">
<title>3</title>
<ellipse fill="#add8e6" stroke="#000000" cx="266.0416" cy="-14.4957" rx="14.4914" ry="14.4914"/>
<text text-anchor="middle" x="266.0416" y="-11.7957" font-family="Times,serif" font-size="9.00" fill="#000000">3</text>
</g>
<!-- &#45;3&#45;&gt;3 -->
<g id="edge16" class="edge">
<title>&#45;3&#45;&gt;3</title>
<path fill="none" stroke="#00ff00" stroke-width="1.0073" d="M209.6152,-149.0529C218.6755,-127.4472 242.7876,-69.9484 256.3781,-37.5397"/>
<polygon fill="#00ff00" stroke="#00ff00" stroke-width="1.0073" points="259.7489,-38.5518 260.3885,-27.9763 253.2936,-35.8448 259.7489,-38.5518"/>
</g>
<!-- &#45;5 -->
<g id="node5" class="node">
<title>&#45;5</title>
<polygon fill="#d3d3d3" stroke="#000000" points="300.0441,-166.0746 276.0392,-166.0746 276.0392,-149.0746 300.0441,-149.0746 300.0441,-166.0746"/>
<text text-anchor="middle" x="288.0416" y="-154.8746" font-family="Times,serif" font-size="9.00" fill="#000000">&#45;5</text>
</g>
<!-- &#45;4&#45;&gt;&#45;5 -->
<!-- &#45;6 -->
<g id="node6" class="node">
<title>&#45;6</title>
<polygon fill="#d3d3d3" stroke="#000000" points="341.0441,-166.0746 317.0392,-166.0746 317.0392,-149.0746 341.0441,-149.0746 341.0441,-166.0746"/>
<text text-anchor="middle" x="329.0416" y="-154.8746" font-family="Times,serif" font-size="9.00" fill="#000000">&#45;6</text>
</g>
<!-- &#45;5&#45;&gt;&#45;6 -->
<!-- 0 -->
<g id="node10" class="node">
<title>0</title>
<ellipse fill="#add8e6" stroke="#000000" cx="81.0416" cy="-14.4957" rx="14.4914" ry="14.4914"/>
<text text-anchor="middle" x="81.0416" y="-11.7957" font-family="Times,serif" font-size="9.00" fill="#000000">0</text>
</g>
<!-- &#45;5&#45;&gt;0 -->
<g id="edge12" class="edge">
<title>&#45;5&#45;&gt;0</title>
<path fill="none" stroke="#00ff00" stroke-width=".6058" d="M276.1386,-152.204C254.8331,-142.5169 211.0937,-122.2731 197.0416,-113.0746 159.4264,-88.4516 120.5816,-53.0249 98.7502,-32.0246"/>
<polygon fill="#00ff00" stroke="#00ff00" stroke-width=".6058" points="101.1207,-29.4477 91.5106,-24.9871 96.2415,-34.467 101.1207,-29.4477"/>
</g>
<!-- 1531 -->
<g id="node14" class="node">
<title>1531</title>
<ellipse fill="#ffffff" stroke="#000000" cx="318.0416" cy="-89.033" rx="24.0833" ry="24.0833"/>
<text text-anchor="middle" x="318.0416" y="-86.333" font-family="Times,serif" font-size="9.00" fill="#000000">1531</text>
</g>
<!-- &#45;5&#45;&gt;1531 -->
<g id="edge18" class="edge">
<title>&#45;5&#45;&gt;1531</title>
<path fill="none" stroke="#00ff00" stroke-width=".1677" d="M291.8412,-148.8938C295.0039,-141.6679 299.71,-130.9156 304.2648,-120.5093"/>
<polygon fill="#00ff00" stroke="#00ff00" stroke-width=".1677" points="307.5531,-121.7252 308.3565,-111.1608 301.1405,-118.9184 307.5531,-121.7252"/>
</g>
<!-- &#45;7 -->
<g id="node7" class="node">
<title>&#45;7</title>
<polygon fill="#d3d3d3" stroke="#000000" points="382.0441,-166.0746 358.0392,-166.0746 358.0392,-149.0746 382.0441,-149.0746 382.0441,-166.0746"/>
<text text-anchor="middle" x="370.0416" y="-154.8746" font-family="Times,serif" font-size="9.00" fill="#000000">&#45;7</text>
</g>
<!-- &#45;6&#45;&gt;&#45;7 -->
<!-- 1 -->
<g id="node11" class="node">
<title>1</title>
<ellipse fill="#add8e6" stroke="#000000" cx="128.0416" cy="-14.4957" rx="14.4914" ry="14.4914"/>
<text text-anchor="middle" x="128.0416" y="-11.7957" font-family="Times,serif" font-size="9.00" fill="#000000">1</text>
</g>
<!-- &#45;6&#45;&gt;1 -->
<g id="edge14" class="edge">
<title>&#45;6&#45;&gt;1</title>
<path fill="none" stroke="#ff0000" stroke-width="1.5993" d="M316.9506,-149.0627C304.2578,-140.1204 283.7271,-125.6373 266.0416,-113.0746 223.9883,-83.2026 174.8624,-48.0479 148.0397,-28.8315"/>
<polygon fill="#ff0000" stroke="#ff0000" stroke-width="1.5993" points="150.008,-25.936 139.8408,-22.9562 145.9306,-31.626 150.008,-25.936"/>
</g>
<!-- &#45;6&#45;&gt;3 -->
<g id="edge19" class="edge">
<title>&#45;6&#45;&gt;3</title>
<path fill="none" stroke="#00ff00" stroke-width=".1222" d="M317.3681,-149.0599C307.181,-140.973 292.8431,-127.8759 285.0416,-113.0746 272.8484,-89.9411 268.4213,-60.0633 266.8454,-39.2925"/>
<polygon fill="#00ff00" stroke="#00ff00" stroke-width=".1222" points="270.3252,-38.845 266.2435,-29.068 263.3373,-39.2564 270.3252,-38.845"/>
</g>
<!-- &#45;8 -->
<g id="node8" class="node">
<title>&#45;8</title>
<polygon fill="#d3d3d3" stroke="#000000" points="423.0441,-166.0746 399.0392,-166.0746 399.0392,-149.0746 423.0441,-149.0746 423.0441,-166.0746"/>
<text text-anchor="middle" x="411.0416" y="-154.8746" font-family="Times,serif" font-size="9.00" fill="#000000">&#45;8</text>
</g>
<!-- &#45;7&#45;&gt;&#45;8 -->
<!-- &#45;7&#45;&gt;0 -->
<g id="edge21" class="edge">
<title>&#45;7&#45;&gt;0</title>
<path fill="none" stroke="#ff0000" stroke-width=".9136" d="M371.1949,-148.9062C373.1101,-130.4835 374.6611,-87.2992 351.0416,-64.9914 270.7093,10.8801 209.0535,-66.2915 105.0416,-28.9914 104.1596,-28.6751 103.2745,-28.3244 102.3918,-27.9462"/>
<polygon fill="#ff0000" stroke="#ff0000" stroke-width=".9136" points="103.7553,-24.7092 93.274,-23.1622 100.5029,-30.9077 103.7553,-24.7092"/>
</g>
<!-- &#45;7&#45;&gt;3 -->
<g id="edge13" class="edge">
<title>&#45;7&#45;&gt;3</title>
<path fill="none" stroke="#00ff00" stroke-width="1.1523" d="M375.0211,-148.8166C384.2382,-131.3192 401.4992,-91.4508 384.0416,-64.9914 363.4578,-33.7937 319.1898,-21.8002 291.1106,-17.2386"/>
<polygon fill="#00ff00" stroke="#00ff00" stroke-width="1.1523" points="291.2701,-13.7263 280.8776,-15.7874 290.2871,-20.6569 291.2701,-13.7263"/>
</g>
<!-- &#45;7&#45;&gt;1531 -->
<g id="edge23" class="edge">
<title>&#45;7&#45;&gt;1531</title>
<path fill="none" stroke="#00ff00" stroke-width=".4583" d="M363.4558,-148.8938C357.2542,-140.7195 347.629,-128.0324 338.8331,-116.4384"/>
<polygon fill="#00ff00" stroke="#00ff00" stroke-width=".4583" points="341.4682,-114.1209 332.6357,-108.2696 335.8914,-118.3518 341.4682,-114.1209"/>
</g>
<!-- &#45;9 -->
<g id="node9" class="node">
<title>&#45;9</title>
<polygon fill="#d3d3d3" stroke="#000000" points="464.0441,-166.0746 440.0392,-166.0746 440.0392,-149.0746 464.0441,-149.0746 464.0441,-166.0746"/>
<text text-anchor="middle" x="452.0416" y="-154.8746" font-family="Times,serif" font-size="9.00" fill="#000000">&#45;9</text>
</g>
<!-- &#45;8&#45;&gt;&#45;9 -->
<!-- 0&#45;&gt;1 -->
<!-- 1&#45;&gt;2 -->
<!-- 2&#45;&gt;3 -->
<!-- 1531&#45;&gt;3 -->
<g id="edge17" class="edge">
<title>1531&#45;&gt;3</title>
<path fill="none" stroke="#00ff00" stroke-width=".7872" d="M304.1066,-69.0584C296.7736,-58.5472 287.7954,-45.6778 280.4005,-35.0778"/>
<polygon fill="#00ff00" stroke="#00ff00" stroke-width=".7872" points="283.2242,-33.0081 274.632,-26.8092 277.4832,-37.0132 283.2242,-33.0081"/>
</g>
</g>
</svg>
