<?xml version="1.0" encoding="UTF-8" standalone="no"?>
<!DOCTYPE svg PUBLIC "-//W3C//DTD SVG 1.1//EN"
 "http://www.w3.org/Graphics/SVG/1.1/DTD/svg11.dtd">
<!-- Generated by graphviz version 2.40.1 (20161225.0304)
 -->
<!-- Title: %3 Pages: 1 -->
<svg width="564pt" height="426pt"
 viewBox="0.00 0.00 563.52 426.32" xmlns="http://www.w3.org/2000/svg" xmlns:xlink="http://www.w3.org/1999/xlink">
<g id="graph0" class="graph" transform="scale(1 1) rotate(0) translate(4 422.3244)">
<title>%3</title>
<polygon fill="#ffffff" stroke="transparent" points="-4,4 -4,-422.3244 559.5217,-422.3244 559.5217,4 -4,4"/>
<!-- &#45;1 -->
<g id="node1" class="node">
<title>&#45;1</title>
<polygon fill="#d3d3d3" stroke="#000000" points="110.0285,-418.3244 86.0236,-418.3244 86.0236,-401.3244 110.0285,-401.3244 110.0285,-418.3244"/>
<text text-anchor="middle" x="98.026" y="-407.1244" font-family="Times,serif" font-size="9.00" fill="#000000">&#45;1</text>
</g>
<!-- &#45;2 -->
<g id="node2" class="node">
<title>&#45;2</title>
<polygon fill="#d3d3d3" stroke="#000000" points="353.0285,-418.3244 329.0236,-418.3244 329.0236,-401.3244 353.0285,-401.3244 353.0285,-418.3244"/>
<text text-anchor="middle" x="341.026" y="-407.1244" font-family="Times,serif" font-size="9.00" fill="#000000">&#45;2</text>
</g>
<!-- &#45;1&#45;&gt;&#45;2 -->
<!-- 3 -->
<g id="node7" class="node">
<title>3</title>
<ellipse fill="#add8e6" stroke="#000000" cx="302.026" cy="-14.4957" rx="14.4914" ry="14.4914"/>
<text text-anchor="middle" x="302.026" y="-11.7957" font-family="Times,serif" font-size="9.00" fill="#000000">3</text>
</g>
<!-- &#45;1&#45;&gt;3 -->
<g id="edge11" class="edge">
<title>&#45;1&#45;&gt;3</title>
<path fill="none" stroke="#00ff00" stroke-width="1.1983" d="M86.1573,-405.7364C70.1318,-399.5803 41.8753,-386.3602 27.026,-365.3244 -1.3619,-325.1095 3.026,-306.4246 3.026,-257.1995 3.026,-257.1995 3.026,-257.1995 3.026,-173.1163 3.026,-123.8912 -9.0781,-98.4518 27.026,-64.9914 109.6837,11.6138 171.8897,-66.8824 278.026,-28.9914 278.9085,-28.6763 279.794,-28.3267 280.677,-27.9495"/>
<polygon fill="#00ff00" stroke="#00ff00" stroke-width="1.1983" points="282.5641,-30.9121 289.7963,-23.1696 279.3143,-24.7121 282.5641,-30.9121"/>
</g>
<!-- 4 -->
<g id="node8" class="node">
<title>4</title>
<ellipse fill="#add8e6" stroke="#000000" cx="352.026" cy="-14.4957" rx="14.4914" ry="14.4914"/>
<text text-anchor="middle" x="352.026" y="-11.7957" font-family="Times,serif" font-size="9.00" fill="#000000">4</text>
</g>
<!-- &#45;1&#45;&gt;4 -->
<g id="edge18" class="edge">
<title>&#45;1&#45;&gt;4</title>
<path fill="none" stroke="#ff0000" stroke-width=".4701" stroke-dasharray="1,5" d="M89.7061,-401.0069C82.1482,-392.5125 71.2571,-378.9738 65.026,-365.3244 44.5836,-320.5448 41.026,-306.4246 41.026,-257.1995 41.026,-257.1995 41.026,-257.1995 41.026,-173.1163 41.026,-123.8912 28.8406,-98.3639 65.026,-64.9914 107.9038,-25.4468 269.5697,-47.071 325.026,-28.9914 326.73,-28.4358 328.4531,-27.7755 330.1608,-27.0476"/>
<polygon fill="#ff0000" stroke="#ff0000" stroke-width=".4701" points="332.1293,-29.9781 339.5317,-22.3981 329.018,-23.7074 332.1293,-29.9781"/>
</g>
<!-- 7 -->
<g id="node11" class="node">
<title>7</title>
<ellipse fill="#add8e6" stroke="#000000" cx="494.026" cy="-14.4957" rx="14.4914" ry="14.4914"/>
<text text-anchor="middle" x="494.026" y="-11.7957" font-family="Times,serif" font-size="9.00" fill="#000000">7</text>
</g>
<!-- &#45;1&#45;&gt;7 -->
<g id="edge12" class="edge">
<title>&#45;1&#45;&gt;7</title>
<path fill="none" stroke="#ff0000" stroke-width=".3138" d="M96.2042,-401.2651C91.4487,-378.1485 79.026,-312.4725 79.026,-257.1995 79.026,-257.1995 79.026,-257.1995 79.026,-173.1163 79.026,-92.0128 151.023,-95.8511 226.026,-64.9914 327.3992,-23.2818 366.8637,-66.0552 470.026,-28.9914 470.9079,-28.6746 471.7928,-28.3234 472.6754,-27.9449"/>
<polygon fill="#ff0000" stroke="#ff0000" stroke-width=".3138" points="474.565,-30.906 481.7925,-23.1591 471.3115,-24.708 474.565,-30.906"/>
</g>
<!-- 1331 -->
<g id="node19" class="node">
<title>1331</title>
<ellipse fill="#ffffff" stroke="#000000" cx="259.026" cy="-89.033" rx="24.0833" ry="24.0833"/>
<text text-anchor="middle" x="259.026" y="-86.333" font-family="Times,serif" font-size="9.00" fill="#000000">1331</text>
</g>
<!-- &#45;1&#45;&gt;1331 -->
<g id="edge19" class="edge">
<title>&#45;1&#45;&gt;1331</title>
<path fill="none" stroke="#00ff00" stroke-width=".6189" d="M98.1791,-401.0416C99.2461,-365.3733 107.6833,-229.4355 174.026,-149.0746 189.0123,-130.9218 210.7611,-115.6943 228.5073,-105.1166"/>
<polygon fill="#00ff00" stroke="#00ff00" stroke-width=".6189" points="230.4445,-108.0399 237.3655,-100.018 226.9526,-101.9731 230.4445,-108.0399"/>
</g>
<!-- 2452 -->
<g id="node21" class="node">
<title>2452</title>
<ellipse fill="#ffffff" stroke="#000000" cx="169.026" cy="-257.1995" rx="24.0833" ry="24.0833"/>
<text text-anchor="middle" x="169.026" y="-254.4995" font-family="Times,serif" font-size="9.00" fill="#000000">2452</text>
</g>
<!-- &#45;1&#45;&gt;2452 -->
<g id="edge23" class="edge">
<title>&#45;1&#45;&gt;2452</title>
<path fill="none" stroke="#00ff00" stroke-width=".1443" d="M105.6988,-401.1546C113.0002,-392.5521 123.9006,-378.7471 131.026,-365.3244 143.6707,-341.5049 153.5777,-312.5996 160.1017,-290.6704"/>
<polygon fill="#00ff00" stroke="#00ff00" stroke-width=".1443" points="163.5331,-291.4028 162.9441,-280.8243 156.8077,-289.4612 163.5331,-291.4028"/>
</g>
<!-- &#45;3 -->
<g id="node3" class="node">
<title>&#45;3</title>
<polygon fill="#d3d3d3" stroke="#000000" points="441.0285,-418.3244 417.0236,-418.3244 417.0236,-401.3244 441.0285,-401.3244 441.0285,-418.3244"/>
<text text-anchor="middle" x="429.026" y="-407.1244" font-family="Times,serif" font-size="9.00" fill="#000000">&#45;3</text>
</g>
<!-- &#45;2&#45;&gt;&#45;3 -->
<!-- &#45;2&#45;&gt;4 -->
<g id="edge13" class="edge">
<title>&#45;2&#45;&gt;4</title>
<path fill="none" stroke="#ff0000" stroke-width="1.7987" d="M352.8642,-406.6813C370.5289,-401.336 403.4759,-388.7101 420.026,-365.3244 448.2118,-325.4973 439.026,-305.9913 439.026,-257.1995 439.026,-257.1995 439.026,-257.1995 439.026,-173.1163 439.026,-115.943 395.0383,-59.8775 369.6187,-32.2515"/>
<polygon fill="#ff0000" stroke="#ff0000" stroke-width="1.7987" points="372.1076,-29.7894 362.6939,-24.928 367.0213,-34.5988 372.1076,-29.7894"/>
</g>
<!-- 1634 -->
<g id="node13" class="node">
<title>1634</title>
<ellipse fill="#ffffff" stroke="#000000" cx="289.026" cy="-341.2828" rx="24.0833" ry="24.0833"/>
<text text-anchor="middle" x="289.026" y="-338.5828" font-family="Times,serif" font-size="9.00" fill="#000000">1634</text>
</g>
<!-- &#45;2&#45;&gt;1634 -->
<g id="edge16" class="edge">
<title>&#45;2&#45;&gt;1634</title>
<path fill="none" stroke="#00ff00" stroke-width="1.3962" stroke-dasharray="1,5" d="M334.4402,-401.1436C328.2386,-392.9693 318.6134,-380.2822 309.8175,-368.6882"/>
<polygon fill="#00ff00" stroke="#00ff00" stroke-width="1.3962" points="312.4526,-366.3707 303.6201,-360.5193 306.8758,-370.6016 312.4526,-366.3707"/>
</g>
<!-- 1496 -->
<g id="node22" class="node">
<title>1496</title>
<ellipse fill="#ffffff" stroke="#000000" cx="387.026" cy="-257.1995" rx="24.0833" ry="24.0833"/>
<text text-anchor="middle" x="387.026" y="-254.4995" font-family="Times,serif" font-size="9.00" fill="#000000">1496</text>
</g>
<!-- &#45;2&#45;&gt;1496 -->
<g id="edge15" class="edge">
<title>&#45;2&#45;&gt;1496</title>
<path fill="none" stroke="#ff0000" stroke-width=".4247" stroke-dasharray="1,5" d="M342.1428,-401.2381C344.4349,-384.695 350.2899,-347.3757 360.026,-317.2412 363.1816,-307.4742 367.4459,-297.171 371.6527,-287.9097"/>
<polygon fill="#ff0000" stroke="#ff0000" stroke-width=".4247" points="374.8935,-289.2421 375.9668,-278.7017 368.5547,-286.2721 374.8935,-289.2421"/>
</g>
<!-- 1 -->
<g id="node5" class="node">
<title>1</title>
<ellipse fill="#add8e6" stroke="#000000" cx="208.026" cy="-14.4957" rx="14.4914" ry="14.4914"/>
<text text-anchor="middle" x="208.026" y="-11.7957" font-family="Times,serif" font-size="9.00" fill="#000000">1</text>
</g>
<!-- &#45;3&#45;&gt;1 -->
<g id="edge14" class="edge">
<title>&#45;3&#45;&gt;1</title>
<path fill="none" stroke="#00ff00" stroke-width="1.722" d="M433.8039,-401.1805C445.945,-378.3792 477.026,-314.4199 477.026,-257.1995 477.026,-257.1995 477.026,-257.1995 477.026,-173.1163 477.026,-46.7838 340.5416,-93.6774 232.026,-28.9914 231.2212,-28.5116 230.4016,-28.022 229.5742,-27.5268"/>
<polygon fill="#00ff00" stroke="#00ff00" stroke-width="1.722" points="231.0873,-24.3525 220.7141,-22.1966 227.4788,-30.3508 231.0873,-24.3525"/>
</g>
<!-- 0 -->
<g id="node4" class="node">
<title>0</title>
<ellipse fill="#add8e6" stroke="#000000" cx="156.026" cy="-14.4957" rx="14.4914" ry="14.4914"/>
<text text-anchor="middle" x="156.026" y="-11.7957" font-family="Times,serif" font-size="9.00" fill="#000000">0</text>
</g>
<!-- 0&#45;&gt;1 -->
<!-- 2 -->
<g id="node6" class="node">
<title>2</title>
<ellipse fill="#add8e6" stroke="#000000" cx="255.026" cy="-14.4957" rx="14.4914" ry="14.4914"/>
<text text-anchor="middle" x="255.026" y="-11.7957" font-family="Times,serif" font-size="9.00" fill="#000000">2</text>
</g>
<!-- 1&#45;&gt;2 -->
<!-- 2&#45;&gt;3 -->
<!-- 3&#45;&gt;4 -->
<!-- 5 -->
<g id="node9" class="node">
<title>5</title>
<ellipse fill="#add8e6" stroke="#000000" cx="400.026" cy="-14.4957" rx="14.4914" ry="14.4914"/>
<text text-anchor="middle" x="400.026" y="-11.7957" font-family="Times,serif" font-size="9.00" fill="#000000">5</text>
</g>
<!-- 4&#45;&gt;5 -->
<!-- 6 -->
<g id="node10" class="node">
<title>6</title>
<ellipse fill="#add8e6" stroke="#000000" cx="447.026" cy="-14.4957" rx="14.4914" ry="14.4914"/>
<text text-anchor="middle" x="447.026" y="-11.7957" font-family="Times,serif" font-size="9.00" fill="#000000">6</text>
</g>
<!-- 5&#45;&gt;6 -->
<!-- 6&#45;&gt;7 -->
<!-- 8 -->
<g id="node12" class="node">
<title>8</title>
<ellipse fill="#add8e6" stroke="#000000" cx="541.026" cy="-14.4957" rx="14.4914" ry="14.4914"/>
<text text-anchor="middle" x="541.026" y="-11.7957" font-family="Times,serif" font-size="9.00" fill="#000000">8</text>
</g>
<!-- 7&#45;&gt;8 -->
<!-- 1634&#45;&gt;5 -->
<g id="edge31" class="edge">
<title>1634&#45;&gt;5</title>
<path fill="none" stroke="#ff0000" stroke-width=".5396" d="M300.764,-320.0899C313.2588,-297.9456 333.9575,-262.4194 354.026,-233.1579 365.4905,-216.4418 374.5144,-215.9845 382.026,-197.1579 403.2155,-144.0499 403.5438,-75.6497 401.8449,-39.4868"/>
<polygon fill="#ff0000" stroke="#ff0000" stroke-width=".5396" points="405.3309,-39.1384 401.2734,-29.3514 398.342,-39.5326 405.3309,-39.1384"/>
</g>
<!-- 2597 -->
<g id="node15" class="node">
<title>2597</title>
<ellipse fill="#ffffff" stroke="#000000" cx="245.026" cy="-257.1995" rx="24.0833" ry="24.0833"/>
<text text-anchor="middle" x="245.026" y="-254.4995" font-family="Times,serif" font-size="9.00" fill="#000000">2597</text>
</g>
<!-- 1634&#45;&gt;2597 -->
<g id="edge26" class="edge">
<title>1634&#45;&gt;2597</title>
<path fill="none" stroke="#ff0000" stroke-width=".5317" d="M277.6949,-319.6293C272.6139,-309.9196 266.5312,-298.2955 260.9993,-287.7241"/>
<polygon fill="#ff0000" stroke="#ff0000" stroke-width=".5317" points="264.0563,-286.0171 256.3187,-278.7797 257.8542,-289.2627 264.0563,-286.0171"/>
</g>
<!-- 1634&#45;&gt;1331 -->
<g id="edge22" class="edge">
<title>1634&#45;&gt;1331</title>
<path fill="none" stroke="#ff0000" stroke-width=".5811" stroke-dasharray="1,5" d="M286.7836,-317.2115C284.692,-295.2849 281.3958,-262.0195 278.026,-233.1579 273.6207,-195.4268 267.8276,-152.2417 263.8014,-123.0591"/>
<polygon fill="#ff0000" stroke="#ff0000" stroke-width=".5811" points="267.2439,-122.4019 262.4039,-112.9772 260.3102,-123.3631 267.2439,-122.4019"/>
</g>
<!-- 1634&#45;&gt;2452 -->
<g id="edge30" class="edge">
<title>1634&#45;&gt;2452</title>
<path fill="none" stroke="#00ff00" stroke-width=".1774" d="M269.2105,-327.3982C249.582,-313.6446 219.3345,-292.4504 197.2089,-276.9471"/>
<polygon fill="#00ff00" stroke="#00ff00" stroke-width=".1774" points="199.0692,-273.9769 188.871,-271.1048 195.0522,-279.7097 199.0692,-273.9769"/>
</g>
<!-- 1634&#45;&gt;1496 -->
<g id="edge17" class="edge">
<title>1634&#45;&gt;1496</title>
<path fill="none" stroke="#ff0000" stroke-width=".326" d="M307.4591,-325.4674C322.5161,-312.5486 343.9845,-294.1289 360.8273,-279.6779"/>
<polygon fill="#ff0000" stroke="#ff0000" stroke-width=".326" points="363.3653,-282.112 368.6756,-272.944 358.8071,-276.7994 363.3653,-282.112"/>
</g>
<!-- 810 -->
<g id="node14" class="node">
<title>810</title>
<ellipse fill="#ffffff" stroke="#000000" cx="390.026" cy="-341.2828" rx="20.7202" ry="20.7202"/>
<text text-anchor="middle" x="390.026" y="-338.5828" font-family="Times,serif" font-size="9.00" fill="#000000">810</text>
</g>
<!-- 810&#45;&gt;1496 -->
<g id="edge21" class="edge">
<title>810&#45;&gt;1496</title>
<path fill="none" stroke="#ff0000" stroke-width=".6412" d="M389.269,-320.065C388.9605,-311.419 388.596,-301.2009 388.2514,-291.5438"/>
<polygon fill="#ff0000" stroke="#ff0000" stroke-width=".6412" points="391.7434,-291.2548 387.889,-281.386 384.7479,-291.5044 391.7434,-291.2548"/>
</g>
<!-- 2606 -->
<g id="node18" class="node">
<title>2606</title>
<ellipse fill="#ffffff" stroke="#000000" cx="207.026" cy="-173.1163" rx="24.0833" ry="24.0833"/>
<text text-anchor="middle" x="207.026" y="-170.4163" font-family="Times,serif" font-size="9.00" fill="#000000">2606</text>
</g>
<!-- 2597&#45;&gt;2606 -->
<g id="edge28" class="edge">
<title>2597&#45;&gt;2606</title>
<path fill="none" stroke="#00ff00" stroke-width=".2209" d="M235.042,-235.1076C230.8093,-225.7419 225.7995,-214.6566 221.1951,-204.4684"/>
<polygon fill="#00ff00" stroke="#00ff00" stroke-width=".2209" points="224.2512,-202.7318 216.9434,-195.0606 217.8723,-205.6147 224.2512,-202.7318"/>
</g>
<!-- 2597&#45;&gt;1331 -->
<g id="edge27" class="edge">
<title>2597&#45;&gt;1331</title>
<path fill="none" stroke="#ff0000" stroke-width=".3716" stroke-dasharray="1,5" d="M247.0319,-233.1054C249.4334,-204.2588 253.4712,-155.7569 256.1909,-123.0879"/>
<polygon fill="#ff0000" stroke="#ff0000" stroke-width=".3716" points="259.6821,-123.3384 257.0239,-113.0825 252.7062,-122.7576 259.6821,-123.3384"/>
</g>
<!-- 1965 -->
<g id="node16" class="node">
<title>1965</title>
<ellipse fill="#ffffff" stroke="#000000" cx="529.026" cy="-89.033" rx="24.0833" ry="24.0833"/>
<text text-anchor="middle" x="529.026" y="-86.333" font-family="Times,serif" font-size="9.00" fill="#000000">1965</text>
</g>
<!-- 1965&#45;&gt;5 -->
<g id="edge24" class="edge">
<title>1965&#45;&gt;5</title>
<path fill="none" stroke="#00ff00" stroke-width=".1202" d="M508.6798,-75.7872C503.0143,-72.2013 496.8236,-68.3772 491.026,-64.9914 461.8353,-47.9439 453.3921,-45.7351 424.026,-28.9914 423.212,-28.5273 422.3847,-28.051 421.5507,-27.567"/>
<polygon fill="#00ff00" stroke="#00ff00" stroke-width=".1202" points="423.0458,-24.3843 412.6602,-22.2891 419.4725,-30.4035 423.0458,-24.3843"/>
</g>
<!-- 2253 -->
<g id="node17" class="node">
<title>2253</title>
<ellipse fill="#ffffff" stroke="#000000" cx="349.026" cy="-173.1163" rx="24.0833" ry="24.0833"/>
<text text-anchor="middle" x="349.026" y="-170.4163" font-family="Times,serif" font-size="9.00" fill="#000000">2253</text>
</g>
<!-- 2253&#45;&gt;1331 -->
<g id="edge20" class="edge">
<title>2253&#45;&gt;1331</title>
<path fill="none" stroke="#ff0000" stroke-width=".1251" d="M331.2449,-156.5041C317.8088,-143.9513 299.1869,-126.5536 284.2181,-112.5689"/>
<polygon fill="#ff0000" stroke="#ff0000" stroke-width=".1251" points="286.4668,-109.8799 276.7702,-105.6106 281.688,-114.995 286.4668,-109.8799"/>
</g>
<!-- 2606&#45;&gt;1331 -->
<g id="edge29" class="edge">
<title>2606&#45;&gt;1331</title>
<path fill="none" stroke="#ff0000" stroke-width=".6837" d="M219.88,-152.3316C226.24,-142.0475 234.0242,-129.4605 240.9713,-118.2273"/>
<polygon fill="#ff0000" stroke="#ff0000" stroke-width=".6837" points="244.0369,-119.9245 246.32,-109.5786 238.0834,-116.2426 244.0369,-119.9245"/>
</g>
<!-- 1747 -->
<g id="node20" class="node">
<title>1747</title>
<ellipse fill="#ffffff" stroke="#000000" cx="529.026" cy="-173.1163" rx="24.0833" ry="24.0833"/>
<text text-anchor="middle" x="529.026" y="-170.4163" font-family="Times,serif" font-size="9.00" fill="#000000">1747</text>
</g>
<!-- 2452&#45;&gt;0 -->
<g id="edge25" class="edge">
<title>2452&#45;&gt;0</title>
<path fill="none" stroke="#ff0000" stroke-width=".6278" d="M167.732,-233.0408C165.2527,-186.7531 159.8571,-86.0196 157.3525,-39.2608"/>
<polygon fill="#ff0000" stroke="#ff0000" stroke-width=".6278" points="160.8389,-38.91 156.8089,-29.1116 153.8489,-39.2845 160.8389,-38.91"/>
</g>
</g>
</svg>
