<?xml version="1.0" encoding="UTF-8" standalone="no"?>
<!DOCTYPE svg PUBLIC "-//W3C//DTD SVG 1.1//EN"
 "http://www.w3.org/Graphics/SVG/1.1/DTD/svg11.dtd">
<!-- Generated by graphviz version 2.40.1 (20161225.0304)
 -->
<!-- Title: %3 Pages: 1 -->
<svg width="368pt" height="90pt"
 viewBox="0.00 0.00 368.50 89.99" xmlns="http://www.w3.org/2000/svg" xmlns:xlink="http://www.w3.org/1999/xlink">
<g id="graph0" class="graph" transform="scale(1 1) rotate(0) translate(4 85.9914)">
<title>%3</title>
<polygon fill="#ffffff" stroke="transparent" points="-4,4 -4,-85.9914 364.4971,-85.9914 364.4971,4 -4,4"/>
<!-- &#45;1 -->
<g id="node1" class="node">
<title>&#45;1</title>
<polygon fill="#d3d3d3" stroke="#000000" points="23.751,-81.9914 -.2539,-81.9914 -.2539,-64.9914 23.751,-64.9914 23.751,-81.9914"/>
<text text-anchor="middle" x="11.7485" y="-70.7914" font-family="Times,serif" font-size="9.00" fill="#000000">&#45;1</text>
</g>
<!-- &#45;2 -->
<g id="node2" class="node">
<title>&#45;2</title>
<polygon fill="#d3d3d3" stroke="#000000" points="64.751,-81.9914 40.7461,-81.9914 40.7461,-64.9914 64.751,-64.9914 64.751,-81.9914"/>
<text text-anchor="middle" x="52.7485" y="-70.7914" font-family="Times,serif" font-size="9.00" fill="#000000">&#45;2</text>
</g>
<!-- 0 -->
<g id="node10" class="node">
<title>0</title>
<ellipse fill="#add8e6" stroke="#000000" cx="90.7485" cy="-14.4957" rx="14.4914" ry="14.4914"/>
<text text-anchor="middle" x="90.7485" y="-11.7957" font-family="Times,serif" font-size="9.00" fill="#000000">0</text>
</g>
<!-- &#45;2&#45;&gt;0 -->
<g id="edge3" class="edge">
<title>&#45;2&#45;&gt;0</title>
<path fill="none" stroke="#ff0000" stroke-width=".1217" d="M58.3556,-64.7864C63.2872,-57.1299 70.6681,-45.6709 77.1394,-35.6241"/>
<polygon fill="#ff0000" stroke="#ff0000" stroke-width=".1217" points="80.2577,-37.2463 82.7303,-26.9441 74.3728,-33.4558 80.2577,-37.2463"/>
</g>
<!-- &#45;3 -->
<g id="node3" class="node">
<title>&#45;3</title>
<polygon fill="#d3d3d3" stroke="#000000" points="237.751,-81.9914 213.7461,-81.9914 213.7461,-64.9914 237.751,-64.9914 237.751,-81.9914"/>
<text text-anchor="middle" x="225.7485" y="-70.7914" font-family="Times,serif" font-size="9.00" fill="#000000">&#45;3</text>
</g>
<!-- &#45;4 -->
<g id="node4" class="node">
<title>&#45;4</title>
<polygon fill="#d3d3d3" stroke="#000000" points="105.751,-81.9914 81.7461,-81.9914 81.7461,-64.9914 105.751,-64.9914 105.751,-81.9914"/>
<text text-anchor="middle" x="93.7485" y="-70.7914" font-family="Times,serif" font-size="9.00" fill="#000000">&#45;4</text>
</g>
<!-- &#45;4&#45;&gt;0 -->
<g id="edge1" class="edge">
<title>&#45;4&#45;&gt;0</title>
<path fill="none" stroke="#00ff00" stroke-width=".4046" d="M93.3059,-64.7864C92.9638,-58.0594 92.4725,-48.3972 92.0117,-39.3363"/>
<polygon fill="#00ff00" stroke="#00ff00" stroke-width=".4046" points="95.4991,-38.9972 91.4957,-29.1879 88.5081,-39.3528 95.4991,-38.9972"/>
</g>
<!-- &#45;5 -->
<g id="node5" class="node">
<title>&#45;5</title>
<polygon fill="#d3d3d3" stroke="#000000" points="278.751,-81.9914 254.7461,-81.9914 254.7461,-64.9914 278.751,-64.9914 278.751,-81.9914"/>
<text text-anchor="middle" x="266.7485" y="-70.7914" font-family="Times,serif" font-size="9.00" fill="#000000">&#45;5</text>
</g>
<!-- &#45;6 -->
<g id="node6" class="node">
<title>&#45;6</title>
<polygon fill="#d3d3d3" stroke="#000000" points="149.751,-81.9914 125.7461,-81.9914 125.7461,-64.9914 149.751,-64.9914 149.751,-81.9914"/>
<text text-anchor="middle" x="137.7485" y="-70.7914" font-family="Times,serif" font-size="9.00" fill="#000000">&#45;6</text>
</g>
<!-- &#45;6&#45;&gt;0 -->
<g id="edge4" class="edge">
<title>&#45;6&#45;&gt;0</title>
<path fill="none" stroke="#ff0000" stroke-width=".3057" d="M130.8135,-64.7864C124.366,-56.6932 114.5336,-44.3513 106.223,-33.9197"/>
<polygon fill="#ff0000" stroke="#ff0000" stroke-width=".3057" points="108.9467,-31.7215 99.9781,-26.0809 103.4717,-36.0832 108.9467,-31.7215"/>
</g>
<!-- 1 -->
<g id="node11" class="node">
<title>1</title>
<ellipse fill="#add8e6" stroke="#000000" cx="137.7485" cy="-14.4957" rx="14.4914" ry="14.4914"/>
<text text-anchor="middle" x="137.7485" y="-11.7957" font-family="Times,serif" font-size="9.00" fill="#000000">1</text>
</g>
<!-- &#45;6&#45;&gt;1 -->
<g id="edge6" class="edge">
<title>&#45;6&#45;&gt;1</title>
<path fill="none" stroke="#00ff00" stroke-width=".1674" d="M137.7485,-64.7864C137.7485,-58.0594 137.7485,-48.3972 137.7485,-39.3363"/>
<polygon fill="#00ff00" stroke="#00ff00" stroke-width=".1674" points="141.2486,-39.1879 137.7485,-29.1879 134.2486,-39.1879 141.2486,-39.1879"/>
</g>
<!-- 2 -->
<g id="node12" class="node">
<title>2</title>
<ellipse fill="#add8e6" stroke="#000000" cx="184.7485" cy="-14.4957" rx="14.4914" ry="14.4914"/>
<text text-anchor="middle" x="184.7485" y="-11.7957" font-family="Times,serif" font-size="9.00" fill="#000000">2</text>
</g>
<!-- &#45;6&#45;&gt;2 -->
<g id="edge5" class="edge">
<title>&#45;6&#45;&gt;2</title>
<path fill="none" stroke="#00ff00" stroke-width=".274" d="M144.6835,-64.7864C151.1311,-56.6932 160.9635,-44.3513 169.274,-33.9197"/>
<polygon fill="#00ff00" stroke="#00ff00" stroke-width=".274" points="172.0253,-36.0832 175.5189,-26.0809 166.5503,-31.7215 172.0253,-36.0832"/>
</g>
<!-- &#45;7 -->
<g id="node7" class="node">
<title>&#45;7</title>
<polygon fill="#d3d3d3" stroke="#000000" points="319.751,-81.9914 295.7461,-81.9914 295.7461,-64.9914 319.751,-64.9914 319.751,-81.9914"/>
<text text-anchor="middle" x="307.7485" y="-70.7914" font-family="Times,serif" font-size="9.00" fill="#000000">&#45;7</text>
</g>
<!-- &#45;8 -->
<g id="node8" class="node">
<title>&#45;8</title>
<polygon fill="#d3d3d3" stroke="#000000" points="360.751,-81.9914 336.7461,-81.9914 336.7461,-64.9914 360.751,-64.9914 360.751,-81.9914"/>
<text text-anchor="middle" x="348.7485" y="-70.7914" font-family="Times,serif" font-size="9.00" fill="#000000">&#45;8</text>
</g>
<!-- &#45;9 -->
<g id="node9" class="node">
<title>&#45;9</title>
<polygon fill="#d3d3d3" stroke="#000000" points="196.751,-81.9914 172.7461,-81.9914 172.7461,-64.9914 196.751,-64.9914 196.751,-81.9914"/>
<text text-anchor="middle" x="184.7485" y="-70.7914" font-family="Times,serif" font-size="9.00" fill="#000000">&#45;9</text>
</g>
<!-- &#45;9&#45;&gt;2 -->
<g id="edge2" class="edge">
<title>&#45;9&#45;&gt;2</title>
<path fill="none" stroke="#ff0000" stroke-width=".1523" stroke-dasharray="1,5" d="M184.7485,-64.7864C184.7485,-58.0594 184.7485,-48.3972 184.7485,-39.3363"/>
<polygon fill="#ff0000" stroke="#ff0000" stroke-width=".1523" points="188.2486,-39.1879 184.7485,-29.1879 181.2486,-39.1879 188.2486,-39.1879"/>
</g>
</g>
</svg>
