<?xml version="1.0" encoding="UTF-8" standalone="no"?>
<!DOCTYPE svg PUBLIC "-//W3C//DTD SVG 1.1//EN"
 "http://www.w3.org/Graphics/SVG/1.1/DTD/svg11.dtd">
<!-- Generated by graphviz version 2.40.1 (20161225.0304)
 -->
<!-- Title: %3 Pages: 1 -->
<svg width="425pt" height="308pt"
 viewBox="0.00 0.00 424.54 308.33" xmlns="http://www.w3.org/2000/svg" xmlns:xlink="http://www.w3.org/1999/xlink">
<g id="graph0" class="graph" transform="scale(1 1) rotate(0) translate(4 304.333)">
<title>%3</title>
<polygon fill="#ffffff" stroke="transparent" points="-4,4 -4,-304.333 420.5373,-304.333 420.5373,4 -4,4"/>
<!-- &#45;1 -->
<g id="node1" class="node">
<title>&#45;1</title>
<polygon fill="#d3d3d3" stroke="#000000" points="26.4981,-284.7914 2.4932,-284.7914 2.4932,-267.7914 26.4981,-267.7914 26.4981,-284.7914"/>
<text text-anchor="middle" x="14.4957" y="-273.5914" font-family="Times,serif" font-size="9.00" fill="#000000">&#45;1</text>
</g>
<!-- 8 -->
<g id="node12" class="node">
<title>8</title>
<ellipse fill="#add8e6" stroke="#000000" cx="14.4957" cy="-192.2082" rx="14.4914" ry="14.4914"/>
<text text-anchor="middle" x="14.4957" y="-189.5082" font-family="Times,serif" font-size="9.00" fill="#000000">8</text>
</g>
<!-- &#45;1&#45;&gt;8 -->
<g id="edge3" class="edge">
<title>&#45;1&#45;&gt;8</title>
<path fill="none" stroke="#ff0000" stroke-width=".4504" stroke-dasharray="1,5" d="M14.4957,-267.6097C14.4957,-255.8382 14.4957,-234.3282 14.4957,-217.2863"/>
<polygon fill="#ff0000" stroke="#ff0000" stroke-width=".4504" points="17.9958,-216.8798 14.4957,-206.8799 10.9958,-216.8799 17.9958,-216.8798"/>
</g>
<!-- &#45;2 -->
<g id="node2" class="node">
<title>&#45;2</title>
<polygon fill="#d3d3d3" stroke="#000000" points="118.4981,-284.7914 94.4932,-284.7914 94.4932,-267.7914 118.4981,-267.7914 118.4981,-284.7914"/>
<text text-anchor="middle" x="106.4957" y="-273.5914" font-family="Times,serif" font-size="9.00" fill="#000000">&#45;2</text>
</g>
<!-- &#45;3 -->
<g id="node3" class="node">
<title>&#45;3</title>
<polygon fill="#d3d3d3" stroke="#000000" points="209.4981,-284.7914 185.4932,-284.7914 185.4932,-267.7914 209.4981,-267.7914 209.4981,-284.7914"/>
<text text-anchor="middle" x="197.4957" y="-273.5914" font-family="Times,serif" font-size="9.00" fill="#000000">&#45;3</text>
</g>
<!-- 1 -->
<g id="node5" class="node">
<title>1</title>
<ellipse fill="#add8e6" stroke="#000000" cx="61.4957" cy="-192.2082" rx="14.4914" ry="14.4914"/>
<text text-anchor="middle" x="61.4957" y="-189.5082" font-family="Times,serif" font-size="9.00" fill="#000000">1</text>
</g>
<!-- &#45;3&#45;&gt;1 -->
<g id="edge1" class="edge">
<title>&#45;3&#45;&gt;1</title>
<path fill="none" stroke="#00ff00" stroke-width=".8518" d="M185.7096,-271.363C164.5372,-262.2169 119.1387,-241.2557 85.4957,-216.2498 83.0994,-214.4687 80.7123,-212.4519 78.4245,-210.3622"/>
<polygon fill="#00ff00" stroke="#00ff00" stroke-width=".8518" points="80.7423,-207.7326 71.1595,-203.2136 75.8327,-212.7221 80.7423,-207.7326"/>
</g>
<!-- 2 -->
<g id="node6" class="node">
<title>2</title>
<ellipse fill="#add8e6" stroke="#000000" cx="108.4957" cy="-192.2082" rx="14.4914" ry="14.4914"/>
<text text-anchor="middle" x="108.4957" y="-189.5082" font-family="Times,serif" font-size="9.00" fill="#000000">2</text>
</g>
<!-- &#45;3&#45;&gt;2 -->
<g id="edge2" class="edge">
<title>&#45;3&#45;&gt;2</title>
<path fill="none" stroke="#00ff00" stroke-width=".9523" d="M187.6905,-267.461C174.8652,-255.8592 151.7598,-234.7812 132.4957,-216.2498 130.344,-214.1799 128.1047,-211.9885 125.8967,-209.8045"/>
<polygon fill="#00ff00" stroke="#00ff00" stroke-width=".9523" points="128.2303,-207.1885 118.6826,-202.5958 123.2823,-212.1401 128.2303,-207.1885"/>
</g>
<!-- 3 -->
<g id="node7" class="node">
<title>3</title>
<ellipse fill="#add8e6" stroke="#000000" cx="155.4957" cy="-192.2082" rx="14.4914" ry="14.4914"/>
<text text-anchor="middle" x="155.4957" y="-189.5082" font-family="Times,serif" font-size="9.00" fill="#000000">3</text>
</g>
<!-- &#45;3&#45;&gt;3 -->
<g id="edge5" class="edge">
<title>&#45;3&#45;&gt;3</title>
<path fill="none" stroke="#ff0000" stroke-width=".3233" stroke-dasharray="1,5" d="M193.1591,-267.6097C186.9344,-255.1478 175.2579,-231.7718 166.5491,-214.337"/>
<polygon fill="#ff0000" stroke="#ff0000" stroke-width=".3233" points="169.6695,-212.7513 162.0697,-205.3693 163.4073,-215.8793 169.6695,-212.7513"/>
</g>
<!-- 4 -->
<g id="node8" class="node">
<title>4</title>
<ellipse fill="#add8e6" stroke="#000000" cx="246.4957" cy="-24.0416" rx="14.4914" ry="14.4914"/>
<text text-anchor="middle" x="246.4957" y="-21.3416" font-family="Times,serif" font-size="9.00" fill="#000000">4</text>
</g>
<!-- &#45;3&#45;&gt;4 -->
<g id="edge4" class="edge">
<title>&#45;3&#45;&gt;4</title>
<path fill="none" stroke="#ff0000" stroke-width=".1608" d="M199.1824,-267.6084C205.9348,-232.8473 231.1621,-102.9782 241.7599,-48.4211"/>
<polygon fill="#ff0000" stroke="#ff0000" stroke-width=".1608" points="245.2035,-49.0482 243.6746,-38.5643 238.3319,-47.7134 245.2035,-49.0482"/>
</g>
<!-- 1731 -->
<g id="node13" class="node">
<title>1731</title>
<ellipse fill="#ffffff" stroke="#000000" cx="122.4957" cy="-108.1249" rx="24.0833" ry="24.0833"/>
<text text-anchor="middle" x="122.4957" y="-105.4249" font-family="Times,serif" font-size="9.00" fill="#000000">1731</text>
</g>
<!-- &#45;3&#45;&gt;1731 -->
<g id="edge9" class="edge">
<title>&#45;3&#45;&gt;1731</title>
<path fill="none" stroke="#ff0000" stroke-width=".3418" d="M197.6051,-267.6462C197.5092,-248.6196 195.4107,-202.1138 178.4957,-168.1665 171.3853,-153.8964 159.7979,-140.6342 149.003,-130.2233"/>
<polygon fill="#ff0000" stroke="#ff0000" stroke-width=".3418" points="151.0821,-127.3795 141.3581,-123.1729 146.3364,-132.5253 151.0821,-127.3795"/>
</g>
<!-- 1137 -->
<g id="node16" class="node">
<title>1137</title>
<ellipse fill="#ffffff" stroke="#000000" cx="287.4957" cy="-108.1249" rx="23.6187" ry="23.6187"/>
<text text-anchor="middle" x="287.4957" y="-105.4249" font-family="Times,serif" font-size="9.00" fill="#000000">1137</text>
</g>
<!-- &#45;3&#45;&gt;1137 -->
<g id="edge6" class="edge">
<title>&#45;3&#45;&gt;1137</title>
<path fill="none" stroke="#00ff00" stroke-width=".5828" stroke-dasharray="1,5" d="M205.0208,-267.6865C219.2266,-251.4309 248.6564,-217.6959 249.4957,-216.2498 263.1184,-192.777 273.0121,-163.6223 279.2833,-141.504"/>
<polygon fill="#00ff00" stroke="#00ff00" stroke-width=".5828" points="282.7365,-142.1438 281.9906,-131.5752 275.9831,-140.3022 282.7365,-142.1438"/>
</g>
<!-- 2104 -->
<g id="node17" class="node">
<title>2104</title>
<ellipse fill="#ffffff" stroke="#000000" cx="325.4957" cy="-192.2082" rx="24.0833" ry="24.0833"/>
<text text-anchor="middle" x="325.4957" y="-189.5082" font-family="Times,serif" font-size="9.00" fill="#000000">2104</text>
</g>
<!-- &#45;3&#45;&gt;2104 -->
<g id="edge12" class="edge">
<title>&#45;3&#45;&gt;2104</title>
<path fill="none" stroke="#00ff00" stroke-width=".2916" d="M203.8152,-267.5613C207.6716,-262.6478 212.9216,-256.6374 218.4957,-252.2498 245.6752,-230.8554 257.5211,-233.5115 287.4957,-216.2498 290.4956,-214.5222 293.5964,-212.6718 296.6731,-210.7929"/>
<polygon fill="#00ff00" stroke="#00ff00" stroke-width=".2916" points="298.5359,-213.7561 305.1766,-205.5007 294.8372,-207.813 298.5359,-213.7561"/>
</g>
<!-- 0 -->
<g id="node4" class="node">
<title>0</title>
<ellipse fill="#add8e6" stroke="#000000" cx="241.4957" cy="-276.2914" rx="14.4914" ry="14.4914"/>
<text text-anchor="middle" x="241.4957" y="-273.5914" font-family="Times,serif" font-size="9.00" fill="#000000">0</text>
</g>
<!-- 2&#45;&gt;1731 -->
<g id="edge13" class="edge">
<title>2&#45;&gt;1731</title>
<path fill="none" stroke="#00ff00" stroke-width=".1191" d="M110.9343,-177.562C112.5623,-167.7841 114.7734,-154.5044 116.8261,-142.1763"/>
<polygon fill="#00ff00" stroke="#00ff00" stroke-width=".1191" points="120.3067,-142.5815 118.4967,-132.1424 113.4018,-141.4317 120.3067,-142.5815"/>
</g>
<!-- 5 -->
<g id="node9" class="node">
<title>5</title>
<ellipse fill="#add8e6" stroke="#000000" cx="288.4957" cy="-276.2914" rx="14.4914" ry="14.4914"/>
<text text-anchor="middle" x="288.4957" y="-273.5914" font-family="Times,serif" font-size="9.00" fill="#000000">5</text>
</g>
<!-- 6 -->
<g id="node10" class="node">
<title>6</title>
<ellipse fill="#add8e6" stroke="#000000" cx="179.4957" cy="-108.1249" rx="14.4914" ry="14.4914"/>
<text text-anchor="middle" x="179.4957" y="-105.4249" font-family="Times,serif" font-size="9.00" fill="#000000">6</text>
</g>
<!-- 1200 -->
<g id="node15" class="node">
<title>1200</title>
<ellipse fill="#ffffff" stroke="#000000" cx="168.4957" cy="-24.0416" rx="24.0833" ry="24.0833"/>
<text text-anchor="middle" x="168.4957" y="-21.3416" font-family="Times,serif" font-size="9.00" fill="#000000">1200</text>
</g>
<!-- 6&#45;&gt;1200 -->
<g id="edge8" class="edge">
<title>6&#45;&gt;1200</title>
<path fill="none" stroke="#00ff00" stroke-width="1.0366" d="M177.5796,-93.4787C176.3005,-83.7008 174.5632,-70.4211 172.9504,-58.0931"/>
<polygon fill="#00ff00" stroke="#00ff00" stroke-width="1.0366" points="176.4054,-57.5206 171.6377,-48.0591 169.4646,-58.4287 176.4054,-57.5206"/>
</g>
<!-- 7 -->
<g id="node11" class="node">
<title>7</title>
<ellipse fill="#add8e6" stroke="#000000" cx="335.4957" cy="-276.2914" rx="14.4914" ry="14.4914"/>
<text text-anchor="middle" x="335.4957" y="-273.5914" font-family="Times,serif" font-size="9.00" fill="#000000">7</text>
</g>
<!-- 1731&#45;&gt;1200 -->
<g id="edge10" class="edge">
<title>1731&#45;&gt;1200</title>
<path fill="none" stroke="#ff0000" stroke-width=".4105" d="M134.1034,-86.9071C139.5513,-76.949 146.14,-64.9056 152.0866,-54.0357"/>
<polygon fill="#ff0000" stroke="#ff0000" stroke-width=".4105" points="155.1627,-55.7054 156.8917,-45.2526 149.0216,-52.3457 155.1627,-55.7054"/>
</g>
<!-- 1926 -->
<g id="node14" class="node">
<title>1926</title>
<ellipse fill="#ffffff" stroke="#000000" cx="392.4957" cy="-276.2914" rx="24.0833" ry="24.0833"/>
<text text-anchor="middle" x="392.4957" y="-273.5914" font-family="Times,serif" font-size="9.00" fill="#000000">1926</text>
</g>
<!-- 1137&#45;&gt;4 -->
<g id="edge7" class="edge">
<title>1137&#45;&gt;4</title>
<path fill="none" stroke="#00ff00" stroke-width=".2433" d="M276.9372,-86.4714C270.9462,-74.185 263.4606,-58.8335 257.4116,-46.4282"/>
<polygon fill="#00ff00" stroke="#00ff00" stroke-width=".2433" points="260.4533,-44.6802 252.9245,-37.2259 254.1614,-47.7482 260.4533,-44.6802"/>
</g>
<!-- 2104&#45;&gt;1137 -->
<g id="edge11" class="edge">
<title>2104&#45;&gt;1137</title>
<path fill="none" stroke="#00ff00" stroke-width=".6101" d="M315.5116,-170.1163C311.279,-160.7505 306.2691,-149.6653 301.6648,-139.477"/>
<polygon fill="#00ff00" stroke="#00ff00" stroke-width=".6101" points="304.7208,-137.7404 297.4131,-130.0692 298.342,-140.6233 304.7208,-137.7404"/>
</g>
</g>
</svg>
