<?xml version="1.0" encoding="UTF-8" standalone="no"?>
<!DOCTYPE svg PUBLIC "-//W3C//DTD SVG 1.1//EN"
 "http://www.w3.org/Graphics/SVG/1.1/DTD/svg11.dtd">
<!-- Generated by graphviz version 2.40.1 (20161225.0304)
 -->
<!-- Title: %3 Pages: 1 -->
<svg width="705pt" height="426pt"
 viewBox="0.00 0.00 704.54 426.32" xmlns="http://www.w3.org/2000/svg" xmlns:xlink="http://www.w3.org/1999/xlink">
<g id="graph0" class="graph" transform="scale(1 1) rotate(0) translate(4 422.3244)">
<title>%3</title>
<polygon fill="#ffffff" stroke="transparent" points="-4,4 -4,-422.3244 700.5373,-422.3244 700.5373,4 -4,4"/>
<!-- &#45;1 -->
<g id="node1" class="node">
<title>&#45;1</title>
<polygon fill="#d3d3d3" stroke="#000000" points="129.4981,-418.3244 105.4932,-418.3244 105.4932,-401.3244 129.4981,-401.3244 129.4981,-418.3244"/>
<text text-anchor="middle" x="117.4957" y="-407.1244" font-family="Times,serif" font-size="9.00" fill="#000000">&#45;1</text>
</g>
<!-- &#45;2 -->
<g id="node2" class="node">
<title>&#45;2</title>
<polygon fill="#d3d3d3" stroke="#000000" points="170.4981,-418.3244 146.4932,-418.3244 146.4932,-401.3244 170.4981,-401.3244 170.4981,-418.3244"/>
<text text-anchor="middle" x="158.4957" y="-407.1244" font-family="Times,serif" font-size="9.00" fill="#000000">&#45;2</text>
</g>
<!-- &#45;1&#45;&gt;&#45;2 -->
<!-- &#45;3 -->
<g id="node3" class="node">
<title>&#45;3</title>
<polygon fill="#d3d3d3" stroke="#000000" points="445.4981,-418.3244 421.4932,-418.3244 421.4932,-401.3244 445.4981,-401.3244 445.4981,-418.3244"/>
<text text-anchor="middle" x="433.4957" y="-407.1244" font-family="Times,serif" font-size="9.00" fill="#000000">&#45;3</text>
</g>
<!-- &#45;2&#45;&gt;&#45;3 -->
<!-- 5 -->
<g id="node9" class="node">
<title>5</title>
<ellipse fill="#add8e6" stroke="#000000" cx="249.4957" cy="-14.4957" rx="14.4914" ry="14.4914"/>
<text text-anchor="middle" x="249.4957" y="-11.7957" font-family="Times,serif" font-size="9.00" fill="#000000">5</text>
</g>
<!-- &#45;2&#45;&gt;5 -->
<g id="edge12" class="edge">
<title>&#45;2&#45;&gt;5</title>
<path fill="none" stroke="#00ff00" stroke-width="3.2177" d="M158.4957,-401.2186C158.4957,-377.9864 158.4957,-312.0491 158.4957,-257.1995 158.4957,-257.1995 158.4957,-257.1995 158.4957,-173.1163 158.4957,-122.0303 169.7939,-107.9144 197.4957,-64.9914 206.1959,-51.5106 219.1285,-38.9325 229.9196,-29.7018"/>
<polygon fill="#00ff00" stroke="#00ff00" stroke-width="3.2177" points="232.1548,-32.3952 237.6486,-23.336 227.7045,-26.9919 232.1548,-32.3952"/>
</g>
<!-- 1882 -->
<g id="node22" class="node">
<title>1882</title>
<ellipse fill="#ffffff" stroke="#000000" cx="106.4957" cy="-173.1163" rx="24.0833" ry="24.0833"/>
<text text-anchor="middle" x="106.4957" y="-170.4163" font-family="Times,serif" font-size="9.00" fill="#000000">1882</text>
</g>
<!-- &#45;2&#45;&gt;1882 -->
<g id="edge25" class="edge">
<title>&#45;2&#45;&gt;1882</title>
<path fill="none" stroke="#ff0000" stroke-width=".2354" d="M155.4185,-401.0412C152.3689,-392.1239 147.7016,-377.88 144.4957,-365.3244 130.496,-310.4958 118.6443,-245.7587 112.0609,-207.1448"/>
<polygon fill="#ff0000" stroke="#ff0000" stroke-width=".2354" points="115.4604,-206.2551 110.3463,-196.9763 108.5578,-207.4191 115.4604,-206.2551"/>
</g>
<!-- 2 -->
<g id="node6" class="node">
<title>2</title>
<ellipse fill="#add8e6" stroke="#000000" cx="108.4957" cy="-14.4957" rx="14.4914" ry="14.4914"/>
<text text-anchor="middle" x="108.4957" y="-11.7957" font-family="Times,serif" font-size="9.00" fill="#000000">2</text>
</g>
<!-- &#45;3&#45;&gt;2 -->
<g id="edge11" class="edge">
<title>&#45;3&#45;&gt;2</title>
<path fill="none" stroke="#ff0000" stroke-width="1.8699" d="M431.6739,-401.2651C426.9183,-378.1485 414.4957,-312.4725 414.4957,-257.1995 414.4957,-257.1995 414.4957,-257.1995 414.4957,-173.1163 414.4957,-32.3628 261.478,-85.3395 132.4957,-28.9914 131.637,-28.6163 130.7718,-28.2156 129.9058,-27.7953"/>
<polygon fill="#ff0000" stroke="#ff0000" stroke-width="1.8699" points="131.3137,-24.575 120.8661,-22.8148 127.9357,-30.706 131.3137,-24.575"/>
</g>
<!-- 1416 -->
<g id="node13" class="node">
<title>1416</title>
<ellipse fill="#ffffff" stroke="#000000" cx="485.4957" cy="-257.1995" rx="24.0833" ry="24.0833"/>
<text text-anchor="middle" x="485.4957" y="-254.4995" font-family="Times,serif" font-size="9.00" fill="#000000">1416</text>
</g>
<!-- &#45;3&#45;&gt;1416 -->
<g id="edge22" class="edge">
<title>&#45;3&#45;&gt;1416</title>
<path fill="none" stroke="#00ff00" stroke-width="1.069" d="M436.4404,-401.1813C443.6281,-380.0847 462.3668,-325.0851 474.4925,-289.4948"/>
<polygon fill="#00ff00" stroke="#00ff00" stroke-width="1.069" points="477.8101,-290.61 477.7222,-280.0155 471.1841,-288.3524 477.8101,-290.61"/>
</g>
<!-- 1527 -->
<g id="node20" class="node">
<title>1527</title>
<ellipse fill="#ffffff" stroke="#000000" cx="620.4957" cy="-89.033" rx="24.0833" ry="24.0833"/>
<text text-anchor="middle" x="620.4957" y="-86.333" font-family="Times,serif" font-size="9.00" fill="#000000">1527</text>
</g>
<!-- &#45;3&#45;&gt;1527 -->
<g id="edge23" class="edge">
<title>&#45;3&#45;&gt;1527</title>
<path fill="none" stroke="#ff0000" stroke-width=".4323" d="M445.3717,-408.0848C466.9127,-404.3006 512.5047,-393.2973 537.4957,-365.3244 554.0001,-346.8507 594.5671,-191.9127 612.1468,-122.4706"/>
<polygon fill="#ff0000" stroke="#ff0000" stroke-width=".4323" points="615.6142,-123.0345 614.6661,-112.4822 608.8267,-121.3226 615.6142,-123.0345"/>
</g>
<!-- 0 -->
<g id="node4" class="node">
<title>0</title>
<ellipse fill="#add8e6" stroke="#000000" cx="14.4957" cy="-14.4957" rx="14.4914" ry="14.4914"/>
<text text-anchor="middle" x="14.4957" y="-11.7957" font-family="Times,serif" font-size="9.00" fill="#000000">0</text>
</g>
<!-- 1 -->
<g id="node5" class="node">
<title>1</title>
<ellipse fill="#add8e6" stroke="#000000" cx="61.4957" cy="-14.4957" rx="14.4914" ry="14.4914"/>
<text text-anchor="middle" x="61.4957" y="-11.7957" font-family="Times,serif" font-size="9.00" fill="#000000">1</text>
</g>
<!-- 0&#45;&gt;1 -->
<!-- 1&#45;&gt;2 -->
<!-- 3 -->
<g id="node7" class="node">
<title>3</title>
<ellipse fill="#add8e6" stroke="#000000" cx="155.4957" cy="-14.4957" rx="14.4914" ry="14.4914"/>
<text text-anchor="middle" x="155.4957" y="-11.7957" font-family="Times,serif" font-size="9.00" fill="#000000">3</text>
</g>
<!-- 2&#45;&gt;3 -->
<!-- 4 -->
<g id="node8" class="node">
<title>4</title>
<ellipse fill="#add8e6" stroke="#000000" cx="202.4957" cy="-14.4957" rx="14.4914" ry="14.4914"/>
<text text-anchor="middle" x="202.4957" y="-11.7957" font-family="Times,serif" font-size="9.00" fill="#000000">4</text>
</g>
<!-- 3&#45;&gt;4 -->
<!-- 4&#45;&gt;5 -->
<!-- 6 -->
<g id="node10" class="node">
<title>6</title>
<ellipse fill="#add8e6" stroke="#000000" cx="296.4957" cy="-14.4957" rx="14.4914" ry="14.4914"/>
<text text-anchor="middle" x="296.4957" y="-11.7957" font-family="Times,serif" font-size="9.00" fill="#000000">6</text>
</g>
<!-- 5&#45;&gt;6 -->
<!-- 1621 -->
<g id="node19" class="node">
<title>1621</title>
<ellipse fill="#ffffff" stroke="#000000" cx="300.4957" cy="-257.1995" rx="24.0833" ry="24.0833"/>
<text text-anchor="middle" x="300.4957" y="-254.4995" font-family="Times,serif" font-size="9.00" fill="#000000">1621</text>
</g>
<!-- 5&#45;&gt;1621 -->
<g id="edge16" class="edge">
<title>5&#45;&gt;1621</title>
<path fill="none" stroke="#ff0000" stroke-width=".2962" d="M253.1364,-28.5783C259.3858,-53.0054 272.3624,-104.8583 281.4957,-149.0746 286.5982,-173.7769 291.5029,-201.8357 295.0506,-223.1786"/>
<polygon fill="#ff0000" stroke="#ff0000" stroke-width=".2962" points="291.6013,-223.7732 296.6782,-233.0725 298.5085,-222.6369 291.6013,-223.7732"/>
</g>
<!-- 7 -->
<g id="node11" class="node">
<title>7</title>
<ellipse fill="#add8e6" stroke="#000000" cx="343.4957" cy="-14.4957" rx="14.4914" ry="14.4914"/>
<text text-anchor="middle" x="343.4957" y="-11.7957" font-family="Times,serif" font-size="9.00" fill="#000000">7</text>
</g>
<!-- 6&#45;&gt;7 -->
<!-- 831 -->
<g id="node23" class="node">
<title>831</title>
<ellipse fill="#ffffff" stroke="#000000" cx="227.4957" cy="-89.033" rx="20.7202" ry="20.7202"/>
<text text-anchor="middle" x="227.4957" y="-86.333" font-family="Times,serif" font-size="9.00" fill="#000000">831</text>
</g>
<!-- 6&#45;&gt;831 -->
<g id="edge27" class="edge">
<title>6&#45;&gt;831</title>
<path fill="none" stroke="#00ff00" stroke-width=".6525" d="M286.2495,-25.5641C276.4023,-36.2016 261.2204,-52.6018 248.7563,-66.0662"/>
<polygon fill="#00ff00" stroke="#00ff00" stroke-width=".6525" points="246.0173,-63.8728 241.7925,-73.5888 251.1542,-68.628 246.0173,-63.8728"/>
</g>
<!-- 8 -->
<g id="node12" class="node">
<title>8</title>
<ellipse fill="#add8e6" stroke="#000000" cx="390.4957" cy="-14.4957" rx="14.4914" ry="14.4914"/>
<text text-anchor="middle" x="390.4957" y="-11.7957" font-family="Times,serif" font-size="9.00" fill="#000000">8</text>
</g>
<!-- 7&#45;&gt;8 -->
<!-- 1538 -->
<g id="node14" class="node">
<title>1538</title>
<ellipse fill="#ffffff" stroke="#000000" cx="248.4957" cy="-173.1163" rx="24.0833" ry="24.0833"/>
<text text-anchor="middle" x="248.4957" y="-170.4163" font-family="Times,serif" font-size="9.00" fill="#000000">1538</text>
</g>
<!-- 1538&#45;&gt;831 -->
<g id="edge15" class="edge">
<title>1538&#45;&gt;831</title>
<path fill="none" stroke="#ff0000" stroke-width=".14" d="M242.646,-149.6944C240.3041,-140.3175 237.5754,-129.3919 235.0842,-119.4171"/>
<polygon fill="#ff0000" stroke="#ff0000" stroke-width=".14" points="238.419,-118.325 232.6001,-109.4711 231.6276,-120.0212 238.419,-118.325"/>
</g>
<!-- 1863 -->
<g id="node15" class="node">
<title>1863</title>
<ellipse fill="#ffffff" stroke="#000000" cx="504.4957" cy="-341.2828" rx="24.0833" ry="24.0833"/>
<text text-anchor="middle" x="504.4957" y="-338.5828" font-family="Times,serif" font-size="9.00" fill="#000000">1863</text>
</g>
<!-- 1863&#45;&gt;1416 -->
<g id="edge24" class="edge">
<title>1863&#45;&gt;1416</title>
<path fill="none" stroke="#ff0000" stroke-width=".7095" d="M499.1019,-317.4128C497.2207,-309.0876 495.0734,-299.5853 493.0494,-290.6279"/>
<polygon fill="#ff0000" stroke="#ff0000" stroke-width=".7095" points="496.4553,-289.8208 490.8372,-280.8382 489.6275,-291.3637 496.4553,-289.8208"/>
</g>
<!-- 1925 -->
<g id="node16" class="node">
<title>1925</title>
<ellipse fill="#ffffff" stroke="#000000" cx="466.4957" cy="-89.033" rx="24.0833" ry="24.0833"/>
<text text-anchor="middle" x="466.4957" y="-86.333" font-family="Times,serif" font-size="9.00" fill="#000000">1925</text>
</g>
<!-- 1925&#45;&gt;8 -->
<g id="edge29" class="edge">
<title>1925&#45;&gt;8</title>
<path fill="none" stroke="#00ff00" stroke-width=".2873" d="M449.2501,-72.1193C437.0353,-60.1396 420.6935,-44.1123 408.3455,-32.002"/>
<polygon fill="#00ff00" stroke="#00ff00" stroke-width=".2873" points="410.4816,-29.1946 400.8914,-24.6913 405.5801,-34.1922 410.4816,-29.1946"/>
</g>
<!-- 1742 -->
<g id="node17" class="node">
<title>1742</title>
<ellipse fill="#ffffff" stroke="#000000" cx="646.4957" cy="-257.1995" rx="24.0833" ry="24.0833"/>
<text text-anchor="middle" x="646.4957" y="-254.4995" font-family="Times,serif" font-size="9.00" fill="#000000">1742</text>
</g>
<!-- 1742&#45;&gt;1527 -->
<g id="edge20" class="edge">
<title>1742&#45;&gt;1527</title>
<path fill="none" stroke="#00ff00" stroke-width=".101" stroke-dasharray="1,5" d="M632.3198,-237.4367C625.147,-226.2118 617.1925,-211.5592 613.4957,-197.1579 607.2254,-172.7314 609.4421,-144.2359 612.9764,-122.6319"/>
<polygon fill="#00ff00" stroke="#00ff00" stroke-width=".101" points="616.45,-123.0912 614.7858,-112.6279 609.5618,-121.8452 616.45,-123.0912"/>
</g>
<!-- 1945 -->
<g id="node21" class="node">
<title>1945</title>
<ellipse fill="#ffffff" stroke="#000000" cx="646.4957" cy="-173.1163" rx="24.0833" ry="24.0833"/>
<text text-anchor="middle" x="646.4957" y="-170.4163" font-family="Times,serif" font-size="9.00" fill="#000000">1945</text>
</g>
<!-- 1742&#45;&gt;1945 -->
<g id="edge30" class="edge">
<title>1742&#45;&gt;1945</title>
<path fill="none" stroke="#00ff00" stroke-width=".1057" d="M646.4957,-232.8792C646.4957,-224.9483 646.4957,-215.9877 646.4957,-207.4639"/>
<polygon fill="#00ff00" stroke="#00ff00" stroke-width=".1057" points="649.9958,-207.3819 646.4957,-197.382 642.9958,-207.382 649.9958,-207.3819"/>
</g>
<!-- 1045 -->
<g id="node18" class="node">
<title>1045</title>
<ellipse fill="#ffffff" stroke="#000000" cx="672.4957" cy="-341.2828" rx="24.0833" ry="24.0833"/>
<text text-anchor="middle" x="672.4957" y="-338.5828" font-family="Times,serif" font-size="9.00" fill="#000000">1045</text>
</g>
<!-- 1045&#45;&gt;1742 -->
<g id="edge19" class="edge">
<title>1045&#45;&gt;1742</title>
<path fill="none" stroke="#00ff00" stroke-width=".4544" d="M665.3911,-318.3067C662.719,-309.6653 659.6253,-299.6605 656.7247,-290.2799"/>
<polygon fill="#00ff00" stroke="#00ff00" stroke-width=".4544" points="659.9801,-288.9597 653.6821,-280.44 653.2925,-291.0277 659.9801,-288.9597"/>
</g>
<!-- 1045&#45;&gt;1527 -->
<g id="edge14" class="edge">
<title>1045&#45;&gt;1527</title>
<path fill="none" stroke="#00ff00" stroke-width=".6176" d="M679.2878,-318.0214C688.8901,-280.7613 702.8226,-206.0951 679.4957,-149.0746 673.1114,-133.4688 660.4979,-119.7342 648.5667,-109.3539"/>
<polygon fill="#00ff00" stroke="#00ff00" stroke-width=".6176" points="650.4477,-106.3693 640.5006,-102.7216 646.0019,-111.7763 650.4477,-106.3693"/>
</g>
<!-- 1621&#45;&gt;8 -->
<g id="edge18" class="edge">
<title>1621&#45;&gt;8</title>
<path fill="none" stroke="#00ff00" stroke-width=".2351" stroke-dasharray="1,5" d="M308.9627,-234.3665C326.0896,-188.1802 364.6778,-84.1192 381.9064,-37.6586"/>
<polygon fill="#00ff00" stroke="#00ff00" stroke-width=".2351" points="385.235,-38.7486 385.4303,-28.1555 378.6717,-36.3147 385.235,-38.7486"/>
</g>
<!-- 1621&#45;&gt;1538 -->
<g id="edge21" class="edge">
<title>1621&#45;&gt;1538</title>
<path fill="none" stroke="#ff0000" stroke-width=".211" d="M287.6418,-236.4149C281.2817,-226.1308 273.4975,-213.5438 266.5504,-202.3106"/>
<polygon fill="#ff0000" stroke="#ff0000" stroke-width=".211" points="269.4383,-200.3259 261.2018,-193.6618 263.4848,-204.0078 269.4383,-200.3259"/>
</g>
<!-- 1621&#45;&gt;1925 -->
<g id="edge28" class="edge">
<title>1621&#45;&gt;1925</title>
<path fill="none" stroke="#00ff00" stroke-width=".2014" d="M317.6354,-239.8362C347.2083,-209.8773 407.9137,-148.3796 441.9586,-113.8904"/>
<polygon fill="#00ff00" stroke="#00ff00" stroke-width=".2014" points="444.6663,-116.1294 449.2006,-106.5539 439.6846,-111.2119 444.6663,-116.1294"/>
</g>
<!-- 1621&#45;&gt;831 -->
<g id="edge17" class="edge">
<title>1621&#45;&gt;831</title>
<path fill="none" stroke="#00ff00" stroke-width=".6314" d="M278.045,-248.507C257.5555,-239.2214 228.5415,-222.3454 215.4957,-197.1579 202.7079,-172.4687 208.5959,-140.4189 215.9091,-117.6386"/>
<polygon fill="#00ff00" stroke="#00ff00" stroke-width=".6314" points="219.2167,-118.7831 219.1935,-108.1883 212.6046,-116.485 219.2167,-118.7831"/>
</g>
<!-- 1945&#45;&gt;1527 -->
<g id="edge31" class="edge">
<title>1945&#45;&gt;1527</title>
<path fill="none" stroke="#ff0000" stroke-width=".1046" d="M639.3911,-150.1401C636.719,-141.4987 633.6253,-131.4939 630.7247,-122.1134"/>
<polygon fill="#ff0000" stroke="#ff0000" stroke-width=".1046" points="633.9801,-120.7932 627.6821,-112.2735 627.2925,-122.8612 633.9801,-120.7932"/>
</g>
<!-- 1882&#45;&gt;5 -->
<g id="edge26" class="edge">
<title>1882&#45;&gt;5</title>
<path fill="none" stroke="#ff0000" stroke-width=".2216" d="M109.3356,-149.2237C113.3419,-125.2301 122.7709,-88.5338 144.4957,-64.9914 171.2124,-36.0394 190.5664,-47.2108 225.4957,-28.9914 226.3265,-28.558 227.1681,-28.1079 228.0141,-27.6459"/>
<polygon fill="#ff0000" stroke="#ff0000" stroke-width=".2216" points="230.057,-30.5076 236.9607,-22.4709 226.552,-24.4483 230.057,-30.5076"/>
</g>
<!-- 831&#45;&gt;0 -->
<g id="edge13" class="edge">
<title>831&#45;&gt;0</title>
<path fill="none" stroke="#ff0000" stroke-width=".2975" d="M207.0534,-84.2294C171.7444,-75.5648 97.4505,-55.7069 38.4957,-28.9914 37.6422,-28.6046 36.7814,-28.1941 35.9191,-27.7655"/>
<polygon fill="#ff0000" stroke="#ff0000" stroke-width=".2975" points="37.337,-24.5491 26.8967,-22.7461 33.9338,-30.6662 37.337,-24.5491"/>
</g>
</g>
</svg>
