<?xml version="1.0" encoding="UTF-8" standalone="no"?>
<!DOCTYPE svg PUBLIC "-//W3C//DTD SVG 1.1//EN"
 "http://www.w3.org/Graphics/SVG/1.1/DTD/svg11.dtd">
<!-- Generated by graphviz version 2.40.1 (20161225.0304)
 -->
<!-- Title: %3 Pages: 1 -->
<svg width="648pt" height="426pt"
 viewBox="0.00 0.00 648.01 426.32" xmlns="http://www.w3.org/2000/svg" xmlns:xlink="http://www.w3.org/1999/xlink">
<g id="graph0" class="graph" transform="scale(1 1) rotate(0) translate(4 422.3244)">
<title>%3</title>
<polygon fill="#ffffff" stroke="transparent" points="-4,4 -4,-422.3244 644.0098,-422.3244 644.0098,4 -4,4"/>
<!-- &#45;1 -->
<g id="node1" class="node">
<title>&#45;1</title>
<polygon fill="#d3d3d3" stroke="#000000" points="167.4981,-418.3244 143.4932,-418.3244 143.4932,-401.3244 167.4981,-401.3244 167.4981,-418.3244"/>
<text text-anchor="middle" x="155.4957" y="-407.1244" font-family="Times,serif" font-size="9.00" fill="#000000">&#45;1</text>
</g>
<!-- &#45;2 -->
<g id="node2" class="node">
<title>&#45;2</title>
<polygon fill="#d3d3d3" stroke="#000000" points="208.4981,-418.3244 184.4932,-418.3244 184.4932,-401.3244 208.4981,-401.3244 208.4981,-418.3244"/>
<text text-anchor="middle" x="196.4957" y="-407.1244" font-family="Times,serif" font-size="9.00" fill="#000000">&#45;2</text>
</g>
<!-- &#45;1&#45;&gt;&#45;2 -->
<!-- &#45;3 -->
<g id="node3" class="node">
<title>&#45;3</title>
<polygon fill="#d3d3d3" stroke="#000000" points="459.4981,-418.3244 435.4932,-418.3244 435.4932,-401.3244 459.4981,-401.3244 459.4981,-418.3244"/>
<text text-anchor="middle" x="447.4957" y="-407.1244" font-family="Times,serif" font-size="9.00" fill="#000000">&#45;3</text>
</g>
<!-- &#45;2&#45;&gt;&#45;3 -->
<!-- 5 -->
<g id="node9" class="node">
<title>5</title>
<ellipse fill="#add8e6" stroke="#000000" cx="249.4957" cy="-14.4957" rx="14.4914" ry="14.4914"/>
<text text-anchor="middle" x="249.4957" y="-11.7957" font-family="Times,serif" font-size="9.00" fill="#000000">5</text>
</g>
<!-- &#45;2&#45;&gt;5 -->
<g id="edge12" class="edge">
<title>&#45;2&#45;&gt;5</title>
<path fill="none" stroke="#00ff00" stroke-width="3.2177" d="M191.3196,-401.2315C178.1668,-378.5532 144.4957,-314.8652 144.4957,-257.1995 144.4957,-257.1995 144.4957,-257.1995 144.4957,-173.1163 144.4957,-111.8366 199.6594,-56.0565 230.0189,-29.998"/>
<polygon fill="#00ff00" stroke="#00ff00" stroke-width="3.2177" points="232.4224,-32.5509 237.8577,-23.4564 227.9374,-27.1764 232.4224,-32.5509"/>
</g>
<!-- 1882 -->
<g id="node16" class="node">
<title>1882</title>
<ellipse fill="#ffffff" stroke="#000000" cx="196.4957" cy="-173.1163" rx="24.0833" ry="24.0833"/>
<text text-anchor="middle" x="196.4957" y="-170.4163" font-family="Times,serif" font-size="9.00" fill="#000000">1882</text>
</g>
<!-- &#45;2&#45;&gt;1882 -->
<g id="edge23" class="edge">
<title>&#45;2&#45;&gt;1882</title>
<path fill="none" stroke="#ff0000" stroke-width=".2354" d="M196.4957,-401.1191C196.4957,-370.0107 196.4957,-263.2387 196.4957,-207.5434"/>
<polygon fill="#ff0000" stroke="#ff0000" stroke-width=".2354" points="199.9958,-207.4452 196.4957,-197.4453 192.9958,-207.4453 199.9958,-207.4452"/>
</g>
<!-- 2 -->
<g id="node6" class="node">
<title>2</title>
<ellipse fill="#add8e6" stroke="#000000" cx="108.4957" cy="-14.4957" rx="14.4914" ry="14.4914"/>
<text text-anchor="middle" x="108.4957" y="-11.7957" font-family="Times,serif" font-size="9.00" fill="#000000">2</text>
</g>
<!-- &#45;3&#45;&gt;2 -->
<g id="edge11" class="edge">
<title>&#45;3&#45;&gt;2</title>
<path fill="none" stroke="#ff0000" stroke-width="1.8699" d="M459.3861,-408.3773C494.3422,-403.8777 595.6894,-388.9981 617.4957,-365.3244 650.5522,-329.437 636.4957,-305.9913 636.4957,-257.1995 636.4957,-257.1995 636.4957,-257.1995 636.4957,-173.1163 636.4957,-118.7922 624.846,-94.8988 579.4957,-64.9914 496.3027,-10.1276 227.3439,-59.568 132.4957,-28.9914 131.6039,-28.7039 130.7104,-28.3776 129.8207,-28.0201"/>
<polygon fill="#ff0000" stroke="#ff0000" stroke-width="1.8699" points="131.1661,-24.7768 120.6702,-23.3323 127.9744,-31.0069 131.1661,-24.7768"/>
</g>
<!-- 1527 -->
<g id="node19" class="node">
<title>1527</title>
<ellipse fill="none" stroke="#000000" cx="546.4957" cy="-89.033" rx="24.0833" ry="24.0833"/>
<text text-anchor="middle" x="546.4957" y="-86.333" font-family="Times,serif" font-size="9.00" fill="#000000">1527</text>
</g>
<!-- &#45;3&#45;&gt;1527 -->
<g id="edge21" class="edge">
<title>&#45;3&#45;&gt;1527</title>
<path fill="none" stroke="#ff0000" stroke-width=".4323" d="M445.7175,-401.0965C440.7516,-374.9033 428.3125,-294.9658 447.4957,-233.1579 462.1553,-185.9249 498.2515,-140.4389 522.5627,-113.6059"/>
<polygon fill="#ff0000" stroke="#ff0000" stroke-width=".4323" points="525.1702,-115.9412 529.3856,-106.2211 520.0287,-111.1909 525.1702,-115.9412"/>
</g>
<!-- 1416 -->
<g id="node21" class="node">
<title>1416</title>
<ellipse fill="none" stroke="#000000" cx="480.4957" cy="-257.1995" rx="24.0833" ry="24.0833"/>
<text text-anchor="middle" x="480.4957" y="-254.4995" font-family="Times,serif" font-size="9.00" fill="#000000">1416</text>
</g>
<!-- &#45;3&#45;&gt;1416 -->
<g id="edge20" class="edge">
<title>&#45;3&#45;&gt;1416</title>
<path fill="none" stroke="#00ff00" stroke-width="1.069" d="M449.3645,-401.1813C453.8692,-380.3471 465.5231,-326.4477 473.2239,-290.8314"/>
<polygon fill="#00ff00" stroke="#00ff00" stroke-width="1.069" points="476.6857,-291.3818 475.3782,-280.868 469.8438,-289.9024 476.6857,-291.3818"/>
</g>
<!-- 0 -->
<g id="node4" class="node">
<title>0</title>
<ellipse fill="#add8e6" stroke="#000000" cx="14.4957" cy="-14.4957" rx="14.4914" ry="14.4914"/>
<text text-anchor="middle" x="14.4957" y="-11.7957" font-family="Times,serif" font-size="9.00" fill="#000000">0</text>
</g>
<!-- 1 -->
<g id="node5" class="node">
<title>1</title>
<ellipse fill="#add8e6" stroke="#000000" cx="61.4957" cy="-14.4957" rx="14.4914" ry="14.4914"/>
<text text-anchor="middle" x="61.4957" y="-11.7957" font-family="Times,serif" font-size="9.00" fill="#000000">1</text>
</g>
<!-- 0&#45;&gt;1 -->
<!-- 1&#45;&gt;2 -->
<!-- 3 -->
<g id="node7" class="node">
<title>3</title>
<ellipse fill="#add8e6" stroke="#000000" cx="155.4957" cy="-14.4957" rx="14.4914" ry="14.4914"/>
<text text-anchor="middle" x="155.4957" y="-11.7957" font-family="Times,serif" font-size="9.00" fill="#000000">3</text>
</g>
<!-- 2&#45;&gt;3 -->
<!-- 4 -->
<g id="node8" class="node">
<title>4</title>
<ellipse fill="#add8e6" stroke="#000000" cx="202.4957" cy="-14.4957" rx="14.4914" ry="14.4914"/>
<text text-anchor="middle" x="202.4957" y="-11.7957" font-family="Times,serif" font-size="9.00" fill="#000000">4</text>
</g>
<!-- 3&#45;&gt;4 -->
<!-- 4&#45;&gt;5 -->
<!-- 6 -->
<g id="node10" class="node">
<title>6</title>
<ellipse fill="#add8e6" stroke="#000000" cx="296.4957" cy="-14.4957" rx="14.4914" ry="14.4914"/>
<text text-anchor="middle" x="296.4957" y="-11.7957" font-family="Times,serif" font-size="9.00" fill="#000000">6</text>
</g>
<!-- 5&#45;&gt;6 -->
<!-- 1621 -->
<g id="node15" class="node">
<title>1621</title>
<ellipse fill="#ffffff" stroke="#000000" cx="312.4957" cy="-257.1995" rx="24.0833" ry="24.0833"/>
<text text-anchor="middle" x="312.4957" y="-254.4995" font-family="Times,serif" font-size="9.00" fill="#000000">1621</text>
</g>
<!-- 5&#45;&gt;1621 -->
<g id="edge16" class="edge">
<title>5&#45;&gt;1621</title>
<path fill="none" stroke="#ff0000" stroke-width=".2962" d="M251.5735,-28.9792C254.4743,-48.3021 260.2108,-83.5136 267.4957,-113.0746 277.0899,-152.0065 291.285,-195.8701 301.1573,-224.872"/>
<polygon fill="#ff0000" stroke="#ff0000" stroke-width=".2962" points="297.8975,-226.1559 304.4543,-234.478 304.5183,-223.8834 297.8975,-226.1559"/>
</g>
<!-- 7 -->
<g id="node11" class="node">
<title>7</title>
<ellipse fill="#add8e6" stroke="#000000" cx="343.4957" cy="-14.4957" rx="14.4914" ry="14.4914"/>
<text text-anchor="middle" x="343.4957" y="-11.7957" font-family="Times,serif" font-size="9.00" fill="#000000">7</text>
</g>
<!-- 6&#45;&gt;7 -->
<!-- 831 -->
<g id="node17" class="node">
<title>831</title>
<ellipse fill="#ffffff" stroke="#000000" cx="297.4957" cy="-89.033" rx="20.7202" ry="20.7202"/>
<text text-anchor="middle" x="297.4957" y="-86.333" font-family="Times,serif" font-size="9.00" fill="#000000">831</text>
</g>
<!-- 6&#45;&gt;831 -->
<g id="edge25" class="edge">
<title>6&#45;&gt;831</title>
<path fill="none" stroke="#00ff00" stroke-width=".6525" d="M296.6915,-29.0885C296.8015,-37.2893 296.9432,-47.8532 297.077,-57.8227"/>
<polygon fill="#00ff00" stroke="#00ff00" stroke-width=".6525" points="293.5779,-57.9209 297.2118,-67.873 300.5772,-57.8269 293.5779,-57.9209"/>
</g>
<!-- 8 -->
<g id="node12" class="node">
<title>8</title>
<ellipse fill="#add8e6" stroke="#000000" cx="390.4957" cy="-14.4957" rx="14.4914" ry="14.4914"/>
<text text-anchor="middle" x="390.4957" y="-11.7957" font-family="Times,serif" font-size="9.00" fill="#000000">8</text>
</g>
<!-- 7&#45;&gt;8 -->
<!-- 1925 -->
<g id="node13" class="node">
<title>1925</title>
<ellipse fill="#ffffff" stroke="#000000" cx="390.4957" cy="-89.033" rx="24.0833" ry="24.0833"/>
<text text-anchor="middle" x="390.4957" y="-86.333" font-family="Times,serif" font-size="9.00" fill="#000000">1925</text>
</g>
<!-- 1925&#45;&gt;8 -->
<g id="edge27" class="edge">
<title>1925&#45;&gt;8</title>
<path fill="none" stroke="#00ff00" stroke-width=".2873" d="M390.4957,-64.6267C390.4957,-56.4788 390.4957,-47.3961 390.4957,-39.224"/>
<polygon fill="#00ff00" stroke="#00ff00" stroke-width=".2873" points="393.9958,-39.1607 390.4957,-29.1607 386.9958,-39.1607 393.9958,-39.1607"/>
</g>
<!-- 1538 -->
<g id="node14" class="node">
<title>1538</title>
<ellipse fill="#ffffff" stroke="#000000" cx="338.4957" cy="-173.1163" rx="24.0833" ry="24.0833"/>
<text text-anchor="middle" x="338.4957" y="-170.4163" font-family="Times,serif" font-size="9.00" fill="#000000">1538</text>
</g>
<!-- 1538&#45;&gt;831 -->
<g id="edge15" class="edge">
<title>1538&#45;&gt;831</title>
<path fill="none" stroke="#ff0000" stroke-width=".14" d="M327.9372,-151.4627C322.8723,-141.0756 316.7391,-128.4977 311.3089,-117.3613"/>
<polygon fill="#ff0000" stroke="#ff0000" stroke-width=".14" points="314.2912,-115.4917 306.7624,-108.0373 307.9994,-118.5597 314.2912,-115.4917"/>
</g>
<!-- 1621&#45;&gt;1925 -->
<g id="edge26" class="edge">
<title>1621&#45;&gt;1925</title>
<path fill="none" stroke="#00ff00" stroke-width=".2014" d="M331.8085,-242.8285C345.1257,-231.8334 362.0662,-215.48 371.4957,-197.1579 383.263,-174.2931 387.9043,-145.4957 389.6623,-123.3704"/>
<polygon fill="#00ff00" stroke="#00ff00" stroke-width=".2014" points="393.1736,-123.3011 390.3123,-113.1 386.1876,-122.8589 393.1736,-123.3011"/>
</g>
<!-- 1621&#45;&gt;1538 -->
<g id="edge19" class="edge">
<title>1621&#45;&gt;1538</title>
<path fill="none" stroke="#ff0000" stroke-width=".211" d="M319.6003,-234.2234C322.2724,-225.582 325.366,-215.5772 328.2667,-206.1966"/>
<polygon fill="#ff0000" stroke="#ff0000" stroke-width=".211" points="331.6989,-206.9444 331.3093,-196.3568 325.0113,-204.8765 331.6989,-206.9444"/>
</g>
<!-- 1621&#45;&gt;831 -->
<g id="edge17" class="edge">
<title>1621&#45;&gt;831</title>
<path fill="none" stroke="#00ff00" stroke-width=".6314" d="M309.4708,-233.2663C308.1422,-222.2768 306.63,-209.0677 305.4957,-197.1579 303.0376,-171.3497 300.9088,-142.0144 299.4665,-120.4175"/>
<polygon fill="#00ff00" stroke="#00ff00" stroke-width=".6314" points="302.9427,-119.9378 298.796,-110.1881 295.9577,-120.3957 302.9427,-119.9378"/>
</g>
<!-- 1882&#45;&gt;5 -->
<g id="edge24" class="edge">
<title>1882&#45;&gt;5</title>
<path fill="none" stroke="#ff0000" stroke-width=".2216" d="M204.2023,-150.0515C214.1669,-120.2292 231.4354,-68.5471 241.5264,-38.3465"/>
<polygon fill="#ff0000" stroke="#ff0000" stroke-width=".2216" points="244.9231,-39.2248 244.7726,-28.631 238.2839,-37.0064 244.9231,-39.2248"/>
</g>
<!-- 831&#45;&gt;0 -->
<g id="edge13" class="edge">
<title>831&#45;&gt;0</title>
<path fill="none" stroke="#ff0000" stroke-width=".2975" d="M276.6764,-86.4766C231.8027,-80.4832 123.1783,-63.363 38.4957,-28.9914 37.6275,-28.639 36.7541,-28.2576 35.8813,-27.8536"/>
<polygon fill="#ff0000" stroke="#ff0000" stroke-width=".2975" points="37.2708,-24.6261 26.8096,-22.949 33.9416,-30.7838 37.2708,-24.6261"/>
</g>
<!-- 1045 -->
<g id="node18" class="node">
<title>1045</title>
<ellipse fill="none" stroke="#000000" cx="584.4957" cy="-341.2828" rx="24.0833" ry="24.0833"/>
<text text-anchor="middle" x="584.4957" y="-338.5828" font-family="Times,serif" font-size="9.00" fill="#000000">1045</text>
</g>
<!-- 1045&#45;&gt;1527 -->
<g id="edge14" class="edge">
<title>1045&#45;&gt;1527</title>
<path fill="none" stroke="#00ff00" stroke-width=".6176" d="M587.4311,-317.3907C591.1743,-280.5242 595.4088,-207.8795 579.4957,-149.0746 576.5525,-138.1985 571.2691,-127.1504 565.7804,-117.5468"/>
<polygon fill="#00ff00" stroke="#00ff00" stroke-width=".6176" points="568.6871,-115.5893 560.5247,-108.8346 562.6932,-119.2051 568.6871,-115.5893"/>
</g>
<!-- 1742 -->
<g id="node20" class="node">
<title>1742</title>
<ellipse fill="none" stroke="#000000" cx="546.4957" cy="-257.1995" rx="24.0833" ry="24.0833"/>
<text text-anchor="middle" x="546.4957" y="-254.4995" font-family="Times,serif" font-size="9.00" fill="#000000">1742</text>
</g>
<!-- 1045&#45;&gt;1742 -->
<g id="edge18" class="edge">
<title>1045&#45;&gt;1742</title>
<path fill="none" stroke="#00ff00" stroke-width=".4544" d="M574.5116,-319.1909C570.279,-309.8252 565.2691,-298.7399 560.6648,-288.5517"/>
<polygon fill="#00ff00" stroke="#00ff00" stroke-width=".4544" points="563.7208,-286.8151 556.4131,-279.1439 557.342,-289.6979 563.7208,-286.8151"/>
</g>
<!-- 1945 -->
<g id="node23" class="node">
<title>1945</title>
<ellipse fill="none" stroke="#000000" cx="546.4957" cy="-173.1163" rx="24.0833" ry="24.0833"/>
<text text-anchor="middle" x="546.4957" y="-170.4163" font-family="Times,serif" font-size="9.00" fill="#000000">1945</text>
</g>
<!-- 1742&#45;&gt;1945 -->
<g id="edge28" class="edge">
<title>1742&#45;&gt;1945</title>
<path fill="none" stroke="#00ff00" stroke-width=".1057" d="M546.4957,-232.8792C546.4957,-224.9483 546.4957,-215.9877 546.4957,-207.4639"/>
<polygon fill="#00ff00" stroke="#00ff00" stroke-width=".1057" points="549.9958,-207.3819 546.4957,-197.382 542.9958,-207.382 549.9958,-207.3819"/>
</g>
<!-- 1863 -->
<g id="node22" class="node">
<title>1863</title>
<ellipse fill="none" stroke="#000000" cx="518.4957" cy="-341.2828" rx="24.0833" ry="24.0833"/>
<text text-anchor="middle" x="518.4957" y="-338.5828" font-family="Times,serif" font-size="9.00" fill="#000000">1863</text>
</g>
<!-- 1863&#45;&gt;1416 -->
<g id="edge22" class="edge">
<title>1863&#45;&gt;1416</title>
<path fill="none" stroke="#ff0000" stroke-width=".7095" d="M508.5116,-319.1909C504.279,-309.8252 499.2691,-298.7399 494.6648,-288.5517"/>
<polygon fill="#ff0000" stroke="#ff0000" stroke-width=".7095" points="497.7208,-286.8151 490.4131,-279.1439 491.342,-289.6979 497.7208,-286.8151"/>
</g>
<!-- 1945&#45;&gt;1527 -->
<g id="edge29" class="edge">
<title>1945&#45;&gt;1527</title>
<path fill="none" stroke="#ff0000" stroke-width=".1046" d="M546.4957,-148.7959C546.4957,-140.8651 546.4957,-131.9044 546.4957,-123.3806"/>
<polygon fill="#ff0000" stroke="#ff0000" stroke-width=".1046" points="549.9958,-123.2987 546.4957,-113.2987 542.9958,-123.2987 549.9958,-123.2987"/>
</g>
</g>
</svg>
