<?xml version="1.0" encoding="UTF-8" standalone="no"?>
<!DOCTYPE svg PUBLIC "-//W3C//DTD SVG 1.1//EN"
 "http://www.w3.org/Graphics/SVG/1.1/DTD/svg11.dtd">
<!-- Generated by graphviz version 2.40.1 (20161225.0304)
 -->
<!-- Title: %3 Pages: 1 -->
<svg width="386pt" height="259pt"
 viewBox="0.00 0.00 386.00 258.87" xmlns="http://www.w3.org/2000/svg" xmlns:xlink="http://www.w3.org/1999/xlink">
<g id="graph0" class="graph" transform="scale(1 1) rotate(0) translate(4 254.8726)">
<title>%3</title>
<polygon fill="#ffffff" stroke="transparent" points="-4,4 -4,-254.8726 381.9976,-254.8726 381.9976,4 -4,4"/>
<!-- E0 -->
<g id="node1" class="node">
<title>E0</title>
<polygon fill="#d3d3d3" stroke="#000000" points="25.9963,-250.8726 .0012,-250.8726 .0012,-233.8726 25.9963,-233.8726 25.9963,-250.8726"/>
<text text-anchor="middle" x="12.9988" y="-239.6726" font-family="Times,serif" font-size="9.00" fill="#000000">E0</text>
</g>
<!-- E1 -->
<g id="node2" class="node">
<title>E1</title>
<polygon fill="#d3d3d3" stroke="#000000" points="69.9963,-250.8726 44.0012,-250.8726 44.0012,-233.8726 69.9963,-233.8726 69.9963,-250.8726"/>
<text text-anchor="middle" x="56.9988" y="-239.6726" font-family="Times,serif" font-size="9.00" fill="#000000">E1</text>
</g>
<!-- E0&#45;&gt;E1 -->
<!-- E2 -->
<g id="node3" class="node">
<title>E2</title>
<polygon fill="#d3d3d3" stroke="#000000" points="113.9963,-250.8726 88.0012,-250.8726 88.0012,-233.8726 113.9963,-233.8726 113.9963,-250.8726"/>
<text text-anchor="middle" x="100.9988" y="-239.6726" font-family="Times,serif" font-size="9.00" fill="#000000">E2</text>
</g>
<!-- E1&#45;&gt;E2 -->
<!-- 2 -->
<g id="node12" class="node">
<title>2</title>
<ellipse fill="#87cefa" stroke="#000000" cx="261.9988" cy="-14.853" rx="14.4914" ry="14.4914"/>
<text text-anchor="middle" x="261.9988" y="-12.153" font-family="Times,serif" font-size="9.00" fill="#000000">2</text>
</g>
<!-- E1&#45;&gt;2 -->
<g id="edge13" class="edge">
<title>E1&#45;&gt;2</title>
<path fill="none" stroke="#ff0000" stroke-width="2.6661" d="M64.7847,-233.7314C94.7969,-200.4223 203.387,-79.9034 245.3174,-33.3669"/>
<polygon fill="#ff0000" stroke="#ff0000" stroke-width="2.6661" points="248.024,-35.5916 252.1177,-25.8196 242.8236,-30.9059 248.024,-35.5916"/>
</g>
<!-- E3 -->
<g id="node4" class="node">
<title>E3</title>
<polygon fill="#d3d3d3" stroke="#000000" points="157.9963,-250.8726 132.0012,-250.8726 132.0012,-233.8726 157.9963,-233.8726 157.9963,-250.8726"/>
<text text-anchor="middle" x="144.9988" y="-239.6726" font-family="Times,serif" font-size="9.00" fill="#000000">E3</text>
</g>
<!-- E2&#45;&gt;E3 -->
<!-- 1 -->
<g id="node11" class="node">
<title>1</title>
<ellipse fill="#87cefa" stroke="#000000" cx="214.9988" cy="-14.853" rx="14.4914" ry="14.4914"/>
<text text-anchor="middle" x="214.9988" y="-12.153" font-family="Times,serif" font-size="9.00" fill="#000000">1</text>
</g>
<!-- E2&#45;&gt;1 -->
<g id="edge12" class="edge">
<title>E2&#45;&gt;1</title>
<path fill="none" stroke="#ff0000" stroke-width="3.6431" d="M105.3285,-233.7314C121.5756,-201.3056 179.2327,-86.2344 203.7904,-37.2225"/>
<polygon fill="#ff0000" stroke="#ff0000" stroke-width="3.6431" points="207.0198,-38.5903 208.3704,-28.0819 200.7615,-35.4545 207.0198,-38.5903"/>
</g>
<!-- E4 -->
<g id="node5" class="node">
<title>E4</title>
<polygon fill="#d3d3d3" stroke="#000000" points="201.9963,-250.8726 176.0012,-250.8726 176.0012,-233.8726 201.9963,-233.8726 201.9963,-250.8726"/>
<text text-anchor="middle" x="188.9988" y="-239.6726" font-family="Times,serif" font-size="9.00" fill="#000000">E4</text>
</g>
<!-- E3&#45;&gt;E4 -->
<!-- E5 -->
<g id="node6" class="node">
<title>E5</title>
<polygon fill="#d3d3d3" stroke="#000000" points="245.9963,-250.8726 220.0012,-250.8726 220.0012,-233.8726 245.9963,-233.8726 245.9963,-250.8726"/>
<text text-anchor="middle" x="232.9988" y="-239.6726" font-family="Times,serif" font-size="9.00" fill="#000000">E5</text>
</g>
<!-- E4&#45;&gt;E5 -->
<!-- E6 -->
<g id="node7" class="node">
<title>E6</title>
<polygon fill="#d3d3d3" stroke="#000000" points="289.9963,-250.8726 264.0012,-250.8726 264.0012,-233.8726 289.9963,-233.8726 289.9963,-250.8726"/>
<text text-anchor="middle" x="276.9988" y="-239.6726" font-family="Times,serif" font-size="9.00" fill="#000000">E6</text>
</g>
<!-- E5&#45;&gt;E6 -->
<!-- E7 -->
<g id="node8" class="node">
<title>E7</title>
<polygon fill="#d3d3d3" stroke="#000000" points="333.9963,-250.8726 308.0012,-250.8726 308.0012,-233.8726 333.9963,-233.8726 333.9963,-250.8726"/>
<text text-anchor="middle" x="320.9988" y="-239.6726" font-family="Times,serif" font-size="9.00" fill="#000000">E7</text>
</g>
<!-- E6&#45;&gt;E7 -->
<!-- E6&#45;&gt;1 -->
<g id="edge17" class="edge">
<title>E6&#45;&gt;1</title>
<path fill="none" stroke="#ff0000" stroke-width=".235" d="M274.644,-233.7314C265.9066,-201.6679 235.1483,-88.7952 221.5489,-38.8897"/>
<polygon fill="#ff0000" stroke="#ff0000" stroke-width=".235" points="224.854,-37.7059 218.8479,-28.978 218.1003,-39.5464 224.854,-37.7059"/>
</g>
<!-- E8 -->
<g id="node9" class="node">
<title>E8</title>
<polygon fill="#d3d3d3" stroke="#000000" points="377.9963,-250.8726 352.0012,-250.8726 352.0012,-233.8726 377.9963,-233.8726 377.9963,-250.8726"/>
<text text-anchor="middle" x="364.9988" y="-239.6726" font-family="Times,serif" font-size="9.00" fill="#000000">E8</text>
</g>
<!-- E7&#45;&gt;E8 -->
<!-- 0 -->
<g id="node10" class="node">
<title>0</title>
<ellipse fill="#87cefa" stroke="#000000" cx="167.9988" cy="-14.853" rx="14.4914" ry="14.4914"/>
<text text-anchor="middle" x="167.9988" y="-12.153" font-family="Times,serif" font-size="9.00" fill="#000000">0</text>
</g>
<!-- E7&#45;&gt;0 -->
<g id="edge14" class="edge">
<title>E7&#45;&gt;0</title>
<path fill="none" stroke="#ff0000" stroke-width="2.167" d="M315.1878,-233.7314C293.0863,-200.8652 213.8883,-83.0933 181.7234,-35.2623"/>
<polygon fill="#ff0000" stroke="#ff0000" stroke-width="2.167" points="184.6031,-33.2725 176.1184,-26.9273 178.7943,-37.1787 184.6031,-33.2725"/>
</g>
<!-- 5092 -->
<g id="node14" class="node">
<title>5092</title>
<ellipse fill="#add8e6" stroke="#000000" cx="342.9988" cy="-173.831" rx="24.0833" ry="24.0833"/>
<text text-anchor="middle" x="342.9988" y="-175.631" font-family="Times,serif" font-size="9.00" fill="#000000">5092</text>
<text text-anchor="middle" x="342.9988" y="-166.631" font-family="Times,serif" font-size="9.00" fill="#000000">sigm</text>
</g>
<!-- E7&#45;&gt;5092 -->
<g id="edge15" class="edge">
<title>E7&#45;&gt;5092</title>
<path fill="none" stroke="#ff0000" stroke-width=".2291" d="M323.7851,-233.6918C326.0051,-226.7754 329.262,-216.6284 332.4659,-206.6463"/>
<polygon fill="#ff0000" stroke="#ff0000" stroke-width=".2291" points="335.8882,-207.4363 335.6119,-196.845 329.2231,-205.2969 335.8882,-207.4363"/>
</g>
<!-- E8&#45;&gt;5092 -->
<g id="edge16" class="edge">
<title>E8&#45;&gt;5092</title>
<path fill="none" stroke="#00ff00" stroke-width="1.0655" d="M362.2125,-233.6918C359.9925,-226.7754 356.7356,-216.6284 353.5316,-206.6463"/>
<polygon fill="#00ff00" stroke="#00ff00" stroke-width="1.0655" points="356.7744,-205.2969 350.3857,-196.845 350.1093,-207.4363 356.7744,-205.2969"/>
</g>
<!-- 0&#45;&gt;1 -->
<!-- 1&#45;&gt;2 -->
<!-- S -->
<g id="node13" class="node">
<title>S</title>
<ellipse fill="#87cefa" stroke="#000000" cx="308.9988" cy="-14.853" rx="14.7075" ry="14.7075"/>
<text text-anchor="middle" x="308.9988" y="-12.153" font-family="Times,serif" font-size="9.00" fill="#000000">S</text>
</g>
<!-- 2&#45;&gt;S -->
<!-- 5310 -->
<g id="node15" class="node">
<title>5310</title>
<ellipse fill="#add8e6" stroke="#000000" cx="342.9988" cy="-89.7477" rx="24.0833" ry="24.0833"/>
<text text-anchor="middle" x="342.9988" y="-91.5477" font-family="Times,serif" font-size="9.00" fill="#000000">5310</text>
<text text-anchor="middle" x="342.9988" y="-82.5477" font-family="Times,serif" font-size="9.00" fill="#000000">sigm</text>
</g>
<!-- 5092&#45;&gt;5310 -->
<g id="edge18" class="edge">
<title>5092&#45;&gt;5310</title>
<path fill="none" stroke="#00ff00" stroke-width=".1827" d="M342.9988,-149.5106C342.9988,-141.5798 342.9988,-132.6191 342.9988,-124.0953"/>
<polygon fill="#00ff00" stroke="#00ff00" stroke-width=".1827" points="346.4989,-124.0134 342.9988,-114.0134 339.4989,-124.0135 346.4989,-124.0134"/>
</g>
<!-- 5310&#45;&gt;0 -->
<g id="edge19" class="edge">
<title>5310&#45;&gt;0</title>
<path fill="none" stroke="#00ff00" stroke-width=".248" d="M323.0328,-75.7758C317.3688,-72.1871 311.0837,-68.543 304.9988,-65.7061 257.2263,-43.4337 239.8811,-51.7414 191.9988,-29.7061 191.1419,-29.3117 190.2782,-28.8927 189.4135,-28.455"/>
<polygon fill="#00ff00" stroke="#00ff00" stroke-width=".248" points="190.8028,-25.2187 180.3797,-23.3184 187.3427,-31.3038 190.8028,-25.2187"/>
</g>
</g>
</svg>
