<?xml version="1.0" encoding="UTF-8" standalone="no"?>
<!DOCTYPE svg PUBLIC "-//W3C//DTD SVG 1.1//EN"
 "http://www.w3.org/Graphics/SVG/1.1/DTD/svg11.dtd">
<!-- Generated by graphviz version 2.40.1 (20161225.0304)
 -->
<!-- Title: %3 Pages: 1 -->
<svg width="485pt" height="266pt"
 viewBox="0.00 0.00 484.77 265.93" xmlns="http://www.w3.org/2000/svg" xmlns:xlink="http://www.w3.org/1999/xlink">
<g id="graph0" class="graph" transform="scale(1 1) rotate(0) translate(4 261.9326)">
<title>%3</title>
<polygon fill="#ffffff" stroke="transparent" points="-4,4 -4,-261.9326 480.7661,-261.9326 480.7661,4 -4,4"/>
<!-- 0 -->
<g id="node1" class="node">
<title>0</title>
<polygon fill="#d3d3d3" stroke="#000000" points="84.389,-257.9326 64.3771,-257.9326 64.3771,-240.9326 84.389,-240.9326 84.389,-257.9326"/>
<text text-anchor="middle" x="74.383" y="-246.7326" font-family="Times,serif" font-size="9.00" fill="#000000">0</text>
</g>
<!-- 1 -->
<g id="node2" class="node">
<title>1</title>
<polygon fill="#d3d3d3" stroke="#000000" points="123.389,-257.9326 103.3771,-257.9326 103.3771,-240.9326 123.389,-240.9326 123.389,-257.9326"/>
<text text-anchor="middle" x="113.383" y="-246.7326" font-family="Times,serif" font-size="9.00" fill="#000000">1</text>
</g>
<!-- 0&#45;&gt;1 -->
<!-- E0 -->
<g id="node4" class="node">
<title>E0</title>
<ellipse fill="#87cefa" stroke="#000000" cx="18.383" cy="-18.383" rx="18.2668" ry="18.2668"/>
<text text-anchor="middle" x="18.383" y="-15.683" font-family="Times,serif" font-size="9.00" fill="#000000">E0</text>
</g>
<!-- 0&#45;&gt;E0 -->
<g id="edge15" class="edge">
<title>0&#45;&gt;E0</title>
<path fill="none" stroke="#ff0000" stroke-width=".2279" d="M66.0426,-240.6884C58.5211,-232.2457 47.8298,-218.7419 42.383,-204.9326 21.5004,-151.9879 17.9282,-84.6632 17.7752,-47.0816"/>
<polygon fill="#ff0000" stroke="#ff0000" stroke-width=".2279" points="21.2759,-46.8783 17.8164,-36.8642 14.276,-46.85 21.2759,-46.8783"/>
</g>
<!-- E7 -->
<g id="node11" class="node">
<title>E7</title>
<ellipse fill="#87cefa" stroke="#000000" cx="403.383" cy="-18.383" rx="18.2668" ry="18.2668"/>
<text text-anchor="middle" x="403.383" y="-15.683" font-family="Times,serif" font-size="9.00" fill="#000000">E7</text>
</g>
<!-- 0&#45;&gt;E7 -->
<g id="edge13" class="edge">
<title>0&#45;&gt;E7</title>
<path fill="none" stroke="#ff0000" stroke-width="1.2418" d="M84.5901,-242.2644C129.9617,-210.4009 314.0039,-81.1521 379.83,-34.9239"/>
<polygon fill="#ff0000" stroke="#ff0000" stroke-width="1.2418" points="382.135,-37.582 388.307,-28.9706 378.112,-31.8535 382.135,-37.582"/>
</g>
<!-- 2 -->
<g id="node3" class="node">
<title>2</title>
<polygon fill="#d3d3d3" stroke="#000000" points="218.389,-257.9326 198.3771,-257.9326 198.3771,-240.9326 218.389,-240.9326 218.389,-257.9326"/>
<text text-anchor="middle" x="208.383" y="-246.7326" font-family="Times,serif" font-size="9.00" fill="#000000">2</text>
</g>
<!-- 1&#45;&gt;2 -->
<!-- 1&#45;&gt;E0 -->
<g id="edge14" class="edge">
<title>1&#45;&gt;E0</title>
<path fill="none" stroke="#ff0000" stroke-width=".293" d="M109.6984,-240.9195C105.8392,-231.9763 99.6223,-217.4923 94.383,-204.9326 70.6924,-148.1407 43.6641,-81.2879 29.0784,-45.0344"/>
<polygon fill="#ff0000" stroke="#ff0000" stroke-width=".293" points="32.2849,-43.6271 25.3075,-35.6543 25.7901,-46.2381 32.2849,-43.6271"/>
</g>
<!-- E1 -->
<g id="node5" class="node">
<title>E1</title>
<ellipse fill="#87cefa" stroke="#000000" cx="73.383" cy="-18.383" rx="18.2668" ry="18.2668"/>
<text text-anchor="middle" x="73.383" y="-15.683" font-family="Times,serif" font-size="9.00" fill="#000000">E1</text>
</g>
<!-- 1&#45;&gt;E1 -->
<g id="edge19" class="edge">
<title>1&#45;&gt;E1</title>
<path fill="none" stroke="#00ff00" stroke-width=".3764" d="M111.8638,-240.6573C106.3634,-208.8852 87.336,-98.9784 78.2657,-46.5867"/>
<polygon fill="#00ff00" stroke="#00ff00" stroke-width=".3764" points="81.6952,-45.878 76.5406,-36.6216 74.7978,-47.0722 81.6952,-45.878"/>
</g>
<!-- E6 -->
<g id="node10" class="node">
<title>E6</title>
<ellipse fill="#87cefa" stroke="#000000" cx="348.383" cy="-18.383" rx="18.2668" ry="18.2668"/>
<text text-anchor="middle" x="348.383" y="-15.683" font-family="Times,serif" font-size="9.00" fill="#000000">E6</text>
</g>
<!-- 1&#45;&gt;E6 -->
<g id="edge11" class="edge">
<title>1&#45;&gt;E6</title>
<path fill="none" stroke="#ff0000" stroke-width="2.9699" d="M122.3084,-240.6573C156.3693,-207.169 278.7181,-86.8769 327.7986,-38.6215"/>
<polygon fill="#ff0000" stroke="#ff0000" stroke-width="2.9699" points="330.3449,-41.0263 335.0219,-31.5196 325.4373,-36.0348 330.3449,-41.0263"/>
</g>
<!-- E2 -->
<g id="node6" class="node">
<title>E2</title>
<ellipse fill="#87cefa" stroke="#000000" cx="128.383" cy="-18.383" rx="18.2668" ry="18.2668"/>
<text text-anchor="middle" x="128.383" y="-15.683" font-family="Times,serif" font-size="9.00" fill="#000000">E2</text>
</g>
<!-- 2&#45;&gt;E2 -->
<g id="edge12" class="edge">
<title>2&#45;&gt;E2</title>
<path fill="none" stroke="#ff0000" stroke-width="2.4979" d="M205.3446,-240.6573C194.2672,-208.6643 155.7584,-97.4465 137.773,-45.5024"/>
<polygon fill="#ff0000" stroke="#ff0000" stroke-width="2.4979" points="141.0431,-44.2493 134.4638,-35.9449 134.4284,-46.5397 141.0431,-44.2493"/>
</g>
<!-- 5335 -->
<g id="node13" class="node">
<title>5335</title>
<ellipse fill="#add8e6" stroke="#000000" cx="309.383" cy="-180.891" rx="24.0833" ry="24.0833"/>
<text text-anchor="middle" x="309.383" y="-182.691" font-family="Times,serif" font-size="9.00" fill="#000000">5335</text>
<text text-anchor="middle" x="309.383" y="-173.691" font-family="Times,serif" font-size="9.00" fill="#000000">sigm</text>
</g>
<!-- 2&#45;&gt;5335 -->
<g id="edge16" class="edge">
<title>2&#45;&gt;5335</title>
<path fill="none" stroke="#00ff00" stroke-width=".54" d="M218.4366,-242.61C232.844,-232.8327 259.927,-214.4533 280.806,-200.2842"/>
<polygon fill="#00ff00" stroke="#00ff00" stroke-width=".54" points="283.0101,-203.0184 289.3193,-194.5069 279.0793,-197.2262 283.0101,-203.0184"/>
</g>
<!-- E0&#45;&gt;E1 -->
<!-- E1&#45;&gt;E2 -->
<!-- E3 -->
<g id="node7" class="node">
<title>E3</title>
<ellipse fill="#87cefa" stroke="#000000" cx="183.383" cy="-18.383" rx="18.2668" ry="18.2668"/>
<text text-anchor="middle" x="183.383" y="-15.683" font-family="Times,serif" font-size="9.00" fill="#000000">E3</text>
</g>
<!-- E2&#45;&gt;E3 -->
<!-- E4 -->
<g id="node8" class="node">
<title>E4</title>
<ellipse fill="#87cefa" stroke="#000000" cx="238.383" cy="-18.383" rx="18.2668" ry="18.2668"/>
<text text-anchor="middle" x="238.383" y="-15.683" font-family="Times,serif" font-size="9.00" fill="#000000">E4</text>
</g>
<!-- E3&#45;&gt;E4 -->
<!-- E5 -->
<g id="node9" class="node">
<title>E5</title>
<ellipse fill="#87cefa" stroke="#000000" cx="293.383" cy="-18.383" rx="18.2668" ry="18.2668"/>
<text text-anchor="middle" x="293.383" y="-15.683" font-family="Times,serif" font-size="9.00" fill="#000000">E5</text>
</g>
<!-- E4&#45;&gt;E5 -->
<!-- E5&#45;&gt;E6 -->
<!-- E6&#45;&gt;E7 -->
<!-- E8 -->
<g id="node12" class="node">
<title>E8</title>
<ellipse fill="#87cefa" stroke="#000000" cx="458.383" cy="-18.383" rx="18.2668" ry="18.2668"/>
<text text-anchor="middle" x="458.383" y="-15.683" font-family="Times,serif" font-size="9.00" fill="#000000">E8</text>
</g>
<!-- E7&#45;&gt;E8 -->
<!-- 5246 -->
<g id="node14" class="node">
<title>5246</title>
<ellipse fill="#add8e6" stroke="#000000" cx="408.383" cy="-96.8077" rx="24.0833" ry="24.0833"/>
<text text-anchor="middle" x="408.383" y="-98.6077" font-family="Times,serif" font-size="9.00" fill="#000000">5246</text>
<text text-anchor="middle" x="408.383" y="-89.6077" font-family="Times,serif" font-size="9.00" fill="#000000">sigm</text>
</g>
<!-- 5335&#45;&gt;5246 -->
<g id="edge17" class="edge">
<title>5335&#45;&gt;5246</title>
<path fill="none" stroke="#00ff00" stroke-width=".4607" d="M328.0042,-165.0756C343.2148,-152.1568 364.9023,-133.7371 381.917,-119.2861"/>
<polygon fill="#00ff00" stroke="#00ff00" stroke-width=".4607" points="384.4892,-121.6934 389.8454,-112.5522 379.9577,-116.3581 384.4892,-121.6934"/>
</g>
<!-- 5246&#45;&gt;E8 -->
<g id="edge18" class="edge">
<title>5246&#45;&gt;E8</title>
<path fill="none" stroke="#00ff00" stroke-width=".1617" d="M421.52,-76.2026C428.1205,-65.8497 436.1573,-53.244 443.0401,-42.4483"/>
<polygon fill="#00ff00" stroke="#00ff00" stroke-width=".1617" points="446.0687,-44.2085 448.4935,-33.8948 440.1663,-40.4453 446.0687,-44.2085"/>
</g>
</g>
</svg>
