<?xml version="1.0" encoding="UTF-8" standalone="no"?>
<!DOCTYPE svg PUBLIC "-//W3C//DTD SVG 1.1//EN"
 "http://www.w3.org/Graphics/SVG/1.1/DTD/svg11.dtd">
<!-- Generated by graphviz version 2.40.1 (20161225.0304)
 -->
<!-- Title: %3 Pages: 1 -->
<svg width="614pt" height="342pt"
 viewBox="0.00 0.00 613.90 342.24" xmlns="http://www.w3.org/2000/svg" xmlns:xlink="http://www.w3.org/1999/xlink">
<g id="graph0" class="graph" transform="scale(1 1) rotate(0) translate(4 338.2412)">
<title>%3</title>
<polygon fill="#ffffff" stroke="transparent" points="-4,4 -4,-338.2412 609.9013,-338.2412 609.9013,4 -4,4"/>
<!-- &#45;1 -->
<g id="node1" class="node">
<title>&#45;1</title>
<polygon fill="#d3d3d3" stroke="#000000" points="81.8621,-334.2412 57.8572,-334.2412 57.8572,-317.2412 81.8621,-317.2412 81.8621,-334.2412"/>
<text text-anchor="middle" x="69.8597" y="-323.0412" font-family="Times,serif" font-size="9.00" fill="#000000">&#45;1</text>
</g>
<!-- &#45;2 -->
<g id="node2" class="node">
<title>&#45;2</title>
<polygon fill="#d3d3d3" stroke="#000000" points="122.8621,-334.2412 98.8572,-334.2412 98.8572,-317.2412 122.8621,-317.2412 122.8621,-334.2412"/>
<text text-anchor="middle" x="110.8597" y="-323.0412" font-family="Times,serif" font-size="9.00" fill="#000000">&#45;2</text>
</g>
<!-- &#45;1&#45;&gt;&#45;2 -->
<!-- 1 -->
<g id="node11" class="node">
<title>1</title>
<ellipse fill="#add8e6" stroke="#000000" cx="68.8597" cy="-14.4957" rx="14.4914" ry="14.4914"/>
<text text-anchor="middle" x="68.8597" y="-11.7957" font-family="Times,serif" font-size="9.00" fill="#000000">1</text>
</g>
<!-- &#45;1&#45;&gt;1 -->
<g id="edge15" class="edge">
<title>&#45;1&#45;&gt;1</title>
<path fill="none" stroke="#ff0000" stroke-width=".1187" d="M69.8319,-317.0918C69.7016,-276.5333 69.1486,-104.4364 68.9399,-39.4648"/>
<polygon fill="#ff0000" stroke="#ff0000" stroke-width=".1187" points="72.4395,-39.2992 68.9072,-29.3106 65.4395,-39.3218 72.4395,-39.2992"/>
</g>
<!-- &#45;3 -->
<g id="node3" class="node">
<title>&#45;3</title>
<polygon fill="#d3d3d3" stroke="#000000" points="275.8621,-334.2412 251.8572,-334.2412 251.8572,-317.2412 275.8621,-317.2412 275.8621,-334.2412"/>
<text text-anchor="middle" x="263.8597" y="-323.0412" font-family="Times,serif" font-size="9.00" fill="#000000">&#45;3</text>
</g>
<!-- &#45;2&#45;&gt;&#45;3 -->
<!-- 2472 -->
<g id="node16" class="node">
<title>2472</title>
<ellipse fill="#ffffff" stroke="#000000" cx="159.8597" cy="-173.1163" rx="24.0833" ry="24.0833"/>
<text text-anchor="middle" x="159.8597" y="-170.4163" font-family="Times,serif" font-size="9.00" fill="#000000">2472</text>
</g>
<!-- &#45;2&#45;&gt;2472 -->
<g id="edge25" class="edge">
<title>&#45;2&#45;&gt;2472</title>
<path fill="none" stroke="#ff0000" stroke-width=".4688" d="M111.3993,-317.0781C112.6445,-300.404 116.4548,-262.8704 126.8597,-233.1579 130.5538,-222.6088 135.9822,-211.7143 141.3741,-202.1493"/>
<polygon fill="#ff0000" stroke="#ff0000" stroke-width=".4688" points="144.4408,-203.8386 146.4746,-193.4408 138.4005,-200.3009 144.4408,-203.8386"/>
</g>
<!-- &#45;4 -->
<g id="node4" class="node">
<title>&#45;4</title>
<polygon fill="#d3d3d3" stroke="#000000" points="373.8621,-334.2412 349.8572,-334.2412 349.8572,-317.2412 373.8621,-317.2412 373.8621,-334.2412"/>
<text text-anchor="middle" x="361.8597" y="-323.0412" font-family="Times,serif" font-size="9.00" fill="#000000">&#45;4</text>
</g>
<!-- &#45;3&#45;&gt;&#45;4 -->
<!-- 2433 -->
<g id="node14" class="node">
<title>2433</title>
<ellipse fill="#ffffff" stroke="#000000" cx="263.8597" cy="-257.1995" rx="24.0833" ry="24.0833"/>
<text text-anchor="middle" x="263.8597" y="-254.4995" font-family="Times,serif" font-size="9.00" fill="#000000">2433</text>
</g>
<!-- &#45;3&#45;&gt;2433 -->
<g id="edge19" class="edge">
<title>&#45;3&#45;&gt;2433</title>
<path fill="none" stroke="#00ff00" stroke-width=".4726" stroke-dasharray="1,5" d="M263.8597,-317.0603C263.8597,-310.4997 263.8597,-301.0322 263.8597,-291.5559"/>
<polygon fill="#00ff00" stroke="#00ff00" stroke-width=".4726" points="267.3597,-291.4069 263.8597,-281.4069 260.3597,-291.407 267.3597,-291.4069"/>
</g>
<!-- 2535 -->
<g id="node15" class="node">
<title>2535</title>
<ellipse fill="#ffffff" stroke="#000000" cx="339.8597" cy="-173.1163" rx="24.0833" ry="24.0833"/>
<text text-anchor="middle" x="339.8597" y="-170.4163" font-family="Times,serif" font-size="9.00" fill="#000000">2535</text>
</g>
<!-- &#45;3&#45;&gt;2535 -->
<g id="edge23" class="edge">
<title>&#45;3&#45;&gt;2535</title>
<path fill="none" stroke="#ff0000" stroke-width=".339" d="M275.6488,-318.3898C287.1618,-310.5862 304.3042,-297.1908 313.8597,-281.2412 327.3079,-258.7939 333.804,-229.8078 336.9399,-207.4987"/>
<polygon fill="#ff0000" stroke="#ff0000" stroke-width=".339" points="340.428,-207.8102 338.1912,-197.4542 333.4817,-206.9448 340.428,-207.8102"/>
</g>
<!-- 2377 -->
<g id="node18" class="node">
<title>2377</title>
<ellipse fill="#ffffff" stroke="#000000" cx="159.8597" cy="-257.1995" rx="24.0833" ry="24.0833"/>
<text text-anchor="middle" x="159.8597" y="-254.4995" font-family="Times,serif" font-size="9.00" fill="#000000">2377</text>
</g>
<!-- &#45;3&#45;&gt;2377 -->
<g id="edge18" class="edge">
<title>&#45;3&#45;&gt;2377</title>
<path fill="none" stroke="#00ff00" stroke-width=".3934" d="M251.9295,-317.8786C236.6168,-307.7867 209.5416,-289.9426 188.7021,-276.2083"/>
<polygon fill="#00ff00" stroke="#00ff00" stroke-width=".3934" points="190.481,-273.1889 180.2052,-270.6083 186.6289,-279.0337 190.481,-273.1889"/>
</g>
<!-- 1426 -->
<g id="node21" class="node">
<title>1426</title>
<ellipse fill="#ffffff" stroke="#000000" cx="185.8597" cy="-89.033" rx="24.0833" ry="24.0833"/>
<text text-anchor="middle" x="185.8597" y="-86.333" font-family="Times,serif" font-size="9.00" fill="#000000">1426</text>
</g>
<!-- &#45;3&#45;&gt;1426 -->
<g id="edge17" class="edge">
<title>&#45;3&#45;&gt;1426</title>
<path fill="none" stroke="#00ff00" stroke-width=".6542" stroke-dasharray="1,5" d="M255.8638,-317.2318C248.3229,-308.7483 237.2504,-295.0288 230.8597,-281.2412 206.7,-229.118 194.8854,-162.8424 189.6076,-123.2976"/>
<polygon fill="#00ff00" stroke="#00ff00" stroke-width=".6542" points="193.048,-122.6059 188.3163,-113.1263 186.1037,-123.4875 193.048,-122.6059"/>
</g>
<!-- 2355 -->
<g id="node22" class="node">
<title>2355</title>
<ellipse fill="#ffffff" stroke="#000000" cx="268.8597" cy="-173.1163" rx="24.0833" ry="24.0833"/>
<text text-anchor="middle" x="268.8597" y="-170.4163" font-family="Times,serif" font-size="9.00" fill="#000000">2355</text>
</g>
<!-- &#45;3&#45;&gt;2355 -->
<g id="edge16" class="edge">
<title>&#45;3&#45;&gt;2355</title>
<path fill="none" stroke="#00ff00" stroke-width=".2251" d="M272.8776,-317.1973C280.9287,-308.8963 292.1534,-295.4884 296.8597,-281.2412 303.5626,-260.9493 301.4853,-254.0216 296.8597,-233.1579 294.6054,-222.9904 290.4429,-212.504 286.0041,-203.1963"/>
<polygon fill="#00ff00" stroke="#00ff00" stroke-width=".2251" points="288.9828,-201.3306 281.3468,-193.986 282.736,-204.4894 288.9828,-201.3306"/>
</g>
<!-- &#45;5 -->
<g id="node5" class="node">
<title>&#45;5</title>
<polygon fill="#d3d3d3" stroke="#000000" points="437.8621,-334.2412 413.8572,-334.2412 413.8572,-317.2412 437.8621,-317.2412 437.8621,-334.2412"/>
<text text-anchor="middle" x="425.8597" y="-323.0412" font-family="Times,serif" font-size="9.00" fill="#000000">&#45;5</text>
</g>
<!-- &#45;4&#45;&gt;&#45;5 -->
<!-- &#45;6 -->
<g id="node6" class="node">
<title>&#45;6</title>
<polygon fill="#d3d3d3" stroke="#000000" points="478.8621,-334.2412 454.8572,-334.2412 454.8572,-317.2412 478.8621,-317.2412 478.8621,-334.2412"/>
<text text-anchor="middle" x="466.8597" y="-323.0412" font-family="Times,serif" font-size="9.00" fill="#000000">&#45;6</text>
</g>
<!-- &#45;5&#45;&gt;&#45;6 -->
<!-- 2 -->
<g id="node12" class="node">
<title>2</title>
<ellipse fill="#add8e6" stroke="#000000" cx="411.8597" cy="-14.4957" rx="14.4914" ry="14.4914"/>
<text text-anchor="middle" x="411.8597" y="-11.7957" font-family="Times,serif" font-size="9.00" fill="#000000">2</text>
</g>
<!-- &#45;5&#45;&gt;2 -->
<g id="edge14" class="edge">
<title>&#45;5&#45;&gt;2</title>
<path fill="none" stroke="#00ff00" stroke-width=".4496" stroke-dasharray="1,5" d="M424.4764,-317.1968C419.347,-284.5135 401.9563,-164.2725 406.8597,-64.9914 407.2766,-56.5487 408.0835,-47.3409 408.9293,-39.1277"/>
<polygon fill="#00ff00" stroke="#00ff00" stroke-width=".4496" points="412.4233,-39.3734 410.0343,-29.0514 405.465,-38.6103 412.4233,-39.3734"/>
</g>
<!-- 3 -->
<g id="node13" class="node">
<title>3</title>
<ellipse fill="#add8e6" stroke="#000000" cx="505.8597" cy="-14.4957" rx="14.4914" ry="14.4914"/>
<text text-anchor="middle" x="505.8597" y="-11.7957" font-family="Times,serif" font-size="9.00" fill="#000000">3</text>
</g>
<!-- &#45;5&#45;&gt;3 -->
<g id="edge12" class="edge">
<title>&#45;5&#45;&gt;3</title>
<path fill="none" stroke="#00ff00" stroke-width="1.7727" d="M432.6421,-317.0461C447.6465,-297.191 483.3145,-246.4197 495.8597,-197.1579 509.8631,-142.1698 509.1911,-74.9649 507.5071,-39.3788"/>
<polygon fill="#00ff00" stroke="#00ff00" stroke-width="1.7727" points="510.9802,-38.7866 506.9421,-28.9915 503.9905,-39.1668 510.9802,-38.7866"/>
</g>
<!-- 2718 -->
<g id="node19" class="node">
<title>2718</title>
<ellipse fill="#ffffff" stroke="#000000" cx="462.8597" cy="-173.1163" rx="24.0833" ry="24.0833"/>
<text text-anchor="middle" x="462.8597" y="-170.4163" font-family="Times,serif" font-size="9.00" fill="#000000">2718</text>
</g>
<!-- &#45;5&#45;&gt;2718 -->
<g id="edge27" class="edge">
<title>&#45;5&#45;&gt;2718</title>
<path fill="none" stroke="#00ff00" stroke-width=".1231" d="M427.9549,-317.0981C433.0196,-296.2064 446.1443,-242.0672 454.7777,-206.4542"/>
<polygon fill="#00ff00" stroke="#00ff00" stroke-width=".1231" points="458.2364,-207.0424 457.191,-196.4992 451.4335,-205.3931 458.2364,-207.0424"/>
</g>
<!-- &#45;7 -->
<g id="node7" class="node">
<title>&#45;7</title>
<polygon fill="#d3d3d3" stroke="#000000" points="519.8621,-334.2412 495.8572,-334.2412 495.8572,-317.2412 519.8621,-317.2412 519.8621,-334.2412"/>
<text text-anchor="middle" x="507.8597" y="-323.0412" font-family="Times,serif" font-size="9.00" fill="#000000">&#45;7</text>
</g>
<!-- &#45;6&#45;&gt;&#45;7 -->
<!-- &#45;8 -->
<g id="node8" class="node">
<title>&#45;8</title>
<polygon fill="#d3d3d3" stroke="#000000" points="560.8621,-334.2412 536.8572,-334.2412 536.8572,-317.2412 560.8621,-317.2412 560.8621,-334.2412"/>
<text text-anchor="middle" x="548.8597" y="-323.0412" font-family="Times,serif" font-size="9.00" fill="#000000">&#45;8</text>
</g>
<!-- &#45;7&#45;&gt;&#45;8 -->
<!-- &#45;9 -->
<g id="node9" class="node">
<title>&#45;9</title>
<polygon fill="#d3d3d3" stroke="#000000" points="601.8621,-334.2412 577.8572,-334.2412 577.8572,-317.2412 601.8621,-317.2412 601.8621,-334.2412"/>
<text text-anchor="middle" x="589.8597" y="-323.0412" font-family="Times,serif" font-size="9.00" fill="#000000">&#45;9</text>
</g>
<!-- &#45;8&#45;&gt;&#45;9 -->
<!-- 0 -->
<g id="node10" class="node">
<title>0</title>
<ellipse fill="#add8e6" stroke="#000000" cx="21.8597" cy="-14.4957" rx="14.4914" ry="14.4914"/>
<text text-anchor="middle" x="21.8597" y="-11.7957" font-family="Times,serif" font-size="9.00" fill="#000000">0</text>
</g>
<!-- 0&#45;&gt;1 -->
<!-- 1&#45;&gt;2 -->
<!-- 315 -->
<g id="node23" class="node">
<title>315</title>
<ellipse fill="#ffffff" stroke="#000000" cx="20.8597" cy="-89.033" rx="20.7202" ry="20.7202"/>
<text text-anchor="middle" x="20.8597" y="-86.333" font-family="Times,serif" font-size="9.00" fill="#000000">315</text>
</g>
<!-- 1&#45;&gt;315 -->
<g id="edge13" class="edge">
<title>1&#45;&gt;315</title>
<path fill="none" stroke="#00ff00" stroke-width=".3506" stroke-dasharray="1,5" d="M60.7188,-27.1373C54.4217,-36.9157 45.4877,-50.789 37.6734,-62.9236"/>
<polygon fill="#00ff00" stroke="#00ff00" stroke-width=".3506" points="34.7066,-61.0662 32.235,-71.3687 40.5919,-64.8562 34.7066,-61.0662"/>
</g>
<!-- 2&#45;&gt;3 -->
<!-- 2&#45;&gt;2535 -->
<g id="edge24" class="edge">
<title>2&#45;&gt;2535</title>
<path fill="none" stroke="#ff0000" stroke-width=".1892" d="M401.9162,-25.3825C393.4518,-35.1391 381.485,-50.1599 373.8597,-64.9914 361.6648,-88.7105 352.8524,-117.6217 347.2592,-139.5787"/>
<polygon fill="#ff0000" stroke="#ff0000" stroke-width=".1892" points="343.8236,-138.8936 344.8434,-149.4393 350.6225,-140.5594 343.8236,-138.8936"/>
</g>
<!-- 2433&#45;&gt;2355 -->
<g id="edge20" class="edge">
<title>2433&#45;&gt;2355</title>
<path fill="none" stroke="#00ff00" stroke-width=".2369" d="M265.3059,-232.8792C265.7775,-224.9483 266.3103,-215.9877 266.8172,-207.4639"/>
<polygon fill="#00ff00" stroke="#00ff00" stroke-width=".2369" points="270.3168,-207.5721 267.4167,-197.382 263.3292,-207.1565 270.3168,-207.5721"/>
</g>
<!-- 2472&#45;&gt;1426 -->
<g id="edge22" class="edge">
<title>2472&#45;&gt;1426</title>
<path fill="none" stroke="#ff0000" stroke-width=".5104" d="M166.9643,-150.1401C169.6363,-141.4987 172.73,-131.4939 175.6306,-122.1134"/>
<polygon fill="#ff0000" stroke="#ff0000" stroke-width=".5104" points="179.0628,-122.8612 178.6733,-112.2735 172.3753,-120.7932 179.0628,-122.8612"/>
</g>
<!-- 201 -->
<g id="node17" class="node">
<title>201</title>
<ellipse fill="#ffffff" stroke="#000000" cx="578.8597" cy="-89.033" rx="20.7202" ry="20.7202"/>
<text text-anchor="middle" x="578.8597" y="-86.333" font-family="Times,serif" font-size="9.00" fill="#000000">201</text>
</g>
<!-- 2377&#45;&gt;2472 -->
<g id="edge21" class="edge">
<title>2377&#45;&gt;2472</title>
<path fill="none" stroke="#ff0000" stroke-width=".2171" d="M159.8597,-232.8792C159.8597,-224.9483 159.8597,-215.9877 159.8597,-207.4639"/>
<polygon fill="#ff0000" stroke="#ff0000" stroke-width=".2171" points="163.3597,-207.3819 159.8597,-197.382 156.3597,-207.382 163.3597,-207.3819"/>
</g>
<!-- 2718&#45;&gt;2 -->
<g id="edge28" class="edge">
<title>2718&#45;&gt;2</title>
<path fill="none" stroke="#00ff00" stroke-width=".352" d="M471.4399,-150.4196C478.5822,-127.6983 485.6981,-92.2856 472.8597,-64.9914 464.8721,-48.0101 448.0599,-34.7816 434.1046,-26.1317"/>
<polygon fill="#00ff00" stroke="#00ff00" stroke-width=".352" points="435.451,-22.867 425.0432,-20.885 431.9434,-28.9248 435.451,-22.867"/>
</g>
<!-- 1713 -->
<g id="node20" class="node">
<title>1713</title>
<ellipse fill="#ffffff" stroke="#000000" cx="439.8597" cy="-89.033" rx="24.0833" ry="24.0833"/>
<text text-anchor="middle" x="439.8597" y="-86.333" font-family="Times,serif" font-size="9.00" fill="#000000">1713</text>
</g>
<!-- 1713&#45;&gt;2 -->
<g id="edge29" class="edge">
<title>1713&#45;&gt;2</title>
<path fill="none" stroke="#ff0000" stroke-width=".3556" d="M431.3066,-66.2643C427.9413,-57.3058 424.0785,-47.023 420.687,-37.9946"/>
<polygon fill="#ff0000" stroke="#ff0000" stroke-width=".3556" points="423.9029,-36.6023 417.1098,-28.4718 417.35,-39.064 423.9029,-36.6023"/>
</g>
<!-- 315&#45;&gt;0 -->
<g id="edge26" class="edge">
<title>315&#45;&gt;0</title>
<path fill="none" stroke="#ff0000" stroke-width=".166" d="M21.1435,-67.873C21.2631,-58.9637 21.403,-48.5336 21.5273,-39.2686"/>
<polygon fill="#ff0000" stroke="#ff0000" stroke-width=".166" points="25.0293,-39.1346 21.6639,-29.0885 18.0299,-39.0406 25.0293,-39.1346"/>
</g>
<!-- 2014 -->
<g id="node24" class="node">
<title>2014</title>
<ellipse fill="#ffffff" stroke="#000000" cx="581.8597" cy="-257.1995" rx="24.0833" ry="24.0833"/>
<text text-anchor="middle" x="581.8597" y="-254.4995" font-family="Times,serif" font-size="9.00" fill="#000000">2014</text>
</g>
</g>
</svg>
