<?xml version="1.0" encoding="UTF-8" standalone="no"?>
<!DOCTYPE svg PUBLIC "-//W3C//DTD SVG 1.1//EN"
 "http://www.w3.org/Graphics/SVG/1.1/DTD/svg11.dtd">
<!-- Generated by graphviz version 2.40.1 (20161225.0304)
 -->
<!-- Title: %3 Pages: 1 -->
<svg width="425pt" height="510pt"
 viewBox="0.00 0.00 425.35 510.41" xmlns="http://www.w3.org/2000/svg" xmlns:xlink="http://www.w3.org/1999/xlink">
<g id="graph0" class="graph" transform="scale(1 1) rotate(0) translate(4 506.4077)">
<title>%3</title>
<polygon fill="#ffffff" stroke="transparent" points="-4,4 -4,-506.4077 421.3539,-506.4077 421.3539,4 -4,4"/>
<!-- &#45;1 -->
<g id="node1" class="node">
<title>&#45;1</title>
<polygon fill="#d3d3d3" stroke="#000000" points="159.4981,-502.4077 135.4932,-502.4077 135.4932,-485.4077 159.4981,-485.4077 159.4981,-502.4077"/>
<text text-anchor="middle" x="147.4957" y="-491.2077" font-family="Times,serif" font-size="9.00" fill="#000000">&#45;1</text>
</g>
<!-- &#45;2 -->
<g id="node2" class="node">
<title>&#45;2</title>
<polygon fill="#d3d3d3" stroke="#000000" points="249.4981,-502.4077 225.4932,-502.4077 225.4932,-485.4077 249.4981,-485.4077 249.4981,-502.4077"/>
<text text-anchor="middle" x="237.4957" y="-491.2077" font-family="Times,serif" font-size="9.00" fill="#000000">&#45;2</text>
</g>
<!-- &#45;1&#45;&gt;&#45;2 -->
<!-- 2 -->
<g id="node6" class="node">
<title>2</title>
<ellipse fill="#add8e6" stroke="#000000" cx="108.4957" cy="-14.4957" rx="14.4914" ry="14.4914"/>
<text text-anchor="middle" x="108.4957" y="-11.7957" font-family="Times,serif" font-size="9.00" fill="#000000">2</text>
</g>
<!-- &#45;1&#45;&gt;2 -->
<g id="edge11" class="edge">
<title>&#45;1&#45;&gt;2</title>
<path fill="none" stroke="#ff0000" stroke-width=".9525" d="M143.7132,-485.1529C134.1015,-462.0838 109.4957,-397.5338 109.4957,-341.2828 109.4957,-341.2828 109.4957,-341.2828 109.4957,-173.1163 109.4957,-126.0248 109.0495,-71.0709 108.7532,-39.7697"/>
<polygon fill="#ff0000" stroke="#ff0000" stroke-width=".9525" points="112.2492,-39.3316 108.6519,-29.3662 105.2495,-39.3998 112.2492,-39.3316"/>
</g>
<!-- 6 -->
<g id="node10" class="node">
<title>6</title>
<ellipse fill="#add8e6" stroke="#000000" cx="296.4957" cy="-14.4957" rx="14.4914" ry="14.4914"/>
<text text-anchor="middle" x="296.4957" y="-11.7957" font-family="Times,serif" font-size="9.00" fill="#000000">6</text>
</g>
<!-- &#45;1&#45;&gt;6 -->
<g id="edge20" class="edge">
<title>&#45;1&#45;&gt;6</title>
<path fill="none" stroke="#00ff00" stroke-width=".287" d="M147.4957,-485.3018C147.4957,-462.0697 147.4957,-396.1324 147.4957,-341.2828 147.4957,-341.2828 147.4957,-341.2828 147.4957,-173.1163 147.4957,-124.3245 134.7407,-102.0354 166.4957,-64.9914 198.8768,-27.2168 227.3831,-49.975 272.4957,-28.9914 273.3453,-28.5962 274.2029,-28.1785 275.0623,-27.7438"/>
<polygon fill="#00ff00" stroke="#00ff00" stroke-width=".287" points="277.0584,-30.6375 284.0719,-22.6963 273.637,-24.5305 277.0584,-30.6375"/>
</g>
<!-- &#45;3 -->
<g id="node3" class="node">
<title>&#45;3</title>
<polygon fill="#d3d3d3" stroke="#000000" points="290.4981,-502.4077 266.4932,-502.4077 266.4932,-485.4077 290.4981,-485.4077 290.4981,-502.4077"/>
<text text-anchor="middle" x="278.4957" y="-491.2077" font-family="Times,serif" font-size="9.00" fill="#000000">&#45;3</text>
</g>
<!-- &#45;2&#45;&gt;&#45;3 -->
<!-- 1894 -->
<g id="node13" class="node">
<title>1894</title>
<ellipse fill="#ffffff" stroke="#000000" cx="199.4957" cy="-89.033" rx="24.0833" ry="24.0833"/>
<text text-anchor="middle" x="199.4957" y="-86.333" font-family="Times,serif" font-size="9.00" fill="#000000">1894</text>
</g>
<!-- &#45;2&#45;&gt;1894 -->
<g id="edge15" class="edge">
<title>&#45;2&#45;&gt;1894</title>
<path fill="none" stroke="#00ff00" stroke-width=".1528" stroke-dasharray="1,5" d="M229.0361,-485.1521C221.3795,-476.7014 210.4217,-463.1922 204.4957,-449.4077 185.2252,-404.5826 185.4957,-390.0746 185.4957,-341.2828 185.4957,-341.2828 185.4957,-341.2828 185.4957,-257.1995 185.4957,-210.6729 190.8836,-157.1543 194.9745,-123.2246"/>
<polygon fill="#00ff00" stroke="#00ff00" stroke-width=".1528" points="198.4936,-123.2847 196.2486,-112.9304 191.5467,-122.4247 198.4936,-123.2847"/>
</g>
<!-- 2029 -->
<g id="node15" class="node">
<title>2029</title>
<ellipse fill="#ffffff" stroke="#000000" cx="237.4957" cy="-425.3661" rx="24.0833" ry="24.0833"/>
<text text-anchor="middle" x="237.4957" y="-422.6661" font-family="Times,serif" font-size="9.00" fill="#000000">2029</text>
</g>
<!-- &#45;2&#45;&gt;2029 -->
<g id="edge16" class="edge">
<title>&#45;2&#45;&gt;2029</title>
<path fill="none" stroke="#ff0000" stroke-width=".3823" stroke-dasharray="1,5" d="M237.4957,-485.2268C237.4957,-478.6662 237.4957,-469.1987 237.4957,-459.7225"/>
<polygon fill="#ff0000" stroke="#ff0000" stroke-width=".3823" points="240.9958,-459.5734 237.4957,-449.5735 233.9958,-459.5735 240.9958,-459.5734"/>
</g>
<!-- 1849 -->
<g id="node16" class="node">
<title>1849</title>
<ellipse fill="#ffffff" stroke="#000000" cx="341.4957" cy="-173.1163" rx="24.0833" ry="24.0833"/>
<text text-anchor="middle" x="341.4957" y="-170.4163" font-family="Times,serif" font-size="9.00" fill="#000000">1849</text>
</g>
<!-- &#45;2&#45;&gt;1849 -->
<g id="edge12" class="edge">
<title>&#45;2&#45;&gt;1849</title>
<path fill="none" stroke="#ff0000" stroke-width=".3472" stroke-dasharray="1,5" d="M245.9553,-485.1521C253.6118,-476.7014 264.5697,-463.1922 270.4957,-449.4077 309.0366,-359.7575 276.114,-325.2122 308.4957,-233.1579 312.2047,-222.614 317.6371,-211.7209 323.028,-202.1556"/>
<polygon fill="#ff0000" stroke="#ff0000" stroke-width=".3472" points="326.0949,-203.8446 328.1263,-193.4463 320.0538,-200.3082 326.0949,-203.8446"/>
</g>
<!-- 2139 -->
<g id="node18" class="node">
<title>2139</title>
<ellipse fill="#ffffff" stroke="#000000" cx="360.4957" cy="-425.3661" rx="24.0833" ry="24.0833"/>
<text text-anchor="middle" x="360.4957" y="-422.6661" font-family="Times,serif" font-size="9.00" fill="#000000">2139</text>
</g>
<!-- &#45;2&#45;&gt;2139 -->
<g id="edge18" class="edge">
<title>&#45;2&#45;&gt;2139</title>
<path fill="none" stroke="#00ff00" stroke-width=".1565" d="M249.2894,-487.3356C267.7922,-477.025 304.2237,-456.7236 330.3496,-442.1649"/>
<polygon fill="#00ff00" stroke="#00ff00" stroke-width=".1565" points="332.0831,-445.2058 339.1146,-437.2806 328.6756,-439.091 332.0831,-445.2058"/>
</g>
<!-- 0 -->
<g id="node4" class="node">
<title>0</title>
<ellipse fill="#add8e6" stroke="#000000" cx="14.4957" cy="-14.4957" rx="14.4914" ry="14.4914"/>
<text text-anchor="middle" x="14.4957" y="-11.7957" font-family="Times,serif" font-size="9.00" fill="#000000">0</text>
</g>
<!-- 1 -->
<g id="node5" class="node">
<title>1</title>
<ellipse fill="#add8e6" stroke="#000000" cx="61.4957" cy="-14.4957" rx="14.4914" ry="14.4914"/>
<text text-anchor="middle" x="61.4957" y="-11.7957" font-family="Times,serif" font-size="9.00" fill="#000000">1</text>
</g>
<!-- 0&#45;&gt;1 -->
<!-- 1&#45;&gt;2 -->
<!-- 3 -->
<g id="node7" class="node">
<title>3</title>
<ellipse fill="#add8e6" stroke="#000000" cx="155.4957" cy="-14.4957" rx="14.4914" ry="14.4914"/>
<text text-anchor="middle" x="155.4957" y="-11.7957" font-family="Times,serif" font-size="9.00" fill="#000000">3</text>
</g>
<!-- 2&#45;&gt;3 -->
<!-- 4 -->
<g id="node8" class="node">
<title>4</title>
<ellipse fill="#add8e6" stroke="#000000" cx="202.4957" cy="-14.4957" rx="14.4914" ry="14.4914"/>
<text text-anchor="middle" x="202.4957" y="-11.7957" font-family="Times,serif" font-size="9.00" fill="#000000">4</text>
</g>
<!-- 3&#45;&gt;4 -->
<!-- 5 -->
<g id="node9" class="node">
<title>5</title>
<ellipse fill="#add8e6" stroke="#000000" cx="249.4957" cy="-14.4957" rx="14.4914" ry="14.4914"/>
<text text-anchor="middle" x="249.4957" y="-11.7957" font-family="Times,serif" font-size="9.00" fill="#000000">5</text>
</g>
<!-- 4&#45;&gt;5 -->
<!-- 5&#45;&gt;6 -->
<!-- 7 -->
<g id="node11" class="node">
<title>7</title>
<ellipse fill="#add8e6" stroke="#000000" cx="343.4957" cy="-14.4957" rx="14.4914" ry="14.4914"/>
<text text-anchor="middle" x="343.4957" y="-11.7957" font-family="Times,serif" font-size="9.00" fill="#000000">7</text>
</g>
<!-- 6&#45;&gt;7 -->
<!-- 8 -->
<g id="node12" class="node">
<title>8</title>
<ellipse fill="#add8e6" stroke="#000000" cx="390.4957" cy="-14.4957" rx="14.4914" ry="14.4914"/>
<text text-anchor="middle" x="390.4957" y="-11.7957" font-family="Times,serif" font-size="9.00" fill="#000000">8</text>
</g>
<!-- 7&#45;&gt;8 -->
<!-- 7&#45;&gt;1849 -->
<g id="edge17" class="edge">
<title>7&#45;&gt;1849</title>
<path fill="none" stroke="#00ff00" stroke-width=".3693" d="M343.3093,-29.2759C342.9972,-54.0329 342.3606,-104.5165 341.931,-138.5918"/>
<polygon fill="#00ff00" stroke="#00ff00" stroke-width=".3693" points="338.4259,-138.9819 341.7994,-149.0252 345.4253,-139.0702 338.4259,-138.9819"/>
</g>
<!-- 1894&#45;&gt;3 -->
<g id="edge14" class="edge">
<title>1894&#45;&gt;3</title>
<path fill="none" stroke="#00ff00" stroke-width=".5268" d="M187.2392,-68.2702C181.2429,-58.1123 174.0365,-45.9043 168.0065,-35.6894"/>
<polygon fill="#00ff00" stroke="#00ff00" stroke-width=".5268" points="170.9656,-33.817 162.868,-26.9847 164.9375,-37.3755 170.9656,-33.817"/>
</g>
<!-- 2149 -->
<g id="node14" class="node">
<title>2149</title>
<ellipse fill="#ffffff" stroke="#000000" cx="341.4957" cy="-257.1995" rx="24.0833" ry="24.0833"/>
<text text-anchor="middle" x="341.4957" y="-254.4995" font-family="Times,serif" font-size="9.00" fill="#000000">2149</text>
</g>
<!-- 2149&#45;&gt;1849 -->
<g id="edge22" class="edge">
<title>2149&#45;&gt;1849</title>
<path fill="none" stroke="#00ff00" stroke-width=".1472" d="M341.4957,-232.8792C341.4957,-224.9483 341.4957,-215.9877 341.4957,-207.4639"/>
<polygon fill="#00ff00" stroke="#00ff00" stroke-width=".1472" points="344.9958,-207.3819 341.4957,-197.382 337.9958,-207.382 344.9958,-207.3819"/>
</g>
<!-- 1849&#45;&gt;1894 -->
<g id="edge13" class="edge">
<title>1849&#45;&gt;1894</title>
<path fill="none" stroke="#ff0000" stroke-width=".2869" d="M320.5431,-160.7095C296.4224,-146.4267 256.6218,-122.8594 229.2861,-106.673"/>
<polygon fill="#ff0000" stroke="#ff0000" stroke-width=".2869" points="230.9222,-103.5742 220.5342,-101.4907 227.3556,-109.5975 230.9222,-103.5742"/>
</g>
<!-- 2170 -->
<g id="node17" class="node">
<title>2170</title>
<ellipse fill="#ffffff" stroke="#000000" cx="379.4957" cy="-341.2828" rx="24.0833" ry="24.0833"/>
<text text-anchor="middle" x="379.4957" y="-338.5828" font-family="Times,serif" font-size="9.00" fill="#000000">2170</text>
</g>
<!-- 2170&#45;&gt;2149 -->
<g id="edge24" class="edge">
<title>2170&#45;&gt;2149</title>
<path fill="none" stroke="#00ff00" stroke-width=".4168" d="M369.5116,-319.1909C365.279,-309.8252 360.2691,-298.7399 355.6648,-288.5517"/>
<polygon fill="#00ff00" stroke="#00ff00" stroke-width=".4168" points="358.7208,-286.8151 351.4131,-279.1439 352.342,-289.6979 358.7208,-286.8151"/>
</g>
<!-- 2139&#45;&gt;2149 -->
<g id="edge21" class="edge">
<title>2139&#45;&gt;2149</title>
<path fill="none" stroke="#00ff00" stroke-width=".3316" stroke-dasharray="1,5" d="M354.0427,-402.1705C351.2335,-391.1039 348.1993,-377.6231 346.4957,-365.3244 343.0988,-340.8019 341.874,-312.884 341.4852,-291.5596"/>
<polygon fill="#00ff00" stroke="#00ff00" stroke-width=".3316" points="344.9825,-291.318 341.3533,-281.3642 337.9831,-291.4086 344.9825,-291.318"/>
</g>
<!-- 2139&#45;&gt;1849 -->
<g id="edge19" class="edge">
<title>2139&#45;&gt;1849</title>
<path fill="none" stroke="#ff0000" stroke-width=".1381" d="M379.2176,-410.2214C391.2564,-399.2097 405.8477,-383.1553 412.4957,-365.3244 419.9613,-345.3006 416.9971,-338.132 412.4957,-317.2412 403.2178,-274.1834 378.3712,-229.4071 360.6927,-201.4154"/>
<polygon fill="#ff0000" stroke="#ff0000" stroke-width=".1381" points="363.5913,-199.4519 355.2336,-192.9404 357.7065,-203.2426 363.5913,-199.4519"/>
</g>
<!-- 2139&#45;&gt;2170 -->
<g id="edge23" class="edge">
<title>2139&#45;&gt;2170</title>
<path fill="none" stroke="#00ff00" stroke-width=".3" d="M365.8895,-401.4961C367.7707,-393.1709 369.9179,-383.6685 371.942,-374.7112"/>
<polygon fill="#00ff00" stroke="#00ff00" stroke-width=".3" points="375.3639,-375.447 374.1541,-364.9214 368.5361,-373.904 375.3639,-375.447"/>
</g>
</g>
</svg>
