<?xml version="1.0" encoding="UTF-8" standalone="no"?>
<!DOCTYPE svg PUBLIC "-//W3C//DTD SVG 1.1//EN"
 "http://www.w3.org/Graphics/SVG/1.1/DTD/svg11.dtd">
<!-- Generated by graphviz version 2.40.1 (20161225.0304)
 -->
<!-- Title: %3 Pages: 1 -->
<svg width="359pt" height="90pt"
 viewBox="0.00 0.00 359.50 89.99" xmlns="http://www.w3.org/2000/svg" xmlns:xlink="http://www.w3.org/1999/xlink">
<g id="graph0" class="graph" transform="scale(1 1) rotate(0) translate(4 85.9914)">
<title>%3</title>
<polygon fill="#ffffff" stroke="transparent" points="-4,4 -4,-85.9914 355.4971,-85.9914 355.4971,4 -4,4"/>
<!-- &#45;1 -->
<g id="node1" class="node">
<title>&#45;1</title>
<polygon fill="#d3d3d3" stroke="#000000" points="23.751,-81.9914 -.2539,-81.9914 -.2539,-64.9914 23.751,-64.9914 23.751,-81.9914"/>
<text text-anchor="middle" x="11.7485" y="-70.7914" font-family="Times,serif" font-size="9.00" fill="#000000">&#45;1</text>
</g>
<!-- &#45;2 -->
<g id="node2" class="node">
<title>&#45;2</title>
<polygon fill="#d3d3d3" stroke="#000000" points="64.751,-81.9914 40.7461,-81.9914 40.7461,-64.9914 64.751,-64.9914 64.751,-81.9914"/>
<text text-anchor="middle" x="52.7485" y="-70.7914" font-family="Times,serif" font-size="9.00" fill="#000000">&#45;2</text>
</g>
<!-- &#45;1&#45;&gt;&#45;2 -->
<!-- &#45;3 -->
<g id="node3" class="node">
<title>&#45;3</title>
<polygon fill="#d3d3d3" stroke="#000000" points="105.751,-81.9914 81.7461,-81.9914 81.7461,-64.9914 105.751,-64.9914 105.751,-81.9914"/>
<text text-anchor="middle" x="93.7485" y="-70.7914" font-family="Times,serif" font-size="9.00" fill="#000000">&#45;3</text>
</g>
<!-- &#45;2&#45;&gt;&#45;3 -->
<!-- 0 -->
<g id="node10" class="node">
<title>0</title>
<ellipse fill="#add8e6" stroke="#000000" cx="93.7485" cy="-14.4957" rx="14.4914" ry="14.4914"/>
<text text-anchor="middle" x="93.7485" y="-11.7957" font-family="Times,serif" font-size="9.00" fill="#000000">0</text>
</g>
<!-- &#45;2&#45;&gt;0 -->
<g id="edge16" class="edge">
<title>&#45;2&#45;&gt;0</title>
<path fill="none" stroke="#ff0000" stroke-width=".1372" d="M58.7982,-64.7864C64.2424,-56.9526 72.453,-45.1382 79.5484,-34.9285"/>
<polygon fill="#ff0000" stroke="#ff0000" stroke-width=".1372" points="82.5663,-36.719 85.3991,-26.5099 76.8181,-32.7242 82.5663,-36.719"/>
</g>
<!-- 1 -->
<g id="node11" class="node">
<title>1</title>
<ellipse fill="#add8e6" stroke="#000000" cx="140.7485" cy="-14.4957" rx="14.4914" ry="14.4914"/>
<text text-anchor="middle" x="140.7485" y="-11.7957" font-family="Times,serif" font-size="9.00" fill="#000000">1</text>
</g>
<!-- &#45;2&#45;&gt;1 -->
<g id="edge17" class="edge">
<title>&#45;2&#45;&gt;1</title>
<path fill="none" stroke="#ff0000" stroke-width=".5051" d="M64.6166,-65.535C78.839,-56.0002 102.9099,-39.8629 120.1805,-28.2846"/>
<polygon fill="#ff0000" stroke="#ff0000" stroke-width=".5051" points="122.1467,-31.1803 128.5038,-22.7046 118.2487,-25.366 122.1467,-31.1803"/>
</g>
<!-- &#45;4 -->
<g id="node4" class="node">
<title>&#45;4</title>
<polygon fill="#d3d3d3" stroke="#000000" points="146.751,-81.9914 122.7461,-81.9914 122.7461,-64.9914 146.751,-64.9914 146.751,-81.9914"/>
<text text-anchor="middle" x="134.7485" y="-70.7914" font-family="Times,serif" font-size="9.00" fill="#000000">&#45;4</text>
</g>
<!-- &#45;3&#45;&gt;&#45;4 -->
<!-- &#45;3&#45;&gt;0 -->
<g id="edge19" class="edge">
<title>&#45;3&#45;&gt;0</title>
<path fill="none" stroke="#ff0000" stroke-width=".2452" d="M93.7485,-64.7864C93.7485,-58.0594 93.7485,-48.3972 93.7485,-39.3363"/>
<polygon fill="#ff0000" stroke="#ff0000" stroke-width=".2452" points="97.2486,-39.1879 93.7485,-29.1879 90.2486,-39.1879 97.2486,-39.1879"/>
</g>
<!-- 3 -->
<g id="node13" class="node">
<title>3</title>
<ellipse fill="#add8e6" stroke="#000000" cx="234.7485" cy="-14.4957" rx="14.4914" ry="14.4914"/>
<text text-anchor="middle" x="234.7485" y="-11.7957" font-family="Times,serif" font-size="9.00" fill="#000000">3</text>
</g>
<!-- &#45;3&#45;&gt;3 -->
<g id="edge18" class="edge">
<title>&#45;3&#45;&gt;3</title>
<path fill="none" stroke="#ff0000" stroke-width=".3351" d="M105.5556,-68.366C108.2392,-67.231 111.0843,-66.0513 113.7485,-64.9914 156.4761,-47.9936 169.3292,-48.9666 210.7485,-28.9914 211.5925,-28.5843 212.4453,-28.1566 213.3008,-27.7134"/>
<polygon fill="#ff0000" stroke="#ff0000" stroke-width=".3351" points="215.3118,-30.5971 222.2916,-22.6263 211.8646,-24.5047 215.3118,-30.5971"/>
</g>
<!-- &#45;5 -->
<g id="node5" class="node">
<title>&#45;5</title>
<polygon fill="#d3d3d3" stroke="#000000" points="187.751,-81.9914 163.7461,-81.9914 163.7461,-64.9914 187.751,-64.9914 187.751,-81.9914"/>
<text text-anchor="middle" x="175.7485" y="-70.7914" font-family="Times,serif" font-size="9.00" fill="#000000">&#45;5</text>
</g>
<!-- &#45;4&#45;&gt;&#45;5 -->
<!-- &#45;4&#45;&gt;0 -->
<g id="edge14" class="edge">
<title>&#45;4&#45;&gt;0</title>
<path fill="none" stroke="#00ff00" stroke-width="1.4205" d="M128.6988,-64.7864C123.2547,-56.9526 115.044,-45.1382 107.9487,-34.9285"/>
<polygon fill="#00ff00" stroke="#00ff00" stroke-width="1.4205" points="110.679,-32.7242 102.098,-26.5099 104.9308,-36.719 110.679,-32.7242"/>
</g>
<!-- &#45;6 -->
<g id="node6" class="node">
<title>&#45;6</title>
<polygon fill="#d3d3d3" stroke="#000000" points="228.751,-81.9914 204.7461,-81.9914 204.7461,-64.9914 228.751,-64.9914 228.751,-81.9914"/>
<text text-anchor="middle" x="216.7485" y="-70.7914" font-family="Times,serif" font-size="9.00" fill="#000000">&#45;6</text>
</g>
<!-- &#45;5&#45;&gt;&#45;6 -->
<!-- &#45;7 -->
<g id="node7" class="node">
<title>&#45;7</title>
<polygon fill="#d3d3d3" stroke="#000000" points="269.751,-81.9914 245.7461,-81.9914 245.7461,-64.9914 269.751,-64.9914 269.751,-81.9914"/>
<text text-anchor="middle" x="257.7485" y="-70.7914" font-family="Times,serif" font-size="9.00" fill="#000000">&#45;7</text>
</g>
<!-- &#45;6&#45;&gt;&#45;7 -->
<!-- &#45;6&#45;&gt;3 -->
<g id="edge13" class="edge">
<title>&#45;6&#45;&gt;3</title>
<path fill="none" stroke="#00ff00" stroke-width=".7634" d="M219.4045,-64.7864C221.5303,-57.8191 224.6168,-47.7029 227.4651,-38.3674"/>
<polygon fill="#00ff00" stroke="#00ff00" stroke-width=".7634" points="230.8349,-39.316 230.4056,-28.7299 224.1396,-37.2732 230.8349,-39.316"/>
</g>
<!-- &#45;8 -->
<g id="node8" class="node">
<title>&#45;8</title>
<polygon fill="#d3d3d3" stroke="#000000" points="310.751,-81.9914 286.7461,-81.9914 286.7461,-64.9914 310.751,-64.9914 310.751,-81.9914"/>
<text text-anchor="middle" x="298.7485" y="-70.7914" font-family="Times,serif" font-size="9.00" fill="#000000">&#45;8</text>
</g>
<!-- &#45;7&#45;&gt;&#45;8 -->
<!-- 2 -->
<g id="node12" class="node">
<title>2</title>
<ellipse fill="#add8e6" stroke="#000000" cx="187.7485" cy="-14.4957" rx="14.4914" ry="14.4914"/>
<text text-anchor="middle" x="187.7485" y="-11.7957" font-family="Times,serif" font-size="9.00" fill="#000000">2</text>
</g>
<!-- &#45;7&#45;&gt;2 -->
<g id="edge12" class="edge">
<title>&#45;7&#45;&gt;2</title>
<path fill="none" stroke="#00ff00" stroke-width=".9528" d="M247.4198,-64.7864C236.8128,-55.8468 220.055,-41.7235 206.9951,-30.7166"/>
<polygon fill="#00ff00" stroke="#00ff00" stroke-width=".9528" points="208.9508,-27.7876 199.0487,-24.0194 204.4397,-33.1402 208.9508,-27.7876"/>
</g>
<!-- &#45;9 -->
<g id="node9" class="node">
<title>&#45;9</title>
<polygon fill="#d3d3d3" stroke="#000000" points="351.751,-81.9914 327.7461,-81.9914 327.7461,-64.9914 351.751,-64.9914 351.751,-81.9914"/>
<text text-anchor="middle" x="339.7485" y="-70.7914" font-family="Times,serif" font-size="9.00" fill="#000000">&#45;9</text>
</g>
<!-- &#45;8&#45;&gt;&#45;9 -->
<!-- &#45;9&#45;&gt;1 -->
<g id="edge15" class="edge">
<title>&#45;9&#45;&gt;1</title>
<path fill="none" stroke="#ff0000" stroke-width=".9943" d="M327.6075,-67.9347C325.0432,-66.8737 322.3313,-65.8331 319.7485,-64.9914 252.5067,-43.0776 230.2734,-55.6029 164.7485,-28.9914 163.8804,-28.6388 163.0071,-28.2573 162.1343,-27.8531"/>
<polygon fill="#ff0000" stroke="#ff0000" stroke-width=".9943" points="163.524,-24.6257 153.0628,-22.9479 160.1944,-30.7832 163.524,-24.6257"/>
</g>
<!-- &#45;9&#45;&gt;3 -->
<g id="edge20" class="edge">
<title>&#45;9&#45;&gt;3</title>
<path fill="none" stroke="#00ff00" stroke-width=".1068" d="M327.7037,-66.7238C310.342,-56.9689 278.0032,-38.7989 256.4235,-26.674"/>
<polygon fill="#00ff00" stroke="#00ff00" stroke-width=".1068" points="258.066,-23.5824 247.6335,-21.7353 254.6371,-29.6851 258.066,-23.5824"/>
</g>
<!-- 0&#45;&gt;1 -->
<!-- 1&#45;&gt;2 -->
<!-- 2&#45;&gt;3 -->
</g>
</svg>
