<?xml version="1.0" encoding="UTF-8" standalone="no"?>
<!DOCTYPE svg PUBLIC "-//W3C//DTD SVG 1.1//EN"
 "http://www.w3.org/Graphics/SVG/1.1/DTD/svg11.dtd">
<!-- Generated by graphviz version 2.40.1 (20161225.0304)
 -->
<!-- Title: %3 Pages: 1 -->
<svg width="454pt" height="175pt"
 viewBox="0.00 0.00 454.04 174.79" xmlns="http://www.w3.org/2000/svg" xmlns:xlink="http://www.w3.org/1999/xlink">
<g id="graph0" class="graph" transform="scale(1 1) rotate(0) translate(4 170.7893)">
<title>%3</title>
<polygon fill="#ffffff" stroke="transparent" points="-4,4 -4,-170.7893 450.0404,-170.7893 450.0404,4 -4,4"/>
<!-- E0 -->
<g id="node1" class="node">
<title>E0</title>
<polygon fill="#d3d3d3" stroke="#000000" points="25.9963,-166.7893 .0012,-166.7893 .0012,-149.7893 25.9963,-149.7893 25.9963,-166.7893"/>
<text text-anchor="middle" x="12.9988" y="-155.5893" font-family="Times,serif" font-size="9.00" fill="#000000">E0</text>
</g>
<!-- E1 -->
<g id="node2" class="node">
<title>E1</title>
<polygon fill="#d3d3d3" stroke="#000000" points="69.9963,-166.7893 44.0012,-166.7893 44.0012,-149.7893 69.9963,-149.7893 69.9963,-166.7893"/>
<text text-anchor="middle" x="56.9988" y="-155.5893" font-family="Times,serif" font-size="9.00" fill="#000000">E1</text>
</g>
<!-- E0&#45;&gt;E1 -->
<!-- S -->
<g id="node13" class="node">
<title>S</title>
<ellipse fill="#87cefa" stroke="#000000" cx="293.9988" cy="-14.853" rx="14.7075" ry="14.7075"/>
<text text-anchor="middle" x="293.9988" y="-12.153" font-family="Times,serif" font-size="9.00" fill="#000000">S</text>
</g>
<!-- E0&#45;&gt;S -->
<g id="edge16" class="edge">
<title>E0&#45;&gt;S</title>
<path fill="none" stroke="#00ff00" stroke-width=".7176" d="M26.1751,-151.5635C70.5992,-128.8873 215.2311,-55.0599 271.4035,-26.3868"/>
<polygon fill="#00ff00" stroke="#00ff00" stroke-width=".7176" points="273.2085,-29.3951 280.524,-21.7312 270.026,-23.1604 273.2085,-29.3951"/>
</g>
<!-- E2 -->
<g id="node3" class="node">
<title>E2</title>
<polygon fill="#d3d3d3" stroke="#000000" points="113.9963,-166.7893 88.0012,-166.7893 88.0012,-149.7893 113.9963,-149.7893 113.9963,-166.7893"/>
<text text-anchor="middle" x="100.9988" y="-155.5893" font-family="Times,serif" font-size="9.00" fill="#000000">E2</text>
</g>
<!-- E1&#45;&gt;E2 -->
<!-- E1&#45;&gt;S -->
<g id="edge14" class="edge">
<title>E1&#45;&gt;S</title>
<path fill="none" stroke="#00ff00" stroke-width=".5298" d="M70.3627,-152.6799C73.1827,-151.6227 76.1634,-150.597 78.9988,-149.7893 162.0777,-126.1247 207.3583,-173.2729 269.9988,-113.7893 289.9346,-94.8582 294.5046,-62.4067 295.0215,-39.854"/>
<polygon fill="#00ff00" stroke="#00ff00" stroke-width=".5298" points="298.5213,-39.6727 294.9993,-29.6804 291.5213,-39.6881 298.5213,-39.6727"/>
</g>
<!-- E3 -->
<g id="node4" class="node">
<title>E3</title>
<polygon fill="#d3d3d3" stroke="#000000" points="157.9963,-166.7893 132.0012,-166.7893 132.0012,-149.7893 157.9963,-149.7893 157.9963,-166.7893"/>
<text text-anchor="middle" x="144.9988" y="-155.5893" font-family="Times,serif" font-size="9.00" fill="#000000">E3</text>
</g>
<!-- E2&#45;&gt;E3 -->
<!-- 2 -->
<g id="node12" class="node">
<title>2</title>
<ellipse fill="#87cefa" stroke="#000000" cx="160.9988" cy="-14.853" rx="14.4914" ry="14.4914"/>
<text text-anchor="middle" x="160.9988" y="-12.153" font-family="Times,serif" font-size="9.00" fill="#000000">2</text>
</g>
<!-- E2&#45;&gt;2 -->
<g id="edge24" class="edge">
<title>E2&#45;&gt;2</title>
<path fill="none" stroke="#ff0000" stroke-width=".34" d="M104.5724,-149.7463C113.6327,-128.0867 137.7447,-70.4443 151.3353,-37.9546"/>
<polygon fill="#ff0000" stroke="#ff0000" stroke-width=".34" points="154.7155,-38.9434 155.3457,-28.3674 148.2577,-36.2421 154.7155,-38.9434"/>
</g>
<!-- E4 -->
<g id="node5" class="node">
<title>E4</title>
<polygon fill="#d3d3d3" stroke="#000000" points="201.9963,-166.7893 176.0012,-166.7893 176.0012,-149.7893 201.9963,-149.7893 201.9963,-166.7893"/>
<text text-anchor="middle" x="188.9988" y="-155.5893" font-family="Times,serif" font-size="9.00" fill="#000000">E4</text>
</g>
<!-- E3&#45;&gt;E4 -->
<!-- E3&#45;&gt;2 -->
<g id="edge17" class="edge">
<title>E3&#45;&gt;2</title>
<path fill="none" stroke="#00ff00" stroke-width=".1795" d="M145.9517,-149.7463C148.3211,-128.5056 154.5505,-72.6603 158.2085,-39.8674"/>
<polygon fill="#00ff00" stroke="#00ff00" stroke-width=".1795" points="161.7109,-40.0397 159.3411,-29.7133 154.754,-39.2636 161.7109,-40.0397"/>
</g>
<!-- E3&#45;&gt;S -->
<g id="edge20" class="edge">
<title>E3&#45;&gt;S</title>
<path fill="none" stroke="#00ff00" stroke-width=".4213" d="M158.4048,-152.8192C161.2218,-151.7518 164.1906,-150.6868 166.9988,-149.7893 228.6059,-130.0999 268.3233,-164.8674 307.9988,-113.7893 324.9789,-91.9291 315.353,-58.8835 305.6911,-37.0886"/>
<polygon fill="#00ff00" stroke="#00ff00" stroke-width=".4213" points="308.7996,-35.4753 301.3447,-27.9469 302.4777,-38.481 308.7996,-35.4753"/>
</g>
<!-- E5 -->
<g id="node6" class="node">
<title>E5</title>
<polygon fill="#d3d3d3" stroke="#000000" points="245.9963,-166.7893 220.0012,-166.7893 220.0012,-149.7893 245.9963,-149.7893 245.9963,-166.7893"/>
<text text-anchor="middle" x="232.9988" y="-155.5893" font-family="Times,serif" font-size="9.00" fill="#000000">E5</text>
</g>
<!-- E4&#45;&gt;E5 -->
<!-- 0 -->
<g id="node10" class="node">
<title>0</title>
<ellipse fill="#87cefa" stroke="#000000" cx="27.9988" cy="-14.853" rx="14.4914" ry="14.4914"/>
<text text-anchor="middle" x="27.9988" y="-12.153" font-family="Times,serif" font-size="9.00" fill="#000000">0</text>
</g>
<!-- E4&#45;&gt;0 -->
<g id="edge21" class="edge">
<title>E4&#45;&gt;0</title>
<path fill="none" stroke="#ff0000" stroke-width=".3494" d="M175.6057,-152.778C172.7878,-151.7137 169.8153,-150.6603 166.9988,-149.7893 100.2596,-129.1523 57.3709,-168.5512 13.9988,-113.7893 -3.2804,-91.9725 6.5955,-58.6451 16.3775,-36.802"/>
<polygon fill="#ff0000" stroke="#ff0000" stroke-width=".3494" points="19.5953,-38.1865 20.7675,-27.6568 13.2846,-35.1573 19.5953,-38.1865"/>
</g>
<!-- E4&#45;&gt;2 -->
<g id="edge18" class="edge">
<title>E4&#45;&gt;2</title>
<path fill="none" stroke="#ff0000" stroke-width=".9151" d="M187.3311,-149.7463C183.1636,-128.3972 172.1718,-72.0896 165.7842,-39.3672"/>
<polygon fill="#ff0000" stroke="#ff0000" stroke-width=".9151" points="169.1621,-38.403 163.8109,-29.2589 162.2918,-39.7442 169.1621,-38.403"/>
</g>
<!-- E6 -->
<g id="node7" class="node">
<title>E6</title>
<polygon fill="#d3d3d3" stroke="#000000" points="289.9963,-166.7893 264.0012,-166.7893 264.0012,-149.7893 289.9963,-149.7893 289.9963,-166.7893"/>
<text text-anchor="middle" x="276.9988" y="-155.5893" font-family="Times,serif" font-size="9.00" fill="#000000">E6</text>
</g>
<!-- E5&#45;&gt;E6 -->
<!-- E7 -->
<g id="node8" class="node">
<title>E7</title>
<polygon fill="#d3d3d3" stroke="#000000" points="333.9963,-166.7893 308.0012,-166.7893 308.0012,-149.7893 333.9963,-149.7893 333.9963,-166.7893"/>
<text text-anchor="middle" x="320.9988" y="-155.5893" font-family="Times,serif" font-size="9.00" fill="#000000">E7</text>
</g>
<!-- E6&#45;&gt;E7 -->
<!-- E6&#45;&gt;0 -->
<g id="edge19" class="edge">
<title>E6&#45;&gt;0</title>
<path fill="none" stroke="#ff0000" stroke-width=".5386" d="M263.5379,-152.9804C260.7249,-151.9014 257.7716,-150.7909 254.9988,-149.7893 207.8079,-132.7437 191.8616,-138.1529 147.9988,-113.7893 107.6355,-91.3696 67.6532,-54.7576 45.5523,-32.9166"/>
<polygon fill="#ff0000" stroke="#ff0000" stroke-width=".5386" points="47.7898,-30.2036 38.2513,-25.5919 42.832,-35.1453 47.7898,-30.2036"/>
</g>
<!-- 1 -->
<g id="node11" class="node">
<title>1</title>
<ellipse fill="#87cefa" stroke="#000000" cx="74.9988" cy="-14.853" rx="14.4914" ry="14.4914"/>
<text text-anchor="middle" x="74.9988" y="-12.153" font-family="Times,serif" font-size="9.00" fill="#000000">1</text>
</g>
<!-- E6&#45;&gt;1 -->
<g id="edge13" class="edge">
<title>E6&#45;&gt;1</title>
<path fill="none" stroke="#ff0000" stroke-width="3.2011" d="M264.9677,-149.7463C231.4961,-125.9787 137.0069,-58.8838 95.2596,-29.2399"/>
<polygon fill="#ff0000" stroke="#ff0000" stroke-width="3.2011" points="97.1468,-26.2873 86.9668,-23.3513 93.094,-31.9948 97.1468,-26.2873"/>
</g>
<!-- E6&#45;&gt;S -->
<g id="edge15" class="edge">
<title>E6&#45;&gt;S</title>
<path fill="none" stroke="#00ff00" stroke-width="1.201" d="M290.0087,-151.8304C308.2411,-142.4778 339.8596,-125.0539 345.9988,-113.7893 356.2255,-95.0248 354.2868,-85.4038 345.9988,-65.7061 339.6768,-50.681 326.5077,-37.8779 315.0048,-28.8766"/>
<polygon fill="#00ff00" stroke="#00ff00" stroke-width="1.201" points="316.8063,-25.8573 306.6741,-22.7605 312.6636,-31.4999 316.8063,-25.8573"/>
</g>
<!-- E8 -->
<g id="node9" class="node">
<title>E8</title>
<polygon fill="#d3d3d3" stroke="#000000" points="407.9963,-166.7893 382.0012,-166.7893 382.0012,-149.7893 407.9963,-149.7893 407.9963,-166.7893"/>
<text text-anchor="middle" x="394.9988" y="-155.5893" font-family="Times,serif" font-size="9.00" fill="#000000">E8</text>
</g>
<!-- E7&#45;&gt;E8 -->
<!-- E7&#45;&gt;0 -->
<g id="edge12" class="edge">
<title>E7&#45;&gt;0</title>
<path fill="none" stroke="#00ff00" stroke-width="1.5352" d="M307.6099,-151.6914C276.514,-136.3912 196.9529,-97.3809 129.9988,-65.7061 95.4853,-49.3784 85.6276,-47.7859 51.9988,-29.7061 51.168,-29.2594 50.3264,-28.7959 49.4804,-28.3207"/>
<polygon fill="#00ff00" stroke="#00ff00" stroke-width="1.5352" points="50.9193,-25.1047 40.5337,-23.0093 47.3459,-31.1239 50.9193,-25.1047"/>
</g>
<!-- 5601 -->
<g id="node14" class="node">
<title>5601</title>
<ellipse fill="#add8e6" stroke="#000000" cx="421.9988" cy="-89.7477" rx="24.0833" ry="24.0833"/>
<text text-anchor="middle" x="421.9988" y="-91.5477" font-family="Times,serif" font-size="9.00" fill="#000000">5601</text>
<text text-anchor="middle" x="421.9988" y="-82.5477" font-family="Times,serif" font-size="9.00" fill="#000000">sigm</text>
</g>
<!-- E8&#45;&gt;5601 -->
<g id="edge22" class="edge">
<title>E8&#45;&gt;5601</title>
<path fill="none" stroke="#00ff00" stroke-width=".3915" d="M398.4183,-149.6085C401.2142,-142.5109 405.3503,-132.0111 409.3811,-121.7788"/>
<polygon fill="#00ff00" stroke="#00ff00" stroke-width=".3915" points="412.7574,-122.757 413.1661,-112.1701 406.2445,-120.1914 412.7574,-122.757"/>
</g>
<!-- 0&#45;&gt;1 -->
<!-- 1&#45;&gt;2 -->
<!-- 2&#45;&gt;S -->
<!-- 5601&#45;&gt;2 -->
<g id="edge23" class="edge">
<title>5601&#45;&gt;2</title>
<path fill="none" stroke="#00ff00" stroke-width=".1718" d="M398.8368,-83.1013C349.5551,-68.9598 234.747,-36.0153 184.8558,-21.6989"/>
<polygon fill="#00ff00" stroke="#00ff00" stroke-width=".1718" points="185.5511,-18.2572 174.9736,-18.8631 183.6203,-24.9857 185.5511,-18.2572"/>
</g>
</g>
</svg>
