<?xml version="1.0" encoding="UTF-8" standalone="no"?>
<!DOCTYPE svg PUBLIC "-//W3C//DTD SVG 1.1//EN"
 "http://www.w3.org/Graphics/SVG/1.1/DTD/svg11.dtd">
<!-- Generated by graphviz version 2.40.1 (20161225.0304)
 -->
<!-- Title: %3 Pages: 1 -->
<svg width="386pt" height="91pt"
 viewBox="0.00 0.00 386.00 90.71" xmlns="http://www.w3.org/2000/svg" xmlns:xlink="http://www.w3.org/1999/xlink">
<g id="graph0" class="graph" transform="scale(1 1) rotate(0) translate(4 86.7061)">
<title>%3</title>
<polygon fill="#ffffff" stroke="transparent" points="-4,4 -4,-86.7061 381.9976,-86.7061 381.9976,4 -4,4"/>
<!-- E0 -->
<g id="node1" class="node">
<title>E0</title>
<polygon fill="#d3d3d3" stroke="#000000" points="25.9963,-82.7061 .0012,-82.7061 .0012,-65.7061 25.9963,-65.7061 25.9963,-82.7061"/>
<text text-anchor="middle" x="12.9988" y="-71.5061" font-family="Times,serif" font-size="9.00" fill="#000000">E0</text>
</g>
<!-- E1 -->
<g id="node2" class="node">
<title>E1</title>
<polygon fill="#d3d3d3" stroke="#000000" points="69.9963,-82.7061 44.0012,-82.7061 44.0012,-65.7061 69.9963,-65.7061 69.9963,-82.7061"/>
<text text-anchor="middle" x="56.9988" y="-71.5061" font-family="Times,serif" font-size="9.00" fill="#000000">E1</text>
</g>
<!-- E0&#45;&gt;E1 -->
<!-- 2 -->
<g id="node12" class="node">
<title>2</title>
<ellipse fill="#87cefa" stroke="#000000" cx="188.9988" cy="-14.853" rx="14.4914" ry="14.4914"/>
<text text-anchor="middle" x="188.9988" y="-12.153" font-family="Times,serif" font-size="9.00" fill="#000000">2</text>
</g>
<!-- E0&#45;&gt;2 -->
<g id="edge18" class="edge">
<title>E0&#45;&gt;2</title>
<path fill="none" stroke="#ff0000" stroke-width=".1329" d="M26.4191,-68.7797C29.235,-67.7092 32.1998,-66.6318 34.9988,-65.7061 91.9184,-46.8799 110.0673,-53.7228 164.9988,-29.7061 165.863,-29.3282 166.733,-28.9232 167.603,-28.4972"/>
<polygon fill="#ff0000" stroke="#ff0000" stroke-width=".1329" points="169.6524,-31.3607 176.6615,-23.4156 166.2276,-25.2557 169.6524,-31.3607"/>
</g>
<!-- S -->
<g id="node13" class="node">
<title>S</title>
<ellipse fill="#87cefa" stroke="#000000" cx="235.9988" cy="-14.853" rx="14.7075" ry="14.7075"/>
<text text-anchor="middle" x="235.9988" y="-12.153" font-family="Times,serif" font-size="9.00" fill="#000000">S</text>
</g>
<!-- E0&#45;&gt;S -->
<g id="edge19" class="edge">
<title>E0&#45;&gt;S</title>
<path fill="none" stroke="#ff0000" stroke-width=".1488" d="M26.3718,-68.6281C29.1912,-67.5686 32.1693,-66.534 34.9988,-65.7061 112.0452,-43.1606 137.3715,-59.29 211.9988,-29.7061 212.8757,-29.3585 213.7564,-28.9791 214.6354,-28.5749"/>
<polygon fill="#ff0000" stroke="#ff0000" stroke-width=".1488" points="216.644,-31.4655 223.7359,-23.5943 213.2834,-25.3249 216.644,-31.4655"/>
</g>
<!-- E2 -->
<g id="node3" class="node">
<title>E2</title>
<polygon fill="#d3d3d3" stroke="#000000" points="113.9963,-82.7061 88.0012,-82.7061 88.0012,-65.7061 113.9963,-65.7061 113.9963,-82.7061"/>
<text text-anchor="middle" x="100.9988" y="-71.5061" font-family="Times,serif" font-size="9.00" fill="#000000">E2</text>
</g>
<!-- E1&#45;&gt;E2 -->
<!-- E1&#45;&gt;S -->
<g id="edge15" class="edge">
<title>E1&#45;&gt;S</title>
<path fill="none" stroke="#ff0000" stroke-width="2.2514" d="M70.4149,-68.7671C73.2311,-67.6975 76.1971,-66.6237 78.9988,-65.7061 137.195,-46.645 155.8179,-54.0748 211.9988,-29.7061 212.8641,-29.3307 213.7351,-28.9278 214.6058,-28.5037"/>
<polygon fill="#ff0000" stroke="#ff0000" stroke-width="2.2514" points="216.6519,-31.3694 223.6679,-23.4305 213.2325,-25.2614 216.6519,-31.3694"/>
</g>
<!-- E3 -->
<g id="node4" class="node">
<title>E3</title>
<polygon fill="#d3d3d3" stroke="#000000" points="157.9963,-82.7061 132.0012,-82.7061 132.0012,-65.7061 157.9963,-65.7061 157.9963,-82.7061"/>
<text text-anchor="middle" x="144.9988" y="-71.5061" font-family="Times,serif" font-size="9.00" fill="#000000">E3</text>
</g>
<!-- E2&#45;&gt;E3 -->
<!-- 1 -->
<g id="node11" class="node">
<title>1</title>
<ellipse fill="#87cefa" stroke="#000000" cx="141.9988" cy="-14.853" rx="14.4914" ry="14.4914"/>
<text text-anchor="middle" x="141.9988" y="-12.153" font-family="Times,serif" font-size="9.00" fill="#000000">1</text>
</g>
<!-- E2&#45;&gt;1 -->
<g id="edge14" class="edge">
<title>E2&#45;&gt;1</title>
<path fill="none" stroke="#ff0000" stroke-width="3.0096" d="M106.8731,-65.7022C112.2848,-57.868 120.5339,-45.9263 127.6784,-35.5837"/>
<polygon fill="#ff0000" stroke="#ff0000" stroke-width="3.0096" points="130.7695,-37.267 133.5734,-27.0499 125.01,-33.2884 130.7695,-37.267"/>
</g>
<!-- E4 -->
<g id="node5" class="node">
<title>E4</title>
<polygon fill="#d3d3d3" stroke="#000000" points="201.9963,-82.7061 176.0012,-82.7061 176.0012,-65.7061 201.9963,-65.7061 201.9963,-82.7061"/>
<text text-anchor="middle" x="188.9988" y="-71.5061" font-family="Times,serif" font-size="9.00" fill="#000000">E4</text>
</g>
<!-- E3&#45;&gt;E4 -->
<!-- E3&#45;&gt;1 -->
<g id="edge17" class="edge">
<title>E3&#45;&gt;1</title>
<path fill="none" stroke="#ff0000" stroke-width=".1028" d="M144.569,-65.7022C144.2289,-58.9749 143.7358,-49.2187 143.2722,-40.0472"/>
<polygon fill="#ff0000" stroke="#ff0000" stroke-width=".1028" points="146.753,-39.5762 142.7525,-29.7657 139.7619,-39.9296 146.753,-39.5762"/>
</g>
<!-- E5 -->
<g id="node6" class="node">
<title>E5</title>
<polygon fill="#d3d3d3" stroke="#000000" points="245.9963,-82.7061 220.0012,-82.7061 220.0012,-65.7061 245.9963,-65.7061 245.9963,-82.7061"/>
<text text-anchor="middle" x="232.9988" y="-71.5061" font-family="Times,serif" font-size="9.00" fill="#000000">E5</text>
</g>
<!-- E4&#45;&gt;E5 -->
<!-- E4&#45;&gt;2 -->
<g id="edge12" class="edge">
<title>E4&#45;&gt;2</title>
<path fill="none" stroke="#ff0000" stroke-width="1.4021" d="M188.9988,-65.7022C188.9988,-58.9749 188.9988,-49.2187 188.9988,-40.0472"/>
<polygon fill="#ff0000" stroke="#ff0000" stroke-width="1.4021" points="192.4989,-39.7656 188.9988,-29.7657 185.4989,-39.7657 192.4989,-39.7656"/>
</g>
<!-- E6 -->
<g id="node7" class="node">
<title>E6</title>
<polygon fill="#d3d3d3" stroke="#000000" points="289.9963,-82.7061 264.0012,-82.7061 264.0012,-65.7061 289.9963,-65.7061 289.9963,-82.7061"/>
<text text-anchor="middle" x="276.9988" y="-71.5061" font-family="Times,serif" font-size="9.00" fill="#000000">E6</text>
</g>
<!-- E5&#45;&gt;E6 -->
<!-- E7 -->
<g id="node8" class="node">
<title>E7</title>
<polygon fill="#d3d3d3" stroke="#000000" points="333.9963,-82.7061 308.0012,-82.7061 308.0012,-65.7061 333.9963,-65.7061 333.9963,-82.7061"/>
<text text-anchor="middle" x="320.9988" y="-71.5061" font-family="Times,serif" font-size="9.00" fill="#000000">E7</text>
</g>
<!-- E6&#45;&gt;E7 -->
<!-- 0 -->
<g id="node10" class="node">
<title>0</title>
<ellipse fill="#87cefa" stroke="#000000" cx="94.9988" cy="-14.853" rx="14.4914" ry="14.4914"/>
<text text-anchor="middle" x="94.9988" y="-12.153" font-family="Times,serif" font-size="9.00" fill="#000000">0</text>
</g>
<!-- E6&#45;&gt;0 -->
<g id="edge20" class="edge">
<title>E6&#45;&gt;0</title>
<path fill="none" stroke="#ff0000" stroke-width=".2935" d="M263.5866,-68.755C260.7701,-67.6863 257.803,-66.6159 254.9988,-65.7061 195.5246,-46.4097 176.4303,-54.4275 118.9988,-29.7061 118.1324,-29.3331 117.2606,-28.9323 116.3891,-28.5099"/>
<polygon fill="#ff0000" stroke="#ff0000" stroke-width=".2935" points="117.7605,-25.2669 107.3235,-23.4447 114.3462,-31.3778 117.7605,-25.2669"/>
</g>
<!-- E6&#45;&gt;S -->
<g id="edge16" class="edge">
<title>E6&#45;&gt;S</title>
<path fill="none" stroke="#ff0000" stroke-width=".7737" d="M271.1245,-65.7022C265.7813,-57.9672 257.672,-46.228 250.591,-35.9772"/>
<polygon fill="#ff0000" stroke="#ff0000" stroke-width=".7737" points="253.2917,-33.7288 244.7283,-27.4902 247.5322,-37.7073 253.2917,-33.7288"/>
</g>
<!-- E8 -->
<g id="node9" class="node">
<title>E8</title>
<polygon fill="#d3d3d3" stroke="#000000" points="377.9963,-82.7061 352.0012,-82.7061 352.0012,-65.7061 377.9963,-65.7061 377.9963,-82.7061"/>
<text text-anchor="middle" x="364.9988" y="-71.5061" font-family="Times,serif" font-size="9.00" fill="#000000">E8</text>
</g>
<!-- E7&#45;&gt;E8 -->
<!-- E7&#45;&gt;0 -->
<g id="edge13" class="edge">
<title>E7&#45;&gt;0</title>
<path fill="none" stroke="#00ff00" stroke-width=".6946" d="M307.6278,-68.621C304.8083,-67.562 301.8296,-66.5294 298.9988,-65.7061 220.6608,-42.9211 194.89,-59.6481 118.9988,-29.7061 118.1213,-29.3599 117.2402,-28.9818 116.3608,-28.5785"/>
<polygon fill="#00ff00" stroke="#00ff00" stroke-width=".6946" points="117.7117,-25.3282 107.2583,-23.6028 114.3541,-31.4705 117.7117,-25.3282"/>
</g>
<!-- 0&#45;&gt;1 -->
<!-- 1&#45;&gt;2 -->
<!-- 2&#45;&gt;S -->
</g>
</svg>
