<?xml version="1.0" encoding="utf-8" standalone="no"?>
<!DOCTYPE svg PUBLIC "-//W3C//DTD SVG 1.1//EN"
  "http://www.w3.org/Graphics/SVG/1.1/DTD/svg11.dtd">
<!-- Created with matplotlib (https://matplotlib.org/) -->
<svg height="345.6pt" version="1.1" viewBox="0 0 460.8 345.6" width="460.8pt" xmlns="http://www.w3.org/2000/svg" xmlns:xlink="http://www.w3.org/1999/xlink">
 <defs>
  <style type="text/css">
*{stroke-linecap:butt;stroke-linejoin:round;}
  </style>
 </defs>
 <g id="figure_1">
  <g id="patch_1">
   <path d="M 0 345.6 
L 460.8 345.6 
L 460.8 0 
L 0 0 
z
" style="fill:#ffffff;"/>
  </g>
  <g id="axes_1">
   <g id="patch_2">
    <path d="M 57.6 307.584 
L 414.72 307.584 
L 414.72 41.472 
L 57.6 41.472 
z
" style="fill:#ffffff;"/>
   </g>
   <g id="PolyCollection_1">
    <path clip-path="url(#pd7e917419f)" d="M 73.832727 53.568 
L 73.832727 64.497844 
L 74.918528 89.756796 
L 76.00433 109.931267 
L 77.090131 127.476006 
L 78.175932 114.484828 
L 79.261733 118.937265 
L 80.347534 129.181321 
L 81.433335 130.690428 
L 82.519137 130.559304 
L 83.604938 164.528509 
L 84.690739 157.232178 
L 85.77654 173.542855 
L 86.862341 155.981256 
L 87.948142 189.609529 
L 89.033943 192.209952 
L 90.119745 166.79964 
L 91.205546 152.971825 
L 92.291347 148.010752 
L 93.377148 119.589923 
L 94.462949 109.059079 
L 95.54875 123.908478 
L 96.634552 126.101485 
L 97.720353 166.016001 
L 98.806154 133.218526 
L 99.891955 126.199371 
L 100.977756 114.728722 
L 102.063557 131.845922 
L 103.149358 121.232505 
L 104.23516 135.091828 
L 105.320961 157.275257 
L 106.406762 145.297988 
L 107.492563 159.896879 
L 108.578364 176.972707 
L 109.664165 154.818647 
L 110.749967 167.832282 
L 111.835768 210.599917 
L 112.921569 228.877598 
L 114.00737 189.84473 
L 115.093171 195.491269 
L 116.178972 199.574381 
L 117.264773 230.205317 
L 118.350575 234.358444 
L 119.436376 268.410718 
L 120.522177 191.8584 
L 121.607978 295.488 
L 122.693779 253.468128 
L 123.77958 260.762039 
L 124.865382 273.821911 
L 125.951183 199.030345 
L 127.036984 221.250251 
L 128.122785 207.378891 
L 129.208586 237.025102 
L 130.294387 240.104758 
L 131.380189 261.664937 
L 132.46599 220.406809 
L 133.551791 210.959714 
L 134.637592 218.296349 
L 135.723393 198.669412 
L 136.809194 228.425031 
L 137.894995 217.032457 
L 138.980797 196.841793 
L 140.066598 185.105305 
L 141.152399 123.200454 
L 142.2382 142.417765 
L 143.324001 145.577186 
L 144.409802 155.678546 
L 145.495604 150.720464 
L 146.581405 150.577338 
L 147.667206 135.394009 
L 148.753007 183.387692 
L 149.838808 148.880734 
L 150.924609 170.403224 
L 152.01041 167.406613 
L 153.096212 165.362973 
L 154.182013 182.262367 
L 155.267814 176.136205 
L 156.353615 177.495518 
L 157.439416 171.337817 
L 158.525217 151.754652 
L 159.611019 154.434227 
L 160.69682 159.060392 
L 161.782621 154.722087 
L 162.868422 161.747355 
L 163.954223 151.296122 
L 165.040024 178.753542 
L 166.125825 148.031543 
L 167.211627 130.530997 
L 168.297428 152.504184 
L 169.383229 146.883112 
L 170.46903 125.604887 
L 171.554831 155.575659 
L 172.640632 150.315404 
L 173.726434 164.522205 
L 174.812235 151.653534 
L 175.898036 180.569449 
L 176.983837 175.593112 
L 178.069638 161.062205 
L 179.155439 134.212693 
L 180.24124 122.202795 
L 181.327042 146.309681 
L 182.412843 141.564022 
L 183.498644 165.311004 
L 184.584445 152.339379 
L 185.670246 158.69476 
L 186.756047 134.345339 
L 187.841849 127.177429 
L 188.92765 111.658659 
L 190.013451 133.544776 
L 191.099252 104.325924 
L 192.185053 117.938758 
L 193.270854 158.063605 
L 194.356656 177.418529 
L 195.442457 156.5824 
L 196.528258 168.914909 
L 197.614059 147.365357 
L 198.69986 146.592 
L 199.785661 143.026673 
L 200.871462 155.857491 
L 201.957264 161.556009 
L 203.043065 164.996075 
L 204.128866 152.299046 
L 205.214667 166.985302 
L 206.300468 161.807751 
L 207.386269 169.674425 
L 208.472071 204.869532 
L 209.557872 133.751505 
L 210.643673 124.426383 
L 211.729474 141.210535 
L 212.815275 144.594331 
L 213.901076 154.769932 
L 214.986877 161.029094 
L 216.072679 157.596873 
L 217.15848 150.41059 
L 218.244281 151.075541 
L 219.330082 154.800181 
L 220.415883 178.82452 
L 221.501684 157.349208 
L 222.587486 161.277645 
L 223.673287 181.747166 
L 224.759088 170.920346 
L 225.844889 204.744167 
L 226.93069 188.058283 
L 228.016491 178.760933 
L 229.102292 171.504632 
L 230.188094 143.829713 
L 231.273895 138.300474 
L 232.359696 129.835981 
L 233.445497 146.992128 
L 234.531298 150.182879 
L 235.617099 148.907871 
L 236.702901 142.031105 
L 237.788702 144.596541 
L 238.874503 171.210498 
L 239.960304 222.834892 
L 241.046105 222.921239 
L 242.131906 235.83647 
L 243.217708 237.984878 
L 244.303509 215.168653 
L 245.38931 212.047779 
L 246.475111 216.355732 
L 247.560912 225.352683 
L 248.646713 222.208883 
L 249.732514 218.009494 
L 250.818316 206.728928 
L 251.904117 235.584948 
L 252.989918 194.547206 
L 254.075719 195.989487 
L 255.16152 195.122043 
L 256.247321 199.39585 
L 257.333123 192.485091 
L 258.418924 210.152161 
L 259.504725 232.535874 
L 260.590526 220.734001 
L 261.676327 227.499317 
L 262.762128 239.45841 
L 263.847929 198.518221 
L 264.933731 206.837264 
L 266.019532 193.549444 
L 267.105333 194.94676 
L 268.191134 213.725309 
L 269.276935 218.293793 
L 270.362736 223.03897 
L 271.448538 228.279971 
L 272.534339 232.184865 
L 273.62014 206.658614 
L 274.705941 195.44596 
L 275.791742 175.292191 
L 276.877543 186.400355 
L 277.963344 154.638565 
L 279.049146 150.810289 
L 280.134947 167.511252 
L 281.220748 190.117301 
L 282.306549 182.260671 
L 283.39235 210.174427 
L 284.478151 215.945553 
L 285.563953 234.232431 
L 286.649754 225.582785 
L 287.735555 233.711043 
L 288.821356 214.100891 
L 289.907157 211.888291 
L 290.992958 177.90316 
L 292.07876 196.596733 
L 293.164561 183.995247 
L 294.250362 171.448504 
L 295.336163 188.742554 
L 296.421964 177.953581 
L 297.507765 226.514699 
L 298.593566 234.756301 
L 299.679368 249.969529 
L 300.765169 225.36031 
L 301.85097 212.493267 
L 302.936771 211.803268 
L 304.022572 196.929461 
L 305.108373 226.151032 
L 306.194175 237.679265 
L 307.279976 251.9908 
L 308.365777 201.159104 
L 309.451578 233.97062 
L 310.537379 201.689491 
L 311.62318 210.731474 
L 312.708981 208.149208 
L 313.794783 202.054915 
L 314.880584 245.725841 
L 315.966385 225.142556 
L 317.052186 252.257496 
L 318.137987 251.849017 
L 319.223788 243.495568 
L 320.30959 266.208298 
L 321.395391 268.523204 
L 322.481192 238.233429 
L 323.566993 240.176003 
L 324.652794 224.542684 
L 325.738595 245.56994 
L 326.824396 270.683724 
L 327.910198 229.100554 
L 328.995999 192.028341 
L 330.0818 196.777124 
L 331.167601 216.051099 
L 332.253402 213.694311 
L 333.339203 201.939025 
L 334.425005 207.481489 
L 335.510806 275.649246 
L 336.596607 237.4387 
L 337.682408 185.109255 
L 338.768209 183.683712 
L 339.85401 166.430793 
L 340.939811 157.767427 
L 342.025613 161.651755 
L 343.111414 174.457167 
L 344.197215 172.445933 
L 345.283016 182.149419 
L 346.368817 144.63342 
L 347.454618 143.434373 
L 348.54042 149.996211 
L 349.626221 176.685294 
L 350.712022 178.921009 
L 351.797823 162.773742 
L 352.883624 151.782888 
L 353.969425 177.737574 
L 355.055227 205.669867 
L 356.141028 195.241504 
L 357.226829 187.413003 
L 358.31263 190.13523 
L 359.398431 191.385553 
L 360.484232 205.664011 
L 361.570033 215.414444 
L 362.655835 215.978465 
L 363.741636 228.383904 
L 364.827437 214.835422 
L 365.913238 219.277324 
L 366.999039 214.405606 
L 368.08484 216.899434 
L 369.170642 216.067949 
L 370.256443 235.926293 
L 371.342244 217.745254 
L 372.428045 221.673169 
L 373.513846 209.619714 
L 374.599647 209.69071 
L 375.685448 213.996268 
L 376.77125 232.834325 
L 377.857051 237.850452 
L 378.942852 215.463752 
L 380.028653 211.547749 
L 381.114454 206.153415 
L 382.200255 226.373286 
L 383.286057 254.994731 
L 384.371858 273.259556 
L 385.457659 236.748676 
L 386.54346 255.574619 
L 387.629261 225.525848 
L 388.715062 235.502465 
L 389.800863 235.211649 
L 390.886665 267.88952 
L 391.972466 267.16632 
L 393.058267 289.268913 
L 394.144068 238.316217 
L 395.229869 272.267309 
L 396.31567 227.546434 
L 397.401472 212.66761 
L 398.487273 244.407524 
L 398.487273 197.756887 
L 398.487273 197.756887 
L 397.401472 174.996479 
L 396.31567 183.162302 
L 395.229869 214.692534 
L 394.144068 181.711957 
L 393.058267 219.498686 
L 391.972466 210.971962 
L 390.886665 206.691785 
L 389.800863 181.598288 
L 388.715062 177.342321 
L 387.629261 191.030032 
L 386.54346 205.878912 
L 385.457659 193.983752 
L 384.371858 221.817777 
L 383.286057 195.004461 
L 382.200255 178.554666 
L 381.114454 170.859148 
L 380.028653 165.4977 
L 378.942852 152.767217 
L 377.857051 179.535923 
L 376.77125 182.502427 
L 375.685448 160.788292 
L 374.599647 156.232235 
L 373.513846 155.769864 
L 372.428045 159.192767 
L 371.342244 158.905633 
L 370.256443 164.564109 
L 369.170642 160.862784 
L 368.08484 157.991793 
L 366.999039 168.662369 
L 365.913238 164.001126 
L 364.827437 164.713388 
L 363.741636 177.726892 
L 362.655835 181.860588 
L 361.570033 178.474652 
L 360.484232 167.911926 
L 359.398431 175.921962 
L 358.31263 169.443415 
L 357.226829 176.195617 
L 356.141028 170.794608 
L 355.055227 182.699381 
L 353.969425 174.402969 
L 352.883624 122.566221 
L 351.797823 153.304871 
L 350.712022 155.817399 
L 349.626221 155.536424 
L 348.54042 136.654717 
L 347.454618 124.020398 
L 346.368817 131.685793 
L 345.283016 147.805554 
L 344.197215 142.820088 
L 343.111414 144.831139 
L 342.025613 135.847685 
L 340.939811 135.265549 
L 339.85401 149.154876 
L 338.768209 169.80391 
L 337.682408 161.872793 
L 336.596607 216.933452 
L 335.510806 232.064814 
L 334.425005 197.588159 
L 333.339203 175.871045 
L 332.253402 179.437911 
L 331.167601 210.504504 
L 330.0818 175.516195 
L 328.995999 166.576252 
L 327.910198 196.902324 
L 326.824396 247.308921 
L 325.738595 233.948411 
L 324.652794 210.813485 
L 323.566993 217.622439 
L 322.481192 194.424061 
L 321.395391 226.918393 
L 320.30959 236.44378 
L 319.223788 231.045762 
L 318.137987 238.582313 
L 317.052186 230.423501 
L 315.966385 198.993637 
L 314.880584 219.053674 
L 313.794783 173.87641 
L 312.708981 175.303598 
L 311.62318 182.524284 
L 310.537379 180.417885 
L 309.451578 203.410041 
L 308.365777 180.654819 
L 307.279976 234.284223 
L 306.194175 203.600424 
L 305.108373 181.833453 
L 304.022572 173.784813 
L 302.936771 191.106905 
L 301.85097 191.908327 
L 300.765169 202.018252 
L 299.679368 203.865816 
L 298.593566 199.539695 
L 297.507765 190.252367 
L 296.421964 173.918072 
L 295.336163 163.707481 
L 294.250362 152.425109 
L 293.164561 158.826717 
L 292.07876 179.192668 
L 290.992958 165.308542 
L 289.907157 191.432899 
L 288.821356 203.314623 
L 287.735555 202.729387 
L 286.649754 202.852905 
L 285.563953 208.745049 
L 284.478151 179.305004 
L 283.39235 186.152641 
L 282.306549 171.829087 
L 281.220748 162.16959 
L 280.134947 135.274999 
L 279.049146 127.853555 
L 277.963344 128.401703 
L 276.877543 168.452621 
L 275.791742 170.256241 
L 274.705941 184.330698 
L 273.62014 184.607639 
L 272.534339 197.25997 
L 271.448538 202.333101 
L 270.362736 198.515138 
L 269.276935 196.716585 
L 268.191134 195.110047 
L 267.105333 168.355905 
L 266.019532 171.352752 
L 264.933731 180.406452 
L 263.847929 168.883469 
L 262.762128 213.63474 
L 261.676327 211.245436 
L 260.590526 202.119226 
L 259.504725 202.570187 
L 258.418924 198.957014 
L 257.333123 183.430155 
L 256.247321 194.417393 
L 255.16152 178.561583 
L 254.075719 190.156552 
L 252.989918 185.574855 
L 251.904117 218.939847 
L 250.818316 190.333705 
L 249.732514 202.369015 
L 248.646713 208.057009 
L 247.560912 206.365721 
L 246.475111 197.880604 
L 245.38931 202.097942 
L 244.303509 205.256474 
L 243.217708 225.296926 
L 242.131906 209.089664 
L 241.046105 205.485103 
L 239.960304 199.988699 
L 238.874503 165.643926 
L 237.788702 130.540315 
L 236.702901 135.42889 
L 235.617099 133.762687 
L 234.531298 144.838558 
L 233.445497 126.336922 
L 232.359696 112.111106 
L 231.273895 125.020628 
L 230.188094 131.978945 
L 229.102292 158.071013 
L 228.016491 160.199072 
L 226.93069 177.181451 
L 225.844889 187.911318 
L 224.759088 158.218292 
L 223.673287 170.065012 
L 222.587486 152.908422 
L 221.501684 143.583452 
L 220.415883 159.732522 
L 219.330082 136.740002 
L 218.244281 138.308701 
L 217.15848 144.759405 
L 216.072679 145.537045 
L 214.986877 141.102694 
L 213.901076 138.786585 
L 212.815275 130.541822 
L 211.729474 126.038455 
L 210.643673 110.460375 
L 209.557872 114.626253 
L 208.472071 182.097562 
L 207.386269 145.649326 
L 206.300468 141.733844 
L 205.214667 131.36105 
L 204.128866 133.798951 
L 203.043065 127.326856 
L 201.957264 127.321555 
L 200.871462 128.24854 
L 199.785661 124.176915 
L 198.69986 129.872787 
L 197.614059 129.94313 
L 196.528258 147.669333 
L 195.442457 128.611825 
L 194.356656 156.923251 
L 193.270854 138.288564 
L 192.185053 107.903908 
L 191.099252 97.86439 
L 190.013451 119.95633 
L 188.92765 104.654278 
L 187.841849 118.308666 
L 186.756047 132.701048 
L 185.670246 134.034146 
L 184.584445 129.734318 
L 183.498644 151.747576 
L 182.412843 123.437486 
L 181.327042 130.514009 
L 180.24124 115.013379 
L 179.155439 107.975267 
L 178.069638 149.324494 
L 176.983837 166.630967 
L 175.898036 148.370437 
L 174.812235 128.325768 
L 173.726434 145.179731 
L 172.640632 126.532149 
L 171.554831 130.930685 
L 170.46903 105.013326 
L 169.383229 123.776254 
L 168.297428 144.240145 
L 167.211627 115.154102 
L 166.125825 137.359566 
L 165.040024 152.822633 
L 163.954223 127.687796 
L 162.868422 133.570204 
L 161.782621 142.104462 
L 160.69682 129.251113 
L 159.611019 139.369865 
L 158.525217 147.727831 
L 157.439416 164.813173 
L 156.353615 165.084534 
L 155.267814 152.961116 
L 154.182013 167.136758 
L 153.096212 149.33881 
L 152.01041 157.20255 
L 150.924609 151.820063 
L 149.838808 132.482623 
L 148.753007 165.346685 
L 147.667206 124.890433 
L 146.581405 141.963026 
L 145.495604 143.728475 
L 144.409802 139.783016 
L 143.324001 134.845097 
L 142.2382 121.02201 
L 141.152399 111.389422 
L 140.066598 155.015587 
L 138.980797 170.579491 
L 137.894995 188.894868 
L 136.809194 179.58843 
L 135.723393 157.220088 
L 134.637592 160.521326 
L 133.551791 182.155091 
L 132.46599 192.242066 
L 131.380189 211.658969 
L 130.294387 198.543657 
L 129.208586 193.676083 
L 128.122785 161.074955 
L 127.036984 188.438174 
L 125.951183 174.951611 
L 124.865382 261.4562 
L 123.77958 248.093457 
L 122.693779 232.794641 
L 121.607978 267.828621 
L 120.522177 174.332294 
L 119.436376 258.220313 
L 118.350575 205.419792 
L 117.264773 210.888871 
L 116.178972 154.732012 
L 115.093171 186.733504 
L 114.00737 169.500849 
L 112.921569 191.961925 
L 111.835768 185.741142 
L 110.749967 141.932669 
L 109.664165 122.713162 
L 108.578364 142.191042 
L 107.492563 130.738436 
L 106.406762 127.126049 
L 105.320961 139.424308 
L 104.23516 114.9059 
L 103.149358 112.147494 
L 102.063557 100.903497 
L 100.977756 104.438223 
L 99.891955 112.535136 
L 98.806154 119.601441 
L 97.720353 142.580333 
L 96.634552 115.91785 
L 95.54875 109.026636 
L 94.462949 97.57906 
L 93.377148 108.579353 
L 92.291347 131.251634 
L 91.205546 143.954574 
L 90.119745 142.184034 
L 89.033943 186.254578 
L 87.948142 166.469955 
L 86.862341 144.219613 
L 85.77654 155.822814 
L 84.690739 138.490326 
L 83.604938 144.040095 
L 82.519137 101.033061 
L 81.433335 109.817011 
L 80.347534 104.14178 
L 79.261733 97.035022 
L 78.175932 98.170033 
L 77.090131 121.528151 
L 76.00433 102.125421 
L 74.918528 76.254266 
L 73.832727 53.568 
z
" style="fill:#0000ff;fill-opacity:0.25;"/>
   </g>
   <g id="matplotlib.axis_1">
    <g id="xtick_1">
     <g id="line2d_1">
      <defs>
       <path d="M 0 0 
L 0 3.5 
" id="mf2eeb1d6cd" style="stroke:#000000;stroke-width:0.8;"/>
      </defs>
      <g>
       <use style="stroke:#000000;stroke-width:0.8;" x="73.832727" xlink:href="#mf2eeb1d6cd" y="307.584"/>
      </g>
     </g>
     <g id="text_1">
      <!-- 0 -->
      <defs>
       <path d="M 31.78125 66.40625 
Q 24.171875 66.40625 20.328125 58.90625 
Q 16.5 51.421875 16.5 36.375 
Q 16.5 21.390625 20.328125 13.890625 
Q 24.171875 6.390625 31.78125 6.390625 
Q 39.453125 6.390625 43.28125 13.890625 
Q 47.125 21.390625 47.125 36.375 
Q 47.125 51.421875 43.28125 58.90625 
Q 39.453125 66.40625 31.78125 66.40625 
z
M 31.78125 74.21875 
Q 44.046875 74.21875 50.515625 64.515625 
Q 56.984375 54.828125 56.984375 36.375 
Q 56.984375 17.96875 50.515625 8.265625 
Q 44.046875 -1.421875 31.78125 -1.421875 
Q 19.53125 -1.421875 13.0625 8.265625 
Q 6.59375 17.96875 6.59375 36.375 
Q 6.59375 54.828125 13.0625 64.515625 
Q 19.53125 74.21875 31.78125 74.21875 
z
" id="DejaVuSans-48"/>
      </defs>
      <g transform="translate(70.651477 322.182437)scale(0.1 -0.1)">
       <use xlink:href="#DejaVuSans-48"/>
      </g>
     </g>
    </g>
    <g id="xtick_2">
     <g id="line2d_2">
      <g>
       <use style="stroke:#000000;stroke-width:0.8;" x="128.122785" xlink:href="#mf2eeb1d6cd" y="307.584"/>
      </g>
     </g>
     <g id="text_2">
      <!-- 50 -->
      <defs>
       <path d="M 10.796875 72.90625 
L 49.515625 72.90625 
L 49.515625 64.59375 
L 19.828125 64.59375 
L 19.828125 46.734375 
Q 21.96875 47.46875 24.109375 47.828125 
Q 26.265625 48.1875 28.421875 48.1875 
Q 40.625 48.1875 47.75 41.5 
Q 54.890625 34.8125 54.890625 23.390625 
Q 54.890625 11.625 47.5625 5.09375 
Q 40.234375 -1.421875 26.90625 -1.421875 
Q 22.3125 -1.421875 17.546875 -0.640625 
Q 12.796875 0.140625 7.71875 1.703125 
L 7.71875 11.625 
Q 12.109375 9.234375 16.796875 8.0625 
Q 21.484375 6.890625 26.703125 6.890625 
Q 35.15625 6.890625 40.078125 11.328125 
Q 45.015625 15.765625 45.015625 23.390625 
Q 45.015625 31 40.078125 35.4375 
Q 35.15625 39.890625 26.703125 39.890625 
Q 22.75 39.890625 18.8125 39.015625 
Q 14.890625 38.140625 10.796875 36.28125 
z
" id="DejaVuSans-53"/>
      </defs>
      <g transform="translate(121.760285 322.182437)scale(0.1 -0.1)">
       <use xlink:href="#DejaVuSans-53"/>
       <use x="63.623047" xlink:href="#DejaVuSans-48"/>
      </g>
     </g>
    </g>
    <g id="xtick_3">
     <g id="line2d_3">
      <g>
       <use style="stroke:#000000;stroke-width:0.8;" x="182.412843" xlink:href="#mf2eeb1d6cd" y="307.584"/>
      </g>
     </g>
     <g id="text_3">
      <!-- 100 -->
      <defs>
       <path d="M 12.40625 8.296875 
L 28.515625 8.296875 
L 28.515625 63.921875 
L 10.984375 60.40625 
L 10.984375 69.390625 
L 28.421875 72.90625 
L 38.28125 72.90625 
L 38.28125 8.296875 
L 54.390625 8.296875 
L 54.390625 0 
L 12.40625 0 
z
" id="DejaVuSans-49"/>
      </defs>
      <g transform="translate(172.869093 322.182437)scale(0.1 -0.1)">
       <use xlink:href="#DejaVuSans-49"/>
       <use x="63.623047" xlink:href="#DejaVuSans-48"/>
       <use x="127.246094" xlink:href="#DejaVuSans-48"/>
      </g>
     </g>
    </g>
    <g id="xtick_4">
     <g id="line2d_4">
      <g>
       <use style="stroke:#000000;stroke-width:0.8;" x="236.702901" xlink:href="#mf2eeb1d6cd" y="307.584"/>
      </g>
     </g>
     <g id="text_4">
      <!-- 150 -->
      <g transform="translate(227.159151 322.182437)scale(0.1 -0.1)">
       <use xlink:href="#DejaVuSans-49"/>
       <use x="63.623047" xlink:href="#DejaVuSans-53"/>
       <use x="127.246094" xlink:href="#DejaVuSans-48"/>
      </g>
     </g>
    </g>
    <g id="xtick_5">
     <g id="line2d_5">
      <g>
       <use style="stroke:#000000;stroke-width:0.8;" x="290.992958" xlink:href="#mf2eeb1d6cd" y="307.584"/>
      </g>
     </g>
     <g id="text_5">
      <!-- 200 -->
      <defs>
       <path d="M 19.1875 8.296875 
L 53.609375 8.296875 
L 53.609375 0 
L 7.328125 0 
L 7.328125 8.296875 
Q 12.9375 14.109375 22.625 23.890625 
Q 32.328125 33.6875 34.8125 36.53125 
Q 39.546875 41.84375 41.421875 45.53125 
Q 43.3125 49.21875 43.3125 52.78125 
Q 43.3125 58.59375 39.234375 62.25 
Q 35.15625 65.921875 28.609375 65.921875 
Q 23.96875 65.921875 18.8125 64.3125 
Q 13.671875 62.703125 7.8125 59.421875 
L 7.8125 69.390625 
Q 13.765625 71.78125 18.9375 73 
Q 24.125 74.21875 28.421875 74.21875 
Q 39.75 74.21875 46.484375 68.546875 
Q 53.21875 62.890625 53.21875 53.421875 
Q 53.21875 48.921875 51.53125 44.890625 
Q 49.859375 40.875 45.40625 35.40625 
Q 44.1875 33.984375 37.640625 27.21875 
Q 31.109375 20.453125 19.1875 8.296875 
z
" id="DejaVuSans-50"/>
      </defs>
      <g transform="translate(281.449208 322.182437)scale(0.1 -0.1)">
       <use xlink:href="#DejaVuSans-50"/>
       <use x="63.623047" xlink:href="#DejaVuSans-48"/>
       <use x="127.246094" xlink:href="#DejaVuSans-48"/>
      </g>
     </g>
    </g>
    <g id="xtick_6">
     <g id="line2d_6">
      <g>
       <use style="stroke:#000000;stroke-width:0.8;" x="345.283016" xlink:href="#mf2eeb1d6cd" y="307.584"/>
      </g>
     </g>
     <g id="text_6">
      <!-- 250 -->
      <g transform="translate(335.739266 322.182437)scale(0.1 -0.1)">
       <use xlink:href="#DejaVuSans-50"/>
       <use x="63.623047" xlink:href="#DejaVuSans-53"/>
       <use x="127.246094" xlink:href="#DejaVuSans-48"/>
      </g>
     </g>
    </g>
    <g id="xtick_7">
     <g id="line2d_7">
      <g>
       <use style="stroke:#000000;stroke-width:0.8;" x="399.573074" xlink:href="#mf2eeb1d6cd" y="307.584"/>
      </g>
     </g>
     <g id="text_7">
      <!-- 300 -->
      <defs>
       <path d="M 40.578125 39.3125 
Q 47.65625 37.796875 51.625 33 
Q 55.609375 28.21875 55.609375 21.1875 
Q 55.609375 10.40625 48.1875 4.484375 
Q 40.765625 -1.421875 27.09375 -1.421875 
Q 22.515625 -1.421875 17.65625 -0.515625 
Q 12.796875 0.390625 7.625 2.203125 
L 7.625 11.71875 
Q 11.71875 9.328125 16.59375 8.109375 
Q 21.484375 6.890625 26.8125 6.890625 
Q 36.078125 6.890625 40.9375 10.546875 
Q 45.796875 14.203125 45.796875 21.1875 
Q 45.796875 27.640625 41.28125 31.265625 
Q 36.765625 34.90625 28.71875 34.90625 
L 20.21875 34.90625 
L 20.21875 43.015625 
L 29.109375 43.015625 
Q 36.375 43.015625 40.234375 45.921875 
Q 44.09375 48.828125 44.09375 54.296875 
Q 44.09375 59.90625 40.109375 62.90625 
Q 36.140625 65.921875 28.71875 65.921875 
Q 24.65625 65.921875 20.015625 65.03125 
Q 15.375 64.15625 9.8125 62.3125 
L 9.8125 71.09375 
Q 15.4375 72.65625 20.34375 73.4375 
Q 25.25 74.21875 29.59375 74.21875 
Q 40.828125 74.21875 47.359375 69.109375 
Q 53.90625 64.015625 53.90625 55.328125 
Q 53.90625 49.265625 50.4375 45.09375 
Q 46.96875 40.921875 40.578125 39.3125 
z
" id="DejaVuSans-51"/>
      </defs>
      <g transform="translate(390.029324 322.182437)scale(0.1 -0.1)">
       <use xlink:href="#DejaVuSans-51"/>
       <use x="63.623047" xlink:href="#DejaVuSans-48"/>
       <use x="127.246094" xlink:href="#DejaVuSans-48"/>
      </g>
     </g>
    </g>
   </g>
   <g id="matplotlib.axis_2">
    <g id="ytick_1">
     <g id="line2d_8">
      <defs>
       <path d="M 0 0 
L -3.5 0 
" id="m682595405c" style="stroke:#000000;stroke-width:0.8;"/>
      </defs>
      <g>
       <use style="stroke:#000000;stroke-width:0.8;" x="57.6" xlink:href="#m682595405c" y="299.481665"/>
      </g>
     </g>
     <g id="text_8">
      <!-- 0.6 -->
      <defs>
       <path d="M 10.6875 12.40625 
L 21 12.40625 
L 21 0 
L 10.6875 0 
z
" id="DejaVuSans-46"/>
       <path d="M 33.015625 40.375 
Q 26.375 40.375 22.484375 35.828125 
Q 18.609375 31.296875 18.609375 23.390625 
Q 18.609375 15.53125 22.484375 10.953125 
Q 26.375 6.390625 33.015625 6.390625 
Q 39.65625 6.390625 43.53125 10.953125 
Q 47.40625 15.53125 47.40625 23.390625 
Q 47.40625 31.296875 43.53125 35.828125 
Q 39.65625 40.375 33.015625 40.375 
z
M 52.59375 71.296875 
L 52.59375 62.3125 
Q 48.875 64.0625 45.09375 64.984375 
Q 41.3125 65.921875 37.59375 65.921875 
Q 27.828125 65.921875 22.671875 59.328125 
Q 17.53125 52.734375 16.796875 39.40625 
Q 19.671875 43.65625 24.015625 45.921875 
Q 28.375 48.1875 33.59375 48.1875 
Q 44.578125 48.1875 50.953125 41.515625 
Q 57.328125 34.859375 57.328125 23.390625 
Q 57.328125 12.15625 50.6875 5.359375 
Q 44.046875 -1.421875 33.015625 -1.421875 
Q 20.359375 -1.421875 13.671875 8.265625 
Q 6.984375 17.96875 6.984375 36.375 
Q 6.984375 53.65625 15.1875 63.9375 
Q 23.390625 74.21875 37.203125 74.21875 
Q 40.921875 74.21875 44.703125 73.484375 
Q 48.484375 72.75 52.59375 71.296875 
z
" id="DejaVuSans-54"/>
      </defs>
      <g transform="translate(34.696875 303.280883)scale(0.1 -0.1)">
       <use xlink:href="#DejaVuSans-48"/>
       <use x="63.623047" xlink:href="#DejaVuSans-46"/>
       <use x="95.410156" xlink:href="#DejaVuSans-54"/>
      </g>
     </g>
    </g>
    <g id="ytick_2">
     <g id="line2d_9">
      <g>
       <use style="stroke:#000000;stroke-width:0.8;" x="57.6" xlink:href="#m682595405c" y="259.223585"/>
      </g>
     </g>
     <g id="text_9">
      <!-- 0.8 -->
      <defs>
       <path d="M 31.78125 34.625 
Q 24.75 34.625 20.71875 30.859375 
Q 16.703125 27.09375 16.703125 20.515625 
Q 16.703125 13.921875 20.71875 10.15625 
Q 24.75 6.390625 31.78125 6.390625 
Q 38.8125 6.390625 42.859375 10.171875 
Q 46.921875 13.96875 46.921875 20.515625 
Q 46.921875 27.09375 42.890625 30.859375 
Q 38.875 34.625 31.78125 34.625 
z
M 21.921875 38.8125 
Q 15.578125 40.375 12.03125 44.71875 
Q 8.5 49.078125 8.5 55.328125 
Q 8.5 64.0625 14.71875 69.140625 
Q 20.953125 74.21875 31.78125 74.21875 
Q 42.671875 74.21875 48.875 69.140625 
Q 55.078125 64.0625 55.078125 55.328125 
Q 55.078125 49.078125 51.53125 44.71875 
Q 48 40.375 41.703125 38.8125 
Q 48.828125 37.15625 52.796875 32.3125 
Q 56.78125 27.484375 56.78125 20.515625 
Q 56.78125 9.90625 50.3125 4.234375 
Q 43.84375 -1.421875 31.78125 -1.421875 
Q 19.734375 -1.421875 13.25 4.234375 
Q 6.78125 9.90625 6.78125 20.515625 
Q 6.78125 27.484375 10.78125 32.3125 
Q 14.796875 37.15625 21.921875 38.8125 
z
M 18.3125 54.390625 
Q 18.3125 48.734375 21.84375 45.5625 
Q 25.390625 42.390625 31.78125 42.390625 
Q 38.140625 42.390625 41.71875 45.5625 
Q 45.3125 48.734375 45.3125 54.390625 
Q 45.3125 60.0625 41.71875 63.234375 
Q 38.140625 66.40625 31.78125 66.40625 
Q 25.390625 66.40625 21.84375 63.234375 
Q 18.3125 60.0625 18.3125 54.390625 
z
" id="DejaVuSans-56"/>
      </defs>
      <g transform="translate(34.696875 263.022804)scale(0.1 -0.1)">
       <use xlink:href="#DejaVuSans-48"/>
       <use x="63.623047" xlink:href="#DejaVuSans-46"/>
       <use x="95.410156" xlink:href="#DejaVuSans-56"/>
      </g>
     </g>
    </g>
    <g id="ytick_3">
     <g id="line2d_10">
      <g>
       <use style="stroke:#000000;stroke-width:0.8;" x="57.6" xlink:href="#m682595405c" y="218.965506"/>
      </g>
     </g>
     <g id="text_10">
      <!-- 1.0 -->
      <g transform="translate(34.696875 222.764724)scale(0.1 -0.1)">
       <use xlink:href="#DejaVuSans-49"/>
       <use x="63.623047" xlink:href="#DejaVuSans-46"/>
       <use x="95.410156" xlink:href="#DejaVuSans-48"/>
      </g>
     </g>
    </g>
    <g id="ytick_4">
     <g id="line2d_11">
      <g>
       <use style="stroke:#000000;stroke-width:0.8;" x="57.6" xlink:href="#m682595405c" y="178.707426"/>
      </g>
     </g>
     <g id="text_11">
      <!-- 1.2 -->
      <g transform="translate(34.696875 182.506645)scale(0.1 -0.1)">
       <use xlink:href="#DejaVuSans-49"/>
       <use x="63.623047" xlink:href="#DejaVuSans-46"/>
       <use x="95.410156" xlink:href="#DejaVuSans-50"/>
      </g>
     </g>
    </g>
    <g id="ytick_5">
     <g id="line2d_12">
      <g>
       <use style="stroke:#000000;stroke-width:0.8;" x="57.6" xlink:href="#m682595405c" y="138.449347"/>
      </g>
     </g>
     <g id="text_12">
      <!-- 1.4 -->
      <defs>
       <path d="M 37.796875 64.3125 
L 12.890625 25.390625 
L 37.796875 25.390625 
z
M 35.203125 72.90625 
L 47.609375 72.90625 
L 47.609375 25.390625 
L 58.015625 25.390625 
L 58.015625 17.1875 
L 47.609375 17.1875 
L 47.609375 0 
L 37.796875 0 
L 37.796875 17.1875 
L 4.890625 17.1875 
L 4.890625 26.703125 
z
" id="DejaVuSans-52"/>
      </defs>
      <g transform="translate(34.696875 142.248566)scale(0.1 -0.1)">
       <use xlink:href="#DejaVuSans-49"/>
       <use x="63.623047" xlink:href="#DejaVuSans-46"/>
       <use x="95.410156" xlink:href="#DejaVuSans-52"/>
      </g>
     </g>
    </g>
    <g id="ytick_6">
     <g id="line2d_13">
      <g>
       <use style="stroke:#000000;stroke-width:0.8;" x="57.6" xlink:href="#m682595405c" y="98.191268"/>
      </g>
     </g>
     <g id="text_13">
      <!-- 1.6 -->
      <g transform="translate(34.696875 101.990486)scale(0.1 -0.1)">
       <use xlink:href="#DejaVuSans-49"/>
       <use x="63.623047" xlink:href="#DejaVuSans-46"/>
       <use x="95.410156" xlink:href="#DejaVuSans-54"/>
      </g>
     </g>
    </g>
    <g id="ytick_7">
     <g id="line2d_14">
      <g>
       <use style="stroke:#000000;stroke-width:0.8;" x="57.6" xlink:href="#m682595405c" y="57.933188"/>
      </g>
     </g>
     <g id="text_14">
      <!-- 1.8 -->
      <g transform="translate(34.696875 61.732407)scale(0.1 -0.1)">
       <use xlink:href="#DejaVuSans-49"/>
       <use x="63.623047" xlink:href="#DejaVuSans-46"/>
       <use x="95.410156" xlink:href="#DejaVuSans-56"/>
      </g>
     </g>
    </g>
    <g id="text_15">
     <!-- Distance -->
     <defs>
      <path d="M 19.671875 64.796875 
L 19.671875 8.109375 
L 31.59375 8.109375 
Q 46.6875 8.109375 53.6875 14.9375 
Q 60.6875 21.78125 60.6875 36.53125 
Q 60.6875 51.171875 53.6875 57.984375 
Q 46.6875 64.796875 31.59375 64.796875 
z
M 9.8125 72.90625 
L 30.078125 72.90625 
Q 51.265625 72.90625 61.171875 64.09375 
Q 71.09375 55.28125 71.09375 36.53125 
Q 71.09375 17.671875 61.125 8.828125 
Q 51.171875 0 30.078125 0 
L 9.8125 0 
z
" id="DejaVuSans-68"/>
      <path d="M 9.421875 54.6875 
L 18.40625 54.6875 
L 18.40625 0 
L 9.421875 0 
z
M 9.421875 75.984375 
L 18.40625 75.984375 
L 18.40625 64.59375 
L 9.421875 64.59375 
z
" id="DejaVuSans-105"/>
      <path d="M 44.28125 53.078125 
L 44.28125 44.578125 
Q 40.484375 46.53125 36.375 47.5 
Q 32.28125 48.484375 27.875 48.484375 
Q 21.1875 48.484375 17.84375 46.4375 
Q 14.5 44.390625 14.5 40.28125 
Q 14.5 37.15625 16.890625 35.375 
Q 19.28125 33.59375 26.515625 31.984375 
L 29.59375 31.296875 
Q 39.15625 29.25 43.1875 25.515625 
Q 47.21875 21.78125 47.21875 15.09375 
Q 47.21875 7.46875 41.1875 3.015625 
Q 35.15625 -1.421875 24.609375 -1.421875 
Q 20.21875 -1.421875 15.453125 -0.5625 
Q 10.6875 0.296875 5.421875 2 
L 5.421875 11.28125 
Q 10.40625 8.6875 15.234375 7.390625 
Q 20.0625 6.109375 24.8125 6.109375 
Q 31.15625 6.109375 34.5625 8.28125 
Q 37.984375 10.453125 37.984375 14.40625 
Q 37.984375 18.0625 35.515625 20.015625 
Q 33.0625 21.96875 24.703125 23.78125 
L 21.578125 24.515625 
Q 13.234375 26.265625 9.515625 29.90625 
Q 5.8125 33.546875 5.8125 39.890625 
Q 5.8125 47.609375 11.28125 51.796875 
Q 16.75 56 26.8125 56 
Q 31.78125 56 36.171875 55.265625 
Q 40.578125 54.546875 44.28125 53.078125 
z
" id="DejaVuSans-115"/>
      <path d="M 18.3125 70.21875 
L 18.3125 54.6875 
L 36.8125 54.6875 
L 36.8125 47.703125 
L 18.3125 47.703125 
L 18.3125 18.015625 
Q 18.3125 11.328125 20.140625 9.421875 
Q 21.96875 7.515625 27.59375 7.515625 
L 36.8125 7.515625 
L 36.8125 0 
L 27.59375 0 
Q 17.1875 0 13.234375 3.875 
Q 9.28125 7.765625 9.28125 18.015625 
L 9.28125 47.703125 
L 2.6875 47.703125 
L 2.6875 54.6875 
L 9.28125 54.6875 
L 9.28125 70.21875 
z
" id="DejaVuSans-116"/>
      <path d="M 34.28125 27.484375 
Q 23.390625 27.484375 19.1875 25 
Q 14.984375 22.515625 14.984375 16.5 
Q 14.984375 11.71875 18.140625 8.90625 
Q 21.296875 6.109375 26.703125 6.109375 
Q 34.1875 6.109375 38.703125 11.40625 
Q 43.21875 16.703125 43.21875 25.484375 
L 43.21875 27.484375 
z
M 52.203125 31.203125 
L 52.203125 0 
L 43.21875 0 
L 43.21875 8.296875 
Q 40.140625 3.328125 35.546875 0.953125 
Q 30.953125 -1.421875 24.3125 -1.421875 
Q 15.921875 -1.421875 10.953125 3.296875 
Q 6 8.015625 6 15.921875 
Q 6 25.140625 12.171875 29.828125 
Q 18.359375 34.515625 30.609375 34.515625 
L 43.21875 34.515625 
L 43.21875 35.40625 
Q 43.21875 41.609375 39.140625 45 
Q 35.0625 48.390625 27.6875 48.390625 
Q 23 48.390625 18.546875 47.265625 
Q 14.109375 46.140625 10.015625 43.890625 
L 10.015625 52.203125 
Q 14.9375 54.109375 19.578125 55.046875 
Q 24.21875 56 28.609375 56 
Q 40.484375 56 46.34375 49.84375 
Q 52.203125 43.703125 52.203125 31.203125 
z
" id="DejaVuSans-97"/>
      <path d="M 54.890625 33.015625 
L 54.890625 0 
L 45.90625 0 
L 45.90625 32.71875 
Q 45.90625 40.484375 42.875 44.328125 
Q 39.84375 48.1875 33.796875 48.1875 
Q 26.515625 48.1875 22.3125 43.546875 
Q 18.109375 38.921875 18.109375 30.90625 
L 18.109375 0 
L 9.078125 0 
L 9.078125 54.6875 
L 18.109375 54.6875 
L 18.109375 46.1875 
Q 21.34375 51.125 25.703125 53.5625 
Q 30.078125 56 35.796875 56 
Q 45.21875 56 50.046875 50.171875 
Q 54.890625 44.34375 54.890625 33.015625 
z
" id="DejaVuSans-110"/>
      <path d="M 48.78125 52.59375 
L 48.78125 44.1875 
Q 44.96875 46.296875 41.140625 47.34375 
Q 37.3125 48.390625 33.40625 48.390625 
Q 24.65625 48.390625 19.8125 42.84375 
Q 14.984375 37.3125 14.984375 27.296875 
Q 14.984375 17.28125 19.8125 11.734375 
Q 24.65625 6.203125 33.40625 6.203125 
Q 37.3125 6.203125 41.140625 7.25 
Q 44.96875 8.296875 48.78125 10.40625 
L 48.78125 2.09375 
Q 45.015625 0.34375 40.984375 -0.53125 
Q 36.96875 -1.421875 32.421875 -1.421875 
Q 20.0625 -1.421875 12.78125 6.34375 
Q 5.515625 14.109375 5.515625 27.296875 
Q 5.515625 40.671875 12.859375 48.328125 
Q 20.21875 56 33.015625 56 
Q 37.15625 56 41.109375 55.140625 
Q 45.0625 54.296875 48.78125 52.59375 
z
" id="DejaVuSans-99"/>
      <path d="M 56.203125 29.59375 
L 56.203125 25.203125 
L 14.890625 25.203125 
Q 15.484375 15.921875 20.484375 11.0625 
Q 25.484375 6.203125 34.421875 6.203125 
Q 39.59375 6.203125 44.453125 7.46875 
Q 49.3125 8.734375 54.109375 11.28125 
L 54.109375 2.78125 
Q 49.265625 0.734375 44.1875 -0.34375 
Q 39.109375 -1.421875 33.890625 -1.421875 
Q 20.796875 -1.421875 13.15625 6.1875 
Q 5.515625 13.8125 5.515625 26.8125 
Q 5.515625 40.234375 12.765625 48.109375 
Q 20.015625 56 32.328125 56 
Q 43.359375 56 49.78125 48.890625 
Q 56.203125 41.796875 56.203125 29.59375 
z
M 47.21875 32.234375 
Q 47.125 39.59375 43.09375 43.984375 
Q 39.0625 48.390625 32.421875 48.390625 
Q 24.90625 48.390625 20.390625 44.140625 
Q 15.875 39.890625 15.1875 32.171875 
z
" id="DejaVuSans-101"/>
     </defs>
     <g transform="translate(28.617187 196.3905)rotate(-90)scale(0.1 -0.1)">
      <use xlink:href="#DejaVuSans-68"/>
      <use x="77.001953" xlink:href="#DejaVuSans-105"/>
      <use x="104.785156" xlink:href="#DejaVuSans-115"/>
      <use x="156.884766" xlink:href="#DejaVuSans-116"/>
      <use x="196.09375" xlink:href="#DejaVuSans-97"/>
      <use x="257.373047" xlink:href="#DejaVuSans-110"/>
      <use x="320.751953" xlink:href="#DejaVuSans-99"/>
      <use x="375.732422" xlink:href="#DejaVuSans-101"/>
     </g>
    </g>
   </g>
   <g id="line2d_15">
    <path clip-path="url(#pd7e917419f)" d="M 73.832727 59.032922 
L 76.00433 106.028344 
L 77.090131 124.502079 
L 78.175932 106.32743 
L 79.261733 107.986143 
L 80.347534 116.661551 
L 81.433335 120.25372 
L 82.519137 115.796182 
L 83.604938 154.284302 
L 84.690739 147.861252 
L 85.77654 164.682834 
L 86.862341 150.100434 
L 87.948142 178.039742 
L 89.033943 189.232265 
L 90.119745 154.491837 
L 91.205546 148.4632 
L 92.291347 139.631193 
L 93.377148 114.084638 
L 94.462949 103.319069 
L 95.54875 116.467557 
L 96.634552 121.009667 
L 97.720353 154.298167 
L 98.806154 126.409984 
L 99.891955 119.367253 
L 100.977756 109.583473 
L 102.063557 116.37471 
L 103.149358 116.69 
L 104.23516 124.998864 
L 105.320961 148.349783 
L 106.406762 136.212019 
L 107.492563 145.317658 
L 108.578364 159.581875 
L 109.664165 138.765905 
L 110.749967 154.882476 
L 111.835768 198.17053 
L 112.921569 210.419761 
L 114.00737 179.672789 
L 115.093171 191.112387 
L 116.178972 177.153197 
L 117.264773 220.547094 
L 118.350575 219.889118 
L 119.436376 263.315515 
L 120.522177 183.095347 
L 121.607978 281.65831 
L 122.693779 243.131384 
L 123.77958 254.427748 
L 124.865382 267.639056 
L 125.951183 186.990978 
L 127.036984 204.844213 
L 128.122785 184.226923 
L 129.208586 215.350593 
L 130.294387 219.324207 
L 131.380189 236.661953 
L 132.46599 206.324438 
L 133.551791 196.557403 
L 134.637592 189.408837 
L 135.723393 177.94475 
L 136.809194 204.006731 
L 137.894995 202.963662 
L 138.980797 183.710642 
L 140.066598 170.060446 
L 141.152399 117.294938 
L 142.2382 131.719887 
L 143.324001 140.211142 
L 144.409802 147.730781 
L 145.495604 147.224469 
L 146.581405 146.270182 
L 147.667206 130.142221 
L 148.753007 174.367189 
L 149.838808 140.681679 
L 150.924609 161.111644 
L 152.01041 162.304581 
L 153.096212 157.350892 
L 154.182013 174.699563 
L 155.267814 164.548661 
L 156.353615 171.290026 
L 157.439416 168.075495 
L 158.525217 149.741241 
L 160.69682 144.155752 
L 161.782621 148.413274 
L 162.868422 147.658779 
L 163.954223 139.491959 
L 165.040024 165.788087 
L 166.125825 142.695554 
L 167.211627 122.84255 
L 168.297428 148.372164 
L 169.383229 135.329683 
L 170.46903 115.309107 
L 171.554831 143.253172 
L 172.640632 138.423776 
L 173.726434 154.850968 
L 174.812235 139.989651 
L 175.898036 164.469943 
L 176.983837 171.112039 
L 178.069638 155.193349 
L 179.155439 121.09398 
L 180.24124 118.608087 
L 181.327042 138.411845 
L 182.412843 132.500754 
L 183.498644 158.52929 
L 184.584445 141.036849 
L 185.670246 146.364453 
L 186.756047 133.523193 
L 187.841849 122.743048 
L 188.92765 108.156469 
L 190.013451 126.750553 
L 191.099252 101.095157 
L 192.185053 112.921333 
L 193.270854 148.176085 
L 194.356656 167.17089 
L 195.442457 142.597113 
L 196.528258 158.292121 
L 197.614059 138.654244 
L 198.69986 138.232394 
L 199.785661 133.601794 
L 200.871462 142.053015 
L 201.957264 144.438782 
L 203.043065 146.161465 
L 204.128866 143.048999 
L 205.214667 149.173176 
L 206.300468 151.770798 
L 207.386269 157.661876 
L 208.472071 193.483547 
L 209.557872 124.188879 
L 210.643673 117.443379 
L 211.729474 133.624495 
L 212.815275 137.568077 
L 213.901076 146.778258 
L 214.986877 151.065894 
L 216.072679 151.566959 
L 217.15848 147.584998 
L 218.244281 144.692121 
L 219.330082 145.770091 
L 220.415883 169.278521 
L 221.501684 150.46633 
L 222.587486 157.093033 
L 223.673287 175.906089 
L 224.759088 164.569319 
L 225.844889 196.327742 
L 228.016491 169.480003 
L 229.102292 164.787822 
L 230.188094 137.904329 
L 231.273895 131.660551 
L 232.359696 120.973543 
L 233.445497 136.664525 
L 234.531298 147.510718 
L 235.617099 141.335279 
L 236.702901 138.729997 
L 237.788702 137.568428 
L 238.874503 168.427212 
L 239.960304 211.411795 
L 241.046105 214.203171 
L 242.131906 222.463067 
L 243.217708 231.640902 
L 244.303509 210.212563 
L 245.38931 207.07286 
L 246.475111 207.118168 
L 247.560912 215.859202 
L 248.646713 215.132946 
L 249.732514 210.189255 
L 250.818316 198.531317 
L 251.904117 227.262398 
L 252.989918 190.061031 
L 254.075719 193.073019 
L 255.16152 186.841813 
L 256.247321 196.906621 
L 257.333123 187.957623 
L 258.418924 204.554588 
L 259.504725 217.553031 
L 260.590526 211.426613 
L 262.762128 226.546575 
L 263.847929 183.700845 
L 264.933731 193.621858 
L 266.019532 182.451098 
L 267.105333 181.651333 
L 268.191134 204.417678 
L 270.362736 210.777054 
L 271.448538 215.306536 
L 272.534339 214.722417 
L 273.62014 195.633126 
L 274.705941 189.888329 
L 275.791742 172.774216 
L 276.877543 177.426488 
L 277.963344 141.520134 
L 279.049146 139.331922 
L 280.134947 151.393126 
L 281.220748 176.143446 
L 282.306549 177.044879 
L 283.39235 198.163534 
L 284.478151 197.625278 
L 285.563953 221.48874 
L 286.649754 214.217845 
L 287.735555 218.220215 
L 288.821356 208.707757 
L 289.907157 201.660595 
L 290.992958 171.605851 
L 292.07876 187.894701 
L 293.164561 171.410982 
L 294.250362 161.936806 
L 295.336163 176.225017 
L 296.421964 175.935827 
L 297.507765 208.383533 
L 298.593566 217.147998 
L 299.679368 226.917672 
L 300.765169 213.689281 
L 301.85097 202.200797 
L 302.936771 201.455087 
L 304.022572 185.357137 
L 305.108373 203.992242 
L 306.194175 220.639844 
L 307.279976 243.137511 
L 308.365777 190.906962 
L 309.451578 218.69033 
L 310.537379 191.053688 
L 311.62318 196.627879 
L 312.708981 191.726403 
L 313.794783 187.965662 
L 314.880584 232.389758 
L 315.966385 212.068097 
L 317.052186 241.340498 
L 318.137987 245.215665 
L 319.223788 237.270665 
L 320.30959 251.326039 
L 321.395391 247.720799 
L 322.481192 216.328745 
L 323.566993 228.899221 
L 324.652794 217.678085 
L 325.738595 239.759175 
L 326.824396 258.996323 
L 327.910198 213.001439 
L 328.995999 179.302297 
L 330.0818 186.14666 
L 331.167601 213.277801 
L 332.253402 196.566111 
L 333.339203 188.905035 
L 334.425005 202.534824 
L 335.510806 253.85703 
L 336.596607 227.186076 
L 337.682408 173.491024 
L 338.768209 176.743811 
L 339.85401 157.792834 
L 340.939811 146.516488 
L 342.025613 148.74972 
L 343.111414 159.644153 
L 344.197215 157.633011 
L 345.283016 164.977487 
L 346.368817 138.159607 
L 347.454618 133.727385 
L 348.54042 143.325464 
L 349.626221 166.110859 
L 350.712022 167.369204 
L 351.797823 158.039307 
L 352.883624 137.174555 
L 353.969425 176.070271 
L 355.055227 194.184624 
L 356.141028 183.018056 
L 357.226829 181.80431 
L 358.31263 179.789322 
L 359.398431 183.653758 
L 360.484232 186.787969 
L 361.570033 196.944548 
L 362.655835 198.919527 
L 363.741636 203.055398 
L 364.827437 189.774405 
L 365.913238 191.639225 
L 366.999039 191.533987 
L 368.08484 187.445614 
L 369.170642 188.465367 
L 370.256443 200.245201 
L 371.342244 188.325444 
L 372.428045 190.432968 
L 373.513846 182.694789 
L 374.599647 182.961472 
L 375.685448 187.39228 
L 376.77125 207.668376 
L 377.857051 208.693188 
L 378.942852 184.115485 
L 380.028653 188.522725 
L 381.114454 188.506281 
L 382.200255 202.463976 
L 384.371858 247.538666 
L 385.457659 215.366214 
L 386.54346 230.726765 
L 387.629261 208.27794 
L 388.715062 206.422393 
L 389.800863 208.404969 
L 390.886665 237.290653 
L 391.972466 239.069141 
L 393.058267 254.3838 
L 394.144068 210.014087 
L 395.229869 243.479921 
L 396.31567 205.354368 
L 397.401472 193.832044 
L 398.487273 221.082205 
L 398.487273 221.082205 
" style="fill:none;stroke:#0000ff;stroke-linecap:square;stroke-width:1.5;"/>
   </g>
   <g id="patch_3">
    <path d="M 57.6 307.584 
L 57.6 41.472 
" style="fill:none;stroke:#000000;stroke-linecap:square;stroke-linejoin:miter;stroke-width:0.8;"/>
   </g>
   <g id="patch_4">
    <path d="M 414.72 307.584 
L 414.72 41.472 
" style="fill:none;stroke:#000000;stroke-linecap:square;stroke-linejoin:miter;stroke-width:0.8;"/>
   </g>
   <g id="patch_5">
    <path d="M 57.6 307.584 
L 414.72 307.584 
" style="fill:none;stroke:#000000;stroke-linecap:square;stroke-linejoin:miter;stroke-width:0.8;"/>
   </g>
   <g id="patch_6">
    <path d="M 57.6 41.472 
L 414.72 41.472 
" style="fill:none;stroke:#000000;stroke-linecap:square;stroke-linejoin:miter;stroke-width:0.8;"/>
   </g>
  </g>
  <g id="axes_2">
   <g id="PolyCollection_2">
    <path clip-path="url(#pd7e917419f)" d="M 73.832727 89.38737 
L 73.832727 264.994188 
L 74.918528 246.809618 
L 76.00433 254.867456 
L 77.090131 265.355393 
L 78.175932 260.741854 
L 79.261733 270.353062 
L 80.347534 272.697719 
L 81.433335 268.907915 
L 82.519137 276.645112 
L 83.604938 286.522769 
L 84.690739 283.808585 
L 85.77654 287.223551 
L 86.862341 285.964986 
L 87.948142 290.713271 
L 89.033943 294.774866 
L 90.119745 294.698412 
L 91.205546 292.284913 
L 92.291347 289.204818 
L 93.377148 287.954354 
L 94.462949 279.498779 
L 95.54875 276.585138 
L 96.634552 278.992165 
L 97.720353 287.536758 
L 98.806154 282.717506 
L 99.891955 283.923767 
L 100.977756 276.643908 
L 102.063557 287.224282 
L 103.149358 281.498376 
L 104.23516 285.937475 
L 105.320961 283.399591 
L 106.406762 284.348589 
L 107.492563 285.364268 
L 108.578364 290.992559 
L 109.664165 285.541574 
L 110.749967 283.978362 
L 111.835768 278.246233 
L 112.921569 279.029806 
L 114.00737 280.732023 
L 115.093171 283.323742 
L 116.178972 286.16595 
L 117.264773 289.01836 
L 118.350575 293.421461 
L 119.436376 295.435415 
L 120.522177 291.512297 
L 121.607978 295.488 
L 122.693779 294.499027 
L 123.77958 295.017309 
L 124.865382 293.46455 
L 125.951183 284.82716 
L 127.036984 288.142731 
L 128.122785 279.532662 
L 129.208586 279.714045 
L 130.294387 282.661904 
L 131.380189 282.027931 
L 132.46599 277.859345 
L 133.551791 279.621988 
L 134.637592 285.369475 
L 135.723393 282.327305 
L 136.809194 281.867704 
L 137.894995 280.335219 
L 138.980797 279.468442 
L 140.066598 270.276931 
L 141.152399 268.879978 
L 142.2382 266.175238 
L 143.324001 276.180256 
L 144.409802 269.405746 
L 145.495604 266.530022 
L 146.581405 270.219038 
L 147.667206 273.504477 
L 148.753007 269.482073 
L 149.838808 274.684174 
L 150.924609 266.639522 
L 152.01041 268.91997 
L 153.096212 267.254021 
L 154.182013 274.730655 
L 155.267814 273.270217 
L 156.353615 280.193644 
L 157.439416 276.815781 
L 158.525217 267.650747 
L 159.611019 265.276299 
L 160.69682 264.959974 
L 161.782621 265.552937 
L 162.868422 264.4653 
L 163.954223 268.544407 
L 165.040024 258.226194 
L 166.125825 263.625659 
L 167.211627 262.023518 
L 168.297428 256.797649 
L 169.383229 264.712752 
L 170.46903 255.212102 
L 171.554831 267.339643 
L 172.640632 269.858708 
L 173.726434 268.844941 
L 174.812235 268.094533 
L 175.898036 258.819922 
L 176.983837 260.900083 
L 178.069638 256.43452 
L 179.155439 261.964437 
L 180.24124 253.382886 
L 181.327042 247.023246 
L 182.412843 243.422063 
L 183.498644 247.360245 
L 184.584445 253.034246 
L 185.670246 260.918543 
L 186.756047 253.227881 
L 187.841849 253.644158 
L 188.92765 252.706368 
L 190.013451 255.897455 
L 191.099252 251.443101 
L 192.185053 262.414906 
L 193.270854 265.479726 
L 194.356656 269.557147 
L 195.442457 276.681389 
L 196.528258 267.792412 
L 197.614059 264.815129 
L 198.69986 262.468902 
L 199.785661 264.241684 
L 200.871462 267.736311 
L 201.957264 263.596817 
L 203.043065 266.416564 
L 204.128866 260.145017 
L 205.214667 269.07821 
L 206.300468 268.688712 
L 207.386269 274.542166 
L 208.472071 265.955526 
L 209.557872 270.593896 
L 210.643673 263.324717 
L 211.729474 263.656696 
L 212.815275 267.390422 
L 213.901076 274.028184 
L 214.986877 264.697162 
L 216.072679 277.884087 
L 217.15848 272.630499 
L 218.244281 274.32376 
L 219.330082 279.138709 
L 220.415883 281.461146 
L 221.501684 279.245202 
L 222.587486 278.802284 
L 223.673287 282.10429 
L 224.759088 278.99666 
L 225.844889 277.537433 
L 226.93069 282.955484 
L 228.016491 283.496479 
L 229.102292 277.291794 
L 230.188094 271.615204 
L 231.273895 266.815609 
L 232.359696 257.690855 
L 233.445497 271.418086 
L 234.531298 257.633123 
L 235.617099 257.868584 
L 236.702901 257.932788 
L 237.788702 267.055103 
L 238.874503 277.167728 
L 239.960304 279.121894 
L 241.046105 278.413807 
L 242.131906 278.489308 
L 243.217708 280.923237 
L 244.303509 281.278555 
L 245.38931 283.6387 
L 246.475111 278.528634 
L 247.560912 280.949898 
L 248.646713 279.45009 
L 249.732514 281.756066 
L 250.818316 278.459508 
L 251.904117 277.772791 
L 252.989918 277.536893 
L 254.075719 283.623144 
L 255.16152 284.635384 
L 256.247321 282.435016 
L 257.333123 286.93786 
L 258.418924 288.549243 
L 259.504725 291.877393 
L 260.590526 292.467629 
L 261.676327 289.251111 
L 262.762128 286.837794 
L 263.847929 287.069288 
L 264.933731 285.030812 
L 266.019532 282.858096 
L 267.105333 287.702791 
L 268.191134 290.05056 
L 269.276935 290.001568 
L 270.362736 291.184976 
L 271.448538 290.816526 
L 272.534339 290.45828 
L 273.62014 289.599374 
L 274.705941 287.770614 
L 275.791742 286.301173 
L 276.877543 288.329671 
L 277.963344 279.164963 
L 279.049146 287.038196 
L 280.134947 285.623981 
L 281.220748 284.955394 
L 282.306549 289.516548 
L 283.39235 291.493015 
L 284.478151 290.605941 
L 285.563953 290.725514 
L 286.649754 288.252682 
L 287.735555 291.227539 
L 288.821356 288.592385 
L 289.907157 284.840739 
L 290.992958 286.293938 
L 292.07876 284.370453 
L 293.164561 280.849245 
L 294.250362 282.498942 
L 295.336163 278.693547 
L 296.421964 280.415074 
L 297.507765 282.338985 
L 298.593566 281.214592 
L 299.679368 282.119233 
L 300.765169 285.104298 
L 301.85097 283.745474 
L 302.936771 281.763875 
L 304.022572 286.846154 
L 305.108373 286.94697 
L 306.194175 288.886323 
L 307.279976 283.454563 
L 308.365777 288.599876 
L 309.451578 289.869361 
L 310.537379 285.753336 
L 311.62318 289.539465 
L 312.708981 288.733283 
L 313.794783 289.209915 
L 314.880584 285.82619 
L 315.966385 288.634064 
L 317.052186 287.025957 
L 318.137987 285.422597 
L 319.223788 288.450955 
L 320.30959 287.479959 
L 321.395391 289.391694 
L 322.481192 287.157773 
L 323.566993 289.963031 
L 324.652794 284.002385 
L 325.738595 284.048627 
L 326.824396 288.406097 
L 327.910198 287.023626 
L 328.995999 282.802463 
L 330.0818 282.993305 
L 331.167601 283.190207 
L 332.253402 288.94104 
L 333.339203 287.451101 
L 334.425005 287.97471 
L 335.510806 289.046522 
L 336.596607 289.39046 
L 337.682408 283.567161 
L 338.768209 283.349274 
L 339.85401 277.70503 
L 340.939811 281.33873 
L 342.025613 282.88617 
L 343.111414 277.304217 
L 344.197215 281.87533 
L 345.283016 283.29335 
L 346.368817 273.756989 
L 347.454618 268.338945 
L 348.54042 272.439367 
L 349.626221 274.463511 
L 350.712022 276.405222 
L 351.797823 274.870091 
L 352.883624 275.505554 
L 353.969425 283.747589 
L 355.055227 286.377686 
L 356.141028 284.790941 
L 357.226829 284.139181 
L 358.31263 287.225514 
L 359.398431 281.221059 
L 360.484232 285.478139 
L 361.570033 287.027084 
L 362.655835 280.765787 
L 363.741636 282.667177 
L 364.827437 284.783807 
L 365.913238 285.665154 
L 366.999039 284.287351 
L 368.08484 284.834393 
L 369.170642 284.418788 
L 370.256443 286.683864 
L 371.342244 286.159454 
L 372.428045 286.345448 
L 373.513846 285.814415 
L 374.599647 284.478311 
L 375.685448 280.893022 
L 376.77125 283.59102 
L 377.857051 283.417652 
L 378.942852 285.462207 
L 380.028653 286.660476 
L 381.114454 285.317353 
L 382.200255 287.499712 
L 383.286057 285.775652 
L 384.371858 283.639364 
L 385.457659 285.073025 
L 386.54346 286.455762 
L 387.629261 284.974788 
L 388.715062 283.82294 
L 389.800863 286.282098 
L 390.886665 283.061992 
L 391.972466 281.550258 
L 393.058267 282.420801 
L 394.144068 284.522865 
L 395.229869 280.614168 
L 396.31567 277.011916 
L 397.401472 273.618867 
L 398.487273 281.179522 
L 398.487273 92.725721 
L 398.487273 92.725721 
L 397.401472 81.922015 
L 396.31567 86.613667 
L 395.229869 92.094084 
L 394.144068 101.837869 
L 393.058267 98.996514 
L 391.972466 93.757836 
L 390.886665 98.173047 
L 389.800863 108.087836 
L 388.715062 101.082505 
L 387.629261 101.213617 
L 386.54346 104.31009 
L 385.457659 101.704286 
L 384.371858 98.423729 
L 383.286057 103.362252 
L 382.200255 110.712769 
L 381.114454 103.489585 
L 380.028653 107.158258 
L 378.942852 106.932837 
L 377.857051 100.271555 
L 376.77125 102.839323 
L 375.685448 98.142827 
L 374.599647 106.824556 
L 373.513846 112.15049 
L 372.428045 109.714947 
L 371.342244 111.203173 
L 370.256443 113.807405 
L 369.170642 108.745743 
L 368.08484 109.541041 
L 366.999039 110.860896 
L 365.913238 109.753551 
L 364.827437 109.187218 
L 363.741636 102.501527 
L 362.655835 99.828019 
L 361.570033 110.635763 
L 360.484232 110.333654 
L 359.398431 100.763695 
L 358.31263 113.121693 
L 357.226829 105.00547 
L 356.141028 109.070195 
L 355.055227 110.434864 
L 353.969425 101.516155 
L 352.883624 87.922084 
L 351.797823 88.89732 
L 350.712022 90.021356 
L 349.626221 87.77653 
L 348.54042 83.949234 
L 347.454618 80.188351 
L 346.368817 87.291899 
L 345.283016 102.364006 
L 344.197215 96.51494 
L 343.111414 91.084173 
L 342.025613 100.252421 
L 340.939811 101.024345 
L 339.85401 91.044688 
L 338.768209 100.384746 
L 337.682408 99.991855 
L 336.596607 113.774582 
L 335.510806 115.183354 
L 334.425005 109.525246 
L 333.339203 108.869236 
L 332.253402 113.037616 
L 331.167601 101.507097 
L 330.0818 99.756912 
L 328.995999 98.681334 
L 327.910198 106.479134 
L 326.824396 110.379409 
L 325.738595 100.500868 
L 324.652794 100.857892 
L 323.566993 112.276141 
L 322.481192 106.815512 
L 321.395391 109.34273 
L 320.30959 105.319473 
L 319.223788 111.108424 
L 318.137987 104.24543 
L 317.052186 109.739586 
L 315.966385 116.742731 
L 314.880584 107.11371 
L 313.794783 114.538073 
L 312.708981 113.283563 
L 311.62318 114.826097 
L 310.537379 106.042572 
L 309.451578 117.648513 
L 308.365777 115.694165 
L 307.279976 100.345516 
L 306.194175 112.155051 
L 305.108373 107.156996 
L 304.022572 109.476324 
L 302.936771 97.378954 
L 301.85097 104.039269 
L 300.765169 105.525558 
L 299.679368 97.409581 
L 298.593566 96.667308 
L 297.507765 101.301926 
L 296.421964 97.123798 
L 295.336163 92.924671 
L 294.250362 101.832556 
L 293.164561 97.525709 
L 292.07876 105.92738 
L 290.992958 114.461742 
L 289.907157 106.160018 
L 288.821356 117.319308 
L 287.735555 125.264616 
L 286.649754 117.393655 
L 285.563953 122.058084 
L 284.478151 117.701289 
L 283.39235 125.74803 
L 282.306549 116.357913 
L 281.220748 110.716245 
L 280.134947 109.190629 
L 279.049146 115.494532 
L 277.963344 96.646745 
L 276.877543 110.779228 
L 275.791742 105.574282 
L 274.705941 108.831728 
L 273.62014 112.208601 
L 272.534339 115.211457 
L 271.448538 114.790501 
L 270.362736 118.691826 
L 269.276935 119.537643 
L 268.191134 116.619308 
L 267.105333 110.923259 
L 266.019532 105.528192 
L 264.933731 104.026304 
L 263.847929 113.227931 
L 262.762128 112.070575 
L 261.676327 116.29513 
L 260.590526 128.230741 
L 259.504725 129.644607 
L 258.418924 115.088288 
L 257.333123 112.062626 
L 256.247321 104.651648 
L 255.16152 107.388816 
L 254.075719 101.974106 
L 252.989918 91.734936 
L 251.904117 90.24634 
L 250.818316 93.690814 
L 249.732514 96.894779 
L 248.646713 91.916869 
L 247.560912 96.691933 
L 246.475111 92.232174 
L 245.38931 101.306661 
L 244.303509 97.031857 
L 243.217708 95.927386 
L 242.131906 91.906733 
L 241.046105 92.393933 
L 239.960304 93.486634 
L 238.874503 85.655849 
L 237.788702 72.620893 
L 236.702901 62.997212 
L 235.617099 63.634753 
L 234.531298 64.852221 
L 233.445497 81.259774 
L 232.359696 64.762516 
L 231.273895 75.852953 
L 230.188094 80.267545 
L 229.102292 89.597115 
L 228.016491 100.63912 
L 226.93069 101.60947 
L 225.844889 90.943869 
L 224.759088 97.01869 
L 223.673287 99.963884 
L 222.587486 93.624605 
L 221.501684 98.370244 
L 220.415883 98.801702 
L 219.330082 92.416927 
L 218.244281 85.490222 
L 217.15848 83.718794 
L 216.072679 89.699143 
L 214.986877 71.978734 
L 213.901076 85.825625 
L 212.815275 74.346242 
L 211.729474 70.767267 
L 210.643673 71.488459 
L 209.557872 79.810814 
L 208.472071 72.677768 
L 207.386269 83.854502 
L 206.300468 76.214679 
L 205.214667 77.119911 
L 204.128866 67.215048 
L 203.043065 72.189669 
L 201.957264 69.478957 
L 200.871462 73.447199 
L 199.785661 72.80582 
L 198.69986 69.547204 
L 197.614059 73.328453 
L 196.528258 80.295153 
L 195.442457 91.189236 
L 194.356656 81.08287 
L 193.270854 78.418817 
L 192.185053 73.66228 
L 191.099252 61.724955 
L 190.013451 64.296939 
L 188.92765 59.9617 
L 187.841849 65.074848 
L 186.756047 62.984405 
L 185.670246 69.255502 
L 184.584445 61.326726 
L 183.498644 55.600526 
L 182.412843 53.568 
L 181.327042 54.900524 
L 180.24124 59.72725 
L 179.155439 66.920489 
L 178.069638 61.620473 
L 176.983837 65.576285 
L 175.898036 65.049751 
L 174.812235 73.965563 
L 173.726434 76.421945 
L 172.640632 78.392783 
L 171.554831 77.914071 
L 170.46903 62.613719 
L 169.383229 73.558315 
L 168.297428 61.272024 
L 167.211627 67.735241 
L 166.125825 69.663311 
L 165.040024 63.549925 
L 163.954223 77.761029 
L 162.868422 71.93974 
L 161.782621 72.844152 
L 160.69682 73.07711 
L 159.611019 74.828593 
L 158.525217 77.936614 
L 157.439416 93.338382 
L 156.353615 99.161114 
L 155.267814 90.709276 
L 154.182013 91.682122 
L 153.096212 78.487899 
L 152.01041 81.83691 
L 150.924609 80.548721 
L 149.838808 90.000646 
L 148.753007 82.751198 
L 147.667206 87.666862 
L 146.581405 81.403425 
L 145.495604 77.521124 
L 144.409802 81.077367 
L 143.324001 92.304641 
L 142.2382 75.912462 
L 141.152399 78.145219 
L 140.066598 81.398787 
L 138.980797 95.232684 
L 137.894995 94.623032 
L 136.809194 96.955994 
L 135.723393 103.482148 
L 134.637592 108.199541 
L 133.551791 91.244948 
L 132.46599 89.497923 
L 131.380189 98.72439 
L 130.294387 97.982279 
L 129.208586 90.262981 
L 128.122785 92.91328 
L 127.036984 109.673367 
L 125.951183 105.837981 
L 124.865382 123.278129 
L 123.77958 131.510939 
L 122.693779 126.553237 
L 121.607978 132.312743 
L 120.522177 119.637548 
L 119.436376 132.254942 
L 118.350575 126.009009 
L 117.264773 109.62134 
L 116.178972 106.854313 
L 115.093171 100.565333 
L 114.00737 94.989384 
L 112.921569 97.044426 
L 111.835768 93.862479 
L 110.749967 105.491915 
L 109.664165 112.285474 
L 108.578364 132.272673 
L 107.492563 115.591751 
L 106.406762 114.127962 
L 105.320961 109.583013 
L 104.23516 108.779121 
L 103.149358 105.950619 
L 102.063557 111.890863 
L 100.977756 98.260198 
L 99.891955 108.152884 
L 98.806154 107.679723 
L 97.720353 120.95792 
L 96.634552 97.679251 
L 95.54875 96.870637 
L 94.462949 103.522042 
L 93.377148 120.782572 
L 92.291347 126.90443 
L 91.205546 136.816371 
L 90.119745 142.034566 
L 89.033943 144.905997 
L 87.948142 132.139761 
L 86.862341 116.229266 
L 85.77654 123.000039 
L 84.690739 116.152425 
L 83.604938 125.844946 
L 82.519137 101.863399 
L 81.433335 89.75672 
L 80.347534 97.102182 
L 79.261733 89.980238 
L 78.175932 79.282529 
L 77.090131 83.312248 
L 76.00433 74.215284 
L 74.918528 68.853543 
L 73.832727 89.38737 
z
" style="fill:#008000;fill-opacity:0.25;"/>
   </g>
   <g id="matplotlib.axis_3">
    <g id="ytick_8">
     <g id="line2d_16">
      <path clip-path="url(#pd7e917419f)" d="M 57.6 298.139348 
L 414.72 298.139348 
" style="fill:none;stroke:#b0b0b0;stroke-linecap:square;stroke-width:0.8;"/>
     </g>
     <g id="line2d_17">
      <defs>
       <path d="M 0 0 
L 3.5 0 
" id="md99646aef0" style="stroke:#000000;stroke-width:0.8;"/>
      </defs>
      <g>
       <use style="stroke:#000000;stroke-width:0.8;" x="414.72" xlink:href="#md99646aef0" y="298.139348"/>
      </g>
     </g>
     <g id="text_16">
      <!-- 0.2 -->
      <defs>
       <path d="M 10.59375 35.5 
L 73.1875 35.5 
L 73.1875 27.203125 
L 10.59375 27.203125 
z
" id="DejaVuSans-8722"/>
      </defs>
      <g transform="translate(421.72 301.938567)scale(0.1 -0.1)">
       <use xlink:href="#DejaVuSans-8722"/>
       <use x="83.789062" xlink:href="#DejaVuSans-48"/>
       <use x="147.412109" xlink:href="#DejaVuSans-46"/>
       <use x="179.199219" xlink:href="#DejaVuSans-50"/>
      </g>
     </g>
    </g>
    <g id="ytick_9">
     <g id="line2d_18">
      <path clip-path="url(#pd7e917419f)" d="M 57.6 258.083652 
L 414.72 258.083652 
" style="fill:none;stroke:#b0b0b0;stroke-linecap:square;stroke-width:0.8;"/>
     </g>
     <g id="line2d_19">
      <g>
       <use style="stroke:#000000;stroke-width:0.8;" x="414.72" xlink:href="#md99646aef0" y="258.083652"/>
      </g>
     </g>
     <g id="text_17">
      <!-- 0.0 -->
      <g transform="translate(421.72 261.88287)scale(0.1 -0.1)">
       <use xlink:href="#DejaVuSans-48"/>
       <use x="63.623047" xlink:href="#DejaVuSans-46"/>
       <use x="95.410156" xlink:href="#DejaVuSans-48"/>
      </g>
     </g>
    </g>
    <g id="ytick_10">
     <g id="line2d_20">
      <path clip-path="url(#pd7e917419f)" d="M 57.6 218.027955 
L 414.72 218.027955 
" style="fill:none;stroke:#b0b0b0;stroke-linecap:square;stroke-width:0.8;"/>
     </g>
     <g id="line2d_21">
      <g>
       <use style="stroke:#000000;stroke-width:0.8;" x="414.72" xlink:href="#md99646aef0" y="218.027955"/>
      </g>
     </g>
     <g id="text_18">
      <!-- 0.2 -->
      <g transform="translate(421.72 221.827174)scale(0.1 -0.1)">
       <use xlink:href="#DejaVuSans-48"/>
       <use x="63.623047" xlink:href="#DejaVuSans-46"/>
       <use x="95.410156" xlink:href="#DejaVuSans-50"/>
      </g>
     </g>
    </g>
    <g id="ytick_11">
     <g id="line2d_22">
      <path clip-path="url(#pd7e917419f)" d="M 57.6 177.972259 
L 414.72 177.972259 
" style="fill:none;stroke:#b0b0b0;stroke-linecap:square;stroke-width:0.8;"/>
     </g>
     <g id="line2d_23">
      <g>
       <use style="stroke:#000000;stroke-width:0.8;" x="414.72" xlink:href="#md99646aef0" y="177.972259"/>
      </g>
     </g>
     <g id="text_19">
      <!-- 0.4 -->
      <g transform="translate(421.72 181.771478)scale(0.1 -0.1)">
       <use xlink:href="#DejaVuSans-48"/>
       <use x="63.623047" xlink:href="#DejaVuSans-46"/>
       <use x="95.410156" xlink:href="#DejaVuSans-52"/>
      </g>
     </g>
    </g>
    <g id="ytick_12">
     <g id="line2d_24">
      <path clip-path="url(#pd7e917419f)" d="M 57.6 137.916563 
L 414.72 137.916563 
" style="fill:none;stroke:#b0b0b0;stroke-linecap:square;stroke-width:0.8;"/>
     </g>
     <g id="line2d_25">
      <g>
       <use style="stroke:#000000;stroke-width:0.8;" x="414.72" xlink:href="#md99646aef0" y="137.916563"/>
      </g>
     </g>
     <g id="text_20">
      <!-- 0.6 -->
      <g transform="translate(421.72 141.715782)scale(0.1 -0.1)">
       <use xlink:href="#DejaVuSans-48"/>
       <use x="63.623047" xlink:href="#DejaVuSans-46"/>
       <use x="95.410156" xlink:href="#DejaVuSans-54"/>
      </g>
     </g>
    </g>
    <g id="ytick_13">
     <g id="line2d_26">
      <path clip-path="url(#pd7e917419f)" d="M 57.6 97.860867 
L 414.72 97.860867 
" style="fill:none;stroke:#b0b0b0;stroke-linecap:square;stroke-width:0.8;"/>
     </g>
     <g id="line2d_27">
      <g>
       <use style="stroke:#000000;stroke-width:0.8;" x="414.72" xlink:href="#md99646aef0" y="97.860867"/>
      </g>
     </g>
     <g id="text_21">
      <!-- 0.8 -->
      <g transform="translate(421.72 101.660085)scale(0.1 -0.1)">
       <use xlink:href="#DejaVuSans-48"/>
       <use x="63.623047" xlink:href="#DejaVuSans-46"/>
       <use x="95.410156" xlink:href="#DejaVuSans-56"/>
      </g>
     </g>
    </g>
    <g id="ytick_14">
     <g id="line2d_28">
      <path clip-path="url(#pd7e917419f)" d="M 57.6 57.80517 
L 414.72 57.80517 
" style="fill:none;stroke:#b0b0b0;stroke-linecap:square;stroke-width:0.8;"/>
     </g>
     <g id="line2d_29">
      <g>
       <use style="stroke:#000000;stroke-width:0.8;" x="414.72" xlink:href="#md99646aef0" y="57.80517"/>
      </g>
     </g>
     <g id="text_22">
      <!-- 1.0 -->
      <g transform="translate(421.72 61.604389)scale(0.1 -0.1)">
       <use xlink:href="#DejaVuSans-49"/>
       <use x="63.623047" xlink:href="#DejaVuSans-46"/>
       <use x="95.410156" xlink:href="#DejaVuSans-48"/>
      </g>
     </g>
    </g>
    <g id="text_23">
     <!-- Loudness -->
     <defs>
      <path d="M 9.8125 72.90625 
L 19.671875 72.90625 
L 19.671875 8.296875 
L 55.171875 8.296875 
L 55.171875 0 
L 9.8125 0 
z
" id="DejaVuSans-76"/>
      <path d="M 30.609375 48.390625 
Q 23.390625 48.390625 19.1875 42.75 
Q 14.984375 37.109375 14.984375 27.296875 
Q 14.984375 17.484375 19.15625 11.84375 
Q 23.34375 6.203125 30.609375 6.203125 
Q 37.796875 6.203125 41.984375 11.859375 
Q 46.1875 17.53125 46.1875 27.296875 
Q 46.1875 37.015625 41.984375 42.703125 
Q 37.796875 48.390625 30.609375 48.390625 
z
M 30.609375 56 
Q 42.328125 56 49.015625 48.375 
Q 55.71875 40.765625 55.71875 27.296875 
Q 55.71875 13.875 49.015625 6.21875 
Q 42.328125 -1.421875 30.609375 -1.421875 
Q 18.84375 -1.421875 12.171875 6.21875 
Q 5.515625 13.875 5.515625 27.296875 
Q 5.515625 40.765625 12.171875 48.375 
Q 18.84375 56 30.609375 56 
z
" id="DejaVuSans-111"/>
      <path d="M 8.5 21.578125 
L 8.5 54.6875 
L 17.484375 54.6875 
L 17.484375 21.921875 
Q 17.484375 14.15625 20.5 10.265625 
Q 23.53125 6.390625 29.59375 6.390625 
Q 36.859375 6.390625 41.078125 11.03125 
Q 45.3125 15.671875 45.3125 23.6875 
L 45.3125 54.6875 
L 54.296875 54.6875 
L 54.296875 0 
L 45.3125 0 
L 45.3125 8.40625 
Q 42.046875 3.421875 37.71875 1 
Q 33.40625 -1.421875 27.6875 -1.421875 
Q 18.265625 -1.421875 13.375 4.4375 
Q 8.5 10.296875 8.5 21.578125 
z
M 31.109375 56 
z
" id="DejaVuSans-117"/>
      <path d="M 45.40625 46.390625 
L 45.40625 75.984375 
L 54.390625 75.984375 
L 54.390625 0 
L 45.40625 0 
L 45.40625 8.203125 
Q 42.578125 3.328125 38.25 0.953125 
Q 33.9375 -1.421875 27.875 -1.421875 
Q 17.96875 -1.421875 11.734375 6.484375 
Q 5.515625 14.40625 5.515625 27.296875 
Q 5.515625 40.1875 11.734375 48.09375 
Q 17.96875 56 27.875 56 
Q 33.9375 56 38.25 53.625 
Q 42.578125 51.265625 45.40625 46.390625 
z
M 14.796875 27.296875 
Q 14.796875 17.390625 18.875 11.75 
Q 22.953125 6.109375 30.078125 6.109375 
Q 37.203125 6.109375 41.296875 11.75 
Q 45.40625 17.390625 45.40625 27.296875 
Q 45.40625 37.203125 41.296875 42.84375 
Q 37.203125 48.484375 30.078125 48.484375 
Q 22.953125 48.484375 18.875 42.84375 
Q 14.796875 37.203125 14.796875 27.296875 
z
" id="DejaVuSans-100"/>
     </defs>
     <g transform="translate(457.60125 198.170187)rotate(-90)scale(0.1 -0.1)">
      <use xlink:href="#DejaVuSans-76"/>
      <use x="55.697266" xlink:href="#DejaVuSans-111"/>
      <use x="116.878906" xlink:href="#DejaVuSans-117"/>
      <use x="180.257812" xlink:href="#DejaVuSans-100"/>
      <use x="243.734375" xlink:href="#DejaVuSans-110"/>
      <use x="307.113281" xlink:href="#DejaVuSans-101"/>
      <use x="368.636719" xlink:href="#DejaVuSans-115"/>
      <use x="420.736328" xlink:href="#DejaVuSans-115"/>
     </g>
    </g>
   </g>
   <g id="line2d_30">
    <path clip-path="url(#pd7e917419f)" d="M 73.832727 177.190779 
L 74.918528 157.83158 
L 76.00433 164.54137 
L 77.090131 174.33382 
L 78.175932 170.012191 
L 79.261733 180.16665 
L 80.347534 184.89995 
L 81.433335 179.332318 
L 82.519137 189.254255 
L 83.604938 206.183857 
L 84.690739 199.980505 
L 85.77654 205.111795 
L 86.862341 201.097126 
L 87.948142 211.426516 
L 89.033943 219.840431 
L 90.119745 218.366489 
L 91.205546 214.550642 
L 92.291347 208.054624 
L 93.377148 204.368463 
L 94.462949 191.510411 
L 95.54875 186.727888 
L 96.634552 188.335708 
L 97.720353 204.247339 
L 98.806154 195.198615 
L 99.891955 196.038325 
L 100.977756 187.452053 
L 102.063557 199.557573 
L 103.149358 193.724497 
L 104.23516 197.358298 
L 105.320961 196.491302 
L 106.406762 199.238275 
L 107.492563 200.478009 
L 108.578364 211.632616 
L 109.664165 198.913524 
L 110.749967 194.735138 
L 111.835768 186.054356 
L 112.921569 188.037116 
L 114.00737 187.860703 
L 115.093171 191.944538 
L 116.178972 196.510132 
L 117.264773 199.31985 
L 118.350575 209.715235 
L 119.436376 213.845179 
L 120.522177 205.574923 
L 121.607978 213.900372 
L 122.693779 210.526132 
L 123.77958 213.264124 
L 124.865382 208.37134 
L 125.951183 195.332571 
L 127.036984 198.908049 
L 128.122785 186.222971 
L 129.208586 184.988513 
L 130.294387 190.322092 
L 131.380189 190.37616 
L 132.46599 183.678634 
L 133.551791 185.433468 
L 134.637592 196.784508 
L 136.809194 189.411849 
L 137.894995 187.479125 
L 138.980797 187.350563 
L 140.066598 175.837859 
L 142.2382 171.04385 
L 143.324001 184.242449 
L 144.409802 175.241557 
L 145.495604 172.025573 
L 146.581405 175.811232 
L 147.667206 180.585669 
L 148.753007 176.116635 
L 149.838808 182.34241 
L 150.924609 173.594121 
L 152.01041 175.37844 
L 153.096212 172.87096 
L 154.182013 183.206388 
L 155.267814 181.989746 
L 156.353615 189.677379 
L 157.439416 185.077081 
L 158.525217 172.79368 
L 159.611019 170.052446 
L 160.69682 169.018542 
L 161.782621 169.198545 
L 162.868422 168.20252 
L 163.954223 173.152718 
L 165.040024 160.888059 
L 166.125825 166.644485 
L 167.211627 164.879379 
L 168.297428 159.034837 
L 169.383229 169.135533 
L 170.46903 158.912911 
L 171.554831 172.626857 
L 172.640632 174.125746 
L 174.812235 171.030048 
L 175.898036 161.934836 
L 176.983837 163.238184 
L 178.069638 159.027497 
L 179.155439 164.442463 
L 180.24124 156.555068 
L 181.327042 150.961885 
L 182.412843 148.495031 
L 183.498644 151.480386 
L 184.584445 157.180486 
L 185.670246 165.087022 
L 186.756047 158.106143 
L 187.841849 159.359503 
L 188.92765 156.334034 
L 190.013451 160.097197 
L 191.099252 156.584028 
L 192.185053 168.038593 
L 193.270854 171.949272 
L 194.356656 175.320008 
L 195.442457 183.935313 
L 196.528258 174.043782 
L 197.614059 169.071791 
L 198.69986 166.008053 
L 199.785661 168.523752 
L 200.871462 170.591755 
L 201.957264 166.537887 
L 203.043065 169.303117 
L 204.128866 163.680033 
L 205.214667 173.099061 
L 206.300468 172.451696 
L 207.386269 179.198334 
L 208.472071 169.316647 
L 209.557872 175.202355 
L 210.643673 167.406588 
L 211.729474 167.211982 
L 212.815275 170.868332 
L 213.901076 179.926904 
L 214.986877 168.337948 
L 216.072679 183.791615 
L 217.15848 178.174647 
L 218.244281 179.906991 
L 219.330082 185.777818 
L 220.415883 190.131424 
L 221.501684 188.807723 
L 222.587486 186.213444 
L 223.673287 191.034087 
L 224.759088 188.007675 
L 225.844889 184.240651 
L 226.93069 192.282477 
L 228.016491 192.0678 
L 229.102292 183.444454 
L 230.188094 175.941374 
L 231.273895 171.334281 
L 232.359696 161.226685 
L 233.445497 176.33893 
L 234.531298 161.242672 
L 235.617099 160.751668 
L 236.702901 160.465 
L 237.788702 169.837998 
L 238.874503 181.411788 
L 239.960304 186.304264 
L 241.046105 185.40387 
L 242.131906 185.19802 
L 243.217708 188.425312 
L 244.303509 189.155206 
L 245.38931 192.47268 
L 246.475111 185.380404 
L 247.560912 188.820916 
L 248.646713 185.68348 
L 249.732514 189.325422 
L 250.818316 186.075161 
L 251.904117 184.009565 
L 252.989918 184.635914 
L 254.075719 192.798625 
L 255.16152 196.0121 
L 256.247321 193.543332 
L 257.333123 199.500243 
L 258.418924 201.818766 
L 259.504725 210.761 
L 260.590526 210.349185 
L 261.676327 202.773121 
L 262.762128 199.454185 
L 263.847929 200.148609 
L 264.933731 194.528558 
L 266.019532 194.193144 
L 267.105333 199.313025 
L 268.191134 203.334934 
L 269.276935 204.769605 
L 270.362736 204.938401 
L 271.448538 202.803514 
L 272.534339 202.834869 
L 273.62014 200.903987 
L 275.791742 195.937727 
L 276.877543 199.55445 
L 277.963344 187.905854 
L 279.049146 201.266364 
L 280.134947 197.407305 
L 281.220748 197.835819 
L 282.306549 202.93723 
L 283.39235 208.620523 
L 284.478151 204.153615 
L 285.563953 206.391799 
L 286.649754 202.823168 
L 287.735555 208.246077 
L 288.821356 202.955847 
L 289.907157 195.500379 
L 290.992958 200.37784 
L 292.07876 195.148917 
L 293.164561 189.187477 
L 294.250362 192.165749 
L 295.336163 185.809109 
L 297.507765 191.820456 
L 298.593566 188.94095 
L 299.679368 189.764407 
L 300.765169 195.314928 
L 301.85097 193.892371 
L 302.936771 189.571414 
L 304.022572 198.161239 
L 305.108373 197.051983 
L 306.194175 200.520687 
L 307.279976 191.90004 
L 308.365777 202.14702 
L 309.451578 203.758937 
L 310.537379 195.897954 
L 311.62318 202.182781 
L 312.708981 201.008423 
L 313.794783 201.873994 
L 314.880584 196.46995 
L 315.966385 202.688398 
L 317.052186 198.382772 
L 318.137987 194.834014 
L 319.223788 199.779689 
L 320.30959 196.399716 
L 321.395391 199.367212 
L 322.481192 196.986642 
L 323.566993 201.119586 
L 324.652794 192.430139 
L 325.738595 192.274747 
L 326.824396 199.392753 
L 327.910198 196.75138 
L 328.995999 190.741899 
L 330.0818 191.375108 
L 331.167601 192.348652 
L 332.253402 200.989328 
L 333.339203 198.160168 
L 334.425005 198.749978 
L 335.510806 202.114938 
L 336.596607 201.582521 
L 337.682408 191.779508 
L 338.768209 191.86701 
L 339.85401 184.374859 
L 340.939811 191.181537 
L 342.025613 191.569295 
L 343.111414 184.194195 
L 344.197215 189.195135 
L 345.283016 192.828678 
L 346.368817 180.524444 
L 347.454618 174.263648 
L 348.54042 178.194301 
L 349.626221 181.120021 
L 350.712022 183.213289 
L 351.797823 181.883706 
L 352.883624 181.713819 
L 353.969425 192.631872 
L 355.055227 198.406275 
L 356.141028 196.930568 
L 357.226829 194.572326 
L 358.31263 200.173604 
L 359.398431 190.992377 
L 360.484232 197.905897 
L 361.570033 198.831424 
L 362.655835 190.296903 
L 363.741636 192.584352 
L 364.827437 196.985512 
L 365.913238 197.709353 
L 366.999039 197.574124 
L 368.08484 197.187717 
L 369.170642 196.582266 
L 370.256443 200.245634 
L 371.342244 198.681314 
L 372.428045 198.030198 
L 373.513846 198.982452 
L 374.599647 195.651433 
L 375.685448 189.517924 
L 376.77125 193.215172 
L 377.857051 191.844604 
L 378.942852 196.197522 
L 380.028653 196.909367 
L 381.114454 194.403469 
L 382.200255 199.106241 
L 383.286057 194.568952 
L 384.371858 191.031547 
L 385.457659 193.388656 
L 386.54346 195.382926 
L 387.629261 193.094203 
L 388.715062 192.452723 
L 389.800863 197.184967 
L 390.886665 190.61752 
L 391.972466 187.654047 
L 393.058267 190.708657 
L 394.144068 193.180367 
L 395.229869 186.354126 
L 396.31567 181.812792 
L 397.401472 177.770441 
L 398.487273 186.952621 
L 398.487273 186.952621 
" style="fill:none;stroke:#008000;stroke-linecap:square;stroke-width:1.5;"/>
   </g>
   <g id="patch_7">
    <path d="M 57.6 307.584 
L 57.6 41.472 
" style="fill:none;stroke:#000000;stroke-linecap:square;stroke-linejoin:miter;stroke-width:0.8;"/>
   </g>
   <g id="patch_8">
    <path d="M 414.72 307.584 
L 414.72 41.472 
" style="fill:none;stroke:#000000;stroke-linecap:square;stroke-linejoin:miter;stroke-width:0.8;"/>
   </g>
   <g id="patch_9">
    <path d="M 57.6 307.584 
L 414.72 307.584 
" style="fill:none;stroke:#000000;stroke-linecap:square;stroke-linejoin:miter;stroke-width:0.8;"/>
   </g>
   <g id="patch_10">
    <path d="M 57.6 41.472 
L 414.72 41.472 
" style="fill:none;stroke:#000000;stroke-linecap:square;stroke-linejoin:miter;stroke-width:0.8;"/>
   </g>
   <g id="text_24">
    <!-- Message Difference and Loudness -->
    <defs>
     <path d="M 9.8125 72.90625 
L 24.515625 72.90625 
L 43.109375 23.296875 
L 61.8125 72.90625 
L 76.515625 72.90625 
L 76.515625 0 
L 66.890625 0 
L 66.890625 64.015625 
L 48.09375 14.015625 
L 38.1875 14.015625 
L 19.390625 64.015625 
L 19.390625 0 
L 9.8125 0 
z
" id="DejaVuSans-77"/>
     <path d="M 45.40625 27.984375 
Q 45.40625 37.75 41.375 43.109375 
Q 37.359375 48.484375 30.078125 48.484375 
Q 22.859375 48.484375 18.828125 43.109375 
Q 14.796875 37.75 14.796875 27.984375 
Q 14.796875 18.265625 18.828125 12.890625 
Q 22.859375 7.515625 30.078125 7.515625 
Q 37.359375 7.515625 41.375 12.890625 
Q 45.40625 18.265625 45.40625 27.984375 
z
M 54.390625 6.78125 
Q 54.390625 -7.171875 48.1875 -13.984375 
Q 42 -20.796875 29.203125 -20.796875 
Q 24.46875 -20.796875 20.265625 -20.09375 
Q 16.0625 -19.390625 12.109375 -17.921875 
L 12.109375 -9.1875 
Q 16.0625 -11.328125 19.921875 -12.34375 
Q 23.78125 -13.375 27.78125 -13.375 
Q 36.625 -13.375 41.015625 -8.765625 
Q 45.40625 -4.15625 45.40625 5.171875 
L 45.40625 9.625 
Q 42.625 4.78125 38.28125 2.390625 
Q 33.9375 0 27.875 0 
Q 17.828125 0 11.671875 7.65625 
Q 5.515625 15.328125 5.515625 27.984375 
Q 5.515625 40.671875 11.671875 48.328125 
Q 17.828125 56 27.875 56 
Q 33.9375 56 38.28125 53.609375 
Q 42.625 51.21875 45.40625 46.390625 
L 45.40625 54.6875 
L 54.390625 54.6875 
z
" id="DejaVuSans-103"/>
     <path id="DejaVuSans-32"/>
     <path d="M 37.109375 75.984375 
L 37.109375 68.5 
L 28.515625 68.5 
Q 23.6875 68.5 21.796875 66.546875 
Q 19.921875 64.59375 19.921875 59.515625 
L 19.921875 54.6875 
L 34.71875 54.6875 
L 34.71875 47.703125 
L 19.921875 47.703125 
L 19.921875 0 
L 10.890625 0 
L 10.890625 47.703125 
L 2.296875 47.703125 
L 2.296875 54.6875 
L 10.890625 54.6875 
L 10.890625 58.5 
Q 10.890625 67.625 15.140625 71.796875 
Q 19.390625 75.984375 28.609375 75.984375 
z
" id="DejaVuSans-102"/>
     <path d="M 41.109375 46.296875 
Q 39.59375 47.171875 37.8125 47.578125 
Q 36.03125 48 33.890625 48 
Q 26.265625 48 22.1875 43.046875 
Q 18.109375 38.09375 18.109375 28.8125 
L 18.109375 0 
L 9.078125 0 
L 9.078125 54.6875 
L 18.109375 54.6875 
L 18.109375 46.1875 
Q 20.953125 51.171875 25.484375 53.578125 
Q 30.03125 56 36.53125 56 
Q 37.453125 56 38.578125 55.875 
Q 39.703125 55.765625 41.0625 55.515625 
z
" id="DejaVuSans-114"/>
    </defs>
    <g transform="translate(133.329375 35.472)scale(0.12 -0.12)">
     <use xlink:href="#DejaVuSans-77"/>
     <use x="86.279297" xlink:href="#DejaVuSans-101"/>
     <use x="147.802734" xlink:href="#DejaVuSans-115"/>
     <use x="199.902344" xlink:href="#DejaVuSans-115"/>
     <use x="252.001953" xlink:href="#DejaVuSans-97"/>
     <use x="313.28125" xlink:href="#DejaVuSans-103"/>
     <use x="376.757812" xlink:href="#DejaVuSans-101"/>
     <use x="438.28125" xlink:href="#DejaVuSans-32"/>
     <use x="470.068359" xlink:href="#DejaVuSans-68"/>
     <use x="547.070312" xlink:href="#DejaVuSans-105"/>
     <use x="574.853516" xlink:href="#DejaVuSans-102"/>
     <use x="610.058594" xlink:href="#DejaVuSans-102"/>
     <use x="645.263672" xlink:href="#DejaVuSans-101"/>
     <use x="706.787109" xlink:href="#DejaVuSans-114"/>
     <use x="747.869141" xlink:href="#DejaVuSans-101"/>
     <use x="809.392578" xlink:href="#DejaVuSans-110"/>
     <use x="872.771484" xlink:href="#DejaVuSans-99"/>
     <use x="927.751953" xlink:href="#DejaVuSans-101"/>
     <use x="989.275391" xlink:href="#DejaVuSans-32"/>
     <use x="1021.0625" xlink:href="#DejaVuSans-97"/>
     <use x="1082.341797" xlink:href="#DejaVuSans-110"/>
     <use x="1145.720703" xlink:href="#DejaVuSans-100"/>
     <use x="1209.197266" xlink:href="#DejaVuSans-32"/>
     <use x="1240.984375" xlink:href="#DejaVuSans-76"/>
     <use x="1296.681641" xlink:href="#DejaVuSans-111"/>
     <use x="1357.863281" xlink:href="#DejaVuSans-117"/>
     <use x="1421.242188" xlink:href="#DejaVuSans-100"/>
     <use x="1484.71875" xlink:href="#DejaVuSans-110"/>
     <use x="1548.097656" xlink:href="#DejaVuSans-101"/>
     <use x="1609.621094" xlink:href="#DejaVuSans-115"/>
     <use x="1661.720703" xlink:href="#DejaVuSans-115"/>
    </g>
   </g>
   <g id="legend_1">
    <g id="patch_11">
     <path d="M 331.227813 64.150125 
L 407.72 64.150125 
Q 409.72 64.150125 409.72 62.150125 
L 409.72 48.472 
Q 409.72 46.472 407.72 46.472 
L 331.227813 46.472 
Q 329.227813 46.472 329.227813 48.472 
L 329.227813 62.150125 
Q 329.227813 64.150125 331.227813 64.150125 
z
" style="fill:#ffffff;opacity:0.8;stroke:#cccccc;stroke-linejoin:miter;"/>
    </g>
    <g id="line2d_31">
     <path d="M 333.227813 54.570438 
L 353.227813 54.570438 
" style="fill:none;stroke:#008000;stroke-linecap:square;stroke-width:1.5;"/>
    </g>
    <g id="line2d_32"/>
    <g id="text_25">
     <!-- loudness -->
     <defs>
      <path d="M 9.421875 75.984375 
L 18.40625 75.984375 
L 18.40625 0 
L 9.421875 0 
z
" id="DejaVuSans-108"/>
     </defs>
     <g transform="translate(361.227813 58.070438)scale(0.1 -0.1)">
      <use xlink:href="#DejaVuSans-108"/>
      <use x="27.783203" xlink:href="#DejaVuSans-111"/>
      <use x="88.964844" xlink:href="#DejaVuSans-117"/>
      <use x="152.34375" xlink:href="#DejaVuSans-100"/>
      <use x="215.820312" xlink:href="#DejaVuSans-110"/>
      <use x="279.199219" xlink:href="#DejaVuSans-101"/>
      <use x="340.722656" xlink:href="#DejaVuSans-115"/>
      <use x="392.822266" xlink:href="#DejaVuSans-115"/>
     </g>
    </g>
   </g>
  </g>
 </g>
 <defs>
  <clipPath id="pd7e917419f">
   <rect height="266.112" width="357.12" x="57.6" y="41.472"/>
  </clipPath>
 </defs>
</svg>
