<?xml version="1.0" encoding="UTF-8" standalone="no"?>
<!DOCTYPE svg PUBLIC "-//W3C//DTD SVG 1.1//EN"
 "http://www.w3.org/Graphics/SVG/1.1/DTD/svg11.dtd">
<!-- Generated by graphviz version 2.40.1 (20161225.0304)
 -->
<!-- Title: %3 Pages: 1 -->
<svg width="490pt" height="434pt"
 viewBox="0.00 0.00 490.42 434.10" xmlns="http://www.w3.org/2000/svg" xmlns:xlink="http://www.w3.org/1999/xlink">
<g id="graph0" class="graph" transform="scale(1 1) rotate(0) translate(4 430.0991)">
<title>%3</title>
<polygon fill="#ffffff" stroke="transparent" points="-4,4 -4,-430.0991 486.4247,-430.0991 486.4247,4 -4,4"/>
<!-- 0 -->
<g id="node1" class="node">
<title>0</title>
<polygon fill="#d3d3d3" stroke="#000000" points="242.389,-426.0991 222.3771,-426.0991 222.3771,-409.0991 242.389,-409.0991 242.389,-426.0991"/>
<text text-anchor="middle" x="232.383" y="-414.8991" font-family="Times,serif" font-size="9.00" fill="#000000">0</text>
</g>
<!-- 1 -->
<g id="node2" class="node">
<title>1</title>
<polygon fill="#d3d3d3" stroke="#000000" points="281.389,-426.0991 261.3771,-426.0991 261.3771,-409.0991 281.389,-409.0991 281.389,-426.0991"/>
<text text-anchor="middle" x="271.383" y="-414.8991" font-family="Times,serif" font-size="9.00" fill="#000000">1</text>
</g>
<!-- 0&#45;&gt;1 -->
<!-- E7 -->
<g id="node11" class="node">
<title>E7</title>
<ellipse fill="#87cefa" stroke="#000000" cx="403.383" cy="-18.383" rx="18.2668" ry="18.2668"/>
<text text-anchor="middle" x="403.383" y="-15.683" font-family="Times,serif" font-size="9.00" fill="#000000">E7</text>
</g>
<!-- 0&#45;&gt;E7 -->
<g id="edge11" class="edge">
<title>0&#45;&gt;E7</title>
<path fill="none" stroke="#00ff00" stroke-width="2.7896" d="M236.3646,-408.8646C246.4822,-385.8444 272.383,-321.4023 272.383,-264.9743 272.383,-264.9743 272.383,-264.9743 272.383,-180.891 272.383,-146.3823 344.888,-73.2759 382.0167,-38.1015"/>
<polygon fill="#00ff00" stroke="#00ff00" stroke-width="2.7896" points="384.4721,-40.597 389.3638,-31.199 379.6791,-35.4953 384.4721,-40.597"/>
</g>
<!-- 2 -->
<g id="node3" class="node">
<title>2</title>
<polygon fill="#d3d3d3" stroke="#000000" points="320.389,-426.0991 300.3771,-426.0991 300.3771,-409.0991 320.389,-409.0991 320.389,-426.0991"/>
<text text-anchor="middle" x="310.383" y="-414.8991" font-family="Times,serif" font-size="9.00" fill="#000000">2</text>
</g>
<!-- 1&#45;&gt;2 -->
<!-- E2 -->
<g id="node6" class="node">
<title>E2</title>
<ellipse fill="#87cefa" stroke="#000000" cx="128.383" cy="-18.383" rx="18.2668" ry="18.2668"/>
<text text-anchor="middle" x="128.383" y="-15.683" font-family="Times,serif" font-size="9.00" fill="#000000">E2</text>
</g>
<!-- 1&#45;&gt;E2 -->
<g id="edge13" class="edge">
<title>1&#45;&gt;E2</title>
<path fill="none" stroke="#ff0000" stroke-width="1.8144" d="M261.31,-413.0125C258.1645,-411.6633 254.6599,-410.2436 251.383,-409.0991 194.7835,-389.3314 168.0793,-410.6988 121.383,-373.0991 79.0705,-339.0292 64.383,-319.2984 64.383,-264.9743 64.383,-264.9743 64.383,-264.9743 64.383,-180.891 64.383,-128.6798 93.3367,-73.1852 112.2951,-42.4444"/>
<polygon fill="#ff0000" stroke="#ff0000" stroke-width="1.8144" points="115.4207,-44.0507 117.8148,-33.7299 109.5071,-40.3051 115.4207,-44.0507"/>
</g>
<!-- E4 -->
<g id="node8" class="node">
<title>E4</title>
<ellipse fill="#87cefa" stroke="#000000" cx="238.383" cy="-18.383" rx="18.2668" ry="18.2668"/>
<text text-anchor="middle" x="238.383" y="-15.683" font-family="Times,serif" font-size="9.00" fill="#000000">E4</text>
</g>
<!-- 2&#45;&gt;E4 -->
<g id="edge12" class="edge">
<title>2&#45;&gt;E4</title>
<path fill="none" stroke="#ff0000" stroke-width="2.5739" d="M310.383,-408.9933C310.383,-385.7611 310.383,-319.8238 310.383,-264.9743 310.383,-264.9743 310.383,-264.9743 310.383,-180.891 310.383,-127.247 277.182,-71.5217 255.8711,-41.2784"/>
<polygon fill="#ff0000" stroke="#ff0000" stroke-width="2.5739" points="258.6477,-39.145 249.9511,-33.0936 252.9758,-43.2475 258.6477,-39.145"/>
</g>
<!-- E0 -->
<g id="node4" class="node">
<title>E0</title>
<ellipse fill="#87cefa" stroke="#000000" cx="18.383" cy="-18.383" rx="18.2668" ry="18.2668"/>
<text text-anchor="middle" x="18.383" y="-15.683" font-family="Times,serif" font-size="9.00" fill="#000000">E0</text>
</g>
<!-- E1 -->
<g id="node5" class="node">
<title>E1</title>
<ellipse fill="#87cefa" stroke="#000000" cx="73.383" cy="-18.383" rx="18.2668" ry="18.2668"/>
<text text-anchor="middle" x="73.383" y="-15.683" font-family="Times,serif" font-size="9.00" fill="#000000">E1</text>
</g>
<!-- E0&#45;&gt;E1 -->
<!-- E1&#45;&gt;E2 -->
<!-- E3 -->
<g id="node7" class="node">
<title>E3</title>
<ellipse fill="#87cefa" stroke="#000000" cx="183.383" cy="-18.383" rx="18.2668" ry="18.2668"/>
<text text-anchor="middle" x="183.383" y="-15.683" font-family="Times,serif" font-size="9.00" fill="#000000">E3</text>
</g>
<!-- E2&#45;&gt;E3 -->
<!-- E3&#45;&gt;E4 -->
<!-- E5 -->
<g id="node9" class="node">
<title>E5</title>
<ellipse fill="#87cefa" stroke="#000000" cx="293.383" cy="-18.383" rx="18.2668" ry="18.2668"/>
<text text-anchor="middle" x="293.383" y="-15.683" font-family="Times,serif" font-size="9.00" fill="#000000">E5</text>
</g>
<!-- E4&#45;&gt;E5 -->
<!-- E6 -->
<g id="node10" class="node">
<title>E6</title>
<ellipse fill="#87cefa" stroke="#000000" cx="348.383" cy="-18.383" rx="18.2668" ry="18.2668"/>
<text text-anchor="middle" x="348.383" y="-15.683" font-family="Times,serif" font-size="9.00" fill="#000000">E6</text>
</g>
<!-- E5&#45;&gt;E6 -->
<!-- E6&#45;&gt;E7 -->
<!-- E8 -->
<g id="node12" class="node">
<title>E8</title>
<ellipse fill="#87cefa" stroke="#000000" cx="458.383" cy="-18.383" rx="18.2668" ry="18.2668"/>
<text text-anchor="middle" x="458.383" y="-15.683" font-family="Times,serif" font-size="9.00" fill="#000000">E8</text>
</g>
<!-- E7&#45;&gt;E8 -->
<!-- 4740 -->
<g id="node13" class="node">
<title>4740</title>
<ellipse fill="#add8e6" stroke="#000000" cx="183.383" cy="-96.8077" rx="24.0833" ry="24.0833"/>
<text text-anchor="middle" x="183.383" y="-98.6077" font-family="Times,serif" font-size="9.00" fill="#000000">4740</text>
<text text-anchor="middle" x="183.383" y="-89.6077" font-family="Times,serif" font-size="9.00" fill="#000000">sigm</text>
</g>
<!-- 4740&#45;&gt;E3 -->
<g id="edge22" class="edge">
<title>4740&#45;&gt;E3</title>
<path fill="none" stroke="#00ff00" stroke-width=".352" d="M183.383,-72.4236C183.383,-64.33 183.383,-55.248 183.383,-46.8729"/>
<polygon fill="#00ff00" stroke="#00ff00" stroke-width=".352" points="186.8831,-46.7701 183.383,-36.7702 179.8831,-46.7702 186.8831,-46.7701"/>
</g>
<!-- 4489 -->
<g id="node14" class="node">
<title>4489</title>
<ellipse fill="#add8e6" stroke="#000000" cx="458.383" cy="-180.891" rx="24.0833" ry="24.0833"/>
<text text-anchor="middle" x="458.383" y="-182.691" font-family="Times,serif" font-size="9.00" fill="#000000">4489</text>
<text text-anchor="middle" x="458.383" y="-173.691" font-family="Times,serif" font-size="9.00" fill="#000000">sigm</text>
</g>
<!-- 5338 -->
<g id="node18" class="node">
<title>5338</title>
<ellipse fill="#add8e6" stroke="#000000" cx="458.383" cy="-96.8077" rx="24.0833" ry="24.0833"/>
<text text-anchor="middle" x="458.383" y="-98.6077" font-family="Times,serif" font-size="9.00" fill="#000000">5338</text>
<text text-anchor="middle" x="458.383" y="-89.6077" font-family="Times,serif" font-size="9.00" fill="#000000">sigm</text>
</g>
<!-- 4489&#45;&gt;5338 -->
<g id="edge20" class="edge">
<title>4489&#45;&gt;5338</title>
<path fill="none" stroke="#ff0000" stroke-width=".3409" d="M458.383,-156.5706C458.383,-148.6398 458.383,-139.6791 458.383,-131.1553"/>
<polygon fill="#ff0000" stroke="#ff0000" stroke-width=".3409" points="461.8831,-131.0734 458.383,-121.0734 454.8831,-131.0735 461.8831,-131.0734"/>
</g>
<!-- 5325 -->
<g id="node15" class="node">
<title>5325</title>
<ellipse fill="#add8e6" stroke="#000000" cx="154.383" cy="-264.9743" rx="24.0833" ry="24.0833"/>
<text text-anchor="middle" x="154.383" y="-266.7743" font-family="Times,serif" font-size="9.00" fill="#000000">5325</text>
<text text-anchor="middle" x="154.383" y="-257.7743" font-family="Times,serif" font-size="9.00" fill="#000000">sigm</text>
</g>
<!-- 5325&#45;&gt;4740 -->
<g id="edge19" class="edge">
<title>5325&#45;&gt;4740</title>
<path fill="none" stroke="#ff0000" stroke-width=".3653" d="M158.4765,-241.2368C163.4497,-212.3981 171.8748,-163.5424 177.5319,-130.7374"/>
<polygon fill="#ff0000" stroke="#ff0000" stroke-width=".3653" points="181.0132,-131.1455 179.2635,-120.6961 174.115,-129.9559 181.0132,-131.1455"/>
</g>
<!-- 4916 -->
<g id="node16" class="node">
<title>4916</title>
<ellipse fill="#add8e6" stroke="#000000" cx="154.383" cy="-349.0575" rx="24.0833" ry="24.0833"/>
<text text-anchor="middle" x="154.383" y="-350.8575" font-family="Times,serif" font-size="9.00" fill="#000000">4916</text>
<text text-anchor="middle" x="154.383" y="-341.8575" font-family="Times,serif" font-size="9.00" fill="#000000">sigm</text>
</g>
<!-- 4916&#45;&gt;E0 -->
<g id="edge17" class="edge">
<title>4916&#45;&gt;E0</title>
<path fill="none" stroke="#00ff00" stroke-width=".2744" d="M142.0472,-328.3078C135.5091,-316.9086 127.5732,-302.4033 121.383,-289.0159 81.2977,-202.3236 43.9812,-95.2513 27.4013,-45.7954"/>
<polygon fill="#00ff00" stroke="#00ff00" stroke-width=".2744" points="30.6672,-44.5247 24.1846,-36.1446 24.0264,-46.7383 30.6672,-44.5247"/>
</g>
<!-- 4916&#45;&gt;5325 -->
<g id="edge18" class="edge">
<title>4916&#45;&gt;5325</title>
<path fill="none" stroke="#00ff00" stroke-width=".4851" d="M154.383,-324.7372C154.383,-316.8063 154.383,-307.8457 154.383,-299.3219"/>
<polygon fill="#00ff00" stroke="#00ff00" stroke-width=".4851" points="157.8831,-299.2399 154.383,-289.24 150.8831,-299.24 157.8831,-299.2399"/>
</g>
<!-- 5305 -->
<g id="node17" class="node">
<title>5305</title>
<ellipse fill="#add8e6" stroke="#000000" cx="220.383" cy="-264.9743" rx="24.0833" ry="24.0833"/>
<text text-anchor="middle" x="220.383" y="-266.7743" font-family="Times,serif" font-size="9.00" fill="#000000">5305</text>
<text text-anchor="middle" x="220.383" y="-257.7743" font-family="Times,serif" font-size="9.00" fill="#000000">sigm</text>
</g>
<!-- 4916&#45;&gt;5305 -->
<g id="edge15" class="edge">
<title>4916&#45;&gt;5305</title>
<path fill="none" stroke="#00ff00" stroke-width=".6416" d="M169.3595,-329.9777C178.1355,-318.7971 189.3648,-304.4911 199.0535,-292.1478"/>
<polygon fill="#00ff00" stroke="#00ff00" stroke-width=".6416" points="202.0446,-294.0058 205.4659,-283.9785 196.5383,-289.6837 202.0446,-294.0058"/>
</g>
<!-- 5212 -->
<g id="node19" class="node">
<title>5212</title>
<ellipse fill="#add8e6" stroke="#000000" cx="216.383" cy="-180.891" rx="24.0833" ry="24.0833"/>
<text text-anchor="middle" x="216.383" y="-182.691" font-family="Times,serif" font-size="9.00" fill="#000000">5212</text>
<text text-anchor="middle" x="216.383" y="-173.691" font-family="Times,serif" font-size="9.00" fill="#000000">sigm</text>
</g>
<!-- 5305&#45;&gt;5212 -->
<g id="edge16" class="edge">
<title>5305&#45;&gt;5212</title>
<path fill="none" stroke="#ff0000" stroke-width=".207" d="M219.2261,-240.6539C218.8488,-232.7231 218.4225,-223.7624 218.017,-215.2386"/>
<polygon fill="#ff0000" stroke="#ff0000" stroke-width=".207" points="221.5087,-214.9791 217.5374,-205.1567 214.5166,-215.3117 221.5087,-214.9791"/>
</g>
<!-- 5338&#45;&gt;E8 -->
<g id="edge21" class="edge">
<title>5338&#45;&gt;E8</title>
<path fill="none" stroke="#00ff00" stroke-width=".5009" d="M458.383,-72.4236C458.383,-64.33 458.383,-55.248 458.383,-46.8729"/>
<polygon fill="#00ff00" stroke="#00ff00" stroke-width=".5009" points="461.8831,-46.7701 458.383,-36.7702 454.8831,-46.7702 461.8831,-46.7701"/>
</g>
<!-- 5212&#45;&gt;4740 -->
<g id="edge14" class="edge">
<title>5212&#45;&gt;4740</title>
<path fill="none" stroke="#00ff00" stroke-width=".1121" d="M207.5397,-158.3582C203.9886,-149.3102 199.8296,-138.7131 195.9729,-128.8865"/>
<polygon fill="#00ff00" stroke="#00ff00" stroke-width=".1121" points="199.1624,-127.4327 192.2509,-119.4027 192.6462,-129.9902 199.1624,-127.4327"/>
</g>
</g>
</svg>
