<?xml version="1.0" encoding="UTF-8" standalone="no"?>
<!DOCTYPE svg PUBLIC "-//W3C//DTD SVG 1.1//EN"
 "http://www.w3.org/Graphics/SVG/1.1/DTD/svg11.dtd">
<!-- Generated by graphviz version 2.40.1 (20161225.0304)
 -->
<!-- Title: %3 Pages: 1 -->
<svg width="485pt" height="350pt"
 viewBox="0.00 0.00 484.77 350.02" xmlns="http://www.w3.org/2000/svg" xmlns:xlink="http://www.w3.org/1999/xlink">
<g id="graph0" class="graph" transform="scale(1 1) rotate(0) translate(4 346.0159)">
<title>%3</title>
<polygon fill="#ffffff" stroke="transparent" points="-4,4 -4,-346.0159 480.7661,-346.0159 480.7661,4 -4,4"/>
<!-- 0 -->
<g id="node1" class="node">
<title>0</title>
<polygon fill="#d3d3d3" stroke="#000000" points="241.389,-342.0159 221.3771,-342.0159 221.3771,-325.0159 241.389,-325.0159 241.389,-342.0159"/>
<text text-anchor="middle" x="231.383" y="-330.8159" font-family="Times,serif" font-size="9.00" fill="#000000">0</text>
</g>
<!-- 1 -->
<g id="node2" class="node">
<title>1</title>
<polygon fill="#d3d3d3" stroke="#000000" points="280.389,-342.0159 260.3771,-342.0159 260.3771,-325.0159 280.389,-325.0159 280.389,-342.0159"/>
<text text-anchor="middle" x="270.383" y="-330.8159" font-family="Times,serif" font-size="9.00" fill="#000000">1</text>
</g>
<!-- 0&#45;&gt;1 -->
<!-- E7 -->
<g id="node11" class="node">
<title>E7</title>
<ellipse fill="#87cefa" stroke="#000000" cx="403.383" cy="-18.383" rx="18.2668" ry="18.2668"/>
<text text-anchor="middle" x="403.383" y="-15.683" font-family="Times,serif" font-size="9.00" fill="#000000">E7</text>
</g>
<!-- 0&#45;&gt;E7 -->
<g id="edge12" class="edge">
<title>0&#45;&gt;E7</title>
<path fill="none" stroke="#00ff00" stroke-width="1.6194" d="M232.6519,-324.9815C238.1682,-290.276 262.7597,-157.5567 327.383,-72.7661 331.234,-67.7134 358.8211,-48.4867 379.6585,-34.3211"/>
<polygon fill="#00ff00" stroke="#00ff00" stroke-width="1.6194" points="381.7674,-37.1201 388.0867,-28.6161 377.8435,-31.3232 381.7674,-37.1201"/>
</g>
<!-- 2 -->
<g id="node3" class="node">
<title>2</title>
<polygon fill="#d3d3d3" stroke="#000000" points="370.389,-342.0159 350.3771,-342.0159 350.3771,-325.0159 370.389,-325.0159 370.389,-342.0159"/>
<text text-anchor="middle" x="360.383" y="-330.8159" font-family="Times,serif" font-size="9.00" fill="#000000">2</text>
</g>
<!-- 1&#45;&gt;2 -->
<!-- E0 -->
<g id="node4" class="node">
<title>E0</title>
<ellipse fill="#87cefa" stroke="#000000" cx="18.383" cy="-18.383" rx="18.2668" ry="18.2668"/>
<text text-anchor="middle" x="18.383" y="-15.683" font-family="Times,serif" font-size="9.00" fill="#000000">E0</text>
</g>
<!-- 1&#45;&gt;E0 -->
<g id="edge14" class="edge">
<title>1&#45;&gt;E0</title>
<path fill="none" stroke="#00ff00" stroke-width=".3382" d="M260.2823,-329.0062C257.1357,-327.6601 253.6374,-326.2228 250.383,-325.0159 200.963,-306.6875 177.667,-323.0082 137.383,-289.0159 61.2581,-224.7803 32.1638,-102.414 22.5416,-46.9627"/>
<polygon fill="#00ff00" stroke="#00ff00" stroke-width=".3382" points="25.9468,-46.1002 20.8687,-36.8017 19.0398,-47.2375 25.9468,-46.1002"/>
</g>
<!-- E6 -->
<g id="node10" class="node">
<title>E6</title>
<ellipse fill="#87cefa" stroke="#000000" cx="348.383" cy="-18.383" rx="18.2668" ry="18.2668"/>
<text text-anchor="middle" x="348.383" y="-15.683" font-family="Times,serif" font-size="9.00" fill="#000000">E6</text>
</g>
<!-- 1&#45;&gt;E6 -->
<g id="edge11" class="edge">
<title>1&#45;&gt;E6</title>
<path fill="none" stroke="#ff0000" stroke-width="2.2243" d="M266.6432,-324.6044C252.5612,-289.55 206.0321,-158.8586 256.383,-72.7661 272.859,-44.5947 292.5038,-53.7317 320.383,-36.7661 321.6871,-35.9726 323.018,-35.1485 324.3568,-34.3085"/>
<polygon fill="#ff0000" stroke="#ff0000" stroke-width="2.2243" points="326.5803,-37.0399 333.0997,-28.6884 322.7951,-31.1516 326.5803,-37.0399"/>
</g>
<!-- 4257 -->
<g id="node13" class="node">
<title>4257</title>
<ellipse fill="#add8e6" stroke="#000000" cx="170.383" cy="-264.9743" rx="24.0833" ry="24.0833"/>
<text text-anchor="middle" x="170.383" y="-266.7743" font-family="Times,serif" font-size="9.00" fill="#000000">4257</text>
<text text-anchor="middle" x="170.383" y="-257.7743" font-family="Times,serif" font-size="9.00" fill="#000000">sigm</text>
</g>
<!-- 1&#45;&gt;4257 -->
<g id="edge15" class="edge">
<title>1&#45;&gt;4257</title>
<path fill="none" stroke="#00ff00" stroke-width=".1443" d="M260.0579,-326.4389C245.7361,-316.6224 219.2934,-298.4982 198.8185,-284.4644"/>
<polygon fill="#00ff00" stroke="#00ff00" stroke-width=".1443" points="200.6889,-281.5032 190.4617,-278.7365 196.7314,-287.2771 200.6889,-281.5032"/>
</g>
<!-- 5223 -->
<g id="node14" class="node">
<title>5223</title>
<ellipse fill="#add8e6" stroke="#000000" cx="360.383" cy="-96.8077" rx="24.0833" ry="24.0833"/>
<text text-anchor="middle" x="360.383" y="-98.6077" font-family="Times,serif" font-size="9.00" fill="#000000">5223</text>
<text text-anchor="middle" x="360.383" y="-89.6077" font-family="Times,serif" font-size="9.00" fill="#000000">sigm</text>
</g>
<!-- 1&#45;&gt;5223 -->
<g id="edge24" class="edge">
<title>1&#45;&gt;5223</title>
<path fill="none" stroke="#00ff00" stroke-width=".1367" d="M273.0903,-324.9705C283.9391,-290.7461 323.8561,-165.024 327.383,-156.8494 331.8109,-146.5866 337.4345,-135.7683 342.7793,-126.1849"/>
<polygon fill="#00ff00" stroke="#00ff00" stroke-width=".1367" points="345.8565,-127.8542 347.7703,-117.4337 339.7758,-124.3864 345.8565,-127.8542"/>
</g>
<!-- E4 -->
<g id="node8" class="node">
<title>E4</title>
<ellipse fill="#87cefa" stroke="#000000" cx="238.383" cy="-18.383" rx="18.2668" ry="18.2668"/>
<text text-anchor="middle" x="238.383" y="-15.683" font-family="Times,serif" font-size="9.00" fill="#000000">E4</text>
</g>
<!-- 2&#45;&gt;E4 -->
<g id="edge17" class="edge">
<title>2&#45;&gt;E4</title>
<path fill="none" stroke="#ff0000" stroke-width="1.2654" d="M365.4749,-324.7378C385.4176,-289.0876 454.1938,-153.2105 393.383,-72.7661 358.0045,-25.9651 319.7451,-61.1479 266.383,-36.7661 264.9946,-36.1317 263.5966,-35.4341 262.2054,-34.693"/>
<polygon fill="#ff0000" stroke="#ff0000" stroke-width="1.2654" points="263.6813,-31.4979 253.3006,-29.3781 260.0936,-37.5087 263.6813,-31.4979"/>
</g>
<!-- 4542 -->
<g id="node17" class="node">
<title>4542</title>
<ellipse fill="#add8e6" stroke="#000000" cx="360.383" cy="-180.891" rx="24.0833" ry="24.0833"/>
<text text-anchor="middle" x="360.383" y="-182.691" font-family="Times,serif" font-size="9.00" fill="#000000">4542</text>
<text text-anchor="middle" x="360.383" y="-173.691" font-family="Times,serif" font-size="9.00" fill="#000000">sigm</text>
</g>
<!-- 2&#45;&gt;4542 -->
<g id="edge18" class="edge">
<title>2&#45;&gt;4542</title>
<path fill="none" stroke="#00ff00" stroke-width=".1822" d="M360.383,-324.8728C360.383,-304.2423 360.383,-251.19 360.383,-215.5728"/>
<polygon fill="#00ff00" stroke="#00ff00" stroke-width=".1822" points="363.8831,-215.1341 360.383,-205.1341 356.8831,-215.1342 363.8831,-215.1341"/>
</g>
<!-- E1 -->
<g id="node5" class="node">
<title>E1</title>
<ellipse fill="#87cefa" stroke="#000000" cx="73.383" cy="-18.383" rx="18.2668" ry="18.2668"/>
<text text-anchor="middle" x="73.383" y="-15.683" font-family="Times,serif" font-size="9.00" fill="#000000">E1</text>
</g>
<!-- E0&#45;&gt;E1 -->
<!-- E2 -->
<g id="node6" class="node">
<title>E2</title>
<ellipse fill="#87cefa" stroke="#000000" cx="128.383" cy="-18.383" rx="18.2668" ry="18.2668"/>
<text text-anchor="middle" x="128.383" y="-15.683" font-family="Times,serif" font-size="9.00" fill="#000000">E2</text>
</g>
<!-- E1&#45;&gt;E2 -->
<!-- E3 -->
<g id="node7" class="node">
<title>E3</title>
<ellipse fill="#87cefa" stroke="#000000" cx="183.383" cy="-18.383" rx="18.2668" ry="18.2668"/>
<text text-anchor="middle" x="183.383" y="-15.683" font-family="Times,serif" font-size="9.00" fill="#000000">E3</text>
</g>
<!-- E2&#45;&gt;E3 -->
<!-- E3&#45;&gt;E4 -->
<!-- E5 -->
<g id="node9" class="node">
<title>E5</title>
<ellipse fill="#87cefa" stroke="#000000" cx="293.383" cy="-18.383" rx="18.2668" ry="18.2668"/>
<text text-anchor="middle" x="293.383" y="-15.683" font-family="Times,serif" font-size="9.00" fill="#000000">E5</text>
</g>
<!-- E4&#45;&gt;E5 -->
<!-- E5&#45;&gt;E6 -->
<!-- E6&#45;&gt;E7 -->
<!-- E8 -->
<g id="node12" class="node">
<title>E8</title>
<ellipse fill="#87cefa" stroke="#000000" cx="458.383" cy="-18.383" rx="18.2668" ry="18.2668"/>
<text text-anchor="middle" x="458.383" y="-15.683" font-family="Times,serif" font-size="9.00" fill="#000000">E8</text>
</g>
<!-- E7&#45;&gt;E8 -->
<!-- 4257&#45;&gt;E0 -->
<g id="edge16" class="edge">
<title>4257&#45;&gt;E0</title>
<path fill="none" stroke="#ff0000" stroke-width=".1422" d="M156.1836,-245.4954C147.8558,-233.8723 137.2605,-218.7343 128.383,-204.9326 125.8871,-201.0521 62.5122,-93.3861 33.1119,-43.4191"/>
<polygon fill="#ff0000" stroke="#ff0000" stroke-width=".1422" points="35.9638,-41.3644 27.8762,-34.5204 29.9306,-44.9141 35.9638,-41.3644"/>
</g>
<!-- 2609 -->
<g id="node16" class="node">
<title>2609</title>
<ellipse fill="#add8e6" stroke="#000000" cx="161.383" cy="-180.891" rx="24.0833" ry="24.0833"/>
<text text-anchor="middle" x="161.383" y="-182.691" font-family="Times,serif" font-size="9.00" fill="#000000">2609</text>
<text text-anchor="middle" x="161.383" y="-173.691" font-family="Times,serif" font-size="9.00" fill="#000000">sigm</text>
</g>
<!-- 4257&#45;&gt;2609 -->
<g id="edge19" class="edge">
<title>4257&#45;&gt;2609</title>
<path fill="none" stroke="#00ff00" stroke-width=".3669" d="M167.7799,-240.6539C166.9236,-232.6541 165.9552,-223.6065 165.0357,-215.0163"/>
<polygon fill="#00ff00" stroke="#00ff00" stroke-width=".3669" points="168.4938,-214.437 163.9493,-204.8663 161.5335,-215.1821 168.4938,-214.437"/>
</g>
<!-- 4257&#45;&gt;4542 -->
<g id="edge21" class="edge">
<title>4257&#45;&gt;4542</title>
<path fill="none" stroke="#00ff00" stroke-width=".2958" d="M192.5503,-255.1643C226.3011,-240.2281 290.7032,-211.7274 329.1704,-194.7039"/>
<polygon fill="#00ff00" stroke="#00ff00" stroke-width=".2958" points="330.6288,-197.886 338.357,-190.6385 327.796,-191.4848 330.6288,-197.886"/>
</g>
<!-- 5223&#45;&gt;E8 -->
<g id="edge23" class="edge">
<title>5223&#45;&gt;E8</title>
<path fill="none" stroke="#ff0000" stroke-width=".8005" d="M379.2784,-81.6867C395.53,-68.6813 418.9951,-49.9033 436.1477,-36.1769"/>
<polygon fill="#ff0000" stroke="#ff0000" stroke-width=".8005" points="438.3809,-38.8726 444.0018,-29.8917 434.0072,-33.4072 438.3809,-38.8726"/>
</g>
<!-- 4335 -->
<g id="node15" class="node">
<title>4335</title>
<ellipse fill="#add8e6" stroke="#000000" cx="180.383" cy="-96.8077" rx="24.0833" ry="24.0833"/>
<text text-anchor="middle" x="180.383" y="-98.6077" font-family="Times,serif" font-size="9.00" fill="#000000">4335</text>
<text text-anchor="middle" x="180.383" y="-89.6077" font-family="Times,serif" font-size="9.00" fill="#000000">sigm</text>
</g>
<!-- 4335&#45;&gt;E3 -->
<g id="edge20" class="edge">
<title>4335&#45;&gt;E3</title>
<path fill="none" stroke="#00ff00" stroke-width=".5078" d="M181.3158,-72.4236C181.6254,-64.33 181.9728,-55.248 182.2932,-46.8729"/>
<polygon fill="#00ff00" stroke="#00ff00" stroke-width=".5078" points="185.7948,-46.8967 182.6797,-36.7702 178.7999,-46.629 185.7948,-46.8967"/>
</g>
<!-- 2609&#45;&gt;E1 -->
<g id="edge13" class="edge">
<title>2609&#45;&gt;E1</title>
<path fill="none" stroke="#ff0000" stroke-width=".2393" d="M149.8786,-159.6459C133.7501,-129.8618 104.4602,-75.7727 87.1806,-43.8627"/>
<polygon fill="#ff0000" stroke="#ff0000" stroke-width=".2393" points="90.0709,-41.8499 82.2314,-34.7231 83.9155,-45.1832 90.0709,-41.8499"/>
</g>
<!-- 4542&#45;&gt;5223 -->
<g id="edge22" class="edge">
<title>4542&#45;&gt;5223</title>
<path fill="none" stroke="#ff0000" stroke-width=".1207" d="M360.383,-156.5706C360.383,-148.6398 360.383,-139.6791 360.383,-131.1553"/>
<polygon fill="#ff0000" stroke="#ff0000" stroke-width=".1207" points="363.8831,-131.0734 360.383,-121.0734 356.8831,-131.0735 363.8831,-131.0734"/>
</g>
</g>
</svg>
