<?xml version="1.0" encoding="utf-8" standalone="no"?>
<!DOCTYPE svg PUBLIC "-//W3C//DTD SVG 1.1//EN"
  "http://www.w3.org/Graphics/SVG/1.1/DTD/svg11.dtd">
<!-- Created with matplotlib (https://matplotlib.org/) -->
<svg height="345.6pt" version="1.1" viewBox="0 0 460.8 345.6" width="460.8pt" xmlns="http://www.w3.org/2000/svg" xmlns:xlink="http://www.w3.org/1999/xlink">
 <defs>
  <style type="text/css">
*{stroke-linecap:butt;stroke-linejoin:round;}
  </style>
 </defs>
 <g id="figure_1">
  <g id="patch_1">
   <path d="M 0 345.6 
L 460.8 345.6 
L 460.8 0 
L 0 0 
z
" style="fill:#ffffff;"/>
  </g>
  <g id="axes_1">
   <g id="patch_2">
    <path d="M 57.6 307.584 
L 414.72 307.584 
L 414.72 41.472 
L 57.6 41.472 
z
" style="fill:#ffffff;"/>
   </g>
   <g id="matplotlib.axis_1">
    <g id="xtick_1">
     <g id="line2d_1">
      <path clip-path="url(#p73719e830e)" d="M 73.832727 307.584 
L 73.832727 41.472 
" style="fill:none;stroke:#b0b0b0;stroke-linecap:square;stroke-width:0.8;"/>
     </g>
     <g id="line2d_2">
      <defs>
       <path d="M 0 0 
L 0 3.5 
" id="m6bcc16d4b2" style="stroke:#000000;stroke-width:0.8;"/>
      </defs>
      <g>
       <use style="stroke:#000000;stroke-width:0.8;" x="73.832727" xlink:href="#m6bcc16d4b2" y="307.584"/>
      </g>
     </g>
     <g id="text_1">
      <!-- 0 -->
      <defs>
       <path d="M 31.78125 66.40625 
Q 24.171875 66.40625 20.328125 58.90625 
Q 16.5 51.421875 16.5 36.375 
Q 16.5 21.390625 20.328125 13.890625 
Q 24.171875 6.390625 31.78125 6.390625 
Q 39.453125 6.390625 43.28125 13.890625 
Q 47.125 21.390625 47.125 36.375 
Q 47.125 51.421875 43.28125 58.90625 
Q 39.453125 66.40625 31.78125 66.40625 
z
M 31.78125 74.21875 
Q 44.046875 74.21875 50.515625 64.515625 
Q 56.984375 54.828125 56.984375 36.375 
Q 56.984375 17.96875 50.515625 8.265625 
Q 44.046875 -1.421875 31.78125 -1.421875 
Q 19.53125 -1.421875 13.0625 8.265625 
Q 6.59375 17.96875 6.59375 36.375 
Q 6.59375 54.828125 13.0625 64.515625 
Q 19.53125 74.21875 31.78125 74.21875 
z
" id="DejaVuSans-48"/>
      </defs>
      <g transform="translate(70.651477 322.182437)scale(0.1 -0.1)">
       <use xlink:href="#DejaVuSans-48"/>
      </g>
     </g>
    </g>
    <g id="xtick_2">
     <g id="line2d_3">
      <path clip-path="url(#p73719e830e)" d="M 128.122785 307.584 
L 128.122785 41.472 
" style="fill:none;stroke:#b0b0b0;stroke-linecap:square;stroke-width:0.8;"/>
     </g>
     <g id="line2d_4">
      <g>
       <use style="stroke:#000000;stroke-width:0.8;" x="128.122785" xlink:href="#m6bcc16d4b2" y="307.584"/>
      </g>
     </g>
     <g id="text_2">
      <!-- 50 -->
      <defs>
       <path d="M 10.796875 72.90625 
L 49.515625 72.90625 
L 49.515625 64.59375 
L 19.828125 64.59375 
L 19.828125 46.734375 
Q 21.96875 47.46875 24.109375 47.828125 
Q 26.265625 48.1875 28.421875 48.1875 
Q 40.625 48.1875 47.75 41.5 
Q 54.890625 34.8125 54.890625 23.390625 
Q 54.890625 11.625 47.5625 5.09375 
Q 40.234375 -1.421875 26.90625 -1.421875 
Q 22.3125 -1.421875 17.546875 -0.640625 
Q 12.796875 0.140625 7.71875 1.703125 
L 7.71875 11.625 
Q 12.109375 9.234375 16.796875 8.0625 
Q 21.484375 6.890625 26.703125 6.890625 
Q 35.15625 6.890625 40.078125 11.328125 
Q 45.015625 15.765625 45.015625 23.390625 
Q 45.015625 31 40.078125 35.4375 
Q 35.15625 39.890625 26.703125 39.890625 
Q 22.75 39.890625 18.8125 39.015625 
Q 14.890625 38.140625 10.796875 36.28125 
z
" id="DejaVuSans-53"/>
      </defs>
      <g transform="translate(121.760285 322.182437)scale(0.1 -0.1)">
       <use xlink:href="#DejaVuSans-53"/>
       <use x="63.623047" xlink:href="#DejaVuSans-48"/>
      </g>
     </g>
    </g>
    <g id="xtick_3">
     <g id="line2d_5">
      <path clip-path="url(#p73719e830e)" d="M 182.412843 307.584 
L 182.412843 41.472 
" style="fill:none;stroke:#b0b0b0;stroke-linecap:square;stroke-width:0.8;"/>
     </g>
     <g id="line2d_6">
      <g>
       <use style="stroke:#000000;stroke-width:0.8;" x="182.412843" xlink:href="#m6bcc16d4b2" y="307.584"/>
      </g>
     </g>
     <g id="text_3">
      <!-- 100 -->
      <defs>
       <path d="M 12.40625 8.296875 
L 28.515625 8.296875 
L 28.515625 63.921875 
L 10.984375 60.40625 
L 10.984375 69.390625 
L 28.421875 72.90625 
L 38.28125 72.90625 
L 38.28125 8.296875 
L 54.390625 8.296875 
L 54.390625 0 
L 12.40625 0 
z
" id="DejaVuSans-49"/>
      </defs>
      <g transform="translate(172.869093 322.182437)scale(0.1 -0.1)">
       <use xlink:href="#DejaVuSans-49"/>
       <use x="63.623047" xlink:href="#DejaVuSans-48"/>
       <use x="127.246094" xlink:href="#DejaVuSans-48"/>
      </g>
     </g>
    </g>
    <g id="xtick_4">
     <g id="line2d_7">
      <path clip-path="url(#p73719e830e)" d="M 236.702901 307.584 
L 236.702901 41.472 
" style="fill:none;stroke:#b0b0b0;stroke-linecap:square;stroke-width:0.8;"/>
     </g>
     <g id="line2d_8">
      <g>
       <use style="stroke:#000000;stroke-width:0.8;" x="236.702901" xlink:href="#m6bcc16d4b2" y="307.584"/>
      </g>
     </g>
     <g id="text_4">
      <!-- 150 -->
      <g transform="translate(227.159151 322.182437)scale(0.1 -0.1)">
       <use xlink:href="#DejaVuSans-49"/>
       <use x="63.623047" xlink:href="#DejaVuSans-53"/>
       <use x="127.246094" xlink:href="#DejaVuSans-48"/>
      </g>
     </g>
    </g>
    <g id="xtick_5">
     <g id="line2d_9">
      <path clip-path="url(#p73719e830e)" d="M 290.992958 307.584 
L 290.992958 41.472 
" style="fill:none;stroke:#b0b0b0;stroke-linecap:square;stroke-width:0.8;"/>
     </g>
     <g id="line2d_10">
      <g>
       <use style="stroke:#000000;stroke-width:0.8;" x="290.992958" xlink:href="#m6bcc16d4b2" y="307.584"/>
      </g>
     </g>
     <g id="text_5">
      <!-- 200 -->
      <defs>
       <path d="M 19.1875 8.296875 
L 53.609375 8.296875 
L 53.609375 0 
L 7.328125 0 
L 7.328125 8.296875 
Q 12.9375 14.109375 22.625 23.890625 
Q 32.328125 33.6875 34.8125 36.53125 
Q 39.546875 41.84375 41.421875 45.53125 
Q 43.3125 49.21875 43.3125 52.78125 
Q 43.3125 58.59375 39.234375 62.25 
Q 35.15625 65.921875 28.609375 65.921875 
Q 23.96875 65.921875 18.8125 64.3125 
Q 13.671875 62.703125 7.8125 59.421875 
L 7.8125 69.390625 
Q 13.765625 71.78125 18.9375 73 
Q 24.125 74.21875 28.421875 74.21875 
Q 39.75 74.21875 46.484375 68.546875 
Q 53.21875 62.890625 53.21875 53.421875 
Q 53.21875 48.921875 51.53125 44.890625 
Q 49.859375 40.875 45.40625 35.40625 
Q 44.1875 33.984375 37.640625 27.21875 
Q 31.109375 20.453125 19.1875 8.296875 
z
" id="DejaVuSans-50"/>
      </defs>
      <g transform="translate(281.449208 322.182437)scale(0.1 -0.1)">
       <use xlink:href="#DejaVuSans-50"/>
       <use x="63.623047" xlink:href="#DejaVuSans-48"/>
       <use x="127.246094" xlink:href="#DejaVuSans-48"/>
      </g>
     </g>
    </g>
    <g id="xtick_6">
     <g id="line2d_11">
      <path clip-path="url(#p73719e830e)" d="M 345.283016 307.584 
L 345.283016 41.472 
" style="fill:none;stroke:#b0b0b0;stroke-linecap:square;stroke-width:0.8;"/>
     </g>
     <g id="line2d_12">
      <g>
       <use style="stroke:#000000;stroke-width:0.8;" x="345.283016" xlink:href="#m6bcc16d4b2" y="307.584"/>
      </g>
     </g>
     <g id="text_6">
      <!-- 250 -->
      <g transform="translate(335.739266 322.182437)scale(0.1 -0.1)">
       <use xlink:href="#DejaVuSans-50"/>
       <use x="63.623047" xlink:href="#DejaVuSans-53"/>
       <use x="127.246094" xlink:href="#DejaVuSans-48"/>
      </g>
     </g>
    </g>
    <g id="xtick_7">
     <g id="line2d_13">
      <path clip-path="url(#p73719e830e)" d="M 399.573074 307.584 
L 399.573074 41.472 
" style="fill:none;stroke:#b0b0b0;stroke-linecap:square;stroke-width:0.8;"/>
     </g>
     <g id="line2d_14">
      <g>
       <use style="stroke:#000000;stroke-width:0.8;" x="399.573074" xlink:href="#m6bcc16d4b2" y="307.584"/>
      </g>
     </g>
     <g id="text_7">
      <!-- 300 -->
      <defs>
       <path d="M 40.578125 39.3125 
Q 47.65625 37.796875 51.625 33 
Q 55.609375 28.21875 55.609375 21.1875 
Q 55.609375 10.40625 48.1875 4.484375 
Q 40.765625 -1.421875 27.09375 -1.421875 
Q 22.515625 -1.421875 17.65625 -0.515625 
Q 12.796875 0.390625 7.625 2.203125 
L 7.625 11.71875 
Q 11.71875 9.328125 16.59375 8.109375 
Q 21.484375 6.890625 26.8125 6.890625 
Q 36.078125 6.890625 40.9375 10.546875 
Q 45.796875 14.203125 45.796875 21.1875 
Q 45.796875 27.640625 41.28125 31.265625 
Q 36.765625 34.90625 28.71875 34.90625 
L 20.21875 34.90625 
L 20.21875 43.015625 
L 29.109375 43.015625 
Q 36.375 43.015625 40.234375 45.921875 
Q 44.09375 48.828125 44.09375 54.296875 
Q 44.09375 59.90625 40.109375 62.90625 
Q 36.140625 65.921875 28.71875 65.921875 
Q 24.65625 65.921875 20.015625 65.03125 
Q 15.375 64.15625 9.8125 62.3125 
L 9.8125 71.09375 
Q 15.4375 72.65625 20.34375 73.4375 
Q 25.25 74.21875 29.59375 74.21875 
Q 40.828125 74.21875 47.359375 69.109375 
Q 53.90625 64.015625 53.90625 55.328125 
Q 53.90625 49.265625 50.4375 45.09375 
Q 46.96875 40.921875 40.578125 39.3125 
z
" id="DejaVuSans-51"/>
      </defs>
      <g transform="translate(390.029324 322.182437)scale(0.1 -0.1)">
       <use xlink:href="#DejaVuSans-51"/>
       <use x="63.623047" xlink:href="#DejaVuSans-48"/>
       <use x="127.246094" xlink:href="#DejaVuSans-48"/>
      </g>
     </g>
    </g>
    <g id="text_8">
     <!-- Generations -->
     <defs>
      <path d="M 59.515625 10.40625 
L 59.515625 29.984375 
L 43.40625 29.984375 
L 43.40625 38.09375 
L 69.28125 38.09375 
L 69.28125 6.78125 
Q 63.578125 2.734375 56.6875 0.65625 
Q 49.8125 -1.421875 42 -1.421875 
Q 24.90625 -1.421875 15.25 8.5625 
Q 5.609375 18.5625 5.609375 36.375 
Q 5.609375 54.25 15.25 64.234375 
Q 24.90625 74.21875 42 74.21875 
Q 49.125 74.21875 55.546875 72.453125 
Q 61.96875 70.703125 67.390625 67.28125 
L 67.390625 56.78125 
Q 61.921875 61.421875 55.765625 63.765625 
Q 49.609375 66.109375 42.828125 66.109375 
Q 29.4375 66.109375 22.71875 58.640625 
Q 16.015625 51.171875 16.015625 36.375 
Q 16.015625 21.625 22.71875 14.15625 
Q 29.4375 6.6875 42.828125 6.6875 
Q 48.046875 6.6875 52.140625 7.59375 
Q 56.25 8.5 59.515625 10.40625 
z
" id="DejaVuSans-71"/>
      <path d="M 56.203125 29.59375 
L 56.203125 25.203125 
L 14.890625 25.203125 
Q 15.484375 15.921875 20.484375 11.0625 
Q 25.484375 6.203125 34.421875 6.203125 
Q 39.59375 6.203125 44.453125 7.46875 
Q 49.3125 8.734375 54.109375 11.28125 
L 54.109375 2.78125 
Q 49.265625 0.734375 44.1875 -0.34375 
Q 39.109375 -1.421875 33.890625 -1.421875 
Q 20.796875 -1.421875 13.15625 6.1875 
Q 5.515625 13.8125 5.515625 26.8125 
Q 5.515625 40.234375 12.765625 48.109375 
Q 20.015625 56 32.328125 56 
Q 43.359375 56 49.78125 48.890625 
Q 56.203125 41.796875 56.203125 29.59375 
z
M 47.21875 32.234375 
Q 47.125 39.59375 43.09375 43.984375 
Q 39.0625 48.390625 32.421875 48.390625 
Q 24.90625 48.390625 20.390625 44.140625 
Q 15.875 39.890625 15.1875 32.171875 
z
" id="DejaVuSans-101"/>
      <path d="M 54.890625 33.015625 
L 54.890625 0 
L 45.90625 0 
L 45.90625 32.71875 
Q 45.90625 40.484375 42.875 44.328125 
Q 39.84375 48.1875 33.796875 48.1875 
Q 26.515625 48.1875 22.3125 43.546875 
Q 18.109375 38.921875 18.109375 30.90625 
L 18.109375 0 
L 9.078125 0 
L 9.078125 54.6875 
L 18.109375 54.6875 
L 18.109375 46.1875 
Q 21.34375 51.125 25.703125 53.5625 
Q 30.078125 56 35.796875 56 
Q 45.21875 56 50.046875 50.171875 
Q 54.890625 44.34375 54.890625 33.015625 
z
" id="DejaVuSans-110"/>
      <path d="M 41.109375 46.296875 
Q 39.59375 47.171875 37.8125 47.578125 
Q 36.03125 48 33.890625 48 
Q 26.265625 48 22.1875 43.046875 
Q 18.109375 38.09375 18.109375 28.8125 
L 18.109375 0 
L 9.078125 0 
L 9.078125 54.6875 
L 18.109375 54.6875 
L 18.109375 46.1875 
Q 20.953125 51.171875 25.484375 53.578125 
Q 30.03125 56 36.53125 56 
Q 37.453125 56 38.578125 55.875 
Q 39.703125 55.765625 41.0625 55.515625 
z
" id="DejaVuSans-114"/>
      <path d="M 34.28125 27.484375 
Q 23.390625 27.484375 19.1875 25 
Q 14.984375 22.515625 14.984375 16.5 
Q 14.984375 11.71875 18.140625 8.90625 
Q 21.296875 6.109375 26.703125 6.109375 
Q 34.1875 6.109375 38.703125 11.40625 
Q 43.21875 16.703125 43.21875 25.484375 
L 43.21875 27.484375 
z
M 52.203125 31.203125 
L 52.203125 0 
L 43.21875 0 
L 43.21875 8.296875 
Q 40.140625 3.328125 35.546875 0.953125 
Q 30.953125 -1.421875 24.3125 -1.421875 
Q 15.921875 -1.421875 10.953125 3.296875 
Q 6 8.015625 6 15.921875 
Q 6 25.140625 12.171875 29.828125 
Q 18.359375 34.515625 30.609375 34.515625 
L 43.21875 34.515625 
L 43.21875 35.40625 
Q 43.21875 41.609375 39.140625 45 
Q 35.0625 48.390625 27.6875 48.390625 
Q 23 48.390625 18.546875 47.265625 
Q 14.109375 46.140625 10.015625 43.890625 
L 10.015625 52.203125 
Q 14.9375 54.109375 19.578125 55.046875 
Q 24.21875 56 28.609375 56 
Q 40.484375 56 46.34375 49.84375 
Q 52.203125 43.703125 52.203125 31.203125 
z
" id="DejaVuSans-97"/>
      <path d="M 18.3125 70.21875 
L 18.3125 54.6875 
L 36.8125 54.6875 
L 36.8125 47.703125 
L 18.3125 47.703125 
L 18.3125 18.015625 
Q 18.3125 11.328125 20.140625 9.421875 
Q 21.96875 7.515625 27.59375 7.515625 
L 36.8125 7.515625 
L 36.8125 0 
L 27.59375 0 
Q 17.1875 0 13.234375 3.875 
Q 9.28125 7.765625 9.28125 18.015625 
L 9.28125 47.703125 
L 2.6875 47.703125 
L 2.6875 54.6875 
L 9.28125 54.6875 
L 9.28125 70.21875 
z
" id="DejaVuSans-116"/>
      <path d="M 9.421875 54.6875 
L 18.40625 54.6875 
L 18.40625 0 
L 9.421875 0 
z
M 9.421875 75.984375 
L 18.40625 75.984375 
L 18.40625 64.59375 
L 9.421875 64.59375 
z
" id="DejaVuSans-105"/>
      <path d="M 30.609375 48.390625 
Q 23.390625 48.390625 19.1875 42.75 
Q 14.984375 37.109375 14.984375 27.296875 
Q 14.984375 17.484375 19.15625 11.84375 
Q 23.34375 6.203125 30.609375 6.203125 
Q 37.796875 6.203125 41.984375 11.859375 
Q 46.1875 17.53125 46.1875 27.296875 
Q 46.1875 37.015625 41.984375 42.703125 
Q 37.796875 48.390625 30.609375 48.390625 
z
M 30.609375 56 
Q 42.328125 56 49.015625 48.375 
Q 55.71875 40.765625 55.71875 27.296875 
Q 55.71875 13.875 49.015625 6.21875 
Q 42.328125 -1.421875 30.609375 -1.421875 
Q 18.84375 -1.421875 12.171875 6.21875 
Q 5.515625 13.875 5.515625 27.296875 
Q 5.515625 40.765625 12.171875 48.375 
Q 18.84375 56 30.609375 56 
z
" id="DejaVuSans-111"/>
      <path d="M 44.28125 53.078125 
L 44.28125 44.578125 
Q 40.484375 46.53125 36.375 47.5 
Q 32.28125 48.484375 27.875 48.484375 
Q 21.1875 48.484375 17.84375 46.4375 
Q 14.5 44.390625 14.5 40.28125 
Q 14.5 37.15625 16.890625 35.375 
Q 19.28125 33.59375 26.515625 31.984375 
L 29.59375 31.296875 
Q 39.15625 29.25 43.1875 25.515625 
Q 47.21875 21.78125 47.21875 15.09375 
Q 47.21875 7.46875 41.1875 3.015625 
Q 35.15625 -1.421875 24.609375 -1.421875 
Q 20.21875 -1.421875 15.453125 -0.5625 
Q 10.6875 0.296875 5.421875 2 
L 5.421875 11.28125 
Q 10.40625 8.6875 15.234375 7.390625 
Q 20.0625 6.109375 24.8125 6.109375 
Q 31.15625 6.109375 34.5625 8.28125 
Q 37.984375 10.453125 37.984375 14.40625 
Q 37.984375 18.0625 35.515625 20.015625 
Q 33.0625 21.96875 24.703125 23.78125 
L 21.578125 24.515625 
Q 13.234375 26.265625 9.515625 29.90625 
Q 5.8125 33.546875 5.8125 39.890625 
Q 5.8125 47.609375 11.28125 51.796875 
Q 16.75 56 26.8125 56 
Q 31.78125 56 36.171875 55.265625 
Q 40.578125 54.546875 44.28125 53.078125 
z
" id="DejaVuSans-115"/>
     </defs>
     <g transform="translate(205.662344 335.860562)scale(0.1 -0.1)">
      <use xlink:href="#DejaVuSans-71"/>
      <use x="77.490234" xlink:href="#DejaVuSans-101"/>
      <use x="139.013672" xlink:href="#DejaVuSans-110"/>
      <use x="202.392578" xlink:href="#DejaVuSans-101"/>
      <use x="263.916016" xlink:href="#DejaVuSans-114"/>
      <use x="305.029297" xlink:href="#DejaVuSans-97"/>
      <use x="366.308594" xlink:href="#DejaVuSans-116"/>
      <use x="405.517578" xlink:href="#DejaVuSans-105"/>
      <use x="433.300781" xlink:href="#DejaVuSans-111"/>
      <use x="494.482422" xlink:href="#DejaVuSans-110"/>
      <use x="557.861328" xlink:href="#DejaVuSans-115"/>
     </g>
    </g>
   </g>
   <g id="matplotlib.axis_2">
    <g id="ytick_1">
     <g id="line2d_15">
      <path clip-path="url(#p73719e830e)" d="M 57.6 280.215151 
L 414.72 280.215151 
" style="fill:none;stroke:#b0b0b0;stroke-linecap:square;stroke-width:0.8;"/>
     </g>
     <g id="line2d_16">
      <defs>
       <path d="M 0 0 
L -3.5 0 
" id="m4846617eeb" style="stroke:#000000;stroke-width:0.8;"/>
      </defs>
      <g>
       <use style="stroke:#000000;stroke-width:0.8;" x="57.6" xlink:href="#m4846617eeb" y="280.215151"/>
      </g>
     </g>
     <g id="text_9">
      <!-- 500 -->
      <g transform="translate(31.5125 284.01437)scale(0.1 -0.1)">
       <use xlink:href="#DejaVuSans-53"/>
       <use x="63.623047" xlink:href="#DejaVuSans-48"/>
       <use x="127.246094" xlink:href="#DejaVuSans-48"/>
      </g>
     </g>
    </g>
    <g id="ytick_2">
     <g id="line2d_17">
      <path clip-path="url(#p73719e830e)" d="M 57.6 248.906076 
L 414.72 248.906076 
" style="fill:none;stroke:#b0b0b0;stroke-linecap:square;stroke-width:0.8;"/>
     </g>
     <g id="line2d_18">
      <g>
       <use style="stroke:#000000;stroke-width:0.8;" x="57.6" xlink:href="#m4846617eeb" y="248.906076"/>
      </g>
     </g>
     <g id="text_10">
      <!-- 750 -->
      <defs>
       <path d="M 8.203125 72.90625 
L 55.078125 72.90625 
L 55.078125 68.703125 
L 28.609375 0 
L 18.3125 0 
L 43.21875 64.59375 
L 8.203125 64.59375 
z
" id="DejaVuSans-55"/>
      </defs>
      <g transform="translate(31.5125 252.705295)scale(0.1 -0.1)">
       <use xlink:href="#DejaVuSans-55"/>
       <use x="63.623047" xlink:href="#DejaVuSans-53"/>
       <use x="127.246094" xlink:href="#DejaVuSans-48"/>
      </g>
     </g>
    </g>
    <g id="ytick_3">
     <g id="line2d_19">
      <path clip-path="url(#p73719e830e)" d="M 57.6 217.597001 
L 414.72 217.597001 
" style="fill:none;stroke:#b0b0b0;stroke-linecap:square;stroke-width:0.8;"/>
     </g>
     <g id="line2d_20">
      <g>
       <use style="stroke:#000000;stroke-width:0.8;" x="57.6" xlink:href="#m4846617eeb" y="217.597001"/>
      </g>
     </g>
     <g id="text_11">
      <!-- 1000 -->
      <g transform="translate(25.15 221.396219)scale(0.1 -0.1)">
       <use xlink:href="#DejaVuSans-49"/>
       <use x="63.623047" xlink:href="#DejaVuSans-48"/>
       <use x="127.246094" xlink:href="#DejaVuSans-48"/>
       <use x="190.869141" xlink:href="#DejaVuSans-48"/>
      </g>
     </g>
    </g>
    <g id="ytick_4">
     <g id="line2d_21">
      <path clip-path="url(#p73719e830e)" d="M 57.6 186.287925 
L 414.72 186.287925 
" style="fill:none;stroke:#b0b0b0;stroke-linecap:square;stroke-width:0.8;"/>
     </g>
     <g id="line2d_22">
      <g>
       <use style="stroke:#000000;stroke-width:0.8;" x="57.6" xlink:href="#m4846617eeb" y="186.287925"/>
      </g>
     </g>
     <g id="text_12">
      <!-- 1250 -->
      <g transform="translate(25.15 190.087144)scale(0.1 -0.1)">
       <use xlink:href="#DejaVuSans-49"/>
       <use x="63.623047" xlink:href="#DejaVuSans-50"/>
       <use x="127.246094" xlink:href="#DejaVuSans-53"/>
       <use x="190.869141" xlink:href="#DejaVuSans-48"/>
      </g>
     </g>
    </g>
    <g id="ytick_5">
     <g id="line2d_23">
      <path clip-path="url(#p73719e830e)" d="M 57.6 154.97885 
L 414.72 154.97885 
" style="fill:none;stroke:#b0b0b0;stroke-linecap:square;stroke-width:0.8;"/>
     </g>
     <g id="line2d_24">
      <g>
       <use style="stroke:#000000;stroke-width:0.8;" x="57.6" xlink:href="#m4846617eeb" y="154.97885"/>
      </g>
     </g>
     <g id="text_13">
      <!-- 1500 -->
      <g transform="translate(25.15 158.778069)scale(0.1 -0.1)">
       <use xlink:href="#DejaVuSans-49"/>
       <use x="63.623047" xlink:href="#DejaVuSans-53"/>
       <use x="127.246094" xlink:href="#DejaVuSans-48"/>
       <use x="190.869141" xlink:href="#DejaVuSans-48"/>
      </g>
     </g>
    </g>
    <g id="ytick_6">
     <g id="line2d_25">
      <path clip-path="url(#p73719e830e)" d="M 57.6 123.669775 
L 414.72 123.669775 
" style="fill:none;stroke:#b0b0b0;stroke-linecap:square;stroke-width:0.8;"/>
     </g>
     <g id="line2d_26">
      <g>
       <use style="stroke:#000000;stroke-width:0.8;" x="57.6" xlink:href="#m4846617eeb" y="123.669775"/>
      </g>
     </g>
     <g id="text_14">
      <!-- 1750 -->
      <g transform="translate(25.15 127.468994)scale(0.1 -0.1)">
       <use xlink:href="#DejaVuSans-49"/>
       <use x="63.623047" xlink:href="#DejaVuSans-55"/>
       <use x="127.246094" xlink:href="#DejaVuSans-53"/>
       <use x="190.869141" xlink:href="#DejaVuSans-48"/>
      </g>
     </g>
    </g>
    <g id="ytick_7">
     <g id="line2d_27">
      <path clip-path="url(#p73719e830e)" d="M 57.6 92.3607 
L 414.72 92.3607 
" style="fill:none;stroke:#b0b0b0;stroke-linecap:square;stroke-width:0.8;"/>
     </g>
     <g id="line2d_28">
      <g>
       <use style="stroke:#000000;stroke-width:0.8;" x="57.6" xlink:href="#m4846617eeb" y="92.3607"/>
      </g>
     </g>
     <g id="text_15">
      <!-- 2000 -->
      <g transform="translate(25.15 96.159919)scale(0.1 -0.1)">
       <use xlink:href="#DejaVuSans-50"/>
       <use x="63.623047" xlink:href="#DejaVuSans-48"/>
       <use x="127.246094" xlink:href="#DejaVuSans-48"/>
       <use x="190.869141" xlink:href="#DejaVuSans-48"/>
      </g>
     </g>
    </g>
    <g id="ytick_8">
     <g id="line2d_29">
      <path clip-path="url(#p73719e830e)" d="M 57.6 61.051625 
L 414.72 61.051625 
" style="fill:none;stroke:#b0b0b0;stroke-linecap:square;stroke-width:0.8;"/>
     </g>
     <g id="line2d_30">
      <g>
       <use style="stroke:#000000;stroke-width:0.8;" x="57.6" xlink:href="#m4846617eeb" y="61.051625"/>
      </g>
     </g>
     <g id="text_16">
      <!-- 2250 -->
      <g transform="translate(25.15 64.850844)scale(0.1 -0.1)">
       <use xlink:href="#DejaVuSans-50"/>
       <use x="63.623047" xlink:href="#DejaVuSans-50"/>
       <use x="127.246094" xlink:href="#DejaVuSans-53"/>
       <use x="190.869141" xlink:href="#DejaVuSans-48"/>
      </g>
     </g>
    </g>
    <g id="text_17">
     <!-- Fitness -->
     <defs>
      <path d="M 9.8125 72.90625 
L 51.703125 72.90625 
L 51.703125 64.59375 
L 19.671875 64.59375 
L 19.671875 43.109375 
L 48.578125 43.109375 
L 48.578125 34.8125 
L 19.671875 34.8125 
L 19.671875 0 
L 9.8125 0 
z
" id="DejaVuSans-70"/>
     </defs>
     <g transform="translate(19.070312 192.202219)rotate(-90)scale(0.1 -0.1)">
      <use xlink:href="#DejaVuSans-70"/>
      <use x="57.410156" xlink:href="#DejaVuSans-105"/>
      <use x="85.193359" xlink:href="#DejaVuSans-116"/>
      <use x="124.402344" xlink:href="#DejaVuSans-110"/>
      <use x="187.78125" xlink:href="#DejaVuSans-101"/>
      <use x="249.304688" xlink:href="#DejaVuSans-115"/>
      <use x="301.404297" xlink:href="#DejaVuSans-115"/>
     </g>
    </g>
   </g>
   <g id="line2d_31">
    <path clip-path="url(#p73719e830e)" d="M 73.832727 279.941151 
L 74.918528 259.1976 
L 76.00433 264.077523 
L 77.090131 254.830713 
L 79.261733 243.635765 
L 80.347534 223.53052 
L 81.433335 226.292352 
L 82.519137 227.403957 
L 83.604938 230.592773 
L 84.690739 218.049183 
L 85.77654 221.619796 
L 86.862341 207.846519 
L 87.948142 214.867619 
L 89.033943 200.699056 
L 90.119745 214.760286 
L 91.205546 209.061244 
L 92.291347 194.848267 
L 93.377148 210.682926 
L 94.462949 189.321146 
L 95.54875 191.93386 
L 96.634552 210.650626 
L 97.720353 179.143734 
L 98.806154 189.329609 
L 99.891955 195.011566 
L 100.977756 204.791646 
L 102.063557 195.072174 
L 103.149358 207.810062 
L 104.23516 191.787522 
L 105.320961 200.470208 
L 106.406762 192.67599 
L 107.492563 174.813119 
L 108.578364 197.398449 
L 109.664165 206.050453 
L 110.749967 195.355548 
L 111.835768 201.275127 
L 112.921569 183.04489 
L 114.00737 185.916841 
L 115.093171 177.003825 
L 116.178972 178.237213 
L 117.264773 169.743228 
L 118.350575 177.917854 
L 119.436376 167.009577 
L 120.522177 171.304363 
L 121.607978 158.637164 
L 122.693779 179.470837 
L 123.77958 166.306869 
L 124.865382 174.660499 
L 125.951183 163.319098 
L 127.036984 164.05531 
L 128.122785 162.450637 
L 129.208586 149.288038 
L 130.294387 166.069506 
L 131.380189 148.858447 
L 132.46599 165.085093 
L 133.551791 144.213096 
L 134.637592 150.16021 
L 135.723393 164.942549 
L 136.809194 171.024242 
L 137.894995 172.254815 
L 138.980797 167.008167 
L 140.066598 157.618173 
L 141.152399 162.933962 
L 142.2382 157.258945 
L 143.324001 163.855583 
L 144.409802 188.741756 
L 145.495604 165.330574 
L 146.581405 159.628304 
L 147.667206 162.25704 
L 148.753007 156.804318 
L 149.838808 176.980512 
L 150.924609 184.820117 
L 152.01041 189.834757 
L 153.096212 177.7954 
L 154.182013 181.942533 
L 155.267814 198.450359 
L 156.353615 195.851818 
L 157.439416 178.316255 
L 158.525217 176.911332 
L 159.611019 156.573015 
L 160.69682 183.110397 
L 161.782621 171.162545 
L 162.868422 174.738648 
L 163.954223 168.143744 
L 165.040024 160.398872 
L 166.125825 177.73688 
L 167.211627 172.750118 
L 168.297428 147.468544 
L 169.383229 161.163382 
L 170.46903 154.532067 
L 171.554831 158.225182 
L 172.640632 191.974459 
L 173.726434 165.703673 
L 174.812235 182.486111 
L 175.898036 175.656149 
L 176.983837 159.286261 
L 178.069638 166.819653 
L 179.155439 166.653842 
L 180.24124 171.752474 
L 181.327042 174.877515 
L 182.412843 157.246761 
L 183.498644 175.424517 
L 184.584445 171.67592 
L 185.670246 159.910887 
L 186.756047 157.347286 
L 187.841849 158.847082 
L 188.92765 161.294801 
L 190.013451 153.389998 
L 191.099252 164.08364 
L 192.185053 166.56019 
L 193.270854 142.272275 
L 194.356656 135.634831 
L 195.442457 157.887141 
L 196.528258 136.070999 
L 197.614059 127.562165 
L 199.785661 165.188742 
L 201.957264 145.794003 
L 203.043065 169.702139 
L 204.128866 144.63794 
L 205.214667 150.947808 
L 206.300468 148.105429 
L 207.386269 145.8364 
L 208.472071 146.791667 
L 209.557872 150.240592 
L 210.643673 160.695025 
L 211.729474 145.854756 
L 212.815275 140.612363 
L 213.901076 164.876315 
L 214.986877 143.550909 
L 216.072679 141.502648 
L 217.15848 123.431108 
L 218.244281 143.219058 
L 219.330082 151.925087 
L 220.415883 165.450344 
L 221.501684 155.208298 
L 222.587486 164.171669 
L 223.673287 154.104303 
L 224.759088 139.862893 
L 225.844889 162.212917 
L 226.93069 144.115564 
L 228.016491 167.157765 
L 229.102292 130.231698 
L 230.188094 158.637237 
L 231.273895 148.958199 
L 232.359696 157.777495 
L 233.445497 174.322222 
L 234.531298 168.600263 
L 235.617099 174.839402 
L 236.702901 129.692861 
L 237.788702 141.44007 
L 238.874503 130.906865 
L 239.960304 129.318866 
L 241.046105 152.03452 
L 242.131906 153.296508 
L 243.217708 133.419582 
L 244.303509 163.303361 
L 245.38931 146.881807 
L 246.475111 151.390819 
L 247.560912 132.952696 
L 248.646713 147.509351 
L 249.732514 143.670559 
L 250.818316 159.210038 
L 251.904117 151.771505 
L 252.989918 146.456195 
L 254.075719 176.660504 
L 255.16152 163.001064 
L 256.247321 155.420613 
L 257.333123 155.784805 
L 258.418924 147.274717 
L 259.504725 159.507504 
L 260.590526 166.727286 
L 261.676327 160.812013 
L 262.762128 172.198363 
L 263.847929 158.393145 
L 264.933731 148.648235 
L 266.019532 174.524313 
L 267.105333 162.42002 
L 268.191134 177.698827 
L 269.276935 152.746093 
L 270.362736 172.053095 
L 271.448538 166.118734 
L 272.534339 169.502924 
L 273.62014 169.520382 
L 274.705941 175.634713 
L 275.791742 168.757335 
L 276.877543 169.790356 
L 277.963344 151.486254 
L 279.049146 158.570424 
L 280.134947 157.068782 
L 281.220748 140.754034 
L 282.306549 138.85465 
L 283.39235 166.823189 
L 284.478151 166.285124 
L 285.563953 161.000549 
L 286.649754 151.481951 
L 287.735555 147.530757 
L 288.821356 164.139912 
L 289.907157 133.698838 
L 290.992958 157.25568 
L 292.07876 161.541399 
L 293.164561 159.526793 
L 294.250362 177.772915 
L 295.336163 157.301762 
L 296.421964 151.212102 
L 297.507765 173.051932 
L 298.593566 166.980252 
L 299.679368 163.955769 
L 300.765169 181.181837 
L 301.85097 159.038944 
L 302.936771 174.752695 
L 304.022572 170.226026 
L 305.108373 153.374548 
L 306.194175 157.654404 
L 307.279976 132.575964 
L 308.365777 142.156272 
L 309.451578 144.899809 
L 310.537379 155.152633 
L 311.62318 148.774156 
L 312.708981 136.338193 
L 313.794783 139.737081 
L 314.880584 154.660035 
L 315.966385 133.550866 
L 317.052186 140.321562 
L 318.137987 154.920862 
L 319.223788 166.543637 
L 320.30959 167.090932 
L 321.395391 173.219177 
L 322.481192 148.16655 
L 323.566993 147.938377 
L 324.652794 150.740379 
L 325.738595 148.104637 
L 326.824396 165.110197 
L 327.910198 151.791376 
L 328.995999 136.811913 
L 330.0818 157.917802 
L 331.167601 162.667965 
L 332.253402 166.340756 
L 333.339203 167.091961 
L 334.425005 173.082805 
L 335.510806 163.432576 
L 336.596607 162.004158 
L 337.682408 157.936594 
L 338.768209 161.04635 
L 339.85401 180.514136 
L 340.939811 173.921258 
L 342.025613 174.665675 
L 343.111414 178.286037 
L 344.197215 162.325065 
L 345.283016 172.188005 
L 346.368817 173.917073 
L 347.454618 174.501459 
L 348.54042 160.775493 
L 349.626221 193.962265 
L 350.712022 170.624537 
L 351.797823 163.558102 
L 352.883624 173.313495 
L 353.969425 195.753522 
L 355.055227 188.864601 
L 356.141028 159.428923 
L 357.226829 180.550959 
L 358.31263 179.732112 
L 359.398431 182.488103 
L 360.484232 186.545036 
L 361.570033 188.323636 
L 362.655835 169.867623 
L 363.741636 181.924776 
L 364.827437 192.389377 
L 365.913238 160.739007 
L 366.999039 164.302514 
L 368.08484 168.742416 
L 369.170642 169.653449 
L 371.342244 176.949485 
L 372.428045 185.225151 
L 373.513846 175.492339 
L 374.599647 171.051235 
L 375.685448 171.916894 
L 376.77125 186.516966 
L 377.857051 181.34874 
L 378.942852 167.997945 
L 380.028653 169.145785 
L 381.114454 151.194226 
L 382.200255 161.535268 
L 383.286057 170.182701 
L 384.371858 152.170031 
L 385.457659 157.341132 
L 386.54346 144.280163 
L 387.629261 146.21914 
L 388.715062 170.929584 
L 389.800863 168.516547 
L 390.886665 163.797714 
L 391.972466 183.910386 
L 393.058267 165.691327 
L 394.144068 172.202293 
L 395.229869 174.033793 
L 396.31567 177.422317 
L 397.401472 187.135564 
L 398.487273 178.057984 
L 398.487273 178.057984 
" style="fill:none;stroke:#0000ff;stroke-linecap:square;stroke-width:1.5;"/>
   </g>
   <g id="line2d_32">
    <path clip-path="url(#p73719e830e)" d="M 73.832727 295.488 
L 74.918528 268.873145 
L 76.00433 285.396344 
L 77.090131 277.484495 
L 78.175932 272.769748 
L 79.261733 279.714277 
L 80.347534 256.852128 
L 81.433335 263.257621 
L 82.519137 266.16299 
L 83.604938 269.780335 
L 84.690739 252.647462 
L 85.77654 260.233416 
L 86.862341 241.305616 
L 87.948142 259.482773 
L 89.033943 238.746378 
L 90.119745 256.381377 
L 91.205546 252.184355 
L 92.291347 242.534126 
L 93.377148 258.740129 
L 94.462949 235.903115 
L 95.54875 245.486367 
L 96.634552 267.853161 
L 97.720353 220.571935 
L 98.806154 236.060784 
L 99.891955 238.003252 
L 100.977756 241.483848 
L 102.063557 250.395294 
L 103.149358 258.353591 
L 104.23516 241.644876 
L 105.320961 253.570984 
L 106.406762 244.436396 
L 107.492563 223.890741 
L 108.578364 249.397641 
L 109.664165 260.16365 
L 110.749967 240.632477 
L 111.835768 252.767669 
L 112.921569 231.681503 
L 114.00737 226.549193 
L 115.093171 213.907788 
L 116.178972 223.710435 
L 117.264773 212.043146 
L 118.350575 231.78934 
L 119.436376 220.892767 
L 120.522177 214.75274 
L 121.607978 210.683082 
L 122.693779 237.566678 
L 123.77958 236.366451 
L 124.865382 231.434184 
L 125.951183 218.781517 
L 127.036984 214.905376 
L 128.122785 220.505799 
L 129.208586 194.924482 
L 130.294387 218.210032 
L 131.380189 193.408912 
L 132.46599 222.982017 
L 133.551791 197.684661 
L 134.637592 202.268162 
L 135.723393 235.096218 
L 136.809194 220.12922 
L 137.894995 234.008763 
L 138.980797 218.433063 
L 140.066598 205.01686 
L 141.152399 214.259617 
L 142.2382 200.46131 
L 143.324001 219.426147 
L 144.409802 247.03451 
L 145.495604 222.592179 
L 146.581405 212.820449 
L 147.667206 217.162569 
L 148.753007 210.910034 
L 149.838808 234.448437 
L 150.924609 242.848258 
L 152.01041 227.363593 
L 153.096212 235.166543 
L 154.182013 240.064685 
L 155.267814 260.20285 
L 156.353615 240.826953 
L 157.439416 230.370124 
L 158.525217 224.040626 
L 159.611019 211.226377 
L 160.69682 246.776399 
L 161.782621 230.090757 
L 162.868422 237.91384 
L 163.954223 234.701177 
L 165.040024 227.054691 
L 166.125825 239.312063 
L 167.211627 247.254246 
L 168.297428 217.786407 
L 169.383229 224.67794 
L 170.46903 214.990801 
L 171.554831 218.726999 
L 172.640632 261.698545 
L 173.726434 224.198058 
L 174.812235 251.161176 
L 176.983837 216.82671 
L 179.155439 240.531957 
L 180.24124 239.577257 
L 181.327042 254.976947 
L 182.412843 226.976495 
L 183.498644 242.103356 
L 184.584445 237.89934 
L 185.670246 230.220136 
L 186.756047 213.661948 
L 187.841849 225.626142 
L 188.92765 208.891262 
L 190.013451 215.172524 
L 191.099252 224.653759 
L 192.185053 241.360898 
L 193.270854 193.720276 
L 194.356656 184.966038 
L 195.442457 214.581433 
L 196.528258 187.568391 
L 197.614059 185.25827 
L 198.69986 206.790518 
L 199.785661 223.536909 
L 201.957264 208.608538 
L 203.043065 230.705887 
L 204.128866 200.856787 
L 205.214667 208.905313 
L 206.300468 214.632777 
L 207.386269 202.89342 
L 208.472071 201.799443 
L 209.557872 218.384999 
L 210.643673 220.494169 
L 211.729474 212.933327 
L 212.815275 201.156124 
L 213.901076 232.341081 
L 214.986877 192.900638 
L 216.072679 191.387046 
L 217.15848 187.71148 
L 219.330082 224.002538 
L 220.415883 220.533054 
L 221.501684 232.321676 
L 222.587486 237.925627 
L 223.673287 228.233737 
L 224.759088 197.17517 
L 225.844889 227.503854 
L 226.93069 215.261995 
L 228.016491 236.873825 
L 229.102292 194.87256 
L 231.273895 225.957026 
L 232.359696 215.815308 
L 233.445497 243.182513 
L 234.531298 232.803231 
L 235.617099 238.22946 
L 236.702901 187.887913 
L 237.788702 210.963616 
L 238.874503 194.472526 
L 239.960304 185.845162 
L 241.046105 205.837635 
L 242.131906 204.469698 
L 243.217708 185.798384 
L 244.303509 228.672045 
L 245.38931 208.333887 
L 246.475111 225.329313 
L 247.560912 196.350099 
L 248.646713 205.628957 
L 249.732514 208.422332 
L 250.818316 221.009358 
L 251.904117 214.529384 
L 252.989918 196.634606 
L 254.075719 238.416882 
L 255.16152 217.052584 
L 256.247321 215.663762 
L 257.333123 213.504189 
L 258.418924 208.795828 
L 259.504725 214.916231 
L 260.590526 224.058102 
L 261.676327 220.514908 
L 262.762128 228.195237 
L 263.847929 220.247542 
L 264.933731 215.330812 
L 266.019532 227.744681 
L 267.105333 218.769412 
L 268.191134 231.594444 
L 269.276935 205.372387 
L 270.362736 221.826366 
L 271.448538 231.896636 
L 272.534339 224.037325 
L 273.62014 224.52281 
L 274.705941 232.704685 
L 275.791742 221.70512 
L 276.877543 233.756922 
L 277.963344 213.193575 
L 279.049146 226.471554 
L 281.220748 195.792649 
L 282.306549 197.225029 
L 283.39235 222.14559 
L 284.478151 235.853583 
L 285.563953 224.372502 
L 286.649754 204.929538 
L 287.735555 212.431379 
L 288.821356 229.525784 
L 289.907157 179.376206 
L 290.992958 216.349993 
L 292.07876 226.12411 
L 293.164561 217.213785 
L 294.250362 243.555354 
L 296.421964 210.406698 
L 297.507765 229.216509 
L 298.593566 228.83133 
L 299.679368 218.60571 
L 300.765169 239.746862 
L 301.85097 225.392425 
L 302.936771 228.824436 
L 304.022572 233.839285 
L 305.108373 211.823961 
L 306.194175 216.925411 
L 307.279976 194.026907 
L 308.365777 194.026069 
L 309.451578 188.380871 
L 310.537379 212.377329 
L 311.62318 212.899619 
L 312.708981 193.438586 
L 313.794783 193.97311 
L 314.880584 216.280277 
L 317.052186 189.710394 
L 318.137987 191.097981 
L 319.223788 216.646661 
L 320.30959 213.34936 
L 321.395391 234.010796 
L 322.481192 203.641148 
L 323.566993 198.414633 
L 324.652794 199.400775 
L 325.738595 206.565726 
L 326.824396 208.717894 
L 327.910198 207.450572 
L 328.995999 177.951318 
L 330.0818 209.286222 
L 331.167601 205.927372 
L 332.253402 206.100812 
L 333.339203 226.425777 
L 334.425005 237.59913 
L 335.510806 211.343055 
L 336.596607 227.121317 
L 337.682408 209.864528 
L 338.768209 216.554091 
L 339.85401 247.120526 
L 340.939811 230.397201 
L 342.025613 239.538676 
L 343.111414 238.387211 
L 344.197215 221.652461 
L 345.283016 230.068373 
L 346.368817 229.88973 
L 347.454618 241.704952 
L 348.54042 216.686347 
L 349.626221 259.272207 
L 350.712022 234.636054 
L 351.797823 228.555401 
L 352.883624 241.513854 
L 353.969425 261.526609 
L 355.055227 247.435825 
L 356.141028 218.807586 
L 357.226829 232.29903 
L 358.31263 239.465633 
L 359.398431 232.265565 
L 360.484232 239.461873 
L 361.570033 251.015555 
L 362.655835 227.646026 
L 363.741636 233.055332 
L 364.827437 249.357101 
L 365.913238 209.830426 
L 366.999039 220.816813 
L 368.08484 212.959843 
L 369.170642 218.695961 
L 370.256443 222.502977 
L 371.342244 229.791143 
L 372.428045 236.284298 
L 374.599647 220.424098 
L 375.685448 229.013507 
L 376.77125 241.052948 
L 377.857051 226.85446 
L 378.942852 219.031176 
L 380.028653 226.030148 
L 381.114454 199.937479 
L 382.200255 224.456875 
L 383.286057 225.905233 
L 384.371858 205.30278 
L 385.457659 211.864702 
L 386.54346 202.008756 
L 387.629261 202.118973 
L 388.715062 235.384838 
L 390.886665 214.185762 
L 391.972466 245.414809 
L 393.058267 214.703427 
L 394.144068 235.673428 
L 395.229869 222.672135 
L 396.31567 237.679868 
L 397.401472 230.358698 
L 398.487273 230.729988 
L 398.487273 230.729988 
" style="fill:none;stroke:#008000;stroke-dasharray:9.6,2.4,1.5,2.4;stroke-dashoffset:0;stroke-width:1.5;"/>
   </g>
   <g id="line2d_33">
    <path clip-path="url(#p73719e830e)" d="M 73.832727 264.394302 
L 74.918528 249.522055 
L 76.00433 242.758701 
L 77.090131 232.176932 
L 78.175932 225.118404 
L 80.347534 190.208912 
L 81.433335 189.327084 
L 82.519137 188.644925 
L 83.604938 191.405212 
L 84.690739 183.450904 
L 85.77654 183.006175 
L 86.862341 174.387422 
L 87.948142 170.252465 
L 89.033943 162.651734 
L 90.119745 173.139195 
L 91.205546 165.938133 
L 92.291347 147.162408 
L 93.377148 162.625723 
L 94.462949 142.739178 
L 95.54875 138.381353 
L 96.634552 153.448091 
L 97.720353 137.715533 
L 98.806154 142.598434 
L 99.891955 152.019879 
L 100.977756 168.099443 
L 102.063557 139.749055 
L 103.149358 157.266533 
L 104.23516 141.930169 
L 105.320961 147.369432 
L 106.406762 140.915585 
L 107.492563 125.735497 
L 108.578364 145.399258 
L 109.664165 151.937257 
L 110.749967 150.078619 
L 111.835768 149.782585 
L 112.921569 134.408278 
L 114.00737 145.284489 
L 115.093171 140.099863 
L 116.178972 132.76399 
L 117.264773 127.443309 
L 118.350575 124.046367 
L 119.436376 113.126386 
L 120.522177 127.855986 
L 121.607978 106.591245 
L 122.693779 121.374995 
L 123.77958 96.247288 
L 124.865382 117.886814 
L 125.951183 107.85668 
L 127.036984 113.205243 
L 128.122785 104.395475 
L 129.208586 103.651593 
L 130.294387 113.928981 
L 131.380189 104.307981 
L 132.46599 107.188168 
L 133.551791 90.741532 
L 134.637592 98.052258 
L 135.723393 94.788879 
L 136.809194 121.919263 
L 137.894995 110.500867 
L 138.980797 115.583271 
L 140.066598 110.219485 
L 141.152399 111.608306 
L 142.2382 114.056581 
L 143.324001 108.285019 
L 144.409802 130.449003 
L 145.495604 108.068968 
L 146.581405 106.43616 
L 147.667206 107.351512 
L 148.753007 102.698602 
L 149.838808 119.512586 
L 150.924609 126.791976 
L 152.01041 152.305922 
L 153.096212 120.424256 
L 154.182013 123.820382 
L 156.353615 150.876683 
L 157.439416 126.262385 
L 158.525217 129.782039 
L 159.611019 101.919654 
L 160.69682 119.444394 
L 161.782621 112.234333 
L 162.868422 111.563456 
L 163.954223 101.586311 
L 165.040024 93.743053 
L 166.125825 116.161697 
L 167.211627 98.245989 
L 168.297428 77.150681 
L 169.383229 97.648824 
L 170.46903 94.073334 
L 171.554831 97.723364 
L 172.640632 122.250374 
L 173.726434 107.209289 
L 174.812235 113.811045 
L 175.898036 117.10312 
L 176.983837 101.745811 
L 178.069638 104.876468 
L 179.155439 92.775726 
L 180.24124 103.927692 
L 181.327042 94.778084 
L 182.412843 87.517028 
L 183.498644 108.745677 
L 184.584445 105.4525 
L 185.670246 89.601639 
L 186.756047 101.032623 
L 187.841849 92.068021 
L 188.92765 113.69834 
L 190.013451 91.607473 
L 191.099252 103.513521 
L 192.185053 91.759482 
L 193.270854 90.824273 
L 194.356656 86.303624 
L 195.442457 101.192849 
L 196.528258 84.573606 
L 197.614059 69.86606 
L 198.69986 87.255897 
L 199.785661 106.840574 
L 200.871462 95.875158 
L 201.957264 82.979467 
L 203.043065 108.698391 
L 204.128866 88.419093 
L 205.214667 92.990303 
L 206.300468 81.57808 
L 207.386269 88.77938 
L 208.472071 91.783891 
L 209.557872 82.096186 
L 210.643673 100.895881 
L 211.729474 78.776184 
L 212.815275 80.068601 
L 213.901076 97.41155 
L 214.986877 94.201179 
L 216.072679 91.61825 
L 217.15848 59.150735 
L 218.244281 81.44742 
L 219.330082 79.847637 
L 220.415883 110.367633 
L 221.501684 78.09492 
L 222.587486 90.41771 
L 223.673287 79.97487 
L 224.759088 82.550615 
L 225.844889 96.921981 
L 226.93069 72.969133 
L 228.016491 97.441706 
L 229.102292 65.590837 
L 230.188094 106.874901 
L 231.273895 71.959371 
L 232.359696 99.739683 
L 233.445497 105.461931 
L 234.531298 104.397294 
L 235.617099 111.449343 
L 236.702901 71.497809 
L 237.788702 71.916524 
L 238.874503 67.341203 
L 239.960304 72.79257 
L 241.046105 98.231406 
L 242.131906 102.123319 
L 243.217708 81.04078 
L 244.303509 97.934677 
L 245.38931 85.429726 
L 247.560912 69.555292 
L 248.646713 89.389744 
L 249.732514 78.918786 
L 250.818316 97.410719 
L 251.904117 89.013626 
L 252.989918 96.277783 
L 254.075719 114.904125 
L 255.16152 108.949543 
L 256.247321 95.177463 
L 257.333123 98.065421 
L 258.418924 85.753606 
L 259.504725 104.098777 
L 260.590526 109.396469 
L 261.676327 101.109118 
L 262.762128 116.201489 
L 263.847929 96.538749 
L 264.933731 81.965659 
L 266.019532 121.303946 
L 267.105333 106.070627 
L 268.191134 123.80321 
L 269.276935 100.119799 
L 270.362736 122.279824 
L 271.448538 100.340832 
L 272.534339 114.968524 
L 273.62014 114.517954 
L 274.705941 118.56474 
L 275.791742 115.809551 
L 276.877543 105.82379 
L 277.963344 89.778933 
L 279.049146 90.669295 
L 280.134947 103.683885 
L 281.220748 85.715418 
L 282.306549 80.484271 
L 283.39235 111.500789 
L 284.478151 96.716665 
L 285.563953 97.628595 
L 286.649754 98.034365 
L 287.735555 82.630135 
L 288.821356 98.75404 
L 289.907157 88.021471 
L 290.992958 98.161368 
L 292.07876 96.958688 
L 293.164561 101.839801 
L 294.250362 111.990475 
L 295.336163 88.41499 
L 296.421964 92.017505 
L 297.507765 116.887355 
L 298.593566 105.129175 
L 299.679368 109.305827 
L 300.765169 122.616813 
L 301.85097 92.685463 
L 302.936771 120.680955 
L 304.022572 106.612766 
L 305.108373 94.925135 
L 306.194175 98.383396 
L 307.279976 71.125021 
L 308.365777 90.286474 
L 309.451578 101.418747 
L 310.537379 97.927938 
L 311.62318 84.648694 
L 312.708981 79.237801 
L 313.794783 85.501051 
L 314.880584 93.039794 
L 315.966385 64.51086 
L 318.137987 118.743742 
L 319.223788 116.440614 
L 320.30959 120.832504 
L 321.395391 112.427558 
L 322.481192 92.691952 
L 324.652794 102.079984 
L 325.738595 89.643548 
L 326.824396 121.502499 
L 327.910198 96.13218 
L 328.995999 95.672507 
L 330.0818 106.549383 
L 331.167601 119.408558 
L 332.253402 126.580701 
L 333.339203 107.758145 
L 334.425005 108.56648 
L 335.510806 115.522098 
L 336.596607 96.887 
L 337.682408 106.00866 
L 338.768209 105.538609 
L 339.85401 113.907745 
L 340.939811 117.445316 
L 342.025613 109.792675 
L 343.111414 118.184862 
L 344.197215 102.99767 
L 345.283016 114.307637 
L 346.368817 117.944415 
L 347.454618 107.297965 
L 348.54042 104.864639 
L 349.626221 128.652324 
L 350.712022 106.613021 
L 351.797823 98.560803 
L 352.883624 105.113135 
L 353.969425 129.980435 
L 355.055227 130.293378 
L 356.141028 100.05026 
L 357.226829 128.802888 
L 358.31263 119.998591 
L 359.398431 132.710641 
L 360.484232 133.6282 
L 361.570033 125.631716 
L 362.655835 112.08922 
L 363.741636 130.794221 
L 364.827437 135.421652 
L 365.913238 111.647589 
L 366.999039 107.788215 
L 368.08484 124.524988 
L 369.170642 120.610937 
L 370.256443 124.261296 
L 371.342244 124.107826 
L 372.428045 134.166004 
L 373.513846 122.984412 
L 374.599647 121.678371 
L 375.685448 114.820281 
L 376.77125 131.980984 
L 377.857051 135.843021 
L 378.942852 116.964714 
L 380.028653 112.261422 
L 381.114454 102.450973 
L 382.200255 98.61366 
L 383.286057 114.46017 
L 384.371858 99.037281 
L 385.457659 102.817562 
L 386.54346 86.55157 
L 387.629261 90.319307 
L 388.715062 106.47433 
L 389.800863 112.402919 
L 390.886665 113.409666 
L 391.972466 122.405963 
L 393.058267 116.679227 
L 394.144068 108.731158 
L 395.229869 125.39545 
L 396.31567 117.164767 
L 397.401472 143.912431 
L 398.487273 125.38598 
L 398.487273 125.38598 
" style="fill:none;stroke:#008000;stroke-dasharray:9.6,2.4,1.5,2.4;stroke-dashoffset:0;stroke-width:1.5;"/>
   </g>
   <g id="line2d_34">
    <path clip-path="url(#p73719e830e)" d="M 73.832727 254.898454 
L 74.918528 249.549775 
L 76.00433 242.751307 
L 77.090131 228.462146 
L 78.175932 223.47294 
L 79.261733 197.704683 
L 80.347534 189.452249 
L 81.433335 191.686134 
L 82.519137 187.928282 
L 83.604938 192.388301 
L 84.690739 189.477022 
L 85.77654 178.693856 
L 86.862341 171.399551 
L 87.948142 166.608527 
L 89.033943 154.631288 
L 90.119745 158.013315 
L 91.205546 147.75723 
L 92.291347 134.704426 
L 93.377148 154.436183 
L 94.462949 134.650605 
L 95.54875 131.708932 
L 96.634552 146.419074 
L 97.720353 143.438296 
L 98.806154 146.118707 
L 99.891955 152.203783 
L 100.977756 168.916293 
L 102.063557 137.44172 
L 103.149358 151.476857 
L 104.23516 138.06744 
L 105.320961 152.38362 
L 106.406762 138.777181 
L 107.492563 128.028637 
L 108.578364 137.200761 
L 109.664165 151.521368 
L 110.749967 138.840955 
L 111.835768 145.830226 
L 112.921569 127.061697 
L 114.00737 135.85842 
L 115.093171 112.994477 
L 116.178972 105.939444 
L 117.264773 92.919217 
L 118.350575 89.949311 
L 119.436376 76.904139 
L 120.522177 98.213045 
L 121.607978 87.550788 
L 122.693779 91.127741 
L 123.77958 72.681053 
L 124.865382 99.519652 
L 125.951183 90.697638 
L 127.036984 94.406412 
L 128.122785 78.773884 
L 129.208586 83.701345 
L 130.294387 97.494806 
L 131.380189 82.311288 
L 132.46599 83.487466 
L 133.551791 74.357006 
L 134.637592 82.842236 
L 135.723393 73.09114 
L 136.809194 105.894152 
L 137.894995 93.852623 
L 138.980797 102.066498 
L 140.066598 93.592822 
L 141.152399 87.676614 
L 142.2382 106.962256 
L 143.324001 90.30187 
L 144.409802 93.036422 
L 145.495604 81.736053 
L 146.581405 84.530795 
L 147.667206 83.879492 
L 148.753007 80.524788 
L 150.924609 105.04037 
L 152.01041 132.623167 
L 153.096212 74.309125 
L 154.182013 89.253115 
L 155.267814 94.296343 
L 156.353615 105.93107 
L 157.439416 111.922015 
L 158.525217 112.846132 
L 159.611019 93.613797 
L 160.69682 89.615429 
L 161.782621 104.970336 
L 162.868422 83.250304 
L 163.954223 77.77766 
L 165.040024 75.422515 
L 166.125825 89.304851 
L 167.211627 82.18632 
L 168.297428 73.162332 
L 169.383229 87.01249 
L 170.46903 89.56765 
L 171.554831 95.450045 
L 172.640632 102.800161 
L 173.726434 106.422388 
L 174.812235 105.061509 
L 175.898036 106.159356 
L 176.983837 85.99708 
L 178.069638 98.568124 
L 179.155439 82.846284 
L 180.24124 88.735075 
L 181.327042 87.737443 
L 182.412843 88.944806 
L 183.498644 92.206074 
L 184.584445 96.230922 
L 185.670246 76.100399 
L 186.756047 83.616056 
L 187.841849 77.54795 
L 188.92765 92.868443 
L 190.013451 68.948446 
L 191.099252 76.072458 
L 192.185053 70.446662 
L 193.270854 82.064593 
L 194.356656 74.522577 
L 195.442457 88.845622 
L 196.528258 72.4254 
L 197.614059 64.012243 
L 198.69986 64.029268 
L 199.785661 89.795295 
L 200.871462 72.143215 
L 201.957264 63.358809 
L 203.043065 85.511483 
L 204.128866 79.417146 
L 205.214667 88.532375 
L 206.300468 64.676868 
L 207.386269 85.123347 
L 208.472071 76.743051 
L 209.557872 77.329629 
L 210.643673 84.275409 
L 211.729474 66.317432 
L 212.815275 65.131884 
L 213.901076 70.414786 
L 214.986877 80.526778 
L 216.072679 75.130834 
L 217.15848 54.130071 
L 218.244281 74.354102 
L 219.330082 74.39604 
L 220.415883 103.193876 
L 221.501684 71.385223 
L 222.587486 80.2193 
L 223.673287 73.925659 
L 224.759088 80.622684 
L 225.844889 97.067671 
L 226.93069 64.472558 
L 228.016491 78.669795 
L 229.102292 74.904834 
L 230.188094 103.620675 
L 231.273895 65.53352 
L 232.359696 91.029091 
L 233.445497 75.587961 
L 234.531298 85.492295 
L 235.617099 97.343111 
L 236.702901 72.469565 
L 237.788702 72.043937 
L 238.874503 70.162222 
L 239.960304 60.556314 
L 241.046105 92.199846 
L 242.131906 88.766432 
L 243.217708 72.269098 
L 244.303509 81.740808 
L 245.38931 73.960131 
L 246.475111 60.136482 
L 247.560912 60.120476 
L 248.646713 68.543507 
L 249.732514 62.545605 
L 250.818316 84.586365 
L 251.904117 66.128347 
L 252.989918 56.955074 
L 254.075719 84.294682 
L 255.16152 74.750414 
L 256.247321 66.225969 
L 257.333123 63.400361 
L 259.504725 68.294987 
L 260.590526 84.765004 
L 261.676327 63.867904 
L 262.762128 80.277781 
L 263.847929 68.174509 
L 264.933731 66.890462 
L 266.019532 98.086454 
L 267.105333 90.263771 
L 268.191134 98.130592 
L 269.276935 85.185564 
L 270.362736 105.043521 
L 271.448538 73.692249 
L 272.534339 99.269903 
L 273.62014 83.494065 
L 274.705941 88.355951 
L 275.791742 89.330702 
L 277.963344 73.97053 
L 279.049146 70.918075 
L 280.134947 79.759131 
L 281.220748 67.147406 
L 282.306549 63.445864 
L 283.39235 90.951366 
L 284.478151 58.041337 
L 286.649754 81.309397 
L 287.735555 62.172185 
L 288.821356 84.03143 
L 289.907157 77.226112 
L 290.992958 77.102545 
L 292.07876 68.114568 
L 293.164561 76.384166 
L 294.250362 75.583885 
L 295.336163 72.270993 
L 296.421964 74.161785 
L 297.507765 97.699803 
L 298.593566 79.055653 
L 299.679368 76.040831 
L 300.765169 91.30542 
L 301.85097 53.568 
L 302.936771 84.707447 
L 304.022572 78.350948 
L 305.108373 78.560868 
L 306.194175 80.092172 
L 307.279976 60.295416 
L 308.365777 81.315314 
L 309.451578 87.14136 
L 310.537379 78.310668 
L 311.62318 79.302871 
L 312.708981 70.976178 
L 313.794783 72.073384 
L 314.880584 72.116865 
L 315.966385 59.018011 
L 317.052186 90.005392 
L 318.137987 92.638846 
L 319.223788 94.604894 
L 320.30959 101.655116 
L 321.395391 94.909342 
L 322.481192 75.562777 
L 323.566993 95.946626 
L 324.652794 78.913925 
L 325.738595 76.07577 
L 326.824396 99.749427 
L 327.910198 78.300025 
L 328.995999 82.105489 
L 330.0818 78.23504 
L 331.167601 105.10586 
L 332.253402 107.634502 
L 333.339203 90.922353 
L 334.425005 78.725249 
L 335.510806 88.064226 
L 336.596607 70.16796 
L 337.682408 84.083694 
L 338.768209 89.474169 
L 339.85401 90.567841 
L 340.939811 81.569648 
L 342.025613 83.38992 
L 343.111414 87.485859 
L 344.197215 74.595251 
L 345.283016 85.774096 
L 346.368817 104.257941 
L 347.454618 72.633462 
L 348.54042 82.437846 
L 349.626221 87.47301 
L 350.712022 84.207072 
L 351.797823 70.922238 
L 352.883624 75.446982 
L 353.969425 100.019062 
L 355.055227 104.616585 
L 356.141028 84.688654 
L 357.226829 107.176993 
L 358.31263 88.633993 
L 359.398431 104.871042 
L 360.484232 101.946347 
L 361.570033 78.555009 
L 362.655835 81.533588 
L 364.827437 117.096234 
L 365.913238 92.908002 
L 366.999039 82.915212 
L 368.08484 108.883592 
L 369.170642 96.779174 
L 370.256443 92.17285 
L 371.342244 100.726003 
L 372.428045 106.291371 
L 373.513846 98.911961 
L 374.599647 89.590371 
L 375.685448 94.332756 
L 376.77125 106.471034 
L 377.857051 102.53588 
L 378.942852 90.745993 
L 380.028653 95.464231 
L 381.114454 83.470107 
L 382.200255 74.855337 
L 383.286057 99.416942 
L 384.371858 92.759612 
L 385.457659 90.824976 
L 386.54346 86.390631 
L 387.629261 84.754828 
L 388.715062 96.669815 
L 389.800863 91.238199 
L 390.886665 93.69907 
L 391.972466 92.90364 
L 393.058267 96.836873 
L 394.144068 94.165157 
L 395.229869 110.741366 
L 396.31567 102.465343 
L 397.401472 130.749673 
L 398.487273 100.3484 
L 398.487273 100.3484 
" style="fill:none;stroke:#ff0000;stroke-linecap:square;stroke-width:1.5;"/>
   </g>
   <g id="patch_3">
    <path d="M 57.6 307.584 
L 57.6 41.472 
" style="fill:none;stroke:#000000;stroke-linecap:square;stroke-linejoin:miter;stroke-width:0.8;"/>
   </g>
   <g id="patch_4">
    <path d="M 414.72 307.584 
L 414.72 41.472 
" style="fill:none;stroke:#000000;stroke-linecap:square;stroke-linejoin:miter;stroke-width:0.8;"/>
   </g>
   <g id="patch_5">
    <path d="M 57.6 307.584 
L 414.72 307.584 
" style="fill:none;stroke:#000000;stroke-linecap:square;stroke-linejoin:miter;stroke-width:0.8;"/>
   </g>
   <g id="patch_6">
    <path d="M 57.6 41.472 
L 414.72 41.472 
" style="fill:none;stroke:#000000;stroke-linecap:square;stroke-linejoin:miter;stroke-width:0.8;"/>
   </g>
   <g id="text_18">
    <!-- Population's average and best fitness -->
    <defs>
     <path d="M 19.671875 64.796875 
L 19.671875 37.40625 
L 32.078125 37.40625 
Q 38.96875 37.40625 42.71875 40.96875 
Q 46.484375 44.53125 46.484375 51.125 
Q 46.484375 57.671875 42.71875 61.234375 
Q 38.96875 64.796875 32.078125 64.796875 
z
M 9.8125 72.90625 
L 32.078125 72.90625 
Q 44.34375 72.90625 50.609375 67.359375 
Q 56.890625 61.8125 56.890625 51.125 
Q 56.890625 40.328125 50.609375 34.8125 
Q 44.34375 29.296875 32.078125 29.296875 
L 19.671875 29.296875 
L 19.671875 0 
L 9.8125 0 
z
" id="DejaVuSans-80"/>
     <path d="M 18.109375 8.203125 
L 18.109375 -20.796875 
L 9.078125 -20.796875 
L 9.078125 54.6875 
L 18.109375 54.6875 
L 18.109375 46.390625 
Q 20.953125 51.265625 25.265625 53.625 
Q 29.59375 56 35.59375 56 
Q 45.5625 56 51.78125 48.09375 
Q 58.015625 40.1875 58.015625 27.296875 
Q 58.015625 14.40625 51.78125 6.484375 
Q 45.5625 -1.421875 35.59375 -1.421875 
Q 29.59375 -1.421875 25.265625 0.953125 
Q 20.953125 3.328125 18.109375 8.203125 
z
M 48.6875 27.296875 
Q 48.6875 37.203125 44.609375 42.84375 
Q 40.53125 48.484375 33.40625 48.484375 
Q 26.265625 48.484375 22.1875 42.84375 
Q 18.109375 37.203125 18.109375 27.296875 
Q 18.109375 17.390625 22.1875 11.75 
Q 26.265625 6.109375 33.40625 6.109375 
Q 40.53125 6.109375 44.609375 11.75 
Q 48.6875 17.390625 48.6875 27.296875 
z
" id="DejaVuSans-112"/>
     <path d="M 8.5 21.578125 
L 8.5 54.6875 
L 17.484375 54.6875 
L 17.484375 21.921875 
Q 17.484375 14.15625 20.5 10.265625 
Q 23.53125 6.390625 29.59375 6.390625 
Q 36.859375 6.390625 41.078125 11.03125 
Q 45.3125 15.671875 45.3125 23.6875 
L 45.3125 54.6875 
L 54.296875 54.6875 
L 54.296875 0 
L 45.3125 0 
L 45.3125 8.40625 
Q 42.046875 3.421875 37.71875 1 
Q 33.40625 -1.421875 27.6875 -1.421875 
Q 18.265625 -1.421875 13.375 4.4375 
Q 8.5 10.296875 8.5 21.578125 
z
M 31.109375 56 
z
" id="DejaVuSans-117"/>
     <path d="M 9.421875 75.984375 
L 18.40625 75.984375 
L 18.40625 0 
L 9.421875 0 
z
" id="DejaVuSans-108"/>
     <path d="M 17.921875 72.90625 
L 17.921875 45.796875 
L 9.625 45.796875 
L 9.625 72.90625 
z
" id="DejaVuSans-39"/>
     <path id="DejaVuSans-32"/>
     <path d="M 2.984375 54.6875 
L 12.5 54.6875 
L 29.59375 8.796875 
L 46.6875 54.6875 
L 56.203125 54.6875 
L 35.6875 0 
L 23.484375 0 
z
" id="DejaVuSans-118"/>
     <path d="M 45.40625 27.984375 
Q 45.40625 37.75 41.375 43.109375 
Q 37.359375 48.484375 30.078125 48.484375 
Q 22.859375 48.484375 18.828125 43.109375 
Q 14.796875 37.75 14.796875 27.984375 
Q 14.796875 18.265625 18.828125 12.890625 
Q 22.859375 7.515625 30.078125 7.515625 
Q 37.359375 7.515625 41.375 12.890625 
Q 45.40625 18.265625 45.40625 27.984375 
z
M 54.390625 6.78125 
Q 54.390625 -7.171875 48.1875 -13.984375 
Q 42 -20.796875 29.203125 -20.796875 
Q 24.46875 -20.796875 20.265625 -20.09375 
Q 16.0625 -19.390625 12.109375 -17.921875 
L 12.109375 -9.1875 
Q 16.0625 -11.328125 19.921875 -12.34375 
Q 23.78125 -13.375 27.78125 -13.375 
Q 36.625 -13.375 41.015625 -8.765625 
Q 45.40625 -4.15625 45.40625 5.171875 
L 45.40625 9.625 
Q 42.625 4.78125 38.28125 2.390625 
Q 33.9375 0 27.875 0 
Q 17.828125 0 11.671875 7.65625 
Q 5.515625 15.328125 5.515625 27.984375 
Q 5.515625 40.671875 11.671875 48.328125 
Q 17.828125 56 27.875 56 
Q 33.9375 56 38.28125 53.609375 
Q 42.625 51.21875 45.40625 46.390625 
L 45.40625 54.6875 
L 54.390625 54.6875 
z
" id="DejaVuSans-103"/>
     <path d="M 45.40625 46.390625 
L 45.40625 75.984375 
L 54.390625 75.984375 
L 54.390625 0 
L 45.40625 0 
L 45.40625 8.203125 
Q 42.578125 3.328125 38.25 0.953125 
Q 33.9375 -1.421875 27.875 -1.421875 
Q 17.96875 -1.421875 11.734375 6.484375 
Q 5.515625 14.40625 5.515625 27.296875 
Q 5.515625 40.1875 11.734375 48.09375 
Q 17.96875 56 27.875 56 
Q 33.9375 56 38.25 53.625 
Q 42.578125 51.265625 45.40625 46.390625 
z
M 14.796875 27.296875 
Q 14.796875 17.390625 18.875 11.75 
Q 22.953125 6.109375 30.078125 6.109375 
Q 37.203125 6.109375 41.296875 11.75 
Q 45.40625 17.390625 45.40625 27.296875 
Q 45.40625 37.203125 41.296875 42.84375 
Q 37.203125 48.484375 30.078125 48.484375 
Q 22.953125 48.484375 18.875 42.84375 
Q 14.796875 37.203125 14.796875 27.296875 
z
" id="DejaVuSans-100"/>
     <path d="M 48.6875 27.296875 
Q 48.6875 37.203125 44.609375 42.84375 
Q 40.53125 48.484375 33.40625 48.484375 
Q 26.265625 48.484375 22.1875 42.84375 
Q 18.109375 37.203125 18.109375 27.296875 
Q 18.109375 17.390625 22.1875 11.75 
Q 26.265625 6.109375 33.40625 6.109375 
Q 40.53125 6.109375 44.609375 11.75 
Q 48.6875 17.390625 48.6875 27.296875 
z
M 18.109375 46.390625 
Q 20.953125 51.265625 25.265625 53.625 
Q 29.59375 56 35.59375 56 
Q 45.5625 56 51.78125 48.09375 
Q 58.015625 40.1875 58.015625 27.296875 
Q 58.015625 14.40625 51.78125 6.484375 
Q 45.5625 -1.421875 35.59375 -1.421875 
Q 29.59375 -1.421875 25.265625 0.953125 
Q 20.953125 3.328125 18.109375 8.203125 
L 18.109375 0 
L 9.078125 0 
L 9.078125 75.984375 
L 18.109375 75.984375 
z
" id="DejaVuSans-98"/>
     <path d="M 37.109375 75.984375 
L 37.109375 68.5 
L 28.515625 68.5 
Q 23.6875 68.5 21.796875 66.546875 
Q 19.921875 64.59375 19.921875 59.515625 
L 19.921875 54.6875 
L 34.71875 54.6875 
L 34.71875 47.703125 
L 19.921875 47.703125 
L 19.921875 0 
L 10.890625 0 
L 10.890625 47.703125 
L 2.296875 47.703125 
L 2.296875 54.6875 
L 10.890625 54.6875 
L 10.890625 58.5 
Q 10.890625 67.625 15.140625 71.796875 
Q 19.390625 75.984375 28.609375 75.984375 
z
" id="DejaVuSans-102"/>
    </defs>
    <g transform="translate(123.315 35.472)scale(0.12 -0.12)">
     <use xlink:href="#DejaVuSans-80"/>
     <use x="60.255859" xlink:href="#DejaVuSans-111"/>
     <use x="121.4375" xlink:href="#DejaVuSans-112"/>
     <use x="184.914062" xlink:href="#DejaVuSans-117"/>
     <use x="248.292969" xlink:href="#DejaVuSans-108"/>
     <use x="276.076172" xlink:href="#DejaVuSans-97"/>
     <use x="337.355469" xlink:href="#DejaVuSans-116"/>
     <use x="376.564453" xlink:href="#DejaVuSans-105"/>
     <use x="404.347656" xlink:href="#DejaVuSans-111"/>
     <use x="465.529297" xlink:href="#DejaVuSans-110"/>
     <use x="528.908203" xlink:href="#DejaVuSans-39"/>
     <use x="556.398438" xlink:href="#DejaVuSans-115"/>
     <use x="608.498047" xlink:href="#DejaVuSans-32"/>
     <use x="640.285156" xlink:href="#DejaVuSans-97"/>
     <use x="701.564453" xlink:href="#DejaVuSans-118"/>
     <use x="760.744141" xlink:href="#DejaVuSans-101"/>
     <use x="822.267578" xlink:href="#DejaVuSans-114"/>
     <use x="863.380859" xlink:href="#DejaVuSans-97"/>
     <use x="924.660156" xlink:href="#DejaVuSans-103"/>
     <use x="988.136719" xlink:href="#DejaVuSans-101"/>
     <use x="1049.660156" xlink:href="#DejaVuSans-32"/>
     <use x="1081.447266" xlink:href="#DejaVuSans-97"/>
     <use x="1142.726562" xlink:href="#DejaVuSans-110"/>
     <use x="1206.105469" xlink:href="#DejaVuSans-100"/>
     <use x="1269.582031" xlink:href="#DejaVuSans-32"/>
     <use x="1301.369141" xlink:href="#DejaVuSans-98"/>
     <use x="1364.845703" xlink:href="#DejaVuSans-101"/>
     <use x="1426.369141" xlink:href="#DejaVuSans-115"/>
     <use x="1478.46875" xlink:href="#DejaVuSans-116"/>
     <use x="1517.677734" xlink:href="#DejaVuSans-32"/>
     <use x="1549.464844" xlink:href="#DejaVuSans-102"/>
     <use x="1584.669922" xlink:href="#DejaVuSans-105"/>
     <use x="1612.453125" xlink:href="#DejaVuSans-116"/>
     <use x="1651.662109" xlink:href="#DejaVuSans-110"/>
     <use x="1715.041016" xlink:href="#DejaVuSans-101"/>
     <use x="1776.564453" xlink:href="#DejaVuSans-115"/>
     <use x="1828.664062" xlink:href="#DejaVuSans-115"/>
    </g>
   </g>
   <g id="legend_1">
    <g id="patch_7">
     <path d="M 199.689687 302.584 
L 272.630313 302.584 
Q 274.630313 302.584 274.630313 300.584 
L 274.630313 242.8715 
Q 274.630313 240.8715 272.630313 240.8715 
L 199.689687 240.8715 
Q 197.689687 240.8715 197.689687 242.8715 
L 197.689687 300.584 
Q 197.689687 302.584 199.689687 302.584 
z
" style="fill:#ffffff;opacity:0.8;stroke:#cccccc;stroke-linejoin:miter;"/>
    </g>
    <g id="line2d_35">
     <path d="M 201.689687 248.969937 
L 221.689687 248.969937 
" style="fill:none;stroke:#0000ff;stroke-linecap:square;stroke-width:1.5;"/>
    </g>
    <g id="line2d_36"/>
    <g id="text_19">
     <!-- average -->
     <g transform="translate(229.689687 252.469937)scale(0.1 -0.1)">
      <use xlink:href="#DejaVuSans-97"/>
      <use x="61.279297" xlink:href="#DejaVuSans-118"/>
      <use x="120.458984" xlink:href="#DejaVuSans-101"/>
      <use x="181.982422" xlink:href="#DejaVuSans-114"/>
      <use x="223.095703" xlink:href="#DejaVuSans-97"/>
      <use x="284.375" xlink:href="#DejaVuSans-103"/>
      <use x="347.851562" xlink:href="#DejaVuSans-101"/>
     </g>
    </g>
    <g id="line2d_37">
     <path d="M 201.689687 263.648062 
L 221.689687 263.648062 
" style="fill:none;stroke:#008000;stroke-dasharray:9.6,2.4,1.5,2.4;stroke-dashoffset:0;stroke-width:1.5;"/>
    </g>
    <g id="line2d_38"/>
    <g id="text_20">
     <!-- -1 sd -->
     <defs>
      <path d="M 4.890625 31.390625 
L 31.203125 31.390625 
L 31.203125 23.390625 
L 4.890625 23.390625 
z
" id="DejaVuSans-45"/>
     </defs>
     <g transform="translate(229.689687 267.148062)scale(0.1 -0.1)">
      <use xlink:href="#DejaVuSans-45"/>
      <use x="36.083984" xlink:href="#DejaVuSans-49"/>
      <use x="99.707031" xlink:href="#DejaVuSans-32"/>
      <use x="131.494141" xlink:href="#DejaVuSans-115"/>
      <use x="183.59375" xlink:href="#DejaVuSans-100"/>
     </g>
    </g>
    <g id="line2d_39">
     <path d="M 201.689687 278.326187 
L 221.689687 278.326187 
" style="fill:none;stroke:#008000;stroke-dasharray:9.6,2.4,1.5,2.4;stroke-dashoffset:0;stroke-width:1.5;"/>
    </g>
    <g id="line2d_40"/>
    <g id="text_21">
     <!-- +1 sd -->
     <defs>
      <path d="M 46 62.703125 
L 46 35.5 
L 73.1875 35.5 
L 73.1875 27.203125 
L 46 27.203125 
L 46 0 
L 37.796875 0 
L 37.796875 27.203125 
L 10.59375 27.203125 
L 10.59375 35.5 
L 37.796875 35.5 
L 37.796875 62.703125 
z
" id="DejaVuSans-43"/>
     </defs>
     <g transform="translate(229.689687 281.826187)scale(0.1 -0.1)">
      <use xlink:href="#DejaVuSans-43"/>
      <use x="83.789062" xlink:href="#DejaVuSans-49"/>
      <use x="147.412109" xlink:href="#DejaVuSans-32"/>
      <use x="179.199219" xlink:href="#DejaVuSans-115"/>
      <use x="231.298828" xlink:href="#DejaVuSans-100"/>
     </g>
    </g>
    <g id="line2d_41">
     <path d="M 201.689687 293.004312 
L 221.689687 293.004312 
" style="fill:none;stroke:#ff0000;stroke-linecap:square;stroke-width:1.5;"/>
    </g>
    <g id="line2d_42"/>
    <g id="text_22">
     <!-- best -->
     <g transform="translate(229.689687 296.504312)scale(0.1 -0.1)">
      <use xlink:href="#DejaVuSans-98"/>
      <use x="63.476562" xlink:href="#DejaVuSans-101"/>
      <use x="125" xlink:href="#DejaVuSans-115"/>
      <use x="177.099609" xlink:href="#DejaVuSans-116"/>
     </g>
    </g>
   </g>
  </g>
 </g>
 <defs>
  <clipPath id="p73719e830e">
   <rect height="266.112" width="357.12" x="57.6" y="41.472"/>
  </clipPath>
 </defs>
</svg>
