<?xml version="1.0" encoding="UTF-8" standalone="no"?>
<!DOCTYPE svg PUBLIC "-//W3C//DTD SVG 1.1//EN"
 "http://www.w3.org/Graphics/SVG/1.1/DTD/svg11.dtd">
<!-- Generated by graphviz version 2.40.1 (20161225.0304)
 -->
<!-- Title: %3 Pages: 1 -->
<svg width="387pt" height="91pt"
 viewBox="0.00 0.00 387.49 90.71" xmlns="http://www.w3.org/2000/svg" xmlns:xlink="http://www.w3.org/1999/xlink">
<g id="graph0" class="graph" transform="scale(1 1) rotate(0) translate(4 86.7061)">
<title>%3</title>
<polygon fill="#ffffff" stroke="transparent" points="-4,4 -4,-86.7061 383.4945,-86.7061 383.4945,4 -4,4"/>
<!-- E0 -->
<g id="node1" class="node">
<title>E0</title>
<polygon fill="#d3d3d3" stroke="#000000" points="27.4932,-82.7061 1.4981,-82.7061 1.4981,-65.7061 27.4932,-65.7061 27.4932,-82.7061"/>
<text text-anchor="middle" x="14.4957" y="-71.5061" font-family="Times,serif" font-size="9.00" fill="#000000">E0</text>
</g>
<!-- E1 -->
<g id="node2" class="node">
<title>E1</title>
<polygon fill="#d3d3d3" stroke="#000000" points="71.4932,-82.7061 45.4981,-82.7061 45.4981,-65.7061 71.4932,-65.7061 71.4932,-82.7061"/>
<text text-anchor="middle" x="58.4957" y="-71.5061" font-family="Times,serif" font-size="9.00" fill="#000000">E1</text>
</g>
<!-- E0&#45;&gt;E1 -->
<!-- 0 -->
<g id="node10" class="node">
<title>0</title>
<ellipse fill="#87cefa" stroke="#000000" cx="14.4957" cy="-14.853" rx="14.4914" ry="14.4914"/>
<text text-anchor="middle" x="14.4957" y="-12.153" font-family="Times,serif" font-size="9.00" fill="#000000">0</text>
</g>
<!-- E0&#45;&gt;0 -->
<g id="edge12" class="edge">
<title>E0&#45;&gt;0</title>
<path fill="none" stroke="#ff0000" stroke-width="3.2188" d="M14.4957,-65.7022C14.4957,-58.9749 14.4957,-49.2187 14.4957,-40.0472"/>
<polygon fill="#ff0000" stroke="#ff0000" stroke-width="3.2188" points="17.9958,-39.7656 14.4957,-29.7657 10.9958,-39.7657 17.9958,-39.7656"/>
</g>
<!-- E2 -->
<g id="node3" class="node">
<title>E2</title>
<polygon fill="#d3d3d3" stroke="#000000" points="115.4932,-82.7061 89.4981,-82.7061 89.4981,-65.7061 115.4932,-65.7061 115.4932,-82.7061"/>
<text text-anchor="middle" x="102.4957" y="-71.5061" font-family="Times,serif" font-size="9.00" fill="#000000">E2</text>
</g>
<!-- E1&#45;&gt;E2 -->
<!-- E3 -->
<g id="node4" class="node">
<title>E3</title>
<polygon fill="#d3d3d3" stroke="#000000" points="159.4932,-82.7061 133.4981,-82.7061 133.4981,-65.7061 159.4932,-65.7061 159.4932,-82.7061"/>
<text text-anchor="middle" x="146.4957" y="-71.5061" font-family="Times,serif" font-size="9.00" fill="#000000">E3</text>
</g>
<!-- E2&#45;&gt;E3 -->
<!-- 2 -->
<g id="node12" class="node">
<title>2</title>
<ellipse fill="#87cefa" stroke="#000000" cx="108.4957" cy="-14.853" rx="14.4914" ry="14.4914"/>
<text text-anchor="middle" x="108.4957" y="-12.153" font-family="Times,serif" font-size="9.00" fill="#000000">2</text>
</g>
<!-- E2&#45;&gt;2 -->
<g id="edge15" class="edge">
<title>E2&#45;&gt;2</title>
<path fill="none" stroke="#ff0000" stroke-width="3.0721" d="M103.3553,-65.7022C104.0522,-58.8086 105.0706,-48.7346 106.0174,-39.3682"/>
<polygon fill="#ff0000" stroke="#ff0000" stroke-width="3.0721" points="109.5115,-39.6026 107.0351,-29.3013 102.547,-38.8985 109.5115,-39.6026"/>
</g>
<!-- E4 -->
<g id="node5" class="node">
<title>E4</title>
<polygon fill="#d3d3d3" stroke="#000000" points="203.4932,-82.7061 177.4981,-82.7061 177.4981,-65.7061 203.4932,-65.7061 203.4932,-82.7061"/>
<text text-anchor="middle" x="190.4957" y="-71.5061" font-family="Times,serif" font-size="9.00" fill="#000000">E4</text>
</g>
<!-- E3&#45;&gt;E4 -->
<!-- S -->
<g id="node13" class="node">
<title>S</title>
<ellipse fill="#87cefa" stroke="#000000" cx="155.4957" cy="-14.853" rx="14.7075" ry="14.7075"/>
<text text-anchor="middle" x="155.4957" y="-12.153" font-family="Times,serif" font-size="9.00" fill="#000000">S</text>
</g>
<!-- E3&#45;&gt;S -->
<g id="edge16" class="edge">
<title>E3&#45;&gt;S</title>
<path fill="none" stroke="#ff0000" stroke-width=".7917" d="M147.7852,-65.7022C148.8164,-58.9018 150.3169,-49.0063 151.7207,-39.7483"/>
<polygon fill="#ff0000" stroke="#ff0000" stroke-width=".7917" points="155.1956,-40.1774 153.2344,-29.7657 148.2747,-39.1279 155.1956,-40.1774"/>
</g>
<!-- E5 -->
<g id="node6" class="node">
<title>E5</title>
<polygon fill="#d3d3d3" stroke="#000000" points="247.4932,-82.7061 221.4981,-82.7061 221.4981,-65.7061 247.4932,-65.7061 247.4932,-82.7061"/>
<text text-anchor="middle" x="234.4957" y="-71.5061" font-family="Times,serif" font-size="9.00" fill="#000000">E5</text>
</g>
<!-- E4&#45;&gt;E5 -->
<!-- E6 -->
<g id="node7" class="node">
<title>E6</title>
<polygon fill="#d3d3d3" stroke="#000000" points="291.4932,-82.7061 265.4981,-82.7061 265.4981,-65.7061 291.4932,-65.7061 291.4932,-82.7061"/>
<text text-anchor="middle" x="278.4957" y="-71.5061" font-family="Times,serif" font-size="9.00" fill="#000000">E6</text>
</g>
<!-- E5&#45;&gt;E6 -->
<!-- E5&#45;&gt;S -->
<g id="edge13" class="edge">
<title>E5&#45;&gt;S</title>
<path fill="none" stroke="#ff0000" stroke-width="1.9828" d="M223.1769,-65.7022C210.8369,-56.4311 190.8402,-41.4075 175.7755,-30.0893"/>
<polygon fill="#ff0000" stroke="#ff0000" stroke-width="1.9828" points="177.668,-27.1335 167.5707,-23.925 173.4633,-32.73 177.668,-27.1335"/>
</g>
<!-- E7 -->
<g id="node8" class="node">
<title>E7</title>
<polygon fill="#d3d3d3" stroke="#000000" points="335.4932,-82.7061 309.4981,-82.7061 309.4981,-65.7061 335.4932,-65.7061 335.4932,-82.7061"/>
<text text-anchor="middle" x="322.4957" y="-71.5061" font-family="Times,serif" font-size="9.00" fill="#000000">E7</text>
</g>
<!-- E6&#45;&gt;E7 -->
<!-- E8 -->
<g id="node9" class="node">
<title>E8</title>
<polygon fill="#d3d3d3" stroke="#000000" points="379.4932,-82.7061 353.4981,-82.7061 353.4981,-65.7061 379.4932,-65.7061 379.4932,-82.7061"/>
<text text-anchor="middle" x="366.4957" y="-71.5061" font-family="Times,serif" font-size="9.00" fill="#000000">E8</text>
</g>
<!-- E7&#45;&gt;E8 -->
<!-- 1 -->
<g id="node11" class="node">
<title>1</title>
<ellipse fill="#87cefa" stroke="#000000" cx="61.4957" cy="-14.853" rx="14.4914" ry="14.4914"/>
<text text-anchor="middle" x="61.4957" y="-12.153" font-family="Times,serif" font-size="9.00" fill="#000000">1</text>
</g>
<!-- E7&#45;&gt;1 -->
<g id="edge14" class="edge">
<title>E7&#45;&gt;1</title>
<path fill="none" stroke="#00ff00" stroke-width="2.0108" d="M309.1443,-68.5518C306.3233,-67.4978 303.3391,-66.4848 300.4957,-65.7061 207.0505,-40.1159 176.1694,-63.8404 85.4957,-29.7061 84.4409,-29.309 83.382,-28.8634 82.3281,-28.3812"/>
<polygon fill="#00ff00" stroke="#00ff00" stroke-width="2.0108" points="83.6788,-25.1295 73.2303,-23.3746 80.3038,-31.2622 83.6788,-25.1295"/>
</g>
<!-- 0&#45;&gt;1 -->
<!-- 1&#45;&gt;2 -->
<!-- 2&#45;&gt;S -->
</g>
</svg>
