<?xml version="1.0" encoding="utf-8" standalone="no"?>
<!DOCTYPE svg PUBLIC "-//W3C//DTD SVG 1.1//EN"
  "http://www.w3.org/Graphics/SVG/1.1/DTD/svg11.dtd">
<!-- Created with matplotlib (https://matplotlib.org/) -->
<svg height="345.6pt" version="1.1" viewBox="0 0 460.8 345.6" width="460.8pt" xmlns="http://www.w3.org/2000/svg" xmlns:xlink="http://www.w3.org/1999/xlink">
 <defs>
  <style type="text/css">
*{stroke-linecap:butt;stroke-linejoin:round;}
  </style>
 </defs>
 <g id="figure_1">
  <g id="patch_1">
   <path d="M 0 345.6 
L 460.8 345.6 
L 460.8 0 
L 0 0 
z
" style="fill:#ffffff;"/>
  </g>
  <g id="axes_1">
   <g id="patch_2">
    <path d="M 57.6 307.584 
L 414.72 307.584 
L 414.72 41.472 
L 57.6 41.472 
z
" style="fill:#ffffff;"/>
   </g>
   <g id="matplotlib.axis_1">
    <g id="xtick_1">
     <g id="line2d_1">
      <path clip-path="url(#p5477c37a72)" d="M 73.832727 307.584 
L 73.832727 41.472 
" style="fill:none;stroke:#b0b0b0;stroke-linecap:square;stroke-width:0.8;"/>
     </g>
     <g id="line2d_2">
      <defs>
       <path d="M 0 0 
L 0 3.5 
" id="m1cdafd9759" style="stroke:#000000;stroke-width:0.8;"/>
      </defs>
      <g>
       <use style="stroke:#000000;stroke-width:0.8;" x="73.832727" xlink:href="#m1cdafd9759" y="307.584"/>
      </g>
     </g>
     <g id="text_1">
      <!-- 0 -->
      <defs>
       <path d="M 31.78125 66.40625 
Q 24.171875 66.40625 20.328125 58.90625 
Q 16.5 51.421875 16.5 36.375 
Q 16.5 21.390625 20.328125 13.890625 
Q 24.171875 6.390625 31.78125 6.390625 
Q 39.453125 6.390625 43.28125 13.890625 
Q 47.125 21.390625 47.125 36.375 
Q 47.125 51.421875 43.28125 58.90625 
Q 39.453125 66.40625 31.78125 66.40625 
z
M 31.78125 74.21875 
Q 44.046875 74.21875 50.515625 64.515625 
Q 56.984375 54.828125 56.984375 36.375 
Q 56.984375 17.96875 50.515625 8.265625 
Q 44.046875 -1.421875 31.78125 -1.421875 
Q 19.53125 -1.421875 13.0625 8.265625 
Q 6.59375 17.96875 6.59375 36.375 
Q 6.59375 54.828125 13.0625 64.515625 
Q 19.53125 74.21875 31.78125 74.21875 
z
" id="DejaVuSans-48"/>
      </defs>
      <g transform="translate(70.651477 322.182437)scale(0.1 -0.1)">
       <use xlink:href="#DejaVuSans-48"/>
      </g>
     </g>
    </g>
    <g id="xtick_2">
     <g id="line2d_3">
      <path clip-path="url(#p5477c37a72)" d="M 128.122785 307.584 
L 128.122785 41.472 
" style="fill:none;stroke:#b0b0b0;stroke-linecap:square;stroke-width:0.8;"/>
     </g>
     <g id="line2d_4">
      <g>
       <use style="stroke:#000000;stroke-width:0.8;" x="128.122785" xlink:href="#m1cdafd9759" y="307.584"/>
      </g>
     </g>
     <g id="text_2">
      <!-- 50 -->
      <defs>
       <path d="M 10.796875 72.90625 
L 49.515625 72.90625 
L 49.515625 64.59375 
L 19.828125 64.59375 
L 19.828125 46.734375 
Q 21.96875 47.46875 24.109375 47.828125 
Q 26.265625 48.1875 28.421875 48.1875 
Q 40.625 48.1875 47.75 41.5 
Q 54.890625 34.8125 54.890625 23.390625 
Q 54.890625 11.625 47.5625 5.09375 
Q 40.234375 -1.421875 26.90625 -1.421875 
Q 22.3125 -1.421875 17.546875 -0.640625 
Q 12.796875 0.140625 7.71875 1.703125 
L 7.71875 11.625 
Q 12.109375 9.234375 16.796875 8.0625 
Q 21.484375 6.890625 26.703125 6.890625 
Q 35.15625 6.890625 40.078125 11.328125 
Q 45.015625 15.765625 45.015625 23.390625 
Q 45.015625 31 40.078125 35.4375 
Q 35.15625 39.890625 26.703125 39.890625 
Q 22.75 39.890625 18.8125 39.015625 
Q 14.890625 38.140625 10.796875 36.28125 
z
" id="DejaVuSans-53"/>
      </defs>
      <g transform="translate(121.760285 322.182437)scale(0.1 -0.1)">
       <use xlink:href="#DejaVuSans-53"/>
       <use x="63.623047" xlink:href="#DejaVuSans-48"/>
      </g>
     </g>
    </g>
    <g id="xtick_3">
     <g id="line2d_5">
      <path clip-path="url(#p5477c37a72)" d="M 182.412843 307.584 
L 182.412843 41.472 
" style="fill:none;stroke:#b0b0b0;stroke-linecap:square;stroke-width:0.8;"/>
     </g>
     <g id="line2d_6">
      <g>
       <use style="stroke:#000000;stroke-width:0.8;" x="182.412843" xlink:href="#m1cdafd9759" y="307.584"/>
      </g>
     </g>
     <g id="text_3">
      <!-- 100 -->
      <defs>
       <path d="M 12.40625 8.296875 
L 28.515625 8.296875 
L 28.515625 63.921875 
L 10.984375 60.40625 
L 10.984375 69.390625 
L 28.421875 72.90625 
L 38.28125 72.90625 
L 38.28125 8.296875 
L 54.390625 8.296875 
L 54.390625 0 
L 12.40625 0 
z
" id="DejaVuSans-49"/>
      </defs>
      <g transform="translate(172.869093 322.182437)scale(0.1 -0.1)">
       <use xlink:href="#DejaVuSans-49"/>
       <use x="63.623047" xlink:href="#DejaVuSans-48"/>
       <use x="127.246094" xlink:href="#DejaVuSans-48"/>
      </g>
     </g>
    </g>
    <g id="xtick_4">
     <g id="line2d_7">
      <path clip-path="url(#p5477c37a72)" d="M 236.702901 307.584 
L 236.702901 41.472 
" style="fill:none;stroke:#b0b0b0;stroke-linecap:square;stroke-width:0.8;"/>
     </g>
     <g id="line2d_8">
      <g>
       <use style="stroke:#000000;stroke-width:0.8;" x="236.702901" xlink:href="#m1cdafd9759" y="307.584"/>
      </g>
     </g>
     <g id="text_4">
      <!-- 150 -->
      <g transform="translate(227.159151 322.182437)scale(0.1 -0.1)">
       <use xlink:href="#DejaVuSans-49"/>
       <use x="63.623047" xlink:href="#DejaVuSans-53"/>
       <use x="127.246094" xlink:href="#DejaVuSans-48"/>
      </g>
     </g>
    </g>
    <g id="xtick_5">
     <g id="line2d_9">
      <path clip-path="url(#p5477c37a72)" d="M 290.992958 307.584 
L 290.992958 41.472 
" style="fill:none;stroke:#b0b0b0;stroke-linecap:square;stroke-width:0.8;"/>
     </g>
     <g id="line2d_10">
      <g>
       <use style="stroke:#000000;stroke-width:0.8;" x="290.992958" xlink:href="#m1cdafd9759" y="307.584"/>
      </g>
     </g>
     <g id="text_5">
      <!-- 200 -->
      <defs>
       <path d="M 19.1875 8.296875 
L 53.609375 8.296875 
L 53.609375 0 
L 7.328125 0 
L 7.328125 8.296875 
Q 12.9375 14.109375 22.625 23.890625 
Q 32.328125 33.6875 34.8125 36.53125 
Q 39.546875 41.84375 41.421875 45.53125 
Q 43.3125 49.21875 43.3125 52.78125 
Q 43.3125 58.59375 39.234375 62.25 
Q 35.15625 65.921875 28.609375 65.921875 
Q 23.96875 65.921875 18.8125 64.3125 
Q 13.671875 62.703125 7.8125 59.421875 
L 7.8125 69.390625 
Q 13.765625 71.78125 18.9375 73 
Q 24.125 74.21875 28.421875 74.21875 
Q 39.75 74.21875 46.484375 68.546875 
Q 53.21875 62.890625 53.21875 53.421875 
Q 53.21875 48.921875 51.53125 44.890625 
Q 49.859375 40.875 45.40625 35.40625 
Q 44.1875 33.984375 37.640625 27.21875 
Q 31.109375 20.453125 19.1875 8.296875 
z
" id="DejaVuSans-50"/>
      </defs>
      <g transform="translate(281.449208 322.182437)scale(0.1 -0.1)">
       <use xlink:href="#DejaVuSans-50"/>
       <use x="63.623047" xlink:href="#DejaVuSans-48"/>
       <use x="127.246094" xlink:href="#DejaVuSans-48"/>
      </g>
     </g>
    </g>
    <g id="xtick_6">
     <g id="line2d_11">
      <path clip-path="url(#p5477c37a72)" d="M 345.283016 307.584 
L 345.283016 41.472 
" style="fill:none;stroke:#b0b0b0;stroke-linecap:square;stroke-width:0.8;"/>
     </g>
     <g id="line2d_12">
      <g>
       <use style="stroke:#000000;stroke-width:0.8;" x="345.283016" xlink:href="#m1cdafd9759" y="307.584"/>
      </g>
     </g>
     <g id="text_6">
      <!-- 250 -->
      <g transform="translate(335.739266 322.182437)scale(0.1 -0.1)">
       <use xlink:href="#DejaVuSans-50"/>
       <use x="63.623047" xlink:href="#DejaVuSans-53"/>
       <use x="127.246094" xlink:href="#DejaVuSans-48"/>
      </g>
     </g>
    </g>
    <g id="xtick_7">
     <g id="line2d_13">
      <path clip-path="url(#p5477c37a72)" d="M 399.573074 307.584 
L 399.573074 41.472 
" style="fill:none;stroke:#b0b0b0;stroke-linecap:square;stroke-width:0.8;"/>
     </g>
     <g id="line2d_14">
      <g>
       <use style="stroke:#000000;stroke-width:0.8;" x="399.573074" xlink:href="#m1cdafd9759" y="307.584"/>
      </g>
     </g>
     <g id="text_7">
      <!-- 300 -->
      <defs>
       <path d="M 40.578125 39.3125 
Q 47.65625 37.796875 51.625 33 
Q 55.609375 28.21875 55.609375 21.1875 
Q 55.609375 10.40625 48.1875 4.484375 
Q 40.765625 -1.421875 27.09375 -1.421875 
Q 22.515625 -1.421875 17.65625 -0.515625 
Q 12.796875 0.390625 7.625 2.203125 
L 7.625 11.71875 
Q 11.71875 9.328125 16.59375 8.109375 
Q 21.484375 6.890625 26.8125 6.890625 
Q 36.078125 6.890625 40.9375 10.546875 
Q 45.796875 14.203125 45.796875 21.1875 
Q 45.796875 27.640625 41.28125 31.265625 
Q 36.765625 34.90625 28.71875 34.90625 
L 20.21875 34.90625 
L 20.21875 43.015625 
L 29.109375 43.015625 
Q 36.375 43.015625 40.234375 45.921875 
Q 44.09375 48.828125 44.09375 54.296875 
Q 44.09375 59.90625 40.109375 62.90625 
Q 36.140625 65.921875 28.71875 65.921875 
Q 24.65625 65.921875 20.015625 65.03125 
Q 15.375 64.15625 9.8125 62.3125 
L 9.8125 71.09375 
Q 15.4375 72.65625 20.34375 73.4375 
Q 25.25 74.21875 29.59375 74.21875 
Q 40.828125 74.21875 47.359375 69.109375 
Q 53.90625 64.015625 53.90625 55.328125 
Q 53.90625 49.265625 50.4375 45.09375 
Q 46.96875 40.921875 40.578125 39.3125 
z
" id="DejaVuSans-51"/>
      </defs>
      <g transform="translate(390.029324 322.182437)scale(0.1 -0.1)">
       <use xlink:href="#DejaVuSans-51"/>
       <use x="63.623047" xlink:href="#DejaVuSans-48"/>
       <use x="127.246094" xlink:href="#DejaVuSans-48"/>
      </g>
     </g>
    </g>
    <g id="text_8">
     <!-- Generations -->
     <defs>
      <path d="M 59.515625 10.40625 
L 59.515625 29.984375 
L 43.40625 29.984375 
L 43.40625 38.09375 
L 69.28125 38.09375 
L 69.28125 6.78125 
Q 63.578125 2.734375 56.6875 0.65625 
Q 49.8125 -1.421875 42 -1.421875 
Q 24.90625 -1.421875 15.25 8.5625 
Q 5.609375 18.5625 5.609375 36.375 
Q 5.609375 54.25 15.25 64.234375 
Q 24.90625 74.21875 42 74.21875 
Q 49.125 74.21875 55.546875 72.453125 
Q 61.96875 70.703125 67.390625 67.28125 
L 67.390625 56.78125 
Q 61.921875 61.421875 55.765625 63.765625 
Q 49.609375 66.109375 42.828125 66.109375 
Q 29.4375 66.109375 22.71875 58.640625 
Q 16.015625 51.171875 16.015625 36.375 
Q 16.015625 21.625 22.71875 14.15625 
Q 29.4375 6.6875 42.828125 6.6875 
Q 48.046875 6.6875 52.140625 7.59375 
Q 56.25 8.5 59.515625 10.40625 
z
" id="DejaVuSans-71"/>
      <path d="M 56.203125 29.59375 
L 56.203125 25.203125 
L 14.890625 25.203125 
Q 15.484375 15.921875 20.484375 11.0625 
Q 25.484375 6.203125 34.421875 6.203125 
Q 39.59375 6.203125 44.453125 7.46875 
Q 49.3125 8.734375 54.109375 11.28125 
L 54.109375 2.78125 
Q 49.265625 0.734375 44.1875 -0.34375 
Q 39.109375 -1.421875 33.890625 -1.421875 
Q 20.796875 -1.421875 13.15625 6.1875 
Q 5.515625 13.8125 5.515625 26.8125 
Q 5.515625 40.234375 12.765625 48.109375 
Q 20.015625 56 32.328125 56 
Q 43.359375 56 49.78125 48.890625 
Q 56.203125 41.796875 56.203125 29.59375 
z
M 47.21875 32.234375 
Q 47.125 39.59375 43.09375 43.984375 
Q 39.0625 48.390625 32.421875 48.390625 
Q 24.90625 48.390625 20.390625 44.140625 
Q 15.875 39.890625 15.1875 32.171875 
z
" id="DejaVuSans-101"/>
      <path d="M 54.890625 33.015625 
L 54.890625 0 
L 45.90625 0 
L 45.90625 32.71875 
Q 45.90625 40.484375 42.875 44.328125 
Q 39.84375 48.1875 33.796875 48.1875 
Q 26.515625 48.1875 22.3125 43.546875 
Q 18.109375 38.921875 18.109375 30.90625 
L 18.109375 0 
L 9.078125 0 
L 9.078125 54.6875 
L 18.109375 54.6875 
L 18.109375 46.1875 
Q 21.34375 51.125 25.703125 53.5625 
Q 30.078125 56 35.796875 56 
Q 45.21875 56 50.046875 50.171875 
Q 54.890625 44.34375 54.890625 33.015625 
z
" id="DejaVuSans-110"/>
      <path d="M 41.109375 46.296875 
Q 39.59375 47.171875 37.8125 47.578125 
Q 36.03125 48 33.890625 48 
Q 26.265625 48 22.1875 43.046875 
Q 18.109375 38.09375 18.109375 28.8125 
L 18.109375 0 
L 9.078125 0 
L 9.078125 54.6875 
L 18.109375 54.6875 
L 18.109375 46.1875 
Q 20.953125 51.171875 25.484375 53.578125 
Q 30.03125 56 36.53125 56 
Q 37.453125 56 38.578125 55.875 
Q 39.703125 55.765625 41.0625 55.515625 
z
" id="DejaVuSans-114"/>
      <path d="M 34.28125 27.484375 
Q 23.390625 27.484375 19.1875 25 
Q 14.984375 22.515625 14.984375 16.5 
Q 14.984375 11.71875 18.140625 8.90625 
Q 21.296875 6.109375 26.703125 6.109375 
Q 34.1875 6.109375 38.703125 11.40625 
Q 43.21875 16.703125 43.21875 25.484375 
L 43.21875 27.484375 
z
M 52.203125 31.203125 
L 52.203125 0 
L 43.21875 0 
L 43.21875 8.296875 
Q 40.140625 3.328125 35.546875 0.953125 
Q 30.953125 -1.421875 24.3125 -1.421875 
Q 15.921875 -1.421875 10.953125 3.296875 
Q 6 8.015625 6 15.921875 
Q 6 25.140625 12.171875 29.828125 
Q 18.359375 34.515625 30.609375 34.515625 
L 43.21875 34.515625 
L 43.21875 35.40625 
Q 43.21875 41.609375 39.140625 45 
Q 35.0625 48.390625 27.6875 48.390625 
Q 23 48.390625 18.546875 47.265625 
Q 14.109375 46.140625 10.015625 43.890625 
L 10.015625 52.203125 
Q 14.9375 54.109375 19.578125 55.046875 
Q 24.21875 56 28.609375 56 
Q 40.484375 56 46.34375 49.84375 
Q 52.203125 43.703125 52.203125 31.203125 
z
" id="DejaVuSans-97"/>
      <path d="M 18.3125 70.21875 
L 18.3125 54.6875 
L 36.8125 54.6875 
L 36.8125 47.703125 
L 18.3125 47.703125 
L 18.3125 18.015625 
Q 18.3125 11.328125 20.140625 9.421875 
Q 21.96875 7.515625 27.59375 7.515625 
L 36.8125 7.515625 
L 36.8125 0 
L 27.59375 0 
Q 17.1875 0 13.234375 3.875 
Q 9.28125 7.765625 9.28125 18.015625 
L 9.28125 47.703125 
L 2.6875 47.703125 
L 2.6875 54.6875 
L 9.28125 54.6875 
L 9.28125 70.21875 
z
" id="DejaVuSans-116"/>
      <path d="M 9.421875 54.6875 
L 18.40625 54.6875 
L 18.40625 0 
L 9.421875 0 
z
M 9.421875 75.984375 
L 18.40625 75.984375 
L 18.40625 64.59375 
L 9.421875 64.59375 
z
" id="DejaVuSans-105"/>
      <path d="M 30.609375 48.390625 
Q 23.390625 48.390625 19.1875 42.75 
Q 14.984375 37.109375 14.984375 27.296875 
Q 14.984375 17.484375 19.15625 11.84375 
Q 23.34375 6.203125 30.609375 6.203125 
Q 37.796875 6.203125 41.984375 11.859375 
Q 46.1875 17.53125 46.1875 27.296875 
Q 46.1875 37.015625 41.984375 42.703125 
Q 37.796875 48.390625 30.609375 48.390625 
z
M 30.609375 56 
Q 42.328125 56 49.015625 48.375 
Q 55.71875 40.765625 55.71875 27.296875 
Q 55.71875 13.875 49.015625 6.21875 
Q 42.328125 -1.421875 30.609375 -1.421875 
Q 18.84375 -1.421875 12.171875 6.21875 
Q 5.515625 13.875 5.515625 27.296875 
Q 5.515625 40.765625 12.171875 48.375 
Q 18.84375 56 30.609375 56 
z
" id="DejaVuSans-111"/>
      <path d="M 44.28125 53.078125 
L 44.28125 44.578125 
Q 40.484375 46.53125 36.375 47.5 
Q 32.28125 48.484375 27.875 48.484375 
Q 21.1875 48.484375 17.84375 46.4375 
Q 14.5 44.390625 14.5 40.28125 
Q 14.5 37.15625 16.890625 35.375 
Q 19.28125 33.59375 26.515625 31.984375 
L 29.59375 31.296875 
Q 39.15625 29.25 43.1875 25.515625 
Q 47.21875 21.78125 47.21875 15.09375 
Q 47.21875 7.46875 41.1875 3.015625 
Q 35.15625 -1.421875 24.609375 -1.421875 
Q 20.21875 -1.421875 15.453125 -0.5625 
Q 10.6875 0.296875 5.421875 2 
L 5.421875 11.28125 
Q 10.40625 8.6875 15.234375 7.390625 
Q 20.0625 6.109375 24.8125 6.109375 
Q 31.15625 6.109375 34.5625 8.28125 
Q 37.984375 10.453125 37.984375 14.40625 
Q 37.984375 18.0625 35.515625 20.015625 
Q 33.0625 21.96875 24.703125 23.78125 
L 21.578125 24.515625 
Q 13.234375 26.265625 9.515625 29.90625 
Q 5.8125 33.546875 5.8125 39.890625 
Q 5.8125 47.609375 11.28125 51.796875 
Q 16.75 56 26.8125 56 
Q 31.78125 56 36.171875 55.265625 
Q 40.578125 54.546875 44.28125 53.078125 
z
" id="DejaVuSans-115"/>
     </defs>
     <g transform="translate(205.662344 335.860562)scale(0.1 -0.1)">
      <use xlink:href="#DejaVuSans-71"/>
      <use x="77.490234" xlink:href="#DejaVuSans-101"/>
      <use x="139.013672" xlink:href="#DejaVuSans-110"/>
      <use x="202.392578" xlink:href="#DejaVuSans-101"/>
      <use x="263.916016" xlink:href="#DejaVuSans-114"/>
      <use x="305.029297" xlink:href="#DejaVuSans-97"/>
      <use x="366.308594" xlink:href="#DejaVuSans-116"/>
      <use x="405.517578" xlink:href="#DejaVuSans-105"/>
      <use x="433.300781" xlink:href="#DejaVuSans-111"/>
      <use x="494.482422" xlink:href="#DejaVuSans-110"/>
      <use x="557.861328" xlink:href="#DejaVuSans-115"/>
     </g>
    </g>
   </g>
   <g id="matplotlib.axis_2">
    <g id="ytick_1">
     <g id="line2d_15">
      <path clip-path="url(#p5477c37a72)" d="M 57.6 276.397295 
L 414.72 276.397295 
" style="fill:none;stroke:#b0b0b0;stroke-linecap:square;stroke-width:0.8;"/>
     </g>
     <g id="line2d_16">
      <defs>
       <path d="M 0 0 
L -3.5 0 
" id="mf5c565ee0a" style="stroke:#000000;stroke-width:0.8;"/>
      </defs>
      <g>
       <use style="stroke:#000000;stroke-width:0.8;" x="57.6" xlink:href="#mf5c565ee0a" y="276.397295"/>
      </g>
     </g>
     <g id="text_9">
      <!-- 500 -->
      <g transform="translate(31.5125 280.196514)scale(0.1 -0.1)">
       <use xlink:href="#DejaVuSans-53"/>
       <use x="63.623047" xlink:href="#DejaVuSans-48"/>
       <use x="127.246094" xlink:href="#DejaVuSans-48"/>
      </g>
     </g>
    </g>
    <g id="ytick_2">
     <g id="line2d_17">
      <path clip-path="url(#p5477c37a72)" d="M 57.6 221.110848 
L 414.72 221.110848 
" style="fill:none;stroke:#b0b0b0;stroke-linecap:square;stroke-width:0.8;"/>
     </g>
     <g id="line2d_18">
      <g>
       <use style="stroke:#000000;stroke-width:0.8;" x="57.6" xlink:href="#mf5c565ee0a" y="221.110848"/>
      </g>
     </g>
     <g id="text_10">
      <!-- 1000 -->
      <g transform="translate(25.15 224.910067)scale(0.1 -0.1)">
       <use xlink:href="#DejaVuSans-49"/>
       <use x="63.623047" xlink:href="#DejaVuSans-48"/>
       <use x="127.246094" xlink:href="#DejaVuSans-48"/>
       <use x="190.869141" xlink:href="#DejaVuSans-48"/>
      </g>
     </g>
    </g>
    <g id="ytick_3">
     <g id="line2d_19">
      <path clip-path="url(#p5477c37a72)" d="M 57.6 165.824401 
L 414.72 165.824401 
" style="fill:none;stroke:#b0b0b0;stroke-linecap:square;stroke-width:0.8;"/>
     </g>
     <g id="line2d_20">
      <g>
       <use style="stroke:#000000;stroke-width:0.8;" x="57.6" xlink:href="#mf5c565ee0a" y="165.824401"/>
      </g>
     </g>
     <g id="text_11">
      <!-- 1500 -->
      <g transform="translate(25.15 169.62362)scale(0.1 -0.1)">
       <use xlink:href="#DejaVuSans-49"/>
       <use x="63.623047" xlink:href="#DejaVuSans-53"/>
       <use x="127.246094" xlink:href="#DejaVuSans-48"/>
       <use x="190.869141" xlink:href="#DejaVuSans-48"/>
      </g>
     </g>
    </g>
    <g id="ytick_4">
     <g id="line2d_21">
      <path clip-path="url(#p5477c37a72)" d="M 57.6 110.537954 
L 414.72 110.537954 
" style="fill:none;stroke:#b0b0b0;stroke-linecap:square;stroke-width:0.8;"/>
     </g>
     <g id="line2d_22">
      <g>
       <use style="stroke:#000000;stroke-width:0.8;" x="57.6" xlink:href="#mf5c565ee0a" y="110.537954"/>
      </g>
     </g>
     <g id="text_12">
      <!-- 2000 -->
      <g transform="translate(25.15 114.337173)scale(0.1 -0.1)">
       <use xlink:href="#DejaVuSans-50"/>
       <use x="63.623047" xlink:href="#DejaVuSans-48"/>
       <use x="127.246094" xlink:href="#DejaVuSans-48"/>
       <use x="190.869141" xlink:href="#DejaVuSans-48"/>
      </g>
     </g>
    </g>
    <g id="ytick_5">
     <g id="line2d_23">
      <path clip-path="url(#p5477c37a72)" d="M 57.6 55.251507 
L 414.72 55.251507 
" style="fill:none;stroke:#b0b0b0;stroke-linecap:square;stroke-width:0.8;"/>
     </g>
     <g id="line2d_24">
      <g>
       <use style="stroke:#000000;stroke-width:0.8;" x="57.6" xlink:href="#mf5c565ee0a" y="55.251507"/>
      </g>
     </g>
     <g id="text_13">
      <!-- 2500 -->
      <g transform="translate(25.15 59.050726)scale(0.1 -0.1)">
       <use xlink:href="#DejaVuSans-50"/>
       <use x="63.623047" xlink:href="#DejaVuSans-53"/>
       <use x="127.246094" xlink:href="#DejaVuSans-48"/>
       <use x="190.869141" xlink:href="#DejaVuSans-48"/>
      </g>
     </g>
    </g>
    <g id="text_14">
     <!-- Fitness -->
     <defs>
      <path d="M 9.8125 72.90625 
L 51.703125 72.90625 
L 51.703125 64.59375 
L 19.671875 64.59375 
L 19.671875 43.109375 
L 48.578125 43.109375 
L 48.578125 34.8125 
L 19.671875 34.8125 
L 19.671875 0 
L 9.8125 0 
z
" id="DejaVuSans-70"/>
     </defs>
     <g transform="translate(19.070312 192.202219)rotate(-90)scale(0.1 -0.1)">
      <use xlink:href="#DejaVuSans-70"/>
      <use x="57.410156" xlink:href="#DejaVuSans-105"/>
      <use x="85.193359" xlink:href="#DejaVuSans-116"/>
      <use x="124.402344" xlink:href="#DejaVuSans-110"/>
      <use x="187.78125" xlink:href="#DejaVuSans-101"/>
      <use x="249.304688" xlink:href="#DejaVuSans-115"/>
      <use x="301.404297" xlink:href="#DejaVuSans-115"/>
     </g>
    </g>
   </g>
   <g id="line2d_25">
    <path clip-path="url(#p5477c37a72)" d="M 73.832727 283.177232 
L 76.00433 260.226097 
L 77.090131 249.418081 
L 78.175932 250.909492 
L 79.261733 243.222719 
L 80.347534 241.874177 
L 81.433335 221.974755 
L 82.519137 218.455338 
L 83.604938 216.36724 
L 84.690739 230.937897 
L 85.77654 223.359663 
L 86.862341 219.962517 
L 87.948142 212.853403 
L 89.033943 202.47556 
L 90.119745 202.704174 
L 91.205546 194.728775 
L 92.291347 182.952691 
L 93.377148 196.339151 
L 94.462949 190.2435 
L 95.54875 183.32874 
L 96.634552 198.399168 
L 97.720353 192.878063 
L 98.806154 190.286789 
L 99.891955 192.441882 
L 100.977756 199.1661 
L 102.063557 202.806925 
L 103.149358 191.135045 
L 104.23516 188.077507 
L 105.320961 188.508392 
L 106.406762 186.391456 
L 107.492563 179.811791 
L 108.578364 196.757964 
L 109.664165 189.032198 
L 110.749967 182.418158 
L 111.835768 172.558775 
L 112.921569 171.708252 
L 114.00737 184.088806 
L 115.093171 167.751762 
L 116.178972 165.61366 
L 117.264773 188.738539 
L 118.350575 153.371159 
L 119.436376 173.067728 
L 120.522177 168.084269 
L 121.607978 172.601676 
L 122.693779 174.543173 
L 123.77958 180.672512 
L 124.865382 191.255634 
L 125.951183 165.787051 
L 127.036984 166.254081 
L 128.122785 161.071832 
L 129.208586 175.71134 
L 130.294387 163.440858 
L 131.380189 157.283585 
L 132.46599 152.158694 
L 133.551791 160.005505 
L 134.637592 161.310006 
L 135.723393 171.858406 
L 136.809194 172.292638 
L 137.894995 171.000121 
L 138.980797 198.396919 
L 140.066598 166.033472 
L 141.152399 168.608023 
L 142.2382 173.085198 
L 143.324001 171.099785 
L 144.409802 137.977931 
L 145.495604 147.654278 
L 146.581405 160.979842 
L 147.667206 159.823964 
L 148.753007 165.355686 
L 149.838808 182.239111 
L 150.924609 154.997232 
L 152.01041 158.538494 
L 153.096212 145.844761 
L 154.182013 169.941157 
L 155.267814 164.796504 
L 156.353615 167.920871 
L 157.439416 179.552532 
L 158.525217 166.31575 
L 159.611019 172.427579 
L 160.69682 150.454324 
L 161.782621 138.740541 
L 162.868422 157.312124 
L 163.954223 167.140483 
L 165.040024 166.421891 
L 166.125825 186.064627 
L 167.211627 162.250721 
L 168.297428 161.609098 
L 169.383229 154.809909 
L 170.46903 158.571276 
L 171.554831 176.092316 
L 172.640632 154.795534 
L 173.726434 181.55313 
L 174.812235 147.273644 
L 175.898036 146.204577 
L 176.983837 145.985794 
L 178.069638 173.084112 
L 179.155439 169.642629 
L 180.24124 161.549036 
L 181.327042 162.336176 
L 182.412843 160.490954 
L 183.498644 158.194541 
L 184.584445 141.800175 
L 185.670246 177.412679 
L 186.756047 142.866009 
L 187.841849 142.013918 
L 188.92765 145.296674 
L 190.013451 160.000301 
L 191.099252 117.38898 
L 192.185053 158.832184 
L 193.270854 160.944067 
L 194.356656 158.880537 
L 195.442457 139.265104 
L 196.528258 157.213261 
L 197.614059 132.972072 
L 198.69986 148.377648 
L 199.785661 145.011766 
L 200.871462 174.896441 
L 201.957264 130.832443 
L 203.043065 146.372719 
L 204.128866 151.893984 
L 205.214667 144.380607 
L 206.300468 168.807129 
L 207.386269 136.119743 
L 208.472071 129.729553 
L 209.557872 158.64983 
L 210.643673 156.929269 
L 211.729474 174.898452 
L 212.815275 167.747422 
L 213.901076 170.644218 
L 214.986877 158.415312 
L 216.072679 142.174404 
L 217.15848 109.985233 
L 218.244281 149.313715 
L 219.330082 159.315589 
L 220.415883 162.309255 
L 221.501684 167.324133 
L 222.587486 143.420778 
L 223.673287 152.910864 
L 224.759088 130.327716 
L 225.844889 159.064156 
L 226.93069 165.833609 
L 228.016491 156.689073 
L 229.102292 144.293507 
L 230.188094 154.256864 
L 231.273895 148.750383 
L 232.359696 156.289778 
L 233.445497 141.42973 
L 234.531298 146.726987 
L 235.617099 157.953064 
L 236.702901 157.334376 
L 237.788702 162.271552 
L 238.874503 142.568148 
L 239.960304 163.604248 
L 241.046105 158.411082 
L 242.131906 168.164924 
L 243.217708 153.293263 
L 244.303509 160.487264 
L 245.38931 170.017833 
L 246.475111 174.330347 
L 247.560912 165.698014 
L 248.646713 162.447426 
L 249.732514 186.885561 
L 250.818316 176.330065 
L 251.904117 160.922366 
L 252.989918 166.985651 
L 254.075719 170.89317 
L 255.16152 170.487787 
L 256.247321 149.009322 
L 257.333123 194.760044 
L 258.418924 186.07687 
L 259.504725 169.73426 
L 260.590526 170.750182 
L 261.676327 154.773557 
L 262.762128 176.026602 
L 263.847929 193.014676 
L 264.933731 157.126598 
L 266.019532 172.732052 
L 267.105333 175.774341 
L 268.191134 179.761489 
L 269.276935 186.169455 
L 270.362736 173.063899 
L 271.448538 182.945641 
L 272.534339 179.9477 
L 273.62014 170.471096 
L 274.705941 153.47013 
L 275.791742 161.230466 
L 276.877543 140.29774 
L 277.963344 154.722425 
L 279.049146 161.022623 
L 280.134947 165.892104 
L 281.220748 181.501412 
L 282.306549 164.704786 
L 283.39235 182.494028 
L 284.478151 148.825206 
L 285.563953 158.280257 
L 286.649754 165.268211 
L 287.735555 179.498071 
L 289.907157 140.932676 
L 290.992958 195.097066 
L 292.07876 163.254033 
L 293.164561 172.148179 
L 294.250362 163.876777 
L 295.336163 168.313414 
L 296.421964 166.012136 
L 297.507765 167.587092 
L 298.593566 157.244632 
L 299.679368 160.912167 
L 300.765169 148.975069 
L 301.85097 143.943597 
L 302.936771 144.645267 
L 304.022572 157.894868 
L 305.108373 153.860334 
L 306.194175 158.447987 
L 307.279976 149.386798 
L 308.365777 142.703082 
L 309.451578 166.177132 
L 310.537379 159.972978 
L 311.62318 143.134539 
L 312.708981 136.990868 
L 313.794783 157.256676 
L 314.880584 140.780241 
L 315.966385 153.442213 
L 317.052186 172.334017 
L 318.137987 153.418091 
L 319.223788 150.225847 
L 320.30959 139.264236 
L 321.395391 174.985515 
L 322.481192 169.107768 
L 323.566993 165.965085 
L 324.652794 137.972901 
L 325.738595 157.824623 
L 326.824396 173.379902 
L 327.910198 168.040207 
L 328.995999 153.311902 
L 330.0818 166.003728 
L 331.167601 159.091454 
L 332.253402 148.33773 
L 333.339203 152.479769 
L 334.425005 155.854256 
L 335.510806 161.687751 
L 336.596607 138.780775 
L 337.682408 151.062245 
L 338.768209 165.330047 
L 339.85401 158.687202 
L 340.939811 179.189179 
L 342.025613 169.355609 
L 343.111414 181.574328 
L 344.197215 157.113863 
L 345.283016 162.032188 
L 346.368817 157.667507 
L 347.454618 140.396609 
L 348.54042 156.224165 
L 349.626221 152.017344 
L 350.712022 142.12839 
L 351.797823 147.349288 
L 352.883624 149.971945 
L 353.969425 175.832723 
L 355.055227 149.951428 
L 356.141028 160.547768 
L 357.226829 161.525024 
L 358.31263 154.806357 
L 359.398431 141.464939 
L 360.484232 146.673818 
L 361.570033 142.143782 
L 362.655835 139.63027 
L 363.741636 150.743553 
L 364.827437 148.825592 
L 365.913238 158.012796 
L 368.08484 148.793376 
L 369.170642 131.051109 
L 370.256443 162.906258 
L 371.342244 141.372692 
L 372.428045 141.317811 
L 373.513846 157.283346 
L 374.599647 157.169113 
L 375.685448 144.112084 
L 376.77125 147.281078 
L 377.857051 157.015094 
L 378.942852 142.106758 
L 380.028653 171.264461 
L 381.114454 140.201479 
L 382.200255 134.930096 
L 383.286057 138.020035 
L 384.371858 140.275006 
L 385.457659 144.978166 
L 386.54346 141.032201 
L 387.629261 144.063767 
L 388.715062 138.484101 
L 389.800863 141.128073 
L 390.886665 148.375475 
L 391.972466 144.153141 
L 393.058267 162.741764 
L 394.144068 140.760229 
L 395.229869 137.074858 
L 397.401472 154.969013 
L 398.487273 134.073947 
L 398.487273 134.073947 
" style="fill:none;stroke:#0000ff;stroke-linecap:square;stroke-width:1.5;"/>
   </g>
   <g id="line2d_26">
    <path clip-path="url(#p5477c37a72)" d="M 73.832727 295.488 
L 74.918528 286.764334 
L 76.00433 276.11677 
L 77.090131 267.183347 
L 78.175932 273.555455 
L 79.261733 270.371597 
L 80.347534 273.286129 
L 81.433335 243.865149 
L 82.519137 242.681006 
L 83.604938 236.837894 
L 84.690739 258.601682 
L 85.77654 248.466616 
L 86.862341 249.376118 
L 87.948142 246.875812 
L 89.033943 234.967692 
L 90.119745 237.785227 
L 91.205546 229.107772 
L 92.291347 212.377335 
L 93.377148 231.125378 
L 94.462949 218.888784 
L 95.54875 212.010336 
L 96.634552 229.845015 
L 97.720353 225.086882 
L 98.806154 216.999139 
L 99.891955 226.246315 
L 100.977756 244.360257 
L 102.063557 240.275167 
L 103.149358 227.204524 
L 104.23516 218.567858 
L 105.320961 233.733859 
L 106.406762 218.635834 
L 107.492563 219.32087 
L 108.578364 241.469777 
L 109.664165 230.879013 
L 110.749967 222.695287 
L 111.835768 218.376242 
L 112.921569 226.226976 
L 114.00737 229.983097 
L 115.093171 216.372854 
L 116.178972 223.710508 
L 117.264773 251.501802 
L 118.350575 196.334021 
L 119.436376 225.663985 
L 120.522177 210.027059 
L 121.607978 226.241692 
L 122.693779 228.708713 
L 123.77958 234.227605 
L 124.865382 250.5239 
L 125.951183 212.831836 
L 127.036984 229.032528 
L 128.122785 222.648333 
L 129.208586 242.253917 
L 130.294387 230.824938 
L 131.380189 230.902328 
L 132.46599 211.848897 
L 133.551791 218.51222 
L 134.637592 211.42117 
L 135.723393 234.946616 
L 136.809194 228.878183 
L 137.894995 233.714983 
L 138.980797 261.105111 
L 140.066598 231.137875 
L 141.152399 222.909307 
L 142.2382 244.951518 
L 143.324001 236.391283 
L 144.409802 181.523581 
L 145.495604 214.905999 
L 146.581405 218.892917 
L 147.667206 232.367885 
L 148.753007 224.110778 
L 149.838808 236.222434 
L 150.924609 213.629591 
L 152.01041 216.853218 
L 153.096212 195.265593 
L 154.182013 232.386498 
L 155.267814 230.871012 
L 156.353615 222.198661 
L 157.439416 238.734782 
L 158.525217 220.826412 
L 159.611019 247.046485 
L 160.69682 202.069799 
L 161.782621 203.142964 
L 162.868422 223.584978 
L 163.954223 246.378248 
L 165.040024 228.09778 
L 166.125825 240.69554 
L 167.211627 222.933748 
L 168.297428 238.964076 
L 169.383229 208.26846 
L 170.46903 201.412081 
L 171.554831 232.467311 
L 172.640632 224.25449 
L 173.726434 253.288661 
L 174.812235 203.073578 
L 175.898036 200.409945 
L 176.983837 204.263659 
L 178.069638 230.553142 
L 179.155439 231.939291 
L 180.24124 213.221108 
L 181.327042 226.675629 
L 182.412843 218.629667 
L 183.498644 229.90035 
L 184.584445 212.046125 
L 185.670246 235.164167 
L 186.756047 204.333375 
L 187.841849 191.304339 
L 188.92765 214.394994 
L 190.013451 228.514766 
L 191.099252 174.585893 
L 192.185053 210.144623 
L 193.270854 233.17531 
L 194.356656 215.561402 
L 195.442457 212.127478 
L 196.528258 220.263435 
L 197.614059 205.554548 
L 198.69986 218.261729 
L 199.785661 213.449337 
L 200.871462 238.927786 
L 201.957264 188.996634 
L 203.043065 217.501562 
L 204.128866 210.154403 
L 205.214667 213.190007 
L 206.300468 245.796787 
L 207.386269 190.20019 
L 208.472071 183.721482 
L 209.557872 213.502739 
L 210.643673 223.937833 
L 211.729474 250.646965 
L 212.815275 228.839431 
L 213.901076 252.722991 
L 214.986877 225.490654 
L 216.072679 220.596017 
L 217.15848 166.402467 
L 218.244281 221.106497 
L 219.330082 229.882105 
L 220.415883 235.706612 
L 221.501684 235.250174 
L 222.587486 214.00583 
L 223.673287 213.748909 
L 224.759088 182.155378 
L 225.844889 229.2519 
L 226.93069 221.816384 
L 228.016491 234.601476 
L 229.102292 202.074652 
L 230.188094 201.897002 
L 231.273895 203.299146 
L 232.359696 214.025175 
L 233.445497 204.243737 
L 234.531298 203.094226 
L 235.617099 217.544003 
L 236.702901 230.312967 
L 237.788702 234.141442 
L 238.874503 210.887118 
L 239.960304 224.957839 
L 241.046105 226.03084 
L 242.131906 235.117124 
L 243.217708 216.354197 
L 244.303509 220.959095 
L 245.38931 237.956895 
L 246.475111 235.797927 
L 247.560912 227.240887 
L 248.646713 229.406422 
L 249.732514 253.993626 
L 250.818316 256.178579 
L 251.904117 225.733618 
L 252.989918 228.050556 
L 254.075719 237.435926 
L 255.16152 243.53188 
L 256.247321 204.056901 
L 257.333123 269.768614 
L 258.418924 258.721942 
L 259.504725 231.589299 
L 260.590526 252.204519 
L 261.676327 209.714128 
L 262.762128 242.894037 
L 263.847929 259.705675 
L 264.933731 220.587809 
L 266.019532 254.791441 
L 267.105333 241.490466 
L 268.191134 259.22474 
L 269.276935 260.887304 
L 270.362736 247.541899 
L 271.448538 252.876787 
L 272.534339 245.118454 
L 273.62014 248.480559 
L 274.705941 214.16599 
L 275.791742 219.989295 
L 276.877543 203.970782 
L 277.963344 217.570552 
L 279.049146 236.013786 
L 280.134947 239.914355 
L 281.220748 239.928886 
L 282.306549 231.709297 
L 283.39235 249.350568 
L 284.478151 212.475752 
L 285.563953 224.247082 
L 286.649754 240.878334 
L 287.735555 233.259283 
L 288.821356 209.493754 
L 289.907157 206.901046 
L 290.992958 264.348712 
L 292.07876 225.11592 
L 293.164561 242.620075 
L 294.250362 239.672219 
L 295.336163 236.131425 
L 296.421964 234.27848 
L 297.507765 242.293437 
L 298.593566 218.716721 
L 299.679368 231.784579 
L 300.765169 213.025107 
L 301.85097 196.541665 
L 302.936771 193.659699 
L 304.022572 226.262781 
L 305.108373 215.41993 
L 306.194175 224.214215 
L 307.279976 203.214503 
L 308.365777 203.374942 
L 309.451578 235.756708 
L 311.62318 195.740375 
L 312.708981 191.238881 
L 313.794783 226.035718 
L 314.880584 205.687564 
L 315.966385 208.046157 
L 317.052186 237.870774 
L 318.137987 213.562249 
L 319.223788 216.836468 
L 320.30959 195.183346 
L 321.395391 215.070115 
L 322.481192 230.880686 
L 323.566993 225.692974 
L 324.652794 194.007017 
L 325.738595 212.701564 
L 326.824396 239.062129 
L 327.910198 231.388267 
L 328.995999 204.829068 
L 330.0818 239.970481 
L 331.167601 220.345056 
L 332.253402 214.510735 
L 333.339203 219.547669 
L 334.425005 210.545245 
L 335.510806 217.138692 
L 336.596607 201.181831 
L 337.682408 204.215227 
L 338.768209 219.089594 
L 339.85401 221.874899 
L 340.939811 241.853195 
L 342.025613 229.32296 
L 343.111414 248.988996 
L 344.197215 213.853959 
L 345.283016 210.620551 
L 346.368817 216.644023 
L 347.454618 201.433459 
L 348.54042 214.736127 
L 349.626221 212.287492 
L 350.712022 208.560263 
L 351.797823 209.36043 
L 352.883624 213.317851 
L 353.969425 225.992783 
L 355.055227 216.175536 
L 356.141028 222.842682 
L 357.226829 216.383956 
L 358.31263 221.933356 
L 359.398431 204.644929 
L 360.484232 219.076781 
L 362.655835 194.217485 
L 363.741636 212.04389 
L 364.827437 208.51469 
L 365.913238 223.930577 
L 366.999039 216.217219 
L 368.08484 213.96555 
L 369.170642 186.540473 
L 370.256443 222.861785 
L 371.342244 193.990542 
L 372.428045 198.037371 
L 373.513846 218.254491 
L 374.599647 219.022177 
L 375.685448 209.696518 
L 376.77125 223.511898 
L 377.857051 220.834014 
L 378.942852 205.800266 
L 380.028653 248.296317 
L 381.114454 205.027816 
L 382.200255 200.326794 
L 383.286057 217.450702 
L 384.371858 204.651582 
L 385.457659 210.125966 
L 386.54346 211.663959 
L 387.629261 209.035688 
L 388.715062 200.342633 
L 389.800863 205.742151 
L 390.886665 214.04442 
L 391.972466 193.627051 
L 393.058267 233.805459 
L 394.144068 193.792503 
L 395.229869 199.931974 
L 396.31567 207.850286 
L 397.401472 217.361851 
L 398.487273 198.62913 
L 398.487273 198.62913 
" style="fill:none;stroke:#008000;stroke-dasharray:9.6,2.4,1.5,2.4;stroke-dashoffset:0;stroke-width:1.5;"/>
   </g>
   <g id="line2d_27">
    <path clip-path="url(#p5477c37a72)" d="M 73.832727 270.866464 
L 74.918528 255.840769 
L 77.090131 231.652816 
L 78.175932 228.26353 
L 79.261733 216.073842 
L 80.347534 210.462225 
L 81.433335 200.084361 
L 82.519137 194.229669 
L 83.604938 195.896585 
L 84.690739 203.274112 
L 85.77654 198.25271 
L 86.862341 190.548915 
L 87.948142 178.830994 
L 89.033943 169.983427 
L 90.119745 167.623122 
L 92.291347 153.528048 
L 93.377148 161.552924 
L 94.462949 161.598215 
L 95.54875 154.647143 
L 96.634552 166.953322 
L 97.720353 160.669244 
L 98.806154 163.574439 
L 100.977756 153.971942 
L 102.063557 165.338683 
L 103.149358 155.065565 
L 104.23516 157.587155 
L 105.320961 143.282924 
L 106.406762 154.147077 
L 107.492563 140.302711 
L 108.578364 152.046151 
L 110.749967 142.141028 
L 111.835768 126.741308 
L 112.921569 117.189528 
L 114.00737 138.194516 
L 115.093171 119.130671 
L 116.178972 107.516812 
L 117.264773 125.975276 
L 118.350575 110.408297 
L 119.436376 120.471472 
L 120.522177 126.141479 
L 121.607978 118.961661 
L 122.693779 120.377634 
L 123.77958 127.11742 
L 124.865382 131.987369 
L 125.951183 118.742266 
L 127.036984 103.475634 
L 128.122785 99.495331 
L 129.208586 109.168762 
L 131.380189 83.664841 
L 133.551791 101.49879 
L 134.637592 111.198841 
L 135.723393 108.770195 
L 136.809194 115.707093 
L 137.894995 108.285259 
L 138.980797 135.688727 
L 140.066598 100.929069 
L 141.152399 114.306739 
L 142.2382 101.218878 
L 143.324001 105.808286 
L 144.409802 94.43228 
L 145.495604 80.402558 
L 146.581405 103.066767 
L 147.667206 87.280042 
L 148.753007 106.600594 
L 149.838808 128.255788 
L 150.924609 96.364873 
L 152.01041 100.22377 
L 153.096212 96.423929 
L 154.182013 107.495815 
L 155.267814 98.721997 
L 156.353615 113.643082 
L 157.439416 120.370282 
L 158.525217 111.805087 
L 159.611019 97.808673 
L 160.69682 98.838849 
L 161.782621 74.338118 
L 162.868422 91.03927 
L 163.954223 87.902718 
L 165.040024 104.746003 
L 166.125825 131.433715 
L 167.211627 101.567693 
L 168.297428 84.254119 
L 169.383229 101.351358 
L 170.46903 115.730471 
L 171.554831 119.71732 
L 172.640632 85.336578 
L 173.726434 109.8176 
L 174.812235 91.473709 
L 175.898036 91.999209 
L 176.983837 87.707928 
L 178.069638 115.615082 
L 179.155439 107.345968 
L 180.24124 109.876964 
L 181.327042 97.996724 
L 182.412843 102.352241 
L 184.584445 71.554225 
L 185.670246 119.661192 
L 186.756047 81.398644 
L 187.841849 92.723497 
L 188.92765 76.198354 
L 190.013451 91.485835 
L 191.099252 60.192067 
L 192.185053 107.519744 
L 193.270854 88.712824 
L 194.356656 102.199673 
L 195.442457 66.402731 
L 196.528258 94.163087 
L 197.614059 60.389596 
L 198.69986 78.493568 
L 199.785661 76.574195 
L 200.871462 110.865096 
L 201.957264 72.668252 
L 203.043065 75.243875 
L 204.128866 93.633565 
L 205.214667 75.571208 
L 206.300468 91.817472 
L 207.386269 82.039297 
L 208.472071 75.737624 
L 209.557872 103.796922 
L 210.643673 89.920704 
L 211.729474 99.149938 
L 212.815275 106.655413 
L 213.901076 88.565445 
L 214.986877 91.33997 
L 216.072679 63.752791 
L 217.15848 53.568 
L 218.244281 77.520933 
L 219.330082 88.749074 
L 220.415883 88.911897 
L 221.501684 99.398093 
L 222.587486 72.835726 
L 223.673287 92.072819 
L 224.759088 78.500055 
L 225.844889 88.876412 
L 226.93069 109.850834 
L 228.016491 78.776671 
L 229.102292 86.512363 
L 230.188094 106.616726 
L 231.273895 94.201619 
L 232.359696 98.554382 
L 233.445497 78.615723 
L 234.531298 90.359748 
L 235.617099 98.362124 
L 236.702901 84.355784 
L 237.788702 90.401662 
L 238.874503 74.249179 
L 239.960304 102.250656 
L 241.046105 90.791325 
L 242.131906 101.212723 
L 243.217708 90.232329 
L 244.303509 100.015434 
L 245.38931 102.078772 
L 246.475111 112.862767 
L 248.646713 95.488431 
L 249.732514 119.777496 
L 250.818316 96.481551 
L 251.904117 96.111114 
L 252.989918 105.920746 
L 254.075719 104.350415 
L 255.16152 97.443693 
L 256.247321 93.961743 
L 257.333123 119.751475 
L 258.418924 113.431798 
L 259.504725 107.87922 
L 260.590526 89.295844 
L 261.676327 99.832986 
L 262.762128 109.159167 
L 263.847929 126.323676 
L 264.933731 93.665387 
L 266.019532 90.672663 
L 267.105333 110.058215 
L 268.191134 100.298237 
L 269.276935 111.451607 
L 270.362736 98.5859 
L 271.448538 113.014494 
L 272.534339 114.776946 
L 273.62014 92.461633 
L 274.705941 92.774269 
L 275.791742 102.471636 
L 276.877543 76.624698 
L 277.963344 91.874297 
L 279.049146 86.031459 
L 280.134947 91.869854 
L 281.220748 123.073938 
L 282.306549 97.700276 
L 283.39235 115.637488 
L 284.478151 85.17466 
L 285.563953 92.313432 
L 286.649754 89.658088 
L 287.735555 125.736859 
L 288.821356 108.898587 
L 289.907157 74.964306 
L 290.992958 125.845419 
L 292.07876 101.392146 
L 293.164561 101.676282 
L 294.250362 88.081335 
L 295.336163 100.495402 
L 296.421964 97.745793 
L 297.507765 92.880747 
L 298.593566 95.772543 
L 299.679368 90.039755 
L 300.765169 84.925032 
L 301.85097 91.345528 
L 302.936771 95.630835 
L 304.022572 89.526956 
L 305.108373 92.300738 
L 306.194175 92.681758 
L 307.279976 95.559094 
L 308.365777 82.031221 
L 309.451578 96.597556 
L 310.537379 105.061552 
L 311.62318 90.528703 
L 312.708981 82.742854 
L 313.794783 88.477635 
L 314.880584 75.872918 
L 315.966385 98.838269 
L 317.052186 106.79726 
L 318.137987 93.273933 
L 319.223788 83.615226 
L 320.30959 83.345125 
L 321.395391 134.900915 
L 322.481192 107.33485 
L 323.566993 106.237195 
L 324.652794 81.938784 
L 325.738595 102.947682 
L 326.824396 107.697674 
L 328.995999 101.794736 
L 330.0818 92.036975 
L 331.167601 97.837853 
L 332.253402 82.164725 
L 333.339203 85.41187 
L 334.425005 101.163267 
L 335.510806 106.23681 
L 336.596607 76.379718 
L 337.682408 97.909263 
L 338.768209 111.5705 
L 339.85401 95.499504 
L 340.939811 116.525163 
L 342.025613 109.388259 
L 343.111414 114.159661 
L 344.197215 100.373766 
L 345.283016 113.443826 
L 346.368817 98.69099 
L 347.454618 79.359758 
L 348.54042 97.712202 
L 349.626221 91.747196 
L 350.712022 75.696517 
L 351.797823 85.338147 
L 352.883624 86.626038 
L 353.969425 125.672663 
L 355.055227 83.72732 
L 356.141028 98.252855 
L 357.226829 106.666091 
L 358.31263 87.679358 
L 359.398431 78.284949 
L 360.484232 74.270854 
L 361.570033 77.322731 
L 362.655835 85.043055 
L 363.741636 89.443215 
L 364.827437 89.136494 
L 365.913238 92.095015 
L 366.999039 90.948632 
L 369.170642 75.561744 
L 370.256443 102.95073 
L 371.342244 88.754843 
L 372.428045 84.598251 
L 373.513846 96.312202 
L 374.599647 95.316049 
L 375.685448 78.52765 
L 376.77125 71.050257 
L 377.857051 93.196173 
L 378.942852 78.41325 
L 380.028653 94.232604 
L 381.114454 75.375141 
L 382.200255 69.533398 
L 383.286057 58.589368 
L 384.371858 75.89843 
L 385.457659 79.830365 
L 386.54346 70.400442 
L 387.629261 79.091847 
L 388.715062 76.625569 
L 389.800863 76.513996 
L 390.886665 82.706531 
L 391.972466 94.67923 
L 393.058267 91.67807 
L 394.144068 87.727956 
L 395.229869 74.217741 
L 397.401472 92.576176 
L 398.487273 69.518765 
L 398.487273 69.518765 
" style="fill:none;stroke:#008000;stroke-dasharray:9.6,2.4,1.5,2.4;stroke-dashoffset:0;stroke-width:1.5;"/>
   </g>
   <g id="line2d_28">
    <path clip-path="url(#p5477c37a72)" d="M 73.832727 253.641122 
L 74.918528 242.395698 
L 76.00433 242.655315 
L 77.090131 231.93457 
L 78.175932 226.491405 
L 79.261733 205.998203 
L 80.347534 200.749238 
L 81.433335 196.404132 
L 82.519137 188.632664 
L 83.604938 184.498284 
L 84.690739 193.25968 
L 85.77654 182.736713 
L 86.862341 176.35073 
L 87.948142 156.39505 
L 89.033943 160.921012 
L 90.119745 155.330449 
L 91.205546 146.693586 
L 92.291347 146.133495 
L 93.377148 143.992255 
L 94.462949 147.351428 
L 95.54875 148.110711 
L 96.634552 151.26409 
L 97.720353 152.049209 
L 98.806154 151.277217 
L 99.891955 147.858633 
L 100.977756 151.556703 
L 102.063557 150.884819 
L 103.149358 152.578116 
L 104.23516 150.239131 
L 105.320961 138.879856 
L 106.406762 150.90278 
L 107.492563 146.119633 
L 108.578364 146.741319 
L 109.664165 140.931905 
L 110.749967 116.296708 
L 111.835768 115.258281 
L 112.921569 110.796797 
L 114.00737 114.658905 
L 115.093171 105.26725 
L 116.178972 100.906195 
L 117.264773 101.41087 
L 118.350575 97.387979 
L 119.436376 112.878598 
L 120.522177 116.727496 
L 121.607978 100.002504 
L 122.693779 107.83523 
L 123.77958 112.727963 
L 124.865382 104.514573 
L 125.951183 94.838584 
L 127.036984 86.897711 
L 128.122785 94.694307 
L 129.208586 105.868941 
L 130.294387 79.703416 
L 131.380189 87.71623 
L 132.46599 100.088088 
L 133.551791 106.702457 
L 134.637592 104.343502 
L 135.723393 100.405754 
L 136.809194 105.909816 
L 137.894995 105.646783 
L 138.980797 121.348155 
L 140.066598 102.918746 
L 141.152399 110.124704 
L 142.2382 99.06677 
L 143.324001 103.665332 
L 144.409802 91.406788 
L 145.495604 72.9629 
L 146.581405 105.888563 
L 147.667206 82.397559 
L 148.753007 102.486963 
L 149.838808 112.363595 
L 150.924609 89.273332 
L 152.01041 94.663558 
L 153.096212 87.135584 
L 154.182013 105.309152 
L 155.267814 89.270167 
L 156.353615 106.076685 
L 157.439416 119.533374 
L 158.525217 112.625282 
L 159.611019 93.641518 
L 160.69682 100.940802 
L 161.782621 81.601419 
L 162.868422 93.508805 
L 163.954223 74.930064 
L 165.040024 99.944434 
L 166.125825 121.925622 
L 168.297428 80.589171 
L 169.383229 101.665635 
L 170.46903 101.191787 
L 171.554831 106.734764 
L 172.640632 84.577182 
L 173.726434 99.789454 
L 174.812235 84.821596 
L 175.898036 94.951712 
L 176.983837 85.934325 
L 178.069638 107.80427 
L 179.155439 100.267333 
L 180.24124 98.235158 
L 181.327042 96.748467 
L 182.412843 96.22022 
L 183.498644 78.020515 
L 184.584445 78.104981 
L 185.670246 109.612606 
L 186.756047 79.161158 
L 187.841849 93.910395 
L 188.92765 82.409018 
L 190.013451 80.805822 
L 191.099252 64.538854 
L 192.185053 111.136179 
L 193.270854 83.46306 
L 194.356656 92.780753 
L 195.442457 73.981631 
L 196.528258 95.819995 
L 197.614059 68.479701 
L 198.69986 75.656302 
L 199.785661 74.393515 
L 200.871462 103.0736 
L 201.957264 77.431057 
L 203.043065 68.23581 
L 204.128866 97.510871 
L 205.214667 79.915137 
L 206.300468 85.516064 
L 207.386269 89.667801 
L 208.472071 70.823923 
L 209.557872 97.744541 
L 210.643673 80.875857 
L 211.729474 82.994601 
L 212.815275 101.19208 
L 213.901076 86.127886 
L 214.986877 90.513488 
L 216.072679 67.386709 
L 217.15848 59.985381 
L 218.244281 78.759829 
L 219.330082 82.531443 
L 220.415883 92.820243 
L 221.501684 91.517945 
L 222.587486 74.243328 
L 223.673287 71.028043 
L 224.759088 74.639414 
L 225.844889 79.46671 
L 226.93069 95.978365 
L 228.016491 62.223378 
L 229.102292 69.785099 
L 230.188094 89.969213 
L 231.273895 91.285339 
L 232.359696 88.113763 
L 233.445497 70.541618 
L 234.531298 81.833832 
L 235.617099 83.34345 
L 236.702901 88.233875 
L 238.874503 64.942837 
L 239.960304 81.745293 
L 241.046105 80.419624 
L 242.131906 83.531713 
L 243.217708 78.827812 
L 244.303509 86.742775 
L 245.38931 80.537104 
L 246.475111 89.568858 
L 247.560912 82.152666 
L 248.646713 79.524913 
L 249.732514 93.299642 
L 250.818316 76.040313 
L 251.904117 85.697274 
L 252.989918 82.659363 
L 254.075719 84.872093 
L 255.16152 84.948894 
L 256.247321 87.887172 
L 257.333123 87.247167 
L 258.418924 93.576862 
L 259.504725 97.621028 
L 260.590526 79.109602 
L 261.676327 93.49858 
L 262.762128 94.78366 
L 263.847929 97.26409 
L 264.933731 101.714054 
L 266.019532 71.132373 
L 267.105333 92.10301 
L 268.191134 83.487992 
L 269.276935 86.746374 
L 270.362736 82.882654 
L 271.448538 92.687202 
L 272.534339 97.366799 
L 273.62014 70.891275 
L 274.705941 81.113631 
L 275.791742 89.586877 
L 276.877543 71.062364 
L 277.963344 84.021322 
L 279.049146 67.279007 
L 280.134947 91.78274 
L 281.220748 86.619165 
L 282.306549 82.442628 
L 283.39235 92.007777 
L 284.478151 78.569857 
L 285.563953 74.24916 
L 286.649754 80.841747 
L 287.735555 102.992279 
L 288.821356 103.449002 
L 289.907157 75.451579 
L 290.992958 102.286233 
L 292.07876 72.140899 
L 293.164561 71.97488 
L 294.250362 72.375146 
L 295.336163 92.721012 
L 296.421964 90.739234 
L 297.507765 75.472734 
L 298.593566 78.041157 
L 299.679368 85.176957 
L 300.765169 71.963899 
L 301.85097 85.979789 
L 302.936771 89.43974 
L 304.022572 71.536415 
L 305.108373 82.361252 
L 306.194175 82.563351 
L 307.279976 73.607774 
L 308.365777 77.360252 
L 309.451578 76.964903 
L 310.537379 85.429208 
L 311.62318 84.137443 
L 312.708981 77.897086 
L 313.794783 72.342348 
L 314.880584 75.741537 
L 315.966385 83.485117 
L 317.052186 88.898556 
L 318.137987 88.160998 
L 319.223788 82.03191 
L 320.30959 75.264516 
L 321.395391 102.773616 
L 322.481192 82.432609 
L 323.566993 84.176285 
L 324.652794 71.461155 
L 325.738595 82.052455 
L 326.824396 86.517 
L 327.910198 89.452198 
L 328.995999 99.136937 
L 330.0818 69.12103 
L 331.167601 87.446762 
L 332.253402 82.077908 
L 333.339203 72.39949 
L 334.425005 94.830382 
L 335.510806 89.617931 
L 336.596607 77.401864 
L 337.682408 88.56467 
L 338.768209 108.249179 
L 339.85401 80.699277 
L 340.939811 102.335288 
L 342.025613 91.825957 
L 343.111414 78.855594 
L 345.283016 97.053051 
L 346.368817 91.091489 
L 347.454618 70.643647 
L 348.54042 82.371314 
L 349.626221 82.780889 
L 350.712022 67.381374 
L 351.797823 71.38502 
L 352.883624 76.671766 
L 353.969425 105.10095 
L 355.055227 84.268811 
L 356.141028 88.114595 
L 357.226829 96.914659 
L 358.31263 89.549937 
L 359.398431 64.162198 
L 361.570033 77.166405 
L 362.655835 91.752551 
L 363.741636 93.26483 
L 364.827437 91.518328 
L 365.913238 91.357014 
L 366.999039 89.962346 
L 368.08484 93.118364 
L 369.170642 70.426946 
L 370.256443 99.436714 
L 372.428045 86.193285 
L 373.513846 81.282483 
L 374.599647 88.987727 
L 375.685448 87.08882 
L 376.77125 68.448006 
L 377.857051 87.407916 
L 378.942852 75.836072 
L 380.028653 87.945473 
L 381.114454 77.851399 
L 382.200255 72.241757 
L 383.286057 63.14112 
L 384.371858 77.385743 
L 385.457659 65.211022 
L 386.54346 64.052208 
L 387.629261 73.354971 
L 388.715062 75.968265 
L 389.800863 63.831344 
L 390.886665 79.993719 
L 391.972466 77.405605 
L 393.058267 82.612254 
L 394.144068 86.517654 
L 395.229869 73.726721 
L 396.31567 74.996256 
L 397.401472 86.950712 
L 398.487273 70.085013 
L 398.487273 70.085013 
" style="fill:none;stroke:#ff0000;stroke-linecap:square;stroke-width:1.5;"/>
   </g>
   <g id="patch_3">
    <path d="M 57.6 307.584 
L 57.6 41.472 
" style="fill:none;stroke:#000000;stroke-linecap:square;stroke-linejoin:miter;stroke-width:0.8;"/>
   </g>
   <g id="patch_4">
    <path d="M 414.72 307.584 
L 414.72 41.472 
" style="fill:none;stroke:#000000;stroke-linecap:square;stroke-linejoin:miter;stroke-width:0.8;"/>
   </g>
   <g id="patch_5">
    <path d="M 57.6 307.584 
L 414.72 307.584 
" style="fill:none;stroke:#000000;stroke-linecap:square;stroke-linejoin:miter;stroke-width:0.8;"/>
   </g>
   <g id="patch_6">
    <path d="M 57.6 41.472 
L 414.72 41.472 
" style="fill:none;stroke:#000000;stroke-linecap:square;stroke-linejoin:miter;stroke-width:0.8;"/>
   </g>
   <g id="text_15">
    <!-- Population's average and best fitness -->
    <defs>
     <path d="M 19.671875 64.796875 
L 19.671875 37.40625 
L 32.078125 37.40625 
Q 38.96875 37.40625 42.71875 40.96875 
Q 46.484375 44.53125 46.484375 51.125 
Q 46.484375 57.671875 42.71875 61.234375 
Q 38.96875 64.796875 32.078125 64.796875 
z
M 9.8125 72.90625 
L 32.078125 72.90625 
Q 44.34375 72.90625 50.609375 67.359375 
Q 56.890625 61.8125 56.890625 51.125 
Q 56.890625 40.328125 50.609375 34.8125 
Q 44.34375 29.296875 32.078125 29.296875 
L 19.671875 29.296875 
L 19.671875 0 
L 9.8125 0 
z
" id="DejaVuSans-80"/>
     <path d="M 18.109375 8.203125 
L 18.109375 -20.796875 
L 9.078125 -20.796875 
L 9.078125 54.6875 
L 18.109375 54.6875 
L 18.109375 46.390625 
Q 20.953125 51.265625 25.265625 53.625 
Q 29.59375 56 35.59375 56 
Q 45.5625 56 51.78125 48.09375 
Q 58.015625 40.1875 58.015625 27.296875 
Q 58.015625 14.40625 51.78125 6.484375 
Q 45.5625 -1.421875 35.59375 -1.421875 
Q 29.59375 -1.421875 25.265625 0.953125 
Q 20.953125 3.328125 18.109375 8.203125 
z
M 48.6875 27.296875 
Q 48.6875 37.203125 44.609375 42.84375 
Q 40.53125 48.484375 33.40625 48.484375 
Q 26.265625 48.484375 22.1875 42.84375 
Q 18.109375 37.203125 18.109375 27.296875 
Q 18.109375 17.390625 22.1875 11.75 
Q 26.265625 6.109375 33.40625 6.109375 
Q 40.53125 6.109375 44.609375 11.75 
Q 48.6875 17.390625 48.6875 27.296875 
z
" id="DejaVuSans-112"/>
     <path d="M 8.5 21.578125 
L 8.5 54.6875 
L 17.484375 54.6875 
L 17.484375 21.921875 
Q 17.484375 14.15625 20.5 10.265625 
Q 23.53125 6.390625 29.59375 6.390625 
Q 36.859375 6.390625 41.078125 11.03125 
Q 45.3125 15.671875 45.3125 23.6875 
L 45.3125 54.6875 
L 54.296875 54.6875 
L 54.296875 0 
L 45.3125 0 
L 45.3125 8.40625 
Q 42.046875 3.421875 37.71875 1 
Q 33.40625 -1.421875 27.6875 -1.421875 
Q 18.265625 -1.421875 13.375 4.4375 
Q 8.5 10.296875 8.5 21.578125 
z
M 31.109375 56 
z
" id="DejaVuSans-117"/>
     <path d="M 9.421875 75.984375 
L 18.40625 75.984375 
L 18.40625 0 
L 9.421875 0 
z
" id="DejaVuSans-108"/>
     <path d="M 17.921875 72.90625 
L 17.921875 45.796875 
L 9.625 45.796875 
L 9.625 72.90625 
z
" id="DejaVuSans-39"/>
     <path id="DejaVuSans-32"/>
     <path d="M 2.984375 54.6875 
L 12.5 54.6875 
L 29.59375 8.796875 
L 46.6875 54.6875 
L 56.203125 54.6875 
L 35.6875 0 
L 23.484375 0 
z
" id="DejaVuSans-118"/>
     <path d="M 45.40625 27.984375 
Q 45.40625 37.75 41.375 43.109375 
Q 37.359375 48.484375 30.078125 48.484375 
Q 22.859375 48.484375 18.828125 43.109375 
Q 14.796875 37.75 14.796875 27.984375 
Q 14.796875 18.265625 18.828125 12.890625 
Q 22.859375 7.515625 30.078125 7.515625 
Q 37.359375 7.515625 41.375 12.890625 
Q 45.40625 18.265625 45.40625 27.984375 
z
M 54.390625 6.78125 
Q 54.390625 -7.171875 48.1875 -13.984375 
Q 42 -20.796875 29.203125 -20.796875 
Q 24.46875 -20.796875 20.265625 -20.09375 
Q 16.0625 -19.390625 12.109375 -17.921875 
L 12.109375 -9.1875 
Q 16.0625 -11.328125 19.921875 -12.34375 
Q 23.78125 -13.375 27.78125 -13.375 
Q 36.625 -13.375 41.015625 -8.765625 
Q 45.40625 -4.15625 45.40625 5.171875 
L 45.40625 9.625 
Q 42.625 4.78125 38.28125 2.390625 
Q 33.9375 0 27.875 0 
Q 17.828125 0 11.671875 7.65625 
Q 5.515625 15.328125 5.515625 27.984375 
Q 5.515625 40.671875 11.671875 48.328125 
Q 17.828125 56 27.875 56 
Q 33.9375 56 38.28125 53.609375 
Q 42.625 51.21875 45.40625 46.390625 
L 45.40625 54.6875 
L 54.390625 54.6875 
z
" id="DejaVuSans-103"/>
     <path d="M 45.40625 46.390625 
L 45.40625 75.984375 
L 54.390625 75.984375 
L 54.390625 0 
L 45.40625 0 
L 45.40625 8.203125 
Q 42.578125 3.328125 38.25 0.953125 
Q 33.9375 -1.421875 27.875 -1.421875 
Q 17.96875 -1.421875 11.734375 6.484375 
Q 5.515625 14.40625 5.515625 27.296875 
Q 5.515625 40.1875 11.734375 48.09375 
Q 17.96875 56 27.875 56 
Q 33.9375 56 38.25 53.625 
Q 42.578125 51.265625 45.40625 46.390625 
z
M 14.796875 27.296875 
Q 14.796875 17.390625 18.875 11.75 
Q 22.953125 6.109375 30.078125 6.109375 
Q 37.203125 6.109375 41.296875 11.75 
Q 45.40625 17.390625 45.40625 27.296875 
Q 45.40625 37.203125 41.296875 42.84375 
Q 37.203125 48.484375 30.078125 48.484375 
Q 22.953125 48.484375 18.875 42.84375 
Q 14.796875 37.203125 14.796875 27.296875 
z
" id="DejaVuSans-100"/>
     <path d="M 48.6875 27.296875 
Q 48.6875 37.203125 44.609375 42.84375 
Q 40.53125 48.484375 33.40625 48.484375 
Q 26.265625 48.484375 22.1875 42.84375 
Q 18.109375 37.203125 18.109375 27.296875 
Q 18.109375 17.390625 22.1875 11.75 
Q 26.265625 6.109375 33.40625 6.109375 
Q 40.53125 6.109375 44.609375 11.75 
Q 48.6875 17.390625 48.6875 27.296875 
z
M 18.109375 46.390625 
Q 20.953125 51.265625 25.265625 53.625 
Q 29.59375 56 35.59375 56 
Q 45.5625 56 51.78125 48.09375 
Q 58.015625 40.1875 58.015625 27.296875 
Q 58.015625 14.40625 51.78125 6.484375 
Q 45.5625 -1.421875 35.59375 -1.421875 
Q 29.59375 -1.421875 25.265625 0.953125 
Q 20.953125 3.328125 18.109375 8.203125 
L 18.109375 0 
L 9.078125 0 
L 9.078125 75.984375 
L 18.109375 75.984375 
z
" id="DejaVuSans-98"/>
     <path d="M 37.109375 75.984375 
L 37.109375 68.5 
L 28.515625 68.5 
Q 23.6875 68.5 21.796875 66.546875 
Q 19.921875 64.59375 19.921875 59.515625 
L 19.921875 54.6875 
L 34.71875 54.6875 
L 34.71875 47.703125 
L 19.921875 47.703125 
L 19.921875 0 
L 10.890625 0 
L 10.890625 47.703125 
L 2.296875 47.703125 
L 2.296875 54.6875 
L 10.890625 54.6875 
L 10.890625 58.5 
Q 10.890625 67.625 15.140625 71.796875 
Q 19.390625 75.984375 28.609375 75.984375 
z
" id="DejaVuSans-102"/>
    </defs>
    <g transform="translate(123.315 35.472)scale(0.12 -0.12)">
     <use xlink:href="#DejaVuSans-80"/>
     <use x="60.255859" xlink:href="#DejaVuSans-111"/>
     <use x="121.4375" xlink:href="#DejaVuSans-112"/>
     <use x="184.914062" xlink:href="#DejaVuSans-117"/>
     <use x="248.292969" xlink:href="#DejaVuSans-108"/>
     <use x="276.076172" xlink:href="#DejaVuSans-97"/>
     <use x="337.355469" xlink:href="#DejaVuSans-116"/>
     <use x="376.564453" xlink:href="#DejaVuSans-105"/>
     <use x="404.347656" xlink:href="#DejaVuSans-111"/>
     <use x="465.529297" xlink:href="#DejaVuSans-110"/>
     <use x="528.908203" xlink:href="#DejaVuSans-39"/>
     <use x="556.398438" xlink:href="#DejaVuSans-115"/>
     <use x="608.498047" xlink:href="#DejaVuSans-32"/>
     <use x="640.285156" xlink:href="#DejaVuSans-97"/>
     <use x="701.564453" xlink:href="#DejaVuSans-118"/>
     <use x="760.744141" xlink:href="#DejaVuSans-101"/>
     <use x="822.267578" xlink:href="#DejaVuSans-114"/>
     <use x="863.380859" xlink:href="#DejaVuSans-97"/>
     <use x="924.660156" xlink:href="#DejaVuSans-103"/>
     <use x="988.136719" xlink:href="#DejaVuSans-101"/>
     <use x="1049.660156" xlink:href="#DejaVuSans-32"/>
     <use x="1081.447266" xlink:href="#DejaVuSans-97"/>
     <use x="1142.726562" xlink:href="#DejaVuSans-110"/>
     <use x="1206.105469" xlink:href="#DejaVuSans-100"/>
     <use x="1269.582031" xlink:href="#DejaVuSans-32"/>
     <use x="1301.369141" xlink:href="#DejaVuSans-98"/>
     <use x="1364.845703" xlink:href="#DejaVuSans-101"/>
     <use x="1426.369141" xlink:href="#DejaVuSans-115"/>
     <use x="1478.46875" xlink:href="#DejaVuSans-116"/>
     <use x="1517.677734" xlink:href="#DejaVuSans-32"/>
     <use x="1549.464844" xlink:href="#DejaVuSans-102"/>
     <use x="1584.669922" xlink:href="#DejaVuSans-105"/>
     <use x="1612.453125" xlink:href="#DejaVuSans-116"/>
     <use x="1651.662109" xlink:href="#DejaVuSans-110"/>
     <use x="1715.041016" xlink:href="#DejaVuSans-101"/>
     <use x="1776.564453" xlink:href="#DejaVuSans-115"/>
     <use x="1828.664062" xlink:href="#DejaVuSans-115"/>
    </g>
   </g>
   <g id="legend_1">
    <g id="patch_7">
     <path d="M 334.779375 302.584 
L 407.72 302.584 
Q 409.72 302.584 409.72 300.584 
L 409.72 242.8715 
Q 409.72 240.8715 407.72 240.8715 
L 334.779375 240.8715 
Q 332.779375 240.8715 332.779375 242.8715 
L 332.779375 300.584 
Q 332.779375 302.584 334.779375 302.584 
z
" style="fill:#ffffff;opacity:0.8;stroke:#cccccc;stroke-linejoin:miter;"/>
    </g>
    <g id="line2d_29">
     <path d="M 336.779375 248.969937 
L 356.779375 248.969937 
" style="fill:none;stroke:#0000ff;stroke-linecap:square;stroke-width:1.5;"/>
    </g>
    <g id="line2d_30"/>
    <g id="text_16">
     <!-- average -->
     <g transform="translate(364.779375 252.469937)scale(0.1 -0.1)">
      <use xlink:href="#DejaVuSans-97"/>
      <use x="61.279297" xlink:href="#DejaVuSans-118"/>
      <use x="120.458984" xlink:href="#DejaVuSans-101"/>
      <use x="181.982422" xlink:href="#DejaVuSans-114"/>
      <use x="223.095703" xlink:href="#DejaVuSans-97"/>
      <use x="284.375" xlink:href="#DejaVuSans-103"/>
      <use x="347.851562" xlink:href="#DejaVuSans-101"/>
     </g>
    </g>
    <g id="line2d_31">
     <path d="M 336.779375 263.648062 
L 356.779375 263.648062 
" style="fill:none;stroke:#008000;stroke-dasharray:9.6,2.4,1.5,2.4;stroke-dashoffset:0;stroke-width:1.5;"/>
    </g>
    <g id="line2d_32"/>
    <g id="text_17">
     <!-- -1 sd -->
     <defs>
      <path d="M 4.890625 31.390625 
L 31.203125 31.390625 
L 31.203125 23.390625 
L 4.890625 23.390625 
z
" id="DejaVuSans-45"/>
     </defs>
     <g transform="translate(364.779375 267.148062)scale(0.1 -0.1)">
      <use xlink:href="#DejaVuSans-45"/>
      <use x="36.083984" xlink:href="#DejaVuSans-49"/>
      <use x="99.707031" xlink:href="#DejaVuSans-32"/>
      <use x="131.494141" xlink:href="#DejaVuSans-115"/>
      <use x="183.59375" xlink:href="#DejaVuSans-100"/>
     </g>
    </g>
    <g id="line2d_33">
     <path d="M 336.779375 278.326187 
L 356.779375 278.326187 
" style="fill:none;stroke:#008000;stroke-dasharray:9.6,2.4,1.5,2.4;stroke-dashoffset:0;stroke-width:1.5;"/>
    </g>
    <g id="line2d_34"/>
    <g id="text_18">
     <!-- +1 sd -->
     <defs>
      <path d="M 46 62.703125 
L 46 35.5 
L 73.1875 35.5 
L 73.1875 27.203125 
L 46 27.203125 
L 46 0 
L 37.796875 0 
L 37.796875 27.203125 
L 10.59375 27.203125 
L 10.59375 35.5 
L 37.796875 35.5 
L 37.796875 62.703125 
z
" id="DejaVuSans-43"/>
     </defs>
     <g transform="translate(364.779375 281.826187)scale(0.1 -0.1)">
      <use xlink:href="#DejaVuSans-43"/>
      <use x="83.789062" xlink:href="#DejaVuSans-49"/>
      <use x="147.412109" xlink:href="#DejaVuSans-32"/>
      <use x="179.199219" xlink:href="#DejaVuSans-115"/>
      <use x="231.298828" xlink:href="#DejaVuSans-100"/>
     </g>
    </g>
    <g id="line2d_35">
     <path d="M 336.779375 293.004312 
L 356.779375 293.004312 
" style="fill:none;stroke:#ff0000;stroke-linecap:square;stroke-width:1.5;"/>
    </g>
    <g id="line2d_36"/>
    <g id="text_19">
     <!-- best -->
     <g transform="translate(364.779375 296.504312)scale(0.1 -0.1)">
      <use xlink:href="#DejaVuSans-98"/>
      <use x="63.476562" xlink:href="#DejaVuSans-101"/>
      <use x="125" xlink:href="#DejaVuSans-115"/>
      <use x="177.099609" xlink:href="#DejaVuSans-116"/>
     </g>
    </g>
   </g>
  </g>
 </g>
 <defs>
  <clipPath id="p5477c37a72">
   <rect height="266.112" width="357.12" x="57.6" y="41.472"/>
  </clipPath>
 </defs>
</svg>
