<?xml version="1.0" encoding="UTF-8" standalone="no"?>
<!DOCTYPE svg PUBLIC "-//W3C//DTD SVG 1.1//EN"
 "http://www.w3.org/Graphics/SVG/1.1/DTD/svg11.dtd">
<!-- Generated by graphviz version 2.40.1 (20161225.0304)
 -->
<!-- Title: %3 Pages: 1 -->
<svg width="485pt" height="98pt"
 viewBox="0.00 0.00 484.77 97.77" xmlns="http://www.w3.org/2000/svg" xmlns:xlink="http://www.w3.org/1999/xlink">
<g id="graph0" class="graph" transform="scale(1 1) rotate(0) translate(4 93.7661)">
<title>%3</title>
<polygon fill="#ffffff" stroke="transparent" points="-4,4 -4,-93.7661 480.7661,-93.7661 480.7661,4 -4,4"/>
<!-- 0 -->
<g id="node1" class="node">
<title>0</title>
<polygon fill="#d3d3d3" stroke="#000000" points="170.389,-89.7661 150.3771,-89.7661 150.3771,-72.7661 170.389,-72.7661 170.389,-89.7661"/>
<text text-anchor="middle" x="160.383" y="-78.5661" font-family="Times,serif" font-size="9.00" fill="#000000">0</text>
</g>
<!-- 1 -->
<g id="node2" class="node">
<title>1</title>
<polygon fill="#d3d3d3" stroke="#000000" points="209.389,-89.7661 189.3771,-89.7661 189.3771,-72.7661 209.389,-72.7661 209.389,-89.7661"/>
<text text-anchor="middle" x="199.383" y="-78.5661" font-family="Times,serif" font-size="9.00" fill="#000000">1</text>
</g>
<!-- 0&#45;&gt;1 -->
<!-- E0 -->
<g id="node4" class="node">
<title>E0</title>
<ellipse fill="#87cefa" stroke="#000000" cx="18.383" cy="-18.383" rx="18.2668" ry="18.2668"/>
<text text-anchor="middle" x="18.383" y="-15.683" font-family="Times,serif" font-size="9.00" fill="#000000">E0</text>
</g>
<!-- 0&#45;&gt;E0 -->
<g id="edge19" class="edge">
<title>0&#45;&gt;E0</title>
<path fill="none" stroke="#ff0000" stroke-width=".1301" d="M150.3203,-78.1275C130.0716,-71.6427 83.1968,-55.771 46.383,-36.7661 45.0267,-36.0659 43.654,-35.316 42.2828,-34.5339"/>
<polygon fill="#ff0000" stroke="#ff0000" stroke-width=".1301" points="43.7905,-31.3522 33.4394,-29.0928 40.1223,-37.3141 43.7905,-31.3522"/>
</g>
<!-- E7 -->
<g id="node11" class="node">
<title>E7</title>
<ellipse fill="#87cefa" stroke="#000000" cx="403.383" cy="-18.383" rx="18.2668" ry="18.2668"/>
<text text-anchor="middle" x="403.383" y="-15.683" font-family="Times,serif" font-size="9.00" fill="#000000">E7</text>
</g>
<!-- 0&#45;&gt;E7 -->
<g id="edge12" class="edge">
<title>0&#45;&gt;E7</title>
<path fill="none" stroke="#00ff00" stroke-width="1.3706" d="M170.3983,-76.5015C173.5414,-75.145 177.0592,-73.766 180.383,-72.7661 264.7782,-47.3778 293.5963,-69.5996 375.383,-36.7661 376.7996,-36.1974 378.2201,-35.5521 379.6288,-34.8517"/>
<polygon fill="#00ff00" stroke="#00ff00" stroke-width="1.3706" points="381.6885,-37.7035 388.5876,-29.6628 378.18,-31.6462 381.6885,-37.7035"/>
</g>
<!-- E8 -->
<g id="node12" class="node">
<title>E8</title>
<ellipse fill="#87cefa" stroke="#000000" cx="458.383" cy="-18.383" rx="18.2668" ry="18.2668"/>
<text text-anchor="middle" x="458.383" y="-15.683" font-family="Times,serif" font-size="9.00" fill="#000000">E8</text>
</g>
<!-- 0&#45;&gt;E8 -->
<g id="edge15" class="edge">
<title>0&#45;&gt;E8</title>
<path fill="none" stroke="#ff0000" stroke-width=".1087" d="M170.7867,-76.243C173.8229,-74.9431 177.1854,-73.6595 180.383,-72.7661 288.4998,-42.5593 325.4007,-76.5201 430.383,-36.7661 431.8106,-36.2255 433.2398,-35.6025 434.6553,-34.9197"/>
<polygon fill="#ff0000" stroke="#ff0000" stroke-width=".1087" points="436.6916,-37.7871 443.6351,-29.7846 433.2167,-31.7105 436.6916,-37.7871"/>
</g>
<!-- 2 -->
<g id="node3" class="node">
<title>2</title>
<polygon fill="#d3d3d3" stroke="#000000" points="248.389,-89.7661 228.3771,-89.7661 228.3771,-72.7661 248.389,-72.7661 248.389,-89.7661"/>
<text text-anchor="middle" x="238.383" y="-78.5661" font-family="Times,serif" font-size="9.00" fill="#000000">2</text>
</g>
<!-- 1&#45;&gt;2 -->
<!-- E2 -->
<g id="node6" class="node">
<title>E2</title>
<ellipse fill="#87cefa" stroke="#000000" cx="128.383" cy="-18.383" rx="18.2668" ry="18.2668"/>
<text text-anchor="middle" x="128.383" y="-15.683" font-family="Times,serif" font-size="9.00" fill="#000000">E2</text>
</g>
<!-- 1&#45;&gt;E2 -->
<g id="edge18" class="edge">
<title>1&#45;&gt;E2</title>
<path fill="none" stroke="#00ff00" stroke-width=".2965" d="M189.5108,-72.5225C179.3503,-63.5236 163.1926,-49.2131 150.0405,-37.5646"/>
<polygon fill="#00ff00" stroke="#00ff00" stroke-width=".2965" points="152.127,-34.7371 142.3204,-30.727 147.4858,-39.9773 152.127,-34.7371"/>
</g>
<!-- E3 -->
<g id="node7" class="node">
<title>E3</title>
<ellipse fill="#87cefa" stroke="#000000" cx="183.383" cy="-18.383" rx="18.2668" ry="18.2668"/>
<text text-anchor="middle" x="183.383" y="-15.683" font-family="Times,serif" font-size="9.00" fill="#000000">E3</text>
</g>
<!-- 1&#45;&gt;E3 -->
<g id="edge13" class="edge">
<title>1&#45;&gt;E3</title>
<path fill="none" stroke="#00ff00" stroke-width="2.4587" d="M197.1583,-72.5225C195.4179,-65.6824 192.8967,-55.7734 190.4855,-46.2972"/>
<polygon fill="#00ff00" stroke="#00ff00" stroke-width="2.4587" points="193.8125,-45.1783 187.9546,-36.3502 187.0286,-46.9045 193.8125,-45.1783"/>
</g>
<!-- E4 -->
<g id="node8" class="node">
<title>E4</title>
<ellipse fill="#87cefa" stroke="#000000" cx="238.383" cy="-18.383" rx="18.2668" ry="18.2668"/>
<text text-anchor="middle" x="238.383" y="-15.683" font-family="Times,serif" font-size="9.00" fill="#000000">E4</text>
</g>
<!-- 1&#45;&gt;E4 -->
<g id="edge17" class="edge">
<title>1&#45;&gt;E4</title>
<path fill="none" stroke="#ff0000" stroke-width=".4662" d="M204.8058,-72.5225C209.5327,-64.9009 216.6227,-53.4692 223.0713,-43.0716"/>
<polygon fill="#ff0000" stroke="#ff0000" stroke-width=".4662" points="226.2013,-44.6652 228.4976,-34.3222 220.2525,-40.9758 226.2013,-44.6652"/>
</g>
<!-- E5 -->
<g id="node9" class="node">
<title>E5</title>
<ellipse fill="#87cefa" stroke="#000000" cx="293.383" cy="-18.383" rx="18.2668" ry="18.2668"/>
<text text-anchor="middle" x="293.383" y="-15.683" font-family="Times,serif" font-size="9.00" fill="#000000">E5</text>
</g>
<!-- 1&#45;&gt;E5 -->
<g id="edge14" class="edge">
<title>1&#45;&gt;E5</title>
<path fill="none" stroke="#ff0000" stroke-width=".4547" d="M209.4427,-74.5365C223.6536,-65.0299 250.0361,-47.3808 269.444,-34.3975"/>
<polygon fill="#ff0000" stroke="#ff0000" stroke-width=".4547" points="271.436,-37.276 277.8015,-28.8066 267.5438,-31.4578 271.436,-37.276"/>
</g>
<!-- 2&#45;&gt;E0 -->
<g id="edge11" class="edge">
<title>2&#45;&gt;E0</title>
<path fill="none" stroke="#ff0000" stroke-width="1.5727" d="M228.3529,-76.55C225.2092,-75.1955 221.6948,-73.8054 218.383,-72.7661 143.8656,-49.3802 118.5107,-66.7219 46.383,-36.7661 44.9733,-36.1806 43.5583,-35.5219 42.1539,-34.8112"/>
<polygon fill="#ff0000" stroke="#ff0000" stroke-width="1.5727" points="43.6091,-31.608 33.2083,-29.59 40.0806,-37.6537 43.6091,-31.608"/>
</g>
<!-- 2&#45;&gt;E4 -->
<g id="edge16" class="edge">
<title>2&#45;&gt;E4</title>
<path fill="none" stroke="#ff0000" stroke-width=".6445" d="M238.383,-72.5225C238.383,-65.8532 238.383,-56.2664 238.383,-47.008"/>
<polygon fill="#ff0000" stroke="#ff0000" stroke-width=".6445" points="241.8831,-46.8675 238.383,-36.8675 234.8831,-46.8676 241.8831,-46.8675"/>
</g>
<!-- E1 -->
<g id="node5" class="node">
<title>E1</title>
<ellipse fill="#87cefa" stroke="#000000" cx="73.383" cy="-18.383" rx="18.2668" ry="18.2668"/>
<text text-anchor="middle" x="73.383" y="-15.683" font-family="Times,serif" font-size="9.00" fill="#000000">E1</text>
</g>
<!-- E0&#45;&gt;E1 -->
<!-- E1&#45;&gt;E2 -->
<!-- E2&#45;&gt;E3 -->
<!-- E3&#45;&gt;E4 -->
<!-- E4&#45;&gt;E5 -->
<!-- E6 -->
<g id="node10" class="node">
<title>E6</title>
<ellipse fill="#87cefa" stroke="#000000" cx="348.383" cy="-18.383" rx="18.2668" ry="18.2668"/>
<text text-anchor="middle" x="348.383" y="-15.683" font-family="Times,serif" font-size="9.00" fill="#000000">E6</text>
</g>
<!-- E5&#45;&gt;E6 -->
<!-- E6&#45;&gt;E7 -->
<!-- E7&#45;&gt;E8 -->
</g>
</svg>
