<?xml version="1.0" encoding="UTF-8" standalone="no"?>
<!DOCTYPE svg PUBLIC "-//W3C//DTD SVG 1.1//EN"
 "http://www.w3.org/Graphics/SVG/1.1/DTD/svg11.dtd">
<!-- Generated by graphviz version 2.40.1 (20161225.0304)
 -->
<!-- Title: %3 Pages: 1 -->
<svg width="386pt" height="91pt"
 viewBox="0.00 0.00 386.00 90.71" xmlns="http://www.w3.org/2000/svg" xmlns:xlink="http://www.w3.org/1999/xlink">
<g id="graph0" class="graph" transform="scale(1 1) rotate(0) translate(4 86.7061)">
<title>%3</title>
<polygon fill="#ffffff" stroke="transparent" points="-4,4 -4,-86.7061 381.9976,-86.7061 381.9976,4 -4,4"/>
<!-- E0 -->
<g id="node1" class="node">
<title>E0</title>
<polygon fill="#d3d3d3" stroke="#000000" points="25.9963,-82.7061 .0012,-82.7061 .0012,-65.7061 25.9963,-65.7061 25.9963,-82.7061"/>
<text text-anchor="middle" x="12.9988" y="-71.5061" font-family="Times,serif" font-size="9.00" fill="#000000">E0</text>
</g>
<!-- E1 -->
<g id="node2" class="node">
<title>E1</title>
<polygon fill="#d3d3d3" stroke="#000000" points="69.9963,-82.7061 44.0012,-82.7061 44.0012,-65.7061 69.9963,-65.7061 69.9963,-82.7061"/>
<text text-anchor="middle" x="56.9988" y="-71.5061" font-family="Times,serif" font-size="9.00" fill="#000000">E1</text>
</g>
<!-- E0&#45;&gt;E1 -->
<!-- 2 -->
<g id="node12" class="node">
<title>2</title>
<ellipse fill="#87cefa" stroke="#000000" cx="191.9988" cy="-14.853" rx="14.4914" ry="14.4914"/>
<text text-anchor="middle" x="191.9988" y="-12.153" font-family="Times,serif" font-size="9.00" fill="#000000">2</text>
</g>
<!-- E0&#45;&gt;2 -->
<g id="edge13" class="edge">
<title>E0&#45;&gt;2</title>
<path fill="none" stroke="#ff0000" stroke-width=".968" d="M26.4149,-68.7671C29.2311,-67.6975 32.1971,-66.6237 34.9988,-65.7061 93.195,-46.645 111.8179,-54.0748 167.9988,-29.7061 168.8641,-29.3307 169.7351,-28.9278 170.6058,-28.5037"/>
<polygon fill="#ff0000" stroke="#ff0000" stroke-width=".968" points="172.6519,-31.3694 179.6679,-23.4305 169.2325,-25.2614 172.6519,-31.3694"/>
</g>
<!-- E2 -->
<g id="node3" class="node">
<title>E2</title>
<polygon fill="#d3d3d3" stroke="#000000" points="113.9963,-82.7061 88.0012,-82.7061 88.0012,-65.7061 113.9963,-65.7061 113.9963,-82.7061"/>
<text text-anchor="middle" x="100.9988" y="-71.5061" font-family="Times,serif" font-size="9.00" fill="#000000">E2</text>
</g>
<!-- E1&#45;&gt;E2 -->
<!-- E3 -->
<g id="node4" class="node">
<title>E3</title>
<polygon fill="#d3d3d3" stroke="#000000" points="157.9963,-82.7061 132.0012,-82.7061 132.0012,-65.7061 157.9963,-65.7061 157.9963,-82.7061"/>
<text text-anchor="middle" x="144.9988" y="-71.5061" font-family="Times,serif" font-size="9.00" fill="#000000">E3</text>
</g>
<!-- E2&#45;&gt;E3 -->
<!-- E4 -->
<g id="node5" class="node">
<title>E4</title>
<polygon fill="#d3d3d3" stroke="#000000" points="201.9963,-82.7061 176.0012,-82.7061 176.0012,-65.7061 201.9963,-65.7061 201.9963,-82.7061"/>
<text text-anchor="middle" x="188.9988" y="-71.5061" font-family="Times,serif" font-size="9.00" fill="#000000">E4</text>
</g>
<!-- E3&#45;&gt;E4 -->
<!-- 1 -->
<g id="node11" class="node">
<title>1</title>
<ellipse fill="#87cefa" stroke="#000000" cx="144.9988" cy="-14.853" rx="14.4914" ry="14.4914"/>
<text text-anchor="middle" x="144.9988" y="-12.153" font-family="Times,serif" font-size="9.00" fill="#000000">1</text>
</g>
<!-- E3&#45;&gt;1 -->
<g id="edge15" class="edge">
<title>E3&#45;&gt;1</title>
<path fill="none" stroke="#00ff00" stroke-width="1.3927" d="M144.9988,-65.7022C144.9988,-58.9749 144.9988,-49.2187 144.9988,-40.0472"/>
<polygon fill="#00ff00" stroke="#00ff00" stroke-width="1.3927" points="148.4989,-39.7656 144.9988,-29.7657 141.4989,-39.7657 148.4989,-39.7656"/>
</g>
<!-- S -->
<g id="node13" class="node">
<title>S</title>
<ellipse fill="#87cefa" stroke="#000000" cx="238.9988" cy="-14.853" rx="14.7075" ry="14.7075"/>
<text text-anchor="middle" x="238.9988" y="-12.153" font-family="Times,serif" font-size="9.00" fill="#000000">S</text>
</g>
<!-- E3&#45;&gt;S -->
<g id="edge18" class="edge">
<title>E3&#45;&gt;S</title>
<path fill="none" stroke="#00ff00" stroke-width=".2084" d="M158.0691,-65.9533C173.5187,-56.1982 199.4419,-39.8299 217.7811,-28.2502"/>
<polygon fill="#00ff00" stroke="#00ff00" stroke-width=".2084" points="219.7529,-31.1445 226.3398,-22.8461 216.0157,-25.2256 219.7529,-31.1445"/>
</g>
<!-- E5 -->
<g id="node6" class="node">
<title>E5</title>
<polygon fill="#d3d3d3" stroke="#000000" points="245.9963,-82.7061 220.0012,-82.7061 220.0012,-65.7061 245.9963,-65.7061 245.9963,-82.7061"/>
<text text-anchor="middle" x="232.9988" y="-71.5061" font-family="Times,serif" font-size="9.00" fill="#000000">E5</text>
</g>
<!-- E4&#45;&gt;E5 -->
<!-- E6 -->
<g id="node7" class="node">
<title>E6</title>
<polygon fill="#d3d3d3" stroke="#000000" points="289.9963,-82.7061 264.0012,-82.7061 264.0012,-65.7061 289.9963,-65.7061 289.9963,-82.7061"/>
<text text-anchor="middle" x="276.9988" y="-71.5061" font-family="Times,serif" font-size="9.00" fill="#000000">E6</text>
</g>
<!-- E5&#45;&gt;E6 -->
<!-- E5&#45;&gt;S -->
<g id="edge12" class="edge">
<title>E5&#45;&gt;S</title>
<path fill="none" stroke="#00ff00" stroke-width=".9197" d="M233.8584,-65.7022C234.5459,-58.9018 235.5462,-49.0063 236.4821,-39.7483"/>
<polygon fill="#00ff00" stroke="#00ff00" stroke-width=".9197" points="239.9676,-40.067 237.4913,-29.7657 233.0031,-39.3629 239.9676,-40.067"/>
</g>
<!-- E7 -->
<g id="node8" class="node">
<title>E7</title>
<polygon fill="#d3d3d3" stroke="#000000" points="333.9963,-82.7061 308.0012,-82.7061 308.0012,-65.7061 333.9963,-65.7061 333.9963,-82.7061"/>
<text text-anchor="middle" x="320.9988" y="-71.5061" font-family="Times,serif" font-size="9.00" fill="#000000">E7</text>
</g>
<!-- E6&#45;&gt;E7 -->
<!-- E6&#45;&gt;1 -->
<g id="edge17" class="edge">
<title>E6&#45;&gt;1</title>
<path fill="none" stroke="#00ff00" stroke-width=".1231" d="M263.7618,-69.0657C238.9597,-59.3824 186.424,-38.6126 168.9988,-29.7061 168.1589,-29.2768 167.3096,-28.8281 166.4571,-28.3653"/>
<polygon fill="#00ff00" stroke="#00ff00" stroke-width=".1231" points="167.8785,-25.1419 157.48,-23.1119 164.343,-31.1834 167.8785,-25.1419"/>
</g>
<!-- E8 -->
<g id="node9" class="node">
<title>E8</title>
<polygon fill="#d3d3d3" stroke="#000000" points="377.9963,-82.7061 352.0012,-82.7061 352.0012,-65.7061 377.9963,-65.7061 377.9963,-82.7061"/>
<text text-anchor="middle" x="364.9988" y="-71.5061" font-family="Times,serif" font-size="9.00" fill="#000000">E8</text>
</g>
<!-- E7&#45;&gt;E8 -->
<!-- 0 -->
<g id="node10" class="node">
<title>0</title>
<ellipse fill="#87cefa" stroke="#000000" cx="97.9988" cy="-14.853" rx="14.4914" ry="14.4914"/>
<text text-anchor="middle" x="97.9988" y="-12.153" font-family="Times,serif" font-size="9.00" fill="#000000">0</text>
</g>
<!-- E7&#45;&gt;0 -->
<g id="edge14" class="edge">
<title>E7&#45;&gt;0</title>
<path fill="none" stroke="#00ff00" stroke-width=".6086" d="M307.6257,-68.6281C304.8064,-67.5686 301.8282,-66.534 298.9988,-65.7061 221.9524,-43.1606 196.6261,-59.29 121.9988,-29.7061 121.1219,-29.3585 120.2412,-28.9791 119.3622,-28.5749"/>
<polygon fill="#00ff00" stroke="#00ff00" stroke-width=".6086" points="120.7142,-25.3249 110.2616,-23.5943 117.3536,-31.4655 120.7142,-25.3249"/>
</g>
<!-- E8&#45;&gt;S -->
<g id="edge16" class="edge">
<title>E8&#45;&gt;S</title>
<path fill="none" stroke="#00ff00" stroke-width=".4167" d="M351.9891,-68.0778C330.6912,-58.0453 288.1198,-37.9918 261.7447,-25.5676"/>
<polygon fill="#00ff00" stroke="#00ff00" stroke-width=".4167" points="263.0454,-22.3115 252.5073,-21.2163 260.0623,-28.6441 263.0454,-22.3115"/>
</g>
<!-- 0&#45;&gt;1 -->
<!-- 1&#45;&gt;2 -->
<!-- 2&#45;&gt;S -->
</g>
</svg>
