<?xml version="1.0" encoding="UTF-8" standalone="no"?>
<!DOCTYPE svg PUBLIC "-//W3C//DTD SVG 1.1//EN"
 "http://www.w3.org/Graphics/SVG/1.1/DTD/svg11.dtd">
<!-- Generated by graphviz version 2.40.1 (20161225.0304)
 -->
<!-- Title: %3 Pages: 1 -->
<svg width="485pt" height="350pt"
 viewBox="0.00 0.00 484.77 350.02" xmlns="http://www.w3.org/2000/svg" xmlns:xlink="http://www.w3.org/1999/xlink">
<g id="graph0" class="graph" transform="scale(1 1) rotate(0) translate(4 346.0159)">
<title>%3</title>
<polygon fill="#ffffff" stroke="transparent" points="-4,4 -4,-346.0159 480.7661,-346.0159 480.7661,4 -4,4"/>
<!-- 0 -->
<g id="node1" class="node">
<title>0</title>
<polygon fill="#d3d3d3" stroke="#000000" points="170.389,-342.0159 150.3771,-342.0159 150.3771,-325.0159 170.389,-325.0159 170.389,-342.0159"/>
<text text-anchor="middle" x="160.383" y="-330.8159" font-family="Times,serif" font-size="9.00" fill="#000000">0</text>
</g>
<!-- 1 -->
<g id="node2" class="node">
<title>1</title>
<polygon fill="#d3d3d3" stroke="#000000" points="251.389,-342.0159 231.3771,-342.0159 231.3771,-325.0159 251.389,-325.0159 251.389,-342.0159"/>
<text text-anchor="middle" x="241.383" y="-330.8159" font-family="Times,serif" font-size="9.00" fill="#000000">1</text>
</g>
<!-- 0&#45;&gt;1 -->
<!-- E0 -->
<g id="node4" class="node">
<title>E0</title>
<ellipse fill="#87cefa" stroke="#000000" cx="18.383" cy="-18.383" rx="18.2668" ry="18.2668"/>
<text text-anchor="middle" x="18.383" y="-15.683" font-family="Times,serif" font-size="9.00" fill="#000000">E0</text>
</g>
<!-- 0&#45;&gt;E0 -->
<g id="edge11" class="edge">
<title>0&#45;&gt;E0</title>
<path fill="none" stroke="#ff0000" stroke-width="2.4711" d="M150.1134,-330.5159C133.4256,-325.0926 100.562,-312.0294 83.383,-289.0159 27.9466,-214.7516 19.0912,-99.8666 18.1366,-46.9056"/>
<polygon fill="#ff0000" stroke="#ff0000" stroke-width="2.4711" points="21.6362,-46.8403 18.0391,-36.8748 14.6365,-46.9083 21.6362,-46.8403"/>
</g>
<!-- E4 -->
<g id="node8" class="node">
<title>E4</title>
<ellipse fill="#87cefa" stroke="#000000" cx="238.383" cy="-18.383" rx="18.2668" ry="18.2668"/>
<text text-anchor="middle" x="238.383" y="-15.683" font-family="Times,serif" font-size="9.00" fill="#000000">E4</text>
</g>
<!-- 0&#45;&gt;E4 -->
<g id="edge20" class="edge">
<title>0&#45;&gt;E4</title>
<path fill="none" stroke="#ff0000" stroke-width=".6115" d="M160.4161,-324.8971C160.7042,-299.0087 162.9666,-219.8347 179.383,-156.8494 190.0658,-115.8626 210.8744,-71.2665 224.703,-44.0639"/>
<polygon fill="#ff0000" stroke="#ff0000" stroke-width=".6115" points="227.9732,-45.3592 229.4502,-34.8678 221.753,-42.1482 227.9732,-45.3592"/>
</g>
<!-- 2 -->
<g id="node3" class="node">
<title>2</title>
<polygon fill="#d3d3d3" stroke="#000000" points="290.389,-342.0159 270.3771,-342.0159 270.3771,-325.0159 290.389,-325.0159 290.389,-342.0159"/>
<text text-anchor="middle" x="280.383" y="-330.8159" font-family="Times,serif" font-size="9.00" fill="#000000">2</text>
</g>
<!-- 1&#45;&gt;2 -->
<!-- E7 -->
<g id="node11" class="node">
<title>E7</title>
<ellipse fill="#87cefa" stroke="#000000" cx="403.383" cy="-18.383" rx="18.2668" ry="18.2668"/>
<text text-anchor="middle" x="403.383" y="-15.683" font-family="Times,serif" font-size="9.00" fill="#000000">E7</text>
</g>
<!-- 1&#45;&gt;E7 -->
<g id="edge12" class="edge">
<title>1&#45;&gt;E7</title>
<path fill="none" stroke="#00ff00" stroke-width="2.2574" d="M245.6033,-324.9058C261.7685,-291.9853 321.4447,-170.9994 373.383,-72.7661 378.4703,-63.1443 384.2098,-52.6555 389.2962,-43.4792"/>
<polygon fill="#00ff00" stroke="#00ff00" stroke-width="2.2574" points="392.4985,-44.9226 394.3058,-34.483 386.3828,-41.517 392.4985,-44.9226"/>
</g>
<!-- 5167 -->
<g id="node14" class="node">
<title>5167</title>
<ellipse fill="#add8e6" stroke="#000000" cx="406.383" cy="-264.9743" rx="24.0833" ry="24.0833"/>
<text text-anchor="middle" x="406.383" y="-266.7743" font-family="Times,serif" font-size="9.00" fill="#000000">5167</text>
<text text-anchor="middle" x="406.383" y="-257.7743" font-family="Times,serif" font-size="9.00" fill="#000000">sigm</text>
</g>
<!-- 1&#45;&gt;5167 -->
<g id="edge15" class="edge">
<title>1&#45;&gt;5167</title>
<path fill="none" stroke="#ff0000" stroke-width=".1265" d="M251.5498,-329.1734C254.6991,-327.8341 258.1823,-326.3587 261.383,-325.0159 300.2089,-308.7273 344.9962,-290.2256 374.4004,-278.1179"/>
<polygon fill="#ff0000" stroke="#ff0000" stroke-width=".1265" points="375.8363,-281.3118 383.7518,-274.2694 373.1722,-274.8386 375.8363,-281.3118"/>
</g>
<!-- 5337 -->
<g id="node16" class="node">
<title>5337</title>
<ellipse fill="#add8e6" stroke="#000000" cx="212.383" cy="-180.891" rx="24.0833" ry="24.0833"/>
<text text-anchor="middle" x="212.383" y="-182.691" font-family="Times,serif" font-size="9.00" fill="#000000">5337</text>
<text text-anchor="middle" x="212.383" y="-173.691" font-family="Times,serif" font-size="9.00" fill="#000000">sigm</text>
</g>
<!-- 1&#45;&gt;5337 -->
<g id="edge17" class="edge">
<title>1&#45;&gt;5337</title>
<path fill="none" stroke="#00ff00" stroke-width=".1852" d="M239.7408,-324.8728C235.7821,-304.0385 225.5408,-250.1392 218.7734,-214.5229"/>
<polygon fill="#00ff00" stroke="#00ff00" stroke-width=".1852" points="222.1855,-213.7303 216.8802,-204.5594 215.3085,-215.037 222.1855,-213.7303"/>
</g>
<!-- E1 -->
<g id="node5" class="node">
<title>E1</title>
<ellipse fill="#87cefa" stroke="#000000" cx="73.383" cy="-18.383" rx="18.2668" ry="18.2668"/>
<text text-anchor="middle" x="73.383" y="-15.683" font-family="Times,serif" font-size="9.00" fill="#000000">E1</text>
</g>
<!-- 2&#45;&gt;E1 -->
<g id="edge22" class="edge">
<title>2&#45;&gt;E1</title>
<path fill="none" stroke="#ff0000" stroke-width=".1655" d="M272.8045,-324.8204C255.3127,-304.555 211.1878,-252.3034 179.383,-204.9326 142.2147,-149.5732 105.1987,-80.4228 86.2947,-43.8345"/>
<polygon fill="#ff0000" stroke="#ff0000" stroke-width=".1655" points="89.3562,-42.1345 81.6735,-34.8388 83.1298,-45.3331 89.3562,-42.1345"/>
</g>
<!-- E2 -->
<g id="node6" class="node">
<title>E2</title>
<ellipse fill="#87cefa" stroke="#000000" cx="128.383" cy="-18.383" rx="18.2668" ry="18.2668"/>
<text text-anchor="middle" x="128.383" y="-15.683" font-family="Times,serif" font-size="9.00" fill="#000000">E2</text>
</g>
<!-- 2&#45;&gt;E2 -->
<g id="edge13" class="edge">
<title>2&#45;&gt;E2</title>
<path fill="none" stroke="#ff0000" stroke-width="1.9852" d="M280.1843,-324.9465C279.2676,-298.5375 274.1304,-216.5782 245.383,-156.8494 221.8815,-108.0198 177.0637,-62.2343 150.2367,-37.4884"/>
<polygon fill="#ff0000" stroke="#ff0000" stroke-width="1.9852" points="152.2918,-34.6273 142.5322,-30.504 147.5903,-39.8135 152.2918,-34.6273"/>
</g>
<!-- E0&#45;&gt;E1 -->
<!-- E1&#45;&gt;E2 -->
<!-- E3 -->
<g id="node7" class="node">
<title>E3</title>
<ellipse fill="#87cefa" stroke="#000000" cx="183.383" cy="-18.383" rx="18.2668" ry="18.2668"/>
<text text-anchor="middle" x="183.383" y="-15.683" font-family="Times,serif" font-size="9.00" fill="#000000">E3</text>
</g>
<!-- E2&#45;&gt;E3 -->
<!-- E3&#45;&gt;E4 -->
<!-- E5 -->
<g id="node9" class="node">
<title>E5</title>
<ellipse fill="#87cefa" stroke="#000000" cx="293.383" cy="-18.383" rx="18.2668" ry="18.2668"/>
<text text-anchor="middle" x="293.383" y="-15.683" font-family="Times,serif" font-size="9.00" fill="#000000">E5</text>
</g>
<!-- E4&#45;&gt;E5 -->
<!-- E6 -->
<g id="node10" class="node">
<title>E6</title>
<ellipse fill="#87cefa" stroke="#000000" cx="348.383" cy="-18.383" rx="18.2668" ry="18.2668"/>
<text text-anchor="middle" x="348.383" y="-15.683" font-family="Times,serif" font-size="9.00" fill="#000000">E6</text>
</g>
<!-- E5&#45;&gt;E6 -->
<!-- E6&#45;&gt;E7 -->
<!-- E8 -->
<g id="node12" class="node">
<title>E8</title>
<ellipse fill="#87cefa" stroke="#000000" cx="458.383" cy="-18.383" rx="18.2668" ry="18.2668"/>
<text text-anchor="middle" x="458.383" y="-15.683" font-family="Times,serif" font-size="9.00" fill="#000000">E8</text>
</g>
<!-- E7&#45;&gt;E8 -->
<!-- 2282 -->
<g id="node13" class="node">
<title>2282</title>
<ellipse fill="#add8e6" stroke="#000000" cx="302.383" cy="-96.8077" rx="24.0833" ry="24.0833"/>
<text text-anchor="middle" x="302.383" y="-98.6077" font-family="Times,serif" font-size="9.00" fill="#000000">2282</text>
<text text-anchor="middle" x="302.383" y="-89.6077" font-family="Times,serif" font-size="9.00" fill="#000000">sigm</text>
</g>
<!-- 2282&#45;&gt;E6 -->
<g id="edge18" class="edge">
<title>2282&#45;&gt;E6</title>
<path fill="none" stroke="#ff0000" stroke-width=".2815" d="M314.7102,-75.7914C320.597,-65.755 327.6825,-53.6752 333.832,-43.1909"/>
<polygon fill="#ff0000" stroke="#ff0000" stroke-width=".2815" points="336.9011,-44.8763 338.9415,-34.4797 330.8631,-41.3346 336.9011,-44.8763"/>
</g>
<!-- 5167&#45;&gt;E8 -->
<g id="edge16" class="edge">
<title>5167&#45;&gt;E8</title>
<path fill="none" stroke="#ff0000" stroke-width=".1216" d="M419.9888,-245.0495C426.989,-233.7756 434.9604,-219.1278 439.383,-204.9326 456.2168,-150.9013 458.9496,-84.2285 458.9699,-46.9982"/>
<polygon fill="#ff0000" stroke="#ff0000" stroke-width=".1216" points="462.4691,-46.8522 458.9075,-36.874 455.4693,-46.8954 462.4691,-46.8522"/>
</g>
<!-- 3991 -->
<g id="node15" class="node">
<title>3991</title>
<ellipse fill="#add8e6" stroke="#000000" cx="406.383" cy="-180.891" rx="24.0833" ry="24.0833"/>
<text text-anchor="middle" x="406.383" y="-182.691" font-family="Times,serif" font-size="9.00" fill="#000000">3991</text>
<text text-anchor="middle" x="406.383" y="-173.691" font-family="Times,serif" font-size="9.00" fill="#000000">sigm</text>
</g>
<!-- 5167&#45;&gt;3991 -->
<g id="edge19" class="edge">
<title>5167&#45;&gt;3991</title>
<path fill="none" stroke="#ff0000" stroke-width=".1217" d="M406.383,-240.6539C406.383,-232.7231 406.383,-223.7624 406.383,-215.2386"/>
<polygon fill="#ff0000" stroke="#ff0000" stroke-width=".1217" points="409.8831,-215.1567 406.383,-205.1567 402.8831,-215.1567 409.8831,-215.1567"/>
</g>
<!-- 3677 -->
<g id="node17" class="node">
<title>3677</title>
<ellipse fill="#add8e6" stroke="#000000" cx="406.383" cy="-96.8077" rx="24.0833" ry="24.0833"/>
<text text-anchor="middle" x="406.383" y="-98.6077" font-family="Times,serif" font-size="9.00" fill="#000000">3677</text>
<text text-anchor="middle" x="406.383" y="-89.6077" font-family="Times,serif" font-size="9.00" fill="#000000">sigm</text>
</g>
<!-- 3991&#45;&gt;3677 -->
<g id="edge14" class="edge">
<title>3991&#45;&gt;3677</title>
<path fill="none" stroke="#ff0000" stroke-width=".1129" d="M406.383,-156.5706C406.383,-148.6398 406.383,-139.6791 406.383,-131.1553"/>
<polygon fill="#ff0000" stroke="#ff0000" stroke-width=".1129" points="409.8831,-131.0734 406.383,-121.0734 402.8831,-131.0735 409.8831,-131.0734"/>
</g>
<!-- 5337&#45;&gt;E4 -->
<g id="edge21" class="edge">
<title>5337&#45;&gt;E4</title>
<path fill="none" stroke="#00ff00" stroke-width=".1127" d="M216.2194,-156.9124C220.8947,-127.6906 228.7872,-78.3599 233.7838,-47.13"/>
<polygon fill="#00ff00" stroke="#00ff00" stroke-width=".1127" points="237.2964,-47.3285 235.4203,-36.9011 230.3843,-46.2226 237.2964,-47.3285"/>
</g>
<!-- 3677&#45;&gt;E7 -->
<g id="edge23" class="edge">
<title>3677&#45;&gt;E7</title>
<path fill="none" stroke="#00ff00" stroke-width=".1777" d="M405.4503,-72.4236C405.1407,-64.33 404.7933,-55.248 404.4729,-46.8729"/>
<polygon fill="#00ff00" stroke="#00ff00" stroke-width=".1777" points="407.9662,-46.629 404.0864,-36.7702 400.9713,-46.8967 407.9662,-46.629"/>
</g>
</g>
</svg>
