<?xml version="1.0" encoding="utf-8" standalone="no"?>
<!DOCTYPE svg PUBLIC "-//W3C//DTD SVG 1.1//EN"
  "http://www.w3.org/Graphics/SVG/1.1/DTD/svg11.dtd">
<!-- Created with matplotlib (https://matplotlib.org/) -->
<svg height="345.6pt" version="1.1" viewBox="0 0 460.8 345.6" width="460.8pt" xmlns="http://www.w3.org/2000/svg" xmlns:xlink="http://www.w3.org/1999/xlink">
 <defs>
  <style type="text/css">
*{stroke-linecap:butt;stroke-linejoin:round;}
  </style>
 </defs>
 <g id="figure_1">
  <g id="patch_1">
   <path d="M 0 345.6 
L 460.8 345.6 
L 460.8 0 
L 0 0 
z
" style="fill:#ffffff;"/>
  </g>
  <g id="axes_1">
   <g id="patch_2">
    <path d="M 57.6 307.584 
L 414.72 307.584 
L 414.72 41.472 
L 57.6 41.472 
z
" style="fill:#ffffff;"/>
   </g>
   <g id="matplotlib.axis_1">
    <g id="xtick_1">
     <g id="line2d_1">
      <path clip-path="url(#pb84c98b9c9)" d="M 73.832727 307.584 
L 73.832727 41.472 
" style="fill:none;stroke:#b0b0b0;stroke-linecap:square;stroke-width:0.8;"/>
     </g>
     <g id="line2d_2">
      <defs>
       <path d="M 0 0 
L 0 3.5 
" id="ma03359a7c6" style="stroke:#000000;stroke-width:0.8;"/>
      </defs>
      <g>
       <use style="stroke:#000000;stroke-width:0.8;" x="73.832727" xlink:href="#ma03359a7c6" y="307.584"/>
      </g>
     </g>
     <g id="text_1">
      <!-- 0 -->
      <defs>
       <path d="M 31.78125 66.40625 
Q 24.171875 66.40625 20.328125 58.90625 
Q 16.5 51.421875 16.5 36.375 
Q 16.5 21.390625 20.328125 13.890625 
Q 24.171875 6.390625 31.78125 6.390625 
Q 39.453125 6.390625 43.28125 13.890625 
Q 47.125 21.390625 47.125 36.375 
Q 47.125 51.421875 43.28125 58.90625 
Q 39.453125 66.40625 31.78125 66.40625 
z
M 31.78125 74.21875 
Q 44.046875 74.21875 50.515625 64.515625 
Q 56.984375 54.828125 56.984375 36.375 
Q 56.984375 17.96875 50.515625 8.265625 
Q 44.046875 -1.421875 31.78125 -1.421875 
Q 19.53125 -1.421875 13.0625 8.265625 
Q 6.59375 17.96875 6.59375 36.375 
Q 6.59375 54.828125 13.0625 64.515625 
Q 19.53125 74.21875 31.78125 74.21875 
z
" id="DejaVuSans-48"/>
      </defs>
      <g transform="translate(70.651477 322.182437)scale(0.1 -0.1)">
       <use xlink:href="#DejaVuSans-48"/>
      </g>
     </g>
    </g>
    <g id="xtick_2">
     <g id="line2d_3">
      <path clip-path="url(#pb84c98b9c9)" d="M 128.122785 307.584 
L 128.122785 41.472 
" style="fill:none;stroke:#b0b0b0;stroke-linecap:square;stroke-width:0.8;"/>
     </g>
     <g id="line2d_4">
      <g>
       <use style="stroke:#000000;stroke-width:0.8;" x="128.122785" xlink:href="#ma03359a7c6" y="307.584"/>
      </g>
     </g>
     <g id="text_2">
      <!-- 50 -->
      <defs>
       <path d="M 10.796875 72.90625 
L 49.515625 72.90625 
L 49.515625 64.59375 
L 19.828125 64.59375 
L 19.828125 46.734375 
Q 21.96875 47.46875 24.109375 47.828125 
Q 26.265625 48.1875 28.421875 48.1875 
Q 40.625 48.1875 47.75 41.5 
Q 54.890625 34.8125 54.890625 23.390625 
Q 54.890625 11.625 47.5625 5.09375 
Q 40.234375 -1.421875 26.90625 -1.421875 
Q 22.3125 -1.421875 17.546875 -0.640625 
Q 12.796875 0.140625 7.71875 1.703125 
L 7.71875 11.625 
Q 12.109375 9.234375 16.796875 8.0625 
Q 21.484375 6.890625 26.703125 6.890625 
Q 35.15625 6.890625 40.078125 11.328125 
Q 45.015625 15.765625 45.015625 23.390625 
Q 45.015625 31 40.078125 35.4375 
Q 35.15625 39.890625 26.703125 39.890625 
Q 22.75 39.890625 18.8125 39.015625 
Q 14.890625 38.140625 10.796875 36.28125 
z
" id="DejaVuSans-53"/>
      </defs>
      <g transform="translate(121.760285 322.182437)scale(0.1 -0.1)">
       <use xlink:href="#DejaVuSans-53"/>
       <use x="63.623047" xlink:href="#DejaVuSans-48"/>
      </g>
     </g>
    </g>
    <g id="xtick_3">
     <g id="line2d_5">
      <path clip-path="url(#pb84c98b9c9)" d="M 182.412843 307.584 
L 182.412843 41.472 
" style="fill:none;stroke:#b0b0b0;stroke-linecap:square;stroke-width:0.8;"/>
     </g>
     <g id="line2d_6">
      <g>
       <use style="stroke:#000000;stroke-width:0.8;" x="182.412843" xlink:href="#ma03359a7c6" y="307.584"/>
      </g>
     </g>
     <g id="text_3">
      <!-- 100 -->
      <defs>
       <path d="M 12.40625 8.296875 
L 28.515625 8.296875 
L 28.515625 63.921875 
L 10.984375 60.40625 
L 10.984375 69.390625 
L 28.421875 72.90625 
L 38.28125 72.90625 
L 38.28125 8.296875 
L 54.390625 8.296875 
L 54.390625 0 
L 12.40625 0 
z
" id="DejaVuSans-49"/>
      </defs>
      <g transform="translate(172.869093 322.182437)scale(0.1 -0.1)">
       <use xlink:href="#DejaVuSans-49"/>
       <use x="63.623047" xlink:href="#DejaVuSans-48"/>
       <use x="127.246094" xlink:href="#DejaVuSans-48"/>
      </g>
     </g>
    </g>
    <g id="xtick_4">
     <g id="line2d_7">
      <path clip-path="url(#pb84c98b9c9)" d="M 236.702901 307.584 
L 236.702901 41.472 
" style="fill:none;stroke:#b0b0b0;stroke-linecap:square;stroke-width:0.8;"/>
     </g>
     <g id="line2d_8">
      <g>
       <use style="stroke:#000000;stroke-width:0.8;" x="236.702901" xlink:href="#ma03359a7c6" y="307.584"/>
      </g>
     </g>
     <g id="text_4">
      <!-- 150 -->
      <g transform="translate(227.159151 322.182437)scale(0.1 -0.1)">
       <use xlink:href="#DejaVuSans-49"/>
       <use x="63.623047" xlink:href="#DejaVuSans-53"/>
       <use x="127.246094" xlink:href="#DejaVuSans-48"/>
      </g>
     </g>
    </g>
    <g id="xtick_5">
     <g id="line2d_9">
      <path clip-path="url(#pb84c98b9c9)" d="M 290.992958 307.584 
L 290.992958 41.472 
" style="fill:none;stroke:#b0b0b0;stroke-linecap:square;stroke-width:0.8;"/>
     </g>
     <g id="line2d_10">
      <g>
       <use style="stroke:#000000;stroke-width:0.8;" x="290.992958" xlink:href="#ma03359a7c6" y="307.584"/>
      </g>
     </g>
     <g id="text_5">
      <!-- 200 -->
      <defs>
       <path d="M 19.1875 8.296875 
L 53.609375 8.296875 
L 53.609375 0 
L 7.328125 0 
L 7.328125 8.296875 
Q 12.9375 14.109375 22.625 23.890625 
Q 32.328125 33.6875 34.8125 36.53125 
Q 39.546875 41.84375 41.421875 45.53125 
Q 43.3125 49.21875 43.3125 52.78125 
Q 43.3125 58.59375 39.234375 62.25 
Q 35.15625 65.921875 28.609375 65.921875 
Q 23.96875 65.921875 18.8125 64.3125 
Q 13.671875 62.703125 7.8125 59.421875 
L 7.8125 69.390625 
Q 13.765625 71.78125 18.9375 73 
Q 24.125 74.21875 28.421875 74.21875 
Q 39.75 74.21875 46.484375 68.546875 
Q 53.21875 62.890625 53.21875 53.421875 
Q 53.21875 48.921875 51.53125 44.890625 
Q 49.859375 40.875 45.40625 35.40625 
Q 44.1875 33.984375 37.640625 27.21875 
Q 31.109375 20.453125 19.1875 8.296875 
z
" id="DejaVuSans-50"/>
      </defs>
      <g transform="translate(281.449208 322.182437)scale(0.1 -0.1)">
       <use xlink:href="#DejaVuSans-50"/>
       <use x="63.623047" xlink:href="#DejaVuSans-48"/>
       <use x="127.246094" xlink:href="#DejaVuSans-48"/>
      </g>
     </g>
    </g>
    <g id="xtick_6">
     <g id="line2d_11">
      <path clip-path="url(#pb84c98b9c9)" d="M 345.283016 307.584 
L 345.283016 41.472 
" style="fill:none;stroke:#b0b0b0;stroke-linecap:square;stroke-width:0.8;"/>
     </g>
     <g id="line2d_12">
      <g>
       <use style="stroke:#000000;stroke-width:0.8;" x="345.283016" xlink:href="#ma03359a7c6" y="307.584"/>
      </g>
     </g>
     <g id="text_6">
      <!-- 250 -->
      <g transform="translate(335.739266 322.182437)scale(0.1 -0.1)">
       <use xlink:href="#DejaVuSans-50"/>
       <use x="63.623047" xlink:href="#DejaVuSans-53"/>
       <use x="127.246094" xlink:href="#DejaVuSans-48"/>
      </g>
     </g>
    </g>
    <g id="xtick_7">
     <g id="line2d_13">
      <path clip-path="url(#pb84c98b9c9)" d="M 399.573074 307.584 
L 399.573074 41.472 
" style="fill:none;stroke:#b0b0b0;stroke-linecap:square;stroke-width:0.8;"/>
     </g>
     <g id="line2d_14">
      <g>
       <use style="stroke:#000000;stroke-width:0.8;" x="399.573074" xlink:href="#ma03359a7c6" y="307.584"/>
      </g>
     </g>
     <g id="text_7">
      <!-- 300 -->
      <defs>
       <path d="M 40.578125 39.3125 
Q 47.65625 37.796875 51.625 33 
Q 55.609375 28.21875 55.609375 21.1875 
Q 55.609375 10.40625 48.1875 4.484375 
Q 40.765625 -1.421875 27.09375 -1.421875 
Q 22.515625 -1.421875 17.65625 -0.515625 
Q 12.796875 0.390625 7.625 2.203125 
L 7.625 11.71875 
Q 11.71875 9.328125 16.59375 8.109375 
Q 21.484375 6.890625 26.8125 6.890625 
Q 36.078125 6.890625 40.9375 10.546875 
Q 45.796875 14.203125 45.796875 21.1875 
Q 45.796875 27.640625 41.28125 31.265625 
Q 36.765625 34.90625 28.71875 34.90625 
L 20.21875 34.90625 
L 20.21875 43.015625 
L 29.109375 43.015625 
Q 36.375 43.015625 40.234375 45.921875 
Q 44.09375 48.828125 44.09375 54.296875 
Q 44.09375 59.90625 40.109375 62.90625 
Q 36.140625 65.921875 28.71875 65.921875 
Q 24.65625 65.921875 20.015625 65.03125 
Q 15.375 64.15625 9.8125 62.3125 
L 9.8125 71.09375 
Q 15.4375 72.65625 20.34375 73.4375 
Q 25.25 74.21875 29.59375 74.21875 
Q 40.828125 74.21875 47.359375 69.109375 
Q 53.90625 64.015625 53.90625 55.328125 
Q 53.90625 49.265625 50.4375 45.09375 
Q 46.96875 40.921875 40.578125 39.3125 
z
" id="DejaVuSans-51"/>
      </defs>
      <g transform="translate(390.029324 322.182437)scale(0.1 -0.1)">
       <use xlink:href="#DejaVuSans-51"/>
       <use x="63.623047" xlink:href="#DejaVuSans-48"/>
       <use x="127.246094" xlink:href="#DejaVuSans-48"/>
      </g>
     </g>
    </g>
    <g id="text_8">
     <!-- Generations -->
     <defs>
      <path d="M 59.515625 10.40625 
L 59.515625 29.984375 
L 43.40625 29.984375 
L 43.40625 38.09375 
L 69.28125 38.09375 
L 69.28125 6.78125 
Q 63.578125 2.734375 56.6875 0.65625 
Q 49.8125 -1.421875 42 -1.421875 
Q 24.90625 -1.421875 15.25 8.5625 
Q 5.609375 18.5625 5.609375 36.375 
Q 5.609375 54.25 15.25 64.234375 
Q 24.90625 74.21875 42 74.21875 
Q 49.125 74.21875 55.546875 72.453125 
Q 61.96875 70.703125 67.390625 67.28125 
L 67.390625 56.78125 
Q 61.921875 61.421875 55.765625 63.765625 
Q 49.609375 66.109375 42.828125 66.109375 
Q 29.4375 66.109375 22.71875 58.640625 
Q 16.015625 51.171875 16.015625 36.375 
Q 16.015625 21.625 22.71875 14.15625 
Q 29.4375 6.6875 42.828125 6.6875 
Q 48.046875 6.6875 52.140625 7.59375 
Q 56.25 8.5 59.515625 10.40625 
z
" id="DejaVuSans-71"/>
      <path d="M 56.203125 29.59375 
L 56.203125 25.203125 
L 14.890625 25.203125 
Q 15.484375 15.921875 20.484375 11.0625 
Q 25.484375 6.203125 34.421875 6.203125 
Q 39.59375 6.203125 44.453125 7.46875 
Q 49.3125 8.734375 54.109375 11.28125 
L 54.109375 2.78125 
Q 49.265625 0.734375 44.1875 -0.34375 
Q 39.109375 -1.421875 33.890625 -1.421875 
Q 20.796875 -1.421875 13.15625 6.1875 
Q 5.515625 13.8125 5.515625 26.8125 
Q 5.515625 40.234375 12.765625 48.109375 
Q 20.015625 56 32.328125 56 
Q 43.359375 56 49.78125 48.890625 
Q 56.203125 41.796875 56.203125 29.59375 
z
M 47.21875 32.234375 
Q 47.125 39.59375 43.09375 43.984375 
Q 39.0625 48.390625 32.421875 48.390625 
Q 24.90625 48.390625 20.390625 44.140625 
Q 15.875 39.890625 15.1875 32.171875 
z
" id="DejaVuSans-101"/>
      <path d="M 54.890625 33.015625 
L 54.890625 0 
L 45.90625 0 
L 45.90625 32.71875 
Q 45.90625 40.484375 42.875 44.328125 
Q 39.84375 48.1875 33.796875 48.1875 
Q 26.515625 48.1875 22.3125 43.546875 
Q 18.109375 38.921875 18.109375 30.90625 
L 18.109375 0 
L 9.078125 0 
L 9.078125 54.6875 
L 18.109375 54.6875 
L 18.109375 46.1875 
Q 21.34375 51.125 25.703125 53.5625 
Q 30.078125 56 35.796875 56 
Q 45.21875 56 50.046875 50.171875 
Q 54.890625 44.34375 54.890625 33.015625 
z
" id="DejaVuSans-110"/>
      <path d="M 41.109375 46.296875 
Q 39.59375 47.171875 37.8125 47.578125 
Q 36.03125 48 33.890625 48 
Q 26.265625 48 22.1875 43.046875 
Q 18.109375 38.09375 18.109375 28.8125 
L 18.109375 0 
L 9.078125 0 
L 9.078125 54.6875 
L 18.109375 54.6875 
L 18.109375 46.1875 
Q 20.953125 51.171875 25.484375 53.578125 
Q 30.03125 56 36.53125 56 
Q 37.453125 56 38.578125 55.875 
Q 39.703125 55.765625 41.0625 55.515625 
z
" id="DejaVuSans-114"/>
      <path d="M 34.28125 27.484375 
Q 23.390625 27.484375 19.1875 25 
Q 14.984375 22.515625 14.984375 16.5 
Q 14.984375 11.71875 18.140625 8.90625 
Q 21.296875 6.109375 26.703125 6.109375 
Q 34.1875 6.109375 38.703125 11.40625 
Q 43.21875 16.703125 43.21875 25.484375 
L 43.21875 27.484375 
z
M 52.203125 31.203125 
L 52.203125 0 
L 43.21875 0 
L 43.21875 8.296875 
Q 40.140625 3.328125 35.546875 0.953125 
Q 30.953125 -1.421875 24.3125 -1.421875 
Q 15.921875 -1.421875 10.953125 3.296875 
Q 6 8.015625 6 15.921875 
Q 6 25.140625 12.171875 29.828125 
Q 18.359375 34.515625 30.609375 34.515625 
L 43.21875 34.515625 
L 43.21875 35.40625 
Q 43.21875 41.609375 39.140625 45 
Q 35.0625 48.390625 27.6875 48.390625 
Q 23 48.390625 18.546875 47.265625 
Q 14.109375 46.140625 10.015625 43.890625 
L 10.015625 52.203125 
Q 14.9375 54.109375 19.578125 55.046875 
Q 24.21875 56 28.609375 56 
Q 40.484375 56 46.34375 49.84375 
Q 52.203125 43.703125 52.203125 31.203125 
z
" id="DejaVuSans-97"/>
      <path d="M 18.3125 70.21875 
L 18.3125 54.6875 
L 36.8125 54.6875 
L 36.8125 47.703125 
L 18.3125 47.703125 
L 18.3125 18.015625 
Q 18.3125 11.328125 20.140625 9.421875 
Q 21.96875 7.515625 27.59375 7.515625 
L 36.8125 7.515625 
L 36.8125 0 
L 27.59375 0 
Q 17.1875 0 13.234375 3.875 
Q 9.28125 7.765625 9.28125 18.015625 
L 9.28125 47.703125 
L 2.6875 47.703125 
L 2.6875 54.6875 
L 9.28125 54.6875 
L 9.28125 70.21875 
z
" id="DejaVuSans-116"/>
      <path d="M 9.421875 54.6875 
L 18.40625 54.6875 
L 18.40625 0 
L 9.421875 0 
z
M 9.421875 75.984375 
L 18.40625 75.984375 
L 18.40625 64.59375 
L 9.421875 64.59375 
z
" id="DejaVuSans-105"/>
      <path d="M 30.609375 48.390625 
Q 23.390625 48.390625 19.1875 42.75 
Q 14.984375 37.109375 14.984375 27.296875 
Q 14.984375 17.484375 19.15625 11.84375 
Q 23.34375 6.203125 30.609375 6.203125 
Q 37.796875 6.203125 41.984375 11.859375 
Q 46.1875 17.53125 46.1875 27.296875 
Q 46.1875 37.015625 41.984375 42.703125 
Q 37.796875 48.390625 30.609375 48.390625 
z
M 30.609375 56 
Q 42.328125 56 49.015625 48.375 
Q 55.71875 40.765625 55.71875 27.296875 
Q 55.71875 13.875 49.015625 6.21875 
Q 42.328125 -1.421875 30.609375 -1.421875 
Q 18.84375 -1.421875 12.171875 6.21875 
Q 5.515625 13.875 5.515625 27.296875 
Q 5.515625 40.765625 12.171875 48.375 
Q 18.84375 56 30.609375 56 
z
" id="DejaVuSans-111"/>
      <path d="M 44.28125 53.078125 
L 44.28125 44.578125 
Q 40.484375 46.53125 36.375 47.5 
Q 32.28125 48.484375 27.875 48.484375 
Q 21.1875 48.484375 17.84375 46.4375 
Q 14.5 44.390625 14.5 40.28125 
Q 14.5 37.15625 16.890625 35.375 
Q 19.28125 33.59375 26.515625 31.984375 
L 29.59375 31.296875 
Q 39.15625 29.25 43.1875 25.515625 
Q 47.21875 21.78125 47.21875 15.09375 
Q 47.21875 7.46875 41.1875 3.015625 
Q 35.15625 -1.421875 24.609375 -1.421875 
Q 20.21875 -1.421875 15.453125 -0.5625 
Q 10.6875 0.296875 5.421875 2 
L 5.421875 11.28125 
Q 10.40625 8.6875 15.234375 7.390625 
Q 20.0625 6.109375 24.8125 6.109375 
Q 31.15625 6.109375 34.5625 8.28125 
Q 37.984375 10.453125 37.984375 14.40625 
Q 37.984375 18.0625 35.515625 20.015625 
Q 33.0625 21.96875 24.703125 23.78125 
L 21.578125 24.515625 
Q 13.234375 26.265625 9.515625 29.90625 
Q 5.8125 33.546875 5.8125 39.890625 
Q 5.8125 47.609375 11.28125 51.796875 
Q 16.75 56 26.8125 56 
Q 31.78125 56 36.171875 55.265625 
Q 40.578125 54.546875 44.28125 53.078125 
z
" id="DejaVuSans-115"/>
     </defs>
     <g transform="translate(205.662344 335.860562)scale(0.1 -0.1)">
      <use xlink:href="#DejaVuSans-71"/>
      <use x="77.490234" xlink:href="#DejaVuSans-101"/>
      <use x="139.013672" xlink:href="#DejaVuSans-110"/>
      <use x="202.392578" xlink:href="#DejaVuSans-101"/>
      <use x="263.916016" xlink:href="#DejaVuSans-114"/>
      <use x="305.029297" xlink:href="#DejaVuSans-97"/>
      <use x="366.308594" xlink:href="#DejaVuSans-116"/>
      <use x="405.517578" xlink:href="#DejaVuSans-105"/>
      <use x="433.300781" xlink:href="#DejaVuSans-111"/>
      <use x="494.482422" xlink:href="#DejaVuSans-110"/>
      <use x="557.861328" xlink:href="#DejaVuSans-115"/>
     </g>
    </g>
   </g>
   <g id="matplotlib.axis_2">
    <g id="ytick_1">
     <g id="line2d_15">
      <path clip-path="url(#pb84c98b9c9)" d="M 57.6 282.880164 
L 414.72 282.880164 
" style="fill:none;stroke:#b0b0b0;stroke-linecap:square;stroke-width:0.8;"/>
     </g>
     <g id="line2d_16">
      <defs>
       <path d="M 0 0 
L -3.5 0 
" id="m5a1b8b55e0" style="stroke:#000000;stroke-width:0.8;"/>
      </defs>
      <g>
       <use style="stroke:#000000;stroke-width:0.8;" x="57.6" xlink:href="#m5a1b8b55e0" y="282.880164"/>
      </g>
     </g>
     <g id="text_9">
      <!-- 600 -->
      <defs>
       <path d="M 33.015625 40.375 
Q 26.375 40.375 22.484375 35.828125 
Q 18.609375 31.296875 18.609375 23.390625 
Q 18.609375 15.53125 22.484375 10.953125 
Q 26.375 6.390625 33.015625 6.390625 
Q 39.65625 6.390625 43.53125 10.953125 
Q 47.40625 15.53125 47.40625 23.390625 
Q 47.40625 31.296875 43.53125 35.828125 
Q 39.65625 40.375 33.015625 40.375 
z
M 52.59375 71.296875 
L 52.59375 62.3125 
Q 48.875 64.0625 45.09375 64.984375 
Q 41.3125 65.921875 37.59375 65.921875 
Q 27.828125 65.921875 22.671875 59.328125 
Q 17.53125 52.734375 16.796875 39.40625 
Q 19.671875 43.65625 24.015625 45.921875 
Q 28.375 48.1875 33.59375 48.1875 
Q 44.578125 48.1875 50.953125 41.515625 
Q 57.328125 34.859375 57.328125 23.390625 
Q 57.328125 12.15625 50.6875 5.359375 
Q 44.046875 -1.421875 33.015625 -1.421875 
Q 20.359375 -1.421875 13.671875 8.265625 
Q 6.984375 17.96875 6.984375 36.375 
Q 6.984375 53.65625 15.1875 63.9375 
Q 23.390625 74.21875 37.203125 74.21875 
Q 40.921875 74.21875 44.703125 73.484375 
Q 48.484375 72.75 52.59375 71.296875 
z
" id="DejaVuSans-54"/>
      </defs>
      <g transform="translate(31.5125 286.679382)scale(0.1 -0.1)">
       <use xlink:href="#DejaVuSans-54"/>
       <use x="63.623047" xlink:href="#DejaVuSans-48"/>
       <use x="127.246094" xlink:href="#DejaVuSans-48"/>
      </g>
     </g>
    </g>
    <g id="ytick_2">
     <g id="line2d_17">
      <path clip-path="url(#pb84c98b9c9)" d="M 57.6 249.294065 
L 414.72 249.294065 
" style="fill:none;stroke:#b0b0b0;stroke-linecap:square;stroke-width:0.8;"/>
     </g>
     <g id="line2d_18">
      <g>
       <use style="stroke:#000000;stroke-width:0.8;" x="57.6" xlink:href="#m5a1b8b55e0" y="249.294065"/>
      </g>
     </g>
     <g id="text_10">
      <!-- 800 -->
      <defs>
       <path d="M 31.78125 34.625 
Q 24.75 34.625 20.71875 30.859375 
Q 16.703125 27.09375 16.703125 20.515625 
Q 16.703125 13.921875 20.71875 10.15625 
Q 24.75 6.390625 31.78125 6.390625 
Q 38.8125 6.390625 42.859375 10.171875 
Q 46.921875 13.96875 46.921875 20.515625 
Q 46.921875 27.09375 42.890625 30.859375 
Q 38.875 34.625 31.78125 34.625 
z
M 21.921875 38.8125 
Q 15.578125 40.375 12.03125 44.71875 
Q 8.5 49.078125 8.5 55.328125 
Q 8.5 64.0625 14.71875 69.140625 
Q 20.953125 74.21875 31.78125 74.21875 
Q 42.671875 74.21875 48.875 69.140625 
Q 55.078125 64.0625 55.078125 55.328125 
Q 55.078125 49.078125 51.53125 44.71875 
Q 48 40.375 41.703125 38.8125 
Q 48.828125 37.15625 52.796875 32.3125 
Q 56.78125 27.484375 56.78125 20.515625 
Q 56.78125 9.90625 50.3125 4.234375 
Q 43.84375 -1.421875 31.78125 -1.421875 
Q 19.734375 -1.421875 13.25 4.234375 
Q 6.78125 9.90625 6.78125 20.515625 
Q 6.78125 27.484375 10.78125 32.3125 
Q 14.796875 37.15625 21.921875 38.8125 
z
M 18.3125 54.390625 
Q 18.3125 48.734375 21.84375 45.5625 
Q 25.390625 42.390625 31.78125 42.390625 
Q 38.140625 42.390625 41.71875 45.5625 
Q 45.3125 48.734375 45.3125 54.390625 
Q 45.3125 60.0625 41.71875 63.234375 
Q 38.140625 66.40625 31.78125 66.40625 
Q 25.390625 66.40625 21.84375 63.234375 
Q 18.3125 60.0625 18.3125 54.390625 
z
" id="DejaVuSans-56"/>
      </defs>
      <g transform="translate(31.5125 253.093284)scale(0.1 -0.1)">
       <use xlink:href="#DejaVuSans-56"/>
       <use x="63.623047" xlink:href="#DejaVuSans-48"/>
       <use x="127.246094" xlink:href="#DejaVuSans-48"/>
      </g>
     </g>
    </g>
    <g id="ytick_3">
     <g id="line2d_19">
      <path clip-path="url(#pb84c98b9c9)" d="M 57.6 215.707967 
L 414.72 215.707967 
" style="fill:none;stroke:#b0b0b0;stroke-linecap:square;stroke-width:0.8;"/>
     </g>
     <g id="line2d_20">
      <g>
       <use style="stroke:#000000;stroke-width:0.8;" x="57.6" xlink:href="#m5a1b8b55e0" y="215.707967"/>
      </g>
     </g>
     <g id="text_11">
      <!-- 1000 -->
      <g transform="translate(25.15 219.507185)scale(0.1 -0.1)">
       <use xlink:href="#DejaVuSans-49"/>
       <use x="63.623047" xlink:href="#DejaVuSans-48"/>
       <use x="127.246094" xlink:href="#DejaVuSans-48"/>
       <use x="190.869141" xlink:href="#DejaVuSans-48"/>
      </g>
     </g>
    </g>
    <g id="ytick_4">
     <g id="line2d_21">
      <path clip-path="url(#pb84c98b9c9)" d="M 57.6 182.121868 
L 414.72 182.121868 
" style="fill:none;stroke:#b0b0b0;stroke-linecap:square;stroke-width:0.8;"/>
     </g>
     <g id="line2d_22">
      <g>
       <use style="stroke:#000000;stroke-width:0.8;" x="57.6" xlink:href="#m5a1b8b55e0" y="182.121868"/>
      </g>
     </g>
     <g id="text_12">
      <!-- 1200 -->
      <g transform="translate(25.15 185.921087)scale(0.1 -0.1)">
       <use xlink:href="#DejaVuSans-49"/>
       <use x="63.623047" xlink:href="#DejaVuSans-50"/>
       <use x="127.246094" xlink:href="#DejaVuSans-48"/>
       <use x="190.869141" xlink:href="#DejaVuSans-48"/>
      </g>
     </g>
    </g>
    <g id="ytick_5">
     <g id="line2d_23">
      <path clip-path="url(#pb84c98b9c9)" d="M 57.6 148.53577 
L 414.72 148.53577 
" style="fill:none;stroke:#b0b0b0;stroke-linecap:square;stroke-width:0.8;"/>
     </g>
     <g id="line2d_24">
      <g>
       <use style="stroke:#000000;stroke-width:0.8;" x="57.6" xlink:href="#m5a1b8b55e0" y="148.53577"/>
      </g>
     </g>
     <g id="text_13">
      <!-- 1400 -->
      <defs>
       <path d="M 37.796875 64.3125 
L 12.890625 25.390625 
L 37.796875 25.390625 
z
M 35.203125 72.90625 
L 47.609375 72.90625 
L 47.609375 25.390625 
L 58.015625 25.390625 
L 58.015625 17.1875 
L 47.609375 17.1875 
L 47.609375 0 
L 37.796875 0 
L 37.796875 17.1875 
L 4.890625 17.1875 
L 4.890625 26.703125 
z
" id="DejaVuSans-52"/>
      </defs>
      <g transform="translate(25.15 152.334989)scale(0.1 -0.1)">
       <use xlink:href="#DejaVuSans-49"/>
       <use x="63.623047" xlink:href="#DejaVuSans-52"/>
       <use x="127.246094" xlink:href="#DejaVuSans-48"/>
       <use x="190.869141" xlink:href="#DejaVuSans-48"/>
      </g>
     </g>
    </g>
    <g id="ytick_6">
     <g id="line2d_25">
      <path clip-path="url(#pb84c98b9c9)" d="M 57.6 114.949671 
L 414.72 114.949671 
" style="fill:none;stroke:#b0b0b0;stroke-linecap:square;stroke-width:0.8;"/>
     </g>
     <g id="line2d_26">
      <g>
       <use style="stroke:#000000;stroke-width:0.8;" x="57.6" xlink:href="#m5a1b8b55e0" y="114.949671"/>
      </g>
     </g>
     <g id="text_14">
      <!-- 1600 -->
      <g transform="translate(25.15 118.74889)scale(0.1 -0.1)">
       <use xlink:href="#DejaVuSans-49"/>
       <use x="63.623047" xlink:href="#DejaVuSans-54"/>
       <use x="127.246094" xlink:href="#DejaVuSans-48"/>
       <use x="190.869141" xlink:href="#DejaVuSans-48"/>
      </g>
     </g>
    </g>
    <g id="ytick_7">
     <g id="line2d_27">
      <path clip-path="url(#pb84c98b9c9)" d="M 57.6 81.363573 
L 414.72 81.363573 
" style="fill:none;stroke:#b0b0b0;stroke-linecap:square;stroke-width:0.8;"/>
     </g>
     <g id="line2d_28">
      <g>
       <use style="stroke:#000000;stroke-width:0.8;" x="57.6" xlink:href="#m5a1b8b55e0" y="81.363573"/>
      </g>
     </g>
     <g id="text_15">
      <!-- 1800 -->
      <g transform="translate(25.15 85.162792)scale(0.1 -0.1)">
       <use xlink:href="#DejaVuSans-49"/>
       <use x="63.623047" xlink:href="#DejaVuSans-56"/>
       <use x="127.246094" xlink:href="#DejaVuSans-48"/>
       <use x="190.869141" xlink:href="#DejaVuSans-48"/>
      </g>
     </g>
    </g>
    <g id="ytick_8">
     <g id="line2d_29">
      <path clip-path="url(#pb84c98b9c9)" d="M 57.6 47.777474 
L 414.72 47.777474 
" style="fill:none;stroke:#b0b0b0;stroke-linecap:square;stroke-width:0.8;"/>
     </g>
     <g id="line2d_30">
      <g>
       <use style="stroke:#000000;stroke-width:0.8;" x="57.6" xlink:href="#m5a1b8b55e0" y="47.777474"/>
      </g>
     </g>
     <g id="text_16">
      <!-- 2000 -->
      <g transform="translate(25.15 51.576693)scale(0.1 -0.1)">
       <use xlink:href="#DejaVuSans-50"/>
       <use x="63.623047" xlink:href="#DejaVuSans-48"/>
       <use x="127.246094" xlink:href="#DejaVuSans-48"/>
       <use x="190.869141" xlink:href="#DejaVuSans-48"/>
      </g>
     </g>
    </g>
    <g id="text_17">
     <!-- Fitness -->
     <defs>
      <path d="M 9.8125 72.90625 
L 51.703125 72.90625 
L 51.703125 64.59375 
L 19.671875 64.59375 
L 19.671875 43.109375 
L 48.578125 43.109375 
L 48.578125 34.8125 
L 19.671875 34.8125 
L 19.671875 0 
L 9.8125 0 
z
" id="DejaVuSans-70"/>
     </defs>
     <g transform="translate(19.070312 192.202219)rotate(-90)scale(0.1 -0.1)">
      <use xlink:href="#DejaVuSans-70"/>
      <use x="57.410156" xlink:href="#DejaVuSans-105"/>
      <use x="85.193359" xlink:href="#DejaVuSans-116"/>
      <use x="124.402344" xlink:href="#DejaVuSans-110"/>
      <use x="187.78125" xlink:href="#DejaVuSans-101"/>
      <use x="249.304688" xlink:href="#DejaVuSans-115"/>
      <use x="301.404297" xlink:href="#DejaVuSans-115"/>
     </g>
    </g>
   </g>
   <g id="line2d_31">
    <path clip-path="url(#pb84c98b9c9)" d="M 73.832727 288.976081 
L 74.918528 213.361105 
L 76.00433 194.918382 
L 77.090131 205.986946 
L 78.175932 191.903561 
L 79.261733 189.8605 
L 80.347534 198.609543 
L 81.433335 215.025487 
L 82.519137 211.37966 
L 83.604938 205.18882 
L 84.690739 202.304654 
L 85.77654 224.186933 
L 86.862341 198.063489 
L 87.948142 183.067202 
L 89.033943 172.343607 
L 90.119745 168.732571 
L 91.205546 174.379649 
L 92.291347 171.388233 
L 93.377148 156.793541 
L 94.462949 177.755643 
L 95.54875 143.714919 
L 96.634552 177.777388 
L 97.720353 184.945481 
L 98.806154 180.161094 
L 99.891955 159.647705 
L 100.977756 142.108452 
L 102.063557 143.47228 
L 103.149358 164.502361 
L 104.23516 145.357682 
L 105.320961 138.100499 
L 106.406762 133.999448 
L 107.492563 137.614364 
L 108.578364 137.016459 
L 109.664165 136.861145 
L 110.749967 140.964149 
L 111.835768 156.794387 
L 112.921569 126.925814 
L 114.00737 127.041493 
L 115.093171 130.765032 
L 116.178972 147.96523 
L 117.264773 144.257102 
L 118.350575 125.49542 
L 119.436376 128.358047 
L 120.522177 136.520098 
L 121.607978 129.911758 
L 122.693779 134.71517 
L 123.77958 153.278459 
L 124.865382 129.902785 
L 125.951183 127.305336 
L 127.036984 132.243878 
L 128.122785 129.609591 
L 129.208586 120.767459 
L 130.294387 137.000449 
L 131.380189 141.521773 
L 133.551791 130.065691 
L 134.637592 135.145522 
L 135.723393 114.372234 
L 136.809194 120.713495 
L 137.894995 129.333261 
L 138.980797 116.716706 
L 140.066598 117.603636 
L 141.152399 119.836087 
L 142.2382 124.81597 
L 143.324001 125.759126 
L 144.409802 110.213363 
L 145.495604 118.570934 
L 146.581405 117.316775 
L 147.667206 113.723067 
L 148.753007 109.459452 
L 149.838808 107.779685 
L 150.924609 118.924446 
L 152.01041 121.869536 
L 153.096212 111.33773 
L 154.182013 102.156897 
L 155.267814 106.156438 
L 157.439416 121.923508 
L 158.525217 109.600829 
L 159.611019 118.041802 
L 160.69682 148.191962 
L 161.782621 120.997455 
L 162.868422 121.599999 
L 163.954223 137.340973 
L 165.040024 140.589154 
L 166.125825 154.856978 
L 167.211627 132.129478 
L 168.297428 137.854787 
L 169.383229 127.414793 
L 170.46903 127.710378 
L 171.554831 121.659556 
L 172.640632 113.400266 
L 173.726434 132.932282 
L 174.812235 107.350895 
L 175.898036 129.780913 
L 176.983837 116.992191 
L 178.069638 113.599049 
L 179.155439 119.551563 
L 180.24124 104.784227 
L 181.327042 119.330491 
L 182.412843 110.873407 
L 183.498644 109.326498 
L 184.584445 113.938843 
L 185.670246 124.968807 
L 186.756047 111.867008 
L 187.841849 129.124963 
L 188.92765 97.510946 
L 190.013451 113.045077 
L 191.099252 119.714233 
L 192.185053 108.654105 
L 193.270854 108.196755 
L 194.356656 112.313491 
L 195.442457 102.11752 
L 196.528258 118.692533 
L 197.614059 114.859763 
L 198.69986 92.661447 
L 199.785661 110.673028 
L 200.871462 118.334102 
L 201.957264 105.487069 
L 203.043065 115.665904 
L 204.128866 109.932979 
L 205.214667 118.991765 
L 206.300468 104.861904 
L 207.386269 105.611661 
L 208.472071 107.752203 
L 209.557872 117.240122 
L 210.643673 119.266632 
L 211.729474 129.098548 
L 212.815275 113.680931 
L 213.901076 125.165159 
L 214.986877 110.268112 
L 216.072679 121.154977 
L 217.15848 122.436086 
L 218.244281 140.067534 
L 219.330082 132.371875 
L 221.501684 113.00736 
L 222.587486 140.743065 
L 223.673287 130.486732 
L 224.759088 111.320153 
L 225.844889 116.269175 
L 226.93069 136.391499 
L 228.016491 132.876474 
L 229.102292 111.07741 
L 230.188094 115.254657 
L 231.273895 109.904526 
L 232.359696 118.97948 
L 233.445497 115.638448 
L 234.531298 129.931383 
L 235.617099 112.529437 
L 236.702901 115.174922 
L 237.788702 123.072299 
L 238.874503 140.627179 
L 239.960304 114.497073 
L 241.046105 114.050688 
L 242.131906 106.647775 
L 243.217708 109.837978 
L 244.303509 117.495096 
L 245.38931 130.117599 
L 246.475111 117.765671 
L 247.560912 122.876517 
L 248.646713 108.457999 
L 249.732514 117.892825 
L 250.818316 131.460202 
L 251.904117 122.029567 
L 252.989918 110.817915 
L 254.075719 128.392781 
L 255.16152 129.580411 
L 256.247321 145.075936 
L 257.333123 122.314973 
L 258.418924 161.275617 
L 259.504725 121.271808 
L 260.590526 128.858278 
L 261.676327 127.73645 
L 262.762128 139.446727 
L 263.847929 140.012156 
L 264.933731 133.564833 
L 266.019532 141.227299 
L 267.105333 146.685212 
L 268.191134 132.506694 
L 269.276935 113.198149 
L 270.362736 113.532229 
L 271.448538 112.60623 
L 272.534339 114.185146 
L 273.62014 113.884596 
L 274.705941 117.647269 
L 275.791742 127.252376 
L 276.877543 118.197448 
L 277.963344 117.400506 
L 279.049146 113.47249 
L 280.134947 123.074383 
L 281.220748 124.258017 
L 282.306549 119.449188 
L 283.39235 107.490216 
L 284.478151 120.249391 
L 285.563953 127.351558 
L 286.649754 125.675517 
L 287.735555 115.415499 
L 288.821356 112.905942 
L 289.907157 118.111788 
L 290.992958 112.828656 
L 292.07876 115.030029 
L 293.164561 121.591726 
L 294.250362 122.923264 
L 295.336163 117.676718 
L 296.421964 118.324789 
L 297.507765 122.970159 
L 298.593566 130.55143 
L 299.679368 113.76142 
L 300.765169 133.028284 
L 301.85097 119.57793 
L 302.936771 138.019548 
L 304.022572 125.021149 
L 305.108373 132.263261 
L 306.194175 115.913724 
L 307.279976 126.289132 
L 308.365777 118.718108 
L 309.451578 115.154872 
L 310.537379 114.09894 
L 311.62318 113.492955 
L 312.708981 116.080759 
L 313.794783 120.253206 
L 314.880584 119.192636 
L 315.966385 118.804918 
L 317.052186 124.837287 
L 318.137987 114.167496 
L 319.223788 139.778354 
L 320.30959 108.209945 
L 321.395391 122.116436 
L 322.481192 121.311716 
L 323.566993 128.364885 
L 324.652794 118.797454 
L 325.738595 134.200401 
L 326.824396 120.785494 
L 327.910198 117.01803 
L 328.995999 114.98403 
L 330.0818 121.883178 
L 331.167601 117.650365 
L 332.253402 135.193233 
L 333.339203 134.933955 
L 334.425005 99.513156 
L 335.510806 102.784263 
L 336.596607 128.517912 
L 337.682408 102.230332 
L 338.768209 103.073187 
L 339.85401 104.506553 
L 342.025613 110.38225 
L 343.111414 110.435054 
L 344.197215 111.460596 
L 345.283016 120.528261 
L 346.368817 114.707142 
L 347.454618 129.61242 
L 348.54042 112.565526 
L 349.626221 126.785648 
L 350.712022 117.835898 
L 351.797823 122.005532 
L 352.883624 127.585292 
L 353.969425 97.812776 
L 355.055227 114.104958 
L 356.141028 119.439544 
L 357.226829 117.281166 
L 358.31263 127.249719 
L 359.398431 134.660675 
L 360.484232 122.540542 
L 361.570033 127.623037 
L 362.655835 122.706539 
L 363.741636 124.526558 
L 364.827437 129.300634 
L 365.913238 125.204651 
L 366.999039 128.587112 
L 368.08484 120.582981 
L 369.170642 115.054125 
L 370.256443 121.82701 
L 371.342244 111.522008 
L 373.513846 127.087467 
L 374.599647 118.299086 
L 375.685448 115.207788 
L 376.77125 123.116505 
L 377.857051 143.572838 
L 378.942852 134.443618 
L 380.028653 117.968339 
L 381.114454 98.760225 
L 382.200255 119.600747 
L 383.286057 128.785073 
L 384.371858 142.659337 
L 386.54346 118.40216 
L 387.629261 132.368054 
L 389.800863 115.842391 
L 390.886665 110.553893 
L 391.972466 135.653287 
L 393.058267 123.832599 
L 394.144068 136.118586 
L 395.229869 121.337251 
L 396.31567 129.456138 
L 397.401472 112.586145 
L 398.487273 105.531688 
L 398.487273 105.531688 
" style="fill:none;stroke:#0000ff;stroke-linecap:square;stroke-width:1.5;"/>
   </g>
   <g id="line2d_32">
    <path clip-path="url(#pb84c98b9c9)" d="M 73.832727 295.488 
L 74.918528 223.010536 
L 76.00433 203.495657 
L 77.090131 220.490202 
L 78.175932 214.64598 
L 79.261733 218.843495 
L 80.347534 232.439967 
L 81.433335 237.782258 
L 82.519137 241.905067 
L 83.604938 239.449004 
L 84.690739 228.360431 
L 85.77654 257.099171 
L 86.862341 238.459455 
L 87.948142 201.956542 
L 89.033943 213.427375 
L 90.119745 205.209062 
L 91.205546 217.721596 
L 92.291347 205.88906 
L 93.377148 192.073074 
L 94.462949 213.665458 
L 95.54875 166.391795 
L 96.634552 219.085046 
L 97.720353 223.975566 
L 98.806154 206.088391 
L 99.891955 201.360072 
L 100.977756 176.322208 
L 102.063557 183.111159 
L 103.149358 208.090593 
L 104.23516 168.233294 
L 105.320961 179.045851 
L 106.406762 155.03992 
L 107.492563 174.558356 
L 108.578364 172.031281 
L 109.664165 181.651346 
L 110.749967 170.980332 
L 111.835768 203.158453 
L 112.921569 163.801486 
L 114.00737 159.804409 
L 115.093171 161.373335 
L 116.178972 196.014403 
L 117.264773 163.352788 
L 118.350575 169.941817 
L 119.436376 151.038922 
L 120.522177 187.984473 
L 121.607978 171.160457 
L 122.693779 177.128538 
L 123.77958 187.682129 
L 124.865382 164.829273 
L 125.951183 170.679679 
L 127.036984 167.280837 
L 128.122785 155.753215 
L 129.208586 163.833177 
L 130.294387 162.944008 
L 131.380189 182.3283 
L 132.46599 175.865476 
L 133.551791 153.580592 
L 134.637592 175.653721 
L 135.723393 152.255535 
L 136.809194 145.2011 
L 137.894995 178.599348 
L 138.980797 163.293657 
L 140.066598 153.345626 
L 141.152399 165.676929 
L 142.2382 162.765899 
L 143.324001 167.970238 
L 144.409802 147.1844 
L 145.495604 152.644763 
L 146.581405 164.920224 
L 147.667206 158.03055 
L 148.753007 135.010391 
L 149.838808 148.528044 
L 150.924609 173.702799 
L 152.01041 152.48618 
L 153.096212 143.92824 
L 154.182013 133.927286 
L 155.267814 140.845607 
L 156.353615 143.094248 
L 157.439416 154.014835 
L 158.525217 139.522895 
L 160.69682 186.351004 
L 161.782621 141.871176 
L 162.868422 153.056138 
L 163.954223 159.257745 
L 165.040024 161.828672 
L 166.125825 181.748362 
L 167.211627 157.850965 
L 168.297428 165.189306 
L 169.383229 155.305529 
L 170.46903 152.124228 
L 171.554831 164.970824 
L 172.640632 134.034452 
L 173.726434 166.151476 
L 174.812235 140.086809 
L 175.898036 169.062038 
L 176.983837 156.108793 
L 178.069638 152.060937 
L 179.155439 152.776013 
L 180.24124 132.581021 
L 181.327042 147.61056 
L 182.412843 129.389166 
L 183.498644 141.947054 
L 184.584445 137.372292 
L 185.670246 146.66151 
L 186.756047 142.445523 
L 187.841849 167.221845 
L 188.92765 121.130438 
L 190.013451 142.802415 
L 191.099252 142.517916 
L 192.185053 133.551855 
L 193.270854 134.116244 
L 194.356656 142.111411 
L 195.442457 131.698702 
L 196.528258 138.680609 
L 197.614059 139.103132 
L 198.69986 116.149798 
L 199.785661 138.649928 
L 200.871462 148.696379 
L 201.957264 127.484917 
L 203.043065 137.460371 
L 204.128866 133.803556 
L 205.214667 148.653637 
L 206.300468 129.817207 
L 207.386269 131.513565 
L 208.472071 137.927173 
L 209.557872 166.730625 
L 210.643673 157.418761 
L 211.729474 163.328597 
L 212.815275 149.25802 
L 213.901076 154.487881 
L 214.986877 136.308869 
L 217.15848 163.398676 
L 218.244281 168.390605 
L 219.330082 155.919157 
L 220.415883 149.854256 
L 221.501684 137.641692 
L 222.587486 227.918131 
L 223.673287 164.581206 
L 224.759088 138.709161 
L 225.844889 144.853946 
L 226.93069 168.201224 
L 228.016491 172.272217 
L 229.102292 135.122634 
L 230.188094 138.990778 
L 231.273895 132.443492 
L 232.359696 164.410484 
L 233.445497 153.122773 
L 234.531298 180.815198 
L 235.617099 157.636243 
L 236.702901 140.314357 
L 238.874503 181.760125 
L 239.960304 135.650245 
L 241.046105 142.989648 
L 242.131906 145.4098 
L 243.217708 138.904518 
L 244.303509 154.364867 
L 245.38931 157.469242 
L 246.475111 147.874869 
L 247.560912 147.069216 
L 248.646713 129.897746 
L 250.818316 166.388379 
L 251.904117 157.397824 
L 252.989918 135.737578 
L 254.075719 157.691246 
L 255.16152 165.203974 
L 256.247321 176.916197 
L 257.333123 154.711067 
L 258.418924 191.959857 
L 259.504725 144.528935 
L 260.590526 152.408622 
L 261.676327 152.807489 
L 262.762128 173.826472 
L 263.847929 161.791074 
L 264.933731 183.645313 
L 266.019532 171.018851 
L 267.105333 169.208428 
L 268.191134 160.392282 
L 269.276935 139.226048 
L 270.362736 143.184462 
L 271.448538 141.810686 
L 272.534339 146.901987 
L 273.62014 153.026645 
L 274.705941 151.373296 
L 275.791742 158.586487 
L 276.877543 142.614315 
L 277.963344 149.216141 
L 279.049146 144.703584 
L 280.134947 151.886283 
L 281.220748 158.100463 
L 282.306549 154.393415 
L 283.39235 131.974387 
L 284.478151 142.190783 
L 285.563953 164.227951 
L 286.649754 173.315305 
L 287.735555 141.228186 
L 288.821356 142.122427 
L 289.907157 157.029559 
L 290.992958 147.364486 
L 292.07876 144.610279 
L 293.164561 143.552202 
L 294.250362 150.03059 
L 295.336163 146.098716 
L 296.421964 163.078468 
L 297.507765 160.698524 
L 298.593566 166.025806 
L 299.679368 160.408856 
L 300.765169 202.077424 
L 301.85097 165.019179 
L 302.936771 198.118215 
L 304.022572 169.630257 
L 305.108373 179.829657 
L 306.194175 150.759641 
L 308.365777 161.485447 
L 309.451578 156.669791 
L 310.537379 159.208805 
L 311.62318 146.61332 
L 313.794783 162.695522 
L 314.880584 153.161935 
L 315.966385 162.074886 
L 317.052186 168.874571 
L 318.137987 153.930692 
L 319.223788 181.669779 
L 320.30959 142.401027 
L 321.395391 160.055505 
L 322.481192 164.927946 
L 323.566993 179.447482 
L 324.652794 164.23983 
L 325.738595 173.146429 
L 326.824396 161.316814 
L 327.910198 148.158405 
L 328.995999 149.292094 
L 330.0818 149.058116 
L 331.167601 147.541492 
L 332.253402 162.845578 
L 333.339203 167.882981 
L 334.425005 124.513209 
L 335.510806 125.712432 
L 336.596607 151.159004 
L 337.682408 132.883984 
L 338.768209 128.37109 
L 339.85401 130.500715 
L 340.939811 130.026001 
L 342.025613 130.955869 
L 343.111414 134.025994 
L 344.197215 134.709932 
L 345.283016 143.103844 
L 346.368817 140.12737 
L 347.454618 160.902805 
L 348.54042 137.564573 
L 349.626221 165.853875 
L 350.712022 146.095912 
L 351.797823 158.470633 
L 352.883624 163.342298 
L 353.969425 123.84728 
L 355.055227 144.221389 
L 356.141028 146.617991 
L 357.226829 145.508975 
L 358.31263 149.305369 
L 359.398431 177.739398 
L 360.484232 149.65835 
L 361.570033 158.473934 
L 362.655835 163.052185 
L 363.741636 145.117374 
L 364.827437 167.318707 
L 365.913238 160.120883 
L 366.999039 155.441228 
L 368.08484 147.713761 
L 369.170642 138.451959 
L 370.256443 151.311929 
L 371.342244 145.800274 
L 373.513846 154.653098 
L 374.599647 145.313527 
L 375.685448 139.758062 
L 376.77125 147.348309 
L 377.857051 166.915479 
L 378.942852 173.091635 
L 380.028653 149.388943 
L 381.114454 119.397446 
L 382.200255 148.615396 
L 383.286057 161.652961 
L 384.371858 168.867369 
L 385.457659 153.827993 
L 386.54346 151.202044 
L 387.629261 160.843972 
L 388.715062 157.016437 
L 389.800863 148.775596 
L 390.886665 141.724248 
L 391.972466 172.73475 
L 393.058267 155.332741 
L 394.144068 166.616881 
L 395.229869 152.385984 
L 396.31567 156.768203 
L 397.401472 140.486252 
L 398.487273 128.514891 
L 398.487273 128.514891 
" style="fill:none;stroke:#008000;stroke-dasharray:9.6,2.4,1.5,2.4;stroke-dashoffset:0;stroke-width:1.5;"/>
   </g>
   <g id="line2d_33">
    <path clip-path="url(#pb84c98b9c9)" d="M 73.832727 282.464161 
L 74.918528 203.711675 
L 76.00433 186.341106 
L 77.090131 191.48369 
L 78.175932 169.161142 
L 79.261733 160.877506 
L 80.347534 164.779119 
L 81.433335 192.268717 
L 82.519137 180.854252 
L 83.604938 170.928636 
L 84.690739 176.248877 
L 85.77654 191.274694 
L 86.862341 157.667522 
L 87.948142 164.177862 
L 89.033943 131.259839 
L 90.119745 132.256079 
L 91.205546 131.037701 
L 92.291347 136.887406 
L 93.377148 121.514008 
L 94.462949 141.845827 
L 95.54875 121.038043 
L 96.634552 136.469729 
L 97.720353 145.915396 
L 98.806154 154.233797 
L 99.891955 117.935338 
L 100.977756 107.894696 
L 102.063557 103.8334 
L 103.149358 120.914128 
L 104.23516 122.48207 
L 105.320961 97.155147 
L 106.406762 112.958976 
L 107.492563 100.670371 
L 108.578364 102.001637 
L 109.664165 92.070944 
L 110.749967 110.947966 
L 111.835768 110.430322 
L 112.921569 90.050142 
L 114.00737 94.278577 
L 115.093171 100.156729 
L 116.178972 99.916057 
L 117.264773 125.161415 
L 118.350575 81.049023 
L 119.436376 105.677172 
L 120.522177 85.055723 
L 122.693779 92.301801 
L 123.77958 118.874789 
L 124.865382 94.976297 
L 125.951183 83.930994 
L 127.036984 97.206919 
L 128.122785 103.465968 
L 129.208586 77.701741 
L 130.294387 111.05689 
L 131.380189 100.715246 
L 132.46599 95.139327 
L 133.551791 106.55079 
L 134.637592 94.637324 
L 135.723393 76.488934 
L 136.809194 96.22589 
L 137.894995 80.067174 
L 138.980797 70.139755 
L 140.066598 81.861646 
L 141.152399 73.995245 
L 142.2382 86.86604 
L 143.324001 83.548014 
L 144.409802 73.242326 
L 145.495604 84.497104 
L 146.581405 69.713327 
L 147.667206 69.415585 
L 148.753007 83.908514 
L 149.838808 67.031327 
L 150.924609 64.146092 
L 152.01041 91.252893 
L 153.096212 78.74722 
L 154.182013 70.386507 
L 155.267814 71.467269 
L 156.353615 84.53666 
L 157.439416 89.832182 
L 158.525217 79.678763 
L 159.611019 73.605752 
L 160.69682 110.03292 
L 162.868422 90.143859 
L 163.954223 115.4242 
L 165.040024 119.349636 
L 166.125825 127.965594 
L 167.211627 106.40799 
L 168.297428 110.520268 
L 169.383229 99.524057 
L 170.46903 103.296528 
L 171.554831 78.348288 
L 172.640632 92.766079 
L 173.726434 99.713087 
L 174.812235 74.61498 
L 175.898036 90.499787 
L 176.983837 77.875589 
L 178.069638 75.13716 
L 179.155439 86.327112 
L 180.24124 76.987433 
L 181.327042 91.050422 
L 182.412843 92.357648 
L 183.498644 76.705942 
L 185.670246 103.276105 
L 186.756047 81.288492 
L 187.841849 91.028081 
L 188.92765 73.891455 
L 190.013451 83.287739 
L 191.099252 96.91055 
L 192.185053 83.756355 
L 193.270854 82.277265 
L 194.356656 82.515571 
L 195.442457 72.536337 
L 196.528258 98.704457 
L 197.614059 90.616394 
L 198.69986 69.173096 
L 199.785661 82.696129 
L 200.871462 87.971826 
L 201.957264 83.48922 
L 203.043065 93.871437 
L 204.128866 86.062402 
L 205.214667 89.329892 
L 206.300468 79.906602 
L 207.386269 79.709758 
L 208.472071 77.577233 
L 209.557872 67.749618 
L 211.729474 94.8685 
L 212.815275 78.103842 
L 213.901076 95.842438 
L 214.986877 84.227354 
L 216.072679 92.991449 
L 217.15848 81.473496 
L 218.244281 111.744464 
L 219.330082 108.824594 
L 220.415883 95.38551 
L 221.501684 88.373027 
L 222.587486 53.568 
L 223.673287 96.392259 
L 224.759088 83.931145 
L 225.844889 87.684403 
L 226.93069 104.581775 
L 228.016491 93.480731 
L 229.102292 87.032185 
L 230.188094 91.518535 
L 231.273895 87.365559 
L 232.359696 73.548475 
L 233.445497 78.154123 
L 234.531298 79.047569 
L 235.617099 67.42263 
L 236.702901 90.035487 
L 237.788702 85.75727 
L 238.874503 99.494233 
L 239.960304 93.343901 
L 241.046105 85.111728 
L 242.131906 67.88575 
L 243.217708 80.771438 
L 244.303509 80.625324 
L 245.38931 102.765955 
L 246.475111 87.656474 
L 247.560912 98.683818 
L 248.646713 87.018252 
L 249.732514 88.335365 
L 250.818316 96.532025 
L 251.904117 86.661311 
L 252.989918 85.898253 
L 254.075719 99.094315 
L 255.16152 93.956847 
L 256.247321 113.235676 
L 257.333123 89.918878 
L 258.418924 130.591376 
L 259.504725 98.014681 
L 260.590526 105.307935 
L 261.676327 102.665412 
L 262.762128 105.066981 
L 263.847929 118.233238 
L 264.933731 83.484354 
L 266.019532 111.435747 
L 267.105333 124.161996 
L 268.191134 104.621106 
L 269.276935 87.170251 
L 270.362736 83.879996 
L 271.448538 83.401774 
L 272.534339 81.468305 
L 273.62014 74.742548 
L 274.705941 83.921241 
L 275.791742 95.918266 
L 276.877543 93.780582 
L 277.963344 85.584871 
L 279.049146 82.241395 
L 280.134947 94.262483 
L 281.220748 90.415572 
L 282.306549 84.504961 
L 283.39235 83.006045 
L 284.478151 98.307999 
L 285.563953 90.475165 
L 286.649754 78.035728 
L 287.735555 89.602812 
L 288.821356 83.689456 
L 289.907157 79.194017 
L 290.992958 78.292826 
L 292.07876 85.44978 
L 293.164561 99.631251 
L 294.250362 95.815938 
L 295.336163 89.254721 
L 296.421964 73.57111 
L 297.507765 85.241795 
L 298.593566 95.077053 
L 299.679368 67.113984 
L 300.765169 63.979145 
L 301.85097 74.136682 
L 302.936771 77.920881 
L 304.022572 80.41204 
L 305.108373 84.696865 
L 306.194175 81.067806 
L 307.279976 96.353416 
L 308.365777 75.950769 
L 309.451578 73.639953 
L 310.537379 68.989076 
L 311.62318 80.37259 
L 312.708981 77.09696 
L 313.794783 77.810891 
L 314.880584 85.223337 
L 315.966385 75.534951 
L 317.052186 80.800004 
L 318.137987 74.404299 
L 319.223788 97.88693 
L 320.30959 74.018863 
L 321.395391 84.177367 
L 322.481192 77.695487 
L 323.566993 77.282288 
L 324.652794 73.355077 
L 325.738595 95.254373 
L 326.824396 80.254174 
L 327.910198 85.877655 
L 328.995999 80.675966 
L 330.0818 94.70824 
L 331.167601 87.759238 
L 332.253402 107.540887 
L 333.339203 101.98493 
L 334.425005 74.513102 
L 335.510806 79.856095 
L 336.596607 105.87682 
L 337.682408 71.576679 
L 338.768209 77.775283 
L 339.85401 78.512391 
L 340.939811 84.592684 
L 342.025613 89.80863 
L 343.111414 86.844113 
L 344.197215 88.21126 
L 345.283016 97.952679 
L 346.368817 89.286913 
L 347.454618 98.322036 
L 348.54042 87.566478 
L 349.626221 87.717421 
L 350.712022 89.575884 
L 351.797823 85.540431 
L 352.883624 91.828286 
L 353.969425 71.778272 
L 355.055227 83.988526 
L 356.141028 92.261097 
L 357.226829 89.053356 
L 358.31263 105.194068 
L 359.398431 91.581953 
L 360.484232 95.422734 
L 361.570033 96.772141 
L 362.655835 82.360894 
L 363.741636 103.935742 
L 364.827437 91.28256 
L 365.913238 90.28842 
L 366.999039 101.732996 
L 368.08484 93.452201 
L 369.170642 91.65629 
L 370.256443 92.34209 
L 371.342244 77.243742 
L 373.513846 99.521836 
L 374.599647 91.284645 
L 375.685448 90.657515 
L 376.77125 98.884702 
L 377.857051 120.230196 
L 378.942852 95.795601 
L 381.114454 78.123004 
L 382.200255 90.586098 
L 383.286057 95.917185 
L 384.371858 116.451305 
L 385.457659 107.970455 
L 386.54346 85.602275 
L 387.629261 103.892136 
L 388.715062 91.118264 
L 389.800863 82.909187 
L 390.886665 79.383537 
L 391.972466 98.571823 
L 393.058267 92.332457 
L 394.144068 105.620291 
L 395.229869 90.288517 
L 396.31567 102.144073 
L 397.401472 84.686037 
L 398.487273 82.548484 
L 398.487273 82.548484 
" style="fill:none;stroke:#008000;stroke-dasharray:9.6,2.4,1.5,2.4;stroke-dashoffset:0;stroke-width:1.5;"/>
   </g>
   <g id="line2d_34">
    <path clip-path="url(#pb84c98b9c9)" d="M 73.832727 270.036418 
L 74.918528 193.519586 
L 76.00433 169.925344 
L 77.090131 172.082076 
L 78.175932 151.311719 
L 79.261733 136.832573 
L 80.347534 143.504533 
L 81.433335 193.35751 
L 82.519137 179.814306 
L 83.604938 173.09652 
L 84.690739 172.258857 
L 85.77654 182.046003 
L 86.862341 159.396697 
L 87.948142 150.961314 
L 89.033943 126.680334 
L 90.119745 126.797895 
L 91.205546 126.243439 
L 92.291347 123.817027 
L 93.377148 97.388377 
L 94.462949 128.948971 
L 95.54875 101.279319 
L 96.634552 134.277919 
L 97.720353 135.001524 
L 98.806154 134.051358 
L 100.977756 98.757517 
L 102.063557 97.20395 
L 103.149358 120.053033 
L 104.23516 106.140991 
L 105.320961 99.592739 
L 106.406762 108.488068 
L 107.492563 95.923624 
L 108.578364 98.702129 
L 109.664165 98.117348 
L 110.749967 104.988388 
L 111.835768 113.489185 
L 112.921569 88.232178 
L 114.00737 90.035332 
L 115.093171 97.509689 
L 117.264773 118.409927 
L 118.350575 86.321042 
L 119.436376 103.69867 
L 121.607978 88.938769 
L 122.693779 91.417696 
L 123.77958 124.223959 
L 124.865382 99.161125 
L 125.951183 95.129185 
L 127.036984 94.167174 
L 128.122785 103.431396 
L 129.208586 83.499544 
L 130.294387 110.634587 
L 131.380189 107.012469 
L 132.46599 96.289924 
L 133.551791 96.819454 
L 134.637592 94.616045 
L 135.723393 82.765263 
L 136.809194 89.98738 
L 137.894995 90.610282 
L 138.980797 85.185692 
L 140.066598 95.083581 
L 141.152399 82.382449 
L 142.2382 87.898785 
L 143.324001 90.108652 
L 144.409802 72.750221 
L 146.581405 78.363372 
L 147.667206 78.201426 
L 148.753007 77.412963 
L 149.838808 74.640223 
L 150.924609 81.511575 
L 152.01041 92.762676 
L 153.096212 76.942443 
L 154.182013 73.622551 
L 155.267814 76.189606 
L 156.353615 87.939581 
L 157.439416 89.498358 
L 158.525217 76.322214 
L 159.611019 80.328588 
L 160.69682 111.904257 
L 161.782621 99.993454 
L 162.868422 97.066659 
L 163.954223 108.663109 
L 165.040024 109.537813 
L 166.125825 123.473776 
L 167.211627 107.495198 
L 168.297428 102.670481 
L 169.383229 96.33882 
L 170.46903 106.463359 
L 171.554831 79.248452 
L 172.640632 90.475951 
L 173.726434 99.735604 
L 174.812235 78.649418 
L 175.898036 93.875538 
L 176.983837 84.916688 
L 178.069638 83.761837 
L 179.155439 84.991234 
L 180.24124 78.553724 
L 181.327042 90.128144 
L 182.412843 90.372371 
L 183.498644 72.024436 
L 184.584445 93.259931 
L 185.670246 95.166455 
L 186.756047 79.662936 
L 187.841849 92.436707 
L 188.92765 75.725777 
L 190.013451 90.037536 
L 192.185053 80.321106 
L 193.270854 75.904145 
L 194.356656 74.37136 
L 195.442457 77.826705 
L 196.528258 94.546001 
L 197.614059 84.277052 
L 198.69986 66.752113 
L 199.785661 75.188425 
L 201.957264 85.519691 
L 203.043065 88.520385 
L 204.128866 88.545847 
L 205.214667 93.889814 
L 206.300468 78.211163 
L 207.386269 81.980136 
L 208.472071 71.594917 
L 209.557872 82.929935 
L 210.643673 83.06961 
L 211.729474 98.781421 
L 212.815275 77.43377 
L 213.901076 92.339434 
L 214.986877 79.027795 
L 216.072679 81.976127 
L 217.15848 86.909553 
L 218.244281 108.911147 
L 219.330082 104.492613 
L 220.415883 86.307232 
L 221.501684 83.996348 
L 222.587486 78.458688 
L 223.673287 89.747544 
L 224.759088 74.840422 
L 225.844889 85.474695 
L 226.93069 104.63339 
L 228.016491 93.111895 
L 229.102292 79.582153 
L 230.188094 90.936143 
L 231.273895 89.035806 
L 232.359696 82.125746 
L 233.445497 86.175732 
L 234.531298 93.046487 
L 235.617099 75.861801 
L 236.702901 86.247757 
L 237.788702 86.478421 
L 238.874503 102.775678 
L 239.960304 90.55362 
L 241.046105 85.884133 
L 242.131906 79.062853 
L 243.217708 82.311542 
L 244.303509 72.737599 
L 245.38931 100.710341 
L 246.475111 88.784037 
L 247.560912 88.093146 
L 248.646713 78.178199 
L 249.732514 88.099193 
L 250.818316 90.626075 
L 251.904117 87.368846 
L 252.989918 84.711135 
L 254.075719 93.762033 
L 255.16152 93.336041 
L 256.247321 104.444933 
L 257.333123 71.896413 
L 258.418924 118.507922 
L 259.504725 84.676366 
L 260.590526 94.043293 
L 261.676327 93.767025 
L 262.762128 91.714807 
L 263.847929 104.303146 
L 264.933731 89.026258 
L 266.019532 103.641166 
L 267.105333 112.667682 
L 269.276935 82.021674 
L 270.362736 79.89728 
L 271.448538 78.764873 
L 272.534339 76.821107 
L 273.62014 83.595965 
L 274.705941 82.605311 
L 275.791742 90.27206 
L 276.877543 93.119336 
L 277.963344 83.295517 
L 279.049146 81.514255 
L 280.134947 88.841778 
L 281.220748 81.867669 
L 282.306549 86.016561 
L 283.39235 81.284108 
L 284.478151 93.684087 
L 285.563953 86.252499 
L 286.649754 81.442794 
L 287.735555 89.452601 
L 288.821356 80.341153 
L 289.907157 86.054301 
L 290.992958 76.445085 
L 292.07876 85.023252 
L 293.164561 90.03222 
L 294.250362 89.776588 
L 295.336163 83.13505 
L 296.421964 69.214829 
L 297.507765 77.781776 
L 298.593566 88.902725 
L 299.679368 71.322657 
L 300.765169 73.516393 
L 301.85097 69.100569 
L 302.936771 75.274503 
L 304.022572 79.232177 
L 305.108373 87.118886 
L 306.194175 80.091684 
L 307.279976 93.09594 
L 308.365777 84.921762 
L 309.451578 77.98591 
L 310.537379 79.325016 
L 311.62318 74.327642 
L 312.708981 77.371296 
L 313.794783 85.591288 
L 314.880584 86.333962 
L 315.966385 83.244525 
L 317.052186 79.277637 
L 318.137987 76.503628 
L 319.223788 99.630021 
L 320.30959 70.735754 
L 321.395391 82.108382 
L 322.481192 79.029062 
L 323.566993 86.326433 
L 324.652794 82.631221 
L 325.738595 93.904642 
L 326.824396 70.438431 
L 327.910198 81.500339 
L 328.995999 78.094192 
L 330.0818 88.086682 
L 331.167601 81.592627 
L 332.253402 95.72888 
L 333.339203 98.778033 
L 334.425005 73.774259 
L 335.510806 80.571714 
L 336.596607 102.390239 
L 337.682408 70.430441 
L 338.768209 71.173249 
L 339.85401 70.215332 
L 340.939811 77.239811 
L 342.025613 88.331976 
L 343.111414 81.351168 
L 344.197215 84.064829 
L 345.283016 96.244572 
L 346.368817 86.461291 
L 347.454618 92.920004 
L 348.54042 75.811783 
L 349.626221 85.782748 
L 350.712022 82.342453 
L 351.797823 91.80688 
L 352.883624 92.890691 
L 353.969425 68.490389 
L 355.055227 76.807581 
L 356.141028 86.633664 
L 357.226829 85.001004 
L 358.31263 99.129869 
L 359.398431 86.65826 
L 360.484232 93.025555 
L 361.570033 86.599972 
L 362.655835 84.529117 
L 363.741636 91.676433 
L 364.827437 96.043792 
L 365.913238 88.223907 
L 366.999039 106.303325 
L 368.08484 83.310735 
L 369.170642 82.49317 
L 370.256443 89.016477 
L 371.342244 75.501577 
L 372.428045 81.645288 
L 373.513846 96.505265 
L 374.599647 82.311485 
L 375.685448 79.192632 
L 376.77125 94.930622 
L 377.857051 113.060973 
L 378.942852 102.241424 
L 380.028653 85.675787 
L 381.114454 71.270775 
L 382.200255 82.058434 
L 383.286057 85.140833 
L 384.371858 109.20744 
L 386.54346 87.501853 
L 387.629261 95.706714 
L 388.715062 84.258419 
L 389.800863 83.928722 
L 390.886665 71.832624 
L 391.972466 93.352396 
L 393.058267 86.468056 
L 394.144068 102.866773 
L 395.229869 77.616557 
L 396.31567 91.664139 
L 397.401472 80.503135 
L 398.487273 74.149261 
L 398.487273 74.149261 
" style="fill:none;stroke:#ff0000;stroke-linecap:square;stroke-width:1.5;"/>
   </g>
   <g id="patch_3">
    <path d="M 57.6 307.584 
L 57.6 41.472 
" style="fill:none;stroke:#000000;stroke-linecap:square;stroke-linejoin:miter;stroke-width:0.8;"/>
   </g>
   <g id="patch_4">
    <path d="M 414.72 307.584 
L 414.72 41.472 
" style="fill:none;stroke:#000000;stroke-linecap:square;stroke-linejoin:miter;stroke-width:0.8;"/>
   </g>
   <g id="patch_5">
    <path d="M 57.6 307.584 
L 414.72 307.584 
" style="fill:none;stroke:#000000;stroke-linecap:square;stroke-linejoin:miter;stroke-width:0.8;"/>
   </g>
   <g id="patch_6">
    <path d="M 57.6 41.472 
L 414.72 41.472 
" style="fill:none;stroke:#000000;stroke-linecap:square;stroke-linejoin:miter;stroke-width:0.8;"/>
   </g>
   <g id="text_18">
    <!-- Population's average and best fitness -->
    <defs>
     <path d="M 19.671875 64.796875 
L 19.671875 37.40625 
L 32.078125 37.40625 
Q 38.96875 37.40625 42.71875 40.96875 
Q 46.484375 44.53125 46.484375 51.125 
Q 46.484375 57.671875 42.71875 61.234375 
Q 38.96875 64.796875 32.078125 64.796875 
z
M 9.8125 72.90625 
L 32.078125 72.90625 
Q 44.34375 72.90625 50.609375 67.359375 
Q 56.890625 61.8125 56.890625 51.125 
Q 56.890625 40.328125 50.609375 34.8125 
Q 44.34375 29.296875 32.078125 29.296875 
L 19.671875 29.296875 
L 19.671875 0 
L 9.8125 0 
z
" id="DejaVuSans-80"/>
     <path d="M 18.109375 8.203125 
L 18.109375 -20.796875 
L 9.078125 -20.796875 
L 9.078125 54.6875 
L 18.109375 54.6875 
L 18.109375 46.390625 
Q 20.953125 51.265625 25.265625 53.625 
Q 29.59375 56 35.59375 56 
Q 45.5625 56 51.78125 48.09375 
Q 58.015625 40.1875 58.015625 27.296875 
Q 58.015625 14.40625 51.78125 6.484375 
Q 45.5625 -1.421875 35.59375 -1.421875 
Q 29.59375 -1.421875 25.265625 0.953125 
Q 20.953125 3.328125 18.109375 8.203125 
z
M 48.6875 27.296875 
Q 48.6875 37.203125 44.609375 42.84375 
Q 40.53125 48.484375 33.40625 48.484375 
Q 26.265625 48.484375 22.1875 42.84375 
Q 18.109375 37.203125 18.109375 27.296875 
Q 18.109375 17.390625 22.1875 11.75 
Q 26.265625 6.109375 33.40625 6.109375 
Q 40.53125 6.109375 44.609375 11.75 
Q 48.6875 17.390625 48.6875 27.296875 
z
" id="DejaVuSans-112"/>
     <path d="M 8.5 21.578125 
L 8.5 54.6875 
L 17.484375 54.6875 
L 17.484375 21.921875 
Q 17.484375 14.15625 20.5 10.265625 
Q 23.53125 6.390625 29.59375 6.390625 
Q 36.859375 6.390625 41.078125 11.03125 
Q 45.3125 15.671875 45.3125 23.6875 
L 45.3125 54.6875 
L 54.296875 54.6875 
L 54.296875 0 
L 45.3125 0 
L 45.3125 8.40625 
Q 42.046875 3.421875 37.71875 1 
Q 33.40625 -1.421875 27.6875 -1.421875 
Q 18.265625 -1.421875 13.375 4.4375 
Q 8.5 10.296875 8.5 21.578125 
z
M 31.109375 56 
z
" id="DejaVuSans-117"/>
     <path d="M 9.421875 75.984375 
L 18.40625 75.984375 
L 18.40625 0 
L 9.421875 0 
z
" id="DejaVuSans-108"/>
     <path d="M 17.921875 72.90625 
L 17.921875 45.796875 
L 9.625 45.796875 
L 9.625 72.90625 
z
" id="DejaVuSans-39"/>
     <path id="DejaVuSans-32"/>
     <path d="M 2.984375 54.6875 
L 12.5 54.6875 
L 29.59375 8.796875 
L 46.6875 54.6875 
L 56.203125 54.6875 
L 35.6875 0 
L 23.484375 0 
z
" id="DejaVuSans-118"/>
     <path d="M 45.40625 27.984375 
Q 45.40625 37.75 41.375 43.109375 
Q 37.359375 48.484375 30.078125 48.484375 
Q 22.859375 48.484375 18.828125 43.109375 
Q 14.796875 37.75 14.796875 27.984375 
Q 14.796875 18.265625 18.828125 12.890625 
Q 22.859375 7.515625 30.078125 7.515625 
Q 37.359375 7.515625 41.375 12.890625 
Q 45.40625 18.265625 45.40625 27.984375 
z
M 54.390625 6.78125 
Q 54.390625 -7.171875 48.1875 -13.984375 
Q 42 -20.796875 29.203125 -20.796875 
Q 24.46875 -20.796875 20.265625 -20.09375 
Q 16.0625 -19.390625 12.109375 -17.921875 
L 12.109375 -9.1875 
Q 16.0625 -11.328125 19.921875 -12.34375 
Q 23.78125 -13.375 27.78125 -13.375 
Q 36.625 -13.375 41.015625 -8.765625 
Q 45.40625 -4.15625 45.40625 5.171875 
L 45.40625 9.625 
Q 42.625 4.78125 38.28125 2.390625 
Q 33.9375 0 27.875 0 
Q 17.828125 0 11.671875 7.65625 
Q 5.515625 15.328125 5.515625 27.984375 
Q 5.515625 40.671875 11.671875 48.328125 
Q 17.828125 56 27.875 56 
Q 33.9375 56 38.28125 53.609375 
Q 42.625 51.21875 45.40625 46.390625 
L 45.40625 54.6875 
L 54.390625 54.6875 
z
" id="DejaVuSans-103"/>
     <path d="M 45.40625 46.390625 
L 45.40625 75.984375 
L 54.390625 75.984375 
L 54.390625 0 
L 45.40625 0 
L 45.40625 8.203125 
Q 42.578125 3.328125 38.25 0.953125 
Q 33.9375 -1.421875 27.875 -1.421875 
Q 17.96875 -1.421875 11.734375 6.484375 
Q 5.515625 14.40625 5.515625 27.296875 
Q 5.515625 40.1875 11.734375 48.09375 
Q 17.96875 56 27.875 56 
Q 33.9375 56 38.25 53.625 
Q 42.578125 51.265625 45.40625 46.390625 
z
M 14.796875 27.296875 
Q 14.796875 17.390625 18.875 11.75 
Q 22.953125 6.109375 30.078125 6.109375 
Q 37.203125 6.109375 41.296875 11.75 
Q 45.40625 17.390625 45.40625 27.296875 
Q 45.40625 37.203125 41.296875 42.84375 
Q 37.203125 48.484375 30.078125 48.484375 
Q 22.953125 48.484375 18.875 42.84375 
Q 14.796875 37.203125 14.796875 27.296875 
z
" id="DejaVuSans-100"/>
     <path d="M 48.6875 27.296875 
Q 48.6875 37.203125 44.609375 42.84375 
Q 40.53125 48.484375 33.40625 48.484375 
Q 26.265625 48.484375 22.1875 42.84375 
Q 18.109375 37.203125 18.109375 27.296875 
Q 18.109375 17.390625 22.1875 11.75 
Q 26.265625 6.109375 33.40625 6.109375 
Q 40.53125 6.109375 44.609375 11.75 
Q 48.6875 17.390625 48.6875 27.296875 
z
M 18.109375 46.390625 
Q 20.953125 51.265625 25.265625 53.625 
Q 29.59375 56 35.59375 56 
Q 45.5625 56 51.78125 48.09375 
Q 58.015625 40.1875 58.015625 27.296875 
Q 58.015625 14.40625 51.78125 6.484375 
Q 45.5625 -1.421875 35.59375 -1.421875 
Q 29.59375 -1.421875 25.265625 0.953125 
Q 20.953125 3.328125 18.109375 8.203125 
L 18.109375 0 
L 9.078125 0 
L 9.078125 75.984375 
L 18.109375 75.984375 
z
" id="DejaVuSans-98"/>
     <path d="M 37.109375 75.984375 
L 37.109375 68.5 
L 28.515625 68.5 
Q 23.6875 68.5 21.796875 66.546875 
Q 19.921875 64.59375 19.921875 59.515625 
L 19.921875 54.6875 
L 34.71875 54.6875 
L 34.71875 47.703125 
L 19.921875 47.703125 
L 19.921875 0 
L 10.890625 0 
L 10.890625 47.703125 
L 2.296875 47.703125 
L 2.296875 54.6875 
L 10.890625 54.6875 
L 10.890625 58.5 
Q 10.890625 67.625 15.140625 71.796875 
Q 19.390625 75.984375 28.609375 75.984375 
z
" id="DejaVuSans-102"/>
    </defs>
    <g transform="translate(123.315 35.472)scale(0.12 -0.12)">
     <use xlink:href="#DejaVuSans-80"/>
     <use x="60.255859" xlink:href="#DejaVuSans-111"/>
     <use x="121.4375" xlink:href="#DejaVuSans-112"/>
     <use x="184.914062" xlink:href="#DejaVuSans-117"/>
     <use x="248.292969" xlink:href="#DejaVuSans-108"/>
     <use x="276.076172" xlink:href="#DejaVuSans-97"/>
     <use x="337.355469" xlink:href="#DejaVuSans-116"/>
     <use x="376.564453" xlink:href="#DejaVuSans-105"/>
     <use x="404.347656" xlink:href="#DejaVuSans-111"/>
     <use x="465.529297" xlink:href="#DejaVuSans-110"/>
     <use x="528.908203" xlink:href="#DejaVuSans-39"/>
     <use x="556.398438" xlink:href="#DejaVuSans-115"/>
     <use x="608.498047" xlink:href="#DejaVuSans-32"/>
     <use x="640.285156" xlink:href="#DejaVuSans-97"/>
     <use x="701.564453" xlink:href="#DejaVuSans-118"/>
     <use x="760.744141" xlink:href="#DejaVuSans-101"/>
     <use x="822.267578" xlink:href="#DejaVuSans-114"/>
     <use x="863.380859" xlink:href="#DejaVuSans-97"/>
     <use x="924.660156" xlink:href="#DejaVuSans-103"/>
     <use x="988.136719" xlink:href="#DejaVuSans-101"/>
     <use x="1049.660156" xlink:href="#DejaVuSans-32"/>
     <use x="1081.447266" xlink:href="#DejaVuSans-97"/>
     <use x="1142.726562" xlink:href="#DejaVuSans-110"/>
     <use x="1206.105469" xlink:href="#DejaVuSans-100"/>
     <use x="1269.582031" xlink:href="#DejaVuSans-32"/>
     <use x="1301.369141" xlink:href="#DejaVuSans-98"/>
     <use x="1364.845703" xlink:href="#DejaVuSans-101"/>
     <use x="1426.369141" xlink:href="#DejaVuSans-115"/>
     <use x="1478.46875" xlink:href="#DejaVuSans-116"/>
     <use x="1517.677734" xlink:href="#DejaVuSans-32"/>
     <use x="1549.464844" xlink:href="#DejaVuSans-102"/>
     <use x="1584.669922" xlink:href="#DejaVuSans-105"/>
     <use x="1612.453125" xlink:href="#DejaVuSans-116"/>
     <use x="1651.662109" xlink:href="#DejaVuSans-110"/>
     <use x="1715.041016" xlink:href="#DejaVuSans-101"/>
     <use x="1776.564453" xlink:href="#DejaVuSans-115"/>
     <use x="1828.664062" xlink:href="#DejaVuSans-115"/>
    </g>
   </g>
   <g id="legend_1">
    <g id="patch_7">
     <path d="M 334.779375 302.584 
L 407.72 302.584 
Q 409.72 302.584 409.72 300.584 
L 409.72 242.8715 
Q 409.72 240.8715 407.72 240.8715 
L 334.779375 240.8715 
Q 332.779375 240.8715 332.779375 242.8715 
L 332.779375 300.584 
Q 332.779375 302.584 334.779375 302.584 
z
" style="fill:#ffffff;opacity:0.8;stroke:#cccccc;stroke-linejoin:miter;"/>
    </g>
    <g id="line2d_35">
     <path d="M 336.779375 248.969937 
L 356.779375 248.969937 
" style="fill:none;stroke:#0000ff;stroke-linecap:square;stroke-width:1.5;"/>
    </g>
    <g id="line2d_36"/>
    <g id="text_19">
     <!-- average -->
     <g transform="translate(364.779375 252.469937)scale(0.1 -0.1)">
      <use xlink:href="#DejaVuSans-97"/>
      <use x="61.279297" xlink:href="#DejaVuSans-118"/>
      <use x="120.458984" xlink:href="#DejaVuSans-101"/>
      <use x="181.982422" xlink:href="#DejaVuSans-114"/>
      <use x="223.095703" xlink:href="#DejaVuSans-97"/>
      <use x="284.375" xlink:href="#DejaVuSans-103"/>
      <use x="347.851562" xlink:href="#DejaVuSans-101"/>
     </g>
    </g>
    <g id="line2d_37">
     <path d="M 336.779375 263.648062 
L 356.779375 263.648062 
" style="fill:none;stroke:#008000;stroke-dasharray:9.6,2.4,1.5,2.4;stroke-dashoffset:0;stroke-width:1.5;"/>
    </g>
    <g id="line2d_38"/>
    <g id="text_20">
     <!-- -1 sd -->
     <defs>
      <path d="M 4.890625 31.390625 
L 31.203125 31.390625 
L 31.203125 23.390625 
L 4.890625 23.390625 
z
" id="DejaVuSans-45"/>
     </defs>
     <g transform="translate(364.779375 267.148062)scale(0.1 -0.1)">
      <use xlink:href="#DejaVuSans-45"/>
      <use x="36.083984" xlink:href="#DejaVuSans-49"/>
      <use x="99.707031" xlink:href="#DejaVuSans-32"/>
      <use x="131.494141" xlink:href="#DejaVuSans-115"/>
      <use x="183.59375" xlink:href="#DejaVuSans-100"/>
     </g>
    </g>
    <g id="line2d_39">
     <path d="M 336.779375 278.326187 
L 356.779375 278.326187 
" style="fill:none;stroke:#008000;stroke-dasharray:9.6,2.4,1.5,2.4;stroke-dashoffset:0;stroke-width:1.5;"/>
    </g>
    <g id="line2d_40"/>
    <g id="text_21">
     <!-- +1 sd -->
     <defs>
      <path d="M 46 62.703125 
L 46 35.5 
L 73.1875 35.5 
L 73.1875 27.203125 
L 46 27.203125 
L 46 0 
L 37.796875 0 
L 37.796875 27.203125 
L 10.59375 27.203125 
L 10.59375 35.5 
L 37.796875 35.5 
L 37.796875 62.703125 
z
" id="DejaVuSans-43"/>
     </defs>
     <g transform="translate(364.779375 281.826187)scale(0.1 -0.1)">
      <use xlink:href="#DejaVuSans-43"/>
      <use x="83.789062" xlink:href="#DejaVuSans-49"/>
      <use x="147.412109" xlink:href="#DejaVuSans-32"/>
      <use x="179.199219" xlink:href="#DejaVuSans-115"/>
      <use x="231.298828" xlink:href="#DejaVuSans-100"/>
     </g>
    </g>
    <g id="line2d_41">
     <path d="M 336.779375 293.004312 
L 356.779375 293.004312 
" style="fill:none;stroke:#ff0000;stroke-linecap:square;stroke-width:1.5;"/>
    </g>
    <g id="line2d_42"/>
    <g id="text_22">
     <!-- best -->
     <g transform="translate(364.779375 296.504312)scale(0.1 -0.1)">
      <use xlink:href="#DejaVuSans-98"/>
      <use x="63.476562" xlink:href="#DejaVuSans-101"/>
      <use x="125" xlink:href="#DejaVuSans-115"/>
      <use x="177.099609" xlink:href="#DejaVuSans-116"/>
     </g>
    </g>
   </g>
  </g>
 </g>
 <defs>
  <clipPath id="pb84c98b9c9">
   <rect height="266.112" width="357.12" x="57.6" y="41.472"/>
  </clipPath>
 </defs>
</svg>
