<?xml version="1.0" encoding="utf-8" standalone="no"?>
<!DOCTYPE svg PUBLIC "-//W3C//DTD SVG 1.1//EN"
  "http://www.w3.org/Graphics/SVG/1.1/DTD/svg11.dtd">
<!-- Created with matplotlib (https://matplotlib.org/) -->
<svg height="345.6pt" version="1.1" viewBox="0 0 460.8 345.6" width="460.8pt" xmlns="http://www.w3.org/2000/svg" xmlns:xlink="http://www.w3.org/1999/xlink">
 <defs>
  <style type="text/css">
*{stroke-linecap:butt;stroke-linejoin:round;}
  </style>
 </defs>
 <g id="figure_1">
  <g id="patch_1">
   <path d="M 0 345.6 
L 460.8 345.6 
L 460.8 0 
L 0 0 
z
" style="fill:#ffffff;"/>
  </g>
  <g id="axes_1">
   <g id="patch_2">
    <path d="M 57.6 307.584 
L 414.72 307.584 
L 414.72 41.472 
L 57.6 41.472 
z
" style="fill:#ffffff;"/>
   </g>
   <g id="matplotlib.axis_1">
    <g id="xtick_1">
     <g id="line2d_1">
      <path clip-path="url(#p2defe913fe)" d="M 73.832727 307.584 
L 73.832727 41.472 
" style="fill:none;stroke:#b0b0b0;stroke-linecap:square;stroke-width:0.8;"/>
     </g>
     <g id="line2d_2">
      <defs>
       <path d="M 0 0 
L 0 3.5 
" id="m8d5bd57a5a" style="stroke:#000000;stroke-width:0.8;"/>
      </defs>
      <g>
       <use style="stroke:#000000;stroke-width:0.8;" x="73.832727" xlink:href="#m8d5bd57a5a" y="307.584"/>
      </g>
     </g>
     <g id="text_1">
      <!-- 0 -->
      <defs>
       <path d="M 31.78125 66.40625 
Q 24.171875 66.40625 20.328125 58.90625 
Q 16.5 51.421875 16.5 36.375 
Q 16.5 21.390625 20.328125 13.890625 
Q 24.171875 6.390625 31.78125 6.390625 
Q 39.453125 6.390625 43.28125 13.890625 
Q 47.125 21.390625 47.125 36.375 
Q 47.125 51.421875 43.28125 58.90625 
Q 39.453125 66.40625 31.78125 66.40625 
z
M 31.78125 74.21875 
Q 44.046875 74.21875 50.515625 64.515625 
Q 56.984375 54.828125 56.984375 36.375 
Q 56.984375 17.96875 50.515625 8.265625 
Q 44.046875 -1.421875 31.78125 -1.421875 
Q 19.53125 -1.421875 13.0625 8.265625 
Q 6.59375 17.96875 6.59375 36.375 
Q 6.59375 54.828125 13.0625 64.515625 
Q 19.53125 74.21875 31.78125 74.21875 
z
" id="DejaVuSans-48"/>
      </defs>
      <g transform="translate(70.651477 322.182437)scale(0.1 -0.1)">
       <use xlink:href="#DejaVuSans-48"/>
      </g>
     </g>
    </g>
    <g id="xtick_2">
     <g id="line2d_3">
      <path clip-path="url(#p2defe913fe)" d="M 128.122785 307.584 
L 128.122785 41.472 
" style="fill:none;stroke:#b0b0b0;stroke-linecap:square;stroke-width:0.8;"/>
     </g>
     <g id="line2d_4">
      <g>
       <use style="stroke:#000000;stroke-width:0.8;" x="128.122785" xlink:href="#m8d5bd57a5a" y="307.584"/>
      </g>
     </g>
     <g id="text_2">
      <!-- 50 -->
      <defs>
       <path d="M 10.796875 72.90625 
L 49.515625 72.90625 
L 49.515625 64.59375 
L 19.828125 64.59375 
L 19.828125 46.734375 
Q 21.96875 47.46875 24.109375 47.828125 
Q 26.265625 48.1875 28.421875 48.1875 
Q 40.625 48.1875 47.75 41.5 
Q 54.890625 34.8125 54.890625 23.390625 
Q 54.890625 11.625 47.5625 5.09375 
Q 40.234375 -1.421875 26.90625 -1.421875 
Q 22.3125 -1.421875 17.546875 -0.640625 
Q 12.796875 0.140625 7.71875 1.703125 
L 7.71875 11.625 
Q 12.109375 9.234375 16.796875 8.0625 
Q 21.484375 6.890625 26.703125 6.890625 
Q 35.15625 6.890625 40.078125 11.328125 
Q 45.015625 15.765625 45.015625 23.390625 
Q 45.015625 31 40.078125 35.4375 
Q 35.15625 39.890625 26.703125 39.890625 
Q 22.75 39.890625 18.8125 39.015625 
Q 14.890625 38.140625 10.796875 36.28125 
z
" id="DejaVuSans-53"/>
      </defs>
      <g transform="translate(121.760285 322.182437)scale(0.1 -0.1)">
       <use xlink:href="#DejaVuSans-53"/>
       <use x="63.623047" xlink:href="#DejaVuSans-48"/>
      </g>
     </g>
    </g>
    <g id="xtick_3">
     <g id="line2d_5">
      <path clip-path="url(#p2defe913fe)" d="M 182.412843 307.584 
L 182.412843 41.472 
" style="fill:none;stroke:#b0b0b0;stroke-linecap:square;stroke-width:0.8;"/>
     </g>
     <g id="line2d_6">
      <g>
       <use style="stroke:#000000;stroke-width:0.8;" x="182.412843" xlink:href="#m8d5bd57a5a" y="307.584"/>
      </g>
     </g>
     <g id="text_3">
      <!-- 100 -->
      <defs>
       <path d="M 12.40625 8.296875 
L 28.515625 8.296875 
L 28.515625 63.921875 
L 10.984375 60.40625 
L 10.984375 69.390625 
L 28.421875 72.90625 
L 38.28125 72.90625 
L 38.28125 8.296875 
L 54.390625 8.296875 
L 54.390625 0 
L 12.40625 0 
z
" id="DejaVuSans-49"/>
      </defs>
      <g transform="translate(172.869093 322.182437)scale(0.1 -0.1)">
       <use xlink:href="#DejaVuSans-49"/>
       <use x="63.623047" xlink:href="#DejaVuSans-48"/>
       <use x="127.246094" xlink:href="#DejaVuSans-48"/>
      </g>
     </g>
    </g>
    <g id="xtick_4">
     <g id="line2d_7">
      <path clip-path="url(#p2defe913fe)" d="M 236.702901 307.584 
L 236.702901 41.472 
" style="fill:none;stroke:#b0b0b0;stroke-linecap:square;stroke-width:0.8;"/>
     </g>
     <g id="line2d_8">
      <g>
       <use style="stroke:#000000;stroke-width:0.8;" x="236.702901" xlink:href="#m8d5bd57a5a" y="307.584"/>
      </g>
     </g>
     <g id="text_4">
      <!-- 150 -->
      <g transform="translate(227.159151 322.182437)scale(0.1 -0.1)">
       <use xlink:href="#DejaVuSans-49"/>
       <use x="63.623047" xlink:href="#DejaVuSans-53"/>
       <use x="127.246094" xlink:href="#DejaVuSans-48"/>
      </g>
     </g>
    </g>
    <g id="xtick_5">
     <g id="line2d_9">
      <path clip-path="url(#p2defe913fe)" d="M 290.992958 307.584 
L 290.992958 41.472 
" style="fill:none;stroke:#b0b0b0;stroke-linecap:square;stroke-width:0.8;"/>
     </g>
     <g id="line2d_10">
      <g>
       <use style="stroke:#000000;stroke-width:0.8;" x="290.992958" xlink:href="#m8d5bd57a5a" y="307.584"/>
      </g>
     </g>
     <g id="text_5">
      <!-- 200 -->
      <defs>
       <path d="M 19.1875 8.296875 
L 53.609375 8.296875 
L 53.609375 0 
L 7.328125 0 
L 7.328125 8.296875 
Q 12.9375 14.109375 22.625 23.890625 
Q 32.328125 33.6875 34.8125 36.53125 
Q 39.546875 41.84375 41.421875 45.53125 
Q 43.3125 49.21875 43.3125 52.78125 
Q 43.3125 58.59375 39.234375 62.25 
Q 35.15625 65.921875 28.609375 65.921875 
Q 23.96875 65.921875 18.8125 64.3125 
Q 13.671875 62.703125 7.8125 59.421875 
L 7.8125 69.390625 
Q 13.765625 71.78125 18.9375 73 
Q 24.125 74.21875 28.421875 74.21875 
Q 39.75 74.21875 46.484375 68.546875 
Q 53.21875 62.890625 53.21875 53.421875 
Q 53.21875 48.921875 51.53125 44.890625 
Q 49.859375 40.875 45.40625 35.40625 
Q 44.1875 33.984375 37.640625 27.21875 
Q 31.109375 20.453125 19.1875 8.296875 
z
" id="DejaVuSans-50"/>
      </defs>
      <g transform="translate(281.449208 322.182437)scale(0.1 -0.1)">
       <use xlink:href="#DejaVuSans-50"/>
       <use x="63.623047" xlink:href="#DejaVuSans-48"/>
       <use x="127.246094" xlink:href="#DejaVuSans-48"/>
      </g>
     </g>
    </g>
    <g id="xtick_6">
     <g id="line2d_11">
      <path clip-path="url(#p2defe913fe)" d="M 345.283016 307.584 
L 345.283016 41.472 
" style="fill:none;stroke:#b0b0b0;stroke-linecap:square;stroke-width:0.8;"/>
     </g>
     <g id="line2d_12">
      <g>
       <use style="stroke:#000000;stroke-width:0.8;" x="345.283016" xlink:href="#m8d5bd57a5a" y="307.584"/>
      </g>
     </g>
     <g id="text_6">
      <!-- 250 -->
      <g transform="translate(335.739266 322.182437)scale(0.1 -0.1)">
       <use xlink:href="#DejaVuSans-50"/>
       <use x="63.623047" xlink:href="#DejaVuSans-53"/>
       <use x="127.246094" xlink:href="#DejaVuSans-48"/>
      </g>
     </g>
    </g>
    <g id="xtick_7">
     <g id="line2d_13">
      <path clip-path="url(#p2defe913fe)" d="M 399.573074 307.584 
L 399.573074 41.472 
" style="fill:none;stroke:#b0b0b0;stroke-linecap:square;stroke-width:0.8;"/>
     </g>
     <g id="line2d_14">
      <g>
       <use style="stroke:#000000;stroke-width:0.8;" x="399.573074" xlink:href="#m8d5bd57a5a" y="307.584"/>
      </g>
     </g>
     <g id="text_7">
      <!-- 300 -->
      <defs>
       <path d="M 40.578125 39.3125 
Q 47.65625 37.796875 51.625 33 
Q 55.609375 28.21875 55.609375 21.1875 
Q 55.609375 10.40625 48.1875 4.484375 
Q 40.765625 -1.421875 27.09375 -1.421875 
Q 22.515625 -1.421875 17.65625 -0.515625 
Q 12.796875 0.390625 7.625 2.203125 
L 7.625 11.71875 
Q 11.71875 9.328125 16.59375 8.109375 
Q 21.484375 6.890625 26.8125 6.890625 
Q 36.078125 6.890625 40.9375 10.546875 
Q 45.796875 14.203125 45.796875 21.1875 
Q 45.796875 27.640625 41.28125 31.265625 
Q 36.765625 34.90625 28.71875 34.90625 
L 20.21875 34.90625 
L 20.21875 43.015625 
L 29.109375 43.015625 
Q 36.375 43.015625 40.234375 45.921875 
Q 44.09375 48.828125 44.09375 54.296875 
Q 44.09375 59.90625 40.109375 62.90625 
Q 36.140625 65.921875 28.71875 65.921875 
Q 24.65625 65.921875 20.015625 65.03125 
Q 15.375 64.15625 9.8125 62.3125 
L 9.8125 71.09375 
Q 15.4375 72.65625 20.34375 73.4375 
Q 25.25 74.21875 29.59375 74.21875 
Q 40.828125 74.21875 47.359375 69.109375 
Q 53.90625 64.015625 53.90625 55.328125 
Q 53.90625 49.265625 50.4375 45.09375 
Q 46.96875 40.921875 40.578125 39.3125 
z
" id="DejaVuSans-51"/>
      </defs>
      <g transform="translate(390.029324 322.182437)scale(0.1 -0.1)">
       <use xlink:href="#DejaVuSans-51"/>
       <use x="63.623047" xlink:href="#DejaVuSans-48"/>
       <use x="127.246094" xlink:href="#DejaVuSans-48"/>
      </g>
     </g>
    </g>
    <g id="text_8">
     <!-- Generations -->
     <defs>
      <path d="M 59.515625 10.40625 
L 59.515625 29.984375 
L 43.40625 29.984375 
L 43.40625 38.09375 
L 69.28125 38.09375 
L 69.28125 6.78125 
Q 63.578125 2.734375 56.6875 0.65625 
Q 49.8125 -1.421875 42 -1.421875 
Q 24.90625 -1.421875 15.25 8.5625 
Q 5.609375 18.5625 5.609375 36.375 
Q 5.609375 54.25 15.25 64.234375 
Q 24.90625 74.21875 42 74.21875 
Q 49.125 74.21875 55.546875 72.453125 
Q 61.96875 70.703125 67.390625 67.28125 
L 67.390625 56.78125 
Q 61.921875 61.421875 55.765625 63.765625 
Q 49.609375 66.109375 42.828125 66.109375 
Q 29.4375 66.109375 22.71875 58.640625 
Q 16.015625 51.171875 16.015625 36.375 
Q 16.015625 21.625 22.71875 14.15625 
Q 29.4375 6.6875 42.828125 6.6875 
Q 48.046875 6.6875 52.140625 7.59375 
Q 56.25 8.5 59.515625 10.40625 
z
" id="DejaVuSans-71"/>
      <path d="M 56.203125 29.59375 
L 56.203125 25.203125 
L 14.890625 25.203125 
Q 15.484375 15.921875 20.484375 11.0625 
Q 25.484375 6.203125 34.421875 6.203125 
Q 39.59375 6.203125 44.453125 7.46875 
Q 49.3125 8.734375 54.109375 11.28125 
L 54.109375 2.78125 
Q 49.265625 0.734375 44.1875 -0.34375 
Q 39.109375 -1.421875 33.890625 -1.421875 
Q 20.796875 -1.421875 13.15625 6.1875 
Q 5.515625 13.8125 5.515625 26.8125 
Q 5.515625 40.234375 12.765625 48.109375 
Q 20.015625 56 32.328125 56 
Q 43.359375 56 49.78125 48.890625 
Q 56.203125 41.796875 56.203125 29.59375 
z
M 47.21875 32.234375 
Q 47.125 39.59375 43.09375 43.984375 
Q 39.0625 48.390625 32.421875 48.390625 
Q 24.90625 48.390625 20.390625 44.140625 
Q 15.875 39.890625 15.1875 32.171875 
z
" id="DejaVuSans-101"/>
      <path d="M 54.890625 33.015625 
L 54.890625 0 
L 45.90625 0 
L 45.90625 32.71875 
Q 45.90625 40.484375 42.875 44.328125 
Q 39.84375 48.1875 33.796875 48.1875 
Q 26.515625 48.1875 22.3125 43.546875 
Q 18.109375 38.921875 18.109375 30.90625 
L 18.109375 0 
L 9.078125 0 
L 9.078125 54.6875 
L 18.109375 54.6875 
L 18.109375 46.1875 
Q 21.34375 51.125 25.703125 53.5625 
Q 30.078125 56 35.796875 56 
Q 45.21875 56 50.046875 50.171875 
Q 54.890625 44.34375 54.890625 33.015625 
z
" id="DejaVuSans-110"/>
      <path d="M 41.109375 46.296875 
Q 39.59375 47.171875 37.8125 47.578125 
Q 36.03125 48 33.890625 48 
Q 26.265625 48 22.1875 43.046875 
Q 18.109375 38.09375 18.109375 28.8125 
L 18.109375 0 
L 9.078125 0 
L 9.078125 54.6875 
L 18.109375 54.6875 
L 18.109375 46.1875 
Q 20.953125 51.171875 25.484375 53.578125 
Q 30.03125 56 36.53125 56 
Q 37.453125 56 38.578125 55.875 
Q 39.703125 55.765625 41.0625 55.515625 
z
" id="DejaVuSans-114"/>
      <path d="M 34.28125 27.484375 
Q 23.390625 27.484375 19.1875 25 
Q 14.984375 22.515625 14.984375 16.5 
Q 14.984375 11.71875 18.140625 8.90625 
Q 21.296875 6.109375 26.703125 6.109375 
Q 34.1875 6.109375 38.703125 11.40625 
Q 43.21875 16.703125 43.21875 25.484375 
L 43.21875 27.484375 
z
M 52.203125 31.203125 
L 52.203125 0 
L 43.21875 0 
L 43.21875 8.296875 
Q 40.140625 3.328125 35.546875 0.953125 
Q 30.953125 -1.421875 24.3125 -1.421875 
Q 15.921875 -1.421875 10.953125 3.296875 
Q 6 8.015625 6 15.921875 
Q 6 25.140625 12.171875 29.828125 
Q 18.359375 34.515625 30.609375 34.515625 
L 43.21875 34.515625 
L 43.21875 35.40625 
Q 43.21875 41.609375 39.140625 45 
Q 35.0625 48.390625 27.6875 48.390625 
Q 23 48.390625 18.546875 47.265625 
Q 14.109375 46.140625 10.015625 43.890625 
L 10.015625 52.203125 
Q 14.9375 54.109375 19.578125 55.046875 
Q 24.21875 56 28.609375 56 
Q 40.484375 56 46.34375 49.84375 
Q 52.203125 43.703125 52.203125 31.203125 
z
" id="DejaVuSans-97"/>
      <path d="M 18.3125 70.21875 
L 18.3125 54.6875 
L 36.8125 54.6875 
L 36.8125 47.703125 
L 18.3125 47.703125 
L 18.3125 18.015625 
Q 18.3125 11.328125 20.140625 9.421875 
Q 21.96875 7.515625 27.59375 7.515625 
L 36.8125 7.515625 
L 36.8125 0 
L 27.59375 0 
Q 17.1875 0 13.234375 3.875 
Q 9.28125 7.765625 9.28125 18.015625 
L 9.28125 47.703125 
L 2.6875 47.703125 
L 2.6875 54.6875 
L 9.28125 54.6875 
L 9.28125 70.21875 
z
" id="DejaVuSans-116"/>
      <path d="M 9.421875 54.6875 
L 18.40625 54.6875 
L 18.40625 0 
L 9.421875 0 
z
M 9.421875 75.984375 
L 18.40625 75.984375 
L 18.40625 64.59375 
L 9.421875 64.59375 
z
" id="DejaVuSans-105"/>
      <path d="M 30.609375 48.390625 
Q 23.390625 48.390625 19.1875 42.75 
Q 14.984375 37.109375 14.984375 27.296875 
Q 14.984375 17.484375 19.15625 11.84375 
Q 23.34375 6.203125 30.609375 6.203125 
Q 37.796875 6.203125 41.984375 11.859375 
Q 46.1875 17.53125 46.1875 27.296875 
Q 46.1875 37.015625 41.984375 42.703125 
Q 37.796875 48.390625 30.609375 48.390625 
z
M 30.609375 56 
Q 42.328125 56 49.015625 48.375 
Q 55.71875 40.765625 55.71875 27.296875 
Q 55.71875 13.875 49.015625 6.21875 
Q 42.328125 -1.421875 30.609375 -1.421875 
Q 18.84375 -1.421875 12.171875 6.21875 
Q 5.515625 13.875 5.515625 27.296875 
Q 5.515625 40.765625 12.171875 48.375 
Q 18.84375 56 30.609375 56 
z
" id="DejaVuSans-111"/>
      <path d="M 44.28125 53.078125 
L 44.28125 44.578125 
Q 40.484375 46.53125 36.375 47.5 
Q 32.28125 48.484375 27.875 48.484375 
Q 21.1875 48.484375 17.84375 46.4375 
Q 14.5 44.390625 14.5 40.28125 
Q 14.5 37.15625 16.890625 35.375 
Q 19.28125 33.59375 26.515625 31.984375 
L 29.59375 31.296875 
Q 39.15625 29.25 43.1875 25.515625 
Q 47.21875 21.78125 47.21875 15.09375 
Q 47.21875 7.46875 41.1875 3.015625 
Q 35.15625 -1.421875 24.609375 -1.421875 
Q 20.21875 -1.421875 15.453125 -0.5625 
Q 10.6875 0.296875 5.421875 2 
L 5.421875 11.28125 
Q 10.40625 8.6875 15.234375 7.390625 
Q 20.0625 6.109375 24.8125 6.109375 
Q 31.15625 6.109375 34.5625 8.28125 
Q 37.984375 10.453125 37.984375 14.40625 
Q 37.984375 18.0625 35.515625 20.015625 
Q 33.0625 21.96875 24.703125 23.78125 
L 21.578125 24.515625 
Q 13.234375 26.265625 9.515625 29.90625 
Q 5.8125 33.546875 5.8125 39.890625 
Q 5.8125 47.609375 11.28125 51.796875 
Q 16.75 56 26.8125 56 
Q 31.78125 56 36.171875 55.265625 
Q 40.578125 54.546875 44.28125 53.078125 
z
" id="DejaVuSans-115"/>
     </defs>
     <g transform="translate(205.662344 335.860562)scale(0.1 -0.1)">
      <use xlink:href="#DejaVuSans-71"/>
      <use x="77.490234" xlink:href="#DejaVuSans-101"/>
      <use x="139.013672" xlink:href="#DejaVuSans-110"/>
      <use x="202.392578" xlink:href="#DejaVuSans-101"/>
      <use x="263.916016" xlink:href="#DejaVuSans-114"/>
      <use x="305.029297" xlink:href="#DejaVuSans-97"/>
      <use x="366.308594" xlink:href="#DejaVuSans-116"/>
      <use x="405.517578" xlink:href="#DejaVuSans-105"/>
      <use x="433.300781" xlink:href="#DejaVuSans-111"/>
      <use x="494.482422" xlink:href="#DejaVuSans-110"/>
      <use x="557.861328" xlink:href="#DejaVuSans-115"/>
     </g>
    </g>
   </g>
   <g id="matplotlib.axis_2">
    <g id="ytick_1">
     <g id="line2d_15">
      <path clip-path="url(#p2defe913fe)" d="M 57.6 297.556235 
L 414.72 297.556235 
" style="fill:none;stroke:#b0b0b0;stroke-linecap:square;stroke-width:0.8;"/>
     </g>
     <g id="line2d_16">
      <defs>
       <path d="M 0 0 
L -3.5 0 
" id="m53a95dcf77" style="stroke:#000000;stroke-width:0.8;"/>
      </defs>
      <g>
       <use style="stroke:#000000;stroke-width:0.8;" x="57.6" xlink:href="#m53a95dcf77" y="297.556235"/>
      </g>
     </g>
     <g id="text_9">
      <!-- 500 -->
      <g transform="translate(31.5125 301.355453)scale(0.1 -0.1)">
       <use xlink:href="#DejaVuSans-53"/>
       <use x="63.623047" xlink:href="#DejaVuSans-48"/>
       <use x="127.246094" xlink:href="#DejaVuSans-48"/>
      </g>
     </g>
    </g>
    <g id="ytick_2">
     <g id="line2d_17">
      <path clip-path="url(#p2defe913fe)" d="M 57.6 267.72422 
L 414.72 267.72422 
" style="fill:none;stroke:#b0b0b0;stroke-linecap:square;stroke-width:0.8;"/>
     </g>
     <g id="line2d_18">
      <g>
       <use style="stroke:#000000;stroke-width:0.8;" x="57.6" xlink:href="#m53a95dcf77" y="267.72422"/>
      </g>
     </g>
     <g id="text_10">
      <!-- 750 -->
      <defs>
       <path d="M 8.203125 72.90625 
L 55.078125 72.90625 
L 55.078125 68.703125 
L 28.609375 0 
L 18.3125 0 
L 43.21875 64.59375 
L 8.203125 64.59375 
z
" id="DejaVuSans-55"/>
      </defs>
      <g transform="translate(31.5125 271.523439)scale(0.1 -0.1)">
       <use xlink:href="#DejaVuSans-55"/>
       <use x="63.623047" xlink:href="#DejaVuSans-53"/>
       <use x="127.246094" xlink:href="#DejaVuSans-48"/>
      </g>
     </g>
    </g>
    <g id="ytick_3">
     <g id="line2d_19">
      <path clip-path="url(#p2defe913fe)" d="M 57.6 237.892206 
L 414.72 237.892206 
" style="fill:none;stroke:#b0b0b0;stroke-linecap:square;stroke-width:0.8;"/>
     </g>
     <g id="line2d_20">
      <g>
       <use style="stroke:#000000;stroke-width:0.8;" x="57.6" xlink:href="#m53a95dcf77" y="237.892206"/>
      </g>
     </g>
     <g id="text_11">
      <!-- 1000 -->
      <g transform="translate(25.15 241.691425)scale(0.1 -0.1)">
       <use xlink:href="#DejaVuSans-49"/>
       <use x="63.623047" xlink:href="#DejaVuSans-48"/>
       <use x="127.246094" xlink:href="#DejaVuSans-48"/>
       <use x="190.869141" xlink:href="#DejaVuSans-48"/>
      </g>
     </g>
    </g>
    <g id="ytick_4">
     <g id="line2d_21">
      <path clip-path="url(#p2defe913fe)" d="M 57.6 208.060192 
L 414.72 208.060192 
" style="fill:none;stroke:#b0b0b0;stroke-linecap:square;stroke-width:0.8;"/>
     </g>
     <g id="line2d_22">
      <g>
       <use style="stroke:#000000;stroke-width:0.8;" x="57.6" xlink:href="#m53a95dcf77" y="208.060192"/>
      </g>
     </g>
     <g id="text_12">
      <!-- 1250 -->
      <g transform="translate(25.15 211.859411)scale(0.1 -0.1)">
       <use xlink:href="#DejaVuSans-49"/>
       <use x="63.623047" xlink:href="#DejaVuSans-50"/>
       <use x="127.246094" xlink:href="#DejaVuSans-53"/>
       <use x="190.869141" xlink:href="#DejaVuSans-48"/>
      </g>
     </g>
    </g>
    <g id="ytick_5">
     <g id="line2d_23">
      <path clip-path="url(#p2defe913fe)" d="M 57.6 178.228178 
L 414.72 178.228178 
" style="fill:none;stroke:#b0b0b0;stroke-linecap:square;stroke-width:0.8;"/>
     </g>
     <g id="line2d_24">
      <g>
       <use style="stroke:#000000;stroke-width:0.8;" x="57.6" xlink:href="#m53a95dcf77" y="178.228178"/>
      </g>
     </g>
     <g id="text_13">
      <!-- 1500 -->
      <g transform="translate(25.15 182.027396)scale(0.1 -0.1)">
       <use xlink:href="#DejaVuSans-49"/>
       <use x="63.623047" xlink:href="#DejaVuSans-53"/>
       <use x="127.246094" xlink:href="#DejaVuSans-48"/>
       <use x="190.869141" xlink:href="#DejaVuSans-48"/>
      </g>
     </g>
    </g>
    <g id="ytick_6">
     <g id="line2d_25">
      <path clip-path="url(#p2defe913fe)" d="M 57.6 148.396164 
L 414.72 148.396164 
" style="fill:none;stroke:#b0b0b0;stroke-linecap:square;stroke-width:0.8;"/>
     </g>
     <g id="line2d_26">
      <g>
       <use style="stroke:#000000;stroke-width:0.8;" x="57.6" xlink:href="#m53a95dcf77" y="148.396164"/>
      </g>
     </g>
     <g id="text_14">
      <!-- 1750 -->
      <g transform="translate(25.15 152.195382)scale(0.1 -0.1)">
       <use xlink:href="#DejaVuSans-49"/>
       <use x="63.623047" xlink:href="#DejaVuSans-55"/>
       <use x="127.246094" xlink:href="#DejaVuSans-53"/>
       <use x="190.869141" xlink:href="#DejaVuSans-48"/>
      </g>
     </g>
    </g>
    <g id="ytick_7">
     <g id="line2d_27">
      <path clip-path="url(#p2defe913fe)" d="M 57.6 118.564149 
L 414.72 118.564149 
" style="fill:none;stroke:#b0b0b0;stroke-linecap:square;stroke-width:0.8;"/>
     </g>
     <g id="line2d_28">
      <g>
       <use style="stroke:#000000;stroke-width:0.8;" x="57.6" xlink:href="#m53a95dcf77" y="118.564149"/>
      </g>
     </g>
     <g id="text_15">
      <!-- 2000 -->
      <g transform="translate(25.15 122.363368)scale(0.1 -0.1)">
       <use xlink:href="#DejaVuSans-50"/>
       <use x="63.623047" xlink:href="#DejaVuSans-48"/>
       <use x="127.246094" xlink:href="#DejaVuSans-48"/>
       <use x="190.869141" xlink:href="#DejaVuSans-48"/>
      </g>
     </g>
    </g>
    <g id="ytick_8">
     <g id="line2d_29">
      <path clip-path="url(#p2defe913fe)" d="M 57.6 88.732135 
L 414.72 88.732135 
" style="fill:none;stroke:#b0b0b0;stroke-linecap:square;stroke-width:0.8;"/>
     </g>
     <g id="line2d_30">
      <g>
       <use style="stroke:#000000;stroke-width:0.8;" x="57.6" xlink:href="#m53a95dcf77" y="88.732135"/>
      </g>
     </g>
     <g id="text_16">
      <!-- 2250 -->
      <g transform="translate(25.15 92.531354)scale(0.1 -0.1)">
       <use xlink:href="#DejaVuSans-50"/>
       <use x="63.623047" xlink:href="#DejaVuSans-50"/>
       <use x="127.246094" xlink:href="#DejaVuSans-53"/>
       <use x="190.869141" xlink:href="#DejaVuSans-48"/>
      </g>
     </g>
    </g>
    <g id="ytick_9">
     <g id="line2d_31">
      <path clip-path="url(#p2defe913fe)" d="M 57.6 58.900121 
L 414.72 58.900121 
" style="fill:none;stroke:#b0b0b0;stroke-linecap:square;stroke-width:0.8;"/>
     </g>
     <g id="line2d_32">
      <g>
       <use style="stroke:#000000;stroke-width:0.8;" x="57.6" xlink:href="#m53a95dcf77" y="58.900121"/>
      </g>
     </g>
     <g id="text_17">
      <!-- 2500 -->
      <g transform="translate(25.15 62.69934)scale(0.1 -0.1)">
       <use xlink:href="#DejaVuSans-50"/>
       <use x="63.623047" xlink:href="#DejaVuSans-53"/>
       <use x="127.246094" xlink:href="#DejaVuSans-48"/>
       <use x="190.869141" xlink:href="#DejaVuSans-48"/>
      </g>
     </g>
    </g>
    <g id="text_18">
     <!-- Fitness -->
     <defs>
      <path d="M 9.8125 72.90625 
L 51.703125 72.90625 
L 51.703125 64.59375 
L 19.671875 64.59375 
L 19.671875 43.109375 
L 48.578125 43.109375 
L 48.578125 34.8125 
L 19.671875 34.8125 
L 19.671875 0 
L 9.8125 0 
z
" id="DejaVuSans-70"/>
     </defs>
     <g transform="translate(19.070312 192.202219)rotate(-90)scale(0.1 -0.1)">
      <use xlink:href="#DejaVuSans-70"/>
      <use x="57.410156" xlink:href="#DejaVuSans-105"/>
      <use x="85.193359" xlink:href="#DejaVuSans-116"/>
      <use x="124.402344" xlink:href="#DejaVuSans-110"/>
      <use x="187.78125" xlink:href="#DejaVuSans-101"/>
      <use x="249.304688" xlink:href="#DejaVuSans-115"/>
      <use x="301.404297" xlink:href="#DejaVuSans-115"/>
     </g>
    </g>
   </g>
   <g id="line2d_33">
    <path clip-path="url(#p2defe913fe)" d="M 73.832727 257.075281 
L 74.918528 225.040266 
L 76.00433 216.806302 
L 77.090131 216.817361 
L 78.175932 205.987544 
L 79.261733 198.380634 
L 80.347534 189.097751 
L 81.433335 193.952784 
L 82.519137 187.676326 
L 83.604938 186.940281 
L 84.690739 183.040569 
L 85.77654 194.218382 
L 86.862341 177.181735 
L 87.948142 172.866955 
L 89.033943 164.92414 
L 90.119745 163.529273 
L 91.205546 161.357841 
L 92.291347 166.420612 
L 93.377148 160.764309 
L 94.462949 161.203472 
L 95.54875 140.901343 
L 96.634552 161.800051 
L 97.720353 171.982455 
L 98.806154 167.031758 
L 99.891955 154.107064 
L 100.977756 139.650464 
L 102.063557 144.028875 
L 103.149358 152.941198 
L 104.23516 146.295897 
L 105.320961 131.221846 
L 106.406762 141.239135 
L 107.492563 144.406032 
L 108.578364 138.1548 
L 109.664165 134.500341 
L 110.749967 138.373301 
L 111.835768 148.579124 
L 112.921569 137.684993 
L 114.00737 130.072624 
L 115.093171 129.284479 
L 116.178972 136.841453 
L 117.264773 142.170684 
L 118.350575 125.378342 
L 119.436376 132.934845 
L 120.522177 132.253855 
L 121.607978 129.347251 
L 122.693779 137.864822 
L 123.77958 142.180952 
L 124.865382 129.419136 
L 125.951183 123.834712 
L 127.036984 129.20789 
L 128.122785 126.626325 
L 129.208586 117.459166 
L 130.294387 131.016964 
L 131.380189 128.740353 
L 132.46599 132.499631 
L 133.551791 125.120072 
L 134.637592 128.302483 
L 135.723393 113.446448 
L 136.809194 116.183663 
L 137.894995 121.979099 
L 138.980797 115.483512 
L 140.066598 114.916394 
L 141.152399 113.524454 
L 142.2382 121.768563 
L 143.324001 120.388634 
L 144.409802 110.261538 
L 145.495604 115.769488 
L 146.581405 115.344706 
L 148.753007 108.124685 
L 149.838808 107.853882 
L 152.01041 118.746332 
L 153.096212 118.182646 
L 154.182013 105.076577 
L 155.267814 108.939591 
L 156.353615 111.29167 
L 157.439416 121.434091 
L 158.525217 111.047426 
L 159.611019 113.185427 
L 160.69682 140.764349 
L 161.782621 118.128212 
L 162.868422 117.838039 
L 163.954223 129.120194 
L 165.040024 128.796632 
L 166.125825 138.711046 
L 167.211627 124.272135 
L 168.297428 128.736726 
L 169.383229 123.619489 
L 170.46903 123.001837 
L 171.554831 114.681911 
L 172.640632 109.017519 
L 173.726434 125.329424 
L 174.812235 106.866615 
L 175.898036 125.589598 
L 176.983837 115.326083 
L 178.069638 108.801649 
L 179.155439 115.49743 
L 180.24124 114.606408 
L 181.327042 114.12997 
L 182.412843 110.260071 
L 183.498644 105.887551 
L 184.584445 116.109094 
L 185.670246 123.68103 
L 186.756047 114.034186 
L 187.841849 125.117083 
L 188.92765 103.647231 
L 191.099252 120.758048 
L 192.185053 111.525848 
L 193.270854 109.575091 
L 194.356656 113.28208 
L 195.442457 107.923974 
L 196.528258 123.457053 
L 197.614059 121.899527 
L 198.69986 100.366421 
L 199.785661 109.217569 
L 200.871462 121.164735 
L 201.957264 109.028355 
L 203.043065 115.992137 
L 204.128866 109.833675 
L 205.214667 115.934584 
L 206.300468 112.585385 
L 207.386269 105.378399 
L 208.472071 109.973295 
L 209.557872 118.79815 
L 210.643673 117.896833 
L 211.729474 121.633633 
L 212.815275 116.839614 
L 213.901076 125.737316 
L 214.986877 104.886623 
L 216.072679 117.785518 
L 217.15848 117.435826 
L 218.244281 130.049707 
L 219.330082 130.096458 
L 220.415883 118.52095 
L 221.501684 117.784591 
L 222.587486 130.739437 
L 223.673287 125.671045 
L 224.759088 111.984666 
L 225.844889 109.553625 
L 226.93069 122.483934 
L 228.016491 122.629138 
L 229.102292 114.677892 
L 230.188094 113.57355 
L 231.273895 107.483897 
L 232.359696 114.951806 
L 233.445497 109.547051 
L 234.531298 124.190636 
L 235.617099 109.03652 
L 236.702901 112.976641 
L 237.788702 118.504952 
L 238.874503 128.391649 
L 239.960304 114.287171 
L 241.046105 110.793207 
L 242.131906 105.342245 
L 243.217708 106.638452 
L 244.303509 111.976221 
L 245.38931 123.801679 
L 246.475111 115.868951 
L 247.560912 119.229756 
L 248.646713 110.428755 
L 249.732514 112.050918 
L 250.818316 122.755315 
L 251.904117 120.555643 
L 252.989918 114.746832 
L 254.075719 124.735108 
L 255.16152 124.966566 
L 256.247321 135.212233 
L 257.333123 125.349504 
L 258.418924 146.574463 
L 259.504725 126.031823 
L 260.590526 125.826882 
L 261.676327 120.896709 
L 263.847929 140.119674 
L 264.933731 134.352053 
L 266.019532 138.49246 
L 267.105333 133.14083 
L 268.191134 131.107101 
L 269.276935 110.72433 
L 270.362736 113.827929 
L 271.448538 109.754039 
L 272.534339 110.562421 
L 273.62014 113.30015 
L 274.705941 117.300775 
L 275.791742 123.830261 
L 276.877543 115.374717 
L 277.963344 113.079203 
L 279.049146 115.868066 
L 280.134947 112.680392 
L 281.220748 121.825104 
L 282.306549 119.214766 
L 283.39235 104.717914 
L 284.478151 113.968595 
L 285.563953 119.183009 
L 286.649754 121.197114 
L 287.735555 116.855775 
L 288.821356 113.808904 
L 289.907157 112.360301 
L 292.07876 121.975826 
L 293.164561 124.348044 
L 294.250362 124.035171 
L 295.336163 115.700933 
L 296.421964 115.086532 
L 297.507765 113.174998 
L 298.593566 122.935634 
L 299.679368 111.497883 
L 300.765169 125.078441 
L 301.85097 119.805504 
L 302.936771 128.219487 
L 304.022572 124.187838 
L 305.108373 129.466632 
L 306.194175 107.064831 
L 307.279976 117.791456 
L 308.365777 116.929714 
L 309.451578 112.763543 
L 310.537379 106.096023 
L 311.62318 113.918388 
L 312.708981 115.919927 
L 313.794783 115.652969 
L 314.880584 108.627926 
L 315.966385 114.84812 
L 317.052186 114.978085 
L 318.137987 111.421282 
L 319.223788 133.486475 
L 320.30959 108.559639 
L 321.395391 120.707569 
L 322.481192 119.221496 
L 323.566993 121.825957 
L 324.652794 115.79526 
L 325.738595 125.735919 
L 326.824396 121.147767 
L 327.910198 119.657254 
L 328.995999 114.401584 
L 330.0818 119.349455 
L 331.167601 115.594627 
L 332.253402 130.616729 
L 333.339203 129.24947 
L 334.425005 103.140118 
L 335.510806 103.930188 
L 336.596607 121.222211 
L 337.682408 104.756303 
L 338.768209 104.868212 
L 339.85401 103.422138 
L 340.939811 105.241292 
L 342.025613 108.47122 
L 343.111414 109.004818 
L 344.197215 114.293931 
L 345.283016 116.526853 
L 346.368817 117.226856 
L 347.454618 119.828806 
L 348.54042 112.041557 
L 349.626221 116.511602 
L 350.712022 117.933811 
L 351.797823 120.877625 
L 352.883624 118.23734 
L 353.969425 105.549052 
L 355.055227 116.701868 
L 356.141028 118.37802 
L 357.226829 124.3467 
L 358.31263 120.228678 
L 359.398431 122.611685 
L 360.484232 124.273963 
L 361.570033 124.381414 
L 362.655835 118.849277 
L 363.741636 122.107297 
L 364.827437 121.285808 
L 365.913238 119.592735 
L 366.999039 126.869202 
L 369.170642 109.446112 
L 370.256443 116.478012 
L 371.342244 109.078669 
L 372.428045 113.270968 
L 373.513846 124.937694 
L 374.599647 113.03848 
L 375.685448 112.153279 
L 376.77125 118.029243 
L 377.857051 130.549449 
L 378.942852 128.501069 
L 380.028653 117.225449 
L 381.114454 104.528942 
L 382.200255 116.572367 
L 383.286057 121.123547 
L 384.371858 133.355789 
L 385.457659 125.334994 
L 386.54346 111.484678 
L 387.629261 125.900021 
L 388.715062 120.449299 
L 389.800863 111.295133 
L 390.886665 109.578999 
L 391.972466 130.526268 
L 393.058267 121.394129 
L 394.144068 128.686304 
L 395.229869 119.407662 
L 396.31567 122.491085 
L 398.487273 105.538577 
L 398.487273 105.538577 
" style="fill:none;stroke:#0000ff;stroke-linecap:square;stroke-width:1.5;"/>
   </g>
   <g id="line2d_34">
    <path clip-path="url(#p2defe913fe)" d="M 73.832727 295.488 
L 74.918528 255.278929 
L 76.00433 243.981403 
L 77.090131 239.044676 
L 78.175932 223.393538 
L 79.261733 214.079511 
L 80.347534 212.947491 
L 81.433335 238.148637 
L 82.519137 229.427051 
L 83.604938 224.89073 
L 84.690739 231.97307 
L 85.77654 247.562321 
L 86.862341 221.510085 
L 87.948142 215.165063 
L 89.033943 194.42998 
L 90.119745 206.320973 
L 91.205546 204.46341 
L 92.291347 217.259252 
L 93.377148 194.3924 
L 94.462949 211.475613 
L 95.54875 176.925598 
L 96.634552 217.043659 
L 97.720353 225.371943 
L 98.806154 222.748702 
L 99.891955 196.690344 
L 100.977756 185.708278 
L 102.063557 184.158457 
L 103.149358 207.068362 
L 104.23516 196.44246 
L 105.320961 176.017221 
L 106.406762 195.467002 
L 107.492563 179.994652 
L 108.578364 187.171971 
L 109.664165 176.821183 
L 111.835768 208.523497 
L 112.921569 173.022264 
L 114.00737 164.893682 
L 115.093171 179.523924 
L 116.178972 187.452554 
L 117.264773 209.301948 
L 118.350575 160.991789 
L 119.436376 189.910631 
L 120.522177 169.373175 
L 121.607978 161.914049 
L 122.693779 180.498619 
L 123.77958 204.676179 
L 124.865382 179.068269 
L 125.951183 170.576329 
L 127.036984 181.566155 
L 128.122785 178.359435 
L 129.208586 151.457695 
L 130.294387 179.521126 
L 131.380189 182.863952 
L 132.46599 166.127791 
L 133.551791 172.844226 
L 134.637592 182.205449 
L 135.723393 149.85951 
L 136.809194 160.466006 
L 137.894995 156.557767 
L 138.980797 161.725302 
L 140.066598 171.385538 
L 141.152399 154.613511 
L 142.2382 160.049848 
L 143.324001 162.982351 
L 144.409802 136.048866 
L 145.495604 148.548261 
L 146.581405 144.560836 
L 147.667206 132.203604 
L 148.753007 138.970805 
L 149.838808 131.994869 
L 150.924609 149.538102 
L 152.01041 160.500605 
L 153.096212 155.010584 
L 154.182013 133.182495 
L 155.267814 133.790028 
L 156.353615 163.004924 
L 157.439416 174.146545 
L 158.525217 148.615192 
L 159.611019 138.573203 
L 160.69682 193.418754 
L 161.782621 170.925098 
L 162.868422 167.252779 
L 163.954223 185.673246 
L 165.040024 182.748511 
L 166.125825 206.058664 
L 167.211627 187.434172 
L 168.297428 178.733227 
L 169.383229 175.343421 
L 170.46903 186.148476 
L 171.554831 156.30633 
L 172.640632 156.858444 
L 173.726434 165.219012 
L 174.812235 137.87428 
L 175.898036 171.854656 
L 176.983837 150.788077 
L 178.069638 147.170412 
L 179.155439 147.054446 
L 180.24124 148.037647 
L 181.327042 152.252777 
L 182.412843 166.952141 
L 183.498644 139.622298 
L 184.584445 161.934599 
L 185.670246 165.803531 
L 186.756047 150.348223 
L 187.841849 164.916478 
L 188.92765 126.60222 
L 190.013451 154.430407 
L 191.099252 152.713504 
L 192.185053 147.727621 
L 193.270854 143.907797 
L 194.356656 149.027321 
L 195.442457 138.21822 
L 196.528258 166.044628 
L 197.614059 166.054275 
L 198.69986 125.518692 
L 200.871462 159.694053 
L 201.957264 146.141229 
L 203.043065 163.785476 
L 204.128866 162.965399 
L 205.214667 166.484604 
L 206.300468 149.454138 
L 207.386269 144.861692 
L 208.472071 129.654554 
L 209.557872 157.610594 
L 210.643673 152.343758 
L 211.729474 164.20528 
L 212.815275 148.778405 
L 213.901076 173.149014 
L 214.986877 127.651639 
L 216.072679 162.764962 
L 217.15848 154.887337 
L 218.244281 187.756626 
L 219.330082 183.92378 
L 220.415883 154.988837 
L 221.501684 159.03436 
L 222.587486 166.394528 
L 223.673287 168.386151 
L 224.759088 145.048338 
L 225.844889 143.61713 
L 226.93069 170.659072 
L 228.016491 161.381007 
L 229.102292 139.564076 
L 230.188094 160.755846 
L 231.273895 146.9931 
L 232.359696 152.906225 
L 233.445497 154.795355 
L 234.531298 166.313513 
L 235.617099 141.273538 
L 237.788702 164.281742 
L 238.874503 175.4011 
L 239.960304 163.843181 
L 241.046105 150.841054 
L 242.131906 134.28836 
L 243.217708 140.120407 
L 244.303509 138.789135 
L 245.38931 164.951078 
L 246.475111 150.125065 
L 247.560912 175.217622 
L 248.646713 144.587191 
L 249.732514 156.085439 
L 250.818316 163.565966 
L 251.904117 160.417939 
L 252.989918 143.37625 
L 254.075719 168.208709 
L 255.16152 163.914955 
L 256.247321 177.797319 
L 257.333123 144.887544 
L 258.418924 208.152812 
L 259.504725 152.612529 
L 260.590526 172.607495 
L 261.676327 170.665839 
L 262.762128 184.87696 
L 263.847929 191.148621 
L 264.933731 177.159462 
L 266.019532 190.430957 
L 267.105333 193.426702 
L 268.191134 171.868395 
L 269.276935 137.981474 
L 270.362736 143.131401 
L 271.448538 135.724132 
L 272.534339 132.95045 
L 273.62014 144.180322 
L 274.705941 138.789868 
L 275.791742 158.776825 
L 276.877543 158.441875 
L 279.049146 142.670639 
L 280.134947 156.172151 
L 281.220748 148.395396 
L 282.306549 163.202444 
L 283.39235 146.441868 
L 284.478151 147.929483 
L 285.563953 149.982639 
L 286.649754 145.033094 
L 287.735555 152.99019 
L 288.821356 146.09131 
L 289.907157 157.649222 
L 290.992958 151.240529 
L 292.07876 151.355525 
L 293.164561 168.725131 
L 294.250362 166.422362 
L 295.336163 146.92414 
L 296.421964 138.336871 
L 297.507765 140.286053 
L 298.593566 162.895756 
L 299.679368 132.128285 
L 300.765169 140.678247 
L 301.85097 141.174855 
L 302.936771 162.666361 
L 304.022572 154.736105 
L 305.108373 172.527772 
L 306.194175 143.688354 
L 307.279976 159.73298 
L 308.365777 158.125368 
L 309.451578 143.240937 
L 310.537379 133.14839 
L 311.62318 147.82098 
L 312.708981 153.143252 
L 313.794783 157.531479 
L 314.880584 144.959547 
L 315.966385 151.13448 
L 317.052186 147.778529 
L 318.137987 146.415911 
L 319.223788 180.745065 
L 320.30959 132.506115 
L 321.395391 158.268604 
L 322.481192 144.961437 
L 323.566993 159.945789 
L 324.652794 145.963767 
L 325.738595 169.627975 
L 326.824396 148.206474 
L 327.910198 147.528053 
L 328.995999 146.480821 
L 330.0818 147.725076 
L 331.167601 155.758166 
L 332.253402 175.645674 
L 333.339203 178.205918 
L 334.425005 132.567834 
L 335.510806 147.618733 
L 336.596607 176.133182 
L 337.682408 123.465107 
L 338.768209 130.871295 
L 339.85401 131.704513 
L 340.939811 125.093523 
L 342.025613 143.252264 
L 343.111414 139.213432 
L 344.197215 148.847667 
L 345.283016 157.30591 
L 346.368817 155.168056 
L 347.454618 153.935162 
L 348.54042 136.02423 
L 349.626221 156.792306 
L 351.797823 154.512172 
L 352.883624 157.397897 
L 353.969425 138.179744 
L 355.055227 155.619172 
L 356.141028 152.50628 
L 357.226829 164.398762 
L 358.31263 166.917494 
L 359.398431 150.772055 
L 360.484232 165.727034 
L 361.570033 166.512409 
L 362.655835 151.81328 
L 363.741636 165.611882 
L 365.913238 150.825668 
L 366.999039 174.776261 
L 368.08484 151.299638 
L 369.170642 139.779475 
L 370.256443 141.721095 
L 371.342244 143.230081 
L 372.428045 148.419192 
L 373.513846 168.302984 
L 374.599647 145.869022 
L 375.685448 148.173351 
L 376.77125 172.627749 
L 377.857051 186.331787 
L 378.942852 187.024103 
L 380.028653 155.765734 
L 381.114454 135.718295 
L 382.200255 159.339696 
L 383.286057 154.96384 
L 384.371858 185.67536 
L 386.54346 152.276362 
L 387.629261 173.117075 
L 388.715062 165.503417 
L 389.800863 141.940934 
L 390.886665 131.739671 
L 391.972466 180.660967 
L 393.058267 166.491022 
L 394.144068 174.749251 
L 395.229869 146.99634 
L 396.31567 170.810595 
L 397.401472 142.025632 
L 398.487273 124.312763 
L 398.487273 124.312763 
" style="fill:none;stroke:#008000;stroke-dasharray:9.6,2.4,1.5,2.4;stroke-dashoffset:0;stroke-width:1.5;"/>
   </g>
   <g id="line2d_35">
    <path clip-path="url(#p2defe913fe)" d="M 73.832727 218.662562 
L 74.918528 194.801603 
L 76.00433 189.631201 
L 77.090131 194.590046 
L 79.261733 182.681757 
L 80.347534 165.248011 
L 81.433335 149.756932 
L 82.519137 145.925601 
L 83.604938 148.989832 
L 84.690739 134.108067 
L 85.77654 140.874443 
L 86.862341 132.853385 
L 87.948142 130.568847 
L 89.033943 135.418301 
L 90.119745 120.737574 
L 92.291347 115.581971 
L 93.377148 127.136218 
L 94.462949 110.93133 
L 95.54875 104.877088 
L 96.634552 106.556443 
L 97.720353 118.592968 
L 98.806154 111.314813 
L 99.891955 111.523784 
L 100.977756 93.592651 
L 102.063557 103.899292 
L 103.149358 98.814034 
L 104.23516 96.149334 
L 105.320961 86.42647 
L 106.406762 87.011267 
L 107.492563 108.817412 
L 108.578364 89.137629 
L 109.664165 92.1795 
L 110.749967 84.77832 
L 111.835768 88.634752 
L 112.921569 102.347722 
L 114.00737 95.251565 
L 115.093171 79.045034 
L 116.178972 86.230352 
L 117.264773 75.039419 
L 118.350575 89.764895 
L 119.436376 75.95906 
L 120.522177 95.134535 
L 121.607978 96.780453 
L 122.693779 95.231025 
L 123.77958 79.685725 
L 124.865382 79.770004 
L 125.951183 77.093095 
L 127.036984 76.849625 
L 128.122785 74.893214 
L 129.208586 83.460637 
L 130.294387 82.512803 
L 131.380189 74.616755 
L 132.46599 98.87147 
L 133.551791 77.395918 
L 134.637592 74.399516 
L 135.723393 77.033386 
L 136.809194 71.901321 
L 137.894995 87.40043 
L 138.980797 69.241722 
L 140.066598 58.44725 
L 141.152399 72.435398 
L 142.2382 83.487279 
L 143.324001 77.794916 
L 144.409802 84.47421 
L 145.495604 82.990716 
L 146.581405 86.128576 
L 147.667206 91.535614 
L 148.753007 77.278564 
L 149.838808 83.712895 
L 150.924609 76.575268 
L 152.01041 76.992058 
L 153.096212 81.354708 
L 154.182013 76.970658 
L 155.267814 84.089153 
L 156.353615 59.578417 
L 157.439416 68.721637 
L 158.525217 73.479659 
L 159.611019 87.797651 
L 160.69682 88.109944 
L 161.782621 65.331326 
L 162.868422 68.423298 
L 163.954223 72.567143 
L 165.040024 74.844753 
L 166.125825 71.363429 
L 167.211627 61.110098 
L 168.297428 78.740224 
L 169.383229 71.895558 
L 170.46903 59.855199 
L 171.554831 73.057493 
L 172.640632 61.176594 
L 173.726434 85.439836 
L 174.812235 75.85895 
L 175.898036 79.32454 
L 176.983837 79.86409 
L 178.069638 70.432887 
L 179.155439 83.940414 
L 180.24124 81.175169 
L 181.327042 76.007163 
L 182.412843 53.568 
L 183.498644 72.152804 
L 184.584445 70.28359 
L 185.670246 81.558529 
L 186.756047 77.720149 
L 187.841849 85.317688 
L 188.92765 80.692243 
L 190.013451 69.446509 
L 191.099252 88.802593 
L 192.185053 75.324075 
L 193.270854 75.242386 
L 194.356656 77.536838 
L 195.442457 77.629729 
L 196.528258 80.869477 
L 197.614059 77.744778 
L 198.69986 75.214151 
L 199.785661 75.979324 
L 200.871462 82.635417 
L 201.957264 71.915481 
L 203.043065 68.198799 
L 204.128866 56.70195 
L 205.214667 65.384564 
L 206.300468 75.716632 
L 207.386269 65.895105 
L 208.472071 90.292036 
L 209.557872 79.985707 
L 210.643673 83.449908 
L 211.729474 79.061986 
L 212.815275 84.900822 
L 213.901076 78.325618 
L 214.986877 82.121607 
L 216.072679 72.806073 
L 217.15848 79.984314 
L 218.244281 72.342788 
L 219.330082 76.269135 
L 220.415883 82.053063 
L 221.501684 76.534821 
L 222.587486 95.084345 
L 223.673287 82.955939 
L 224.759088 78.920994 
L 225.844889 75.490121 
L 226.93069 74.308796 
L 228.016491 83.87727 
L 229.102292 89.791707 
L 230.188094 66.391255 
L 231.273895 67.974694 
L 232.359696 76.997388 
L 233.445497 64.298747 
L 234.531298 82.067759 
L 235.617099 76.799501 
L 236.702901 72.783207 
L 237.788702 72.728162 
L 238.874503 81.382199 
L 239.960304 64.73116 
L 242.131906 76.39613 
L 243.217708 73.156498 
L 244.303509 85.163307 
L 245.38931 82.652279 
L 246.475111 81.612836 
L 247.560912 63.24189 
L 248.646713 76.270319 
L 249.732514 68.016397 
L 250.818316 81.944664 
L 251.904117 80.693348 
L 252.989918 86.117414 
L 254.075719 81.261507 
L 255.16152 86.018178 
L 256.247321 92.627148 
L 257.333123 105.811463 
L 258.418924 84.996113 
L 259.504725 99.451116 
L 260.590526 79.046269 
L 261.676327 71.12758 
L 262.762128 75.208161 
L 263.847929 89.090726 
L 264.933731 91.544644 
L 266.019532 86.553963 
L 267.105333 72.854958 
L 268.191134 90.345808 
L 269.276935 83.467186 
L 270.362736 84.524458 
L 271.448538 83.783947 
L 272.534339 88.174392 
L 273.62014 82.419979 
L 274.705941 95.811682 
L 275.791742 88.883696 
L 276.877543 72.307559 
L 277.963344 75.917579 
L 279.049146 89.065494 
L 280.134947 69.188633 
L 281.220748 95.254812 
L 282.306549 75.227088 
L 283.39235 62.99396 
L 284.478151 80.007707 
L 286.649754 97.361134 
L 287.735555 80.72136 
L 288.821356 81.526498 
L 289.907157 67.071379 
L 290.992958 83.355744 
L 292.07876 92.596127 
L 293.164561 79.970957 
L 294.250362 81.64798 
L 295.336163 84.477725 
L 296.421964 91.836192 
L 297.507765 86.063942 
L 298.593566 82.975512 
L 299.679368 90.86748 
L 300.765169 109.478635 
L 301.85097 98.436153 
L 302.936771 93.772612 
L 304.022572 93.63957 
L 305.108373 86.405492 
L 306.194175 70.441308 
L 307.279976 75.849932 
L 308.365777 75.734061 
L 309.451578 82.286148 
L 310.537379 79.043655 
L 311.62318 80.015796 
L 312.708981 78.696603 
L 313.794783 73.77446 
L 314.880584 72.296304 
L 315.966385 78.56176 
L 317.052186 82.17764 
L 318.137987 76.426652 
L 319.223788 86.227885 
L 321.395391 83.146534 
L 322.481192 93.481554 
L 323.566993 83.706124 
L 324.652794 85.626754 
L 325.738595 81.843864 
L 326.824396 94.08906 
L 327.910198 91.786455 
L 328.995999 82.322347 
L 330.0818 90.973833 
L 331.167601 75.431088 
L 332.253402 85.587784 
L 333.339203 80.293022 
L 334.425005 73.712402 
L 335.510806 60.241644 
L 336.596607 66.31124 
L 337.682408 86.047499 
L 338.768209 78.865129 
L 339.85401 75.139762 
L 340.939811 85.389061 
L 342.025613 73.690175 
L 343.111414 78.796205 
L 344.197215 79.740195 
L 345.283016 75.747796 
L 346.368817 79.285656 
L 347.454618 85.722451 
L 348.54042 88.058883 
L 349.626221 76.230898 
L 350.712022 80.24096 
L 351.797823 87.243079 
L 352.883624 79.076784 
L 353.969425 72.91836 
L 355.055227 77.784564 
L 356.141028 84.24976 
L 357.226829 84.294637 
L 358.31263 73.539861 
L 359.398431 94.451314 
L 360.484232 82.820891 
L 361.570033 82.250418 
L 362.655835 85.885275 
L 363.741636 78.602711 
L 364.827437 84.638985 
L 365.913238 88.359802 
L 366.999039 78.962143 
L 368.08484 85.571762 
L 369.170642 79.112749 
L 370.256443 91.234929 
L 371.342244 74.927257 
L 373.513846 81.572404 
L 374.599647 80.207938 
L 375.685448 76.133208 
L 376.77125 63.430737 
L 377.857051 74.767111 
L 378.942852 69.978036 
L 380.028653 78.685164 
L 381.114454 73.339589 
L 382.200255 73.805037 
L 383.286057 87.283255 
L 384.371858 81.036218 
L 385.457659 82.148538 
L 386.54346 70.692993 
L 387.629261 78.682966 
L 388.715062 75.395181 
L 389.800863 80.649331 
L 390.886665 87.418327 
L 391.972466 80.39157 
L 393.058267 76.297237 
L 394.144068 82.623358 
L 395.229869 91.818984 
L 396.31567 74.171575 
L 397.401472 85.494219 
L 398.487273 86.76439 
L 398.487273 86.76439 
" style="fill:none;stroke:#008000;stroke-dasharray:9.6,2.4,1.5,2.4;stroke-dashoffset:0;stroke-width:1.5;"/>
   </g>
   <g id="line2d_36">
    <path clip-path="url(#p2defe913fe)" d="M 73.832727 203.750591 
L 74.918528 202.645035 
L 76.00433 195.456701 
L 77.090131 198.105252 
L 78.175932 187.186161 
L 79.261733 171.660537 
L 80.347534 162.030418 
L 81.433335 155.660554 
L 82.519137 153.949592 
L 83.604938 159.859752 
L 84.690739 142.288064 
L 85.77654 143.993683 
L 86.862341 143.020183 
L 87.948142 132.622312 
L 89.033943 139.535204 
L 90.119745 136.155617 
L 92.291347 125.862893 
L 93.377148 134.616924 
L 94.462949 123.073574 
L 96.634552 120.389561 
L 97.720353 132.605618 
L 98.806154 118.52252 
L 99.891955 117.93797 
L 100.977756 105.182077 
L 102.063557 117.346057 
L 103.149358 118.529962 
L 104.23516 104.874422 
L 105.320961 98.370141 
L 106.406762 93.336649 
L 107.492563 112.522958 
L 108.578364 104.088692 
L 109.664165 99.257243 
L 110.749967 92.764293 
L 111.835768 99.749242 
L 112.921569 108.638101 
L 114.00737 98.72174 
L 115.093171 90.265069 
L 116.178972 96.336881 
L 117.264773 84.904094 
L 118.350575 95.377283 
L 119.436376 83.449488 
L 120.522177 96.327897 
L 121.607978 99.502023 
L 122.693779 100.532031 
L 123.77958 85.207542 
L 124.865382 88.306598 
L 125.951183 87.719354 
L 127.036984 88.692131 
L 128.122785 87.626183 
L 129.208586 88.222398 
L 130.294387 88.045333 
L 131.380189 89.02677 
L 132.46599 94.947371 
L 133.551791 88.016361 
L 134.637592 92.05702 
L 135.723393 86.022631 
L 136.809194 81.210327 
L 137.894995 89.154482 
L 138.980797 84.960765 
L 140.066598 79.30133 
L 141.152399 88.831847 
L 143.324001 87.418729 
L 144.409802 85.023056 
L 145.495604 87.349743 
L 146.581405 84.817381 
L 147.667206 88.907021 
L 148.753007 81.793364 
L 149.838808 85.682497 
L 150.924609 84.740018 
L 152.01041 83.240549 
L 153.096212 90.606399 
L 154.182013 78.120988 
L 155.267814 83.001472 
L 156.353615 76.969817 
L 157.439416 80.156289 
L 159.611019 83.806503 
L 160.69682 90.997121 
L 161.782621 76.606128 
L 162.868422 76.520682 
L 163.954223 78.850163 
L 165.040024 83.805397 
L 166.125825 79.482595 
L 167.211627 78.124328 
L 168.297428 81.811278 
L 169.383229 74.338742 
L 170.46903 76.182038 
L 171.554831 85.346457 
L 172.640632 76.06771 
L 173.726434 85.112269 
L 174.812235 77.987969 
L 175.898036 84.835864 
L 176.983837 80.49858 
L 178.069638 80.917216 
L 179.155439 83.651363 
L 180.24124 83.582625 
L 181.327042 75.760267 
L 182.412843 71.242786 
L 183.498644 82.845402 
L 184.584445 79.280434 
L 185.670246 78.731792 
L 187.841849 85.778226 
L 188.92765 76.372545 
L 190.013451 75.197324 
L 191.099252 80.626096 
L 192.185053 77.875427 
L 193.270854 78.295419 
L 194.356656 83.843451 
L 195.442457 76.228003 
L 196.528258 78.460004 
L 197.614059 81.982308 
L 198.69986 76.843855 
L 199.785661 80.939603 
L 200.871462 89.508499 
L 201.957264 75.853968 
L 203.043065 81.208376 
L 204.128866 73.670549 
L 205.214667 79.603801 
L 206.300468 82.106947 
L 207.386269 76.968141 
L 208.472071 86.45414 
L 209.557872 87.88891 
L 210.643673 87.326054 
L 211.729474 83.888803 
L 212.815275 90.459757 
L 213.901076 87.180939 
L 214.986877 80.514046 
L 216.072679 89.864797 
L 217.15848 88.744351 
L 218.244281 87.178336 
L 219.330082 88.750491 
L 220.415883 91.246512 
L 221.501684 89.374852 
L 222.587486 102.966622 
L 223.673287 89.81569 
L 224.759088 90.228972 
L 225.844889 80.39386 
L 226.93069 79.724556 
L 228.016491 93.039943 
L 229.102292 89.282399 
L 230.188094 75.544909 
L 231.273895 71.99476 
L 232.359696 86.482675 
L 233.445497 78.899201 
L 234.531298 80.005744 
L 235.617099 80.620592 
L 236.702901 79.101215 
L 237.788702 84.300558 
L 238.874503 84.020011 
L 239.960304 74.988363 
L 242.131906 79.460499 
L 243.217708 79.774141 
L 244.303509 80.216491 
L 245.38931 81.573685 
L 246.475111 78.871094 
L 247.560912 73.244618 
L 248.646713 80.515063 
L 249.732514 77.924091 
L 251.904117 89.512066 
L 252.989918 85.209954 
L 254.075719 87.952715 
L 255.16152 90.332677 
L 256.247321 93.033741 
L 257.333123 103.098041 
L 258.418924 92.269196 
L 259.504725 95.24739 
L 260.590526 88.479193 
L 261.676327 84.818321 
L 262.762128 86.979749 
L 263.847929 98.879458 
L 264.933731 105.589725 
L 266.019532 96.668165 
L 267.105333 77.580842 
L 268.191134 93.702341 
L 269.276935 80.860629 
L 270.362736 87.848039 
L 271.448538 86.878408 
L 272.534339 88.61781 
L 273.62014 81.396939 
L 274.705941 91.748969 
L 275.791742 90.957618 
L 276.877543 78.870255 
L 277.963344 85.076753 
L 279.049146 86.752733 
L 280.134947 76.714128 
L 281.220748 95.731859 
L 282.306549 83.134821 
L 283.39235 75.454994 
L 284.478151 78.895958 
L 285.563953 86.962566 
L 286.649754 93.15578 
L 287.735555 85.71594 
L 288.821356 85.012602 
L 289.907157 81.740042 
L 290.992958 91.668585 
L 292.07876 92.513655 
L 293.164561 90.435042 
L 294.250362 93.693365 
L 295.336163 90.398147 
L 296.421964 99.193757 
L 297.507765 92.928986 
L 298.593566 92.848682 
L 299.679368 94.100915 
L 300.765169 104.641209 
L 301.85097 101.36622 
L 302.936771 102.069419 
L 304.022572 97.534325 
L 305.108373 101.212596 
L 306.194175 83.490063 
L 307.279976 84.70694 
L 308.365777 87.155273 
L 309.451578 83.759862 
L 310.537379 78.924358 
L 311.62318 90.352053 
L 312.708981 82.928644 
L 313.794783 80.952185 
L 314.880584 77.157258 
L 315.966385 86.497111 
L 317.052186 85.152484 
L 318.137987 84.104143 
L 319.223788 94.170687 
L 320.30959 85.351925 
L 321.395391 87.559975 
L 322.481192 90.581659 
L 323.566993 90.686384 
L 324.652794 82.823289 
L 325.738595 89.64318 
L 326.824396 92.372201 
L 327.910198 87.773903 
L 328.995999 82.433649 
L 330.0818 87.106381 
L 331.167601 83.474963 
L 332.253402 93.325162 
L 333.339203 88.661937 
L 334.425005 74.072474 
L 335.510806 70.273939 
L 336.596607 78.841039 
L 337.682408 82.81819 
L 338.768209 81.432804 
L 339.85401 82.526766 
L 340.939811 82.55121 
L 342.025613 76.697841 
L 343.111414 77.095729 
L 344.197215 81.645925 
L 345.283016 78.328675 
L 346.368817 79.35796 
L 347.454618 86.683271 
L 348.54042 89.464735 
L 349.626221 87.536447 
L 350.712022 86.351714 
L 351.797823 87.633641 
L 352.883624 88.125071 
L 353.969425 78.524244 
L 355.055227 89.385201 
L 356.141028 83.266901 
L 357.226829 88.422118 
L 358.31263 80.588895 
L 359.398431 91.617136 
L 360.484232 87.106202 
L 361.570033 86.888231 
L 362.655835 84.840837 
L 363.741636 81.185916 
L 364.827437 86.758971 
L 365.913238 84.405077 
L 366.999039 80.682549 
L 368.08484 85.805284 
L 369.170642 84.874799 
L 370.256443 88.491156 
L 371.342244 82.621041 
L 372.428045 91.0251 
L 373.513846 84.78178 
L 374.599647 88.661526 
L 375.685448 80.542751 
L 377.857051 84.432913 
L 378.942852 86.345167 
L 380.028653 82.119608 
L 381.114454 83.373914 
L 383.286057 91.751127 
L 385.457659 85.748605 
L 386.54346 82.027267 
L 387.629261 91.99574 
L 388.715062 90.813141 
L 389.800863 84.376792 
L 390.886665 90.728915 
L 391.972466 97.818286 
L 393.058267 87.493208 
L 394.144068 91.488115 
L 395.229869 94.78088 
L 396.31567 85.530061 
L 397.401472 89.446775 
L 398.487273 85.05939 
L 398.487273 85.05939 
" style="fill:none;stroke:#ff0000;stroke-linecap:square;stroke-width:1.5;"/>
   </g>
   <g id="patch_3">
    <path d="M 57.6 307.584 
L 57.6 41.472 
" style="fill:none;stroke:#000000;stroke-linecap:square;stroke-linejoin:miter;stroke-width:0.8;"/>
   </g>
   <g id="patch_4">
    <path d="M 414.72 307.584 
L 414.72 41.472 
" style="fill:none;stroke:#000000;stroke-linecap:square;stroke-linejoin:miter;stroke-width:0.8;"/>
   </g>
   <g id="patch_5">
    <path d="M 57.6 307.584 
L 414.72 307.584 
" style="fill:none;stroke:#000000;stroke-linecap:square;stroke-linejoin:miter;stroke-width:0.8;"/>
   </g>
   <g id="patch_6">
    <path d="M 57.6 41.472 
L 414.72 41.472 
" style="fill:none;stroke:#000000;stroke-linecap:square;stroke-linejoin:miter;stroke-width:0.8;"/>
   </g>
   <g id="text_19">
    <!-- Population's average and best fitness -->
    <defs>
     <path d="M 19.671875 64.796875 
L 19.671875 37.40625 
L 32.078125 37.40625 
Q 38.96875 37.40625 42.71875 40.96875 
Q 46.484375 44.53125 46.484375 51.125 
Q 46.484375 57.671875 42.71875 61.234375 
Q 38.96875 64.796875 32.078125 64.796875 
z
M 9.8125 72.90625 
L 32.078125 72.90625 
Q 44.34375 72.90625 50.609375 67.359375 
Q 56.890625 61.8125 56.890625 51.125 
Q 56.890625 40.328125 50.609375 34.8125 
Q 44.34375 29.296875 32.078125 29.296875 
L 19.671875 29.296875 
L 19.671875 0 
L 9.8125 0 
z
" id="DejaVuSans-80"/>
     <path d="M 18.109375 8.203125 
L 18.109375 -20.796875 
L 9.078125 -20.796875 
L 9.078125 54.6875 
L 18.109375 54.6875 
L 18.109375 46.390625 
Q 20.953125 51.265625 25.265625 53.625 
Q 29.59375 56 35.59375 56 
Q 45.5625 56 51.78125 48.09375 
Q 58.015625 40.1875 58.015625 27.296875 
Q 58.015625 14.40625 51.78125 6.484375 
Q 45.5625 -1.421875 35.59375 -1.421875 
Q 29.59375 -1.421875 25.265625 0.953125 
Q 20.953125 3.328125 18.109375 8.203125 
z
M 48.6875 27.296875 
Q 48.6875 37.203125 44.609375 42.84375 
Q 40.53125 48.484375 33.40625 48.484375 
Q 26.265625 48.484375 22.1875 42.84375 
Q 18.109375 37.203125 18.109375 27.296875 
Q 18.109375 17.390625 22.1875 11.75 
Q 26.265625 6.109375 33.40625 6.109375 
Q 40.53125 6.109375 44.609375 11.75 
Q 48.6875 17.390625 48.6875 27.296875 
z
" id="DejaVuSans-112"/>
     <path d="M 8.5 21.578125 
L 8.5 54.6875 
L 17.484375 54.6875 
L 17.484375 21.921875 
Q 17.484375 14.15625 20.5 10.265625 
Q 23.53125 6.390625 29.59375 6.390625 
Q 36.859375 6.390625 41.078125 11.03125 
Q 45.3125 15.671875 45.3125 23.6875 
L 45.3125 54.6875 
L 54.296875 54.6875 
L 54.296875 0 
L 45.3125 0 
L 45.3125 8.40625 
Q 42.046875 3.421875 37.71875 1 
Q 33.40625 -1.421875 27.6875 -1.421875 
Q 18.265625 -1.421875 13.375 4.4375 
Q 8.5 10.296875 8.5 21.578125 
z
M 31.109375 56 
z
" id="DejaVuSans-117"/>
     <path d="M 9.421875 75.984375 
L 18.40625 75.984375 
L 18.40625 0 
L 9.421875 0 
z
" id="DejaVuSans-108"/>
     <path d="M 17.921875 72.90625 
L 17.921875 45.796875 
L 9.625 45.796875 
L 9.625 72.90625 
z
" id="DejaVuSans-39"/>
     <path id="DejaVuSans-32"/>
     <path d="M 2.984375 54.6875 
L 12.5 54.6875 
L 29.59375 8.796875 
L 46.6875 54.6875 
L 56.203125 54.6875 
L 35.6875 0 
L 23.484375 0 
z
" id="DejaVuSans-118"/>
     <path d="M 45.40625 27.984375 
Q 45.40625 37.75 41.375 43.109375 
Q 37.359375 48.484375 30.078125 48.484375 
Q 22.859375 48.484375 18.828125 43.109375 
Q 14.796875 37.75 14.796875 27.984375 
Q 14.796875 18.265625 18.828125 12.890625 
Q 22.859375 7.515625 30.078125 7.515625 
Q 37.359375 7.515625 41.375 12.890625 
Q 45.40625 18.265625 45.40625 27.984375 
z
M 54.390625 6.78125 
Q 54.390625 -7.171875 48.1875 -13.984375 
Q 42 -20.796875 29.203125 -20.796875 
Q 24.46875 -20.796875 20.265625 -20.09375 
Q 16.0625 -19.390625 12.109375 -17.921875 
L 12.109375 -9.1875 
Q 16.0625 -11.328125 19.921875 -12.34375 
Q 23.78125 -13.375 27.78125 -13.375 
Q 36.625 -13.375 41.015625 -8.765625 
Q 45.40625 -4.15625 45.40625 5.171875 
L 45.40625 9.625 
Q 42.625 4.78125 38.28125 2.390625 
Q 33.9375 0 27.875 0 
Q 17.828125 0 11.671875 7.65625 
Q 5.515625 15.328125 5.515625 27.984375 
Q 5.515625 40.671875 11.671875 48.328125 
Q 17.828125 56 27.875 56 
Q 33.9375 56 38.28125 53.609375 
Q 42.625 51.21875 45.40625 46.390625 
L 45.40625 54.6875 
L 54.390625 54.6875 
z
" id="DejaVuSans-103"/>
     <path d="M 45.40625 46.390625 
L 45.40625 75.984375 
L 54.390625 75.984375 
L 54.390625 0 
L 45.40625 0 
L 45.40625 8.203125 
Q 42.578125 3.328125 38.25 0.953125 
Q 33.9375 -1.421875 27.875 -1.421875 
Q 17.96875 -1.421875 11.734375 6.484375 
Q 5.515625 14.40625 5.515625 27.296875 
Q 5.515625 40.1875 11.734375 48.09375 
Q 17.96875 56 27.875 56 
Q 33.9375 56 38.25 53.625 
Q 42.578125 51.265625 45.40625 46.390625 
z
M 14.796875 27.296875 
Q 14.796875 17.390625 18.875 11.75 
Q 22.953125 6.109375 30.078125 6.109375 
Q 37.203125 6.109375 41.296875 11.75 
Q 45.40625 17.390625 45.40625 27.296875 
Q 45.40625 37.203125 41.296875 42.84375 
Q 37.203125 48.484375 30.078125 48.484375 
Q 22.953125 48.484375 18.875 42.84375 
Q 14.796875 37.203125 14.796875 27.296875 
z
" id="DejaVuSans-100"/>
     <path d="M 48.6875 27.296875 
Q 48.6875 37.203125 44.609375 42.84375 
Q 40.53125 48.484375 33.40625 48.484375 
Q 26.265625 48.484375 22.1875 42.84375 
Q 18.109375 37.203125 18.109375 27.296875 
Q 18.109375 17.390625 22.1875 11.75 
Q 26.265625 6.109375 33.40625 6.109375 
Q 40.53125 6.109375 44.609375 11.75 
Q 48.6875 17.390625 48.6875 27.296875 
z
M 18.109375 46.390625 
Q 20.953125 51.265625 25.265625 53.625 
Q 29.59375 56 35.59375 56 
Q 45.5625 56 51.78125 48.09375 
Q 58.015625 40.1875 58.015625 27.296875 
Q 58.015625 14.40625 51.78125 6.484375 
Q 45.5625 -1.421875 35.59375 -1.421875 
Q 29.59375 -1.421875 25.265625 0.953125 
Q 20.953125 3.328125 18.109375 8.203125 
L 18.109375 0 
L 9.078125 0 
L 9.078125 75.984375 
L 18.109375 75.984375 
z
" id="DejaVuSans-98"/>
     <path d="M 37.109375 75.984375 
L 37.109375 68.5 
L 28.515625 68.5 
Q 23.6875 68.5 21.796875 66.546875 
Q 19.921875 64.59375 19.921875 59.515625 
L 19.921875 54.6875 
L 34.71875 54.6875 
L 34.71875 47.703125 
L 19.921875 47.703125 
L 19.921875 0 
L 10.890625 0 
L 10.890625 47.703125 
L 2.296875 47.703125 
L 2.296875 54.6875 
L 10.890625 54.6875 
L 10.890625 58.5 
Q 10.890625 67.625 15.140625 71.796875 
Q 19.390625 75.984375 28.609375 75.984375 
z
" id="DejaVuSans-102"/>
    </defs>
    <g transform="translate(123.315 35.472)scale(0.12 -0.12)">
     <use xlink:href="#DejaVuSans-80"/>
     <use x="60.255859" xlink:href="#DejaVuSans-111"/>
     <use x="121.4375" xlink:href="#DejaVuSans-112"/>
     <use x="184.914062" xlink:href="#DejaVuSans-117"/>
     <use x="248.292969" xlink:href="#DejaVuSans-108"/>
     <use x="276.076172" xlink:href="#DejaVuSans-97"/>
     <use x="337.355469" xlink:href="#DejaVuSans-116"/>
     <use x="376.564453" xlink:href="#DejaVuSans-105"/>
     <use x="404.347656" xlink:href="#DejaVuSans-111"/>
     <use x="465.529297" xlink:href="#DejaVuSans-110"/>
     <use x="528.908203" xlink:href="#DejaVuSans-39"/>
     <use x="556.398438" xlink:href="#DejaVuSans-115"/>
     <use x="608.498047" xlink:href="#DejaVuSans-32"/>
     <use x="640.285156" xlink:href="#DejaVuSans-97"/>
     <use x="701.564453" xlink:href="#DejaVuSans-118"/>
     <use x="760.744141" xlink:href="#DejaVuSans-101"/>
     <use x="822.267578" xlink:href="#DejaVuSans-114"/>
     <use x="863.380859" xlink:href="#DejaVuSans-97"/>
     <use x="924.660156" xlink:href="#DejaVuSans-103"/>
     <use x="988.136719" xlink:href="#DejaVuSans-101"/>
     <use x="1049.660156" xlink:href="#DejaVuSans-32"/>
     <use x="1081.447266" xlink:href="#DejaVuSans-97"/>
     <use x="1142.726562" xlink:href="#DejaVuSans-110"/>
     <use x="1206.105469" xlink:href="#DejaVuSans-100"/>
     <use x="1269.582031" xlink:href="#DejaVuSans-32"/>
     <use x="1301.369141" xlink:href="#DejaVuSans-98"/>
     <use x="1364.845703" xlink:href="#DejaVuSans-101"/>
     <use x="1426.369141" xlink:href="#DejaVuSans-115"/>
     <use x="1478.46875" xlink:href="#DejaVuSans-116"/>
     <use x="1517.677734" xlink:href="#DejaVuSans-32"/>
     <use x="1549.464844" xlink:href="#DejaVuSans-102"/>
     <use x="1584.669922" xlink:href="#DejaVuSans-105"/>
     <use x="1612.453125" xlink:href="#DejaVuSans-116"/>
     <use x="1651.662109" xlink:href="#DejaVuSans-110"/>
     <use x="1715.041016" xlink:href="#DejaVuSans-101"/>
     <use x="1776.564453" xlink:href="#DejaVuSans-115"/>
     <use x="1828.664062" xlink:href="#DejaVuSans-115"/>
    </g>
   </g>
   <g id="legend_1">
    <g id="patch_7">
     <path d="M 334.779375 302.584 
L 407.72 302.584 
Q 409.72 302.584 409.72 300.584 
L 409.72 242.8715 
Q 409.72 240.8715 407.72 240.8715 
L 334.779375 240.8715 
Q 332.779375 240.8715 332.779375 242.8715 
L 332.779375 300.584 
Q 332.779375 302.584 334.779375 302.584 
z
" style="fill:#ffffff;opacity:0.8;stroke:#cccccc;stroke-linejoin:miter;"/>
    </g>
    <g id="line2d_37">
     <path d="M 336.779375 248.969937 
L 356.779375 248.969937 
" style="fill:none;stroke:#0000ff;stroke-linecap:square;stroke-width:1.5;"/>
    </g>
    <g id="line2d_38"/>
    <g id="text_20">
     <!-- average -->
     <g transform="translate(364.779375 252.469937)scale(0.1 -0.1)">
      <use xlink:href="#DejaVuSans-97"/>
      <use x="61.279297" xlink:href="#DejaVuSans-118"/>
      <use x="120.458984" xlink:href="#DejaVuSans-101"/>
      <use x="181.982422" xlink:href="#DejaVuSans-114"/>
      <use x="223.095703" xlink:href="#DejaVuSans-97"/>
      <use x="284.375" xlink:href="#DejaVuSans-103"/>
      <use x="347.851562" xlink:href="#DejaVuSans-101"/>
     </g>
    </g>
    <g id="line2d_39">
     <path d="M 336.779375 263.648062 
L 356.779375 263.648062 
" style="fill:none;stroke:#008000;stroke-dasharray:9.6,2.4,1.5,2.4;stroke-dashoffset:0;stroke-width:1.5;"/>
    </g>
    <g id="line2d_40"/>
    <g id="text_21">
     <!-- -1 sd -->
     <defs>
      <path d="M 4.890625 31.390625 
L 31.203125 31.390625 
L 31.203125 23.390625 
L 4.890625 23.390625 
z
" id="DejaVuSans-45"/>
     </defs>
     <g transform="translate(364.779375 267.148062)scale(0.1 -0.1)">
      <use xlink:href="#DejaVuSans-45"/>
      <use x="36.083984" xlink:href="#DejaVuSans-49"/>
      <use x="99.707031" xlink:href="#DejaVuSans-32"/>
      <use x="131.494141" xlink:href="#DejaVuSans-115"/>
      <use x="183.59375" xlink:href="#DejaVuSans-100"/>
     </g>
    </g>
    <g id="line2d_41">
     <path d="M 336.779375 278.326187 
L 356.779375 278.326187 
" style="fill:none;stroke:#008000;stroke-dasharray:9.6,2.4,1.5,2.4;stroke-dashoffset:0;stroke-width:1.5;"/>
    </g>
    <g id="line2d_42"/>
    <g id="text_22">
     <!-- +1 sd -->
     <defs>
      <path d="M 46 62.703125 
L 46 35.5 
L 73.1875 35.5 
L 73.1875 27.203125 
L 46 27.203125 
L 46 0 
L 37.796875 0 
L 37.796875 27.203125 
L 10.59375 27.203125 
L 10.59375 35.5 
L 37.796875 35.5 
L 37.796875 62.703125 
z
" id="DejaVuSans-43"/>
     </defs>
     <g transform="translate(364.779375 281.826187)scale(0.1 -0.1)">
      <use xlink:href="#DejaVuSans-43"/>
      <use x="83.789062" xlink:href="#DejaVuSans-49"/>
      <use x="147.412109" xlink:href="#DejaVuSans-32"/>
      <use x="179.199219" xlink:href="#DejaVuSans-115"/>
      <use x="231.298828" xlink:href="#DejaVuSans-100"/>
     </g>
    </g>
    <g id="line2d_43">
     <path d="M 336.779375 293.004312 
L 356.779375 293.004312 
" style="fill:none;stroke:#ff0000;stroke-linecap:square;stroke-width:1.5;"/>
    </g>
    <g id="line2d_44"/>
    <g id="text_23">
     <!-- best -->
     <g transform="translate(364.779375 296.504312)scale(0.1 -0.1)">
      <use xlink:href="#DejaVuSans-98"/>
      <use x="63.476562" xlink:href="#DejaVuSans-101"/>
      <use x="125" xlink:href="#DejaVuSans-115"/>
      <use x="177.099609" xlink:href="#DejaVuSans-116"/>
     </g>
    </g>
   </g>
  </g>
 </g>
 <defs>
  <clipPath id="p2defe913fe">
   <rect height="266.112" width="357.12" x="57.6" y="41.472"/>
  </clipPath>
 </defs>
</svg>
