<?xml version="1.0" encoding="UTF-8" standalone="no"?>
<!DOCTYPE svg PUBLIC "-//W3C//DTD SVG 1.1//EN"
 "http://www.w3.org/Graphics/SVG/1.1/DTD/svg11.dtd">
<!-- Generated by graphviz version 2.40.1 (20161225.0304)
 -->
<!-- Title: %3 Pages: 1 -->
<svg width="485pt" height="266pt"
 viewBox="0.00 0.00 484.77 265.93" xmlns="http://www.w3.org/2000/svg" xmlns:xlink="http://www.w3.org/1999/xlink">
<g id="graph0" class="graph" transform="scale(1 1) rotate(0) translate(4 261.9326)">
<title>%3</title>
<polygon fill="#ffffff" stroke="transparent" points="-4,4 -4,-261.9326 480.7661,-261.9326 480.7661,4 -4,4"/>
<!-- 0 -->
<g id="node1" class="node">
<title>0</title>
<polygon fill="#d3d3d3" stroke="#000000" points="190.389,-257.9326 170.3771,-257.9326 170.3771,-240.9326 190.389,-240.9326 190.389,-257.9326"/>
<text text-anchor="middle" x="180.383" y="-246.7326" font-family="Times,serif" font-size="9.00" fill="#000000">0</text>
</g>
<!-- 1 -->
<g id="node2" class="node">
<title>1</title>
<polygon fill="#d3d3d3" stroke="#000000" points="229.389,-257.9326 209.3771,-257.9326 209.3771,-240.9326 229.389,-240.9326 229.389,-257.9326"/>
<text text-anchor="middle" x="219.383" y="-246.7326" font-family="Times,serif" font-size="9.00" fill="#000000">1</text>
</g>
<!-- 0&#45;&gt;1 -->
<!-- E1 -->
<g id="node5" class="node">
<title>E1</title>
<ellipse fill="#87cefa" stroke="#000000" cx="73.383" cy="-18.383" rx="18.2668" ry="18.2668"/>
<text text-anchor="middle" x="73.383" y="-15.683" font-family="Times,serif" font-size="9.00" fill="#000000">E1</text>
</g>
<!-- 0&#45;&gt;E1 -->
<g id="edge11" class="edge">
<title>0&#45;&gt;E1</title>
<path fill="none" stroke="#00ff00" stroke-width="2.3437" d="M176.3192,-240.6573C161.4005,-208.4428 109.2826,-95.9024 85.4464,-44.4319"/>
<polygon fill="#00ff00" stroke="#00ff00" stroke-width="2.3437" points="88.586,-42.8824 81.2077,-35.2791 82.234,-45.8241 88.586,-42.8824"/>
</g>
<!-- E6 -->
<g id="node10" class="node">
<title>E6</title>
<ellipse fill="#87cefa" stroke="#000000" cx="348.383" cy="-18.383" rx="18.2668" ry="18.2668"/>
<text text-anchor="middle" x="348.383" y="-15.683" font-family="Times,serif" font-size="9.00" fill="#000000">E6</text>
</g>
<!-- 0&#45;&gt;E6 -->
<g id="edge15" class="edge">
<title>0&#45;&gt;E6</title>
<path fill="none" stroke="#ff0000" stroke-width=".1618" d="M179.2195,-240.7969C175.9512,-212.7563 169.5834,-123.1651 213.383,-72.7661 246.2959,-34.8943 275.2634,-58.7149 320.383,-36.7661 321.7557,-36.0984 323.1413,-35.3743 324.5227,-34.6124"/>
<polygon fill="#ff0000" stroke="#ff0000" stroke-width=".1618" points="326.6596,-37.41 333.3973,-29.2335 323.0313,-31.4237 326.6596,-37.41"/>
</g>
<!-- 2 -->
<g id="node3" class="node">
<title>2</title>
<polygon fill="#d3d3d3" stroke="#000000" points="268.389,-257.9326 248.3771,-257.9326 248.3771,-240.9326 268.389,-240.9326 268.389,-257.9326"/>
<text text-anchor="middle" x="258.383" y="-246.7326" font-family="Times,serif" font-size="9.00" fill="#000000">2</text>
</g>
<!-- 1&#45;&gt;2 -->
<!-- E8 -->
<g id="node12" class="node">
<title>E8</title>
<ellipse fill="#87cefa" stroke="#000000" cx="458.383" cy="-18.383" rx="18.2668" ry="18.2668"/>
<text text-anchor="middle" x="458.383" y="-15.683" font-family="Times,serif" font-size="9.00" fill="#000000">E8</text>
</g>
<!-- 1&#45;&gt;E8 -->
<g id="edge12" class="edge">
<title>1&#45;&gt;E8</title>
<path fill="none" stroke="#00ff00" stroke-width="5.092" d="M229.5459,-242.6744C241.8084,-234.347 262.8384,-219.5049 279.383,-204.9326 341.7486,-150.002 407.5378,-76.9435 439.1739,-40.7148"/>
<polygon fill="#00ff00" stroke="#00ff00" stroke-width="5.092" points="442.9079,-43.2105 446.1047,-32.74 436.182,-37.3651 442.9079,-43.2105"/>
</g>
<!-- E0 -->
<g id="node4" class="node">
<title>E0</title>
<ellipse fill="#87cefa" stroke="#000000" cx="18.383" cy="-18.383" rx="18.2668" ry="18.2668"/>
<text text-anchor="middle" x="18.383" y="-15.683" font-family="Times,serif" font-size="9.00" fill="#000000">E0</text>
</g>
<!-- 2&#45;&gt;E0 -->
<g id="edge14" class="edge">
<title>2&#45;&gt;E0</title>
<path fill="none" stroke="#ff0000" stroke-width=".5861" d="M249.2678,-240.6573C214.4009,-207.0908 88.9459,-86.3143 39.0554,-38.2844"/>
<polygon fill="#ff0000" stroke="#ff0000" stroke-width=".5861" points="41.3541,-35.6391 31.7225,-31.225 36.4992,-40.682 41.3541,-35.6391"/>
</g>
<!-- 2&#45;&gt;E6 -->
<g id="edge13" class="edge">
<title>2&#45;&gt;E6</title>
<path fill="none" stroke="#ff0000" stroke-width="2.4212" d="M262.7948,-240.6691C267.2106,-231.7671 274.0906,-217.5348 279.383,-204.9326 302.8092,-149.1511 326.4892,-82.3436 339.1029,-45.7303"/>
<polygon fill="#ff0000" stroke="#ff0000" stroke-width="2.4212" points="342.5716,-46.4046 342.5039,-35.81 335.95,-44.1344 342.5716,-46.4046"/>
</g>
<!-- 5484 -->
<g id="node14" class="node">
<title>5484</title>
<ellipse fill="#add8e6" stroke="#000000" cx="246.383" cy="-180.891" rx="24.0833" ry="24.0833"/>
<text text-anchor="middle" x="246.383" y="-182.691" font-family="Times,serif" font-size="9.00" fill="#000000">5484</text>
<text text-anchor="middle" x="246.383" y="-173.691" font-family="Times,serif" font-size="9.00" fill="#000000">sigm</text>
</g>
<!-- 2&#45;&gt;5484 -->
<g id="edge17" class="edge">
<title>2&#45;&gt;5484</title>
<path fill="none" stroke="#00ff00" stroke-width=".2747" d="M256.8632,-240.7518C255.6931,-234.0679 253.9946,-224.3669 252.3045,-214.7133"/>
<polygon fill="#00ff00" stroke="#00ff00" stroke-width=".2747" points="255.7409,-214.0454 250.5687,-204.7989 248.8458,-215.2527 255.7409,-214.0454"/>
</g>
<!-- E0&#45;&gt;E1 -->
<!-- E2 -->
<g id="node6" class="node">
<title>E2</title>
<ellipse fill="#87cefa" stroke="#000000" cx="128.383" cy="-18.383" rx="18.2668" ry="18.2668"/>
<text text-anchor="middle" x="128.383" y="-15.683" font-family="Times,serif" font-size="9.00" fill="#000000">E2</text>
</g>
<!-- E1&#45;&gt;E2 -->
<!-- E3 -->
<g id="node7" class="node">
<title>E3</title>
<ellipse fill="#87cefa" stroke="#000000" cx="183.383" cy="-18.383" rx="18.2668" ry="18.2668"/>
<text text-anchor="middle" x="183.383" y="-15.683" font-family="Times,serif" font-size="9.00" fill="#000000">E3</text>
</g>
<!-- E2&#45;&gt;E3 -->
<!-- E4 -->
<g id="node8" class="node">
<title>E4</title>
<ellipse fill="#87cefa" stroke="#000000" cx="238.383" cy="-18.383" rx="18.2668" ry="18.2668"/>
<text text-anchor="middle" x="238.383" y="-15.683" font-family="Times,serif" font-size="9.00" fill="#000000">E4</text>
</g>
<!-- E3&#45;&gt;E4 -->
<!-- E5 -->
<g id="node9" class="node">
<title>E5</title>
<ellipse fill="#87cefa" stroke="#000000" cx="293.383" cy="-18.383" rx="18.2668" ry="18.2668"/>
<text text-anchor="middle" x="293.383" y="-15.683" font-family="Times,serif" font-size="9.00" fill="#000000">E5</text>
</g>
<!-- E4&#45;&gt;E5 -->
<!-- E5&#45;&gt;E6 -->
<!-- E7 -->
<g id="node11" class="node">
<title>E7</title>
<ellipse fill="#87cefa" stroke="#000000" cx="403.383" cy="-18.383" rx="18.2668" ry="18.2668"/>
<text text-anchor="middle" x="403.383" y="-15.683" font-family="Times,serif" font-size="9.00" fill="#000000">E7</text>
</g>
<!-- E6&#45;&gt;E7 -->
<!-- E7&#45;&gt;E8 -->
<!-- 4357 -->
<g id="node13" class="node">
<title>4357</title>
<ellipse fill="#add8e6" stroke="#000000" cx="246.383" cy="-96.8077" rx="24.0833" ry="24.0833"/>
<text text-anchor="middle" x="246.383" y="-98.6077" font-family="Times,serif" font-size="9.00" fill="#000000">4357</text>
<text text-anchor="middle" x="246.383" y="-89.6077" font-family="Times,serif" font-size="9.00" fill="#000000">sigm</text>
</g>
<!-- 4357&#45;&gt;E2 -->
<g id="edge16" class="edge">
<title>4357&#45;&gt;E2</title>
<path fill="none" stroke="#ff0000" stroke-width=".1054" d="M226.0981,-83.326C205.5962,-69.7001 173.9277,-48.6527 152.2349,-34.2354"/>
<polygon fill="#ff0000" stroke="#ff0000" stroke-width=".1054" points="154.1576,-31.3108 143.8919,-28.6905 150.283,-37.1406 154.1576,-31.3108"/>
</g>
<!-- 5484&#45;&gt;4357 -->
<g id="edge18" class="edge">
<title>5484&#45;&gt;4357</title>
<path fill="none" stroke="#ff0000" stroke-width=".5389" d="M246.383,-156.5706C246.383,-148.6398 246.383,-139.6791 246.383,-131.1553"/>
<polygon fill="#ff0000" stroke="#ff0000" stroke-width=".5389" points="249.8831,-131.0734 246.383,-121.0734 242.8831,-131.0735 249.8831,-131.0734"/>
</g>
</g>
</svg>
