<?xml version="1.0" encoding="UTF-8" standalone="no"?>
<!DOCTYPE svg PUBLIC "-//W3C//DTD SVG 1.1//EN"
 "http://www.w3.org/Graphics/SVG/1.1/DTD/svg11.dtd">
<!-- Generated by graphviz version 2.40.1 (20161225.0304)
 -->
<!-- Title: %3 Pages: 1 -->
<svg width="388pt" height="258pt"
 viewBox="0.00 0.00 387.85 258.17" xmlns="http://www.w3.org/2000/svg" xmlns:xlink="http://www.w3.org/1999/xlink">
<g id="graph0" class="graph" transform="scale(1 1) rotate(0) translate(4 254.1703)">
<title>%3</title>
<polygon fill="#ffffff" stroke="transparent" points="-4,4 -4,-254.1703 383.8518,-254.1703 383.8518,4 -4,4"/>
<!-- E0 -->
<g id="node1" class="node">
<title>E0</title>
<polygon fill="#d3d3d3" stroke="#000000" points="25.9963,-250.1703 .0012,-250.1703 .0012,-233.1703 25.9963,-233.1703 25.9963,-250.1703"/>
<text text-anchor="middle" x="12.9988" y="-238.9703" font-family="Times,serif" font-size="9.00" fill="#000000">E0</text>
</g>
<!-- E1 -->
<g id="node2" class="node">
<title>E1</title>
<polygon fill="#d3d3d3" stroke="#000000" points="69.9963,-250.1703 44.0012,-250.1703 44.0012,-233.1703 69.9963,-233.1703 69.9963,-250.1703"/>
<text text-anchor="middle" x="56.9988" y="-238.9703" font-family="Times,serif" font-size="9.00" fill="#000000">E1</text>
</g>
<!-- E0&#45;&gt;E1 -->
<!-- 0 -->
<g id="node10" class="node">
<title>0</title>
<ellipse fill="#87cefa" stroke="#000000" cx="221.9988" cy="-14.853" rx="14.4914" ry="14.4914"/>
<text text-anchor="middle" x="221.9988" y="-12.153" font-family="Times,serif" font-size="9.00" fill="#000000">0</text>
</g>
<!-- E0&#45;&gt;0 -->
<g id="edge14" class="edge">
<title>E0&#45;&gt;0</title>
<path fill="none" stroke="#ff0000" stroke-width=".3005" d="M16.4847,-232.8399C27.869,-204.9675 66.5018,-117.6372 122.9988,-65.7061 145.1265,-45.3667 176.9136,-30.9698 198.4527,-22.803"/>
<polygon fill="#ff0000" stroke="#ff0000" stroke-width=".3005" points="199.9102,-25.9975 208.116,-19.2956 197.5218,-19.4175 199.9102,-25.9975"/>
</g>
<!-- E2 -->
<g id="node3" class="node">
<title>E2</title>
<polygon fill="#d3d3d3" stroke="#000000" points="113.9963,-250.1703 88.0012,-250.1703 88.0012,-233.1703 113.9963,-233.1703 113.9963,-250.1703"/>
<text text-anchor="middle" x="100.9988" y="-238.9703" font-family="Times,serif" font-size="9.00" fill="#000000">E2</text>
</g>
<!-- E1&#45;&gt;E2 -->
<!-- 1 -->
<g id="node11" class="node">
<title>1</title>
<ellipse fill="#87cefa" stroke="#000000" cx="268.9988" cy="-14.853" rx="14.4914" ry="14.4914"/>
<text text-anchor="middle" x="268.9988" y="-12.153" font-family="Times,serif" font-size="9.00" fill="#000000">1</text>
</g>
<!-- E1&#45;&gt;1 -->
<g id="edge15" class="edge">
<title>E1&#45;&gt;1</title>
<path fill="none" stroke="#00ff00" stroke-width=".7837" d="M65.0506,-233.0558C96.159,-199.7731 208.9024,-79.1498 252.0457,-32.991"/>
<polygon fill="#00ff00" stroke="#00ff00" stroke-width=".7837" points="254.76,-35.2127 259.0314,-25.517 249.646,-30.4328 254.76,-35.2127"/>
</g>
<!-- E3 -->
<g id="node4" class="node">
<title>E3</title>
<polygon fill="#d3d3d3" stroke="#000000" points="157.9963,-250.1703 132.0012,-250.1703 132.0012,-233.1703 157.9963,-233.1703 157.9963,-250.1703"/>
<text text-anchor="middle" x="144.9988" y="-238.9703" font-family="Times,serif" font-size="9.00" fill="#000000">E3</text>
</g>
<!-- E2&#45;&gt;E3 -->
<!-- E4 -->
<g id="node5" class="node">
<title>E4</title>
<polygon fill="#d3d3d3" stroke="#000000" points="201.9963,-250.1703 176.0012,-250.1703 176.0012,-233.1703 201.9963,-233.1703 201.9963,-250.1703"/>
<text text-anchor="middle" x="188.9988" y="-238.9703" font-family="Times,serif" font-size="9.00" fill="#000000">E4</text>
</g>
<!-- E3&#45;&gt;E4 -->
<!-- E5 -->
<g id="node6" class="node">
<title>E5</title>
<polygon fill="#d3d3d3" stroke="#000000" points="245.9963,-250.1703 220.0012,-250.1703 220.0012,-233.1703 245.9963,-233.1703 245.9963,-250.1703"/>
<text text-anchor="middle" x="232.9988" y="-238.9703" font-family="Times,serif" font-size="9.00" fill="#000000">E5</text>
</g>
<!-- E4&#45;&gt;E5 -->
<!-- E6 -->
<g id="node7" class="node">
<title>E6</title>
<polygon fill="#d3d3d3" stroke="#000000" points="289.9963,-250.1703 264.0012,-250.1703 264.0012,-233.1703 289.9963,-233.1703 289.9963,-250.1703"/>
<text text-anchor="middle" x="276.9988" y="-238.9703" font-family="Times,serif" font-size="9.00" fill="#000000">E6</text>
</g>
<!-- E5&#45;&gt;E6 -->
<!-- E7 -->
<g id="node8" class="node">
<title>E7</title>
<polygon fill="#d3d3d3" stroke="#000000" points="333.9963,-250.1703 308.0012,-250.1703 308.0012,-233.1703 333.9963,-233.1703 333.9963,-250.1703"/>
<text text-anchor="middle" x="320.9988" y="-238.9703" font-family="Times,serif" font-size="9.00" fill="#000000">E7</text>
</g>
<!-- E6&#45;&gt;E7 -->
<!-- 4899 -->
<g id="node14" class="node">
<title>4899</title>
<ellipse fill="#add8e6" stroke="#000000" cx="268.9988" cy="-173.1287" rx="24.0833" ry="24.0833"/>
<text text-anchor="middle" x="268.9988" y="-174.9287" font-family="Times,serif" font-size="9.00" fill="#000000">4899</text>
<text text-anchor="middle" x="268.9988" y="-165.9287" font-family="Times,serif" font-size="9.00" fill="#000000">sigm</text>
</g>
<!-- E6&#45;&gt;4899 -->
<g id="edge16" class="edge">
<title>E6&#45;&gt;4899</title>
<path fill="none" stroke="#00ff00" stroke-width=".1434" d="M275.9856,-232.9895C275.2137,-226.376 274.097,-216.8085 272.982,-207.2558"/>
<polygon fill="#00ff00" stroke="#00ff00" stroke-width=".1434" points="276.425,-206.5634 271.7892,-197.0366 269.4722,-207.3749 276.425,-206.5634"/>
</g>
<!-- E8 -->
<g id="node9" class="node">
<title>E8</title>
<polygon fill="#d3d3d3" stroke="#000000" points="377.9963,-250.1703 352.0012,-250.1703 352.0012,-233.1703 377.9963,-233.1703 377.9963,-250.1703"/>
<text text-anchor="middle" x="364.9988" y="-238.9703" font-family="Times,serif" font-size="9.00" fill="#000000">E8</text>
</g>
<!-- E7&#45;&gt;E8 -->
<!-- 2 -->
<g id="node12" class="node">
<title>2</title>
<ellipse fill="#87cefa" stroke="#000000" cx="317.9988" cy="-14.853" rx="14.4914" ry="14.4914"/>
<text text-anchor="middle" x="317.9988" y="-12.153" font-family="Times,serif" font-size="9.00" fill="#000000">2</text>
</g>
<!-- E7&#45;&gt;2 -->
<g id="edge12" class="edge">
<title>E7&#45;&gt;2</title>
<path fill="none" stroke="#00ff00" stroke-width="2.8281" d="M320.8848,-233.0558C320.4649,-201.3087 318.994,-90.0944 318.3293,-39.8396"/>
<polygon fill="#00ff00" stroke="#00ff00" stroke-width="2.8281" points="321.8251,-39.4969 318.1931,-29.5441 314.8257,-39.5895 321.8251,-39.4969"/>
</g>
<!-- E8&#45;&gt;0 -->
<g id="edge13" class="edge">
<title>E8&#45;&gt;0</title>
<path fill="none" stroke="#00ff00" stroke-width="1.36" d="M363.9154,-233.0145C360.1065,-205.6604 345.1446,-119.6996 301.9988,-65.7061 300.9161,-64.3512 266.5529,-42.7193 243.2201,-28.1096"/>
<polygon fill="#00ff00" stroke="#00ff00" stroke-width="1.36" points="244.949,-25.0628 234.615,-22.7266 241.2366,-30.9973 244.949,-25.0628"/>
</g>
<!-- 0&#45;&gt;1 -->
<!-- 1&#45;&gt;2 -->
<!-- S -->
<g id="node13" class="node">
<title>S</title>
<ellipse fill="#87cefa" stroke="#000000" cx="364.9988" cy="-14.853" rx="14.7075" ry="14.7075"/>
<text text-anchor="middle" x="364.9988" y="-12.153" font-family="Times,serif" font-size="9.00" fill="#000000">S</text>
</g>
<!-- 2&#45;&gt;S -->
<!-- 251 -->
<g id="node15" class="node">
<title>251</title>
<ellipse fill="#add8e6" stroke="#000000" cx="268.9988" cy="-89.3966" rx="23.8825" ry="23.8825"/>
<text text-anchor="middle" x="268.9988" y="-91.1966" font-family="Times,serif" font-size="9.00" fill="#000000">251</text>
<text text-anchor="middle" x="268.9988" y="-82.1966" font-family="Times,serif" font-size="9.00" fill="#000000">sigm</text>
</g>
<!-- 4899&#45;&gt;251 -->
<g id="edge17" class="edge">
<title>4899&#45;&gt;251</title>
<path fill="none" stroke="#ff0000" stroke-width=".8368" d="M268.9988,-148.9099C268.9988,-140.9435 268.9988,-131.9337 268.9988,-123.3794"/>
<polygon fill="#ff0000" stroke="#ff0000" stroke-width=".8368" points="272.4989,-123.2718 268.9988,-113.2718 265.4989,-123.2718 272.4989,-123.2718"/>
</g>
<!-- 251&#45;&gt;1 -->
<g id="edge18" class="edge">
<title>251&#45;&gt;1</title>
<path fill="none" stroke="#ff0000" stroke-width=".1968" d="M268.9988,-65.4002C268.9988,-57.2324 268.9988,-48.0862 268.9988,-39.8425"/>
<polygon fill="#ff0000" stroke="#ff0000" stroke-width=".1968" points="272.4989,-39.6835 268.9988,-29.6835 265.4989,-39.6835 272.4989,-39.6835"/>
</g>
</g>
</svg>
