<?xml version="1.0" encoding="UTF-8" standalone="no"?>
<!DOCTYPE svg PUBLIC "-//W3C//DTD SVG 1.1//EN"
 "http://www.w3.org/Graphics/SVG/1.1/DTD/svg11.dtd">
<!-- Generated by graphviz version 2.40.1 (20161225.0304)
 -->
<!-- Title: %3 Pages: 1 -->
<svg width="485pt" height="182pt"
 viewBox="0.00 0.00 484.77 181.85" xmlns="http://www.w3.org/2000/svg" xmlns:xlink="http://www.w3.org/1999/xlink">
<g id="graph0" class="graph" transform="scale(1 1) rotate(0) translate(4 177.8494)">
<title>%3</title>
<polygon fill="#ffffff" stroke="transparent" points="-4,4 -4,-177.8494 480.7661,-177.8494 480.7661,4 -4,4"/>
<!-- 0 -->
<g id="node1" class="node">
<title>0</title>
<polygon fill="#d3d3d3" stroke="#000000" points="153.389,-173.8494 133.3771,-173.8494 133.3771,-156.8494 153.389,-156.8494 153.389,-173.8494"/>
<text text-anchor="middle" x="143.383" y="-162.6494" font-family="Times,serif" font-size="9.00" fill="#000000">0</text>
</g>
<!-- 1 -->
<g id="node2" class="node">
<title>1</title>
<polygon fill="#d3d3d3" stroke="#000000" points="192.389,-173.8494 172.3771,-173.8494 172.3771,-156.8494 192.389,-156.8494 192.389,-173.8494"/>
<text text-anchor="middle" x="182.383" y="-162.6494" font-family="Times,serif" font-size="9.00" fill="#000000">1</text>
</g>
<!-- 0&#45;&gt;1 -->
<!-- E8 -->
<g id="node12" class="node">
<title>E8</title>
<ellipse fill="#87cefa" stroke="#000000" cx="458.383" cy="-18.383" rx="18.2668" ry="18.2668"/>
<text text-anchor="middle" x="458.383" y="-15.683" font-family="Times,serif" font-size="9.00" fill="#000000">E8</text>
</g>
<!-- 0&#45;&gt;E8 -->
<g id="edge12" class="edge">
<title>0&#45;&gt;E8</title>
<path fill="none" stroke="#00ff00" stroke-width="2.241" d="M153.4155,-160.6405C156.5593,-159.2863 160.0732,-157.8946 163.383,-156.8494 236.6148,-133.7238 267.1519,-161.3781 332.383,-120.8494 355.5194,-106.4745 349.9269,-90.7514 370.383,-72.7661 393.7382,-52.232 404.0461,-53.3033 430.383,-36.7661 431.6758,-35.9544 432.9979,-35.1158 434.3296,-34.2645"/>
<polygon fill="#00ff00" stroke="#00ff00" stroke-width="2.241" points="436.5645,-36.9867 443.0509,-28.6096 432.7562,-31.1133 436.5645,-36.9867"/>
</g>
<!-- 2 -->
<g id="node3" class="node">
<title>2</title>
<polygon fill="#d3d3d3" stroke="#000000" points="376.389,-173.8494 356.3771,-173.8494 356.3771,-156.8494 376.389,-156.8494 376.389,-173.8494"/>
<text text-anchor="middle" x="366.383" y="-162.6494" font-family="Times,serif" font-size="9.00" fill="#000000">2</text>
</g>
<!-- 1&#45;&gt;2 -->
<!-- E0 -->
<g id="node4" class="node">
<title>E0</title>
<ellipse fill="#87cefa" stroke="#000000" cx="18.383" cy="-18.383" rx="18.2668" ry="18.2668"/>
<text text-anchor="middle" x="18.383" y="-15.683" font-family="Times,serif" font-size="9.00" fill="#000000">E0</text>
</g>
<!-- 1&#45;&gt;E0 -->
<g id="edge16" class="edge">
<title>1&#45;&gt;E0</title>
<path fill="none" stroke="#00ff00" stroke-width=".438" d="M172.1563,-160.1017C157.8096,-152.4903 131.241,-137.468 111.383,-120.8494 82.2696,-96.4849 53.6623,-63.1567 36.0295,-41.2147"/>
<polygon fill="#00ff00" stroke="#00ff00" stroke-width=".438" points="38.5694,-38.7848 29.6122,-33.1262 33.0856,-43.1355 38.5694,-38.7848"/>
</g>
<!-- E1 -->
<g id="node5" class="node">
<title>E1</title>
<ellipse fill="#87cefa" stroke="#000000" cx="73.383" cy="-18.383" rx="18.2668" ry="18.2668"/>
<text text-anchor="middle" x="73.383" y="-15.683" font-family="Times,serif" font-size="9.00" fill="#000000">E1</text>
</g>
<!-- 1&#45;&gt;E1 -->
<g id="edge11" class="edge">
<title>1&#45;&gt;E1</title>
<path fill="none" stroke="#00ff00" stroke-width="2.6643" d="M175.891,-156.5961C159.3989,-134.3595 115.4544,-75.1084 90.792,-41.8558"/>
<polygon fill="#00ff00" stroke="#00ff00" stroke-width="2.6643" points="93.444,-39.5561 84.6757,-33.609 87.8216,-43.7261 93.444,-39.5561"/>
</g>
<!-- 4993 -->
<g id="node14" class="node">
<title>4993</title>
<ellipse fill="#add8e6" stroke="#000000" cx="403.383" cy="-96.8077" rx="24.0833" ry="24.0833"/>
<text text-anchor="middle" x="403.383" y="-98.6077" font-family="Times,serif" font-size="9.00" fill="#000000">4993</text>
<text text-anchor="middle" x="403.383" y="-89.6077" font-family="Times,serif" font-size="9.00" fill="#000000">sigm</text>
</g>
<!-- 2&#45;&gt;4993 -->
<g id="edge13" class="edge">
<title>2&#45;&gt;4993</title>
<path fill="none" stroke="#00ff00" stroke-width=".5802" d="M371.0691,-156.6685C375.1406,-149.1263 381.2859,-137.7422 387.1281,-126.9197"/>
<polygon fill="#00ff00" stroke="#00ff00" stroke-width=".5802" points="390.2416,-128.5199 391.912,-118.0575 384.0818,-125.1947 390.2416,-128.5199"/>
</g>
<!-- E0&#45;&gt;E1 -->
<!-- E2 -->
<g id="node6" class="node">
<title>E2</title>
<ellipse fill="#87cefa" stroke="#000000" cx="128.383" cy="-18.383" rx="18.2668" ry="18.2668"/>
<text text-anchor="middle" x="128.383" y="-15.683" font-family="Times,serif" font-size="9.00" fill="#000000">E2</text>
</g>
<!-- E1&#45;&gt;E2 -->
<!-- E3 -->
<g id="node7" class="node">
<title>E3</title>
<ellipse fill="#87cefa" stroke="#000000" cx="183.383" cy="-18.383" rx="18.2668" ry="18.2668"/>
<text text-anchor="middle" x="183.383" y="-15.683" font-family="Times,serif" font-size="9.00" fill="#000000">E3</text>
</g>
<!-- E2&#45;&gt;E3 -->
<!-- E4 -->
<g id="node8" class="node">
<title>E4</title>
<ellipse fill="#87cefa" stroke="#000000" cx="238.383" cy="-18.383" rx="18.2668" ry="18.2668"/>
<text text-anchor="middle" x="238.383" y="-15.683" font-family="Times,serif" font-size="9.00" fill="#000000">E4</text>
</g>
<!-- E3&#45;&gt;E4 -->
<!-- E5 -->
<g id="node9" class="node">
<title>E5</title>
<ellipse fill="#87cefa" stroke="#000000" cx="293.383" cy="-18.383" rx="18.2668" ry="18.2668"/>
<text text-anchor="middle" x="293.383" y="-15.683" font-family="Times,serif" font-size="9.00" fill="#000000">E5</text>
</g>
<!-- E4&#45;&gt;E5 -->
<!-- E6 -->
<g id="node10" class="node">
<title>E6</title>
<ellipse fill="#87cefa" stroke="#000000" cx="348.383" cy="-18.383" rx="18.2668" ry="18.2668"/>
<text text-anchor="middle" x="348.383" y="-15.683" font-family="Times,serif" font-size="9.00" fill="#000000">E6</text>
</g>
<!-- E5&#45;&gt;E6 -->
<!-- E7 -->
<g id="node11" class="node">
<title>E7</title>
<ellipse fill="#87cefa" stroke="#000000" cx="403.383" cy="-18.383" rx="18.2668" ry="18.2668"/>
<text text-anchor="middle" x="403.383" y="-15.683" font-family="Times,serif" font-size="9.00" fill="#000000">E7</text>
</g>
<!-- E6&#45;&gt;E7 -->
<!-- E7&#45;&gt;E8 -->
<!-- 3681 -->
<g id="node13" class="node">
<title>3681</title>
<ellipse fill="#add8e6" stroke="#000000" cx="299.383" cy="-96.8077" rx="24.0833" ry="24.0833"/>
<text text-anchor="middle" x="299.383" y="-98.6077" font-family="Times,serif" font-size="9.00" fill="#000000">3681</text>
<text text-anchor="middle" x="299.383" y="-89.6077" font-family="Times,serif" font-size="9.00" fill="#000000">sigm</text>
</g>
<!-- 3681&#45;&gt;E6 -->
<g id="edge15" class="edge">
<title>3681&#45;&gt;E6</title>
<path fill="none" stroke="#00ff00" stroke-width=".2438" d="M312.2572,-76.2026C318.6371,-65.9915 326.3863,-53.5889 333.0692,-42.893"/>
<polygon fill="#00ff00" stroke="#00ff00" stroke-width=".2438" points="336.048,-44.7307 338.3785,-34.3953 330.1114,-41.0215 336.048,-44.7307"/>
</g>
<!-- 4993&#45;&gt;E7 -->
<g id="edge14" class="edge">
<title>4993&#45;&gt;E7</title>
<path fill="none" stroke="#00ff00" stroke-width="3.3557" d="M403.383,-72.4236C403.383,-64.33 403.383,-55.248 403.383,-46.8729"/>
<polygon fill="#00ff00" stroke="#00ff00" stroke-width="3.3557" points="406.8831,-46.7701 403.383,-36.7702 399.8831,-46.7702 406.8831,-46.7701"/>
</g>
</g>
</svg>
