<?xml version="1.0" encoding="UTF-8" standalone="no"?>
<!DOCTYPE svg PUBLIC "-//W3C//DTD SVG 1.1//EN"
 "http://www.w3.org/Graphics/SVG/1.1/DTD/svg11.dtd">
<!-- Generated by graphviz version 2.40.1 (20161225.0304)
 -->
<!-- Title: %3 Pages: 1 -->
<svg width="386pt" height="175pt"
 viewBox="0.00 0.00 386.00 174.79" xmlns="http://www.w3.org/2000/svg" xmlns:xlink="http://www.w3.org/1999/xlink">
<g id="graph0" class="graph" transform="scale(1 1) rotate(0) translate(4 170.7893)">
<title>%3</title>
<polygon fill="#ffffff" stroke="transparent" points="-4,4 -4,-170.7893 381.9976,-170.7893 381.9976,4 -4,4"/>
<!-- E0 -->
<g id="node1" class="node">
<title>E0</title>
<polygon fill="#d3d3d3" stroke="#000000" points="25.9963,-166.7893 .0012,-166.7893 .0012,-149.7893 25.9963,-149.7893 25.9963,-166.7893"/>
<text text-anchor="middle" x="12.9988" y="-155.5893" font-family="Times,serif" font-size="9.00" fill="#000000">E0</text>
</g>
<!-- E1 -->
<g id="node2" class="node">
<title>E1</title>
<polygon fill="#d3d3d3" stroke="#000000" points="69.9963,-166.7893 44.0012,-166.7893 44.0012,-149.7893 69.9963,-149.7893 69.9963,-166.7893"/>
<text text-anchor="middle" x="56.9988" y="-155.5893" font-family="Times,serif" font-size="9.00" fill="#000000">E1</text>
</g>
<!-- E0&#45;&gt;E1 -->
<!-- 1 -->
<g id="node11" class="node">
<title>1</title>
<ellipse fill="#87cefa" stroke="#000000" cx="116.9988" cy="-14.853" rx="14.4914" ry="14.4914"/>
<text text-anchor="middle" x="116.9988" y="-12.153" font-family="Times,serif" font-size="9.00" fill="#000000">1</text>
</g>
<!-- E0&#45;&gt;1 -->
<g id="edge17" class="edge">
<title>E0&#45;&gt;1</title>
<path fill="none" stroke="#00ff00" stroke-width=".3409" d="M12.574,-149.7386C12.1385,-132.2721 13.3902,-91.9363 31.9988,-65.7061 34.1163,-62.7213 71.0109,-41.2154 95.4898,-27.143"/>
<polygon fill="#00ff00" stroke="#00ff00" stroke-width=".3409" points="97.2318,-30.1788 104.1653,-22.1677 93.7493,-24.1064 97.2318,-30.1788"/>
</g>
<!-- E2 -->
<g id="node3" class="node">
<title>E2</title>
<polygon fill="#d3d3d3" stroke="#000000" points="113.9963,-166.7893 88.0012,-166.7893 88.0012,-149.7893 113.9963,-149.7893 113.9963,-166.7893"/>
<text text-anchor="middle" x="100.9988" y="-155.5893" font-family="Times,serif" font-size="9.00" fill="#000000">E2</text>
</g>
<!-- E1&#45;&gt;E2 -->
<!-- 3669 -->
<g id="node14" class="node">
<title>3669</title>
<ellipse fill="#add8e6" stroke="#000000" cx="64.9988" cy="-89.7477" rx="24.0833" ry="24.0833"/>
<text text-anchor="middle" x="64.9988" y="-91.5477" font-family="Times,serif" font-size="9.00" fill="#000000">3669</text>
<text text-anchor="middle" x="64.9988" y="-82.5477" font-family="Times,serif" font-size="9.00" fill="#000000">sigm</text>
</g>
<!-- E1&#45;&gt;3669 -->
<g id="edge14" class="edge">
<title>E1&#45;&gt;3669</title>
<path fill="none" stroke="#00ff00" stroke-width="1.6999" d="M58.012,-149.6085C58.7839,-142.995 59.9006,-133.4275 61.0155,-123.8749"/>
<polygon fill="#00ff00" stroke="#00ff00" stroke-width="1.6999" points="64.5253,-123.994 62.2083,-113.6556 57.5725,-123.1824 64.5253,-123.994"/>
</g>
<!-- E3 -->
<g id="node4" class="node">
<title>E3</title>
<polygon fill="#d3d3d3" stroke="#000000" points="157.9963,-166.7893 132.0012,-166.7893 132.0012,-149.7893 157.9963,-149.7893 157.9963,-166.7893"/>
<text text-anchor="middle" x="144.9988" y="-155.5893" font-family="Times,serif" font-size="9.00" fill="#000000">E3</text>
</g>
<!-- E2&#45;&gt;E3 -->
<!-- E2&#45;&gt;1 -->
<g id="edge18" class="edge">
<title>E2&#45;&gt;1</title>
<path fill="none" stroke="#00ff00" stroke-width=".2633" d="M101.9517,-149.7463C104.3211,-128.5056 110.5505,-72.6603 114.2085,-39.8674"/>
<polygon fill="#00ff00" stroke="#00ff00" stroke-width=".2633" points="117.7109,-40.0397 115.3411,-29.7133 110.754,-39.2636 117.7109,-40.0397"/>
</g>
<!-- S -->
<g id="node13" class="node">
<title>S</title>
<ellipse fill="#87cefa" stroke="#000000" cx="249.9988" cy="-14.853" rx="14.7075" ry="14.7075"/>
<text text-anchor="middle" x="249.9988" y="-12.153" font-family="Times,serif" font-size="9.00" fill="#000000">S</text>
</g>
<!-- E2&#45;&gt;S -->
<g id="edge16" class="edge">
<title>E2&#45;&gt;S</title>
<path fill="none" stroke="#00ff00" stroke-width=".2931" d="M109.8732,-149.7463C133.6686,-126.8395 199.271,-63.6866 231.5593,-32.604"/>
<polygon fill="#00ff00" stroke="#00ff00" stroke-width=".2931" points="234.2277,-34.8935 239.0047,-25.4366 229.373,-29.8504 234.2277,-34.8935"/>
</g>
<!-- E4 -->
<g id="node5" class="node">
<title>E4</title>
<polygon fill="#d3d3d3" stroke="#000000" points="201.9963,-166.7893 176.0012,-166.7893 176.0012,-149.7893 201.9963,-149.7893 201.9963,-166.7893"/>
<text text-anchor="middle" x="188.9988" y="-155.5893" font-family="Times,serif" font-size="9.00" fill="#000000">E4</text>
</g>
<!-- E3&#45;&gt;E4 -->
<!-- E5 -->
<g id="node6" class="node">
<title>E5</title>
<polygon fill="#d3d3d3" stroke="#000000" points="245.9963,-166.7893 220.0012,-166.7893 220.0012,-149.7893 245.9963,-149.7893 245.9963,-166.7893"/>
<text text-anchor="middle" x="232.9988" y="-155.5893" font-family="Times,serif" font-size="9.00" fill="#000000">E5</text>
</g>
<!-- E4&#45;&gt;E5 -->
<!-- E6 -->
<g id="node7" class="node">
<title>E6</title>
<polygon fill="#d3d3d3" stroke="#000000" points="289.9963,-166.7893 264.0012,-166.7893 264.0012,-149.7893 289.9963,-149.7893 289.9963,-166.7893"/>
<text text-anchor="middle" x="276.9988" y="-155.5893" font-family="Times,serif" font-size="9.00" fill="#000000">E6</text>
</g>
<!-- E5&#45;&gt;E6 -->
<!-- E7 -->
<g id="node8" class="node">
<title>E7</title>
<polygon fill="#d3d3d3" stroke="#000000" points="333.9963,-166.7893 308.0012,-166.7893 308.0012,-149.7893 333.9963,-149.7893 333.9963,-166.7893"/>
<text text-anchor="middle" x="320.9988" y="-155.5893" font-family="Times,serif" font-size="9.00" fill="#000000">E7</text>
</g>
<!-- E6&#45;&gt;E7 -->
<!-- 2 -->
<g id="node12" class="node">
<title>2</title>
<ellipse fill="#87cefa" stroke="#000000" cx="202.9988" cy="-14.853" rx="14.4914" ry="14.4914"/>
<text text-anchor="middle" x="202.9988" y="-12.153" font-family="Times,serif" font-size="9.00" fill="#000000">2</text>
</g>
<!-- E6&#45;&gt;2 -->
<g id="edge12" class="edge">
<title>E6&#45;&gt;2</title>
<path fill="none" stroke="#ff0000" stroke-width="2.3059" d="M272.5914,-149.7463C261.3122,-127.8836 231.1195,-69.3602 214.4491,-37.0474"/>
<polygon fill="#ff0000" stroke="#ff0000" stroke-width="2.3059" points="217.4409,-35.2127 209.7455,-27.9304 211.22,-38.4222 217.4409,-35.2127"/>
</g>
<!-- E8 -->
<g id="node9" class="node">
<title>E8</title>
<polygon fill="#d3d3d3" stroke="#000000" points="377.9963,-166.7893 352.0012,-166.7893 352.0012,-149.7893 377.9963,-149.7893 377.9963,-166.7893"/>
<text text-anchor="middle" x="364.9988" y="-155.5893" font-family="Times,serif" font-size="9.00" fill="#000000">E8</text>
</g>
<!-- E7&#45;&gt;E8 -->
<!-- E8&#45;&gt;1 -->
<g id="edge13" class="edge">
<title>E8&#45;&gt;1</title>
<path fill="none" stroke="#00ff00" stroke-width="1.4303" d="M351.6652,-150.5776C311.0225,-127.0709 188.431,-56.1674 138.5054,-27.2919"/>
<polygon fill="#00ff00" stroke="#00ff00" stroke-width="1.4303" points="140.2081,-24.2335 129.7993,-22.2565 136.7034,-30.293 140.2081,-24.2335"/>
</g>
<!-- E8&#45;&gt;S -->
<g id="edge19" class="edge">
<title>E8&#45;&gt;S</title>
<path fill="none" stroke="#00ff00" stroke-width=".3718" d="M362.2413,-149.5902C356.4132,-132.1984 341.5027,-92.5108 318.9988,-65.7061 305.8124,-49.9996 286.8271,-36.4665 272.1078,-27.3185"/>
<polygon fill="#00ff00" stroke="#00ff00" stroke-width=".3718" points="273.5332,-24.0927 263.1549,-21.9614 269.9389,-30.0995 273.5332,-24.0927"/>
</g>
<!-- 0 -->
<g id="node10" class="node">
<title>0</title>
<ellipse fill="#87cefa" stroke="#000000" cx="67.9988" cy="-14.853" rx="14.4914" ry="14.4914"/>
<text text-anchor="middle" x="67.9988" y="-12.153" font-family="Times,serif" font-size="9.00" fill="#000000">0</text>
</g>
<!-- 0&#45;&gt;1 -->
<!-- 1&#45;&gt;2 -->
<!-- 2&#45;&gt;S -->
<!-- 3669&#45;&gt;0 -->
<g id="edge15" class="edge">
<title>3669&#45;&gt;0</title>
<path fill="none" stroke="#00ff00" stroke-width="2.9419" d="M65.9645,-65.6383C66.2932,-57.432 66.6613,-48.2428 66.9931,-39.9602"/>
<polygon fill="#00ff00" stroke="#00ff00" stroke-width="2.9419" points="70.4988,-39.8855 67.4019,-29.7534 63.5044,-39.6052 70.4988,-39.8855"/>
</g>
</g>
</svg>
