<?xml version="1.0" encoding="UTF-8" standalone="no"?>
<!DOCTYPE svg PUBLIC "-//W3C//DTD SVG 1.1//EN"
 "http://www.w3.org/Graphics/SVG/1.1/DTD/svg11.dtd">
<!-- Generated by graphviz version 2.40.1 (20161225.0304)
 -->
<!-- Title: %3 Pages: 1 -->
<svg width="442pt" height="343pt"
 viewBox="0.00 0.00 442.00 342.96" xmlns="http://www.w3.org/2000/svg" xmlns:xlink="http://www.w3.org/1999/xlink">
<g id="graph0" class="graph" transform="scale(1 1) rotate(0) translate(4 338.9559)">
<title>%3</title>
<polygon fill="#ffffff" stroke="transparent" points="-4,4 -4,-338.9559 437.9976,-338.9559 437.9976,4 -4,4"/>
<!-- E0 -->
<g id="node1" class="node">
<title>E0</title>
<polygon fill="#d3d3d3" stroke="#000000" points="25.9963,-334.9559 .0012,-334.9559 .0012,-317.9559 25.9963,-317.9559 25.9963,-334.9559"/>
<text text-anchor="middle" x="12.9988" y="-323.7559" font-family="Times,serif" font-size="9.00" fill="#000000">E0</text>
</g>
<!-- E1 -->
<g id="node2" class="node">
<title>E1</title>
<polygon fill="#d3d3d3" stroke="#000000" points="88.9963,-334.9559 63.0012,-334.9559 63.0012,-317.9559 88.9963,-317.9559 88.9963,-334.9559"/>
<text text-anchor="middle" x="75.9988" y="-323.7559" font-family="Times,serif" font-size="9.00" fill="#000000">E1</text>
</g>
<!-- E0&#45;&gt;E1 -->
<!-- S -->
<g id="node13" class="node">
<title>S</title>
<ellipse fill="#87cefa" stroke="#000000" cx="263.9988" cy="-14.853" rx="14.7075" ry="14.7075"/>
<text text-anchor="middle" x="263.9988" y="-12.153" font-family="Times,serif" font-size="9.00" fill="#000000">S</text>
</g>
<!-- E0&#45;&gt;S -->
<g id="edge18" class="edge">
<title>E0&#45;&gt;S</title>
<path fill="none" stroke="#ff0000" stroke-width="1.7735" d="M18.3967,-317.8449C39.861,-283.9149 122.0792,-156.8652 205.9988,-65.7061 217.8225,-52.8624 232.644,-39.9129 244.3444,-30.2957"/>
<polygon fill="#ff0000" stroke="#ff0000" stroke-width="1.7735" points="246.6444,-32.937 252.225,-23.931 242.2462,-27.4913 246.6444,-32.937"/>
</g>
<!-- E2 -->
<g id="node3" class="node">
<title>E2</title>
<polygon fill="#d3d3d3" stroke="#000000" points="141.9963,-334.9559 116.0012,-334.9559 116.0012,-317.9559 141.9963,-317.9559 141.9963,-334.9559"/>
<text text-anchor="middle" x="128.9988" y="-323.7559" font-family="Times,serif" font-size="9.00" fill="#000000">E2</text>
</g>
<!-- E1&#45;&gt;E2 -->
<!-- E3 -->
<g id="node4" class="node">
<title>E3</title>
<polygon fill="#d3d3d3" stroke="#000000" points="185.9963,-334.9559 160.0012,-334.9559 160.0012,-317.9559 185.9963,-317.9559 185.9963,-334.9559"/>
<text text-anchor="middle" x="172.9988" y="-323.7559" font-family="Times,serif" font-size="9.00" fill="#000000">E3</text>
</g>
<!-- E2&#45;&gt;E3 -->
<!-- 2414 -->
<g id="node15" class="node">
<title>2414</title>
<ellipse fill="#add8e6" stroke="#000000" cx="238.9988" cy="-89.7477" rx="24.0833" ry="24.0833"/>
<text text-anchor="middle" x="238.9988" y="-91.5477" font-family="Times,serif" font-size="9.00" fill="#000000">2414</text>
<text text-anchor="middle" x="238.9988" y="-82.5477" font-family="Times,serif" font-size="9.00" fill="#000000">sigm</text>
</g>
<!-- E2&#45;&gt;2414 -->
<g id="edge15" class="edge">
<title>E2&#45;&gt;2414</title>
<path fill="none" stroke="#00ff00" stroke-width="1.0628" d="M133.0886,-317.6297C145.0553,-291.808 181.0449,-214.1721 210.9988,-149.7893 215.3558,-140.4243 220.1017,-130.241 224.4274,-120.966"/>
<polygon fill="#00ff00" stroke="#00ff00" stroke-width="1.0628" points="227.6933,-122.2438 228.7492,-111.7017 221.3497,-119.2844 227.6933,-122.2438"/>
</g>
<!-- E4 -->
<g id="node5" class="node">
<title>E4</title>
<polygon fill="#d3d3d3" stroke="#000000" points="229.9963,-334.9559 204.0012,-334.9559 204.0012,-317.9559 229.9963,-317.9559 229.9963,-334.9559"/>
<text text-anchor="middle" x="216.9988" y="-323.7559" font-family="Times,serif" font-size="9.00" fill="#000000">E4</text>
</g>
<!-- E3&#45;&gt;E4 -->
<!-- E3&#45;&gt;S -->
<g id="edge14" class="edge">
<title>E3&#45;&gt;S</title>
<path fill="none" stroke="#ff0000" stroke-width="2.5751" d="M175.5876,-317.6042C183.5484,-291.0653 209.2468,-210.2621 243.9988,-149.7893 254.0983,-132.2148 265.4205,-132.962 271.9988,-113.7893 280.4283,-89.2213 276.1584,-59.2864 271.2211,-38.8211"/>
<polygon fill="#ff0000" stroke="#ff0000" stroke-width="2.5751" points="274.5807,-37.8349 268.6421,-29.0609 267.813,-39.6232 274.5807,-37.8349"/>
</g>
<!-- E5 -->
<g id="node6" class="node">
<title>E5</title>
<polygon fill="#d3d3d3" stroke="#000000" points="278.9963,-334.9559 253.0012,-334.9559 253.0012,-317.9559 278.9963,-317.9559 278.9963,-334.9559"/>
<text text-anchor="middle" x="265.9988" y="-323.7559" font-family="Times,serif" font-size="9.00" fill="#000000">E5</text>
</g>
<!-- E4&#45;&gt;E5 -->
<!-- 0 -->
<g id="node10" class="node">
<title>0</title>
<ellipse fill="#87cefa" stroke="#000000" cx="68.9988" cy="-14.853" rx="14.4914" ry="14.4914"/>
<text text-anchor="middle" x="68.9988" y="-12.153" font-family="Times,serif" font-size="9.00" fill="#000000">0</text>
</g>
<!-- E4&#45;&gt;0 -->
<g id="edge13" class="edge">
<title>E4&#45;&gt;0</title>
<path fill="none" stroke="#ff0000" stroke-width="2.0229" d="M212.8859,-317.7966C193.3431,-276.6505 109.5747,-100.2825 79.6644,-37.3086"/>
<polygon fill="#ff0000" stroke="#ff0000" stroke-width="2.0229" points="82.7963,-35.7447 75.3445,-28.2134 76.4733,-38.7479 82.7963,-35.7447"/>
</g>
<!-- 2 -->
<g id="node12" class="node">
<title>2</title>
<ellipse fill="#87cefa" stroke="#000000" cx="216.9988" cy="-14.853" rx="14.4914" ry="14.4914"/>
<text text-anchor="middle" x="216.9988" y="-12.153" font-family="Times,serif" font-size="9.00" fill="#000000">2</text>
</g>
<!-- E4&#45;&gt;2 -->
<g id="edge22" class="edge">
<title>E4&#45;&gt;2</title>
<path fill="none" stroke="#ff0000" stroke-width=".1643" d="M215.7148,-317.8729C210.9995,-285.0501 195.4497,-164.3712 205.9988,-65.7061 206.9441,-56.8648 208.7888,-47.3038 210.7015,-38.884"/>
<polygon fill="#ff0000" stroke="#ff0000" stroke-width=".1643" points="214.1506,-39.5115 213.0981,-28.9691 207.3465,-37.8668 214.1506,-39.5115"/>
</g>
<!-- E6 -->
<g id="node7" class="node">
<title>E6</title>
<polygon fill="#d3d3d3" stroke="#000000" points="322.9963,-334.9559 297.0012,-334.9559 297.0012,-317.9559 322.9963,-317.9559 322.9963,-334.9559"/>
<text text-anchor="middle" x="309.9988" y="-323.7559" font-family="Times,serif" font-size="9.00" fill="#000000">E6</text>
</g>
<!-- E5&#45;&gt;E6 -->
<!-- 2990 -->
<g id="node16" class="node">
<title>2990</title>
<ellipse fill="#add8e6" stroke="#000000" cx="276.9988" cy="-173.831" rx="24.0833" ry="24.0833"/>
<text text-anchor="middle" x="276.9988" y="-175.631" font-family="Times,serif" font-size="9.00" fill="#000000">2990</text>
<text text-anchor="middle" x="276.9988" y="-166.631" font-family="Times,serif" font-size="9.00" fill="#000000">sigm</text>
</g>
<!-- E5&#45;&gt;2990 -->
<g id="edge20" class="edge">
<title>E5&#45;&gt;2990</title>
<path fill="none" stroke="#00ff00" stroke-width=".1125" d="M266.6217,-317.8128C268.115,-297.0933 271.9652,-243.6721 274.5323,-208.0532"/>
<polygon fill="#00ff00" stroke="#00ff00" stroke-width=".1125" points="278.0235,-208.2999 275.2515,-198.0741 271.0416,-207.7966 278.0235,-208.2999"/>
</g>
<!-- E7 -->
<g id="node8" class="node">
<title>E7</title>
<polygon fill="#d3d3d3" stroke="#000000" points="366.9963,-334.9559 341.0012,-334.9559 341.0012,-317.9559 366.9963,-317.9559 366.9963,-334.9559"/>
<text text-anchor="middle" x="353.9988" y="-323.7559" font-family="Times,serif" font-size="9.00" fill="#000000">E7</text>
</g>
<!-- E6&#45;&gt;E7 -->
<!-- E8 -->
<g id="node9" class="node">
<title>E8</title>
<polygon fill="#d3d3d3" stroke="#000000" points="433.9963,-334.9559 408.0012,-334.9559 408.0012,-317.9559 433.9963,-317.9559 433.9963,-334.9559"/>
<text text-anchor="middle" x="420.9988" y="-323.7559" font-family="Times,serif" font-size="9.00" fill="#000000">E8</text>
</g>
<!-- E7&#45;&gt;E8 -->
<!-- 1 -->
<g id="node11" class="node">
<title>1</title>
<ellipse fill="#87cefa" stroke="#000000" cx="148.9988" cy="-14.853" rx="14.4914" ry="14.4914"/>
<text text-anchor="middle" x="148.9988" y="-12.153" font-family="Times,serif" font-size="9.00" fill="#000000">1</text>
</g>
<!-- E7&#45;&gt;1 -->
<g id="edge12" class="edge">
<title>E7&#45;&gt;1</title>
<path fill="none" stroke="#00ff00" stroke-width="4.6768" d="M344.927,-317.8765C335.8086,-309.1178 321.4953,-294.9947 309.9988,-281.9559 278.5795,-246.3214 269.7209,-237.8145 243.9988,-197.8726 208.5391,-142.81 175.2454,-72.9811 159.1303,-37.6094"/>
<polygon fill="#00ff00" stroke="#00ff00" stroke-width="4.6768" points="162.721,-35.6176 154.8747,-28.1891 155.2624,-38.9871 162.721,-35.6176"/>
</g>
<!-- E7&#45;&gt;2 -->
<g id="edge19" class="edge">
<title>E7&#45;&gt;2</title>
<path fill="none" stroke="#00ff00" stroke-width=".1262" d="M359.8401,-317.7143C365.2461,-309.0587 372.9001,-295.2155 375.9988,-281.9559 389.3658,-224.7563 400.675,-203.0955 375.9988,-149.7893 361.2144,-117.8517 277.1847,-56.6005 237.6103,-28.9785"/>
<polygon fill="#00ff00" stroke="#00ff00" stroke-width=".1262" points="239.2208,-25.8362 229.0082,-23.0161 235.2331,-31.5893 239.2208,-25.8362"/>
</g>
<!-- 5476 -->
<g id="node14" class="node">
<title>5476</title>
<ellipse fill="#add8e6" stroke="#000000" cx="342.9988" cy="-257.9142" rx="24.0833" ry="24.0833"/>
<text text-anchor="middle" x="342.9988" y="-259.7142" font-family="Times,serif" font-size="9.00" fill="#000000">5476</text>
<text text-anchor="middle" x="342.9988" y="-250.7142" font-family="Times,serif" font-size="9.00" fill="#000000">sigm</text>
</g>
<!-- E7&#45;&gt;5476 -->
<g id="edge25" class="edge">
<title>E7&#45;&gt;5476</title>
<path fill="none" stroke="#00ff00" stroke-width=".5189" d="M352.6056,-317.775C351.5329,-311.0911 349.9761,-301.3901 348.4268,-291.7365"/>
<polygon fill="#00ff00" stroke="#00ff00" stroke-width=".5189" points="351.8761,-291.1411 346.8357,-281.8221 344.9646,-292.2504 351.8761,-291.1411"/>
</g>
<!-- E8&#45;&gt;S -->
<g id="edge21" class="edge">
<title>E8&#45;&gt;S</title>
<path fill="none" stroke="#ff0000" stroke-width=".1109" d="M421.7514,-317.8113C423.6915,-291.1859 426.8557,-208.6701 397.9988,-149.7893 371.683,-96.0936 315.5289,-50.8338 284.9307,-28.951"/>
<polygon fill="#ff0000" stroke="#ff0000" stroke-width=".1109" points="286.8692,-26.0357 276.6697,-23.1685 282.855,-31.7704 286.8692,-26.0357"/>
</g>
<!-- 0&#45;&gt;1 -->
<!-- 1&#45;&gt;2 -->
<!-- 2&#45;&gt;S -->
<!-- 5458 -->
<g id="node17" class="node">
<title>5458</title>
<ellipse fill="#add8e6" stroke="#000000" cx="342.9988" cy="-173.831" rx="24.0833" ry="24.0833"/>
<text text-anchor="middle" x="342.9988" y="-175.631" font-family="Times,serif" font-size="9.00" fill="#000000">5458</text>
<text text-anchor="middle" x="342.9988" y="-166.631" font-family="Times,serif" font-size="9.00" fill="#000000">sigm</text>
</g>
<!-- 5476&#45;&gt;5458 -->
<g id="edge26" class="edge">
<title>5476&#45;&gt;5458</title>
<path fill="none" stroke="#00ff00" stroke-width=".3254" d="M342.9988,-233.5939C342.9988,-225.663 342.9988,-216.7024 342.9988,-208.1786"/>
<polygon fill="#00ff00" stroke="#00ff00" stroke-width=".3254" points="346.4989,-208.0966 342.9988,-198.0967 339.4989,-208.0967 346.4989,-208.0966"/>
</g>
<!-- 2414&#45;&gt;2 -->
<g id="edge16" class="edge">
<title>2414&#45;&gt;2</title>
<path fill="none" stroke="#00ff00" stroke-width="1.0442" d="M232.1584,-66.4611C229.5837,-57.6959 226.6524,-47.7168 224.058,-38.8849"/>
<polygon fill="#00ff00" stroke="#00ff00" stroke-width="1.0442" points="227.3855,-37.7937 221.2089,-29.1855 220.6692,-39.7666 227.3855,-37.7937"/>
</g>
<!-- 2414&#45;&gt;S -->
<g id="edge24" class="edge">
<title>2414&#45;&gt;S</title>
<path fill="none" stroke="#ff0000" stroke-width=".1789" d="M246.6354,-66.8699C249.5984,-57.9934 252.9933,-47.823 255.9908,-38.8434"/>
<polygon fill="#ff0000" stroke="#ff0000" stroke-width=".1789" points="259.3154,-39.9371 259.1619,-29.3434 252.6756,-37.7207 259.3154,-39.9371"/>
</g>
<!-- 2990&#45;&gt;2414 -->
<g id="edge17" class="edge">
<title>2990&#45;&gt;2414</title>
<path fill="none" stroke="#ff0000" stroke-width=".2724" d="M267.0147,-151.7391C262.782,-142.3734 257.7722,-131.2881 253.1678,-121.0999"/>
<polygon fill="#ff0000" stroke="#ff0000" stroke-width=".2724" points="256.2239,-119.3633 248.9162,-111.6921 249.8451,-122.2461 256.2239,-119.3633"/>
</g>
<!-- 5458&#45;&gt;2414 -->
<g id="edge23" class="edge">
<title>5458&#45;&gt;2414</title>
<path fill="none" stroke="#ff0000" stroke-width=".3508" d="M323.9236,-158.4088C307.6508,-145.2524 284.0704,-126.1878 265.8838,-111.4841"/>
<polygon fill="#ff0000" stroke="#ff0000" stroke-width=".3508" points="267.93,-108.6375 257.9531,-105.0721 263.5289,-114.081 267.93,-108.6375"/>
</g>
</g>
</svg>
