<?xml version="1.0" encoding="UTF-8" standalone="no"?>
<!DOCTYPE svg PUBLIC "-//W3C//DTD SVG 1.1//EN"
 "http://www.w3.org/Graphics/SVG/1.1/DTD/svg11.dtd">
<!-- Generated by graphviz version 2.40.1 (20161225.0304)
 -->
<!-- Title: %3 Pages: 1 -->
<svg width="386pt" height="91pt"
 viewBox="0.00 0.00 386.00 90.71" xmlns="http://www.w3.org/2000/svg" xmlns:xlink="http://www.w3.org/1999/xlink">
<g id="graph0" class="graph" transform="scale(1 1) rotate(0) translate(4 86.7061)">
<title>%3</title>
<polygon fill="#ffffff" stroke="transparent" points="-4,4 -4,-86.7061 381.9976,-86.7061 381.9976,4 -4,4"/>
<!-- E0 -->
<g id="node1" class="node">
<title>E0</title>
<polygon fill="#d3d3d3" stroke="#000000" points="25.9963,-82.7061 .0012,-82.7061 .0012,-65.7061 25.9963,-65.7061 25.9963,-82.7061"/>
<text text-anchor="middle" x="12.9988" y="-71.5061" font-family="Times,serif" font-size="9.00" fill="#000000">E0</text>
</g>
<!-- E1 -->
<g id="node2" class="node">
<title>E1</title>
<polygon fill="#d3d3d3" stroke="#000000" points="69.9963,-82.7061 44.0012,-82.7061 44.0012,-65.7061 69.9963,-65.7061 69.9963,-82.7061"/>
<text text-anchor="middle" x="56.9988" y="-71.5061" font-family="Times,serif" font-size="9.00" fill="#000000">E1</text>
</g>
<!-- E0&#45;&gt;E1 -->
<!-- E2 -->
<g id="node3" class="node">
<title>E2</title>
<polygon fill="#d3d3d3" stroke="#000000" points="113.9963,-82.7061 88.0012,-82.7061 88.0012,-65.7061 113.9963,-65.7061 113.9963,-82.7061"/>
<text text-anchor="middle" x="100.9988" y="-71.5061" font-family="Times,serif" font-size="9.00" fill="#000000">E2</text>
</g>
<!-- E1&#45;&gt;E2 -->
<!-- 0 -->
<g id="node10" class="node">
<title>0</title>
<ellipse fill="#87cefa" stroke="#000000" cx="76.9988" cy="-14.853" rx="14.4914" ry="14.4914"/>
<text text-anchor="middle" x="76.9988" y="-12.153" font-family="Times,serif" font-size="9.00" fill="#000000">0</text>
</g>
<!-- E1&#45;&gt;0 -->
<g id="edge15" class="edge">
<title>E1&#45;&gt;0</title>
<path fill="none" stroke="#ff0000" stroke-width=".9546" d="M59.8643,-65.7022C62.2692,-58.5652 65.8229,-48.0192 69.0714,-38.3789"/>
<polygon fill="#ff0000" stroke="#ff0000" stroke-width=".9546" points="72.4086,-39.4355 72.2852,-28.8414 65.7751,-37.2002 72.4086,-39.4355"/>
</g>
<!-- E3 -->
<g id="node4" class="node">
<title>E3</title>
<polygon fill="#d3d3d3" stroke="#000000" points="157.9963,-82.7061 132.0012,-82.7061 132.0012,-65.7061 157.9963,-65.7061 157.9963,-82.7061"/>
<text text-anchor="middle" x="144.9988" y="-71.5061" font-family="Times,serif" font-size="9.00" fill="#000000">E3</text>
</g>
<!-- E2&#45;&gt;E3 -->
<!-- 2 -->
<g id="node12" class="node">
<title>2</title>
<ellipse fill="#87cefa" stroke="#000000" cx="170.9988" cy="-14.853" rx="14.4914" ry="14.4914"/>
<text text-anchor="middle" x="170.9988" y="-12.153" font-family="Times,serif" font-size="9.00" fill="#000000">2</text>
</g>
<!-- E2&#45;&gt;2 -->
<g id="edge18" class="edge">
<title>E2&#45;&gt;2</title>
<path fill="none" stroke="#ff0000" stroke-width=".1613" d="M111.0281,-65.7022C121.6722,-56.677 138.7457,-42.2004 151.9582,-30.9976"/>
<polygon fill="#ff0000" stroke="#ff0000" stroke-width=".1613" points="154.23,-33.6601 159.5938,-24.5233 149.703,-28.321 154.23,-33.6601"/>
</g>
<!-- S -->
<g id="node13" class="node">
<title>S</title>
<ellipse fill="#87cefa" stroke="#000000" cx="217.9988" cy="-14.853" rx="14.7075" ry="14.7075"/>
<text text-anchor="middle" x="217.9988" y="-12.153" font-family="Times,serif" font-size="9.00" fill="#000000">S</text>
</g>
<!-- E2&#45;&gt;S -->
<g id="edge14" class="edge">
<title>E2&#45;&gt;S</title>
<path fill="none" stroke="#ff0000" stroke-width="1.2731" d="M114.1599,-68.4495C132.3835,-60.3574 166.1995,-44.9015 193.9988,-29.7061 194.8265,-29.2537 195.6654,-28.7853 196.5091,-28.3059"/>
<polygon fill="#ff0000" stroke="#ff0000" stroke-width="1.2731" points="198.6503,-31.1041 205.4454,-22.9753 195.0642,-25.0925 198.6503,-31.1041"/>
</g>
<!-- E4 -->
<g id="node5" class="node">
<title>E4</title>
<polygon fill="#d3d3d3" stroke="#000000" points="201.9963,-82.7061 176.0012,-82.7061 176.0012,-65.7061 201.9963,-65.7061 201.9963,-82.7061"/>
<text text-anchor="middle" x="188.9988" y="-71.5061" font-family="Times,serif" font-size="9.00" fill="#000000">E4</text>
</g>
<!-- E3&#45;&gt;E4 -->
<!-- 1 -->
<g id="node11" class="node">
<title>1</title>
<ellipse fill="#87cefa" stroke="#000000" cx="123.9988" cy="-14.853" rx="14.4914" ry="14.4914"/>
<text text-anchor="middle" x="123.9988" y="-12.153" font-family="Times,serif" font-size="9.00" fill="#000000">1</text>
</g>
<!-- E3&#45;&gt;1 -->
<g id="edge13" class="edge">
<title>E3&#45;&gt;1</title>
<path fill="none" stroke="#00ff00" stroke-width="1.2238" d="M141.99,-65.7022C139.4648,-58.5652 135.7335,-48.0192 132.3226,-38.3789"/>
<polygon fill="#00ff00" stroke="#00ff00" stroke-width="1.2238" points="135.5832,-37.1012 128.9481,-28.8414 128.9841,-39.4362 135.5832,-37.1012"/>
</g>
<!-- E3&#45;&gt;2 -->
<g id="edge12" class="edge">
<title>E3&#45;&gt;2</title>
<path fill="none" stroke="#ff0000" stroke-width="2.601" d="M148.7239,-65.7022C151.9254,-58.3939 156.6927,-47.511 160.9965,-37.6864"/>
<polygon fill="#ff0000" stroke="#ff0000" stroke-width="2.601" points="164.2639,-38.9502 165.0705,-28.3861 157.8521,-36.1415 164.2639,-38.9502"/>
</g>
<!-- E5 -->
<g id="node6" class="node">
<title>E5</title>
<polygon fill="#d3d3d3" stroke="#000000" points="245.9963,-82.7061 220.0012,-82.7061 220.0012,-65.7061 245.9963,-65.7061 245.9963,-82.7061"/>
<text text-anchor="middle" x="232.9988" y="-71.5061" font-family="Times,serif" font-size="9.00" fill="#000000">E5</text>
</g>
<!-- E4&#45;&gt;E5 -->
<!-- E6 -->
<g id="node7" class="node">
<title>E6</title>
<polygon fill="#d3d3d3" stroke="#000000" points="289.9963,-82.7061 264.0012,-82.7061 264.0012,-65.7061 289.9963,-65.7061 289.9963,-82.7061"/>
<text text-anchor="middle" x="276.9988" y="-71.5061" font-family="Times,serif" font-size="9.00" fill="#000000">E6</text>
</g>
<!-- E5&#45;&gt;E6 -->
<!-- E7 -->
<g id="node8" class="node">
<title>E7</title>
<polygon fill="#d3d3d3" stroke="#000000" points="333.9963,-82.7061 308.0012,-82.7061 308.0012,-65.7061 333.9963,-65.7061 333.9963,-82.7061"/>
<text text-anchor="middle" x="320.9988" y="-71.5061" font-family="Times,serif" font-size="9.00" fill="#000000">E7</text>
</g>
<!-- E6&#45;&gt;E7 -->
<!-- E6&#45;&gt;1 -->
<g id="edge19" class="edge">
<title>E6&#45;&gt;1</title>
<path fill="none" stroke="#00ff00" stroke-width=".1521" d="M263.5379,-68.8972C260.7249,-67.8182 257.7716,-66.7076 254.9988,-65.7061 207.8079,-48.6604 193.4082,-51.0489 147.9988,-29.7061 147.1451,-29.3048 146.2841,-28.88 145.4217,-28.4373"/>
<polygon fill="#00ff00" stroke="#00ff00" stroke-width=".1521" points="146.817,-25.2034 136.3987,-23.2776 143.3422,-31.28 146.817,-25.2034"/>
</g>
<!-- E8 -->
<g id="node9" class="node">
<title>E8</title>
<polygon fill="#d3d3d3" stroke="#000000" points="377.9963,-82.7061 352.0012,-82.7061 352.0012,-65.7061 377.9963,-65.7061 377.9963,-82.7061"/>
<text text-anchor="middle" x="364.9988" y="-71.5061" font-family="Times,serif" font-size="9.00" fill="#000000">E8</text>
</g>
<!-- E7&#45;&gt;E8 -->
<!-- E7&#45;&gt;0 -->
<g id="edge17" class="edge">
<title>E7&#45;&gt;0</title>
<path fill="none" stroke="#00ff00" stroke-width=".4376" d="M307.6388,-68.5825C304.8185,-67.5263 301.8367,-66.5046 298.9988,-65.7061 212.8993,-41.4806 184.4847,-61.8012 100.9988,-29.7061 100.1183,-29.3676 99.2346,-28.9961 98.353,-28.5983"/>
<polygon fill="#00ff00" stroke="#00ff00" stroke-width=".4376" points="99.6985,-25.3461 89.2406,-23.6483 96.3571,-31.4972 99.6985,-25.3461"/>
</g>
<!-- E7&#45;&gt;S -->
<g id="edge16" class="edge">
<title>E7&#45;&gt;S</title>
<path fill="none" stroke="#ff0000" stroke-width="1.1668" d="M307.9538,-66.689C290.7726,-56.7885 260.3248,-39.2431 239.6609,-27.3357"/>
<polygon fill="#ff0000" stroke="#ff0000" stroke-width="1.1668" points="241.3498,-24.2694 230.9379,-22.3091 237.8548,-30.3345 241.3498,-24.2694"/>
</g>
<!-- 0&#45;&gt;1 -->
<!-- 1&#45;&gt;2 -->
<!-- 2&#45;&gt;S -->
</g>
</svg>
