<?xml version="1.0" encoding="utf-8" standalone="no"?>
<!DOCTYPE svg PUBLIC "-//W3C//DTD SVG 1.1//EN"
  "http://www.w3.org/Graphics/SVG/1.1/DTD/svg11.dtd">
<!-- Created with matplotlib (https://matplotlib.org/) -->
<svg height="345.6pt" version="1.1" viewBox="0 0 460.8 345.6" width="460.8pt" xmlns="http://www.w3.org/2000/svg" xmlns:xlink="http://www.w3.org/1999/xlink">
 <defs>
  <style type="text/css">
*{stroke-linecap:butt;stroke-linejoin:round;}
  </style>
 </defs>
 <g id="figure_1">
  <g id="patch_1">
   <path d="M 0 345.6 
L 460.8 345.6 
L 460.8 0 
L 0 0 
z
" style="fill:#ffffff;"/>
  </g>
  <g id="axes_1">
   <g id="patch_2">
    <path d="M 57.6 307.584 
L 414.72 307.584 
L 414.72 41.472 
L 57.6 41.472 
z
" style="fill:#ffffff;"/>
   </g>
   <g id="PolyCollection_1">
    <path clip-path="url(#pe32ff525ff)" d="M 73.832727 53.568 
L 73.832727 75.540985 
L 74.918528 73.805783 
L 76.00433 114.849155 
L 77.090131 119.194806 
L 78.175932 131.129099 
L 79.261733 134.949236 
L 80.347534 149.438275 
L 81.433335 127.697649 
L 82.519137 133.655947 
L 83.604938 149.952169 
L 84.690739 123.774943 
L 85.77654 130.99874 
L 86.862341 157.725419 
L 87.948142 145.135301 
L 89.033943 133.981416 
L 90.119745 141.212886 
L 91.205546 137.163645 
L 92.291347 142.196643 
L 93.377148 127.428919 
L 94.462949 150.848718 
L 95.54875 155.307342 
L 96.634552 171.622972 
L 97.720353 192.892144 
L 98.806154 159.181003 
L 99.891955 183.225211 
L 100.977756 209.167942 
L 102.063557 165.22358 
L 103.149358 196.070068 
L 104.23516 194.726275 
L 105.320961 199.784032 
L 106.406762 177.230845 
L 107.492563 157.036272 
L 108.578364 169.746392 
L 109.664165 158.915522 
L 110.749967 173.985925 
L 111.835768 217.765762 
L 112.921569 185.552726 
L 114.00737 192.871699 
L 115.093171 213.939276 
L 116.178972 175.029767 
L 117.264773 202.314503 
L 118.350575 183.8168 
L 119.436376 214.203445 
L 120.522177 231.730299 
L 121.607978 191.535996 
L 122.693779 189.739593 
L 123.77958 185.729694 
L 124.865382 151.735534 
L 125.951183 148.909259 
L 127.036984 141.572807 
L 128.122785 170.933629 
L 129.208586 170.71375 
L 130.294387 171.07643 
L 131.380189 181.396716 
L 132.46599 163.351761 
L 133.551791 217.498349 
L 134.637592 215.563853 
L 135.723393 221.304514 
L 136.809194 193.111792 
L 137.894995 181.093384 
L 138.980797 169.088838 
L 140.066598 170.403311 
L 141.152399 174.790296 
L 142.2382 173.203342 
L 143.324001 168.022313 
L 144.409802 168.408738 
L 145.495604 150.122104 
L 146.581405 154.346274 
L 147.667206 211.469994 
L 148.753007 176.81222 
L 149.838808 171.927695 
L 150.924609 181.743278 
L 152.01041 177.111115 
L 153.096212 165.428549 
L 154.182013 226.151713 
L 155.267814 192.780388 
L 156.353615 182.709483 
L 157.439416 164.271288 
L 158.525217 241.45524 
L 159.611019 200.745202 
L 160.69682 191.39203 
L 161.782621 186.53476 
L 162.868422 236.468474 
L 163.954223 193.959347 
L 165.040024 201.235109 
L 166.125825 173.779358 
L 167.211627 186.037801 
L 168.297428 176.620584 
L 169.383229 188.665077 
L 170.46903 200.796184 
L 171.554831 196.095512 
L 172.640632 193.568331 
L 173.726434 175.664878 
L 174.812235 184.414566 
L 175.898036 176.816744 
L 176.983837 154.148697 
L 178.069638 152.521821 
L 179.155439 154.275781 
L 180.24124 168.308043 
L 181.327042 156.092145 
L 182.412843 203.000434 
L 183.498644 202.047328 
L 184.584445 157.00574 
L 185.670246 183.184907 
L 186.756047 191.143305 
L 187.841849 213.40259 
L 188.92765 185.393663 
L 190.013451 174.052769 
L 191.099252 182.519887 
L 192.185053 176.763328 
L 193.270854 162.532956 
L 194.356656 183.036291 
L 195.442457 181.452479 
L 196.528258 198.080868 
L 197.614059 204.96388 
L 198.69986 195.764675 
L 199.785661 205.687958 
L 200.871462 188.91413 
L 201.957264 236.507777 
L 203.043065 249.458086 
L 204.128866 238.648731 
L 205.214667 238.495831 
L 206.300468 200.63333 
L 207.386269 214.549626 
L 208.472071 214.743517 
L 209.557872 220.727791 
L 210.643673 205.170307 
L 211.729474 200.820155 
L 212.815275 208.108581 
L 213.901076 262.538027 
L 214.986877 244.697453 
L 216.072679 218.764892 
L 217.15848 215.836606 
L 218.244281 204.581868 
L 219.330082 197.451232 
L 220.415883 200.406396 
L 221.501684 212.017053 
L 222.587486 236.097273 
L 223.673287 253.940823 
L 224.759088 246.292827 
L 225.844889 242.506459 
L 226.93069 239.935691 
L 228.016491 231.105198 
L 229.102292 226.516096 
L 230.188094 236.423248 
L 231.273895 245.420148 
L 232.359696 248.637155 
L 233.445497 179.609642 
L 234.531298 209.880854 
L 235.617099 176.216321 
L 236.702901 175.608045 
L 237.788702 197.755853 
L 238.874503 229.396865 
L 239.960304 238.630951 
L 241.046105 252.931094 
L 242.131906 212.020023 
L 243.217708 238.00802 
L 244.303509 219.524921 
L 245.38931 217.614717 
L 246.475111 222.628403 
L 247.560912 199.30035 
L 248.646713 228.110452 
L 249.732514 249.417269 
L 250.818316 295.488 
L 251.904117 258.323029 
L 252.989918 243.780766 
L 254.075719 271.193793 
L 255.16152 264.609427 
L 256.247321 246.739166 
L 257.333123 235.223717 
L 258.418924 208.796223 
L 259.504725 202.298847 
L 260.590526 223.720944 
L 261.676327 218.636781 
L 262.762128 234.147561 
L 263.847929 220.190357 
L 264.933731 187.224523 
L 266.019532 180.580718 
L 267.105333 187.719701 
L 268.191134 209.480525 
L 269.276935 230.014533 
L 270.362736 216.891803 
L 271.448538 209.795866 
L 272.534339 221.652754 
L 273.62014 199.451934 
L 274.705941 238.980505 
L 275.791742 210.567193 
L 276.877543 188.692113 
L 277.963344 210.082869 
L 279.049146 213.098118 
L 280.134947 219.699012 
L 281.220748 206.198446 
L 282.306549 234.412816 
L 283.39235 204.523663 
L 284.478151 229.505404 
L 285.563953 219.951132 
L 286.649754 234.863501 
L 287.735555 207.331054 
L 288.821356 247.64972 
L 289.907157 232.778881 
L 290.992958 216.498746 
L 292.07876 214.831668 
L 293.164561 219.351983 
L 294.250362 258.751719 
L 295.336163 211.580274 
L 296.421964 251.696622 
L 297.507765 207.430034 
L 298.593566 190.702153 
L 299.679368 180.9696 
L 300.765169 198.439649 
L 301.85097 202.025767 
L 302.936771 215.058012 
L 304.022572 216.441513 
L 305.108373 207.927632 
L 306.194175 243.582749 
L 307.279976 247.012508 
L 308.365777 231.262434 
L 309.451578 186.244137 
L 310.537379 215.635392 
L 311.62318 215.997146 
L 312.708981 203.647468 
L 313.794783 197.253284 
L 314.880584 198.783511 
L 315.966385 193.836587 
L 317.052186 214.806071 
L 318.137987 202.07412 
L 319.223788 204.620513 
L 320.30959 210.342491 
L 321.395391 201.686801 
L 322.481192 204.874287 
L 323.566993 241.547287 
L 324.652794 202.673741 
L 325.738595 206.114041 
L 326.824396 194.757251 
L 327.910198 248.485205 
L 328.995999 240.983436 
L 330.0818 221.722236 
L 331.167601 218.165708 
L 332.253402 197.530514 
L 333.339203 198.814223 
L 334.425005 195.272851 
L 335.510806 206.216479 
L 336.596607 177.472206 
L 337.682408 176.169805 
L 338.768209 234.56005 
L 339.85401 262.630044 
L 340.939811 239.855166 
L 342.025613 257.635778 
L 343.111414 274.139081 
L 344.197215 235.464113 
L 345.283016 228.556351 
L 346.368817 217.634749 
L 347.454618 221.686487 
L 348.54042 254.260143 
L 349.626221 195.191715 
L 350.712022 206.955417 
L 351.797823 192.365002 
L 352.883624 215.486468 
L 353.969425 182.200097 
L 355.055227 215.510105 
L 356.141028 215.809809 
L 357.226829 196.974638 
L 358.31263 182.306544 
L 359.398431 168.575545 
L 360.484232 174.35946 
L 361.570033 186.008974 
L 362.655835 196.009673 
L 363.741636 214.038132 
L 364.827437 200.587399 
L 365.913238 218.236313 
L 366.999039 212.029917 
L 368.08484 195.865361 
L 369.170642 202.356482 
L 370.256443 183.928349 
L 371.342244 182.680926 
L 372.428045 204.244883 
L 373.513846 193.642261 
L 374.599647 196.470366 
L 375.685448 170.156492 
L 376.77125 182.548169 
L 377.857051 205.340925 
L 378.942852 246.89395 
L 380.028653 200.636947 
L 381.114454 233.792314 
L 382.200255 209.33515 
L 383.286057 222.866519 
L 384.371858 191.373402 
L 385.457659 188.645413 
L 386.54346 198.803781 
L 387.629261 217.428684 
L 388.715062 198.207727 
L 389.800863 232.986532 
L 390.886665 273.36995 
L 391.972466 275.693664 
L 393.058267 246.837085 
L 394.144068 222.956525 
L 395.229869 222.788168 
L 396.31567 256.027292 
L 397.401472 249.132476 
L 398.487273 259.06745 
L 398.487273 235.015782 
L 398.487273 235.015782 
L 397.401472 189.584784 
L 396.31567 215.596845 
L 395.229869 197.161282 
L 394.144068 187.459763 
L 393.058267 213.338799 
L 391.972466 237.047686 
L 390.886665 229.370917 
L 389.800863 196.019535 
L 388.715062 168.720728 
L 387.629261 171.440848 
L 386.54346 163.642654 
L 385.457659 153.645719 
L 384.371858 167.115961 
L 383.286057 195.227885 
L 382.200255 170.096732 
L 381.114454 219.930903 
L 380.028653 181.257196 
L 378.942852 193.314127 
L 377.857051 186.456131 
L 376.77125 150.166053 
L 375.685448 143.93301 
L 374.599647 156.397113 
L 373.513846 173.328699 
L 372.428045 174.466628 
L 371.342244 166.141049 
L 370.256443 152.906263 
L 369.170642 172.751383 
L 368.08484 168.780629 
L 366.999039 186.94449 
L 365.913238 174.320303 
L 364.827437 177.361118 
L 363.741636 171.666839 
L 362.655835 160.695873 
L 361.570033 155.409306 
L 360.484232 152.546342 
L 359.398431 145.559236 
L 358.31263 169.599747 
L 357.226829 170.127762 
L 356.141028 162.940168 
L 355.055227 163.996849 
L 353.969425 151.55031 
L 352.883624 158.066375 
L 351.797823 154.40419 
L 350.712022 159.487843 
L 349.626221 156.195638 
L 348.54042 206.888352 
L 347.454618 192.076671 
L 346.368817 189.20794 
L 345.283016 196.150726 
L 344.197215 198.242706 
L 343.111414 238.615439 
L 342.025613 219.845271 
L 340.939811 196.081158 
L 339.85401 205.112069 
L 338.768209 206.981514 
L 337.682408 155.91427 
L 336.596607 149.0819 
L 335.510806 181.304016 
L 334.425005 168.375966 
L 333.339203 163.304664 
L 332.253402 153.616538 
L 331.167601 194.974439 
L 330.0818 197.222831 
L 328.995999 199.638551 
L 327.910198 202.738546 
L 326.824396 183.132876 
L 325.738595 182.550729 
L 324.652794 168.556371 
L 323.566993 199.538022 
L 322.481192 172.859835 
L 321.395391 179.651111 
L 320.30959 179.539621 
L 319.223788 170.77577 
L 318.137987 177.851722 
L 317.052186 195.380492 
L 315.966385 172.806035 
L 314.880584 170.770448 
L 313.794783 158.420444 
L 312.708981 160.495198 
L 311.62318 176.181383 
L 310.537379 178.275324 
L 309.451578 170.503391 
L 308.365777 194.045939 
L 307.279976 202.769341 
L 306.194175 203.087933 
L 305.108373 173.222565 
L 304.022572 188.898525 
L 302.936771 182.307757 
L 301.85097 182.632692 
L 300.765169 172.251658 
L 299.679368 173.062658 
L 298.593566 170.53745 
L 297.507765 179.031775 
L 296.421964 218.29077 
L 295.336163 197.787121 
L 294.250362 213.693561 
L 293.164561 193.064854 
L 292.07876 171.043916 
L 290.992958 199.689199 
L 289.907157 175.064689 
L 288.821356 209.351571 
L 287.735555 181.091531 
L 286.649754 218.256798 
L 285.563953 209.264278 
L 284.478151 197.822858 
L 283.39235 179.163333 
L 282.306549 206.68414 
L 281.220748 180.003303 
L 280.134947 190.22792 
L 279.049146 183.051913 
L 277.963344 188.295031 
L 276.877543 159.761313 
L 275.791742 181.002235 
L 274.705941 213.603961 
L 273.62014 172.413798 
L 272.534339 187.200382 
L 271.448538 169.943747 
L 270.362736 183.299795 
L 269.276935 190.354947 
L 268.191134 182.315412 
L 267.105333 173.66259 
L 266.019532 150.679465 
L 264.933731 165.280234 
L 263.847929 194.863414 
L 262.762128 189.996082 
L 261.676327 184.581845 
L 260.590526 201.034581 
L 259.504725 171.921472 
L 258.418924 181.156789 
L 257.333123 194.607254 
L 256.247321 208.998013 
L 255.16152 224.141303 
L 254.075719 231.113095 
L 252.989918 208.140145 
L 251.904117 229.957017 
L 250.818316 237.358235 
L 249.732514 215.303907 
L 248.646713 203.012704 
L 247.560912 181.823862 
L 246.475111 177.422277 
L 245.38931 197.262237 
L 244.303509 169.107724 
L 243.217708 197.031117 
L 242.131906 192.193394 
L 241.046105 220.266248 
L 239.960304 206.20724 
L 238.874503 200.56888 
L 237.788702 181.644988 
L 236.702901 150.477596 
L 235.617099 142.344049 
L 234.531298 182.572943 
L 233.445497 162.042579 
L 232.359696 209.833346 
L 231.273895 208.485462 
L 230.188094 202.852291 
L 229.102292 197.363509 
L 228.016491 190.183651 
L 226.93069 195.142704 
L 225.844889 208.126651 
L 224.759088 220.73828 
L 223.673287 201.094152 
L 222.587486 192.884851 
L 221.501684 145.935763 
L 220.415883 156.378103 
L 219.330082 155.810899 
L 218.244281 169.007849 
L 217.15848 182.265834 
L 216.072679 179.368862 
L 214.986877 178.806905 
L 213.901076 184.892828 
L 212.815275 164.148469 
L 211.729474 163.525242 
L 210.643673 163.016037 
L 209.557872 152.062782 
L 208.472071 183.650623 
L 207.386269 190.388305 
L 206.300468 180.251824 
L 205.214667 189.272044 
L 204.128866 202.174361 
L 203.043065 208.343605 
L 201.957264 196.882577 
L 200.871462 148.848629 
L 199.785661 170.585879 
L 198.69986 172.344034 
L 197.614059 150.460036 
L 196.528258 173.352596 
L 195.442457 144.380252 
L 194.356656 144.549362 
L 193.270854 134.94277 
L 192.185053 135.743948 
L 191.099252 152.158801 
L 190.013451 161.644806 
L 188.92765 158.994598 
L 187.841849 180.376457 
L 186.756047 162.235336 
L 185.670246 135.766971 
L 184.584445 125.173976 
L 183.498644 154.80552 
L 182.412843 161.750644 
L 181.327042 122.29051 
L 180.24124 142.805133 
L 179.155439 131.118336 
L 178.069638 125.512858 
L 176.983837 114.802767 
L 175.898036 153.600238 
L 174.812235 153.555388 
L 173.726434 146.740545 
L 172.640632 149.651641 
L 171.554831 163.849992 
L 170.46903 163.100805 
L 169.383229 168.689258 
L 168.297428 148.983968 
L 167.211627 162.196432 
L 166.125825 148.768686 
L 165.040024 163.756366 
L 163.954223 163.12685 
L 162.868422 187.274962 
L 161.782621 148.212613 
L 160.69682 157.015287 
L 159.611019 153.082881 
L 158.525217 172.387071 
L 157.439416 144.255411 
L 156.353615 135.404931 
L 155.267814 173.087809 
L 154.182013 200.574971 
L 153.096212 141.550614 
L 152.01041 125.56952 
L 150.924609 150.172594 
L 149.838808 147.922569 
L 148.753007 133.729744 
L 147.667206 155.107287 
L 146.581405 117.479726 
L 145.495604 111.755985 
L 144.409802 108.824764 
L 143.324001 117.191386 
L 142.2382 136.872074 
L 141.152399 160.971812 
L 140.066598 141.99927 
L 138.980797 130.998643 
L 137.894995 143.362099 
L 136.809194 172.264859 
L 135.723393 177.831479 
L 134.637592 188.942253 
L 133.551791 160.381154 
L 132.46599 146.358603 
L 131.380189 154.748174 
L 130.294387 149.566564 
L 129.208586 137.532146 
L 128.122785 128.088659 
L 127.036984 115.890324 
L 125.951183 125.052252 
L 124.865382 128.365219 
L 123.77958 145.706873 
L 122.693779 157.852443 
L 121.607978 154.933571 
L 120.522177 186.263395 
L 119.436376 183.18835 
L 118.350575 160.546042 
L 117.264773 168.677974 
L 116.178972 148.764992 
L 115.093171 196.023061 
L 114.00737 164.165699 
L 112.921569 165.800159 
L 111.835768 198.697019 
L 110.749967 146.937217 
L 109.664165 139.318669 
L 108.578364 153.061661 
L 107.492563 132.400777 
L 106.406762 165.957861 
L 105.320961 162.508118 
L 104.23516 158.188078 
L 103.149358 177.068969 
L 102.063557 153.375192 
L 100.977756 185.983102 
L 99.891955 164.101455 
L 98.806154 142.393285 
L 97.720353 141.256547 
L 96.634552 130.074095 
L 95.54875 128.432939 
L 94.462949 127.865076 
L 93.377148 106.76535 
L 92.291347 104.883922 
L 91.205546 107.862808 
L 90.119745 120.735708 
L 89.033943 102.620487 
L 87.948142 118.4161 
L 86.862341 131.585827 
L 85.77654 116.940622 
L 84.690739 107.185645 
L 83.604938 125.555572 
L 82.519137 100.649393 
L 81.433335 99.486 
L 80.347534 131.849607 
L 79.261733 115.008645 
L 78.175932 105.101803 
L 77.090131 90.076092 
L 76.00433 92.323487 
L 74.918528 65.272264 
L 73.832727 53.568 
z
" style="fill:#0000ff;fill-opacity:0.25;"/>
   </g>
   <g id="matplotlib.axis_1">
    <g id="xtick_1">
     <g id="line2d_1">
      <defs>
       <path d="M 0 0 
L 0 3.5 
" id="m4045c5898e" style="stroke:#000000;stroke-width:0.8;"/>
      </defs>
      <g>
       <use style="stroke:#000000;stroke-width:0.8;" x="73.832727" xlink:href="#m4045c5898e" y="307.584"/>
      </g>
     </g>
     <g id="text_1">
      <!-- 0 -->
      <defs>
       <path d="M 31.78125 66.40625 
Q 24.171875 66.40625 20.328125 58.90625 
Q 16.5 51.421875 16.5 36.375 
Q 16.5 21.390625 20.328125 13.890625 
Q 24.171875 6.390625 31.78125 6.390625 
Q 39.453125 6.390625 43.28125 13.890625 
Q 47.125 21.390625 47.125 36.375 
Q 47.125 51.421875 43.28125 58.90625 
Q 39.453125 66.40625 31.78125 66.40625 
z
M 31.78125 74.21875 
Q 44.046875 74.21875 50.515625 64.515625 
Q 56.984375 54.828125 56.984375 36.375 
Q 56.984375 17.96875 50.515625 8.265625 
Q 44.046875 -1.421875 31.78125 -1.421875 
Q 19.53125 -1.421875 13.0625 8.265625 
Q 6.59375 17.96875 6.59375 36.375 
Q 6.59375 54.828125 13.0625 64.515625 
Q 19.53125 74.21875 31.78125 74.21875 
z
" id="DejaVuSans-48"/>
      </defs>
      <g transform="translate(70.651477 322.182437)scale(0.1 -0.1)">
       <use xlink:href="#DejaVuSans-48"/>
      </g>
     </g>
    </g>
    <g id="xtick_2">
     <g id="line2d_2">
      <g>
       <use style="stroke:#000000;stroke-width:0.8;" x="128.122785" xlink:href="#m4045c5898e" y="307.584"/>
      </g>
     </g>
     <g id="text_2">
      <!-- 50 -->
      <defs>
       <path d="M 10.796875 72.90625 
L 49.515625 72.90625 
L 49.515625 64.59375 
L 19.828125 64.59375 
L 19.828125 46.734375 
Q 21.96875 47.46875 24.109375 47.828125 
Q 26.265625 48.1875 28.421875 48.1875 
Q 40.625 48.1875 47.75 41.5 
Q 54.890625 34.8125 54.890625 23.390625 
Q 54.890625 11.625 47.5625 5.09375 
Q 40.234375 -1.421875 26.90625 -1.421875 
Q 22.3125 -1.421875 17.546875 -0.640625 
Q 12.796875 0.140625 7.71875 1.703125 
L 7.71875 11.625 
Q 12.109375 9.234375 16.796875 8.0625 
Q 21.484375 6.890625 26.703125 6.890625 
Q 35.15625 6.890625 40.078125 11.328125 
Q 45.015625 15.765625 45.015625 23.390625 
Q 45.015625 31 40.078125 35.4375 
Q 35.15625 39.890625 26.703125 39.890625 
Q 22.75 39.890625 18.8125 39.015625 
Q 14.890625 38.140625 10.796875 36.28125 
z
" id="DejaVuSans-53"/>
      </defs>
      <g transform="translate(121.760285 322.182437)scale(0.1 -0.1)">
       <use xlink:href="#DejaVuSans-53"/>
       <use x="63.623047" xlink:href="#DejaVuSans-48"/>
      </g>
     </g>
    </g>
    <g id="xtick_3">
     <g id="line2d_3">
      <g>
       <use style="stroke:#000000;stroke-width:0.8;" x="182.412843" xlink:href="#m4045c5898e" y="307.584"/>
      </g>
     </g>
     <g id="text_3">
      <!-- 100 -->
      <defs>
       <path d="M 12.40625 8.296875 
L 28.515625 8.296875 
L 28.515625 63.921875 
L 10.984375 60.40625 
L 10.984375 69.390625 
L 28.421875 72.90625 
L 38.28125 72.90625 
L 38.28125 8.296875 
L 54.390625 8.296875 
L 54.390625 0 
L 12.40625 0 
z
" id="DejaVuSans-49"/>
      </defs>
      <g transform="translate(172.869093 322.182437)scale(0.1 -0.1)">
       <use xlink:href="#DejaVuSans-49"/>
       <use x="63.623047" xlink:href="#DejaVuSans-48"/>
       <use x="127.246094" xlink:href="#DejaVuSans-48"/>
      </g>
     </g>
    </g>
    <g id="xtick_4">
     <g id="line2d_4">
      <g>
       <use style="stroke:#000000;stroke-width:0.8;" x="236.702901" xlink:href="#m4045c5898e" y="307.584"/>
      </g>
     </g>
     <g id="text_4">
      <!-- 150 -->
      <g transform="translate(227.159151 322.182437)scale(0.1 -0.1)">
       <use xlink:href="#DejaVuSans-49"/>
       <use x="63.623047" xlink:href="#DejaVuSans-53"/>
       <use x="127.246094" xlink:href="#DejaVuSans-48"/>
      </g>
     </g>
    </g>
    <g id="xtick_5">
     <g id="line2d_5">
      <g>
       <use style="stroke:#000000;stroke-width:0.8;" x="290.992958" xlink:href="#m4045c5898e" y="307.584"/>
      </g>
     </g>
     <g id="text_5">
      <!-- 200 -->
      <defs>
       <path d="M 19.1875 8.296875 
L 53.609375 8.296875 
L 53.609375 0 
L 7.328125 0 
L 7.328125 8.296875 
Q 12.9375 14.109375 22.625 23.890625 
Q 32.328125 33.6875 34.8125 36.53125 
Q 39.546875 41.84375 41.421875 45.53125 
Q 43.3125 49.21875 43.3125 52.78125 
Q 43.3125 58.59375 39.234375 62.25 
Q 35.15625 65.921875 28.609375 65.921875 
Q 23.96875 65.921875 18.8125 64.3125 
Q 13.671875 62.703125 7.8125 59.421875 
L 7.8125 69.390625 
Q 13.765625 71.78125 18.9375 73 
Q 24.125 74.21875 28.421875 74.21875 
Q 39.75 74.21875 46.484375 68.546875 
Q 53.21875 62.890625 53.21875 53.421875 
Q 53.21875 48.921875 51.53125 44.890625 
Q 49.859375 40.875 45.40625 35.40625 
Q 44.1875 33.984375 37.640625 27.21875 
Q 31.109375 20.453125 19.1875 8.296875 
z
" id="DejaVuSans-50"/>
      </defs>
      <g transform="translate(281.449208 322.182437)scale(0.1 -0.1)">
       <use xlink:href="#DejaVuSans-50"/>
       <use x="63.623047" xlink:href="#DejaVuSans-48"/>
       <use x="127.246094" xlink:href="#DejaVuSans-48"/>
      </g>
     </g>
    </g>
    <g id="xtick_6">
     <g id="line2d_6">
      <g>
       <use style="stroke:#000000;stroke-width:0.8;" x="345.283016" xlink:href="#m4045c5898e" y="307.584"/>
      </g>
     </g>
     <g id="text_6">
      <!-- 250 -->
      <g transform="translate(335.739266 322.182437)scale(0.1 -0.1)">
       <use xlink:href="#DejaVuSans-50"/>
       <use x="63.623047" xlink:href="#DejaVuSans-53"/>
       <use x="127.246094" xlink:href="#DejaVuSans-48"/>
      </g>
     </g>
    </g>
    <g id="xtick_7">
     <g id="line2d_7">
      <g>
       <use style="stroke:#000000;stroke-width:0.8;" x="399.573074" xlink:href="#m4045c5898e" y="307.584"/>
      </g>
     </g>
     <g id="text_7">
      <!-- 300 -->
      <defs>
       <path d="M 40.578125 39.3125 
Q 47.65625 37.796875 51.625 33 
Q 55.609375 28.21875 55.609375 21.1875 
Q 55.609375 10.40625 48.1875 4.484375 
Q 40.765625 -1.421875 27.09375 -1.421875 
Q 22.515625 -1.421875 17.65625 -0.515625 
Q 12.796875 0.390625 7.625 2.203125 
L 7.625 11.71875 
Q 11.71875 9.328125 16.59375 8.109375 
Q 21.484375 6.890625 26.8125 6.890625 
Q 36.078125 6.890625 40.9375 10.546875 
Q 45.796875 14.203125 45.796875 21.1875 
Q 45.796875 27.640625 41.28125 31.265625 
Q 36.765625 34.90625 28.71875 34.90625 
L 20.21875 34.90625 
L 20.21875 43.015625 
L 29.109375 43.015625 
Q 36.375 43.015625 40.234375 45.921875 
Q 44.09375 48.828125 44.09375 54.296875 
Q 44.09375 59.90625 40.109375 62.90625 
Q 36.140625 65.921875 28.71875 65.921875 
Q 24.65625 65.921875 20.015625 65.03125 
Q 15.375 64.15625 9.8125 62.3125 
L 9.8125 71.09375 
Q 15.4375 72.65625 20.34375 73.4375 
Q 25.25 74.21875 29.59375 74.21875 
Q 40.828125 74.21875 47.359375 69.109375 
Q 53.90625 64.015625 53.90625 55.328125 
Q 53.90625 49.265625 50.4375 45.09375 
Q 46.96875 40.921875 40.578125 39.3125 
z
" id="DejaVuSans-51"/>
      </defs>
      <g transform="translate(390.029324 322.182437)scale(0.1 -0.1)">
       <use xlink:href="#DejaVuSans-51"/>
       <use x="63.623047" xlink:href="#DejaVuSans-48"/>
       <use x="127.246094" xlink:href="#DejaVuSans-48"/>
      </g>
     </g>
    </g>
   </g>
   <g id="matplotlib.axis_2">
    <g id="ytick_1">
     <g id="line2d_8">
      <defs>
       <path d="M 0 0 
L -3.5 0 
" id="mb9f2f26ac8" style="stroke:#000000;stroke-width:0.8;"/>
      </defs>
      <g>
       <use style="stroke:#000000;stroke-width:0.8;" x="57.6" xlink:href="#mb9f2f26ac8" y="300.995047"/>
      </g>
     </g>
     <g id="text_8">
      <!-- 0.6 -->
      <defs>
       <path d="M 10.6875 12.40625 
L 21 12.40625 
L 21 0 
L 10.6875 0 
z
" id="DejaVuSans-46"/>
       <path d="M 33.015625 40.375 
Q 26.375 40.375 22.484375 35.828125 
Q 18.609375 31.296875 18.609375 23.390625 
Q 18.609375 15.53125 22.484375 10.953125 
Q 26.375 6.390625 33.015625 6.390625 
Q 39.65625 6.390625 43.53125 10.953125 
Q 47.40625 15.53125 47.40625 23.390625 
Q 47.40625 31.296875 43.53125 35.828125 
Q 39.65625 40.375 33.015625 40.375 
z
M 52.59375 71.296875 
L 52.59375 62.3125 
Q 48.875 64.0625 45.09375 64.984375 
Q 41.3125 65.921875 37.59375 65.921875 
Q 27.828125 65.921875 22.671875 59.328125 
Q 17.53125 52.734375 16.796875 39.40625 
Q 19.671875 43.65625 24.015625 45.921875 
Q 28.375 48.1875 33.59375 48.1875 
Q 44.578125 48.1875 50.953125 41.515625 
Q 57.328125 34.859375 57.328125 23.390625 
Q 57.328125 12.15625 50.6875 5.359375 
Q 44.046875 -1.421875 33.015625 -1.421875 
Q 20.359375 -1.421875 13.671875 8.265625 
Q 6.984375 17.96875 6.984375 36.375 
Q 6.984375 53.65625 15.1875 63.9375 
Q 23.390625 74.21875 37.203125 74.21875 
Q 40.921875 74.21875 44.703125 73.484375 
Q 48.484375 72.75 52.59375 71.296875 
z
" id="DejaVuSans-54"/>
      </defs>
      <g transform="translate(34.696875 304.794265)scale(0.1 -0.1)">
       <use xlink:href="#DejaVuSans-48"/>
       <use x="63.623047" xlink:href="#DejaVuSans-46"/>
       <use x="95.410156" xlink:href="#DejaVuSans-54"/>
      </g>
     </g>
    </g>
    <g id="ytick_2">
     <g id="line2d_9">
      <g>
       <use style="stroke:#000000;stroke-width:0.8;" x="57.6" xlink:href="#mb9f2f26ac8" y="259.308229"/>
      </g>
     </g>
     <g id="text_9">
      <!-- 0.8 -->
      <defs>
       <path d="M 31.78125 34.625 
Q 24.75 34.625 20.71875 30.859375 
Q 16.703125 27.09375 16.703125 20.515625 
Q 16.703125 13.921875 20.71875 10.15625 
Q 24.75 6.390625 31.78125 6.390625 
Q 38.8125 6.390625 42.859375 10.171875 
Q 46.921875 13.96875 46.921875 20.515625 
Q 46.921875 27.09375 42.890625 30.859375 
Q 38.875 34.625 31.78125 34.625 
z
M 21.921875 38.8125 
Q 15.578125 40.375 12.03125 44.71875 
Q 8.5 49.078125 8.5 55.328125 
Q 8.5 64.0625 14.71875 69.140625 
Q 20.953125 74.21875 31.78125 74.21875 
Q 42.671875 74.21875 48.875 69.140625 
Q 55.078125 64.0625 55.078125 55.328125 
Q 55.078125 49.078125 51.53125 44.71875 
Q 48 40.375 41.703125 38.8125 
Q 48.828125 37.15625 52.796875 32.3125 
Q 56.78125 27.484375 56.78125 20.515625 
Q 56.78125 9.90625 50.3125 4.234375 
Q 43.84375 -1.421875 31.78125 -1.421875 
Q 19.734375 -1.421875 13.25 4.234375 
Q 6.78125 9.90625 6.78125 20.515625 
Q 6.78125 27.484375 10.78125 32.3125 
Q 14.796875 37.15625 21.921875 38.8125 
z
M 18.3125 54.390625 
Q 18.3125 48.734375 21.84375 45.5625 
Q 25.390625 42.390625 31.78125 42.390625 
Q 38.140625 42.390625 41.71875 45.5625 
Q 45.3125 48.734375 45.3125 54.390625 
Q 45.3125 60.0625 41.71875 63.234375 
Q 38.140625 66.40625 31.78125 66.40625 
Q 25.390625 66.40625 21.84375 63.234375 
Q 18.3125 60.0625 18.3125 54.390625 
z
" id="DejaVuSans-56"/>
      </defs>
      <g transform="translate(34.696875 263.107448)scale(0.1 -0.1)">
       <use xlink:href="#DejaVuSans-48"/>
       <use x="63.623047" xlink:href="#DejaVuSans-46"/>
       <use x="95.410156" xlink:href="#DejaVuSans-56"/>
      </g>
     </g>
    </g>
    <g id="ytick_3">
     <g id="line2d_10">
      <g>
       <use style="stroke:#000000;stroke-width:0.8;" x="57.6" xlink:href="#mb9f2f26ac8" y="217.621412"/>
      </g>
     </g>
     <g id="text_10">
      <!-- 1.0 -->
      <g transform="translate(34.696875 221.420631)scale(0.1 -0.1)">
       <use xlink:href="#DejaVuSans-49"/>
       <use x="63.623047" xlink:href="#DejaVuSans-46"/>
       <use x="95.410156" xlink:href="#DejaVuSans-48"/>
      </g>
     </g>
    </g>
    <g id="ytick_4">
     <g id="line2d_11">
      <g>
       <use style="stroke:#000000;stroke-width:0.8;" x="57.6" xlink:href="#mb9f2f26ac8" y="175.934595"/>
      </g>
     </g>
     <g id="text_11">
      <!-- 1.2 -->
      <g transform="translate(34.696875 179.733814)scale(0.1 -0.1)">
       <use xlink:href="#DejaVuSans-49"/>
       <use x="63.623047" xlink:href="#DejaVuSans-46"/>
       <use x="95.410156" xlink:href="#DejaVuSans-50"/>
      </g>
     </g>
    </g>
    <g id="ytick_5">
     <g id="line2d_12">
      <g>
       <use style="stroke:#000000;stroke-width:0.8;" x="57.6" xlink:href="#mb9f2f26ac8" y="134.247778"/>
      </g>
     </g>
     <g id="text_12">
      <!-- 1.4 -->
      <defs>
       <path d="M 37.796875 64.3125 
L 12.890625 25.390625 
L 37.796875 25.390625 
z
M 35.203125 72.90625 
L 47.609375 72.90625 
L 47.609375 25.390625 
L 58.015625 25.390625 
L 58.015625 17.1875 
L 47.609375 17.1875 
L 47.609375 0 
L 37.796875 0 
L 37.796875 17.1875 
L 4.890625 17.1875 
L 4.890625 26.703125 
z
" id="DejaVuSans-52"/>
      </defs>
      <g transform="translate(34.696875 138.046997)scale(0.1 -0.1)">
       <use xlink:href="#DejaVuSans-49"/>
       <use x="63.623047" xlink:href="#DejaVuSans-46"/>
       <use x="95.410156" xlink:href="#DejaVuSans-52"/>
      </g>
     </g>
    </g>
    <g id="ytick_6">
     <g id="line2d_13">
      <g>
       <use style="stroke:#000000;stroke-width:0.8;" x="57.6" xlink:href="#mb9f2f26ac8" y="92.560961"/>
      </g>
     </g>
     <g id="text_13">
      <!-- 1.6 -->
      <g transform="translate(34.696875 96.36018)scale(0.1 -0.1)">
       <use xlink:href="#DejaVuSans-49"/>
       <use x="63.623047" xlink:href="#DejaVuSans-46"/>
       <use x="95.410156" xlink:href="#DejaVuSans-54"/>
      </g>
     </g>
    </g>
    <g id="ytick_7">
     <g id="line2d_14">
      <g>
       <use style="stroke:#000000;stroke-width:0.8;" x="57.6" xlink:href="#mb9f2f26ac8" y="50.874144"/>
      </g>
     </g>
     <g id="text_14">
      <!-- 1.8 -->
      <g transform="translate(34.696875 54.673363)scale(0.1 -0.1)">
       <use xlink:href="#DejaVuSans-49"/>
       <use x="63.623047" xlink:href="#DejaVuSans-46"/>
       <use x="95.410156" xlink:href="#DejaVuSans-56"/>
      </g>
     </g>
    </g>
    <g id="text_15">
     <!-- Distance -->
     <defs>
      <path d="M 19.671875 64.796875 
L 19.671875 8.109375 
L 31.59375 8.109375 
Q 46.6875 8.109375 53.6875 14.9375 
Q 60.6875 21.78125 60.6875 36.53125 
Q 60.6875 51.171875 53.6875 57.984375 
Q 46.6875 64.796875 31.59375 64.796875 
z
M 9.8125 72.90625 
L 30.078125 72.90625 
Q 51.265625 72.90625 61.171875 64.09375 
Q 71.09375 55.28125 71.09375 36.53125 
Q 71.09375 17.671875 61.125 8.828125 
Q 51.171875 0 30.078125 0 
L 9.8125 0 
z
" id="DejaVuSans-68"/>
      <path d="M 9.421875 54.6875 
L 18.40625 54.6875 
L 18.40625 0 
L 9.421875 0 
z
M 9.421875 75.984375 
L 18.40625 75.984375 
L 18.40625 64.59375 
L 9.421875 64.59375 
z
" id="DejaVuSans-105"/>
      <path d="M 44.28125 53.078125 
L 44.28125 44.578125 
Q 40.484375 46.53125 36.375 47.5 
Q 32.28125 48.484375 27.875 48.484375 
Q 21.1875 48.484375 17.84375 46.4375 
Q 14.5 44.390625 14.5 40.28125 
Q 14.5 37.15625 16.890625 35.375 
Q 19.28125 33.59375 26.515625 31.984375 
L 29.59375 31.296875 
Q 39.15625 29.25 43.1875 25.515625 
Q 47.21875 21.78125 47.21875 15.09375 
Q 47.21875 7.46875 41.1875 3.015625 
Q 35.15625 -1.421875 24.609375 -1.421875 
Q 20.21875 -1.421875 15.453125 -0.5625 
Q 10.6875 0.296875 5.421875 2 
L 5.421875 11.28125 
Q 10.40625 8.6875 15.234375 7.390625 
Q 20.0625 6.109375 24.8125 6.109375 
Q 31.15625 6.109375 34.5625 8.28125 
Q 37.984375 10.453125 37.984375 14.40625 
Q 37.984375 18.0625 35.515625 20.015625 
Q 33.0625 21.96875 24.703125 23.78125 
L 21.578125 24.515625 
Q 13.234375 26.265625 9.515625 29.90625 
Q 5.8125 33.546875 5.8125 39.890625 
Q 5.8125 47.609375 11.28125 51.796875 
Q 16.75 56 26.8125 56 
Q 31.78125 56 36.171875 55.265625 
Q 40.578125 54.546875 44.28125 53.078125 
z
" id="DejaVuSans-115"/>
      <path d="M 18.3125 70.21875 
L 18.3125 54.6875 
L 36.8125 54.6875 
L 36.8125 47.703125 
L 18.3125 47.703125 
L 18.3125 18.015625 
Q 18.3125 11.328125 20.140625 9.421875 
Q 21.96875 7.515625 27.59375 7.515625 
L 36.8125 7.515625 
L 36.8125 0 
L 27.59375 0 
Q 17.1875 0 13.234375 3.875 
Q 9.28125 7.765625 9.28125 18.015625 
L 9.28125 47.703125 
L 2.6875 47.703125 
L 2.6875 54.6875 
L 9.28125 54.6875 
L 9.28125 70.21875 
z
" id="DejaVuSans-116"/>
      <path d="M 34.28125 27.484375 
Q 23.390625 27.484375 19.1875 25 
Q 14.984375 22.515625 14.984375 16.5 
Q 14.984375 11.71875 18.140625 8.90625 
Q 21.296875 6.109375 26.703125 6.109375 
Q 34.1875 6.109375 38.703125 11.40625 
Q 43.21875 16.703125 43.21875 25.484375 
L 43.21875 27.484375 
z
M 52.203125 31.203125 
L 52.203125 0 
L 43.21875 0 
L 43.21875 8.296875 
Q 40.140625 3.328125 35.546875 0.953125 
Q 30.953125 -1.421875 24.3125 -1.421875 
Q 15.921875 -1.421875 10.953125 3.296875 
Q 6 8.015625 6 15.921875 
Q 6 25.140625 12.171875 29.828125 
Q 18.359375 34.515625 30.609375 34.515625 
L 43.21875 34.515625 
L 43.21875 35.40625 
Q 43.21875 41.609375 39.140625 45 
Q 35.0625 48.390625 27.6875 48.390625 
Q 23 48.390625 18.546875 47.265625 
Q 14.109375 46.140625 10.015625 43.890625 
L 10.015625 52.203125 
Q 14.9375 54.109375 19.578125 55.046875 
Q 24.21875 56 28.609375 56 
Q 40.484375 56 46.34375 49.84375 
Q 52.203125 43.703125 52.203125 31.203125 
z
" id="DejaVuSans-97"/>
      <path d="M 54.890625 33.015625 
L 54.890625 0 
L 45.90625 0 
L 45.90625 32.71875 
Q 45.90625 40.484375 42.875 44.328125 
Q 39.84375 48.1875 33.796875 48.1875 
Q 26.515625 48.1875 22.3125 43.546875 
Q 18.109375 38.921875 18.109375 30.90625 
L 18.109375 0 
L 9.078125 0 
L 9.078125 54.6875 
L 18.109375 54.6875 
L 18.109375 46.1875 
Q 21.34375 51.125 25.703125 53.5625 
Q 30.078125 56 35.796875 56 
Q 45.21875 56 50.046875 50.171875 
Q 54.890625 44.34375 54.890625 33.015625 
z
" id="DejaVuSans-110"/>
      <path d="M 48.78125 52.59375 
L 48.78125 44.1875 
Q 44.96875 46.296875 41.140625 47.34375 
Q 37.3125 48.390625 33.40625 48.390625 
Q 24.65625 48.390625 19.8125 42.84375 
Q 14.984375 37.3125 14.984375 27.296875 
Q 14.984375 17.28125 19.8125 11.734375 
Q 24.65625 6.203125 33.40625 6.203125 
Q 37.3125 6.203125 41.140625 7.25 
Q 44.96875 8.296875 48.78125 10.40625 
L 48.78125 2.09375 
Q 45.015625 0.34375 40.984375 -0.53125 
Q 36.96875 -1.421875 32.421875 -1.421875 
Q 20.0625 -1.421875 12.78125 6.34375 
Q 5.515625 14.109375 5.515625 27.296875 
Q 5.515625 40.671875 12.859375 48.328125 
Q 20.21875 56 33.015625 56 
Q 37.15625 56 41.109375 55.140625 
Q 45.0625 54.296875 48.78125 52.59375 
z
" id="DejaVuSans-99"/>
      <path d="M 56.203125 29.59375 
L 56.203125 25.203125 
L 14.890625 25.203125 
Q 15.484375 15.921875 20.484375 11.0625 
Q 25.484375 6.203125 34.421875 6.203125 
Q 39.59375 6.203125 44.453125 7.46875 
Q 49.3125 8.734375 54.109375 11.28125 
L 54.109375 2.78125 
Q 49.265625 0.734375 44.1875 -0.34375 
Q 39.109375 -1.421875 33.890625 -1.421875 
Q 20.796875 -1.421875 13.15625 6.1875 
Q 5.515625 13.8125 5.515625 26.8125 
Q 5.515625 40.234375 12.765625 48.109375 
Q 20.015625 56 32.328125 56 
Q 43.359375 56 49.78125 48.890625 
Q 56.203125 41.796875 56.203125 29.59375 
z
M 47.21875 32.234375 
Q 47.125 39.59375 43.09375 43.984375 
Q 39.0625 48.390625 32.421875 48.390625 
Q 24.90625 48.390625 20.390625 44.140625 
Q 15.875 39.890625 15.1875 32.171875 
z
" id="DejaVuSans-101"/>
     </defs>
     <g transform="translate(28.617187 196.3905)rotate(-90)scale(0.1 -0.1)">
      <use xlink:href="#DejaVuSans-68"/>
      <use x="77.001953" xlink:href="#DejaVuSans-105"/>
      <use x="104.785156" xlink:href="#DejaVuSans-115"/>
      <use x="156.884766" xlink:href="#DejaVuSans-116"/>
      <use x="196.09375" xlink:href="#DejaVuSans-97"/>
      <use x="257.373047" xlink:href="#DejaVuSans-110"/>
      <use x="320.751953" xlink:href="#DejaVuSans-99"/>
      <use x="375.732422" xlink:href="#DejaVuSans-101"/>
     </g>
    </g>
   </g>
   <g id="line2d_15">
    <path clip-path="url(#pe32ff525ff)" d="M 73.832727 64.554493 
L 74.918528 69.539024 
L 76.00433 103.586321 
L 77.090131 104.635449 
L 78.175932 118.115451 
L 79.261733 124.97894 
L 80.347534 140.643941 
L 81.433335 113.591824 
L 82.519137 117.15267 
L 83.604938 137.75387 
L 84.690739 115.480294 
L 85.77654 123.969681 
L 86.862341 144.655623 
L 89.033943 118.300952 
L 90.119745 130.974297 
L 91.205546 122.513226 
L 92.291347 123.540282 
L 93.377148 117.097134 
L 94.462949 139.356897 
L 95.54875 141.870141 
L 96.634552 150.848534 
L 97.720353 167.074346 
L 98.806154 150.787144 
L 100.977756 197.575522 
L 102.063557 159.299386 
L 103.149358 186.569519 
L 104.23516 176.457176 
L 105.320961 181.146075 
L 106.406762 171.594353 
L 107.492563 144.718525 
L 108.578364 161.404027 
L 109.664165 149.117096 
L 110.749967 160.461571 
L 111.835768 208.23139 
L 112.921569 175.676442 
L 114.00737 178.518699 
L 115.093171 204.981169 
L 116.178972 161.897379 
L 117.264773 185.496238 
L 118.350575 172.181421 
L 119.436376 198.695898 
L 120.522177 208.996847 
L 121.607978 173.234784 
L 122.693779 173.796018 
L 123.77958 165.718284 
L 124.865382 140.050376 
L 125.951183 136.980756 
L 127.036984 128.731566 
L 128.122785 149.511144 
L 129.208586 154.122948 
L 130.294387 160.321497 
L 131.380189 168.072445 
L 132.46599 154.855182 
L 133.551791 188.939751 
L 134.637592 202.253053 
L 135.723393 199.567997 
L 136.809194 182.688325 
L 137.894995 162.227741 
L 138.980797 150.043741 
L 140.066598 156.201291 
L 141.152399 167.881054 
L 143.324001 142.60685 
L 144.409802 138.616751 
L 145.495604 130.939044 
L 146.581405 135.913 
L 147.667206 183.288641 
L 148.753007 155.270982 
L 149.838808 159.925132 
L 150.924609 165.957936 
L 152.01041 151.340318 
L 153.096212 153.489582 
L 154.182013 213.363342 
L 155.267814 182.934099 
L 156.353615 159.057207 
L 157.439416 154.26335 
L 158.525217 206.921156 
L 159.611019 176.914042 
L 160.69682 174.203659 
L 161.782621 167.373686 
L 162.868422 211.871718 
L 163.954223 178.543098 
L 165.040024 182.495738 
L 166.125825 161.274022 
L 167.211627 174.117116 
L 168.297428 162.802276 
L 169.383229 178.677167 
L 170.46903 181.948495 
L 171.554831 179.972752 
L 172.640632 171.609986 
L 173.726434 161.202712 
L 174.812235 168.984977 
L 175.898036 165.208491 
L 176.983837 134.475732 
L 178.069638 139.01734 
L 179.155439 142.697059 
L 180.24124 155.556588 
L 181.327042 139.191327 
L 182.412843 182.375539 
L 183.498644 178.426424 
L 184.584445 141.089858 
L 187.841849 196.889523 
L 188.92765 172.19413 
L 190.013451 167.848787 
L 191.099252 167.339344 
L 192.185053 156.253638 
L 193.270854 148.737863 
L 194.356656 163.792827 
L 195.442457 162.916366 
L 196.528258 185.716732 
L 197.614059 177.711958 
L 198.69986 184.054355 
L 199.785661 188.136919 
L 200.871462 168.88138 
L 201.957264 216.695177 
L 203.043065 228.900845 
L 204.128866 220.411546 
L 205.214667 213.883938 
L 206.300468 190.442577 
L 207.386269 202.468966 
L 208.472071 199.19707 
L 209.557872 186.395287 
L 210.643673 184.093172 
L 211.729474 182.172698 
L 212.815275 186.128525 
L 213.901076 223.715427 
L 216.072679 199.066877 
L 217.15848 199.05122 
L 218.244281 186.794858 
L 219.330082 176.631065 
L 220.415883 178.392249 
L 221.501684 178.976408 
L 222.587486 214.491062 
L 223.673287 227.517487 
L 224.759088 233.515554 
L 226.93069 217.539198 
L 228.016491 210.644424 
L 229.102292 211.939802 
L 231.273895 226.952805 
L 232.359696 229.23525 
L 233.445497 170.82611 
L 234.531298 196.226898 
L 235.617099 159.280185 
L 236.702901 163.04282 
L 238.874503 214.982872 
L 239.960304 222.419095 
L 241.046105 236.598671 
L 242.131906 202.106709 
L 243.217708 217.519568 
L 244.303509 194.316322 
L 245.38931 207.438477 
L 246.475111 200.02534 
L 247.560912 190.562106 
L 248.646713 215.561578 
L 249.732514 232.360588 
L 250.818316 266.423117 
L 251.904117 244.140023 
L 252.989918 225.960456 
L 254.075719 251.153444 
L 255.16152 244.375365 
L 256.247321 227.86859 
L 257.333123 214.915485 
L 258.418924 194.976506 
L 259.504725 187.11016 
L 260.590526 212.377762 
L 261.676327 201.609313 
L 262.762128 212.071822 
L 263.847929 207.526885 
L 264.933731 176.252378 
L 266.019532 165.630091 
L 269.276935 210.18474 
L 271.448538 189.869807 
L 272.534339 204.426568 
L 273.62014 185.932866 
L 274.705941 226.292233 
L 275.791742 195.784714 
L 276.877543 174.226713 
L 277.963344 199.18895 
L 279.049146 198.075015 
L 280.134947 204.963466 
L 281.220748 193.100875 
L 282.306549 220.548478 
L 283.39235 191.843498 
L 284.478151 213.664131 
L 285.563953 214.607705 
L 286.649754 226.56015 
L 287.735555 194.211292 
L 288.821356 228.500646 
L 289.907157 203.921785 
L 290.992958 208.093973 
L 292.07876 192.937792 
L 293.164561 206.208418 
L 294.250362 236.22264 
L 295.336163 204.683698 
L 296.421964 234.993696 
L 297.507765 193.230905 
L 298.593566 180.619802 
L 299.679368 177.016129 
L 300.765169 185.345654 
L 302.936771 198.682884 
L 304.022572 202.670019 
L 305.108373 190.575098 
L 306.194175 223.335341 
L 307.279976 224.890925 
L 308.365777 212.654187 
L 309.451578 178.373764 
L 310.537379 196.955358 
L 311.62318 196.089265 
L 312.708981 182.071333 
L 313.794783 177.836864 
L 314.880584 184.77698 
L 315.966385 183.321311 
L 317.052186 205.093281 
L 318.137987 189.962921 
L 319.223788 187.698141 
L 320.30959 194.941056 
L 321.395391 190.668956 
L 322.481192 188.867061 
L 323.566993 220.542655 
L 324.652794 185.615056 
L 325.738595 194.332385 
L 326.824396 188.945064 
L 327.910198 225.611875 
L 328.995999 220.310993 
L 330.0818 209.472533 
L 331.167601 206.570073 
L 332.253402 175.573526 
L 333.339203 181.059444 
L 334.425005 181.824408 
L 335.510806 193.760247 
L 336.596607 163.277053 
L 337.682408 166.042038 
L 338.768209 220.770782 
L 339.85401 233.871057 
L 340.939811 217.968162 
L 342.025613 238.740524 
L 343.111414 256.37726 
L 344.197215 216.85341 
L 345.283016 212.353538 
L 346.368817 203.421345 
L 347.454618 206.881579 
L 348.54042 230.574248 
L 349.626221 175.693677 
L 350.712022 183.22163 
L 351.797823 173.384596 
L 352.883624 186.776421 
L 353.969425 166.875203 
L 355.055227 189.753477 
L 356.141028 189.374988 
L 357.226829 183.5512 
L 358.31263 175.953146 
L 359.398431 157.06739 
L 360.484232 163.452901 
L 362.655835 178.352773 
L 363.741636 192.852486 
L 364.827437 188.974258 
L 365.913238 196.278308 
L 366.999039 199.487203 
L 368.08484 182.322995 
L 369.170642 187.553932 
L 370.256443 168.417306 
L 371.342244 174.410988 
L 372.428045 189.355755 
L 373.513846 183.48548 
L 374.599647 176.43374 
L 375.685448 157.044751 
L 376.77125 166.357111 
L 377.857051 195.898528 
L 378.942852 220.104039 
L 380.028653 190.947071 
L 381.114454 226.861608 
L 382.200255 189.715941 
L 383.286057 209.047202 
L 384.371858 179.244682 
L 385.457659 171.145566 
L 386.54346 181.223217 
L 387.629261 194.434766 
L 388.715062 183.464228 
L 389.800863 214.503033 
L 390.886665 251.370433 
L 391.972466 256.370675 
L 394.144068 205.208144 
L 395.229869 209.974725 
L 396.31567 235.812069 
L 397.401472 219.35863 
L 398.487273 247.041616 
L 398.487273 247.041616 
" style="fill:none;stroke:#0000ff;stroke-linecap:square;stroke-width:1.5;"/>
   </g>
   <g id="patch_3">
    <path d="M 57.6 307.584 
L 57.6 41.472 
" style="fill:none;stroke:#000000;stroke-linecap:square;stroke-linejoin:miter;stroke-width:0.8;"/>
   </g>
   <g id="patch_4">
    <path d="M 414.72 307.584 
L 414.72 41.472 
" style="fill:none;stroke:#000000;stroke-linecap:square;stroke-linejoin:miter;stroke-width:0.8;"/>
   </g>
   <g id="patch_5">
    <path d="M 57.6 307.584 
L 414.72 307.584 
" style="fill:none;stroke:#000000;stroke-linecap:square;stroke-linejoin:miter;stroke-width:0.8;"/>
   </g>
   <g id="patch_6">
    <path d="M 57.6 41.472 
L 414.72 41.472 
" style="fill:none;stroke:#000000;stroke-linecap:square;stroke-linejoin:miter;stroke-width:0.8;"/>
   </g>
  </g>
  <g id="axes_2">
   <g id="PolyCollection_2">
    <path clip-path="url(#pe32ff525ff)" d="M 73.832727 79.429103 
L 73.832727 264.121945 
L 74.918528 262.102407 
L 76.00433 271.776095 
L 77.090131 274.079457 
L 78.175932 275.027598 
L 79.261733 273.724053 
L 80.347534 278.233376 
L 81.433335 273.880919 
L 82.519137 268.12239 
L 83.604938 251.68784 
L 84.690739 260.236704 
L 85.77654 257.437158 
L 86.862341 257.688238 
L 87.948142 266.117308 
L 89.033943 265.126543 
L 90.119745 259.739782 
L 91.205546 259.873999 
L 92.291347 266.743188 
L 93.377148 275.286056 
L 94.462949 274.593261 
L 95.54875 279.307201 
L 96.634552 280.919281 
L 97.720353 283.070815 
L 98.806154 284.174099 
L 99.891955 287.289761 
L 100.977756 289.728539 
L 102.063557 288.586628 
L 103.149358 286.545121 
L 104.23516 283.946917 
L 105.320961 284.450196 
L 106.406762 282.893706 
L 107.492563 279.051406 
L 108.578364 276.10397 
L 109.664165 276.545473 
L 110.749967 280.739715 
L 111.835768 283.715888 
L 112.921569 277.926134 
L 114.00737 281.392267 
L 115.093171 281.786755 
L 116.178972 281.215563 
L 117.264773 283.677894 
L 118.350575 281.231877 
L 119.436376 284.1721 
L 120.522177 288.341586 
L 121.607978 287.951044 
L 122.693779 286.262775 
L 123.77958 279.593124 
L 124.865382 278.638977 
L 125.951183 279.010771 
L 127.036984 277.779374 
L 128.122785 280.518725 
L 129.208586 281.718893 
L 130.294387 278.559653 
L 131.380189 277.026998 
L 132.46599 279.089389 
L 133.551791 282.55784 
L 134.637592 281.731477 
L 135.723393 279.524776 
L 136.809194 276.079874 
L 137.894995 278.329597 
L 138.980797 279.888119 
L 140.066598 275.577537 
L 141.152399 274.304669 
L 142.2382 273.3192 
L 143.324001 275.640187 
L 144.409802 274.756546 
L 145.495604 272.722671 
L 146.581405 273.280975 
L 147.667206 270.549354 
L 148.753007 268.906473 
L 149.838808 272.66616 
L 150.924609 268.789594 
L 152.01041 266.870897 
L 153.096212 262.881917 
L 154.182013 264.567743 
L 155.267814 266.35817 
L 156.353615 267.310143 
L 157.439416 265.05591 
L 158.525217 273.070266 
L 159.611019 276.846138 
L 160.69682 273.311374 
L 161.782621 274.467566 
L 162.868422 276.588376 
L 163.954223 280.195959 
L 165.040024 279.365415 
L 166.125825 277.185114 
L 167.211627 283.83797 
L 168.297428 281.315238 
L 169.383229 280.32363 
L 170.46903 285.615805 
L 171.554831 283.251613 
L 172.640632 286.452829 
L 173.726434 286.213932 
L 174.812235 284.919304 
L 175.898036 284.99901 
L 176.983837 278.333444 
L 178.069638 279.264124 
L 179.155439 280.788684 
L 180.24124 282.145962 
L 181.327042 282.774516 
L 182.412843 291.017205 
L 183.498644 289.846835 
L 184.584445 286.427924 
L 185.670246 285.678701 
L 186.756047 287.543442 
L 187.841849 290.861151 
L 188.92765 289.668975 
L 190.013451 289.870036 
L 191.099252 287.560173 
L 192.185053 288.436017 
L 193.270854 285.447001 
L 194.356656 290.817453 
L 195.442457 288.465544 
L 196.528258 288.909035 
L 197.614059 288.568702 
L 198.69986 287.652963 
L 199.785661 290.257207 
L 200.871462 290.3231 
L 201.957264 293.031707 
L 203.043065 293.139584 
L 204.128866 292.465252 
L 205.214667 293.087819 
L 206.300468 291.370793 
L 207.386269 289.56531 
L 208.472071 290.040406 
L 209.557872 291.691779 
L 210.643673 291.328206 
L 211.729474 290.891359 
L 212.815275 292.157312 
L 213.901076 293.372179 
L 214.986877 293.87252 
L 216.072679 291.059393 
L 217.15848 289.046773 
L 218.244281 290.013078 
L 219.330082 290.010204 
L 220.415883 292.427728 
L 221.501684 290.775486 
L 222.587486 293.556552 
L 223.673287 293.804862 
L 224.759088 294.123645 
L 225.844889 294.100286 
L 226.93069 292.223601 
L 228.016491 294.371329 
L 229.102292 294.454156 
L 230.188094 293.553205 
L 231.273895 294.035343 
L 232.359696 294.328894 
L 233.445497 292.901376 
L 234.531298 294.062725 
L 235.617099 291.081366 
L 236.702901 290.33404 
L 237.788702 292.138063 
L 238.874503 293.006821 
L 239.960304 293.155834 
L 241.046105 294.355859 
L 242.131906 292.259636 
L 243.217708 292.521324 
L 244.303509 293.360876 
L 245.38931 290.072504 
L 246.475111 290.024932 
L 247.560912 291.627728 
L 248.646713 293.722835 
L 249.732514 294.208069 
L 250.818316 295.329429 
L 251.904117 294.369058 
L 252.989918 294.47809 
L 254.075719 295.488 
L 255.16152 293.846371 
L 256.247321 293.971328 
L 257.333123 294.205111 
L 258.418924 292.60816 
L 259.504725 292.383078 
L 260.590526 290.509559 
L 261.676327 285.257206 
L 262.762128 283.316989 
L 263.847929 285.550691 
L 264.933731 284.453663 
L 266.019532 284.046919 
L 267.105333 285.908515 
L 268.191134 288.243836 
L 269.276935 289.301938 
L 270.362736 286.903127 
L 271.448538 289.765259 
L 272.534339 288.829746 
L 273.62014 290.919649 
L 274.705941 291.515619 
L 275.791742 291.83887 
L 276.877543 291.176547 
L 277.963344 288.856811 
L 279.049146 287.247587 
L 280.134947 290.286475 
L 281.220748 290.304111 
L 282.306549 291.382218 
L 283.39235 290.035611 
L 284.478151 290.464338 
L 285.563953 287.492288 
L 286.649754 288.4712 
L 287.735555 287.055974 
L 288.821356 287.873498 
L 289.907157 285.220548 
L 290.992958 287.203196 
L 292.07876 287.608791 
L 293.164561 290.467374 
L 294.250362 291.013818 
L 295.336163 289.591012 
L 296.421964 291.833522 
L 297.507765 290.680112 
L 298.593566 290.284199 
L 299.679368 288.674512 
L 300.765169 288.995684 
L 301.85097 289.531054 
L 302.936771 289.831807 
L 304.022572 286.509971 
L 305.108373 288.732894 
L 306.194175 290.154073 
L 307.279976 290.690768 
L 308.365777 289.717764 
L 309.451578 288.748437 
L 310.537379 290.339568 
L 311.62318 289.801373 
L 312.708981 288.693974 
L 313.794783 286.885617 
L 314.880584 290.389384 
L 315.966385 291.53274 
L 317.052186 292.603703 
L 318.137987 290.409228 
L 319.223788 290.553518 
L 320.30959 290.874694 
L 321.395391 290.599356 
L 322.481192 289.113806 
L 323.566993 292.27408 
L 324.652794 289.829528 
L 325.738595 290.158428 
L 326.824396 290.737919 
L 327.910198 291.255571 
L 328.995999 292.1863 
L 330.0818 290.294826 
L 331.167601 289.197182 
L 332.253402 288.224581 
L 333.339203 288.296941 
L 334.425005 289.868183 
L 335.510806 288.753163 
L 336.596607 285.087421 
L 337.682408 285.461242 
L 338.768209 291.667239 
L 339.85401 293.409981 
L 340.939811 293.476334 
L 342.025613 292.407009 
L 343.111414 293.753333 
L 344.197215 293.612073 
L 345.283016 293.458558 
L 346.368817 291.443651 
L 347.454618 291.435668 
L 348.54042 293.118891 
L 349.626221 289.480396 
L 350.712022 288.976768 
L 351.797823 288.39761 
L 352.883624 288.661837 
L 353.969425 287.787912 
L 355.055227 290.053746 
L 356.141028 289.771326 
L 357.226829 285.189481 
L 358.31263 282.870749 
L 359.398431 283.453744 
L 360.484232 283.884427 
L 361.570033 286.075384 
L 362.655835 285.627803 
L 363.741636 287.763225 
L 364.827437 289.276589 
L 365.913238 289.708384 
L 366.999039 289.954301 
L 368.08484 290.177213 
L 369.170642 291.458933 
L 370.256443 290.989633 
L 371.342244 290.044583 
L 372.428045 289.934028 
L 373.513846 290.553911 
L 374.599647 290.116457 
L 375.685448 286.818868 
L 376.77125 289.212445 
L 377.857051 289.715165 
L 378.942852 291.621688 
L 380.028653 289.573395 
L 381.114454 292.250128 
L 382.200255 291.328908 
L 383.286057 292.754674 
L 384.371858 289.653739 
L 385.457659 289.508212 
L 386.54346 289.512678 
L 387.629261 291.958511 
L 388.715062 289.294514 
L 389.800863 292.238499 
L 390.886665 294.130291 
L 391.972466 293.963337 
L 393.058267 292.804662 
L 394.144068 291.60812 
L 395.229869 292.705384 
L 396.31567 294.618772 
L 397.401472 294.64166 
L 398.487273 294.782915 
L 398.487273 127.278785 
L 398.487273 127.278785 
L 397.401472 131.707217 
L 396.31567 132.762705 
L 395.229869 123.66774 
L 394.144068 117.597348 
L 393.058267 125.786884 
L 391.972466 129.81318 
L 390.886665 130.349151 
L 389.800863 118.459878 
L 388.715062 106.425708 
L 387.629261 120.122361 
L 386.54346 110.120662 
L 385.457659 110.734028 
L 384.371858 111.114688 
L 383.286057 120.434127 
L 382.200255 118.051661 
L 381.114454 119.454132 
L 380.028653 113.847837 
L 378.942852 125.851478 
L 377.857051 114.329893 
L 376.77125 104.565567 
L 375.685448 98.875242 
L 374.599647 108.261525 
L 373.513846 108.331021 
L 372.428045 104.964725 
L 371.342244 105.865645 
L 370.256443 113.646094 
L 369.170642 113.87253 
L 368.08484 114.696411 
L 366.999039 112.83332 
L 365.913238 111.622214 
L 364.827437 113.96529 
L 363.741636 106.982152 
L 362.655835 101.15713 
L 361.570033 102.637413 
L 360.484232 95.74047 
L 359.398431 95.020762 
L 358.31263 94.031114 
L 357.226829 99.487754 
L 356.141028 113.510614 
L 355.055227 116.852923 
L 353.969425 104.910307 
L 352.883624 114.373232 
L 351.797823 113.029987 
L 350.712022 115.136894 
L 349.626221 116.015576 
L 348.54042 131.987613 
L 347.454618 122.175719 
L 346.368817 121.147002 
L 345.283016 126.995511 
L 344.197215 131.038485 
L 343.111414 128.632825 
L 342.025613 123.438902 
L 340.939811 127.015859 
L 339.85401 125.403779 
L 338.768209 117.770767 
L 337.682408 100.078558 
L 336.596607 99.78652 
L 335.510806 114.531581 
L 334.425005 115.611333 
L 333.339203 104.782132 
L 332.253402 105.807596 
L 331.167601 111.514355 
L 330.0818 116.0359 
L 328.995999 123.219381 
L 327.910198 123.884938 
L 326.824396 119.778426 
L 325.738595 118.617577 
L 324.652794 123.73105 
L 323.566993 130.38605 
L 322.481192 119.057328 
L 321.395391 123.591427 
L 320.30959 122.57119 
L 319.223788 124.188726 
L 318.137987 118.800756 
L 317.052186 128.171242 
L 315.966385 118.856922 
L 314.880584 118.712724 
L 313.794783 105.405516 
L 312.708981 109.901391 
L 311.62318 116.471491 
L 310.537379 116.045274 
L 309.451578 117.29516 
L 308.365777 121.344806 
L 307.279976 122.892844 
L 306.194175 121.146303 
L 305.108373 115.38682 
L 304.022572 107.452829 
L 302.936771 114.012085 
L 301.85097 114.335141 
L 300.765169 117.786299 
L 299.679368 113.124093 
L 298.593566 120.948286 
L 297.507765 123.902095 
L 296.421964 128.117637 
L 295.336163 117.707075 
L 294.250362 122.002477 
L 293.164561 118.448565 
L 292.07876 106.94425 
L 290.992958 103.584607 
L 289.907157 98.797514 
L 288.821356 107.534103 
L 287.735555 107.340146 
L 286.649754 111.827128 
L 285.563953 110.289032 
L 284.478151 122.300717 
L 283.39235 120.481284 
L 282.306549 131.286098 
L 281.220748 127.019441 
L 280.134947 124.692425 
L 279.049146 107.990168 
L 277.963344 119.454972 
L 276.877543 121.557969 
L 275.791742 134.081227 
L 274.705941 126.567331 
L 273.62014 121.384204 
L 272.534339 116.283366 
L 271.448538 120.825247 
L 270.362736 108.394271 
L 269.276935 118.583261 
L 268.191134 111.452387 
L 267.105333 107.260297 
L 266.019532 97.817683 
L 264.933731 99.699253 
L 263.847929 99.813481 
L 262.762128 92.052238 
L 261.676327 100.052129 
L 260.590526 115.83272 
L 259.504725 124.677366 
L 258.418924 127.188527 
L 257.333123 131.189401 
L 256.247321 137.12945 
L 255.16152 148.321018 
L 254.075719 143.768907 
L 252.989918 134.635494 
L 251.904117 134.72518 
L 250.818316 148.303186 
L 249.732514 140.036593 
L 248.646713 139.487151 
L 247.560912 124.937732 
L 246.475111 115.974924 
L 245.38931 115.537088 
L 244.303509 131.295038 
L 243.217708 128.773326 
L 242.131906 128.540855 
L 241.046105 143.495887 
L 239.960304 137.993323 
L 238.874503 135.506223 
L 237.788702 120.136282 
L 236.702901 115.878802 
L 235.617099 121.761773 
L 234.531298 135.651452 
L 233.445497 128.291353 
L 232.359696 139.118678 
L 231.273895 139.277437 
L 230.188094 137.498028 
L 229.102292 135.103737 
L 228.016491 138.719994 
L 226.93069 138.688107 
L 225.844889 141.090486 
L 224.759088 142.864456 
L 223.673287 139.566155 
L 222.587486 139.560129 
L 221.501684 121.271567 
L 220.415883 124.503304 
L 219.330082 117.328356 
L 218.244281 119.810976 
L 217.15848 112.531859 
L 216.072679 121.64572 
L 214.986877 133.584758 
L 213.901076 133.42031 
L 212.815275 123.731623 
L 211.729474 121.399165 
L 210.643673 118.291407 
L 209.557872 125.155571 
L 208.472071 120.034594 
L 207.386269 117.526011 
L 206.300468 124.274219 
L 205.214667 134.278449 
L 204.128866 121.01221 
L 203.043065 131.607172 
L 201.957264 128.81642 
L 200.871462 112.345696 
L 199.785661 114.472068 
L 198.69986 104.722975 
L 197.614059 109.376899 
L 196.528258 109.73105 
L 195.442457 106.747751 
L 194.356656 114.490879 
L 193.270854 99.393057 
L 192.185053 107.151295 
L 191.099252 113.373775 
L 190.013451 116.094263 
L 188.92765 113.949818 
L 187.841849 124.945489 
L 186.756047 110.272589 
L 185.670246 104.001243 
L 184.584445 109.608298 
L 183.498644 120.94208 
L 182.412843 121.140233 
L 181.327042 94.017605 
L 180.24124 94.126633 
L 179.155439 92.734828 
L 178.069638 86.380865 
L 176.983837 83.283501 
L 175.898036 103.693354 
L 174.812235 103.284233 
L 173.726434 102.11274 
L 172.640632 103.413623 
L 171.554831 91.435265 
L 170.46903 99.200777 
L 169.383229 85.732757 
L 168.297428 86.855101 
L 167.211627 93.515542 
L 166.125825 78.370409 
L 165.040024 82.450339 
L 163.954223 83.354224 
L 162.868422 77.402118 
L 161.782621 76.884895 
L 160.69682 76.087779 
L 159.611019 77.586175 
L 158.525217 70.954371 
L 157.439416 64.158248 
L 156.353615 66.82311 
L 155.267814 66.016061 
L 154.182013 60.648933 
L 153.096212 60.83158 
L 152.01041 65.39108 
L 150.924609 67.908997 
L 149.838808 75.88222 
L 148.753007 70.212078 
L 147.667206 73.088473 
L 146.581405 74.135416 
L 145.495604 74.321612 
L 144.409802 79.130277 
L 143.324001 81.523401 
L 142.2382 78.220589 
L 141.152399 78.810193 
L 140.066598 81.737279 
L 138.980797 88.936644 
L 137.894995 82.270235 
L 136.809194 79.771563 
L 135.723393 83.977091 
L 134.637592 88.160067 
L 133.551791 91.998903 
L 132.46599 84.346018 
L 131.380189 78.471504 
L 130.294387 86.659618 
L 129.208586 94.375553 
L 128.122785 87.848516 
L 127.036984 81.58058 
L 125.951183 86.529047 
L 124.865382 88.213793 
L 123.77958 89.692706 
L 122.693779 102.051777 
L 121.607978 107.387434 
L 120.522177 110.268349 
L 119.436376 101.116514 
L 118.350575 94.39804 
L 117.264773 96.128952 
L 116.178972 91.131369 
L 115.093171 95.107729 
L 114.00737 96.91158 
L 112.921569 86.758334 
L 111.835768 96.542632 
L 110.749967 86.816001 
L 109.664165 81.838846 
L 108.578364 81.636069 
L 107.492563 86.248243 
L 106.406762 96.596779 
L 105.320961 99.678502 
L 104.23516 97.431301 
L 103.149358 102.705819 
L 102.063557 109.606146 
L 100.977756 116.684901 
L 99.891955 108.93207 
L 98.806154 96.36781 
L 97.720353 96.16291 
L 96.634552 91.430608 
L 95.54875 85.839972 
L 94.462949 77.66135 
L 93.377148 80.044943 
L 92.291347 67.391634 
L 91.205546 57.37162 
L 90.119745 56.577081 
L 89.033943 63.065216 
L 87.948142 65.663275 
L 86.862341 54.884274 
L 85.77654 56.596954 
L 84.690739 59.719585 
L 83.604938 53.568 
L 82.519137 72.507394 
L 81.433335 83.42688 
L 80.347534 92.456229 
L 79.261733 90.967365 
L 78.175932 89.147011 
L 77.090131 92.787811 
L 76.00433 88.921991 
L 74.918528 68.226948 
L 73.832727 79.429103 
z
" style="fill:#008000;fill-opacity:0.25;"/>
   </g>
   <g id="matplotlib.axis_3">
    <g id="ytick_8">
     <g id="line2d_16">
      <path clip-path="url(#pe32ff525ff)" d="M 57.6 296.104435 
L 414.72 296.104435 
" style="fill:none;stroke:#b0b0b0;stroke-linecap:square;stroke-width:0.8;"/>
     </g>
     <g id="line2d_17">
      <defs>
       <path d="M 0 0 
L 3.5 0 
" id="m0609d85f1a" style="stroke:#000000;stroke-width:0.8;"/>
      </defs>
      <g>
       <use style="stroke:#000000;stroke-width:0.8;" x="414.72" xlink:href="#m0609d85f1a" y="296.104435"/>
      </g>
     </g>
     <g id="text_16">
      <!-- 0.2 -->
      <defs>
       <path d="M 10.59375 35.5 
L 73.1875 35.5 
L 73.1875 27.203125 
L 10.59375 27.203125 
z
" id="DejaVuSans-8722"/>
      </defs>
      <g transform="translate(421.72 299.903653)scale(0.1 -0.1)">
       <use xlink:href="#DejaVuSans-8722"/>
       <use x="83.789062" xlink:href="#DejaVuSans-48"/>
       <use x="147.412109" xlink:href="#DejaVuSans-46"/>
       <use x="179.199219" xlink:href="#DejaVuSans-50"/>
      </g>
     </g>
    </g>
    <g id="ytick_9">
     <g id="line2d_18">
      <path clip-path="url(#pe32ff525ff)" d="M 57.6 253.081392 
L 414.72 253.081392 
" style="fill:none;stroke:#b0b0b0;stroke-linecap:square;stroke-width:0.8;"/>
     </g>
     <g id="line2d_19">
      <g>
       <use style="stroke:#000000;stroke-width:0.8;" x="414.72" xlink:href="#m0609d85f1a" y="253.081392"/>
      </g>
     </g>
     <g id="text_17">
      <!-- 0.0 -->
      <g transform="translate(421.72 256.880611)scale(0.1 -0.1)">
       <use xlink:href="#DejaVuSans-48"/>
       <use x="63.623047" xlink:href="#DejaVuSans-46"/>
       <use x="95.410156" xlink:href="#DejaVuSans-48"/>
      </g>
     </g>
    </g>
    <g id="ytick_10">
     <g id="line2d_20">
      <path clip-path="url(#pe32ff525ff)" d="M 57.6 210.058349 
L 414.72 210.058349 
" style="fill:none;stroke:#b0b0b0;stroke-linecap:square;stroke-width:0.8;"/>
     </g>
     <g id="line2d_21">
      <g>
       <use style="stroke:#000000;stroke-width:0.8;" x="414.72" xlink:href="#m0609d85f1a" y="210.058349"/>
      </g>
     </g>
     <g id="text_18">
      <!-- 0.2 -->
      <g transform="translate(421.72 213.857568)scale(0.1 -0.1)">
       <use xlink:href="#DejaVuSans-48"/>
       <use x="63.623047" xlink:href="#DejaVuSans-46"/>
       <use x="95.410156" xlink:href="#DejaVuSans-50"/>
      </g>
     </g>
    </g>
    <g id="ytick_11">
     <g id="line2d_22">
      <path clip-path="url(#pe32ff525ff)" d="M 57.6 167.035306 
L 414.72 167.035306 
" style="fill:none;stroke:#b0b0b0;stroke-linecap:square;stroke-width:0.8;"/>
     </g>
     <g id="line2d_23">
      <g>
       <use style="stroke:#000000;stroke-width:0.8;" x="414.72" xlink:href="#m0609d85f1a" y="167.035306"/>
      </g>
     </g>
     <g id="text_19">
      <!-- 0.4 -->
      <g transform="translate(421.72 170.834525)scale(0.1 -0.1)">
       <use xlink:href="#DejaVuSans-48"/>
       <use x="63.623047" xlink:href="#DejaVuSans-46"/>
       <use x="95.410156" xlink:href="#DejaVuSans-52"/>
      </g>
     </g>
    </g>
    <g id="ytick_12">
     <g id="line2d_24">
      <path clip-path="url(#pe32ff525ff)" d="M 57.6 124.012264 
L 414.72 124.012264 
" style="fill:none;stroke:#b0b0b0;stroke-linecap:square;stroke-width:0.8;"/>
     </g>
     <g id="line2d_25">
      <g>
       <use style="stroke:#000000;stroke-width:0.8;" x="414.72" xlink:href="#m0609d85f1a" y="124.012264"/>
      </g>
     </g>
     <g id="text_20">
      <!-- 0.6 -->
      <g transform="translate(421.72 127.811482)scale(0.1 -0.1)">
       <use xlink:href="#DejaVuSans-48"/>
       <use x="63.623047" xlink:href="#DejaVuSans-46"/>
       <use x="95.410156" xlink:href="#DejaVuSans-54"/>
      </g>
     </g>
    </g>
    <g id="ytick_13">
     <g id="line2d_26">
      <path clip-path="url(#pe32ff525ff)" d="M 57.6 80.989221 
L 414.72 80.989221 
" style="fill:none;stroke:#b0b0b0;stroke-linecap:square;stroke-width:0.8;"/>
     </g>
     <g id="line2d_27">
      <g>
       <use style="stroke:#000000;stroke-width:0.8;" x="414.72" xlink:href="#m0609d85f1a" y="80.989221"/>
      </g>
     </g>
     <g id="text_21">
      <!-- 0.8 -->
      <g transform="translate(421.72 84.78844)scale(0.1 -0.1)">
       <use xlink:href="#DejaVuSans-48"/>
       <use x="63.623047" xlink:href="#DejaVuSans-46"/>
       <use x="95.410156" xlink:href="#DejaVuSans-56"/>
      </g>
     </g>
    </g>
    <g id="text_22">
     <!-- Loudness -->
     <defs>
      <path d="M 9.8125 72.90625 
L 19.671875 72.90625 
L 19.671875 8.296875 
L 55.171875 8.296875 
L 55.171875 0 
L 9.8125 0 
z
" id="DejaVuSans-76"/>
      <path d="M 30.609375 48.390625 
Q 23.390625 48.390625 19.1875 42.75 
Q 14.984375 37.109375 14.984375 27.296875 
Q 14.984375 17.484375 19.15625 11.84375 
Q 23.34375 6.203125 30.609375 6.203125 
Q 37.796875 6.203125 41.984375 11.859375 
Q 46.1875 17.53125 46.1875 27.296875 
Q 46.1875 37.015625 41.984375 42.703125 
Q 37.796875 48.390625 30.609375 48.390625 
z
M 30.609375 56 
Q 42.328125 56 49.015625 48.375 
Q 55.71875 40.765625 55.71875 27.296875 
Q 55.71875 13.875 49.015625 6.21875 
Q 42.328125 -1.421875 30.609375 -1.421875 
Q 18.84375 -1.421875 12.171875 6.21875 
Q 5.515625 13.875 5.515625 27.296875 
Q 5.515625 40.765625 12.171875 48.375 
Q 18.84375 56 30.609375 56 
z
" id="DejaVuSans-111"/>
      <path d="M 8.5 21.578125 
L 8.5 54.6875 
L 17.484375 54.6875 
L 17.484375 21.921875 
Q 17.484375 14.15625 20.5 10.265625 
Q 23.53125 6.390625 29.59375 6.390625 
Q 36.859375 6.390625 41.078125 11.03125 
Q 45.3125 15.671875 45.3125 23.6875 
L 45.3125 54.6875 
L 54.296875 54.6875 
L 54.296875 0 
L 45.3125 0 
L 45.3125 8.40625 
Q 42.046875 3.421875 37.71875 1 
Q 33.40625 -1.421875 27.6875 -1.421875 
Q 18.265625 -1.421875 13.375 4.4375 
Q 8.5 10.296875 8.5 21.578125 
z
M 31.109375 56 
z
" id="DejaVuSans-117"/>
      <path d="M 45.40625 46.390625 
L 45.40625 75.984375 
L 54.390625 75.984375 
L 54.390625 0 
L 45.40625 0 
L 45.40625 8.203125 
Q 42.578125 3.328125 38.25 0.953125 
Q 33.9375 -1.421875 27.875 -1.421875 
Q 17.96875 -1.421875 11.734375 6.484375 
Q 5.515625 14.40625 5.515625 27.296875 
Q 5.515625 40.1875 11.734375 48.09375 
Q 17.96875 56 27.875 56 
Q 33.9375 56 38.25 53.625 
Q 42.578125 51.265625 45.40625 46.390625 
z
M 14.796875 27.296875 
Q 14.796875 17.390625 18.875 11.75 
Q 22.953125 6.109375 30.078125 6.109375 
Q 37.203125 6.109375 41.296875 11.75 
Q 45.40625 17.390625 45.40625 27.296875 
Q 45.40625 37.203125 41.296875 42.84375 
Q 37.203125 48.484375 30.078125 48.484375 
Q 22.953125 48.484375 18.875 42.84375 
Q 14.796875 37.203125 14.796875 27.296875 
z
" id="DejaVuSans-100"/>
     </defs>
     <g transform="translate(457.60125 198.170187)rotate(-90)scale(0.1 -0.1)">
      <use xlink:href="#DejaVuSans-76"/>
      <use x="55.697266" xlink:href="#DejaVuSans-111"/>
      <use x="116.878906" xlink:href="#DejaVuSans-117"/>
      <use x="180.257812" xlink:href="#DejaVuSans-100"/>
      <use x="243.734375" xlink:href="#DejaVuSans-110"/>
      <use x="307.113281" xlink:href="#DejaVuSans-101"/>
      <use x="368.636719" xlink:href="#DejaVuSans-115"/>
      <use x="420.736328" xlink:href="#DejaVuSans-115"/>
     </g>
    </g>
   </g>
   <g id="line2d_28">
    <path clip-path="url(#pe32ff525ff)" d="M 73.832727 171.775524 
L 74.918528 165.164677 
L 76.00433 180.349043 
L 77.090131 183.433634 
L 78.175932 182.087304 
L 79.261733 182.345709 
L 80.347534 185.344803 
L 81.433335 178.6539 
L 82.519137 170.314892 
L 83.604938 152.62792 
L 84.690739 159.978145 
L 85.77654 157.017056 
L 86.862341 156.286256 
L 87.948142 165.890292 
L 89.033943 164.095879 
L 90.119745 158.158431 
L 91.205546 158.622809 
L 92.291347 167.067411 
L 93.377148 177.6655 
L 94.462949 176.127306 
L 95.54875 182.573586 
L 97.720353 189.616863 
L 98.806154 190.270955 
L 99.891955 198.110915 
L 100.977756 203.20672 
L 104.23516 190.689109 
L 105.320961 192.064349 
L 106.406762 189.745242 
L 107.492563 182.649824 
L 108.578364 178.87002 
L 109.664165 179.192159 
L 110.749967 183.777858 
L 111.835768 190.12926 
L 112.921569 182.342234 
L 114.00737 189.151923 
L 115.093171 188.447242 
L 116.178972 186.173466 
L 117.264773 189.903423 
L 118.350575 187.814959 
L 119.436376 192.644307 
L 120.522177 199.304968 
L 121.607978 197.669239 
L 122.693779 194.157276 
L 123.77958 184.642915 
L 124.865382 183.426385 
L 125.951183 182.769909 
L 127.036984 179.679977 
L 128.122785 184.183621 
L 129.208586 188.047223 
L 130.294387 182.609636 
L 131.380189 177.749251 
L 132.46599 181.717704 
L 133.551791 187.278371 
L 134.637592 184.945772 
L 135.723393 181.750934 
L 136.809194 177.925719 
L 137.894995 180.299916 
L 138.980797 184.412382 
L 140.066598 178.657408 
L 141.152399 176.557431 
L 142.2382 175.769895 
L 143.324001 178.581794 
L 144.409802 176.943412 
L 145.495604 173.522142 
L 146.581405 173.708195 
L 147.667206 171.818914 
L 148.753007 169.559276 
L 149.838808 174.27419 
L 150.924609 168.349296 
L 152.01041 166.130989 
L 153.096212 161.856749 
L 154.182013 162.608338 
L 155.267814 166.187116 
L 156.353615 167.066627 
L 157.439416 164.607079 
L 158.525217 172.012319 
L 159.611019 177.216156 
L 160.69682 174.699577 
L 161.782621 175.67623 
L 162.868422 176.995247 
L 163.954223 181.775091 
L 165.040024 180.907877 
L 166.125825 177.777762 
L 167.211627 188.676756 
L 168.297428 184.085169 
L 169.383229 183.028194 
L 170.46903 192.408291 
L 171.554831 187.343439 
L 172.640632 194.933226 
L 173.726434 194.163336 
L 174.812235 194.101769 
L 175.898036 194.346182 
L 176.983837 180.808472 
L 178.069638 182.822495 
L 179.155439 186.761756 
L 180.24124 188.136297 
L 181.327042 188.396061 
L 182.412843 206.078719 
L 183.498644 205.394457 
L 184.584445 198.018111 
L 185.670246 194.839972 
L 186.756047 198.908016 
L 187.841849 207.90332 
L 188.92765 201.809397 
L 190.013451 202.98215 
L 192.185053 197.793656 
L 193.270854 192.420029 
L 194.356656 202.654166 
L 195.442457 197.606647 
L 196.528258 199.320042 
L 197.614059 198.9728 
L 198.69986 196.187969 
L 199.785661 202.364637 
L 200.871462 201.334398 
L 201.957264 210.924064 
L 203.043065 212.373378 
L 204.128866 206.738731 
L 205.214667 213.683134 
L 206.300468 207.822506 
L 207.386269 203.545661 
L 208.472071 205.0375 
L 209.557872 208.423675 
L 210.643673 204.809807 
L 211.729474 206.145262 
L 212.815275 207.944467 
L 213.901076 213.396244 
L 214.986877 213.728639 
L 216.072679 206.352557 
L 217.15848 200.789316 
L 218.244281 204.912027 
L 219.330082 203.66928 
L 220.415883 208.465516 
L 221.501684 206.023527 
L 222.587486 216.55834 
L 223.673287 216.685508 
L 224.759088 218.49405 
L 225.844889 217.595386 
L 226.93069 215.455854 
L 228.016491 216.545661 
L 229.102292 214.778947 
L 230.188094 215.525616 
L 231.273895 216.65639 
L 232.359696 216.723786 
L 233.445497 210.596364 
L 234.531298 214.857088 
L 235.617099 206.421569 
L 236.702901 203.106421 
L 237.788702 206.137173 
L 238.874503 214.256522 
L 239.960304 215.574578 
L 241.046105 218.925873 
L 242.131906 210.400245 
L 243.217708 210.647325 
L 244.303509 212.327957 
L 245.38931 202.804796 
L 246.475111 202.999928 
L 247.560912 208.28273 
L 248.646713 216.604993 
L 249.732514 217.122331 
L 250.818316 221.816308 
L 251.904117 214.547119 
L 252.989918 214.556792 
L 254.075719 219.628453 
L 255.16152 221.083694 
L 256.247321 215.550389 
L 258.418924 209.898343 
L 259.504725 208.530222 
L 260.590526 203.17114 
L 261.676327 192.654668 
L 262.762128 187.684613 
L 263.847929 192.682086 
L 264.933731 192.076458 
L 266.019532 190.932301 
L 267.105333 196.584406 
L 268.191134 199.848112 
L 269.276935 203.9426 
L 270.362736 197.648699 
L 271.448538 205.295253 
L 272.534339 202.556556 
L 273.62014 206.151927 
L 274.705941 209.041475 
L 275.791742 212.960048 
L 276.877543 206.367258 
L 277.963344 204.155892 
L 279.049146 197.618877 
L 280.134947 207.48945 
L 281.220748 208.661776 
L 282.306549 211.334158 
L 283.39235 205.258448 
L 284.478151 206.382527 
L 285.563953 198.89066 
L 286.649754 200.149164 
L 287.735555 197.19806 
L 288.821356 197.703801 
L 289.907157 192.009031 
L 290.992958 195.393901 
L 292.07876 197.27652 
L 293.164561 204.45797 
L 294.250362 206.508147 
L 295.336163 203.649043 
L 296.421964 209.975579 
L 297.507765 207.291104 
L 298.593566 205.616243 
L 299.679368 200.899303 
L 300.765169 203.390991 
L 301.85097 201.933097 
L 302.936771 201.921946 
L 304.022572 196.9814 
L 305.108373 202.059857 
L 306.194175 205.650188 
L 307.279976 206.791806 
L 308.365777 205.531285 
L 309.451578 203.021799 
L 310.537379 203.192421 
L 311.62318 203.136432 
L 312.708981 199.297683 
L 313.794783 196.145567 
L 314.880584 204.551054 
L 315.966385 205.194831 
L 317.052186 210.387473 
L 318.137987 204.604992 
L 319.223788 207.371122 
L 320.30959 206.722942 
L 321.395391 207.095391 
L 322.481192 204.085567 
L 323.566993 211.330065 
L 324.652794 206.780289 
L 325.738595 204.388003 
L 326.824396 205.258172 
L 327.910198 207.570255 
L 328.995999 207.702841 
L 330.0818 203.165363 
L 331.167601 200.355769 
L 332.253402 197.016089 
L 333.339203 196.539536 
L 334.425005 202.739758 
L 335.510806 201.642372 
L 336.596607 192.436971 
L 337.682408 192.7699 
L 338.768209 204.719003 
L 339.85401 209.40688 
L 340.939811 210.246096 
L 342.025613 207.922956 
L 343.111414 211.193079 
L 344.197215 212.325279 
L 345.283016 210.227034 
L 346.368817 206.295327 
L 347.454618 206.805693 
L 348.54042 212.553252 
L 349.626221 202.747986 
L 350.712022 202.056831 
L 351.797823 200.713798 
L 352.883624 201.517534 
L 353.969425 196.34911 
L 355.055227 203.453334 
L 356.141028 201.64097 
L 357.226829 192.338617 
L 358.31263 188.450932 
L 359.398431 189.237253 
L 360.484232 189.812449 
L 361.570033 194.356399 
L 362.655835 193.392466 
L 364.827437 201.62094 
L 365.913238 200.665299 
L 366.999039 201.39381 
L 368.08484 202.436812 
L 369.170642 202.665732 
L 370.256443 202.317863 
L 371.342244 197.955114 
L 372.428045 197.449377 
L 373.513846 199.442466 
L 374.599647 199.188991 
L 375.685448 192.847055 
L 376.77125 196.889006 
L 377.857051 202.022529 
L 378.942852 208.736583 
L 380.028653 201.710616 
L 381.114454 205.85213 
L 382.200255 204.690284 
L 383.286057 206.5944 
L 384.371858 200.384213 
L 386.54346 199.81667 
L 387.629261 206.040436 
L 388.715062 197.860111 
L 390.886665 212.239721 
L 391.972466 211.888259 
L 393.058267 209.295773 
L 394.144068 204.602734 
L 395.229869 208.186562 
L 396.31567 213.690738 
L 397.401472 213.174438 
L 398.487273 211.03085 
L 398.487273 211.03085 
" style="fill:none;stroke:#008000;stroke-linecap:square;stroke-width:1.5;"/>
   </g>
   <g id="patch_7">
    <path d="M 57.6 307.584 
L 57.6 41.472 
" style="fill:none;stroke:#000000;stroke-linecap:square;stroke-linejoin:miter;stroke-width:0.8;"/>
   </g>
   <g id="patch_8">
    <path d="M 414.72 307.584 
L 414.72 41.472 
" style="fill:none;stroke:#000000;stroke-linecap:square;stroke-linejoin:miter;stroke-width:0.8;"/>
   </g>
   <g id="patch_9">
    <path d="M 57.6 307.584 
L 414.72 307.584 
" style="fill:none;stroke:#000000;stroke-linecap:square;stroke-linejoin:miter;stroke-width:0.8;"/>
   </g>
   <g id="patch_10">
    <path d="M 57.6 41.472 
L 414.72 41.472 
" style="fill:none;stroke:#000000;stroke-linecap:square;stroke-linejoin:miter;stroke-width:0.8;"/>
   </g>
   <g id="text_23">
    <!-- Message Difference and Loudness -->
    <defs>
     <path d="M 9.8125 72.90625 
L 24.515625 72.90625 
L 43.109375 23.296875 
L 61.8125 72.90625 
L 76.515625 72.90625 
L 76.515625 0 
L 66.890625 0 
L 66.890625 64.015625 
L 48.09375 14.015625 
L 38.1875 14.015625 
L 19.390625 64.015625 
L 19.390625 0 
L 9.8125 0 
z
" id="DejaVuSans-77"/>
     <path d="M 45.40625 27.984375 
Q 45.40625 37.75 41.375 43.109375 
Q 37.359375 48.484375 30.078125 48.484375 
Q 22.859375 48.484375 18.828125 43.109375 
Q 14.796875 37.75 14.796875 27.984375 
Q 14.796875 18.265625 18.828125 12.890625 
Q 22.859375 7.515625 30.078125 7.515625 
Q 37.359375 7.515625 41.375 12.890625 
Q 45.40625 18.265625 45.40625 27.984375 
z
M 54.390625 6.78125 
Q 54.390625 -7.171875 48.1875 -13.984375 
Q 42 -20.796875 29.203125 -20.796875 
Q 24.46875 -20.796875 20.265625 -20.09375 
Q 16.0625 -19.390625 12.109375 -17.921875 
L 12.109375 -9.1875 
Q 16.0625 -11.328125 19.921875 -12.34375 
Q 23.78125 -13.375 27.78125 -13.375 
Q 36.625 -13.375 41.015625 -8.765625 
Q 45.40625 -4.15625 45.40625 5.171875 
L 45.40625 9.625 
Q 42.625 4.78125 38.28125 2.390625 
Q 33.9375 0 27.875 0 
Q 17.828125 0 11.671875 7.65625 
Q 5.515625 15.328125 5.515625 27.984375 
Q 5.515625 40.671875 11.671875 48.328125 
Q 17.828125 56 27.875 56 
Q 33.9375 56 38.28125 53.609375 
Q 42.625 51.21875 45.40625 46.390625 
L 45.40625 54.6875 
L 54.390625 54.6875 
z
" id="DejaVuSans-103"/>
     <path id="DejaVuSans-32"/>
     <path d="M 37.109375 75.984375 
L 37.109375 68.5 
L 28.515625 68.5 
Q 23.6875 68.5 21.796875 66.546875 
Q 19.921875 64.59375 19.921875 59.515625 
L 19.921875 54.6875 
L 34.71875 54.6875 
L 34.71875 47.703125 
L 19.921875 47.703125 
L 19.921875 0 
L 10.890625 0 
L 10.890625 47.703125 
L 2.296875 47.703125 
L 2.296875 54.6875 
L 10.890625 54.6875 
L 10.890625 58.5 
Q 10.890625 67.625 15.140625 71.796875 
Q 19.390625 75.984375 28.609375 75.984375 
z
" id="DejaVuSans-102"/>
     <path d="M 41.109375 46.296875 
Q 39.59375 47.171875 37.8125 47.578125 
Q 36.03125 48 33.890625 48 
Q 26.265625 48 22.1875 43.046875 
Q 18.109375 38.09375 18.109375 28.8125 
L 18.109375 0 
L 9.078125 0 
L 9.078125 54.6875 
L 18.109375 54.6875 
L 18.109375 46.1875 
Q 20.953125 51.171875 25.484375 53.578125 
Q 30.03125 56 36.53125 56 
Q 37.453125 56 38.578125 55.875 
Q 39.703125 55.765625 41.0625 55.515625 
z
" id="DejaVuSans-114"/>
    </defs>
    <g transform="translate(133.329375 35.472)scale(0.12 -0.12)">
     <use xlink:href="#DejaVuSans-77"/>
     <use x="86.279297" xlink:href="#DejaVuSans-101"/>
     <use x="147.802734" xlink:href="#DejaVuSans-115"/>
     <use x="199.902344" xlink:href="#DejaVuSans-115"/>
     <use x="252.001953" xlink:href="#DejaVuSans-97"/>
     <use x="313.28125" xlink:href="#DejaVuSans-103"/>
     <use x="376.757812" xlink:href="#DejaVuSans-101"/>
     <use x="438.28125" xlink:href="#DejaVuSans-32"/>
     <use x="470.068359" xlink:href="#DejaVuSans-68"/>
     <use x="547.070312" xlink:href="#DejaVuSans-105"/>
     <use x="574.853516" xlink:href="#DejaVuSans-102"/>
     <use x="610.058594" xlink:href="#DejaVuSans-102"/>
     <use x="645.263672" xlink:href="#DejaVuSans-101"/>
     <use x="706.787109" xlink:href="#DejaVuSans-114"/>
     <use x="747.869141" xlink:href="#DejaVuSans-101"/>
     <use x="809.392578" xlink:href="#DejaVuSans-110"/>
     <use x="872.771484" xlink:href="#DejaVuSans-99"/>
     <use x="927.751953" xlink:href="#DejaVuSans-101"/>
     <use x="989.275391" xlink:href="#DejaVuSans-32"/>
     <use x="1021.0625" xlink:href="#DejaVuSans-97"/>
     <use x="1082.341797" xlink:href="#DejaVuSans-110"/>
     <use x="1145.720703" xlink:href="#DejaVuSans-100"/>
     <use x="1209.197266" xlink:href="#DejaVuSans-32"/>
     <use x="1240.984375" xlink:href="#DejaVuSans-76"/>
     <use x="1296.681641" xlink:href="#DejaVuSans-111"/>
     <use x="1357.863281" xlink:href="#DejaVuSans-117"/>
     <use x="1421.242188" xlink:href="#DejaVuSans-100"/>
     <use x="1484.71875" xlink:href="#DejaVuSans-110"/>
     <use x="1548.097656" xlink:href="#DejaVuSans-101"/>
     <use x="1609.621094" xlink:href="#DejaVuSans-115"/>
     <use x="1661.720703" xlink:href="#DejaVuSans-115"/>
    </g>
   </g>
   <g id="legend_1">
    <g id="patch_11">
     <path d="M 331.227813 64.150125 
L 407.72 64.150125 
Q 409.72 64.150125 409.72 62.150125 
L 409.72 48.472 
Q 409.72 46.472 407.72 46.472 
L 331.227813 46.472 
Q 329.227813 46.472 329.227813 48.472 
L 329.227813 62.150125 
Q 329.227813 64.150125 331.227813 64.150125 
z
" style="fill:#ffffff;opacity:0.8;stroke:#cccccc;stroke-linejoin:miter;"/>
    </g>
    <g id="line2d_29">
     <path d="M 333.227813 54.570438 
L 353.227813 54.570438 
" style="fill:none;stroke:#008000;stroke-linecap:square;stroke-width:1.5;"/>
    </g>
    <g id="line2d_30"/>
    <g id="text_24">
     <!-- loudness -->
     <defs>
      <path d="M 9.421875 75.984375 
L 18.40625 75.984375 
L 18.40625 0 
L 9.421875 0 
z
" id="DejaVuSans-108"/>
     </defs>
     <g transform="translate(361.227813 58.070438)scale(0.1 -0.1)">
      <use xlink:href="#DejaVuSans-108"/>
      <use x="27.783203" xlink:href="#DejaVuSans-111"/>
      <use x="88.964844" xlink:href="#DejaVuSans-117"/>
      <use x="152.34375" xlink:href="#DejaVuSans-100"/>
      <use x="215.820312" xlink:href="#DejaVuSans-110"/>
      <use x="279.199219" xlink:href="#DejaVuSans-101"/>
      <use x="340.722656" xlink:href="#DejaVuSans-115"/>
      <use x="392.822266" xlink:href="#DejaVuSans-115"/>
     </g>
    </g>
   </g>
  </g>
 </g>
 <defs>
  <clipPath id="pe32ff525ff">
   <rect height="266.112" width="357.12" x="57.6" y="41.472"/>
  </clipPath>
 </defs>
</svg>
