<?xml version="1.0" encoding="UTF-8" standalone="no"?>
<!DOCTYPE svg PUBLIC "-//W3C//DTD SVG 1.1//EN"
 "http://www.w3.org/Graphics/SVG/1.1/DTD/svg11.dtd">
<!-- Generated by graphviz version 2.40.1 (20161225.0304)
 -->
<!-- Title: %3 Pages: 1 -->
<svg width="602pt" height="266pt"
 viewBox="0.00 0.00 602.19 265.93" xmlns="http://www.w3.org/2000/svg" xmlns:xlink="http://www.w3.org/1999/xlink">
<g id="graph0" class="graph" transform="scale(1 1) rotate(0) translate(4 261.9326)">
<title>%3</title>
<polygon fill="#ffffff" stroke="transparent" points="-4,4 -4,-261.9326 598.1916,-261.9326 598.1916,4 -4,4"/>
<!-- 0 -->
<g id="node1" class="node">
<title>0</title>
<polygon fill="#d3d3d3" stroke="#000000" points="194.8145,-257.9326 174.8026,-257.9326 174.8026,-240.9326 194.8145,-240.9326 194.8145,-257.9326"/>
<text text-anchor="middle" x="184.8086" y="-246.7326" font-family="Times,serif" font-size="9.00" fill="#000000">0</text>
</g>
<!-- 1 -->
<g id="node2" class="node">
<title>1</title>
<polygon fill="#d3d3d3" stroke="#000000" points="233.8145,-257.9326 213.8026,-257.9326 213.8026,-240.9326 233.8145,-240.9326 233.8145,-257.9326"/>
<text text-anchor="middle" x="223.8086" y="-246.7326" font-family="Times,serif" font-size="9.00" fill="#000000">1</text>
</g>
<!-- 0&#45;&gt;1 -->
<!-- E4 -->
<g id="node8" class="node">
<title>E4</title>
<ellipse fill="#add8e6" stroke="#000000" cx="355.8086" cy="-18.383" rx="18.2668" ry="18.2668"/>
<text text-anchor="middle" x="355.8086" y="-15.683" font-family="Times,serif" font-size="9.00" fill="#000000">E4</text>
</g>
<!-- 0&#45;&gt;E4 -->
<g id="edge13" class="edge">
<title>0&#45;&gt;E4</title>
<path fill="none" stroke="#00ff00" stroke-width=".784" d="M191.3032,-240.6573C215.5896,-207.8423 301.5623,-91.6788 338.6123,-41.6181"/>
<polygon fill="#00ff00" stroke="#00ff00" stroke-width=".784" points="341.5972,-43.4684 344.7329,-33.3482 335.9706,-39.3041 341.5972,-43.4684"/>
</g>
<!-- 5112 -->
<g id="node16" class="node">
<title>5112</title>
<ellipse fill="#ffffff" stroke="#000000" cx="23.8086" cy="-180.891" rx="23.6187" ry="23.6187"/>
<text text-anchor="middle" x="23.8086" y="-178.191" font-family="Times,serif" font-size="9.00" fill="#000000">5112</text>
</g>
<!-- 0&#45;&gt;5112 -->
<g id="edge16" class="edge">
<title>0&#45;&gt;5112</title>
<path fill="none" stroke="#00ff00" stroke-width=".4976" d="M174.7054,-246.0337C154.3462,-239.0808 107.0673,-222.4091 68.8086,-204.9326 63.7731,-202.6324 58.5141,-200.0224 53.4409,-197.3909"/>
<polygon fill="#00ff00" stroke="#00ff00" stroke-width=".4976" points="55.0715,-194.2939 44.5983,-192.6933 51.7874,-200.4758 55.0715,-194.2939"/>
</g>
<!-- 2 -->
<g id="node3" class="node">
<title>2</title>
<polygon fill="#d3d3d3" stroke="#000000" points="343.8145,-257.9326 323.8026,-257.9326 323.8026,-240.9326 343.8145,-240.9326 343.8145,-257.9326"/>
<text text-anchor="middle" x="333.8086" y="-246.7326" font-family="Times,serif" font-size="9.00" fill="#000000">2</text>
</g>
<!-- 1&#45;&gt;2 -->
<!-- E0 -->
<g id="node4" class="node">
<title>E0</title>
<ellipse fill="#add8e6" stroke="#000000" cx="128.8086" cy="-18.383" rx="18.2668" ry="18.2668"/>
<text text-anchor="middle" x="128.8086" y="-15.683" font-family="Times,serif" font-size="9.00" fill="#000000">E0</text>
</g>
<!-- 1&#45;&gt;E0 -->
<g id="edge15" class="edge">
<title>1&#45;&gt;E0</title>
<path fill="none" stroke="#00ff00" stroke-width=".132" d="M213.4342,-242.1235C202.9054,-234.1622 186.8994,-220.4689 177.8086,-204.9326 148.1792,-154.2956 136.1548,-85.5909 131.5161,-47.2675"/>
<polygon fill="#00ff00" stroke="#00ff00" stroke-width=".132" points="134.941,-46.401 130.3485,-36.8533 127.9846,-47.181 134.941,-46.401"/>
</g>
<!-- E5 -->
<g id="node9" class="node">
<title>E5</title>
<ellipse fill="#add8e6" stroke="#000000" cx="410.8086" cy="-18.383" rx="18.2668" ry="18.2668"/>
<text text-anchor="middle" x="410.8086" y="-15.683" font-family="Times,serif" font-size="9.00" fill="#000000">E5</text>
</g>
<!-- 1&#45;&gt;E5 -->
<g id="edge11" class="edge">
<title>1&#45;&gt;E5</title>
<path fill="none" stroke="#ff0000" stroke-width="1.6395" d="M233.8628,-248.7383C270.3965,-245.9872 395.2091,-234.5243 418.8086,-204.9326 455.5307,-158.8862 436.0996,-84.237 421.7235,-44.7768"/>
<polygon fill="#ff0000" stroke="#ff0000" stroke-width="1.6395" points="424.9508,-43.4165 418.1245,-35.3139 418.408,-45.905 424.9508,-43.4165"/>
</g>
<!-- 5290 -->
<g id="node14" class="node">
<title>5290</title>
<ellipse fill="#ffffff" stroke="#000000" cx="101.8086" cy="-180.891" rx="24.0833" ry="24.0833"/>
<text text-anchor="middle" x="101.8086" y="-178.191" font-family="Times,serif" font-size="9.00" fill="#000000">5290</text>
</g>
<!-- 1&#45;&gt;5290 -->
<g id="edge20" class="edge">
<title>1&#45;&gt;5290</title>
<path fill="none" stroke="#00ff00" stroke-width=".7372" d="M213.5857,-244.3375C197.6316,-236.3146 165.9327,-220.0864 139.8086,-204.9326 136.8141,-203.1956 133.7169,-201.339 130.6423,-199.4564"/>
<polygon fill="#00ff00" stroke="#00ff00" stroke-width=".7372" points="132.4798,-196.4775 122.1416,-194.1594 128.7777,-202.4185 132.4798,-196.4775"/>
</g>
<!-- 2&#45;&gt;E0 -->
<g id="edge12" class="edge">
<title>2&#45;&gt;E0</title>
<path fill="none" stroke="#ff0000" stroke-width="1.5383" d="M324.8793,-240.6471C304.2084,-220.1926 251.7081,-167.5704 210.8086,-120.8494 187.5939,-94.3304 162.4946,-62.4474 146.2643,-41.3653"/>
<polygon fill="#ff0000" stroke="#ff0000" stroke-width="1.5383" points="148.9503,-39.1163 140.0889,-33.3088 143.3946,-43.3747 148.9503,-39.1163"/>
</g>
<!-- E3 -->
<g id="node7" class="node">
<title>E3</title>
<ellipse fill="#add8e6" stroke="#000000" cx="300.8086" cy="-18.383" rx="18.2668" ry="18.2668"/>
<text text-anchor="middle" x="300.8086" y="-15.683" font-family="Times,serif" font-size="9.00" fill="#000000">E3</text>
</g>
<!-- 2&#45;&gt;E3 -->
<g id="edge14" class="edge">
<title>2&#45;&gt;E3</title>
<path fill="none" stroke="#ff0000" stroke-width=".4344" d="M332.5552,-240.6573C328.0173,-208.8852 312.3197,-98.9784 304.8368,-46.5867"/>
<polygon fill="#ff0000" stroke="#ff0000" stroke-width=".4344" points="308.2924,-46.0263 303.4135,-36.6216 301.3627,-47.0161 308.2924,-46.0263"/>
</g>
<!-- 2&#45;&gt;E4 -->
<g id="edge23" class="edge">
<title>2&#45;&gt;E4</title>
<path fill="none" stroke="#ff0000" stroke-width=".2384" d="M343.985,-247.6096C362.7165,-243.6441 402.2494,-232.2931 418.8086,-204.9326 449.2232,-154.6791 443.2605,-126.1756 418.8086,-72.7661 414.4806,-63.3127 395.1089,-47.3014 378.9753,-35.093"/>
<polygon fill="#ff0000" stroke="#ff0000" stroke-width=".2384" points="381.0434,-32.2693 370.9305,-29.1103 376.8662,-37.8863 381.0434,-32.2693"/>
</g>
<!-- 5459 -->
<g id="node15" class="node">
<title>5459</title>
<ellipse fill="#ffffff" stroke="#000000" cx="385.8086" cy="-180.891" rx="24.0833" ry="24.0833"/>
<text text-anchor="middle" x="385.8086" y="-178.191" font-family="Times,serif" font-size="9.00" fill="#000000">5459</text>
</g>
<!-- 2&#45;&gt;5459 -->
<g id="edge24" class="edge">
<title>2&#45;&gt;5459</title>
<path fill="none" stroke="#00ff00" stroke-width=".2821" d="M340.3944,-240.7518C346.596,-232.5775 356.2212,-219.8904 365.0171,-208.2964"/>
<polygon fill="#00ff00" stroke="#00ff00" stroke-width=".2821" points="367.9588,-210.2098 371.2145,-200.1275 362.382,-205.9789 367.9588,-210.2098"/>
</g>
<!-- E1 -->
<g id="node5" class="node">
<title>E1</title>
<ellipse fill="#add8e6" stroke="#000000" cx="187.8086" cy="-18.383" rx="18.2668" ry="18.2668"/>
<text text-anchor="middle" x="187.8086" y="-15.683" font-family="Times,serif" font-size="9.00" fill="#000000">E1</text>
</g>
<!-- E0&#45;&gt;E1 -->
<!-- E2 -->
<g id="node6" class="node">
<title>E2</title>
<ellipse fill="#add8e6" stroke="#000000" cx="244.8086" cy="-18.383" rx="18.2668" ry="18.2668"/>
<text text-anchor="middle" x="244.8086" y="-15.683" font-family="Times,serif" font-size="9.00" fill="#000000">E2</text>
</g>
<!-- E1&#45;&gt;E2 -->
<!-- E2&#45;&gt;E3 -->
<!-- E3&#45;&gt;E4 -->
<!-- E4&#45;&gt;E5 -->
<!-- E6 -->
<g id="node10" class="node">
<title>E6</title>
<ellipse fill="#add8e6" stroke="#000000" cx="465.8086" cy="-18.383" rx="18.2668" ry="18.2668"/>
<text text-anchor="middle" x="465.8086" y="-15.683" font-family="Times,serif" font-size="9.00" fill="#000000">E6</text>
</g>
<!-- E5&#45;&gt;E6 -->
<!-- E7 -->
<g id="node11" class="node">
<title>E7</title>
<ellipse fill="#add8e6" stroke="#000000" cx="520.8086" cy="-18.383" rx="18.2668" ry="18.2668"/>
<text text-anchor="middle" x="520.8086" y="-15.683" font-family="Times,serif" font-size="9.00" fill="#000000">E7</text>
</g>
<!-- E6&#45;&gt;E7 -->
<!-- E8 -->
<g id="node12" class="node">
<title>E8</title>
<ellipse fill="#add8e6" stroke="#000000" cx="575.8086" cy="-18.383" rx="18.2668" ry="18.2668"/>
<text text-anchor="middle" x="575.8086" y="-15.683" font-family="Times,serif" font-size="9.00" fill="#000000">E8</text>
</g>
<!-- E7&#45;&gt;E8 -->
<!-- 5516 -->
<g id="node13" class="node">
<title>5516</title>
<ellipse fill="#ffffff" stroke="#000000" cx="101.8086" cy="-96.8077" rx="24.0833" ry="24.0833"/>
<text text-anchor="middle" x="101.8086" y="-94.1077" font-family="Times,serif" font-size="9.00" fill="#000000">5516</text>
</g>
<!-- 5516&#45;&gt;E0 -->
<g id="edge27" class="edge">
<title>5516&#45;&gt;E0</title>
<path fill="none" stroke="#00ff00" stroke-width=".3732" d="M109.7634,-73.7019C112.8249,-64.8095 116.3469,-54.5794 119.523,-45.3542"/>
<polygon fill="#00ff00" stroke="#00ff00" stroke-width=".3732" points="122.8495,-46.4436 122.7954,-35.8489 116.2307,-44.1649 122.8495,-46.4436"/>
</g>
<!-- 5290&#45;&gt;E0 -->
<g id="edge21" class="edge">
<title>5290&#45;&gt;E0</title>
<path fill="none" stroke="#00ff00" stroke-width=".5702" d="M87.5451,-161.2399C73.4011,-139.1721 55.6061,-102.5512 68.8086,-72.7661 76.099,-56.3186 91.0935,-42.7255 104.2681,-33.2429"/>
<polygon fill="#00ff00" stroke="#00ff00" stroke-width=".5702" points="106.2523,-36.1263 112.5636,-27.6164 102.323,-30.3331 106.2523,-36.1263"/>
</g>
<!-- 5290&#45;&gt;5516 -->
<g id="edge26" class="edge">
<title>5290&#45;&gt;5516</title>
<path fill="none" stroke="#ff0000" stroke-width=".5554" d="M101.8086,-156.5706C101.8086,-148.6398 101.8086,-139.6791 101.8086,-131.1553"/>
<polygon fill="#ff0000" stroke="#ff0000" stroke-width=".5554" points="105.3087,-131.0734 101.8086,-121.0734 98.3087,-131.0735 105.3087,-131.0734"/>
</g>
<!-- 5183 -->
<g id="node18" class="node">
<title>5183</title>
<ellipse fill="#ffffff" stroke="#000000" cx="385.8086" cy="-96.8077" rx="24.0833" ry="24.0833"/>
<text text-anchor="middle" x="385.8086" y="-94.1077" font-family="Times,serif" font-size="9.00" fill="#000000">5183</text>
</g>
<!-- 5459&#45;&gt;5183 -->
<g id="edge25" class="edge">
<title>5459&#45;&gt;5183</title>
<path fill="none" stroke="#00ff00" stroke-width=".2497" d="M385.8086,-156.5706C385.8086,-148.6398 385.8086,-139.6791 385.8086,-131.1553"/>
<polygon fill="#00ff00" stroke="#00ff00" stroke-width=".2497" points="389.3087,-131.0734 385.8086,-121.0734 382.3087,-131.0735 389.3087,-131.0734"/>
</g>
<!-- 5112&#45;&gt;E0 -->
<g id="edge17" class="edge">
<title>5112&#45;&gt;E0</title>
<path fill="none" stroke="#00ff00" stroke-width="1.0144" d="M27.9027,-157.1981C32.7827,-134.03 42.6604,-98.5693 60.8086,-72.7661 72.1873,-56.5877 89.6983,-42.7406 104.1005,-33.0679"/>
<polygon fill="#00ff00" stroke="#00ff00" stroke-width="1.0144" points="106.0737,-35.9602 112.5836,-27.6013 102.2819,-30.0761 106.0737,-35.9602"/>
</g>
<!-- 5306 -->
<g id="node17" class="node">
<title>5306</title>
<ellipse fill="#ffffff" stroke="#000000" cx="243.8086" cy="-96.8077" rx="24.0833" ry="24.0833"/>
<text text-anchor="middle" x="243.8086" y="-94.1077" font-family="Times,serif" font-size="9.00" fill="#000000">5306</text>
</g>
<!-- 5306&#45;&gt;E3 -->
<g id="edge22" class="edge">
<title>5306&#45;&gt;E3</title>
<path fill="none" stroke="#ff0000" stroke-width=".157" d="M258.1921,-77.0179C265.9712,-66.3147 275.6276,-53.0288 283.7806,-41.8114"/>
<polygon fill="#ff0000" stroke="#ff0000" stroke-width=".157" points="286.618,-43.8605 289.6661,-33.7136 280.9556,-39.745 286.618,-43.8605"/>
</g>
<!-- 5183&#45;&gt;E3 -->
<g id="edge18" class="edge">
<title>5183&#45;&gt;E3</title>
<path fill="none" stroke="#ff0000" stroke-width=".4259" d="M367.7823,-80.1759C354.4205,-67.8477 336.1627,-51.0023 322.0848,-38.0134"/>
<polygon fill="#ff0000" stroke="#ff0000" stroke-width=".4259" points="324.0706,-35.0834 314.3475,-30.8747 319.3238,-40.2282 324.0706,-35.0834"/>
</g>
<!-- 5183&#45;&gt;E5 -->
<g id="edge19" class="edge">
<title>5183&#45;&gt;E5</title>
<path fill="none" stroke="#00ff00" stroke-width=".1808" d="M393.1742,-73.7019C395.9578,-64.9697 399.1526,-54.9477 402.0515,-45.8539"/>
<polygon fill="#00ff00" stroke="#00ff00" stroke-width=".1808" points="405.4585,-46.6899 405.1611,-36.0992 398.7891,-44.5638 405.4585,-46.6899"/>
</g>
</g>
</svg>
