<?xml version="1.0" encoding="utf-8" standalone="no"?>
<!DOCTYPE svg PUBLIC "-//W3C//DTD SVG 1.1//EN"
  "http://www.w3.org/Graphics/SVG/1.1/DTD/svg11.dtd">
<!-- Created with matplotlib (https://matplotlib.org/) -->
<svg height="345.6pt" version="1.1" viewBox="0 0 460.8 345.6" width="460.8pt" xmlns="http://www.w3.org/2000/svg" xmlns:xlink="http://www.w3.org/1999/xlink">
 <defs>
  <style type="text/css">
*{stroke-linecap:butt;stroke-linejoin:round;}
  </style>
 </defs>
 <g id="figure_1">
  <g id="patch_1">
   <path d="M 0 345.6 
L 460.8 345.6 
L 460.8 0 
L 0 0 
z
" style="fill:#ffffff;"/>
  </g>
  <g id="axes_1">
   <g id="patch_2">
    <path d="M 57.6 307.584 
L 414.72 307.584 
L 414.72 41.472 
L 57.6 41.472 
z
" style="fill:#ffffff;"/>
   </g>
   <g id="matplotlib.axis_1">
    <g id="xtick_1">
     <g id="line2d_1">
      <path clip-path="url(#pc57b395248)" d="M 73.832727 307.584 
L 73.832727 41.472 
" style="fill:none;stroke:#b0b0b0;stroke-linecap:square;stroke-width:0.8;"/>
     </g>
     <g id="line2d_2">
      <defs>
       <path d="M 0 0 
L 0 3.5 
" id="m0802c57938" style="stroke:#000000;stroke-width:0.8;"/>
      </defs>
      <g>
       <use style="stroke:#000000;stroke-width:0.8;" x="73.832727" xlink:href="#m0802c57938" y="307.584"/>
      </g>
     </g>
     <g id="text_1">
      <!-- 0 -->
      <defs>
       <path d="M 31.78125 66.40625 
Q 24.171875 66.40625 20.328125 58.90625 
Q 16.5 51.421875 16.5 36.375 
Q 16.5 21.390625 20.328125 13.890625 
Q 24.171875 6.390625 31.78125 6.390625 
Q 39.453125 6.390625 43.28125 13.890625 
Q 47.125 21.390625 47.125 36.375 
Q 47.125 51.421875 43.28125 58.90625 
Q 39.453125 66.40625 31.78125 66.40625 
z
M 31.78125 74.21875 
Q 44.046875 74.21875 50.515625 64.515625 
Q 56.984375 54.828125 56.984375 36.375 
Q 56.984375 17.96875 50.515625 8.265625 
Q 44.046875 -1.421875 31.78125 -1.421875 
Q 19.53125 -1.421875 13.0625 8.265625 
Q 6.59375 17.96875 6.59375 36.375 
Q 6.59375 54.828125 13.0625 64.515625 
Q 19.53125 74.21875 31.78125 74.21875 
z
" id="DejaVuSans-48"/>
      </defs>
      <g transform="translate(70.651477 322.182437)scale(0.1 -0.1)">
       <use xlink:href="#DejaVuSans-48"/>
      </g>
     </g>
    </g>
    <g id="xtick_2">
     <g id="line2d_3">
      <path clip-path="url(#pc57b395248)" d="M 128.122785 307.584 
L 128.122785 41.472 
" style="fill:none;stroke:#b0b0b0;stroke-linecap:square;stroke-width:0.8;"/>
     </g>
     <g id="line2d_4">
      <g>
       <use style="stroke:#000000;stroke-width:0.8;" x="128.122785" xlink:href="#m0802c57938" y="307.584"/>
      </g>
     </g>
     <g id="text_2">
      <!-- 50 -->
      <defs>
       <path d="M 10.796875 72.90625 
L 49.515625 72.90625 
L 49.515625 64.59375 
L 19.828125 64.59375 
L 19.828125 46.734375 
Q 21.96875 47.46875 24.109375 47.828125 
Q 26.265625 48.1875 28.421875 48.1875 
Q 40.625 48.1875 47.75 41.5 
Q 54.890625 34.8125 54.890625 23.390625 
Q 54.890625 11.625 47.5625 5.09375 
Q 40.234375 -1.421875 26.90625 -1.421875 
Q 22.3125 -1.421875 17.546875 -0.640625 
Q 12.796875 0.140625 7.71875 1.703125 
L 7.71875 11.625 
Q 12.109375 9.234375 16.796875 8.0625 
Q 21.484375 6.890625 26.703125 6.890625 
Q 35.15625 6.890625 40.078125 11.328125 
Q 45.015625 15.765625 45.015625 23.390625 
Q 45.015625 31 40.078125 35.4375 
Q 35.15625 39.890625 26.703125 39.890625 
Q 22.75 39.890625 18.8125 39.015625 
Q 14.890625 38.140625 10.796875 36.28125 
z
" id="DejaVuSans-53"/>
      </defs>
      <g transform="translate(121.760285 322.182437)scale(0.1 -0.1)">
       <use xlink:href="#DejaVuSans-53"/>
       <use x="63.623047" xlink:href="#DejaVuSans-48"/>
      </g>
     </g>
    </g>
    <g id="xtick_3">
     <g id="line2d_5">
      <path clip-path="url(#pc57b395248)" d="M 182.412843 307.584 
L 182.412843 41.472 
" style="fill:none;stroke:#b0b0b0;stroke-linecap:square;stroke-width:0.8;"/>
     </g>
     <g id="line2d_6">
      <g>
       <use style="stroke:#000000;stroke-width:0.8;" x="182.412843" xlink:href="#m0802c57938" y="307.584"/>
      </g>
     </g>
     <g id="text_3">
      <!-- 100 -->
      <defs>
       <path d="M 12.40625 8.296875 
L 28.515625 8.296875 
L 28.515625 63.921875 
L 10.984375 60.40625 
L 10.984375 69.390625 
L 28.421875 72.90625 
L 38.28125 72.90625 
L 38.28125 8.296875 
L 54.390625 8.296875 
L 54.390625 0 
L 12.40625 0 
z
" id="DejaVuSans-49"/>
      </defs>
      <g transform="translate(172.869093 322.182437)scale(0.1 -0.1)">
       <use xlink:href="#DejaVuSans-49"/>
       <use x="63.623047" xlink:href="#DejaVuSans-48"/>
       <use x="127.246094" xlink:href="#DejaVuSans-48"/>
      </g>
     </g>
    </g>
    <g id="xtick_4">
     <g id="line2d_7">
      <path clip-path="url(#pc57b395248)" d="M 236.702901 307.584 
L 236.702901 41.472 
" style="fill:none;stroke:#b0b0b0;stroke-linecap:square;stroke-width:0.8;"/>
     </g>
     <g id="line2d_8">
      <g>
       <use style="stroke:#000000;stroke-width:0.8;" x="236.702901" xlink:href="#m0802c57938" y="307.584"/>
      </g>
     </g>
     <g id="text_4">
      <!-- 150 -->
      <g transform="translate(227.159151 322.182437)scale(0.1 -0.1)">
       <use xlink:href="#DejaVuSans-49"/>
       <use x="63.623047" xlink:href="#DejaVuSans-53"/>
       <use x="127.246094" xlink:href="#DejaVuSans-48"/>
      </g>
     </g>
    </g>
    <g id="xtick_5">
     <g id="line2d_9">
      <path clip-path="url(#pc57b395248)" d="M 290.992958 307.584 
L 290.992958 41.472 
" style="fill:none;stroke:#b0b0b0;stroke-linecap:square;stroke-width:0.8;"/>
     </g>
     <g id="line2d_10">
      <g>
       <use style="stroke:#000000;stroke-width:0.8;" x="290.992958" xlink:href="#m0802c57938" y="307.584"/>
      </g>
     </g>
     <g id="text_5">
      <!-- 200 -->
      <defs>
       <path d="M 19.1875 8.296875 
L 53.609375 8.296875 
L 53.609375 0 
L 7.328125 0 
L 7.328125 8.296875 
Q 12.9375 14.109375 22.625 23.890625 
Q 32.328125 33.6875 34.8125 36.53125 
Q 39.546875 41.84375 41.421875 45.53125 
Q 43.3125 49.21875 43.3125 52.78125 
Q 43.3125 58.59375 39.234375 62.25 
Q 35.15625 65.921875 28.609375 65.921875 
Q 23.96875 65.921875 18.8125 64.3125 
Q 13.671875 62.703125 7.8125 59.421875 
L 7.8125 69.390625 
Q 13.765625 71.78125 18.9375 73 
Q 24.125 74.21875 28.421875 74.21875 
Q 39.75 74.21875 46.484375 68.546875 
Q 53.21875 62.890625 53.21875 53.421875 
Q 53.21875 48.921875 51.53125 44.890625 
Q 49.859375 40.875 45.40625 35.40625 
Q 44.1875 33.984375 37.640625 27.21875 
Q 31.109375 20.453125 19.1875 8.296875 
z
" id="DejaVuSans-50"/>
      </defs>
      <g transform="translate(281.449208 322.182437)scale(0.1 -0.1)">
       <use xlink:href="#DejaVuSans-50"/>
       <use x="63.623047" xlink:href="#DejaVuSans-48"/>
       <use x="127.246094" xlink:href="#DejaVuSans-48"/>
      </g>
     </g>
    </g>
    <g id="xtick_6">
     <g id="line2d_11">
      <path clip-path="url(#pc57b395248)" d="M 345.283016 307.584 
L 345.283016 41.472 
" style="fill:none;stroke:#b0b0b0;stroke-linecap:square;stroke-width:0.8;"/>
     </g>
     <g id="line2d_12">
      <g>
       <use style="stroke:#000000;stroke-width:0.8;" x="345.283016" xlink:href="#m0802c57938" y="307.584"/>
      </g>
     </g>
     <g id="text_6">
      <!-- 250 -->
      <g transform="translate(335.739266 322.182437)scale(0.1 -0.1)">
       <use xlink:href="#DejaVuSans-50"/>
       <use x="63.623047" xlink:href="#DejaVuSans-53"/>
       <use x="127.246094" xlink:href="#DejaVuSans-48"/>
      </g>
     </g>
    </g>
    <g id="xtick_7">
     <g id="line2d_13">
      <path clip-path="url(#pc57b395248)" d="M 399.573074 307.584 
L 399.573074 41.472 
" style="fill:none;stroke:#b0b0b0;stroke-linecap:square;stroke-width:0.8;"/>
     </g>
     <g id="line2d_14">
      <g>
       <use style="stroke:#000000;stroke-width:0.8;" x="399.573074" xlink:href="#m0802c57938" y="307.584"/>
      </g>
     </g>
     <g id="text_7">
      <!-- 300 -->
      <defs>
       <path d="M 40.578125 39.3125 
Q 47.65625 37.796875 51.625 33 
Q 55.609375 28.21875 55.609375 21.1875 
Q 55.609375 10.40625 48.1875 4.484375 
Q 40.765625 -1.421875 27.09375 -1.421875 
Q 22.515625 -1.421875 17.65625 -0.515625 
Q 12.796875 0.390625 7.625 2.203125 
L 7.625 11.71875 
Q 11.71875 9.328125 16.59375 8.109375 
Q 21.484375 6.890625 26.8125 6.890625 
Q 36.078125 6.890625 40.9375 10.546875 
Q 45.796875 14.203125 45.796875 21.1875 
Q 45.796875 27.640625 41.28125 31.265625 
Q 36.765625 34.90625 28.71875 34.90625 
L 20.21875 34.90625 
L 20.21875 43.015625 
L 29.109375 43.015625 
Q 36.375 43.015625 40.234375 45.921875 
Q 44.09375 48.828125 44.09375 54.296875 
Q 44.09375 59.90625 40.109375 62.90625 
Q 36.140625 65.921875 28.71875 65.921875 
Q 24.65625 65.921875 20.015625 65.03125 
Q 15.375 64.15625 9.8125 62.3125 
L 9.8125 71.09375 
Q 15.4375 72.65625 20.34375 73.4375 
Q 25.25 74.21875 29.59375 74.21875 
Q 40.828125 74.21875 47.359375 69.109375 
Q 53.90625 64.015625 53.90625 55.328125 
Q 53.90625 49.265625 50.4375 45.09375 
Q 46.96875 40.921875 40.578125 39.3125 
z
" id="DejaVuSans-51"/>
      </defs>
      <g transform="translate(390.029324 322.182437)scale(0.1 -0.1)">
       <use xlink:href="#DejaVuSans-51"/>
       <use x="63.623047" xlink:href="#DejaVuSans-48"/>
       <use x="127.246094" xlink:href="#DejaVuSans-48"/>
      </g>
     </g>
    </g>
    <g id="text_8">
     <!-- Generations -->
     <defs>
      <path d="M 59.515625 10.40625 
L 59.515625 29.984375 
L 43.40625 29.984375 
L 43.40625 38.09375 
L 69.28125 38.09375 
L 69.28125 6.78125 
Q 63.578125 2.734375 56.6875 0.65625 
Q 49.8125 -1.421875 42 -1.421875 
Q 24.90625 -1.421875 15.25 8.5625 
Q 5.609375 18.5625 5.609375 36.375 
Q 5.609375 54.25 15.25 64.234375 
Q 24.90625 74.21875 42 74.21875 
Q 49.125 74.21875 55.546875 72.453125 
Q 61.96875 70.703125 67.390625 67.28125 
L 67.390625 56.78125 
Q 61.921875 61.421875 55.765625 63.765625 
Q 49.609375 66.109375 42.828125 66.109375 
Q 29.4375 66.109375 22.71875 58.640625 
Q 16.015625 51.171875 16.015625 36.375 
Q 16.015625 21.625 22.71875 14.15625 
Q 29.4375 6.6875 42.828125 6.6875 
Q 48.046875 6.6875 52.140625 7.59375 
Q 56.25 8.5 59.515625 10.40625 
z
" id="DejaVuSans-71"/>
      <path d="M 56.203125 29.59375 
L 56.203125 25.203125 
L 14.890625 25.203125 
Q 15.484375 15.921875 20.484375 11.0625 
Q 25.484375 6.203125 34.421875 6.203125 
Q 39.59375 6.203125 44.453125 7.46875 
Q 49.3125 8.734375 54.109375 11.28125 
L 54.109375 2.78125 
Q 49.265625 0.734375 44.1875 -0.34375 
Q 39.109375 -1.421875 33.890625 -1.421875 
Q 20.796875 -1.421875 13.15625 6.1875 
Q 5.515625 13.8125 5.515625 26.8125 
Q 5.515625 40.234375 12.765625 48.109375 
Q 20.015625 56 32.328125 56 
Q 43.359375 56 49.78125 48.890625 
Q 56.203125 41.796875 56.203125 29.59375 
z
M 47.21875 32.234375 
Q 47.125 39.59375 43.09375 43.984375 
Q 39.0625 48.390625 32.421875 48.390625 
Q 24.90625 48.390625 20.390625 44.140625 
Q 15.875 39.890625 15.1875 32.171875 
z
" id="DejaVuSans-101"/>
      <path d="M 54.890625 33.015625 
L 54.890625 0 
L 45.90625 0 
L 45.90625 32.71875 
Q 45.90625 40.484375 42.875 44.328125 
Q 39.84375 48.1875 33.796875 48.1875 
Q 26.515625 48.1875 22.3125 43.546875 
Q 18.109375 38.921875 18.109375 30.90625 
L 18.109375 0 
L 9.078125 0 
L 9.078125 54.6875 
L 18.109375 54.6875 
L 18.109375 46.1875 
Q 21.34375 51.125 25.703125 53.5625 
Q 30.078125 56 35.796875 56 
Q 45.21875 56 50.046875 50.171875 
Q 54.890625 44.34375 54.890625 33.015625 
z
" id="DejaVuSans-110"/>
      <path d="M 41.109375 46.296875 
Q 39.59375 47.171875 37.8125 47.578125 
Q 36.03125 48 33.890625 48 
Q 26.265625 48 22.1875 43.046875 
Q 18.109375 38.09375 18.109375 28.8125 
L 18.109375 0 
L 9.078125 0 
L 9.078125 54.6875 
L 18.109375 54.6875 
L 18.109375 46.1875 
Q 20.953125 51.171875 25.484375 53.578125 
Q 30.03125 56 36.53125 56 
Q 37.453125 56 38.578125 55.875 
Q 39.703125 55.765625 41.0625 55.515625 
z
" id="DejaVuSans-114"/>
      <path d="M 34.28125 27.484375 
Q 23.390625 27.484375 19.1875 25 
Q 14.984375 22.515625 14.984375 16.5 
Q 14.984375 11.71875 18.140625 8.90625 
Q 21.296875 6.109375 26.703125 6.109375 
Q 34.1875 6.109375 38.703125 11.40625 
Q 43.21875 16.703125 43.21875 25.484375 
L 43.21875 27.484375 
z
M 52.203125 31.203125 
L 52.203125 0 
L 43.21875 0 
L 43.21875 8.296875 
Q 40.140625 3.328125 35.546875 0.953125 
Q 30.953125 -1.421875 24.3125 -1.421875 
Q 15.921875 -1.421875 10.953125 3.296875 
Q 6 8.015625 6 15.921875 
Q 6 25.140625 12.171875 29.828125 
Q 18.359375 34.515625 30.609375 34.515625 
L 43.21875 34.515625 
L 43.21875 35.40625 
Q 43.21875 41.609375 39.140625 45 
Q 35.0625 48.390625 27.6875 48.390625 
Q 23 48.390625 18.546875 47.265625 
Q 14.109375 46.140625 10.015625 43.890625 
L 10.015625 52.203125 
Q 14.9375 54.109375 19.578125 55.046875 
Q 24.21875 56 28.609375 56 
Q 40.484375 56 46.34375 49.84375 
Q 52.203125 43.703125 52.203125 31.203125 
z
" id="DejaVuSans-97"/>
      <path d="M 18.3125 70.21875 
L 18.3125 54.6875 
L 36.8125 54.6875 
L 36.8125 47.703125 
L 18.3125 47.703125 
L 18.3125 18.015625 
Q 18.3125 11.328125 20.140625 9.421875 
Q 21.96875 7.515625 27.59375 7.515625 
L 36.8125 7.515625 
L 36.8125 0 
L 27.59375 0 
Q 17.1875 0 13.234375 3.875 
Q 9.28125 7.765625 9.28125 18.015625 
L 9.28125 47.703125 
L 2.6875 47.703125 
L 2.6875 54.6875 
L 9.28125 54.6875 
L 9.28125 70.21875 
z
" id="DejaVuSans-116"/>
      <path d="M 9.421875 54.6875 
L 18.40625 54.6875 
L 18.40625 0 
L 9.421875 0 
z
M 9.421875 75.984375 
L 18.40625 75.984375 
L 18.40625 64.59375 
L 9.421875 64.59375 
z
" id="DejaVuSans-105"/>
      <path d="M 30.609375 48.390625 
Q 23.390625 48.390625 19.1875 42.75 
Q 14.984375 37.109375 14.984375 27.296875 
Q 14.984375 17.484375 19.15625 11.84375 
Q 23.34375 6.203125 30.609375 6.203125 
Q 37.796875 6.203125 41.984375 11.859375 
Q 46.1875 17.53125 46.1875 27.296875 
Q 46.1875 37.015625 41.984375 42.703125 
Q 37.796875 48.390625 30.609375 48.390625 
z
M 30.609375 56 
Q 42.328125 56 49.015625 48.375 
Q 55.71875 40.765625 55.71875 27.296875 
Q 55.71875 13.875 49.015625 6.21875 
Q 42.328125 -1.421875 30.609375 -1.421875 
Q 18.84375 -1.421875 12.171875 6.21875 
Q 5.515625 13.875 5.515625 27.296875 
Q 5.515625 40.765625 12.171875 48.375 
Q 18.84375 56 30.609375 56 
z
" id="DejaVuSans-111"/>
      <path d="M 44.28125 53.078125 
L 44.28125 44.578125 
Q 40.484375 46.53125 36.375 47.5 
Q 32.28125 48.484375 27.875 48.484375 
Q 21.1875 48.484375 17.84375 46.4375 
Q 14.5 44.390625 14.5 40.28125 
Q 14.5 37.15625 16.890625 35.375 
Q 19.28125 33.59375 26.515625 31.984375 
L 29.59375 31.296875 
Q 39.15625 29.25 43.1875 25.515625 
Q 47.21875 21.78125 47.21875 15.09375 
Q 47.21875 7.46875 41.1875 3.015625 
Q 35.15625 -1.421875 24.609375 -1.421875 
Q 20.21875 -1.421875 15.453125 -0.5625 
Q 10.6875 0.296875 5.421875 2 
L 5.421875 11.28125 
Q 10.40625 8.6875 15.234375 7.390625 
Q 20.0625 6.109375 24.8125 6.109375 
Q 31.15625 6.109375 34.5625 8.28125 
Q 37.984375 10.453125 37.984375 14.40625 
Q 37.984375 18.0625 35.515625 20.015625 
Q 33.0625 21.96875 24.703125 23.78125 
L 21.578125 24.515625 
Q 13.234375 26.265625 9.515625 29.90625 
Q 5.8125 33.546875 5.8125 39.890625 
Q 5.8125 47.609375 11.28125 51.796875 
Q 16.75 56 26.8125 56 
Q 31.78125 56 36.171875 55.265625 
Q 40.578125 54.546875 44.28125 53.078125 
z
" id="DejaVuSans-115"/>
     </defs>
     <g transform="translate(205.662344 335.860562)scale(0.1 -0.1)">
      <use xlink:href="#DejaVuSans-71"/>
      <use x="77.490234" xlink:href="#DejaVuSans-101"/>
      <use x="139.013672" xlink:href="#DejaVuSans-110"/>
      <use x="202.392578" xlink:href="#DejaVuSans-101"/>
      <use x="263.916016" xlink:href="#DejaVuSans-114"/>
      <use x="305.029297" xlink:href="#DejaVuSans-97"/>
      <use x="366.308594" xlink:href="#DejaVuSans-116"/>
      <use x="405.517578" xlink:href="#DejaVuSans-105"/>
      <use x="433.300781" xlink:href="#DejaVuSans-111"/>
      <use x="494.482422" xlink:href="#DejaVuSans-110"/>
      <use x="557.861328" xlink:href="#DejaVuSans-115"/>
     </g>
    </g>
   </g>
   <g id="matplotlib.axis_2">
    <g id="ytick_1">
     <g id="line2d_15">
      <path clip-path="url(#pc57b395248)" d="M 57.6 307.428007 
L 414.72 307.428007 
" style="fill:none;stroke:#b0b0b0;stroke-linecap:square;stroke-width:0.8;"/>
     </g>
     <g id="line2d_16">
      <defs>
       <path d="M 0 0 
L -3.5 0 
" id="m43b8168dc8" style="stroke:#000000;stroke-width:0.8;"/>
      </defs>
      <g>
       <use style="stroke:#000000;stroke-width:0.8;" x="57.6" xlink:href="#m43b8168dc8" y="307.428007"/>
      </g>
     </g>
     <g id="text_9">
      <!-- 500 -->
      <g transform="translate(31.5125 311.227226)scale(0.1 -0.1)">
       <use xlink:href="#DejaVuSans-53"/>
       <use x="63.623047" xlink:href="#DejaVuSans-48"/>
       <use x="127.246094" xlink:href="#DejaVuSans-48"/>
      </g>
     </g>
    </g>
    <g id="ytick_2">
     <g id="line2d_17">
      <path clip-path="url(#pc57b395248)" d="M 57.6 275.209574 
L 414.72 275.209574 
" style="fill:none;stroke:#b0b0b0;stroke-linecap:square;stroke-width:0.8;"/>
     </g>
     <g id="line2d_18">
      <g>
       <use style="stroke:#000000;stroke-width:0.8;" x="57.6" xlink:href="#m43b8168dc8" y="275.209574"/>
      </g>
     </g>
     <g id="text_10">
      <!-- 750 -->
      <defs>
       <path d="M 8.203125 72.90625 
L 55.078125 72.90625 
L 55.078125 68.703125 
L 28.609375 0 
L 18.3125 0 
L 43.21875 64.59375 
L 8.203125 64.59375 
z
" id="DejaVuSans-55"/>
      </defs>
      <g transform="translate(31.5125 279.008792)scale(0.1 -0.1)">
       <use xlink:href="#DejaVuSans-55"/>
       <use x="63.623047" xlink:href="#DejaVuSans-53"/>
       <use x="127.246094" xlink:href="#DejaVuSans-48"/>
      </g>
     </g>
    </g>
    <g id="ytick_3">
     <g id="line2d_19">
      <path clip-path="url(#pc57b395248)" d="M 57.6 242.99114 
L 414.72 242.99114 
" style="fill:none;stroke:#b0b0b0;stroke-linecap:square;stroke-width:0.8;"/>
     </g>
     <g id="line2d_20">
      <g>
       <use style="stroke:#000000;stroke-width:0.8;" x="57.6" xlink:href="#m43b8168dc8" y="242.99114"/>
      </g>
     </g>
     <g id="text_11">
      <!-- 1000 -->
      <g transform="translate(25.15 246.790359)scale(0.1 -0.1)">
       <use xlink:href="#DejaVuSans-49"/>
       <use x="63.623047" xlink:href="#DejaVuSans-48"/>
       <use x="127.246094" xlink:href="#DejaVuSans-48"/>
       <use x="190.869141" xlink:href="#DejaVuSans-48"/>
      </g>
     </g>
    </g>
    <g id="ytick_4">
     <g id="line2d_21">
      <path clip-path="url(#pc57b395248)" d="M 57.6 210.772706 
L 414.72 210.772706 
" style="fill:none;stroke:#b0b0b0;stroke-linecap:square;stroke-width:0.8;"/>
     </g>
     <g id="line2d_22">
      <g>
       <use style="stroke:#000000;stroke-width:0.8;" x="57.6" xlink:href="#m43b8168dc8" y="210.772706"/>
      </g>
     </g>
     <g id="text_12">
      <!-- 1250 -->
      <g transform="translate(25.15 214.571925)scale(0.1 -0.1)">
       <use xlink:href="#DejaVuSans-49"/>
       <use x="63.623047" xlink:href="#DejaVuSans-50"/>
       <use x="127.246094" xlink:href="#DejaVuSans-53"/>
       <use x="190.869141" xlink:href="#DejaVuSans-48"/>
      </g>
     </g>
    </g>
    <g id="ytick_5">
     <g id="line2d_23">
      <path clip-path="url(#pc57b395248)" d="M 57.6 178.554272 
L 414.72 178.554272 
" style="fill:none;stroke:#b0b0b0;stroke-linecap:square;stroke-width:0.8;"/>
     </g>
     <g id="line2d_24">
      <g>
       <use style="stroke:#000000;stroke-width:0.8;" x="57.6" xlink:href="#m43b8168dc8" y="178.554272"/>
      </g>
     </g>
     <g id="text_13">
      <!-- 1500 -->
      <g transform="translate(25.15 182.353491)scale(0.1 -0.1)">
       <use xlink:href="#DejaVuSans-49"/>
       <use x="63.623047" xlink:href="#DejaVuSans-53"/>
       <use x="127.246094" xlink:href="#DejaVuSans-48"/>
       <use x="190.869141" xlink:href="#DejaVuSans-48"/>
      </g>
     </g>
    </g>
    <g id="ytick_6">
     <g id="line2d_25">
      <path clip-path="url(#pc57b395248)" d="M 57.6 146.335838 
L 414.72 146.335838 
" style="fill:none;stroke:#b0b0b0;stroke-linecap:square;stroke-width:0.8;"/>
     </g>
     <g id="line2d_26">
      <g>
       <use style="stroke:#000000;stroke-width:0.8;" x="57.6" xlink:href="#m43b8168dc8" y="146.335838"/>
      </g>
     </g>
     <g id="text_14">
      <!-- 1750 -->
      <g transform="translate(25.15 150.135057)scale(0.1 -0.1)">
       <use xlink:href="#DejaVuSans-49"/>
       <use x="63.623047" xlink:href="#DejaVuSans-55"/>
       <use x="127.246094" xlink:href="#DejaVuSans-53"/>
       <use x="190.869141" xlink:href="#DejaVuSans-48"/>
      </g>
     </g>
    </g>
    <g id="ytick_7">
     <g id="line2d_27">
      <path clip-path="url(#pc57b395248)" d="M 57.6 114.117404 
L 414.72 114.117404 
" style="fill:none;stroke:#b0b0b0;stroke-linecap:square;stroke-width:0.8;"/>
     </g>
     <g id="line2d_28">
      <g>
       <use style="stroke:#000000;stroke-width:0.8;" x="57.6" xlink:href="#m43b8168dc8" y="114.117404"/>
      </g>
     </g>
     <g id="text_15">
      <!-- 2000 -->
      <g transform="translate(25.15 117.916623)scale(0.1 -0.1)">
       <use xlink:href="#DejaVuSans-50"/>
       <use x="63.623047" xlink:href="#DejaVuSans-48"/>
       <use x="127.246094" xlink:href="#DejaVuSans-48"/>
       <use x="190.869141" xlink:href="#DejaVuSans-48"/>
      </g>
     </g>
    </g>
    <g id="ytick_8">
     <g id="line2d_29">
      <path clip-path="url(#pc57b395248)" d="M 57.6 81.898971 
L 414.72 81.898971 
" style="fill:none;stroke:#b0b0b0;stroke-linecap:square;stroke-width:0.8;"/>
     </g>
     <g id="line2d_30">
      <g>
       <use style="stroke:#000000;stroke-width:0.8;" x="57.6" xlink:href="#m43b8168dc8" y="81.898971"/>
      </g>
     </g>
     <g id="text_16">
      <!-- 2250 -->
      <g transform="translate(25.15 85.698189)scale(0.1 -0.1)">
       <use xlink:href="#DejaVuSans-50"/>
       <use x="63.623047" xlink:href="#DejaVuSans-50"/>
       <use x="127.246094" xlink:href="#DejaVuSans-53"/>
       <use x="190.869141" xlink:href="#DejaVuSans-48"/>
      </g>
     </g>
    </g>
    <g id="ytick_9">
     <g id="line2d_31">
      <path clip-path="url(#pc57b395248)" d="M 57.6 49.680537 
L 414.72 49.680537 
" style="fill:none;stroke:#b0b0b0;stroke-linecap:square;stroke-width:0.8;"/>
     </g>
     <g id="line2d_32">
      <g>
       <use style="stroke:#000000;stroke-width:0.8;" x="57.6" xlink:href="#m43b8168dc8" y="49.680537"/>
      </g>
     </g>
     <g id="text_17">
      <!-- 2500 -->
      <g transform="translate(25.15 53.479756)scale(0.1 -0.1)">
       <use xlink:href="#DejaVuSans-50"/>
       <use x="63.623047" xlink:href="#DejaVuSans-53"/>
       <use x="127.246094" xlink:href="#DejaVuSans-48"/>
       <use x="190.869141" xlink:href="#DejaVuSans-48"/>
      </g>
     </g>
    </g>
    <g id="text_18">
     <!-- Fitness -->
     <defs>
      <path d="M 9.8125 72.90625 
L 51.703125 72.90625 
L 51.703125 64.59375 
L 19.671875 64.59375 
L 19.671875 43.109375 
L 48.578125 43.109375 
L 48.578125 34.8125 
L 19.671875 34.8125 
L 19.671875 0 
L 9.8125 0 
z
" id="DejaVuSans-70"/>
     </defs>
     <g transform="translate(19.070312 192.202219)rotate(-90)scale(0.1 -0.1)">
      <use xlink:href="#DejaVuSans-70"/>
      <use x="57.410156" xlink:href="#DejaVuSans-105"/>
      <use x="85.193359" xlink:href="#DejaVuSans-116"/>
      <use x="124.402344" xlink:href="#DejaVuSans-110"/>
      <use x="187.78125" xlink:href="#DejaVuSans-101"/>
      <use x="249.304688" xlink:href="#DejaVuSans-115"/>
      <use x="301.404297" xlink:href="#DejaVuSans-115"/>
     </g>
    </g>
   </g>
   <g id="line2d_33">
    <path clip-path="url(#pc57b395248)" d="M 73.832727 257.035619 
L 74.918528 234.168285 
L 76.00433 227.217571 
L 77.090131 223.40499 
L 78.175932 211.840595 
L 79.261733 197.305074 
L 80.347534 189.449376 
L 81.433335 179.649177 
L 82.519137 178.291517 
L 83.604938 197.368579 
L 84.690739 205.563997 
L 85.77654 184.938272 
L 86.862341 184.446955 
L 87.948142 200.411102 
L 89.033943 174.99145 
L 90.119745 161.399108 
L 92.291347 175.849743 
L 93.377148 179.083655 
L 95.54875 174.794227 
L 96.634552 188.999286 
L 97.720353 168.814535 
L 98.806154 158.668091 
L 99.891955 164.832917 
L 100.977756 160.921897 
L 102.063557 153.090585 
L 103.149358 161.685821 
L 104.23516 154.499651 
L 105.320961 156.551317 
L 106.406762 143.723561 
L 107.492563 144.67869 
L 108.578364 151.347464 
L 109.664165 164.247909 
L 110.749967 151.148866 
L 111.835768 153.272014 
L 112.921569 153.159136 
L 114.00737 144.739107 
L 115.093171 141.834844 
L 116.178972 143.410239 
L 117.264773 148.222663 
L 118.350575 144.429103 
L 119.436376 149.585189 
L 121.607978 139.085523 
L 122.693779 153.807381 
L 123.77958 148.722224 
L 124.865382 155.913202 
L 125.951183 140.911077 
L 127.036984 144.00094 
L 128.122785 155.817423 
L 129.208586 155.319971 
L 130.294387 146.426894 
L 131.380189 138.849974 
L 132.46599 138.676418 
L 133.551791 140.060263 
L 134.637592 144.872382 
L 135.723393 135.332972 
L 136.809194 138.065149 
L 137.894995 153.71393 
L 138.980797 134.687076 
L 140.066598 139.445525 
L 141.152399 151.309588 
L 142.2382 154.113541 
L 143.324001 150.155797 
L 144.409802 154.51052 
L 145.495604 146.763051 
L 146.581405 148.30075 
L 147.667206 153.633474 
L 148.753007 141.104027 
L 149.838808 140.542802 
L 150.924609 149.036778 
L 152.01041 150.191293 
L 153.096212 135.968232 
L 154.182013 124.845691 
L 155.267814 133.555994 
L 156.353615 123.500956 
L 157.439416 119.74974 
L 158.525217 117.140119 
L 159.611019 132.115985 
L 160.69682 123.2035 
L 161.782621 127.841719 
L 162.868422 128.738277 
L 163.954223 117.154189 
L 165.040024 137.232575 
L 166.125825 133.416419 
L 167.211627 145.352223 
L 168.297428 129.074276 
L 169.383229 129.610015 
L 170.46903 151.483261 
L 172.640632 133.861212 
L 173.726434 147.348652 
L 174.812235 138.800653 
L 175.898036 170.48897 
L 176.983837 151.263051 
L 178.069638 151.813948 
L 179.155439 152.069839 
L 180.24124 160.011954 
L 181.327042 194.733609 
L 182.412843 157.177133 
L 183.498644 167.412722 
L 184.584445 160.650218 
L 185.670246 148.980488 
L 186.756047 167.285588 
L 187.841849 152.23828 
L 188.92765 153.54741 
L 190.013451 138.591623 
L 191.099252 171.243007 
L 192.185053 171.892839 
L 193.270854 170.096274 
L 194.356656 164.190737 
L 195.442457 165.611698 
L 196.528258 142.930962 
L 197.614059 136.979771 
L 198.69986 129.855863 
L 199.785661 133.473634 
L 200.871462 135.923425 
L 201.957264 137.327489 
L 203.043065 122.816068 
L 204.128866 149.122853 
L 205.214667 140.226683 
L 206.300468 137.817525 
L 207.386269 137.228791 
L 208.472071 138.225497 
L 209.557872 138.337886 
L 210.643673 139.513476 
L 211.729474 132.023852 
L 212.815275 151.863165 
L 213.901076 136.401617 
L 214.986877 138.714832 
L 216.072679 146.733231 
L 217.15848 135.876176 
L 218.244281 139.151735 
L 219.330082 151.204676 
L 220.415883 154.972222 
L 221.501684 128.859182 
L 222.587486 143.209777 
L 223.673287 152.269628 
L 224.759088 117.810467 
L 225.844889 130.750716 
L 226.93069 137.969423 
L 228.016491 135.099336 
L 229.102292 155.558659 
L 230.188094 124.953252 
L 231.273895 143.03464 
L 232.359696 122.558389 
L 233.445497 126.62494 
L 234.531298 131.161386 
L 235.617099 131.209824 
L 236.702901 125.495367 
L 237.788702 118.663065 
L 238.874503 123.057036 
L 239.960304 134.472253 
L 241.046105 115.122104 
L 242.131906 134.932939 
L 243.217708 124.668368 
L 244.303509 125.589855 
L 245.38931 117.078342 
L 246.475111 114.166085 
L 247.560912 132.173105 
L 248.646713 118.831125 
L 249.732514 121.306711 
L 250.818316 126.654754 
L 251.904117 124.654507 
L 252.989918 141.696946 
L 254.075719 124.029427 
L 255.16152 126.432261 
L 256.247321 122.691672 
L 257.333123 137.589581 
L 258.418924 140.659505 
L 259.504725 136.497347 
L 260.590526 151.212059 
L 261.676327 136.943054 
L 262.762128 146.851631 
L 263.847929 165.43192 
L 264.933731 143.607993 
L 266.019532 141.237285 
L 267.105333 129.828987 
L 268.191134 128.68309 
L 269.276935 130.181678 
L 270.362736 151.555799 
L 271.448538 117.781404 
L 272.534339 124.06488 
L 273.62014 137.02739 
L 274.705941 145.494783 
L 275.791742 126.99898 
L 276.877543 141.549838 
L 277.963344 151.815785 
L 279.049146 160.568409 
L 280.134947 139.735231 
L 281.220748 134.373195 
L 282.306549 154.489098 
L 283.39235 147.03611 
L 284.478151 123.05696 
L 285.563953 127.779792 
L 286.649754 126.128326 
L 287.735555 117.390511 
L 288.821356 124.469661 
L 289.907157 127.631806 
L 290.992958 125.425219 
L 292.07876 132.131784 
L 293.164561 125.254834 
L 294.250362 126.621591 
L 295.336163 134.741883 
L 296.421964 115.715043 
L 297.507765 138.386755 
L 298.593566 131.858808 
L 299.679368 120.800271 
L 300.765169 127.95952 
L 301.85097 138.094842 
L 302.936771 129.831531 
L 304.022572 147.253441 
L 305.108373 126.968921 
L 306.194175 149.122505 
L 307.279976 131.71615 
L 308.365777 127.002893 
L 309.451578 128.348497 
L 310.537379 123.009975 
L 311.62318 134.822105 
L 312.708981 124.939556 
L 313.794783 132.531624 
L 314.880584 136.517112 
L 315.966385 136.862523 
L 317.052186 121.857603 
L 318.137987 127.983383 
L 319.223788 120.051935 
L 320.30959 115.050501 
L 321.395391 136.587381 
L 322.481192 142.291838 
L 323.566993 123.405914 
L 324.652794 139.085257 
L 325.738595 140.288145 
L 326.824396 123.490003 
L 327.910198 119.171099 
L 328.995999 121.125207 
L 330.0818 117.527126 
L 331.167601 117.418632 
L 332.253402 114.653232 
L 333.339203 126.939589 
L 334.425005 129.247254 
L 335.510806 139.711846 
L 336.596607 113.178707 
L 337.682408 108.435477 
L 338.768209 96.763555 
L 339.85401 127.17927 
L 340.939811 100.535366 
L 342.025613 123.707592 
L 343.111414 127.749308 
L 344.197215 117.727522 
L 345.283016 119.287722 
L 346.368817 131.289529 
L 347.454618 113.726657 
L 348.54042 105.058311 
L 349.626221 115.14495 
L 350.712022 107.943582 
L 351.797823 128.118022 
L 352.883624 115.767903 
L 353.969425 112.952986 
L 355.055227 121.25288 
L 356.141028 121.854935 
L 357.226829 120.245435 
L 358.31263 102.715121 
L 359.398431 142.328515 
L 360.484232 105.089678 
L 361.570033 122.305078 
L 362.655835 115.327659 
L 363.741636 109.535898 
L 364.827437 106.424771 
L 365.913238 98.286552 
L 366.999039 111.324499 
L 368.08484 99.108291 
L 369.170642 106.757451 
L 370.256443 103.764272 
L 371.342244 97.767167 
L 372.428045 123.695653 
L 373.513846 111.580547 
L 374.599647 118.190338 
L 375.685448 122.833885 
L 376.77125 120.737879 
L 377.857051 106.75055 
L 378.942852 121.067892 
L 380.028653 106.010709 
L 381.114454 109.367239 
L 382.200255 116.064177 
L 383.286057 123.94875 
L 384.371858 117.297246 
L 385.457659 130.818609 
L 386.54346 114.191318 
L 387.629261 114.127511 
L 388.715062 134.182804 
L 389.800863 116.494192 
L 390.886665 124.838436 
L 391.972466 143.729434 
L 393.058267 127.517564 
L 394.144068 140.81755 
L 395.229869 131.224863 
L 396.31567 141.020383 
L 397.401472 148.484594 
L 398.487273 142.594128 
L 398.487273 142.594128 
" style="fill:none;stroke:#0000ff;stroke-linecap:square;stroke-width:1.5;"/>
   </g>
   <g id="line2d_34">
    <path clip-path="url(#pc57b395248)" d="M 73.832727 295.488 
L 74.918528 270.15241 
L 76.00433 258.959089 
L 77.090131 256.27858 
L 78.175932 230.327214 
L 79.261733 233.937735 
L 80.347534 206.153032 
L 81.433335 194.524105 
L 82.519137 193.817261 
L 83.604938 236.68646 
L 84.690739 248.456624 
L 85.77654 217.658161 
L 86.862341 229.718887 
L 87.948142 256.118292 
L 89.033943 213.989791 
L 90.119745 194.21146 
L 91.205546 199.91567 
L 92.291347 231.036582 
L 93.377148 243.870318 
L 94.462949 215.727891 
L 95.54875 205.466225 
L 96.634552 246.071162 
L 97.720353 213.62171 
L 98.806154 185.221739 
L 99.891955 220.579015 
L 100.977756 200.443695 
L 102.063557 187.770407 
L 103.149358 207.60042 
L 104.23516 201.265839 
L 105.320961 205.391381 
L 106.406762 167.749747 
L 107.492563 176.999442 
L 108.578364 197.86081 
L 109.664165 222.911136 
L 110.749967 185.159302 
L 111.835768 176.551808 
L 112.921569 190.761895 
L 114.00737 178.809624 
L 115.093171 164.356657 
L 116.178972 179.275 
L 117.264773 181.639222 
L 118.350575 157.744596 
L 119.436376 178.268235 
L 120.522177 185.995146 
L 121.607978 175.717982 
L 122.693779 200.6652 
L 123.77958 183.428672 
L 124.865382 202.439065 
L 125.951183 167.813917 
L 127.036984 161.891135 
L 128.122785 193.098103 
L 129.208586 197.147612 
L 130.294387 179.175022 
L 131.380189 153.988725 
L 132.46599 150.31413 
L 133.551791 164.475652 
L 134.637592 175.230078 
L 135.723393 150.892593 
L 136.809194 155.777312 
L 137.894995 191.662884 
L 138.980797 150.164472 
L 140.066598 165.467531 
L 141.152399 192.42449 
L 142.2382 182.322036 
L 143.324001 179.017428 
L 144.409802 184.409578 
L 145.495604 174.420234 
L 146.581405 188.636987 
L 147.667206 196.041295 
L 148.753007 172.210048 
L 149.838808 167.589626 
L 150.924609 164.192322 
L 152.01041 179.713807 
L 153.096212 169.440214 
L 154.182013 152.033366 
L 155.267814 178.46521 
L 156.353615 144.235171 
L 157.439416 136.411847 
L 158.525217 148.524298 
L 159.611019 179.809746 
L 160.69682 148.842683 
L 161.782621 173.039323 
L 162.868422 159.537716 
L 163.954223 149.410226 
L 165.040024 190.86798 
L 166.125825 162.090222 
L 167.211627 194.936649 
L 168.297428 167.454486 
L 169.383229 169.45315 
L 170.46903 213.296257 
L 171.554831 203.519993 
L 172.640632 182.545724 
L 173.726434 205.009448 
L 174.812235 192.9194 
L 175.898036 246.853573 
L 176.983837 200.382313 
L 178.069638 200.64695 
L 179.155439 208.884569 
L 180.24124 226.118803 
L 181.327042 276.778669 
L 182.412843 215.928325 
L 183.498644 223.879073 
L 184.584445 202.096346 
L 185.670246 211.619405 
L 186.756047 237.60524 
L 187.841849 213.478572 
L 188.92765 200.463877 
L 190.013451 173.361336 
L 191.099252 218.981964 
L 192.185053 238.872754 
L 193.270854 238.406995 
L 194.356656 220.824512 
L 195.442457 233.343662 
L 196.528258 190.366001 
L 197.614059 172.644007 
L 198.69986 161.20922 
L 200.871462 168.731685 
L 201.957264 192.453437 
L 203.043065 156.064874 
L 204.128866 188.002835 
L 205.214667 184.019334 
L 206.300468 183.756136 
L 207.386269 197.821013 
L 208.472071 169.774456 
L 209.557872 167.720664 
L 210.643673 179.684872 
L 211.729474 170.505646 
L 212.815275 210.157679 
L 213.901076 182.309088 
L 214.986877 186.16797 
L 216.072679 208.425603 
L 217.15848 199.155468 
L 218.244281 202.623696 
L 219.330082 211.824165 
L 220.415883 212.631019 
L 221.501684 176.9468 
L 222.587486 205.321639 
L 223.673287 226.297646 
L 224.759088 153.589464 
L 226.93069 189.536716 
L 228.016491 184.339254 
L 229.102292 227.878117 
L 230.188094 149.697324 
L 231.273895 200.160451 
L 232.359696 140.401292 
L 233.445497 167.162362 
L 234.531298 177.159234 
L 235.617099 170.938024 
L 236.702901 167.515702 
L 237.788702 145.043052 
L 238.874503 173.022427 
L 239.960304 184.047909 
L 241.046105 149.460932 
L 242.131906 183.72201 
L 243.217708 145.520562 
L 244.303509 161.922751 
L 245.38931 139.543536 
L 246.475111 148.609325 
L 247.560912 173.028843 
L 248.646713 149.748387 
L 249.732514 144.245145 
L 250.818316 147.209221 
L 251.904117 160.113487 
L 252.989918 179.425742 
L 254.075719 147.043041 
L 255.16152 145.139655 
L 256.247321 137.982384 
L 257.333123 168.490873 
L 258.418924 173.815174 
L 259.504725 155.930526 
L 260.590526 194.493448 
L 261.676327 160.935348 
L 262.762128 175.658614 
L 263.847929 206.578502 
L 264.933731 173.454557 
L 266.019532 172.491097 
L 267.105333 150.041417 
L 268.191134 149.352176 
L 269.276935 168.823322 
L 270.362736 190.717618 
L 271.448538 150.092521 
L 272.534339 156.068625 
L 273.62014 172.441206 
L 274.705941 196.471497 
L 275.791742 145.561727 
L 276.877543 187.252177 
L 277.963344 195.927935 
L 279.049146 199.558931 
L 280.134947 170.807698 
L 281.220748 158.043866 
L 282.306549 196.430769 
L 283.39235 180.746108 
L 284.478151 143.729522 
L 285.563953 160.693382 
L 286.649754 170.529811 
L 287.735555 140.359679 
L 288.821356 174.832147 
L 289.907157 159.275849 
L 290.992958 168.52991 
L 292.07876 189.290487 
L 293.164561 175.469611 
L 294.250362 177.586495 
L 295.336163 194.063476 
L 296.421964 131.67436 
L 297.507765 201.660361 
L 298.593566 184.567611 
L 299.679368 153.697906 
L 300.765169 170.984371 
L 301.85097 193.475814 
L 302.936771 167.542943 
L 304.022572 224.18366 
L 305.108373 174.809725 
L 306.194175 219.951948 
L 307.279976 173.673294 
L 308.365777 163.551474 
L 309.451578 160.561178 
L 310.537379 181.235878 
L 311.62318 196.487364 
L 312.708981 181.841015 
L 313.794783 180.276044 
L 314.880584 206.840118 
L 315.966385 205.133513 
L 317.052186 181.798469 
L 318.137987 191.7622 
L 319.223788 162.236989 
L 320.30959 152.048749 
L 321.395391 196.913272 
L 322.481192 212.320064 
L 323.566993 174.78639 
L 324.652794 209.839858 
L 325.738595 216.9057 
L 326.824396 181.892231 
L 327.910198 171.756041 
L 328.995999 171.230629 
L 330.0818 151.882789 
L 331.167601 163.428278 
L 332.253402 168.019902 
L 333.339203 180.562109 
L 334.425005 184.195107 
L 335.510806 209.841123 
L 336.596607 165.162076 
L 337.682408 163.302955 
L 338.768209 115.989596 
L 339.85401 196.287305 
L 340.939811 120.992059 
L 342.025613 187.446191 
L 343.111414 185.962112 
L 344.197215 137.561807 
L 345.283016 171.454619 
L 346.368817 187.173774 
L 347.454618 173.458032 
L 348.54042 129.401024 
L 349.626221 157.501022 
L 350.712022 125.057204 
L 351.797823 171.742948 
L 352.883624 160.446353 
L 353.969425 161.909612 
L 355.055227 178.206322 
L 356.141028 172.629631 
L 357.226829 164.483285 
L 358.31263 138.304672 
L 359.398431 221.056027 
L 360.484232 150.850576 
L 361.570033 176.482126 
L 362.655835 138.910415 
L 363.741636 137.380165 
L 364.827437 140.906071 
L 365.913238 134.180078 
L 366.999039 159.352431 
L 368.08484 135.233906 
L 369.170642 140.391774 
L 370.256443 126.893621 
L 371.342244 133.80482 
L 372.428045 175.196505 
L 373.513846 147.003675 
L 374.599647 163.028814 
L 375.685448 163.440421 
L 376.77125 167.799737 
L 377.857051 127.37039 
L 378.942852 164.706058 
L 380.028653 145.007923 
L 381.114454 145.918228 
L 382.200255 177.093117 
L 383.286057 193.633425 
L 384.371858 169.784102 
L 385.457659 187.640252 
L 386.54346 151.567659 
L 387.629261 159.307787 
L 388.715062 189.176071 
L 389.800863 160.263202 
L 390.886665 175.221647 
L 391.972466 210.071813 
L 393.058267 165.867528 
L 394.144068 203.080485 
L 395.229869 189.683874 
L 396.31567 201.799955 
L 398.487273 189.189212 
L 398.487273 189.189212 
" style="fill:none;stroke:#008000;stroke-dasharray:9.6,2.4,1.5,2.4;stroke-dashoffset:0;stroke-width:1.5;"/>
   </g>
   <g id="line2d_35">
    <path clip-path="url(#pc57b395248)" d="M 73.832727 218.583238 
L 74.918528 198.184159 
L 76.00433 195.476052 
L 77.090131 190.531399 
L 78.175932 193.353976 
L 79.261733 160.672414 
L 80.347534 172.74572 
L 81.433335 164.774249 
L 82.519137 162.765773 
L 83.604938 158.050697 
L 84.690739 162.67137 
L 85.77654 152.218383 
L 86.862341 139.175024 
L 87.948142 144.703912 
L 89.033943 135.993109 
L 90.119745 128.586756 
L 91.205546 136.913553 
L 92.291347 120.662903 
L 93.377148 114.296992 
L 94.462949 138.077418 
L 95.54875 144.12223 
L 96.634552 131.92741 
L 97.720353 124.007361 
L 98.806154 132.114444 
L 99.891955 109.086819 
L 100.977756 121.400099 
L 102.063557 118.410764 
L 103.149358 115.771222 
L 104.23516 107.733463 
L 105.320961 107.711254 
L 106.406762 119.697375 
L 108.578364 104.834118 
L 109.664165 105.584682 
L 110.749967 117.13843 
L 111.835768 129.99222 
L 112.921569 115.556377 
L 114.00737 110.66859 
L 115.093171 119.313031 
L 116.178972 107.545477 
L 117.264773 114.806104 
L 118.350575 131.11361 
L 119.436376 120.902142 
L 120.522177 102.395821 
L 121.607978 102.453064 
L 122.693779 106.949562 
L 123.77958 114.015775 
L 124.865382 109.387338 
L 125.951183 114.008237 
L 127.036984 126.110745 
L 128.122785 118.536742 
L 129.208586 113.49233 
L 130.294387 113.678767 
L 131.380189 123.711222 
L 132.46599 127.038706 
L 133.551791 115.644873 
L 134.637592 114.514686 
L 135.723393 119.77335 
L 136.809194 120.352987 
L 137.894995 115.764975 
L 138.980797 119.20968 
L 140.066598 113.423519 
L 141.152399 110.194687 
L 142.2382 125.905045 
L 143.324001 121.294166 
L 144.409802 124.611463 
L 145.495604 119.105868 
L 146.581405 107.964513 
L 147.667206 111.225652 
L 148.753007 109.998007 
L 149.838808 113.495978 
L 150.924609 133.881233 
L 152.01041 120.66878 
L 153.096212 102.49625 
L 154.182013 97.658016 
L 155.267814 88.646778 
L 156.353615 102.76674 
L 157.439416 103.087633 
L 158.525217 85.755939 
L 159.611019 84.422224 
L 160.69682 97.564317 
L 161.782621 82.644115 
L 162.868422 97.938838 
L 163.954223 84.898152 
L 165.040024 83.597171 
L 166.125825 104.742615 
L 167.211627 95.767797 
L 168.297428 90.694066 
L 169.383229 89.76688 
L 170.46903 89.670265 
L 171.554831 81.416824 
L 172.640632 85.1767 
L 173.726434 89.687856 
L 174.812235 84.681905 
L 175.898036 94.124368 
L 176.983837 102.143789 
L 178.069638 102.980946 
L 179.155439 95.255109 
L 180.24124 93.905105 
L 181.327042 112.688548 
L 182.412843 98.425941 
L 183.498644 110.94637 
L 184.584445 119.20409 
L 185.670246 86.341571 
L 186.756047 96.965936 
L 187.841849 90.997987 
L 188.92765 106.630943 
L 190.013451 103.82191 
L 191.099252 123.504049 
L 192.185053 104.912923 
L 193.270854 101.785553 
L 194.356656 107.556962 
L 195.442457 97.879734 
L 196.528258 95.495922 
L 197.614059 101.315535 
L 198.69986 98.502507 
L 199.785661 102.071002 
L 200.871462 103.115165 
L 201.957264 82.201541 
L 203.043065 89.567263 
L 204.128866 110.242871 
L 205.214667 96.434032 
L 206.300468 91.878914 
L 207.386269 76.636569 
L 208.472071 106.676538 
L 209.557872 108.955107 
L 210.643673 99.34208 
L 211.729474 93.542058 
L 212.815275 93.568651 
L 213.901076 90.494145 
L 214.986877 91.261694 
L 216.072679 85.04086 
L 217.15848 72.596884 
L 218.244281 75.679775 
L 219.330082 90.585186 
L 220.415883 97.313426 
L 221.501684 80.771563 
L 222.587486 81.097914 
L 223.673287 78.24161 
L 224.759088 82.031469 
L 225.844889 90.610832 
L 226.93069 86.402131 
L 228.016491 85.859417 
L 229.102292 83.239201 
L 230.188094 100.20918 
L 231.273895 85.90883 
L 232.359696 104.715486 
L 233.445497 86.087517 
L 234.531298 85.163538 
L 235.617099 91.481625 
L 236.702901 83.475033 
L 237.788702 92.283079 
L 238.874503 73.091645 
L 239.960304 84.896597 
L 241.046105 80.783276 
L 242.131906 86.143868 
L 243.217708 103.816174 
L 244.303509 89.256959 
L 245.38931 94.613147 
L 246.475111 79.722845 
L 247.560912 91.317366 
L 248.646713 87.913863 
L 249.732514 98.368278 
L 250.818316 106.100287 
L 251.904117 89.195527 
L 252.989918 103.96815 
L 254.075719 101.015813 
L 255.16152 107.724866 
L 256.247321 107.400961 
L 257.333123 106.688288 
L 258.418924 107.503835 
L 259.504725 117.064168 
L 260.590526 107.93067 
L 262.762128 118.044649 
L 263.847929 124.285339 
L 264.933731 113.76143 
L 266.019532 109.983474 
L 267.105333 109.616558 
L 268.191134 108.014004 
L 269.276935 91.540035 
L 270.362736 112.39398 
L 271.448538 85.470288 
L 272.534339 92.061136 
L 273.62014 101.613574 
L 274.705941 94.518069 
L 275.791742 108.436233 
L 276.877543 95.847498 
L 277.963344 107.703635 
L 279.049146 121.577886 
L 280.134947 108.662764 
L 282.306549 112.547427 
L 283.39235 113.326112 
L 284.478151 102.384399 
L 285.563953 94.866202 
L 286.649754 81.726841 
L 287.735555 94.421343 
L 288.821356 74.107175 
L 289.907157 95.987762 
L 290.992958 82.320527 
L 292.07876 74.973081 
L 293.164561 75.040056 
L 294.250362 75.656688 
L 295.336163 75.42029 
L 296.421964 99.755725 
L 297.507765 75.11315 
L 298.593566 79.150005 
L 299.679368 87.902637 
L 300.765169 84.93467 
L 301.85097 82.71387 
L 302.936771 92.120118 
L 304.022572 70.323222 
L 305.108373 79.128118 
L 306.194175 78.293062 
L 307.279976 89.759005 
L 308.365777 90.454312 
L 309.451578 96.135817 
L 310.537379 64.784072 
L 311.62318 73.156846 
L 312.708981 68.038097 
L 313.794783 84.787203 
L 314.880584 66.194107 
L 315.966385 68.591534 
L 317.052186 61.916738 
L 318.137987 64.204566 
L 319.223788 77.866882 
L 320.30959 78.052252 
L 321.395391 76.26149 
L 322.481192 72.263613 
L 323.566993 72.025439 
L 324.652794 68.330657 
L 325.738595 63.670591 
L 327.910198 66.586157 
L 328.995999 71.019785 
L 330.0818 83.171463 
L 331.167601 71.408986 
L 332.253402 61.286562 
L 333.339203 73.31707 
L 334.425005 74.2994 
L 335.510806 69.582569 
L 337.682408 53.568 
L 338.768209 77.537514 
L 339.85401 58.071236 
L 340.939811 80.078673 
L 342.025613 59.968994 
L 343.111414 69.536503 
L 344.197215 97.893237 
L 345.283016 67.120824 
L 346.368817 75.405284 
L 347.454618 53.995281 
L 348.54042 80.715599 
L 349.626221 72.788878 
L 350.712022 90.829959 
L 351.797823 84.493096 
L 352.883624 71.089454 
L 353.969425 63.99636 
L 355.055227 64.299438 
L 356.141028 71.080239 
L 357.226829 76.007585 
L 358.31263 67.125571 
L 359.398431 63.601002 
L 360.484232 59.328781 
L 361.570033 68.128031 
L 362.655835 91.744903 
L 365.913238 62.393027 
L 366.999039 63.296567 
L 368.08484 62.982676 
L 369.170642 73.123129 
L 370.256443 80.634923 
L 371.342244 61.729513 
L 372.428045 72.194801 
L 373.513846 76.157419 
L 374.599647 73.351862 
L 375.685448 82.227349 
L 376.77125 73.676021 
L 377.857051 86.130711 
L 378.942852 77.429725 
L 380.028653 67.013495 
L 381.114454 72.816251 
L 382.200255 55.035237 
L 383.286057 54.264076 
L 384.371858 64.81039 
L 385.457659 73.996966 
L 386.54346 76.814978 
L 387.629261 68.947236 
L 388.715062 79.189537 
L 389.800863 72.725182 
L 390.886665 74.455225 
L 391.972466 77.387055 
L 393.058267 89.1676 
L 394.144068 78.554615 
L 395.229869 72.765853 
L 396.31567 80.24081 
L 397.401472 101.655806 
L 398.487273 95.999045 
L 398.487273 95.999045 
" style="fill:none;stroke:#008000;stroke-dasharray:9.6,2.4,1.5,2.4;stroke-dashoffset:0;stroke-width:1.5;"/>
   </g>
   <g id="line2d_36">
    <path clip-path="url(#pc57b395248)" d="M 73.832727 208.460511 
L 74.918528 204.965446 
L 76.00433 203.418629 
L 77.090131 196.885547 
L 78.175932 186.340498 
L 79.261733 166.1068 
L 80.347534 172.215288 
L 82.519137 157.037014 
L 83.604938 161.799407 
L 84.690739 158.754123 
L 85.77654 158.19371 
L 86.862341 148.563961 
L 87.948142 152.102403 
L 89.033943 142.287508 
L 90.119745 136.546091 
L 91.205546 141.110632 
L 92.291347 131.7 
L 93.377148 132.896481 
L 94.462949 147.860254 
L 95.54875 151.698991 
L 96.634552 134.208036 
L 97.720353 133.445659 
L 98.806154 130.674003 
L 99.891955 124.258016 
L 100.977756 130.428999 
L 102.063557 130.521743 
L 103.149358 123.775718 
L 104.23516 124.609797 
L 105.320961 125.967314 
L 106.406762 125.998969 
L 107.492563 124.945104 
L 108.578364 122.999187 
L 109.664165 121.84066 
L 110.749967 126.730961 
L 111.835768 122.696797 
L 112.921569 120.356236 
L 114.00737 124.406423 
L 116.178972 120.881212 
L 117.264773 124.911526 
L 118.350575 131.605772 
L 119.436376 128.053291 
L 120.522177 118.341834 
L 121.607978 121.544854 
L 123.77958 125.493711 
L 124.865382 126.801295 
L 125.951183 117.123555 
L 127.036984 124.16361 
L 128.122785 129.729115 
L 129.208586 125.37927 
L 130.294387 122.357915 
L 131.380189 122.335757 
L 132.46599 126.22504 
L 133.551791 123.858017 
L 134.637592 120.002712 
L 135.723393 122.08007 
L 136.809194 122.93344 
L 137.894995 130.515775 
L 138.980797 117.238159 
L 140.066598 121.470626 
L 141.152399 124.394768 
L 142.2382 129.382911 
L 143.324001 127.305823 
L 144.409802 130.735406 
L 145.495604 126.480701 
L 146.581405 125.576631 
L 147.667206 133.54188 
L 148.753007 122.198319 
L 149.838808 119.730561 
L 152.01041 125.051124 
L 153.096212 110.501003 
L 154.182013 101.992137 
L 155.267814 99.097836 
L 156.353615 102.307952 
L 157.439416 98.870488 
L 158.525217 93.054366 
L 159.611019 102.12368 
L 161.782621 97.302269 
L 162.868422 105.770504 
L 163.954223 91.438125 
L 165.040024 101.550526 
L 166.125825 108.991513 
L 167.211627 106.254594 
L 168.297428 100.114328 
L 169.383229 99.885373 
L 170.46903 98.954736 
L 171.554831 100.030658 
L 172.640632 93.307245 
L 173.726434 102.438051 
L 174.812235 102.432156 
L 175.898036 104.047978 
L 176.983837 108.578718 
L 178.069638 114.319873 
L 179.155439 106.620678 
L 180.24124 110.879742 
L 181.327042 117.664749 
L 182.412843 111.664933 
L 183.498644 118.799183 
L 184.584445 131.180004 
L 185.670246 99.650755 
L 186.756047 118.786685 
L 187.841849 110.695774 
L 188.92765 120.703285 
L 190.013451 112.258874 
L 191.099252 130.69916 
L 192.185053 123.917388 
L 193.270854 111.629557 
L 194.356656 120.12016 
L 195.442457 109.305493 
L 196.528258 106.150221 
L 197.614059 107.381571 
L 198.69986 104.75713 
L 199.785661 106.775405 
L 200.871462 114.206854 
L 201.957264 100.627636 
L 203.043065 98.503835 
L 204.128866 124.013017 
L 205.214667 106.414638 
L 206.300468 108.44624 
L 207.386269 102.663577 
L 208.472071 111.602406 
L 209.557872 111.420551 
L 210.643673 110.210666 
L 211.729474 106.528837 
L 212.815275 110.059424 
L 213.901076 103.122793 
L 214.986877 104.864753 
L 216.072679 108.583722 
L 217.15848 95.226774 
L 219.330082 108.653361 
L 220.415883 119.11502 
L 221.501684 101.619184 
L 222.587486 101.078064 
L 223.673287 98.735147 
L 224.759088 95.878128 
L 225.844889 105.264467 
L 226.93069 98.687059 
L 229.102292 102.472836 
L 230.188094 103.67862 
L 231.273895 105.200437 
L 232.359696 103.564829 
L 233.445497 100.738128 
L 234.531298 99.389637 
L 235.617099 103.245498 
L 236.702901 97.433782 
L 237.788702 94.672691 
L 238.874503 93.319114 
L 239.960304 96.241524 
L 241.046105 91.435052 
L 242.131906 105.691839 
L 243.217708 99.97201 
L 244.303509 98.210969 
L 245.38931 98.088488 
L 246.475111 91.382561 
L 247.560912 103.892073 
L 248.646713 100.577102 
L 249.732514 99.371915 
L 250.818316 107.069215 
L 251.904117 98.883769 
L 252.989918 116.634238 
L 254.075719 106.050761 
L 255.16152 111.367643 
L 256.247321 106.084654 
L 257.333123 108.835837 
L 258.418924 110.727222 
L 259.504725 116.474281 
L 260.590526 119.493321 
L 261.676327 109.142194 
L 262.762128 123.179466 
L 263.847929 119.646265 
L 264.933731 111.992635 
L 266.019532 105.494955 
L 267.105333 97.51614 
L 268.191134 100.116301 
L 269.276935 108.364416 
L 270.362736 117.968098 
L 271.448538 95.487742 
L 273.62014 111.191758 
L 274.705941 102.837378 
L 275.791742 105.050761 
L 276.877543 108.483625 
L 279.049146 123.939051 
L 280.134947 107.923596 
L 281.220748 111.834155 
L 282.306549 118.311681 
L 283.39235 113.311384 
L 284.478151 95.423576 
L 285.563953 96.385228 
L 286.649754 96.33015 
L 287.735555 89.905314 
L 288.821356 91.796865 
L 289.907157 98.32613 
L 290.992958 88.358543 
L 292.07876 85.329375 
L 293.164561 88.210099 
L 294.250362 88.769756 
L 295.336163 96.625492 
L 296.421964 92.004492 
L 297.507765 93.626593 
L 298.593566 90.600299 
L 299.679368 93.382248 
L 300.765169 91.113572 
L 301.85097 96.701217 
L 302.936771 99.350222 
L 304.022572 91.06986 
L 305.108373 91.028008 
L 306.194175 95.094482 
L 307.279976 96.504464 
L 308.365777 86.15924 
L 309.451578 99.444829 
L 310.537379 77.181929 
L 311.62318 84.179734 
L 312.708981 80.053792 
L 313.794783 94.802756 
L 314.880584 85.002933 
L 315.966385 84.389215 
L 317.052186 76.318077 
L 318.137987 78.109882 
L 319.223788 87.621954 
L 320.30959 84.632502 
L 321.395391 92.790544 
L 322.481192 87.201679 
L 323.566993 84.711216 
L 324.652794 81.537039 
L 325.738595 83.898434 
L 326.824396 80.393149 
L 327.910198 78.847125 
L 328.995999 82.717205 
L 330.0818 78.765368 
L 331.167601 83.459888 
L 332.253402 78.412492 
L 333.339203 82.199213 
L 334.425005 91.715922 
L 335.510806 91.152054 
L 337.682408 73.490693 
L 338.768209 71.653583 
L 339.85401 79.072745 
L 340.939811 77.446443 
L 342.025613 79.13308 
L 343.111414 85.324127 
L 344.197215 94.15967 
L 345.283016 80.71184 
L 346.368817 91.732454 
L 347.454618 74.580065 
L 348.54042 79.26797 
L 349.626221 87.423711 
L 350.712022 90.462924 
L 351.797823 89.240353 
L 352.883624 82.876863 
L 353.969425 81.231194 
L 355.055227 84.373969 
L 356.141028 81.542163 
L 357.226829 87.477125 
L 358.31263 74.780232 
L 359.398431 83.329359 
L 360.484232 78.142921 
L 361.570033 81.97739 
L 362.655835 91.562771 
L 364.827437 80.349216 
L 365.913238 70.556759 
L 366.999039 73.651907 
L 368.08484 73.516707 
L 369.170642 78.601248 
L 370.256443 78.678737 
L 371.342244 73.4039 
L 372.428045 86.838423 
L 373.513846 82.888979 
L 374.599647 82.246802 
L 375.685448 91.847088 
L 376.77125 82.288698 
L 377.857051 80.406785 
L 378.942852 88.74043 
L 380.028653 72.46886 
L 381.114454 82.949094 
L 382.200255 75.845838 
L 383.286057 75.04779 
L 384.371858 80.460616 
L 385.457659 83.95611 
L 386.54346 84.315279 
L 387.629261 79.991497 
L 388.715062 93.588073 
L 389.800863 81.846326 
L 390.886665 81.436258 
L 391.972466 81.263788 
L 393.058267 86.353356 
L 394.144068 90.70248 
L 395.229869 78.660844 
L 396.31567 81.115886 
L 397.401472 101.042753 
L 398.487273 103.088347 
L 398.487273 103.088347 
" style="fill:none;stroke:#ff0000;stroke-linecap:square;stroke-width:1.5;"/>
   </g>
   <g id="patch_3">
    <path d="M 57.6 307.584 
L 57.6 41.472 
" style="fill:none;stroke:#000000;stroke-linecap:square;stroke-linejoin:miter;stroke-width:0.8;"/>
   </g>
   <g id="patch_4">
    <path d="M 414.72 307.584 
L 414.72 41.472 
" style="fill:none;stroke:#000000;stroke-linecap:square;stroke-linejoin:miter;stroke-width:0.8;"/>
   </g>
   <g id="patch_5">
    <path d="M 57.6 307.584 
L 414.72 307.584 
" style="fill:none;stroke:#000000;stroke-linecap:square;stroke-linejoin:miter;stroke-width:0.8;"/>
   </g>
   <g id="patch_6">
    <path d="M 57.6 41.472 
L 414.72 41.472 
" style="fill:none;stroke:#000000;stroke-linecap:square;stroke-linejoin:miter;stroke-width:0.8;"/>
   </g>
   <g id="text_19">
    <!-- Population's average and best fitness -->
    <defs>
     <path d="M 19.671875 64.796875 
L 19.671875 37.40625 
L 32.078125 37.40625 
Q 38.96875 37.40625 42.71875 40.96875 
Q 46.484375 44.53125 46.484375 51.125 
Q 46.484375 57.671875 42.71875 61.234375 
Q 38.96875 64.796875 32.078125 64.796875 
z
M 9.8125 72.90625 
L 32.078125 72.90625 
Q 44.34375 72.90625 50.609375 67.359375 
Q 56.890625 61.8125 56.890625 51.125 
Q 56.890625 40.328125 50.609375 34.8125 
Q 44.34375 29.296875 32.078125 29.296875 
L 19.671875 29.296875 
L 19.671875 0 
L 9.8125 0 
z
" id="DejaVuSans-80"/>
     <path d="M 18.109375 8.203125 
L 18.109375 -20.796875 
L 9.078125 -20.796875 
L 9.078125 54.6875 
L 18.109375 54.6875 
L 18.109375 46.390625 
Q 20.953125 51.265625 25.265625 53.625 
Q 29.59375 56 35.59375 56 
Q 45.5625 56 51.78125 48.09375 
Q 58.015625 40.1875 58.015625 27.296875 
Q 58.015625 14.40625 51.78125 6.484375 
Q 45.5625 -1.421875 35.59375 -1.421875 
Q 29.59375 -1.421875 25.265625 0.953125 
Q 20.953125 3.328125 18.109375 8.203125 
z
M 48.6875 27.296875 
Q 48.6875 37.203125 44.609375 42.84375 
Q 40.53125 48.484375 33.40625 48.484375 
Q 26.265625 48.484375 22.1875 42.84375 
Q 18.109375 37.203125 18.109375 27.296875 
Q 18.109375 17.390625 22.1875 11.75 
Q 26.265625 6.109375 33.40625 6.109375 
Q 40.53125 6.109375 44.609375 11.75 
Q 48.6875 17.390625 48.6875 27.296875 
z
" id="DejaVuSans-112"/>
     <path d="M 8.5 21.578125 
L 8.5 54.6875 
L 17.484375 54.6875 
L 17.484375 21.921875 
Q 17.484375 14.15625 20.5 10.265625 
Q 23.53125 6.390625 29.59375 6.390625 
Q 36.859375 6.390625 41.078125 11.03125 
Q 45.3125 15.671875 45.3125 23.6875 
L 45.3125 54.6875 
L 54.296875 54.6875 
L 54.296875 0 
L 45.3125 0 
L 45.3125 8.40625 
Q 42.046875 3.421875 37.71875 1 
Q 33.40625 -1.421875 27.6875 -1.421875 
Q 18.265625 -1.421875 13.375 4.4375 
Q 8.5 10.296875 8.5 21.578125 
z
M 31.109375 56 
z
" id="DejaVuSans-117"/>
     <path d="M 9.421875 75.984375 
L 18.40625 75.984375 
L 18.40625 0 
L 9.421875 0 
z
" id="DejaVuSans-108"/>
     <path d="M 17.921875 72.90625 
L 17.921875 45.796875 
L 9.625 45.796875 
L 9.625 72.90625 
z
" id="DejaVuSans-39"/>
     <path id="DejaVuSans-32"/>
     <path d="M 2.984375 54.6875 
L 12.5 54.6875 
L 29.59375 8.796875 
L 46.6875 54.6875 
L 56.203125 54.6875 
L 35.6875 0 
L 23.484375 0 
z
" id="DejaVuSans-118"/>
     <path d="M 45.40625 27.984375 
Q 45.40625 37.75 41.375 43.109375 
Q 37.359375 48.484375 30.078125 48.484375 
Q 22.859375 48.484375 18.828125 43.109375 
Q 14.796875 37.75 14.796875 27.984375 
Q 14.796875 18.265625 18.828125 12.890625 
Q 22.859375 7.515625 30.078125 7.515625 
Q 37.359375 7.515625 41.375 12.890625 
Q 45.40625 18.265625 45.40625 27.984375 
z
M 54.390625 6.78125 
Q 54.390625 -7.171875 48.1875 -13.984375 
Q 42 -20.796875 29.203125 -20.796875 
Q 24.46875 -20.796875 20.265625 -20.09375 
Q 16.0625 -19.390625 12.109375 -17.921875 
L 12.109375 -9.1875 
Q 16.0625 -11.328125 19.921875 -12.34375 
Q 23.78125 -13.375 27.78125 -13.375 
Q 36.625 -13.375 41.015625 -8.765625 
Q 45.40625 -4.15625 45.40625 5.171875 
L 45.40625 9.625 
Q 42.625 4.78125 38.28125 2.390625 
Q 33.9375 0 27.875 0 
Q 17.828125 0 11.671875 7.65625 
Q 5.515625 15.328125 5.515625 27.984375 
Q 5.515625 40.671875 11.671875 48.328125 
Q 17.828125 56 27.875 56 
Q 33.9375 56 38.28125 53.609375 
Q 42.625 51.21875 45.40625 46.390625 
L 45.40625 54.6875 
L 54.390625 54.6875 
z
" id="DejaVuSans-103"/>
     <path d="M 45.40625 46.390625 
L 45.40625 75.984375 
L 54.390625 75.984375 
L 54.390625 0 
L 45.40625 0 
L 45.40625 8.203125 
Q 42.578125 3.328125 38.25 0.953125 
Q 33.9375 -1.421875 27.875 -1.421875 
Q 17.96875 -1.421875 11.734375 6.484375 
Q 5.515625 14.40625 5.515625 27.296875 
Q 5.515625 40.1875 11.734375 48.09375 
Q 17.96875 56 27.875 56 
Q 33.9375 56 38.25 53.625 
Q 42.578125 51.265625 45.40625 46.390625 
z
M 14.796875 27.296875 
Q 14.796875 17.390625 18.875 11.75 
Q 22.953125 6.109375 30.078125 6.109375 
Q 37.203125 6.109375 41.296875 11.75 
Q 45.40625 17.390625 45.40625 27.296875 
Q 45.40625 37.203125 41.296875 42.84375 
Q 37.203125 48.484375 30.078125 48.484375 
Q 22.953125 48.484375 18.875 42.84375 
Q 14.796875 37.203125 14.796875 27.296875 
z
" id="DejaVuSans-100"/>
     <path d="M 48.6875 27.296875 
Q 48.6875 37.203125 44.609375 42.84375 
Q 40.53125 48.484375 33.40625 48.484375 
Q 26.265625 48.484375 22.1875 42.84375 
Q 18.109375 37.203125 18.109375 27.296875 
Q 18.109375 17.390625 22.1875 11.75 
Q 26.265625 6.109375 33.40625 6.109375 
Q 40.53125 6.109375 44.609375 11.75 
Q 48.6875 17.390625 48.6875 27.296875 
z
M 18.109375 46.390625 
Q 20.953125 51.265625 25.265625 53.625 
Q 29.59375 56 35.59375 56 
Q 45.5625 56 51.78125 48.09375 
Q 58.015625 40.1875 58.015625 27.296875 
Q 58.015625 14.40625 51.78125 6.484375 
Q 45.5625 -1.421875 35.59375 -1.421875 
Q 29.59375 -1.421875 25.265625 0.953125 
Q 20.953125 3.328125 18.109375 8.203125 
L 18.109375 0 
L 9.078125 0 
L 9.078125 75.984375 
L 18.109375 75.984375 
z
" id="DejaVuSans-98"/>
     <path d="M 37.109375 75.984375 
L 37.109375 68.5 
L 28.515625 68.5 
Q 23.6875 68.5 21.796875 66.546875 
Q 19.921875 64.59375 19.921875 59.515625 
L 19.921875 54.6875 
L 34.71875 54.6875 
L 34.71875 47.703125 
L 19.921875 47.703125 
L 19.921875 0 
L 10.890625 0 
L 10.890625 47.703125 
L 2.296875 47.703125 
L 2.296875 54.6875 
L 10.890625 54.6875 
L 10.890625 58.5 
Q 10.890625 67.625 15.140625 71.796875 
Q 19.390625 75.984375 28.609375 75.984375 
z
" id="DejaVuSans-102"/>
    </defs>
    <g transform="translate(123.315 35.472)scale(0.12 -0.12)">
     <use xlink:href="#DejaVuSans-80"/>
     <use x="60.255859" xlink:href="#DejaVuSans-111"/>
     <use x="121.4375" xlink:href="#DejaVuSans-112"/>
     <use x="184.914062" xlink:href="#DejaVuSans-117"/>
     <use x="248.292969" xlink:href="#DejaVuSans-108"/>
     <use x="276.076172" xlink:href="#DejaVuSans-97"/>
     <use x="337.355469" xlink:href="#DejaVuSans-116"/>
     <use x="376.564453" xlink:href="#DejaVuSans-105"/>
     <use x="404.347656" xlink:href="#DejaVuSans-111"/>
     <use x="465.529297" xlink:href="#DejaVuSans-110"/>
     <use x="528.908203" xlink:href="#DejaVuSans-39"/>
     <use x="556.398438" xlink:href="#DejaVuSans-115"/>
     <use x="608.498047" xlink:href="#DejaVuSans-32"/>
     <use x="640.285156" xlink:href="#DejaVuSans-97"/>
     <use x="701.564453" xlink:href="#DejaVuSans-118"/>
     <use x="760.744141" xlink:href="#DejaVuSans-101"/>
     <use x="822.267578" xlink:href="#DejaVuSans-114"/>
     <use x="863.380859" xlink:href="#DejaVuSans-97"/>
     <use x="924.660156" xlink:href="#DejaVuSans-103"/>
     <use x="988.136719" xlink:href="#DejaVuSans-101"/>
     <use x="1049.660156" xlink:href="#DejaVuSans-32"/>
     <use x="1081.447266" xlink:href="#DejaVuSans-97"/>
     <use x="1142.726562" xlink:href="#DejaVuSans-110"/>
     <use x="1206.105469" xlink:href="#DejaVuSans-100"/>
     <use x="1269.582031" xlink:href="#DejaVuSans-32"/>
     <use x="1301.369141" xlink:href="#DejaVuSans-98"/>
     <use x="1364.845703" xlink:href="#DejaVuSans-101"/>
     <use x="1426.369141" xlink:href="#DejaVuSans-115"/>
     <use x="1478.46875" xlink:href="#DejaVuSans-116"/>
     <use x="1517.677734" xlink:href="#DejaVuSans-32"/>
     <use x="1549.464844" xlink:href="#DejaVuSans-102"/>
     <use x="1584.669922" xlink:href="#DejaVuSans-105"/>
     <use x="1612.453125" xlink:href="#DejaVuSans-116"/>
     <use x="1651.662109" xlink:href="#DejaVuSans-110"/>
     <use x="1715.041016" xlink:href="#DejaVuSans-101"/>
     <use x="1776.564453" xlink:href="#DejaVuSans-115"/>
     <use x="1828.664062" xlink:href="#DejaVuSans-115"/>
    </g>
   </g>
   <g id="legend_1">
    <g id="patch_7">
     <path d="M 334.779375 302.584 
L 407.72 302.584 
Q 409.72 302.584 409.72 300.584 
L 409.72 242.8715 
Q 409.72 240.8715 407.72 240.8715 
L 334.779375 240.8715 
Q 332.779375 240.8715 332.779375 242.8715 
L 332.779375 300.584 
Q 332.779375 302.584 334.779375 302.584 
z
" style="fill:#ffffff;opacity:0.8;stroke:#cccccc;stroke-linejoin:miter;"/>
    </g>
    <g id="line2d_37">
     <path d="M 336.779375 248.969937 
L 356.779375 248.969937 
" style="fill:none;stroke:#0000ff;stroke-linecap:square;stroke-width:1.5;"/>
    </g>
    <g id="line2d_38"/>
    <g id="text_20">
     <!-- average -->
     <g transform="translate(364.779375 252.469937)scale(0.1 -0.1)">
      <use xlink:href="#DejaVuSans-97"/>
      <use x="61.279297" xlink:href="#DejaVuSans-118"/>
      <use x="120.458984" xlink:href="#DejaVuSans-101"/>
      <use x="181.982422" xlink:href="#DejaVuSans-114"/>
      <use x="223.095703" xlink:href="#DejaVuSans-97"/>
      <use x="284.375" xlink:href="#DejaVuSans-103"/>
      <use x="347.851562" xlink:href="#DejaVuSans-101"/>
     </g>
    </g>
    <g id="line2d_39">
     <path d="M 336.779375 263.648062 
L 356.779375 263.648062 
" style="fill:none;stroke:#008000;stroke-dasharray:9.6,2.4,1.5,2.4;stroke-dashoffset:0;stroke-width:1.5;"/>
    </g>
    <g id="line2d_40"/>
    <g id="text_21">
     <!-- -1 sd -->
     <defs>
      <path d="M 4.890625 31.390625 
L 31.203125 31.390625 
L 31.203125 23.390625 
L 4.890625 23.390625 
z
" id="DejaVuSans-45"/>
     </defs>
     <g transform="translate(364.779375 267.148062)scale(0.1 -0.1)">
      <use xlink:href="#DejaVuSans-45"/>
      <use x="36.083984" xlink:href="#DejaVuSans-49"/>
      <use x="99.707031" xlink:href="#DejaVuSans-32"/>
      <use x="131.494141" xlink:href="#DejaVuSans-115"/>
      <use x="183.59375" xlink:href="#DejaVuSans-100"/>
     </g>
    </g>
    <g id="line2d_41">
     <path d="M 336.779375 278.326187 
L 356.779375 278.326187 
" style="fill:none;stroke:#008000;stroke-dasharray:9.6,2.4,1.5,2.4;stroke-dashoffset:0;stroke-width:1.5;"/>
    </g>
    <g id="line2d_42"/>
    <g id="text_22">
     <!-- +1 sd -->
     <defs>
      <path d="M 46 62.703125 
L 46 35.5 
L 73.1875 35.5 
L 73.1875 27.203125 
L 46 27.203125 
L 46 0 
L 37.796875 0 
L 37.796875 27.203125 
L 10.59375 27.203125 
L 10.59375 35.5 
L 37.796875 35.5 
L 37.796875 62.703125 
z
" id="DejaVuSans-43"/>
     </defs>
     <g transform="translate(364.779375 281.826187)scale(0.1 -0.1)">
      <use xlink:href="#DejaVuSans-43"/>
      <use x="83.789062" xlink:href="#DejaVuSans-49"/>
      <use x="147.412109" xlink:href="#DejaVuSans-32"/>
      <use x="179.199219" xlink:href="#DejaVuSans-115"/>
      <use x="231.298828" xlink:href="#DejaVuSans-100"/>
     </g>
    </g>
    <g id="line2d_43">
     <path d="M 336.779375 293.004312 
L 356.779375 293.004312 
" style="fill:none;stroke:#ff0000;stroke-linecap:square;stroke-width:1.5;"/>
    </g>
    <g id="line2d_44"/>
    <g id="text_23">
     <!-- best -->
     <g transform="translate(364.779375 296.504312)scale(0.1 -0.1)">
      <use xlink:href="#DejaVuSans-98"/>
      <use x="63.476562" xlink:href="#DejaVuSans-101"/>
      <use x="125" xlink:href="#DejaVuSans-115"/>
      <use x="177.099609" xlink:href="#DejaVuSans-116"/>
     </g>
    </g>
   </g>
  </g>
 </g>
 <defs>
  <clipPath id="pc57b395248">
   <rect height="266.112" width="357.12" x="57.6" y="41.472"/>
  </clipPath>
 </defs>
</svg>
