<?xml version="1.0" encoding="UTF-8" standalone="no"?>
<!DOCTYPE svg PUBLIC "-//W3C//DTD SVG 1.1//EN"
 "http://www.w3.org/Graphics/SVG/1.1/DTD/svg11.dtd">
<!-- Generated by graphviz version 2.40.1 (20161225.0304)
 -->
<!-- Title: %3 Pages: 1 -->
<svg width="631pt" height="427pt"
 viewBox="0.00 0.00 631.04 427.04" xmlns="http://www.w3.org/2000/svg" xmlns:xlink="http://www.w3.org/1999/xlink">
<g id="graph0" class="graph" transform="scale(1 1) rotate(0) translate(4 423.0391)">
<title>%3</title>
<polygon fill="#ffffff" stroke="transparent" points="-4,4 -4,-423.0391 627.0404,-423.0391 627.0404,4 -4,4"/>
<!-- E0 -->
<g id="node1" class="node">
<title>E0</title>
<polygon fill="#d3d3d3" stroke="#000000" points="25.9963,-419.0391 .0012,-419.0391 .0012,-402.0391 25.9963,-402.0391 25.9963,-419.0391"/>
<text text-anchor="middle" x="12.9988" y="-407.8391" font-family="Times,serif" font-size="9.00" fill="#000000">E0</text>
</g>
<!-- E1 -->
<g id="node2" class="node">
<title>E1</title>
<polygon fill="#d3d3d3" stroke="#000000" points="69.9963,-419.0391 44.0012,-419.0391 44.0012,-402.0391 69.9963,-402.0391 69.9963,-419.0391"/>
<text text-anchor="middle" x="56.9988" y="-407.8391" font-family="Times,serif" font-size="9.00" fill="#000000">E1</text>
</g>
<!-- E0&#45;&gt;E1 -->
<!-- E2 -->
<g id="node3" class="node">
<title>E2</title>
<polygon fill="#d3d3d3" stroke="#000000" points="136.9963,-419.0391 111.0012,-419.0391 111.0012,-402.0391 136.9963,-402.0391 136.9963,-419.0391"/>
<text text-anchor="middle" x="123.9988" y="-407.8391" font-family="Times,serif" font-size="9.00" fill="#000000">E2</text>
</g>
<!-- E1&#45;&gt;E2 -->
<!-- 0 -->
<g id="node10" class="node">
<title>0</title>
<ellipse fill="#add8e6" stroke="#000000" cx="101.9988" cy="-14.853" rx="14.4914" ry="14.4914"/>
<text text-anchor="middle" x="101.9988" y="-12.153" font-family="Times,serif" font-size="9.00" fill="#000000">0</text>
</g>
<!-- E1&#45;&gt;0 -->
<g id="edge20" class="edge">
<title>E1&#45;&gt;0</title>
<path fill="none" stroke="#ff0000" stroke-width=".2866" d="M55.8482,-401.9519C52.8447,-378.7659 44.9988,-312.9331 44.9988,-257.9142 44.9988,-257.9142 44.9988,-257.9142 44.9988,-173.831 44.9988,-121.9745 72.2039,-65.8913 89.0245,-36.1718"/>
<polygon fill="#ff0000" stroke="#ff0000" stroke-width=".2866" points="92.0729,-37.892 94.0732,-27.4877 86.0213,-34.3737 92.0729,-37.892"/>
</g>
<!-- E3 -->
<g id="node4" class="node">
<title>E3</title>
<polygon fill="#d3d3d3" stroke="#000000" points="199.9963,-419.0391 174.0012,-419.0391 174.0012,-402.0391 199.9963,-402.0391 199.9963,-419.0391"/>
<text text-anchor="middle" x="186.9988" y="-407.8391" font-family="Times,serif" font-size="9.00" fill="#000000">E3</text>
</g>
<!-- E2&#45;&gt;E3 -->
<!-- E2&#45;&gt;0 -->
<g id="edge12" class="edge">
<title>E2&#45;&gt;0</title>
<path fill="none" stroke="#00ff00" stroke-width="1.7954" d="M118.8487,-401.9874C113.8118,-393.25 106.2912,-379.1433 101.9988,-366.0391 86.8106,-319.6715 82.9988,-306.706 82.9988,-257.9142 82.9988,-257.9142 82.9988,-257.9142 82.9988,-173.831 82.9988,-125.8414 91.6401,-70.2754 97.2674,-39.1779"/>
<polygon fill="#00ff00" stroke="#00ff00" stroke-width="1.7954" points="100.7261,-39.7226 99.1131,-29.2513 93.844,-38.443 100.7261,-39.7226"/>
</g>
<!-- 3857 -->
<g id="node16" class="node">
<title>3857</title>
<ellipse fill="#ffffff" stroke="#000000" cx="134.9988" cy="-341.9975" rx="24.0833" ry="24.0833"/>
<text text-anchor="middle" x="134.9988" y="-339.2975" font-family="Times,serif" font-size="9.00" fill="#000000">3857</text>
</g>
<!-- E2&#45;&gt;3857 -->
<g id="edge19" class="edge">
<title>E2&#45;&gt;3857</title>
<path fill="none" stroke="#ff0000" stroke-width=".1205" d="M125.3919,-401.8583C126.4646,-395.1744 128.0215,-385.4734 129.5708,-375.8198"/>
<polygon fill="#ff0000" stroke="#ff0000" stroke-width=".1205" points="133.033,-376.3337 131.1619,-365.9054 126.1214,-375.2244 133.033,-376.3337"/>
</g>
<!-- E4 -->
<g id="node5" class="node">
<title>E4</title>
<polygon fill="#d3d3d3" stroke="#000000" points="284.9963,-419.0391 259.0012,-419.0391 259.0012,-402.0391 284.9963,-402.0391 284.9963,-419.0391"/>
<text text-anchor="middle" x="271.9988" y="-407.8391" font-family="Times,serif" font-size="9.00" fill="#000000">E4</text>
</g>
<!-- E3&#45;&gt;E4 -->
<!-- 5408 -->
<g id="node14" class="node">
<title>5408</title>
<ellipse fill="#ffffff" stroke="#000000" cx="231.9988" cy="-173.831" rx="24.0833" ry="24.0833"/>
<text text-anchor="middle" x="231.9988" y="-171.131" font-family="Times,serif" font-size="9.00" fill="#000000">5408</text>
</g>
<!-- E3&#45;&gt;5408 -->
<g id="edge29" class="edge">
<title>E3&#45;&gt;5408</title>
<path fill="none" stroke="#00ff00" stroke-width=".3317" d="M188.6537,-401.8338C194.5826,-370.6471 214.9682,-263.415 225.5338,-207.8382"/>
<polygon fill="#00ff00" stroke="#00ff00" stroke-width=".3317" points="229.0184,-208.2482 227.4477,-197.7704 222.1416,-206.9408 229.0184,-208.2482"/>
</g>
<!-- E5 -->
<g id="node6" class="node">
<title>E5</title>
<polygon fill="#d3d3d3" stroke="#000000" points="398.9963,-419.0391 373.0012,-419.0391 373.0012,-402.0391 398.9963,-402.0391 398.9963,-419.0391"/>
<text text-anchor="middle" x="385.9988" y="-407.8391" font-family="Times,serif" font-size="9.00" fill="#000000">E5</text>
</g>
<!-- E4&#45;&gt;E5 -->
<!-- 3744 -->
<g id="node19" class="node">
<title>3744</title>
<ellipse fill="none" stroke="#000000" cx="238.9988" cy="-341.9975" rx="24.0833" ry="24.0833"/>
<text text-anchor="middle" x="238.9988" y="-339.2975" font-family="Times,serif" font-size="9.00" fill="#000000">3744</text>
</g>
<!-- E4&#45;&gt;3744 -->
<g id="edge17" class="edge">
<title>E4&#45;&gt;3744</title>
<path fill="none" stroke="#00ff00" stroke-width=".5019" d="M267.8193,-401.8583C264.278,-394.5029 258.9775,-383.4937 253.8842,-372.9148"/>
<polygon fill="#00ff00" stroke="#00ff00" stroke-width=".5019" points="257.0026,-371.3235 249.5111,-363.8317 250.6956,-374.3601 257.0026,-371.3235"/>
</g>
<!-- 5395 -->
<g id="node21" class="node">
<title>5395</title>
<ellipse fill="none" stroke="#000000" cx="304.9988" cy="-341.9975" rx="24.0833" ry="24.0833"/>
<text text-anchor="middle" x="304.9988" y="-339.2975" font-family="Times,serif" font-size="9.00" fill="#000000">5395</text>
</g>
<!-- E4&#45;&gt;5395 -->
<g id="edge26" class="edge">
<title>E4&#45;&gt;5395</title>
<path fill="none" stroke="#00ff00" stroke-width=".2231" d="M276.1783,-401.8583C279.7196,-394.5029 285.02,-383.4937 290.1133,-372.9148"/>
<polygon fill="#00ff00" stroke="#00ff00" stroke-width=".2231" points="293.302,-374.3601 294.4865,-363.8317 286.9949,-371.3235 293.302,-374.3601"/>
</g>
<!-- E6 -->
<g id="node7" class="node">
<title>E6</title>
<polygon fill="#d3d3d3" stroke="#000000" points="442.9963,-419.0391 417.0012,-419.0391 417.0012,-402.0391 442.9963,-402.0391 442.9963,-419.0391"/>
<text text-anchor="middle" x="429.9988" y="-407.8391" font-family="Times,serif" font-size="9.00" fill="#000000">E6</text>
</g>
<!-- E5&#45;&gt;E6 -->
<!-- 2 -->
<g id="node12" class="node">
<title>2</title>
<ellipse fill="#add8e6" stroke="#000000" cx="449.9988" cy="-14.853" rx="14.4914" ry="14.4914"/>
<text text-anchor="middle" x="449.9988" y="-12.153" font-family="Times,serif" font-size="9.00" fill="#000000">2</text>
</g>
<!-- E5&#45;&gt;2 -->
<g id="edge15" class="edge">
<title>E5&#45;&gt;2</title>
<path fill="none" stroke="#ff0000" stroke-width="4.7303" d="M388.6482,-401.9168C399.329,-366.6462 439.2611,-229.7309 451.9988,-113.7893 454.769,-88.5738 453.6783,-59.5321 452.2588,-39.4666"/>
<polygon fill="#ff0000" stroke="#ff0000" stroke-width="4.7303" points="456.3714,-38.9675 451.4588,-29.3239 448.119,-39.6184 456.3714,-38.9675"/>
</g>
<!-- E7 -->
<g id="node8" class="node">
<title>E7</title>
<polygon fill="#d3d3d3" stroke="#000000" points="486.9963,-419.0391 461.0012,-419.0391 461.0012,-402.0391 486.9963,-402.0391 486.9963,-419.0391"/>
<text text-anchor="middle" x="473.9988" y="-407.8391" font-family="Times,serif" font-size="9.00" fill="#000000">E7</text>
</g>
<!-- E6&#45;&gt;E7 -->
<!-- 1 -->
<g id="node11" class="node">
<title>1</title>
<ellipse fill="#add8e6" stroke="#000000" cx="378.9988" cy="-14.853" rx="14.4914" ry="14.4914"/>
<text text-anchor="middle" x="378.9988" y="-12.153" font-family="Times,serif" font-size="9.00" fill="#000000">1</text>
</g>
<!-- E6&#45;&gt;1 -->
<g id="edge16" class="edge">
<title>E6&#45;&gt;1</title>
<path fill="none" stroke="#ff0000" stroke-width="2.3707" d="M429.0889,-401.8437C427.3431,-385.4226 423.3125,-348.7332 418.9988,-317.9559 406.2403,-226.9273 396.5864,-205.0959 385.9988,-113.7893 383.0869,-88.6774 381.2127,-59.8294 380.1436,-39.7894"/>
<polygon fill="#ff0000" stroke="#ff0000" stroke-width="2.3707" points="383.6311,-39.4526 379.631,-29.6419 376.64,-39.8058 383.6311,-39.4526"/>
</g>
<!-- 5367 -->
<g id="node18" class="node">
<title>5367</title>
<ellipse fill="#ffffff" stroke="#000000" cx="342.9988" cy="-173.831" rx="24.0833" ry="24.0833"/>
<text text-anchor="middle" x="342.9988" y="-171.131" font-family="Times,serif" font-size="9.00" fill="#000000">5367</text>
</g>
<!-- E6&#45;&gt;5367 -->
<g id="edge31" class="edge">
<title>E6&#45;&gt;5367</title>
<path fill="none" stroke="#ff0000" stroke-width=".447" d="M426.7992,-401.8338C415.2264,-370.3467 375.1628,-261.3422 354.9129,-206.2467"/>
<polygon fill="#ff0000" stroke="#ff0000" stroke-width=".447" points="358.1087,-204.796 351.3737,-196.6173 351.5384,-207.2109 358.1087,-204.796"/>
</g>
<!-- E8 -->
<g id="node9" class="node">
<title>E8</title>
<polygon fill="#d3d3d3" stroke="#000000" points="546.9963,-419.0391 521.0012,-419.0391 521.0012,-402.0391 546.9963,-402.0391 546.9963,-419.0391"/>
<text text-anchor="middle" x="533.9988" y="-407.8391" font-family="Times,serif" font-size="9.00" fill="#000000">E8</text>
</g>
<!-- E7&#45;&gt;E8 -->
<!-- S -->
<g id="node13" class="node">
<title>S</title>
<ellipse fill="#add8e6" stroke="#000000" cx="508.9988" cy="-14.853" rx="14.7075" ry="14.7075"/>
<text text-anchor="middle" x="508.9988" y="-12.153" font-family="Times,serif" font-size="9.00" fill="#000000">S</text>
</g>
<!-- E7&#45;&gt;S -->
<g id="edge14" class="edge">
<title>E7&#45;&gt;S</title>
<path fill="none" stroke="#00ff00" stroke-width="2.4764" d="M474.7624,-401.9067C479.012,-353.8635 499.8053,-118.788 506.7418,-40.3693"/>
<polygon fill="#00ff00" stroke="#00ff00" stroke-width="2.4764" points="510.2662,-40.2465 507.661,-29.9769 503.2934,-39.6296 510.2662,-40.2465"/>
</g>
<!-- E8&#45;&gt;S -->
<g id="edge13" class="edge">
<title>E8&#45;&gt;S</title>
<path fill="none" stroke="#00ff00" stroke-width="3.113" d="M535.2453,-401.9551C538.4991,-378.7772 546.9988,-312.9624 546.9988,-257.9142 546.9988,-257.9142 546.9988,-257.9142 546.9988,-173.831 546.9988,-124.3693 529.3838,-68.5646 518.14,-37.9823"/>
<polygon fill="#00ff00" stroke="#00ff00" stroke-width="3.113" points="521.413,-36.7421 514.6058,-28.6234 514.8644,-39.2151 521.413,-36.7421"/>
</g>
<!-- 3636 -->
<g id="node17" class="node">
<title>3636</title>
<ellipse fill="#ffffff" stroke="#000000" cx="418.9988" cy="-89.7477" rx="24.0833" ry="24.0833"/>
<text text-anchor="middle" x="418.9988" y="-87.0477" font-family="Times,serif" font-size="9.00" fill="#000000">3636</text>
</g>
<!-- E8&#45;&gt;3636 -->
<g id="edge22" class="edge">
<title>E8&#45;&gt;3636</title>
<path fill="none" stroke="#00ff00" stroke-width=".5101" d="M530.9228,-401.9587C516.6288,-362.0857 456.3054,-193.8141 430.6376,-122.214"/>
<polygon fill="#00ff00" stroke="#00ff00" stroke-width=".5101" points="433.9235,-121.0082 427.2541,-112.776 427.3341,-123.3705 433.9235,-121.0082"/>
</g>
<!-- 3967 -->
<g id="node20" class="node">
<title>3967</title>
<ellipse fill="none" stroke="#000000" cx="598.9988" cy="-341.9975" rx="24.0833" ry="24.0833"/>
<text text-anchor="middle" x="598.9988" y="-339.2975" font-family="Times,serif" font-size="9.00" fill="#000000">3967</text>
</g>
<!-- E8&#45;&gt;3967 -->
<g id="edge25" class="edge">
<title>E8&#45;&gt;3967</title>
<path fill="none" stroke="#00ff00" stroke-width=".2146" d="M542.2311,-401.8583C550.5483,-393.0879 563.792,-379.1226 575.396,-366.8863"/>
<polygon fill="#00ff00" stroke="#00ff00" stroke-width=".2146" points="578.0091,-369.2172 582.3507,-359.5527 572.9299,-364.4004 578.0091,-369.2172"/>
</g>
<!-- 0&#45;&gt;1 -->
<!-- 1&#45;&gt;2 -->
<!-- 2&#45;&gt;S -->
<!-- 5408&#45;&gt;2 -->
<g id="edge30" class="edge">
<title>5408&#45;&gt;2</title>
<path fill="none" stroke="#ff0000" stroke-width=".3552" d="M251.7293,-159.4423C293.0332,-129.3212 388.2152,-59.9091 429.8662,-29.5349"/>
<polygon fill="#ff0000" stroke="#ff0000" stroke-width=".3552" points="432.1101,-32.2303 438.1276,-23.5102 427.9856,-26.5745 432.1101,-32.2303"/>
</g>
<!-- 4132 -->
<g id="node15" class="node">
<title>4132</title>
<ellipse fill="#ffffff" stroke="#000000" cx="134.9988" cy="-257.9142" rx="24.0833" ry="24.0833"/>
<text text-anchor="middle" x="134.9988" y="-255.2142" font-family="Times,serif" font-size="9.00" fill="#000000">4132</text>
</g>
<!-- 4132&#45;&gt;0 -->
<g id="edge28" class="edge">
<title>4132&#45;&gt;0</title>
<path fill="none" stroke="#00ff00" stroke-width=".1642" d="M131.714,-233.72C125.4203,-187.3641 111.7238,-86.4823 105.366,-39.6546"/>
<polygon fill="#00ff00" stroke="#00ff00" stroke-width=".1642" points="108.7997,-38.9286 103.9861,-29.4904 101.8633,-39.8704 108.7997,-38.9286"/>
</g>
<!-- 4132&#45;&gt;5367 -->
<g id="edge23" class="edge">
<title>4132&#45;&gt;5367</title>
<path fill="none" stroke="#00ff00" stroke-width=".5307" d="M157.6544,-248.7558C194.8713,-233.711 269.0375,-203.7296 311.3983,-186.6053"/>
<polygon fill="#00ff00" stroke="#00ff00" stroke-width=".5307" points="312.7266,-189.8436 320.6859,-182.8509 310.103,-183.3538 312.7266,-189.8436"/>
</g>
<!-- 3857&#45;&gt;4132 -->
<g id="edge21" class="edge">
<title>3857&#45;&gt;4132</title>
<path fill="none" stroke="#00ff00" stroke-width=".6122" d="M134.9988,-317.6771C134.9988,-309.7463 134.9988,-300.7857 134.9988,-292.2619"/>
<polygon fill="#00ff00" stroke="#00ff00" stroke-width=".6122" points="138.4989,-292.1799 134.9988,-282.1799 131.4989,-292.18 138.4989,-292.1799"/>
</g>
<!-- 3636&#45;&gt;1 -->
<g id="edge18" class="edge">
<title>3636&#45;&gt;1</title>
<path fill="none" stroke="#ff0000" stroke-width=".8988" d="M407.6434,-68.4862C402.3224,-58.5234 395.9905,-46.6677 390.6347,-36.6397"/>
<polygon fill="#ff0000" stroke="#ff0000" stroke-width=".8988" points="393.662,-34.8785 385.8637,-27.7066 387.4875,-38.1763 393.662,-34.8785"/>
</g>
<!-- 5367&#45;&gt;3636 -->
<g id="edge24" class="edge">
<title>5367&#45;&gt;3636</title>
<path fill="none" stroke="#00ff00" stroke-width=".416" d="M359.4896,-155.5862C370.1187,-143.8266 384.0954,-128.3634 395.8325,-115.3779"/>
<polygon fill="#00ff00" stroke="#00ff00" stroke-width=".416" points="398.6922,-117.4337 402.8012,-107.6681 393.4991,-112.7398 398.6922,-117.4337"/>
</g>
<!-- 1351 -->
<g id="node22" class="node">
<title>1351</title>
<ellipse fill="none" stroke="#000000" cx="304.9988" cy="-257.9142" rx="24.0833" ry="24.0833"/>
<text text-anchor="middle" x="304.9988" y="-255.2142" font-family="Times,serif" font-size="9.00" fill="#000000">1351</text>
</g>
<!-- 5395&#45;&gt;1351 -->
<g id="edge27" class="edge">
<title>5395&#45;&gt;1351</title>
<path fill="none" stroke="#ff0000" stroke-width=".4804" d="M304.9988,-317.6771C304.9988,-309.7463 304.9988,-300.7857 304.9988,-292.2619"/>
<polygon fill="#ff0000" stroke="#ff0000" stroke-width=".4804" points="308.4989,-292.1799 304.9988,-282.1799 301.4989,-292.18 308.4989,-292.1799"/>
</g>
</g>
</svg>
