<?xml version="1.0" encoding="UTF-8" standalone="no"?>
<!DOCTYPE svg PUBLIC "-//W3C//DTD SVG 1.1//EN"
 "http://www.w3.org/Graphics/SVG/1.1/DTD/svg11.dtd">
<!-- Generated by graphviz version 2.40.1 (20161225.0304)
 -->
<!-- Title: %3 Pages: 1 -->
<svg width="611pt" height="476pt"
 viewBox="0.00 0.00 610.54 476.50" xmlns="http://www.w3.org/2000/svg" xmlns:xlink="http://www.w3.org/1999/xlink">
<g id="graph0" class="graph" transform="scale(1 1) rotate(0) translate(4 472.4996)">
<title>%3</title>
<polygon fill="#ffffff" stroke="transparent" points="-4,4 -4,-472.4996 606.5373,-472.4996 606.5373,4 -4,4"/>
<!-- &#45;1 -->
<g id="node1" class="node">
<title>&#45;1</title>
<polygon fill="#d3d3d3" stroke="#000000" points="53.4981,-284.7914 29.4932,-284.7914 29.4932,-267.7914 53.4981,-267.7914 53.4981,-284.7914"/>
<text text-anchor="middle" x="41.4957" y="-273.5914" font-family="Times,serif" font-size="9.00" fill="#000000">&#45;1</text>
</g>
<!-- 1 -->
<g id="node11" class="node">
<title>1</title>
<ellipse fill="#add8e6" stroke="#000000" cx="14.4957" cy="-192.2082" rx="14.4914" ry="14.4914"/>
<text text-anchor="middle" x="14.4957" y="-189.5082" font-family="Times,serif" font-size="9.00" fill="#000000">1</text>
</g>
<!-- &#45;1&#45;&gt;1 -->
<g id="edge9" class="edge">
<title>&#45;1&#45;&gt;1</title>
<path fill="none" stroke="#ff0000" stroke-width=".1182" d="M38.7079,-267.6097C34.8473,-255.5871 27.7248,-233.4061 22.2004,-216.202"/>
<polygon fill="#ff0000" stroke="#ff0000" stroke-width=".1182" points="25.4004,-214.7196 19.0106,-206.2685 18.7356,-216.8597 25.4004,-214.7196"/>
</g>
<!-- 438 -->
<g id="node18" class="node">
<title>438</title>
<ellipse fill="#ffffff" stroke="#000000" cx="67.4957" cy="-192.2082" rx="20.7202" ry="20.7202"/>
<text text-anchor="middle" x="67.4957" y="-189.5082" font-family="Times,serif" font-size="9.00" fill="#000000">438</text>
</g>
<!-- &#45;1&#45;&gt;438 -->
<g id="edge12" class="edge">
<title>&#45;1&#45;&gt;438</title>
<path fill="none" stroke="#ff0000" stroke-width=".2129" d="M44.1802,-267.6097C47.4895,-256.9075 53.2879,-238.1557 58.2741,-222.0305"/>
<polygon fill="#ff0000" stroke="#ff0000" stroke-width=".2129" points="61.6338,-223.0128 61.2443,-212.4251 54.9462,-220.9448 61.6338,-223.0128"/>
</g>
<!-- &#45;2 -->
<g id="node2" class="node">
<title>&#45;2</title>
<polygon fill="#d3d3d3" stroke="#000000" points="246.4981,-452.9579 222.4932,-452.9579 222.4932,-435.9579 246.4981,-435.9579 246.4981,-452.9579"/>
<text text-anchor="middle" x="234.4957" y="-441.7579" font-family="Times,serif" font-size="9.00" fill="#000000">&#45;2</text>
</g>
<!-- &#45;3 -->
<g id="node3" class="node">
<title>&#45;3</title>
<polygon fill="#d3d3d3" stroke="#000000" points="287.4981,-452.9579 263.4932,-452.9579 263.4932,-435.9579 287.4981,-435.9579 287.4981,-452.9579"/>
<text text-anchor="middle" x="275.4957" y="-441.7579" font-family="Times,serif" font-size="9.00" fill="#000000">&#45;3</text>
</g>
<!-- &#45;4 -->
<g id="node4" class="node">
<title>&#45;4</title>
<polygon fill="#d3d3d3" stroke="#000000" points="328.4981,-452.9579 304.4932,-452.9579 304.4932,-435.9579 328.4981,-435.9579 328.4981,-452.9579"/>
<text text-anchor="middle" x="316.4957" y="-441.7579" font-family="Times,serif" font-size="9.00" fill="#000000">&#45;4</text>
</g>
<!-- &#45;5 -->
<g id="node5" class="node">
<title>&#45;5</title>
<polygon fill="#d3d3d3" stroke="#000000" points="369.4981,-452.9579 345.4932,-452.9579 345.4932,-435.9579 369.4981,-435.9579 369.4981,-452.9579"/>
<text text-anchor="middle" x="357.4957" y="-441.7579" font-family="Times,serif" font-size="9.00" fill="#000000">&#45;5</text>
</g>
<!-- &#45;6 -->
<g id="node6" class="node">
<title>&#45;6</title>
<polygon fill="#d3d3d3" stroke="#000000" points="410.4981,-452.9579 386.4932,-452.9579 386.4932,-435.9579 410.4981,-435.9579 410.4981,-452.9579"/>
<text text-anchor="middle" x="398.4957" y="-441.7579" font-family="Times,serif" font-size="9.00" fill="#000000">&#45;6</text>
</g>
<!-- 0 -->
<g id="node10" class="node">
<title>0</title>
<ellipse fill="#add8e6" stroke="#000000" cx="395.4957" cy="-360.3747" rx="14.4914" ry="14.4914"/>
<text text-anchor="middle" x="395.4957" y="-357.6747" font-family="Times,serif" font-size="9.00" fill="#000000">0</text>
</g>
<!-- &#45;6&#45;&gt;0 -->
<g id="edge1" class="edge">
<title>&#45;6&#45;&gt;0</title>
<path fill="none" stroke="#ff0000" stroke-width="2.0607" d="M398.1859,-435.7762C397.7659,-424.0047 396.9985,-402.4947 396.3905,-385.4529"/>
<polygon fill="#ff0000" stroke="#ff0000" stroke-width="2.0607" points="399.8736,-384.9152 396.0192,-375.0464 392.878,-385.1649 399.8736,-384.9152"/>
</g>
<!-- 2 -->
<g id="node12" class="node">
<title>2</title>
<ellipse fill="#add8e6" stroke="#000000" cx="442.4957" cy="-360.3747" rx="14.4914" ry="14.4914"/>
<text text-anchor="middle" x="442.4957" y="-357.6747" font-family="Times,serif" font-size="9.00" fill="#000000">2</text>
</g>
<!-- &#45;6&#45;&gt;2 -->
<g id="edge2" class="edge">
<title>&#45;6&#45;&gt;2</title>
<path fill="none" stroke="#ff0000" stroke-width=".8085" stroke-dasharray="1,5" d="M403.0387,-435.7762C409.597,-423.2435 421.9316,-399.6723 431.0711,-382.2069"/>
<polygon fill="#ff0000" stroke="#ff0000" stroke-width=".8085" points="434.2275,-383.7239 435.7629,-373.2409 428.0253,-380.4784 434.2275,-383.7239"/>
</g>
<!-- &#45;7 -->
<g id="node7" class="node">
<title>&#45;7</title>
<polygon fill="#d3d3d3" stroke="#000000" points="495.4981,-452.9579 471.4932,-452.9579 471.4932,-435.9579 495.4981,-435.9579 495.4981,-452.9579"/>
<text text-anchor="middle" x="483.4957" y="-441.7579" font-family="Times,serif" font-size="9.00" fill="#000000">&#45;7</text>
</g>
<!-- &#45;8 -->
<g id="node8" class="node">
<title>&#45;8</title>
<polygon fill="#d3d3d3" stroke="#000000" points="536.4981,-452.9579 512.4932,-452.9579 512.4932,-435.9579 536.4981,-435.9579 536.4981,-452.9579"/>
<text text-anchor="middle" x="524.4957" y="-441.7579" font-family="Times,serif" font-size="9.00" fill="#000000">&#45;8</text>
</g>
<!-- &#45;9 -->
<g id="node9" class="node">
<title>&#45;9</title>
<polygon fill="#d3d3d3" stroke="#000000" points="454.4981,-452.9579 430.4932,-452.9579 430.4932,-435.9579 454.4981,-435.9579 454.4981,-452.9579"/>
<text text-anchor="middle" x="442.4957" y="-441.7579" font-family="Times,serif" font-size="9.00" fill="#000000">&#45;9</text>
</g>
<!-- &#45;9&#45;&gt;2 -->
<g id="edge4" class="edge">
<title>&#45;9&#45;&gt;2</title>
<path fill="none" stroke="#00ff00" stroke-width=".2013" d="M442.4957,-435.7762C442.4957,-424.0047 442.4957,-402.4947 442.4957,-385.4529"/>
<polygon fill="#00ff00" stroke="#00ff00" stroke-width=".2013" points="445.9958,-385.0464 442.4957,-375.0464 438.9958,-385.0464 445.9958,-385.0464"/>
</g>
<!-- 2787 -->
<g id="node13" class="node">
<title>2787</title>
<ellipse fill="#ffffff" stroke="#000000" cx="116.4957" cy="-108.1249" rx="24.0833" ry="24.0833"/>
<text text-anchor="middle" x="116.4957" y="-105.4249" font-family="Times,serif" font-size="9.00" fill="#000000">2787</text>
</g>
<!-- 1&#45;&gt;2787 -->
<g id="edge10" class="edge">
<title>1&#45;&gt;2787</title>
<path fill="none" stroke="#00ff00" stroke-width=".1262" d="M24.4522,-181.077C28.3778,-176.8848 33.014,-172.1669 37.4957,-168.1665 53.6529,-153.7446 72.9931,-139.0075 88.4935,-127.7428"/>
<polygon fill="#00ff00" stroke="#00ff00" stroke-width=".1262" points="90.5902,-130.5461 96.6652,-121.8659 86.5031,-124.8631 90.5902,-130.5461"/>
</g>
<!-- 2157 -->
<g id="node15" class="node">
<title>2157</title>
<ellipse fill="#ffffff" stroke="#000000" cx="116.4957" cy="-24.0416" rx="24.0833" ry="24.0833"/>
<text text-anchor="middle" x="116.4957" y="-21.3416" font-family="Times,serif" font-size="9.00" fill="#000000">2157</text>
</g>
<!-- 2787&#45;&gt;2157 -->
<g id="edge15" class="edge">
<title>2787&#45;&gt;2157</title>
<path fill="none" stroke="#00ff00" stroke-width=".2333" d="M116.4957,-83.8045C116.4957,-75.8737 116.4957,-66.913 116.4957,-58.3892"/>
<polygon fill="#00ff00" stroke="#00ff00" stroke-width=".2333" points="119.9958,-58.3073 116.4957,-48.3073 112.9958,-58.3074 119.9958,-58.3073"/>
</g>
<!-- 2056 -->
<g id="node14" class="node">
<title>2056</title>
<ellipse fill="#ffffff" stroke="#000000" cx="578.4957" cy="-444.4579" rx="24.0833" ry="24.0833"/>
<text text-anchor="middle" x="578.4957" y="-441.7579" font-family="Times,serif" font-size="9.00" fill="#000000">2056</text>
</g>
<!-- 3069 -->
<g id="node16" class="node">
<title>3069</title>
<ellipse fill="#ffffff" stroke="#000000" cx="187.4957" cy="-192.2082" rx="24.0833" ry="24.0833"/>
<text text-anchor="middle" x="187.4957" y="-189.5082" font-family="Times,serif" font-size="9.00" fill="#000000">3069</text>
</g>
<!-- 3069&#45;&gt;2787 -->
<g id="edge8" class="edge">
<title>3069&#45;&gt;2787</title>
<path fill="none" stroke="#ff0000" stroke-width=".4731" d="M171.7385,-173.5474C162.0868,-162.1171 149.5802,-147.3059 138.9084,-134.6676"/>
<polygon fill="#ff0000" stroke="#ff0000" stroke-width=".4731" points="141.3347,-132.1159 132.2088,-126.7335 135.9863,-136.6321 141.3347,-132.1159"/>
</g>
<!-- 3165 -->
<g id="node17" class="node">
<title>3165</title>
<ellipse fill="#ffffff" stroke="#000000" cx="206.4957" cy="-276.2914" rx="24.0833" ry="24.0833"/>
<text text-anchor="middle" x="206.4957" y="-273.5914" font-family="Times,serif" font-size="9.00" fill="#000000">3165</text>
</g>
<!-- 3165&#45;&gt;3069 -->
<g id="edge14" class="edge">
<title>3165&#45;&gt;3069</title>
<path fill="none" stroke="#00ff00" stroke-width=".1915" d="M201.1019,-252.4214C199.2207,-244.0963 197.0734,-234.5939 195.0494,-225.6365"/>
<polygon fill="#00ff00" stroke="#00ff00" stroke-width=".1915" points="198.4553,-224.8294 192.8372,-215.8468 191.6275,-226.3723 198.4553,-224.8294"/>
</g>
<!-- 2520 -->
<g id="node19" class="node">
<title>2520</title>
<ellipse fill="#ffffff" stroke="#000000" cx="180.4957" cy="-444.4579" rx="24.0833" ry="24.0833"/>
<text text-anchor="middle" x="180.4957" y="-441.7579" font-family="Times,serif" font-size="9.00" fill="#000000">2520</text>
</g>
<!-- 2621 -->
<g id="node21" class="node">
<title>2621</title>
<ellipse fill="#ffffff" stroke="#000000" cx="180.4957" cy="-360.3747" rx="24.0833" ry="24.0833"/>
<text text-anchor="middle" x="180.4957" y="-357.6747" font-family="Times,serif" font-size="9.00" fill="#000000">2621</text>
</g>
<!-- 2520&#45;&gt;2621 -->
<g id="edge6" class="edge">
<title>2520&#45;&gt;2621</title>
<path fill="none" stroke="#ff0000" stroke-width=".3206" d="M180.4957,-420.1376C180.4957,-412.2068 180.4957,-403.2461 180.4957,-394.7223"/>
<polygon fill="#ff0000" stroke="#ff0000" stroke-width=".3206" points="183.9958,-394.6403 180.4957,-384.6404 176.9958,-394.6404 183.9958,-394.6403"/>
</g>
<!-- 793 -->
<g id="node20" class="node">
<title>793</title>
<ellipse fill="#ffffff" stroke="#000000" cx="269.4957" cy="-276.2914" rx="20.7202" ry="20.7202"/>
<text text-anchor="middle" x="269.4957" y="-273.5914" font-family="Times,serif" font-size="9.00" fill="#000000">793</text>
</g>
<!-- 793&#45;&gt;3069 -->
<g id="edge11" class="edge">
<title>793&#45;&gt;3069</title>
<path fill="none" stroke="#00ff00" stroke-width=".32" d="M254.8357,-261.259C242.7533,-248.8696 225.3785,-231.0534 211.3042,-216.6215"/>
<polygon fill="#00ff00" stroke="#00ff00" stroke-width=".32" points="213.7782,-214.1453 204.2906,-209.4297 208.7667,-219.0326 213.7782,-214.1453"/>
</g>
<!-- 2621&#45;&gt;2787 -->
<g id="edge3" class="edge">
<title>2621&#45;&gt;2787</title>
<path fill="none" stroke="#00ff00" stroke-width=".2485" d="M174.4747,-336.6436C163.0339,-291.5509 138.1262,-193.3793 124.9926,-141.6146"/>
<polygon fill="#00ff00" stroke="#00ff00" stroke-width=".2485" points="128.3059,-140.4412 122.454,-131.6091 121.5208,-142.1628 128.3059,-140.4412"/>
</g>
<!-- 2621&#45;&gt;3069 -->
<g id="edge7" class="edge">
<title>2621&#45;&gt;3069</title>
<path fill="none" stroke="#00ff00" stroke-width=".1699" d="M176.4706,-336.2641C173.3905,-314.3111 170.1849,-281.0289 173.4957,-252.2498 174.5156,-243.3842 176.3562,-233.9248 178.3746,-225.1987"/>
<polygon fill="#00ff00" stroke="#00ff00" stroke-width=".1699" points="181.802,-225.9175 180.7874,-215.3714 175.0039,-224.2484 181.802,-225.9175"/>
</g>
<!-- 2621&#45;&gt;3165 -->
<g id="edge13" class="edge">
<title>2621&#45;&gt;3165</title>
<path fill="none" stroke="#00ff00" stroke-width=".3866" d="M187.6003,-337.3986C190.2724,-328.7572 193.366,-318.7523 196.2667,-309.3718"/>
<polygon fill="#00ff00" stroke="#00ff00" stroke-width=".3866" points="199.6989,-310.1196 199.3093,-299.5319 193.0113,-308.0516 199.6989,-310.1196"/>
</g>
<!-- 2621&#45;&gt;793 -->
<g id="edge5" class="edge">
<title>2621&#45;&gt;793</title>
<path fill="none" stroke="#ff0000" stroke-width=".3615" d="M198.0792,-343.7625C212.0563,-330.5576 231.7082,-311.9914 246.8599,-297.6767"/>
<polygon fill="#ff0000" stroke="#ff0000" stroke-width=".3615" points="249.4538,-300.0411 254.3193,-290.6294 244.6466,-294.9527 249.4538,-300.0411"/>
</g>
</g>
</svg>
