<?xml version="1.0" encoding="UTF-8" standalone="no"?>
<!DOCTYPE svg PUBLIC "-//W3C//DTD SVG 1.1//EN"
 "http://www.w3.org/Graphics/SVG/1.1/DTD/svg11.dtd">
<!-- Generated by graphviz version 2.40.1 (20161225.0304)
 -->
<!-- Title: %3 Pages: 1 -->
<svg width="517pt" height="289pt"
 viewBox="0.00 0.00 516.99 289.24" xmlns="http://www.w3.org/2000/svg" xmlns:xlink="http://www.w3.org/1999/xlink">
<g id="graph0" class="graph" transform="scale(1 1) rotate(0) translate(4 285.2412)">
<title>%3</title>
<polygon fill="#ffffff" stroke="transparent" points="-4,4 -4,-285.2412 512.9914,-285.2412 512.9914,4 -4,4"/>
<!-- &#45;1 -->
<g id="node1" class="node">
<title>&#45;1</title>
<polygon fill="#d3d3d3" stroke="#000000" points="52.4981,-181.6163 28.4932,-181.6163 28.4932,-164.6163 52.4981,-164.6163 52.4981,-181.6163"/>
<text text-anchor="middle" x="40.4957" y="-170.4163" font-family="Times,serif" font-size="9.00" fill="#000000">&#45;1</text>
</g>
<!-- 1 -->
<g id="node5" class="node">
<title>1</title>
<ellipse fill="#add8e6" stroke="#000000" cx="97.4957" cy="-89.033" rx="14.4914" ry="14.4914"/>
<text text-anchor="middle" x="97.4957" y="-86.333" font-family="Times,serif" font-size="9.00" fill="#000000">1</text>
</g>
<!-- &#45;1&#45;&gt;1 -->
<g id="edge2" class="edge">
<title>&#45;1&#45;&gt;1</title>
<path fill="none" stroke="#00ff00" stroke-width=".547" d="M46.381,-164.4346C55.0525,-151.6429 71.5194,-127.3518 83.4242,-109.7905"/>
<polygon fill="#00ff00" stroke="#00ff00" stroke-width=".547" points="86.4541,-111.5584 89.1683,-101.3171 80.66,-107.6305 86.4541,-111.5584"/>
</g>
<!-- 7 -->
<g id="node11" class="node">
<title>7</title>
<ellipse fill="#add8e6" stroke="#000000" cx="14.4957" cy="-14.4957" rx="14.4914" ry="14.4914"/>
<text text-anchor="middle" x="14.4957" y="-11.7957" font-family="Times,serif" font-size="9.00" fill="#000000">7</text>
</g>
<!-- &#45;1&#45;&gt;7 -->
<g id="edge1" class="edge">
<title>&#45;1&#45;&gt;7</title>
<path fill="none" stroke="#00ff00" stroke-width="1.494" stroke-dasharray="1,5" d="M33.8114,-164.3658C25.7306,-153.1828 12.5825,-132.8908 7.4957,-113.0746 1.1313,-88.2816 4.5621,-58.9068 8.5329,-38.7104"/>
<polygon fill="#00ff00" stroke="#00ff00" stroke-width="1.494" points="11.9854,-39.3036 10.6725,-28.7905 5.1427,-37.8277 11.9854,-39.3036"/>
</g>
<!-- 3041 -->
<g id="node14" class="node">
<title>3041</title>
<ellipse fill="#ffffff" stroke="#000000" cx="40.4957" cy="-89.033" rx="24.0833" ry="24.0833"/>
<text text-anchor="middle" x="40.4957" y="-86.333" font-family="Times,serif" font-size="9.00" fill="#000000">3041</text>
</g>
<!-- &#45;1&#45;&gt;3041 -->
<g id="edge6" class="edge">
<title>&#45;1&#45;&gt;3041</title>
<path fill="none" stroke="#00ff00" stroke-width=".3664" d="M40.4957,-164.4346C40.4957,-154.6843 40.4957,-138.2528 40.4957,-123.2131"/>
<polygon fill="#00ff00" stroke="#00ff00" stroke-width=".3664" points="43.9958,-123.1226 40.4957,-113.1226 36.9958,-123.1227 43.9958,-123.1226"/>
</g>
<!-- &#45;2 -->
<g id="node2" class="node">
<title>&#45;2</title>
<polygon fill="#d3d3d3" stroke="#000000" points="186.4981,-265.6995 162.4932,-265.6995 162.4932,-248.6995 186.4981,-248.6995 186.4981,-265.6995"/>
<text text-anchor="middle" x="174.4957" y="-254.4995" font-family="Times,serif" font-size="9.00" fill="#000000">&#45;2</text>
</g>
<!-- &#45;3 -->
<g id="node3" class="node">
<title>&#45;3</title>
<polygon fill="#d3d3d3" stroke="#000000" points="227.4981,-265.6995 203.4932,-265.6995 203.4932,-248.6995 227.4981,-248.6995 227.4981,-265.6995"/>
<text text-anchor="middle" x="215.4957" y="-254.4995" font-family="Times,serif" font-size="9.00" fill="#000000">&#45;3</text>
</g>
<!-- 0 -->
<g id="node4" class="node">
<title>0</title>
<ellipse fill="#add8e6" stroke="#000000" cx="259.4957" cy="-257.1995" rx="14.4914" ry="14.4914"/>
<text text-anchor="middle" x="259.4957" y="-254.4995" font-family="Times,serif" font-size="9.00" fill="#000000">0</text>
</g>
<!-- 2 -->
<g id="node6" class="node">
<title>2</title>
<ellipse fill="#add8e6" stroke="#000000" cx="144.4957" cy="-89.033" rx="14.4914" ry="14.4914"/>
<text text-anchor="middle" x="144.4957" y="-86.333" font-family="Times,serif" font-size="9.00" fill="#000000">2</text>
</g>
<!-- 3 -->
<g id="node7" class="node">
<title>3</title>
<ellipse fill="#add8e6" stroke="#000000" cx="306.4957" cy="-257.1995" rx="14.4914" ry="14.4914"/>
<text text-anchor="middle" x="306.4957" y="-254.4995" font-family="Times,serif" font-size="9.00" fill="#000000">3</text>
</g>
<!-- 4 -->
<g id="node8" class="node">
<title>4</title>
<ellipse fill="#add8e6" stroke="#000000" cx="353.4957" cy="-257.1995" rx="14.4914" ry="14.4914"/>
<text text-anchor="middle" x="353.4957" y="-254.4995" font-family="Times,serif" font-size="9.00" fill="#000000">4</text>
</g>
<!-- 5 -->
<g id="node9" class="node">
<title>5</title>
<ellipse fill="#add8e6" stroke="#000000" cx="400.4957" cy="-257.1995" rx="14.4914" ry="14.4914"/>
<text text-anchor="middle" x="400.4957" y="-254.4995" font-family="Times,serif" font-size="9.00" fill="#000000">5</text>
</g>
<!-- 6 -->
<g id="node10" class="node">
<title>6</title>
<ellipse fill="#add8e6" stroke="#000000" cx="447.4957" cy="-257.1995" rx="14.4914" ry="14.4914"/>
<text text-anchor="middle" x="447.4957" y="-254.4995" font-family="Times,serif" font-size="9.00" fill="#000000">6</text>
</g>
<!-- 8 -->
<g id="node12" class="node">
<title>8</title>
<ellipse fill="#add8e6" stroke="#000000" cx="494.4957" cy="-257.1995" rx="14.4914" ry="14.4914"/>
<text text-anchor="middle" x="494.4957" y="-254.4995" font-family="Times,serif" font-size="9.00" fill="#000000">8</text>
</g>
<!-- 2915 -->
<g id="node13" class="node">
<title>2915</title>
<ellipse fill="#ffffff" stroke="#000000" cx="120.4957" cy="-257.1995" rx="24.0833" ry="24.0833"/>
<text text-anchor="middle" x="120.4957" y="-254.4995" font-family="Times,serif" font-size="9.00" fill="#000000">2915</text>
</g>
<!-- 2638 -->
<g id="node15" class="node">
<title>2638</title>
<ellipse fill="#ffffff" stroke="#000000" cx="120.4957" cy="-173.1163" rx="24.0833" ry="24.0833"/>
<text text-anchor="middle" x="120.4957" y="-170.4163" font-family="Times,serif" font-size="9.00" fill="#000000">2638</text>
</g>
<!-- 2915&#45;&gt;2638 -->
<g id="edge5" class="edge">
<title>2915&#45;&gt;2638</title>
<path fill="none" stroke="#ff0000" stroke-width=".5908" d="M120.4957,-232.8792C120.4957,-224.9483 120.4957,-215.9877 120.4957,-207.4639"/>
<polygon fill="#ff0000" stroke="#ff0000" stroke-width=".5908" points="123.9958,-207.3819 120.4957,-197.382 116.9958,-207.382 123.9958,-207.3819"/>
</g>
<!-- 3041&#45;&gt;7 -->
<g id="edge7" class="edge">
<title>3041&#45;&gt;7</title>
<path fill="none" stroke="#00ff00" stroke-width="1.1158" d="M32.5536,-66.2643C29.4287,-57.3058 25.8418,-47.023 22.6926,-37.9946"/>
<polygon fill="#00ff00" stroke="#00ff00" stroke-width="1.1158" points="25.9692,-36.7611 19.3708,-28.4718 19.3597,-39.0667 25.9692,-36.7611"/>
</g>
<!-- 2638&#45;&gt;1 -->
<g id="edge3" class="edge">
<title>2638&#45;&gt;1</title>
<path fill="none" stroke="#ff0000" stroke-width=".847" d="M114.0889,-149.6944C110.9545,-138.2356 107.1875,-124.4641 104.0354,-112.941"/>
<polygon fill="#ff0000" stroke="#ff0000" stroke-width=".847" points="107.3639,-111.8436 101.3494,-103.1215 100.612,-113.6906 107.3639,-111.8436"/>
</g>
<!-- 2638&#45;&gt;2 -->
<g id="edge4" class="edge">
<title>2638&#45;&gt;2</title>
<path fill="none" stroke="#00ff00" stroke-width=".4431" d="M127.181,-149.6944C130.4517,-138.2356 134.3825,-124.4641 137.6716,-112.941"/>
<polygon fill="#00ff00" stroke="#00ff00" stroke-width=".4431" points="141.0952,-113.6981 140.4744,-103.1215 134.364,-111.7768 141.0952,-113.6981"/>
</g>
</g>
</svg>
