<?xml version="1.0" encoding="UTF-8" standalone="no"?>
<!DOCTYPE svg PUBLIC "-//W3C//DTD SVG 1.1//EN"
 "http://www.w3.org/Graphics/SVG/1.1/DTD/svg11.dtd">
<!-- Generated by graphviz version 2.40.1 (20161225.0304)
 -->
<!-- Title: %3 Pages: 1 -->
<svg width="362pt" height="90pt"
 viewBox="0.00 0.00 362.24 89.99" xmlns="http://www.w3.org/2000/svg" xmlns:xlink="http://www.w3.org/1999/xlink">
<g id="graph0" class="graph" transform="scale(1 1) rotate(0) translate(4 85.9914)">
<title>%3</title>
<polygon fill="#ffffff" stroke="transparent" points="-4,4 -4,-85.9914 358.2442,-85.9914 358.2442,4 -4,4"/>
<!-- &#45;1 -->
<g id="node1" class="node">
<title>&#45;1</title>
<polygon fill="#d3d3d3" stroke="#000000" points="23.751,-81.9914 -.2539,-81.9914 -.2539,-64.9914 23.751,-64.9914 23.751,-81.9914"/>
<text text-anchor="middle" x="11.7485" y="-70.7914" font-family="Times,serif" font-size="9.00" fill="#000000">&#45;1</text>
</g>
<!-- &#45;2 -->
<g id="node2" class="node">
<title>&#45;2</title>
<polygon fill="#d3d3d3" stroke="#000000" points="64.751,-81.9914 40.7461,-81.9914 40.7461,-64.9914 64.751,-64.9914 64.751,-81.9914"/>
<text text-anchor="middle" x="52.7485" y="-70.7914" font-family="Times,serif" font-size="9.00" fill="#000000">&#45;2</text>
</g>
<!-- &#45;3 -->
<g id="node3" class="node">
<title>&#45;3</title>
<polygon fill="#d3d3d3" stroke="#000000" points="105.751,-81.9914 81.7461,-81.9914 81.7461,-64.9914 105.751,-64.9914 105.751,-81.9914"/>
<text text-anchor="middle" x="93.7485" y="-70.7914" font-family="Times,serif" font-size="9.00" fill="#000000">&#45;3</text>
</g>
<!-- 1 -->
<g id="node11" class="node">
<title>1</title>
<ellipse fill="#add8e6" stroke="#000000" cx="93.7485" cy="-14.4957" rx="14.4914" ry="14.4914"/>
<text text-anchor="middle" x="93.7485" y="-11.7957" font-family="Times,serif" font-size="9.00" fill="#000000">1</text>
</g>
<!-- &#45;3&#45;&gt;1 -->
<g id="edge3" class="edge">
<title>&#45;3&#45;&gt;1</title>
<path fill="none" stroke="#ff0000" stroke-width=".1919" d="M93.7485,-64.7864C93.7485,-58.0594 93.7485,-48.3972 93.7485,-39.3363"/>
<polygon fill="#ff0000" stroke="#ff0000" stroke-width=".1919" points="97.2486,-39.1879 93.7485,-29.1879 90.2486,-39.1879 97.2486,-39.1879"/>
</g>
<!-- &#45;4 -->
<g id="node4" class="node">
<title>&#45;4</title>
<polygon fill="#d3d3d3" stroke="#000000" points="146.751,-81.9914 122.7461,-81.9914 122.7461,-64.9914 146.751,-64.9914 146.751,-81.9914"/>
<text text-anchor="middle" x="134.7485" y="-70.7914" font-family="Times,serif" font-size="9.00" fill="#000000">&#45;4</text>
</g>
<!-- &#45;5 -->
<g id="node5" class="node">
<title>&#45;5</title>
<polygon fill="#d3d3d3" stroke="#000000" points="187.751,-81.9914 163.7461,-81.9914 163.7461,-64.9914 187.751,-64.9914 187.751,-81.9914"/>
<text text-anchor="middle" x="175.7485" y="-70.7914" font-family="Times,serif" font-size="9.00" fill="#000000">&#45;5</text>
</g>
<!-- 0 -->
<g id="node10" class="node">
<title>0</title>
<ellipse fill="#add8e6" stroke="#000000" cx="195.7485" cy="-14.4957" rx="14.4914" ry="14.4914"/>
<text text-anchor="middle" x="195.7485" y="-11.7957" font-family="Times,serif" font-size="9.00" fill="#000000">0</text>
</g>
<!-- &#45;5&#45;&gt;0 -->
<g id="edge4" class="edge">
<title>&#45;5&#45;&gt;0</title>
<path fill="none" stroke="#ff0000" stroke-width=".3142" d="M178.6996,-64.7864C181.0935,-57.7249 184.5839,-47.4289 187.784,-37.9894"/>
<polygon fill="#ff0000" stroke="#ff0000" stroke-width=".3142" points="191.1808,-38.8707 191.0768,-28.2764 184.5514,-36.6232 191.1808,-38.8707"/>
</g>
<!-- &#45;6 -->
<g id="node6" class="node">
<title>&#45;6</title>
<polygon fill="#d3d3d3" stroke="#000000" points="269.751,-81.9914 245.7461,-81.9914 245.7461,-64.9914 269.751,-64.9914 269.751,-81.9914"/>
<text text-anchor="middle" x="257.7485" y="-70.7914" font-family="Times,serif" font-size="9.00" fill="#000000">&#45;6</text>
</g>
<!-- &#45;7 -->
<g id="node7" class="node">
<title>&#45;7</title>
<polygon fill="#d3d3d3" stroke="#000000" points="310.751,-81.9914 286.7461,-81.9914 286.7461,-64.9914 310.751,-64.9914 310.751,-81.9914"/>
<text text-anchor="middle" x="298.7485" y="-70.7914" font-family="Times,serif" font-size="9.00" fill="#000000">&#45;7</text>
</g>
<!-- &#45;8 -->
<g id="node8" class="node">
<title>&#45;8</title>
<polygon fill="#d3d3d3" stroke="#000000" points="228.751,-81.9914 204.7461,-81.9914 204.7461,-64.9914 228.751,-64.9914 228.751,-81.9914"/>
<text text-anchor="middle" x="216.7485" y="-70.7914" font-family="Times,serif" font-size="9.00" fill="#000000">&#45;8</text>
</g>
<!-- &#45;8&#45;&gt;0 -->
<g id="edge1" class="edge">
<title>&#45;8&#45;&gt;0</title>
<path fill="none" stroke="#00ff00" stroke-width=".2373" d="M213.6499,-64.7864C211.1363,-57.7249 207.4714,-47.4289 204.1113,-37.9894"/>
<polygon fill="#00ff00" stroke="#00ff00" stroke-width=".2373" points="207.3047,-36.5236 200.6539,-28.2764 200.7101,-38.871 207.3047,-36.5236"/>
</g>
<!-- &#45;9 -->
<g id="node9" class="node">
<title>&#45;9</title>
<polygon fill="#d3d3d3" stroke="#000000" points="351.751,-81.9914 327.7461,-81.9914 327.7461,-64.9914 351.751,-64.9914 351.751,-81.9914"/>
<text text-anchor="middle" x="339.7485" y="-70.7914" font-family="Times,serif" font-size="9.00" fill="#000000">&#45;9</text>
</g>
<!-- 2 -->
<g id="node12" class="node">
<title>2</title>
<ellipse fill="#add8e6" stroke="#000000" cx="339.7485" cy="-14.4957" rx="14.4914" ry="14.4914"/>
<text text-anchor="middle" x="339.7485" y="-11.7957" font-family="Times,serif" font-size="9.00" fill="#000000">2</text>
</g>
<!-- &#45;9&#45;&gt;2 -->
<g id="edge2" class="edge">
<title>&#45;9&#45;&gt;2</title>
<path fill="none" stroke="#00ff00" stroke-width=".3297" d="M339.7485,-64.7864C339.7485,-58.0594 339.7485,-48.3972 339.7485,-39.3363"/>
<polygon fill="#00ff00" stroke="#00ff00" stroke-width=".3297" points="343.2486,-39.1879 339.7485,-29.1879 336.2486,-39.1879 343.2486,-39.1879"/>
</g>
</g>
</svg>
