<?xml version="1.0" encoding="utf-8" standalone="no"?>
<!DOCTYPE svg PUBLIC "-//W3C//DTD SVG 1.1//EN"
  "http://www.w3.org/Graphics/SVG/1.1/DTD/svg11.dtd">
<!-- Created with matplotlib (https://matplotlib.org/) -->
<svg height="345.6pt" version="1.1" viewBox="0 0 460.8 345.6" width="460.8pt" xmlns="http://www.w3.org/2000/svg" xmlns:xlink="http://www.w3.org/1999/xlink">
 <defs>
  <style type="text/css">
*{stroke-linecap:butt;stroke-linejoin:round;}
  </style>
 </defs>
 <g id="figure_1">
  <g id="patch_1">
   <path d="M 0 345.6 
L 460.8 345.6 
L 460.8 0 
L 0 0 
z
" style="fill:#ffffff;"/>
  </g>
  <g id="axes_1">
   <g id="patch_2">
    <path d="M 57.6 307.584 
L 414.72 307.584 
L 414.72 41.472 
L 57.6 41.472 
z
" style="fill:#ffffff;"/>
   </g>
   <g id="matplotlib.axis_1">
    <g id="xtick_1">
     <g id="line2d_1">
      <path clip-path="url(#p88f41d1a93)" d="M 73.832727 307.584 
L 73.832727 41.472 
" style="fill:none;stroke:#b0b0b0;stroke-linecap:square;stroke-width:0.8;"/>
     </g>
     <g id="line2d_2">
      <defs>
       <path d="M 0 0 
L 0 3.5 
" id="mef46250c3e" style="stroke:#000000;stroke-width:0.8;"/>
      </defs>
      <g>
       <use style="stroke:#000000;stroke-width:0.8;" x="73.832727" xlink:href="#mef46250c3e" y="307.584"/>
      </g>
     </g>
     <g id="text_1">
      <!-- 0 -->
      <defs>
       <path d="M 31.78125 66.40625 
Q 24.171875 66.40625 20.328125 58.90625 
Q 16.5 51.421875 16.5 36.375 
Q 16.5 21.390625 20.328125 13.890625 
Q 24.171875 6.390625 31.78125 6.390625 
Q 39.453125 6.390625 43.28125 13.890625 
Q 47.125 21.390625 47.125 36.375 
Q 47.125 51.421875 43.28125 58.90625 
Q 39.453125 66.40625 31.78125 66.40625 
z
M 31.78125 74.21875 
Q 44.046875 74.21875 50.515625 64.515625 
Q 56.984375 54.828125 56.984375 36.375 
Q 56.984375 17.96875 50.515625 8.265625 
Q 44.046875 -1.421875 31.78125 -1.421875 
Q 19.53125 -1.421875 13.0625 8.265625 
Q 6.59375 17.96875 6.59375 36.375 
Q 6.59375 54.828125 13.0625 64.515625 
Q 19.53125 74.21875 31.78125 74.21875 
z
" id="DejaVuSans-48"/>
      </defs>
      <g transform="translate(70.651477 322.182437)scale(0.1 -0.1)">
       <use xlink:href="#DejaVuSans-48"/>
      </g>
     </g>
    </g>
    <g id="xtick_2">
     <g id="line2d_3">
      <path clip-path="url(#p88f41d1a93)" d="M 128.122785 307.584 
L 128.122785 41.472 
" style="fill:none;stroke:#b0b0b0;stroke-linecap:square;stroke-width:0.8;"/>
     </g>
     <g id="line2d_4">
      <g>
       <use style="stroke:#000000;stroke-width:0.8;" x="128.122785" xlink:href="#mef46250c3e" y="307.584"/>
      </g>
     </g>
     <g id="text_2">
      <!-- 50 -->
      <defs>
       <path d="M 10.796875 72.90625 
L 49.515625 72.90625 
L 49.515625 64.59375 
L 19.828125 64.59375 
L 19.828125 46.734375 
Q 21.96875 47.46875 24.109375 47.828125 
Q 26.265625 48.1875 28.421875 48.1875 
Q 40.625 48.1875 47.75 41.5 
Q 54.890625 34.8125 54.890625 23.390625 
Q 54.890625 11.625 47.5625 5.09375 
Q 40.234375 -1.421875 26.90625 -1.421875 
Q 22.3125 -1.421875 17.546875 -0.640625 
Q 12.796875 0.140625 7.71875 1.703125 
L 7.71875 11.625 
Q 12.109375 9.234375 16.796875 8.0625 
Q 21.484375 6.890625 26.703125 6.890625 
Q 35.15625 6.890625 40.078125 11.328125 
Q 45.015625 15.765625 45.015625 23.390625 
Q 45.015625 31 40.078125 35.4375 
Q 35.15625 39.890625 26.703125 39.890625 
Q 22.75 39.890625 18.8125 39.015625 
Q 14.890625 38.140625 10.796875 36.28125 
z
" id="DejaVuSans-53"/>
      </defs>
      <g transform="translate(121.760285 322.182437)scale(0.1 -0.1)">
       <use xlink:href="#DejaVuSans-53"/>
       <use x="63.623047" xlink:href="#DejaVuSans-48"/>
      </g>
     </g>
    </g>
    <g id="xtick_3">
     <g id="line2d_5">
      <path clip-path="url(#p88f41d1a93)" d="M 182.412843 307.584 
L 182.412843 41.472 
" style="fill:none;stroke:#b0b0b0;stroke-linecap:square;stroke-width:0.8;"/>
     </g>
     <g id="line2d_6">
      <g>
       <use style="stroke:#000000;stroke-width:0.8;" x="182.412843" xlink:href="#mef46250c3e" y="307.584"/>
      </g>
     </g>
     <g id="text_3">
      <!-- 100 -->
      <defs>
       <path d="M 12.40625 8.296875 
L 28.515625 8.296875 
L 28.515625 63.921875 
L 10.984375 60.40625 
L 10.984375 69.390625 
L 28.421875 72.90625 
L 38.28125 72.90625 
L 38.28125 8.296875 
L 54.390625 8.296875 
L 54.390625 0 
L 12.40625 0 
z
" id="DejaVuSans-49"/>
      </defs>
      <g transform="translate(172.869093 322.182437)scale(0.1 -0.1)">
       <use xlink:href="#DejaVuSans-49"/>
       <use x="63.623047" xlink:href="#DejaVuSans-48"/>
       <use x="127.246094" xlink:href="#DejaVuSans-48"/>
      </g>
     </g>
    </g>
    <g id="xtick_4">
     <g id="line2d_7">
      <path clip-path="url(#p88f41d1a93)" d="M 236.702901 307.584 
L 236.702901 41.472 
" style="fill:none;stroke:#b0b0b0;stroke-linecap:square;stroke-width:0.8;"/>
     </g>
     <g id="line2d_8">
      <g>
       <use style="stroke:#000000;stroke-width:0.8;" x="236.702901" xlink:href="#mef46250c3e" y="307.584"/>
      </g>
     </g>
     <g id="text_4">
      <!-- 150 -->
      <g transform="translate(227.159151 322.182437)scale(0.1 -0.1)">
       <use xlink:href="#DejaVuSans-49"/>
       <use x="63.623047" xlink:href="#DejaVuSans-53"/>
       <use x="127.246094" xlink:href="#DejaVuSans-48"/>
      </g>
     </g>
    </g>
    <g id="xtick_5">
     <g id="line2d_9">
      <path clip-path="url(#p88f41d1a93)" d="M 290.992958 307.584 
L 290.992958 41.472 
" style="fill:none;stroke:#b0b0b0;stroke-linecap:square;stroke-width:0.8;"/>
     </g>
     <g id="line2d_10">
      <g>
       <use style="stroke:#000000;stroke-width:0.8;" x="290.992958" xlink:href="#mef46250c3e" y="307.584"/>
      </g>
     </g>
     <g id="text_5">
      <!-- 200 -->
      <defs>
       <path d="M 19.1875 8.296875 
L 53.609375 8.296875 
L 53.609375 0 
L 7.328125 0 
L 7.328125 8.296875 
Q 12.9375 14.109375 22.625 23.890625 
Q 32.328125 33.6875 34.8125 36.53125 
Q 39.546875 41.84375 41.421875 45.53125 
Q 43.3125 49.21875 43.3125 52.78125 
Q 43.3125 58.59375 39.234375 62.25 
Q 35.15625 65.921875 28.609375 65.921875 
Q 23.96875 65.921875 18.8125 64.3125 
Q 13.671875 62.703125 7.8125 59.421875 
L 7.8125 69.390625 
Q 13.765625 71.78125 18.9375 73 
Q 24.125 74.21875 28.421875 74.21875 
Q 39.75 74.21875 46.484375 68.546875 
Q 53.21875 62.890625 53.21875 53.421875 
Q 53.21875 48.921875 51.53125 44.890625 
Q 49.859375 40.875 45.40625 35.40625 
Q 44.1875 33.984375 37.640625 27.21875 
Q 31.109375 20.453125 19.1875 8.296875 
z
" id="DejaVuSans-50"/>
      </defs>
      <g transform="translate(281.449208 322.182437)scale(0.1 -0.1)">
       <use xlink:href="#DejaVuSans-50"/>
       <use x="63.623047" xlink:href="#DejaVuSans-48"/>
       <use x="127.246094" xlink:href="#DejaVuSans-48"/>
      </g>
     </g>
    </g>
    <g id="xtick_6">
     <g id="line2d_11">
      <path clip-path="url(#p88f41d1a93)" d="M 345.283016 307.584 
L 345.283016 41.472 
" style="fill:none;stroke:#b0b0b0;stroke-linecap:square;stroke-width:0.8;"/>
     </g>
     <g id="line2d_12">
      <g>
       <use style="stroke:#000000;stroke-width:0.8;" x="345.283016" xlink:href="#mef46250c3e" y="307.584"/>
      </g>
     </g>
     <g id="text_6">
      <!-- 250 -->
      <g transform="translate(335.739266 322.182437)scale(0.1 -0.1)">
       <use xlink:href="#DejaVuSans-50"/>
       <use x="63.623047" xlink:href="#DejaVuSans-53"/>
       <use x="127.246094" xlink:href="#DejaVuSans-48"/>
      </g>
     </g>
    </g>
    <g id="xtick_7">
     <g id="line2d_13">
      <path clip-path="url(#p88f41d1a93)" d="M 399.573074 307.584 
L 399.573074 41.472 
" style="fill:none;stroke:#b0b0b0;stroke-linecap:square;stroke-width:0.8;"/>
     </g>
     <g id="line2d_14">
      <g>
       <use style="stroke:#000000;stroke-width:0.8;" x="399.573074" xlink:href="#mef46250c3e" y="307.584"/>
      </g>
     </g>
     <g id="text_7">
      <!-- 300 -->
      <defs>
       <path d="M 40.578125 39.3125 
Q 47.65625 37.796875 51.625 33 
Q 55.609375 28.21875 55.609375 21.1875 
Q 55.609375 10.40625 48.1875 4.484375 
Q 40.765625 -1.421875 27.09375 -1.421875 
Q 22.515625 -1.421875 17.65625 -0.515625 
Q 12.796875 0.390625 7.625 2.203125 
L 7.625 11.71875 
Q 11.71875 9.328125 16.59375 8.109375 
Q 21.484375 6.890625 26.8125 6.890625 
Q 36.078125 6.890625 40.9375 10.546875 
Q 45.796875 14.203125 45.796875 21.1875 
Q 45.796875 27.640625 41.28125 31.265625 
Q 36.765625 34.90625 28.71875 34.90625 
L 20.21875 34.90625 
L 20.21875 43.015625 
L 29.109375 43.015625 
Q 36.375 43.015625 40.234375 45.921875 
Q 44.09375 48.828125 44.09375 54.296875 
Q 44.09375 59.90625 40.109375 62.90625 
Q 36.140625 65.921875 28.71875 65.921875 
Q 24.65625 65.921875 20.015625 65.03125 
Q 15.375 64.15625 9.8125 62.3125 
L 9.8125 71.09375 
Q 15.4375 72.65625 20.34375 73.4375 
Q 25.25 74.21875 29.59375 74.21875 
Q 40.828125 74.21875 47.359375 69.109375 
Q 53.90625 64.015625 53.90625 55.328125 
Q 53.90625 49.265625 50.4375 45.09375 
Q 46.96875 40.921875 40.578125 39.3125 
z
" id="DejaVuSans-51"/>
      </defs>
      <g transform="translate(390.029324 322.182437)scale(0.1 -0.1)">
       <use xlink:href="#DejaVuSans-51"/>
       <use x="63.623047" xlink:href="#DejaVuSans-48"/>
       <use x="127.246094" xlink:href="#DejaVuSans-48"/>
      </g>
     </g>
    </g>
    <g id="text_8">
     <!-- Generations -->
     <defs>
      <path d="M 59.515625 10.40625 
L 59.515625 29.984375 
L 43.40625 29.984375 
L 43.40625 38.09375 
L 69.28125 38.09375 
L 69.28125 6.78125 
Q 63.578125 2.734375 56.6875 0.65625 
Q 49.8125 -1.421875 42 -1.421875 
Q 24.90625 -1.421875 15.25 8.5625 
Q 5.609375 18.5625 5.609375 36.375 
Q 5.609375 54.25 15.25 64.234375 
Q 24.90625 74.21875 42 74.21875 
Q 49.125 74.21875 55.546875 72.453125 
Q 61.96875 70.703125 67.390625 67.28125 
L 67.390625 56.78125 
Q 61.921875 61.421875 55.765625 63.765625 
Q 49.609375 66.109375 42.828125 66.109375 
Q 29.4375 66.109375 22.71875 58.640625 
Q 16.015625 51.171875 16.015625 36.375 
Q 16.015625 21.625 22.71875 14.15625 
Q 29.4375 6.6875 42.828125 6.6875 
Q 48.046875 6.6875 52.140625 7.59375 
Q 56.25 8.5 59.515625 10.40625 
z
" id="DejaVuSans-71"/>
      <path d="M 56.203125 29.59375 
L 56.203125 25.203125 
L 14.890625 25.203125 
Q 15.484375 15.921875 20.484375 11.0625 
Q 25.484375 6.203125 34.421875 6.203125 
Q 39.59375 6.203125 44.453125 7.46875 
Q 49.3125 8.734375 54.109375 11.28125 
L 54.109375 2.78125 
Q 49.265625 0.734375 44.1875 -0.34375 
Q 39.109375 -1.421875 33.890625 -1.421875 
Q 20.796875 -1.421875 13.15625 6.1875 
Q 5.515625 13.8125 5.515625 26.8125 
Q 5.515625 40.234375 12.765625 48.109375 
Q 20.015625 56 32.328125 56 
Q 43.359375 56 49.78125 48.890625 
Q 56.203125 41.796875 56.203125 29.59375 
z
M 47.21875 32.234375 
Q 47.125 39.59375 43.09375 43.984375 
Q 39.0625 48.390625 32.421875 48.390625 
Q 24.90625 48.390625 20.390625 44.140625 
Q 15.875 39.890625 15.1875 32.171875 
z
" id="DejaVuSans-101"/>
      <path d="M 54.890625 33.015625 
L 54.890625 0 
L 45.90625 0 
L 45.90625 32.71875 
Q 45.90625 40.484375 42.875 44.328125 
Q 39.84375 48.1875 33.796875 48.1875 
Q 26.515625 48.1875 22.3125 43.546875 
Q 18.109375 38.921875 18.109375 30.90625 
L 18.109375 0 
L 9.078125 0 
L 9.078125 54.6875 
L 18.109375 54.6875 
L 18.109375 46.1875 
Q 21.34375 51.125 25.703125 53.5625 
Q 30.078125 56 35.796875 56 
Q 45.21875 56 50.046875 50.171875 
Q 54.890625 44.34375 54.890625 33.015625 
z
" id="DejaVuSans-110"/>
      <path d="M 41.109375 46.296875 
Q 39.59375 47.171875 37.8125 47.578125 
Q 36.03125 48 33.890625 48 
Q 26.265625 48 22.1875 43.046875 
Q 18.109375 38.09375 18.109375 28.8125 
L 18.109375 0 
L 9.078125 0 
L 9.078125 54.6875 
L 18.109375 54.6875 
L 18.109375 46.1875 
Q 20.953125 51.171875 25.484375 53.578125 
Q 30.03125 56 36.53125 56 
Q 37.453125 56 38.578125 55.875 
Q 39.703125 55.765625 41.0625 55.515625 
z
" id="DejaVuSans-114"/>
      <path d="M 34.28125 27.484375 
Q 23.390625 27.484375 19.1875 25 
Q 14.984375 22.515625 14.984375 16.5 
Q 14.984375 11.71875 18.140625 8.90625 
Q 21.296875 6.109375 26.703125 6.109375 
Q 34.1875 6.109375 38.703125 11.40625 
Q 43.21875 16.703125 43.21875 25.484375 
L 43.21875 27.484375 
z
M 52.203125 31.203125 
L 52.203125 0 
L 43.21875 0 
L 43.21875 8.296875 
Q 40.140625 3.328125 35.546875 0.953125 
Q 30.953125 -1.421875 24.3125 -1.421875 
Q 15.921875 -1.421875 10.953125 3.296875 
Q 6 8.015625 6 15.921875 
Q 6 25.140625 12.171875 29.828125 
Q 18.359375 34.515625 30.609375 34.515625 
L 43.21875 34.515625 
L 43.21875 35.40625 
Q 43.21875 41.609375 39.140625 45 
Q 35.0625 48.390625 27.6875 48.390625 
Q 23 48.390625 18.546875 47.265625 
Q 14.109375 46.140625 10.015625 43.890625 
L 10.015625 52.203125 
Q 14.9375 54.109375 19.578125 55.046875 
Q 24.21875 56 28.609375 56 
Q 40.484375 56 46.34375 49.84375 
Q 52.203125 43.703125 52.203125 31.203125 
z
" id="DejaVuSans-97"/>
      <path d="M 18.3125 70.21875 
L 18.3125 54.6875 
L 36.8125 54.6875 
L 36.8125 47.703125 
L 18.3125 47.703125 
L 18.3125 18.015625 
Q 18.3125 11.328125 20.140625 9.421875 
Q 21.96875 7.515625 27.59375 7.515625 
L 36.8125 7.515625 
L 36.8125 0 
L 27.59375 0 
Q 17.1875 0 13.234375 3.875 
Q 9.28125 7.765625 9.28125 18.015625 
L 9.28125 47.703125 
L 2.6875 47.703125 
L 2.6875 54.6875 
L 9.28125 54.6875 
L 9.28125 70.21875 
z
" id="DejaVuSans-116"/>
      <path d="M 9.421875 54.6875 
L 18.40625 54.6875 
L 18.40625 0 
L 9.421875 0 
z
M 9.421875 75.984375 
L 18.40625 75.984375 
L 18.40625 64.59375 
L 9.421875 64.59375 
z
" id="DejaVuSans-105"/>
      <path d="M 30.609375 48.390625 
Q 23.390625 48.390625 19.1875 42.75 
Q 14.984375 37.109375 14.984375 27.296875 
Q 14.984375 17.484375 19.15625 11.84375 
Q 23.34375 6.203125 30.609375 6.203125 
Q 37.796875 6.203125 41.984375 11.859375 
Q 46.1875 17.53125 46.1875 27.296875 
Q 46.1875 37.015625 41.984375 42.703125 
Q 37.796875 48.390625 30.609375 48.390625 
z
M 30.609375 56 
Q 42.328125 56 49.015625 48.375 
Q 55.71875 40.765625 55.71875 27.296875 
Q 55.71875 13.875 49.015625 6.21875 
Q 42.328125 -1.421875 30.609375 -1.421875 
Q 18.84375 -1.421875 12.171875 6.21875 
Q 5.515625 13.875 5.515625 27.296875 
Q 5.515625 40.765625 12.171875 48.375 
Q 18.84375 56 30.609375 56 
z
" id="DejaVuSans-111"/>
      <path d="M 44.28125 53.078125 
L 44.28125 44.578125 
Q 40.484375 46.53125 36.375 47.5 
Q 32.28125 48.484375 27.875 48.484375 
Q 21.1875 48.484375 17.84375 46.4375 
Q 14.5 44.390625 14.5 40.28125 
Q 14.5 37.15625 16.890625 35.375 
Q 19.28125 33.59375 26.515625 31.984375 
L 29.59375 31.296875 
Q 39.15625 29.25 43.1875 25.515625 
Q 47.21875 21.78125 47.21875 15.09375 
Q 47.21875 7.46875 41.1875 3.015625 
Q 35.15625 -1.421875 24.609375 -1.421875 
Q 20.21875 -1.421875 15.453125 -0.5625 
Q 10.6875 0.296875 5.421875 2 
L 5.421875 11.28125 
Q 10.40625 8.6875 15.234375 7.390625 
Q 20.0625 6.109375 24.8125 6.109375 
Q 31.15625 6.109375 34.5625 8.28125 
Q 37.984375 10.453125 37.984375 14.40625 
Q 37.984375 18.0625 35.515625 20.015625 
Q 33.0625 21.96875 24.703125 23.78125 
L 21.578125 24.515625 
Q 13.234375 26.265625 9.515625 29.90625 
Q 5.8125 33.546875 5.8125 39.890625 
Q 5.8125 47.609375 11.28125 51.796875 
Q 16.75 56 26.8125 56 
Q 31.78125 56 36.171875 55.265625 
Q 40.578125 54.546875 44.28125 53.078125 
z
" id="DejaVuSans-115"/>
     </defs>
     <g transform="translate(205.662344 335.860562)scale(0.1 -0.1)">
      <use xlink:href="#DejaVuSans-71"/>
      <use x="77.490234" xlink:href="#DejaVuSans-101"/>
      <use x="139.013672" xlink:href="#DejaVuSans-110"/>
      <use x="202.392578" xlink:href="#DejaVuSans-101"/>
      <use x="263.916016" xlink:href="#DejaVuSans-114"/>
      <use x="305.029297" xlink:href="#DejaVuSans-97"/>
      <use x="366.308594" xlink:href="#DejaVuSans-116"/>
      <use x="405.517578" xlink:href="#DejaVuSans-105"/>
      <use x="433.300781" xlink:href="#DejaVuSans-111"/>
      <use x="494.482422" xlink:href="#DejaVuSans-110"/>
      <use x="557.861328" xlink:href="#DejaVuSans-115"/>
     </g>
    </g>
   </g>
   <g id="matplotlib.axis_2">
    <g id="ytick_1">
     <g id="line2d_15">
      <path clip-path="url(#p88f41d1a93)" d="M 57.6 295.713802 
L 414.72 295.713802 
" style="fill:none;stroke:#b0b0b0;stroke-linecap:square;stroke-width:0.8;"/>
     </g>
     <g id="line2d_16">
      <defs>
       <path d="M 0 0 
L -3.5 0 
" id="m80137ca3cd" style="stroke:#000000;stroke-width:0.8;"/>
      </defs>
      <g>
       <use style="stroke:#000000;stroke-width:0.8;" x="57.6" xlink:href="#m80137ca3cd" y="295.713802"/>
      </g>
     </g>
     <g id="text_9">
      <!-- 200 -->
      <g transform="translate(31.5125 299.513021)scale(0.1 -0.1)">
       <use xlink:href="#DejaVuSans-50"/>
       <use x="63.623047" xlink:href="#DejaVuSans-48"/>
       <use x="127.246094" xlink:href="#DejaVuSans-48"/>
      </g>
     </g>
    </g>
    <g id="ytick_2">
     <g id="line2d_17">
      <path clip-path="url(#p88f41d1a93)" d="M 57.6 259.191464 
L 414.72 259.191464 
" style="fill:none;stroke:#b0b0b0;stroke-linecap:square;stroke-width:0.8;"/>
     </g>
     <g id="line2d_18">
      <g>
       <use style="stroke:#000000;stroke-width:0.8;" x="57.6" xlink:href="#m80137ca3cd" y="259.191464"/>
      </g>
     </g>
     <g id="text_10">
      <!-- 400 -->
      <defs>
       <path d="M 37.796875 64.3125 
L 12.890625 25.390625 
L 37.796875 25.390625 
z
M 35.203125 72.90625 
L 47.609375 72.90625 
L 47.609375 25.390625 
L 58.015625 25.390625 
L 58.015625 17.1875 
L 47.609375 17.1875 
L 47.609375 0 
L 37.796875 0 
L 37.796875 17.1875 
L 4.890625 17.1875 
L 4.890625 26.703125 
z
" id="DejaVuSans-52"/>
      </defs>
      <g transform="translate(31.5125 262.990683)scale(0.1 -0.1)">
       <use xlink:href="#DejaVuSans-52"/>
       <use x="63.623047" xlink:href="#DejaVuSans-48"/>
       <use x="127.246094" xlink:href="#DejaVuSans-48"/>
      </g>
     </g>
    </g>
    <g id="ytick_3">
     <g id="line2d_19">
      <path clip-path="url(#p88f41d1a93)" d="M 57.6 222.669126 
L 414.72 222.669126 
" style="fill:none;stroke:#b0b0b0;stroke-linecap:square;stroke-width:0.8;"/>
     </g>
     <g id="line2d_20">
      <g>
       <use style="stroke:#000000;stroke-width:0.8;" x="57.6" xlink:href="#m80137ca3cd" y="222.669126"/>
      </g>
     </g>
     <g id="text_11">
      <!-- 600 -->
      <defs>
       <path d="M 33.015625 40.375 
Q 26.375 40.375 22.484375 35.828125 
Q 18.609375 31.296875 18.609375 23.390625 
Q 18.609375 15.53125 22.484375 10.953125 
Q 26.375 6.390625 33.015625 6.390625 
Q 39.65625 6.390625 43.53125 10.953125 
Q 47.40625 15.53125 47.40625 23.390625 
Q 47.40625 31.296875 43.53125 35.828125 
Q 39.65625 40.375 33.015625 40.375 
z
M 52.59375 71.296875 
L 52.59375 62.3125 
Q 48.875 64.0625 45.09375 64.984375 
Q 41.3125 65.921875 37.59375 65.921875 
Q 27.828125 65.921875 22.671875 59.328125 
Q 17.53125 52.734375 16.796875 39.40625 
Q 19.671875 43.65625 24.015625 45.921875 
Q 28.375 48.1875 33.59375 48.1875 
Q 44.578125 48.1875 50.953125 41.515625 
Q 57.328125 34.859375 57.328125 23.390625 
Q 57.328125 12.15625 50.6875 5.359375 
Q 44.046875 -1.421875 33.015625 -1.421875 
Q 20.359375 -1.421875 13.671875 8.265625 
Q 6.984375 17.96875 6.984375 36.375 
Q 6.984375 53.65625 15.1875 63.9375 
Q 23.390625 74.21875 37.203125 74.21875 
Q 40.921875 74.21875 44.703125 73.484375 
Q 48.484375 72.75 52.59375 71.296875 
z
" id="DejaVuSans-54"/>
      </defs>
      <g transform="translate(31.5125 226.468345)scale(0.1 -0.1)">
       <use xlink:href="#DejaVuSans-54"/>
       <use x="63.623047" xlink:href="#DejaVuSans-48"/>
       <use x="127.246094" xlink:href="#DejaVuSans-48"/>
      </g>
     </g>
    </g>
    <g id="ytick_4">
     <g id="line2d_21">
      <path clip-path="url(#p88f41d1a93)" d="M 57.6 186.146788 
L 414.72 186.146788 
" style="fill:none;stroke:#b0b0b0;stroke-linecap:square;stroke-width:0.8;"/>
     </g>
     <g id="line2d_22">
      <g>
       <use style="stroke:#000000;stroke-width:0.8;" x="57.6" xlink:href="#m80137ca3cd" y="186.146788"/>
      </g>
     </g>
     <g id="text_12">
      <!-- 800 -->
      <defs>
       <path d="M 31.78125 34.625 
Q 24.75 34.625 20.71875 30.859375 
Q 16.703125 27.09375 16.703125 20.515625 
Q 16.703125 13.921875 20.71875 10.15625 
Q 24.75 6.390625 31.78125 6.390625 
Q 38.8125 6.390625 42.859375 10.171875 
Q 46.921875 13.96875 46.921875 20.515625 
Q 46.921875 27.09375 42.890625 30.859375 
Q 38.875 34.625 31.78125 34.625 
z
M 21.921875 38.8125 
Q 15.578125 40.375 12.03125 44.71875 
Q 8.5 49.078125 8.5 55.328125 
Q 8.5 64.0625 14.71875 69.140625 
Q 20.953125 74.21875 31.78125 74.21875 
Q 42.671875 74.21875 48.875 69.140625 
Q 55.078125 64.0625 55.078125 55.328125 
Q 55.078125 49.078125 51.53125 44.71875 
Q 48 40.375 41.703125 38.8125 
Q 48.828125 37.15625 52.796875 32.3125 
Q 56.78125 27.484375 56.78125 20.515625 
Q 56.78125 9.90625 50.3125 4.234375 
Q 43.84375 -1.421875 31.78125 -1.421875 
Q 19.734375 -1.421875 13.25 4.234375 
Q 6.78125 9.90625 6.78125 20.515625 
Q 6.78125 27.484375 10.78125 32.3125 
Q 14.796875 37.15625 21.921875 38.8125 
z
M 18.3125 54.390625 
Q 18.3125 48.734375 21.84375 45.5625 
Q 25.390625 42.390625 31.78125 42.390625 
Q 38.140625 42.390625 41.71875 45.5625 
Q 45.3125 48.734375 45.3125 54.390625 
Q 45.3125 60.0625 41.71875 63.234375 
Q 38.140625 66.40625 31.78125 66.40625 
Q 25.390625 66.40625 21.84375 63.234375 
Q 18.3125 60.0625 18.3125 54.390625 
z
" id="DejaVuSans-56"/>
      </defs>
      <g transform="translate(31.5125 189.946007)scale(0.1 -0.1)">
       <use xlink:href="#DejaVuSans-56"/>
       <use x="63.623047" xlink:href="#DejaVuSans-48"/>
       <use x="127.246094" xlink:href="#DejaVuSans-48"/>
      </g>
     </g>
    </g>
    <g id="ytick_5">
     <g id="line2d_23">
      <path clip-path="url(#p88f41d1a93)" d="M 57.6 149.62445 
L 414.72 149.62445 
" style="fill:none;stroke:#b0b0b0;stroke-linecap:square;stroke-width:0.8;"/>
     </g>
     <g id="line2d_24">
      <g>
       <use style="stroke:#000000;stroke-width:0.8;" x="57.6" xlink:href="#m80137ca3cd" y="149.62445"/>
      </g>
     </g>
     <g id="text_13">
      <!-- 1000 -->
      <g transform="translate(25.15 153.423669)scale(0.1 -0.1)">
       <use xlink:href="#DejaVuSans-49"/>
       <use x="63.623047" xlink:href="#DejaVuSans-48"/>
       <use x="127.246094" xlink:href="#DejaVuSans-48"/>
       <use x="190.869141" xlink:href="#DejaVuSans-48"/>
      </g>
     </g>
    </g>
    <g id="ytick_6">
     <g id="line2d_25">
      <path clip-path="url(#p88f41d1a93)" d="M 57.6 113.102112 
L 414.72 113.102112 
" style="fill:none;stroke:#b0b0b0;stroke-linecap:square;stroke-width:0.8;"/>
     </g>
     <g id="line2d_26">
      <g>
       <use style="stroke:#000000;stroke-width:0.8;" x="57.6" xlink:href="#m80137ca3cd" y="113.102112"/>
      </g>
     </g>
     <g id="text_14">
      <!-- 1200 -->
      <g transform="translate(25.15 116.901331)scale(0.1 -0.1)">
       <use xlink:href="#DejaVuSans-49"/>
       <use x="63.623047" xlink:href="#DejaVuSans-50"/>
       <use x="127.246094" xlink:href="#DejaVuSans-48"/>
       <use x="190.869141" xlink:href="#DejaVuSans-48"/>
      </g>
     </g>
    </g>
    <g id="ytick_7">
     <g id="line2d_27">
      <path clip-path="url(#p88f41d1a93)" d="M 57.6 76.579774 
L 414.72 76.579774 
" style="fill:none;stroke:#b0b0b0;stroke-linecap:square;stroke-width:0.8;"/>
     </g>
     <g id="line2d_28">
      <g>
       <use style="stroke:#000000;stroke-width:0.8;" x="57.6" xlink:href="#m80137ca3cd" y="76.579774"/>
      </g>
     </g>
     <g id="text_15">
      <!-- 1400 -->
      <g transform="translate(25.15 80.378993)scale(0.1 -0.1)">
       <use xlink:href="#DejaVuSans-49"/>
       <use x="63.623047" xlink:href="#DejaVuSans-52"/>
       <use x="127.246094" xlink:href="#DejaVuSans-48"/>
       <use x="190.869141" xlink:href="#DejaVuSans-48"/>
      </g>
     </g>
    </g>
    <g id="text_16">
     <!-- Fitness -->
     <defs>
      <path d="M 9.8125 72.90625 
L 51.703125 72.90625 
L 51.703125 64.59375 
L 19.671875 64.59375 
L 19.671875 43.109375 
L 48.578125 43.109375 
L 48.578125 34.8125 
L 19.671875 34.8125 
L 19.671875 0 
L 9.8125 0 
z
" id="DejaVuSans-70"/>
     </defs>
     <g transform="translate(19.070312 192.202219)rotate(-90)scale(0.1 -0.1)">
      <use xlink:href="#DejaVuSans-70"/>
      <use x="57.410156" xlink:href="#DejaVuSans-105"/>
      <use x="85.193359" xlink:href="#DejaVuSans-116"/>
      <use x="124.402344" xlink:href="#DejaVuSans-110"/>
      <use x="187.78125" xlink:href="#DejaVuSans-101"/>
      <use x="249.304688" xlink:href="#DejaVuSans-115"/>
      <use x="301.404297" xlink:href="#DejaVuSans-115"/>
     </g>
    </g>
   </g>
   <g id="line2d_29">
    <path clip-path="url(#p88f41d1a93)" d="M 73.832727 293.843331 
L 74.918528 286.832691 
L 77.090131 277.071593 
L 78.175932 276.654109 
L 79.261733 265.739888 
L 80.347534 271.310862 
L 81.433335 266.048987 
L 82.519137 255.407857 
L 83.604938 251.180167 
L 84.690739 241.20989 
L 85.77654 234.179073 
L 86.862341 231.226648 
L 87.948142 237.043212 
L 89.033943 226.037462 
L 90.119745 232.001894 
L 91.205546 234.424269 
L 92.291347 233.68938 
L 93.377148 223.644168 
L 94.462949 218.505708 
L 95.54875 206.624105 
L 96.634552 196.301675 
L 97.720353 203.92529 
L 98.806154 194.271722 
L 99.891955 204.294956 
L 100.977756 186.808568 
L 102.063557 177.804896 
L 103.149358 205.269204 
L 104.23516 169.707089 
L 105.320961 163.024378 
L 106.406762 189.366731 
L 107.492563 171.213135 
L 108.578364 191.098802 
L 109.664165 169.711255 
L 110.749967 179.302003 
L 111.835768 177.31957 
L 112.921569 164.288477 
L 114.00737 187.355351 
L 115.093171 169.552204 
L 116.178972 192.62751 
L 117.264773 185.449204 
L 118.350575 182.055287 
L 119.436376 182.244685 
L 120.522177 153.571816 
L 121.607978 177.591644 
L 122.693779 161.477672 
L 123.77958 184.147317 
L 124.865382 155.545225 
L 125.951183 160.343043 
L 127.036984 159.582052 
L 128.122785 146.88721 
L 129.208586 164.023388 
L 130.294387 170.338264 
L 131.380189 172.732923 
L 132.46599 164.624534 
L 133.551791 176.978034 
L 134.637592 150.632679 
L 135.723393 179.154354 
L 136.809194 159.263144 
L 137.894995 166.71904 
L 138.980797 151.537446 
L 140.066598 144.343219 
L 141.152399 161.622119 
L 142.2382 164.803348 
L 143.324001 140.493913 
L 144.409802 147.537432 
L 145.495604 176.05686 
L 146.581405 154.786586 
L 147.667206 159.583783 
L 148.753007 164.907322 
L 149.838808 165.111994 
L 150.924609 150.360164 
L 152.01041 180.156216 
L 153.096212 172.084341 
L 154.182013 172.497064 
L 155.267814 180.655567 
L 156.353615 174.813251 
L 157.439416 145.465135 
L 158.525217 160.521642 
L 159.611019 158.43641 
L 160.69682 171.960096 
L 161.782621 152.436299 
L 162.868422 158.924309 
L 163.954223 161.893702 
L 165.040024 152.847139 
L 166.125825 147.129108 
L 167.211627 150.046789 
L 168.297428 166.865683 
L 169.383229 165.823698 
L 170.46903 172.074782 
L 171.554831 141.872218 
L 172.640632 166.572111 
L 173.726434 163.651191 
L 175.898036 152.701578 
L 176.983837 166.581761 
L 178.069638 167.834042 
L 179.155439 200.031788 
L 180.24124 165.622625 
L 181.327042 163.332284 
L 182.412843 167.514859 
L 183.498644 148.940802 
L 184.584445 168.847576 
L 185.670246 157.34632 
L 186.756047 183.928884 
L 187.841849 188.612588 
L 188.92765 169.599405 
L 190.013451 152.565482 
L 191.099252 160.34699 
L 192.185053 159.675459 
L 193.270854 169.277693 
L 194.356656 155.306667 
L 195.442457 176.548895 
L 196.528258 152.370477 
L 197.614059 160.602759 
L 198.69986 158.791156 
L 199.785661 149.202163 
L 200.871462 159.550402 
L 201.957264 137.232321 
L 203.043065 167.090983 
L 204.128866 177.274779 
L 205.214667 164.370395 
L 206.300468 161.715778 
L 207.386269 166.95817 
L 208.472071 171.330831 
L 209.557872 171.108193 
L 210.643673 189.370711 
L 211.729474 148.951172 
L 212.815275 195.6545 
L 213.901076 154.032652 
L 214.986877 171.488561 
L 216.072679 163.513785 
L 217.15848 128.421629 
L 218.244281 165.154456 
L 219.330082 171.597976 
L 220.415883 159.129492 
L 221.501684 152.909339 
L 222.587486 154.682958 
L 223.673287 148.001172 
L 224.759088 160.818216 
L 225.844889 170.092381 
L 226.93069 144.598765 
L 228.016491 142.200885 
L 229.102292 164.471746 
L 230.188094 173.340973 
L 231.273895 174.680386 
L 232.359696 167.225166 
L 233.445497 165.603088 
L 234.531298 159.299869 
L 235.617099 162.149558 
L 236.702901 158.719361 
L 237.788702 167.265836 
L 238.874503 145.922554 
L 239.960304 143.540675 
L 241.046105 151.060053 
L 242.131906 177.376361 
L 243.217708 196.806653 
L 244.303509 190.905309 
L 245.38931 174.004923 
L 246.475111 170.990041 
L 247.560912 169.99446 
L 248.646713 179.69304 
L 249.732514 157.788095 
L 250.818316 169.492871 
L 251.904117 161.917055 
L 252.989918 156.370731 
L 254.075719 168.761127 
L 255.16152 132.865346 
L 256.247321 152.082071 
L 257.333123 134.198248 
L 258.418924 149.619499 
L 260.590526 137.852672 
L 261.676327 162.024058 
L 262.762128 176.75566 
L 263.847929 170.105085 
L 264.933731 138.168384 
L 266.019532 153.701625 
L 267.105333 162.822483 
L 268.191134 160.883458 
L 269.276935 133.422746 
L 270.362736 162.335939 
L 271.448538 158.270146 
L 272.534339 151.185599 
L 273.62014 161.560565 
L 274.705941 174.575924 
L 275.791742 162.941279 
L 276.877543 170.027961 
L 277.963344 170.346974 
L 279.049146 148.988537 
L 280.134947 181.956015 
L 281.220748 183.810453 
L 282.306549 177.582652 
L 283.39235 177.629182 
L 284.478151 182.414508 
L 285.563953 173.149693 
L 286.649754 158.190225 
L 287.735555 188.72938 
L 288.821356 165.303033 
L 289.907157 161.051641 
L 290.992958 143.21331 
L 292.07876 146.122684 
L 293.164561 145.282745 
L 294.250362 149.894337 
L 295.336163 159.655623 
L 296.421964 153.314253 
L 298.593566 147.18999 
L 299.679368 180.977366 
L 300.765169 150.082422 
L 301.85097 187.166887 
L 302.936771 158.718823 
L 304.022572 188.556069 
L 305.108373 175.32994 
L 306.194175 176.956239 
L 307.279976 183.53142 
L 308.365777 159.835799 
L 309.451578 150.810814 
L 310.537379 148.298654 
L 311.62318 158.73078 
L 312.708981 148.040882 
L 313.794783 154.86656 
L 314.880584 178.711506 
L 315.966385 171.490911 
L 317.052186 137.404203 
L 318.137987 166.069794 
L 319.223788 156.970226 
L 320.30959 198.513959 
L 321.395391 176.43569 
L 322.481192 142.99719 
L 323.566993 174.732988 
L 324.652794 179.063121 
L 325.738595 186.841456 
L 326.824396 173.278789 
L 327.910198 189.321388 
L 328.995999 166.32518 
L 330.0818 178.562575 
L 331.167601 166.485828 
L 332.253402 163.179066 
L 333.339203 172.020124 
L 334.425005 160.162171 
L 335.510806 150.604031 
L 336.596607 185.246566 
L 337.682408 182.528872 
L 338.768209 160.158016 
L 339.85401 177.002645 
L 340.939811 168.642903 
L 342.025613 163.506665 
L 343.111414 193.200723 
L 344.197215 175.473954 
L 345.283016 174.027308 
L 346.368817 121.652828 
L 347.454618 168.109382 
L 348.54042 147.686441 
L 349.626221 187.630034 
L 350.712022 169.759492 
L 351.797823 165.059598 
L 352.883624 180.995659 
L 353.969425 160.792674 
L 355.055227 185.277857 
L 356.141028 169.298077 
L 357.226829 171.807051 
L 358.31263 163.807052 
L 359.398431 151.345372 
L 360.484232 179.252628 
L 361.570033 149.129083 
L 362.655835 162.763415 
L 363.741636 166.054359 
L 364.827437 175.176328 
L 366.999039 150.550827 
L 368.08484 182.011378 
L 369.170642 180.143006 
L 370.256443 169.065472 
L 371.342244 167.232317 
L 372.428045 185.647129 
L 373.513846 127.126955 
L 374.599647 142.637711 
L 375.685448 191.150188 
L 376.77125 174.935123 
L 377.857051 162.025276 
L 378.942852 156.912321 
L 380.028653 191.711007 
L 381.114454 157.405504 
L 382.200255 172.362913 
L 383.286057 168.096173 
L 384.371858 164.640199 
L 385.457659 183.918984 
L 386.54346 188.350055 
L 387.629261 179.46026 
L 388.715062 181.07633 
L 389.800863 179.519066 
L 390.886665 159.678586 
L 391.972466 172.305335 
L 393.058267 176.024195 
L 394.144068 171.365189 
L 395.229869 198.206891 
L 396.31567 167.664099 
L 397.401472 176.858141 
L 398.487273 173.3822 
L 398.487273 173.3822 
" style="fill:none;stroke:#0000ff;stroke-linecap:square;stroke-width:1.5;"/>
   </g>
   <g id="line2d_30">
    <path clip-path="url(#p88f41d1a93)" d="M 73.832727 295.488 
L 74.918528 291.014556 
L 76.00433 289.178797 
L 77.090131 286.486948 
L 78.175932 286.571759 
L 79.261733 279.459196 
L 80.347534 286.021654 
L 81.433335 282.394499 
L 82.519137 273.629405 
L 83.604938 271.586842 
L 86.862341 260.407611 
L 87.948142 263.381026 
L 89.033943 253.807452 
L 90.119745 265.405177 
L 91.205546 263.693812 
L 92.291347 264.09215 
L 93.377148 260.803289 
L 94.462949 252.43532 
L 95.54875 250.573028 
L 96.634552 250.337586 
L 97.720353 248.524324 
L 98.806154 237.295606 
L 99.891955 241.80643 
L 100.977756 240.483479 
L 102.063557 224.619814 
L 103.149358 252.542405 
L 104.23516 225.399093 
L 105.320961 215.339651 
L 106.406762 234.483484 
L 107.492563 227.63851 
L 108.578364 240.266936 
L 109.664165 222.200525 
L 110.749967 225.427799 
L 112.921569 229.204258 
L 114.00737 235.869312 
L 115.093171 225.001533 
L 116.178972 236.546312 
L 117.264773 233.697384 
L 118.350575 227.258797 
L 119.436376 236.192272 
L 120.522177 209.461421 
L 121.607978 239.295313 
L 122.693779 224.036537 
L 123.77958 238.835178 
L 124.865382 214.416894 
L 125.951183 229.063225 
L 127.036984 218.066855 
L 128.122785 208.461676 
L 129.208586 219.120076 
L 130.294387 234.291716 
L 132.46599 215.446261 
L 133.551791 236.759977 
L 134.637592 204.244986 
L 135.723393 234.825389 
L 136.809194 220.467004 
L 137.894995 217.315529 
L 138.980797 208.889956 
L 140.066598 202.163313 
L 142.2382 222.275672 
L 143.324001 194.184848 
L 144.409802 206.492557 
L 145.495604 228.64597 
L 146.581405 213.49622 
L 147.667206 218.744993 
L 148.753007 230.511308 
L 149.838808 229.820004 
L 150.924609 211.902365 
L 152.01041 228.527365 
L 153.096212 234.540267 
L 154.182013 220.299946 
L 155.267814 235.237327 
L 156.353615 223.879775 
L 157.439416 199.91747 
L 158.525217 224.146702 
L 159.611019 214.045867 
L 160.69682 231.093965 
L 161.782621 214.595065 
L 162.868422 219.879317 
L 163.954223 222.926625 
L 165.040024 211.387395 
L 166.125825 205.141234 
L 167.211627 207.030708 
L 168.297428 212.50401 
L 169.383229 224.619289 
L 170.46903 240.369518 
L 171.554831 199.832591 
L 172.640632 227.773677 
L 173.726434 224.37787 
L 174.812235 220.550427 
L 175.898036 218.747009 
L 176.983837 216.066533 
L 178.069638 215.819072 
L 179.155439 249.734218 
L 180.24124 216.928284 
L 181.327042 222.024765 
L 182.412843 224.009429 
L 183.498644 204.039507 
L 184.584445 221.826873 
L 185.670246 214.797262 
L 186.756047 242.309648 
L 187.841849 243.403824 
L 188.92765 221.843554 
L 190.013451 216.469632 
L 191.099252 227.3963 
L 192.185053 223.072349 
L 193.270854 233.127808 
L 194.356656 227.898382 
L 195.442457 244.188759 
L 196.528258 216.083133 
L 197.614059 224.556009 
L 198.69986 219.496531 
L 199.785661 208.863919 
L 200.871462 214.782388 
L 201.957264 210.309148 
L 203.043065 234.830964 
L 204.128866 232.477577 
L 205.214667 217.225455 
L 206.300468 218.888106 
L 207.386269 213.937199 
L 208.472071 225.702987 
L 209.557872 226.196402 
L 210.643673 243.821282 
L 211.729474 214.032089 
L 212.815275 244.295569 
L 213.901076 216.574978 
L 214.986877 228.393094 
L 216.072679 217.259884 
L 217.15848 187.699499 
L 218.244281 227.865902 
L 219.330082 230.645286 
L 220.415883 214.168812 
L 221.501684 215.922089 
L 222.587486 215.085852 
L 223.673287 207.287365 
L 224.759088 222.124682 
L 225.844889 228.644111 
L 226.93069 197.90917 
L 228.016491 213.031641 
L 229.102292 223.015265 
L 230.188094 227.172491 
L 231.273895 238.671607 
L 232.359696 232.371454 
L 233.445497 235.137052 
L 234.531298 221.573024 
L 235.617099 226.728836 
L 236.702901 225.519127 
L 237.788702 221.870864 
L 238.874503 216.763416 
L 239.960304 198.180626 
L 241.046105 220.619381 
L 242.131906 227.298496 
L 243.217708 245.855298 
L 244.303509 250.201015 
L 245.38931 223.912845 
L 246.475111 224.836608 
L 247.560912 231.332902 
L 248.646713 236.956982 
L 249.732514 213.561151 
L 250.818316 232.133399 
L 251.904117 220.525777 
L 252.989918 227.185277 
L 254.075719 228.909447 
L 255.16152 198.130302 
L 256.247321 223.936757 
L 257.333123 202.41756 
L 258.418924 211.149984 
L 259.504725 208.920927 
L 260.590526 190.787122 
L 261.676327 223.477394 
L 262.762128 236.573777 
L 263.847929 224.236514 
L 264.933731 207.887692 
L 266.019532 198.004739 
L 267.105333 221.362586 
L 268.191134 221.912991 
L 269.276935 209.659867 
L 270.362736 223.104324 
L 271.448538 223.504855 
L 272.534339 214.77841 
L 273.62014 226.034161 
L 274.705941 232.156721 
L 275.791742 220.9963 
L 276.877543 232.694361 
L 277.963344 224.698329 
L 279.049146 213.050277 
L 280.134947 230.543773 
L 281.220748 242.305479 
L 282.306549 228.412415 
L 283.39235 220.230322 
L 284.478151 236.163331 
L 285.563953 226.134387 
L 286.649754 205.22862 
L 287.735555 241.273486 
L 288.821356 219.515841 
L 289.907157 219.383719 
L 290.992958 213.131038 
L 292.07876 203.479316 
L 293.164561 206.212225 
L 294.250362 207.623784 
L 295.336163 207.183186 
L 296.421964 206.109372 
L 297.507765 206.841136 
L 298.593566 202.806836 
L 299.679368 228.418723 
L 300.765169 200.459457 
L 301.85097 230.88334 
L 302.936771 215.351504 
L 304.022572 227.633173 
L 305.108373 214.191227 
L 306.194175 222.167733 
L 307.279976 238.39617 
L 308.365777 215.045229 
L 309.451578 213.159973 
L 310.537379 197.649921 
L 311.62318 219.955768 
L 312.708981 205.747399 
L 313.794783 212.076925 
L 314.880584 228.731672 
L 315.966385 221.080704 
L 317.052186 192.641212 
L 318.137987 218.645298 
L 319.223788 205.933984 
L 320.30959 248.161654 
L 321.395391 229.143484 
L 322.481192 194.066726 
L 323.566993 232.589473 
L 324.652794 215.601538 
L 325.738595 246.413144 
L 326.824396 221.932092 
L 327.910198 233.130153 
L 328.995999 220.937966 
L 330.0818 224.770027 
L 331.167601 216.259263 
L 332.253402 216.722417 
L 333.339203 228.090736 
L 334.425005 212.98681 
L 335.510806 212.366647 
L 336.596607 237.205573 
L 337.682408 231.647522 
L 338.768209 208.208596 
L 339.85401 218.80518 
L 340.939811 217.042061 
L 342.025613 210.050377 
L 343.111414 249.090147 
L 344.197215 237.265359 
L 345.283016 237.440667 
L 346.368817 185.938655 
L 347.454618 226.76624 
L 348.54042 216.074434 
L 349.626221 242.017115 
L 350.712022 225.702874 
L 351.797823 212.975368 
L 352.883624 238.915256 
L 353.969425 213.765349 
L 355.055227 231.604709 
L 356.141028 229.550101 
L 357.226829 228.447767 
L 359.398431 219.865741 
L 360.484232 240.217197 
L 361.570033 206.579377 
L 362.655835 214.390471 
L 363.741636 221.380835 
L 364.827437 227.072551 
L 365.913238 219.75914 
L 366.999039 193.922391 
L 368.08484 238.440238 
L 369.170642 228.635924 
L 370.256443 233.494119 
L 371.342244 226.973157 
L 372.428045 232.90759 
L 373.513846 181.136396 
L 374.599647 208.08586 
L 375.685448 240.671279 
L 376.77125 224.968406 
L 377.857051 223.556941 
L 378.942852 227.709435 
L 380.028653 250.251864 
L 381.114454 220.965916 
L 382.200255 238.824 
L 383.286057 236.127114 
L 384.371858 229.872924 
L 385.457659 243.832795 
L 386.54346 244.578027 
L 387.629261 238.77608 
L 388.715062 249.662717 
L 389.800863 235.369937 
L 390.886665 215.067686 
L 391.972466 223.678296 
L 393.058267 238.647555 
L 394.144068 240.929686 
L 395.229869 250.319019 
L 396.31567 230.65992 
L 397.401472 234.40397 
L 398.487273 240.340414 
L 398.487273 240.340414 
" style="fill:none;stroke:#008000;stroke-dasharray:9.6,2.4,1.5,2.4;stroke-dashoffset:0;stroke-width:1.5;"/>
   </g>
   <g id="line2d_31">
    <path clip-path="url(#p88f41d1a93)" d="M 73.832727 292.198662 
L 74.918528 282.650826 
L 77.090131 267.656237 
L 78.175932 266.736459 
L 79.261733 252.02058 
L 80.347534 256.600069 
L 81.433335 249.703476 
L 82.519137 237.186308 
L 83.604938 230.773492 
L 84.690739 214.52755 
L 85.77654 204.368451 
L 86.862341 202.045685 
L 87.948142 210.705397 
L 89.033943 198.267472 
L 90.119745 198.598612 
L 91.205546 205.154725 
L 92.291347 203.28661 
L 93.377148 186.485046 
L 94.462949 184.576096 
L 96.634552 142.265764 
L 97.720353 159.326257 
L 98.806154 151.247839 
L 99.891955 166.783481 
L 100.977756 133.133658 
L 102.063557 130.989977 
L 103.149358 157.996004 
L 104.23516 114.015086 
L 105.320961 110.709105 
L 106.406762 144.249978 
L 107.492563 114.78776 
L 108.578364 141.930668 
L 109.664165 117.221984 
L 110.749967 133.176207 
L 111.835768 127.340844 
L 112.921569 99.372697 
L 114.00737 138.84139 
L 115.093171 114.102875 
L 116.178972 148.708707 
L 117.264773 137.201024 
L 118.350575 136.851777 
L 119.436376 128.297098 
L 120.522177 97.682211 
L 121.607978 115.887976 
L 122.693779 98.918806 
L 123.77958 129.459455 
L 124.865382 96.673556 
L 125.951183 91.622861 
L 127.036984 101.097249 
L 128.122785 85.312745 
L 129.208586 108.9267 
L 130.294387 106.384812 
L 131.380189 120.469291 
L 132.46599 113.802806 
L 133.551791 117.19609 
L 134.637592 97.020372 
L 135.723393 123.483319 
L 136.809194 98.059284 
L 137.894995 116.122552 
L 138.980797 94.184935 
L 140.066598 86.523125 
L 141.152399 111.278264 
L 142.2382 107.331025 
L 143.324001 86.802977 
L 144.409802 88.582307 
L 145.495604 123.46775 
L 146.581405 96.076951 
L 147.667206 100.422574 
L 148.753007 99.303337 
L 149.838808 100.403984 
L 150.924609 88.817962 
L 152.01041 131.785067 
L 153.096212 109.628416 
L 154.182013 124.694183 
L 155.267814 126.073808 
L 156.353615 125.746727 
L 157.439416 91.012801 
L 159.611019 102.826953 
L 160.69682 112.826228 
L 161.782621 90.277532 
L 162.868422 97.9693 
L 163.954223 100.86078 
L 165.040024 94.306883 
L 166.125825 89.116982 
L 167.211627 93.06287 
L 168.297428 121.227356 
L 169.383229 107.028106 
L 170.46903 103.780045 
L 171.554831 83.911845 
L 172.640632 105.370545 
L 173.726434 102.924512 
L 174.812235 95.753792 
L 175.898036 86.656148 
L 176.983837 117.096989 
L 178.069638 119.849011 
L 179.155439 150.329359 
L 180.24124 114.316966 
L 181.327042 104.639803 
L 182.412843 111.02029 
L 183.498644 93.842098 
L 184.584445 115.868279 
L 185.670246 99.895378 
L 186.756047 125.548121 
L 187.841849 133.821353 
L 188.92765 117.355256 
L 190.013451 88.661331 
L 191.099252 93.297679 
L 192.185053 96.27857 
L 193.270854 105.427578 
L 194.356656 82.714952 
L 195.442457 108.90903 
L 196.528258 88.657822 
L 197.614059 96.649508 
L 198.69986 98.08578 
L 199.785661 89.540406 
L 200.871462 104.318416 
L 201.957264 64.155494 
L 203.043065 99.351002 
L 204.128866 122.07198 
L 205.214667 111.515335 
L 206.300468 104.543451 
L 207.386269 119.979141 
L 208.472071 116.958674 
L 209.557872 116.019985 
L 210.643673 134.920139 
L 211.729474 83.870256 
L 212.815275 147.013431 
L 213.901076 91.490326 
L 214.986877 114.584028 
L 216.072679 109.767686 
L 217.15848 69.143758 
L 218.244281 102.443011 
L 219.330082 112.550666 
L 220.415883 104.090171 
L 221.501684 89.896588 
L 222.587486 94.280065 
L 223.673287 88.71498 
L 224.759088 99.51175 
L 225.844889 111.540652 
L 228.016491 71.37013 
L 229.102292 105.928227 
L 230.188094 119.509454 
L 232.359696 102.078878 
L 233.445497 96.069123 
L 234.531298 97.026714 
L 235.617099 97.570279 
L 236.702901 91.919595 
L 237.788702 112.660808 
L 238.874503 75.081692 
L 239.960304 88.900724 
L 241.046105 81.500725 
L 242.131906 127.454226 
L 243.217708 147.758009 
L 244.303509 131.609604 
L 247.560912 108.656018 
L 248.646713 122.429099 
L 249.732514 102.01504 
L 250.818316 106.852343 
L 251.904117 103.308332 
L 252.989918 85.556186 
L 254.075719 108.612806 
L 255.16152 67.600389 
L 256.247321 80.227384 
L 257.333123 65.978936 
L 258.418924 88.089014 
L 259.504725 78.862692 
L 260.590526 84.918222 
L 262.762128 116.937543 
L 263.847929 115.973656 
L 264.933731 68.449077 
L 266.019532 109.398512 
L 267.105333 104.28238 
L 268.191134 99.853925 
L 269.276935 57.185626 
L 270.362736 101.567555 
L 271.448538 93.035438 
L 272.534339 87.592787 
L 273.62014 97.08697 
L 274.705941 116.995127 
L 275.791742 104.886258 
L 276.877543 107.36156 
L 277.963344 115.99562 
L 279.049146 84.926796 
L 280.134947 133.368256 
L 281.220748 125.315426 
L 282.306549 126.752889 
L 283.39235 135.028041 
L 284.478151 128.665685 
L 286.649754 111.15183 
L 287.735555 136.185275 
L 288.821356 111.090224 
L 289.907157 102.719564 
L 290.992958 73.295581 
L 292.07876 88.766051 
L 293.164561 84.353266 
L 294.250362 92.164891 
L 295.336163 112.12806 
L 296.421964 100.519133 
L 297.507765 93.738583 
L 298.593566 91.573144 
L 299.679368 133.536009 
L 300.765169 99.705388 
L 301.85097 143.450435 
L 302.936771 102.086141 
L 304.022572 149.478966 
L 305.108373 136.468653 
L 306.194175 131.744745 
L 307.279976 128.66667 
L 308.365777 104.626369 
L 309.451578 88.461655 
L 310.537379 98.947387 
L 311.62318 97.505791 
L 312.708981 90.334365 
L 313.794783 97.656195 
L 314.880584 128.691341 
L 315.966385 121.901118 
L 317.052186 82.167193 
L 318.137987 113.494289 
L 319.223788 108.006468 
L 320.30959 148.866265 
L 321.395391 123.727897 
L 322.481192 91.927654 
L 324.652794 142.524705 
L 325.738595 127.269767 
L 326.824396 124.625486 
L 327.910198 145.512622 
L 328.995999 111.712393 
L 330.0818 132.355123 
L 331.167601 116.712393 
L 332.253402 109.635715 
L 333.339203 115.949513 
L 334.425005 107.337533 
L 335.510806 88.841415 
L 336.596607 133.28756 
L 337.682408 133.410222 
L 338.768209 112.107436 
L 339.85401 135.200111 
L 340.939811 120.243744 
L 342.025613 116.962953 
L 343.111414 137.3113 
L 344.197215 113.682549 
L 345.283016 110.613949 
L 346.368817 57.367001 
L 347.454618 109.452524 
L 348.54042 79.298447 
L 349.626221 133.242952 
L 350.712022 113.81611 
L 351.797823 117.143828 
L 352.883624 123.076062 
L 353.969425 107.819999 
L 355.055227 138.951004 
L 356.141028 109.046053 
L 357.226829 115.166335 
L 358.31263 103.52505 
L 359.398431 82.825003 
L 360.484232 118.288058 
L 361.570033 91.678788 
L 362.655835 111.136358 
L 363.741636 110.727883 
L 364.827437 123.280104 
L 365.913238 107.159561 
L 366.999039 107.179263 
L 368.08484 125.582517 
L 369.170642 131.650088 
L 370.256443 104.636824 
L 371.342244 107.491478 
L 372.428045 138.386668 
L 373.513846 73.117515 
L 374.599647 77.189561 
L 375.685448 141.629096 
L 376.77125 124.90184 
L 377.857051 100.493611 
L 378.942852 86.115208 
L 380.028653 133.17015 
L 381.114454 93.845092 
L 382.200255 105.901826 
L 383.286057 100.065231 
L 384.371858 99.407474 
L 385.457659 124.005173 
L 386.54346 132.122082 
L 387.629261 120.14444 
L 388.715062 112.489944 
L 389.800863 123.668195 
L 390.886665 104.289486 
L 391.972466 120.932373 
L 393.058267 113.400835 
L 394.144068 101.800691 
L 395.229869 146.094763 
L 396.31567 104.668277 
L 397.401472 119.312311 
L 398.487273 106.423986 
L 398.487273 106.423986 
" style="fill:none;stroke:#008000;stroke-dasharray:9.6,2.4,1.5,2.4;stroke-dashoffset:0;stroke-width:1.5;"/>
   </g>
   <g id="line2d_32">
    <path clip-path="url(#p88f41d1a93)" d="M 73.832727 289.05653 
L 74.918528 277.547599 
L 76.00433 264.663908 
L 77.090131 262.032832 
L 78.175932 259.820208 
L 79.261733 242.79836 
L 80.347534 246.702813 
L 81.433335 239.256557 
L 82.519137 227.098812 
L 83.604938 219.332957 
L 84.690739 205.17389 
L 85.77654 194.542578 
L 86.862341 190.89912 
L 87.948142 201.828481 
L 89.033943 193.238227 
L 90.119745 187.405581 
L 91.205546 189.026528 
L 92.291347 174.420117 
L 93.377148 152.851336 
L 94.462949 166.833575 
L 95.54875 134.813382 
L 96.634552 117.805496 
L 97.720353 138.525723 
L 98.806154 142.389035 
L 99.891955 145.596994 
L 100.977756 120.550611 
L 102.063557 122.483726 
L 103.149358 136.655457 
L 104.23516 112.251597 
L 105.320961 114.13187 
L 106.406762 142.163899 
L 107.492563 109.501913 
L 108.578364 135.201715 
L 109.664165 112.724045 
L 110.749967 133.443913 
L 111.835768 125.650748 
L 112.921569 95.855203 
L 114.00737 126.983859 
L 115.093171 109.144617 
L 116.178972 146.381777 
L 117.264773 130.545342 
L 118.350575 134.251192 
L 119.436376 131.01964 
L 120.522177 98.466365 
L 121.607978 111.144995 
L 122.693779 75.9533 
L 123.77958 125.391597 
L 124.865382 96.711955 
L 125.951183 87.050364 
L 127.036984 104.444635 
L 128.122785 88.863951 
L 129.208586 116.176303 
L 130.294387 95.669291 
L 131.380189 126.581949 
L 132.46599 104.949924 
L 133.551791 112.81573 
L 134.637592 98.356959 
L 135.723393 114.352644 
L 136.809194 101.113613 
L 137.894995 113.840664 
L 138.980797 99.267106 
L 140.066598 97.937441 
L 141.152399 118.022795 
L 142.2382 111.517727 
L 143.324001 94.519715 
L 144.409802 101.55311 
L 145.495604 132.898054 
L 146.581405 103.552173 
L 147.667206 107.395808 
L 148.753007 99.435035 
L 149.838808 106.102668 
L 150.924609 97.973268 
L 152.01041 128.912521 
L 153.096212 102.971836 
L 154.182013 124.216909 
L 155.267814 117.170397 
L 156.353615 128.734698 
L 157.439416 103.118027 
L 158.525217 100.756603 
L 159.611019 105.615361 
L 160.69682 111.68815 
L 161.782621 86.39564 
L 162.868422 104.93136 
L 163.954223 103.912726 
L 165.040024 98.323075 
L 166.125825 97.168363 
L 167.211627 99.410304 
L 168.297428 131.002428 
L 169.383229 115.988602 
L 170.46903 90.558711 
L 171.554831 91.470932 
L 172.640632 108.88619 
L 173.726434 104.803413 
L 174.812235 105.097223 
L 175.898036 87.819293 
L 176.983837 127.972408 
L 178.069638 119.720113 
L 179.155439 145.011873 
L 181.327042 107.197 
L 182.412843 110.621167 
L 183.498644 97.545642 
L 184.584445 116.159385 
L 185.670246 98.80946 
L 186.756047 120.333075 
L 187.841849 130.645812 
L 188.92765 116.524861 
L 190.013451 95.74993 
L 191.099252 81.420325 
L 192.185053 94.111023 
L 193.270854 89.194788 
L 194.356656 79.680264 
L 195.442457 101.48933 
L 196.528258 87.306293 
L 198.69986 100.695495 
L 199.785661 99.797801 
L 200.871462 104.621364 
L 201.957264 72.367622 
L 203.043065 92.243697 
L 204.128866 127.704913 
L 205.214667 112.997074 
L 206.300468 111.329692 
L 207.386269 117.939393 
L 208.472071 110.297603 
L 209.557872 106.340492 
L 210.643673 138.096979 
L 211.729474 87.060118 
L 212.815275 137.097353 
L 213.901076 93.009707 
L 214.986877 115.532622 
L 216.072679 110.735525 
L 217.15848 76.14981 
L 218.244281 104.246833 
L 219.330082 110.215118 
L 220.415883 103.14995 
L 221.501684 94.6463 
L 222.587486 85.079515 
L 223.673287 96.93926 
L 224.759088 97.268202 
L 225.844889 112.934624 
L 226.93069 106.642875 
L 228.016491 74.872197 
L 229.102292 111.615785 
L 230.188094 108.598351 
L 231.273895 99.042769 
L 232.359696 108.893105 
L 234.531298 84.144195 
L 235.617099 95.462721 
L 236.702901 82.707749 
L 237.788702 123.188236 
L 238.874503 73.660668 
L 239.960304 98.831615 
L 241.046105 83.875672 
L 242.131906 121.571535 
L 243.217708 136.025898 
L 244.303509 121.832724 
L 246.475111 121.9055 
L 247.560912 110.112626 
L 248.646713 113.792304 
L 249.732514 93.859159 
L 250.818316 100.09132 
L 251.904117 104.42679 
L 252.989918 76.757641 
L 254.075719 85.704576 
L 255.16152 84.122748 
L 256.247321 79.496626 
L 257.333123 76.847862 
L 258.418924 81.837379 
L 259.504725 76.765523 
L 260.590526 94.093546 
L 261.676327 96.13742 
L 262.762128 110.002989 
L 263.847929 115.333975 
L 264.933731 82.84074 
L 266.019532 116.851728 
L 267.105333 102.211046 
L 268.191134 100.673354 
L 269.276935 53.568 
L 270.362736 102.300902 
L 271.448538 90.053503 
L 272.534339 84.810936 
L 273.62014 89.856961 
L 274.705941 105.114176 
L 275.791742 106.304799 
L 276.877543 102.333931 
L 277.963344 116.164448 
L 279.049146 90.496976 
L 280.134947 130.500469 
L 281.220748 94.262263 
L 282.306549 123.281593 
L 283.39235 128.831715 
L 284.478151 125.15992 
L 285.563953 129.520441 
L 286.649754 118.299111 
L 287.735555 128.880436 
L 288.821356 110.150884 
L 289.907157 105.425417 
L 290.992958 76.660593 
L 292.07876 95.529463 
L 293.164561 94.715657 
L 294.250362 103.306363 
L 295.336163 120.677422 
L 296.421964 106.587696 
L 297.507765 98.61662 
L 298.593566 109.289997 
L 299.679368 141.553793 
L 300.765169 117.803131 
L 301.85097 154.073772 
L 302.936771 105.584091 
L 304.022572 150.015916 
L 305.108373 145.932077 
L 306.194175 136.408191 
L 308.365777 107.939612 
L 309.451578 99.568303 
L 310.537379 108.091003 
L 311.62318 109.673557 
L 312.708981 103.694922 
L 313.794783 107.778311 
L 314.880584 130.099676 
L 315.966385 127.518871 
L 317.052186 100.023314 
L 318.137987 121.485077 
L 319.223788 114.468477 
L 320.30959 133.119238 
L 321.395391 119.157568 
L 322.481192 103.034604 
L 323.566993 123.430199 
L 324.652794 141.109236 
L 325.738595 126.623812 
L 326.824396 127.418596 
L 327.910198 152.687989 
L 328.995999 118.431793 
L 330.0818 128.844317 
L 331.167601 128.879949 
L 332.253402 120.886321 
L 333.339203 119.647807 
L 334.425005 114.937935 
L 335.510806 102.516609 
L 336.596607 131.661712 
L 337.682408 124.314943 
L 338.768209 121.851801 
L 339.85401 143.209036 
L 340.939811 128.406773 
L 342.025613 122.167055 
L 343.111414 125.099759 
L 344.197215 105.898215 
L 345.283016 114.363162 
L 346.368817 73.204358 
L 347.454618 111.071397 
L 348.54042 84.942406 
L 349.626221 121.656017 
L 350.712022 108.287256 
L 351.797823 124.200601 
L 352.883624 120.889494 
L 353.969425 114.927107 
L 355.055227 142.580721 
L 356.141028 118.329259 
L 357.226829 116.854855 
L 358.31263 104.576048 
L 359.398431 79.477582 
L 360.484232 115.591933 
L 361.570033 104.182036 
L 362.655835 119.576068 
L 363.741636 115.773677 
L 364.827437 118.475851 
L 365.913238 114.076502 
L 366.999039 118.344635 
L 368.08484 115.09822 
L 369.170642 134.434426 
L 370.256443 99.772208 
L 371.342244 111.23366 
L 372.428045 137.308817 
L 373.513846 90.395353 
L 374.599647 87.720832 
L 375.685448 133.760706 
L 376.77125 119.360455 
L 377.857051 99.347737 
L 378.942852 73.269126 
L 380.028653 113.854878 
L 381.114454 94.22344 
L 382.200255 97.524972 
L 383.286057 85.785206 
L 384.371858 89.418933 
L 385.457659 111.822831 
L 386.54346 118.419172 
L 387.629261 107.075447 
L 388.715062 104.802999 
L 389.800863 116.003495 
L 390.886665 99.453952 
L 391.972466 99.533319 
L 393.058267 99.730142 
L 394.144068 90.685835 
L 395.229869 110.895956 
L 396.31567 87.537873 
L 397.401472 98.545841 
L 398.487273 92.281169 
L 398.487273 92.281169 
" style="fill:none;stroke:#ff0000;stroke-linecap:square;stroke-width:1.5;"/>
   </g>
   <g id="patch_3">
    <path d="M 57.6 307.584 
L 57.6 41.472 
" style="fill:none;stroke:#000000;stroke-linecap:square;stroke-linejoin:miter;stroke-width:0.8;"/>
   </g>
   <g id="patch_4">
    <path d="M 414.72 307.584 
L 414.72 41.472 
" style="fill:none;stroke:#000000;stroke-linecap:square;stroke-linejoin:miter;stroke-width:0.8;"/>
   </g>
   <g id="patch_5">
    <path d="M 57.6 307.584 
L 414.72 307.584 
" style="fill:none;stroke:#000000;stroke-linecap:square;stroke-linejoin:miter;stroke-width:0.8;"/>
   </g>
   <g id="patch_6">
    <path d="M 57.6 41.472 
L 414.72 41.472 
" style="fill:none;stroke:#000000;stroke-linecap:square;stroke-linejoin:miter;stroke-width:0.8;"/>
   </g>
   <g id="text_17">
    <!-- Population's average and best fitness -->
    <defs>
     <path d="M 19.671875 64.796875 
L 19.671875 37.40625 
L 32.078125 37.40625 
Q 38.96875 37.40625 42.71875 40.96875 
Q 46.484375 44.53125 46.484375 51.125 
Q 46.484375 57.671875 42.71875 61.234375 
Q 38.96875 64.796875 32.078125 64.796875 
z
M 9.8125 72.90625 
L 32.078125 72.90625 
Q 44.34375 72.90625 50.609375 67.359375 
Q 56.890625 61.8125 56.890625 51.125 
Q 56.890625 40.328125 50.609375 34.8125 
Q 44.34375 29.296875 32.078125 29.296875 
L 19.671875 29.296875 
L 19.671875 0 
L 9.8125 0 
z
" id="DejaVuSans-80"/>
     <path d="M 18.109375 8.203125 
L 18.109375 -20.796875 
L 9.078125 -20.796875 
L 9.078125 54.6875 
L 18.109375 54.6875 
L 18.109375 46.390625 
Q 20.953125 51.265625 25.265625 53.625 
Q 29.59375 56 35.59375 56 
Q 45.5625 56 51.78125 48.09375 
Q 58.015625 40.1875 58.015625 27.296875 
Q 58.015625 14.40625 51.78125 6.484375 
Q 45.5625 -1.421875 35.59375 -1.421875 
Q 29.59375 -1.421875 25.265625 0.953125 
Q 20.953125 3.328125 18.109375 8.203125 
z
M 48.6875 27.296875 
Q 48.6875 37.203125 44.609375 42.84375 
Q 40.53125 48.484375 33.40625 48.484375 
Q 26.265625 48.484375 22.1875 42.84375 
Q 18.109375 37.203125 18.109375 27.296875 
Q 18.109375 17.390625 22.1875 11.75 
Q 26.265625 6.109375 33.40625 6.109375 
Q 40.53125 6.109375 44.609375 11.75 
Q 48.6875 17.390625 48.6875 27.296875 
z
" id="DejaVuSans-112"/>
     <path d="M 8.5 21.578125 
L 8.5 54.6875 
L 17.484375 54.6875 
L 17.484375 21.921875 
Q 17.484375 14.15625 20.5 10.265625 
Q 23.53125 6.390625 29.59375 6.390625 
Q 36.859375 6.390625 41.078125 11.03125 
Q 45.3125 15.671875 45.3125 23.6875 
L 45.3125 54.6875 
L 54.296875 54.6875 
L 54.296875 0 
L 45.3125 0 
L 45.3125 8.40625 
Q 42.046875 3.421875 37.71875 1 
Q 33.40625 -1.421875 27.6875 -1.421875 
Q 18.265625 -1.421875 13.375 4.4375 
Q 8.5 10.296875 8.5 21.578125 
z
M 31.109375 56 
z
" id="DejaVuSans-117"/>
     <path d="M 9.421875 75.984375 
L 18.40625 75.984375 
L 18.40625 0 
L 9.421875 0 
z
" id="DejaVuSans-108"/>
     <path d="M 17.921875 72.90625 
L 17.921875 45.796875 
L 9.625 45.796875 
L 9.625 72.90625 
z
" id="DejaVuSans-39"/>
     <path id="DejaVuSans-32"/>
     <path d="M 2.984375 54.6875 
L 12.5 54.6875 
L 29.59375 8.796875 
L 46.6875 54.6875 
L 56.203125 54.6875 
L 35.6875 0 
L 23.484375 0 
z
" id="DejaVuSans-118"/>
     <path d="M 45.40625 27.984375 
Q 45.40625 37.75 41.375 43.109375 
Q 37.359375 48.484375 30.078125 48.484375 
Q 22.859375 48.484375 18.828125 43.109375 
Q 14.796875 37.75 14.796875 27.984375 
Q 14.796875 18.265625 18.828125 12.890625 
Q 22.859375 7.515625 30.078125 7.515625 
Q 37.359375 7.515625 41.375 12.890625 
Q 45.40625 18.265625 45.40625 27.984375 
z
M 54.390625 6.78125 
Q 54.390625 -7.171875 48.1875 -13.984375 
Q 42 -20.796875 29.203125 -20.796875 
Q 24.46875 -20.796875 20.265625 -20.09375 
Q 16.0625 -19.390625 12.109375 -17.921875 
L 12.109375 -9.1875 
Q 16.0625 -11.328125 19.921875 -12.34375 
Q 23.78125 -13.375 27.78125 -13.375 
Q 36.625 -13.375 41.015625 -8.765625 
Q 45.40625 -4.15625 45.40625 5.171875 
L 45.40625 9.625 
Q 42.625 4.78125 38.28125 2.390625 
Q 33.9375 0 27.875 0 
Q 17.828125 0 11.671875 7.65625 
Q 5.515625 15.328125 5.515625 27.984375 
Q 5.515625 40.671875 11.671875 48.328125 
Q 17.828125 56 27.875 56 
Q 33.9375 56 38.28125 53.609375 
Q 42.625 51.21875 45.40625 46.390625 
L 45.40625 54.6875 
L 54.390625 54.6875 
z
" id="DejaVuSans-103"/>
     <path d="M 45.40625 46.390625 
L 45.40625 75.984375 
L 54.390625 75.984375 
L 54.390625 0 
L 45.40625 0 
L 45.40625 8.203125 
Q 42.578125 3.328125 38.25 0.953125 
Q 33.9375 -1.421875 27.875 -1.421875 
Q 17.96875 -1.421875 11.734375 6.484375 
Q 5.515625 14.40625 5.515625 27.296875 
Q 5.515625 40.1875 11.734375 48.09375 
Q 17.96875 56 27.875 56 
Q 33.9375 56 38.25 53.625 
Q 42.578125 51.265625 45.40625 46.390625 
z
M 14.796875 27.296875 
Q 14.796875 17.390625 18.875 11.75 
Q 22.953125 6.109375 30.078125 6.109375 
Q 37.203125 6.109375 41.296875 11.75 
Q 45.40625 17.390625 45.40625 27.296875 
Q 45.40625 37.203125 41.296875 42.84375 
Q 37.203125 48.484375 30.078125 48.484375 
Q 22.953125 48.484375 18.875 42.84375 
Q 14.796875 37.203125 14.796875 27.296875 
z
" id="DejaVuSans-100"/>
     <path d="M 48.6875 27.296875 
Q 48.6875 37.203125 44.609375 42.84375 
Q 40.53125 48.484375 33.40625 48.484375 
Q 26.265625 48.484375 22.1875 42.84375 
Q 18.109375 37.203125 18.109375 27.296875 
Q 18.109375 17.390625 22.1875 11.75 
Q 26.265625 6.109375 33.40625 6.109375 
Q 40.53125 6.109375 44.609375 11.75 
Q 48.6875 17.390625 48.6875 27.296875 
z
M 18.109375 46.390625 
Q 20.953125 51.265625 25.265625 53.625 
Q 29.59375 56 35.59375 56 
Q 45.5625 56 51.78125 48.09375 
Q 58.015625 40.1875 58.015625 27.296875 
Q 58.015625 14.40625 51.78125 6.484375 
Q 45.5625 -1.421875 35.59375 -1.421875 
Q 29.59375 -1.421875 25.265625 0.953125 
Q 20.953125 3.328125 18.109375 8.203125 
L 18.109375 0 
L 9.078125 0 
L 9.078125 75.984375 
L 18.109375 75.984375 
z
" id="DejaVuSans-98"/>
     <path d="M 37.109375 75.984375 
L 37.109375 68.5 
L 28.515625 68.5 
Q 23.6875 68.5 21.796875 66.546875 
Q 19.921875 64.59375 19.921875 59.515625 
L 19.921875 54.6875 
L 34.71875 54.6875 
L 34.71875 47.703125 
L 19.921875 47.703125 
L 19.921875 0 
L 10.890625 0 
L 10.890625 47.703125 
L 2.296875 47.703125 
L 2.296875 54.6875 
L 10.890625 54.6875 
L 10.890625 58.5 
Q 10.890625 67.625 15.140625 71.796875 
Q 19.390625 75.984375 28.609375 75.984375 
z
" id="DejaVuSans-102"/>
    </defs>
    <g transform="translate(123.315 35.472)scale(0.12 -0.12)">
     <use xlink:href="#DejaVuSans-80"/>
     <use x="60.255859" xlink:href="#DejaVuSans-111"/>
     <use x="121.4375" xlink:href="#DejaVuSans-112"/>
     <use x="184.914062" xlink:href="#DejaVuSans-117"/>
     <use x="248.292969" xlink:href="#DejaVuSans-108"/>
     <use x="276.076172" xlink:href="#DejaVuSans-97"/>
     <use x="337.355469" xlink:href="#DejaVuSans-116"/>
     <use x="376.564453" xlink:href="#DejaVuSans-105"/>
     <use x="404.347656" xlink:href="#DejaVuSans-111"/>
     <use x="465.529297" xlink:href="#DejaVuSans-110"/>
     <use x="528.908203" xlink:href="#DejaVuSans-39"/>
     <use x="556.398438" xlink:href="#DejaVuSans-115"/>
     <use x="608.498047" xlink:href="#DejaVuSans-32"/>
     <use x="640.285156" xlink:href="#DejaVuSans-97"/>
     <use x="701.564453" xlink:href="#DejaVuSans-118"/>
     <use x="760.744141" xlink:href="#DejaVuSans-101"/>
     <use x="822.267578" xlink:href="#DejaVuSans-114"/>
     <use x="863.380859" xlink:href="#DejaVuSans-97"/>
     <use x="924.660156" xlink:href="#DejaVuSans-103"/>
     <use x="988.136719" xlink:href="#DejaVuSans-101"/>
     <use x="1049.660156" xlink:href="#DejaVuSans-32"/>
     <use x="1081.447266" xlink:href="#DejaVuSans-97"/>
     <use x="1142.726562" xlink:href="#DejaVuSans-110"/>
     <use x="1206.105469" xlink:href="#DejaVuSans-100"/>
     <use x="1269.582031" xlink:href="#DejaVuSans-32"/>
     <use x="1301.369141" xlink:href="#DejaVuSans-98"/>
     <use x="1364.845703" xlink:href="#DejaVuSans-101"/>
     <use x="1426.369141" xlink:href="#DejaVuSans-115"/>
     <use x="1478.46875" xlink:href="#DejaVuSans-116"/>
     <use x="1517.677734" xlink:href="#DejaVuSans-32"/>
     <use x="1549.464844" xlink:href="#DejaVuSans-102"/>
     <use x="1584.669922" xlink:href="#DejaVuSans-105"/>
     <use x="1612.453125" xlink:href="#DejaVuSans-116"/>
     <use x="1651.662109" xlink:href="#DejaVuSans-110"/>
     <use x="1715.041016" xlink:href="#DejaVuSans-101"/>
     <use x="1776.564453" xlink:href="#DejaVuSans-115"/>
     <use x="1828.664062" xlink:href="#DejaVuSans-115"/>
    </g>
   </g>
   <g id="legend_1">
    <g id="patch_7">
     <path d="M 199.689687 302.584 
L 272.630313 302.584 
Q 274.630313 302.584 274.630313 300.584 
L 274.630313 242.8715 
Q 274.630313 240.8715 272.630313 240.8715 
L 199.689687 240.8715 
Q 197.689687 240.8715 197.689687 242.8715 
L 197.689687 300.584 
Q 197.689687 302.584 199.689687 302.584 
z
" style="fill:#ffffff;opacity:0.8;stroke:#cccccc;stroke-linejoin:miter;"/>
    </g>
    <g id="line2d_33">
     <path d="M 201.689687 248.969937 
L 221.689687 248.969937 
" style="fill:none;stroke:#0000ff;stroke-linecap:square;stroke-width:1.5;"/>
    </g>
    <g id="line2d_34"/>
    <g id="text_18">
     <!-- average -->
     <g transform="translate(229.689687 252.469937)scale(0.1 -0.1)">
      <use xlink:href="#DejaVuSans-97"/>
      <use x="61.279297" xlink:href="#DejaVuSans-118"/>
      <use x="120.458984" xlink:href="#DejaVuSans-101"/>
      <use x="181.982422" xlink:href="#DejaVuSans-114"/>
      <use x="223.095703" xlink:href="#DejaVuSans-97"/>
      <use x="284.375" xlink:href="#DejaVuSans-103"/>
      <use x="347.851562" xlink:href="#DejaVuSans-101"/>
     </g>
    </g>
    <g id="line2d_35">
     <path d="M 201.689687 263.648062 
L 221.689687 263.648062 
" style="fill:none;stroke:#008000;stroke-dasharray:9.6,2.4,1.5,2.4;stroke-dashoffset:0;stroke-width:1.5;"/>
    </g>
    <g id="line2d_36"/>
    <g id="text_19">
     <!-- -1 sd -->
     <defs>
      <path d="M 4.890625 31.390625 
L 31.203125 31.390625 
L 31.203125 23.390625 
L 4.890625 23.390625 
z
" id="DejaVuSans-45"/>
     </defs>
     <g transform="translate(229.689687 267.148062)scale(0.1 -0.1)">
      <use xlink:href="#DejaVuSans-45"/>
      <use x="36.083984" xlink:href="#DejaVuSans-49"/>
      <use x="99.707031" xlink:href="#DejaVuSans-32"/>
      <use x="131.494141" xlink:href="#DejaVuSans-115"/>
      <use x="183.59375" xlink:href="#DejaVuSans-100"/>
     </g>
    </g>
    <g id="line2d_37">
     <path d="M 201.689687 278.326187 
L 221.689687 278.326187 
" style="fill:none;stroke:#008000;stroke-dasharray:9.6,2.4,1.5,2.4;stroke-dashoffset:0;stroke-width:1.5;"/>
    </g>
    <g id="line2d_38"/>
    <g id="text_20">
     <!-- +1 sd -->
     <defs>
      <path d="M 46 62.703125 
L 46 35.5 
L 73.1875 35.5 
L 73.1875 27.203125 
L 46 27.203125 
L 46 0 
L 37.796875 0 
L 37.796875 27.203125 
L 10.59375 27.203125 
L 10.59375 35.5 
L 37.796875 35.5 
L 37.796875 62.703125 
z
" id="DejaVuSans-43"/>
     </defs>
     <g transform="translate(229.689687 281.826187)scale(0.1 -0.1)">
      <use xlink:href="#DejaVuSans-43"/>
      <use x="83.789062" xlink:href="#DejaVuSans-49"/>
      <use x="147.412109" xlink:href="#DejaVuSans-32"/>
      <use x="179.199219" xlink:href="#DejaVuSans-115"/>
      <use x="231.298828" xlink:href="#DejaVuSans-100"/>
     </g>
    </g>
    <g id="line2d_39">
     <path d="M 201.689687 293.004312 
L 221.689687 293.004312 
" style="fill:none;stroke:#ff0000;stroke-linecap:square;stroke-width:1.5;"/>
    </g>
    <g id="line2d_40"/>
    <g id="text_21">
     <!-- best -->
     <g transform="translate(229.689687 296.504312)scale(0.1 -0.1)">
      <use xlink:href="#DejaVuSans-98"/>
      <use x="63.476562" xlink:href="#DejaVuSans-101"/>
      <use x="125" xlink:href="#DejaVuSans-115"/>
      <use x="177.099609" xlink:href="#DejaVuSans-116"/>
     </g>
    </g>
   </g>
  </g>
 </g>
 <defs>
  <clipPath id="p88f41d1a93">
   <rect height="266.112" width="357.12" x="57.6" y="41.472"/>
  </clipPath>
 </defs>
</svg>
