<?xml version="1.0" encoding="UTF-8" standalone="no"?>
<!DOCTYPE svg PUBLIC "-//W3C//DTD SVG 1.1//EN"
 "http://www.w3.org/Graphics/SVG/1.1/DTD/svg11.dtd">
<!-- Generated by graphviz version 2.40.1 (20161225.0304)
 -->
<!-- Title: %3 Pages: 1 -->
<svg width="386pt" height="175pt"
 viewBox="0.00 0.00 386.00 174.79" xmlns="http://www.w3.org/2000/svg" xmlns:xlink="http://www.w3.org/1999/xlink">
<g id="graph0" class="graph" transform="scale(1 1) rotate(0) translate(4 170.7893)">
<title>%3</title>
<polygon fill="#ffffff" stroke="transparent" points="-4,4 -4,-170.7893 381.9976,-170.7893 381.9976,4 -4,4"/>
<!-- E0 -->
<g id="node1" class="node">
<title>E0</title>
<polygon fill="#d3d3d3" stroke="#000000" points="25.9963,-166.7893 .0012,-166.7893 .0012,-149.7893 25.9963,-149.7893 25.9963,-166.7893"/>
<text text-anchor="middle" x="12.9988" y="-155.5893" font-family="Times,serif" font-size="9.00" fill="#000000">E0</text>
</g>
<!-- E1 -->
<g id="node2" class="node">
<title>E1</title>
<polygon fill="#d3d3d3" stroke="#000000" points="69.9963,-166.7893 44.0012,-166.7893 44.0012,-149.7893 69.9963,-149.7893 69.9963,-166.7893"/>
<text text-anchor="middle" x="56.9988" y="-155.5893" font-family="Times,serif" font-size="9.00" fill="#000000">E1</text>
</g>
<!-- E0&#45;&gt;E1 -->
<!-- 1 -->
<g id="node11" class="node">
<title>1</title>
<ellipse fill="#87cefa" stroke="#000000" cx="146.9988" cy="-14.853" rx="14.4914" ry="14.4914"/>
<text text-anchor="middle" x="146.9988" y="-12.153" font-family="Times,serif" font-size="9.00" fill="#000000">1</text>
</g>
<!-- E0&#45;&gt;1 -->
<g id="edge12" class="edge">
<title>E0&#45;&gt;1</title>
<path fill="none" stroke="#00ff00" stroke-width="2.0622" d="M20.9798,-149.7463C42.1855,-127.0473 100.3106,-64.829 129.618,-33.4577"/>
<polygon fill="#00ff00" stroke="#00ff00" stroke-width="2.0622" points="132.4686,-35.5335 136.7377,-25.8368 127.3534,-30.7548 132.4686,-35.5335"/>
</g>
<!-- E2 -->
<g id="node3" class="node">
<title>E2</title>
<polygon fill="#d3d3d3" stroke="#000000" points="113.9963,-166.7893 88.0012,-166.7893 88.0012,-149.7893 113.9963,-149.7893 113.9963,-166.7893"/>
<text text-anchor="middle" x="100.9988" y="-155.5893" font-family="Times,serif" font-size="9.00" fill="#000000">E2</text>
</g>
<!-- E1&#45;&gt;E2 -->
<!-- E3 -->
<g id="node4" class="node">
<title>E3</title>
<polygon fill="#d3d3d3" stroke="#000000" points="157.9963,-166.7893 132.0012,-166.7893 132.0012,-149.7893 157.9963,-149.7893 157.9963,-166.7893"/>
<text text-anchor="middle" x="144.9988" y="-155.5893" font-family="Times,serif" font-size="9.00" fill="#000000">E3</text>
</g>
<!-- E2&#45;&gt;E3 -->
<!-- E2&#45;&gt;1 -->
<g id="edge15" class="edge">
<title>E2&#45;&gt;1</title>
<path fill="none" stroke="#00ff00" stroke-width=".3901" d="M103.7385,-149.7463C110.6499,-128.1955 128.9852,-71.0227 139.4324,-38.4463"/>
<polygon fill="#00ff00" stroke="#00ff00" stroke-width=".3901" points="142.8017,-39.4013 142.5227,-28.8102 136.136,-37.2636 142.8017,-39.4013"/>
</g>
<!-- E4 -->
<g id="node5" class="node">
<title>E4</title>
<polygon fill="#d3d3d3" stroke="#000000" points="201.9963,-166.7893 176.0012,-166.7893 176.0012,-149.7893 201.9963,-149.7893 201.9963,-166.7893"/>
<text text-anchor="middle" x="188.9988" y="-155.5893" font-family="Times,serif" font-size="9.00" fill="#000000">E4</text>
</g>
<!-- E3&#45;&gt;E4 -->
<!-- 5423 -->
<g id="node14" class="node">
<title>5423</title>
<ellipse fill="#add8e6" stroke="#000000" cx="198.9988" cy="-89.7477" rx="24.0833" ry="24.0833"/>
<text text-anchor="middle" x="198.9988" y="-91.5477" font-family="Times,serif" font-size="9.00" fill="#000000">5423</text>
<text text-anchor="middle" x="198.9988" y="-82.5477" font-family="Times,serif" font-size="9.00" fill="#000000">sigm</text>
</g>
<!-- E3&#45;&gt;5423 -->
<g id="edge18" class="edge">
<title>E3&#45;&gt;5423</title>
<path fill="none" stroke="#00ff00" stroke-width=".5174" d="M151.8379,-149.6085C158.3866,-141.2963 168.6117,-128.3177 177.8692,-116.5673"/>
<polygon fill="#00ff00" stroke="#00ff00" stroke-width=".5174" points="180.6272,-118.7221 184.0665,-108.701 175.1287,-114.3901 180.6272,-118.7221"/>
</g>
<!-- E5 -->
<g id="node6" class="node">
<title>E5</title>
<polygon fill="#d3d3d3" stroke="#000000" points="245.9963,-166.7893 220.0012,-166.7893 220.0012,-149.7893 245.9963,-149.7893 245.9963,-166.7893"/>
<text text-anchor="middle" x="232.9988" y="-155.5893" font-family="Times,serif" font-size="9.00" fill="#000000">E5</text>
</g>
<!-- E4&#45;&gt;E5 -->
<!-- 0 -->
<g id="node10" class="node">
<title>0</title>
<ellipse fill="#87cefa" stroke="#000000" cx="99.9988" cy="-14.853" rx="14.4914" ry="14.4914"/>
<text text-anchor="middle" x="99.9988" y="-12.153" font-family="Times,serif" font-size="9.00" fill="#000000">0</text>
</g>
<!-- E4&#45;&gt;0 -->
<g id="edge14" class="edge">
<title>E4&#45;&gt;0</title>
<path fill="none" stroke="#ff0000" stroke-width="3.5349" d="M178.7838,-149.548C169.3781,-141.1074 155.4858,-127.605 145.9988,-113.7893 129.5792,-89.8781 116.3441,-59.1734 108.3587,-38.3577"/>
<polygon fill="#ff0000" stroke="#ff0000" stroke-width="3.5349" points="111.5438,-36.8818 104.7708,-28.7346 104.9849,-39.3273 111.5438,-36.8818"/>
</g>
<!-- S -->
<g id="node13" class="node">
<title>S</title>
<ellipse fill="#87cefa" stroke="#000000" cx="250.9988" cy="-14.853" rx="14.7075" ry="14.7075"/>
<text text-anchor="middle" x="250.9988" y="-12.153" font-family="Times,serif" font-size="9.00" fill="#000000">S</text>
</g>
<!-- E4&#45;&gt;S -->
<g id="edge17" class="edge">
<title>E4&#45;&gt;S</title>
<path fill="none" stroke="#00ff00" stroke-width=".4149" d="M200.4065,-149.7181C210.3617,-141.5931 224.3736,-128.4719 231.9988,-113.7893 244.0249,-90.6326 248.4869,-60.8655 250.1167,-40.057"/>
<polygon fill="#00ff00" stroke="#00ff00" stroke-width=".4149" points="253.6273,-39.9924 250.7485,-29.7962 246.6405,-39.5622 253.6273,-39.9924"/>
</g>
<!-- E6 -->
<g id="node7" class="node">
<title>E6</title>
<polygon fill="#d3d3d3" stroke="#000000" points="289.9963,-166.7893 264.0012,-166.7893 264.0012,-149.7893 289.9963,-149.7893 289.9963,-166.7893"/>
<text text-anchor="middle" x="276.9988" y="-155.5893" font-family="Times,serif" font-size="9.00" fill="#000000">E6</text>
</g>
<!-- E5&#45;&gt;E6 -->
<!-- E5&#45;&gt;1 -->
<g id="edge20" class="edge">
<title>E5&#45;&gt;1</title>
<path fill="none" stroke="#ff0000" stroke-width=".144" d="M219.8476,-153.2886C204.3798,-146.6913 179.1492,-133.5525 165.9988,-113.7893 151.3122,-91.7176 147.3564,-61.0977 146.5729,-39.7905"/>
<polygon fill="#ff0000" stroke="#ff0000" stroke-width=".144" points="150.0694,-39.5353 146.4123,-29.5916 143.0703,-39.6455 150.0694,-39.5353"/>
</g>
<!-- E7 -->
<g id="node8" class="node">
<title>E7</title>
<polygon fill="#d3d3d3" stroke="#000000" points="333.9963,-166.7893 308.0012,-166.7893 308.0012,-149.7893 333.9963,-149.7893 333.9963,-166.7893"/>
<text text-anchor="middle" x="320.9988" y="-155.5893" font-family="Times,serif" font-size="9.00" fill="#000000">E7</text>
</g>
<!-- E6&#45;&gt;E7 -->
<!-- E6&#45;&gt;S -->
<g id="edge16" class="edge">
<title>E6&#45;&gt;S</title>
<path fill="none" stroke="#ff0000" stroke-width=".3076" d="M276.276,-149.5432C274.8213,-133.0374 271.1437,-96.2126 264.9988,-65.7061 263.2443,-56.9958 260.8085,-47.5827 258.4599,-39.2509"/>
<polygon fill="#ff0000" stroke="#ff0000" stroke-width=".3076" points="261.7497,-38.0299 255.5896,-29.41 255.0297,-39.99 261.7497,-38.0299"/>
</g>
<!-- E8 -->
<g id="node9" class="node">
<title>E8</title>
<polygon fill="#d3d3d3" stroke="#000000" points="377.9963,-166.7893 352.0012,-166.7893 352.0012,-149.7893 377.9963,-149.7893 377.9963,-166.7893"/>
<text text-anchor="middle" x="364.9988" y="-155.5893" font-family="Times,serif" font-size="9.00" fill="#000000">E8</text>
</g>
<!-- E7&#45;&gt;E8 -->
<!-- 2 -->
<g id="node12" class="node">
<title>2</title>
<ellipse fill="#87cefa" stroke="#000000" cx="203.9988" cy="-14.853" rx="14.4914" ry="14.4914"/>
<text text-anchor="middle" x="203.9988" y="-12.153" font-family="Times,serif" font-size="9.00" fill="#000000">2</text>
</g>
<!-- E8&#45;&gt;2 -->
<g id="edge13" class="edge">
<title>E8&#45;&gt;2</title>
<path fill="none" stroke="#ff0000" stroke-width="1.6691" d="M355.4096,-149.7463C329.3383,-126.5191 256.8201,-61.9121 222.4807,-31.3188"/>
<polygon fill="#ff0000" stroke="#ff0000" stroke-width="1.6691" points="224.7965,-28.6943 215.0016,-24.6555 220.14,-33.921 224.7965,-28.6943"/>
</g>
<!-- 0&#45;&gt;1 -->
<!-- 1&#45;&gt;2 -->
<!-- 2&#45;&gt;S -->
<!-- 5423&#45;&gt;S -->
<g id="edge19" class="edge">
<title>5423&#45;&gt;S</title>
<path fill="none" stroke="#00ff00" stroke-width=".5128" d="M212.9338,-69.6773C220.2668,-59.1157 229.245,-46.1846 236.6399,-35.5339"/>
<polygon fill="#00ff00" stroke="#00ff00" stroke-width=".5128" points="239.5801,-37.436 242.4084,-27.2256 233.8302,-33.4437 239.5801,-37.436"/>
</g>
</g>
</svg>
