<?xml version="1.0" encoding="UTF-8" standalone="no"?>
<!DOCTYPE svg PUBLIC "-//W3C//DTD SVG 1.1//EN"
 "http://www.w3.org/Graphics/SVG/1.1/DTD/svg11.dtd">
<!-- Generated by graphviz version 2.40.1 (20161225.0304)
 -->
<!-- Title: %3 Pages: 1 -->
<svg width="485pt" height="98pt"
 viewBox="0.00 0.00 484.77 97.77" xmlns="http://www.w3.org/2000/svg" xmlns:xlink="http://www.w3.org/1999/xlink">
<g id="graph0" class="graph" transform="scale(1 1) rotate(0) translate(4 93.7661)">
<title>%3</title>
<polygon fill="#ffffff" stroke="transparent" points="-4,4 -4,-93.7661 480.7661,-93.7661 480.7661,4 -4,4"/>
<!-- 0 -->
<g id="node1" class="node">
<title>0</title>
<polygon fill="#d3d3d3" stroke="#000000" points="236.389,-89.7661 216.3771,-89.7661 216.3771,-72.7661 236.389,-72.7661 236.389,-89.7661"/>
<text text-anchor="middle" x="226.383" y="-78.5661" font-family="Times,serif" font-size="9.00" fill="#000000">0</text>
</g>
<!-- 1 -->
<g id="node2" class="node">
<title>1</title>
<polygon fill="#d3d3d3" stroke="#000000" points="275.389,-89.7661 255.3771,-89.7661 255.3771,-72.7661 275.389,-72.7661 275.389,-89.7661"/>
<text text-anchor="middle" x="265.383" y="-78.5661" font-family="Times,serif" font-size="9.00" fill="#000000">1</text>
</g>
<!-- 0&#45;&gt;1 -->
<!-- E8 -->
<g id="node12" class="node">
<title>E8</title>
<ellipse fill="#87cefa" stroke="#000000" cx="458.383" cy="-18.383" rx="18.2668" ry="18.2668"/>
<text text-anchor="middle" x="458.383" y="-15.683" font-family="Times,serif" font-size="9.00" fill="#000000">E8</text>
</g>
<!-- 0&#45;&gt;E8 -->
<g id="edge13" class="edge">
<title>0&#45;&gt;E8</title>
<path fill="none" stroke="#ff0000" stroke-width="1.1164" d="M236.4049,-76.5233C239.5483,-75.1677 243.0646,-73.7837 246.383,-72.7661 326.0499,-48.3367 353.2199,-68.2217 430.383,-36.7661 431.7966,-36.1899 433.2146,-35.5385 434.6214,-34.8335"/>
<polygon fill="#ff0000" stroke="#ff0000" stroke-width="1.1164" points="436.6872,-37.6811 443.5743,-29.6301 433.1698,-31.6291 436.6872,-37.6811"/>
</g>
<!-- 2 -->
<g id="node3" class="node">
<title>2</title>
<polygon fill="#d3d3d3" stroke="#000000" points="314.389,-89.7661 294.3771,-89.7661 294.3771,-72.7661 314.389,-72.7661 314.389,-89.7661"/>
<text text-anchor="middle" x="304.383" y="-78.5661" font-family="Times,serif" font-size="9.00" fill="#000000">2</text>
</g>
<!-- 1&#45;&gt;2 -->
<!-- E2 -->
<g id="node6" class="node">
<title>E2</title>
<ellipse fill="#87cefa" stroke="#000000" cx="128.383" cy="-18.383" rx="18.2668" ry="18.2668"/>
<text text-anchor="middle" x="128.383" y="-15.683" font-family="Times,serif" font-size="9.00" fill="#000000">E2</text>
</g>
<!-- 1&#45;&gt;E2 -->
<g id="edge12" class="edge">
<title>1&#45;&gt;E2</title>
<path fill="none" stroke="#ff0000" stroke-width="1.9306" d="M255.223,-76.9075C252.074,-75.5675 248.5892,-74.0957 245.383,-72.7661 205.969,-56.4207 194.1776,-56.5706 156.383,-36.7661 155.031,-36.0576 153.6617,-35.3011 152.2931,-34.5139"/>
<polygon fill="#ff0000" stroke="#ff0000" stroke-width="1.9306" points="153.8053,-31.3341 143.458,-29.0569 150.1268,-37.2897 153.8053,-31.3341"/>
</g>
<!-- E7 -->
<g id="node11" class="node">
<title>E7</title>
<ellipse fill="#87cefa" stroke="#000000" cx="403.383" cy="-18.383" rx="18.2668" ry="18.2668"/>
<text text-anchor="middle" x="403.383" y="-15.683" font-family="Times,serif" font-size="9.00" fill="#000000">E7</text>
</g>
<!-- 1&#45;&gt;E7 -->
<g id="edge14" class="edge">
<title>1&#45;&gt;E7</title>
<path fill="none" stroke="#ff0000" stroke-width=".4015" d="M275.5399,-76.8998C278.6888,-75.5595 282.1743,-74.0895 285.383,-72.7661 325.2099,-56.3397 337.1847,-56.6881 375.383,-36.7661 376.7365,-36.0602 378.1068,-35.3058 379.4763,-34.5202"/>
<polygon fill="#ff0000" stroke="#ff0000" stroke-width=".4015" points="381.6408,-37.2974 388.314,-29.0683 377.9655,-31.3398 381.6408,-37.2974"/>
</g>
<!-- E1 -->
<g id="node5" class="node">
<title>E1</title>
<ellipse fill="#87cefa" stroke="#000000" cx="73.383" cy="-18.383" rx="18.2668" ry="18.2668"/>
<text text-anchor="middle" x="73.383" y="-15.683" font-family="Times,serif" font-size="9.00" fill="#000000">E1</text>
</g>
<!-- 2&#45;&gt;E1 -->
<g id="edge11" class="edge">
<title>2&#45;&gt;E1</title>
<path fill="none" stroke="#ff0000" stroke-width="1.5383" d="M294.3606,-76.5254C291.2172,-75.1698 287.701,-73.7854 284.383,-72.7661 205.1457,-48.4238 178.1262,-68.0966 101.383,-36.7661 99.9698,-36.1891 98.552,-35.5372 97.1454,-34.8318"/>
<polygon fill="#ff0000" stroke="#ff0000" stroke-width="1.5383" points="98.5973,-31.6274 88.193,-29.627 95.079,-37.679 98.5973,-31.6274"/>
</g>
<!-- E0 -->
<g id="node4" class="node">
<title>E0</title>
<ellipse fill="#87cefa" stroke="#000000" cx="18.383" cy="-18.383" rx="18.2668" ry="18.2668"/>
<text text-anchor="middle" x="18.383" y="-15.683" font-family="Times,serif" font-size="9.00" fill="#000000">E0</text>
</g>
<!-- E0&#45;&gt;E1 -->
<!-- E1&#45;&gt;E2 -->
<!-- E3 -->
<g id="node7" class="node">
<title>E3</title>
<ellipse fill="#87cefa" stroke="#000000" cx="183.383" cy="-18.383" rx="18.2668" ry="18.2668"/>
<text text-anchor="middle" x="183.383" y="-15.683" font-family="Times,serif" font-size="9.00" fill="#000000">E3</text>
</g>
<!-- E2&#45;&gt;E3 -->
<!-- E4 -->
<g id="node8" class="node">
<title>E4</title>
<ellipse fill="#87cefa" stroke="#000000" cx="238.383" cy="-18.383" rx="18.2668" ry="18.2668"/>
<text text-anchor="middle" x="238.383" y="-15.683" font-family="Times,serif" font-size="9.00" fill="#000000">E4</text>
</g>
<!-- E3&#45;&gt;E4 -->
<!-- E5 -->
<g id="node9" class="node">
<title>E5</title>
<ellipse fill="#87cefa" stroke="#000000" cx="293.383" cy="-18.383" rx="18.2668" ry="18.2668"/>
<text text-anchor="middle" x="293.383" y="-15.683" font-family="Times,serif" font-size="9.00" fill="#000000">E5</text>
</g>
<!-- E4&#45;&gt;E5 -->
<!-- E6 -->
<g id="node10" class="node">
<title>E6</title>
<ellipse fill="#87cefa" stroke="#000000" cx="348.383" cy="-18.383" rx="18.2668" ry="18.2668"/>
<text text-anchor="middle" x="348.383" y="-15.683" font-family="Times,serif" font-size="9.00" fill="#000000">E6</text>
</g>
<!-- E5&#45;&gt;E6 -->
<!-- E6&#45;&gt;E7 -->
<!-- E7&#45;&gt;E8 -->
</g>
</svg>
