<?xml version="1.0" encoding="UTF-8" standalone="no"?>
<!DOCTYPE svg PUBLIC "-//W3C//DTD SVG 1.1//EN"
 "http://www.w3.org/Graphics/SVG/1.1/DTD/svg11.dtd">
<!-- Generated by graphviz version 2.40.1 (20161225.0304)
 -->
<!-- Title: %3 Pages: 1 -->
<svg width="386pt" height="91pt"
 viewBox="0.00 0.00 386.00 90.71" xmlns="http://www.w3.org/2000/svg" xmlns:xlink="http://www.w3.org/1999/xlink">
<g id="graph0" class="graph" transform="scale(1 1) rotate(0) translate(4 86.7061)">
<title>%3</title>
<polygon fill="#ffffff" stroke="transparent" points="-4,4 -4,-86.7061 381.9976,-86.7061 381.9976,4 -4,4"/>
<!-- E0 -->
<g id="node1" class="node">
<title>E0</title>
<polygon fill="#d3d3d3" stroke="#000000" points="25.9963,-82.7061 .0012,-82.7061 .0012,-65.7061 25.9963,-65.7061 25.9963,-82.7061"/>
<text text-anchor="middle" x="12.9988" y="-71.5061" font-family="Times,serif" font-size="9.00" fill="#000000">E0</text>
</g>
<!-- E1 -->
<g id="node2" class="node">
<title>E1</title>
<polygon fill="#d3d3d3" stroke="#000000" points="69.9963,-82.7061 44.0012,-82.7061 44.0012,-65.7061 69.9963,-65.7061 69.9963,-82.7061"/>
<text text-anchor="middle" x="56.9988" y="-71.5061" font-family="Times,serif" font-size="9.00" fill="#000000">E1</text>
</g>
<!-- E0&#45;&gt;E1 -->
<!-- E2 -->
<g id="node3" class="node">
<title>E2</title>
<polygon fill="#d3d3d3" stroke="#000000" points="113.9963,-82.7061 88.0012,-82.7061 88.0012,-65.7061 113.9963,-65.7061 113.9963,-82.7061"/>
<text text-anchor="middle" x="100.9988" y="-71.5061" font-family="Times,serif" font-size="9.00" fill="#000000">E2</text>
</g>
<!-- E1&#45;&gt;E2 -->
<!-- 2 -->
<g id="node12" class="node">
<title>2</title>
<ellipse fill="#87cefa" stroke="#000000" cx="276.9988" cy="-14.853" rx="14.4914" ry="14.4914"/>
<text text-anchor="middle" x="276.9988" y="-12.153" font-family="Times,serif" font-size="9.00" fill="#000000">2</text>
</g>
<!-- E1&#45;&gt;2 -->
<g id="edge12" class="edge">
<title>E1&#45;&gt;2</title>
<path fill="none" stroke="#ff0000" stroke-width="1.7773" d="M70.374,-68.6355C73.1932,-67.5755 76.1707,-66.5388 78.9988,-65.7061 154.7542,-43.3999 179.6347,-58.9322 252.9988,-29.7061 253.8751,-29.357 254.7553,-28.9764 255.6339,-28.5711"/>
<polygon fill="#ff0000" stroke="#ff0000" stroke-width="1.7773" points="257.6445,-31.4604 264.7325,-23.5856 254.2808,-25.3215 257.6445,-31.4604"/>
</g>
<!-- E3 -->
<g id="node4" class="node">
<title>E3</title>
<polygon fill="#d3d3d3" stroke="#000000" points="157.9963,-82.7061 132.0012,-82.7061 132.0012,-65.7061 157.9963,-65.7061 157.9963,-82.7061"/>
<text text-anchor="middle" x="144.9988" y="-71.5061" font-family="Times,serif" font-size="9.00" fill="#000000">E3</text>
</g>
<!-- E2&#45;&gt;E3 -->
<!-- 1 -->
<g id="node11" class="node">
<title>1</title>
<ellipse fill="#87cefa" stroke="#000000" cx="229.9988" cy="-14.853" rx="14.4914" ry="14.4914"/>
<text text-anchor="middle" x="229.9988" y="-12.153" font-family="Times,serif" font-size="9.00" fill="#000000">1</text>
</g>
<!-- E2&#45;&gt;1 -->
<g id="edge13" class="edge">
<title>E2&#45;&gt;1</title>
<path fill="none" stroke="#ff0000" stroke-width="3.5031" d="M114.2399,-68.8908C138.496,-59.1049 189.1182,-38.4412 205.9988,-29.7061 206.8365,-29.2726 207.684,-28.8203 208.535,-28.3545"/>
<polygon fill="#ff0000" stroke="#ff0000" stroke-width="3.5031" points="210.6541,-31.169 217.5048,-23.087 207.1093,-25.1328 210.6541,-31.169"/>
</g>
<!-- E4 -->
<g id="node5" class="node">
<title>E4</title>
<polygon fill="#d3d3d3" stroke="#000000" points="201.9963,-82.7061 176.0012,-82.7061 176.0012,-65.7061 201.9963,-65.7061 201.9963,-82.7061"/>
<text text-anchor="middle" x="188.9988" y="-71.5061" font-family="Times,serif" font-size="9.00" fill="#000000">E4</text>
</g>
<!-- E3&#45;&gt;E4 -->
<!-- E5 -->
<g id="node6" class="node">
<title>E5</title>
<polygon fill="#d3d3d3" stroke="#000000" points="245.9963,-82.7061 220.0012,-82.7061 220.0012,-65.7061 245.9963,-65.7061 245.9963,-82.7061"/>
<text text-anchor="middle" x="232.9988" y="-71.5061" font-family="Times,serif" font-size="9.00" fill="#000000">E5</text>
</g>
<!-- E4&#45;&gt;E5 -->
<!-- E6 -->
<g id="node7" class="node">
<title>E6</title>
<polygon fill="#d3d3d3" stroke="#000000" points="289.9963,-82.7061 264.0012,-82.7061 264.0012,-65.7061 289.9963,-65.7061 289.9963,-82.7061"/>
<text text-anchor="middle" x="276.9988" y="-71.5061" font-family="Times,serif" font-size="9.00" fill="#000000">E6</text>
</g>
<!-- E5&#45;&gt;E6 -->
<!-- E7 -->
<g id="node8" class="node">
<title>E7</title>
<polygon fill="#d3d3d3" stroke="#000000" points="333.9963,-82.7061 308.0012,-82.7061 308.0012,-65.7061 333.9963,-65.7061 333.9963,-82.7061"/>
<text text-anchor="middle" x="320.9988" y="-71.5061" font-family="Times,serif" font-size="9.00" fill="#000000">E7</text>
</g>
<!-- E6&#45;&gt;E7 -->
<!-- E6&#45;&gt;2 -->
<g id="edge16" class="edge">
<title>E6&#45;&gt;2</title>
<path fill="none" stroke="#ff0000" stroke-width=".3365" d="M276.9988,-65.7022C276.9988,-58.9749 276.9988,-49.2187 276.9988,-40.0472"/>
<polygon fill="#ff0000" stroke="#ff0000" stroke-width=".3365" points="280.4989,-39.7656 276.9988,-29.7657 273.4989,-39.7657 280.4989,-39.7656"/>
</g>
<!-- E8 -->
<g id="node9" class="node">
<title>E8</title>
<polygon fill="#d3d3d3" stroke="#000000" points="377.9963,-82.7061 352.0012,-82.7061 352.0012,-65.7061 377.9963,-65.7061 377.9963,-82.7061"/>
<text text-anchor="middle" x="364.9988" y="-71.5061" font-family="Times,serif" font-size="9.00" fill="#000000">E8</text>
</g>
<!-- E7&#45;&gt;E8 -->
<!-- 0 -->
<g id="node10" class="node">
<title>0</title>
<ellipse fill="#87cefa" stroke="#000000" cx="182.9988" cy="-14.853" rx="14.4914" ry="14.4914"/>
<text text-anchor="middle" x="182.9988" y="-12.153" font-family="Times,serif" font-size="9.00" fill="#000000">0</text>
</g>
<!-- E8&#45;&gt;0 -->
<g id="edge14" class="edge">
<title>E8&#45;&gt;0</title>
<path fill="none" stroke="#ff0000" stroke-width="2.7634" d="M351.5866,-68.755C348.7701,-67.6863 345.803,-66.6159 342.9988,-65.7061 283.5246,-46.4097 264.4303,-54.4275 206.9988,-29.7061 206.1324,-29.3331 205.2606,-28.9323 204.3891,-28.5099"/>
<polygon fill="#ff0000" stroke="#ff0000" stroke-width="2.7634" points="205.7605,-25.2669 195.3235,-23.4447 202.3462,-31.3778 205.7605,-25.2669"/>
</g>
<!-- E8&#45;&gt;1 -->
<g id="edge15" class="edge">
<title>E8&#45;&gt;1</title>
<path fill="none" stroke="#00ff00" stroke-width=".1766" d="M351.9001,-69.102C324.5562,-58.4258 263.172,-34.3396 253.9988,-29.7061 253.1568,-29.2808 252.3058,-28.8355 251.4518,-28.3756"/>
<polygon fill="#00ff00" stroke="#00ff00" stroke-width=".1766" points="252.8694,-25.1506 242.4679,-23.1356 249.3426,-31.1972 252.8694,-25.1506"/>
</g>
<!-- 0&#45;&gt;1 -->
<!-- 1&#45;&gt;2 -->
<!-- S -->
<g id="node13" class="node">
<title>S</title>
<ellipse fill="#87cefa" stroke="#000000" cx="323.9988" cy="-14.853" rx="14.7075" ry="14.7075"/>
<text text-anchor="middle" x="323.9988" y="-12.153" font-family="Times,serif" font-size="9.00" fill="#000000">S</text>
</g>
<!-- 2&#45;&gt;S -->
</g>
</svg>
