<?xml version="1.0" encoding="utf-8" standalone="no"?>
<!DOCTYPE svg PUBLIC "-//W3C//DTD SVG 1.1//EN"
  "http://www.w3.org/Graphics/SVG/1.1/DTD/svg11.dtd">
<!-- Created with matplotlib (https://matplotlib.org/) -->
<svg height="345.6pt" version="1.1" viewBox="0 0 460.8 345.6" width="460.8pt" xmlns="http://www.w3.org/2000/svg" xmlns:xlink="http://www.w3.org/1999/xlink">
 <defs>
  <style type="text/css">
*{stroke-linecap:butt;stroke-linejoin:round;}
  </style>
 </defs>
 <g id="figure_1">
  <g id="patch_1">
   <path d="M 0 345.6 
L 460.8 345.6 
L 460.8 0 
L 0 0 
z
" style="fill:#ffffff;"/>
  </g>
  <g id="axes_1">
   <g id="patch_2">
    <path d="M 57.6 307.584 
L 414.72 307.584 
L 414.72 41.472 
L 57.6 41.472 
z
" style="fill:#ffffff;"/>
   </g>
   <g id="matplotlib.axis_1">
    <g id="xtick_1">
     <g id="line2d_1">
      <path clip-path="url(#p1c512a5ace)" d="M 73.832727 307.584 
L 73.832727 41.472 
" style="fill:none;stroke:#b0b0b0;stroke-linecap:square;stroke-width:0.8;"/>
     </g>
     <g id="line2d_2">
      <defs>
       <path d="M 0 0 
L 0 3.5 
" id="m8ee1c4610f" style="stroke:#000000;stroke-width:0.8;"/>
      </defs>
      <g>
       <use style="stroke:#000000;stroke-width:0.8;" x="73.832727" xlink:href="#m8ee1c4610f" y="307.584"/>
      </g>
     </g>
     <g id="text_1">
      <!-- 0 -->
      <defs>
       <path d="M 31.78125 66.40625 
Q 24.171875 66.40625 20.328125 58.90625 
Q 16.5 51.421875 16.5 36.375 
Q 16.5 21.390625 20.328125 13.890625 
Q 24.171875 6.390625 31.78125 6.390625 
Q 39.453125 6.390625 43.28125 13.890625 
Q 47.125 21.390625 47.125 36.375 
Q 47.125 51.421875 43.28125 58.90625 
Q 39.453125 66.40625 31.78125 66.40625 
z
M 31.78125 74.21875 
Q 44.046875 74.21875 50.515625 64.515625 
Q 56.984375 54.828125 56.984375 36.375 
Q 56.984375 17.96875 50.515625 8.265625 
Q 44.046875 -1.421875 31.78125 -1.421875 
Q 19.53125 -1.421875 13.0625 8.265625 
Q 6.59375 17.96875 6.59375 36.375 
Q 6.59375 54.828125 13.0625 64.515625 
Q 19.53125 74.21875 31.78125 74.21875 
z
" id="DejaVuSans-48"/>
      </defs>
      <g transform="translate(70.651477 322.182437)scale(0.1 -0.1)">
       <use xlink:href="#DejaVuSans-48"/>
      </g>
     </g>
    </g>
    <g id="xtick_2">
     <g id="line2d_3">
      <path clip-path="url(#p1c512a5ace)" d="M 128.122785 307.584 
L 128.122785 41.472 
" style="fill:none;stroke:#b0b0b0;stroke-linecap:square;stroke-width:0.8;"/>
     </g>
     <g id="line2d_4">
      <g>
       <use style="stroke:#000000;stroke-width:0.8;" x="128.122785" xlink:href="#m8ee1c4610f" y="307.584"/>
      </g>
     </g>
     <g id="text_2">
      <!-- 50 -->
      <defs>
       <path d="M 10.796875 72.90625 
L 49.515625 72.90625 
L 49.515625 64.59375 
L 19.828125 64.59375 
L 19.828125 46.734375 
Q 21.96875 47.46875 24.109375 47.828125 
Q 26.265625 48.1875 28.421875 48.1875 
Q 40.625 48.1875 47.75 41.5 
Q 54.890625 34.8125 54.890625 23.390625 
Q 54.890625 11.625 47.5625 5.09375 
Q 40.234375 -1.421875 26.90625 -1.421875 
Q 22.3125 -1.421875 17.546875 -0.640625 
Q 12.796875 0.140625 7.71875 1.703125 
L 7.71875 11.625 
Q 12.109375 9.234375 16.796875 8.0625 
Q 21.484375 6.890625 26.703125 6.890625 
Q 35.15625 6.890625 40.078125 11.328125 
Q 45.015625 15.765625 45.015625 23.390625 
Q 45.015625 31 40.078125 35.4375 
Q 35.15625 39.890625 26.703125 39.890625 
Q 22.75 39.890625 18.8125 39.015625 
Q 14.890625 38.140625 10.796875 36.28125 
z
" id="DejaVuSans-53"/>
      </defs>
      <g transform="translate(121.760285 322.182437)scale(0.1 -0.1)">
       <use xlink:href="#DejaVuSans-53"/>
       <use x="63.623047" xlink:href="#DejaVuSans-48"/>
      </g>
     </g>
    </g>
    <g id="xtick_3">
     <g id="line2d_5">
      <path clip-path="url(#p1c512a5ace)" d="M 182.412843 307.584 
L 182.412843 41.472 
" style="fill:none;stroke:#b0b0b0;stroke-linecap:square;stroke-width:0.8;"/>
     </g>
     <g id="line2d_6">
      <g>
       <use style="stroke:#000000;stroke-width:0.8;" x="182.412843" xlink:href="#m8ee1c4610f" y="307.584"/>
      </g>
     </g>
     <g id="text_3">
      <!-- 100 -->
      <defs>
       <path d="M 12.40625 8.296875 
L 28.515625 8.296875 
L 28.515625 63.921875 
L 10.984375 60.40625 
L 10.984375 69.390625 
L 28.421875 72.90625 
L 38.28125 72.90625 
L 38.28125 8.296875 
L 54.390625 8.296875 
L 54.390625 0 
L 12.40625 0 
z
" id="DejaVuSans-49"/>
      </defs>
      <g transform="translate(172.869093 322.182437)scale(0.1 -0.1)">
       <use xlink:href="#DejaVuSans-49"/>
       <use x="63.623047" xlink:href="#DejaVuSans-48"/>
       <use x="127.246094" xlink:href="#DejaVuSans-48"/>
      </g>
     </g>
    </g>
    <g id="xtick_4">
     <g id="line2d_7">
      <path clip-path="url(#p1c512a5ace)" d="M 236.702901 307.584 
L 236.702901 41.472 
" style="fill:none;stroke:#b0b0b0;stroke-linecap:square;stroke-width:0.8;"/>
     </g>
     <g id="line2d_8">
      <g>
       <use style="stroke:#000000;stroke-width:0.8;" x="236.702901" xlink:href="#m8ee1c4610f" y="307.584"/>
      </g>
     </g>
     <g id="text_4">
      <!-- 150 -->
      <g transform="translate(227.159151 322.182437)scale(0.1 -0.1)">
       <use xlink:href="#DejaVuSans-49"/>
       <use x="63.623047" xlink:href="#DejaVuSans-53"/>
       <use x="127.246094" xlink:href="#DejaVuSans-48"/>
      </g>
     </g>
    </g>
    <g id="xtick_5">
     <g id="line2d_9">
      <path clip-path="url(#p1c512a5ace)" d="M 290.992958 307.584 
L 290.992958 41.472 
" style="fill:none;stroke:#b0b0b0;stroke-linecap:square;stroke-width:0.8;"/>
     </g>
     <g id="line2d_10">
      <g>
       <use style="stroke:#000000;stroke-width:0.8;" x="290.992958" xlink:href="#m8ee1c4610f" y="307.584"/>
      </g>
     </g>
     <g id="text_5">
      <!-- 200 -->
      <defs>
       <path d="M 19.1875 8.296875 
L 53.609375 8.296875 
L 53.609375 0 
L 7.328125 0 
L 7.328125 8.296875 
Q 12.9375 14.109375 22.625 23.890625 
Q 32.328125 33.6875 34.8125 36.53125 
Q 39.546875 41.84375 41.421875 45.53125 
Q 43.3125 49.21875 43.3125 52.78125 
Q 43.3125 58.59375 39.234375 62.25 
Q 35.15625 65.921875 28.609375 65.921875 
Q 23.96875 65.921875 18.8125 64.3125 
Q 13.671875 62.703125 7.8125 59.421875 
L 7.8125 69.390625 
Q 13.765625 71.78125 18.9375 73 
Q 24.125 74.21875 28.421875 74.21875 
Q 39.75 74.21875 46.484375 68.546875 
Q 53.21875 62.890625 53.21875 53.421875 
Q 53.21875 48.921875 51.53125 44.890625 
Q 49.859375 40.875 45.40625 35.40625 
Q 44.1875 33.984375 37.640625 27.21875 
Q 31.109375 20.453125 19.1875 8.296875 
z
" id="DejaVuSans-50"/>
      </defs>
      <g transform="translate(281.449208 322.182437)scale(0.1 -0.1)">
       <use xlink:href="#DejaVuSans-50"/>
       <use x="63.623047" xlink:href="#DejaVuSans-48"/>
       <use x="127.246094" xlink:href="#DejaVuSans-48"/>
      </g>
     </g>
    </g>
    <g id="xtick_6">
     <g id="line2d_11">
      <path clip-path="url(#p1c512a5ace)" d="M 345.283016 307.584 
L 345.283016 41.472 
" style="fill:none;stroke:#b0b0b0;stroke-linecap:square;stroke-width:0.8;"/>
     </g>
     <g id="line2d_12">
      <g>
       <use style="stroke:#000000;stroke-width:0.8;" x="345.283016" xlink:href="#m8ee1c4610f" y="307.584"/>
      </g>
     </g>
     <g id="text_6">
      <!-- 250 -->
      <g transform="translate(335.739266 322.182437)scale(0.1 -0.1)">
       <use xlink:href="#DejaVuSans-50"/>
       <use x="63.623047" xlink:href="#DejaVuSans-53"/>
       <use x="127.246094" xlink:href="#DejaVuSans-48"/>
      </g>
     </g>
    </g>
    <g id="xtick_7">
     <g id="line2d_13">
      <path clip-path="url(#p1c512a5ace)" d="M 399.573074 307.584 
L 399.573074 41.472 
" style="fill:none;stroke:#b0b0b0;stroke-linecap:square;stroke-width:0.8;"/>
     </g>
     <g id="line2d_14">
      <g>
       <use style="stroke:#000000;stroke-width:0.8;" x="399.573074" xlink:href="#m8ee1c4610f" y="307.584"/>
      </g>
     </g>
     <g id="text_7">
      <!-- 300 -->
      <defs>
       <path d="M 40.578125 39.3125 
Q 47.65625 37.796875 51.625 33 
Q 55.609375 28.21875 55.609375 21.1875 
Q 55.609375 10.40625 48.1875 4.484375 
Q 40.765625 -1.421875 27.09375 -1.421875 
Q 22.515625 -1.421875 17.65625 -0.515625 
Q 12.796875 0.390625 7.625 2.203125 
L 7.625 11.71875 
Q 11.71875 9.328125 16.59375 8.109375 
Q 21.484375 6.890625 26.8125 6.890625 
Q 36.078125 6.890625 40.9375 10.546875 
Q 45.796875 14.203125 45.796875 21.1875 
Q 45.796875 27.640625 41.28125 31.265625 
Q 36.765625 34.90625 28.71875 34.90625 
L 20.21875 34.90625 
L 20.21875 43.015625 
L 29.109375 43.015625 
Q 36.375 43.015625 40.234375 45.921875 
Q 44.09375 48.828125 44.09375 54.296875 
Q 44.09375 59.90625 40.109375 62.90625 
Q 36.140625 65.921875 28.71875 65.921875 
Q 24.65625 65.921875 20.015625 65.03125 
Q 15.375 64.15625 9.8125 62.3125 
L 9.8125 71.09375 
Q 15.4375 72.65625 20.34375 73.4375 
Q 25.25 74.21875 29.59375 74.21875 
Q 40.828125 74.21875 47.359375 69.109375 
Q 53.90625 64.015625 53.90625 55.328125 
Q 53.90625 49.265625 50.4375 45.09375 
Q 46.96875 40.921875 40.578125 39.3125 
z
" id="DejaVuSans-51"/>
      </defs>
      <g transform="translate(390.029324 322.182437)scale(0.1 -0.1)">
       <use xlink:href="#DejaVuSans-51"/>
       <use x="63.623047" xlink:href="#DejaVuSans-48"/>
       <use x="127.246094" xlink:href="#DejaVuSans-48"/>
      </g>
     </g>
    </g>
    <g id="text_8">
     <!-- Generations -->
     <defs>
      <path d="M 59.515625 10.40625 
L 59.515625 29.984375 
L 43.40625 29.984375 
L 43.40625 38.09375 
L 69.28125 38.09375 
L 69.28125 6.78125 
Q 63.578125 2.734375 56.6875 0.65625 
Q 49.8125 -1.421875 42 -1.421875 
Q 24.90625 -1.421875 15.25 8.5625 
Q 5.609375 18.5625 5.609375 36.375 
Q 5.609375 54.25 15.25 64.234375 
Q 24.90625 74.21875 42 74.21875 
Q 49.125 74.21875 55.546875 72.453125 
Q 61.96875 70.703125 67.390625 67.28125 
L 67.390625 56.78125 
Q 61.921875 61.421875 55.765625 63.765625 
Q 49.609375 66.109375 42.828125 66.109375 
Q 29.4375 66.109375 22.71875 58.640625 
Q 16.015625 51.171875 16.015625 36.375 
Q 16.015625 21.625 22.71875 14.15625 
Q 29.4375 6.6875 42.828125 6.6875 
Q 48.046875 6.6875 52.140625 7.59375 
Q 56.25 8.5 59.515625 10.40625 
z
" id="DejaVuSans-71"/>
      <path d="M 56.203125 29.59375 
L 56.203125 25.203125 
L 14.890625 25.203125 
Q 15.484375 15.921875 20.484375 11.0625 
Q 25.484375 6.203125 34.421875 6.203125 
Q 39.59375 6.203125 44.453125 7.46875 
Q 49.3125 8.734375 54.109375 11.28125 
L 54.109375 2.78125 
Q 49.265625 0.734375 44.1875 -0.34375 
Q 39.109375 -1.421875 33.890625 -1.421875 
Q 20.796875 -1.421875 13.15625 6.1875 
Q 5.515625 13.8125 5.515625 26.8125 
Q 5.515625 40.234375 12.765625 48.109375 
Q 20.015625 56 32.328125 56 
Q 43.359375 56 49.78125 48.890625 
Q 56.203125 41.796875 56.203125 29.59375 
z
M 47.21875 32.234375 
Q 47.125 39.59375 43.09375 43.984375 
Q 39.0625 48.390625 32.421875 48.390625 
Q 24.90625 48.390625 20.390625 44.140625 
Q 15.875 39.890625 15.1875 32.171875 
z
" id="DejaVuSans-101"/>
      <path d="M 54.890625 33.015625 
L 54.890625 0 
L 45.90625 0 
L 45.90625 32.71875 
Q 45.90625 40.484375 42.875 44.328125 
Q 39.84375 48.1875 33.796875 48.1875 
Q 26.515625 48.1875 22.3125 43.546875 
Q 18.109375 38.921875 18.109375 30.90625 
L 18.109375 0 
L 9.078125 0 
L 9.078125 54.6875 
L 18.109375 54.6875 
L 18.109375 46.1875 
Q 21.34375 51.125 25.703125 53.5625 
Q 30.078125 56 35.796875 56 
Q 45.21875 56 50.046875 50.171875 
Q 54.890625 44.34375 54.890625 33.015625 
z
" id="DejaVuSans-110"/>
      <path d="M 41.109375 46.296875 
Q 39.59375 47.171875 37.8125 47.578125 
Q 36.03125 48 33.890625 48 
Q 26.265625 48 22.1875 43.046875 
Q 18.109375 38.09375 18.109375 28.8125 
L 18.109375 0 
L 9.078125 0 
L 9.078125 54.6875 
L 18.109375 54.6875 
L 18.109375 46.1875 
Q 20.953125 51.171875 25.484375 53.578125 
Q 30.03125 56 36.53125 56 
Q 37.453125 56 38.578125 55.875 
Q 39.703125 55.765625 41.0625 55.515625 
z
" id="DejaVuSans-114"/>
      <path d="M 34.28125 27.484375 
Q 23.390625 27.484375 19.1875 25 
Q 14.984375 22.515625 14.984375 16.5 
Q 14.984375 11.71875 18.140625 8.90625 
Q 21.296875 6.109375 26.703125 6.109375 
Q 34.1875 6.109375 38.703125 11.40625 
Q 43.21875 16.703125 43.21875 25.484375 
L 43.21875 27.484375 
z
M 52.203125 31.203125 
L 52.203125 0 
L 43.21875 0 
L 43.21875 8.296875 
Q 40.140625 3.328125 35.546875 0.953125 
Q 30.953125 -1.421875 24.3125 -1.421875 
Q 15.921875 -1.421875 10.953125 3.296875 
Q 6 8.015625 6 15.921875 
Q 6 25.140625 12.171875 29.828125 
Q 18.359375 34.515625 30.609375 34.515625 
L 43.21875 34.515625 
L 43.21875 35.40625 
Q 43.21875 41.609375 39.140625 45 
Q 35.0625 48.390625 27.6875 48.390625 
Q 23 48.390625 18.546875 47.265625 
Q 14.109375 46.140625 10.015625 43.890625 
L 10.015625 52.203125 
Q 14.9375 54.109375 19.578125 55.046875 
Q 24.21875 56 28.609375 56 
Q 40.484375 56 46.34375 49.84375 
Q 52.203125 43.703125 52.203125 31.203125 
z
" id="DejaVuSans-97"/>
      <path d="M 18.3125 70.21875 
L 18.3125 54.6875 
L 36.8125 54.6875 
L 36.8125 47.703125 
L 18.3125 47.703125 
L 18.3125 18.015625 
Q 18.3125 11.328125 20.140625 9.421875 
Q 21.96875 7.515625 27.59375 7.515625 
L 36.8125 7.515625 
L 36.8125 0 
L 27.59375 0 
Q 17.1875 0 13.234375 3.875 
Q 9.28125 7.765625 9.28125 18.015625 
L 9.28125 47.703125 
L 2.6875 47.703125 
L 2.6875 54.6875 
L 9.28125 54.6875 
L 9.28125 70.21875 
z
" id="DejaVuSans-116"/>
      <path d="M 9.421875 54.6875 
L 18.40625 54.6875 
L 18.40625 0 
L 9.421875 0 
z
M 9.421875 75.984375 
L 18.40625 75.984375 
L 18.40625 64.59375 
L 9.421875 64.59375 
z
" id="DejaVuSans-105"/>
      <path d="M 30.609375 48.390625 
Q 23.390625 48.390625 19.1875 42.75 
Q 14.984375 37.109375 14.984375 27.296875 
Q 14.984375 17.484375 19.15625 11.84375 
Q 23.34375 6.203125 30.609375 6.203125 
Q 37.796875 6.203125 41.984375 11.859375 
Q 46.1875 17.53125 46.1875 27.296875 
Q 46.1875 37.015625 41.984375 42.703125 
Q 37.796875 48.390625 30.609375 48.390625 
z
M 30.609375 56 
Q 42.328125 56 49.015625 48.375 
Q 55.71875 40.765625 55.71875 27.296875 
Q 55.71875 13.875 49.015625 6.21875 
Q 42.328125 -1.421875 30.609375 -1.421875 
Q 18.84375 -1.421875 12.171875 6.21875 
Q 5.515625 13.875 5.515625 27.296875 
Q 5.515625 40.765625 12.171875 48.375 
Q 18.84375 56 30.609375 56 
z
" id="DejaVuSans-111"/>
      <path d="M 44.28125 53.078125 
L 44.28125 44.578125 
Q 40.484375 46.53125 36.375 47.5 
Q 32.28125 48.484375 27.875 48.484375 
Q 21.1875 48.484375 17.84375 46.4375 
Q 14.5 44.390625 14.5 40.28125 
Q 14.5 37.15625 16.890625 35.375 
Q 19.28125 33.59375 26.515625 31.984375 
L 29.59375 31.296875 
Q 39.15625 29.25 43.1875 25.515625 
Q 47.21875 21.78125 47.21875 15.09375 
Q 47.21875 7.46875 41.1875 3.015625 
Q 35.15625 -1.421875 24.609375 -1.421875 
Q 20.21875 -1.421875 15.453125 -0.5625 
Q 10.6875 0.296875 5.421875 2 
L 5.421875 11.28125 
Q 10.40625 8.6875 15.234375 7.390625 
Q 20.0625 6.109375 24.8125 6.109375 
Q 31.15625 6.109375 34.5625 8.28125 
Q 37.984375 10.453125 37.984375 14.40625 
Q 37.984375 18.0625 35.515625 20.015625 
Q 33.0625 21.96875 24.703125 23.78125 
L 21.578125 24.515625 
Q 13.234375 26.265625 9.515625 29.90625 
Q 5.8125 33.546875 5.8125 39.890625 
Q 5.8125 47.609375 11.28125 51.796875 
Q 16.75 56 26.8125 56 
Q 31.78125 56 36.171875 55.265625 
Q 40.578125 54.546875 44.28125 53.078125 
z
" id="DejaVuSans-115"/>
     </defs>
     <g transform="translate(205.662344 335.860562)scale(0.1 -0.1)">
      <use xlink:href="#DejaVuSans-71"/>
      <use x="77.490234" xlink:href="#DejaVuSans-101"/>
      <use x="139.013672" xlink:href="#DejaVuSans-110"/>
      <use x="202.392578" xlink:href="#DejaVuSans-101"/>
      <use x="263.916016" xlink:href="#DejaVuSans-114"/>
      <use x="305.029297" xlink:href="#DejaVuSans-97"/>
      <use x="366.308594" xlink:href="#DejaVuSans-116"/>
      <use x="405.517578" xlink:href="#DejaVuSans-105"/>
      <use x="433.300781" xlink:href="#DejaVuSans-111"/>
      <use x="494.482422" xlink:href="#DejaVuSans-110"/>
      <use x="557.861328" xlink:href="#DejaVuSans-115"/>
     </g>
    </g>
   </g>
   <g id="matplotlib.axis_2">
    <g id="ytick_1">
     <g id="line2d_15">
      <path clip-path="url(#p1c512a5ace)" d="M 57.6 298.088572 
L 414.72 298.088572 
" style="fill:none;stroke:#b0b0b0;stroke-linecap:square;stroke-width:0.8;"/>
     </g>
     <g id="line2d_16">
      <defs>
       <path d="M 0 0 
L -3.5 0 
" id="mfa8b4f62c6" style="stroke:#000000;stroke-width:0.8;"/>
      </defs>
      <g>
       <use style="stroke:#000000;stroke-width:0.8;" x="57.6" xlink:href="#mfa8b4f62c6" y="298.088572"/>
      </g>
     </g>
     <g id="text_9">
      <!-- 200 -->
      <g transform="translate(31.5125 301.887791)scale(0.1 -0.1)">
       <use xlink:href="#DejaVuSans-50"/>
       <use x="63.623047" xlink:href="#DejaVuSans-48"/>
       <use x="127.246094" xlink:href="#DejaVuSans-48"/>
      </g>
     </g>
    </g>
    <g id="ytick_2">
     <g id="line2d_17">
      <path clip-path="url(#p1c512a5ace)" d="M 57.6 260.098652 
L 414.72 260.098652 
" style="fill:none;stroke:#b0b0b0;stroke-linecap:square;stroke-width:0.8;"/>
     </g>
     <g id="line2d_18">
      <g>
       <use style="stroke:#000000;stroke-width:0.8;" x="57.6" xlink:href="#mfa8b4f62c6" y="260.098652"/>
      </g>
     </g>
     <g id="text_10">
      <!-- 400 -->
      <defs>
       <path d="M 37.796875 64.3125 
L 12.890625 25.390625 
L 37.796875 25.390625 
z
M 35.203125 72.90625 
L 47.609375 72.90625 
L 47.609375 25.390625 
L 58.015625 25.390625 
L 58.015625 17.1875 
L 47.609375 17.1875 
L 47.609375 0 
L 37.796875 0 
L 37.796875 17.1875 
L 4.890625 17.1875 
L 4.890625 26.703125 
z
" id="DejaVuSans-52"/>
      </defs>
      <g transform="translate(31.5125 263.897871)scale(0.1 -0.1)">
       <use xlink:href="#DejaVuSans-52"/>
       <use x="63.623047" xlink:href="#DejaVuSans-48"/>
       <use x="127.246094" xlink:href="#DejaVuSans-48"/>
      </g>
     </g>
    </g>
    <g id="ytick_3">
     <g id="line2d_19">
      <path clip-path="url(#p1c512a5ace)" d="M 57.6 222.108732 
L 414.72 222.108732 
" style="fill:none;stroke:#b0b0b0;stroke-linecap:square;stroke-width:0.8;"/>
     </g>
     <g id="line2d_20">
      <g>
       <use style="stroke:#000000;stroke-width:0.8;" x="57.6" xlink:href="#mfa8b4f62c6" y="222.108732"/>
      </g>
     </g>
     <g id="text_11">
      <!-- 600 -->
      <defs>
       <path d="M 33.015625 40.375 
Q 26.375 40.375 22.484375 35.828125 
Q 18.609375 31.296875 18.609375 23.390625 
Q 18.609375 15.53125 22.484375 10.953125 
Q 26.375 6.390625 33.015625 6.390625 
Q 39.65625 6.390625 43.53125 10.953125 
Q 47.40625 15.53125 47.40625 23.390625 
Q 47.40625 31.296875 43.53125 35.828125 
Q 39.65625 40.375 33.015625 40.375 
z
M 52.59375 71.296875 
L 52.59375 62.3125 
Q 48.875 64.0625 45.09375 64.984375 
Q 41.3125 65.921875 37.59375 65.921875 
Q 27.828125 65.921875 22.671875 59.328125 
Q 17.53125 52.734375 16.796875 39.40625 
Q 19.671875 43.65625 24.015625 45.921875 
Q 28.375 48.1875 33.59375 48.1875 
Q 44.578125 48.1875 50.953125 41.515625 
Q 57.328125 34.859375 57.328125 23.390625 
Q 57.328125 12.15625 50.6875 5.359375 
Q 44.046875 -1.421875 33.015625 -1.421875 
Q 20.359375 -1.421875 13.671875 8.265625 
Q 6.984375 17.96875 6.984375 36.375 
Q 6.984375 53.65625 15.1875 63.9375 
Q 23.390625 74.21875 37.203125 74.21875 
Q 40.921875 74.21875 44.703125 73.484375 
Q 48.484375 72.75 52.59375 71.296875 
z
" id="DejaVuSans-54"/>
      </defs>
      <g transform="translate(31.5125 225.90795)scale(0.1 -0.1)">
       <use xlink:href="#DejaVuSans-54"/>
       <use x="63.623047" xlink:href="#DejaVuSans-48"/>
       <use x="127.246094" xlink:href="#DejaVuSans-48"/>
      </g>
     </g>
    </g>
    <g id="ytick_4">
     <g id="line2d_21">
      <path clip-path="url(#p1c512a5ace)" d="M 57.6 184.118811 
L 414.72 184.118811 
" style="fill:none;stroke:#b0b0b0;stroke-linecap:square;stroke-width:0.8;"/>
     </g>
     <g id="line2d_22">
      <g>
       <use style="stroke:#000000;stroke-width:0.8;" x="57.6" xlink:href="#mfa8b4f62c6" y="184.118811"/>
      </g>
     </g>
     <g id="text_12">
      <!-- 800 -->
      <defs>
       <path d="M 31.78125 34.625 
Q 24.75 34.625 20.71875 30.859375 
Q 16.703125 27.09375 16.703125 20.515625 
Q 16.703125 13.921875 20.71875 10.15625 
Q 24.75 6.390625 31.78125 6.390625 
Q 38.8125 6.390625 42.859375 10.171875 
Q 46.921875 13.96875 46.921875 20.515625 
Q 46.921875 27.09375 42.890625 30.859375 
Q 38.875 34.625 31.78125 34.625 
z
M 21.921875 38.8125 
Q 15.578125 40.375 12.03125 44.71875 
Q 8.5 49.078125 8.5 55.328125 
Q 8.5 64.0625 14.71875 69.140625 
Q 20.953125 74.21875 31.78125 74.21875 
Q 42.671875 74.21875 48.875 69.140625 
Q 55.078125 64.0625 55.078125 55.328125 
Q 55.078125 49.078125 51.53125 44.71875 
Q 48 40.375 41.703125 38.8125 
Q 48.828125 37.15625 52.796875 32.3125 
Q 56.78125 27.484375 56.78125 20.515625 
Q 56.78125 9.90625 50.3125 4.234375 
Q 43.84375 -1.421875 31.78125 -1.421875 
Q 19.734375 -1.421875 13.25 4.234375 
Q 6.78125 9.90625 6.78125 20.515625 
Q 6.78125 27.484375 10.78125 32.3125 
Q 14.796875 37.15625 21.921875 38.8125 
z
M 18.3125 54.390625 
Q 18.3125 48.734375 21.84375 45.5625 
Q 25.390625 42.390625 31.78125 42.390625 
Q 38.140625 42.390625 41.71875 45.5625 
Q 45.3125 48.734375 45.3125 54.390625 
Q 45.3125 60.0625 41.71875 63.234375 
Q 38.140625 66.40625 31.78125 66.40625 
Q 25.390625 66.40625 21.84375 63.234375 
Q 18.3125 60.0625 18.3125 54.390625 
z
" id="DejaVuSans-56"/>
      </defs>
      <g transform="translate(31.5125 187.91803)scale(0.1 -0.1)">
       <use xlink:href="#DejaVuSans-56"/>
       <use x="63.623047" xlink:href="#DejaVuSans-48"/>
       <use x="127.246094" xlink:href="#DejaVuSans-48"/>
      </g>
     </g>
    </g>
    <g id="ytick_5">
     <g id="line2d_23">
      <path clip-path="url(#p1c512a5ace)" d="M 57.6 146.128891 
L 414.72 146.128891 
" style="fill:none;stroke:#b0b0b0;stroke-linecap:square;stroke-width:0.8;"/>
     </g>
     <g id="line2d_24">
      <g>
       <use style="stroke:#000000;stroke-width:0.8;" x="57.6" xlink:href="#mfa8b4f62c6" y="146.128891"/>
      </g>
     </g>
     <g id="text_13">
      <!-- 1000 -->
      <g transform="translate(25.15 149.92811)scale(0.1 -0.1)">
       <use xlink:href="#DejaVuSans-49"/>
       <use x="63.623047" xlink:href="#DejaVuSans-48"/>
       <use x="127.246094" xlink:href="#DejaVuSans-48"/>
       <use x="190.869141" xlink:href="#DejaVuSans-48"/>
      </g>
     </g>
    </g>
    <g id="ytick_6">
     <g id="line2d_25">
      <path clip-path="url(#p1c512a5ace)" d="M 57.6 108.138971 
L 414.72 108.138971 
" style="fill:none;stroke:#b0b0b0;stroke-linecap:square;stroke-width:0.8;"/>
     </g>
     <g id="line2d_26">
      <g>
       <use style="stroke:#000000;stroke-width:0.8;" x="57.6" xlink:href="#mfa8b4f62c6" y="108.138971"/>
      </g>
     </g>
     <g id="text_14">
      <!-- 1200 -->
      <g transform="translate(25.15 111.93819)scale(0.1 -0.1)">
       <use xlink:href="#DejaVuSans-49"/>
       <use x="63.623047" xlink:href="#DejaVuSans-50"/>
       <use x="127.246094" xlink:href="#DejaVuSans-48"/>
       <use x="190.869141" xlink:href="#DejaVuSans-48"/>
      </g>
     </g>
    </g>
    <g id="ytick_7">
     <g id="line2d_27">
      <path clip-path="url(#p1c512a5ace)" d="M 57.6 70.149051 
L 414.72 70.149051 
" style="fill:none;stroke:#b0b0b0;stroke-linecap:square;stroke-width:0.8;"/>
     </g>
     <g id="line2d_28">
      <g>
       <use style="stroke:#000000;stroke-width:0.8;" x="57.6" xlink:href="#mfa8b4f62c6" y="70.149051"/>
      </g>
     </g>
     <g id="text_15">
      <!-- 1400 -->
      <g transform="translate(25.15 73.948269)scale(0.1 -0.1)">
       <use xlink:href="#DejaVuSans-49"/>
       <use x="63.623047" xlink:href="#DejaVuSans-52"/>
       <use x="127.246094" xlink:href="#DejaVuSans-48"/>
       <use x="190.869141" xlink:href="#DejaVuSans-48"/>
      </g>
     </g>
    </g>
    <g id="text_16">
     <!-- Fitness -->
     <defs>
      <path d="M 9.8125 72.90625 
L 51.703125 72.90625 
L 51.703125 64.59375 
L 19.671875 64.59375 
L 19.671875 43.109375 
L 48.578125 43.109375 
L 48.578125 34.8125 
L 19.671875 34.8125 
L 19.671875 0 
L 9.8125 0 
z
" id="DejaVuSans-70"/>
     </defs>
     <g transform="translate(19.070312 192.202219)rotate(-90)scale(0.1 -0.1)">
      <use xlink:href="#DejaVuSans-70"/>
      <use x="57.410156" xlink:href="#DejaVuSans-105"/>
      <use x="85.193359" xlink:href="#DejaVuSans-116"/>
      <use x="124.402344" xlink:href="#DejaVuSans-110"/>
      <use x="187.78125" xlink:href="#DejaVuSans-101"/>
      <use x="249.304688" xlink:href="#DejaVuSans-115"/>
      <use x="301.404297" xlink:href="#DejaVuSans-115"/>
     </g>
    </g>
   </g>
   <g id="line2d_29">
    <path clip-path="url(#p1c512a5ace)" d="M 73.832727 292.924038 
L 74.918528 292.267585 
L 76.00433 286.968618 
L 77.090131 285.844457 
L 78.175932 268.057753 
L 79.261733 261.998573 
L 80.347534 253.770427 
L 81.433335 248.723008 
L 82.519137 247.277548 
L 83.604938 225.092883 
L 84.690739 236.693203 
L 86.862341 212.995763 
L 87.948142 227.663142 
L 89.033943 211.475209 
L 90.119745 219.495244 
L 91.205546 218.446934 
L 92.291347 218.700606 
L 93.377148 210.604117 
L 94.462949 213.336835 
L 95.54875 224.937071 
L 96.634552 222.141166 
L 97.720353 225.325653 
L 98.806154 207.343858 
L 99.891955 212.008959 
L 100.977756 220.916818 
L 102.063557 221.635897 
L 103.149358 222.97581 
L 104.23516 225.370626 
L 105.320961 226.749394 
L 106.406762 220.545877 
L 107.492563 211.194871 
L 108.578364 209.946507 
L 109.664165 215.614744 
L 110.749967 229.681898 
L 111.835768 208.993584 
L 112.921569 206.020146 
L 114.00737 221.026785 
L 115.093171 224.322666 
L 116.178972 213.403607 
L 117.264773 204.740992 
L 118.350575 219.1019 
L 119.436376 214.542355 
L 120.522177 220.921964 
L 121.607978 218.978611 
L 122.693779 206.553752 
L 123.77958 206.958255 
L 124.865382 214.447822 
L 125.951183 219.583714 
L 127.036984 213.200164 
L 128.122785 212.988105 
L 129.208586 216.271319 
L 130.294387 216.13229 
L 131.380189 235.126933 
L 132.46599 234.982736 
L 133.551791 219.865102 
L 134.637592 223.359938 
L 135.723393 212.777338 
L 136.809194 217.748916 
L 137.894995 207.110699 
L 138.980797 209.285316 
L 140.066598 210.978221 
L 141.152399 209.113853 
L 142.2382 211.499288 
L 143.324001 224.664904 
L 144.409802 210.546651 
L 145.495604 217.641527 
L 146.581405 215.00553 
L 147.667206 209.405473 
L 148.753007 214.921089 
L 149.838808 231.794045 
L 150.924609 230.015087 
L 152.01041 221.148119 
L 153.096212 213.25 
L 154.182013 210.256497 
L 155.267814 213.116016 
L 156.353615 210.019912 
L 157.439416 182.016199 
L 158.525217 186.611261 
L 159.611019 203.030669 
L 160.69682 189.436927 
L 161.782621 172.221105 
L 162.868422 176.701342 
L 163.954223 160.18864 
L 165.040024 169.043009 
L 166.125825 190.485782 
L 167.211627 192.666073 
L 168.297428 190.42617 
L 169.383229 170.30248 
L 170.46903 182.539093 
L 171.554831 185.203127 
L 172.640632 161.885403 
L 173.726434 153.212199 
L 174.812235 174.698958 
L 175.898036 170.578193 
L 176.983837 160.097604 
L 178.069638 165.066974 
L 179.155439 173.900589 
L 180.24124 160.204934 
L 181.327042 159.777286 
L 182.412843 178.550455 
L 183.498644 173.88802 
L 184.584445 171.324419 
L 185.670246 175.055861 
L 186.756047 201.435821 
L 187.841849 180.909601 
L 188.92765 178.983492 
L 190.013451 190.288985 
L 191.099252 184.087829 
L 192.185053 172.58821 
L 193.270854 182.242994 
L 194.356656 178.213809 
L 195.442457 183.641217 
L 196.528258 193.337323 
L 197.614059 182.42643 
L 198.69986 174.182174 
L 199.785661 182.397108 
L 200.871462 166.755138 
L 201.957264 199.599327 
L 203.043065 179.089249 
L 204.128866 185.204918 
L 205.214667 158.562976 
L 206.300468 160.854023 
L 207.386269 164.559327 
L 208.472071 170.336195 
L 209.557872 178.297404 
L 210.643673 182.624725 
L 211.729474 193.596343 
L 212.815275 158.367617 
L 213.901076 182.973363 
L 214.986877 160.444974 
L 216.072679 183.047639 
L 217.15848 194.805391 
L 218.244281 185.113785 
L 219.330082 170.01725 
L 220.415883 165.893491 
L 221.501684 145.28928 
L 222.587486 138.619253 
L 223.673287 173.958279 
L 224.759088 169.80382 
L 225.844889 141.388363 
L 226.93069 165.996731 
L 228.016491 144.725605 
L 229.102292 182.996138 
L 230.188094 159.621526 
L 231.273895 155.398465 
L 232.359696 161.062134 
L 233.445497 163.284669 
L 234.531298 159.610058 
L 235.617099 182.368309 
L 236.702901 153.673958 
L 237.788702 183.125311 
L 238.874503 175.649012 
L 239.960304 186.276759 
L 241.046105 154.507979 
L 242.131906 173.862335 
L 243.217708 172.165269 
L 244.303509 177.150526 
L 245.38931 198.336551 
L 246.475111 170.036443 
L 247.560912 176.865887 
L 248.646713 151.57819 
L 249.732514 147.734667 
L 250.818316 192.882081 
L 251.904117 156.813376 
L 252.989918 191.54612 
L 254.075719 166.017582 
L 255.16152 187.557724 
L 256.247321 176.462699 
L 257.333123 175.191132 
L 258.418924 165.879901 
L 259.504725 174.073943 
L 260.590526 195.829985 
L 261.676327 183.735256 
L 262.762128 180.199232 
L 263.847929 177.105452 
L 264.933731 208.580164 
L 266.019532 182.636739 
L 267.105333 169.400828 
L 268.191134 195.909219 
L 269.276935 163.709213 
L 270.362736 172.008384 
L 271.448538 169.763515 
L 272.534339 171.879816 
L 273.62014 157.640955 
L 274.705941 161.48784 
L 275.791742 193.498858 
L 276.877543 179.346205 
L 277.963344 156.359029 
L 279.049146 168.608037 
L 280.134947 175.484094 
L 281.220748 189.294446 
L 282.306549 188.479337 
L 283.39235 183.960947 
L 284.478151 184.584978 
L 285.563953 180.049467 
L 286.649754 168.778973 
L 287.735555 181.762469 
L 288.821356 171.435448 
L 289.907157 175.995678 
L 290.992958 171.912004 
L 293.164561 151.810869 
L 294.250362 146.163885 
L 295.336163 173.944235 
L 296.421964 191.205546 
L 297.507765 179.383013 
L 298.593566 191.709405 
L 299.679368 189.304461 
L 300.765169 169.708467 
L 302.936771 167.414354 
L 304.022572 172.850383 
L 305.108373 187.692009 
L 307.279976 166.342045 
L 308.365777 177.985503 
L 309.451578 146.783289 
L 310.537379 147.289412 
L 311.62318 156.650279 
L 312.708981 170.210134 
L 313.794783 172.40448 
L 314.880584 168.323725 
L 315.966385 177.528027 
L 317.052186 163.672453 
L 318.137987 145.184657 
L 319.223788 180.298786 
L 320.30959 170.156948 
L 321.395391 141.249159 
L 322.481192 158.651625 
L 323.566993 180.939413 
L 324.652794 183.882591 
L 325.738595 191.298817 
L 326.824396 165.903698 
L 327.910198 180.56537 
L 328.995999 163.392556 
L 330.0818 182.804821 
L 331.167601 174.060208 
L 332.253402 180.864872 
L 333.339203 184.230346 
L 334.425005 171.153769 
L 335.510806 168.170186 
L 336.596607 175.163597 
L 337.682408 186.170372 
L 338.768209 189.61162 
L 339.85401 198.964808 
L 340.939811 202.112733 
L 342.025613 188.804986 
L 343.111414 177.722579 
L 344.197215 177.932172 
L 345.283016 198.084369 
L 346.368817 178.718033 
L 347.454618 206.213813 
L 348.54042 175.880129 
L 349.626221 171.794374 
L 350.712022 168.89673 
L 351.797823 192.215637 
L 352.883624 192.728509 
L 353.969425 167.719939 
L 355.055227 160.032896 
L 356.141028 175.767484 
L 357.226829 185.643748 
L 358.31263 158.349043 
L 359.398431 162.459744 
L 360.484232 193.660514 
L 361.570033 186.806372 
L 362.655835 168.336924 
L 363.741636 166.910235 
L 364.827437 187.486457 
L 366.999039 202.491851 
L 368.08484 212.510154 
L 369.170642 200.176645 
L 370.256443 201.218446 
L 371.342244 180.893715 
L 372.428045 184.268994 
L 373.513846 190.368146 
L 374.599647 167.319481 
L 375.685448 173.671882 
L 376.77125 166.734011 
L 377.857051 186.410212 
L 378.942852 182.251471 
L 380.028653 154.387327 
L 381.114454 154.505662 
L 382.200255 130.354023 
L 383.286057 162.46024 
L 384.371858 164.384558 
L 385.457659 150.895201 
L 386.54346 170.741472 
L 387.629261 169.876522 
L 388.715062 148.385711 
L 389.800863 153.010618 
L 390.886665 134.479603 
L 391.972466 140.89267 
L 393.058267 152.765899 
L 395.229869 190.197291 
L 396.31567 166.244134 
L 397.401472 158.693 
L 398.487273 166.894939 
L 398.487273 166.894939 
" style="fill:none;stroke:#0000ff;stroke-linecap:square;stroke-width:1.5;"/>
   </g>
   <g id="line2d_30">
    <path clip-path="url(#p1c512a5ace)" d="M 73.832727 294.816525 
L 74.918528 295.488 
L 76.00433 291.435707 
L 77.090131 291.734485 
L 78.175932 278.473962 
L 79.261733 275.680079 
L 80.347534 278.70543 
L 81.433335 277.628911 
L 82.519137 268.185562 
L 83.604938 253.651328 
L 84.690739 266.80931 
L 85.77654 253.93626 
L 86.862341 244.42924 
L 87.948142 257.621837 
L 89.033943 244.798244 
L 90.119745 245.348704 
L 91.205546 246.901699 
L 92.291347 246.578118 
L 93.377148 243.655757 
L 94.462949 241.362729 
L 95.54875 257.168214 
L 96.634552 251.630921 
L 97.720353 259.060751 
L 98.806154 235.729171 
L 99.891955 242.532248 
L 100.977756 254.516626 
L 102.063557 250.450613 
L 103.149358 250.986147 
L 104.23516 253.157278 
L 105.320961 260.047151 
L 106.406762 254.372382 
L 107.492563 243.860789 
L 108.578364 247.299525 
L 109.664165 248.617518 
L 110.749967 258.554106 
L 111.835768 241.279285 
L 112.921569 240.94515 
L 114.00737 251.678445 
L 115.093171 258.398048 
L 116.178972 251.542095 
L 117.264773 232.417215 
L 118.350575 253.513302 
L 119.436376 253.702563 
L 120.522177 255.046667 
L 121.607978 256.737895 
L 122.693779 243.959851 
L 123.77958 243.018718 
L 124.865382 253.96559 
L 125.951183 249.032703 
L 127.036984 252.329455 
L 128.122785 243.745303 
L 129.208586 249.160132 
L 130.294387 244.966884 
L 131.380189 263.63212 
L 132.46599 258.990171 
L 133.551791 253.037042 
L 134.637592 255.887945 
L 135.723393 241.043367 
L 136.809194 250.300358 
L 137.894995 243.409812 
L 138.980797 245.242743 
L 140.066598 242.881765 
L 141.152399 239.77228 
L 142.2382 247.560034 
L 143.324001 257.406773 
L 144.409802 241.918115 
L 145.495604 248.709646 
L 146.581405 252.277167 
L 147.667206 246.698901 
L 148.753007 247.273129 
L 149.838808 260.46565 
L 150.924609 257.619761 
L 152.01041 254.377447 
L 153.096212 244.903059 
L 154.182013 243.885473 
L 155.267814 251.228283 
L 156.353615 255.348574 
L 157.439416 231.421202 
L 158.525217 235.415943 
L 159.611019 241.411156 
L 160.69682 226.350037 
L 161.782621 217.960226 
L 162.868422 223.981461 
L 163.954223 207.55045 
L 165.040024 218.264001 
L 166.125825 237.47892 
L 167.211627 237.852721 
L 168.297428 235.570736 
L 169.383229 219.865149 
L 170.46903 229.221383 
L 171.554831 223.368235 
L 172.640632 207.631649 
L 173.726434 197.373042 
L 174.812235 217.44737 
L 175.898036 220.330344 
L 176.983837 197.71414 
L 178.069638 220.020916 
L 179.155439 219.647791 
L 180.24124 201.030187 
L 181.327042 199.129758 
L 182.412843 217.3188 
L 183.498644 207.172164 
L 184.584445 216.349475 
L 185.670246 220.962765 
L 186.756047 252.777358 
L 187.841849 224.964996 
L 190.013451 230.46043 
L 191.099252 244.040997 
L 192.185053 237.897647 
L 193.270854 227.440295 
L 194.356656 226.522358 
L 195.442457 235.032533 
L 196.528258 232.540678 
L 197.614059 225.702311 
L 198.69986 216.371063 
L 199.785661 234.810557 
L 200.871462 215.882661 
L 201.957264 253.980557 
L 203.043065 226.752419 
L 204.128866 235.843321 
L 205.214667 216.349016 
L 206.300468 210.339498 
L 207.386269 214.48443 
L 208.472071 220.885354 
L 209.557872 228.002272 
L 210.643673 236.796341 
L 211.729474 241.98499 
L 212.815275 208.09147 
L 213.901076 235.048837 
L 214.986877 208.889277 
L 216.072679 230.686316 
L 217.15848 236.756647 
L 218.244281 231.671784 
L 219.330082 230.632489 
L 220.415883 219.791548 
L 221.501684 202.18575 
L 222.587486 193.661863 
L 223.673287 218.787516 
L 224.759088 217.72394 
L 225.844889 195.1937 
L 226.93069 218.728046 
L 228.016491 195.768941 
L 229.102292 235.137959 
L 230.188094 221.301203 
L 231.273895 212.106637 
L 232.359696 226.759201 
L 233.445497 219.27489 
L 234.531298 220.442842 
L 235.617099 232.081396 
L 236.702901 209.705768 
L 237.788702 227.670645 
L 238.874503 227.33914 
L 239.960304 235.605472 
L 241.046105 205.890999 
L 242.131906 224.771967 
L 243.217708 229.547032 
L 244.303509 227.345777 
L 245.38931 245.633956 
L 246.475111 221.321551 
L 247.560912 232.702756 
L 248.646713 213.383367 
L 249.732514 204.804828 
L 250.818316 241.045801 
L 251.904117 211.59013 
L 252.989918 244.067306 
L 254.075719 214.326484 
L 255.16152 241.505332 
L 256.247321 215.165657 
L 257.333123 219.992435 
L 258.418924 213.081933 
L 260.590526 247.424095 
L 261.676327 229.350219 
L 263.847929 211.845601 
L 264.933731 243.999274 
L 266.019532 235.014538 
L 267.105333 225.005188 
L 268.191134 235.136589 
L 269.276935 211.100344 
L 270.362736 219.076238 
L 271.448538 220.297162 
L 272.534339 234.7816 
L 273.62014 206.163496 
L 274.705941 217.866747 
L 275.791742 232.148433 
L 276.877543 223.747283 
L 277.963344 204.635904 
L 279.049146 219.832238 
L 280.134947 229.974221 
L 281.220748 233.328696 
L 282.306549 230.412625 
L 283.39235 226.966413 
L 284.478151 236.240546 
L 285.563953 226.847469 
L 286.649754 219.71411 
L 287.735555 229.671327 
L 288.821356 215.876096 
L 289.907157 232.992803 
L 290.992958 218.835847 
L 292.07876 207.440093 
L 293.164561 205.72124 
L 294.250362 212.471481 
L 295.336163 226.676108 
L 296.421964 249.732152 
L 297.507765 226.174355 
L 298.593566 240.178592 
L 299.679368 234.514483 
L 300.765169 221.445883 
L 301.85097 219.250756 
L 302.936771 206.550826 
L 304.022572 222.495364 
L 305.108373 234.327396 
L 306.194175 230.705948 
L 307.279976 223.229207 
L 308.365777 230.038767 
L 309.451578 203.195901 
L 310.537379 209.288423 
L 311.62318 222.148298 
L 312.708981 224.158562 
L 313.794783 218.58418 
L 314.880584 221.966998 
L 315.966385 230.239992 
L 317.052186 204.805921 
L 318.137987 203.214696 
L 319.223788 229.261384 
L 320.30959 223.832967 
L 321.395391 197.244726 
L 322.481192 222.43248 
L 323.566993 223.772596 
L 324.652794 238.418973 
L 325.738595 243.367241 
L 326.824396 212.074614 
L 327.910198 235.144725 
L 328.995999 216.651481 
L 330.0818 229.954545 
L 331.167601 217.388137 
L 332.253402 228.388838 
L 333.339203 243.078997 
L 334.425005 220.66903 
L 335.510806 226.978478 
L 336.596607 227.247576 
L 337.682408 232.760841 
L 338.768209 233.083501 
L 339.85401 234.238514 
L 340.939811 239.12779 
L 342.025613 225.918331 
L 343.111414 226.71357 
L 344.197215 233.939455 
L 345.283016 247.259646 
L 346.368817 241.93189 
L 347.454618 258.525765 
L 348.54042 230.945297 
L 349.626221 226.822139 
L 350.712022 233.016634 
L 351.797823 240.70116 
L 352.883624 251.490392 
L 353.969425 228.287619 
L 355.055227 216.346324 
L 357.226829 249.004742 
L 358.31263 225.653841 
L 359.398431 216.226525 
L 360.484232 240.176394 
L 361.570033 237.758261 
L 362.655835 225.099557 
L 363.741636 229.868519 
L 364.827437 233.323929 
L 365.913238 239.878094 
L 366.999039 241.69345 
L 368.08484 254.483953 
L 369.170642 249.111908 
L 371.342244 225.551378 
L 372.428045 237.122584 
L 373.513846 240.712036 
L 374.599647 229.628355 
L 375.685448 242.308582 
L 376.77125 232.179031 
L 377.857051 243.352593 
L 378.942852 230.40617 
L 380.028653 224.924911 
L 381.114454 213.096599 
L 382.200255 193.904212 
L 383.286057 224.673505 
L 384.371858 225.040944 
L 385.457659 217.617395 
L 386.54346 228.019474 
L 387.629261 225.410193 
L 388.715062 208.66379 
L 389.800863 218.513745 
L 390.886665 210.611987 
L 391.972466 215.361533 
L 393.058267 225.72291 
L 394.144068 231.396997 
L 395.229869 246.246122 
L 396.31567 243.418813 
L 397.401472 227.93833 
L 398.487273 233.892576 
L 398.487273 233.892576 
" style="fill:none;stroke:#008000;stroke-dasharray:9.6,2.4,1.5,2.4;stroke-dashoffset:0;stroke-width:1.5;"/>
   </g>
   <g id="line2d_31">
    <path clip-path="url(#p1c512a5ace)" d="M 73.832727 291.031551 
L 74.918528 289.047169 
L 76.00433 282.501529 
L 77.090131 279.95443 
L 78.175932 257.641544 
L 79.261733 248.317066 
L 80.347534 228.835424 
L 81.433335 219.817105 
L 82.519137 226.369533 
L 83.604938 196.534438 
L 84.690739 206.577096 
L 85.77654 194.806445 
L 86.862341 181.562286 
L 87.948142 197.704447 
L 89.033943 178.152174 
L 90.119745 193.641783 
L 91.205546 189.992169 
L 92.291347 190.823094 
L 93.377148 177.552478 
L 95.54875 192.705927 
L 96.634552 192.651412 
L 97.720353 191.590556 
L 98.806154 178.958544 
L 99.891955 181.485669 
L 102.063557 192.821181 
L 103.149358 194.965473 
L 104.23516 197.583974 
L 105.320961 193.451636 
L 106.406762 186.719373 
L 107.492563 178.528954 
L 108.578364 172.593489 
L 109.664165 182.61197 
L 110.749967 200.809691 
L 111.835768 176.707884 
L 112.921569 171.095143 
L 114.00737 190.375124 
L 115.093171 190.247284 
L 116.178972 175.265119 
L 117.264773 177.06477 
L 118.350575 184.690499 
L 119.436376 175.382146 
L 120.522177 186.797261 
L 121.607978 181.219327 
L 122.693779 169.147653 
L 123.77958 170.897793 
L 124.865382 174.930053 
L 125.951183 190.134726 
L 127.036984 174.070872 
L 128.122785 182.230908 
L 129.208586 183.382505 
L 130.294387 187.297697 
L 131.380189 206.621746 
L 132.46599 210.975301 
L 133.551791 186.693162 
L 134.637592 190.831931 
L 135.723393 184.511309 
L 136.809194 185.197474 
L 137.894995 170.811585 
L 138.980797 173.327889 
L 140.066598 179.074677 
L 141.152399 178.455426 
L 142.2382 175.438542 
L 143.324001 191.923035 
L 144.409802 179.175186 
L 145.495604 186.573407 
L 146.581405 177.733893 
L 147.667206 172.112045 
L 148.753007 182.569049 
L 149.838808 203.12244 
L 150.924609 202.410413 
L 152.01041 187.918792 
L 153.096212 181.596941 
L 154.182013 176.627521 
L 155.267814 175.003749 
L 156.353615 164.691249 
L 157.439416 132.611196 
L 158.525217 137.80658 
L 159.611019 164.650182 
L 160.69682 152.523817 
L 161.782621 126.481984 
L 162.868422 129.421222 
L 163.954223 112.826831 
L 165.040024 119.822017 
L 166.125825 143.492645 
L 167.211627 147.479425 
L 168.297428 145.281603 
L 169.383229 120.739811 
L 170.46903 135.856803 
L 171.554831 147.038019 
L 172.640632 116.139156 
L 173.726434 109.051357 
L 174.812235 131.950546 
L 175.898036 120.826043 
L 176.983837 122.481067 
L 178.069638 110.113031 
L 179.155439 128.153386 
L 180.24124 119.379681 
L 181.327042 120.424815 
L 182.412843 139.782111 
L 183.498644 140.603877 
L 184.584445 126.299363 
L 185.670246 129.148958 
L 186.756047 150.094284 
L 187.841849 136.854206 
L 188.92765 130.353544 
L 190.013451 150.117541 
L 191.099252 124.13466 
L 192.185053 107.278772 
L 193.270854 137.045693 
L 194.356656 129.905261 
L 195.442457 132.2499 
L 196.528258 154.133967 
L 197.614059 139.150549 
L 198.69986 131.993285 
L 199.785661 129.983658 
L 200.871462 117.627615 
L 201.957264 145.218096 
L 203.043065 131.426079 
L 204.128866 134.566515 
L 205.214667 100.776935 
L 206.300468 111.368548 
L 207.386269 114.634224 
L 208.472071 119.787036 
L 209.557872 128.592535 
L 210.643673 128.453109 
L 211.729474 145.207697 
L 212.815275 108.643763 
L 213.901076 130.89789 
L 214.986877 112.000671 
L 216.072679 135.408963 
L 217.15848 152.854135 
L 218.244281 138.555786 
L 219.330082 109.402012 
L 220.415883 111.995435 
L 221.501684 88.392809 
L 222.587486 83.576643 
L 223.673287 129.129043 
L 224.759088 121.8837 
L 225.844889 87.583027 
L 226.93069 113.265417 
L 228.016491 93.682269 
L 229.102292 130.854317 
L 230.188094 97.941849 
L 231.273895 98.690294 
L 232.359696 95.365067 
L 233.445497 107.294447 
L 234.531298 98.777275 
L 235.617099 132.655221 
L 236.702901 97.642148 
L 237.788702 138.579977 
L 238.874503 123.958884 
L 239.960304 136.948046 
L 241.046105 103.12496 
L 242.131906 122.952703 
L 243.217708 114.783505 
L 244.303509 126.955275 
L 245.38931 151.039146 
L 246.475111 118.751335 
L 247.560912 121.029017 
L 248.646713 89.773013 
L 249.732514 90.664507 
L 250.818316 144.71836 
L 251.904117 102.036623 
L 252.989918 139.024934 
L 254.075719 117.70868 
L 255.16152 133.610116 
L 256.247321 137.759741 
L 257.333123 130.389828 
L 258.418924 118.67787 
L 259.504725 117.822579 
L 260.590526 144.235875 
L 261.676327 138.120293 
L 262.762128 139.808575 
L 263.847929 142.365302 
L 264.933731 173.161055 
L 266.019532 130.25894 
L 267.105333 113.796469 
L 268.191134 156.681849 
L 269.276935 116.318082 
L 270.362736 124.940529 
L 271.448538 119.229868 
L 272.534339 108.978032 
L 273.62014 109.118415 
L 274.705941 105.108933 
L 275.791742 154.849282 
L 276.877543 134.945127 
L 277.963344 108.082154 
L 279.049146 117.383836 
L 280.134947 120.993966 
L 281.220748 145.260196 
L 282.306549 146.54605 
L 283.39235 140.955481 
L 284.478151 132.929411 
L 285.563953 133.251466 
L 286.649754 117.843836 
L 287.735555 133.853612 
L 288.821356 126.9948 
L 289.907157 118.998552 
L 290.992958 124.98816 
L 292.07876 116.349799 
L 294.250362 79.85629 
L 295.336163 121.212363 
L 296.421964 132.678941 
L 297.507765 132.59167 
L 298.593566 143.240219 
L 299.679368 144.094439 
L 300.765169 117.971051 
L 301.85097 117.877132 
L 302.936771 128.277882 
L 304.022572 123.205402 
L 305.108373 141.056623 
L 306.194175 122.85442 
L 307.279976 109.454883 
L 308.365777 125.932238 
L 309.451578 90.370678 
L 310.537379 85.290402 
L 311.62318 91.15226 
L 312.708981 116.261705 
L 313.794783 126.224781 
L 314.880584 114.680453 
L 315.966385 124.816062 
L 317.052186 122.538985 
L 318.137987 87.154617 
L 319.223788 131.336188 
L 320.30959 116.480929 
L 321.395391 85.253591 
L 322.481192 94.87077 
L 323.566993 138.10623 
L 324.652794 129.346209 
L 325.738595 139.230393 
L 326.824396 119.732783 
L 327.910198 125.986015 
L 328.995999 110.133632 
L 330.0818 135.655097 
L 331.167601 130.732278 
L 332.253402 133.340906 
L 333.339203 125.381695 
L 334.425005 121.638507 
L 335.510806 109.361895 
L 336.596607 123.079618 
L 337.682408 139.579904 
L 338.768209 146.139739 
L 339.85401 163.691102 
L 340.939811 165.097676 
L 342.025613 151.691642 
L 343.111414 128.731589 
L 344.197215 121.924889 
L 345.283016 148.909092 
L 346.368817 115.504176 
L 347.454618 153.901861 
L 348.54042 120.81496 
L 349.626221 116.76661 
L 350.712022 104.776826 
L 351.797823 143.730113 
L 352.883624 133.966627 
L 353.969425 107.15226 
L 355.055227 103.719468 
L 356.141028 119.390212 
L 357.226829 122.282754 
L 358.31263 91.044245 
L 359.398431 108.692963 
L 360.484232 147.144634 
L 361.570033 135.854483 
L 362.655835 111.574292 
L 363.741636 103.951952 
L 364.827437 141.648984 
L 365.913238 150.676744 
L 366.999039 163.290252 
L 368.08484 170.536354 
L 369.170642 151.241383 
L 370.256443 165.214197 
L 371.342244 136.236053 
L 372.428045 131.415405 
L 373.513846 140.024255 
L 374.599647 105.010607 
L 375.685448 105.035181 
L 376.77125 101.28899 
L 377.857051 129.467831 
L 378.942852 134.096772 
L 380.028653 83.849744 
L 381.114454 95.914725 
L 382.200255 66.803834 
L 383.286057 100.246976 
L 384.371858 103.728172 
L 385.457659 84.173007 
L 386.54346 113.46347 
L 387.629261 114.342851 
L 388.715062 88.107632 
L 389.800863 87.507491 
L 390.886665 58.347218 
L 391.972466 66.423806 
L 393.058267 79.808887 
L 394.144068 112.863805 
L 395.229869 134.14846 
L 396.31567 89.069454 
L 397.401472 89.447669 
L 398.487273 99.897301 
L 398.487273 99.897301 
" style="fill:none;stroke:#008000;stroke-dasharray:9.6,2.4,1.5,2.4;stroke-dashoffset:0;stroke-width:1.5;"/>
   </g>
   <g id="line2d_32">
    <path clip-path="url(#p1c512a5ace)" d="M 73.832727 287.485168 
L 74.918528 280.671509 
L 76.00433 277.217429 
L 77.090131 277.513633 
L 78.175932 251.836544 
L 79.261733 240.626747 
L 81.433335 199.295568 
L 82.519137 222.460597 
L 83.604938 193.158086 
L 84.690739 202.247006 
L 85.77654 200.412894 
L 86.862341 183.038221 
L 87.948142 199.535755 
L 89.033943 188.177938 
L 90.119745 197.470997 
L 91.205546 193.529978 
L 92.291347 199.54461 
L 93.377148 186.648771 
L 94.462949 192.729361 
L 95.54875 194.863426 
L 96.634552 191.870457 
L 97.720353 186.732989 
L 98.806154 188.897167 
L 99.891955 189.58674 
L 100.977756 185.849649 
L 102.063557 191.23044 
L 103.149358 198.31502 
L 104.23516 192.448089 
L 105.320961 184.81368 
L 106.406762 189.968614 
L 107.492563 189.985934 
L 108.578364 180.272355 
L 109.664165 187.253961 
L 110.749967 202.53138 
L 111.835768 186.880717 
L 112.921569 180.341237 
L 114.00737 192.313858 
L 115.093171 187.587029 
L 116.178972 180.446876 
L 117.264773 179.111667 
L 118.350575 187.801579 
L 119.436376 177.718161 
L 120.522177 190.553258 
L 121.607978 184.543274 
L 122.693779 172.45841 
L 123.77958 178.611674 
L 124.865382 179.433601 
L 125.951183 190.407624 
L 127.036984 178.408127 
L 128.122785 184.496671 
L 129.208586 188.473669 
L 130.294387 196.569337 
L 131.380189 207.897844 
L 132.46599 217.23866 
L 133.551791 190.451619 
L 134.637592 188.565829 
L 135.723393 191.403882 
L 136.809194 190.712943 
L 137.894995 179.265533 
L 138.980797 180.847647 
L 141.152399 185.190638 
L 142.2382 180.208437 
L 143.324001 191.831444 
L 144.409802 181.329297 
L 145.495604 188.839918 
L 146.581405 182.052168 
L 147.667206 176.223315 
L 148.753007 192.90764 
L 149.838808 203.771 
L 150.924609 207.606812 
L 152.01041 185.439262 
L 153.096212 182.509905 
L 154.182013 158.321283 
L 155.267814 158.758661 
L 156.353615 140.339527 
L 157.439416 129.080582 
L 158.525217 134.563219 
L 159.611019 154.449982 
L 160.69682 146.228274 
L 161.782621 127.605118 
L 162.868422 133.374005 
L 163.954223 119.874705 
L 165.040024 123.793786 
L 166.125825 134.604565 
L 167.211627 142.330725 
L 169.383229 126.477649 
L 170.46903 133.128068 
L 171.554831 149.871456 
L 172.640632 124.251348 
L 173.726434 118.145626 
L 174.812235 140.143488 
L 175.898036 130.434653 
L 176.983837 127.10408 
L 178.069638 114.320382 
L 179.155439 123.590048 
L 180.24124 127.841153 
L 181.327042 125.978087 
L 182.412843 143.341524 
L 183.498644 146.51425 
L 184.584445 125.955672 
L 185.670246 133.041569 
L 186.756047 141.575942 
L 187.841849 134.745047 
L 188.92765 119.563638 
L 190.013451 128.873539 
L 191.099252 99.487729 
L 192.185053 87.029388 
L 193.270854 112.471999 
L 194.356656 121.472538 
L 195.442457 112.388051 
L 196.528258 147.310126 
L 197.614059 129.782423 
L 198.69986 125.260359 
L 199.785661 111.43514 
L 200.871462 120.41441 
L 201.957264 135.920316 
L 203.043065 123.03366 
L 204.128866 111.92441 
L 205.214667 87.974819 
L 206.300468 108.189835 
L 207.386269 114.798717 
L 208.472071 115.176933 
L 209.557872 121.1694 
L 210.643673 102.941477 
L 211.729474 127.480184 
L 212.815275 98.497701 
L 213.901076 126.920496 
L 214.986877 119.12249 
L 216.072679 134.246684 
L 217.15848 147.312641 
L 218.244281 138.611375 
L 219.330082 95.296567 
L 220.415883 114.909919 
L 221.501684 89.918031 
L 222.587486 97.079395 
L 223.673287 134.129924 
L 224.759088 124.549847 
L 225.844889 99.856136 
L 226.93069 120.062177 
L 228.016491 103.095491 
L 229.102292 132.648365 
L 230.188094 98.437106 
L 231.273895 105.335224 
L 232.359696 86.267853 
L 233.445497 103.09712 
L 234.531298 85.24244 
L 235.617099 119.922674 
L 236.702901 101.852304 
L 237.788702 135.514552 
L 238.874503 120.081331 
L 239.960304 134.681354 
L 241.046105 119.487833 
L 242.131906 125.537805 
L 243.217708 108.583505 
L 244.303509 125.87608 
L 245.38931 146.955555 
L 246.475111 118.392421 
L 247.560912 110.658309 
L 248.646713 94.662196 
L 249.732514 96.343096 
L 250.818316 133.328062 
L 251.904117 110.431724 
L 252.989918 122.958839 
L 254.075719 118.822152 
L 255.16152 135.421284 
L 256.247321 143.95505 
L 257.333123 138.476558 
L 258.418924 129.20952 
L 259.504725 113.402407 
L 260.590526 144.199002 
L 261.676327 140.011721 
L 262.762128 143.394367 
L 263.847929 143.27103 
L 264.933731 176.026721 
L 266.019532 124.055588 
L 267.105333 121.728722 
L 268.191134 158.908649 
L 269.276935 119.248135 
L 270.362736 119.069332 
L 271.448538 112.754318 
L 272.534339 102.865312 
L 273.62014 114.137217 
L 274.705941 115.152414 
L 275.791742 156.513196 
L 276.877543 145.234459 
L 277.963344 126.114154 
L 279.049146 117.376334 
L 280.134947 128.514559 
L 281.220748 142.781561 
L 283.39235 147.66474 
L 284.478151 122.120868 
L 285.563953 136.079967 
L 286.649754 114.952263 
L 287.735555 135.394617 
L 288.821356 127.300447 
L 289.907157 116.312948 
L 290.992958 123.0812 
L 292.07876 124.67565 
L 293.164561 95.380857 
L 294.250362 80.861014 
L 295.336163 116.118062 
L 296.421964 121.37013 
L 297.507765 132.614232 
L 298.593566 138.116596 
L 299.679368 142.587616 
L 300.765169 123.611815 
L 301.85097 122.860417 
L 302.936771 129.807585 
L 304.022572 119.753883 
L 305.108373 140.537772 
L 306.194175 113.532186 
L 307.279976 117.248277 
L 308.365777 123.642147 
L 309.451578 102.552443 
L 310.537379 102.767478 
L 311.62318 90.370644 
L 312.708981 118.171499 
L 313.794783 132.885199 
L 314.880584 108.413063 
L 315.966385 126.361272 
L 317.052186 128.741984 
L 318.137987 97.456963 
L 319.223788 125.9277 
L 320.30959 102.617929 
L 321.395391 85.80965 
L 322.481192 93.769289 
L 323.566993 138.455537 
L 324.652794 124.01721 
L 325.738595 129.45292 
L 326.824396 113.208283 
L 327.910198 124.141681 
L 328.995999 115.026124 
L 330.0818 131.334752 
L 331.167601 133.492987 
L 332.253402 134.582996 
L 333.339203 124.787117 
L 334.425005 126.258275 
L 335.510806 112.735125 
L 336.596607 117.352019 
L 337.682408 135.893271 
L 338.768209 145.216256 
L 339.85401 161.971975 
L 340.939811 164.076818 
L 342.025613 155.678341 
L 343.111414 133.114062 
L 344.197215 124.669925 
L 345.283016 150.487899 
L 346.368817 121.412517 
L 347.454618 142.700436 
L 348.54042 117.704176 
L 349.626221 124.256062 
L 350.712022 112.572039 
L 351.797823 136.872191 
L 353.969425 108.166926 
L 355.055227 106.76266 
L 356.141028 121.567663 
L 357.226829 113.480292 
L 358.31263 97.117833 
L 359.398431 104.359175 
L 360.484232 131.125393 
L 361.570033 126.952542 
L 362.655835 117.072857 
L 363.741636 109.993539 
L 364.827437 132.199369 
L 365.913238 142.765713 
L 366.999039 160.891438 
L 368.08484 167.285066 
L 369.170642 148.229437 
L 370.256443 162.902046 
L 371.342244 137.181505 
L 372.428045 119.224448 
L 373.513846 127.40755 
L 374.599647 92.777172 
L 375.685448 96.033391 
L 376.77125 94.043233 
L 378.942852 132.301513 
L 380.028653 65.813395 
L 381.114454 89.437678 
L 382.200255 74.007105 
L 383.286057 89.240851 
L 384.371858 99.331125 
L 385.457659 80.066739 
L 386.54346 112.385072 
L 387.629261 111.361684 
L 388.715062 83.339336 
L 389.800863 78.232889 
L 390.886665 53.568 
L 391.972466 74.790826 
L 393.058267 80.849992 
L 394.144068 106.391221 
L 395.229869 108.402008 
L 396.31567 83.868736 
L 397.401472 66.615322 
L 398.487273 99.023715 
L 398.487273 99.023715 
" style="fill:none;stroke:#ff0000;stroke-linecap:square;stroke-width:1.5;"/>
   </g>
   <g id="patch_3">
    <path d="M 57.6 307.584 
L 57.6 41.472 
" style="fill:none;stroke:#000000;stroke-linecap:square;stroke-linejoin:miter;stroke-width:0.8;"/>
   </g>
   <g id="patch_4">
    <path d="M 414.72 307.584 
L 414.72 41.472 
" style="fill:none;stroke:#000000;stroke-linecap:square;stroke-linejoin:miter;stroke-width:0.8;"/>
   </g>
   <g id="patch_5">
    <path d="M 57.6 307.584 
L 414.72 307.584 
" style="fill:none;stroke:#000000;stroke-linecap:square;stroke-linejoin:miter;stroke-width:0.8;"/>
   </g>
   <g id="patch_6">
    <path d="M 57.6 41.472 
L 414.72 41.472 
" style="fill:none;stroke:#000000;stroke-linecap:square;stroke-linejoin:miter;stroke-width:0.8;"/>
   </g>
   <g id="text_17">
    <!-- Population's average and best fitness -->
    <defs>
     <path d="M 19.671875 64.796875 
L 19.671875 37.40625 
L 32.078125 37.40625 
Q 38.96875 37.40625 42.71875 40.96875 
Q 46.484375 44.53125 46.484375 51.125 
Q 46.484375 57.671875 42.71875 61.234375 
Q 38.96875 64.796875 32.078125 64.796875 
z
M 9.8125 72.90625 
L 32.078125 72.90625 
Q 44.34375 72.90625 50.609375 67.359375 
Q 56.890625 61.8125 56.890625 51.125 
Q 56.890625 40.328125 50.609375 34.8125 
Q 44.34375 29.296875 32.078125 29.296875 
L 19.671875 29.296875 
L 19.671875 0 
L 9.8125 0 
z
" id="DejaVuSans-80"/>
     <path d="M 18.109375 8.203125 
L 18.109375 -20.796875 
L 9.078125 -20.796875 
L 9.078125 54.6875 
L 18.109375 54.6875 
L 18.109375 46.390625 
Q 20.953125 51.265625 25.265625 53.625 
Q 29.59375 56 35.59375 56 
Q 45.5625 56 51.78125 48.09375 
Q 58.015625 40.1875 58.015625 27.296875 
Q 58.015625 14.40625 51.78125 6.484375 
Q 45.5625 -1.421875 35.59375 -1.421875 
Q 29.59375 -1.421875 25.265625 0.953125 
Q 20.953125 3.328125 18.109375 8.203125 
z
M 48.6875 27.296875 
Q 48.6875 37.203125 44.609375 42.84375 
Q 40.53125 48.484375 33.40625 48.484375 
Q 26.265625 48.484375 22.1875 42.84375 
Q 18.109375 37.203125 18.109375 27.296875 
Q 18.109375 17.390625 22.1875 11.75 
Q 26.265625 6.109375 33.40625 6.109375 
Q 40.53125 6.109375 44.609375 11.75 
Q 48.6875 17.390625 48.6875 27.296875 
z
" id="DejaVuSans-112"/>
     <path d="M 8.5 21.578125 
L 8.5 54.6875 
L 17.484375 54.6875 
L 17.484375 21.921875 
Q 17.484375 14.15625 20.5 10.265625 
Q 23.53125 6.390625 29.59375 6.390625 
Q 36.859375 6.390625 41.078125 11.03125 
Q 45.3125 15.671875 45.3125 23.6875 
L 45.3125 54.6875 
L 54.296875 54.6875 
L 54.296875 0 
L 45.3125 0 
L 45.3125 8.40625 
Q 42.046875 3.421875 37.71875 1 
Q 33.40625 -1.421875 27.6875 -1.421875 
Q 18.265625 -1.421875 13.375 4.4375 
Q 8.5 10.296875 8.5 21.578125 
z
M 31.109375 56 
z
" id="DejaVuSans-117"/>
     <path d="M 9.421875 75.984375 
L 18.40625 75.984375 
L 18.40625 0 
L 9.421875 0 
z
" id="DejaVuSans-108"/>
     <path d="M 17.921875 72.90625 
L 17.921875 45.796875 
L 9.625 45.796875 
L 9.625 72.90625 
z
" id="DejaVuSans-39"/>
     <path id="DejaVuSans-32"/>
     <path d="M 2.984375 54.6875 
L 12.5 54.6875 
L 29.59375 8.796875 
L 46.6875 54.6875 
L 56.203125 54.6875 
L 35.6875 0 
L 23.484375 0 
z
" id="DejaVuSans-118"/>
     <path d="M 45.40625 27.984375 
Q 45.40625 37.75 41.375 43.109375 
Q 37.359375 48.484375 30.078125 48.484375 
Q 22.859375 48.484375 18.828125 43.109375 
Q 14.796875 37.75 14.796875 27.984375 
Q 14.796875 18.265625 18.828125 12.890625 
Q 22.859375 7.515625 30.078125 7.515625 
Q 37.359375 7.515625 41.375 12.890625 
Q 45.40625 18.265625 45.40625 27.984375 
z
M 54.390625 6.78125 
Q 54.390625 -7.171875 48.1875 -13.984375 
Q 42 -20.796875 29.203125 -20.796875 
Q 24.46875 -20.796875 20.265625 -20.09375 
Q 16.0625 -19.390625 12.109375 -17.921875 
L 12.109375 -9.1875 
Q 16.0625 -11.328125 19.921875 -12.34375 
Q 23.78125 -13.375 27.78125 -13.375 
Q 36.625 -13.375 41.015625 -8.765625 
Q 45.40625 -4.15625 45.40625 5.171875 
L 45.40625 9.625 
Q 42.625 4.78125 38.28125 2.390625 
Q 33.9375 0 27.875 0 
Q 17.828125 0 11.671875 7.65625 
Q 5.515625 15.328125 5.515625 27.984375 
Q 5.515625 40.671875 11.671875 48.328125 
Q 17.828125 56 27.875 56 
Q 33.9375 56 38.28125 53.609375 
Q 42.625 51.21875 45.40625 46.390625 
L 45.40625 54.6875 
L 54.390625 54.6875 
z
" id="DejaVuSans-103"/>
     <path d="M 45.40625 46.390625 
L 45.40625 75.984375 
L 54.390625 75.984375 
L 54.390625 0 
L 45.40625 0 
L 45.40625 8.203125 
Q 42.578125 3.328125 38.25 0.953125 
Q 33.9375 -1.421875 27.875 -1.421875 
Q 17.96875 -1.421875 11.734375 6.484375 
Q 5.515625 14.40625 5.515625 27.296875 
Q 5.515625 40.1875 11.734375 48.09375 
Q 17.96875 56 27.875 56 
Q 33.9375 56 38.25 53.625 
Q 42.578125 51.265625 45.40625 46.390625 
z
M 14.796875 27.296875 
Q 14.796875 17.390625 18.875 11.75 
Q 22.953125 6.109375 30.078125 6.109375 
Q 37.203125 6.109375 41.296875 11.75 
Q 45.40625 17.390625 45.40625 27.296875 
Q 45.40625 37.203125 41.296875 42.84375 
Q 37.203125 48.484375 30.078125 48.484375 
Q 22.953125 48.484375 18.875 42.84375 
Q 14.796875 37.203125 14.796875 27.296875 
z
" id="DejaVuSans-100"/>
     <path d="M 48.6875 27.296875 
Q 48.6875 37.203125 44.609375 42.84375 
Q 40.53125 48.484375 33.40625 48.484375 
Q 26.265625 48.484375 22.1875 42.84375 
Q 18.109375 37.203125 18.109375 27.296875 
Q 18.109375 17.390625 22.1875 11.75 
Q 26.265625 6.109375 33.40625 6.109375 
Q 40.53125 6.109375 44.609375 11.75 
Q 48.6875 17.390625 48.6875 27.296875 
z
M 18.109375 46.390625 
Q 20.953125 51.265625 25.265625 53.625 
Q 29.59375 56 35.59375 56 
Q 45.5625 56 51.78125 48.09375 
Q 58.015625 40.1875 58.015625 27.296875 
Q 58.015625 14.40625 51.78125 6.484375 
Q 45.5625 -1.421875 35.59375 -1.421875 
Q 29.59375 -1.421875 25.265625 0.953125 
Q 20.953125 3.328125 18.109375 8.203125 
L 18.109375 0 
L 9.078125 0 
L 9.078125 75.984375 
L 18.109375 75.984375 
z
" id="DejaVuSans-98"/>
     <path d="M 37.109375 75.984375 
L 37.109375 68.5 
L 28.515625 68.5 
Q 23.6875 68.5 21.796875 66.546875 
Q 19.921875 64.59375 19.921875 59.515625 
L 19.921875 54.6875 
L 34.71875 54.6875 
L 34.71875 47.703125 
L 19.921875 47.703125 
L 19.921875 0 
L 10.890625 0 
L 10.890625 47.703125 
L 2.296875 47.703125 
L 2.296875 54.6875 
L 10.890625 54.6875 
L 10.890625 58.5 
Q 10.890625 67.625 15.140625 71.796875 
Q 19.390625 75.984375 28.609375 75.984375 
z
" id="DejaVuSans-102"/>
    </defs>
    <g transform="translate(123.315 35.472)scale(0.12 -0.12)">
     <use xlink:href="#DejaVuSans-80"/>
     <use x="60.255859" xlink:href="#DejaVuSans-111"/>
     <use x="121.4375" xlink:href="#DejaVuSans-112"/>
     <use x="184.914062" xlink:href="#DejaVuSans-117"/>
     <use x="248.292969" xlink:href="#DejaVuSans-108"/>
     <use x="276.076172" xlink:href="#DejaVuSans-97"/>
     <use x="337.355469" xlink:href="#DejaVuSans-116"/>
     <use x="376.564453" xlink:href="#DejaVuSans-105"/>
     <use x="404.347656" xlink:href="#DejaVuSans-111"/>
     <use x="465.529297" xlink:href="#DejaVuSans-110"/>
     <use x="528.908203" xlink:href="#DejaVuSans-39"/>
     <use x="556.398438" xlink:href="#DejaVuSans-115"/>
     <use x="608.498047" xlink:href="#DejaVuSans-32"/>
     <use x="640.285156" xlink:href="#DejaVuSans-97"/>
     <use x="701.564453" xlink:href="#DejaVuSans-118"/>
     <use x="760.744141" xlink:href="#DejaVuSans-101"/>
     <use x="822.267578" xlink:href="#DejaVuSans-114"/>
     <use x="863.380859" xlink:href="#DejaVuSans-97"/>
     <use x="924.660156" xlink:href="#DejaVuSans-103"/>
     <use x="988.136719" xlink:href="#DejaVuSans-101"/>
     <use x="1049.660156" xlink:href="#DejaVuSans-32"/>
     <use x="1081.447266" xlink:href="#DejaVuSans-97"/>
     <use x="1142.726562" xlink:href="#DejaVuSans-110"/>
     <use x="1206.105469" xlink:href="#DejaVuSans-100"/>
     <use x="1269.582031" xlink:href="#DejaVuSans-32"/>
     <use x="1301.369141" xlink:href="#DejaVuSans-98"/>
     <use x="1364.845703" xlink:href="#DejaVuSans-101"/>
     <use x="1426.369141" xlink:href="#DejaVuSans-115"/>
     <use x="1478.46875" xlink:href="#DejaVuSans-116"/>
     <use x="1517.677734" xlink:href="#DejaVuSans-32"/>
     <use x="1549.464844" xlink:href="#DejaVuSans-102"/>
     <use x="1584.669922" xlink:href="#DejaVuSans-105"/>
     <use x="1612.453125" xlink:href="#DejaVuSans-116"/>
     <use x="1651.662109" xlink:href="#DejaVuSans-110"/>
     <use x="1715.041016" xlink:href="#DejaVuSans-101"/>
     <use x="1776.564453" xlink:href="#DejaVuSans-115"/>
     <use x="1828.664062" xlink:href="#DejaVuSans-115"/>
    </g>
   </g>
   <g id="legend_1">
    <g id="patch_7">
     <path d="M 64.6 108.1845 
L 137.540625 108.1845 
Q 139.540625 108.1845 139.540625 106.1845 
L 139.540625 48.472 
Q 139.540625 46.472 137.540625 46.472 
L 64.6 46.472 
Q 62.6 46.472 62.6 48.472 
L 62.6 106.1845 
Q 62.6 108.1845 64.6 108.1845 
z
" style="fill:#ffffff;opacity:0.8;stroke:#cccccc;stroke-linejoin:miter;"/>
    </g>
    <g id="line2d_33">
     <path d="M 66.6 54.570438 
L 86.6 54.570438 
" style="fill:none;stroke:#0000ff;stroke-linecap:square;stroke-width:1.5;"/>
    </g>
    <g id="line2d_34"/>
    <g id="text_18">
     <!-- average -->
     <g transform="translate(94.6 58.070438)scale(0.1 -0.1)">
      <use xlink:href="#DejaVuSans-97"/>
      <use x="61.279297" xlink:href="#DejaVuSans-118"/>
      <use x="120.458984" xlink:href="#DejaVuSans-101"/>
      <use x="181.982422" xlink:href="#DejaVuSans-114"/>
      <use x="223.095703" xlink:href="#DejaVuSans-97"/>
      <use x="284.375" xlink:href="#DejaVuSans-103"/>
      <use x="347.851562" xlink:href="#DejaVuSans-101"/>
     </g>
    </g>
    <g id="line2d_35">
     <path d="M 66.6 69.248563 
L 86.6 69.248563 
" style="fill:none;stroke:#008000;stroke-dasharray:9.6,2.4,1.5,2.4;stroke-dashoffset:0;stroke-width:1.5;"/>
    </g>
    <g id="line2d_36"/>
    <g id="text_19">
     <!-- -1 sd -->
     <defs>
      <path d="M 4.890625 31.390625 
L 31.203125 31.390625 
L 31.203125 23.390625 
L 4.890625 23.390625 
z
" id="DejaVuSans-45"/>
     </defs>
     <g transform="translate(94.6 72.748563)scale(0.1 -0.1)">
      <use xlink:href="#DejaVuSans-45"/>
      <use x="36.083984" xlink:href="#DejaVuSans-49"/>
      <use x="99.707031" xlink:href="#DejaVuSans-32"/>
      <use x="131.494141" xlink:href="#DejaVuSans-115"/>
      <use x="183.59375" xlink:href="#DejaVuSans-100"/>
     </g>
    </g>
    <g id="line2d_37">
     <path d="M 66.6 83.926688 
L 86.6 83.926688 
" style="fill:none;stroke:#008000;stroke-dasharray:9.6,2.4,1.5,2.4;stroke-dashoffset:0;stroke-width:1.5;"/>
    </g>
    <g id="line2d_38"/>
    <g id="text_20">
     <!-- +1 sd -->
     <defs>
      <path d="M 46 62.703125 
L 46 35.5 
L 73.1875 35.5 
L 73.1875 27.203125 
L 46 27.203125 
L 46 0 
L 37.796875 0 
L 37.796875 27.203125 
L 10.59375 27.203125 
L 10.59375 35.5 
L 37.796875 35.5 
L 37.796875 62.703125 
z
" id="DejaVuSans-43"/>
     </defs>
     <g transform="translate(94.6 87.426688)scale(0.1 -0.1)">
      <use xlink:href="#DejaVuSans-43"/>
      <use x="83.789062" xlink:href="#DejaVuSans-49"/>
      <use x="147.412109" xlink:href="#DejaVuSans-32"/>
      <use x="179.199219" xlink:href="#DejaVuSans-115"/>
      <use x="231.298828" xlink:href="#DejaVuSans-100"/>
     </g>
    </g>
    <g id="line2d_39">
     <path d="M 66.6 98.604813 
L 86.6 98.604813 
" style="fill:none;stroke:#ff0000;stroke-linecap:square;stroke-width:1.5;"/>
    </g>
    <g id="line2d_40"/>
    <g id="text_21">
     <!-- best -->
     <g transform="translate(94.6 102.104813)scale(0.1 -0.1)">
      <use xlink:href="#DejaVuSans-98"/>
      <use x="63.476562" xlink:href="#DejaVuSans-101"/>
      <use x="125" xlink:href="#DejaVuSans-115"/>
      <use x="177.099609" xlink:href="#DejaVuSans-116"/>
     </g>
    </g>
   </g>
  </g>
 </g>
 <defs>
  <clipPath id="p1c512a5ace">
   <rect height="266.112" width="357.12" x="57.6" y="41.472"/>
  </clipPath>
 </defs>
</svg>
