<?xml version="1.0" encoding="UTF-8" standalone="no"?>
<!DOCTYPE svg PUBLIC "-//W3C//DTD SVG 1.1//EN"
 "http://www.w3.org/Graphics/SVG/1.1/DTD/svg11.dtd">
<!-- Generated by graphviz version 2.40.1 (20161225.0304)
 -->
<!-- Title: %3 Pages: 1 -->
<svg width="535pt" height="518pt"
 viewBox="0.00 0.00 535.42 518.18" xmlns="http://www.w3.org/2000/svg" xmlns:xlink="http://www.w3.org/1999/xlink">
<g id="graph0" class="graph" transform="scale(1 1) rotate(0) translate(4 514.1824)">
<title>%3</title>
<polygon fill="#ffffff" stroke="transparent" points="-4,4 -4,-514.1824 531.4247,-514.1824 531.4247,4 -4,4"/>
<!-- 0 -->
<g id="node1" class="node">
<title>0</title>
<polygon fill="#d3d3d3" stroke="#000000" points="164.0476,-510.1824 144.0357,-510.1824 144.0357,-493.1824 164.0476,-493.1824 164.0476,-510.1824"/>
<text text-anchor="middle" x="154.0416" y="-498.9824" font-family="Times,serif" font-size="9.00" fill="#000000">0</text>
</g>
<!-- 1 -->
<g id="node2" class="node">
<title>1</title>
<polygon fill="#d3d3d3" stroke="#000000" points="308.0476,-510.1824 288.0357,-510.1824 288.0357,-493.1824 308.0476,-493.1824 308.0476,-510.1824"/>
<text text-anchor="middle" x="298.0416" y="-498.9824" font-family="Times,serif" font-size="9.00" fill="#000000">1</text>
</g>
<!-- 0&#45;&gt;1 -->
<!-- E7 -->
<g id="node11" class="node">
<title>E7</title>
<ellipse fill="#ffa07a" stroke="#000000" cx="454.0416" cy="-18.383" rx="18.2668" ry="18.2668"/>
<text text-anchor="middle" x="454.0416" y="-15.683" font-family="Times,serif" font-size="9.00" fill="#000000">E7</text>
</g>
<!-- 0&#45;&gt;E7 -->
<g id="edge13" class="edge">
<title>0&#45;&gt;E7</title>
<path fill="none" stroke="#00ff00" stroke-width="2.8482" d="M164.0739,-499.5827C205.6227,-490.2456 362.0416,-448.4908 362.0416,-349.0575 362.0416,-349.0575 362.0416,-349.0575 362.0416,-180.891 362.0416,-123.4001 406.1848,-67.5817 433.3162,-38.7038"/>
<polygon fill="#00ff00" stroke="#00ff00" stroke-width="2.8482" points="436.0411,-40.9205 440.4667,-31.2942 431.004,-36.0595 436.0411,-40.9205"/>
</g>
<!-- 5184 -->
<g id="node13" class="node">
<title>5184</title>
<ellipse fill="#add8e6" stroke="#000000" cx="102.0416" cy="-264.9743" rx="24.0833" ry="24.0833"/>
<text text-anchor="middle" x="102.0416" y="-266.7743" font-family="Times,serif" font-size="9.00" fill="#000000">5184</text>
<text text-anchor="middle" x="102.0416" y="-257.7743" font-family="Times,serif" font-size="9.00" fill="#000000">sigm</text>
</g>
<!-- 0&#45;&gt;5184 -->
<g id="edge25" class="edge">
<title>0&#45;&gt;5184</title>
<path fill="none" stroke="#ff0000" stroke-width=".1927" d="M154.2977,-492.9805C154.8172,-466.8599 154.5778,-387.1044 135.0416,-325.0159 131.6598,-314.2681 126.2624,-303.2533 120.804,-293.6408"/>
<polygon fill="#ff0000" stroke="#ff0000" stroke-width=".1927" points="123.7329,-291.7181 115.6159,-284.9088 117.7149,-295.2937 123.7329,-291.7181"/>
</g>
<!-- 4458 -->
<g id="node15" class="node">
<title>4458</title>
<ellipse fill="#f08080" stroke="#000000" cx="24.0416" cy="-349.0575" rx="24.0833" ry="24.0833"/>
<text text-anchor="middle" x="24.0416" y="-350.8575" font-family="Times,serif" font-size="9.00" fill="#000000">4458</text>
<text text-anchor="middle" x="24.0416" y="-341.8575" font-family="Times,serif" font-size="9.00" fill="#000000">relu</text>
</g>
<!-- 0&#45;&gt;4458 -->
<g id="edge17" class="edge">
<title>0&#45;&gt;4458</title>
<path fill="none" stroke="#ff0000" stroke-width=".209" d="M143.9915,-498.9046C126.5006,-493.5905 90.3028,-480.4 69.0416,-457.1824 49.7836,-436.1523 38.1204,-405.7134 31.5105,-382.4863"/>
<polygon fill="#ff0000" stroke="#ff0000" stroke-width=".209" points="34.8597,-381.4619 28.8998,-372.7023 28.0963,-383.2666 34.8597,-381.4619"/>
</g>
<!-- 4923 -->
<g id="node17" class="node">
<title>4923</title>
<ellipse fill="#f0e68c" stroke="#000000" cx="102.0416" cy="-433.1408" rx="24.0833" ry="24.0833"/>
<text text-anchor="middle" x="102.0416" y="-434.9408" font-family="Times,serif" font-size="9.00" fill="#000000">4923</text>
<text text-anchor="middle" x="102.0416" y="-425.9408" font-family="Times,serif" font-size="9.00" fill="#000000">soft</text>
</g>
<!-- 0&#45;&gt;4923 -->
<g id="edge15" class="edge">
<title>0&#45;&gt;4923</title>
<path fill="none" stroke="#00ff00" stroke-width=".6096" d="M147.4558,-493.0016C141.2542,-484.8272 131.629,-472.1402 122.8331,-460.5462"/>
<polygon fill="#00ff00" stroke="#00ff00" stroke-width=".6096" points="125.4682,-458.2287 116.6357,-452.3773 119.8914,-462.4595 125.4682,-458.2287"/>
</g>
<!-- 2 -->
<g id="node3" class="node">
<title>2</title>
<polygon fill="#d3d3d3" stroke="#000000" points="391.0476,-510.1824 371.0357,-510.1824 371.0357,-493.1824 391.0476,-493.1824 391.0476,-510.1824"/>
<text text-anchor="middle" x="381.0416" y="-498.9824" font-family="Times,serif" font-size="9.00" fill="#000000">2</text>
</g>
<!-- 1&#45;&gt;2 -->
<!-- E4 -->
<g id="node8" class="node">
<title>E4</title>
<ellipse fill="#ffa07a" stroke="#000000" cx="289.0416" cy="-18.383" rx="18.2668" ry="18.2668"/>
<text text-anchor="middle" x="289.0416" y="-15.683" font-family="Times,serif" font-size="9.00" fill="#000000">E4</text>
</g>
<!-- 1&#45;&gt;E4 -->
<g id="edge11" class="edge">
<title>1&#45;&gt;E4</title>
<path fill="none" stroke="#00ff00" stroke-width="3.5754" d="M300.5346,-493.1634C307.0422,-470.1469 324.0416,-404.6973 324.0416,-349.0575 324.0416,-349.0575 324.0416,-349.0575 324.0416,-180.891 324.0416,-132.1929 308.8356,-77.0892 298.4692,-45.1814"/>
<polygon fill="#00ff00" stroke="#00ff00" stroke-width="3.5754" points="301.7826,-44.0535 295.2989,-35.6743 295.1421,-46.2679 301.7826,-44.0535"/>
</g>
<!-- 4586 -->
<g id="node16" class="node">
<title>4586</title>
<ellipse fill="#add8e6" stroke="#000000" cx="272.0416" cy="-264.9743" rx="24.0833" ry="24.0833"/>
<text text-anchor="middle" x="272.0416" y="-266.7743" font-family="Times,serif" font-size="9.00" fill="#000000">4586</text>
<text text-anchor="middle" x="272.0416" y="-257.7743" font-family="Times,serif" font-size="9.00" fill="#000000">sigm</text>
</g>
<!-- 1&#45;&gt;4586 -->
<g id="edge14" class="edge">
<title>1&#45;&gt;4586</title>
<path fill="none" stroke="#ff0000" stroke-width=".1633" d="M297.0854,-492.9771C293.6599,-461.7904 281.8815,-354.5583 275.777,-298.9815"/>
<polygon fill="#ff0000" stroke="#ff0000" stroke-width=".1633" points="279.2421,-298.4718 274.6711,-288.9137 272.284,-299.2361 279.2421,-298.4718"/>
</g>
<!-- E6 -->
<g id="node10" class="node">
<title>E6</title>
<ellipse fill="#eee8aa" stroke="#000000" cx="399.0416" cy="-18.383" rx="18.2668" ry="18.2668"/>
<text text-anchor="middle" x="399.0416" y="-15.683" font-family="Times,serif" font-size="9.00" fill="#000000">E6</text>
</g>
<!-- 2&#45;&gt;E6 -->
<g id="edge12" class="edge">
<title>2&#45;&gt;E6</title>
<path fill="none" stroke="#ff0000" stroke-width="3.1499" d="M382.8634,-493.1231C387.619,-470.0065 400.0416,-404.3305 400.0416,-349.0575 400.0416,-349.0575 400.0416,-349.0575 400.0416,-180.891 400.0416,-133.9967 399.6201,-79.4921 399.3244,-47.0271"/>
<polygon fill="#ff0000" stroke="#ff0000" stroke-width="3.1499" points="402.8232,-46.8718 399.2297,-36.905 395.8235,-46.9373 402.8232,-46.8718"/>
</g>
<!-- E0 -->
<g id="node4" class="node">
<title>E0</title>
<ellipse fill="#87cefa" stroke="#000000" cx="51.0416" cy="-18.383" rx="18.2668" ry="18.2668"/>
<text text-anchor="middle" x="51.0416" y="-15.683" font-family="Times,serif" font-size="9.00" fill="#000000">E0</text>
</g>
<!-- E1 -->
<g id="node5" class="node">
<title>E1</title>
<ellipse fill="#eee8aa" stroke="#000000" cx="116.0416" cy="-18.383" rx="18.2668" ry="18.2668"/>
<text text-anchor="middle" x="116.0416" y="-15.683" font-family="Times,serif" font-size="9.00" fill="#000000">E1</text>
</g>
<!-- E0&#45;&gt;E1 -->
<!-- E2 -->
<g id="node6" class="node">
<title>E2</title>
<ellipse fill="#eee8aa" stroke="#000000" cx="176.0416" cy="-18.383" rx="18.2668" ry="18.2668"/>
<text text-anchor="middle" x="176.0416" y="-15.683" font-family="Times,serif" font-size="9.00" fill="#000000">E2</text>
</g>
<!-- E1&#45;&gt;E2 -->
<!-- E3 -->
<g id="node7" class="node">
<title>E3</title>
<ellipse fill="#ffa07a" stroke="#000000" cx="233.0416" cy="-18.383" rx="18.2668" ry="18.2668"/>
<text text-anchor="middle" x="233.0416" y="-15.683" font-family="Times,serif" font-size="9.00" fill="#000000">E3</text>
</g>
<!-- E2&#45;&gt;E3 -->
<!-- E3&#45;&gt;E4 -->
<!-- E5 -->
<g id="node9" class="node">
<title>E5</title>
<ellipse fill="#ffa07a" stroke="#000000" cx="344.0416" cy="-18.383" rx="18.2668" ry="18.2668"/>
<text text-anchor="middle" x="344.0416" y="-15.683" font-family="Times,serif" font-size="9.00" fill="#000000">E5</text>
</g>
<!-- E4&#45;&gt;E5 -->
<!-- E5&#45;&gt;E6 -->
<!-- E6&#45;&gt;E7 -->
<!-- E8 -->
<g id="node12" class="node">
<title>E8</title>
<ellipse fill="#eee8aa" stroke="#000000" cx="509.0416" cy="-18.383" rx="18.2668" ry="18.2668"/>
<text text-anchor="middle" x="509.0416" y="-15.683" font-family="Times,serif" font-size="9.00" fill="#000000">E8</text>
</g>
<!-- E7&#45;&gt;E8 -->
<!-- 5184&#45;&gt;E0 -->
<g id="edge27" class="edge">
<title>5184&#45;&gt;E0</title>
<path fill="none" stroke="#ff0000" stroke-width=".3156" d="M88.4063,-245.0587C81.3971,-233.7876 73.4266,-219.1395 69.0416,-204.9326 52.3601,-150.8853 50.0339,-84.2182 50.259,-46.9932"/>
<polygon fill="#ff0000" stroke="#ff0000" stroke-width=".3156" points="53.7602,-46.9147 50.3889,-36.8706 46.7608,-46.8248 53.7602,-46.9147"/>
</g>
<!-- 2555 -->
<g id="node20" class="node">
<title>2555</title>
<ellipse fill="none" stroke="#000000" cx="102.0416" cy="-180.891" rx="24.0833" ry="24.0833"/>
<text text-anchor="middle" x="102.0416" y="-178.191" font-family="Times,serif" font-size="9.00" fill="#000000">2555</text>
</g>
<!-- 5184&#45;&gt;2555 -->
<g id="edge21" class="edge">
<title>5184&#45;&gt;2555</title>
<path fill="none" stroke="#ff00ff" stroke-dasharray="5,2" d="M102.0416,-240.6539C102.0416,-232.7231 102.0416,-223.7624 102.0416,-215.2386"/>
<polygon fill="#ff00ff" stroke="#ff00ff" points="105.5417,-215.1567 102.0416,-205.1567 98.5417,-215.1567 105.5417,-215.1567"/>
</g>
<!-- 5283 -->
<g id="node14" class="node">
<title>5283</title>
<ellipse fill="#add8e6" stroke="#000000" cx="102.0416" cy="-349.0575" rx="24.0833" ry="24.0833"/>
<text text-anchor="middle" x="102.0416" y="-350.8575" font-family="Times,serif" font-size="9.00" fill="#000000">5283</text>
<text text-anchor="middle" x="102.0416" y="-341.8575" font-family="Times,serif" font-size="9.00" fill="#000000">sigm</text>
</g>
<!-- 5283&#45;&gt;5184 -->
<g id="edge23" class="edge">
<title>5283&#45;&gt;5184</title>
<path fill="none" stroke="#ff0000" stroke-width=".1144" d="M102.0416,-324.7372C102.0416,-316.8063 102.0416,-307.8457 102.0416,-299.3219"/>
<polygon fill="#ff0000" stroke="#ff0000" stroke-width=".1144" points="105.5417,-299.2399 102.0416,-289.24 98.5417,-299.24 105.5417,-299.2399"/>
</g>
<!-- 4458&#45;&gt;E0 -->
<g id="edge20" class="edge">
<title>4458&#45;&gt;E0</title>
<path fill="none" stroke="#ff0000" stroke-width=".6622" d="M26.0052,-325.0099C30.869,-265.4408 43.4609,-111.2262 48.7004,-47.0561"/>
<polygon fill="#ff0000" stroke="#ff0000" stroke-width=".6622" points="52.2075,-47.1106 49.5331,-36.8589 45.2308,-46.5409 52.2075,-47.1106"/>
</g>
<!-- 4586&#45;&gt;E0 -->
<g id="edge16" class="edge">
<title>4586&#45;&gt;E0</title>
<path fill="none" stroke="#ff0000" stroke-width=".6461" d="M250.0706,-255.2134C228.6469,-244.9271 196.0226,-227.1452 173.0416,-204.9326 146.4151,-179.1963 91.4135,-87.6763 65.3454,-43.1173"/>
<polygon fill="#ff0000" stroke="#ff0000" stroke-width=".6461" points="68.302,-41.2394 60.2425,-34.3623 62.2543,-44.7644 68.302,-41.2394"/>
</g>
<!-- 3297 -->
<g id="node18" class="node">
<title>3297</title>
<ellipse fill="none" stroke="#000000" cx="272.0416" cy="-180.891" rx="24.0833" ry="24.0833"/>
<text text-anchor="middle" x="272.0416" y="-178.191" font-family="Times,serif" font-size="9.00" fill="#000000">3297</text>
</g>
<!-- 4586&#45;&gt;3297 -->
<g id="edge18" class="edge">
<title>4586&#45;&gt;3297</title>
<path fill="none" stroke="#ff00ff" stroke-dasharray="5,2" d="M272.0416,-240.6539C272.0416,-232.7231 272.0416,-223.7624 272.0416,-215.2386"/>
<polygon fill="#ff00ff" stroke="#ff00ff" points="275.5417,-215.1567 272.0416,-205.1567 268.5417,-215.1567 275.5417,-215.1567"/>
</g>
<!-- 4923&#45;&gt;5283 -->
<g id="edge22" class="edge">
<title>4923&#45;&gt;5283</title>
<path fill="none" stroke="#ff0000" stroke-width=".1489" d="M102.0416,-408.8204C102.0416,-400.8896 102.0416,-391.9289 102.0416,-383.4051"/>
<polygon fill="#ff0000" stroke="#ff0000" stroke-width=".1489" points="105.5417,-383.3232 102.0416,-373.3232 98.5417,-383.3233 105.5417,-383.3232"/>
</g>
<!-- 4793 -->
<g id="node19" class="node">
<title>4793</title>
<ellipse fill="none" stroke="#000000" cx="206.0416" cy="-96.8077" rx="24.0833" ry="24.0833"/>
<text text-anchor="middle" x="206.0416" y="-94.1077" font-family="Times,serif" font-size="9.00" fill="#000000">4793</text>
</g>
<!-- 3297&#45;&gt;4793 -->
<g id="edge19" class="edge">
<title>3297&#45;&gt;4793</title>
<path fill="none" stroke="#ff00ff" stroke-dasharray="5,2" d="M257.0652,-161.8112C248.2892,-150.6306 237.0599,-136.3246 227.3711,-123.9813"/>
<polygon fill="#ff00ff" stroke="#ff00ff" points="229.8864,-121.5171 220.9588,-115.812 224.3801,-125.8393 229.8864,-121.5171"/>
</g>
<!-- 2555&#45;&gt;4793 -->
<g id="edge24" class="edge">
<title>2555&#45;&gt;4793</title>
<path fill="none" stroke="#ff00ff" stroke-dasharray="5,2" d="M121.1168,-165.4688C137.3896,-152.3124 160.97,-133.2478 179.1566,-118.5441"/>
<polygon fill="#ff00ff" stroke="#ff00ff" points="181.5115,-121.141 187.0874,-112.1321 177.1105,-115.6976 181.5115,-121.141"/>
</g>
<!-- 3852 -->
<g id="node21" class="node">
<title>3852</title>
<ellipse fill="none" stroke="#000000" cx="206.0416" cy="-180.891" rx="24.0833" ry="24.0833"/>
<text text-anchor="middle" x="206.0416" y="-178.191" font-family="Times,serif" font-size="9.00" fill="#000000">3852</text>
</g>
<!-- 3852&#45;&gt;4793 -->
<g id="edge26" class="edge">
<title>3852&#45;&gt;4793</title>
<path fill="none" stroke="#ff00ff" stroke-dasharray="5,2" d="M206.0416,-156.5706C206.0416,-148.6398 206.0416,-139.6791 206.0416,-131.1553"/>
<polygon fill="#ff00ff" stroke="#ff00ff" points="209.5417,-131.0734 206.0416,-121.0734 202.5417,-131.0735 209.5417,-131.0734"/>
</g>
</g>
</svg>
