<?xml version="1.0" encoding="UTF-8" standalone="no"?>
<!DOCTYPE svg PUBLIC "-//W3C//DTD SVG 1.1//EN"
 "http://www.w3.org/Graphics/SVG/1.1/DTD/svg11.dtd">
<!-- Generated by graphviz version 2.40.1 (20161225.0304)
 -->
<!-- Title: %3 Pages: 1 -->
<svg width="473pt" height="175pt"
 viewBox="0.00 0.00 473.04 174.79" xmlns="http://www.w3.org/2000/svg" xmlns:xlink="http://www.w3.org/1999/xlink">
<g id="graph0" class="graph" transform="scale(1 1) rotate(0) translate(4 170.7893)">
<title>%3</title>
<polygon fill="#ffffff" stroke="transparent" points="-4,4 -4,-170.7893 469.0404,-170.7893 469.0404,4 -4,4"/>
<!-- E0 -->
<g id="node1" class="node">
<title>E0</title>
<polygon fill="#d3d3d3" stroke="#000000" points="54.0392,-166.7893 28.0441,-166.7893 28.0441,-149.7893 54.0392,-149.7893 54.0392,-166.7893"/>
<text text-anchor="middle" x="41.0416" y="-155.5893" font-family="Times,serif" font-size="9.00" fill="#000000">E0</text>
</g>
<!-- E1 -->
<g id="node2" class="node">
<title>E1</title>
<polygon fill="#d3d3d3" stroke="#000000" points="131.0392,-166.7893 105.0441,-166.7893 105.0441,-149.7893 131.0392,-149.7893 131.0392,-166.7893"/>
<text text-anchor="middle" x="118.0416" y="-155.5893" font-family="Times,serif" font-size="9.00" fill="#000000">E1</text>
</g>
<!-- E0&#45;&gt;E1 -->
<!-- 4484 -->
<g id="node14" class="node">
<title>4484</title>
<ellipse fill="#add8e6" stroke="#000000" cx="24.0416" cy="-89.7477" rx="24.0833" ry="24.0833"/>
<text text-anchor="middle" x="24.0416" y="-91.5477" font-family="Times,serif" font-size="9.00" fill="#000000">4484</text>
<text text-anchor="middle" x="24.0416" y="-82.5477" font-family="Times,serif" font-size="9.00" fill="#000000">sigm</text>
</g>
<!-- E0&#45;&gt;4484 -->
<g id="edge19" class="edge">
<title>E0&#45;&gt;4484</title>
<path fill="none" stroke="#00ff00" stroke-width=".1493" d="M38.8886,-149.6085C37.2175,-142.8711 34.7862,-133.0682 32.3729,-123.3383"/>
<polygon fill="#00ff00" stroke="#00ff00" stroke-width=".1493" points="35.7017,-122.2202 29.8973,-113.3568 28.9076,-123.9053 35.7017,-122.2202"/>
</g>
<!-- E2 -->
<g id="node3" class="node">
<title>E2</title>
<polygon fill="#d3d3d3" stroke="#000000" points="175.0392,-166.7893 149.0441,-166.7893 149.0441,-149.7893 175.0392,-149.7893 175.0392,-166.7893"/>
<text text-anchor="middle" x="162.0416" y="-155.5893" font-family="Times,serif" font-size="9.00" fill="#000000">E2</text>
</g>
<!-- E1&#45;&gt;E2 -->
<!-- S -->
<g id="node13" class="node">
<title>S</title>
<ellipse fill="#ffa07a" stroke="#000000" cx="239.0416" cy="-14.853" rx="14.7075" ry="14.7075"/>
<text text-anchor="middle" x="239.0416" y="-12.153" font-family="Times,serif" font-size="9.00" fill="#000000">S</text>
</g>
<!-- E1&#45;&gt;S -->
<g id="edge22" class="edge">
<title>E1&#45;&gt;S</title>
<path fill="none" stroke="#ff0000" stroke-width=".5092" d="M125.2484,-149.7463C144.3034,-127.158 196.3716,-65.4351 222.958,-33.919"/>
<polygon fill="#ff0000" stroke="#ff0000" stroke-width=".5092" points="225.6604,-36.1435 229.4331,-26.2432 220.3099,-31.6299 225.6604,-36.1435"/>
</g>
<!-- E3 -->
<g id="node4" class="node">
<title>E3</title>
<polygon fill="#d3d3d3" stroke="#000000" points="219.0392,-166.7893 193.0441,-166.7893 193.0441,-149.7893 219.0392,-149.7893 219.0392,-166.7893"/>
<text text-anchor="middle" x="206.0416" y="-155.5893" font-family="Times,serif" font-size="9.00" fill="#000000">E3</text>
</g>
<!-- E2&#45;&gt;E3 -->
<!-- E2&#45;&gt;S -->
<g id="edge14" class="edge">
<title>E2&#45;&gt;S</title>
<path fill="none" stroke="#00ff00" stroke-width=".1688" d="M172.3069,-149.698C181.6973,-141.3634 195.404,-127.9327 204.0416,-113.7893 218.3549,-90.3527 227.9465,-60.2169 233.4147,-39.3951"/>
<polygon fill="#00ff00" stroke="#00ff00" stroke-width=".1688" points="236.8734,-39.9906 235.9015,-29.4405 230.0821,-38.294 236.8734,-39.9906"/>
</g>
<!-- E4 -->
<g id="node5" class="node">
<title>E4</title>
<polygon fill="#d3d3d3" stroke="#000000" points="279.0392,-166.7893 253.0441,-166.7893 253.0441,-149.7893 279.0392,-149.7893 279.0392,-166.7893"/>
<text text-anchor="middle" x="266.0416" y="-155.5893" font-family="Times,serif" font-size="9.00" fill="#000000">E4</text>
</g>
<!-- E3&#45;&gt;E4 -->
<!-- 0 -->
<g id="node10" class="node">
<title>0</title>
<ellipse fill="#eee8aa" stroke="#000000" cx="93.0416" cy="-14.853" rx="14.4914" ry="14.4914"/>
<text text-anchor="middle" x="93.0416" y="-12.153" font-family="Times,serif" font-size="9.00" fill="#000000">0</text>
</g>
<!-- E3&#45;&gt;0 -->
<g id="edge18" class="edge">
<title>E3&#45;&gt;0</title>
<path fill="none" stroke="#ff0000" stroke-width=".3619" d="M192.8323,-152.3797C172.6212,-143.1079 135.3776,-125.0423 126.0416,-113.7893 108.338,-92.4505 100.0063,-61.2408 96.169,-39.6039"/>
<polygon fill="#ff0000" stroke="#ff0000" stroke-width=".3619" points="99.5989,-38.8843 94.5854,-29.5507 92.6842,-39.9736 99.5989,-38.8843"/>
</g>
<!-- 1 -->
<g id="node11" class="node">
<title>1</title>
<ellipse fill="#87cefa" stroke="#000000" cx="140.0416" cy="-14.853" rx="14.4914" ry="14.4914"/>
<text text-anchor="middle" x="140.0416" y="-12.153" font-family="Times,serif" font-size="9.00" fill="#000000">1</text>
</g>
<!-- E3&#45;&gt;1 -->
<g id="edge24" class="edge">
<title>E3&#45;&gt;1</title>
<path fill="none" stroke="#ff0000" stroke-width=".1316" d="M192.9167,-151.6482C174.9001,-142.2277 144.0474,-124.897 138.0416,-113.7893 125.5294,-90.6479 128.7014,-59.7921 133.2711,-38.7306"/>
<polygon fill="#ff0000" stroke="#ff0000" stroke-width=".1316" points="136.6805,-39.5222 135.638,-28.9788 129.878,-37.8711 136.6805,-39.5222"/>
</g>
<!-- E5 -->
<g id="node6" class="node">
<title>E5</title>
<polygon fill="#d3d3d3" stroke="#000000" points="328.0392,-166.7893 302.0441,-166.7893 302.0441,-149.7893 328.0392,-149.7893 328.0392,-166.7893"/>
<text text-anchor="middle" x="315.0416" y="-155.5893" font-family="Times,serif" font-size="9.00" fill="#000000">E5</text>
</g>
<!-- E4&#45;&gt;E5 -->
<!-- E4&#45;&gt;1 -->
<g id="edge17" class="edge">
<title>E4&#45;&gt;1</title>
<path fill="none" stroke="#00ff00" stroke-width=".3695" d="M258.5371,-149.7463C238.5974,-127.0473 183.9425,-64.829 156.3847,-33.4577"/>
<polygon fill="#00ff00" stroke="#00ff00" stroke-width=".3695" points="158.9194,-31.0398 149.6902,-25.8368 153.6603,-35.6596 158.9194,-31.0398"/>
</g>
<!-- E4&#45;&gt;S -->
<g id="edge12" class="edge">
<title>E4&#45;&gt;S</title>
<path fill="none" stroke="#00ff00" stroke-width="1.6786" d="M264.4335,-149.7463C260.4352,-128.5056 249.9231,-72.6603 243.7502,-39.8674"/>
<polygon fill="#00ff00" stroke="#00ff00" stroke-width="1.6786" points="247.1284,-38.8932 241.8389,-29.7133 240.2492,-40.1882 247.1284,-38.8932"/>
</g>
<!-- 3914 -->
<g id="node15" class="node">
<title>3914</title>
<ellipse fill="none" stroke="#000000" cx="318.0416" cy="-89.7477" rx="24.0833" ry="24.0833"/>
<text text-anchor="middle" x="318.0416" y="-87.0477" font-family="Times,serif" font-size="9.00" fill="#000000">3914</text>
</g>
<!-- E4&#45;&gt;3914 -->
<g id="edge23" class="edge">
<title>E4&#45;&gt;3914</title>
<path fill="none" stroke="#ff00ff" stroke-dasharray="5,2" d="M272.6275,-149.6085C278.829,-141.4342 288.4542,-128.7471 297.2502,-117.1531"/>
<polygon fill="#ff00ff" stroke="#ff00ff" points="300.1918,-119.0665 303.4476,-108.9843 294.6151,-114.8356 300.1918,-119.0665"/>
</g>
<!-- E6 -->
<g id="node7" class="node">
<title>E6</title>
<polygon fill="#d3d3d3" stroke="#000000" points="377.0392,-166.7893 351.0441,-166.7893 351.0441,-149.7893 377.0392,-149.7893 377.0392,-166.7893"/>
<text text-anchor="middle" x="364.0416" y="-155.5893" font-family="Times,serif" font-size="9.00" fill="#000000">E6</text>
</g>
<!-- E5&#45;&gt;E6 -->
<!-- E7 -->
<g id="node8" class="node">
<title>E7</title>
<polygon fill="#d3d3d3" stroke="#000000" points="421.0392,-166.7893 395.0441,-166.7893 395.0441,-149.7893 421.0392,-149.7893 421.0392,-166.7893"/>
<text text-anchor="middle" x="408.0416" y="-155.5893" font-family="Times,serif" font-size="9.00" fill="#000000">E7</text>
</g>
<!-- E6&#45;&gt;E7 -->
<!-- 2 -->
<g id="node12" class="node">
<title>2</title>
<ellipse fill="#87cefa" stroke="#000000" cx="192.0416" cy="-14.853" rx="14.4914" ry="14.4914"/>
<text text-anchor="middle" x="192.0416" y="-12.153" font-family="Times,serif" font-size="9.00" fill="#000000">2</text>
</g>
<!-- E6&#45;&gt;2 -->
<g id="edge13" class="edge">
<title>E6&#45;&gt;2</title>
<path fill="none" stroke="#ff0000" stroke-width="3.5221" d="M365.6701,-149.6143C368.5221,-131.5563 372.2639,-89.6234 351.0416,-65.7061 309.5425,-18.9369 272.2329,-54.9783 215.0416,-29.7061 214.2047,-29.3362 213.3636,-28.938 212.5236,-28.5178"/>
<polygon fill="#ff0000" stroke="#ff0000" stroke-width="3.5221" points="214.2195,-25.4553 203.8136,-23.4631 210.7059,-31.5097 214.2195,-25.4553"/>
</g>
<!-- E6&#45;&gt;S -->
<g id="edge21" class="edge">
<title>E6&#45;&gt;S</title>
<path fill="none" stroke="#00ff00" stroke-width=".2791" d="M369.8946,-149.7489C381.0563,-132.3014 402.6833,-91.9988 384.0416,-65.7061 369.8931,-45.7506 301.5997,-28.2883 264.0007,-19.9886"/>
<polygon fill="#00ff00" stroke="#00ff00" stroke-width=".2791" points="264.3575,-16.4853 253.8451,-17.8049 262.8859,-23.3289 264.3575,-16.4853"/>
</g>
<!-- E8 -->
<g id="node9" class="node">
<title>E8</title>
<polygon fill="#d3d3d3" stroke="#000000" points="465.0392,-166.7893 439.0441,-166.7893 439.0441,-149.7893 465.0392,-149.7893 465.0392,-166.7893"/>
<text text-anchor="middle" x="452.0416" y="-155.5893" font-family="Times,serif" font-size="9.00" fill="#000000">E8</text>
</g>
<!-- E7&#45;&gt;E8 -->
<!-- E7&#45;&gt;0 -->
<g id="edge15" class="edge">
<title>E7&#45;&gt;0</title>
<path fill="none" stroke="#00ff00" stroke-width=".6431" d="M405.4776,-149.6522C399.4227,-130.8984 382.3412,-86.4728 351.0416,-65.7061 263.3617,-7.532 215.7619,-66.1245 117.0416,-29.7061 115.9843,-29.316 114.9232,-28.8761 113.8676,-28.3986"/>
<polygon fill="#00ff00" stroke="#00ff00" stroke-width=".6431" points="115.2149,-25.1458 104.7634,-23.409 111.8506,-31.2844 115.2149,-25.1458"/>
</g>
<!-- E7&#45;&gt;3914 -->
<g id="edge16" class="edge">
<title>E7&#45;&gt;3914</title>
<path fill="none" stroke="#ff00ff" stroke-dasharray="5,2" d="M396.6431,-149.6085C383.7981,-139.8261 362.4668,-123.5808 345.265,-110.4803"/>
<polygon fill="#ff00ff" stroke="#ff00ff" points="347.2837,-107.6183 337.2075,-104.3439 343.0425,-113.1872 347.2837,-107.6183"/>
</g>
<!-- 0&#45;&gt;1 -->
<!-- 1&#45;&gt;2 -->
<!-- 2&#45;&gt;S -->
<!-- 4484&#45;&gt;1 -->
<g id="edge20" class="edge">
<title>4484&#45;&gt;1</title>
<path fill="none" stroke="#00ff00" stroke-width=".4023" d="M44.2473,-76.7021C65.1686,-63.1943 97.7106,-42.1838 118.9522,-28.4693"/>
<polygon fill="#00ff00" stroke="#00ff00" stroke-width=".4023" points="121.063,-31.2727 127.5657,-22.9081 117.2661,-25.3919 121.063,-31.2727"/>
</g>
</g>
</svg>
