<?xml version="1.0" encoding="UTF-8" standalone="no"?>
<!DOCTYPE svg PUBLIC "-//W3C//DTD SVG 1.1//EN"
 "http://www.w3.org/Graphics/SVG/1.1/DTD/svg11.dtd">
<!-- Generated by graphviz version 2.40.1 (20161225.0304)
 -->
<!-- Title: %3 Pages: 1 -->
<svg width="485pt" height="182pt"
 viewBox="0.00 0.00 484.77 181.85" xmlns="http://www.w3.org/2000/svg" xmlns:xlink="http://www.w3.org/1999/xlink">
<g id="graph0" class="graph" transform="scale(1 1) rotate(0) translate(4 177.8494)">
<title>%3</title>
<polygon fill="#ffffff" stroke="transparent" points="-4,4 -4,-177.8494 480.7661,-177.8494 480.7661,4 -4,4"/>
<!-- 0 -->
<g id="node1" class="node">
<title>0</title>
<polygon fill="#d3d3d3" stroke="#000000" points="218.389,-173.8494 198.3771,-173.8494 198.3771,-156.8494 218.389,-156.8494 218.389,-173.8494"/>
<text text-anchor="middle" x="208.383" y="-162.6494" font-family="Times,serif" font-size="9.00" fill="#000000">0</text>
</g>
<!-- 1 -->
<g id="node2" class="node">
<title>1</title>
<polygon fill="#d3d3d3" stroke="#000000" points="257.389,-173.8494 237.3771,-173.8494 237.3771,-156.8494 257.389,-156.8494 257.389,-173.8494"/>
<text text-anchor="middle" x="247.383" y="-162.6494" font-family="Times,serif" font-size="9.00" fill="#000000">1</text>
</g>
<!-- 0&#45;&gt;1 -->
<!-- E0 -->
<g id="node4" class="node">
<title>E0</title>
<ellipse fill="#ffa07a" stroke="#000000" cx="18.383" cy="-18.383" rx="18.2668" ry="18.2668"/>
<text text-anchor="middle" x="18.383" y="-15.683" font-family="Times,serif" font-size="9.00" fill="#000000">E0</text>
</g>
<!-- 0&#45;&gt;E0 -->
<g id="edge15" class="edge">
<title>0&#45;&gt;E0</title>
<path fill="none" stroke="#ff0000" stroke-width=".2096" d="M198.0858,-163.0937C177.4915,-158.1962 130.4559,-145.0377 98.383,-120.8494 70.3514,-99.7088 46.8462,-66.4233 32.7177,-43.56"/>
<polygon fill="#ff0000" stroke="#ff0000" stroke-width=".2096" points="35.579,-41.5267 27.4245,-34.7625 29.581,-45.1355 35.579,-41.5267"/>
</g>
<!-- 5507 -->
<g id="node13" class="node">
<title>5507</title>
<ellipse fill="#add8e6" stroke="#000000" cx="339.383" cy="-96.8077" rx="24.0833" ry="24.0833"/>
<text text-anchor="middle" x="339.383" y="-98.6077" font-family="Times,serif" font-size="9.00" fill="#000000">5507</text>
<text text-anchor="middle" x="339.383" y="-89.6077" font-family="Times,serif" font-size="9.00" fill="#000000">sigm</text>
</g>
<!-- 0&#45;&gt;5507 -->
<g id="edge20" class="edge">
<title>0&#45;&gt;5507</title>
<path fill="none" stroke="#00ff00" stroke-width=".1978" d="M218.4061,-161.1064C240.0131,-151.9098 290.322,-130.2152 306.383,-120.8494 308.1282,-119.8317 309.8938,-118.7427 311.6536,-117.6107"/>
<polygon fill="#00ff00" stroke="#00ff00" stroke-width=".1978" points="313.9936,-120.2514 320.2836,-111.7258 310.0498,-114.4681 313.9936,-120.2514"/>
</g>
<!-- 3367 -->
<g id="node14" class="node">
<title>3367</title>
<ellipse fill="#f0e68c" stroke="#000000" cx="273.383" cy="-96.8077" rx="24.0833" ry="24.0833"/>
<text text-anchor="middle" x="273.383" y="-98.6077" font-family="Times,serif" font-size="9.00" fill="#000000">3367</text>
<text text-anchor="middle" x="273.383" y="-89.6077" font-family="Times,serif" font-size="9.00" fill="#000000">soft</text>
</g>
<!-- 0&#45;&gt;3367 -->
<g id="edge13" class="edge">
<title>0&#45;&gt;3367</title>
<path fill="none" stroke="#00ff00" stroke-width="1.0931" d="M216.6153,-156.6685C224.9326,-147.8981 238.1762,-133.9329 249.7803,-121.6965"/>
<polygon fill="#00ff00" stroke="#00ff00" stroke-width="1.0931" points="252.3934,-124.0274 256.7349,-114.3629 247.3142,-119.2106 252.3934,-124.0274"/>
</g>
<!-- 2 -->
<g id="node3" class="node">
<title>2</title>
<polygon fill="#d3d3d3" stroke="#000000" points="296.389,-173.8494 276.3771,-173.8494 276.3771,-156.8494 296.389,-156.8494 296.389,-173.8494"/>
<text text-anchor="middle" x="286.383" y="-162.6494" font-family="Times,serif" font-size="9.00" fill="#000000">2</text>
</g>
<!-- 1&#45;&gt;2 -->
<!-- E3 -->
<g id="node7" class="node">
<title>E3</title>
<ellipse fill="#ffa07a" stroke="#000000" cx="183.383" cy="-18.383" rx="18.2668" ry="18.2668"/>
<text text-anchor="middle" x="183.383" y="-15.683" font-family="Times,serif" font-size="9.00" fill="#000000">E3</text>
</g>
<!-- 1&#45;&gt;E3 -->
<g id="edge16" class="edge">
<title>1&#45;&gt;E3</title>
<path fill="none" stroke="#ff0000" stroke-width=".3293" d="M237.2739,-156.8597C228.0956,-148.597 214.8827,-135.2149 207.383,-120.8494 195.231,-97.572 189.1592,-68.1361 186.1707,-46.7928"/>
<polygon fill="#ff0000" stroke="#ff0000" stroke-width=".3293" points="189.6265,-46.2215 184.9055,-36.7367 182.6813,-47.0954 189.6265,-46.2215"/>
</g>
<!-- E7 -->
<g id="node11" class="node">
<title>E7</title>
<ellipse fill="#eee8aa" stroke="#000000" cx="403.383" cy="-18.383" rx="18.2668" ry="18.2668"/>
<text text-anchor="middle" x="403.383" y="-15.683" font-family="Times,serif" font-size="9.00" fill="#000000">E7</text>
</g>
<!-- 1&#45;&gt;E7 -->
<g id="edge12" class="edge">
<title>1&#45;&gt;E7</title>
<path fill="none" stroke="#00ff00" stroke-width="2.2432" d="M257.5003,-160.8834C260.6475,-159.5391 264.1421,-158.0918 267.383,-156.8494 313.4474,-139.1899 338.1418,-156.3643 372.383,-120.8494 391.5374,-100.9826 398.901,-69.6902 401.7077,-46.91"/>
<polygon fill="#00ff00" stroke="#00ff00" stroke-width="2.2432" points="405.2055,-47.1073 402.7271,-36.8064 398.2409,-46.4046 405.2055,-47.1073"/>
</g>
<!-- 5278 -->
<g id="node15" class="node">
<title>5278</title>
<ellipse fill="#add8e6" stroke="#000000" cx="131.383" cy="-96.8077" rx="24.0833" ry="24.0833"/>
<text text-anchor="middle" x="131.383" y="-98.6077" font-family="Times,serif" font-size="9.00" fill="#000000">5278</text>
<text text-anchor="middle" x="131.383" y="-89.6077" font-family="Times,serif" font-size="9.00" fill="#000000">sigm</text>
</g>
<!-- 1&#45;&gt;5278 -->
<g id="edge17" class="edge">
<title>1&#45;&gt;5278</title>
<path fill="none" stroke="#00ff00" stroke-width=".3031" d="M237.2005,-159.735C222.2255,-151.4344 193.4344,-135.3082 169.383,-120.8494 166.4161,-119.0657 163.3369,-117.1787 160.2732,-115.2775"/>
<polygon fill="#00ff00" stroke="#00ff00" stroke-width=".3031" points="162.1184,-112.3034 151.7868,-109.9565 158.3998,-118.234 162.1184,-112.3034"/>
</g>
<!-- 2&#45;&gt;E3 -->
<g id="edge11" class="edge">
<title>2&#45;&gt;E3</title>
<path fill="none" stroke="#00ff00" stroke-width="2.4879" d="M276.0214,-156.9003C266.0913,-148.4615 251.0749,-134.7742 240.383,-120.8494 221.8917,-96.7666 205.5982,-65.9627 195.2186,-44.4451"/>
<polygon fill="#00ff00" stroke="#00ff00" stroke-width="2.4879" points="198.3186,-42.8132 190.8792,-35.2696 191.9906,-45.806 198.3186,-42.8132"/>
</g>
<!-- E6 -->
<g id="node10" class="node">
<title>E6</title>
<ellipse fill="#ffa07a" stroke="#000000" cx="348.383" cy="-18.383" rx="18.2668" ry="18.2668"/>
<text text-anchor="middle" x="348.383" y="-15.683" font-family="Times,serif" font-size="9.00" fill="#000000">E6</text>
</g>
<!-- 2&#45;&gt;E6 -->
<g id="edge18" class="edge">
<title>2&#45;&gt;E6</title>
<path fill="none" stroke="#00ff00" stroke-width=".288" d="M296.6746,-163.5662C315.6188,-159.6673 355.6046,-148.4227 372.383,-120.8494 387.0268,-96.7841 375.3255,-64.5382 363.7014,-42.6951"/>
<polygon fill="#00ff00" stroke="#00ff00" stroke-width=".288" points="366.6046,-40.7189 358.6317,-33.7416 360.5134,-44.168 366.6046,-40.7189"/>
</g>
<!-- E1 -->
<g id="node5" class="node">
<title>E1</title>
<ellipse fill="#87cefa" stroke="#000000" cx="73.383" cy="-18.383" rx="18.2668" ry="18.2668"/>
<text text-anchor="middle" x="73.383" y="-15.683" font-family="Times,serif" font-size="9.00" fill="#000000">E1</text>
</g>
<!-- E0&#45;&gt;E1 -->
<!-- E2 -->
<g id="node6" class="node">
<title>E2</title>
<ellipse fill="#87cefa" stroke="#000000" cx="128.383" cy="-18.383" rx="18.2668" ry="18.2668"/>
<text text-anchor="middle" x="128.383" y="-15.683" font-family="Times,serif" font-size="9.00" fill="#000000">E2</text>
</g>
<!-- E1&#45;&gt;E2 -->
<!-- E2&#45;&gt;E3 -->
<!-- E4 -->
<g id="node8" class="node">
<title>E4</title>
<ellipse fill="#eee8aa" stroke="#000000" cx="238.383" cy="-18.383" rx="18.2668" ry="18.2668"/>
<text text-anchor="middle" x="238.383" y="-15.683" font-family="Times,serif" font-size="9.00" fill="#000000">E4</text>
</g>
<!-- E3&#45;&gt;E4 -->
<!-- E5 -->
<g id="node9" class="node">
<title>E5</title>
<ellipse fill="#ffa07a" stroke="#000000" cx="293.383" cy="-18.383" rx="18.2668" ry="18.2668"/>
<text text-anchor="middle" x="293.383" y="-15.683" font-family="Times,serif" font-size="9.00" fill="#000000">E5</text>
</g>
<!-- E4&#45;&gt;E5 -->
<!-- E5&#45;&gt;E6 -->
<!-- E6&#45;&gt;E7 -->
<!-- E8 -->
<g id="node12" class="node">
<title>E8</title>
<ellipse fill="#ffa07a" stroke="#000000" cx="458.383" cy="-18.383" rx="18.2668" ry="18.2668"/>
<text text-anchor="middle" x="458.383" y="-15.683" font-family="Times,serif" font-size="9.00" fill="#000000">E8</text>
</g>
<!-- E7&#45;&gt;E8 -->
<!-- 5507&#45;&gt;E8 -->
<g id="edge21" class="edge">
<title>5507&#45;&gt;E8</title>
<path fill="none" stroke="#00ff00" stroke-width=".524" d="M359.5698,-83.5041C380.3179,-69.8304 412.6099,-48.5489 434.588,-34.0647"/>
<polygon fill="#00ff00" stroke="#00ff00" stroke-width=".524" points="436.6039,-36.9279 443.0277,-28.5027 432.7519,-31.0831 436.6039,-36.9279"/>
</g>
<!-- 3367&#45;&gt;E5 -->
<g id="edge14" class="edge">
<title>3367&#45;&gt;E5</title>
<path fill="none" stroke="#00ff00" stroke-width="3.0923" d="M279.3837,-73.2777C281.5505,-64.7814 284.0171,-55.1091 286.27,-46.2751"/>
<polygon fill="#00ff00" stroke="#00ff00" stroke-width="3.0923" points="289.7059,-46.9654 288.7856,-36.4106 282.923,-45.2356 289.7059,-46.9654"/>
</g>
<!-- 3367&#45;&gt;E8 -->
<g id="edge22" class="edge">
<title>3367&#45;&gt;E8</title>
<path fill="none" stroke="#00ff00" stroke-width=".4566" d="M292.2113,-81.3838C296.6733,-78.2216 301.5466,-75.1388 306.383,-72.7661 357.9038,-47.4907 378.2626,-60.7805 430.383,-36.7661 431.7694,-36.1273 433.1659,-35.4263 434.5558,-34.6824"/>
<polygon fill="#00ff00" stroke="#00ff00" stroke-width=".4566" points="436.6709,-37.4957 443.4567,-29.3591 433.078,-31.4881 436.6709,-37.4957"/>
</g>
<!-- 5278&#45;&gt;E3 -->
<g id="edge19" class="edge">
<title>5278&#45;&gt;E3</title>
<path fill="none" stroke="#ff0000" stroke-width=".3721" d="M144.7743,-76.6114C151.6391,-66.2582 160.0512,-53.5713 167.269,-42.6857"/>
<polygon fill="#ff0000" stroke="#ff0000" stroke-width=".3721" points="170.3817,-44.3247 172.9909,-34.0561 164.5477,-40.4564 170.3817,-44.3247"/>
</g>
</g>
</svg>
