<?xml version="1.0" encoding="UTF-8" standalone="no"?>
<!DOCTYPE svg PUBLIC "-//W3C//DTD SVG 1.1//EN"
 "http://www.w3.org/Graphics/SVG/1.1/DTD/svg11.dtd">
<!-- Generated by graphviz version 2.40.1 (20161225.0304)
 -->
<!-- Title: %3 Pages: 1 -->
<svg width="389pt" height="175pt"
 viewBox="0.00 0.00 389.00 174.79" xmlns="http://www.w3.org/2000/svg" xmlns:xlink="http://www.w3.org/1999/xlink">
<g id="graph0" class="graph" transform="scale(1 1) rotate(0) translate(4 170.7893)">
<title>%3</title>
<polygon fill="#ffffff" stroke="transparent" points="-4,4 -4,-170.7893 384.9976,-170.7893 384.9976,4 -4,4"/>
<!-- E0 -->
<g id="node1" class="node">
<title>E0</title>
<polygon fill="#d3d3d3" stroke="#000000" points="25.9963,-166.7893 .0012,-166.7893 .0012,-149.7893 25.9963,-149.7893 25.9963,-166.7893"/>
<text text-anchor="middle" x="12.9988" y="-155.5893" font-family="Times,serif" font-size="9.00" fill="#000000">E0</text>
</g>
<!-- E1 -->
<g id="node2" class="node">
<title>E1</title>
<polygon fill="#d3d3d3" stroke="#000000" points="71.9963,-166.7893 46.0012,-166.7893 46.0012,-149.7893 71.9963,-149.7893 71.9963,-166.7893"/>
<text text-anchor="middle" x="58.9988" y="-155.5893" font-family="Times,serif" font-size="9.00" fill="#000000">E1</text>
</g>
<!-- E0&#45;&gt;E1 -->
<!-- 1 -->
<g id="node11" class="node">
<title>1</title>
<ellipse fill="#eee8aa" stroke="#000000" cx="109.9988" cy="-14.853" rx="14.4914" ry="14.4914"/>
<text text-anchor="middle" x="109.9988" y="-12.153" font-family="Times,serif" font-size="9.00" fill="#000000">1</text>
</g>
<!-- E0&#45;&gt;1 -->
<g id="edge19" class="edge">
<title>E0&#45;&gt;1</title>
<path fill="none" stroke="#00ff00" stroke-width=".3984" d="M12.0394,-149.7893C10.5262,-132.4161 9.3645,-92.2434 26.9988,-65.7061 43.9999,-40.1216 59.8273,-45.7889 85.9988,-29.7061 86.8024,-29.2122 87.6209,-28.7087 88.4475,-28.1996"/>
<polygon fill="#00ff00" stroke="#00ff00" stroke-width=".3984" points="90.6341,-30.9629 97.3034,-22.7306 86.956,-25.0071 90.6341,-30.9629"/>
</g>
<!-- E2 -->
<g id="node3" class="node">
<title>E2</title>
<polygon fill="#d3d3d3" stroke="#000000" points="116.9963,-166.7893 91.0012,-166.7893 91.0012,-149.7893 116.9963,-149.7893 116.9963,-166.7893"/>
<text text-anchor="middle" x="103.9988" y="-155.5893" font-family="Times,serif" font-size="9.00" fill="#000000">E2</text>
</g>
<!-- E1&#45;&gt;E2 -->
<!-- E3 -->
<g id="node4" class="node">
<title>E3</title>
<polygon fill="#d3d3d3" stroke="#000000" points="160.9963,-166.7893 135.0012,-166.7893 135.0012,-149.7893 160.9963,-149.7893 160.9963,-166.7893"/>
<text text-anchor="middle" x="147.9988" y="-155.5893" font-family="Times,serif" font-size="9.00" fill="#000000">E3</text>
</g>
<!-- E2&#45;&gt;E3 -->
<!-- S -->
<g id="node13" class="node">
<title>S</title>
<ellipse fill="#87cefa" stroke="#000000" cx="217.9988" cy="-14.853" rx="14.7075" ry="14.7075"/>
<text text-anchor="middle" x="217.9988" y="-12.153" font-family="Times,serif" font-size="9.00" fill="#000000">S</text>
</g>
<!-- E2&#45;&gt;S -->
<g id="edge16" class="edge">
<title>E2&#45;&gt;S</title>
<path fill="none" stroke="#ff0000" stroke-width=".2057" d="M110.7886,-149.7463C128.5773,-127.3644 176.9035,-66.5597 202.153,-34.7904"/>
<polygon fill="#ff0000" stroke="#ff0000" stroke-width=".2057" points="205.1362,-36.6621 208.6182,-26.6558 199.6562,-32.3067 205.1362,-36.6621"/>
</g>
<!-- E4 -->
<g id="node5" class="node">
<title>E4</title>
<polygon fill="#d3d3d3" stroke="#000000" points="204.9963,-166.7893 179.0012,-166.7893 179.0012,-149.7893 204.9963,-149.7893 204.9963,-166.7893"/>
<text text-anchor="middle" x="191.9988" y="-155.5893" font-family="Times,serif" font-size="9.00" fill="#000000">E4</text>
</g>
<!-- E3&#45;&gt;E4 -->
<!-- 2 -->
<g id="node12" class="node">
<title>2</title>
<ellipse fill="#87cefa" stroke="#000000" cx="156.9988" cy="-14.853" rx="14.4914" ry="14.4914"/>
<text text-anchor="middle" x="156.9988" y="-12.153" font-family="Times,serif" font-size="9.00" fill="#000000">2</text>
</g>
<!-- E3&#45;&gt;2 -->
<g id="edge13" class="edge">
<title>E3&#45;&gt;2</title>
<path fill="none" stroke="#00ff00" stroke-width=".3191" d="M148.5348,-149.7463C149.8676,-128.5056 153.3716,-72.6603 155.4292,-39.8674"/>
<polygon fill="#00ff00" stroke="#00ff00" stroke-width=".3191" points="158.9332,-39.9129 156.0664,-29.7133 151.9469,-39.4745 158.9332,-39.9129"/>
</g>
<!-- E3&#45;&gt;S -->
<g id="edge20" class="edge">
<title>E3&#45;&gt;S</title>
<path fill="none" stroke="#00ff00" stroke-width=".4055" d="M161.0036,-151.3215C173.6497,-143.8162 192.3251,-130.6481 201.9988,-113.7893 214.9775,-91.1708 218.2435,-61.1258 218.7209,-40.1025"/>
<polygon fill="#00ff00" stroke="#00ff00" stroke-width=".4055" points="222.221,-40.0292 218.753,-30.0181 215.2211,-40.0069 222.221,-40.0292"/>
</g>
<!-- E5 -->
<g id="node6" class="node">
<title>E5</title>
<polygon fill="#d3d3d3" stroke="#000000" points="248.9963,-166.7893 223.0012,-166.7893 223.0012,-149.7893 248.9963,-149.7893 248.9963,-166.7893"/>
<text text-anchor="middle" x="235.9988" y="-155.5893" font-family="Times,serif" font-size="9.00" fill="#000000">E5</text>
</g>
<!-- E4&#45;&gt;E5 -->
<!-- E4&#45;&gt;S -->
<g id="edge14" class="edge">
<title>E4&#45;&gt;S</title>
<path fill="none" stroke="#ff0000" stroke-width="1.1347" d="M205.0028,-150.6608C216.6336,-143.0065 232.9064,-130.0359 239.9988,-113.7893 250.9989,-88.5913 240.3747,-57.2949 230.4257,-36.732"/>
<polygon fill="#ff0000" stroke="#ff0000" stroke-width="1.1347" points="233.5326,-35.1202 225.8382,-27.8369 227.3112,-38.3288 233.5326,-35.1202"/>
</g>
<!-- 5320 -->
<g id="node14" class="node">
<title>5320</title>
<ellipse fill="#f0e68c" stroke="#000000" cx="59.9988" cy="-89.7477" rx="24.0833" ry="24.0833"/>
<text text-anchor="middle" x="59.9988" y="-91.5477" font-family="Times,serif" font-size="9.00" fill="#000000">5320</text>
<text text-anchor="middle" x="59.9988" y="-82.5477" font-family="Times,serif" font-size="9.00" fill="#000000">soft</text>
</g>
<!-- E4&#45;&gt;5320 -->
<g id="edge17" class="edge">
<title>E4&#45;&gt;5320</title>
<path fill="none" stroke="#00ff00" stroke-width=".3755" d="M178.9788,-152.7291C160.6019,-144.7464 126.1554,-129.2857 97.9988,-113.7893 94.966,-112.1202 91.8437,-110.3079 88.7539,-108.4522"/>
<polygon fill="#00ff00" stroke="#00ff00" stroke-width=".3755" points="90.5808,-105.4669 80.2335,-103.1902 86.9026,-111.4226 90.5808,-105.4669"/>
</g>
<!-- E6 -->
<g id="node7" class="node">
<title>E6</title>
<polygon fill="#d3d3d3" stroke="#000000" points="292.9963,-166.7893 267.0012,-166.7893 267.0012,-149.7893 292.9963,-149.7893 292.9963,-166.7893"/>
<text text-anchor="middle" x="279.9988" y="-155.5893" font-family="Times,serif" font-size="9.00" fill="#000000">E6</text>
</g>
<!-- E5&#45;&gt;E6 -->
<!-- 0 -->
<g id="node10" class="node">
<title>0</title>
<ellipse fill="#ffa07a" stroke="#000000" cx="62.9988" cy="-14.853" rx="14.4914" ry="14.4914"/>
<text text-anchor="middle" x="62.9988" y="-12.153" font-family="Times,serif" font-size="9.00" fill="#000000">0</text>
</g>
<!-- E5&#45;&gt;0 -->
<g id="edge12" class="edge">
<title>E5&#45;&gt;0</title>
<path fill="none" stroke="#00ff00" stroke-width="1.018" d="M225.6949,-149.7463C197.5456,-126.4074 119.0067,-61.2899 82.3289,-30.8799"/>
<polygon fill="#00ff00" stroke="#00ff00" stroke-width="1.018" points="84.2945,-27.963 74.3623,-24.2747 79.8266,-33.3517 84.2945,-27.963"/>
</g>
<!-- E7 -->
<g id="node8" class="node">
<title>E7</title>
<polygon fill="#d3d3d3" stroke="#000000" points="336.9963,-166.7893 311.0012,-166.7893 311.0012,-149.7893 336.9963,-149.7893 336.9963,-166.7893"/>
<text text-anchor="middle" x="323.9988" y="-155.5893" font-family="Times,serif" font-size="9.00" fill="#000000">E7</text>
</g>
<!-- E6&#45;&gt;E7 -->
<!-- E8 -->
<g id="node9" class="node">
<title>E8</title>
<polygon fill="#d3d3d3" stroke="#000000" points="380.9963,-166.7893 355.0012,-166.7893 355.0012,-149.7893 380.9963,-149.7893 380.9963,-166.7893"/>
<text text-anchor="middle" x="367.9988" y="-155.5893" font-family="Times,serif" font-size="9.00" fill="#000000">E8</text>
</g>
<!-- E7&#45;&gt;E8 -->
<!-- E7&#45;&gt;1 -->
<g id="edge15" class="edge">
<title>E7&#45;&gt;1</title>
<path fill="none" stroke="#00ff00" stroke-width=".7872" d="M311.253,-149.7463C275.5506,-125.8163 174.3192,-57.9647 130.5643,-28.6374"/>
<polygon fill="#00ff00" stroke="#00ff00" stroke-width=".7872" points="132.3996,-25.654 122.1442,-22.9936 128.5022,-31.4687 132.3996,-25.654"/>
</g>
<!-- 0&#45;&gt;1 -->
<!-- 1&#45;&gt;2 -->
<!-- 2&#45;&gt;S -->
<!-- 5320&#45;&gt;1 -->
<g id="edge18" class="edge">
<title>5320&#45;&gt;1</title>
<path fill="none" stroke="#ff0000" stroke-width=".2992" d="M73.3979,-69.6773C80.3783,-59.2214 88.9092,-46.443 95.9784,-35.8541"/>
<polygon fill="#ff0000" stroke="#ff0000" stroke-width=".2992" points="99.0973,-37.4859 101.7388,-27.2256 93.2754,-33.5992 99.0973,-37.4859"/>
</g>
</g>
</svg>
