<?xml version="1.0" encoding="utf-8" standalone="no"?>
<!DOCTYPE svg PUBLIC "-//W3C//DTD SVG 1.1//EN"
  "http://www.w3.org/Graphics/SVG/1.1/DTD/svg11.dtd">
<!-- Created with matplotlib (https://matplotlib.org/) -->
<svg height="345.6pt" version="1.1" viewBox="0 0 460.8 345.6" width="460.8pt" xmlns="http://www.w3.org/2000/svg" xmlns:xlink="http://www.w3.org/1999/xlink">
 <defs>
  <style type="text/css">
*{stroke-linecap:butt;stroke-linejoin:round;}
  </style>
 </defs>
 <g id="figure_1">
  <g id="patch_1">
   <path d="M 0 345.6 
L 460.8 345.6 
L 460.8 0 
L 0 0 
z
" style="fill:#ffffff;"/>
  </g>
  <g id="axes_1">
   <g id="patch_2">
    <path d="M 57.6 307.584 
L 414.72 307.584 
L 414.72 41.472 
L 57.6 41.472 
z
" style="fill:#ffffff;"/>
   </g>
   <g id="PolyCollection_1">
    <path clip-path="url(#p6fe55d1194)" d="M 73.832727 179.921907 
L 73.832727 188.678593 
L 74.918528 191.374986 
L 76.00433 201.564566 
L 77.090131 183.066309 
L 78.175932 170.655619 
L 79.261733 176.614733 
L 80.347534 178.031057 
L 81.433335 157.751257 
L 82.519137 171.325906 
L 83.604938 163.100827 
L 84.690739 160.50187 
L 85.77654 170.031165 
L 86.862341 162.098192 
L 87.948142 140.369159 
L 89.033943 175.82676 
L 90.119745 157.644229 
L 91.205546 144.345144 
L 92.291347 151.225844 
L 93.377148 160.079485 
L 94.462949 167.379169 
L 95.54875 138.635279 
L 96.634552 172.271102 
L 97.720353 159.284539 
L 98.806154 149.733868 
L 99.891955 129.720446 
L 100.977756 154.140123 
L 102.063557 151.339169 
L 103.149358 152.830139 
L 104.23516 164.782769 
L 105.320961 155.128957 
L 106.406762 155.905058 
L 107.492563 144.908919 
L 108.578364 152.547209 
L 109.664165 131.501676 
L 110.749967 133.705007 
L 111.835768 122.459832 
L 112.921569 144.204827 
L 114.00737 142.270666 
L 115.093171 141.638042 
L 116.178972 116.006214 
L 117.264773 143.881049 
L 118.350575 158.241913 
L 119.436376 151.653528 
L 120.522177 158.271047 
L 121.607978 158.661719 
L 122.693779 136.947544 
L 123.77958 126.701974 
L 124.865382 135.783389 
L 125.951183 139.502221 
L 127.036984 148.39649 
L 128.122785 133.659158 
L 129.208586 139.221383 
L 130.294387 151.460225 
L 131.380189 156.536867 
L 132.46599 146.603696 
L 133.551791 160.064339 
L 134.637592 155.585356 
L 135.723393 151.716287 
L 136.809194 134.305728 
L 137.894995 146.326829 
L 138.980797 138.084381 
L 140.066598 157.046023 
L 141.152399 159.870235 
L 142.2382 168.11858 
L 143.324001 165.788036 
L 144.409802 164.041338 
L 145.495604 142.536406 
L 146.581405 173.761013 
L 147.667206 184.235149 
L 148.753007 167.726216 
L 149.838808 156.582596 
L 150.924609 138.202433 
L 152.01041 131.633875 
L 153.096212 149.078787 
L 154.182013 137.49105 
L 155.267814 162.882011 
L 156.353615 139.444078 
L 157.439416 144.177936 
L 158.525217 143.88663 
L 159.611019 147.161319 
L 160.69682 136.987686 
L 161.782621 134.375335 
L 162.868422 165.915363 
L 163.954223 160.299096 
L 165.040024 140.974517 
L 166.125825 140.041099 
L 167.211627 155.506162 
L 168.297428 171.864198 
L 169.383229 146.633168 
L 170.46903 179.797823 
L 171.554831 161.17193 
L 172.640632 173.517934 
L 173.726434 179.200092 
L 174.812235 175.179261 
L 175.898036 159.553422 
L 176.983837 177.4256 
L 178.069638 172.981918 
L 179.155439 180.318439 
L 180.24124 169.402825 
L 181.327042 167.161706 
L 182.412843 171.80936 
L 183.498644 161.489337 
L 184.584445 159.517553 
L 185.670246 155.745786 
L 186.756047 154.051389 
L 187.841849 158.652892 
L 188.92765 160.353841 
L 190.013451 147.515932 
L 191.099252 134.401114 
L 192.185053 153.974828 
L 193.270854 160.174401 
L 194.356656 139.155079 
L 195.442457 141.569487 
L 196.528258 147.077604 
L 197.614059 145.890387 
L 198.69986 152.076192 
L 199.785661 156.871259 
L 200.871462 148.431815 
L 201.957264 152.677252 
L 203.043065 152.128447 
L 204.128866 166.757641 
L 205.214667 163.180962 
L 206.300468 144.234048 
L 207.386269 161.893372 
L 208.472071 118.651044 
L 209.557872 144.831519 
L 210.643673 138.973733 
L 211.729474 136.904224 
L 212.815275 111.536433 
L 213.901076 125.294297 
L 214.986877 134.100261 
L 216.072679 122.952806 
L 217.15848 114.825213 
L 218.244281 114.038569 
L 219.330082 153.43066 
L 220.415883 134.838004 
L 221.501684 148.423025 
L 222.587486 147.102684 
L 223.673287 129.298226 
L 224.759088 111.057689 
L 225.844889 136.797482 
L 226.93069 164.636095 
L 228.016491 138.235946 
L 229.102292 141.638743 
L 230.188094 133.199957 
L 231.273895 138.456265 
L 232.359696 139.407074 
L 233.445497 138.485342 
L 234.531298 139.378472 
L 235.617099 119.21507 
L 236.702901 136.55048 
L 237.788702 150.303932 
L 238.874503 135.467619 
L 239.960304 128.712652 
L 241.046105 137.182669 
L 242.131906 138.739525 
L 243.217708 130.816196 
L 244.303509 124.31898 
L 245.38931 134.669764 
L 246.475111 133.039807 
L 247.560912 141.476818 
L 248.646713 138.387687 
L 249.732514 139.120805 
L 250.818316 130.363235 
L 251.904117 122.672482 
L 252.989918 131.035574 
L 254.075719 148.241914 
L 255.16152 127.848558 
L 256.247321 128.861714 
L 257.333123 132.507979 
L 258.418924 124.551347 
L 259.504725 121.501361 
L 260.590526 130.433574 
L 261.676327 141.25638 
L 262.762128 135.470756 
L 263.847929 123.396704 
L 264.933731 116.820417 
L 266.019532 106.630366 
L 267.105333 92.283184 
L 268.191134 122.254466 
L 269.276935 121.790386 
L 270.362736 124.061218 
L 271.448538 121.323784 
L 272.534339 131.781977 
L 273.62014 122.993573 
L 274.705941 119.463611 
L 275.791742 116.913892 
L 276.877543 127.575475 
L 277.963344 121.84288 
L 279.049146 141.418532 
L 280.134947 134.337136 
L 281.220748 131.494367 
L 282.306549 135.032512 
L 283.39235 126.898696 
L 284.478151 127.047202 
L 285.563953 124.315215 
L 286.649754 129.938783 
L 287.735555 130.770394 
L 288.821356 112.307055 
L 289.907157 114.972446 
L 290.992958 139.158611 
L 292.07876 120.041525 
L 293.164561 135.062633 
L 294.250362 139.00047 
L 295.336163 153.533366 
L 296.421964 136.204298 
L 297.507765 128.039627 
L 298.593566 127.722616 
L 299.679368 128.68971 
L 300.765169 131.696882 
L 301.85097 128.290517 
L 302.936771 119.352889 
L 304.022572 111.8336 
L 305.108373 117.879067 
L 306.194175 128.904491 
L 307.279976 138.527881 
L 308.365777 142.880315 
L 309.451578 122.07194 
L 310.537379 135.777432 
L 311.62318 132.407446 
L 312.708981 125.382529 
L 313.794783 150.316444 
L 314.880584 119.546338 
L 315.966385 140.23721 
L 317.052186 123.489695 
L 318.137987 145.581437 
L 319.223788 137.837063 
L 320.30959 140.932198 
L 321.395391 132.03369 
L 322.481192 127.697101 
L 323.566993 118.447115 
L 324.652794 138.509178 
L 325.738595 125.150365 
L 326.824396 106.254581 
L 327.910198 133.702978 
L 328.995999 153.040223 
L 330.0818 130.099418 
L 331.167601 144.005729 
L 332.253402 148.450071 
L 333.339203 135.800262 
L 334.425005 135.778424 
L 335.510806 144.799612 
L 336.596607 160.37412 
L 337.682408 132.114038 
L 338.768209 171.573564 
L 339.85401 144.371668 
L 340.939811 159.287235 
L 342.025613 140.369227 
L 343.111414 147.269651 
L 344.197215 128.874719 
L 345.283016 160.215305 
L 346.368817 135.892154 
L 347.454618 134.359588 
L 348.54042 148.187791 
L 349.626221 148.077007 
L 350.712022 135.915568 
L 351.797823 138.607942 
L 352.883624 138.547429 
L 353.969425 144.209157 
L 355.055227 139.958108 
L 356.141028 141.21409 
L 357.226829 153.958968 
L 358.31263 132.279151 
L 359.398431 151.627931 
L 360.484232 135.283007 
L 361.570033 145.889438 
L 362.655835 142.918488 
L 363.741636 138.187695 
L 364.827437 135.641059 
L 365.913238 142.390734 
L 366.999039 149.120106 
L 368.08484 138.229115 
L 369.170642 146.932086 
L 370.256443 139.373332 
L 371.342244 126.245193 
L 372.428045 140.294141 
L 373.513846 122.318418 
L 374.599647 113.317956 
L 375.685448 129.475361 
L 376.77125 139.531525 
L 377.857051 132.478095 
L 378.942852 126.438664 
L 380.028653 124.180967 
L 381.114454 119.464624 
L 382.200255 132.620112 
L 383.286057 148.521868 
L 384.371858 136.450658 
L 385.457659 127.26302 
L 386.54346 127.900431 
L 387.629261 135.029985 
L 388.715062 141.032083 
L 389.800863 150.523359 
L 390.886665 146.066891 
L 391.972466 135.802651 
L 393.058267 132.347537 
L 394.144068 146.767499 
L 395.229869 135.892031 
L 396.31567 125.457006 
L 397.401472 134.82481 
L 398.487273 125.087253 
L 398.487273 67.563813 
L 398.487273 67.563813 
L 397.401472 72.306627 
L 396.31567 67.297491 
L 395.229869 75.350797 
L 394.144068 80.610599 
L 393.058267 76.930098 
L 391.972466 84.95585 
L 390.886665 88.176455 
L 389.800863 83.0994 
L 388.715062 80.657298 
L 387.629261 81.229257 
L 386.54346 76.050496 
L 385.457659 76.157822 
L 384.371858 61.578831 
L 383.286057 82.670256 
L 382.200255 75.778357 
L 381.114454 73.147656 
L 380.028653 77.210038 
L 378.942852 68.785254 
L 377.857051 65.564324 
L 376.77125 66.488027 
L 375.685448 60.628712 
L 374.599647 53.617524 
L 373.513846 54.41717 
L 372.428045 67.690604 
L 371.342244 57.743509 
L 370.256443 65.081823 
L 369.170642 53.568 
L 368.08484 71.785467 
L 366.999039 64.997803 
L 365.913238 62.154923 
L 364.827437 72.409226 
L 363.741636 66.38382 
L 362.655835 61.225197 
L 361.570033 64.004176 
L 360.484232 66.588326 
L 359.398431 66.76458 
L 358.31263 63.846003 
L 357.226829 63.916387 
L 356.141028 73.834276 
L 355.055227 73.967141 
L 353.969425 55.324525 
L 352.883624 68.172818 
L 351.797823 68.058055 
L 350.712022 79.238952 
L 349.626221 63.26976 
L 348.54042 68.938328 
L 347.454618 64.096819 
L 346.368817 69.930776 
L 345.283016 68.158319 
L 344.197215 66.22558 
L 343.111414 69.18914 
L 342.025613 74.88156 
L 340.939811 72.730503 
L 339.85401 78.920563 
L 338.768209 79.00129 
L 337.682408 70.108967 
L 336.596607 86.450072 
L 335.510806 96.600515 
L 334.425005 90.834663 
L 333.339203 79.476383 
L 332.253402 91.552063 
L 331.167601 81.274559 
L 330.0818 68.226205 
L 328.995999 67.666561 
L 327.910198 80.899859 
L 326.824396 70.351717 
L 325.738595 70.828426 
L 324.652794 67.807738 
L 323.566993 58.311829 
L 322.481192 88.968186 
L 321.395391 69.103109 
L 320.30959 75.055537 
L 319.223788 62.232059 
L 318.137987 76.793176 
L 317.052186 65.833592 
L 315.966385 68.458625 
L 314.880584 70.224271 
L 313.794783 61.249607 
L 312.708981 63.881165 
L 311.62318 64.984479 
L 310.537379 69.071466 
L 309.451578 67.575703 
L 308.365777 72.350884 
L 307.279976 74.925789 
L 306.194175 79.901435 
L 305.108373 66.937084 
L 304.022572 74.570375 
L 302.936771 74.526423 
L 301.85097 61.373973 
L 300.765169 58.636967 
L 299.679368 63.400059 
L 298.593566 66.971217 
L 297.507765 68.712383 
L 296.421964 80.248878 
L 295.336163 66.656263 
L 294.250362 87.226956 
L 293.164561 84.530437 
L 292.07876 64.761697 
L 290.992958 61.379086 
L 289.907157 63.130601 
L 288.821356 64.118239 
L 287.735555 74.900077 
L 286.649754 69.970134 
L 285.563953 69.939036 
L 284.478151 58.943781 
L 283.39235 65.765299 
L 282.306549 68.716673 
L 281.220748 68.060733 
L 280.134947 61.761899 
L 279.049146 74.273887 
L 277.963344 67.658911 
L 276.877543 69.846356 
L 275.791742 66.73789 
L 274.705941 65.327451 
L 273.62014 65.235809 
L 272.534339 67.617977 
L 271.448538 74.78831 
L 270.362736 72.067723 
L 269.276935 68.50762 
L 268.191134 62.728609 
L 267.105333 65.821855 
L 266.019532 65.086587 
L 264.933731 68.823184 
L 263.847929 63.410498 
L 262.762128 67.057992 
L 261.676327 59.47525 
L 260.590526 62.346782 
L 259.504725 57.496785 
L 258.418924 63.393599 
L 257.333123 64.771634 
L 256.247321 66.892289 
L 255.16152 58.790569 
L 254.075719 60.298773 
L 252.989918 65.287301 
L 251.904117 66.035269 
L 250.818316 69.760737 
L 249.732514 67.260756 
L 248.646713 63.365327 
L 247.560912 74.226482 
L 246.475111 59.71469 
L 245.38931 56.11954 
L 244.303509 61.621986 
L 243.217708 57.852769 
L 242.131906 66.232786 
L 241.046105 74.176519 
L 239.960304 65.735532 
L 238.874503 59.991501 
L 237.788702 66.115681 
L 236.702901 67.633167 
L 235.617099 59.697667 
L 234.531298 62.130556 
L 233.445497 62.445707 
L 232.359696 61.154688 
L 231.273895 72.424554 
L 230.188094 74.939935 
L 229.102292 73.21373 
L 228.016491 53.665244 
L 226.93069 68.63195 
L 225.844889 64.877958 
L 224.759088 63.61071 
L 223.673287 56.552238 
L 222.587486 65.71747 
L 221.501684 67.577639 
L 220.415883 67.483882 
L 219.330082 65.802229 
L 218.244281 64.545852 
L 217.15848 76.300243 
L 216.072679 68.379512 
L 214.986877 71.078911 
L 213.901076 63.736676 
L 212.815275 77.895337 
L 211.729474 70.977089 
L 210.643673 78.542878 
L 209.557872 69.889184 
L 208.472071 68.930612 
L 207.386269 72.750769 
L 206.300468 67.746112 
L 205.214667 73.607329 
L 204.128866 81.91436 
L 203.043065 64.221298 
L 201.957264 69.11556 
L 200.871462 74.821964 
L 199.785661 78.083176 
L 198.69986 69.238252 
L 197.614059 61.809922 
L 196.528258 65.600332 
L 195.442457 64.708642 
L 194.356656 61.951489 
L 193.270854 74.896394 
L 192.185053 66.357018 
L 191.099252 62.102765 
L 190.013451 70.268921 
L 188.92765 75.867627 
L 187.841849 71.026551 
L 186.756047 72.538046 
L 185.670246 67.805357 
L 184.584445 70.239464 
L 183.498644 72.728151 
L 182.412843 68.484712 
L 181.327042 76.015511 
L 180.24124 69.378565 
L 179.155439 76.240192 
L 178.069638 80.835786 
L 176.983837 73.599461 
L 175.898036 62.666044 
L 174.812235 81.14665 
L 173.726434 77.423184 
L 172.640632 77.649345 
L 171.554831 71.390659 
L 170.46903 77.691689 
L 169.383229 73.776252 
L 168.297428 79.380654 
L 167.211627 68.30356 
L 166.125825 68.383229 
L 165.040024 63.260846 
L 163.954223 69.289844 
L 162.868422 79.058972 
L 161.782621 54.384132 
L 160.69682 72.328735 
L 159.611019 78.949747 
L 158.525217 73.031987 
L 157.439416 64.711832 
L 156.353615 61.571989 
L 155.267814 74.425484 
L 154.182013 72.678679 
L 153.096212 68.537991 
L 152.01041 65.232014 
L 150.924609 72.04487 
L 149.838808 70.873076 
L 148.753007 72.800576 
L 147.667206 77.714835 
L 146.581405 78.402444 
L 145.495604 59.79188 
L 144.409802 77.442193 
L 143.324001 73.746887 
L 142.2382 72.097919 
L 141.152399 77.250879 
L 140.066598 79.136658 
L 138.980797 64.753354 
L 137.894995 81.723573 
L 136.809194 62.74859 
L 135.723393 73.727439 
L 134.637592 68.696462 
L 133.551791 67.011824 
L 132.46599 64.213393 
L 131.380189 70.94414 
L 130.294387 68.90452 
L 129.208586 70.966652 
L 128.122785 66.74925 
L 127.036984 67.513544 
L 125.951183 75.580491 
L 124.865382 65.839813 
L 123.77958 62.031505 
L 122.693779 69.059079 
L 121.607978 71.289231 
L 120.522177 92.2014 
L 119.436376 81.025677 
L 118.350575 74.757314 
L 117.264773 80.678549 
L 116.178972 55.395113 
L 115.093171 82.779338 
L 114.00737 85.055716 
L 112.921569 76.036517 
L 111.835768 70.501528 
L 110.749967 63.264312 
L 109.664165 61.5114 
L 108.578364 71.508162 
L 107.492563 69.798855 
L 106.406762 59.358658 
L 105.320961 74.770278 
L 104.23516 70.71468 
L 103.149358 69.143679 
L 102.063557 75.573489 
L 100.977756 66.088293 
L 99.891955 69.265783 
L 98.806154 64.521394 
L 97.720353 72.877253 
L 96.634552 74.151269 
L 95.54875 74.456383 
L 94.462949 79.456928 
L 93.377148 74.538798 
L 92.291347 70.851404 
L 91.205546 61.596835 
L 90.119745 72.08693 
L 89.033943 77.913371 
L 87.948142 57.233677 
L 86.862341 68.525061 
L 85.77654 65.479213 
L 84.690739 67.108948 
L 83.604938 65.311583 
L 82.519137 78.975136 
L 81.433335 73.932166 
L 80.347534 81.940805 
L 79.261733 83.085622 
L 78.175932 90.350555 
L 77.090131 117.166155 
L 76.00433 149.168191 
L 74.918528 170.954997 
L 73.832727 179.921907 
z
" style="fill:#0000ff;fill-opacity:0.5;"/>
   </g>
   <g id="PolyCollection_2">
    <path clip-path="url(#p6fe55d1194)" d="M 73.832727 188.285179 
L 73.832727 286.009099 
L 74.918528 232.464211 
L 76.00433 243.619729 
L 77.090131 232.411868 
L 78.175932 238.584396 
L 79.261733 229.51355 
L 80.347534 246.316888 
L 81.433335 222.078759 
L 82.519137 230.503911 
L 83.604938 228.695406 
L 84.690739 235.669092 
L 85.77654 248.972077 
L 86.862341 242.658562 
L 87.948142 203.016567 
L 89.033943 210.2244 
L 90.119745 239.919608 
L 91.205546 203.46921 
L 92.291347 222.908582 
L 93.377148 227.882295 
L 94.462949 212.59471 
L 95.54875 199.141246 
L 96.634552 201.423543 
L 97.720353 215.21132 
L 98.806154 227.299919 
L 99.891955 211.083768 
L 100.977756 209.718417 
L 102.063557 187.72777 
L 103.149358 204.223964 
L 104.23516 218.939279 
L 105.320961 201.42358 
L 106.406762 194.006116 
L 107.492563 184.524485 
L 108.578364 191.366353 
L 109.664165 159.560184 
L 110.749967 175.526837 
L 111.835768 173.355549 
L 112.921569 193.416557 
L 114.00737 190.497791 
L 115.093171 150.966871 
L 116.178972 169.497564 
L 117.264773 166.688222 
L 118.350575 188.452374 
L 119.436376 206.641102 
L 120.522177 210.428093 
L 121.607978 205.811032 
L 122.693779 189.215614 
L 123.77958 200.028049 
L 124.865382 191.990895 
L 125.951183 194.523091 
L 127.036984 204.290611 
L 128.122785 200.623134 
L 129.208586 200.651362 
L 130.294387 194.675712 
L 131.380189 212.942018 
L 132.46599 200.501362 
L 133.551791 185.28155 
L 134.637592 180.890464 
L 135.723393 211.347834 
L 136.809194 169.194489 
L 137.894995 191.083832 
L 138.980797 173.150622 
L 140.066598 206.908505 
L 141.152399 206.065344 
L 142.2382 225.125268 
L 143.324001 211.912571 
L 144.409802 215.850002 
L 145.495604 173.057453 
L 146.581405 232.709516 
L 147.667206 225.34521 
L 148.753007 205.950468 
L 149.838808 216.569065 
L 150.924609 197.473179 
L 152.01041 192.59312 
L 153.096212 193.390313 
L 154.182013 192.319843 
L 155.267814 196.679468 
L 156.353615 175.102971 
L 157.439416 183.698058 
L 158.525217 176.865834 
L 159.611019 216.82033 
L 160.69682 191.269082 
L 161.782621 186.77242 
L 162.868422 206.210301 
L 163.954223 198.63188 
L 165.040024 169.080418 
L 166.125825 213.329594 
L 167.211627 222.347517 
L 168.297428 227.56518 
L 169.383229 191.11694 
L 170.46903 217.802537 
L 171.554831 212.392433 
L 172.640632 230.055195 
L 173.726434 214.265159 
L 174.812235 213.593837 
L 175.898036 204.537173 
L 176.983837 201.68249 
L 178.069638 215.497825 
L 179.155439 204.882674 
L 180.24124 193.900605 
L 181.327042 176.962238 
L 182.412843 171.969164 
L 183.498644 162.353133 
L 184.584445 182.37469 
L 185.670246 189.447692 
L 186.756047 203.136511 
L 187.841849 190.763911 
L 188.92765 205.996259 
L 190.013451 201.73178 
L 191.099252 164.286807 
L 192.185053 191.52193 
L 193.270854 169.517796 
L 194.356656 183.926066 
L 195.442457 193.017379 
L 196.528258 178.896689 
L 197.614059 156.065029 
L 198.69986 174.000283 
L 199.785661 209.328761 
L 200.871462 182.807634 
L 201.957264 169.942194 
L 203.043065 183.456825 
L 204.128866 216.092648 
L 205.214667 162.07205 
L 206.300468 188.511995 
L 207.386269 198.642848 
L 208.472071 165.142576 
L 209.557872 187.880498 
L 210.643673 162.980233 
L 211.729474 157.458971 
L 212.815275 171.791413 
L 213.901076 159.498053 
L 214.986877 181.065602 
L 216.072679 159.70304 
L 217.15848 157.231452 
L 218.244281 147.458278 
L 219.330082 206.899038 
L 220.415883 160.107556 
L 221.501684 178.831882 
L 222.587486 143.830019 
L 223.673287 168.62598 
L 224.759088 162.957987 
L 225.844889 195.776234 
L 226.93069 178.196832 
L 228.016491 179.305456 
L 229.102292 155.303821 
L 230.188094 163.801534 
L 231.273895 168.061136 
L 232.359696 200.802155 
L 233.445497 200.016599 
L 234.531298 173.545998 
L 235.617099 178.754862 
L 236.702901 205.751306 
L 237.788702 165.829914 
L 238.874503 178.957535 
L 239.960304 176.736715 
L 241.046105 181.482797 
L 242.131906 182.999198 
L 243.217708 184.955277 
L 244.303509 153.502939 
L 245.38931 171.188716 
L 246.475111 163.653806 
L 247.560912 205.704775 
L 248.646713 166.605569 
L 249.732514 155.162347 
L 250.818316 162.072488 
L 251.904117 167.222066 
L 252.989918 185.576291 
L 254.075719 180.192243 
L 255.16152 165.679805 
L 256.247321 185.164612 
L 257.333123 159.181013 
L 258.418924 138.069132 
L 259.504725 164.462895 
L 260.590526 175.35912 
L 261.676327 197.671783 
L 262.762128 182.643489 
L 263.847929 189.060718 
L 264.933731 167.055214 
L 266.019532 146.458959 
L 267.105333 155.634663 
L 268.191134 145.936819 
L 269.276935 165.46145 
L 270.362736 163.568255 
L 271.448538 151.214149 
L 272.534339 165.155057 
L 273.62014 153.112096 
L 274.705941 154.279949 
L 275.791742 175.988483 
L 276.877543 177.576656 
L 277.963344 172.083273 
L 279.049146 176.154119 
L 280.134947 186.203877 
L 281.220748 177.162749 
L 282.306549 189.347646 
L 283.39235 171.608202 
L 284.478151 164.469547 
L 285.563953 164.699756 
L 286.649754 184.372828 
L 287.735555 185.587931 
L 288.821356 156.994076 
L 289.907157 167.021806 
L 290.992958 172.288225 
L 292.07876 169.278111 
L 293.164561 174.452653 
L 294.250362 161.537694 
L 295.336163 190.02468 
L 296.421964 174.360726 
L 297.507765 171.444763 
L 298.593566 142.738836 
L 299.679368 189.509894 
L 300.765169 168.796323 
L 301.85097 151.673388 
L 302.936771 143.60733 
L 304.022572 157.732727 
L 305.108373 160.146006 
L 306.194175 170.426856 
L 307.279976 161.851553 
L 308.365777 186.928627 
L 309.451578 156.368804 
L 310.537379 188.930486 
L 311.62318 187.520848 
L 312.708981 178.453767 
L 313.794783 169.578302 
L 314.880584 154.296186 
L 315.966385 184.86506 
L 317.052186 170.427178 
L 318.137987 218.281459 
L 319.223788 214.398035 
L 320.30959 203.136681 
L 321.395391 197.276098 
L 322.481192 203.070521 
L 323.566993 151.534435 
L 324.652794 214.1339 
L 325.738595 172.090089 
L 326.824396 162.879713 
L 327.910198 170.600569 
L 328.995999 187.1227 
L 330.0818 180.798681 
L 331.167601 199.060397 
L 332.253402 199.09491 
L 333.339203 179.063465 
L 334.425005 188.477133 
L 335.510806 189.40497 
L 336.596607 193.645311 
L 337.682408 176.158864 
L 338.768209 177.757399 
L 339.85401 166.884105 
L 340.939811 186.105926 
L 342.025613 183.874719 
L 343.111414 172.468802 
L 344.197215 172.899361 
L 345.283016 184.474449 
L 346.368817 166.078434 
L 347.454618 156.133923 
L 348.54042 184.188425 
L 349.626221 160.668814 
L 350.712022 179.923722 
L 351.797823 186.352464 
L 352.883624 178.544608 
L 353.969425 178.770402 
L 355.055227 181.520676 
L 356.141028 180.523596 
L 357.226829 171.283981 
L 358.31263 166.092384 
L 359.398431 157.935964 
L 360.484232 154.236611 
L 361.570033 167.399973 
L 362.655835 140.369488 
L 363.741636 163.507024 
L 364.827437 176.367359 
L 365.913238 165.950439 
L 366.999039 177.282869 
L 368.08484 180.755577 
L 369.170642 163.967567 
L 370.256443 174.721 
L 371.342244 142.557595 
L 372.428045 179.395989 
L 373.513846 153.368188 
L 374.599647 156.761856 
L 375.685448 159.200145 
L 376.77125 176.439575 
L 377.857051 155.237209 
L 378.942852 179.244157 
L 380.028653 172.603473 
L 381.114454 152.812862 
L 382.200255 174.283805 
L 383.286057 195.879186 
L 384.371858 141.754554 
L 385.457659 158.929283 
L 386.54346 184.584292 
L 387.629261 164.939118 
L 388.715062 166.958362 
L 389.800863 177.637484 
L 390.886665 167.878269 
L 391.972466 162.774241 
L 393.058267 158.207831 
L 394.144068 145.802844 
L 395.229869 132.130604 
L 396.31567 172.622012 
L 397.401472 167.583895 
L 398.487273 171.825952 
L 398.487273 84.461172 
L 398.487273 84.461172 
L 397.401472 83.893678 
L 396.31567 88.888389 
L 395.229869 90.886145 
L 394.144068 105.42477 
L 393.058267 102.621648 
L 391.972466 103.21818 
L 390.886665 102.768556 
L 389.800863 107.481093 
L 388.715062 104.145285 
L 387.629261 111.956677 
L 386.54346 101.396211 
L 385.457659 107.916445 
L 384.371858 98.15596 
L 383.286057 120.570431 
L 382.200255 124.892798 
L 381.114454 105.913516 
L 380.028653 117.290179 
L 378.942852 103.779937 
L 377.857051 103.015109 
L 376.77125 95.879389 
L 375.685448 107.869684 
L 374.599647 95.103584 
L 373.513846 94.618581 
L 372.428045 103.636725 
L 371.342244 102.308999 
L 370.256443 108.725439 
L 369.170642 97.870366 
L 368.08484 101.630692 
L 366.999039 98.768238 
L 365.913238 92.655268 
L 364.827437 106.699832 
L 363.741636 97.184546 
L 362.655835 97.61031 
L 361.570033 97.583993 
L 360.484232 111.186938 
L 359.398431 108.280557 
L 358.31263 94.2027 
L 357.226829 91.407259 
L 356.141028 105.275903 
L 355.055227 110.553651 
L 353.969425 91.229979 
L 352.883624 103.061871 
L 351.797823 101.412229 
L 350.712022 110.433435 
L 349.626221 89.350581 
L 348.54042 99.533831 
L 347.454618 89.96593 
L 346.368817 88.390025 
L 345.283016 100.945803 
L 344.197215 96.454236 
L 343.111414 97.86773 
L 342.025613 110.009654 
L 340.939811 91.90281 
L 339.85401 110.632101 
L 338.768209 96.681904 
L 337.682408 102.518305 
L 336.596607 107.108619 
L 335.510806 106.904966 
L 334.425005 128.316241 
L 333.339203 110.735375 
L 332.253402 130.048955 
L 331.167601 111.114393 
L 330.0818 102.387997 
L 328.995999 101.305676 
L 327.910198 124.348875 
L 326.824396 106.388029 
L 325.738595 111.155741 
L 324.652794 103.212121 
L 323.566993 106.723967 
L 322.481192 144.253316 
L 321.395391 113.965453 
L 320.30959 111.416697 
L 319.223788 84.201077 
L 318.137987 105.632444 
L 317.052186 98.091567 
L 315.966385 91.711822 
L 314.880584 93.432005 
L 313.794783 87.74419 
L 312.708981 108.388664 
L 311.62318 95.3481 
L 310.537379 100.652872 
L 309.451578 108.037671 
L 308.365777 100.689538 
L 307.279976 105.778528 
L 306.194175 101.39219 
L 305.108373 106.406667 
L 304.022572 121.205834 
L 302.936771 102.310814 
L 301.85097 98.183762 
L 300.765169 88.128628 
L 299.679368 86.45502 
L 298.593566 101.007253 
L 297.507765 91.212001 
L 296.421964 109.094333 
L 295.336163 96.757416 
L 294.250362 91.3362 
L 293.164561 107.071689 
L 292.07876 87.922656 
L 290.992958 89.437658 
L 289.907157 101.565014 
L 288.821356 104.688711 
L 287.735555 89.049615 
L 286.649754 91.281793 
L 285.563953 100.491073 
L 284.478151 99.876593 
L 283.39235 105.744414 
L 282.306549 94.564233 
L 281.220748 108.472984 
L 280.134947 92.303721 
L 279.049146 109.628142 
L 277.963344 115.474557 
L 276.877543 106.085265 
L 275.791742 95.554746 
L 274.705941 101.222822 
L 273.62014 102.028665 
L 272.534339 100.432258 
L 271.448538 106.167622 
L 270.362736 97.468086 
L 269.276935 105.95249 
L 268.191134 104.109955 
L 267.105333 92.834785 
L 266.019532 104.613508 
L 264.933731 101.074785 
L 263.847929 90.101945 
L 262.762128 84.210858 
L 261.676327 83.059587 
L 260.590526 95.718669 
L 259.504725 94.332436 
L 258.418924 98.419533 
L 257.333123 107.71643 
L 256.247321 104.125691 
L 255.16152 93.839545 
L 254.075719 102.133691 
L 252.989918 105.687825 
L 251.904117 103.502333 
L 250.818316 108.169232 
L 249.732514 100.840342 
L 248.646713 106.911473 
L 247.560912 100.324147 
L 246.475111 96.322366 
L 245.38931 95.932828 
L 244.303509 78.529564 
L 243.217708 96.405299 
L 242.131906 93.258771 
L 241.046105 103.592684 
L 239.960304 97.599157 
L 238.874503 97.007379 
L 237.788702 104.635907 
L 236.702901 110.655215 
L 235.617099 96.667038 
L 234.531298 101.07431 
L 233.445497 85.463987 
L 232.359696 94.340631 
L 231.273895 105.705865 
L 230.188094 103.009717 
L 229.102292 104.956786 
L 228.016491 77.464347 
L 226.93069 89.209148 
L 225.844889 96.237757 
L 224.759088 110.326335 
L 223.673287 99.547115 
L 222.587486 101.467539 
L 221.501684 99.520569 
L 220.415883 107.815581 
L 219.330082 92.743006 
L 218.244281 99.994096 
L 217.15848 93.754822 
L 216.072679 91.248758 
L 214.986877 113.129065 
L 213.901076 86.497665 
L 212.815275 104.716515 
L 211.729474 88.726371 
L 210.643673 91.358937 
L 209.557872 88.239563 
L 208.472071 117.226455 
L 207.386269 87.260083 
L 206.300468 112.64704 
L 205.214667 97.378346 
L 204.128866 111.398252 
L 203.043065 100.472293 
L 201.957264 116.245172 
L 200.871462 107.275642 
L 199.785661 108.84471 
L 198.69986 93.336743 
L 197.614059 99.92904 
L 196.528258 97.912913 
L 195.442457 99.143141 
L 194.356656 97.934428 
L 193.270854 115.212914 
L 192.185053 102.215915 
L 191.099252 91.491781 
L 190.013451 104.176473 
L 188.92765 104.152673 
L 187.841849 100.370915 
L 186.756047 107.357192 
L 185.670246 100.463198 
L 184.584445 109.975453 
L 183.498644 97.872997 
L 182.412843 102.901103 
L 181.327042 100.114562 
L 180.24124 101.733479 
L 179.155439 100.370514 
L 178.069638 97.969526 
L 176.983837 100.562574 
L 175.898036 98.250904 
L 174.812235 96.511998 
L 173.726434 104.597854 
L 172.640632 105.115473 
L 171.554831 109.5218 
L 170.46903 97.897204 
L 169.383229 116.041106 
L 168.297428 103.407904 
L 167.211627 104.850328 
L 166.125825 111.40314 
L 165.040024 103.626413 
L 163.954223 93.037341 
L 162.868422 108.911949 
L 161.782621 106.620654 
L 160.69682 123.741117 
L 159.611019 119.03126 
L 158.525217 103.374237 
L 157.439416 112.349751 
L 156.353615 96.30235 
L 155.267814 104.608856 
L 154.182013 123.759146 
L 153.096212 102.105863 
L 152.01041 117.46962 
L 150.924609 119.846984 
L 149.838808 114.266111 
L 148.753007 115.55004 
L 147.667206 102.231882 
L 146.581405 100.082234 
L 145.495604 102.485117 
L 144.409802 116.838317 
L 143.324001 104.356042 
L 142.2382 98.840351 
L 141.152399 116.917679 
L 140.066598 108.713663 
L 138.980797 106.563673 
L 137.894995 117.263673 
L 136.809194 98.892414 
L 135.723393 104.170902 
L 134.637592 88.12732 
L 133.551791 100.190417 
L 132.46599 95.968791 
L 131.380189 96.43118 
L 130.294387 90.417007 
L 129.208586 94.77586 
L 128.122785 100.54452 
L 127.036984 99.971361 
L 125.951183 109.850931 
L 124.865382 101.703854 
L 123.77958 99.682949 
L 122.693779 114.511963 
L 121.607978 107.570126 
L 120.522177 109.822621 
L 119.436376 107.455455 
L 118.350575 99.545039 
L 117.264773 110.897115 
L 116.178972 88.944378 
L 115.093171 102.381083 
L 114.00737 113.669369 
L 112.921569 102.631252 
L 111.835768 103.721251 
L 110.749967 92.560066 
L 109.664165 106.664956 
L 108.578364 107.680962 
L 107.492563 104.283139 
L 106.406762 94.767031 
L 105.320961 96.287748 
L 104.23516 95.683054 
L 103.149358 90.056895 
L 102.063557 111.224733 
L 100.977756 108.420577 
L 99.891955 121.009821 
L 98.806154 113.266411 
L 97.720353 120.355834 
L 96.634552 107.579027 
L 95.54875 134.848582 
L 94.462949 127.057977 
L 93.377148 122.458285 
L 92.291347 128.087062 
L 91.205546 122.047878 
L 90.119745 131.53818 
L 89.033943 124.429112 
L 87.948142 111.778151 
L 86.862341 121.714187 
L 85.77654 126.062707 
L 84.690739 133.909695 
L 83.604938 125.23079 
L 82.519137 138.023325 
L 81.433335 142.130224 
L 80.347534 151.989921 
L 79.261733 144.28006 
L 78.175932 161.429027 
L 77.090131 172.161148 
L 76.00433 167.693556 
L 74.918528 163.144767 
L 73.832727 188.285179 
z
" style="fill:#ff0000;fill-opacity:0.5;"/>
   </g>
   <g id="PolyCollection_3">
    <path clip-path="url(#p6fe55d1194)" d="M 73.832727 268.662151 
L 73.832727 295.488 
L 74.918528 282.441076 
L 76.00433 286.341038 
L 77.090131 283.9034 
L 78.175932 282.449317 
L 79.261733 275.405943 
L 80.347534 285.026147 
L 81.433335 274.29461 
L 82.519137 277.332771 
L 83.604938 276.594616 
L 84.690739 275.158217 
L 85.77654 282.774523 
L 86.862341 279.315148 
L 87.948142 259.205108 
L 89.033943 264.743636 
L 90.119745 275.754783 
L 91.205546 261.670444 
L 92.291347 273.647958 
L 93.377148 271.436646 
L 94.462949 267.462183 
L 95.54875 264.622601 
L 96.634552 259.419505 
L 97.720353 266.16634 
L 98.806154 272.581265 
L 99.891955 261.917838 
L 100.977756 257.33244 
L 102.063557 254.467713 
L 103.149358 256.482383 
L 104.23516 268.132822 
L 105.320961 253.043525 
L 106.406762 255.360183 
L 107.492563 254.201791 
L 108.578364 255.017885 
L 109.664165 236.006457 
L 110.749967 246.1383 
L 111.835768 248.051239 
L 112.921569 247.787552 
L 114.00737 250.004677 
L 115.093171 227.601602 
L 116.178972 241.271632 
L 117.264773 235.394143 
L 118.350575 252.328596 
L 119.436376 260.702447 
L 120.522177 260.186682 
L 121.607978 261.570598 
L 122.693779 261.989702 
L 123.77958 258.249022 
L 124.865382 251.619461 
L 125.951183 250.307206 
L 127.036984 253.588986 
L 128.122785 250.969264 
L 129.208586 252.460043 
L 130.294387 247.533823 
L 131.380189 260.194964 
L 132.46599 252.364437 
L 133.551791 251.193127 
L 134.637592 242.623452 
L 135.723393 257.357251 
L 136.809194 242.658897 
L 137.894995 251.520401 
L 138.980797 245.591249 
L 140.066598 256.995031 
L 141.152399 263.276973 
L 142.2382 272.942396 
L 143.324001 265.420534 
L 144.409802 261.278538 
L 145.495604 243.305972 
L 146.581405 275.936298 
L 147.667206 267.039593 
L 148.753007 260.49648 
L 149.838808 267.59421 
L 150.924609 264.048461 
L 152.01041 258.216759 
L 153.096212 256.607487 
L 154.182013 261.094574 
L 155.267814 256.328051 
L 156.353615 246.715998 
L 157.439416 252.09838 
L 158.525217 244.698509 
L 159.611019 267.178018 
L 160.69682 252.956522 
L 161.782621 257.355648 
L 162.868422 256.655228 
L 163.954223 259.246403 
L 165.040024 247.108078 
L 166.125825 266.92149 
L 167.211627 270.179883 
L 168.297428 272.768513 
L 169.383229 251.068006 
L 170.46903 260.585575 
L 171.554831 260.94855 
L 172.640632 273.79433 
L 173.726434 266.039702 
L 174.812235 262.604816 
L 175.898036 254.136778 
L 176.983837 259.238662 
L 178.069638 263.029155 
L 179.155439 264.741908 
L 180.24124 262.101527 
L 181.327042 256.742952 
L 182.412843 253.536053 
L 183.498644 239.252693 
L 184.584445 256.949233 
L 185.670246 249.41385 
L 186.756047 262.286934 
L 187.841849 255.727448 
L 188.92765 256.683534 
L 190.013451 250.907223 
L 191.099252 232.859599 
L 192.185053 259.946116 
L 193.270854 254.049697 
L 194.356656 252.492588 
L 195.442457 259.031378 
L 196.528258 253.290728 
L 197.614059 235.488335 
L 198.69986 244.496962 
L 199.785661 265.839394 
L 200.871462 243.38227 
L 201.957264 244.206247 
L 203.043065 249.923494 
L 204.128866 271.528899 
L 205.214667 240.829604 
L 206.300468 267.403567 
L 207.386269 254.182642 
L 208.472071 257.322986 
L 209.557872 250.328062 
L 210.643673 231.070397 
L 211.729474 222.83621 
L 212.815275 244.443992 
L 213.901076 234.65788 
L 214.986877 259.781236 
L 216.072679 232.511415 
L 217.15848 234.465798 
L 218.244281 228.432998 
L 219.330082 261.166086 
L 220.415883 246.283332 
L 221.501684 254.176369 
L 222.587486 225.326125 
L 223.673287 248.359516 
L 224.759088 247.937202 
L 225.844889 255.174356 
L 226.93069 250.742281 
L 228.016491 246.160576 
L 229.102292 234.615942 
L 230.188094 238.59787 
L 231.273895 230.84519 
L 232.359696 255.404339 
L 233.445497 253.963857 
L 234.531298 241.149544 
L 235.617099 246.006293 
L 236.702901 258.646576 
L 237.788702 234.153567 
L 238.874503 250.693949 
L 239.960304 246.089823 
L 241.046105 244.156482 
L 242.131906 235.29353 
L 243.217708 245.589007 
L 244.303509 216.276956 
L 245.38931 239.511107 
L 246.475111 234.027512 
L 247.560912 249.471006 
L 248.646713 234.335568 
L 249.732514 231.317767 
L 250.818316 242.562024 
L 251.904117 239.347025 
L 252.989918 248.802639 
L 254.075719 246.766531 
L 255.16152 243.888991 
L 256.247321 250.259303 
L 257.333123 247.176346 
L 258.418924 225.736713 
L 259.504725 237.518359 
L 260.590526 250.455875 
L 261.676327 247.720591 
L 262.762128 239.940463 
L 263.847929 253.288734 
L 264.933731 241.779643 
L 266.019532 222.826646 
L 267.105333 238.137205 
L 268.191134 224.961805 
L 269.276935 240.39217 
L 270.362736 241.42998 
L 271.448538 229.012864 
L 272.534339 236.667866 
L 273.62014 227.935155 
L 274.705941 232.726845 
L 275.791742 234.401901 
L 276.877543 242.407008 
L 277.963344 246.826253 
L 279.049146 239.504408 
L 280.134947 249.710242 
L 281.220748 247.108629 
L 282.306549 247.948336 
L 283.39235 250.234047 
L 284.478151 238.816519 
L 285.563953 243.650789 
L 286.649754 242.476592 
L 287.735555 252.689568 
L 288.821356 227.508368 
L 289.907157 236.481351 
L 290.992958 243.230077 
L 292.07876 236.343981 
L 293.164561 235.794647 
L 294.250362 241.769258 
L 295.336163 251.331759 
L 296.421964 247.214334 
L 297.507765 244.86502 
L 298.593566 224.810962 
L 299.679368 243.498054 
L 300.765169 234.982534 
L 301.85097 233.584271 
L 302.936771 227.731573 
L 304.022572 239.224197 
L 305.108373 236.148315 
L 306.194175 245.180165 
L 307.279976 234.920801 
L 308.365777 243.663678 
L 309.451578 235.958904 
L 310.537379 247.529608 
L 311.62318 245.436796 
L 312.708981 250.528184 
L 313.794783 236.818446 
L 314.880584 226.448869 
L 315.966385 254.05472 
L 317.052186 242.261841 
L 318.137987 266.361045 
L 319.223788 265.525397 
L 320.30959 250.217483 
L 321.395391 260.572744 
L 322.481192 263.6864 
L 323.566993 239.153259 
L 324.652794 264.560823 
L 325.738595 249.659077 
L 326.824396 239.200411 
L 327.910198 245.094488 
L 328.995999 250.110508 
L 330.0818 243.019798 
L 331.167601 251.179543 
L 332.253402 252.723867 
L 333.339203 245.583272 
L 334.425005 256.978179 
L 335.510806 250.386433 
L 336.596607 254.176636 
L 337.682408 248.624916 
L 338.768209 245.169362 
L 339.85401 241.876914 
L 340.939811 247.983759 
L 342.025613 254.473773 
L 343.111414 245.090433 
L 344.197215 238.258345 
L 345.283016 252.395964 
L 346.368817 229.104533 
L 347.454618 227.520206 
L 348.54042 242.550595 
L 349.626221 225.069891 
L 350.712022 240.838025 
L 351.797823 245.364719 
L 352.883624 246.195299 
L 353.969425 249.163132 
L 355.055227 244.701023 
L 356.141028 243.340405 
L 357.226829 228.110225 
L 358.31263 232.70475 
L 359.398431 234.448849 
L 360.484232 228.601036 
L 361.570033 234.454116 
L 362.655835 213.120386 
L 363.741636 230.51868 
L 364.827437 243.076544 
L 365.913238 234.346649 
L 366.999039 243.787731 
L 368.08484 233.067296 
L 369.170642 238.086228 
L 370.256443 256.024927 
L 371.342244 224.758354 
L 372.428045 246.13362 
L 373.513846 237.373104 
L 374.599647 233.007695 
L 375.685448 240.475743 
L 376.77125 234.593274 
L 377.857051 240.945067 
L 378.942852 246.541917 
L 380.028653 248.736488 
L 381.114454 215.126257 
L 382.200255 246.365616 
L 383.286057 251.830302 
L 384.371858 228.794337 
L 385.457659 226.36597 
L 386.54346 244.199058 
L 387.629261 235.170381 
L 388.715062 235.865106 
L 389.800863 247.574077 
L 390.886665 229.555986 
L 391.972466 235.592616 
L 393.058267 231.778611 
L 394.144068 218.56717 
L 395.229869 205.033461 
L 396.31567 228.899859 
L 397.401472 228.151906 
L 398.487273 221.00821 
L 398.487273 117.067151 
L 398.487273 117.067151 
L 397.401472 129.316809 
L 396.31567 133.611128 
L 395.229869 114.889722 
L 394.144068 154.416228 
L 393.058267 146.919362 
L 391.972466 141.528031 
L 390.886665 152.684507 
L 389.800863 156.87827 
L 388.715062 149.711044 
L 387.629261 153.301843 
L 386.54346 152.754526 
L 385.457659 156.133101 
L 384.371858 138.448628 
L 383.286057 170.308783 
L 382.200255 167.447256 
L 381.114454 147.38473 
L 380.028653 165.722829 
L 378.942852 150.980538 
L 377.857051 144.682797 
L 376.77125 141.958501 
L 375.685448 152.288876 
L 374.599647 153.44762 
L 373.513846 139.126956 
L 372.428045 163.878155 
L 371.342244 146.104704 
L 370.256443 171.415008 
L 369.170642 149.015532 
L 368.08484 150.77638 
L 366.999039 157.561679 
L 365.913238 136.85256 
L 364.827437 153.721892 
L 363.741636 136.336418 
L 362.655835 136.539272 
L 361.570033 145.640178 
L 360.484232 153.94975 
L 359.398431 144.843854 
L 358.31263 141.390534 
L 357.226829 140.477346 
L 356.141028 162.275543 
L 355.055227 157.656842 
L 353.969425 150.505521 
L 352.883624 158.261104 
L 351.797823 152.157736 
L 350.712022 162.026969 
L 349.626221 136.645081 
L 348.54042 150.395029 
L 347.454618 136.241454 
L 346.368817 138.086716 
L 345.283016 157.460664 
L 344.197215 153.826873 
L 343.111414 148.760214 
L 342.025613 160.476843 
L 340.939811 154.37991 
L 339.85401 164.81398 
L 338.768209 147.284963 
L 337.682408 156.139835 
L 336.596607 176.417952 
L 335.510806 165.477825 
L 334.425005 177.163998 
L 333.339203 162.540884 
L 332.253402 174.864355 
L 331.167601 168.787487 
L 330.0818 157.988898 
L 328.995999 165.150401 
L 327.910198 172.062661 
L 326.824396 145.962014 
L 325.738595 170.996481 
L 324.652794 163.318696 
L 323.566993 154.2502 
L 322.481192 204.376148 
L 321.395391 171.287862 
L 320.30959 162.380072 
L 319.223788 147.977181 
L 318.137987 154.692013 
L 317.052186 148.122804 
L 315.966385 135.658678 
L 314.880584 144.905487 
L 313.794783 143.434162 
L 312.708981 167.137501 
L 311.62318 151.025489 
L 310.537379 158.08634 
L 309.451578 146.514309 
L 308.365777 153.419194 
L 307.279976 154.120295 
L 306.194175 155.548658 
L 305.108373 140.894759 
L 304.022572 176.166002 
L 302.936771 146.958441 
L 301.85097 140.692018 
L 300.765169 146.508082 
L 299.679368 144.534586 
L 298.593566 146.82783 
L 297.507765 138.771794 
L 296.421964 164.323051 
L 295.336163 158.964451 
L 294.250362 142.824294 
L 293.164561 162.994841 
L 292.07876 135.889541 
L 290.992958 139.010416 
L 289.907157 157.472727 
L 288.821356 147.543655 
L 287.735555 140.540491 
L 286.649754 140.462062 
L 285.563953 162.534031 
L 284.478151 159.507528 
L 283.39235 164.45799 
L 282.306549 148.307087 
L 281.220748 166.006082 
L 280.134947 153.785366 
L 279.049146 167.895728 
L 277.963344 176.709154 
L 276.877543 154.9603 
L 275.791742 140.753553 
L 274.705941 147.496739 
L 273.62014 144.60866 
L 272.534339 151.545779 
L 271.448538 149.581677 
L 270.362736 142.155118 
L 269.276935 148.157626 
L 268.191134 146.392551 
L 267.105333 133.062005 
L 266.019532 149.510307 
L 264.933731 155.716955 
L 263.847929 146.379919 
L 262.762128 135.577 
L 261.676327 147.655666 
L 260.590526 152.108852 
L 259.504725 149.402396 
L 258.418924 141.842404 
L 257.333123 156.008968 
L 256.247321 169.888732 
L 255.16152 154.486772 
L 254.075719 170.821581 
L 252.989918 162.140017 
L 251.904117 158.563298 
L 250.818316 151.133476 
L 249.732514 148.311087 
L 248.646713 154.653812 
L 247.560912 157.69641 
L 246.475111 148.523274 
L 245.38931 157.132183 
L 244.303509 106.619874 
L 243.217708 169.775334 
L 242.131906 156.617781 
L 241.046105 170.71656 
L 239.960304 157.457501 
L 238.874503 146.828506 
L 237.788702 162.955163 
L 236.702901 175.542246 
L 235.617099 157.722036 
L 234.531298 159.630994 
L 233.445497 143.713745 
L 232.359696 161.071887 
L 231.273895 154.187945 
L 230.188094 156.364663 
L 229.102292 152.149666 
L 228.016491 127.650272 
L 226.93069 143.599665 
L 225.844889 166.188996 
L 224.759088 162.721018 
L 223.673287 159.299199 
L 222.587486 151.277366 
L 221.501684 164.575344 
L 220.415883 157.496712 
L 219.330082 160.145549 
L 218.244281 142.843785 
L 217.15848 144.723474 
L 216.072679 134.86084 
L 214.986877 166.262378 
L 213.901076 127.129088 
L 212.815275 157.862157 
L 211.729474 131.814004 
L 210.643673 137.129308 
L 209.557872 149.676743 
L 208.472071 178.546594 
L 207.386269 145.977309 
L 206.300468 182.817094 
L 205.214667 143.712233 
L 204.128866 181.277543 
L 203.043065 156.985345 
L 201.957264 173.511154 
L 200.871462 156.105379 
L 199.785661 173.960572 
L 198.69986 153.206498 
L 197.614059 138.193224 
L 196.528258 161.918465 
L 195.442457 160.858078 
L 194.356656 158.398352 
L 193.270854 174.683129 
L 192.185053 162.451547 
L 191.099252 142.347571 
L 190.013451 164.405402 
L 188.92765 162.456046 
L 187.841849 159.688608 
L 186.756047 170.893434 
L 185.670246 164.450738 
L 184.584445 174.033222 
L 183.498644 143.117088 
L 182.412843 155.260405 
L 181.327042 158.388668 
L 180.24124 171.233988 
L 179.155439 160.474257 
L 178.069638 163.273037 
L 176.983837 154.031197 
L 175.898036 163.554765 
L 174.812235 153.483543 
L 173.726434 165.589198 
L 172.640632 168.927569 
L 171.554831 170.033905 
L 170.46903 154.132321 
L 169.383229 179.164573 
L 168.297428 164.471531 
L 167.211627 172.464442 
L 166.125825 173.757642 
L 165.040024 155.844516 
L 163.954223 150.32579 
L 162.868422 159.976145 
L 161.782621 167.70537 
L 160.69682 181.697741 
L 159.611019 178.233092 
L 158.525217 157.452493 
L 157.439416 178.366918 
L 156.353615 152.952655 
L 155.267814 161.15663 
L 154.182013 180.774017 
L 153.096212 160.696189 
L 152.01041 185.306731 
L 150.924609 187.025508 
L 149.838808 186.479265 
L 148.753007 188.250287 
L 147.667206 173.97569 
L 146.581405 165.932293 
L 145.495604 166.188647 
L 144.409802 184.985879 
L 143.324001 177.534085 
L 142.2382 176.916256 
L 141.152399 186.400675 
L 140.066598 165.609495 
L 138.980797 160.72286 
L 137.894995 167.308886 
L 136.809194 141.210637 
L 135.723393 157.851942 
L 134.637592 145.952202 
L 133.551791 160.628694 
L 132.46599 155.552856 
L 131.380189 148.704925 
L 130.294387 139.567937 
L 129.208586 148.837652 
L 128.122785 165.015664 
L 127.036984 155.23333 
L 125.951183 168.108355 
L 124.865382 161.598682 
L 123.77958 166.294839 
L 122.693779 181.637219 
L 121.607978 186.995164 
L 120.522177 172.528246 
L 119.436376 170.073146 
L 118.350575 164.044199 
L 117.264773 167.610167 
L 116.178972 144.588953 
L 115.093171 152.802986 
L 114.00737 175.289061 
L 112.921569 156.664794 
L 111.835768 163.589578 
L 110.749967 147.169333 
L 109.664165 166.32555 
L 108.578364 167.793503 
L 107.492563 169.100895 
L 106.406762 165.149861 
L 105.320961 146.780275 
L 104.23516 157.93665 
L 103.149358 152.624369 
L 102.063557 179.772825 
L 100.977756 173.856877 
L 99.891955 190.423163 
L 98.806154 190.594157 
L 97.720353 199.362142 
L 96.634552 189.534124 
L 95.54875 213.084908 
L 94.462949 212.029514 
L 93.377148 208.468776 
L 92.291347 214.118237 
L 91.205546 204.349336 
L 90.119745 216.433096 
L 89.033943 209.343779 
L 87.948142 207.642123 
L 86.862341 210.571387 
L 85.77654 213.162738 
L 84.690739 225.692027 
L 83.604938 220.997545 
L 82.519137 235.903362 
L 81.433335 240.053408 
L 80.347534 248.146353 
L 79.261733 241.993296 
L 78.175932 254.834574 
L 77.090131 262.120429 
L 76.00433 261.906562 
L 74.918528 260.660821 
L 73.832727 268.662151 
z
" style="fill:#008000;fill-opacity:0.5;"/>
   </g>
   <g id="matplotlib.axis_1">
    <g id="xtick_1">
     <g id="line2d_1">
      <path clip-path="url(#p6fe55d1194)" d="M 73.832727 307.584 
L 73.832727 41.472 
" style="fill:none;stroke:#b0b0b0;stroke-linecap:square;stroke-width:0.8;"/>
     </g>
     <g id="line2d_2">
      <defs>
       <path d="M 0 0 
L 0 3.5 
" id="mb5010e4ef4" style="stroke:#000000;stroke-width:0.8;"/>
      </defs>
      <g>
       <use style="stroke:#000000;stroke-width:0.8;" x="73.832727" xlink:href="#mb5010e4ef4" y="307.584"/>
      </g>
     </g>
     <g id="text_1">
      <!-- 0 -->
      <defs>
       <path d="M 31.78125 66.40625 
Q 24.171875 66.40625 20.328125 58.90625 
Q 16.5 51.421875 16.5 36.375 
Q 16.5 21.390625 20.328125 13.890625 
Q 24.171875 6.390625 31.78125 6.390625 
Q 39.453125 6.390625 43.28125 13.890625 
Q 47.125 21.390625 47.125 36.375 
Q 47.125 51.421875 43.28125 58.90625 
Q 39.453125 66.40625 31.78125 66.40625 
z
M 31.78125 74.21875 
Q 44.046875 74.21875 50.515625 64.515625 
Q 56.984375 54.828125 56.984375 36.375 
Q 56.984375 17.96875 50.515625 8.265625 
Q 44.046875 -1.421875 31.78125 -1.421875 
Q 19.53125 -1.421875 13.0625 8.265625 
Q 6.59375 17.96875 6.59375 36.375 
Q 6.59375 54.828125 13.0625 64.515625 
Q 19.53125 74.21875 31.78125 74.21875 
z
" id="DejaVuSans-48"/>
      </defs>
      <g transform="translate(70.651477 322.182437)scale(0.1 -0.1)">
       <use xlink:href="#DejaVuSans-48"/>
      </g>
     </g>
    </g>
    <g id="xtick_2">
     <g id="line2d_3">
      <path clip-path="url(#p6fe55d1194)" d="M 128.122785 307.584 
L 128.122785 41.472 
" style="fill:none;stroke:#b0b0b0;stroke-linecap:square;stroke-width:0.8;"/>
     </g>
     <g id="line2d_4">
      <g>
       <use style="stroke:#000000;stroke-width:0.8;" x="128.122785" xlink:href="#mb5010e4ef4" y="307.584"/>
      </g>
     </g>
     <g id="text_2">
      <!-- 50 -->
      <defs>
       <path d="M 10.796875 72.90625 
L 49.515625 72.90625 
L 49.515625 64.59375 
L 19.828125 64.59375 
L 19.828125 46.734375 
Q 21.96875 47.46875 24.109375 47.828125 
Q 26.265625 48.1875 28.421875 48.1875 
Q 40.625 48.1875 47.75 41.5 
Q 54.890625 34.8125 54.890625 23.390625 
Q 54.890625 11.625 47.5625 5.09375 
Q 40.234375 -1.421875 26.90625 -1.421875 
Q 22.3125 -1.421875 17.546875 -0.640625 
Q 12.796875 0.140625 7.71875 1.703125 
L 7.71875 11.625 
Q 12.109375 9.234375 16.796875 8.0625 
Q 21.484375 6.890625 26.703125 6.890625 
Q 35.15625 6.890625 40.078125 11.328125 
Q 45.015625 15.765625 45.015625 23.390625 
Q 45.015625 31 40.078125 35.4375 
Q 35.15625 39.890625 26.703125 39.890625 
Q 22.75 39.890625 18.8125 39.015625 
Q 14.890625 38.140625 10.796875 36.28125 
z
" id="DejaVuSans-53"/>
      </defs>
      <g transform="translate(121.760285 322.182437)scale(0.1 -0.1)">
       <use xlink:href="#DejaVuSans-53"/>
       <use x="63.623047" xlink:href="#DejaVuSans-48"/>
      </g>
     </g>
    </g>
    <g id="xtick_3">
     <g id="line2d_5">
      <path clip-path="url(#p6fe55d1194)" d="M 182.412843 307.584 
L 182.412843 41.472 
" style="fill:none;stroke:#b0b0b0;stroke-linecap:square;stroke-width:0.8;"/>
     </g>
     <g id="line2d_6">
      <g>
       <use style="stroke:#000000;stroke-width:0.8;" x="182.412843" xlink:href="#mb5010e4ef4" y="307.584"/>
      </g>
     </g>
     <g id="text_3">
      <!-- 100 -->
      <defs>
       <path d="M 12.40625 8.296875 
L 28.515625 8.296875 
L 28.515625 63.921875 
L 10.984375 60.40625 
L 10.984375 69.390625 
L 28.421875 72.90625 
L 38.28125 72.90625 
L 38.28125 8.296875 
L 54.390625 8.296875 
L 54.390625 0 
L 12.40625 0 
z
" id="DejaVuSans-49"/>
      </defs>
      <g transform="translate(172.869093 322.182437)scale(0.1 -0.1)">
       <use xlink:href="#DejaVuSans-49"/>
       <use x="63.623047" xlink:href="#DejaVuSans-48"/>
       <use x="127.246094" xlink:href="#DejaVuSans-48"/>
      </g>
     </g>
    </g>
    <g id="xtick_4">
     <g id="line2d_7">
      <path clip-path="url(#p6fe55d1194)" d="M 236.702901 307.584 
L 236.702901 41.472 
" style="fill:none;stroke:#b0b0b0;stroke-linecap:square;stroke-width:0.8;"/>
     </g>
     <g id="line2d_8">
      <g>
       <use style="stroke:#000000;stroke-width:0.8;" x="236.702901" xlink:href="#mb5010e4ef4" y="307.584"/>
      </g>
     </g>
     <g id="text_4">
      <!-- 150 -->
      <g transform="translate(227.159151 322.182437)scale(0.1 -0.1)">
       <use xlink:href="#DejaVuSans-49"/>
       <use x="63.623047" xlink:href="#DejaVuSans-53"/>
       <use x="127.246094" xlink:href="#DejaVuSans-48"/>
      </g>
     </g>
    </g>
    <g id="xtick_5">
     <g id="line2d_9">
      <path clip-path="url(#p6fe55d1194)" d="M 290.992958 307.584 
L 290.992958 41.472 
" style="fill:none;stroke:#b0b0b0;stroke-linecap:square;stroke-width:0.8;"/>
     </g>
     <g id="line2d_10">
      <g>
       <use style="stroke:#000000;stroke-width:0.8;" x="290.992958" xlink:href="#mb5010e4ef4" y="307.584"/>
      </g>
     </g>
     <g id="text_5">
      <!-- 200 -->
      <defs>
       <path d="M 19.1875 8.296875 
L 53.609375 8.296875 
L 53.609375 0 
L 7.328125 0 
L 7.328125 8.296875 
Q 12.9375 14.109375 22.625 23.890625 
Q 32.328125 33.6875 34.8125 36.53125 
Q 39.546875 41.84375 41.421875 45.53125 
Q 43.3125 49.21875 43.3125 52.78125 
Q 43.3125 58.59375 39.234375 62.25 
Q 35.15625 65.921875 28.609375 65.921875 
Q 23.96875 65.921875 18.8125 64.3125 
Q 13.671875 62.703125 7.8125 59.421875 
L 7.8125 69.390625 
Q 13.765625 71.78125 18.9375 73 
Q 24.125 74.21875 28.421875 74.21875 
Q 39.75 74.21875 46.484375 68.546875 
Q 53.21875 62.890625 53.21875 53.421875 
Q 53.21875 48.921875 51.53125 44.890625 
Q 49.859375 40.875 45.40625 35.40625 
Q 44.1875 33.984375 37.640625 27.21875 
Q 31.109375 20.453125 19.1875 8.296875 
z
" id="DejaVuSans-50"/>
      </defs>
      <g transform="translate(281.449208 322.182437)scale(0.1 -0.1)">
       <use xlink:href="#DejaVuSans-50"/>
       <use x="63.623047" xlink:href="#DejaVuSans-48"/>
       <use x="127.246094" xlink:href="#DejaVuSans-48"/>
      </g>
     </g>
    </g>
    <g id="xtick_6">
     <g id="line2d_11">
      <path clip-path="url(#p6fe55d1194)" d="M 345.283016 307.584 
L 345.283016 41.472 
" style="fill:none;stroke:#b0b0b0;stroke-linecap:square;stroke-width:0.8;"/>
     </g>
     <g id="line2d_12">
      <g>
       <use style="stroke:#000000;stroke-width:0.8;" x="345.283016" xlink:href="#mb5010e4ef4" y="307.584"/>
      </g>
     </g>
     <g id="text_6">
      <!-- 250 -->
      <g transform="translate(335.739266 322.182437)scale(0.1 -0.1)">
       <use xlink:href="#DejaVuSans-50"/>
       <use x="63.623047" xlink:href="#DejaVuSans-53"/>
       <use x="127.246094" xlink:href="#DejaVuSans-48"/>
      </g>
     </g>
    </g>
    <g id="xtick_7">
     <g id="line2d_13">
      <path clip-path="url(#p6fe55d1194)" d="M 399.573074 307.584 
L 399.573074 41.472 
" style="fill:none;stroke:#b0b0b0;stroke-linecap:square;stroke-width:0.8;"/>
     </g>
     <g id="line2d_14">
      <g>
       <use style="stroke:#000000;stroke-width:0.8;" x="399.573074" xlink:href="#mb5010e4ef4" y="307.584"/>
      </g>
     </g>
     <g id="text_7">
      <!-- 300 -->
      <defs>
       <path d="M 40.578125 39.3125 
Q 47.65625 37.796875 51.625 33 
Q 55.609375 28.21875 55.609375 21.1875 
Q 55.609375 10.40625 48.1875 4.484375 
Q 40.765625 -1.421875 27.09375 -1.421875 
Q 22.515625 -1.421875 17.65625 -0.515625 
Q 12.796875 0.390625 7.625 2.203125 
L 7.625 11.71875 
Q 11.71875 9.328125 16.59375 8.109375 
Q 21.484375 6.890625 26.8125 6.890625 
Q 36.078125 6.890625 40.9375 10.546875 
Q 45.796875 14.203125 45.796875 21.1875 
Q 45.796875 27.640625 41.28125 31.265625 
Q 36.765625 34.90625 28.71875 34.90625 
L 20.21875 34.90625 
L 20.21875 43.015625 
L 29.109375 43.015625 
Q 36.375 43.015625 40.234375 45.921875 
Q 44.09375 48.828125 44.09375 54.296875 
Q 44.09375 59.90625 40.109375 62.90625 
Q 36.140625 65.921875 28.71875 65.921875 
Q 24.65625 65.921875 20.015625 65.03125 
Q 15.375 64.15625 9.8125 62.3125 
L 9.8125 71.09375 
Q 15.4375 72.65625 20.34375 73.4375 
Q 25.25 74.21875 29.59375 74.21875 
Q 40.828125 74.21875 47.359375 69.109375 
Q 53.90625 64.015625 53.90625 55.328125 
Q 53.90625 49.265625 50.4375 45.09375 
Q 46.96875 40.921875 40.578125 39.3125 
z
" id="DejaVuSans-51"/>
      </defs>
      <g transform="translate(390.029324 322.182437)scale(0.1 -0.1)">
       <use xlink:href="#DejaVuSans-51"/>
       <use x="63.623047" xlink:href="#DejaVuSans-48"/>
       <use x="127.246094" xlink:href="#DejaVuSans-48"/>
      </g>
     </g>
    </g>
    <g id="text_8">
     <!-- Generations -->
     <defs>
      <path d="M 59.515625 10.40625 
L 59.515625 29.984375 
L 43.40625 29.984375 
L 43.40625 38.09375 
L 69.28125 38.09375 
L 69.28125 6.78125 
Q 63.578125 2.734375 56.6875 0.65625 
Q 49.8125 -1.421875 42 -1.421875 
Q 24.90625 -1.421875 15.25 8.5625 
Q 5.609375 18.5625 5.609375 36.375 
Q 5.609375 54.25 15.25 64.234375 
Q 24.90625 74.21875 42 74.21875 
Q 49.125 74.21875 55.546875 72.453125 
Q 61.96875 70.703125 67.390625 67.28125 
L 67.390625 56.78125 
Q 61.921875 61.421875 55.765625 63.765625 
Q 49.609375 66.109375 42.828125 66.109375 
Q 29.4375 66.109375 22.71875 58.640625 
Q 16.015625 51.171875 16.015625 36.375 
Q 16.015625 21.625 22.71875 14.15625 
Q 29.4375 6.6875 42.828125 6.6875 
Q 48.046875 6.6875 52.140625 7.59375 
Q 56.25 8.5 59.515625 10.40625 
z
" id="DejaVuSans-71"/>
      <path d="M 56.203125 29.59375 
L 56.203125 25.203125 
L 14.890625 25.203125 
Q 15.484375 15.921875 20.484375 11.0625 
Q 25.484375 6.203125 34.421875 6.203125 
Q 39.59375 6.203125 44.453125 7.46875 
Q 49.3125 8.734375 54.109375 11.28125 
L 54.109375 2.78125 
Q 49.265625 0.734375 44.1875 -0.34375 
Q 39.109375 -1.421875 33.890625 -1.421875 
Q 20.796875 -1.421875 13.15625 6.1875 
Q 5.515625 13.8125 5.515625 26.8125 
Q 5.515625 40.234375 12.765625 48.109375 
Q 20.015625 56 32.328125 56 
Q 43.359375 56 49.78125 48.890625 
Q 56.203125 41.796875 56.203125 29.59375 
z
M 47.21875 32.234375 
Q 47.125 39.59375 43.09375 43.984375 
Q 39.0625 48.390625 32.421875 48.390625 
Q 24.90625 48.390625 20.390625 44.140625 
Q 15.875 39.890625 15.1875 32.171875 
z
" id="DejaVuSans-101"/>
      <path d="M 54.890625 33.015625 
L 54.890625 0 
L 45.90625 0 
L 45.90625 32.71875 
Q 45.90625 40.484375 42.875 44.328125 
Q 39.84375 48.1875 33.796875 48.1875 
Q 26.515625 48.1875 22.3125 43.546875 
Q 18.109375 38.921875 18.109375 30.90625 
L 18.109375 0 
L 9.078125 0 
L 9.078125 54.6875 
L 18.109375 54.6875 
L 18.109375 46.1875 
Q 21.34375 51.125 25.703125 53.5625 
Q 30.078125 56 35.796875 56 
Q 45.21875 56 50.046875 50.171875 
Q 54.890625 44.34375 54.890625 33.015625 
z
" id="DejaVuSans-110"/>
      <path d="M 41.109375 46.296875 
Q 39.59375 47.171875 37.8125 47.578125 
Q 36.03125 48 33.890625 48 
Q 26.265625 48 22.1875 43.046875 
Q 18.109375 38.09375 18.109375 28.8125 
L 18.109375 0 
L 9.078125 0 
L 9.078125 54.6875 
L 18.109375 54.6875 
L 18.109375 46.1875 
Q 20.953125 51.171875 25.484375 53.578125 
Q 30.03125 56 36.53125 56 
Q 37.453125 56 38.578125 55.875 
Q 39.703125 55.765625 41.0625 55.515625 
z
" id="DejaVuSans-114"/>
      <path d="M 34.28125 27.484375 
Q 23.390625 27.484375 19.1875 25 
Q 14.984375 22.515625 14.984375 16.5 
Q 14.984375 11.71875 18.140625 8.90625 
Q 21.296875 6.109375 26.703125 6.109375 
Q 34.1875 6.109375 38.703125 11.40625 
Q 43.21875 16.703125 43.21875 25.484375 
L 43.21875 27.484375 
z
M 52.203125 31.203125 
L 52.203125 0 
L 43.21875 0 
L 43.21875 8.296875 
Q 40.140625 3.328125 35.546875 0.953125 
Q 30.953125 -1.421875 24.3125 -1.421875 
Q 15.921875 -1.421875 10.953125 3.296875 
Q 6 8.015625 6 15.921875 
Q 6 25.140625 12.171875 29.828125 
Q 18.359375 34.515625 30.609375 34.515625 
L 43.21875 34.515625 
L 43.21875 35.40625 
Q 43.21875 41.609375 39.140625 45 
Q 35.0625 48.390625 27.6875 48.390625 
Q 23 48.390625 18.546875 47.265625 
Q 14.109375 46.140625 10.015625 43.890625 
L 10.015625 52.203125 
Q 14.9375 54.109375 19.578125 55.046875 
Q 24.21875 56 28.609375 56 
Q 40.484375 56 46.34375 49.84375 
Q 52.203125 43.703125 52.203125 31.203125 
z
" id="DejaVuSans-97"/>
      <path d="M 18.3125 70.21875 
L 18.3125 54.6875 
L 36.8125 54.6875 
L 36.8125 47.703125 
L 18.3125 47.703125 
L 18.3125 18.015625 
Q 18.3125 11.328125 20.140625 9.421875 
Q 21.96875 7.515625 27.59375 7.515625 
L 36.8125 7.515625 
L 36.8125 0 
L 27.59375 0 
Q 17.1875 0 13.234375 3.875 
Q 9.28125 7.765625 9.28125 18.015625 
L 9.28125 47.703125 
L 2.6875 47.703125 
L 2.6875 54.6875 
L 9.28125 54.6875 
L 9.28125 70.21875 
z
" id="DejaVuSans-116"/>
      <path d="M 9.421875 54.6875 
L 18.40625 54.6875 
L 18.40625 0 
L 9.421875 0 
z
M 9.421875 75.984375 
L 18.40625 75.984375 
L 18.40625 64.59375 
L 9.421875 64.59375 
z
" id="DejaVuSans-105"/>
      <path d="M 30.609375 48.390625 
Q 23.390625 48.390625 19.1875 42.75 
Q 14.984375 37.109375 14.984375 27.296875 
Q 14.984375 17.484375 19.15625 11.84375 
Q 23.34375 6.203125 30.609375 6.203125 
Q 37.796875 6.203125 41.984375 11.859375 
Q 46.1875 17.53125 46.1875 27.296875 
Q 46.1875 37.015625 41.984375 42.703125 
Q 37.796875 48.390625 30.609375 48.390625 
z
M 30.609375 56 
Q 42.328125 56 49.015625 48.375 
Q 55.71875 40.765625 55.71875 27.296875 
Q 55.71875 13.875 49.015625 6.21875 
Q 42.328125 -1.421875 30.609375 -1.421875 
Q 18.84375 -1.421875 12.171875 6.21875 
Q 5.515625 13.875 5.515625 27.296875 
Q 5.515625 40.765625 12.171875 48.375 
Q 18.84375 56 30.609375 56 
z
" id="DejaVuSans-111"/>
      <path d="M 44.28125 53.078125 
L 44.28125 44.578125 
Q 40.484375 46.53125 36.375 47.5 
Q 32.28125 48.484375 27.875 48.484375 
Q 21.1875 48.484375 17.84375 46.4375 
Q 14.5 44.390625 14.5 40.28125 
Q 14.5 37.15625 16.890625 35.375 
Q 19.28125 33.59375 26.515625 31.984375 
L 29.59375 31.296875 
Q 39.15625 29.25 43.1875 25.515625 
Q 47.21875 21.78125 47.21875 15.09375 
Q 47.21875 7.46875 41.1875 3.015625 
Q 35.15625 -1.421875 24.609375 -1.421875 
Q 20.21875 -1.421875 15.453125 -0.5625 
Q 10.6875 0.296875 5.421875 2 
L 5.421875 11.28125 
Q 10.40625 8.6875 15.234375 7.390625 
Q 20.0625 6.109375 24.8125 6.109375 
Q 31.15625 6.109375 34.5625 8.28125 
Q 37.984375 10.453125 37.984375 14.40625 
Q 37.984375 18.0625 35.515625 20.015625 
Q 33.0625 21.96875 24.703125 23.78125 
L 21.578125 24.515625 
Q 13.234375 26.265625 9.515625 29.90625 
Q 5.8125 33.546875 5.8125 39.890625 
Q 5.8125 47.609375 11.28125 51.796875 
Q 16.75 56 26.8125 56 
Q 31.78125 56 36.171875 55.265625 
Q 40.578125 54.546875 44.28125 53.078125 
z
" id="DejaVuSans-115"/>
     </defs>
     <g transform="translate(205.662344 335.860562)scale(0.1 -0.1)">
      <use xlink:href="#DejaVuSans-71"/>
      <use x="77.490234" xlink:href="#DejaVuSans-101"/>
      <use x="139.013672" xlink:href="#DejaVuSans-110"/>
      <use x="202.392578" xlink:href="#DejaVuSans-101"/>
      <use x="263.916016" xlink:href="#DejaVuSans-114"/>
      <use x="305.029297" xlink:href="#DejaVuSans-97"/>
      <use x="366.308594" xlink:href="#DejaVuSans-116"/>
      <use x="405.517578" xlink:href="#DejaVuSans-105"/>
      <use x="433.300781" xlink:href="#DejaVuSans-111"/>
      <use x="494.482422" xlink:href="#DejaVuSans-110"/>
      <use x="557.861328" xlink:href="#DejaVuSans-115"/>
     </g>
    </g>
   </g>
   <g id="matplotlib.axis_2">
    <g id="ytick_1">
     <g id="line2d_15">
      <path clip-path="url(#p6fe55d1194)" d="M 57.6 297.357038 
L 414.72 297.357038 
" style="fill:none;stroke:#b0b0b0;stroke-linecap:square;stroke-width:0.8;"/>
     </g>
     <g id="line2d_16">
      <defs>
       <path d="M 0 0 
L -3.5 0 
" id="m296babb6b0" style="stroke:#000000;stroke-width:0.8;"/>
      </defs>
      <g>
       <use style="stroke:#000000;stroke-width:0.8;" x="57.6" xlink:href="#m296babb6b0" y="297.357038"/>
      </g>
     </g>
     <g id="text_9">
      <!-- 0.0 -->
      <defs>
       <path d="M 10.6875 12.40625 
L 21 12.40625 
L 21 0 
L 10.6875 0 
z
" id="DejaVuSans-46"/>
      </defs>
      <g transform="translate(34.696875 301.156257)scale(0.1 -0.1)">
       <use xlink:href="#DejaVuSans-48"/>
       <use x="63.623047" xlink:href="#DejaVuSans-46"/>
       <use x="95.410156" xlink:href="#DejaVuSans-48"/>
      </g>
     </g>
    </g>
    <g id="ytick_2">
     <g id="line2d_17">
      <path clip-path="url(#p6fe55d1194)" d="M 57.6 252.105879 
L 414.72 252.105879 
" style="fill:none;stroke:#b0b0b0;stroke-linecap:square;stroke-width:0.8;"/>
     </g>
     <g id="line2d_18">
      <g>
       <use style="stroke:#000000;stroke-width:0.8;" x="57.6" xlink:href="#m296babb6b0" y="252.105879"/>
      </g>
     </g>
     <g id="text_10">
      <!-- 0.2 -->
      <g transform="translate(34.696875 255.905098)scale(0.1 -0.1)">
       <use xlink:href="#DejaVuSans-48"/>
       <use x="63.623047" xlink:href="#DejaVuSans-46"/>
       <use x="95.410156" xlink:href="#DejaVuSans-50"/>
      </g>
     </g>
    </g>
    <g id="ytick_3">
     <g id="line2d_19">
      <path clip-path="url(#p6fe55d1194)" d="M 57.6 206.854721 
L 414.72 206.854721 
" style="fill:none;stroke:#b0b0b0;stroke-linecap:square;stroke-width:0.8;"/>
     </g>
     <g id="line2d_20">
      <g>
       <use style="stroke:#000000;stroke-width:0.8;" x="57.6" xlink:href="#m296babb6b0" y="206.854721"/>
      </g>
     </g>
     <g id="text_11">
      <!-- 0.4 -->
      <defs>
       <path d="M 37.796875 64.3125 
L 12.890625 25.390625 
L 37.796875 25.390625 
z
M 35.203125 72.90625 
L 47.609375 72.90625 
L 47.609375 25.390625 
L 58.015625 25.390625 
L 58.015625 17.1875 
L 47.609375 17.1875 
L 47.609375 0 
L 37.796875 0 
L 37.796875 17.1875 
L 4.890625 17.1875 
L 4.890625 26.703125 
z
" id="DejaVuSans-52"/>
      </defs>
      <g transform="translate(34.696875 210.653939)scale(0.1 -0.1)">
       <use xlink:href="#DejaVuSans-48"/>
       <use x="63.623047" xlink:href="#DejaVuSans-46"/>
       <use x="95.410156" xlink:href="#DejaVuSans-52"/>
      </g>
     </g>
    </g>
    <g id="ytick_4">
     <g id="line2d_21">
      <path clip-path="url(#p6fe55d1194)" d="M 57.6 161.603562 
L 414.72 161.603562 
" style="fill:none;stroke:#b0b0b0;stroke-linecap:square;stroke-width:0.8;"/>
     </g>
     <g id="line2d_22">
      <g>
       <use style="stroke:#000000;stroke-width:0.8;" x="57.6" xlink:href="#m296babb6b0" y="161.603562"/>
      </g>
     </g>
     <g id="text_12">
      <!-- 0.6 -->
      <defs>
       <path d="M 33.015625 40.375 
Q 26.375 40.375 22.484375 35.828125 
Q 18.609375 31.296875 18.609375 23.390625 
Q 18.609375 15.53125 22.484375 10.953125 
Q 26.375 6.390625 33.015625 6.390625 
Q 39.65625 6.390625 43.53125 10.953125 
Q 47.40625 15.53125 47.40625 23.390625 
Q 47.40625 31.296875 43.53125 35.828125 
Q 39.65625 40.375 33.015625 40.375 
z
M 52.59375 71.296875 
L 52.59375 62.3125 
Q 48.875 64.0625 45.09375 64.984375 
Q 41.3125 65.921875 37.59375 65.921875 
Q 27.828125 65.921875 22.671875 59.328125 
Q 17.53125 52.734375 16.796875 39.40625 
Q 19.671875 43.65625 24.015625 45.921875 
Q 28.375 48.1875 33.59375 48.1875 
Q 44.578125 48.1875 50.953125 41.515625 
Q 57.328125 34.859375 57.328125 23.390625 
Q 57.328125 12.15625 50.6875 5.359375 
Q 44.046875 -1.421875 33.015625 -1.421875 
Q 20.359375 -1.421875 13.671875 8.265625 
Q 6.984375 17.96875 6.984375 36.375 
Q 6.984375 53.65625 15.1875 63.9375 
Q 23.390625 74.21875 37.203125 74.21875 
Q 40.921875 74.21875 44.703125 73.484375 
Q 48.484375 72.75 52.59375 71.296875 
z
" id="DejaVuSans-54"/>
      </defs>
      <g transform="translate(34.696875 165.402781)scale(0.1 -0.1)">
       <use xlink:href="#DejaVuSans-48"/>
       <use x="63.623047" xlink:href="#DejaVuSans-46"/>
       <use x="95.410156" xlink:href="#DejaVuSans-54"/>
      </g>
     </g>
    </g>
    <g id="ytick_5">
     <g id="line2d_23">
      <path clip-path="url(#p6fe55d1194)" d="M 57.6 116.352403 
L 414.72 116.352403 
" style="fill:none;stroke:#b0b0b0;stroke-linecap:square;stroke-width:0.8;"/>
     </g>
     <g id="line2d_24">
      <g>
       <use style="stroke:#000000;stroke-width:0.8;" x="57.6" xlink:href="#m296babb6b0" y="116.352403"/>
      </g>
     </g>
     <g id="text_13">
      <!-- 0.8 -->
      <defs>
       <path d="M 31.78125 34.625 
Q 24.75 34.625 20.71875 30.859375 
Q 16.703125 27.09375 16.703125 20.515625 
Q 16.703125 13.921875 20.71875 10.15625 
Q 24.75 6.390625 31.78125 6.390625 
Q 38.8125 6.390625 42.859375 10.171875 
Q 46.921875 13.96875 46.921875 20.515625 
Q 46.921875 27.09375 42.890625 30.859375 
Q 38.875 34.625 31.78125 34.625 
z
M 21.921875 38.8125 
Q 15.578125 40.375 12.03125 44.71875 
Q 8.5 49.078125 8.5 55.328125 
Q 8.5 64.0625 14.71875 69.140625 
Q 20.953125 74.21875 31.78125 74.21875 
Q 42.671875 74.21875 48.875 69.140625 
Q 55.078125 64.0625 55.078125 55.328125 
Q 55.078125 49.078125 51.53125 44.71875 
Q 48 40.375 41.703125 38.8125 
Q 48.828125 37.15625 52.796875 32.3125 
Q 56.78125 27.484375 56.78125 20.515625 
Q 56.78125 9.90625 50.3125 4.234375 
Q 43.84375 -1.421875 31.78125 -1.421875 
Q 19.734375 -1.421875 13.25 4.234375 
Q 6.78125 9.90625 6.78125 20.515625 
Q 6.78125 27.484375 10.78125 32.3125 
Q 14.796875 37.15625 21.921875 38.8125 
z
M 18.3125 54.390625 
Q 18.3125 48.734375 21.84375 45.5625 
Q 25.390625 42.390625 31.78125 42.390625 
Q 38.140625 42.390625 41.71875 45.5625 
Q 45.3125 48.734375 45.3125 54.390625 
Q 45.3125 60.0625 41.71875 63.234375 
Q 38.140625 66.40625 31.78125 66.40625 
Q 25.390625 66.40625 21.84375 63.234375 
Q 18.3125 60.0625 18.3125 54.390625 
z
" id="DejaVuSans-56"/>
      </defs>
      <g transform="translate(34.696875 120.151622)scale(0.1 -0.1)">
       <use xlink:href="#DejaVuSans-48"/>
       <use x="63.623047" xlink:href="#DejaVuSans-46"/>
       <use x="95.410156" xlink:href="#DejaVuSans-56"/>
      </g>
     </g>
    </g>
    <g id="ytick_6">
     <g id="line2d_25">
      <path clip-path="url(#p6fe55d1194)" d="M 57.6 71.101244 
L 414.72 71.101244 
" style="fill:none;stroke:#b0b0b0;stroke-linecap:square;stroke-width:0.8;"/>
     </g>
     <g id="line2d_26">
      <g>
       <use style="stroke:#000000;stroke-width:0.8;" x="57.6" xlink:href="#m296babb6b0" y="71.101244"/>
      </g>
     </g>
     <g id="text_14">
      <!-- 1.0 -->
      <g transform="translate(34.696875 74.900463)scale(0.1 -0.1)">
       <use xlink:href="#DejaVuSans-49"/>
       <use x="63.623047" xlink:href="#DejaVuSans-46"/>
       <use x="95.410156" xlink:href="#DejaVuSans-48"/>
      </g>
     </g>
    </g>
    <g id="text_15">
     <!-- Scores -->
     <defs>
      <path d="M 53.515625 70.515625 
L 53.515625 60.890625 
Q 47.90625 63.578125 42.921875 64.890625 
Q 37.9375 66.21875 33.296875 66.21875 
Q 25.25 66.21875 20.875 63.09375 
Q 16.5 59.96875 16.5 54.203125 
Q 16.5 49.359375 19.40625 46.890625 
Q 22.3125 44.4375 30.421875 42.921875 
L 36.375 41.703125 
Q 47.40625 39.59375 52.65625 34.296875 
Q 57.90625 29 57.90625 20.125 
Q 57.90625 9.515625 50.796875 4.046875 
Q 43.703125 -1.421875 29.984375 -1.421875 
Q 24.8125 -1.421875 18.96875 -0.25 
Q 13.140625 0.921875 6.890625 3.21875 
L 6.890625 13.375 
Q 12.890625 10.015625 18.65625 8.296875 
Q 24.421875 6.59375 29.984375 6.59375 
Q 38.421875 6.59375 43.015625 9.90625 
Q 47.609375 13.234375 47.609375 19.390625 
Q 47.609375 24.75 44.3125 27.78125 
Q 41.015625 30.8125 33.5 32.328125 
L 27.484375 33.5 
Q 16.453125 35.6875 11.515625 40.375 
Q 6.59375 45.0625 6.59375 53.421875 
Q 6.59375 63.09375 13.40625 68.65625 
Q 20.21875 74.21875 32.171875 74.21875 
Q 37.3125 74.21875 42.625 73.28125 
Q 47.953125 72.359375 53.515625 70.515625 
z
" id="DejaVuSans-83"/>
      <path d="M 48.78125 52.59375 
L 48.78125 44.1875 
Q 44.96875 46.296875 41.140625 47.34375 
Q 37.3125 48.390625 33.40625 48.390625 
Q 24.65625 48.390625 19.8125 42.84375 
Q 14.984375 37.3125 14.984375 27.296875 
Q 14.984375 17.28125 19.8125 11.734375 
Q 24.65625 6.203125 33.40625 6.203125 
Q 37.3125 6.203125 41.140625 7.25 
Q 44.96875 8.296875 48.78125 10.40625 
L 48.78125 2.09375 
Q 45.015625 0.34375 40.984375 -0.53125 
Q 36.96875 -1.421875 32.421875 -1.421875 
Q 20.0625 -1.421875 12.78125 6.34375 
Q 5.515625 14.109375 5.515625 27.296875 
Q 5.515625 40.671875 12.859375 48.328125 
Q 20.21875 56 33.015625 56 
Q 37.15625 56 41.109375 55.140625 
Q 45.0625 54.296875 48.78125 52.59375 
z
" id="DejaVuSans-99"/>
     </defs>
     <g transform="translate(28.617187 191.245969)rotate(-90)scale(0.1 -0.1)">
      <use xlink:href="#DejaVuSans-83"/>
      <use x="63.476562" xlink:href="#DejaVuSans-99"/>
      <use x="118.457031" xlink:href="#DejaVuSans-111"/>
      <use x="179.638672" xlink:href="#DejaVuSans-114"/>
      <use x="220.720703" xlink:href="#DejaVuSans-101"/>
      <use x="282.244141" xlink:href="#DejaVuSans-115"/>
     </g>
    </g>
   </g>
   <g id="line2d_27">
    <path clip-path="url(#p6fe55d1194)" d="M 73.832727 184.30025 
L 74.918528 181.164991 
L 76.00433 175.366379 
L 77.090131 150.116232 
L 78.175932 130.503087 
L 79.261733 129.850177 
L 80.347534 129.985931 
L 81.433335 115.841711 
L 82.519137 125.150521 
L 83.604938 114.206205 
L 84.690739 113.805409 
L 85.77654 117.755189 
L 86.862341 115.311626 
L 87.948142 98.801418 
L 89.033943 126.870065 
L 91.205546 102.970989 
L 92.291347 111.038624 
L 94.462949 123.418048 
L 95.54875 106.545831 
L 96.634552 123.211186 
L 97.720353 116.080896 
L 98.806154 107.127631 
L 99.891955 99.493114 
L 100.977756 110.114208 
L 102.063557 113.456329 
L 103.149358 110.986909 
L 104.23516 117.748725 
L 105.320961 114.949617 
L 106.406762 107.631858 
L 107.492563 107.353887 
L 108.578364 112.027685 
L 109.664165 96.506538 
L 110.749967 98.48466 
L 111.835768 96.48068 
L 112.921569 110.120672 
L 114.00737 113.663191 
L 115.093171 112.20869 
L 116.178972 85.700664 
L 117.264773 112.279799 
L 118.350575 116.499613 
L 119.436376 116.339602 
L 120.522177 125.236223 
L 121.607978 114.975475 
L 122.693779 103.003311 
L 123.77958 94.366739 
L 125.951183 107.541356 
L 127.036984 107.955017 
L 128.122785 100.204204 
L 130.294387 110.182372 
L 131.380189 113.740504 
L 132.46599 105.408544 
L 133.551791 113.538081 
L 134.637592 112.140909 
L 135.723393 112.721863 
L 136.809194 98.527159 
L 137.894995 114.025201 
L 138.980797 101.418868 
L 140.066598 118.091341 
L 141.152399 118.560557 
L 142.2382 120.108249 
L 143.324001 119.767462 
L 144.409802 120.741766 
L 145.495604 101.164143 
L 146.581405 126.081729 
L 147.667206 130.974992 
L 148.753007 120.263396 
L 149.838808 113.727836 
L 150.924609 105.123651 
L 152.01041 98.432944 
L 153.096212 108.808389 
L 154.182013 105.084865 
L 155.267814 118.653748 
L 156.353615 100.508033 
L 158.525217 108.459308 
L 159.611019 113.055533 
L 160.69682 104.658211 
L 161.782621 94.379733 
L 162.868422 122.487167 
L 163.954223 114.79447 
L 165.040024 102.117681 
L 166.125825 104.212164 
L 167.211627 111.904861 
L 168.297428 125.622426 
L 169.383229 110.20471 
L 170.46903 128.744756 
L 171.554831 116.281294 
L 172.640632 125.58364 
L 173.726434 128.311638 
L 174.812235 128.162956 
L 175.898036 111.109733 
L 176.983837 125.512531 
L 179.155439 128.279316 
L 180.24124 119.390695 
L 181.327042 121.588609 
L 182.412843 120.147036 
L 183.498644 117.108744 
L 184.584445 114.878508 
L 185.670246 111.775572 
L 187.841849 114.839722 
L 188.92765 118.110734 
L 190.013451 108.892426 
L 191.099252 98.25194 
L 192.185053 110.165923 
L 193.270854 117.535398 
L 194.356656 100.553284 
L 195.442457 103.139065 
L 196.528258 106.338968 
L 197.614059 103.850154 
L 199.785661 117.477218 
L 200.871462 111.626889 
L 201.957264 110.896406 
L 203.043065 108.174872 
L 204.128866 124.336 
L 205.214667 118.394146 
L 206.300468 105.99008 
L 207.386269 117.322071 
L 208.472071 93.790828 
L 209.557872 107.360351 
L 210.643673 108.758305 
L 211.729474 103.940657 
L 212.815275 94.715885 
L 213.901076 94.515487 
L 214.986877 102.589586 
L 216.072679 95.666159 
L 217.15848 95.562728 
L 218.244281 89.29221 
L 219.330082 109.616445 
L 220.415883 101.160943 
L 221.501684 108.000332 
L 222.587486 106.410077 
L 223.673287 92.925232 
L 224.759088 87.3342 
L 225.844889 100.83772 
L 226.93069 116.634023 
L 228.016491 95.950595 
L 229.102292 107.426237 
L 230.188094 104.069946 
L 231.273895 105.440409 
L 232.359696 100.280881 
L 234.531298 100.754514 
L 235.617099 89.456368 
L 236.702901 102.091824 
L 237.788702 108.209806 
L 238.874503 97.72956 
L 239.960304 97.224092 
L 241.046105 105.679594 
L 242.131906 102.486155 
L 243.217708 94.334482 
L 244.303509 92.970483 
L 245.38931 95.394652 
L 246.475111 96.377249 
L 247.560912 107.85165 
L 248.646713 100.876507 
L 249.732514 103.19078 
L 250.818316 100.061986 
L 251.904117 94.353876 
L 252.989918 98.161437 
L 254.075719 104.270344 
L 255.16152 93.319563 
L 256.247321 97.877001 
L 257.333123 98.639807 
L 259.504725 89.499073 
L 260.590526 96.390178 
L 261.676327 100.365815 
L 262.762128 101.264374 
L 263.847929 93.403601 
L 264.933731 92.821801 
L 267.105333 79.052519 
L 268.191134 92.491538 
L 270.362736 98.064471 
L 271.448538 98.056047 
L 272.534339 99.699977 
L 273.62014 94.114691 
L 274.705941 92.395531 
L 275.791742 91.825891 
L 276.877543 98.710916 
L 277.963344 94.750895 
L 279.049146 107.846209 
L 280.134947 98.049517 
L 281.220748 99.77755 
L 282.306549 101.874593 
L 283.39235 96.331998 
L 284.478151 92.995492 
L 285.563953 97.127125 
L 287.735555 102.835236 
L 288.821356 88.212647 
L 289.907157 89.051524 
L 290.992958 100.268848 
L 292.07876 92.401611 
L 293.164561 109.796535 
L 294.250362 113.113713 
L 295.336163 110.094814 
L 296.421964 108.226588 
L 297.507765 98.376005 
L 298.593566 97.346916 
L 299.679368 96.044885 
L 300.765169 95.166924 
L 301.85097 94.832245 
L 302.936771 96.939656 
L 304.022572 93.201987 
L 305.108373 92.408076 
L 306.194175 104.402963 
L 307.279976 106.726835 
L 308.365777 107.615599 
L 309.451578 94.823822 
L 310.537379 102.424449 
L 312.708981 94.631847 
L 313.794783 105.783025 
L 314.880584 94.885305 
L 315.966385 104.347917 
L 317.052186 94.661644 
L 318.137987 111.187307 
L 319.223788 100.034561 
L 320.30959 107.993868 
L 321.395391 100.568399 
L 322.481192 108.332643 
L 323.566993 88.379472 
L 324.652794 103.158458 
L 325.738595 97.989396 
L 326.824396 88.303149 
L 327.910198 107.301418 
L 328.995999 110.353392 
L 330.0818 99.162811 
L 331.167601 112.640144 
L 332.253402 120.001067 
L 333.339203 107.638323 
L 334.425005 113.306543 
L 335.510806 120.700063 
L 336.596607 123.412096 
L 337.682408 101.111503 
L 338.768209 125.287427 
L 339.85401 111.646115 
L 340.939811 116.008869 
L 342.025613 107.625394 
L 343.111414 108.229396 
L 344.197215 97.550149 
L 345.283016 114.186812 
L 346.368817 102.911465 
L 347.454618 99.228204 
L 348.54042 108.563059 
L 349.626221 105.673383 
L 350.712022 107.57726 
L 351.797823 103.332998 
L 352.883624 103.360124 
L 353.969425 99.766841 
L 355.055227 106.962624 
L 356.141028 107.524183 
L 357.226829 108.937678 
L 358.31263 98.062577 
L 359.398431 109.196256 
L 360.484232 100.935666 
L 361.570033 104.946807 
L 362.655835 102.071843 
L 363.741636 102.285757 
L 364.827437 104.025143 
L 365.913238 102.272828 
L 366.999039 107.058954 
L 368.08484 105.007291 
L 369.170642 100.250043 
L 370.256443 102.227577 
L 371.342244 91.994351 
L 372.428045 103.992372 
L 373.513846 88.367794 
L 374.599647 83.46774 
L 375.685448 95.052036 
L 376.77125 103.009776 
L 377.857051 99.021209 
L 378.942852 97.611959 
L 380.028653 100.695502 
L 381.114454 96.30614 
L 382.200255 104.199235 
L 383.286057 115.596062 
L 384.371858 99.014745 
L 385.457659 101.710421 
L 386.54346 101.975464 
L 387.629261 108.129621 
L 388.715062 110.844691 
L 389.800863 116.811379 
L 390.886665 117.121673 
L 391.972466 110.37925 
L 393.058267 104.638817 
L 394.144068 113.689049 
L 395.229869 105.621414 
L 396.31567 96.377249 
L 397.401472 103.565719 
L 398.487273 96.325533 
L 398.487273 96.325533 
" style="fill:none;stroke:#0000ff;stroke-linecap:square;stroke-width:1.5;"/>
   </g>
   <g id="line2d_28">
    <path clip-path="url(#p6fe55d1194)" d="M 73.832727 237.147139 
L 74.918528 197.804489 
L 76.00433 205.656642 
L 77.090131 202.286508 
L 78.175932 200.006712 
L 79.261733 186.896805 
L 80.347534 199.153404 
L 81.433335 182.104492 
L 82.519137 184.263618 
L 83.604938 176.963098 
L 84.690739 184.789394 
L 85.77654 187.517392 
L 86.862341 182.186375 
L 87.948142 157.397359 
L 89.033943 167.326756 
L 90.119745 185.728894 
L 91.205546 162.758544 
L 92.291347 175.497822 
L 93.377148 175.17029 
L 94.462949 169.826344 
L 95.54875 166.994914 
L 96.634552 154.501285 
L 97.720353 167.783577 
L 98.806154 170.283165 
L 99.891955 166.046795 
L 100.977756 159.069497 
L 102.063557 149.476251 
L 103.149358 147.14043 
L 104.23516 157.311166 
L 105.320961 148.855664 
L 106.406762 144.386573 
L 107.492563 144.403812 
L 108.578364 149.523657 
L 109.664165 133.11257 
L 110.749967 134.043451 
L 111.835768 138.5384 
L 112.921569 148.023905 
L 114.00737 152.08358 
L 115.093171 126.673977 
L 116.178972 129.220971 
L 117.264773 138.792668 
L 118.350575 143.998706 
L 119.436376 157.048279 
L 120.522177 160.125357 
L 121.607978 156.690579 
L 122.693779 151.863789 
L 123.77958 149.855499 
L 124.865382 146.847374 
L 125.951183 152.187011 
L 127.036984 152.130986 
L 128.122785 150.583827 
L 129.208586 147.713611 
L 130.294387 142.54636 
L 131.380189 154.686599 
L 132.46599 148.235077 
L 133.551791 142.735983 
L 134.637592 134.508892 
L 135.723393 157.759368 
L 136.809194 134.043451 
L 137.894995 154.173753 
L 138.980797 139.857148 
L 140.066598 157.811084 
L 141.152399 161.491511 
L 142.2382 161.98281 
L 143.324001 158.134306 
L 144.409802 166.344159 
L 145.495604 137.771285 
L 146.581405 166.395875 
L 147.667206 163.788546 
L 148.753007 160.750254 
L 149.838808 165.417588 
L 150.924609 158.660082 
L 152.01041 155.03137 
L 153.096212 147.748088 
L 154.182013 158.039494 
L 155.267814 150.644162 
L 156.353615 135.702661 
L 157.439416 148.023905 
L 158.525217 140.120036 
L 159.611019 167.925795 
L 161.782621 146.696537 
L 162.868422 157.561125 
L 163.954223 145.83461 
L 165.040024 136.353415 
L 166.125825 162.366367 
L 167.211627 163.598922 
L 168.297428 165.486542 
L 169.383229 153.579023 
L 170.46903 157.84987 
L 171.554831 160.957117 
L 172.640632 167.585334 
L 173.726434 159.431506 
L 174.812235 155.052918 
L 175.898036 151.394039 
L 176.983837 151.122532 
L 178.069638 156.733675 
L 179.155439 152.626594 
L 180.24124 147.817042 
L 181.327042 138.5384 
L 182.412843 137.435133 
L 183.498644 130.113065 
L 184.584445 146.175072 
L 185.670246 144.955445 
L 186.756047 155.246851 
L 187.841849 145.567413 
L 188.92765 155.074466 
L 190.013451 152.954126 
L 191.099252 127.889294 
L 192.185053 146.868923 
L 193.270854 142.365355 
L 194.356656 140.930247 
L 195.442457 146.08026 
L 196.528258 138.404801 
L 197.614059 127.997035 
L 198.69986 133.668513 
L 199.785661 159.086735 
L 200.871462 145.041638 
L 201.957264 143.093683 
L 203.043065 141.964559 
L 204.128866 163.74545 
L 205.214667 129.725198 
L 206.300468 150.579518 
L 207.386269 142.951465 
L 208.472071 141.184515 
L 209.557872 138.06003 
L 210.643673 127.169585 
L 211.729474 123.092671 
L 212.815275 138.253964 
L 213.901076 122.997859 
L 214.986877 147.097333 
L 216.072679 125.475899 
L 217.15848 125.493137 
L 218.244281 123.726187 
L 219.330082 149.821022 
L 220.415883 133.961568 
L 221.501684 139.176226 
L 222.587486 122.648779 
L 223.673287 134.086548 
L 224.759088 136.642161 
L 225.844889 146.006996 
L 226.93069 133.70299 
L 228.016491 128.384902 
L 229.102292 130.130304 
L 231.273895 136.8835 
L 232.359696 147.571393 
L 233.445497 142.740293 
L 234.531298 137.310154 
L 235.617099 137.71095 
L 236.702901 158.20326 
L 237.788702 135.23291 
L 238.874503 137.982457 
L 239.960304 137.167936 
L 241.046105 142.53774 
L 242.131906 138.128985 
L 243.217708 140.680288 
L 244.303509 116.016252 
L 245.38931 133.560772 
L 246.475111 129.988086 
L 247.560912 153.014461 
L 248.646713 136.758521 
L 249.732514 128.001344 
L 250.818316 135.12086 
L 251.904117 135.362199 
L 252.989918 145.632058 
L 254.075719 141.162967 
L 255.16152 129.759675 
L 256.247321 144.645151 
L 257.333123 133.448722 
L 258.418924 118.244333 
L 259.504725 129.397666 
L 260.590526 135.538894 
L 261.676327 140.365685 
L 262.762128 133.427174 
L 263.847929 139.581331 
L 264.933731 134.065 
L 266.019532 125.536234 
L 267.105333 124.234724 
L 268.191134 125.023387 
L 269.276935 135.70697 
L 270.362736 130.518171 
L 271.448538 128.690886 
L 272.534339 132.793657 
L 273.62014 127.570381 
L 274.705941 127.751385 
L 275.791742 135.771615 
L 276.877543 141.83096 
L 277.963344 143.778915 
L 279.049146 142.89113 
L 280.134947 139.253799 
L 281.220748 142.817867 
L 282.306549 141.95594 
L 283.39235 138.676308 
L 284.478151 132.17307 
L 285.563953 132.595414 
L 286.649754 137.82731 
L 287.735555 137.318773 
L 288.821356 130.841393 
L 289.907157 134.29341 
L 290.992958 130.862941 
L 292.07876 128.600383 
L 293.164561 140.762171 
L 294.250362 126.436947 
L 295.336163 143.391048 
L 296.421964 141.727529 
L 298.593566 121.873044 
L 299.679368 137.982457 
L 300.765169 128.462475 
L 301.85097 124.928575 
L 302.936771 122.959072 
L 304.022572 139.469281 
L 305.108373 133.276336 
L 306.194175 135.909523 
L 307.279976 133.815041 
L 308.365777 143.809082 
L 309.451578 132.203238 
L 310.537379 144.791679 
L 311.62318 141.434474 
L 312.708981 143.421215 
L 313.794783 128.661246 
L 314.880584 123.864095 
L 315.966385 138.288441 
L 317.052186 134.259373 
L 318.137987 161.956952 
L 319.223788 149.299556 
L 320.30959 157.276689 
L 321.395391 155.620776 
L 322.481192 173.661918 
L 323.566993 129.129201 
L 324.652794 158.673011 
L 325.738595 141.622915 
L 326.824396 134.633871 
L 327.910198 147.474722 
L 328.995999 144.214188 
L 330.0818 141.593339 
L 331.167601 155.087395 
L 332.253402 164.571932 
L 333.339203 144.89942 
L 334.425005 158.396687 
L 335.510806 148.154968 
L 336.596607 150.376965 
L 337.682408 139.338585 
L 338.768209 137.219652 
L 339.85401 138.758103 
L 340.939811 139.004368 
L 342.025613 146.942186 
L 343.111414 135.168266 
L 344.197215 134.676799 
L 345.283016 142.710126 
L 346.368817 127.234229 
L 347.454618 123.049926 
L 348.54042 141.861128 
L 349.626221 125.009698 
L 350.712022 145.178579 
L 351.797823 143.882346 
L 352.883624 140.803239 
L 353.969425 135.00019 
L 355.055227 146.037163 
L 356.141028 142.89975 
L 357.226829 131.34562 
L 358.31263 130.147542 
L 359.398431 133.108261 
L 360.484232 132.711774 
L 361.570033 132.491983 
L 362.655835 118.989899 
L 364.827437 141.533596 
L 365.913238 129.302854 
L 366.999039 138.025553 
L 368.08484 141.193134 
L 369.170642 130.918967 
L 370.256443 141.723219 
L 371.342244 122.433297 
L 372.428045 141.516357 
L 373.513846 123.993385 
L 374.599647 125.93272 
L 375.685448 133.534915 
L 376.77125 136.159482 
L 377.857051 129.126159 
L 378.942852 141.512047 
L 380.028653 144.946826 
L 381.114454 129.363189 
L 382.200255 149.588302 
L 383.286057 158.224809 
L 384.371858 119.955257 
L 385.457659 133.422864 
L 386.54346 142.990252 
L 387.629261 138.447897 
L 388.715062 135.551823 
L 389.800863 142.559288 
L 390.886665 135.323413 
L 393.058267 130.414739 
L 394.144068 125.613807 
L 395.229869 111.508374 
L 396.31567 130.755201 
L 397.401472 125.738786 
L 398.487273 128.143562 
L 398.487273 128.143562 
" style="fill:none;stroke:#ff0000;stroke-linecap:square;stroke-width:1.5;"/>
   </g>
   <g id="line2d_29">
    <path clip-path="url(#p6fe55d1194)" d="M 73.832727 282.075075 
L 74.918528 271.550949 
L 76.00433 274.1238 
L 77.090131 273.011915 
L 78.175932 268.641946 
L 79.261733 258.69962 
L 80.347534 266.58625 
L 81.433335 257.174009 
L 82.519137 256.618066 
L 83.604938 248.79608 
L 84.690739 250.425122 
L 85.77654 247.96863 
L 86.862341 244.943267 
L 87.948142 233.423615 
L 89.033943 237.043708 
L 90.119745 246.09394 
L 91.205546 233.00989 
L 92.291347 243.883097 
L 93.377148 239.952711 
L 94.462949 239.745848 
L 95.54875 238.853754 
L 96.634552 224.476815 
L 97.720353 232.764241 
L 98.806154 231.587711 
L 99.891955 226.170501 
L 100.977756 215.594659 
L 102.063557 217.120269 
L 103.149358 204.553376 
L 104.23516 213.034736 
L 105.320961 199.9119 
L 106.406762 210.255022 
L 107.492563 211.651343 
L 108.578364 211.405694 
L 109.664165 201.166003 
L 110.749967 196.653817 
L 111.835768 205.820408 
L 112.921569 202.226173 
L 114.00737 212.646869 
L 115.093171 190.202294 
L 116.178972 192.930293 
L 117.264773 201.502155 
L 119.436376 215.387796 
L 120.522177 216.357464 
L 121.607978 224.282881 
L 122.693779 221.813461 
L 123.77958 212.271931 
L 124.865382 206.609071 
L 125.951183 209.207781 
L 127.036984 204.411158 
L 128.122785 207.992464 
L 130.294387 193.55088 
L 131.380189 204.449945 
L 132.46599 203.958646 
L 133.551791 205.910911 
L 134.637592 194.287827 
L 135.723393 207.604597 
L 136.809194 191.934767 
L 137.894995 209.414643 
L 138.980797 203.157054 
L 140.066598 211.302263 
L 141.152399 224.838824 
L 142.2382 224.929326 
L 143.324001 221.477309 
L 144.409802 223.132209 
L 145.495604 204.747309 
L 146.581405 220.934295 
L 147.667206 220.507642 
L 148.753007 224.373383 
L 149.838808 227.036737 
L 150.924609 225.536985 
L 152.01041 221.761745 
L 153.096212 208.651838 
L 154.182013 220.934295 
L 155.267814 208.74234 
L 156.353615 199.834327 
L 157.439416 215.232649 
L 158.525217 201.075501 
L 159.611019 222.705555 
L 160.69682 217.327132 
L 161.782621 212.530509 
L 162.868422 208.315687 
L 165.040024 201.476297 
L 166.125825 220.339566 
L 167.211627 221.322162 
L 168.297428 218.620022 
L 169.383229 215.116289 
L 170.46903 207.358948 
L 171.554831 215.491227 
L 172.640632 221.360949 
L 173.726434 215.81445 
L 174.812235 208.04418 
L 175.898036 208.845772 
L 176.983837 206.634929 
L 178.069638 213.151096 
L 179.155439 212.608082 
L 180.24124 216.667758 
L 181.327042 207.56581 
L 182.412843 204.398229 
L 183.498644 191.184891 
L 184.584445 215.491227 
L 185.670246 206.932294 
L 186.756047 216.590184 
L 187.841849 207.708028 
L 188.92765 209.56979 
L 190.013451 207.656313 
L 191.099252 187.603585 
L 192.185053 211.198832 
L 193.270854 214.366413 
L 194.356656 205.44547 
L 195.442457 209.944728 
L 196.528258 207.604597 
L 197.614059 186.84078 
L 198.69986 198.85173 
L 199.785661 219.899983 
L 200.871462 199.743824 
L 201.957264 208.8587 
L 203.043065 203.454419 
L 204.128866 226.403221 
L 205.214667 192.270919 
L 206.300468 225.110331 
L 207.386269 200.079976 
L 208.472071 217.93479 
L 209.557872 200.002402 
L 210.643673 184.099852 
L 211.729474 177.325107 
L 212.815275 201.153075 
L 213.901076 180.893484 
L 214.986877 213.021807 
L 216.072679 183.686127 
L 217.15848 189.594636 
L 218.244281 185.638392 
L 219.330082 210.655818 
L 220.415883 201.890022 
L 221.501684 209.375857 
L 222.587486 188.301745 
L 223.673287 203.829357 
L 224.759088 205.32911 
L 225.844889 210.681676 
L 226.93069 197.170973 
L 228.016491 186.905424 
L 229.102292 193.382804 
L 230.188094 197.481266 
L 231.273895 192.516568 
L 232.359696 208.238113 
L 233.445497 198.838801 
L 235.617099 201.864164 
L 236.702901 217.094411 
L 237.788702 198.554365 
L 238.874503 198.761228 
L 239.960304 201.773662 
L 241.046105 207.436521 
L 242.131906 195.955656 
L 243.217708 207.68217 
L 244.303509 161.448415 
L 245.38931 198.321645 
L 246.475111 191.275393 
L 247.560912 203.583708 
L 248.646713 194.49469 
L 249.732514 189.814427 
L 250.818316 196.84775 
L 251.904117 198.955161 
L 252.989918 205.471328 
L 254.075719 208.794056 
L 255.16152 199.187881 
L 256.247321 210.074017 
L 257.333123 201.592657 
L 258.418924 183.789559 
L 259.504725 193.460378 
L 260.590526 201.282364 
L 261.676327 197.688129 
L 262.762128 187.758732 
L 263.847929 199.834327 
L 264.933731 198.748299 
L 266.019532 186.168477 
L 267.105333 185.599605 
L 268.191134 185.677178 
L 269.276935 194.274898 
L 271.448538 189.297271 
L 272.534339 194.106823 
L 273.62014 186.271908 
L 274.705941 190.111792 
L 275.791742 187.577727 
L 276.877543 198.683654 
L 277.963344 211.767704 
L 279.049146 203.700068 
L 280.134947 201.747804 
L 281.220748 206.557356 
L 282.306549 198.127711 
L 283.39235 207.346019 
L 284.478151 199.162024 
L 285.563953 203.09241 
L 286.649754 191.469327 
L 287.735555 196.61503 
L 288.821356 187.526011 
L 289.907157 196.977039 
L 290.992958 191.120246 
L 292.07876 186.116761 
L 293.164561 199.394744 
L 294.250362 192.296776 
L 295.336163 205.148105 
L 296.421964 205.768693 
L 297.507765 191.818407 
L 298.593566 185.819396 
L 299.679368 194.01632 
L 301.85097 187.138144 
L 302.936771 187.345007 
L 304.022572 207.695099 
L 305.108373 188.521537 
L 306.194175 200.364412 
L 307.279976 194.520548 
L 308.365777 198.541436 
L 309.451578 191.236606 
L 310.537379 202.807974 
L 311.62318 198.231143 
L 312.708981 208.832843 
L 313.794783 190.126304 
L 314.880584 185.677178 
L 315.966385 194.856699 
L 317.052186 195.192323 
L 318.137987 210.526529 
L 319.223788 206.751289 
L 320.30959 206.298778 
L 321.395391 215.930303 
L 322.481192 234.031274 
L 323.566993 196.701729 
L 324.652794 213.939759 
L 325.738595 210.327779 
L 326.824396 192.581212 
L 327.910198 208.578574 
L 328.995999 207.630455 
L 330.0818 200.504348 
L 331.167601 209.983515 
L 332.253402 213.794111 
L 333.339203 204.062078 
L 334.425005 217.071089 
L 335.510806 207.932129 
L 336.596607 215.297294 
L 337.682408 202.382376 
L 338.768209 196.227163 
L 339.85401 203.345447 
L 340.939811 201.181835 
L 342.025613 207.475308 
L 343.111414 196.925323 
L 344.197215 196.042609 
L 345.283016 204.928314 
L 346.368817 183.595625 
L 347.454618 181.88083 
L 348.54042 196.472812 
L 349.626221 180.857486 
L 350.712022 201.432497 
L 351.797823 198.761228 
L 352.883624 202.228202 
L 353.969425 199.834327 
L 355.055227 201.178932 
L 356.141028 202.807974 
L 357.226829 184.293786 
L 359.398431 189.646351 
L 360.484232 191.275393 
L 361.570033 190.047147 
L 362.655835 174.829829 
L 363.741636 183.427549 
L 364.827437 198.399218 
L 365.913238 185.599605 
L 366.999039 200.674705 
L 368.08484 191.921838 
L 369.170642 193.55088 
L 370.256443 213.719968 
L 371.342244 185.431529 
L 372.428045 205.005888 
L 373.513846 188.25003 
L 374.599647 193.227657 
L 375.685448 196.38231 
L 376.77125 188.275888 
L 377.857051 192.813932 
L 378.942852 198.761228 
L 380.028653 207.229659 
L 381.114454 181.255494 
L 382.200255 206.906436 
L 383.286057 211.069543 
L 384.371858 183.621483 
L 386.54346 198.476792 
L 387.629261 194.236112 
L 388.715062 192.788075 
L 389.800863 202.226173 
L 390.886665 191.120246 
L 391.972466 188.560324 
L 393.058267 189.348987 
L 394.144068 186.491699 
L 395.229869 159.961591 
L 396.31567 181.255494 
L 397.401472 178.734358 
L 398.487273 169.037681 
L 398.487273 169.037681 
" style="fill:none;stroke:#008000;stroke-linecap:square;stroke-width:1.5;"/>
   </g>
   <g id="patch_3">
    <path d="M 57.6 307.584 
L 57.6 41.472 
" style="fill:none;stroke:#000000;stroke-linecap:square;stroke-linejoin:miter;stroke-width:0.8;"/>
   </g>
   <g id="patch_4">
    <path d="M 414.72 307.584 
L 414.72 41.472 
" style="fill:none;stroke:#000000;stroke-linecap:square;stroke-linejoin:miter;stroke-width:0.8;"/>
   </g>
   <g id="patch_5">
    <path d="M 57.6 307.584 
L 414.72 307.584 
" style="fill:none;stroke:#000000;stroke-linecap:square;stroke-linejoin:miter;stroke-width:0.8;"/>
   </g>
   <g id="patch_6">
    <path d="M 57.6 41.472 
L 414.72 41.472 
" style="fill:none;stroke:#000000;stroke-linecap:square;stroke-linejoin:miter;stroke-width:0.8;"/>
   </g>
   <g id="text_16">
    <!-- Scores by generation -->
    <defs>
     <path id="DejaVuSans-32"/>
     <path d="M 48.6875 27.296875 
Q 48.6875 37.203125 44.609375 42.84375 
Q 40.53125 48.484375 33.40625 48.484375 
Q 26.265625 48.484375 22.1875 42.84375 
Q 18.109375 37.203125 18.109375 27.296875 
Q 18.109375 17.390625 22.1875 11.75 
Q 26.265625 6.109375 33.40625 6.109375 
Q 40.53125 6.109375 44.609375 11.75 
Q 48.6875 17.390625 48.6875 27.296875 
z
M 18.109375 46.390625 
Q 20.953125 51.265625 25.265625 53.625 
Q 29.59375 56 35.59375 56 
Q 45.5625 56 51.78125 48.09375 
Q 58.015625 40.1875 58.015625 27.296875 
Q 58.015625 14.40625 51.78125 6.484375 
Q 45.5625 -1.421875 35.59375 -1.421875 
Q 29.59375 -1.421875 25.265625 0.953125 
Q 20.953125 3.328125 18.109375 8.203125 
L 18.109375 0 
L 9.078125 0 
L 9.078125 75.984375 
L 18.109375 75.984375 
z
" id="DejaVuSans-98"/>
     <path d="M 32.171875 -5.078125 
Q 28.375 -14.84375 24.75 -17.8125 
Q 21.140625 -20.796875 15.09375 -20.796875 
L 7.90625 -20.796875 
L 7.90625 -13.28125 
L 13.1875 -13.28125 
Q 16.890625 -13.28125 18.9375 -11.515625 
Q 21 -9.765625 23.484375 -3.21875 
L 25.09375 0.875 
L 2.984375 54.6875 
L 12.5 54.6875 
L 29.59375 11.921875 
L 46.6875 54.6875 
L 56.203125 54.6875 
z
" id="DejaVuSans-121"/>
     <path d="M 45.40625 27.984375 
Q 45.40625 37.75 41.375 43.109375 
Q 37.359375 48.484375 30.078125 48.484375 
Q 22.859375 48.484375 18.828125 43.109375 
Q 14.796875 37.75 14.796875 27.984375 
Q 14.796875 18.265625 18.828125 12.890625 
Q 22.859375 7.515625 30.078125 7.515625 
Q 37.359375 7.515625 41.375 12.890625 
Q 45.40625 18.265625 45.40625 27.984375 
z
M 54.390625 6.78125 
Q 54.390625 -7.171875 48.1875 -13.984375 
Q 42 -20.796875 29.203125 -20.796875 
Q 24.46875 -20.796875 20.265625 -20.09375 
Q 16.0625 -19.390625 12.109375 -17.921875 
L 12.109375 -9.1875 
Q 16.0625 -11.328125 19.921875 -12.34375 
Q 23.78125 -13.375 27.78125 -13.375 
Q 36.625 -13.375 41.015625 -8.765625 
Q 45.40625 -4.15625 45.40625 5.171875 
L 45.40625 9.625 
Q 42.625 4.78125 38.28125 2.390625 
Q 33.9375 0 27.875 0 
Q 17.828125 0 11.671875 7.65625 
Q 5.515625 15.328125 5.515625 27.984375 
Q 5.515625 40.671875 11.671875 48.328125 
Q 17.828125 56 27.875 56 
Q 33.9375 56 38.28125 53.609375 
Q 42.625 51.21875 45.40625 46.390625 
L 45.40625 54.6875 
L 54.390625 54.6875 
z
" id="DejaVuSans-103"/>
    </defs>
    <g transform="translate(172.292812 35.472)scale(0.12 -0.12)">
     <use xlink:href="#DejaVuSans-83"/>
     <use x="63.476562" xlink:href="#DejaVuSans-99"/>
     <use x="118.457031" xlink:href="#DejaVuSans-111"/>
     <use x="179.638672" xlink:href="#DejaVuSans-114"/>
     <use x="220.720703" xlink:href="#DejaVuSans-101"/>
     <use x="282.244141" xlink:href="#DejaVuSans-115"/>
     <use x="334.34375" xlink:href="#DejaVuSans-32"/>
     <use x="366.130859" xlink:href="#DejaVuSans-98"/>
     <use x="429.607422" xlink:href="#DejaVuSans-121"/>
     <use x="488.787109" xlink:href="#DejaVuSans-32"/>
     <use x="520.574219" xlink:href="#DejaVuSans-103"/>
     <use x="584.050781" xlink:href="#DejaVuSans-101"/>
     <use x="645.574219" xlink:href="#DejaVuSans-110"/>
     <use x="708.953125" xlink:href="#DejaVuSans-101"/>
     <use x="770.476562" xlink:href="#DejaVuSans-114"/>
     <use x="811.589844" xlink:href="#DejaVuSans-97"/>
     <use x="872.869141" xlink:href="#DejaVuSans-116"/>
     <use x="912.078125" xlink:href="#DejaVuSans-105"/>
     <use x="939.861328" xlink:href="#DejaVuSans-111"/>
     <use x="1001.042969" xlink:href="#DejaVuSans-110"/>
    </g>
   </g>
   <g id="legend_1">
    <g id="patch_7">
     <path d="M 338.37 302.584 
L 407.72 302.584 
Q 409.72 302.584 409.72 300.584 
L 409.72 257.549625 
Q 409.72 255.549625 407.72 255.549625 
L 338.37 255.549625 
Q 336.37 255.549625 336.37 257.549625 
L 336.37 300.584 
Q 336.37 302.584 338.37 302.584 
z
" style="fill:#ffffff;opacity:0.8;stroke:#cccccc;stroke-linejoin:miter;"/>
    </g>
    <g id="line2d_30">
     <path d="M 340.37 263.648062 
L 360.37 263.648062 
" style="fill:none;stroke:#0000ff;stroke-linecap:square;stroke-width:1.5;"/>
    </g>
    <g id="line2d_31"/>
    <g id="text_17">
     <!-- species -->
     <defs>
      <path d="M 18.109375 8.203125 
L 18.109375 -20.796875 
L 9.078125 -20.796875 
L 9.078125 54.6875 
L 18.109375 54.6875 
L 18.109375 46.390625 
Q 20.953125 51.265625 25.265625 53.625 
Q 29.59375 56 35.59375 56 
Q 45.5625 56 51.78125 48.09375 
Q 58.015625 40.1875 58.015625 27.296875 
Q 58.015625 14.40625 51.78125 6.484375 
Q 45.5625 -1.421875 35.59375 -1.421875 
Q 29.59375 -1.421875 25.265625 0.953125 
Q 20.953125 3.328125 18.109375 8.203125 
z
M 48.6875 27.296875 
Q 48.6875 37.203125 44.609375 42.84375 
Q 40.53125 48.484375 33.40625 48.484375 
Q 26.265625 48.484375 22.1875 42.84375 
Q 18.109375 37.203125 18.109375 27.296875 
Q 18.109375 17.390625 22.1875 11.75 
Q 26.265625 6.109375 33.40625 6.109375 
Q 40.53125 6.109375 44.609375 11.75 
Q 48.6875 17.390625 48.6875 27.296875 
z
" id="DejaVuSans-112"/>
     </defs>
     <g transform="translate(368.37 267.148062)scale(0.1 -0.1)">
      <use xlink:href="#DejaVuSans-115"/>
      <use x="52.099609" xlink:href="#DejaVuSans-112"/>
      <use x="115.576172" xlink:href="#DejaVuSans-101"/>
      <use x="177.099609" xlink:href="#DejaVuSans-99"/>
      <use x="232.080078" xlink:href="#DejaVuSans-105"/>
      <use x="259.863281" xlink:href="#DejaVuSans-101"/>
      <use x="321.386719" xlink:href="#DejaVuSans-115"/>
     </g>
    </g>
    <g id="line2d_32">
     <path d="M 340.37 278.326188 
L 360.37 278.326188 
" style="fill:none;stroke:#ff0000;stroke-linecap:square;stroke-width:1.5;"/>
    </g>
    <g id="line2d_33"/>
    <g id="text_18">
     <!-- bits -->
     <g transform="translate(368.37 281.826188)scale(0.1 -0.1)">
      <use xlink:href="#DejaVuSans-98"/>
      <use x="63.476562" xlink:href="#DejaVuSans-105"/>
      <use x="91.259766" xlink:href="#DejaVuSans-116"/>
      <use x="130.46875" xlink:href="#DejaVuSans-115"/>
     </g>
    </g>
    <g id="line2d_34">
     <path d="M 340.37 293.004312 
L 360.37 293.004312 
" style="fill:none;stroke:#008000;stroke-linecap:square;stroke-width:1.5;"/>
    </g>
    <g id="line2d_35"/>
    <g id="text_19">
     <!-- total -->
     <defs>
      <path d="M 9.421875 75.984375 
L 18.40625 75.984375 
L 18.40625 0 
L 9.421875 0 
z
" id="DejaVuSans-108"/>
     </defs>
     <g transform="translate(368.37 296.504312)scale(0.1 -0.1)">
      <use xlink:href="#DejaVuSans-116"/>
      <use x="39.208984" xlink:href="#DejaVuSans-111"/>
      <use x="100.390625" xlink:href="#DejaVuSans-116"/>
      <use x="139.599609" xlink:href="#DejaVuSans-97"/>
      <use x="200.878906" xlink:href="#DejaVuSans-108"/>
     </g>
    </g>
   </g>
  </g>
 </g>
 <defs>
  <clipPath id="p6fe55d1194">
   <rect height="266.112" width="357.12" x="57.6" y="41.472"/>
  </clipPath>
 </defs>
</svg>
