<?xml version="1.0" encoding="UTF-8" standalone="no"?>
<!DOCTYPE svg PUBLIC "-//W3C//DTD SVG 1.1//EN"
 "http://www.w3.org/Graphics/SVG/1.1/DTD/svg11.dtd">
<!-- Generated by graphviz version 2.40.1 (20161225.0304)
 -->
<!-- Title: %3 Pages: 1 -->
<svg width="485pt" height="182pt"
 viewBox="0.00 0.00 484.77 181.85" xmlns="http://www.w3.org/2000/svg" xmlns:xlink="http://www.w3.org/1999/xlink">
<g id="graph0" class="graph" transform="scale(1 1) rotate(0) translate(4 177.8494)">
<title>%3</title>
<polygon fill="#ffffff" stroke="transparent" points="-4,4 -4,-177.8494 480.7661,-177.8494 480.7661,4 -4,4"/>
<!-- 0 -->
<g id="node1" class="node">
<title>0</title>
<polygon fill="#d3d3d3" stroke="#000000" points="224.389,-173.8494 204.3771,-173.8494 204.3771,-156.8494 224.389,-156.8494 224.389,-173.8494"/>
<text text-anchor="middle" x="214.383" y="-162.6494" font-family="Times,serif" font-size="9.00" fill="#000000">0</text>
</g>
<!-- 1 -->
<g id="node2" class="node">
<title>1</title>
<polygon fill="#d3d3d3" stroke="#000000" points="289.389,-173.8494 269.3771,-173.8494 269.3771,-156.8494 289.389,-156.8494 289.389,-173.8494"/>
<text text-anchor="middle" x="279.383" y="-162.6494" font-family="Times,serif" font-size="9.00" fill="#000000">1</text>
</g>
<!-- 0&#45;&gt;1 -->
<!-- E1 -->
<g id="node5" class="node">
<title>E1</title>
<ellipse fill="#87cefa" stroke="#000000" cx="73.383" cy="-18.383" rx="18.2668" ry="18.2668"/>
<text text-anchor="middle" x="73.383" y="-15.683" font-family="Times,serif" font-size="9.00" fill="#000000">E1</text>
</g>
<!-- 0&#45;&gt;E1 -->
<g id="edge11" class="edge">
<title>0&#45;&gt;E1</title>
<path fill="none" stroke="#ff0000" stroke-width="1.9066" d="M205.9851,-156.5961C184.0306,-133.7126 124.4679,-71.6296 93.1833,-39.0211"/>
<polygon fill="#ff0000" stroke="#ff0000" stroke-width="1.9066" points="95.6871,-36.5752 86.2383,-31.7823 90.6358,-41.4214 95.6871,-36.5752"/>
</g>
<!-- 2 -->
<g id="node3" class="node">
<title>2</title>
<polygon fill="#d3d3d3" stroke="#000000" points="341.389,-173.8494 321.3771,-173.8494 321.3771,-156.8494 341.389,-156.8494 341.389,-173.8494"/>
<text text-anchor="middle" x="331.383" y="-162.6494" font-family="Times,serif" font-size="9.00" fill="#000000">2</text>
</g>
<!-- 1&#45;&gt;2 -->
<!-- E4 -->
<g id="node8" class="node">
<title>E4</title>
<ellipse fill="#87cefa" stroke="#000000" cx="238.383" cy="-18.383" rx="18.2668" ry="18.2668"/>
<text text-anchor="middle" x="238.383" y="-15.683" font-family="Times,serif" font-size="9.00" fill="#000000">E4</text>
</g>
<!-- 1&#45;&gt;E4 -->
<g id="edge13" class="edge">
<title>1&#45;&gt;E4</title>
<path fill="none" stroke="#00ff00" stroke-width="2.5587" d="M275.0877,-156.6736C270.8562,-147.8398 264.4514,-133.6595 260.383,-120.8494 252.5979,-96.336 246.7024,-67.6516 242.9835,-46.8769"/>
<polygon fill="#00ff00" stroke="#00ff00" stroke-width="2.5587" points="246.3933,-46.0544 241.2387,-36.7981 239.4959,-47.2486 246.3933,-46.0544"/>
</g>
<!-- E7 -->
<g id="node11" class="node">
<title>E7</title>
<ellipse fill="#87cefa" stroke="#000000" cx="403.383" cy="-18.383" rx="18.2668" ry="18.2668"/>
<text text-anchor="middle" x="403.383" y="-15.683" font-family="Times,serif" font-size="9.00" fill="#000000">E7</text>
</g>
<!-- 1&#45;&gt;E7 -->
<g id="edge14" class="edge">
<title>1&#45;&gt;E7</title>
<path fill="none" stroke="#ff0000" stroke-width=".1653" d="M289.5757,-156.6022C299.4294,-147.9425 314.5621,-134.0962 326.383,-120.8494 349.0697,-95.4261 372.1653,-63.7563 387.064,-42.4085"/>
<polygon fill="#ff0000" stroke="#ff0000" stroke-width=".1653" points="390.1116,-44.155 392.9222,-33.9398 384.3548,-40.1727 390.1116,-44.155"/>
</g>
<!-- 2&#45;&gt;E7 -->
<g id="edge12" class="edge">
<title>2&#45;&gt;E7</title>
<path fill="none" stroke="#ff0000" stroke-width="1.9432" d="M340.6838,-156.6026C349.1892,-148.1581 361.5968,-134.6532 369.383,-120.8494 382.6777,-97.2801 391.7908,-67.7052 397.2105,-46.395"/>
<polygon fill="#ff0000" stroke="#ff0000" stroke-width="1.9432" points="400.6157,-47.2038 399.5764,-36.6601 393.8137,-45.5506 400.6157,-47.2038"/>
</g>
<!-- E0 -->
<g id="node4" class="node">
<title>E0</title>
<ellipse fill="#87cefa" stroke="#000000" cx="18.383" cy="-18.383" rx="18.2668" ry="18.2668"/>
<text text-anchor="middle" x="18.383" y="-15.683" font-family="Times,serif" font-size="9.00" fill="#000000">E0</text>
</g>
<!-- E0&#45;&gt;E1 -->
<!-- E2 -->
<g id="node6" class="node">
<title>E2</title>
<ellipse fill="#87cefa" stroke="#000000" cx="128.383" cy="-18.383" rx="18.2668" ry="18.2668"/>
<text text-anchor="middle" x="128.383" y="-15.683" font-family="Times,serif" font-size="9.00" fill="#000000">E2</text>
</g>
<!-- E1&#45;&gt;E2 -->
<!-- E3 -->
<g id="node7" class="node">
<title>E3</title>
<ellipse fill="#87cefa" stroke="#000000" cx="183.383" cy="-18.383" rx="18.2668" ry="18.2668"/>
<text text-anchor="middle" x="183.383" y="-15.683" font-family="Times,serif" font-size="9.00" fill="#000000">E3</text>
</g>
<!-- E2&#45;&gt;E3 -->
<!-- E3&#45;&gt;E4 -->
<!-- E5 -->
<g id="node9" class="node">
<title>E5</title>
<ellipse fill="#87cefa" stroke="#000000" cx="293.383" cy="-18.383" rx="18.2668" ry="18.2668"/>
<text text-anchor="middle" x="293.383" y="-15.683" font-family="Times,serif" font-size="9.00" fill="#000000">E5</text>
</g>
<!-- E4&#45;&gt;E5 -->
<!-- E6 -->
<g id="node10" class="node">
<title>E6</title>
<ellipse fill="#87cefa" stroke="#000000" cx="348.383" cy="-18.383" rx="18.2668" ry="18.2668"/>
<text text-anchor="middle" x="348.383" y="-15.683" font-family="Times,serif" font-size="9.00" fill="#000000">E6</text>
</g>
<!-- E5&#45;&gt;E6 -->
<!-- E6&#45;&gt;E7 -->
<!-- E8 -->
<g id="node12" class="node">
<title>E8</title>
<ellipse fill="#87cefa" stroke="#000000" cx="458.383" cy="-18.383" rx="18.2668" ry="18.2668"/>
<text text-anchor="middle" x="458.383" y="-15.683" font-family="Times,serif" font-size="9.00" fill="#000000">E8</text>
</g>
<!-- E7&#45;&gt;E8 -->
<!-- 5309 -->
<g id="node13" class="node">
<title>5309</title>
<ellipse fill="#add8e6" stroke="#000000" cx="293.383" cy="-96.8077" rx="24.0833" ry="24.0833"/>
<text text-anchor="middle" x="293.383" y="-98.6077" font-family="Times,serif" font-size="9.00" fill="#000000">5309</text>
<text text-anchor="middle" x="293.383" y="-89.6077" font-family="Times,serif" font-size="9.00" fill="#000000">sigm</text>
</g>
<!-- 5309&#45;&gt;E5 -->
<g id="edge15" class="edge">
<title>5309&#45;&gt;E5</title>
<path fill="none" stroke="#ff0000" stroke-width=".3278" d="M293.383,-72.4236C293.383,-64.33 293.383,-55.248 293.383,-46.8729"/>
<polygon fill="#ff0000" stroke="#ff0000" stroke-width=".3278" points="296.8831,-46.7701 293.383,-36.7702 289.8831,-46.7702 296.8831,-46.7701"/>
</g>
</g>
</svg>
