<?xml version="1.0" encoding="UTF-8" standalone="no"?>
<!DOCTYPE svg PUBLIC "-//W3C//DTD SVG 1.1//EN"
 "http://www.w3.org/Graphics/SVG/1.1/DTD/svg11.dtd">
<!-- Generated by graphviz version 2.40.1 (20161225.0304)
 -->
<!-- Title: %3 Pages: 1 -->
<svg width="545pt" height="259pt"
 viewBox="0.00 0.00 544.62 258.87" xmlns="http://www.w3.org/2000/svg" xmlns:xlink="http://www.w3.org/1999/xlink">
<g id="graph0" class="graph" transform="scale(1 1) rotate(0) translate(4 254.8726)">
<title>%3</title>
<polygon fill="#ffffff" stroke="transparent" points="-4,4 -4,-254.8726 540.6212,-254.8726 540.6212,4 -4,4"/>
<!-- E0 -->
<g id="node1" class="node">
<title>E0</title>
<polygon fill="#d3d3d3" stroke="#000000" points="25.9963,-250.8726 .0012,-250.8726 .0012,-233.8726 25.9963,-233.8726 25.9963,-250.8726"/>
<text text-anchor="middle" x="12.9988" y="-239.6726" font-family="Times,serif" font-size="9.00" fill="#000000">E0</text>
</g>
<!-- E1 -->
<g id="node2" class="node">
<title>E1</title>
<polygon fill="#d3d3d3" stroke="#000000" points="69.9963,-250.8726 44.0012,-250.8726 44.0012,-233.8726 69.9963,-233.8726 69.9963,-250.8726"/>
<text text-anchor="middle" x="56.9988" y="-239.6726" font-family="Times,serif" font-size="9.00" fill="#000000">E1</text>
</g>
<!-- E0&#45;&gt;E1 -->
<!-- 1 -->
<g id="node11" class="node">
<title>1</title>
<ellipse fill="#87cefa" stroke="#000000" cx="168.9988" cy="-14.853" rx="14.4914" ry="14.4914"/>
<text text-anchor="middle" x="168.9988" y="-12.153" font-family="Times,serif" font-size="9.00" fill="#000000">1</text>
</g>
<!-- E0&#45;&gt;1 -->
<g id="edge23" class="edge">
<title>E0&#45;&gt;1</title>
<path fill="none" stroke="#ff0000" stroke-width=".4476" d="M13.3075,-233.7472C14.7646,-205.7384 23.0562,-116.2334 69.9988,-65.7061 95.1651,-38.6179 112.5657,-47.4602 144.9988,-29.7061 145.8262,-29.2532 146.6649,-28.7844 147.5084,-28.3046"/>
<polygon fill="#ff0000" stroke="#ff0000" stroke-width=".4476" points="149.6502,-31.1024 156.4437,-22.9723 146.063,-25.0914 149.6502,-31.1024"/>
</g>
<!-- E2 -->
<g id="node3" class="node">
<title>E2</title>
<polygon fill="#d3d3d3" stroke="#000000" points="183.9963,-250.8726 158.0012,-250.8726 158.0012,-233.8726 183.9963,-233.8726 183.9963,-250.8726"/>
<text text-anchor="middle" x="170.9988" y="-239.6726" font-family="Times,serif" font-size="9.00" fill="#000000">E2</text>
</g>
<!-- E1&#45;&gt;E2 -->
<!-- S -->
<g id="node13" class="node">
<title>S</title>
<ellipse fill="#87cefa" stroke="#000000" cx="376.9988" cy="-14.853" rx="14.7075" ry="14.7075"/>
<text text-anchor="middle" x="376.9988" y="-12.153" font-family="Times,serif" font-size="9.00" fill="#000000">S</text>
</g>
<!-- E1&#45;&gt;S -->
<g id="edge25" class="edge">
<title>E1&#45;&gt;S</title>
<path fill="none" stroke="#ff0000" stroke-width=".4736" d="M55.727,-233.7423C53.6194,-216.1288 51.3128,-175.5363 69.9988,-149.7893 76.2462,-141.1812 232.2334,-69.9211 241.9988,-65.7061 280.3315,-49.1606 325.9864,-32.5996 353.1727,-23.0593"/>
<polygon fill="#ff0000" stroke="#ff0000" stroke-width=".4736" points="354.3433,-26.3579 362.634,-19.7614 352.0392,-19.748 354.3433,-26.3579"/>
</g>
<!-- E3 -->
<g id="node4" class="node">
<title>E3</title>
<polygon fill="#d3d3d3" stroke="#000000" points="243.9963,-250.8726 218.0012,-250.8726 218.0012,-233.8726 243.9963,-233.8726 243.9963,-250.8726"/>
<text text-anchor="middle" x="230.9988" y="-239.6726" font-family="Times,serif" font-size="9.00" fill="#000000">E3</text>
</g>
<!-- E2&#45;&gt;E3 -->
<!-- E2&#45;&gt;1 -->
<g id="edge17" class="edge">
<title>E2&#45;&gt;1</title>
<path fill="none" stroke="#00ff00" stroke-width=".4812" d="M170.9228,-233.7314C170.6423,-201.8191 169.6581,-89.8582 169.2163,-39.6001"/>
<polygon fill="#00ff00" stroke="#00ff00" stroke-width=".4812" points="172.7162,-39.5584 169.1283,-29.5895 165.7165,-39.62 172.7162,-39.5584"/>
</g>
<!-- E2&#45;&gt;S -->
<g id="edge16" class="edge">
<title>E2&#45;&gt;S</title>
<path fill="none" stroke="#00ff00" stroke-width="1.5358" d="M174.9513,-233.6267C187.7866,-205.9987 230.7981,-119.2596 287.9988,-65.7061 307.4689,-47.4775 334.6463,-33.1628 353.8331,-24.4271"/>
<polygon fill="#00ff00" stroke="#00ff00" stroke-width="1.5358" points="355.3071,-27.6025 363.0551,-20.3763 352.4918,-21.1935 355.3071,-27.6025"/>
</g>
<!-- 5058 -->
<g id="node15" class="node">
<title>5058</title>
<ellipse fill="#add8e6" stroke="#000000" cx="320.9988" cy="-173.831" rx="24.0833" ry="24.0833"/>
<text text-anchor="middle" x="320.9988" y="-175.631" font-family="Times,serif" font-size="9.00" fill="#000000">5058</text>
<text text-anchor="middle" x="320.9988" y="-166.631" font-family="Times,serif" font-size="9.00" fill="#000000">sigm</text>
</g>
<!-- E2&#45;&gt;5058 -->
<g id="edge21" class="edge">
<title>E2&#45;&gt;5058</title>
<path fill="none" stroke="#00ff00" stroke-width=".8517" d="M184.0479,-236.4099C207.4673,-225.7085 257.2277,-202.9708 289.8769,-188.0519"/>
<polygon fill="#00ff00" stroke="#00ff00" stroke-width=".8517" points="291.3628,-191.2211 299.0036,-183.8815 288.4535,-184.8543 291.3628,-191.2211"/>
</g>
<!-- 5143 -->
<g id="node17" class="node">
<title>5143</title>
<ellipse fill="#add8e6" stroke="#000000" cx="102.9988" cy="-173.831" rx="24.0833" ry="24.0833"/>
<text text-anchor="middle" x="102.9988" y="-175.631" font-family="Times,serif" font-size="9.00" fill="#000000">5143</text>
<text text-anchor="middle" x="102.9988" y="-166.631" font-family="Times,serif" font-size="9.00" fill="#000000">sigm</text>
</g>
<!-- E2&#45;&gt;5143 -->
<g id="edge22" class="edge">
<title>E2&#45;&gt;5143</title>
<path fill="none" stroke="#ff0000" stroke-width=".3302" d="M162.3865,-233.6918C153.6263,-224.8617 139.6418,-210.7659 127.4434,-198.4703"/>
<polygon fill="#ff0000" stroke="#ff0000" stroke-width=".3302" points="129.6693,-195.7444 120.1416,-191.1103 124.6999,-200.6745 129.6693,-195.7444"/>
</g>
<!-- E4 -->
<g id="node5" class="node">
<title>E4</title>
<polygon fill="#d3d3d3" stroke="#000000" points="287.9963,-250.8726 262.0012,-250.8726 262.0012,-233.8726 287.9963,-233.8726 287.9963,-250.8726"/>
<text text-anchor="middle" x="274.9988" y="-239.6726" font-family="Times,serif" font-size="9.00" fill="#000000">E4</text>
</g>
<!-- E3&#45;&gt;E4 -->
<!-- 2 -->
<g id="node12" class="node">
<title>2</title>
<ellipse fill="#87cefa" stroke="#000000" cx="263.9988" cy="-14.853" rx="14.4914" ry="14.4914"/>
<text text-anchor="middle" x="263.9988" y="-12.153" font-family="Times,serif" font-size="9.00" fill="#000000">2</text>
</g>
<!-- E3&#45;&gt;2 -->
<g id="edge15" class="edge">
<title>E3&#45;&gt;2</title>
<path fill="none" stroke="#ff0000" stroke-width="1.2581" d="M232.2521,-233.7314C236.8917,-201.7435 253.1969,-89.3272 260.4611,-39.2438"/>
<polygon fill="#ff0000" stroke="#ff0000" stroke-width="1.2581" points="263.9342,-39.6812 261.9059,-29.2824 257.0067,-38.6764 263.9342,-39.6812"/>
</g>
<!-- 5395 -->
<g id="node16" class="node">
<title>5395</title>
<ellipse fill="#add8e6" stroke="#000000" cx="500.9988" cy="-173.831" rx="24.0833" ry="24.0833"/>
<text text-anchor="middle" x="500.9988" y="-175.631" font-family="Times,serif" font-size="9.00" fill="#000000">5395</text>
<text text-anchor="middle" x="500.9988" y="-166.631" font-family="Times,serif" font-size="9.00" fill="#000000">sigm</text>
</g>
<!-- E3&#45;&gt;5395 -->
<g id="edge31" class="edge">
<title>E3&#45;&gt;5395</title>
<path fill="none" stroke="#00ff00" stroke-width=".2096" d="M244.3962,-236.8753C247.2138,-235.81 250.1851,-234.7526 252.9988,-233.8726 328.43,-210.2814 419.1733,-190.4108 467.2507,-180.5329"/>
<polygon fill="#00ff00" stroke="#00ff00" stroke-width=".2096" points="468.0214,-183.9478 477.1217,-178.5223 466.6243,-177.0886 468.0214,-183.9478"/>
</g>
<!-- E5 -->
<g id="node6" class="node">
<title>E5</title>
<polygon fill="#d3d3d3" stroke="#000000" points="385.9963,-250.8726 360.0012,-250.8726 360.0012,-233.8726 385.9963,-233.8726 385.9963,-250.8726"/>
<text text-anchor="middle" x="372.9988" y="-239.6726" font-family="Times,serif" font-size="9.00" fill="#000000">E5</text>
</g>
<!-- E4&#45;&gt;E5 -->
<!-- 5021 -->
<g id="node18" class="node">
<title>5021</title>
<ellipse fill="#add8e6" stroke="#000000" cx="320.9988" cy="-89.7477" rx="24.0833" ry="24.0833"/>
<text text-anchor="middle" x="320.9988" y="-91.5477" font-family="Times,serif" font-size="9.00" fill="#000000">5021</text>
<text text-anchor="middle" x="320.9988" y="-82.5477" font-family="Times,serif" font-size="9.00" fill="#000000">sigm</text>
</g>
<!-- E4&#45;&gt;5021 -->
<g id="edge18" class="edge">
<title>E4&#45;&gt;5021</title>
<path fill="none" stroke="#00ff00" stroke-width=".2665" d="M275.1773,-233.712C275.7448,-217.042 278.1141,-179.5151 287.9988,-149.7893 291.5541,-139.0976 296.9966,-128.0975 302.4429,-118.4811"/>
<polygon fill="#00ff00" stroke="#00ff00" stroke-width=".2665" points="305.5333,-120.1309 307.6043,-109.7405 299.5058,-116.5716 305.5333,-120.1309"/>
</g>
<!-- E6 -->
<g id="node7" class="node">
<title>E6</title>
<polygon fill="#d3d3d3" stroke="#000000" points="445.9963,-250.8726 420.0012,-250.8726 420.0012,-233.8726 445.9963,-233.8726 445.9963,-250.8726"/>
<text text-anchor="middle" x="432.9988" y="-239.6726" font-family="Times,serif" font-size="9.00" fill="#000000">E6</text>
</g>
<!-- E5&#45;&gt;E6 -->
<!-- 0 -->
<g id="node10" class="node">
<title>0</title>
<ellipse fill="#87cefa" stroke="#000000" cx="121.9988" cy="-14.853" rx="14.4914" ry="14.4914"/>
<text text-anchor="middle" x="121.9988" y="-12.153" font-family="Times,serif" font-size="9.00" fill="#000000">0</text>
</g>
<!-- E5&#45;&gt;0 -->
<g id="edge13" class="edge">
<title>E5&#45;&gt;0</title>
<path fill="none" stroke="#00ff00" stroke-width="1.994" d="M375.2787,-233.5557C382.0928,-204.9599 399.1552,-113.8608 353.9988,-65.7061 289.8237,2.7302 233.7113,-63.0001 145.9988,-29.7061 144.9451,-29.3061 143.8871,-28.8582 142.8339,-28.374"/>
<polygon fill="#00ff00" stroke="#00ff00" stroke-width="1.994" points="144.186,-25.1228 133.7387,-23.3603 140.8066,-31.2531 144.186,-25.1228"/>
</g>
<!-- E5&#45;&gt;S -->
<g id="edge20" class="edge">
<title>E5&#45;&gt;S</title>
<path fill="none" stroke="#ff0000" stroke-width=".1909" d="M376.5985,-233.696C380.0546,-224.8616 385.0315,-210.6808 386.9988,-197.8726 395.9163,-139.8128 392.6926,-124.1702 386.9988,-65.7061 386.1525,-57.0166 384.5111,-47.6085 382.799,-39.275"/>
<polygon fill="#ff0000" stroke="#ff0000" stroke-width=".1909" points="386.2015,-38.4508 380.6469,-29.4288 379.363,-39.9456 386.2015,-38.4508"/>
</g>
<!-- E5&#45;&gt;5058 -->
<g id="edge30" class="edge">
<title>E5&#45;&gt;5058</title>
<path fill="none" stroke="#ff0000" stroke-width=".4188" d="M366.4129,-233.6918C360.2114,-225.5174 350.5862,-212.8304 341.7903,-201.2364"/>
<polygon fill="#ff0000" stroke="#ff0000" stroke-width=".4188" points="344.4253,-198.9189 335.5928,-193.0675 338.8486,-203.1497 344.4253,-198.9189"/>
</g>
<!-- E7 -->
<g id="node8" class="node">
<title>E7</title>
<polygon fill="#d3d3d3" stroke="#000000" points="489.9963,-250.8726 464.0012,-250.8726 464.0012,-233.8726 489.9963,-233.8726 489.9963,-250.8726"/>
<text text-anchor="middle" x="476.9988" y="-239.6726" font-family="Times,serif" font-size="9.00" fill="#000000">E7</text>
</g>
<!-- E6&#45;&gt;E7 -->
<!-- E6&#45;&gt;1 -->
<g id="edge14" class="edge">
<title>E6&#45;&gt;1</title>
<path fill="none" stroke="#ff0000" stroke-width="1.5399" d="M433.2035,-233.8713C433.3977,-205.4747 430,-113.0322 379.9988,-65.7061 373.1341,-59.2087 247.377,-31.6497 193.3418,-20.0414"/>
<polygon fill="#ff0000" stroke="#ff0000" stroke-width="1.5399" points="193.7687,-16.5535 183.2574,-17.8814 192.3026,-23.3982 193.7687,-16.5535"/>
</g>
<!-- E8 -->
<g id="node9" class="node">
<title>E8</title>
<polygon fill="#d3d3d3" stroke="#000000" points="533.9963,-250.8726 508.0012,-250.8726 508.0012,-233.8726 533.9963,-233.8726 533.9963,-250.8726"/>
<text text-anchor="middle" x="520.9988" y="-239.6726" font-family="Times,serif" font-size="9.00" fill="#000000">E8</text>
</g>
<!-- E7&#45;&gt;E8 -->
<!-- E8&#45;&gt;S -->
<g id="edge12" class="edge">
<title>E8&#45;&gt;S</title>
<path fill="none" stroke="#00ff00" stroke-width="2.1182" d="M524.4513,-233.5742C530.4763,-216.9814 541.5789,-180.0173 533.9988,-149.7893 523.6892,-108.6766 519.9307,-94.6847 488.9988,-65.7061 463.9082,-42.1999 426.0783,-28.1465 401.4566,-20.9534"/>
<polygon fill="#00ff00" stroke="#00ff00" stroke-width="2.1182" points="402.3597,-17.5718 391.7888,-18.283 400.496,-24.3192 402.3597,-17.5718"/>
</g>
<!-- E8&#45;&gt;5395 -->
<g id="edge26" class="edge">
<title>E8&#45;&gt;5395</title>
<path fill="none" stroke="#00ff00" stroke-width=".4896" d="M518.4658,-233.6918C516.4634,-226.8294 513.533,-216.7868 510.6424,-206.8803"/>
<polygon fill="#00ff00" stroke="#00ff00" stroke-width=".4896" points="513.9619,-205.7614 507.8008,-197.1421 507.2421,-207.7222 513.9619,-205.7614"/>
</g>
<!-- 0&#45;&gt;1 -->
<!-- 1&#45;&gt;2 -->
<!-- 2&#45;&gt;S -->
<!-- 5410 -->
<g id="node14" class="node">
<title>5410</title>
<ellipse fill="#add8e6" stroke="#000000" cx="102.9988" cy="-89.7477" rx="24.0833" ry="24.0833"/>
<text text-anchor="middle" x="102.9988" y="-91.5477" font-family="Times,serif" font-size="9.00" fill="#000000">5410</text>
<text text-anchor="middle" x="102.9988" y="-82.5477" font-family="Times,serif" font-size="9.00" fill="#000000">sigm</text>
</g>
<!-- 5410&#45;&gt;1 -->
<g id="edge29" class="edge">
<title>5410&#45;&gt;1</title>
<path fill="none" stroke="#00ff00" stroke-width=".6696" d="M118.9755,-71.6178C129.0448,-60.1915 142.0259,-45.461 152.2409,-33.8693"/>
<polygon fill="#00ff00" stroke="#00ff00" stroke-width=".6696" points="155.1233,-35.8922 159.109,-26.0757 149.8716,-31.2642 155.1233,-35.8922"/>
</g>
<!-- 5058&#45;&gt;5021 -->
<g id="edge24" class="edge">
<title>5058&#45;&gt;5021</title>
<path fill="none" stroke="#00ff00" stroke-width=".5142" d="M320.9988,-149.5106C320.9988,-141.5798 320.9988,-132.6191 320.9988,-124.0953"/>
<polygon fill="#00ff00" stroke="#00ff00" stroke-width=".5142" points="324.4989,-124.0134 320.9988,-114.0134 317.4989,-124.0135 324.4989,-124.0134"/>
</g>
<!-- 5395&#45;&gt;S -->
<g id="edge27" class="edge">
<title>5395&#45;&gt;S</title>
<path fill="none" stroke="#00ff00" stroke-width="3.3784" d="M497.4972,-150.0003C492.9925,-126.397 483.1988,-90.3122 462.9988,-65.7061 446.5037,-45.613 419.8461,-31.6169 400.579,-23.4658"/>
<polygon fill="#00ff00" stroke="#00ff00" stroke-width="3.3784" points="401.8545,-20.2064 391.2701,-19.7348 399.2502,-26.704 401.8545,-20.2064"/>
</g>
<!-- 5143&#45;&gt;5410 -->
<g id="edge28" class="edge">
<title>5143&#45;&gt;5410</title>
<path fill="none" stroke="#ff0000" stroke-width=".2004" d="M102.9988,-149.5106C102.9988,-141.5798 102.9988,-132.6191 102.9988,-124.0953"/>
<polygon fill="#ff0000" stroke="#ff0000" stroke-width=".2004" points="106.4989,-124.0134 102.9988,-114.0134 99.4989,-124.0135 106.4989,-124.0134"/>
</g>
<!-- 5021&#45;&gt;2 -->
<g id="edge19" class="edge">
<title>5021&#45;&gt;2</title>
<path fill="none" stroke="#00ff00" stroke-width=".125" d="M306.3199,-70.4605C297.991,-59.5168 287.5841,-45.8428 279.1746,-34.7932"/>
<polygon fill="#00ff00" stroke="#00ff00" stroke-width=".125" points="281.7778,-32.4344 272.9364,-26.5965 276.2075,-36.6737 281.7778,-32.4344"/>
</g>
</g>
</svg>
