<?xml version="1.0" encoding="UTF-8" standalone="no"?>
<!DOCTYPE svg PUBLIC "-//W3C//DTD SVG 1.1//EN"
 "http://www.w3.org/Graphics/SVG/1.1/DTD/svg11.dtd">
<!-- Generated by graphviz version 2.40.1 (20161225.0304)
 -->
<!-- Title: %3 Pages: 1 -->
<svg width="359pt" height="168pt"
 viewBox="0.00 0.00 359.50 167.71" xmlns="http://www.w3.org/2000/svg" xmlns:xlink="http://www.w3.org/1999/xlink">
<g id="graph0" class="graph" transform="scale(1 1) rotate(0) translate(4 163.7107)">
<title>%3</title>
<polygon fill="#ffffff" stroke="transparent" points="-4,4 -4,-163.7107 355.4971,-163.7107 355.4971,4 -4,4"/>
<!-- &#45;1 -->
<g id="node1" class="node">
<title>&#45;1</title>
<polygon fill="#d3d3d3" stroke="#000000" points="23.751,-159.7107 -.2539,-159.7107 -.2539,-142.7107 23.751,-142.7107 23.751,-159.7107"/>
<text text-anchor="middle" x="11.7485" y="-148.5107" font-family="Times,serif" font-size="9.00" fill="#000000">&#45;1</text>
</g>
<!-- &#45;2 -->
<g id="node2" class="node">
<title>&#45;2</title>
<polygon fill="#d3d3d3" stroke="#000000" points="64.751,-159.7107 40.7461,-159.7107 40.7461,-142.7107 64.751,-142.7107 64.751,-159.7107"/>
<text text-anchor="middle" x="52.7485" y="-148.5107" font-family="Times,serif" font-size="9.00" fill="#000000">&#45;2</text>
</g>
<!-- &#45;1&#45;&gt;&#45;2 -->
<!-- &#45;3 -->
<g id="node3" class="node">
<title>&#45;3</title>
<polygon fill="#d3d3d3" stroke="#000000" points="105.751,-159.7107 81.7461,-159.7107 81.7461,-142.7107 105.751,-142.7107 105.751,-159.7107"/>
<text text-anchor="middle" x="93.7485" y="-148.5107" font-family="Times,serif" font-size="9.00" fill="#000000">&#45;3</text>
</g>
<!-- &#45;2&#45;&gt;&#45;3 -->
<!-- &#45;4 -->
<g id="node4" class="node">
<title>&#45;4</title>
<polygon fill="#d3d3d3" stroke="#000000" points="146.751,-159.7107 122.7461,-159.7107 122.7461,-142.7107 146.751,-142.7107 146.751,-159.7107"/>
<text text-anchor="middle" x="134.7485" y="-148.5107" font-family="Times,serif" font-size="9.00" fill="#000000">&#45;4</text>
</g>
<!-- &#45;3&#45;&gt;&#45;4 -->
<!-- &#45;5 -->
<g id="node5" class="node">
<title>&#45;5</title>
<polygon fill="#d3d3d3" stroke="#000000" points="187.751,-159.7107 163.7461,-159.7107 163.7461,-142.7107 187.751,-142.7107 187.751,-159.7107"/>
<text text-anchor="middle" x="175.7485" y="-148.5107" font-family="Times,serif" font-size="9.00" fill="#000000">&#45;5</text>
</g>
<!-- &#45;4&#45;&gt;&#45;5 -->
<!-- &#45;6 -->
<g id="node6" class="node">
<title>&#45;6</title>
<polygon fill="#d3d3d3" stroke="#000000" points="228.751,-159.7107 204.7461,-159.7107 204.7461,-142.7107 228.751,-142.7107 228.751,-159.7107"/>
<text text-anchor="middle" x="216.7485" y="-148.5107" font-family="Times,serif" font-size="9.00" fill="#000000">&#45;6</text>
</g>
<!-- &#45;5&#45;&gt;&#45;6 -->
<!-- 0 -->
<g id="node10" class="node">
<title>0</title>
<ellipse fill="#add8e6" stroke="#000000" cx="175.7485" cy="-14.4957" rx="14.4914" ry="14.4914"/>
<text text-anchor="middle" x="175.7485" y="-11.7957" font-family="Times,serif" font-size="9.00" fill="#000000">0</text>
</g>
<!-- &#45;5&#45;&gt;0 -->
<g id="edge13" class="edge">
<title>&#45;5&#45;&gt;0</title>
<path fill="none" stroke="#00ff00" stroke-width=".6163" stroke-dasharray="1,5" d="M175.7485,-142.6585C175.7485,-122.3692 175.7485,-70.6929 175.7485,-39.5068"/>
<polygon fill="#00ff00" stroke="#00ff00" stroke-width=".6163" points="179.2486,-39.4154 175.7485,-29.4154 172.2486,-39.4155 179.2486,-39.4154"/>
</g>
<!-- &#45;7 -->
<g id="node7" class="node">
<title>&#45;7</title>
<polygon fill="#d3d3d3" stroke="#000000" points="269.751,-159.7107 245.7461,-159.7107 245.7461,-142.7107 269.751,-142.7107 269.751,-159.7107"/>
<text text-anchor="middle" x="257.7485" y="-148.5107" font-family="Times,serif" font-size="9.00" fill="#000000">&#45;7</text>
</g>
<!-- &#45;6&#45;&gt;&#45;7 -->
<!-- &#45;8 -->
<g id="node8" class="node">
<title>&#45;8</title>
<polygon fill="#d3d3d3" stroke="#000000" points="310.751,-159.7107 286.7461,-159.7107 286.7461,-142.7107 310.751,-142.7107 310.751,-159.7107"/>
<text text-anchor="middle" x="298.7485" y="-148.5107" font-family="Times,serif" font-size="9.00" fill="#000000">&#45;8</text>
</g>
<!-- &#45;7&#45;&gt;&#45;8 -->
<!-- 3 -->
<g id="node13" class="node">
<title>3</title>
<ellipse fill="#add8e6" stroke="#000000" cx="316.7485" cy="-14.4957" rx="14.4914" ry="14.4914"/>
<text text-anchor="middle" x="316.7485" y="-11.7957" font-family="Times,serif" font-size="9.00" fill="#000000">3</text>
</g>
<!-- &#45;7&#45;&gt;3 -->
<g id="edge12" class="edge">
<title>&#45;7&#45;&gt;3</title>
<path fill="none" stroke="#00ff00" stroke-width=".2039" stroke-dasharray="1,5" d="M258.0443,-142.6983C258.8914,-126.7147 262.1592,-91.4412 274.7485,-64.9914 280.5856,-52.7279 290.083,-40.945 298.5712,-31.8502"/>
<polygon fill="#00ff00" stroke="#00ff00" stroke-width=".2039" points="301.1658,-34.2028 305.6532,-24.6052 296.1601,-29.3097 301.1658,-34.2028"/>
</g>
<!-- 884 -->
<g id="node14" class="node">
<title>884</title>
<ellipse fill="#ffffff" stroke="#000000" cx="304.7485" cy="-85.851" rx="20.7202" ry="20.7202"/>
<text text-anchor="middle" x="304.7485" y="-83.151" font-family="Times,serif" font-size="9.00" fill="#000000">884</text>
</g>
<!-- &#45;7&#45;&gt;884 -->
<g id="edge16" class="edge">
<title>&#45;7&#45;&gt;884</title>
<path fill="none" stroke="#ff0000" stroke-width=".3175" d="M263.893,-142.666C269.6432,-134.6696 278.5258,-122.3172 286.5417,-111.1701"/>
<polygon fill="#ff0000" stroke="#ff0000" stroke-width=".3175" points="289.4396,-113.135 292.4363,-102.9728 283.7564,-109.0482 289.4396,-113.135"/>
</g>
<!-- &#45;9 -->
<g id="node9" class="node">
<title>&#45;9</title>
<polygon fill="#d3d3d3" stroke="#000000" points="351.751,-159.7107 327.7461,-159.7107 327.7461,-142.7107 351.751,-142.7107 351.751,-159.7107"/>
<text text-anchor="middle" x="339.7485" y="-148.5107" font-family="Times,serif" font-size="9.00" fill="#000000">&#45;9</text>
</g>
<!-- &#45;8&#45;&gt;&#45;9 -->
<!-- &#45;8&#45;&gt;0 -->
<g id="edge14" class="edge">
<title>&#45;8&#45;&gt;0</title>
<path fill="none" stroke="#ff0000" stroke-width=".3415" stroke-dasharray="1,5" d="M291.0543,-142.6585C271.5365,-120.9644 219.7346,-63.3864 192.7032,-33.3408"/>
<polygon fill="#ff0000" stroke="#ff0000" stroke-width=".3415" points="195.0735,-30.7424 185.7832,-25.6492 189.8696,-35.4243 195.0735,-30.7424"/>
</g>
<!-- 2 -->
<g id="node12" class="node">
<title>2</title>
<ellipse fill="#add8e6" stroke="#000000" cx="269.7485" cy="-14.4957" rx="14.4914" ry="14.4914"/>
<text text-anchor="middle" x="269.7485" y="-11.7957" font-family="Times,serif" font-size="9.00" fill="#000000">2</text>
</g>
<!-- &#45;8&#45;&gt;2 -->
<g id="edge15" class="edge">
<title>&#45;8&#45;&gt;2</title>
<path fill="none" stroke="#00ff00" stroke-width=".1211" d="M308.9083,-142.5176C317.653,-134.3106 329.6436,-121.1375 334.7485,-106.7107 340.9338,-89.2308 342.8997,-81.6455 334.7485,-64.9914 329.9608,-55.2092 307.8298,-39.1737 290.7063,-27.7998"/>
<polygon fill="#00ff00" stroke="#00ff00" stroke-width=".1211" points="292.6147,-24.8659 282.3266,-22.3348 288.7907,-30.7292 292.6147,-24.8659"/>
</g>
<!-- 1 -->
<g id="node11" class="node">
<title>1</title>
<ellipse fill="#add8e6" stroke="#000000" cx="222.7485" cy="-14.4957" rx="14.4914" ry="14.4914"/>
<text text-anchor="middle" x="222.7485" y="-11.7957" font-family="Times,serif" font-size="9.00" fill="#000000">1</text>
</g>
<!-- 0&#45;&gt;1 -->
<!-- 1&#45;&gt;2 -->
<!-- 2&#45;&gt;3 -->
<!-- 884&#45;&gt;3 -->
<g id="edge17" class="edge">
<title>884&#45;&gt;3</title>
<path fill="none" stroke="#ff0000" stroke-width=".4972" d="M308.2194,-65.2121C309.5822,-57.1087 311.158,-47.7384 312.5816,-39.2737"/>
<polygon fill="#ff0000" stroke="#ff0000" stroke-width=".4972" points="316.0688,-39.6414 314.2758,-29.1994 309.1657,-38.4805 316.0688,-39.6414"/>
</g>
</g>
</svg>
