<?xml version="1.0" encoding="UTF-8" standalone="no"?>
<!DOCTYPE svg PUBLIC "-//W3C//DTD SVG 1.1//EN"
 "http://www.w3.org/Graphics/SVG/1.1/DTD/svg11.dtd">
<!-- Generated by graphviz version 2.40.1 (20161225.0304)
 -->
<!-- Title: %3 Pages: 1 -->
<svg width="419pt" height="245pt"
 viewBox="0.00 0.00 419.36 245.43" xmlns="http://www.w3.org/2000/svg" xmlns:xlink="http://www.w3.org/1999/xlink">
<g id="graph0" class="graph" transform="scale(1 1) rotate(0) translate(4 241.43)">
<title>%3</title>
<polygon fill="#ffffff" stroke="transparent" points="-4,4 -4,-241.43 415.3553,-241.43 415.3553,4 -4,4"/>
<!-- &#45;1 -->
<g id="node1" class="node">
<title>&#45;1</title>
<polygon fill="#d3d3d3" stroke="#000000" points="267.4981,-237.43 243.4932,-237.43 243.4932,-220.43 267.4981,-220.43 267.4981,-237.43"/>
<text text-anchor="middle" x="255.4957" y="-226.23" font-family="Times,serif" font-size="9.00" fill="#000000">&#45;1</text>
</g>
<!-- &#45;2 -->
<g id="node2" class="node">
<title>&#45;2</title>
<polygon fill="#d3d3d3" stroke="#000000" points="308.4981,-237.43 284.4932,-237.43 284.4932,-220.43 308.4981,-220.43 308.4981,-237.43"/>
<text text-anchor="middle" x="296.4957" y="-226.23" font-family="Times,serif" font-size="9.00" fill="#000000">&#45;2</text>
</g>
<!-- &#45;1&#45;&gt;&#45;2 -->
<!-- &#45;3 -->
<g id="node3" class="node">
<title>&#45;3</title>
<polygon fill="#d3d3d3" stroke="#000000" points="353.4981,-237.43 329.4932,-237.43 329.4932,-220.43 353.4981,-220.43 353.4981,-237.43"/>
<text text-anchor="middle" x="341.4957" y="-226.23" font-family="Times,serif" font-size="9.00" fill="#000000">&#45;3</text>
</g>
<!-- &#45;2&#45;&gt;&#45;3 -->
<!-- 926 -->
<g id="node14" class="node">
<title>926</title>
<ellipse fill="none" stroke="#000000" cx="292.4957" cy="-163.5703" rx="20.7202" ry="20.7202"/>
<text text-anchor="middle" x="292.4957" y="-160.8703" font-family="Times,serif" font-size="9.00" fill="#000000">926</text>
</g>
<!-- &#45;2&#45;&gt;926 -->
<g id="edge14" class="edge">
<title>&#45;2&#45;&gt;926</title>
<path fill="none" stroke="#ff0000" stroke-width=".1221" d="M295.9728,-220.3853C295.5653,-213.7276 294.9731,-204.0503 294.3924,-194.563"/>
<polygon fill="#ff0000" stroke="#ff0000" stroke-width=".1221" points="297.8807,-194.2624 293.7763,-184.4949 290.8938,-194.6901 297.8807,-194.2624"/>
</g>
<!-- 3 -->
<g id="node7" class="node">
<title>3</title>
<ellipse fill="#add8e6" stroke="#000000" cx="155.4957" cy="-14.4957" rx="14.4914" ry="14.4914"/>
<text text-anchor="middle" x="155.4957" y="-11.7957" font-family="Times,serif" font-size="9.00" fill="#000000">3</text>
</g>
<!-- &#45;3&#45;&gt;3 -->
<g id="edge11" class="edge">
<title>&#45;3&#45;&gt;3</title>
<path fill="none" stroke="#00ff00" stroke-width=".1446" d="M343.5535,-220.1139C349.2903,-193.1199 362.5381,-110.6668 322.4957,-64.9914 279.2915,-15.7095 239.988,-54.2102 179.4957,-28.9914 178.6308,-28.6308 177.7603,-28.2425 176.8899,-27.8327"/>
<polygon fill="#00ff00" stroke="#00ff00" stroke-width=".1446" points="178.2858,-24.6076 167.8294,-22.9008 174.9392,-30.7558 178.2858,-24.6076"/>
</g>
<!-- 822 -->
<g id="node13" class="node">
<title>822</title>
<ellipse fill="#ffffff" stroke="#000000" cx="390.4957" cy="-85.851" rx="20.7202" ry="20.7202"/>
<text text-anchor="middle" x="390.4957" y="-83.151" font-family="Times,serif" font-size="9.00" fill="#000000">822</text>
</g>
<!-- &#45;3&#45;&gt;822 -->
<g id="edge12" class="edge">
<title>&#45;3&#45;&gt;822</title>
<path fill="none" stroke="#00ff00" stroke-width=".6926" d="M344.4141,-220.4082C351.3413,-200.1811 369.0421,-148.4949 380.3799,-115.389"/>
<polygon fill="#00ff00" stroke="#00ff00" stroke-width=".6926" points="383.7464,-116.3613 383.6752,-105.7667 377.124,-114.0933 383.7464,-116.3613"/>
</g>
<!-- 0 -->
<g id="node4" class="node">
<title>0</title>
<ellipse fill="#add8e6" stroke="#000000" cx="14.4957" cy="-14.4957" rx="14.4914" ry="14.4914"/>
<text text-anchor="middle" x="14.4957" y="-11.7957" font-family="Times,serif" font-size="9.00" fill="#000000">0</text>
</g>
<!-- 1 -->
<g id="node5" class="node">
<title>1</title>
<ellipse fill="#add8e6" stroke="#000000" cx="61.4957" cy="-14.4957" rx="14.4914" ry="14.4914"/>
<text text-anchor="middle" x="61.4957" y="-11.7957" font-family="Times,serif" font-size="9.00" fill="#000000">1</text>
</g>
<!-- 0&#45;&gt;1 -->
<!-- 2 -->
<g id="node6" class="node">
<title>2</title>
<ellipse fill="#add8e6" stroke="#000000" cx="108.4957" cy="-14.4957" rx="14.4914" ry="14.4914"/>
<text text-anchor="middle" x="108.4957" y="-11.7957" font-family="Times,serif" font-size="9.00" fill="#000000">2</text>
</g>
<!-- 1&#45;&gt;2 -->
<!-- 2&#45;&gt;3 -->
<!-- 4 -->
<g id="node8" class="node">
<title>4</title>
<ellipse fill="#add8e6" stroke="#000000" cx="202.4957" cy="-14.4957" rx="14.4914" ry="14.4914"/>
<text text-anchor="middle" x="202.4957" y="-11.7957" font-family="Times,serif" font-size="9.00" fill="#000000">4</text>
</g>
<!-- 3&#45;&gt;4 -->
<!-- 5 -->
<g id="node9" class="node">
<title>5</title>
<ellipse fill="#add8e6" stroke="#000000" cx="249.4957" cy="-14.4957" rx="14.4914" ry="14.4914"/>
<text text-anchor="middle" x="249.4957" y="-11.7957" font-family="Times,serif" font-size="9.00" fill="#000000">5</text>
</g>
<!-- 4&#45;&gt;5 -->
<!-- 6 -->
<g id="node10" class="node">
<title>6</title>
<ellipse fill="#add8e6" stroke="#000000" cx="296.4957" cy="-14.4957" rx="14.4914" ry="14.4914"/>
<text text-anchor="middle" x="296.4957" y="-11.7957" font-family="Times,serif" font-size="9.00" fill="#000000">6</text>
</g>
<!-- 5&#45;&gt;6 -->
<!-- 7 -->
<g id="node11" class="node">
<title>7</title>
<ellipse fill="#add8e6" stroke="#000000" cx="343.4957" cy="-14.4957" rx="14.4914" ry="14.4914"/>
<text text-anchor="middle" x="343.4957" y="-11.7957" font-family="Times,serif" font-size="9.00" fill="#000000">7</text>
</g>
<!-- 6&#45;&gt;7 -->
<!-- 706 -->
<g id="node15" class="node">
<title>706</title>
<ellipse fill="none" stroke="#000000" cx="292.4957" cy="-85.851" rx="20.7202" ry="20.7202"/>
<text text-anchor="middle" x="292.4957" y="-83.151" font-family="Times,serif" font-size="9.00" fill="#000000">706</text>
</g>
<!-- 6&#45;&gt;706 -->
<g id="edge16" class="edge">
<title>6&#45;&gt;706</title>
<path fill="none" stroke="#00ff00" stroke-width=".2271" d="M295.6802,-29.043C295.2652,-36.4465 294.7438,-45.7476 294.2437,-54.6679"/>
<polygon fill="#00ff00" stroke="#00ff00" stroke-width=".2271" points="290.7395,-54.6478 293.6742,-64.828 297.7285,-55.0396 290.7395,-54.6478"/>
</g>
<!-- 8 -->
<g id="node12" class="node">
<title>8</title>
<ellipse fill="#add8e6" stroke="#000000" cx="390.4957" cy="-14.4957" rx="14.4914" ry="14.4914"/>
<text text-anchor="middle" x="390.4957" y="-11.7957" font-family="Times,serif" font-size="9.00" fill="#000000">8</text>
</g>
<!-- 7&#45;&gt;8 -->
<!-- 822&#45;&gt;8 -->
<g id="edge13" class="edge">
<title>822&#45;&gt;8</title>
<path fill="none" stroke="#00ff00" stroke-width=".4789" d="M390.4957,-64.828C390.4957,-56.8245 390.4957,-47.6301 390.4957,-39.3078"/>
<polygon fill="#00ff00" stroke="#00ff00" stroke-width=".4789" points="393.9958,-39.043 390.4957,-29.043 386.9958,-39.0431 393.9958,-39.043"/>
</g>
<!-- 926&#45;&gt;706 -->
<g id="edge15" class="edge">
<title>926&#45;&gt;706</title>
<path fill="none" stroke="#00ff00" stroke-width=".2392" d="M292.4957,-142.3332C292.4957,-134.4729 292.4957,-125.3922 292.4957,-116.842"/>
<polygon fill="#00ff00" stroke="#00ff00" stroke-width=".2392" points="295.9958,-116.7934 292.4957,-106.7934 288.9958,-116.7934 295.9958,-116.7934"/>
</g>
</g>
</svg>
