<?xml version="1.0" encoding="UTF-8" standalone="no"?>
<!DOCTYPE svg PUBLIC "-//W3C//DTD SVG 1.1//EN"
 "http://www.w3.org/Graphics/SVG/1.1/DTD/svg11.dtd">
<!-- Generated by graphviz version 2.40.1 (20161225.0304)
 -->
<!-- Title: %3 Pages: 1 -->
<svg width="616pt" height="245pt"
 viewBox="0.00 0.00 616.38 245.43" xmlns="http://www.w3.org/2000/svg" xmlns:xlink="http://www.w3.org/1999/xlink">
<g id="graph0" class="graph" transform="scale(1 1) rotate(0) translate(4 241.43)">
<title>%3</title>
<polygon fill="#ffffff" stroke="transparent" points="-4,4 -4,-241.43 612.3828,-241.43 612.3828,4 -4,4"/>
<!-- &#45;1 -->
<g id="node1" class="node">
<title>&#45;1</title>
<polygon fill="#d3d3d3" stroke="#000000" points="85.5256,-237.43 61.5207,-237.43 61.5207,-220.43 85.5256,-220.43 85.5256,-237.43"/>
<text text-anchor="middle" x="73.5231" y="-226.23" font-family="Times,serif" font-size="9.00" fill="#000000">&#45;1</text>
</g>
<!-- &#45;2 -->
<g id="node2" class="node">
<title>&#45;2</title>
<polygon fill="#d3d3d3" stroke="#000000" points="244.5256,-237.43 220.5207,-237.43 220.5207,-220.43 244.5256,-220.43 244.5256,-237.43"/>
<text text-anchor="middle" x="232.5231" y="-226.23" font-family="Times,serif" font-size="9.00" fill="#000000">&#45;2</text>
</g>
<!-- &#45;1&#45;&gt;&#45;2 -->
<!-- 0 -->
<g id="node10" class="node">
<title>0</title>
<ellipse fill="#add8e6" stroke="#000000" cx="159.5231" cy="-14.4957" rx="14.4914" ry="14.4914"/>
<text text-anchor="middle" x="159.5231" y="-11.7957" font-family="Times,serif" font-size="9.00" fill="#000000">0</text>
</g>
<!-- &#45;1&#45;&gt;0 -->
<g id="edge13" class="edge">
<title>&#45;1&#45;&gt;0</title>
<path fill="none" stroke="#00ff00" stroke-width="1.2356" d="M64.9865,-220.3546C40.5085,-194.7187 -25.8344,-117.2093 11.5231,-64.9914 26.116,-44.5936 96.7362,-27.3364 134.9097,-19.3115"/>
<polygon fill="#00ff00" stroke="#00ff00" stroke-width="1.2356" points="136.0849,-22.6437 145.1807,-17.2108 134.6822,-15.7857 136.0849,-22.6437"/>
</g>
<!-- 672 -->
<g id="node20" class="node">
<title>672</title>
<ellipse fill="none" stroke="#000000" cx="101.5231" cy="-85.851" rx="20.7202" ry="20.7202"/>
<text text-anchor="middle" x="101.5231" y="-83.151" font-family="Times,serif" font-size="9.00" fill="#000000">672</text>
</g>
<!-- &#45;1&#45;&gt;672 -->
<g id="edge23" class="edge">
<title>&#45;1&#45;&gt;672</title>
<path fill="none" stroke="#ff0000" stroke-width=".4544" d="M75.1908,-220.4082C79.1002,-200.4311 89.0148,-149.768 95.5007,-116.6252"/>
<polygon fill="#ff0000" stroke="#ff0000" stroke-width=".4544" points="98.9884,-117.0274 97.4741,-106.5413 92.1187,-115.6829 98.9884,-117.0274"/>
</g>
<!-- &#45;3 -->
<g id="node3" class="node">
<title>&#45;3</title>
<polygon fill="#d3d3d3" stroke="#000000" points="285.5256,-237.43 261.5207,-237.43 261.5207,-220.43 285.5256,-220.43 285.5256,-237.43"/>
<text text-anchor="middle" x="273.5231" y="-226.23" font-family="Times,serif" font-size="9.00" fill="#000000">&#45;3</text>
</g>
<!-- &#45;2&#45;&gt;&#45;3 -->
<!-- 631 -->
<g id="node18" class="node">
<title>631</title>
<ellipse fill="#ffffff" stroke="#000000" cx="242.5231" cy="-163.5703" rx="20.7202" ry="20.7202"/>
<text text-anchor="middle" x="242.5231" y="-160.8703" font-family="Times,serif" font-size="9.00" fill="#000000">631</text>
</g>
<!-- &#45;2&#45;&gt;631 -->
<g id="edge28" class="edge">
<title>&#45;2&#45;&gt;631</title>
<path fill="none" stroke="#ff0000" stroke-width=".2186" d="M233.8305,-220.3853C234.8569,-213.6768 236.3523,-203.9023 237.8145,-194.3458"/>
<polygon fill="#ff0000" stroke="#ff0000" stroke-width=".2186" points="241.3115,-194.6312 239.3642,-184.2169 234.392,-193.5725 241.3115,-194.6312"/>
</g>
<!-- &#45;4 -->
<g id="node4" class="node">
<title>&#45;4</title>
<polygon fill="#d3d3d3" stroke="#000000" points="326.5256,-237.43 302.5207,-237.43 302.5207,-220.43 326.5256,-220.43 326.5256,-237.43"/>
<text text-anchor="middle" x="314.5231" y="-226.23" font-family="Times,serif" font-size="9.00" fill="#000000">&#45;4</text>
</g>
<!-- &#45;3&#45;&gt;&#45;4 -->
<!-- 2 -->
<g id="node12" class="node">
<title>2</title>
<ellipse fill="#add8e6" stroke="#000000" cx="317.5231" cy="-14.4957" rx="14.4914" ry="14.4914"/>
<text text-anchor="middle" x="317.5231" y="-11.7957" font-family="Times,serif" font-size="9.00" fill="#000000">2</text>
</g>
<!-- &#45;3&#45;&gt;2 -->
<g id="edge22" class="edge">
<title>&#45;3&#45;&gt;2</title>
<path fill="none" stroke="#00ff00" stroke-width=".261" d="M274.8168,-220.3414C278.5578,-195.901 289.9886,-123.9298 303.5231,-64.9914 305.5274,-56.2634 308.0603,-46.7815 310.4189,-38.4159"/>
<polygon fill="#00ff00" stroke="#00ff00" stroke-width=".261" points="313.8539,-39.1356 313.2605,-28.5574 307.1278,-37.1968 313.8539,-39.1356"/>
</g>
<!-- 3 -->
<g id="node13" class="node">
<title>3</title>
<ellipse fill="#add8e6" stroke="#000000" cx="450.5231" cy="-14.4957" rx="14.4914" ry="14.4914"/>
<text text-anchor="middle" x="450.5231" y="-11.7957" font-family="Times,serif" font-size="9.00" fill="#000000">3</text>
</g>
<!-- &#45;3&#45;&gt;3 -->
<g id="edge12" class="edge">
<title>&#45;3&#45;&gt;3</title>
<path fill="none" stroke="#00ff00" stroke-width=".1383" d="M285.3896,-222.9167C322.8564,-203.6597 437.2939,-142.6767 456.5231,-106.7107 467.8723,-85.4834 463.8576,-57.4633 458.5896,-37.9039"/>
<polygon fill="#00ff00" stroke="#00ff00" stroke-width=".1383" points="461.9264,-36.8456 455.7097,-28.2664 455.2194,-38.8498 461.9264,-36.8456"/>
</g>
<!-- &#45;5 -->
<g id="node5" class="node">
<title>&#45;5</title>
<polygon fill="#d3d3d3" stroke="#000000" points="367.5256,-237.43 343.5207,-237.43 343.5207,-220.43 367.5256,-220.43 367.5256,-237.43"/>
<text text-anchor="middle" x="355.5231" y="-226.23" font-family="Times,serif" font-size="9.00" fill="#000000">&#45;5</text>
</g>
<!-- &#45;4&#45;&gt;&#45;5 -->
<!-- &#45;6 -->
<g id="node6" class="node">
<title>&#45;6</title>
<polygon fill="#d3d3d3" stroke="#000000" points="408.5256,-237.43 384.5207,-237.43 384.5207,-220.43 408.5256,-220.43 408.5256,-237.43"/>
<text text-anchor="middle" x="396.5231" y="-226.23" font-family="Times,serif" font-size="9.00" fill="#000000">&#45;6</text>
</g>
<!-- &#45;5&#45;&gt;&#45;6 -->
<!-- &#45;5&#45;&gt;3 -->
<g id="edge15" class="edge">
<title>&#45;5&#45;&gt;3</title>
<path fill="none" stroke="#ff0000" stroke-width=".4322" d="M367.4663,-222.677C395.2568,-207.3548 463.8395,-164.8985 489.5231,-106.7107 497.0104,-89.7477 495.5109,-82.5399 489.5231,-64.9914 485.3055,-52.6308 476.7,-40.9446 468.6432,-31.9336"/>
<polygon fill="#ff0000" stroke="#ff0000" stroke-width=".4322" points="470.9686,-29.3 461.5399,-24.4677 465.8972,-34.1251 470.9686,-29.3"/>
</g>
<!-- &#45;7 -->
<g id="node7" class="node">
<title>&#45;7</title>
<polygon fill="#d3d3d3" stroke="#000000" points="449.5256,-237.43 425.5207,-237.43 425.5207,-220.43 449.5256,-220.43 449.5256,-237.43"/>
<text text-anchor="middle" x="437.5231" y="-226.23" font-family="Times,serif" font-size="9.00" fill="#000000">&#45;7</text>
</g>
<!-- &#45;6&#45;&gt;&#45;7 -->
<!-- &#45;6&#45;&gt;2 -->
<g id="edge18" class="edge">
<title>&#45;6&#45;&gt;2</title>
<path fill="none" stroke="#00ff00" stroke-width=".5134" d="M391.3637,-220.3644C379.842,-200.8758 351.8324,-151.4385 336.5231,-106.7107 328.9123,-84.4749 323.8572,-58.1275 320.8878,-39.3013"/>
<polygon fill="#00ff00" stroke="#00ff00" stroke-width=".5134" points="324.3142,-38.5478 319.3769,-29.1737 317.3908,-39.5807 324.3142,-38.5478"/>
</g>
<!-- 263 -->
<g id="node14" class="node">
<title>263</title>
<ellipse fill="#ffffff" stroke="#000000" cx="41.5231" cy="-85.851" rx="20.7202" ry="20.7202"/>
<text text-anchor="middle" x="41.5231" y="-83.151" font-family="Times,serif" font-size="9.00" fill="#000000">263</text>
</g>
<!-- &#45;6&#45;&gt;263 -->
<g id="edge14" class="edge">
<title>&#45;6&#45;&gt;263</title>
<path fill="none" stroke="#00ff00" stroke-width=".1329" d="M384.4434,-223.1673C381.8747,-222.1212 379.1454,-221.1388 376.5231,-220.43 253.6983,-187.232 196.8288,-257.2886 92.5231,-184.43 69.509,-168.3543 56.172,-138.6494 48.9513,-116.0342"/>
<polygon fill="#00ff00" stroke="#00ff00" stroke-width=".1329" points="52.2409,-114.8155 46.0513,-106.2167 45.5277,-116.7986 52.2409,-114.8155"/>
</g>
<!-- &#45;8 -->
<g id="node8" class="node">
<title>&#45;8</title>
<polygon fill="#d3d3d3" stroke="#000000" points="490.5256,-237.43 466.5207,-237.43 466.5207,-220.43 490.5256,-220.43 490.5256,-237.43"/>
<text text-anchor="middle" x="478.5231" y="-226.23" font-family="Times,serif" font-size="9.00" fill="#000000">&#45;8</text>
</g>
<!-- &#45;7&#45;&gt;&#45;8 -->
<!-- 355 -->
<g id="node19" class="node">
<title>355</title>
<ellipse fill="none" stroke="#000000" cx="587.5231" cy="-85.851" rx="20.7202" ry="20.7202"/>
<text text-anchor="middle" x="587.5231" y="-83.151" font-family="Times,serif" font-size="9.00" fill="#000000">355</text>
</g>
<!-- &#45;7&#45;&gt;355 -->
<g id="edge19" class="edge">
<title>&#45;7&#45;&gt;355</title>
<path fill="none" stroke="#00ff00" stroke-width=".441" d="M449.6859,-223.438C452.2485,-222.3722 454.9544,-221.3134 457.5231,-220.43 516.2443,-200.2354 554.6916,-233.672 592.5231,-184.43 607.4166,-165.0445 604.1586,-136.6525 598.3542,-115.3116"/>
<polygon fill="#00ff00" stroke="#00ff00" stroke-width=".441" points="601.6214,-114.0249 595.3685,-105.472 594.923,-116.0574 601.6214,-114.0249"/>
</g>
<!-- &#45;9 -->
<g id="node9" class="node">
<title>&#45;9</title>
<polygon fill="#d3d3d3" stroke="#000000" points="531.5256,-237.43 507.5207,-237.43 507.5207,-220.43 531.5256,-220.43 531.5256,-237.43"/>
<text text-anchor="middle" x="519.5231" y="-226.23" font-family="Times,serif" font-size="9.00" fill="#000000">&#45;9</text>
</g>
<!-- &#45;8&#45;&gt;&#45;9 -->
<!-- 485 -->
<g id="node21" class="node">
<title>485</title>
<ellipse fill="none" stroke="#000000" cx="122.5231" cy="-163.5703" rx="20.7202" ry="20.7202"/>
<text text-anchor="middle" x="122.5231" y="-160.8703" font-family="Times,serif" font-size="9.00" fill="#000000">485</text>
</g>
<!-- &#45;8&#45;&gt;485 -->
<g id="edge25" class="edge">
<title>&#45;8&#45;&gt;485</title>
<path fill="none" stroke="#00ff00" stroke-width=".2967" d="M466.4483,-223.1491C463.8793,-222.1043 461.1486,-221.127 458.5231,-220.43 326.1697,-185.2934 280.5695,-232.97 152.5231,-184.43 150.8919,-183.8116 149.2649,-183.0854 147.6602,-182.2816"/>
<polygon fill="#00ff00" stroke="#00ff00" stroke-width=".2967" points="149.2215,-179.1382 138.8363,-177.0412 145.6471,-185.1568 149.2215,-179.1382"/>
</g>
<!-- 977 -->
<g id="node16" class="node">
<title>977</title>
<ellipse fill="#ffffff" stroke="#000000" cx="182.5231" cy="-163.5703" rx="20.7202" ry="20.7202"/>
<text text-anchor="middle" x="182.5231" y="-160.8703" font-family="Times,serif" font-size="9.00" fill="#000000">977</text>
</g>
<!-- &#45;9&#45;&gt;977 -->
<g id="edge30" class="edge">
<title>&#45;9&#45;&gt;977</title>
<path fill="none" stroke="#00ff00" stroke-width=".4312" d="M507.4441,-223.1647C504.8754,-222.1188 502.1459,-221.137 499.5231,-220.43 375.3994,-186.9678 332.5552,-230.4595 212.5231,-184.43 210.8943,-183.8054 209.2692,-183.0742 207.6659,-182.2667"/>
<polygon fill="#00ff00" stroke="#00ff00" stroke-width=".4312" points="209.229,-179.124 198.8461,-177.0154 205.6479,-185.1386 209.229,-179.124"/>
</g>
<!-- 1 -->
<g id="node11" class="node">
<title>1</title>
<ellipse fill="#add8e6" stroke="#000000" cx="222.5231" cy="-14.4957" rx="14.4914" ry="14.4914"/>
<text text-anchor="middle" x="222.5231" y="-11.7957" font-family="Times,serif" font-size="9.00" fill="#000000">1</text>
</g>
<!-- 0&#45;&gt;1 -->
<!-- 0&#45;&gt;485 -->
<g id="edge24" class="edge">
<title>0&#45;&gt;485</title>
<path fill="none" stroke="#ff0000" stroke-width=".3379" d="M155.9586,-28.8573C150.0234,-52.7704 137.989,-101.2575 130.0941,-133.0664"/>
<polygon fill="#ff0000" stroke="#ff0000" stroke-width=".3379" points="126.6023,-132.606 127.5902,-143.1547 133.3961,-134.2923 126.6023,-132.606"/>
</g>
<!-- 1&#45;&gt;2 -->
<!-- 1&#45;&gt;631 -->
<g id="edge26" class="edge">
<title>1&#45;&gt;631</title>
<path fill="none" stroke="#00ff00" stroke-width=".4814" d="M224.4967,-29.2061C227.7116,-53.1691 234.1462,-101.1307 238.3935,-132.7891"/>
<polygon fill="#00ff00" stroke="#00ff00" stroke-width=".4814" points="234.9435,-133.3964 239.7422,-142.8421 241.8813,-132.4655 234.9435,-133.3964"/>
</g>
<!-- 2&#45;&gt;3 -->
<!-- 263&#45;&gt;1 -->
<g id="edge20" class="edge">
<title>263&#45;&gt;1</title>
<path fill="none" stroke="#00ff00" stroke-width=".3281" d="M58.119,-73.028C62.3426,-70.1301 66.9771,-67.2471 71.5231,-64.9914 117.9813,-41.939 133.4693,-45.8289 182.5231,-28.9914 188.0248,-27.1029 193.9268,-25.0046 199.4622,-23.0043"/>
<polygon fill="#00ff00" stroke="#00ff00" stroke-width=".3281" points="200.6685,-26.2899 208.8644,-19.5759 198.2704,-19.7135 200.6685,-26.2899"/>
</g>
<!-- 460 -->
<g id="node15" class="node">
<title>460</title>
<ellipse fill="#ffffff" stroke="#000000" cx="426.5231" cy="-85.851" rx="20.7202" ry="20.7202"/>
<text text-anchor="middle" x="426.5231" y="-83.151" font-family="Times,serif" font-size="9.00" fill="#000000">460</text>
</g>
<!-- 460&#45;&gt;3 -->
<g id="edge17" class="edge">
<title>460&#45;&gt;3</title>
<path fill="none" stroke="#00ff00" stroke-width=".5143" d="M433.2085,-65.9746C436.1107,-57.3457 439.5328,-47.1715 442.565,-38.1563"/>
<polygon fill="#00ff00" stroke="#00ff00" stroke-width=".5143" points="445.9037,-39.2086 445.7743,-28.6145 439.2689,-36.977 445.9037,-39.2086"/>
</g>
<!-- 977&#45;&gt;0 -->
<g id="edge31" class="edge">
<title>977&#45;&gt;0</title>
<path fill="none" stroke="#00ff00" stroke-width=".1478" d="M179.3251,-142.8421C175.1441,-115.7429 167.8282,-68.3251 163.3553,-39.3341"/>
<polygon fill="#00ff00" stroke="#00ff00" stroke-width=".1478" points="166.7767,-38.5554 161.7927,-29.2061 159.8585,-39.6228 166.7767,-38.5554"/>
</g>
<!-- 437 -->
<g id="node17" class="node">
<title>437</title>
<ellipse fill="#ffffff" stroke="#000000" cx="366.5231" cy="-85.851" rx="20.7202" ry="20.7202"/>
<text text-anchor="middle" x="366.5231" y="-83.151" font-family="Times,serif" font-size="9.00" fill="#000000">437</text>
</g>
<!-- 437&#45;&gt;2 -->
<g id="edge16" class="edge">
<title>437&#45;&gt;2</title>
<path fill="none" stroke="#ff0000" stroke-width=".2732" d="M354.6616,-68.5779C347.6692,-58.3954 338.7854,-45.4585 331.46,-34.7909"/>
<polygon fill="#ff0000" stroke="#ff0000" stroke-width=".2732" points="334.2949,-32.7364 325.7488,-26.4742 328.5244,-36.699 334.2949,-32.7364"/>
</g>
<!-- 631&#45;&gt;460 -->
<g id="edge21" class="edge">
<title>631&#45;&gt;460</title>
<path fill="none" stroke="#00ff00" stroke-width=".6135" d="M262.6541,-157.9302C292.7383,-149.1092 350.7822,-130.5609 396.5231,-106.7107 398.07,-105.9041 399.6307,-105.0301 401.1844,-104.1125"/>
<polygon fill="#00ff00" stroke="#00ff00" stroke-width=".6135" points="403.335,-106.8912 409.8619,-98.5456 399.5551,-100.9995 403.335,-106.8912"/>
</g>
<!-- 485&#45;&gt;672 -->
<g id="edge29" class="edge">
<title>485&#45;&gt;672</title>
<path fill="none" stroke="#00ff00" stroke-width=".1608" d="M117.0056,-143.1505C114.763,-134.8506 112.1255,-125.0897 109.6693,-115.9993"/>
<polygon fill="#00ff00" stroke="#00ff00" stroke-width=".1608" points="112.9912,-114.8753 107.0038,-106.1345 106.2335,-116.7013 112.9912,-114.8753"/>
</g>
<!-- 909 -->
<g id="node22" class="node">
<title>909</title>
<ellipse fill="none" stroke="#000000" cx="562.5231" cy="-163.5703" rx="20.7202" ry="20.7202"/>
<text text-anchor="middle" x="562.5231" y="-160.8703" font-family="Times,serif" font-size="9.00" fill="#000000">909</text>
</g>
<!-- 909&#45;&gt;355 -->
<g id="edge27" class="edge">
<title>909&#45;&gt;355</title>
<path fill="none" stroke="#00ff00" stroke-width=".2536" d="M568.9612,-143.5557C571.7024,-135.0341 574.9566,-124.9173 577.9689,-115.5529"/>
<polygon fill="#00ff00" stroke="#00ff00" stroke-width=".2536" points="581.3764,-116.3893 581.1068,-105.7979 574.7127,-114.2457 581.3764,-116.3893"/>
</g>
</g>
</svg>
