<?xml version="1.0" encoding="UTF-8" standalone="no"?>
<!DOCTYPE svg PUBLIC "-//W3C//DTD SVG 1.1//EN"
 "http://www.w3.org/Graphics/SVG/1.1/DTD/svg11.dtd">
<!-- Generated by graphviz version 2.40.1 (20161225.0304)
 -->
<!-- Title: %3 Pages: 1 -->
<svg width="456pt" height="245pt"
 viewBox="0.00 0.00 456.36 245.43" xmlns="http://www.w3.org/2000/svg" xmlns:xlink="http://www.w3.org/1999/xlink">
<g id="graph0" class="graph" transform="scale(1 1) rotate(0) translate(4 241.43)">
<title>%3</title>
<polygon fill="#ffffff" stroke="transparent" points="-4,4 -4,-241.43 452.3553,-241.43 452.3553,4 -4,4"/>
<!-- &#45;1 -->
<g id="node1" class="node">
<title>&#45;1</title>
<polygon fill="#d3d3d3" stroke="#000000" points="217.4981,-237.43 193.4932,-237.43 193.4932,-220.43 217.4981,-220.43 217.4981,-237.43"/>
<text text-anchor="middle" x="205.4957" y="-226.23" font-family="Times,serif" font-size="9.00" fill="#000000">&#45;1</text>
</g>
<!-- &#45;2 -->
<g id="node2" class="node">
<title>&#45;2</title>
<polygon fill="#d3d3d3" stroke="#000000" points="258.4981,-237.43 234.4932,-237.43 234.4932,-220.43 258.4981,-220.43 258.4981,-237.43"/>
<text text-anchor="middle" x="246.4957" y="-226.23" font-family="Times,serif" font-size="9.00" fill="#000000">&#45;2</text>
</g>
<!-- &#45;1&#45;&gt;&#45;2 -->
<!-- &#45;3 -->
<g id="node3" class="node">
<title>&#45;3</title>
<polygon fill="#d3d3d3" stroke="#000000" points="307.4981,-237.43 283.4932,-237.43 283.4932,-220.43 307.4981,-220.43 307.4981,-237.43"/>
<text text-anchor="middle" x="295.4957" y="-226.23" font-family="Times,serif" font-size="9.00" fill="#000000">&#45;3</text>
</g>
<!-- &#45;2&#45;&gt;&#45;3 -->
<!-- 1 -->
<g id="node5" class="node">
<title>1</title>
<ellipse fill="#add8e6" stroke="#000000" cx="61.4957" cy="-14.4957" rx="14.4914" ry="14.4914"/>
<text text-anchor="middle" x="61.4957" y="-11.7957" font-family="Times,serif" font-size="9.00" fill="#000000">1</text>
</g>
<!-- &#45;2&#45;&gt;1 -->
<g id="edge14" class="edge">
<title>&#45;2&#45;&gt;1</title>
<path fill="none" stroke="#00ff00" stroke-width=".2499" stroke-dasharray="1,5" d="M239.0143,-220.2583C211.5798,-188.4588 116.1003,-77.7881 77.6868,-33.2629"/>
<polygon fill="#00ff00" stroke="#00ff00" stroke-width=".2499" points="80.1867,-30.8025 71.0043,-25.5172 74.8866,-35.3751 80.1867,-30.8025"/>
</g>
<!-- 926 -->
<g id="node17" class="node">
<title>926</title>
<ellipse fill="#ffffff" stroke="#000000" cx="246.4957" cy="-163.5703" rx="20.7202" ry="20.7202"/>
<text text-anchor="middle" x="246.4957" y="-160.8703" font-family="Times,serif" font-size="9.00" fill="#000000">926</text>
</g>
<!-- &#45;2&#45;&gt;926 -->
<g id="edge15" class="edge">
<title>&#45;2&#45;&gt;926</title>
<path fill="none" stroke="#ff0000" stroke-width=".1221" d="M246.4957,-220.3853C246.4957,-213.7276 246.4957,-204.0503 246.4957,-194.563"/>
<polygon fill="#ff0000" stroke="#ff0000" stroke-width=".1221" points="249.9958,-194.4949 246.4957,-184.4949 242.9958,-194.4949 249.9958,-194.4949"/>
</g>
<!-- 3 -->
<g id="node7" class="node">
<title>3</title>
<ellipse fill="#add8e6" stroke="#000000" cx="155.4957" cy="-14.4957" rx="14.4914" ry="14.4914"/>
<text text-anchor="middle" x="155.4957" y="-11.7957" font-family="Times,serif" font-size="9.00" fill="#000000">3</text>
</g>
<!-- &#45;3&#45;&gt;3 -->
<g id="edge11" class="edge">
<title>&#45;3&#45;&gt;3</title>
<path fill="none" stroke="#00ff00" stroke-width=".1446" d="M297.3282,-220.3008C302.4166,-193.8448 313.9965,-112.7756 276.4957,-64.9914 248.1061,-28.8168 220.915,-48.9666 179.4957,-28.9914 178.6517,-28.5843 177.7989,-28.1566 176.9434,-27.7134"/>
<polygon fill="#00ff00" stroke="#00ff00" stroke-width=".1446" points="178.3797,-24.5047 167.9527,-22.6263 174.9325,-30.5971 178.3797,-24.5047"/>
</g>
<!-- 822 -->
<g id="node16" class="node">
<title>822</title>
<ellipse fill="#ffffff" stroke="#000000" cx="367.4957" cy="-85.851" rx="20.7202" ry="20.7202"/>
<text text-anchor="middle" x="367.4957" y="-83.151" font-family="Times,serif" font-size="9.00" fill="#000000">822</text>
</g>
<!-- &#45;3&#45;&gt;822 -->
<g id="edge12" class="edge">
<title>&#45;3&#45;&gt;822</title>
<path fill="none" stroke="#00ff00" stroke-width=".6926" d="M299.784,-220.4082C310.1443,-199.8201 336.9055,-146.6402 353.5144,-113.6347"/>
<polygon fill="#00ff00" stroke="#00ff00" stroke-width=".6926" points="356.7419,-115.0071 358.1107,-104.501 350.489,-111.8605 356.7419,-115.0071"/>
</g>
<!-- 0 -->
<g id="node4" class="node">
<title>0</title>
<ellipse fill="#add8e6" stroke="#000000" cx="14.4957" cy="-14.4957" rx="14.4914" ry="14.4914"/>
<text text-anchor="middle" x="14.4957" y="-11.7957" font-family="Times,serif" font-size="9.00" fill="#000000">0</text>
</g>
<!-- 0&#45;&gt;1 -->
<!-- 2 -->
<g id="node6" class="node">
<title>2</title>
<ellipse fill="#add8e6" stroke="#000000" cx="108.4957" cy="-14.4957" rx="14.4914" ry="14.4914"/>
<text text-anchor="middle" x="108.4957" y="-11.7957" font-family="Times,serif" font-size="9.00" fill="#000000">2</text>
</g>
<!-- 1&#45;&gt;2 -->
<!-- 2&#45;&gt;3 -->
<!-- 4 -->
<g id="node8" class="node">
<title>4</title>
<ellipse fill="#add8e6" stroke="#000000" cx="202.4957" cy="-14.4957" rx="14.4914" ry="14.4914"/>
<text text-anchor="middle" x="202.4957" y="-11.7957" font-family="Times,serif" font-size="9.00" fill="#000000">4</text>
</g>
<!-- 3&#45;&gt;4 -->
<!-- 5 -->
<g id="node9" class="node">
<title>5</title>
<ellipse fill="#add8e6" stroke="#000000" cx="249.4957" cy="-14.4957" rx="14.4914" ry="14.4914"/>
<text text-anchor="middle" x="249.4957" y="-11.7957" font-family="Times,serif" font-size="9.00" fill="#000000">5</text>
</g>
<!-- 4&#45;&gt;5 -->
<!-- 6 -->
<g id="node10" class="node">
<title>6</title>
<ellipse fill="#add8e6" stroke="#000000" cx="296.4957" cy="-14.4957" rx="14.4914" ry="14.4914"/>
<text text-anchor="middle" x="296.4957" y="-11.7957" font-family="Times,serif" font-size="9.00" fill="#000000">6</text>
</g>
<!-- 5&#45;&gt;6 -->
<!-- 7 -->
<g id="node11" class="node">
<title>7</title>
<ellipse fill="#add8e6" stroke="#000000" cx="343.4957" cy="-14.4957" rx="14.4914" ry="14.4914"/>
<text text-anchor="middle" x="343.4957" y="-11.7957" font-family="Times,serif" font-size="9.00" fill="#000000">7</text>
</g>
<!-- 6&#45;&gt;7 -->
<!-- 706 -->
<g id="node14" class="node">
<title>706</title>
<ellipse fill="#ffffff" stroke="#000000" cx="246.4957" cy="-85.851" rx="20.7202" ry="20.7202"/>
<text text-anchor="middle" x="246.4957" y="-83.151" font-family="Times,serif" font-size="9.00" fill="#000000">706</text>
</g>
<!-- 6&#45;&gt;706 -->
<g id="edge17" class="edge">
<title>6&#45;&gt;706</title>
<path fill="none" stroke="#00ff00" stroke-width=".2271" d="M288.1022,-26.4742C281.6674,-35.6572 272.5529,-48.6646 264.4942,-60.1652"/>
<polygon fill="#00ff00" stroke="#00ff00" stroke-width=".2271" points="261.4716,-58.3798 258.5993,-68.5779 267.2043,-62.3968 261.4716,-58.3798"/>
</g>
<!-- 8 -->
<g id="node12" class="node">
<title>8</title>
<ellipse fill="#add8e6" stroke="#000000" cx="390.4957" cy="-14.4957" rx="14.4914" ry="14.4914"/>
<text text-anchor="middle" x="390.4957" y="-11.7957" font-family="Times,serif" font-size="9.00" fill="#000000">8</text>
</g>
<!-- 7&#45;&gt;8 -->
<!-- 291 -->
<g id="node13" class="node">
<title>291</title>
<ellipse fill="#ffffff" stroke="#000000" cx="427.4957" cy="-85.851" rx="20.7202" ry="20.7202"/>
<text text-anchor="middle" x="427.4957" y="-83.151" font-family="Times,serif" font-size="9.00" fill="#000000">291</text>
</g>
<!-- 236 -->
<g id="node15" class="node">
<title>236</title>
<ellipse fill="#ffffff" stroke="#000000" cx="387.4957" cy="-163.5703" rx="20.7202" ry="20.7202"/>
<text text-anchor="middle" x="387.4957" y="-160.8703" font-family="Times,serif" font-size="9.00" fill="#000000">236</text>
</g>
<!-- 822&#45;&gt;8 -->
<g id="edge13" class="edge">
<title>822&#45;&gt;8</title>
<path fill="none" stroke="#00ff00" stroke-width=".4789" d="M373.9025,-65.9746C376.6838,-57.3457 379.9633,-47.1715 382.8692,-38.1563"/>
<polygon fill="#00ff00" stroke="#00ff00" stroke-width=".4789" points="386.208,-39.2061 385.9448,-28.6145 379.5456,-37.0585 386.208,-39.2061"/>
</g>
<!-- 926&#45;&gt;706 -->
<g id="edge16" class="edge">
<title>926&#45;&gt;706</title>
<path fill="none" stroke="#00ff00" stroke-width=".2392" d="M246.4957,-142.3332C246.4957,-134.4729 246.4957,-125.3922 246.4957,-116.842"/>
<polygon fill="#00ff00" stroke="#00ff00" stroke-width=".2392" points="249.9958,-116.7934 246.4957,-106.7934 242.9958,-116.7934 249.9958,-116.7934"/>
</g>
</g>
</svg>
