<?xml version="1.0" encoding="UTF-8" standalone="no"?>
<!DOCTYPE svg PUBLIC "-//W3C//DTD SVG 1.1//EN"
 "http://www.w3.org/Graphics/SVG/1.1/DTD/svg11.dtd">
<!-- Generated by graphviz version 2.40.1 (20161225.0304)
 -->
<!-- Title: %3 Pages: 1 -->
<svg width="386pt" height="175pt"
 viewBox="0.00 0.00 386.00 174.79" xmlns="http://www.w3.org/2000/svg" xmlns:xlink="http://www.w3.org/1999/xlink">
<g id="graph0" class="graph" transform="scale(1 1) rotate(0) translate(4 170.7893)">
<title>%3</title>
<polygon fill="#ffffff" stroke="transparent" points="-4,4 -4,-170.7893 381.9976,-170.7893 381.9976,4 -4,4"/>
<!-- E0 -->
<g id="node1" class="node">
<title>E0</title>
<polygon fill="#d3d3d3" stroke="#000000" points="25.9963,-166.7893 .0012,-166.7893 .0012,-149.7893 25.9963,-149.7893 25.9963,-166.7893"/>
<text text-anchor="middle" x="12.9988" y="-155.5893" font-family="Times,serif" font-size="9.00" fill="#000000">E0</text>
</g>
<!-- E1 -->
<g id="node2" class="node">
<title>E1</title>
<polygon fill="#d3d3d3" stroke="#000000" points="69.9963,-166.7893 44.0012,-166.7893 44.0012,-149.7893 69.9963,-149.7893 69.9963,-166.7893"/>
<text text-anchor="middle" x="56.9988" y="-155.5893" font-family="Times,serif" font-size="9.00" fill="#000000">E1</text>
</g>
<!-- E0&#45;&gt;E1 -->
<!-- 1 -->
<g id="node11" class="node">
<title>1</title>
<ellipse fill="#87cefa" stroke="#000000" cx="164.9988" cy="-14.853" rx="14.4914" ry="14.4914"/>
<text text-anchor="middle" x="164.9988" y="-12.153" font-family="Times,serif" font-size="9.00" fill="#000000">1</text>
</g>
<!-- E0&#45;&gt;1 -->
<g id="edge14" class="edge">
<title>E0&#45;&gt;1</title>
<path fill="none" stroke="#00ff00" stroke-width="1.1852" d="M20.1548,-149.6746C34.3785,-132.7656 67.5516,-94.3838 98.9988,-65.7061 113.4144,-52.56 130.9602,-39.1504 144.3364,-29.4041"/>
<polygon fill="#00ff00" stroke="#00ff00" stroke-width="1.1852" points="146.7645,-31.9692 152.841,-23.2902 142.6784,-26.2855 146.7645,-31.9692"/>
</g>
<!-- E2 -->
<g id="node3" class="node">
<title>E2</title>
<polygon fill="#d3d3d3" stroke="#000000" points="113.9963,-166.7893 88.0012,-166.7893 88.0012,-149.7893 113.9963,-149.7893 113.9963,-166.7893"/>
<text text-anchor="middle" x="100.9988" y="-155.5893" font-family="Times,serif" font-size="9.00" fill="#000000">E2</text>
</g>
<!-- E1&#45;&gt;E2 -->
<!-- 0 -->
<g id="node10" class="node">
<title>0</title>
<ellipse fill="#87cefa" stroke="#000000" cx="117.9988" cy="-14.853" rx="14.4914" ry="14.4914"/>
<text text-anchor="middle" x="117.9988" y="-12.153" font-family="Times,serif" font-size="9.00" fill="#000000">0</text>
</g>
<!-- E1&#45;&gt;0 -->
<g id="edge18" class="edge">
<title>E1&#45;&gt;0</title>
<path fill="none" stroke="#ff0000" stroke-width=".1275" d="M60.6319,-149.7463C69.8432,-128.0867 94.3572,-70.4443 108.1742,-37.9546"/>
<polygon fill="#ff0000" stroke="#ff0000" stroke-width=".1275" points="111.5587,-38.9395 112.2515,-28.3674 105.117,-36.2 111.5587,-38.9395"/>
</g>
<!-- S -->
<g id="node13" class="node">
<title>S</title>
<ellipse fill="#87cefa" stroke="#000000" cx="301.9988" cy="-14.853" rx="14.7075" ry="14.7075"/>
<text text-anchor="middle" x="301.9988" y="-12.153" font-family="Times,serif" font-size="9.00" fill="#000000">S</text>
</g>
<!-- E1&#45;&gt;S -->
<g id="edge22" class="edge">
<title>E1&#45;&gt;S</title>
<path fill="none" stroke="#ff0000" stroke-width=".621" d="M63.4351,-149.7273C79.9219,-127.8868 123.0061,-71.4175 131.9988,-65.7061 188.4144,-29.8752 216.3893,-55.6067 277.9988,-29.7061 278.8683,-29.3405 279.7428,-28.946 280.6166,-28.5288"/>
<polygon fill="#ff0000" stroke="#ff0000" stroke-width=".621" points="282.6496,-31.4033 289.6926,-23.4883 279.251,-25.2837 282.6496,-31.4033"/>
</g>
<!-- E3 -->
<g id="node4" class="node">
<title>E3</title>
<polygon fill="#d3d3d3" stroke="#000000" points="157.9963,-166.7893 132.0012,-166.7893 132.0012,-149.7893 157.9963,-149.7893 157.9963,-166.7893"/>
<text text-anchor="middle" x="144.9988" y="-155.5893" font-family="Times,serif" font-size="9.00" fill="#000000">E3</text>
</g>
<!-- E2&#45;&gt;E3 -->
<!-- 5369 -->
<g id="node14" class="node">
<title>5369</title>
<ellipse fill="#add8e6" stroke="#000000" cx="164.9988" cy="-89.7477" rx="24.0833" ry="24.0833"/>
<text text-anchor="middle" x="164.9988" y="-91.5477" font-family="Times,serif" font-size="9.00" fill="#000000">5369</text>
<text text-anchor="middle" x="164.9988" y="-82.5477" font-family="Times,serif" font-size="9.00" fill="#000000">sigm</text>
</g>
<!-- E2&#45;&gt;5369 -->
<g id="edge21" class="edge">
<title>E2&#45;&gt;5369</title>
<path fill="none" stroke="#00ff00" stroke-width=".1914" d="M109.1044,-149.6085C117.1612,-140.9799 129.9131,-127.3232 141.2036,-115.2315"/>
<polygon fill="#00ff00" stroke="#00ff00" stroke-width=".1914" points="144.0814,-117.2779 148.348,-107.5801 138.965,-112.5005 144.0814,-117.2779"/>
</g>
<!-- E4 -->
<g id="node5" class="node">
<title>E4</title>
<polygon fill="#d3d3d3" stroke="#000000" points="201.9963,-166.7893 176.0012,-166.7893 176.0012,-149.7893 201.9963,-149.7893 201.9963,-166.7893"/>
<text text-anchor="middle" x="188.9988" y="-155.5893" font-family="Times,serif" font-size="9.00" fill="#000000">E4</text>
</g>
<!-- E3&#45;&gt;E4 -->
<!-- E5 -->
<g id="node6" class="node">
<title>E5</title>
<polygon fill="#d3d3d3" stroke="#000000" points="245.9963,-166.7893 220.0012,-166.7893 220.0012,-149.7893 245.9963,-149.7893 245.9963,-166.7893"/>
<text text-anchor="middle" x="232.9988" y="-155.5893" font-family="Times,serif" font-size="9.00" fill="#000000">E5</text>
</g>
<!-- E4&#45;&gt;E5 -->
<!-- E4&#45;&gt;5369 -->
<g id="edge19" class="edge">
<title>E4&#45;&gt;5369</title>
<path fill="none" stroke="#00ff00" stroke-width=".2475" d="M185.9592,-149.6085C183.493,-142.5655 179.8539,-132.1725 176.2972,-122.0149"/>
<polygon fill="#00ff00" stroke="#00ff00" stroke-width=".2475" points="179.5617,-120.7469 172.9535,-112.4655 172.955,-123.0603 179.5617,-120.7469"/>
</g>
<!-- E6 -->
<g id="node7" class="node">
<title>E6</title>
<polygon fill="#d3d3d3" stroke="#000000" points="289.9963,-166.7893 264.0012,-166.7893 264.0012,-149.7893 289.9963,-149.7893 289.9963,-166.7893"/>
<text text-anchor="middle" x="276.9988" y="-155.5893" font-family="Times,serif" font-size="9.00" fill="#000000">E6</text>
</g>
<!-- E5&#45;&gt;E6 -->
<!-- 2 -->
<g id="node12" class="node">
<title>2</title>
<ellipse fill="#87cefa" stroke="#000000" cx="254.9988" cy="-14.853" rx="14.4914" ry="14.4914"/>
<text text-anchor="middle" x="254.9988" y="-12.153" font-family="Times,serif" font-size="9.00" fill="#000000">2</text>
</g>
<!-- E5&#45;&gt;2 -->
<g id="edge16" class="edge">
<title>E5&#45;&gt;2</title>
<path fill="none" stroke="#ff0000" stroke-width=".1443" d="M234.3091,-149.7463C237.5836,-128.3972 246.2199,-72.0896 251.2388,-39.3672"/>
<polygon fill="#ff0000" stroke="#ff0000" stroke-width=".1443" points="254.7327,-39.6739 252.7892,-29.2589 247.8136,-38.6126 254.7327,-39.6739"/>
</g>
<!-- E5&#45;&gt;S -->
<g id="edge15" class="edge">
<title>E5&#45;&gt;S</title>
<path fill="none" stroke="#ff0000" stroke-width="1.0177" d="M238.2259,-149.5552C243.4633,-140.676 251.6389,-126.4611 257.9988,-113.7893 270.7669,-88.3494 283.8241,-58.3914 292.3615,-38.16"/>
<polygon fill="#ff0000" stroke="#ff0000" stroke-width="1.0177" points="295.6438,-39.3832 296.2785,-28.8074 289.1871,-36.679 295.6438,-39.3832"/>
</g>
<!-- E7 -->
<g id="node8" class="node">
<title>E7</title>
<polygon fill="#d3d3d3" stroke="#000000" points="333.9963,-166.7893 308.0012,-166.7893 308.0012,-149.7893 333.9963,-149.7893 333.9963,-166.7893"/>
<text text-anchor="middle" x="320.9988" y="-155.5893" font-family="Times,serif" font-size="9.00" fill="#000000">E7</text>
</g>
<!-- E6&#45;&gt;E7 -->
<!-- E6&#45;&gt;0 -->
<g id="edge12" class="edge">
<title>E6&#45;&gt;0</title>
<path fill="none" stroke="#ff0000" stroke-width="2.526" d="M270.978,-149.6274C258.6586,-132.3025 229.1024,-92.7292 197.9988,-65.7061 195.4055,-63.453 162.1545,-42.5007 139.3461,-28.2035"/>
<polygon fill="#ff0000" stroke="#ff0000" stroke-width="2.526" points="140.9537,-25.0806 130.6208,-22.7392 137.2383,-31.0132 140.9537,-25.0806"/>
</g>
<!-- E6&#45;&gt;2 -->
<g id="edge17" class="edge">
<title>E6&#45;&gt;2</title>
<path fill="none" stroke="#00ff00" stroke-width=".3767" d="M276.7738,-149.54C276.2323,-133.0291 274.4658,-96.1959 268.9988,-65.7061 267.3902,-56.735 264.9162,-47.0527 262.4928,-38.5683"/>
<polygon fill="#00ff00" stroke="#00ff00" stroke-width=".3767" points="265.8342,-37.5254 259.6236,-28.9417 259.1258,-39.5249 265.8342,-37.5254"/>
</g>
<!-- E8 -->
<g id="node9" class="node">
<title>E8</title>
<polygon fill="#d3d3d3" stroke="#000000" points="377.9963,-166.7893 352.0012,-166.7893 352.0012,-149.7893 377.9963,-149.7893 377.9963,-166.7893"/>
<text text-anchor="middle" x="364.9988" y="-155.5893" font-family="Times,serif" font-size="9.00" fill="#000000">E8</text>
</g>
<!-- E7&#45;&gt;E8 -->
<!-- E8&#45;&gt;2 -->
<g id="edge13" class="edge">
<title>E8&#45;&gt;2</title>
<path fill="none" stroke="#ff0000" stroke-width="2.1389" d="M358.4472,-149.7463C341.2827,-127.3644 294.6521,-66.5597 270.2885,-34.7904"/>
<polygon fill="#ff0000" stroke="#ff0000" stroke-width="2.1389" points="272.913,-32.4611 264.0502,-26.6558 267.3584,-36.7209 272.913,-32.4611"/>
</g>
<!-- 0&#45;&gt;1 -->
<!-- 1&#45;&gt;2 -->
<!-- 2&#45;&gt;S -->
<!-- 5369&#45;&gt;1 -->
<g id="edge20" class="edge">
<title>5369&#45;&gt;1</title>
<path fill="none" stroke="#ff0000" stroke-width=".2255" d="M164.9988,-65.6383C164.9988,-57.432 164.9988,-48.2428 164.9988,-39.9602"/>
<polygon fill="#ff0000" stroke="#ff0000" stroke-width=".2255" points="168.4989,-39.7533 164.9988,-29.7534 161.4989,-39.7534 168.4989,-39.7533"/>
</g>
</g>
</svg>
