<?xml version="1.0" encoding="UTF-8" standalone="no"?>
<!DOCTYPE svg PUBLIC "-//W3C//DTD SVG 1.1//EN"
 "http://www.w3.org/Graphics/SVG/1.1/DTD/svg11.dtd">
<!-- Generated by graphviz version 2.40.1 (20161225.0304)
 -->
<!-- Title: %3 Pages: 1 -->
<svg width="485pt" height="182pt"
 viewBox="0.00 0.00 484.77 181.85" xmlns="http://www.w3.org/2000/svg" xmlns:xlink="http://www.w3.org/1999/xlink">
<g id="graph0" class="graph" transform="scale(1 1) rotate(0) translate(4 177.8494)">
<title>%3</title>
<polygon fill="#ffffff" stroke="transparent" points="-4,4 -4,-177.8494 480.7661,-177.8494 480.7661,4 -4,4"/>
<!-- 0 -->
<g id="node1" class="node">
<title>0</title>
<polygon fill="#d3d3d3" stroke="#000000" points="164.389,-173.8494 144.3771,-173.8494 144.3771,-156.8494 164.389,-156.8494 164.389,-173.8494"/>
<text text-anchor="middle" x="154.383" y="-162.6494" font-family="Times,serif" font-size="9.00" fill="#000000">0</text>
</g>
<!-- 1 -->
<g id="node2" class="node">
<title>1</title>
<polygon fill="#d3d3d3" stroke="#000000" points="221.389,-173.8494 201.3771,-173.8494 201.3771,-156.8494 221.389,-156.8494 221.389,-173.8494"/>
<text text-anchor="middle" x="211.383" y="-162.6494" font-family="Times,serif" font-size="9.00" fill="#000000">1</text>
</g>
<!-- 0&#45;&gt;1 -->
<!-- E2 -->
<g id="node6" class="node">
<title>E2</title>
<ellipse fill="#87cefa" stroke="#000000" cx="128.383" cy="-18.383" rx="18.2668" ry="18.2668"/>
<text text-anchor="middle" x="128.383" y="-15.683" font-family="Times,serif" font-size="9.00" fill="#000000">E2</text>
</g>
<!-- 0&#45;&gt;E2 -->
<g id="edge15" class="edge">
<title>0&#45;&gt;E2</title>
<path fill="none" stroke="#ff0000" stroke-width=".5844" d="M152.8345,-156.5961C149.0859,-135.4071 139.3916,-80.6092 133.3966,-46.7221"/>
<polygon fill="#ff0000" stroke="#ff0000" stroke-width=".5844" points="136.781,-45.7611 131.5923,-36.5237 129.888,-46.9806 136.781,-45.7611"/>
</g>
<!-- E8 -->
<g id="node12" class="node">
<title>E8</title>
<ellipse fill="#87cefa" stroke="#000000" cx="458.383" cy="-18.383" rx="18.2668" ry="18.2668"/>
<text text-anchor="middle" x="458.383" y="-15.683" font-family="Times,serif" font-size="9.00" fill="#000000">E8</text>
</g>
<!-- 0&#45;&gt;E8 -->
<g id="edge13" class="edge">
<title>0&#45;&gt;E8</title>
<path fill="none" stroke="#00ff00" stroke-width="1.9881" d="M164.4183,-161.2974C200.9492,-146.4181 329.9544,-92.7401 430.383,-36.7661 431.7164,-36.0229 433.0707,-35.2389 434.4277,-34.4302"/>
<polygon fill="#00ff00" stroke="#00ff00" stroke-width="1.9881" points="436.6181,-37.1877 443.2269,-28.9068 432.8965,-31.259 436.6181,-37.1877"/>
</g>
<!-- 5219 -->
<g id="node13" class="node">
<title>5219</title>
<ellipse fill="#add8e6" stroke="#000000" cx="84.383" cy="-96.8077" rx="24.0833" ry="24.0833"/>
<text text-anchor="middle" x="84.383" y="-98.6077" font-family="Times,serif" font-size="9.00" fill="#000000">5219</text>
<text text-anchor="middle" x="84.383" y="-89.6077" font-family="Times,serif" font-size="9.00" fill="#000000">sigm</text>
</g>
<!-- 0&#45;&gt;5219 -->
<g id="edge16" class="edge">
<title>0&#45;&gt;5219</title>
<path fill="none" stroke="#ff0000" stroke-width=".1005" d="M145.5175,-156.6685C136.353,-147.6949 121.6344,-133.283 108.9357,-120.8489"/>
<polygon fill="#ff0000" stroke="#ff0000" stroke-width=".1005" points="111.3435,-118.308 101.7496,-113.8125 106.4461,-123.3096 111.3435,-118.308"/>
</g>
<!-- 2 -->
<g id="node3" class="node">
<title>2</title>
<polygon fill="#d3d3d3" stroke="#000000" points="260.389,-173.8494 240.3771,-173.8494 240.3771,-156.8494 260.389,-156.8494 260.389,-173.8494"/>
<text text-anchor="middle" x="250.383" y="-162.6494" font-family="Times,serif" font-size="9.00" fill="#000000">2</text>
</g>
<!-- 1&#45;&gt;2 -->
<!-- E5 -->
<g id="node9" class="node">
<title>E5</title>
<ellipse fill="#87cefa" stroke="#000000" cx="293.383" cy="-18.383" rx="18.2668" ry="18.2668"/>
<text text-anchor="middle" x="293.383" y="-15.683" font-family="Times,serif" font-size="9.00" fill="#000000">E5</text>
</g>
<!-- 1&#45;&gt;E5 -->
<g id="edge12" class="edge">
<title>1&#45;&gt;E5</title>
<path fill="none" stroke="#00ff00" stroke-width="1.4877" d="M215.8085,-156.5774C224.2051,-140.0287 243.1521,-103.1352 260.383,-72.7661 265.942,-62.9686 272.31,-52.3451 277.9598,-43.1091"/>
<polygon fill="#00ff00" stroke="#00ff00" stroke-width="1.4877" points="281.0489,-44.7676 283.3137,-34.4176 275.0889,-41.0962 281.0489,-44.7676"/>
</g>
<!-- E3 -->
<g id="node7" class="node">
<title>E3</title>
<ellipse fill="#87cefa" stroke="#000000" cx="183.383" cy="-18.383" rx="18.2668" ry="18.2668"/>
<text text-anchor="middle" x="183.383" y="-15.683" font-family="Times,serif" font-size="9.00" fill="#000000">E3</text>
</g>
<!-- 2&#45;&gt;E3 -->
<g id="edge11" class="edge">
<title>2&#45;&gt;E3</title>
<path fill="none" stroke="#00ff00" stroke-width="2.1484" d="M246.3925,-156.5961C236.5466,-134.9987 210.7824,-78.4842 195.4199,-44.7863"/>
<polygon fill="#00ff00" stroke="#00ff00" stroke-width="2.1484" points="198.5328,-43.1768 191.1999,-35.5296 192.1635,-46.0805 198.5328,-43.1768"/>
</g>
<!-- E4 -->
<g id="node8" class="node">
<title>E4</title>
<ellipse fill="#87cefa" stroke="#000000" cx="238.383" cy="-18.383" rx="18.2668" ry="18.2668"/>
<text text-anchor="middle" x="238.383" y="-15.683" font-family="Times,serif" font-size="9.00" fill="#000000">E4</text>
</g>
<!-- 2&#45;&gt;E4 -->
<g id="edge14" class="edge">
<title>2&#45;&gt;E4</title>
<path fill="none" stroke="#ff0000" stroke-width=".1161" d="M249.6683,-156.5961C247.9428,-135.4629 243.4874,-80.8974 240.7189,-46.9901"/>
<polygon fill="#ff0000" stroke="#ff0000" stroke-width=".1161" points="244.1871,-46.4577 239.8848,-36.7757 237.2103,-47.0274 244.1871,-46.4577"/>
</g>
<!-- 2&#45;&gt;E5 -->
<g id="edge19" class="edge">
<title>2&#45;&gt;E5</title>
<path fill="none" stroke="#ff0000" stroke-width=".4846" d="M252.9441,-156.5961C259.1705,-135.3154 275.3157,-80.1341 285.2199,-46.2832"/>
<polygon fill="#ff0000" stroke="#ff0000" stroke-width=".4846" points="288.6264,-47.1042 288.0754,-36.5237 281.908,-45.1385 288.6264,-47.1042"/>
</g>
<!-- E0 -->
<g id="node4" class="node">
<title>E0</title>
<ellipse fill="#87cefa" stroke="#000000" cx="18.383" cy="-18.383" rx="18.2668" ry="18.2668"/>
<text text-anchor="middle" x="18.383" y="-15.683" font-family="Times,serif" font-size="9.00" fill="#000000">E0</text>
</g>
<!-- E1 -->
<g id="node5" class="node">
<title>E1</title>
<ellipse fill="#87cefa" stroke="#000000" cx="73.383" cy="-18.383" rx="18.2668" ry="18.2668"/>
<text text-anchor="middle" x="73.383" y="-15.683" font-family="Times,serif" font-size="9.00" fill="#000000">E1</text>
</g>
<!-- E0&#45;&gt;E1 -->
<!-- E1&#45;&gt;E2 -->
<!-- E2&#45;&gt;E3 -->
<!-- E3&#45;&gt;E4 -->
<!-- E4&#45;&gt;E5 -->
<!-- E6 -->
<g id="node10" class="node">
<title>E6</title>
<ellipse fill="#87cefa" stroke="#000000" cx="348.383" cy="-18.383" rx="18.2668" ry="18.2668"/>
<text text-anchor="middle" x="348.383" y="-15.683" font-family="Times,serif" font-size="9.00" fill="#000000">E6</text>
</g>
<!-- E5&#45;&gt;E6 -->
<!-- E7 -->
<g id="node11" class="node">
<title>E7</title>
<ellipse fill="#87cefa" stroke="#000000" cx="403.383" cy="-18.383" rx="18.2668" ry="18.2668"/>
<text text-anchor="middle" x="403.383" y="-15.683" font-family="Times,serif" font-size="9.00" fill="#000000">E7</text>
</g>
<!-- E6&#45;&gt;E7 -->
<!-- E7&#45;&gt;E8 -->
<!-- 5219&#45;&gt;E1 -->
<g id="edge18" class="edge">
<title>5219&#45;&gt;E1</title>
<path fill="none" stroke="#00ff00" stroke-width=".5262" d="M81.0229,-72.8516C79.873,-64.6533 78.5753,-55.401 77.3801,-46.8799"/>
<polygon fill="#00ff00" stroke="#00ff00" stroke-width=".5262" points="80.8451,-46.3855 75.9899,-36.9686 73.9129,-47.3579 80.8451,-46.3855"/>
</g>
<!-- 5219&#45;&gt;E2 -->
<g id="edge17" class="edge">
<title>5219&#45;&gt;E2</title>
<path fill="none" stroke="#ff0000" stroke-width=".4065" d="M96.1742,-75.7914C101.7483,-65.8564 108.4457,-53.919 114.2861,-43.5091"/>
<polygon fill="#ff0000" stroke="#ff0000" stroke-width=".4065" points="117.5114,-44.9135 119.352,-34.4797 111.4066,-41.4884 117.5114,-44.9135"/>
</g>
</g>
</svg>
