<?xml version="1.0" encoding="UTF-8" standalone="no"?>
<!DOCTYPE svg PUBLIC "-//W3C//DTD SVG 1.1//EN"
 "http://www.w3.org/Graphics/SVG/1.1/DTD/svg11.dtd">
<!-- Generated by graphviz version 2.40.1 (20161225.0304)
 -->
<!-- Title: %3 Pages: 1 -->
<svg width="386pt" height="91pt"
 viewBox="0.00 0.00 386.00 90.71" xmlns="http://www.w3.org/2000/svg" xmlns:xlink="http://www.w3.org/1999/xlink">
<g id="graph0" class="graph" transform="scale(1 1) rotate(0) translate(4 86.7061)">
<title>%3</title>
<polygon fill="#ffffff" stroke="transparent" points="-4,4 -4,-86.7061 381.9976,-86.7061 381.9976,4 -4,4"/>
<!-- E0 -->
<g id="node1" class="node">
<title>E0</title>
<polygon fill="#d3d3d3" stroke="#000000" points="25.9963,-82.7061 .0012,-82.7061 .0012,-65.7061 25.9963,-65.7061 25.9963,-82.7061"/>
<text text-anchor="middle" x="12.9988" y="-71.5061" font-family="Times,serif" font-size="9.00" fill="#000000">E0</text>
</g>
<!-- E1 -->
<g id="node2" class="node">
<title>E1</title>
<polygon fill="#d3d3d3" stroke="#000000" points="69.9963,-82.7061 44.0012,-82.7061 44.0012,-65.7061 69.9963,-65.7061 69.9963,-82.7061"/>
<text text-anchor="middle" x="56.9988" y="-71.5061" font-family="Times,serif" font-size="9.00" fill="#000000">E1</text>
</g>
<!-- E0&#45;&gt;E1 -->
<!-- E2 -->
<g id="node3" class="node">
<title>E2</title>
<polygon fill="#d3d3d3" stroke="#000000" points="113.9963,-82.7061 88.0012,-82.7061 88.0012,-65.7061 113.9963,-65.7061 113.9963,-82.7061"/>
<text text-anchor="middle" x="100.9988" y="-71.5061" font-family="Times,serif" font-size="9.00" fill="#000000">E2</text>
</g>
<!-- E1&#45;&gt;E2 -->
<!-- S -->
<g id="node13" class="node">
<title>S</title>
<ellipse fill="#87cefa" stroke="#000000" cx="282.9988" cy="-14.853" rx="14.7075" ry="14.7075"/>
<text text-anchor="middle" x="282.9988" y="-12.153" font-family="Times,serif" font-size="9.00" fill="#000000">S</text>
</g>
<!-- E1&#45;&gt;S -->
<g id="edge16" class="edge">
<title>E1&#45;&gt;S</title>
<path fill="none" stroke="#00ff00" stroke-width=".2145" d="M70.3698,-68.621C73.1893,-67.562 76.168,-66.5294 78.9988,-65.7061 157.3368,-42.9211 183.1076,-59.6481 258.9988,-29.7061 259.8762,-29.3599 260.7574,-28.9818 261.6368,-28.5785"/>
<polygon fill="#00ff00" stroke="#00ff00" stroke-width=".2145" points="263.6435,-31.4705 270.7393,-23.6028 260.2859,-25.3282 263.6435,-31.4705"/>
</g>
<!-- E3 -->
<g id="node4" class="node">
<title>E3</title>
<polygon fill="#d3d3d3" stroke="#000000" points="157.9963,-82.7061 132.0012,-82.7061 132.0012,-65.7061 157.9963,-65.7061 157.9963,-82.7061"/>
<text text-anchor="middle" x="144.9988" y="-71.5061" font-family="Times,serif" font-size="9.00" fill="#000000">E3</text>
</g>
<!-- E2&#45;&gt;E3 -->
<!-- E4 -->
<g id="node5" class="node">
<title>E4</title>
<polygon fill="#d3d3d3" stroke="#000000" points="201.9963,-82.7061 176.0012,-82.7061 176.0012,-65.7061 201.9963,-65.7061 201.9963,-82.7061"/>
<text text-anchor="middle" x="188.9988" y="-71.5061" font-family="Times,serif" font-size="9.00" fill="#000000">E4</text>
</g>
<!-- E3&#45;&gt;E4 -->
<!-- 2 -->
<g id="node12" class="node">
<title>2</title>
<ellipse fill="#87cefa" stroke="#000000" cx="235.9988" cy="-14.853" rx="14.4914" ry="14.4914"/>
<text text-anchor="middle" x="235.9988" y="-12.153" font-family="Times,serif" font-size="9.00" fill="#000000">2</text>
</g>
<!-- E3&#45;&gt;2 -->
<g id="edge13" class="edge">
<title>E3&#45;&gt;2</title>
<path fill="none" stroke="#00ff00" stroke-width="1.8014" d="M158.0369,-65.7022C173.0192,-55.9303 197.8,-39.7675 215.3988,-28.289"/>
<polygon fill="#00ff00" stroke="#00ff00" stroke-width="1.8014" points="217.3935,-31.1667 223.8573,-22.7721 213.5694,-25.3036 217.3935,-31.1667"/>
</g>
<!-- E3&#45;&gt;S -->
<g id="edge15" class="edge">
<title>E3&#45;&gt;S</title>
<path fill="none" stroke="#00ff00" stroke-width=".829" d="M158.1931,-69.0917C187.6951,-57.6514 256.6109,-30.8986 258.9988,-29.7061 259.8427,-29.2846 260.6953,-28.8426 261.5507,-28.3854"/>
<polygon fill="#00ff00" stroke="#00ff00" stroke-width=".829" points="263.6553,-31.2104 270.541,-23.1583 260.1368,-25.1589 263.6553,-31.2104"/>
</g>
<!-- E5 -->
<g id="node6" class="node">
<title>E5</title>
<polygon fill="#d3d3d3" stroke="#000000" points="245.9963,-82.7061 220.0012,-82.7061 220.0012,-65.7061 245.9963,-65.7061 245.9963,-82.7061"/>
<text text-anchor="middle" x="232.9988" y="-71.5061" font-family="Times,serif" font-size="9.00" fill="#000000">E5</text>
</g>
<!-- E4&#45;&gt;E5 -->
<!-- 1 -->
<g id="node11" class="node">
<title>1</title>
<ellipse fill="#87cefa" stroke="#000000" cx="188.9988" cy="-14.853" rx="14.4914" ry="14.4914"/>
<text text-anchor="middle" x="188.9988" y="-12.153" font-family="Times,serif" font-size="9.00" fill="#000000">1</text>
</g>
<!-- E4&#45;&gt;1 -->
<g id="edge18" class="edge">
<title>E4&#45;&gt;1</title>
<path fill="none" stroke="#ff0000" stroke-width=".5392" d="M188.9988,-65.7022C188.9988,-58.9749 188.9988,-49.2187 188.9988,-40.0472"/>
<polygon fill="#ff0000" stroke="#ff0000" stroke-width=".5392" points="192.4989,-39.7656 188.9988,-29.7657 185.4989,-39.7657 192.4989,-39.7656"/>
</g>
<!-- E4&#45;&gt;S -->
<g id="edge19" class="edge">
<title>E4&#45;&gt;S</title>
<path fill="none" stroke="#00ff00" stroke-width=".5394" d="M202.0691,-65.9533C217.5187,-56.1982 243.4419,-39.8299 261.7811,-28.2502"/>
<polygon fill="#00ff00" stroke="#00ff00" stroke-width=".5394" points="263.7529,-31.1445 270.3398,-22.8461 260.0157,-25.2256 263.7529,-31.1445"/>
</g>
<!-- E6 -->
<g id="node7" class="node">
<title>E6</title>
<polygon fill="#d3d3d3" stroke="#000000" points="289.9963,-82.7061 264.0012,-82.7061 264.0012,-65.7061 289.9963,-65.7061 289.9963,-82.7061"/>
<text text-anchor="middle" x="276.9988" y="-71.5061" font-family="Times,serif" font-size="9.00" fill="#000000">E6</text>
</g>
<!-- E5&#45;&gt;E6 -->
<!-- E5&#45;&gt;1 -->
<g id="edge12" class="edge">
<title>E5&#45;&gt;1</title>
<path fill="none" stroke="#00ff00" stroke-width="1.6475" d="M226.6947,-65.7022C220.754,-57.6887 211.6274,-45.3775 203.8425,-34.8762"/>
<polygon fill="#00ff00" stroke="#00ff00" stroke-width="1.6475" points="206.4851,-32.5637 197.7181,-26.6148 200.8617,-36.7325 206.4851,-32.5637"/>
</g>
<!-- E5&#45;&gt;S -->
<g id="edge17" class="edge">
<title>E5&#45;&gt;S</title>
<path fill="none" stroke="#00ff00" stroke-width=".3001" d="M240.1626,-65.7022C246.9808,-57.6086 257.4922,-45.1309 266.3959,-34.5617"/>
<polygon fill="#00ff00" stroke="#00ff00" stroke-width=".3001" points="269.3245,-36.5177 273.0905,-26.6148 263.9709,-32.0077 269.3245,-36.5177"/>
</g>
<!-- E7 -->
<g id="node8" class="node">
<title>E7</title>
<polygon fill="#d3d3d3" stroke="#000000" points="333.9963,-82.7061 308.0012,-82.7061 308.0012,-65.7061 333.9963,-65.7061 333.9963,-82.7061"/>
<text text-anchor="middle" x="320.9988" y="-71.5061" font-family="Times,serif" font-size="9.00" fill="#000000">E7</text>
</g>
<!-- E6&#45;&gt;E7 -->
<!-- 0 -->
<g id="node10" class="node">
<title>0</title>
<ellipse fill="#87cefa" stroke="#000000" cx="141.9988" cy="-14.853" rx="14.4914" ry="14.4914"/>
<text text-anchor="middle" x="141.9988" y="-12.153" font-family="Times,serif" font-size="9.00" fill="#000000">0</text>
</g>
<!-- E6&#45;&gt;0 -->
<g id="edge22" class="edge">
<title>E6&#45;&gt;0</title>
<path fill="none" stroke="#00ff00" stroke-width=".2743" d="M263.9001,-69.102C236.5562,-58.4258 175.172,-34.3396 165.9988,-29.7061 165.1568,-29.2808 164.3058,-28.8355 163.4518,-28.3756"/>
<polygon fill="#00ff00" stroke="#00ff00" stroke-width=".2743" points="164.8694,-25.1506 154.4679,-23.1356 161.3426,-31.1972 164.8694,-25.1506"/>
</g>
<!-- E8 -->
<g id="node9" class="node">
<title>E8</title>
<polygon fill="#d3d3d3" stroke="#000000" points="377.9963,-82.7061 352.0012,-82.7061 352.0012,-65.7061 377.9963,-65.7061 377.9963,-82.7061"/>
<text text-anchor="middle" x="364.9988" y="-71.5061" font-family="Times,serif" font-size="9.00" fill="#000000">E8</text>
</g>
<!-- E7&#45;&gt;E8 -->
<!-- E8&#45;&gt;0 -->
<g id="edge14" class="edge">
<title>E8&#45;&gt;0</title>
<path fill="none" stroke="#00ff00" stroke-width="1.9994" d="M351.6257,-68.6281C348.8064,-67.5686 345.8282,-66.534 342.9988,-65.7061 265.9524,-43.1606 240.6261,-59.29 165.9988,-29.7061 165.1219,-29.3585 164.2412,-28.9791 163.3622,-28.5749"/>
<polygon fill="#00ff00" stroke="#00ff00" stroke-width="1.9994" points="164.7142,-25.3249 154.2616,-23.5943 161.3536,-31.4655 164.7142,-25.3249"/>
</g>
<!-- E8&#45;&gt;1 -->
<g id="edge20" class="edge">
<title>E8&#45;&gt;1</title>
<path fill="none" stroke="#ff0000" stroke-width=".1381" d="M351.5785,-68.7797C348.7626,-67.7092 345.7978,-66.6318 342.9988,-65.7061 286.0791,-46.8799 267.9303,-53.7228 212.9988,-29.7061 212.1345,-29.3282 211.2645,-28.9232 210.3945,-28.4972"/>
<polygon fill="#ff0000" stroke="#ff0000" stroke-width=".1381" points="211.7699,-25.2557 201.3361,-23.4156 208.3451,-31.3607 211.7699,-25.2557"/>
</g>
<!-- E8&#45;&gt;2 -->
<g id="edge21" class="edge">
<title>E8&#45;&gt;2</title>
<path fill="none" stroke="#00ff00" stroke-width=".3293" d="M351.9947,-69.0802C327.6309,-59.4219 276.0338,-38.6928 258.9988,-29.7061 258.1895,-29.2791 257.3718,-28.8324 256.5517,-28.3713"/>
<polygon fill="#00ff00" stroke="#00ff00" stroke-width=".3293" points="258.2958,-25.3356 247.934,-23.1258 254.6562,-31.315 258.2958,-25.3356"/>
</g>
<!-- 0&#45;&gt;1 -->
<!-- 1&#45;&gt;2 -->
<!-- 2&#45;&gt;S -->
</g>
</svg>
