<?xml version="1.0" encoding="utf-8" standalone="no"?>
<!DOCTYPE svg PUBLIC "-//W3C//DTD SVG 1.1//EN"
  "http://www.w3.org/Graphics/SVG/1.1/DTD/svg11.dtd">
<!-- Created with matplotlib (https://matplotlib.org/) -->
<svg height="345.6pt" version="1.1" viewBox="0 0 460.8 345.6" width="460.8pt" xmlns="http://www.w3.org/2000/svg" xmlns:xlink="http://www.w3.org/1999/xlink">
 <defs>
  <style type="text/css">
*{stroke-linecap:butt;stroke-linejoin:round;}
  </style>
 </defs>
 <g id="figure_1">
  <g id="patch_1">
   <path d="M 0 345.6 
L 460.8 345.6 
L 460.8 0 
L 0 0 
z
" style="fill:#ffffff;"/>
  </g>
  <g id="axes_1">
   <g id="patch_2">
    <path d="M 57.6 307.584 
L 414.72 307.584 
L 414.72 41.472 
L 57.6 41.472 
z
" style="fill:#ffffff;"/>
   </g>
   <g id="matplotlib.axis_1">
    <g id="xtick_1">
     <g id="line2d_1">
      <path clip-path="url(#p40f78a5b5c)" d="M 73.832727 307.584 
L 73.832727 41.472 
" style="fill:none;stroke:#b0b0b0;stroke-linecap:square;stroke-width:0.8;"/>
     </g>
     <g id="line2d_2">
      <defs>
       <path d="M 0 0 
L 0 3.5 
" id="mb887d1136f" style="stroke:#000000;stroke-width:0.8;"/>
      </defs>
      <g>
       <use style="stroke:#000000;stroke-width:0.8;" x="73.832727" xlink:href="#mb887d1136f" y="307.584"/>
      </g>
     </g>
     <g id="text_1">
      <!-- 0 -->
      <defs>
       <path d="M 31.78125 66.40625 
Q 24.171875 66.40625 20.328125 58.90625 
Q 16.5 51.421875 16.5 36.375 
Q 16.5 21.390625 20.328125 13.890625 
Q 24.171875 6.390625 31.78125 6.390625 
Q 39.453125 6.390625 43.28125 13.890625 
Q 47.125 21.390625 47.125 36.375 
Q 47.125 51.421875 43.28125 58.90625 
Q 39.453125 66.40625 31.78125 66.40625 
z
M 31.78125 74.21875 
Q 44.046875 74.21875 50.515625 64.515625 
Q 56.984375 54.828125 56.984375 36.375 
Q 56.984375 17.96875 50.515625 8.265625 
Q 44.046875 -1.421875 31.78125 -1.421875 
Q 19.53125 -1.421875 13.0625 8.265625 
Q 6.59375 17.96875 6.59375 36.375 
Q 6.59375 54.828125 13.0625 64.515625 
Q 19.53125 74.21875 31.78125 74.21875 
z
" id="DejaVuSans-48"/>
      </defs>
      <g transform="translate(70.651477 322.182437)scale(0.1 -0.1)">
       <use xlink:href="#DejaVuSans-48"/>
      </g>
     </g>
    </g>
    <g id="xtick_2">
     <g id="line2d_3">
      <path clip-path="url(#p40f78a5b5c)" d="M 128.122785 307.584 
L 128.122785 41.472 
" style="fill:none;stroke:#b0b0b0;stroke-linecap:square;stroke-width:0.8;"/>
     </g>
     <g id="line2d_4">
      <g>
       <use style="stroke:#000000;stroke-width:0.8;" x="128.122785" xlink:href="#mb887d1136f" y="307.584"/>
      </g>
     </g>
     <g id="text_2">
      <!-- 50 -->
      <defs>
       <path d="M 10.796875 72.90625 
L 49.515625 72.90625 
L 49.515625 64.59375 
L 19.828125 64.59375 
L 19.828125 46.734375 
Q 21.96875 47.46875 24.109375 47.828125 
Q 26.265625 48.1875 28.421875 48.1875 
Q 40.625 48.1875 47.75 41.5 
Q 54.890625 34.8125 54.890625 23.390625 
Q 54.890625 11.625 47.5625 5.09375 
Q 40.234375 -1.421875 26.90625 -1.421875 
Q 22.3125 -1.421875 17.546875 -0.640625 
Q 12.796875 0.140625 7.71875 1.703125 
L 7.71875 11.625 
Q 12.109375 9.234375 16.796875 8.0625 
Q 21.484375 6.890625 26.703125 6.890625 
Q 35.15625 6.890625 40.078125 11.328125 
Q 45.015625 15.765625 45.015625 23.390625 
Q 45.015625 31 40.078125 35.4375 
Q 35.15625 39.890625 26.703125 39.890625 
Q 22.75 39.890625 18.8125 39.015625 
Q 14.890625 38.140625 10.796875 36.28125 
z
" id="DejaVuSans-53"/>
      </defs>
      <g transform="translate(121.760285 322.182437)scale(0.1 -0.1)">
       <use xlink:href="#DejaVuSans-53"/>
       <use x="63.623047" xlink:href="#DejaVuSans-48"/>
      </g>
     </g>
    </g>
    <g id="xtick_3">
     <g id="line2d_5">
      <path clip-path="url(#p40f78a5b5c)" d="M 182.412843 307.584 
L 182.412843 41.472 
" style="fill:none;stroke:#b0b0b0;stroke-linecap:square;stroke-width:0.8;"/>
     </g>
     <g id="line2d_6">
      <g>
       <use style="stroke:#000000;stroke-width:0.8;" x="182.412843" xlink:href="#mb887d1136f" y="307.584"/>
      </g>
     </g>
     <g id="text_3">
      <!-- 100 -->
      <defs>
       <path d="M 12.40625 8.296875 
L 28.515625 8.296875 
L 28.515625 63.921875 
L 10.984375 60.40625 
L 10.984375 69.390625 
L 28.421875 72.90625 
L 38.28125 72.90625 
L 38.28125 8.296875 
L 54.390625 8.296875 
L 54.390625 0 
L 12.40625 0 
z
" id="DejaVuSans-49"/>
      </defs>
      <g transform="translate(172.869093 322.182437)scale(0.1 -0.1)">
       <use xlink:href="#DejaVuSans-49"/>
       <use x="63.623047" xlink:href="#DejaVuSans-48"/>
       <use x="127.246094" xlink:href="#DejaVuSans-48"/>
      </g>
     </g>
    </g>
    <g id="xtick_4">
     <g id="line2d_7">
      <path clip-path="url(#p40f78a5b5c)" d="M 236.702901 307.584 
L 236.702901 41.472 
" style="fill:none;stroke:#b0b0b0;stroke-linecap:square;stroke-width:0.8;"/>
     </g>
     <g id="line2d_8">
      <g>
       <use style="stroke:#000000;stroke-width:0.8;" x="236.702901" xlink:href="#mb887d1136f" y="307.584"/>
      </g>
     </g>
     <g id="text_4">
      <!-- 150 -->
      <g transform="translate(227.159151 322.182437)scale(0.1 -0.1)">
       <use xlink:href="#DejaVuSans-49"/>
       <use x="63.623047" xlink:href="#DejaVuSans-53"/>
       <use x="127.246094" xlink:href="#DejaVuSans-48"/>
      </g>
     </g>
    </g>
    <g id="xtick_5">
     <g id="line2d_9">
      <path clip-path="url(#p40f78a5b5c)" d="M 290.992958 307.584 
L 290.992958 41.472 
" style="fill:none;stroke:#b0b0b0;stroke-linecap:square;stroke-width:0.8;"/>
     </g>
     <g id="line2d_10">
      <g>
       <use style="stroke:#000000;stroke-width:0.8;" x="290.992958" xlink:href="#mb887d1136f" y="307.584"/>
      </g>
     </g>
     <g id="text_5">
      <!-- 200 -->
      <defs>
       <path d="M 19.1875 8.296875 
L 53.609375 8.296875 
L 53.609375 0 
L 7.328125 0 
L 7.328125 8.296875 
Q 12.9375 14.109375 22.625 23.890625 
Q 32.328125 33.6875 34.8125 36.53125 
Q 39.546875 41.84375 41.421875 45.53125 
Q 43.3125 49.21875 43.3125 52.78125 
Q 43.3125 58.59375 39.234375 62.25 
Q 35.15625 65.921875 28.609375 65.921875 
Q 23.96875 65.921875 18.8125 64.3125 
Q 13.671875 62.703125 7.8125 59.421875 
L 7.8125 69.390625 
Q 13.765625 71.78125 18.9375 73 
Q 24.125 74.21875 28.421875 74.21875 
Q 39.75 74.21875 46.484375 68.546875 
Q 53.21875 62.890625 53.21875 53.421875 
Q 53.21875 48.921875 51.53125 44.890625 
Q 49.859375 40.875 45.40625 35.40625 
Q 44.1875 33.984375 37.640625 27.21875 
Q 31.109375 20.453125 19.1875 8.296875 
z
" id="DejaVuSans-50"/>
      </defs>
      <g transform="translate(281.449208 322.182437)scale(0.1 -0.1)">
       <use xlink:href="#DejaVuSans-50"/>
       <use x="63.623047" xlink:href="#DejaVuSans-48"/>
       <use x="127.246094" xlink:href="#DejaVuSans-48"/>
      </g>
     </g>
    </g>
    <g id="xtick_6">
     <g id="line2d_11">
      <path clip-path="url(#p40f78a5b5c)" d="M 345.283016 307.584 
L 345.283016 41.472 
" style="fill:none;stroke:#b0b0b0;stroke-linecap:square;stroke-width:0.8;"/>
     </g>
     <g id="line2d_12">
      <g>
       <use style="stroke:#000000;stroke-width:0.8;" x="345.283016" xlink:href="#mb887d1136f" y="307.584"/>
      </g>
     </g>
     <g id="text_6">
      <!-- 250 -->
      <g transform="translate(335.739266 322.182437)scale(0.1 -0.1)">
       <use xlink:href="#DejaVuSans-50"/>
       <use x="63.623047" xlink:href="#DejaVuSans-53"/>
       <use x="127.246094" xlink:href="#DejaVuSans-48"/>
      </g>
     </g>
    </g>
    <g id="xtick_7">
     <g id="line2d_13">
      <path clip-path="url(#p40f78a5b5c)" d="M 399.573074 307.584 
L 399.573074 41.472 
" style="fill:none;stroke:#b0b0b0;stroke-linecap:square;stroke-width:0.8;"/>
     </g>
     <g id="line2d_14">
      <g>
       <use style="stroke:#000000;stroke-width:0.8;" x="399.573074" xlink:href="#mb887d1136f" y="307.584"/>
      </g>
     </g>
     <g id="text_7">
      <!-- 300 -->
      <defs>
       <path d="M 40.578125 39.3125 
Q 47.65625 37.796875 51.625 33 
Q 55.609375 28.21875 55.609375 21.1875 
Q 55.609375 10.40625 48.1875 4.484375 
Q 40.765625 -1.421875 27.09375 -1.421875 
Q 22.515625 -1.421875 17.65625 -0.515625 
Q 12.796875 0.390625 7.625 2.203125 
L 7.625 11.71875 
Q 11.71875 9.328125 16.59375 8.109375 
Q 21.484375 6.890625 26.8125 6.890625 
Q 36.078125 6.890625 40.9375 10.546875 
Q 45.796875 14.203125 45.796875 21.1875 
Q 45.796875 27.640625 41.28125 31.265625 
Q 36.765625 34.90625 28.71875 34.90625 
L 20.21875 34.90625 
L 20.21875 43.015625 
L 29.109375 43.015625 
Q 36.375 43.015625 40.234375 45.921875 
Q 44.09375 48.828125 44.09375 54.296875 
Q 44.09375 59.90625 40.109375 62.90625 
Q 36.140625 65.921875 28.71875 65.921875 
Q 24.65625 65.921875 20.015625 65.03125 
Q 15.375 64.15625 9.8125 62.3125 
L 9.8125 71.09375 
Q 15.4375 72.65625 20.34375 73.4375 
Q 25.25 74.21875 29.59375 74.21875 
Q 40.828125 74.21875 47.359375 69.109375 
Q 53.90625 64.015625 53.90625 55.328125 
Q 53.90625 49.265625 50.4375 45.09375 
Q 46.96875 40.921875 40.578125 39.3125 
z
" id="DejaVuSans-51"/>
      </defs>
      <g transform="translate(390.029324 322.182437)scale(0.1 -0.1)">
       <use xlink:href="#DejaVuSans-51"/>
       <use x="63.623047" xlink:href="#DejaVuSans-48"/>
       <use x="127.246094" xlink:href="#DejaVuSans-48"/>
      </g>
     </g>
    </g>
    <g id="text_8">
     <!-- Generations -->
     <defs>
      <path d="M 59.515625 10.40625 
L 59.515625 29.984375 
L 43.40625 29.984375 
L 43.40625 38.09375 
L 69.28125 38.09375 
L 69.28125 6.78125 
Q 63.578125 2.734375 56.6875 0.65625 
Q 49.8125 -1.421875 42 -1.421875 
Q 24.90625 -1.421875 15.25 8.5625 
Q 5.609375 18.5625 5.609375 36.375 
Q 5.609375 54.25 15.25 64.234375 
Q 24.90625 74.21875 42 74.21875 
Q 49.125 74.21875 55.546875 72.453125 
Q 61.96875 70.703125 67.390625 67.28125 
L 67.390625 56.78125 
Q 61.921875 61.421875 55.765625 63.765625 
Q 49.609375 66.109375 42.828125 66.109375 
Q 29.4375 66.109375 22.71875 58.640625 
Q 16.015625 51.171875 16.015625 36.375 
Q 16.015625 21.625 22.71875 14.15625 
Q 29.4375 6.6875 42.828125 6.6875 
Q 48.046875 6.6875 52.140625 7.59375 
Q 56.25 8.5 59.515625 10.40625 
z
" id="DejaVuSans-71"/>
      <path d="M 56.203125 29.59375 
L 56.203125 25.203125 
L 14.890625 25.203125 
Q 15.484375 15.921875 20.484375 11.0625 
Q 25.484375 6.203125 34.421875 6.203125 
Q 39.59375 6.203125 44.453125 7.46875 
Q 49.3125 8.734375 54.109375 11.28125 
L 54.109375 2.78125 
Q 49.265625 0.734375 44.1875 -0.34375 
Q 39.109375 -1.421875 33.890625 -1.421875 
Q 20.796875 -1.421875 13.15625 6.1875 
Q 5.515625 13.8125 5.515625 26.8125 
Q 5.515625 40.234375 12.765625 48.109375 
Q 20.015625 56 32.328125 56 
Q 43.359375 56 49.78125 48.890625 
Q 56.203125 41.796875 56.203125 29.59375 
z
M 47.21875 32.234375 
Q 47.125 39.59375 43.09375 43.984375 
Q 39.0625 48.390625 32.421875 48.390625 
Q 24.90625 48.390625 20.390625 44.140625 
Q 15.875 39.890625 15.1875 32.171875 
z
" id="DejaVuSans-101"/>
      <path d="M 54.890625 33.015625 
L 54.890625 0 
L 45.90625 0 
L 45.90625 32.71875 
Q 45.90625 40.484375 42.875 44.328125 
Q 39.84375 48.1875 33.796875 48.1875 
Q 26.515625 48.1875 22.3125 43.546875 
Q 18.109375 38.921875 18.109375 30.90625 
L 18.109375 0 
L 9.078125 0 
L 9.078125 54.6875 
L 18.109375 54.6875 
L 18.109375 46.1875 
Q 21.34375 51.125 25.703125 53.5625 
Q 30.078125 56 35.796875 56 
Q 45.21875 56 50.046875 50.171875 
Q 54.890625 44.34375 54.890625 33.015625 
z
" id="DejaVuSans-110"/>
      <path d="M 41.109375 46.296875 
Q 39.59375 47.171875 37.8125 47.578125 
Q 36.03125 48 33.890625 48 
Q 26.265625 48 22.1875 43.046875 
Q 18.109375 38.09375 18.109375 28.8125 
L 18.109375 0 
L 9.078125 0 
L 9.078125 54.6875 
L 18.109375 54.6875 
L 18.109375 46.1875 
Q 20.953125 51.171875 25.484375 53.578125 
Q 30.03125 56 36.53125 56 
Q 37.453125 56 38.578125 55.875 
Q 39.703125 55.765625 41.0625 55.515625 
z
" id="DejaVuSans-114"/>
      <path d="M 34.28125 27.484375 
Q 23.390625 27.484375 19.1875 25 
Q 14.984375 22.515625 14.984375 16.5 
Q 14.984375 11.71875 18.140625 8.90625 
Q 21.296875 6.109375 26.703125 6.109375 
Q 34.1875 6.109375 38.703125 11.40625 
Q 43.21875 16.703125 43.21875 25.484375 
L 43.21875 27.484375 
z
M 52.203125 31.203125 
L 52.203125 0 
L 43.21875 0 
L 43.21875 8.296875 
Q 40.140625 3.328125 35.546875 0.953125 
Q 30.953125 -1.421875 24.3125 -1.421875 
Q 15.921875 -1.421875 10.953125 3.296875 
Q 6 8.015625 6 15.921875 
Q 6 25.140625 12.171875 29.828125 
Q 18.359375 34.515625 30.609375 34.515625 
L 43.21875 34.515625 
L 43.21875 35.40625 
Q 43.21875 41.609375 39.140625 45 
Q 35.0625 48.390625 27.6875 48.390625 
Q 23 48.390625 18.546875 47.265625 
Q 14.109375 46.140625 10.015625 43.890625 
L 10.015625 52.203125 
Q 14.9375 54.109375 19.578125 55.046875 
Q 24.21875 56 28.609375 56 
Q 40.484375 56 46.34375 49.84375 
Q 52.203125 43.703125 52.203125 31.203125 
z
" id="DejaVuSans-97"/>
      <path d="M 18.3125 70.21875 
L 18.3125 54.6875 
L 36.8125 54.6875 
L 36.8125 47.703125 
L 18.3125 47.703125 
L 18.3125 18.015625 
Q 18.3125 11.328125 20.140625 9.421875 
Q 21.96875 7.515625 27.59375 7.515625 
L 36.8125 7.515625 
L 36.8125 0 
L 27.59375 0 
Q 17.1875 0 13.234375 3.875 
Q 9.28125 7.765625 9.28125 18.015625 
L 9.28125 47.703125 
L 2.6875 47.703125 
L 2.6875 54.6875 
L 9.28125 54.6875 
L 9.28125 70.21875 
z
" id="DejaVuSans-116"/>
      <path d="M 9.421875 54.6875 
L 18.40625 54.6875 
L 18.40625 0 
L 9.421875 0 
z
M 9.421875 75.984375 
L 18.40625 75.984375 
L 18.40625 64.59375 
L 9.421875 64.59375 
z
" id="DejaVuSans-105"/>
      <path d="M 30.609375 48.390625 
Q 23.390625 48.390625 19.1875 42.75 
Q 14.984375 37.109375 14.984375 27.296875 
Q 14.984375 17.484375 19.15625 11.84375 
Q 23.34375 6.203125 30.609375 6.203125 
Q 37.796875 6.203125 41.984375 11.859375 
Q 46.1875 17.53125 46.1875 27.296875 
Q 46.1875 37.015625 41.984375 42.703125 
Q 37.796875 48.390625 30.609375 48.390625 
z
M 30.609375 56 
Q 42.328125 56 49.015625 48.375 
Q 55.71875 40.765625 55.71875 27.296875 
Q 55.71875 13.875 49.015625 6.21875 
Q 42.328125 -1.421875 30.609375 -1.421875 
Q 18.84375 -1.421875 12.171875 6.21875 
Q 5.515625 13.875 5.515625 27.296875 
Q 5.515625 40.765625 12.171875 48.375 
Q 18.84375 56 30.609375 56 
z
" id="DejaVuSans-111"/>
      <path d="M 44.28125 53.078125 
L 44.28125 44.578125 
Q 40.484375 46.53125 36.375 47.5 
Q 32.28125 48.484375 27.875 48.484375 
Q 21.1875 48.484375 17.84375 46.4375 
Q 14.5 44.390625 14.5 40.28125 
Q 14.5 37.15625 16.890625 35.375 
Q 19.28125 33.59375 26.515625 31.984375 
L 29.59375 31.296875 
Q 39.15625 29.25 43.1875 25.515625 
Q 47.21875 21.78125 47.21875 15.09375 
Q 47.21875 7.46875 41.1875 3.015625 
Q 35.15625 -1.421875 24.609375 -1.421875 
Q 20.21875 -1.421875 15.453125 -0.5625 
Q 10.6875 0.296875 5.421875 2 
L 5.421875 11.28125 
Q 10.40625 8.6875 15.234375 7.390625 
Q 20.0625 6.109375 24.8125 6.109375 
Q 31.15625 6.109375 34.5625 8.28125 
Q 37.984375 10.453125 37.984375 14.40625 
Q 37.984375 18.0625 35.515625 20.015625 
Q 33.0625 21.96875 24.703125 23.78125 
L 21.578125 24.515625 
Q 13.234375 26.265625 9.515625 29.90625 
Q 5.8125 33.546875 5.8125 39.890625 
Q 5.8125 47.609375 11.28125 51.796875 
Q 16.75 56 26.8125 56 
Q 31.78125 56 36.171875 55.265625 
Q 40.578125 54.546875 44.28125 53.078125 
z
" id="DejaVuSans-115"/>
     </defs>
     <g transform="translate(205.662344 335.860562)scale(0.1 -0.1)">
      <use xlink:href="#DejaVuSans-71"/>
      <use x="77.490234" xlink:href="#DejaVuSans-101"/>
      <use x="139.013672" xlink:href="#DejaVuSans-110"/>
      <use x="202.392578" xlink:href="#DejaVuSans-101"/>
      <use x="263.916016" xlink:href="#DejaVuSans-114"/>
      <use x="305.029297" xlink:href="#DejaVuSans-97"/>
      <use x="366.308594" xlink:href="#DejaVuSans-116"/>
      <use x="405.517578" xlink:href="#DejaVuSans-105"/>
      <use x="433.300781" xlink:href="#DejaVuSans-111"/>
      <use x="494.482422" xlink:href="#DejaVuSans-110"/>
      <use x="557.861328" xlink:href="#DejaVuSans-115"/>
     </g>
    </g>
   </g>
   <g id="matplotlib.axis_2">
    <g id="ytick_1">
     <g id="line2d_15">
      <path clip-path="url(#p40f78a5b5c)" d="M 57.6 294.032273 
L 414.72 294.032273 
" style="fill:none;stroke:#b0b0b0;stroke-linecap:square;stroke-width:0.8;"/>
     </g>
     <g id="line2d_16">
      <defs>
       <path d="M 0 0 
L -3.5 0 
" id="m9f3a9fffac" style="stroke:#000000;stroke-width:0.8;"/>
      </defs>
      <g>
       <use style="stroke:#000000;stroke-width:0.8;" x="57.6" xlink:href="#m9f3a9fffac" y="294.032273"/>
      </g>
     </g>
     <g id="text_9">
      <!-- 250 -->
      <g transform="translate(31.5125 297.831492)scale(0.1 -0.1)">
       <use xlink:href="#DejaVuSans-50"/>
       <use x="63.623047" xlink:href="#DejaVuSans-53"/>
       <use x="127.246094" xlink:href="#DejaVuSans-48"/>
      </g>
     </g>
    </g>
    <g id="ytick_2">
     <g id="line2d_17">
      <path clip-path="url(#p40f78a5b5c)" d="M 57.6 257.798827 
L 414.72 257.798827 
" style="fill:none;stroke:#b0b0b0;stroke-linecap:square;stroke-width:0.8;"/>
     </g>
     <g id="line2d_18">
      <g>
       <use style="stroke:#000000;stroke-width:0.8;" x="57.6" xlink:href="#m9f3a9fffac" y="257.798827"/>
      </g>
     </g>
     <g id="text_10">
      <!-- 500 -->
      <g transform="translate(31.5125 261.598046)scale(0.1 -0.1)">
       <use xlink:href="#DejaVuSans-53"/>
       <use x="63.623047" xlink:href="#DejaVuSans-48"/>
       <use x="127.246094" xlink:href="#DejaVuSans-48"/>
      </g>
     </g>
    </g>
    <g id="ytick_3">
     <g id="line2d_19">
      <path clip-path="url(#p40f78a5b5c)" d="M 57.6 221.565381 
L 414.72 221.565381 
" style="fill:none;stroke:#b0b0b0;stroke-linecap:square;stroke-width:0.8;"/>
     </g>
     <g id="line2d_20">
      <g>
       <use style="stroke:#000000;stroke-width:0.8;" x="57.6" xlink:href="#m9f3a9fffac" y="221.565381"/>
      </g>
     </g>
     <g id="text_11">
      <!-- 750 -->
      <defs>
       <path d="M 8.203125 72.90625 
L 55.078125 72.90625 
L 55.078125 68.703125 
L 28.609375 0 
L 18.3125 0 
L 43.21875 64.59375 
L 8.203125 64.59375 
z
" id="DejaVuSans-55"/>
      </defs>
      <g transform="translate(31.5125 225.3646)scale(0.1 -0.1)">
       <use xlink:href="#DejaVuSans-55"/>
       <use x="63.623047" xlink:href="#DejaVuSans-53"/>
       <use x="127.246094" xlink:href="#DejaVuSans-48"/>
      </g>
     </g>
    </g>
    <g id="ytick_4">
     <g id="line2d_21">
      <path clip-path="url(#p40f78a5b5c)" d="M 57.6 185.331935 
L 414.72 185.331935 
" style="fill:none;stroke:#b0b0b0;stroke-linecap:square;stroke-width:0.8;"/>
     </g>
     <g id="line2d_22">
      <g>
       <use style="stroke:#000000;stroke-width:0.8;" x="57.6" xlink:href="#m9f3a9fffac" y="185.331935"/>
      </g>
     </g>
     <g id="text_12">
      <!-- 1000 -->
      <g transform="translate(25.15 189.131154)scale(0.1 -0.1)">
       <use xlink:href="#DejaVuSans-49"/>
       <use x="63.623047" xlink:href="#DejaVuSans-48"/>
       <use x="127.246094" xlink:href="#DejaVuSans-48"/>
       <use x="190.869141" xlink:href="#DejaVuSans-48"/>
      </g>
     </g>
    </g>
    <g id="ytick_5">
     <g id="line2d_23">
      <path clip-path="url(#p40f78a5b5c)" d="M 57.6 149.098489 
L 414.72 149.098489 
" style="fill:none;stroke:#b0b0b0;stroke-linecap:square;stroke-width:0.8;"/>
     </g>
     <g id="line2d_24">
      <g>
       <use style="stroke:#000000;stroke-width:0.8;" x="57.6" xlink:href="#m9f3a9fffac" y="149.098489"/>
      </g>
     </g>
     <g id="text_13">
      <!-- 1250 -->
      <g transform="translate(25.15 152.897707)scale(0.1 -0.1)">
       <use xlink:href="#DejaVuSans-49"/>
       <use x="63.623047" xlink:href="#DejaVuSans-50"/>
       <use x="127.246094" xlink:href="#DejaVuSans-53"/>
       <use x="190.869141" xlink:href="#DejaVuSans-48"/>
      </g>
     </g>
    </g>
    <g id="ytick_6">
     <g id="line2d_25">
      <path clip-path="url(#p40f78a5b5c)" d="M 57.6 112.865043 
L 414.72 112.865043 
" style="fill:none;stroke:#b0b0b0;stroke-linecap:square;stroke-width:0.8;"/>
     </g>
     <g id="line2d_26">
      <g>
       <use style="stroke:#000000;stroke-width:0.8;" x="57.6" xlink:href="#m9f3a9fffac" y="112.865043"/>
      </g>
     </g>
     <g id="text_14">
      <!-- 1500 -->
      <g transform="translate(25.15 116.664261)scale(0.1 -0.1)">
       <use xlink:href="#DejaVuSans-49"/>
       <use x="63.623047" xlink:href="#DejaVuSans-53"/>
       <use x="127.246094" xlink:href="#DejaVuSans-48"/>
       <use x="190.869141" xlink:href="#DejaVuSans-48"/>
      </g>
     </g>
    </g>
    <g id="ytick_7">
     <g id="line2d_27">
      <path clip-path="url(#p40f78a5b5c)" d="M 57.6 76.631597 
L 414.72 76.631597 
" style="fill:none;stroke:#b0b0b0;stroke-linecap:square;stroke-width:0.8;"/>
     </g>
     <g id="line2d_28">
      <g>
       <use style="stroke:#000000;stroke-width:0.8;" x="57.6" xlink:href="#m9f3a9fffac" y="76.631597"/>
      </g>
     </g>
     <g id="text_15">
      <!-- 1750 -->
      <g transform="translate(25.15 80.430815)scale(0.1 -0.1)">
       <use xlink:href="#DejaVuSans-49"/>
       <use x="63.623047" xlink:href="#DejaVuSans-55"/>
       <use x="127.246094" xlink:href="#DejaVuSans-53"/>
       <use x="190.869141" xlink:href="#DejaVuSans-48"/>
      </g>
     </g>
    </g>
    <g id="text_16">
     <!-- Fitness -->
     <defs>
      <path d="M 9.8125 72.90625 
L 51.703125 72.90625 
L 51.703125 64.59375 
L 19.671875 64.59375 
L 19.671875 43.109375 
L 48.578125 43.109375 
L 48.578125 34.8125 
L 19.671875 34.8125 
L 19.671875 0 
L 9.8125 0 
z
" id="DejaVuSans-70"/>
     </defs>
     <g transform="translate(19.070312 192.202219)rotate(-90)scale(0.1 -0.1)">
      <use xlink:href="#DejaVuSans-70"/>
      <use x="57.410156" xlink:href="#DejaVuSans-105"/>
      <use x="85.193359" xlink:href="#DejaVuSans-116"/>
      <use x="124.402344" xlink:href="#DejaVuSans-110"/>
      <use x="187.78125" xlink:href="#DejaVuSans-101"/>
      <use x="249.304688" xlink:href="#DejaVuSans-115"/>
      <use x="301.404297" xlink:href="#DejaVuSans-115"/>
     </g>
    </g>
   </g>
   <g id="line2d_29">
    <path clip-path="url(#p40f78a5b5c)" d="M 73.832727 291.645572 
L 74.918528 251.119049 
L 76.00433 246.567387 
L 77.090131 239.793567 
L 78.175932 245.25216 
L 79.261733 240.863741 
L 80.347534 242.326097 
L 81.433335 243.356066 
L 82.519137 237.392053 
L 83.604938 236.326318 
L 84.690739 228.355013 
L 85.77654 231.753879 
L 86.862341 232.759628 
L 87.948142 235.929613 
L 89.033943 226.222952 
L 90.119745 225.976368 
L 91.205546 232.229986 
L 92.291347 226.901606 
L 93.377148 218.31101 
L 94.462949 233.535125 
L 95.54875 229.524464 
L 96.634552 199.283589 
L 97.720353 188.508763 
L 98.806154 195.999582 
L 99.891955 197.729972 
L 100.977756 209.768204 
L 102.063557 209.952715 
L 103.149358 218.067686 
L 104.23516 192.771052 
L 105.320961 211.496053 
L 106.406762 188.721018 
L 107.492563 211.488625 
L 108.578364 208.866679 
L 109.664165 220.270297 
L 110.749967 197.926875 
L 111.835768 194.984806 
L 112.921569 191.230541 
L 114.00737 183.474563 
L 115.093171 189.743126 
L 116.178972 180.382157 
L 117.264773 199.976537 
L 118.350575 202.19494 
L 119.436376 200.441869 
L 120.522177 192.335736 
L 121.607978 181.057415 
L 122.693779 195.435401 
L 123.77958 187.323923 
L 124.865382 180.508307 
L 125.951183 184.950031 
L 127.036984 180.28763 
L 128.122785 190.984652 
L 129.208586 196.035515 
L 130.294387 192.159533 
L 131.380189 186.01919 
L 132.46599 212.595632 
L 133.551791 212.516073 
L 134.637592 199.175024 
L 135.723393 180.079335 
L 136.809194 179.123924 
L 137.894995 190.969813 
L 138.980797 188.986049 
L 140.066598 197.16034 
L 141.152399 197.890036 
L 142.2382 196.864904 
L 143.324001 187.96121 
L 144.409802 195.782056 
L 145.495604 195.362051 
L 146.581405 199.087061 
L 147.667206 187.537552 
L 148.753007 201.916207 
L 149.838808 199.116494 
L 150.924609 193.441807 
L 152.01041 204.563876 
L 153.096212 201.658177 
L 154.182013 182.420498 
L 155.267814 212.509874 
L 156.353615 205.363882 
L 157.439416 205.37499 
L 158.525217 212.139228 
L 159.611019 215.182168 
L 160.69682 212.303591 
L 161.782621 194.258369 
L 162.868422 202.939759 
L 163.954223 207.258291 
L 165.040024 206.124756 
L 166.125825 219.002385 
L 167.211627 183.605917 
L 168.297428 210.71109 
L 169.383229 181.33728 
L 170.46903 187.025657 
L 171.554831 213.888359 
L 172.640632 195.607031 
L 173.726434 197.468573 
L 174.812235 184.322351 
L 175.898036 191.959195 
L 176.983837 182.322397 
L 178.069638 176.579908 
L 179.155439 187.498827 
L 180.24124 173.926825 
L 181.327042 186.792629 
L 182.412843 191.788192 
L 183.498644 189.002922 
L 184.584445 175.311922 
L 185.670246 200.091253 
L 186.756047 181.551412 
L 187.841849 181.686503 
L 188.92765 181.085716 
L 190.013451 180.648708 
L 191.099252 171.303204 
L 192.185053 177.78171 
L 193.270854 175.679519 
L 194.356656 173.9625 
L 195.442457 190.008406 
L 196.528258 172.888744 
L 197.614059 187.756977 
L 198.69986 157.448788 
L 199.785661 185.063859 
L 200.871462 185.338348 
L 201.957264 169.122738 
L 203.043065 179.401073 
L 204.128866 181.900495 
L 205.214667 186.267493 
L 206.300468 183.132189 
L 207.386269 175.057976 
L 208.472071 179.421707 
L 209.557872 150.871961 
L 210.643673 163.054381 
L 211.729474 190.78287 
L 212.815275 163.113689 
L 213.901076 183.771084 
L 214.986877 172.803538 
L 216.072679 191.170962 
L 217.15848 160.25117 
L 218.244281 181.699584 
L 219.330082 188.354494 
L 221.501684 150.072924 
L 222.587486 161.808391 
L 223.673287 168.685374 
L 224.759088 184.324597 
L 225.844889 192.616522 
L 226.93069 180.010191 
L 228.016491 170.679744 
L 229.102292 169.468482 
L 230.188094 159.213899 
L 231.273895 174.003407 
L 232.359696 185.29184 
L 233.445497 168.090547 
L 234.531298 169.569703 
L 235.617099 180.245325 
L 236.702901 172.03776 
L 237.788702 173.44874 
L 238.874503 176.363174 
L 239.960304 186.543782 
L 241.046105 180.503764 
L 242.131906 185.300931 
L 243.217708 176.529869 
L 244.303509 181.355302 
L 245.38931 178.569334 
L 246.475111 174.85804 
L 247.560912 166.500952 
L 248.646713 195.354242 
L 249.732514 167.547473 
L 250.818316 167.10859 
L 251.904117 172.058457 
L 252.989918 183.598939 
L 254.075719 177.107797 
L 255.16152 199.187565 
L 256.247321 190.669881 
L 257.333123 178.172772 
L 258.418924 177.57622 
L 259.504725 169.930878 
L 260.590526 179.088516 
L 261.676327 163.305016 
L 262.762128 172.6649 
L 263.847929 174.672222 
L 264.933731 191.671529 
L 266.019532 174.023466 
L 267.105333 164.395705 
L 268.191134 156.568996 
L 269.276935 167.128826 
L 270.362736 173.956477 
L 271.448538 169.671935 
L 272.534339 147.545049 
L 273.62014 161.886086 
L 274.705941 167.67577 
L 275.791742 169.146337 
L 276.877543 169.633605 
L 277.963344 170.344831 
L 279.049146 162.794224 
L 280.134947 168.53796 
L 281.220748 172.797818 
L 282.306549 163.079403 
L 283.39235 173.409134 
L 284.478151 153.345279 
L 285.563953 160.632186 
L 286.649754 162.275684 
L 287.735555 164.511662 
L 288.821356 161.631326 
L 289.907157 152.3053 
L 290.992958 164.382984 
L 292.07876 151.291118 
L 293.164561 157.877347 
L 294.250362 162.366146 
L 295.336163 162.372062 
L 296.421964 156.991377 
L 297.507765 158.711531 
L 298.593566 166.47637 
L 299.679368 166.535938 
L 300.765169 178.267633 
L 301.85097 152.86462 
L 302.936771 168.221561 
L 304.022572 174.991254 
L 305.108373 162.217486 
L 306.194175 172.969165 
L 307.279976 181.552478 
L 308.365777 167.217583 
L 309.451578 185.801669 
L 310.537379 171.19045 
L 311.62318 188.213852 
L 312.708981 167.510367 
L 313.794783 161.406803 
L 314.880584 164.594754 
L 315.966385 178.852815 
L 317.052186 175.016736 
L 318.137987 146.662684 
L 319.223788 149.112531 
L 320.30959 159.389101 
L 321.395391 148.776992 
L 323.566993 111.062806 
L 324.652794 156.642315 
L 325.738595 122.014164 
L 326.824396 137.132425 
L 327.910198 136.062886 
L 328.995999 133.850994 
L 330.0818 135.447392 
L 331.167601 162.777157 
L 333.339203 131.602528 
L 334.425005 125.033894 
L 335.510806 122.828606 
L 336.596607 133.053125 
L 337.682408 147.972564 
L 338.768209 127.148543 
L 339.85401 150.626774 
L 340.939811 166.728851 
L 342.025613 147.09113 
L 343.111414 163.117519 
L 344.197215 165.458725 
L 345.283016 165.815408 
L 346.368817 160.428342 
L 347.454618 136.71366 
L 348.54042 137.747506 
L 349.626221 125.780815 
L 350.712022 140.325504 
L 351.797823 126.580344 
L 352.883624 127.96726 
L 353.969425 124.774465 
L 355.055227 149.347258 
L 356.141028 116.221162 
L 357.226829 153.48282 
L 358.31263 141.659531 
L 359.398431 161.80628 
L 360.484232 134.035781 
L 361.570033 131.274718 
L 362.655835 145.287322 
L 363.741636 143.643371 
L 364.827437 111.489231 
L 365.913238 156.63213 
L 366.999039 143.238624 
L 368.08484 159.279234 
L 369.170642 158.909222 
L 370.256443 155.989958 
L 371.342244 151.646847 
L 372.428045 149.593548 
L 373.513846 153.907076 
L 374.599647 146.636804 
L 375.685448 146.330981 
L 376.77125 178.436667 
L 377.857051 148.85944 
L 378.942852 173.865038 
L 380.028653 164.830718 
L 381.114454 172.770288 
L 382.200255 177.54632 
L 383.286057 194.070809 
L 384.371858 172.210717 
L 385.457659 185.613884 
L 386.54346 163.232715 
L 387.629261 165.853735 
L 388.715062 181.06636 
L 389.800863 178.92163 
L 390.886665 172.304016 
L 393.058267 164.394719 
L 394.144068 162.966104 
L 395.229869 176.657408 
L 396.31567 160.689049 
L 397.401472 158.804967 
L 398.487273 188.301919 
L 398.487273 188.301919 
" style="fill:none;stroke:#0000ff;stroke-linecap:square;stroke-width:1.5;"/>
   </g>
   <g id="line2d_30">
    <path clip-path="url(#p40f78a5b5c)" d="M 73.832727 295.488 
L 74.918528 253.561038 
L 76.00433 251.887444 
L 77.090131 249.550731 
L 78.175932 255.925492 
L 79.261733 250.33462 
L 80.347534 253.239495 
L 81.433335 254.290534 
L 82.519137 247.530148 
L 83.604938 249.811514 
L 84.690739 244.06844 
L 85.77654 247.077663 
L 86.862341 247.245471 
L 87.948142 259.299486 
L 89.033943 255.586263 
L 90.119745 241.354591 
L 91.205546 246.416991 
L 92.291347 247.568372 
L 93.377148 240.295333 
L 94.462949 261.839904 
L 95.54875 257.103265 
L 96.634552 227.255408 
L 97.720353 219.767248 
L 99.891955 242.861134 
L 100.977756 258.457371 
L 102.063557 255.211526 
L 103.149358 258.426933 
L 104.23516 220.446025 
L 105.320961 253.29626 
L 106.406762 231.079057 
L 107.492563 262.554643 
L 108.578364 260.688498 
L 109.664165 268.89127 
L 110.749967 235.956078 
L 111.835768 242.425752 
L 112.921569 217.64059 
L 114.00737 218.939803 
L 115.093171 227.276849 
L 116.178972 217.669297 
L 117.264773 229.093276 
L 118.350575 234.695865 
L 119.436376 236.356015 
L 120.522177 219.883058 
L 121.607978 212.241879 
L 122.693779 221.854695 
L 123.77958 217.302991 
L 124.865382 215.927671 
L 125.951183 220.774309 
L 127.036984 212.695943 
L 128.122785 234.124733 
L 129.208586 228.510322 
L 130.294387 238.21385 
L 131.380189 224.070781 
L 132.46599 263.610145 
L 133.551791 264.466067 
L 134.637592 246.714198 
L 135.723393 224.592748 
L 136.809194 221.157814 
L 137.894995 241.964552 
L 138.980797 224.421537 
L 140.066598 232.321049 
L 141.152399 232.267771 
L 142.2382 228.467539 
L 143.324001 232.761164 
L 144.409802 234.627016 
L 145.495604 237.489898 
L 146.581405 236.995093 
L 147.667206 230.953399 
L 148.753007 242.813525 
L 149.838808 249.437 
L 150.924609 233.059447 
L 152.01041 238.135781 
L 153.096212 238.656726 
L 154.182013 217.223419 
L 155.267814 257.319928 
L 156.353615 252.918046 
L 157.439416 240.379053 
L 158.525217 251.446913 
L 159.611019 254.702028 
L 160.69682 251.343828 
L 161.782621 231.977486 
L 162.868422 244.110018 
L 163.954223 254.585488 
L 165.040024 239.976052 
L 166.125825 258.375727 
L 167.211627 219.604086 
L 168.297428 255.4456 
L 169.383229 225.684356 
L 170.46903 226.514816 
L 171.554831 246.769118 
L 172.640632 236.770342 
L 173.726434 230.720494 
L 174.812235 222.667182 
L 175.898036 233.046928 
L 176.983837 226.32599 
L 178.069638 213.276458 
L 179.155439 231.331223 
L 180.24124 214.858652 
L 181.327042 221.823058 
L 182.412843 237.578657 
L 183.498644 226.630488 
L 184.584445 211.207479 
L 185.670246 237.737497 
L 186.756047 219.389455 
L 187.841849 219.315541 
L 188.92765 214.019243 
L 190.013451 225.499837 
L 191.099252 208.82975 
L 192.185053 218.797802 
L 193.270854 212.328276 
L 194.356656 216.86611 
L 195.442457 234.211209 
L 196.528258 220.050147 
L 197.614059 226.388184 
L 198.69986 199.173853 
L 199.785661 223.92529 
L 200.871462 221.138011 
L 201.957264 209.472715 
L 203.043065 227.444766 
L 204.128866 226.537006 
L 205.214667 230.507408 
L 206.300468 227.766901 
L 207.386269 221.279114 
L 208.472071 229.966517 
L 209.557872 204.728489 
L 210.643673 223.656777 
L 211.729474 232.942189 
L 212.815275 224.825838 
L 213.901076 240.507349 
L 214.986877 222.055123 
L 216.072679 245.917083 
L 217.15848 204.566218 
L 218.244281 232.292317 
L 219.330082 228.57739 
L 220.415883 214.064659 
L 221.501684 191.032411 
L 222.587486 206.833601 
L 223.673287 208.957376 
L 224.759088 226.921986 
L 225.844889 227.110303 
L 226.93069 222.610891 
L 228.016491 212.288667 
L 229.102292 210.489762 
L 230.188094 203.575282 
L 231.273895 215.190768 
L 232.359696 230.273781 
L 233.445497 210.838128 
L 234.531298 216.021883 
L 235.617099 237.235064 
L 236.702901 223.509919 
L 237.788702 227.65629 
L 238.874503 228.862627 
L 239.960304 228.520013 
L 241.046105 234.258813 
L 242.131906 228.308172 
L 243.217708 217.287151 
L 244.303509 228.977974 
L 245.38931 233.504392 
L 246.475111 225.942987 
L 247.560912 212.97395 
L 248.646713 236.025412 
L 249.732514 213.573558 
L 250.818316 207.384082 
L 251.904117 213.310501 
L 252.989918 223.259339 
L 254.075719 213.268118 
L 255.16152 237.37754 
L 256.247321 229.815716 
L 257.333123 228.506288 
L 258.418924 217.787988 
L 259.504725 215.07994 
L 260.590526 213.561183 
L 262.762128 228.037279 
L 263.847929 230.959773 
L 264.933731 229.555895 
L 266.019532 219.846959 
L 267.105333 212.428797 
L 268.191134 203.274515 
L 269.276935 227.171987 
L 270.362736 221.224816 
L 271.448538 216.437755 
L 272.534339 196.634478 
L 273.62014 202.826647 
L 274.705941 211.129847 
L 275.791742 213.876841 
L 276.877543 220.790633 
L 277.963344 210.772177 
L 279.049146 203.10373 
L 280.134947 207.326765 
L 281.220748 215.018121 
L 282.306549 205.132154 
L 283.39235 213.788681 
L 284.478151 192.001504 
L 285.563953 205.786961 
L 287.735555 205.054087 
L 288.821356 203.170704 
L 289.907157 197.980302 
L 290.992958 195.06404 
L 292.07876 198.49628 
L 293.164561 199.130789 
L 294.250362 204.861022 
L 295.336163 217.824439 
L 296.421964 205.031281 
L 297.507765 212.335827 
L 298.593566 216.567934 
L 299.679368 213.90222 
L 300.765169 226.500431 
L 301.85097 202.341375 
L 302.936771 222.330178 
L 304.022572 224.909122 
L 305.108373 215.159932 
L 306.194175 214.715941 
L 307.279976 224.026522 
L 308.365777 216.048741 
L 309.451578 232.449667 
L 310.537379 215.693193 
L 311.62318 226.921353 
L 312.708981 204.755737 
L 313.794783 200.808427 
L 314.880584 213.529104 
L 315.966385 211.534479 
L 317.052186 215.856154 
L 318.137987 194.217481 
L 319.223788 194.53794 
L 320.30959 204.950023 
L 321.395391 196.551253 
L 322.481192 174.515443 
L 323.566993 155.625678 
L 324.652794 200.354413 
L 325.738595 168.620488 
L 326.824396 186.377737 
L 327.910198 190.531247 
L 328.995999 189.011268 
L 330.0818 181.155905 
L 331.167601 214.324355 
L 332.253402 194.511232 
L 333.339203 180.691266 
L 334.425005 180.559165 
L 335.510806 174.197501 
L 336.596607 183.733819 
L 337.682408 196.977432 
L 338.768209 184.248837 
L 339.85401 201.290647 
L 340.939811 213.014046 
L 342.025613 190.808655 
L 343.111414 207.018431 
L 344.197215 220.358017 
L 345.283016 220.8944 
L 346.368817 214.284797 
L 347.454618 185.794109 
L 348.54042 182.305822 
L 349.626221 176.264212 
L 350.712022 190.583527 
L 351.797823 177.834251 
L 352.883624 187.561113 
L 353.969425 180.520572 
L 355.055227 199.591924 
L 356.141028 170.656986 
L 357.226829 206.042082 
L 358.31263 193.057834 
L 359.398431 201.573903 
L 360.484232 185.890256 
L 361.570033 190.324136 
L 362.655835 199.282071 
L 363.741636 194.079035 
L 364.827437 168.89914 
L 365.913238 203.339789 
L 366.999039 186.773171 
L 368.08484 205.012809 
L 369.170642 208.801279 
L 370.256443 207.006982 
L 371.342244 205.542178 
L 372.428045 206.784676 
L 373.513846 209.157942 
L 374.599647 212.81019 
L 375.685448 207.344941 
L 376.77125 229.107227 
L 377.857051 209.318667 
L 378.942852 221.408982 
L 380.028653 215.742507 
L 381.114454 217.50211 
L 382.200255 222.108388 
L 383.286057 239.937493 
L 384.371858 221.487861 
L 385.457659 222.267317 
L 386.54346 211.237288 
L 387.629261 214.751125 
L 388.715062 223.918477 
L 389.800863 231.633825 
L 390.886665 218.826032 
L 391.972466 212.112765 
L 393.058267 217.394708 
L 394.144068 207.075553 
L 395.229869 227.891053 
L 396.31567 206.680037 
L 397.401472 204.382844 
L 398.487273 227.62014 
L 398.487273 227.62014 
" style="fill:none;stroke:#008000;stroke-dasharray:9.6,2.4,1.5,2.4;stroke-dashoffset:0;stroke-width:1.5;"/>
   </g>
   <g id="line2d_31">
    <path clip-path="url(#p40f78a5b5c)" d="M 73.832727 287.803144 
L 74.918528 248.67706 
L 76.00433 241.247329 
L 77.090131 230.036403 
L 78.175932 234.578829 
L 79.261733 231.392863 
L 80.347534 231.4127 
L 81.433335 232.421598 
L 82.519137 227.253959 
L 83.604938 222.841121 
L 84.690739 212.641585 
L 85.77654 216.430096 
L 86.862341 218.273784 
L 87.948142 212.55974 
L 89.033943 196.85964 
L 90.119745 210.598145 
L 91.205546 218.04298 
L 92.291347 206.23484 
L 93.377148 196.326687 
L 94.462949 205.230346 
L 95.54875 201.945663 
L 96.634552 171.31177 
L 97.720353 157.250278 
L 98.806154 161.064845 
L 99.891955 152.598811 
L 100.977756 161.079037 
L 102.063557 164.693904 
L 103.149358 177.708439 
L 104.23516 165.09608 
L 105.320961 169.695846 
L 106.406762 146.362978 
L 107.492563 160.422607 
L 108.578364 157.044859 
L 109.664165 171.649324 
L 111.835768 147.54386 
L 112.921569 164.820492 
L 114.00737 148.009323 
L 115.093171 152.209404 
L 116.178972 143.095018 
L 117.264773 170.859798 
L 118.350575 169.694014 
L 119.436376 164.527723 
L 120.522177 164.788414 
L 121.607978 149.872951 
L 122.693779 169.016108 
L 124.865382 145.088943 
L 125.951183 149.125754 
L 127.036984 147.879316 
L 128.122785 147.844571 
L 129.208586 163.560708 
L 130.294387 146.105216 
L 131.380189 147.967599 
L 132.46599 161.581119 
L 133.551791 160.566078 
L 134.637592 151.63585 
L 135.723393 135.565923 
L 136.809194 137.090035 
L 137.894995 139.975073 
L 138.980797 153.550561 
L 140.066598 161.999631 
L 141.152399 163.512301 
L 142.2382 165.262269 
L 143.324001 143.161256 
L 144.409802 156.937096 
L 145.495604 153.234205 
L 146.581405 161.17903 
L 147.667206 144.121705 
L 148.753007 161.01889 
L 149.838808 148.795987 
L 150.924609 153.824167 
L 152.01041 170.99197 
L 153.096212 164.659628 
L 154.182013 147.617578 
L 155.267814 167.699819 
L 156.353615 157.809718 
L 157.439416 170.370928 
L 158.525217 172.831543 
L 159.611019 175.662307 
L 160.69682 173.263354 
L 161.782621 156.539252 
L 162.868422 161.7695 
L 163.954223 159.931093 
L 165.040024 172.273459 
L 166.125825 179.629043 
L 167.211627 147.607749 
L 168.297428 165.976581 
L 169.383229 136.990203 
L 170.46903 147.536499 
L 171.554831 181.007599 
L 172.640632 154.443721 
L 173.726434 164.216652 
L 174.812235 145.977521 
L 175.898036 150.871462 
L 176.983837 138.318804 
L 178.069638 139.883359 
L 179.155439 143.66643 
L 180.24124 132.994998 
L 181.327042 151.762199 
L 182.412843 145.997727 
L 183.498644 151.375356 
L 184.584445 139.416366 
L 185.670246 162.445008 
L 186.756047 143.713368 
L 187.841849 144.057465 
L 188.92765 148.152189 
L 190.013451 135.797578 
L 191.099252 133.776658 
L 192.185053 136.765618 
L 193.270854 139.030761 
L 194.356656 131.058889 
L 195.442457 145.805602 
L 196.528258 125.727341 
L 197.614059 149.12577 
L 198.69986 115.723723 
L 199.785661 146.202428 
L 200.871462 149.538686 
L 201.957264 128.772762 
L 203.043065 131.35738 
L 204.128866 137.263983 
L 205.214667 142.027578 
L 206.300468 138.497476 
L 207.386269 128.836839 
L 208.472071 128.876897 
L 209.557872 97.015433 
L 210.643673 102.451984 
L 211.729474 148.623551 
L 212.815275 101.401539 
L 213.901076 127.034819 
L 214.986877 123.551953 
L 216.072679 136.424842 
L 217.15848 115.936123 
L 218.244281 131.106851 
L 219.330082 148.131597 
L 220.415883 124.076256 
L 221.501684 109.113437 
L 222.587486 116.78318 
L 223.673287 128.413373 
L 224.759088 141.727208 
L 225.844889 158.12274 
L 226.93069 137.409491 
L 228.016491 129.070821 
L 229.102292 128.447201 
L 230.188094 114.852517 
L 231.273895 132.816046 
L 232.359696 140.309899 
L 233.445497 125.342966 
L 234.531298 123.117522 
L 235.617099 123.255586 
L 236.702901 120.5656 
L 237.788702 119.241191 
L 238.874503 123.863721 
L 239.960304 144.567552 
L 241.046105 126.748715 
L 242.131906 142.29369 
L 243.217708 135.772587 
L 244.303509 133.732631 
L 245.38931 123.634277 
L 246.475111 123.773094 
L 247.560912 120.027954 
L 248.646713 154.683073 
L 249.732514 121.521388 
L 250.818316 126.833098 
L 251.904117 130.806412 
L 252.989918 143.938539 
L 254.075719 140.947475 
L 255.16152 160.997591 
L 256.247321 151.524046 
L 257.333123 127.839256 
L 258.418924 137.364451 
L 259.504725 124.781817 
L 260.590526 144.615848 
L 261.676327 105.828779 
L 262.762128 117.29252 
L 263.847929 118.384672 
L 264.933731 153.787163 
L 266.019532 128.199974 
L 267.105333 116.362614 
L 268.191134 109.863477 
L 269.276935 107.085665 
L 270.362736 126.688138 
L 271.448538 122.906114 
L 272.534339 98.45562 
L 273.62014 120.945525 
L 274.705941 124.221693 
L 275.791742 124.415833 
L 276.877543 118.476577 
L 277.963344 129.917486 
L 279.049146 122.484718 
L 280.134947 129.749155 
L 281.220748 130.577515 
L 282.306549 121.026653 
L 283.39235 133.029587 
L 284.478151 114.689055 
L 285.563953 115.477411 
L 286.649754 119.091556 
L 287.735555 123.969238 
L 288.821356 120.091949 
L 289.907157 106.630299 
L 290.992958 133.701928 
L 292.07876 104.085956 
L 293.164561 116.623906 
L 294.250362 119.871271 
L 295.336163 106.919685 
L 296.421964 108.951473 
L 297.507765 105.087234 
L 298.593566 116.384806 
L 299.679368 119.169656 
L 300.765169 130.034834 
L 301.85097 103.387864 
L 304.022572 125.073385 
L 305.108373 109.275039 
L 306.194175 131.222389 
L 307.279976 139.078434 
L 308.365777 118.386424 
L 309.451578 139.153671 
L 310.537379 126.687708 
L 311.62318 149.506352 
L 312.708981 130.264996 
L 313.794783 122.005179 
L 314.880584 115.660405 
L 315.966385 146.171152 
L 317.052186 134.177319 
L 318.137987 99.107887 
L 319.223788 103.687122 
L 320.30959 113.828179 
L 321.395391 101.002732 
L 322.481192 86.167111 
L 323.566993 66.499933 
L 324.652794 112.930218 
L 325.738595 75.40784 
L 326.824396 87.887112 
L 327.910198 81.594526 
L 328.995999 78.69072 
L 330.0818 89.73888 
L 331.167601 111.229959 
L 332.253402 98.86412 
L 333.339203 82.513791 
L 334.425005 69.508623 
L 335.510806 71.459712 
L 336.596607 82.372431 
L 337.682408 98.967695 
L 338.768209 70.048249 
L 339.85401 99.962901 
L 340.939811 120.443657 
L 342.025613 103.373604 
L 343.111414 119.216607 
L 344.197215 110.559434 
L 345.283016 110.736417 
L 346.368817 106.571888 
L 347.454618 87.63321 
L 348.54042 93.189191 
L 349.626221 75.297419 
L 350.712022 90.067482 
L 351.797823 75.326437 
L 352.883624 68.373407 
L 353.969425 69.028358 
L 355.055227 99.102592 
L 356.141028 61.785338 
L 357.226829 100.923558 
L 358.31263 90.261227 
L 359.398431 122.038656 
L 360.484232 82.181305 
L 361.570033 72.225299 
L 362.655835 91.292573 
L 363.741636 93.207708 
L 364.827437 54.079321 
L 365.913238 109.92447 
L 366.999039 99.704077 
L 368.08484 113.545658 
L 369.170642 109.017165 
L 370.256443 104.972933 
L 371.342244 97.751516 
L 372.428045 92.402421 
L 373.513846 98.656211 
L 374.599647 80.463418 
L 375.685448 85.317021 
L 376.77125 127.766106 
L 377.857051 88.400213 
L 378.942852 126.321094 
L 380.028653 113.918929 
L 381.114454 128.038467 
L 382.200255 132.984252 
L 383.286057 148.204124 
L 384.371858 122.933573 
L 385.457659 148.960452 
L 386.54346 115.228142 
L 387.629261 116.956344 
L 388.715062 138.214244 
L 389.800863 126.209435 
L 390.886665 125.782 
L 391.972466 124.676374 
L 393.058267 111.39473 
L 394.144068 118.856656 
L 395.229869 125.423763 
L 396.31567 114.698061 
L 397.401472 113.227089 
L 398.487273 148.983698 
L 398.487273 148.983698 
" style="fill:none;stroke:#008000;stroke-dasharray:9.6,2.4,1.5,2.4;stroke-dashoffset:0;stroke-width:1.5;"/>
   </g>
   <g id="line2d_32">
    <path clip-path="url(#p40f78a5b5c)" d="M 73.832727 284.667152 
L 74.918528 245.595512 
L 76.00433 234.661553 
L 77.090131 225.540413 
L 78.175932 237.551639 
L 79.261733 229.491437 
L 80.347534 230.474031 
L 81.433335 231.882961 
L 82.519137 220.975677 
L 83.604938 221.213268 
L 84.690739 212.010044 
L 85.77654 215.668682 
L 86.862341 218.609929 
L 87.948142 218.821898 
L 89.033943 203.647779 
L 90.119745 214.443861 
L 91.205546 219.608875 
L 92.291347 207.510864 
L 93.377148 191.586482 
L 94.462949 201.685711 
L 95.54875 184.87018 
L 96.634552 162.521486 
L 97.720353 154.805601 
L 98.806154 159.057183 
L 99.891955 153.863765 
L 100.977756 161.590191 
L 102.063557 154.916199 
L 103.149358 161.624186 
L 104.23516 161.196104 
L 105.320961 166.732135 
L 106.406762 145.175152 
L 107.492563 168.924547 
L 108.578364 162.669732 
L 109.664165 172.449471 
L 110.749967 161.831806 
L 111.835768 153.362708 
L 112.921569 169.747948 
L 114.00737 149.610895 
L 115.093171 154.198077 
L 116.178972 155.056597 
L 117.264773 175.492343 
L 118.350575 176.343081 
L 119.436376 168.458142 
L 120.522177 167.206107 
L 121.607978 150.981957 
L 122.693779 157.720332 
L 123.77958 151.356857 
L 124.865382 133.205523 
L 125.951183 137.630797 
L 127.036984 138.414428 
L 128.122785 132.184265 
L 129.208586 149.50729 
L 130.294387 130.791224 
L 131.380189 133.828812 
L 132.46599 128.195819 
L 133.551791 134.42851 
L 134.637592 119.78626 
L 135.723393 111.495095 
L 136.809194 116.54451 
L 137.894995 123.581375 
L 138.980797 131.473586 
L 140.066598 130.79428 
L 141.152399 149.33928 
L 142.2382 151.256092 
L 143.324001 123.984684 
L 144.409802 134.371486 
L 145.495604 139.655714 
L 146.581405 136.160029 
L 147.667206 117.390232 
L 148.753007 132.702658 
L 149.838808 114.822391 
L 150.924609 123.412446 
L 152.01041 144.568253 
L 153.096212 142.131268 
L 154.182013 120.4898 
L 155.267814 137.984674 
L 156.353615 135.623589 
L 157.439416 156.597601 
L 158.525217 153.842848 
L 159.611019 148.729136 
L 160.69682 154.988988 
L 161.782621 136.053798 
L 162.868422 129.601871 
L 163.954223 128.231649 
L 165.040024 147.50369 
L 166.125825 154.211242 
L 167.211627 126.524263 
L 168.297428 140.824745 
L 169.383229 111.520729 
L 170.46903 125.934066 
L 171.554831 165.143513 
L 172.640632 130.988276 
L 173.726434 148.260514 
L 174.812235 129.060263 
L 175.898036 129.083686 
L 176.983837 120.809104 
L 178.069638 117.635859 
L 179.155439 120.207925 
L 180.24124 113.352684 
L 181.327042 121.110565 
L 182.412843 127.370106 
L 183.498644 137.75754 
L 184.584445 119.764156 
L 185.670246 147.616753 
L 186.756047 123.027973 
L 187.841849 122.308878 
L 188.92765 130.360355 
L 190.013451 118.763598 
L 191.099252 112.93335 
L 192.185053 122.300131 
L 193.270854 125.519408 
L 194.356656 112.720501 
L 195.442457 113.703375 
L 196.528258 117.469176 
L 197.614059 123.184231 
L 198.69986 100.145486 
L 199.785661 130.126037 
L 200.871462 128.245241 
L 201.957264 110.673525 
L 203.043065 114.629441 
L 204.128866 124.99593 
L 205.214667 116.807499 
L 206.300468 118.80162 
L 207.386269 110.693257 
L 208.472071 113.219268 
L 209.557872 89.897736 
L 210.643673 81.7068 
L 211.729474 122.172454 
L 212.815275 60.266069 
L 213.901076 96.869375 
L 214.986877 104.07256 
L 216.072679 114.782206 
L 217.15848 99.708811 
L 218.244281 104.143261 
L 219.330082 123.151824 
L 220.415883 97.788081 
L 221.501684 83.138094 
L 222.587486 86.839424 
L 223.673287 91.881685 
L 224.759088 116.301197 
L 225.844889 116.234057 
L 226.93069 98.14678 
L 228.016491 102.75771 
L 229.102292 103.679498 
L 230.188094 87.063777 
L 231.273895 103.52736 
L 232.359696 110.735992 
L 233.445497 100.481272 
L 234.531298 98.93142 
L 235.617099 106.693315 
L 236.702901 90.248836 
L 237.788702 83.443015 
L 238.874503 91.686273 
L 239.960304 110.648854 
L 241.046105 101.909027 
L 242.131906 105.949797 
L 243.217708 101.074333 
L 244.303509 99.632256 
L 245.38931 95.476468 
L 246.475111 90.049877 
L 247.560912 89.473882 
L 248.646713 128.50996 
L 249.732514 94.376069 
L 250.818316 106.560396 
L 251.904117 116.162173 
L 252.989918 123.154843 
L 254.075719 125.975442 
L 255.16152 149.730861 
L 256.247321 139.881705 
L 257.333123 103.43939 
L 258.418924 101.852943 
L 259.504725 105.251858 
L 260.590526 131.071716 
L 261.676327 92.699866 
L 262.762128 104.785838 
L 263.847929 89.577857 
L 264.933731 141.207494 
L 266.019532 99.516705 
L 267.105333 107.290306 
L 268.191134 89.620625 
L 269.276935 77.269012 
L 270.362736 109.253829 
L 271.448538 98.081236 
L 272.534339 72.444422 
L 273.62014 97.739361 
L 274.705941 103.429415 
L 275.791742 91.368839 
L 276.877543 91.058165 
L 277.963344 106.876066 
L 279.049146 97.107916 
L 280.134947 114.935108 
L 282.306549 102.032835 
L 283.39235 118.220285 
L 284.478151 103.123823 
L 285.563953 99.968781 
L 286.649754 98.635363 
L 287.735555 106.537846 
L 288.821356 82.286599 
L 289.907157 90.083837 
L 290.992958 114.428845 
L 292.07876 76.96614 
L 293.164561 101.463051 
L 294.250362 103.511282 
L 295.336163 88.005524 
L 296.421964 103.81503 
L 297.507765 79.988614 
L 299.679368 102.347208 
L 300.765169 100.986733 
L 301.85097 79.296862 
L 302.936771 87.640386 
L 304.022572 110.265325 
L 305.108373 94.991009 
L 306.194175 106.760218 
L 307.279976 113.823882 
L 308.365777 95.145816 
L 309.451578 111.277893 
L 310.537379 107.548878 
L 311.62318 125.548534 
L 312.708981 94.777843 
L 313.794783 91.260493 
L 314.880584 86.227435 
L 315.966385 117.58533 
L 317.052186 97.486578 
L 318.137987 73.895855 
L 319.223788 76.965512 
L 320.30959 103.609249 
L 321.395391 100.324313 
L 322.481192 81.836332 
L 323.566993 70.109532 
L 324.652794 107.96887 
L 325.738595 68.117162 
L 326.824396 79.637589 
L 327.910198 75.365104 
L 328.995999 68.763427 
L 330.0818 75.689262 
L 331.167601 93.658817 
L 333.339203 76.960171 
L 334.425005 62.330765 
L 335.510806 68.68673 
L 336.596607 65.960673 
L 337.682408 86.70096 
L 338.768209 63.707432 
L 339.85401 68.859709 
L 340.939811 81.86391 
L 342.025613 83.893893 
L 343.111414 85.365497 
L 344.197215 96.222356 
L 345.283016 97.882956 
L 346.368817 96.006604 
L 347.454618 83.818684 
L 348.54042 92.573962 
L 349.626221 74.503225 
L 350.712022 73.093187 
L 351.797823 80.557552 
L 352.883624 65.831434 
L 353.969425 69.828987 
L 355.055227 94.423098 
L 356.141028 66.711698 
L 357.226829 91.424985 
L 358.31263 80.18605 
L 359.398431 113.990254 
L 360.484232 75.881482 
L 361.570033 68.712099 
L 362.655835 83.696342 
L 363.741636 89.447065 
L 364.827437 53.568 
L 365.913238 107.792337 
L 366.999039 98.737764 
L 368.08484 111.341689 
L 369.170642 83.745562 
L 370.256443 98.333409 
L 371.342244 79.634883 
L 373.513846 81.63068 
L 374.599647 78.751572 
L 375.685448 88.567613 
L 376.77125 114.913611 
L 377.857051 69.53641 
L 378.942852 107.508937 
L 380.028653 106.792126 
L 381.114454 114.24908 
L 382.200255 104.6719 
L 383.286057 129.041548 
L 384.371858 106.243506 
L 385.457659 127.741889 
L 386.54346 105.322049 
L 387.629261 100.275283 
L 388.715062 112.718501 
L 389.800863 106.437966 
L 390.886665 97.433034 
L 391.972466 111.023976 
L 393.058267 88.348051 
L 394.144068 101.752638 
L 395.229869 112.549661 
L 396.31567 98.254605 
L 397.401472 97.736129 
L 398.487273 117.878566 
L 398.487273 117.878566 
" style="fill:none;stroke:#ff0000;stroke-linecap:square;stroke-width:1.5;"/>
   </g>
   <g id="patch_3">
    <path d="M 57.6 307.584 
L 57.6 41.472 
" style="fill:none;stroke:#000000;stroke-linecap:square;stroke-linejoin:miter;stroke-width:0.8;"/>
   </g>
   <g id="patch_4">
    <path d="M 414.72 307.584 
L 414.72 41.472 
" style="fill:none;stroke:#000000;stroke-linecap:square;stroke-linejoin:miter;stroke-width:0.8;"/>
   </g>
   <g id="patch_5">
    <path d="M 57.6 307.584 
L 414.72 307.584 
" style="fill:none;stroke:#000000;stroke-linecap:square;stroke-linejoin:miter;stroke-width:0.8;"/>
   </g>
   <g id="patch_6">
    <path d="M 57.6 41.472 
L 414.72 41.472 
" style="fill:none;stroke:#000000;stroke-linecap:square;stroke-linejoin:miter;stroke-width:0.8;"/>
   </g>
   <g id="text_17">
    <!-- Population's average and best fitness -->
    <defs>
     <path d="M 19.671875 64.796875 
L 19.671875 37.40625 
L 32.078125 37.40625 
Q 38.96875 37.40625 42.71875 40.96875 
Q 46.484375 44.53125 46.484375 51.125 
Q 46.484375 57.671875 42.71875 61.234375 
Q 38.96875 64.796875 32.078125 64.796875 
z
M 9.8125 72.90625 
L 32.078125 72.90625 
Q 44.34375 72.90625 50.609375 67.359375 
Q 56.890625 61.8125 56.890625 51.125 
Q 56.890625 40.328125 50.609375 34.8125 
Q 44.34375 29.296875 32.078125 29.296875 
L 19.671875 29.296875 
L 19.671875 0 
L 9.8125 0 
z
" id="DejaVuSans-80"/>
     <path d="M 18.109375 8.203125 
L 18.109375 -20.796875 
L 9.078125 -20.796875 
L 9.078125 54.6875 
L 18.109375 54.6875 
L 18.109375 46.390625 
Q 20.953125 51.265625 25.265625 53.625 
Q 29.59375 56 35.59375 56 
Q 45.5625 56 51.78125 48.09375 
Q 58.015625 40.1875 58.015625 27.296875 
Q 58.015625 14.40625 51.78125 6.484375 
Q 45.5625 -1.421875 35.59375 -1.421875 
Q 29.59375 -1.421875 25.265625 0.953125 
Q 20.953125 3.328125 18.109375 8.203125 
z
M 48.6875 27.296875 
Q 48.6875 37.203125 44.609375 42.84375 
Q 40.53125 48.484375 33.40625 48.484375 
Q 26.265625 48.484375 22.1875 42.84375 
Q 18.109375 37.203125 18.109375 27.296875 
Q 18.109375 17.390625 22.1875 11.75 
Q 26.265625 6.109375 33.40625 6.109375 
Q 40.53125 6.109375 44.609375 11.75 
Q 48.6875 17.390625 48.6875 27.296875 
z
" id="DejaVuSans-112"/>
     <path d="M 8.5 21.578125 
L 8.5 54.6875 
L 17.484375 54.6875 
L 17.484375 21.921875 
Q 17.484375 14.15625 20.5 10.265625 
Q 23.53125 6.390625 29.59375 6.390625 
Q 36.859375 6.390625 41.078125 11.03125 
Q 45.3125 15.671875 45.3125 23.6875 
L 45.3125 54.6875 
L 54.296875 54.6875 
L 54.296875 0 
L 45.3125 0 
L 45.3125 8.40625 
Q 42.046875 3.421875 37.71875 1 
Q 33.40625 -1.421875 27.6875 -1.421875 
Q 18.265625 -1.421875 13.375 4.4375 
Q 8.5 10.296875 8.5 21.578125 
z
M 31.109375 56 
z
" id="DejaVuSans-117"/>
     <path d="M 9.421875 75.984375 
L 18.40625 75.984375 
L 18.40625 0 
L 9.421875 0 
z
" id="DejaVuSans-108"/>
     <path d="M 17.921875 72.90625 
L 17.921875 45.796875 
L 9.625 45.796875 
L 9.625 72.90625 
z
" id="DejaVuSans-39"/>
     <path id="DejaVuSans-32"/>
     <path d="M 2.984375 54.6875 
L 12.5 54.6875 
L 29.59375 8.796875 
L 46.6875 54.6875 
L 56.203125 54.6875 
L 35.6875 0 
L 23.484375 0 
z
" id="DejaVuSans-118"/>
     <path d="M 45.40625 27.984375 
Q 45.40625 37.75 41.375 43.109375 
Q 37.359375 48.484375 30.078125 48.484375 
Q 22.859375 48.484375 18.828125 43.109375 
Q 14.796875 37.75 14.796875 27.984375 
Q 14.796875 18.265625 18.828125 12.890625 
Q 22.859375 7.515625 30.078125 7.515625 
Q 37.359375 7.515625 41.375 12.890625 
Q 45.40625 18.265625 45.40625 27.984375 
z
M 54.390625 6.78125 
Q 54.390625 -7.171875 48.1875 -13.984375 
Q 42 -20.796875 29.203125 -20.796875 
Q 24.46875 -20.796875 20.265625 -20.09375 
Q 16.0625 -19.390625 12.109375 -17.921875 
L 12.109375 -9.1875 
Q 16.0625 -11.328125 19.921875 -12.34375 
Q 23.78125 -13.375 27.78125 -13.375 
Q 36.625 -13.375 41.015625 -8.765625 
Q 45.40625 -4.15625 45.40625 5.171875 
L 45.40625 9.625 
Q 42.625 4.78125 38.28125 2.390625 
Q 33.9375 0 27.875 0 
Q 17.828125 0 11.671875 7.65625 
Q 5.515625 15.328125 5.515625 27.984375 
Q 5.515625 40.671875 11.671875 48.328125 
Q 17.828125 56 27.875 56 
Q 33.9375 56 38.28125 53.609375 
Q 42.625 51.21875 45.40625 46.390625 
L 45.40625 54.6875 
L 54.390625 54.6875 
z
" id="DejaVuSans-103"/>
     <path d="M 45.40625 46.390625 
L 45.40625 75.984375 
L 54.390625 75.984375 
L 54.390625 0 
L 45.40625 0 
L 45.40625 8.203125 
Q 42.578125 3.328125 38.25 0.953125 
Q 33.9375 -1.421875 27.875 -1.421875 
Q 17.96875 -1.421875 11.734375 6.484375 
Q 5.515625 14.40625 5.515625 27.296875 
Q 5.515625 40.1875 11.734375 48.09375 
Q 17.96875 56 27.875 56 
Q 33.9375 56 38.25 53.625 
Q 42.578125 51.265625 45.40625 46.390625 
z
M 14.796875 27.296875 
Q 14.796875 17.390625 18.875 11.75 
Q 22.953125 6.109375 30.078125 6.109375 
Q 37.203125 6.109375 41.296875 11.75 
Q 45.40625 17.390625 45.40625 27.296875 
Q 45.40625 37.203125 41.296875 42.84375 
Q 37.203125 48.484375 30.078125 48.484375 
Q 22.953125 48.484375 18.875 42.84375 
Q 14.796875 37.203125 14.796875 27.296875 
z
" id="DejaVuSans-100"/>
     <path d="M 48.6875 27.296875 
Q 48.6875 37.203125 44.609375 42.84375 
Q 40.53125 48.484375 33.40625 48.484375 
Q 26.265625 48.484375 22.1875 42.84375 
Q 18.109375 37.203125 18.109375 27.296875 
Q 18.109375 17.390625 22.1875 11.75 
Q 26.265625 6.109375 33.40625 6.109375 
Q 40.53125 6.109375 44.609375 11.75 
Q 48.6875 17.390625 48.6875 27.296875 
z
M 18.109375 46.390625 
Q 20.953125 51.265625 25.265625 53.625 
Q 29.59375 56 35.59375 56 
Q 45.5625 56 51.78125 48.09375 
Q 58.015625 40.1875 58.015625 27.296875 
Q 58.015625 14.40625 51.78125 6.484375 
Q 45.5625 -1.421875 35.59375 -1.421875 
Q 29.59375 -1.421875 25.265625 0.953125 
Q 20.953125 3.328125 18.109375 8.203125 
L 18.109375 0 
L 9.078125 0 
L 9.078125 75.984375 
L 18.109375 75.984375 
z
" id="DejaVuSans-98"/>
     <path d="M 37.109375 75.984375 
L 37.109375 68.5 
L 28.515625 68.5 
Q 23.6875 68.5 21.796875 66.546875 
Q 19.921875 64.59375 19.921875 59.515625 
L 19.921875 54.6875 
L 34.71875 54.6875 
L 34.71875 47.703125 
L 19.921875 47.703125 
L 19.921875 0 
L 10.890625 0 
L 10.890625 47.703125 
L 2.296875 47.703125 
L 2.296875 54.6875 
L 10.890625 54.6875 
L 10.890625 58.5 
Q 10.890625 67.625 15.140625 71.796875 
Q 19.390625 75.984375 28.609375 75.984375 
z
" id="DejaVuSans-102"/>
    </defs>
    <g transform="translate(123.315 35.472)scale(0.12 -0.12)">
     <use xlink:href="#DejaVuSans-80"/>
     <use x="60.255859" xlink:href="#DejaVuSans-111"/>
     <use x="121.4375" xlink:href="#DejaVuSans-112"/>
     <use x="184.914062" xlink:href="#DejaVuSans-117"/>
     <use x="248.292969" xlink:href="#DejaVuSans-108"/>
     <use x="276.076172" xlink:href="#DejaVuSans-97"/>
     <use x="337.355469" xlink:href="#DejaVuSans-116"/>
     <use x="376.564453" xlink:href="#DejaVuSans-105"/>
     <use x="404.347656" xlink:href="#DejaVuSans-111"/>
     <use x="465.529297" xlink:href="#DejaVuSans-110"/>
     <use x="528.908203" xlink:href="#DejaVuSans-39"/>
     <use x="556.398438" xlink:href="#DejaVuSans-115"/>
     <use x="608.498047" xlink:href="#DejaVuSans-32"/>
     <use x="640.285156" xlink:href="#DejaVuSans-97"/>
     <use x="701.564453" xlink:href="#DejaVuSans-118"/>
     <use x="760.744141" xlink:href="#DejaVuSans-101"/>
     <use x="822.267578" xlink:href="#DejaVuSans-114"/>
     <use x="863.380859" xlink:href="#DejaVuSans-97"/>
     <use x="924.660156" xlink:href="#DejaVuSans-103"/>
     <use x="988.136719" xlink:href="#DejaVuSans-101"/>
     <use x="1049.660156" xlink:href="#DejaVuSans-32"/>
     <use x="1081.447266" xlink:href="#DejaVuSans-97"/>
     <use x="1142.726562" xlink:href="#DejaVuSans-110"/>
     <use x="1206.105469" xlink:href="#DejaVuSans-100"/>
     <use x="1269.582031" xlink:href="#DejaVuSans-32"/>
     <use x="1301.369141" xlink:href="#DejaVuSans-98"/>
     <use x="1364.845703" xlink:href="#DejaVuSans-101"/>
     <use x="1426.369141" xlink:href="#DejaVuSans-115"/>
     <use x="1478.46875" xlink:href="#DejaVuSans-116"/>
     <use x="1517.677734" xlink:href="#DejaVuSans-32"/>
     <use x="1549.464844" xlink:href="#DejaVuSans-102"/>
     <use x="1584.669922" xlink:href="#DejaVuSans-105"/>
     <use x="1612.453125" xlink:href="#DejaVuSans-116"/>
     <use x="1651.662109" xlink:href="#DejaVuSans-110"/>
     <use x="1715.041016" xlink:href="#DejaVuSans-101"/>
     <use x="1776.564453" xlink:href="#DejaVuSans-115"/>
     <use x="1828.664062" xlink:href="#DejaVuSans-115"/>
    </g>
   </g>
   <g id="legend_1">
    <g id="patch_7">
     <path d="M 64.6 108.1845 
L 137.540625 108.1845 
Q 139.540625 108.1845 139.540625 106.1845 
L 139.540625 48.472 
Q 139.540625 46.472 137.540625 46.472 
L 64.6 46.472 
Q 62.6 46.472 62.6 48.472 
L 62.6 106.1845 
Q 62.6 108.1845 64.6 108.1845 
z
" style="fill:#ffffff;opacity:0.8;stroke:#cccccc;stroke-linejoin:miter;"/>
    </g>
    <g id="line2d_33">
     <path d="M 66.6 54.570438 
L 86.6 54.570438 
" style="fill:none;stroke:#0000ff;stroke-linecap:square;stroke-width:1.5;"/>
    </g>
    <g id="line2d_34"/>
    <g id="text_18">
     <!-- average -->
     <g transform="translate(94.6 58.070438)scale(0.1 -0.1)">
      <use xlink:href="#DejaVuSans-97"/>
      <use x="61.279297" xlink:href="#DejaVuSans-118"/>
      <use x="120.458984" xlink:href="#DejaVuSans-101"/>
      <use x="181.982422" xlink:href="#DejaVuSans-114"/>
      <use x="223.095703" xlink:href="#DejaVuSans-97"/>
      <use x="284.375" xlink:href="#DejaVuSans-103"/>
      <use x="347.851562" xlink:href="#DejaVuSans-101"/>
     </g>
    </g>
    <g id="line2d_35">
     <path d="M 66.6 69.248563 
L 86.6 69.248563 
" style="fill:none;stroke:#008000;stroke-dasharray:9.6,2.4,1.5,2.4;stroke-dashoffset:0;stroke-width:1.5;"/>
    </g>
    <g id="line2d_36"/>
    <g id="text_19">
     <!-- -1 sd -->
     <defs>
      <path d="M 4.890625 31.390625 
L 31.203125 31.390625 
L 31.203125 23.390625 
L 4.890625 23.390625 
z
" id="DejaVuSans-45"/>
     </defs>
     <g transform="translate(94.6 72.748563)scale(0.1 -0.1)">
      <use xlink:href="#DejaVuSans-45"/>
      <use x="36.083984" xlink:href="#DejaVuSans-49"/>
      <use x="99.707031" xlink:href="#DejaVuSans-32"/>
      <use x="131.494141" xlink:href="#DejaVuSans-115"/>
      <use x="183.59375" xlink:href="#DejaVuSans-100"/>
     </g>
    </g>
    <g id="line2d_37">
     <path d="M 66.6 83.926688 
L 86.6 83.926688 
" style="fill:none;stroke:#008000;stroke-dasharray:9.6,2.4,1.5,2.4;stroke-dashoffset:0;stroke-width:1.5;"/>
    </g>
    <g id="line2d_38"/>
    <g id="text_20">
     <!-- +1 sd -->
     <defs>
      <path d="M 46 62.703125 
L 46 35.5 
L 73.1875 35.5 
L 73.1875 27.203125 
L 46 27.203125 
L 46 0 
L 37.796875 0 
L 37.796875 27.203125 
L 10.59375 27.203125 
L 10.59375 35.5 
L 37.796875 35.5 
L 37.796875 62.703125 
z
" id="DejaVuSans-43"/>
     </defs>
     <g transform="translate(94.6 87.426688)scale(0.1 -0.1)">
      <use xlink:href="#DejaVuSans-43"/>
      <use x="83.789062" xlink:href="#DejaVuSans-49"/>
      <use x="147.412109" xlink:href="#DejaVuSans-32"/>
      <use x="179.199219" xlink:href="#DejaVuSans-115"/>
      <use x="231.298828" xlink:href="#DejaVuSans-100"/>
     </g>
    </g>
    <g id="line2d_39">
     <path d="M 66.6 98.604813 
L 86.6 98.604813 
" style="fill:none;stroke:#ff0000;stroke-linecap:square;stroke-width:1.5;"/>
    </g>
    <g id="line2d_40"/>
    <g id="text_21">
     <!-- best -->
     <g transform="translate(94.6 102.104813)scale(0.1 -0.1)">
      <use xlink:href="#DejaVuSans-98"/>
      <use x="63.476562" xlink:href="#DejaVuSans-101"/>
      <use x="125" xlink:href="#DejaVuSans-115"/>
      <use x="177.099609" xlink:href="#DejaVuSans-116"/>
     </g>
    </g>
   </g>
  </g>
 </g>
 <defs>
  <clipPath id="p40f78a5b5c">
   <rect height="266.112" width="357.12" x="57.6" y="41.472"/>
  </clipPath>
 </defs>
</svg>
