<?xml version="1.0" encoding="utf-8" standalone="no"?>
<!DOCTYPE svg PUBLIC "-//W3C//DTD SVG 1.1//EN"
  "http://www.w3.org/Graphics/SVG/1.1/DTD/svg11.dtd">
<!-- Created with matplotlib (https://matplotlib.org/) -->
<svg height="345.6pt" version="1.1" viewBox="0 0 460.8 345.6" width="460.8pt" xmlns="http://www.w3.org/2000/svg" xmlns:xlink="http://www.w3.org/1999/xlink">
 <defs>
  <style type="text/css">
*{stroke-linecap:butt;stroke-linejoin:round;}
  </style>
 </defs>
 <g id="figure_1">
  <g id="patch_1">
   <path d="M 0 345.6 
L 460.8 345.6 
L 460.8 0 
L 0 0 
z
" style="fill:#ffffff;"/>
  </g>
  <g id="axes_1">
   <g id="patch_2">
    <path d="M 57.6 307.584 
L 414.72 307.584 
L 414.72 41.472 
L 57.6 41.472 
z
" style="fill:#ffffff;"/>
   </g>
   <g id="PolyCollection_1">
    <path clip-path="url(#pd0c3b67091)" d="M 73.832727 178.25947 
L 73.832727 187.640255 
L 74.918528 192.001796 
L 76.00433 189.910542 
L 77.090131 193.613198 
L 78.175932 171.829471 
L 79.261733 184.819342 
L 80.347534 182.847456 
L 81.433335 169.269617 
L 82.519137 161.027152 
L 83.604938 165.140516 
L 84.690739 172.204201 
L 85.77654 177.647749 
L 86.862341 165.894882 
L 87.948142 174.280214 
L 89.033943 186.605433 
L 90.119745 157.150185 
L 91.205546 170.86325 
L 92.291347 176.820666 
L 93.377148 170.738946 
L 94.462949 169.463676 
L 95.54875 168.123256 
L 96.634552 155.678397 
L 97.720353 142.82756 
L 98.806154 168.523433 
L 99.891955 150.329403 
L 100.977756 149.026713 
L 102.063557 157.382993 
L 103.149358 140.132603 
L 104.23516 159.750927 
L 105.320961 163.326458 
L 106.406762 138.451125 
L 107.492563 142.579272 
L 108.578364 159.163419 
L 109.664165 159.897509 
L 110.749967 168.66492 
L 111.835768 176.931504 
L 112.921569 158.774047 
L 114.00737 173.897698 
L 115.093171 170.680296 
L 116.178972 184.846151 
L 117.264773 180.589841 
L 118.350575 165.49821 
L 119.436376 178.130421 
L 120.522177 183.751102 
L 121.607978 171.259823 
L 122.693779 163.967422 
L 123.77958 162.677061 
L 124.865382 153.690076 
L 125.951183 143.52065 
L 127.036984 154.386016 
L 128.122785 135.830748 
L 129.208586 153.33426 
L 130.294387 150.924863 
L 131.380189 172.501318 
L 132.46599 165.356869 
L 133.551791 148.752044 
L 134.637592 161.74609 
L 135.723393 172.907119 
L 136.809194 185.151291 
L 137.894995 149.883006 
L 138.980797 157.626182 
L 140.066598 157.281091 
L 141.152399 136.946798 
L 142.2382 158.062591 
L 143.324001 178.944707 
L 144.409802 173.212994 
L 145.495604 164.251158 
L 146.581405 155.192252 
L 147.667206 157.177027 
L 148.753007 165.298817 
L 149.838808 139.33761 
L 150.924609 138.121513 
L 152.01041 141.755323 
L 153.096212 147.605076 
L 154.182013 181.528844 
L 155.267814 200.620335 
L 156.353615 196.143422 
L 157.439416 193.737567 
L 158.525217 201.896797 
L 159.611019 193.078832 
L 160.69682 192.259117 
L 161.782621 194.749838 
L 162.868422 189.039515 
L 163.954223 200.293721 
L 165.040024 170.707836 
L 166.125825 156.707308 
L 167.211627 185.503771 
L 168.297428 172.545236 
L 169.383229 163.561211 
L 170.46903 161.947344 
L 171.554831 151.545767 
L 172.640632 146.941743 
L 173.726434 147.288599 
L 174.812235 158.111129 
L 175.898036 159.56408 
L 176.983837 157.398251 
L 178.069638 180.902922 
L 179.155439 168.709429 
L 180.24124 152.647417 
L 181.327042 163.132089 
L 182.412843 140.548945 
L 183.498644 144.587396 
L 184.584445 150.977364 
L 185.670246 140.095325 
L 186.756047 156.09138 
L 187.841849 146.328194 
L 188.92765 169.521198 
L 190.013451 156.783741 
L 191.099252 163.459144 
L 192.185053 180.999443 
L 193.270854 178.913795 
L 194.356656 179.317428 
L 195.442457 176.791332 
L 196.528258 142.558091 
L 197.614059 150.735899 
L 198.69986 131.222536 
L 199.785661 145.584942 
L 200.871462 145.396519 
L 201.957264 149.972455 
L 203.043065 172.856526 
L 204.128866 134.053961 
L 205.214667 183.638975 
L 206.300468 165.534065 
L 207.386269 144.294579 
L 208.472071 151.474796 
L 209.557872 148.162628 
L 210.643673 137.61111 
L 211.729474 145.113221 
L 212.815275 157.626566 
L 213.901076 159.902094 
L 214.986877 170.598858 
L 216.072679 186.775772 
L 217.15848 165.132114 
L 218.244281 137.403017 
L 219.330082 158.461996 
L 220.415883 160.288604 
L 221.501684 177.589307 
L 222.587486 192.213392 
L 223.673287 171.681162 
L 224.759088 185.654627 
L 225.844889 185.445297 
L 226.93069 158.215959 
L 228.016491 164.074006 
L 229.102292 152.061778 
L 230.188094 167.183834 
L 231.273895 179.678451 
L 232.359696 184.005681 
L 233.445497 207.487069 
L 234.531298 178.91841 
L 235.617099 193.172443 
L 236.702901 206.552282 
L 237.788702 193.80346 
L 238.874503 206.330726 
L 239.960304 192.335969 
L 241.046105 198.04347 
L 242.131906 199.285354 
L 243.217708 191.531857 
L 244.303509 183.205513 
L 245.38931 190.044046 
L 246.475111 185.016208 
L 247.560912 188.15125 
L 248.646713 195.789923 
L 249.732514 185.278412 
L 250.818316 194.821303 
L 251.904117 186.51587 
L 252.989918 175.554898 
L 254.075719 190.35413 
L 255.16152 190.937706 
L 256.247321 160.947591 
L 257.333123 185.806515 
L 258.418924 179.712649 
L 259.504725 174.683892 
L 260.590526 151.902935 
L 261.676327 146.406591 
L 262.762128 160.680003 
L 263.847929 159.878324 
L 264.933731 156.345481 
L 266.019532 169.939695 
L 267.105333 157.368355 
L 268.191134 153.463153 
L 269.276935 154.648189 
L 270.362736 163.937609 
L 271.448538 128.397756 
L 272.534339 130.986698 
L 273.62014 138.428792 
L 274.705941 137.824998 
L 275.791742 135.041669 
L 276.877543 151.132752 
L 277.963344 144.829951 
L 279.049146 123.624435 
L 280.134947 146.013196 
L 281.220748 141.168204 
L 282.306549 150.815086 
L 283.39235 157.696798 
L 284.478151 131.480017 
L 285.563953 145.043673 
L 286.649754 142.174455 
L 287.735555 153.945434 
L 288.821356 132.789671 
L 289.907157 143.904543 
L 290.992958 161.390574 
L 292.07876 131.227195 
L 293.164561 151.310895 
L 294.250362 153.337336 
L 295.336163 131.390232 
L 296.421964 126.804559 
L 297.507765 129.395525 
L 298.593566 143.212592 
L 299.679368 140.47186 
L 300.765169 160.070212 
L 301.85097 161.515996 
L 302.936771 180.728745 
L 304.022572 191.286435 
L 305.108373 167.422984 
L 306.194175 168.825126 
L 307.279976 161.584921 
L 308.365777 152.97973 
L 309.451578 154.857007 
L 310.537379 149.692624 
L 311.62318 159.774537 
L 312.708981 131.08155 
L 313.794783 133.896337 
L 314.880584 134.144482 
L 315.966385 139.48104 
L 317.052186 121.608004 
L 318.137987 124.234995 
L 319.223788 145.844921 
L 320.30959 141.450941 
L 321.395391 130.919713 
L 322.481192 138.752622 
L 323.566993 118.696028 
L 324.652794 156.170002 
L 325.738595 154.990935 
L 326.824396 164.602592 
L 327.910198 144.668939 
L 328.995999 137.325023 
L 330.0818 149.06814 
L 331.167601 185.076996 
L 332.253402 141.885475 
L 333.339203 153.559393 
L 334.425005 148.011895 
L 335.510806 129.042038 
L 336.596607 144.155337 
L 337.682408 135.323218 
L 338.768209 146.52772 
L 339.85401 161.985969 
L 340.939811 134.014645 
L 342.025613 144.086879 
L 343.111414 147.902038 
L 344.197215 170.68661 
L 345.283016 179.477307 
L 346.368817 138.153115 
L 347.454618 167.901734 
L 348.54042 157.895414 
L 349.626221 179.241613 
L 350.712022 173.500072 
L 351.797823 161.402639 
L 352.883624 156.892803 
L 353.969425 164.936764 
L 355.055227 155.9614 
L 356.141028 154.392201 
L 357.226829 176.702042 
L 358.31263 187.245902 
L 359.398431 191.216985 
L 360.484232 184.235498 
L 361.570033 188.388522 
L 362.655835 189.416752 
L 363.741636 185.870873 
L 364.827437 192.358775 
L 365.913238 192.901675 
L 366.999039 193.313915 
L 368.08484 185.358188 
L 369.170642 178.022302 
L 370.256443 155.324207 
L 371.342244 148.976391 
L 372.428045 180.354189 
L 373.513846 189.90793 
L 374.599647 169.460001 
L 375.685448 172.223067 
L 376.77125 187.105936 
L 377.857051 178.522304 
L 378.942852 178.593561 
L 380.028653 151.219283 
L 381.114454 156.42919 
L 382.200255 189.527868 
L 383.286057 184.710717 
L 384.371858 176.922727 
L 385.457659 174.803719 
L 386.54346 159.517554 
L 387.629261 156.818063 
L 388.715062 136.084807 
L 389.800863 143.022583 
L 390.886665 137.669411 
L 391.972466 132.65642 
L 393.058267 167.650247 
L 394.144068 153.325817 
L 395.229869 146.980658 
L 396.31567 159.01872 
L 397.401472 137.399134 
L 398.487273 142.135851 
L 398.487273 74.972169 
L 398.487273 74.972169 
L 397.401472 73.719976 
L 396.31567 74.772692 
L 395.229869 68.116062 
L 394.144068 73.671453 
L 393.058267 74.636957 
L 391.972466 69.366089 
L 390.886665 71.562437 
L 389.800863 65.592759 
L 388.715062 69.800297 
L 387.629261 72.896865 
L 386.54346 67.646643 
L 385.457659 85.988116 
L 384.371858 75.250613 
L 383.286057 80.460313 
L 382.200255 98.26439 
L 381.114454 75.573641 
L 380.028653 80.659705 
L 378.942852 87.532933 
L 377.857051 90.996279 
L 376.77125 98.731542 
L 375.685448 86.617454 
L 374.599647 83.115955 
L 373.513846 85.365492 
L 372.428045 93.482754 
L 371.342244 85.357763 
L 370.256443 81.108126 
L 369.170642 88.802608 
L 368.08484 112.739916 
L 366.999039 133.595112 
L 365.913238 134.384677 
L 364.827437 131.933122 
L 363.741636 115.251932 
L 362.655835 119.521986 
L 361.570033 123.829094 
L 360.484232 130.803479 
L 359.398431 129.048754 
L 358.31263 123.381349 
L 357.226829 108.536121 
L 356.141028 103.164728 
L 355.055227 79.897013 
L 353.969425 91.298447 
L 352.883624 91.216634 
L 351.797823 94.108167 
L 350.712022 90.834166 
L 349.626221 87.618181 
L 348.54042 83.432207 
L 347.454618 94.042888 
L 346.368817 87.81788 
L 345.283016 90.203219 
L 344.197215 103.039258 
L 343.111414 83.779708 
L 342.025613 84.734744 
L 340.939811 80.281293 
L 339.85401 74.446364 
L 338.768209 71.703413 
L 337.682408 66.070203 
L 336.596607 71.623004 
L 335.510806 63.142419 
L 334.425005 68.328639 
L 333.339203 57.496808 
L 332.253402 60.077862 
L 331.167601 83.768899 
L 330.0818 59.646985 
L 328.995999 70.131927 
L 327.910198 70.91669 
L 326.824396 80.323664 
L 325.738595 70.552446 
L 324.652794 73.129728 
L 323.566993 60.844399 
L 322.481192 66.327251 
L 321.395391 58.281998 
L 320.30959 70.712454 
L 319.223788 68.363817 
L 318.137987 77.242512 
L 317.052186 68.952536 
L 315.966385 69.273972 
L 314.880584 62.279151 
L 313.794783 59.293787 
L 312.708981 71.102996 
L 311.62318 78.986029 
L 310.537379 80.15905 
L 309.451578 67.445621 
L 308.365777 69.233936 
L 307.279976 74.898984 
L 306.194175 71.854474 
L 305.108373 81.130177 
L 304.022572 90.403676 
L 302.936771 81.784629 
L 301.85097 74.995106 
L 300.765169 82.88071 
L 299.679368 65.440401 
L 298.593566 70.348373 
L 297.507765 59.226181 
L 296.421964 73.896867 
L 295.336163 67.894814 
L 294.250362 69.168252 
L 293.164561 61.976011 
L 292.07876 58.540696 
L 290.992958 71.268481 
L 289.907157 68.170779 
L 288.821356 65.673201 
L 287.735555 65.383201 
L 286.649754 77.298933 
L 285.563953 79.711759 
L 284.478151 67.598364 
L 283.39235 73.502775 
L 282.306549 73.389037 
L 281.220748 63.219673 
L 280.134947 59.267985 
L 279.049146 65.02368 
L 277.963344 58.475895 
L 276.877543 62.74176 
L 275.791742 62.350758 
L 274.705941 68.072688 
L 273.62014 73.961074 
L 272.534339 56.805858 
L 271.448538 68.956926 
L 270.362736 77.604157 
L 269.276935 70.587637 
L 268.191134 70.288027 
L 267.105333 78.876497 
L 266.019532 80.182821 
L 264.933731 73.935625 
L 263.847929 72.76815 
L 262.762128 71.438037 
L 261.676327 64.234413 
L 260.590526 61.090855 
L 259.504725 83.981628 
L 258.418924 91.320726 
L 257.333123 74.142343 
L 256.247321 72.655096 
L 255.16152 89.003544 
L 254.075719 94.556909 
L 252.989918 98.837802 
L 251.904117 110.637205 
L 250.818316 124.513386 
L 249.732514 123.487613 
L 248.646713 121.342962 
L 247.560912 122.854325 
L 246.475111 117.169565 
L 245.38931 131.089833 
L 244.303509 113.242984 
L 243.217708 128.608065 
L 242.131906 132.731733 
L 241.046105 130.387821 
L 239.960304 108.214177 
L 238.874503 147.67925 
L 237.788702 123.681713 
L 236.702901 122.457769 
L 235.617099 107.415448 
L 234.531298 88.227205 
L 233.445497 107.481755 
L 232.359696 103.799159 
L 231.273895 104.377029 
L 230.188094 100.16309 
L 229.102292 71.035152 
L 228.016491 74.045527 
L 226.93069 64.390283 
L 225.844889 75.623336 
L 224.759088 94.764729 
L 223.673287 87.449883 
L 222.587486 90.458095 
L 221.501684 82.862821 
L 220.415883 85.090594 
L 219.330082 65.591147 
L 218.244281 85.077407 
L 217.15848 70.420743 
L 216.072679 94.901758 
L 214.986877 88.519605 
L 213.901076 66.264782 
L 212.815275 73.170391 
L 211.729474 67.452789 
L 210.643673 66.638368 
L 209.557872 58.842251 
L 208.472071 67.973428 
L 207.386269 56.733972 
L 206.300468 60.582484 
L 205.214667 75.190108 
L 204.128866 67.880475 
L 203.043065 77.26599 
L 201.957264 72.772186 
L 200.871462 70.704962 
L 199.785661 70.843664 
L 198.69986 69.18951 
L 197.614059 76.525589 
L 196.528258 61.754295 
L 195.442457 80.339216 
L 194.356656 92.005327 
L 193.270854 82.079348 
L 192.185053 85.441595 
L 191.099252 66.180293 
L 190.013451 69.647351 
L 188.92765 55.51332 
L 187.841849 53.568 
L 186.756047 65.483159 
L 185.670246 73.376571 
L 184.584445 54.93087 
L 183.498644 57.674166 
L 182.412843 66.795387 
L 181.327042 62.317627 
L 180.24124 64.152412 
L 179.155439 66.000451 
L 178.069638 80.643817 
L 176.983837 75.072078 
L 175.898036 70.490936 
L 174.812235 74.359823 
L 173.726434 66.397186 
L 172.640632 63.757721 
L 171.554831 66.257934 
L 170.46903 58.390323 
L 169.383229 67.776761 
L 168.297428 68.122536 
L 167.211627 85.252805 
L 166.125825 63.803375 
L 165.040024 78.873666 
L 163.954223 112.101819 
L 162.868422 101.935924 
L 161.782621 100.667206 
L 160.69682 97.722364 
L 159.611019 97.531736 
L 158.525217 110.70666 
L 157.439416 100.886577 
L 156.353615 121.203352 
L 155.267814 112.637373 
L 154.182013 104.288079 
L 153.096212 78.171766 
L 152.01041 59.839406 
L 150.924609 57.899504 
L 149.838808 60.948618 
L 148.753007 73.638529 
L 147.667206 70.285768 
L 146.581405 70.722988 
L 145.495604 71.704314 
L 144.409802 81.187315 
L 143.324001 76.701194 
L 142.2382 77.779646 
L 141.152399 61.036971 
L 140.066598 67.816336 
L 138.980797 72.579433 
L 137.894995 77.844005 
L 136.809194 68.481531 
L 135.723393 82.21035 
L 134.637592 76.637659 
L 133.551791 67.160711 
L 132.46599 78.046996 
L 131.380189 78.64032 
L 130.294387 81.734193 
L 129.208586 86.030865 
L 128.122785 53.798743 
L 127.036984 76.033489 
L 125.951183 63.547138 
L 124.865382 68.500969 
L 123.77958 83.87224 
L 122.693779 85.538589 
L 121.607978 77.591937 
L 120.522177 99.234929 
L 119.436376 83.391155 
L 118.350575 84.636888 
L 117.264773 93.689623 
L 116.178972 88.389029 
L 115.093171 80.801048 
L 114.00737 66.247495 
L 112.921569 66.348544 
L 111.835768 82.010814 
L 110.749967 82.715771 
L 109.664165 80.990007 
L 108.578364 70.236965 
L 107.492563 69.357651 
L 106.406762 67.811432 
L 105.320961 77.498149 
L 104.23516 82.822543 
L 103.149358 75.276881 
L 102.063557 94.324823 
L 100.977756 80.37367 
L 99.891955 68.615552 
L 98.806154 76.453149 
L 97.720353 60.000181 
L 96.634552 76.250917 
L 95.54875 68.524212 
L 94.462949 72.606524 
L 93.377148 75.206431 
L 92.291347 75.742709 
L 91.205546 83.39866 
L 90.119745 88.103196 
L 89.033943 101.564276 
L 87.948142 108.240293 
L 86.862341 96.192873 
L 85.77654 94.983507 
L 84.690739 81.139242 
L 83.604938 81.15715 
L 82.519137 81.105956 
L 81.433335 91.937415 
L 80.347534 87.506504 
L 79.261733 102.998079 
L 78.175932 117.321615 
L 77.090131 149.035463 
L 76.00433 170.969066 
L 74.918528 178.012158 
L 73.832727 178.25947 
z
" style="fill:#0000ff;fill-opacity:0.5;"/>
   </g>
   <g id="PolyCollection_2">
    <path clip-path="url(#pd0c3b67091)" d="M 73.832727 203.233002 
L 73.832727 295.488 
L 74.918528 212.98301 
L 76.00433 215.117935 
L 77.090131 233.532246 
L 78.175932 250.801802 
L 79.261733 254.580816 
L 80.347534 259.009247 
L 81.433335 259.697879 
L 82.519137 246.268999 
L 83.604938 232.19361 
L 84.690739 260.900487 
L 85.77654 246.518885 
L 86.862341 237.380207 
L 87.948142 229.158764 
L 89.033943 255.173366 
L 90.119745 243.628618 
L 91.205546 260.697812 
L 92.291347 258.009012 
L 93.377148 242.43292 
L 94.462949 232.658803 
L 95.54875 239.389409 
L 96.634552 243.726824 
L 97.720353 226.090231 
L 98.806154 253.685836 
L 99.891955 233.526159 
L 100.977756 222.389749 
L 102.063557 241.215523 
L 103.149358 224.807728 
L 104.23516 237.25838 
L 105.320961 250.676321 
L 106.406762 233.639967 
L 107.492563 224.672704 
L 108.578364 220.619719 
L 109.664165 219.971899 
L 110.749967 231.915937 
L 111.835768 237.326392 
L 112.921569 222.171335 
L 114.00737 223.263724 
L 115.093171 219.624398 
L 116.178972 256.523786 
L 117.264773 245.203666 
L 118.350575 240.882972 
L 119.436376 257.143206 
L 120.522177 224.678461 
L 121.607978 232.623917 
L 122.693779 245.145315 
L 123.77958 261.529674 
L 124.865382 250.372545 
L 125.951183 220.103315 
L 127.036984 218.177242 
L 128.122785 198.863111 
L 129.208586 207.636033 
L 130.294387 209.734887 
L 131.380189 230.302771 
L 132.46599 209.370771 
L 133.551791 216.372889 
L 134.637592 219.95065 
L 135.723393 256.697305 
L 136.809194 246.726894 
L 137.894995 220.918719 
L 138.980797 208.800585 
L 140.066598 212.521127 
L 141.152399 205.937309 
L 142.2382 218.743792 
L 143.324001 241.754243 
L 144.409802 200.562819 
L 145.495604 221.891428 
L 146.581405 215.017269 
L 147.667206 240.899396 
L 148.753007 239.434353 
L 149.838808 194.448389 
L 150.924609 213.469091 
L 152.01041 208.033528 
L 153.096212 198.577451 
L 154.182013 189.738843 
L 155.267814 233.953211 
L 156.353615 197.558615 
L 157.439416 214.90628 
L 158.525217 229.693423 
L 159.611019 196.477992 
L 160.69682 210.571932 
L 161.782621 213.867687 
L 162.868422 207.384235 
L 163.954223 191.136339 
L 165.040024 214.620543 
L 166.125825 198.708579 
L 167.211627 245.098988 
L 168.297428 211.267097 
L 169.383229 239.447942 
L 170.46903 228.321858 
L 171.554831 203.079645 
L 172.640632 225.771589 
L 173.726434 219.474874 
L 174.812235 219.302509 
L 175.898036 193.683061 
L 176.983837 179.673228 
L 178.069638 208.026105 
L 179.155439 193.23947 
L 180.24124 214.185642 
L 181.327042 195.241644 
L 182.412843 220.540257 
L 183.498644 196.821621 
L 184.584445 172.303032 
L 185.670246 209.174792 
L 186.756047 180.861536 
L 187.841849 194.752031 
L 188.92765 212.357675 
L 190.013451 210.392157 
L 191.099252 201.861567 
L 192.185053 221.068749 
L 193.270854 182.181446 
L 194.356656 237.209226 
L 195.442457 166.465986 
L 196.528258 184.152379 
L 197.614059 212.218477 
L 198.69986 210.936243 
L 199.785661 216.751891 
L 200.871462 230.433293 
L 201.957264 201.045844 
L 203.043065 250.805576 
L 204.128866 198.932817 
L 205.214667 235.582997 
L 206.300468 209.673447 
L 207.386269 200.785171 
L 208.472071 196.269863 
L 209.557872 188.346611 
L 210.643673 198.221787 
L 211.729474 208.852062 
L 212.815275 209.354609 
L 213.901076 210.214695 
L 214.986877 220.264102 
L 216.072679 182.303552 
L 217.15848 182.000706 
L 218.244281 211.053763 
L 219.330082 228.568844 
L 220.415883 199.196407 
L 221.501684 188.46096 
L 222.587486 207.655096 
L 223.673287 223.406502 
L 224.759088 208.99953 
L 225.844889 170.57763 
L 226.93069 201.955508 
L 228.016491 185.65413 
L 229.102292 203.155187 
L 230.188094 175.647876 
L 231.273895 212.395704 
L 232.359696 227.352451 
L 233.445497 222.872416 
L 234.531298 192.754025 
L 235.617099 161.98281 
L 236.702901 208.909843 
L 237.788702 199.352506 
L 238.874503 190.055476 
L 239.960304 177.369407 
L 241.046105 176.131921 
L 242.131906 182.396479 
L 243.217708 171.42877 
L 244.303509 176.94418 
L 245.38931 152.945345 
L 246.475111 168.48726 
L 247.560912 159.257336 
L 248.646713 175.418707 
L 249.732514 181.804497 
L 250.818316 196.183337 
L 251.904117 181.80107 
L 252.989918 161.199844 
L 254.075719 167.331632 
L 255.16152 192.174918 
L 256.247321 178.875512 
L 257.333123 176.107297 
L 258.418924 209.698636 
L 259.504725 174.734628 
L 260.590526 196.945468 
L 261.676327 190.990724 
L 262.762128 215.914767 
L 263.847929 212.579301 
L 264.933731 190.329439 
L 266.019532 191.214876 
L 267.105333 177.873966 
L 268.191134 175.761823 
L 269.276935 209.299416 
L 270.362736 240.523309 
L 271.448538 182.039623 
L 272.534339 161.829224 
L 273.62014 195.203444 
L 274.705941 170.22291 
L 275.791742 175.180893 
L 276.877543 232.67784 
L 277.963344 220.539269 
L 279.049146 188.769512 
L 280.134947 205.975645 
L 281.220748 198.963313 
L 282.306549 225.930877 
L 283.39235 209.594505 
L 284.478151 186.092968 
L 285.563953 195.562926 
L 286.649754 199.950229 
L 287.735555 178.187254 
L 288.821356 182.835012 
L 289.907157 192.096901 
L 290.992958 223.041173 
L 292.07876 194.64196 
L 293.164561 199.343581 
L 294.250362 196.613315 
L 295.336163 191.304003 
L 296.421964 185.003651 
L 297.507765 202.665472 
L 298.593566 201.825705 
L 299.679368 189.681061 
L 300.765169 220.80259 
L 301.85097 182.235926 
L 302.936771 190.087331 
L 304.022572 207.072945 
L 305.108373 188.009225 
L 306.194175 185.924395 
L 307.279976 202.963064 
L 308.365777 177.238528 
L 309.451578 208.569141 
L 310.537379 205.52061 
L 311.62318 183.420741 
L 312.708981 171.130892 
L 313.794783 183.946195 
L 314.880584 181.595269 
L 315.966385 182.342988 
L 317.052186 172.63137 
L 318.137987 179.901295 
L 319.223788 172.973471 
L 320.30959 182.607248 
L 321.395391 164.587179 
L 322.481192 177.129103 
L 323.566993 172.19068 
L 324.652794 204.859176 
L 325.738595 201.396901 
L 326.824396 152.560553 
L 327.910198 186.345594 
L 328.995999 193.219463 
L 330.0818 190.624802 
L 331.167601 202.446697 
L 332.253402 191.157558 
L 333.339203 177.199006 
L 334.425005 191.880061 
L 335.510806 179.902843 
L 336.596607 202.475153 
L 337.682408 181.840943 
L 338.768209 191.435235 
L 339.85401 202.651471 
L 340.939811 198.412664 
L 342.025613 203.118243 
L 343.111414 209.072474 
L 344.197215 224.381292 
L 345.283016 197.01121 
L 346.368817 166.455548 
L 347.454618 200.805365 
L 348.54042 192.156632 
L 349.626221 200.207819 
L 350.712022 177.366608 
L 351.797823 185.649085 
L 352.883624 180.967082 
L 353.969425 190.029527 
L 355.055227 169.673016 
L 356.141028 195.913476 
L 357.226829 220.849496 
L 358.31263 188.67374 
L 359.398431 174.1733 
L 360.484232 134.640772 
L 361.570033 172.011547 
L 362.655835 196.321455 
L 363.741636 189.042347 
L 364.827437 183.389637 
L 365.913238 173.360142 
L 366.999039 157.937906 
L 368.08484 180.24934 
L 369.170642 201.879573 
L 370.256443 203.906433 
L 371.342244 172.722704 
L 372.428045 228.067067 
L 373.513846 217.853417 
L 374.599647 222.059226 
L 375.685448 192.577765 
L 376.77125 192.922567 
L 377.857051 174.442094 
L 378.942852 178.441166 
L 380.028653 194.676989 
L 381.114454 199.000603 
L 382.200255 210.907106 
L 383.286057 219.779631 
L 384.371858 173.159179 
L 385.457659 195.137434 
L 386.54346 193.267363 
L 387.629261 189.607117 
L 388.715062 164.933478 
L 389.800863 202.021791 
L 390.886665 186.3484 
L 391.972466 184.062922 
L 393.058267 208.785683 
L 394.144068 189.338604 
L 395.229869 190.005798 
L 396.31567 209.736446 
L 397.401472 164.811404 
L 398.487273 195.571664 
L 398.487273 105.825653 
L 398.487273 105.825653 
L 397.401472 115.264051 
L 396.31567 105.634994 
L 395.229869 103.2721 
L 394.144068 106.606624 
L 393.058267 92.301284 
L 391.972466 111.647446 
L 390.886665 103.045933 
L 389.800863 94.275725 
L 388.715062 97.527535 
L 387.629261 90.41801 
L 386.54346 99.95182 
L 385.457659 86.380727 
L 384.371858 106.773683 
L 383.286057 99.551193 
L 382.200255 93.08205 
L 381.114454 113.332141 
L 380.028653 101.259851 
L 378.942852 82.935934 
L 377.857051 100.53356 
L 376.77125 87.898253 
L 375.685448 97.076591 
L 374.599647 101.28904 
L 373.513846 110.611425 
L 372.428045 91.776627 
L 371.342244 100.984908 
L 370.256443 92.063958 
L 369.170642 89.308558 
L 368.08484 85.608744 
L 366.999039 89.599275 
L 365.913238 91.768201 
L 364.827437 81.428185 
L 363.741636 85.18679 
L 362.655835 90.531365 
L 361.570033 88.369284 
L 360.484232 96.768497 
L 359.398431 89.881401 
L 358.31263 73.862763 
L 357.226829 90.98228 
L 356.141028 106.859444 
L 355.055227 86.203551 
L 353.969425 88.695487 
L 352.883624 103.956538 
L 351.797823 110.589717 
L 350.712022 96.426363 
L 349.626221 96.341333 
L 348.54042 109.030989 
L 347.454618 94.074608 
L 346.368817 111.975892 
L 345.283016 92.148264 
L 344.197215 117.638282 
L 343.111414 109.88057 
L 342.025613 117.755614 
L 340.939811 128.072651 
L 339.85401 93.763475 
L 338.768209 107.036613 
L 337.682408 104.156319 
L 336.596607 105.795249 
L 335.510806 104.100418 
L 334.425005 114.499626 
L 333.339203 102.012502 
L 332.253402 100.056934 
L 331.167601 94.387641 
L 330.0818 95.808628 
L 328.995999 114.200316 
L 327.910198 95.583571 
L 326.824396 104.112858 
L 325.738595 93.558563 
L 324.652794 92.411329 
L 323.566993 95.143662 
L 322.481192 98.811152 
L 321.395391 97.496382 
L 320.30959 107.625867 
L 319.223788 99.628428 
L 318.137987 111.514504 
L 317.052186 92.580851 
L 315.966385 106.028029 
L 314.880584 92.122211 
L 313.794783 92.623147 
L 312.708981 106.285621 
L 311.62318 98.21485 
L 310.537379 98.133033 
L 309.451578 96.158144 
L 308.365777 96.286032 
L 307.279976 98.643949 
L 306.194175 96.994533 
L 305.108373 93.592814 
L 304.022572 93.854653 
L 302.936771 95.146639 
L 301.85097 109.725082 
L 300.765169 117.937343 
L 299.679368 98.757059 
L 298.593566 94.471812 
L 297.507765 93.237816 
L 296.421964 107.284483 
L 295.336163 96.572133 
L 294.250362 87.09407 
L 293.164561 97.801106 
L 292.07876 107.35928 
L 290.992958 102.873768 
L 289.907157 93.271274 
L 288.821356 92.778117 
L 287.735555 84.290534 
L 286.649754 104.768668 
L 285.563953 105.188528 
L 284.478151 94.20057 
L 283.39235 97.456209 
L 282.306549 94.104197 
L 281.220748 103.474095 
L 280.134947 92.494319 
L 279.049146 89.502559 
L 277.963344 91.351222 
L 276.877543 97.321975 
L 275.791742 97.303576 
L 274.705941 91.961305 
L 273.62014 112.38409 
L 272.534339 90.801253 
L 271.448538 111.515073 
L 270.362736 128.656056 
L 269.276935 98.556529 
L 268.191134 82.941443 
L 267.105333 104.583632 
L 266.019532 89.917445 
L 264.933731 91.457133 
L 263.847929 92.449946 
L 262.762128 86.925257 
L 261.676327 93.572219 
L 260.590526 73.081367 
L 259.504725 72.225676 
L 258.418924 92.067745 
L 257.333123 81.690083 
L 256.247321 95.982713 
L 255.16152 81.072844 
L 254.075719 91.749086 
L 252.989918 106.025456 
L 251.904117 94.910865 
L 250.818316 85.083189 
L 249.732514 81.772098 
L 248.646713 94.977192 
L 247.560912 92.693727 
L 246.475111 83.883194 
L 245.38931 90.978565 
L 244.303509 89.475889 
L 243.217708 96.61015 
L 242.131906 98.811332 
L 241.046105 92.192184 
L 239.960304 92.95939 
L 238.874503 83.116795 
L 237.788702 96.651436 
L 236.702901 107.10746 
L 235.617099 96.477209 
L 234.531298 92.823846 
L 233.445497 101.188815 
L 232.359696 106.656747 
L 231.273895 118.090605 
L 230.188094 104.528233 
L 229.102292 96.715545 
L 228.016491 110.3582 
L 226.93069 91.792108 
L 225.844889 94.122934 
L 224.759088 101.389539 
L 223.673287 100.864426 
L 222.587486 106.055554 
L 221.501684 107.157142 
L 220.415883 111.653994 
L 219.330082 98.293923 
L 218.244281 121.487564 
L 217.15848 94.308613 
L 216.072679 91.824931 
L 214.986877 106.254763 
L 213.901076 87.751999 
L 212.815275 93.334433 
L 211.729474 118.170074 
L 210.643673 102.890343 
L 209.557872 92.223726 
L 208.472071 103.022108 
L 207.386269 90.555138 
L 206.300468 99.709083 
L 205.214667 102.98918 
L 204.128866 109.241865 
L 203.043065 100.063159 
L 201.957264 105.333844 
L 200.871462 120.468992 
L 199.785661 113.835071 
L 198.69986 112.512677 
L 197.614059 120.482219 
L 196.528258 108.647413 
L 195.442457 99.794714 
L 194.356656 110.665053 
L 193.270854 101.651756 
L 192.185053 91.702464 
L 191.099252 100.970069 
L 190.013451 100.810533 
L 188.92765 102.024002 
L 187.841849 100.614436 
L 186.756047 90.767374 
L 185.670246 110.860281 
L 184.584445 84.623383 
L 183.498644 91.280986 
L 182.412843 109.351714 
L 181.327042 94.18624 
L 180.24124 90.326684 
L 179.155439 97.320772 
L 178.069638 93.622847 
L 176.983837 110.5515 
L 175.898036 92.754819 
L 174.812235 109.67432 
L 173.726434 93.472484 
L 172.640632 93.122055 
L 171.554831 88.305342 
L 170.46903 87.431804 
L 169.383229 89.713089 
L 168.297428 89.388473 
L 167.211627 94.873956 
L 166.125825 95.312584 
L 165.040024 94.694885 
L 163.954223 94.205988 
L 162.868422 89.089426 
L 161.782621 93.160988 
L 160.69682 103.239372 
L 159.611019 89.049552 
L 158.525217 103.955098 
L 157.439416 94.90403 
L 156.353615 100.785532 
L 155.267814 101.607734 
L 154.182013 114.854236 
L 153.096212 111.836782 
L 152.01041 94.890374 
L 150.924609 98.664647 
L 149.838808 108.727147 
L 148.753007 103.835008 
L 147.667206 103.057767 
L 146.581405 93.392273 
L 145.495604 98.982428 
L 144.409802 96.456051 
L 143.324001 100.802153 
L 142.2382 116.825541 
L 141.152399 104.309168 
L 140.066598 109.535414 
L 138.980797 107.183167 
L 137.894995 110.448312 
L 136.809194 107.153071 
L 135.723393 112.867901 
L 134.637592 107.616694 
L 133.551791 102.362071 
L 132.46599 112.878689 
L 131.380189 110.517344 
L 130.294387 120.659156 
L 129.208586 130.055421 
L 128.122785 108.086948 
L 127.036984 109.348163 
L 125.951183 109.300963 
L 124.865382 127.907616 
L 123.77958 142.861799 
L 122.693779 133.537461 
L 121.607978 116.709844 
L 120.522177 122.113788 
L 119.436376 140.303144 
L 118.350575 142.320844 
L 117.264773 132.069955 
L 116.178972 137.408064 
L 115.093171 131.370154 
L 114.00737 130.205237 
L 112.921569 137.060065 
L 111.835768 140.022719 
L 110.749967 137.263429 
L 109.664165 147.924129 
L 108.578364 138.69556 
L 107.492563 135.925912 
L 106.406762 141.788332 
L 105.320961 143.742023 
L 104.23516 142.330282 
L 103.149358 139.447981 
L 102.063557 143.992984 
L 100.977756 142.453109 
L 99.891955 145.869583 
L 98.806154 152.517408 
L 97.720353 143.625956 
L 96.634552 144.593568 
L 95.54875 147.765074 
L 94.462949 144.338019 
L 93.377148 144.285397 
L 92.291347 146.642484 
L 91.205546 146.503584 
L 90.119745 135.62453 
L 89.033943 138.825586 
L 87.948142 147.083153 
L 86.862341 145.555199 
L 85.77654 144.561103 
L 84.690739 151.191014 
L 83.604938 139.20853 
L 82.519137 157.745022 
L 81.433335 162.6771 
L 80.347534 166.343412 
L 79.261733 167.207015 
L 78.175932 171.56479 
L 77.090131 162.362355 
L 76.00433 164.009396 
L 74.918528 171.948699 
L 73.832727 203.233002 
z
" style="fill:#ff0000;fill-opacity:0.5;"/>
   </g>
   <g id="PolyCollection_3">
    <path clip-path="url(#pd0c3b67091)" d="M 73.832727 269.853858 
L 73.832727 294.560623 
L 74.918528 280.093574 
L 76.00433 273.28773 
L 77.090131 277.319918 
L 78.175932 284.245728 
L 79.261733 282.338303 
L 80.347534 284.39489 
L 81.433335 285.256429 
L 82.519137 282.942421 
L 83.604938 278.108835 
L 84.690739 283.991851 
L 85.77654 282.234447 
L 86.862341 277.120216 
L 87.948142 273.705473 
L 89.033943 282.632162 
L 90.119745 278.464381 
L 91.205546 282.861524 
L 92.291347 283.016423 
L 93.377148 277.570492 
L 94.462949 275.698453 
L 95.54875 280.765821 
L 96.634552 281.813339 
L 97.720353 279.330915 
L 98.806154 286.697358 
L 99.891955 276.993805 
L 100.977756 275.025166 
L 102.063557 280.538515 
L 103.149358 274.296646 
L 104.23516 276.419598 
L 105.320961 281.264395 
L 106.406762 276.767928 
L 107.492563 271.453682 
L 108.578364 272.883165 
L 109.664165 273.635752 
L 110.749967 275.759241 
L 111.835768 280.047796 
L 112.921569 276.391954 
L 114.00737 278.298783 
L 115.093171 272.037526 
L 116.178972 285.008947 
L 117.264773 279.198294 
L 118.350575 279.337492 
L 119.436376 284.257143 
L 120.522177 268.653773 
L 121.607978 274.232726 
L 122.693779 277.420373 
L 123.77958 287.428452 
L 124.865382 282.521684 
L 125.951183 267.895655 
L 127.036984 270.433538 
L 128.122785 261.790872 
L 129.208586 266.961152 
L 130.294387 265.082598 
L 131.380189 273.177 
L 132.46599 266.044615 
L 133.551791 265.496233 
L 134.637592 271.177695 
L 135.723393 290.536474 
L 136.809194 283.175303 
L 137.894995 268.023776 
L 138.980797 268.146542 
L 140.066598 266.914215 
L 141.152399 265.644828 
L 142.2382 272.138397 
L 143.324001 274.01088 
L 144.409802 257.346879 
L 145.495604 270.393859 
L 146.581405 257.189428 
L 147.667206 275.470866 
L 148.753007 276.369812 
L 149.838808 258.542568 
L 150.924609 263.06983 
L 152.01041 262.988671 
L 153.096212 253.82734 
L 154.182013 257.799187 
L 155.267814 271.473135 
L 156.353615 254.394405 
L 157.439416 260.865817 
L 158.525217 272.149669 
L 159.611019 256.995035 
L 160.69682 265.711908 
L 161.782621 259.676246 
L 162.868422 262.21209 
L 163.954223 245.802915 
L 165.040024 258.080483 
L 166.125825 257.53696 
L 167.211627 275.50888 
L 168.297428 258.290646 
L 169.383229 274.444929 
L 170.46903 268.138546 
L 171.554831 249.679351 
L 172.640632 269.96349 
L 173.726434 260.469367 
L 174.812235 263.80475 
L 175.898036 250.23871 
L 176.983837 249.137936 
L 178.069638 262.395336 
L 179.155439 253.489363 
L 180.24124 265.570979 
L 181.327042 261.976714 
L 182.412843 266.871288 
L 183.498644 252.401512 
L 184.584445 246.227038 
L 185.670246 256.111193 
L 186.756047 243.143893 
L 187.841849 254.641192 
L 188.92765 267.411769 
L 190.013451 260.312417 
L 191.099252 251.80219 
L 192.185053 264.464186 
L 193.270854 254.488348 
L 194.356656 270.345319 
L 195.442457 237.926878 
L 196.528258 255.173092 
L 197.614059 258.743465 
L 198.69986 266.795601 
L 199.785661 267.314001 
L 200.871462 268.66047 
L 201.957264 261.578615 
L 203.043065 278.011238 
L 204.128866 265.608738 
L 205.214667 269.168739 
L 206.300468 264.970719 
L 207.386269 258.778438 
L 208.472071 252.655476 
L 209.557872 242.921672 
L 210.643673 252.139554 
L 211.729474 261.57984 
L 212.815275 260.816109 
L 213.901076 253.566294 
L 214.986877 266.202603 
L 216.072679 248.102138 
L 217.15848 238.778882 
L 218.244281 263.871846 
L 219.330082 271.991979 
L 220.415883 252.697923 
L 221.501684 257.528125 
L 222.587486 256.397173 
L 223.673287 262.236575 
L 224.759088 258.035807 
L 225.844889 241.680795 
L 226.93069 258.550903 
L 228.016491 253.516063 
L 229.102292 247.475059 
L 230.188094 237.91123 
L 231.273895 259.735474 
L 232.359696 261.766401 
L 233.445497 265.049373 
L 234.531298 234.815527 
L 235.617099 232.86752 
L 236.702901 258.091899 
L 237.788702 248.644097 
L 238.874503 246.669003 
L 239.960304 240.262946 
L 241.046105 243.908373 
L 242.131906 257.506496 
L 243.217708 238.749365 
L 244.303509 238.279691 
L 245.38931 228.305048 
L 246.475111 240.330317 
L 247.560912 236.481018 
L 248.646713 247.592838 
L 249.732514 239.720596 
L 250.818316 254.458851 
L 251.904117 245.338376 
L 252.989918 233.217408 
L 254.075719 240.693663 
L 255.16152 245.02268 
L 256.247321 251.33137 
L 257.333123 238.320818 
L 258.418924 256.241714 
L 259.504725 231.962986 
L 260.590526 243.736125 
L 261.676327 244.365388 
L 262.762128 256.52558 
L 263.847929 254.818834 
L 264.933731 247.716268 
L 266.019532 254.433737 
L 267.105333 238.488737 
L 268.191134 236.464152 
L 269.276935 255.95744 
L 270.362736 274.448824 
L 271.448538 243.037183 
L 272.534339 238.984236 
L 273.62014 254.06673 
L 274.705941 237.653557 
L 275.791742 240.979811 
L 276.877543 268.056812 
L 277.963344 265.514622 
L 279.049146 240.468978 
L 280.134947 254.207758 
L 281.220748 248.740581 
L 282.306549 264.785203 
L 283.39235 256.276236 
L 284.478151 249.287546 
L 285.563953 250.483242 
L 286.649754 246.882255 
L 287.735555 239.736703 
L 288.821356 247.451772 
L 289.907157 246.205032 
L 290.992958 265.764056 
L 292.07876 258.389251 
L 293.164561 256.549806 
L 294.250362 247.24888 
L 295.336163 253.73842 
L 296.421964 248.024851 
L 297.507765 263.788469 
L 298.593566 251.95793 
L 299.679368 256.355888 
L 300.765169 265.679316 
L 301.85097 247.67435 
L 302.936771 256.03874 
L 304.022572 261.534273 
L 305.108373 255.219911 
L 306.194175 250.916707 
L 307.279976 261.20529 
L 308.365777 240.568528 
L 309.451578 259.57591 
L 310.537379 251.479513 
L 311.62318 246.969782 
L 312.708981 239.820981 
L 313.794783 248.411539 
L 314.880584 240.804882 
L 315.966385 244.026522 
L 317.052186 231.858212 
L 318.137987 241.309403 
L 319.223788 237.30029 
L 320.30959 248.774495 
L 321.395391 236.452546 
L 322.481192 240.538721 
L 323.566993 237.755421 
L 324.652794 258.556074 
L 325.738595 251.333416 
L 326.824396 234.449061 
L 327.910198 247.370594 
L 328.995999 252.551728 
L 330.0818 252.823082 
L 331.167601 258.022195 
L 332.253402 253.908726 
L 333.339203 251.242137 
L 334.425005 258.079368 
L 335.510806 246.180687 
L 336.596607 251.368925 
L 337.682408 242.388617 
L 338.768209 250.049087 
L 339.85401 257.700551 
L 340.939811 264.914349 
L 342.025613 256.905353 
L 343.111414 254.69327 
L 344.197215 269.485193 
L 345.283016 247.307562 
L 346.368817 233.78277 
L 347.454618 247.521304 
L 348.54042 249.488767 
L 349.626221 252.679505 
L 350.712022 249.775668 
L 351.797823 252.493769 
L 352.883624 250.02654 
L 353.969425 246.542413 
L 355.055227 241.02412 
L 356.141028 251.370217 
L 357.226829 265.176358 
L 358.31263 252.13171 
L 359.398431 246.20157 
L 360.484232 214.008268 
L 361.570033 237.284779 
L 362.655835 251.169072 
L 363.741636 244.236858 
L 364.827437 242.030301 
L 365.913238 246.580323 
L 366.999039 230.665582 
L 368.08484 240.730345 
L 369.170642 244.176308 
L 370.256443 246.974766 
L 371.342244 240.407419 
L 372.428045 263.616649 
L 373.513846 259.563138 
L 374.599647 255.297272 
L 375.685448 240.367192 
L 376.77125 240.73943 
L 377.857051 245.694074 
L 378.942852 230.175067 
L 380.028653 244.036727 
L 381.114454 251.505972 
L 382.200255 258.820803 
L 383.286057 275.049302 
L 384.371858 238.813206 
L 385.457659 242.634062 
L 386.54346 252.365802 
L 387.629261 240.08638 
L 388.715062 234.524444 
L 389.800863 248.261625 
L 390.886665 249.316933 
L 391.972466 246.86465 
L 393.058267 258.130113 
L 394.144068 251.258031 
L 395.229869 249.300751 
L 396.31567 263.247072 
L 397.401472 234.869401 
L 398.487273 251.407714 
L 398.487273 160.390212 
L 398.487273 160.390212 
L 397.401472 153.702625 
L 396.31567 171.952898 
L 395.229869 164.661235 
L 394.144068 163.282716 
L 393.058267 152.233494 
L 391.972466 162.215619 
L 390.886665 147.559045 
L 389.800863 147.129707 
L 388.715062 138.672692 
L 387.629261 139.049339 
L 386.54346 165.370707 
L 385.457659 145.03208 
L 384.371858 162.868998 
L 383.286057 163.479156 
L 382.200255 154.134644 
L 381.114454 162.3524 
L 380.028653 154.877493 
L 378.942852 137.830173 
L 377.857051 159.435528 
L 376.77125 146.327229 
L 375.685448 142.694031 
L 374.599647 159.06733 
L 373.513846 171.208058 
L 372.428045 148.296311 
L 371.342244 147.596702 
L 370.256443 151.536838 
L 369.170642 141.032541 
L 368.08484 127.207621 
L 366.999039 136.954503 
L 365.913238 147.653489 
L 364.827437 132.394197 
L 363.741636 144.159025 
L 362.655835 162.012846 
L 361.570033 142.480027 
L 360.484232 131.785829 
L 359.398431 141.363917 
L 358.31263 115.655276 
L 357.226829 156.410165 
L 356.141028 164.554521 
L 355.055227 141.684814 
L 353.969425 147.615908 
L 352.883624 165.898199 
L 351.797823 167.935234 
L 350.712022 156.284983 
L 349.626221 148.927209 
L 348.54042 162.258833 
L 347.454618 156.048162 
L 346.368817 146.258834 
L 345.283016 138.84877 
L 344.197215 177.692597 
L 343.111414 161.256631 
L 342.025613 165.285094 
L 340.939811 184.477828 
L 339.85401 151.505536 
L 338.768209 167.487142 
L 337.682408 155.569391 
L 336.596607 159.751067 
L 335.510806 161.584173 
L 334.425005 178.40394 
L 333.339203 166.746007 
L 332.253402 161.487579 
L 331.167601 148.743034 
L 330.0818 162.321588 
L 328.995999 176.634169 
L 327.910198 148.775643 
L 326.824396 147.655949 
L 325.738595 151.204347 
L 324.652794 147.705885 
L 323.566993 147.293718 
L 322.481192 149.467625 
L 321.395391 148.571429 
L 320.30959 156.455761 
L 319.223788 155.398549 
L 318.137987 152.748264 
L 317.052186 131.57549 
L 315.966385 151.666772 
L 314.880584 147.364529 
L 313.794783 143.331088 
L 312.708981 152.75204 
L 311.62318 145.175461 
L 310.537379 146.126206 
L 309.451578 147.138992 
L 308.365777 153.363322 
L 307.279976 155.952459 
L 306.194175 154.942636 
L 305.108373 149.884528 
L 304.022572 153.0568 
L 302.936771 145.618301 
L 301.85097 154.98923 
L 300.765169 176.591594 
L 299.679368 152.900526 
L 298.593566 140.313129 
L 297.507765 154.073858 
L 296.421964 153.732843 
L 295.336163 144.924166 
L 294.250362 149.350299 
L 293.164561 159.978856 
L 292.07876 172.004492 
L 290.992958 159.446009 
L 289.907157 138.844106 
L 288.821356 140.315023 
L 287.735555 134.466972 
L 286.649754 151.402879 
L 285.563953 165.693131 
L 284.478151 161.403186 
L 283.39235 152.325928 
L 282.306549 138.255829 
L 281.220748 157.546542 
L 280.134947 159.276122 
L 279.049146 140.377858 
L 277.963344 150.988876 
L 276.877543 160.525161 
L 275.791742 150.687325 
L 274.705941 142.388048 
L 273.62014 171.82275 
L 272.534339 139.723704 
L 271.448538 168.408454 
L 270.362736 180.026377 
L 269.276935 148.21595 
L 268.191134 135.147684 
L 267.105333 159.771233 
L 266.019532 144.656628 
L 264.933731 148.983565 
L 263.847929 144.573492 
L 262.762128 148.780167 
L 261.676327 149.189009 
L 260.590526 119.99954 
L 259.504725 104.268985 
L 258.418924 148.409782 
L 257.333123 132.913565 
L 256.247321 150.099199 
L 255.16152 132.125124 
L 254.075719 140.631279 
L 252.989918 150.17094 
L 251.904117 157.979454 
L 250.818316 141.712549 
L 249.732514 130.054305 
L 248.646713 142.539326 
L 247.560912 146.127262 
L 246.475111 123.178876 
L 245.38931 132.838777 
L 244.303509 144.806695 
L 243.217708 150.401423 
L 242.131906 153.913978 
L 241.046105 149.746678 
L 239.960304 139.275389 
L 238.874503 146.608596 
L 237.788702 145.690368 
L 236.702901 171.345633 
L 235.617099 129.333172 
L 234.531298 132.241717 
L 233.445497 161.418867 
L 232.359696 159.492996 
L 231.273895 174.206322 
L 230.188094 144.042799 
L 229.102292 152.496028 
L 228.016491 155.43839 
L 226.93069 146.930988 
L 225.844889 147.872608 
L 224.759088 156.58043 
L 223.673287 159.828054 
L 222.587486 165.365495 
L 221.501684 164.184215 
L 220.415883 154.8977 
L 219.330082 150.626247 
L 218.244281 174.574214 
L 217.15848 150.749358 
L 216.072679 152.44771 
L 214.986877 149.722135 
L 213.901076 137.87437 
L 212.815275 149.547499 
L 211.729474 180.540089 
L 210.643673 153.845607 
L 209.557872 158.609551 
L 208.472071 161.331673 
L 207.386269 149.093984 
L 206.300468 168.643951 
L 205.214667 163.565209 
L 204.128866 162.746764 
L 203.043065 166.62504 
L 201.957264 163.857921 
L 200.871462 183.449364 
L 199.785661 179.033395 
L 198.69986 180.38219 
L 197.614059 188.283344 
L 196.528258 168.200039 
L 195.442457 149.739263 
L 194.356656 176.429855 
L 193.270854 157.812848 
L 192.185053 152.265783 
L 191.099252 166.236281 
L 190.013451 166.080332 
L 188.92765 172.619591 
L 187.841849 164.177347 
L 186.756047 144.773883 
L 185.670246 161.449172 
L 184.584445 134.539685 
L 183.498644 159.648049 
L 182.412843 170.538961 
L 181.327042 155.86045 
L 180.24124 152.629328 
L 179.155439 165.153032 
L 178.069638 158.411119 
L 176.983837 154.783818 
L 175.898036 143.289497 
L 174.812235 171.541266 
L 173.726434 143.427224 
L 172.640632 154.479859 
L 171.554831 143.566409 
L 170.46903 157.092736 
L 169.383229 145.707275 
L 168.297428 148.709442 
L 167.211627 163.792739 
L 166.125825 172.375596 
L 165.040024 157.668111 
L 163.954223 152.75799 
L 162.868422 158.468547 
L 161.782621 162.495945 
L 160.69682 174.420106 
L 159.611019 160.338858 
L 158.525217 182.325533 
L 157.439416 172.497218 
L 156.353615 168.802581 
L 155.267814 175.704655 
L 154.182013 168.492908 
L 153.096212 160.512098 
L 152.01041 165.064868 
L 150.924609 175.451721 
L 149.838808 167.246257 
L 148.753007 173.701779 
L 147.667206 164.132714 
L 146.581405 159.288907 
L 145.495604 167.020498 
L 144.409802 166.177232 
L 143.324001 177.444704 
L 142.2382 186.715252 
L 141.152399 172.42378 
L 140.066598 181.219788 
L 138.980797 181.774069 
L 137.894995 183.733769 
L 136.809194 180.258101 
L 135.723393 174.708701 
L 134.637592 168.903992 
L 133.551791 176.850168 
L 132.46599 184.756718 
L 131.380189 188.369142 
L 130.294387 182.472645 
L 129.208586 196.17029 
L 128.122785 180.85749 
L 127.036984 173.246528 
L 125.951183 179.659588 
L 124.865382 206.477823 
L 123.77958 206.855388 
L 122.693779 199.953603 
L 121.607978 204.021972 
L 120.522177 196.239113 
L 119.436376 219.010062 
L 118.350575 226.169263 
L 117.264773 215.186199 
L 116.178972 224.398149 
L 115.093171 215.427009 
L 114.00737 226.528559 
L 112.921569 228.988984 
L 111.835768 230.139368 
L 110.749967 225.570376 
L 109.664165 228.826221 
L 108.578364 225.552651 
L 107.492563 226.680171 
L 106.406762 231.682955 
L 105.320961 232.873437 
L 104.23516 232.534555 
L 103.149358 231.033965 
L 102.063557 235.159453 
L 100.977756 231.337148 
L 99.891955 239.333251 
L 98.806154 242.186278 
L 97.720353 238.958892 
L 96.634552 234.337572 
L 95.54875 236.743918 
L 94.462949 236.375972 
L 93.377148 237.422898 
L 92.291347 237.613589 
L 91.205546 238.926009 
L 90.119745 232.553178 
L 89.033943 234.500125 
L 87.948142 239.929089 
L 86.862341 240.515341 
L 85.77654 238.923998 
L 84.690739 244.916948 
L 83.604938 238.318875 
L 82.519137 249.615084 
L 81.433335 253.818419 
L 80.347534 257.347289 
L 79.261733 257.919229 
L 78.175932 260.390251 
L 77.090131 257.980407 
L 76.00433 256.552118 
L 74.918528 258.80513 
L 73.832727 269.853858 
z
" style="fill:#008000;fill-opacity:0.5;"/>
   </g>
   <g id="matplotlib.axis_1">
    <g id="xtick_1">
     <g id="line2d_1">
      <path clip-path="url(#pd0c3b67091)" d="M 73.832727 307.584 
L 73.832727 41.472 
" style="fill:none;stroke:#b0b0b0;stroke-linecap:square;stroke-width:0.8;"/>
     </g>
     <g id="line2d_2">
      <defs>
       <path d="M 0 0 
L 0 3.5 
" id="mfb5d8bb851" style="stroke:#000000;stroke-width:0.8;"/>
      </defs>
      <g>
       <use style="stroke:#000000;stroke-width:0.8;" x="73.832727" xlink:href="#mfb5d8bb851" y="307.584"/>
      </g>
     </g>
     <g id="text_1">
      <!-- 0 -->
      <defs>
       <path d="M 31.78125 66.40625 
Q 24.171875 66.40625 20.328125 58.90625 
Q 16.5 51.421875 16.5 36.375 
Q 16.5 21.390625 20.328125 13.890625 
Q 24.171875 6.390625 31.78125 6.390625 
Q 39.453125 6.390625 43.28125 13.890625 
Q 47.125 21.390625 47.125 36.375 
Q 47.125 51.421875 43.28125 58.90625 
Q 39.453125 66.40625 31.78125 66.40625 
z
M 31.78125 74.21875 
Q 44.046875 74.21875 50.515625 64.515625 
Q 56.984375 54.828125 56.984375 36.375 
Q 56.984375 17.96875 50.515625 8.265625 
Q 44.046875 -1.421875 31.78125 -1.421875 
Q 19.53125 -1.421875 13.0625 8.265625 
Q 6.59375 17.96875 6.59375 36.375 
Q 6.59375 54.828125 13.0625 64.515625 
Q 19.53125 74.21875 31.78125 74.21875 
z
" id="DejaVuSans-48"/>
      </defs>
      <g transform="translate(70.651477 322.182437)scale(0.1 -0.1)">
       <use xlink:href="#DejaVuSans-48"/>
      </g>
     </g>
    </g>
    <g id="xtick_2">
     <g id="line2d_3">
      <path clip-path="url(#pd0c3b67091)" d="M 128.122785 307.584 
L 128.122785 41.472 
" style="fill:none;stroke:#b0b0b0;stroke-linecap:square;stroke-width:0.8;"/>
     </g>
     <g id="line2d_4">
      <g>
       <use style="stroke:#000000;stroke-width:0.8;" x="128.122785" xlink:href="#mfb5d8bb851" y="307.584"/>
      </g>
     </g>
     <g id="text_2">
      <!-- 50 -->
      <defs>
       <path d="M 10.796875 72.90625 
L 49.515625 72.90625 
L 49.515625 64.59375 
L 19.828125 64.59375 
L 19.828125 46.734375 
Q 21.96875 47.46875 24.109375 47.828125 
Q 26.265625 48.1875 28.421875 48.1875 
Q 40.625 48.1875 47.75 41.5 
Q 54.890625 34.8125 54.890625 23.390625 
Q 54.890625 11.625 47.5625 5.09375 
Q 40.234375 -1.421875 26.90625 -1.421875 
Q 22.3125 -1.421875 17.546875 -0.640625 
Q 12.796875 0.140625 7.71875 1.703125 
L 7.71875 11.625 
Q 12.109375 9.234375 16.796875 8.0625 
Q 21.484375 6.890625 26.703125 6.890625 
Q 35.15625 6.890625 40.078125 11.328125 
Q 45.015625 15.765625 45.015625 23.390625 
Q 45.015625 31 40.078125 35.4375 
Q 35.15625 39.890625 26.703125 39.890625 
Q 22.75 39.890625 18.8125 39.015625 
Q 14.890625 38.140625 10.796875 36.28125 
z
" id="DejaVuSans-53"/>
      </defs>
      <g transform="translate(121.760285 322.182437)scale(0.1 -0.1)">
       <use xlink:href="#DejaVuSans-53"/>
       <use x="63.623047" xlink:href="#DejaVuSans-48"/>
      </g>
     </g>
    </g>
    <g id="xtick_3">
     <g id="line2d_5">
      <path clip-path="url(#pd0c3b67091)" d="M 182.412843 307.584 
L 182.412843 41.472 
" style="fill:none;stroke:#b0b0b0;stroke-linecap:square;stroke-width:0.8;"/>
     </g>
     <g id="line2d_6">
      <g>
       <use style="stroke:#000000;stroke-width:0.8;" x="182.412843" xlink:href="#mfb5d8bb851" y="307.584"/>
      </g>
     </g>
     <g id="text_3">
      <!-- 100 -->
      <defs>
       <path d="M 12.40625 8.296875 
L 28.515625 8.296875 
L 28.515625 63.921875 
L 10.984375 60.40625 
L 10.984375 69.390625 
L 28.421875 72.90625 
L 38.28125 72.90625 
L 38.28125 8.296875 
L 54.390625 8.296875 
L 54.390625 0 
L 12.40625 0 
z
" id="DejaVuSans-49"/>
      </defs>
      <g transform="translate(172.869093 322.182437)scale(0.1 -0.1)">
       <use xlink:href="#DejaVuSans-49"/>
       <use x="63.623047" xlink:href="#DejaVuSans-48"/>
       <use x="127.246094" xlink:href="#DejaVuSans-48"/>
      </g>
     </g>
    </g>
    <g id="xtick_4">
     <g id="line2d_7">
      <path clip-path="url(#pd0c3b67091)" d="M 236.702901 307.584 
L 236.702901 41.472 
" style="fill:none;stroke:#b0b0b0;stroke-linecap:square;stroke-width:0.8;"/>
     </g>
     <g id="line2d_8">
      <g>
       <use style="stroke:#000000;stroke-width:0.8;" x="236.702901" xlink:href="#mfb5d8bb851" y="307.584"/>
      </g>
     </g>
     <g id="text_4">
      <!-- 150 -->
      <g transform="translate(227.159151 322.182437)scale(0.1 -0.1)">
       <use xlink:href="#DejaVuSans-49"/>
       <use x="63.623047" xlink:href="#DejaVuSans-53"/>
       <use x="127.246094" xlink:href="#DejaVuSans-48"/>
      </g>
     </g>
    </g>
    <g id="xtick_5">
     <g id="line2d_9">
      <path clip-path="url(#pd0c3b67091)" d="M 290.992958 307.584 
L 290.992958 41.472 
" style="fill:none;stroke:#b0b0b0;stroke-linecap:square;stroke-width:0.8;"/>
     </g>
     <g id="line2d_10">
      <g>
       <use style="stroke:#000000;stroke-width:0.8;" x="290.992958" xlink:href="#mfb5d8bb851" y="307.584"/>
      </g>
     </g>
     <g id="text_5">
      <!-- 200 -->
      <defs>
       <path d="M 19.1875 8.296875 
L 53.609375 8.296875 
L 53.609375 0 
L 7.328125 0 
L 7.328125 8.296875 
Q 12.9375 14.109375 22.625 23.890625 
Q 32.328125 33.6875 34.8125 36.53125 
Q 39.546875 41.84375 41.421875 45.53125 
Q 43.3125 49.21875 43.3125 52.78125 
Q 43.3125 58.59375 39.234375 62.25 
Q 35.15625 65.921875 28.609375 65.921875 
Q 23.96875 65.921875 18.8125 64.3125 
Q 13.671875 62.703125 7.8125 59.421875 
L 7.8125 69.390625 
Q 13.765625 71.78125 18.9375 73 
Q 24.125 74.21875 28.421875 74.21875 
Q 39.75 74.21875 46.484375 68.546875 
Q 53.21875 62.890625 53.21875 53.421875 
Q 53.21875 48.921875 51.53125 44.890625 
Q 49.859375 40.875 45.40625 35.40625 
Q 44.1875 33.984375 37.640625 27.21875 
Q 31.109375 20.453125 19.1875 8.296875 
z
" id="DejaVuSans-50"/>
      </defs>
      <g transform="translate(281.449208 322.182437)scale(0.1 -0.1)">
       <use xlink:href="#DejaVuSans-50"/>
       <use x="63.623047" xlink:href="#DejaVuSans-48"/>
       <use x="127.246094" xlink:href="#DejaVuSans-48"/>
      </g>
     </g>
    </g>
    <g id="xtick_6">
     <g id="line2d_11">
      <path clip-path="url(#pd0c3b67091)" d="M 345.283016 307.584 
L 345.283016 41.472 
" style="fill:none;stroke:#b0b0b0;stroke-linecap:square;stroke-width:0.8;"/>
     </g>
     <g id="line2d_12">
      <g>
       <use style="stroke:#000000;stroke-width:0.8;" x="345.283016" xlink:href="#mfb5d8bb851" y="307.584"/>
      </g>
     </g>
     <g id="text_6">
      <!-- 250 -->
      <g transform="translate(335.739266 322.182437)scale(0.1 -0.1)">
       <use xlink:href="#DejaVuSans-50"/>
       <use x="63.623047" xlink:href="#DejaVuSans-53"/>
       <use x="127.246094" xlink:href="#DejaVuSans-48"/>
      </g>
     </g>
    </g>
    <g id="xtick_7">
     <g id="line2d_13">
      <path clip-path="url(#pd0c3b67091)" d="M 399.573074 307.584 
L 399.573074 41.472 
" style="fill:none;stroke:#b0b0b0;stroke-linecap:square;stroke-width:0.8;"/>
     </g>
     <g id="line2d_14">
      <g>
       <use style="stroke:#000000;stroke-width:0.8;" x="399.573074" xlink:href="#mfb5d8bb851" y="307.584"/>
      </g>
     </g>
     <g id="text_7">
      <!-- 300 -->
      <defs>
       <path d="M 40.578125 39.3125 
Q 47.65625 37.796875 51.625 33 
Q 55.609375 28.21875 55.609375 21.1875 
Q 55.609375 10.40625 48.1875 4.484375 
Q 40.765625 -1.421875 27.09375 -1.421875 
Q 22.515625 -1.421875 17.65625 -0.515625 
Q 12.796875 0.390625 7.625 2.203125 
L 7.625 11.71875 
Q 11.71875 9.328125 16.59375 8.109375 
Q 21.484375 6.890625 26.8125 6.890625 
Q 36.078125 6.890625 40.9375 10.546875 
Q 45.796875 14.203125 45.796875 21.1875 
Q 45.796875 27.640625 41.28125 31.265625 
Q 36.765625 34.90625 28.71875 34.90625 
L 20.21875 34.90625 
L 20.21875 43.015625 
L 29.109375 43.015625 
Q 36.375 43.015625 40.234375 45.921875 
Q 44.09375 48.828125 44.09375 54.296875 
Q 44.09375 59.90625 40.109375 62.90625 
Q 36.140625 65.921875 28.71875 65.921875 
Q 24.65625 65.921875 20.015625 65.03125 
Q 15.375 64.15625 9.8125 62.3125 
L 9.8125 71.09375 
Q 15.4375 72.65625 20.34375 73.4375 
Q 25.25 74.21875 29.59375 74.21875 
Q 40.828125 74.21875 47.359375 69.109375 
Q 53.90625 64.015625 53.90625 55.328125 
Q 53.90625 49.265625 50.4375 45.09375 
Q 46.96875 40.921875 40.578125 39.3125 
z
" id="DejaVuSans-51"/>
      </defs>
      <g transform="translate(390.029324 322.182437)scale(0.1 -0.1)">
       <use xlink:href="#DejaVuSans-51"/>
       <use x="63.623047" xlink:href="#DejaVuSans-48"/>
       <use x="127.246094" xlink:href="#DejaVuSans-48"/>
      </g>
     </g>
    </g>
    <g id="text_8">
     <!-- Generations -->
     <defs>
      <path d="M 59.515625 10.40625 
L 59.515625 29.984375 
L 43.40625 29.984375 
L 43.40625 38.09375 
L 69.28125 38.09375 
L 69.28125 6.78125 
Q 63.578125 2.734375 56.6875 0.65625 
Q 49.8125 -1.421875 42 -1.421875 
Q 24.90625 -1.421875 15.25 8.5625 
Q 5.609375 18.5625 5.609375 36.375 
Q 5.609375 54.25 15.25 64.234375 
Q 24.90625 74.21875 42 74.21875 
Q 49.125 74.21875 55.546875 72.453125 
Q 61.96875 70.703125 67.390625 67.28125 
L 67.390625 56.78125 
Q 61.921875 61.421875 55.765625 63.765625 
Q 49.609375 66.109375 42.828125 66.109375 
Q 29.4375 66.109375 22.71875 58.640625 
Q 16.015625 51.171875 16.015625 36.375 
Q 16.015625 21.625 22.71875 14.15625 
Q 29.4375 6.6875 42.828125 6.6875 
Q 48.046875 6.6875 52.140625 7.59375 
Q 56.25 8.5 59.515625 10.40625 
z
" id="DejaVuSans-71"/>
      <path d="M 56.203125 29.59375 
L 56.203125 25.203125 
L 14.890625 25.203125 
Q 15.484375 15.921875 20.484375 11.0625 
Q 25.484375 6.203125 34.421875 6.203125 
Q 39.59375 6.203125 44.453125 7.46875 
Q 49.3125 8.734375 54.109375 11.28125 
L 54.109375 2.78125 
Q 49.265625 0.734375 44.1875 -0.34375 
Q 39.109375 -1.421875 33.890625 -1.421875 
Q 20.796875 -1.421875 13.15625 6.1875 
Q 5.515625 13.8125 5.515625 26.8125 
Q 5.515625 40.234375 12.765625 48.109375 
Q 20.015625 56 32.328125 56 
Q 43.359375 56 49.78125 48.890625 
Q 56.203125 41.796875 56.203125 29.59375 
z
M 47.21875 32.234375 
Q 47.125 39.59375 43.09375 43.984375 
Q 39.0625 48.390625 32.421875 48.390625 
Q 24.90625 48.390625 20.390625 44.140625 
Q 15.875 39.890625 15.1875 32.171875 
z
" id="DejaVuSans-101"/>
      <path d="M 54.890625 33.015625 
L 54.890625 0 
L 45.90625 0 
L 45.90625 32.71875 
Q 45.90625 40.484375 42.875 44.328125 
Q 39.84375 48.1875 33.796875 48.1875 
Q 26.515625 48.1875 22.3125 43.546875 
Q 18.109375 38.921875 18.109375 30.90625 
L 18.109375 0 
L 9.078125 0 
L 9.078125 54.6875 
L 18.109375 54.6875 
L 18.109375 46.1875 
Q 21.34375 51.125 25.703125 53.5625 
Q 30.078125 56 35.796875 56 
Q 45.21875 56 50.046875 50.171875 
Q 54.890625 44.34375 54.890625 33.015625 
z
" id="DejaVuSans-110"/>
      <path d="M 41.109375 46.296875 
Q 39.59375 47.171875 37.8125 47.578125 
Q 36.03125 48 33.890625 48 
Q 26.265625 48 22.1875 43.046875 
Q 18.109375 38.09375 18.109375 28.8125 
L 18.109375 0 
L 9.078125 0 
L 9.078125 54.6875 
L 18.109375 54.6875 
L 18.109375 46.1875 
Q 20.953125 51.171875 25.484375 53.578125 
Q 30.03125 56 36.53125 56 
Q 37.453125 56 38.578125 55.875 
Q 39.703125 55.765625 41.0625 55.515625 
z
" id="DejaVuSans-114"/>
      <path d="M 34.28125 27.484375 
Q 23.390625 27.484375 19.1875 25 
Q 14.984375 22.515625 14.984375 16.5 
Q 14.984375 11.71875 18.140625 8.90625 
Q 21.296875 6.109375 26.703125 6.109375 
Q 34.1875 6.109375 38.703125 11.40625 
Q 43.21875 16.703125 43.21875 25.484375 
L 43.21875 27.484375 
z
M 52.203125 31.203125 
L 52.203125 0 
L 43.21875 0 
L 43.21875 8.296875 
Q 40.140625 3.328125 35.546875 0.953125 
Q 30.953125 -1.421875 24.3125 -1.421875 
Q 15.921875 -1.421875 10.953125 3.296875 
Q 6 8.015625 6 15.921875 
Q 6 25.140625 12.171875 29.828125 
Q 18.359375 34.515625 30.609375 34.515625 
L 43.21875 34.515625 
L 43.21875 35.40625 
Q 43.21875 41.609375 39.140625 45 
Q 35.0625 48.390625 27.6875 48.390625 
Q 23 48.390625 18.546875 47.265625 
Q 14.109375 46.140625 10.015625 43.890625 
L 10.015625 52.203125 
Q 14.9375 54.109375 19.578125 55.046875 
Q 24.21875 56 28.609375 56 
Q 40.484375 56 46.34375 49.84375 
Q 52.203125 43.703125 52.203125 31.203125 
z
" id="DejaVuSans-97"/>
      <path d="M 18.3125 70.21875 
L 18.3125 54.6875 
L 36.8125 54.6875 
L 36.8125 47.703125 
L 18.3125 47.703125 
L 18.3125 18.015625 
Q 18.3125 11.328125 20.140625 9.421875 
Q 21.96875 7.515625 27.59375 7.515625 
L 36.8125 7.515625 
L 36.8125 0 
L 27.59375 0 
Q 17.1875 0 13.234375 3.875 
Q 9.28125 7.765625 9.28125 18.015625 
L 9.28125 47.703125 
L 2.6875 47.703125 
L 2.6875 54.6875 
L 9.28125 54.6875 
L 9.28125 70.21875 
z
" id="DejaVuSans-116"/>
      <path d="M 9.421875 54.6875 
L 18.40625 54.6875 
L 18.40625 0 
L 9.421875 0 
z
M 9.421875 75.984375 
L 18.40625 75.984375 
L 18.40625 64.59375 
L 9.421875 64.59375 
z
" id="DejaVuSans-105"/>
      <path d="M 30.609375 48.390625 
Q 23.390625 48.390625 19.1875 42.75 
Q 14.984375 37.109375 14.984375 27.296875 
Q 14.984375 17.484375 19.15625 11.84375 
Q 23.34375 6.203125 30.609375 6.203125 
Q 37.796875 6.203125 41.984375 11.859375 
Q 46.1875 17.53125 46.1875 27.296875 
Q 46.1875 37.015625 41.984375 42.703125 
Q 37.796875 48.390625 30.609375 48.390625 
z
M 30.609375 56 
Q 42.328125 56 49.015625 48.375 
Q 55.71875 40.765625 55.71875 27.296875 
Q 55.71875 13.875 49.015625 6.21875 
Q 42.328125 -1.421875 30.609375 -1.421875 
Q 18.84375 -1.421875 12.171875 6.21875 
Q 5.515625 13.875 5.515625 27.296875 
Q 5.515625 40.765625 12.171875 48.375 
Q 18.84375 56 30.609375 56 
z
" id="DejaVuSans-111"/>
      <path d="M 44.28125 53.078125 
L 44.28125 44.578125 
Q 40.484375 46.53125 36.375 47.5 
Q 32.28125 48.484375 27.875 48.484375 
Q 21.1875 48.484375 17.84375 46.4375 
Q 14.5 44.390625 14.5 40.28125 
Q 14.5 37.15625 16.890625 35.375 
Q 19.28125 33.59375 26.515625 31.984375 
L 29.59375 31.296875 
Q 39.15625 29.25 43.1875 25.515625 
Q 47.21875 21.78125 47.21875 15.09375 
Q 47.21875 7.46875 41.1875 3.015625 
Q 35.15625 -1.421875 24.609375 -1.421875 
Q 20.21875 -1.421875 15.453125 -0.5625 
Q 10.6875 0.296875 5.421875 2 
L 5.421875 11.28125 
Q 10.40625 8.6875 15.234375 7.390625 
Q 20.0625 6.109375 24.8125 6.109375 
Q 31.15625 6.109375 34.5625 8.28125 
Q 37.984375 10.453125 37.984375 14.40625 
Q 37.984375 18.0625 35.515625 20.015625 
Q 33.0625 21.96875 24.703125 23.78125 
L 21.578125 24.515625 
Q 13.234375 26.265625 9.515625 29.90625 
Q 5.8125 33.546875 5.8125 39.890625 
Q 5.8125 47.609375 11.28125 51.796875 
Q 16.75 56 26.8125 56 
Q 31.78125 56 36.171875 55.265625 
Q 40.578125 54.546875 44.28125 53.078125 
z
" id="DejaVuSans-115"/>
     </defs>
     <g transform="translate(205.662344 335.860562)scale(0.1 -0.1)">
      <use xlink:href="#DejaVuSans-71"/>
      <use x="77.490234" xlink:href="#DejaVuSans-101"/>
      <use x="139.013672" xlink:href="#DejaVuSans-110"/>
      <use x="202.392578" xlink:href="#DejaVuSans-101"/>
      <use x="263.916016" xlink:href="#DejaVuSans-114"/>
      <use x="305.029297" xlink:href="#DejaVuSans-97"/>
      <use x="366.308594" xlink:href="#DejaVuSans-116"/>
      <use x="405.517578" xlink:href="#DejaVuSans-105"/>
      <use x="433.300781" xlink:href="#DejaVuSans-111"/>
      <use x="494.482422" xlink:href="#DejaVuSans-110"/>
      <use x="557.861328" xlink:href="#DejaVuSans-115"/>
     </g>
    </g>
   </g>
   <g id="matplotlib.axis_2">
    <g id="ytick_1">
     <g id="line2d_15">
      <path clip-path="url(#pd0c3b67091)" d="M 57.6 293.040122 
L 414.72 293.040122 
" style="fill:none;stroke:#b0b0b0;stroke-linecap:square;stroke-width:0.8;"/>
     </g>
     <g id="line2d_16">
      <defs>
       <path d="M 0 0 
L -3.5 0 
" id="m766981f409" style="stroke:#000000;stroke-width:0.8;"/>
      </defs>
      <g>
       <use style="stroke:#000000;stroke-width:0.8;" x="57.6" xlink:href="#m766981f409" y="293.040122"/>
      </g>
     </g>
     <g id="text_9">
      <!-- 0.0 -->
      <defs>
       <path d="M 10.6875 12.40625 
L 21 12.40625 
L 21 0 
L 10.6875 0 
z
" id="DejaVuSans-46"/>
      </defs>
      <g transform="translate(34.696875 296.839341)scale(0.1 -0.1)">
       <use xlink:href="#DejaVuSans-48"/>
       <use x="63.623047" xlink:href="#DejaVuSans-46"/>
       <use x="95.410156" xlink:href="#DejaVuSans-48"/>
      </g>
     </g>
    </g>
    <g id="ytick_2">
     <g id="line2d_17">
      <path clip-path="url(#pd0c3b67091)" d="M 57.6 249.004018 
L 414.72 249.004018 
" style="fill:none;stroke:#b0b0b0;stroke-linecap:square;stroke-width:0.8;"/>
     </g>
     <g id="line2d_18">
      <g>
       <use style="stroke:#000000;stroke-width:0.8;" x="57.6" xlink:href="#m766981f409" y="249.004018"/>
      </g>
     </g>
     <g id="text_10">
      <!-- 0.2 -->
      <g transform="translate(34.696875 252.803237)scale(0.1 -0.1)">
       <use xlink:href="#DejaVuSans-48"/>
       <use x="63.623047" xlink:href="#DejaVuSans-46"/>
       <use x="95.410156" xlink:href="#DejaVuSans-50"/>
      </g>
     </g>
    </g>
    <g id="ytick_3">
     <g id="line2d_19">
      <path clip-path="url(#pd0c3b67091)" d="M 57.6 204.967914 
L 414.72 204.967914 
" style="fill:none;stroke:#b0b0b0;stroke-linecap:square;stroke-width:0.8;"/>
     </g>
     <g id="line2d_20">
      <g>
       <use style="stroke:#000000;stroke-width:0.8;" x="57.6" xlink:href="#m766981f409" y="204.967914"/>
      </g>
     </g>
     <g id="text_11">
      <!-- 0.4 -->
      <defs>
       <path d="M 37.796875 64.3125 
L 12.890625 25.390625 
L 37.796875 25.390625 
z
M 35.203125 72.90625 
L 47.609375 72.90625 
L 47.609375 25.390625 
L 58.015625 25.390625 
L 58.015625 17.1875 
L 47.609375 17.1875 
L 47.609375 0 
L 37.796875 0 
L 37.796875 17.1875 
L 4.890625 17.1875 
L 4.890625 26.703125 
z
" id="DejaVuSans-52"/>
      </defs>
      <g transform="translate(34.696875 208.767133)scale(0.1 -0.1)">
       <use xlink:href="#DejaVuSans-48"/>
       <use x="63.623047" xlink:href="#DejaVuSans-46"/>
       <use x="95.410156" xlink:href="#DejaVuSans-52"/>
      </g>
     </g>
    </g>
    <g id="ytick_4">
     <g id="line2d_21">
      <path clip-path="url(#pd0c3b67091)" d="M 57.6 160.93181 
L 414.72 160.93181 
" style="fill:none;stroke:#b0b0b0;stroke-linecap:square;stroke-width:0.8;"/>
     </g>
     <g id="line2d_22">
      <g>
       <use style="stroke:#000000;stroke-width:0.8;" x="57.6" xlink:href="#m766981f409" y="160.93181"/>
      </g>
     </g>
     <g id="text_12">
      <!-- 0.6 -->
      <defs>
       <path d="M 33.015625 40.375 
Q 26.375 40.375 22.484375 35.828125 
Q 18.609375 31.296875 18.609375 23.390625 
Q 18.609375 15.53125 22.484375 10.953125 
Q 26.375 6.390625 33.015625 6.390625 
Q 39.65625 6.390625 43.53125 10.953125 
Q 47.40625 15.53125 47.40625 23.390625 
Q 47.40625 31.296875 43.53125 35.828125 
Q 39.65625 40.375 33.015625 40.375 
z
M 52.59375 71.296875 
L 52.59375 62.3125 
Q 48.875 64.0625 45.09375 64.984375 
Q 41.3125 65.921875 37.59375 65.921875 
Q 27.828125 65.921875 22.671875 59.328125 
Q 17.53125 52.734375 16.796875 39.40625 
Q 19.671875 43.65625 24.015625 45.921875 
Q 28.375 48.1875 33.59375 48.1875 
Q 44.578125 48.1875 50.953125 41.515625 
Q 57.328125 34.859375 57.328125 23.390625 
Q 57.328125 12.15625 50.6875 5.359375 
Q 44.046875 -1.421875 33.015625 -1.421875 
Q 20.359375 -1.421875 13.671875 8.265625 
Q 6.984375 17.96875 6.984375 36.375 
Q 6.984375 53.65625 15.1875 63.9375 
Q 23.390625 74.21875 37.203125 74.21875 
Q 40.921875 74.21875 44.703125 73.484375 
Q 48.484375 72.75 52.59375 71.296875 
z
" id="DejaVuSans-54"/>
      </defs>
      <g transform="translate(34.696875 164.731029)scale(0.1 -0.1)">
       <use xlink:href="#DejaVuSans-48"/>
       <use x="63.623047" xlink:href="#DejaVuSans-46"/>
       <use x="95.410156" xlink:href="#DejaVuSans-54"/>
      </g>
     </g>
    </g>
    <g id="ytick_5">
     <g id="line2d_23">
      <path clip-path="url(#pd0c3b67091)" d="M 57.6 116.895706 
L 414.72 116.895706 
" style="fill:none;stroke:#b0b0b0;stroke-linecap:square;stroke-width:0.8;"/>
     </g>
     <g id="line2d_24">
      <g>
       <use style="stroke:#000000;stroke-width:0.8;" x="57.6" xlink:href="#m766981f409" y="116.895706"/>
      </g>
     </g>
     <g id="text_13">
      <!-- 0.8 -->
      <defs>
       <path d="M 31.78125 34.625 
Q 24.75 34.625 20.71875 30.859375 
Q 16.703125 27.09375 16.703125 20.515625 
Q 16.703125 13.921875 20.71875 10.15625 
Q 24.75 6.390625 31.78125 6.390625 
Q 38.8125 6.390625 42.859375 10.171875 
Q 46.921875 13.96875 46.921875 20.515625 
Q 46.921875 27.09375 42.890625 30.859375 
Q 38.875 34.625 31.78125 34.625 
z
M 21.921875 38.8125 
Q 15.578125 40.375 12.03125 44.71875 
Q 8.5 49.078125 8.5 55.328125 
Q 8.5 64.0625 14.71875 69.140625 
Q 20.953125 74.21875 31.78125 74.21875 
Q 42.671875 74.21875 48.875 69.140625 
Q 55.078125 64.0625 55.078125 55.328125 
Q 55.078125 49.078125 51.53125 44.71875 
Q 48 40.375 41.703125 38.8125 
Q 48.828125 37.15625 52.796875 32.3125 
Q 56.78125 27.484375 56.78125 20.515625 
Q 56.78125 9.90625 50.3125 4.234375 
Q 43.84375 -1.421875 31.78125 -1.421875 
Q 19.734375 -1.421875 13.25 4.234375 
Q 6.78125 9.90625 6.78125 20.515625 
Q 6.78125 27.484375 10.78125 32.3125 
Q 14.796875 37.15625 21.921875 38.8125 
z
M 18.3125 54.390625 
Q 18.3125 48.734375 21.84375 45.5625 
Q 25.390625 42.390625 31.78125 42.390625 
Q 38.140625 42.390625 41.71875 45.5625 
Q 45.3125 48.734375 45.3125 54.390625 
Q 45.3125 60.0625 41.71875 63.234375 
Q 38.140625 66.40625 31.78125 66.40625 
Q 25.390625 66.40625 21.84375 63.234375 
Q 18.3125 60.0625 18.3125 54.390625 
z
" id="DejaVuSans-56"/>
      </defs>
      <g transform="translate(34.696875 120.694925)scale(0.1 -0.1)">
       <use xlink:href="#DejaVuSans-48"/>
       <use x="63.623047" xlink:href="#DejaVuSans-46"/>
       <use x="95.410156" xlink:href="#DejaVuSans-56"/>
      </g>
     </g>
    </g>
    <g id="ytick_6">
     <g id="line2d_25">
      <path clip-path="url(#pd0c3b67091)" d="M 57.6 72.859602 
L 414.72 72.859602 
" style="fill:none;stroke:#b0b0b0;stroke-linecap:square;stroke-width:0.8;"/>
     </g>
     <g id="line2d_26">
      <g>
       <use style="stroke:#000000;stroke-width:0.8;" x="57.6" xlink:href="#m766981f409" y="72.859602"/>
      </g>
     </g>
     <g id="text_14">
      <!-- 1.0 -->
      <g transform="translate(34.696875 76.658821)scale(0.1 -0.1)">
       <use xlink:href="#DejaVuSans-49"/>
       <use x="63.623047" xlink:href="#DejaVuSans-46"/>
       <use x="95.410156" xlink:href="#DejaVuSans-48"/>
      </g>
     </g>
    </g>
    <g id="text_15">
     <!-- Scores -->
     <defs>
      <path d="M 53.515625 70.515625 
L 53.515625 60.890625 
Q 47.90625 63.578125 42.921875 64.890625 
Q 37.9375 66.21875 33.296875 66.21875 
Q 25.25 66.21875 20.875 63.09375 
Q 16.5 59.96875 16.5 54.203125 
Q 16.5 49.359375 19.40625 46.890625 
Q 22.3125 44.4375 30.421875 42.921875 
L 36.375 41.703125 
Q 47.40625 39.59375 52.65625 34.296875 
Q 57.90625 29 57.90625 20.125 
Q 57.90625 9.515625 50.796875 4.046875 
Q 43.703125 -1.421875 29.984375 -1.421875 
Q 24.8125 -1.421875 18.96875 -0.25 
Q 13.140625 0.921875 6.890625 3.21875 
L 6.890625 13.375 
Q 12.890625 10.015625 18.65625 8.296875 
Q 24.421875 6.59375 29.984375 6.59375 
Q 38.421875 6.59375 43.015625 9.90625 
Q 47.609375 13.234375 47.609375 19.390625 
Q 47.609375 24.75 44.3125 27.78125 
Q 41.015625 30.8125 33.5 32.328125 
L 27.484375 33.5 
Q 16.453125 35.6875 11.515625 40.375 
Q 6.59375 45.0625 6.59375 53.421875 
Q 6.59375 63.09375 13.40625 68.65625 
Q 20.21875 74.21875 32.171875 74.21875 
Q 37.3125 74.21875 42.625 73.28125 
Q 47.953125 72.359375 53.515625 70.515625 
z
" id="DejaVuSans-83"/>
      <path d="M 48.78125 52.59375 
L 48.78125 44.1875 
Q 44.96875 46.296875 41.140625 47.34375 
Q 37.3125 48.390625 33.40625 48.390625 
Q 24.65625 48.390625 19.8125 42.84375 
Q 14.984375 37.3125 14.984375 27.296875 
Q 14.984375 17.28125 19.8125 11.734375 
Q 24.65625 6.203125 33.40625 6.203125 
Q 37.3125 6.203125 41.140625 7.25 
Q 44.96875 8.296875 48.78125 10.40625 
L 48.78125 2.09375 
Q 45.015625 0.34375 40.984375 -0.53125 
Q 36.96875 -1.421875 32.421875 -1.421875 
Q 20.0625 -1.421875 12.78125 6.34375 
Q 5.515625 14.109375 5.515625 27.296875 
Q 5.515625 40.671875 12.859375 48.328125 
Q 20.21875 56 33.015625 56 
Q 37.15625 56 41.109375 55.140625 
Q 45.0625 54.296875 48.78125 52.59375 
z
" id="DejaVuSans-99"/>
     </defs>
     <g transform="translate(28.617187 191.245969)rotate(-90)scale(0.1 -0.1)">
      <use xlink:href="#DejaVuSans-83"/>
      <use x="63.476562" xlink:href="#DejaVuSans-99"/>
      <use x="118.457031" xlink:href="#DejaVuSans-111"/>
      <use x="179.638672" xlink:href="#DejaVuSans-114"/>
      <use x="220.720703" xlink:href="#DejaVuSans-101"/>
      <use x="282.244141" xlink:href="#DejaVuSans-115"/>
     </g>
    </g>
   </g>
   <g id="line2d_27">
    <path clip-path="url(#pd0c3b67091)" d="M 73.832727 182.949862 
L 74.918528 185.006977 
L 76.00433 180.439804 
L 77.090131 171.324331 
L 78.175932 144.575543 
L 79.261733 143.908711 
L 80.347534 135.17698 
L 81.433335 130.603516 
L 82.519137 121.066554 
L 83.604938 123.148833 
L 84.690739 126.671721 
L 85.77654 136.315628 
L 86.862341 131.043877 
L 87.948142 141.260253 
L 89.033943 144.084855 
L 90.119745 122.626691 
L 91.205546 127.130955 
L 92.291347 126.281687 
L 93.377148 122.972689 
L 94.462949 121.0351 
L 95.54875 118.323734 
L 96.634552 115.964657 
L 97.720353 101.41387 
L 98.806154 122.488291 
L 99.891955 109.472477 
L 100.977756 114.700192 
L 102.063557 125.853908 
L 103.149358 107.704742 
L 104.23516 121.286735 
L 105.320961 120.412304 
L 106.406762 103.131278 
L 107.492563 105.968462 
L 108.578364 114.700192 
L 110.749967 125.690345 
L 111.835768 129.471159 
L 112.921569 112.561295 
L 114.00737 120.072597 
L 115.093171 125.740672 
L 116.178972 136.61759 
L 117.264773 137.139732 
L 118.350575 125.067549 
L 119.436376 130.760788 
L 120.522177 141.493016 
L 121.607978 124.42588 
L 122.693779 124.753005 
L 123.77958 123.27465 
L 124.865382 111.095522 
L 125.951183 103.533894 
L 127.036984 115.209752 
L 128.122785 94.814745 
L 129.208586 119.682562 
L 130.294387 116.329528 
L 131.380189 125.570819 
L 132.46599 121.701932 
L 133.551791 107.956377 
L 134.637592 119.191874 
L 135.723393 127.558734 
L 136.809194 126.816411 
L 137.894995 113.863506 
L 138.980797 115.102808 
L 140.066598 112.548714 
L 141.152399 98.991884 
L 142.2382 117.921118 
L 143.324001 127.822951 
L 144.409802 127.200155 
L 145.495604 117.977736 
L 146.581405 112.95762 
L 147.667206 113.731398 
L 148.753007 119.468673 
L 149.838808 100.143114 
L 150.924609 98.010508 
L 152.01041 100.797365 
L 153.096212 112.888421 
L 154.182013 142.908462 
L 155.267814 156.628854 
L 156.353615 158.673387 
L 157.439416 147.312072 
L 158.525217 156.301728 
L 159.611019 145.305284 
L 160.69682 144.99074 
L 161.782621 147.708522 
L 162.868422 145.487719 
L 163.954223 156.19777 
L 165.040024 124.790751 
L 166.125825 110.255341 
L 167.211627 135.378288 
L 168.297428 120.333886 
L 169.383229 115.668986 
L 170.46903 110.168833 
L 171.554831 108.901851 
L 172.640632 105.349732 
L 173.726434 106.842893 
L 174.812235 116.235476 
L 175.898036 115.027508 
L 176.983837 116.235165 
L 178.069638 130.77337 
L 179.155439 117.35494 
L 180.24124 108.399915 
L 181.327042 112.724858 
L 182.412843 103.672166 
L 183.498644 101.130781 
L 184.584445 102.954117 
L 186.756047 110.787269 
L 187.841849 99.948097 
L 188.92765 112.517259 
L 190.013451 113.215546 
L 191.099252 114.819718 
L 192.185053 133.220519 
L 193.270854 130.496571 
L 194.356656 135.661377 
L 195.442457 128.565274 
L 196.528258 102.156193 
L 197.614059 113.630744 
L 198.69986 100.206023 
L 199.785661 108.214303 
L 200.871462 108.05074 
L 201.957264 111.372321 
L 203.043065 125.061258 
L 204.128866 100.967218 
L 205.214667 129.414541 
L 206.300468 113.058274 
L 207.386269 100.514276 
L 208.472071 109.724112 
L 209.557872 103.50244 
L 210.643673 102.124739 
L 211.729474 106.283005 
L 212.815275 115.398479 
L 213.901076 113.083438 
L 214.986877 129.559231 
L 216.072679 140.838765 
L 217.15848 117.776428 
L 218.244281 111.240212 
L 219.330082 112.026571 
L 220.415883 122.689599 
L 221.501684 130.226064 
L 222.587486 141.335744 
L 223.673287 129.565522 
L 224.759088 140.209678 
L 225.844889 130.534317 
L 226.93069 111.303121 
L 228.016491 119.059766 
L 229.102292 111.548465 
L 230.188094 133.673462 
L 231.273895 142.02774 
L 232.359696 143.90242 
L 233.445497 157.484412 
L 234.531298 133.572808 
L 235.617099 150.293946 
L 236.702901 164.505025 
L 237.788702 158.742587 
L 238.874503 177.004988 
L 239.960304 150.275073 
L 241.046105 164.215645 
L 242.131906 166.008544 
L 243.217708 160.069961 
L 244.303509 148.224249 
L 245.38931 160.56694 
L 246.475111 151.092886 
L 247.560912 155.502788 
L 248.646713 158.566442 
L 249.732514 154.383012 
L 250.818316 159.667345 
L 252.989918 137.19635 
L 254.075719 142.455519 
L 255.16152 139.970625 
L 256.247321 116.801343 
L 257.333123 129.974429 
L 258.418924 135.516687 
L 259.504725 129.33276 
L 260.590526 106.496895 
L 261.676327 105.320502 
L 262.762128 116.05902 
L 263.847929 116.323237 
L 264.933731 115.140553 
L 266.019532 125.061258 
L 268.191134 111.87559 
L 269.276935 112.617913 
L 270.362736 120.770883 
L 271.448538 98.677341 
L 272.534339 93.896278 
L 273.62014 106.194933 
L 274.705941 102.948843 
L 275.791742 98.696214 
L 276.877543 106.937256 
L 277.963344 101.652923 
L 279.049146 94.324057 
L 280.134947 102.64059 
L 281.220748 102.193938 
L 282.306549 112.102062 
L 283.39235 115.599787 
L 284.478151 99.53919 
L 285.563953 112.377716 
L 286.649754 109.736694 
L 287.735555 109.664318 
L 288.821356 99.231436 
L 289.907157 106.037661 
L 290.992958 116.329528 
L 292.07876 94.883945 
L 293.164561 106.643453 
L 294.250362 111.252794 
L 295.336163 99.642523 
L 296.421964 100.350713 
L 297.507765 94.310853 
L 298.593566 106.780482 
L 299.679368 102.95613 
L 300.765169 121.475461 
L 301.85097 118.255551 
L 302.936771 131.256687 
L 304.022572 140.845056 
L 305.108373 124.276581 
L 306.194175 120.3398 
L 307.279976 118.241953 
L 308.365777 111.106833 
L 309.451578 111.151314 
L 310.537379 114.925837 
L 311.62318 119.380283 
L 312.708981 101.092273 
L 313.794783 96.595062 
L 314.880584 98.211816 
L 315.966385 104.377506 
L 317.052186 95.28027 
L 318.137987 100.738754 
L 319.223788 107.104369 
L 320.30959 106.081697 
L 321.395391 94.600856 
L 322.481192 102.539936 
L 323.566993 89.770214 
L 324.652794 114.649865 
L 325.738595 112.77169 
L 326.824396 122.463128 
L 327.910198 107.792814 
L 328.995999 103.728475 
L 330.0818 104.357562 
L 331.167601 134.422948 
L 332.253402 100.981669 
L 333.339203 105.5281 
L 334.425005 108.170267 
L 335.510806 96.092229 
L 336.596607 107.889171 
L 337.682408 100.696711 
L 339.85401 118.216166 
L 340.939811 107.147969 
L 342.025613 114.410812 
L 343.111414 115.840873 
L 344.197215 136.862934 
L 345.283016 134.840263 
L 346.368817 112.985498 
L 347.454618 130.972311 
L 348.54042 120.66381 
L 349.626221 133.429897 
L 350.712022 132.167119 
L 351.797823 127.755403 
L 352.883624 124.054719 
L 353.969425 128.117605 
L 355.055227 117.929207 
L 356.141028 128.778464 
L 358.31263 155.313625 
L 359.398431 160.132869 
L 360.484232 157.519489 
L 361.570033 156.108808 
L 362.655835 154.469369 
L 363.741636 150.561403 
L 364.827437 162.145948 
L 365.913238 163.643176 
L 366.999039 163.454513 
L 369.170642 133.412455 
L 370.256443 118.216166 
L 371.342244 117.167077 
L 372.428045 136.918471 
L 373.513846 137.636711 
L 374.599647 126.287978 
L 375.685448 129.42026 
L 376.77125 142.918739 
L 377.857051 134.759291 
L 378.942852 133.063247 
L 380.028653 115.939494 
L 381.114454 116.001416 
L 382.200255 143.896129 
L 383.286057 132.585515 
L 384.371858 126.08667 
L 385.457659 130.395917 
L 386.54346 113.582098 
L 387.629261 114.857464 
L 388.715062 102.942552 
L 389.800863 104.307671 
L 390.886665 104.615924 
L 391.972466 101.011254 
L 393.058267 121.143602 
L 394.144068 113.498635 
L 395.229869 107.54836 
L 396.31567 116.895706 
L 397.401472 105.559555 
L 398.487273 108.55401 
L 398.487273 108.55401 
" style="fill:none;stroke:#0000ff;stroke-linecap:square;stroke-width:1.5;"/>
   </g>
   <g id="line2d_28">
    <path clip-path="url(#pd0c3b67091)" d="M 73.832727 249.360501 
L 74.918528 192.465854 
L 76.00433 189.563666 
L 77.090131 197.947301 
L 78.175932 211.183296 
L 79.261733 210.893915 
L 80.347534 212.676329 
L 81.433335 211.18749 
L 82.519137 202.00701 
L 83.604938 185.70107 
L 84.690739 206.04575 
L 85.77654 195.539994 
L 86.862341 191.467703 
L 87.948142 188.120959 
L 89.033943 196.999476 
L 90.119745 189.626574 
L 91.205546 203.600698 
L 92.291347 202.325748 
L 93.377148 193.359158 
L 94.462949 188.498411 
L 95.54875 193.577242 
L 96.634552 194.160196 
L 97.720353 184.858093 
L 98.806154 203.101622 
L 99.891955 189.697871 
L 100.977756 182.421429 
L 102.063557 192.604254 
L 103.149358 182.127855 
L 105.320961 197.209172 
L 106.406762 187.714149 
L 107.492563 180.299308 
L 108.578364 179.657639 
L 109.664165 183.948014 
L 110.749967 184.589683 
L 111.835768 188.674556 
L 112.921569 179.6157 
L 114.00737 176.734481 
L 115.093171 175.497276 
L 116.178972 196.965925 
L 117.264773 188.63681 
L 118.350575 191.601908 
L 119.436376 198.723175 
L 120.522177 173.396124 
L 121.607978 174.666881 
L 122.693779 189.341388 
L 123.77958 202.195736 
L 124.865382 189.14008 
L 125.951183 164.702139 
L 127.036984 163.762703 
L 128.122785 153.47503 
L 129.208586 168.845727 
L 130.294387 165.197021 
L 131.380189 170.410057 
L 132.46599 161.12473 
L 133.551791 159.36748 
L 134.637592 163.783672 
L 135.723393 184.782603 
L 136.809194 176.939982 
L 137.894995 165.683515 
L 138.980797 157.991876 
L 140.066598 161.02827 
L 141.152399 155.123238 
L 142.2382 167.784667 
L 143.324001 171.278198 
L 144.409802 148.509435 
L 145.495604 160.436928 
L 146.581405 154.204771 
L 147.667206 171.978581 
L 148.753007 171.63468 
L 149.838808 151.587768 
L 150.924609 156.066869 
L 152.01041 151.461951 
L 153.096212 155.207117 
L 154.182013 152.29654 
L 155.267814 167.780473 
L 156.353615 149.172073 
L 157.439416 154.905155 
L 158.525217 166.82426 
L 159.611019 142.763772 
L 160.69682 156.905652 
L 161.782621 153.514338 
L 163.954223 142.671163 
L 165.040024 154.657714 
L 166.125825 147.010581 
L 167.211627 169.986472 
L 168.297428 150.327785 
L 169.383229 164.580516 
L 170.46903 157.876831 
L 171.554831 145.692494 
L 172.640632 159.446822 
L 173.726434 156.473679 
L 174.812235 164.488414 
L 175.898036 143.21894 
L 176.983837 145.112364 
L 178.069638 150.824476 
L 179.155439 145.280121 
L 180.24124 152.256163 
L 181.327042 144.713942 
L 182.412843 164.945986 
L 183.498644 144.051304 
L 184.584445 128.463208 
L 185.670246 160.017537 
L 186.756047 135.814455 
L 187.841849 147.683234 
L 188.92765 157.190838 
L 190.013451 155.601345 
L 191.099252 151.415818 
L 192.185053 156.385607 
L 193.270854 141.916601 
L 194.356656 173.937139 
L 195.442457 133.13035 
L 196.528258 146.399896 
L 197.614059 166.350348 
L 198.69986 161.72446 
L 199.785661 165.293481 
L 200.871462 175.451143 
L 201.957264 153.189844 
L 203.043065 175.434367 
L 204.128866 154.087341 
L 205.214667 169.286088 
L 206.300468 154.691265 
L 207.386269 145.670155 
L 208.472071 149.645986 
L 209.557872 140.285168 
L 210.643673 150.556065 
L 211.729474 163.511068 
L 212.815275 151.344521 
L 213.901076 148.983347 
L 214.986877 163.259433 
L 216.072679 137.064242 
L 217.15848 138.15466 
L 218.244281 166.270663 
L 219.330082 163.431383 
L 221.501684 147.809051 
L 222.587486 156.855325 
L 223.673287 162.135464 
L 224.759088 155.194535 
L 225.844889 132.350282 
L 226.93069 146.873808 
L 228.016491 148.006165 
L 229.102292 149.935366 
L 230.188094 140.088054 
L 231.273895 165.243154 
L 232.359696 167.004599 
L 233.445497 162.030616 
L 234.531298 142.788935 
L 235.617099 129.230009 
L 236.702901 158.008652 
L 237.788702 148.001971 
L 238.874503 136.586136 
L 239.960304 135.164398 
L 241.046105 134.162053 
L 242.131906 140.603906 
L 243.217708 134.01946 
L 244.303509 133.210034 
L 245.38931 121.961955 
L 246.475111 126.185227 
L 247.560912 125.975531 
L 248.646713 135.19795 
L 249.732514 131.788297 
L 250.818316 140.633263 
L 251.904117 138.355968 
L 252.989918 133.61265 
L 254.075719 129.540359 
L 255.16152 136.623881 
L 256.247321 137.429112 
L 257.333123 128.89869 
L 258.418924 150.883191 
L 259.504725 123.480152 
L 260.590526 135.013418 
L 261.676327 142.281472 
L 262.762128 151.420012 
L 263.847929 152.514623 
L 264.933731 140.893286 
L 266.019532 140.566161 
L 267.105333 141.228799 
L 268.191134 129.351633 
L 269.276935 153.927973 
L 270.362736 184.589683 
L 271.448538 146.777348 
L 272.534339 126.315239 
L 273.62014 153.793767 
L 274.705941 131.092107 
L 275.791742 136.242235 
L 276.877543 164.999907 
L 277.963344 155.945246 
L 279.049146 139.136036 
L 280.134947 149.234982 
L 281.220748 151.218704 
L 282.306549 160.017537 
L 283.39235 153.525357 
L 284.478151 140.146769 
L 285.563953 150.375727 
L 286.649754 152.359449 
L 287.735555 131.238894 
L 288.821356 137.806565 
L 289.907157 142.684087 
L 290.992958 162.957471 
L 292.07876 151.00062 
L 293.164561 148.572344 
L 294.250362 141.853692 
L 297.507765 147.951644 
L 298.593566 148.148758 
L 299.679368 144.21906 
L 300.765169 169.369966 
L 301.85097 145.980504 
L 302.936771 142.616985 
L 304.022572 150.463799 
L 305.108373 140.80102 
L 306.194175 141.459464 
L 307.279976 150.803506 
L 308.365777 136.76228 
L 309.451578 152.363642 
L 310.537379 151.826821 
L 311.62318 140.817795 
L 312.708981 138.708256 
L 313.794783 138.284671 
L 314.880584 136.85874 
L 315.966385 144.185509 
L 317.052186 132.606111 
L 318.137987 145.7079 
L 319.223788 136.300949 
L 320.30959 145.116558 
L 321.395391 131.04178 
L 322.481192 137.970127 
L 323.566993 133.667171 
L 324.652794 148.635252 
L 325.738595 147.477732 
L 326.824396 128.336705 
L 328.995999 153.709889 
L 330.0818 143.216715 
L 331.167601 148.417169 
L 332.253402 145.607246 
L 333.339203 139.605754 
L 334.425005 153.189844 
L 335.510806 142.001631 
L 336.596607 154.135201 
L 337.682408 142.998631 
L 338.768209 149.235924 
L 339.85401 148.207473 
L 340.939811 163.242657 
L 342.025613 160.436928 
L 343.111414 159.476522 
L 344.197215 171.009787 
L 345.283016 144.579737 
L 346.368817 139.21572 
L 347.454618 147.439987 
L 348.54042 150.59381 
L 349.626221 148.274576 
L 350.712022 136.896485 
L 351.797823 148.119401 
L 352.883624 142.46181 
L 353.969425 139.362507 
L 355.055227 127.938283 
L 356.141028 151.38646 
L 357.226829 155.915888 
L 358.31263 131.268252 
L 359.398431 132.02735 
L 360.484232 115.704634 
L 362.655835 143.42641 
L 363.741636 137.114569 
L 364.827437 132.408911 
L 365.913238 132.564171 
L 366.999039 123.768591 
L 368.08484 132.929042 
L 369.170642 145.594065 
L 370.256443 147.985196 
L 371.342244 136.853806 
L 372.428045 159.921847 
L 373.513846 164.232421 
L 374.599647 161.674133 
L 375.685448 144.827178 
L 376.77125 140.41041 
L 377.857051 137.487827 
L 378.942852 130.68855 
L 380.028653 147.96842 
L 381.114454 156.166372 
L 382.200255 151.994578 
L 383.286057 159.665412 
L 384.371858 139.966431 
L 385.457659 140.759081 
L 386.54346 146.609592 
L 387.629261 140.012564 
L 388.715062 131.230506 
L 389.800863 148.148758 
L 390.886665 144.697166 
L 391.972466 147.855184 
L 393.058267 150.543484 
L 394.144068 147.972614 
L 395.229869 146.638949 
L 396.31567 157.68572 
L 397.401472 140.037727 
L 398.487273 150.698658 
L 398.487273 150.698658 
" style="fill:none;stroke:#ff0000;stroke-linecap:square;stroke-width:1.5;"/>
   </g>
   <g id="line2d_29">
    <path clip-path="url(#pd0c3b67091)" d="M 73.832727 282.20724 
L 74.918528 269.449352 
L 76.00433 264.919924 
L 77.090131 267.650163 
L 78.175932 272.31799 
L 79.261733 270.128766 
L 80.347534 270.871089 
L 81.433335 269.537424 
L 82.519137 266.278753 
L 83.604938 258.213855 
L 84.690739 264.4544 
L 85.77654 260.579222 
L 86.862341 258.817778 
L 87.948142 256.817281 
L 89.033943 258.566143 
L 90.119745 255.50878 
L 91.205546 260.893766 
L 92.291347 260.315006 
L 93.377148 257.496695 
L 94.462949 256.037213 
L 95.54875 258.75487 
L 96.634552 258.075455 
L 97.720353 259.144904 
L 98.806154 264.441818 
L 99.891955 258.163528 
L 100.977756 253.181157 
L 102.063557 257.848984 
L 103.149358 252.665306 
L 104.23516 254.477077 
L 105.320961 257.068916 
L 106.406762 254.225442 
L 107.492563 249.066927 
L 108.578364 249.217908 
L 109.664165 251.230987 
L 110.749967 250.664808 
L 111.835768 255.093582 
L 112.921569 252.690469 
L 114.00737 252.413671 
L 115.093171 243.732267 
L 116.178972 254.703548 
L 117.264773 247.192247 
L 118.350575 252.753378 
L 119.436376 251.633603 
L 120.522177 232.446443 
L 121.607978 239.127349 
L 122.693779 238.686988 
L 123.77958 247.14192 
L 124.865382 244.499754 
L 125.951183 223.777621 
L 127.036984 221.840033 
L 128.122785 221.324181 
L 129.208586 231.565721 
L 130.294387 223.777621 
L 131.380189 230.773071 
L 132.46599 225.400666 
L 133.551791 221.1732 
L 134.637592 220.040843 
L 135.723393 232.622587 
L 136.809194 231.716702 
L 137.894995 225.878773 
L 140.066598 224.067001 
L 141.152399 219.034304 
L 142.2382 229.426824 
L 143.324001 225.727792 
L 144.409802 211.762056 
L 145.495604 218.707179 
L 146.581405 208.239168 
L 147.667206 219.80179 
L 148.753007 225.035796 
L 149.838808 212.894413 
L 150.924609 219.260775 
L 152.01041 214.02677 
L 153.096212 207.169719 
L 154.182013 213.146048 
L 155.267814 223.588895 
L 156.353615 211.598493 
L 157.439416 216.681518 
L 158.525217 227.237601 
L 159.611019 208.666947 
L 160.69682 220.066007 
L 161.782621 211.086095 
L 162.868422 210.340319 
L 163.954223 199.280452 
L 165.040024 207.874297 
L 166.125825 214.956278 
L 167.211627 219.650809 
L 168.297428 203.500044 
L 169.383229 210.076102 
L 170.46903 212.615641 
L 171.554831 196.62288 
L 172.640632 212.221675 
L 173.726434 201.948296 
L 174.812235 217.673008 
L 175.898036 196.764103 
L 176.983837 201.960877 
L 178.069638 210.403227 
L 179.155439 209.321197 
L 181.327042 208.918582 
L 182.412843 218.705124 
L 183.498644 206.024781 
L 184.584445 190.383362 
L 185.670246 208.780182 
L 186.756047 193.958888 
L 187.841849 209.40927 
L 188.92765 220.01568 
L 190.013451 213.196375 
L 191.099252 209.019236 
L 192.185053 208.364985 
L 193.270854 206.150598 
L 194.356656 223.387587 
L 195.442457 193.833071 
L 196.528258 211.686565 
L 197.614059 223.513405 
L 198.69986 223.588895 
L 199.785661 223.173698 
L 200.871462 226.054917 
L 201.957264 212.718268 
L 203.043065 222.318139 
L 204.128866 214.177751 
L 205.214667 216.366974 
L 206.300468 216.807335 
L 207.386269 203.936211 
L 208.472071 206.993575 
L 209.557872 200.765612 
L 210.643673 202.99258 
L 211.729474 221.059965 
L 212.815275 205.181804 
L 213.901076 195.720332 
L 214.986877 207.962369 
L 216.072679 200.274924 
L 217.15848 194.76412 
L 218.244281 219.22303 
L 220.415883 203.797812 
L 221.501684 210.85617 
L 222.587486 210.881334 
L 223.673287 211.032315 
L 224.759088 207.308118 
L 225.844889 194.776701 
L 226.93069 202.740945 
L 228.016491 204.477226 
L 229.102292 199.985543 
L 230.188094 190.977015 
L 231.273895 216.970898 
L 232.359696 210.629699 
L 233.445497 213.23412 
L 234.531298 183.528622 
L 235.617099 181.100346 
L 236.702901 214.718766 
L 237.788702 197.167233 
L 238.874503 196.6388 
L 239.960304 189.769167 
L 241.046105 196.827526 
L 242.131906 205.710237 
L 243.217708 194.575394 
L 244.303509 191.543193 
L 245.38931 180.571912 
L 246.475111 181.754596 
L 247.560912 191.30414 
L 248.646713 195.066082 
L 249.732514 184.887451 
L 250.818316 198.0857 
L 251.904117 201.658915 
L 252.989918 191.694174 
L 254.075719 190.662471 
L 255.16152 188.573902 
L 256.247321 200.715285 
L 257.333123 185.617192 
L 258.418924 202.325748 
L 259.504725 168.115986 
L 261.676327 196.777199 
L 262.762128 202.652873 
L 263.847929 199.696163 
L 264.933731 198.349917 
L 266.019532 199.545182 
L 267.105333 199.129985 
L 268.191134 185.805918 
L 269.276935 202.086695 
L 270.362736 227.237601 
L 271.448538 205.722819 
L 272.534339 189.35397 
L 273.62014 212.94474 
L 274.705941 190.020802 
L 275.791742 195.833568 
L 276.877543 214.290986 
L 277.963344 208.251749 
L 279.049146 190.423418 
L 280.134947 206.74194 
L 281.220748 203.143561 
L 282.306549 201.520516 
L 283.39235 204.301082 
L 284.478151 205.345366 
L 285.563953 208.088187 
L 286.649754 199.142567 
L 287.735555 187.101838 
L 288.821356 193.883398 
L 289.907157 192.524569 
L 290.992958 212.605033 
L 292.07876 215.196872 
L 293.164561 208.264331 
L 294.250362 198.29959 
L 295.336163 199.331293 
L 296.421964 200.878847 
L 297.507765 208.931163 
L 298.593566 196.13553 
L 299.679368 204.628207 
L 300.765169 221.135455 
L 301.85097 201.33179 
L 302.936771 200.82852 
L 304.022572 207.295537 
L 305.108373 202.552219 
L 306.194175 202.929672 
L 307.279976 208.578875 
L 308.365777 196.965925 
L 309.451578 203.357451 
L 310.537379 198.80286 
L 311.62318 196.072621 
L 312.708981 196.286511 
L 313.794783 195.871313 
L 314.880584 194.084706 
L 315.966385 197.846647 
L 317.052186 181.716851 
L 318.137987 197.028834 
L 319.223788 196.349419 
L 320.30959 202.615128 
L 321.395391 192.511988 
L 322.481192 195.003173 
L 323.566993 192.524569 
L 324.652794 203.130979 
L 325.738595 201.268881 
L 326.824396 191.052505 
L 327.910198 198.073118 
L 328.995999 214.592948 
L 330.0818 207.572335 
L 331.167601 203.382614 
L 332.253402 207.698153 
L 333.339203 208.994072 
L 334.425005 218.241654 
L 335.510806 203.88243 
L 336.596607 205.559996 
L 337.682408 198.979004 
L 338.768209 208.768114 
L 339.85401 204.603043 
L 340.939811 224.696089 
L 342.025613 211.095223 
L 343.111414 207.974951 
L 344.197215 223.588895 
L 345.283016 193.078166 
L 346.368817 190.020802 
L 347.454618 201.784733 
L 348.54042 205.8738 
L 349.626221 200.803357 
L 350.712022 203.030325 
L 351.797823 210.214501 
L 352.883624 207.962369 
L 353.969425 197.079161 
L 355.055227 191.354467 
L 356.141028 207.962369 
L 357.226829 210.793262 
L 358.31263 183.893493 
L 359.398431 193.782744 
L 360.484232 172.897049 
L 362.655835 206.590959 
L 363.741636 194.197941 
L 364.827437 187.212249 
L 365.913238 197.116906 
L 366.999039 183.810043 
L 368.08484 183.968983 
L 369.170642 192.604425 
L 370.256443 199.255802 
L 371.342244 194.002061 
L 372.428045 205.95648 
L 373.513846 215.385598 
L 374.599647 207.182301 
L 375.685448 191.530611 
L 376.77125 193.533329 
L 377.857051 202.564801 
L 378.942852 184.00262 
L 380.028653 199.45711 
L 381.114454 206.929186 
L 382.200255 206.477723 
L 383.286057 219.264229 
L 384.371858 200.841102 
L 385.457659 193.833071 
L 386.54346 208.868255 
L 387.629261 189.567859 
L 388.715062 186.598568 
L 389.800863 197.695666 
L 390.886665 198.437989 
L 391.972466 204.540135 
L 393.058267 205.181804 
L 394.144068 207.270373 
L 395.229869 206.980993 
L 396.31567 217.599985 
L 397.401472 194.286013 
L 398.487273 205.898963 
L 398.487273 205.898963 
" style="fill:none;stroke:#008000;stroke-linecap:square;stroke-width:1.5;"/>
   </g>
   <g id="patch_3">
    <path d="M 57.6 307.584 
L 57.6 41.472 
" style="fill:none;stroke:#000000;stroke-linecap:square;stroke-linejoin:miter;stroke-width:0.8;"/>
   </g>
   <g id="patch_4">
    <path d="M 414.72 307.584 
L 414.72 41.472 
" style="fill:none;stroke:#000000;stroke-linecap:square;stroke-linejoin:miter;stroke-width:0.8;"/>
   </g>
   <g id="patch_5">
    <path d="M 57.6 307.584 
L 414.72 307.584 
" style="fill:none;stroke:#000000;stroke-linecap:square;stroke-linejoin:miter;stroke-width:0.8;"/>
   </g>
   <g id="patch_6">
    <path d="M 57.6 41.472 
L 414.72 41.472 
" style="fill:none;stroke:#000000;stroke-linecap:square;stroke-linejoin:miter;stroke-width:0.8;"/>
   </g>
   <g id="text_16">
    <!-- Scores by generation -->
    <defs>
     <path id="DejaVuSans-32"/>
     <path d="M 48.6875 27.296875 
Q 48.6875 37.203125 44.609375 42.84375 
Q 40.53125 48.484375 33.40625 48.484375 
Q 26.265625 48.484375 22.1875 42.84375 
Q 18.109375 37.203125 18.109375 27.296875 
Q 18.109375 17.390625 22.1875 11.75 
Q 26.265625 6.109375 33.40625 6.109375 
Q 40.53125 6.109375 44.609375 11.75 
Q 48.6875 17.390625 48.6875 27.296875 
z
M 18.109375 46.390625 
Q 20.953125 51.265625 25.265625 53.625 
Q 29.59375 56 35.59375 56 
Q 45.5625 56 51.78125 48.09375 
Q 58.015625 40.1875 58.015625 27.296875 
Q 58.015625 14.40625 51.78125 6.484375 
Q 45.5625 -1.421875 35.59375 -1.421875 
Q 29.59375 -1.421875 25.265625 0.953125 
Q 20.953125 3.328125 18.109375 8.203125 
L 18.109375 0 
L 9.078125 0 
L 9.078125 75.984375 
L 18.109375 75.984375 
z
" id="DejaVuSans-98"/>
     <path d="M 32.171875 -5.078125 
Q 28.375 -14.84375 24.75 -17.8125 
Q 21.140625 -20.796875 15.09375 -20.796875 
L 7.90625 -20.796875 
L 7.90625 -13.28125 
L 13.1875 -13.28125 
Q 16.890625 -13.28125 18.9375 -11.515625 
Q 21 -9.765625 23.484375 -3.21875 
L 25.09375 0.875 
L 2.984375 54.6875 
L 12.5 54.6875 
L 29.59375 11.921875 
L 46.6875 54.6875 
L 56.203125 54.6875 
z
" id="DejaVuSans-121"/>
     <path d="M 45.40625 27.984375 
Q 45.40625 37.75 41.375 43.109375 
Q 37.359375 48.484375 30.078125 48.484375 
Q 22.859375 48.484375 18.828125 43.109375 
Q 14.796875 37.75 14.796875 27.984375 
Q 14.796875 18.265625 18.828125 12.890625 
Q 22.859375 7.515625 30.078125 7.515625 
Q 37.359375 7.515625 41.375 12.890625 
Q 45.40625 18.265625 45.40625 27.984375 
z
M 54.390625 6.78125 
Q 54.390625 -7.171875 48.1875 -13.984375 
Q 42 -20.796875 29.203125 -20.796875 
Q 24.46875 -20.796875 20.265625 -20.09375 
Q 16.0625 -19.390625 12.109375 -17.921875 
L 12.109375 -9.1875 
Q 16.0625 -11.328125 19.921875 -12.34375 
Q 23.78125 -13.375 27.78125 -13.375 
Q 36.625 -13.375 41.015625 -8.765625 
Q 45.40625 -4.15625 45.40625 5.171875 
L 45.40625 9.625 
Q 42.625 4.78125 38.28125 2.390625 
Q 33.9375 0 27.875 0 
Q 17.828125 0 11.671875 7.65625 
Q 5.515625 15.328125 5.515625 27.984375 
Q 5.515625 40.671875 11.671875 48.328125 
Q 17.828125 56 27.875 56 
Q 33.9375 56 38.28125 53.609375 
Q 42.625 51.21875 45.40625 46.390625 
L 45.40625 54.6875 
L 54.390625 54.6875 
z
" id="DejaVuSans-103"/>
    </defs>
    <g transform="translate(172.292812 35.472)scale(0.12 -0.12)">
     <use xlink:href="#DejaVuSans-83"/>
     <use x="63.476562" xlink:href="#DejaVuSans-99"/>
     <use x="118.457031" xlink:href="#DejaVuSans-111"/>
     <use x="179.638672" xlink:href="#DejaVuSans-114"/>
     <use x="220.720703" xlink:href="#DejaVuSans-101"/>
     <use x="282.244141" xlink:href="#DejaVuSans-115"/>
     <use x="334.34375" xlink:href="#DejaVuSans-32"/>
     <use x="366.130859" xlink:href="#DejaVuSans-98"/>
     <use x="429.607422" xlink:href="#DejaVuSans-121"/>
     <use x="488.787109" xlink:href="#DejaVuSans-32"/>
     <use x="520.574219" xlink:href="#DejaVuSans-103"/>
     <use x="584.050781" xlink:href="#DejaVuSans-101"/>
     <use x="645.574219" xlink:href="#DejaVuSans-110"/>
     <use x="708.953125" xlink:href="#DejaVuSans-101"/>
     <use x="770.476562" xlink:href="#DejaVuSans-114"/>
     <use x="811.589844" xlink:href="#DejaVuSans-97"/>
     <use x="872.869141" xlink:href="#DejaVuSans-116"/>
     <use x="912.078125" xlink:href="#DejaVuSans-105"/>
     <use x="939.861328" xlink:href="#DejaVuSans-111"/>
     <use x="1001.042969" xlink:href="#DejaVuSans-110"/>
    </g>
   </g>
   <g id="legend_1">
    <g id="patch_7">
     <path d="M 338.37 93.506375 
L 407.72 93.506375 
Q 409.72 93.506375 409.72 91.506375 
L 409.72 48.472 
Q 409.72 46.472 407.72 46.472 
L 338.37 46.472 
Q 336.37 46.472 336.37 48.472 
L 336.37 91.506375 
Q 336.37 93.506375 338.37 93.506375 
z
" style="fill:#ffffff;opacity:0.8;stroke:#cccccc;stroke-linejoin:miter;"/>
    </g>
    <g id="line2d_30">
     <path d="M 340.37 54.570438 
L 360.37 54.570438 
" style="fill:none;stroke:#0000ff;stroke-linecap:square;stroke-width:1.5;"/>
    </g>
    <g id="line2d_31"/>
    <g id="text_17">
     <!-- species -->
     <defs>
      <path d="M 18.109375 8.203125 
L 18.109375 -20.796875 
L 9.078125 -20.796875 
L 9.078125 54.6875 
L 18.109375 54.6875 
L 18.109375 46.390625 
Q 20.953125 51.265625 25.265625 53.625 
Q 29.59375 56 35.59375 56 
Q 45.5625 56 51.78125 48.09375 
Q 58.015625 40.1875 58.015625 27.296875 
Q 58.015625 14.40625 51.78125 6.484375 
Q 45.5625 -1.421875 35.59375 -1.421875 
Q 29.59375 -1.421875 25.265625 0.953125 
Q 20.953125 3.328125 18.109375 8.203125 
z
M 48.6875 27.296875 
Q 48.6875 37.203125 44.609375 42.84375 
Q 40.53125 48.484375 33.40625 48.484375 
Q 26.265625 48.484375 22.1875 42.84375 
Q 18.109375 37.203125 18.109375 27.296875 
Q 18.109375 17.390625 22.1875 11.75 
Q 26.265625 6.109375 33.40625 6.109375 
Q 40.53125 6.109375 44.609375 11.75 
Q 48.6875 17.390625 48.6875 27.296875 
z
" id="DejaVuSans-112"/>
     </defs>
     <g transform="translate(368.37 58.070438)scale(0.1 -0.1)">
      <use xlink:href="#DejaVuSans-115"/>
      <use x="52.099609" xlink:href="#DejaVuSans-112"/>
      <use x="115.576172" xlink:href="#DejaVuSans-101"/>
      <use x="177.099609" xlink:href="#DejaVuSans-99"/>
      <use x="232.080078" xlink:href="#DejaVuSans-105"/>
      <use x="259.863281" xlink:href="#DejaVuSans-101"/>
      <use x="321.386719" xlink:href="#DejaVuSans-115"/>
     </g>
    </g>
    <g id="line2d_32">
     <path d="M 340.37 69.248563 
L 360.37 69.248563 
" style="fill:none;stroke:#ff0000;stroke-linecap:square;stroke-width:1.5;"/>
    </g>
    <g id="line2d_33"/>
    <g id="text_18">
     <!-- bits -->
     <g transform="translate(368.37 72.748563)scale(0.1 -0.1)">
      <use xlink:href="#DejaVuSans-98"/>
      <use x="63.476562" xlink:href="#DejaVuSans-105"/>
      <use x="91.259766" xlink:href="#DejaVuSans-116"/>
      <use x="130.46875" xlink:href="#DejaVuSans-115"/>
     </g>
    </g>
    <g id="line2d_34">
     <path d="M 340.37 83.926688 
L 360.37 83.926688 
" style="fill:none;stroke:#008000;stroke-linecap:square;stroke-width:1.5;"/>
    </g>
    <g id="line2d_35"/>
    <g id="text_19">
     <!-- total -->
     <defs>
      <path d="M 9.421875 75.984375 
L 18.40625 75.984375 
L 18.40625 0 
L 9.421875 0 
z
" id="DejaVuSans-108"/>
     </defs>
     <g transform="translate(368.37 87.426688)scale(0.1 -0.1)">
      <use xlink:href="#DejaVuSans-116"/>
      <use x="39.208984" xlink:href="#DejaVuSans-111"/>
      <use x="100.390625" xlink:href="#DejaVuSans-116"/>
      <use x="139.599609" xlink:href="#DejaVuSans-97"/>
      <use x="200.878906" xlink:href="#DejaVuSans-108"/>
     </g>
    </g>
   </g>
  </g>
 </g>
 <defs>
  <clipPath id="pd0c3b67091">
   <rect height="266.112" width="357.12" x="57.6" y="41.472"/>
  </clipPath>
 </defs>
</svg>
