<?xml version="1.0" encoding="utf-8" standalone="no"?>
<!DOCTYPE svg PUBLIC "-//W3C//DTD SVG 1.1//EN"
  "http://www.w3.org/Graphics/SVG/1.1/DTD/svg11.dtd">
<!-- Created with matplotlib (https://matplotlib.org/) -->
<svg height="345.6pt" version="1.1" viewBox="0 0 460.8 345.6" width="460.8pt" xmlns="http://www.w3.org/2000/svg" xmlns:xlink="http://www.w3.org/1999/xlink">
 <defs>
  <style type="text/css">
*{stroke-linecap:butt;stroke-linejoin:round;}
  </style>
 </defs>
 <g id="figure_1">
  <g id="patch_1">
   <path d="M 0 345.6 
L 460.8 345.6 
L 460.8 0 
L 0 0 
z
" style="fill:#ffffff;"/>
  </g>
  <g id="axes_1">
   <g id="patch_2">
    <path d="M 57.6 307.584 
L 414.72 307.584 
L 414.72 41.472 
L 57.6 41.472 
z
" style="fill:#ffffff;"/>
   </g>
   <g id="matplotlib.axis_1">
    <g id="xtick_1">
     <g id="line2d_1">
      <path clip-path="url(#p7fff46f161)" d="M 73.832727 307.584 
L 73.832727 41.472 
" style="fill:none;stroke:#b0b0b0;stroke-linecap:square;stroke-width:0.8;"/>
     </g>
     <g id="line2d_2">
      <defs>
       <path d="M 0 0 
L 0 3.5 
" id="mf9e8e65763" style="stroke:#000000;stroke-width:0.8;"/>
      </defs>
      <g>
       <use style="stroke:#000000;stroke-width:0.8;" x="73.832727" xlink:href="#mf9e8e65763" y="307.584"/>
      </g>
     </g>
     <g id="text_1">
      <!-- 0 -->
      <defs>
       <path d="M 31.78125 66.40625 
Q 24.171875 66.40625 20.328125 58.90625 
Q 16.5 51.421875 16.5 36.375 
Q 16.5 21.390625 20.328125 13.890625 
Q 24.171875 6.390625 31.78125 6.390625 
Q 39.453125 6.390625 43.28125 13.890625 
Q 47.125 21.390625 47.125 36.375 
Q 47.125 51.421875 43.28125 58.90625 
Q 39.453125 66.40625 31.78125 66.40625 
z
M 31.78125 74.21875 
Q 44.046875 74.21875 50.515625 64.515625 
Q 56.984375 54.828125 56.984375 36.375 
Q 56.984375 17.96875 50.515625 8.265625 
Q 44.046875 -1.421875 31.78125 -1.421875 
Q 19.53125 -1.421875 13.0625 8.265625 
Q 6.59375 17.96875 6.59375 36.375 
Q 6.59375 54.828125 13.0625 64.515625 
Q 19.53125 74.21875 31.78125 74.21875 
z
" id="DejaVuSans-48"/>
      </defs>
      <g transform="translate(70.651477 322.182437)scale(0.1 -0.1)">
       <use xlink:href="#DejaVuSans-48"/>
      </g>
     </g>
    </g>
    <g id="xtick_2">
     <g id="line2d_3">
      <path clip-path="url(#p7fff46f161)" d="M 128.122785 307.584 
L 128.122785 41.472 
" style="fill:none;stroke:#b0b0b0;stroke-linecap:square;stroke-width:0.8;"/>
     </g>
     <g id="line2d_4">
      <g>
       <use style="stroke:#000000;stroke-width:0.8;" x="128.122785" xlink:href="#mf9e8e65763" y="307.584"/>
      </g>
     </g>
     <g id="text_2">
      <!-- 50 -->
      <defs>
       <path d="M 10.796875 72.90625 
L 49.515625 72.90625 
L 49.515625 64.59375 
L 19.828125 64.59375 
L 19.828125 46.734375 
Q 21.96875 47.46875 24.109375 47.828125 
Q 26.265625 48.1875 28.421875 48.1875 
Q 40.625 48.1875 47.75 41.5 
Q 54.890625 34.8125 54.890625 23.390625 
Q 54.890625 11.625 47.5625 5.09375 
Q 40.234375 -1.421875 26.90625 -1.421875 
Q 22.3125 -1.421875 17.546875 -0.640625 
Q 12.796875 0.140625 7.71875 1.703125 
L 7.71875 11.625 
Q 12.109375 9.234375 16.796875 8.0625 
Q 21.484375 6.890625 26.703125 6.890625 
Q 35.15625 6.890625 40.078125 11.328125 
Q 45.015625 15.765625 45.015625 23.390625 
Q 45.015625 31 40.078125 35.4375 
Q 35.15625 39.890625 26.703125 39.890625 
Q 22.75 39.890625 18.8125 39.015625 
Q 14.890625 38.140625 10.796875 36.28125 
z
" id="DejaVuSans-53"/>
      </defs>
      <g transform="translate(121.760285 322.182437)scale(0.1 -0.1)">
       <use xlink:href="#DejaVuSans-53"/>
       <use x="63.623047" xlink:href="#DejaVuSans-48"/>
      </g>
     </g>
    </g>
    <g id="xtick_3">
     <g id="line2d_5">
      <path clip-path="url(#p7fff46f161)" d="M 182.412843 307.584 
L 182.412843 41.472 
" style="fill:none;stroke:#b0b0b0;stroke-linecap:square;stroke-width:0.8;"/>
     </g>
     <g id="line2d_6">
      <g>
       <use style="stroke:#000000;stroke-width:0.8;" x="182.412843" xlink:href="#mf9e8e65763" y="307.584"/>
      </g>
     </g>
     <g id="text_3">
      <!-- 100 -->
      <defs>
       <path d="M 12.40625 8.296875 
L 28.515625 8.296875 
L 28.515625 63.921875 
L 10.984375 60.40625 
L 10.984375 69.390625 
L 28.421875 72.90625 
L 38.28125 72.90625 
L 38.28125 8.296875 
L 54.390625 8.296875 
L 54.390625 0 
L 12.40625 0 
z
" id="DejaVuSans-49"/>
      </defs>
      <g transform="translate(172.869093 322.182437)scale(0.1 -0.1)">
       <use xlink:href="#DejaVuSans-49"/>
       <use x="63.623047" xlink:href="#DejaVuSans-48"/>
       <use x="127.246094" xlink:href="#DejaVuSans-48"/>
      </g>
     </g>
    </g>
    <g id="xtick_4">
     <g id="line2d_7">
      <path clip-path="url(#p7fff46f161)" d="M 236.702901 307.584 
L 236.702901 41.472 
" style="fill:none;stroke:#b0b0b0;stroke-linecap:square;stroke-width:0.8;"/>
     </g>
     <g id="line2d_8">
      <g>
       <use style="stroke:#000000;stroke-width:0.8;" x="236.702901" xlink:href="#mf9e8e65763" y="307.584"/>
      </g>
     </g>
     <g id="text_4">
      <!-- 150 -->
      <g transform="translate(227.159151 322.182437)scale(0.1 -0.1)">
       <use xlink:href="#DejaVuSans-49"/>
       <use x="63.623047" xlink:href="#DejaVuSans-53"/>
       <use x="127.246094" xlink:href="#DejaVuSans-48"/>
      </g>
     </g>
    </g>
    <g id="xtick_5">
     <g id="line2d_9">
      <path clip-path="url(#p7fff46f161)" d="M 290.992958 307.584 
L 290.992958 41.472 
" style="fill:none;stroke:#b0b0b0;stroke-linecap:square;stroke-width:0.8;"/>
     </g>
     <g id="line2d_10">
      <g>
       <use style="stroke:#000000;stroke-width:0.8;" x="290.992958" xlink:href="#mf9e8e65763" y="307.584"/>
      </g>
     </g>
     <g id="text_5">
      <!-- 200 -->
      <defs>
       <path d="M 19.1875 8.296875 
L 53.609375 8.296875 
L 53.609375 0 
L 7.328125 0 
L 7.328125 8.296875 
Q 12.9375 14.109375 22.625 23.890625 
Q 32.328125 33.6875 34.8125 36.53125 
Q 39.546875 41.84375 41.421875 45.53125 
Q 43.3125 49.21875 43.3125 52.78125 
Q 43.3125 58.59375 39.234375 62.25 
Q 35.15625 65.921875 28.609375 65.921875 
Q 23.96875 65.921875 18.8125 64.3125 
Q 13.671875 62.703125 7.8125 59.421875 
L 7.8125 69.390625 
Q 13.765625 71.78125 18.9375 73 
Q 24.125 74.21875 28.421875 74.21875 
Q 39.75 74.21875 46.484375 68.546875 
Q 53.21875 62.890625 53.21875 53.421875 
Q 53.21875 48.921875 51.53125 44.890625 
Q 49.859375 40.875 45.40625 35.40625 
Q 44.1875 33.984375 37.640625 27.21875 
Q 31.109375 20.453125 19.1875 8.296875 
z
" id="DejaVuSans-50"/>
      </defs>
      <g transform="translate(281.449208 322.182437)scale(0.1 -0.1)">
       <use xlink:href="#DejaVuSans-50"/>
       <use x="63.623047" xlink:href="#DejaVuSans-48"/>
       <use x="127.246094" xlink:href="#DejaVuSans-48"/>
      </g>
     </g>
    </g>
    <g id="xtick_6">
     <g id="line2d_11">
      <path clip-path="url(#p7fff46f161)" d="M 345.283016 307.584 
L 345.283016 41.472 
" style="fill:none;stroke:#b0b0b0;stroke-linecap:square;stroke-width:0.8;"/>
     </g>
     <g id="line2d_12">
      <g>
       <use style="stroke:#000000;stroke-width:0.8;" x="345.283016" xlink:href="#mf9e8e65763" y="307.584"/>
      </g>
     </g>
     <g id="text_6">
      <!-- 250 -->
      <g transform="translate(335.739266 322.182437)scale(0.1 -0.1)">
       <use xlink:href="#DejaVuSans-50"/>
       <use x="63.623047" xlink:href="#DejaVuSans-53"/>
       <use x="127.246094" xlink:href="#DejaVuSans-48"/>
      </g>
     </g>
    </g>
    <g id="xtick_7">
     <g id="line2d_13">
      <path clip-path="url(#p7fff46f161)" d="M 399.573074 307.584 
L 399.573074 41.472 
" style="fill:none;stroke:#b0b0b0;stroke-linecap:square;stroke-width:0.8;"/>
     </g>
     <g id="line2d_14">
      <g>
       <use style="stroke:#000000;stroke-width:0.8;" x="399.573074" xlink:href="#mf9e8e65763" y="307.584"/>
      </g>
     </g>
     <g id="text_7">
      <!-- 300 -->
      <defs>
       <path d="M 40.578125 39.3125 
Q 47.65625 37.796875 51.625 33 
Q 55.609375 28.21875 55.609375 21.1875 
Q 55.609375 10.40625 48.1875 4.484375 
Q 40.765625 -1.421875 27.09375 -1.421875 
Q 22.515625 -1.421875 17.65625 -0.515625 
Q 12.796875 0.390625 7.625 2.203125 
L 7.625 11.71875 
Q 11.71875 9.328125 16.59375 8.109375 
Q 21.484375 6.890625 26.8125 6.890625 
Q 36.078125 6.890625 40.9375 10.546875 
Q 45.796875 14.203125 45.796875 21.1875 
Q 45.796875 27.640625 41.28125 31.265625 
Q 36.765625 34.90625 28.71875 34.90625 
L 20.21875 34.90625 
L 20.21875 43.015625 
L 29.109375 43.015625 
Q 36.375 43.015625 40.234375 45.921875 
Q 44.09375 48.828125 44.09375 54.296875 
Q 44.09375 59.90625 40.109375 62.90625 
Q 36.140625 65.921875 28.71875 65.921875 
Q 24.65625 65.921875 20.015625 65.03125 
Q 15.375 64.15625 9.8125 62.3125 
L 9.8125 71.09375 
Q 15.4375 72.65625 20.34375 73.4375 
Q 25.25 74.21875 29.59375 74.21875 
Q 40.828125 74.21875 47.359375 69.109375 
Q 53.90625 64.015625 53.90625 55.328125 
Q 53.90625 49.265625 50.4375 45.09375 
Q 46.96875 40.921875 40.578125 39.3125 
z
" id="DejaVuSans-51"/>
      </defs>
      <g transform="translate(390.029324 322.182437)scale(0.1 -0.1)">
       <use xlink:href="#DejaVuSans-51"/>
       <use x="63.623047" xlink:href="#DejaVuSans-48"/>
       <use x="127.246094" xlink:href="#DejaVuSans-48"/>
      </g>
     </g>
    </g>
    <g id="text_8">
     <!-- Generations -->
     <defs>
      <path d="M 59.515625 10.40625 
L 59.515625 29.984375 
L 43.40625 29.984375 
L 43.40625 38.09375 
L 69.28125 38.09375 
L 69.28125 6.78125 
Q 63.578125 2.734375 56.6875 0.65625 
Q 49.8125 -1.421875 42 -1.421875 
Q 24.90625 -1.421875 15.25 8.5625 
Q 5.609375 18.5625 5.609375 36.375 
Q 5.609375 54.25 15.25 64.234375 
Q 24.90625 74.21875 42 74.21875 
Q 49.125 74.21875 55.546875 72.453125 
Q 61.96875 70.703125 67.390625 67.28125 
L 67.390625 56.78125 
Q 61.921875 61.421875 55.765625 63.765625 
Q 49.609375 66.109375 42.828125 66.109375 
Q 29.4375 66.109375 22.71875 58.640625 
Q 16.015625 51.171875 16.015625 36.375 
Q 16.015625 21.625 22.71875 14.15625 
Q 29.4375 6.6875 42.828125 6.6875 
Q 48.046875 6.6875 52.140625 7.59375 
Q 56.25 8.5 59.515625 10.40625 
z
" id="DejaVuSans-71"/>
      <path d="M 56.203125 29.59375 
L 56.203125 25.203125 
L 14.890625 25.203125 
Q 15.484375 15.921875 20.484375 11.0625 
Q 25.484375 6.203125 34.421875 6.203125 
Q 39.59375 6.203125 44.453125 7.46875 
Q 49.3125 8.734375 54.109375 11.28125 
L 54.109375 2.78125 
Q 49.265625 0.734375 44.1875 -0.34375 
Q 39.109375 -1.421875 33.890625 -1.421875 
Q 20.796875 -1.421875 13.15625 6.1875 
Q 5.515625 13.8125 5.515625 26.8125 
Q 5.515625 40.234375 12.765625 48.109375 
Q 20.015625 56 32.328125 56 
Q 43.359375 56 49.78125 48.890625 
Q 56.203125 41.796875 56.203125 29.59375 
z
M 47.21875 32.234375 
Q 47.125 39.59375 43.09375 43.984375 
Q 39.0625 48.390625 32.421875 48.390625 
Q 24.90625 48.390625 20.390625 44.140625 
Q 15.875 39.890625 15.1875 32.171875 
z
" id="DejaVuSans-101"/>
      <path d="M 54.890625 33.015625 
L 54.890625 0 
L 45.90625 0 
L 45.90625 32.71875 
Q 45.90625 40.484375 42.875 44.328125 
Q 39.84375 48.1875 33.796875 48.1875 
Q 26.515625 48.1875 22.3125 43.546875 
Q 18.109375 38.921875 18.109375 30.90625 
L 18.109375 0 
L 9.078125 0 
L 9.078125 54.6875 
L 18.109375 54.6875 
L 18.109375 46.1875 
Q 21.34375 51.125 25.703125 53.5625 
Q 30.078125 56 35.796875 56 
Q 45.21875 56 50.046875 50.171875 
Q 54.890625 44.34375 54.890625 33.015625 
z
" id="DejaVuSans-110"/>
      <path d="M 41.109375 46.296875 
Q 39.59375 47.171875 37.8125 47.578125 
Q 36.03125 48 33.890625 48 
Q 26.265625 48 22.1875 43.046875 
Q 18.109375 38.09375 18.109375 28.8125 
L 18.109375 0 
L 9.078125 0 
L 9.078125 54.6875 
L 18.109375 54.6875 
L 18.109375 46.1875 
Q 20.953125 51.171875 25.484375 53.578125 
Q 30.03125 56 36.53125 56 
Q 37.453125 56 38.578125 55.875 
Q 39.703125 55.765625 41.0625 55.515625 
z
" id="DejaVuSans-114"/>
      <path d="M 34.28125 27.484375 
Q 23.390625 27.484375 19.1875 25 
Q 14.984375 22.515625 14.984375 16.5 
Q 14.984375 11.71875 18.140625 8.90625 
Q 21.296875 6.109375 26.703125 6.109375 
Q 34.1875 6.109375 38.703125 11.40625 
Q 43.21875 16.703125 43.21875 25.484375 
L 43.21875 27.484375 
z
M 52.203125 31.203125 
L 52.203125 0 
L 43.21875 0 
L 43.21875 8.296875 
Q 40.140625 3.328125 35.546875 0.953125 
Q 30.953125 -1.421875 24.3125 -1.421875 
Q 15.921875 -1.421875 10.953125 3.296875 
Q 6 8.015625 6 15.921875 
Q 6 25.140625 12.171875 29.828125 
Q 18.359375 34.515625 30.609375 34.515625 
L 43.21875 34.515625 
L 43.21875 35.40625 
Q 43.21875 41.609375 39.140625 45 
Q 35.0625 48.390625 27.6875 48.390625 
Q 23 48.390625 18.546875 47.265625 
Q 14.109375 46.140625 10.015625 43.890625 
L 10.015625 52.203125 
Q 14.9375 54.109375 19.578125 55.046875 
Q 24.21875 56 28.609375 56 
Q 40.484375 56 46.34375 49.84375 
Q 52.203125 43.703125 52.203125 31.203125 
z
" id="DejaVuSans-97"/>
      <path d="M 18.3125 70.21875 
L 18.3125 54.6875 
L 36.8125 54.6875 
L 36.8125 47.703125 
L 18.3125 47.703125 
L 18.3125 18.015625 
Q 18.3125 11.328125 20.140625 9.421875 
Q 21.96875 7.515625 27.59375 7.515625 
L 36.8125 7.515625 
L 36.8125 0 
L 27.59375 0 
Q 17.1875 0 13.234375 3.875 
Q 9.28125 7.765625 9.28125 18.015625 
L 9.28125 47.703125 
L 2.6875 47.703125 
L 2.6875 54.6875 
L 9.28125 54.6875 
L 9.28125 70.21875 
z
" id="DejaVuSans-116"/>
      <path d="M 9.421875 54.6875 
L 18.40625 54.6875 
L 18.40625 0 
L 9.421875 0 
z
M 9.421875 75.984375 
L 18.40625 75.984375 
L 18.40625 64.59375 
L 9.421875 64.59375 
z
" id="DejaVuSans-105"/>
      <path d="M 30.609375 48.390625 
Q 23.390625 48.390625 19.1875 42.75 
Q 14.984375 37.109375 14.984375 27.296875 
Q 14.984375 17.484375 19.15625 11.84375 
Q 23.34375 6.203125 30.609375 6.203125 
Q 37.796875 6.203125 41.984375 11.859375 
Q 46.1875 17.53125 46.1875 27.296875 
Q 46.1875 37.015625 41.984375 42.703125 
Q 37.796875 48.390625 30.609375 48.390625 
z
M 30.609375 56 
Q 42.328125 56 49.015625 48.375 
Q 55.71875 40.765625 55.71875 27.296875 
Q 55.71875 13.875 49.015625 6.21875 
Q 42.328125 -1.421875 30.609375 -1.421875 
Q 18.84375 -1.421875 12.171875 6.21875 
Q 5.515625 13.875 5.515625 27.296875 
Q 5.515625 40.765625 12.171875 48.375 
Q 18.84375 56 30.609375 56 
z
" id="DejaVuSans-111"/>
      <path d="M 44.28125 53.078125 
L 44.28125 44.578125 
Q 40.484375 46.53125 36.375 47.5 
Q 32.28125 48.484375 27.875 48.484375 
Q 21.1875 48.484375 17.84375 46.4375 
Q 14.5 44.390625 14.5 40.28125 
Q 14.5 37.15625 16.890625 35.375 
Q 19.28125 33.59375 26.515625 31.984375 
L 29.59375 31.296875 
Q 39.15625 29.25 43.1875 25.515625 
Q 47.21875 21.78125 47.21875 15.09375 
Q 47.21875 7.46875 41.1875 3.015625 
Q 35.15625 -1.421875 24.609375 -1.421875 
Q 20.21875 -1.421875 15.453125 -0.5625 
Q 10.6875 0.296875 5.421875 2 
L 5.421875 11.28125 
Q 10.40625 8.6875 15.234375 7.390625 
Q 20.0625 6.109375 24.8125 6.109375 
Q 31.15625 6.109375 34.5625 8.28125 
Q 37.984375 10.453125 37.984375 14.40625 
Q 37.984375 18.0625 35.515625 20.015625 
Q 33.0625 21.96875 24.703125 23.78125 
L 21.578125 24.515625 
Q 13.234375 26.265625 9.515625 29.90625 
Q 5.8125 33.546875 5.8125 39.890625 
Q 5.8125 47.609375 11.28125 51.796875 
Q 16.75 56 26.8125 56 
Q 31.78125 56 36.171875 55.265625 
Q 40.578125 54.546875 44.28125 53.078125 
z
" id="DejaVuSans-115"/>
     </defs>
     <g transform="translate(205.662344 335.860562)scale(0.1 -0.1)">
      <use xlink:href="#DejaVuSans-71"/>
      <use x="77.490234" xlink:href="#DejaVuSans-101"/>
      <use x="139.013672" xlink:href="#DejaVuSans-110"/>
      <use x="202.392578" xlink:href="#DejaVuSans-101"/>
      <use x="263.916016" xlink:href="#DejaVuSans-114"/>
      <use x="305.029297" xlink:href="#DejaVuSans-97"/>
      <use x="366.308594" xlink:href="#DejaVuSans-116"/>
      <use x="405.517578" xlink:href="#DejaVuSans-105"/>
      <use x="433.300781" xlink:href="#DejaVuSans-111"/>
      <use x="494.482422" xlink:href="#DejaVuSans-110"/>
      <use x="557.861328" xlink:href="#DejaVuSans-115"/>
     </g>
    </g>
   </g>
   <g id="matplotlib.axis_2">
    <g id="ytick_1">
     <g id="line2d_15">
      <path clip-path="url(#p7fff46f161)" d="M 57.6 276.190737 
L 414.72 276.190737 
" style="fill:none;stroke:#b0b0b0;stroke-linecap:square;stroke-width:0.8;"/>
     </g>
     <g id="line2d_16">
      <defs>
       <path d="M 0 0 
L -3.5 0 
" id="m96d06769f7" style="stroke:#000000;stroke-width:0.8;"/>
      </defs>
      <g>
       <use style="stroke:#000000;stroke-width:0.8;" x="57.6" xlink:href="#m96d06769f7" y="276.190737"/>
      </g>
     </g>
     <g id="text_9">
      <!-- 500 -->
      <g transform="translate(31.5125 279.989956)scale(0.1 -0.1)">
       <use xlink:href="#DejaVuSans-53"/>
       <use x="63.623047" xlink:href="#DejaVuSans-48"/>
       <use x="127.246094" xlink:href="#DejaVuSans-48"/>
      </g>
     </g>
    </g>
    <g id="ytick_2">
     <g id="line2d_17">
      <path clip-path="url(#p7fff46f161)" d="M 57.6 218.193318 
L 414.72 218.193318 
" style="fill:none;stroke:#b0b0b0;stroke-linecap:square;stroke-width:0.8;"/>
     </g>
     <g id="line2d_18">
      <g>
       <use style="stroke:#000000;stroke-width:0.8;" x="57.6" xlink:href="#m96d06769f7" y="218.193318"/>
      </g>
     </g>
     <g id="text_10">
      <!-- 1000 -->
      <g transform="translate(25.15 221.992536)scale(0.1 -0.1)">
       <use xlink:href="#DejaVuSans-49"/>
       <use x="63.623047" xlink:href="#DejaVuSans-48"/>
       <use x="127.246094" xlink:href="#DejaVuSans-48"/>
       <use x="190.869141" xlink:href="#DejaVuSans-48"/>
      </g>
     </g>
    </g>
    <g id="ytick_3">
     <g id="line2d_19">
      <path clip-path="url(#p7fff46f161)" d="M 57.6 160.195898 
L 414.72 160.195898 
" style="fill:none;stroke:#b0b0b0;stroke-linecap:square;stroke-width:0.8;"/>
     </g>
     <g id="line2d_20">
      <g>
       <use style="stroke:#000000;stroke-width:0.8;" x="57.6" xlink:href="#m96d06769f7" y="160.195898"/>
      </g>
     </g>
     <g id="text_11">
      <!-- 1500 -->
      <g transform="translate(25.15 163.995117)scale(0.1 -0.1)">
       <use xlink:href="#DejaVuSans-49"/>
       <use x="63.623047" xlink:href="#DejaVuSans-53"/>
       <use x="127.246094" xlink:href="#DejaVuSans-48"/>
       <use x="190.869141" xlink:href="#DejaVuSans-48"/>
      </g>
     </g>
    </g>
    <g id="ytick_4">
     <g id="line2d_21">
      <path clip-path="url(#p7fff46f161)" d="M 57.6 102.198479 
L 414.72 102.198479 
" style="fill:none;stroke:#b0b0b0;stroke-linecap:square;stroke-width:0.8;"/>
     </g>
     <g id="line2d_22">
      <g>
       <use style="stroke:#000000;stroke-width:0.8;" x="57.6" xlink:href="#m96d06769f7" y="102.198479"/>
      </g>
     </g>
     <g id="text_12">
      <!-- 2000 -->
      <g transform="translate(25.15 105.997698)scale(0.1 -0.1)">
       <use xlink:href="#DejaVuSans-50"/>
       <use x="63.623047" xlink:href="#DejaVuSans-48"/>
       <use x="127.246094" xlink:href="#DejaVuSans-48"/>
       <use x="190.869141" xlink:href="#DejaVuSans-48"/>
      </g>
     </g>
    </g>
    <g id="ytick_5">
     <g id="line2d_23">
      <path clip-path="url(#p7fff46f161)" d="M 57.6 44.20106 
L 414.72 44.20106 
" style="fill:none;stroke:#b0b0b0;stroke-linecap:square;stroke-width:0.8;"/>
     </g>
     <g id="line2d_24">
      <g>
       <use style="stroke:#000000;stroke-width:0.8;" x="57.6" xlink:href="#m96d06769f7" y="44.20106"/>
      </g>
     </g>
     <g id="text_13">
      <!-- 2500 -->
      <g transform="translate(25.15 48.000279)scale(0.1 -0.1)">
       <use xlink:href="#DejaVuSans-50"/>
       <use x="63.623047" xlink:href="#DejaVuSans-53"/>
       <use x="127.246094" xlink:href="#DejaVuSans-48"/>
       <use x="190.869141" xlink:href="#DejaVuSans-48"/>
      </g>
     </g>
    </g>
    <g id="text_14">
     <!-- Fitness -->
     <defs>
      <path d="M 9.8125 72.90625 
L 51.703125 72.90625 
L 51.703125 64.59375 
L 19.671875 64.59375 
L 19.671875 43.109375 
L 48.578125 43.109375 
L 48.578125 34.8125 
L 19.671875 34.8125 
L 19.671875 0 
L 9.8125 0 
z
" id="DejaVuSans-70"/>
     </defs>
     <g transform="translate(19.070312 192.202219)rotate(-90)scale(0.1 -0.1)">
      <use xlink:href="#DejaVuSans-70"/>
      <use x="57.410156" xlink:href="#DejaVuSans-105"/>
      <use x="85.193359" xlink:href="#DejaVuSans-116"/>
      <use x="124.402344" xlink:href="#DejaVuSans-110"/>
      <use x="187.78125" xlink:href="#DejaVuSans-101"/>
      <use x="249.304688" xlink:href="#DejaVuSans-115"/>
      <use x="301.404297" xlink:href="#DejaVuSans-115"/>
     </g>
    </g>
   </g>
   <g id="line2d_25">
    <path clip-path="url(#p7fff46f161)" d="M 73.832727 279.600008 
L 74.918528 263.13963 
L 76.00433 256.779166 
L 77.090131 256.733724 
L 78.175932 253.036633 
L 79.261733 250.243904 
L 80.347534 248.284406 
L 81.433335 244.569306 
L 82.519137 237.749878 
L 83.604938 229.454109 
L 84.690739 237.306203 
L 85.77654 236.406736 
L 86.862341 232.893869 
L 87.948142 234.591102 
L 89.033943 237.561532 
L 90.119745 225.861963 
L 91.205546 233.997062 
L 92.291347 232.596008 
L 93.377148 227.535178 
L 94.462949 225.474871 
L 95.54875 227.152176 
L 96.634552 228.01098 
L 97.720353 221.955192 
L 98.806154 235.552301 
L 99.891955 223.971042 
L 100.977756 220.021753 
L 102.063557 229.448298 
L 103.149358 217.180041 
L 104.23516 224.708687 
L 105.320961 227.339238 
L 106.406762 217.465335 
L 107.492563 212.343363 
L 108.578364 215.418595 
L 109.664165 220.886185 
L 110.749967 221.950017 
L 111.835768 228.228034 
L 112.921569 216.967781 
L 114.00737 220.713896 
L 115.093171 215.495338 
L 116.178972 231.498808 
L 117.264773 222.825184 
L 118.350575 224.425835 
L 119.436376 226.379156 
L 120.522177 208.336099 
L 121.607978 209.39102 
L 122.693779 209.795915 
L 123.77958 218.461904 
L 124.865382 210.88219 
L 125.951183 186.076856 
L 127.036984 187.719939 
L 128.122785 177.928871 
L 129.208586 199.156481 
L 130.294387 190.208225 
L 131.380189 201.350697 
L 132.46599 192.985175 
L 133.551791 182.396288 
L 134.637592 188.284451 
L 135.723393 205.789762 
L 136.809194 201.752837 
L 137.894995 190.396571 
L 138.980797 190.153622 
L 140.066598 187.861796 
L 141.152399 178.92318 
L 142.2382 195.446956 
L 143.324001 197.486791 
L 144.409802 181.566478 
L 145.495604 183.698019 
L 146.581405 171.8463 
L 147.667206 183.784499 
L 148.753007 193.603119 
L 149.838808 171.378749 
L 150.924609 177.656758 
L 152.01041 174.254652 
L 153.096212 171.326027 
L 155.267814 204.744644 
L 156.353615 192.095925 
L 157.439416 192.96069 
L 158.525217 207.428373 
L 159.611019 183.59896 
L 160.69682 196.021467 
L 161.782621 184.284791 
L 162.868422 185.767635 
L 163.954223 180.280982 
L 165.040024 175.683771 
L 166.125825 178.636634 
L 167.211627 193.705953 
L 168.297428 165.562173 
L 169.383229 175.578408 
L 170.46903 172.793855 
L 171.554831 162.036314 
L 172.640632 176.149335 
L 173.726434 161.766273 
L 174.812235 181.296948 
L 175.898036 163.386851 
L 176.983837 168.131443 
L 178.069638 180.446545 
L 180.24124 169.02069 
L 181.327042 170.742908 
L 182.412843 182.326554 
L 183.498644 164.554733 
L 184.584445 150.834934 
L 185.670246 170.908709 
L 186.756047 155.36919 
L 187.841849 167.735828 
L 188.92765 183.861396 
L 190.013451 177.886206 
L 191.099252 174.693859 
L 192.185053 181.814648 
L 193.270854 174.553787 
L 194.356656 196.940015 
L 195.442457 160.832447 
L 196.528258 169.921018 
L 197.614059 188.642387 
L 198.69986 183.22464 
L 199.785661 186.239143 
L 200.871462 188.922787 
L 201.957264 176.545348 
L 203.043065 191.839988 
L 204.128866 173.570219 
L 205.214667 187.589714 
L 206.300468 181.709799 
L 207.386269 162.245488 
L 208.472071 169.937092 
L 209.557872 159.805605 
L 210.643673 163.894844 
L 211.729474 183.359545 
L 212.815275 170.053724 
L 213.901076 159.391231 
L 214.986877 179.843196 
L 216.072679 174.065975 
L 217.15848 160.038359 
L 218.244281 183.629823 
L 219.330082 175.341318 
L 220.415883 171.654971 
L 221.501684 180.173023 
L 222.587486 184.464841 
L 223.673287 180.843542 
L 224.759088 179.880973 
L 225.844889 162.074053 
L 226.93069 164.983335 
L 228.016491 171.339467 
L 229.102292 163.062222 
L 230.188094 160.87821 
L 231.273895 192.469693 
L 232.359696 186.58367 
L 233.445497 195.673465 
L 234.531298 154.038165 
L 235.617099 156.784558 
L 236.702901 197.200186 
L 237.788702 176.879039 
L 238.874503 181.127514 
L 239.960304 165.381949 
L 241.046105 177.254555 
L 242.131906 185.993275 
L 243.217708 172.529304 
L 244.303509 167.409829 
L 245.38931 159.985576 
L 246.475111 158.297786 
L 247.560912 169.682432 
L 248.646713 173.424659 
L 249.732514 162.750292 
L 250.818316 176.771192 
L 251.904117 176.411159 
L 252.989918 162.441017 
L 254.075719 163.00167 
L 255.16152 160.305033 
L 256.247321 163.274796 
L 257.333123 153.282185 
L 258.418924 173.059999 
L 259.504725 134.546863 
L 260.590526 141.336519 
L 261.676327 156.25612 
L 262.762128 167.274277 
L 263.847929 165.525402 
L 264.933731 161.683504 
L 266.019532 166.684456 
L 267.105333 162.782604 
L 268.191134 146.370994 
L 269.276935 165.431189 
L 270.362736 195.754457 
L 271.448538 163.076451 
L 272.534339 144.463209 
L 273.62014 174.492841 
L 274.705941 148.504805 
L 275.791742 152.507335 
L 276.877543 176.001344 
L 277.963344 167.415228 
L 279.049146 146.138119 
L 280.134947 165.294432 
L 281.220748 162.904313 
L 282.306549 166.115088 
L 283.39235 168.17711 
L 284.478151 162.295726 
L 285.563953 171.490766 
L 286.649754 162.313763 
L 287.735555 147.363938 
L 289.907157 152.680466 
L 290.992958 179.120588 
L 292.07876 172.375231 
L 293.164561 167.388137 
L 294.250362 159.7312 
L 295.336163 156.052499 
L 296.421964 159.834285 
L 297.507765 164.807275 
L 298.593566 156.811693 
L 299.679368 162.529282 
L 300.765169 188.466132 
L 301.85097 167.274552 
L 302.936771 171.613161 
L 304.022572 180.362139 
L 305.108373 169.101564 
L 306.194175 168.837873 
L 307.279976 174.023043 
L 308.365777 159.267775 
L 309.451578 168.353061 
L 311.62318 162.019921 
L 312.708981 154.678348 
L 313.794783 152.751337 
L 314.880584 151.321715 
L 315.966385 159.277513 
L 317.052186 137.977665 
L 318.137987 154.290342 
L 319.223788 154.6064 
L 320.30959 163.181654 
L 321.395391 147.22691 
L 322.481192 153.95437 
L 323.566993 146.619774 
L 324.652794 166.791233 
L 325.738595 165.935163 
L 326.824396 157.486102 
L 327.910198 159.559022 
L 328.995999 174.186564 
L 330.0818 167.575594 
L 331.167601 174.418888 
L 332.253402 165.992216 
L 333.339203 169.379594 
L 334.425005 180.151839 
L 335.510806 157.418479 
L 336.596607 165.752242 
L 337.682408 157.177949 
L 338.768209 173.800083 
L 339.85401 169.471588 
L 340.939811 185.811293 
L 342.025613 176.067718 
L 343.111414 174.465938 
L 344.197215 196.961291 
L 345.283016 163.032381 
L 346.368817 151.748021 
L 347.454618 171.009933 
L 348.54042 174.36957 
L 349.626221 173.780034 
L 350.712022 173.530828 
L 351.797823 179.511595 
L 352.883624 174.706767 
L 353.969425 164.579954 
L 355.055227 156.24548 
L 356.141028 177.431678 
L 357.226829 185.336044 
L 358.31263 159.423857 
L 359.398431 173.19799 
L 360.484232 151.160254 
L 362.655835 185.486036 
L 363.741636 171.400131 
L 364.827437 169.370929 
L 365.913238 176.962968 
L 366.999039 167.356079 
L 368.08484 159.960424 
L 369.170642 166.320482 
L 370.256443 164.777546 
L 371.342244 154.684048 
L 372.428045 180.935368 
L 373.513846 187.450397 
L 374.599647 176.065368 
L 375.685448 161.70538 
L 376.77125 164.534933 
L 377.857051 172.213118 
L 378.942852 155.760121 
L 380.028653 163.067999 
L 381.114454 168.821739 
L 382.200255 180.730999 
L 383.286057 188.316171 
L 384.371858 168.115701 
L 385.457659 161.827836 
L 386.54346 171.406861 
L 387.629261 152.592553 
L 388.715062 144.214129 
L 389.800863 157.94825 
L 390.886665 159.124374 
L 391.972466 163.570524 
L 393.058267 170.249638 
L 394.144068 170.435351 
L 395.229869 169.954082 
L 396.31567 183.011592 
L 397.401472 154.249028 
L 398.487273 168.409572 
L 398.487273 168.409572 
" style="fill:none;stroke:#0000ff;stroke-linecap:square;stroke-width:1.5;"/>
   </g>
   <g id="line2d_26">
    <path clip-path="url(#p7fff46f161)" d="M 73.832727 295.488 
L 74.918528 274.955358 
L 76.00433 267.380523 
L 77.090131 272.401261 
L 78.175932 273.895289 
L 79.261733 275.687461 
L 80.347534 279.604915 
L 81.433335 274.471452 
L 82.519137 268.52663 
L 83.604938 261.233604 
L 84.690739 273.218481 
L 85.77654 271.33305 
L 86.862341 263.994783 
L 87.948142 260.553999 
L 89.033943 275.60766 
L 90.119745 263.325818 
L 91.205546 272.423593 
L 92.291347 272.625183 
L 93.377148 261.644813 
L 94.462949 258.949307 
L 96.634552 264.590029 
L 97.720353 253.539003 
L 98.806154 272.472871 
L 99.891955 256.990093 
L 100.977756 252.860803 
L 102.063557 263.295602 
L 103.149358 249.944087 
L 105.320961 266.068609 
L 106.406762 253.279982 
L 107.492563 247.448358 
L 108.578364 250.665104 
L 109.664165 247.925535 
L 111.835768 266.743034 
L 112.921569 250.518807 
L 114.00737 260.864678 
L 115.093171 250.122251 
L 116.178972 275.238695 
L 117.264773 267.920643 
L 118.350575 262.600727 
L 119.436376 272.757341 
L 120.522177 252.118563 
L 121.607978 258.737249 
L 122.693779 261.111423 
L 123.77958 274.004407 
L 124.865382 264.650485 
L 125.951183 241.82611 
L 127.036984 245.69199 
L 128.122785 229.593539 
L 129.208586 239.721111 
L 130.294387 238.834572 
L 131.380189 256.781722 
L 132.46599 245.26609 
L 133.551791 241.715932 
L 134.637592 249.221367 
L 135.723393 276.832481 
L 136.809194 271.968964 
L 137.894995 243.000074 
L 138.980797 244.364287 
L 140.066598 243.643282 
L 141.152399 234.313545 
L 142.2382 250.821351 
L 143.324001 262.701669 
L 144.409802 235.942096 
L 145.495604 249.193876 
L 146.581405 234.802144 
L 147.667206 254.867476 
L 148.753007 259.719008 
L 149.838808 226.519715 
L 150.924609 236.025181 
L 152.01041 235.224097 
L 153.096212 219.773073 
L 154.182013 230.324509 
L 155.267814 263.842043 
L 156.353615 241.803528 
L 157.439416 243.964163 
L 158.525217 263.918963 
L 159.611019 239.434767 
L 160.69682 250.369383 
L 161.782621 240.186538 
L 162.868422 246.032658 
L 163.954223 234.598401 
L 165.040024 237.477061 
L 166.125825 233.701814 
L 167.211627 264.478955 
L 168.297428 237.851568 
L 169.383229 256.479367 
L 170.46903 247.622812 
L 171.554831 227.316939 
L 172.640632 246.688846 
L 173.726434 233.32103 
L 174.812235 241.110842 
L 175.898036 221.473319 
L 176.983837 216.353537 
L 178.069638 239.234937 
L 179.155439 231.437994 
L 180.24124 236.136186 
L 181.327042 235.743418 
L 182.412843 243.00221 
L 183.498644 224.103022 
L 184.584445 212.813655 
L 185.670246 227.436686 
L 186.756047 215.981728 
L 187.841849 220.737546 
L 188.92765 247.404158 
L 190.013451 234.442847 
L 191.099252 226.210979 
L 192.185053 245.004048 
L 193.270854 228.129046 
L 194.356656 255.464121 
L 195.442457 207.480112 
L 197.614059 233.041427 
L 199.785661 240.783648 
L 200.871462 245.680588 
L 201.957264 233.200439 
L 203.043065 265.527055 
L 204.128866 229.27405 
L 205.214667 256.099336 
L 206.300468 242.940097 
L 207.386269 227.918664 
L 208.472071 223.137802 
L 209.557872 213.016993 
L 210.643673 220.717025 
L 211.729474 234.85493 
L 212.815275 236.765189 
L 213.901076 231.810419 
L 214.986877 245.640879 
L 217.15848 210.727609 
L 218.244281 235.730915 
L 219.330082 249.295843 
L 220.415883 224.99651 
L 221.501684 234.274829 
L 222.587486 240.73711 
L 223.673287 241.873399 
L 224.759088 237.556453 
L 225.844889 218.362386 
L 226.93069 230.841899 
L 228.016491 224.389552 
L 229.102292 221.385594 
L 230.188094 211.427275 
L 231.273895 241.344295 
L 232.359696 245.170707 
L 233.445497 257.472613 
L 234.531298 208.906243 
L 235.617099 212.531291 
L 236.702901 246.128637 
L 237.788702 230.315125 
L 238.874503 237.774982 
L 239.960304 217.679856 
L 241.046105 227.762176 
L 242.131906 242.050117 
L 243.217708 220.751652 
L 244.303509 220.190895 
L 245.38931 211.295083 
L 246.475111 220.4545 
L 247.560912 221.013347 
L 248.646713 231.773681 
L 249.732514 219.524019 
L 250.818316 239.039484 
L 251.904117 226.813301 
L 252.989918 204.455207 
L 254.075719 219.046122 
L 255.16152 228.305581 
L 256.247321 217.585024 
L 257.333123 211.918963 
L 258.418924 233.728656 
L 259.504725 205.932942 
L 260.590526 215.512647 
L 261.676327 212.851191 
L 262.762128 232.76899 
L 263.847929 233.457447 
L 264.933731 217.91421 
L 266.019532 231.815116 
L 267.105333 207.604546 
L 268.191134 204.156414 
L 270.362736 257.424665 
L 271.448538 207.98821 
L 272.534339 202.777723 
L 273.62014 222.724522 
L 274.705941 203.246274 
L 275.791742 203.81785 
L 276.877543 245.541629 
L 277.963344 240.316404 
L 279.049146 206.434974 
L 280.134947 225.161868 
L 281.220748 221.341177 
L 282.306549 242.016172 
L 283.39235 230.537696 
L 284.478151 215.071552 
L 285.563953 222.420293 
L 286.649754 219.139011 
L 287.735555 205.69234 
L 289.907157 216.999385 
L 290.992958 246.449609 
L 292.07876 224.333729 
L 293.164561 227.0652 
L 294.250362 218.499032 
L 295.336163 218.759886 
L 296.421964 212.993629 
L 297.507765 229.43487 
L 298.593566 219.6006 
L 299.679368 221.511634 
L 300.765169 241.955242 
L 301.85097 219.281161 
L 302.936771 232.556222 
L 304.022572 248.537422 
L 305.108373 228.429832 
L 306.194175 222.537028 
L 307.279976 236.225362 
L 308.365777 207.612637 
L 309.451578 236.150842 
L 310.537379 225.471822 
L 311.62318 219.277266 
L 312.708981 202.252736 
L 313.794783 214.269592 
L 314.880584 207.203647 
L 315.966385 211.9132 
L 317.052186 194.446662 
L 318.137987 201.998203 
L 319.223788 197.546824 
L 320.30959 214.509861 
L 321.395391 193.956729 
L 322.481192 208.505237 
L 323.566993 197.556978 
L 324.652794 231.681521 
L 325.738595 225.173212 
L 326.824396 208.004734 
L 327.910198 217.061268 
L 328.995999 220.515829 
L 330.0818 218.260767 
L 331.167601 237.132763 
L 332.253402 220.75267 
L 333.339203 218.731927 
L 334.425005 225.991483 
L 335.510806 209.140301 
L 336.596607 220.878428 
L 337.682408 204.202197 
L 338.768209 222.710937 
L 339.85401 231.001184 
L 340.939811 232.309025 
L 342.025613 227.375129 
L 343.111414 229.83334 
L 344.197215 249.693666 
L 345.283016 226.854047 
L 346.368817 195.261984 
L 347.454618 224.345037 
L 348.54042 224.220284 
L 349.626221 235.190568 
L 350.712022 227.445474 
L 351.797823 227.621002 
L 352.883624 223.558563 
L 353.969425 222.247067 
L 355.055227 211.639361 
L 356.141028 226.371408 
L 357.226829 246.963531 
L 358.31263 230.567204 
L 359.398431 229.401367 
L 360.484232 193.457768 
L 361.570033 218.970817 
L 362.655835 235.703181 
L 363.741636 224.389252 
L 364.827437 226.473524 
L 365.913238 227.615622 
L 366.999039 216.613184 
L 368.08484 221.674569 
L 369.170642 229.474196 
L 370.256443 222.545196 
L 371.342244 208.655633 
L 372.428045 248.219969 
L 373.513846 247.310629 
L 374.599647 236.131013 
L 375.685448 221.094333 
L 376.77125 220.741027 
L 377.857051 217.932457 
L 378.942852 207.264304 
L 380.028653 215.974841 
L 381.114454 221.965385 
L 382.200255 242.30726 
L 383.286057 254.65696 
L 384.371858 215.263962 
L 385.457659 220.651582 
L 386.54346 227.262152 
L 387.629261 213.086385 
L 388.715062 196.14024 
L 389.800863 217.879109 
L 390.886665 217.710821 
L 391.972466 212.722789 
L 393.058267 238.22539 
L 394.144068 222.359019 
L 395.229869 219.740765 
L 396.31567 238.026124 
L 397.401472 198.744744 
L 398.487273 222.562045 
L 398.487273 222.562045 
" style="fill:none;stroke:#008000;stroke-dasharray:9.6,2.4,1.5,2.4;stroke-dashoffset:0;stroke-width:1.5;"/>
   </g>
   <g id="line2d_27">
    <path clip-path="url(#p7fff46f161)" d="M 73.832727 263.712016 
L 74.918528 251.323901 
L 77.090131 241.066188 
L 78.175932 232.177978 
L 80.347534 216.963897 
L 81.433335 214.667159 
L 82.519137 206.973126 
L 83.604938 197.674613 
L 84.690739 201.393925 
L 85.77654 201.480421 
L 86.862341 201.792955 
L 87.948142 208.628205 
L 89.033943 199.515404 
L 90.119745 188.398108 
L 91.205546 195.570531 
L 92.291347 192.566832 
L 93.377148 193.425543 
L 94.462949 192.000435 
L 95.54875 192.621019 
L 97.720353 190.37138 
L 98.806154 198.631731 
L 99.891955 190.951992 
L 100.977756 187.182702 
L 102.063557 195.600994 
L 103.149358 184.415995 
L 104.23516 191.171127 
L 105.320961 188.609867 
L 106.406762 181.650688 
L 107.492563 177.238368 
L 108.578364 180.172085 
L 109.664165 193.846836 
L 110.749967 186.145195 
L 111.835768 189.713034 
L 112.921569 183.416755 
L 114.00737 180.563113 
L 115.093171 180.868425 
L 116.178972 187.75892 
L 117.264773 177.729725 
L 118.350575 186.250942 
L 119.436376 180.00097 
L 120.522177 164.553635 
L 121.607978 160.044791 
L 122.693779 158.480407 
L 123.77958 162.919401 
L 124.865382 157.113894 
L 125.951183 130.327602 
L 127.036984 129.747888 
L 128.122785 126.264204 
L 129.208586 158.591851 
L 130.294387 141.581878 
L 131.380189 145.919671 
L 132.46599 140.704261 
L 133.551791 123.076644 
L 134.637592 127.347536 
L 135.723393 134.747042 
L 136.809194 131.536711 
L 137.894995 137.793069 
L 138.980797 135.942958 
L 140.066598 132.08031 
L 141.152399 123.532814 
L 142.2382 140.072562 
L 143.324001 132.271913 
L 144.409802 127.19086 
L 146.581405 108.890457 
L 147.667206 112.701521 
L 148.753007 127.487229 
L 149.838808 116.237783 
L 150.924609 119.288335 
L 152.01041 113.285208 
L 153.096212 122.878981 
L 154.182013 144.555538 
L 155.267814 145.647246 
L 156.353615 142.388322 
L 157.439416 141.957217 
L 158.525217 150.937782 
L 159.611019 127.763154 
L 160.69682 141.673552 
L 161.782621 128.383043 
L 162.868422 125.502612 
L 163.954223 125.963564 
L 165.040024 113.890481 
L 166.125825 123.571453 
L 167.211627 122.932951 
L 168.297428 93.272778 
L 169.383229 94.677449 
L 170.46903 97.964899 
L 171.554831 96.755688 
L 172.640632 105.609824 
L 173.726434 90.211516 
L 174.812235 121.483054 
L 175.898036 105.300382 
L 176.983837 119.90935 
L 178.069638 121.658152 
L 179.155439 117.544612 
L 180.24124 101.905194 
L 181.327042 105.742398 
L 182.412843 121.650897 
L 184.584445 88.856213 
L 185.670246 114.380733 
L 186.756047 94.756652 
L 187.841849 114.734111 
L 188.92765 120.318635 
L 190.013451 121.329564 
L 191.099252 123.176739 
L 192.185053 118.625249 
L 193.270854 120.978528 
L 194.356656 138.415909 
L 195.442457 114.184782 
L 196.528258 119.774491 
L 197.614059 144.243346 
L 198.69986 129.353589 
L 199.785661 131.694638 
L 200.871462 132.164986 
L 201.957264 119.890257 
L 203.043065 118.152922 
L 204.128866 117.866388 
L 205.214667 119.080093 
L 206.300468 120.4795 
L 207.386269 96.572313 
L 208.472071 116.736382 
L 209.557872 106.594217 
L 210.643673 107.072664 
L 211.729474 131.864161 
L 212.815275 103.34226 
L 213.901076 86.972042 
L 214.986877 114.045513 
L 216.072679 120.08934 
L 217.15848 109.34911 
L 218.244281 131.528731 
L 219.330082 101.386793 
L 220.415883 118.313431 
L 221.501684 126.071216 
L 222.587486 128.192573 
L 223.673287 119.813685 
L 224.759088 122.205493 
L 225.844889 105.78572 
L 226.93069 99.12477 
L 228.016491 118.289382 
L 229.102292 104.738851 
L 230.188094 110.329144 
L 231.273895 143.595091 
L 232.359696 127.996634 
L 233.445497 133.874318 
L 234.531298 99.170086 
L 235.617099 101.037825 
L 236.702901 148.271735 
L 237.788702 123.442954 
L 238.874503 124.480046 
L 239.960304 113.084043 
L 241.046105 126.746934 
L 242.131906 129.936433 
L 243.217708 124.306957 
L 244.303509 114.628763 
L 245.38931 108.676069 
L 246.475111 96.141072 
L 247.560912 118.351518 
L 248.646713 115.075637 
L 249.732514 105.976564 
L 250.818316 114.502901 
L 251.904117 126.009017 
L 252.989918 120.426826 
L 255.16152 92.304484 
L 256.247321 108.964569 
L 257.333123 94.645407 
L 258.418924 112.391341 
L 259.504725 63.160784 
L 260.590526 67.16039 
L 261.676327 99.661049 
L 262.762128 101.779565 
L 263.847929 97.593358 
L 264.933731 105.452799 
L 266.019532 101.553796 
L 267.105333 117.960662 
L 268.191134 88.585574 
L 269.276935 99.292559 
L 270.362736 134.084249 
L 271.448538 118.164691 
L 272.534339 86.148694 
L 273.62014 126.261159 
L 274.705941 93.763336 
L 275.791742 101.19682 
L 276.877543 106.46106 
L 277.963344 94.514052 
L 279.049146 85.841265 
L 280.134947 105.426996 
L 281.220748 104.467448 
L 282.306549 90.214004 
L 283.39235 105.816524 
L 284.478151 109.5199 
L 285.563953 120.561239 
L 287.735555 89.035535 
L 288.821356 88.406143 
L 289.907157 88.361546 
L 290.992958 111.791567 
L 292.07876 120.416732 
L 293.164561 107.711074 
L 294.250362 100.963367 
L 295.336163 93.345112 
L 296.421964 106.674942 
L 298.593566 94.022785 
L 299.679368 103.546931 
L 300.765169 134.977022 
L 301.85097 115.267942 
L 302.936771 110.670101 
L 304.022572 112.186856 
L 305.108373 109.773296 
L 306.194175 115.138717 
L 307.279976 111.820724 
L 308.365777 110.922912 
L 309.451578 100.555279 
L 310.537379 105.176397 
L 311.62318 104.762576 
L 312.708981 107.10396 
L 313.794783 91.233082 
L 314.880584 95.439783 
L 315.966385 106.641826 
L 317.052186 81.508667 
L 318.137987 106.582482 
L 319.223788 111.665975 
L 320.30959 111.853447 
L 321.395391 100.497091 
L 322.481192 99.403502 
L 323.566993 95.682569 
L 324.652794 101.900944 
L 325.738595 106.697113 
L 326.824396 106.967469 
L 327.910198 102.056775 
L 328.995999 127.857299 
L 330.0818 116.890421 
L 331.167601 111.705013 
L 332.253402 111.231763 
L 333.339203 120.027261 
L 334.425005 134.312195 
L 335.510806 105.696657 
L 336.596607 110.626056 
L 337.682408 110.1537 
L 338.768209 124.889228 
L 339.85401 107.941992 
L 340.939811 139.313561 
L 342.025613 124.760308 
L 343.111414 119.098536 
L 344.197215 144.228915 
L 345.283016 99.210715 
L 347.454618 117.674829 
L 348.54042 124.518856 
L 349.626221 112.3695 
L 350.712022 119.616183 
L 351.797823 131.402189 
L 352.883624 125.854971 
L 353.969425 106.912842 
L 355.055227 100.8516 
L 356.141028 128.491949 
L 357.226829 123.708557 
L 358.31263 88.28051 
L 359.398431 116.994612 
L 360.484232 108.86274 
L 361.570033 116.748318 
L 362.655835 135.26889 
L 363.741636 118.411009 
L 364.827437 112.268334 
L 365.913238 126.310313 
L 366.999039 118.098975 
L 368.08484 98.24628 
L 369.170642 103.166767 
L 370.256443 107.009897 
L 371.342244 100.712462 
L 373.513846 127.590165 
L 374.599647 115.999722 
L 375.685448 102.316427 
L 376.77125 108.328839 
L 377.857051 126.493778 
L 378.942852 104.255937 
L 381.114454 115.678093 
L 382.200255 119.154737 
L 383.286057 121.975383 
L 384.371858 120.96744 
L 385.457659 103.004091 
L 386.54346 115.551571 
L 387.629261 92.098721 
L 388.715062 92.288018 
L 389.800863 98.017391 
L 390.886665 100.537927 
L 391.972466 114.418259 
L 393.058267 102.273887 
L 394.144068 118.511683 
L 395.229869 120.1674 
L 396.31567 127.99706 
L 397.401472 109.753312 
L 398.487273 114.257099 
L 398.487273 114.257099 
" style="fill:none;stroke:#008000;stroke-dasharray:9.6,2.4,1.5,2.4;stroke-dashoffset:0;stroke-width:1.5;"/>
   </g>
   <g id="line2d_28">
    <path clip-path="url(#p7fff46f161)" d="M 73.832727 252.091068 
L 74.918528 250.53854 
L 76.00433 243.644601 
L 77.090131 240.885768 
L 78.175932 233.835752 
L 79.261733 224.818159 
L 80.347534 209.746357 
L 81.433335 204.570655 
L 82.519137 201.435378 
L 83.604938 194.801135 
L 84.690739 199.207882 
L 85.77654 195.157092 
L 86.862341 192.868593 
L 87.948142 201.272569 
L 90.119745 181.139631 
L 91.205546 190.428119 
L 92.291347 186.971286 
L 93.377148 183.017294 
L 94.462949 182.156025 
L 95.54875 160.322027 
L 96.634552 166.009001 
L 97.720353 164.393448 
L 98.806154 161.38978 
L 99.891955 167.653428 
L 100.977756 164.550114 
L 102.063557 167.283839 
L 103.149358 154.330369 
L 104.23516 168.573204 
L 105.320961 168.861232 
L 106.406762 155.202761 
L 107.492563 151.839204 
L 108.578364 155.580371 
L 109.664165 173.759412 
L 110.749967 164.174109 
L 111.835768 163.431228 
L 112.921569 149.310759 
L 114.00737 149.759989 
L 115.093171 160.039505 
L 116.178972 159.869147 
L 117.264773 163.358409 
L 118.350575 163.139402 
L 119.436376 151.967318 
L 120.522177 142.162888 
L 121.607978 114.799065 
L 122.693779 118.93479 
L 123.77958 125.951763 
L 124.865382 110.576576 
L 125.951183 99.868697 
L 127.036984 94.942235 
L 128.122785 75.737241 
L 129.208586 121.594776 
L 130.294387 114.41462 
L 131.380189 109.042275 
L 132.46599 92.364776 
L 133.551791 91.263144 
L 134.637592 89.742519 
L 135.723393 64.859647 
L 136.809194 72.428852 
L 137.894995 91.834786 
L 138.980797 99.202469 
L 140.066598 92.570861 
L 141.152399 95.748704 
L 142.2382 104.64718 
L 143.324001 102.015954 
L 144.409802 101.200973 
L 145.495604 90.098877 
L 146.581405 95.313968 
L 148.753007 88.677945 
L 149.838808 96.995523 
L 150.924609 107.258503 
L 152.01041 87.71887 
L 153.096212 112.328316 
L 154.182013 114.816803 
L 155.267814 105.163643 
L 156.353615 108.491806 
L 157.439416 99.362965 
L 158.525217 119.726942 
L 159.611019 85.952774 
L 160.69682 102.677479 
L 161.782621 101.672064 
L 162.868422 84.75672 
L 163.954223 108.936611 
L 165.040024 109.541522 
L 166.125825 97.855633 
L 167.211627 82.769777 
L 168.297428 61.359359 
L 170.46903 79.395727 
L 171.554831 87.197124 
L 172.640632 85.086071 
L 173.726434 68.311444 
L 174.812235 100.359198 
L 175.898036 91.470113 
L 176.983837 92.868718 
L 178.069638 97.328716 
L 179.155439 92.945453 
L 180.24124 67.698732 
L 181.327042 70.130132 
L 182.412843 102.705985 
L 183.498644 72.367808 
L 184.584445 61.944937 
L 185.670246 93.064518 
L 186.756047 76.48595 
L 188.92765 104.661395 
L 190.013451 97.602591 
L 191.099252 111.21727 
L 192.185053 86.10224 
L 193.270854 91.812042 
L 194.356656 115.51832 
L 195.442457 91.557478 
L 196.528258 90.954593 
L 197.614059 106.196145 
L 198.69986 104.788161 
L 199.785661 94.651912 
L 200.871462 110.316275 
L 201.957264 88.912312 
L 203.043065 89.769798 
L 204.128866 97.068591 
L 205.214667 95.482115 
L 207.386269 81.590969 
L 208.472071 101.249917 
L 209.557872 101.759979 
L 210.643673 91.12523 
L 211.729474 110.34088 
L 212.815275 73.238158 
L 213.901076 76.897988 
L 214.986877 90.929017 
L 216.072679 93.793002 
L 217.15848 98.74045 
L 218.244281 111.170514 
L 219.330082 70.207814 
L 220.415883 97.437034 
L 221.501684 109.851667 
L 222.587486 117.070649 
L 223.673287 108.998986 
L 224.759088 104.638542 
L 225.844889 87.831629 
L 226.93069 81.00835 
L 228.016491 85.144104 
L 229.102292 98.968684 
L 230.188094 99.027874 
L 231.273895 122.080083 
L 232.359696 111.020204 
L 233.445497 120.435561 
L 234.531298 95.030587 
L 235.617099 100.004034 
L 236.702901 128.734691 
L 237.788702 106.784358 
L 238.874503 94.47834 
L 239.960304 101.226475 
L 241.046105 88.968391 
L 242.131906 88.694945 
L 243.217708 102.405845 
L 244.303509 87.42512 
L 245.38931 92.176692 
L 246.475111 71.94085 
L 247.560912 82.98505 
L 248.646713 86.373595 
L 249.732514 82.760064 
L 250.818316 84.745172 
L 251.904117 104.248282 
L 252.989918 106.912591 
L 255.16152 72.342452 
L 256.247321 78.339321 
L 257.333123 69.244347 
L 258.418924 106.477588 
L 259.504725 53.568 
L 260.590526 65.525187 
L 261.676327 91.67958 
L 262.762128 86.729109 
L 263.847929 85.949822 
L 264.933731 89.446057 
L 266.019532 84.468572 
L 267.105333 105.019418 
L 268.191134 85.188751 
L 269.276935 88.751669 
L 270.362736 113.633273 
L 271.448538 107.975486 
L 272.534339 75.503513 
L 273.62014 104.06122 
L 274.705941 85.929628 
L 275.791742 93.871362 
L 276.877543 90.630289 
L 277.963344 89.566776 
L 279.049146 84.513891 
L 280.134947 99.953144 
L 281.220748 98.254242 
L 282.306549 70.151615 
L 283.39235 90.20523 
L 284.478151 102.128074 
L 285.563953 88.58846 
L 286.649754 94.78705 
L 287.735555 70.461528 
L 288.821356 68.466343 
L 289.907157 78.388112 
L 290.992958 78.329886 
L 292.07876 97.352264 
L 293.164561 83.830835 
L 294.250362 87.012098 
L 295.336163 72.498594 
L 296.421964 83.835451 
L 297.507765 82.090663 
L 298.593566 67.766369 
L 299.679368 58.743481 
L 300.765169 99.725639 
L 301.85097 86.631969 
L 302.936771 77.80658 
L 304.022572 70.653235 
L 305.108373 79.097199 
L 306.194175 96.003826 
L 307.279976 85.745285 
L 308.365777 92.621106 
L 309.451578 67.809266 
L 310.537379 81.484083 
L 311.62318 84.11371 
L 312.708981 90.493668 
L 313.794783 76.730895 
L 314.880584 79.823782 
L 315.966385 85.765706 
L 317.052186 74.272915 
L 318.137987 98.339914 
L 319.223788 95.205176 
L 320.30959 103.313033 
L 321.395391 90.994145 
L 322.481192 83.689329 
L 323.566993 88.405522 
L 324.652794 75.037782 
L 325.738595 82.810817 
L 326.824396 82.944872 
L 327.910198 93.467777 
L 328.995999 101.403655 
L 330.0818 77.353959 
L 331.167601 90.953218 
L 332.253402 91.582184 
L 333.339203 85.003129 
L 334.425005 112.121404 
L 335.510806 80.227338 
L 336.596607 105.232924 
L 337.682408 95.443249 
L 338.768209 98.284461 
L 339.85401 79.077079 
L 340.939811 102.501642 
L 342.025613 113.525218 
L 343.111414 103.548446 
L 344.197215 102.182591 
L 345.283016 84.376191 
L 346.368817 89.835097 
L 347.454618 105.855914 
L 348.54042 108.597932 
L 349.626221 95.126152 
L 350.712022 93.774609 
L 351.797823 101.682167 
L 352.883624 106.2291 
L 353.969425 85.172033 
L 355.055227 88.317397 
L 356.141028 102.938891 
L 357.226829 93.263142 
L 358.31263 69.133221 
L 359.398431 93.693751 
L 360.484232 95.019321 
L 361.570033 100.496625 
L 362.655835 99.634501 
L 364.827437 91.004889 
L 365.913238 101.304954 
L 366.999039 98.670052 
L 368.08484 87.097039 
L 369.170642 89.127384 
L 370.256443 98.19896 
L 371.342244 84.985185 
L 372.428045 89.753847 
L 373.513846 89.089239 
L 374.599647 99.679086 
L 375.685448 76.042657 
L 376.77125 89.487923 
L 377.857051 82.538583 
L 378.942852 87.558888 
L 380.028653 87.866261 
L 381.114454 88.566108 
L 382.200255 82.999773 
L 383.286057 71.287742 
L 384.371858 98.537074 
L 385.457659 93.074741 
L 386.54346 94.777302 
L 387.629261 70.606813 
L 388.715062 69.773166 
L 389.800863 83.882774 
L 390.886665 67.199979 
L 391.972466 92.913438 
L 393.058267 78.545207 
L 394.144068 83.402133 
L 395.229869 100.566152 
L 396.31567 97.884357 
L 397.401472 83.988146 
L 398.487273 91.365154 
L 398.487273 91.365154 
" style="fill:none;stroke:#ff0000;stroke-linecap:square;stroke-width:1.5;"/>
   </g>
   <g id="patch_3">
    <path d="M 57.6 307.584 
L 57.6 41.472 
" style="fill:none;stroke:#000000;stroke-linecap:square;stroke-linejoin:miter;stroke-width:0.8;"/>
   </g>
   <g id="patch_4">
    <path d="M 414.72 307.584 
L 414.72 41.472 
" style="fill:none;stroke:#000000;stroke-linecap:square;stroke-linejoin:miter;stroke-width:0.8;"/>
   </g>
   <g id="patch_5">
    <path d="M 57.6 307.584 
L 414.72 307.584 
" style="fill:none;stroke:#000000;stroke-linecap:square;stroke-linejoin:miter;stroke-width:0.8;"/>
   </g>
   <g id="patch_6">
    <path d="M 57.6 41.472 
L 414.72 41.472 
" style="fill:none;stroke:#000000;stroke-linecap:square;stroke-linejoin:miter;stroke-width:0.8;"/>
   </g>
   <g id="text_15">
    <!-- Population's average and best fitness -->
    <defs>
     <path d="M 19.671875 64.796875 
L 19.671875 37.40625 
L 32.078125 37.40625 
Q 38.96875 37.40625 42.71875 40.96875 
Q 46.484375 44.53125 46.484375 51.125 
Q 46.484375 57.671875 42.71875 61.234375 
Q 38.96875 64.796875 32.078125 64.796875 
z
M 9.8125 72.90625 
L 32.078125 72.90625 
Q 44.34375 72.90625 50.609375 67.359375 
Q 56.890625 61.8125 56.890625 51.125 
Q 56.890625 40.328125 50.609375 34.8125 
Q 44.34375 29.296875 32.078125 29.296875 
L 19.671875 29.296875 
L 19.671875 0 
L 9.8125 0 
z
" id="DejaVuSans-80"/>
     <path d="M 18.109375 8.203125 
L 18.109375 -20.796875 
L 9.078125 -20.796875 
L 9.078125 54.6875 
L 18.109375 54.6875 
L 18.109375 46.390625 
Q 20.953125 51.265625 25.265625 53.625 
Q 29.59375 56 35.59375 56 
Q 45.5625 56 51.78125 48.09375 
Q 58.015625 40.1875 58.015625 27.296875 
Q 58.015625 14.40625 51.78125 6.484375 
Q 45.5625 -1.421875 35.59375 -1.421875 
Q 29.59375 -1.421875 25.265625 0.953125 
Q 20.953125 3.328125 18.109375 8.203125 
z
M 48.6875 27.296875 
Q 48.6875 37.203125 44.609375 42.84375 
Q 40.53125 48.484375 33.40625 48.484375 
Q 26.265625 48.484375 22.1875 42.84375 
Q 18.109375 37.203125 18.109375 27.296875 
Q 18.109375 17.390625 22.1875 11.75 
Q 26.265625 6.109375 33.40625 6.109375 
Q 40.53125 6.109375 44.609375 11.75 
Q 48.6875 17.390625 48.6875 27.296875 
z
" id="DejaVuSans-112"/>
     <path d="M 8.5 21.578125 
L 8.5 54.6875 
L 17.484375 54.6875 
L 17.484375 21.921875 
Q 17.484375 14.15625 20.5 10.265625 
Q 23.53125 6.390625 29.59375 6.390625 
Q 36.859375 6.390625 41.078125 11.03125 
Q 45.3125 15.671875 45.3125 23.6875 
L 45.3125 54.6875 
L 54.296875 54.6875 
L 54.296875 0 
L 45.3125 0 
L 45.3125 8.40625 
Q 42.046875 3.421875 37.71875 1 
Q 33.40625 -1.421875 27.6875 -1.421875 
Q 18.265625 -1.421875 13.375 4.4375 
Q 8.5 10.296875 8.5 21.578125 
z
M 31.109375 56 
z
" id="DejaVuSans-117"/>
     <path d="M 9.421875 75.984375 
L 18.40625 75.984375 
L 18.40625 0 
L 9.421875 0 
z
" id="DejaVuSans-108"/>
     <path d="M 17.921875 72.90625 
L 17.921875 45.796875 
L 9.625 45.796875 
L 9.625 72.90625 
z
" id="DejaVuSans-39"/>
     <path id="DejaVuSans-32"/>
     <path d="M 2.984375 54.6875 
L 12.5 54.6875 
L 29.59375 8.796875 
L 46.6875 54.6875 
L 56.203125 54.6875 
L 35.6875 0 
L 23.484375 0 
z
" id="DejaVuSans-118"/>
     <path d="M 45.40625 27.984375 
Q 45.40625 37.75 41.375 43.109375 
Q 37.359375 48.484375 30.078125 48.484375 
Q 22.859375 48.484375 18.828125 43.109375 
Q 14.796875 37.75 14.796875 27.984375 
Q 14.796875 18.265625 18.828125 12.890625 
Q 22.859375 7.515625 30.078125 7.515625 
Q 37.359375 7.515625 41.375 12.890625 
Q 45.40625 18.265625 45.40625 27.984375 
z
M 54.390625 6.78125 
Q 54.390625 -7.171875 48.1875 -13.984375 
Q 42 -20.796875 29.203125 -20.796875 
Q 24.46875 -20.796875 20.265625 -20.09375 
Q 16.0625 -19.390625 12.109375 -17.921875 
L 12.109375 -9.1875 
Q 16.0625 -11.328125 19.921875 -12.34375 
Q 23.78125 -13.375 27.78125 -13.375 
Q 36.625 -13.375 41.015625 -8.765625 
Q 45.40625 -4.15625 45.40625 5.171875 
L 45.40625 9.625 
Q 42.625 4.78125 38.28125 2.390625 
Q 33.9375 0 27.875 0 
Q 17.828125 0 11.671875 7.65625 
Q 5.515625 15.328125 5.515625 27.984375 
Q 5.515625 40.671875 11.671875 48.328125 
Q 17.828125 56 27.875 56 
Q 33.9375 56 38.28125 53.609375 
Q 42.625 51.21875 45.40625 46.390625 
L 45.40625 54.6875 
L 54.390625 54.6875 
z
" id="DejaVuSans-103"/>
     <path d="M 45.40625 46.390625 
L 45.40625 75.984375 
L 54.390625 75.984375 
L 54.390625 0 
L 45.40625 0 
L 45.40625 8.203125 
Q 42.578125 3.328125 38.25 0.953125 
Q 33.9375 -1.421875 27.875 -1.421875 
Q 17.96875 -1.421875 11.734375 6.484375 
Q 5.515625 14.40625 5.515625 27.296875 
Q 5.515625 40.1875 11.734375 48.09375 
Q 17.96875 56 27.875 56 
Q 33.9375 56 38.25 53.625 
Q 42.578125 51.265625 45.40625 46.390625 
z
M 14.796875 27.296875 
Q 14.796875 17.390625 18.875 11.75 
Q 22.953125 6.109375 30.078125 6.109375 
Q 37.203125 6.109375 41.296875 11.75 
Q 45.40625 17.390625 45.40625 27.296875 
Q 45.40625 37.203125 41.296875 42.84375 
Q 37.203125 48.484375 30.078125 48.484375 
Q 22.953125 48.484375 18.875 42.84375 
Q 14.796875 37.203125 14.796875 27.296875 
z
" id="DejaVuSans-100"/>
     <path d="M 48.6875 27.296875 
Q 48.6875 37.203125 44.609375 42.84375 
Q 40.53125 48.484375 33.40625 48.484375 
Q 26.265625 48.484375 22.1875 42.84375 
Q 18.109375 37.203125 18.109375 27.296875 
Q 18.109375 17.390625 22.1875 11.75 
Q 26.265625 6.109375 33.40625 6.109375 
Q 40.53125 6.109375 44.609375 11.75 
Q 48.6875 17.390625 48.6875 27.296875 
z
M 18.109375 46.390625 
Q 20.953125 51.265625 25.265625 53.625 
Q 29.59375 56 35.59375 56 
Q 45.5625 56 51.78125 48.09375 
Q 58.015625 40.1875 58.015625 27.296875 
Q 58.015625 14.40625 51.78125 6.484375 
Q 45.5625 -1.421875 35.59375 -1.421875 
Q 29.59375 -1.421875 25.265625 0.953125 
Q 20.953125 3.328125 18.109375 8.203125 
L 18.109375 0 
L 9.078125 0 
L 9.078125 75.984375 
L 18.109375 75.984375 
z
" id="DejaVuSans-98"/>
     <path d="M 37.109375 75.984375 
L 37.109375 68.5 
L 28.515625 68.5 
Q 23.6875 68.5 21.796875 66.546875 
Q 19.921875 64.59375 19.921875 59.515625 
L 19.921875 54.6875 
L 34.71875 54.6875 
L 34.71875 47.703125 
L 19.921875 47.703125 
L 19.921875 0 
L 10.890625 0 
L 10.890625 47.703125 
L 2.296875 47.703125 
L 2.296875 54.6875 
L 10.890625 54.6875 
L 10.890625 58.5 
Q 10.890625 67.625 15.140625 71.796875 
Q 19.390625 75.984375 28.609375 75.984375 
z
" id="DejaVuSans-102"/>
    </defs>
    <g transform="translate(123.315 35.472)scale(0.12 -0.12)">
     <use xlink:href="#DejaVuSans-80"/>
     <use x="60.255859" xlink:href="#DejaVuSans-111"/>
     <use x="121.4375" xlink:href="#DejaVuSans-112"/>
     <use x="184.914062" xlink:href="#DejaVuSans-117"/>
     <use x="248.292969" xlink:href="#DejaVuSans-108"/>
     <use x="276.076172" xlink:href="#DejaVuSans-97"/>
     <use x="337.355469" xlink:href="#DejaVuSans-116"/>
     <use x="376.564453" xlink:href="#DejaVuSans-105"/>
     <use x="404.347656" xlink:href="#DejaVuSans-111"/>
     <use x="465.529297" xlink:href="#DejaVuSans-110"/>
     <use x="528.908203" xlink:href="#DejaVuSans-39"/>
     <use x="556.398438" xlink:href="#DejaVuSans-115"/>
     <use x="608.498047" xlink:href="#DejaVuSans-32"/>
     <use x="640.285156" xlink:href="#DejaVuSans-97"/>
     <use x="701.564453" xlink:href="#DejaVuSans-118"/>
     <use x="760.744141" xlink:href="#DejaVuSans-101"/>
     <use x="822.267578" xlink:href="#DejaVuSans-114"/>
     <use x="863.380859" xlink:href="#DejaVuSans-97"/>
     <use x="924.660156" xlink:href="#DejaVuSans-103"/>
     <use x="988.136719" xlink:href="#DejaVuSans-101"/>
     <use x="1049.660156" xlink:href="#DejaVuSans-32"/>
     <use x="1081.447266" xlink:href="#DejaVuSans-97"/>
     <use x="1142.726562" xlink:href="#DejaVuSans-110"/>
     <use x="1206.105469" xlink:href="#DejaVuSans-100"/>
     <use x="1269.582031" xlink:href="#DejaVuSans-32"/>
     <use x="1301.369141" xlink:href="#DejaVuSans-98"/>
     <use x="1364.845703" xlink:href="#DejaVuSans-101"/>
     <use x="1426.369141" xlink:href="#DejaVuSans-115"/>
     <use x="1478.46875" xlink:href="#DejaVuSans-116"/>
     <use x="1517.677734" xlink:href="#DejaVuSans-32"/>
     <use x="1549.464844" xlink:href="#DejaVuSans-102"/>
     <use x="1584.669922" xlink:href="#DejaVuSans-105"/>
     <use x="1612.453125" xlink:href="#DejaVuSans-116"/>
     <use x="1651.662109" xlink:href="#DejaVuSans-110"/>
     <use x="1715.041016" xlink:href="#DejaVuSans-101"/>
     <use x="1776.564453" xlink:href="#DejaVuSans-115"/>
     <use x="1828.664062" xlink:href="#DejaVuSans-115"/>
    </g>
   </g>
   <g id="legend_1">
    <g id="patch_7">
     <path d="M 334.779375 302.584 
L 407.72 302.584 
Q 409.72 302.584 409.72 300.584 
L 409.72 242.8715 
Q 409.72 240.8715 407.72 240.8715 
L 334.779375 240.8715 
Q 332.779375 240.8715 332.779375 242.8715 
L 332.779375 300.584 
Q 332.779375 302.584 334.779375 302.584 
z
" style="fill:#ffffff;opacity:0.8;stroke:#cccccc;stroke-linejoin:miter;"/>
    </g>
    <g id="line2d_29">
     <path d="M 336.779375 248.969937 
L 356.779375 248.969937 
" style="fill:none;stroke:#0000ff;stroke-linecap:square;stroke-width:1.5;"/>
    </g>
    <g id="line2d_30"/>
    <g id="text_16">
     <!-- average -->
     <g transform="translate(364.779375 252.469937)scale(0.1 -0.1)">
      <use xlink:href="#DejaVuSans-97"/>
      <use x="61.279297" xlink:href="#DejaVuSans-118"/>
      <use x="120.458984" xlink:href="#DejaVuSans-101"/>
      <use x="181.982422" xlink:href="#DejaVuSans-114"/>
      <use x="223.095703" xlink:href="#DejaVuSans-97"/>
      <use x="284.375" xlink:href="#DejaVuSans-103"/>
      <use x="347.851562" xlink:href="#DejaVuSans-101"/>
     </g>
    </g>
    <g id="line2d_31">
     <path d="M 336.779375 263.648062 
L 356.779375 263.648062 
" style="fill:none;stroke:#008000;stroke-dasharray:9.6,2.4,1.5,2.4;stroke-dashoffset:0;stroke-width:1.5;"/>
    </g>
    <g id="line2d_32"/>
    <g id="text_17">
     <!-- -1 sd -->
     <defs>
      <path d="M 4.890625 31.390625 
L 31.203125 31.390625 
L 31.203125 23.390625 
L 4.890625 23.390625 
z
" id="DejaVuSans-45"/>
     </defs>
     <g transform="translate(364.779375 267.148062)scale(0.1 -0.1)">
      <use xlink:href="#DejaVuSans-45"/>
      <use x="36.083984" xlink:href="#DejaVuSans-49"/>
      <use x="99.707031" xlink:href="#DejaVuSans-32"/>
      <use x="131.494141" xlink:href="#DejaVuSans-115"/>
      <use x="183.59375" xlink:href="#DejaVuSans-100"/>
     </g>
    </g>
    <g id="line2d_33">
     <path d="M 336.779375 278.326187 
L 356.779375 278.326187 
" style="fill:none;stroke:#008000;stroke-dasharray:9.6,2.4,1.5,2.4;stroke-dashoffset:0;stroke-width:1.5;"/>
    </g>
    <g id="line2d_34"/>
    <g id="text_18">
     <!-- +1 sd -->
     <defs>
      <path d="M 46 62.703125 
L 46 35.5 
L 73.1875 35.5 
L 73.1875 27.203125 
L 46 27.203125 
L 46 0 
L 37.796875 0 
L 37.796875 27.203125 
L 10.59375 27.203125 
L 10.59375 35.5 
L 37.796875 35.5 
L 37.796875 62.703125 
z
" id="DejaVuSans-43"/>
     </defs>
     <g transform="translate(364.779375 281.826187)scale(0.1 -0.1)">
      <use xlink:href="#DejaVuSans-43"/>
      <use x="83.789062" xlink:href="#DejaVuSans-49"/>
      <use x="147.412109" xlink:href="#DejaVuSans-32"/>
      <use x="179.199219" xlink:href="#DejaVuSans-115"/>
      <use x="231.298828" xlink:href="#DejaVuSans-100"/>
     </g>
    </g>
    <g id="line2d_35">
     <path d="M 336.779375 293.004312 
L 356.779375 293.004312 
" style="fill:none;stroke:#ff0000;stroke-linecap:square;stroke-width:1.5;"/>
    </g>
    <g id="line2d_36"/>
    <g id="text_19">
     <!-- best -->
     <g transform="translate(364.779375 296.504312)scale(0.1 -0.1)">
      <use xlink:href="#DejaVuSans-98"/>
      <use x="63.476562" xlink:href="#DejaVuSans-101"/>
      <use x="125" xlink:href="#DejaVuSans-115"/>
      <use x="177.099609" xlink:href="#DejaVuSans-116"/>
     </g>
    </g>
   </g>
  </g>
 </g>
 <defs>
  <clipPath id="p7fff46f161">
   <rect height="266.112" width="357.12" x="57.6" y="41.472"/>
  </clipPath>
 </defs>
</svg>
