<?xml version="1.0" encoding="UTF-8" standalone="no"?>
<!DOCTYPE svg PUBLIC "-//W3C//DTD SVG 1.1//EN"
 "http://www.w3.org/Graphics/SVG/1.1/DTD/svg11.dtd">
<!-- Generated by graphviz version 2.40.1 (20161225.0304)
 -->
<!-- Title: %3 Pages: 1 -->
<svg width="643pt" height="342pt"
 viewBox="0.00 0.00 642.54 342.24" xmlns="http://www.w3.org/2000/svg" xmlns:xlink="http://www.w3.org/1999/xlink">
<g id="graph0" class="graph" transform="scale(1 1) rotate(0) translate(4 338.2412)">
<title>%3</title>
<polygon fill="#ffffff" stroke="transparent" points="-4,4 -4,-338.2412 638.5373,-338.2412 638.5373,4 -4,4"/>
<!-- &#45;1 -->
<g id="node1" class="node">
<title>&#45;1</title>
<polygon fill="#d3d3d3" stroke="#000000" points="131.4981,-334.2412 107.4932,-334.2412 107.4932,-317.2412 131.4981,-317.2412 131.4981,-334.2412"/>
<text text-anchor="middle" x="119.4957" y="-323.0412" font-family="Times,serif" font-size="9.00" fill="#000000">&#45;1</text>
</g>
<!-- &#45;2 -->
<g id="node2" class="node">
<title>&#45;2</title>
<polygon fill="#d3d3d3" stroke="#000000" points="354.4981,-334.2412 330.4932,-334.2412 330.4932,-317.2412 354.4981,-317.2412 354.4981,-334.2412"/>
<text text-anchor="middle" x="342.4957" y="-323.0412" font-family="Times,serif" font-size="9.00" fill="#000000">&#45;2</text>
</g>
<!-- &#45;1&#45;&gt;&#45;2 -->
<!-- 1 -->
<g id="node5" class="node">
<title>1</title>
<ellipse fill="#add8e6" stroke="#000000" cx="61.4957" cy="-14.4957" rx="14.4914" ry="14.4914"/>
<text text-anchor="middle" x="61.4957" y="-11.7957" font-family="Times,serif" font-size="9.00" fill="#000000">1</text>
</g>
<!-- &#45;1&#45;&gt;1 -->
<g id="edge12" class="edge">
<title>&#45;1&#45;&gt;1</title>
<path fill="none" stroke="#00ff00" stroke-width=".4605" d="M116.3343,-316.9787C113.2193,-308.0776 108.5021,-293.846 105.4957,-281.2412 84.5267,-193.3266 70.2081,-86.7454 64.3994,-39.3217"/>
<polygon fill="#00ff00" stroke="#00ff00" stroke-width=".4605" points="67.8386,-38.6062 63.1674,-29.0968 60.8888,-39.4437 67.8386,-38.6062"/>
</g>
<!-- 5 -->
<g id="node9" class="node">
<title>5</title>
<ellipse fill="#add8e6" stroke="#000000" cx="249.4957" cy="-14.4957" rx="14.4914" ry="14.4914"/>
<text text-anchor="middle" x="249.4957" y="-11.7957" font-family="Times,serif" font-size="9.00" fill="#000000">5</text>
</g>
<!-- &#45;1&#45;&gt;5 -->
<g id="edge29" class="edge">
<title>&#45;1&#45;&gt;5</title>
<path fill="none" stroke="#ff0000" stroke-width=".304" d="M119.2037,-317.2224C118.427,-282.5776 119.4837,-150.061 176.4957,-64.9914 179.9552,-59.8294 208.035,-41.1262 228.337,-27.9948"/>
<polygon fill="#ff0000" stroke="#ff0000" stroke-width=".304" points="230.4839,-30.7754 237.0012,-22.4222 226.6973,-24.888 230.4839,-30.7754"/>
</g>
<!-- &#45;3 -->
<g id="node3" class="node">
<title>&#45;3</title>
<polygon fill="#d3d3d3" stroke="#000000" points="485.4981,-334.2412 461.4932,-334.2412 461.4932,-317.2412 485.4981,-317.2412 485.4981,-334.2412"/>
<text text-anchor="middle" x="473.4957" y="-323.0412" font-family="Times,serif" font-size="9.00" fill="#000000">&#45;3</text>
</g>
<!-- &#45;2&#45;&gt;&#45;3 -->
<!-- 8 -->
<g id="node12" class="node">
<title>8</title>
<ellipse fill="#add8e6" stroke="#000000" cx="475.4957" cy="-14.4957" rx="14.4914" ry="14.4914"/>
<text text-anchor="middle" x="475.4957" y="-11.7957" font-family="Times,serif" font-size="9.00" fill="#000000">8</text>
</g>
<!-- &#45;3&#45;&gt;8 -->
<g id="edge21" class="edge">
<title>&#45;3&#45;&gt;8</title>
<path fill="none" stroke="#ff0000" stroke-width=".7426" d="M485.4574,-321.7114C501.1625,-315.6958 528.0751,-302.7155 539.4957,-281.2412 584.2662,-197.0587 519.8669,-81.4018 489.6699,-34.9874"/>
<polygon fill="#ff0000" stroke="#ff0000" stroke-width=".7426" points="492.4174,-32.7984 483.9627,-26.4134 486.5902,-36.6772 492.4174,-32.7984"/>
</g>
<!-- 2038 -->
<g id="node24" class="node">
<title>2038</title>
<ellipse fill="#ffffff" stroke="#000000" cx="610.4957" cy="-257.1995" rx="24.0833" ry="24.0833"/>
<text text-anchor="middle" x="610.4957" y="-254.4995" font-family="Times,serif" font-size="9.00" fill="#000000">2038</text>
</g>
<!-- &#45;3&#45;&gt;2038 -->
<g id="edge16" class="edge">
<title>&#45;3&#45;&gt;2038</title>
<path fill="none" stroke="#00ff00" stroke-width=".3943" stroke-dasharray="1,5" d="M485.3367,-321.0571C504.1736,-313.465 541.9561,-297.659 572.4957,-281.2412 575.5448,-279.602 578.6778,-277.8093 581.774,-275.9655"/>
<polygon fill="#00ff00" stroke="#00ff00" stroke-width=".3943" points="583.6193,-278.9397 590.3028,-270.7189 579.9515,-272.9775 583.6193,-278.9397"/>
</g>
<!-- 1788 -->
<g id="node25" class="node">
<title>1788</title>
<ellipse fill="#ffffff" stroke="#000000" cx="461.4957" cy="-173.1163" rx="24.0833" ry="24.0833"/>
<text text-anchor="middle" x="461.4957" y="-170.4163" font-family="Times,serif" font-size="9.00" fill="#000000">1788</text>
</g>
<!-- &#45;3&#45;&gt;1788 -->
<g id="edge15" class="edge">
<title>&#45;3&#45;&gt;1788</title>
<path fill="none" stroke="#ff0000" stroke-width=".6143" d="M461.534,-321.7114C445.8289,-315.6958 418.9163,-302.7155 407.4957,-281.2412 397.4612,-262.3732 399.8429,-253.111 407.4957,-233.1579 413.1111,-218.5167 424.1281,-205.2077 434.7546,-194.8617"/>
<polygon fill="#ff0000" stroke="#ff0000" stroke-width=".6143" points="437.3558,-197.2243 442.3405,-187.8753 432.6137,-192.0753 437.3558,-197.2243"/>
</g>
<!-- 0 -->
<g id="node4" class="node">
<title>0</title>
<ellipse fill="#add8e6" stroke="#000000" cx="14.4957" cy="-14.4957" rx="14.4914" ry="14.4914"/>
<text text-anchor="middle" x="14.4957" y="-11.7957" font-family="Times,serif" font-size="9.00" fill="#000000">0</text>
</g>
<!-- 0&#45;&gt;1 -->
<!-- 2088 -->
<g id="node17" class="node">
<title>2088</title>
<ellipse fill="#ffffff" stroke="#000000" cx="379.4957" cy="-89.033" rx="24.0833" ry="24.0833"/>
<text text-anchor="middle" x="379.4957" y="-86.333" font-family="Times,serif" font-size="9.00" fill="#000000">2088</text>
</g>
<!-- 0&#45;&gt;2088 -->
<g id="edge30" class="edge">
<title>0&#45;&gt;2088</title>
<path fill="none" stroke="#00ff00" stroke-width=".6153" d="M26.7016,-23.2378C30.3407,-25.4575 34.443,-27.6039 38.4957,-28.9914 168.8867,-73.6318 218.1511,-14.7695 346.4957,-64.9914 348.5874,-65.8099 350.6668,-66.7941 352.7051,-67.8904"/>
<polygon fill="#00ff00" stroke="#00ff00" stroke-width=".6153" points="350.9511,-70.9215 361.2871,-73.2491 354.6586,-64.9839 350.9511,-70.9215"/>
</g>
<!-- 2 -->
<g id="node6" class="node">
<title>2</title>
<ellipse fill="#add8e6" stroke="#000000" cx="108.4957" cy="-14.4957" rx="14.4914" ry="14.4914"/>
<text text-anchor="middle" x="108.4957" y="-11.7957" font-family="Times,serif" font-size="9.00" fill="#000000">2</text>
</g>
<!-- 1&#45;&gt;2 -->
<!-- 571 -->
<g id="node20" class="node">
<title>571</title>
<ellipse fill="#ffffff" stroke="#000000" cx="206.4957" cy="-173.1163" rx="20.7202" ry="20.7202"/>
<text text-anchor="middle" x="206.4957" y="-170.4163" font-family="Times,serif" font-size="9.00" fill="#000000">571</text>
</g>
<!-- 1&#45;&gt;571 -->
<g id="edge13" class="edge">
<title>1&#45;&gt;571</title>
<path fill="none" stroke="#00ff00" stroke-width=".5078" d="M71.5256,-25.4678C94.9155,-51.0548 153.493,-115.1348 185.2419,-149.866"/>
<polygon fill="#00ff00" stroke="#00ff00" stroke-width=".5078" points="182.9981,-152.5989 192.3285,-157.6183 188.1647,-147.8759 182.9981,-152.5989"/>
</g>
<!-- 3 -->
<g id="node7" class="node">
<title>3</title>
<ellipse fill="#add8e6" stroke="#000000" cx="155.4957" cy="-14.4957" rx="14.4914" ry="14.4914"/>
<text text-anchor="middle" x="155.4957" y="-11.7957" font-family="Times,serif" font-size="9.00" fill="#000000">3</text>
</g>
<!-- 2&#45;&gt;3 -->
<!-- 4 -->
<g id="node8" class="node">
<title>4</title>
<ellipse fill="#add8e6" stroke="#000000" cx="202.4957" cy="-14.4957" rx="14.4914" ry="14.4914"/>
<text text-anchor="middle" x="202.4957" y="-11.7957" font-family="Times,serif" font-size="9.00" fill="#000000">4</text>
</g>
<!-- 3&#45;&gt;4 -->
<!-- 4&#45;&gt;5 -->
<!-- 6 -->
<g id="node10" class="node">
<title>6</title>
<ellipse fill="#add8e6" stroke="#000000" cx="313.4957" cy="-14.4957" rx="14.4914" ry="14.4914"/>
<text text-anchor="middle" x="313.4957" y="-11.7957" font-family="Times,serif" font-size="9.00" fill="#000000">6</text>
</g>
<!-- 5&#45;&gt;6 -->
<!-- 7 -->
<g id="node11" class="node">
<title>7</title>
<ellipse fill="#add8e6" stroke="#000000" cx="397.4957" cy="-14.4957" rx="14.4914" ry="14.4914"/>
<text text-anchor="middle" x="397.4957" y="-11.7957" font-family="Times,serif" font-size="9.00" fill="#000000">7</text>
</g>
<!-- 6&#45;&gt;7 -->
<!-- 2531 -->
<g id="node22" class="node">
<title>2531</title>
<ellipse fill="#ffffff" stroke="#000000" cx="506.4957" cy="-257.1995" rx="24.0833" ry="24.0833"/>
<text text-anchor="middle" x="506.4957" y="-254.4995" font-family="Times,serif" font-size="9.00" fill="#000000">2531</text>
</g>
<!-- 6&#45;&gt;2531 -->
<g id="edge23" class="edge">
<title>6&#45;&gt;2531</title>
<path fill="none" stroke="#00ff00" stroke-width=".916" d="M327.3033,-19.4455C363.3574,-33.2389 459.93,-75.9739 494.4957,-149.0746 505.3194,-171.9649 508.0976,-200.5332 508.2886,-222.5551"/>
<polygon fill="#00ff00" stroke="#00ff00" stroke-width=".916" points="504.7868,-222.7559 508.1985,-232.7864 511.7866,-222.8176 504.7868,-222.7559"/>
</g>
<!-- 7&#45;&gt;8 -->
<!-- 2599 -->
<g id="node16" class="node">
<title>2599</title>
<ellipse fill="#ffffff" stroke="#000000" cx="335.4957" cy="-173.1163" rx="24.0833" ry="24.0833"/>
<text text-anchor="middle" x="335.4957" y="-170.4163" font-family="Times,serif" font-size="9.00" fill="#000000">2599</text>
</g>
<!-- 8&#45;&gt;2599 -->
<g id="edge26" class="edge">
<title>8&#45;&gt;2599</title>
<path fill="none" stroke="#00ff00" stroke-width=".2365" d="M468.9852,-27.593C458.7257,-47.4477 437.3828,-85.7414 412.4957,-113.0746 408.2828,-117.7016 383.3136,-136.9656 362.9333,-152.4426"/>
<polygon fill="#00ff00" stroke="#00ff00" stroke-width=".2365" points="360.6946,-149.7475 354.8371,-158.5758 364.9216,-155.3272 360.6946,-149.7475"/>
</g>
<!-- 8&#45;&gt;2088 -->
<g id="edge19" class="edge">
<title>8&#45;&gt;2088</title>
<path fill="none" stroke="#ff0000" stroke-width=".2136" stroke-dasharray="1,5" d="M463.9337,-23.4727C449.9043,-34.3656 425.7863,-53.0916 406.9092,-67.7484"/>
<polygon fill="#ff0000" stroke="#ff0000" stroke-width=".2136" points="404.6749,-65.0519 398.9227,-73.9493 408.9679,-70.581 404.6749,-65.0519"/>
</g>
<!-- 2308 -->
<g id="node13" class="node">
<title>2308</title>
<ellipse fill="#ffffff" stroke="#000000" cx="269.4957" cy="-173.1163" rx="24.0833" ry="24.0833"/>
<text text-anchor="middle" x="269.4957" y="-170.4163" font-family="Times,serif" font-size="9.00" fill="#000000">2308</text>
</g>
<!-- 2308&#45;&gt;2088 -->
<g id="edge18" class="edge">
<title>2308&#45;&gt;2088</title>
<path fill="none" stroke="#00ff00" stroke-width=".1918" d="M288.6562,-158.4701C306.2146,-145.0486 332.4043,-125.0294 352.1578,-109.9299"/>
<polygon fill="#00ff00" stroke="#00ff00" stroke-width=".1918" points="354.3664,-112.6471 360.1856,-103.7935 350.1153,-107.0858 354.3664,-112.6471"/>
</g>
<!-- 529 -->
<g id="node14" class="node">
<title>529</title>
<ellipse fill="#ffffff" stroke="#000000" cx="398.4957" cy="-173.1163" rx="20.7202" ry="20.7202"/>
<text text-anchor="middle" x="398.4957" y="-170.4163" font-family="Times,serif" font-size="9.00" fill="#000000">529</text>
</g>
<!-- 529&#45;&gt;8 -->
<g id="edge28" class="edge">
<title>529&#45;&gt;8</title>
<path fill="none" stroke="#00ff00" stroke-width=".1164" stroke-dasharray="1,5" d="M414.6778,-159.4558C419.0665,-155.9441 423.8823,-152.2605 428.4957,-149.0746 454.3996,-131.1861 473.886,-140.4123 489.4957,-113.0746 502.9019,-89.5959 494.7009,-58.0094 486.2909,-36.9862"/>
<polygon fill="#00ff00" stroke="#00ff00" stroke-width=".1164" points="489.4147,-35.3913 482.2393,-27.5961 482.9874,-38.1645 489.4147,-35.3913"/>
</g>
<!-- 529&#45;&gt;2088 -->
<g id="edge32" class="edge">
<title>529&#45;&gt;2088</title>
<path fill="none" stroke="#ff0000" stroke-width=".2832" d="M393.8963,-152.7621C391.8536,-143.7219 389.3945,-132.8395 387.0912,-122.6463"/>
<polygon fill="#ff0000" stroke="#ff0000" stroke-width=".2832" points="390.4791,-121.7593 384.861,-112.7767 383.6512,-123.3023 390.4791,-121.7593"/>
</g>
<!-- 2584 -->
<g id="node15" class="node">
<title>2584</title>
<ellipse fill="#ffffff" stroke="#000000" cx="313.4957" cy="-89.033" rx="24.0833" ry="24.0833"/>
<text text-anchor="middle" x="313.4957" y="-86.333" font-family="Times,serif" font-size="9.00" fill="#000000">2584</text>
</g>
<!-- 2584&#45;&gt;6 -->
<g id="edge25" class="edge">
<title>2584&#45;&gt;6</title>
<path fill="none" stroke="#ff0000" stroke-width=".5691" d="M313.4957,-64.6267C313.4957,-56.4788 313.4957,-47.3961 313.4957,-39.224"/>
<polygon fill="#ff0000" stroke="#ff0000" stroke-width=".5691" points="316.9958,-39.1607 313.4957,-29.1607 309.9958,-39.1607 316.9958,-39.1607"/>
</g>
<!-- 2599&#45;&gt;2088 -->
<g id="edge27" class="edge">
<title>2599&#45;&gt;2088</title>
<path fill="none" stroke="#ff0000" stroke-width=".1804" d="M346.8268,-151.4627C351.9078,-141.753 357.9906,-130.129 363.5225,-119.5576"/>
<polygon fill="#ff0000" stroke="#ff0000" stroke-width=".1804" points="366.6676,-121.0962 368.203,-110.6132 360.4654,-117.8506 366.6676,-121.0962"/>
</g>
<!-- 2474 -->
<g id="node18" class="node">
<title>2474</title>
<ellipse fill="#ffffff" stroke="#000000" cx="209.4957" cy="-89.033" rx="24.0833" ry="24.0833"/>
<text text-anchor="middle" x="209.4957" y="-86.333" font-family="Times,serif" font-size="9.00" fill="#000000">2474</text>
</g>
<!-- 2730 -->
<g id="node19" class="node">
<title>2730</title>
<ellipse fill="#ffffff" stroke="#000000" cx="440.4957" cy="-257.1995" rx="24.0833" ry="24.0833"/>
<text text-anchor="middle" x="440.4957" y="-254.4995" font-family="Times,serif" font-size="9.00" fill="#000000">2730</text>
</g>
<!-- 2730&#45;&gt;1788 -->
<g id="edge31" class="edge">
<title>2730&#45;&gt;1788</title>
<path fill="none" stroke="#ff0000" stroke-width=".1333" d="M446.3454,-233.7777C448.444,-225.3749 450.8532,-215.7285 453.1238,-206.6371"/>
<polygon fill="#ff0000" stroke="#ff0000" stroke-width=".1333" points="456.5771,-207.2543 455.6046,-196.7042 449.7857,-205.558 456.5771,-207.2543"/>
</g>
<!-- 571&#45;&gt;6 -->
<g id="edge11" class="edge">
<title>571&#45;&gt;6</title>
<path fill="none" stroke="#00ff00" stroke-width="1.225" d="M218.3554,-155.535C238.2637,-126.0223 278.3042,-66.6649 299.5367,-35.189"/>
<polygon fill="#00ff00" stroke="#00ff00" stroke-width="1.225" points="302.5464,-36.9859 305.2371,-26.7385 296.7433,-33.0713 302.5464,-36.9859"/>
</g>
<!-- 571&#45;&gt;2584 -->
<g id="edge24" class="edge">
<title>571&#45;&gt;2584</title>
<path fill="none" stroke="#ff0000" stroke-width=".1375" d="M222.9691,-159.8499C227.3556,-156.3352 232.0975,-152.5515 236.4957,-149.0746 252.9483,-136.0686 271.4824,-121.6105 286.2435,-110.1414"/>
<polygon fill="#ff0000" stroke="#ff0000" stroke-width=".1375" points="288.7013,-112.6644 294.4544,-103.7676 284.4089,-107.1348 288.7013,-112.6644"/>
</g>
<!-- 571&#45;&gt;2474 -->
<g id="edge20" class="edge">
<title>571&#45;&gt;2474</title>
<path fill="none" stroke="#ff0000" stroke-width=".1571" d="M207.2527,-151.8985C207.5612,-143.2524 207.9258,-133.0343 208.2703,-123.3773"/>
<polygon fill="#ff0000" stroke="#ff0000" stroke-width=".1571" points="211.7739,-123.3379 208.6327,-113.2194 204.7783,-123.0882 211.7739,-123.3379"/>
</g>
<!-- 1630 -->
<g id="node21" class="node">
<title>1630</title>
<ellipse fill="#ffffff" stroke="#000000" cx="220.4957" cy="-257.1995" rx="24.0833" ry="24.0833"/>
<text text-anchor="middle" x="220.4957" y="-254.4995" font-family="Times,serif" font-size="9.00" fill="#000000">1630</text>
</g>
<!-- 1630&#45;&gt;4 -->
<g id="edge14" class="edge">
<title>1630&#45;&gt;4</title>
<path fill="none" stroke="#ff0000" stroke-width=".3875" stroke-dasharray="1,5" d="M203.2603,-239.9971C193.3328,-228.8274 181.8004,-213.3708 176.4957,-197.1579 158.2293,-141.3295 162.6615,-122.0797 176.4957,-64.9914 178.9856,-54.7165 183.9506,-44.1907 188.8806,-35.4266"/>
<polygon fill="#ff0000" stroke="#ff0000" stroke-width=".3875" points="191.9688,-37.0819 194.0978,-26.7032 185.9612,-33.489 191.9688,-37.0819"/>
</g>
<!-- 1630&#45;&gt;2308 -->
<g id="edge17" class="edge">
<title>1630&#45;&gt;2308</title>
<path fill="none" stroke="#00ff00" stroke-width=".8049" d="M232.6081,-236.4149C238.4975,-226.3086 245.6831,-213.9784 252.1423,-202.8944"/>
<polygon fill="#00ff00" stroke="#00ff00" stroke-width=".8049" points="255.3418,-204.3554 257.3528,-193.9532 249.2938,-200.8309 255.3418,-204.3554"/>
</g>
<!-- 2531&#45;&gt;1788 -->
<g id="edge22" class="edge">
<title>2531&#45;&gt;1788</title>
<path fill="none" stroke="#ff0000" stroke-width=".5617" stroke-dasharray="1,5" d="M495.1403,-235.9818C489.8642,-226.1232 483.4942,-214.2209 477.7227,-203.4368"/>
<polygon fill="#ff0000" stroke="#ff0000" stroke-width=".5617" points="480.652,-201.4925 472.8475,-194.3272 474.4802,-204.7955 480.652,-201.4925"/>
</g>
<!-- 1006 -->
<g id="node23" class="node">
<title>1006</title>
<ellipse fill="#ffffff" stroke="#000000" cx="610.4957" cy="-89.033" rx="24.0833" ry="24.0833"/>
<text text-anchor="middle" x="610.4957" y="-86.333" font-family="Times,serif" font-size="9.00" fill="#000000">1006</text>
</g>
</g>
</svg>
