<?xml version="1.0" encoding="utf-8" standalone="no"?>
<!DOCTYPE svg PUBLIC "-//W3C//DTD SVG 1.1//EN"
  "http://www.w3.org/Graphics/SVG/1.1/DTD/svg11.dtd">
<!-- Created with matplotlib (https://matplotlib.org/) -->
<svg height="345.6pt" version="1.1" viewBox="0 0 460.8 345.6" width="460.8pt" xmlns="http://www.w3.org/2000/svg" xmlns:xlink="http://www.w3.org/1999/xlink">
 <defs>
  <style type="text/css">
*{stroke-linecap:butt;stroke-linejoin:round;}
  </style>
 </defs>
 <g id="figure_1">
  <g id="patch_1">
   <path d="M 0 345.6 
L 460.8 345.6 
L 460.8 0 
L 0 0 
z
" style="fill:#ffffff;"/>
  </g>
  <g id="axes_1">
   <g id="patch_2">
    <path d="M 57.6 307.584 
L 414.72 307.584 
L 414.72 41.472 
L 57.6 41.472 
z
" style="fill:#ffffff;"/>
   </g>
   <g id="matplotlib.axis_1">
    <g id="xtick_1">
     <g id="line2d_1">
      <path clip-path="url(#p238607ba0f)" d="M 73.832727 307.584 
L 73.832727 41.472 
" style="fill:none;stroke:#b0b0b0;stroke-linecap:square;stroke-width:0.8;"/>
     </g>
     <g id="line2d_2">
      <defs>
       <path d="M 0 0 
L 0 3.5 
" id="m94e2e4b4ef" style="stroke:#000000;stroke-width:0.8;"/>
      </defs>
      <g>
       <use style="stroke:#000000;stroke-width:0.8;" x="73.832727" xlink:href="#m94e2e4b4ef" y="307.584"/>
      </g>
     </g>
     <g id="text_1">
      <!-- 0 -->
      <defs>
       <path d="M 31.78125 66.40625 
Q 24.171875 66.40625 20.328125 58.90625 
Q 16.5 51.421875 16.5 36.375 
Q 16.5 21.390625 20.328125 13.890625 
Q 24.171875 6.390625 31.78125 6.390625 
Q 39.453125 6.390625 43.28125 13.890625 
Q 47.125 21.390625 47.125 36.375 
Q 47.125 51.421875 43.28125 58.90625 
Q 39.453125 66.40625 31.78125 66.40625 
z
M 31.78125 74.21875 
Q 44.046875 74.21875 50.515625 64.515625 
Q 56.984375 54.828125 56.984375 36.375 
Q 56.984375 17.96875 50.515625 8.265625 
Q 44.046875 -1.421875 31.78125 -1.421875 
Q 19.53125 -1.421875 13.0625 8.265625 
Q 6.59375 17.96875 6.59375 36.375 
Q 6.59375 54.828125 13.0625 64.515625 
Q 19.53125 74.21875 31.78125 74.21875 
z
" id="DejaVuSans-48"/>
      </defs>
      <g transform="translate(70.651477 322.182437)scale(0.1 -0.1)">
       <use xlink:href="#DejaVuSans-48"/>
      </g>
     </g>
    </g>
    <g id="xtick_2">
     <g id="line2d_3">
      <path clip-path="url(#p238607ba0f)" d="M 117.410519 307.584 
L 117.410519 41.472 
" style="fill:none;stroke:#b0b0b0;stroke-linecap:square;stroke-width:0.8;"/>
     </g>
     <g id="line2d_4">
      <g>
       <use style="stroke:#000000;stroke-width:0.8;" x="117.410519" xlink:href="#m94e2e4b4ef" y="307.584"/>
      </g>
     </g>
     <g id="text_2">
      <!-- 20 -->
      <defs>
       <path d="M 19.1875 8.296875 
L 53.609375 8.296875 
L 53.609375 0 
L 7.328125 0 
L 7.328125 8.296875 
Q 12.9375 14.109375 22.625 23.890625 
Q 32.328125 33.6875 34.8125 36.53125 
Q 39.546875 41.84375 41.421875 45.53125 
Q 43.3125 49.21875 43.3125 52.78125 
Q 43.3125 58.59375 39.234375 62.25 
Q 35.15625 65.921875 28.609375 65.921875 
Q 23.96875 65.921875 18.8125 64.3125 
Q 13.671875 62.703125 7.8125 59.421875 
L 7.8125 69.390625 
Q 13.765625 71.78125 18.9375 73 
Q 24.125 74.21875 28.421875 74.21875 
Q 39.75 74.21875 46.484375 68.546875 
Q 53.21875 62.890625 53.21875 53.421875 
Q 53.21875 48.921875 51.53125 44.890625 
Q 49.859375 40.875 45.40625 35.40625 
Q 44.1875 33.984375 37.640625 27.21875 
Q 31.109375 20.453125 19.1875 8.296875 
z
" id="DejaVuSans-50"/>
      </defs>
      <g transform="translate(111.048019 322.182437)scale(0.1 -0.1)">
       <use xlink:href="#DejaVuSans-50"/>
       <use x="63.623047" xlink:href="#DejaVuSans-48"/>
      </g>
     </g>
    </g>
    <g id="xtick_3">
     <g id="line2d_5">
      <path clip-path="url(#p238607ba0f)" d="M 160.98831 307.584 
L 160.98831 41.472 
" style="fill:none;stroke:#b0b0b0;stroke-linecap:square;stroke-width:0.8;"/>
     </g>
     <g id="line2d_6">
      <g>
       <use style="stroke:#000000;stroke-width:0.8;" x="160.98831" xlink:href="#m94e2e4b4ef" y="307.584"/>
      </g>
     </g>
     <g id="text_3">
      <!-- 40 -->
      <defs>
       <path d="M 37.796875 64.3125 
L 12.890625 25.390625 
L 37.796875 25.390625 
z
M 35.203125 72.90625 
L 47.609375 72.90625 
L 47.609375 25.390625 
L 58.015625 25.390625 
L 58.015625 17.1875 
L 47.609375 17.1875 
L 47.609375 0 
L 37.796875 0 
L 37.796875 17.1875 
L 4.890625 17.1875 
L 4.890625 26.703125 
z
" id="DejaVuSans-52"/>
      </defs>
      <g transform="translate(154.62581 322.182437)scale(0.1 -0.1)">
       <use xlink:href="#DejaVuSans-52"/>
       <use x="63.623047" xlink:href="#DejaVuSans-48"/>
      </g>
     </g>
    </g>
    <g id="xtick_4">
     <g id="line2d_7">
      <path clip-path="url(#p238607ba0f)" d="M 204.566101 307.584 
L 204.566101 41.472 
" style="fill:none;stroke:#b0b0b0;stroke-linecap:square;stroke-width:0.8;"/>
     </g>
     <g id="line2d_8">
      <g>
       <use style="stroke:#000000;stroke-width:0.8;" x="204.566101" xlink:href="#m94e2e4b4ef" y="307.584"/>
      </g>
     </g>
     <g id="text_4">
      <!-- 60 -->
      <defs>
       <path d="M 33.015625 40.375 
Q 26.375 40.375 22.484375 35.828125 
Q 18.609375 31.296875 18.609375 23.390625 
Q 18.609375 15.53125 22.484375 10.953125 
Q 26.375 6.390625 33.015625 6.390625 
Q 39.65625 6.390625 43.53125 10.953125 
Q 47.40625 15.53125 47.40625 23.390625 
Q 47.40625 31.296875 43.53125 35.828125 
Q 39.65625 40.375 33.015625 40.375 
z
M 52.59375 71.296875 
L 52.59375 62.3125 
Q 48.875 64.0625 45.09375 64.984375 
Q 41.3125 65.921875 37.59375 65.921875 
Q 27.828125 65.921875 22.671875 59.328125 
Q 17.53125 52.734375 16.796875 39.40625 
Q 19.671875 43.65625 24.015625 45.921875 
Q 28.375 48.1875 33.59375 48.1875 
Q 44.578125 48.1875 50.953125 41.515625 
Q 57.328125 34.859375 57.328125 23.390625 
Q 57.328125 12.15625 50.6875 5.359375 
Q 44.046875 -1.421875 33.015625 -1.421875 
Q 20.359375 -1.421875 13.671875 8.265625 
Q 6.984375 17.96875 6.984375 36.375 
Q 6.984375 53.65625 15.1875 63.9375 
Q 23.390625 74.21875 37.203125 74.21875 
Q 40.921875 74.21875 44.703125 73.484375 
Q 48.484375 72.75 52.59375 71.296875 
z
" id="DejaVuSans-54"/>
      </defs>
      <g transform="translate(198.203601 322.182437)scale(0.1 -0.1)">
       <use xlink:href="#DejaVuSans-54"/>
       <use x="63.623047" xlink:href="#DejaVuSans-48"/>
      </g>
     </g>
    </g>
    <g id="xtick_5">
     <g id="line2d_9">
      <path clip-path="url(#p238607ba0f)" d="M 248.143893 307.584 
L 248.143893 41.472 
" style="fill:none;stroke:#b0b0b0;stroke-linecap:square;stroke-width:0.8;"/>
     </g>
     <g id="line2d_10">
      <g>
       <use style="stroke:#000000;stroke-width:0.8;" x="248.143893" xlink:href="#m94e2e4b4ef" y="307.584"/>
      </g>
     </g>
     <g id="text_5">
      <!-- 80 -->
      <defs>
       <path d="M 31.78125 34.625 
Q 24.75 34.625 20.71875 30.859375 
Q 16.703125 27.09375 16.703125 20.515625 
Q 16.703125 13.921875 20.71875 10.15625 
Q 24.75 6.390625 31.78125 6.390625 
Q 38.8125 6.390625 42.859375 10.171875 
Q 46.921875 13.96875 46.921875 20.515625 
Q 46.921875 27.09375 42.890625 30.859375 
Q 38.875 34.625 31.78125 34.625 
z
M 21.921875 38.8125 
Q 15.578125 40.375 12.03125 44.71875 
Q 8.5 49.078125 8.5 55.328125 
Q 8.5 64.0625 14.71875 69.140625 
Q 20.953125 74.21875 31.78125 74.21875 
Q 42.671875 74.21875 48.875 69.140625 
Q 55.078125 64.0625 55.078125 55.328125 
Q 55.078125 49.078125 51.53125 44.71875 
Q 48 40.375 41.703125 38.8125 
Q 48.828125 37.15625 52.796875 32.3125 
Q 56.78125 27.484375 56.78125 20.515625 
Q 56.78125 9.90625 50.3125 4.234375 
Q 43.84375 -1.421875 31.78125 -1.421875 
Q 19.734375 -1.421875 13.25 4.234375 
Q 6.78125 9.90625 6.78125 20.515625 
Q 6.78125 27.484375 10.78125 32.3125 
Q 14.796875 37.15625 21.921875 38.8125 
z
M 18.3125 54.390625 
Q 18.3125 48.734375 21.84375 45.5625 
Q 25.390625 42.390625 31.78125 42.390625 
Q 38.140625 42.390625 41.71875 45.5625 
Q 45.3125 48.734375 45.3125 54.390625 
Q 45.3125 60.0625 41.71875 63.234375 
Q 38.140625 66.40625 31.78125 66.40625 
Q 25.390625 66.40625 21.84375 63.234375 
Q 18.3125 60.0625 18.3125 54.390625 
z
" id="DejaVuSans-56"/>
      </defs>
      <g transform="translate(241.781393 322.182437)scale(0.1 -0.1)">
       <use xlink:href="#DejaVuSans-56"/>
       <use x="63.623047" xlink:href="#DejaVuSans-48"/>
      </g>
     </g>
    </g>
    <g id="xtick_6">
     <g id="line2d_11">
      <path clip-path="url(#p238607ba0f)" d="M 291.721684 307.584 
L 291.721684 41.472 
" style="fill:none;stroke:#b0b0b0;stroke-linecap:square;stroke-width:0.8;"/>
     </g>
     <g id="line2d_12">
      <g>
       <use style="stroke:#000000;stroke-width:0.8;" x="291.721684" xlink:href="#m94e2e4b4ef" y="307.584"/>
      </g>
     </g>
     <g id="text_6">
      <!-- 100 -->
      <defs>
       <path d="M 12.40625 8.296875 
L 28.515625 8.296875 
L 28.515625 63.921875 
L 10.984375 60.40625 
L 10.984375 69.390625 
L 28.421875 72.90625 
L 38.28125 72.90625 
L 38.28125 8.296875 
L 54.390625 8.296875 
L 54.390625 0 
L 12.40625 0 
z
" id="DejaVuSans-49"/>
      </defs>
      <g transform="translate(282.177934 322.182437)scale(0.1 -0.1)">
       <use xlink:href="#DejaVuSans-49"/>
       <use x="63.623047" xlink:href="#DejaVuSans-48"/>
       <use x="127.246094" xlink:href="#DejaVuSans-48"/>
      </g>
     </g>
    </g>
    <g id="xtick_7">
     <g id="line2d_13">
      <path clip-path="url(#p238607ba0f)" d="M 335.299475 307.584 
L 335.299475 41.472 
" style="fill:none;stroke:#b0b0b0;stroke-linecap:square;stroke-width:0.8;"/>
     </g>
     <g id="line2d_14">
      <g>
       <use style="stroke:#000000;stroke-width:0.8;" x="335.299475" xlink:href="#m94e2e4b4ef" y="307.584"/>
      </g>
     </g>
     <g id="text_7">
      <!-- 120 -->
      <g transform="translate(325.755725 322.182437)scale(0.1 -0.1)">
       <use xlink:href="#DejaVuSans-49"/>
       <use x="63.623047" xlink:href="#DejaVuSans-50"/>
       <use x="127.246094" xlink:href="#DejaVuSans-48"/>
      </g>
     </g>
    </g>
    <g id="xtick_8">
     <g id="line2d_15">
      <path clip-path="url(#p238607ba0f)" d="M 378.877267 307.584 
L 378.877267 41.472 
" style="fill:none;stroke:#b0b0b0;stroke-linecap:square;stroke-width:0.8;"/>
     </g>
     <g id="line2d_16">
      <g>
       <use style="stroke:#000000;stroke-width:0.8;" x="378.877267" xlink:href="#m94e2e4b4ef" y="307.584"/>
      </g>
     </g>
     <g id="text_8">
      <!-- 140 -->
      <g transform="translate(369.333517 322.182437)scale(0.1 -0.1)">
       <use xlink:href="#DejaVuSans-49"/>
       <use x="63.623047" xlink:href="#DejaVuSans-52"/>
       <use x="127.246094" xlink:href="#DejaVuSans-48"/>
      </g>
     </g>
    </g>
    <g id="text_9">
     <!-- Generations -->
     <defs>
      <path d="M 59.515625 10.40625 
L 59.515625 29.984375 
L 43.40625 29.984375 
L 43.40625 38.09375 
L 69.28125 38.09375 
L 69.28125 6.78125 
Q 63.578125 2.734375 56.6875 0.65625 
Q 49.8125 -1.421875 42 -1.421875 
Q 24.90625 -1.421875 15.25 8.5625 
Q 5.609375 18.5625 5.609375 36.375 
Q 5.609375 54.25 15.25 64.234375 
Q 24.90625 74.21875 42 74.21875 
Q 49.125 74.21875 55.546875 72.453125 
Q 61.96875 70.703125 67.390625 67.28125 
L 67.390625 56.78125 
Q 61.921875 61.421875 55.765625 63.765625 
Q 49.609375 66.109375 42.828125 66.109375 
Q 29.4375 66.109375 22.71875 58.640625 
Q 16.015625 51.171875 16.015625 36.375 
Q 16.015625 21.625 22.71875 14.15625 
Q 29.4375 6.6875 42.828125 6.6875 
Q 48.046875 6.6875 52.140625 7.59375 
Q 56.25 8.5 59.515625 10.40625 
z
" id="DejaVuSans-71"/>
      <path d="M 56.203125 29.59375 
L 56.203125 25.203125 
L 14.890625 25.203125 
Q 15.484375 15.921875 20.484375 11.0625 
Q 25.484375 6.203125 34.421875 6.203125 
Q 39.59375 6.203125 44.453125 7.46875 
Q 49.3125 8.734375 54.109375 11.28125 
L 54.109375 2.78125 
Q 49.265625 0.734375 44.1875 -0.34375 
Q 39.109375 -1.421875 33.890625 -1.421875 
Q 20.796875 -1.421875 13.15625 6.1875 
Q 5.515625 13.8125 5.515625 26.8125 
Q 5.515625 40.234375 12.765625 48.109375 
Q 20.015625 56 32.328125 56 
Q 43.359375 56 49.78125 48.890625 
Q 56.203125 41.796875 56.203125 29.59375 
z
M 47.21875 32.234375 
Q 47.125 39.59375 43.09375 43.984375 
Q 39.0625 48.390625 32.421875 48.390625 
Q 24.90625 48.390625 20.390625 44.140625 
Q 15.875 39.890625 15.1875 32.171875 
z
" id="DejaVuSans-101"/>
      <path d="M 54.890625 33.015625 
L 54.890625 0 
L 45.90625 0 
L 45.90625 32.71875 
Q 45.90625 40.484375 42.875 44.328125 
Q 39.84375 48.1875 33.796875 48.1875 
Q 26.515625 48.1875 22.3125 43.546875 
Q 18.109375 38.921875 18.109375 30.90625 
L 18.109375 0 
L 9.078125 0 
L 9.078125 54.6875 
L 18.109375 54.6875 
L 18.109375 46.1875 
Q 21.34375 51.125 25.703125 53.5625 
Q 30.078125 56 35.796875 56 
Q 45.21875 56 50.046875 50.171875 
Q 54.890625 44.34375 54.890625 33.015625 
z
" id="DejaVuSans-110"/>
      <path d="M 41.109375 46.296875 
Q 39.59375 47.171875 37.8125 47.578125 
Q 36.03125 48 33.890625 48 
Q 26.265625 48 22.1875 43.046875 
Q 18.109375 38.09375 18.109375 28.8125 
L 18.109375 0 
L 9.078125 0 
L 9.078125 54.6875 
L 18.109375 54.6875 
L 18.109375 46.1875 
Q 20.953125 51.171875 25.484375 53.578125 
Q 30.03125 56 36.53125 56 
Q 37.453125 56 38.578125 55.875 
Q 39.703125 55.765625 41.0625 55.515625 
z
" id="DejaVuSans-114"/>
      <path d="M 34.28125 27.484375 
Q 23.390625 27.484375 19.1875 25 
Q 14.984375 22.515625 14.984375 16.5 
Q 14.984375 11.71875 18.140625 8.90625 
Q 21.296875 6.109375 26.703125 6.109375 
Q 34.1875 6.109375 38.703125 11.40625 
Q 43.21875 16.703125 43.21875 25.484375 
L 43.21875 27.484375 
z
M 52.203125 31.203125 
L 52.203125 0 
L 43.21875 0 
L 43.21875 8.296875 
Q 40.140625 3.328125 35.546875 0.953125 
Q 30.953125 -1.421875 24.3125 -1.421875 
Q 15.921875 -1.421875 10.953125 3.296875 
Q 6 8.015625 6 15.921875 
Q 6 25.140625 12.171875 29.828125 
Q 18.359375 34.515625 30.609375 34.515625 
L 43.21875 34.515625 
L 43.21875 35.40625 
Q 43.21875 41.609375 39.140625 45 
Q 35.0625 48.390625 27.6875 48.390625 
Q 23 48.390625 18.546875 47.265625 
Q 14.109375 46.140625 10.015625 43.890625 
L 10.015625 52.203125 
Q 14.9375 54.109375 19.578125 55.046875 
Q 24.21875 56 28.609375 56 
Q 40.484375 56 46.34375 49.84375 
Q 52.203125 43.703125 52.203125 31.203125 
z
" id="DejaVuSans-97"/>
      <path d="M 18.3125 70.21875 
L 18.3125 54.6875 
L 36.8125 54.6875 
L 36.8125 47.703125 
L 18.3125 47.703125 
L 18.3125 18.015625 
Q 18.3125 11.328125 20.140625 9.421875 
Q 21.96875 7.515625 27.59375 7.515625 
L 36.8125 7.515625 
L 36.8125 0 
L 27.59375 0 
Q 17.1875 0 13.234375 3.875 
Q 9.28125 7.765625 9.28125 18.015625 
L 9.28125 47.703125 
L 2.6875 47.703125 
L 2.6875 54.6875 
L 9.28125 54.6875 
L 9.28125 70.21875 
z
" id="DejaVuSans-116"/>
      <path d="M 9.421875 54.6875 
L 18.40625 54.6875 
L 18.40625 0 
L 9.421875 0 
z
M 9.421875 75.984375 
L 18.40625 75.984375 
L 18.40625 64.59375 
L 9.421875 64.59375 
z
" id="DejaVuSans-105"/>
      <path d="M 30.609375 48.390625 
Q 23.390625 48.390625 19.1875 42.75 
Q 14.984375 37.109375 14.984375 27.296875 
Q 14.984375 17.484375 19.15625 11.84375 
Q 23.34375 6.203125 30.609375 6.203125 
Q 37.796875 6.203125 41.984375 11.859375 
Q 46.1875 17.53125 46.1875 27.296875 
Q 46.1875 37.015625 41.984375 42.703125 
Q 37.796875 48.390625 30.609375 48.390625 
z
M 30.609375 56 
Q 42.328125 56 49.015625 48.375 
Q 55.71875 40.765625 55.71875 27.296875 
Q 55.71875 13.875 49.015625 6.21875 
Q 42.328125 -1.421875 30.609375 -1.421875 
Q 18.84375 -1.421875 12.171875 6.21875 
Q 5.515625 13.875 5.515625 27.296875 
Q 5.515625 40.765625 12.171875 48.375 
Q 18.84375 56 30.609375 56 
z
" id="DejaVuSans-111"/>
      <path d="M 44.28125 53.078125 
L 44.28125 44.578125 
Q 40.484375 46.53125 36.375 47.5 
Q 32.28125 48.484375 27.875 48.484375 
Q 21.1875 48.484375 17.84375 46.4375 
Q 14.5 44.390625 14.5 40.28125 
Q 14.5 37.15625 16.890625 35.375 
Q 19.28125 33.59375 26.515625 31.984375 
L 29.59375 31.296875 
Q 39.15625 29.25 43.1875 25.515625 
Q 47.21875 21.78125 47.21875 15.09375 
Q 47.21875 7.46875 41.1875 3.015625 
Q 35.15625 -1.421875 24.609375 -1.421875 
Q 20.21875 -1.421875 15.453125 -0.5625 
Q 10.6875 0.296875 5.421875 2 
L 5.421875 11.28125 
Q 10.40625 8.6875 15.234375 7.390625 
Q 20.0625 6.109375 24.8125 6.109375 
Q 31.15625 6.109375 34.5625 8.28125 
Q 37.984375 10.453125 37.984375 14.40625 
Q 37.984375 18.0625 35.515625 20.015625 
Q 33.0625 21.96875 24.703125 23.78125 
L 21.578125 24.515625 
Q 13.234375 26.265625 9.515625 29.90625 
Q 5.8125 33.546875 5.8125 39.890625 
Q 5.8125 47.609375 11.28125 51.796875 
Q 16.75 56 26.8125 56 
Q 31.78125 56 36.171875 55.265625 
Q 40.578125 54.546875 44.28125 53.078125 
z
" id="DejaVuSans-115"/>
     </defs>
     <g transform="translate(205.662344 335.860562)scale(0.1 -0.1)">
      <use xlink:href="#DejaVuSans-71"/>
      <use x="77.490234" xlink:href="#DejaVuSans-101"/>
      <use x="139.013672" xlink:href="#DejaVuSans-110"/>
      <use x="202.392578" xlink:href="#DejaVuSans-101"/>
      <use x="263.916016" xlink:href="#DejaVuSans-114"/>
      <use x="305.029297" xlink:href="#DejaVuSans-97"/>
      <use x="366.308594" xlink:href="#DejaVuSans-116"/>
      <use x="405.517578" xlink:href="#DejaVuSans-105"/>
      <use x="433.300781" xlink:href="#DejaVuSans-111"/>
      <use x="494.482422" xlink:href="#DejaVuSans-110"/>
      <use x="557.861328" xlink:href="#DejaVuSans-115"/>
     </g>
    </g>
   </g>
   <g id="matplotlib.axis_2">
    <g id="ytick_1">
     <g id="line2d_17">
      <path clip-path="url(#p238607ba0f)" d="M 57.6 263.182017 
L 414.72 263.182017 
" style="fill:none;stroke:#b0b0b0;stroke-linecap:square;stroke-width:0.8;"/>
     </g>
     <g id="line2d_18">
      <defs>
       <path d="M 0 0 
L -3.5 0 
" id="m4417c28443" style="stroke:#000000;stroke-width:0.8;"/>
      </defs>
      <g>
       <use style="stroke:#000000;stroke-width:0.8;" x="57.6" xlink:href="#m4417c28443" y="263.182017"/>
      </g>
     </g>
     <g id="text_10">
      <!-- −2500 -->
      <defs>
       <path d="M 10.59375 35.5 
L 73.1875 35.5 
L 73.1875 27.203125 
L 10.59375 27.203125 
z
" id="DejaVuSans-8722"/>
       <path d="M 10.796875 72.90625 
L 49.515625 72.90625 
L 49.515625 64.59375 
L 19.828125 64.59375 
L 19.828125 46.734375 
Q 21.96875 47.46875 24.109375 47.828125 
Q 26.265625 48.1875 28.421875 48.1875 
Q 40.625 48.1875 47.75 41.5 
Q 54.890625 34.8125 54.890625 23.390625 
Q 54.890625 11.625 47.5625 5.09375 
Q 40.234375 -1.421875 26.90625 -1.421875 
Q 22.3125 -1.421875 17.546875 -0.640625 
Q 12.796875 0.140625 7.71875 1.703125 
L 7.71875 11.625 
Q 12.109375 9.234375 16.796875 8.0625 
Q 21.484375 6.890625 26.703125 6.890625 
Q 35.15625 6.890625 40.078125 11.328125 
Q 45.015625 15.765625 45.015625 23.390625 
Q 45.015625 31 40.078125 35.4375 
Q 35.15625 39.890625 26.703125 39.890625 
Q 22.75 39.890625 18.8125 39.015625 
Q 14.890625 38.140625 10.796875 36.28125 
z
" id="DejaVuSans-53"/>
      </defs>
      <g transform="translate(16.770313 266.981236)scale(0.1 -0.1)">
       <use xlink:href="#DejaVuSans-8722"/>
       <use x="83.789062" xlink:href="#DejaVuSans-50"/>
       <use x="147.412109" xlink:href="#DejaVuSans-53"/>
       <use x="211.035156" xlink:href="#DejaVuSans-48"/>
       <use x="274.658203" xlink:href="#DejaVuSans-48"/>
      </g>
     </g>
    </g>
    <g id="ytick_2">
     <g id="line2d_19">
      <path clip-path="url(#p238607ba0f)" d="M 57.6 208.565922 
L 414.72 208.565922 
" style="fill:none;stroke:#b0b0b0;stroke-linecap:square;stroke-width:0.8;"/>
     </g>
     <g id="line2d_20">
      <g>
       <use style="stroke:#000000;stroke-width:0.8;" x="57.6" xlink:href="#m4417c28443" y="208.565922"/>
      </g>
     </g>
     <g id="text_11">
      <!-- −2000 -->
      <g transform="translate(16.770313 212.36514)scale(0.1 -0.1)">
       <use xlink:href="#DejaVuSans-8722"/>
       <use x="83.789062" xlink:href="#DejaVuSans-50"/>
       <use x="147.412109" xlink:href="#DejaVuSans-48"/>
       <use x="211.035156" xlink:href="#DejaVuSans-48"/>
       <use x="274.658203" xlink:href="#DejaVuSans-48"/>
      </g>
     </g>
    </g>
    <g id="ytick_3">
     <g id="line2d_21">
      <path clip-path="url(#p238607ba0f)" d="M 57.6 153.949826 
L 414.72 153.949826 
" style="fill:none;stroke:#b0b0b0;stroke-linecap:square;stroke-width:0.8;"/>
     </g>
     <g id="line2d_22">
      <g>
       <use style="stroke:#000000;stroke-width:0.8;" x="57.6" xlink:href="#m4417c28443" y="153.949826"/>
      </g>
     </g>
     <g id="text_12">
      <!-- −1500 -->
      <g transform="translate(16.770313 157.749045)scale(0.1 -0.1)">
       <use xlink:href="#DejaVuSans-8722"/>
       <use x="83.789062" xlink:href="#DejaVuSans-49"/>
       <use x="147.412109" xlink:href="#DejaVuSans-53"/>
       <use x="211.035156" xlink:href="#DejaVuSans-48"/>
       <use x="274.658203" xlink:href="#DejaVuSans-48"/>
      </g>
     </g>
    </g>
    <g id="ytick_4">
     <g id="line2d_23">
      <path clip-path="url(#p238607ba0f)" d="M 57.6 99.33373 
L 414.72 99.33373 
" style="fill:none;stroke:#b0b0b0;stroke-linecap:square;stroke-width:0.8;"/>
     </g>
     <g id="line2d_24">
      <g>
       <use style="stroke:#000000;stroke-width:0.8;" x="57.6" xlink:href="#m4417c28443" y="99.33373"/>
      </g>
     </g>
     <g id="text_13">
      <!-- −1000 -->
      <g transform="translate(16.770313 103.132949)scale(0.1 -0.1)">
       <use xlink:href="#DejaVuSans-8722"/>
       <use x="83.789062" xlink:href="#DejaVuSans-49"/>
       <use x="147.412109" xlink:href="#DejaVuSans-48"/>
       <use x="211.035156" xlink:href="#DejaVuSans-48"/>
       <use x="274.658203" xlink:href="#DejaVuSans-48"/>
      </g>
     </g>
    </g>
    <g id="ytick_5">
     <g id="line2d_25">
      <path clip-path="url(#p238607ba0f)" d="M 57.6 44.717635 
L 414.72 44.717635 
" style="fill:none;stroke:#b0b0b0;stroke-linecap:square;stroke-width:0.8;"/>
     </g>
     <g id="line2d_26">
      <g>
       <use style="stroke:#000000;stroke-width:0.8;" x="57.6" xlink:href="#m4417c28443" y="44.717635"/>
      </g>
     </g>
     <g id="text_14">
      <!-- −500 -->
      <g transform="translate(23.132812 48.516853)scale(0.1 -0.1)">
       <use xlink:href="#DejaVuSans-8722"/>
       <use x="83.789062" xlink:href="#DejaVuSans-53"/>
       <use x="147.412109" xlink:href="#DejaVuSans-48"/>
       <use x="211.035156" xlink:href="#DejaVuSans-48"/>
      </g>
     </g>
    </g>
    <g id="text_15">
     <!-- Fitness -->
     <defs>
      <path d="M 9.8125 72.90625 
L 51.703125 72.90625 
L 51.703125 64.59375 
L 19.671875 64.59375 
L 19.671875 43.109375 
L 48.578125 43.109375 
L 48.578125 34.8125 
L 19.671875 34.8125 
L 19.671875 0 
L 9.8125 0 
z
" id="DejaVuSans-70"/>
     </defs>
     <g transform="translate(10.690625 192.202219)rotate(-90)scale(0.1 -0.1)">
      <use xlink:href="#DejaVuSans-70"/>
      <use x="57.410156" xlink:href="#DejaVuSans-105"/>
      <use x="85.193359" xlink:href="#DejaVuSans-116"/>
      <use x="124.402344" xlink:href="#DejaVuSans-110"/>
      <use x="187.78125" xlink:href="#DejaVuSans-101"/>
      <use x="249.304688" xlink:href="#DejaVuSans-115"/>
      <use x="301.404297" xlink:href="#DejaVuSans-115"/>
     </g>
    </g>
   </g>
   <g id="line2d_27">
    <path clip-path="url(#p238607ba0f)" d="M 73.832727 248.249977 
L 76.011617 215.106745 
L 78.190506 174.269198 
L 80.369396 148.097165 
L 82.548286 152.320082 
L 84.727175 194.173488 
L 86.906065 179.202124 
L 89.084954 175.689217 
L 91.263844 161.655065 
L 93.442733 159.992551 
L 95.621623 186.044428 
L 97.800513 170.830569 
L 99.979402 145.265867 
L 102.158292 140.58199 
L 104.337181 146.996105 
L 106.516071 158.168373 
L 108.69496 131.008881 
L 110.87385 172.274618 
L 113.052739 179.084153 
L 115.231629 158.865275 
L 117.410519 181.34526 
L 119.589408 158.64681 
L 121.768298 198.359266 
L 123.947187 170.041912 
L 126.126077 161.633218 
L 128.304966 170.533457 
L 130.483856 198.164832 
L 132.662746 180.580634 
L 134.841635 172.790194 
L 137.020525 167.837607 
L 139.199414 167.263045 
L 141.378304 198.490344 
L 143.557193 172.93875 
L 145.736083 202.127776 
L 147.914973 202.654275 
L 150.093862 193.629512 
L 152.272752 205.647238 
L 154.451641 215.460658 
L 156.630531 223.058849 
L 158.80942 198.676039 
L 160.98831 192.375526 
L 163.1672 186.828716 
L 165.346089 152.140941 
L 167.524979 182.299949 
L 169.703868 166.655714 
L 171.882758 161.818913 
L 174.061647 152.210849 
L 176.240537 166.751839 
L 178.419426 159.210448 
L 180.598316 154.399863 
L 182.777206 138.486917 
L 184.956095 158.413053 
L 187.134985 142.102502 
L 189.313874 145.09328 
L 191.492764 139.421945 
L 193.671653 142.519769 
L 195.850543 140.662822 
L 198.029433 149.930081 
L 200.208322 142.268535 
L 202.387212 142.471707 
L 204.566101 148.850867 
L 206.744991 156.56266 
L 208.92388 148.440154 
L 211.10277 139.553023 
L 213.28166 138.019403 
L 215.460549 164.934215 
L 217.639439 147.555373 
L 219.818328 146.790748 
L 221.997218 133.656669 
L 224.176107 121.2326 
L 226.354997 130.274841 
L 228.533887 129.158488 
L 230.712776 140.21497 
L 232.891666 142.351552 
L 235.070555 116.773742 
L 237.249445 131.393378 
L 239.428334 134.952163 
L 241.607224 140.051122 
L 243.786113 150.21627 
L 245.965003 149.615493 
L 248.143893 147.813161 
L 250.322782 168.964883 
L 252.501672 139.356405 
L 254.680561 137.991003 
L 256.859451 143.760647 
L 259.03834 128.859192 
L 261.21723 126.373067 
L 263.39612 123.668478 
L 265.575009 123.447829 
L 267.753899 154.187952 
L 269.932788 139.793334 
L 272.111678 124.417811 
L 274.290567 105.352424 
L 276.469457 106.48407 
L 278.648347 120.89398 
L 280.827236 160.757176 
L 283.006126 162.84788 
L 285.185015 141.316031 
L 287.363905 131.863077 
L 289.542794 138.133005 
L 291.721684 155.555539 
L 293.900574 157.246454 
L 296.079463 143.349934 
L 298.258353 138.023772 
L 300.437242 177.222837 
L 302.616132 165.613149 
L 304.795021 157.816646 
L 306.973911 158.017633 
L 309.1528 163.361272 
L 311.33169 168.283765 
L 313.51058 171.335222 
L 315.689469 182.782755 
L 317.868359 169.732763 
L 320.047248 160.687268 
L 322.226138 173.043613 
L 324.405027 147.068198 
L 326.583917 149.84925 
L 328.762807 154.78436 
L 330.941696 165.365661 
L 333.120586 174.821913 
L 335.299475 152.569934 
L 337.478365 131.511349 
L 339.657254 129.813881 
L 341.836144 140.79292 
L 344.015034 155.922693 
L 346.193923 159.848364 
L 348.372813 136.717355 
L 350.551702 148.398646 
L 352.730592 136.39557 
L 354.909481 149.42847 
L 357.088371 145.416607 
L 359.267261 119.804735 
L 361.44615 128.725757 
L 363.62504 133.064631 
L 365.803929 145.772704 
L 367.982819 151.404716 
L 370.161708 140.173462 
L 372.340598 143.050638 
L 374.519487 140.95338 
L 376.698377 149.986882 
L 378.877267 135.059211 
L 381.056156 115.039135 
L 383.235046 126.569685 
L 385.413935 127.323387 
L 387.592825 146.567914 
L 389.771714 158.382468 
L 391.950604 126.034447 
L 394.129494 138.084942 
L 396.308383 148.536279 
L 398.487273 156.885987 
L 398.487273 156.885987 
" style="fill:none;stroke:#0000ff;stroke-linecap:square;stroke-width:1.5;"/>
   </g>
   <g id="line2d_28">
    <path clip-path="url(#p238607ba0f)" d="M 73.832727 283.488954 
L 78.190506 248.249737 
L 80.369396 223.07841 
L 82.548286 232.083249 
L 84.727175 255.840893 
L 86.906065 228.118283 
L 89.084954 216.335855 
L 91.263844 206.225189 
L 93.442733 206.299082 
L 95.621623 236.097473 
L 97.800513 239.5627 
L 99.979402 207.189839 
L 102.158292 227.595981 
L 104.337181 221.841475 
L 106.516071 234.191618 
L 108.69496 191.075533 
L 110.87385 246.107693 
L 113.052739 261.964301 
L 115.231629 234.892427 
L 117.410519 257.439738 
L 119.589408 229.159922 
L 121.768298 295.488 
L 123.947187 252.123646 
L 126.126077 251.92669 
L 128.304966 242.902954 
L 130.483856 282.187618 
L 132.662746 259.8579 
L 134.841635 247.267398 
L 137.020525 242.233323 
L 139.199414 243.060407 
L 141.378304 277.269266 
L 143.557193 244.175917 
L 145.736083 272.625791 
L 147.914973 259.897779 
L 150.093862 251.414736 
L 152.272752 254.392703 
L 154.451641 270.156573 
L 156.630531 272.70552 
L 158.80942 254.728288 
L 160.98831 238.431421 
L 163.1672 240.669018 
L 165.346089 227.430779 
L 167.524979 242.061008 
L 171.882758 203.802993 
L 174.061647 206.64031 
L 176.240537 219.53414 
L 178.419426 216.885336 
L 180.598316 209.219927 
L 182.777206 189.820558 
L 184.956095 211.417105 
L 187.134985 194.437218 
L 189.313874 200.176789 
L 191.492764 194.842242 
L 193.671653 200.726359 
L 195.850543 208.697702 
L 198.029433 218.288948 
L 200.208322 206.225596 
L 202.387212 201.061834 
L 204.566101 216.121718 
L 206.744991 225.503837 
L 208.92388 211.819511 
L 211.10277 202.656508 
L 213.28166 178.03103 
L 215.460549 215.006086 
L 217.639439 197.38335 
L 219.818328 199.794423 
L 221.997218 174.216006 
L 224.176107 162.090196 
L 226.354997 162.418672 
L 228.533887 181.057156 
L 230.712776 192.068033 
L 232.891666 204.054312 
L 235.070555 151.476241 
L 237.249445 192.22805 
L 239.428334 187.627477 
L 241.607224 182.336925 
L 243.786113 195.373601 
L 245.965003 206.21892 
L 248.143893 211.934347 
L 250.322782 231.636391 
L 252.501672 203.970237 
L 254.680561 202.641325 
L 256.859451 201.174471 
L 259.03834 183.867939 
L 261.21723 165.408393 
L 263.39612 182.158751 
L 265.575009 162.196406 
L 267.753899 212.200031 
L 269.932788 191.600001 
L 272.111678 174.593795 
L 274.290567 152.191912 
L 276.469457 132.148439 
L 278.648347 171.910077 
L 280.827236 235.727256 
L 283.006126 230.069105 
L 285.185015 203.119375 
L 287.363905 171.455267 
L 289.542794 187.87805 
L 291.721684 217.33485 
L 293.900574 213.036546 
L 296.079463 192.481568 
L 298.258353 193.27915 
L 300.437242 239.99527 
L 302.616132 247.621357 
L 304.795021 206.828564 
L 306.973911 214.129526 
L 309.1528 219.08069 
L 311.33169 237.404078 
L 313.51058 239.721051 
L 315.689469 241.605287 
L 317.868359 232.317672 
L 320.047248 217.556498 
L 322.226138 219.076987 
L 324.405027 206.321087 
L 326.583917 195.810668 
L 328.762807 205.467017 
L 330.941696 248.222084 
L 333.120586 247.010994 
L 335.299475 206.057034 
L 337.478365 190.451878 
L 339.657254 167.495402 
L 341.836144 184.086934 
L 344.015034 198.768281 
L 346.193923 233.819275 
L 348.372813 188.095834 
L 350.551702 206.445055 
L 352.730592 188.918929 
L 354.909481 197.329061 
L 357.088371 201.813282 
L 359.267261 172.206348 
L 361.44615 181.184201 
L 363.62504 180.168713 
L 365.803929 192.864859 
L 367.982819 194.158007 
L 370.161708 195.692017 
L 372.340598 212.31505 
L 374.519487 186.904773 
L 376.698377 206.108601 
L 378.877267 186.711253 
L 381.056156 153.114251 
L 383.235046 162.063018 
L 385.413935 166.689793 
L 387.592825 194.346375 
L 389.771714 211.754122 
L 391.950604 165.704879 
L 394.129494 183.782624 
L 396.308383 210.37645 
L 398.487273 207.201809 
L 398.487273 207.201809 
" style="fill:none;stroke:#008000;stroke-dasharray:9.6,2.4,1.5,2.4;stroke-dashoffset:0;stroke-width:1.5;"/>
   </g>
   <g id="line2d_29">
    <path clip-path="url(#p238607ba0f)" d="M 73.832727 213.011 
L 76.011617 164.520971 
L 78.190506 100.28866 
L 80.369396 73.115921 
L 82.548286 72.556914 
L 84.727175 132.506083 
L 86.906065 130.285965 
L 89.084954 135.042578 
L 91.263844 117.08494 
L 93.442733 113.686019 
L 95.621623 135.991384 
L 97.800513 102.098437 
L 99.979402 83.341895 
L 102.158292 53.568 
L 104.337181 72.150734 
L 106.516071 82.145129 
L 108.69496 70.942229 
L 110.87385 98.441544 
L 113.052739 96.204006 
L 115.231629 82.838122 
L 117.410519 105.250781 
L 119.589408 88.133699 
L 121.768298 101.230531 
L 123.947187 87.960179 
L 126.126077 71.339747 
L 128.304966 98.16396 
L 130.483856 114.142047 
L 132.662746 101.303368 
L 134.841635 98.312991 
L 137.020525 93.441891 
L 139.199414 91.465684 
L 141.378304 119.711423 
L 143.557193 101.701584 
L 145.736083 131.629762 
L 147.914973 145.410772 
L 150.093862 135.844288 
L 152.272752 156.901773 
L 154.451641 160.764742 
L 156.630531 173.412178 
L 158.80942 142.623791 
L 160.98831 146.319632 
L 163.1672 132.988413 
L 165.346089 76.851103 
L 167.524979 122.538889 
L 169.703868 110.393949 
L 171.882758 119.834833 
L 174.061647 97.781389 
L 176.240537 113.969537 
L 178.419426 101.53556 
L 180.598316 99.579798 
L 182.777206 87.153276 
L 184.956095 105.409002 
L 187.134985 89.767787 
L 189.313874 90.009771 
L 191.492764 84.001647 
L 193.671653 84.31318 
L 195.850543 72.627942 
L 198.029433 81.571214 
L 200.208322 78.311475 
L 202.387212 83.881581 
L 204.566101 81.580017 
L 206.744991 87.621483 
L 208.92388 85.060797 
L 211.10277 76.449538 
L 213.28166 98.007776 
L 215.460549 114.862345 
L 217.639439 97.727397 
L 219.818328 93.787074 
L 221.997218 93.097333 
L 224.176107 80.375004 
L 226.354997 98.13101 
L 228.533887 77.25982 
L 230.712776 88.361908 
L 232.891666 80.648791 
L 235.070555 82.071243 
L 237.249445 70.558707 
L 239.428334 82.276849 
L 241.607224 97.765319 
L 243.786113 105.058938 
L 245.965003 93.012065 
L 248.143893 83.691976 
L 250.322782 106.293375 
L 252.501672 74.742573 
L 254.680561 73.34068 
L 256.859451 86.346823 
L 259.03834 73.850445 
L 261.21723 87.337741 
L 263.39612 65.178205 
L 265.575009 84.699252 
L 267.753899 96.175873 
L 269.932788 87.986667 
L 272.111678 74.241827 
L 274.290567 58.512936 
L 276.469457 80.8197 
L 278.648347 69.877884 
L 280.827236 85.787096 
L 283.006126 95.626655 
L 285.185015 79.512686 
L 287.363905 92.270887 
L 289.542794 88.38796 
L 291.721684 93.776229 
L 293.900574 101.456361 
L 296.079463 94.2183 
L 298.258353 82.768394 
L 300.437242 114.450403 
L 302.616132 83.60494 
L 304.795021 108.804727 
L 306.973911 101.905739 
L 309.1528 107.641853 
L 311.33169 99.163451 
L 313.51058 102.949392 
L 315.689469 123.960223 
L 317.868359 107.147854 
L 320.047248 103.818037 
L 322.226138 127.010239 
L 324.405027 87.815309 
L 326.583917 103.887831 
L 328.762807 104.101702 
L 330.941696 82.509237 
L 333.120586 102.632832 
L 335.299475 99.082833 
L 337.478365 72.57082 
L 339.657254 92.132359 
L 341.836144 97.498906 
L 344.015034 113.077106 
L 346.193923 85.877453 
L 348.372813 85.338877 
L 350.551702 90.352237 
L 352.730592 83.872211 
L 354.909481 101.527879 
L 357.088371 89.019932 
L 359.267261 67.403121 
L 361.44615 76.267313 
L 363.62504 85.960549 
L 365.803929 98.680549 
L 367.982819 108.651425 
L 370.161708 84.654907 
L 372.340598 73.786226 
L 374.519487 95.001987 
L 376.698377 93.865164 
L 378.877267 83.407169 
L 381.056156 76.964019 
L 383.235046 91.076351 
L 385.413935 87.956981 
L 387.592825 98.789454 
L 389.771714 105.010814 
L 391.950604 86.364015 
L 394.129494 92.387261 
L 396.308383 86.696107 
L 398.487273 106.570165 
L 398.487273 106.570165 
" style="fill:none;stroke:#008000;stroke-dasharray:9.6,2.4,1.5,2.4;stroke-dashoffset:0;stroke-width:1.5;"/>
   </g>
   <g id="line2d_30">
    <path clip-path="url(#p238607ba0f)" d="M 73.832727 203.322776 
L 76.011617 138.329623 
L 78.190506 109.055395 
L 80.369396 92.452102 
L 82.548286 93.872121 
L 84.727175 126.969475 
L 86.906065 137.346533 
L 89.084954 127.843332 
L 91.263844 124.894063 
L 93.442733 114.626237 
L 95.621623 111.130807 
L 97.800513 105.341501 
L 99.979402 90.704387 
L 102.158292 78.251917 
L 104.337181 87.645886 
L 106.516071 101.190678 
L 108.69496 95.182907 
L 110.87385 110.693878 
L 113.052739 96.493693 
L 115.231629 88.192047 
L 117.410519 117.466274 
L 119.589408 91.032084 
L 121.768298 90.595155 
L 123.947187 81.528883 
L 126.126077 79.8904 
L 128.304966 108.836931 
L 130.483856 98.022944 
L 132.662746 102.392232 
L 134.841635 107.963073 
L 137.020525 97.039854 
L 139.199414 99.770659 
L 141.378304 110.584646 
L 143.557193 105.123036 
L 147.914973 146.631269 
L 150.093862 119.432453 
L 152.272752 118.886293 
L 154.451641 149.252842 
L 156.630531 165.091509 
L 158.80942 145.102018 
L 160.98831 147.832823 
L 163.1672 151.219021 
L 165.346089 93.435192 
L 167.524979 118.667828 
L 169.703868 108.727699 
L 171.882758 108.072306 
L 174.061647 95.182907 
L 176.240537 106.106126 
L 178.419426 95.401371 
L 180.598316 100.644517 
L 182.777206 94.199817 
L 184.956095 106.324591 
L 187.134985 94.527514 
L 189.313874 85.242778 
L 191.492764 90.376691 
L 193.671653 89.284369 
L 195.850543 92.233638 
L 198.029433 85.242778 
L 200.208322 92.561334 
L 202.387212 89.83053 
L 204.566101 86.225867 
L 206.744991 89.065904 
L 208.92388 90.704387 
L 211.10277 84.805849 
L 213.28166 92.452102 
L 215.460549 105.232269 
L 217.639439 97.695247 
L 219.818328 94.964443 
L 221.997218 89.721297 
L 224.176107 78.798078 
L 226.354997 93.544424 
L 228.533887 84.36892 
L 230.712776 88.082815 
L 232.891666 86.772028 
L 235.070555 84.696617 
L 237.249445 87.208957 
L 239.428334 95.292139 
L 241.607224 107.30768 
L 243.786113 104.358411 
L 245.965003 99.442962 
L 248.143893 95.619836 
L 250.322782 88.301279 
L 252.501672 83.495063 
L 254.680561 86.772028 
L 256.859451 101.190678 
L 259.03834 89.721297 
L 261.21723 100.972213 
L 263.39612 89.065904 
L 265.575009 101.736838 
L 267.753899 101.29991 
L 269.932788 95.073675 
L 272.111678 92.998263 
L 274.290567 74.428791 
L 276.469457 79.125775 
L 278.648347 88.738208 
L 280.827236 96.384461 
L 283.006126 96.056765 
L 285.185015 91.905941 
L 287.363905 99.115266 
L 289.542794 101.409142 
L 291.721684 98.132176 
L 293.900574 95.292139 
L 296.079463 95.510604 
L 298.258353 94.309049 
L 300.437242 112.113897 
L 302.616132 87.536654 
L 304.795021 107.30768 
L 306.973911 105.887662 
L 309.1528 119.213989 
L 311.33169 97.586015 
L 313.51058 93.653656 
L 315.689469 135.380353 
L 317.868359 107.526145 
L 320.047248 102.282999 
L 322.226138 125.549456 
L 324.405027 94.418282 
L 326.583917 107.635377 
L 328.762807 107.416912 
L 330.941696 109.820021 
L 335.299475 98.678337 
L 337.478365 83.931991 
L 339.657254 94.636746 
L 341.836144 98.678337 
L 344.015034 107.853841 
L 346.193923 88.519743 
L 348.372813 83.822759 
L 350.551702 93.981353 
L 352.730592 91.796709 
L 354.909481 104.467643 
L 357.088371 98.350641 
L 359.267261 80.218097 
L 361.44615 82.730437 
L 363.62504 95.073675 
L 365.803929 96.493693 
L 367.982819 115.718559 
L 370.161708 79.8904 
L 372.340598 83.167366 
L 374.519487 106.433823 
L 376.698377 86.662796 
L 378.877267 85.679706 
L 381.056156 79.999632 
L 383.235046 91.905941 
L 385.413935 83.713527 
L 387.592825 94.418282 
L 389.771714 97.149086 
L 391.950604 91.469012 
L 394.129494 91.141316 
L 396.308383 92.779799 
L 398.487273 86.553564 
L 398.487273 86.553564 
" style="fill:none;stroke:#ff0000;stroke-linecap:square;stroke-width:1.5;"/>
   </g>
   <g id="patch_3">
    <path d="M 57.6 307.584 
L 57.6 41.472 
" style="fill:none;stroke:#000000;stroke-linecap:square;stroke-linejoin:miter;stroke-width:0.8;"/>
   </g>
   <g id="patch_4">
    <path d="M 414.72 307.584 
L 414.72 41.472 
" style="fill:none;stroke:#000000;stroke-linecap:square;stroke-linejoin:miter;stroke-width:0.8;"/>
   </g>
   <g id="patch_5">
    <path d="M 57.6 307.584 
L 414.72 307.584 
" style="fill:none;stroke:#000000;stroke-linecap:square;stroke-linejoin:miter;stroke-width:0.8;"/>
   </g>
   <g id="patch_6">
    <path d="M 57.6 41.472 
L 414.72 41.472 
" style="fill:none;stroke:#000000;stroke-linecap:square;stroke-linejoin:miter;stroke-width:0.8;"/>
   </g>
   <g id="text_16">
    <!-- Population's average and best fitness -->
    <defs>
     <path d="M 19.671875 64.796875 
L 19.671875 37.40625 
L 32.078125 37.40625 
Q 38.96875 37.40625 42.71875 40.96875 
Q 46.484375 44.53125 46.484375 51.125 
Q 46.484375 57.671875 42.71875 61.234375 
Q 38.96875 64.796875 32.078125 64.796875 
z
M 9.8125 72.90625 
L 32.078125 72.90625 
Q 44.34375 72.90625 50.609375 67.359375 
Q 56.890625 61.8125 56.890625 51.125 
Q 56.890625 40.328125 50.609375 34.8125 
Q 44.34375 29.296875 32.078125 29.296875 
L 19.671875 29.296875 
L 19.671875 0 
L 9.8125 0 
z
" id="DejaVuSans-80"/>
     <path d="M 18.109375 8.203125 
L 18.109375 -20.796875 
L 9.078125 -20.796875 
L 9.078125 54.6875 
L 18.109375 54.6875 
L 18.109375 46.390625 
Q 20.953125 51.265625 25.265625 53.625 
Q 29.59375 56 35.59375 56 
Q 45.5625 56 51.78125 48.09375 
Q 58.015625 40.1875 58.015625 27.296875 
Q 58.015625 14.40625 51.78125 6.484375 
Q 45.5625 -1.421875 35.59375 -1.421875 
Q 29.59375 -1.421875 25.265625 0.953125 
Q 20.953125 3.328125 18.109375 8.203125 
z
M 48.6875 27.296875 
Q 48.6875 37.203125 44.609375 42.84375 
Q 40.53125 48.484375 33.40625 48.484375 
Q 26.265625 48.484375 22.1875 42.84375 
Q 18.109375 37.203125 18.109375 27.296875 
Q 18.109375 17.390625 22.1875 11.75 
Q 26.265625 6.109375 33.40625 6.109375 
Q 40.53125 6.109375 44.609375 11.75 
Q 48.6875 17.390625 48.6875 27.296875 
z
" id="DejaVuSans-112"/>
     <path d="M 8.5 21.578125 
L 8.5 54.6875 
L 17.484375 54.6875 
L 17.484375 21.921875 
Q 17.484375 14.15625 20.5 10.265625 
Q 23.53125 6.390625 29.59375 6.390625 
Q 36.859375 6.390625 41.078125 11.03125 
Q 45.3125 15.671875 45.3125 23.6875 
L 45.3125 54.6875 
L 54.296875 54.6875 
L 54.296875 0 
L 45.3125 0 
L 45.3125 8.40625 
Q 42.046875 3.421875 37.71875 1 
Q 33.40625 -1.421875 27.6875 -1.421875 
Q 18.265625 -1.421875 13.375 4.4375 
Q 8.5 10.296875 8.5 21.578125 
z
M 31.109375 56 
z
" id="DejaVuSans-117"/>
     <path d="M 9.421875 75.984375 
L 18.40625 75.984375 
L 18.40625 0 
L 9.421875 0 
z
" id="DejaVuSans-108"/>
     <path d="M 17.921875 72.90625 
L 17.921875 45.796875 
L 9.625 45.796875 
L 9.625 72.90625 
z
" id="DejaVuSans-39"/>
     <path id="DejaVuSans-32"/>
     <path d="M 2.984375 54.6875 
L 12.5 54.6875 
L 29.59375 8.796875 
L 46.6875 54.6875 
L 56.203125 54.6875 
L 35.6875 0 
L 23.484375 0 
z
" id="DejaVuSans-118"/>
     <path d="M 45.40625 27.984375 
Q 45.40625 37.75 41.375 43.109375 
Q 37.359375 48.484375 30.078125 48.484375 
Q 22.859375 48.484375 18.828125 43.109375 
Q 14.796875 37.75 14.796875 27.984375 
Q 14.796875 18.265625 18.828125 12.890625 
Q 22.859375 7.515625 30.078125 7.515625 
Q 37.359375 7.515625 41.375 12.890625 
Q 45.40625 18.265625 45.40625 27.984375 
z
M 54.390625 6.78125 
Q 54.390625 -7.171875 48.1875 -13.984375 
Q 42 -20.796875 29.203125 -20.796875 
Q 24.46875 -20.796875 20.265625 -20.09375 
Q 16.0625 -19.390625 12.109375 -17.921875 
L 12.109375 -9.1875 
Q 16.0625 -11.328125 19.921875 -12.34375 
Q 23.78125 -13.375 27.78125 -13.375 
Q 36.625 -13.375 41.015625 -8.765625 
Q 45.40625 -4.15625 45.40625 5.171875 
L 45.40625 9.625 
Q 42.625 4.78125 38.28125 2.390625 
Q 33.9375 0 27.875 0 
Q 17.828125 0 11.671875 7.65625 
Q 5.515625 15.328125 5.515625 27.984375 
Q 5.515625 40.671875 11.671875 48.328125 
Q 17.828125 56 27.875 56 
Q 33.9375 56 38.28125 53.609375 
Q 42.625 51.21875 45.40625 46.390625 
L 45.40625 54.6875 
L 54.390625 54.6875 
z
" id="DejaVuSans-103"/>
     <path d="M 45.40625 46.390625 
L 45.40625 75.984375 
L 54.390625 75.984375 
L 54.390625 0 
L 45.40625 0 
L 45.40625 8.203125 
Q 42.578125 3.328125 38.25 0.953125 
Q 33.9375 -1.421875 27.875 -1.421875 
Q 17.96875 -1.421875 11.734375 6.484375 
Q 5.515625 14.40625 5.515625 27.296875 
Q 5.515625 40.1875 11.734375 48.09375 
Q 17.96875 56 27.875 56 
Q 33.9375 56 38.25 53.625 
Q 42.578125 51.265625 45.40625 46.390625 
z
M 14.796875 27.296875 
Q 14.796875 17.390625 18.875 11.75 
Q 22.953125 6.109375 30.078125 6.109375 
Q 37.203125 6.109375 41.296875 11.75 
Q 45.40625 17.390625 45.40625 27.296875 
Q 45.40625 37.203125 41.296875 42.84375 
Q 37.203125 48.484375 30.078125 48.484375 
Q 22.953125 48.484375 18.875 42.84375 
Q 14.796875 37.203125 14.796875 27.296875 
z
" id="DejaVuSans-100"/>
     <path d="M 48.6875 27.296875 
Q 48.6875 37.203125 44.609375 42.84375 
Q 40.53125 48.484375 33.40625 48.484375 
Q 26.265625 48.484375 22.1875 42.84375 
Q 18.109375 37.203125 18.109375 27.296875 
Q 18.109375 17.390625 22.1875 11.75 
Q 26.265625 6.109375 33.40625 6.109375 
Q 40.53125 6.109375 44.609375 11.75 
Q 48.6875 17.390625 48.6875 27.296875 
z
M 18.109375 46.390625 
Q 20.953125 51.265625 25.265625 53.625 
Q 29.59375 56 35.59375 56 
Q 45.5625 56 51.78125 48.09375 
Q 58.015625 40.1875 58.015625 27.296875 
Q 58.015625 14.40625 51.78125 6.484375 
Q 45.5625 -1.421875 35.59375 -1.421875 
Q 29.59375 -1.421875 25.265625 0.953125 
Q 20.953125 3.328125 18.109375 8.203125 
L 18.109375 0 
L 9.078125 0 
L 9.078125 75.984375 
L 18.109375 75.984375 
z
" id="DejaVuSans-98"/>
     <path d="M 37.109375 75.984375 
L 37.109375 68.5 
L 28.515625 68.5 
Q 23.6875 68.5 21.796875 66.546875 
Q 19.921875 64.59375 19.921875 59.515625 
L 19.921875 54.6875 
L 34.71875 54.6875 
L 34.71875 47.703125 
L 19.921875 47.703125 
L 19.921875 0 
L 10.890625 0 
L 10.890625 47.703125 
L 2.296875 47.703125 
L 2.296875 54.6875 
L 10.890625 54.6875 
L 10.890625 58.5 
Q 10.890625 67.625 15.140625 71.796875 
Q 19.390625 75.984375 28.609375 75.984375 
z
" id="DejaVuSans-102"/>
    </defs>
    <g transform="translate(123.315 35.472)scale(0.12 -0.12)">
     <use xlink:href="#DejaVuSans-80"/>
     <use x="60.255859" xlink:href="#DejaVuSans-111"/>
     <use x="121.4375" xlink:href="#DejaVuSans-112"/>
     <use x="184.914062" xlink:href="#DejaVuSans-117"/>
     <use x="248.292969" xlink:href="#DejaVuSans-108"/>
     <use x="276.076172" xlink:href="#DejaVuSans-97"/>
     <use x="337.355469" xlink:href="#DejaVuSans-116"/>
     <use x="376.564453" xlink:href="#DejaVuSans-105"/>
     <use x="404.347656" xlink:href="#DejaVuSans-111"/>
     <use x="465.529297" xlink:href="#DejaVuSans-110"/>
     <use x="528.908203" xlink:href="#DejaVuSans-39"/>
     <use x="556.398438" xlink:href="#DejaVuSans-115"/>
     <use x="608.498047" xlink:href="#DejaVuSans-32"/>
     <use x="640.285156" xlink:href="#DejaVuSans-97"/>
     <use x="701.564453" xlink:href="#DejaVuSans-118"/>
     <use x="760.744141" xlink:href="#DejaVuSans-101"/>
     <use x="822.267578" xlink:href="#DejaVuSans-114"/>
     <use x="863.380859" xlink:href="#DejaVuSans-97"/>
     <use x="924.660156" xlink:href="#DejaVuSans-103"/>
     <use x="988.136719" xlink:href="#DejaVuSans-101"/>
     <use x="1049.660156" xlink:href="#DejaVuSans-32"/>
     <use x="1081.447266" xlink:href="#DejaVuSans-97"/>
     <use x="1142.726562" xlink:href="#DejaVuSans-110"/>
     <use x="1206.105469" xlink:href="#DejaVuSans-100"/>
     <use x="1269.582031" xlink:href="#DejaVuSans-32"/>
     <use x="1301.369141" xlink:href="#DejaVuSans-98"/>
     <use x="1364.845703" xlink:href="#DejaVuSans-101"/>
     <use x="1426.369141" xlink:href="#DejaVuSans-115"/>
     <use x="1478.46875" xlink:href="#DejaVuSans-116"/>
     <use x="1517.677734" xlink:href="#DejaVuSans-32"/>
     <use x="1549.464844" xlink:href="#DejaVuSans-102"/>
     <use x="1584.669922" xlink:href="#DejaVuSans-105"/>
     <use x="1612.453125" xlink:href="#DejaVuSans-116"/>
     <use x="1651.662109" xlink:href="#DejaVuSans-110"/>
     <use x="1715.041016" xlink:href="#DejaVuSans-101"/>
     <use x="1776.564453" xlink:href="#DejaVuSans-115"/>
     <use x="1828.664062" xlink:href="#DejaVuSans-115"/>
    </g>
   </g>
   <g id="legend_1">
    <g id="patch_7">
     <path d="M 199.689687 302.584 
L 272.630313 302.584 
Q 274.630313 302.584 274.630313 300.584 
L 274.630313 242.8715 
Q 274.630313 240.8715 272.630313 240.8715 
L 199.689687 240.8715 
Q 197.689687 240.8715 197.689687 242.8715 
L 197.689687 300.584 
Q 197.689687 302.584 199.689687 302.584 
z
" style="fill:#ffffff;opacity:0.8;stroke:#cccccc;stroke-linejoin:miter;"/>
    </g>
    <g id="line2d_31">
     <path d="M 201.689687 248.969937 
L 221.689687 248.969937 
" style="fill:none;stroke:#0000ff;stroke-linecap:square;stroke-width:1.5;"/>
    </g>
    <g id="line2d_32"/>
    <g id="text_17">
     <!-- average -->
     <g transform="translate(229.689687 252.469937)scale(0.1 -0.1)">
      <use xlink:href="#DejaVuSans-97"/>
      <use x="61.279297" xlink:href="#DejaVuSans-118"/>
      <use x="120.458984" xlink:href="#DejaVuSans-101"/>
      <use x="181.982422" xlink:href="#DejaVuSans-114"/>
      <use x="223.095703" xlink:href="#DejaVuSans-97"/>
      <use x="284.375" xlink:href="#DejaVuSans-103"/>
      <use x="347.851562" xlink:href="#DejaVuSans-101"/>
     </g>
    </g>
    <g id="line2d_33">
     <path d="M 201.689687 263.648062 
L 221.689687 263.648062 
" style="fill:none;stroke:#008000;stroke-dasharray:9.6,2.4,1.5,2.4;stroke-dashoffset:0;stroke-width:1.5;"/>
    </g>
    <g id="line2d_34"/>
    <g id="text_18">
     <!-- -1 sd -->
     <defs>
      <path d="M 4.890625 31.390625 
L 31.203125 31.390625 
L 31.203125 23.390625 
L 4.890625 23.390625 
z
" id="DejaVuSans-45"/>
     </defs>
     <g transform="translate(229.689687 267.148062)scale(0.1 -0.1)">
      <use xlink:href="#DejaVuSans-45"/>
      <use x="36.083984" xlink:href="#DejaVuSans-49"/>
      <use x="99.707031" xlink:href="#DejaVuSans-32"/>
      <use x="131.494141" xlink:href="#DejaVuSans-115"/>
      <use x="183.59375" xlink:href="#DejaVuSans-100"/>
     </g>
    </g>
    <g id="line2d_35">
     <path d="M 201.689687 278.326187 
L 221.689687 278.326187 
" style="fill:none;stroke:#008000;stroke-dasharray:9.6,2.4,1.5,2.4;stroke-dashoffset:0;stroke-width:1.5;"/>
    </g>
    <g id="line2d_36"/>
    <g id="text_19">
     <!-- +1 sd -->
     <defs>
      <path d="M 46 62.703125 
L 46 35.5 
L 73.1875 35.5 
L 73.1875 27.203125 
L 46 27.203125 
L 46 0 
L 37.796875 0 
L 37.796875 27.203125 
L 10.59375 27.203125 
L 10.59375 35.5 
L 37.796875 35.5 
L 37.796875 62.703125 
z
" id="DejaVuSans-43"/>
     </defs>
     <g transform="translate(229.689687 281.826187)scale(0.1 -0.1)">
      <use xlink:href="#DejaVuSans-43"/>
      <use x="83.789062" xlink:href="#DejaVuSans-49"/>
      <use x="147.412109" xlink:href="#DejaVuSans-32"/>
      <use x="179.199219" xlink:href="#DejaVuSans-115"/>
      <use x="231.298828" xlink:href="#DejaVuSans-100"/>
     </g>
    </g>
    <g id="line2d_37">
     <path d="M 201.689687 293.004312 
L 221.689687 293.004312 
" style="fill:none;stroke:#ff0000;stroke-linecap:square;stroke-width:1.5;"/>
    </g>
    <g id="line2d_38"/>
    <g id="text_20">
     <!-- best -->
     <g transform="translate(229.689687 296.504312)scale(0.1 -0.1)">
      <use xlink:href="#DejaVuSans-98"/>
      <use x="63.476562" xlink:href="#DejaVuSans-101"/>
      <use x="125" xlink:href="#DejaVuSans-115"/>
      <use x="177.099609" xlink:href="#DejaVuSans-116"/>
     </g>
    </g>
   </g>
  </g>
 </g>
 <defs>
  <clipPath id="p238607ba0f">
   <rect height="266.112" width="357.12" x="57.6" y="41.472"/>
  </clipPath>
 </defs>
</svg>
