<?xml version="1.0" encoding="UTF-8" standalone="no"?>
<!DOCTYPE svg PUBLIC "-//W3C//DTD SVG 1.1//EN"
 "http://www.w3.org/Graphics/SVG/1.1/DTD/svg11.dtd">
<!-- Generated by graphviz version 2.40.1 (20161225.0304)
 -->
<!-- Title: %3 Pages: 1 -->
<svg width="477pt" height="342pt"
 viewBox="0.00 0.00 476.54 342.24" xmlns="http://www.w3.org/2000/svg" xmlns:xlink="http://www.w3.org/1999/xlink">
<g id="graph0" class="graph" transform="scale(1 1) rotate(0) translate(4 338.2412)">
<title>%3</title>
<polygon fill="#ffffff" stroke="transparent" points="-4,4 -4,-338.2412 472.5373,-338.2412 472.5373,4 -4,4"/>
<!-- &#45;1 -->
<g id="node1" class="node">
<title>&#45;1</title>
<polygon fill="#d3d3d3" stroke="#000000" points="322.4981,-334.2412 298.4932,-334.2412 298.4932,-317.2412 322.4981,-317.2412 322.4981,-334.2412"/>
<text text-anchor="middle" x="310.4957" y="-323.0412" font-family="Times,serif" font-size="9.00" fill="#000000">&#45;1</text>
</g>
<!-- &#45;2 -->
<g id="node2" class="node">
<title>&#45;2</title>
<polygon fill="#d3d3d3" stroke="#000000" points="363.4981,-334.2412 339.4932,-334.2412 339.4932,-317.2412 363.4981,-317.2412 363.4981,-334.2412"/>
<text text-anchor="middle" x="351.4957" y="-323.0412" font-family="Times,serif" font-size="9.00" fill="#000000">&#45;2</text>
</g>
<!-- &#45;1&#45;&gt;&#45;2 -->
<!-- 4 -->
<g id="node8" class="node">
<title>4</title>
<ellipse fill="#add8e6" stroke="#000000" cx="202.4957" cy="-14.4957" rx="14.4914" ry="14.4914"/>
<text text-anchor="middle" x="202.4957" y="-11.7957" font-family="Times,serif" font-size="9.00" fill="#000000">4</text>
</g>
<!-- &#45;1&#45;&gt;4 -->
<g id="edge15" class="edge">
<title>&#45;1&#45;&gt;4</title>
<path fill="none" stroke="#00ff00" stroke-width=".4707" d="M298.5929,-323.056C280.1195,-318.203 244.9623,-306.0821 228.4957,-281.2412 177.9596,-205.004 189.7039,-88.5662 197.8792,-38.6179"/>
<polygon fill="#00ff00" stroke="#00ff00" stroke-width=".4707" points="201.332,-39.1906 199.5951,-28.7391 194.4353,-37.9926 201.332,-39.1906"/>
</g>
<!-- 964 -->
<g id="node13" class="node">
<title>964</title>
<ellipse fill="#ffffff" stroke="#000000" cx="343.4957" cy="-173.1163" rx="20.7202" ry="20.7202"/>
<text text-anchor="middle" x="343.4957" y="-170.4163" font-family="Times,serif" font-size="9.00" fill="#000000">964</text>
</g>
<!-- &#45;1&#45;&gt;964 -->
<g id="edge11" class="edge">
<title>&#45;1&#45;&gt;964</title>
<path fill="none" stroke="#00ff00" stroke-width=".3576" d="M312.3645,-317.0981C317.0057,-295.6325 329.236,-239.0674 336.9128,-203.5621"/>
<polygon fill="#00ff00" stroke="#00ff00" stroke-width=".3576" points="340.349,-204.2311 339.0414,-193.7173 333.5071,-202.7517 340.349,-204.2311"/>
</g>
<!-- &#45;3 -->
<g id="node3" class="node">
<title>&#45;3</title>
<polygon fill="#d3d3d3" stroke="#000000" points="404.4981,-334.2412 380.4932,-334.2412 380.4932,-317.2412 404.4981,-317.2412 404.4981,-334.2412"/>
<text text-anchor="middle" x="392.4957" y="-323.0412" font-family="Times,serif" font-size="9.00" fill="#000000">&#45;3</text>
</g>
<!-- &#45;2&#45;&gt;&#45;3 -->
<!-- 8 -->
<g id="node12" class="node">
<title>8</title>
<ellipse fill="#add8e6" stroke="#000000" cx="391.4957" cy="-14.4957" rx="14.4914" ry="14.4914"/>
<text text-anchor="middle" x="391.4957" y="-11.7957" font-family="Times,serif" font-size="9.00" fill="#000000">8</text>
</g>
<!-- &#45;3&#45;&gt;8 -->
<g id="edge13" class="edge">
<title>&#45;3&#45;&gt;8</title>
<path fill="none" stroke="#ff0000" stroke-width=".2818" d="M392.4679,-317.0918C392.3376,-276.5333 391.7847,-104.4364 391.5759,-39.4648"/>
<polygon fill="#ff0000" stroke="#ff0000" stroke-width=".2818" points="395.0755,-39.2992 391.5433,-29.3106 388.0755,-39.3218 395.0755,-39.2992"/>
</g>
<!-- 0 -->
<g id="node4" class="node">
<title>0</title>
<ellipse fill="#add8e6" stroke="#000000" cx="14.4957" cy="-14.4957" rx="14.4914" ry="14.4914"/>
<text text-anchor="middle" x="14.4957" y="-11.7957" font-family="Times,serif" font-size="9.00" fill="#000000">0</text>
</g>
<!-- 1 -->
<g id="node5" class="node">
<title>1</title>
<ellipse fill="#add8e6" stroke="#000000" cx="61.4957" cy="-14.4957" rx="14.4914" ry="14.4914"/>
<text text-anchor="middle" x="61.4957" y="-11.7957" font-family="Times,serif" font-size="9.00" fill="#000000">1</text>
</g>
<!-- 0&#45;&gt;1 -->
<!-- 2 -->
<g id="node6" class="node">
<title>2</title>
<ellipse fill="#add8e6" stroke="#000000" cx="108.4957" cy="-14.4957" rx="14.4914" ry="14.4914"/>
<text text-anchor="middle" x="108.4957" y="-11.7957" font-family="Times,serif" font-size="9.00" fill="#000000">2</text>
</g>
<!-- 1&#45;&gt;2 -->
<!-- 3 -->
<g id="node7" class="node">
<title>3</title>
<ellipse fill="#add8e6" stroke="#000000" cx="155.4957" cy="-14.4957" rx="14.4914" ry="14.4914"/>
<text text-anchor="middle" x="155.4957" y="-11.7957" font-family="Times,serif" font-size="9.00" fill="#000000">3</text>
</g>
<!-- 2&#45;&gt;3 -->
<!-- 3&#45;&gt;4 -->
<!-- 5 -->
<g id="node9" class="node">
<title>5</title>
<ellipse fill="#add8e6" stroke="#000000" cx="249.4957" cy="-14.4957" rx="14.4914" ry="14.4914"/>
<text text-anchor="middle" x="249.4957" y="-11.7957" font-family="Times,serif" font-size="9.00" fill="#000000">5</text>
</g>
<!-- 4&#45;&gt;5 -->
<!-- 6 -->
<g id="node10" class="node">
<title>6</title>
<ellipse fill="#add8e6" stroke="#000000" cx="296.4957" cy="-14.4957" rx="14.4914" ry="14.4914"/>
<text text-anchor="middle" x="296.4957" y="-11.7957" font-family="Times,serif" font-size="9.00" fill="#000000">6</text>
</g>
<!-- 5&#45;&gt;6 -->
<!-- 7 -->
<g id="node11" class="node">
<title>7</title>
<ellipse fill="#add8e6" stroke="#000000" cx="343.4957" cy="-14.4957" rx="14.4914" ry="14.4914"/>
<text text-anchor="middle" x="343.4957" y="-11.7957" font-family="Times,serif" font-size="9.00" fill="#000000">7</text>
</g>
<!-- 6&#45;&gt;7 -->
<!-- 7&#45;&gt;8 -->
<!-- 1568 -->
<g id="node16" class="node">
<title>1568</title>
<ellipse fill="#ffffff" stroke="#000000" cx="123.4957" cy="-173.1163" rx="24.0833" ry="24.0833"/>
<text text-anchor="middle" x="123.4957" y="-170.4163" font-family="Times,serif" font-size="9.00" fill="#000000">1568</text>
</g>
<!-- 7&#45;&gt;1568 -->
<g id="edge14" class="edge">
<title>7&#45;&gt;1568</title>
<path fill="none" stroke="#ff0000" stroke-width="1.0336" stroke-dasharray="1,5" d="M331.0542,-22.6587C327.4114,-24.8692 323.366,-27.1557 319.4957,-28.9914 276.4381,-49.4133 257.9302,-38.2345 218.4957,-64.9914 187.1887,-86.2336 159.6835,-120.1703 142.4339,-144.3553"/>
<polygon fill="#ff0000" stroke="#ff0000" stroke-width="1.0336" points="139.4058,-142.5787 136.5548,-152.7827 145.1469,-146.5838 139.4058,-142.5787"/>
</g>
<!-- 2745 -->
<g id="node17" class="node">
<title>2745</title>
<ellipse fill="#ffffff" stroke="#000000" cx="261.4957" cy="-257.1995" rx="24.0833" ry="24.0833"/>
<text text-anchor="middle" x="261.4957" y="-254.4995" font-family="Times,serif" font-size="9.00" fill="#000000">2745</text>
</g>
<!-- 7&#45;&gt;2745 -->
<g id="edge19" class="edge">
<title>7&#45;&gt;2745</title>
<path fill="none" stroke="#00ff00" stroke-width=".464" d="M338.7841,-28.4411C326.037,-66.1699 290.6149,-171.0123 272.4885,-224.6629"/>
<polygon fill="#00ff00" stroke="#00ff00" stroke-width=".464" points="269.0951,-223.7723 269.21,-234.3665 275.7268,-226.013 269.0951,-223.7723"/>
</g>
<!-- 964&#45;&gt;7 -->
<g id="edge12" class="edge">
<title>964&#45;&gt;7</title>
<path fill="none" stroke="#ff0000" stroke-width=".166" d="M343.4957,-152.0527C343.4957,-122.931 343.4957,-70.4585 343.4957,-39.4211"/>
<polygon fill="#ff0000" stroke="#ff0000" stroke-width=".166" points="346.9958,-39.039 343.4957,-29.039 339.9958,-39.039 346.9958,-39.039"/>
</g>
<!-- 2623 -->
<g id="node19" class="node">
<title>2623</title>
<ellipse fill="#ffffff" stroke="#000000" cx="251.4957" cy="-89.033" rx="24.0833" ry="24.0833"/>
<text text-anchor="middle" x="251.4957" y="-86.333" font-family="Times,serif" font-size="9.00" fill="#000000">2623</text>
</g>
<!-- 964&#45;&gt;2623 -->
<g id="edge17" class="edge">
<title>964&#45;&gt;2623</title>
<path fill="none" stroke="#00ff00" stroke-width=".2963" d="M327.8891,-158.8527C313.9673,-146.1289 293.3227,-127.2607 277.0032,-112.3456"/>
<polygon fill="#00ff00" stroke="#00ff00" stroke-width=".2963" points="279.1305,-109.5482 269.3877,-105.3854 274.408,-114.7153 279.1305,-109.5482"/>
</g>
<!-- 1542 -->
<g id="node14" class="node">
<title>1542</title>
<ellipse fill="#ffffff" stroke="#000000" cx="444.4957" cy="-173.1163" rx="24.0833" ry="24.0833"/>
<text text-anchor="middle" x="444.4957" y="-170.4163" font-family="Times,serif" font-size="9.00" fill="#000000">1542</text>
</g>
<!-- 2692 -->
<g id="node15" class="node">
<title>2692</title>
<ellipse fill="#ffffff" stroke="#000000" cx="444.4957" cy="-257.1995" rx="24.0833" ry="24.0833"/>
<text text-anchor="middle" x="444.4957" y="-254.4995" font-family="Times,serif" font-size="9.00" fill="#000000">2692</text>
</g>
<!-- 1568&#45;&gt;0 -->
<g id="edge21" class="edge">
<title>1568&#45;&gt;0</title>
<path fill="none" stroke="#ff0000" stroke-width=".3227" d="M101.2195,-163.0734C81.7252,-153.1352 54.1442,-136.0806 38.4957,-113.0746 23.4794,-90.9982 17.8314,-60.5045 15.7222,-39.3009"/>
<polygon fill="#ff0000" stroke="#ff0000" stroke-width=".3227" points="19.1969,-38.8427 14.911,-29.1534 12.2191,-39.4006 19.1969,-38.8427"/>
</g>
<!-- 1568&#45;&gt;2 -->
<g id="edge16" class="edge">
<title>1568&#45;&gt;2</title>
<path fill="none" stroke="#ff0000" stroke-width=".2539" stroke-dasharray="1,5" d="M121.2175,-149.0252C118.4146,-119.385 113.6799,-69.3176 110.8448,-39.3374"/>
<polygon fill="#ff0000" stroke="#ff0000" stroke-width=".2539" points="114.3194,-38.9019 109.8934,-29.2759 107.3505,-39.561 114.3194,-38.9019"/>
</g>
<!-- 2782 -->
<g id="node18" class="node">
<title>2782</title>
<ellipse fill="#ffffff" stroke="#000000" cx="71.4957" cy="-89.033" rx="24.0833" ry="24.0833"/>
<text text-anchor="middle" x="71.4957" y="-86.333" font-family="Times,serif" font-size="9.00" fill="#000000">2782</text>
</g>
<!-- 1568&#45;&gt;2782 -->
<g id="edge22" class="edge">
<title>1568&#45;&gt;2782</title>
<path fill="none" stroke="#00ff00" stroke-width=".3152" d="M110.6418,-152.3316C104.2817,-142.0475 96.4975,-129.4605 89.5504,-118.2273"/>
<polygon fill="#00ff00" stroke="#00ff00" stroke-width=".3152" points="92.4383,-116.2426 84.2018,-109.5786 86.4848,-119.9245 92.4383,-116.2426"/>
</g>
<!-- 2745&#45;&gt;1568 -->
<g id="edge20" class="edge">
<title>2745&#45;&gt;1568</title>
<path fill="none" stroke="#ff0000" stroke-width=".8232" d="M240.8357,-244.6114C217.5637,-230.4318 179.5485,-207.2692 153.119,-191.1657"/>
<polygon fill="#ff0000" stroke="#ff0000" stroke-width=".8232" points="154.6578,-188.0048 144.2969,-185.7904 151.0155,-193.9826 154.6578,-188.0048"/>
</g>
<!-- 2782&#45;&gt;2 -->
<g id="edge23" class="edge">
<title>2782&#45;&gt;2</title>
<path fill="none" stroke="#00ff00" stroke-width=".1417" d="M82.1976,-67.4737C86.9997,-57.7997 92.6599,-46.3972 97.4966,-36.6536"/>
<polygon fill="#00ff00" stroke="#00ff00" stroke-width=".1417" points="100.6852,-38.1018 101.9965,-27.5884 94.4152,-34.9894 100.6852,-38.1018"/>
</g>
<!-- 2623&#45;&gt;2 -->
<g id="edge18" class="edge">
<title>2623&#45;&gt;2</title>
<path fill="none" stroke="#00ff00" stroke-width=".4611" d="M229.7408,-78.673C205.6831,-67.0743 165.9056,-47.4745 132.4957,-28.9914 131.6758,-28.5378 130.8434,-28.0704 130.0052,-27.594"/>
<polygon fill="#00ff00" stroke="#00ff00" stroke-width=".4611" points="131.4886,-24.4059 121.0949,-22.3513 127.9388,-30.4391 131.4886,-24.4059"/>
</g>
</g>
</svg>
