<?xml version="1.0" encoding="utf-8" standalone="no"?>
<!DOCTYPE svg PUBLIC "-//W3C//DTD SVG 1.1//EN"
  "http://www.w3.org/Graphics/SVG/1.1/DTD/svg11.dtd">
<!-- Created with matplotlib (https://matplotlib.org/) -->
<svg height="345.6pt" version="1.1" viewBox="0 0 460.8 345.6" width="460.8pt" xmlns="http://www.w3.org/2000/svg" xmlns:xlink="http://www.w3.org/1999/xlink">
 <defs>
  <style type="text/css">
*{stroke-linecap:butt;stroke-linejoin:round;}
  </style>
 </defs>
 <g id="figure_1">
  <g id="patch_1">
   <path d="M 0 345.6 
L 460.8 345.6 
L 460.8 0 
L 0 0 
z
" style="fill:#ffffff;"/>
  </g>
  <g id="axes_1">
   <g id="patch_2">
    <path d="M 57.6 307.584 
L 414.72 307.584 
L 414.72 41.472 
L 57.6 41.472 
z
" style="fill:#ffffff;"/>
   </g>
   <g id="PolyCollection_1">
    <path clip-path="url(#p6abd61f45a)" d="M 73.832727 53.568 
L 73.832727 61.838878 
L 74.918528 99.695584 
L 76.00433 99.972852 
L 77.090131 96.252678 
L 78.175932 116.99702 
L 79.261733 114.916582 
L 80.347534 123.714548 
L 81.433335 126.039433 
L 82.519137 143.000329 
L 83.604938 140.7703 
L 84.690739 144.146332 
L 85.77654 131.631065 
L 86.862341 133.147772 
L 87.948142 143.732529 
L 89.033943 136.003865 
L 90.119745 122.767237 
L 91.205546 143.743289 
L 92.291347 117.877082 
L 93.377148 107.118894 
L 94.462949 112.760201 
L 95.54875 138.476253 
L 96.634552 122.417551 
L 97.720353 119.599779 
L 98.806154 115.952628 
L 99.891955 129.236405 
L 100.977756 139.016422 
L 102.063557 166.662769 
L 103.149358 140.763055 
L 104.23516 136.605989 
L 105.320961 172.728931 
L 106.406762 178.442969 
L 107.492563 170.044064 
L 108.578364 170.176034 
L 109.664165 193.024389 
L 110.749967 169.842772 
L 111.835768 165.30937 
L 112.921569 162.967447 
L 114.00737 181.71392 
L 115.093171 195.281503 
L 116.178972 215.498995 
L 117.264773 207.708227 
L 118.350575 187.019357 
L 119.436376 191.572627 
L 120.522177 225.219733 
L 121.607978 216.77501 
L 122.693779 204.598431 
L 123.77958 215.365265 
L 124.865382 232.419039 
L 125.951183 250.928142 
L 127.036984 227.071906 
L 128.122785 213.195401 
L 129.208586 207.082578 
L 130.294387 220.638238 
L 131.380189 208.433121 
L 132.46599 202.607161 
L 133.551791 193.414864 
L 134.637592 168.148643 
L 135.723393 194.645079 
L 136.809194 181.5305 
L 137.894995 182.504464 
L 138.980797 164.670143 
L 140.066598 158.196024 
L 141.152399 176.903702 
L 142.2382 207.333576 
L 143.324001 161.027685 
L 144.409802 127.221369 
L 145.495604 138.221384 
L 146.581405 144.61852 
L 147.667206 169.005467 
L 148.753007 167.933755 
L 149.838808 129.5871 
L 150.924609 137.074339 
L 152.01041 157.847139 
L 153.096212 151.978318 
L 154.182013 151.37771 
L 155.267814 170.779633 
L 156.353615 167.377208 
L 157.439416 187.500734 
L 158.525217 146.297836 
L 159.611019 152.245541 
L 160.69682 159.483176 
L 161.782621 172.168347 
L 162.868422 182.332096 
L 163.954223 177.050278 
L 165.040024 239.676329 
L 166.125825 226.033897 
L 167.211627 214.76009 
L 168.297428 198.465674 
L 169.383229 201.833007 
L 170.46903 199.83336 
L 171.554831 216.675413 
L 172.640632 224.65055 
L 173.726434 208.596534 
L 174.812235 221.070262 
L 175.898036 185.054059 
L 176.983837 194.486769 
L 178.069638 181.049939 
L 179.155439 196.393677 
L 180.24124 173.617254 
L 181.327042 177.843344 
L 182.412843 179.881045 
L 183.498644 188.984922 
L 184.584445 173.735539 
L 185.670246 171.58292 
L 186.756047 163.03395 
L 187.841849 162.71377 
L 188.92765 155.234118 
L 190.013451 177.414209 
L 191.099252 185.127944 
L 192.185053 210.337379 
L 193.270854 201.270354 
L 194.356656 209.354251 
L 195.442457 220.556842 
L 196.528258 254.941212 
L 197.614059 243.372273 
L 198.69986 208.060482 
L 199.785661 233.250933 
L 200.871462 240.060557 
L 201.957264 247.568878 
L 203.043065 262.283144 
L 204.128866 250.852274 
L 205.214667 238.896789 
L 206.300468 224.154236 
L 207.386269 238.713511 
L 208.472071 232.834686 
L 209.557872 224.650696 
L 210.643673 234.76543 
L 211.729474 219.098794 
L 212.815275 234.378592 
L 213.901076 246.971244 
L 214.986877 241.976176 
L 216.072679 204.57335 
L 217.15848 211.547508 
L 218.244281 212.906017 
L 219.330082 208.944743 
L 220.415883 244.206594 
L 221.501684 218.635495 
L 222.587486 203.427082 
L 223.673287 199.457174 
L 224.759088 190.518952 
L 225.844889 193.430717 
L 226.93069 202.552183 
L 228.016491 193.119958 
L 229.102292 204.353574 
L 230.188094 194.557924 
L 231.273895 210.067742 
L 232.359696 200.126767 
L 233.445497 241.8777 
L 234.531298 253.190314 
L 235.617099 215.407142 
L 236.702901 237.349833 
L 237.788702 233.611442 
L 238.874503 230.962357 
L 239.960304 207.26558 
L 241.046105 199.965437 
L 242.131906 168.150145 
L 243.217708 211.992545 
L 244.303509 207.697475 
L 245.38931 200.057229 
L 246.475111 196.545774 
L 247.560912 183.408283 
L 248.646713 230.39866 
L 249.732514 213.02026 
L 250.818316 229.569565 
L 251.904117 210.354011 
L 252.989918 221.662852 
L 254.075719 212.623903 
L 255.16152 201.015283 
L 256.247321 160.075762 
L 257.333123 172.801531 
L 258.418924 180.707175 
L 259.504725 178.917654 
L 260.590526 168.035794 
L 261.676327 184.710734 
L 262.762128 138.758899 
L 263.847929 143.19516 
L 264.933731 133.508766 
L 266.019532 167.154212 
L 267.105333 136.044532 
L 268.191134 167.646394 
L 269.276935 191.545796 
L 270.362736 164.783628 
L 271.448538 173.40386 
L 272.534339 194.800043 
L 273.62014 171.511184 
L 274.705941 189.873619 
L 275.791742 207.542436 
L 276.877543 234.824683 
L 277.963344 220.676896 
L 279.049146 224.28786 
L 280.134947 220.803008 
L 281.220748 203.699269 
L 282.306549 205.440135 
L 283.39235 241.845055 
L 284.478151 228.924431 
L 285.563953 206.837377 
L 286.649754 199.198748 
L 287.735555 222.848501 
L 288.821356 217.55825 
L 289.907157 211.713246 
L 290.992958 208.779734 
L 292.07876 213.229276 
L 293.164561 212.984787 
L 294.250362 200.806475 
L 295.336163 192.524895 
L 296.421964 212.129021 
L 297.507765 184.578996 
L 298.593566 177.957391 
L 299.679368 184.50016 
L 300.765169 178.686304 
L 301.85097 162.163123 
L 302.936771 175.182879 
L 304.022572 171.327039 
L 305.108373 183.9265 
L 306.194175 175.523492 
L 307.279976 198.547514 
L 308.365777 198.245363 
L 309.451578 194.690375 
L 310.537379 175.634927 
L 311.62318 169.669366 
L 312.708981 219.554515 
L 313.794783 240.812144 
L 314.880584 194.991981 
L 315.966385 189.672842 
L 317.052186 191.27247 
L 318.137987 184.901191 
L 319.223788 199.556399 
L 320.30959 228.966653 
L 321.395391 242.178035 
L 322.481192 223.185217 
L 323.566993 209.117141 
L 324.652794 246.869728 
L 325.738595 208.22531 
L 326.824396 221.723087 
L 327.910198 224.705182 
L 328.995999 215.223305 
L 330.0818 231.439073 
L 331.167601 231.581872 
L 332.253402 217.216203 
L 333.339203 252.962719 
L 334.425005 271.237404 
L 335.510806 263.038722 
L 336.596607 213.174438 
L 337.682408 224.794144 
L 338.768209 225.913978 
L 339.85401 251.486751 
L 340.939811 194.075959 
L 342.025613 192.407046 
L 343.111414 207.316318 
L 344.197215 192.679453 
L 345.283016 243.180533 
L 346.368817 268.751424 
L 347.454618 295.488 
L 348.54042 247.3528 
L 349.626221 220.301735 
L 350.712022 217.047754 
L 351.797823 260.596626 
L 352.883624 277.057567 
L 353.969425 216.853223 
L 355.055227 238.836632 
L 356.141028 215.684277 
L 357.226829 194.600713 
L 358.31263 163.732837 
L 359.398431 183.522908 
L 360.484232 201.148596 
L 361.570033 208.821101 
L 362.655835 196.562818 
L 363.741636 202.659629 
L 364.827437 223.705486 
L 365.913238 212.966554 
L 366.999039 210.723401 
L 368.08484 251.703787 
L 369.170642 246.20132 
L 370.256443 241.324717 
L 371.342244 237.267191 
L 372.428045 232.560483 
L 373.513846 272.739995 
L 374.599647 254.017419 
L 375.685448 266.124103 
L 376.77125 257.566975 
L 377.857051 264.206985 
L 378.942852 231.842616 
L 380.028653 246.363669 
L 381.114454 246.859355 
L 382.200255 264.045607 
L 383.286057 224.653078 
L 384.371858 255.291276 
L 385.457659 249.709604 
L 386.54346 228.269001 
L 387.629261 193.857399 
L 388.715062 242.656831 
L 389.800863 236.567735 
L 390.886665 219.544255 
L 391.972466 230.782755 
L 393.058267 203.795515 
L 394.144068 185.121341 
L 395.229869 195.718302 
L 396.31567 182.610793 
L 397.401472 201.217468 
L 398.487273 214.504194 
L 398.487273 180.068989 
L 398.487273 180.068989 
L 397.401472 159.288629 
L 396.31567 162.248116 
L 395.229869 176.051435 
L 394.144068 164.238134 
L 393.058267 179.682692 
L 391.972466 195.641239 
L 390.886665 199.379786 
L 389.800863 213.564906 
L 388.715062 225.838715 
L 387.629261 189.318339 
L 386.54346 206.084066 
L 385.457659 211.014217 
L 384.371858 216.236547 
L 383.286057 198.544693 
L 382.200255 219.741389 
L 381.114454 208.909688 
L 380.028653 197.287983 
L 378.942852 199.922187 
L 377.857051 206.886936 
L 376.77125 213.086017 
L 375.685448 212.828555 
L 374.599647 211.739151 
L 373.513846 225.32381 
L 372.428045 201.720836 
L 371.342244 202.488006 
L 370.256443 201.314027 
L 369.170642 205.21927 
L 368.08484 199.601764 
L 366.999039 177.174035 
L 365.913238 186.674747 
L 364.827437 198.520076 
L 363.741636 180.054745 
L 362.655835 165.609195 
L 361.570033 191.041021 
L 360.484232 174.756997 
L 359.398431 166.103761 
L 358.31263 153.83408 
L 357.226829 170.130936 
L 356.141028 180.65273 
L 355.055227 193.064073 
L 353.969425 183.970197 
L 352.883624 234.818476 
L 351.797823 231.723435 
L 350.712022 195.577551 
L 349.626221 190.337624 
L 348.54042 236.582731 
L 347.454618 265.311799 
L 346.368817 241.302528 
L 345.283016 236.271958 
L 344.197215 183.16458 
L 343.111414 191.840604 
L 342.025613 176.401995 
L 340.939811 185.004591 
L 339.85401 237.148696 
L 338.768209 211.355118 
L 337.682408 213.405974 
L 336.596607 206.749489 
L 335.510806 229.196977 
L 334.425005 246.683072 
L 333.339203 229.543237 
L 332.253402 205.865291 
L 331.167601 215.86467 
L 330.0818 212.849059 
L 328.995999 202.235639 
L 327.910198 210.71074 
L 326.824396 205.88671 
L 325.738595 190.057789 
L 324.652794 223.059228 
L 323.566993 190.276924 
L 322.481192 198.378361 
L 321.395391 203.528147 
L 320.30959 211.11415 
L 319.223788 179.449361 
L 318.137987 166.450405 
L 317.052186 169.344557 
L 315.966385 168.373043 
L 314.880584 176.260855 
L 313.794783 211.894374 
L 312.708981 198.414806 
L 311.62318 147.414751 
L 310.537379 158.97224 
L 309.451578 174.404761 
L 308.365777 174.297529 
L 307.279976 176.140651 
L 306.194175 148.613899 
L 305.108373 160.736314 
L 304.022572 150.367483 
L 302.936771 149.555895 
L 301.85097 143.21155 
L 300.765169 164.868101 
L 299.679368 168.405203 
L 298.593566 151.501737 
L 297.507765 157.418718 
L 296.421964 178.901565 
L 295.336163 160.409337 
L 294.250362 190.065311 
L 293.164561 197.517554 
L 292.07876 193.744482 
L 290.992958 186.59212 
L 289.907157 189.632112 
L 288.821356 190.392942 
L 287.735555 179.083668 
L 286.649754 175.607965 
L 285.563953 170.535797 
L 284.478151 202.033622 
L 283.39235 217.654079 
L 282.306549 182.133919 
L 281.220748 183.204952 
L 280.134947 198.019465 
L 279.049146 211.537357 
L 277.963344 194.204303 
L 276.877543 194.092765 
L 275.791742 176.863154 
L 274.705941 166.426103 
L 273.62014 150.216361 
L 272.534339 172.813869 
L 271.448538 156.38896 
L 270.362736 143.319793 
L 269.276935 166.017335 
L 268.191134 139.670675 
L 267.105333 121.259657 
L 266.019532 125.130951 
L 264.933731 120.955644 
L 263.847929 112.754835 
L 262.762128 124.798826 
L 261.676327 172.571008 
L 260.590526 154.798668 
L 259.504725 153.418473 
L 258.418924 162.140136 
L 257.333123 168.390363 
L 256.247321 151.545507 
L 255.16152 178.158181 
L 254.075719 190.259395 
L 252.989918 207.892296 
L 251.904117 197.023324 
L 250.818316 211.489524 
L 249.732514 196.74726 
L 248.646713 205.294047 
L 247.560912 173.566622 
L 246.475111 174.89821 
L 245.38931 181.033626 
L 244.303509 181.200275 
L 243.217708 191.286803 
L 242.131906 152.111214 
L 241.046105 189.098484 
L 239.960304 189.980892 
L 238.874503 211.15439 
L 237.788702 198.128343 
L 236.702901 210.343163 
L 235.617099 192.138191 
L 234.531298 213.794167 
L 233.445497 222.56 
L 232.359696 187.338598 
L 231.273895 195.709626 
L 230.188094 175.183943 
L 229.102292 166.626852 
L 228.016491 171.954064 
L 226.93069 172.35509 
L 225.844889 184.647432 
L 224.759088 172.951269 
L 223.673287 174.636042 
L 222.587486 178.270957 
L 221.501684 201.170198 
L 220.415883 218.018137 
L 219.330082 191.400339 
L 218.244281 189.00271 
L 217.15848 184.080667 
L 216.072679 179.398442 
L 214.986877 209.71756 
L 213.901076 223.104112 
L 212.815275 215.968528 
L 211.729474 208.937661 
L 210.643673 202.309655 
L 209.557872 212.574573 
L 208.472071 212.341535 
L 207.386269 224.414297 
L 206.300468 192.500876 
L 205.214667 230.956751 
L 204.128866 230.970202 
L 203.043065 228.460019 
L 201.957264 229.834712 
L 200.871462 225.945236 
L 199.785661 210.204485 
L 198.69986 183.333291 
L 197.614059 213.774398 
L 196.528258 234.033605 
L 195.442457 193.460154 
L 194.356656 197.56324 
L 193.270854 161.78989 
L 192.185053 175.590111 
L 191.099252 156.328459 
L 190.013451 155.895934 
L 188.92765 139.796759 
L 187.841849 141.755582 
L 186.756047 144.800163 
L 185.670246 158.639397 
L 184.584445 156.2579 
L 183.498644 175.031681 
L 182.412843 169.34757 
L 181.327042 147.478906 
L 180.24124 146.30381 
L 179.155439 167.141892 
L 178.069638 153.928964 
L 176.983837 165.555851 
L 175.898036 162.158424 
L 174.812235 191.188125 
L 173.726434 181.819157 
L 172.640632 183.187908 
L 171.554831 182.659633 
L 170.46903 163.928224 
L 169.383229 170.611667 
L 168.297428 170.39174 
L 167.211627 186.880835 
L 166.125825 190.709785 
L 165.040024 188.685506 
L 163.954223 149.741248 
L 162.868422 157.605275 
L 161.782621 151.53426 
L 160.69682 136.63147 
L 159.611019 133.239296 
L 158.525217 139.614715 
L 157.439416 164.65983 
L 156.353615 158.299632 
L 155.267814 167.549571 
L 154.182013 133.194786 
L 153.096212 140.681263 
L 152.01041 148.970489 
L 150.924609 121.757217 
L 149.838808 120.888466 
L 148.753007 162.022845 
L 147.667206 148.536943 
L 146.581405 127.384659 
L 145.495604 119.676659 
L 144.409802 106.457624 
L 143.324001 132.41637 
L 142.2382 177.694995 
L 141.152399 159.393997 
L 140.066598 145.808431 
L 138.980797 149.489003 
L 137.894995 156.399192 
L 136.809194 170.035849 
L 135.723393 169.432564 
L 134.637592 155.214518 
L 133.551791 174.887268 
L 132.46599 186.524294 
L 131.380189 186.097419 
L 130.294387 196.939957 
L 129.208586 177.509399 
L 128.122785 187.610425 
L 127.036984 212.206859 
L 125.951183 209.188301 
L 124.865382 201.197896 
L 123.77958 185.221939 
L 122.693779 175.312354 
L 121.607978 178.38612 
L 120.522177 194.189439 
L 119.436376 172.220325 
L 118.350575 178.407855 
L 117.264773 177.356732 
L 116.178972 187.482187 
L 115.093171 176.375664 
L 114.00737 157.031491 
L 112.921569 143.245372 
L 111.835768 153.141343 
L 110.749967 153.906096 
L 109.664165 173.651899 
L 108.578364 158.673187 
L 107.492563 153.007358 
L 106.406762 135.079674 
L 105.320961 143.526201 
L 104.23516 121.681394 
L 103.149358 119.344836 
L 102.063557 135.299693 
L 100.977756 116.190684 
L 99.891955 119.758309 
L 98.806154 109.725138 
L 97.720353 108.93796 
L 96.634552 109.309844 
L 95.54875 117.581087 
L 94.462949 100.662095 
L 93.377148 97.73794 
L 92.291347 103.980976 
L 91.205546 129.281535 
L 90.119745 111.138497 
L 89.033943 129.889051 
L 87.948142 134.333928 
L 86.862341 119.829084 
L 85.77654 118.084921 
L 84.690739 131.636689 
L 83.604938 133.839207 
L 82.519137 134.559339 
L 81.433335 107.367677 
L 80.347534 109.979453 
L 79.261733 90.900602 
L 78.175932 99.695824 
L 77.090131 85.915769 
L 76.00433 86.841218 
L 74.918528 83.195161 
L 73.832727 53.568 
z
" style="fill:#0000ff;fill-opacity:0.25;"/>
   </g>
   <g id="matplotlib.axis_1">
    <g id="xtick_1">
     <g id="line2d_1">
      <defs>
       <path d="M 0 0 
L 0 3.5 
" id="me9a477f96b" style="stroke:#000000;stroke-width:0.8;"/>
      </defs>
      <g>
       <use style="stroke:#000000;stroke-width:0.8;" x="73.832727" xlink:href="#me9a477f96b" y="307.584"/>
      </g>
     </g>
     <g id="text_1">
      <!-- 0 -->
      <defs>
       <path d="M 31.78125 66.40625 
Q 24.171875 66.40625 20.328125 58.90625 
Q 16.5 51.421875 16.5 36.375 
Q 16.5 21.390625 20.328125 13.890625 
Q 24.171875 6.390625 31.78125 6.390625 
Q 39.453125 6.390625 43.28125 13.890625 
Q 47.125 21.390625 47.125 36.375 
Q 47.125 51.421875 43.28125 58.90625 
Q 39.453125 66.40625 31.78125 66.40625 
z
M 31.78125 74.21875 
Q 44.046875 74.21875 50.515625 64.515625 
Q 56.984375 54.828125 56.984375 36.375 
Q 56.984375 17.96875 50.515625 8.265625 
Q 44.046875 -1.421875 31.78125 -1.421875 
Q 19.53125 -1.421875 13.0625 8.265625 
Q 6.59375 17.96875 6.59375 36.375 
Q 6.59375 54.828125 13.0625 64.515625 
Q 19.53125 74.21875 31.78125 74.21875 
z
" id="DejaVuSans-48"/>
      </defs>
      <g transform="translate(70.651477 322.182437)scale(0.1 -0.1)">
       <use xlink:href="#DejaVuSans-48"/>
      </g>
     </g>
    </g>
    <g id="xtick_2">
     <g id="line2d_2">
      <g>
       <use style="stroke:#000000;stroke-width:0.8;" x="128.122785" xlink:href="#me9a477f96b" y="307.584"/>
      </g>
     </g>
     <g id="text_2">
      <!-- 50 -->
      <defs>
       <path d="M 10.796875 72.90625 
L 49.515625 72.90625 
L 49.515625 64.59375 
L 19.828125 64.59375 
L 19.828125 46.734375 
Q 21.96875 47.46875 24.109375 47.828125 
Q 26.265625 48.1875 28.421875 48.1875 
Q 40.625 48.1875 47.75 41.5 
Q 54.890625 34.8125 54.890625 23.390625 
Q 54.890625 11.625 47.5625 5.09375 
Q 40.234375 -1.421875 26.90625 -1.421875 
Q 22.3125 -1.421875 17.546875 -0.640625 
Q 12.796875 0.140625 7.71875 1.703125 
L 7.71875 11.625 
Q 12.109375 9.234375 16.796875 8.0625 
Q 21.484375 6.890625 26.703125 6.890625 
Q 35.15625 6.890625 40.078125 11.328125 
Q 45.015625 15.765625 45.015625 23.390625 
Q 45.015625 31 40.078125 35.4375 
Q 35.15625 39.890625 26.703125 39.890625 
Q 22.75 39.890625 18.8125 39.015625 
Q 14.890625 38.140625 10.796875 36.28125 
z
" id="DejaVuSans-53"/>
      </defs>
      <g transform="translate(121.760285 322.182437)scale(0.1 -0.1)">
       <use xlink:href="#DejaVuSans-53"/>
       <use x="63.623047" xlink:href="#DejaVuSans-48"/>
      </g>
     </g>
    </g>
    <g id="xtick_3">
     <g id="line2d_3">
      <g>
       <use style="stroke:#000000;stroke-width:0.8;" x="182.412843" xlink:href="#me9a477f96b" y="307.584"/>
      </g>
     </g>
     <g id="text_3">
      <!-- 100 -->
      <defs>
       <path d="M 12.40625 8.296875 
L 28.515625 8.296875 
L 28.515625 63.921875 
L 10.984375 60.40625 
L 10.984375 69.390625 
L 28.421875 72.90625 
L 38.28125 72.90625 
L 38.28125 8.296875 
L 54.390625 8.296875 
L 54.390625 0 
L 12.40625 0 
z
" id="DejaVuSans-49"/>
      </defs>
      <g transform="translate(172.869093 322.182437)scale(0.1 -0.1)">
       <use xlink:href="#DejaVuSans-49"/>
       <use x="63.623047" xlink:href="#DejaVuSans-48"/>
       <use x="127.246094" xlink:href="#DejaVuSans-48"/>
      </g>
     </g>
    </g>
    <g id="xtick_4">
     <g id="line2d_4">
      <g>
       <use style="stroke:#000000;stroke-width:0.8;" x="236.702901" xlink:href="#me9a477f96b" y="307.584"/>
      </g>
     </g>
     <g id="text_4">
      <!-- 150 -->
      <g transform="translate(227.159151 322.182437)scale(0.1 -0.1)">
       <use xlink:href="#DejaVuSans-49"/>
       <use x="63.623047" xlink:href="#DejaVuSans-53"/>
       <use x="127.246094" xlink:href="#DejaVuSans-48"/>
      </g>
     </g>
    </g>
    <g id="xtick_5">
     <g id="line2d_5">
      <g>
       <use style="stroke:#000000;stroke-width:0.8;" x="290.992958" xlink:href="#me9a477f96b" y="307.584"/>
      </g>
     </g>
     <g id="text_5">
      <!-- 200 -->
      <defs>
       <path d="M 19.1875 8.296875 
L 53.609375 8.296875 
L 53.609375 0 
L 7.328125 0 
L 7.328125 8.296875 
Q 12.9375 14.109375 22.625 23.890625 
Q 32.328125 33.6875 34.8125 36.53125 
Q 39.546875 41.84375 41.421875 45.53125 
Q 43.3125 49.21875 43.3125 52.78125 
Q 43.3125 58.59375 39.234375 62.25 
Q 35.15625 65.921875 28.609375 65.921875 
Q 23.96875 65.921875 18.8125 64.3125 
Q 13.671875 62.703125 7.8125 59.421875 
L 7.8125 69.390625 
Q 13.765625 71.78125 18.9375 73 
Q 24.125 74.21875 28.421875 74.21875 
Q 39.75 74.21875 46.484375 68.546875 
Q 53.21875 62.890625 53.21875 53.421875 
Q 53.21875 48.921875 51.53125 44.890625 
Q 49.859375 40.875 45.40625 35.40625 
Q 44.1875 33.984375 37.640625 27.21875 
Q 31.109375 20.453125 19.1875 8.296875 
z
" id="DejaVuSans-50"/>
      </defs>
      <g transform="translate(281.449208 322.182437)scale(0.1 -0.1)">
       <use xlink:href="#DejaVuSans-50"/>
       <use x="63.623047" xlink:href="#DejaVuSans-48"/>
       <use x="127.246094" xlink:href="#DejaVuSans-48"/>
      </g>
     </g>
    </g>
    <g id="xtick_6">
     <g id="line2d_6">
      <g>
       <use style="stroke:#000000;stroke-width:0.8;" x="345.283016" xlink:href="#me9a477f96b" y="307.584"/>
      </g>
     </g>
     <g id="text_6">
      <!-- 250 -->
      <g transform="translate(335.739266 322.182437)scale(0.1 -0.1)">
       <use xlink:href="#DejaVuSans-50"/>
       <use x="63.623047" xlink:href="#DejaVuSans-53"/>
       <use x="127.246094" xlink:href="#DejaVuSans-48"/>
      </g>
     </g>
    </g>
    <g id="xtick_7">
     <g id="line2d_7">
      <g>
       <use style="stroke:#000000;stroke-width:0.8;" x="399.573074" xlink:href="#me9a477f96b" y="307.584"/>
      </g>
     </g>
     <g id="text_7">
      <!-- 300 -->
      <defs>
       <path d="M 40.578125 39.3125 
Q 47.65625 37.796875 51.625 33 
Q 55.609375 28.21875 55.609375 21.1875 
Q 55.609375 10.40625 48.1875 4.484375 
Q 40.765625 -1.421875 27.09375 -1.421875 
Q 22.515625 -1.421875 17.65625 -0.515625 
Q 12.796875 0.390625 7.625 2.203125 
L 7.625 11.71875 
Q 11.71875 9.328125 16.59375 8.109375 
Q 21.484375 6.890625 26.8125 6.890625 
Q 36.078125 6.890625 40.9375 10.546875 
Q 45.796875 14.203125 45.796875 21.1875 
Q 45.796875 27.640625 41.28125 31.265625 
Q 36.765625 34.90625 28.71875 34.90625 
L 20.21875 34.90625 
L 20.21875 43.015625 
L 29.109375 43.015625 
Q 36.375 43.015625 40.234375 45.921875 
Q 44.09375 48.828125 44.09375 54.296875 
Q 44.09375 59.90625 40.109375 62.90625 
Q 36.140625 65.921875 28.71875 65.921875 
Q 24.65625 65.921875 20.015625 65.03125 
Q 15.375 64.15625 9.8125 62.3125 
L 9.8125 71.09375 
Q 15.4375 72.65625 20.34375 73.4375 
Q 25.25 74.21875 29.59375 74.21875 
Q 40.828125 74.21875 47.359375 69.109375 
Q 53.90625 64.015625 53.90625 55.328125 
Q 53.90625 49.265625 50.4375 45.09375 
Q 46.96875 40.921875 40.578125 39.3125 
z
" id="DejaVuSans-51"/>
      </defs>
      <g transform="translate(390.029324 322.182437)scale(0.1 -0.1)">
       <use xlink:href="#DejaVuSans-51"/>
       <use x="63.623047" xlink:href="#DejaVuSans-48"/>
       <use x="127.246094" xlink:href="#DejaVuSans-48"/>
      </g>
     </g>
    </g>
   </g>
   <g id="matplotlib.axis_2">
    <g id="ytick_1">
     <g id="line2d_8">
      <defs>
       <path d="M 0 0 
L -3.5 0 
" id="mb2757e1926" style="stroke:#000000;stroke-width:0.8;"/>
      </defs>
      <g>
       <use style="stroke:#000000;stroke-width:0.8;" x="57.6" xlink:href="#mb2757e1926" y="279.772763"/>
      </g>
     </g>
     <g id="text_8">
      <!-- 0.4 -->
      <defs>
       <path d="M 10.6875 12.40625 
L 21 12.40625 
L 21 0 
L 10.6875 0 
z
" id="DejaVuSans-46"/>
       <path d="M 37.796875 64.3125 
L 12.890625 25.390625 
L 37.796875 25.390625 
z
M 35.203125 72.90625 
L 47.609375 72.90625 
L 47.609375 25.390625 
L 58.015625 25.390625 
L 58.015625 17.1875 
L 47.609375 17.1875 
L 47.609375 0 
L 37.796875 0 
L 37.796875 17.1875 
L 4.890625 17.1875 
L 4.890625 26.703125 
z
" id="DejaVuSans-52"/>
      </defs>
      <g transform="translate(34.696875 283.571981)scale(0.1 -0.1)">
       <use xlink:href="#DejaVuSans-48"/>
       <use x="63.623047" xlink:href="#DejaVuSans-46"/>
       <use x="95.410156" xlink:href="#DejaVuSans-52"/>
      </g>
     </g>
    </g>
    <g id="ytick_2">
     <g id="line2d_9">
      <g>
       <use style="stroke:#000000;stroke-width:0.8;" x="57.6" xlink:href="#mb2757e1926" y="248.164689"/>
      </g>
     </g>
     <g id="text_9">
      <!-- 0.6 -->
      <defs>
       <path d="M 33.015625 40.375 
Q 26.375 40.375 22.484375 35.828125 
Q 18.609375 31.296875 18.609375 23.390625 
Q 18.609375 15.53125 22.484375 10.953125 
Q 26.375 6.390625 33.015625 6.390625 
Q 39.65625 6.390625 43.53125 10.953125 
Q 47.40625 15.53125 47.40625 23.390625 
Q 47.40625 31.296875 43.53125 35.828125 
Q 39.65625 40.375 33.015625 40.375 
z
M 52.59375 71.296875 
L 52.59375 62.3125 
Q 48.875 64.0625 45.09375 64.984375 
Q 41.3125 65.921875 37.59375 65.921875 
Q 27.828125 65.921875 22.671875 59.328125 
Q 17.53125 52.734375 16.796875 39.40625 
Q 19.671875 43.65625 24.015625 45.921875 
Q 28.375 48.1875 33.59375 48.1875 
Q 44.578125 48.1875 50.953125 41.515625 
Q 57.328125 34.859375 57.328125 23.390625 
Q 57.328125 12.15625 50.6875 5.359375 
Q 44.046875 -1.421875 33.015625 -1.421875 
Q 20.359375 -1.421875 13.671875 8.265625 
Q 6.984375 17.96875 6.984375 36.375 
Q 6.984375 53.65625 15.1875 63.9375 
Q 23.390625 74.21875 37.203125 74.21875 
Q 40.921875 74.21875 44.703125 73.484375 
Q 48.484375 72.75 52.59375 71.296875 
z
" id="DejaVuSans-54"/>
      </defs>
      <g transform="translate(34.696875 251.963907)scale(0.1 -0.1)">
       <use xlink:href="#DejaVuSans-48"/>
       <use x="63.623047" xlink:href="#DejaVuSans-46"/>
       <use x="95.410156" xlink:href="#DejaVuSans-54"/>
      </g>
     </g>
    </g>
    <g id="ytick_3">
     <g id="line2d_10">
      <g>
       <use style="stroke:#000000;stroke-width:0.8;" x="57.6" xlink:href="#mb2757e1926" y="216.556615"/>
      </g>
     </g>
     <g id="text_10">
      <!-- 0.8 -->
      <defs>
       <path d="M 31.78125 34.625 
Q 24.75 34.625 20.71875 30.859375 
Q 16.703125 27.09375 16.703125 20.515625 
Q 16.703125 13.921875 20.71875 10.15625 
Q 24.75 6.390625 31.78125 6.390625 
Q 38.8125 6.390625 42.859375 10.171875 
Q 46.921875 13.96875 46.921875 20.515625 
Q 46.921875 27.09375 42.890625 30.859375 
Q 38.875 34.625 31.78125 34.625 
z
M 21.921875 38.8125 
Q 15.578125 40.375 12.03125 44.71875 
Q 8.5 49.078125 8.5 55.328125 
Q 8.5 64.0625 14.71875 69.140625 
Q 20.953125 74.21875 31.78125 74.21875 
Q 42.671875 74.21875 48.875 69.140625 
Q 55.078125 64.0625 55.078125 55.328125 
Q 55.078125 49.078125 51.53125 44.71875 
Q 48 40.375 41.703125 38.8125 
Q 48.828125 37.15625 52.796875 32.3125 
Q 56.78125 27.484375 56.78125 20.515625 
Q 56.78125 9.90625 50.3125 4.234375 
Q 43.84375 -1.421875 31.78125 -1.421875 
Q 19.734375 -1.421875 13.25 4.234375 
Q 6.78125 9.90625 6.78125 20.515625 
Q 6.78125 27.484375 10.78125 32.3125 
Q 14.796875 37.15625 21.921875 38.8125 
z
M 18.3125 54.390625 
Q 18.3125 48.734375 21.84375 45.5625 
Q 25.390625 42.390625 31.78125 42.390625 
Q 38.140625 42.390625 41.71875 45.5625 
Q 45.3125 48.734375 45.3125 54.390625 
Q 45.3125 60.0625 41.71875 63.234375 
Q 38.140625 66.40625 31.78125 66.40625 
Q 25.390625 66.40625 21.84375 63.234375 
Q 18.3125 60.0625 18.3125 54.390625 
z
" id="DejaVuSans-56"/>
      </defs>
      <g transform="translate(34.696875 220.355833)scale(0.1 -0.1)">
       <use xlink:href="#DejaVuSans-48"/>
       <use x="63.623047" xlink:href="#DejaVuSans-46"/>
       <use x="95.410156" xlink:href="#DejaVuSans-56"/>
      </g>
     </g>
    </g>
    <g id="ytick_4">
     <g id="line2d_11">
      <g>
       <use style="stroke:#000000;stroke-width:0.8;" x="57.6" xlink:href="#mb2757e1926" y="184.948541"/>
      </g>
     </g>
     <g id="text_11">
      <!-- 1.0 -->
      <g transform="translate(34.696875 188.747759)scale(0.1 -0.1)">
       <use xlink:href="#DejaVuSans-49"/>
       <use x="63.623047" xlink:href="#DejaVuSans-46"/>
       <use x="95.410156" xlink:href="#DejaVuSans-48"/>
      </g>
     </g>
    </g>
    <g id="ytick_5">
     <g id="line2d_12">
      <g>
       <use style="stroke:#000000;stroke-width:0.8;" x="57.6" xlink:href="#mb2757e1926" y="153.340467"/>
      </g>
     </g>
     <g id="text_12">
      <!-- 1.2 -->
      <g transform="translate(34.696875 157.139685)scale(0.1 -0.1)">
       <use xlink:href="#DejaVuSans-49"/>
       <use x="63.623047" xlink:href="#DejaVuSans-46"/>
       <use x="95.410156" xlink:href="#DejaVuSans-50"/>
      </g>
     </g>
    </g>
    <g id="ytick_6">
     <g id="line2d_13">
      <g>
       <use style="stroke:#000000;stroke-width:0.8;" x="57.6" xlink:href="#mb2757e1926" y="121.732393"/>
      </g>
     </g>
     <g id="text_13">
      <!-- 1.4 -->
      <g transform="translate(34.696875 125.531611)scale(0.1 -0.1)">
       <use xlink:href="#DejaVuSans-49"/>
       <use x="63.623047" xlink:href="#DejaVuSans-46"/>
       <use x="95.410156" xlink:href="#DejaVuSans-52"/>
      </g>
     </g>
    </g>
    <g id="ytick_7">
     <g id="line2d_14">
      <g>
       <use style="stroke:#000000;stroke-width:0.8;" x="57.6" xlink:href="#mb2757e1926" y="90.124319"/>
      </g>
     </g>
     <g id="text_14">
      <!-- 1.6 -->
      <g transform="translate(34.696875 93.923537)scale(0.1 -0.1)">
       <use xlink:href="#DejaVuSans-49"/>
       <use x="63.623047" xlink:href="#DejaVuSans-46"/>
       <use x="95.410156" xlink:href="#DejaVuSans-54"/>
      </g>
     </g>
    </g>
    <g id="ytick_8">
     <g id="line2d_15">
      <g>
       <use style="stroke:#000000;stroke-width:0.8;" x="57.6" xlink:href="#mb2757e1926" y="58.516245"/>
      </g>
     </g>
     <g id="text_15">
      <!-- 1.8 -->
      <g transform="translate(34.696875 62.315463)scale(0.1 -0.1)">
       <use xlink:href="#DejaVuSans-49"/>
       <use x="63.623047" xlink:href="#DejaVuSans-46"/>
       <use x="95.410156" xlink:href="#DejaVuSans-56"/>
      </g>
     </g>
    </g>
    <g id="text_16">
     <!-- Distance -->
     <defs>
      <path d="M 19.671875 64.796875 
L 19.671875 8.109375 
L 31.59375 8.109375 
Q 46.6875 8.109375 53.6875 14.9375 
Q 60.6875 21.78125 60.6875 36.53125 
Q 60.6875 51.171875 53.6875 57.984375 
Q 46.6875 64.796875 31.59375 64.796875 
z
M 9.8125 72.90625 
L 30.078125 72.90625 
Q 51.265625 72.90625 61.171875 64.09375 
Q 71.09375 55.28125 71.09375 36.53125 
Q 71.09375 17.671875 61.125 8.828125 
Q 51.171875 0 30.078125 0 
L 9.8125 0 
z
" id="DejaVuSans-68"/>
      <path d="M 9.421875 54.6875 
L 18.40625 54.6875 
L 18.40625 0 
L 9.421875 0 
z
M 9.421875 75.984375 
L 18.40625 75.984375 
L 18.40625 64.59375 
L 9.421875 64.59375 
z
" id="DejaVuSans-105"/>
      <path d="M 44.28125 53.078125 
L 44.28125 44.578125 
Q 40.484375 46.53125 36.375 47.5 
Q 32.28125 48.484375 27.875 48.484375 
Q 21.1875 48.484375 17.84375 46.4375 
Q 14.5 44.390625 14.5 40.28125 
Q 14.5 37.15625 16.890625 35.375 
Q 19.28125 33.59375 26.515625 31.984375 
L 29.59375 31.296875 
Q 39.15625 29.25 43.1875 25.515625 
Q 47.21875 21.78125 47.21875 15.09375 
Q 47.21875 7.46875 41.1875 3.015625 
Q 35.15625 -1.421875 24.609375 -1.421875 
Q 20.21875 -1.421875 15.453125 -0.5625 
Q 10.6875 0.296875 5.421875 2 
L 5.421875 11.28125 
Q 10.40625 8.6875 15.234375 7.390625 
Q 20.0625 6.109375 24.8125 6.109375 
Q 31.15625 6.109375 34.5625 8.28125 
Q 37.984375 10.453125 37.984375 14.40625 
Q 37.984375 18.0625 35.515625 20.015625 
Q 33.0625 21.96875 24.703125 23.78125 
L 21.578125 24.515625 
Q 13.234375 26.265625 9.515625 29.90625 
Q 5.8125 33.546875 5.8125 39.890625 
Q 5.8125 47.609375 11.28125 51.796875 
Q 16.75 56 26.8125 56 
Q 31.78125 56 36.171875 55.265625 
Q 40.578125 54.546875 44.28125 53.078125 
z
" id="DejaVuSans-115"/>
      <path d="M 18.3125 70.21875 
L 18.3125 54.6875 
L 36.8125 54.6875 
L 36.8125 47.703125 
L 18.3125 47.703125 
L 18.3125 18.015625 
Q 18.3125 11.328125 20.140625 9.421875 
Q 21.96875 7.515625 27.59375 7.515625 
L 36.8125 7.515625 
L 36.8125 0 
L 27.59375 0 
Q 17.1875 0 13.234375 3.875 
Q 9.28125 7.765625 9.28125 18.015625 
L 9.28125 47.703125 
L 2.6875 47.703125 
L 2.6875 54.6875 
L 9.28125 54.6875 
L 9.28125 70.21875 
z
" id="DejaVuSans-116"/>
      <path d="M 34.28125 27.484375 
Q 23.390625 27.484375 19.1875 25 
Q 14.984375 22.515625 14.984375 16.5 
Q 14.984375 11.71875 18.140625 8.90625 
Q 21.296875 6.109375 26.703125 6.109375 
Q 34.1875 6.109375 38.703125 11.40625 
Q 43.21875 16.703125 43.21875 25.484375 
L 43.21875 27.484375 
z
M 52.203125 31.203125 
L 52.203125 0 
L 43.21875 0 
L 43.21875 8.296875 
Q 40.140625 3.328125 35.546875 0.953125 
Q 30.953125 -1.421875 24.3125 -1.421875 
Q 15.921875 -1.421875 10.953125 3.296875 
Q 6 8.015625 6 15.921875 
Q 6 25.140625 12.171875 29.828125 
Q 18.359375 34.515625 30.609375 34.515625 
L 43.21875 34.515625 
L 43.21875 35.40625 
Q 43.21875 41.609375 39.140625 45 
Q 35.0625 48.390625 27.6875 48.390625 
Q 23 48.390625 18.546875 47.265625 
Q 14.109375 46.140625 10.015625 43.890625 
L 10.015625 52.203125 
Q 14.9375 54.109375 19.578125 55.046875 
Q 24.21875 56 28.609375 56 
Q 40.484375 56 46.34375 49.84375 
Q 52.203125 43.703125 52.203125 31.203125 
z
" id="DejaVuSans-97"/>
      <path d="M 54.890625 33.015625 
L 54.890625 0 
L 45.90625 0 
L 45.90625 32.71875 
Q 45.90625 40.484375 42.875 44.328125 
Q 39.84375 48.1875 33.796875 48.1875 
Q 26.515625 48.1875 22.3125 43.546875 
Q 18.109375 38.921875 18.109375 30.90625 
L 18.109375 0 
L 9.078125 0 
L 9.078125 54.6875 
L 18.109375 54.6875 
L 18.109375 46.1875 
Q 21.34375 51.125 25.703125 53.5625 
Q 30.078125 56 35.796875 56 
Q 45.21875 56 50.046875 50.171875 
Q 54.890625 44.34375 54.890625 33.015625 
z
" id="DejaVuSans-110"/>
      <path d="M 48.78125 52.59375 
L 48.78125 44.1875 
Q 44.96875 46.296875 41.140625 47.34375 
Q 37.3125 48.390625 33.40625 48.390625 
Q 24.65625 48.390625 19.8125 42.84375 
Q 14.984375 37.3125 14.984375 27.296875 
Q 14.984375 17.28125 19.8125 11.734375 
Q 24.65625 6.203125 33.40625 6.203125 
Q 37.3125 6.203125 41.140625 7.25 
Q 44.96875 8.296875 48.78125 10.40625 
L 48.78125 2.09375 
Q 45.015625 0.34375 40.984375 -0.53125 
Q 36.96875 -1.421875 32.421875 -1.421875 
Q 20.0625 -1.421875 12.78125 6.34375 
Q 5.515625 14.109375 5.515625 27.296875 
Q 5.515625 40.671875 12.859375 48.328125 
Q 20.21875 56 33.015625 56 
Q 37.15625 56 41.109375 55.140625 
Q 45.0625 54.296875 48.78125 52.59375 
z
" id="DejaVuSans-99"/>
      <path d="M 56.203125 29.59375 
L 56.203125 25.203125 
L 14.890625 25.203125 
Q 15.484375 15.921875 20.484375 11.0625 
Q 25.484375 6.203125 34.421875 6.203125 
Q 39.59375 6.203125 44.453125 7.46875 
Q 49.3125 8.734375 54.109375 11.28125 
L 54.109375 2.78125 
Q 49.265625 0.734375 44.1875 -0.34375 
Q 39.109375 -1.421875 33.890625 -1.421875 
Q 20.796875 -1.421875 13.15625 6.1875 
Q 5.515625 13.8125 5.515625 26.8125 
Q 5.515625 40.234375 12.765625 48.109375 
Q 20.015625 56 32.328125 56 
Q 43.359375 56 49.78125 48.890625 
Q 56.203125 41.796875 56.203125 29.59375 
z
M 47.21875 32.234375 
Q 47.125 39.59375 43.09375 43.984375 
Q 39.0625 48.390625 32.421875 48.390625 
Q 24.90625 48.390625 20.390625 44.140625 
Q 15.875 39.890625 15.1875 32.171875 
z
" id="DejaVuSans-101"/>
     </defs>
     <g transform="translate(28.617187 196.3905)rotate(-90)scale(0.1 -0.1)">
      <use xlink:href="#DejaVuSans-68"/>
      <use x="77.001953" xlink:href="#DejaVuSans-105"/>
      <use x="104.785156" xlink:href="#DejaVuSans-115"/>
      <use x="156.884766" xlink:href="#DejaVuSans-116"/>
      <use x="196.09375" xlink:href="#DejaVuSans-97"/>
      <use x="257.373047" xlink:href="#DejaVuSans-110"/>
      <use x="320.751953" xlink:href="#DejaVuSans-99"/>
      <use x="375.732422" xlink:href="#DejaVuSans-101"/>
     </g>
    </g>
   </g>
   <g id="line2d_16">
    <path clip-path="url(#p6abd61f45a)" d="M 73.832727 57.703439 
L 74.918528 91.445373 
L 76.00433 93.407035 
L 77.090131 91.084224 
L 78.175932 108.346422 
L 79.261733 102.908592 
L 80.347534 116.847001 
L 81.433335 116.703555 
L 82.519137 138.779834 
L 83.604938 137.304753 
L 84.690739 137.891511 
L 85.77654 124.857993 
L 86.862341 126.488428 
L 87.948142 139.033229 
L 89.033943 132.946458 
L 90.119745 116.952867 
L 91.205546 136.512412 
L 92.291347 110.929029 
L 93.377148 102.428417 
L 94.462949 106.711148 
L 95.54875 128.02867 
L 96.634552 115.863698 
L 98.806154 112.838883 
L 99.891955 124.497357 
L 100.977756 127.603553 
L 102.063557 150.981231 
L 103.149358 130.053945 
L 104.23516 129.143691 
L 105.320961 158.127566 
L 106.406762 156.761321 
L 107.492563 161.525711 
L 108.578364 164.424611 
L 109.664165 183.338144 
L 110.749967 161.874434 
L 111.835768 159.225356 
L 112.921569 153.106409 
L 116.178972 201.490591 
L 118.350575 182.713606 
L 119.436376 181.896476 
L 120.522177 209.704586 
L 121.607978 197.580565 
L 122.693779 189.955392 
L 123.77958 200.293602 
L 124.865382 216.808467 
L 125.951183 230.058221 
L 127.036984 219.639383 
L 128.122785 200.402913 
L 129.208586 192.295988 
L 130.294387 208.789098 
L 131.380189 197.26527 
L 132.46599 194.565727 
L 133.551791 184.151066 
L 134.637592 161.681581 
L 135.723393 182.038821 
L 137.894995 169.451828 
L 138.980797 157.079573 
L 140.066598 152.002227 
L 141.152399 168.148849 
L 142.2382 192.514286 
L 143.324001 146.722027 
L 144.409802 116.839496 
L 145.495604 128.949022 
L 146.581405 136.001589 
L 147.667206 158.771205 
L 148.753007 164.9783 
L 149.838808 125.237783 
L 150.924609 129.415778 
L 152.01041 153.408814 
L 153.096212 146.32979 
L 154.182013 142.286248 
L 155.267814 169.164602 
L 156.353615 162.83842 
L 157.439416 176.080282 
L 158.525217 142.956276 
L 159.611019 142.742418 
L 160.69682 148.057323 
L 161.782621 161.851303 
L 162.868422 169.968686 
L 163.954223 163.395763 
L 165.040024 214.180918 
L 166.125825 208.371841 
L 167.211627 200.820463 
L 168.297428 184.428707 
L 169.383229 186.222337 
L 170.46903 181.880792 
L 171.554831 199.667523 
L 172.640632 203.919229 
L 173.726434 195.207845 
L 174.812235 206.129193 
L 175.898036 173.606242 
L 176.983837 180.02131 
L 178.069638 167.489451 
L 179.155439 181.767784 
L 180.24124 159.960532 
L 181.327042 162.661125 
L 182.412843 174.614308 
L 183.498644 182.008302 
L 184.584445 164.99672 
L 185.670246 165.111159 
L 186.756047 153.917056 
L 187.841849 152.234676 
L 188.92765 147.515439 
L 190.013451 166.655072 
L 191.099252 170.728201 
L 192.185053 192.963745 
L 193.270854 181.530122 
L 194.356656 203.458746 
L 195.442457 207.008498 
L 196.528258 244.487408 
L 197.614059 228.573336 
L 198.69986 195.696886 
L 199.785661 221.727709 
L 200.871462 233.002897 
L 201.957264 238.701795 
L 203.043065 245.371582 
L 204.128866 240.911238 
L 205.214667 234.92677 
L 206.300468 208.327556 
L 207.386269 231.563904 
L 208.472071 222.58811 
L 209.557872 218.612634 
L 210.643673 218.537543 
L 211.729474 214.018227 
L 212.815275 225.17356 
L 213.901076 235.037678 
L 214.986877 225.846868 
L 216.072679 191.985896 
L 217.15848 197.814087 
L 218.244281 200.954363 
L 219.330082 200.172541 
L 220.415883 231.112366 
L 222.587486 190.84902 
L 223.673287 187.046608 
L 224.759088 181.73511 
L 225.844889 189.039074 
L 226.93069 187.453636 
L 228.016491 182.537011 
L 229.102292 185.490213 
L 230.188094 184.870934 
L 231.273895 202.888684 
L 232.359696 193.732683 
L 233.445497 232.21885 
L 234.531298 233.49224 
L 235.617099 203.772666 
L 236.702901 223.846498 
L 237.788702 215.869892 
L 238.874503 221.058374 
L 239.960304 198.623236 
L 241.046105 194.53196 
L 242.131906 160.130679 
L 243.217708 201.639674 
L 244.303509 194.448875 
L 245.38931 190.545428 
L 246.475111 185.721992 
L 247.560912 178.487453 
L 248.646713 217.846353 
L 249.732514 204.88376 
L 250.818316 220.529544 
L 251.904117 203.688667 
L 252.989918 214.777574 
L 254.075719 201.441649 
L 255.16152 189.586732 
L 256.247321 155.810634 
L 257.333123 170.595947 
L 258.418924 171.423656 
L 260.590526 161.417231 
L 261.676327 178.640871 
L 262.762128 131.778863 
L 263.847929 127.974997 
L 264.933731 127.232205 
L 266.019532 146.142582 
L 267.105333 128.652095 
L 269.276935 178.781565 
L 270.362736 154.05171 
L 271.448538 164.89641 
L 272.534339 183.806956 
L 273.62014 160.863772 
L 274.705941 178.149861 
L 275.791742 192.202795 
L 276.877543 214.458724 
L 277.963344 207.4406 
L 279.049146 217.912608 
L 280.134947 209.411237 
L 281.220748 193.45211 
L 282.306549 193.787027 
L 283.39235 229.749567 
L 284.478151 215.479026 
L 285.563953 188.686587 
L 286.649754 187.403357 
L 287.735555 200.966084 
L 288.821356 203.975596 
L 290.992958 197.685927 
L 292.07876 203.486879 
L 293.164561 205.251171 
L 294.250362 195.435893 
L 295.336163 176.467116 
L 296.421964 195.515293 
L 297.507765 170.998857 
L 298.593566 164.729564 
L 299.679368 176.452681 
L 300.765169 171.777203 
L 301.85097 152.687337 
L 302.936771 162.369387 
L 304.022572 160.847261 
L 305.108373 172.331407 
L 306.194175 162.068696 
L 307.279976 187.344082 
L 308.365777 186.271446 
L 309.451578 184.547568 
L 310.537379 167.303583 
L 311.62318 158.542059 
L 312.708981 208.98466 
L 313.794783 226.353259 
L 314.880584 185.626418 
L 315.966385 179.022942 
L 317.052186 180.308513 
L 318.137987 175.675798 
L 319.223788 189.50288 
L 320.30959 220.040401 
L 321.395391 222.853091 
L 323.566993 199.697033 
L 324.652794 234.964478 
L 325.738595 199.141549 
L 326.824396 213.804899 
L 327.910198 217.707961 
L 328.995999 208.729472 
L 330.0818 222.144066 
L 331.167601 223.723271 
L 332.253402 211.540747 
L 333.339203 241.252978 
L 334.425005 258.960238 
L 335.510806 246.11785 
L 336.596607 209.961964 
L 337.682408 219.100059 
L 338.768209 218.634548 
L 339.85401 244.317723 
L 340.939811 189.540275 
L 342.025613 184.404521 
L 343.111414 199.578461 
L 344.197215 187.922016 
L 345.283016 239.726245 
L 346.368817 255.026976 
L 347.454618 280.3999 
L 349.626221 205.31968 
L 350.712022 206.312652 
L 351.797823 246.16003 
L 352.883624 255.938022 
L 353.969425 200.41171 
L 355.055227 215.950352 
L 356.141028 198.168503 
L 357.226829 182.365825 
L 358.31263 158.783458 
L 359.398431 174.813334 
L 361.570033 199.931061 
L 362.655835 181.086007 
L 363.741636 191.357187 
L 364.827437 211.112781 
L 365.913238 199.820651 
L 366.999039 193.948718 
L 368.08484 225.652775 
L 369.170642 225.710295 
L 370.256443 221.319372 
L 371.342244 219.877599 
L 372.428045 217.14066 
L 373.513846 249.031902 
L 374.599647 232.878285 
L 375.685448 239.476329 
L 376.77125 235.326496 
L 377.857051 235.54696 
L 378.942852 215.882401 
L 381.114454 227.884522 
L 382.200255 241.893498 
L 383.286057 211.598885 
L 384.371858 235.763911 
L 385.457659 230.361911 
L 386.54346 217.176534 
L 387.629261 191.587869 
L 388.715062 234.247773 
L 389.800863 225.066321 
L 390.886665 209.46202 
L 391.972466 213.211997 
L 393.058267 191.739104 
L 394.144068 174.679737 
L 395.229869 185.884869 
L 396.31567 172.429454 
L 397.401472 180.253048 
L 398.487273 197.286591 
L 398.487273 197.286591 
" style="fill:none;stroke:#0000ff;stroke-linecap:square;stroke-width:1.5;"/>
   </g>
   <g id="patch_3">
    <path d="M 57.6 307.584 
L 57.6 41.472 
" style="fill:none;stroke:#000000;stroke-linecap:square;stroke-linejoin:miter;stroke-width:0.8;"/>
   </g>
   <g id="patch_4">
    <path d="M 414.72 307.584 
L 414.72 41.472 
" style="fill:none;stroke:#000000;stroke-linecap:square;stroke-linejoin:miter;stroke-width:0.8;"/>
   </g>
   <g id="patch_5">
    <path d="M 57.6 307.584 
L 414.72 307.584 
" style="fill:none;stroke:#000000;stroke-linecap:square;stroke-linejoin:miter;stroke-width:0.8;"/>
   </g>
   <g id="patch_6">
    <path d="M 57.6 41.472 
L 414.72 41.472 
" style="fill:none;stroke:#000000;stroke-linecap:square;stroke-linejoin:miter;stroke-width:0.8;"/>
   </g>
  </g>
  <g id="axes_2">
   <g id="PolyCollection_2">
    <path clip-path="url(#p6abd61f45a)" d="M 73.832727 68.077178 
L 73.832727 261.191938 
L 74.918528 274.461551 
L 76.00433 275.40482 
L 77.090131 276.946565 
L 78.175932 279.117139 
L 79.261733 277.020776 
L 80.347534 275.266632 
L 81.433335 276.95555 
L 82.519137 281.183857 
L 83.604938 280.34382 
L 84.690739 282.803576 
L 85.77654 280.35373 
L 86.862341 282.707915 
L 87.948142 276.053671 
L 89.033943 278.926052 
L 90.119745 273.729871 
L 91.205546 274.386126 
L 92.291347 271.960763 
L 93.377148 264.98232 
L 94.462949 265.652047 
L 95.54875 260.492503 
L 96.634552 256.978149 
L 97.720353 260.756787 
L 98.806154 262.284515 
L 99.891955 267.162865 
L 100.977756 278.258929 
L 102.063557 280.514796 
L 103.149358 276.989373 
L 104.23516 280.618146 
L 105.320961 288.223743 
L 106.406762 287.368901 
L 107.492563 287.24588 
L 108.578364 286.444112 
L 109.664165 289.547841 
L 110.749967 284.354765 
L 111.835768 289.83772 
L 112.921569 290.935088 
L 114.00737 290.366444 
L 115.093171 291.853148 
L 116.178972 292.6238 
L 117.264773 292.249261 
L 118.350575 291.07478 
L 119.436376 286.907191 
L 120.522177 293.723483 
L 121.607978 292.61042 
L 122.693779 290.199022 
L 123.77958 292.006024 
L 124.865382 292.446984 
L 125.951183 293.008113 
L 127.036984 293.072592 
L 128.122785 293.046204 
L 129.208586 293.532097 
L 130.294387 293.511907 
L 131.380189 293.662454 
L 132.46599 293.295529 
L 133.551791 292.841548 
L 134.637592 288.353954 
L 135.723393 290.578855 
L 136.809194 291.290508 
L 137.894995 291.871093 
L 138.980797 288.857595 
L 140.066598 287.830798 
L 141.152399 289.742411 
L 142.2382 291.509267 
L 143.324001 288.205454 
L 144.409802 280.576679 
L 145.495604 280.66829 
L 146.581405 279.25591 
L 147.667206 281.225596 
L 148.753007 285.207204 
L 149.838808 283.756006 
L 150.924609 281.61519 
L 152.01041 287.388251 
L 153.096212 286.742134 
L 154.182013 287.29832 
L 155.267814 280.838385 
L 156.353615 280.808856 
L 157.439416 283.409886 
L 158.525217 283.561747 
L 159.611019 284.821666 
L 160.69682 286.250371 
L 161.782621 287.221021 
L 162.868422 292.026481 
L 163.954223 291.663296 
L 165.040024 293.718813 
L 166.125825 294.256429 
L 167.211627 293.408741 
L 168.297428 292.832015 
L 169.383229 292.724796 
L 170.46903 290.932868 
L 171.554831 293.253704 
L 172.640632 293.335775 
L 173.726434 293.833735 
L 174.812235 294.36243 
L 175.898036 293.515241 
L 176.983837 292.891514 
L 178.069638 290.9336 
L 179.155439 293.663314 
L 180.24124 292.375967 
L 181.327042 289.849056 
L 182.412843 291.73378 
L 183.498644 291.166262 
L 184.584445 290.65534 
L 185.670246 291.436125 
L 186.756047 291.079972 
L 187.841849 288.441889 
L 188.92765 287.890734 
L 190.013451 292.032752 
L 191.099252 290.295613 
L 192.185053 290.017982 
L 193.270854 290.360662 
L 194.356656 293.025947 
L 195.442457 293.839081 
L 196.528258 294.378208 
L 197.614059 293.521435 
L 198.69986 292.010158 
L 199.785661 293.777687 
L 200.871462 293.325472 
L 201.957264 292.98007 
L 203.043065 293.276541 
L 204.128866 293.751118 
L 205.214667 293.552128 
L 206.300468 293.140244 
L 207.386269 292.658859 
L 208.472071 293.61367 
L 209.557872 293.095416 
L 210.643673 293.306903 
L 211.729474 293.016229 
L 212.815275 293.333546 
L 213.901076 293.853609 
L 214.986877 292.959873 
L 216.072679 292.153757 
L 217.15848 292.442621 
L 218.244281 292.471247 
L 219.330082 292.607643 
L 220.415883 293.514433 
L 221.501684 293.707751 
L 222.587486 292.159561 
L 223.673287 288.922425 
L 224.759088 291.821783 
L 225.844889 290.775699 
L 226.93069 289.630087 
L 228.016491 290.231977 
L 229.102292 290.73583 
L 230.188094 290.151857 
L 231.273895 291.59601 
L 232.359696 290.497972 
L 233.445497 292.063585 
L 234.531298 292.84856 
L 235.617099 291.539135 
L 236.702901 292.100154 
L 237.788702 292.453186 
L 238.874503 292.381312 
L 239.960304 293.473916 
L 241.046105 292.704464 
L 242.131906 289.879753 
L 243.217708 291.129118 
L 244.303509 291.197954 
L 245.38931 292.053772 
L 246.475111 290.952882 
L 247.560912 290.234274 
L 248.646713 289.747028 
L 249.732514 290.466707 
L 250.818316 290.515014 
L 251.904117 289.628 
L 252.989918 291.401424 
L 254.075719 292.242098 
L 255.16152 292.725847 
L 256.247321 287.735061 
L 257.333123 287.712213 
L 258.418924 288.633891 
L 259.504725 287.535801 
L 260.590526 287.497457 
L 261.676327 287.420623 
L 262.762128 283.759933 
L 263.847929 280.35106 
L 264.933731 275.637077 
L 266.019532 280.643221 
L 267.105333 281.433762 
L 268.191134 281.806777 
L 269.276935 286.83166 
L 270.362736 285.723888 
L 271.448538 288.86213 
L 272.534339 290.341634 
L 273.62014 287.191628 
L 274.705941 289.058358 
L 275.791742 291.005533 
L 276.877543 291.265688 
L 277.963344 290.856797 
L 279.049146 290.58165 
L 280.134947 292.367222 
L 281.220748 291.056777 
L 282.306549 291.177588 
L 283.39235 292.500466 
L 284.478151 292.099258 
L 285.563953 290.627683 
L 286.649754 290.320309 
L 287.735555 290.41421 
L 288.821356 290.864063 
L 289.907157 291.686949 
L 290.992958 290.294478 
L 292.07876 289.994971 
L 293.164561 290.668721 
L 294.250362 288.167993 
L 295.336163 282.414554 
L 296.421964 283.745256 
L 297.507765 284.594391 
L 298.593566 286.388495 
L 299.679368 285.25473 
L 300.765169 282.356292 
L 301.85097 282.134476 
L 302.936771 286.503665 
L 304.022572 286.680244 
L 305.108373 289.074638 
L 306.194175 289.005374 
L 307.279976 291.506672 
L 308.365777 291.22661 
L 309.451578 292.397582 
L 310.537379 290.224694 
L 311.62318 288.50676 
L 312.708981 291.8531 
L 313.794783 293.78812 
L 314.880584 292.933069 
L 315.966385 288.509912 
L 317.052186 291.301313 
L 318.137987 290.073644 
L 319.223788 288.069865 
L 320.30959 290.809976 
L 321.395391 294.337647 
L 322.481192 293.780117 
L 323.566993 293.910361 
L 324.652794 293.989898 
L 325.738595 292.942642 
L 326.824396 289.675174 
L 327.910198 291.566761 
L 328.995999 291.759598 
L 330.0818 292.333061 
L 331.167601 293.898847 
L 332.253402 294.032954 
L 333.339203 294.242967 
L 334.425005 294.510738 
L 335.510806 293.872294 
L 336.596607 293.585786 
L 337.682408 293.812924 
L 338.768209 294.569776 
L 339.85401 294.836804 
L 340.939811 291.887276 
L 342.025613 291.172777 
L 343.111414 292.991071 
L 344.197215 292.161506 
L 345.283016 294.760831 
L 346.368817 295.283921 
L 347.454618 294.706524 
L 348.54042 293.771328 
L 349.626221 291.905044 
L 350.712022 292.053333 
L 351.797823 294.156266 
L 352.883624 294.325184 
L 353.969425 293.598869 
L 355.055227 294.164302 
L 356.141028 293.583278 
L 357.226829 291.002616 
L 358.31263 290.248042 
L 359.398431 292.011481 
L 360.484232 291.72893 
L 361.570033 292.49471 
L 362.655835 291.72708 
L 363.741636 293.223125 
L 364.827437 293.423529 
L 365.913238 293.524167 
L 366.999039 293.572416 
L 368.08484 294.490473 
L 369.170642 293.666441 
L 370.256443 293.958643 
L 371.342244 293.558027 
L 372.428045 293.549147 
L 373.513846 294.473499 
L 374.599647 295.488 
L 375.685448 295.204951 
L 376.77125 295.211361 
L 377.857051 294.085956 
L 378.942852 294.745909 
L 380.028653 294.158293 
L 381.114454 294.603179 
L 382.200255 294.729874 
L 383.286057 294.649641 
L 384.371858 295.110898 
L 385.457659 294.972858 
L 386.54346 294.732087 
L 387.629261 292.559634 
L 388.715062 294.950294 
L 389.800863 295.021844 
L 390.886665 294.696349 
L 391.972466 294.534055 
L 393.058267 293.617919 
L 394.144068 294.235635 
L 395.229869 293.206898 
L 396.31567 291.911254 
L 397.401472 293.100696 
L 398.487273 293.367372 
L 398.487273 144.694611 
L 398.487273 144.694611 
L 397.401472 124.650941 
L 396.31567 118.056376 
L 395.229869 127.542513 
L 394.144068 131.170607 
L 393.058267 134.840546 
L 391.972466 142.953892 
L 390.886665 141.222768 
L 389.800863 141.656419 
L 388.715062 138.417504 
L 387.629261 116.020841 
L 386.54346 138.484805 
L 385.457659 141.087858 
L 384.371858 148.884084 
L 383.286057 142.849542 
L 382.200255 146.570214 
L 381.114454 147.157142 
L 380.028653 158.127921 
L 378.942852 149.402017 
L 377.857051 158.769279 
L 376.77125 147.396758 
L 375.685448 147.63455 
L 374.599647 147.373162 
L 373.513846 150.008567 
L 372.428045 135.81842 
L 371.342244 141.459857 
L 370.256443 137.361835 
L 369.170642 139.956221 
L 368.08484 149.069107 
L 366.999039 130.712501 
L 365.913238 129.679457 
L 364.827437 129.617516 
L 363.741636 124.328276 
L 362.655835 116.980872 
L 361.570033 123.779063 
L 360.484232 124.339712 
L 359.398431 120.518336 
L 358.31263 112.166606 
L 357.226829 117.518999 
L 356.141028 132.489164 
L 355.055227 135.097016 
L 353.969425 132.053446 
L 352.883624 142.742973 
L 351.797823 142.308905 
L 350.712022 132.241902 
L 349.626221 128.063451 
L 348.54042 138.361961 
L 347.454618 146.611332 
L 346.368817 141.528321 
L 345.283016 135.816341 
L 344.197215 113.631906 
L 343.111414 123.198421 
L 342.025613 114.512504 
L 340.939811 117.70664 
L 339.85401 135.108961 
L 338.768209 136.931588 
L 337.682408 129.95324 
L 336.596607 129.719312 
L 335.510806 146.509135 
L 334.425005 141.214204 
L 333.339203 139.088917 
L 332.253402 134.051752 
L 331.167601 132.509133 
L 330.0818 127.194662 
L 328.995999 119.242201 
L 327.910198 109.155068 
L 326.824396 104.940706 
L 325.738595 131.129082 
L 324.652794 133.427355 
L 323.566993 126.952199 
L 322.481192 128.723118 
L 321.395391 136.288631 
L 320.30959 108.292754 
L 319.223788 96.913457 
L 318.137987 104.956932 
L 317.052186 115.953961 
L 315.966385 103.052372 
L 314.880584 126.241255 
L 313.794783 138.283526 
L 312.708981 135.764055 
L 311.62318 110.778478 
L 310.537379 116.427974 
L 309.451578 124.105509 
L 308.365777 123.795479 
L 307.279976 114.01077 
L 306.194175 103.712304 
L 305.108373 106.196731 
L 304.022572 98.92222 
L 302.936771 101.388803 
L 301.85097 91.431643 
L 300.765169 91.384081 
L 299.679368 99.73527 
L 298.593566 98.601944 
L 297.507765 93.430718 
L 296.421964 94.422051 
L 295.336163 88.425571 
L 294.250362 108.597595 
L 293.164561 121.201687 
L 292.07876 121.378387 
L 290.992958 126.932589 
L 289.907157 135.889641 
L 288.821356 142.103541 
L 287.735555 139.716048 
L 286.649754 140.886388 
L 285.563953 129.713847 
L 284.478151 138.194013 
L 283.39235 139.603005 
L 282.306549 131.068249 
L 281.220748 125.159239 
L 280.134947 127.902724 
L 279.049146 121.578186 
L 277.963344 119.411945 
L 276.877543 134.449266 
L 275.791742 131.402744 
L 274.705941 122.037058 
L 273.62014 115.213166 
L 272.534339 123.838174 
L 271.448538 111.470061 
L 270.362736 107.118476 
L 269.276935 111.962811 
L 268.191134 90.432635 
L 267.105333 88.878532 
L 266.019532 87.985012 
L 264.933731 76.8623 
L 263.847929 88.661718 
L 262.762128 91.648644 
L 261.676327 102.746678 
L 260.590526 102.09384 
L 259.504725 106.833939 
L 258.418924 109.802674 
L 257.333123 110.358585 
L 256.247321 102.469739 
L 255.16152 120.446329 
L 254.075719 124.100205 
L 252.989918 121.42993 
L 251.904117 108.826447 
L 250.818316 113.095245 
L 249.732514 116.792496 
L 248.646713 115.5313 
L 247.560912 119.163622 
L 246.475111 127.117256 
L 245.38931 129.316871 
L 244.303509 122.909856 
L 243.217708 117.944403 
L 242.131906 112.463798 
L 241.046105 123.397613 
L 239.960304 131.967849 
L 238.874503 139.695361 
L 237.788702 141.552525 
L 236.702901 136.269186 
L 235.617099 134.644153 
L 234.531298 141.897463 
L 233.445497 145.072742 
L 232.359696 124.663971 
L 231.273895 128.351478 
L 230.188094 129.349203 
L 229.102292 132.802634 
L 228.016491 127.120887 
L 226.93069 126.409956 
L 225.844889 129.379725 
L 224.759088 128.338866 
L 223.673287 110.261426 
L 222.587486 128.133941 
L 221.501684 136.950448 
L 220.415883 137.186878 
L 219.330082 128.913585 
L 218.244281 130.004675 
L 217.15848 131.144543 
L 216.072679 131.849228 
L 214.986877 137.598274 
L 213.901076 143.193303 
L 212.815275 143.510249 
L 211.729474 138.779411 
L 210.643673 143.655603 
L 209.557872 143.000903 
L 208.472071 142.669721 
L 207.386269 135.585856 
L 206.300468 140.511364 
L 205.214667 138.087859 
L 204.128866 140.20075 
L 203.043065 141.646572 
L 201.957264 137.934272 
L 200.871462 135.597889 
L 199.785661 134.209517 
L 198.69986 128.262838 
L 197.614059 143.026891 
L 196.528258 135.735177 
L 195.442457 132.850435 
L 194.356656 124.693734 
L 193.270854 107.598256 
L 192.185053 116.758437 
L 191.099252 114.469624 
L 190.013451 119.010715 
L 188.92765 104.554838 
L 187.841849 104.164239 
L 186.756047 106.541688 
L 185.670246 109.355121 
L 184.584445 106.097204 
L 183.498644 113.019109 
L 182.412843 113.926211 
L 181.327042 108.292417 
L 180.24124 119.32314 
L 179.155439 123.82818 
L 178.069638 112.755948 
L 176.983837 123.247034 
L 175.898036 123.660162 
L 174.812235 133.761647 
L 173.726434 132.462052 
L 172.640632 137.114141 
L 171.554831 135.594596 
L 170.46903 126.640782 
L 169.383229 139.603724 
L 168.297428 129.508115 
L 167.211627 135.245159 
L 166.125825 141.916376 
L 165.040024 143.071517 
L 163.954223 123.684926 
L 162.868422 126.953155 
L 161.782621 103.012753 
L 160.69682 100.848922 
L 159.611019 100.600322 
L 158.525217 94.407356 
L 157.439416 93.919067 
L 156.353615 86.381206 
L 155.267814 88.175617 
L 154.182013 104.527891 
L 153.096212 101.702361 
L 152.01041 106.405768 
L 150.924609 91.761558 
L 149.838808 97.102439 
L 148.753007 104.604485 
L 147.667206 93.848707 
L 146.581405 90.801619 
L 145.495604 91.982272 
L 144.409802 88.853144 
L 143.324001 108.493709 
L 142.2382 128.831181 
L 141.152399 110.357869 
L 140.066598 107.884995 
L 138.980797 107.634432 
L 137.894995 117.981612 
L 136.809194 117.446355 
L 135.723393 111.355979 
L 134.637592 105.549646 
L 133.551791 123.690841 
L 132.46599 122.635987 
L 131.380189 125.943389 
L 130.294387 131.838254 
L 129.208586 128.182246 
L 128.122785 125.288521 
L 127.036984 134.993035 
L 125.951183 135.54461 
L 124.865382 136.595541 
L 123.77958 127.193051 
L 122.693779 124.790525 
L 121.607978 137.919704 
L 120.522177 136.229688 
L 119.436376 103.634136 
L 118.350575 123.592456 
L 117.264773 131.904249 
L 116.178972 135.126569 
L 115.093171 128.803929 
L 114.00737 117.395871 
L 112.921569 117.244521 
L 111.835768 117.368171 
L 110.749967 97.407152 
L 109.664165 123.83541 
L 108.578364 112.947012 
L 107.492563 111.669546 
L 106.406762 110.661084 
L 105.320961 112.530191 
L 104.23516 90.625541 
L 103.149358 84.857368 
L 102.063557 94.85601 
L 100.977756 85.455335 
L 99.891955 66.176593 
L 98.806154 59.53147 
L 97.720353 59.896255 
L 96.634552 53.568 
L 95.54875 58.958741 
L 94.462949 64.955337 
L 93.377148 63.271335 
L 92.291347 74.539764 
L 91.205546 86.625607 
L 90.119745 81.464879 
L 89.033943 89.167812 
L 87.948142 80.143231 
L 86.862341 98.580283 
L 85.77654 91.677179 
L 84.690739 101.694004 
L 83.604938 95.587259 
L 82.519137 98.298117 
L 81.433335 87.071037 
L 80.347534 91.991824 
L 79.261733 89.58851 
L 78.175932 96.235332 
L 77.090131 93.588326 
L 76.00433 90.989824 
L 74.918528 87.37211 
L 73.832727 68.077178 
z
" style="fill:#008000;fill-opacity:0.25;"/>
   </g>
   <g id="matplotlib.axis_3">
    <g id="ytick_9">
     <g id="line2d_17">
      <path clip-path="url(#p6abd61f45a)" d="M 57.6 294.322455 
L 414.72 294.322455 
" style="fill:none;stroke:#b0b0b0;stroke-linecap:square;stroke-width:0.8;"/>
     </g>
     <g id="line2d_18">
      <defs>
       <path d="M 0 0 
L 3.5 0 
" id="md4c4412439" style="stroke:#000000;stroke-width:0.8;"/>
      </defs>
      <g>
       <use style="stroke:#000000;stroke-width:0.8;" x="414.72" xlink:href="#md4c4412439" y="294.322455"/>
      </g>
     </g>
     <g id="text_17">
      <!-- 0.2 -->
      <defs>
       <path d="M 10.59375 35.5 
L 73.1875 35.5 
L 73.1875 27.203125 
L 10.59375 27.203125 
z
" id="DejaVuSans-8722"/>
      </defs>
      <g transform="translate(421.72 298.121673)scale(0.1 -0.1)">
       <use xlink:href="#DejaVuSans-8722"/>
       <use x="83.789062" xlink:href="#DejaVuSans-48"/>
       <use x="147.412109" xlink:href="#DejaVuSans-46"/>
       <use x="179.199219" xlink:href="#DejaVuSans-50"/>
      </g>
     </g>
    </g>
    <g id="ytick_10">
     <g id="line2d_19">
      <path clip-path="url(#p6abd61f45a)" d="M 57.6 250.364194 
L 414.72 250.364194 
" style="fill:none;stroke:#b0b0b0;stroke-linecap:square;stroke-width:0.8;"/>
     </g>
     <g id="line2d_20">
      <g>
       <use style="stroke:#000000;stroke-width:0.8;" x="414.72" xlink:href="#md4c4412439" y="250.364194"/>
      </g>
     </g>
     <g id="text_18">
      <!-- 0.0 -->
      <g transform="translate(421.72 254.163413)scale(0.1 -0.1)">
       <use xlink:href="#DejaVuSans-48"/>
       <use x="63.623047" xlink:href="#DejaVuSans-46"/>
       <use x="95.410156" xlink:href="#DejaVuSans-48"/>
      </g>
     </g>
    </g>
    <g id="ytick_11">
     <g id="line2d_21">
      <path clip-path="url(#p6abd61f45a)" d="M 57.6 206.405933 
L 414.72 206.405933 
" style="fill:none;stroke:#b0b0b0;stroke-linecap:square;stroke-width:0.8;"/>
     </g>
     <g id="line2d_22">
      <g>
       <use style="stroke:#000000;stroke-width:0.8;" x="414.72" xlink:href="#md4c4412439" y="206.405933"/>
      </g>
     </g>
     <g id="text_19">
      <!-- 0.2 -->
      <g transform="translate(421.72 210.205152)scale(0.1 -0.1)">
       <use xlink:href="#DejaVuSans-48"/>
       <use x="63.623047" xlink:href="#DejaVuSans-46"/>
       <use x="95.410156" xlink:href="#DejaVuSans-50"/>
      </g>
     </g>
    </g>
    <g id="ytick_12">
     <g id="line2d_23">
      <path clip-path="url(#p6abd61f45a)" d="M 57.6 162.447672 
L 414.72 162.447672 
" style="fill:none;stroke:#b0b0b0;stroke-linecap:square;stroke-width:0.8;"/>
     </g>
     <g id="line2d_24">
      <g>
       <use style="stroke:#000000;stroke-width:0.8;" x="414.72" xlink:href="#md4c4412439" y="162.447672"/>
      </g>
     </g>
     <g id="text_20">
      <!-- 0.4 -->
      <g transform="translate(421.72 166.246891)scale(0.1 -0.1)">
       <use xlink:href="#DejaVuSans-48"/>
       <use x="63.623047" xlink:href="#DejaVuSans-46"/>
       <use x="95.410156" xlink:href="#DejaVuSans-52"/>
      </g>
     </g>
    </g>
    <g id="ytick_13">
     <g id="line2d_25">
      <path clip-path="url(#p6abd61f45a)" d="M 57.6 118.489411 
L 414.72 118.489411 
" style="fill:none;stroke:#b0b0b0;stroke-linecap:square;stroke-width:0.8;"/>
     </g>
     <g id="line2d_26">
      <g>
       <use style="stroke:#000000;stroke-width:0.8;" x="414.72" xlink:href="#md4c4412439" y="118.489411"/>
      </g>
     </g>
     <g id="text_21">
      <!-- 0.6 -->
      <g transform="translate(421.72 122.28863)scale(0.1 -0.1)">
       <use xlink:href="#DejaVuSans-48"/>
       <use x="63.623047" xlink:href="#DejaVuSans-46"/>
       <use x="95.410156" xlink:href="#DejaVuSans-54"/>
      </g>
     </g>
    </g>
    <g id="ytick_14">
     <g id="line2d_27">
      <path clip-path="url(#p6abd61f45a)" d="M 57.6 74.53115 
L 414.72 74.53115 
" style="fill:none;stroke:#b0b0b0;stroke-linecap:square;stroke-width:0.8;"/>
     </g>
     <g id="line2d_28">
      <g>
       <use style="stroke:#000000;stroke-width:0.8;" x="414.72" xlink:href="#md4c4412439" y="74.53115"/>
      </g>
     </g>
     <g id="text_22">
      <!-- 0.8 -->
      <g transform="translate(421.72 78.330369)scale(0.1 -0.1)">
       <use xlink:href="#DejaVuSans-48"/>
       <use x="63.623047" xlink:href="#DejaVuSans-46"/>
       <use x="95.410156" xlink:href="#DejaVuSans-56"/>
      </g>
     </g>
    </g>
    <g id="text_23">
     <!-- Loudness -->
     <defs>
      <path d="M 9.8125 72.90625 
L 19.671875 72.90625 
L 19.671875 8.296875 
L 55.171875 8.296875 
L 55.171875 0 
L 9.8125 0 
z
" id="DejaVuSans-76"/>
      <path d="M 30.609375 48.390625 
Q 23.390625 48.390625 19.1875 42.75 
Q 14.984375 37.109375 14.984375 27.296875 
Q 14.984375 17.484375 19.15625 11.84375 
Q 23.34375 6.203125 30.609375 6.203125 
Q 37.796875 6.203125 41.984375 11.859375 
Q 46.1875 17.53125 46.1875 27.296875 
Q 46.1875 37.015625 41.984375 42.703125 
Q 37.796875 48.390625 30.609375 48.390625 
z
M 30.609375 56 
Q 42.328125 56 49.015625 48.375 
Q 55.71875 40.765625 55.71875 27.296875 
Q 55.71875 13.875 49.015625 6.21875 
Q 42.328125 -1.421875 30.609375 -1.421875 
Q 18.84375 -1.421875 12.171875 6.21875 
Q 5.515625 13.875 5.515625 27.296875 
Q 5.515625 40.765625 12.171875 48.375 
Q 18.84375 56 30.609375 56 
z
" id="DejaVuSans-111"/>
      <path d="M 8.5 21.578125 
L 8.5 54.6875 
L 17.484375 54.6875 
L 17.484375 21.921875 
Q 17.484375 14.15625 20.5 10.265625 
Q 23.53125 6.390625 29.59375 6.390625 
Q 36.859375 6.390625 41.078125 11.03125 
Q 45.3125 15.671875 45.3125 23.6875 
L 45.3125 54.6875 
L 54.296875 54.6875 
L 54.296875 0 
L 45.3125 0 
L 45.3125 8.40625 
Q 42.046875 3.421875 37.71875 1 
Q 33.40625 -1.421875 27.6875 -1.421875 
Q 18.265625 -1.421875 13.375 4.4375 
Q 8.5 10.296875 8.5 21.578125 
z
M 31.109375 56 
z
" id="DejaVuSans-117"/>
      <path d="M 45.40625 46.390625 
L 45.40625 75.984375 
L 54.390625 75.984375 
L 54.390625 0 
L 45.40625 0 
L 45.40625 8.203125 
Q 42.578125 3.328125 38.25 0.953125 
Q 33.9375 -1.421875 27.875 -1.421875 
Q 17.96875 -1.421875 11.734375 6.484375 
Q 5.515625 14.40625 5.515625 27.296875 
Q 5.515625 40.1875 11.734375 48.09375 
Q 17.96875 56 27.875 56 
Q 33.9375 56 38.25 53.625 
Q 42.578125 51.265625 45.40625 46.390625 
z
M 14.796875 27.296875 
Q 14.796875 17.390625 18.875 11.75 
Q 22.953125 6.109375 30.078125 6.109375 
Q 37.203125 6.109375 41.296875 11.75 
Q 45.40625 17.390625 45.40625 27.296875 
Q 45.40625 37.203125 41.296875 42.84375 
Q 37.203125 48.484375 30.078125 48.484375 
Q 22.953125 48.484375 18.875 42.84375 
Q 14.796875 37.203125 14.796875 27.296875 
z
" id="DejaVuSans-100"/>
     </defs>
     <g transform="translate(457.60125 198.170187)rotate(-90)scale(0.1 -0.1)">
      <use xlink:href="#DejaVuSans-76"/>
      <use x="55.697266" xlink:href="#DejaVuSans-111"/>
      <use x="116.878906" xlink:href="#DejaVuSans-117"/>
      <use x="180.257812" xlink:href="#DejaVuSans-100"/>
      <use x="243.734375" xlink:href="#DejaVuSans-110"/>
      <use x="307.113281" xlink:href="#DejaVuSans-101"/>
      <use x="368.636719" xlink:href="#DejaVuSans-115"/>
      <use x="420.736328" xlink:href="#DejaVuSans-115"/>
     </g>
    </g>
   </g>
   <g id="line2d_29">
    <path clip-path="url(#p6abd61f45a)" d="M 73.832727 164.634558 
L 74.918528 180.91683 
L 78.175932 187.676236 
L 79.261733 183.304643 
L 80.347534 183.629228 
L 81.433335 182.013294 
L 82.519137 189.740987 
L 83.604938 187.96554 
L 84.690739 192.24879 
L 85.77654 186.015454 
L 86.862341 190.644099 
L 87.948142 178.098451 
L 89.033943 184.046932 
L 90.119745 177.597375 
L 91.205546 180.505866 
L 92.291347 173.250264 
L 93.377148 164.126827 
L 94.462949 165.303692 
L 95.54875 159.725622 
L 96.634552 155.273074 
L 97.720353 160.326521 
L 98.806154 160.907993 
L 99.891955 166.669729 
L 100.977756 181.857132 
L 102.063557 187.685403 
L 103.149358 180.92337 
L 104.23516 185.621844 
L 105.320961 200.376967 
L 106.406762 199.014992 
L 107.492563 199.457713 
L 108.578364 199.695562 
L 109.664165 206.691625 
L 110.749967 190.880959 
L 111.835768 203.602946 
L 112.921569 204.089804 
L 114.00737 203.881158 
L 115.093171 210.328538 
L 116.178972 213.875185 
L 117.264773 212.076755 
L 118.350575 207.333618 
L 119.436376 195.270664 
L 120.522177 214.976585 
L 121.607978 215.265062 
L 122.693779 207.494774 
L 123.77958 209.599538 
L 124.865382 214.521262 
L 127.036984 214.032814 
L 128.122785 209.167363 
L 130.294387 212.675081 
L 131.380189 209.802922 
L 132.46599 207.965758 
L 133.551791 208.266195 
L 134.637592 196.9518 
L 135.723393 200.967417 
L 136.809194 204.368431 
L 137.894995 204.926353 
L 138.980797 198.246013 
L 140.066598 197.857897 
L 141.152399 200.05014 
L 142.2382 210.170224 
L 143.324001 198.349582 
L 144.409802 184.714912 
L 145.495604 186.325281 
L 146.581405 185.028765 
L 147.667206 187.537151 
L 148.753007 194.905845 
L 149.838808 190.429223 
L 150.924609 186.688374 
L 152.01041 196.897009 
L 153.096212 194.222248 
L 154.182013 195.913105 
L 155.267814 184.507001 
L 156.353615 183.595031 
L 157.439416 188.664477 
L 158.525217 188.984552 
L 159.611019 192.710994 
L 160.69682 193.549646 
L 161.782621 195.116887 
L 162.868422 209.489818 
L 163.954223 207.674111 
L 165.040024 218.395165 
L 166.125825 218.086402 
L 167.211627 214.32695 
L 168.297428 211.170065 
L 169.383229 216.16426 
L 170.46903 208.786825 
L 171.554831 214.42415 
L 172.640632 215.224958 
L 173.726434 213.147894 
L 174.812235 214.062038 
L 175.898036 208.587702 
L 176.983837 208.069274 
L 178.069638 201.844774 
L 179.155439 208.745747 
L 180.24124 205.849554 
L 181.327042 199.070736 
L 182.412843 202.829995 
L 183.498644 202.092685 
L 184.584445 198.376272 
L 185.670246 200.395623 
L 186.756047 198.81083 
L 187.841849 196.303064 
L 188.92765 196.222786 
L 190.013451 205.521733 
L 191.099252 202.382618 
L 192.185053 203.388209 
L 193.270854 198.979459 
L 194.356656 208.85984 
L 195.442457 213.344758 
L 196.528258 215.056693 
L 197.614059 218.274163 
L 198.69986 210.136498 
L 199.785661 213.993602 
L 200.871462 214.46168 
L 201.957264 215.457171 
L 203.043065 217.461556 
L 204.128866 216.975934 
L 205.214667 215.819994 
L 206.300468 216.825804 
L 207.386269 214.122357 
L 208.472071 218.141695 
L 209.557872 218.04816 
L 210.643673 218.481253 
L 211.729474 215.89782 
L 212.815275 218.421897 
L 213.901076 218.523456 
L 216.072679 212.001493 
L 217.15848 211.793582 
L 219.330082 210.760614 
L 220.415883 215.350655 
L 221.501684 215.3291 
L 222.587486 210.146751 
L 223.673287 199.591926 
L 224.759088 210.080324 
L 225.844889 210.077712 
L 226.93069 208.020021 
L 228.016491 208.676432 
L 229.102292 211.769232 
L 230.188094 209.75053 
L 231.273895 209.973744 
L 232.359696 207.580971 
L 233.445497 218.568164 
L 234.531298 217.373011 
L 235.617099 213.091644 
L 236.702901 214.18467 
L 237.788702 217.002856 
L 238.874503 216.038336 
L 239.960304 212.720882 
L 241.046105 208.051039 
L 242.131906 201.171775 
L 243.217708 204.536761 
L 244.303509 207.053905 
L 245.38931 210.685322 
L 246.475111 209.035069 
L 247.560912 204.698948 
L 248.646713 202.639164 
L 249.732514 203.629601 
L 250.818316 201.80513 
L 251.904117 199.227224 
L 252.989918 206.415677 
L 254.075719 208.171152 
L 255.16152 206.586088 
L 256.247321 195.1024 
L 257.333123 199.035399 
L 258.418924 199.218282 
L 259.504725 197.18487 
L 260.590526 194.795648 
L 261.676327 195.08365 
L 262.762128 187.704288 
L 263.847929 184.506389 
L 264.933731 176.249689 
L 266.019532 184.314116 
L 268.191134 186.119706 
L 269.276935 199.397236 
L 270.362736 196.421182 
L 271.448538 200.166095 
L 272.534339 207.089904 
L 273.62014 201.202397 
L 274.705941 205.547708 
L 275.791742 211.204138 
L 276.877543 212.857477 
L 277.963344 205.134371 
L 279.049146 206.079918 
L 280.134947 210.134973 
L 281.220748 208.108008 
L 282.306549 211.122919 
L 283.39235 216.051735 
L 284.478151 215.146636 
L 285.563953 210.170765 
L 286.649754 215.603348 
L 287.735555 215.065129 
L 288.821356 216.483802 
L 289.907157 213.788295 
L 290.992958 208.613533 
L 292.07876 205.686679 
L 293.164561 205.935204 
L 294.250362 198.382794 
L 295.336163 185.420062 
L 296.421964 189.083653 
L 297.507765 189.012554 
L 298.593566 192.495219 
L 299.679368 192.495 
L 300.765169 186.870186 
L 301.85097 186.78306 
L 302.936771 193.946234 
L 304.022572 192.801232 
L 305.108373 197.635684 
L 306.194175 196.358839 
L 307.279976 202.758721 
L 308.365777 207.511044 
L 309.451578 208.251546 
L 310.537379 203.326334 
L 311.62318 199.642619 
L 312.708981 213.808578 
L 313.794783 216.035823 
L 314.880584 209.587162 
L 315.966385 195.781142 
L 317.052186 203.627637 
L 318.137987 197.515288 
L 319.223788 192.491661 
L 320.30959 199.551365 
L 321.395391 215.313139 
L 322.481192 211.251617 
L 323.566993 210.43128 
L 324.652794 213.708627 
L 325.738595 212.035862 
L 326.824396 197.30794 
L 327.910198 200.360915 
L 328.995999 205.5009 
L 330.0818 209.763861 
L 331.167601 213.20399 
L 332.253402 214.042353 
L 333.339203 216.665942 
L 334.425005 217.862471 
L 335.510806 220.190715 
L 336.596607 211.652549 
L 337.682408 211.883082 
L 338.768209 215.750682 
L 339.85401 214.972883 
L 340.939811 204.796958 
L 342.025613 202.84264 
L 343.111414 208.094746 
L 344.197215 202.896706 
L 345.283016 215.288586 
L 346.368817 218.406121 
L 347.454618 220.658928 
L 348.54042 216.066645 
L 349.626221 209.984248 
L 350.712022 212.147617 
L 351.797823 218.232586 
L 352.883624 218.534079 
L 353.969425 212.826157 
L 355.055227 214.630659 
L 356.141028 213.036221 
L 357.226829 204.260808 
L 358.31263 201.207324 
L 359.398431 206.264909 
L 360.484232 208.034321 
L 361.570033 208.136887 
L 362.655835 204.353976 
L 363.741636 208.775701 
L 364.827437 211.520522 
L 365.913238 211.601812 
L 366.999039 212.142458 
L 368.08484 221.77979 
L 369.170642 216.811331 
L 370.256443 215.660239 
L 371.342244 217.508942 
L 372.428045 214.683784 
L 373.513846 222.241033 
L 374.599647 221.430581 
L 376.77125 221.30406 
L 377.857051 226.427617 
L 378.942852 222.073963 
L 380.028653 226.143107 
L 381.114454 220.88016 
L 382.200255 220.650044 
L 383.286057 218.749591 
L 384.371858 221.997491 
L 385.457659 218.030358 
L 386.54346 216.608446 
L 387.629261 204.290237 
L 388.715062 216.683899 
L 389.800863 218.339132 
L 390.886665 217.959559 
L 391.972466 218.743973 
L 393.058267 214.229233 
L 394.144068 212.703121 
L 395.229869 210.374705 
L 396.31567 204.983815 
L 397.401472 208.875819 
L 398.487273 219.030992 
L 398.487273 219.030992 
" style="fill:none;stroke:#008000;stroke-linecap:square;stroke-width:1.5;"/>
   </g>
   <g id="patch_7">
    <path d="M 57.6 307.584 
L 57.6 41.472 
" style="fill:none;stroke:#000000;stroke-linecap:square;stroke-linejoin:miter;stroke-width:0.8;"/>
   </g>
   <g id="patch_8">
    <path d="M 414.72 307.584 
L 414.72 41.472 
" style="fill:none;stroke:#000000;stroke-linecap:square;stroke-linejoin:miter;stroke-width:0.8;"/>
   </g>
   <g id="patch_9">
    <path d="M 57.6 307.584 
L 414.72 307.584 
" style="fill:none;stroke:#000000;stroke-linecap:square;stroke-linejoin:miter;stroke-width:0.8;"/>
   </g>
   <g id="patch_10">
    <path d="M 57.6 41.472 
L 414.72 41.472 
" style="fill:none;stroke:#000000;stroke-linecap:square;stroke-linejoin:miter;stroke-width:0.8;"/>
   </g>
   <g id="text_24">
    <!-- Message Difference and Loudness -->
    <defs>
     <path d="M 9.8125 72.90625 
L 24.515625 72.90625 
L 43.109375 23.296875 
L 61.8125 72.90625 
L 76.515625 72.90625 
L 76.515625 0 
L 66.890625 0 
L 66.890625 64.015625 
L 48.09375 14.015625 
L 38.1875 14.015625 
L 19.390625 64.015625 
L 19.390625 0 
L 9.8125 0 
z
" id="DejaVuSans-77"/>
     <path d="M 45.40625 27.984375 
Q 45.40625 37.75 41.375 43.109375 
Q 37.359375 48.484375 30.078125 48.484375 
Q 22.859375 48.484375 18.828125 43.109375 
Q 14.796875 37.75 14.796875 27.984375 
Q 14.796875 18.265625 18.828125 12.890625 
Q 22.859375 7.515625 30.078125 7.515625 
Q 37.359375 7.515625 41.375 12.890625 
Q 45.40625 18.265625 45.40625 27.984375 
z
M 54.390625 6.78125 
Q 54.390625 -7.171875 48.1875 -13.984375 
Q 42 -20.796875 29.203125 -20.796875 
Q 24.46875 -20.796875 20.265625 -20.09375 
Q 16.0625 -19.390625 12.109375 -17.921875 
L 12.109375 -9.1875 
Q 16.0625 -11.328125 19.921875 -12.34375 
Q 23.78125 -13.375 27.78125 -13.375 
Q 36.625 -13.375 41.015625 -8.765625 
Q 45.40625 -4.15625 45.40625 5.171875 
L 45.40625 9.625 
Q 42.625 4.78125 38.28125 2.390625 
Q 33.9375 0 27.875 0 
Q 17.828125 0 11.671875 7.65625 
Q 5.515625 15.328125 5.515625 27.984375 
Q 5.515625 40.671875 11.671875 48.328125 
Q 17.828125 56 27.875 56 
Q 33.9375 56 38.28125 53.609375 
Q 42.625 51.21875 45.40625 46.390625 
L 45.40625 54.6875 
L 54.390625 54.6875 
z
" id="DejaVuSans-103"/>
     <path id="DejaVuSans-32"/>
     <path d="M 37.109375 75.984375 
L 37.109375 68.5 
L 28.515625 68.5 
Q 23.6875 68.5 21.796875 66.546875 
Q 19.921875 64.59375 19.921875 59.515625 
L 19.921875 54.6875 
L 34.71875 54.6875 
L 34.71875 47.703125 
L 19.921875 47.703125 
L 19.921875 0 
L 10.890625 0 
L 10.890625 47.703125 
L 2.296875 47.703125 
L 2.296875 54.6875 
L 10.890625 54.6875 
L 10.890625 58.5 
Q 10.890625 67.625 15.140625 71.796875 
Q 19.390625 75.984375 28.609375 75.984375 
z
" id="DejaVuSans-102"/>
     <path d="M 41.109375 46.296875 
Q 39.59375 47.171875 37.8125 47.578125 
Q 36.03125 48 33.890625 48 
Q 26.265625 48 22.1875 43.046875 
Q 18.109375 38.09375 18.109375 28.8125 
L 18.109375 0 
L 9.078125 0 
L 9.078125 54.6875 
L 18.109375 54.6875 
L 18.109375 46.1875 
Q 20.953125 51.171875 25.484375 53.578125 
Q 30.03125 56 36.53125 56 
Q 37.453125 56 38.578125 55.875 
Q 39.703125 55.765625 41.0625 55.515625 
z
" id="DejaVuSans-114"/>
    </defs>
    <g transform="translate(133.329375 35.472)scale(0.12 -0.12)">
     <use xlink:href="#DejaVuSans-77"/>
     <use x="86.279297" xlink:href="#DejaVuSans-101"/>
     <use x="147.802734" xlink:href="#DejaVuSans-115"/>
     <use x="199.902344" xlink:href="#DejaVuSans-115"/>
     <use x="252.001953" xlink:href="#DejaVuSans-97"/>
     <use x="313.28125" xlink:href="#DejaVuSans-103"/>
     <use x="376.757812" xlink:href="#DejaVuSans-101"/>
     <use x="438.28125" xlink:href="#DejaVuSans-32"/>
     <use x="470.068359" xlink:href="#DejaVuSans-68"/>
     <use x="547.070312" xlink:href="#DejaVuSans-105"/>
     <use x="574.853516" xlink:href="#DejaVuSans-102"/>
     <use x="610.058594" xlink:href="#DejaVuSans-102"/>
     <use x="645.263672" xlink:href="#DejaVuSans-101"/>
     <use x="706.787109" xlink:href="#DejaVuSans-114"/>
     <use x="747.869141" xlink:href="#DejaVuSans-101"/>
     <use x="809.392578" xlink:href="#DejaVuSans-110"/>
     <use x="872.771484" xlink:href="#DejaVuSans-99"/>
     <use x="927.751953" xlink:href="#DejaVuSans-101"/>
     <use x="989.275391" xlink:href="#DejaVuSans-32"/>
     <use x="1021.0625" xlink:href="#DejaVuSans-97"/>
     <use x="1082.341797" xlink:href="#DejaVuSans-110"/>
     <use x="1145.720703" xlink:href="#DejaVuSans-100"/>
     <use x="1209.197266" xlink:href="#DejaVuSans-32"/>
     <use x="1240.984375" xlink:href="#DejaVuSans-76"/>
     <use x="1296.681641" xlink:href="#DejaVuSans-111"/>
     <use x="1357.863281" xlink:href="#DejaVuSans-117"/>
     <use x="1421.242188" xlink:href="#DejaVuSans-100"/>
     <use x="1484.71875" xlink:href="#DejaVuSans-110"/>
     <use x="1548.097656" xlink:href="#DejaVuSans-101"/>
     <use x="1609.621094" xlink:href="#DejaVuSans-115"/>
     <use x="1661.720703" xlink:href="#DejaVuSans-115"/>
    </g>
   </g>
   <g id="legend_1">
    <g id="patch_11">
     <path d="M 331.227813 64.150125 
L 407.72 64.150125 
Q 409.72 64.150125 409.72 62.150125 
L 409.72 48.472 
Q 409.72 46.472 407.72 46.472 
L 331.227813 46.472 
Q 329.227813 46.472 329.227813 48.472 
L 329.227813 62.150125 
Q 329.227813 64.150125 331.227813 64.150125 
z
" style="fill:#ffffff;opacity:0.8;stroke:#cccccc;stroke-linejoin:miter;"/>
    </g>
    <g id="line2d_30">
     <path d="M 333.227813 54.570438 
L 353.227813 54.570438 
" style="fill:none;stroke:#008000;stroke-linecap:square;stroke-width:1.5;"/>
    </g>
    <g id="line2d_31"/>
    <g id="text_25">
     <!-- loudness -->
     <defs>
      <path d="M 9.421875 75.984375 
L 18.40625 75.984375 
L 18.40625 0 
L 9.421875 0 
z
" id="DejaVuSans-108"/>
     </defs>
     <g transform="translate(361.227813 58.070438)scale(0.1 -0.1)">
      <use xlink:href="#DejaVuSans-108"/>
      <use x="27.783203" xlink:href="#DejaVuSans-111"/>
      <use x="88.964844" xlink:href="#DejaVuSans-117"/>
      <use x="152.34375" xlink:href="#DejaVuSans-100"/>
      <use x="215.820312" xlink:href="#DejaVuSans-110"/>
      <use x="279.199219" xlink:href="#DejaVuSans-101"/>
      <use x="340.722656" xlink:href="#DejaVuSans-115"/>
      <use x="392.822266" xlink:href="#DejaVuSans-115"/>
     </g>
    </g>
   </g>
  </g>
 </g>
 <defs>
  <clipPath id="p6abd61f45a">
   <rect height="266.112" width="357.12" x="57.6" y="41.472"/>
  </clipPath>
 </defs>
</svg>
