<?xml version="1.0" encoding="UTF-8" standalone="no"?>
<!DOCTYPE svg PUBLIC "-//W3C//DTD SVG 1.1//EN"
 "http://www.w3.org/Graphics/SVG/1.1/DTD/svg11.dtd">
<!-- Generated by graphviz version 2.40.1 (20161225.0304)
 -->
<!-- Title: %3 Pages: 1 -->
<svg width="444pt" height="175pt"
 viewBox="0.00 0.00 444.00 174.79" xmlns="http://www.w3.org/2000/svg" xmlns:xlink="http://www.w3.org/1999/xlink">
<g id="graph0" class="graph" transform="scale(1 1) rotate(0) translate(4 170.7893)">
<title>%3</title>
<polygon fill="#ffffff" stroke="transparent" points="-4,4 -4,-170.7893 439.9976,-170.7893 439.9976,4 -4,4"/>
<!-- E0 -->
<g id="node1" class="node">
<title>E0</title>
<polygon fill="#d3d3d3" stroke="#000000" points="25.9963,-166.7893 .0012,-166.7893 .0012,-149.7893 25.9963,-149.7893 25.9963,-166.7893"/>
<text text-anchor="middle" x="12.9988" y="-155.5893" font-family="Times,serif" font-size="9.00" fill="#000000">E0</text>
</g>
<!-- E1 -->
<g id="node2" class="node">
<title>E1</title>
<polygon fill="#d3d3d3" stroke="#000000" points="69.9963,-166.7893 44.0012,-166.7893 44.0012,-149.7893 69.9963,-149.7893 69.9963,-166.7893"/>
<text text-anchor="middle" x="56.9988" y="-155.5893" font-family="Times,serif" font-size="9.00" fill="#000000">E1</text>
</g>
<!-- E0&#45;&gt;E1 -->
<!-- E2 -->
<g id="node3" class="node">
<title>E2</title>
<polygon fill="#d3d3d3" stroke="#000000" points="113.9963,-166.7893 88.0012,-166.7893 88.0012,-149.7893 113.9963,-149.7893 113.9963,-166.7893"/>
<text text-anchor="middle" x="100.9988" y="-155.5893" font-family="Times,serif" font-size="9.00" fill="#000000">E2</text>
</g>
<!-- E1&#45;&gt;E2 -->
<!-- 2 -->
<g id="node12" class="node">
<title>2</title>
<ellipse fill="#87cefa" stroke="#000000" cx="318.9988" cy="-14.853" rx="14.4914" ry="14.4914"/>
<text text-anchor="middle" x="318.9988" y="-12.153" font-family="Times,serif" font-size="9.00" fill="#000000">2</text>
</g>
<!-- E1&#45;&gt;2 -->
<g id="edge22" class="edge">
<title>E1&#45;&gt;2</title>
<path fill="none" stroke="#00ff00" stroke-width=".5204" d="M70.3899,-152.7717C73.208,-151.7078 76.181,-150.6562 78.9988,-149.7893 146.5948,-128.9939 173.5079,-150.43 233.9988,-113.7893 265.8326,-94.5069 291.8264,-59.2039 306.3575,-36.3991"/>
<polygon fill="#00ff00" stroke="#00ff00" stroke-width=".5204" points="309.417,-38.1062 311.6963,-27.7594 303.4621,-34.4265 309.417,-38.1062"/>
</g>
<!-- E3 -->
<g id="node4" class="node">
<title>E3</title>
<polygon fill="#d3d3d3" stroke="#000000" points="157.9963,-166.7893 132.0012,-166.7893 132.0012,-149.7893 157.9963,-149.7893 157.9963,-166.7893"/>
<text text-anchor="middle" x="144.9988" y="-155.5893" font-family="Times,serif" font-size="9.00" fill="#000000">E3</text>
</g>
<!-- E2&#45;&gt;E3 -->
<!-- 0 -->
<g id="node10" class="node">
<title>0</title>
<ellipse fill="#87cefa" stroke="#000000" cx="200.9988" cy="-14.853" rx="14.4914" ry="14.4914"/>
<text text-anchor="middle" x="200.9988" y="-12.153" font-family="Times,serif" font-size="9.00" fill="#000000">0</text>
</g>
<!-- E2&#45;&gt;0 -->
<g id="edge14" class="edge">
<title>E2&#45;&gt;0</title>
<path fill="none" stroke="#ff0000" stroke-width=".9693" d="M98.3353,-149.5663C93.5657,-132.1316 85.5206,-92.3704 101.9988,-65.7061 118.2949,-39.3363 153.046,-26.0459 176.7215,-19.7979"/>
<polygon fill="#ff0000" stroke="#ff0000" stroke-width=".9693" points="177.8062,-23.1371 186.714,-17.4011 176.1735,-16.3302 177.8062,-23.1371"/>
</g>
<!-- E4 -->
<g id="node5" class="node">
<title>E4</title>
<polygon fill="#d3d3d3" stroke="#000000" points="240.9963,-166.7893 215.0012,-166.7893 215.0012,-149.7893 240.9963,-149.7893 240.9963,-166.7893"/>
<text text-anchor="middle" x="227.9988" y="-155.5893" font-family="Times,serif" font-size="9.00" fill="#000000">E4</text>
</g>
<!-- E3&#45;&gt;E4 -->
<!-- 5538 -->
<g id="node14" class="node">
<title>5538</title>
<ellipse fill="#add8e6" stroke="#000000" cx="134.9988" cy="-89.7477" rx="24.0833" ry="24.0833"/>
<text text-anchor="middle" x="134.9988" y="-91.5477" font-family="Times,serif" font-size="9.00" fill="#000000">5538</text>
<text text-anchor="middle" x="134.9988" y="-82.5477" font-family="Times,serif" font-size="9.00" fill="#000000">sigm</text>
</g>
<!-- E3&#45;&gt;5538 -->
<g id="edge20" class="edge">
<title>E3&#45;&gt;5538</title>
<path fill="none" stroke="#ff0000" stroke-width=".2307" d="M143.7323,-149.6085C142.7571,-142.9246 141.3418,-133.2236 139.9333,-123.57"/>
<polygon fill="#ff0000" stroke="#ff0000" stroke-width=".2307" points="143.394,-123.0455 138.4869,-113.6556 136.4673,-124.0562 143.394,-123.0455"/>
</g>
<!-- E5 -->
<g id="node6" class="node">
<title>E5</title>
<polygon fill="#d3d3d3" stroke="#000000" points="284.9963,-166.7893 259.0012,-166.7893 259.0012,-149.7893 284.9963,-149.7893 284.9963,-166.7893"/>
<text text-anchor="middle" x="271.9988" y="-155.5893" font-family="Times,serif" font-size="9.00" fill="#000000">E5</text>
</g>
<!-- E4&#45;&gt;E5 -->
<!-- E4&#45;&gt;2 -->
<g id="edge12" class="edge">
<title>E4&#45;&gt;2</title>
<path fill="none" stroke="#ff0000" stroke-width="1.7342" d="M241.2836,-152.3542C261.1445,-143.2074 297.0957,-125.4996 304.9988,-113.7893 319.7911,-91.8711 321.9314,-60.9779 321.242,-39.5685"/>
<polygon fill="#ff0000" stroke="#ff0000" stroke-width="1.7342" points="324.7229,-39.1263 320.6756,-29.335 317.7336,-39.5132 324.7229,-39.1263"/>
</g>
<!-- E6 -->
<g id="node7" class="node">
<title>E6</title>
<polygon fill="#d3d3d3" stroke="#000000" points="328.9963,-166.7893 303.0012,-166.7893 303.0012,-149.7893 328.9963,-149.7893 328.9963,-166.7893"/>
<text text-anchor="middle" x="315.9988" y="-155.5893" font-family="Times,serif" font-size="9.00" fill="#000000">E6</text>
</g>
<!-- E5&#45;&gt;E6 -->
<!-- E7 -->
<g id="node8" class="node">
<title>E7</title>
<polygon fill="#d3d3d3" stroke="#000000" points="372.9963,-166.7893 347.0012,-166.7893 347.0012,-149.7893 372.9963,-149.7893 372.9963,-166.7893"/>
<text text-anchor="middle" x="359.9988" y="-155.5893" font-family="Times,serif" font-size="9.00" fill="#000000">E7</text>
</g>
<!-- E6&#45;&gt;E7 -->
<!-- 307 -->
<g id="node15" class="node">
<title>307</title>
<ellipse fill="#add8e6" stroke="#000000" cx="380.9988" cy="-89.7477" rx="23.8825" ry="23.8825"/>
<text text-anchor="middle" x="380.9988" y="-91.5477" font-family="Times,serif" font-size="9.00" fill="#000000">307</text>
<text text-anchor="middle" x="380.9988" y="-82.5477" font-family="Times,serif" font-size="9.00" fill="#000000">sigm</text>
</g>
<!-- E6&#45;&gt;307 -->
<g id="edge16" class="edge">
<title>E6&#45;&gt;307</title>
<path fill="none" stroke="#ff0000" stroke-width=".378" d="M324.2311,-149.6085C332.6049,-140.7784 345.9724,-126.6826 357.6326,-114.387"/>
<polygon fill="#ff0000" stroke="#ff0000" stroke-width=".378" points="360.2708,-116.6915 364.6123,-107.0271 355.1915,-111.8747 360.2708,-116.6915"/>
</g>
<!-- 5497 -->
<g id="node16" class="node">
<title>5497</title>
<ellipse fill="#add8e6" stroke="#000000" cx="200.9988" cy="-89.7477" rx="24.0833" ry="24.0833"/>
<text text-anchor="middle" x="200.9988" y="-91.5477" font-family="Times,serif" font-size="9.00" fill="#000000">5497</text>
<text text-anchor="middle" x="200.9988" y="-82.5477" font-family="Times,serif" font-size="9.00" fill="#000000">sigm</text>
</g>
<!-- E6&#45;&gt;5497 -->
<g id="edge18" class="edge">
<title>E6&#45;&gt;5497</title>
<path fill="none" stroke="#00ff00" stroke-width=".2406" d="M302.8257,-150.8891C287.4181,-142.1846 261.1926,-127.2158 238.9988,-113.7893 236.0368,-111.9975 232.9608,-110.105 229.8992,-108.2006"/>
<polygon fill="#00ff00" stroke="#00ff00" stroke-width=".2406" points="231.7457,-105.2273 221.4153,-102.8753 228.0242,-111.1561 231.7457,-105.2273"/>
</g>
<!-- E8 -->
<g id="node9" class="node">
<title>E8</title>
<polygon fill="#d3d3d3" stroke="#000000" points="435.9963,-166.7893 410.0012,-166.7893 410.0012,-149.7893 435.9963,-149.7893 435.9963,-166.7893"/>
<text text-anchor="middle" x="422.9988" y="-155.5893" font-family="Times,serif" font-size="9.00" fill="#000000">E8</text>
</g>
<!-- E7&#45;&gt;E8 -->
<!-- 1 -->
<g id="node11" class="node">
<title>1</title>
<ellipse fill="#87cefa" stroke="#000000" cx="257.9988" cy="-14.853" rx="14.4914" ry="14.4914"/>
<text text-anchor="middle" x="257.9988" y="-12.153" font-family="Times,serif" font-size="9.00" fill="#000000">1</text>
</g>
<!-- E7&#45;&gt;1 -->
<g id="edge17" class="edge">
<title>E7&#45;&gt;1</title>
<path fill="none" stroke="#00ff00" stroke-width=".3108" d="M353.9237,-149.7463C338.0859,-127.4746 295.1936,-67.1578 272.5119,-35.262"/>
<polygon fill="#00ff00" stroke="#00ff00" stroke-width=".3108" points="275.3374,-33.1958 266.6897,-27.0746 269.6327,-37.2525 275.3374,-33.1958"/>
</g>
<!-- E8&#45;&gt;1 -->
<g id="edge13" class="edge">
<title>E8&#45;&gt;1</title>
<path fill="none" stroke="#ff0000" stroke-width="1.4204" d="M424.9954,-149.7265C428.6151,-131.8808 434.1462,-90.3275 413.9988,-65.7061 379.2751,-23.2716 347.7931,-47.6998 295.9988,-29.7061 291.152,-28.0223 286.0056,-26.1021 281.1172,-24.2142"/>
<polygon fill="#ff0000" stroke="#ff0000" stroke-width="1.4204" points="282.2109,-20.8833 271.6241,-20.4704 279.6427,-27.3951 282.2109,-20.8833"/>
</g>
<!-- 0&#45;&gt;1 -->
<!-- 1&#45;&gt;2 -->
<!-- S -->
<g id="node13" class="node">
<title>S</title>
<ellipse fill="#87cefa" stroke="#000000" cx="375.9988" cy="-14.853" rx="14.7075" ry="14.7075"/>
<text text-anchor="middle" x="375.9988" y="-12.153" font-family="Times,serif" font-size="9.00" fill="#000000">S</text>
</g>
<!-- 2&#45;&gt;S -->
<!-- 5538&#45;&gt;1 -->
<g id="edge21" class="edge">
<title>5538&#45;&gt;1</title>
<path fill="none" stroke="#00ff00" stroke-width=".2162" d="M154.2821,-75.1296C158.7204,-71.9256 163.4691,-68.6221 167.9988,-65.7061 190.5116,-51.2135 217.3504,-36.342 235.8274,-26.4552"/>
<polygon fill="#00ff00" stroke="#00ff00" stroke-width=".2162" points="237.7124,-29.4172 244.9057,-21.6386 234.4316,-23.2336 237.7124,-29.4172"/>
</g>
<!-- 307&#45;&gt;1 -->
<g id="edge23" class="edge">
<title>307&#45;&gt;1</title>
<path fill="none" stroke="#00ff00" stroke-width=".2874" d="M360.6878,-77.3804C338.1389,-63.6503 301.9178,-41.5953 279.0678,-27.682"/>
<polygon fill="#00ff00" stroke="#00ff00" stroke-width=".2874" points="280.8168,-24.6492 270.4553,-22.4378 277.1763,-30.628 280.8168,-24.6492"/>
</g>
<!-- 307&#45;&gt;S -->
<g id="edge15" class="edge">
<title>307&#45;&gt;S</title>
<path fill="none" stroke="#00ff00" stroke-width=".2418" d="M379.4167,-66.0506C378.8615,-57.734 378.2362,-48.3667 377.6736,-39.94"/>
<polygon fill="#00ff00" stroke="#00ff00" stroke-width=".2418" points="381.163,-39.6636 377.0046,-29.919 374.1786,-40.13 381.163,-39.6636"/>
</g>
<!-- 5497&#45;&gt;0 -->
<g id="edge19" class="edge">
<title>5497&#45;&gt;0</title>
<path fill="none" stroke="#ff0000" stroke-width=".494" d="M200.9988,-65.6383C200.9988,-57.432 200.9988,-48.2428 200.9988,-39.9602"/>
<polygon fill="#ff0000" stroke="#ff0000" stroke-width=".494" points="204.4989,-39.7533 200.9988,-29.7534 197.4989,-39.7534 204.4989,-39.7533"/>
</g>
</g>
</svg>
