<?xml version="1.0" encoding="UTF-8" standalone="no"?>
<!DOCTYPE svg PUBLIC "-//W3C//DTD SVG 1.1//EN"
 "http://www.w3.org/Graphics/SVG/1.1/DTD/svg11.dtd">
<!-- Generated by graphviz version 2.40.1 (20161225.0304)
 -->
<!-- Title: %3 Pages: 1 -->
<svg width="485pt" height="182pt"
 viewBox="0.00 0.00 484.77 181.85" xmlns="http://www.w3.org/2000/svg" xmlns:xlink="http://www.w3.org/1999/xlink">
<g id="graph0" class="graph" transform="scale(1 1) rotate(0) translate(4 177.8494)">
<title>%3</title>
<polygon fill="#ffffff" stroke="transparent" points="-4,4 -4,-177.8494 480.7661,-177.8494 480.7661,4 -4,4"/>
<!-- 0 -->
<g id="node1" class="node">
<title>0</title>
<polygon fill="#d3d3d3" stroke="#000000" points="222.389,-173.8494 202.3771,-173.8494 202.3771,-156.8494 222.389,-156.8494 222.389,-173.8494"/>
<text text-anchor="middle" x="212.383" y="-162.6494" font-family="Times,serif" font-size="9.00" fill="#000000">0</text>
</g>
<!-- 1 -->
<g id="node2" class="node">
<title>1</title>
<polygon fill="#d3d3d3" stroke="#000000" points="276.389,-173.8494 256.3771,-173.8494 256.3771,-156.8494 276.389,-156.8494 276.389,-173.8494"/>
<text text-anchor="middle" x="266.383" y="-162.6494" font-family="Times,serif" font-size="9.00" fill="#000000">1</text>
</g>
<!-- 0&#45;&gt;1 -->
<!-- E2 -->
<g id="node6" class="node">
<title>E2</title>
<ellipse fill="#87cefa" stroke="#000000" cx="128.383" cy="-18.383" rx="18.2668" ry="18.2668"/>
<text text-anchor="middle" x="128.383" y="-15.683" font-family="Times,serif" font-size="9.00" fill="#000000">E2</text>
</g>
<!-- 0&#45;&gt;E2 -->
<g id="edge11" class="edge">
<title>0&#45;&gt;E2</title>
<path fill="none" stroke="#ff0000" stroke-width="2.954" d="M209.8548,-156.7579C204.6806,-139.8897 191.8797,-101.5762 174.383,-72.7661 167.1616,-60.8753 157.4037,-48.933 148.7332,-39.2808"/>
<polygon fill="#ff0000" stroke="#ff0000" stroke-width="2.954" points="151.1429,-36.7314 141.7853,-31.763 146.0021,-41.4825 151.1429,-36.7314"/>
</g>
<!-- E6 -->
<g id="node10" class="node">
<title>E6</title>
<ellipse fill="#87cefa" stroke="#000000" cx="348.383" cy="-18.383" rx="18.2668" ry="18.2668"/>
<text text-anchor="middle" x="348.383" y="-15.683" font-family="Times,serif" font-size="9.00" fill="#000000">E6</text>
</g>
<!-- 0&#45;&gt;E6 -->
<g id="edge16" class="edge">
<title>0&#45;&gt;E6</title>
<path fill="none" stroke="#00ff00" stroke-width=".1274" d="M218.7018,-156.8295C231.2626,-140.0868 260.5633,-101.9831 288.383,-72.7661 300.3559,-60.1919 314.7407,-47.0932 326.4238,-36.9025"/>
<polygon fill="#00ff00" stroke="#00ff00" stroke-width=".1274" points="328.7301,-39.5353 334.0176,-30.3542 324.1588,-34.2341 328.7301,-39.5353"/>
</g>
<!-- 5091 -->
<g id="node13" class="node">
<title>5091</title>
<ellipse fill="#add8e6" stroke="#000000" cx="141.383" cy="-96.8077" rx="24.0833" ry="24.0833"/>
<text text-anchor="middle" x="141.383" y="-98.6077" font-family="Times,serif" font-size="9.00" fill="#000000">5091</text>
<text text-anchor="middle" x="141.383" y="-89.6077" font-family="Times,serif" font-size="9.00" fill="#000000">sigm</text>
</g>
<!-- 0&#45;&gt;5091 -->
<g id="edge14" class="edge">
<title>0&#45;&gt;5091</title>
<path fill="none" stroke="#00ff00" stroke-width=".6069" d="M203.3909,-156.6685C194.033,-147.6347 178.9659,-133.0893 166.0274,-120.5988"/>
<polygon fill="#00ff00" stroke="#00ff00" stroke-width=".6069" points="168.3402,-117.9666 158.7147,-113.5393 163.4784,-123.0028 168.3402,-117.9666"/>
</g>
<!-- 2 -->
<g id="node3" class="node">
<title>2</title>
<polygon fill="#d3d3d3" stroke="#000000" points="315.389,-173.8494 295.3771,-173.8494 295.3771,-156.8494 315.389,-156.8494 315.389,-173.8494"/>
<text text-anchor="middle" x="305.383" y="-162.6494" font-family="Times,serif" font-size="9.00" fill="#000000">2</text>
</g>
<!-- 1&#45;&gt;2 -->
<!-- E8 -->
<g id="node12" class="node">
<title>E8</title>
<ellipse fill="#87cefa" stroke="#000000" cx="458.383" cy="-18.383" rx="18.2668" ry="18.2668"/>
<text text-anchor="middle" x="458.383" y="-15.683" font-family="Times,serif" font-size="9.00" fill="#000000">E8</text>
</g>
<!-- 1&#45;&gt;E8 -->
<g id="edge13" class="edge">
<title>1&#45;&gt;E8</title>
<path fill="none" stroke="#ff0000" stroke-width="1.8234" d="M276.6824,-160.6327C296.8641,-151.3109 340.8276,-130.5898 354.383,-120.8494 387.5648,-97.0061 420.1958,-62.5609 439.8123,-40.3202"/>
<polygon fill="#ff0000" stroke="#ff0000" stroke-width="1.8234" points="442.5017,-42.5614 446.4275,-32.7207 437.2218,-37.9654 442.5017,-42.5614"/>
</g>
<!-- E4 -->
<g id="node8" class="node">
<title>E4</title>
<ellipse fill="#87cefa" stroke="#000000" cx="238.383" cy="-18.383" rx="18.2668" ry="18.2668"/>
<text text-anchor="middle" x="238.383" y="-15.683" font-family="Times,serif" font-size="9.00" fill="#000000">E4</text>
</g>
<!-- 2&#45;&gt;E4 -->
<g id="edge12" class="edge">
<title>2&#45;&gt;E4</title>
<path fill="none" stroke="#ff0000" stroke-width="3.6481" d="M301.3925,-156.5961C291.5466,-134.9987 265.7824,-78.4842 250.4199,-44.7863"/>
<polygon fill="#ff0000" stroke="#ff0000" stroke-width="3.6481" points="253.5328,-43.1768 246.1999,-35.5296 247.1635,-46.0805 253.5328,-43.1768"/>
</g>
<!-- 5398 -->
<g id="node14" class="node">
<title>5398</title>
<ellipse fill="#add8e6" stroke="#000000" cx="321.383" cy="-96.8077" rx="24.0833" ry="24.0833"/>
<text text-anchor="middle" x="321.383" y="-98.6077" font-family="Times,serif" font-size="9.00" fill="#000000">5398</text>
<text text-anchor="middle" x="321.383" y="-89.6077" font-family="Times,serif" font-size="9.00" fill="#000000">sigm</text>
</g>
<!-- 2&#45;&gt;5398 -->
<g id="edge18" class="edge">
<title>2&#45;&gt;5398</title>
<path fill="none" stroke="#00ff00" stroke-width=".2364" d="M307.4095,-156.6685C308.9822,-149.9312 311.2706,-140.1282 313.5418,-130.3983"/>
<polygon fill="#00ff00" stroke="#00ff00" stroke-width=".2364" points="317.0069,-130.9507 315.8719,-120.4169 310.1902,-129.3594 317.0069,-130.9507"/>
</g>
<!-- E0 -->
<g id="node4" class="node">
<title>E0</title>
<ellipse fill="#87cefa" stroke="#000000" cx="18.383" cy="-18.383" rx="18.2668" ry="18.2668"/>
<text text-anchor="middle" x="18.383" y="-15.683" font-family="Times,serif" font-size="9.00" fill="#000000">E0</text>
</g>
<!-- E1 -->
<g id="node5" class="node">
<title>E1</title>
<ellipse fill="#87cefa" stroke="#000000" cx="73.383" cy="-18.383" rx="18.2668" ry="18.2668"/>
<text text-anchor="middle" x="73.383" y="-15.683" font-family="Times,serif" font-size="9.00" fill="#000000">E1</text>
</g>
<!-- E0&#45;&gt;E1 -->
<!-- E1&#45;&gt;E2 -->
<!-- E3 -->
<g id="node7" class="node">
<title>E3</title>
<ellipse fill="#87cefa" stroke="#000000" cx="183.383" cy="-18.383" rx="18.2668" ry="18.2668"/>
<text text-anchor="middle" x="183.383" y="-15.683" font-family="Times,serif" font-size="9.00" fill="#000000">E3</text>
</g>
<!-- E2&#45;&gt;E3 -->
<!-- E3&#45;&gt;E4 -->
<!-- E5 -->
<g id="node9" class="node">
<title>E5</title>
<ellipse fill="#87cefa" stroke="#000000" cx="293.383" cy="-18.383" rx="18.2668" ry="18.2668"/>
<text text-anchor="middle" x="293.383" y="-15.683" font-family="Times,serif" font-size="9.00" fill="#000000">E5</text>
</g>
<!-- E4&#45;&gt;E5 -->
<!-- E5&#45;&gt;E6 -->
<!-- E7 -->
<g id="node11" class="node">
<title>E7</title>
<ellipse fill="#87cefa" stroke="#000000" cx="403.383" cy="-18.383" rx="18.2668" ry="18.2668"/>
<text text-anchor="middle" x="403.383" y="-15.683" font-family="Times,serif" font-size="9.00" fill="#000000">E7</text>
</g>
<!-- E6&#45;&gt;E7 -->
<!-- E7&#45;&gt;E8 -->
<!-- 5091&#45;&gt;E1 -->
<g id="edge15" class="edge">
<title>5091&#45;&gt;E1</title>
<path fill="none" stroke="#ff0000" stroke-width=".2179" d="M125.6116,-78.6184C115.6657,-67.1478 102.7652,-52.2696 92.274,-40.1701"/>
<polygon fill="#ff0000" stroke="#ff0000" stroke-width=".2179" points="94.6572,-37.576 85.4617,-32.3134 89.3684,-42.1617 94.6572,-37.576"/>
</g>
<!-- 5091&#45;&gt;E7 -->
<g id="edge17" class="edge">
<title>5091&#45;&gt;E7</title>
<path fill="none" stroke="#00ff00" stroke-width=".3216" d="M165.4891,-93.3152C208.9023,-86.4463 302.4935,-68.973 375.383,-36.7661 376.7793,-36.1492 378.1836,-35.4654 379.5796,-34.7352"/>
<polygon fill="#00ff00" stroke="#00ff00" stroke-width=".3216" points="381.6779,-37.5603 388.4994,-29.4537 378.1114,-31.537 381.6779,-37.5603"/>
</g>
<!-- 5398&#45;&gt;E5 -->
<g id="edge19" class="edge">
<title>5398&#45;&gt;E5</title>
<path fill="none" stroke="#00ff00" stroke-width=".1436" d="M313.2843,-74.1241C310.0818,-65.1542 306.375,-54.772 303.0349,-45.4166"/>
<polygon fill="#00ff00" stroke="#00ff00" stroke-width=".1436" points="306.2542,-44.0244 299.5955,-35.7835 299.6618,-46.3781 306.2542,-44.0244"/>
</g>
<!-- 5398&#45;&gt;E7 -->
<g id="edge20" class="edge">
<title>5398&#45;&gt;E7</title>
<path fill="none" stroke="#00ff00" stroke-width=".204" d="M338.7731,-80.1759C351.5848,-67.9229 369.0621,-51.2076 382.6089,-38.2515"/>
<polygon fill="#00ff00" stroke="#00ff00" stroke-width=".204" points="385.2581,-40.5608 390.0658,-31.1196 380.4198,-35.502 385.2581,-40.5608"/>
</g>
</g>
</svg>
