<?xml version="1.0" encoding="utf-8" standalone="no"?>
<!DOCTYPE svg PUBLIC "-//W3C//DTD SVG 1.1//EN"
  "http://www.w3.org/Graphics/SVG/1.1/DTD/svg11.dtd">
<!-- Created with matplotlib (https://matplotlib.org/) -->
<svg height="345.6pt" version="1.1" viewBox="0 0 460.8 345.6" width="460.8pt" xmlns="http://www.w3.org/2000/svg" xmlns:xlink="http://www.w3.org/1999/xlink">
 <defs>
  <style type="text/css">
*{stroke-linecap:butt;stroke-linejoin:round;}
  </style>
 </defs>
 <g id="figure_1">
  <g id="patch_1">
   <path d="M 0 345.6 
L 460.8 345.6 
L 460.8 0 
L 0 0 
z
" style="fill:#ffffff;"/>
  </g>
  <g id="axes_1">
   <g id="patch_2">
    <path d="M 57.6 307.584 
L 414.72 307.584 
L 414.72 41.472 
L 57.6 41.472 
z
" style="fill:#ffffff;"/>
   </g>
   <g id="matplotlib.axis_1">
    <g id="xtick_1">
     <g id="line2d_1">
      <path clip-path="url(#p03907c453b)" d="M 73.832727 307.584 
L 73.832727 41.472 
" style="fill:none;stroke:#b0b0b0;stroke-linecap:square;stroke-width:0.8;"/>
     </g>
     <g id="line2d_2">
      <defs>
       <path d="M 0 0 
L 0 3.5 
" id="mb37217ee5a" style="stroke:#000000;stroke-width:0.8;"/>
      </defs>
      <g>
       <use style="stroke:#000000;stroke-width:0.8;" x="73.832727" xlink:href="#mb37217ee5a" y="307.584"/>
      </g>
     </g>
     <g id="text_1">
      <!-- 0 -->
      <defs>
       <path d="M 31.78125 66.40625 
Q 24.171875 66.40625 20.328125 58.90625 
Q 16.5 51.421875 16.5 36.375 
Q 16.5 21.390625 20.328125 13.890625 
Q 24.171875 6.390625 31.78125 6.390625 
Q 39.453125 6.390625 43.28125 13.890625 
Q 47.125 21.390625 47.125 36.375 
Q 47.125 51.421875 43.28125 58.90625 
Q 39.453125 66.40625 31.78125 66.40625 
z
M 31.78125 74.21875 
Q 44.046875 74.21875 50.515625 64.515625 
Q 56.984375 54.828125 56.984375 36.375 
Q 56.984375 17.96875 50.515625 8.265625 
Q 44.046875 -1.421875 31.78125 -1.421875 
Q 19.53125 -1.421875 13.0625 8.265625 
Q 6.59375 17.96875 6.59375 36.375 
Q 6.59375 54.828125 13.0625 64.515625 
Q 19.53125 74.21875 31.78125 74.21875 
z
" id="DejaVuSans-48"/>
      </defs>
      <g transform="translate(70.651477 322.182437)scale(0.1 -0.1)">
       <use xlink:href="#DejaVuSans-48"/>
      </g>
     </g>
    </g>
    <g id="xtick_2">
     <g id="line2d_3">
      <path clip-path="url(#p03907c453b)" d="M 128.122785 307.584 
L 128.122785 41.472 
" style="fill:none;stroke:#b0b0b0;stroke-linecap:square;stroke-width:0.8;"/>
     </g>
     <g id="line2d_4">
      <g>
       <use style="stroke:#000000;stroke-width:0.8;" x="128.122785" xlink:href="#mb37217ee5a" y="307.584"/>
      </g>
     </g>
     <g id="text_2">
      <!-- 50 -->
      <defs>
       <path d="M 10.796875 72.90625 
L 49.515625 72.90625 
L 49.515625 64.59375 
L 19.828125 64.59375 
L 19.828125 46.734375 
Q 21.96875 47.46875 24.109375 47.828125 
Q 26.265625 48.1875 28.421875 48.1875 
Q 40.625 48.1875 47.75 41.5 
Q 54.890625 34.8125 54.890625 23.390625 
Q 54.890625 11.625 47.5625 5.09375 
Q 40.234375 -1.421875 26.90625 -1.421875 
Q 22.3125 -1.421875 17.546875 -0.640625 
Q 12.796875 0.140625 7.71875 1.703125 
L 7.71875 11.625 
Q 12.109375 9.234375 16.796875 8.0625 
Q 21.484375 6.890625 26.703125 6.890625 
Q 35.15625 6.890625 40.078125 11.328125 
Q 45.015625 15.765625 45.015625 23.390625 
Q 45.015625 31 40.078125 35.4375 
Q 35.15625 39.890625 26.703125 39.890625 
Q 22.75 39.890625 18.8125 39.015625 
Q 14.890625 38.140625 10.796875 36.28125 
z
" id="DejaVuSans-53"/>
      </defs>
      <g transform="translate(121.760285 322.182437)scale(0.1 -0.1)">
       <use xlink:href="#DejaVuSans-53"/>
       <use x="63.623047" xlink:href="#DejaVuSans-48"/>
      </g>
     </g>
    </g>
    <g id="xtick_3">
     <g id="line2d_5">
      <path clip-path="url(#p03907c453b)" d="M 182.412843 307.584 
L 182.412843 41.472 
" style="fill:none;stroke:#b0b0b0;stroke-linecap:square;stroke-width:0.8;"/>
     </g>
     <g id="line2d_6">
      <g>
       <use style="stroke:#000000;stroke-width:0.8;" x="182.412843" xlink:href="#mb37217ee5a" y="307.584"/>
      </g>
     </g>
     <g id="text_3">
      <!-- 100 -->
      <defs>
       <path d="M 12.40625 8.296875 
L 28.515625 8.296875 
L 28.515625 63.921875 
L 10.984375 60.40625 
L 10.984375 69.390625 
L 28.421875 72.90625 
L 38.28125 72.90625 
L 38.28125 8.296875 
L 54.390625 8.296875 
L 54.390625 0 
L 12.40625 0 
z
" id="DejaVuSans-49"/>
      </defs>
      <g transform="translate(172.869093 322.182437)scale(0.1 -0.1)">
       <use xlink:href="#DejaVuSans-49"/>
       <use x="63.623047" xlink:href="#DejaVuSans-48"/>
       <use x="127.246094" xlink:href="#DejaVuSans-48"/>
      </g>
     </g>
    </g>
    <g id="xtick_4">
     <g id="line2d_7">
      <path clip-path="url(#p03907c453b)" d="M 236.702901 307.584 
L 236.702901 41.472 
" style="fill:none;stroke:#b0b0b0;stroke-linecap:square;stroke-width:0.8;"/>
     </g>
     <g id="line2d_8">
      <g>
       <use style="stroke:#000000;stroke-width:0.8;" x="236.702901" xlink:href="#mb37217ee5a" y="307.584"/>
      </g>
     </g>
     <g id="text_4">
      <!-- 150 -->
      <g transform="translate(227.159151 322.182437)scale(0.1 -0.1)">
       <use xlink:href="#DejaVuSans-49"/>
       <use x="63.623047" xlink:href="#DejaVuSans-53"/>
       <use x="127.246094" xlink:href="#DejaVuSans-48"/>
      </g>
     </g>
    </g>
    <g id="xtick_5">
     <g id="line2d_9">
      <path clip-path="url(#p03907c453b)" d="M 290.992958 307.584 
L 290.992958 41.472 
" style="fill:none;stroke:#b0b0b0;stroke-linecap:square;stroke-width:0.8;"/>
     </g>
     <g id="line2d_10">
      <g>
       <use style="stroke:#000000;stroke-width:0.8;" x="290.992958" xlink:href="#mb37217ee5a" y="307.584"/>
      </g>
     </g>
     <g id="text_5">
      <!-- 200 -->
      <defs>
       <path d="M 19.1875 8.296875 
L 53.609375 8.296875 
L 53.609375 0 
L 7.328125 0 
L 7.328125 8.296875 
Q 12.9375 14.109375 22.625 23.890625 
Q 32.328125 33.6875 34.8125 36.53125 
Q 39.546875 41.84375 41.421875 45.53125 
Q 43.3125 49.21875 43.3125 52.78125 
Q 43.3125 58.59375 39.234375 62.25 
Q 35.15625 65.921875 28.609375 65.921875 
Q 23.96875 65.921875 18.8125 64.3125 
Q 13.671875 62.703125 7.8125 59.421875 
L 7.8125 69.390625 
Q 13.765625 71.78125 18.9375 73 
Q 24.125 74.21875 28.421875 74.21875 
Q 39.75 74.21875 46.484375 68.546875 
Q 53.21875 62.890625 53.21875 53.421875 
Q 53.21875 48.921875 51.53125 44.890625 
Q 49.859375 40.875 45.40625 35.40625 
Q 44.1875 33.984375 37.640625 27.21875 
Q 31.109375 20.453125 19.1875 8.296875 
z
" id="DejaVuSans-50"/>
      </defs>
      <g transform="translate(281.449208 322.182437)scale(0.1 -0.1)">
       <use xlink:href="#DejaVuSans-50"/>
       <use x="63.623047" xlink:href="#DejaVuSans-48"/>
       <use x="127.246094" xlink:href="#DejaVuSans-48"/>
      </g>
     </g>
    </g>
    <g id="xtick_6">
     <g id="line2d_11">
      <path clip-path="url(#p03907c453b)" d="M 345.283016 307.584 
L 345.283016 41.472 
" style="fill:none;stroke:#b0b0b0;stroke-linecap:square;stroke-width:0.8;"/>
     </g>
     <g id="line2d_12">
      <g>
       <use style="stroke:#000000;stroke-width:0.8;" x="345.283016" xlink:href="#mb37217ee5a" y="307.584"/>
      </g>
     </g>
     <g id="text_6">
      <!-- 250 -->
      <g transform="translate(335.739266 322.182437)scale(0.1 -0.1)">
       <use xlink:href="#DejaVuSans-50"/>
       <use x="63.623047" xlink:href="#DejaVuSans-53"/>
       <use x="127.246094" xlink:href="#DejaVuSans-48"/>
      </g>
     </g>
    </g>
    <g id="xtick_7">
     <g id="line2d_13">
      <path clip-path="url(#p03907c453b)" d="M 399.573074 307.584 
L 399.573074 41.472 
" style="fill:none;stroke:#b0b0b0;stroke-linecap:square;stroke-width:0.8;"/>
     </g>
     <g id="line2d_14">
      <g>
       <use style="stroke:#000000;stroke-width:0.8;" x="399.573074" xlink:href="#mb37217ee5a" y="307.584"/>
      </g>
     </g>
     <g id="text_7">
      <!-- 300 -->
      <defs>
       <path d="M 40.578125 39.3125 
Q 47.65625 37.796875 51.625 33 
Q 55.609375 28.21875 55.609375 21.1875 
Q 55.609375 10.40625 48.1875 4.484375 
Q 40.765625 -1.421875 27.09375 -1.421875 
Q 22.515625 -1.421875 17.65625 -0.515625 
Q 12.796875 0.390625 7.625 2.203125 
L 7.625 11.71875 
Q 11.71875 9.328125 16.59375 8.109375 
Q 21.484375 6.890625 26.8125 6.890625 
Q 36.078125 6.890625 40.9375 10.546875 
Q 45.796875 14.203125 45.796875 21.1875 
Q 45.796875 27.640625 41.28125 31.265625 
Q 36.765625 34.90625 28.71875 34.90625 
L 20.21875 34.90625 
L 20.21875 43.015625 
L 29.109375 43.015625 
Q 36.375 43.015625 40.234375 45.921875 
Q 44.09375 48.828125 44.09375 54.296875 
Q 44.09375 59.90625 40.109375 62.90625 
Q 36.140625 65.921875 28.71875 65.921875 
Q 24.65625 65.921875 20.015625 65.03125 
Q 15.375 64.15625 9.8125 62.3125 
L 9.8125 71.09375 
Q 15.4375 72.65625 20.34375 73.4375 
Q 25.25 74.21875 29.59375 74.21875 
Q 40.828125 74.21875 47.359375 69.109375 
Q 53.90625 64.015625 53.90625 55.328125 
Q 53.90625 49.265625 50.4375 45.09375 
Q 46.96875 40.921875 40.578125 39.3125 
z
" id="DejaVuSans-51"/>
      </defs>
      <g transform="translate(390.029324 322.182437)scale(0.1 -0.1)">
       <use xlink:href="#DejaVuSans-51"/>
       <use x="63.623047" xlink:href="#DejaVuSans-48"/>
       <use x="127.246094" xlink:href="#DejaVuSans-48"/>
      </g>
     </g>
    </g>
    <g id="text_8">
     <!-- Generations -->
     <defs>
      <path d="M 59.515625 10.40625 
L 59.515625 29.984375 
L 43.40625 29.984375 
L 43.40625 38.09375 
L 69.28125 38.09375 
L 69.28125 6.78125 
Q 63.578125 2.734375 56.6875 0.65625 
Q 49.8125 -1.421875 42 -1.421875 
Q 24.90625 -1.421875 15.25 8.5625 
Q 5.609375 18.5625 5.609375 36.375 
Q 5.609375 54.25 15.25 64.234375 
Q 24.90625 74.21875 42 74.21875 
Q 49.125 74.21875 55.546875 72.453125 
Q 61.96875 70.703125 67.390625 67.28125 
L 67.390625 56.78125 
Q 61.921875 61.421875 55.765625 63.765625 
Q 49.609375 66.109375 42.828125 66.109375 
Q 29.4375 66.109375 22.71875 58.640625 
Q 16.015625 51.171875 16.015625 36.375 
Q 16.015625 21.625 22.71875 14.15625 
Q 29.4375 6.6875 42.828125 6.6875 
Q 48.046875 6.6875 52.140625 7.59375 
Q 56.25 8.5 59.515625 10.40625 
z
" id="DejaVuSans-71"/>
      <path d="M 56.203125 29.59375 
L 56.203125 25.203125 
L 14.890625 25.203125 
Q 15.484375 15.921875 20.484375 11.0625 
Q 25.484375 6.203125 34.421875 6.203125 
Q 39.59375 6.203125 44.453125 7.46875 
Q 49.3125 8.734375 54.109375 11.28125 
L 54.109375 2.78125 
Q 49.265625 0.734375 44.1875 -0.34375 
Q 39.109375 -1.421875 33.890625 -1.421875 
Q 20.796875 -1.421875 13.15625 6.1875 
Q 5.515625 13.8125 5.515625 26.8125 
Q 5.515625 40.234375 12.765625 48.109375 
Q 20.015625 56 32.328125 56 
Q 43.359375 56 49.78125 48.890625 
Q 56.203125 41.796875 56.203125 29.59375 
z
M 47.21875 32.234375 
Q 47.125 39.59375 43.09375 43.984375 
Q 39.0625 48.390625 32.421875 48.390625 
Q 24.90625 48.390625 20.390625 44.140625 
Q 15.875 39.890625 15.1875 32.171875 
z
" id="DejaVuSans-101"/>
      <path d="M 54.890625 33.015625 
L 54.890625 0 
L 45.90625 0 
L 45.90625 32.71875 
Q 45.90625 40.484375 42.875 44.328125 
Q 39.84375 48.1875 33.796875 48.1875 
Q 26.515625 48.1875 22.3125 43.546875 
Q 18.109375 38.921875 18.109375 30.90625 
L 18.109375 0 
L 9.078125 0 
L 9.078125 54.6875 
L 18.109375 54.6875 
L 18.109375 46.1875 
Q 21.34375 51.125 25.703125 53.5625 
Q 30.078125 56 35.796875 56 
Q 45.21875 56 50.046875 50.171875 
Q 54.890625 44.34375 54.890625 33.015625 
z
" id="DejaVuSans-110"/>
      <path d="M 41.109375 46.296875 
Q 39.59375 47.171875 37.8125 47.578125 
Q 36.03125 48 33.890625 48 
Q 26.265625 48 22.1875 43.046875 
Q 18.109375 38.09375 18.109375 28.8125 
L 18.109375 0 
L 9.078125 0 
L 9.078125 54.6875 
L 18.109375 54.6875 
L 18.109375 46.1875 
Q 20.953125 51.171875 25.484375 53.578125 
Q 30.03125 56 36.53125 56 
Q 37.453125 56 38.578125 55.875 
Q 39.703125 55.765625 41.0625 55.515625 
z
" id="DejaVuSans-114"/>
      <path d="M 34.28125 27.484375 
Q 23.390625 27.484375 19.1875 25 
Q 14.984375 22.515625 14.984375 16.5 
Q 14.984375 11.71875 18.140625 8.90625 
Q 21.296875 6.109375 26.703125 6.109375 
Q 34.1875 6.109375 38.703125 11.40625 
Q 43.21875 16.703125 43.21875 25.484375 
L 43.21875 27.484375 
z
M 52.203125 31.203125 
L 52.203125 0 
L 43.21875 0 
L 43.21875 8.296875 
Q 40.140625 3.328125 35.546875 0.953125 
Q 30.953125 -1.421875 24.3125 -1.421875 
Q 15.921875 -1.421875 10.953125 3.296875 
Q 6 8.015625 6 15.921875 
Q 6 25.140625 12.171875 29.828125 
Q 18.359375 34.515625 30.609375 34.515625 
L 43.21875 34.515625 
L 43.21875 35.40625 
Q 43.21875 41.609375 39.140625 45 
Q 35.0625 48.390625 27.6875 48.390625 
Q 23 48.390625 18.546875 47.265625 
Q 14.109375 46.140625 10.015625 43.890625 
L 10.015625 52.203125 
Q 14.9375 54.109375 19.578125 55.046875 
Q 24.21875 56 28.609375 56 
Q 40.484375 56 46.34375 49.84375 
Q 52.203125 43.703125 52.203125 31.203125 
z
" id="DejaVuSans-97"/>
      <path d="M 18.3125 70.21875 
L 18.3125 54.6875 
L 36.8125 54.6875 
L 36.8125 47.703125 
L 18.3125 47.703125 
L 18.3125 18.015625 
Q 18.3125 11.328125 20.140625 9.421875 
Q 21.96875 7.515625 27.59375 7.515625 
L 36.8125 7.515625 
L 36.8125 0 
L 27.59375 0 
Q 17.1875 0 13.234375 3.875 
Q 9.28125 7.765625 9.28125 18.015625 
L 9.28125 47.703125 
L 2.6875 47.703125 
L 2.6875 54.6875 
L 9.28125 54.6875 
L 9.28125 70.21875 
z
" id="DejaVuSans-116"/>
      <path d="M 9.421875 54.6875 
L 18.40625 54.6875 
L 18.40625 0 
L 9.421875 0 
z
M 9.421875 75.984375 
L 18.40625 75.984375 
L 18.40625 64.59375 
L 9.421875 64.59375 
z
" id="DejaVuSans-105"/>
      <path d="M 30.609375 48.390625 
Q 23.390625 48.390625 19.1875 42.75 
Q 14.984375 37.109375 14.984375 27.296875 
Q 14.984375 17.484375 19.15625 11.84375 
Q 23.34375 6.203125 30.609375 6.203125 
Q 37.796875 6.203125 41.984375 11.859375 
Q 46.1875 17.53125 46.1875 27.296875 
Q 46.1875 37.015625 41.984375 42.703125 
Q 37.796875 48.390625 30.609375 48.390625 
z
M 30.609375 56 
Q 42.328125 56 49.015625 48.375 
Q 55.71875 40.765625 55.71875 27.296875 
Q 55.71875 13.875 49.015625 6.21875 
Q 42.328125 -1.421875 30.609375 -1.421875 
Q 18.84375 -1.421875 12.171875 6.21875 
Q 5.515625 13.875 5.515625 27.296875 
Q 5.515625 40.765625 12.171875 48.375 
Q 18.84375 56 30.609375 56 
z
" id="DejaVuSans-111"/>
      <path d="M 44.28125 53.078125 
L 44.28125 44.578125 
Q 40.484375 46.53125 36.375 47.5 
Q 32.28125 48.484375 27.875 48.484375 
Q 21.1875 48.484375 17.84375 46.4375 
Q 14.5 44.390625 14.5 40.28125 
Q 14.5 37.15625 16.890625 35.375 
Q 19.28125 33.59375 26.515625 31.984375 
L 29.59375 31.296875 
Q 39.15625 29.25 43.1875 25.515625 
Q 47.21875 21.78125 47.21875 15.09375 
Q 47.21875 7.46875 41.1875 3.015625 
Q 35.15625 -1.421875 24.609375 -1.421875 
Q 20.21875 -1.421875 15.453125 -0.5625 
Q 10.6875 0.296875 5.421875 2 
L 5.421875 11.28125 
Q 10.40625 8.6875 15.234375 7.390625 
Q 20.0625 6.109375 24.8125 6.109375 
Q 31.15625 6.109375 34.5625 8.28125 
Q 37.984375 10.453125 37.984375 14.40625 
Q 37.984375 18.0625 35.515625 20.015625 
Q 33.0625 21.96875 24.703125 23.78125 
L 21.578125 24.515625 
Q 13.234375 26.265625 9.515625 29.90625 
Q 5.8125 33.546875 5.8125 39.890625 
Q 5.8125 47.609375 11.28125 51.796875 
Q 16.75 56 26.8125 56 
Q 31.78125 56 36.171875 55.265625 
Q 40.578125 54.546875 44.28125 53.078125 
z
" id="DejaVuSans-115"/>
     </defs>
     <g transform="translate(205.662344 335.860562)scale(0.1 -0.1)">
      <use xlink:href="#DejaVuSans-71"/>
      <use x="77.490234" xlink:href="#DejaVuSans-101"/>
      <use x="139.013672" xlink:href="#DejaVuSans-110"/>
      <use x="202.392578" xlink:href="#DejaVuSans-101"/>
      <use x="263.916016" xlink:href="#DejaVuSans-114"/>
      <use x="305.029297" xlink:href="#DejaVuSans-97"/>
      <use x="366.308594" xlink:href="#DejaVuSans-116"/>
      <use x="405.517578" xlink:href="#DejaVuSans-105"/>
      <use x="433.300781" xlink:href="#DejaVuSans-111"/>
      <use x="494.482422" xlink:href="#DejaVuSans-110"/>
      <use x="557.861328" xlink:href="#DejaVuSans-115"/>
     </g>
    </g>
   </g>
   <g id="matplotlib.axis_2">
    <g id="ytick_1">
     <g id="line2d_15">
      <path clip-path="url(#p03907c453b)" d="M 57.6 307.181107 
L 414.72 307.181107 
" style="fill:none;stroke:#b0b0b0;stroke-linecap:square;stroke-width:0.8;"/>
     </g>
     <g id="line2d_16">
      <defs>
       <path d="M 0 0 
L -3.5 0 
" id="m73274f900a" style="stroke:#000000;stroke-width:0.8;"/>
      </defs>
      <g>
       <use style="stroke:#000000;stroke-width:0.8;" x="57.6" xlink:href="#m73274f900a" y="307.181107"/>
      </g>
     </g>
     <g id="text_9">
      <!-- 200 -->
      <g transform="translate(31.5125 310.980326)scale(0.1 -0.1)">
       <use xlink:href="#DejaVuSans-50"/>
       <use x="63.623047" xlink:href="#DejaVuSans-48"/>
       <use x="127.246094" xlink:href="#DejaVuSans-48"/>
      </g>
     </g>
    </g>
    <g id="ytick_2">
     <g id="line2d_17">
      <path clip-path="url(#p03907c453b)" d="M 57.6 276.896729 
L 414.72 276.896729 
" style="fill:none;stroke:#b0b0b0;stroke-linecap:square;stroke-width:0.8;"/>
     </g>
     <g id="line2d_18">
      <g>
       <use style="stroke:#000000;stroke-width:0.8;" x="57.6" xlink:href="#m73274f900a" y="276.896729"/>
      </g>
     </g>
     <g id="text_10">
      <!-- 400 -->
      <defs>
       <path d="M 37.796875 64.3125 
L 12.890625 25.390625 
L 37.796875 25.390625 
z
M 35.203125 72.90625 
L 47.609375 72.90625 
L 47.609375 25.390625 
L 58.015625 25.390625 
L 58.015625 17.1875 
L 47.609375 17.1875 
L 47.609375 0 
L 37.796875 0 
L 37.796875 17.1875 
L 4.890625 17.1875 
L 4.890625 26.703125 
z
" id="DejaVuSans-52"/>
      </defs>
      <g transform="translate(31.5125 280.695948)scale(0.1 -0.1)">
       <use xlink:href="#DejaVuSans-52"/>
       <use x="63.623047" xlink:href="#DejaVuSans-48"/>
       <use x="127.246094" xlink:href="#DejaVuSans-48"/>
      </g>
     </g>
    </g>
    <g id="ytick_3">
     <g id="line2d_19">
      <path clip-path="url(#p03907c453b)" d="M 57.6 246.612352 
L 414.72 246.612352 
" style="fill:none;stroke:#b0b0b0;stroke-linecap:square;stroke-width:0.8;"/>
     </g>
     <g id="line2d_20">
      <g>
       <use style="stroke:#000000;stroke-width:0.8;" x="57.6" xlink:href="#m73274f900a" y="246.612352"/>
      </g>
     </g>
     <g id="text_11">
      <!-- 600 -->
      <defs>
       <path d="M 33.015625 40.375 
Q 26.375 40.375 22.484375 35.828125 
Q 18.609375 31.296875 18.609375 23.390625 
Q 18.609375 15.53125 22.484375 10.953125 
Q 26.375 6.390625 33.015625 6.390625 
Q 39.65625 6.390625 43.53125 10.953125 
Q 47.40625 15.53125 47.40625 23.390625 
Q 47.40625 31.296875 43.53125 35.828125 
Q 39.65625 40.375 33.015625 40.375 
z
M 52.59375 71.296875 
L 52.59375 62.3125 
Q 48.875 64.0625 45.09375 64.984375 
Q 41.3125 65.921875 37.59375 65.921875 
Q 27.828125 65.921875 22.671875 59.328125 
Q 17.53125 52.734375 16.796875 39.40625 
Q 19.671875 43.65625 24.015625 45.921875 
Q 28.375 48.1875 33.59375 48.1875 
Q 44.578125 48.1875 50.953125 41.515625 
Q 57.328125 34.859375 57.328125 23.390625 
Q 57.328125 12.15625 50.6875 5.359375 
Q 44.046875 -1.421875 33.015625 -1.421875 
Q 20.359375 -1.421875 13.671875 8.265625 
Q 6.984375 17.96875 6.984375 36.375 
Q 6.984375 53.65625 15.1875 63.9375 
Q 23.390625 74.21875 37.203125 74.21875 
Q 40.921875 74.21875 44.703125 73.484375 
Q 48.484375 72.75 52.59375 71.296875 
z
" id="DejaVuSans-54"/>
      </defs>
      <g transform="translate(31.5125 250.411571)scale(0.1 -0.1)">
       <use xlink:href="#DejaVuSans-54"/>
       <use x="63.623047" xlink:href="#DejaVuSans-48"/>
       <use x="127.246094" xlink:href="#DejaVuSans-48"/>
      </g>
     </g>
    </g>
    <g id="ytick_4">
     <g id="line2d_21">
      <path clip-path="url(#p03907c453b)" d="M 57.6 216.327974 
L 414.72 216.327974 
" style="fill:none;stroke:#b0b0b0;stroke-linecap:square;stroke-width:0.8;"/>
     </g>
     <g id="line2d_22">
      <g>
       <use style="stroke:#000000;stroke-width:0.8;" x="57.6" xlink:href="#m73274f900a" y="216.327974"/>
      </g>
     </g>
     <g id="text_12">
      <!-- 800 -->
      <defs>
       <path d="M 31.78125 34.625 
Q 24.75 34.625 20.71875 30.859375 
Q 16.703125 27.09375 16.703125 20.515625 
Q 16.703125 13.921875 20.71875 10.15625 
Q 24.75 6.390625 31.78125 6.390625 
Q 38.8125 6.390625 42.859375 10.171875 
Q 46.921875 13.96875 46.921875 20.515625 
Q 46.921875 27.09375 42.890625 30.859375 
Q 38.875 34.625 31.78125 34.625 
z
M 21.921875 38.8125 
Q 15.578125 40.375 12.03125 44.71875 
Q 8.5 49.078125 8.5 55.328125 
Q 8.5 64.0625 14.71875 69.140625 
Q 20.953125 74.21875 31.78125 74.21875 
Q 42.671875 74.21875 48.875 69.140625 
Q 55.078125 64.0625 55.078125 55.328125 
Q 55.078125 49.078125 51.53125 44.71875 
Q 48 40.375 41.703125 38.8125 
Q 48.828125 37.15625 52.796875 32.3125 
Q 56.78125 27.484375 56.78125 20.515625 
Q 56.78125 9.90625 50.3125 4.234375 
Q 43.84375 -1.421875 31.78125 -1.421875 
Q 19.734375 -1.421875 13.25 4.234375 
Q 6.78125 9.90625 6.78125 20.515625 
Q 6.78125 27.484375 10.78125 32.3125 
Q 14.796875 37.15625 21.921875 38.8125 
z
M 18.3125 54.390625 
Q 18.3125 48.734375 21.84375 45.5625 
Q 25.390625 42.390625 31.78125 42.390625 
Q 38.140625 42.390625 41.71875 45.5625 
Q 45.3125 48.734375 45.3125 54.390625 
Q 45.3125 60.0625 41.71875 63.234375 
Q 38.140625 66.40625 31.78125 66.40625 
Q 25.390625 66.40625 21.84375 63.234375 
Q 18.3125 60.0625 18.3125 54.390625 
z
" id="DejaVuSans-56"/>
      </defs>
      <g transform="translate(31.5125 220.127193)scale(0.1 -0.1)">
       <use xlink:href="#DejaVuSans-56"/>
       <use x="63.623047" xlink:href="#DejaVuSans-48"/>
       <use x="127.246094" xlink:href="#DejaVuSans-48"/>
      </g>
     </g>
    </g>
    <g id="ytick_5">
     <g id="line2d_23">
      <path clip-path="url(#p03907c453b)" d="M 57.6 186.043597 
L 414.72 186.043597 
" style="fill:none;stroke:#b0b0b0;stroke-linecap:square;stroke-width:0.8;"/>
     </g>
     <g id="line2d_24">
      <g>
       <use style="stroke:#000000;stroke-width:0.8;" x="57.6" xlink:href="#m73274f900a" y="186.043597"/>
      </g>
     </g>
     <g id="text_13">
      <!-- 1000 -->
      <g transform="translate(25.15 189.842816)scale(0.1 -0.1)">
       <use xlink:href="#DejaVuSans-49"/>
       <use x="63.623047" xlink:href="#DejaVuSans-48"/>
       <use x="127.246094" xlink:href="#DejaVuSans-48"/>
       <use x="190.869141" xlink:href="#DejaVuSans-48"/>
      </g>
     </g>
    </g>
    <g id="ytick_6">
     <g id="line2d_25">
      <path clip-path="url(#p03907c453b)" d="M 57.6 155.759219 
L 414.72 155.759219 
" style="fill:none;stroke:#b0b0b0;stroke-linecap:square;stroke-width:0.8;"/>
     </g>
     <g id="line2d_26">
      <g>
       <use style="stroke:#000000;stroke-width:0.8;" x="57.6" xlink:href="#m73274f900a" y="155.759219"/>
      </g>
     </g>
     <g id="text_14">
      <!-- 1200 -->
      <g transform="translate(25.15 159.558438)scale(0.1 -0.1)">
       <use xlink:href="#DejaVuSans-49"/>
       <use x="63.623047" xlink:href="#DejaVuSans-50"/>
       <use x="127.246094" xlink:href="#DejaVuSans-48"/>
       <use x="190.869141" xlink:href="#DejaVuSans-48"/>
      </g>
     </g>
    </g>
    <g id="ytick_7">
     <g id="line2d_27">
      <path clip-path="url(#p03907c453b)" d="M 57.6 125.474842 
L 414.72 125.474842 
" style="fill:none;stroke:#b0b0b0;stroke-linecap:square;stroke-width:0.8;"/>
     </g>
     <g id="line2d_28">
      <g>
       <use style="stroke:#000000;stroke-width:0.8;" x="57.6" xlink:href="#m73274f900a" y="125.474842"/>
      </g>
     </g>
     <g id="text_15">
      <!-- 1400 -->
      <g transform="translate(25.15 129.274061)scale(0.1 -0.1)">
       <use xlink:href="#DejaVuSans-49"/>
       <use x="63.623047" xlink:href="#DejaVuSans-52"/>
       <use x="127.246094" xlink:href="#DejaVuSans-48"/>
       <use x="190.869141" xlink:href="#DejaVuSans-48"/>
      </g>
     </g>
    </g>
    <g id="ytick_8">
     <g id="line2d_29">
      <path clip-path="url(#p03907c453b)" d="M 57.6 95.190464 
L 414.72 95.190464 
" style="fill:none;stroke:#b0b0b0;stroke-linecap:square;stroke-width:0.8;"/>
     </g>
     <g id="line2d_30">
      <g>
       <use style="stroke:#000000;stroke-width:0.8;" x="57.6" xlink:href="#m73274f900a" y="95.190464"/>
      </g>
     </g>
     <g id="text_16">
      <!-- 1600 -->
      <g transform="translate(25.15 98.989683)scale(0.1 -0.1)">
       <use xlink:href="#DejaVuSans-49"/>
       <use x="63.623047" xlink:href="#DejaVuSans-54"/>
       <use x="127.246094" xlink:href="#DejaVuSans-48"/>
       <use x="190.869141" xlink:href="#DejaVuSans-48"/>
      </g>
     </g>
    </g>
    <g id="ytick_9">
     <g id="line2d_31">
      <path clip-path="url(#p03907c453b)" d="M 57.6 64.906087 
L 414.72 64.906087 
" style="fill:none;stroke:#b0b0b0;stroke-linecap:square;stroke-width:0.8;"/>
     </g>
     <g id="line2d_32">
      <g>
       <use style="stroke:#000000;stroke-width:0.8;" x="57.6" xlink:href="#m73274f900a" y="64.906087"/>
      </g>
     </g>
     <g id="text_17">
      <!-- 1800 -->
      <g transform="translate(25.15 68.705306)scale(0.1 -0.1)">
       <use xlink:href="#DejaVuSans-49"/>
       <use x="63.623047" xlink:href="#DejaVuSans-56"/>
       <use x="127.246094" xlink:href="#DejaVuSans-48"/>
       <use x="190.869141" xlink:href="#DejaVuSans-48"/>
      </g>
     </g>
    </g>
    <g id="text_18">
     <!-- Fitness -->
     <defs>
      <path d="M 9.8125 72.90625 
L 51.703125 72.90625 
L 51.703125 64.59375 
L 19.671875 64.59375 
L 19.671875 43.109375 
L 48.578125 43.109375 
L 48.578125 34.8125 
L 19.671875 34.8125 
L 19.671875 0 
L 9.8125 0 
z
" id="DejaVuSans-70"/>
     </defs>
     <g transform="translate(19.070312 192.202219)rotate(-90)scale(0.1 -0.1)">
      <use xlink:href="#DejaVuSans-70"/>
      <use x="57.410156" xlink:href="#DejaVuSans-105"/>
      <use x="85.193359" xlink:href="#DejaVuSans-116"/>
      <use x="124.402344" xlink:href="#DejaVuSans-110"/>
      <use x="187.78125" xlink:href="#DejaVuSans-101"/>
      <use x="249.304688" xlink:href="#DejaVuSans-115"/>
      <use x="301.404297" xlink:href="#DejaVuSans-115"/>
     </g>
    </g>
   </g>
   <g id="line2d_33">
    <path clip-path="url(#p03907c453b)" d="M 73.832727 291.95928 
L 74.918528 246.914089 
L 76.00433 234.530456 
L 77.090131 259.956363 
L 78.175932 247.258488 
L 79.261733 247.832293 
L 80.347534 238.775551 
L 81.433335 237.272074 
L 82.519137 231.232099 
L 83.604938 221.644231 
L 84.690739 226.270359 
L 85.77654 223.339478 
L 87.948142 212.082243 
L 89.033943 208.426606 
L 90.119745 190.935345 
L 91.205546 208.115251 
L 92.291347 207.244515 
L 93.377148 209.736516 
L 94.462949 183.448767 
L 95.54875 170.89507 
L 96.634552 162.347672 
L 97.720353 168.643813 
L 98.806154 162.015017 
L 99.891955 178.167046 
L 100.977756 164.806313 
L 102.063557 175.974936 
L 103.149358 174.866475 
L 104.23516 163.054563 
L 105.320961 141.854171 
L 106.406762 132.046035 
L 107.492563 163.770503 
L 108.578364 133.371223 
L 109.664165 145.027307 
L 110.749967 153.747297 
L 111.835768 173.589073 
L 112.921569 153.177162 
L 114.00737 135.913736 
L 115.093171 154.888148 
L 116.178972 147.723937 
L 117.264773 150.07436 
L 118.350575 164.85313 
L 119.436376 165.777799 
L 120.522177 177.108715 
L 121.607978 178.693434 
L 122.693779 174.653112 
L 123.77958 151.089467 
L 124.865382 150.823733 
L 125.951183 153.925854 
L 127.036984 151.000719 
L 128.122785 146.722171 
L 129.208586 168.165897 
L 130.294387 177.557701 
L 131.380189 159.083139 
L 132.46599 176.812176 
L 133.551791 187.892892 
L 134.637592 148.524193 
L 135.723393 192.407449 
L 136.809194 161.35947 
L 137.894995 165.306203 
L 138.980797 165.818819 
L 141.152399 129.930899 
L 142.2382 181.871958 
L 143.324001 183.63724 
L 144.409802 165.579514 
L 145.495604 155.748666 
L 146.581405 139.06986 
L 147.667206 158.391182 
L 148.753007 157.856964 
L 149.838808 163.999501 
L 150.924609 152.403222 
L 152.01041 185.228438 
L 153.096212 184.467168 
L 154.182013 175.483188 
L 156.353615 127.704288 
L 157.439416 147.302235 
L 158.525217 156.71013 
L 159.611019 164.469729 
L 160.69682 135.430661 
L 161.782621 147.435258 
L 162.868422 167.611671 
L 163.954223 152.36663 
L 165.040024 167.283429 
L 166.125825 149.698205 
L 167.211627 146.140449 
L 168.297428 161.577749 
L 169.383229 170.510112 
L 170.46903 149.513981 
L 171.554831 157.328097 
L 172.640632 141.385462 
L 173.726434 136.230976 
L 174.812235 140.478 
L 175.898036 153.672215 
L 176.983837 153.936944 
L 178.069638 169.49395 
L 179.155439 159.089291 
L 180.24124 166.976365 
L 181.327042 160.685718 
L 182.412843 133.842927 
L 183.498644 135.669449 
L 184.584445 165.575896 
L 185.670246 170.306223 
L 186.756047 152.539286 
L 187.841849 182.212098 
L 188.92765 192.588115 
L 190.013451 162.852844 
L 191.099252 142.675674 
L 192.185053 139.939464 
L 193.270854 148.816509 
L 194.356656 145.702435 
L 195.442457 136.023336 
L 196.528258 128.547799 
L 197.614059 148.847544 
L 199.785661 162.497332 
L 200.871462 174.814611 
L 201.957264 137.11028 
L 203.043065 131.005266 
L 204.128866 126.536223 
L 205.214667 159.962308 
L 206.300468 145.938058 
L 207.386269 148.975752 
L 208.472071 186.214663 
L 209.557872 180.781317 
L 210.643673 186.173185 
L 211.729474 176.514088 
L 212.815275 184.193129 
L 213.901076 172.387218 
L 214.986877 178.265824 
L 216.072679 192.176349 
L 217.15848 171.752937 
L 218.244281 172.333423 
L 219.330082 170.120681 
L 220.415883 155.279732 
L 221.501684 184.498793 
L 222.587486 163.99425 
L 223.673287 149.730354 
L 224.759088 154.905603 
L 225.844889 178.303315 
L 226.93069 173.26171 
L 228.016491 176.70644 
L 229.102292 159.79725 
L 230.188094 161.089501 
L 231.273895 148.758799 
L 232.359696 167.875982 
L 233.445497 158.925401 
L 234.531298 134.3796 
L 236.702901 145.410242 
L 237.788702 156.981285 
L 238.874503 176.87136 
L 239.960304 160.156952 
L 241.046105 137.361231 
L 242.131906 171.09639 
L 243.217708 162.596694 
L 244.303509 128.611465 
L 245.38931 154.454255 
L 247.560912 146.706923 
L 248.646713 123.724011 
L 249.732514 144.015104 
L 250.818316 127.723069 
L 251.904117 160.030345 
L 252.989918 118.812814 
L 254.075719 132.721705 
L 255.16152 134.528512 
L 256.247321 146.662437 
L 257.333123 168.936502 
L 258.418924 136.656589 
L 259.504725 151.631963 
L 260.590526 140.940501 
L 261.676327 113.809864 
L 262.762128 177.819823 
L 263.847929 169.335921 
L 264.933731 138.862566 
L 266.019532 140.55294 
L 267.105333 143.983535 
L 268.191134 164.657544 
L 269.276935 113.99854 
L 270.362736 151.617203 
L 271.448538 144.135881 
L 272.534339 144.793231 
L 273.62014 144.127453 
L 274.705941 149.326371 
L 275.791742 139.021004 
L 276.877543 136.482627 
L 277.963344 155.589873 
L 279.049146 150.683825 
L 280.134947 130.926645 
L 281.220748 156.045486 
L 282.306549 152.377789 
L 284.478151 161.00962 
L 285.563953 137.416344 
L 286.649754 149.072784 
L 287.735555 174.886054 
L 288.821356 149.389942 
L 289.907157 150.922377 
L 290.992958 147.764742 
L 292.07876 154.920519 
L 293.164561 149.189044 
L 294.250362 144.588581 
L 295.336163 134.782945 
L 296.421964 146.917012 
L 297.507765 169.993601 
L 298.593566 134.567021 
L 299.679368 145.899144 
L 300.765169 167.711646 
L 301.85097 138.951847 
L 302.936771 183.118684 
L 304.022572 193.31967 
L 305.108373 158.346844 
L 306.194175 155.757412 
L 307.279976 145.08852 
L 308.365777 172.128927 
L 309.451578 156.255595 
L 310.537379 164.985551 
L 312.708981 142.691093 
L 313.794783 168.480891 
L 314.880584 174.824907 
L 315.966385 144.276425 
L 317.052186 167.965474 
L 318.137987 164.692065 
L 319.223788 156.644794 
L 320.30959 154.669543 
L 321.395391 157.745886 
L 322.481192 161.97822 
L 323.566993 181.647577 
L 324.652794 169.799821 
L 325.738595 161.518328 
L 326.824396 141.190731 
L 327.910198 166.964204 
L 328.995999 154.972684 
L 330.0818 165.255717 
L 331.167601 168.816514 
L 332.253402 173.022363 
L 333.339203 150.584228 
L 334.425005 136.086589 
L 335.510806 142.150097 
L 336.596607 162.922138 
L 337.682408 149.555805 
L 338.768209 178.835016 
L 339.85401 142.178046 
L 340.939811 155.854359 
L 342.025613 133.083194 
L 343.111414 147.062729 
L 344.197215 132.166063 
L 345.283016 176.78116 
L 346.368817 170.541255 
L 347.454618 140.221973 
L 348.54042 188.391079 
L 349.626221 165.392426 
L 350.712022 151.694428 
L 351.797823 142.367792 
L 352.883624 139.505824 
L 353.969425 150.971558 
L 355.055227 142.161972 
L 356.141028 148.215778 
L 357.226829 152.597026 
L 358.31263 190.621937 
L 359.398431 159.492707 
L 360.484232 138.777957 
L 361.570033 148.341076 
L 362.655835 161.074341 
L 363.741636 144.395426 
L 364.827437 138.840534 
L 365.913238 166.625832 
L 366.999039 171.107113 
L 368.08484 200.677402 
L 369.170642 146.632512 
L 370.256443 177.116409 
L 371.342244 179.724064 
L 372.428045 166.426475 
L 373.513846 155.354346 
L 374.599647 187.67156 
L 375.685448 172.985724 
L 376.77125 172.980524 
L 377.857051 175.699078 
L 378.942852 184.306362 
L 380.028653 196.30002 
L 381.114454 157.073034 
L 382.200255 154.118227 
L 383.286057 172.335784 
L 384.371858 163.226051 
L 385.457659 152.25134 
L 386.54346 164.886042 
L 387.629261 186.341248 
L 388.715062 178.629482 
L 389.800863 169.604835 
L 390.886665 169.845945 
L 391.972466 189.737794 
L 393.058267 194.658922 
L 394.144068 206.984763 
L 395.229869 183.317037 
L 396.31567 201.653776 
L 397.401472 186.867798 
L 398.487273 186.215043 
L 398.487273 186.215043 
" style="fill:none;stroke:#0000ff;stroke-linecap:square;stroke-width:1.5;"/>
   </g>
   <g id="line2d_34">
    <path clip-path="url(#p03907c453b)" d="M 73.832727 295.488 
L 74.918528 250.583771 
L 76.00433 239.246865 
L 77.090131 268.860438 
L 78.175932 260.218787 
L 79.261733 269.24283 
L 80.347534 254.428531 
L 81.433335 261.660476 
L 82.519137 249.382742 
L 83.604938 244.992182 
L 84.690739 249.194677 
L 85.77654 248.404981 
L 86.862341 243.65282 
L 87.948142 241.281975 
L 89.033943 234.623771 
L 90.119745 215.457171 
L 91.205546 231.12512 
L 92.291347 232.879372 
L 93.377148 236.063226 
L 94.462949 216.287359 
L 95.54875 209.525633 
L 96.634552 199.384777 
L 97.720353 221.643216 
L 98.806154 205.369621 
L 99.891955 217.990082 
L 100.977756 205.382083 
L 102.063557 224.615189 
L 103.149358 221.505468 
L 104.23516 214.580219 
L 105.320961 182.060787 
L 106.406762 184.125413 
L 107.492563 207.865463 
L 108.578364 189.051374 
L 109.664165 193.562394 
L 110.749967 204.762793 
L 111.835768 227.486737 
L 112.921569 212.419675 
L 114.00737 185.755195 
L 115.093171 203.075204 
L 116.178972 215.591873 
L 117.264773 198.122676 
L 119.436376 226.801504 
L 120.522177 226.264221 
L 121.607978 224.788439 
L 122.693779 213.334516 
L 123.77958 206.072563 
L 124.865382 203.725117 
L 125.951183 211.779215 
L 127.036984 198.480317 
L 128.122785 203.08476 
L 129.208586 210.621364 
L 130.294387 215.432238 
L 131.380189 204.656615 
L 133.551791 237.507625 
L 134.637592 217.653029 
L 135.723393 238.195674 
L 136.809194 212.612492 
L 138.980797 223.05313 
L 140.066598 215.498335 
L 141.152399 186.320478 
L 142.2382 227.881566 
L 143.324001 228.653568 
L 144.409802 224.68473 
L 145.495604 202.87308 
L 146.581405 199.079936 
L 147.667206 206.147967 
L 148.753007 194.920301 
L 149.838808 218.181384 
L 150.924609 201.124299 
L 152.01041 229.477432 
L 153.096212 213.07022 
L 154.182013 217.893253 
L 155.267814 203.76101 
L 156.353615 191.557987 
L 158.525217 232.481666 
L 159.611019 222.988504 
L 160.69682 186.871041 
L 161.782621 198.47687 
L 162.868422 217.564164 
L 163.954223 209.101887 
L 165.040024 223.999598 
L 166.125825 210.313567 
L 167.211627 209.970164 
L 168.297428 218.167654 
L 169.383229 221.154647 
L 170.46903 202.093522 
L 171.554831 211.428517 
L 172.640632 192.487584 
L 173.726434 202.826469 
L 174.812235 204.725049 
L 175.898036 209.067133 
L 176.983837 211.734004 
L 178.069638 210.72607 
L 179.155439 207.956062 
L 180.24124 211.862838 
L 181.327042 214.562745 
L 182.412843 193.898283 
L 183.498644 188.89842 
L 184.584445 228.211492 
L 186.756047 218.663164 
L 187.841849 232.260921 
L 188.92765 238.006596 
L 190.013451 215.725012 
L 191.099252 190.908058 
L 192.185053 183.406216 
L 193.270854 202.649331 
L 194.356656 192.802724 
L 195.442457 198.622396 
L 196.528258 175.54595 
L 197.614059 205.703242 
L 198.69986 214.928439 
L 199.785661 213.654487 
L 200.871462 216.180126 
L 201.957264 182.951385 
L 203.043065 171.306552 
L 204.128866 179.415143 
L 205.214667 213.993629 
L 206.300468 205.169 
L 207.386269 197.781875 
L 208.472071 229.644876 
L 209.557872 222.651388 
L 210.643673 237.900333 
L 211.729474 225.274007 
L 212.815275 237.743107 
L 213.901076 210.056747 
L 214.986877 216.648646 
L 216.072679 232.845297 
L 217.15848 227.903767 
L 218.244281 218.796423 
L 219.330082 218.139211 
L 220.415883 195.982419 
L 221.501684 224.120425 
L 222.587486 208.732264 
L 223.673287 207.69361 
L 224.759088 207.029856 
L 225.844889 214.436637 
L 226.93069 216.386151 
L 228.016491 225.889614 
L 229.102292 210.206802 
L 230.188094 216.78171 
L 231.273895 189.781675 
L 232.359696 214.94897 
L 233.445497 201.579518 
L 234.531298 172.839735 
L 235.617099 184.648391 
L 236.702901 192.202432 
L 237.788702 192.873664 
L 238.874503 224.367894 
L 239.960304 211.959233 
L 241.046105 186.315406 
L 242.131906 231.402596 
L 243.217708 210.151382 
L 244.303509 178.056402 
L 245.38931 204.610326 
L 246.475111 201.946972 
L 247.560912 201.759369 
L 248.646713 176.683807 
L 249.732514 208.631031 
L 250.818316 180.563546 
L 251.904117 209.653708 
L 252.989918 166.145089 
L 254.075719 194.373341 
L 255.16152 196.502997 
L 256.247321 207.268943 
L 257.333123 211.633379 
L 258.418924 188.775636 
L 259.504725 203.077013 
L 260.590526 197.906377 
L 261.676327 147.801108 
L 262.762128 220.666578 
L 263.847929 217.605812 
L 264.933731 200.579979 
L 266.019532 175.474792 
L 268.191134 218.171862 
L 269.276935 163.692512 
L 270.362736 205.112275 
L 271.448538 199.214534 
L 272.534339 194.131264 
L 273.62014 205.501188 
L 274.705941 206.262619 
L 275.791742 181.860301 
L 276.877543 192.066623 
L 277.963344 192.824154 
L 279.049146 199.014786 
L 280.134947 184.117608 
L 281.220748 205.352527 
L 282.306549 200.330916 
L 283.39235 201.67661 
L 284.478151 201.960276 
L 285.563953 180.908304 
L 286.649754 204.768948 
L 287.735555 212.683505 
L 288.821356 198.181666 
L 289.907157 194.097469 
L 290.992958 187.529749 
L 292.07876 200.788984 
L 293.164561 200.127481 
L 294.250362 189.08219 
L 295.336163 190.128006 
L 296.421964 179.642372 
L 297.507765 217.054362 
L 298.593566 188.874217 
L 299.679368 207.329226 
L 300.765169 206.317447 
L 301.85097 189.748453 
L 302.936771 216.688428 
L 304.022572 234.832255 
L 305.108373 193.810547 
L 306.194175 206.842625 
L 307.279976 182.767716 
L 308.365777 222.940805 
L 309.451578 198.167405 
L 310.537379 205.351268 
L 311.62318 197.864674 
L 312.708981 187.034118 
L 313.794783 203.321509 
L 314.880584 212.466404 
L 315.966385 187.957937 
L 317.052186 210.303749 
L 318.137987 221.607323 
L 319.223788 203.943794 
L 320.30959 193.213584 
L 323.566993 225.723767 
L 324.652794 207.022841 
L 325.738595 199.459129 
L 326.824396 184.003394 
L 327.910198 206.280728 
L 328.995999 198.468807 
L 330.0818 198.622208 
L 331.167601 197.210784 
L 332.253402 210.445279 
L 333.339203 193.864671 
L 334.425005 187.259451 
L 335.510806 182.005747 
L 336.596607 216.23566 
L 337.682408 196.465756 
L 338.768209 227.249299 
L 339.85401 188.260618 
L 340.939811 199.729807 
L 342.025613 172.376979 
L 343.111414 185.140316 
L 344.197215 178.495345 
L 345.283016 215.106569 
L 346.368817 205.575506 
L 347.454618 181.028722 
L 348.54042 228.344111 
L 349.626221 215.832925 
L 350.712022 214.089351 
L 351.797823 190.334395 
L 352.883624 178.779452 
L 353.969425 203.201701 
L 355.055227 191.400233 
L 356.141028 187.477621 
L 357.226829 197.854415 
L 358.31263 236.751832 
L 360.484232 185.482184 
L 361.570033 192.578853 
L 362.655835 216.714306 
L 363.741636 203.523486 
L 364.827437 186.085402 
L 365.913238 216.290046 
L 366.999039 219.146718 
L 368.08484 251.402557 
L 369.170642 195.198361 
L 370.256443 217.190328 
L 371.342244 218.964447 
L 372.428045 203.402017 
L 373.513846 201.617945 
L 374.599647 226.886141 
L 375.685448 213.595547 
L 376.77125 217.308661 
L 377.857051 221.728746 
L 380.028653 237.491654 
L 381.114454 202.012541 
L 382.200255 196.440522 
L 383.286057 227.667213 
L 384.371858 210.622208 
L 385.457659 201.427598 
L 386.54346 206.2155 
L 387.629261 223.371932 
L 388.715062 220.910675 
L 389.800863 213.017464 
L 390.886665 221.360125 
L 393.058267 249.697742 
L 394.144068 249.886894 
L 395.229869 225.302925 
L 396.31567 242.004991 
L 397.401472 244.807999 
L 398.487273 231.764175 
L 398.487273 231.764175 
" style="fill:none;stroke:#008000;stroke-dasharray:9.6,2.4,1.5,2.4;stroke-dashoffset:0;stroke-width:1.5;"/>
   </g>
   <g id="line2d_35">
    <path clip-path="url(#p03907c453b)" d="M 73.832727 288.43056 
L 74.918528 243.244408 
L 76.00433 229.814047 
L 77.090131 251.052288 
L 78.175932 234.298189 
L 79.261733 226.421756 
L 80.347534 223.122571 
L 81.433335 212.883672 
L 82.519137 213.081455 
L 83.604938 198.296279 
L 84.690739 203.346041 
L 85.77654 198.273976 
L 86.862341 191.290939 
L 87.948142 182.882512 
L 89.033943 182.229442 
L 90.119745 166.413519 
L 91.205546 185.105382 
L 92.291347 181.609657 
L 93.377148 183.409805 
L 94.462949 150.610175 
L 95.54875 132.264506 
L 96.634552 125.310567 
L 97.720353 115.64441 
L 98.806154 118.660413 
L 99.891955 138.344009 
L 100.977756 124.230543 
L 102.063557 127.334683 
L 103.149358 128.227483 
L 104.23516 111.528906 
L 105.320961 101.647555 
L 106.406762 79.966658 
L 107.492563 119.675544 
L 108.578364 77.691072 
L 109.664165 96.49222 
L 110.749967 102.731801 
L 111.835768 119.69141 
L 112.921569 93.934649 
L 114.00737 86.072277 
L 115.093171 106.701092 
L 116.178972 79.856002 
L 117.264773 102.026043 
L 118.350575 117.507107 
L 119.436376 104.754093 
L 120.522177 127.953208 
L 121.607978 132.598429 
L 122.693779 135.971707 
L 123.77958 96.106371 
L 124.865382 97.92235 
L 125.951183 96.072493 
L 127.036984 103.521122 
L 128.122785 90.359582 
L 129.208586 125.71043 
L 130.294387 139.683165 
L 131.380189 113.509663 
L 132.46599 131.91649 
L 133.551791 138.27816 
L 134.637592 79.395357 
L 135.723393 146.619223 
L 136.809194 110.106448 
L 137.894995 112.968747 
L 138.980797 108.584509 
L 140.066598 80.53103 
L 141.152399 73.541319 
L 142.2382 135.862349 
L 143.324001 138.620912 
L 144.409802 106.474298 
L 145.495604 108.624252 
L 146.581405 79.059785 
L 147.667206 110.634398 
L 148.753007 120.793626 
L 149.838808 109.817618 
L 150.924609 103.682145 
L 152.01041 140.979444 
L 153.096212 155.864116 
L 154.182013 133.073123 
L 156.353615 63.85059 
L 157.439416 82.660211 
L 158.525217 80.938594 
L 159.611019 105.950953 
L 160.69682 83.990282 
L 161.782621 96.393646 
L 162.868422 117.659178 
L 163.954223 95.631373 
L 165.040024 110.56726 
L 166.125825 89.082844 
L 167.211627 82.310733 
L 168.297428 104.987845 
L 169.383229 119.865576 
L 170.46903 96.934441 
L 171.554831 103.227677 
L 172.640632 90.283339 
L 173.726434 69.635483 
L 174.812235 76.230951 
L 175.898036 98.277297 
L 176.983837 96.139885 
L 178.069638 128.26183 
L 179.155439 110.222519 
L 180.24124 122.089891 
L 181.327042 106.808691 
L 182.412843 73.787572 
L 183.498644 82.440479 
L 184.584445 102.940299 
L 185.670246 117.023218 
L 186.756047 86.415409 
L 187.841849 132.163274 
L 188.92765 147.169635 
L 190.013451 109.980675 
L 191.099252 94.44329 
L 192.185053 96.472712 
L 193.270854 94.983687 
L 194.356656 98.602147 
L 195.442457 73.424275 
L 196.528258 81.549649 
L 197.614059 91.991846 
L 198.69986 96.630832 
L 199.785661 111.340178 
L 200.871462 133.449095 
L 201.957264 91.269175 
L 203.043065 90.703979 
L 204.128866 73.657304 
L 205.214667 105.930988 
L 206.300468 86.707115 
L 207.386269 100.169628 
L 208.472071 142.78445 
L 209.557872 138.911247 
L 210.643673 134.446037 
L 211.729474 127.754169 
L 212.815275 130.643152 
L 213.901076 134.717689 
L 214.986877 139.883003 
L 216.072679 151.507401 
L 217.15848 115.602107 
L 218.244281 125.870423 
L 219.330082 122.102151 
L 220.415883 114.577046 
L 221.501684 144.877161 
L 223.673287 91.767098 
L 224.759088 102.78135 
L 225.844889 142.169994 
L 226.93069 130.137269 
L 228.016491 127.523267 
L 229.102292 109.387698 
L 230.188094 105.397292 
L 231.273895 107.735923 
L 232.359696 120.802993 
L 233.445497 116.271285 
L 234.531298 95.919465 
L 235.617099 94.903544 
L 236.702901 98.618051 
L 237.788702 121.088906 
L 238.874503 129.374825 
L 241.046105 88.407057 
L 242.131906 110.790185 
L 243.217708 115.042006 
L 244.303509 79.166528 
L 245.38931 104.298184 
L 246.475111 98.865001 
L 247.560912 91.654478 
L 248.646713 70.764214 
L 249.732514 79.399178 
L 250.818316 74.882592 
L 251.904117 110.406981 
L 252.989918 71.480539 
L 254.075719 71.070068 
L 255.16152 72.554026 
L 256.247321 86.055932 
L 257.333123 126.239624 
L 258.418924 84.537541 
L 259.504725 100.186912 
L 260.590526 83.974625 
L 261.676327 79.818619 
L 262.762128 134.973068 
L 263.847929 121.06603 
L 264.933731 77.145152 
L 266.019532 105.631088 
L 267.105333 91.111921 
L 268.191134 111.143226 
L 269.276935 64.304568 
L 270.362736 98.122131 
L 271.448538 89.057228 
L 272.534339 95.455199 
L 273.62014 82.753717 
L 274.705941 92.390124 
L 275.791742 96.181706 
L 276.877543 80.89863 
L 277.963344 118.355591 
L 279.049146 102.352864 
L 280.134947 77.735682 
L 281.220748 106.738446 
L 282.306549 104.424661 
L 284.478151 120.058964 
L 285.563953 93.924384 
L 286.649754 93.37662 
L 287.735555 137.088603 
L 288.821356 100.598218 
L 289.907157 107.747284 
L 290.992958 107.999735 
L 292.07876 109.052055 
L 293.164561 98.250607 
L 294.250362 100.094973 
L 295.336163 79.437885 
L 296.421964 114.191653 
L 297.507765 122.932839 
L 298.593566 80.259826 
L 299.679368 84.469061 
L 300.765169 129.105844 
L 301.85097 88.15524 
L 302.936771 149.548941 
L 304.022572 151.807086 
L 305.108373 122.883141 
L 306.194175 104.672198 
L 307.279976 107.409325 
L 308.365777 121.317049 
L 309.451578 114.343784 
L 310.537379 124.619835 
L 311.62318 109.508862 
L 312.708981 98.348068 
L 313.794783 133.640272 
L 314.880584 137.183409 
L 315.966385 100.594913 
L 317.052186 125.627198 
L 318.137987 107.776806 
L 319.223788 109.345795 
L 320.30959 116.125502 
L 321.395391 111.7963 
L 322.481192 109.512684 
L 323.566993 137.571388 
L 324.652794 132.576802 
L 325.738595 123.577526 
L 326.824396 98.378069 
L 327.910198 127.64768 
L 328.995999 111.476562 
L 330.0818 131.889225 
L 331.167601 140.422243 
L 332.253402 135.599448 
L 333.339203 107.303785 
L 334.425005 84.913727 
L 335.510806 102.294447 
L 336.596607 109.608616 
L 337.682408 102.645854 
L 338.768209 130.420733 
L 339.85401 96.095473 
L 340.939811 111.978912 
L 342.025613 93.789408 
L 343.111414 108.985142 
L 344.197215 85.836781 
L 345.283016 138.45575 
L 346.368817 135.507003 
L 347.454618 99.415224 
L 348.54042 148.438047 
L 349.626221 114.951928 
L 350.712022 89.299505 
L 351.797823 94.401189 
L 352.883624 100.232196 
L 353.969425 98.741415 
L 355.055227 92.923711 
L 356.141028 108.953935 
L 357.226829 107.339637 
L 358.31263 144.492042 
L 359.398431 109.063496 
L 360.484232 92.073729 
L 361.570033 104.103298 
L 362.655835 105.434376 
L 363.741636 85.267366 
L 364.827437 91.595667 
L 365.913238 116.961618 
L 366.999039 123.067509 
L 368.08484 149.952248 
L 369.170642 98.066664 
L 370.256443 137.04249 
L 371.342244 140.483681 
L 372.428045 129.450933 
L 373.513846 109.090747 
L 374.599647 148.456979 
L 375.685448 132.3759 
L 376.77125 128.652388 
L 377.857051 129.66941 
L 378.942852 139.140861 
L 380.028653 155.108386 
L 381.114454 112.133527 
L 382.200255 111.795931 
L 383.286057 117.004355 
L 384.371858 115.829894 
L 385.457659 103.075082 
L 386.54346 123.556584 
L 387.629261 149.310563 
L 388.715062 136.348288 
L 389.800863 126.192205 
L 390.886665 118.331765 
L 391.972466 143.757674 
L 393.058267 139.620103 
L 394.144068 164.082631 
L 395.229869 141.331148 
L 396.31567 161.302561 
L 397.401472 128.927598 
L 398.487273 140.665911 
L 398.487273 140.665911 
" style="fill:none;stroke:#008000;stroke-dasharray:9.6,2.4,1.5,2.4;stroke-dashoffset:0;stroke-width:1.5;"/>
   </g>
   <g id="line2d_36">
    <path clip-path="url(#p03907c453b)" d="M 73.832727 285.689234 
L 74.918528 238.840938 
L 76.00433 222.488564 
L 77.090131 244.803298 
L 78.175932 227.389795 
L 79.261733 212.574827 
L 80.347534 212.141951 
L 81.433335 201.115085 
L 82.519137 207.505694 
L 83.604938 190.122984 
L 84.690739 189.757674 
L 85.77654 188.7151 
L 86.862341 189.644437 
L 87.948142 184.729266 
L 89.033943 181.13049 
L 90.119745 158.119684 
L 91.205546 171.7935 
L 92.291347 160.574298 
L 93.377148 156.42438 
L 94.462949 137.122284 
L 95.54875 113.794105 
L 96.634552 114.835119 
L 97.720353 114.857466 
L 98.806154 105.971319 
L 99.891955 129.994288 
L 100.977756 113.514608 
L 102.063557 114.695191 
L 103.149358 118.646224 
L 104.23516 106.858259 
L 105.320961 98.987368 
L 106.406762 75.510873 
L 107.492563 119.355936 
L 108.578364 79.500211 
L 109.664165 93.984797 
L 110.749967 98.616623 
L 111.835768 97.966874 
L 112.921569 65.56139 
L 114.00737 76.679373 
L 115.093171 95.630914 
L 116.178972 73.012441 
L 117.264773 94.87783 
L 118.350575 124.480641 
L 119.436376 111.029312 
L 120.522177 123.107755 
L 121.607978 122.157378 
L 122.693779 126.441825 
L 123.77958 90.550608 
L 124.865382 90.175767 
L 125.951183 99.393078 
L 127.036984 104.114715 
L 128.122785 80.169107 
L 129.208586 116.837864 
L 130.294387 133.886969 
L 131.380189 102.052402 
L 132.46599 131.758063 
L 133.551791 131.628325 
L 134.637592 85.619029 
L 135.723393 143.664053 
L 136.809194 106.986562 
L 137.894995 109.568095 
L 138.980797 113.534821 
L 140.066598 89.599249 
L 141.152399 87.61636 
L 142.2382 137.020062 
L 143.324001 137.966087 
L 144.409802 115.290325 
L 145.495604 100.847809 
L 146.581405 61.821507 
L 147.667206 109.958042 
L 148.753007 125.600172 
L 149.838808 99.527294 
L 150.924609 98.902102 
L 152.01041 140.198454 
L 153.096212 144.547734 
L 154.182013 124.343984 
L 155.267814 100.279773 
L 156.353615 67.2014 
L 157.439416 78.560903 
L 158.525217 67.689419 
L 159.611019 87.213891 
L 160.69682 83.358656 
L 161.782621 100.746145 
L 162.868422 99.2303 
L 163.954223 81.004703 
L 165.040024 98.951661 
L 166.125825 71.498603 
L 167.211627 62.442338 
L 168.297428 79.805734 
L 169.383229 92.508229 
L 170.46903 86.782133 
L 171.554831 92.038824 
L 172.640632 74.490213 
L 173.726434 53.568 
L 174.812235 69.506122 
L 175.898036 74.138615 
L 176.983837 87.56963 
L 178.069638 118.861966 
L 179.155439 89.60544 
L 180.24124 104.608173 
L 182.412843 81.278477 
L 183.498644 84.641957 
L 184.584445 103.076936 
L 185.670246 115.147742 
L 186.756047 74.608594 
L 187.841849 114.297121 
L 188.92765 129.758645 
L 190.013451 99.851725 
L 191.099252 89.778547 
L 192.185053 92.2651 
L 193.270854 92.871469 
L 194.356656 95.91528 
L 195.442457 70.380583 
L 196.528258 89.747678 
L 197.614059 98.966361 
L 198.69986 90.614974 
L 200.871462 124.639478 
L 201.957264 100.749707 
L 203.043065 99.200669 
L 204.128866 76.364114 
L 205.214667 109.438408 
L 206.300468 73.336097 
L 207.386269 98.746083 
L 208.472071 130.978745 
L 209.557872 123.155241 
L 210.643673 113.784632 
L 211.729474 101.762584 
L 212.815275 117.708925 
L 213.901076 131.343093 
L 214.986877 141.213721 
L 216.072679 138.590713 
L 217.15848 106.592064 
L 218.244281 121.163776 
L 219.330082 119.135603 
L 220.415883 108.254555 
L 221.501684 118.142666 
L 222.587486 101.46002 
L 223.673287 80.12179 
L 224.759088 95.08563 
L 225.844889 120.836621 
L 226.93069 104.707412 
L 228.016491 116.565593 
L 229.102292 89.569536 
L 230.188094 96.717703 
L 231.273895 107.474127 
L 232.359696 119.395322 
L 233.445497 117.746936 
L 234.531298 93.318928 
L 235.617099 97.835328 
L 236.702901 103.798767 
L 237.788702 116.592121 
L 238.874503 122.210632 
L 239.960304 102.40314 
L 241.046105 98.427975 
L 242.131906 104.814673 
L 243.217708 111.865574 
L 244.303509 72.415342 
L 245.38931 91.026378 
L 246.475111 83.623136 
L 247.560912 90.480376 
L 248.646713 69.229989 
L 249.732514 85.92296 
L 250.818316 82.505778 
L 251.904117 103.054338 
L 252.989918 77.952935 
L 254.075719 77.968655 
L 255.16152 73.808894 
L 256.247321 82.932393 
L 257.333123 115.215783 
L 258.418924 81.687431 
L 259.504725 95.819629 
L 260.590526 83.194273 
L 261.676327 92.885001 
L 262.762128 129.818941 
L 263.847929 122.69276 
L 264.933731 76.608661 
L 266.019532 105.117068 
L 267.105333 88.1406 
L 268.191134 108.062488 
L 269.276935 58.53897 
L 270.362736 106.973319 
L 271.448538 96.930632 
L 272.534339 96.593702 
L 273.62014 85.403236 
L 274.705941 92.760388 
L 275.791742 103.491257 
L 276.877543 89.860949 
L 277.963344 116.714339 
L 279.049146 113.200101 
L 280.134947 82.924674 
L 281.220748 112.276686 
L 282.306549 98.393066 
L 283.39235 118.284541 
L 284.478151 107.821166 
L 286.649754 82.288404 
L 287.735555 126.920506 
L 288.821356 87.117305 
L 289.907157 95.237461 
L 290.992958 105.356787 
L 292.07876 108.982634 
L 293.164561 99.577846 
L 294.250362 99.749794 
L 295.336163 79.4542 
L 296.421964 114.023422 
L 297.507765 108.124791 
L 298.593566 87.285183 
L 299.679368 93.996188 
L 300.765169 131.25177 
L 301.85097 86.644768 
L 302.936771 151.945836 
L 304.022572 149.053925 
L 305.108373 119.423559 
L 306.194175 107.518746 
L 307.279976 116.057522 
L 308.365777 122.48193 
L 309.451578 110.631773 
L 310.537379 128.34614 
L 311.62318 102.865635 
L 312.708981 98.526923 
L 313.794783 131.684902 
L 314.880584 135.462359 
L 315.966385 101.26637 
L 317.052186 123.416525 
L 318.137987 118.708512 
L 319.223788 105.440039 
L 320.30959 119.541493 
L 322.481192 104.862516 
L 323.566993 131.425015 
L 324.652794 135.58674 
L 326.824396 107.477602 
L 327.910198 140.395978 
L 328.995999 120.031484 
L 330.0818 128.47067 
L 331.167601 139.601089 
L 332.253402 130.035152 
L 333.339203 112.097649 
L 334.425005 89.372479 
L 336.596607 112.976716 
L 337.682408 112.334407 
L 338.768209 123.436312 
L 339.85401 105.629649 
L 340.939811 120.16913 
L 342.025613 96.151907 
L 343.111414 117.054814 
L 344.197215 90.265281 
L 345.283016 140.107163 
L 346.368817 136.288183 
L 347.454618 108.067059 
L 348.54042 145.931243 
L 349.626221 110.627913 
L 350.712022 92.831096 
L 351.797823 96.523558 
L 352.883624 95.017391 
L 353.969425 91.599605 
L 355.055227 83.81416 
L 356.141028 82.605578 
L 357.226829 98.474958 
L 358.31263 117.422125 
L 359.398431 97.463372 
L 360.484232 83.331573 
L 361.570033 103.428738 
L 362.655835 90.371031 
L 363.741636 81.68046 
L 364.827437 83.739197 
L 365.913238 108.262942 
L 366.999039 115.406471 
L 368.08484 137.832312 
L 369.170642 90.718674 
L 370.256443 132.676134 
L 371.342244 137.543214 
L 372.428045 120.837231 
L 373.513846 95.810306 
L 374.599647 125.690248 
L 375.685448 117.9541 
L 376.77125 119.631774 
L 377.857051 116.932249 
L 378.942852 117.745388 
L 380.028653 136.905519 
L 381.114454 95.223931 
L 382.200255 106.983439 
L 383.286057 96.54554 
L 384.371858 87.681678 
L 385.457659 98.259042 
L 386.54346 116.068206 
L 387.629261 143.110467 
L 388.715062 132.668793 
L 389.800863 105.320022 
L 390.886665 100.298748 
L 391.972466 126.542513 
L 393.058267 118.24353 
L 394.144068 137.477265 
L 395.229869 114.029772 
L 396.31567 140.371933 
L 397.401472 109.872531 
L 398.487273 108.972982 
L 398.487273 108.972982 
" style="fill:none;stroke:#ff0000;stroke-linecap:square;stroke-width:1.5;"/>
   </g>
   <g id="patch_3">
    <path d="M 57.6 307.584 
L 57.6 41.472 
" style="fill:none;stroke:#000000;stroke-linecap:square;stroke-linejoin:miter;stroke-width:0.8;"/>
   </g>
   <g id="patch_4">
    <path d="M 414.72 307.584 
L 414.72 41.472 
" style="fill:none;stroke:#000000;stroke-linecap:square;stroke-linejoin:miter;stroke-width:0.8;"/>
   </g>
   <g id="patch_5">
    <path d="M 57.6 307.584 
L 414.72 307.584 
" style="fill:none;stroke:#000000;stroke-linecap:square;stroke-linejoin:miter;stroke-width:0.8;"/>
   </g>
   <g id="patch_6">
    <path d="M 57.6 41.472 
L 414.72 41.472 
" style="fill:none;stroke:#000000;stroke-linecap:square;stroke-linejoin:miter;stroke-width:0.8;"/>
   </g>
   <g id="text_19">
    <!-- Population's average and best fitness -->
    <defs>
     <path d="M 19.671875 64.796875 
L 19.671875 37.40625 
L 32.078125 37.40625 
Q 38.96875 37.40625 42.71875 40.96875 
Q 46.484375 44.53125 46.484375 51.125 
Q 46.484375 57.671875 42.71875 61.234375 
Q 38.96875 64.796875 32.078125 64.796875 
z
M 9.8125 72.90625 
L 32.078125 72.90625 
Q 44.34375 72.90625 50.609375 67.359375 
Q 56.890625 61.8125 56.890625 51.125 
Q 56.890625 40.328125 50.609375 34.8125 
Q 44.34375 29.296875 32.078125 29.296875 
L 19.671875 29.296875 
L 19.671875 0 
L 9.8125 0 
z
" id="DejaVuSans-80"/>
     <path d="M 18.109375 8.203125 
L 18.109375 -20.796875 
L 9.078125 -20.796875 
L 9.078125 54.6875 
L 18.109375 54.6875 
L 18.109375 46.390625 
Q 20.953125 51.265625 25.265625 53.625 
Q 29.59375 56 35.59375 56 
Q 45.5625 56 51.78125 48.09375 
Q 58.015625 40.1875 58.015625 27.296875 
Q 58.015625 14.40625 51.78125 6.484375 
Q 45.5625 -1.421875 35.59375 -1.421875 
Q 29.59375 -1.421875 25.265625 0.953125 
Q 20.953125 3.328125 18.109375 8.203125 
z
M 48.6875 27.296875 
Q 48.6875 37.203125 44.609375 42.84375 
Q 40.53125 48.484375 33.40625 48.484375 
Q 26.265625 48.484375 22.1875 42.84375 
Q 18.109375 37.203125 18.109375 27.296875 
Q 18.109375 17.390625 22.1875 11.75 
Q 26.265625 6.109375 33.40625 6.109375 
Q 40.53125 6.109375 44.609375 11.75 
Q 48.6875 17.390625 48.6875 27.296875 
z
" id="DejaVuSans-112"/>
     <path d="M 8.5 21.578125 
L 8.5 54.6875 
L 17.484375 54.6875 
L 17.484375 21.921875 
Q 17.484375 14.15625 20.5 10.265625 
Q 23.53125 6.390625 29.59375 6.390625 
Q 36.859375 6.390625 41.078125 11.03125 
Q 45.3125 15.671875 45.3125 23.6875 
L 45.3125 54.6875 
L 54.296875 54.6875 
L 54.296875 0 
L 45.3125 0 
L 45.3125 8.40625 
Q 42.046875 3.421875 37.71875 1 
Q 33.40625 -1.421875 27.6875 -1.421875 
Q 18.265625 -1.421875 13.375 4.4375 
Q 8.5 10.296875 8.5 21.578125 
z
M 31.109375 56 
z
" id="DejaVuSans-117"/>
     <path d="M 9.421875 75.984375 
L 18.40625 75.984375 
L 18.40625 0 
L 9.421875 0 
z
" id="DejaVuSans-108"/>
     <path d="M 17.921875 72.90625 
L 17.921875 45.796875 
L 9.625 45.796875 
L 9.625 72.90625 
z
" id="DejaVuSans-39"/>
     <path id="DejaVuSans-32"/>
     <path d="M 2.984375 54.6875 
L 12.5 54.6875 
L 29.59375 8.796875 
L 46.6875 54.6875 
L 56.203125 54.6875 
L 35.6875 0 
L 23.484375 0 
z
" id="DejaVuSans-118"/>
     <path d="M 45.40625 27.984375 
Q 45.40625 37.75 41.375 43.109375 
Q 37.359375 48.484375 30.078125 48.484375 
Q 22.859375 48.484375 18.828125 43.109375 
Q 14.796875 37.75 14.796875 27.984375 
Q 14.796875 18.265625 18.828125 12.890625 
Q 22.859375 7.515625 30.078125 7.515625 
Q 37.359375 7.515625 41.375 12.890625 
Q 45.40625 18.265625 45.40625 27.984375 
z
M 54.390625 6.78125 
Q 54.390625 -7.171875 48.1875 -13.984375 
Q 42 -20.796875 29.203125 -20.796875 
Q 24.46875 -20.796875 20.265625 -20.09375 
Q 16.0625 -19.390625 12.109375 -17.921875 
L 12.109375 -9.1875 
Q 16.0625 -11.328125 19.921875 -12.34375 
Q 23.78125 -13.375 27.78125 -13.375 
Q 36.625 -13.375 41.015625 -8.765625 
Q 45.40625 -4.15625 45.40625 5.171875 
L 45.40625 9.625 
Q 42.625 4.78125 38.28125 2.390625 
Q 33.9375 0 27.875 0 
Q 17.828125 0 11.671875 7.65625 
Q 5.515625 15.328125 5.515625 27.984375 
Q 5.515625 40.671875 11.671875 48.328125 
Q 17.828125 56 27.875 56 
Q 33.9375 56 38.28125 53.609375 
Q 42.625 51.21875 45.40625 46.390625 
L 45.40625 54.6875 
L 54.390625 54.6875 
z
" id="DejaVuSans-103"/>
     <path d="M 45.40625 46.390625 
L 45.40625 75.984375 
L 54.390625 75.984375 
L 54.390625 0 
L 45.40625 0 
L 45.40625 8.203125 
Q 42.578125 3.328125 38.25 0.953125 
Q 33.9375 -1.421875 27.875 -1.421875 
Q 17.96875 -1.421875 11.734375 6.484375 
Q 5.515625 14.40625 5.515625 27.296875 
Q 5.515625 40.1875 11.734375 48.09375 
Q 17.96875 56 27.875 56 
Q 33.9375 56 38.25 53.625 
Q 42.578125 51.265625 45.40625 46.390625 
z
M 14.796875 27.296875 
Q 14.796875 17.390625 18.875 11.75 
Q 22.953125 6.109375 30.078125 6.109375 
Q 37.203125 6.109375 41.296875 11.75 
Q 45.40625 17.390625 45.40625 27.296875 
Q 45.40625 37.203125 41.296875 42.84375 
Q 37.203125 48.484375 30.078125 48.484375 
Q 22.953125 48.484375 18.875 42.84375 
Q 14.796875 37.203125 14.796875 27.296875 
z
" id="DejaVuSans-100"/>
     <path d="M 48.6875 27.296875 
Q 48.6875 37.203125 44.609375 42.84375 
Q 40.53125 48.484375 33.40625 48.484375 
Q 26.265625 48.484375 22.1875 42.84375 
Q 18.109375 37.203125 18.109375 27.296875 
Q 18.109375 17.390625 22.1875 11.75 
Q 26.265625 6.109375 33.40625 6.109375 
Q 40.53125 6.109375 44.609375 11.75 
Q 48.6875 17.390625 48.6875 27.296875 
z
M 18.109375 46.390625 
Q 20.953125 51.265625 25.265625 53.625 
Q 29.59375 56 35.59375 56 
Q 45.5625 56 51.78125 48.09375 
Q 58.015625 40.1875 58.015625 27.296875 
Q 58.015625 14.40625 51.78125 6.484375 
Q 45.5625 -1.421875 35.59375 -1.421875 
Q 29.59375 -1.421875 25.265625 0.953125 
Q 20.953125 3.328125 18.109375 8.203125 
L 18.109375 0 
L 9.078125 0 
L 9.078125 75.984375 
L 18.109375 75.984375 
z
" id="DejaVuSans-98"/>
     <path d="M 37.109375 75.984375 
L 37.109375 68.5 
L 28.515625 68.5 
Q 23.6875 68.5 21.796875 66.546875 
Q 19.921875 64.59375 19.921875 59.515625 
L 19.921875 54.6875 
L 34.71875 54.6875 
L 34.71875 47.703125 
L 19.921875 47.703125 
L 19.921875 0 
L 10.890625 0 
L 10.890625 47.703125 
L 2.296875 47.703125 
L 2.296875 54.6875 
L 10.890625 54.6875 
L 10.890625 58.5 
Q 10.890625 67.625 15.140625 71.796875 
Q 19.390625 75.984375 28.609375 75.984375 
z
" id="DejaVuSans-102"/>
    </defs>
    <g transform="translate(123.315 35.472)scale(0.12 -0.12)">
     <use xlink:href="#DejaVuSans-80"/>
     <use x="60.255859" xlink:href="#DejaVuSans-111"/>
     <use x="121.4375" xlink:href="#DejaVuSans-112"/>
     <use x="184.914062" xlink:href="#DejaVuSans-117"/>
     <use x="248.292969" xlink:href="#DejaVuSans-108"/>
     <use x="276.076172" xlink:href="#DejaVuSans-97"/>
     <use x="337.355469" xlink:href="#DejaVuSans-116"/>
     <use x="376.564453" xlink:href="#DejaVuSans-105"/>
     <use x="404.347656" xlink:href="#DejaVuSans-111"/>
     <use x="465.529297" xlink:href="#DejaVuSans-110"/>
     <use x="528.908203" xlink:href="#DejaVuSans-39"/>
     <use x="556.398438" xlink:href="#DejaVuSans-115"/>
     <use x="608.498047" xlink:href="#DejaVuSans-32"/>
     <use x="640.285156" xlink:href="#DejaVuSans-97"/>
     <use x="701.564453" xlink:href="#DejaVuSans-118"/>
     <use x="760.744141" xlink:href="#DejaVuSans-101"/>
     <use x="822.267578" xlink:href="#DejaVuSans-114"/>
     <use x="863.380859" xlink:href="#DejaVuSans-97"/>
     <use x="924.660156" xlink:href="#DejaVuSans-103"/>
     <use x="988.136719" xlink:href="#DejaVuSans-101"/>
     <use x="1049.660156" xlink:href="#DejaVuSans-32"/>
     <use x="1081.447266" xlink:href="#DejaVuSans-97"/>
     <use x="1142.726562" xlink:href="#DejaVuSans-110"/>
     <use x="1206.105469" xlink:href="#DejaVuSans-100"/>
     <use x="1269.582031" xlink:href="#DejaVuSans-32"/>
     <use x="1301.369141" xlink:href="#DejaVuSans-98"/>
     <use x="1364.845703" xlink:href="#DejaVuSans-101"/>
     <use x="1426.369141" xlink:href="#DejaVuSans-115"/>
     <use x="1478.46875" xlink:href="#DejaVuSans-116"/>
     <use x="1517.677734" xlink:href="#DejaVuSans-32"/>
     <use x="1549.464844" xlink:href="#DejaVuSans-102"/>
     <use x="1584.669922" xlink:href="#DejaVuSans-105"/>
     <use x="1612.453125" xlink:href="#DejaVuSans-116"/>
     <use x="1651.662109" xlink:href="#DejaVuSans-110"/>
     <use x="1715.041016" xlink:href="#DejaVuSans-101"/>
     <use x="1776.564453" xlink:href="#DejaVuSans-115"/>
     <use x="1828.664062" xlink:href="#DejaVuSans-115"/>
    </g>
   </g>
   <g id="legend_1">
    <g id="patch_7">
     <path d="M 199.689687 302.584 
L 272.630313 302.584 
Q 274.630313 302.584 274.630313 300.584 
L 274.630313 242.8715 
Q 274.630313 240.8715 272.630313 240.8715 
L 199.689687 240.8715 
Q 197.689687 240.8715 197.689687 242.8715 
L 197.689687 300.584 
Q 197.689687 302.584 199.689687 302.584 
z
" style="fill:#ffffff;opacity:0.8;stroke:#cccccc;stroke-linejoin:miter;"/>
    </g>
    <g id="line2d_37">
     <path d="M 201.689687 248.969937 
L 221.689687 248.969937 
" style="fill:none;stroke:#0000ff;stroke-linecap:square;stroke-width:1.5;"/>
    </g>
    <g id="line2d_38"/>
    <g id="text_20">
     <!-- average -->
     <g transform="translate(229.689687 252.469937)scale(0.1 -0.1)">
      <use xlink:href="#DejaVuSans-97"/>
      <use x="61.279297" xlink:href="#DejaVuSans-118"/>
      <use x="120.458984" xlink:href="#DejaVuSans-101"/>
      <use x="181.982422" xlink:href="#DejaVuSans-114"/>
      <use x="223.095703" xlink:href="#DejaVuSans-97"/>
      <use x="284.375" xlink:href="#DejaVuSans-103"/>
      <use x="347.851562" xlink:href="#DejaVuSans-101"/>
     </g>
    </g>
    <g id="line2d_39">
     <path d="M 201.689687 263.648062 
L 221.689687 263.648062 
" style="fill:none;stroke:#008000;stroke-dasharray:9.6,2.4,1.5,2.4;stroke-dashoffset:0;stroke-width:1.5;"/>
    </g>
    <g id="line2d_40"/>
    <g id="text_21">
     <!-- -1 sd -->
     <defs>
      <path d="M 4.890625 31.390625 
L 31.203125 31.390625 
L 31.203125 23.390625 
L 4.890625 23.390625 
z
" id="DejaVuSans-45"/>
     </defs>
     <g transform="translate(229.689687 267.148062)scale(0.1 -0.1)">
      <use xlink:href="#DejaVuSans-45"/>
      <use x="36.083984" xlink:href="#DejaVuSans-49"/>
      <use x="99.707031" xlink:href="#DejaVuSans-32"/>
      <use x="131.494141" xlink:href="#DejaVuSans-115"/>
      <use x="183.59375" xlink:href="#DejaVuSans-100"/>
     </g>
    </g>
    <g id="line2d_41">
     <path d="M 201.689687 278.326187 
L 221.689687 278.326187 
" style="fill:none;stroke:#008000;stroke-dasharray:9.6,2.4,1.5,2.4;stroke-dashoffset:0;stroke-width:1.5;"/>
    </g>
    <g id="line2d_42"/>
    <g id="text_22">
     <!-- +1 sd -->
     <defs>
      <path d="M 46 62.703125 
L 46 35.5 
L 73.1875 35.5 
L 73.1875 27.203125 
L 46 27.203125 
L 46 0 
L 37.796875 0 
L 37.796875 27.203125 
L 10.59375 27.203125 
L 10.59375 35.5 
L 37.796875 35.5 
L 37.796875 62.703125 
z
" id="DejaVuSans-43"/>
     </defs>
     <g transform="translate(229.689687 281.826187)scale(0.1 -0.1)">
      <use xlink:href="#DejaVuSans-43"/>
      <use x="83.789062" xlink:href="#DejaVuSans-49"/>
      <use x="147.412109" xlink:href="#DejaVuSans-32"/>
      <use x="179.199219" xlink:href="#DejaVuSans-115"/>
      <use x="231.298828" xlink:href="#DejaVuSans-100"/>
     </g>
    </g>
    <g id="line2d_43">
     <path d="M 201.689687 293.004312 
L 221.689687 293.004312 
" style="fill:none;stroke:#ff0000;stroke-linecap:square;stroke-width:1.5;"/>
    </g>
    <g id="line2d_44"/>
    <g id="text_23">
     <!-- best -->
     <g transform="translate(229.689687 296.504312)scale(0.1 -0.1)">
      <use xlink:href="#DejaVuSans-98"/>
      <use x="63.476562" xlink:href="#DejaVuSans-101"/>
      <use x="125" xlink:href="#DejaVuSans-115"/>
      <use x="177.099609" xlink:href="#DejaVuSans-116"/>
     </g>
    </g>
   </g>
  </g>
 </g>
 <defs>
  <clipPath id="p03907c453b">
   <rect height="266.112" width="357.12" x="57.6" y="41.472"/>
  </clipPath>
 </defs>
</svg>
