<?xml version="1.0" encoding="utf-8" standalone="no"?>
<!DOCTYPE svg PUBLIC "-//W3C//DTD SVG 1.1//EN"
  "http://www.w3.org/Graphics/SVG/1.1/DTD/svg11.dtd">
<!-- Created with matplotlib (https://matplotlib.org/) -->
<svg height="345.6pt" version="1.1" viewBox="0 0 460.8 345.6" width="460.8pt" xmlns="http://www.w3.org/2000/svg" xmlns:xlink="http://www.w3.org/1999/xlink">
 <defs>
  <style type="text/css">
*{stroke-linecap:butt;stroke-linejoin:round;}
  </style>
 </defs>
 <g id="figure_1">
  <g id="patch_1">
   <path d="M 0 345.6 
L 460.8 345.6 
L 460.8 0 
L 0 0 
z
" style="fill:#ffffff;"/>
  </g>
  <g id="axes_1">
   <g id="patch_2">
    <path d="M 57.6 307.584 
L 414.72 307.584 
L 414.72 41.472 
L 57.6 41.472 
z
" style="fill:#ffffff;"/>
   </g>
   <g id="matplotlib.axis_1">
    <g id="xtick_1">
     <g id="line2d_1">
      <path clip-path="url(#p9927a0b49e)" d="M 73.832727 307.584 
L 73.832727 41.472 
" style="fill:none;stroke:#b0b0b0;stroke-linecap:square;stroke-width:0.8;"/>
     </g>
     <g id="line2d_2">
      <defs>
       <path d="M 0 0 
L 0 3.5 
" id="m917f862b59" style="stroke:#000000;stroke-width:0.8;"/>
      </defs>
      <g>
       <use style="stroke:#000000;stroke-width:0.8;" x="73.832727" xlink:href="#m917f862b59" y="307.584"/>
      </g>
     </g>
     <g id="text_1">
      <!-- 0 -->
      <defs>
       <path d="M 31.78125 66.40625 
Q 24.171875 66.40625 20.328125 58.90625 
Q 16.5 51.421875 16.5 36.375 
Q 16.5 21.390625 20.328125 13.890625 
Q 24.171875 6.390625 31.78125 6.390625 
Q 39.453125 6.390625 43.28125 13.890625 
Q 47.125 21.390625 47.125 36.375 
Q 47.125 51.421875 43.28125 58.90625 
Q 39.453125 66.40625 31.78125 66.40625 
z
M 31.78125 74.21875 
Q 44.046875 74.21875 50.515625 64.515625 
Q 56.984375 54.828125 56.984375 36.375 
Q 56.984375 17.96875 50.515625 8.265625 
Q 44.046875 -1.421875 31.78125 -1.421875 
Q 19.53125 -1.421875 13.0625 8.265625 
Q 6.59375 17.96875 6.59375 36.375 
Q 6.59375 54.828125 13.0625 64.515625 
Q 19.53125 74.21875 31.78125 74.21875 
z
" id="DejaVuSans-48"/>
      </defs>
      <g transform="translate(70.651477 322.182437)scale(0.1 -0.1)">
       <use xlink:href="#DejaVuSans-48"/>
      </g>
     </g>
    </g>
    <g id="xtick_2">
     <g id="line2d_3">
      <path clip-path="url(#p9927a0b49e)" d="M 128.122785 307.584 
L 128.122785 41.472 
" style="fill:none;stroke:#b0b0b0;stroke-linecap:square;stroke-width:0.8;"/>
     </g>
     <g id="line2d_4">
      <g>
       <use style="stroke:#000000;stroke-width:0.8;" x="128.122785" xlink:href="#m917f862b59" y="307.584"/>
      </g>
     </g>
     <g id="text_2">
      <!-- 50 -->
      <defs>
       <path d="M 10.796875 72.90625 
L 49.515625 72.90625 
L 49.515625 64.59375 
L 19.828125 64.59375 
L 19.828125 46.734375 
Q 21.96875 47.46875 24.109375 47.828125 
Q 26.265625 48.1875 28.421875 48.1875 
Q 40.625 48.1875 47.75 41.5 
Q 54.890625 34.8125 54.890625 23.390625 
Q 54.890625 11.625 47.5625 5.09375 
Q 40.234375 -1.421875 26.90625 -1.421875 
Q 22.3125 -1.421875 17.546875 -0.640625 
Q 12.796875 0.140625 7.71875 1.703125 
L 7.71875 11.625 
Q 12.109375 9.234375 16.796875 8.0625 
Q 21.484375 6.890625 26.703125 6.890625 
Q 35.15625 6.890625 40.078125 11.328125 
Q 45.015625 15.765625 45.015625 23.390625 
Q 45.015625 31 40.078125 35.4375 
Q 35.15625 39.890625 26.703125 39.890625 
Q 22.75 39.890625 18.8125 39.015625 
Q 14.890625 38.140625 10.796875 36.28125 
z
" id="DejaVuSans-53"/>
      </defs>
      <g transform="translate(121.760285 322.182437)scale(0.1 -0.1)">
       <use xlink:href="#DejaVuSans-53"/>
       <use x="63.623047" xlink:href="#DejaVuSans-48"/>
      </g>
     </g>
    </g>
    <g id="xtick_3">
     <g id="line2d_5">
      <path clip-path="url(#p9927a0b49e)" d="M 182.412843 307.584 
L 182.412843 41.472 
" style="fill:none;stroke:#b0b0b0;stroke-linecap:square;stroke-width:0.8;"/>
     </g>
     <g id="line2d_6">
      <g>
       <use style="stroke:#000000;stroke-width:0.8;" x="182.412843" xlink:href="#m917f862b59" y="307.584"/>
      </g>
     </g>
     <g id="text_3">
      <!-- 100 -->
      <defs>
       <path d="M 12.40625 8.296875 
L 28.515625 8.296875 
L 28.515625 63.921875 
L 10.984375 60.40625 
L 10.984375 69.390625 
L 28.421875 72.90625 
L 38.28125 72.90625 
L 38.28125 8.296875 
L 54.390625 8.296875 
L 54.390625 0 
L 12.40625 0 
z
" id="DejaVuSans-49"/>
      </defs>
      <g transform="translate(172.869093 322.182437)scale(0.1 -0.1)">
       <use xlink:href="#DejaVuSans-49"/>
       <use x="63.623047" xlink:href="#DejaVuSans-48"/>
       <use x="127.246094" xlink:href="#DejaVuSans-48"/>
      </g>
     </g>
    </g>
    <g id="xtick_4">
     <g id="line2d_7">
      <path clip-path="url(#p9927a0b49e)" d="M 236.702901 307.584 
L 236.702901 41.472 
" style="fill:none;stroke:#b0b0b0;stroke-linecap:square;stroke-width:0.8;"/>
     </g>
     <g id="line2d_8">
      <g>
       <use style="stroke:#000000;stroke-width:0.8;" x="236.702901" xlink:href="#m917f862b59" y="307.584"/>
      </g>
     </g>
     <g id="text_4">
      <!-- 150 -->
      <g transform="translate(227.159151 322.182437)scale(0.1 -0.1)">
       <use xlink:href="#DejaVuSans-49"/>
       <use x="63.623047" xlink:href="#DejaVuSans-53"/>
       <use x="127.246094" xlink:href="#DejaVuSans-48"/>
      </g>
     </g>
    </g>
    <g id="xtick_5">
     <g id="line2d_9">
      <path clip-path="url(#p9927a0b49e)" d="M 290.992958 307.584 
L 290.992958 41.472 
" style="fill:none;stroke:#b0b0b0;stroke-linecap:square;stroke-width:0.8;"/>
     </g>
     <g id="line2d_10">
      <g>
       <use style="stroke:#000000;stroke-width:0.8;" x="290.992958" xlink:href="#m917f862b59" y="307.584"/>
      </g>
     </g>
     <g id="text_5">
      <!-- 200 -->
      <defs>
       <path d="M 19.1875 8.296875 
L 53.609375 8.296875 
L 53.609375 0 
L 7.328125 0 
L 7.328125 8.296875 
Q 12.9375 14.109375 22.625 23.890625 
Q 32.328125 33.6875 34.8125 36.53125 
Q 39.546875 41.84375 41.421875 45.53125 
Q 43.3125 49.21875 43.3125 52.78125 
Q 43.3125 58.59375 39.234375 62.25 
Q 35.15625 65.921875 28.609375 65.921875 
Q 23.96875 65.921875 18.8125 64.3125 
Q 13.671875 62.703125 7.8125 59.421875 
L 7.8125 69.390625 
Q 13.765625 71.78125 18.9375 73 
Q 24.125 74.21875 28.421875 74.21875 
Q 39.75 74.21875 46.484375 68.546875 
Q 53.21875 62.890625 53.21875 53.421875 
Q 53.21875 48.921875 51.53125 44.890625 
Q 49.859375 40.875 45.40625 35.40625 
Q 44.1875 33.984375 37.640625 27.21875 
Q 31.109375 20.453125 19.1875 8.296875 
z
" id="DejaVuSans-50"/>
      </defs>
      <g transform="translate(281.449208 322.182437)scale(0.1 -0.1)">
       <use xlink:href="#DejaVuSans-50"/>
       <use x="63.623047" xlink:href="#DejaVuSans-48"/>
       <use x="127.246094" xlink:href="#DejaVuSans-48"/>
      </g>
     </g>
    </g>
    <g id="xtick_6">
     <g id="line2d_11">
      <path clip-path="url(#p9927a0b49e)" d="M 345.283016 307.584 
L 345.283016 41.472 
" style="fill:none;stroke:#b0b0b0;stroke-linecap:square;stroke-width:0.8;"/>
     </g>
     <g id="line2d_12">
      <g>
       <use style="stroke:#000000;stroke-width:0.8;" x="345.283016" xlink:href="#m917f862b59" y="307.584"/>
      </g>
     </g>
     <g id="text_6">
      <!-- 250 -->
      <g transform="translate(335.739266 322.182437)scale(0.1 -0.1)">
       <use xlink:href="#DejaVuSans-50"/>
       <use x="63.623047" xlink:href="#DejaVuSans-53"/>
       <use x="127.246094" xlink:href="#DejaVuSans-48"/>
      </g>
     </g>
    </g>
    <g id="xtick_7">
     <g id="line2d_13">
      <path clip-path="url(#p9927a0b49e)" d="M 399.573074 307.584 
L 399.573074 41.472 
" style="fill:none;stroke:#b0b0b0;stroke-linecap:square;stroke-width:0.8;"/>
     </g>
     <g id="line2d_14">
      <g>
       <use style="stroke:#000000;stroke-width:0.8;" x="399.573074" xlink:href="#m917f862b59" y="307.584"/>
      </g>
     </g>
     <g id="text_7">
      <!-- 300 -->
      <defs>
       <path d="M 40.578125 39.3125 
Q 47.65625 37.796875 51.625 33 
Q 55.609375 28.21875 55.609375 21.1875 
Q 55.609375 10.40625 48.1875 4.484375 
Q 40.765625 -1.421875 27.09375 -1.421875 
Q 22.515625 -1.421875 17.65625 -0.515625 
Q 12.796875 0.390625 7.625 2.203125 
L 7.625 11.71875 
Q 11.71875 9.328125 16.59375 8.109375 
Q 21.484375 6.890625 26.8125 6.890625 
Q 36.078125 6.890625 40.9375 10.546875 
Q 45.796875 14.203125 45.796875 21.1875 
Q 45.796875 27.640625 41.28125 31.265625 
Q 36.765625 34.90625 28.71875 34.90625 
L 20.21875 34.90625 
L 20.21875 43.015625 
L 29.109375 43.015625 
Q 36.375 43.015625 40.234375 45.921875 
Q 44.09375 48.828125 44.09375 54.296875 
Q 44.09375 59.90625 40.109375 62.90625 
Q 36.140625 65.921875 28.71875 65.921875 
Q 24.65625 65.921875 20.015625 65.03125 
Q 15.375 64.15625 9.8125 62.3125 
L 9.8125 71.09375 
Q 15.4375 72.65625 20.34375 73.4375 
Q 25.25 74.21875 29.59375 74.21875 
Q 40.828125 74.21875 47.359375 69.109375 
Q 53.90625 64.015625 53.90625 55.328125 
Q 53.90625 49.265625 50.4375 45.09375 
Q 46.96875 40.921875 40.578125 39.3125 
z
" id="DejaVuSans-51"/>
      </defs>
      <g transform="translate(390.029324 322.182437)scale(0.1 -0.1)">
       <use xlink:href="#DejaVuSans-51"/>
       <use x="63.623047" xlink:href="#DejaVuSans-48"/>
       <use x="127.246094" xlink:href="#DejaVuSans-48"/>
      </g>
     </g>
    </g>
    <g id="text_8">
     <!-- Generations -->
     <defs>
      <path d="M 59.515625 10.40625 
L 59.515625 29.984375 
L 43.40625 29.984375 
L 43.40625 38.09375 
L 69.28125 38.09375 
L 69.28125 6.78125 
Q 63.578125 2.734375 56.6875 0.65625 
Q 49.8125 -1.421875 42 -1.421875 
Q 24.90625 -1.421875 15.25 8.5625 
Q 5.609375 18.5625 5.609375 36.375 
Q 5.609375 54.25 15.25 64.234375 
Q 24.90625 74.21875 42 74.21875 
Q 49.125 74.21875 55.546875 72.453125 
Q 61.96875 70.703125 67.390625 67.28125 
L 67.390625 56.78125 
Q 61.921875 61.421875 55.765625 63.765625 
Q 49.609375 66.109375 42.828125 66.109375 
Q 29.4375 66.109375 22.71875 58.640625 
Q 16.015625 51.171875 16.015625 36.375 
Q 16.015625 21.625 22.71875 14.15625 
Q 29.4375 6.6875 42.828125 6.6875 
Q 48.046875 6.6875 52.140625 7.59375 
Q 56.25 8.5 59.515625 10.40625 
z
" id="DejaVuSans-71"/>
      <path d="M 56.203125 29.59375 
L 56.203125 25.203125 
L 14.890625 25.203125 
Q 15.484375 15.921875 20.484375 11.0625 
Q 25.484375 6.203125 34.421875 6.203125 
Q 39.59375 6.203125 44.453125 7.46875 
Q 49.3125 8.734375 54.109375 11.28125 
L 54.109375 2.78125 
Q 49.265625 0.734375 44.1875 -0.34375 
Q 39.109375 -1.421875 33.890625 -1.421875 
Q 20.796875 -1.421875 13.15625 6.1875 
Q 5.515625 13.8125 5.515625 26.8125 
Q 5.515625 40.234375 12.765625 48.109375 
Q 20.015625 56 32.328125 56 
Q 43.359375 56 49.78125 48.890625 
Q 56.203125 41.796875 56.203125 29.59375 
z
M 47.21875 32.234375 
Q 47.125 39.59375 43.09375 43.984375 
Q 39.0625 48.390625 32.421875 48.390625 
Q 24.90625 48.390625 20.390625 44.140625 
Q 15.875 39.890625 15.1875 32.171875 
z
" id="DejaVuSans-101"/>
      <path d="M 54.890625 33.015625 
L 54.890625 0 
L 45.90625 0 
L 45.90625 32.71875 
Q 45.90625 40.484375 42.875 44.328125 
Q 39.84375 48.1875 33.796875 48.1875 
Q 26.515625 48.1875 22.3125 43.546875 
Q 18.109375 38.921875 18.109375 30.90625 
L 18.109375 0 
L 9.078125 0 
L 9.078125 54.6875 
L 18.109375 54.6875 
L 18.109375 46.1875 
Q 21.34375 51.125 25.703125 53.5625 
Q 30.078125 56 35.796875 56 
Q 45.21875 56 50.046875 50.171875 
Q 54.890625 44.34375 54.890625 33.015625 
z
" id="DejaVuSans-110"/>
      <path d="M 41.109375 46.296875 
Q 39.59375 47.171875 37.8125 47.578125 
Q 36.03125 48 33.890625 48 
Q 26.265625 48 22.1875 43.046875 
Q 18.109375 38.09375 18.109375 28.8125 
L 18.109375 0 
L 9.078125 0 
L 9.078125 54.6875 
L 18.109375 54.6875 
L 18.109375 46.1875 
Q 20.953125 51.171875 25.484375 53.578125 
Q 30.03125 56 36.53125 56 
Q 37.453125 56 38.578125 55.875 
Q 39.703125 55.765625 41.0625 55.515625 
z
" id="DejaVuSans-114"/>
      <path d="M 34.28125 27.484375 
Q 23.390625 27.484375 19.1875 25 
Q 14.984375 22.515625 14.984375 16.5 
Q 14.984375 11.71875 18.140625 8.90625 
Q 21.296875 6.109375 26.703125 6.109375 
Q 34.1875 6.109375 38.703125 11.40625 
Q 43.21875 16.703125 43.21875 25.484375 
L 43.21875 27.484375 
z
M 52.203125 31.203125 
L 52.203125 0 
L 43.21875 0 
L 43.21875 8.296875 
Q 40.140625 3.328125 35.546875 0.953125 
Q 30.953125 -1.421875 24.3125 -1.421875 
Q 15.921875 -1.421875 10.953125 3.296875 
Q 6 8.015625 6 15.921875 
Q 6 25.140625 12.171875 29.828125 
Q 18.359375 34.515625 30.609375 34.515625 
L 43.21875 34.515625 
L 43.21875 35.40625 
Q 43.21875 41.609375 39.140625 45 
Q 35.0625 48.390625 27.6875 48.390625 
Q 23 48.390625 18.546875 47.265625 
Q 14.109375 46.140625 10.015625 43.890625 
L 10.015625 52.203125 
Q 14.9375 54.109375 19.578125 55.046875 
Q 24.21875 56 28.609375 56 
Q 40.484375 56 46.34375 49.84375 
Q 52.203125 43.703125 52.203125 31.203125 
z
" id="DejaVuSans-97"/>
      <path d="M 18.3125 70.21875 
L 18.3125 54.6875 
L 36.8125 54.6875 
L 36.8125 47.703125 
L 18.3125 47.703125 
L 18.3125 18.015625 
Q 18.3125 11.328125 20.140625 9.421875 
Q 21.96875 7.515625 27.59375 7.515625 
L 36.8125 7.515625 
L 36.8125 0 
L 27.59375 0 
Q 17.1875 0 13.234375 3.875 
Q 9.28125 7.765625 9.28125 18.015625 
L 9.28125 47.703125 
L 2.6875 47.703125 
L 2.6875 54.6875 
L 9.28125 54.6875 
L 9.28125 70.21875 
z
" id="DejaVuSans-116"/>
      <path d="M 9.421875 54.6875 
L 18.40625 54.6875 
L 18.40625 0 
L 9.421875 0 
z
M 9.421875 75.984375 
L 18.40625 75.984375 
L 18.40625 64.59375 
L 9.421875 64.59375 
z
" id="DejaVuSans-105"/>
      <path d="M 30.609375 48.390625 
Q 23.390625 48.390625 19.1875 42.75 
Q 14.984375 37.109375 14.984375 27.296875 
Q 14.984375 17.484375 19.15625 11.84375 
Q 23.34375 6.203125 30.609375 6.203125 
Q 37.796875 6.203125 41.984375 11.859375 
Q 46.1875 17.53125 46.1875 27.296875 
Q 46.1875 37.015625 41.984375 42.703125 
Q 37.796875 48.390625 30.609375 48.390625 
z
M 30.609375 56 
Q 42.328125 56 49.015625 48.375 
Q 55.71875 40.765625 55.71875 27.296875 
Q 55.71875 13.875 49.015625 6.21875 
Q 42.328125 -1.421875 30.609375 -1.421875 
Q 18.84375 -1.421875 12.171875 6.21875 
Q 5.515625 13.875 5.515625 27.296875 
Q 5.515625 40.765625 12.171875 48.375 
Q 18.84375 56 30.609375 56 
z
" id="DejaVuSans-111"/>
      <path d="M 44.28125 53.078125 
L 44.28125 44.578125 
Q 40.484375 46.53125 36.375 47.5 
Q 32.28125 48.484375 27.875 48.484375 
Q 21.1875 48.484375 17.84375 46.4375 
Q 14.5 44.390625 14.5 40.28125 
Q 14.5 37.15625 16.890625 35.375 
Q 19.28125 33.59375 26.515625 31.984375 
L 29.59375 31.296875 
Q 39.15625 29.25 43.1875 25.515625 
Q 47.21875 21.78125 47.21875 15.09375 
Q 47.21875 7.46875 41.1875 3.015625 
Q 35.15625 -1.421875 24.609375 -1.421875 
Q 20.21875 -1.421875 15.453125 -0.5625 
Q 10.6875 0.296875 5.421875 2 
L 5.421875 11.28125 
Q 10.40625 8.6875 15.234375 7.390625 
Q 20.0625 6.109375 24.8125 6.109375 
Q 31.15625 6.109375 34.5625 8.28125 
Q 37.984375 10.453125 37.984375 14.40625 
Q 37.984375 18.0625 35.515625 20.015625 
Q 33.0625 21.96875 24.703125 23.78125 
L 21.578125 24.515625 
Q 13.234375 26.265625 9.515625 29.90625 
Q 5.8125 33.546875 5.8125 39.890625 
Q 5.8125 47.609375 11.28125 51.796875 
Q 16.75 56 26.8125 56 
Q 31.78125 56 36.171875 55.265625 
Q 40.578125 54.546875 44.28125 53.078125 
z
" id="DejaVuSans-115"/>
     </defs>
     <g transform="translate(205.662344 335.860562)scale(0.1 -0.1)">
      <use xlink:href="#DejaVuSans-71"/>
      <use x="77.490234" xlink:href="#DejaVuSans-101"/>
      <use x="139.013672" xlink:href="#DejaVuSans-110"/>
      <use x="202.392578" xlink:href="#DejaVuSans-101"/>
      <use x="263.916016" xlink:href="#DejaVuSans-114"/>
      <use x="305.029297" xlink:href="#DejaVuSans-97"/>
      <use x="366.308594" xlink:href="#DejaVuSans-116"/>
      <use x="405.517578" xlink:href="#DejaVuSans-105"/>
      <use x="433.300781" xlink:href="#DejaVuSans-111"/>
      <use x="494.482422" xlink:href="#DejaVuSans-110"/>
      <use x="557.861328" xlink:href="#DejaVuSans-115"/>
     </g>
    </g>
   </g>
   <g id="matplotlib.axis_2">
    <g id="ytick_1">
     <g id="line2d_15">
      <path clip-path="url(#p9927a0b49e)" d="M 57.6 277.848109 
L 414.72 277.848109 
" style="fill:none;stroke:#b0b0b0;stroke-linecap:square;stroke-width:0.8;"/>
     </g>
     <g id="line2d_16">
      <defs>
       <path d="M 0 0 
L -3.5 0 
" id="m0c1a4972d9" style="stroke:#000000;stroke-width:0.8;"/>
      </defs>
      <g>
       <use style="stroke:#000000;stroke-width:0.8;" x="57.6" xlink:href="#m0c1a4972d9" y="277.848109"/>
      </g>
     </g>
     <g id="text_9">
      <!-- 500 -->
      <g transform="translate(31.5125 281.647327)scale(0.1 -0.1)">
       <use xlink:href="#DejaVuSans-53"/>
       <use x="63.623047" xlink:href="#DejaVuSans-48"/>
       <use x="127.246094" xlink:href="#DejaVuSans-48"/>
      </g>
     </g>
    </g>
    <g id="ytick_2">
     <g id="line2d_17">
      <path clip-path="url(#p9927a0b49e)" d="M 57.6 247.348052 
L 414.72 247.348052 
" style="fill:none;stroke:#b0b0b0;stroke-linecap:square;stroke-width:0.8;"/>
     </g>
     <g id="line2d_18">
      <g>
       <use style="stroke:#000000;stroke-width:0.8;" x="57.6" xlink:href="#m0c1a4972d9" y="247.348052"/>
      </g>
     </g>
     <g id="text_10">
      <!-- 750 -->
      <defs>
       <path d="M 8.203125 72.90625 
L 55.078125 72.90625 
L 55.078125 68.703125 
L 28.609375 0 
L 18.3125 0 
L 43.21875 64.59375 
L 8.203125 64.59375 
z
" id="DejaVuSans-55"/>
      </defs>
      <g transform="translate(31.5125 251.147271)scale(0.1 -0.1)">
       <use xlink:href="#DejaVuSans-55"/>
       <use x="63.623047" xlink:href="#DejaVuSans-53"/>
       <use x="127.246094" xlink:href="#DejaVuSans-48"/>
      </g>
     </g>
    </g>
    <g id="ytick_3">
     <g id="line2d_19">
      <path clip-path="url(#p9927a0b49e)" d="M 57.6 216.847995 
L 414.72 216.847995 
" style="fill:none;stroke:#b0b0b0;stroke-linecap:square;stroke-width:0.8;"/>
     </g>
     <g id="line2d_20">
      <g>
       <use style="stroke:#000000;stroke-width:0.8;" x="57.6" xlink:href="#m0c1a4972d9" y="216.847995"/>
      </g>
     </g>
     <g id="text_11">
      <!-- 1000 -->
      <g transform="translate(25.15 220.647214)scale(0.1 -0.1)">
       <use xlink:href="#DejaVuSans-49"/>
       <use x="63.623047" xlink:href="#DejaVuSans-48"/>
       <use x="127.246094" xlink:href="#DejaVuSans-48"/>
       <use x="190.869141" xlink:href="#DejaVuSans-48"/>
      </g>
     </g>
    </g>
    <g id="ytick_4">
     <g id="line2d_21">
      <path clip-path="url(#p9927a0b49e)" d="M 57.6 186.347938 
L 414.72 186.347938 
" style="fill:none;stroke:#b0b0b0;stroke-linecap:square;stroke-width:0.8;"/>
     </g>
     <g id="line2d_22">
      <g>
       <use style="stroke:#000000;stroke-width:0.8;" x="57.6" xlink:href="#m0c1a4972d9" y="186.347938"/>
      </g>
     </g>
     <g id="text_12">
      <!-- 1250 -->
      <g transform="translate(25.15 190.147157)scale(0.1 -0.1)">
       <use xlink:href="#DejaVuSans-49"/>
       <use x="63.623047" xlink:href="#DejaVuSans-50"/>
       <use x="127.246094" xlink:href="#DejaVuSans-53"/>
       <use x="190.869141" xlink:href="#DejaVuSans-48"/>
      </g>
     </g>
    </g>
    <g id="ytick_5">
     <g id="line2d_23">
      <path clip-path="url(#p9927a0b49e)" d="M 57.6 155.847881 
L 414.72 155.847881 
" style="fill:none;stroke:#b0b0b0;stroke-linecap:square;stroke-width:0.8;"/>
     </g>
     <g id="line2d_24">
      <g>
       <use style="stroke:#000000;stroke-width:0.8;" x="57.6" xlink:href="#m0c1a4972d9" y="155.847881"/>
      </g>
     </g>
     <g id="text_13">
      <!-- 1500 -->
      <g transform="translate(25.15 159.6471)scale(0.1 -0.1)">
       <use xlink:href="#DejaVuSans-49"/>
       <use x="63.623047" xlink:href="#DejaVuSans-53"/>
       <use x="127.246094" xlink:href="#DejaVuSans-48"/>
       <use x="190.869141" xlink:href="#DejaVuSans-48"/>
      </g>
     </g>
    </g>
    <g id="ytick_6">
     <g id="line2d_25">
      <path clip-path="url(#p9927a0b49e)" d="M 57.6 125.347824 
L 414.72 125.347824 
" style="fill:none;stroke:#b0b0b0;stroke-linecap:square;stroke-width:0.8;"/>
     </g>
     <g id="line2d_26">
      <g>
       <use style="stroke:#000000;stroke-width:0.8;" x="57.6" xlink:href="#m0c1a4972d9" y="125.347824"/>
      </g>
     </g>
     <g id="text_14">
      <!-- 1750 -->
      <g transform="translate(25.15 129.147043)scale(0.1 -0.1)">
       <use xlink:href="#DejaVuSans-49"/>
       <use x="63.623047" xlink:href="#DejaVuSans-55"/>
       <use x="127.246094" xlink:href="#DejaVuSans-53"/>
       <use x="190.869141" xlink:href="#DejaVuSans-48"/>
      </g>
     </g>
    </g>
    <g id="ytick_7">
     <g id="line2d_27">
      <path clip-path="url(#p9927a0b49e)" d="M 57.6 94.847768 
L 414.72 94.847768 
" style="fill:none;stroke:#b0b0b0;stroke-linecap:square;stroke-width:0.8;"/>
     </g>
     <g id="line2d_28">
      <g>
       <use style="stroke:#000000;stroke-width:0.8;" x="57.6" xlink:href="#m0c1a4972d9" y="94.847768"/>
      </g>
     </g>
     <g id="text_15">
      <!-- 2000 -->
      <g transform="translate(25.15 98.646986)scale(0.1 -0.1)">
       <use xlink:href="#DejaVuSans-50"/>
       <use x="63.623047" xlink:href="#DejaVuSans-48"/>
       <use x="127.246094" xlink:href="#DejaVuSans-48"/>
       <use x="190.869141" xlink:href="#DejaVuSans-48"/>
      </g>
     </g>
    </g>
    <g id="ytick_8">
     <g id="line2d_29">
      <path clip-path="url(#p9927a0b49e)" d="M 57.6 64.347711 
L 414.72 64.347711 
" style="fill:none;stroke:#b0b0b0;stroke-linecap:square;stroke-width:0.8;"/>
     </g>
     <g id="line2d_30">
      <g>
       <use style="stroke:#000000;stroke-width:0.8;" x="57.6" xlink:href="#m0c1a4972d9" y="64.347711"/>
      </g>
     </g>
     <g id="text_16">
      <!-- 2250 -->
      <g transform="translate(25.15 68.14693)scale(0.1 -0.1)">
       <use xlink:href="#DejaVuSans-50"/>
       <use x="63.623047" xlink:href="#DejaVuSans-50"/>
       <use x="127.246094" xlink:href="#DejaVuSans-53"/>
       <use x="190.869141" xlink:href="#DejaVuSans-48"/>
      </g>
     </g>
    </g>
    <g id="text_17">
     <!-- Fitness -->
     <defs>
      <path d="M 9.8125 72.90625 
L 51.703125 72.90625 
L 51.703125 64.59375 
L 19.671875 64.59375 
L 19.671875 43.109375 
L 48.578125 43.109375 
L 48.578125 34.8125 
L 19.671875 34.8125 
L 19.671875 0 
L 9.8125 0 
z
" id="DejaVuSans-70"/>
     </defs>
     <g transform="translate(19.070312 192.202219)rotate(-90)scale(0.1 -0.1)">
      <use xlink:href="#DejaVuSans-70"/>
      <use x="57.410156" xlink:href="#DejaVuSans-105"/>
      <use x="85.193359" xlink:href="#DejaVuSans-116"/>
      <use x="124.402344" xlink:href="#DejaVuSans-110"/>
      <use x="187.78125" xlink:href="#DejaVuSans-101"/>
      <use x="249.304688" xlink:href="#DejaVuSans-115"/>
      <use x="301.404297" xlink:href="#DejaVuSans-115"/>
     </g>
    </g>
   </g>
   <g id="line2d_31">
    <path clip-path="url(#p9927a0b49e)" d="M 73.832727 279.518427 
L 74.918528 267.392341 
L 76.00433 263.37633 
L 77.090131 260.255498 
L 78.175932 261.246895 
L 79.261733 259.420788 
L 80.347534 249.740534 
L 81.433335 247.758716 
L 82.519137 243.538205 
L 83.604938 247.622784 
L 84.690739 229.35258 
L 85.77654 224.972091 
L 86.862341 222.353701 
L 87.948142 223.47007 
L 89.033943 227.641118 
L 90.119745 212.045652 
L 91.205546 217.970325 
L 92.291347 204.369361 
L 93.377148 206.010716 
L 94.462949 209.967323 
L 95.54875 205.779156 
L 96.634552 207.21673 
L 97.720353 212.30905 
L 98.806154 199.673501 
L 99.891955 198.650692 
L 100.977756 180.730647 
L 102.063557 188.115379 
L 103.149358 191.720538 
L 104.23516 189.548939 
L 105.320961 186.369233 
L 106.406762 163.681033 
L 107.492563 169.18618 
L 108.578364 172.028874 
L 109.664165 187.885353 
L 110.749967 171.53669 
L 111.835768 166.530131 
L 112.921569 180.241435 
L 114.00737 177.873387 
L 115.093171 169.916754 
L 116.178972 155.317142 
L 117.264773 177.070582 
L 118.350575 180.770053 
L 119.436376 138.274405 
L 120.522177 154.644928 
L 121.607978 184.766991 
L 122.693779 169.201074 
L 123.77958 175.114137 
L 124.865382 157.686371 
L 125.951183 168.995619 
L 127.036984 163.386642 
L 128.122785 186.614264 
L 129.208586 170.939608 
L 130.294387 183.30844 
L 131.380189 142.102844 
L 132.46599 185.573494 
L 133.551791 172.698438 
L 134.637592 162.11828 
L 135.723393 164.976542 
L 136.809194 156.689677 
L 137.894995 177.839579 
L 138.980797 154.118402 
L 140.066598 143.50654 
L 141.152399 154.069135 
L 142.2382 162.547596 
L 143.324001 181.509987 
L 144.409802 186.689255 
L 145.495604 155.92945 
L 146.581405 174.401887 
L 147.667206 171.033114 
L 148.753007 190.488144 
L 149.838808 169.209117 
L 150.924609 163.388964 
L 152.01041 170.982177 
L 153.096212 172.271368 
L 154.182013 196.973324 
L 155.267814 156.35597 
L 156.353615 143.101689 
L 157.439416 158.366874 
L 158.525217 175.883457 
L 159.611019 197.231356 
L 160.69682 192.788213 
L 161.782621 177.689297 
L 162.868422 184.131609 
L 163.954223 179.143469 
L 165.040024 192.199115 
L 166.125825 177.137282 
L 167.211627 178.29221 
L 168.297428 164.314734 
L 169.383229 173.109025 
L 170.46903 170.672434 
L 171.554831 165.082604 
L 172.640632 172.906498 
L 173.726434 193.331968 
L 174.812235 164.000748 
L 175.898036 188.656749 
L 176.983837 178.582907 
L 178.069638 190.903675 
L 179.155439 206.395369 
L 180.24124 193.971273 
L 181.327042 195.241459 
L 182.412843 188.802293 
L 183.498644 180.744012 
L 184.584445 184.82401 
L 185.670246 154.880097 
L 186.756047 164.179921 
L 187.841849 177.995733 
L 188.92765 178.447275 
L 190.013451 166.06656 
L 191.099252 168.311974 
L 193.270854 188.06144 
L 195.442457 152.796261 
L 196.528258 157.381707 
L 197.614059 169.035617 
L 198.69986 171.17022 
L 199.785661 157.556138 
L 200.871462 154.687555 
L 201.957264 164.723212 
L 203.043065 139.239914 
L 204.128866 156.741462 
L 205.214667 159.214994 
L 206.300468 136.768922 
L 207.386269 150.726827 
L 208.472071 146.372895 
L 209.557872 132.904563 
L 210.643673 150.699361 
L 211.729474 153.872321 
L 212.815275 173.418904 
L 213.901076 148.354564 
L 214.986877 177.252753 
L 216.072679 151.230237 
L 217.15848 158.054258 
L 218.244281 157.900065 
L 219.330082 168.103976 
L 220.415883 138.811319 
L 221.501684 169.601355 
L 222.587486 154.448068 
L 223.673287 164.710971 
L 224.759088 146.135637 
L 225.844889 152.210327 
L 226.93069 161.691796 
L 228.016491 158.997688 
L 229.102292 165.563046 
L 230.188094 167.092494 
L 231.273895 150.097981 
L 232.359696 145.720225 
L 233.445497 160.37519 
L 234.531298 149.655337 
L 235.617099 137.478318 
L 236.702901 134.059659 
L 237.788702 177.681987 
L 238.874503 151.894031 
L 239.960304 168.267737 
L 241.046105 145.685792 
L 242.131906 161.171285 
L 243.217708 159.779581 
L 244.303509 159.545682 
L 245.38931 142.663079 
L 246.475111 149.283582 
L 247.560912 142.633313 
L 248.646713 151.239467 
L 249.732514 151.109448 
L 250.818316 160.964226 
L 251.904117 165.789568 
L 252.989918 144.404917 
L 254.075719 155.477563 
L 255.16152 157.853115 
L 256.247321 147.26478 
L 257.333123 133.210004 
L 258.418924 161.362643 
L 259.504725 157.759402 
L 260.590526 162.139616 
L 261.676327 165.794934 
L 262.762128 143.639345 
L 263.847929 195.032403 
L 264.933731 147.423578 
L 266.019532 175.783691 
L 267.105333 160.250684 
L 268.191134 166.817501 
L 269.276935 182.011531 
L 270.362736 176.76939 
L 271.448538 172.232557 
L 272.534339 174.231254 
L 273.62014 190.224644 
L 274.705941 178.205383 
L 275.791742 186.321196 
L 276.877543 165.776051 
L 277.963344 179.451211 
L 279.049146 169.441312 
L 280.134947 172.295323 
L 281.220748 190.218841 
L 282.306549 166.480036 
L 283.39235 180.384146 
L 284.478151 166.521882 
L 285.563953 166.113981 
L 286.649754 179.954094 
L 287.735555 157.463574 
L 289.907157 191.114209 
L 290.992958 185.05667 
L 292.07876 155.19488 
L 293.164561 165.993543 
L 294.250362 187.065246 
L 295.336163 184.098501 
L 296.421964 167.214763 
L 297.507765 177.389205 
L 298.593566 179.794517 
L 299.679368 174.456537 
L 300.765169 181.734503 
L 301.85097 173.530551 
L 302.936771 177.900441 
L 304.022572 168.91818 
L 305.108373 177.449196 
L 306.194175 166.557546 
L 307.279976 178.288706 
L 308.365777 179.685037 
L 309.451578 173.971414 
L 310.537379 188.594865 
L 311.62318 181.291093 
L 312.708981 188.694929 
L 313.794783 173.93116 
L 314.880584 198.207775 
L 315.966385 194.55566 
L 317.052186 192.863577 
L 318.137987 184.562783 
L 319.223788 178.314839 
L 320.30959 184.893815 
L 321.395391 182.705831 
L 322.481192 193.481972 
L 323.566993 193.438889 
L 324.652794 178.793532 
L 325.738595 191.086073 
L 326.824396 182.571976 
L 327.910198 185.963816 
L 328.995999 194.386183 
L 330.0818 209.193716 
L 331.167601 183.711006 
L 332.253402 197.28029 
L 333.339203 194.76481 
L 334.425005 200.578885 
L 335.510806 178.497236 
L 336.596607 187.241002 
L 337.682408 187.750552 
L 338.768209 201.302064 
L 339.85401 162.597984 
L 340.939811 187.3839 
L 342.025613 189.078383 
L 343.111414 177.398328 
L 344.197215 186.341607 
L 345.283016 185.958866 
L 346.368817 189.36438 
L 347.454618 190.250039 
L 348.54042 190.711719 
L 349.626221 193.747287 
L 350.712022 180.861278 
L 351.797823 195.210222 
L 352.883624 178.355451 
L 353.969425 198.302394 
L 355.055227 182.625359 
L 356.141028 187.838769 
L 357.226829 185.282116 
L 358.31263 191.741246 
L 359.398431 180.824322 
L 360.484232 183.30837 
L 361.570033 177.520516 
L 362.655835 176.552858 
L 363.741636 202.018832 
L 364.827437 182.230324 
L 365.913238 185.334478 
L 366.999039 178.425674 
L 368.08484 192.593652 
L 369.170642 186.572658 
L 370.256443 189.852712 
L 371.342244 185.204085 
L 372.428045 197.676895 
L 373.513846 190.478959 
L 374.599647 189.117063 
L 375.685448 185.816226 
L 376.77125 177.469829 
L 377.857051 186.215964 
L 378.942852 191.320938 
L 380.028653 181.8231 
L 381.114454 199.230857 
L 382.200255 202.090535 
L 383.286057 181.165115 
L 384.371858 201.666396 
L 385.457659 195.424937 
L 386.54346 177.700074 
L 387.629261 181.574612 
L 388.715062 152.784936 
L 389.800863 161.880992 
L 390.886665 196.137149 
L 391.972466 192.984188 
L 393.058267 181.910231 
L 394.144068 183.235105 
L 395.229869 191.195139 
L 396.31567 192.5229 
L 397.401472 175.03767 
L 398.487273 177.345101 
L 398.487273 177.345101 
" style="fill:none;stroke:#0000ff;stroke-linecap:square;stroke-width:1.5;"/>
   </g>
   <g id="line2d_32">
    <path clip-path="url(#p9927a0b49e)" d="M 73.832727 295.488 
L 74.918528 282.891107 
L 76.00433 278.770096 
L 77.090131 277.686641 
L 78.175932 281.173078 
L 79.261733 285.30258 
L 80.347534 272.302522 
L 81.433335 277.876068 
L 82.519137 275.465974 
L 83.604938 285.256212 
L 84.690739 254.794251 
L 85.77654 263.347258 
L 86.862341 265.050758 
L 87.948142 264.29393 
L 89.033943 275.285261 
L 90.119745 245.711753 
L 91.205546 253.929669 
L 92.291347 236.130435 
L 93.377148 248.32168 
L 94.462949 251.513304 
L 95.54875 252.96562 
L 96.634552 250.435205 
L 97.720353 252.570387 
L 98.806154 242.745568 
L 99.891955 244.185345 
L 100.977756 228.311552 
L 103.149358 249.14654 
L 104.23516 243.119662 
L 106.406762 214.470556 
L 107.492563 223.510959 
L 108.578364 245.683214 
L 109.664165 248.242986 
L 110.749967 217.769876 
L 111.835768 218.405735 
L 112.921569 231.979133 
L 114.00737 233.972944 
L 115.093171 229.486201 
L 116.178972 214.884095 
L 117.264773 241.930095 
L 118.350575 236.790659 
L 119.436376 195.792524 
L 120.522177 217.902424 
L 121.607978 261.093332 
L 122.693779 245.293205 
L 123.77958 245.440163 
L 124.865382 225.164173 
L 125.951183 239.008769 
L 127.036984 233.630489 
L 128.122785 253.846028 
L 129.208586 232.048924 
L 130.294387 244.691752 
L 131.380189 214.020375 
L 132.46599 247.677223 
L 133.551791 249.541355 
L 134.637592 220.761252 
L 135.723393 225.259118 
L 136.809194 225.511687 
L 137.894995 264.510127 
L 138.980797 218.733162 
L 140.066598 211.373936 
L 141.152399 213.408769 
L 142.2382 223.727493 
L 143.324001 241.146298 
L 144.409802 251.300525 
L 145.495604 225.127425 
L 146.581405 256.660467 
L 147.667206 245.314581 
L 148.753007 275.559594 
L 149.838808 238.090936 
L 150.924609 215.328311 
L 152.01041 241.197313 
L 153.096212 235.336293 
L 154.182013 252.14211 
L 155.267814 223.212232 
L 156.353615 198.217906 
L 158.525217 247.552048 
L 160.69682 265.862226 
L 161.782621 241.17278 
L 162.868422 246.907837 
L 163.954223 257.810295 
L 165.040024 262.259812 
L 166.125825 243.826799 
L 167.211627 238.751718 
L 168.297428 231.221774 
L 169.383229 243.979033 
L 170.46903 239.935007 
L 171.554831 228.536791 
L 172.640632 243.851327 
L 173.726434 251.346815 
L 174.812235 233.928793 
L 175.898036 252.495039 
L 176.983837 250.799813 
L 178.069638 263.282422 
L 179.155439 268.862078 
L 180.24124 263.531815 
L 181.327042 271.403484 
L 182.412843 266.018451 
L 183.498644 247.103534 
L 184.584445 247.628436 
L 185.670246 209.023888 
L 186.756047 235.091529 
L 187.841849 251.817325 
L 188.92765 249.326862 
L 190.013451 224.587796 
L 191.099252 228.798423 
L 192.185053 245.963319 
L 193.270854 267.394368 
L 194.356656 244.197965 
L 195.442457 205.999269 
L 196.528258 217.324633 
L 197.614059 235.706653 
L 198.69986 244.117146 
L 199.785661 214.838234 
L 200.871462 208.647967 
L 201.957264 233.890648 
L 203.043065 205.911762 
L 204.128866 216.996281 
L 205.214667 221.55676 
L 206.300468 207.665998 
L 207.386269 218.348387 
L 208.472071 212.381505 
L 209.557872 187.257305 
L 210.643673 216.917007 
L 211.729474 221.920696 
L 212.815275 252.243209 
L 213.901076 223.579729 
L 214.986877 246.11266 
L 216.072679 216.855489 
L 217.15848 236.629193 
L 218.244281 215.929056 
L 219.330082 232.154253 
L 220.415883 196.986789 
L 221.501684 234.480182 
L 222.587486 218.463738 
L 223.673287 230.392927 
L 224.759088 192.461253 
L 225.844889 213.725144 
L 226.93069 217.117877 
L 228.016491 221.039832 
L 229.102292 222.209608 
L 230.188094 226.757847 
L 231.273895 201.071409 
L 232.359696 195.627456 
L 233.445497 228.872969 
L 234.531298 217.15447 
L 235.617099 198.146849 
L 236.702901 203.20782 
L 237.788702 248.462211 
L 238.874503 214.814815 
L 239.960304 241.932303 
L 241.046105 208.152781 
L 242.131906 234.763025 
L 243.217708 232.983512 
L 245.38931 218.232611 
L 246.475111 219.458201 
L 247.560912 201.863051 
L 248.646713 205.952931 
L 249.732514 212.75596 
L 250.818316 220.389317 
L 251.904117 218.466517 
L 252.989918 190.857654 
L 254.075719 219.658988 
L 255.16152 204.856157 
L 256.247321 207.264294 
L 257.333123 191.059318 
L 258.418924 224.741401 
L 259.504725 214.932734 
L 260.590526 214.08843 
L 261.676327 221.948641 
L 262.762128 204.74805 
L 263.847929 266.683608 
L 264.933731 200.399992 
L 266.019532 230.568729 
L 267.105333 221.565317 
L 268.191134 224.563278 
L 269.276935 241.326359 
L 270.362736 215.059423 
L 271.448538 231.729308 
L 272.534339 237.105679 
L 273.62014 257.728902 
L 274.705941 231.001681 
L 275.791742 241.994532 
L 276.877543 230.805361 
L 277.963344 238.681957 
L 279.049146 235.510466 
L 280.134947 224.989478 
L 281.220748 246.861308 
L 282.306549 218.809118 
L 283.39235 229.100698 
L 284.478151 219.906609 
L 285.563953 223.204049 
L 286.649754 237.461784 
L 287.735555 209.003918 
L 288.821356 234.202702 
L 289.907157 255.955937 
L 290.992958 250.698897 
L 292.07876 210.105984 
L 293.164561 226.887872 
L 294.250362 246.956834 
L 295.336163 240.647181 
L 296.421964 222.101009 
L 297.507765 232.444487 
L 298.593566 235.893981 
L 299.679368 226.544464 
L 300.765169 228.660494 
L 301.85097 230.053015 
L 302.936771 223.688409 
L 304.022572 219.965997 
L 305.108373 227.10347 
L 306.194175 205.19746 
L 307.279976 236.183166 
L 308.365777 229.053879 
L 309.451578 225.889271 
L 310.537379 237.952022 
L 311.62318 234.520517 
L 312.708981 252.153675 
L 313.794783 220.324449 
L 314.880584 249.132797 
L 315.966385 245.32223 
L 317.052186 243.200291 
L 318.137987 239.3139 
L 319.223788 226.833599 
L 320.30959 238.995336 
L 321.395391 238.889612 
L 322.481192 240.82634 
L 323.566993 249.546627 
L 324.652794 231.849396 
L 325.738595 249.37447 
L 326.824396 249.702717 
L 327.910198 243.864859 
L 328.995999 254.729957 
L 330.0818 264.371614 
L 331.167601 233.374261 
L 333.339203 252.180042 
L 334.425005 251.214401 
L 335.510806 227.729547 
L 336.596607 239.45874 
L 337.682408 241.678296 
L 338.768209 252.874226 
L 339.85401 219.118252 
L 340.939811 247.28501 
L 342.025613 234.359594 
L 343.111414 225.16081 
L 344.197215 238.673823 
L 345.283016 245.300396 
L 346.368817 234.731859 
L 347.454618 240.883074 
L 348.54042 242.036532 
L 349.626221 246.442831 
L 350.712022 225.889512 
L 351.797823 250.132146 
L 352.883624 227.60093 
L 353.969425 254.118841 
L 355.055227 250.366233 
L 356.141028 236.838088 
L 357.226829 245.660189 
L 358.31263 231.282419 
L 359.398431 237.659205 
L 360.484232 245.953842 
L 361.570033 234.654654 
L 362.655835 238.835122 
L 363.741636 260.971874 
L 364.827437 230.975081 
L 365.913238 243.11043 
L 366.999039 231.89107 
L 368.08484 244.932784 
L 369.170642 234.438517 
L 370.256443 240.984915 
L 371.342244 243.332479 
L 372.428045 255.377849 
L 373.513846 234.677735 
L 374.599647 237.429048 
L 375.685448 239.168484 
L 376.77125 238.097998 
L 377.857051 254.274509 
L 378.942852 244.949364 
L 380.028653 239.81394 
L 381.114454 257.046804 
L 382.200255 253.092561 
L 383.286057 238.029893 
L 384.371858 261.61101 
L 385.457659 260.562589 
L 386.54346 242.335521 
L 387.629261 247.533441 
L 388.715062 225.032591 
L 389.800863 227.313757 
L 390.886665 248.798181 
L 391.972466 251.292982 
L 393.058267 246.182505 
L 394.144068 244.440326 
L 395.229869 238.335211 
L 396.31567 245.958037 
L 397.401472 237.551816 
L 398.487273 221.016844 
L 398.487273 221.016844 
" style="fill:none;stroke:#008000;stroke-dasharray:9.6,2.4,1.5,2.4;stroke-dashoffset:0;stroke-width:1.5;"/>
   </g>
   <g id="line2d_33">
    <path clip-path="url(#p9927a0b49e)" d="M 73.832727 263.548854 
L 74.918528 251.893574 
L 76.00433 247.982564 
L 77.090131 242.824356 
L 78.175932 241.320712 
L 79.261733 233.538996 
L 80.347534 227.178547 
L 81.433335 217.641363 
L 82.519137 211.610436 
L 83.604938 209.989356 
L 84.690739 203.910909 
L 85.77654 186.596923 
L 86.862341 179.656644 
L 87.948142 182.646211 
L 89.033943 179.996976 
L 90.119745 178.37955 
L 91.205546 182.01098 
L 93.377148 163.699751 
L 94.462949 168.421342 
L 95.54875 158.592693 
L 96.634552 163.998255 
L 97.720353 172.047713 
L 98.806154 156.601434 
L 99.891955 153.11604 
L 100.977756 133.149742 
L 102.063557 137.681858 
L 103.149358 134.294537 
L 104.23516 135.978215 
L 105.320961 144.370927 
L 106.406762 112.891509 
L 107.492563 114.861402 
L 108.578364 98.374534 
L 109.664165 127.52772 
L 110.749967 125.303505 
L 111.835768 114.654527 
L 112.921569 128.503738 
L 114.00737 121.77383 
L 115.093171 110.347307 
L 116.178972 95.75019 
L 117.264773 112.211069 
L 118.350575 124.749447 
L 119.436376 80.756286 
L 120.522177 91.387432 
L 121.607978 108.440649 
L 122.693779 93.108943 
L 123.77958 104.78811 
L 124.865382 90.208569 
L 125.951183 98.982469 
L 127.036984 93.142796 
L 128.122785 119.382499 
L 129.208586 109.830291 
L 130.294387 121.925128 
L 131.380189 70.185312 
L 132.46599 123.469765 
L 133.551791 95.855521 
L 134.637592 103.475307 
L 135.723393 104.693965 
L 136.809194 87.867667 
L 137.894995 91.169031 
L 138.980797 89.503641 
L 140.066598 75.639144 
L 141.152399 94.7295 
L 142.2382 101.367699 
L 143.324001 121.873676 
L 144.409802 122.077984 
L 145.495604 86.731474 
L 146.581405 92.143307 
L 147.667206 96.751647 
L 148.753007 105.416693 
L 149.838808 100.327299 
L 150.924609 111.449617 
L 152.01041 100.767041 
L 153.096212 109.206443 
L 154.182013 141.804537 
L 155.267814 89.499709 
L 156.353615 87.985473 
L 157.439416 92.68099 
L 158.525217 104.214865 
L 159.611019 137.634997 
L 160.69682 119.714201 
L 161.782621 114.205814 
L 162.868422 121.355381 
L 163.954223 100.476642 
L 165.040024 122.138418 
L 166.125825 110.447764 
L 167.211627 117.832701 
L 168.297428 97.407694 
L 169.383229 102.239018 
L 170.46903 101.409861 
L 171.554831 101.628417 
L 172.640632 101.961669 
L 173.726434 135.317122 
L 174.812235 94.072703 
L 175.898036 124.81846 
L 176.983837 106.366001 
L 178.069638 118.524928 
L 179.155439 143.92866 
L 180.24124 124.410731 
L 181.327042 119.079433 
L 182.412843 111.586135 
L 183.498644 114.384489 
L 184.584445 122.019585 
L 185.670246 100.736307 
L 186.756047 93.268312 
L 187.841849 104.174141 
L 188.92765 107.567688 
L 190.013451 107.545323 
L 191.099252 107.825525 
L 192.185053 111.087682 
L 193.270854 108.728513 
L 194.356656 97.969279 
L 195.442457 99.593254 
L 196.528258 97.43878 
L 197.614059 102.364581 
L 198.69986 98.223293 
L 199.785661 100.274043 
L 200.871462 100.727144 
L 201.957264 95.555777 
L 203.043065 72.568066 
L 204.128866 96.486644 
L 205.214667 96.873228 
L 206.300468 65.871846 
L 207.386269 83.105268 
L 208.472071 80.364286 
L 209.557872 78.551822 
L 210.643673 84.481715 
L 211.729474 85.823947 
L 212.815275 94.594598 
L 213.901076 73.129399 
L 214.986877 108.392846 
L 216.072679 85.604984 
L 217.15848 79.479323 
L 218.244281 99.871073 
L 219.330082 104.053699 
L 220.415883 80.63585 
L 221.501684 104.722528 
L 222.587486 90.432399 
L 223.673287 99.029014 
L 224.759088 99.810022 
L 225.844889 90.695511 
L 226.93069 106.265716 
L 228.016491 96.955544 
L 229.102292 108.916483 
L 230.188094 107.427141 
L 231.273895 99.124552 
L 232.359696 95.812995 
L 233.445497 91.877412 
L 234.531298 82.156204 
L 235.617099 76.809787 
L 236.702901 64.911498 
L 237.788702 106.901764 
L 238.874503 88.973247 
L 239.960304 94.603172 
L 241.046105 83.218803 
L 242.131906 87.579544 
L 243.217708 86.57565 
L 244.303509 93.425673 
L 245.38931 67.093546 
L 246.475111 79.108963 
L 247.560912 83.403576 
L 248.646713 96.526002 
L 249.732514 89.462936 
L 251.904117 113.112618 
L 252.989918 97.95218 
L 254.075719 91.296138 
L 255.16152 110.850073 
L 256.247321 87.265266 
L 257.333123 75.360689 
L 258.418924 97.983885 
L 259.504725 100.586069 
L 260.590526 110.190802 
L 261.676327 109.641228 
L 262.762128 82.530639 
L 263.847929 123.381197 
L 264.933731 94.447164 
L 266.019532 120.998653 
L 267.105333 98.936052 
L 268.191134 109.071724 
L 269.276935 122.696703 
L 270.362736 138.479356 
L 271.448538 112.735806 
L 272.534339 111.356829 
L 273.62014 122.720387 
L 274.705941 125.409086 
L 275.791742 130.647859 
L 276.877543 100.74674 
L 277.963344 120.220465 
L 279.049146 103.372157 
L 280.134947 119.601168 
L 281.220748 133.576375 
L 282.306549 114.150954 
L 283.39235 131.667594 
L 284.478151 113.137154 
L 285.563953 109.023913 
L 286.649754 122.446403 
L 287.735555 105.92323 
L 288.821356 114.399107 
L 289.907157 126.272481 
L 290.992958 119.414443 
L 292.07876 100.283777 
L 293.164561 105.099213 
L 294.250362 127.173657 
L 295.336163 127.549821 
L 296.421964 112.328517 
L 297.507765 122.333924 
L 298.593566 123.695052 
L 299.679368 122.36861 
L 300.765169 134.808512 
L 301.85097 117.008088 
L 302.936771 132.112473 
L 304.022572 117.870363 
L 305.108373 127.794921 
L 306.194175 127.917632 
L 307.279976 120.394246 
L 308.365777 130.316195 
L 309.451578 122.053558 
L 310.537379 139.237708 
L 311.62318 128.061669 
L 312.708981 125.236184 
L 313.794783 127.53787 
L 314.880584 147.282753 
L 315.966385 143.789089 
L 317.052186 142.526863 
L 318.137987 129.811665 
L 319.223788 129.796079 
L 320.30959 130.792294 
L 321.395391 126.522049 
L 322.481192 146.137605 
L 323.566993 137.331151 
L 324.652794 125.737668 
L 325.738595 132.797676 
L 326.824396 115.441235 
L 327.910198 128.062774 
L 328.995999 134.042408 
L 330.0818 154.015819 
L 331.167601 134.047751 
L 332.253402 151.649006 
L 333.339203 137.349578 
L 334.425005 149.943369 
L 335.510806 129.264925 
L 336.596607 135.023264 
L 337.682408 133.822807 
L 338.768209 149.729902 
L 339.85401 106.077716 
L 340.939811 127.48279 
L 342.025613 143.797173 
L 343.111414 129.635845 
L 344.197215 134.009391 
L 345.283016 126.617336 
L 346.368817 143.9969 
L 347.454618 139.617005 
L 348.54042 139.386905 
L 349.626221 141.051743 
L 350.712022 135.833045 
L 351.797823 140.288298 
L 352.883624 129.109972 
L 353.969425 142.485947 
L 355.055227 114.884485 
L 356.141028 138.83945 
L 357.226829 124.904044 
L 358.31263 152.200073 
L 359.398431 123.989438 
L 360.484232 120.662897 
L 361.570033 120.386377 
L 362.655835 114.270595 
L 363.741636 143.06579 
L 364.827437 133.485566 
L 365.913238 127.558525 
L 366.999039 124.960277 
L 368.08484 140.25452 
L 369.170642 138.706799 
L 370.256443 138.72051 
L 371.342244 127.075691 
L 372.428045 139.975941 
L 373.513846 146.280182 
L 374.599647 140.805079 
L 375.685448 132.463968 
L 376.77125 116.841659 
L 377.857051 118.157418 
L 378.942852 137.692511 
L 380.028653 123.83226 
L 381.114454 141.414909 
L 382.200255 151.088508 
L 383.286057 124.300338 
L 384.371858 141.721783 
L 385.457659 130.287285 
L 386.54346 113.064626 
L 387.629261 115.615783 
L 388.715062 80.537281 
L 389.800863 96.448226 
L 390.886665 143.476116 
L 391.972466 134.675394 
L 393.058267 117.637958 
L 394.144068 122.029884 
L 395.229869 144.055068 
L 396.31567 139.087763 
L 397.401472 112.523525 
L 398.487273 133.673358 
L 398.487273 133.673358 
" style="fill:none;stroke:#008000;stroke-dasharray:9.6,2.4,1.5,2.4;stroke-dashoffset:0;stroke-width:1.5;"/>
   </g>
   <g id="line2d_34">
    <path clip-path="url(#p9927a0b49e)" d="M 73.832727 252.190244 
L 74.918528 253.054783 
L 76.00433 241.110397 
L 77.090131 243.563892 
L 78.175932 239.24626 
L 79.261733 225.792273 
L 80.347534 222.786631 
L 82.519137 201.668392 
L 83.604938 193.781514 
L 84.690739 195.620905 
L 85.77654 182.070197 
L 86.862341 170.128893 
L 87.948142 169.757739 
L 89.033943 160.781603 
L 90.119745 169.829209 
L 91.205546 174.714988 
L 92.291347 168.094394 
L 93.377148 160.21489 
L 94.462949 160.886279 
L 95.54875 151.963574 
L 96.634552 163.711919 
L 97.720353 149.709832 
L 98.806154 130.546009 
L 99.891955 121.582063 
L 100.977756 107.936246 
L 102.063557 116.718912 
L 103.149358 116.903752 
L 104.23516 110.492078 
L 105.320961 128.246839 
L 106.406762 100.185673 
L 107.492563 111.276128 
L 108.578364 78.36002 
L 109.664165 109.145772 
L 110.749967 110.166822 
L 111.835768 98.410157 
L 112.921569 108.055626 
L 114.00737 100.777165 
L 115.093171 98.591669 
L 116.178972 89.909316 
L 117.264773 91.450409 
L 118.350575 95.687576 
L 119.436376 84.518188 
L 120.522177 82.065892 
L 121.607978 75.571785 
L 122.693779 84.833705 
L 123.77958 90.426002 
L 124.865382 71.148986 
L 127.036984 91.568186 
L 128.122785 110.586786 
L 129.208586 96.420178 
L 130.294387 109.840504 
L 131.380189 63.853576 
L 132.46599 118.650991 
L 133.551791 88.437143 
L 134.637592 90.228589 
L 135.723393 100.336425 
L 136.809194 87.023089 
L 137.894995 87.030238 
L 138.980797 95.903707 
L 140.066598 76.329603 
L 141.152399 94.152397 
L 142.2382 80.614491 
L 143.324001 117.092821 
L 144.409802 109.604682 
L 145.495604 81.454795 
L 146.581405 73.961204 
L 147.667206 84.099731 
L 148.753007 92.144396 
L 149.838808 85.207781 
L 150.924609 103.746494 
L 152.01041 80.275928 
L 153.096212 91.47619 
L 154.182013 132.990764 
L 155.267814 87.996308 
L 156.353615 78.756615 
L 157.439416 81.820441 
L 158.525217 89.491272 
L 159.611019 115.351064 
L 160.69682 93.428224 
L 161.782621 93.518352 
L 162.868422 96.04198 
L 163.954223 82.065011 
L 165.040024 94.531823 
L 166.125825 86.8702 
L 167.211627 105.343459 
L 168.297428 76.36499 
L 169.383229 89.827022 
L 170.46903 90.556009 
L 171.554831 104.757641 
L 172.640632 83.730827 
L 173.726434 116.201374 
L 174.812235 86.396985 
L 175.898036 111.796188 
L 176.983837 88.948614 
L 178.069638 90.965901 
L 179.155439 107.871854 
L 180.24124 88.070023 
L 181.327042 85.972774 
L 182.412843 87.387442 
L 183.498644 100.723527 
L 184.584445 107.381873 
L 185.670246 85.427101 
L 186.756047 82.685587 
L 187.841849 84.19173 
L 188.92765 93.112276 
L 190.013451 100.127113 
L 191.099252 98.653089 
L 192.185053 114.077293 
L 193.270854 88.905813 
L 194.356656 93.796949 
L 195.442457 92.091762 
L 196.528258 98.510702 
L 197.614059 91.329946 
L 198.69986 102.26312 
L 199.785661 95.891473 
L 200.871462 101.515717 
L 201.957264 91.187819 
L 203.043065 79.554466 
L 204.128866 89.591939 
L 205.214667 95.930401 
L 206.300468 57.913741 
L 207.386269 83.406143 
L 208.472071 81.349301 
L 209.557872 74.432885 
L 210.643673 93.213826 
L 211.729474 73.895288 
L 212.815275 87.973561 
L 213.901076 73.407639 
L 214.986877 84.966015 
L 216.072679 78.320993 
L 217.15848 63.226129 
L 219.330082 95.064752 
L 220.415883 88.100874 
L 221.501684 94.108775 
L 222.587486 85.598783 
L 223.673287 98.759061 
L 224.759088 102.948512 
L 225.844889 86.831745 
L 226.93069 108.601124 
L 228.016491 91.731854 
L 229.102292 93.756842 
L 230.188094 83.722479 
L 231.273895 90.222933 
L 232.359696 85.931443 
L 233.445497 93.133016 
L 236.702901 56.957218 
L 237.788702 80.099187 
L 238.874503 85.473161 
L 241.046105 82.948088 
L 242.131906 71.924547 
L 243.217708 80.905066 
L 244.303509 75.30307 
L 245.38931 53.568 
L 246.475111 65.474773 
L 247.560912 72.27668 
L 248.646713 92.727352 
L 249.732514 78.715375 
L 250.818316 110.387373 
L 251.904117 104.934808 
L 252.989918 95.852923 
L 254.075719 93.332289 
L 255.16152 105.639288 
L 256.247321 83.222767 
L 257.333123 71.631693 
L 258.418924 99.828032 
L 259.504725 92.625608 
L 260.590526 106.93453 
L 261.676327 113.735036 
L 262.762128 75.617853 
L 263.847929 89.869286 
L 264.933731 85.601527 
L 266.019532 117.194596 
L 267.105333 94.322276 
L 268.191134 83.532767 
L 269.276935 104.142005 
L 270.362736 111.929157 
L 271.448538 81.491965 
L 272.534339 102.973421 
L 273.62014 110.016118 
L 274.705941 113.446362 
L 275.791742 121.196223 
L 276.877543 84.951307 
L 277.963344 98.40708 
L 279.049146 90.171728 
L 280.134947 101.40475 
L 281.220748 108.065485 
L 282.306549 86.272232 
L 283.39235 111.193752 
L 284.478151 94.945391 
L 285.563953 98.411357 
L 286.649754 95.803896 
L 287.735555 94.671429 
L 288.821356 98.992233 
L 289.907157 97.873855 
L 290.992958 92.402382 
L 292.07876 90.983627 
L 293.164561 86.641718 
L 294.250362 120.543375 
L 295.336163 104.075736 
L 296.421964 109.209619 
L 297.507765 106.081833 
L 298.593566 103.760727 
L 299.679368 113.514135 
L 300.765169 119.187067 
L 301.85097 104.002333 
L 302.936771 120.400266 
L 304.022572 105.649778 
L 305.108373 107.807148 
L 306.194175 120.034632 
L 307.279976 106.585293 
L 308.365777 110.309969 
L 309.451578 105.371371 
L 310.537379 117.399114 
L 311.62318 111.385648 
L 312.708981 102.158718 
L 313.794783 107.846293 
L 314.880584 126.372238 
L 315.966385 119.061685 
L 317.052186 126.366496 
L 318.137987 105.740275 
L 319.223788 117.003738 
L 320.30959 111.994644 
L 321.395391 100.286009 
L 322.481192 131.562679 
L 323.566993 126.002841 
L 324.652794 112.334001 
L 325.738595 115.566132 
L 326.824396 98.137159 
L 327.910198 99.363291 
L 328.995999 112.430119 
L 330.0818 119.591138 
L 331.167601 108.455856 
L 332.253402 136.572009 
L 333.339203 113.920357 
L 334.425005 119.663725 
L 335.510806 117.633217 
L 336.596607 116.317458 
L 337.682408 111.318167 
L 338.768209 119.346547 
L 339.85401 103.367226 
L 340.939811 108.4859 
L 342.025613 120.249352 
L 343.111414 117.954998 
L 344.197215 114.21972 
L 345.283016 111.792751 
L 346.368817 119.482866 
L 347.454618 119.021182 
L 348.54042 120.100446 
L 349.626221 128.918117 
L 351.797823 112.1563 
L 352.883624 112.43805 
L 353.969425 119.366056 
L 355.055227 94.687175 
L 356.141028 109.154704 
L 357.226829 93.461911 
L 358.31263 135.077777 
L 359.398431 105.396413 
L 360.484232 109.680804 
L 361.570033 90.236886 
L 362.655835 94.35724 
L 363.741636 90.790143 
L 364.827437 95.302485 
L 365.913238 103.504165 
L 366.999039 84.400646 
L 368.08484 104.562409 
L 369.170642 106.687671 
L 370.256443 116.647419 
L 371.342244 92.521229 
L 372.428045 104.295433 
L 373.513846 117.920114 
L 374.599647 109.455857 
L 375.685448 92.087096 
L 376.77125 94.51163 
L 377.857051 89.405876 
L 378.942852 114.496675 
L 380.028653 99.82237 
L 381.114454 122.229682 
L 382.200255 124.824545 
L 383.286057 100.87147 
L 384.371858 98.820407 
L 385.457659 108.935648 
L 386.54346 92.096248 
L 387.629261 90.510666 
L 388.715062 60.685833 
L 389.800863 80.477629 
L 390.886665 114.731522 
L 391.972466 111.024402 
L 393.058267 95.826763 
L 394.144068 91.796794 
L 395.229869 113.003403 
L 396.31567 105.571323 
L 397.401472 80.177281 
L 398.487273 96.748932 
L 398.487273 96.748932 
" style="fill:none;stroke:#ff0000;stroke-linecap:square;stroke-width:1.5;"/>
   </g>
   <g id="patch_3">
    <path d="M 57.6 307.584 
L 57.6 41.472 
" style="fill:none;stroke:#000000;stroke-linecap:square;stroke-linejoin:miter;stroke-width:0.8;"/>
   </g>
   <g id="patch_4">
    <path d="M 414.72 307.584 
L 414.72 41.472 
" style="fill:none;stroke:#000000;stroke-linecap:square;stroke-linejoin:miter;stroke-width:0.8;"/>
   </g>
   <g id="patch_5">
    <path d="M 57.6 307.584 
L 414.72 307.584 
" style="fill:none;stroke:#000000;stroke-linecap:square;stroke-linejoin:miter;stroke-width:0.8;"/>
   </g>
   <g id="patch_6">
    <path d="M 57.6 41.472 
L 414.72 41.472 
" style="fill:none;stroke:#000000;stroke-linecap:square;stroke-linejoin:miter;stroke-width:0.8;"/>
   </g>
   <g id="text_18">
    <!-- Population's average and best fitness -->
    <defs>
     <path d="M 19.671875 64.796875 
L 19.671875 37.40625 
L 32.078125 37.40625 
Q 38.96875 37.40625 42.71875 40.96875 
Q 46.484375 44.53125 46.484375 51.125 
Q 46.484375 57.671875 42.71875 61.234375 
Q 38.96875 64.796875 32.078125 64.796875 
z
M 9.8125 72.90625 
L 32.078125 72.90625 
Q 44.34375 72.90625 50.609375 67.359375 
Q 56.890625 61.8125 56.890625 51.125 
Q 56.890625 40.328125 50.609375 34.8125 
Q 44.34375 29.296875 32.078125 29.296875 
L 19.671875 29.296875 
L 19.671875 0 
L 9.8125 0 
z
" id="DejaVuSans-80"/>
     <path d="M 18.109375 8.203125 
L 18.109375 -20.796875 
L 9.078125 -20.796875 
L 9.078125 54.6875 
L 18.109375 54.6875 
L 18.109375 46.390625 
Q 20.953125 51.265625 25.265625 53.625 
Q 29.59375 56 35.59375 56 
Q 45.5625 56 51.78125 48.09375 
Q 58.015625 40.1875 58.015625 27.296875 
Q 58.015625 14.40625 51.78125 6.484375 
Q 45.5625 -1.421875 35.59375 -1.421875 
Q 29.59375 -1.421875 25.265625 0.953125 
Q 20.953125 3.328125 18.109375 8.203125 
z
M 48.6875 27.296875 
Q 48.6875 37.203125 44.609375 42.84375 
Q 40.53125 48.484375 33.40625 48.484375 
Q 26.265625 48.484375 22.1875 42.84375 
Q 18.109375 37.203125 18.109375 27.296875 
Q 18.109375 17.390625 22.1875 11.75 
Q 26.265625 6.109375 33.40625 6.109375 
Q 40.53125 6.109375 44.609375 11.75 
Q 48.6875 17.390625 48.6875 27.296875 
z
" id="DejaVuSans-112"/>
     <path d="M 8.5 21.578125 
L 8.5 54.6875 
L 17.484375 54.6875 
L 17.484375 21.921875 
Q 17.484375 14.15625 20.5 10.265625 
Q 23.53125 6.390625 29.59375 6.390625 
Q 36.859375 6.390625 41.078125 11.03125 
Q 45.3125 15.671875 45.3125 23.6875 
L 45.3125 54.6875 
L 54.296875 54.6875 
L 54.296875 0 
L 45.3125 0 
L 45.3125 8.40625 
Q 42.046875 3.421875 37.71875 1 
Q 33.40625 -1.421875 27.6875 -1.421875 
Q 18.265625 -1.421875 13.375 4.4375 
Q 8.5 10.296875 8.5 21.578125 
z
M 31.109375 56 
z
" id="DejaVuSans-117"/>
     <path d="M 9.421875 75.984375 
L 18.40625 75.984375 
L 18.40625 0 
L 9.421875 0 
z
" id="DejaVuSans-108"/>
     <path d="M 17.921875 72.90625 
L 17.921875 45.796875 
L 9.625 45.796875 
L 9.625 72.90625 
z
" id="DejaVuSans-39"/>
     <path id="DejaVuSans-32"/>
     <path d="M 2.984375 54.6875 
L 12.5 54.6875 
L 29.59375 8.796875 
L 46.6875 54.6875 
L 56.203125 54.6875 
L 35.6875 0 
L 23.484375 0 
z
" id="DejaVuSans-118"/>
     <path d="M 45.40625 27.984375 
Q 45.40625 37.75 41.375 43.109375 
Q 37.359375 48.484375 30.078125 48.484375 
Q 22.859375 48.484375 18.828125 43.109375 
Q 14.796875 37.75 14.796875 27.984375 
Q 14.796875 18.265625 18.828125 12.890625 
Q 22.859375 7.515625 30.078125 7.515625 
Q 37.359375 7.515625 41.375 12.890625 
Q 45.40625 18.265625 45.40625 27.984375 
z
M 54.390625 6.78125 
Q 54.390625 -7.171875 48.1875 -13.984375 
Q 42 -20.796875 29.203125 -20.796875 
Q 24.46875 -20.796875 20.265625 -20.09375 
Q 16.0625 -19.390625 12.109375 -17.921875 
L 12.109375 -9.1875 
Q 16.0625 -11.328125 19.921875 -12.34375 
Q 23.78125 -13.375 27.78125 -13.375 
Q 36.625 -13.375 41.015625 -8.765625 
Q 45.40625 -4.15625 45.40625 5.171875 
L 45.40625 9.625 
Q 42.625 4.78125 38.28125 2.390625 
Q 33.9375 0 27.875 0 
Q 17.828125 0 11.671875 7.65625 
Q 5.515625 15.328125 5.515625 27.984375 
Q 5.515625 40.671875 11.671875 48.328125 
Q 17.828125 56 27.875 56 
Q 33.9375 56 38.28125 53.609375 
Q 42.625 51.21875 45.40625 46.390625 
L 45.40625 54.6875 
L 54.390625 54.6875 
z
" id="DejaVuSans-103"/>
     <path d="M 45.40625 46.390625 
L 45.40625 75.984375 
L 54.390625 75.984375 
L 54.390625 0 
L 45.40625 0 
L 45.40625 8.203125 
Q 42.578125 3.328125 38.25 0.953125 
Q 33.9375 -1.421875 27.875 -1.421875 
Q 17.96875 -1.421875 11.734375 6.484375 
Q 5.515625 14.40625 5.515625 27.296875 
Q 5.515625 40.1875 11.734375 48.09375 
Q 17.96875 56 27.875 56 
Q 33.9375 56 38.25 53.625 
Q 42.578125 51.265625 45.40625 46.390625 
z
M 14.796875 27.296875 
Q 14.796875 17.390625 18.875 11.75 
Q 22.953125 6.109375 30.078125 6.109375 
Q 37.203125 6.109375 41.296875 11.75 
Q 45.40625 17.390625 45.40625 27.296875 
Q 45.40625 37.203125 41.296875 42.84375 
Q 37.203125 48.484375 30.078125 48.484375 
Q 22.953125 48.484375 18.875 42.84375 
Q 14.796875 37.203125 14.796875 27.296875 
z
" id="DejaVuSans-100"/>
     <path d="M 48.6875 27.296875 
Q 48.6875 37.203125 44.609375 42.84375 
Q 40.53125 48.484375 33.40625 48.484375 
Q 26.265625 48.484375 22.1875 42.84375 
Q 18.109375 37.203125 18.109375 27.296875 
Q 18.109375 17.390625 22.1875 11.75 
Q 26.265625 6.109375 33.40625 6.109375 
Q 40.53125 6.109375 44.609375 11.75 
Q 48.6875 17.390625 48.6875 27.296875 
z
M 18.109375 46.390625 
Q 20.953125 51.265625 25.265625 53.625 
Q 29.59375 56 35.59375 56 
Q 45.5625 56 51.78125 48.09375 
Q 58.015625 40.1875 58.015625 27.296875 
Q 58.015625 14.40625 51.78125 6.484375 
Q 45.5625 -1.421875 35.59375 -1.421875 
Q 29.59375 -1.421875 25.265625 0.953125 
Q 20.953125 3.328125 18.109375 8.203125 
L 18.109375 0 
L 9.078125 0 
L 9.078125 75.984375 
L 18.109375 75.984375 
z
" id="DejaVuSans-98"/>
     <path d="M 37.109375 75.984375 
L 37.109375 68.5 
L 28.515625 68.5 
Q 23.6875 68.5 21.796875 66.546875 
Q 19.921875 64.59375 19.921875 59.515625 
L 19.921875 54.6875 
L 34.71875 54.6875 
L 34.71875 47.703125 
L 19.921875 47.703125 
L 19.921875 0 
L 10.890625 0 
L 10.890625 47.703125 
L 2.296875 47.703125 
L 2.296875 54.6875 
L 10.890625 54.6875 
L 10.890625 58.5 
Q 10.890625 67.625 15.140625 71.796875 
Q 19.390625 75.984375 28.609375 75.984375 
z
" id="DejaVuSans-102"/>
    </defs>
    <g transform="translate(123.315 35.472)scale(0.12 -0.12)">
     <use xlink:href="#DejaVuSans-80"/>
     <use x="60.255859" xlink:href="#DejaVuSans-111"/>
     <use x="121.4375" xlink:href="#DejaVuSans-112"/>
     <use x="184.914062" xlink:href="#DejaVuSans-117"/>
     <use x="248.292969" xlink:href="#DejaVuSans-108"/>
     <use x="276.076172" xlink:href="#DejaVuSans-97"/>
     <use x="337.355469" xlink:href="#DejaVuSans-116"/>
     <use x="376.564453" xlink:href="#DejaVuSans-105"/>
     <use x="404.347656" xlink:href="#DejaVuSans-111"/>
     <use x="465.529297" xlink:href="#DejaVuSans-110"/>
     <use x="528.908203" xlink:href="#DejaVuSans-39"/>
     <use x="556.398438" xlink:href="#DejaVuSans-115"/>
     <use x="608.498047" xlink:href="#DejaVuSans-32"/>
     <use x="640.285156" xlink:href="#DejaVuSans-97"/>
     <use x="701.564453" xlink:href="#DejaVuSans-118"/>
     <use x="760.744141" xlink:href="#DejaVuSans-101"/>
     <use x="822.267578" xlink:href="#DejaVuSans-114"/>
     <use x="863.380859" xlink:href="#DejaVuSans-97"/>
     <use x="924.660156" xlink:href="#DejaVuSans-103"/>
     <use x="988.136719" xlink:href="#DejaVuSans-101"/>
     <use x="1049.660156" xlink:href="#DejaVuSans-32"/>
     <use x="1081.447266" xlink:href="#DejaVuSans-97"/>
     <use x="1142.726562" xlink:href="#DejaVuSans-110"/>
     <use x="1206.105469" xlink:href="#DejaVuSans-100"/>
     <use x="1269.582031" xlink:href="#DejaVuSans-32"/>
     <use x="1301.369141" xlink:href="#DejaVuSans-98"/>
     <use x="1364.845703" xlink:href="#DejaVuSans-101"/>
     <use x="1426.369141" xlink:href="#DejaVuSans-115"/>
     <use x="1478.46875" xlink:href="#DejaVuSans-116"/>
     <use x="1517.677734" xlink:href="#DejaVuSans-32"/>
     <use x="1549.464844" xlink:href="#DejaVuSans-102"/>
     <use x="1584.669922" xlink:href="#DejaVuSans-105"/>
     <use x="1612.453125" xlink:href="#DejaVuSans-116"/>
     <use x="1651.662109" xlink:href="#DejaVuSans-110"/>
     <use x="1715.041016" xlink:href="#DejaVuSans-101"/>
     <use x="1776.564453" xlink:href="#DejaVuSans-115"/>
     <use x="1828.664062" xlink:href="#DejaVuSans-115"/>
    </g>
   </g>
   <g id="legend_1">
    <g id="patch_7">
     <path d="M 199.689687 302.584 
L 272.630313 302.584 
Q 274.630313 302.584 274.630313 300.584 
L 274.630313 242.8715 
Q 274.630313 240.8715 272.630313 240.8715 
L 199.689687 240.8715 
Q 197.689687 240.8715 197.689687 242.8715 
L 197.689687 300.584 
Q 197.689687 302.584 199.689687 302.584 
z
" style="fill:#ffffff;opacity:0.8;stroke:#cccccc;stroke-linejoin:miter;"/>
    </g>
    <g id="line2d_35">
     <path d="M 201.689687 248.969937 
L 221.689687 248.969937 
" style="fill:none;stroke:#0000ff;stroke-linecap:square;stroke-width:1.5;"/>
    </g>
    <g id="line2d_36"/>
    <g id="text_19">
     <!-- average -->
     <g transform="translate(229.689687 252.469937)scale(0.1 -0.1)">
      <use xlink:href="#DejaVuSans-97"/>
      <use x="61.279297" xlink:href="#DejaVuSans-118"/>
      <use x="120.458984" xlink:href="#DejaVuSans-101"/>
      <use x="181.982422" xlink:href="#DejaVuSans-114"/>
      <use x="223.095703" xlink:href="#DejaVuSans-97"/>
      <use x="284.375" xlink:href="#DejaVuSans-103"/>
      <use x="347.851562" xlink:href="#DejaVuSans-101"/>
     </g>
    </g>
    <g id="line2d_37">
     <path d="M 201.689687 263.648062 
L 221.689687 263.648062 
" style="fill:none;stroke:#008000;stroke-dasharray:9.6,2.4,1.5,2.4;stroke-dashoffset:0;stroke-width:1.5;"/>
    </g>
    <g id="line2d_38"/>
    <g id="text_20">
     <!-- -1 sd -->
     <defs>
      <path d="M 4.890625 31.390625 
L 31.203125 31.390625 
L 31.203125 23.390625 
L 4.890625 23.390625 
z
" id="DejaVuSans-45"/>
     </defs>
     <g transform="translate(229.689687 267.148062)scale(0.1 -0.1)">
      <use xlink:href="#DejaVuSans-45"/>
      <use x="36.083984" xlink:href="#DejaVuSans-49"/>
      <use x="99.707031" xlink:href="#DejaVuSans-32"/>
      <use x="131.494141" xlink:href="#DejaVuSans-115"/>
      <use x="183.59375" xlink:href="#DejaVuSans-100"/>
     </g>
    </g>
    <g id="line2d_39">
     <path d="M 201.689687 278.326187 
L 221.689687 278.326187 
" style="fill:none;stroke:#008000;stroke-dasharray:9.6,2.4,1.5,2.4;stroke-dashoffset:0;stroke-width:1.5;"/>
    </g>
    <g id="line2d_40"/>
    <g id="text_21">
     <!-- +1 sd -->
     <defs>
      <path d="M 46 62.703125 
L 46 35.5 
L 73.1875 35.5 
L 73.1875 27.203125 
L 46 27.203125 
L 46 0 
L 37.796875 0 
L 37.796875 27.203125 
L 10.59375 27.203125 
L 10.59375 35.5 
L 37.796875 35.5 
L 37.796875 62.703125 
z
" id="DejaVuSans-43"/>
     </defs>
     <g transform="translate(229.689687 281.826187)scale(0.1 -0.1)">
      <use xlink:href="#DejaVuSans-43"/>
      <use x="83.789062" xlink:href="#DejaVuSans-49"/>
      <use x="147.412109" xlink:href="#DejaVuSans-32"/>
      <use x="179.199219" xlink:href="#DejaVuSans-115"/>
      <use x="231.298828" xlink:href="#DejaVuSans-100"/>
     </g>
    </g>
    <g id="line2d_41">
     <path d="M 201.689687 293.004312 
L 221.689687 293.004312 
" style="fill:none;stroke:#ff0000;stroke-linecap:square;stroke-width:1.5;"/>
    </g>
    <g id="line2d_42"/>
    <g id="text_22">
     <!-- best -->
     <g transform="translate(229.689687 296.504312)scale(0.1 -0.1)">
      <use xlink:href="#DejaVuSans-98"/>
      <use x="63.476562" xlink:href="#DejaVuSans-101"/>
      <use x="125" xlink:href="#DejaVuSans-115"/>
      <use x="177.099609" xlink:href="#DejaVuSans-116"/>
     </g>
    </g>
   </g>
  </g>
 </g>
 <defs>
  <clipPath id="p9927a0b49e">
   <rect height="266.112" width="357.12" x="57.6" y="41.472"/>
  </clipPath>
 </defs>
</svg>
