<?xml version="1.0" encoding="UTF-8" standalone="no"?>
<!DOCTYPE svg PUBLIC "-//W3C//DTD SVG 1.1//EN"
 "http://www.w3.org/Graphics/SVG/1.1/DTD/svg11.dtd">
<!-- Generated by graphviz version 2.40.1 (20161225.0304)
 -->
<!-- Title: %3 Pages: 1 -->
<svg width="643pt" height="770pt"
 viewBox="0.00 0.00 643.38 769.97" xmlns="http://www.w3.org/2000/svg" xmlns:xlink="http://www.w3.org/1999/xlink">
<g id="graph0" class="graph" transform="scale(1 1) rotate(0) translate(4 765.9661)">
<title>%3</title>
<polygon fill="#ffffff" stroke="transparent" points="-4,4 -4,-765.9661 639.383,-765.9661 639.383,4 -4,4"/>
<!-- 0 -->
<g id="node1" class="node">
<title>0</title>
<polygon fill="#d3d3d3" stroke="#000000" points="159.006,-761.9661 138.994,-761.9661 138.994,-744.9661 159.006,-744.9661 159.006,-761.9661"/>
<text text-anchor="middle" x="149" y="-750.7661" font-family="Times,serif" font-size="9.00" fill="#000000">0</text>
</g>
<!-- 1 -->
<g id="node2" class="node">
<title>1</title>
<polygon fill="#d3d3d3" stroke="#000000" points="332.006,-761.9661 311.994,-761.9661 311.994,-744.9661 332.006,-744.9661 332.006,-761.9661"/>
<text text-anchor="middle" x="322" y="-750.7661" font-family="Times,serif" font-size="9.00" fill="#000000">1</text>
</g>
<!-- 0&#45;&gt;1 -->
<!-- E0 -->
<g id="node4" class="node">
<title>E0</title>
<ellipse fill="#87cefa" stroke="#000000" cx="38" cy="-18.383" rx="18.2668" ry="18.2668"/>
<text text-anchor="middle" x="38" y="-15.683" font-family="Times,serif" font-size="9.00" fill="#000000">E0</text>
</g>
<!-- 0&#45;&gt;E0 -->
<g id="edge13" class="edge">
<title>0&#45;&gt;E0</title>
<path fill="none" stroke="#00ff00" stroke-width="1.4485" d="M138.7586,-749.1245C105.0953,-734.0927 0,-680.7987 0,-601.3073 0,-601.3073 0,-601.3073 0,-180.891 0,-132.0003 16.5094,-76.9579 27.7644,-45.1142"/>
<polygon fill="#00ff00" stroke="#00ff00" stroke-width="1.4485" points="31.0857,-46.2219 31.2064,-35.6278 24.5054,-43.8343 31.0857,-46.2219"/>
</g>
<!-- 2 -->
<g id="node3" class="node">
<title>2</title>
<polygon fill="#d3d3d3" stroke="#000000" points="429.006,-761.9661 408.994,-761.9661 408.994,-744.9661 429.006,-744.9661 429.006,-761.9661"/>
<text text-anchor="middle" x="419" y="-750.7661" font-family="Times,serif" font-size="9.00" fill="#000000">2</text>
</g>
<!-- 1&#45;&gt;2 -->
<!-- E4 -->
<g id="node8" class="node">
<title>E4</title>
<ellipse fill="#87cefa" stroke="#000000" cx="369" cy="-18.383" rx="18.2668" ry="18.2668"/>
<text text-anchor="middle" x="369" y="-15.683" font-family="Times,serif" font-size="9.00" fill="#000000">E4</text>
</g>
<!-- 1&#45;&gt;E4 -->
<g id="edge11" class="edge">
<title>1&#45;&gt;E4</title>
<path fill="none" stroke="#ff0000" stroke-width=".6909" d="M324.3579,-744.8698C337.1859,-697.3175 398,-461.5201 398,-264.9743 398,-264.9743 398,-264.9743 398,-180.891 398,-132.9993 385.6428,-78.386 377.0613,-46.2335"/>
<polygon fill="#ff0000" stroke="#ff0000" stroke-width=".6909" points="380.3389,-44.9513 374.319,-36.2329 373.5881,-46.8024 380.3389,-44.9513"/>
</g>
<!-- 3115 -->
<g id="node16" class="node">
<title>3115</title>
<ellipse fill="#add8e6" stroke="#000000" cx="277" cy="-685.1575" rx="23.6187" ry="23.6187"/>
<text text-anchor="middle" x="277" y="-686.9575" font-family="Times,serif" font-size="9.00" fill="#000000">3115</text>
<text text-anchor="middle" x="277" y="-677.9575" font-family="Times,serif" font-size="9.00" fill="#000000">sigm</text>
</g>
<!-- 1&#45;&gt;3115 -->
<g id="edge16" class="edge">
<title>1&#45;&gt;3115</title>
<path fill="none" stroke="#ff0000" stroke-width=".1456" d="M316.3007,-744.8148C311.0992,-736.919 303.1144,-724.7983 295.6974,-713.5396"/>
<polygon fill="#ff0000" stroke="#ff0000" stroke-width=".1456" points="298.6159,-711.6075 290.1917,-705.1822 292.7703,-715.4584 298.6159,-711.6075"/>
</g>
<!-- E5 -->
<g id="node9" class="node">
<title>E5</title>
<ellipse fill="#87cefa" stroke="#000000" cx="452" cy="-18.383" rx="18.2668" ry="18.2668"/>
<text text-anchor="middle" x="452" y="-15.683" font-family="Times,serif" font-size="9.00" fill="#000000">E5</text>
</g>
<!-- 2&#45;&gt;E5 -->
<g id="edge12" class="edge">
<title>2&#45;&gt;E5</title>
<path fill="none" stroke="#00ff00" stroke-width="2.2404" d="M424.1761,-744.9015C437.3289,-722.2975 471,-658.8152 471,-601.3073 471,-601.3073 471,-601.3073 471,-180.891 471,-133.6782 462.9907,-79.2686 457.3724,-46.9096"/>
<polygon fill="#00ff00" stroke="#00ff00" stroke-width="2.2404" points="460.775,-46.0534 455.5738,-36.8232 453.8838,-47.2824 460.775,-46.0534"/>
</g>
<!-- 5389 -->
<g id="node14" class="node">
<title>5389</title>
<ellipse fill="#add8e6" stroke="#000000" cx="419" cy="-601.3073" rx="24.0833" ry="24.0833"/>
<text text-anchor="middle" x="419" y="-603.1073" font-family="Times,serif" font-size="9.00" fill="#000000">5389</text>
<text text-anchor="middle" x="419" y="-594.1073" font-family="Times,serif" font-size="9.00" fill="#000000">sigm</text>
</g>
<!-- 2&#45;&gt;5389 -->
<g id="edge29" class="edge">
<title>2&#45;&gt;5389</title>
<path fill="none" stroke="#00ff00" stroke-width=".5237" d="M419,-744.8494C419,-724.2819 419,-671.3916 419,-635.8832"/>
<polygon fill="#00ff00" stroke="#00ff00" stroke-width=".5237" points="422.5001,-635.4764 419,-625.4764 415.5001,-635.4764 422.5001,-635.4764"/>
</g>
<!-- E1 -->
<g id="node5" class="node">
<title>E1</title>
<ellipse fill="#87cefa" stroke="#000000" cx="128" cy="-18.383" rx="18.2668" ry="18.2668"/>
<text text-anchor="middle" x="128" y="-15.683" font-family="Times,serif" font-size="9.00" fill="#000000">E1</text>
</g>
<!-- E0&#45;&gt;E1 -->
<!-- E2 -->
<g id="node6" class="node">
<title>E2</title>
<ellipse fill="#87cefa" stroke="#000000" cx="218" cy="-18.383" rx="18.2668" ry="18.2668"/>
<text text-anchor="middle" x="218" y="-15.683" font-family="Times,serif" font-size="9.00" fill="#000000">E2</text>
</g>
<!-- E1&#45;&gt;E2 -->
<!-- E3 -->
<g id="node7" class="node">
<title>E3</title>
<ellipse fill="#87cefa" stroke="#000000" cx="298" cy="-18.383" rx="18.2668" ry="18.2668"/>
<text text-anchor="middle" x="298" y="-15.683" font-family="Times,serif" font-size="9.00" fill="#000000">E3</text>
</g>
<!-- E2&#45;&gt;E3 -->
<!-- E3&#45;&gt;E4 -->
<!-- E4&#45;&gt;E5 -->
<!-- E6 -->
<g id="node10" class="node">
<title>E6</title>
<ellipse fill="#87cefa" stroke="#000000" cx="507" cy="-18.383" rx="18.2668" ry="18.2668"/>
<text text-anchor="middle" x="507" y="-15.683" font-family="Times,serif" font-size="9.00" fill="#000000">E6</text>
</g>
<!-- E5&#45;&gt;E6 -->
<!-- E7 -->
<g id="node11" class="node">
<title>E7</title>
<ellipse fill="#87cefa" stroke="#000000" cx="562" cy="-18.383" rx="18.2668" ry="18.2668"/>
<text text-anchor="middle" x="562" y="-15.683" font-family="Times,serif" font-size="9.00" fill="#000000">E7</text>
</g>
<!-- E6&#45;&gt;E7 -->
<!-- E8 -->
<g id="node12" class="node">
<title>E8</title>
<ellipse fill="#87cefa" stroke="#000000" cx="617" cy="-18.383" rx="18.2668" ry="18.2668"/>
<text text-anchor="middle" x="617" y="-15.683" font-family="Times,serif" font-size="9.00" fill="#000000">E8</text>
</g>
<!-- E7&#45;&gt;E8 -->
<!-- 5252 -->
<g id="node13" class="node">
<title>5252</title>
<ellipse fill="#add8e6" stroke="#000000" cx="128" cy="-180.891" rx="24.0833" ry="24.0833"/>
<text text-anchor="middle" x="128" y="-182.691" font-family="Times,serif" font-size="9.00" fill="#000000">5252</text>
<text text-anchor="middle" x="128" y="-173.691" font-family="Times,serif" font-size="9.00" fill="#000000">sigm</text>
</g>
<!-- 5252&#45;&gt;E1 -->
<g id="edge27" class="edge">
<title>5252&#45;&gt;E1</title>
<path fill="none" stroke="#00ff00" stroke-width=".1342" d="M128,-156.5619C128,-127.2561 128,-78.0965 128,-46.9981"/>
<polygon fill="#00ff00" stroke="#00ff00" stroke-width=".1342" points="131.5001,-46.8135 128,-36.8135 124.5001,-46.8136 131.5001,-46.8135"/>
</g>
<!-- 5389&#45;&gt;E1 -->
<g id="edge30" class="edge">
<title>5389&#45;&gt;E1</title>
<path fill="none" stroke="#ff0000" stroke-width=".2174" d="M415.0112,-577.4835C407.8147,-539.4432 390.0385,-463.7161 355,-409.0991 325.4418,-363.0247 309.3803,-357.0616 265,-325.0159 237.9106,-305.4555 219.5918,-315.3298 199,-289.0159 198.0412,-287.7907 153.099,-115.0221 135.2225,-46.2029"/>
<polygon fill="#ff0000" stroke="#ff0000" stroke-width=".2174" points="138.5945,-45.2626 132.6931,-36.4636 131.8193,-47.0223 138.5945,-45.2626"/>
</g>
<!-- 4127 -->
<g id="node15" class="node">
<title>4127</title>
<ellipse fill="#add8e6" stroke="#000000" cx="298" cy="-96.8077" rx="24.0833" ry="24.0833"/>
<text text-anchor="middle" x="298" y="-98.6077" font-family="Times,serif" font-size="9.00" fill="#000000">4127</text>
<text text-anchor="middle" x="298" y="-89.6077" font-family="Times,serif" font-size="9.00" fill="#000000">sigm</text>
</g>
<!-- 4127&#45;&gt;E3 -->
<g id="edge20" class="edge">
<title>4127&#45;&gt;E3</title>
<path fill="none" stroke="#ff0000" stroke-width=".421" d="M298,-72.4236C298,-64.33 298,-55.248 298,-46.8729"/>
<polygon fill="#ff0000" stroke="#ff0000" stroke-width=".421" points="301.5001,-46.7701 298,-36.7702 294.5001,-46.7702 301.5001,-46.7701"/>
</g>
<!-- 3697 -->
<g id="node21" class="node">
<title>3697</title>
<ellipse fill="#add8e6" stroke="#000000" cx="264" cy="-601.3073" rx="24.0833" ry="24.0833"/>
<text text-anchor="middle" x="264" y="-603.1073" font-family="Times,serif" font-size="9.00" fill="#000000">3697</text>
<text text-anchor="middle" x="264" y="-594.1073" font-family="Times,serif" font-size="9.00" fill="#000000">sigm</text>
</g>
<!-- 3115&#45;&gt;3697 -->
<g id="edge17" class="edge">
<title>3115&#45;&gt;3697</title>
<path fill="none" stroke="#ff0000" stroke-width=".3187" d="M273.3095,-661.3537C272.047,-653.2105 270.6094,-643.9378 269.2479,-635.1564"/>
<polygon fill="#ff0000" stroke="#ff0000" stroke-width=".3187" points="272.6906,-634.5163 267.6997,-625.1706 265.7732,-635.5888 272.6906,-634.5163"/>
</g>
<!-- 2870 -->
<g id="node17" class="node">
<title>2870</title>
<ellipse fill="#add8e6" stroke="#000000" cx="270" cy="-180.891" rx="24.0833" ry="24.0833"/>
<text text-anchor="middle" x="270" y="-182.691" font-family="Times,serif" font-size="9.00" fill="#000000">2870</text>
<text text-anchor="middle" x="270" y="-173.691" font-family="Times,serif" font-size="9.00" fill="#000000">sigm</text>
</g>
<!-- 2870&#45;&gt;4127 -->
<g id="edge32" class="edge">
<title>2870&#45;&gt;4127</title>
<path fill="none" stroke="#00ff00" stroke-width=".4424" d="M277.6511,-157.9149C280.5834,-149.1094 283.9871,-138.8882 287.1619,-129.3544"/>
<polygon fill="#00ff00" stroke="#00ff00" stroke-width=".4424" points="290.5193,-130.3497 290.3581,-119.7561 283.8779,-128.138 290.5193,-130.3497"/>
</g>
<!-- 3903 -->
<g id="node18" class="node">
<title>3903</title>
<ellipse fill="#add8e6" stroke="#000000" cx="322" cy="-433.1408" rx="24.0833" ry="24.0833"/>
<text text-anchor="middle" x="322" y="-434.9408" font-family="Times,serif" font-size="9.00" fill="#000000">3903</text>
<text text-anchor="middle" x="322" y="-425.9408" font-family="Times,serif" font-size="9.00" fill="#000000">sigm</text>
</g>
<!-- 3903&#45;&gt;E4 -->
<g id="edge22" class="edge">
<title>3903&#45;&gt;E4</title>
<path fill="none" stroke="#00ff00" stroke-width=".1704" d="M324.7301,-409.0489C332.8883,-337.0553 357.0595,-123.7536 365.8002,-46.6197"/>
<polygon fill="#00ff00" stroke="#00ff00" stroke-width=".1704" points="369.2796,-46.9989 366.9279,-36.6684 362.3241,-46.2106 369.2796,-46.9989"/>
</g>
<!-- 1659 -->
<g id="node22" class="node">
<title>1659</title>
<ellipse fill="#add8e6" stroke="#000000" cx="232" cy="-349.0575" rx="24.0833" ry="24.0833"/>
<text text-anchor="middle" x="232" y="-350.8575" font-family="Times,serif" font-size="9.00" fill="#000000">1659</text>
<text text-anchor="middle" x="232" y="-341.8575" font-family="Times,serif" font-size="9.00" fill="#000000">sigm</text>
</g>
<!-- 3903&#45;&gt;1659 -->
<g id="edge25" class="edge">
<title>3903&#45;&gt;1659</title>
<path fill="none" stroke="#ff0000" stroke-width=".5325" d="M304.2189,-416.5286C290.7827,-403.9758 272.1608,-386.5781 257.1921,-372.5934"/>
<polygon fill="#ff0000" stroke="#ff0000" stroke-width=".5325" points="259.4408,-369.9045 249.7442,-365.6352 254.662,-375.0195 259.4408,-369.9045"/>
</g>
<!-- 2388 -->
<g id="node19" class="node">
<title>2388</title>
<ellipse fill="#add8e6" stroke="#000000" cx="251" cy="-517.224" rx="24.0833" ry="24.0833"/>
<text text-anchor="middle" x="251" y="-519.024" font-family="Times,serif" font-size="9.00" fill="#000000">2388</text>
<text text-anchor="middle" x="251" y="-510.024" font-family="Times,serif" font-size="9.00" fill="#000000">sigm</text>
</g>
<!-- 2388&#45;&gt;E0 -->
<g id="edge15" class="edge">
<title>2388&#45;&gt;E0</title>
<path fill="none" stroke="#00ff00" stroke-width=".2648" d="M227.2267,-513.5888C193.8513,-507.3845 132.8478,-491.8845 94,-457.1824 53.6397,-421.1292 38,-403.1758 38,-349.0575 38,-349.0575 38,-349.0575 38,-180.891 38,-133.9976 38,-79.4927 38,-47.0274"/>
<polygon fill="#00ff00" stroke="#00ff00" stroke-width=".2648" points="41.5001,-46.9052 38,-36.9052 34.5001,-46.9053 41.5001,-46.9052"/>
</g>
<!-- 2388&#45;&gt;E1 -->
<g id="edge28" class="edge">
<title>2388&#45;&gt;E1</title>
<path fill="none" stroke="#00ff00" stroke-width=".356" d="M228.4801,-508.2422C181.2154,-487.737 76,-432.6975 76,-349.0575 76,-349.0575 76,-349.0575 76,-180.891 76,-130.6394 98.8341,-75.6272 114.2398,-44.23"/>
<polygon fill="#00ff00" stroke="#00ff00" stroke-width=".356" points="117.566,-45.4069 118.9423,-34.9019 111.3154,-42.2558 117.566,-45.4069"/>
</g>
<!-- 2388&#45;&gt;4127 -->
<g id="edge19" class="edge">
<title>2388&#45;&gt;4127</title>
<path fill="none" stroke="#ff0000" stroke-width=".2135" d="M256.3309,-493.4931C267.6972,-441.5362 294.0094,-313.6646 303,-204.9326 305.0401,-180.2602 303.6563,-152.3466 301.8323,-131.0618"/>
<polygon fill="#ff0000" stroke="#ff0000" stroke-width=".2135" points="305.2972,-130.5211 300.8845,-120.8889 298.3273,-131.1705 305.2972,-130.5211"/>
</g>
<!-- 2388&#45;&gt;3903 -->
<g id="edge23" class="edge">
<title>2388&#45;&gt;3903</title>
<path fill="none" stroke="#00ff00" stroke-width=".5324" d="M266.7572,-498.5632C276.4089,-487.133 288.9155,-472.3218 299.5873,-459.6835"/>
<polygon fill="#00ff00" stroke="#00ff00" stroke-width=".5324" points="302.5094,-461.648 306.2868,-451.7494 297.161,-457.1318 302.5094,-461.648"/>
</g>
<!-- 2388&#45;&gt;1659 -->
<g id="edge14" class="edge">
<title>2388&#45;&gt;1659</title>
<path fill="none" stroke="#ff0000" stroke-width=".252" d="M248.2778,-493.1299C245.0186,-464.2834 239.5387,-415.7814 235.8476,-383.1124"/>
<polygon fill="#ff0000" stroke="#ff0000" stroke-width=".252" points="239.3178,-382.6508 234.7172,-373.107 232.3621,-383.4367 239.3178,-382.6508"/>
</g>
<!-- 4583 -->
<g id="node20" class="node">
<title>4583</title>
<ellipse fill="#add8e6" stroke="#000000" cx="232" cy="-264.9743" rx="24.0833" ry="24.0833"/>
<text text-anchor="middle" x="232" y="-266.7743" font-family="Times,serif" font-size="9.00" fill="#000000">4583</text>
<text text-anchor="middle" x="232" y="-257.7743" font-family="Times,serif" font-size="9.00" fill="#000000">sigm</text>
</g>
<!-- 4583&#45;&gt;E2 -->
<g id="edge31" class="edge">
<title>4583&#45;&gt;E2</title>
<path fill="none" stroke="#00ff00" stroke-width=".7802" d="M230.6321,-240.8811C228.0415,-195.2506 222.4296,-96.4042 219.6411,-47.2889"/>
<polygon fill="#00ff00" stroke="#00ff00" stroke-width=".7802" points="223.1207,-46.8286 219.0594,-37.0431 216.132,-47.2254 223.1207,-46.8286"/>
</g>
<!-- 4583&#45;&gt;2870 -->
<g id="edge24" class="edge">
<title>4583&#45;&gt;2870</title>
<path fill="none" stroke="#00ff00" stroke-width=".1067" d="M241.9841,-242.8824C246.2167,-233.5166 251.2265,-222.4314 255.8309,-212.2431"/>
<polygon fill="#00ff00" stroke="#00ff00" stroke-width=".1067" points="259.1537,-213.3894 260.0826,-202.8353 252.7749,-210.5065 259.1537,-213.3894"/>
</g>
<!-- 3697&#45;&gt;2388 -->
<g id="edge18" class="edge">
<title>3697&#45;&gt;2388</title>
<path fill="none" stroke="#ff0000" stroke-width=".2886" d="M260.3095,-577.4373C259.047,-569.2715 257.6094,-559.973 256.2479,-551.1672"/>
<polygon fill="#ff0000" stroke="#ff0000" stroke-width=".2886" points="259.6867,-550.5015 254.6997,-541.1537 252.7688,-551.5711 259.6867,-550.5015"/>
</g>
<!-- 1659&#45;&gt;5252 -->
<g id="edge26" class="edge">
<title>1659&#45;&gt;5252</title>
<path fill="none" stroke="#ff0000" stroke-width=".2728" d="M212.2314,-335.3128C197.6654,-324.2825 178.323,-307.6091 166,-289.0159 150.939,-266.2915 141.1144,-236.9189 135.2354,-214.5241"/>
<polygon fill="#ff0000" stroke="#ff0000" stroke-width=".2728" points="138.6202,-213.6323 132.8072,-204.7746 131.8277,-215.324 138.6202,-213.6323"/>
</g>
<!-- 1659&#45;&gt;4583 -->
<g id="edge21" class="edge">
<title>1659&#45;&gt;4583</title>
<path fill="none" stroke="#ff0000" stroke-width=".1761" d="M232,-324.7372C232,-316.8063 232,-307.8457 232,-299.3219"/>
<polygon fill="#ff0000" stroke="#ff0000" stroke-width=".1761" points="235.5001,-299.2399 232,-289.24 228.5001,-299.24 235.5001,-299.2399"/>
</g>
</g>
</svg>
