<?xml version="1.0" encoding="UTF-8" standalone="no"?>
<!DOCTYPE svg PUBLIC "-//W3C//DTD SVG 1.1//EN"
 "http://www.w3.org/Graphics/SVG/1.1/DTD/svg11.dtd">
<!-- Generated by graphviz version 2.40.1 (20161225.0304)
 -->
<!-- Title: %3 Pages: 1 -->
<svg width="386pt" height="259pt"
 viewBox="0.00 0.00 386.00 258.87" xmlns="http://www.w3.org/2000/svg" xmlns:xlink="http://www.w3.org/1999/xlink">
<g id="graph0" class="graph" transform="scale(1 1) rotate(0) translate(4 254.8726)">
<title>%3</title>
<polygon fill="#ffffff" stroke="transparent" points="-4,4 -4,-254.8726 381.9976,-254.8726 381.9976,4 -4,4"/>
<!-- E0 -->
<g id="node1" class="node">
<title>E0</title>
<polygon fill="#d3d3d3" stroke="#000000" points="25.9963,-250.8726 .0012,-250.8726 .0012,-233.8726 25.9963,-233.8726 25.9963,-250.8726"/>
<text text-anchor="middle" x="12.9988" y="-239.6726" font-family="Times,serif" font-size="9.00" fill="#000000">E0</text>
</g>
<!-- E1 -->
<g id="node2" class="node">
<title>E1</title>
<polygon fill="#d3d3d3" stroke="#000000" points="69.9963,-250.8726 44.0012,-250.8726 44.0012,-233.8726 69.9963,-233.8726 69.9963,-250.8726"/>
<text text-anchor="middle" x="56.9988" y="-239.6726" font-family="Times,serif" font-size="9.00" fill="#000000">E1</text>
</g>
<!-- E0&#45;&gt;E1 -->
<!-- 1 -->
<g id="node11" class="node">
<title>1</title>
<ellipse fill="#87cefa" stroke="#000000" cx="212.9988" cy="-14.853" rx="14.4914" ry="14.4914"/>
<text text-anchor="middle" x="212.9988" y="-12.153" font-family="Times,serif" font-size="9.00" fill="#000000">1</text>
</g>
<!-- E0&#45;&gt;1 -->
<g id="edge17" class="edge">
<title>E0&#45;&gt;1</title>
<path fill="none" stroke="#00ff00" stroke-width=".5187" d="M26.4454,-237.0235C29.2594,-235.9474 32.2168,-234.8482 34.9988,-233.8726 85.138,-216.2894 110.8592,-234.8656 148.9988,-197.8726 193.6122,-154.6004 207.1637,-78.5408 211.2521,-39.5003"/>
<polygon fill="#00ff00" stroke="#00ff00" stroke-width=".5187" points="214.7385,-39.8078 212.1722,-29.5285 207.7681,-39.1646 214.7385,-39.8078"/>
</g>
<!-- 3248 -->
<g id="node16" class="node">
<title>3248</title>
<ellipse fill="#add8e6" stroke="#000000" cx="115.9988" cy="-173.831" rx="24.0833" ry="24.0833"/>
<text text-anchor="middle" x="115.9988" y="-175.631" font-family="Times,serif" font-size="9.00" fill="#000000">3248</text>
<text text-anchor="middle" x="115.9988" y="-166.631" font-family="Times,serif" font-size="9.00" fill="#000000">sigm</text>
</g>
<!-- E0&#45;&gt;3248 -->
<g id="edge14" class="edge">
<title>E0&#45;&gt;3248</title>
<path fill="none" stroke="#00ff00" stroke-width="1.0258" d="M26.0438,-233.6918C41.3219,-223.5249 67.0903,-206.3772 87.1413,-193.0343"/>
<polygon fill="#00ff00" stroke="#00ff00" stroke-width="1.0258" points="89.2285,-195.8495 95.6147,-187.3956 85.3505,-190.0219 89.2285,-195.8495"/>
</g>
<!-- E2 -->
<g id="node3" class="node">
<title>E2</title>
<polygon fill="#d3d3d3" stroke="#000000" points="113.9963,-250.8726 88.0012,-250.8726 88.0012,-233.8726 113.9963,-233.8726 113.9963,-250.8726"/>
<text text-anchor="middle" x="100.9988" y="-239.6726" font-family="Times,serif" font-size="9.00" fill="#000000">E2</text>
</g>
<!-- E1&#45;&gt;E2 -->
<!-- S -->
<g id="node13" class="node">
<title>S</title>
<ellipse fill="#87cefa" stroke="#000000" cx="326.9988" cy="-14.853" rx="14.7075" ry="14.7075"/>
<text text-anchor="middle" x="326.9988" y="-12.153" font-family="Times,serif" font-size="9.00" fill="#000000">S</text>
</g>
<!-- E1&#45;&gt;S -->
<g id="edge13" class="edge">
<title>E1&#45;&gt;S</title>
<path fill="none" stroke="#ff0000" stroke-width=".4715" d="M70.0089,-237.2887C72.9598,-236.1516 76.0832,-234.9605 78.9988,-233.8726 123.2551,-217.3595 140.5039,-225.2487 178.9988,-197.8726 241.9324,-153.1167 292.6037,-74.7002 314.8204,-36.7116"/>
<polygon fill="#ff0000" stroke="#ff0000" stroke-width=".4715" points="317.8963,-38.3835 319.8458,-27.9696 311.8276,-34.8949 317.8963,-38.3835"/>
</g>
<!-- 5570 -->
<g id="node14" class="node">
<title>5570</title>
<ellipse fill="#add8e6" stroke="#000000" cx="56.9988" cy="-89.7477" rx="24.0833" ry="24.0833"/>
<text text-anchor="middle" x="56.9988" y="-91.5477" font-family="Times,serif" font-size="9.00" fill="#000000">5570</text>
<text text-anchor="middle" x="56.9988" y="-82.5477" font-family="Times,serif" font-size="9.00" fill="#000000">sigm</text>
</g>
<!-- E1&#45;&gt;5570 -->
<g id="edge20" class="edge">
<title>E1&#45;&gt;5570</title>
<path fill="none" stroke="#00ff00" stroke-width=".1513" d="M56.9988,-233.7295C56.9988,-213.099 56.9988,-160.0468 56.9988,-124.4295"/>
<polygon fill="#00ff00" stroke="#00ff00" stroke-width=".1513" points="60.4989,-123.9908 56.9988,-113.9909 53.4989,-123.9909 60.4989,-123.9908"/>
</g>
<!-- E3 -->
<g id="node4" class="node">
<title>E3</title>
<polygon fill="#d3d3d3" stroke="#000000" points="157.9963,-250.8726 132.0012,-250.8726 132.0012,-233.8726 157.9963,-233.8726 157.9963,-250.8726"/>
<text text-anchor="middle" x="144.9988" y="-239.6726" font-family="Times,serif" font-size="9.00" fill="#000000">E3</text>
</g>
<!-- E2&#45;&gt;E3 -->
<!-- E4 -->
<g id="node5" class="node">
<title>E4</title>
<polygon fill="#d3d3d3" stroke="#000000" points="201.9963,-250.8726 176.0012,-250.8726 176.0012,-233.8726 201.9963,-233.8726 201.9963,-250.8726"/>
<text text-anchor="middle" x="188.9988" y="-239.6726" font-family="Times,serif" font-size="9.00" fill="#000000">E4</text>
</g>
<!-- E3&#45;&gt;E4 -->
<!-- E5 -->
<g id="node6" class="node">
<title>E5</title>
<polygon fill="#d3d3d3" stroke="#000000" points="245.9963,-250.8726 220.0012,-250.8726 220.0012,-233.8726 245.9963,-233.8726 245.9963,-250.8726"/>
<text text-anchor="middle" x="232.9988" y="-239.6726" font-family="Times,serif" font-size="9.00" fill="#000000">E5</text>
</g>
<!-- E4&#45;&gt;E5 -->
<!-- E6 -->
<g id="node7" class="node">
<title>E6</title>
<polygon fill="#d3d3d3" stroke="#000000" points="289.9963,-250.8726 264.0012,-250.8726 264.0012,-233.8726 289.9963,-233.8726 289.9963,-250.8726"/>
<text text-anchor="middle" x="276.9988" y="-239.6726" font-family="Times,serif" font-size="9.00" fill="#000000">E6</text>
</g>
<!-- E5&#45;&gt;E6 -->
<!-- E5&#45;&gt;1 -->
<g id="edge15" class="edge">
<title>E5&#45;&gt;1</title>
<path fill="none" stroke="#ff0000" stroke-width=".1253" d="M232.2392,-233.7314C229.4339,-201.8191 219.5921,-89.8582 215.1742,-39.6001"/>
<polygon fill="#ff0000" stroke="#ff0000" stroke-width=".1253" points="218.6565,-39.2446 214.2942,-29.5895 211.6834,-39.8576 218.6565,-39.2446"/>
</g>
<!-- E7 -->
<g id="node8" class="node">
<title>E7</title>
<polygon fill="#d3d3d3" stroke="#000000" points="333.9963,-250.8726 308.0012,-250.8726 308.0012,-233.8726 333.9963,-233.8726 333.9963,-250.8726"/>
<text text-anchor="middle" x="320.9988" y="-239.6726" font-family="Times,serif" font-size="9.00" fill="#000000">E7</text>
</g>
<!-- E6&#45;&gt;E7 -->
<!-- 0 -->
<g id="node10" class="node">
<title>0</title>
<ellipse fill="#87cefa" stroke="#000000" cx="165.9988" cy="-14.853" rx="14.4914" ry="14.4914"/>
<text text-anchor="middle" x="165.9988" y="-12.153" font-family="Times,serif" font-size="9.00" fill="#000000">0</text>
</g>
<!-- E6&#45;&gt;0 -->
<g id="edge16" class="edge">
<title>E6&#45;&gt;0</title>
<path fill="none" stroke="#ff0000" stroke-width=".5419" d="M272.783,-233.7314C256.9634,-201.3056 200.8236,-86.2344 176.9122,-37.2225"/>
<polygon fill="#ff0000" stroke="#ff0000" stroke-width=".5419" points="179.9831,-35.5347 172.4527,-28.0819 173.6919,-38.604 179.9831,-35.5347"/>
</g>
<!-- E8 -->
<g id="node9" class="node">
<title>E8</title>
<polygon fill="#d3d3d3" stroke="#000000" points="377.9963,-250.8726 352.0012,-250.8726 352.0012,-233.8726 377.9963,-233.8726 377.9963,-250.8726"/>
<text text-anchor="middle" x="364.9988" y="-239.6726" font-family="Times,serif" font-size="9.00" fill="#000000">E8</text>
</g>
<!-- E7&#45;&gt;E8 -->
<!-- E7&#45;&gt;1 -->
<g id="edge22" class="edge">
<title>E7&#45;&gt;1</title>
<path fill="none" stroke="#00ff00" stroke-width=".3736" d="M319.7733,-233.6579C315.694,-206.8306 300.7542,-123.7954 264.9988,-65.7061 256.5596,-51.9955 243.628,-39.3278 232.7722,-30.0651"/>
<polygon fill="#00ff00" stroke="#00ff00" stroke-width=".3736" points="234.9377,-27.3147 224.9841,-23.6847 230.5016,-32.7295 234.9377,-27.3147"/>
</g>
<!-- 2 -->
<g id="node12" class="node">
<title>2</title>
<ellipse fill="#87cefa" stroke="#000000" cx="279.9988" cy="-14.853" rx="14.4914" ry="14.4914"/>
<text text-anchor="middle" x="279.9988" y="-12.153" font-family="Times,serif" font-size="9.00" fill="#000000">2</text>
</g>
<!-- E8&#45;&gt;2 -->
<g id="edge12" class="edge">
<title>E8&#45;&gt;2</title>
<path fill="none" stroke="#ff0000" stroke-width="2.0466" d="M362.29,-233.8168C354.0867,-208.1042 328.5109,-129.3706 302.9988,-65.7061 299.2278,-56.2957 294.6975,-46.0833 290.6584,-37.2962"/>
<polygon fill="#ff0000" stroke="#ff0000" stroke-width="2.0466" points="293.7694,-35.6859 286.3735,-28.0997 287.4243,-38.6423 293.7694,-35.6859"/>
</g>
<!-- 0&#45;&gt;1 -->
<!-- 1&#45;&gt;2 -->
<!-- 2&#45;&gt;S -->
<!-- 5570&#45;&gt;0 -->
<g id="edge21" class="edge">
<title>5570&#45;&gt;0</title>
<path fill="none" stroke="#00ff00" stroke-width=".4572" d="M76.4498,-75.3797C80.8795,-72.1627 85.5822,-68.7907 89.9988,-65.7061 108.4301,-52.8334 129.7255,-38.6417 145.0766,-28.5291"/>
<polygon fill="#00ff00" stroke="#00ff00" stroke-width=".4572" points="147.3507,-31.2229 153.7879,-22.8079 143.508,-25.3719 147.3507,-31.2229"/>
</g>
<!-- 5160 -->
<g id="node15" class="node">
<title>5160</title>
<ellipse fill="#add8e6" stroke="#000000" cx="122.9988" cy="-89.7477" rx="24.0833" ry="24.0833"/>
<text text-anchor="middle" x="122.9988" y="-91.5477" font-family="Times,serif" font-size="9.00" fill="#000000">5160</text>
<text text-anchor="middle" x="122.9988" y="-82.5477" font-family="Times,serif" font-size="9.00" fill="#000000">sigm</text>
</g>
<!-- 5160&#45;&gt;1 -->
<g id="edge19" class="edge">
<title>5160&#45;&gt;1</title>
<path fill="none" stroke="#00ff00" stroke-width="2.8747" d="M141.6468,-74.2295C156.9386,-61.5042 178.4988,-43.5627 193.9095,-30.7384"/>
<polygon fill="#00ff00" stroke="#00ff00" stroke-width="2.8747" points="196.3116,-33.2928 201.7595,-24.2059 191.834,-27.9122 196.3116,-33.2928"/>
</g>
<!-- 3248&#45;&gt;5160 -->
<g id="edge18" class="edge">
<title>3248&#45;&gt;5160</title>
<path fill="none" stroke="#00ff00" stroke-width=".7584" d="M118.0235,-149.5106C118.6895,-141.5108 119.4427,-132.4632 120.1578,-123.8731"/>
<polygon fill="#00ff00" stroke="#00ff00" stroke-width=".7584" points="123.661,-123.979 121.0028,-113.723 116.6852,-123.3982 123.661,-123.979"/>
</g>
</g>
</svg>
