<?xml version="1.0" encoding="utf-8" standalone="no"?>
<!DOCTYPE svg PUBLIC "-//W3C//DTD SVG 1.1//EN"
  "http://www.w3.org/Graphics/SVG/1.1/DTD/svg11.dtd">
<!-- Created with matplotlib (https://matplotlib.org/) -->
<svg height="345.6pt" version="1.1" viewBox="0 0 460.8 345.6" width="460.8pt" xmlns="http://www.w3.org/2000/svg" xmlns:xlink="http://www.w3.org/1999/xlink">
 <defs>
  <style type="text/css">
*{stroke-linecap:butt;stroke-linejoin:round;}
  </style>
 </defs>
 <g id="figure_1">
  <g id="patch_1">
   <path d="M 0 345.6 
L 460.8 345.6 
L 460.8 0 
L 0 0 
z
" style="fill:#ffffff;"/>
  </g>
  <g id="axes_1">
   <g id="patch_2">
    <path d="M 57.6 307.584 
L 414.72 307.584 
L 414.72 41.472 
L 57.6 41.472 
z
" style="fill:#ffffff;"/>
   </g>
   <g id="matplotlib.axis_1">
    <g id="xtick_1">
     <g id="line2d_1">
      <path clip-path="url(#p06808b8991)" d="M 73.832727 307.584 
L 73.832727 41.472 
" style="fill:none;stroke:#b0b0b0;stroke-linecap:square;stroke-width:0.8;"/>
     </g>
     <g id="line2d_2">
      <defs>
       <path d="M 0 0 
L 0 3.5 
" id="mc7634cc949" style="stroke:#000000;stroke-width:0.8;"/>
      </defs>
      <g>
       <use style="stroke:#000000;stroke-width:0.8;" x="73.832727" xlink:href="#mc7634cc949" y="307.584"/>
      </g>
     </g>
     <g id="text_1">
      <!-- 0 -->
      <defs>
       <path d="M 31.78125 66.40625 
Q 24.171875 66.40625 20.328125 58.90625 
Q 16.5 51.421875 16.5 36.375 
Q 16.5 21.390625 20.328125 13.890625 
Q 24.171875 6.390625 31.78125 6.390625 
Q 39.453125 6.390625 43.28125 13.890625 
Q 47.125 21.390625 47.125 36.375 
Q 47.125 51.421875 43.28125 58.90625 
Q 39.453125 66.40625 31.78125 66.40625 
z
M 31.78125 74.21875 
Q 44.046875 74.21875 50.515625 64.515625 
Q 56.984375 54.828125 56.984375 36.375 
Q 56.984375 17.96875 50.515625 8.265625 
Q 44.046875 -1.421875 31.78125 -1.421875 
Q 19.53125 -1.421875 13.0625 8.265625 
Q 6.59375 17.96875 6.59375 36.375 
Q 6.59375 54.828125 13.0625 64.515625 
Q 19.53125 74.21875 31.78125 74.21875 
z
" id="DejaVuSans-48"/>
      </defs>
      <g transform="translate(70.651477 322.182437)scale(0.1 -0.1)">
       <use xlink:href="#DejaVuSans-48"/>
      </g>
     </g>
    </g>
    <g id="xtick_2">
     <g id="line2d_3">
      <path clip-path="url(#p06808b8991)" d="M 128.122785 307.584 
L 128.122785 41.472 
" style="fill:none;stroke:#b0b0b0;stroke-linecap:square;stroke-width:0.8;"/>
     </g>
     <g id="line2d_4">
      <g>
       <use style="stroke:#000000;stroke-width:0.8;" x="128.122785" xlink:href="#mc7634cc949" y="307.584"/>
      </g>
     </g>
     <g id="text_2">
      <!-- 50 -->
      <defs>
       <path d="M 10.796875 72.90625 
L 49.515625 72.90625 
L 49.515625 64.59375 
L 19.828125 64.59375 
L 19.828125 46.734375 
Q 21.96875 47.46875 24.109375 47.828125 
Q 26.265625 48.1875 28.421875 48.1875 
Q 40.625 48.1875 47.75 41.5 
Q 54.890625 34.8125 54.890625 23.390625 
Q 54.890625 11.625 47.5625 5.09375 
Q 40.234375 -1.421875 26.90625 -1.421875 
Q 22.3125 -1.421875 17.546875 -0.640625 
Q 12.796875 0.140625 7.71875 1.703125 
L 7.71875 11.625 
Q 12.109375 9.234375 16.796875 8.0625 
Q 21.484375 6.890625 26.703125 6.890625 
Q 35.15625 6.890625 40.078125 11.328125 
Q 45.015625 15.765625 45.015625 23.390625 
Q 45.015625 31 40.078125 35.4375 
Q 35.15625 39.890625 26.703125 39.890625 
Q 22.75 39.890625 18.8125 39.015625 
Q 14.890625 38.140625 10.796875 36.28125 
z
" id="DejaVuSans-53"/>
      </defs>
      <g transform="translate(121.760285 322.182437)scale(0.1 -0.1)">
       <use xlink:href="#DejaVuSans-53"/>
       <use x="63.623047" xlink:href="#DejaVuSans-48"/>
      </g>
     </g>
    </g>
    <g id="xtick_3">
     <g id="line2d_5">
      <path clip-path="url(#p06808b8991)" d="M 182.412843 307.584 
L 182.412843 41.472 
" style="fill:none;stroke:#b0b0b0;stroke-linecap:square;stroke-width:0.8;"/>
     </g>
     <g id="line2d_6">
      <g>
       <use style="stroke:#000000;stroke-width:0.8;" x="182.412843" xlink:href="#mc7634cc949" y="307.584"/>
      </g>
     </g>
     <g id="text_3">
      <!-- 100 -->
      <defs>
       <path d="M 12.40625 8.296875 
L 28.515625 8.296875 
L 28.515625 63.921875 
L 10.984375 60.40625 
L 10.984375 69.390625 
L 28.421875 72.90625 
L 38.28125 72.90625 
L 38.28125 8.296875 
L 54.390625 8.296875 
L 54.390625 0 
L 12.40625 0 
z
" id="DejaVuSans-49"/>
      </defs>
      <g transform="translate(172.869093 322.182437)scale(0.1 -0.1)">
       <use xlink:href="#DejaVuSans-49"/>
       <use x="63.623047" xlink:href="#DejaVuSans-48"/>
       <use x="127.246094" xlink:href="#DejaVuSans-48"/>
      </g>
     </g>
    </g>
    <g id="xtick_4">
     <g id="line2d_7">
      <path clip-path="url(#p06808b8991)" d="M 236.702901 307.584 
L 236.702901 41.472 
" style="fill:none;stroke:#b0b0b0;stroke-linecap:square;stroke-width:0.8;"/>
     </g>
     <g id="line2d_8">
      <g>
       <use style="stroke:#000000;stroke-width:0.8;" x="236.702901" xlink:href="#mc7634cc949" y="307.584"/>
      </g>
     </g>
     <g id="text_4">
      <!-- 150 -->
      <g transform="translate(227.159151 322.182437)scale(0.1 -0.1)">
       <use xlink:href="#DejaVuSans-49"/>
       <use x="63.623047" xlink:href="#DejaVuSans-53"/>
       <use x="127.246094" xlink:href="#DejaVuSans-48"/>
      </g>
     </g>
    </g>
    <g id="xtick_5">
     <g id="line2d_9">
      <path clip-path="url(#p06808b8991)" d="M 290.992958 307.584 
L 290.992958 41.472 
" style="fill:none;stroke:#b0b0b0;stroke-linecap:square;stroke-width:0.8;"/>
     </g>
     <g id="line2d_10">
      <g>
       <use style="stroke:#000000;stroke-width:0.8;" x="290.992958" xlink:href="#mc7634cc949" y="307.584"/>
      </g>
     </g>
     <g id="text_5">
      <!-- 200 -->
      <defs>
       <path d="M 19.1875 8.296875 
L 53.609375 8.296875 
L 53.609375 0 
L 7.328125 0 
L 7.328125 8.296875 
Q 12.9375 14.109375 22.625 23.890625 
Q 32.328125 33.6875 34.8125 36.53125 
Q 39.546875 41.84375 41.421875 45.53125 
Q 43.3125 49.21875 43.3125 52.78125 
Q 43.3125 58.59375 39.234375 62.25 
Q 35.15625 65.921875 28.609375 65.921875 
Q 23.96875 65.921875 18.8125 64.3125 
Q 13.671875 62.703125 7.8125 59.421875 
L 7.8125 69.390625 
Q 13.765625 71.78125 18.9375 73 
Q 24.125 74.21875 28.421875 74.21875 
Q 39.75 74.21875 46.484375 68.546875 
Q 53.21875 62.890625 53.21875 53.421875 
Q 53.21875 48.921875 51.53125 44.890625 
Q 49.859375 40.875 45.40625 35.40625 
Q 44.1875 33.984375 37.640625 27.21875 
Q 31.109375 20.453125 19.1875 8.296875 
z
" id="DejaVuSans-50"/>
      </defs>
      <g transform="translate(281.449208 322.182437)scale(0.1 -0.1)">
       <use xlink:href="#DejaVuSans-50"/>
       <use x="63.623047" xlink:href="#DejaVuSans-48"/>
       <use x="127.246094" xlink:href="#DejaVuSans-48"/>
      </g>
     </g>
    </g>
    <g id="xtick_6">
     <g id="line2d_11">
      <path clip-path="url(#p06808b8991)" d="M 345.283016 307.584 
L 345.283016 41.472 
" style="fill:none;stroke:#b0b0b0;stroke-linecap:square;stroke-width:0.8;"/>
     </g>
     <g id="line2d_12">
      <g>
       <use style="stroke:#000000;stroke-width:0.8;" x="345.283016" xlink:href="#mc7634cc949" y="307.584"/>
      </g>
     </g>
     <g id="text_6">
      <!-- 250 -->
      <g transform="translate(335.739266 322.182437)scale(0.1 -0.1)">
       <use xlink:href="#DejaVuSans-50"/>
       <use x="63.623047" xlink:href="#DejaVuSans-53"/>
       <use x="127.246094" xlink:href="#DejaVuSans-48"/>
      </g>
     </g>
    </g>
    <g id="xtick_7">
     <g id="line2d_13">
      <path clip-path="url(#p06808b8991)" d="M 399.573074 307.584 
L 399.573074 41.472 
" style="fill:none;stroke:#b0b0b0;stroke-linecap:square;stroke-width:0.8;"/>
     </g>
     <g id="line2d_14">
      <g>
       <use style="stroke:#000000;stroke-width:0.8;" x="399.573074" xlink:href="#mc7634cc949" y="307.584"/>
      </g>
     </g>
     <g id="text_7">
      <!-- 300 -->
      <defs>
       <path d="M 40.578125 39.3125 
Q 47.65625 37.796875 51.625 33 
Q 55.609375 28.21875 55.609375 21.1875 
Q 55.609375 10.40625 48.1875 4.484375 
Q 40.765625 -1.421875 27.09375 -1.421875 
Q 22.515625 -1.421875 17.65625 -0.515625 
Q 12.796875 0.390625 7.625 2.203125 
L 7.625 11.71875 
Q 11.71875 9.328125 16.59375 8.109375 
Q 21.484375 6.890625 26.8125 6.890625 
Q 36.078125 6.890625 40.9375 10.546875 
Q 45.796875 14.203125 45.796875 21.1875 
Q 45.796875 27.640625 41.28125 31.265625 
Q 36.765625 34.90625 28.71875 34.90625 
L 20.21875 34.90625 
L 20.21875 43.015625 
L 29.109375 43.015625 
Q 36.375 43.015625 40.234375 45.921875 
Q 44.09375 48.828125 44.09375 54.296875 
Q 44.09375 59.90625 40.109375 62.90625 
Q 36.140625 65.921875 28.71875 65.921875 
Q 24.65625 65.921875 20.015625 65.03125 
Q 15.375 64.15625 9.8125 62.3125 
L 9.8125 71.09375 
Q 15.4375 72.65625 20.34375 73.4375 
Q 25.25 74.21875 29.59375 74.21875 
Q 40.828125 74.21875 47.359375 69.109375 
Q 53.90625 64.015625 53.90625 55.328125 
Q 53.90625 49.265625 50.4375 45.09375 
Q 46.96875 40.921875 40.578125 39.3125 
z
" id="DejaVuSans-51"/>
      </defs>
      <g transform="translate(390.029324 322.182437)scale(0.1 -0.1)">
       <use xlink:href="#DejaVuSans-51"/>
       <use x="63.623047" xlink:href="#DejaVuSans-48"/>
       <use x="127.246094" xlink:href="#DejaVuSans-48"/>
      </g>
     </g>
    </g>
    <g id="text_8">
     <!-- Generations -->
     <defs>
      <path d="M 59.515625 10.40625 
L 59.515625 29.984375 
L 43.40625 29.984375 
L 43.40625 38.09375 
L 69.28125 38.09375 
L 69.28125 6.78125 
Q 63.578125 2.734375 56.6875 0.65625 
Q 49.8125 -1.421875 42 -1.421875 
Q 24.90625 -1.421875 15.25 8.5625 
Q 5.609375 18.5625 5.609375 36.375 
Q 5.609375 54.25 15.25 64.234375 
Q 24.90625 74.21875 42 74.21875 
Q 49.125 74.21875 55.546875 72.453125 
Q 61.96875 70.703125 67.390625 67.28125 
L 67.390625 56.78125 
Q 61.921875 61.421875 55.765625 63.765625 
Q 49.609375 66.109375 42.828125 66.109375 
Q 29.4375 66.109375 22.71875 58.640625 
Q 16.015625 51.171875 16.015625 36.375 
Q 16.015625 21.625 22.71875 14.15625 
Q 29.4375 6.6875 42.828125 6.6875 
Q 48.046875 6.6875 52.140625 7.59375 
Q 56.25 8.5 59.515625 10.40625 
z
" id="DejaVuSans-71"/>
      <path d="M 56.203125 29.59375 
L 56.203125 25.203125 
L 14.890625 25.203125 
Q 15.484375 15.921875 20.484375 11.0625 
Q 25.484375 6.203125 34.421875 6.203125 
Q 39.59375 6.203125 44.453125 7.46875 
Q 49.3125 8.734375 54.109375 11.28125 
L 54.109375 2.78125 
Q 49.265625 0.734375 44.1875 -0.34375 
Q 39.109375 -1.421875 33.890625 -1.421875 
Q 20.796875 -1.421875 13.15625 6.1875 
Q 5.515625 13.8125 5.515625 26.8125 
Q 5.515625 40.234375 12.765625 48.109375 
Q 20.015625 56 32.328125 56 
Q 43.359375 56 49.78125 48.890625 
Q 56.203125 41.796875 56.203125 29.59375 
z
M 47.21875 32.234375 
Q 47.125 39.59375 43.09375 43.984375 
Q 39.0625 48.390625 32.421875 48.390625 
Q 24.90625 48.390625 20.390625 44.140625 
Q 15.875 39.890625 15.1875 32.171875 
z
" id="DejaVuSans-101"/>
      <path d="M 54.890625 33.015625 
L 54.890625 0 
L 45.90625 0 
L 45.90625 32.71875 
Q 45.90625 40.484375 42.875 44.328125 
Q 39.84375 48.1875 33.796875 48.1875 
Q 26.515625 48.1875 22.3125 43.546875 
Q 18.109375 38.921875 18.109375 30.90625 
L 18.109375 0 
L 9.078125 0 
L 9.078125 54.6875 
L 18.109375 54.6875 
L 18.109375 46.1875 
Q 21.34375 51.125 25.703125 53.5625 
Q 30.078125 56 35.796875 56 
Q 45.21875 56 50.046875 50.171875 
Q 54.890625 44.34375 54.890625 33.015625 
z
" id="DejaVuSans-110"/>
      <path d="M 41.109375 46.296875 
Q 39.59375 47.171875 37.8125 47.578125 
Q 36.03125 48 33.890625 48 
Q 26.265625 48 22.1875 43.046875 
Q 18.109375 38.09375 18.109375 28.8125 
L 18.109375 0 
L 9.078125 0 
L 9.078125 54.6875 
L 18.109375 54.6875 
L 18.109375 46.1875 
Q 20.953125 51.171875 25.484375 53.578125 
Q 30.03125 56 36.53125 56 
Q 37.453125 56 38.578125 55.875 
Q 39.703125 55.765625 41.0625 55.515625 
z
" id="DejaVuSans-114"/>
      <path d="M 34.28125 27.484375 
Q 23.390625 27.484375 19.1875 25 
Q 14.984375 22.515625 14.984375 16.5 
Q 14.984375 11.71875 18.140625 8.90625 
Q 21.296875 6.109375 26.703125 6.109375 
Q 34.1875 6.109375 38.703125 11.40625 
Q 43.21875 16.703125 43.21875 25.484375 
L 43.21875 27.484375 
z
M 52.203125 31.203125 
L 52.203125 0 
L 43.21875 0 
L 43.21875 8.296875 
Q 40.140625 3.328125 35.546875 0.953125 
Q 30.953125 -1.421875 24.3125 -1.421875 
Q 15.921875 -1.421875 10.953125 3.296875 
Q 6 8.015625 6 15.921875 
Q 6 25.140625 12.171875 29.828125 
Q 18.359375 34.515625 30.609375 34.515625 
L 43.21875 34.515625 
L 43.21875 35.40625 
Q 43.21875 41.609375 39.140625 45 
Q 35.0625 48.390625 27.6875 48.390625 
Q 23 48.390625 18.546875 47.265625 
Q 14.109375 46.140625 10.015625 43.890625 
L 10.015625 52.203125 
Q 14.9375 54.109375 19.578125 55.046875 
Q 24.21875 56 28.609375 56 
Q 40.484375 56 46.34375 49.84375 
Q 52.203125 43.703125 52.203125 31.203125 
z
" id="DejaVuSans-97"/>
      <path d="M 18.3125 70.21875 
L 18.3125 54.6875 
L 36.8125 54.6875 
L 36.8125 47.703125 
L 18.3125 47.703125 
L 18.3125 18.015625 
Q 18.3125 11.328125 20.140625 9.421875 
Q 21.96875 7.515625 27.59375 7.515625 
L 36.8125 7.515625 
L 36.8125 0 
L 27.59375 0 
Q 17.1875 0 13.234375 3.875 
Q 9.28125 7.765625 9.28125 18.015625 
L 9.28125 47.703125 
L 2.6875 47.703125 
L 2.6875 54.6875 
L 9.28125 54.6875 
L 9.28125 70.21875 
z
" id="DejaVuSans-116"/>
      <path d="M 9.421875 54.6875 
L 18.40625 54.6875 
L 18.40625 0 
L 9.421875 0 
z
M 9.421875 75.984375 
L 18.40625 75.984375 
L 18.40625 64.59375 
L 9.421875 64.59375 
z
" id="DejaVuSans-105"/>
      <path d="M 30.609375 48.390625 
Q 23.390625 48.390625 19.1875 42.75 
Q 14.984375 37.109375 14.984375 27.296875 
Q 14.984375 17.484375 19.15625 11.84375 
Q 23.34375 6.203125 30.609375 6.203125 
Q 37.796875 6.203125 41.984375 11.859375 
Q 46.1875 17.53125 46.1875 27.296875 
Q 46.1875 37.015625 41.984375 42.703125 
Q 37.796875 48.390625 30.609375 48.390625 
z
M 30.609375 56 
Q 42.328125 56 49.015625 48.375 
Q 55.71875 40.765625 55.71875 27.296875 
Q 55.71875 13.875 49.015625 6.21875 
Q 42.328125 -1.421875 30.609375 -1.421875 
Q 18.84375 -1.421875 12.171875 6.21875 
Q 5.515625 13.875 5.515625 27.296875 
Q 5.515625 40.765625 12.171875 48.375 
Q 18.84375 56 30.609375 56 
z
" id="DejaVuSans-111"/>
      <path d="M 44.28125 53.078125 
L 44.28125 44.578125 
Q 40.484375 46.53125 36.375 47.5 
Q 32.28125 48.484375 27.875 48.484375 
Q 21.1875 48.484375 17.84375 46.4375 
Q 14.5 44.390625 14.5 40.28125 
Q 14.5 37.15625 16.890625 35.375 
Q 19.28125 33.59375 26.515625 31.984375 
L 29.59375 31.296875 
Q 39.15625 29.25 43.1875 25.515625 
Q 47.21875 21.78125 47.21875 15.09375 
Q 47.21875 7.46875 41.1875 3.015625 
Q 35.15625 -1.421875 24.609375 -1.421875 
Q 20.21875 -1.421875 15.453125 -0.5625 
Q 10.6875 0.296875 5.421875 2 
L 5.421875 11.28125 
Q 10.40625 8.6875 15.234375 7.390625 
Q 20.0625 6.109375 24.8125 6.109375 
Q 31.15625 6.109375 34.5625 8.28125 
Q 37.984375 10.453125 37.984375 14.40625 
Q 37.984375 18.0625 35.515625 20.015625 
Q 33.0625 21.96875 24.703125 23.78125 
L 21.578125 24.515625 
Q 13.234375 26.265625 9.515625 29.90625 
Q 5.8125 33.546875 5.8125 39.890625 
Q 5.8125 47.609375 11.28125 51.796875 
Q 16.75 56 26.8125 56 
Q 31.78125 56 36.171875 55.265625 
Q 40.578125 54.546875 44.28125 53.078125 
z
" id="DejaVuSans-115"/>
     </defs>
     <g transform="translate(205.662344 335.860562)scale(0.1 -0.1)">
      <use xlink:href="#DejaVuSans-71"/>
      <use x="77.490234" xlink:href="#DejaVuSans-101"/>
      <use x="139.013672" xlink:href="#DejaVuSans-110"/>
      <use x="202.392578" xlink:href="#DejaVuSans-101"/>
      <use x="263.916016" xlink:href="#DejaVuSans-114"/>
      <use x="305.029297" xlink:href="#DejaVuSans-97"/>
      <use x="366.308594" xlink:href="#DejaVuSans-116"/>
      <use x="405.517578" xlink:href="#DejaVuSans-105"/>
      <use x="433.300781" xlink:href="#DejaVuSans-111"/>
      <use x="494.482422" xlink:href="#DejaVuSans-110"/>
      <use x="557.861328" xlink:href="#DejaVuSans-115"/>
     </g>
    </g>
   </g>
   <g id="matplotlib.axis_2">
    <g id="ytick_1">
     <g id="line2d_15">
      <path clip-path="url(#p06808b8991)" d="M 57.6 296.237844 
L 414.72 296.237844 
" style="fill:none;stroke:#b0b0b0;stroke-linecap:square;stroke-width:0.8;"/>
     </g>
     <g id="line2d_16">
      <defs>
       <path d="M 0 0 
L -3.5 0 
" id="mc1e3fb2b05" style="stroke:#000000;stroke-width:0.8;"/>
      </defs>
      <g>
       <use style="stroke:#000000;stroke-width:0.8;" x="57.6" xlink:href="#mc1e3fb2b05" y="296.237844"/>
      </g>
     </g>
     <g id="text_9">
      <!-- 400 -->
      <defs>
       <path d="M 37.796875 64.3125 
L 12.890625 25.390625 
L 37.796875 25.390625 
z
M 35.203125 72.90625 
L 47.609375 72.90625 
L 47.609375 25.390625 
L 58.015625 25.390625 
L 58.015625 17.1875 
L 47.609375 17.1875 
L 47.609375 0 
L 37.796875 0 
L 37.796875 17.1875 
L 4.890625 17.1875 
L 4.890625 26.703125 
z
" id="DejaVuSans-52"/>
      </defs>
      <g transform="translate(31.5125 300.037063)scale(0.1 -0.1)">
       <use xlink:href="#DejaVuSans-52"/>
       <use x="63.623047" xlink:href="#DejaVuSans-48"/>
       <use x="127.246094" xlink:href="#DejaVuSans-48"/>
      </g>
     </g>
    </g>
    <g id="ytick_2">
     <g id="line2d_17">
      <path clip-path="url(#p06808b8991)" d="M 57.6 264.609159 
L 414.72 264.609159 
" style="fill:none;stroke:#b0b0b0;stroke-linecap:square;stroke-width:0.8;"/>
     </g>
     <g id="line2d_18">
      <g>
       <use style="stroke:#000000;stroke-width:0.8;" x="57.6" xlink:href="#mc1e3fb2b05" y="264.609159"/>
      </g>
     </g>
     <g id="text_10">
      <!-- 600 -->
      <defs>
       <path d="M 33.015625 40.375 
Q 26.375 40.375 22.484375 35.828125 
Q 18.609375 31.296875 18.609375 23.390625 
Q 18.609375 15.53125 22.484375 10.953125 
Q 26.375 6.390625 33.015625 6.390625 
Q 39.65625 6.390625 43.53125 10.953125 
Q 47.40625 15.53125 47.40625 23.390625 
Q 47.40625 31.296875 43.53125 35.828125 
Q 39.65625 40.375 33.015625 40.375 
z
M 52.59375 71.296875 
L 52.59375 62.3125 
Q 48.875 64.0625 45.09375 64.984375 
Q 41.3125 65.921875 37.59375 65.921875 
Q 27.828125 65.921875 22.671875 59.328125 
Q 17.53125 52.734375 16.796875 39.40625 
Q 19.671875 43.65625 24.015625 45.921875 
Q 28.375 48.1875 33.59375 48.1875 
Q 44.578125 48.1875 50.953125 41.515625 
Q 57.328125 34.859375 57.328125 23.390625 
Q 57.328125 12.15625 50.6875 5.359375 
Q 44.046875 -1.421875 33.015625 -1.421875 
Q 20.359375 -1.421875 13.671875 8.265625 
Q 6.984375 17.96875 6.984375 36.375 
Q 6.984375 53.65625 15.1875 63.9375 
Q 23.390625 74.21875 37.203125 74.21875 
Q 40.921875 74.21875 44.703125 73.484375 
Q 48.484375 72.75 52.59375 71.296875 
z
" id="DejaVuSans-54"/>
      </defs>
      <g transform="translate(31.5125 268.408377)scale(0.1 -0.1)">
       <use xlink:href="#DejaVuSans-54"/>
       <use x="63.623047" xlink:href="#DejaVuSans-48"/>
       <use x="127.246094" xlink:href="#DejaVuSans-48"/>
      </g>
     </g>
    </g>
    <g id="ytick_3">
     <g id="line2d_19">
      <path clip-path="url(#p06808b8991)" d="M 57.6 232.980473 
L 414.72 232.980473 
" style="fill:none;stroke:#b0b0b0;stroke-linecap:square;stroke-width:0.8;"/>
     </g>
     <g id="line2d_20">
      <g>
       <use style="stroke:#000000;stroke-width:0.8;" x="57.6" xlink:href="#mc1e3fb2b05" y="232.980473"/>
      </g>
     </g>
     <g id="text_11">
      <!-- 800 -->
      <defs>
       <path d="M 31.78125 34.625 
Q 24.75 34.625 20.71875 30.859375 
Q 16.703125 27.09375 16.703125 20.515625 
Q 16.703125 13.921875 20.71875 10.15625 
Q 24.75 6.390625 31.78125 6.390625 
Q 38.8125 6.390625 42.859375 10.171875 
Q 46.921875 13.96875 46.921875 20.515625 
Q 46.921875 27.09375 42.890625 30.859375 
Q 38.875 34.625 31.78125 34.625 
z
M 21.921875 38.8125 
Q 15.578125 40.375 12.03125 44.71875 
Q 8.5 49.078125 8.5 55.328125 
Q 8.5 64.0625 14.71875 69.140625 
Q 20.953125 74.21875 31.78125 74.21875 
Q 42.671875 74.21875 48.875 69.140625 
Q 55.078125 64.0625 55.078125 55.328125 
Q 55.078125 49.078125 51.53125 44.71875 
Q 48 40.375 41.703125 38.8125 
Q 48.828125 37.15625 52.796875 32.3125 
Q 56.78125 27.484375 56.78125 20.515625 
Q 56.78125 9.90625 50.3125 4.234375 
Q 43.84375 -1.421875 31.78125 -1.421875 
Q 19.734375 -1.421875 13.25 4.234375 
Q 6.78125 9.90625 6.78125 20.515625 
Q 6.78125 27.484375 10.78125 32.3125 
Q 14.796875 37.15625 21.921875 38.8125 
z
M 18.3125 54.390625 
Q 18.3125 48.734375 21.84375 45.5625 
Q 25.390625 42.390625 31.78125 42.390625 
Q 38.140625 42.390625 41.71875 45.5625 
Q 45.3125 48.734375 45.3125 54.390625 
Q 45.3125 60.0625 41.71875 63.234375 
Q 38.140625 66.40625 31.78125 66.40625 
Q 25.390625 66.40625 21.84375 63.234375 
Q 18.3125 60.0625 18.3125 54.390625 
z
" id="DejaVuSans-56"/>
      </defs>
      <g transform="translate(31.5125 236.779691)scale(0.1 -0.1)">
       <use xlink:href="#DejaVuSans-56"/>
       <use x="63.623047" xlink:href="#DejaVuSans-48"/>
       <use x="127.246094" xlink:href="#DejaVuSans-48"/>
      </g>
     </g>
    </g>
    <g id="ytick_4">
     <g id="line2d_21">
      <path clip-path="url(#p06808b8991)" d="M 57.6 201.351787 
L 414.72 201.351787 
" style="fill:none;stroke:#b0b0b0;stroke-linecap:square;stroke-width:0.8;"/>
     </g>
     <g id="line2d_22">
      <g>
       <use style="stroke:#000000;stroke-width:0.8;" x="57.6" xlink:href="#mc1e3fb2b05" y="201.351787"/>
      </g>
     </g>
     <g id="text_12">
      <!-- 1000 -->
      <g transform="translate(25.15 205.151005)scale(0.1 -0.1)">
       <use xlink:href="#DejaVuSans-49"/>
       <use x="63.623047" xlink:href="#DejaVuSans-48"/>
       <use x="127.246094" xlink:href="#DejaVuSans-48"/>
       <use x="190.869141" xlink:href="#DejaVuSans-48"/>
      </g>
     </g>
    </g>
    <g id="ytick_5">
     <g id="line2d_23">
      <path clip-path="url(#p06808b8991)" d="M 57.6 169.723101 
L 414.72 169.723101 
" style="fill:none;stroke:#b0b0b0;stroke-linecap:square;stroke-width:0.8;"/>
     </g>
     <g id="line2d_24">
      <g>
       <use style="stroke:#000000;stroke-width:0.8;" x="57.6" xlink:href="#mc1e3fb2b05" y="169.723101"/>
      </g>
     </g>
     <g id="text_13">
      <!-- 1200 -->
      <g transform="translate(25.15 173.522319)scale(0.1 -0.1)">
       <use xlink:href="#DejaVuSans-49"/>
       <use x="63.623047" xlink:href="#DejaVuSans-50"/>
       <use x="127.246094" xlink:href="#DejaVuSans-48"/>
       <use x="190.869141" xlink:href="#DejaVuSans-48"/>
      </g>
     </g>
    </g>
    <g id="ytick_6">
     <g id="line2d_25">
      <path clip-path="url(#p06808b8991)" d="M 57.6 138.094415 
L 414.72 138.094415 
" style="fill:none;stroke:#b0b0b0;stroke-linecap:square;stroke-width:0.8;"/>
     </g>
     <g id="line2d_26">
      <g>
       <use style="stroke:#000000;stroke-width:0.8;" x="57.6" xlink:href="#mc1e3fb2b05" y="138.094415"/>
      </g>
     </g>
     <g id="text_14">
      <!-- 1400 -->
      <g transform="translate(25.15 141.893633)scale(0.1 -0.1)">
       <use xlink:href="#DejaVuSans-49"/>
       <use x="63.623047" xlink:href="#DejaVuSans-52"/>
       <use x="127.246094" xlink:href="#DejaVuSans-48"/>
       <use x="190.869141" xlink:href="#DejaVuSans-48"/>
      </g>
     </g>
    </g>
    <g id="ytick_7">
     <g id="line2d_27">
      <path clip-path="url(#p06808b8991)" d="M 57.6 106.465729 
L 414.72 106.465729 
" style="fill:none;stroke:#b0b0b0;stroke-linecap:square;stroke-width:0.8;"/>
     </g>
     <g id="line2d_28">
      <g>
       <use style="stroke:#000000;stroke-width:0.8;" x="57.6" xlink:href="#mc1e3fb2b05" y="106.465729"/>
      </g>
     </g>
     <g id="text_15">
      <!-- 1600 -->
      <g transform="translate(25.15 110.264948)scale(0.1 -0.1)">
       <use xlink:href="#DejaVuSans-49"/>
       <use x="63.623047" xlink:href="#DejaVuSans-54"/>
       <use x="127.246094" xlink:href="#DejaVuSans-48"/>
       <use x="190.869141" xlink:href="#DejaVuSans-48"/>
      </g>
     </g>
    </g>
    <g id="ytick_8">
     <g id="line2d_29">
      <path clip-path="url(#p06808b8991)" d="M 57.6 74.837043 
L 414.72 74.837043 
" style="fill:none;stroke:#b0b0b0;stroke-linecap:square;stroke-width:0.8;"/>
     </g>
     <g id="line2d_30">
      <g>
       <use style="stroke:#000000;stroke-width:0.8;" x="57.6" xlink:href="#mc1e3fb2b05" y="74.837043"/>
      </g>
     </g>
     <g id="text_16">
      <!-- 1800 -->
      <g transform="translate(25.15 78.636262)scale(0.1 -0.1)">
       <use xlink:href="#DejaVuSans-49"/>
       <use x="63.623047" xlink:href="#DejaVuSans-56"/>
       <use x="127.246094" xlink:href="#DejaVuSans-48"/>
       <use x="190.869141" xlink:href="#DejaVuSans-48"/>
      </g>
     </g>
    </g>
    <g id="ytick_9">
     <g id="line2d_31">
      <path clip-path="url(#p06808b8991)" d="M 57.6 43.208357 
L 414.72 43.208357 
" style="fill:none;stroke:#b0b0b0;stroke-linecap:square;stroke-width:0.8;"/>
     </g>
     <g id="line2d_32">
      <g>
       <use style="stroke:#000000;stroke-width:0.8;" x="57.6" xlink:href="#mc1e3fb2b05" y="43.208357"/>
      </g>
     </g>
     <g id="text_17">
      <!-- 2000 -->
      <g transform="translate(25.15 47.007576)scale(0.1 -0.1)">
       <use xlink:href="#DejaVuSans-50"/>
       <use x="63.623047" xlink:href="#DejaVuSans-48"/>
       <use x="127.246094" xlink:href="#DejaVuSans-48"/>
       <use x="190.869141" xlink:href="#DejaVuSans-48"/>
      </g>
     </g>
    </g>
    <g id="text_18">
     <!-- Fitness -->
     <defs>
      <path d="M 9.8125 72.90625 
L 51.703125 72.90625 
L 51.703125 64.59375 
L 19.671875 64.59375 
L 19.671875 43.109375 
L 48.578125 43.109375 
L 48.578125 34.8125 
L 19.671875 34.8125 
L 19.671875 0 
L 9.8125 0 
z
" id="DejaVuSans-70"/>
     </defs>
     <g transform="translate(19.070312 192.202219)rotate(-90)scale(0.1 -0.1)">
      <use xlink:href="#DejaVuSans-70"/>
      <use x="57.410156" xlink:href="#DejaVuSans-105"/>
      <use x="85.193359" xlink:href="#DejaVuSans-116"/>
      <use x="124.402344" xlink:href="#DejaVuSans-110"/>
      <use x="187.78125" xlink:href="#DejaVuSans-101"/>
      <use x="249.304688" xlink:href="#DejaVuSans-115"/>
      <use x="301.404297" xlink:href="#DejaVuSans-115"/>
     </g>
    </g>
   </g>
   <g id="line2d_33">
    <path clip-path="url(#p06808b8991)" d="M 73.832727 289.489197 
L 74.918528 196.155128 
L 76.00433 219.777552 
L 77.090131 190.507256 
L 78.175932 203.026813 
L 79.261733 170.542938 
L 80.347534 178.256477 
L 81.433335 184.053581 
L 82.519137 187.904253 
L 83.604938 174.700146 
L 84.690739 156.06746 
L 85.77654 157.481937 
L 86.862341 168.334613 
L 87.948142 177.194266 
L 89.033943 188.427018 
L 90.119745 164.188953 
L 91.205546 160.236854 
L 92.291347 150.113935 
L 93.377148 153.969571 
L 94.462949 155.624127 
L 95.54875 156.661315 
L 96.634552 135.181883 
L 97.720353 201.440621 
L 98.806154 159.593946 
L 99.891955 167.756469 
L 100.977756 169.699831 
L 102.063557 155.547173 
L 103.149358 158.185987 
L 104.23516 150.013583 
L 105.320961 149.449725 
L 106.406762 136.632012 
L 107.492563 141.564578 
L 108.578364 139.839774 
L 109.664165 138.590655 
L 110.749967 139.201377 
L 111.835768 132.954567 
L 112.921569 133.350969 
L 114.00737 149.018027 
L 115.093171 155.865299 
L 116.178972 130.495086 
L 117.264773 150.834386 
L 118.350575 150.798791 
L 120.522177 122.686368 
L 121.607978 127.854474 
L 122.693779 143.440713 
L 123.77958 134.83232 
L 124.865382 138.394284 
L 125.951183 131.679411 
L 127.036984 130.22538 
L 128.122785 112.941669 
L 129.208586 124.166804 
L 130.294387 124.91732 
L 131.380189 112.673812 
L 132.46599 147.064488 
L 133.551791 117.966756 
L 134.637592 164.001468 
L 135.723393 141.335191 
L 136.809194 135.583702 
L 137.894995 120.38176 
L 138.980797 130.615429 
L 140.066598 147.866101 
L 141.152399 113.115634 
L 142.2382 122.992273 
L 143.324001 121.71815 
L 144.409802 123.335012 
L 145.495604 126.989581 
L 146.581405 107.078635 
L 147.667206 124.301331 
L 148.753007 114.463589 
L 149.838808 139.936893 
L 152.01041 128.575593 
L 153.096212 138.515665 
L 154.182013 136.765185 
L 155.267814 126.448131 
L 156.353615 126.840061 
L 157.439416 132.521295 
L 158.525217 136.701216 
L 159.611019 129.603095 
L 160.69682 119.218635 
L 161.782621 142.62456 
L 162.868422 149.644643 
L 163.954223 166.730357 
L 165.040024 114.412018 
L 166.125825 109.327321 
L 167.211627 131.526833 
L 168.297428 145.122228 
L 169.383229 118.846751 
L 170.46903 144.355309 
L 171.554831 127.451397 
L 172.640632 139.351139 
L 173.726434 136.775794 
L 174.812235 129.85059 
L 175.898036 104.152516 
L 176.983837 133.773893 
L 178.069638 124.167565 
L 179.155439 130.36945 
L 180.24124 123.478168 
L 181.327042 133.477401 
L 182.412843 129.423721 
L 183.498644 141.966811 
L 184.584445 125.415741 
L 185.670246 133.085639 
L 186.756047 131.862293 
L 187.841849 105.64618 
L 188.92765 141.013703 
L 190.013451 127.81132 
L 191.099252 129.354122 
L 192.185053 126.309026 
L 193.270854 130.176904 
L 194.356656 127.748684 
L 195.442457 128.938258 
L 196.528258 104.692108 
L 197.614059 102.466628 
L 198.69986 103.906969 
L 199.785661 116.140562 
L 200.871462 98.396259 
L 201.957264 120.91918 
L 203.043065 123.158351 
L 204.128866 124.922971 
L 205.214667 121.047372 
L 206.300468 110.963224 
L 207.386269 139.629983 
L 208.472071 122.202407 
L 209.557872 107.124198 
L 210.643673 137.176507 
L 211.729474 123.071632 
L 212.815275 128.605247 
L 213.901076 131.735262 
L 214.986877 131.365286 
L 216.072679 126.311673 
L 217.15848 114.752213 
L 218.244281 132.024933 
L 219.330082 124.743225 
L 220.415883 120.647598 
L 222.587486 129.679246 
L 223.673287 106.527785 
L 224.759088 112.194732 
L 225.844889 120.557819 
L 226.93069 114.407515 
L 228.016491 114.234808 
L 229.102292 126.264127 
L 230.188094 123.351056 
L 231.273895 132.806042 
L 232.359696 116.988236 
L 233.445497 117.742853 
L 234.531298 142.591341 
L 235.617099 139.010681 
L 236.702901 117.111636 
L 237.788702 115.121694 
L 238.874503 126.788246 
L 239.960304 107.730672 
L 241.046105 117.921638 
L 242.131906 123.890639 
L 243.217708 125.752324 
L 244.303509 115.078533 
L 245.38931 116.35315 
L 246.475111 95.812929 
L 248.646713 124.042985 
L 249.732514 127.062363 
L 250.818316 115.564391 
L 251.904117 135.891794 
L 252.989918 134.334801 
L 254.075719 109.795426 
L 255.16152 120.528979 
L 256.247321 134.626324 
L 257.333123 156.911995 
L 258.418924 137.33146 
L 259.504725 132.854985 
L 260.590526 116.616503 
L 261.676327 120.903244 
L 262.762128 129.127391 
L 263.847929 139.516066 
L 264.933731 112.387847 
L 266.019532 107.644185 
L 267.105333 122.987427 
L 268.191134 97.244009 
L 269.276935 110.122901 
L 270.362736 113.984858 
L 271.448538 121.137209 
L 274.705941 99.962073 
L 275.791742 110.735131 
L 276.877543 98.283071 
L 277.963344 93.17722 
L 279.049146 115.335915 
L 280.134947 112.386112 
L 281.220748 107.443524 
L 282.306549 110.553513 
L 283.39235 102.716855 
L 284.478151 88.124001 
L 285.563953 90.095711 
L 286.649754 110.947514 
L 287.735555 102.252523 
L 289.907157 91.459064 
L 290.992958 109.508265 
L 292.07876 108.818052 
L 293.164561 105.884916 
L 294.250362 113.75003 
L 295.336163 110.708455 
L 296.421964 99.303355 
L 297.507765 103.142449 
L 298.593566 104.590274 
L 299.679368 93.850233 
L 300.765169 108.956808 
L 301.85097 107.194144 
L 302.936771 113.395029 
L 304.022572 120.58483 
L 305.108373 134.416581 
L 306.194175 125.291022 
L 307.279976 103.109191 
L 308.365777 97.430091 
L 309.451578 117.914794 
L 310.537379 103.185739 
L 311.62318 106.363515 
L 312.708981 113.403341 
L 314.880584 122.445384 
L 315.966385 119.059314 
L 317.052186 126.893415 
L 318.137987 149.080796 
L 319.223788 106.864935 
L 320.30959 102.982608 
L 321.395391 125.164453 
L 322.481192 111.430182 
L 323.566993 120.53402 
L 324.652794 146.449423 
L 325.738595 124.855326 
L 326.824396 118.665775 
L 327.910198 126.783326 
L 328.995999 110.682881 
L 330.0818 132.273501 
L 331.167601 127.797638 
L 333.339203 111.297977 
L 334.425005 124.283456 
L 335.510806 105.232907 
L 336.596607 112.163422 
L 337.682408 95.652959 
L 338.768209 109.8872 
L 339.85401 96.598175 
L 340.939811 114.099112 
L 342.025613 122.791089 
L 343.111414 108.23446 
L 344.197215 124.614689 
L 345.283016 100.382 
L 346.368817 135.998815 
L 347.454618 127.722287 
L 348.54042 125.549658 
L 349.626221 135.596652 
L 350.712022 122.592883 
L 351.797823 129.649276 
L 352.883624 135.44446 
L 353.969425 136.023646 
L 355.055227 118.755373 
L 356.141028 122.348934 
L 357.226829 119.23275 
L 358.31263 119.117517 
L 359.398431 111.677014 
L 360.484232 114.507009 
L 361.570033 97.791642 
L 362.655835 99.795236 
L 363.741636 102.456142 
L 364.827437 102.250591 
L 365.913238 104.440248 
L 366.999039 111.518092 
L 368.08484 107.66906 
L 369.170642 109.665672 
L 370.256443 128.280646 
L 371.342244 124.109548 
L 372.428045 123.009392 
L 373.513846 113.429332 
L 374.599647 99.387078 
L 375.685448 130.527992 
L 376.77125 114.873176 
L 377.857051 138.569231 
L 378.942852 146.934229 
L 380.028653 129.435897 
L 381.114454 134.676788 
L 382.200255 146.901977 
L 383.286057 122.027228 
L 384.371858 143.949769 
L 385.457659 158.792801 
L 386.54346 122.95832 
L 387.629261 155.066926 
L 388.715062 136.502196 
L 389.800863 120.404506 
L 390.886665 136.021571 
L 391.972466 121.242426 
L 393.058267 115.384511 
L 394.144068 150.321887 
L 395.229869 154.178117 
L 396.31567 139.690096 
L 397.401472 129.642452 
L 398.487273 130.636955 
L 398.487273 130.636955 
" style="fill:none;stroke:#0000ff;stroke-linecap:square;stroke-width:1.5;"/>
   </g>
   <g id="line2d_34">
    <path clip-path="url(#p06808b8991)" d="M 73.832727 295.488 
L 74.918528 204.844192 
L 76.00433 227.163445 
L 77.090131 199.27916 
L 78.175932 221.427032 
L 79.261733 183.617725 
L 80.347534 218.571238 
L 81.433335 210.558468 
L 82.519137 206.212623 
L 83.604938 215.436884 
L 84.690739 173.284319 
L 85.77654 175.837942 
L 86.862341 184.717578 
L 87.948142 200.486538 
L 89.033943 242.173408 
L 90.119745 197.824442 
L 91.205546 195.837521 
L 92.291347 172.839825 
L 93.377148 199.572434 
L 94.462949 193.704209 
L 95.54875 196.689275 
L 96.634552 163.207416 
L 97.720353 257.336222 
L 98.806154 211.507752 
L 99.891955 209.680909 
L 100.977756 206.28993 
L 102.063557 185.273643 
L 103.149358 196.001294 
L 104.23516 175.290645 
L 105.320961 188.264033 
L 106.406762 163.225637 
L 107.492563 162.479098 
L 108.578364 161.98748 
L 109.664165 176.047979 
L 110.749967 162.155767 
L 111.835768 160.158469 
L 112.921569 156.622533 
L 114.00737 176.176288 
L 115.093171 183.151552 
L 116.178972 153.994209 
L 117.264773 181.516242 
L 118.350575 175.876775 
L 119.436376 159.015434 
L 120.522177 146.268639 
L 121.607978 159.288781 
L 122.693779 165.51288 
L 123.77958 159.116181 
L 124.865382 178.509485 
L 125.951183 169.952525 
L 127.036984 170.657915 
L 128.122785 134.536733 
L 129.208586 144.222454 
L 130.294387 162.405527 
L 131.380189 132.002505 
L 132.46599 194.959192 
L 133.551791 160.049588 
L 134.637592 213.081768 
L 135.723393 183.931179 
L 136.809194 168.535468 
L 137.894995 148.905959 
L 138.980797 161.478007 
L 140.066598 179.536969 
L 141.152399 132.099907 
L 142.2382 144.95762 
L 143.324001 163.047555 
L 144.409802 159.873753 
L 145.495604 163.198524 
L 146.581405 148.9958 
L 147.667206 159.192895 
L 148.753007 137.267635 
L 149.838808 171.709474 
L 150.924609 155.972209 
L 152.01041 169.623262 
L 153.096212 156.310883 
L 154.182013 181.200786 
L 155.267814 157.770689 
L 156.353615 170.30705 
L 157.439416 169.727741 
L 158.525217 162.92182 
L 159.611019 163.164015 
L 160.69682 142.950875 
L 161.782621 176.516365 
L 162.868422 203.306608 
L 163.954223 214.773974 
L 165.040024 135.61473 
L 166.125825 151.735375 
L 167.211627 170.645901 
L 168.297428 165.948043 
L 169.383229 139.069353 
L 170.46903 202.247262 
L 171.554831 164.524413 
L 172.640632 159.196982 
L 173.726434 190.292058 
L 174.812235 165.813645 
L 175.898036 127.101158 
L 176.983837 159.9458 
L 178.069638 143.671669 
L 179.155439 151.420246 
L 180.24124 149.352816 
L 181.327042 184.107363 
L 182.412843 164.761814 
L 183.498644 183.837929 
L 184.584445 145.576456 
L 185.670246 168.171006 
L 186.756047 210.131931 
L 187.841849 143.890978 
L 188.92765 161.146649 
L 190.013451 174.885115 
L 191.099252 153.454603 
L 192.185053 147.452456 
L 193.270854 174.833566 
L 194.356656 166.861499 
L 195.442457 178.455892 
L 196.528258 130.097995 
L 197.614059 123.05479 
L 198.69986 138.342598 
L 199.785661 174.185835 
L 200.871462 132.04131 
L 201.957264 159.455201 
L 203.043065 145.475197 
L 204.128866 167.754754 
L 205.214667 149.29681 
L 206.300468 135.733695 
L 207.386269 182.505145 
L 208.472071 160.335652 
L 209.557872 134.222479 
L 210.643673 156.229303 
L 211.729474 145.956406 
L 212.815275 157.584611 
L 213.901076 160.164782 
L 214.986877 156.70229 
L 216.072679 153.809256 
L 217.15848 145.386053 
L 218.244281 167.640197 
L 219.330082 155.933301 
L 220.415883 159.984269 
L 221.501684 171.542309 
L 222.587486 175.277542 
L 223.673287 140.278973 
L 224.759088 138.866079 
L 225.844889 157.30312 
L 226.93069 140.423824 
L 228.016491 149.246768 
L 229.102292 149.277555 
L 230.188094 151.608244 
L 231.273895 155.518277 
L 232.359696 149.411664 
L 233.445497 166.584643 
L 234.531298 193.172362 
L 235.617099 177.901454 
L 236.702901 143.479153 
L 237.788702 148.228497 
L 238.874503 160.17962 
L 239.960304 135.494574 
L 241.046105 154.342929 
L 242.131906 165.885382 
L 243.217708 164.0688 
L 244.303509 140.998078 
L 245.38931 144.139866 
L 246.475111 120.831968 
L 247.560912 138.156405 
L 248.646713 159.624415 
L 249.732514 149.974542 
L 250.818316 144.714499 
L 251.904117 157.114936 
L 252.989918 162.071461 
L 254.075719 133.413048 
L 255.16152 164.285057 
L 256.247321 171.296784 
L 257.333123 202.543761 
L 258.418924 196.416975 
L 259.504725 183.070394 
L 260.590526 146.753826 
L 261.676327 144.769696 
L 262.762128 172.214425 
L 263.847929 196.05737 
L 264.933731 165.029178 
L 266.019532 161.72037 
L 267.105333 151.181025 
L 268.191134 130.951392 
L 269.276935 140.846304 
L 270.362736 139.540928 
L 271.448538 165.205474 
L 272.534339 139.384007 
L 273.62014 134.246872 
L 274.705941 140.936206 
L 275.791742 136.861915 
L 276.877543 122.052195 
L 277.963344 131.803478 
L 279.049146 148.352942 
L 280.134947 151.838434 
L 281.220748 132.548597 
L 282.306549 140.431361 
L 283.39235 131.861496 
L 284.478151 118.80761 
L 285.563953 116.516053 
L 286.649754 136.091322 
L 287.735555 134.504986 
L 288.821356 126.496259 
L 289.907157 124.559755 
L 290.992958 132.568692 
L 292.07876 146.719519 
L 293.164561 133.311663 
L 294.250362 140.232483 
L 295.336163 152.402992 
L 296.421964 123.326403 
L 297.507765 136.075064 
L 298.593566 130.70842 
L 299.679368 121.879227 
L 300.765169 133.988587 
L 301.85097 134.318178 
L 302.936771 149.292689 
L 304.022572 157.370171 
L 305.108373 155.525656 
L 306.194175 165.504578 
L 307.279976 137.674646 
L 308.365777 117.435184 
L 309.451578 154.81074 
L 310.537379 120.205659 
L 311.62318 144.119445 
L 312.708981 139.91081 
L 313.794783 141.830985 
L 314.880584 164.535698 
L 315.966385 138.093903 
L 317.052186 151.677915 
L 318.137987 182.522224 
L 319.223788 145.895863 
L 320.30959 128.504967 
L 321.395391 147.844364 
L 322.481192 134.105285 
L 323.566993 161.952312 
L 324.652794 177.222381 
L 325.738595 147.666292 
L 326.824396 137.732224 
L 327.910198 175.66118 
L 328.995999 134.786831 
L 330.0818 165.319514 
L 331.167601 157.416476 
L 332.253402 148.025711 
L 333.339203 128.350008 
L 334.425005 148.240879 
L 335.510806 126.921239 
L 336.596607 151.261438 
L 337.682408 136.20436 
L 338.768209 152.988232 
L 339.85401 118.03171 
L 340.939811 149.581888 
L 342.025613 176.020128 
L 343.111414 125.43738 
L 344.197215 157.117743 
L 345.283016 127.352047 
L 346.368817 166.333302 
L 347.454618 145.261202 
L 348.54042 145.109541 
L 349.626221 155.620898 
L 350.712022 150.344483 
L 351.797823 150.260803 
L 352.883624 157.289313 
L 353.969425 155.533852 
L 355.055227 135.546619 
L 356.141028 157.546554 
L 357.226829 143.973043 
L 358.31263 168.229969 
L 359.398431 130.619274 
L 360.484232 135.643886 
L 361.570033 118.120483 
L 362.655835 116.593116 
L 363.741636 135.925106 
L 364.827437 126.033149 
L 365.913238 140.817536 
L 366.999039 136.327863 
L 368.08484 126.449848 
L 369.170642 128.433662 
L 370.256443 163.405915 
L 371.342244 156.973206 
L 372.428045 144.071029 
L 373.513846 133.664732 
L 374.599647 116.395087 
L 375.685448 158.14262 
L 376.77125 145.860665 
L 377.857051 160.012577 
L 378.942852 165.686076 
L 380.028653 162.353689 
L 381.114454 151.30655 
L 382.200255 164.84619 
L 383.286057 143.309188 
L 384.371858 162.798172 
L 385.457659 174.236091 
L 386.54346 140.037234 
L 387.629261 172.009016 
L 388.715062 169.207672 
L 389.800863 152.09384 
L 390.886665 169.053385 
L 391.972466 141.878581 
L 393.058267 147.380286 
L 394.144068 170.615902 
L 395.229869 168.519893 
L 396.31567 159.464369 
L 397.401472 157.116995 
L 398.487273 160.190651 
L 398.487273 160.190651 
" style="fill:none;stroke:#008000;stroke-dasharray:9.6,2.4,1.5,2.4;stroke-dashoffset:0;stroke-width:1.5;"/>
   </g>
   <g id="line2d_35">
    <path clip-path="url(#p06808b8991)" d="M 73.832727 283.490394 
L 74.918528 187.466063 
L 76.00433 212.391659 
L 77.090131 181.735352 
L 78.175932 184.626593 
L 79.261733 157.468151 
L 80.347534 137.941716 
L 81.433335 157.548694 
L 82.519137 169.595884 
L 83.604938 133.963407 
L 84.690739 138.8506 
L 85.77654 139.125931 
L 86.862341 151.951648 
L 87.948142 153.901994 
L 89.033943 134.680628 
L 90.119745 130.553465 
L 91.205546 124.636186 
L 92.291347 127.388045 
L 93.377148 108.366708 
L 94.462949 117.544045 
L 95.54875 116.633356 
L 96.634552 107.15635 
L 97.720353 145.54502 
L 98.806154 107.68014 
L 99.891955 125.832029 
L 100.977756 133.109733 
L 102.063557 125.820704 
L 103.149358 120.370679 
L 104.23516 124.736522 
L 105.320961 110.635417 
L 106.406762 110.038388 
L 107.492563 120.650059 
L 108.578364 117.692068 
L 109.664165 101.133332 
L 110.749967 116.246988 
L 111.835768 105.750666 
L 112.921569 110.079405 
L 114.00737 121.859767 
L 115.093171 128.579046 
L 116.178972 106.995964 
L 117.264773 120.152529 
L 118.350575 125.720807 
L 119.436376 115.442099 
L 120.522177 99.104096 
L 121.607978 96.420168 
L 122.693779 121.368547 
L 123.77958 110.54846 
L 124.865382 98.279084 
L 125.951183 93.406297 
L 127.036984 89.792845 
L 128.122785 91.346604 
L 129.208586 104.111154 
L 130.294387 87.429114 
L 132.46599 99.169783 
L 133.551791 75.883925 
L 134.637592 114.921169 
L 135.723393 98.739202 
L 136.809194 102.631936 
L 137.894995 91.857561 
L 138.980797 99.752851 
L 140.066598 116.195233 
L 141.152399 94.131361 
L 142.2382 101.026927 
L 143.324001 80.388744 
L 144.409802 86.796271 
L 145.495604 90.780637 
L 146.581405 65.16147 
L 147.667206 89.409768 
L 148.753007 91.659543 
L 149.838808 108.164312 
L 150.924609 112.824718 
L 152.01041 87.527924 
L 153.096212 120.720447 
L 154.182013 92.329584 
L 155.267814 95.125573 
L 156.353615 83.373072 
L 157.439416 95.314849 
L 158.525217 110.480612 
L 159.611019 96.042175 
L 160.69682 95.486395 
L 161.782621 108.732756 
L 162.868422 95.982679 
L 163.954223 118.686739 
L 166.125825 66.919267 
L 167.211627 92.407766 
L 168.297428 124.296413 
L 169.383229 98.624149 
L 170.46903 86.463356 
L 171.554831 90.378381 
L 172.640632 119.505297 
L 173.726434 83.259529 
L 174.812235 93.887535 
L 175.898036 81.203875 
L 176.983837 107.601986 
L 178.069638 104.663461 
L 179.155439 109.318654 
L 180.24124 97.603521 
L 181.327042 82.847438 
L 182.412843 94.085629 
L 183.498644 100.095694 
L 184.584445 105.255027 
L 185.670246 98.000273 
L 186.756047 53.592655 
L 187.841849 67.401381 
L 188.92765 120.880756 
L 190.013451 80.737526 
L 191.099252 105.253641 
L 192.185053 105.165596 
L 193.270854 85.520242 
L 194.356656 88.63587 
L 195.442457 79.420625 
L 196.528258 79.286221 
L 197.614059 81.878466 
L 199.785661 58.095289 
L 200.871462 64.751208 
L 203.043065 100.841506 
L 204.128866 82.091187 
L 205.214667 92.797933 
L 206.300468 86.192754 
L 207.386269 96.75482 
L 208.472071 84.069162 
L 209.557872 80.025918 
L 210.643673 118.12371 
L 211.729474 100.186858 
L 212.815275 99.625883 
L 213.901076 103.305743 
L 214.986877 106.028282 
L 216.072679 98.814091 
L 217.15848 84.118373 
L 218.244281 96.409669 
L 219.330082 93.553149 
L 220.415883 81.310927 
L 221.501684 78.892302 
L 222.587486 84.08095 
L 223.673287 72.776596 
L 224.759088 85.523384 
L 225.844889 83.812517 
L 226.93069 88.391207 
L 228.016491 79.222848 
L 229.102292 103.250698 
L 230.188094 95.093868 
L 231.273895 110.093807 
L 232.359696 84.564808 
L 233.445497 68.901062 
L 234.531298 92.01032 
L 235.617099 100.119908 
L 237.788702 82.014891 
L 238.874503 93.396871 
L 239.960304 79.966769 
L 241.046105 81.500348 
L 242.131906 81.895896 
L 243.217708 87.435848 
L 244.303509 89.158988 
L 245.38931 88.566433 
L 246.475111 70.79389 
L 247.560912 81.787164 
L 248.646713 88.461556 
L 249.732514 104.150184 
L 250.818316 86.414283 
L 251.904117 114.668652 
L 252.989918 106.598141 
L 254.075719 86.177805 
L 255.16152 76.7729 
L 256.247321 97.955865 
L 257.333123 111.280229 
L 258.418924 78.245946 
L 259.504725 82.639576 
L 260.590526 86.47918 
L 261.676327 97.036791 
L 262.762128 86.040357 
L 263.847929 82.974762 
L 264.933731 59.746515 
L 266.019532 53.568 
L 267.105333 94.793829 
L 268.191134 63.536626 
L 269.276935 79.399497 
L 270.362736 88.428788 
L 271.448538 77.068945 
L 272.534339 88.559858 
L 273.62014 79.779476 
L 274.705941 58.987939 
L 275.791742 84.608348 
L 276.877543 74.513947 
L 277.963344 54.550963 
L 279.049146 82.318888 
L 280.134947 72.933789 
L 281.220748 82.33845 
L 282.306549 80.675664 
L 283.39235 73.572213 
L 284.478151 57.440393 
L 285.563953 63.675369 
L 286.649754 85.803705 
L 287.735555 70.00006 
L 288.821356 67.458557 
L 289.907157 58.358373 
L 290.992958 86.447838 
L 292.07876 70.916586 
L 293.164561 78.458168 
L 294.250362 87.267578 
L 295.336163 69.013919 
L 296.421964 75.280308 
L 297.507765 70.209835 
L 298.593566 78.472128 
L 299.679368 65.821239 
L 300.765169 83.925028 
L 301.85097 80.07011 
L 302.936771 77.49737 
L 304.022572 83.799489 
L 305.108373 113.307506 
L 306.194175 85.077466 
L 307.279976 68.543735 
L 308.365777 77.424997 
L 309.451578 81.018848 
L 310.537379 86.165819 
L 311.62318 68.607586 
L 312.708981 86.895872 
L 313.794783 93.885887 
L 314.880584 80.355069 
L 315.966385 100.024725 
L 317.052186 102.108915 
L 318.137987 115.639367 
L 319.223788 67.834007 
L 320.30959 77.460249 
L 321.395391 102.484542 
L 322.481192 88.755079 
L 323.566993 79.115728 
L 324.652794 115.676464 
L 325.738595 102.044361 
L 326.824396 99.599326 
L 327.910198 77.905473 
L 328.995999 86.578932 
L 330.0818 99.227489 
L 331.167601 98.178799 
L 332.253402 90.864739 
L 333.339203 94.245946 
L 334.425005 100.326033 
L 335.510806 83.544574 
L 336.596607 73.065406 
L 337.682408 55.101557 
L 338.768209 66.786169 
L 339.85401 75.16464 
L 340.939811 78.616335 
L 342.025613 69.562051 
L 343.111414 91.03154 
L 344.197215 92.111635 
L 345.283016 73.411953 
L 346.368817 105.664327 
L 347.454618 110.183372 
L 348.54042 105.989774 
L 349.626221 115.572406 
L 350.712022 94.841284 
L 351.797823 109.037749 
L 352.883624 113.599608 
L 353.969425 116.51344 
L 356.141028 87.151313 
L 357.226829 94.492457 
L 358.31263 70.005066 
L 359.398431 92.734754 
L 360.484232 93.370132 
L 361.570033 77.462801 
L 362.655835 82.997355 
L 363.741636 68.987177 
L 364.827437 78.468032 
L 365.913238 68.06296 
L 366.999039 86.708321 
L 370.256443 93.155376 
L 371.342244 91.245891 
L 372.428045 101.947755 
L 373.513846 93.193933 
L 374.599647 82.37907 
L 375.685448 102.913364 
L 376.77125 83.885686 
L 377.857051 117.125886 
L 378.942852 128.182381 
L 380.028653 96.518106 
L 381.114454 118.047025 
L 382.200255 128.957764 
L 383.286057 100.745268 
L 384.371858 125.101366 
L 385.457659 143.349512 
L 386.54346 105.879406 
L 387.629261 138.124836 
L 388.715062 103.79672 
L 389.800863 88.715172 
L 390.886665 102.989758 
L 391.972466 100.606272 
L 393.058267 83.388735 
L 394.144068 130.027873 
L 395.229869 139.836341 
L 396.31567 119.915823 
L 397.401472 102.16791 
L 398.487273 101.083259 
L 398.487273 101.083259 
" style="fill:none;stroke:#008000;stroke-dasharray:9.6,2.4,1.5,2.4;stroke-dashoffset:0;stroke-width:1.5;"/>
   </g>
   <g id="line2d_36">
    <path clip-path="url(#p06808b8991)" d="M 73.832727 275.837185 
L 74.918528 181.263515 
L 76.00433 196.251535 
L 77.090131 166.990361 
L 78.175932 166.109706 
L 79.261733 144.886699 
L 80.347534 144.150517 
L 81.433335 150.293351 
L 82.519137 164.085669 
L 83.604938 140.632842 
L 84.690739 125.26037 
L 85.77654 129.42927 
L 86.862341 130.162365 
L 87.948142 135.746644 
L 89.033943 124.126978 
L 90.119745 123.633388 
L 91.205546 105.167804 
L 92.291347 110.025025 
L 93.377148 110.864598 
L 94.462949 111.4564 
L 95.54875 117.836009 
L 96.634552 97.035265 
L 97.720353 150.479818 
L 98.806154 111.130908 
L 99.891955 119.108803 
L 100.977756 120.997266 
L 102.063557 115.096819 
L 103.149358 112.599885 
L 104.23516 111.617931 
L 105.320961 97.027867 
L 106.406762 104.282181 
L 107.492563 116.077681 
L 108.578364 108.174266 
L 109.664165 102.703346 
L 110.749967 113.596047 
L 111.835768 105.930968 
L 112.921569 103.80181 
L 114.00737 113.479976 
L 115.093171 115.662048 
L 116.178972 86.126281 
L 117.264773 110.197832 
L 118.350575 108.826731 
L 119.436376 105.229933 
L 120.522177 93.607508 
L 121.607978 94.831975 
L 122.693779 107.003988 
L 123.77958 99.659164 
L 124.865382 97.807796 
L 125.951183 81.16947 
L 127.036984 85.69111 
L 128.122785 77.730795 
L 129.208586 96.743371 
L 130.294387 93.838309 
L 131.380189 89.991784 
L 132.46599 102.569287 
L 133.551791 70.347774 
L 134.637592 119.976102 
L 135.723393 98.245498 
L 136.809194 101.629759 
L 137.894995 88.946808 
L 138.980797 96.630874 
L 140.066598 110.253497 
L 141.152399 86.630362 
L 142.2382 97.865157 
L 143.324001 86.550377 
L 145.495604 90.956137 
L 146.581405 71.045288 
L 147.667206 88.089792 
L 148.753007 82.951794 
L 149.838808 111.104677 
L 150.924609 104.691548 
L 152.01041 92.899714 
L 153.096212 113.263557 
L 154.182013 99.129402 
L 155.267814 96.583793 
L 156.353615 91.05242 
L 157.439416 98.52275 
L 158.525217 101.190934 
L 160.69682 95.821347 
L 161.782621 111.631022 
L 162.868422 110.041609 
L 163.954223 132.028467 
L 165.040024 90.008834 
L 166.125825 77.468914 
L 168.297428 121.256821 
L 169.383229 94.886392 
L 170.46903 97.477792 
L 171.554831 101.150706 
L 172.640632 112.669893 
L 173.726434 90.579551 
L 174.812235 96.029266 
L 175.898036 76.131139 
L 176.983837 103.362016 
L 178.069638 99.766662 
L 179.155439 94.097491 
L 180.24124 70.944389 
L 181.327042 95.214125 
L 182.412843 94.994782 
L 183.498644 109.646981 
L 184.584445 99.75128 
L 185.670246 104.861202 
L 186.756047 76.93692 
L 187.841849 74.828326 
L 188.92765 115.811231 
L 190.013451 86.78932 
L 191.099252 102.025287 
L 192.185053 100.521698 
L 193.270854 99.773504 
L 194.356656 95.42147 
L 195.442457 86.786375 
L 196.528258 76.711564 
L 197.614059 82.215508 
L 198.69986 67.333515 
L 199.785661 72.404944 
L 200.871462 71.292896 
L 201.957264 79.593012 
L 203.043065 94.5832 
L 204.128866 88.478398 
L 205.214667 91.757919 
L 206.300468 82.655349 
L 207.386269 99.335023 
L 208.472071 90.79261 
L 209.557872 78.216893 
L 210.643673 111.213515 
L 211.729474 95.29896 
L 212.815275 89.493699 
L 213.901076 86.37166 
L 214.986877 98.221008 
L 216.072679 78.299226 
L 217.15848 68.92868 
L 218.244281 99.909867 
L 220.415883 74.766041 
L 221.501684 88.444867 
L 222.587486 90.517425 
L 223.673287 78.083409 
L 224.759088 81.304845 
L 225.844889 82.276542 
L 226.93069 83.958847 
L 228.016491 79.33861 
L 229.102292 103.173727 
L 230.188094 94.084355 
L 231.273895 104.013313 
L 232.359696 85.475988 
L 233.445497 81.881999 
L 234.531298 95.991548 
L 235.617099 92.412841 
L 236.702901 85.854958 
L 237.788702 78.030136 
L 238.874503 91.282289 
L 239.960304 65.766196 
L 241.046105 82.671316 
L 242.131906 83.436824 
L 243.217708 89.753849 
L 244.303509 82.989468 
L 245.38931 82.712528 
L 246.475111 70.640559 
L 248.646713 84.997044 
L 249.732514 100.937003 
L 250.818316 77.393897 
L 251.904117 106.268347 
L 252.989918 101.295738 
L 254.075719 82.617893 
L 255.16152 77.819909 
L 256.247321 91.737118 
L 257.333123 113.133103 
L 258.418924 79.526351 
L 259.504725 87.152086 
L 260.590526 86.651228 
L 261.676327 93.994379 
L 262.762128 84.599464 
L 263.847929 92.915603 
L 264.933731 73.063315 
L 266.019532 73.365586 
L 267.105333 69.888716 
L 268.191134 62.855058 
L 269.276935 72.361659 
L 270.362736 76.618312 
L 271.448538 72.616024 
L 272.534339 84.854858 
L 273.62014 74.946019 
L 274.705941 66.093774 
L 275.791742 79.286787 
L 276.877543 73.549324 
L 277.963344 60.593299 
L 279.049146 77.370453 
L 280.134947 75.626287 
L 281.220748 81.20401 
L 282.306549 79.808277 
L 284.478151 58.546039 
L 285.563953 65.483392 
L 286.649754 81.440194 
L 287.735555 75.820628 
L 288.821356 66.403238 
L 289.907157 59.795048 
L 290.992958 82.962765 
L 292.07876 72.839891 
L 293.164561 81.195426 
L 294.250362 75.86545 
L 295.336163 72.280882 
L 296.421964 71.485993 
L 297.507765 68.086041 
L 298.593566 76.370159 
L 299.679368 62.637853 
L 300.765169 77.647853 
L 301.85097 77.653761 
L 302.936771 79.069667 
L 304.022572 83.207018 
L 305.108373 105.041428 
L 306.194175 95.086026 
L 307.279976 70.236635 
L 308.365777 75.494364 
L 309.451578 76.269755 
L 310.537379 85.922516 
L 311.62318 79.828621 
L 312.708981 81.467699 
L 313.794783 92.801117 
L 314.880584 85.292544 
L 315.966385 98.348027 
L 317.052186 91.970969 
L 318.137987 117.933905 
L 319.223788 70.981416 
L 320.30959 78.432159 
L 321.395391 93.109365 
L 322.481192 84.560269 
L 323.566993 88.576503 
L 324.652794 112.591698 
L 325.738595 97.13244 
L 326.824396 99.251244 
L 327.910198 94.383852 
L 328.995999 84.870657 
L 330.0818 106.873145 
L 331.167601 101.464831 
L 332.253402 94.340422 
L 333.339203 91.779548 
L 334.425005 101.22434 
L 335.510806 82.031778 
L 336.596607 82.369583 
L 337.682408 68.373945 
L 338.768209 77.317055 
L 339.85401 72.22413 
L 340.939811 89.298692 
L 342.025613 82.846317 
L 343.111414 93.274134 
L 344.197215 89.301198 
L 345.283016 77.659772 
L 346.368817 98.118626 
L 347.454618 112.617328 
L 348.54042 102.118397 
L 349.626221 109.894676 
L 350.712022 92.77653 
L 351.797823 94.141435 
L 352.883624 109.615432 
L 353.969425 115.200093 
L 355.055227 100.871936 
L 356.141028 100.128837 
L 357.226829 96.999405 
L 358.31263 89.630902 
L 359.398431 96.996342 
L 360.484232 89.013883 
L 361.570033 75.956792 
L 362.655835 80.824965 
L 363.741636 82.877194 
L 364.827437 82.154508 
L 365.913238 85.580395 
L 366.999039 92.642705 
L 368.08484 93.80114 
L 369.170642 93.986275 
L 370.256443 104.509672 
L 371.342244 102.892114 
L 372.428045 101.682499 
L 373.513846 95.080154 
L 374.599647 80.521222 
L 375.685448 113.565902 
L 376.77125 96.592986 
L 377.857051 118.409946 
L 378.942852 128.553989 
L 380.028653 100.953937 
L 381.114454 118.376749 
L 382.200255 126.298805 
L 383.286057 94.96454 
L 384.371858 119.036892 
L 385.457659 138.407252 
L 386.54346 101.179247 
L 387.629261 132.760888 
L 388.715062 111.419119 
L 389.800863 93.860758 
L 390.886665 106.962451 
L 391.972466 102.377578 
L 393.058267 87.678179 
L 394.144068 130.583694 
L 395.229869 132.036304 
L 396.31567 119.368106 
L 397.401472 105.248948 
L 398.487273 103.234904 
L 398.487273 103.234904 
" style="fill:none;stroke:#ff0000;stroke-linecap:square;stroke-width:1.5;"/>
   </g>
   <g id="patch_3">
    <path d="M 57.6 307.584 
L 57.6 41.472 
" style="fill:none;stroke:#000000;stroke-linecap:square;stroke-linejoin:miter;stroke-width:0.8;"/>
   </g>
   <g id="patch_4">
    <path d="M 414.72 307.584 
L 414.72 41.472 
" style="fill:none;stroke:#000000;stroke-linecap:square;stroke-linejoin:miter;stroke-width:0.8;"/>
   </g>
   <g id="patch_5">
    <path d="M 57.6 307.584 
L 414.72 307.584 
" style="fill:none;stroke:#000000;stroke-linecap:square;stroke-linejoin:miter;stroke-width:0.8;"/>
   </g>
   <g id="patch_6">
    <path d="M 57.6 41.472 
L 414.72 41.472 
" style="fill:none;stroke:#000000;stroke-linecap:square;stroke-linejoin:miter;stroke-width:0.8;"/>
   </g>
   <g id="text_19">
    <!-- Population's average and best fitness -->
    <defs>
     <path d="M 19.671875 64.796875 
L 19.671875 37.40625 
L 32.078125 37.40625 
Q 38.96875 37.40625 42.71875 40.96875 
Q 46.484375 44.53125 46.484375 51.125 
Q 46.484375 57.671875 42.71875 61.234375 
Q 38.96875 64.796875 32.078125 64.796875 
z
M 9.8125 72.90625 
L 32.078125 72.90625 
Q 44.34375 72.90625 50.609375 67.359375 
Q 56.890625 61.8125 56.890625 51.125 
Q 56.890625 40.328125 50.609375 34.8125 
Q 44.34375 29.296875 32.078125 29.296875 
L 19.671875 29.296875 
L 19.671875 0 
L 9.8125 0 
z
" id="DejaVuSans-80"/>
     <path d="M 18.109375 8.203125 
L 18.109375 -20.796875 
L 9.078125 -20.796875 
L 9.078125 54.6875 
L 18.109375 54.6875 
L 18.109375 46.390625 
Q 20.953125 51.265625 25.265625 53.625 
Q 29.59375 56 35.59375 56 
Q 45.5625 56 51.78125 48.09375 
Q 58.015625 40.1875 58.015625 27.296875 
Q 58.015625 14.40625 51.78125 6.484375 
Q 45.5625 -1.421875 35.59375 -1.421875 
Q 29.59375 -1.421875 25.265625 0.953125 
Q 20.953125 3.328125 18.109375 8.203125 
z
M 48.6875 27.296875 
Q 48.6875 37.203125 44.609375 42.84375 
Q 40.53125 48.484375 33.40625 48.484375 
Q 26.265625 48.484375 22.1875 42.84375 
Q 18.109375 37.203125 18.109375 27.296875 
Q 18.109375 17.390625 22.1875 11.75 
Q 26.265625 6.109375 33.40625 6.109375 
Q 40.53125 6.109375 44.609375 11.75 
Q 48.6875 17.390625 48.6875 27.296875 
z
" id="DejaVuSans-112"/>
     <path d="M 8.5 21.578125 
L 8.5 54.6875 
L 17.484375 54.6875 
L 17.484375 21.921875 
Q 17.484375 14.15625 20.5 10.265625 
Q 23.53125 6.390625 29.59375 6.390625 
Q 36.859375 6.390625 41.078125 11.03125 
Q 45.3125 15.671875 45.3125 23.6875 
L 45.3125 54.6875 
L 54.296875 54.6875 
L 54.296875 0 
L 45.3125 0 
L 45.3125 8.40625 
Q 42.046875 3.421875 37.71875 1 
Q 33.40625 -1.421875 27.6875 -1.421875 
Q 18.265625 -1.421875 13.375 4.4375 
Q 8.5 10.296875 8.5 21.578125 
z
M 31.109375 56 
z
" id="DejaVuSans-117"/>
     <path d="M 9.421875 75.984375 
L 18.40625 75.984375 
L 18.40625 0 
L 9.421875 0 
z
" id="DejaVuSans-108"/>
     <path d="M 17.921875 72.90625 
L 17.921875 45.796875 
L 9.625 45.796875 
L 9.625 72.90625 
z
" id="DejaVuSans-39"/>
     <path id="DejaVuSans-32"/>
     <path d="M 2.984375 54.6875 
L 12.5 54.6875 
L 29.59375 8.796875 
L 46.6875 54.6875 
L 56.203125 54.6875 
L 35.6875 0 
L 23.484375 0 
z
" id="DejaVuSans-118"/>
     <path d="M 45.40625 27.984375 
Q 45.40625 37.75 41.375 43.109375 
Q 37.359375 48.484375 30.078125 48.484375 
Q 22.859375 48.484375 18.828125 43.109375 
Q 14.796875 37.75 14.796875 27.984375 
Q 14.796875 18.265625 18.828125 12.890625 
Q 22.859375 7.515625 30.078125 7.515625 
Q 37.359375 7.515625 41.375 12.890625 
Q 45.40625 18.265625 45.40625 27.984375 
z
M 54.390625 6.78125 
Q 54.390625 -7.171875 48.1875 -13.984375 
Q 42 -20.796875 29.203125 -20.796875 
Q 24.46875 -20.796875 20.265625 -20.09375 
Q 16.0625 -19.390625 12.109375 -17.921875 
L 12.109375 -9.1875 
Q 16.0625 -11.328125 19.921875 -12.34375 
Q 23.78125 -13.375 27.78125 -13.375 
Q 36.625 -13.375 41.015625 -8.765625 
Q 45.40625 -4.15625 45.40625 5.171875 
L 45.40625 9.625 
Q 42.625 4.78125 38.28125 2.390625 
Q 33.9375 0 27.875 0 
Q 17.828125 0 11.671875 7.65625 
Q 5.515625 15.328125 5.515625 27.984375 
Q 5.515625 40.671875 11.671875 48.328125 
Q 17.828125 56 27.875 56 
Q 33.9375 56 38.28125 53.609375 
Q 42.625 51.21875 45.40625 46.390625 
L 45.40625 54.6875 
L 54.390625 54.6875 
z
" id="DejaVuSans-103"/>
     <path d="M 45.40625 46.390625 
L 45.40625 75.984375 
L 54.390625 75.984375 
L 54.390625 0 
L 45.40625 0 
L 45.40625 8.203125 
Q 42.578125 3.328125 38.25 0.953125 
Q 33.9375 -1.421875 27.875 -1.421875 
Q 17.96875 -1.421875 11.734375 6.484375 
Q 5.515625 14.40625 5.515625 27.296875 
Q 5.515625 40.1875 11.734375 48.09375 
Q 17.96875 56 27.875 56 
Q 33.9375 56 38.25 53.625 
Q 42.578125 51.265625 45.40625 46.390625 
z
M 14.796875 27.296875 
Q 14.796875 17.390625 18.875 11.75 
Q 22.953125 6.109375 30.078125 6.109375 
Q 37.203125 6.109375 41.296875 11.75 
Q 45.40625 17.390625 45.40625 27.296875 
Q 45.40625 37.203125 41.296875 42.84375 
Q 37.203125 48.484375 30.078125 48.484375 
Q 22.953125 48.484375 18.875 42.84375 
Q 14.796875 37.203125 14.796875 27.296875 
z
" id="DejaVuSans-100"/>
     <path d="M 48.6875 27.296875 
Q 48.6875 37.203125 44.609375 42.84375 
Q 40.53125 48.484375 33.40625 48.484375 
Q 26.265625 48.484375 22.1875 42.84375 
Q 18.109375 37.203125 18.109375 27.296875 
Q 18.109375 17.390625 22.1875 11.75 
Q 26.265625 6.109375 33.40625 6.109375 
Q 40.53125 6.109375 44.609375 11.75 
Q 48.6875 17.390625 48.6875 27.296875 
z
M 18.109375 46.390625 
Q 20.953125 51.265625 25.265625 53.625 
Q 29.59375 56 35.59375 56 
Q 45.5625 56 51.78125 48.09375 
Q 58.015625 40.1875 58.015625 27.296875 
Q 58.015625 14.40625 51.78125 6.484375 
Q 45.5625 -1.421875 35.59375 -1.421875 
Q 29.59375 -1.421875 25.265625 0.953125 
Q 20.953125 3.328125 18.109375 8.203125 
L 18.109375 0 
L 9.078125 0 
L 9.078125 75.984375 
L 18.109375 75.984375 
z
" id="DejaVuSans-98"/>
     <path d="M 37.109375 75.984375 
L 37.109375 68.5 
L 28.515625 68.5 
Q 23.6875 68.5 21.796875 66.546875 
Q 19.921875 64.59375 19.921875 59.515625 
L 19.921875 54.6875 
L 34.71875 54.6875 
L 34.71875 47.703125 
L 19.921875 47.703125 
L 19.921875 0 
L 10.890625 0 
L 10.890625 47.703125 
L 2.296875 47.703125 
L 2.296875 54.6875 
L 10.890625 54.6875 
L 10.890625 58.5 
Q 10.890625 67.625 15.140625 71.796875 
Q 19.390625 75.984375 28.609375 75.984375 
z
" id="DejaVuSans-102"/>
    </defs>
    <g transform="translate(123.315 35.472)scale(0.12 -0.12)">
     <use xlink:href="#DejaVuSans-80"/>
     <use x="60.255859" xlink:href="#DejaVuSans-111"/>
     <use x="121.4375" xlink:href="#DejaVuSans-112"/>
     <use x="184.914062" xlink:href="#DejaVuSans-117"/>
     <use x="248.292969" xlink:href="#DejaVuSans-108"/>
     <use x="276.076172" xlink:href="#DejaVuSans-97"/>
     <use x="337.355469" xlink:href="#DejaVuSans-116"/>
     <use x="376.564453" xlink:href="#DejaVuSans-105"/>
     <use x="404.347656" xlink:href="#DejaVuSans-111"/>
     <use x="465.529297" xlink:href="#DejaVuSans-110"/>
     <use x="528.908203" xlink:href="#DejaVuSans-39"/>
     <use x="556.398438" xlink:href="#DejaVuSans-115"/>
     <use x="608.498047" xlink:href="#DejaVuSans-32"/>
     <use x="640.285156" xlink:href="#DejaVuSans-97"/>
     <use x="701.564453" xlink:href="#DejaVuSans-118"/>
     <use x="760.744141" xlink:href="#DejaVuSans-101"/>
     <use x="822.267578" xlink:href="#DejaVuSans-114"/>
     <use x="863.380859" xlink:href="#DejaVuSans-97"/>
     <use x="924.660156" xlink:href="#DejaVuSans-103"/>
     <use x="988.136719" xlink:href="#DejaVuSans-101"/>
     <use x="1049.660156" xlink:href="#DejaVuSans-32"/>
     <use x="1081.447266" xlink:href="#DejaVuSans-97"/>
     <use x="1142.726562" xlink:href="#DejaVuSans-110"/>
     <use x="1206.105469" xlink:href="#DejaVuSans-100"/>
     <use x="1269.582031" xlink:href="#DejaVuSans-32"/>
     <use x="1301.369141" xlink:href="#DejaVuSans-98"/>
     <use x="1364.845703" xlink:href="#DejaVuSans-101"/>
     <use x="1426.369141" xlink:href="#DejaVuSans-115"/>
     <use x="1478.46875" xlink:href="#DejaVuSans-116"/>
     <use x="1517.677734" xlink:href="#DejaVuSans-32"/>
     <use x="1549.464844" xlink:href="#DejaVuSans-102"/>
     <use x="1584.669922" xlink:href="#DejaVuSans-105"/>
     <use x="1612.453125" xlink:href="#DejaVuSans-116"/>
     <use x="1651.662109" xlink:href="#DejaVuSans-110"/>
     <use x="1715.041016" xlink:href="#DejaVuSans-101"/>
     <use x="1776.564453" xlink:href="#DejaVuSans-115"/>
     <use x="1828.664062" xlink:href="#DejaVuSans-115"/>
    </g>
   </g>
   <g id="legend_1">
    <g id="patch_7">
     <path d="M 334.779375 302.584 
L 407.72 302.584 
Q 409.72 302.584 409.72 300.584 
L 409.72 242.8715 
Q 409.72 240.8715 407.72 240.8715 
L 334.779375 240.8715 
Q 332.779375 240.8715 332.779375 242.8715 
L 332.779375 300.584 
Q 332.779375 302.584 334.779375 302.584 
z
" style="fill:#ffffff;opacity:0.8;stroke:#cccccc;stroke-linejoin:miter;"/>
    </g>
    <g id="line2d_37">
     <path d="M 336.779375 248.969937 
L 356.779375 248.969937 
" style="fill:none;stroke:#0000ff;stroke-linecap:square;stroke-width:1.5;"/>
    </g>
    <g id="line2d_38"/>
    <g id="text_20">
     <!-- average -->
     <g transform="translate(364.779375 252.469937)scale(0.1 -0.1)">
      <use xlink:href="#DejaVuSans-97"/>
      <use x="61.279297" xlink:href="#DejaVuSans-118"/>
      <use x="120.458984" xlink:href="#DejaVuSans-101"/>
      <use x="181.982422" xlink:href="#DejaVuSans-114"/>
      <use x="223.095703" xlink:href="#DejaVuSans-97"/>
      <use x="284.375" xlink:href="#DejaVuSans-103"/>
      <use x="347.851562" xlink:href="#DejaVuSans-101"/>
     </g>
    </g>
    <g id="line2d_39">
     <path d="M 336.779375 263.648062 
L 356.779375 263.648062 
" style="fill:none;stroke:#008000;stroke-dasharray:9.6,2.4,1.5,2.4;stroke-dashoffset:0;stroke-width:1.5;"/>
    </g>
    <g id="line2d_40"/>
    <g id="text_21">
     <!-- -1 sd -->
     <defs>
      <path d="M 4.890625 31.390625 
L 31.203125 31.390625 
L 31.203125 23.390625 
L 4.890625 23.390625 
z
" id="DejaVuSans-45"/>
     </defs>
     <g transform="translate(364.779375 267.148062)scale(0.1 -0.1)">
      <use xlink:href="#DejaVuSans-45"/>
      <use x="36.083984" xlink:href="#DejaVuSans-49"/>
      <use x="99.707031" xlink:href="#DejaVuSans-32"/>
      <use x="131.494141" xlink:href="#DejaVuSans-115"/>
      <use x="183.59375" xlink:href="#DejaVuSans-100"/>
     </g>
    </g>
    <g id="line2d_41">
     <path d="M 336.779375 278.326187 
L 356.779375 278.326187 
" style="fill:none;stroke:#008000;stroke-dasharray:9.6,2.4,1.5,2.4;stroke-dashoffset:0;stroke-width:1.5;"/>
    </g>
    <g id="line2d_42"/>
    <g id="text_22">
     <!-- +1 sd -->
     <defs>
      <path d="M 46 62.703125 
L 46 35.5 
L 73.1875 35.5 
L 73.1875 27.203125 
L 46 27.203125 
L 46 0 
L 37.796875 0 
L 37.796875 27.203125 
L 10.59375 27.203125 
L 10.59375 35.5 
L 37.796875 35.5 
L 37.796875 62.703125 
z
" id="DejaVuSans-43"/>
     </defs>
     <g transform="translate(364.779375 281.826187)scale(0.1 -0.1)">
      <use xlink:href="#DejaVuSans-43"/>
      <use x="83.789062" xlink:href="#DejaVuSans-49"/>
      <use x="147.412109" xlink:href="#DejaVuSans-32"/>
      <use x="179.199219" xlink:href="#DejaVuSans-115"/>
      <use x="231.298828" xlink:href="#DejaVuSans-100"/>
     </g>
    </g>
    <g id="line2d_43">
     <path d="M 336.779375 293.004312 
L 356.779375 293.004312 
" style="fill:none;stroke:#ff0000;stroke-linecap:square;stroke-width:1.5;"/>
    </g>
    <g id="line2d_44"/>
    <g id="text_23">
     <!-- best -->
     <g transform="translate(364.779375 296.504312)scale(0.1 -0.1)">
      <use xlink:href="#DejaVuSans-98"/>
      <use x="63.476562" xlink:href="#DejaVuSans-101"/>
      <use x="125" xlink:href="#DejaVuSans-115"/>
      <use x="177.099609" xlink:href="#DejaVuSans-116"/>
     </g>
    </g>
   </g>
  </g>
 </g>
 <defs>
  <clipPath id="p06808b8991">
   <rect height="266.112" width="357.12" x="57.6" y="41.472"/>
  </clipPath>
 </defs>
</svg>
