<?xml version="1.0" encoding="UTF-8" standalone="no"?>
<!DOCTYPE svg PUBLIC "-//W3C//DTD SVG 1.1//EN"
 "http://www.w3.org/Graphics/SVG/1.1/DTD/svg11.dtd">
<!-- Generated by graphviz version 2.40.1 (20161225.0304)
 -->
<!-- Title: %3 Pages: 1 -->
<svg width="432pt" height="259pt"
 viewBox="0.00 0.00 432.00 258.87" xmlns="http://www.w3.org/2000/svg" xmlns:xlink="http://www.w3.org/1999/xlink">
<g id="graph0" class="graph" transform="scale(1 1) rotate(0) translate(4 254.8726)">
<title>%3</title>
<polygon fill="#ffffff" stroke="transparent" points="-4,4 -4,-254.8726 427.9976,-254.8726 427.9976,4 -4,4"/>
<!-- E0 -->
<g id="node1" class="node">
<title>E0</title>
<polygon fill="#d3d3d3" stroke="#000000" points="25.9963,-250.8726 .0012,-250.8726 .0012,-233.8726 25.9963,-233.8726 25.9963,-250.8726"/>
<text text-anchor="middle" x="12.9988" y="-239.6726" font-family="Times,serif" font-size="9.00" fill="#000000">E0</text>
</g>
<!-- E1 -->
<g id="node2" class="node">
<title>E1</title>
<polygon fill="#d3d3d3" stroke="#000000" points="69.9963,-250.8726 44.0012,-250.8726 44.0012,-233.8726 69.9963,-233.8726 69.9963,-250.8726"/>
<text text-anchor="middle" x="56.9988" y="-239.6726" font-family="Times,serif" font-size="9.00" fill="#000000">E1</text>
</g>
<!-- E0&#45;&gt;E1 -->
<!-- 1 -->
<g id="node11" class="node">
<title>1</title>
<ellipse fill="#add8e6" stroke="#000000" cx="212.9988" cy="-14.853" rx="14.4914" ry="14.4914"/>
<text text-anchor="middle" x="212.9988" y="-12.153" font-family="Times,serif" font-size="9.00" fill="#000000">1</text>
</g>
<!-- E0&#45;&gt;1 -->
<g id="edge12" class="edge">
<title>E0&#45;&gt;1</title>
<path fill="none" stroke="#ff0000" stroke-width="2.2703" d="M20.5948,-233.7314C49.875,-200.4223 155.8165,-79.9034 196.7242,-33.3669"/>
<polygon fill="#ff0000" stroke="#ff0000" stroke-width="2.2703" points="199.3852,-35.6411 203.3587,-25.8196 194.1277,-31.0195 199.3852,-35.6411"/>
</g>
<!-- E2 -->
<g id="node3" class="node">
<title>E2</title>
<polygon fill="#d3d3d3" stroke="#000000" points="113.9963,-250.8726 88.0012,-250.8726 88.0012,-233.8726 113.9963,-233.8726 113.9963,-250.8726"/>
<text text-anchor="middle" x="100.9988" y="-239.6726" font-family="Times,serif" font-size="9.00" fill="#000000">E2</text>
</g>
<!-- E1&#45;&gt;E2 -->
<!-- E3 -->
<g id="node4" class="node">
<title>E3</title>
<polygon fill="#d3d3d3" stroke="#000000" points="157.9963,-250.8726 132.0012,-250.8726 132.0012,-233.8726 157.9963,-233.8726 157.9963,-250.8726"/>
<text text-anchor="middle" x="144.9988" y="-239.6726" font-family="Times,serif" font-size="9.00" fill="#000000">E3</text>
</g>
<!-- E2&#45;&gt;E3 -->
<!-- E4 -->
<g id="node5" class="node">
<title>E4</title>
<polygon fill="#d3d3d3" stroke="#000000" points="201.9963,-250.8726 176.0012,-250.8726 176.0012,-233.8726 201.9963,-233.8726 201.9963,-250.8726"/>
<text text-anchor="middle" x="188.9988" y="-239.6726" font-family="Times,serif" font-size="9.00" fill="#000000">E4</text>
</g>
<!-- E3&#45;&gt;E4 -->
<!-- 0 -->
<g id="node10" class="node">
<title>0</title>
<ellipse fill="#add8e6" stroke="#000000" cx="165.9988" cy="-14.853" rx="14.4914" ry="14.4914"/>
<text text-anchor="middle" x="165.9988" y="-12.153" font-family="Times,serif" font-size="9.00" fill="#000000">0</text>
</g>
<!-- E3&#45;&gt;0 -->
<g id="edge13" class="edge">
<title>E3&#45;&gt;0</title>
<path fill="none" stroke="#00ff00" stroke-width=".3602" d="M131.9948,-234.744C120.3639,-227.0898 104.0911,-214.1192 96.9988,-197.8726 73.4975,-144.038 70.5095,-118.1349 96.9988,-65.7061 106.5573,-46.7875 126.84,-33.1784 142.9539,-24.8273"/>
<polygon fill="#00ff00" stroke="#00ff00" stroke-width=".3602" points="144.8324,-27.8069 152.3153,-20.3065 141.7883,-21.5035 144.8324,-27.8069"/>
</g>
<!-- E5 -->
<g id="node6" class="node">
<title>E5</title>
<polygon fill="#d3d3d3" stroke="#000000" points="249.9963,-250.8726 224.0012,-250.8726 224.0012,-233.8726 249.9963,-233.8726 249.9963,-250.8726"/>
<text text-anchor="middle" x="236.9988" y="-239.6726" font-family="Times,serif" font-size="9.00" fill="#000000">E5</text>
</g>
<!-- E4&#45;&gt;E5 -->
<!-- 5489 -->
<g id="node15" class="node">
<title>5489</title>
<ellipse fill="#ffffff" stroke="#000000" cx="219.9988" cy="-89.7477" rx="24.0833" ry="24.0833"/>
<text text-anchor="middle" x="219.9988" y="-87.0477" font-family="Times,serif" font-size="9.00" fill="#000000">5489</text>
</g>
<!-- E4&#45;&gt;5489 -->
<g id="edge24" class="edge">
<title>E4&#45;&gt;5489</title>
<path fill="none" stroke="#ff0000" stroke-width=".3865" d="M190.4555,-233.6661C193.2374,-217.2264 199.6011,-180.5072 205.9988,-149.7893 207.8027,-141.1281 209.9012,-131.8006 211.916,-123.14"/>
<polygon fill="#ff0000" stroke="#ff0000" stroke-width=".3865" points="215.3338,-123.8956 214.2201,-113.3594 208.5203,-122.2904 215.3338,-123.8956"/>
</g>
<!-- E6 -->
<g id="node7" class="node">
<title>E6</title>
<polygon fill="#d3d3d3" stroke="#000000" points="319.9963,-250.8726 294.0012,-250.8726 294.0012,-233.8726 319.9963,-233.8726 319.9963,-250.8726"/>
<text text-anchor="middle" x="306.9988" y="-239.6726" font-family="Times,serif" font-size="9.00" fill="#000000">E6</text>
</g>
<!-- E5&#45;&gt;E6 -->
<!-- E5&#45;&gt;0 -->
<g id="edge17" class="edge">
<title>E5&#45;&gt;0</title>
<path fill="none" stroke="#ff0000" stroke-width=".1918" d="M229.4873,-233.7858C222.4032,-225.245 212.0016,-211.4842 205.9988,-197.8726 182.4498,-144.4739 172.2611,-76.015 168.2731,-39.8429"/>
<polygon fill="#ff0000" stroke="#ff0000" stroke-width=".1918" points="171.7351,-39.2937 167.2266,-29.7061 164.7721,-40.0126 171.7351,-39.2937"/>
</g>
<!-- 3106 -->
<g id="node14" class="node">
<title>3106</title>
<ellipse fill="#ffffff" stroke="#000000" cx="238.9988" cy="-173.831" rx="24.0833" ry="24.0833"/>
<text text-anchor="middle" x="238.9988" y="-171.131" font-family="Times,serif" font-size="9.00" fill="#000000">3106</text>
</g>
<!-- E5&#45;&gt;3106 -->
<g id="edge18" class="edge">
<title>E5&#45;&gt;3106</title>
<path fill="none" stroke="#00ff00" stroke-width=".1275" d="M237.2521,-233.6918C237.4435,-227.1311 237.7198,-217.6636 237.9963,-208.1874"/>
<polygon fill="#00ff00" stroke="#00ff00" stroke-width=".1275" points="241.4992,-208.1362 238.2924,-198.0384 234.5021,-207.932 241.4992,-208.1362"/>
</g>
<!-- E7 -->
<g id="node8" class="node">
<title>E7</title>
<polygon fill="#d3d3d3" stroke="#000000" points="379.9963,-250.8726 354.0012,-250.8726 354.0012,-233.8726 379.9963,-233.8726 379.9963,-250.8726"/>
<text text-anchor="middle" x="366.9988" y="-239.6726" font-family="Times,serif" font-size="9.00" fill="#000000">E7</text>
</g>
<!-- E6&#45;&gt;E7 -->
<!-- E6&#45;&gt;0 -->
<g id="edge19" class="edge">
<title>E6&#45;&gt;0</title>
<path fill="none" stroke="#00ff00" stroke-width=".3383" d="M306.981,-233.7411C306.7285,-217.1209 305.0962,-179.6754 295.9988,-149.7893 283.7757,-109.635 281.9817,-96.0667 252.9988,-65.7061 230.7307,-42.3795 217.7142,-46.1941 189.9988,-29.7061 189.1881,-29.2238 188.3637,-28.7301 187.5321,-28.2294"/>
<polygon fill="#00ff00" stroke="#00ff00" stroke-width=".3383" points="189.0099,-25.0305 178.6527,-22.7991 185.3578,-31.0023 189.0099,-25.0305"/>
</g>
<!-- E6&#45;&gt;5489 -->
<g id="edge21" class="edge">
<title>E6&#45;&gt;5489</title>
<path fill="none" stroke="#00ff00" stroke-width=".2741" d="M304.8382,-233.7502C300.3671,-216.8277 289.0692,-178.4235 271.9988,-149.7893 264.4024,-137.0471 254.0077,-124.4113 244.508,-114.0427"/>
<polygon fill="#00ff00" stroke="#00ff00" stroke-width=".2741" points="246.887,-111.464 237.4791,-106.5914 241.7951,-116.2674 246.887,-111.464"/>
</g>
<!-- E8 -->
<g id="node9" class="node">
<title>E8</title>
<polygon fill="#d3d3d3" stroke="#000000" points="423.9963,-250.8726 398.0012,-250.8726 398.0012,-233.8726 423.9963,-233.8726 423.9963,-250.8726"/>
<text text-anchor="middle" x="410.9988" y="-239.6726" font-family="Times,serif" font-size="9.00" fill="#000000">E8</text>
</g>
<!-- E7&#45;&gt;E8 -->
<!-- 2 -->
<g id="node12" class="node">
<title>2</title>
<ellipse fill="#add8e6" stroke="#000000" cx="361.9988" cy="-14.853" rx="14.4914" ry="14.4914"/>
<text text-anchor="middle" x="361.9988" y="-12.153" font-family="Times,serif" font-size="9.00" fill="#000000">2</text>
</g>
<!-- E7&#45;&gt;2 -->
<g id="edge14" class="edge">
<title>E7&#45;&gt;2</title>
<path fill="none" stroke="#00ff00" stroke-width=".7481" d="M366.8089,-233.7314C366.1076,-201.8191 363.6471,-89.8582 362.5426,-39.6001"/>
<polygon fill="#00ff00" stroke="#00ff00" stroke-width=".7481" points="366.0416,-39.5102 362.3226,-29.5895 359.0433,-39.6641 366.0416,-39.5102"/>
</g>
<!-- S -->
<g id="node13" class="node">
<title>S</title>
<ellipse fill="#add8e6" stroke="#000000" cx="408.9988" cy="-14.853" rx="14.7075" ry="14.7075"/>
<text text-anchor="middle" x="408.9988" y="-12.153" font-family="Times,serif" font-size="9.00" fill="#000000">S</text>
</g>
<!-- E7&#45;&gt;S -->
<g id="edge15" class="edge">
<title>E7&#45;&gt;S</title>
<path fill="none" stroke="#00ff00" stroke-width="1.5128" d="M369.6542,-233.5717C372.2821,-224.6406 376.2932,-210.3861 378.9988,-197.8726 391.0945,-141.9291 400.8571,-75.4321 405.6946,-40.0119"/>
<polygon fill="#00ff00" stroke="#00ff00" stroke-width="1.5128" points="409.2231,-40.0343 407.0889,-29.6566 402.2857,-39.1001 409.2231,-40.0343"/>
</g>
<!-- E8&#45;&gt;S -->
<g id="edge16" class="edge">
<title>E8&#45;&gt;S</title>
<path fill="none" stroke="#00ff00" stroke-width=".4313" d="M413.0594,-233.57C415.0371,-224.6376 417.8833,-210.3822 418.9988,-197.8726 424.2162,-139.3641 424.6926,-124.1702 418.9988,-65.7061 418.1525,-57.0166 416.5111,-47.6085 414.799,-39.275"/>
<polygon fill="#00ff00" stroke="#00ff00" stroke-width=".4313" points="418.2015,-38.4508 412.6469,-29.4288 411.363,-39.9456 418.2015,-38.4508"/>
</g>
<!-- E8&#45;&gt;3106 -->
<g id="edge20" class="edge">
<title>E8&#45;&gt;3106</title>
<path fill="none" stroke="#ff0000" stroke-width=".276" d="M397.7878,-237.1081C370.9253,-226.4034 309.26,-201.8299 271.1655,-186.6494"/>
<polygon fill="#ff0000" stroke="#ff0000" stroke-width=".276" points="272.1446,-183.2719 261.5593,-182.8213 269.5532,-189.7746 272.1446,-183.2719"/>
</g>
<!-- 0&#45;&gt;1 -->
<!-- 1&#45;&gt;2 -->
<!-- 2&#45;&gt;S -->
<!-- 3106&#45;&gt;5489 -->
<g id="edge23" class="edge">
<title>3106&#45;&gt;5489</title>
<path fill="none" stroke="#ff0000" stroke-width=".1288" d="M233.605,-149.961C231.7238,-141.6358 229.5765,-132.1334 227.5525,-123.1761"/>
<polygon fill="#ff0000" stroke="#ff0000" stroke-width=".1288" points="230.9584,-122.369 225.3403,-113.3863 224.1306,-123.9119 230.9584,-122.369"/>
</g>
<!-- 5489&#45;&gt;0 -->
<g id="edge22" class="edge">
<title>5489&#45;&gt;0</title>
<path fill="none" stroke="#ff0000" stroke-width=".2165" d="M205.8109,-70.07C198.0964,-59.3705 188.5653,-46.1514 180.763,-35.3301"/>
<polygon fill="#ff0000" stroke="#ff0000" stroke-width=".2165" points="183.3811,-32.9766 174.6936,-26.9122 177.703,-37.0706 183.3811,-32.9766"/>
</g>
</g>
</svg>
