<?xml version="1.0" encoding="utf-8" standalone="no"?>
<!DOCTYPE svg PUBLIC "-//W3C//DTD SVG 1.1//EN"
  "http://www.w3.org/Graphics/SVG/1.1/DTD/svg11.dtd">
<!-- Created with matplotlib (https://matplotlib.org/) -->
<svg height="345.6pt" version="1.1" viewBox="0 0 460.8 345.6" width="460.8pt" xmlns="http://www.w3.org/2000/svg" xmlns:xlink="http://www.w3.org/1999/xlink">
 <defs>
  <style type="text/css">
*{stroke-linecap:butt;stroke-linejoin:round;}
  </style>
 </defs>
 <g id="figure_1">
  <g id="patch_1">
   <path d="M 0 345.6 
L 460.8 345.6 
L 460.8 0 
L 0 0 
z
" style="fill:#ffffff;"/>
  </g>
  <g id="axes_1">
   <g id="patch_2">
    <path d="M 57.6 307.584 
L 414.72 307.584 
L 414.72 41.472 
L 57.6 41.472 
z
" style="fill:#ffffff;"/>
   </g>
   <g id="PolyCollection_1">
    <path clip-path="url(#pe78c592069)" d="M 73.832727 268.433368 
L 73.832727 271.078161 
L 74.918528 275.345387 
L 76.00433 280.67171 
L 77.090131 281.584624 
L 78.175932 277.616926 
L 79.261733 272.301702 
L 80.347534 277.659329 
L 81.433335 275.804411 
L 82.519137 284.833965 
L 83.604938 285.982094 
L 84.690739 274.790821 
L 85.77654 256.720355 
L 86.862341 279.156458 
L 87.948142 277.66305 
L 89.033943 273.828366 
L 90.119745 277.293076 
L 91.205546 278.787766 
L 92.291347 283.149012 
L 93.377148 280.469225 
L 94.462949 284.373418 
L 95.54875 284.505585 
L 96.634552 280.102631 
L 97.720353 277.742769 
L 98.806154 274.806628 
L 99.891955 283.947718 
L 100.977756 279.284629 
L 102.063557 270.012195 
L 103.149358 279.718159 
L 104.23516 277.034326 
L 105.320961 272.724081 
L 106.406762 272.307489 
L 107.492563 283.929514 
L 108.578364 277.408351 
L 109.664165 273.191418 
L 110.749967 264.463354 
L 111.835768 254.976847 
L 112.921569 254.434696 
L 114.00737 248.761971 
L 115.093171 243.362424 
L 116.178972 256.138193 
L 117.264773 255.241947 
L 118.350575 252.150771 
L 119.436376 239.496937 
L 120.522177 262.030349 
L 121.607978 261.725557 
L 122.693779 260.059306 
L 123.77958 264.988583 
L 124.865382 269.40601 
L 125.951183 281.46482 
L 127.036984 281.565078 
L 128.122785 272.701202 
L 129.208586 270.275087 
L 130.294387 264.493342 
L 131.380189 241.779576 
L 132.46599 265.309147 
L 133.551791 267.450021 
L 134.637592 270.611842 
L 135.723393 266.737166 
L 136.809194 257.711967 
L 137.894995 270.036819 
L 138.980797 269.001541 
L 140.066598 273.919473 
L 141.152399 288.155237 
L 142.2382 290.191297 
L 143.324001 288.865841 
L 144.409802 278.968301 
L 145.495604 284.406544 
L 146.581405 288.366234 
L 147.667206 282.018993 
L 148.753007 276.344839 
L 149.838808 283.919796 
L 150.924609 287.602498 
L 152.01041 284.23064 
L 153.096212 282.400216 
L 154.182013 271.533087 
L 155.267814 288.28966 
L 156.353615 276.125637 
L 157.439416 270.641206 
L 158.525217 266.1059 
L 159.611019 264.989981 
L 160.69682 274.085937 
L 161.782621 263.706649 
L 162.868422 266.817255 
L 163.954223 272.234964 
L 165.040024 270.564629 
L 166.125825 253.88599 
L 167.211627 270.220283 
L 168.297428 271.178382 
L 169.383229 271.014532 
L 170.46903 267.030099 
L 171.554831 257.395148 
L 172.640632 256.555615 
L 173.726434 261.235825 
L 174.812235 261.743909 
L 175.898036 252.536323 
L 176.983837 259.000819 
L 178.069638 260.559699 
L 179.155439 261.982678 
L 180.24124 250.609376 
L 181.327042 245.433202 
L 182.412843 261.942274 
L 183.498644 249.626013 
L 184.584445 246.872833 
L 185.670246 252.540671 
L 186.756047 254.615665 
L 187.841849 243.38517 
L 188.92765 247.210022 
L 190.013451 247.883103 
L 191.099252 249.94844 
L 192.185053 247.765806 
L 193.270854 239.284825 
L 194.356656 233.027339 
L 195.442457 236.973299 
L 196.528258 233.85807 
L 197.614059 234.110176 
L 198.69986 234.081111 
L 199.785661 241.192047 
L 200.871462 230.170433 
L 201.957264 230.757112 
L 203.043065 231.380403 
L 204.128866 240.064834 
L 205.214667 234.171818 
L 206.300468 250.013542 
L 207.386269 260.388077 
L 208.472071 268.407696 
L 209.557872 262.219458 
L 210.643673 244.722354 
L 211.729474 234.59796 
L 212.815275 273.571597 
L 213.901076 252.527821 
L 214.986877 272.970646 
L 216.072679 264.987994 
L 217.15848 250.287918 
L 218.244281 276.803466 
L 219.330082 277.16829 
L 220.415883 270.190278 
L 221.501684 265.432964 
L 222.587486 276.914045 
L 223.673287 274.432833 
L 224.759088 271.140055 
L 225.844889 265.016792 
L 226.93069 236.566051 
L 228.016491 269.092122 
L 229.102292 260.232025 
L 230.188094 261.991126 
L 231.273895 262.9356 
L 232.359696 276.297209 
L 233.445497 275.240814 
L 234.531298 275.178055 
L 235.617099 273.432342 
L 236.702901 269.888015 
L 237.788702 267.162962 
L 238.874503 281.686914 
L 239.960304 282.493773 
L 241.046105 274.177478 
L 242.131906 263.225619 
L 243.217708 270.82832 
L 244.303509 280.79345 
L 245.38931 269.9264 
L 246.475111 279.241513 
L 247.560912 279.817631 
L 248.646713 282.694152 
L 249.732514 289.14086 
L 250.818316 276.178962 
L 251.904117 273.159762 
L 252.989918 275.368405 
L 254.075719 278.687595 
L 255.16152 281.723699 
L 256.247321 295.488 
L 257.333123 281.205514 
L 258.418924 274.532709 
L 259.504725 273.506002 
L 260.590526 267.884021 
L 261.676327 262.682795 
L 262.762128 273.289192 
L 263.847929 268.954429 
L 264.933731 264.549279 
L 266.019532 270.26675 
L 267.105333 265.549593 
L 268.191134 271.32966 
L 269.276935 275.810762 
L 270.362736 253.98084 
L 271.448538 235.570221 
L 272.534339 256.977048 
L 273.62014 256.315622 
L 274.705941 246.627081 
L 275.791742 259.879179 
L 276.877543 258.273902 
L 277.963344 247.434653 
L 279.049146 250.958678 
L 280.134947 266.416908 
L 281.220748 262.929245 
L 282.306549 276.591286 
L 283.39235 273.431286 
L 284.478151 259.667076 
L 285.563953 268.581482 
L 286.649754 261.938254 
L 287.735555 254.877939 
L 288.821356 251.413748 
L 289.907157 241.168418 
L 290.992958 233.344957 
L 292.07876 258.760538 
L 293.164561 270.469484 
L 294.250362 250.621575 
L 295.336163 249.678485 
L 296.421964 260.694349 
L 297.507765 249.490278 
L 298.593566 248.593185 
L 299.679368 242.707981 
L 300.765169 229.673006 
L 301.85097 215.403905 
L 302.936771 213.175848 
L 304.022572 215.120292 
L 305.108373 219.003093 
L 306.194175 208.78042 
L 307.279976 213.369574 
L 308.365777 212.836812 
L 309.451578 207.058494 
L 310.537379 225.663046 
L 311.62318 224.120786 
L 312.708981 222.131093 
L 313.794783 224.671055 
L 314.880584 221.968592 
L 315.966385 228.966623 
L 317.052186 244.758187 
L 318.137987 249.297869 
L 319.223788 244.665769 
L 320.30959 262.585764 
L 321.395391 245.651076 
L 322.481192 255.864671 
L 323.566993 265.597327 
L 324.652794 255.528984 
L 325.738595 259.918619 
L 326.824396 257.14465 
L 327.910198 237.323508 
L 328.995999 254.163937 
L 330.0818 247.745386 
L 331.167601 248.075374 
L 332.253402 252.175911 
L 333.339203 252.571641 
L 334.425005 265.296032 
L 335.510806 260.441812 
L 336.596607 259.479507 
L 337.682408 250.617408 
L 338.768209 235.639429 
L 339.85401 242.722337 
L 340.939811 219.451055 
L 342.025613 233.282087 
L 343.111414 223.351992 
L 344.197215 221.724062 
L 345.283016 217.135691 
L 346.368817 229.82239 
L 347.454618 231.967699 
L 348.54042 234.222386 
L 349.626221 233.196817 
L 350.712022 235.278504 
L 351.797823 221.839592 
L 352.883624 226.896427 
L 353.969425 220.222562 
L 355.055227 226.700433 
L 356.141028 226.212911 
L 357.226829 212.437313 
L 358.31263 209.093356 
L 359.398431 225.355298 
L 360.484232 230.071676 
L 361.570033 236.168736 
L 362.655835 210.491734 
L 363.741636 216.832067 
L 364.827437 230.496764 
L 365.913238 212.476313 
L 366.999039 228.564503 
L 368.08484 235.898897 
L 369.170642 226.785596 
L 370.256443 205.138486 
L 371.342244 219.534684 
L 372.428045 218.028832 
L 373.513846 220.0423 
L 374.599647 234.104078 
L 375.685448 226.737493 
L 376.77125 227.978281 
L 377.857051 226.824588 
L 378.942852 221.263015 
L 380.028653 217.519886 
L 381.114454 218.420034 
L 382.200255 227.141576 
L 383.286057 208.3205 
L 384.371858 224.628918 
L 385.457659 210.894652 
L 386.54346 211.747816 
L 387.629261 205.391081 
L 388.715062 210.070076 
L 389.800863 205.140306 
L 390.886665 195.389075 
L 391.972466 206.747264 
L 393.058267 196.631315 
L 394.144068 220.112989 
L 395.229869 218.157099 
L 396.31567 209.351802 
L 397.401472 217.811107 
L 398.487273 225.119127 
L 398.487273 124.600171 
L 398.487273 124.600171 
L 397.401472 73.155686 
L 396.31567 53.568 
L 395.229869 91.710881 
L 394.144068 95.089791 
L 393.058267 99.472404 
L 391.972466 64.507148 
L 390.886665 56.867625 
L 389.800863 57.338133 
L 388.715062 79.494385 
L 387.629261 77.245739 
L 386.54346 115.714344 
L 385.457659 96.75523 
L 384.371858 119.668388 
L 383.286057 108.280268 
L 382.200255 106.622424 
L 381.114454 83.487102 
L 380.028653 96.212536 
L 378.942852 97.083735 
L 377.857051 100.635098 
L 376.77125 114.58273 
L 375.685448 101.660631 
L 374.599647 130.168579 
L 373.513846 108.199449 
L 372.428045 96.834587 
L 371.342244 94.505977 
L 370.256443 83.932284 
L 369.170642 89.119086 
L 368.08484 90.327549 
L 366.999039 86.212823 
L 365.913238 96.582207 
L 364.827437 105.549671 
L 363.741636 100.287154 
L 362.655835 71.044734 
L 361.570033 98.074227 
L 360.484232 105.473757 
L 359.398431 103.421545 
L 358.31263 99.194997 
L 357.226829 102.568772 
L 356.141028 112.327585 
L 355.055227 121.240912 
L 353.969425 121.936329 
L 352.883624 124.844635 
L 351.797823 141.122781 
L 350.712022 145.913047 
L 349.626221 152.899214 
L 348.54042 155.11465 
L 347.454618 138.297708 
L 346.368817 144.877169 
L 345.283016 126.965153 
L 344.197215 116.629898 
L 343.111414 110.1311 
L 342.025613 142.278447 
L 340.939811 124.245583 
L 339.85401 158.333015 
L 338.768209 173.681484 
L 337.682408 165.991913 
L 336.596607 158.453556 
L 335.510806 164.954225 
L 334.425005 186.936567 
L 333.339203 179.303851 
L 332.253402 151.487709 
L 331.167601 180.839887 
L 330.0818 139.261241 
L 328.995999 153.882351 
L 327.910198 170.353357 
L 326.824396 162.839881 
L 325.738595 178.602549 
L 324.652794 146.312414 
L 323.566993 167.439907 
L 322.481192 181.322658 
L 321.395391 150.462921 
L 320.30959 168.292005 
L 319.223788 137.528682 
L 318.137987 150.028833 
L 317.052186 111.623815 
L 315.966385 130.298089 
L 314.880584 155.119667 
L 313.794783 115.070218 
L 312.708981 138.620788 
L 311.62318 124.215692 
L 310.537379 163.202561 
L 309.451578 99.212137 
L 308.365777 112.520476 
L 307.279976 126.587079 
L 306.194175 134.827822 
L 305.108373 139.263702 
L 304.022572 155.705943 
L 302.936771 145.128456 
L 301.85097 161.172215 
L 300.765169 166.589843 
L 299.679368 168.092409 
L 298.593566 177.38874 
L 297.507765 173.36541 
L 296.421964 200.983438 
L 295.336163 128.205766 
L 294.250362 178.477219 
L 293.164561 192.135607 
L 292.07876 175.090299 
L 290.992958 168.92238 
L 289.907157 194.447592 
L 288.821356 172.444876 
L 287.735555 153.786139 
L 286.649754 161.277361 
L 285.563953 219.7574 
L 284.478151 172.400685 
L 283.39235 166.021002 
L 282.306549 196.125282 
L 281.220748 140.170514 
L 280.134947 150.921307 
L 279.049146 142.25159 
L 277.963344 109.196993 
L 276.877543 128.761066 
L 275.791742 152.48166 
L 274.705941 121.718306 
L 273.62014 154.895947 
L 272.534339 160.834377 
L 271.448538 141.20802 
L 270.362736 144.708422 
L 269.276935 154.21955 
L 268.191134 156.321555 
L 267.105333 188.42596 
L 266.019532 159.635755 
L 264.933731 183.658564 
L 263.847929 193.029848 
L 262.762128 154.261964 
L 261.676327 162.883379 
L 260.590526 164.414826 
L 259.504725 152.192854 
L 258.418924 185.407288 
L 257.333123 196.517077 
L 256.247321 191.648066 
L 255.16152 156.214476 
L 254.075719 176.691561 
L 252.989918 188.775667 
L 251.904117 202.630949 
L 250.818316 163.996365 
L 249.732514 171.145841 
L 248.646713 137.958413 
L 247.560912 146.306026 
L 246.475111 173.110894 
L 245.38931 170.332502 
L 244.303509 201.719787 
L 243.217708 152.978007 
L 242.131906 166.432657 
L 241.046105 147.664477 
L 239.960304 161.23945 
L 238.874503 171.510555 
L 237.788702 131.83235 
L 236.702901 166.038498 
L 235.617099 156.592681 
L 234.531298 161.092375 
L 233.445497 145.831926 
L 232.359696 135.416699 
L 231.273895 171.751931 
L 230.188094 153.673151 
L 229.102292 146.177684 
L 228.016491 118.262826 
L 226.93069 138.078866 
L 225.844889 148.298625 
L 224.759088 170.697756 
L 223.673287 181.839304 
L 222.587486 158.41592 
L 221.501684 165.33222 
L 220.415883 173.71946 
L 219.330082 198.326995 
L 218.244281 162.954963 
L 217.15848 152.951395 
L 216.072679 174.62256 
L 214.986877 170.165281 
L 213.901076 153.789662 
L 212.815275 151.183219 
L 211.729474 171.145897 
L 210.643673 150.260793 
L 209.557872 164.945672 
L 208.472071 161.750229 
L 207.386269 153.469059 
L 206.300468 166.951562 
L 205.214667 159.427536 
L 204.128866 168.332192 
L 203.043065 144.051062 
L 201.957264 118.947815 
L 200.871462 87.044884 
L 199.785661 139.138084 
L 198.69986 108.56091 
L 197.614059 97.251061 
L 196.528258 106.7462 
L 195.442457 123.853158 
L 194.356656 105.610187 
L 193.270854 118.327665 
L 192.185053 150.0306 
L 191.099252 135.313249 
L 190.013451 134.945791 
L 188.92765 135.841003 
L 187.841849 137.204656 
L 186.756047 147.787574 
L 185.670246 140.741963 
L 184.584445 138.422811 
L 183.498644 143.065483 
L 182.412843 156.804321 
L 181.327042 138.347151 
L 180.24124 136.626542 
L 179.155439 170.024518 
L 178.069638 168.02949 
L 176.983837 152.848878 
L 175.898036 168.073392 
L 174.812235 127.661935 
L 173.726434 173.856384 
L 172.640632 177.383233 
L 171.554831 181.170886 
L 170.46903 196.255995 
L 169.383229 193.570546 
L 168.297428 189.587887 
L 167.211627 193.925481 
L 166.125825 191.89728 
L 165.040024 207.13818 
L 163.954223 219.626807 
L 162.868422 207.886702 
L 161.782621 198.313317 
L 160.69682 204.316957 
L 159.611019 218.977104 
L 158.525217 219.102169 
L 157.439416 221.502802 
L 156.353615 234.052407 
L 155.267814 247.798734 
L 154.182013 235.7649 
L 153.096212 241.02662 
L 152.01041 245.959909 
L 150.924609 249.453602 
L 149.838808 248.15704 
L 148.753007 246.363993 
L 147.667206 254.268824 
L 146.581405 252.586567 
L 145.495604 255.766981 
L 144.409802 249.751812 
L 143.324001 260.524588 
L 142.2382 259.520857 
L 141.152399 260.779141 
L 140.066598 231.74588 
L 138.980797 241.535952 
L 137.894995 253.364936 
L 136.809194 234.469971 
L 135.723393 252.270203 
L 134.637592 242.3307 
L 133.551791 242.883979 
L 132.46599 242.690981 
L 131.380189 217.761144 
L 130.294387 242.074494 
L 129.208586 256.279728 
L 128.122785 255.446885 
L 127.036984 263.832431 
L 125.951183 259.82508 
L 124.865382 256.049931 
L 123.77958 246.073649 
L 122.693779 251.543524 
L 121.607978 241.811007 
L 120.522177 244.997827 
L 119.436376 230.058513 
L 118.350575 244.773278 
L 117.264773 241.289108 
L 116.178972 242.916332 
L 115.093171 228.92147 
L 114.00737 226.978423 
L 112.921569 241.344211 
L 111.835768 224.910631 
L 110.749967 236.172266 
L 109.664165 252.189692 
L 108.578364 266.350976 
L 107.492563 274.968841 
L 106.406762 263.130434 
L 105.320961 267.840577 
L 104.23516 269.534244 
L 103.149358 271.729315 
L 102.063557 251.707195 
L 100.977756 271.580629 
L 99.891955 278.335774 
L 98.806154 268.792007 
L 97.720353 270.747131 
L 96.634552 273.124853 
L 95.54875 277.619818 
L 94.462949 275.59113 
L 93.377148 274.663798 
L 92.291347 274.323229 
L 91.205546 272.611816 
L 90.119745 268.306223 
L 89.033943 266.877674 
L 87.948142 272.619199 
L 86.862341 266.57175 
L 85.77654 221.659055 
L 84.690739 261.374293 
L 83.604938 273.961346 
L 82.519137 279.298179 
L 81.433335 264.998547 
L 80.347534 259.133318 
L 79.261733 250.278165 
L 78.175932 262.083589 
L 77.090131 273.931663 
L 76.00433 273.558825 
L 74.918528 270.799773 
L 73.832727 268.433368 
z
" style="fill:#0000ff;fill-opacity:0.25;"/>
   </g>
   <g id="matplotlib.axis_1">
    <g id="xtick_1">
     <g id="line2d_1">
      <defs>
       <path d="M 0 0 
L 0 3.5 
" id="m790cce8b9e" style="stroke:#000000;stroke-width:0.8;"/>
      </defs>
      <g>
       <use style="stroke:#000000;stroke-width:0.8;" x="73.832727" xlink:href="#m790cce8b9e" y="307.584"/>
      </g>
     </g>
     <g id="text_1">
      <!-- 0 -->
      <defs>
       <path d="M 31.78125 66.40625 
Q 24.171875 66.40625 20.328125 58.90625 
Q 16.5 51.421875 16.5 36.375 
Q 16.5 21.390625 20.328125 13.890625 
Q 24.171875 6.390625 31.78125 6.390625 
Q 39.453125 6.390625 43.28125 13.890625 
Q 47.125 21.390625 47.125 36.375 
Q 47.125 51.421875 43.28125 58.90625 
Q 39.453125 66.40625 31.78125 66.40625 
z
M 31.78125 74.21875 
Q 44.046875 74.21875 50.515625 64.515625 
Q 56.984375 54.828125 56.984375 36.375 
Q 56.984375 17.96875 50.515625 8.265625 
Q 44.046875 -1.421875 31.78125 -1.421875 
Q 19.53125 -1.421875 13.0625 8.265625 
Q 6.59375 17.96875 6.59375 36.375 
Q 6.59375 54.828125 13.0625 64.515625 
Q 19.53125 74.21875 31.78125 74.21875 
z
" id="DejaVuSans-48"/>
      </defs>
      <g transform="translate(70.651477 322.182437)scale(0.1 -0.1)">
       <use xlink:href="#DejaVuSans-48"/>
      </g>
     </g>
    </g>
    <g id="xtick_2">
     <g id="line2d_2">
      <g>
       <use style="stroke:#000000;stroke-width:0.8;" x="128.122785" xlink:href="#m790cce8b9e" y="307.584"/>
      </g>
     </g>
     <g id="text_2">
      <!-- 50 -->
      <defs>
       <path d="M 10.796875 72.90625 
L 49.515625 72.90625 
L 49.515625 64.59375 
L 19.828125 64.59375 
L 19.828125 46.734375 
Q 21.96875 47.46875 24.109375 47.828125 
Q 26.265625 48.1875 28.421875 48.1875 
Q 40.625 48.1875 47.75 41.5 
Q 54.890625 34.8125 54.890625 23.390625 
Q 54.890625 11.625 47.5625 5.09375 
Q 40.234375 -1.421875 26.90625 -1.421875 
Q 22.3125 -1.421875 17.546875 -0.640625 
Q 12.796875 0.140625 7.71875 1.703125 
L 7.71875 11.625 
Q 12.109375 9.234375 16.796875 8.0625 
Q 21.484375 6.890625 26.703125 6.890625 
Q 35.15625 6.890625 40.078125 11.328125 
Q 45.015625 15.765625 45.015625 23.390625 
Q 45.015625 31 40.078125 35.4375 
Q 35.15625 39.890625 26.703125 39.890625 
Q 22.75 39.890625 18.8125 39.015625 
Q 14.890625 38.140625 10.796875 36.28125 
z
" id="DejaVuSans-53"/>
      </defs>
      <g transform="translate(121.760285 322.182437)scale(0.1 -0.1)">
       <use xlink:href="#DejaVuSans-53"/>
       <use x="63.623047" xlink:href="#DejaVuSans-48"/>
      </g>
     </g>
    </g>
    <g id="xtick_3">
     <g id="line2d_3">
      <g>
       <use style="stroke:#000000;stroke-width:0.8;" x="182.412843" xlink:href="#m790cce8b9e" y="307.584"/>
      </g>
     </g>
     <g id="text_3">
      <!-- 100 -->
      <defs>
       <path d="M 12.40625 8.296875 
L 28.515625 8.296875 
L 28.515625 63.921875 
L 10.984375 60.40625 
L 10.984375 69.390625 
L 28.421875 72.90625 
L 38.28125 72.90625 
L 38.28125 8.296875 
L 54.390625 8.296875 
L 54.390625 0 
L 12.40625 0 
z
" id="DejaVuSans-49"/>
      </defs>
      <g transform="translate(172.869093 322.182437)scale(0.1 -0.1)">
       <use xlink:href="#DejaVuSans-49"/>
       <use x="63.623047" xlink:href="#DejaVuSans-48"/>
       <use x="127.246094" xlink:href="#DejaVuSans-48"/>
      </g>
     </g>
    </g>
    <g id="xtick_4">
     <g id="line2d_4">
      <g>
       <use style="stroke:#000000;stroke-width:0.8;" x="236.702901" xlink:href="#m790cce8b9e" y="307.584"/>
      </g>
     </g>
     <g id="text_4">
      <!-- 150 -->
      <g transform="translate(227.159151 322.182437)scale(0.1 -0.1)">
       <use xlink:href="#DejaVuSans-49"/>
       <use x="63.623047" xlink:href="#DejaVuSans-53"/>
       <use x="127.246094" xlink:href="#DejaVuSans-48"/>
      </g>
     </g>
    </g>
    <g id="xtick_5">
     <g id="line2d_5">
      <g>
       <use style="stroke:#000000;stroke-width:0.8;" x="290.992958" xlink:href="#m790cce8b9e" y="307.584"/>
      </g>
     </g>
     <g id="text_5">
      <!-- 200 -->
      <defs>
       <path d="M 19.1875 8.296875 
L 53.609375 8.296875 
L 53.609375 0 
L 7.328125 0 
L 7.328125 8.296875 
Q 12.9375 14.109375 22.625 23.890625 
Q 32.328125 33.6875 34.8125 36.53125 
Q 39.546875 41.84375 41.421875 45.53125 
Q 43.3125 49.21875 43.3125 52.78125 
Q 43.3125 58.59375 39.234375 62.25 
Q 35.15625 65.921875 28.609375 65.921875 
Q 23.96875 65.921875 18.8125 64.3125 
Q 13.671875 62.703125 7.8125 59.421875 
L 7.8125 69.390625 
Q 13.765625 71.78125 18.9375 73 
Q 24.125 74.21875 28.421875 74.21875 
Q 39.75 74.21875 46.484375 68.546875 
Q 53.21875 62.890625 53.21875 53.421875 
Q 53.21875 48.921875 51.53125 44.890625 
Q 49.859375 40.875 45.40625 35.40625 
Q 44.1875 33.984375 37.640625 27.21875 
Q 31.109375 20.453125 19.1875 8.296875 
z
" id="DejaVuSans-50"/>
      </defs>
      <g transform="translate(281.449208 322.182437)scale(0.1 -0.1)">
       <use xlink:href="#DejaVuSans-50"/>
       <use x="63.623047" xlink:href="#DejaVuSans-48"/>
       <use x="127.246094" xlink:href="#DejaVuSans-48"/>
      </g>
     </g>
    </g>
    <g id="xtick_6">
     <g id="line2d_6">
      <g>
       <use style="stroke:#000000;stroke-width:0.8;" x="345.283016" xlink:href="#m790cce8b9e" y="307.584"/>
      </g>
     </g>
     <g id="text_6">
      <!-- 250 -->
      <g transform="translate(335.739266 322.182437)scale(0.1 -0.1)">
       <use xlink:href="#DejaVuSans-50"/>
       <use x="63.623047" xlink:href="#DejaVuSans-53"/>
       <use x="127.246094" xlink:href="#DejaVuSans-48"/>
      </g>
     </g>
    </g>
    <g id="xtick_7">
     <g id="line2d_7">
      <g>
       <use style="stroke:#000000;stroke-width:0.8;" x="399.573074" xlink:href="#m790cce8b9e" y="307.584"/>
      </g>
     </g>
     <g id="text_7">
      <!-- 300 -->
      <defs>
       <path d="M 40.578125 39.3125 
Q 47.65625 37.796875 51.625 33 
Q 55.609375 28.21875 55.609375 21.1875 
Q 55.609375 10.40625 48.1875 4.484375 
Q 40.765625 -1.421875 27.09375 -1.421875 
Q 22.515625 -1.421875 17.65625 -0.515625 
Q 12.796875 0.390625 7.625 2.203125 
L 7.625 11.71875 
Q 11.71875 9.328125 16.59375 8.109375 
Q 21.484375 6.890625 26.8125 6.890625 
Q 36.078125 6.890625 40.9375 10.546875 
Q 45.796875 14.203125 45.796875 21.1875 
Q 45.796875 27.640625 41.28125 31.265625 
Q 36.765625 34.90625 28.71875 34.90625 
L 20.21875 34.90625 
L 20.21875 43.015625 
L 29.109375 43.015625 
Q 36.375 43.015625 40.234375 45.921875 
Q 44.09375 48.828125 44.09375 54.296875 
Q 44.09375 59.90625 40.109375 62.90625 
Q 36.140625 65.921875 28.71875 65.921875 
Q 24.65625 65.921875 20.015625 65.03125 
Q 15.375 64.15625 9.8125 62.3125 
L 9.8125 71.09375 
Q 15.4375 72.65625 20.34375 73.4375 
Q 25.25 74.21875 29.59375 74.21875 
Q 40.828125 74.21875 47.359375 69.109375 
Q 53.90625 64.015625 53.90625 55.328125 
Q 53.90625 49.265625 50.4375 45.09375 
Q 46.96875 40.921875 40.578125 39.3125 
z
" id="DejaVuSans-51"/>
      </defs>
      <g transform="translate(390.029324 322.182437)scale(0.1 -0.1)">
       <use xlink:href="#DejaVuSans-51"/>
       <use x="63.623047" xlink:href="#DejaVuSans-48"/>
       <use x="127.246094" xlink:href="#DejaVuSans-48"/>
      </g>
     </g>
    </g>
   </g>
   <g id="matplotlib.axis_2">
    <g id="ytick_1">
     <g id="line2d_8">
      <defs>
       <path d="M 0 0 
L -3.5 0 
" id="m6e783abe55" style="stroke:#000000;stroke-width:0.8;"/>
      </defs>
      <g>
       <use style="stroke:#000000;stroke-width:0.8;" x="57.6" xlink:href="#m6e783abe55" y="297.020944"/>
      </g>
     </g>
     <g id="text_8">
      <!-- 1 -->
      <g transform="translate(44.2375 300.820162)scale(0.1 -0.1)">
       <use xlink:href="#DejaVuSans-49"/>
      </g>
     </g>
    </g>
    <g id="ytick_2">
     <g id="line2d_9">
      <g>
       <use style="stroke:#000000;stroke-width:0.8;" x="57.6" xlink:href="#m6e783abe55" y="260.777932"/>
      </g>
     </g>
     <g id="text_9">
      <!-- 2 -->
      <g transform="translate(44.2375 264.577151)scale(0.1 -0.1)">
       <use xlink:href="#DejaVuSans-50"/>
      </g>
     </g>
    </g>
    <g id="ytick_3">
     <g id="line2d_10">
      <g>
       <use style="stroke:#000000;stroke-width:0.8;" x="57.6" xlink:href="#m6e783abe55" y="224.534921"/>
      </g>
     </g>
     <g id="text_10">
      <!-- 3 -->
      <g transform="translate(44.2375 228.33414)scale(0.1 -0.1)">
       <use xlink:href="#DejaVuSans-51"/>
      </g>
     </g>
    </g>
    <g id="ytick_4">
     <g id="line2d_11">
      <g>
       <use style="stroke:#000000;stroke-width:0.8;" x="57.6" xlink:href="#m6e783abe55" y="188.291909"/>
      </g>
     </g>
     <g id="text_11">
      <!-- 4 -->
      <defs>
       <path d="M 37.796875 64.3125 
L 12.890625 25.390625 
L 37.796875 25.390625 
z
M 35.203125 72.90625 
L 47.609375 72.90625 
L 47.609375 25.390625 
L 58.015625 25.390625 
L 58.015625 17.1875 
L 47.609375 17.1875 
L 47.609375 0 
L 37.796875 0 
L 37.796875 17.1875 
L 4.890625 17.1875 
L 4.890625 26.703125 
z
" id="DejaVuSans-52"/>
      </defs>
      <g transform="translate(44.2375 192.091128)scale(0.1 -0.1)">
       <use xlink:href="#DejaVuSans-52"/>
      </g>
     </g>
    </g>
    <g id="ytick_5">
     <g id="line2d_12">
      <g>
       <use style="stroke:#000000;stroke-width:0.8;" x="57.6" xlink:href="#m6e783abe55" y="152.048898"/>
      </g>
     </g>
     <g id="text_12">
      <!-- 5 -->
      <g transform="translate(44.2375 155.848117)scale(0.1 -0.1)">
       <use xlink:href="#DejaVuSans-53"/>
      </g>
     </g>
    </g>
    <g id="ytick_6">
     <g id="line2d_13">
      <g>
       <use style="stroke:#000000;stroke-width:0.8;" x="57.6" xlink:href="#m6e783abe55" y="115.805887"/>
      </g>
     </g>
     <g id="text_13">
      <!-- 6 -->
      <defs>
       <path d="M 33.015625 40.375 
Q 26.375 40.375 22.484375 35.828125 
Q 18.609375 31.296875 18.609375 23.390625 
Q 18.609375 15.53125 22.484375 10.953125 
Q 26.375 6.390625 33.015625 6.390625 
Q 39.65625 6.390625 43.53125 10.953125 
Q 47.40625 15.53125 47.40625 23.390625 
Q 47.40625 31.296875 43.53125 35.828125 
Q 39.65625 40.375 33.015625 40.375 
z
M 52.59375 71.296875 
L 52.59375 62.3125 
Q 48.875 64.0625 45.09375 64.984375 
Q 41.3125 65.921875 37.59375 65.921875 
Q 27.828125 65.921875 22.671875 59.328125 
Q 17.53125 52.734375 16.796875 39.40625 
Q 19.671875 43.65625 24.015625 45.921875 
Q 28.375 48.1875 33.59375 48.1875 
Q 44.578125 48.1875 50.953125 41.515625 
Q 57.328125 34.859375 57.328125 23.390625 
Q 57.328125 12.15625 50.6875 5.359375 
Q 44.046875 -1.421875 33.015625 -1.421875 
Q 20.359375 -1.421875 13.671875 8.265625 
Q 6.984375 17.96875 6.984375 36.375 
Q 6.984375 53.65625 15.1875 63.9375 
Q 23.390625 74.21875 37.203125 74.21875 
Q 40.921875 74.21875 44.703125 73.484375 
Q 48.484375 72.75 52.59375 71.296875 
z
" id="DejaVuSans-54"/>
      </defs>
      <g transform="translate(44.2375 119.605105)scale(0.1 -0.1)">
       <use xlink:href="#DejaVuSans-54"/>
      </g>
     </g>
    </g>
    <g id="ytick_7">
     <g id="line2d_14">
      <g>
       <use style="stroke:#000000;stroke-width:0.8;" x="57.6" xlink:href="#m6e783abe55" y="79.562875"/>
      </g>
     </g>
     <g id="text_14">
      <!-- 7 -->
      <defs>
       <path d="M 8.203125 72.90625 
L 55.078125 72.90625 
L 55.078125 68.703125 
L 28.609375 0 
L 18.3125 0 
L 43.21875 64.59375 
L 8.203125 64.59375 
z
" id="DejaVuSans-55"/>
      </defs>
      <g transform="translate(44.2375 83.362094)scale(0.1 -0.1)">
       <use xlink:href="#DejaVuSans-55"/>
      </g>
     </g>
    </g>
    <g id="ytick_8">
     <g id="line2d_15">
      <g>
       <use style="stroke:#000000;stroke-width:0.8;" x="57.6" xlink:href="#m6e783abe55" y="43.319864"/>
      </g>
     </g>
     <g id="text_15">
      <!-- 8 -->
      <defs>
       <path d="M 31.78125 34.625 
Q 24.75 34.625 20.71875 30.859375 
Q 16.703125 27.09375 16.703125 20.515625 
Q 16.703125 13.921875 20.71875 10.15625 
Q 24.75 6.390625 31.78125 6.390625 
Q 38.8125 6.390625 42.859375 10.171875 
Q 46.921875 13.96875 46.921875 20.515625 
Q 46.921875 27.09375 42.890625 30.859375 
Q 38.875 34.625 31.78125 34.625 
z
M 21.921875 38.8125 
Q 15.578125 40.375 12.03125 44.71875 
Q 8.5 49.078125 8.5 55.328125 
Q 8.5 64.0625 14.71875 69.140625 
Q 20.953125 74.21875 31.78125 74.21875 
Q 42.671875 74.21875 48.875 69.140625 
Q 55.078125 64.0625 55.078125 55.328125 
Q 55.078125 49.078125 51.53125 44.71875 
Q 48 40.375 41.703125 38.8125 
Q 48.828125 37.15625 52.796875 32.3125 
Q 56.78125 27.484375 56.78125 20.515625 
Q 56.78125 9.90625 50.3125 4.234375 
Q 43.84375 -1.421875 31.78125 -1.421875 
Q 19.734375 -1.421875 13.25 4.234375 
Q 6.78125 9.90625 6.78125 20.515625 
Q 6.78125 27.484375 10.78125 32.3125 
Q 14.796875 37.15625 21.921875 38.8125 
z
M 18.3125 54.390625 
Q 18.3125 48.734375 21.84375 45.5625 
Q 25.390625 42.390625 31.78125 42.390625 
Q 38.140625 42.390625 41.71875 45.5625 
Q 45.3125 48.734375 45.3125 54.390625 
Q 45.3125 60.0625 41.71875 63.234375 
Q 38.140625 66.40625 31.78125 66.40625 
Q 25.390625 66.40625 21.84375 63.234375 
Q 18.3125 60.0625 18.3125 54.390625 
z
" id="DejaVuSans-56"/>
      </defs>
      <g transform="translate(44.2375 47.119083)scale(0.1 -0.1)">
       <use xlink:href="#DejaVuSans-56"/>
      </g>
     </g>
    </g>
    <g id="text_16">
     <!-- Distance -->
     <defs>
      <path d="M 19.671875 64.796875 
L 19.671875 8.109375 
L 31.59375 8.109375 
Q 46.6875 8.109375 53.6875 14.9375 
Q 60.6875 21.78125 60.6875 36.53125 
Q 60.6875 51.171875 53.6875 57.984375 
Q 46.6875 64.796875 31.59375 64.796875 
z
M 9.8125 72.90625 
L 30.078125 72.90625 
Q 51.265625 72.90625 61.171875 64.09375 
Q 71.09375 55.28125 71.09375 36.53125 
Q 71.09375 17.671875 61.125 8.828125 
Q 51.171875 0 30.078125 0 
L 9.8125 0 
z
" id="DejaVuSans-68"/>
      <path d="M 9.421875 54.6875 
L 18.40625 54.6875 
L 18.40625 0 
L 9.421875 0 
z
M 9.421875 75.984375 
L 18.40625 75.984375 
L 18.40625 64.59375 
L 9.421875 64.59375 
z
" id="DejaVuSans-105"/>
      <path d="M 44.28125 53.078125 
L 44.28125 44.578125 
Q 40.484375 46.53125 36.375 47.5 
Q 32.28125 48.484375 27.875 48.484375 
Q 21.1875 48.484375 17.84375 46.4375 
Q 14.5 44.390625 14.5 40.28125 
Q 14.5 37.15625 16.890625 35.375 
Q 19.28125 33.59375 26.515625 31.984375 
L 29.59375 31.296875 
Q 39.15625 29.25 43.1875 25.515625 
Q 47.21875 21.78125 47.21875 15.09375 
Q 47.21875 7.46875 41.1875 3.015625 
Q 35.15625 -1.421875 24.609375 -1.421875 
Q 20.21875 -1.421875 15.453125 -0.5625 
Q 10.6875 0.296875 5.421875 2 
L 5.421875 11.28125 
Q 10.40625 8.6875 15.234375 7.390625 
Q 20.0625 6.109375 24.8125 6.109375 
Q 31.15625 6.109375 34.5625 8.28125 
Q 37.984375 10.453125 37.984375 14.40625 
Q 37.984375 18.0625 35.515625 20.015625 
Q 33.0625 21.96875 24.703125 23.78125 
L 21.578125 24.515625 
Q 13.234375 26.265625 9.515625 29.90625 
Q 5.8125 33.546875 5.8125 39.890625 
Q 5.8125 47.609375 11.28125 51.796875 
Q 16.75 56 26.8125 56 
Q 31.78125 56 36.171875 55.265625 
Q 40.578125 54.546875 44.28125 53.078125 
z
" id="DejaVuSans-115"/>
      <path d="M 18.3125 70.21875 
L 18.3125 54.6875 
L 36.8125 54.6875 
L 36.8125 47.703125 
L 18.3125 47.703125 
L 18.3125 18.015625 
Q 18.3125 11.328125 20.140625 9.421875 
Q 21.96875 7.515625 27.59375 7.515625 
L 36.8125 7.515625 
L 36.8125 0 
L 27.59375 0 
Q 17.1875 0 13.234375 3.875 
Q 9.28125 7.765625 9.28125 18.015625 
L 9.28125 47.703125 
L 2.6875 47.703125 
L 2.6875 54.6875 
L 9.28125 54.6875 
L 9.28125 70.21875 
z
" id="DejaVuSans-116"/>
      <path d="M 34.28125 27.484375 
Q 23.390625 27.484375 19.1875 25 
Q 14.984375 22.515625 14.984375 16.5 
Q 14.984375 11.71875 18.140625 8.90625 
Q 21.296875 6.109375 26.703125 6.109375 
Q 34.1875 6.109375 38.703125 11.40625 
Q 43.21875 16.703125 43.21875 25.484375 
L 43.21875 27.484375 
z
M 52.203125 31.203125 
L 52.203125 0 
L 43.21875 0 
L 43.21875 8.296875 
Q 40.140625 3.328125 35.546875 0.953125 
Q 30.953125 -1.421875 24.3125 -1.421875 
Q 15.921875 -1.421875 10.953125 3.296875 
Q 6 8.015625 6 15.921875 
Q 6 25.140625 12.171875 29.828125 
Q 18.359375 34.515625 30.609375 34.515625 
L 43.21875 34.515625 
L 43.21875 35.40625 
Q 43.21875 41.609375 39.140625 45 
Q 35.0625 48.390625 27.6875 48.390625 
Q 23 48.390625 18.546875 47.265625 
Q 14.109375 46.140625 10.015625 43.890625 
L 10.015625 52.203125 
Q 14.9375 54.109375 19.578125 55.046875 
Q 24.21875 56 28.609375 56 
Q 40.484375 56 46.34375 49.84375 
Q 52.203125 43.703125 52.203125 31.203125 
z
" id="DejaVuSans-97"/>
      <path d="M 54.890625 33.015625 
L 54.890625 0 
L 45.90625 0 
L 45.90625 32.71875 
Q 45.90625 40.484375 42.875 44.328125 
Q 39.84375 48.1875 33.796875 48.1875 
Q 26.515625 48.1875 22.3125 43.546875 
Q 18.109375 38.921875 18.109375 30.90625 
L 18.109375 0 
L 9.078125 0 
L 9.078125 54.6875 
L 18.109375 54.6875 
L 18.109375 46.1875 
Q 21.34375 51.125 25.703125 53.5625 
Q 30.078125 56 35.796875 56 
Q 45.21875 56 50.046875 50.171875 
Q 54.890625 44.34375 54.890625 33.015625 
z
" id="DejaVuSans-110"/>
      <path d="M 48.78125 52.59375 
L 48.78125 44.1875 
Q 44.96875 46.296875 41.140625 47.34375 
Q 37.3125 48.390625 33.40625 48.390625 
Q 24.65625 48.390625 19.8125 42.84375 
Q 14.984375 37.3125 14.984375 27.296875 
Q 14.984375 17.28125 19.8125 11.734375 
Q 24.65625 6.203125 33.40625 6.203125 
Q 37.3125 6.203125 41.140625 7.25 
Q 44.96875 8.296875 48.78125 10.40625 
L 48.78125 2.09375 
Q 45.015625 0.34375 40.984375 -0.53125 
Q 36.96875 -1.421875 32.421875 -1.421875 
Q 20.0625 -1.421875 12.78125 6.34375 
Q 5.515625 14.109375 5.515625 27.296875 
Q 5.515625 40.671875 12.859375 48.328125 
Q 20.21875 56 33.015625 56 
Q 37.15625 56 41.109375 55.140625 
Q 45.0625 54.296875 48.78125 52.59375 
z
" id="DejaVuSans-99"/>
      <path d="M 56.203125 29.59375 
L 56.203125 25.203125 
L 14.890625 25.203125 
Q 15.484375 15.921875 20.484375 11.0625 
Q 25.484375 6.203125 34.421875 6.203125 
Q 39.59375 6.203125 44.453125 7.46875 
Q 49.3125 8.734375 54.109375 11.28125 
L 54.109375 2.78125 
Q 49.265625 0.734375 44.1875 -0.34375 
Q 39.109375 -1.421875 33.890625 -1.421875 
Q 20.796875 -1.421875 13.15625 6.1875 
Q 5.515625 13.8125 5.515625 26.8125 
Q 5.515625 40.234375 12.765625 48.109375 
Q 20.015625 56 32.328125 56 
Q 43.359375 56 49.78125 48.890625 
Q 56.203125 41.796875 56.203125 29.59375 
z
M 47.21875 32.234375 
Q 47.125 39.59375 43.09375 43.984375 
Q 39.0625 48.390625 32.421875 48.390625 
Q 24.90625 48.390625 20.390625 44.140625 
Q 15.875 39.890625 15.1875 32.171875 
z
" id="DejaVuSans-101"/>
     </defs>
     <g transform="translate(38.157812 196.3905)rotate(-90)scale(0.1 -0.1)">
      <use xlink:href="#DejaVuSans-68"/>
      <use x="77.001953" xlink:href="#DejaVuSans-105"/>
      <use x="104.785156" xlink:href="#DejaVuSans-115"/>
      <use x="156.884766" xlink:href="#DejaVuSans-116"/>
      <use x="196.09375" xlink:href="#DejaVuSans-97"/>
      <use x="257.373047" xlink:href="#DejaVuSans-110"/>
      <use x="320.751953" xlink:href="#DejaVuSans-99"/>
      <use x="375.732422" xlink:href="#DejaVuSans-101"/>
     </g>
    </g>
   </g>
   <g id="line2d_16">
    <path clip-path="url(#pe78c592069)" d="M 73.832727 269.755764 
L 74.918528 273.07258 
L 76.00433 277.115268 
L 77.090131 277.758143 
L 79.261733 261.289934 
L 80.347534 268.396323 
L 81.433335 270.401479 
L 82.519137 282.066072 
L 83.604938 279.97172 
L 84.690739 268.082557 
L 85.77654 239.189705 
L 86.862341 272.864104 
L 87.948142 275.141125 
L 89.033943 270.35302 
L 90.119745 272.79965 
L 92.291347 278.736121 
L 93.377148 277.566511 
L 94.462949 279.982274 
L 95.54875 281.062701 
L 96.634552 276.613742 
L 98.806154 271.799317 
L 99.891955 281.141746 
L 100.977756 275.432629 
L 102.063557 260.859695 
L 103.149358 275.723737 
L 104.23516 273.284285 
L 105.320961 270.282329 
L 106.406762 267.718961 
L 107.492563 279.449178 
L 108.578364 271.879664 
L 109.664165 262.690555 
L 110.749967 250.31781 
L 111.835768 239.943739 
L 112.921569 247.889453 
L 114.00737 237.870197 
L 115.093171 236.141947 
L 116.178972 249.527263 
L 117.264773 248.265527 
L 118.350575 248.462025 
L 119.436376 234.777725 
L 120.522177 253.514088 
L 121.607978 251.768282 
L 122.693779 255.801415 
L 123.77958 255.531116 
L 125.951183 270.64495 
L 127.036984 272.698754 
L 128.122785 264.074043 
L 129.208586 263.277408 
L 130.294387 253.283918 
L 131.380189 229.77036 
L 132.46599 254.000064 
L 134.637592 256.471271 
L 135.723393 259.503685 
L 136.809194 246.090969 
L 137.894995 261.700877 
L 138.980797 255.268747 
L 140.066598 252.832677 
L 141.152399 274.467189 
L 142.2382 274.856077 
L 143.324001 274.695215 
L 144.409802 264.360056 
L 145.495604 270.086763 
L 146.581405 270.4764 
L 147.667206 268.143908 
L 148.753007 261.354416 
L 149.838808 266.038418 
L 150.924609 268.52805 
L 153.096212 261.713418 
L 154.182013 253.648994 
L 155.267814 268.044197 
L 156.353615 255.089022 
L 157.439416 246.072004 
L 158.525217 242.604034 
L 159.611019 241.983542 
L 160.69682 239.201447 
L 161.782621 231.009983 
L 162.868422 237.351978 
L 163.954223 245.930885 
L 165.040024 238.851404 
L 166.125825 222.891635 
L 167.211627 232.072882 
L 168.297428 230.383135 
L 169.383229 232.292539 
L 170.46903 231.643047 
L 171.554831 219.283017 
L 172.640632 216.969424 
L 173.726434 217.546104 
L 174.812235 194.702922 
L 175.898036 210.304858 
L 176.983837 205.924848 
L 178.069638 214.294595 
L 179.155439 216.003598 
L 180.24124 193.617959 
L 181.327042 191.890176 
L 182.412843 209.373298 
L 183.498644 196.345748 
L 184.584445 192.647822 
L 185.670246 196.641317 
L 186.756047 201.201619 
L 187.841849 190.294913 
L 188.92765 191.525512 
L 190.013451 191.414447 
L 191.099252 192.630845 
L 192.185053 198.898203 
L 193.270854 178.806245 
L 194.356656 169.318763 
L 195.442457 180.413229 
L 196.528258 170.302135 
L 197.614059 165.680618 
L 198.69986 171.321011 
L 199.785661 190.165066 
L 200.871462 158.607659 
L 201.957264 174.852464 
L 203.043065 187.715732 
L 204.128866 204.198513 
L 205.214667 196.799677 
L 206.300468 208.482552 
L 207.386269 206.928568 
L 208.472071 215.078963 
L 209.557872 213.582565 
L 210.643673 197.491573 
L 211.729474 202.871929 
L 212.815275 212.377408 
L 213.901076 203.158741 
L 214.986877 221.567964 
L 216.072679 219.805277 
L 217.15848 201.619657 
L 219.330082 237.747642 
L 220.415883 221.954869 
L 221.501684 215.382592 
L 222.587486 217.664983 
L 223.673287 228.136069 
L 224.759088 220.918905 
L 225.844889 206.657708 
L 226.93069 187.322458 
L 228.016491 193.677474 
L 229.102292 203.204854 
L 230.188094 207.832139 
L 231.273895 217.343766 
L 232.359696 205.856954 
L 233.445497 210.53637 
L 234.531298 218.135215 
L 235.617099 215.012511 
L 236.702901 217.963256 
L 237.788702 199.497656 
L 238.874503 226.598735 
L 239.960304 221.866611 
L 241.046105 210.920978 
L 242.131906 214.829138 
L 243.217708 211.903163 
L 244.303509 241.256619 
L 245.38931 220.129451 
L 246.475111 226.176203 
L 247.560912 213.061829 
L 248.646713 210.326283 
L 249.732514 230.14335 
L 250.818316 220.087663 
L 251.904117 237.895355 
L 252.989918 232.072036 
L 254.075719 227.689578 
L 255.16152 218.969088 
L 256.247321 243.568033 
L 257.333123 238.861295 
L 258.418924 229.969999 
L 259.504725 212.849428 
L 260.590526 216.149424 
L 261.676327 212.783087 
L 262.762128 213.775578 
L 263.847929 230.992139 
L 264.933731 224.103921 
L 266.019532 214.951252 
L 267.105333 226.987776 
L 268.191134 213.825607 
L 269.276935 215.015156 
L 270.362736 199.344631 
L 271.448538 188.389121 
L 272.534339 208.905713 
L 273.62014 205.605784 
L 274.705941 184.172694 
L 275.791742 206.180419 
L 276.877543 193.517484 
L 277.963344 178.315823 
L 279.049146 196.605134 
L 280.134947 208.669107 
L 281.220748 201.549879 
L 282.306549 236.358284 
L 283.39235 219.726144 
L 284.478151 216.03388 
L 285.563953 244.169441 
L 286.649754 211.607807 
L 287.735555 204.332039 
L 288.821356 211.929312 
L 289.907157 217.808005 
L 290.992958 201.133668 
L 293.164561 231.302545 
L 294.250362 214.549397 
L 295.336163 188.942126 
L 296.421964 230.838893 
L 297.507765 211.427844 
L 298.593566 212.990963 
L 300.765169 198.131424 
L 302.936771 179.152152 
L 304.022572 185.413118 
L 305.108373 179.133397 
L 306.194175 171.804121 
L 307.279976 169.978326 
L 308.365777 162.678644 
L 309.451578 153.135315 
L 310.537379 194.432803 
L 311.62318 174.168239 
L 312.708981 180.375941 
L 313.794783 169.870636 
L 314.880584 188.544129 
L 315.966385 179.632356 
L 317.052186 178.191001 
L 318.137987 199.663351 
L 319.223788 191.097226 
L 320.30959 215.438884 
L 321.395391 198.056999 
L 322.481192 218.593664 
L 323.566993 216.518617 
L 324.652794 200.920699 
L 325.738595 219.260584 
L 326.824396 209.992265 
L 327.910198 203.838433 
L 328.995999 204.023144 
L 330.0818 193.503313 
L 331.167601 214.457631 
L 332.253402 201.83181 
L 333.339203 215.937746 
L 334.425005 226.1163 
L 335.510806 212.698018 
L 336.596607 208.966531 
L 337.682408 208.30466 
L 338.768209 204.660456 
L 339.85401 200.527676 
L 340.939811 171.848319 
L 342.025613 187.780267 
L 343.111414 166.741546 
L 344.197215 169.17698 
L 345.283016 172.050422 
L 346.368817 187.34978 
L 347.454618 185.132703 
L 348.54042 194.668518 
L 349.626221 193.048016 
L 350.712022 190.595776 
L 351.797823 181.481186 
L 352.883624 175.870531 
L 353.969425 171.079445 
L 355.055227 173.970672 
L 356.141028 169.270248 
L 357.226829 157.503042 
L 358.31263 154.144176 
L 359.398431 164.388422 
L 360.484232 167.772716 
L 361.570033 167.121481 
L 362.655835 140.768234 
L 363.741636 158.559611 
L 364.827437 168.023218 
L 365.913238 154.52926 
L 366.999039 157.388663 
L 368.08484 163.113223 
L 369.170642 157.952341 
L 370.256443 144.535385 
L 371.342244 157.02033 
L 372.428045 157.43171 
L 373.513846 164.120874 
L 374.599647 182.136329 
L 375.685448 164.199062 
L 376.77125 171.280505 
L 377.857051 163.729843 
L 378.942852 159.173375 
L 380.028653 156.866211 
L 381.114454 150.953568 
L 382.200255 166.882 
L 383.286057 158.300384 
L 384.371858 172.148653 
L 385.457659 153.824941 
L 386.54346 163.73108 
L 387.629261 141.31841 
L 388.715062 144.78223 
L 389.800863 131.239219 
L 390.886665 126.12835 
L 391.972466 135.627206 
L 393.058267 148.051859 
L 394.144068 157.60139 
L 395.229869 154.93399 
L 396.31567 131.459901 
L 397.401472 145.483397 
L 398.487273 174.859649 
L 398.487273 174.859649 
" style="fill:none;stroke:#0000ff;stroke-linecap:square;stroke-width:1.5;"/>
   </g>
   <g id="patch_3">
    <path d="M 57.6 307.584 
L 57.6 41.472 
" style="fill:none;stroke:#000000;stroke-linecap:square;stroke-linejoin:miter;stroke-width:0.8;"/>
   </g>
   <g id="patch_4">
    <path d="M 414.72 307.584 
L 414.72 41.472 
" style="fill:none;stroke:#000000;stroke-linecap:square;stroke-linejoin:miter;stroke-width:0.8;"/>
   </g>
   <g id="patch_5">
    <path d="M 57.6 307.584 
L 414.72 307.584 
" style="fill:none;stroke:#000000;stroke-linecap:square;stroke-linejoin:miter;stroke-width:0.8;"/>
   </g>
   <g id="patch_6">
    <path d="M 57.6 41.472 
L 414.72 41.472 
" style="fill:none;stroke:#000000;stroke-linecap:square;stroke-linejoin:miter;stroke-width:0.8;"/>
   </g>
  </g>
  <g id="axes_2">
   <g id="PolyCollection_2">
    <path clip-path="url(#pe78c592069)" d="M 73.832727 194.582237 
L 73.832727 229.834745 
L 74.918528 230.876542 
L 76.00433 230.485057 
L 77.090131 228.138258 
L 78.175932 231.635749 
L 79.261733 234.127045 
L 80.347534 232.139299 
L 81.433335 230.911374 
L 82.519137 229.301746 
L 83.604938 229.790366 
L 84.690739 230.87557 
L 85.77654 239.105731 
L 86.862341 231.014377 
L 87.948142 229.68484 
L 89.033943 231.502894 
L 90.119745 229.985752 
L 91.205546 227.8704 
L 92.291347 226.937428 
L 93.377148 228.556842 
L 94.462949 226.355129 
L 95.54875 225.430054 
L 96.634552 228.259362 
L 97.720353 229.351737 
L 98.806154 231.167471 
L 99.891955 229.656368 
L 100.977756 231.711082 
L 102.063557 231.38903 
L 103.149358 228.448464 
L 104.23516 229.693775 
L 105.320961 232.864558 
L 106.406762 236.611393 
L 107.492563 232.580017 
L 108.578364 232.955291 
L 109.664165 236.70021 
L 110.749967 243.641508 
L 111.835768 247.289711 
L 112.921569 241.066584 
L 114.00737 248.420908 
L 115.093171 246.632716 
L 116.178972 241.458656 
L 117.264773 241.95238 
L 118.350575 243.348373 
L 119.436376 243.483002 
L 120.522177 242.422821 
L 121.607978 241.574569 
L 122.693779 239.630944 
L 123.77958 236.433446 
L 124.865382 231.329672 
L 125.951183 226.747514 
L 127.036984 226.797464 
L 128.122785 229.462406 
L 129.208586 229.232052 
L 130.294387 230.205982 
L 131.380189 235.048172 
L 132.46599 231.249516 
L 133.551791 233.070915 
L 134.637592 232.176344 
L 135.723393 229.333774 
L 136.809194 235.503081 
L 137.894995 235.224801 
L 138.980797 235.384168 
L 140.066598 237.224852 
L 141.152399 235.380232 
L 142.2382 235.202402 
L 143.324001 234.782999 
L 144.409802 235.798031 
L 145.495604 236.745448 
L 146.581405 237.365061 
L 147.667206 236.844003 
L 148.753007 239.047215 
L 149.838808 239.194439 
L 150.924609 243.160578 
L 152.01041 244.921313 
L 153.096212 245.68898 
L 154.182013 248.302003 
L 155.267814 246.812014 
L 156.353615 245.971833 
L 157.439416 245.327605 
L 158.525217 249.012822 
L 159.611019 251.559241 
L 160.69682 256.081588 
L 161.782621 256.182923 
L 162.868422 252.479034 
L 163.954223 249.280336 
L 165.040024 251.874315 
L 166.125825 255.227087 
L 167.211627 256.806089 
L 168.297428 256.639122 
L 169.383229 255.378549 
L 170.46903 253.665268 
L 171.554831 256.300656 
L 172.640632 254.706119 
L 173.726434 264.05006 
L 174.812235 266.264707 
L 175.898036 260.94353 
L 176.983837 261.884081 
L 178.069638 261.896186 
L 179.155439 261.72351 
L 180.24124 266.867335 
L 181.327042 268.164228 
L 182.412843 269.741218 
L 183.498644 269.395048 
L 184.584445 270.277559 
L 185.670246 267.395266 
L 186.756047 267.10818 
L 187.841849 265.161356 
L 188.92765 267.786195 
L 190.013451 269.065902 
L 191.099252 268.879806 
L 192.185053 271.642375 
L 193.270854 273.180927 
L 194.356656 274.428999 
L 195.442457 276.891853 
L 196.528258 276.265869 
L 197.614059 279.772395 
L 198.69986 284.570242 
L 199.785661 277.148984 
L 200.871462 281.424839 
L 201.957264 270.612149 
L 203.043065 272.42341 
L 204.128866 275.424188 
L 205.214667 262.973562 
L 206.300468 262.906167 
L 207.386269 264.851274 
L 208.472071 266.166223 
L 209.557872 268.211978 
L 210.643673 272.4849 
L 211.729474 268.363781 
L 212.815275 269.365098 
L 213.901076 275.263176 
L 214.986877 273.79153 
L 216.072679 267.028788 
L 217.15848 270.151716 
L 218.244281 264.173122 
L 219.330082 264.302644 
L 220.415883 266.094801 
L 221.501684 267.204761 
L 222.587486 270.85682 
L 223.673287 266.32071 
L 224.759088 269.760275 
L 225.844889 274.777707 
L 226.93069 275.829516 
L 228.016491 279.871844 
L 229.102292 267.048699 
L 230.188094 269.775956 
L 231.273895 279.221427 
L 232.359696 274.483397 
L 233.445497 274.627304 
L 234.531298 273.82573 
L 235.617099 274.265154 
L 236.702901 270.308485 
L 237.788702 273.480967 
L 238.874503 275.107848 
L 239.960304 282.3417 
L 241.046105 278.301059 
L 242.131906 282.602446 
L 243.217708 285.22479 
L 244.303509 281.413626 
L 245.38931 284.108681 
L 246.475111 282.408041 
L 247.560912 288.079497 
L 248.646713 289.352711 
L 249.732514 282.890202 
L 250.818316 275.465511 
L 251.904117 278.310772 
L 252.989918 278.219936 
L 254.075719 279.091081 
L 255.16152 279.787534 
L 256.247321 282.300536 
L 257.333123 282.682524 
L 258.418924 284.594648 
L 259.504725 282.637903 
L 260.590526 284.763904 
L 261.676327 287.929542 
L 262.762128 284.326162 
L 263.847929 288.441916 
L 264.933731 289.332639 
L 266.019532 287.508409 
L 267.105333 290.873533 
L 268.191134 293.87679 
L 269.276935 294.870715 
L 270.362736 295.488 
L 271.448538 290.960191 
L 272.534339 288.050384 
L 273.62014 289.281781 
L 274.705941 283.506589 
L 275.791742 288.032148 
L 276.877543 281.80388 
L 277.963344 280.108937 
L 279.049146 284.757855 
L 280.134947 282.680918 
L 281.220748 280.819598 
L 282.306549 283.501151 
L 283.39235 281.920789 
L 284.478151 282.945991 
L 285.563953 285.686969 
L 286.649754 279.663389 
L 287.735555 279.982883 
L 288.821356 279.301723 
L 289.907157 283.735482 
L 290.992958 283.337443 
L 292.07876 280.205521 
L 293.164561 281.729407 
L 294.250362 279.646446 
L 295.336163 279.143363 
L 296.421964 278.529075 
L 297.507765 280.400358 
L 298.593566 278.980441 
L 299.679368 275.324048 
L 300.765169 274.865626 
L 301.85097 274.40766 
L 302.936771 275.613541 
L 304.022572 279.162611 
L 305.108373 276.185773 
L 306.194175 279.3493 
L 307.279976 281.742858 
L 308.365777 280.422973 
L 309.451578 283.884094 
L 310.537379 287.114979 
L 311.62318 287.43326 
L 312.708981 285.780317 
L 313.794783 283.07483 
L 314.880584 286.770938 
L 315.966385 283.254363 
L 317.052186 278.850524 
L 318.137987 285.054558 
L 319.223788 283.494833 
L 320.30959 283.375589 
L 321.395391 281.307643 
L 322.481192 284.131971 
L 323.566993 285.279672 
L 324.652794 272.757165 
L 325.738595 280.832154 
L 326.824396 281.057381 
L 327.910198 275.692366 
L 328.995999 276.154753 
L 330.0818 273.897592 
L 331.167601 275.105629 
L 332.253402 269.157472 
L 333.339203 267.001878 
L 334.425005 271.788076 
L 335.510806 263.754967 
L 336.596607 264.040444 
L 337.682408 263.223634 
L 338.768209 259.507319 
L 339.85401 262.13561 
L 340.939811 270.642206 
L 342.025613 267.311239 
L 343.111414 269.746732 
L 344.197215 264.905405 
L 345.283016 256.974922 
L 346.368817 260.549107 
L 347.454618 259.800958 
L 348.54042 262.302945 
L 349.626221 264.921575 
L 350.712022 265.584509 
L 351.797823 265.978094 
L 352.883624 264.240406 
L 353.969425 266.937627 
L 355.055227 266.941941 
L 356.141028 272.251807 
L 357.226829 272.362744 
L 358.31263 272.160178 
L 359.398431 270.844063 
L 360.484232 272.323606 
L 361.570033 274.979705 
L 362.655835 283.172176 
L 363.741636 271.875348 
L 364.827437 276.744719 
L 365.913238 277.958356 
L 366.999039 277.63716 
L 368.08484 278.146749 
L 369.170642 278.039245 
L 370.256443 272.871289 
L 371.342244 274.504619 
L 372.428045 270.127737 
L 373.513846 268.089474 
L 374.599647 266.242035 
L 375.685448 269.194275 
L 376.77125 267.056155 
L 377.857051 265.434886 
L 378.942852 271.563082 
L 380.028653 270.154869 
L 381.114454 271.26821 
L 382.200255 271.750112 
L 383.286057 268.613999 
L 384.371858 265.77983 
L 385.457659 272.280322 
L 386.54346 270.158818 
L 387.629261 273.349258 
L 388.715062 274.912721 
L 389.800863 279.67121 
L 390.886665 276.920683 
L 391.972466 275.451551 
L 393.058267 277.365111 
L 394.144068 274.703412 
L 395.229869 283.531835 
L 396.31567 295.021798 
L 397.401472 283.9031 
L 398.487273 278.282354 
L 398.487273 70.745207 
L 398.487273 70.745207 
L 397.401472 72.432344 
L 396.31567 53.568 
L 395.229869 72.957534 
L 394.144068 93.532496 
L 393.058267 79.468073 
L 391.972466 86.334036 
L 390.886665 83.663168 
L 389.800863 84.376471 
L 388.715062 86.135871 
L 387.629261 94.546314 
L 386.54346 95.097621 
L 385.457659 96.303124 
L 384.371858 117.618396 
L 383.286057 101.917586 
L 382.200255 114.325453 
L 381.114454 102.813326 
L 380.028653 103.570441 
L 378.942852 92.798843 
L 377.857051 123.662724 
L 376.77125 117.273554 
L 375.685448 118.483198 
L 374.599647 121.6826 
L 373.513846 121.597828 
L 372.428045 105.207773 
L 371.342244 102.125197 
L 370.256443 98.443789 
L 369.170642 91.938776 
L 368.08484 97.068753 
L 366.999039 92.396609 
L 365.913238 89.087766 
L 364.827437 94.862078 
L 363.741636 112.828791 
L 362.655835 85.439088 
L 361.570033 96.239235 
L 360.484232 101.013117 
L 359.398431 100.38538 
L 358.31263 95.111354 
L 357.226829 106.751486 
L 356.141028 102.955337 
L 355.055227 111.184623 
L 353.969425 107.403272 
L 352.883624 115.937747 
L 351.797823 109.52066 
L 350.712022 106.664592 
L 349.626221 111.188463 
L 348.54042 113.410837 
L 347.454618 117.627288 
L 346.368817 107.631875 
L 345.283016 110.494699 
L 344.197215 109.43023 
L 343.111414 98.815577 
L 342.025613 101.258741 
L 340.939811 104.313601 
L 339.85401 120.885244 
L 338.768209 123.143778 
L 337.682408 116.688688 
L 336.596607 126.06531 
L 335.510806 129.111735 
L 334.425005 112.605647 
L 333.339203 120.427521 
L 332.253402 112.52848 
L 331.167601 100.861287 
L 330.0818 112.813267 
L 328.995999 111.31196 
L 327.910198 106.218965 
L 326.824396 96.841561 
L 325.738595 97.214992 
L 324.652794 111.000357 
L 323.566993 95.756493 
L 322.481192 81.931515 
L 321.395391 92.758084 
L 320.30959 96.999068 
L 319.223788 90.18159 
L 318.137987 90.255829 
L 317.052186 100.007989 
L 315.966385 86.712428 
L 314.880584 76.766258 
L 313.794783 89.845698 
L 312.708981 84.36365 
L 311.62318 76.037372 
L 310.537379 81.404502 
L 309.451578 86.852236 
L 308.365777 81.797216 
L 307.279976 89.59345 
L 306.194175 82.73101 
L 305.108373 91.018208 
L 304.022572 77.439528 
L 302.936771 82.427029 
L 301.85097 90.510492 
L 300.765169 99.543771 
L 299.679368 107.124487 
L 298.593566 92.415778 
L 297.507765 100.750261 
L 296.421964 99.232494 
L 295.336163 105.288771 
L 294.250362 99.292071 
L 293.164561 91.657287 
L 292.07876 97.532153 
L 290.992958 94.981954 
L 289.907157 83.772556 
L 288.821356 99.154248 
L 287.735555 98.811945 
L 286.649754 101.862366 
L 285.563953 94.53076 
L 284.478151 90.023372 
L 283.39235 100.790404 
L 282.306549 99.213925 
L 281.220748 100.693936 
L 280.134947 97.446098 
L 279.049146 93.971134 
L 277.963344 104.059134 
L 276.877543 96.875621 
L 275.791742 87.154085 
L 274.705941 88.031952 
L 273.62014 82.05577 
L 272.534339 88.286956 
L 271.448538 81.047205 
L 270.362736 76.820107 
L 269.276935 79.412194 
L 268.191134 78.676032 
L 267.105333 85.278299 
L 266.019532 92.509235 
L 264.933731 89.759861 
L 263.847929 86.774009 
L 262.762128 102.422905 
L 261.676327 96.077745 
L 260.590526 101.796657 
L 259.504725 107.104693 
L 258.418924 103.619557 
L 257.333123 108.466026 
L 256.247321 111.019778 
L 255.16152 112.910159 
L 254.075719 114.644516 
L 252.989918 115.096321 
L 251.904117 112.147628 
L 250.818316 125.752965 
L 249.732514 108.920173 
L 248.646713 97.078836 
L 247.560912 99.159857 
L 246.475111 105.431219 
L 245.38931 97.959117 
L 244.303509 105.418465 
L 243.217708 99.715344 
L 242.131906 103.325821 
L 241.046105 112.162177 
L 239.960304 102.597314 
L 238.874503 119.426959 
L 237.788702 126.022552 
L 236.702901 128.989475 
L 235.617099 128.873081 
L 234.531298 125.331862 
L 233.445497 117.736561 
L 232.359696 124.309571 
L 231.273895 113.760483 
L 230.188094 122.03344 
L 229.102292 132.183052 
L 228.016491 107.552769 
L 226.93069 112.196387 
L 225.844889 113.491451 
L 224.759088 126.646119 
L 223.673287 135.313655 
L 222.587486 127.498734 
L 221.501684 128.971229 
L 220.415883 131.219143 
L 219.330082 138.029719 
L 218.244281 135.894535 
L 217.15848 126.240738 
L 216.072679 131.038093 
L 214.986877 118.742439 
L 213.901076 119.283272 
L 212.815275 131.087212 
L 211.729474 128.627274 
L 210.643673 122.922482 
L 209.557872 125.896169 
L 208.472071 131.827651 
L 207.386269 132.465586 
L 206.300468 128.479628 
L 205.214667 120.808404 
L 204.128866 101.580941 
L 203.043065 106.436191 
L 201.957264 110.981153 
L 200.871462 89.845329 
L 199.785661 94.805887 
L 198.69986 84.794618 
L 197.614059 99.368587 
L 196.528258 107.568188 
L 195.442457 108.318839 
L 194.356656 112.940945 
L 193.270854 117.19146 
L 192.185053 110.208007 
L 191.099252 121.262266 
L 190.013451 118.055083 
L 188.92765 129.330233 
L 187.841849 125.652426 
L 186.756047 122.540222 
L 185.670246 121.15323 
L 184.584445 114.302299 
L 183.498644 119.541881 
L 182.412843 121.27937 
L 181.327042 123.703831 
L 180.24124 125.726149 
L 179.155439 138.348379 
L 178.069638 134.014821 
L 176.983837 135.873664 
L 175.898036 134.26667 
L 174.812235 133.256564 
L 173.726434 135.078432 
L 172.640632 149.759805 
L 171.554831 148.133617 
L 170.46903 153.35679 
L 169.383229 147.598659 
L 168.297428 146.757715 
L 167.211627 148.238195 
L 166.125825 151.082583 
L 165.040024 154.465905 
L 163.954223 155.271943 
L 162.868422 148.620997 
L 161.782621 145.279781 
L 160.69682 149.958044 
L 159.611019 156.205094 
L 158.525217 157.157518 
L 157.439416 166.162737 
L 156.353615 170.389878 
L 155.267814 169.019042 
L 154.182013 165.347251 
L 153.096212 170.275809 
L 152.01041 172.366508 
L 150.924609 177.838197 
L 149.838808 176.731597 
L 148.753007 175.519177 
L 147.667206 182.963494 
L 146.581405 185.135717 
L 145.495604 180.526346 
L 144.409802 182.407027 
L 143.324001 184.955785 
L 142.2382 180.904184 
L 141.152399 177.736482 
L 140.066598 169.096804 
L 138.980797 174.366683 
L 137.894995 176.971762 
L 136.809194 172.614988 
L 135.723393 174.682504 
L 134.637592 175.686959 
L 133.551791 175.601763 
L 132.46599 174.169985 
L 131.380189 160.490184 
L 130.294387 171.025782 
L 129.208586 179.422422 
L 128.122785 180.077753 
L 127.036984 182.143532 
L 125.951183 180.774175 
L 124.865382 181.394542 
L 123.77958 177.899713 
L 122.693779 177.886588 
L 121.607978 174.32195 
L 120.522177 178.611195 
L 119.436376 165.534388 
L 118.350575 173.888915 
L 117.264773 171.962031 
L 116.178972 170.747282 
L 115.093171 162.053781 
L 114.00737 154.719879 
L 112.921569 168.990724 
L 111.835768 157.950303 
L 110.749967 170.548671 
L 109.664165 177.724494 
L 108.578364 183.1906 
L 107.492563 186.931114 
L 106.406762 181.285367 
L 105.320961 185.456793 
L 104.23516 184.718663 
L 103.149358 183.101953 
L 102.063557 177.139147 
L 100.977756 186.319783 
L 99.891955 189.728 
L 98.806154 185.866796 
L 97.720353 184.535471 
L 96.634552 183.3104 
L 95.54875 184.951796 
L 94.462949 184.974349 
L 93.377148 186.677425 
L 92.291347 186.566662 
L 91.205546 188.536632 
L 90.119745 188.05521 
L 89.033943 186.154659 
L 87.948142 188.985668 
L 86.862341 186.101691 
L 85.77654 170.991092 
L 84.690739 182.743408 
L 83.604938 188.068989 
L 82.519137 190.897691 
L 81.433335 184.611234 
L 80.347534 186.201289 
L 79.261733 184.373507 
L 78.175932 190.03954 
L 77.090131 190.314539 
L 76.00433 194.310682 
L 74.918528 193.575746 
L 73.832727 194.582237 
z
" style="fill:#008000;fill-opacity:0.25;"/>
   </g>
   <g id="matplotlib.axis_3">
    <g id="ytick_9">
     <g id="line2d_17">
      <path clip-path="url(#pe78c592069)" d="M 57.6 268.907253 
L 414.72 268.907253 
" style="fill:none;stroke:#b0b0b0;stroke-linecap:square;stroke-width:0.8;"/>
     </g>
     <g id="line2d_18">
      <defs>
       <path d="M 0 0 
L 3.5 0 
" id="mf6695a4230" style="stroke:#000000;stroke-width:0.8;"/>
      </defs>
      <g>
       <use style="stroke:#000000;stroke-width:0.8;" x="414.72" xlink:href="#mf6695a4230" y="268.907253"/>
      </g>
     </g>
     <g id="text_17">
      <!-- 1 -->
      <defs>
       <path d="M 10.59375 35.5 
L 73.1875 35.5 
L 73.1875 27.203125 
L 10.59375 27.203125 
z
" id="DejaVuSans-8722"/>
      </defs>
      <g transform="translate(421.72 272.706472)scale(0.1 -0.1)">
       <use xlink:href="#DejaVuSans-8722"/>
       <use x="83.789062" xlink:href="#DejaVuSans-49"/>
      </g>
     </g>
    </g>
    <g id="ytick_10">
     <g id="line2d_19">
      <path clip-path="url(#pe78c592069)" d="M 57.6 228.107027 
L 414.72 228.107027 
" style="fill:none;stroke:#b0b0b0;stroke-linecap:square;stroke-width:0.8;"/>
     </g>
     <g id="line2d_20">
      <g>
       <use style="stroke:#000000;stroke-width:0.8;" x="414.72" xlink:href="#mf6695a4230" y="228.107027"/>
      </g>
     </g>
     <g id="text_18">
      <!-- 0 -->
      <g transform="translate(421.72 231.906246)scale(0.1 -0.1)">
       <use xlink:href="#DejaVuSans-48"/>
      </g>
     </g>
    </g>
    <g id="ytick_11">
     <g id="line2d_21">
      <path clip-path="url(#pe78c592069)" d="M 57.6 187.3068 
L 414.72 187.3068 
" style="fill:none;stroke:#b0b0b0;stroke-linecap:square;stroke-width:0.8;"/>
     </g>
     <g id="line2d_22">
      <g>
       <use style="stroke:#000000;stroke-width:0.8;" x="414.72" xlink:href="#mf6695a4230" y="187.3068"/>
      </g>
     </g>
     <g id="text_19">
      <!-- 1 -->
      <g transform="translate(421.72 191.106019)scale(0.1 -0.1)">
       <use xlink:href="#DejaVuSans-49"/>
      </g>
     </g>
    </g>
    <g id="ytick_12">
     <g id="line2d_23">
      <path clip-path="url(#pe78c592069)" d="M 57.6 146.506574 
L 414.72 146.506574 
" style="fill:none;stroke:#b0b0b0;stroke-linecap:square;stroke-width:0.8;"/>
     </g>
     <g id="line2d_24">
      <g>
       <use style="stroke:#000000;stroke-width:0.8;" x="414.72" xlink:href="#mf6695a4230" y="146.506574"/>
      </g>
     </g>
     <g id="text_20">
      <!-- 2 -->
      <g transform="translate(421.72 150.305793)scale(0.1 -0.1)">
       <use xlink:href="#DejaVuSans-50"/>
      </g>
     </g>
    </g>
    <g id="ytick_13">
     <g id="line2d_25">
      <path clip-path="url(#pe78c592069)" d="M 57.6 105.706347 
L 414.72 105.706347 
" style="fill:none;stroke:#b0b0b0;stroke-linecap:square;stroke-width:0.8;"/>
     </g>
     <g id="line2d_26">
      <g>
       <use style="stroke:#000000;stroke-width:0.8;" x="414.72" xlink:href="#mf6695a4230" y="105.706347"/>
      </g>
     </g>
     <g id="text_21">
      <!-- 3 -->
      <g transform="translate(421.72 109.505566)scale(0.1 -0.1)">
       <use xlink:href="#DejaVuSans-51"/>
      </g>
     </g>
    </g>
    <g id="ytick_14">
     <g id="line2d_27">
      <path clip-path="url(#pe78c592069)" d="M 57.6 64.906121 
L 414.72 64.906121 
" style="fill:none;stroke:#b0b0b0;stroke-linecap:square;stroke-width:0.8;"/>
     </g>
     <g id="line2d_28">
      <g>
       <use style="stroke:#000000;stroke-width:0.8;" x="414.72" xlink:href="#mf6695a4230" y="64.906121"/>
      </g>
     </g>
     <g id="text_22">
      <!-- 4 -->
      <g transform="translate(421.72 68.70534)scale(0.1 -0.1)">
       <use xlink:href="#DejaVuSans-52"/>
      </g>
     </g>
    </g>
    <g id="text_23">
     <!-- Loudness -->
     <defs>
      <path d="M 9.8125 72.90625 
L 19.671875 72.90625 
L 19.671875 8.296875 
L 55.171875 8.296875 
L 55.171875 0 
L 9.8125 0 
z
" id="DejaVuSans-76"/>
      <path d="M 30.609375 48.390625 
Q 23.390625 48.390625 19.1875 42.75 
Q 14.984375 37.109375 14.984375 27.296875 
Q 14.984375 17.484375 19.15625 11.84375 
Q 23.34375 6.203125 30.609375 6.203125 
Q 37.796875 6.203125 41.984375 11.859375 
Q 46.1875 17.53125 46.1875 27.296875 
Q 46.1875 37.015625 41.984375 42.703125 
Q 37.796875 48.390625 30.609375 48.390625 
z
M 30.609375 56 
Q 42.328125 56 49.015625 48.375 
Q 55.71875 40.765625 55.71875 27.296875 
Q 55.71875 13.875 49.015625 6.21875 
Q 42.328125 -1.421875 30.609375 -1.421875 
Q 18.84375 -1.421875 12.171875 6.21875 
Q 5.515625 13.875 5.515625 27.296875 
Q 5.515625 40.765625 12.171875 48.375 
Q 18.84375 56 30.609375 56 
z
" id="DejaVuSans-111"/>
      <path d="M 8.5 21.578125 
L 8.5 54.6875 
L 17.484375 54.6875 
L 17.484375 21.921875 
Q 17.484375 14.15625 20.5 10.265625 
Q 23.53125 6.390625 29.59375 6.390625 
Q 36.859375 6.390625 41.078125 11.03125 
Q 45.3125 15.671875 45.3125 23.6875 
L 45.3125 54.6875 
L 54.296875 54.6875 
L 54.296875 0 
L 45.3125 0 
L 45.3125 8.40625 
Q 42.046875 3.421875 37.71875 1 
Q 33.40625 -1.421875 27.6875 -1.421875 
Q 18.265625 -1.421875 13.375 4.4375 
Q 8.5 10.296875 8.5 21.578125 
z
M 31.109375 56 
z
" id="DejaVuSans-117"/>
      <path d="M 45.40625 46.390625 
L 45.40625 75.984375 
L 54.390625 75.984375 
L 54.390625 0 
L 45.40625 0 
L 45.40625 8.203125 
Q 42.578125 3.328125 38.25 0.953125 
Q 33.9375 -1.421875 27.875 -1.421875 
Q 17.96875 -1.421875 11.734375 6.484375 
Q 5.515625 14.40625 5.515625 27.296875 
Q 5.515625 40.1875 11.734375 48.09375 
Q 17.96875 56 27.875 56 
Q 33.9375 56 38.25 53.625 
Q 42.578125 51.265625 45.40625 46.390625 
z
M 14.796875 27.296875 
Q 14.796875 17.390625 18.875 11.75 
Q 22.953125 6.109375 30.078125 6.109375 
Q 37.203125 6.109375 41.296875 11.75 
Q 45.40625 17.390625 45.40625 27.296875 
Q 45.40625 37.203125 41.296875 42.84375 
Q 37.203125 48.484375 30.078125 48.484375 
Q 22.953125 48.484375 18.875 42.84375 
Q 14.796875 37.203125 14.796875 27.296875 
z
" id="DejaVuSans-100"/>
     </defs>
     <g transform="translate(448.060625 198.170187)rotate(-90)scale(0.1 -0.1)">
      <use xlink:href="#DejaVuSans-76"/>
      <use x="55.697266" xlink:href="#DejaVuSans-111"/>
      <use x="116.878906" xlink:href="#DejaVuSans-117"/>
      <use x="180.257812" xlink:href="#DejaVuSans-100"/>
      <use x="243.734375" xlink:href="#DejaVuSans-110"/>
      <use x="307.113281" xlink:href="#DejaVuSans-101"/>
      <use x="368.636719" xlink:href="#DejaVuSans-115"/>
      <use x="420.736328" xlink:href="#DejaVuSans-115"/>
     </g>
    </g>
   </g>
   <g id="line2d_29">
    <path clip-path="url(#pe78c592069)" d="M 73.832727 212.208491 
L 74.918528 212.226144 
L 76.00433 212.39787 
L 77.090131 209.226399 
L 78.175932 210.837645 
L 79.261733 209.250276 
L 80.347534 209.170294 
L 81.433335 207.761304 
L 82.519137 210.099718 
L 83.604938 208.929678 
L 84.690739 206.809489 
L 85.77654 205.048411 
L 86.862341 208.558034 
L 87.948142 209.335254 
L 89.033943 208.828777 
L 90.119745 209.020481 
L 91.205546 208.203516 
L 92.291347 206.752045 
L 93.377148 207.617133 
L 94.462949 205.664739 
L 95.54875 205.190925 
L 96.634552 205.784881 
L 97.720353 206.943604 
L 98.806154 208.517133 
L 99.891955 209.692184 
L 100.977756 209.015433 
L 102.063557 204.264089 
L 104.23516 207.206219 
L 105.320961 209.160675 
L 106.406762 208.94838 
L 107.492563 209.755565 
L 108.578364 208.072946 
L 109.664165 207.212352 
L 110.749967 207.095089 
L 111.835768 202.620007 
L 112.921569 205.028654 
L 114.00737 201.570394 
L 115.093171 204.343248 
L 116.178972 206.102969 
L 117.264773 206.957205 
L 118.350575 208.618644 
L 119.436376 204.508695 
L 120.522177 210.517008 
L 121.607978 207.948259 
L 122.693779 208.758766 
L 123.77958 207.16658 
L 124.865382 206.362107 
L 125.951183 203.760845 
L 127.036984 204.470498 
L 128.122785 204.770079 
L 129.208586 204.327237 
L 130.294387 200.615882 
L 131.380189 197.769178 
L 132.46599 202.70975 
L 133.551791 204.336339 
L 134.637592 203.931652 
L 135.723393 202.008139 
L 137.894995 206.098281 
L 138.980797 204.875425 
L 140.066598 203.160828 
L 141.152399 206.558357 
L 142.2382 208.053293 
L 143.324001 209.869392 
L 144.409802 209.102529 
L 145.495604 208.635897 
L 146.581405 211.250389 
L 147.667206 209.903749 
L 148.753007 207.283196 
L 149.838808 207.963018 
L 150.924609 210.499388 
L 152.01041 208.643911 
L 153.096212 207.982394 
L 154.182013 206.824627 
L 155.267814 207.915528 
L 156.353615 208.180856 
L 158.525217 203.08517 
L 159.611019 203.882167 
L 160.69682 203.019816 
L 161.782621 200.731352 
L 162.868422 200.550016 
L 163.954223 202.276139 
L 165.040024 203.17011 
L 166.125825 203.154835 
L 167.211627 202.522142 
L 168.297428 201.698419 
L 169.383229 201.488604 
L 170.46903 203.511029 
L 171.554831 202.217137 
L 172.640632 202.232962 
L 173.726434 199.564246 
L 174.812235 199.760636 
L 175.898036 197.6051 
L 176.983837 198.878872 
L 178.069638 197.955504 
L 179.155439 200.035945 
L 180.24124 196.296742 
L 182.412843 195.510294 
L 183.498644 194.468464 
L 184.584445 192.289929 
L 185.670246 194.274248 
L 187.841849 195.406891 
L 188.92765 198.558214 
L 190.013451 193.560492 
L 191.099252 195.071036 
L 192.185053 190.925191 
L 193.270854 195.186194 
L 194.356656 193.684972 
L 195.442457 192.605346 
L 196.528258 191.917028 
L 197.614059 189.570491 
L 198.69986 184.68243 
L 199.785661 185.977435 
L 200.871462 185.635084 
L 201.957264 190.796651 
L 203.043065 189.429801 
L 204.128866 188.502565 
L 205.214667 191.890983 
L 206.300468 195.692898 
L 207.386269 198.65843 
L 208.472071 198.996937 
L 209.557872 197.054074 
L 210.643673 197.703691 
L 211.729474 198.495528 
L 212.815275 200.226155 
L 213.901076 197.273224 
L 214.986877 196.266985 
L 216.072679 199.03344 
L 217.15848 198.196227 
L 218.244281 200.033828 
L 219.330082 201.166182 
L 220.415883 198.656972 
L 221.501684 198.087995 
L 222.587486 199.177777 
L 223.673287 200.817182 
L 224.759088 198.203197 
L 225.844889 194.134579 
L 226.93069 194.012952 
L 228.016491 193.712306 
L 229.102292 199.615875 
L 230.188094 195.904698 
L 231.273895 196.490955 
L 232.359696 199.396484 
L 233.445497 196.181933 
L 234.531298 199.578796 
L 235.617099 201.569118 
L 236.702901 199.64898 
L 237.788702 199.75176 
L 238.874503 197.267404 
L 239.960304 192.469507 
L 241.046105 195.231618 
L 242.131906 192.964134 
L 243.217708 192.470067 
L 244.303509 193.416045 
L 245.38931 191.033899 
L 246.475111 193.91963 
L 248.646713 193.215774 
L 249.732514 195.905188 
L 250.818316 200.609238 
L 251.904117 195.2292 
L 252.989918 196.658129 
L 254.075719 196.867799 
L 255.16152 196.348847 
L 256.247321 196.660157 
L 257.333123 195.574275 
L 258.418924 194.107103 
L 259.504725 194.871298 
L 260.590526 193.28028 
L 261.676327 192.003643 
L 262.762128 193.374534 
L 263.847929 187.607963 
L 264.933731 189.54625 
L 266.019532 190.008822 
L 268.191134 186.276411 
L 269.276935 187.141454 
L 270.362736 186.154053 
L 271.448538 186.003698 
L 272.534339 188.16867 
L 273.62014 185.668776 
L 274.705941 185.76927 
L 276.877543 189.33975 
L 277.963344 192.084036 
L 279.049146 189.364494 
L 282.306549 191.357538 
L 283.39235 191.355596 
L 284.478151 186.484682 
L 285.563953 190.108865 
L 286.649754 190.762878 
L 287.735555 189.397414 
L 288.821356 189.227985 
L 289.907157 183.754019 
L 290.992958 189.159699 
L 292.07876 188.868837 
L 293.164561 186.693347 
L 295.336163 192.216067 
L 296.421964 188.880784 
L 297.507765 190.575309 
L 298.593566 185.69811 
L 299.679368 191.224267 
L 300.765169 187.204699 
L 301.85097 182.459076 
L 302.936771 179.020285 
L 304.022572 178.30107 
L 305.108373 183.60199 
L 306.194175 181.040155 
L 307.279976 185.668154 
L 308.365777 181.110095 
L 309.451578 185.368165 
L 310.537379 184.25974 
L 311.62318 181.735316 
L 312.708981 185.071984 
L 313.794783 186.460264 
L 314.880584 181.768598 
L 315.966385 184.983395 
L 317.052186 189.429257 
L 318.137987 187.655193 
L 319.223788 186.838211 
L 320.30959 190.187328 
L 321.395391 187.032864 
L 322.481192 183.031743 
L 323.566993 190.518083 
L 324.652794 191.878761 
L 325.738595 189.023573 
L 326.824396 188.949471 
L 327.910198 190.955665 
L 328.995999 193.733357 
L 330.0818 193.355429 
L 331.167601 187.983458 
L 333.339203 193.7147 
L 334.425005 192.196862 
L 335.510806 196.433351 
L 336.596607 195.052877 
L 337.682408 189.956161 
L 338.768209 191.325548 
L 339.85401 191.510427 
L 340.939811 187.477903 
L 342.025613 184.28499 
L 343.111414 184.281155 
L 344.197215 187.167818 
L 345.283016 183.73481 
L 346.368817 184.090491 
L 347.454618 188.714123 
L 348.54042 187.856891 
L 349.626221 188.055019 
L 350.712022 186.12455 
L 351.797823 187.749377 
L 352.883624 190.089077 
L 353.969425 187.170449 
L 355.055227 189.063282 
L 356.141028 187.603572 
L 357.226829 189.557115 
L 358.31263 183.635766 
L 359.398431 185.614721 
L 360.484232 186.668361 
L 361.570033 185.60947 
L 362.655835 184.305632 
L 363.741636 192.352069 
L 364.827437 185.803399 
L 365.913238 183.523061 
L 366.999039 185.016885 
L 368.08484 187.607751 
L 369.170642 184.989011 
L 370.256443 185.657539 
L 371.342244 188.314908 
L 372.428045 187.667755 
L 373.513846 194.843651 
L 374.599647 193.962317 
L 375.685448 193.838736 
L 376.77125 192.164854 
L 377.857051 194.548805 
L 378.942852 182.180962 
L 380.028653 186.862655 
L 381.114454 187.040768 
L 382.200255 193.037782 
L 383.286057 185.265792 
L 384.371858 191.699113 
L 385.457659 184.291723 
L 386.54346 182.628219 
L 387.629261 183.947786 
L 388.715062 180.524296 
L 389.800863 182.02384 
L 390.886665 180.291925 
L 391.972466 180.892793 
L 393.058267 178.416592 
L 394.144068 184.117954 
L 395.229869 178.244684 
L 396.31567 174.294899 
L 397.401472 178.167722 
L 398.487273 174.513781 
L 398.487273 174.513781 
" style="fill:none;stroke:#008000;stroke-linecap:square;stroke-width:1.5;"/>
   </g>
   <g id="patch_7">
    <path d="M 57.6 307.584 
L 57.6 41.472 
" style="fill:none;stroke:#000000;stroke-linecap:square;stroke-linejoin:miter;stroke-width:0.8;"/>
   </g>
   <g id="patch_8">
    <path d="M 414.72 307.584 
L 414.72 41.472 
" style="fill:none;stroke:#000000;stroke-linecap:square;stroke-linejoin:miter;stroke-width:0.8;"/>
   </g>
   <g id="patch_9">
    <path d="M 57.6 307.584 
L 414.72 307.584 
" style="fill:none;stroke:#000000;stroke-linecap:square;stroke-linejoin:miter;stroke-width:0.8;"/>
   </g>
   <g id="patch_10">
    <path d="M 57.6 41.472 
L 414.72 41.472 
" style="fill:none;stroke:#000000;stroke-linecap:square;stroke-linejoin:miter;stroke-width:0.8;"/>
   </g>
   <g id="text_24">
    <!-- Message Difference and Loudness -->
    <defs>
     <path d="M 9.8125 72.90625 
L 24.515625 72.90625 
L 43.109375 23.296875 
L 61.8125 72.90625 
L 76.515625 72.90625 
L 76.515625 0 
L 66.890625 0 
L 66.890625 64.015625 
L 48.09375 14.015625 
L 38.1875 14.015625 
L 19.390625 64.015625 
L 19.390625 0 
L 9.8125 0 
z
" id="DejaVuSans-77"/>
     <path d="M 45.40625 27.984375 
Q 45.40625 37.75 41.375 43.109375 
Q 37.359375 48.484375 30.078125 48.484375 
Q 22.859375 48.484375 18.828125 43.109375 
Q 14.796875 37.75 14.796875 27.984375 
Q 14.796875 18.265625 18.828125 12.890625 
Q 22.859375 7.515625 30.078125 7.515625 
Q 37.359375 7.515625 41.375 12.890625 
Q 45.40625 18.265625 45.40625 27.984375 
z
M 54.390625 6.78125 
Q 54.390625 -7.171875 48.1875 -13.984375 
Q 42 -20.796875 29.203125 -20.796875 
Q 24.46875 -20.796875 20.265625 -20.09375 
Q 16.0625 -19.390625 12.109375 -17.921875 
L 12.109375 -9.1875 
Q 16.0625 -11.328125 19.921875 -12.34375 
Q 23.78125 -13.375 27.78125 -13.375 
Q 36.625 -13.375 41.015625 -8.765625 
Q 45.40625 -4.15625 45.40625 5.171875 
L 45.40625 9.625 
Q 42.625 4.78125 38.28125 2.390625 
Q 33.9375 0 27.875 0 
Q 17.828125 0 11.671875 7.65625 
Q 5.515625 15.328125 5.515625 27.984375 
Q 5.515625 40.671875 11.671875 48.328125 
Q 17.828125 56 27.875 56 
Q 33.9375 56 38.28125 53.609375 
Q 42.625 51.21875 45.40625 46.390625 
L 45.40625 54.6875 
L 54.390625 54.6875 
z
" id="DejaVuSans-103"/>
     <path id="DejaVuSans-32"/>
     <path d="M 37.109375 75.984375 
L 37.109375 68.5 
L 28.515625 68.5 
Q 23.6875 68.5 21.796875 66.546875 
Q 19.921875 64.59375 19.921875 59.515625 
L 19.921875 54.6875 
L 34.71875 54.6875 
L 34.71875 47.703125 
L 19.921875 47.703125 
L 19.921875 0 
L 10.890625 0 
L 10.890625 47.703125 
L 2.296875 47.703125 
L 2.296875 54.6875 
L 10.890625 54.6875 
L 10.890625 58.5 
Q 10.890625 67.625 15.140625 71.796875 
Q 19.390625 75.984375 28.609375 75.984375 
z
" id="DejaVuSans-102"/>
     <path d="M 41.109375 46.296875 
Q 39.59375 47.171875 37.8125 47.578125 
Q 36.03125 48 33.890625 48 
Q 26.265625 48 22.1875 43.046875 
Q 18.109375 38.09375 18.109375 28.8125 
L 18.109375 0 
L 9.078125 0 
L 9.078125 54.6875 
L 18.109375 54.6875 
L 18.109375 46.1875 
Q 20.953125 51.171875 25.484375 53.578125 
Q 30.03125 56 36.53125 56 
Q 37.453125 56 38.578125 55.875 
Q 39.703125 55.765625 41.0625 55.515625 
z
" id="DejaVuSans-114"/>
    </defs>
    <g transform="translate(133.329375 35.472)scale(0.12 -0.12)">
     <use xlink:href="#DejaVuSans-77"/>
     <use x="86.279297" xlink:href="#DejaVuSans-101"/>
     <use x="147.802734" xlink:href="#DejaVuSans-115"/>
     <use x="199.902344" xlink:href="#DejaVuSans-115"/>
     <use x="252.001953" xlink:href="#DejaVuSans-97"/>
     <use x="313.28125" xlink:href="#DejaVuSans-103"/>
     <use x="376.757812" xlink:href="#DejaVuSans-101"/>
     <use x="438.28125" xlink:href="#DejaVuSans-32"/>
     <use x="470.068359" xlink:href="#DejaVuSans-68"/>
     <use x="547.070312" xlink:href="#DejaVuSans-105"/>
     <use x="574.853516" xlink:href="#DejaVuSans-102"/>
     <use x="610.058594" xlink:href="#DejaVuSans-102"/>
     <use x="645.263672" xlink:href="#DejaVuSans-101"/>
     <use x="706.787109" xlink:href="#DejaVuSans-114"/>
     <use x="747.869141" xlink:href="#DejaVuSans-101"/>
     <use x="809.392578" xlink:href="#DejaVuSans-110"/>
     <use x="872.771484" xlink:href="#DejaVuSans-99"/>
     <use x="927.751953" xlink:href="#DejaVuSans-101"/>
     <use x="989.275391" xlink:href="#DejaVuSans-32"/>
     <use x="1021.0625" xlink:href="#DejaVuSans-97"/>
     <use x="1082.341797" xlink:href="#DejaVuSans-110"/>
     <use x="1145.720703" xlink:href="#DejaVuSans-100"/>
     <use x="1209.197266" xlink:href="#DejaVuSans-32"/>
     <use x="1240.984375" xlink:href="#DejaVuSans-76"/>
     <use x="1296.681641" xlink:href="#DejaVuSans-111"/>
     <use x="1357.863281" xlink:href="#DejaVuSans-117"/>
     <use x="1421.242188" xlink:href="#DejaVuSans-100"/>
     <use x="1484.71875" xlink:href="#DejaVuSans-110"/>
     <use x="1548.097656" xlink:href="#DejaVuSans-101"/>
     <use x="1609.621094" xlink:href="#DejaVuSans-115"/>
     <use x="1661.720703" xlink:href="#DejaVuSans-115"/>
    </g>
   </g>
   <g id="legend_1">
    <g id="patch_11">
     <path d="M 331.227813 64.150125 
L 407.72 64.150125 
Q 409.72 64.150125 409.72 62.150125 
L 409.72 48.472 
Q 409.72 46.472 407.72 46.472 
L 331.227813 46.472 
Q 329.227813 46.472 329.227813 48.472 
L 329.227813 62.150125 
Q 329.227813 64.150125 331.227813 64.150125 
z
" style="fill:#ffffff;opacity:0.8;stroke:#cccccc;stroke-linejoin:miter;"/>
    </g>
    <g id="line2d_30">
     <path d="M 333.227813 54.570438 
L 353.227813 54.570438 
" style="fill:none;stroke:#008000;stroke-linecap:square;stroke-width:1.5;"/>
    </g>
    <g id="line2d_31"/>
    <g id="text_25">
     <!-- loudness -->
     <defs>
      <path d="M 9.421875 75.984375 
L 18.40625 75.984375 
L 18.40625 0 
L 9.421875 0 
z
" id="DejaVuSans-108"/>
     </defs>
     <g transform="translate(361.227813 58.070438)scale(0.1 -0.1)">
      <use xlink:href="#DejaVuSans-108"/>
      <use x="27.783203" xlink:href="#DejaVuSans-111"/>
      <use x="88.964844" xlink:href="#DejaVuSans-117"/>
      <use x="152.34375" xlink:href="#DejaVuSans-100"/>
      <use x="215.820312" xlink:href="#DejaVuSans-110"/>
      <use x="279.199219" xlink:href="#DejaVuSans-101"/>
      <use x="340.722656" xlink:href="#DejaVuSans-115"/>
      <use x="392.822266" xlink:href="#DejaVuSans-115"/>
     </g>
    </g>
   </g>
  </g>
 </g>
 <defs>
  <clipPath id="pe78c592069">
   <rect height="266.112" width="357.12" x="57.6" y="41.472"/>
  </clipPath>
 </defs>
</svg>
