<?xml version="1.0" encoding="UTF-8" standalone="no"?>
<!DOCTYPE svg PUBLIC "-//W3C//DTD SVG 1.1//EN"
 "http://www.w3.org/Graphics/SVG/1.1/DTD/svg11.dtd">
<!-- Generated by graphviz version 2.40.1 (20161225.0304)
 -->
<!-- Title: %3 Pages: 1 -->
<svg width="485pt" height="434pt"
 viewBox="0.00 0.00 484.77 434.10" xmlns="http://www.w3.org/2000/svg" xmlns:xlink="http://www.w3.org/1999/xlink">
<g id="graph0" class="graph" transform="scale(1 1) rotate(0) translate(4 430.0991)">
<title>%3</title>
<polygon fill="#ffffff" stroke="transparent" points="-4,4 -4,-430.0991 480.7661,-430.0991 480.7661,4 -4,4"/>
<!-- 0 -->
<g id="node1" class="node">
<title>0</title>
<polygon fill="#d3d3d3" stroke="#000000" points="155.389,-426.0991 135.3771,-426.0991 135.3771,-409.0991 155.389,-409.0991 155.389,-426.0991"/>
<text text-anchor="middle" x="145.383" y="-414.8991" font-family="Times,serif" font-size="9.00" fill="#000000">0</text>
</g>
<!-- 1 -->
<g id="node2" class="node">
<title>1</title>
<polygon fill="#d3d3d3" stroke="#000000" points="250.389,-426.0991 230.3771,-426.0991 230.3771,-409.0991 250.389,-409.0991 250.389,-426.0991"/>
<text text-anchor="middle" x="240.383" y="-414.8991" font-family="Times,serif" font-size="9.00" fill="#000000">1</text>
</g>
<!-- 0&#45;&gt;1 -->
<!-- E3 -->
<g id="node7" class="node">
<title>E3</title>
<ellipse fill="#add8e6" stroke="#000000" cx="183.383" cy="-18.383" rx="18.2668" ry="18.2668"/>
<text text-anchor="middle" x="183.383" y="-15.683" font-family="Times,serif" font-size="9.00" fill="#000000">E3</text>
</g>
<!-- 0&#45;&gt;E3 -->
<g id="edge13" class="edge">
<title>0&#45;&gt;E3</title>
<path fill="none" stroke="#00ff00" stroke-width="1.4164" d="M149.1656,-408.8443C158.7772,-385.7753 183.383,-321.2252 183.383,-264.9743 183.383,-264.9743 183.383,-264.9743 183.383,-180.891 183.383,-133.9976 183.383,-79.4927 183.383,-47.0274"/>
<polygon fill="#00ff00" stroke="#00ff00" stroke-width="1.4164" points="186.8831,-46.9052 183.383,-36.9052 179.8831,-46.9053 186.8831,-46.9052"/>
</g>
<!-- 5427 -->
<g id="node13" class="node">
<title>5427</title>
<ellipse fill="#ffffff" stroke="#000000" cx="131.383" cy="-180.891" rx="24.0833" ry="24.0833"/>
<text text-anchor="middle" x="131.383" y="-178.191" font-family="Times,serif" font-size="9.00" fill="#000000">5427</text>
</g>
<!-- 0&#45;&gt;5427 -->
<g id="edge18" class="edge">
<title>0&#45;&gt;5427</title>
<path fill="none" stroke="#00ff00" stroke-width=".2602" d="M144.8682,-408.8938C143.0283,-377.7855 136.7133,-271.0134 133.4192,-215.3181"/>
<polygon fill="#00ff00" stroke="#00ff00" stroke-width=".2602" points="136.9064,-214.9959 132.822,-205.22 129.9186,-215.4092 136.9064,-214.9959"/>
</g>
<!-- 5164 -->
<g id="node14" class="node">
<title>5164</title>
<ellipse fill="none" stroke="#000000" cx="60.383" cy="-96.8077" rx="24.0833" ry="24.0833"/>
<text text-anchor="middle" x="60.383" y="-94.1077" font-family="Times,serif" font-size="9.00" fill="#000000">5164</text>
</g>
<!-- 0&#45;&gt;5164 -->
<g id="edge15" class="edge">
<title>0&#45;&gt;5164</title>
<path fill="none" stroke="#00ff00" stroke-width=".1198" d="M135.345,-416.1784C114.9994,-412.743 68.8458,-402.0246 45.383,-373.0991 -15.3722,-298.1984 3.4034,-250.2641 27.383,-156.8494 30.1845,-145.9359 35.4311,-134.8781 40.9297,-125.2771"/>
<polygon fill="#00ff00" stroke="#00ff00" stroke-width=".1198" points="44.0166,-126.9365 46.2072,-116.5706 38.0305,-123.3079 44.0166,-126.9365"/>
</g>
<!-- 5297 -->
<g id="node15" class="node">
<title>5297</title>
<ellipse fill="none" stroke="#000000" cx="60.383" cy="-264.9743" rx="24.0833" ry="24.0833"/>
<text text-anchor="middle" x="60.383" y="-262.2743" font-family="Times,serif" font-size="9.00" fill="#000000">5297</text>
</g>
<!-- 0&#45;&gt;5297 -->
<g id="edge17" class="edge">
<title>0&#45;&gt;5297</title>
<path fill="none" stroke="#00ff00" stroke-width=".5742" d="M135.2067,-415.7761C116.4752,-411.8107 76.9423,-400.4597 60.383,-373.0991 46.8972,-350.8166 48.0298,-320.9257 51.8962,-298.2194"/>
<polygon fill="#00ff00" stroke="#00ff00" stroke-width=".5742" points="55.3429,-298.8307 53.8223,-288.3455 48.4724,-297.4903 55.3429,-298.8307"/>
</g>
<!-- 2 -->
<g id="node3" class="node">
<title>2</title>
<polygon fill="#d3d3d3" stroke="#000000" points="326.389,-426.0991 306.3771,-426.0991 306.3771,-409.0991 326.389,-409.0991 326.389,-426.0991"/>
<text text-anchor="middle" x="316.383" y="-414.8991" font-family="Times,serif" font-size="9.00" fill="#000000">2</text>
</g>
<!-- 1&#45;&gt;2 -->
<!-- E0 -->
<g id="node4" class="node">
<title>E0</title>
<ellipse fill="#add8e6" stroke="#000000" cx="18.383" cy="-18.383" rx="18.2668" ry="18.2668"/>
<text text-anchor="middle" x="18.383" y="-15.683" font-family="Times,serif" font-size="9.00" fill="#000000">E0</text>
</g>
<!-- 1&#45;&gt;E0 -->
<g id="edge11" class="edge">
<title>1&#45;&gt;E0</title>
<path fill="none" stroke="#ff0000" stroke-width="1.5259" d="M238.5613,-409.0398C233.8057,-385.9232 221.383,-320.2472 221.383,-264.9743 221.383,-264.9743 221.383,-264.9743 221.383,-180.891 221.383,-158.2194 96.3903,-71.0672 42.5642,-34.5876"/>
<polygon fill="#ff0000" stroke="#ff0000" stroke-width="1.5259" points="44.2212,-31.4833 33.975,-28.7875 40.3038,-37.2845 44.2212,-31.4833"/>
</g>
<!-- E8 -->
<g id="node12" class="node">
<title>E8</title>
<ellipse fill="#add8e6" stroke="#000000" cx="458.383" cy="-18.383" rx="18.2668" ry="18.2668"/>
<text text-anchor="middle" x="458.383" y="-15.683" font-family="Times,serif" font-size="9.00" fill="#000000">E8</text>
</g>
<!-- 1&#45;&gt;E8 -->
<g id="edge14" class="edge">
<title>1&#45;&gt;E8</title>
<path fill="none" stroke="#00ff00" stroke-width=".2738" d="M246.0568,-409.075C260.4743,-386.5628 297.383,-323.2413 297.383,-264.9743 297.383,-264.9743 297.383,-264.9743 297.383,-180.891 297.383,-142.2622 390.3492,-68.5036 434.9938,-35.3101"/>
<polygon fill="#00ff00" stroke="#00ff00" stroke-width=".2738" points="437.2634,-37.9852 443.2366,-29.2347 433.1102,-32.3504 437.2634,-37.9852"/>
</g>
<!-- E2 -->
<g id="node6" class="node">
<title>E2</title>
<ellipse fill="#add8e6" stroke="#000000" cx="128.383" cy="-18.383" rx="18.2668" ry="18.2668"/>
<text text-anchor="middle" x="128.383" y="-15.683" font-family="Times,serif" font-size="9.00" fill="#000000">E2</text>
</g>
<!-- 2&#45;&gt;E2 -->
<g id="edge16" class="edge">
<title>2&#45;&gt;E2</title>
<path fill="none" stroke="#00ff00" stroke-width=".1062" d="M310.7093,-409.075C296.2918,-386.5628 259.383,-323.2413 259.383,-264.9743 259.383,-264.9743 259.383,-264.9743 259.383,-180.891 259.383,-131.6659 266.3668,-111.0168 235.383,-72.7661 211.0966,-42.7835 190.1652,-55.409 156.383,-36.7661 155.0466,-36.0286 153.6898,-35.249 152.3309,-34.4437"/>
<polygon fill="#00ff00" stroke="#00ff00" stroke-width=".1062" points="153.8589,-31.2711 143.5257,-28.9311 150.1443,-37.2042 153.8589,-31.2711"/>
</g>
<!-- E4 -->
<g id="node8" class="node">
<title>E4</title>
<ellipse fill="#add8e6" stroke="#000000" cx="238.383" cy="-18.383" rx="18.2668" ry="18.2668"/>
<text text-anchor="middle" x="238.383" y="-15.683" font-family="Times,serif" font-size="9.00" fill="#000000">E4</text>
</g>
<!-- 2&#45;&gt;E4 -->
<g id="edge24" class="edge">
<title>2&#45;&gt;E4</title>
<path fill="none" stroke="#00ff00" stroke-width=".3877" d="M318.2048,-409.0398C322.9604,-385.9232 335.383,-320.2472 335.383,-264.9743 335.383,-264.9743 335.383,-264.9743 335.383,-180.891 335.383,-122.3261 288.3598,-66.5339 259.7939,-38.0442"/>
<polygon fill="#00ff00" stroke="#00ff00" stroke-width=".3877" points="261.8946,-35.2056 252.2808,-30.753 257.0196,-40.229 261.8946,-35.2056"/>
</g>
<!-- E7 -->
<g id="node11" class="node">
<title>E7</title>
<ellipse fill="#add8e6" stroke="#000000" cx="403.383" cy="-18.383" rx="18.2668" ry="18.2668"/>
<text text-anchor="middle" x="403.383" y="-15.683" font-family="Times,serif" font-size="9.00" fill="#000000">E7</text>
</g>
<!-- 2&#45;&gt;E7 -->
<g id="edge12" class="edge">
<title>2&#45;&gt;E7</title>
<path fill="none" stroke="#00ff00" stroke-width=".6723" d="M323.8171,-408.9915C342.213,-386.7754 388.383,-325.0347 388.383,-264.9743 388.383,-264.9743 388.383,-264.9743 388.383,-180.891 388.383,-133.7983 394.7062,-79.3528 399.1417,-46.9539"/>
<polygon fill="#00ff00" stroke="#00ff00" stroke-width=".6723" points="402.6352,-47.244 400.5617,-36.854 395.7034,-46.2693 402.6352,-47.244"/>
</g>
<!-- E1 -->
<g id="node5" class="node">
<title>E1</title>
<ellipse fill="#add8e6" stroke="#000000" cx="73.383" cy="-18.383" rx="18.2668" ry="18.2668"/>
<text text-anchor="middle" x="73.383" y="-15.683" font-family="Times,serif" font-size="9.00" fill="#000000">E1</text>
</g>
<!-- E0&#45;&gt;E1 -->
<!-- E1&#45;&gt;E2 -->
<!-- E2&#45;&gt;E3 -->
<!-- E3&#45;&gt;E4 -->
<!-- E5 -->
<g id="node9" class="node">
<title>E5</title>
<ellipse fill="#add8e6" stroke="#000000" cx="293.383" cy="-18.383" rx="18.2668" ry="18.2668"/>
<text text-anchor="middle" x="293.383" y="-15.683" font-family="Times,serif" font-size="9.00" fill="#000000">E5</text>
</g>
<!-- E4&#45;&gt;E5 -->
<!-- E6 -->
<g id="node10" class="node">
<title>E6</title>
<ellipse fill="#add8e6" stroke="#000000" cx="348.383" cy="-18.383" rx="18.2668" ry="18.2668"/>
<text text-anchor="middle" x="348.383" y="-15.683" font-family="Times,serif" font-size="9.00" fill="#000000">E6</text>
</g>
<!-- E5&#45;&gt;E6 -->
<!-- E6&#45;&gt;E7 -->
<!-- E7&#45;&gt;E8 -->
<!-- 5427&#45;&gt;E3 -->
<g id="edge20" class="edge">
<title>5427&#45;&gt;E3</title>
<path fill="none" stroke="#00ff00" stroke-width=".1754" d="M138.7231,-157.9522C148.1301,-128.5539 164.4251,-77.6296 174.5155,-46.0955"/>
<polygon fill="#00ff00" stroke="#00ff00" stroke-width=".1754" points="177.9665,-46.7948 177.6807,-36.2038 171.2995,-44.6614 177.9665,-46.7948"/>
</g>
<!-- 5427&#45;&gt;5164 -->
<g id="edge19" class="edge">
<title>5427&#45;&gt;5164</title>
<path fill="none" stroke="#00ff00" stroke-width=".1785" d="M115.6258,-162.2302C105.9741,-150.7999 93.4676,-135.9888 82.7957,-123.3504"/>
<polygon fill="#00ff00" stroke="#00ff00" stroke-width=".1785" points="85.222,-120.7988 76.0962,-115.4164 79.8737,-125.3149 85.222,-120.7988"/>
</g>
<!-- 5490 -->
<g id="node17" class="node">
<title>5490</title>
<ellipse fill="none" stroke="#000000" cx="60.383" cy="-180.891" rx="24.0833" ry="24.0833"/>
<text text-anchor="middle" x="60.383" y="-178.191" font-family="Times,serif" font-size="9.00" fill="#000000">5490</text>
</g>
<!-- 5297&#45;&gt;5490 -->
<g id="edge22" class="edge">
<title>5297&#45;&gt;5490</title>
<path fill="none" stroke="#00ff00" stroke-width=".1092" d="M60.383,-240.6539C60.383,-232.7231 60.383,-223.7624 60.383,-215.2386"/>
<polygon fill="#00ff00" stroke="#00ff00" stroke-width=".1092" points="63.8831,-215.1567 60.383,-205.1567 56.8831,-215.1567 63.8831,-215.1567"/>
</g>
<!-- 5465 -->
<g id="node16" class="node">
<title>5465</title>
<ellipse fill="none" stroke="#000000" cx="93.383" cy="-349.0575" rx="24.0833" ry="24.0833"/>
<text text-anchor="middle" x="93.383" y="-346.3575" font-family="Times,serif" font-size="9.00" fill="#000000">5465</text>
</g>
<!-- 5465&#45;&gt;5297 -->
<g id="edge21" class="edge">
<title>5465&#45;&gt;5297</title>
<path fill="none" stroke="#00ff00" stroke-width=".1296" d="M84.5397,-326.5247C80.9886,-317.4767 76.8296,-306.8796 72.9729,-297.053"/>
<polygon fill="#00ff00" stroke="#00ff00" stroke-width=".1296" points="76.1624,-295.5993 69.2509,-287.5692 69.6462,-298.1567 76.1624,-295.5993"/>
</g>
<!-- 5490&#45;&gt;5164 -->
<g id="edge23" class="edge">
<title>5490&#45;&gt;5164</title>
<path fill="none" stroke="#00ff00" stroke-width=".2715" d="M60.383,-156.5706C60.383,-148.6398 60.383,-139.6791 60.383,-131.1553"/>
<polygon fill="#00ff00" stroke="#00ff00" stroke-width=".2715" points="63.8831,-131.0734 60.383,-121.0734 56.8831,-131.0735 63.8831,-131.0734"/>
</g>
</g>
</svg>
