<?xml version="1.0" encoding="UTF-8" standalone="no"?>
<!DOCTYPE svg PUBLIC "-//W3C//DTD SVG 1.1//EN"
 "http://www.w3.org/Graphics/SVG/1.1/DTD/svg11.dtd">
<!-- Generated by graphviz version 2.40.1 (20161225.0304)
 -->
<!-- Title: %3 Pages: 1 -->
<svg width="524pt" height="182pt"
 viewBox="0.00 0.00 523.85 181.85" xmlns="http://www.w3.org/2000/svg" xmlns:xlink="http://www.w3.org/1999/xlink">
<g id="graph0" class="graph" transform="scale(1 1) rotate(0) translate(4 177.8494)">
<title>%3</title>
<polygon fill="#ffffff" stroke="transparent" points="-4,4 -4,-177.8494 519.8549,-177.8494 519.8549,4 -4,4"/>
<!-- 0 -->
<g id="node1" class="node">
<title>0</title>
<polygon fill="#d3d3d3" stroke="#000000" points="106.4778,-173.8494 86.4659,-173.8494 86.4659,-156.8494 106.4778,-156.8494 106.4778,-173.8494"/>
<text text-anchor="middle" x="96.4719" y="-162.6494" font-family="Times,serif" font-size="9.00" fill="#000000">0</text>
</g>
<!-- 1 -->
<g id="node2" class="node">
<title>1</title>
<polygon fill="#d3d3d3" stroke="#000000" points="148.4778,-173.8494 128.4659,-173.8494 128.4659,-156.8494 148.4778,-156.8494 148.4778,-173.8494"/>
<text text-anchor="middle" x="138.4719" y="-162.6494" font-family="Times,serif" font-size="9.00" fill="#000000">1</text>
</g>
<!-- 0&#45;&gt;1 -->
<!-- E1 -->
<g id="node5" class="node">
<title>E1</title>
<ellipse fill="#eee8aa" stroke="#000000" cx="105.4719" cy="-18.383" rx="18.2668" ry="18.2668"/>
<text text-anchor="middle" x="105.4719" y="-15.683" font-family="Times,serif" font-size="9.00" fill="#000000">E1</text>
</g>
<!-- 0&#45;&gt;E1 -->
<g id="edge13" class="edge">
<title>0&#45;&gt;E1</title>
<path fill="none" stroke="#ff0000" stroke-width="2.0823" d="M97.0079,-156.5961C98.3021,-135.4629 101.6436,-80.8974 103.72,-46.9901"/>
<polygon fill="#ff0000" stroke="#ff0000" stroke-width="2.0823" points="107.2277,-46.971 104.3455,-36.7757 100.2408,-46.543 107.2277,-46.971"/>
</g>
<!-- 2 -->
<g id="node3" class="node">
<title>2</title>
<polygon fill="#d3d3d3" stroke="#000000" points="425.4778,-173.8494 405.4659,-173.8494 405.4659,-156.8494 425.4778,-156.8494 425.4778,-173.8494"/>
<text text-anchor="middle" x="415.4719" y="-162.6494" font-family="Times,serif" font-size="9.00" fill="#000000">2</text>
</g>
<!-- 1&#45;&gt;2 -->
<!-- E0 -->
<g id="node4" class="node">
<title>E0</title>
<ellipse fill="#ffa07a" stroke="#000000" cx="44.4719" cy="-18.383" rx="18.2668" ry="18.2668"/>
<text text-anchor="middle" x="44.4719" y="-15.683" font-family="Times,serif" font-size="9.00" fill="#000000">E0</text>
</g>
<!-- 1&#45;&gt;E0 -->
<g id="edge14" class="edge">
<title>1&#45;&gt;E0</title>
<path fill="none" stroke="#00ff00" stroke-width=".5215" d="M128.1931,-161.4702C124.2279,-159.9949 119.6489,-158.3169 115.4719,-156.8494 67.7361,-140.0775 37.0561,-161.8953 7.4719,-120.8494 -10.2967,-96.1967 8.8135,-62.1265 25.5096,-40.1711"/>
<polygon fill="#00ff00" stroke="#00ff00" stroke-width=".5215" points="28.4347,-42.1171 31.939,-32.1186 22.9644,-37.7495 28.4347,-42.1171"/>
</g>
<!-- E5 -->
<g id="node9" class="node">
<title>E5</title>
<ellipse fill="#ffa07a" stroke="#000000" cx="328.4719" cy="-18.383" rx="18.2668" ry="18.2668"/>
<text text-anchor="middle" x="328.4719" y="-15.683" font-family="Times,serif" font-size="9.00" fill="#000000">E5</text>
</g>
<!-- 1&#45;&gt;E5 -->
<g id="edge11" class="edge">
<title>1&#45;&gt;E5</title>
<path fill="none" stroke="#00ff00" stroke-width="4.657" d="M148.4961,-164.1478C181.6608,-159.9673 286.9989,-144.9833 309.4719,-120.8494 327.7794,-101.1888 331.2416,-69.8634 330.9205,-47.0191"/>
<polygon fill="#00ff00" stroke="#00ff00" stroke-width="4.657" points="334.9868,-46.718 330.5272,-36.8836 326.8432,-47.0341 334.9868,-46.718"/>
</g>
<!-- 5224 -->
<g id="node16" class="node">
<title>5224</title>
<ellipse fill="#add8e6" stroke="#000000" cx="144.4719" cy="-96.8077" rx="24.0833" ry="24.0833"/>
<text text-anchor="middle" x="144.4719" y="-98.6077" font-family="Times,serif" font-size="9.00" fill="#000000">5224</text>
<text text-anchor="middle" x="144.4719" y="-89.6077" font-family="Times,serif" font-size="9.00" fill="#000000">sigm</text>
</g>
<!-- 1&#45;&gt;5224 -->
<g id="edge17" class="edge">
<title>1&#45;&gt;5224</title>
<path fill="none" stroke="#00ff00" stroke-width=".2684" d="M139.2318,-156.6685C139.8061,-150.1079 140.6349,-140.6404 141.4644,-131.1641"/>
<polygon fill="#00ff00" stroke="#00ff00" stroke-width=".2684" points="144.9673,-131.2823 142.3528,-121.0151 137.994,-130.6718 144.9673,-131.2823"/>
</g>
<!-- 5233 -->
<g id="node17" class="node">
<title>5233</title>
<ellipse fill="#add8e6" stroke="#000000" cx="40.4719" cy="-96.8077" rx="24.0833" ry="24.0833"/>
<text text-anchor="middle" x="40.4719" y="-98.6077" font-family="Times,serif" font-size="9.00" fill="#000000">5233</text>
<text text-anchor="middle" x="40.4719" y="-89.6077" font-family="Times,serif" font-size="9.00" fill="#000000">sigm</text>
</g>
<!-- 1&#45;&gt;5233 -->
<g id="edge19" class="edge">
<title>1&#45;&gt;5233</title>
<path fill="none" stroke="#ff0000" stroke-width=".2941" d="M128.3533,-158.2724C114.4657,-148.5593 88.9486,-130.7126 68.9747,-116.7427"/>
<polygon fill="#ff0000" stroke="#ff0000" stroke-width=".2941" points="70.7278,-113.6978 60.5272,-110.8345 66.7158,-119.434 70.7278,-113.6978"/>
</g>
<!-- E8 -->
<g id="node12" class="node">
<title>E8</title>
<ellipse fill="#87cefa" stroke="#000000" cx="497.4719" cy="-18.383" rx="18.2668" ry="18.2668"/>
<text text-anchor="middle" x="497.4719" y="-15.683" font-family="Times,serif" font-size="9.00" fill="#000000">E8</text>
</g>
<!-- 2&#45;&gt;E8 -->
<g id="edge12" class="edge">
<title>2&#45;&gt;E8</title>
<path fill="none" stroke="#ff0000" stroke-width="1.4674" d="M425.9405,-161.4627C440.9192,-155.314 468.1274,-141.8422 481.4719,-120.8494 495.436,-98.8816 498.7308,-69.0461 498.9535,-47.2356"/>
<polygon fill="#ff0000" stroke="#ff0000" stroke-width="1.4674" points="502.4502,-46.9055 498.8399,-36.9448 495.4506,-46.9828 502.4502,-46.9055"/>
</g>
<!-- 5381 -->
<g id="node13" class="node">
<title>5381</title>
<ellipse fill="#add8e6" stroke="#000000" cx="382.4719" cy="-96.8077" rx="24.0833" ry="24.0833"/>
<text text-anchor="middle" x="382.4719" y="-98.6077" font-family="Times,serif" font-size="9.00" fill="#000000">5381</text>
<text text-anchor="middle" x="382.4719" y="-89.6077" font-family="Times,serif" font-size="9.00" fill="#000000">sigm</text>
</g>
<!-- 2&#45;&gt;5381 -->
<g id="edge22" class="edge">
<title>2&#45;&gt;5381</title>
<path fill="none" stroke="#ff0000" stroke-width=".1852" d="M411.2924,-156.6685C407.7511,-149.3131 402.4506,-138.3039 397.3573,-127.7251"/>
<polygon fill="#ff0000" stroke="#ff0000" stroke-width=".1852" points="400.4757,-126.1337 392.9842,-118.6419 394.1687,-129.1703 400.4757,-126.1337"/>
</g>
<!-- 4580 -->
<g id="node18" class="node">
<title>4580</title>
<ellipse fill="none" stroke="#000000" cx="448.4719" cy="-96.8077" rx="24.0833" ry="24.0833"/>
<text text-anchor="middle" x="448.4719" y="-94.1077" font-family="Times,serif" font-size="9.00" fill="#000000">4580</text>
</g>
<!-- 2&#45;&gt;4580 -->
<g id="edge15" class="edge">
<title>2&#45;&gt;4580</title>
<path fill="none" stroke="#ff0000" stroke-width=".7523" d="M419.6514,-156.6685C423.1927,-149.3131 428.4931,-138.3039 433.5864,-127.7251"/>
<polygon fill="#ff0000" stroke="#ff0000" stroke-width=".7523" points="436.7751,-129.1703 437.9596,-118.6419 430.468,-126.1337 436.7751,-129.1703"/>
</g>
<!-- E0&#45;&gt;E1 -->
<!-- E2 -->
<g id="node6" class="node">
<title>E2</title>
<ellipse fill="#ffa07a" stroke="#000000" cx="163.4719" cy="-18.383" rx="18.2668" ry="18.2668"/>
<text text-anchor="middle" x="163.4719" y="-15.683" font-family="Times,serif" font-size="9.00" fill="#000000">E2</text>
</g>
<!-- E1&#45;&gt;E2 -->
<!-- E3 -->
<g id="node7" class="node">
<title>E3</title>
<ellipse fill="#eee8aa" stroke="#000000" cx="218.4719" cy="-18.383" rx="18.2668" ry="18.2668"/>
<text text-anchor="middle" x="218.4719" y="-15.683" font-family="Times,serif" font-size="9.00" fill="#000000">E3</text>
</g>
<!-- E2&#45;&gt;E3 -->
<!-- E4 -->
<g id="node8" class="node">
<title>E4</title>
<ellipse fill="#ffa07a" stroke="#000000" cx="273.4719" cy="-18.383" rx="18.2668" ry="18.2668"/>
<text text-anchor="middle" x="273.4719" y="-15.683" font-family="Times,serif" font-size="9.00" fill="#000000">E4</text>
</g>
<!-- E3&#45;&gt;E4 -->
<!-- E4&#45;&gt;E5 -->
<!-- E6 -->
<g id="node10" class="node">
<title>E6</title>
<ellipse fill="#eee8aa" stroke="#000000" cx="383.4719" cy="-18.383" rx="18.2668" ry="18.2668"/>
<text text-anchor="middle" x="383.4719" y="-15.683" font-family="Times,serif" font-size="9.00" fill="#000000">E6</text>
</g>
<!-- E5&#45;&gt;E6 -->
<!-- E7 -->
<g id="node11" class="node">
<title>E7</title>
<ellipse fill="#87cefa" stroke="#000000" cx="438.4719" cy="-18.383" rx="18.2668" ry="18.2668"/>
<text text-anchor="middle" x="438.4719" y="-15.683" font-family="Times,serif" font-size="9.00" fill="#000000">E7</text>
</g>
<!-- E6&#45;&gt;E7 -->
<!-- E7&#45;&gt;E8 -->
<!-- 5381&#45;&gt;E6 -->
<g id="edge25" class="edge">
<title>5381&#45;&gt;E6</title>
<path fill="none" stroke="#ff0000" stroke-width=".2597" d="M382.7828,-72.4236C382.886,-64.33 383.0018,-55.248 383.1086,-46.8729"/>
<polygon fill="#ff0000" stroke="#ff0000" stroke-width=".2597" points="386.6095,-46.814 383.2374,-36.7702 379.6101,-46.7247 386.6095,-46.814"/>
</g>
<!-- 5381&#45;&gt;E7 -->
<g id="edge23" class="edge">
<title>5381&#45;&gt;E7</title>
<path fill="none" stroke="#ff0000" stroke-width=".225" d="M396.603,-77.0179C404.1708,-66.4197 413.5469,-53.289 421.5066,-42.1419"/>
<polygon fill="#ff0000" stroke="#ff0000" stroke-width=".225" points="424.5621,-43.8858 427.5249,-33.7136 418.8653,-39.8179 424.5621,-43.8858"/>
</g>
<!-- 3816 -->
<g id="node14" class="node">
<title>3816</title>
<ellipse fill="#add8e6" stroke="#000000" cx="210.4719" cy="-96.8077" rx="24.0833" ry="24.0833"/>
<text text-anchor="middle" x="210.4719" y="-98.6077" font-family="Times,serif" font-size="9.00" fill="#000000">3816</text>
<text text-anchor="middle" x="210.4719" y="-89.6077" font-family="Times,serif" font-size="9.00" fill="#000000">sigm</text>
</g>
<!-- 3816&#45;&gt;E2 -->
<g id="edge16" class="edge">
<title>3816&#45;&gt;E2</title>
<path fill="none" stroke="#00ff00" stroke-width=".3577" d="M197.8767,-75.7914C191.8199,-65.6848 184.5212,-53.5061 178.2076,-42.9712"/>
<polygon fill="#00ff00" stroke="#00ff00" stroke-width=".3577" points="181.1116,-41.0082 172.9689,-34.2299 175.1073,-44.6066 181.1116,-41.0082"/>
</g>
<!-- 4552 -->
<g id="node15" class="node">
<title>4552</title>
<ellipse fill="#add8e6" stroke="#000000" cx="276.4719" cy="-96.8077" rx="24.0833" ry="24.0833"/>
<text text-anchor="middle" x="276.4719" y="-98.6077" font-family="Times,serif" font-size="9.00" fill="#000000">4552</text>
<text text-anchor="middle" x="276.4719" y="-89.6077" font-family="Times,serif" font-size="9.00" fill="#000000">sigm</text>
</g>
<!-- 4552&#45;&gt;E3 -->
<g id="edge24" class="edge">
<title>4552&#45;&gt;E3</title>
<path fill="none" stroke="#00ff00" stroke-width=".2201" d="M262.1348,-77.4218C254.1152,-66.5782 244.0656,-52.9895 235.6299,-41.5833"/>
<polygon fill="#00ff00" stroke="#00ff00" stroke-width=".2201" points="238.3144,-39.3268 229.5541,-33.3679 232.6863,-43.4892 238.3144,-39.3268"/>
</g>
<!-- 5224&#45;&gt;E0 -->
<g id="edge18" class="edge">
<title>5224&#45;&gt;E0</title>
<path fill="none" stroke="#00ff00" stroke-width=".1088" d="M125.1909,-81.6867C108.6076,-68.6813 84.6637,-49.9033 67.161,-36.1769"/>
<polygon fill="#00ff00" stroke="#00ff00" stroke-width=".1088" points="69.1754,-33.3087 59.1467,-29.8917 64.8556,-38.8169 69.1754,-33.3087"/>
</g>
<!-- 5224&#45;&gt;E1 -->
<g id="edge21" class="edge">
<title>5224&#45;&gt;E1</title>
<path fill="none" stroke="#00ff00" stroke-width=".5238" d="M133.6082,-74.9621C128.8258,-65.3452 123.1749,-53.9818 118.1967,-43.9712"/>
<polygon fill="#00ff00" stroke="#00ff00" stroke-width=".5238" points="121.2669,-42.2847 113.6802,-34.8892 114.9991,-45.4016 121.2669,-42.2847"/>
</g>
<!-- 5233&#45;&gt;E0 -->
<g id="edge20" class="edge">
<title>5233&#45;&gt;E0</title>
<path fill="none" stroke="#ff0000" stroke-width=".3642" d="M41.7156,-72.4236C42.1284,-64.33 42.5916,-55.248 43.0188,-46.8729"/>
<polygon fill="#ff0000" stroke="#ff0000" stroke-width=".3642" points="46.52,-46.9355 43.5341,-36.7702 39.5291,-46.5789 46.52,-46.9355"/>
</g>
</g>
</svg>
