<?xml version="1.0" encoding="UTF-8" standalone="no"?>
<!DOCTYPE svg PUBLIC "-//W3C//DTD SVG 1.1//EN"
 "http://www.w3.org/Graphics/SVG/1.1/DTD/svg11.dtd">
<!-- Generated by graphviz version 2.40.1 (20161225.0304)
 -->
<!-- Title: %3 Pages: 1 -->
<svg width="386pt" height="91pt"
 viewBox="0.00 0.00 386.00 90.71" xmlns="http://www.w3.org/2000/svg" xmlns:xlink="http://www.w3.org/1999/xlink">
<g id="graph0" class="graph" transform="scale(1 1) rotate(0) translate(4 86.7061)">
<title>%3</title>
<polygon fill="#ffffff" stroke="transparent" points="-4,4 -4,-86.7061 381.9976,-86.7061 381.9976,4 -4,4"/>
<!-- E0 -->
<g id="node1" class="node">
<title>E0</title>
<polygon fill="#d3d3d3" stroke="#000000" points="25.9963,-82.7061 .0012,-82.7061 .0012,-65.7061 25.9963,-65.7061 25.9963,-82.7061"/>
<text text-anchor="middle" x="12.9988" y="-71.5061" font-family="Times,serif" font-size="9.00" fill="#000000">E0</text>
</g>
<!-- E1 -->
<g id="node2" class="node">
<title>E1</title>
<polygon fill="#d3d3d3" stroke="#000000" points="69.9963,-82.7061 44.0012,-82.7061 44.0012,-65.7061 69.9963,-65.7061 69.9963,-82.7061"/>
<text text-anchor="middle" x="56.9988" y="-71.5061" font-family="Times,serif" font-size="9.00" fill="#000000">E1</text>
</g>
<!-- E0&#45;&gt;E1 -->
<!-- E2 -->
<g id="node3" class="node">
<title>E2</title>
<polygon fill="#d3d3d3" stroke="#000000" points="113.9963,-82.7061 88.0012,-82.7061 88.0012,-65.7061 113.9963,-65.7061 113.9963,-82.7061"/>
<text text-anchor="middle" x="100.9988" y="-71.5061" font-family="Times,serif" font-size="9.00" fill="#000000">E2</text>
</g>
<!-- E1&#45;&gt;E2 -->
<!-- 0 -->
<g id="node10" class="node">
<title>0</title>
<ellipse fill="#87cefa" stroke="#000000" cx="120.9988" cy="-14.853" rx="14.4914" ry="14.4914"/>
<text text-anchor="middle" x="120.9988" y="-12.153" font-family="Times,serif" font-size="9.00" fill="#000000">0</text>
</g>
<!-- E1&#45;&gt;0 -->
<g id="edge12" class="edge">
<title>E1&#45;&gt;0</title>
<path fill="none" stroke="#ff0000" stroke-width="2.526" d="M66.1684,-65.7022C75.6043,-56.9515 90.5663,-43.0759 102.4786,-32.0285"/>
<polygon fill="#ff0000" stroke="#ff0000" stroke-width="2.526" points="105.1807,-34.2961 110.133,-24.9299 100.4208,-29.1635 105.1807,-34.2961"/>
</g>
<!-- E3 -->
<g id="node4" class="node">
<title>E3</title>
<polygon fill="#d3d3d3" stroke="#000000" points="157.9963,-82.7061 132.0012,-82.7061 132.0012,-65.7061 157.9963,-65.7061 157.9963,-82.7061"/>
<text text-anchor="middle" x="144.9988" y="-71.5061" font-family="Times,serif" font-size="9.00" fill="#000000">E3</text>
</g>
<!-- E2&#45;&gt;E3 -->
<!-- S -->
<g id="node13" class="node">
<title>S</title>
<ellipse fill="#ffa07a" stroke="#000000" cx="293.9988" cy="-14.853" rx="14.7075" ry="14.7075"/>
<text text-anchor="middle" x="293.9988" y="-12.153" font-family="Times,serif" font-size="9.00" fill="#000000">S</text>
</g>
<!-- E2&#45;&gt;S -->
<g id="edge14" class="edge">
<title>E2&#45;&gt;S</title>
<path fill="none" stroke="#ff0000" stroke-width=".7148" d="M114.398,-68.7145C117.2155,-67.6488 120.1862,-66.5898 122.9988,-65.7061 187.1698,-45.5435 207.9709,-55.7249 269.9988,-29.7061 270.8686,-29.3412 271.7433,-28.9472 272.6173,-28.5306"/>
<polygon fill="#ff0000" stroke="#ff0000" stroke-width=".7148" points="274.6494,-31.4057 281.6943,-23.4924 271.2523,-25.2853 274.6494,-31.4057"/>
</g>
<!-- E4 -->
<g id="node5" class="node">
<title>E4</title>
<polygon fill="#d3d3d3" stroke="#000000" points="201.9963,-82.7061 176.0012,-82.7061 176.0012,-65.7061 201.9963,-65.7061 201.9963,-82.7061"/>
<text text-anchor="middle" x="188.9988" y="-71.5061" font-family="Times,serif" font-size="9.00" fill="#000000">E4</text>
</g>
<!-- E3&#45;&gt;E4 -->
<!-- E3&#45;&gt;S -->
<g id="edge16" class="edge">
<title>E3&#45;&gt;S</title>
<path fill="none" stroke="#ff0000" stroke-width="1.2167" d="M158.0015,-69.102C160.9527,-67.9659 164.0782,-66.7804 166.9988,-65.7061 212.5109,-48.9654 226.2326,-50.5898 269.9988,-29.7061 270.8501,-29.2999 271.7091,-28.8708 272.5698,-28.4245"/>
<polygon fill="#ff0000" stroke="#ff0000" stroke-width="1.2167" points="274.6556,-31.2628 281.5849,-23.2482 271.17,-25.1923 274.6556,-31.2628"/>
</g>
<!-- E5 -->
<g id="node6" class="node">
<title>E5</title>
<polygon fill="#d3d3d3" stroke="#000000" points="245.9963,-82.7061 220.0012,-82.7061 220.0012,-65.7061 245.9963,-65.7061 245.9963,-82.7061"/>
<text text-anchor="middle" x="232.9988" y="-71.5061" font-family="Times,serif" font-size="9.00" fill="#000000">E5</text>
</g>
<!-- E4&#45;&gt;E5 -->
<!-- E6 -->
<g id="node7" class="node">
<title>E6</title>
<polygon fill="#d3d3d3" stroke="#000000" points="289.9963,-82.7061 264.0012,-82.7061 264.0012,-65.7061 289.9963,-65.7061 289.9963,-82.7061"/>
<text text-anchor="middle" x="276.9988" y="-71.5061" font-family="Times,serif" font-size="9.00" fill="#000000">E6</text>
</g>
<!-- E5&#45;&gt;E6 -->
<!-- 1 -->
<g id="node11" class="node">
<title>1</title>
<ellipse fill="#ffa07a" stroke="#000000" cx="199.9988" cy="-14.853" rx="14.4914" ry="14.4914"/>
<text text-anchor="middle" x="199.9988" y="-12.153" font-family="Times,serif" font-size="9.00" fill="#000000">1</text>
</g>
<!-- E5&#45;&gt;1 -->
<g id="edge15" class="edge">
<title>E5&#45;&gt;1</title>
<path fill="none" stroke="#00ff00" stroke-width="1.451" d="M228.2707,-65.7022C224.0681,-58.1435 217.7395,-46.761 212.1347,-36.6804"/>
<polygon fill="#00ff00" stroke="#00ff00" stroke-width="1.451" points="215.1911,-34.9749 207.2727,-27.9357 209.0731,-38.3765 215.1911,-34.9749"/>
</g>
<!-- E7 -->
<g id="node8" class="node">
<title>E7</title>
<polygon fill="#d3d3d3" stroke="#000000" points="333.9963,-82.7061 308.0012,-82.7061 308.0012,-65.7061 333.9963,-65.7061 333.9963,-82.7061"/>
<text text-anchor="middle" x="320.9988" y="-71.5061" font-family="Times,serif" font-size="9.00" fill="#000000">E7</text>
</g>
<!-- E6&#45;&gt;E7 -->
<!-- E8 -->
<g id="node9" class="node">
<title>E8</title>
<polygon fill="#d3d3d3" stroke="#000000" points="377.9963,-82.7061 352.0012,-82.7061 352.0012,-65.7061 377.9963,-65.7061 377.9963,-82.7061"/>
<text text-anchor="middle" x="364.9988" y="-71.5061" font-family="Times,serif" font-size="9.00" fill="#000000">E8</text>
</g>
<!-- E7&#45;&gt;E8 -->
<!-- 2 -->
<g id="node12" class="node">
<title>2</title>
<ellipse fill="#ffa07a" stroke="#000000" cx="246.9988" cy="-14.853" rx="14.4914" ry="14.4914"/>
<text text-anchor="middle" x="246.9988" y="-12.153" font-family="Times,serif" font-size="9.00" fill="#000000">2</text>
</g>
<!-- E8&#45;&gt;2 -->
<g id="edge13" class="edge">
<title>E8&#45;&gt;2</title>
<path fill="none" stroke="#ff0000" stroke-width="1.3988" d="M351.8137,-68.7041C333.2097,-60.7905 298.3594,-45.4114 269.9988,-29.7061 269.1983,-29.2628 268.3882,-28.8022 267.5744,-28.3294"/>
<polygon fill="#ff0000" stroke="#ff0000" stroke-width="1.3988" points="269.3342,-25.3027 258.9862,-23.0293 265.658,-31.2596 269.3342,-25.3027"/>
</g>
<!-- E8&#45;&gt;S -->
<g id="edge17" class="edge">
<title>E8&#45;&gt;S</title>
<path fill="none" stroke="#ff0000" stroke-width=".4914" d="M354.8262,-65.7022C344.03,-56.677 326.7126,-42.2004 313.3114,-30.9976"/>
<polygon fill="#ff0000" stroke="#ff0000" stroke-width=".4914" points="315.4838,-28.2517 305.5667,-24.5233 310.9942,-33.6224 315.4838,-28.2517"/>
</g>
<!-- 0&#45;&gt;1 -->
<!-- 1&#45;&gt;2 -->
<!-- 2&#45;&gt;S -->
</g>
</svg>
