<?xml version="1.0" encoding="UTF-8" standalone="no"?>
<!DOCTYPE svg PUBLIC "-//W3C//DTD SVG 1.1//EN"
 "http://www.w3.org/Graphics/SVG/1.1/DTD/svg11.dtd">
<!-- Generated by graphviz version 2.40.1 (20161225.0304)
 -->
<!-- Title: %3 Pages: 1 -->
<svg width="485pt" height="182pt"
 viewBox="0.00 0.00 484.77 181.85" xmlns="http://www.w3.org/2000/svg" xmlns:xlink="http://www.w3.org/1999/xlink">
<g id="graph0" class="graph" transform="scale(1 1) rotate(0) translate(4 177.8494)">
<title>%3</title>
<polygon fill="#ffffff" stroke="transparent" points="-4,4 -4,-177.8494 480.7661,-177.8494 480.7661,4 -4,4"/>
<!-- 0 -->
<g id="node1" class="node">
<title>0</title>
<polygon fill="#d3d3d3" stroke="#000000" points="145.389,-173.8494 125.3771,-173.8494 125.3771,-156.8494 145.389,-156.8494 145.389,-173.8494"/>
<text text-anchor="middle" x="135.383" y="-162.6494" font-family="Times,serif" font-size="9.00" fill="#000000">0</text>
</g>
<!-- 1 -->
<g id="node2" class="node">
<title>1</title>
<polygon fill="#d3d3d3" stroke="#000000" points="197.389,-173.8494 177.3771,-173.8494 177.3771,-156.8494 197.389,-156.8494 197.389,-173.8494"/>
<text text-anchor="middle" x="187.383" y="-162.6494" font-family="Times,serif" font-size="9.00" fill="#000000">1</text>
</g>
<!-- 0&#45;&gt;1 -->
<!-- E2 -->
<g id="node6" class="node">
<title>E2</title>
<ellipse fill="#eee8aa" stroke="#000000" cx="128.383" cy="-18.383" rx="18.2668" ry="18.2668"/>
<text text-anchor="middle" x="128.383" y="-15.683" font-family="Times,serif" font-size="9.00" fill="#000000">E2</text>
</g>
<!-- 0&#45;&gt;E2 -->
<g id="edge12" class="edge">
<title>0&#45;&gt;E2</title>
<path fill="none" stroke="#00ff00" stroke-width="1.6838" d="M134.9661,-156.5961C133.9596,-135.4629 131.3606,-80.8974 129.7456,-46.9901"/>
<polygon fill="#00ff00" stroke="#00ff00" stroke-width="1.6838" points="133.231,-46.5978 129.2591,-36.7757 126.2389,-46.9309 133.231,-46.5978"/>
</g>
<!-- 2 -->
<g id="node3" class="node">
<title>2</title>
<polygon fill="#d3d3d3" stroke="#000000" points="249.389,-173.8494 229.3771,-173.8494 229.3771,-156.8494 249.389,-156.8494 249.389,-173.8494"/>
<text text-anchor="middle" x="239.383" y="-162.6494" font-family="Times,serif" font-size="9.00" fill="#000000">2</text>
</g>
<!-- 1&#45;&gt;2 -->
<!-- E0 -->
<g id="node4" class="node">
<title>E0</title>
<ellipse fill="#87cefa" stroke="#000000" cx="18.383" cy="-18.383" rx="18.2668" ry="18.2668"/>
<text text-anchor="middle" x="18.383" y="-15.683" font-family="Times,serif" font-size="9.00" fill="#000000">E0</text>
</g>
<!-- 1&#45;&gt;E0 -->
<g id="edge15" class="edge">
<title>1&#45;&gt;E0</title>
<path fill="none" stroke="#ff0000" stroke-width=".3855" d="M177.3174,-156.5961C150.4957,-133.2713 76.8425,-69.2207 39.9845,-37.1682"/>
<polygon fill="#ff0000" stroke="#ff0000" stroke-width=".3855" points="42.1319,-34.3973 32.2893,-30.4763 37.5385,-39.6794 42.1319,-34.3973"/>
</g>
<!-- 4403 -->
<g id="node13" class="node">
<title>4403</title>
<ellipse fill="#add8e6" stroke="#000000" cx="200.383" cy="-96.8077" rx="24.0833" ry="24.0833"/>
<text text-anchor="middle" x="200.383" y="-98.6077" font-family="Times,serif" font-size="9.00" fill="#000000">4403</text>
<text text-anchor="middle" x="200.383" y="-89.6077" font-family="Times,serif" font-size="9.00" fill="#000000">sigm</text>
</g>
<!-- 1&#45;&gt;4403 -->
<g id="edge13" class="edge">
<title>1&#45;&gt;4403</title>
<path fill="none" stroke="#00ff00" stroke-width=".9839" d="M189.0295,-156.6685C190.2972,-149.9846 192.1372,-140.2836 193.9681,-130.63"/>
<polygon fill="#00ff00" stroke="#00ff00" stroke-width=".9839" points="197.4237,-131.1927 195.8485,-120.7156 190.5463,-129.8882 197.4237,-131.1927"/>
</g>
<!-- E8 -->
<g id="node12" class="node">
<title>E8</title>
<ellipse fill="#ffa07a" stroke="#000000" cx="458.383" cy="-18.383" rx="18.2668" ry="18.2668"/>
<text text-anchor="middle" x="458.383" y="-15.683" font-family="Times,serif" font-size="9.00" fill="#000000">E8</text>
</g>
<!-- 2&#45;&gt;E8 -->
<g id="edge11" class="edge">
<title>2&#45;&gt;E8</title>
<path fill="none" stroke="#00ff00" stroke-width="3.2232" d="M249.6521,-158.458C282.7011,-136.2795 386.9112,-66.3463 434.3915,-34.4833"/>
<polygon fill="#00ff00" stroke="#00ff00" stroke-width="3.2232" points="436.4773,-37.2986 442.8306,-28.82 432.5767,-31.4861 436.4773,-37.2986"/>
</g>
<!-- E1 -->
<g id="node5" class="node">
<title>E1</title>
<ellipse fill="#87cefa" stroke="#000000" cx="73.383" cy="-18.383" rx="18.2668" ry="18.2668"/>
<text text-anchor="middle" x="73.383" y="-15.683" font-family="Times,serif" font-size="9.00" fill="#000000">E1</text>
</g>
<!-- E0&#45;&gt;E1 -->
<!-- E1&#45;&gt;E2 -->
<!-- E3 -->
<g id="node7" class="node">
<title>E3</title>
<ellipse fill="#ffa07a" stroke="#000000" cx="183.383" cy="-18.383" rx="18.2668" ry="18.2668"/>
<text text-anchor="middle" x="183.383" y="-15.683" font-family="Times,serif" font-size="9.00" fill="#000000">E3</text>
</g>
<!-- E2&#45;&gt;E3 -->
<!-- E4 -->
<g id="node8" class="node">
<title>E4</title>
<ellipse fill="#ffa07a" stroke="#000000" cx="238.383" cy="-18.383" rx="18.2668" ry="18.2668"/>
<text text-anchor="middle" x="238.383" y="-15.683" font-family="Times,serif" font-size="9.00" fill="#000000">E4</text>
</g>
<!-- E3&#45;&gt;E4 -->
<!-- E5 -->
<g id="node9" class="node">
<title>E5</title>
<ellipse fill="#ffa07a" stroke="#000000" cx="293.383" cy="-18.383" rx="18.2668" ry="18.2668"/>
<text text-anchor="middle" x="293.383" y="-15.683" font-family="Times,serif" font-size="9.00" fill="#000000">E5</text>
</g>
<!-- E4&#45;&gt;E5 -->
<!-- E6 -->
<g id="node10" class="node">
<title>E6</title>
<ellipse fill="#eee8aa" stroke="#000000" cx="348.383" cy="-18.383" rx="18.2668" ry="18.2668"/>
<text text-anchor="middle" x="348.383" y="-15.683" font-family="Times,serif" font-size="9.00" fill="#000000">E6</text>
</g>
<!-- E5&#45;&gt;E6 -->
<!-- E7 -->
<g id="node11" class="node">
<title>E7</title>
<ellipse fill="#87cefa" stroke="#000000" cx="403.383" cy="-18.383" rx="18.2668" ry="18.2668"/>
<text text-anchor="middle" x="403.383" y="-15.683" font-family="Times,serif" font-size="9.00" fill="#000000">E7</text>
</g>
<!-- E6&#45;&gt;E7 -->
<!-- E7&#45;&gt;E8 -->
<!-- 4403&#45;&gt;E3 -->
<g id="edge14" class="edge">
<title>4403&#45;&gt;E3</title>
<path fill="none" stroke="#00ff00" stroke-width="2.9929" d="M195.2825,-73.2777C193.4408,-64.7814 191.3441,-55.1091 189.4292,-46.2751"/>
<polygon fill="#00ff00" stroke="#00ff00" stroke-width="2.9929" points="192.83,-45.4422 187.2909,-36.4106 185.9889,-46.9251 192.83,-45.4422"/>
</g>
</g>
</svg>
