<?xml version="1.0" encoding="UTF-8" standalone="no"?>
<!DOCTYPE svg PUBLIC "-//W3C//DTD SVG 1.1//EN"
 "http://www.w3.org/Graphics/SVG/1.1/DTD/svg11.dtd">
<!-- Generated by graphviz version 2.40.1 (20161225.0304)
 -->
<!-- Title: %3 Pages: 1 -->
<svg width="420pt" height="175pt"
 viewBox="0.00 0.00 420.00 174.79" xmlns="http://www.w3.org/2000/svg" xmlns:xlink="http://www.w3.org/1999/xlink">
<g id="graph0" class="graph" transform="scale(1 1) rotate(0) translate(4 170.7893)">
<title>%3</title>
<polygon fill="#ffffff" stroke="transparent" points="-4,4 -4,-170.7893 415.9976,-170.7893 415.9976,4 -4,4"/>
<!-- E0 -->
<g id="node1" class="node">
<title>E0</title>
<polygon fill="#d3d3d3" stroke="#000000" points="25.9963,-166.7893 .0012,-166.7893 .0012,-149.7893 25.9963,-149.7893 25.9963,-166.7893"/>
<text text-anchor="middle" x="12.9988" y="-155.5893" font-family="Times,serif" font-size="9.00" fill="#000000">E0</text>
</g>
<!-- E1 -->
<g id="node2" class="node">
<title>E1</title>
<polygon fill="#d3d3d3" stroke="#000000" points="79.9963,-166.7893 54.0012,-166.7893 54.0012,-149.7893 79.9963,-149.7893 79.9963,-166.7893"/>
<text text-anchor="middle" x="66.9988" y="-155.5893" font-family="Times,serif" font-size="9.00" fill="#000000">E1</text>
</g>
<!-- E0&#45;&gt;E1 -->
<!-- 1 -->
<g id="node11" class="node">
<title>1</title>
<ellipse fill="#87cefa" stroke="#000000" cx="104.9988" cy="-14.853" rx="14.4914" ry="14.4914"/>
<text text-anchor="middle" x="104.9988" y="-12.153" font-family="Times,serif" font-size="9.00" fill="#000000">1</text>
</g>
<!-- E0&#45;&gt;1 -->
<g id="edge24" class="edge">
<title>E0&#45;&gt;1</title>
<path fill="none" stroke="#00ff00" stroke-width=".1141" d="M17.0142,-149.5408C24.8858,-132.7206 43.3026,-94.9481 62.9988,-65.7061 70.618,-54.3942 80.2392,-42.6 88.3502,-33.221"/>
<polygon fill="#00ff00" stroke="#00ff00" stroke-width=".1141" points="91.0156,-35.4902 95.0009,-25.6735 85.7636,-30.8623 91.0156,-35.4902"/>
</g>
<!-- E2 -->
<g id="node3" class="node">
<title>E2</title>
<polygon fill="#d3d3d3" stroke="#000000" points="128.9963,-166.7893 103.0012,-166.7893 103.0012,-149.7893 128.9963,-149.7893 128.9963,-166.7893"/>
<text text-anchor="middle" x="115.9988" y="-155.5893" font-family="Times,serif" font-size="9.00" fill="#000000">E2</text>
</g>
<!-- E1&#45;&gt;E2 -->
<!-- 0 -->
<g id="node10" class="node">
<title>0</title>
<ellipse fill="#87cefa" stroke="#000000" cx="38.9988" cy="-14.853" rx="14.4914" ry="14.4914"/>
<text text-anchor="middle" x="38.9988" y="-12.153" font-family="Times,serif" font-size="9.00" fill="#000000">0</text>
</g>
<!-- E1&#45;&gt;0 -->
<g id="edge17" class="edge">
<title>E1&#45;&gt;0</title>
<path fill="none" stroke="#00ff00" stroke-width=".1235" d="M54.7883,-149.6535C44.6505,-141.6697 30.962,-128.7953 24.9988,-113.7893 15.1339,-88.9651 22.2018,-58.2089 29.4014,-37.6385"/>
<polygon fill="#00ff00" stroke="#00ff00" stroke-width=".1235" points="32.7213,-38.754 32.9808,-28.1623 26.1729,-36.2804 32.7213,-38.754"/>
</g>
<!-- 2 -->
<g id="node12" class="node">
<title>2</title>
<ellipse fill="#eee8aa" stroke="#000000" cx="161.9988" cy="-14.853" rx="14.4914" ry="14.4914"/>
<text text-anchor="middle" x="161.9988" y="-12.153" font-family="Times,serif" font-size="9.00" fill="#000000">2</text>
</g>
<!-- E1&#45;&gt;2 -->
<g id="edge18" class="edge">
<title>E1&#45;&gt;2</title>
<path fill="none" stroke="#00ff00" stroke-width=".1237" d="M72.657,-149.7463C87.3448,-127.5698 127.0156,-67.6726 148.2098,-35.6724"/>
<polygon fill="#00ff00" stroke="#00ff00" stroke-width=".1237" points="151.3004,-37.3445 153.9043,-27.0746 145.4643,-33.4792 151.3004,-37.3445"/>
</g>
<!-- E3 -->
<g id="node4" class="node">
<title>E3</title>
<polygon fill="#d3d3d3" stroke="#000000" points="174.9963,-166.7893 149.0012,-166.7893 149.0012,-149.7893 174.9963,-149.7893 174.9963,-166.7893"/>
<text text-anchor="middle" x="161.9988" y="-155.5893" font-family="Times,serif" font-size="9.00" fill="#000000">E3</text>
</g>
<!-- E2&#45;&gt;E3 -->
<!-- E2&#45;&gt;0 -->
<g id="edge16" class="edge">
<title>E2&#45;&gt;0</title>
<path fill="none" stroke="#00ff00" stroke-width=".3521" d="M111.4127,-149.7463C99.6763,-127.8836 68.2595,-69.3602 50.9133,-37.0474"/>
<polygon fill="#00ff00" stroke="#00ff00" stroke-width=".3521" points="53.8327,-35.0857 46.019,-27.9304 47.6651,-38.3966 53.8327,-35.0857"/>
</g>
<!-- S -->
<g id="node13" class="node">
<title>S</title>
<ellipse fill="#ffa07a" stroke="#000000" cx="208.9988" cy="-14.853" rx="14.7075" ry="14.7075"/>
<text text-anchor="middle" x="208.9988" y="-12.153" font-family="Times,serif" font-size="9.00" fill="#000000">S</text>
</g>
<!-- E2&#45;&gt;S -->
<g id="edge12" class="edge">
<title>E2&#45;&gt;S</title>
<path fill="none" stroke="#00ff00" stroke-width="3.2163" d="M121.5378,-149.7463C135.8453,-127.6796 174.3682,-68.2647 195.1906,-36.1497"/>
<polygon fill="#00ff00" stroke="#00ff00" stroke-width="3.2163" points="198.2956,-37.7943 200.7992,-27.4995 192.4221,-33.9861 198.2956,-37.7943"/>
</g>
<!-- E4 -->
<g id="node5" class="node">
<title>E4</title>
<polygon fill="#d3d3d3" stroke="#000000" points="235.9963,-166.7893 210.0012,-166.7893 210.0012,-149.7893 235.9963,-149.7893 235.9963,-166.7893"/>
<text text-anchor="middle" x="222.9988" y="-155.5893" font-family="Times,serif" font-size="9.00" fill="#000000">E4</text>
</g>
<!-- E3&#45;&gt;E4 -->
<!-- E3&#45;&gt;1 -->
<g id="edge13" class="edge">
<title>E3&#45;&gt;1</title>
<path fill="none" stroke="#00ff00" stroke-width=".2315" d="M158.6039,-149.7463C149.9966,-128.0867 127.0901,-70.4443 114.1791,-37.9546"/>
<polygon fill="#00ff00" stroke="#00ff00" stroke-width=".2315" points="117.3148,-36.3679 110.3692,-28.3674 110.8097,-38.953 117.3148,-36.3679"/>
</g>
<!-- E3&#45;&gt;2 -->
<g id="edge19" class="edge">
<title>E3&#45;&gt;2</title>
<path fill="none" stroke="#ff0000" stroke-width=".6087" d="M161.9988,-149.7463C161.9988,-128.5056 161.9988,-72.6603 161.9988,-39.8674"/>
<polygon fill="#ff0000" stroke="#ff0000" stroke-width=".6087" points="165.4989,-39.7133 161.9988,-29.7133 158.4989,-39.7133 165.4989,-39.7133"/>
</g>
<!-- E3&#45;&gt;S -->
<g id="edge14" class="edge">
<title>E3&#45;&gt;S</title>
<path fill="none" stroke="#00ff00" stroke-width="2.0117" d="M174.342,-149.657C184.6199,-141.6754 198.5746,-128.8023 204.9988,-113.7893 215.0881,-90.2113 214.7765,-60.514 212.76,-39.837"/>
<polygon fill="#00ff00" stroke="#00ff00" stroke-width="2.0117" points="216.2059,-39.1715 211.5581,-29.6506 209.2541,-39.9919 216.2059,-39.1715"/>
</g>
<!-- 4854 -->
<g id="node14" class="node">
<title>4854</title>
<ellipse fill="none" stroke="#000000" cx="356.9988" cy="-89.7477" rx="24.0833" ry="24.0833"/>
<text text-anchor="middle" x="356.9988" y="-87.0477" font-family="Times,serif" font-size="9.00" fill="#000000">4854</text>
</g>
<!-- E3&#45;&gt;4854 -->
<g id="edge21" class="edge">
<title>E3&#45;&gt;4854</title>
<path fill="none" stroke="#00ff00" stroke-width=".6999" d="M175.0524,-155.105C207.7585,-147.0444 292.4854,-125.6342 318.9988,-113.7893 322.1595,-112.3773 325.3654,-110.7331 328.506,-108.9795"/>
<polygon fill="#00ff00" stroke="#00ff00" stroke-width=".6999" points="330.3027,-111.9832 337.0923,-103.8498 326.7125,-105.9739 330.3027,-111.9832"/>
</g>
<!-- E5 -->
<g id="node6" class="node">
<title>E5</title>
<polygon fill="#d3d3d3" stroke="#000000" points="279.9963,-166.7893 254.0012,-166.7893 254.0012,-149.7893 279.9963,-149.7893 279.9963,-166.7893"/>
<text text-anchor="middle" x="266.9988" y="-155.5893" font-family="Times,serif" font-size="9.00" fill="#000000">E5</text>
</g>
<!-- E4&#45;&gt;E5 -->
<!-- E4&#45;&gt;2 -->
<g id="edge23" class="edge">
<title>E4&#45;&gt;2</title>
<path fill="none" stroke="#00ff00" stroke-width=".4666" d="M219.3656,-149.7463C210.1543,-128.0867 185.6404,-70.4443 171.8233,-37.9546"/>
<polygon fill="#00ff00" stroke="#00ff00" stroke-width=".4666" points="174.8805,-36.2 167.7461,-28.3674 168.4389,-38.9395 174.8805,-36.2"/>
</g>
<!-- E6 -->
<g id="node7" class="node">
<title>E6</title>
<polygon fill="#d3d3d3" stroke="#000000" points="323.9963,-166.7893 298.0012,-166.7893 298.0012,-149.7893 323.9963,-149.7893 323.9963,-166.7893"/>
<text text-anchor="middle" x="310.9988" y="-155.5893" font-family="Times,serif" font-size="9.00" fill="#000000">E6</text>
</g>
<!-- E5&#45;&gt;E6 -->
<!-- E5&#45;&gt;2 -->
<g id="edge20" class="edge">
<title>E5&#45;&gt;2</title>
<path fill="none" stroke="#00ff00" stroke-width=".393" d="M262.3738,-149.7717C253.1337,-133.0327 231.3506,-94.9354 208.9988,-65.7061 200.0986,-54.0674 189.0203,-41.9848 179.855,-32.5188"/>
<polygon fill="#00ff00" stroke="#00ff00" stroke-width=".393" points="182.2067,-29.9187 172.6959,-25.25 177.2194,-34.8307 182.2067,-29.9187"/>
</g>
<!-- E7 -->
<g id="node8" class="node">
<title>E7</title>
<polygon fill="#d3d3d3" stroke="#000000" points="367.9963,-166.7893 342.0012,-166.7893 342.0012,-149.7893 367.9963,-149.7893 367.9963,-166.7893"/>
<text text-anchor="middle" x="354.9988" y="-155.5893" font-family="Times,serif" font-size="9.00" fill="#000000">E7</text>
</g>
<!-- E6&#45;&gt;E7 -->
<!-- E8 -->
<g id="node9" class="node">
<title>E8</title>
<polygon fill="#d3d3d3" stroke="#000000" points="411.9963,-166.7893 386.0012,-166.7893 386.0012,-149.7893 411.9963,-149.7893 411.9963,-166.7893"/>
<text text-anchor="middle" x="398.9988" y="-155.5893" font-family="Times,serif" font-size="9.00" fill="#000000">E8</text>
</g>
<!-- E7&#45;&gt;E8 -->
<!-- E8&#45;&gt;2 -->
<g id="edge15" class="edge">
<title>E8&#45;&gt;2</title>
<path fill="none" stroke="#00ff00" stroke-width="1.7051" d="M401.2292,-149.523C405.2912,-131.2922 411.6129,-89.0505 389.9988,-65.7061 327.1515,2.1722 271.1223,-63.4696 184.9988,-29.7061 184.1469,-29.3721 183.2931,-29.0044 182.4424,-28.6099"/>
<polygon fill="#00ff00" stroke="#00ff00" stroke-width="1.7051" points="184.113,-25.5338 173.6825,-23.6749 180.6772,-31.6326 184.113,-25.5338"/>
</g>
<!-- E8&#45;&gt;4854 -->
<g id="edge22" class="edge">
<title>E8&#45;&gt;4854</title>
<path fill="none" stroke="#ff0000" stroke-width=".7667" d="M393.6795,-149.6085C388.9419,-141.8771 381.7307,-130.1089 374.9522,-119.0467"/>
<polygon fill="#ff0000" stroke="#ff0000" stroke-width=".7667" points="377.8734,-117.1149 369.6642,-110.417 371.9048,-120.7723 377.8734,-117.1149"/>
</g>
<!-- 0&#45;&gt;1 -->
<!-- 1&#45;&gt;2 -->
<!-- 2&#45;&gt;S -->
</g>
</svg>
