<?xml version="1.0" encoding="UTF-8" standalone="no"?>
<!DOCTYPE svg PUBLIC "-//W3C//DTD SVG 1.1//EN"
 "http://www.w3.org/Graphics/SVG/1.1/DTD/svg11.dtd">
<!-- Generated by graphviz version 2.40.1 (20161225.0304)
 -->
<!-- Title: %3 Pages: 1 -->
<svg width="491pt" height="350pt"
 viewBox="0.00 0.00 490.77 350.02" xmlns="http://www.w3.org/2000/svg" xmlns:xlink="http://www.w3.org/1999/xlink">
<g id="graph0" class="graph" transform="scale(1 1) rotate(0) translate(4 346.0159)">
<title>%3</title>
<polygon fill="#ffffff" stroke="transparent" points="-4,4 -4,-346.0159 486.7661,-346.0159 486.7661,4 -4,4"/>
<!-- 0 -->
<g id="node1" class="node">
<title>0</title>
<polygon fill="#d3d3d3" stroke="#000000" points="319.389,-342.0159 299.3771,-342.0159 299.3771,-325.0159 319.389,-325.0159 319.389,-342.0159"/>
<text text-anchor="middle" x="309.383" y="-330.8159" font-family="Times,serif" font-size="9.00" fill="#000000">0</text>
</g>
<!-- 1 -->
<g id="node2" class="node">
<title>1</title>
<polygon fill="#d3d3d3" stroke="#000000" points="358.389,-342.0159 338.3771,-342.0159 338.3771,-325.0159 358.389,-325.0159 358.389,-342.0159"/>
<text text-anchor="middle" x="348.383" y="-330.8159" font-family="Times,serif" font-size="9.00" fill="#000000">1</text>
</g>
<!-- 0&#45;&gt;1 -->
<!-- E4 -->
<g id="node8" class="node">
<title>E4</title>
<ellipse fill="#87cefa" stroke="#000000" cx="238.383" cy="-18.383" rx="18.2668" ry="18.2668"/>
<text text-anchor="middle" x="238.383" y="-15.683" font-family="Times,serif" font-size="9.00" fill="#000000">E4</text>
</g>
<!-- 0&#45;&gt;E4 -->
<g id="edge23" class="edge">
<title>0&#45;&gt;E4</title>
<path fill="none" stroke="#00ff00" stroke-width=".3865" d="M305.7413,-324.8098C293.9926,-296.2306 257.0647,-202.4392 243.383,-120.8494 239.2444,-96.1689 238.1426,-67.713 237.9908,-47.061"/>
<polygon fill="#00ff00" stroke="#00ff00" stroke-width=".3865" points="241.4909,-47.0326 237.9869,-37.034 234.4909,-47.0354 241.4909,-47.0326"/>
</g>
<!-- E6 -->
<g id="node10" class="node">
<title>E6</title>
<ellipse fill="#87cefa" stroke="#000000" cx="348.383" cy="-18.383" rx="18.2668" ry="18.2668"/>
<text text-anchor="middle" x="348.383" y="-15.683" font-family="Times,serif" font-size="9.00" fill="#000000">E6</text>
</g>
<!-- 0&#45;&gt;E6 -->
<g id="edge26" class="edge">
<title>0&#45;&gt;E6</title>
<path fill="none" stroke="#00ff00" stroke-width=".4451" d="M310.4668,-324.7585C315.4648,-284.373 336.404,-115.1774 344.8393,-47.0177"/>
<polygon fill="#00ff00" stroke="#00ff00" stroke-width=".4451" points="348.3266,-47.3354 346.0814,-36.9812 341.3796,-46.4756 348.3266,-47.3354"/>
</g>
<!-- E8 -->
<g id="node12" class="node">
<title>E8</title>
<ellipse fill="#87cefa" stroke="#000000" cx="464.383" cy="-18.383" rx="18.2668" ry="18.2668"/>
<text text-anchor="middle" x="464.383" y="-15.683" font-family="Times,serif" font-size="9.00" fill="#000000">E8</text>
</g>
<!-- 0&#45;&gt;E8 -->
<g id="edge11" class="edge">
<title>0&#45;&gt;E8</title>
<path fill="none" stroke="#ff0000" stroke-width="2.0003" d="M319.4063,-328.263C346.6852,-313.332 422.1679,-267.6375 451.383,-204.9326 475.4055,-153.3728 472.6354,-85.0084 468.4941,-46.9918"/>
<polygon fill="#ff0000" stroke="#ff0000" stroke-width="2.0003" points="471.9214,-46.1766 467.2521,-36.6661 464.9715,-47.0126 471.9214,-46.1766"/>
</g>
<!-- 4909 -->
<g id="node13" class="node">
<title>4909</title>
<ellipse fill="#add8e6" stroke="#000000" cx="276.383" cy="-96.8077" rx="24.0833" ry="24.0833"/>
<text text-anchor="middle" x="276.383" y="-98.6077" font-family="Times,serif" font-size="9.00" fill="#000000">4909</text>
<text text-anchor="middle" x="276.383" y="-89.6077" font-family="Times,serif" font-size="9.00" fill="#000000">sigm</text>
</g>
<!-- 0&#45;&gt;4909 -->
<g id="edge20" class="edge">
<title>0&#45;&gt;4909</title>
<path fill="none" stroke="#ff0000" stroke-width=".229" d="M308.1694,-324.8106C303.8216,-293.6238 288.8722,-186.3918 281.1241,-130.815"/>
<polygon fill="#ff0000" stroke="#ff0000" stroke-width=".229" points="284.5678,-130.1681 279.7205,-120.7472 277.6349,-131.1347 284.5678,-130.1681"/>
</g>
<!-- 4854 -->
<g id="node16" class="node">
<title>4854</title>
<ellipse fill="#add8e6" stroke="#000000" cx="380.383" cy="-96.8077" rx="24.0833" ry="24.0833"/>
<text text-anchor="middle" x="380.383" y="-98.6077" font-family="Times,serif" font-size="9.00" fill="#000000">4854</text>
<text text-anchor="middle" x="380.383" y="-89.6077" font-family="Times,serif" font-size="9.00" fill="#000000">sigm</text>
</g>
<!-- 0&#45;&gt;4854 -->
<g id="edge17" class="edge">
<title>0&#45;&gt;4854</title>
<path fill="none" stroke="#00ff00" stroke-width=".4247" d="M317.7758,-324.7311C325.3851,-316.2598 336.311,-302.7367 342.383,-289.0159 365.4584,-236.8734 374.6073,-170.6038 378.1739,-131.0655"/>
<polygon fill="#00ff00" stroke="#00ff00" stroke-width=".4247" points="381.6788,-131.1519 379.0206,-120.8959 374.7029,-130.571 381.6788,-131.1519"/>
</g>
<!-- 2 -->
<g id="node3" class="node">
<title>2</title>
<polygon fill="#d3d3d3" stroke="#000000" points="397.389,-342.0159 377.3771,-342.0159 377.3771,-325.0159 397.389,-325.0159 397.389,-342.0159"/>
<text text-anchor="middle" x="387.383" y="-330.8159" font-family="Times,serif" font-size="9.00" fill="#000000">2</text>
</g>
<!-- 1&#45;&gt;2 -->
<!-- E1 -->
<g id="node5" class="node">
<title>E1</title>
<ellipse fill="#87cefa" stroke="#000000" cx="73.383" cy="-18.383" rx="18.2668" ry="18.2668"/>
<text text-anchor="middle" x="73.383" y="-15.683" font-family="Times,serif" font-size="9.00" fill="#000000">E1</text>
</g>
<!-- 1&#45;&gt;E1 -->
<g id="edge12" class="edge">
<title>1&#45;&gt;E1</title>
<path fill="none" stroke="#00ff00" stroke-width=".2609" d="M338.377,-328.7203C335.2343,-327.3625 331.7144,-325.9906 328.383,-325.0159 236.2372,-298.0543 188.2936,-351.4805 115.383,-289.0159 44.8258,-228.5675 57.5113,-102.72 67.4695,-46.5318"/>
<polygon fill="#00ff00" stroke="#00ff00" stroke-width=".2609" points="70.934,-47.046 69.3378,-36.5721 64.054,-45.7553 70.934,-47.046"/>
</g>
<!-- 4560 -->
<g id="node14" class="node">
<title>4560</title>
<ellipse fill="#add8e6" stroke="#000000" cx="418.383" cy="-180.891" rx="24.0833" ry="24.0833"/>
<text text-anchor="middle" x="418.383" y="-182.691" font-family="Times,serif" font-size="9.00" fill="#000000">4560</text>
<text text-anchor="middle" x="418.383" y="-173.691" font-family="Times,serif" font-size="9.00" fill="#000000">sigm</text>
</g>
<!-- 1&#45;&gt;4560 -->
<g id="edge15" class="edge">
<title>1&#45;&gt;4560</title>
<path fill="none" stroke="#00ff00" stroke-width=".598" d="M355.8046,-324.8058C362.8709,-316.1735 373.4309,-302.347 380.383,-289.0159 392.8528,-265.1043 402.7702,-236.2045 409.3425,-214.3007"/>
<polygon fill="#00ff00" stroke="#00ff00" stroke-width=".598" points="412.7703,-215.048 412.2103,-204.468 406.0503,-213.088 412.7703,-215.048"/>
</g>
<!-- 4179 -->
<g id="node15" class="node">
<title>4179</title>
<ellipse fill="#add8e6" stroke="#000000" cx="120.383" cy="-180.891" rx="24.0833" ry="24.0833"/>
<text text-anchor="middle" x="120.383" y="-182.691" font-family="Times,serif" font-size="9.00" fill="#000000">4179</text>
<text text-anchor="middle" x="120.383" y="-173.691" font-family="Times,serif" font-size="9.00" fill="#000000">sigm</text>
</g>
<!-- 1&#45;&gt;4179 -->
<g id="edge28" class="edge">
<title>1&#45;&gt;4179</title>
<path fill="none" stroke="#ff0000" stroke-width=".6895" d="M338.3643,-328.7628C335.2211,-327.4068 331.704,-326.0252 328.383,-325.0159 246.5678,-300.1509 199.4148,-349.9108 139.383,-289.0159 120.501,-269.8623 116.6625,-238.9698 117.0201,-215.1004"/>
<polygon fill="#ff0000" stroke="#ff0000" stroke-width=".6895" points="120.5205,-215.1566 117.4193,-205.0259 113.526,-214.8794 120.5205,-215.1566"/>
</g>
<!-- 1&#45;&gt;4854 -->
<g id="edge19" class="edge">
<title>1&#45;&gt;4854</title>
<path fill="none" stroke="#ff0000" stroke-width=".1618" d="M358.6738,-326.9289C370.5073,-318.9884 390.0169,-304.7365 403.383,-289.0159 431.2563,-256.2327 440.3473,-246.5243 451.383,-204.9326 456.8637,-184.277 460.3774,-176.2347 451.383,-156.8494 442.9205,-138.6101 425.8854,-123.9059 410.6228,-113.6145"/>
<polygon fill="#ff0000" stroke="#ff0000" stroke-width=".1618" points="412.2343,-110.4914 401.9195,-108.0717 408.4741,-116.3957 412.2343,-110.4914"/>
</g>
<!-- 4054 -->
<g id="node17" class="node">
<title>4054</title>
<ellipse fill="#add8e6" stroke="#000000" cx="172.383" cy="-264.9743" rx="24.0833" ry="24.0833"/>
<text text-anchor="middle" x="172.383" y="-266.7743" font-family="Times,serif" font-size="9.00" fill="#000000">4054</text>
<text text-anchor="middle" x="172.383" y="-257.7743" font-family="Times,serif" font-size="9.00" fill="#000000">sigm</text>
</g>
<!-- 2&#45;&gt;4054 -->
<g id="edge13" class="edge">
<title>2&#45;&gt;4054</title>
<path fill="none" stroke="#00ff00" stroke-width="1.0651" d="M377.2895,-328.9867C374.1432,-327.6398 370.6433,-326.207 367.383,-325.0159 311.3379,-304.5399 244.6206,-285.0145 205.541,-274.0541"/>
<polygon fill="#00ff00" stroke="#00ff00" stroke-width="1.0651" points="206.3263,-270.6396 195.7537,-271.3264 204.447,-277.3827 206.3263,-270.6396"/>
</g>
<!-- E0 -->
<g id="node4" class="node">
<title>E0</title>
<ellipse fill="#87cefa" stroke="#000000" cx="18.383" cy="-18.383" rx="18.2668" ry="18.2668"/>
<text text-anchor="middle" x="18.383" y="-15.683" font-family="Times,serif" font-size="9.00" fill="#000000">E0</text>
</g>
<!-- E0&#45;&gt;E1 -->
<!-- E2 -->
<g id="node6" class="node">
<title>E2</title>
<ellipse fill="#87cefa" stroke="#000000" cx="128.383" cy="-18.383" rx="18.2668" ry="18.2668"/>
<text text-anchor="middle" x="128.383" y="-15.683" font-family="Times,serif" font-size="9.00" fill="#000000">E2</text>
</g>
<!-- E1&#45;&gt;E2 -->
<!-- E3 -->
<g id="node7" class="node">
<title>E3</title>
<ellipse fill="#87cefa" stroke="#000000" cx="183.383" cy="-18.383" rx="18.2668" ry="18.2668"/>
<text text-anchor="middle" x="183.383" y="-15.683" font-family="Times,serif" font-size="9.00" fill="#000000">E3</text>
</g>
<!-- E2&#45;&gt;E3 -->
<!-- E3&#45;&gt;E4 -->
<!-- E5 -->
<g id="node9" class="node">
<title>E5</title>
<ellipse fill="#87cefa" stroke="#000000" cx="293.383" cy="-18.383" rx="18.2668" ry="18.2668"/>
<text text-anchor="middle" x="293.383" y="-15.683" font-family="Times,serif" font-size="9.00" fill="#000000">E5</text>
</g>
<!-- E4&#45;&gt;E5 -->
<!-- E5&#45;&gt;E6 -->
<!-- E7 -->
<g id="node11" class="node">
<title>E7</title>
<ellipse fill="#87cefa" stroke="#000000" cx="403.383" cy="-18.383" rx="18.2668" ry="18.2668"/>
<text text-anchor="middle" x="403.383" y="-15.683" font-family="Times,serif" font-size="9.00" fill="#000000">E7</text>
</g>
<!-- E6&#45;&gt;E7 -->
<!-- E7&#45;&gt;E8 -->
<!-- 4909&#45;&gt;E0 -->
<g id="edge22" class="edge">
<title>4909&#45;&gt;E0</title>
<path fill="none" stroke="#00ff00" stroke-width=".5702" d="M253.0894,-90.5213C234.928,-85.6355 209.0673,-78.7123 186.383,-72.7661 124.2363,-56.4756 105.1417,-62.7474 46.383,-36.7661 44.987,-36.1488 43.5828,-35.4648 42.1868,-34.7343"/>
<polygon fill="#00ff00" stroke="#00ff00" stroke-width=".5702" points="43.6552,-31.5362 33.2674,-29.4521 40.0883,-37.5593 43.6552,-31.5362"/>
</g>
<!-- 4909&#45;&gt;E6 -->
<g id="edge24" class="edge">
<title>4909&#45;&gt;E6</title>
<path fill="none" stroke="#00ff00" stroke-width=".3069" d="M292.721,-79.012C303.476,-67.2972 317.6084,-51.9037 328.9416,-39.5593"/>
<polygon fill="#00ff00" stroke="#00ff00" stroke-width=".3069" points="331.7365,-41.6903 335.9212,-31.9568 326.5801,-36.9562 331.7365,-41.6903"/>
</g>
<!-- 4909&#45;&gt;E7 -->
<g id="edge21" class="edge">
<title>4909&#45;&gt;E7</title>
<path fill="none" stroke="#ff0000" stroke-width=".111" d="M297.3753,-84.3726C317.5069,-72.3777 348.6958,-53.6118 375.383,-36.7661 376.6739,-35.9513 377.9944,-35.1103 379.3249,-34.2571"/>
<polygon fill="#ff0000" stroke="#ff0000" stroke-width=".111" points="381.5618,-36.9778 388.0426,-28.5962 377.7495,-31.1069 381.5618,-36.9778"/>
</g>
<!-- 4560&#45;&gt;E6 -->
<g id="edge16" class="edge">
<title>4560&#45;&gt;E6</title>
<path fill="none" stroke="#ff0000" stroke-width="2.8943" d="M422.5426,-157.1823C425.3827,-134.3207 426.5684,-99.3687 413.383,-72.7661 408.6535,-63.2238 388.4873,-47.0831 371.8554,-34.8581"/>
<polygon fill="#ff0000" stroke="#ff0000" stroke-width="2.8943" points="373.7357,-31.8986 363.5807,-28.8778 369.6354,-37.5721 373.7357,-31.8986"/>
</g>
<!-- 4179&#45;&gt;E0 -->
<g id="edge29" class="edge">
<title>4179&#45;&gt;E0</title>
<path fill="none" stroke="#ff0000" stroke-width=".5581" d="M107.4647,-160.3092C88.729,-130.4593 54.0629,-75.2287 33.9453,-43.1771"/>
<polygon fill="#ff0000" stroke="#ff0000" stroke-width=".5581" points="36.723,-41.0189 28.4424,-34.4097 30.7941,-44.7402 36.723,-41.0189"/>
</g>
<!-- 4179&#45;&gt;E1 -->
<g id="edge25" class="edge">
<title>4179&#45;&gt;E1</title>
<path fill="none" stroke="#ff0000" stroke-width=".396" d="M113.6491,-157.6076C105.1201,-128.1177 90.4432,-77.3705 81.3613,-45.9689"/>
<polygon fill="#ff0000" stroke="#ff0000" stroke-width=".396" points="84.6535,-44.7539 78.5129,-36.12 77.929,-46.6987 84.6535,-44.7539"/>
</g>
<!-- 4179&#45;&gt;4854 -->
<g id="edge27" class="edge">
<title>4179&#45;&gt;4854</title>
<path fill="none" stroke="#ff0000" stroke-width=".1863" d="M143.4121,-173.7291C179.0497,-162.6114 249.6827,-140.438 309.383,-120.8494 321.9415,-116.7287 335.7103,-112.0936 347.7525,-108.0009"/>
<polygon fill="#ff0000" stroke="#ff0000" stroke-width=".1863" points="349.0611,-111.2526 357.3973,-104.7137 346.8029,-104.6269 349.0611,-111.2526"/>
</g>
<!-- 4854&#45;&gt;E7 -->
<g id="edge18" class="edge">
<title>4854&#45;&gt;E7</title>
<path fill="none" stroke="#ff0000" stroke-width=".2739" d="M387.1594,-73.7019C389.7203,-64.9697 392.6595,-54.9477 395.3265,-45.8539"/>
<polygon fill="#ff0000" stroke="#ff0000" stroke-width=".2739" points="398.7316,-46.6801 398.1873,-36.0992 392.0145,-44.7101 398.7316,-46.6801"/>
</g>
<!-- 4054&#45;&gt;E0 -->
<g id="edge14" class="edge">
<title>4054&#45;&gt;E0</title>
<path fill="none" stroke="#ff0000" stroke-width="4.0892" d="M171.7181,-240.6961C170.2818,-218.04 165.9825,-183.7803 153.383,-156.8494 128.2843,-103.2012 73.6683,-57.7375 42.1358,-34.6548"/>
<polygon fill="#ff0000" stroke="#ff0000" stroke-width="4.0892" points="44.11,-31.6676 33.8978,-28.7496 39.9407,-37.4838 44.11,-31.6676"/>
</g>
<!-- 4054&#45;&gt;4179 -->
<g id="edge30" class="edge">
<title>4054&#45;&gt;4179</title>
<path fill="none" stroke="#ff0000" stroke-width=".2695" d="M159.5291,-244.1896C153.1691,-233.9055 145.3848,-221.3185 138.4378,-210.0853"/>
<polygon fill="#ff0000" stroke="#ff0000" stroke-width=".2695" points="141.3257,-208.1006 133.0891,-201.4365 135.3722,-211.7825 141.3257,-208.1006"/>
</g>
</g>
</svg>
