<?xml version="1.0" encoding="UTF-8" standalone="no"?>
<!DOCTYPE svg PUBLIC "-//W3C//DTD SVG 1.1//EN"
 "http://www.w3.org/Graphics/SVG/1.1/DTD/svg11.dtd">
<!-- Generated by graphviz version 2.40.1 (20161225.0304)
 -->
<!-- Title: %3 Pages: 1 -->
<svg width="485pt" height="266pt"
 viewBox="0.00 0.00 484.77 265.93" xmlns="http://www.w3.org/2000/svg" xmlns:xlink="http://www.w3.org/1999/xlink">
<g id="graph0" class="graph" transform="scale(1 1) rotate(0) translate(4 261.9326)">
<title>%3</title>
<polygon fill="#ffffff" stroke="transparent" points="-4,4 -4,-261.9326 480.7661,-261.9326 480.7661,4 -4,4"/>
<!-- 0 -->
<g id="node1" class="node">
<title>0</title>
<polygon fill="#d3d3d3" stroke="#000000" points="242.389,-257.9326 222.3771,-257.9326 222.3771,-240.9326 242.389,-240.9326 242.389,-257.9326"/>
<text text-anchor="middle" x="232.383" y="-246.7326" font-family="Times,serif" font-size="9.00" fill="#000000">0</text>
</g>
<!-- 1 -->
<g id="node2" class="node">
<title>1</title>
<polygon fill="#d3d3d3" stroke="#000000" points="317.389,-257.9326 297.3771,-257.9326 297.3771,-240.9326 317.389,-240.9326 317.389,-257.9326"/>
<text text-anchor="middle" x="307.383" y="-246.7326" font-family="Times,serif" font-size="9.00" fill="#000000">1</text>
</g>
<!-- 0&#45;&gt;1 -->
<!-- E0 -->
<g id="node4" class="node">
<title>E0</title>
<ellipse fill="#87cefa" stroke="#000000" cx="18.383" cy="-18.383" rx="18.2668" ry="18.2668"/>
<text text-anchor="middle" x="18.383" y="-15.683" font-family="Times,serif" font-size="9.00" fill="#000000">E0</text>
</g>
<!-- 0&#45;&gt;E0 -->
<g id="edge18" class="edge">
<title>0&#45;&gt;E0</title>
<path fill="none" stroke="#ff0000" stroke-width=".3291" d="M222.1365,-248.5172C198.6336,-245.9074 140.1963,-236.4482 105.383,-204.9326 57.6154,-161.6898 33.9775,-86.8204 24.1751,-46.3256"/>
<polygon fill="#ff0000" stroke="#ff0000" stroke-width=".3291" points="27.5838,-45.5312 21.9229,-36.5754 20.7634,-47.1066 27.5838,-45.5312"/>
</g>
<!-- E6 -->
<g id="node10" class="node">
<title>E6</title>
<ellipse fill="#87cefa" stroke="#000000" cx="348.383" cy="-18.383" rx="18.2668" ry="18.2668"/>
<text text-anchor="middle" x="348.383" y="-15.683" font-family="Times,serif" font-size="9.00" fill="#000000">E6</text>
</g>
<!-- 0&#45;&gt;E6 -->
<g id="edge15" class="edge">
<title>0&#45;&gt;E6</title>
<path fill="none" stroke="#ff0000" stroke-width=".2862" d="M236.7887,-240.6573C253.0011,-208.3654 309.7358,-95.3609 335.4909,-44.0618"/>
<polygon fill="#ff0000" stroke="#ff0000" stroke-width=".2862" points="338.7064,-45.4576 340.0654,-34.9503 332.4506,-42.3168 338.7064,-45.4576"/>
</g>
<!-- E8 -->
<g id="node12" class="node">
<title>E8</title>
<ellipse fill="#87cefa" stroke="#000000" cx="458.383" cy="-18.383" rx="18.2668" ry="18.2668"/>
<text text-anchor="middle" x="458.383" y="-15.683" font-family="Times,serif" font-size="9.00" fill="#000000">E8</text>
</g>
<!-- 0&#45;&gt;E8 -->
<g id="edge11" class="edge">
<title>0&#45;&gt;E8</title>
<path fill="none" stroke="#00ff00" stroke-width="3.2139" d="M242.1079,-240.7372C251.9217,-231.8882 267.4346,-217.6963 280.383,-204.9326 339.4114,-146.7466 406.1677,-75.1418 438.5946,-39.9669"/>
<polygon fill="#00ff00" stroke="#00ff00" stroke-width="3.2139" points="441.5136,-41.9636 445.7099,-32.2352 436.3628,-37.2234 441.5136,-41.9636"/>
</g>
<!-- 5189 -->
<g id="node13" class="node">
<title>5189</title>
<ellipse fill="#add8e6" stroke="#000000" cx="138.383" cy="-180.891" rx="24.0833" ry="24.0833"/>
<text text-anchor="middle" x="138.383" y="-182.691" font-family="Times,serif" font-size="9.00" fill="#000000">5189</text>
<text text-anchor="middle" x="138.383" y="-173.691" font-family="Times,serif" font-size="9.00" fill="#000000">sigm</text>
</g>
<!-- 0&#45;&gt;5189 -->
<g id="edge17" class="edge">
<title>0&#45;&gt;5189</title>
<path fill="none" stroke="#ff0000" stroke-width=".1221" d="M222.3234,-242.0975C209.0161,-232.3942 185.0358,-214.9086 166.1039,-201.1041"/>
<polygon fill="#ff0000" stroke="#ff0000" stroke-width=".1221" points="167.9594,-198.1254 157.8171,-195.0617 163.8351,-203.7815 167.9594,-198.1254"/>
</g>
<!-- 2 -->
<g id="node3" class="node">
<title>2</title>
<polygon fill="#d3d3d3" stroke="#000000" points="356.389,-257.9326 336.3771,-257.9326 336.3771,-240.9326 356.389,-240.9326 356.389,-257.9326"/>
<text text-anchor="middle" x="346.383" y="-246.7326" font-family="Times,serif" font-size="9.00" fill="#000000">2</text>
</g>
<!-- 1&#45;&gt;2 -->
<!-- E7 -->
<g id="node11" class="node">
<title>E7</title>
<ellipse fill="#87cefa" stroke="#000000" cx="403.383" cy="-18.383" rx="18.2668" ry="18.2668"/>
<text text-anchor="middle" x="403.383" y="-15.683" font-family="Times,serif" font-size="9.00" fill="#000000">E7</text>
</g>
<!-- 1&#45;&gt;E7 -->
<g id="edge12" class="edge">
<title>1&#45;&gt;E7</title>
<path fill="none" stroke="#ff0000" stroke-width="3.175" d="M311.0291,-240.6573C324.3542,-208.5871 370.756,-96.9087 392.2711,-45.127"/>
<polygon fill="#ff0000" stroke="#ff0000" stroke-width="3.175" points="395.6202,-46.1882 396.2251,-35.6106 389.156,-43.5023 395.6202,-46.1882"/>
</g>
<!-- 1&#45;&gt;E8 -->
<g id="edge19" class="edge">
<title>1&#45;&gt;E8</title>
<path fill="none" stroke="#00ff00" stroke-width=".3805" d="M317.7152,-244.9304C340.323,-235.0017 392.6275,-211.5805 398.383,-204.9326 438.0573,-159.1073 451.5698,-86.7104 456.119,-46.9231"/>
<polygon fill="#00ff00" stroke="#00ff00" stroke-width=".3805" points="459.6137,-47.1536 457.1574,-36.8474 452.6505,-46.4359 459.6137,-47.1536"/>
</g>
<!-- E1 -->
<g id="node5" class="node">
<title>E1</title>
<ellipse fill="#87cefa" stroke="#000000" cx="73.383" cy="-18.383" rx="18.2668" ry="18.2668"/>
<text text-anchor="middle" x="73.383" y="-15.683" font-family="Times,serif" font-size="9.00" fill="#000000">E1</text>
</g>
<!-- 2&#45;&gt;E1 -->
<g id="edge14" class="edge">
<title>2&#45;&gt;E1</title>
<path fill="none" stroke="#00ff00" stroke-width=".1669" d="M336.9857,-240.6031C327.4735,-231.6498 312.3578,-217.3785 299.383,-204.9326 238.5574,-146.5867 230.5532,-123.6794 163.383,-72.7661 137.9895,-53.5184 128.4892,-53.5163 101.383,-36.7661 100.0845,-35.9637 98.7579,-35.1325 97.4225,-34.287"/>
<polygon fill="#00ff00" stroke="#00ff00" stroke-width=".1669" points="98.9899,-31.1328 88.6901,-28.6498 95.1934,-37.0139 98.9899,-31.1328"/>
</g>
<!-- E4 -->
<g id="node8" class="node">
<title>E4</title>
<ellipse fill="#87cefa" stroke="#000000" cx="238.383" cy="-18.383" rx="18.2668" ry="18.2668"/>
<text text-anchor="middle" x="238.383" y="-15.683" font-family="Times,serif" font-size="9.00" fill="#000000">E4</text>
</g>
<!-- 2&#45;&gt;E4 -->
<g id="edge22" class="edge">
<title>2&#45;&gt;E4</title>
<path fill="none" stroke="#ff0000" stroke-width=".3728" d="M342.2812,-240.6573C327.2231,-208.4428 274.6181,-95.9024 250.5591,-44.4319"/>
<polygon fill="#ff0000" stroke="#ff0000" stroke-width=".3728" points="253.6861,-42.8561 246.2808,-35.2791 247.3447,-45.8204 253.6861,-42.8561"/>
</g>
<!-- 2&#45;&gt;E6 -->
<g id="edge13" class="edge">
<title>2&#45;&gt;E6</title>
<path fill="none" stroke="#00ff00" stroke-width="2.6455" d="M346.459,-240.6573C346.7334,-208.9623 347.6808,-99.5115 348.1356,-46.9692"/>
<polygon fill="#00ff00" stroke="#00ff00" stroke-width="2.6455" points="351.6354,-46.994 348.2222,-36.9641 344.6357,-46.9334 351.6354,-46.994"/>
</g>
<!-- 2&#45;&gt;E7 -->
<g id="edge16" class="edge">
<title>2&#45;&gt;E7</title>
<path fill="none" stroke="#00ff00" stroke-width=".1194" d="M349.3774,-240.6276C352.3625,-231.6933 356.9807,-217.4364 360.383,-204.9326 375.5532,-149.1817 389.9488,-83.1248 397.6264,-46.4668"/>
<polygon fill="#00ff00" stroke="#00ff00" stroke-width=".1194" points="401.0879,-47.0119 399.698,-36.5086 394.2346,-45.5862 401.0879,-47.0119"/>
</g>
<!-- E0&#45;&gt;E1 -->
<!-- E2 -->
<g id="node6" class="node">
<title>E2</title>
<ellipse fill="#87cefa" stroke="#000000" cx="128.383" cy="-18.383" rx="18.2668" ry="18.2668"/>
<text text-anchor="middle" x="128.383" y="-15.683" font-family="Times,serif" font-size="9.00" fill="#000000">E2</text>
</g>
<!-- E1&#45;&gt;E2 -->
<!-- E3 -->
<g id="node7" class="node">
<title>E3</title>
<ellipse fill="#87cefa" stroke="#000000" cx="183.383" cy="-18.383" rx="18.2668" ry="18.2668"/>
<text text-anchor="middle" x="183.383" y="-15.683" font-family="Times,serif" font-size="9.00" fill="#000000">E3</text>
</g>
<!-- E2&#45;&gt;E3 -->
<!-- E3&#45;&gt;E4 -->
<!-- E5 -->
<g id="node9" class="node">
<title>E5</title>
<ellipse fill="#87cefa" stroke="#000000" cx="293.383" cy="-18.383" rx="18.2668" ry="18.2668"/>
<text text-anchor="middle" x="293.383" y="-15.683" font-family="Times,serif" font-size="9.00" fill="#000000">E5</text>
</g>
<!-- E4&#45;&gt;E5 -->
<!-- E5&#45;&gt;E6 -->
<!-- E6&#45;&gt;E7 -->
<!-- E7&#45;&gt;E8 -->
<!-- 5327 -->
<g id="node14" class="node">
<title>5327</title>
<ellipse fill="#add8e6" stroke="#000000" cx="130.383" cy="-96.8077" rx="24.0833" ry="24.0833"/>
<text text-anchor="middle" x="130.383" y="-98.6077" font-family="Times,serif" font-size="9.00" fill="#000000">5327</text>
<text text-anchor="middle" x="130.383" y="-89.6077" font-family="Times,serif" font-size="9.00" fill="#000000">sigm</text>
</g>
<!-- 5189&#45;&gt;5327 -->
<g id="edge20" class="edge">
<title>5189&#45;&gt;5327</title>
<path fill="none" stroke="#00ff00" stroke-width=".1041" d="M136.0691,-156.5706C135.308,-148.5708 134.4472,-139.5232 133.6299,-130.9331"/>
<polygon fill="#00ff00" stroke="#00ff00" stroke-width=".1041" points="137.0957,-130.4066 132.6642,-120.7831 130.1271,-131.0696 137.0957,-130.4066"/>
</g>
<!-- 5327&#45;&gt;E2 -->
<g id="edge21" class="edge">
<title>5327&#45;&gt;E2</title>
<path fill="none" stroke="#00ff00" stroke-width=".5769" d="M129.7612,-72.4236C129.5548,-64.33 129.3232,-55.248 129.1096,-46.8729"/>
<polygon fill="#00ff00" stroke="#00ff00" stroke-width=".5769" points="132.6059,-46.6776 128.852,-36.7702 125.6081,-46.8562 132.6059,-46.6776"/>
</g>
</g>
</svg>
