<?xml version="1.0" encoding="UTF-8" standalone="no"?>
<!DOCTYPE svg PUBLIC "-//W3C//DTD SVG 1.1//EN"
 "http://www.w3.org/Graphics/SVG/1.1/DTD/svg11.dtd">
<!-- Generated by graphviz version 2.40.1 (20161225.0304)
 -->
<!-- Title: %3 Pages: 1 -->
<svg width="386pt" height="259pt"
 viewBox="0.00 0.00 386.00 258.87" xmlns="http://www.w3.org/2000/svg" xmlns:xlink="http://www.w3.org/1999/xlink">
<g id="graph0" class="graph" transform="scale(1 1) rotate(0) translate(4 254.8726)">
<title>%3</title>
<polygon fill="#ffffff" stroke="transparent" points="-4,4 -4,-254.8726 381.9976,-254.8726 381.9976,4 -4,4"/>
<!-- E0 -->
<g id="node1" class="node">
<title>E0</title>
<polygon fill="#d3d3d3" stroke="#000000" points="25.9963,-250.8726 .0012,-250.8726 .0012,-233.8726 25.9963,-233.8726 25.9963,-250.8726"/>
<text text-anchor="middle" x="12.9988" y="-239.6726" font-family="Times,serif" font-size="9.00" fill="#000000">E0</text>
</g>
<!-- E1 -->
<g id="node2" class="node">
<title>E1</title>
<polygon fill="#d3d3d3" stroke="#000000" points="69.9963,-250.8726 44.0012,-250.8726 44.0012,-233.8726 69.9963,-233.8726 69.9963,-250.8726"/>
<text text-anchor="middle" x="56.9988" y="-239.6726" font-family="Times,serif" font-size="9.00" fill="#000000">E1</text>
</g>
<!-- E0&#45;&gt;E1 -->
<!-- 2 -->
<g id="node12" class="node">
<title>2</title>
<ellipse fill="#87cefa" stroke="#000000" cx="260.9988" cy="-14.853" rx="14.4914" ry="14.4914"/>
<text text-anchor="middle" x="260.9988" y="-12.153" font-family="Times,serif" font-size="9.00" fill="#000000">2</text>
</g>
<!-- E0&#45;&gt;2 -->
<g id="edge17" class="edge">
<title>E0&#45;&gt;2</title>
<path fill="none" stroke="#00ff00" stroke-width=".2058" d="M22.4178,-233.7314C59.2109,-199.9768 193.6237,-76.6641 242.8099,-31.5398"/>
<polygon fill="#00ff00" stroke="#00ff00" stroke-width=".2058" points="245.1978,-34.0989 250.2006,-24.7595 240.4656,-28.9407 245.1978,-34.0989"/>
</g>
<!-- E2 -->
<g id="node3" class="node">
<title>E2</title>
<polygon fill="#d3d3d3" stroke="#000000" points="113.9963,-250.8726 88.0012,-250.8726 88.0012,-233.8726 113.9963,-233.8726 113.9963,-250.8726"/>
<text text-anchor="middle" x="100.9988" y="-239.6726" font-family="Times,serif" font-size="9.00" fill="#000000">E2</text>
</g>
<!-- E1&#45;&gt;E2 -->
<!-- 4478 -->
<g id="node15" class="node">
<title>4478</title>
<ellipse fill="#add8e6" stroke="#000000" cx="312.9988" cy="-173.831" rx="24.0833" ry="24.0833"/>
<text text-anchor="middle" x="312.9988" y="-175.631" font-family="Times,serif" font-size="9.00" fill="#000000">4478</text>
<text text-anchor="middle" x="312.9988" y="-166.631" font-family="Times,serif" font-size="9.00" fill="#000000">sigm</text>
</g>
<!-- E1&#45;&gt;4478 -->
<g id="edge15" class="edge">
<title>E1&#45;&gt;4478</title>
<path fill="none" stroke="#ff0000" stroke-width=".1173" d="M70.3871,-236.8458C73.2054,-235.7826 76.1792,-234.7336 78.9988,-233.8726 147.881,-212.8393 167.4947,-216.7497 236.9988,-197.8726 251.3659,-193.9705 267.079,-189.1024 280.4698,-184.7693"/>
<polygon fill="#ff0000" stroke="#ff0000" stroke-width=".1173" points="281.7818,-188.0226 290.1963,-181.5848 279.6037,-181.3701 281.7818,-188.0226"/>
</g>
<!-- E3 -->
<g id="node4" class="node">
<title>E3</title>
<polygon fill="#d3d3d3" stroke="#000000" points="157.9963,-250.8726 132.0012,-250.8726 132.0012,-233.8726 157.9963,-233.8726 157.9963,-250.8726"/>
<text text-anchor="middle" x="144.9988" y="-239.6726" font-family="Times,serif" font-size="9.00" fill="#000000">E3</text>
</g>
<!-- E2&#45;&gt;E3 -->
<!-- E4 -->
<g id="node5" class="node">
<title>E4</title>
<polygon fill="#d3d3d3" stroke="#000000" points="201.9963,-250.8726 176.0012,-250.8726 176.0012,-233.8726 201.9963,-233.8726 201.9963,-250.8726"/>
<text text-anchor="middle" x="188.9988" y="-239.6726" font-family="Times,serif" font-size="9.00" fill="#000000">E4</text>
</g>
<!-- E3&#45;&gt;E4 -->
<!-- E5 -->
<g id="node6" class="node">
<title>E5</title>
<polygon fill="#d3d3d3" stroke="#000000" points="245.9963,-250.8726 220.0012,-250.8726 220.0012,-233.8726 245.9963,-233.8726 245.9963,-250.8726"/>
<text text-anchor="middle" x="232.9988" y="-239.6726" font-family="Times,serif" font-size="9.00" fill="#000000">E5</text>
</g>
<!-- E4&#45;&gt;E5 -->
<!-- E6 -->
<g id="node7" class="node">
<title>E6</title>
<polygon fill="#d3d3d3" stroke="#000000" points="289.9963,-250.8726 264.0012,-250.8726 264.0012,-233.8726 289.9963,-233.8726 289.9963,-250.8726"/>
<text text-anchor="middle" x="276.9988" y="-239.6726" font-family="Times,serif" font-size="9.00" fill="#000000">E6</text>
</g>
<!-- E5&#45;&gt;E6 -->
<!-- E7 -->
<g id="node8" class="node">
<title>E7</title>
<polygon fill="#d3d3d3" stroke="#000000" points="333.9963,-250.8726 308.0012,-250.8726 308.0012,-233.8726 333.9963,-233.8726 333.9963,-250.8726"/>
<text text-anchor="middle" x="320.9988" y="-239.6726" font-family="Times,serif" font-size="9.00" fill="#000000">E7</text>
</g>
<!-- E6&#45;&gt;E7 -->
<!-- E6&#45;&gt;2 -->
<g id="edge13" class="edge">
<title>E6&#45;&gt;2</title>
<path fill="none" stroke="#00ff00" stroke-width="1.2648" d="M276.3911,-233.7314C274.1469,-201.8191 266.2734,-89.8582 262.7391,-39.6001"/>
<polygon fill="#00ff00" stroke="#00ff00" stroke-width="1.2648" points="266.2281,-39.3193 262.0351,-29.5895 259.2453,-39.8105 266.2281,-39.3193"/>
</g>
<!-- E8 -->
<g id="node9" class="node">
<title>E8</title>
<polygon fill="#d3d3d3" stroke="#000000" points="377.9963,-250.8726 352.0012,-250.8726 352.0012,-233.8726 377.9963,-233.8726 377.9963,-250.8726"/>
<text text-anchor="middle" x="364.9988" y="-239.6726" font-family="Times,serif" font-size="9.00" fill="#000000">E8</text>
</g>
<!-- E7&#45;&gt;E8 -->
<!-- 1 -->
<g id="node11" class="node">
<title>1</title>
<ellipse fill="#87cefa" stroke="#000000" cx="213.9988" cy="-14.853" rx="14.4914" ry="14.4914"/>
<text text-anchor="middle" x="213.9988" y="-12.153" font-family="Times,serif" font-size="9.00" fill="#000000">1</text>
</g>
<!-- E7&#45;&gt;1 -->
<g id="edge12" class="edge">
<title>E7&#45;&gt;1</title>
<path fill="none" stroke="#ff0000" stroke-width="3.4147" d="M311.0089,-233.7207C301.8641,-225.3433 288.4985,-211.8836 279.9988,-197.8726 248.2679,-145.5673 228.3994,-75.6618 219.4911,-39.2425"/>
<polygon fill="#ff0000" stroke="#ff0000" stroke-width="3.4147" points="222.8898,-38.4054 217.1726,-29.4855 216.0794,-40.0237 222.8898,-38.4054"/>
</g>
<!-- 0 -->
<g id="node10" class="node">
<title>0</title>
<ellipse fill="#87cefa" stroke="#000000" cx="166.9988" cy="-14.853" rx="14.4914" ry="14.4914"/>
<text text-anchor="middle" x="166.9988" y="-12.153" font-family="Times,serif" font-size="9.00" fill="#000000">0</text>
</g>
<!-- E8&#45;&gt;0 -->
<g id="edge14" class="edge">
<title>E8&#45;&gt;0</title>
<path fill="none" stroke="#00ff00" stroke-width="1.1558" d="M367.1668,-233.6577C373.6378,-205.3745 389.7688,-115.1244 345.9988,-65.7061 299.1076,-12.7637 256.3784,-56.6723 190.9988,-29.7061 190.1268,-29.3464 189.2502,-28.9569 188.3747,-28.5439"/>
<polygon fill="#00ff00" stroke="#00ff00" stroke-width="1.1558" points="189.7357,-25.2972 179.2904,-23.5232 186.3496,-31.4237 189.7357,-25.2972"/>
</g>
<!-- 0&#45;&gt;1 -->
<!-- 1&#45;&gt;2 -->
<!-- S -->
<g id="node13" class="node">
<title>S</title>
<ellipse fill="#87cefa" stroke="#000000" cx="310.9988" cy="-14.853" rx="14.7075" ry="14.7075"/>
<text text-anchor="middle" x="310.9988" y="-12.153" font-family="Times,serif" font-size="9.00" fill="#000000">S</text>
</g>
<!-- 2&#45;&gt;S -->
<!-- 4771 -->
<g id="node14" class="node">
<title>4771</title>
<ellipse fill="#add8e6" stroke="#000000" cx="312.9988" cy="-89.7477" rx="24.0833" ry="24.0833"/>
<text text-anchor="middle" x="312.9988" y="-91.5477" font-family="Times,serif" font-size="9.00" fill="#000000">4771</text>
<text text-anchor="middle" x="312.9988" y="-82.5477" font-family="Times,serif" font-size="9.00" fill="#000000">sigm</text>
</g>
<!-- 4771&#45;&gt;S -->
<g id="edge16" class="edge">
<title>4771&#45;&gt;S</title>
<path fill="none" stroke="#ff0000" stroke-width=".9197" d="M312.355,-65.6383C312.1358,-57.432 311.8904,-48.2428 311.6692,-39.9602"/>
<polygon fill="#ff0000" stroke="#ff0000" stroke-width=".9197" points="315.1625,-39.6563 311.3967,-29.7534 308.165,-39.8433 315.1625,-39.6563"/>
</g>
<!-- 4478&#45;&gt;4771 -->
<g id="edge18" class="edge">
<title>4478&#45;&gt;4771</title>
<path fill="none" stroke="#ff0000" stroke-width=".3368" d="M312.9988,-149.5106C312.9988,-141.5798 312.9988,-132.6191 312.9988,-124.0953"/>
<polygon fill="#ff0000" stroke="#ff0000" stroke-width=".3368" points="316.4989,-124.0134 312.9988,-114.0134 309.4989,-124.0135 316.4989,-124.0134"/>
</g>
</g>
</svg>
