<?xml version="1.0" encoding="UTF-8" standalone="no"?>
<!DOCTYPE svg PUBLIC "-//W3C//DTD SVG 1.1//EN"
 "http://www.w3.org/Graphics/SVG/1.1/DTD/svg11.dtd">
<!-- Generated by graphviz version 2.40.1 (20161225.0304)
 -->
<!-- Title: %3 Pages: 1 -->
<svg width="386pt" height="175pt"
 viewBox="0.00 0.00 386.00 174.79" xmlns="http://www.w3.org/2000/svg" xmlns:xlink="http://www.w3.org/1999/xlink">
<g id="graph0" class="graph" transform="scale(1 1) rotate(0) translate(4 170.7893)">
<title>%3</title>
<polygon fill="#ffffff" stroke="transparent" points="-4,4 -4,-170.7893 381.9976,-170.7893 381.9976,4 -4,4"/>
<!-- E0 -->
<g id="node1" class="node">
<title>E0</title>
<polygon fill="#d3d3d3" stroke="#000000" points="25.9963,-166.7893 .0012,-166.7893 .0012,-149.7893 25.9963,-149.7893 25.9963,-166.7893"/>
<text text-anchor="middle" x="12.9988" y="-155.5893" font-family="Times,serif" font-size="9.00" fill="#000000">E0</text>
</g>
<!-- E1 -->
<g id="node2" class="node">
<title>E1</title>
<polygon fill="#d3d3d3" stroke="#000000" points="69.9963,-166.7893 44.0012,-166.7893 44.0012,-149.7893 69.9963,-149.7893 69.9963,-166.7893"/>
<text text-anchor="middle" x="56.9988" y="-155.5893" font-family="Times,serif" font-size="9.00" fill="#000000">E1</text>
</g>
<!-- E0&#45;&gt;E1 -->
<!-- E2 -->
<g id="node3" class="node">
<title>E2</title>
<polygon fill="#d3d3d3" stroke="#000000" points="113.9963,-166.7893 88.0012,-166.7893 88.0012,-149.7893 113.9963,-149.7893 113.9963,-166.7893"/>
<text text-anchor="middle" x="100.9988" y="-155.5893" font-family="Times,serif" font-size="9.00" fill="#000000">E2</text>
</g>
<!-- E1&#45;&gt;E2 -->
<!-- S -->
<g id="node13" class="node">
<title>S</title>
<ellipse fill="#87cefa" stroke="#000000" cx="249.9988" cy="-14.853" rx="14.7075" ry="14.7075"/>
<text text-anchor="middle" x="249.9988" y="-12.153" font-family="Times,serif" font-size="9.00" fill="#000000">S</text>
</g>
<!-- E1&#45;&gt;S -->
<g id="edge15" class="edge">
<title>E1&#45;&gt;S</title>
<path fill="none" stroke="#ff0000" stroke-width="1.7909" d="M68.4938,-149.7463C100.2473,-126.1473 189.4758,-59.8333 229.7844,-29.8762"/>
<polygon fill="#ff0000" stroke="#ff0000" stroke-width="1.7909" points="231.8868,-32.6746 237.8252,-23.9004 227.7113,-27.0562 231.8868,-32.6746"/>
</g>
<!-- E3 -->
<g id="node4" class="node">
<title>E3</title>
<polygon fill="#d3d3d3" stroke="#000000" points="157.9963,-166.7893 132.0012,-166.7893 132.0012,-149.7893 157.9963,-149.7893 157.9963,-166.7893"/>
<text text-anchor="middle" x="144.9988" y="-155.5893" font-family="Times,serif" font-size="9.00" fill="#000000">E3</text>
</g>
<!-- E2&#45;&gt;E3 -->
<!-- E2&#45;&gt;S -->
<g id="edge16" class="edge">
<title>E2&#45;&gt;S</title>
<path fill="none" stroke="#00ff00" stroke-width=".3387" d="M114.3037,-152.8225C139.5392,-142.3707 192.4333,-120.0363 198.9988,-113.7893 220.753,-93.0906 234.8884,-61.0676 242.639,-39.0941"/>
<polygon fill="#00ff00" stroke="#00ff00" stroke-width=".3387" points="245.9967,-40.0891 245.8458,-29.4953 239.3574,-37.8709 245.9967,-40.0891"/>
</g>
<!-- E4 -->
<g id="node5" class="node">
<title>E4</title>
<polygon fill="#d3d3d3" stroke="#000000" points="201.9963,-166.7893 176.0012,-166.7893 176.0012,-149.7893 201.9963,-149.7893 201.9963,-166.7893"/>
<text text-anchor="middle" x="188.9988" y="-155.5893" font-family="Times,serif" font-size="9.00" fill="#000000">E4</text>
</g>
<!-- E3&#45;&gt;E4 -->
<!-- 0 -->
<g id="node10" class="node">
<title>0</title>
<ellipse fill="#87cefa" stroke="#000000" cx="108.9988" cy="-14.853" rx="14.4914" ry="14.4914"/>
<text text-anchor="middle" x="108.9988" y="-12.153" font-family="Times,serif" font-size="9.00" fill="#000000">0</text>
</g>
<!-- E3&#45;&gt;0 -->
<g id="edge12" class="edge">
<title>E3&#45;&gt;0</title>
<path fill="none" stroke="#ff0000" stroke-width="2.5772" d="M142.8546,-149.7463C137.4964,-128.3972 123.3641,-72.0896 115.1514,-39.3672"/>
<polygon fill="#ff0000" stroke="#ff0000" stroke-width="2.5772" points="118.4435,-38.106 112.6144,-29.2589 111.6541,-39.8101 118.4435,-38.106"/>
</g>
<!-- E5 -->
<g id="node6" class="node">
<title>E5</title>
<polygon fill="#d3d3d3" stroke="#000000" points="245.9963,-166.7893 220.0012,-166.7893 220.0012,-149.7893 245.9963,-149.7893 245.9963,-166.7893"/>
<text text-anchor="middle" x="232.9988" y="-155.5893" font-family="Times,serif" font-size="9.00" fill="#000000">E5</text>
</g>
<!-- E4&#45;&gt;E5 -->
<!-- E4&#45;&gt;S -->
<g id="edge14" class="edge">
<title>E4&#45;&gt;S</title>
<path fill="none" stroke="#ff0000" stroke-width="1.5598" d="M202.402,-149.8215C213.6345,-141.9452 229.0697,-129.1345 236.9988,-113.7893 248.918,-90.7223 251.3367,-60.7539 251.2938,-39.8712"/>
<polygon fill="#ff0000" stroke="#ff0000" stroke-width="1.5598" points="254.793,-39.7883 251.0843,-29.8638 247.7945,-39.9349 254.793,-39.7883"/>
</g>
<!-- E6 -->
<g id="node7" class="node">
<title>E6</title>
<polygon fill="#d3d3d3" stroke="#000000" points="289.9963,-166.7893 264.0012,-166.7893 264.0012,-149.7893 289.9963,-149.7893 289.9963,-166.7893"/>
<text text-anchor="middle" x="276.9988" y="-155.5893" font-family="Times,serif" font-size="9.00" fill="#000000">E6</text>
</g>
<!-- E5&#45;&gt;E6 -->
<!-- 2 -->
<g id="node12" class="node">
<title>2</title>
<ellipse fill="#87cefa" stroke="#000000" cx="202.9988" cy="-14.853" rx="14.4914" ry="14.4914"/>
<text text-anchor="middle" x="202.9988" y="-12.153" font-family="Times,serif" font-size="9.00" fill="#000000">2</text>
</g>
<!-- E5&#45;&gt;2 -->
<g id="edge13" class="edge">
<title>E5&#45;&gt;2</title>
<path fill="none" stroke="#ff0000" stroke-width=".9978" d="M231.212,-149.7463C226.7468,-128.3972 214.9699,-72.0896 208.126,-39.3672"/>
<polygon fill="#ff0000" stroke="#ff0000" stroke-width=".9978" points="211.485,-38.3305 206.0118,-29.2589 204.6332,-39.7636 211.485,-38.3305"/>
</g>
<!-- E7 -->
<g id="node8" class="node">
<title>E7</title>
<polygon fill="#d3d3d3" stroke="#000000" points="333.9963,-166.7893 308.0012,-166.7893 308.0012,-149.7893 333.9963,-149.7893 333.9963,-166.7893"/>
<text text-anchor="middle" x="320.9988" y="-155.5893" font-family="Times,serif" font-size="9.00" fill="#000000">E7</text>
</g>
<!-- E6&#45;&gt;E7 -->
<!-- E8 -->
<g id="node9" class="node">
<title>E8</title>
<polygon fill="#d3d3d3" stroke="#000000" points="377.9963,-166.7893 352.0012,-166.7893 352.0012,-149.7893 377.9963,-149.7893 377.9963,-166.7893"/>
<text text-anchor="middle" x="364.9988" y="-155.5893" font-family="Times,serif" font-size="9.00" fill="#000000">E8</text>
</g>
<!-- E7&#45;&gt;E8 -->
<!-- 5294 -->
<g id="node14" class="node">
<title>5294</title>
<ellipse fill="#add8e6" stroke="#000000" cx="312.9988" cy="-89.7477" rx="24.0833" ry="24.0833"/>
<text text-anchor="middle" x="312.9988" y="-91.5477" font-family="Times,serif" font-size="9.00" fill="#000000">5294</text>
<text text-anchor="middle" x="312.9988" y="-82.5477" font-family="Times,serif" font-size="9.00" fill="#000000">sigm</text>
</g>
<!-- E7&#45;&gt;5294 -->
<g id="edge17" class="edge">
<title>E7&#45;&gt;5294</title>
<path fill="none" stroke="#00ff00" stroke-width=".4097" d="M319.9856,-149.6085C319.2137,-142.995 318.097,-133.4275 316.982,-123.8749"/>
<polygon fill="#00ff00" stroke="#00ff00" stroke-width=".4097" points="320.425,-123.1824 315.7892,-113.6556 313.4722,-123.994 320.425,-123.1824"/>
</g>
<!-- E8&#45;&gt;S -->
<g id="edge19" class="edge">
<title>E8&#45;&gt;S</title>
<path fill="none" stroke="#00ff00" stroke-width=".3807" d="M365.5349,-149.6574C366.1758,-132.0411 365.2831,-91.4436 345.9988,-65.7061 328.3275,-42.1215 296.4636,-28.3822 274.3158,-21.2561"/>
<polygon fill="#00ff00" stroke="#00ff00" stroke-width=".3807" points="275.2029,-17.8683 264.6192,-18.3552 273.1965,-24.5746 275.2029,-17.8683"/>
</g>
<!-- 1 -->
<g id="node11" class="node">
<title>1</title>
<ellipse fill="#87cefa" stroke="#000000" cx="155.9988" cy="-14.853" rx="14.4914" ry="14.4914"/>
<text text-anchor="middle" x="155.9988" y="-12.153" font-family="Times,serif" font-size="9.00" fill="#000000">1</text>
</g>
<!-- 0&#45;&gt;1 -->
<!-- 1&#45;&gt;2 -->
<!-- 2&#45;&gt;S -->
<!-- 5294&#45;&gt;1 -->
<g id="edge18" class="edge">
<title>5294&#45;&gt;1</title>
<path fill="none" stroke="#ff0000" stroke-width="1.6261" d="M290.4523,-80.6276C263.6495,-69.5454 217.7934,-49.8224 179.9988,-29.7061 179.1661,-29.2629 178.323,-28.8024 177.4756,-28.3296"/>
<polygon fill="#ff0000" stroke="#ff0000" stroke-width="1.6261" points="178.911,-25.1121 168.5228,-23.0298 175.3451,-31.1358 178.911,-25.1121"/>
</g>
</g>
</svg>
