<?xml version="1.0" encoding="utf-8" standalone="no"?>
<!DOCTYPE svg PUBLIC "-//W3C//DTD SVG 1.1//EN"
  "http://www.w3.org/Graphics/SVG/1.1/DTD/svg11.dtd">
<!-- Created with matplotlib (https://matplotlib.org/) -->
<svg height="345.6pt" version="1.1" viewBox="0 0 460.8 345.6" width="460.8pt" xmlns="http://www.w3.org/2000/svg" xmlns:xlink="http://www.w3.org/1999/xlink">
 <defs>
  <style type="text/css">
*{stroke-linecap:butt;stroke-linejoin:round;}
  </style>
 </defs>
 <g id="figure_1">
  <g id="patch_1">
   <path d="M 0 345.6 
L 460.8 345.6 
L 460.8 0 
L 0 0 
z
" style="fill:#ffffff;"/>
  </g>
  <g id="axes_1">
   <g id="patch_2">
    <path d="M 57.6 307.584 
L 414.72 307.584 
L 414.72 41.472 
L 57.6 41.472 
z
" style="fill:#ffffff;"/>
   </g>
   <g id="matplotlib.axis_1">
    <g id="xtick_1">
     <g id="line2d_1">
      <path clip-path="url(#pbae3401c63)" d="M 73.832727 307.584 
L 73.832727 41.472 
" style="fill:none;stroke:#b0b0b0;stroke-linecap:square;stroke-width:0.8;"/>
     </g>
     <g id="line2d_2">
      <defs>
       <path d="M 0 0 
L 0 3.5 
" id="mda93df1bfa" style="stroke:#000000;stroke-width:0.8;"/>
      </defs>
      <g>
       <use style="stroke:#000000;stroke-width:0.8;" x="73.832727" xlink:href="#mda93df1bfa" y="307.584"/>
      </g>
     </g>
     <g id="text_1">
      <!-- 0 -->
      <defs>
       <path d="M 31.78125 66.40625 
Q 24.171875 66.40625 20.328125 58.90625 
Q 16.5 51.421875 16.5 36.375 
Q 16.5 21.390625 20.328125 13.890625 
Q 24.171875 6.390625 31.78125 6.390625 
Q 39.453125 6.390625 43.28125 13.890625 
Q 47.125 21.390625 47.125 36.375 
Q 47.125 51.421875 43.28125 58.90625 
Q 39.453125 66.40625 31.78125 66.40625 
z
M 31.78125 74.21875 
Q 44.046875 74.21875 50.515625 64.515625 
Q 56.984375 54.828125 56.984375 36.375 
Q 56.984375 17.96875 50.515625 8.265625 
Q 44.046875 -1.421875 31.78125 -1.421875 
Q 19.53125 -1.421875 13.0625 8.265625 
Q 6.59375 17.96875 6.59375 36.375 
Q 6.59375 54.828125 13.0625 64.515625 
Q 19.53125 74.21875 31.78125 74.21875 
z
" id="DejaVuSans-48"/>
      </defs>
      <g transform="translate(70.651477 322.182437)scale(0.1 -0.1)">
       <use xlink:href="#DejaVuSans-48"/>
      </g>
     </g>
    </g>
    <g id="xtick_2">
     <g id="line2d_3">
      <path clip-path="url(#pbae3401c63)" d="M 128.122785 307.584 
L 128.122785 41.472 
" style="fill:none;stroke:#b0b0b0;stroke-linecap:square;stroke-width:0.8;"/>
     </g>
     <g id="line2d_4">
      <g>
       <use style="stroke:#000000;stroke-width:0.8;" x="128.122785" xlink:href="#mda93df1bfa" y="307.584"/>
      </g>
     </g>
     <g id="text_2">
      <!-- 50 -->
      <defs>
       <path d="M 10.796875 72.90625 
L 49.515625 72.90625 
L 49.515625 64.59375 
L 19.828125 64.59375 
L 19.828125 46.734375 
Q 21.96875 47.46875 24.109375 47.828125 
Q 26.265625 48.1875 28.421875 48.1875 
Q 40.625 48.1875 47.75 41.5 
Q 54.890625 34.8125 54.890625 23.390625 
Q 54.890625 11.625 47.5625 5.09375 
Q 40.234375 -1.421875 26.90625 -1.421875 
Q 22.3125 -1.421875 17.546875 -0.640625 
Q 12.796875 0.140625 7.71875 1.703125 
L 7.71875 11.625 
Q 12.109375 9.234375 16.796875 8.0625 
Q 21.484375 6.890625 26.703125 6.890625 
Q 35.15625 6.890625 40.078125 11.328125 
Q 45.015625 15.765625 45.015625 23.390625 
Q 45.015625 31 40.078125 35.4375 
Q 35.15625 39.890625 26.703125 39.890625 
Q 22.75 39.890625 18.8125 39.015625 
Q 14.890625 38.140625 10.796875 36.28125 
z
" id="DejaVuSans-53"/>
      </defs>
      <g transform="translate(121.760285 322.182437)scale(0.1 -0.1)">
       <use xlink:href="#DejaVuSans-53"/>
       <use x="63.623047" xlink:href="#DejaVuSans-48"/>
      </g>
     </g>
    </g>
    <g id="xtick_3">
     <g id="line2d_5">
      <path clip-path="url(#pbae3401c63)" d="M 182.412843 307.584 
L 182.412843 41.472 
" style="fill:none;stroke:#b0b0b0;stroke-linecap:square;stroke-width:0.8;"/>
     </g>
     <g id="line2d_6">
      <g>
       <use style="stroke:#000000;stroke-width:0.8;" x="182.412843" xlink:href="#mda93df1bfa" y="307.584"/>
      </g>
     </g>
     <g id="text_3">
      <!-- 100 -->
      <defs>
       <path d="M 12.40625 8.296875 
L 28.515625 8.296875 
L 28.515625 63.921875 
L 10.984375 60.40625 
L 10.984375 69.390625 
L 28.421875 72.90625 
L 38.28125 72.90625 
L 38.28125 8.296875 
L 54.390625 8.296875 
L 54.390625 0 
L 12.40625 0 
z
" id="DejaVuSans-49"/>
      </defs>
      <g transform="translate(172.869093 322.182437)scale(0.1 -0.1)">
       <use xlink:href="#DejaVuSans-49"/>
       <use x="63.623047" xlink:href="#DejaVuSans-48"/>
       <use x="127.246094" xlink:href="#DejaVuSans-48"/>
      </g>
     </g>
    </g>
    <g id="xtick_4">
     <g id="line2d_7">
      <path clip-path="url(#pbae3401c63)" d="M 236.702901 307.584 
L 236.702901 41.472 
" style="fill:none;stroke:#b0b0b0;stroke-linecap:square;stroke-width:0.8;"/>
     </g>
     <g id="line2d_8">
      <g>
       <use style="stroke:#000000;stroke-width:0.8;" x="236.702901" xlink:href="#mda93df1bfa" y="307.584"/>
      </g>
     </g>
     <g id="text_4">
      <!-- 150 -->
      <g transform="translate(227.159151 322.182437)scale(0.1 -0.1)">
       <use xlink:href="#DejaVuSans-49"/>
       <use x="63.623047" xlink:href="#DejaVuSans-53"/>
       <use x="127.246094" xlink:href="#DejaVuSans-48"/>
      </g>
     </g>
    </g>
    <g id="xtick_5">
     <g id="line2d_9">
      <path clip-path="url(#pbae3401c63)" d="M 290.992958 307.584 
L 290.992958 41.472 
" style="fill:none;stroke:#b0b0b0;stroke-linecap:square;stroke-width:0.8;"/>
     </g>
     <g id="line2d_10">
      <g>
       <use style="stroke:#000000;stroke-width:0.8;" x="290.992958" xlink:href="#mda93df1bfa" y="307.584"/>
      </g>
     </g>
     <g id="text_5">
      <!-- 200 -->
      <defs>
       <path d="M 19.1875 8.296875 
L 53.609375 8.296875 
L 53.609375 0 
L 7.328125 0 
L 7.328125 8.296875 
Q 12.9375 14.109375 22.625 23.890625 
Q 32.328125 33.6875 34.8125 36.53125 
Q 39.546875 41.84375 41.421875 45.53125 
Q 43.3125 49.21875 43.3125 52.78125 
Q 43.3125 58.59375 39.234375 62.25 
Q 35.15625 65.921875 28.609375 65.921875 
Q 23.96875 65.921875 18.8125 64.3125 
Q 13.671875 62.703125 7.8125 59.421875 
L 7.8125 69.390625 
Q 13.765625 71.78125 18.9375 73 
Q 24.125 74.21875 28.421875 74.21875 
Q 39.75 74.21875 46.484375 68.546875 
Q 53.21875 62.890625 53.21875 53.421875 
Q 53.21875 48.921875 51.53125 44.890625 
Q 49.859375 40.875 45.40625 35.40625 
Q 44.1875 33.984375 37.640625 27.21875 
Q 31.109375 20.453125 19.1875 8.296875 
z
" id="DejaVuSans-50"/>
      </defs>
      <g transform="translate(281.449208 322.182437)scale(0.1 -0.1)">
       <use xlink:href="#DejaVuSans-50"/>
       <use x="63.623047" xlink:href="#DejaVuSans-48"/>
       <use x="127.246094" xlink:href="#DejaVuSans-48"/>
      </g>
     </g>
    </g>
    <g id="xtick_6">
     <g id="line2d_11">
      <path clip-path="url(#pbae3401c63)" d="M 345.283016 307.584 
L 345.283016 41.472 
" style="fill:none;stroke:#b0b0b0;stroke-linecap:square;stroke-width:0.8;"/>
     </g>
     <g id="line2d_12">
      <g>
       <use style="stroke:#000000;stroke-width:0.8;" x="345.283016" xlink:href="#mda93df1bfa" y="307.584"/>
      </g>
     </g>
     <g id="text_6">
      <!-- 250 -->
      <g transform="translate(335.739266 322.182437)scale(0.1 -0.1)">
       <use xlink:href="#DejaVuSans-50"/>
       <use x="63.623047" xlink:href="#DejaVuSans-53"/>
       <use x="127.246094" xlink:href="#DejaVuSans-48"/>
      </g>
     </g>
    </g>
    <g id="xtick_7">
     <g id="line2d_13">
      <path clip-path="url(#pbae3401c63)" d="M 399.573074 307.584 
L 399.573074 41.472 
" style="fill:none;stroke:#b0b0b0;stroke-linecap:square;stroke-width:0.8;"/>
     </g>
     <g id="line2d_14">
      <g>
       <use style="stroke:#000000;stroke-width:0.8;" x="399.573074" xlink:href="#mda93df1bfa" y="307.584"/>
      </g>
     </g>
     <g id="text_7">
      <!-- 300 -->
      <defs>
       <path d="M 40.578125 39.3125 
Q 47.65625 37.796875 51.625 33 
Q 55.609375 28.21875 55.609375 21.1875 
Q 55.609375 10.40625 48.1875 4.484375 
Q 40.765625 -1.421875 27.09375 -1.421875 
Q 22.515625 -1.421875 17.65625 -0.515625 
Q 12.796875 0.390625 7.625 2.203125 
L 7.625 11.71875 
Q 11.71875 9.328125 16.59375 8.109375 
Q 21.484375 6.890625 26.8125 6.890625 
Q 36.078125 6.890625 40.9375 10.546875 
Q 45.796875 14.203125 45.796875 21.1875 
Q 45.796875 27.640625 41.28125 31.265625 
Q 36.765625 34.90625 28.71875 34.90625 
L 20.21875 34.90625 
L 20.21875 43.015625 
L 29.109375 43.015625 
Q 36.375 43.015625 40.234375 45.921875 
Q 44.09375 48.828125 44.09375 54.296875 
Q 44.09375 59.90625 40.109375 62.90625 
Q 36.140625 65.921875 28.71875 65.921875 
Q 24.65625 65.921875 20.015625 65.03125 
Q 15.375 64.15625 9.8125 62.3125 
L 9.8125 71.09375 
Q 15.4375 72.65625 20.34375 73.4375 
Q 25.25 74.21875 29.59375 74.21875 
Q 40.828125 74.21875 47.359375 69.109375 
Q 53.90625 64.015625 53.90625 55.328125 
Q 53.90625 49.265625 50.4375 45.09375 
Q 46.96875 40.921875 40.578125 39.3125 
z
" id="DejaVuSans-51"/>
      </defs>
      <g transform="translate(390.029324 322.182437)scale(0.1 -0.1)">
       <use xlink:href="#DejaVuSans-51"/>
       <use x="63.623047" xlink:href="#DejaVuSans-48"/>
       <use x="127.246094" xlink:href="#DejaVuSans-48"/>
      </g>
     </g>
    </g>
    <g id="text_8">
     <!-- Generations -->
     <defs>
      <path d="M 59.515625 10.40625 
L 59.515625 29.984375 
L 43.40625 29.984375 
L 43.40625 38.09375 
L 69.28125 38.09375 
L 69.28125 6.78125 
Q 63.578125 2.734375 56.6875 0.65625 
Q 49.8125 -1.421875 42 -1.421875 
Q 24.90625 -1.421875 15.25 8.5625 
Q 5.609375 18.5625 5.609375 36.375 
Q 5.609375 54.25 15.25 64.234375 
Q 24.90625 74.21875 42 74.21875 
Q 49.125 74.21875 55.546875 72.453125 
Q 61.96875 70.703125 67.390625 67.28125 
L 67.390625 56.78125 
Q 61.921875 61.421875 55.765625 63.765625 
Q 49.609375 66.109375 42.828125 66.109375 
Q 29.4375 66.109375 22.71875 58.640625 
Q 16.015625 51.171875 16.015625 36.375 
Q 16.015625 21.625 22.71875 14.15625 
Q 29.4375 6.6875 42.828125 6.6875 
Q 48.046875 6.6875 52.140625 7.59375 
Q 56.25 8.5 59.515625 10.40625 
z
" id="DejaVuSans-71"/>
      <path d="M 56.203125 29.59375 
L 56.203125 25.203125 
L 14.890625 25.203125 
Q 15.484375 15.921875 20.484375 11.0625 
Q 25.484375 6.203125 34.421875 6.203125 
Q 39.59375 6.203125 44.453125 7.46875 
Q 49.3125 8.734375 54.109375 11.28125 
L 54.109375 2.78125 
Q 49.265625 0.734375 44.1875 -0.34375 
Q 39.109375 -1.421875 33.890625 -1.421875 
Q 20.796875 -1.421875 13.15625 6.1875 
Q 5.515625 13.8125 5.515625 26.8125 
Q 5.515625 40.234375 12.765625 48.109375 
Q 20.015625 56 32.328125 56 
Q 43.359375 56 49.78125 48.890625 
Q 56.203125 41.796875 56.203125 29.59375 
z
M 47.21875 32.234375 
Q 47.125 39.59375 43.09375 43.984375 
Q 39.0625 48.390625 32.421875 48.390625 
Q 24.90625 48.390625 20.390625 44.140625 
Q 15.875 39.890625 15.1875 32.171875 
z
" id="DejaVuSans-101"/>
      <path d="M 54.890625 33.015625 
L 54.890625 0 
L 45.90625 0 
L 45.90625 32.71875 
Q 45.90625 40.484375 42.875 44.328125 
Q 39.84375 48.1875 33.796875 48.1875 
Q 26.515625 48.1875 22.3125 43.546875 
Q 18.109375 38.921875 18.109375 30.90625 
L 18.109375 0 
L 9.078125 0 
L 9.078125 54.6875 
L 18.109375 54.6875 
L 18.109375 46.1875 
Q 21.34375 51.125 25.703125 53.5625 
Q 30.078125 56 35.796875 56 
Q 45.21875 56 50.046875 50.171875 
Q 54.890625 44.34375 54.890625 33.015625 
z
" id="DejaVuSans-110"/>
      <path d="M 41.109375 46.296875 
Q 39.59375 47.171875 37.8125 47.578125 
Q 36.03125 48 33.890625 48 
Q 26.265625 48 22.1875 43.046875 
Q 18.109375 38.09375 18.109375 28.8125 
L 18.109375 0 
L 9.078125 0 
L 9.078125 54.6875 
L 18.109375 54.6875 
L 18.109375 46.1875 
Q 20.953125 51.171875 25.484375 53.578125 
Q 30.03125 56 36.53125 56 
Q 37.453125 56 38.578125 55.875 
Q 39.703125 55.765625 41.0625 55.515625 
z
" id="DejaVuSans-114"/>
      <path d="M 34.28125 27.484375 
Q 23.390625 27.484375 19.1875 25 
Q 14.984375 22.515625 14.984375 16.5 
Q 14.984375 11.71875 18.140625 8.90625 
Q 21.296875 6.109375 26.703125 6.109375 
Q 34.1875 6.109375 38.703125 11.40625 
Q 43.21875 16.703125 43.21875 25.484375 
L 43.21875 27.484375 
z
M 52.203125 31.203125 
L 52.203125 0 
L 43.21875 0 
L 43.21875 8.296875 
Q 40.140625 3.328125 35.546875 0.953125 
Q 30.953125 -1.421875 24.3125 -1.421875 
Q 15.921875 -1.421875 10.953125 3.296875 
Q 6 8.015625 6 15.921875 
Q 6 25.140625 12.171875 29.828125 
Q 18.359375 34.515625 30.609375 34.515625 
L 43.21875 34.515625 
L 43.21875 35.40625 
Q 43.21875 41.609375 39.140625 45 
Q 35.0625 48.390625 27.6875 48.390625 
Q 23 48.390625 18.546875 47.265625 
Q 14.109375 46.140625 10.015625 43.890625 
L 10.015625 52.203125 
Q 14.9375 54.109375 19.578125 55.046875 
Q 24.21875 56 28.609375 56 
Q 40.484375 56 46.34375 49.84375 
Q 52.203125 43.703125 52.203125 31.203125 
z
" id="DejaVuSans-97"/>
      <path d="M 18.3125 70.21875 
L 18.3125 54.6875 
L 36.8125 54.6875 
L 36.8125 47.703125 
L 18.3125 47.703125 
L 18.3125 18.015625 
Q 18.3125 11.328125 20.140625 9.421875 
Q 21.96875 7.515625 27.59375 7.515625 
L 36.8125 7.515625 
L 36.8125 0 
L 27.59375 0 
Q 17.1875 0 13.234375 3.875 
Q 9.28125 7.765625 9.28125 18.015625 
L 9.28125 47.703125 
L 2.6875 47.703125 
L 2.6875 54.6875 
L 9.28125 54.6875 
L 9.28125 70.21875 
z
" id="DejaVuSans-116"/>
      <path d="M 9.421875 54.6875 
L 18.40625 54.6875 
L 18.40625 0 
L 9.421875 0 
z
M 9.421875 75.984375 
L 18.40625 75.984375 
L 18.40625 64.59375 
L 9.421875 64.59375 
z
" id="DejaVuSans-105"/>
      <path d="M 30.609375 48.390625 
Q 23.390625 48.390625 19.1875 42.75 
Q 14.984375 37.109375 14.984375 27.296875 
Q 14.984375 17.484375 19.15625 11.84375 
Q 23.34375 6.203125 30.609375 6.203125 
Q 37.796875 6.203125 41.984375 11.859375 
Q 46.1875 17.53125 46.1875 27.296875 
Q 46.1875 37.015625 41.984375 42.703125 
Q 37.796875 48.390625 30.609375 48.390625 
z
M 30.609375 56 
Q 42.328125 56 49.015625 48.375 
Q 55.71875 40.765625 55.71875 27.296875 
Q 55.71875 13.875 49.015625 6.21875 
Q 42.328125 -1.421875 30.609375 -1.421875 
Q 18.84375 -1.421875 12.171875 6.21875 
Q 5.515625 13.875 5.515625 27.296875 
Q 5.515625 40.765625 12.171875 48.375 
Q 18.84375 56 30.609375 56 
z
" id="DejaVuSans-111"/>
      <path d="M 44.28125 53.078125 
L 44.28125 44.578125 
Q 40.484375 46.53125 36.375 47.5 
Q 32.28125 48.484375 27.875 48.484375 
Q 21.1875 48.484375 17.84375 46.4375 
Q 14.5 44.390625 14.5 40.28125 
Q 14.5 37.15625 16.890625 35.375 
Q 19.28125 33.59375 26.515625 31.984375 
L 29.59375 31.296875 
Q 39.15625 29.25 43.1875 25.515625 
Q 47.21875 21.78125 47.21875 15.09375 
Q 47.21875 7.46875 41.1875 3.015625 
Q 35.15625 -1.421875 24.609375 -1.421875 
Q 20.21875 -1.421875 15.453125 -0.5625 
Q 10.6875 0.296875 5.421875 2 
L 5.421875 11.28125 
Q 10.40625 8.6875 15.234375 7.390625 
Q 20.0625 6.109375 24.8125 6.109375 
Q 31.15625 6.109375 34.5625 8.28125 
Q 37.984375 10.453125 37.984375 14.40625 
Q 37.984375 18.0625 35.515625 20.015625 
Q 33.0625 21.96875 24.703125 23.78125 
L 21.578125 24.515625 
Q 13.234375 26.265625 9.515625 29.90625 
Q 5.8125 33.546875 5.8125 39.890625 
Q 5.8125 47.609375 11.28125 51.796875 
Q 16.75 56 26.8125 56 
Q 31.78125 56 36.171875 55.265625 
Q 40.578125 54.546875 44.28125 53.078125 
z
" id="DejaVuSans-115"/>
     </defs>
     <g transform="translate(205.662344 335.860562)scale(0.1 -0.1)">
      <use xlink:href="#DejaVuSans-71"/>
      <use x="77.490234" xlink:href="#DejaVuSans-101"/>
      <use x="139.013672" xlink:href="#DejaVuSans-110"/>
      <use x="202.392578" xlink:href="#DejaVuSans-101"/>
      <use x="263.916016" xlink:href="#DejaVuSans-114"/>
      <use x="305.029297" xlink:href="#DejaVuSans-97"/>
      <use x="366.308594" xlink:href="#DejaVuSans-116"/>
      <use x="405.517578" xlink:href="#DejaVuSans-105"/>
      <use x="433.300781" xlink:href="#DejaVuSans-111"/>
      <use x="494.482422" xlink:href="#DejaVuSans-110"/>
      <use x="557.861328" xlink:href="#DejaVuSans-115"/>
     </g>
    </g>
   </g>
   <g id="matplotlib.axis_2">
    <g id="ytick_1">
     <g id="line2d_15">
      <path clip-path="url(#pbae3401c63)" d="M 57.6 278.046316 
L 414.72 278.046316 
" style="fill:none;stroke:#b0b0b0;stroke-linecap:square;stroke-width:0.8;"/>
     </g>
     <g id="line2d_16">
      <defs>
       <path d="M 0 0 
L -3.5 0 
" id="m2231ad015d" style="stroke:#000000;stroke-width:0.8;"/>
      </defs>
      <g>
       <use style="stroke:#000000;stroke-width:0.8;" x="57.6" xlink:href="#m2231ad015d" y="278.046316"/>
      </g>
     </g>
     <g id="text_9">
      <!-- 500 -->
      <g transform="translate(31.5125 281.845535)scale(0.1 -0.1)">
       <use xlink:href="#DejaVuSans-53"/>
       <use x="63.623047" xlink:href="#DejaVuSans-48"/>
       <use x="127.246094" xlink:href="#DejaVuSans-48"/>
      </g>
     </g>
    </g>
    <g id="ytick_2">
     <g id="line2d_17">
      <path clip-path="url(#pbae3401c63)" d="M 57.6 219.856782 
L 414.72 219.856782 
" style="fill:none;stroke:#b0b0b0;stroke-linecap:square;stroke-width:0.8;"/>
     </g>
     <g id="line2d_18">
      <g>
       <use style="stroke:#000000;stroke-width:0.8;" x="57.6" xlink:href="#m2231ad015d" y="219.856782"/>
      </g>
     </g>
     <g id="text_10">
      <!-- 1000 -->
      <g transform="translate(25.15 223.656001)scale(0.1 -0.1)">
       <use xlink:href="#DejaVuSans-49"/>
       <use x="63.623047" xlink:href="#DejaVuSans-48"/>
       <use x="127.246094" xlink:href="#DejaVuSans-48"/>
       <use x="190.869141" xlink:href="#DejaVuSans-48"/>
      </g>
     </g>
    </g>
    <g id="ytick_3">
     <g id="line2d_19">
      <path clip-path="url(#pbae3401c63)" d="M 57.6 161.667248 
L 414.72 161.667248 
" style="fill:none;stroke:#b0b0b0;stroke-linecap:square;stroke-width:0.8;"/>
     </g>
     <g id="line2d_20">
      <g>
       <use style="stroke:#000000;stroke-width:0.8;" x="57.6" xlink:href="#m2231ad015d" y="161.667248"/>
      </g>
     </g>
     <g id="text_11">
      <!-- 1500 -->
      <g transform="translate(25.15 165.466467)scale(0.1 -0.1)">
       <use xlink:href="#DejaVuSans-49"/>
       <use x="63.623047" xlink:href="#DejaVuSans-53"/>
       <use x="127.246094" xlink:href="#DejaVuSans-48"/>
       <use x="190.869141" xlink:href="#DejaVuSans-48"/>
      </g>
     </g>
    </g>
    <g id="ytick_4">
     <g id="line2d_21">
      <path clip-path="url(#pbae3401c63)" d="M 57.6 103.477714 
L 414.72 103.477714 
" style="fill:none;stroke:#b0b0b0;stroke-linecap:square;stroke-width:0.8;"/>
     </g>
     <g id="line2d_22">
      <g>
       <use style="stroke:#000000;stroke-width:0.8;" x="57.6" xlink:href="#m2231ad015d" y="103.477714"/>
      </g>
     </g>
     <g id="text_12">
      <!-- 2000 -->
      <g transform="translate(25.15 107.276933)scale(0.1 -0.1)">
       <use xlink:href="#DejaVuSans-50"/>
       <use x="63.623047" xlink:href="#DejaVuSans-48"/>
       <use x="127.246094" xlink:href="#DejaVuSans-48"/>
       <use x="190.869141" xlink:href="#DejaVuSans-48"/>
      </g>
     </g>
    </g>
    <g id="ytick_5">
     <g id="line2d_23">
      <path clip-path="url(#pbae3401c63)" d="M 57.6 45.28818 
L 414.72 45.28818 
" style="fill:none;stroke:#b0b0b0;stroke-linecap:square;stroke-width:0.8;"/>
     </g>
     <g id="line2d_24">
      <g>
       <use style="stroke:#000000;stroke-width:0.8;" x="57.6" xlink:href="#m2231ad015d" y="45.28818"/>
      </g>
     </g>
     <g id="text_13">
      <!-- 2500 -->
      <g transform="translate(25.15 49.087399)scale(0.1 -0.1)">
       <use xlink:href="#DejaVuSans-50"/>
       <use x="63.623047" xlink:href="#DejaVuSans-53"/>
       <use x="127.246094" xlink:href="#DejaVuSans-48"/>
       <use x="190.869141" xlink:href="#DejaVuSans-48"/>
      </g>
     </g>
    </g>
    <g id="text_14">
     <!-- Fitness -->
     <defs>
      <path d="M 9.8125 72.90625 
L 51.703125 72.90625 
L 51.703125 64.59375 
L 19.671875 64.59375 
L 19.671875 43.109375 
L 48.578125 43.109375 
L 48.578125 34.8125 
L 19.671875 34.8125 
L 19.671875 0 
L 9.8125 0 
z
" id="DejaVuSans-70"/>
     </defs>
     <g transform="translate(19.070312 192.202219)rotate(-90)scale(0.1 -0.1)">
      <use xlink:href="#DejaVuSans-70"/>
      <use x="57.410156" xlink:href="#DejaVuSans-105"/>
      <use x="85.193359" xlink:href="#DejaVuSans-116"/>
      <use x="124.402344" xlink:href="#DejaVuSans-110"/>
      <use x="187.78125" xlink:href="#DejaVuSans-101"/>
      <use x="249.304688" xlink:href="#DejaVuSans-115"/>
      <use x="301.404297" xlink:href="#DejaVuSans-115"/>
     </g>
    </g>
   </g>
   <g id="line2d_25">
    <path clip-path="url(#pbae3401c63)" d="M 73.832727 279.090507 
L 74.918528 262.096051 
L 76.00433 258.96834 
L 77.090131 256.938816 
L 78.175932 254.255133 
L 79.261733 251.184667 
L 80.347534 250.327676 
L 81.433335 248.940626 
L 82.519137 250.662153 
L 83.604938 242.637779 
L 84.690739 240.414704 
L 85.77654 243.781734 
L 86.862341 239.185199 
L 87.948142 238.519315 
L 89.033943 238.597129 
L 90.119745 244.935745 
L 91.205546 234.914448 
L 92.291347 243.459631 
L 93.377148 243.043174 
L 94.462949 249.826163 
L 95.54875 237.387542 
L 96.634552 229.491687 
L 97.720353 232.899148 
L 98.806154 235.740964 
L 99.891955 232.763905 
L 100.977756 222.928782 
L 102.063557 227.49748 
L 103.149358 225.834387 
L 104.23516 225.049974 
L 105.320961 214.040476 
L 106.406762 209.649495 
L 107.492563 219.070726 
L 108.578364 215.980646 
L 109.664165 202.058994 
L 110.749967 209.831321 
L 111.835768 222.47239 
L 112.921569 219.085362 
L 114.00737 223.649401 
L 115.093171 222.343056 
L 116.178972 202.620604 
L 117.264773 210.801047 
L 118.350575 200.205701 
L 119.436376 197.949413 
L 120.522177 202.043202 
L 121.607978 205.025341 
L 122.693779 206.130255 
L 123.77958 204.126508 
L 124.865382 201.319245 
L 125.951183 207.371479 
L 127.036984 205.913664 
L 128.122785 199.921185 
L 129.208586 209.454971 
L 130.294387 210.193576 
L 131.380189 211.311816 
L 132.46599 202.159932 
L 133.551791 199.473284 
L 134.637592 202.893586 
L 135.723393 195.044984 
L 136.809194 192.150512 
L 137.894995 209.189339 
L 138.980797 202.289779 
L 140.066598 201.788204 
L 141.152399 200.653762 
L 142.2382 194.539075 
L 143.324001 202.292299 
L 144.409802 204.109841 
L 145.495604 212.183081 
L 146.581405 209.328538 
L 147.667206 200.478186 
L 148.753007 194.324954 
L 149.838808 205.48468 
L 150.924609 193.945792 
L 152.01041 180.095542 
L 153.096212 186.351223 
L 154.182013 185.513962 
L 155.267814 180.670254 
L 156.353615 169.145687 
L 157.439416 185.384842 
L 158.525217 190.053349 
L 159.611019 192.179973 
L 160.69682 176.352141 
L 161.782621 180.287103 
L 162.868422 182.748085 
L 163.954223 156.766382 
L 165.040024 171.672034 
L 166.125825 176.399188 
L 167.211627 169.770129 
L 168.297428 173.888304 
L 169.383229 162.952255 
L 171.554831 175.917216 
L 172.640632 175.295262 
L 174.812235 161.300761 
L 175.898036 172.66641 
L 176.983837 166.544055 
L 178.069638 170.369046 
L 179.155439 150.630025 
L 180.24124 172.796889 
L 181.327042 175.553852 
L 182.412843 174.316885 
L 183.498644 173.331169 
L 184.584445 166.322181 
L 185.670246 176.127145 
L 186.756047 154.792685 
L 187.841849 148.786017 
L 190.013451 153.206668 
L 191.099252 172.597038 
L 192.185053 158.723246 
L 193.270854 150.042812 
L 194.356656 153.854297 
L 195.442457 154.774514 
L 196.528258 164.958712 
L 197.614059 171.346271 
L 198.69986 175.92343 
L 199.785661 174.839121 
L 200.871462 169.681232 
L 201.957264 158.435797 
L 203.043065 173.874991 
L 204.128866 171.942964 
L 205.214667 174.950915 
L 206.300468 169.215454 
L 207.386269 154.750762 
L 208.472071 174.912764 
L 209.557872 163.891546 
L 210.643673 168.332635 
L 211.729474 167.299112 
L 212.815275 147.348218 
L 213.901076 179.363365 
L 214.986877 164.607889 
L 216.072679 173.377407 
L 217.15848 162.831497 
L 218.244281 158.529123 
L 219.330082 170.079237 
L 220.415883 167.842661 
L 221.501684 167.748022 
L 222.587486 160.54955 
L 223.673287 161.2396 
L 224.759088 155.1174 
L 225.844889 141.187796 
L 226.93069 157.060155 
L 228.016491 164.156545 
L 229.102292 157.691297 
L 230.188094 160.519608 
L 231.273895 144.496346 
L 232.359696 151.378301 
L 233.445497 164.668381 
L 234.531298 143.219438 
L 235.617099 152.285598 
L 236.702901 151.305581 
L 237.788702 140.731716 
L 238.874503 157.69471 
L 239.960304 151.762961 
L 241.046105 153.040189 
L 242.131906 160.147061 
L 243.217708 157.1309 
L 244.303509 159.768607 
L 245.38931 148.668978 
L 246.475111 166.933058 
L 247.560912 158.840515 
L 248.646713 165.403154 
L 249.732514 153.231349 
L 250.818316 146.085965 
L 251.904117 163.994515 
L 252.989918 155.99791 
L 254.075719 159.291278 
L 255.16152 153.673004 
L 256.247321 167.787548 
L 257.333123 171.944627 
L 258.418924 143.176677 
L 259.504725 151.655425 
L 260.590526 137.733378 
L 261.676327 135.65302 
L 262.762128 145.261827 
L 263.847929 146.784477 
L 264.933731 148.582524 
L 266.019532 138.136876 
L 267.105333 160.578036 
L 269.276935 150.418054 
L 270.362736 140.242695 
L 271.448538 146.164756 
L 272.534339 149.988679 
L 273.62014 150.807253 
L 274.705941 128.310476 
L 275.791742 136.869113 
L 276.877543 152.7296 
L 277.963344 132.106476 
L 279.049146 136.575824 
L 280.134947 138.227903 
L 281.220748 146.562669 
L 282.306549 141.881313 
L 283.39235 144.183621 
L 284.478151 170.696686 
L 285.563953 130.570109 
L 286.649754 126.472119 
L 287.735555 139.435162 
L 288.821356 137.769935 
L 289.907157 147.674944 
L 290.992958 151.22363 
L 292.07876 129.613773 
L 293.164561 139.160435 
L 294.250362 140.073825 
L 295.336163 128.570095 
L 296.421964 129.687173 
L 297.507765 153.357395 
L 298.593566 137.733342 
L 299.679368 139.287223 
L 300.765169 131.339295 
L 301.85097 145.03498 
L 302.936771 127.64226 
L 304.022572 128.379002 
L 306.194175 158.178163 
L 307.279976 127.47348 
L 308.365777 137.126241 
L 309.451578 127.272094 
L 310.537379 132.617861 
L 311.62318 144.332444 
L 312.708981 125.076095 
L 313.794783 152.910906 
L 314.880584 142.997741 
L 315.966385 140.165539 
L 317.052186 148.429667 
L 318.137987 149.165079 
L 319.223788 158.498843 
L 320.30959 151.329396 
L 321.395391 142.973419 
L 322.481192 126.213738 
L 323.566993 166.744012 
L 324.652794 150.91238 
L 325.738595 143.560312 
L 326.824396 168.763641 
L 327.910198 156.834407 
L 328.995999 147.370241 
L 330.0818 142.19675 
L 331.167601 127.914506 
L 332.253402 121.35282 
L 333.339203 132.470562 
L 334.425005 140.952494 
L 335.510806 130.591623 
L 336.596607 136.223728 
L 337.682408 136.579444 
L 338.768209 120.444324 
L 339.85401 136.772223 
L 340.939811 146.999284 
L 342.025613 104.912159 
L 343.111414 166.83521 
L 344.197215 117.628536 
L 345.283016 129.579403 
L 346.368817 129.783361 
L 347.454618 152.505592 
L 348.54042 136.310577 
L 349.626221 144.217403 
L 350.712022 133.127875 
L 351.797823 128.267223 
L 352.883624 155.025368 
L 353.969425 137.627645 
L 355.055227 142.546889 
L 356.141028 141.191018 
L 357.226829 147.351463 
L 358.31263 144.814657 
L 359.398431 145.940442 
L 360.484232 135.850761 
L 361.570033 154.968849 
L 362.655835 144.817164 
L 363.741636 143.765847 
L 364.827437 147.140872 
L 365.913238 166.982183 
L 366.999039 139.496883 
L 368.08484 159.733397 
L 369.170642 155.530999 
L 370.256443 142.864158 
L 372.428045 147.694963 
L 373.513846 131.723073 
L 374.599647 146.361908 
L 375.685448 132.071776 
L 376.77125 145.557845 
L 377.857051 135.94329 
L 378.942852 134.28914 
L 380.028653 152.867286 
L 381.114454 139.509964 
L 382.200255 146.533733 
L 383.286057 136.232989 
L 384.371858 154.727151 
L 385.457659 157.981894 
L 386.54346 143.788239 
L 387.629261 147.167552 
L 388.715062 170.006658 
L 389.800863 131.60846 
L 391.972466 158.420171 
L 393.058267 126.464533 
L 394.144068 158.346003 
L 395.229869 153.467979 
L 396.31567 147.618919 
L 397.401472 162.153059 
L 398.487273 140.536548 
L 398.487273 140.536548 
" style="fill:none;stroke:#0000ff;stroke-linecap:square;stroke-width:1.5;"/>
   </g>
   <g id="line2d_26">
    <path clip-path="url(#pbae3401c63)" d="M 73.832727 295.488 
L 74.918528 273.229621 
L 76.00433 269.639362 
L 77.090131 273.032836 
L 78.175932 274.414331 
L 79.261733 269.507671 
L 80.347534 273.600306 
L 81.433335 274.328325 
L 82.519137 277.943944 
L 83.604938 267.646091 
L 84.690739 268.863324 
L 85.77654 270.72033 
L 86.862341 263.330744 
L 87.948142 264.197307 
L 90.119745 274.18895 
L 91.205546 266.863504 
L 92.291347 276.016468 
L 93.377148 278.651623 
L 94.462949 289.54614 
L 95.54875 272.817963 
L 96.634552 262.620314 
L 97.720353 268.027428 
L 98.806154 265.241044 
L 99.891955 266.558107 
L 100.977756 249.219165 
L 102.063557 256.949875 
L 103.149358 259.374581 
L 104.23516 255.644026 
L 106.406762 239.666957 
L 107.492563 259.105161 
L 108.578364 263.000344 
L 109.664165 236.502984 
L 110.749967 245.113904 
L 111.835768 262.802236 
L 112.921569 263.30488 
L 114.00737 267.775629 
L 115.093171 267.878743 
L 116.178972 248.171778 
L 117.264773 257.032114 
L 118.350575 241.97864 
L 119.436376 235.768258 
L 120.522177 248.387723 
L 122.693779 236.540642 
L 123.77958 239.789349 
L 124.865382 241.369519 
L 125.951183 243.777955 
L 127.036984 248.743946 
L 128.122785 242.334134 
L 129.208586 245.797648 
L 130.294387 248.109679 
L 131.380189 256.689124 
L 132.46599 241.782612 
L 133.551791 245.065466 
L 134.637592 241.71626 
L 135.723393 223.724474 
L 136.809194 223.581022 
L 137.894995 250.710565 
L 138.980797 248.633451 
L 140.066598 243.498171 
L 141.152399 244.862006 
L 142.2382 228.469595 
L 143.324001 242.84386 
L 144.409802 244.737051 
L 145.495604 258.801337 
L 146.581405 255.594331 
L 147.667206 244.183602 
L 148.753007 244.718773 
L 149.838808 266.982458 
L 150.924609 250.362131 
L 152.01041 228.316847 
L 153.096212 231.948392 
L 154.182013 230.774602 
L 155.267814 231.018609 
L 156.353615 220.252859 
L 157.439416 241.914522 
L 158.525217 243.496993 
L 159.611019 237.344849 
L 160.69682 218.806285 
L 161.782621 218.913215 
L 162.868422 225.689352 
L 163.954223 204.782649 
L 165.040024 213.603126 
L 166.125825 216.443251 
L 167.211627 216.807142 
L 168.297428 211.557539 
L 169.383229 203.601224 
L 170.46903 210.991128 
L 171.554831 217.426183 
L 172.640632 209.693789 
L 173.726434 209.375885 
L 174.812235 208.593677 
L 175.898036 209.39524 
L 176.983837 210.580979 
L 178.069638 210.965364 
L 179.155439 194.971029 
L 180.24124 215.136144 
L 181.327042 218.260135 
L 182.412843 214.179256 
L 183.498644 224.841469 
L 184.584445 211.790924 
L 185.670246 218.24904 
L 186.756047 198.475148 
L 187.841849 196.861774 
L 188.92765 202.751436 
L 190.013451 200.880031 
L 191.099252 217.068365 
L 192.185053 211.499008 
L 193.270854 191.011594 
L 194.356656 201.980985 
L 195.442457 208.1628 
L 197.614059 217.017454 
L 198.69986 214.939435 
L 199.785661 232.736814 
L 200.871462 220.787241 
L 201.957264 200.699612 
L 203.043065 228.201014 
L 204.128866 208.260015 
L 205.214667 217.629145 
L 206.300468 235.957874 
L 207.386269 195.408471 
L 208.472071 225.92556 
L 209.557872 207.214985 
L 210.643673 221.789747 
L 211.729474 225.153714 
L 212.815275 202.075008 
L 213.901076 230.474354 
L 214.986877 213.225291 
L 216.072679 227.320574 
L 217.15848 219.384445 
L 218.244281 208.434644 
L 219.330082 225.948119 
L 220.415883 218.569064 
L 221.501684 218.743791 
L 222.587486 206.97628 
L 223.673287 215.38491 
L 224.759088 206.448721 
L 225.844889 192.876513 
L 226.93069 210.965867 
L 228.016491 217.285418 
L 229.102292 209.949352 
L 230.188094 198.114641 
L 231.273895 203.422191 
L 232.359696 196.395274 
L 233.445497 215.421421 
L 234.531298 199.783972 
L 235.617099 197.725507 
L 236.702901 200.052777 
L 237.788702 184.18643 
L 238.874503 197.416362 
L 239.960304 206.367757 
L 241.046105 198.433682 
L 242.131906 202.22121 
L 243.217708 198.68455 
L 244.303509 204.35507 
L 245.38931 200.622444 
L 246.475111 217.050196 
L 247.560912 209.144998 
L 248.646713 210.382815 
L 249.732514 195.652075 
L 250.818316 190.241846 
L 251.904117 205.534965 
L 252.989918 209.843675 
L 254.075719 205.254329 
L 255.16152 203.589005 
L 256.247321 223.320625 
L 257.333123 221.950235 
L 258.418924 204.900882 
L 259.504725 199.847202 
L 260.590526 180.687578 
L 261.676327 190.117877 
L 262.762128 192.255996 
L 263.847929 204.414903 
L 264.933731 202.638203 
L 266.019532 184.520936 
L 267.105333 209.594646 
L 268.191134 214.074989 
L 269.276935 208.804853 
L 270.362736 193.322429 
L 271.448538 200.560744 
L 272.534339 205.440507 
L 273.62014 203.317186 
L 274.705941 181.259377 
L 275.791742 187.36621 
L 276.877543 211.398505 
L 277.963344 179.28232 
L 279.049146 184.119477 
L 280.134947 186.613222 
L 281.220748 201.686639 
L 282.306549 203.897533 
L 283.39235 201.427087 
L 284.478151 224.077131 
L 285.563953 175.396287 
L 286.649754 181.40107 
L 287.735555 199.914443 
L 288.821356 199.039794 
L 289.907157 200.179059 
L 290.992958 202.325242 
L 292.07876 177.417092 
L 293.164561 197.021602 
L 294.250362 197.322657 
L 295.336163 180.274409 
L 296.421964 184.035386 
L 297.507765 206.615658 
L 298.593566 181.47394 
L 299.679368 196.122234 
L 300.765169 185.142368 
L 301.85097 200.134325 
L 302.936771 183.491175 
L 304.022572 180.016755 
L 305.108373 199.061991 
L 306.194175 226.139685 
L 307.279976 179.079987 
L 308.365777 191.849727 
L 309.451578 172.593475 
L 311.62318 209.308275 
L 312.708981 179.098802 
L 313.794783 214.983875 
L 314.880584 196.204875 
L 315.966385 202.16103 
L 317.052186 210.069847 
L 318.137987 212.567088 
L 319.223788 211.444416 
L 320.30959 213.797594 
L 321.395391 196.336789 
L 322.481192 184.796946 
L 323.566993 227.462043 
L 324.652794 216.354261 
L 325.738595 209.858577 
L 326.824396 223.838947 
L 327.910198 214.803339 
L 328.995999 199.613744 
L 330.0818 195.404888 
L 331.167601 177.751733 
L 332.253402 181.009862 
L 333.339203 182.462408 
L 334.425005 195.366684 
L 335.510806 178.001611 
L 336.596607 190.28969 
L 337.682408 198.688398 
L 338.768209 177.993614 
L 339.85401 195.72599 
L 340.939811 200.608982 
L 342.025613 153.569043 
L 343.111414 222.992264 
L 344.197215 171.983234 
L 345.283016 186.650718 
L 346.368817 170.579842 
L 347.454618 209.539503 
L 348.54042 196.850824 
L 349.626221 203.056266 
L 350.712022 181.397285 
L 351.797823 174.26322 
L 352.883624 215.024676 
L 353.969425 196.210498 
L 355.055227 198.208285 
L 356.141028 201.623693 
L 357.226829 205.953572 
L 358.31263 199.408252 
L 359.398431 200.579044 
L 360.484232 188.724614 
L 361.570033 202.050246 
L 362.655835 200.023157 
L 363.741636 191.700482 
L 364.827437 205.894194 
L 365.913238 231.499751 
L 366.999039 204.780503 
L 368.08484 214.814086 
L 369.170642 205.332849 
L 370.256443 187.595213 
L 371.342244 196.273055 
L 372.428045 182.570225 
L 373.513846 187.337102 
L 374.599647 199.031318 
L 375.685448 184.882124 
L 376.77125 203.082819 
L 377.857051 180.161319 
L 378.942852 173.143316 
L 380.028653 197.46958 
L 381.114454 197.440309 
L 382.200255 191.925518 
L 383.286057 180.68359 
L 384.371858 200.034335 
L 385.457659 201.781605 
L 386.54346 186.973704 
L 387.629261 202.669041 
L 388.715062 228.857742 
L 389.800863 178.257275 
L 390.886665 192.751755 
L 391.972466 208.743999 
L 393.058267 189.41143 
L 395.229869 209.526032 
L 396.31567 196.94993 
L 397.401472 207.483478 
L 398.487273 183.381316 
L 398.487273 183.381316 
" style="fill:none;stroke:#008000;stroke-dasharray:9.6,2.4,1.5,2.4;stroke-dashoffset:0;stroke-width:1.5;"/>
   </g>
   <g id="line2d_27">
    <path clip-path="url(#pbae3401c63)" d="M 73.832727 262.693014 
L 74.918528 250.962481 
L 76.00433 248.297319 
L 78.175932 234.095936 
L 79.261733 232.861664 
L 80.347534 227.055046 
L 81.433335 223.552927 
L 82.519137 223.380361 
L 84.690739 211.966083 
L 85.77654 216.843138 
L 86.862341 215.039655 
L 87.948142 212.841323 
L 89.033943 208.23426 
L 90.119745 215.682539 
L 91.205546 202.965391 
L 92.291347 210.902794 
L 93.377148 207.434725 
L 94.462949 210.106187 
L 95.54875 201.957121 
L 96.634552 196.36306 
L 97.720353 197.770868 
L 98.806154 206.240884 
L 99.891955 198.969702 
L 100.977756 196.6384 
L 102.063557 198.045086 
L 103.149358 192.294192 
L 104.23516 194.455921 
L 105.320961 180.77674 
L 106.406762 179.632034 
L 107.492563 179.036291 
L 108.578364 168.960947 
L 109.664165 167.615004 
L 111.835768 182.142545 
L 112.921569 174.865844 
L 114.00737 179.523173 
L 115.093171 176.807369 
L 116.178972 157.069429 
L 117.264773 164.569981 
L 118.350575 158.432761 
L 119.436376 160.130569 
L 120.522177 155.69868 
L 121.607978 167.651726 
L 122.693779 175.719868 
L 124.865382 161.268971 
L 125.951183 170.965002 
L 127.036984 163.083382 
L 128.122785 157.508235 
L 129.208586 173.112293 
L 130.294387 172.277474 
L 131.380189 165.934507 
L 132.46599 162.537253 
L 133.551791 153.881101 
L 134.637592 164.070912 
L 135.723393 166.365493 
L 136.809194 160.720001 
L 137.894995 167.668113 
L 138.980797 155.946107 
L 140.066598 160.078237 
L 141.152399 156.445519 
L 142.2382 160.608555 
L 143.324001 161.740738 
L 144.409802 163.482631 
L 145.495604 165.564824 
L 146.581405 163.062746 
L 147.667206 156.772771 
L 148.753007 143.931135 
L 149.838808 143.986901 
L 150.924609 137.529454 
L 152.01041 131.874236 
L 153.096212 140.754054 
L 154.182013 140.253323 
L 155.267814 130.321899 
L 156.353615 118.038515 
L 157.439416 128.855161 
L 158.525217 136.609705 
L 159.611019 147.015097 
L 160.69682 133.897997 
L 161.782621 141.66099 
L 162.868422 139.806818 
L 163.954223 108.750115 
L 165.040024 129.740942 
L 166.125825 136.355124 
L 167.211627 122.733116 
L 168.297428 136.219069 
L 169.383229 122.303287 
L 170.46903 127.757717 
L 172.640632 140.896735 
L 174.812235 114.007845 
L 175.898036 135.937579 
L 176.983837 122.507131 
L 178.069638 129.772727 
L 179.155439 106.28902 
L 180.24124 130.457635 
L 181.327042 132.847569 
L 182.412843 134.454515 
L 183.498644 121.82087 
L 184.584445 120.853439 
L 185.670246 134.005249 
L 186.756047 111.110222 
L 187.841849 100.710261 
L 188.92765 99.492345 
L 190.013451 105.533304 
L 191.099252 128.125711 
L 192.185053 105.947484 
L 193.270854 109.07403 
L 194.356656 105.72761 
L 195.442457 101.386227 
L 196.528258 117.334095 
L 197.614059 125.675089 
L 198.69986 136.907425 
L 199.785661 116.941427 
L 200.871462 118.575223 
L 201.957264 116.171982 
L 203.043065 119.548969 
L 204.128866 135.625913 
L 205.214667 132.272685 
L 206.300468 102.473034 
L 207.386269 114.093053 
L 208.472071 123.899968 
L 209.557872 120.568106 
L 211.729474 109.44451 
L 212.815275 92.621429 
L 213.901076 128.252376 
L 214.986877 115.990488 
L 216.072679 119.43424 
L 217.15848 106.27855 
L 218.244281 108.623601 
L 219.330082 114.210355 
L 220.415883 117.116257 
L 221.501684 116.752253 
L 222.587486 114.12282 
L 223.673287 107.094289 
L 224.759088 103.78608 
L 225.844889 89.499078 
L 226.93069 103.154443 
L 228.016491 111.027672 
L 229.102292 105.433242 
L 230.188094 122.924576 
L 231.273895 85.570501 
L 232.359696 106.361328 
L 233.445497 113.915342 
L 234.531298 86.654905 
L 235.617099 106.845689 
L 236.702901 102.558386 
L 237.788702 97.277002 
L 238.874503 117.973059 
L 239.960304 97.158166 
L 242.131906 118.072911 
L 243.217708 115.577249 
L 244.303509 115.182144 
L 245.38931 96.715511 
L 246.475111 116.81592 
L 247.560912 108.536033 
L 248.646713 120.423493 
L 250.818316 101.930085 
L 251.904117 122.454066 
L 252.989918 102.152144 
L 254.075719 113.328226 
L 255.16152 103.757003 
L 256.247321 112.254471 
L 257.333123 121.939018 
L 258.418924 81.452472 
L 259.504725 103.463649 
L 260.590526 94.779178 
L 261.676327 81.188163 
L 262.762128 98.267659 
L 263.847929 89.154051 
L 264.933731 94.526846 
L 266.019532 91.752815 
L 267.105333 111.561426 
L 268.191134 96.808811 
L 270.362736 87.16296 
L 271.448538 91.768768 
L 272.534339 94.536852 
L 273.62014 98.29732 
L 274.705941 75.361575 
L 275.791742 86.372016 
L 276.877543 94.060695 
L 277.963344 84.930631 
L 279.049146 89.03217 
L 280.134947 89.842583 
L 281.220748 91.438699 
L 282.306549 79.865093 
L 283.39235 86.940154 
L 284.478151 117.316241 
L 285.563953 85.743932 
L 286.649754 71.543167 
L 287.735555 78.955882 
L 288.821356 76.500076 
L 289.907157 95.170829 
L 290.992958 100.122018 
L 292.07876 81.810455 
L 293.164561 81.299269 
L 294.250362 82.824992 
L 295.336163 76.865782 
L 296.421964 75.33896 
L 297.507765 100.099132 
L 298.593566 93.992744 
L 299.679368 82.452212 
L 300.765169 77.536222 
L 301.85097 89.935635 
L 302.936771 71.793345 
L 304.022572 76.741249 
L 305.108373 87.539599 
L 306.194175 90.21664 
L 307.279976 75.866974 
L 308.365777 82.402755 
L 309.451578 81.950713 
L 310.537379 74.797424 
L 311.62318 79.356613 
L 312.708981 71.053387 
L 313.794783 90.837937 
L 314.880584 89.790607 
L 315.966385 78.170048 
L 317.052186 86.789486 
L 318.137987 85.76307 
L 319.223788 105.55327 
L 320.30959 88.861199 
L 321.395391 89.610049 
L 322.481192 67.63053 
L 323.566993 106.025982 
L 324.652794 85.470499 
L 325.738595 77.262046 
L 326.824396 113.688334 
L 327.910198 98.865476 
L 328.995999 95.126739 
L 330.0818 88.988613 
L 331.167601 78.077278 
L 332.253402 61.695778 
L 333.339203 82.478715 
L 334.425005 86.538304 
L 335.510806 83.181635 
L 336.596607 82.157767 
L 337.682408 74.470491 
L 338.768209 62.895034 
L 340.939811 93.389587 
L 342.025613 56.255276 
L 343.111414 110.678157 
L 344.197215 63.273838 
L 345.283016 72.508088 
L 346.368817 88.986879 
L 347.454618 95.471681 
L 348.54042 75.77033 
L 349.626221 85.37854 
L 350.712022 84.858466 
L 351.797823 82.271226 
L 352.883624 95.026059 
L 353.969425 79.044791 
L 355.055227 86.885493 
L 356.141028 80.758342 
L 357.226829 88.749354 
L 358.31263 90.221063 
L 359.398431 91.301841 
L 360.484232 82.976908 
L 361.570033 107.887451 
L 362.655835 89.611172 
L 363.741636 95.831212 
L 364.827437 88.38755 
L 365.913238 102.464615 
L 366.999039 74.213263 
L 368.08484 104.652708 
L 369.170642 105.729149 
L 370.256443 98.133102 
L 371.342244 94.53339 
L 372.428045 112.819702 
L 373.513846 76.109044 
L 374.599647 93.692498 
L 375.685448 79.261429 
L 376.77125 88.032872 
L 378.942852 95.434964 
L 380.028653 108.264992 
L 381.114454 81.579619 
L 382.200255 101.141948 
L 383.286057 91.782387 
L 384.371858 109.419967 
L 385.457659 114.182184 
L 386.54346 100.602775 
L 387.629261 91.666062 
L 388.715062 111.155573 
L 389.800863 84.959644 
L 390.886665 97.368341 
L 391.972466 108.096343 
L 393.058267 63.517637 
L 394.144068 116.774638 
L 395.229869 97.409926 
L 396.31567 98.287907 
L 397.401472 116.822641 
L 398.487273 97.69178 
L 398.487273 97.69178 
" style="fill:none;stroke:#008000;stroke-dasharray:9.6,2.4,1.5,2.4;stroke-dashoffset:0;stroke-width:1.5;"/>
   </g>
   <g id="line2d_28">
    <path clip-path="url(#pbae3401c63)" d="M 73.832727 252.433267 
L 74.918528 251.521375 
L 76.00433 243.278928 
L 77.090131 230.080578 
L 78.175932 220.745587 
L 79.261733 230.908134 
L 80.347534 223.079165 
L 81.433335 222.416585 
L 82.519137 225.019948 
L 83.604938 212.103272 
L 84.690739 200.816728 
L 85.77654 200.376069 
L 86.862341 210.098126 
L 87.948142 205.828393 
L 89.033943 195.171631 
L 90.119745 204.814748 
L 91.205546 198.870864 
L 92.291347 203.067916 
L 93.377148 195.54365 
L 94.462949 195.052363 
L 95.54875 197.089788 
L 96.634552 191.915876 
L 97.720353 192.387639 
L 98.806154 197.330929 
L 99.891955 196.637154 
L 100.977756 192.135452 
L 102.063557 192.907971 
L 103.149358 189.155934 
L 104.23516 177.890342 
L 105.320961 171.961346 
L 106.406762 164.579713 
L 107.492563 161.30647 
L 108.578364 151.601932 
L 109.664165 161.131256 
L 110.749967 166.961609 
L 111.835768 163.309199 
L 112.921569 152.008248 
L 114.00737 164.587275 
L 115.093171 165.590439 
L 116.178972 152.243061 
L 117.264773 155.666991 
L 118.350575 146.297728 
L 119.436376 152.132505 
L 120.522177 147.899588 
L 121.607978 167.492897 
L 122.693779 157.655203 
L 123.77958 161.523506 
L 124.865382 154.53728 
L 125.951183 160.875096 
L 127.036984 162.400812 
L 128.122785 152.833049 
L 129.208586 168.565386 
L 130.294387 163.289366 
L 131.380189 164.093828 
L 132.46599 154.792349 
L 133.551791 151.240873 
L 134.637592 159.102797 
L 135.723393 159.413599 
L 136.809194 150.442392 
L 137.894995 149.640427 
L 138.980797 146.409366 
L 140.066598 137.368308 
L 141.152399 148.952022 
L 143.324001 158.066222 
L 144.409802 141.117078 
L 145.495604 141.541853 
L 146.581405 151.940409 
L 147.667206 139.236637 
L 149.838808 106.057261 
L 150.924609 113.949572 
L 152.01041 100.581352 
L 153.096212 118.982368 
L 154.182013 126.571375 
L 155.267814 93.875546 
L 156.353615 89.331654 
L 157.439416 88.724046 
L 158.525217 117.525214 
L 159.611019 112.713921 
L 160.69682 122.987659 
L 161.782621 127.306229 
L 162.868422 125.30862 
L 163.954223 80.428866 
L 166.125825 101.230861 
L 167.211627 96.138798 
L 168.297428 107.12702 
L 169.383229 84.061714 
L 170.46903 111.106208 
L 171.554831 107.817295 
L 172.640632 109.954282 
L 173.726434 89.55527 
L 174.812235 84.665384 
L 175.898036 93.003087 
L 176.983837 91.389088 
L 178.069638 94.241542 
L 179.155439 73.715825 
L 180.24124 104.334732 
L 181.327042 91.642186 
L 182.412843 103.52383 
L 183.498644 94.763949 
L 184.584445 91.068531 
L 185.670246 103.647156 
L 186.756047 75.647445 
L 187.841849 79.993109 
L 188.92765 64.12341 
L 190.013451 77.021427 
L 191.099252 96.248989 
L 192.185053 72.758041 
L 193.270854 92.319974 
L 194.356656 80.931845 
L 196.528258 91.688648 
L 197.614059 116.509836 
L 199.785661 100.437634 
L 200.871462 83.990429 
L 201.957264 83.996104 
L 203.043065 81.726894 
L 204.128866 84.823739 
L 205.214667 104.343352 
L 206.300468 70.041327 
L 207.386269 91.865715 
L 208.472071 98.117278 
L 209.557872 98.179154 
L 210.643673 94.792417 
L 211.729474 90.000513 
L 212.815275 75.741311 
L 213.901076 101.367131 
L 214.986877 82.006699 
L 216.072679 88.178428 
L 217.15848 83.711969 
L 219.330082 78.721059 
L 221.501684 95.452883 
L 222.587486 97.879399 
L 223.673287 80.169217 
L 224.759088 74.084156 
L 225.844889 72.209638 
L 226.93069 73.528182 
L 228.016491 90.492264 
L 229.102292 77.95794 
L 230.188094 101.140048 
L 231.273895 72.768744 
L 232.359696 80.744373 
L 233.445497 91.6014 
L 234.531298 76.942132 
L 235.617099 81.085455 
L 236.702901 90.221372 
L 237.788702 84.200952 
L 238.874503 91.806446 
L 239.960304 75.0041 
L 241.046105 88.674043 
L 242.131906 92.339232 
L 243.217708 79.752811 
L 244.303509 93.791563 
L 245.38931 61.906196 
L 246.475111 92.221304 
L 247.560912 75.105001 
L 248.646713 99.292715 
L 249.732514 96.875463 
L 250.818316 88.771776 
L 251.904117 98.970539 
L 252.989918 86.661757 
L 254.075719 93.100688 
L 255.16152 81.977905 
L 256.247321 93.534506 
L 257.333123 102.843292 
L 258.418924 75.342769 
L 259.504725 85.948559 
L 260.590526 81.370402 
L 261.676327 73.894055 
L 262.762128 88.215615 
L 263.847929 82.534252 
L 264.933731 83.395541 
L 266.019532 79.969656 
L 267.105333 93.974382 
L 268.191134 70.376931 
L 269.276935 67.829169 
L 270.362736 61.536554 
L 271.448538 86.976931 
L 272.534339 85.061612 
L 273.62014 76.176297 
L 274.705941 63.402007 
L 275.791742 82.664972 
L 276.877543 90.697943 
L 277.963344 73.101097 
L 279.049146 83.430276 
L 280.134947 72.225999 
L 281.220748 78.803303 
L 282.306549 69.536426 
L 283.39235 75.518116 
L 284.478151 97.013522 
L 285.563953 77.399687 
L 286.649754 53.568 
L 287.735555 67.599673 
L 288.821356 76.114461 
L 289.907157 80.211733 
L 290.992958 90.815082 
L 292.07876 67.026811 
L 293.164561 71.114305 
L 294.250362 77.910133 
L 295.336163 72.371885 
L 296.421964 75.010251 
L 297.507765 100.340573 
L 298.593566 80.458697 
L 299.679368 75.932492 
L 300.765169 64.945015 
L 301.85097 81.05157 
L 302.936771 65.339549 
L 304.022572 67.814883 
L 305.108373 87.269849 
L 306.194175 81.549851 
L 307.279976 67.667579 
L 308.365777 75.884253 
L 309.451578 65.478675 
L 310.537379 67.178552 
L 311.62318 68.160856 
L 312.708981 66.025428 
L 313.794783 80.888327 
L 314.880584 78.545026 
L 315.966385 63.978774 
L 317.052186 83.807252 
L 318.137987 66.135961 
L 319.223788 93.699024 
L 320.30959 73.916222 
L 321.395391 81.415663 
L 322.481192 66.961295 
L 323.566993 87.594875 
L 324.652794 77.036798 
L 325.738595 64.076253 
L 326.824396 85.21 
L 327.910198 81.120034 
L 328.995999 83.744194 
L 330.0818 78.389047 
L 331.167601 69.1669 
L 332.253402 55.50968 
L 333.339203 77.948122 
L 334.425005 82.023358 
L 335.510806 75.658069 
L 336.596607 75.885546 
L 337.682408 72.420622 
L 338.768209 57.321683 
L 339.85401 59.550457 
L 340.939811 90.597517 
L 342.025613 57.047987 
L 343.111414 90.311839 
L 344.197215 54.578836 
L 345.283016 69.318699 
L 346.368817 86.620814 
L 347.454618 81.320857 
L 348.54042 79.358202 
L 350.712022 73.103182 
L 351.797823 89.094863 
L 352.883624 94.008131 
L 353.969425 71.315797 
L 355.055227 69.592148 
L 356.141028 68.599768 
L 357.226829 64.830228 
L 358.31263 66.353444 
L 359.398431 83.903369 
L 360.484232 77.790854 
L 361.570033 92.922811 
L 362.655835 84.148956 
L 363.741636 82.403597 
L 364.827437 76.121011 
L 365.913238 73.359454 
L 366.999039 63.336344 
L 368.08484 81.990855 
L 369.170642 97.25288 
L 370.256443 93.346849 
L 371.342244 83.389241 
L 372.428045 86.75145 
L 373.513846 73.240798 
L 374.599647 79.119595 
L 375.685448 63.375079 
L 376.77125 84.911664 
L 377.857051 83.213431 
L 378.942852 85.152883 
L 380.028653 102.433692 
L 381.114454 82.130973 
L 382.200255 85.875613 
L 383.286057 85.62197 
L 384.371858 86.985023 
L 385.457659 97.715847 
L 386.54346 76.349388 
L 387.629261 79.514833 
L 388.715062 96.197189 
L 389.800863 86.118576 
L 390.886665 87.666545 
L 391.972466 93.127504 
L 393.058267 64.342366 
L 394.144068 96.048153 
L 395.229869 82.412981 
L 396.31567 95.783674 
L 397.401472 105.618795 
L 398.487273 93.122274 
L 398.487273 93.122274 
" style="fill:none;stroke:#ff0000;stroke-linecap:square;stroke-width:1.5;"/>
   </g>
   <g id="patch_3">
    <path d="M 57.6 307.584 
L 57.6 41.472 
" style="fill:none;stroke:#000000;stroke-linecap:square;stroke-linejoin:miter;stroke-width:0.8;"/>
   </g>
   <g id="patch_4">
    <path d="M 414.72 307.584 
L 414.72 41.472 
" style="fill:none;stroke:#000000;stroke-linecap:square;stroke-linejoin:miter;stroke-width:0.8;"/>
   </g>
   <g id="patch_5">
    <path d="M 57.6 307.584 
L 414.72 307.584 
" style="fill:none;stroke:#000000;stroke-linecap:square;stroke-linejoin:miter;stroke-width:0.8;"/>
   </g>
   <g id="patch_6">
    <path d="M 57.6 41.472 
L 414.72 41.472 
" style="fill:none;stroke:#000000;stroke-linecap:square;stroke-linejoin:miter;stroke-width:0.8;"/>
   </g>
   <g id="text_15">
    <!-- Population's average and best fitness -->
    <defs>
     <path d="M 19.671875 64.796875 
L 19.671875 37.40625 
L 32.078125 37.40625 
Q 38.96875 37.40625 42.71875 40.96875 
Q 46.484375 44.53125 46.484375 51.125 
Q 46.484375 57.671875 42.71875 61.234375 
Q 38.96875 64.796875 32.078125 64.796875 
z
M 9.8125 72.90625 
L 32.078125 72.90625 
Q 44.34375 72.90625 50.609375 67.359375 
Q 56.890625 61.8125 56.890625 51.125 
Q 56.890625 40.328125 50.609375 34.8125 
Q 44.34375 29.296875 32.078125 29.296875 
L 19.671875 29.296875 
L 19.671875 0 
L 9.8125 0 
z
" id="DejaVuSans-80"/>
     <path d="M 18.109375 8.203125 
L 18.109375 -20.796875 
L 9.078125 -20.796875 
L 9.078125 54.6875 
L 18.109375 54.6875 
L 18.109375 46.390625 
Q 20.953125 51.265625 25.265625 53.625 
Q 29.59375 56 35.59375 56 
Q 45.5625 56 51.78125 48.09375 
Q 58.015625 40.1875 58.015625 27.296875 
Q 58.015625 14.40625 51.78125 6.484375 
Q 45.5625 -1.421875 35.59375 -1.421875 
Q 29.59375 -1.421875 25.265625 0.953125 
Q 20.953125 3.328125 18.109375 8.203125 
z
M 48.6875 27.296875 
Q 48.6875 37.203125 44.609375 42.84375 
Q 40.53125 48.484375 33.40625 48.484375 
Q 26.265625 48.484375 22.1875 42.84375 
Q 18.109375 37.203125 18.109375 27.296875 
Q 18.109375 17.390625 22.1875 11.75 
Q 26.265625 6.109375 33.40625 6.109375 
Q 40.53125 6.109375 44.609375 11.75 
Q 48.6875 17.390625 48.6875 27.296875 
z
" id="DejaVuSans-112"/>
     <path d="M 8.5 21.578125 
L 8.5 54.6875 
L 17.484375 54.6875 
L 17.484375 21.921875 
Q 17.484375 14.15625 20.5 10.265625 
Q 23.53125 6.390625 29.59375 6.390625 
Q 36.859375 6.390625 41.078125 11.03125 
Q 45.3125 15.671875 45.3125 23.6875 
L 45.3125 54.6875 
L 54.296875 54.6875 
L 54.296875 0 
L 45.3125 0 
L 45.3125 8.40625 
Q 42.046875 3.421875 37.71875 1 
Q 33.40625 -1.421875 27.6875 -1.421875 
Q 18.265625 -1.421875 13.375 4.4375 
Q 8.5 10.296875 8.5 21.578125 
z
M 31.109375 56 
z
" id="DejaVuSans-117"/>
     <path d="M 9.421875 75.984375 
L 18.40625 75.984375 
L 18.40625 0 
L 9.421875 0 
z
" id="DejaVuSans-108"/>
     <path d="M 17.921875 72.90625 
L 17.921875 45.796875 
L 9.625 45.796875 
L 9.625 72.90625 
z
" id="DejaVuSans-39"/>
     <path id="DejaVuSans-32"/>
     <path d="M 2.984375 54.6875 
L 12.5 54.6875 
L 29.59375 8.796875 
L 46.6875 54.6875 
L 56.203125 54.6875 
L 35.6875 0 
L 23.484375 0 
z
" id="DejaVuSans-118"/>
     <path d="M 45.40625 27.984375 
Q 45.40625 37.75 41.375 43.109375 
Q 37.359375 48.484375 30.078125 48.484375 
Q 22.859375 48.484375 18.828125 43.109375 
Q 14.796875 37.75 14.796875 27.984375 
Q 14.796875 18.265625 18.828125 12.890625 
Q 22.859375 7.515625 30.078125 7.515625 
Q 37.359375 7.515625 41.375 12.890625 
Q 45.40625 18.265625 45.40625 27.984375 
z
M 54.390625 6.78125 
Q 54.390625 -7.171875 48.1875 -13.984375 
Q 42 -20.796875 29.203125 -20.796875 
Q 24.46875 -20.796875 20.265625 -20.09375 
Q 16.0625 -19.390625 12.109375 -17.921875 
L 12.109375 -9.1875 
Q 16.0625 -11.328125 19.921875 -12.34375 
Q 23.78125 -13.375 27.78125 -13.375 
Q 36.625 -13.375 41.015625 -8.765625 
Q 45.40625 -4.15625 45.40625 5.171875 
L 45.40625 9.625 
Q 42.625 4.78125 38.28125 2.390625 
Q 33.9375 0 27.875 0 
Q 17.828125 0 11.671875 7.65625 
Q 5.515625 15.328125 5.515625 27.984375 
Q 5.515625 40.671875 11.671875 48.328125 
Q 17.828125 56 27.875 56 
Q 33.9375 56 38.28125 53.609375 
Q 42.625 51.21875 45.40625 46.390625 
L 45.40625 54.6875 
L 54.390625 54.6875 
z
" id="DejaVuSans-103"/>
     <path d="M 45.40625 46.390625 
L 45.40625 75.984375 
L 54.390625 75.984375 
L 54.390625 0 
L 45.40625 0 
L 45.40625 8.203125 
Q 42.578125 3.328125 38.25 0.953125 
Q 33.9375 -1.421875 27.875 -1.421875 
Q 17.96875 -1.421875 11.734375 6.484375 
Q 5.515625 14.40625 5.515625 27.296875 
Q 5.515625 40.1875 11.734375 48.09375 
Q 17.96875 56 27.875 56 
Q 33.9375 56 38.25 53.625 
Q 42.578125 51.265625 45.40625 46.390625 
z
M 14.796875 27.296875 
Q 14.796875 17.390625 18.875 11.75 
Q 22.953125 6.109375 30.078125 6.109375 
Q 37.203125 6.109375 41.296875 11.75 
Q 45.40625 17.390625 45.40625 27.296875 
Q 45.40625 37.203125 41.296875 42.84375 
Q 37.203125 48.484375 30.078125 48.484375 
Q 22.953125 48.484375 18.875 42.84375 
Q 14.796875 37.203125 14.796875 27.296875 
z
" id="DejaVuSans-100"/>
     <path d="M 48.6875 27.296875 
Q 48.6875 37.203125 44.609375 42.84375 
Q 40.53125 48.484375 33.40625 48.484375 
Q 26.265625 48.484375 22.1875 42.84375 
Q 18.109375 37.203125 18.109375 27.296875 
Q 18.109375 17.390625 22.1875 11.75 
Q 26.265625 6.109375 33.40625 6.109375 
Q 40.53125 6.109375 44.609375 11.75 
Q 48.6875 17.390625 48.6875 27.296875 
z
M 18.109375 46.390625 
Q 20.953125 51.265625 25.265625 53.625 
Q 29.59375 56 35.59375 56 
Q 45.5625 56 51.78125 48.09375 
Q 58.015625 40.1875 58.015625 27.296875 
Q 58.015625 14.40625 51.78125 6.484375 
Q 45.5625 -1.421875 35.59375 -1.421875 
Q 29.59375 -1.421875 25.265625 0.953125 
Q 20.953125 3.328125 18.109375 8.203125 
L 18.109375 0 
L 9.078125 0 
L 9.078125 75.984375 
L 18.109375 75.984375 
z
" id="DejaVuSans-98"/>
     <path d="M 37.109375 75.984375 
L 37.109375 68.5 
L 28.515625 68.5 
Q 23.6875 68.5 21.796875 66.546875 
Q 19.921875 64.59375 19.921875 59.515625 
L 19.921875 54.6875 
L 34.71875 54.6875 
L 34.71875 47.703125 
L 19.921875 47.703125 
L 19.921875 0 
L 10.890625 0 
L 10.890625 47.703125 
L 2.296875 47.703125 
L 2.296875 54.6875 
L 10.890625 54.6875 
L 10.890625 58.5 
Q 10.890625 67.625 15.140625 71.796875 
Q 19.390625 75.984375 28.609375 75.984375 
z
" id="DejaVuSans-102"/>
    </defs>
    <g transform="translate(123.315 35.472)scale(0.12 -0.12)">
     <use xlink:href="#DejaVuSans-80"/>
     <use x="60.255859" xlink:href="#DejaVuSans-111"/>
     <use x="121.4375" xlink:href="#DejaVuSans-112"/>
     <use x="184.914062" xlink:href="#DejaVuSans-117"/>
     <use x="248.292969" xlink:href="#DejaVuSans-108"/>
     <use x="276.076172" xlink:href="#DejaVuSans-97"/>
     <use x="337.355469" xlink:href="#DejaVuSans-116"/>
     <use x="376.564453" xlink:href="#DejaVuSans-105"/>
     <use x="404.347656" xlink:href="#DejaVuSans-111"/>
     <use x="465.529297" xlink:href="#DejaVuSans-110"/>
     <use x="528.908203" xlink:href="#DejaVuSans-39"/>
     <use x="556.398438" xlink:href="#DejaVuSans-115"/>
     <use x="608.498047" xlink:href="#DejaVuSans-32"/>
     <use x="640.285156" xlink:href="#DejaVuSans-97"/>
     <use x="701.564453" xlink:href="#DejaVuSans-118"/>
     <use x="760.744141" xlink:href="#DejaVuSans-101"/>
     <use x="822.267578" xlink:href="#DejaVuSans-114"/>
     <use x="863.380859" xlink:href="#DejaVuSans-97"/>
     <use x="924.660156" xlink:href="#DejaVuSans-103"/>
     <use x="988.136719" xlink:href="#DejaVuSans-101"/>
     <use x="1049.660156" xlink:href="#DejaVuSans-32"/>
     <use x="1081.447266" xlink:href="#DejaVuSans-97"/>
     <use x="1142.726562" xlink:href="#DejaVuSans-110"/>
     <use x="1206.105469" xlink:href="#DejaVuSans-100"/>
     <use x="1269.582031" xlink:href="#DejaVuSans-32"/>
     <use x="1301.369141" xlink:href="#DejaVuSans-98"/>
     <use x="1364.845703" xlink:href="#DejaVuSans-101"/>
     <use x="1426.369141" xlink:href="#DejaVuSans-115"/>
     <use x="1478.46875" xlink:href="#DejaVuSans-116"/>
     <use x="1517.677734" xlink:href="#DejaVuSans-32"/>
     <use x="1549.464844" xlink:href="#DejaVuSans-102"/>
     <use x="1584.669922" xlink:href="#DejaVuSans-105"/>
     <use x="1612.453125" xlink:href="#DejaVuSans-116"/>
     <use x="1651.662109" xlink:href="#DejaVuSans-110"/>
     <use x="1715.041016" xlink:href="#DejaVuSans-101"/>
     <use x="1776.564453" xlink:href="#DejaVuSans-115"/>
     <use x="1828.664062" xlink:href="#DejaVuSans-115"/>
    </g>
   </g>
   <g id="legend_1">
    <g id="patch_7">
     <path d="M 64.6 108.1845 
L 137.540625 108.1845 
Q 139.540625 108.1845 139.540625 106.1845 
L 139.540625 48.472 
Q 139.540625 46.472 137.540625 46.472 
L 64.6 46.472 
Q 62.6 46.472 62.6 48.472 
L 62.6 106.1845 
Q 62.6 108.1845 64.6 108.1845 
z
" style="fill:#ffffff;opacity:0.8;stroke:#cccccc;stroke-linejoin:miter;"/>
    </g>
    <g id="line2d_29">
     <path d="M 66.6 54.570438 
L 86.6 54.570438 
" style="fill:none;stroke:#0000ff;stroke-linecap:square;stroke-width:1.5;"/>
    </g>
    <g id="line2d_30"/>
    <g id="text_16">
     <!-- average -->
     <g transform="translate(94.6 58.070438)scale(0.1 -0.1)">
      <use xlink:href="#DejaVuSans-97"/>
      <use x="61.279297" xlink:href="#DejaVuSans-118"/>
      <use x="120.458984" xlink:href="#DejaVuSans-101"/>
      <use x="181.982422" xlink:href="#DejaVuSans-114"/>
      <use x="223.095703" xlink:href="#DejaVuSans-97"/>
      <use x="284.375" xlink:href="#DejaVuSans-103"/>
      <use x="347.851562" xlink:href="#DejaVuSans-101"/>
     </g>
    </g>
    <g id="line2d_31">
     <path d="M 66.6 69.248563 
L 86.6 69.248563 
" style="fill:none;stroke:#008000;stroke-dasharray:9.6,2.4,1.5,2.4;stroke-dashoffset:0;stroke-width:1.5;"/>
    </g>
    <g id="line2d_32"/>
    <g id="text_17">
     <!-- -1 sd -->
     <defs>
      <path d="M 4.890625 31.390625 
L 31.203125 31.390625 
L 31.203125 23.390625 
L 4.890625 23.390625 
z
" id="DejaVuSans-45"/>
     </defs>
     <g transform="translate(94.6 72.748563)scale(0.1 -0.1)">
      <use xlink:href="#DejaVuSans-45"/>
      <use x="36.083984" xlink:href="#DejaVuSans-49"/>
      <use x="99.707031" xlink:href="#DejaVuSans-32"/>
      <use x="131.494141" xlink:href="#DejaVuSans-115"/>
      <use x="183.59375" xlink:href="#DejaVuSans-100"/>
     </g>
    </g>
    <g id="line2d_33">
     <path d="M 66.6 83.926688 
L 86.6 83.926688 
" style="fill:none;stroke:#008000;stroke-dasharray:9.6,2.4,1.5,2.4;stroke-dashoffset:0;stroke-width:1.5;"/>
    </g>
    <g id="line2d_34"/>
    <g id="text_18">
     <!-- +1 sd -->
     <defs>
      <path d="M 46 62.703125 
L 46 35.5 
L 73.1875 35.5 
L 73.1875 27.203125 
L 46 27.203125 
L 46 0 
L 37.796875 0 
L 37.796875 27.203125 
L 10.59375 27.203125 
L 10.59375 35.5 
L 37.796875 35.5 
L 37.796875 62.703125 
z
" id="DejaVuSans-43"/>
     </defs>
     <g transform="translate(94.6 87.426688)scale(0.1 -0.1)">
      <use xlink:href="#DejaVuSans-43"/>
      <use x="83.789062" xlink:href="#DejaVuSans-49"/>
      <use x="147.412109" xlink:href="#DejaVuSans-32"/>
      <use x="179.199219" xlink:href="#DejaVuSans-115"/>
      <use x="231.298828" xlink:href="#DejaVuSans-100"/>
     </g>
    </g>
    <g id="line2d_35">
     <path d="M 66.6 98.604813 
L 86.6 98.604813 
" style="fill:none;stroke:#ff0000;stroke-linecap:square;stroke-width:1.5;"/>
    </g>
    <g id="line2d_36"/>
    <g id="text_19">
     <!-- best -->
     <g transform="translate(94.6 102.104813)scale(0.1 -0.1)">
      <use xlink:href="#DejaVuSans-98"/>
      <use x="63.476562" xlink:href="#DejaVuSans-101"/>
      <use x="125" xlink:href="#DejaVuSans-115"/>
      <use x="177.099609" xlink:href="#DejaVuSans-116"/>
     </g>
    </g>
   </g>
  </g>
 </g>
 <defs>
  <clipPath id="pbae3401c63">
   <rect height="266.112" width="357.12" x="57.6" y="41.472"/>
  </clipPath>
 </defs>
</svg>
