<?xml version="1.0" encoding="utf-8" standalone="no"?>
<!DOCTYPE svg PUBLIC "-//W3C//DTD SVG 1.1//EN"
  "http://www.w3.org/Graphics/SVG/1.1/DTD/svg11.dtd">
<!-- Created with matplotlib (https://matplotlib.org/) -->
<svg height="345.6pt" version="1.1" viewBox="0 0 460.8 345.6" width="460.8pt" xmlns="http://www.w3.org/2000/svg" xmlns:xlink="http://www.w3.org/1999/xlink">
 <defs>
  <style type="text/css">
*{stroke-linecap:butt;stroke-linejoin:round;}
  </style>
 </defs>
 <g id="figure_1">
  <g id="patch_1">
   <path d="M 0 345.6 
L 460.8 345.6 
L 460.8 0 
L 0 0 
z
" style="fill:#ffffff;"/>
  </g>
  <g id="axes_1">
   <g id="patch_2">
    <path d="M 57.6 307.584 
L 414.72 307.584 
L 414.72 41.472 
L 57.6 41.472 
z
" style="fill:#ffffff;"/>
   </g>
   <g id="matplotlib.axis_1">
    <g id="xtick_1">
     <g id="line2d_1">
      <path clip-path="url(#p9537f0cfef)" d="M 73.832727 307.584 
L 73.832727 41.472 
" style="fill:none;stroke:#b0b0b0;stroke-linecap:square;stroke-width:0.8;"/>
     </g>
     <g id="line2d_2">
      <defs>
       <path d="M 0 0 
L 0 3.5 
" id="m7059c4aed0" style="stroke:#000000;stroke-width:0.8;"/>
      </defs>
      <g>
       <use style="stroke:#000000;stroke-width:0.8;" x="73.832727" xlink:href="#m7059c4aed0" y="307.584"/>
      </g>
     </g>
     <g id="text_1">
      <!-- 0 -->
      <defs>
       <path d="M 31.78125 66.40625 
Q 24.171875 66.40625 20.328125 58.90625 
Q 16.5 51.421875 16.5 36.375 
Q 16.5 21.390625 20.328125 13.890625 
Q 24.171875 6.390625 31.78125 6.390625 
Q 39.453125 6.390625 43.28125 13.890625 
Q 47.125 21.390625 47.125 36.375 
Q 47.125 51.421875 43.28125 58.90625 
Q 39.453125 66.40625 31.78125 66.40625 
z
M 31.78125 74.21875 
Q 44.046875 74.21875 50.515625 64.515625 
Q 56.984375 54.828125 56.984375 36.375 
Q 56.984375 17.96875 50.515625 8.265625 
Q 44.046875 -1.421875 31.78125 -1.421875 
Q 19.53125 -1.421875 13.0625 8.265625 
Q 6.59375 17.96875 6.59375 36.375 
Q 6.59375 54.828125 13.0625 64.515625 
Q 19.53125 74.21875 31.78125 74.21875 
z
" id="DejaVuSans-48"/>
      </defs>
      <g transform="translate(70.651477 322.182437)scale(0.1 -0.1)">
       <use xlink:href="#DejaVuSans-48"/>
      </g>
     </g>
    </g>
    <g id="xtick_2">
     <g id="line2d_3">
      <path clip-path="url(#p9537f0cfef)" d="M 128.122785 307.584 
L 128.122785 41.472 
" style="fill:none;stroke:#b0b0b0;stroke-linecap:square;stroke-width:0.8;"/>
     </g>
     <g id="line2d_4">
      <g>
       <use style="stroke:#000000;stroke-width:0.8;" x="128.122785" xlink:href="#m7059c4aed0" y="307.584"/>
      </g>
     </g>
     <g id="text_2">
      <!-- 50 -->
      <defs>
       <path d="M 10.796875 72.90625 
L 49.515625 72.90625 
L 49.515625 64.59375 
L 19.828125 64.59375 
L 19.828125 46.734375 
Q 21.96875 47.46875 24.109375 47.828125 
Q 26.265625 48.1875 28.421875 48.1875 
Q 40.625 48.1875 47.75 41.5 
Q 54.890625 34.8125 54.890625 23.390625 
Q 54.890625 11.625 47.5625 5.09375 
Q 40.234375 -1.421875 26.90625 -1.421875 
Q 22.3125 -1.421875 17.546875 -0.640625 
Q 12.796875 0.140625 7.71875 1.703125 
L 7.71875 11.625 
Q 12.109375 9.234375 16.796875 8.0625 
Q 21.484375 6.890625 26.703125 6.890625 
Q 35.15625 6.890625 40.078125 11.328125 
Q 45.015625 15.765625 45.015625 23.390625 
Q 45.015625 31 40.078125 35.4375 
Q 35.15625 39.890625 26.703125 39.890625 
Q 22.75 39.890625 18.8125 39.015625 
Q 14.890625 38.140625 10.796875 36.28125 
z
" id="DejaVuSans-53"/>
      </defs>
      <g transform="translate(121.760285 322.182437)scale(0.1 -0.1)">
       <use xlink:href="#DejaVuSans-53"/>
       <use x="63.623047" xlink:href="#DejaVuSans-48"/>
      </g>
     </g>
    </g>
    <g id="xtick_3">
     <g id="line2d_5">
      <path clip-path="url(#p9537f0cfef)" d="M 182.412843 307.584 
L 182.412843 41.472 
" style="fill:none;stroke:#b0b0b0;stroke-linecap:square;stroke-width:0.8;"/>
     </g>
     <g id="line2d_6">
      <g>
       <use style="stroke:#000000;stroke-width:0.8;" x="182.412843" xlink:href="#m7059c4aed0" y="307.584"/>
      </g>
     </g>
     <g id="text_3">
      <!-- 100 -->
      <defs>
       <path d="M 12.40625 8.296875 
L 28.515625 8.296875 
L 28.515625 63.921875 
L 10.984375 60.40625 
L 10.984375 69.390625 
L 28.421875 72.90625 
L 38.28125 72.90625 
L 38.28125 8.296875 
L 54.390625 8.296875 
L 54.390625 0 
L 12.40625 0 
z
" id="DejaVuSans-49"/>
      </defs>
      <g transform="translate(172.869093 322.182437)scale(0.1 -0.1)">
       <use xlink:href="#DejaVuSans-49"/>
       <use x="63.623047" xlink:href="#DejaVuSans-48"/>
       <use x="127.246094" xlink:href="#DejaVuSans-48"/>
      </g>
     </g>
    </g>
    <g id="xtick_4">
     <g id="line2d_7">
      <path clip-path="url(#p9537f0cfef)" d="M 236.702901 307.584 
L 236.702901 41.472 
" style="fill:none;stroke:#b0b0b0;stroke-linecap:square;stroke-width:0.8;"/>
     </g>
     <g id="line2d_8">
      <g>
       <use style="stroke:#000000;stroke-width:0.8;" x="236.702901" xlink:href="#m7059c4aed0" y="307.584"/>
      </g>
     </g>
     <g id="text_4">
      <!-- 150 -->
      <g transform="translate(227.159151 322.182437)scale(0.1 -0.1)">
       <use xlink:href="#DejaVuSans-49"/>
       <use x="63.623047" xlink:href="#DejaVuSans-53"/>
       <use x="127.246094" xlink:href="#DejaVuSans-48"/>
      </g>
     </g>
    </g>
    <g id="xtick_5">
     <g id="line2d_9">
      <path clip-path="url(#p9537f0cfef)" d="M 290.992958 307.584 
L 290.992958 41.472 
" style="fill:none;stroke:#b0b0b0;stroke-linecap:square;stroke-width:0.8;"/>
     </g>
     <g id="line2d_10">
      <g>
       <use style="stroke:#000000;stroke-width:0.8;" x="290.992958" xlink:href="#m7059c4aed0" y="307.584"/>
      </g>
     </g>
     <g id="text_5">
      <!-- 200 -->
      <defs>
       <path d="M 19.1875 8.296875 
L 53.609375 8.296875 
L 53.609375 0 
L 7.328125 0 
L 7.328125 8.296875 
Q 12.9375 14.109375 22.625 23.890625 
Q 32.328125 33.6875 34.8125 36.53125 
Q 39.546875 41.84375 41.421875 45.53125 
Q 43.3125 49.21875 43.3125 52.78125 
Q 43.3125 58.59375 39.234375 62.25 
Q 35.15625 65.921875 28.609375 65.921875 
Q 23.96875 65.921875 18.8125 64.3125 
Q 13.671875 62.703125 7.8125 59.421875 
L 7.8125 69.390625 
Q 13.765625 71.78125 18.9375 73 
Q 24.125 74.21875 28.421875 74.21875 
Q 39.75 74.21875 46.484375 68.546875 
Q 53.21875 62.890625 53.21875 53.421875 
Q 53.21875 48.921875 51.53125 44.890625 
Q 49.859375 40.875 45.40625 35.40625 
Q 44.1875 33.984375 37.640625 27.21875 
Q 31.109375 20.453125 19.1875 8.296875 
z
" id="DejaVuSans-50"/>
      </defs>
      <g transform="translate(281.449208 322.182437)scale(0.1 -0.1)">
       <use xlink:href="#DejaVuSans-50"/>
       <use x="63.623047" xlink:href="#DejaVuSans-48"/>
       <use x="127.246094" xlink:href="#DejaVuSans-48"/>
      </g>
     </g>
    </g>
    <g id="xtick_6">
     <g id="line2d_11">
      <path clip-path="url(#p9537f0cfef)" d="M 345.283016 307.584 
L 345.283016 41.472 
" style="fill:none;stroke:#b0b0b0;stroke-linecap:square;stroke-width:0.8;"/>
     </g>
     <g id="line2d_12">
      <g>
       <use style="stroke:#000000;stroke-width:0.8;" x="345.283016" xlink:href="#m7059c4aed0" y="307.584"/>
      </g>
     </g>
     <g id="text_6">
      <!-- 250 -->
      <g transform="translate(335.739266 322.182437)scale(0.1 -0.1)">
       <use xlink:href="#DejaVuSans-50"/>
       <use x="63.623047" xlink:href="#DejaVuSans-53"/>
       <use x="127.246094" xlink:href="#DejaVuSans-48"/>
      </g>
     </g>
    </g>
    <g id="xtick_7">
     <g id="line2d_13">
      <path clip-path="url(#p9537f0cfef)" d="M 399.573074 307.584 
L 399.573074 41.472 
" style="fill:none;stroke:#b0b0b0;stroke-linecap:square;stroke-width:0.8;"/>
     </g>
     <g id="line2d_14">
      <g>
       <use style="stroke:#000000;stroke-width:0.8;" x="399.573074" xlink:href="#m7059c4aed0" y="307.584"/>
      </g>
     </g>
     <g id="text_7">
      <!-- 300 -->
      <defs>
       <path d="M 40.578125 39.3125 
Q 47.65625 37.796875 51.625 33 
Q 55.609375 28.21875 55.609375 21.1875 
Q 55.609375 10.40625 48.1875 4.484375 
Q 40.765625 -1.421875 27.09375 -1.421875 
Q 22.515625 -1.421875 17.65625 -0.515625 
Q 12.796875 0.390625 7.625 2.203125 
L 7.625 11.71875 
Q 11.71875 9.328125 16.59375 8.109375 
Q 21.484375 6.890625 26.8125 6.890625 
Q 36.078125 6.890625 40.9375 10.546875 
Q 45.796875 14.203125 45.796875 21.1875 
Q 45.796875 27.640625 41.28125 31.265625 
Q 36.765625 34.90625 28.71875 34.90625 
L 20.21875 34.90625 
L 20.21875 43.015625 
L 29.109375 43.015625 
Q 36.375 43.015625 40.234375 45.921875 
Q 44.09375 48.828125 44.09375 54.296875 
Q 44.09375 59.90625 40.109375 62.90625 
Q 36.140625 65.921875 28.71875 65.921875 
Q 24.65625 65.921875 20.015625 65.03125 
Q 15.375 64.15625 9.8125 62.3125 
L 9.8125 71.09375 
Q 15.4375 72.65625 20.34375 73.4375 
Q 25.25 74.21875 29.59375 74.21875 
Q 40.828125 74.21875 47.359375 69.109375 
Q 53.90625 64.015625 53.90625 55.328125 
Q 53.90625 49.265625 50.4375 45.09375 
Q 46.96875 40.921875 40.578125 39.3125 
z
" id="DejaVuSans-51"/>
      </defs>
      <g transform="translate(390.029324 322.182437)scale(0.1 -0.1)">
       <use xlink:href="#DejaVuSans-51"/>
       <use x="63.623047" xlink:href="#DejaVuSans-48"/>
       <use x="127.246094" xlink:href="#DejaVuSans-48"/>
      </g>
     </g>
    </g>
    <g id="text_8">
     <!-- Generations -->
     <defs>
      <path d="M 59.515625 10.40625 
L 59.515625 29.984375 
L 43.40625 29.984375 
L 43.40625 38.09375 
L 69.28125 38.09375 
L 69.28125 6.78125 
Q 63.578125 2.734375 56.6875 0.65625 
Q 49.8125 -1.421875 42 -1.421875 
Q 24.90625 -1.421875 15.25 8.5625 
Q 5.609375 18.5625 5.609375 36.375 
Q 5.609375 54.25 15.25 64.234375 
Q 24.90625 74.21875 42 74.21875 
Q 49.125 74.21875 55.546875 72.453125 
Q 61.96875 70.703125 67.390625 67.28125 
L 67.390625 56.78125 
Q 61.921875 61.421875 55.765625 63.765625 
Q 49.609375 66.109375 42.828125 66.109375 
Q 29.4375 66.109375 22.71875 58.640625 
Q 16.015625 51.171875 16.015625 36.375 
Q 16.015625 21.625 22.71875 14.15625 
Q 29.4375 6.6875 42.828125 6.6875 
Q 48.046875 6.6875 52.140625 7.59375 
Q 56.25 8.5 59.515625 10.40625 
z
" id="DejaVuSans-71"/>
      <path d="M 56.203125 29.59375 
L 56.203125 25.203125 
L 14.890625 25.203125 
Q 15.484375 15.921875 20.484375 11.0625 
Q 25.484375 6.203125 34.421875 6.203125 
Q 39.59375 6.203125 44.453125 7.46875 
Q 49.3125 8.734375 54.109375 11.28125 
L 54.109375 2.78125 
Q 49.265625 0.734375 44.1875 -0.34375 
Q 39.109375 -1.421875 33.890625 -1.421875 
Q 20.796875 -1.421875 13.15625 6.1875 
Q 5.515625 13.8125 5.515625 26.8125 
Q 5.515625 40.234375 12.765625 48.109375 
Q 20.015625 56 32.328125 56 
Q 43.359375 56 49.78125 48.890625 
Q 56.203125 41.796875 56.203125 29.59375 
z
M 47.21875 32.234375 
Q 47.125 39.59375 43.09375 43.984375 
Q 39.0625 48.390625 32.421875 48.390625 
Q 24.90625 48.390625 20.390625 44.140625 
Q 15.875 39.890625 15.1875 32.171875 
z
" id="DejaVuSans-101"/>
      <path d="M 54.890625 33.015625 
L 54.890625 0 
L 45.90625 0 
L 45.90625 32.71875 
Q 45.90625 40.484375 42.875 44.328125 
Q 39.84375 48.1875 33.796875 48.1875 
Q 26.515625 48.1875 22.3125 43.546875 
Q 18.109375 38.921875 18.109375 30.90625 
L 18.109375 0 
L 9.078125 0 
L 9.078125 54.6875 
L 18.109375 54.6875 
L 18.109375 46.1875 
Q 21.34375 51.125 25.703125 53.5625 
Q 30.078125 56 35.796875 56 
Q 45.21875 56 50.046875 50.171875 
Q 54.890625 44.34375 54.890625 33.015625 
z
" id="DejaVuSans-110"/>
      <path d="M 41.109375 46.296875 
Q 39.59375 47.171875 37.8125 47.578125 
Q 36.03125 48 33.890625 48 
Q 26.265625 48 22.1875 43.046875 
Q 18.109375 38.09375 18.109375 28.8125 
L 18.109375 0 
L 9.078125 0 
L 9.078125 54.6875 
L 18.109375 54.6875 
L 18.109375 46.1875 
Q 20.953125 51.171875 25.484375 53.578125 
Q 30.03125 56 36.53125 56 
Q 37.453125 56 38.578125 55.875 
Q 39.703125 55.765625 41.0625 55.515625 
z
" id="DejaVuSans-114"/>
      <path d="M 34.28125 27.484375 
Q 23.390625 27.484375 19.1875 25 
Q 14.984375 22.515625 14.984375 16.5 
Q 14.984375 11.71875 18.140625 8.90625 
Q 21.296875 6.109375 26.703125 6.109375 
Q 34.1875 6.109375 38.703125 11.40625 
Q 43.21875 16.703125 43.21875 25.484375 
L 43.21875 27.484375 
z
M 52.203125 31.203125 
L 52.203125 0 
L 43.21875 0 
L 43.21875 8.296875 
Q 40.140625 3.328125 35.546875 0.953125 
Q 30.953125 -1.421875 24.3125 -1.421875 
Q 15.921875 -1.421875 10.953125 3.296875 
Q 6 8.015625 6 15.921875 
Q 6 25.140625 12.171875 29.828125 
Q 18.359375 34.515625 30.609375 34.515625 
L 43.21875 34.515625 
L 43.21875 35.40625 
Q 43.21875 41.609375 39.140625 45 
Q 35.0625 48.390625 27.6875 48.390625 
Q 23 48.390625 18.546875 47.265625 
Q 14.109375 46.140625 10.015625 43.890625 
L 10.015625 52.203125 
Q 14.9375 54.109375 19.578125 55.046875 
Q 24.21875 56 28.609375 56 
Q 40.484375 56 46.34375 49.84375 
Q 52.203125 43.703125 52.203125 31.203125 
z
" id="DejaVuSans-97"/>
      <path d="M 18.3125 70.21875 
L 18.3125 54.6875 
L 36.8125 54.6875 
L 36.8125 47.703125 
L 18.3125 47.703125 
L 18.3125 18.015625 
Q 18.3125 11.328125 20.140625 9.421875 
Q 21.96875 7.515625 27.59375 7.515625 
L 36.8125 7.515625 
L 36.8125 0 
L 27.59375 0 
Q 17.1875 0 13.234375 3.875 
Q 9.28125 7.765625 9.28125 18.015625 
L 9.28125 47.703125 
L 2.6875 47.703125 
L 2.6875 54.6875 
L 9.28125 54.6875 
L 9.28125 70.21875 
z
" id="DejaVuSans-116"/>
      <path d="M 9.421875 54.6875 
L 18.40625 54.6875 
L 18.40625 0 
L 9.421875 0 
z
M 9.421875 75.984375 
L 18.40625 75.984375 
L 18.40625 64.59375 
L 9.421875 64.59375 
z
" id="DejaVuSans-105"/>
      <path d="M 30.609375 48.390625 
Q 23.390625 48.390625 19.1875 42.75 
Q 14.984375 37.109375 14.984375 27.296875 
Q 14.984375 17.484375 19.15625 11.84375 
Q 23.34375 6.203125 30.609375 6.203125 
Q 37.796875 6.203125 41.984375 11.859375 
Q 46.1875 17.53125 46.1875 27.296875 
Q 46.1875 37.015625 41.984375 42.703125 
Q 37.796875 48.390625 30.609375 48.390625 
z
M 30.609375 56 
Q 42.328125 56 49.015625 48.375 
Q 55.71875 40.765625 55.71875 27.296875 
Q 55.71875 13.875 49.015625 6.21875 
Q 42.328125 -1.421875 30.609375 -1.421875 
Q 18.84375 -1.421875 12.171875 6.21875 
Q 5.515625 13.875 5.515625 27.296875 
Q 5.515625 40.765625 12.171875 48.375 
Q 18.84375 56 30.609375 56 
z
" id="DejaVuSans-111"/>
      <path d="M 44.28125 53.078125 
L 44.28125 44.578125 
Q 40.484375 46.53125 36.375 47.5 
Q 32.28125 48.484375 27.875 48.484375 
Q 21.1875 48.484375 17.84375 46.4375 
Q 14.5 44.390625 14.5 40.28125 
Q 14.5 37.15625 16.890625 35.375 
Q 19.28125 33.59375 26.515625 31.984375 
L 29.59375 31.296875 
Q 39.15625 29.25 43.1875 25.515625 
Q 47.21875 21.78125 47.21875 15.09375 
Q 47.21875 7.46875 41.1875 3.015625 
Q 35.15625 -1.421875 24.609375 -1.421875 
Q 20.21875 -1.421875 15.453125 -0.5625 
Q 10.6875 0.296875 5.421875 2 
L 5.421875 11.28125 
Q 10.40625 8.6875 15.234375 7.390625 
Q 20.0625 6.109375 24.8125 6.109375 
Q 31.15625 6.109375 34.5625 8.28125 
Q 37.984375 10.453125 37.984375 14.40625 
Q 37.984375 18.0625 35.515625 20.015625 
Q 33.0625 21.96875 24.703125 23.78125 
L 21.578125 24.515625 
Q 13.234375 26.265625 9.515625 29.90625 
Q 5.8125 33.546875 5.8125 39.890625 
Q 5.8125 47.609375 11.28125 51.796875 
Q 16.75 56 26.8125 56 
Q 31.78125 56 36.171875 55.265625 
Q 40.578125 54.546875 44.28125 53.078125 
z
" id="DejaVuSans-115"/>
     </defs>
     <g transform="translate(205.662344 335.860562)scale(0.1 -0.1)">
      <use xlink:href="#DejaVuSans-71"/>
      <use x="77.490234" xlink:href="#DejaVuSans-101"/>
      <use x="139.013672" xlink:href="#DejaVuSans-110"/>
      <use x="202.392578" xlink:href="#DejaVuSans-101"/>
      <use x="263.916016" xlink:href="#DejaVuSans-114"/>
      <use x="305.029297" xlink:href="#DejaVuSans-97"/>
      <use x="366.308594" xlink:href="#DejaVuSans-116"/>
      <use x="405.517578" xlink:href="#DejaVuSans-105"/>
      <use x="433.300781" xlink:href="#DejaVuSans-111"/>
      <use x="494.482422" xlink:href="#DejaVuSans-110"/>
      <use x="557.861328" xlink:href="#DejaVuSans-115"/>
     </g>
    </g>
   </g>
   <g id="matplotlib.axis_2">
    <g id="ytick_1">
     <g id="line2d_15">
      <path clip-path="url(#p9537f0cfef)" d="M 57.6 299.12753 
L 414.72 299.12753 
" style="fill:none;stroke:#b0b0b0;stroke-linecap:square;stroke-width:0.8;"/>
     </g>
     <g id="line2d_16">
      <defs>
       <path d="M 0 0 
L -3.5 0 
" id="meb75082eb2" style="stroke:#000000;stroke-width:0.8;"/>
      </defs>
      <g>
       <use style="stroke:#000000;stroke-width:0.8;" x="57.6" xlink:href="#meb75082eb2" y="299.12753"/>
      </g>
     </g>
     <g id="text_9">
      <!-- 250 -->
      <g transform="translate(31.5125 302.926749)scale(0.1 -0.1)">
       <use xlink:href="#DejaVuSans-50"/>
       <use x="63.623047" xlink:href="#DejaVuSans-53"/>
       <use x="127.246094" xlink:href="#DejaVuSans-48"/>
      </g>
     </g>
    </g>
    <g id="ytick_2">
     <g id="line2d_17">
      <path clip-path="url(#p9537f0cfef)" d="M 57.6 265.709011 
L 414.72 265.709011 
" style="fill:none;stroke:#b0b0b0;stroke-linecap:square;stroke-width:0.8;"/>
     </g>
     <g id="line2d_18">
      <g>
       <use style="stroke:#000000;stroke-width:0.8;" x="57.6" xlink:href="#meb75082eb2" y="265.709011"/>
      </g>
     </g>
     <g id="text_10">
      <!-- 500 -->
      <g transform="translate(31.5125 269.508229)scale(0.1 -0.1)">
       <use xlink:href="#DejaVuSans-53"/>
       <use x="63.623047" xlink:href="#DejaVuSans-48"/>
       <use x="127.246094" xlink:href="#DejaVuSans-48"/>
      </g>
     </g>
    </g>
    <g id="ytick_3">
     <g id="line2d_19">
      <path clip-path="url(#p9537f0cfef)" d="M 57.6 232.290491 
L 414.72 232.290491 
" style="fill:none;stroke:#b0b0b0;stroke-linecap:square;stroke-width:0.8;"/>
     </g>
     <g id="line2d_20">
      <g>
       <use style="stroke:#000000;stroke-width:0.8;" x="57.6" xlink:href="#meb75082eb2" y="232.290491"/>
      </g>
     </g>
     <g id="text_11">
      <!-- 750 -->
      <defs>
       <path d="M 8.203125 72.90625 
L 55.078125 72.90625 
L 55.078125 68.703125 
L 28.609375 0 
L 18.3125 0 
L 43.21875 64.59375 
L 8.203125 64.59375 
z
" id="DejaVuSans-55"/>
      </defs>
      <g transform="translate(31.5125 236.08971)scale(0.1 -0.1)">
       <use xlink:href="#DejaVuSans-55"/>
       <use x="63.623047" xlink:href="#DejaVuSans-53"/>
       <use x="127.246094" xlink:href="#DejaVuSans-48"/>
      </g>
     </g>
    </g>
    <g id="ytick_4">
     <g id="line2d_21">
      <path clip-path="url(#p9537f0cfef)" d="M 57.6 198.871972 
L 414.72 198.871972 
" style="fill:none;stroke:#b0b0b0;stroke-linecap:square;stroke-width:0.8;"/>
     </g>
     <g id="line2d_22">
      <g>
       <use style="stroke:#000000;stroke-width:0.8;" x="57.6" xlink:href="#meb75082eb2" y="198.871972"/>
      </g>
     </g>
     <g id="text_12">
      <!-- 1000 -->
      <g transform="translate(25.15 202.671191)scale(0.1 -0.1)">
       <use xlink:href="#DejaVuSans-49"/>
       <use x="63.623047" xlink:href="#DejaVuSans-48"/>
       <use x="127.246094" xlink:href="#DejaVuSans-48"/>
       <use x="190.869141" xlink:href="#DejaVuSans-48"/>
      </g>
     </g>
    </g>
    <g id="ytick_5">
     <g id="line2d_23">
      <path clip-path="url(#p9537f0cfef)" d="M 57.6 165.453453 
L 414.72 165.453453 
" style="fill:none;stroke:#b0b0b0;stroke-linecap:square;stroke-width:0.8;"/>
     </g>
     <g id="line2d_24">
      <g>
       <use style="stroke:#000000;stroke-width:0.8;" x="57.6" xlink:href="#meb75082eb2" y="165.453453"/>
      </g>
     </g>
     <g id="text_13">
      <!-- 1250 -->
      <g transform="translate(25.15 169.252672)scale(0.1 -0.1)">
       <use xlink:href="#DejaVuSans-49"/>
       <use x="63.623047" xlink:href="#DejaVuSans-50"/>
       <use x="127.246094" xlink:href="#DejaVuSans-53"/>
       <use x="190.869141" xlink:href="#DejaVuSans-48"/>
      </g>
     </g>
    </g>
    <g id="ytick_6">
     <g id="line2d_25">
      <path clip-path="url(#p9537f0cfef)" d="M 57.6 132.034934 
L 414.72 132.034934 
" style="fill:none;stroke:#b0b0b0;stroke-linecap:square;stroke-width:0.8;"/>
     </g>
     <g id="line2d_26">
      <g>
       <use style="stroke:#000000;stroke-width:0.8;" x="57.6" xlink:href="#meb75082eb2" y="132.034934"/>
      </g>
     </g>
     <g id="text_14">
      <!-- 1500 -->
      <g transform="translate(25.15 135.834152)scale(0.1 -0.1)">
       <use xlink:href="#DejaVuSans-49"/>
       <use x="63.623047" xlink:href="#DejaVuSans-53"/>
       <use x="127.246094" xlink:href="#DejaVuSans-48"/>
       <use x="190.869141" xlink:href="#DejaVuSans-48"/>
      </g>
     </g>
    </g>
    <g id="ytick_7">
     <g id="line2d_27">
      <path clip-path="url(#p9537f0cfef)" d="M 57.6 98.616414 
L 414.72 98.616414 
" style="fill:none;stroke:#b0b0b0;stroke-linecap:square;stroke-width:0.8;"/>
     </g>
     <g id="line2d_28">
      <g>
       <use style="stroke:#000000;stroke-width:0.8;" x="57.6" xlink:href="#meb75082eb2" y="98.616414"/>
      </g>
     </g>
     <g id="text_15">
      <!-- 1750 -->
      <g transform="translate(25.15 102.415633)scale(0.1 -0.1)">
       <use xlink:href="#DejaVuSans-49"/>
       <use x="63.623047" xlink:href="#DejaVuSans-55"/>
       <use x="127.246094" xlink:href="#DejaVuSans-53"/>
       <use x="190.869141" xlink:href="#DejaVuSans-48"/>
      </g>
     </g>
    </g>
    <g id="ytick_8">
     <g id="line2d_29">
      <path clip-path="url(#p9537f0cfef)" d="M 57.6 65.197895 
L 414.72 65.197895 
" style="fill:none;stroke:#b0b0b0;stroke-linecap:square;stroke-width:0.8;"/>
     </g>
     <g id="line2d_30">
      <g>
       <use style="stroke:#000000;stroke-width:0.8;" x="57.6" xlink:href="#meb75082eb2" y="65.197895"/>
      </g>
     </g>
     <g id="text_16">
      <!-- 2000 -->
      <g transform="translate(25.15 68.997114)scale(0.1 -0.1)">
       <use xlink:href="#DejaVuSans-50"/>
       <use x="63.623047" xlink:href="#DejaVuSans-48"/>
       <use x="127.246094" xlink:href="#DejaVuSans-48"/>
       <use x="190.869141" xlink:href="#DejaVuSans-48"/>
      </g>
     </g>
    </g>
    <g id="text_17">
     <!-- Fitness -->
     <defs>
      <path d="M 9.8125 72.90625 
L 51.703125 72.90625 
L 51.703125 64.59375 
L 19.671875 64.59375 
L 19.671875 43.109375 
L 48.578125 43.109375 
L 48.578125 34.8125 
L 19.671875 34.8125 
L 19.671875 0 
L 9.8125 0 
z
" id="DejaVuSans-70"/>
     </defs>
     <g transform="translate(19.070312 192.202219)rotate(-90)scale(0.1 -0.1)">
      <use xlink:href="#DejaVuSans-70"/>
      <use x="57.410156" xlink:href="#DejaVuSans-105"/>
      <use x="85.193359" xlink:href="#DejaVuSans-116"/>
      <use x="124.402344" xlink:href="#DejaVuSans-110"/>
      <use x="187.78125" xlink:href="#DejaVuSans-101"/>
      <use x="249.304688" xlink:href="#DejaVuSans-115"/>
      <use x="301.404297" xlink:href="#DejaVuSans-115"/>
     </g>
    </g>
   </g>
   <g id="line2d_31">
    <path clip-path="url(#p9537f0cfef)" d="M 73.832727 292.988474 
L 74.918528 251.705509 
L 76.00433 249.179521 
L 77.090131 254.738446 
L 78.175932 252.493699 
L 79.261733 248.160385 
L 80.347534 250.254482 
L 81.433335 250.121612 
L 82.519137 256.757803 
L 83.604938 245.481372 
L 84.690739 243.505802 
L 85.77654 245.441926 
L 86.862341 243.04975 
L 87.948142 243.05638 
L 89.033943 244.486607 
L 90.119745 251.910575 
L 91.205546 243.693297 
L 92.291347 249.796694 
L 93.377148 254.408704 
L 94.462949 264.789445 
L 95.54875 247.568992 
L 96.634552 232.647118 
L 97.720353 241.836857 
L 98.806154 241.120682 
L 99.891955 239.775801 
L 100.977756 224.200624 
L 102.063557 231.229181 
L 103.149358 230.496409 
L 104.23516 230.864766 
L 105.320961 219.965245 
L 106.406762 213.892005 
L 107.492563 226.320164 
L 108.578364 226.060597 
L 109.664165 203.822939 
L 110.749967 211.106743 
L 111.835768 229.349058 
L 112.921569 226.515497 
L 114.00737 232.390759 
L 115.093171 230.24709 
L 116.178972 209.089831 
L 117.264773 216.786365 
L 118.350575 201.278609 
L 119.436376 199.175844 
L 120.522177 205.357986 
L 121.607978 206.585315 
L 122.693779 204.596217 
L 123.77958 203.605345 
L 124.865382 202.329641 
L 125.951183 211.128427 
L 127.036984 212.55268 
L 128.122785 204.182849 
L 129.208586 215.623976 
L 130.294387 209.553486 
L 131.380189 217.499403 
L 132.46599 205.066466 
L 133.551791 206.161492 
L 134.637592 206.118469 
L 135.723393 192.630603 
L 136.809194 189.80129 
L 137.894995 209.088662 
L 138.980797 203.53421 
L 140.066598 199.72801 
L 141.152399 203.504756 
L 142.2382 196.743151 
L 143.324001 204.05671 
L 144.409802 202.769449 
L 145.495604 219.675379 
L 146.581405 215.044285 
L 147.667206 209.668212 
L 148.753007 200.265647 
L 149.838808 216.455288 
L 152.01041 182.585224 
L 153.096212 192.26743 
L 154.182013 186.056317 
L 155.267814 187.263288 
L 156.353615 168.339566 
L 157.439416 188.524946 
L 158.525217 185.545101 
L 159.611019 194.107017 
L 160.69682 176.764498 
L 161.782621 181.503404 
L 162.868422 184.513723 
L 163.954223 151.867041 
L 165.040024 171.767229 
L 166.125825 188.308556 
L 167.211627 181.274204 
L 168.297428 183.40511 
L 169.383229 168.585642 
L 170.46903 174.994188 
L 171.554831 182.975582 
L 172.640632 181.209667 
L 173.726434 175.563163 
L 174.812235 167.335353 
L 175.898036 180.982338 
L 176.983837 176.38776 
L 178.069638 178.670823 
L 179.155439 159.091393 
L 180.24124 178.030614 
L 181.327042 185.960124 
L 182.412843 180.290819 
L 183.498644 183.579179 
L 184.584445 172.21251 
L 185.670246 186.663668 
L 186.756047 160.597383 
L 188.92765 156.438962 
L 190.013451 162.35123 
L 191.099252 179.563241 
L 192.185053 171.789568 
L 193.270854 160.236172 
L 194.356656 160.888949 
L 195.442457 162.882735 
L 196.528258 175.505646 
L 197.614059 185.061784 
L 198.69986 185.960133 
L 199.785661 185.228877 
L 200.871462 179.992768 
L 201.957264 167.544823 
L 203.043065 186.701169 
L 204.128866 186.763833 
L 205.214667 187.718279 
L 206.300468 175.720301 
L 207.386269 161.317998 
L 208.472071 182.422888 
L 209.557872 173.872926 
L 210.643673 174.220934 
L 211.729474 179.653341 
L 212.815275 156.767951 
L 213.901076 188.752893 
L 214.986877 172.795467 
L 216.072679 183.044597 
L 217.15848 167.640409 
L 218.244281 162.726834 
L 219.330082 175.844014 
L 220.415883 167.868049 
L 221.501684 174.227218 
L 222.587486 164.817486 
L 223.673287 168.262208 
L 224.759088 154.445675 
L 225.844889 143.208675 
L 226.93069 162.940805 
L 228.016491 167.713019 
L 229.102292 161.329047 
L 230.188094 169.951657 
L 231.273895 153.211577 
L 232.359696 159.249545 
L 233.445497 170.731317 
L 234.531298 147.616171 
L 235.617099 160.981739 
L 236.702901 154.495697 
L 237.788702 148.895925 
L 238.874503 163.579762 
L 239.960304 154.862295 
L 241.046105 159.285194 
L 242.131906 171.469173 
L 243.217708 165.384669 
L 244.303509 164.802178 
L 245.38931 157.180025 
L 246.475111 176.433516 
L 247.560912 168.946482 
L 248.646713 172.527835 
L 249.732514 163.712073 
L 250.818316 153.811321 
L 251.904117 171.330372 
L 252.989918 160.243999 
L 254.075719 165.048386 
L 255.16152 158.712666 
L 256.247321 183.363421 
L 257.333123 183.853369 
L 258.418924 151.140562 
L 259.504725 159.801963 
L 260.590526 144.889521 
L 261.676327 140.632636 
L 262.762128 151.828031 
L 263.847929 157.09954 
L 264.933731 156.732029 
L 266.019532 140.396504 
L 267.105333 169.556011 
L 268.191134 158.871927 
L 269.276935 158.457582 
L 270.362736 149.275332 
L 271.448538 154.54312 
L 272.534339 157.475076 
L 273.62014 157.477189 
L 274.705941 133.862558 
L 275.791742 146.215509 
L 276.877543 159.932403 
L 277.963344 137.586059 
L 279.049146 144.646253 
L 280.134947 148.01862 
L 281.220748 145.845265 
L 282.306549 147.584281 
L 283.39235 150.690173 
L 284.478151 177.345638 
L 285.563953 130.64053 
L 286.649754 125.809638 
L 287.735555 143.308407 
L 288.821356 146.158939 
L 289.907157 157.605735 
L 290.992958 161.944771 
L 292.07876 136.783164 
L 293.164561 143.730634 
L 294.250362 148.708864 
L 295.336163 138.507779 
L 296.421964 139.092558 
L 297.507765 166.129769 
L 298.593566 151.096115 
L 299.679368 145.698794 
L 300.765169 136.499476 
L 301.85097 145.595417 
L 302.936771 130.394092 
L 304.022572 137.842162 
L 305.108373 151.444546 
L 306.194175 170.269394 
L 307.279976 130.218642 
L 308.365777 143.195232 
L 309.451578 130.648121 
L 310.537379 136.525868 
L 311.62318 149.312956 
L 312.708981 124.860982 
L 313.794783 161.492026 
L 314.880584 149.705095 
L 315.966385 148.672026 
L 317.052186 155.786273 
L 318.137987 156.553593 
L 319.223788 166.754125 
L 320.30959 162.751689 
L 321.395391 150.735645 
L 322.481192 133.388187 
L 323.566993 178.189393 
L 324.652794 163.657915 
L 325.738595 153.448034 
L 326.824396 178.242199 
L 331.167601 133.207874 
L 332.253402 128.401468 
L 333.339203 136.459268 
L 334.425005 146.303533 
L 335.510806 135.58099 
L 336.596607 141.739472 
L 337.682408 138.965007 
L 338.768209 125.400714 
L 339.85401 142.573058 
L 340.939811 150.753428 
L 342.025613 104.204943 
L 343.111414 171.737265 
L 344.197215 113.337616 
L 345.283016 133.970982 
L 346.368817 136.553031 
L 347.454618 161.767 
L 348.54042 143.644009 
L 349.626221 147.624562 
L 350.712022 139.492539 
L 351.797823 137.473256 
L 352.883624 165.993777 
L 353.969425 146.921854 
L 355.055227 149.517503 
L 356.141028 146.044725 
L 357.226829 154.727607 
L 358.31263 150.669242 
L 359.398431 153.616922 
L 360.484232 144.894428 
L 361.570033 162.042204 
L 362.655835 153.681922 
L 363.741636 147.288369 
L 364.827437 155.511307 
L 365.913238 173.469954 
L 366.999039 145.054842 
L 368.08484 166.753774 
L 370.256443 153.364568 
L 371.342244 152.399005 
L 372.428045 155.376894 
L 373.513846 137.164724 
L 374.599647 157.451183 
L 375.685448 137.834087 
L 376.77125 149.895171 
L 377.857051 142.38461 
L 378.942852 140.207349 
L 380.028653 158.837431 
L 381.114454 146.081875 
L 382.200255 157.193746 
L 383.286057 140.699854 
L 384.371858 162.673892 
L 385.457659 170.690016 
L 386.54346 154.640631 
L 387.629261 152.873587 
L 388.715062 181.701158 
L 389.800863 138.445415 
L 390.886665 155.638797 
L 391.972466 168.232901 
L 393.058267 125.338516 
L 394.144068 167.657673 
L 395.229869 166.516209 
L 396.31567 152.176946 
L 397.401472 168.317375 
L 398.487273 145.066498 
L 398.487273 145.066498 
" style="fill:none;stroke:#0000ff;stroke-linecap:square;stroke-width:1.5;"/>
   </g>
   <g id="line2d_32">
    <path clip-path="url(#p9537f0cfef)" d="M 73.832727 295.488 
L 74.918528 254.834266 
L 76.00433 252.727331 
L 77.090131 259.402982 
L 78.175932 257.817426 
L 79.261733 255.569098 
L 81.433335 257.425765 
L 82.519137 267.30083 
L 83.604938 256.312966 
L 84.690739 253.367427 
L 85.77654 254.123039 
L 86.862341 255.891355 
L 89.033943 255.856939 
L 90.119745 264.059643 
L 91.205546 259.517061 
L 92.291347 262.349578 
L 93.377148 266.674915 
L 94.462949 273.829316 
L 95.54875 262.982629 
L 96.634552 245.401437 
L 97.720353 258.400527 
L 98.806154 250.936722 
L 99.891955 250.881858 
L 100.977756 237.775047 
L 102.063557 243.292346 
L 103.149358 241.213213 
L 104.23516 246.83441 
L 105.320961 235.309917 
L 106.406762 234.924695 
L 107.492563 244.940727 
L 108.578364 241.72782 
L 109.664165 219.024069 
L 110.749967 231.165031 
L 111.835768 247.36837 
L 112.921569 243.030577 
L 114.00737 250.948381 
L 115.093171 253.300188 
L 116.178972 228.201222 
L 117.264773 241.540077 
L 118.350575 221.165675 
L 119.436376 223.233345 
L 120.522177 229.655301 
L 121.607978 232.524246 
L 122.693779 229.310988 
L 123.77958 223.886711 
L 124.865382 223.783993 
L 125.951183 233.852141 
L 127.036984 242.135219 
L 128.122785 231.491911 
L 129.208586 243.939196 
L 130.294387 233.375813 
L 131.380189 244.886063 
L 132.46599 233.722024 
L 133.551791 237.760798 
L 134.637592 232.97324 
L 135.723393 218.005197 
L 136.809194 214.456013 
L 137.894995 229.030985 
L 138.980797 226.816068 
L 140.066598 220.741347 
L 141.152399 226.307097 
L 142.2382 221.880348 
L 143.324001 235.127442 
L 144.409802 234.336739 
L 145.495604 245.270736 
L 146.581405 239.697759 
L 147.667206 232.968575 
L 148.753007 225.359904 
L 149.838808 238.147776 
L 150.924609 227.127573 
L 152.01041 210.171258 
L 153.096212 217.571733 
L 154.182013 221.486948 
L 155.267814 218.585427 
L 156.353615 199.837419 
L 157.439416 216.593402 
L 159.611019 216.436308 
L 160.69682 202.169325 
L 161.782621 213.570363 
L 162.868422 220.683551 
L 163.954223 191.280129 
L 166.125825 219.114652 
L 167.211627 217.496562 
L 168.297428 217.420658 
L 169.383229 202.466766 
L 170.46903 204.55896 
L 171.554831 215.341853 
L 172.640632 217.104641 
L 173.726434 207.524854 
L 174.812235 196.650843 
L 175.898036 215.168386 
L 176.983837 218.779823 
L 178.069638 209.996755 
L 179.155439 195.371885 
L 180.24124 215.912917 
L 181.327042 221.313851 
L 182.412843 213.204923 
L 183.498644 218.303576 
L 184.584445 210.447349 
L 185.670246 221.438024 
L 186.756047 191.951958 
L 187.841849 200.496451 
L 188.92765 192.857825 
L 190.013451 196.332621 
L 191.099252 217.785668 
L 192.185053 206.215854 
L 193.270854 206.939356 
L 194.356656 198.880537 
L 195.442457 208.524226 
L 196.528258 216.906934 
L 197.614059 231.823977 
L 198.69986 229.849211 
L 200.871462 215.454154 
L 201.957264 207.234545 
L 203.043065 218.758344 
L 204.128866 217.612455 
L 205.214667 227.161764 
L 206.300468 202.715327 
L 207.386269 201.23784 
L 208.472071 222.583684 
L 209.557872 216.453753 
L 210.643673 216.338051 
L 211.729474 219.303915 
L 212.815275 199.112423 
L 213.901076 226.216343 
L 214.986877 203.876706 
L 216.072679 222.097896 
L 217.15848 207.034001 
L 218.244281 200.986719 
L 219.330082 208.735882 
L 220.415883 211.164157 
L 221.501684 215.494769 
L 222.587486 205.951349 
L 223.673287 209.461501 
L 224.759088 197.318232 
L 225.844889 187.89988 
L 226.93069 197.047812 
L 228.016491 210.63559 
L 229.102292 202.973694 
L 230.188094 216.44338 
L 231.273895 192.962669 
L 232.359696 198.736819 
L 233.445497 212.989547 
L 234.531298 191.308906 
L 235.617099 203.067293 
L 236.702901 198.958665 
L 237.788702 196.826423 
L 238.874503 202.775113 
L 239.960304 188.445985 
L 241.046105 207.610622 
L 242.131906 218.891089 
L 243.217708 200.593986 
L 244.303509 203.192818 
L 245.38931 198.707898 
L 246.475111 215.557166 
L 247.560912 204.363717 
L 248.646713 217.986401 
L 250.818316 205.360887 
L 251.904117 217.771456 
L 252.989918 207.148989 
L 254.075719 210.002099 
L 255.16152 202.424102 
L 256.247321 225.213353 
L 257.333123 226.612163 
L 258.418924 201.06488 
L 259.504725 204.30241 
L 260.590526 193.635018 
L 261.676327 189.565163 
L 262.762128 201.72969 
L 263.847929 204.187796 
L 264.933731 204.144034 
L 266.019532 184.644367 
L 267.105333 211.137066 
L 268.191134 195.176433 
L 269.276935 199.712094 
L 270.362736 188.412611 
L 271.448538 209.002967 
L 272.534339 207.374415 
L 273.62014 202.967499 
L 274.705941 181.778229 
L 275.791742 202.281842 
L 276.877543 210.822359 
L 277.963344 183.466999 
L 279.049146 196.826424 
L 280.134947 191.653182 
L 281.220748 201.498263 
L 282.306549 196.05035 
L 283.39235 192.358764 
L 284.478151 221.083104 
L 285.563953 187.049369 
L 286.649754 165.10175 
L 287.735555 189.502565 
L 288.821356 198.948203 
L 290.992958 215.154625 
L 292.07876 183.97185 
L 293.164561 185.166256 
L 294.250362 201.950223 
L 295.336163 194.109194 
L 296.421964 196.426503 
L 297.507765 216.044412 
L 298.593566 199.399026 
L 299.679368 194.470799 
L 300.765169 192.246209 
L 301.85097 195.131652 
L 302.936771 176.715286 
L 304.022572 190.438548 
L 305.108373 200.996334 
L 306.194175 208.387482 
L 307.279976 177.074078 
L 308.365777 197.143892 
L 309.451578 188.351513 
L 310.537379 182.797965 
L 311.62318 192.451901 
L 312.708981 175.676036 
L 313.794783 207.144073 
L 314.880584 192.677441 
L 315.966385 190.12487 
L 317.052186 206.435391 
L 318.137987 198.911717 
L 319.223788 216.175707 
L 320.30959 207.517275 
L 321.395391 194.920571 
L 322.481192 183.99545 
L 323.566993 220.043237 
L 324.652794 209.764577 
L 325.738595 197.187154 
L 326.824396 221.728885 
L 327.910198 210.442837 
L 328.995999 207.233376 
L 331.167601 181.84219 
L 332.253402 167.662511 
L 333.339203 193.903422 
L 334.425005 192.838228 
L 335.510806 187.579946 
L 336.596607 190.461259 
L 338.768209 175.461213 
L 339.85401 187.389487 
L 340.939811 204.869008 
L 342.025613 154.841886 
L 343.111414 210.195755 
L 344.197215 156.743443 
L 345.283016 183.676461 
L 346.368817 192.039406 
L 347.454618 201.610658 
L 348.54042 196.934941 
L 349.626221 190.86095 
L 350.712022 189.432216 
L 351.797823 206.214682 
L 352.883624 219.864174 
L 353.969425 206.900632 
L 355.055227 200.733231 
L 356.141028 188.070498 
L 357.226829 195.156281 
L 358.31263 190.756227 
L 359.398431 206.770888 
L 360.484232 198.439852 
L 361.570033 215.743478 
L 362.655835 199.694484 
L 363.741636 195.584066 
L 364.827437 199.446707 
L 365.913238 213.739134 
L 366.999039 187.52954 
L 368.08484 213.322722 
L 369.170642 220.661484 
L 370.256443 211.06995 
L 371.342244 198.735544 
L 372.428045 200.429543 
L 373.513846 193.831929 
L 374.599647 197.641769 
L 375.685448 184.569441 
L 376.77125 200.015636 
L 377.857051 198.450586 
L 378.942852 206.312933 
L 380.028653 210.435081 
L 381.114454 210.124651 
L 383.286057 198.05283 
L 384.371858 208.948467 
L 385.457659 222.483835 
L 386.54346 199.054705 
L 387.629261 201.852669 
L 388.715062 227.717732 
L 389.800863 202.209571 
L 390.886665 204.875335 
L 391.972466 213.076537 
L 393.058267 172.974409 
L 394.144068 212.309773 
L 396.31567 205.340344 
L 397.401472 220.643796 
L 398.487273 200.000534 
L 398.487273 200.000534 
" style="fill:none;stroke:#008000;stroke-dasharray:9.6,2.4,1.5,2.4;stroke-dashoffset:0;stroke-width:1.5;"/>
   </g>
   <g id="line2d_33">
    <path clip-path="url(#p9537f0cfef)" d="M 73.832727 290.488949 
L 74.918528 248.576752 
L 76.00433 245.631712 
L 77.090131 250.073909 
L 78.175932 247.169973 
L 79.261733 240.751671 
L 80.347534 243.997695 
L 81.433335 242.81746 
L 82.519137 246.214776 
L 83.604938 234.649777 
L 84.690739 233.644178 
L 85.77654 236.760813 
L 86.862341 230.208146 
L 87.948142 230.223406 
L 89.033943 233.116276 
L 90.119745 239.761507 
L 91.205546 227.869534 
L 92.291347 237.24381 
L 93.377148 242.142493 
L 94.462949 255.749573 
L 95.54875 232.155355 
L 96.634552 219.892799 
L 97.720353 225.273186 
L 98.806154 231.304642 
L 99.891955 228.669743 
L 100.977756 210.6262 
L 102.063557 219.166017 
L 103.149358 219.779605 
L 104.23516 214.895121 
L 105.320961 204.620572 
L 106.406762 192.859316 
L 107.492563 207.699602 
L 108.578364 210.393373 
L 109.664165 188.62181 
L 110.749967 191.048456 
L 111.835768 211.329746 
L 112.921569 210.000417 
L 114.00737 213.833136 
L 115.093171 207.193992 
L 116.178972 189.978441 
L 117.264773 192.032654 
L 118.350575 181.391543 
L 119.436376 175.118343 
L 120.522177 181.06067 
L 121.607978 180.646384 
L 122.693779 179.881446 
L 123.77958 183.323979 
L 124.865382 180.875288 
L 125.951183 188.404713 
L 127.036984 182.97014 
L 128.122785 176.873786 
L 129.208586 187.308755 
L 130.294387 185.731158 
L 131.380189 190.112744 
L 132.46599 176.410909 
L 133.551791 174.562187 
L 134.637592 179.263698 
L 135.723393 167.256009 
L 136.809194 165.146566 
L 137.894995 189.146339 
L 138.980797 180.252353 
L 140.066598 178.714673 
L 141.152399 180.702415 
L 142.2382 171.605954 
L 143.324001 172.985978 
L 144.409802 171.202158 
L 145.495604 194.080022 
L 147.667206 186.36785 
L 148.753007 175.171391 
L 149.838808 194.7628 
L 150.924609 171.708022 
L 152.01041 154.999189 
L 153.096212 166.963128 
L 154.182013 150.625686 
L 155.267814 155.941149 
L 156.353615 136.841713 
L 157.439416 160.45649 
L 158.525217 154.626883 
L 159.611019 171.777727 
L 160.69682 151.359671 
L 161.782621 149.436444 
L 162.868422 148.343894 
L 163.954223 112.453953 
L 165.040024 138.320099 
L 166.125825 157.502461 
L 167.211627 145.051847 
L 168.297428 149.389563 
L 169.383229 134.704517 
L 170.46903 145.429416 
L 171.554831 150.609311 
L 172.640632 145.314694 
L 173.726434 143.601471 
L 174.812235 138.019863 
L 175.898036 146.796291 
L 176.983837 133.995696 
L 178.069638 147.34489 
L 179.155439 122.810902 
L 180.24124 140.148311 
L 181.327042 150.606396 
L 182.412843 147.376715 
L 183.498644 148.854781 
L 184.584445 133.97767 
L 185.670246 151.889311 
L 186.756047 129.242809 
L 187.841849 116.424903 
L 188.92765 120.0201 
L 190.013451 128.36984 
L 191.099252 141.340815 
L 192.185053 137.363282 
L 193.270854 113.532987 
L 194.356656 122.897362 
L 195.442457 117.241244 
L 196.528258 134.104359 
L 198.69986 142.071056 
L 199.785661 147.836106 
L 200.871462 144.531382 
L 201.957264 127.855102 
L 203.043065 154.643994 
L 204.128866 155.915211 
L 205.214667 148.274794 
L 206.300468 148.725275 
L 207.386269 121.398156 
L 208.472071 142.262092 
L 209.557872 131.292098 
L 210.643673 132.103818 
L 211.729474 140.002768 
L 212.815275 114.423479 
L 213.901076 151.289444 
L 214.986877 141.714228 
L 216.072679 143.991297 
L 217.15848 128.246816 
L 218.244281 124.46695 
L 219.330082 142.952146 
L 220.415883 124.571941 
L 221.501684 132.959668 
L 222.587486 123.683623 
L 223.673287 127.062915 
L 224.759088 111.573118 
L 225.844889 98.51747 
L 226.93069 128.833799 
L 228.016491 124.790448 
L 229.102292 119.684401 
L 230.188094 123.459934 
L 231.273895 113.460485 
L 232.359696 119.762271 
L 233.445497 128.473087 
L 234.531298 103.923436 
L 235.617099 118.896185 
L 237.788702 100.965427 
L 238.874503 124.384411 
L 239.960304 121.278605 
L 241.046105 110.959766 
L 242.131906 124.047256 
L 243.217708 130.175352 
L 244.303509 126.411538 
L 245.38931 115.652152 
L 246.475111 137.309867 
L 247.560912 133.529246 
L 248.646713 127.069268 
L 249.732514 115.987523 
L 250.818316 102.261756 
L 251.904117 124.889287 
L 252.989918 113.339009 
L 254.075719 120.094674 
L 255.16152 115.00123 
L 256.247321 141.513489 
L 257.333123 141.094574 
L 258.418924 101.216244 
L 259.504725 115.301515 
L 260.590526 96.144023 
L 261.676327 91.700109 
L 262.762128 101.926371 
L 263.847929 110.011284 
L 264.933731 109.320024 
L 266.019532 96.148641 
L 267.105333 127.974955 
L 269.276935 117.203069 
L 270.362736 110.138053 
L 271.448538 100.083272 
L 272.534339 107.575737 
L 273.62014 111.98688 
L 274.705941 85.946886 
L 275.791742 90.149176 
L 276.877543 109.042448 
L 277.963344 91.70512 
L 279.049146 92.466082 
L 280.134947 104.384058 
L 281.220748 90.192268 
L 282.306549 99.118213 
L 283.39235 109.021582 
L 284.478151 133.608172 
L 285.563953 74.231691 
L 286.649754 86.517525 
L 287.735555 97.114249 
L 288.821356 93.369674 
L 289.907157 108.365276 
L 290.992958 108.734918 
L 292.07876 89.594479 
L 293.164561 102.295012 
L 294.250362 95.467505 
L 295.336163 82.906364 
L 296.421964 81.758614 
L 297.507765 116.215125 
L 298.593566 102.793204 
L 299.679368 96.926789 
L 300.765169 80.752743 
L 301.85097 96.059182 
L 302.936771 84.072897 
L 304.022572 85.245777 
L 305.108373 101.892758 
L 306.194175 132.151305 
L 307.279976 83.363207 
L 308.365777 89.246573 
L 309.451578 72.944728 
L 311.62318 106.17401 
L 312.708981 74.045928 
L 313.794783 115.839979 
L 314.880584 106.73275 
L 315.966385 107.219182 
L 317.052186 105.137156 
L 318.137987 114.195469 
L 319.223788 117.332544 
L 320.30959 117.986103 
L 321.395391 106.550719 
L 322.481192 82.780924 
L 323.566993 136.33555 
L 324.652794 117.551254 
L 325.738595 109.708915 
L 326.824396 134.755513 
L 327.910198 123.304296 
L 328.995999 103.836243 
L 330.0818 91.410404 
L 331.167601 84.573559 
L 332.253402 89.140425 
L 333.339203 79.015114 
L 334.425005 99.768838 
L 335.510806 83.582033 
L 336.596607 93.017685 
L 337.682408 95.305145 
L 338.768209 75.340216 
L 339.85401 97.756628 
L 340.939811 96.637848 
L 342.025613 53.568 
L 343.111414 133.278776 
L 344.197215 69.931789 
L 345.283016 84.265503 
L 346.368817 81.066655 
L 347.454618 121.923343 
L 348.54042 90.353077 
L 349.626221 104.388175 
L 350.712022 89.552862 
L 351.797823 68.731831 
L 352.883624 112.123381 
L 353.969425 86.943077 
L 355.055227 98.301775 
L 356.141028 104.018953 
L 357.226829 114.298933 
L 358.31263 110.582257 
L 360.484232 91.349004 
L 361.570033 108.340929 
L 362.655835 107.66936 
L 363.741636 98.992672 
L 364.827437 111.575906 
L 365.913238 133.200774 
L 366.999039 102.580143 
L 368.08484 120.184825 
L 369.170642 99.441193 
L 370.256443 95.659185 
L 371.342244 106.062467 
L 372.428045 110.324245 
L 373.513846 80.497519 
L 374.599647 117.260597 
L 375.685448 91.098732 
L 376.77125 99.774707 
L 378.942852 74.101766 
L 380.028653 107.23978 
L 381.114454 82.039099 
L 382.200255 110.408501 
L 383.286057 83.346879 
L 384.371858 116.399316 
L 385.457659 118.896196 
L 386.54346 110.226556 
L 387.629261 103.894505 
L 388.715062 135.684583 
L 389.800863 74.68126 
L 390.886665 106.402258 
L 391.972466 123.389265 
L 393.058267 77.702622 
L 394.144068 123.005573 
L 395.229869 124.331012 
L 396.31567 99.013548 
L 397.401472 115.990954 
L 398.487273 90.132461 
L 398.487273 90.132461 
" style="fill:none;stroke:#008000;stroke-dasharray:9.6,2.4,1.5,2.4;stroke-dashoffset:0;stroke-width:1.5;"/>
   </g>
   <g id="line2d_34">
    <path clip-path="url(#p9537f0cfef)" d="M 73.832727 287.210104 
L 74.918528 246.408319 
L 76.00433 243.940009 
L 77.090131 245.041956 
L 78.175932 241.425429 
L 79.261733 238.602796 
L 80.347534 240.542642 
L 81.433335 240.037198 
L 82.519137 247.139128 
L 83.604938 231.277601 
L 84.690739 232.07093 
L 85.77654 234.084138 
L 86.862341 227.855976 
L 87.948142 230.252497 
L 89.033943 229.754226 
L 90.119745 236.358243 
L 91.205546 230.713044 
L 92.291347 238.262646 
L 93.377148 243.521388 
L 94.462949 253.904356 
L 95.54875 234.354451 
L 96.634552 222.238259 
L 97.720353 229.107232 
L 98.806154 232.375764 
L 99.891955 229.18458 
L 100.977756 214.767375 
L 102.063557 215.682925 
L 103.149358 220.872087 
L 105.320961 196.915743 
L 106.406762 178.028014 
L 107.492563 196.075097 
L 108.578364 202.747284 
L 109.664165 173.721838 
L 110.749967 175.804799 
L 111.835768 204.252907 
L 112.921569 204.365627 
L 114.00737 202.383883 
L 115.093171 192.73697 
L 116.178972 180.207718 
L 117.264773 183.379621 
L 118.350575 180.199766 
L 119.436376 168.156217 
L 120.522177 179.043001 
L 121.607978 169.994293 
L 122.693779 167.711903 
L 123.77958 174.54394 
L 124.865382 169.29275 
L 125.951183 181.301677 
L 127.036984 176.335252 
L 128.122785 172.008575 
L 129.208586 177.073536 
L 130.294387 176.755323 
L 131.380189 189.064254 
L 132.46599 173.882228 
L 133.551791 177.166003 
L 134.637592 176.527667 
L 135.723393 157.357056 
L 136.809194 162.008637 
L 137.894995 176.459731 
L 138.980797 165.969916 
L 140.066598 170.026002 
L 141.152399 169.864357 
L 142.2382 155.484118 
L 143.324001 154.458492 
L 144.409802 156.000723 
L 145.495604 186.662972 
L 146.581405 176.263598 
L 147.667206 179.160108 
L 148.753007 168.413195 
L 149.838808 186.873655 
L 150.924609 164.789353 
L 152.01041 149.682908 
L 153.096212 151.400001 
L 154.182013 137.727418 
L 155.267814 147.766575 
L 156.353615 128.703965 
L 157.439416 154.026307 
L 158.525217 148.399062 
L 159.611019 158.961493 
L 160.69682 127.132721 
L 161.782621 129.4636 
L 162.868422 140.239927 
L 163.954223 110.324752 
L 166.125825 145.502728 
L 167.211627 131.013935 
L 168.297428 137.776607 
L 169.383229 126.702261 
L 170.46903 125.739256 
L 171.554831 138.331969 
L 172.640632 128.727361 
L 173.726434 135.952164 
L 174.812235 133.213422 
L 175.898036 137.524865 
L 176.983837 124.222813 
L 178.069638 134.038338 
L 179.155439 119.037175 
L 180.24124 122.145071 
L 181.327042 140.545046 
L 182.412843 126.852882 
L 183.498644 139.848996 
L 184.584445 127.652783 
L 185.670246 136.198609 
L 186.756047 116.950141 
L 187.841849 109.292429 
L 188.92765 116.106361 
L 190.013451 124.825663 
L 191.099252 127.385134 
L 192.185053 125.894354 
L 193.270854 104.170769 
L 194.356656 116.500097 
L 195.442457 113.439178 
L 196.528258 126.597129 
L 197.614059 112.454259 
L 198.69986 120.617152 
L 199.785661 135.25095 
L 200.871462 139.443956 
L 201.957264 120.272509 
L 203.043065 147.575544 
L 204.128866 144.712215 
L 205.214667 136.033378 
L 206.300468 139.417538 
L 207.386269 108.404415 
L 208.472071 131.231001 
L 209.557872 119.506178 
L 210.643673 122.600687 
L 211.729474 132.671364 
L 212.815275 109.365381 
L 213.901076 141.605499 
L 214.986877 130.691974 
L 216.072679 136.130665 
L 217.15848 122.226169 
L 218.244281 116.411569 
L 219.330082 135.971106 
L 220.415883 118.851869 
L 221.501684 123.278341 
L 222.587486 103.871312 
L 223.673287 125.230662 
L 225.844889 97.997025 
L 226.93069 119.02345 
L 228.016491 110.84963 
L 229.102292 111.904983 
L 230.188094 108.893551 
L 231.273895 104.60364 
L 232.359696 108.007465 
L 233.445497 112.135507 
L 234.531298 97.66384 
L 235.617099 104.033274 
L 236.702901 99.20906 
L 237.788702 92.301549 
L 238.874503 108.171387 
L 239.960304 114.038142 
L 241.046105 100.336619 
L 242.131906 95.421173 
L 243.217708 123.399271 
L 244.303509 107.483739 
L 245.38931 123.309073 
L 246.475111 123.693599 
L 247.560912 132.096099 
L 248.646713 119.706169 
L 249.732514 101.955846 
L 250.818316 94.215004 
L 251.904117 114.087939 
L 252.989918 106.425842 
L 254.075719 102.538655 
L 255.16152 108.093592 
L 256.247321 130.11639 
L 257.333123 125.560345 
L 258.418924 101.17385 
L 259.504725 109.191593 
L 260.590526 86.730863 
L 261.676327 91.657738 
L 262.762128 93.106245 
L 263.847929 100.02061 
L 264.933731 101.652759 
L 266.019532 86.403794 
L 267.105333 119.128535 
L 268.191134 122.749963 
L 269.276935 110.742957 
L 270.362736 112.357531 
L 271.448538 94.582438 
L 272.534339 107.517189 
L 273.62014 110.378233 
L 274.705941 93.837591 
L 275.791742 88.330327 
L 276.877543 104.294934 
L 277.963344 90.166253 
L 279.049146 81.611322 
L 280.134947 109.634262 
L 281.220748 89.333408 
L 282.306549 106.967206 
L 283.39235 107.755164 
L 284.478151 123.577816 
L 285.563953 75.300919 
L 286.649754 95.478844 
L 287.735555 100.635179 
L 288.821356 88.619615 
L 289.907157 109.827437 
L 290.992958 96.327693 
L 292.07876 88.489258 
L 293.164561 100.107041 
L 294.250362 93.972905 
L 295.336163 79.330296 
L 296.421964 80.263736 
L 297.507765 97.18802 
L 298.593566 98.857272 
L 299.679368 93.336235 
L 300.765169 89.21433 
L 301.85097 93.102443 
L 302.936771 87.967581 
L 304.022572 94.330668 
L 305.108373 93.254947 
L 306.194175 124.516172 
L 307.279976 82.944799 
L 308.365777 96.673226 
L 309.451578 77.503043 
L 310.537379 88.809888 
L 311.62318 104.364142 
L 312.708981 79.594255 
L 313.794783 109.041565 
L 314.880584 93.79884 
L 315.966385 106.325448 
L 317.052186 93.722048 
L 318.137987 111.144416 
L 319.223788 109.981784 
L 320.30959 113.786703 
L 321.395391 99.975897 
L 322.481192 87.627312 
L 323.566993 132.96508 
L 324.652794 115.102302 
L 325.738595 111.883069 
L 326.824396 128.789875 
L 328.995999 95.436374 
L 331.167601 83.387376 
L 332.253402 92.970944 
L 333.339203 80.760805 
L 334.425005 94.182083 
L 335.510806 81.928169 
L 336.596607 92.206928 
L 337.682408 86.468084 
L 338.768209 89.987175 
L 339.85401 104.6038 
L 340.939811 86.397603 
L 342.025613 65.678337 
L 343.111414 125.651573 
L 344.197215 75.56505 
L 345.283016 81.790708 
L 346.368817 71.69711 
L 347.454618 115.6417 
L 348.54042 90.751483 
L 349.626221 104.627675 
L 350.712022 87.004082 
L 351.797823 62.940587 
L 352.883624 100.127809 
L 353.969425 94.544584 
L 356.141028 109.535468 
L 357.226829 116.053369 
L 358.31263 110.260319 
L 359.398431 100.171049 
L 360.484232 83.95215 
L 361.570033 96.307047 
L 362.655835 95.566474 
L 363.741636 91.327382 
L 364.827437 108.852363 
L 365.913238 135.174603 
L 366.999039 107.292152 
L 368.08484 106.040961 
L 369.170642 93.477969 
L 370.256443 75.297815 
L 371.342244 94.994329 
L 372.428045 98.755775 
L 373.513846 78.551921 
L 374.599647 107.130818 
L 375.685448 93.18277 
L 376.77125 89.89563 
L 377.857051 77.674652 
L 378.942852 67.123169 
L 380.028653 92.259245 
L 381.114454 89.194373 
L 382.200255 101.49763 
L 383.286057 77.230543 
L 384.371858 109.329817 
L 385.457659 111.431177 
L 386.54346 109.553902 
L 387.629261 95.393384 
L 388.715062 123.581141 
L 389.800863 76.528641 
L 390.886665 93.555441 
L 391.972466 114.479078 
L 393.058267 84.83064 
L 394.144068 112.989148 
L 395.229869 122.7853 
L 396.31567 76.200507 
L 397.401472 99.585106 
L 398.487273 68.210672 
L 398.487273 68.210672 
" style="fill:none;stroke:#ff0000;stroke-linecap:square;stroke-width:1.5;"/>
   </g>
   <g id="patch_3">
    <path d="M 57.6 307.584 
L 57.6 41.472 
" style="fill:none;stroke:#000000;stroke-linecap:square;stroke-linejoin:miter;stroke-width:0.8;"/>
   </g>
   <g id="patch_4">
    <path d="M 414.72 307.584 
L 414.72 41.472 
" style="fill:none;stroke:#000000;stroke-linecap:square;stroke-linejoin:miter;stroke-width:0.8;"/>
   </g>
   <g id="patch_5">
    <path d="M 57.6 307.584 
L 414.72 307.584 
" style="fill:none;stroke:#000000;stroke-linecap:square;stroke-linejoin:miter;stroke-width:0.8;"/>
   </g>
   <g id="patch_6">
    <path d="M 57.6 41.472 
L 414.72 41.472 
" style="fill:none;stroke:#000000;stroke-linecap:square;stroke-linejoin:miter;stroke-width:0.8;"/>
   </g>
   <g id="text_18">
    <!-- Population's average and best fitness -->
    <defs>
     <path d="M 19.671875 64.796875 
L 19.671875 37.40625 
L 32.078125 37.40625 
Q 38.96875 37.40625 42.71875 40.96875 
Q 46.484375 44.53125 46.484375 51.125 
Q 46.484375 57.671875 42.71875 61.234375 
Q 38.96875 64.796875 32.078125 64.796875 
z
M 9.8125 72.90625 
L 32.078125 72.90625 
Q 44.34375 72.90625 50.609375 67.359375 
Q 56.890625 61.8125 56.890625 51.125 
Q 56.890625 40.328125 50.609375 34.8125 
Q 44.34375 29.296875 32.078125 29.296875 
L 19.671875 29.296875 
L 19.671875 0 
L 9.8125 0 
z
" id="DejaVuSans-80"/>
     <path d="M 18.109375 8.203125 
L 18.109375 -20.796875 
L 9.078125 -20.796875 
L 9.078125 54.6875 
L 18.109375 54.6875 
L 18.109375 46.390625 
Q 20.953125 51.265625 25.265625 53.625 
Q 29.59375 56 35.59375 56 
Q 45.5625 56 51.78125 48.09375 
Q 58.015625 40.1875 58.015625 27.296875 
Q 58.015625 14.40625 51.78125 6.484375 
Q 45.5625 -1.421875 35.59375 -1.421875 
Q 29.59375 -1.421875 25.265625 0.953125 
Q 20.953125 3.328125 18.109375 8.203125 
z
M 48.6875 27.296875 
Q 48.6875 37.203125 44.609375 42.84375 
Q 40.53125 48.484375 33.40625 48.484375 
Q 26.265625 48.484375 22.1875 42.84375 
Q 18.109375 37.203125 18.109375 27.296875 
Q 18.109375 17.390625 22.1875 11.75 
Q 26.265625 6.109375 33.40625 6.109375 
Q 40.53125 6.109375 44.609375 11.75 
Q 48.6875 17.390625 48.6875 27.296875 
z
" id="DejaVuSans-112"/>
     <path d="M 8.5 21.578125 
L 8.5 54.6875 
L 17.484375 54.6875 
L 17.484375 21.921875 
Q 17.484375 14.15625 20.5 10.265625 
Q 23.53125 6.390625 29.59375 6.390625 
Q 36.859375 6.390625 41.078125 11.03125 
Q 45.3125 15.671875 45.3125 23.6875 
L 45.3125 54.6875 
L 54.296875 54.6875 
L 54.296875 0 
L 45.3125 0 
L 45.3125 8.40625 
Q 42.046875 3.421875 37.71875 1 
Q 33.40625 -1.421875 27.6875 -1.421875 
Q 18.265625 -1.421875 13.375 4.4375 
Q 8.5 10.296875 8.5 21.578125 
z
M 31.109375 56 
z
" id="DejaVuSans-117"/>
     <path d="M 9.421875 75.984375 
L 18.40625 75.984375 
L 18.40625 0 
L 9.421875 0 
z
" id="DejaVuSans-108"/>
     <path d="M 17.921875 72.90625 
L 17.921875 45.796875 
L 9.625 45.796875 
L 9.625 72.90625 
z
" id="DejaVuSans-39"/>
     <path id="DejaVuSans-32"/>
     <path d="M 2.984375 54.6875 
L 12.5 54.6875 
L 29.59375 8.796875 
L 46.6875 54.6875 
L 56.203125 54.6875 
L 35.6875 0 
L 23.484375 0 
z
" id="DejaVuSans-118"/>
     <path d="M 45.40625 27.984375 
Q 45.40625 37.75 41.375 43.109375 
Q 37.359375 48.484375 30.078125 48.484375 
Q 22.859375 48.484375 18.828125 43.109375 
Q 14.796875 37.75 14.796875 27.984375 
Q 14.796875 18.265625 18.828125 12.890625 
Q 22.859375 7.515625 30.078125 7.515625 
Q 37.359375 7.515625 41.375 12.890625 
Q 45.40625 18.265625 45.40625 27.984375 
z
M 54.390625 6.78125 
Q 54.390625 -7.171875 48.1875 -13.984375 
Q 42 -20.796875 29.203125 -20.796875 
Q 24.46875 -20.796875 20.265625 -20.09375 
Q 16.0625 -19.390625 12.109375 -17.921875 
L 12.109375 -9.1875 
Q 16.0625 -11.328125 19.921875 -12.34375 
Q 23.78125 -13.375 27.78125 -13.375 
Q 36.625 -13.375 41.015625 -8.765625 
Q 45.40625 -4.15625 45.40625 5.171875 
L 45.40625 9.625 
Q 42.625 4.78125 38.28125 2.390625 
Q 33.9375 0 27.875 0 
Q 17.828125 0 11.671875 7.65625 
Q 5.515625 15.328125 5.515625 27.984375 
Q 5.515625 40.671875 11.671875 48.328125 
Q 17.828125 56 27.875 56 
Q 33.9375 56 38.28125 53.609375 
Q 42.625 51.21875 45.40625 46.390625 
L 45.40625 54.6875 
L 54.390625 54.6875 
z
" id="DejaVuSans-103"/>
     <path d="M 45.40625 46.390625 
L 45.40625 75.984375 
L 54.390625 75.984375 
L 54.390625 0 
L 45.40625 0 
L 45.40625 8.203125 
Q 42.578125 3.328125 38.25 0.953125 
Q 33.9375 -1.421875 27.875 -1.421875 
Q 17.96875 -1.421875 11.734375 6.484375 
Q 5.515625 14.40625 5.515625 27.296875 
Q 5.515625 40.1875 11.734375 48.09375 
Q 17.96875 56 27.875 56 
Q 33.9375 56 38.25 53.625 
Q 42.578125 51.265625 45.40625 46.390625 
z
M 14.796875 27.296875 
Q 14.796875 17.390625 18.875 11.75 
Q 22.953125 6.109375 30.078125 6.109375 
Q 37.203125 6.109375 41.296875 11.75 
Q 45.40625 17.390625 45.40625 27.296875 
Q 45.40625 37.203125 41.296875 42.84375 
Q 37.203125 48.484375 30.078125 48.484375 
Q 22.953125 48.484375 18.875 42.84375 
Q 14.796875 37.203125 14.796875 27.296875 
z
" id="DejaVuSans-100"/>
     <path d="M 48.6875 27.296875 
Q 48.6875 37.203125 44.609375 42.84375 
Q 40.53125 48.484375 33.40625 48.484375 
Q 26.265625 48.484375 22.1875 42.84375 
Q 18.109375 37.203125 18.109375 27.296875 
Q 18.109375 17.390625 22.1875 11.75 
Q 26.265625 6.109375 33.40625 6.109375 
Q 40.53125 6.109375 44.609375 11.75 
Q 48.6875 17.390625 48.6875 27.296875 
z
M 18.109375 46.390625 
Q 20.953125 51.265625 25.265625 53.625 
Q 29.59375 56 35.59375 56 
Q 45.5625 56 51.78125 48.09375 
Q 58.015625 40.1875 58.015625 27.296875 
Q 58.015625 14.40625 51.78125 6.484375 
Q 45.5625 -1.421875 35.59375 -1.421875 
Q 29.59375 -1.421875 25.265625 0.953125 
Q 20.953125 3.328125 18.109375 8.203125 
L 18.109375 0 
L 9.078125 0 
L 9.078125 75.984375 
L 18.109375 75.984375 
z
" id="DejaVuSans-98"/>
     <path d="M 37.109375 75.984375 
L 37.109375 68.5 
L 28.515625 68.5 
Q 23.6875 68.5 21.796875 66.546875 
Q 19.921875 64.59375 19.921875 59.515625 
L 19.921875 54.6875 
L 34.71875 54.6875 
L 34.71875 47.703125 
L 19.921875 47.703125 
L 19.921875 0 
L 10.890625 0 
L 10.890625 47.703125 
L 2.296875 47.703125 
L 2.296875 54.6875 
L 10.890625 54.6875 
L 10.890625 58.5 
Q 10.890625 67.625 15.140625 71.796875 
Q 19.390625 75.984375 28.609375 75.984375 
z
" id="DejaVuSans-102"/>
    </defs>
    <g transform="translate(123.315 35.472)scale(0.12 -0.12)">
     <use xlink:href="#DejaVuSans-80"/>
     <use x="60.255859" xlink:href="#DejaVuSans-111"/>
     <use x="121.4375" xlink:href="#DejaVuSans-112"/>
     <use x="184.914062" xlink:href="#DejaVuSans-117"/>
     <use x="248.292969" xlink:href="#DejaVuSans-108"/>
     <use x="276.076172" xlink:href="#DejaVuSans-97"/>
     <use x="337.355469" xlink:href="#DejaVuSans-116"/>
     <use x="376.564453" xlink:href="#DejaVuSans-105"/>
     <use x="404.347656" xlink:href="#DejaVuSans-111"/>
     <use x="465.529297" xlink:href="#DejaVuSans-110"/>
     <use x="528.908203" xlink:href="#DejaVuSans-39"/>
     <use x="556.398438" xlink:href="#DejaVuSans-115"/>
     <use x="608.498047" xlink:href="#DejaVuSans-32"/>
     <use x="640.285156" xlink:href="#DejaVuSans-97"/>
     <use x="701.564453" xlink:href="#DejaVuSans-118"/>
     <use x="760.744141" xlink:href="#DejaVuSans-101"/>
     <use x="822.267578" xlink:href="#DejaVuSans-114"/>
     <use x="863.380859" xlink:href="#DejaVuSans-97"/>
     <use x="924.660156" xlink:href="#DejaVuSans-103"/>
     <use x="988.136719" xlink:href="#DejaVuSans-101"/>
     <use x="1049.660156" xlink:href="#DejaVuSans-32"/>
     <use x="1081.447266" xlink:href="#DejaVuSans-97"/>
     <use x="1142.726562" xlink:href="#DejaVuSans-110"/>
     <use x="1206.105469" xlink:href="#DejaVuSans-100"/>
     <use x="1269.582031" xlink:href="#DejaVuSans-32"/>
     <use x="1301.369141" xlink:href="#DejaVuSans-98"/>
     <use x="1364.845703" xlink:href="#DejaVuSans-101"/>
     <use x="1426.369141" xlink:href="#DejaVuSans-115"/>
     <use x="1478.46875" xlink:href="#DejaVuSans-116"/>
     <use x="1517.677734" xlink:href="#DejaVuSans-32"/>
     <use x="1549.464844" xlink:href="#DejaVuSans-102"/>
     <use x="1584.669922" xlink:href="#DejaVuSans-105"/>
     <use x="1612.453125" xlink:href="#DejaVuSans-116"/>
     <use x="1651.662109" xlink:href="#DejaVuSans-110"/>
     <use x="1715.041016" xlink:href="#DejaVuSans-101"/>
     <use x="1776.564453" xlink:href="#DejaVuSans-115"/>
     <use x="1828.664062" xlink:href="#DejaVuSans-115"/>
    </g>
   </g>
   <g id="legend_1">
    <g id="patch_7">
     <path d="M 64.6 108.1845 
L 137.540625 108.1845 
Q 139.540625 108.1845 139.540625 106.1845 
L 139.540625 48.472 
Q 139.540625 46.472 137.540625 46.472 
L 64.6 46.472 
Q 62.6 46.472 62.6 48.472 
L 62.6 106.1845 
Q 62.6 108.1845 64.6 108.1845 
z
" style="fill:#ffffff;opacity:0.8;stroke:#cccccc;stroke-linejoin:miter;"/>
    </g>
    <g id="line2d_35">
     <path d="M 66.6 54.570438 
L 86.6 54.570438 
" style="fill:none;stroke:#0000ff;stroke-linecap:square;stroke-width:1.5;"/>
    </g>
    <g id="line2d_36"/>
    <g id="text_19">
     <!-- average -->
     <g transform="translate(94.6 58.070438)scale(0.1 -0.1)">
      <use xlink:href="#DejaVuSans-97"/>
      <use x="61.279297" xlink:href="#DejaVuSans-118"/>
      <use x="120.458984" xlink:href="#DejaVuSans-101"/>
      <use x="181.982422" xlink:href="#DejaVuSans-114"/>
      <use x="223.095703" xlink:href="#DejaVuSans-97"/>
      <use x="284.375" xlink:href="#DejaVuSans-103"/>
      <use x="347.851562" xlink:href="#DejaVuSans-101"/>
     </g>
    </g>
    <g id="line2d_37">
     <path d="M 66.6 69.248563 
L 86.6 69.248563 
" style="fill:none;stroke:#008000;stroke-dasharray:9.6,2.4,1.5,2.4;stroke-dashoffset:0;stroke-width:1.5;"/>
    </g>
    <g id="line2d_38"/>
    <g id="text_20">
     <!-- -1 sd -->
     <defs>
      <path d="M 4.890625 31.390625 
L 31.203125 31.390625 
L 31.203125 23.390625 
L 4.890625 23.390625 
z
" id="DejaVuSans-45"/>
     </defs>
     <g transform="translate(94.6 72.748563)scale(0.1 -0.1)">
      <use xlink:href="#DejaVuSans-45"/>
      <use x="36.083984" xlink:href="#DejaVuSans-49"/>
      <use x="99.707031" xlink:href="#DejaVuSans-32"/>
      <use x="131.494141" xlink:href="#DejaVuSans-115"/>
      <use x="183.59375" xlink:href="#DejaVuSans-100"/>
     </g>
    </g>
    <g id="line2d_39">
     <path d="M 66.6 83.926688 
L 86.6 83.926688 
" style="fill:none;stroke:#008000;stroke-dasharray:9.6,2.4,1.5,2.4;stroke-dashoffset:0;stroke-width:1.5;"/>
    </g>
    <g id="line2d_40"/>
    <g id="text_21">
     <!-- +1 sd -->
     <defs>
      <path d="M 46 62.703125 
L 46 35.5 
L 73.1875 35.5 
L 73.1875 27.203125 
L 46 27.203125 
L 46 0 
L 37.796875 0 
L 37.796875 27.203125 
L 10.59375 27.203125 
L 10.59375 35.5 
L 37.796875 35.5 
L 37.796875 62.703125 
z
" id="DejaVuSans-43"/>
     </defs>
     <g transform="translate(94.6 87.426688)scale(0.1 -0.1)">
      <use xlink:href="#DejaVuSans-43"/>
      <use x="83.789062" xlink:href="#DejaVuSans-49"/>
      <use x="147.412109" xlink:href="#DejaVuSans-32"/>
      <use x="179.199219" xlink:href="#DejaVuSans-115"/>
      <use x="231.298828" xlink:href="#DejaVuSans-100"/>
     </g>
    </g>
    <g id="line2d_41">
     <path d="M 66.6 98.604813 
L 86.6 98.604813 
" style="fill:none;stroke:#ff0000;stroke-linecap:square;stroke-width:1.5;"/>
    </g>
    <g id="line2d_42"/>
    <g id="text_22">
     <!-- best -->
     <g transform="translate(94.6 102.104813)scale(0.1 -0.1)">
      <use xlink:href="#DejaVuSans-98"/>
      <use x="63.476562" xlink:href="#DejaVuSans-101"/>
      <use x="125" xlink:href="#DejaVuSans-115"/>
      <use x="177.099609" xlink:href="#DejaVuSans-116"/>
     </g>
    </g>
   </g>
  </g>
 </g>
 <defs>
  <clipPath id="p9537f0cfef">
   <rect height="266.112" width="357.12" x="57.6" y="41.472"/>
  </clipPath>
 </defs>
</svg>
