<?xml version="1.0" encoding="UTF-8" standalone="no"?>
<!DOCTYPE svg PUBLIC "-//W3C//DTD SVG 1.1//EN"
 "http://www.w3.org/Graphics/SVG/1.1/DTD/svg11.dtd">
<!-- Generated by graphviz version 2.40.1 (20161225.0304)
 -->
<!-- Title: %3 Pages: 1 -->
<svg width="655pt" height="259pt"
 viewBox="0.00 0.00 654.82 258.87" xmlns="http://www.w3.org/2000/svg" xmlns:xlink="http://www.w3.org/1999/xlink">
<g id="graph0" class="graph" transform="scale(1 1) rotate(0) translate(4 254.8726)">
<title>%3</title>
<polygon fill="#ffffff" stroke="transparent" points="-4,4 -4,-254.8726 650.819,-254.8726 650.819,4 -4,4"/>
<!-- E0 -->
<g id="node1" class="node">
<title>E0</title>
<polygon fill="#d3d3d3" stroke="#000000" points="56.7749,-250.8726 30.7798,-250.8726 30.7798,-233.8726 56.7749,-233.8726 56.7749,-250.8726"/>
<text text-anchor="middle" x="43.7774" y="-239.6726" font-family="Times,serif" font-size="9.00" fill="#000000">E0</text>
</g>
<!-- E1 -->
<g id="node2" class="node">
<title>E1</title>
<polygon fill="#d3d3d3" stroke="#000000" points="123.7749,-250.8726 97.7798,-250.8726 97.7798,-233.8726 123.7749,-233.8726 123.7749,-250.8726"/>
<text text-anchor="middle" x="110.7774" y="-239.6726" font-family="Times,serif" font-size="9.00" fill="#000000">E1</text>
</g>
<!-- E0&#45;&gt;E1 -->
<!-- 1 -->
<g id="node11" class="node">
<title>1</title>
<ellipse fill="#87cefa" stroke="#000000" cx="219.7774" cy="-14.853" rx="14.4914" ry="14.4914"/>
<text text-anchor="middle" x="219.7774" y="-12.153" font-family="Times,serif" font-size="9.00" fill="#000000">1</text>
</g>
<!-- E0&#45;&gt;1 -->
<g id="edge16" class="edge">
<title>E0&#45;&gt;1</title>
<path fill="none" stroke="#00ff00" stroke-width="1.1166" d="M33.3414,-233.739C24.3579,-225.572 12.0367,-212.4243 6.7774,-197.8726 -.4865,-177.7747 -3.5253,-168.5122 6.7774,-149.7893 8.1337,-147.3246 144.7679,-61.7403 198.4593,-28.1718"/>
<polygon fill="#00ff00" stroke="#00ff00" stroke-width="1.1166" points="200.5615,-30.9854 207.1862,-22.7171 196.8513,-25.0495 200.5615,-30.9854"/>
</g>
<!-- S -->
<g id="node13" class="node">
<title>S</title>
<ellipse fill="#87cefa" stroke="#000000" cx="390.7774" cy="-14.853" rx="14.7075" ry="14.7075"/>
<text text-anchor="middle" x="390.7774" y="-12.153" font-family="Times,serif" font-size="9.00" fill="#000000">S</text>
</g>
<!-- E0&#45;&gt;S -->
<g id="edge25" class="edge">
<title>E0&#45;&gt;S</title>
<path fill="none" stroke="#00ff00" stroke-width=".55" d="M45.2357,-233.6572C48.5011,-216.2364 57.7402,-176.4989 77.7774,-149.7893 96.6677,-124.6086 163.2785,-79.075 191.7774,-65.7061 252.2831,-37.3226 273.1484,-46.7255 337.7774,-29.7061 347.2088,-27.2224 357.5442,-24.3583 366.5636,-21.8118"/>
<polygon fill="#00ff00" stroke="#00ff00" stroke-width=".55" points="367.753,-25.1124 376.4141,-19.0103 365.8381,-18.3794 367.753,-25.1124"/>
</g>
<!-- 4540 -->
<g id="node17" class="node">
<title>4540</title>
<ellipse fill="#add8e6" stroke="#000000" cx="110.7774" cy="-173.831" rx="24.0833" ry="24.0833"/>
<text text-anchor="middle" x="110.7774" y="-175.631" font-family="Times,serif" font-size="9.00" fill="#000000">4540</text>
<text text-anchor="middle" x="110.7774" y="-166.631" font-family="Times,serif" font-size="9.00" fill="#000000">sigm</text>
</g>
<!-- E0&#45;&gt;4540 -->
<g id="edge23" class="edge">
<title>E0&#45;&gt;4540</title>
<path fill="none" stroke="#00ff00" stroke-width=".3866" d="M52.263,-233.6918C60.8944,-224.8617 74.6732,-210.7659 86.6923,-198.4703"/>
<polygon fill="#00ff00" stroke="#00ff00" stroke-width=".3866" points="89.3993,-200.708 93.8867,-191.1103 84.3936,-195.8148 89.3993,-200.708"/>
</g>
<!-- E2 -->
<g id="node3" class="node">
<title>E2</title>
<polygon fill="#d3d3d3" stroke="#000000" points="194.7749,-250.8726 168.7798,-250.8726 168.7798,-233.8726 194.7749,-233.8726 194.7749,-250.8726"/>
<text text-anchor="middle" x="181.7774" y="-239.6726" font-family="Times,serif" font-size="9.00" fill="#000000">E2</text>
</g>
<!-- E1&#45;&gt;E2 -->
<!-- 0 -->
<g id="node10" class="node">
<title>0</title>
<ellipse fill="#87cefa" stroke="#000000" cx="172.7774" cy="-14.853" rx="14.4914" ry="14.4914"/>
<text text-anchor="middle" x="172.7774" y="-12.153" font-family="Times,serif" font-size="9.00" fill="#000000">0</text>
</g>
<!-- E1&#45;&gt;0 -->
<g id="edge22" class="edge">
<title>E1&#45;&gt;0</title>
<path fill="none" stroke="#00ff00" stroke-width=".2627" d="M101.7594,-233.8288C93.7083,-225.5278 82.4836,-212.1198 77.7774,-197.8726 71.0744,-177.5807 71.3251,-170.1623 77.7774,-149.7893 92.9322,-101.9385 131.8371,-56.3851 154.8874,-32.3953"/>
<polygon fill="#00ff00" stroke="#00ff00" stroke-width=".2627" points="157.5288,-34.7008 162.0394,-25.1141 152.5349,-29.7956 157.5288,-34.7008"/>
</g>
<!-- E1&#45;&gt;S -->
<g id="edge17" class="edge">
<title>E1&#45;&gt;S</title>
<path fill="none" stroke="#00ff00" stroke-width=".6809" d="M120.5959,-233.8268C139.5761,-217.3531 182.7012,-180.1473 219.7774,-149.7893 273.536,-105.7719 338.2079,-55.4342 370.4393,-30.5201"/>
<polygon fill="#00ff00" stroke="#00ff00" stroke-width=".6809" points="372.8573,-33.0751 378.634,-24.1936 368.5795,-27.5342 372.8573,-33.0751"/>
</g>
<!-- E1&#45;&gt;4540 -->
<g id="edge26" class="edge">
<title>E1&#45;&gt;4540</title>
<path fill="none" stroke="#ff0000" stroke-width=".4306" d="M110.7774,-233.6918C110.7774,-227.1311 110.7774,-217.6636 110.7774,-208.1874"/>
<polygon fill="#ff0000" stroke="#ff0000" stroke-width=".4306" points="114.2775,-208.0383 110.7774,-198.0384 107.2775,-208.0384 114.2775,-208.0383"/>
</g>
<!-- E3 -->
<g id="node4" class="node">
<title>E3</title>
<polygon fill="#d3d3d3" stroke="#000000" points="239.7749,-250.8726 213.7798,-250.8726 213.7798,-233.8726 239.7749,-233.8726 239.7749,-250.8726"/>
<text text-anchor="middle" x="226.7774" y="-239.6726" font-family="Times,serif" font-size="9.00" fill="#000000">E3</text>
</g>
<!-- E2&#45;&gt;E3 -->
<!-- E4 -->
<g id="node5" class="node">
<title>E4</title>
<polygon fill="#d3d3d3" stroke="#000000" points="314.7749,-250.8726 288.7798,-250.8726 288.7798,-233.8726 314.7749,-233.8726 314.7749,-250.8726"/>
<text text-anchor="middle" x="301.7774" y="-239.6726" font-family="Times,serif" font-size="9.00" fill="#000000">E4</text>
</g>
<!-- E3&#45;&gt;E4 -->
<!-- E3&#45;&gt;0 -->
<g id="edge21" class="edge">
<title>E3&#45;&gt;0</title>
<path fill="none" stroke="#ff0000" stroke-width=".2328" d="M224.1709,-233.6996C218.0206,-213.0546 202.3291,-159.3167 191.7774,-113.7893 185.9195,-88.5142 180.4708,-59.3112 176.9239,-39.2188"/>
<polygon fill="#ff0000" stroke="#ff0000" stroke-width=".2328" points="180.3682,-38.5955 175.2046,-29.3442 173.4719,-39.7964 180.3682,-38.5955"/>
</g>
<!-- 5324 -->
<g id="node15" class="node">
<title>5324</title>
<ellipse fill="#add8e6" stroke="#000000" cx="252.7774" cy="-173.831" rx="24.0833" ry="24.0833"/>
<text text-anchor="middle" x="252.7774" y="-175.631" font-family="Times,serif" font-size="9.00" fill="#000000">5324</text>
<text text-anchor="middle" x="252.7774" y="-166.631" font-family="Times,serif" font-size="9.00" fill="#000000">sigm</text>
</g>
<!-- E3&#45;&gt;5324 -->
<g id="edge29" class="edge">
<title>E3&#45;&gt;5324</title>
<path fill="none" stroke="#ff0000" stroke-width=".1018" d="M230.0703,-233.6918C232.7419,-226.6488 236.6843,-216.2557 240.5374,-206.0982"/>
<polygon fill="#ff0000" stroke="#ff0000" stroke-width=".1018" points="243.8855,-207.14 244.1598,-196.5487 237.3406,-204.6573 243.8855,-207.14"/>
</g>
<!-- E5 -->
<g id="node6" class="node">
<title>E5</title>
<polygon fill="#d3d3d3" stroke="#000000" points="358.7749,-250.8726 332.7798,-250.8726 332.7798,-233.8726 358.7749,-233.8726 358.7749,-250.8726"/>
<text text-anchor="middle" x="345.7774" y="-239.6726" font-family="Times,serif" font-size="9.00" fill="#000000">E5</text>
</g>
<!-- E4&#45;&gt;E5 -->
<!-- E4&#45;&gt;S -->
<g id="edge12" class="edge">
<title>E4&#45;&gt;S</title>
<path fill="none" stroke="#00ff00" stroke-width="1.8834" d="M305.1576,-233.7314C317.7264,-201.6006 362.0383,-88.3216 381.4973,-38.5766"/>
<polygon fill="#00ff00" stroke="#00ff00" stroke-width="1.8834" points="384.8685,-39.5659 385.2521,-28.978 378.3496,-37.0158 384.8685,-39.5659"/>
</g>
<!-- E6 -->
<g id="node7" class="node">
<title>E6</title>
<polygon fill="#d3d3d3" stroke="#000000" points="421.7749,-250.8726 395.7798,-250.8726 395.7798,-233.8726 421.7749,-233.8726 421.7749,-250.8726"/>
<text text-anchor="middle" x="408.7774" y="-239.6726" font-family="Times,serif" font-size="9.00" fill="#000000">E6</text>
</g>
<!-- E5&#45;&gt;E6 -->
<!-- 2 -->
<g id="node12" class="node">
<title>2</title>
<ellipse fill="#87cefa" stroke="#000000" cx="314.7774" cy="-14.853" rx="14.4914" ry="14.4914"/>
<text text-anchor="middle" x="314.7774" y="-12.153" font-family="Times,serif" font-size="9.00" fill="#000000">2</text>
</g>
<!-- E5&#45;&gt;2 -->
<g id="edge15" class="edge">
<title>E5&#45;&gt;2</title>
<path fill="none" stroke="#ff0000" stroke-width=".8984" d="M344.6,-233.7314C340.2416,-201.7435 324.9246,-89.3272 318.1007,-39.2438"/>
<polygon fill="#ff0000" stroke="#ff0000" stroke-width=".8984" points="321.5615,-38.7183 316.7434,-29.2824 314.6256,-39.6634 321.5615,-38.7183"/>
</g>
<!-- E7 -->
<g id="node8" class="node">
<title>E7</title>
<polygon fill="#d3d3d3" stroke="#000000" points="478.7749,-250.8726 452.7798,-250.8726 452.7798,-233.8726 478.7749,-233.8726 478.7749,-250.8726"/>
<text text-anchor="middle" x="465.7774" y="-239.6726" font-family="Times,serif" font-size="9.00" fill="#000000">E7</text>
</g>
<!-- E6&#45;&gt;E7 -->
<!-- E6&#45;&gt;2 -->
<g id="edge13" class="edge">
<title>E6&#45;&gt;2</title>
<path fill="none" stroke="#00ff00" stroke-width="2.3011" d="M405.6158,-233.8355C396.0659,-208.1753 366.4678,-129.573 338.7774,-65.7061 334.7144,-56.335 329.9637,-46.1297 325.7661,-37.3374"/>
<polygon fill="#00ff00" stroke="#00ff00" stroke-width="2.3011" points="328.8232,-35.6189 321.328,-28.1307 322.5176,-38.6586 328.8232,-35.6189"/>
</g>
<!-- E6&#45;&gt;S -->
<g id="edge20" class="edge">
<title>E6&#45;&gt;S</title>
<path fill="none" stroke="#00ff00" stroke-width=".4843" d="M409.3209,-233.8523C410.7975,-208.2389 414.172,-129.7537 404.7774,-65.7061 403.4547,-56.6884 401.0442,-46.9958 398.5918,-38.5161"/>
<polygon fill="#00ff00" stroke="#00ff00" stroke-width=".4843" points="401.9227,-37.4397 395.6499,-28.9014 395.229,-39.4878 401.9227,-37.4397"/>
</g>
<!-- E8 -->
<g id="node9" class="node">
<title>E8</title>
<polygon fill="#d3d3d3" stroke="#000000" points="522.7749,-250.8726 496.7798,-250.8726 496.7798,-233.8726 522.7749,-233.8726 522.7749,-250.8726"/>
<text text-anchor="middle" x="509.7774" y="-239.6726" font-family="Times,serif" font-size="9.00" fill="#000000">E8</text>
</g>
<!-- E7&#45;&gt;E8 -->
<!-- E7&#45;&gt;0 -->
<g id="edge14" class="edge">
<title>E7&#45;&gt;0</title>
<path fill="none" stroke="#ff0000" stroke-width="2.0844" d="M456.7078,-233.6721C428.5502,-206.8856 339.605,-123.9555 257.7774,-65.7061 232.1313,-47.4498 223.7188,-45.9902 196.7774,-29.7061 195.9701,-29.2182 195.1486,-28.7196 194.3194,-28.2148"/>
<polygon fill="#ff0000" stroke="#ff0000" stroke-width="2.0844" points="195.8038,-25.019 185.4514,-22.7656 192.139,-30.983 195.8038,-25.019"/>
</g>
<!-- E7&#45;&gt;S -->
<g id="edge18" class="edge">
<title>E7&#45;&gt;S</title>
<path fill="none" stroke="#ff0000" stroke-width=".3295" d="M468.0292,-233.7548C471.9784,-217.158 478.9915,-179.7508 470.7774,-149.7893 458.4102,-104.6792 426.6289,-59.3623 407.0498,-34.4203"/>
<polygon fill="#ff0000" stroke="#ff0000" stroke-width=".3295" points="409.671,-32.0943 400.6851,-26.4814 404.2095,-36.4729 409.671,-32.0943"/>
</g>
<!-- 5431 -->
<g id="node16" class="node">
<title>5431</title>
<ellipse fill="#add8e6" stroke="#000000" cx="622.7774" cy="-89.7477" rx="24.0833" ry="24.0833"/>
<text text-anchor="middle" x="622.7774" y="-91.5477" font-family="Times,serif" font-size="9.00" fill="#000000">5431</text>
<text text-anchor="middle" x="622.7774" y="-82.5477" font-family="Times,serif" font-size="9.00" fill="#000000">sigm</text>
</g>
<!-- E7&#45;&gt;5431 -->
<g id="edge31" class="edge">
<title>E7&#45;&gt;5431</title>
<path fill="none" stroke="#ff0000" stroke-width=".2716" d="M474.6682,-233.7295C498.0673,-210.9825 562.0113,-148.8204 597.7557,-114.0721"/>
<polygon fill="#ff0000" stroke="#ff0000" stroke-width=".2716" points="600.6215,-116.1674 605.3522,-106.6873 595.7422,-111.1482 600.6215,-116.1674"/>
</g>
<!-- E8&#45;&gt;2 -->
<g id="edge19" class="edge">
<title>E8&#45;&gt;2</title>
<path fill="none" stroke="#ff0000" stroke-width=".1476" d="M508.9356,-233.7067C505.7556,-205.5737 492.0243,-115.7313 442.7774,-65.7061 427.7919,-50.4837 371.3779,-31.7398 338.6609,-21.8041"/>
<polygon fill="#ff0000" stroke="#ff0000" stroke-width=".1476" points="339.5372,-18.4131 328.9538,-18.9034 337.533,-25.1201 339.5372,-18.4131"/>
</g>
<!-- E8&#45;&gt;4540 -->
<g id="edge28" class="edge">
<title>E8&#45;&gt;4540</title>
<path fill="none" stroke="#00ff00" stroke-width=".6463" d="M496.4449,-236.6468C493.6226,-235.598 490.633,-234.6052 487.7774,-233.8726 371.3657,-204.0098 338.1163,-218.8337 219.7774,-197.8726 194.3603,-193.3705 165.8831,-187.0446 144.4116,-182.0116"/>
<polygon fill="#00ff00" stroke="#00ff00" stroke-width=".6463" points="145.0155,-178.5579 134.478,-179.6584 143.4018,-185.3694 145.0155,-178.5579"/>
</g>
<!-- 0&#45;&gt;1 -->
<!-- 1&#45;&gt;2 -->
<!-- 2&#45;&gt;S -->
<!-- 5131 -->
<g id="node14" class="node">
<title>5131</title>
<ellipse fill="#add8e6" stroke="#000000" cx="224.7774" cy="-89.7477" rx="24.0833" ry="24.0833"/>
<text text-anchor="middle" x="224.7774" y="-91.5477" font-family="Times,serif" font-size="9.00" fill="#000000">5131</text>
<text text-anchor="middle" x="224.7774" y="-82.5477" font-family="Times,serif" font-size="9.00" fill="#000000">sigm</text>
</g>
<!-- 5131&#45;&gt;2 -->
<g id="edge27" class="edge">
<title>5131&#45;&gt;2</title>
<path fill="none" stroke="#ff0000" stroke-width=".1739" d="M243.4254,-74.2295C258.7172,-61.5042 280.2774,-43.5627 295.6881,-30.7384"/>
<polygon fill="#ff0000" stroke="#ff0000" stroke-width=".1739" points="298.0903,-33.2928 303.5381,-24.2059 293.6127,-27.9122 298.0903,-33.2928"/>
</g>
<!-- 5324&#45;&gt;5131 -->
<g id="edge30" class="edge">
<title>5324&#45;&gt;5131</title>
<path fill="none" stroke="#00ff00" stroke-width=".3445" d="M245.1263,-150.8549C242.194,-142.0493 238.7903,-131.8282 235.6155,-122.2943"/>
<polygon fill="#00ff00" stroke="#00ff00" stroke-width=".3445" points="238.8995,-121.078 232.4193,-112.6961 232.2581,-123.2897 238.8995,-121.078"/>
</g>
<!-- 5431&#45;&gt;S -->
<g id="edge32" class="edge">
<title>5431&#45;&gt;S</title>
<path fill="none" stroke="#00ff00" stroke-width=".1233" d="M602.9064,-75.565C597.2427,-71.9754 590.9341,-68.3837 584.7774,-65.7061 526.801,-40.4918 453.4701,-25.4624 415.7329,-18.8548"/>
<polygon fill="#00ff00" stroke="#00ff00" stroke-width=".1233" points="416.0918,-15.3657 405.647,-17.1425 414.9201,-22.267 416.0918,-15.3657"/>
</g>
<!-- 4540&#45;&gt;2 -->
<g id="edge24" class="edge">
<title>4540&#45;&gt;2</title>
<path fill="none" stroke="#ff0000" stroke-width=".3279" d="M122.1199,-152.4194C135.7912,-128.416 160.8324,-89.7199 191.7774,-65.7061 221.9415,-42.2983 264.4089,-27.922 290.731,-20.6702"/>
<polygon fill="#ff0000" stroke="#ff0000" stroke-width=".3279" points="291.8342,-23.9993 300.617,-18.0736 290.0558,-17.2289 291.8342,-23.9993"/>
</g>
</g>
</svg>
