<?xml version="1.0" encoding="UTF-8" standalone="no"?>
<!DOCTYPE svg PUBLIC "-//W3C//DTD SVG 1.1//EN"
 "http://www.w3.org/Graphics/SVG/1.1/DTD/svg11.dtd">
<!-- Generated by graphviz version 2.40.1 (20161225.0304)
 -->
<!-- Title: %3 Pages: 1 -->
<svg width="485pt" height="98pt"
 viewBox="0.00 0.00 484.77 97.77" xmlns="http://www.w3.org/2000/svg" xmlns:xlink="http://www.w3.org/1999/xlink">
<g id="graph0" class="graph" transform="scale(1 1) rotate(0) translate(4 93.7661)">
<title>%3</title>
<polygon fill="#ffffff" stroke="transparent" points="-4,4 -4,-93.7661 480.7661,-93.7661 480.7661,4 -4,4"/>
<!-- 0 -->
<g id="node1" class="node">
<title>0</title>
<polygon fill="#d3d3d3" stroke="#000000" points="283.389,-89.7661 263.3771,-89.7661 263.3771,-72.7661 283.389,-72.7661 283.389,-89.7661"/>
<text text-anchor="middle" x="273.383" y="-78.5661" font-family="Times,serif" font-size="9.00" fill="#000000">0</text>
</g>
<!-- 1 -->
<g id="node2" class="node">
<title>1</title>
<polygon fill="#d3d3d3" stroke="#000000" points="338.389,-89.7661 318.3771,-89.7661 318.3771,-72.7661 338.389,-72.7661 338.389,-89.7661"/>
<text text-anchor="middle" x="328.383" y="-78.5661" font-family="Times,serif" font-size="9.00" fill="#000000">1</text>
</g>
<!-- 0&#45;&gt;1 -->
<!-- E3 -->
<g id="node7" class="node">
<title>E3</title>
<ellipse fill="#87cefa" stroke="#000000" cx="183.383" cy="-18.383" rx="18.2668" ry="18.2668"/>
<text text-anchor="middle" x="183.383" y="-15.683" font-family="Times,serif" font-size="9.00" fill="#000000">E3</text>
</g>
<!-- 0&#45;&gt;E3 -->
<g id="edge11" class="edge">
<title>0&#45;&gt;E3</title>
<path fill="none" stroke="#ff0000" stroke-width="2.8815" d="M263.0589,-74.0526C249.4887,-64.5711 225.2435,-47.631 207.0506,-34.9196"/>
<polygon fill="#ff0000" stroke="#ff0000" stroke-width="2.8815" points="208.881,-31.9288 198.679,-29.0703 204.8717,-37.6669 208.881,-31.9288"/>
</g>
<!-- 2 -->
<g id="node3" class="node">
<title>2</title>
<polygon fill="#d3d3d3" stroke="#000000" points="377.389,-89.7661 357.3771,-89.7661 357.3771,-72.7661 377.389,-72.7661 377.389,-89.7661"/>
<text text-anchor="middle" x="367.383" y="-78.5661" font-family="Times,serif" font-size="9.00" fill="#000000">2</text>
</g>
<!-- 1&#45;&gt;2 -->
<!-- E7 -->
<g id="node11" class="node">
<title>E7</title>
<ellipse fill="#87cefa" stroke="#000000" cx="403.383" cy="-18.383" rx="18.2668" ry="18.2668"/>
<text text-anchor="middle" x="403.383" y="-15.683" font-family="Times,serif" font-size="9.00" fill="#000000">E7</text>
</g>
<!-- 1&#45;&gt;E7 -->
<g id="edge13" class="edge">
<title>1&#45;&gt;E7</title>
<path fill="none" stroke="#ff0000" stroke-width=".7213" d="M338.4979,-72.7854C349.3941,-63.6495 367.073,-48.8269 381.2274,-36.9593"/>
<polygon fill="#ff0000" stroke="#ff0000" stroke-width=".7213" points="383.6619,-39.4856 389.0761,-30.3786 379.1644,-34.1215 383.6619,-39.4856"/>
</g>
<!-- E8 -->
<g id="node12" class="node">
<title>E8</title>
<ellipse fill="#87cefa" stroke="#000000" cx="458.383" cy="-18.383" rx="18.2668" ry="18.2668"/>
<text text-anchor="middle" x="458.383" y="-15.683" font-family="Times,serif" font-size="9.00" fill="#000000">E8</text>
</g>
<!-- 1&#45;&gt;E8 -->
<g id="edge14" class="edge">
<title>1&#45;&gt;E8</title>
<path fill="none" stroke="#00ff00" stroke-width=".3316" d="M338.5798,-76.934C362.6752,-66.6804 421.7604,-41.4339 430.383,-36.7661 431.7255,-36.0394 433.087,-35.2685 434.4495,-34.47"/>
<polygon fill="#00ff00" stroke="#00ff00" stroke-width=".3316" points="436.6286,-37.2361 443.2661,-28.9781 432.9276,-31.2945 436.6286,-37.2361"/>
</g>
<!-- E5 -->
<g id="node9" class="node">
<title>E5</title>
<ellipse fill="#87cefa" stroke="#000000" cx="293.383" cy="-18.383" rx="18.2668" ry="18.2668"/>
<text text-anchor="middle" x="293.383" y="-15.683" font-family="Times,serif" font-size="9.00" fill="#000000">E5</text>
</g>
<!-- 2&#45;&gt;E5 -->
<g id="edge12" class="edge">
<title>2&#45;&gt;E5</title>
<path fill="none" stroke="#ff0000" stroke-width="2.0969" d="M357.0937,-72.5225C346.3376,-63.3823 329.133,-48.7623 315.3122,-37.0178"/>
<polygon fill="#ff0000" stroke="#ff0000" stroke-width="2.0969" points="317.5267,-34.3066 307.64,-30.4982 312.9939,-39.6408 317.5267,-34.3066"/>
</g>
<!-- E0 -->
<g id="node4" class="node">
<title>E0</title>
<ellipse fill="#87cefa" stroke="#000000" cx="18.383" cy="-18.383" rx="18.2668" ry="18.2668"/>
<text text-anchor="middle" x="18.383" y="-15.683" font-family="Times,serif" font-size="9.00" fill="#000000">E0</text>
</g>
<!-- E1 -->
<g id="node5" class="node">
<title>E1</title>
<ellipse fill="#87cefa" stroke="#000000" cx="73.383" cy="-18.383" rx="18.2668" ry="18.2668"/>
<text text-anchor="middle" x="73.383" y="-15.683" font-family="Times,serif" font-size="9.00" fill="#000000">E1</text>
</g>
<!-- E0&#45;&gt;E1 -->
<!-- E2 -->
<g id="node6" class="node">
<title>E2</title>
<ellipse fill="#87cefa" stroke="#000000" cx="128.383" cy="-18.383" rx="18.2668" ry="18.2668"/>
<text text-anchor="middle" x="128.383" y="-15.683" font-family="Times,serif" font-size="9.00" fill="#000000">E2</text>
</g>
<!-- E1&#45;&gt;E2 -->
<!-- E2&#45;&gt;E3 -->
<!-- E4 -->
<g id="node8" class="node">
<title>E4</title>
<ellipse fill="#87cefa" stroke="#000000" cx="238.383" cy="-18.383" rx="18.2668" ry="18.2668"/>
<text text-anchor="middle" x="238.383" y="-15.683" font-family="Times,serif" font-size="9.00" fill="#000000">E4</text>
</g>
<!-- E3&#45;&gt;E4 -->
<!-- E4&#45;&gt;E5 -->
<!-- E6 -->
<g id="node10" class="node">
<title>E6</title>
<ellipse fill="#87cefa" stroke="#000000" cx="348.383" cy="-18.383" rx="18.2668" ry="18.2668"/>
<text text-anchor="middle" x="348.383" y="-15.683" font-family="Times,serif" font-size="9.00" fill="#000000">E6</text>
</g>
<!-- E5&#45;&gt;E6 -->
<!-- E6&#45;&gt;E7 -->
<!-- E7&#45;&gt;E8 -->
</g>
</svg>
