<?xml version="1.0" encoding="UTF-8" standalone="no"?>
<!DOCTYPE svg PUBLIC "-//W3C//DTD SVG 1.1//EN"
 "http://www.w3.org/Graphics/SVG/1.1/DTD/svg11.dtd">
<!-- Generated by graphviz version 2.40.1 (20161225.0304)
 -->
<!-- Title: %3 Pages: 1 -->
<svg width="386pt" height="175pt"
 viewBox="0.00 0.00 386.00 174.79" xmlns="http://www.w3.org/2000/svg" xmlns:xlink="http://www.w3.org/1999/xlink">
<g id="graph0" class="graph" transform="scale(1 1) rotate(0) translate(4 170.7893)">
<title>%3</title>
<polygon fill="#ffffff" stroke="transparent" points="-4,4 -4,-170.7893 381.9976,-170.7893 381.9976,4 -4,4"/>
<!-- E0 -->
<g id="node1" class="node">
<title>E0</title>
<polygon fill="#d3d3d3" stroke="#000000" points="25.9963,-166.7893 .0012,-166.7893 .0012,-149.7893 25.9963,-149.7893 25.9963,-166.7893"/>
<text text-anchor="middle" x="12.9988" y="-155.5893" font-family="Times,serif" font-size="9.00" fill="#000000">E0</text>
</g>
<!-- E1 -->
<g id="node2" class="node">
<title>E1</title>
<polygon fill="#d3d3d3" stroke="#000000" points="69.9963,-166.7893 44.0012,-166.7893 44.0012,-149.7893 69.9963,-149.7893 69.9963,-166.7893"/>
<text text-anchor="middle" x="56.9988" y="-155.5893" font-family="Times,serif" font-size="9.00" fill="#000000">E1</text>
</g>
<!-- E0&#45;&gt;E1 -->
<!-- 0 -->
<g id="node10" class="node">
<title>0</title>
<ellipse fill="#eee8aa" stroke="#000000" cx="57.9988" cy="-14.853" rx="14.4914" ry="14.4914"/>
<text text-anchor="middle" x="57.9988" y="-12.153" font-family="Times,serif" font-size="9.00" fill="#000000">0</text>
</g>
<!-- E0&#45;&gt;0 -->
<g id="edge15" class="edge">
<title>E0&#45;&gt;0</title>
<path fill="none" stroke="#00ff00" stroke-width=".6109" d="M15.679,-149.7463C22.4401,-128.1955 40.3768,-71.0227 50.5969,-38.4463"/>
<polygon fill="#00ff00" stroke="#00ff00" stroke-width=".6109" points="53.9661,-39.3994 53.62,-28.8102 47.287,-37.3039 53.9661,-39.3994"/>
</g>
<!-- E2 -->
<g id="node3" class="node">
<title>E2</title>
<polygon fill="#d3d3d3" stroke="#000000" points="113.9963,-166.7893 88.0012,-166.7893 88.0012,-149.7893 113.9963,-149.7893 113.9963,-166.7893"/>
<text text-anchor="middle" x="100.9988" y="-155.5893" font-family="Times,serif" font-size="9.00" fill="#000000">E2</text>
</g>
<!-- E1&#45;&gt;E2 -->
<!-- 1 -->
<g id="node11" class="node">
<title>1</title>
<ellipse fill="#87cefa" stroke="#000000" cx="146.9988" cy="-14.853" rx="14.4914" ry="14.4914"/>
<text text-anchor="middle" x="146.9988" y="-12.153" font-family="Times,serif" font-size="9.00" fill="#000000">1</text>
</g>
<!-- E1&#45;&gt;1 -->
<g id="edge12" class="edge">
<title>E1&#45;&gt;1</title>
<path fill="none" stroke="#ff0000" stroke-width="1.6372" d="M62.3592,-149.7463C76.2051,-127.6796 113.4853,-68.2647 133.636,-36.1497"/>
<polygon fill="#ff0000" stroke="#ff0000" stroke-width="1.6372" points="136.7134,-37.8304 139.0637,-27.4995 130.784,-34.1099 136.7134,-37.8304"/>
</g>
<!-- E3 -->
<g id="node4" class="node">
<title>E3</title>
<polygon fill="#d3d3d3" stroke="#000000" points="157.9963,-166.7893 132.0012,-166.7893 132.0012,-149.7893 157.9963,-149.7893 157.9963,-166.7893"/>
<text text-anchor="middle" x="144.9988" y="-155.5893" font-family="Times,serif" font-size="9.00" fill="#000000">E3</text>
</g>
<!-- E2&#45;&gt;E3 -->
<!-- E4 -->
<g id="node5" class="node">
<title>E4</title>
<polygon fill="#d3d3d3" stroke="#000000" points="201.9963,-166.7893 176.0012,-166.7893 176.0012,-149.7893 201.9963,-149.7893 201.9963,-166.7893"/>
<text text-anchor="middle" x="188.9988" y="-155.5893" font-family="Times,serif" font-size="9.00" fill="#000000">E4</text>
</g>
<!-- E3&#45;&gt;E4 -->
<!-- 5367 -->
<g id="node14" class="node">
<title>5367</title>
<ellipse fill="#add8e6" stroke="#000000" cx="312.9988" cy="-89.7477" rx="24.0833" ry="24.0833"/>
<text text-anchor="middle" x="312.9988" y="-91.5477" font-family="Times,serif" font-size="9.00" fill="#000000">5367</text>
<text text-anchor="middle" x="312.9988" y="-82.5477" font-family="Times,serif" font-size="9.00" fill="#000000">sigm</text>
</g>
<!-- E3&#45;&gt;5367 -->
<g id="edge18" class="edge">
<title>E3&#45;&gt;5367</title>
<path fill="none" stroke="#ff0000" stroke-width=".3511" d="M158.1815,-152.911C184.4541,-142.1921 243.9995,-117.8984 281.1113,-102.7574"/>
<polygon fill="#ff0000" stroke="#ff0000" stroke-width=".3511" points="282.5463,-105.952 290.4832,-98.9337 279.902,-99.4707 282.5463,-105.952"/>
</g>
<!-- E5 -->
<g id="node6" class="node">
<title>E5</title>
<polygon fill="#d3d3d3" stroke="#000000" points="245.9963,-166.7893 220.0012,-166.7893 220.0012,-149.7893 245.9963,-149.7893 245.9963,-166.7893"/>
<text text-anchor="middle" x="232.9988" y="-155.5893" font-family="Times,serif" font-size="9.00" fill="#000000">E5</text>
</g>
<!-- E4&#45;&gt;E5 -->
<!-- E4&#45;&gt;1 -->
<g id="edge17" class="edge">
<title>E4&#45;&gt;1</title>
<path fill="none" stroke="#ff0000" stroke-width=".1502" d="M185.0258,-149.5644C181.092,-140.6924 175.0814,-126.483 170.9988,-113.7893 162.9253,-88.6874 156.111,-59.2424 151.8301,-39.0412"/>
<polygon fill="#ff0000" stroke="#ff0000" stroke-width=".1502" points="155.2313,-38.2056 149.7748,-29.1239 148.377,-39.6261 155.2313,-38.2056"/>
</g>
<!-- S -->
<g id="node13" class="node">
<title>S</title>
<ellipse fill="#eee8aa" stroke="#000000" cx="290.9988" cy="-14.853" rx="14.7075" ry="14.7075"/>
<text text-anchor="middle" x="290.9988" y="-12.153" font-family="Times,serif" font-size="9.00" fill="#000000">S</text>
</g>
<!-- E4&#45;&gt;S -->
<g id="edge16" class="edge">
<title>E4&#45;&gt;S</title>
<path fill="none" stroke="#ff0000" stroke-width="1.1405" d="M195.0739,-149.7463C210.9117,-127.4746 253.804,-67.1578 276.4856,-35.262"/>
<polygon fill="#ff0000" stroke="#ff0000" stroke-width="1.1405" points="279.3649,-37.2525 282.3078,-27.0746 273.6602,-33.1958 279.3649,-37.2525"/>
</g>
<!-- E6 -->
<g id="node7" class="node">
<title>E6</title>
<polygon fill="#d3d3d3" stroke="#000000" points="289.9963,-166.7893 264.0012,-166.7893 264.0012,-149.7893 289.9963,-149.7893 289.9963,-166.7893"/>
<text text-anchor="middle" x="276.9988" y="-155.5893" font-family="Times,serif" font-size="9.00" fill="#000000">E6</text>
</g>
<!-- E5&#45;&gt;E6 -->
<!-- E5&#45;&gt;1 -->
<g id="edge21" class="edge">
<title>E5&#45;&gt;1</title>
<path fill="none" stroke="#00ff00" stroke-width=".1193" d="M227.8766,-149.7463C214.6461,-127.6796 179.0228,-68.2647 159.7676,-36.1497"/>
<polygon fill="#00ff00" stroke="#00ff00" stroke-width=".1193" points="162.7253,-34.2763 154.5812,-27.4995 156.7217,-37.8759 162.7253,-34.2763"/>
</g>
<!-- E7 -->
<g id="node8" class="node">
<title>E7</title>
<polygon fill="#d3d3d3" stroke="#000000" points="333.9963,-166.7893 308.0012,-166.7893 308.0012,-149.7893 333.9963,-149.7893 333.9963,-166.7893"/>
<text text-anchor="middle" x="320.9988" y="-155.5893" font-family="Times,serif" font-size="9.00" fill="#000000">E7</text>
</g>
<!-- E6&#45;&gt;E7 -->
<!-- 2 -->
<g id="node12" class="node">
<title>2</title>
<ellipse fill="#87cefa" stroke="#000000" cx="222.9988" cy="-14.853" rx="14.4914" ry="14.4914"/>
<text text-anchor="middle" x="222.9988" y="-12.153" font-family="Times,serif" font-size="9.00" fill="#000000">2</text>
</g>
<!-- E6&#45;&gt;2 -->
<g id="edge14" class="edge">
<title>E6&#45;&gt;2</title>
<path fill="none" stroke="#ff0000" stroke-width=".9561" d="M273.7825,-149.7463C265.6692,-128.1955 244.1452,-71.0227 231.881,-38.4463"/>
<polygon fill="#ff0000" stroke="#ff0000" stroke-width=".9561" points="235.0522,-36.9357 228.2533,-28.8102 228.5011,-39.4021 235.0522,-36.9357"/>
</g>
<!-- E8 -->
<g id="node9" class="node">
<title>E8</title>
<polygon fill="#d3d3d3" stroke="#000000" points="377.9963,-166.7893 352.0012,-166.7893 352.0012,-149.7893 377.9963,-149.7893 377.9963,-166.7893"/>
<text text-anchor="middle" x="364.9988" y="-155.5893" font-family="Times,serif" font-size="9.00" fill="#000000">E8</text>
</g>
<!-- E7&#45;&gt;E8 -->
<!-- E7&#45;&gt;5367 -->
<g id="edge20" class="edge">
<title>E7&#45;&gt;5367</title>
<path fill="none" stroke="#ff0000" stroke-width=".4657" d="M319.9856,-149.6085C319.2137,-142.995 318.097,-133.4275 316.982,-123.8749"/>
<polygon fill="#ff0000" stroke="#ff0000" stroke-width=".4657" points="320.425,-123.1824 315.7892,-113.6556 313.4722,-123.994 320.425,-123.1824"/>
</g>
<!-- E8&#45;&gt;S -->
<g id="edge13" class="edge">
<title>E8&#45;&gt;S</title>
<path fill="none" stroke="#ff0000" stroke-width=".1876" d="M364.9537,-149.7717C364.5131,-132.7062 361.7159,-93.5763 345.9988,-65.7061 337.6713,-50.9395 323.5633,-38.0255 311.7211,-28.9062"/>
<polygon fill="#ff0000" stroke="#ff0000" stroke-width=".1876" points="313.7484,-26.0527 303.6136,-22.9645 309.6105,-31.6988 313.7484,-26.0527"/>
</g>
<!-- 0&#45;&gt;1 -->
<!-- 1&#45;&gt;2 -->
<!-- 2&#45;&gt;S -->
<!-- 5367&#45;&gt;S -->
<g id="edge19" class="edge">
<title>5367&#45;&gt;S</title>
<path fill="none" stroke="#ff0000" stroke-width=".1714" d="M306.1584,-66.4611C303.5837,-57.6959 300.6524,-47.7168 298.058,-38.8849"/>
<polygon fill="#ff0000" stroke="#ff0000" stroke-width=".1714" points="301.3855,-37.7937 295.2089,-29.1855 294.6692,-39.7666 301.3855,-37.7937"/>
</g>
</g>
</svg>
