<?xml version="1.0" encoding="UTF-8" standalone="no"?>
<!DOCTYPE svg PUBLIC "-//W3C//DTD SVG 1.1//EN"
 "http://www.w3.org/Graphics/SVG/1.1/DTD/svg11.dtd">
<!-- Generated by graphviz version 2.40.1 (20161225.0304)
 -->
<!-- Title: %3 Pages: 1 -->
<svg width="485pt" height="182pt"
 viewBox="0.00 0.00 484.77 181.85" xmlns="http://www.w3.org/2000/svg" xmlns:xlink="http://www.w3.org/1999/xlink">
<g id="graph0" class="graph" transform="scale(1 1) rotate(0) translate(4 177.8494)">
<title>%3</title>
<polygon fill="#ffffff" stroke="transparent" points="-4,4 -4,-177.8494 480.7661,-177.8494 480.7661,4 -4,4"/>
<!-- 0 -->
<g id="node1" class="node">
<title>0</title>
<polygon fill="#d3d3d3" stroke="#000000" points="141.389,-173.8494 121.3771,-173.8494 121.3771,-156.8494 141.389,-156.8494 141.389,-173.8494"/>
<text text-anchor="middle" x="131.383" y="-162.6494" font-family="Times,serif" font-size="9.00" fill="#000000">0</text>
</g>
<!-- 1 -->
<g id="node2" class="node">
<title>1</title>
<polygon fill="#d3d3d3" stroke="#000000" points="205.389,-173.8494 185.3771,-173.8494 185.3771,-156.8494 205.389,-156.8494 205.389,-173.8494"/>
<text text-anchor="middle" x="195.383" y="-162.6494" font-family="Times,serif" font-size="9.00" fill="#000000">1</text>
</g>
<!-- 0&#45;&gt;1 -->
<!-- E4 -->
<g id="node8" class="node">
<title>E4</title>
<ellipse fill="#ffa07a" stroke="#000000" cx="238.383" cy="-18.383" rx="18.2668" ry="18.2668"/>
<text text-anchor="middle" x="238.383" y="-15.683" font-family="Times,serif" font-size="9.00" fill="#000000">E4</text>
</g>
<!-- 0&#45;&gt;E4 -->
<g id="edge12" class="edge">
<title>0&#45;&gt;E4</title>
<path fill="none" stroke="#00ff00" stroke-width="2.9486" d="M131.7151,-156.8388C132.7853,-139.4463 137.3041,-99.24 156.383,-72.7661 156.8923,-72.0595 190.0599,-50.1638 214.0507,-34.3749"/>
<polygon fill="#00ff00" stroke="#00ff00" stroke-width="2.9486" points="216.2778,-37.0993 222.7089,-28.6795 212.4309,-31.2511 216.2778,-37.0993"/>
</g>
<!-- 2 -->
<g id="node3" class="node">
<title>2</title>
<polygon fill="#d3d3d3" stroke="#000000" points="244.389,-173.8494 224.3771,-173.8494 224.3771,-156.8494 244.389,-156.8494 244.389,-173.8494"/>
<text text-anchor="middle" x="234.383" y="-162.6494" font-family="Times,serif" font-size="9.00" fill="#000000">2</text>
</g>
<!-- 1&#45;&gt;2 -->
<!-- E8 -->
<g id="node12" class="node">
<title>E8</title>
<ellipse fill="#ffa07a" stroke="#000000" cx="458.383" cy="-18.383" rx="18.2668" ry="18.2668"/>
<text text-anchor="middle" x="458.383" y="-15.683" font-family="Times,serif" font-size="9.00" fill="#000000">E8</text>
</g>
<!-- 1&#45;&gt;E8 -->
<g id="edge15" class="edge">
<title>1&#45;&gt;E8</title>
<path fill="none" stroke="#00ff00" stroke-width=".3565" d="M205.4877,-160.8501C208.6344,-159.5044 212.1318,-158.0648 215.383,-156.8494 263.9626,-138.6888 280.5461,-145.1136 326.383,-120.8494 369.4162,-98.0693 412.7602,-61.1165 437.5108,-38.3659"/>
<polygon fill="#00ff00" stroke="#00ff00" stroke-width=".3565" points="439.9357,-40.8903 444.8694,-31.5143 435.1656,-35.7672 439.9357,-40.8903"/>
</g>
<!-- 3273 -->
<g id="node13" class="node">
<title>3273</title>
<ellipse fill="#f08080" stroke="#000000" cx="293.383" cy="-96.8077" rx="24.0833" ry="24.0833"/>
<text text-anchor="middle" x="293.383" y="-98.6077" font-family="Times,serif" font-size="9.00" fill="#000000">3273</text>
<text text-anchor="middle" x="293.383" y="-89.6077" font-family="Times,serif" font-size="9.00" fill="#000000">relu</text>
</g>
<!-- 1&#45;&gt;3273 -->
<g id="edge18" class="edge">
<title>1&#45;&gt;3273</title>
<path fill="none" stroke="#00ff00" stroke-width=".3478" d="M205.5017,-158.2724C219.3892,-148.5593 244.9063,-130.7126 264.8802,-116.7427"/>
<polygon fill="#00ff00" stroke="#00ff00" stroke-width=".3478" points="267.1391,-119.434 273.3278,-110.8345 263.1271,-113.6978 267.1391,-119.434"/>
</g>
<!-- 1808 -->
<g id="node14" class="node">
<title>1808</title>
<ellipse fill="#f08080" stroke="#000000" cx="189.383" cy="-96.8077" rx="24.0833" ry="24.0833"/>
<text text-anchor="middle" x="189.383" y="-98.6077" font-family="Times,serif" font-size="9.00" fill="#000000">1808</text>
<text text-anchor="middle" x="189.383" y="-89.6077" font-family="Times,serif" font-size="9.00" fill="#000000">relu</text>
</g>
<!-- 1&#45;&gt;1808 -->
<g id="edge13" class="edge">
<title>1&#45;&gt;1808</title>
<path fill="none" stroke="#00ff00" stroke-width="2.0453" d="M194.6231,-156.6685C194.0488,-150.1079 193.2201,-140.6404 192.3905,-131.1641"/>
<polygon fill="#00ff00" stroke="#00ff00" stroke-width="2.0453" points="195.8609,-130.6718 191.5021,-121.0151 188.8876,-131.2823 195.8609,-130.6718"/>
</g>
<!-- E1 -->
<g id="node5" class="node">
<title>E1</title>
<ellipse fill="#87cefa" stroke="#000000" cx="73.383" cy="-18.383" rx="18.2668" ry="18.2668"/>
<text text-anchor="middle" x="73.383" y="-15.683" font-family="Times,serif" font-size="9.00" fill="#000000">E1</text>
</g>
<!-- 2&#45;&gt;E1 -->
<g id="edge16" class="edge">
<title>2&#45;&gt;E1</title>
<path fill="none" stroke="#ff0000" stroke-width=".2751" d="M224.277,-161.0636C208.6419,-154.1236 178.1268,-139.3211 156.383,-120.8494 129.2408,-97.7915 104.4363,-64.9189 89.1513,-42.6747"/>
<polygon fill="#ff0000" stroke="#ff0000" stroke-width=".2751" points="91.8878,-40.4727 83.3944,-34.1392 86.0844,-44.3869 91.8878,-40.4727"/>
</g>
<!-- E3 -->
<g id="node7" class="node">
<title>E3</title>
<ellipse fill="#ffa07a" stroke="#000000" cx="183.383" cy="-18.383" rx="18.2668" ry="18.2668"/>
<text text-anchor="middle" x="183.383" y="-15.683" font-family="Times,serif" font-size="9.00" fill="#000000">E3</text>
</g>
<!-- 2&#45;&gt;E3 -->
<g id="edge11" class="edge">
<title>2&#45;&gt;E3</title>
<path fill="none" stroke="#ff0000" stroke-width="2.5665" d="M234.6416,-156.8358C234.8602,-140.1039 233.9149,-102.0185 222.383,-72.7661 217.7505,-61.0149 210.0188,-49.4365 202.6558,-40.0035"/>
<polygon fill="#ff0000" stroke="#ff0000" stroke-width="2.5665" points="205.1427,-37.5163 196.097,-32.0003 199.7285,-41.9533 205.1427,-37.5163"/>
</g>
<!-- E0 -->
<g id="node4" class="node">
<title>E0</title>
<ellipse fill="#eee8aa" stroke="#000000" cx="18.383" cy="-18.383" rx="18.2668" ry="18.2668"/>
<text text-anchor="middle" x="18.383" y="-15.683" font-family="Times,serif" font-size="9.00" fill="#000000">E0</text>
</g>
<!-- E0&#45;&gt;E1 -->
<!-- E2 -->
<g id="node6" class="node">
<title>E2</title>
<ellipse fill="#ffa07a" stroke="#000000" cx="128.383" cy="-18.383" rx="18.2668" ry="18.2668"/>
<text text-anchor="middle" x="128.383" y="-15.683" font-family="Times,serif" font-size="9.00" fill="#000000">E2</text>
</g>
<!-- E1&#45;&gt;E2 -->
<!-- E2&#45;&gt;E3 -->
<!-- E3&#45;&gt;E4 -->
<!-- E5 -->
<g id="node9" class="node">
<title>E5</title>
<ellipse fill="#ffa07a" stroke="#000000" cx="293.383" cy="-18.383" rx="18.2668" ry="18.2668"/>
<text text-anchor="middle" x="293.383" y="-15.683" font-family="Times,serif" font-size="9.00" fill="#000000">E5</text>
</g>
<!-- E4&#45;&gt;E5 -->
<!-- E6 -->
<g id="node10" class="node">
<title>E6</title>
<ellipse fill="#ffa07a" stroke="#000000" cx="348.383" cy="-18.383" rx="18.2668" ry="18.2668"/>
<text text-anchor="middle" x="348.383" y="-15.683" font-family="Times,serif" font-size="9.00" fill="#000000">E6</text>
</g>
<!-- E5&#45;&gt;E6 -->
<!-- E7 -->
<g id="node11" class="node">
<title>E7</title>
<ellipse fill="#eee8aa" stroke="#000000" cx="403.383" cy="-18.383" rx="18.2668" ry="18.2668"/>
<text text-anchor="middle" x="403.383" y="-15.683" font-family="Times,serif" font-size="9.00" fill="#000000">E7</text>
</g>
<!-- E6&#45;&gt;E7 -->
<!-- E7&#45;&gt;E8 -->
<!-- 3273&#45;&gt;E5 -->
<g id="edge17" class="edge">
<title>3273&#45;&gt;E5</title>
<path fill="none" stroke="#00ff00" stroke-width=".1863" d="M293.383,-72.4236C293.383,-64.33 293.383,-55.248 293.383,-46.8729"/>
<polygon fill="#00ff00" stroke="#00ff00" stroke-width=".1863" points="296.8831,-46.7701 293.383,-36.7702 289.8831,-46.7702 296.8831,-46.7701"/>
</g>
<!-- 1808&#45;&gt;E2 -->
<g id="edge14" class="edge">
<title>1808&#45;&gt;E2</title>
<path fill="none" stroke="#00ff00" stroke-width="4.9341" d="M174.6167,-77.8233C165.9912,-66.734 155.0539,-52.6724 145.9828,-41.0102"/>
<polygon fill="#00ff00" stroke="#00ff00" stroke-width="4.9341" points="149.3148,-38.2619 139.7673,-33.0192 142.499,-43.5633 149.3148,-38.2619"/>
</g>
<!-- 1808&#45;&gt;E5 -->
<g id="edge19" class="edge">
<title>1808&#45;&gt;E5</title>
<path fill="none" stroke="#00ff00" stroke-width=".2452" d="M208.9447,-82.0566C226.4184,-68.88 252.0288,-49.5676 270.4585,-35.6701"/>
<polygon fill="#00ff00" stroke="#00ff00" stroke-width=".2452" points="272.7365,-38.3359 278.6135,-29.5205 268.5219,-32.7469 272.7365,-38.3359"/>
</g>
</g>
</svg>
