<?xml version="1.0" encoding="UTF-8" standalone="no"?>
<!DOCTYPE svg PUBLIC "-//W3C//DTD SVG 1.1//EN"
 "http://www.w3.org/Graphics/SVG/1.1/DTD/svg11.dtd">
<!-- Generated by graphviz version 2.40.1 (20161225.0304)
 -->
<!-- Title: %3 Pages: 1 -->
<svg width="471pt" height="343pt"
 viewBox="0.00 0.00 471.11 342.96" xmlns="http://www.w3.org/2000/svg" xmlns:xlink="http://www.w3.org/1999/xlink">
<g id="graph0" class="graph" transform="scale(1 1) rotate(0) translate(4 338.9559)">
<title>%3</title>
<polygon fill="#ffffff" stroke="transparent" points="-4,4 -4,-338.9559 467.106,-338.9559 467.106,4 -4,4"/>
<!-- E0 -->
<g id="node1" class="node">
<title>E0</title>
<polygon fill="#d3d3d3" stroke="#000000" points="25.9963,-334.9559 .0012,-334.9559 .0012,-317.9559 25.9963,-317.9559 25.9963,-334.9559"/>
<text text-anchor="middle" x="12.9988" y="-323.7559" font-family="Times,serif" font-size="9.00" fill="#000000">E0</text>
</g>
<!-- E1 -->
<g id="node2" class="node">
<title>E1</title>
<polygon fill="#d3d3d3" stroke="#000000" points="69.9963,-334.9559 44.0012,-334.9559 44.0012,-317.9559 69.9963,-317.9559 69.9963,-334.9559"/>
<text text-anchor="middle" x="56.9988" y="-323.7559" font-family="Times,serif" font-size="9.00" fill="#000000">E1</text>
</g>
<!-- E0&#45;&gt;E1 -->
<!-- 1 -->
<g id="node11" class="node">
<title>1</title>
<ellipse fill="#eee8aa" stroke="#000000" cx="127.9988" cy="-14.853" rx="14.4914" ry="14.4914"/>
<text text-anchor="middle" x="127.9988" y="-12.153" font-family="Times,serif" font-size="9.00" fill="#000000">1</text>
</g>
<!-- E0&#45;&gt;1 -->
<g id="edge23" class="edge">
<title>E0&#45;&gt;1</title>
<path fill="none" stroke="#00ff00" stroke-width=".2637" d="M15.5685,-317.7571C25.4786,-284.516 62.676,-162.5233 102.9988,-65.7061 106.9561,-56.2044 111.8545,-45.9753 116.2637,-37.2004"/>
<polygon fill="#00ff00" stroke="#00ff00" stroke-width=".2637" points="119.518,-38.5241 120.9579,-28.0275 113.2865,-35.3351 119.518,-38.5241"/>
</g>
<!-- E2 -->
<g id="node3" class="node">
<title>E2</title>
<polygon fill="#d3d3d3" stroke="#000000" points="113.9963,-334.9559 88.0012,-334.9559 88.0012,-317.9559 113.9963,-317.9559 113.9963,-334.9559"/>
<text text-anchor="middle" x="100.9988" y="-323.7559" font-family="Times,serif" font-size="9.00" fill="#000000">E2</text>
</g>
<!-- E1&#45;&gt;E2 -->
<!-- 4326 -->
<g id="node14" class="node">
<title>4326</title>
<ellipse fill="#add8e6" stroke="#000000" cx="381.9988" cy="-89.7477" rx="24.0833" ry="24.0833"/>
<text text-anchor="middle" x="381.9988" y="-91.5477" font-family="Times,serif" font-size="9.00" fill="#000000">4326</text>
<text text-anchor="middle" x="381.9988" y="-82.5477" font-family="Times,serif" font-size="9.00" fill="#000000">sigm</text>
</g>
<!-- E1&#45;&gt;4326 -->
<g id="edge18" class="edge">
<title>E1&#45;&gt;4326</title>
<path fill="none" stroke="#ff0000" stroke-width=".1115" d="M68.9511,-317.7506C115.6259,-283.7558 286.3594,-159.405 354.0659,-110.0921"/>
<polygon fill="#ff0000" stroke="#ff0000" stroke-width=".1115" points="356.1474,-112.9061 362.1702,-104.1895 352.0263,-107.2477 356.1474,-112.9061"/>
</g>
<!-- E3 -->
<g id="node4" class="node">
<title>E3</title>
<polygon fill="#d3d3d3" stroke="#000000" points="157.9963,-334.9559 132.0012,-334.9559 132.0012,-317.9559 157.9963,-317.9559 157.9963,-334.9559"/>
<text text-anchor="middle" x="144.9988" y="-323.7559" font-family="Times,serif" font-size="9.00" fill="#000000">E3</text>
</g>
<!-- E2&#45;&gt;E3 -->
<!-- E2&#45;&gt;1 -->
<g id="edge12" class="edge">
<title>E2&#45;&gt;1</title>
<path fill="none" stroke="#00ff00" stroke-width=".3717" d="M97.655,-317.7538C94.4449,-308.8996 89.8227,-294.7038 87.9988,-281.9559 84.972,-260.801 86.0712,-255.1558 87.9988,-233.8726 94.4818,-162.2896 112.6513,-79.1401 122.1093,-38.9956"/>
<polygon fill="#00ff00" stroke="#00ff00" stroke-width=".3717" points="125.5586,-39.6196 124.4753,-29.0803 118.7497,-37.9948 125.5586,-39.6196"/>
</g>
<!-- E4 -->
<g id="node5" class="node">
<title>E4</title>
<polygon fill="#d3d3d3" stroke="#000000" points="201.9963,-334.9559 176.0012,-334.9559 176.0012,-317.9559 201.9963,-317.9559 201.9963,-334.9559"/>
<text text-anchor="middle" x="188.9988" y="-323.7559" font-family="Times,serif" font-size="9.00" fill="#000000">E4</text>
</g>
<!-- E3&#45;&gt;E4 -->
<!-- 2 -->
<g id="node12" class="node">
<title>2</title>
<ellipse fill="#eee8aa" stroke="#000000" cx="174.9988" cy="-14.853" rx="14.4914" ry="14.4914"/>
<text text-anchor="middle" x="174.9988" y="-12.153" font-family="Times,serif" font-size="9.00" fill="#000000">2</text>
</g>
<!-- E3&#45;&gt;2 -->
<g id="edge13" class="edge">
<title>E3&#45;&gt;2</title>
<path fill="none" stroke="#ff0000" stroke-width=".1682" d="M145.1877,-317.8556C146.0025,-284.9704 149.8442,-164.0952 163.9988,-65.7061 165.2649,-56.905 167.1838,-47.3534 169.0662,-38.9297"/>
<polygon fill="#ff0000" stroke="#ff0000" stroke-width=".1682" points="172.5182,-39.5377 171.3792,-29.0043 165.7008,-37.949 172.5182,-39.5377"/>
</g>
<!-- S -->
<g id="node13" class="node">
<title>S</title>
<ellipse fill="#87cefa" stroke="#000000" cx="235.9988" cy="-14.853" rx="14.7075" ry="14.7075"/>
<text text-anchor="middle" x="235.9988" y="-12.153" font-family="Times,serif" font-size="9.00" fill="#000000">S</text>
</g>
<!-- E3&#45;&gt;S -->
<g id="edge20" class="edge">
<title>E3&#45;&gt;S</title>
<path fill="none" stroke="#00ff00" stroke-width=".541" d="M148.4274,-317.6711C151.8442,-308.7526 157.126,-294.5078 160.9988,-281.9559 190.2697,-187.0875 187.1399,-160.391 216.9988,-65.7061 219.851,-56.6615 223.3965,-46.8703 226.6496,-38.3168"/>
<polygon fill="#00ff00" stroke="#00ff00" stroke-width=".541" points="229.9244,-39.5523 230.2751,-28.9632 223.3976,-37.0224 229.9244,-39.5523"/>
</g>
<!-- E5 -->
<g id="node6" class="node">
<title>E5</title>
<polygon fill="#d3d3d3" stroke="#000000" points="245.9963,-334.9559 220.0012,-334.9559 220.0012,-317.9559 245.9963,-317.9559 245.9963,-334.9559"/>
<text text-anchor="middle" x="232.9988" y="-323.7559" font-family="Times,serif" font-size="9.00" fill="#000000">E5</text>
</g>
<!-- E4&#45;&gt;E5 -->
<!-- 0 -->
<g id="node10" class="node">
<title>0</title>
<ellipse fill="#ffa07a" stroke="#000000" cx="80.9988" cy="-14.853" rx="14.4914" ry="14.4914"/>
<text text-anchor="middle" x="80.9988" y="-12.153" font-family="Times,serif" font-size="9.00" fill="#000000">0</text>
</g>
<!-- E4&#45;&gt;0 -->
<g id="edge15" class="edge">
<title>E4&#45;&gt;0</title>
<path fill="none" stroke="#00ff00" stroke-width=".5412" d="M185.9975,-317.7966C171.7981,-276.8283 111.1356,-101.804 89.0669,-38.1312"/>
<polygon fill="#00ff00" stroke="#00ff00" stroke-width=".5412" points="92.3366,-36.8772 85.7547,-28.5748 85.7226,-39.1696 92.3366,-36.8772"/>
</g>
<!-- E4&#45;&gt;S -->
<g id="edge16" class="edge">
<title>E4&#45;&gt;S</title>
<path fill="none" stroke="#00ff00" stroke-width="2.7164" d="M190.3049,-317.7966C196.4295,-277.1915 222.4172,-104.897 232.2283,-39.8508"/>
<polygon fill="#00ff00" stroke="#00ff00" stroke-width="2.7164" points="235.731,-40.0951 233.7616,-29.6849 228.8092,-39.051 235.731,-40.0951"/>
</g>
<!-- E6 -->
<g id="node7" class="node">
<title>E6</title>
<polygon fill="#d3d3d3" stroke="#000000" points="289.9963,-334.9559 264.0012,-334.9559 264.0012,-317.9559 289.9963,-317.9559 289.9963,-334.9559"/>
<text text-anchor="middle" x="276.9988" y="-323.7559" font-family="Times,serif" font-size="9.00" fill="#000000">E6</text>
</g>
<!-- E5&#45;&gt;E6 -->
<!-- E7 -->
<g id="node8" class="node">
<title>E7</title>
<polygon fill="#d3d3d3" stroke="#000000" points="333.9963,-334.9559 308.0012,-334.9559 308.0012,-317.9559 333.9963,-317.9559 333.9963,-334.9559"/>
<text text-anchor="middle" x="320.9988" y="-323.7559" font-family="Times,serif" font-size="9.00" fill="#000000">E7</text>
</g>
<!-- E6&#45;&gt;E7 -->
<!-- E6&#45;&gt;1 -->
<g id="edge17" class="edge">
<title>E6&#45;&gt;1</title>
<path fill="none" stroke="#00ff00" stroke-width=".1492" d="M272.8582,-317.7966C253.1832,-276.6505 168.8488,-100.2825 138.7364,-37.3086"/>
<polygon fill="#00ff00" stroke="#00ff00" stroke-width=".1492" points="141.8589,-35.7251 134.3873,-28.2134 135.5437,-38.7449 141.8589,-35.7251"/>
</g>
<!-- E8 -->
<g id="node9" class="node">
<title>E8</title>
<polygon fill="#d3d3d3" stroke="#000000" points="377.9963,-334.9559 352.0012,-334.9559 352.0012,-317.9559 377.9963,-317.9559 377.9963,-334.9559"/>
<text text-anchor="middle" x="364.9988" y="-323.7559" font-family="Times,serif" font-size="9.00" fill="#000000">E8</text>
</g>
<!-- E7&#45;&gt;E8 -->
<!-- E8&#45;&gt;S -->
<g id="edge14" class="edge">
<title>E8&#45;&gt;S</title>
<path fill="none" stroke="#00ff00" stroke-width="1.2271" d="M362.442,-317.6327C352.5301,-283.9425 314.854,-160.5392 267.9988,-65.7061 262.8699,-55.3254 256.1726,-44.3862 250.2312,-35.3244"/>
<polygon fill="#00ff00" stroke="#00ff00" stroke-width="1.2271" points="253.108,-33.33 244.628,-26.9786 247.2963,-37.2319 253.108,-33.33"/>
</g>
<!-- 4008 -->
<g id="node15" class="node">
<title>4008</title>
<ellipse fill="#add8e6" stroke="#000000" cx="400.9988" cy="-257.9142" rx="24.0833" ry="24.0833"/>
<text text-anchor="middle" x="400.9988" y="-259.7142" font-family="Times,serif" font-size="9.00" fill="#000000">4008</text>
<text text-anchor="middle" x="400.9988" y="-250.7142" font-family="Times,serif" font-size="9.00" fill="#000000">sigm</text>
</g>
<!-- E8&#45;&gt;4008 -->
<g id="edge21" class="edge">
<title>E8&#45;&gt;4008</title>
<path fill="none" stroke="#00ff00" stroke-width=".1504" d="M369.5582,-317.775C373.4507,-310.3639 379.2915,-299.2434 384.8864,-288.5912"/>
<polygon fill="#00ff00" stroke="#00ff00" stroke-width=".1504" points="388.1332,-289.9364 389.6846,-279.4557 381.936,-286.6814 388.1332,-289.9364"/>
</g>
<!-- 0&#45;&gt;1 -->
<!-- 1&#45;&gt;2 -->
<!-- 2&#45;&gt;S -->
<!-- 4326&#45;&gt;S -->
<g id="edge22" class="edge">
<title>4326&#45;&gt;S</title>
<path fill="none" stroke="#00ff00" stroke-width=".3444" d="M361.7685,-76.2972C356.1035,-72.7105 349.884,-68.9371 343.9988,-65.7061 315.484,-50.0512 281.3356,-34.4762 259.1813,-24.7682"/>
<polygon fill="#00ff00" stroke="#00ff00" stroke-width=".3444" points="260.4762,-21.5148 249.9096,-20.7415 257.6876,-27.9354 260.4762,-21.5148"/>
</g>
<!-- 4008&#45;&gt;S -->
<g id="edge26" class="edge">
<title>4008&#45;&gt;S</title>
<path fill="none" stroke="#00ff00" stroke-width=".5037" d="M419.7207,-242.7696C431.7595,-231.7579 446.3507,-215.7035 452.9988,-197.8726 474.351,-140.6032 461.2876,-105.6191 414.9988,-65.7061 391.7105,-45.6255 304.0753,-27.2893 260.6706,-19.2071"/>
<polygon fill="#00ff00" stroke="#00ff00" stroke-width=".5037" points="261.1205,-15.7315 250.6545,-17.3785 259.8633,-22.6177 261.1205,-15.7315"/>
</g>
<!-- 4008&#45;&gt;4326 -->
<g id="edge19" class="edge">
<title>4008&#45;&gt;4326</title>
<path fill="none" stroke="#ff0000" stroke-width=".3282" d="M394.5458,-234.7187C391.7366,-223.6521 388.7024,-210.1712 386.9988,-197.8726 383.6019,-173.3501 382.3771,-145.4321 381.9883,-124.1078"/>
<polygon fill="#ff0000" stroke="#ff0000" stroke-width=".3282" points="385.4856,-123.8662 381.8564,-113.9124 378.4862,-123.9568 385.4856,-123.8662"/>
</g>
<!-- 5501 -->
<g id="node16" class="node">
<title>5501</title>
<ellipse fill="#add8e6" stroke="#000000" cx="419.9988" cy="-173.831" rx="24.0833" ry="24.0833"/>
<text text-anchor="middle" x="419.9988" y="-175.631" font-family="Times,serif" font-size="9.00" fill="#000000">5501</text>
<text text-anchor="middle" x="419.9988" y="-166.631" font-family="Times,serif" font-size="9.00" fill="#000000">sigm</text>
</g>
<!-- 4008&#45;&gt;5501 -->
<g id="edge24" class="edge">
<title>4008&#45;&gt;5501</title>
<path fill="none" stroke="#00ff00" stroke-width=".4282" d="M406.3926,-234.0443C408.2738,-225.7191 410.421,-216.2167 412.4451,-207.2594"/>
<polygon fill="#00ff00" stroke="#00ff00" stroke-width=".4282" points="415.867,-207.9951 414.6572,-197.4696 409.0391,-206.4522 415.867,-207.9951"/>
</g>
<!-- 5501&#45;&gt;4326 -->
<g id="edge25" class="edge">
<title>5501&#45;&gt;4326</title>
<path fill="none" stroke="#ff0000" stroke-width=".1278" d="M410.0147,-151.7391C405.782,-142.3734 400.7722,-131.2881 396.1678,-121.0999"/>
<polygon fill="#ff0000" stroke="#ff0000" stroke-width=".1278" points="399.2239,-119.3633 391.9162,-111.6921 392.8451,-122.2461 399.2239,-119.3633"/>
</g>
</g>
</svg>
