<?xml version="1.0" encoding="UTF-8" standalone="no"?>
<!DOCTYPE svg PUBLIC "-//W3C//DTD SVG 1.1//EN"
 "http://www.w3.org/Graphics/SVG/1.1/DTD/svg11.dtd">
<!-- Generated by graphviz version 2.40.1 (20161225.0304)
 -->
<!-- Title: %3 Pages: 1 -->
<svg width="366pt" height="90pt"
 viewBox="0.00 0.00 366.24 89.99" xmlns="http://www.w3.org/2000/svg" xmlns:xlink="http://www.w3.org/1999/xlink">
<g id="graph0" class="graph" transform="scale(1 1) rotate(0) translate(4 85.9914)">
<title>%3</title>
<polygon fill="#ffffff" stroke="transparent" points="-4,4 -4,-85.9914 362.2442,-85.9914 362.2442,4 -4,4"/>
<!-- &#45;1 -->
<g id="node1" class="node">
<title>&#45;1</title>
<polygon fill="#d3d3d3" stroke="#000000" points="112.4981,-81.9914 88.4932,-81.9914 88.4932,-64.9914 112.4981,-64.9914 112.4981,-81.9914"/>
<text text-anchor="middle" x="100.4957" y="-70.7914" font-family="Times,serif" font-size="9.00" fill="#000000">&#45;1</text>
</g>
<!-- 0 -->
<g id="node10" class="node">
<title>0</title>
<ellipse fill="#add8e6" stroke="#000000" cx="61.4957" cy="-14.4957" rx="14.4914" ry="14.4914"/>
<text text-anchor="middle" x="61.4957" y="-11.7957" font-family="Times,serif" font-size="9.00" fill="#000000">0</text>
</g>
<!-- &#45;1&#45;&gt;0 -->
<g id="edge6" class="edge">
<title>&#45;1&#45;&gt;0</title>
<path fill="none" stroke="#00ff00" stroke-width=".3837" d="M94.7411,-64.7864C89.6281,-57.0518 81.9497,-45.4367 75.2599,-35.317"/>
<polygon fill="#00ff00" stroke="#00ff00" stroke-width=".3837" points="78.1592,-33.356 69.7249,-26.9441 72.3198,-37.2162 78.1592,-33.356"/>
</g>
<!-- 2 -->
<g id="node12" class="node">
<title>2</title>
<ellipse fill="#add8e6" stroke="#000000" cx="141.4957" cy="-14.4957" rx="14.4914" ry="14.4914"/>
<text text-anchor="middle" x="141.4957" y="-11.7957" font-family="Times,serif" font-size="9.00" fill="#000000">2</text>
</g>
<!-- &#45;1&#45;&gt;2 -->
<g id="edge4" class="edge">
<title>&#45;1&#45;&gt;2</title>
<path fill="none" stroke="#00ff00" stroke-width=".1228" d="M106.5454,-64.7864C111.9895,-56.9526 120.2002,-45.1382 127.2956,-34.9285"/>
<polygon fill="#00ff00" stroke="#00ff00" stroke-width=".1228" points="130.3134,-36.719 133.1462,-26.5099 124.5652,-32.7242 130.3134,-36.719"/>
</g>
<!-- &#45;2 -->
<g id="node2" class="node">
<title>&#45;2</title>
<polygon fill="#d3d3d3" stroke="#000000" points="71.4981,-81.9914 47.4932,-81.9914 47.4932,-64.9914 71.4981,-64.9914 71.4981,-81.9914"/>
<text text-anchor="middle" x="59.4957" y="-70.7914" font-family="Times,serif" font-size="9.00" fill="#000000">&#45;2</text>
</g>
<!-- &#45;2&#45;&gt;0 -->
<g id="edge3" class="edge">
<title>&#45;2&#45;&gt;0</title>
<path fill="none" stroke="#ff0000" stroke-width="2.0237" d="M59.7908,-64.7864C60.0188,-58.0594 60.3464,-48.3972 60.6536,-39.3363"/>
<polygon fill="#ff0000" stroke="#ff0000" stroke-width="2.0237" points="64.1567,-39.3008 60.9976,-29.1879 57.1607,-39.0635 64.1567,-39.3008"/>
</g>
<!-- &#45;3 -->
<g id="node3" class="node">
<title>&#45;3</title>
<polygon fill="#d3d3d3" stroke="#000000" points="235.4981,-81.9914 211.4932,-81.9914 211.4932,-64.9914 235.4981,-64.9914 235.4981,-81.9914"/>
<text text-anchor="middle" x="223.4957" y="-70.7914" font-family="Times,serif" font-size="9.00" fill="#000000">&#45;3</text>
</g>
<!-- &#45;4 -->
<g id="node4" class="node">
<title>&#45;4</title>
<polygon fill="#d3d3d3" stroke="#000000" points="276.4981,-81.9914 252.4932,-81.9914 252.4932,-64.9914 276.4981,-64.9914 276.4981,-81.9914"/>
<text text-anchor="middle" x="264.4957" y="-70.7914" font-family="Times,serif" font-size="9.00" fill="#000000">&#45;4</text>
</g>
<!-- &#45;5 -->
<g id="node5" class="node">
<title>&#45;5</title>
<polygon fill="#d3d3d3" stroke="#000000" points="153.4981,-81.9914 129.4932,-81.9914 129.4932,-64.9914 153.4981,-64.9914 153.4981,-81.9914"/>
<text text-anchor="middle" x="141.4957" y="-70.7914" font-family="Times,serif" font-size="9.00" fill="#000000">&#45;5</text>
</g>
<!-- &#45;5&#45;&gt;2 -->
<g id="edge1" class="edge">
<title>&#45;5&#45;&gt;2</title>
<path fill="none" stroke="#00ff00" stroke-width="1.514" d="M141.4957,-64.7864C141.4957,-58.0594 141.4957,-48.3972 141.4957,-39.3363"/>
<polygon fill="#00ff00" stroke="#00ff00" stroke-width="1.514" points="144.9958,-39.1879 141.4957,-29.1879 137.9958,-39.1879 144.9958,-39.1879"/>
</g>
<!-- &#45;6 -->
<g id="node6" class="node">
<title>&#45;6</title>
<polygon fill="#d3d3d3" stroke="#000000" points="317.4981,-81.9914 293.4932,-81.9914 293.4932,-64.9914 317.4981,-64.9914 317.4981,-81.9914"/>
<text text-anchor="middle" x="305.4957" y="-70.7914" font-family="Times,serif" font-size="9.00" fill="#000000">&#45;6</text>
</g>
<!-- &#45;7 -->
<g id="node7" class="node">
<title>&#45;7</title>
<polygon fill="#d3d3d3" stroke="#000000" points="194.4981,-81.9914 170.4932,-81.9914 170.4932,-64.9914 194.4981,-64.9914 194.4981,-81.9914"/>
<text text-anchor="middle" x="182.4957" y="-70.7914" font-family="Times,serif" font-size="9.00" fill="#000000">&#45;7</text>
</g>
<!-- &#45;7&#45;&gt;2 -->
<g id="edge7" class="edge">
<title>&#45;7&#45;&gt;2</title>
<path fill="none" stroke="#00ff00" stroke-width=".1963" d="M176.446,-64.7864C171.0018,-56.9526 162.7912,-45.1382 155.6958,-34.9285"/>
<polygon fill="#00ff00" stroke="#00ff00" stroke-width=".1963" points="158.4261,-32.7242 149.8452,-26.5099 152.678,-36.719 158.4261,-32.7242"/>
</g>
<!-- &#45;8 -->
<g id="node8" class="node">
<title>&#45;8</title>
<polygon fill="#d3d3d3" stroke="#000000" points="358.4981,-81.9914 334.4932,-81.9914 334.4932,-64.9914 358.4981,-64.9914 358.4981,-81.9914"/>
<text text-anchor="middle" x="346.4957" y="-70.7914" font-family="Times,serif" font-size="9.00" fill="#000000">&#45;8</text>
</g>
<!-- &#45;9 -->
<g id="node9" class="node">
<title>&#45;9</title>
<polygon fill="#d3d3d3" stroke="#000000" points="29.4981,-81.9914 5.4932,-81.9914 5.4932,-64.9914 29.4981,-64.9914 29.4981,-81.9914"/>
<text text-anchor="middle" x="17.4957" y="-70.7914" font-family="Times,serif" font-size="9.00" fill="#000000">&#45;9</text>
</g>
<!-- &#45;9&#45;&gt;0 -->
<g id="edge5" class="edge">
<title>&#45;9&#45;&gt;0</title>
<path fill="none" stroke="#ff0000" stroke-width=".2305" d="M23.988,-64.7864C29.8896,-56.8735 38.8203,-44.8991 46.4869,-34.6196"/>
<polygon fill="#ff0000" stroke="#ff0000" stroke-width=".2305" points="49.3623,-36.6185 52.5353,-26.5099 43.7511,-32.4335 49.3623,-36.6185"/>
</g>
<!-- 1 -->
<g id="node11" class="node">
<title>1</title>
<ellipse fill="#add8e6" stroke="#000000" cx="14.4957" cy="-14.4957" rx="14.4914" ry="14.4914"/>
<text text-anchor="middle" x="14.4957" y="-11.7957" font-family="Times,serif" font-size="9.00" fill="#000000">1</text>
</g>
<!-- &#45;9&#45;&gt;1 -->
<g id="edge2" class="edge">
<title>&#45;9&#45;&gt;1</title>
<path fill="none" stroke="#ff0000" stroke-width="1.7707" d="M17.053,-64.7864C16.711,-58.0594 16.2196,-48.3972 15.7589,-39.3363"/>
<polygon fill="#ff0000" stroke="#ff0000" stroke-width="1.7707" points="19.2462,-38.9972 15.2428,-29.1879 12.2553,-39.3528 19.2462,-38.9972"/>
</g>
</g>
</svg>
