<?xml version="1.0" encoding="UTF-8" standalone="no"?>
<!DOCTYPE svg PUBLIC "-//W3C//DTD SVG 1.1//EN"
 "http://www.w3.org/Graphics/SVG/1.1/DTD/svg11.dtd">
<!-- Generated by graphviz version 2.40.1 (20161225.0304)
 -->
<!-- Title: %3 Pages: 1 -->
<svg width="471pt" height="343pt"
 viewBox="0.00 0.00 470.91 342.96" xmlns="http://www.w3.org/2000/svg" xmlns:xlink="http://www.w3.org/1999/xlink">
<g id="graph0" class="graph" transform="scale(1 1) rotate(0) translate(4 338.9559)">
<title>%3</title>
<polygon fill="#ffffff" stroke="transparent" points="-4,4 -4,-338.9559 466.9072,-338.9559 466.9072,4 -4,4"/>
<!-- E0 -->
<g id="node1" class="node">
<title>E0</title>
<polygon fill="#d3d3d3" stroke="#000000" points="29.2014,-334.9559 3.2063,-334.9559 3.2063,-317.9559 29.2014,-317.9559 29.2014,-334.9559"/>
<text text-anchor="middle" x="16.2039" y="-323.7559" font-family="Times,serif" font-size="9.00" fill="#000000">E0</text>
</g>
<!-- E1 -->
<g id="node2" class="node">
<title>E1</title>
<polygon fill="#d3d3d3" stroke="#000000" points="73.2014,-334.9559 47.2063,-334.9559 47.2063,-317.9559 73.2014,-317.9559 73.2014,-334.9559"/>
<text text-anchor="middle" x="60.2039" y="-323.7559" font-family="Times,serif" font-size="9.00" fill="#000000">E1</text>
</g>
<!-- E0&#45;&gt;E1 -->
<!-- 1 -->
<g id="node11" class="node">
<title>1</title>
<ellipse fill="#87cefa" stroke="#000000" cx="337.2039" cy="-14.853" rx="14.4914" ry="14.4914"/>
<text text-anchor="middle" x="337.2039" y="-12.153" font-family="Times,serif" font-size="9.00" fill="#000000">1</text>
</g>
<!-- E0&#45;&gt;1 -->
<g id="edge13" class="edge">
<title>E0&#45;&gt;1</title>
<path fill="none" stroke="#00ff00" stroke-width="3.5719" d="M13.9026,-317.7013C4.8289,-280.9782 -24.6273,-137.9303 46.2039,-65.7061 88.1243,-22.9612 256.8434,-49.9035 313.2039,-29.7061 314.2648,-29.3259 315.3289,-28.8941 316.3869,-28.4231"/>
<polygon fill="#00ff00" stroke="#00ff00" stroke-width="3.5719" points="318.3934,-31.3157 325.4998,-23.4576 315.0441,-25.1689 318.3934,-31.3157"/>
</g>
<!-- E2 -->
<g id="node3" class="node">
<title>E2</title>
<polygon fill="#d3d3d3" stroke="#000000" points="117.2014,-334.9559 91.2063,-334.9559 91.2063,-317.9559 117.2014,-317.9559 117.2014,-334.9559"/>
<text text-anchor="middle" x="104.2039" y="-323.7559" font-family="Times,serif" font-size="9.00" fill="#000000">E2</text>
</g>
<!-- E1&#45;&gt;E2 -->
<!-- S -->
<g id="node13" class="node">
<title>S</title>
<ellipse fill="#87cefa" stroke="#000000" cx="431.2039" cy="-14.853" rx="14.7075" ry="14.7075"/>
<text text-anchor="middle" x="431.2039" y="-12.153" font-family="Times,serif" font-size="9.00" fill="#000000">S</text>
</g>
<!-- E1&#45;&gt;S -->
<g id="edge14" class="edge">
<title>E1&#45;&gt;S</title>
<path fill="none" stroke="#ff0000" stroke-width="2.0242" d="M57.4195,-317.7181C46.3389,-281.0626 9.2682,-138.248 79.2039,-65.7061 130.0967,-12.9167 337.8755,-53.5885 407.2039,-29.7061 408.0957,-29.3989 408.9891,-29.0539 409.8788,-28.6785"/>
<polygon fill="#ff0000" stroke="#ff0000" stroke-width="2.0242" points="411.8299,-31.6058 419.0294,-23.8329 408.554,-25.4196 411.8299,-31.6058"/>
</g>
<!-- 4917 -->
<g id="node18" class="node">
<title>4917</title>
<ellipse fill="#add8e6" stroke="#000000" cx="167.2039" cy="-257.9142" rx="24.0833" ry="24.0833"/>
<text text-anchor="middle" x="167.2039" y="-259.7142" font-family="Times,serif" font-size="9.00" fill="#000000">4917</text>
<text text-anchor="middle" x="167.2039" y="-250.7142" font-family="Times,serif" font-size="9.00" fill="#000000">sigm</text>
</g>
<!-- E1&#45;&gt;4917 -->
<g id="edge26" class="edge">
<title>E1&#45;&gt;4917</title>
<path fill="none" stroke="#ff0000" stroke-width=".2081" d="M73.3242,-318.0513C89.3402,-307.7919 116.8989,-290.1384 138.0275,-276.6039"/>
<polygon fill="#ff0000" stroke="#ff0000" stroke-width=".2081" points="140.1039,-279.4304 146.6365,-271.0892 136.3281,-273.536 140.1039,-279.4304"/>
</g>
<!-- E3 -->
<g id="node4" class="node">
<title>E3</title>
<polygon fill="#d3d3d3" stroke="#000000" points="161.2014,-334.9559 135.2063,-334.9559 135.2063,-317.9559 161.2014,-317.9559 161.2014,-334.9559"/>
<text text-anchor="middle" x="148.2039" y="-323.7559" font-family="Times,serif" font-size="9.00" fill="#000000">E3</text>
</g>
<!-- E2&#45;&gt;E3 -->
<!-- E4 -->
<g id="node5" class="node">
<title>E4</title>
<polygon fill="#d3d3d3" stroke="#000000" points="205.2014,-334.9559 179.2063,-334.9559 179.2063,-317.9559 205.2014,-317.9559 205.2014,-334.9559"/>
<text text-anchor="middle" x="192.2039" y="-323.7559" font-family="Times,serif" font-size="9.00" fill="#000000">E4</text>
</g>
<!-- E3&#45;&gt;E4 -->
<!-- E3&#45;&gt;S -->
<g id="edge25" class="edge">
<title>E3&#45;&gt;S</title>
<path fill="none" stroke="#ff0000" stroke-width=".1425" d="M144.6041,-317.7793C141.1481,-308.9448 136.1711,-294.7641 134.2039,-281.9559 124.9251,-221.5439 134.0823,-197.5643 172.2039,-149.7893 210.8052,-101.4131 227.8974,-93.4821 283.2039,-65.7061 334.4865,-39.9509 354.7666,-53.0206 407.2039,-29.7061 408.0658,-29.3229 408.9338,-28.9133 409.8021,-28.4835"/>
<polygon fill="#ff0000" stroke="#ff0000" stroke-width=".1425" points="411.8585,-31.3422 418.8526,-23.384 408.4223,-25.2436 411.8585,-31.3422"/>
</g>
<!-- E5 -->
<g id="node6" class="node">
<title>E5</title>
<polygon fill="#d3d3d3" stroke="#000000" points="249.2014,-334.9559 223.2063,-334.9559 223.2063,-317.9559 249.2014,-317.9559 249.2014,-334.9559"/>
<text text-anchor="middle" x="236.2039" y="-323.7559" font-family="Times,serif" font-size="9.00" fill="#000000">E5</text>
</g>
<!-- E4&#45;&gt;E5 -->
<!-- E6 -->
<g id="node7" class="node">
<title>E6</title>
<polygon fill="#d3d3d3" stroke="#000000" points="320.2014,-334.9559 294.2063,-334.9559 294.2063,-317.9559 320.2014,-317.9559 320.2014,-334.9559"/>
<text text-anchor="middle" x="307.2039" y="-323.7559" font-family="Times,serif" font-size="9.00" fill="#000000">E6</text>
</g>
<!-- E5&#45;&gt;E6 -->
<!-- 5139 -->
<g id="node17" class="node">
<title>5139</title>
<ellipse fill="#add8e6" stroke="#000000" cx="112.2039" cy="-89.7477" rx="24.0833" ry="24.0833"/>
<text text-anchor="middle" x="112.2039" y="-91.5477" font-family="Times,serif" font-size="9.00" fill="#000000">5139</text>
<text text-anchor="middle" x="112.2039" y="-82.5477" font-family="Times,serif" font-size="9.00" fill="#000000">sigm</text>
</g>
<!-- E5&#45;&gt;5139 -->
<g id="edge20" class="edge">
<title>E5&#45;&gt;5139</title>
<path fill="none" stroke="#00ff00" stroke-width="1.0357" d="M233.7965,-317.9158C228.8732,-301.1375 216.7101,-262.9743 200.2039,-233.8726 190.2036,-216.2414 183.377,-214.7849 172.2039,-197.8726 155.5332,-172.6388 139.0407,-142.4343 127.5785,-120.3712"/>
<polygon fill="#00ff00" stroke="#00ff00" stroke-width="1.0357" points="130.6765,-118.7421 122.9883,-111.4523 124.4524,-121.9454 130.6765,-118.7421"/>
</g>
<!-- E5&#45;&gt;4917 -->
<g id="edge18" class="edge">
<title>E5&#45;&gt;4917</title>
<path fill="none" stroke="#00ff00" stroke-width=".3055" d="M227.465,-317.775C218.5158,-308.8853 204.1938,-294.6584 191.7573,-282.3045"/>
<polygon fill="#00ff00" stroke="#00ff00" stroke-width=".3055" points="193.8836,-279.4834 184.3224,-274.919 188.9504,-284.4496 193.8836,-279.4834"/>
</g>
<!-- E7 -->
<g id="node8" class="node">
<title>E7</title>
<polygon fill="#d3d3d3" stroke="#000000" points="374.2014,-334.9559 348.2063,-334.9559 348.2063,-317.9559 374.2014,-317.9559 374.2014,-334.9559"/>
<text text-anchor="middle" x="361.2039" y="-323.7559" font-family="Times,serif" font-size="9.00" fill="#000000">E7</text>
</g>
<!-- E6&#45;&gt;E7 -->
<!-- E6&#45;&gt;1 -->
<g id="edge15" class="edge">
<title>E6&#45;&gt;1</title>
<path fill="none" stroke="#00ff00" stroke-width=".4475" d="M310.3098,-317.9405C321.8229,-285.3619 360.8129,-165.4499 349.2039,-65.7061 348.1716,-56.8366 346.1589,-47.2691 344.0724,-38.8519"/>
<polygon fill="#00ff00" stroke="#00ff00" stroke-width=".4475" points="347.3937,-37.7205 341.4583,-28.9444 340.6254,-39.5064 347.3937,-37.7205"/>
</g>
<!-- 4901 -->
<g id="node15" class="node">
<title>4901</title>
<ellipse fill="#add8e6" stroke="#000000" cx="271.2039" cy="-173.831" rx="24.0833" ry="24.0833"/>
<text text-anchor="middle" x="271.2039" y="-175.631" font-family="Times,serif" font-size="9.00" fill="#000000">4901</text>
<text text-anchor="middle" x="271.2039" y="-166.631" font-family="Times,serif" font-size="9.00" fill="#000000">sigm</text>
</g>
<!-- E6&#45;&gt;4901 -->
<g id="edge17" class="edge">
<title>E6&#45;&gt;4901</title>
<path fill="none" stroke="#ff0000" stroke-width=".2911" d="M305.1652,-317.8128C300.251,-296.9785 287.5376,-243.0791 279.1367,-207.4629"/>
<polygon fill="#ff0000" stroke="#ff0000" stroke-width=".2911" points="282.4889,-206.4288 276.7866,-197.4994 275.6759,-208.0358 282.4889,-206.4288"/>
</g>
<!-- E8 -->
<g id="node9" class="node">
<title>E8</title>
<polygon fill="#d3d3d3" stroke="#000000" points="434.2014,-334.9559 408.2063,-334.9559 408.2063,-317.9559 434.2014,-317.9559 434.2014,-334.9559"/>
<text text-anchor="middle" x="421.2039" y="-323.7559" font-family="Times,serif" font-size="9.00" fill="#000000">E8</text>
</g>
<!-- E7&#45;&gt;E8 -->
<!-- 0 -->
<g id="node10" class="node">
<title>0</title>
<ellipse fill="#87cefa" stroke="#000000" cx="290.2039" cy="-14.853" rx="14.4914" ry="14.4914"/>
<text text-anchor="middle" x="290.2039" y="-12.153" font-family="Times,serif" font-size="9.00" fill="#000000">0</text>
</g>
<!-- E7&#45;&gt;0 -->
<g id="edge16" class="edge">
<title>E7&#45;&gt;0</title>
<path fill="none" stroke="#00ff00" stroke-width=".5531" d="M363.1458,-317.7557C370.3309,-283.4917 392.8116,-155.3606 349.2039,-65.7061 344.828,-56.7096 325.8014,-41.125 310.5212,-29.5731"/>
<polygon fill="#00ff00" stroke="#00ff00" stroke-width=".5531" points="312.2118,-26.4691 302.0964,-23.3178 308.0388,-32.0892 312.2118,-26.4691"/>
</g>
<!-- E8&#45;&gt;0 -->
<g id="edge27" class="edge">
<title>E8&#45;&gt;0</title>
<path fill="none" stroke="#00ff00" stroke-width=".1373" d="M421.9038,-317.8657C424.3053,-282.9439 429.1282,-149.5018 371.2039,-65.7061 370.7038,-64.9826 335.3564,-42.9238 311.5265,-28.0994"/>
<polygon fill="#00ff00" stroke="#00ff00" stroke-width=".1373" points="313.0944,-24.9529 302.7539,-22.6452 309.3983,-30.8976 313.0944,-24.9529"/>
</g>
<!-- 2 -->
<g id="node12" class="node">
<title>2</title>
<ellipse fill="#87cefa" stroke="#000000" cx="384.2039" cy="-14.853" rx="14.4914" ry="14.4914"/>
<text text-anchor="middle" x="384.2039" y="-12.153" font-family="Times,serif" font-size="9.00" fill="#000000">2</text>
</g>
<!-- E8&#45;&gt;2 -->
<g id="edge12" class="edge">
<title>E8&#45;&gt;2</title>
<path fill="none" stroke="#00ff00" stroke-width="2.4081" d="M429.416,-317.7533C436.745,-309.3401 446.9559,-295.8563 451.2039,-281.9559 468.3712,-225.7798 464.6203,-206.9773 451.2039,-149.7893 440.9886,-106.246 414.5261,-60.6676 398.0795,-35.2012"/>
<polygon fill="#00ff00" stroke="#00ff00" stroke-width="2.4081" points="400.9478,-33.193 392.522,-26.7698 395.1032,-37.0454 400.9478,-33.193"/>
</g>
<!-- 4868 -->
<g id="node16" class="node">
<title>4868</title>
<ellipse fill="#add8e6" stroke="#000000" cx="316.2039" cy="-89.7477" rx="24.0833" ry="24.0833"/>
<text text-anchor="middle" x="316.2039" y="-91.5477" font-family="Times,serif" font-size="9.00" fill="#000000">4868</text>
<text text-anchor="middle" x="316.2039" y="-82.5477" font-family="Times,serif" font-size="9.00" fill="#000000">sigm</text>
</g>
<!-- E8&#45;&gt;4868 -->
<g id="edge24" class="edge">
<title>E8&#45;&gt;4868</title>
<path fill="none" stroke="#ff0000" stroke-width=".4413" d="M417.3424,-317.7506C403.2764,-286.0407 354.3368,-175.7132 330.068,-121.0026"/>
<polygon fill="#ff0000" stroke="#ff0000" stroke-width=".4413" points="333.2306,-119.5002 325.9764,-111.7784 326.8319,-122.3386 333.2306,-119.5002"/>
</g>
<!-- 0&#45;&gt;1 -->
<!-- 1&#45;&gt;2 -->
<!-- 2&#45;&gt;S -->
<!-- 5249 -->
<g id="node14" class="node">
<title>5249</title>
<ellipse fill="#add8e6" stroke="#000000" cx="205.2039" cy="-173.831" rx="24.0833" ry="24.0833"/>
<text text-anchor="middle" x="205.2039" y="-175.631" font-family="Times,serif" font-size="9.00" fill="#000000">5249</text>
<text text-anchor="middle" x="205.2039" y="-166.631" font-family="Times,serif" font-size="9.00" fill="#000000">sigm</text>
</g>
<!-- 5249&#45;&gt;4868 -->
<g id="edge23" class="edge">
<title>5249&#45;&gt;4868</title>
<path fill="none" stroke="#00ff00" stroke-width="1.3521" d="M224.5386,-159.1848C242.2566,-145.7633 268.6844,-125.7441 288.6175,-110.6446"/>
<polygon fill="#00ff00" stroke="#00ff00" stroke-width="1.3521" points="290.8605,-113.3364 296.7183,-104.5082 286.6337,-107.7565 290.8605,-113.3364"/>
</g>
<!-- 4901&#45;&gt;0 -->
<g id="edge19" class="edge">
<title>4901&#45;&gt;0</title>
<path fill="none" stroke="#00ff00" stroke-width=".4624" d="M273.6923,-149.7607C276.0025,-127.8349 279.6163,-94.5699 283.2039,-65.7061 284.2587,-57.2201 285.5061,-47.9513 286.6537,-39.6787"/>
<polygon fill="#00ff00" stroke="#00ff00" stroke-width=".4624" points="290.1546,-39.9167 288.0801,-29.5269 283.2227,-38.9426 290.1546,-39.9167"/>
</g>
<!-- 4868&#45;&gt;0 -->
<g id="edge28" class="edge">
<title>4868&#45;&gt;0</title>
<path fill="none" stroke="#ff0000" stroke-width=".1167" d="M308.2618,-66.8699C305.1369,-57.8684 301.55,-47.5363 298.4008,-38.4646"/>
<polygon fill="#ff0000" stroke="#ff0000" stroke-width=".1167" points="301.6651,-37.1953 295.079,-28.8962 295.0522,-39.491 301.6651,-37.1953"/>
</g>
<!-- 5139&#45;&gt;0 -->
<g id="edge21" class="edge">
<title>5139&#45;&gt;0</title>
<path fill="none" stroke="#ff0000" stroke-width="1.593" d="M132.2465,-75.936C137.9108,-72.3479 144.1769,-68.6641 150.2039,-65.7061 189.3142,-46.5108 237.5822,-30.5558 266.0151,-21.8898"/>
<polygon fill="#ff0000" stroke="#ff0000" stroke-width="1.593" points="267.3061,-25.1568 275.8807,-18.9338 265.2969,-18.4514 267.3061,-25.1568"/>
</g>
<!-- 4917&#45;&gt;5249 -->
<g id="edge22" class="edge">
<title>4917&#45;&gt;5249</title>
<path fill="none" stroke="#00ff00" stroke-width=".545" d="M177.1879,-235.8223C181.4206,-226.4566 186.4304,-215.3713 191.0348,-205.1831"/>
<polygon fill="#00ff00" stroke="#00ff00" stroke-width=".545" points="194.3576,-206.3294 195.2865,-195.7753 187.9788,-203.4465 194.3576,-206.3294"/>
</g>
</g>
</svg>
