<?xml version="1.0" encoding="UTF-8" standalone="no"?>
<!DOCTYPE svg PUBLIC "-//W3C//DTD SVG 1.1//EN"
 "http://www.w3.org/Graphics/SVG/1.1/DTD/svg11.dtd">
<!-- Generated by graphviz version 2.40.1 (20161225.0304)
 -->
<!-- Title: %3 Pages: 1 -->
<svg width="485pt" height="602pt"
 viewBox="0.00 0.00 484.77 602.27" xmlns="http://www.w3.org/2000/svg" xmlns:xlink="http://www.w3.org/1999/xlink">
<g id="graph0" class="graph" transform="scale(1 1) rotate(0) translate(4 598.2657)">
<title>%3</title>
<polygon fill="#ffffff" stroke="transparent" points="-4,4 -4,-598.2657 480.7661,-598.2657 480.7661,4 -4,4"/>
<!-- 0 -->
<g id="node1" class="node">
<title>0</title>
<polygon fill="#d3d3d3" stroke="#000000" points="298.389,-594.2657 278.3771,-594.2657 278.3771,-577.2657 298.389,-577.2657 298.389,-594.2657"/>
<text text-anchor="middle" x="288.383" y="-583.0657" font-family="Times,serif" font-size="9.00" fill="#000000">0</text>
</g>
<!-- 1 -->
<g id="node2" class="node">
<title>1</title>
<polygon fill="#d3d3d3" stroke="#000000" points="337.389,-594.2657 317.3771,-594.2657 317.3771,-577.2657 337.389,-577.2657 337.389,-594.2657"/>
<text text-anchor="middle" x="327.383" y="-583.0657" font-family="Times,serif" font-size="9.00" fill="#000000">1</text>
</g>
<!-- 0&#45;&gt;1 -->
<!-- E5 -->
<g id="node9" class="node">
<title>E5</title>
<ellipse fill="#87cefa" stroke="#000000" cx="293.383" cy="-18.383" rx="18.2668" ry="18.2668"/>
<text text-anchor="middle" x="293.383" y="-15.683" font-family="Times,serif" font-size="9.00" fill="#000000">E5</text>
</g>
<!-- 0&#45;&gt;E5 -->
<g id="edge13" class="edge">
<title>0&#45;&gt;E5</title>
<path fill="none" stroke="#ff0000" stroke-width="1.4915" d="M288.5748,-577.1603C289.0754,-553.9295 290.383,-487.9951 290.383,-433.1408 290.383,-433.1408 290.383,-433.1408 290.383,-180.891 290.383,-133.9896 291.6477,-79.4871 292.5348,-47.0245"/>
<polygon fill="#ff0000" stroke="#ff0000" stroke-width="1.4915" points="296.0368,-46.9975 292.8188,-36.9032 289.0396,-46.8011 296.0368,-46.9975"/>
</g>
<!-- 2 -->
<g id="node3" class="node">
<title>2</title>
<polygon fill="#d3d3d3" stroke="#000000" points="376.389,-594.2657 356.3771,-594.2657 356.3771,-577.2657 376.389,-577.2657 376.389,-594.2657"/>
<text text-anchor="middle" x="366.383" y="-583.0657" font-family="Times,serif" font-size="9.00" fill="#000000">2</text>
</g>
<!-- 1&#45;&gt;2 -->
<!-- E0 -->
<g id="node4" class="node">
<title>E0</title>
<ellipse fill="#87cefa" stroke="#000000" cx="18.383" cy="-18.383" rx="18.2668" ry="18.2668"/>
<text text-anchor="middle" x="18.383" y="-15.683" font-family="Times,serif" font-size="9.00" fill="#000000">E0</text>
</g>
<!-- 1&#45;&gt;E0 -->
<g id="edge11" class="edge">
<title>1&#45;&gt;E0</title>
<path fill="none" stroke="#00ff00" stroke-width="2.8099" d="M317.3537,-581.0472C314.21,-579.6926 310.6954,-578.3031 307.383,-577.2657 232.4369,-553.7929 204.9876,-575.6589 134.383,-541.2657 67.4345,-508.6534 6.383,-507.6101 6.383,-433.1408 6.383,-433.1408 6.383,-433.1408 6.383,-180.891 6.383,-133.8699 11.4415,-79.4031 14.9899,-46.9803"/>
<polygon fill="#00ff00" stroke="#00ff00" stroke-width="2.8099" points="18.4871,-47.2008 16.1259,-36.8725 11.5309,-46.419 18.4871,-47.2008"/>
</g>
<!-- 1&#45;&gt;E5 -->
<g id="edge25" class="edge">
<title>1&#45;&gt;E5</title>
<path fill="none" stroke="#00ff00" stroke-width=".4054" d="M327.4789,-577.1599C327.7292,-553.9281 328.383,-487.9915 328.383,-433.1408 328.383,-433.1408 328.383,-433.1408 328.383,-180.891 328.383,-132.1929 313.177,-77.0892 302.8106,-45.1814"/>
<polygon fill="#00ff00" stroke="#00ff00" stroke-width=".4054" points="306.1241,-44.0535 299.6403,-35.6743 299.4835,-46.2679 306.1241,-44.0535"/>
</g>
<!-- 3577 -->
<g id="node19" class="node">
<title>3577</title>
<ellipse fill="#add8e6" stroke="#000000" cx="167.383" cy="-517.224" rx="24.0833" ry="24.0833"/>
<text text-anchor="middle" x="167.383" y="-519.024" font-family="Times,serif" font-size="9.00" fill="#000000">3577</text>
<text text-anchor="middle" x="167.383" y="-510.024" font-family="Times,serif" font-size="9.00" fill="#000000">sigm</text>
</g>
<!-- 1&#45;&gt;3577 -->
<g id="edge14" class="edge">
<title>1&#45;&gt;3577</title>
<path fill="none" stroke="#ff0000" stroke-width=".2319" d="M317.3743,-581.4781C294.1377,-571.5238 235.724,-546.5003 199.0302,-530.7812"/>
<polygon fill="#ff0000" stroke="#ff0000" stroke-width=".2319" points="200.3243,-527.528 189.754,-526.8074 197.5679,-533.9625 200.3243,-527.528"/>
</g>
<!-- E4 -->
<g id="node8" class="node">
<title>E4</title>
<ellipse fill="#87cefa" stroke="#000000" cx="238.383" cy="-18.383" rx="18.2668" ry="18.2668"/>
<text text-anchor="middle" x="238.383" y="-15.683" font-family="Times,serif" font-size="9.00" fill="#000000">E4</text>
</g>
<!-- 2&#45;&gt;E4 -->
<g id="edge15" class="edge">
<title>2&#45;&gt;E4</title>
<path fill="none" stroke="#ff0000" stroke-width=".1896" d="M366.383,-577.1598C366.383,-553.9277 366.383,-487.9903 366.383,-433.1408 366.383,-433.1408 366.383,-433.1408 366.383,-180.891 366.383,-146.8345 296.1301,-74.0465 259.7173,-38.607"/>
<polygon fill="#ff0000" stroke="#ff0000" stroke-width=".1896" points="261.7081,-35.6643 252.0813,-31.2399 256.8478,-40.702 261.7081,-35.6643"/>
</g>
<!-- E8 -->
<g id="node12" class="node">
<title>E8</title>
<ellipse fill="#87cefa" stroke="#000000" cx="458.383" cy="-18.383" rx="18.2668" ry="18.2668"/>
<text text-anchor="middle" x="458.383" y="-15.683" font-family="Times,serif" font-size="9.00" fill="#000000">E8</text>
</g>
<!-- 2&#45;&gt;E8 -->
<g id="edge12" class="edge">
<title>2&#45;&gt;E8</title>
<path fill="none" stroke="#00ff00" stroke-width="2.3674" d="M373.0944,-577.0366C389.7018,-554.5356 431.383,-492.1813 431.383,-433.1408 431.383,-433.1408 431.383,-433.1408 431.383,-180.891 431.383,-133.0978 442.888,-78.4544 450.8777,-46.2691"/>
<polygon fill="#00ff00" stroke="#00ff00" stroke-width="2.3674" points="454.3512,-46.8122 453.4308,-36.2575 447.5683,-45.0825 454.3512,-46.8122"/>
</g>
<!-- E1 -->
<g id="node5" class="node">
<title>E1</title>
<ellipse fill="#87cefa" stroke="#000000" cx="73.383" cy="-18.383" rx="18.2668" ry="18.2668"/>
<text text-anchor="middle" x="73.383" y="-15.683" font-family="Times,serif" font-size="9.00" fill="#000000">E1</text>
</g>
<!-- E0&#45;&gt;E1 -->
<!-- E2 -->
<g id="node6" class="node">
<title>E2</title>
<ellipse fill="#87cefa" stroke="#000000" cx="128.383" cy="-18.383" rx="18.2668" ry="18.2668"/>
<text text-anchor="middle" x="128.383" y="-15.683" font-family="Times,serif" font-size="9.00" fill="#000000">E2</text>
</g>
<!-- E1&#45;&gt;E2 -->
<!-- E3 -->
<g id="node7" class="node">
<title>E3</title>
<ellipse fill="#87cefa" stroke="#000000" cx="183.383" cy="-18.383" rx="18.2668" ry="18.2668"/>
<text text-anchor="middle" x="183.383" y="-15.683" font-family="Times,serif" font-size="9.00" fill="#000000">E3</text>
</g>
<!-- E2&#45;&gt;E3 -->
<!-- E3&#45;&gt;E4 -->
<!-- E4&#45;&gt;E5 -->
<!-- E6 -->
<g id="node10" class="node">
<title>E6</title>
<ellipse fill="#87cefa" stroke="#000000" cx="348.383" cy="-18.383" rx="18.2668" ry="18.2668"/>
<text text-anchor="middle" x="348.383" y="-15.683" font-family="Times,serif" font-size="9.00" fill="#000000">E6</text>
</g>
<!-- E5&#45;&gt;E6 -->
<!-- E7 -->
<g id="node11" class="node">
<title>E7</title>
<ellipse fill="#87cefa" stroke="#000000" cx="403.383" cy="-18.383" rx="18.2668" ry="18.2668"/>
<text text-anchor="middle" x="403.383" y="-15.683" font-family="Times,serif" font-size="9.00" fill="#000000">E7</text>
</g>
<!-- E6&#45;&gt;E7 -->
<!-- E7&#45;&gt;E8 -->
<!-- 4835 -->
<g id="node13" class="node">
<title>4835</title>
<ellipse fill="#add8e6" stroke="#000000" cx="238.383" cy="-96.8077" rx="24.0833" ry="24.0833"/>
<text text-anchor="middle" x="238.383" y="-98.6077" font-family="Times,serif" font-size="9.00" fill="#000000">4835</text>
<text text-anchor="middle" x="238.383" y="-89.6077" font-family="Times,serif" font-size="9.00" fill="#000000">sigm</text>
</g>
<!-- 4835&#45;&gt;E4 -->
<g id="edge19" class="edge">
<title>4835&#45;&gt;E4</title>
<path fill="none" stroke="#00ff00" stroke-width=".1849" d="M238.383,-72.4236C238.383,-64.33 238.383,-55.248 238.383,-46.8729"/>
<polygon fill="#00ff00" stroke="#00ff00" stroke-width=".1849" points="241.8831,-46.7701 238.383,-36.7702 234.8831,-46.7702 241.8831,-46.7701"/>
</g>
<!-- 2181 -->
<g id="node14" class="node">
<title>2181</title>
<ellipse fill="#add8e6" stroke="#000000" cx="58.383" cy="-264.9743" rx="24.0833" ry="24.0833"/>
<text text-anchor="middle" x="58.383" y="-266.7743" font-family="Times,serif" font-size="9.00" fill="#000000">2181</text>
<text text-anchor="middle" x="58.383" y="-257.7743" font-family="Times,serif" font-size="9.00" fill="#000000">sigm</text>
</g>
<!-- 4463 -->
<g id="node16" class="node">
<title>4463</title>
<ellipse fill="#add8e6" stroke="#000000" cx="58.383" cy="-180.891" rx="24.0833" ry="24.0833"/>
<text text-anchor="middle" x="58.383" y="-182.691" font-family="Times,serif" font-size="9.00" fill="#000000">4463</text>
<text text-anchor="middle" x="58.383" y="-173.691" font-family="Times,serif" font-size="9.00" fill="#000000">sigm</text>
</g>
<!-- 2181&#45;&gt;4463 -->
<g id="edge17" class="edge">
<title>2181&#45;&gt;4463</title>
<path fill="none" stroke="#ff0000" stroke-width=".1982" d="M58.383,-240.6539C58.383,-232.7231 58.383,-223.7624 58.383,-215.2386"/>
<polygon fill="#ff0000" stroke="#ff0000" stroke-width=".1982" points="61.8831,-215.1567 58.383,-205.1567 54.8831,-215.1567 61.8831,-215.1567"/>
</g>
<!-- 4300 -->
<g id="node15" class="node">
<title>4300</title>
<ellipse fill="#add8e6" stroke="#000000" cx="96.383" cy="-433.1408" rx="24.0833" ry="24.0833"/>
<text text-anchor="middle" x="96.383" y="-434.9408" font-family="Times,serif" font-size="9.00" fill="#000000">4300</text>
<text text-anchor="middle" x="96.383" y="-425.9408" font-family="Times,serif" font-size="9.00" fill="#000000">sigm</text>
</g>
<!-- 4594 -->
<g id="node17" class="node">
<title>4594</title>
<ellipse fill="#add8e6" stroke="#000000" cx="58.383" cy="-96.8077" rx="24.0833" ry="24.0833"/>
<text text-anchor="middle" x="58.383" y="-98.6077" font-family="Times,serif" font-size="9.00" fill="#000000">4594</text>
<text text-anchor="middle" x="58.383" y="-89.6077" font-family="Times,serif" font-size="9.00" fill="#000000">sigm</text>
</g>
<!-- 4300&#45;&gt;4594 -->
<g id="edge18" class="edge">
<title>4300&#45;&gt;4594</title>
<path fill="none" stroke="#00ff00" stroke-width=".3889" d="M99.7222,-409.3265C105.7095,-360.8185 115.5242,-247.4806 91.383,-156.8494 88.4829,-145.9617 83.2107,-134.9106 77.719,-125.3078"/>
<polygon fill="#00ff00" stroke="#00ff00" stroke-width=".3889" points="80.6234,-123.3467 72.4567,-116.5973 74.6319,-126.9664 80.6234,-123.3467"/>
</g>
<!-- 2402 -->
<g id="node18" class="node">
<title>2402</title>
<ellipse fill="#add8e6" stroke="#000000" cx="58.383" cy="-349.0575" rx="24.0833" ry="24.0833"/>
<text text-anchor="middle" x="58.383" y="-350.8575" font-family="Times,serif" font-size="9.00" fill="#000000">2402</text>
<text text-anchor="middle" x="58.383" y="-341.8575" font-family="Times,serif" font-size="9.00" fill="#000000">sigm</text>
</g>
<!-- 4300&#45;&gt;2402 -->
<g id="edge20" class="edge">
<title>4300&#45;&gt;2402</title>
<path fill="none" stroke="#ff0000" stroke-width=".3688" d="M86.399,-411.0489C82.1663,-401.6832 77.1565,-390.5979 72.5521,-380.4097"/>
<polygon fill="#ff0000" stroke="#ff0000" stroke-width=".3688" points="75.6082,-378.6731 68.3004,-371.0019 69.2294,-381.5559 75.6082,-378.6731"/>
</g>
<!-- 4463&#45;&gt;4594 -->
<g id="edge23" class="edge">
<title>4463&#45;&gt;4594</title>
<path fill="none" stroke="#00ff00" stroke-width=".3321" d="M58.383,-156.5706C58.383,-148.6398 58.383,-139.6791 58.383,-131.1553"/>
<polygon fill="#00ff00" stroke="#00ff00" stroke-width=".3321" points="61.8831,-131.0734 58.383,-121.0734 54.8831,-131.0735 61.8831,-131.0734"/>
</g>
<!-- 4594&#45;&gt;E0 -->
<g id="edge21" class="edge">
<title>4594&#45;&gt;E0</title>
<path fill="none" stroke="#00ff00" stroke-width=".1335" d="M47.4529,-75.3778C42.5096,-65.686 36.6285,-54.1555 31.4537,-44.0095"/>
<polygon fill="#00ff00" stroke="#00ff00" stroke-width=".1335" points="34.4238,-42.1294 26.7623,-34.8115 28.188,-45.31 34.4238,-42.1294"/>
</g>
<!-- 2402&#45;&gt;2181 -->
<g id="edge22" class="edge">
<title>2402&#45;&gt;2181</title>
<path fill="none" stroke="#ff0000" stroke-width=".3726" d="M58.383,-324.7372C58.383,-316.8063 58.383,-307.8457 58.383,-299.3219"/>
<polygon fill="#ff0000" stroke="#ff0000" stroke-width=".3726" points="61.8831,-299.2399 58.383,-289.24 54.8831,-299.24 61.8831,-299.2399"/>
</g>
<!-- 3577&#45;&gt;E2 -->
<g id="edge26" class="edge">
<title>3577&#45;&gt;E2</title>
<path fill="none" stroke="#00ff00" stroke-width=".4369" d="M162.9763,-493.3703C157.3635,-460.8619 148.383,-400.7687 148.383,-349.0575 148.383,-349.0575 148.383,-349.0575 148.383,-180.891 148.383,-133.6438 139.9522,-79.2445 134.0382,-46.8969"/>
<polygon fill="#00ff00" stroke="#00ff00" stroke-width=".4369" points="137.4304,-45.9966 132.1449,-36.8144 130.5507,-47.2886 137.4304,-45.9966"/>
</g>
<!-- 3577&#45;&gt;E4 -->
<g id="edge24" class="edge">
<title>3577&#45;&gt;E4</title>
<path fill="none" stroke="#ff0000" stroke-width=".3688" d="M171.7898,-493.3703C177.4026,-460.8619 186.383,-400.7687 186.383,-349.0575 186.383,-349.0575 186.383,-349.0575 186.383,-180.891 186.383,-132.0992 188.2097,-118.4357 205.383,-72.7661 209.4062,-62.0672 215.5703,-51.1301 221.4866,-41.8963"/>
<polygon fill="#ff0000" stroke="#ff0000" stroke-width=".3688" points="224.584,-43.5607 227.2318,-33.3021 218.7645,-39.6704 224.584,-43.5607"/>
</g>
<!-- 3577&#45;&gt;4300 -->
<g id="edge16" class="edge">
<title>3577&#45;&gt;4300</title>
<path fill="none" stroke="#00ff00" stroke-width=".2932" d="M151.6258,-498.5632C141.9741,-487.133 129.4676,-472.3218 118.7957,-459.6835"/>
<polygon fill="#00ff00" stroke="#00ff00" stroke-width=".2932" points="121.222,-457.1318 112.0962,-451.7494 115.8737,-461.648 121.222,-457.1318"/>
</g>
</g>
</svg>
