<?xml version="1.0" encoding="UTF-8" standalone="no"?>
<!DOCTYPE svg PUBLIC "-//W3C//DTD SVG 1.1//EN"
 "http://www.w3.org/Graphics/SVG/1.1/DTD/svg11.dtd">
<!-- Generated by graphviz version 2.40.1 (20161225.0304)
 -->
<!-- Title: %3 Pages: 1 -->
<svg width="386pt" height="175pt"
 viewBox="0.00 0.00 386.00 174.79" xmlns="http://www.w3.org/2000/svg" xmlns:xlink="http://www.w3.org/1999/xlink">
<g id="graph0" class="graph" transform="scale(1 1) rotate(0) translate(4 170.7893)">
<title>%3</title>
<polygon fill="#ffffff" stroke="transparent" points="-4,4 -4,-170.7893 381.9976,-170.7893 381.9976,4 -4,4"/>
<!-- E0 -->
<g id="node1" class="node">
<title>E0</title>
<polygon fill="#d3d3d3" stroke="#000000" points="25.9963,-166.7893 .0012,-166.7893 .0012,-149.7893 25.9963,-149.7893 25.9963,-166.7893"/>
<text text-anchor="middle" x="12.9988" y="-155.5893" font-family="Times,serif" font-size="9.00" fill="#000000">E0</text>
</g>
<!-- E1 -->
<g id="node2" class="node">
<title>E1</title>
<polygon fill="#d3d3d3" stroke="#000000" points="69.9963,-166.7893 44.0012,-166.7893 44.0012,-149.7893 69.9963,-149.7893 69.9963,-166.7893"/>
<text text-anchor="middle" x="56.9988" y="-155.5893" font-family="Times,serif" font-size="9.00" fill="#000000">E1</text>
</g>
<!-- E0&#45;&gt;E1 -->
<!-- S -->
<g id="node13" class="node">
<title>S</title>
<ellipse fill="#87cefa" stroke="#000000" cx="265.9988" cy="-14.853" rx="14.7075" ry="14.7075"/>
<text text-anchor="middle" x="265.9988" y="-12.153" font-family="Times,serif" font-size="9.00" fill="#000000">S</text>
</g>
<!-- E0&#45;&gt;S -->
<g id="edge15" class="edge">
<title>E0&#45;&gt;S</title>
<path fill="none" stroke="#ff0000" stroke-width="1.0102" d="M26.4398,-152.9243C29.2543,-151.8494 32.2132,-150.7547 34.9988,-149.7893 86.4053,-131.9744 104.4273,-140.1892 151.9988,-113.7893 190.9773,-92.1582 228.4905,-55.5894 249.2749,-33.486"/>
<polygon fill="#ff0000" stroke="#ff0000" stroke-width="1.0102" points="251.9293,-35.7706 256.1472,-26.0515 246.789,-31.019 251.9293,-35.7706"/>
</g>
<!-- E2 -->
<g id="node3" class="node">
<title>E2</title>
<polygon fill="#d3d3d3" stroke="#000000" points="113.9963,-166.7893 88.0012,-166.7893 88.0012,-149.7893 113.9963,-149.7893 113.9963,-166.7893"/>
<text text-anchor="middle" x="100.9988" y="-155.5893" font-family="Times,serif" font-size="9.00" fill="#000000">E2</text>
</g>
<!-- E1&#45;&gt;E2 -->
<!-- 1 -->
<g id="node11" class="node">
<title>1</title>
<ellipse fill="#87cefa" stroke="#000000" cx="140.9988" cy="-14.853" rx="14.4914" ry="14.4914"/>
<text text-anchor="middle" x="140.9988" y="-12.153" font-family="Times,serif" font-size="9.00" fill="#000000">1</text>
</g>
<!-- E1&#45;&gt;1 -->
<g id="edge13" class="edge">
<title>E1&#45;&gt;1</title>
<path fill="none" stroke="#00ff00" stroke-width="1.2066" d="M58.1628,-149.7524C60.8044,-132.6523 68.4394,-93.4632 85.9988,-65.7061 94.974,-51.5185 108.8833,-38.7082 120.4681,-29.494"/>
<polygon fill="#00ff00" stroke="#00ff00" stroke-width="1.2066" points="122.9176,-32.0281 128.7538,-23.1856 118.6772,-26.4586 122.9176,-32.0281"/>
</g>
<!-- E3 -->
<g id="node4" class="node">
<title>E3</title>
<polygon fill="#d3d3d3" stroke="#000000" points="157.9963,-166.7893 132.0012,-166.7893 132.0012,-149.7893 157.9963,-149.7893 157.9963,-166.7893"/>
<text text-anchor="middle" x="144.9988" y="-155.5893" font-family="Times,serif" font-size="9.00" fill="#000000">E3</text>
</g>
<!-- E2&#45;&gt;E3 -->
<!-- E4 -->
<g id="node5" class="node">
<title>E4</title>
<polygon fill="#d3d3d3" stroke="#000000" points="201.9963,-166.7893 176.0012,-166.7893 176.0012,-149.7893 201.9963,-149.7893 201.9963,-166.7893"/>
<text text-anchor="middle" x="188.9988" y="-155.5893" font-family="Times,serif" font-size="9.00" fill="#000000">E4</text>
</g>
<!-- E3&#45;&gt;E4 -->
<!-- 5396 -->
<g id="node14" class="node">
<title>5396</title>
<ellipse fill="#add8e6" stroke="#000000" cx="118.9988" cy="-89.7477" rx="24.0833" ry="24.0833"/>
<text text-anchor="middle" x="118.9988" y="-91.5477" font-family="Times,serif" font-size="9.00" fill="#000000">5396</text>
<text text-anchor="middle" x="118.9988" y="-82.5477" font-family="Times,serif" font-size="9.00" fill="#000000">sigm</text>
</g>
<!-- E3&#45;&gt;5396 -->
<g id="edge19" class="edge">
<title>E3&#45;&gt;5396</title>
<path fill="none" stroke="#00ff00" stroke-width=".1382" d="M141.7059,-149.6085C139.0342,-142.5655 135.0918,-132.1725 131.2388,-122.0149"/>
<polygon fill="#00ff00" stroke="#00ff00" stroke-width=".1382" points="134.4356,-120.574 127.6163,-112.4655 127.8906,-123.0568 134.4356,-120.574"/>
</g>
<!-- E5 -->
<g id="node6" class="node">
<title>E5</title>
<polygon fill="#d3d3d3" stroke="#000000" points="245.9963,-166.7893 220.0012,-166.7893 220.0012,-149.7893 245.9963,-149.7893 245.9963,-166.7893"/>
<text text-anchor="middle" x="232.9988" y="-155.5893" font-family="Times,serif" font-size="9.00" fill="#000000">E5</text>
</g>
<!-- E4&#45;&gt;E5 -->
<!-- E4&#45;&gt;S -->
<g id="edge18" class="edge">
<title>E4&#45;&gt;S</title>
<path fill="none" stroke="#00ff00" stroke-width=".1147" d="M202.1748,-152.0168C221.0414,-142.7426 254.2317,-125.2376 260.9988,-113.7893 274.264,-91.3478 273.5734,-60.796 270.803,-39.6059"/>
<polygon fill="#00ff00" stroke="#00ff00" stroke-width=".1147" points="274.2221,-38.8144 269.2275,-29.4707 267.3051,-39.8897 274.2221,-38.8144"/>
</g>
<!-- E6 -->
<g id="node7" class="node">
<title>E6</title>
<polygon fill="#d3d3d3" stroke="#000000" points="289.9963,-166.7893 264.0012,-166.7893 264.0012,-149.7893 289.9963,-149.7893 289.9963,-166.7893"/>
<text text-anchor="middle" x="276.9988" y="-155.5893" font-family="Times,serif" font-size="9.00" fill="#000000">E6</text>
</g>
<!-- E5&#45;&gt;E6 -->
<!-- 2 -->
<g id="node12" class="node">
<title>2</title>
<ellipse fill="#87cefa" stroke="#000000" cx="189.9988" cy="-14.853" rx="14.4914" ry="14.4914"/>
<text text-anchor="middle" x="189.9988" y="-12.153" font-family="Times,serif" font-size="9.00" fill="#000000">2</text>
</g>
<!-- E5&#45;&gt;2 -->
<g id="edge16" class="edge">
<title>E5&#45;&gt;2</title>
<path fill="none" stroke="#00ff00" stroke-width=".3085" d="M222.4625,-149.6488C213.3587,-141.4771 200.782,-128.3264 194.9988,-113.7893 185.4605,-89.8134 185.3851,-59.9578 186.9569,-39.3498"/>
<polygon fill="#00ff00" stroke="#00ff00" stroke-width=".3085" points="190.4575,-39.5086 187.9186,-29.2225 183.4888,-38.8468 190.4575,-39.5086"/>
</g>
<!-- E5&#45;&gt;S -->
<g id="edge17" class="edge">
<title>E5&#45;&gt;S</title>
<path fill="none" stroke="#ff0000" stroke-width=".7125" d="M246.0379,-151.4377C263.5712,-141.9206 293.2236,-124.6485 298.9988,-113.7893 309.0333,-94.9214 305.0648,-86.1974 298.9988,-65.7061 295.6379,-54.3529 288.858,-43.1574 282.3131,-34.1735"/>
<polygon fill="#ff0000" stroke="#ff0000" stroke-width=".7125" points="284.8737,-31.7637 275.9819,-26.0029 279.3404,-36.0513 284.8737,-31.7637"/>
</g>
<!-- E7 -->
<g id="node8" class="node">
<title>E7</title>
<polygon fill="#d3d3d3" stroke="#000000" points="333.9963,-166.7893 308.0012,-166.7893 308.0012,-149.7893 333.9963,-149.7893 333.9963,-166.7893"/>
<text text-anchor="middle" x="320.9988" y="-155.5893" font-family="Times,serif" font-size="9.00" fill="#000000">E7</text>
</g>
<!-- E6&#45;&gt;E7 -->
<!-- E8 -->
<g id="node9" class="node">
<title>E8</title>
<polygon fill="#d3d3d3" stroke="#000000" points="377.9963,-166.7893 352.0012,-166.7893 352.0012,-149.7893 377.9963,-149.7893 377.9963,-166.7893"/>
<text text-anchor="middle" x="364.9988" y="-155.5893" font-family="Times,serif" font-size="9.00" fill="#000000">E8</text>
</g>
<!-- E7&#45;&gt;E8 -->
<!-- E7&#45;&gt;2 -->
<g id="edge14" class="edge">
<title>E7&#45;&gt;2</title>
<path fill="none" stroke="#ff0000" stroke-width=".6528" d="M313.1964,-149.7463C292.4655,-127.0473 235.6417,-64.829 206.9904,-33.4577"/>
<polygon fill="#ff0000" stroke="#ff0000" stroke-width=".6528" points="209.3583,-30.8604 200.0302,-25.8368 204.1895,-35.581 209.3583,-30.8604"/>
</g>
<!-- 0 -->
<g id="node10" class="node">
<title>0</title>
<ellipse fill="#87cefa" stroke="#000000" cx="93.9988" cy="-14.853" rx="14.4914" ry="14.4914"/>
<text text-anchor="middle" x="93.9988" y="-12.153" font-family="Times,serif" font-size="9.00" fill="#000000">0</text>
</g>
<!-- E8&#45;&gt;0 -->
<g id="edge12" class="edge">
<title>E8&#45;&gt;0</title>
<path fill="none" stroke="#ff0000" stroke-width=".5234" d="M351.9606,-151.9292C314.8794,-133.7498 205.8296,-79.6547 117.9988,-29.7061 117.1788,-29.2398 116.3465,-28.7596 115.5083,-28.2703"/>
<polygon fill="#ff0000" stroke="#ff0000" stroke-width=".5234" points="116.9681,-25.0634 106.5979,-22.8934 113.3514,-31.0567 116.9681,-25.0634"/>
</g>
<!-- 0&#45;&gt;1 -->
<!-- 1&#45;&gt;2 -->
<!-- 2&#45;&gt;S -->
<!-- 5396&#45;&gt;1 -->
<g id="edge20" class="edge">
<title>5396&#45;&gt;1</title>
<path fill="none" stroke="#00ff00" stroke-width=".4995" d="M125.8391,-66.4611C128.4139,-57.6959 131.3452,-47.7168 133.9395,-38.8849"/>
<polygon fill="#00ff00" stroke="#00ff00" stroke-width=".4995" points="137.3283,-39.7666 136.7887,-29.1855 130.6121,-37.7937 137.3283,-39.7666"/>
</g>
</g>
</svg>
