<?xml version="1.0" encoding="utf-8" standalone="no"?>
<!DOCTYPE svg PUBLIC "-//W3C//DTD SVG 1.1//EN"
  "http://www.w3.org/Graphics/SVG/1.1/DTD/svg11.dtd">
<!-- Created with matplotlib (https://matplotlib.org/) -->
<svg height="345.6pt" version="1.1" viewBox="0 0 460.8 345.6" width="460.8pt" xmlns="http://www.w3.org/2000/svg" xmlns:xlink="http://www.w3.org/1999/xlink">
 <defs>
  <style type="text/css">
*{stroke-linecap:butt;stroke-linejoin:round;}
  </style>
 </defs>
 <g id="figure_1">
  <g id="patch_1">
   <path d="M 0 345.6 
L 460.8 345.6 
L 460.8 0 
L 0 0 
z
" style="fill:#ffffff;"/>
  </g>
  <g id="axes_1">
   <g id="patch_2">
    <path d="M 57.6 307.584 
L 414.72 307.584 
L 414.72 41.472 
L 57.6 41.472 
z
" style="fill:#ffffff;"/>
   </g>
   <g id="matplotlib.axis_1">
    <g id="xtick_1">
     <g id="line2d_1">
      <path clip-path="url(#p35fe4fe3b9)" d="M 73.832727 307.584 
L 73.832727 41.472 
" style="fill:none;stroke:#b0b0b0;stroke-linecap:square;stroke-width:0.8;"/>
     </g>
     <g id="line2d_2">
      <defs>
       <path d="M 0 0 
L 0 3.5 
" id="m5b3db45ba3" style="stroke:#000000;stroke-width:0.8;"/>
      </defs>
      <g>
       <use style="stroke:#000000;stroke-width:0.8;" x="73.832727" xlink:href="#m5b3db45ba3" y="307.584"/>
      </g>
     </g>
     <g id="text_1">
      <!-- 0 -->
      <defs>
       <path d="M 31.78125 66.40625 
Q 24.171875 66.40625 20.328125 58.90625 
Q 16.5 51.421875 16.5 36.375 
Q 16.5 21.390625 20.328125 13.890625 
Q 24.171875 6.390625 31.78125 6.390625 
Q 39.453125 6.390625 43.28125 13.890625 
Q 47.125 21.390625 47.125 36.375 
Q 47.125 51.421875 43.28125 58.90625 
Q 39.453125 66.40625 31.78125 66.40625 
z
M 31.78125 74.21875 
Q 44.046875 74.21875 50.515625 64.515625 
Q 56.984375 54.828125 56.984375 36.375 
Q 56.984375 17.96875 50.515625 8.265625 
Q 44.046875 -1.421875 31.78125 -1.421875 
Q 19.53125 -1.421875 13.0625 8.265625 
Q 6.59375 17.96875 6.59375 36.375 
Q 6.59375 54.828125 13.0625 64.515625 
Q 19.53125 74.21875 31.78125 74.21875 
z
" id="DejaVuSans-48"/>
      </defs>
      <g transform="translate(70.651477 322.182437)scale(0.1 -0.1)">
       <use xlink:href="#DejaVuSans-48"/>
      </g>
     </g>
    </g>
    <g id="xtick_2">
     <g id="line2d_3">
      <path clip-path="url(#p35fe4fe3b9)" d="M 128.122785 307.584 
L 128.122785 41.472 
" style="fill:none;stroke:#b0b0b0;stroke-linecap:square;stroke-width:0.8;"/>
     </g>
     <g id="line2d_4">
      <g>
       <use style="stroke:#000000;stroke-width:0.8;" x="128.122785" xlink:href="#m5b3db45ba3" y="307.584"/>
      </g>
     </g>
     <g id="text_2">
      <!-- 50 -->
      <defs>
       <path d="M 10.796875 72.90625 
L 49.515625 72.90625 
L 49.515625 64.59375 
L 19.828125 64.59375 
L 19.828125 46.734375 
Q 21.96875 47.46875 24.109375 47.828125 
Q 26.265625 48.1875 28.421875 48.1875 
Q 40.625 48.1875 47.75 41.5 
Q 54.890625 34.8125 54.890625 23.390625 
Q 54.890625 11.625 47.5625 5.09375 
Q 40.234375 -1.421875 26.90625 -1.421875 
Q 22.3125 -1.421875 17.546875 -0.640625 
Q 12.796875 0.140625 7.71875 1.703125 
L 7.71875 11.625 
Q 12.109375 9.234375 16.796875 8.0625 
Q 21.484375 6.890625 26.703125 6.890625 
Q 35.15625 6.890625 40.078125 11.328125 
Q 45.015625 15.765625 45.015625 23.390625 
Q 45.015625 31 40.078125 35.4375 
Q 35.15625 39.890625 26.703125 39.890625 
Q 22.75 39.890625 18.8125 39.015625 
Q 14.890625 38.140625 10.796875 36.28125 
z
" id="DejaVuSans-53"/>
      </defs>
      <g transform="translate(121.760285 322.182437)scale(0.1 -0.1)">
       <use xlink:href="#DejaVuSans-53"/>
       <use x="63.623047" xlink:href="#DejaVuSans-48"/>
      </g>
     </g>
    </g>
    <g id="xtick_3">
     <g id="line2d_5">
      <path clip-path="url(#p35fe4fe3b9)" d="M 182.412843 307.584 
L 182.412843 41.472 
" style="fill:none;stroke:#b0b0b0;stroke-linecap:square;stroke-width:0.8;"/>
     </g>
     <g id="line2d_6">
      <g>
       <use style="stroke:#000000;stroke-width:0.8;" x="182.412843" xlink:href="#m5b3db45ba3" y="307.584"/>
      </g>
     </g>
     <g id="text_3">
      <!-- 100 -->
      <defs>
       <path d="M 12.40625 8.296875 
L 28.515625 8.296875 
L 28.515625 63.921875 
L 10.984375 60.40625 
L 10.984375 69.390625 
L 28.421875 72.90625 
L 38.28125 72.90625 
L 38.28125 8.296875 
L 54.390625 8.296875 
L 54.390625 0 
L 12.40625 0 
z
" id="DejaVuSans-49"/>
      </defs>
      <g transform="translate(172.869093 322.182437)scale(0.1 -0.1)">
       <use xlink:href="#DejaVuSans-49"/>
       <use x="63.623047" xlink:href="#DejaVuSans-48"/>
       <use x="127.246094" xlink:href="#DejaVuSans-48"/>
      </g>
     </g>
    </g>
    <g id="xtick_4">
     <g id="line2d_7">
      <path clip-path="url(#p35fe4fe3b9)" d="M 236.702901 307.584 
L 236.702901 41.472 
" style="fill:none;stroke:#b0b0b0;stroke-linecap:square;stroke-width:0.8;"/>
     </g>
     <g id="line2d_8">
      <g>
       <use style="stroke:#000000;stroke-width:0.8;" x="236.702901" xlink:href="#m5b3db45ba3" y="307.584"/>
      </g>
     </g>
     <g id="text_4">
      <!-- 150 -->
      <g transform="translate(227.159151 322.182437)scale(0.1 -0.1)">
       <use xlink:href="#DejaVuSans-49"/>
       <use x="63.623047" xlink:href="#DejaVuSans-53"/>
       <use x="127.246094" xlink:href="#DejaVuSans-48"/>
      </g>
     </g>
    </g>
    <g id="xtick_5">
     <g id="line2d_9">
      <path clip-path="url(#p35fe4fe3b9)" d="M 290.992958 307.584 
L 290.992958 41.472 
" style="fill:none;stroke:#b0b0b0;stroke-linecap:square;stroke-width:0.8;"/>
     </g>
     <g id="line2d_10">
      <g>
       <use style="stroke:#000000;stroke-width:0.8;" x="290.992958" xlink:href="#m5b3db45ba3" y="307.584"/>
      </g>
     </g>
     <g id="text_5">
      <!-- 200 -->
      <defs>
       <path d="M 19.1875 8.296875 
L 53.609375 8.296875 
L 53.609375 0 
L 7.328125 0 
L 7.328125 8.296875 
Q 12.9375 14.109375 22.625 23.890625 
Q 32.328125 33.6875 34.8125 36.53125 
Q 39.546875 41.84375 41.421875 45.53125 
Q 43.3125 49.21875 43.3125 52.78125 
Q 43.3125 58.59375 39.234375 62.25 
Q 35.15625 65.921875 28.609375 65.921875 
Q 23.96875 65.921875 18.8125 64.3125 
Q 13.671875 62.703125 7.8125 59.421875 
L 7.8125 69.390625 
Q 13.765625 71.78125 18.9375 73 
Q 24.125 74.21875 28.421875 74.21875 
Q 39.75 74.21875 46.484375 68.546875 
Q 53.21875 62.890625 53.21875 53.421875 
Q 53.21875 48.921875 51.53125 44.890625 
Q 49.859375 40.875 45.40625 35.40625 
Q 44.1875 33.984375 37.640625 27.21875 
Q 31.109375 20.453125 19.1875 8.296875 
z
" id="DejaVuSans-50"/>
      </defs>
      <g transform="translate(281.449208 322.182437)scale(0.1 -0.1)">
       <use xlink:href="#DejaVuSans-50"/>
       <use x="63.623047" xlink:href="#DejaVuSans-48"/>
       <use x="127.246094" xlink:href="#DejaVuSans-48"/>
      </g>
     </g>
    </g>
    <g id="xtick_6">
     <g id="line2d_11">
      <path clip-path="url(#p35fe4fe3b9)" d="M 345.283016 307.584 
L 345.283016 41.472 
" style="fill:none;stroke:#b0b0b0;stroke-linecap:square;stroke-width:0.8;"/>
     </g>
     <g id="line2d_12">
      <g>
       <use style="stroke:#000000;stroke-width:0.8;" x="345.283016" xlink:href="#m5b3db45ba3" y="307.584"/>
      </g>
     </g>
     <g id="text_6">
      <!-- 250 -->
      <g transform="translate(335.739266 322.182437)scale(0.1 -0.1)">
       <use xlink:href="#DejaVuSans-50"/>
       <use x="63.623047" xlink:href="#DejaVuSans-53"/>
       <use x="127.246094" xlink:href="#DejaVuSans-48"/>
      </g>
     </g>
    </g>
    <g id="xtick_7">
     <g id="line2d_13">
      <path clip-path="url(#p35fe4fe3b9)" d="M 399.573074 307.584 
L 399.573074 41.472 
" style="fill:none;stroke:#b0b0b0;stroke-linecap:square;stroke-width:0.8;"/>
     </g>
     <g id="line2d_14">
      <g>
       <use style="stroke:#000000;stroke-width:0.8;" x="399.573074" xlink:href="#m5b3db45ba3" y="307.584"/>
      </g>
     </g>
     <g id="text_7">
      <!-- 300 -->
      <defs>
       <path d="M 40.578125 39.3125 
Q 47.65625 37.796875 51.625 33 
Q 55.609375 28.21875 55.609375 21.1875 
Q 55.609375 10.40625 48.1875 4.484375 
Q 40.765625 -1.421875 27.09375 -1.421875 
Q 22.515625 -1.421875 17.65625 -0.515625 
Q 12.796875 0.390625 7.625 2.203125 
L 7.625 11.71875 
Q 11.71875 9.328125 16.59375 8.109375 
Q 21.484375 6.890625 26.8125 6.890625 
Q 36.078125 6.890625 40.9375 10.546875 
Q 45.796875 14.203125 45.796875 21.1875 
Q 45.796875 27.640625 41.28125 31.265625 
Q 36.765625 34.90625 28.71875 34.90625 
L 20.21875 34.90625 
L 20.21875 43.015625 
L 29.109375 43.015625 
Q 36.375 43.015625 40.234375 45.921875 
Q 44.09375 48.828125 44.09375 54.296875 
Q 44.09375 59.90625 40.109375 62.90625 
Q 36.140625 65.921875 28.71875 65.921875 
Q 24.65625 65.921875 20.015625 65.03125 
Q 15.375 64.15625 9.8125 62.3125 
L 9.8125 71.09375 
Q 15.4375 72.65625 20.34375 73.4375 
Q 25.25 74.21875 29.59375 74.21875 
Q 40.828125 74.21875 47.359375 69.109375 
Q 53.90625 64.015625 53.90625 55.328125 
Q 53.90625 49.265625 50.4375 45.09375 
Q 46.96875 40.921875 40.578125 39.3125 
z
" id="DejaVuSans-51"/>
      </defs>
      <g transform="translate(390.029324 322.182437)scale(0.1 -0.1)">
       <use xlink:href="#DejaVuSans-51"/>
       <use x="63.623047" xlink:href="#DejaVuSans-48"/>
       <use x="127.246094" xlink:href="#DejaVuSans-48"/>
      </g>
     </g>
    </g>
    <g id="text_8">
     <!-- Generations -->
     <defs>
      <path d="M 59.515625 10.40625 
L 59.515625 29.984375 
L 43.40625 29.984375 
L 43.40625 38.09375 
L 69.28125 38.09375 
L 69.28125 6.78125 
Q 63.578125 2.734375 56.6875 0.65625 
Q 49.8125 -1.421875 42 -1.421875 
Q 24.90625 -1.421875 15.25 8.5625 
Q 5.609375 18.5625 5.609375 36.375 
Q 5.609375 54.25 15.25 64.234375 
Q 24.90625 74.21875 42 74.21875 
Q 49.125 74.21875 55.546875 72.453125 
Q 61.96875 70.703125 67.390625 67.28125 
L 67.390625 56.78125 
Q 61.921875 61.421875 55.765625 63.765625 
Q 49.609375 66.109375 42.828125 66.109375 
Q 29.4375 66.109375 22.71875 58.640625 
Q 16.015625 51.171875 16.015625 36.375 
Q 16.015625 21.625 22.71875 14.15625 
Q 29.4375 6.6875 42.828125 6.6875 
Q 48.046875 6.6875 52.140625 7.59375 
Q 56.25 8.5 59.515625 10.40625 
z
" id="DejaVuSans-71"/>
      <path d="M 56.203125 29.59375 
L 56.203125 25.203125 
L 14.890625 25.203125 
Q 15.484375 15.921875 20.484375 11.0625 
Q 25.484375 6.203125 34.421875 6.203125 
Q 39.59375 6.203125 44.453125 7.46875 
Q 49.3125 8.734375 54.109375 11.28125 
L 54.109375 2.78125 
Q 49.265625 0.734375 44.1875 -0.34375 
Q 39.109375 -1.421875 33.890625 -1.421875 
Q 20.796875 -1.421875 13.15625 6.1875 
Q 5.515625 13.8125 5.515625 26.8125 
Q 5.515625 40.234375 12.765625 48.109375 
Q 20.015625 56 32.328125 56 
Q 43.359375 56 49.78125 48.890625 
Q 56.203125 41.796875 56.203125 29.59375 
z
M 47.21875 32.234375 
Q 47.125 39.59375 43.09375 43.984375 
Q 39.0625 48.390625 32.421875 48.390625 
Q 24.90625 48.390625 20.390625 44.140625 
Q 15.875 39.890625 15.1875 32.171875 
z
" id="DejaVuSans-101"/>
      <path d="M 54.890625 33.015625 
L 54.890625 0 
L 45.90625 0 
L 45.90625 32.71875 
Q 45.90625 40.484375 42.875 44.328125 
Q 39.84375 48.1875 33.796875 48.1875 
Q 26.515625 48.1875 22.3125 43.546875 
Q 18.109375 38.921875 18.109375 30.90625 
L 18.109375 0 
L 9.078125 0 
L 9.078125 54.6875 
L 18.109375 54.6875 
L 18.109375 46.1875 
Q 21.34375 51.125 25.703125 53.5625 
Q 30.078125 56 35.796875 56 
Q 45.21875 56 50.046875 50.171875 
Q 54.890625 44.34375 54.890625 33.015625 
z
" id="DejaVuSans-110"/>
      <path d="M 41.109375 46.296875 
Q 39.59375 47.171875 37.8125 47.578125 
Q 36.03125 48 33.890625 48 
Q 26.265625 48 22.1875 43.046875 
Q 18.109375 38.09375 18.109375 28.8125 
L 18.109375 0 
L 9.078125 0 
L 9.078125 54.6875 
L 18.109375 54.6875 
L 18.109375 46.1875 
Q 20.953125 51.171875 25.484375 53.578125 
Q 30.03125 56 36.53125 56 
Q 37.453125 56 38.578125 55.875 
Q 39.703125 55.765625 41.0625 55.515625 
z
" id="DejaVuSans-114"/>
      <path d="M 34.28125 27.484375 
Q 23.390625 27.484375 19.1875 25 
Q 14.984375 22.515625 14.984375 16.5 
Q 14.984375 11.71875 18.140625 8.90625 
Q 21.296875 6.109375 26.703125 6.109375 
Q 34.1875 6.109375 38.703125 11.40625 
Q 43.21875 16.703125 43.21875 25.484375 
L 43.21875 27.484375 
z
M 52.203125 31.203125 
L 52.203125 0 
L 43.21875 0 
L 43.21875 8.296875 
Q 40.140625 3.328125 35.546875 0.953125 
Q 30.953125 -1.421875 24.3125 -1.421875 
Q 15.921875 -1.421875 10.953125 3.296875 
Q 6 8.015625 6 15.921875 
Q 6 25.140625 12.171875 29.828125 
Q 18.359375 34.515625 30.609375 34.515625 
L 43.21875 34.515625 
L 43.21875 35.40625 
Q 43.21875 41.609375 39.140625 45 
Q 35.0625 48.390625 27.6875 48.390625 
Q 23 48.390625 18.546875 47.265625 
Q 14.109375 46.140625 10.015625 43.890625 
L 10.015625 52.203125 
Q 14.9375 54.109375 19.578125 55.046875 
Q 24.21875 56 28.609375 56 
Q 40.484375 56 46.34375 49.84375 
Q 52.203125 43.703125 52.203125 31.203125 
z
" id="DejaVuSans-97"/>
      <path d="M 18.3125 70.21875 
L 18.3125 54.6875 
L 36.8125 54.6875 
L 36.8125 47.703125 
L 18.3125 47.703125 
L 18.3125 18.015625 
Q 18.3125 11.328125 20.140625 9.421875 
Q 21.96875 7.515625 27.59375 7.515625 
L 36.8125 7.515625 
L 36.8125 0 
L 27.59375 0 
Q 17.1875 0 13.234375 3.875 
Q 9.28125 7.765625 9.28125 18.015625 
L 9.28125 47.703125 
L 2.6875 47.703125 
L 2.6875 54.6875 
L 9.28125 54.6875 
L 9.28125 70.21875 
z
" id="DejaVuSans-116"/>
      <path d="M 9.421875 54.6875 
L 18.40625 54.6875 
L 18.40625 0 
L 9.421875 0 
z
M 9.421875 75.984375 
L 18.40625 75.984375 
L 18.40625 64.59375 
L 9.421875 64.59375 
z
" id="DejaVuSans-105"/>
      <path d="M 30.609375 48.390625 
Q 23.390625 48.390625 19.1875 42.75 
Q 14.984375 37.109375 14.984375 27.296875 
Q 14.984375 17.484375 19.15625 11.84375 
Q 23.34375 6.203125 30.609375 6.203125 
Q 37.796875 6.203125 41.984375 11.859375 
Q 46.1875 17.53125 46.1875 27.296875 
Q 46.1875 37.015625 41.984375 42.703125 
Q 37.796875 48.390625 30.609375 48.390625 
z
M 30.609375 56 
Q 42.328125 56 49.015625 48.375 
Q 55.71875 40.765625 55.71875 27.296875 
Q 55.71875 13.875 49.015625 6.21875 
Q 42.328125 -1.421875 30.609375 -1.421875 
Q 18.84375 -1.421875 12.171875 6.21875 
Q 5.515625 13.875 5.515625 27.296875 
Q 5.515625 40.765625 12.171875 48.375 
Q 18.84375 56 30.609375 56 
z
" id="DejaVuSans-111"/>
      <path d="M 44.28125 53.078125 
L 44.28125 44.578125 
Q 40.484375 46.53125 36.375 47.5 
Q 32.28125 48.484375 27.875 48.484375 
Q 21.1875 48.484375 17.84375 46.4375 
Q 14.5 44.390625 14.5 40.28125 
Q 14.5 37.15625 16.890625 35.375 
Q 19.28125 33.59375 26.515625 31.984375 
L 29.59375 31.296875 
Q 39.15625 29.25 43.1875 25.515625 
Q 47.21875 21.78125 47.21875 15.09375 
Q 47.21875 7.46875 41.1875 3.015625 
Q 35.15625 -1.421875 24.609375 -1.421875 
Q 20.21875 -1.421875 15.453125 -0.5625 
Q 10.6875 0.296875 5.421875 2 
L 5.421875 11.28125 
Q 10.40625 8.6875 15.234375 7.390625 
Q 20.0625 6.109375 24.8125 6.109375 
Q 31.15625 6.109375 34.5625 8.28125 
Q 37.984375 10.453125 37.984375 14.40625 
Q 37.984375 18.0625 35.515625 20.015625 
Q 33.0625 21.96875 24.703125 23.78125 
L 21.578125 24.515625 
Q 13.234375 26.265625 9.515625 29.90625 
Q 5.8125 33.546875 5.8125 39.890625 
Q 5.8125 47.609375 11.28125 51.796875 
Q 16.75 56 26.8125 56 
Q 31.78125 56 36.171875 55.265625 
Q 40.578125 54.546875 44.28125 53.078125 
z
" id="DejaVuSans-115"/>
     </defs>
     <g transform="translate(205.662344 335.860562)scale(0.1 -0.1)">
      <use xlink:href="#DejaVuSans-71"/>
      <use x="77.490234" xlink:href="#DejaVuSans-101"/>
      <use x="139.013672" xlink:href="#DejaVuSans-110"/>
      <use x="202.392578" xlink:href="#DejaVuSans-101"/>
      <use x="263.916016" xlink:href="#DejaVuSans-114"/>
      <use x="305.029297" xlink:href="#DejaVuSans-97"/>
      <use x="366.308594" xlink:href="#DejaVuSans-116"/>
      <use x="405.517578" xlink:href="#DejaVuSans-105"/>
      <use x="433.300781" xlink:href="#DejaVuSans-111"/>
      <use x="494.482422" xlink:href="#DejaVuSans-110"/>
      <use x="557.861328" xlink:href="#DejaVuSans-115"/>
     </g>
    </g>
   </g>
   <g id="matplotlib.axis_2">
    <g id="ytick_1">
     <g id="line2d_15">
      <path clip-path="url(#p35fe4fe3b9)" d="M 57.6 300.436033 
L 414.72 300.436033 
" style="fill:none;stroke:#b0b0b0;stroke-linecap:square;stroke-width:0.8;"/>
     </g>
     <g id="line2d_16">
      <defs>
       <path d="M 0 0 
L -3.5 0 
" id="md7bd6d1d9e" style="stroke:#000000;stroke-width:0.8;"/>
      </defs>
      <g>
       <use style="stroke:#000000;stroke-width:0.8;" x="57.6" xlink:href="#md7bd6d1d9e" y="300.436033"/>
      </g>
     </g>
     <g id="text_9">
      <!-- 500 -->
      <g transform="translate(31.5125 304.235252)scale(0.1 -0.1)">
       <use xlink:href="#DejaVuSans-53"/>
       <use x="63.623047" xlink:href="#DejaVuSans-48"/>
       <use x="127.246094" xlink:href="#DejaVuSans-48"/>
      </g>
     </g>
    </g>
    <g id="ytick_2">
     <g id="line2d_17">
      <path clip-path="url(#p35fe4fe3b9)" d="M 57.6 270.45437 
L 414.72 270.45437 
" style="fill:none;stroke:#b0b0b0;stroke-linecap:square;stroke-width:0.8;"/>
     </g>
     <g id="line2d_18">
      <g>
       <use style="stroke:#000000;stroke-width:0.8;" x="57.6" xlink:href="#md7bd6d1d9e" y="270.45437"/>
      </g>
     </g>
     <g id="text_10">
      <!-- 750 -->
      <defs>
       <path d="M 8.203125 72.90625 
L 55.078125 72.90625 
L 55.078125 68.703125 
L 28.609375 0 
L 18.3125 0 
L 43.21875 64.59375 
L 8.203125 64.59375 
z
" id="DejaVuSans-55"/>
      </defs>
      <g transform="translate(31.5125 274.253588)scale(0.1 -0.1)">
       <use xlink:href="#DejaVuSans-55"/>
       <use x="63.623047" xlink:href="#DejaVuSans-53"/>
       <use x="127.246094" xlink:href="#DejaVuSans-48"/>
      </g>
     </g>
    </g>
    <g id="ytick_3">
     <g id="line2d_19">
      <path clip-path="url(#p35fe4fe3b9)" d="M 57.6 240.472706 
L 414.72 240.472706 
" style="fill:none;stroke:#b0b0b0;stroke-linecap:square;stroke-width:0.8;"/>
     </g>
     <g id="line2d_20">
      <g>
       <use style="stroke:#000000;stroke-width:0.8;" x="57.6" xlink:href="#md7bd6d1d9e" y="240.472706"/>
      </g>
     </g>
     <g id="text_11">
      <!-- 1000 -->
      <g transform="translate(25.15 244.271925)scale(0.1 -0.1)">
       <use xlink:href="#DejaVuSans-49"/>
       <use x="63.623047" xlink:href="#DejaVuSans-48"/>
       <use x="127.246094" xlink:href="#DejaVuSans-48"/>
       <use x="190.869141" xlink:href="#DejaVuSans-48"/>
      </g>
     </g>
    </g>
    <g id="ytick_4">
     <g id="line2d_21">
      <path clip-path="url(#p35fe4fe3b9)" d="M 57.6 210.491042 
L 414.72 210.491042 
" style="fill:none;stroke:#b0b0b0;stroke-linecap:square;stroke-width:0.8;"/>
     </g>
     <g id="line2d_22">
      <g>
       <use style="stroke:#000000;stroke-width:0.8;" x="57.6" xlink:href="#md7bd6d1d9e" y="210.491042"/>
      </g>
     </g>
     <g id="text_12">
      <!-- 1250 -->
      <g transform="translate(25.15 214.290261)scale(0.1 -0.1)">
       <use xlink:href="#DejaVuSans-49"/>
       <use x="63.623047" xlink:href="#DejaVuSans-50"/>
       <use x="127.246094" xlink:href="#DejaVuSans-53"/>
       <use x="190.869141" xlink:href="#DejaVuSans-48"/>
      </g>
     </g>
    </g>
    <g id="ytick_5">
     <g id="line2d_23">
      <path clip-path="url(#p35fe4fe3b9)" d="M 57.6 180.509378 
L 414.72 180.509378 
" style="fill:none;stroke:#b0b0b0;stroke-linecap:square;stroke-width:0.8;"/>
     </g>
     <g id="line2d_24">
      <g>
       <use style="stroke:#000000;stroke-width:0.8;" x="57.6" xlink:href="#md7bd6d1d9e" y="180.509378"/>
      </g>
     </g>
     <g id="text_13">
      <!-- 1500 -->
      <g transform="translate(25.15 184.308597)scale(0.1 -0.1)">
       <use xlink:href="#DejaVuSans-49"/>
       <use x="63.623047" xlink:href="#DejaVuSans-53"/>
       <use x="127.246094" xlink:href="#DejaVuSans-48"/>
       <use x="190.869141" xlink:href="#DejaVuSans-48"/>
      </g>
     </g>
    </g>
    <g id="ytick_6">
     <g id="line2d_25">
      <path clip-path="url(#p35fe4fe3b9)" d="M 57.6 150.527715 
L 414.72 150.527715 
" style="fill:none;stroke:#b0b0b0;stroke-linecap:square;stroke-width:0.8;"/>
     </g>
     <g id="line2d_26">
      <g>
       <use style="stroke:#000000;stroke-width:0.8;" x="57.6" xlink:href="#md7bd6d1d9e" y="150.527715"/>
      </g>
     </g>
     <g id="text_14">
      <!-- 1750 -->
      <g transform="translate(25.15 154.326933)scale(0.1 -0.1)">
       <use xlink:href="#DejaVuSans-49"/>
       <use x="63.623047" xlink:href="#DejaVuSans-55"/>
       <use x="127.246094" xlink:href="#DejaVuSans-53"/>
       <use x="190.869141" xlink:href="#DejaVuSans-48"/>
      </g>
     </g>
    </g>
    <g id="ytick_7">
     <g id="line2d_27">
      <path clip-path="url(#p35fe4fe3b9)" d="M 57.6 120.546051 
L 414.72 120.546051 
" style="fill:none;stroke:#b0b0b0;stroke-linecap:square;stroke-width:0.8;"/>
     </g>
     <g id="line2d_28">
      <g>
       <use style="stroke:#000000;stroke-width:0.8;" x="57.6" xlink:href="#md7bd6d1d9e" y="120.546051"/>
      </g>
     </g>
     <g id="text_15">
      <!-- 2000 -->
      <g transform="translate(25.15 124.34527)scale(0.1 -0.1)">
       <use xlink:href="#DejaVuSans-50"/>
       <use x="63.623047" xlink:href="#DejaVuSans-48"/>
       <use x="127.246094" xlink:href="#DejaVuSans-48"/>
       <use x="190.869141" xlink:href="#DejaVuSans-48"/>
      </g>
     </g>
    </g>
    <g id="ytick_8">
     <g id="line2d_29">
      <path clip-path="url(#p35fe4fe3b9)" d="M 57.6 90.564387 
L 414.72 90.564387 
" style="fill:none;stroke:#b0b0b0;stroke-linecap:square;stroke-width:0.8;"/>
     </g>
     <g id="line2d_30">
      <g>
       <use style="stroke:#000000;stroke-width:0.8;" x="57.6" xlink:href="#md7bd6d1d9e" y="90.564387"/>
      </g>
     </g>
     <g id="text_16">
      <!-- 2250 -->
      <g transform="translate(25.15 94.363606)scale(0.1 -0.1)">
       <use xlink:href="#DejaVuSans-50"/>
       <use x="63.623047" xlink:href="#DejaVuSans-50"/>
       <use x="127.246094" xlink:href="#DejaVuSans-53"/>
       <use x="190.869141" xlink:href="#DejaVuSans-48"/>
      </g>
     </g>
    </g>
    <g id="ytick_9">
     <g id="line2d_31">
      <path clip-path="url(#p35fe4fe3b9)" d="M 57.6 60.582724 
L 414.72 60.582724 
" style="fill:none;stroke:#b0b0b0;stroke-linecap:square;stroke-width:0.8;"/>
     </g>
     <g id="line2d_32">
      <g>
       <use style="stroke:#000000;stroke-width:0.8;" x="57.6" xlink:href="#md7bd6d1d9e" y="60.582724"/>
      </g>
     </g>
     <g id="text_17">
      <!-- 2500 -->
      <g transform="translate(25.15 64.381942)scale(0.1 -0.1)">
       <use xlink:href="#DejaVuSans-50"/>
       <use x="63.623047" xlink:href="#DejaVuSans-53"/>
       <use x="127.246094" xlink:href="#DejaVuSans-48"/>
       <use x="190.869141" xlink:href="#DejaVuSans-48"/>
      </g>
     </g>
    </g>
    <g id="text_18">
     <!-- Fitness -->
     <defs>
      <path d="M 9.8125 72.90625 
L 51.703125 72.90625 
L 51.703125 64.59375 
L 19.671875 64.59375 
L 19.671875 43.109375 
L 48.578125 43.109375 
L 48.578125 34.8125 
L 19.671875 34.8125 
L 19.671875 0 
L 9.8125 0 
z
" id="DejaVuSans-70"/>
     </defs>
     <g transform="translate(19.070312 192.202219)rotate(-90)scale(0.1 -0.1)">
      <use xlink:href="#DejaVuSans-70"/>
      <use x="57.410156" xlink:href="#DejaVuSans-105"/>
      <use x="85.193359" xlink:href="#DejaVuSans-116"/>
      <use x="124.402344" xlink:href="#DejaVuSans-110"/>
      <use x="187.78125" xlink:href="#DejaVuSans-101"/>
      <use x="249.304688" xlink:href="#DejaVuSans-115"/>
      <use x="301.404297" xlink:href="#DejaVuSans-115"/>
     </g>
    </g>
   </g>
   <g id="line2d_33">
    <path clip-path="url(#p35fe4fe3b9)" d="M 73.832727 257.206611 
L 74.918528 222.564669 
L 76.00433 213.145524 
L 77.090131 221.213891 
L 78.175932 214.438251 
L 79.261733 199.205876 
L 80.347534 197.231628 
L 81.433335 187.092876 
L 82.519137 189.415307 
L 83.604938 180.842659 
L 84.690739 190.623672 
L 85.77654 177.868269 
L 86.862341 171.035608 
L 87.948142 173.813121 
L 89.033943 173.695522 
L 90.119745 170.211898 
L 91.205546 179.691631 
L 92.291347 178.001968 
L 93.377148 165.131471 
L 94.462949 159.553325 
L 95.54875 180.262346 
L 96.634552 185.540137 
L 97.720353 167.072961 
L 98.806154 166.096038 
L 99.891955 186.058305 
L 100.977756 185.441553 
L 102.063557 170.351815 
L 103.149358 170.539782 
L 104.23516 178.387146 
L 105.320961 156.056427 
L 106.406762 172.591684 
L 107.492563 154.287102 
L 108.578364 164.35766 
L 109.664165 166.646981 
L 110.749967 144.650442 
L 111.835768 146.00096 
L 112.921569 148.562038 
L 114.00737 148.35473 
L 115.093171 151.353498 
L 116.178972 132.906966 
L 117.264773 138.099901 
L 118.350575 138.083802 
L 119.436376 139.923422 
L 120.522177 134.250083 
L 121.607978 140.911055 
L 122.693779 153.721176 
L 123.77958 133.82546 
L 124.865382 126.816465 
L 125.951183 130.626106 
L 127.036984 135.247548 
L 128.122785 122.082267 
L 129.208586 131.381167 
L 130.294387 134.445255 
L 131.380189 117.74355 
L 132.46599 134.485057 
L 133.551791 126.376884 
L 134.637592 128.148168 
L 135.723393 135.595585 
L 136.809194 126.194226 
L 137.894995 124.157218 
L 138.980797 112.121127 
L 140.066598 107.656613 
L 141.152399 122.973148 
L 142.2382 121.104441 
L 143.324001 121.517635 
L 144.409802 122.228173 
L 145.495604 116.10499 
L 146.581405 111.043764 
L 147.667206 107.791763 
L 148.753007 115.027456 
L 149.838808 111.401673 
L 150.924609 114.616985 
L 153.096212 128.072392 
L 154.182013 118.846458 
L 155.267814 116.476348 
L 156.353615 125.850189 
L 157.439416 112.238217 
L 158.525217 121.034485 
L 159.611019 114.540165 
L 160.69682 114.787258 
L 161.782621 126.247643 
L 162.868422 124.960438 
L 163.954223 131.268477 
L 165.040024 134.854378 
L 166.125825 116.353013 
L 167.211627 126.280276 
L 168.297428 146.457469 
L 169.383229 130.555193 
L 171.554831 118.063936 
L 172.640632 117.635947 
L 173.726434 110.976898 
L 175.898036 106.926062 
L 178.069638 125.405959 
L 179.155439 119.32357 
L 180.24124 129.990602 
L 181.327042 107.615488 
L 182.412843 115.685979 
L 183.498644 125.986668 
L 184.584445 110.751945 
L 185.670246 109.665882 
L 186.756047 109.46522 
L 187.841849 115.655606 
L 188.92765 121.148993 
L 190.013451 108.345389 
L 191.099252 105.491961 
L 192.185053 117.049273 
L 193.270854 107.127008 
L 194.356656 108.004418 
L 195.442457 120.794037 
L 196.528258 124.374285 
L 197.614059 131.729962 
L 198.69986 114.100712 
L 199.785661 124.120931 
L 200.871462 131.712465 
L 201.957264 119.378676 
L 203.043065 131.956779 
L 204.128866 147.11502 
L 205.214667 135.59867 
L 206.300468 116.18821 
L 207.386269 111.808021 
L 208.472071 108.599766 
L 209.557872 106.490475 
L 210.643673 120.008467 
L 211.729474 110.580996 
L 212.815275 127.623381 
L 213.901076 115.179674 
L 214.986877 118.484585 
L 216.072679 113.548295 
L 217.15848 113.067277 
L 218.244281 125.817442 
L 219.330082 117.37106 
L 220.415883 120.017844 
L 221.501684 110.535926 
L 222.587486 130.05794 
L 223.673287 132.214463 
L 224.759088 111.155023 
L 225.844889 99.135794 
L 226.93069 115.296606 
L 228.016491 120.203511 
L 229.102292 120.846108 
L 230.188094 125.516752 
L 231.273895 118.255793 
L 232.359696 125.833725 
L 234.531298 114.643044 
L 235.617099 105.332705 
L 236.702901 153.284119 
L 237.788702 135.980677 
L 238.874503 155.393194 
L 239.960304 137.068049 
L 241.046105 142.521595 
L 242.131906 156.805965 
L 243.217708 132.57033 
L 244.303509 144.985105 
L 245.38931 121.031779 
L 246.475111 133.414438 
L 247.560912 132.671141 
L 248.646713 130.537513 
L 249.732514 125.655258 
L 250.818316 141.405532 
L 251.904117 154.105072 
L 252.989918 146.771065 
L 254.075719 120.258628 
L 255.16152 131.76951 
L 256.247321 118.905765 
L 258.418924 135.657661 
L 259.504725 128.526711 
L 260.590526 120.225045 
L 261.676327 118.5844 
L 262.762128 119.976735 
L 263.847929 122.085243 
L 264.933731 123.795239 
L 266.019532 131.606363 
L 267.105333 123.959407 
L 268.191134 132.977012 
L 269.276935 129.992189 
L 270.362736 124.447359 
L 271.448538 121.448323 
L 272.534339 128.841717 
L 273.62014 128.039417 
L 274.705941 129.530734 
L 275.791742 116.449494 
L 276.877543 126.59956 
L 279.049146 118.23161 
L 280.134947 122.247984 
L 281.220748 136.974622 
L 283.39235 128.328416 
L 284.478151 130.000631 
L 285.563953 112.651191 
L 286.649754 130.651963 
L 287.735555 124.874828 
L 288.821356 127.707286 
L 289.907157 124.36292 
L 290.992958 119.499893 
L 292.07876 122.412891 
L 293.164561 116.102774 
L 294.250362 116.316086 
L 295.336163 115.877859 
L 296.421964 118.14381 
L 297.507765 149.164337 
L 298.593566 125.34481 
L 299.679368 131.489565 
L 300.765169 126.253314 
L 301.85097 123.927341 
L 302.936771 125.853481 
L 304.022572 113.215249 
L 305.108373 117.100669 
L 307.279976 112.598608 
L 308.365777 128.781046 
L 309.451578 111.280517 
L 310.537379 120.57136 
L 311.62318 114.830999 
L 312.708981 123.281534 
L 313.794783 121.571011 
L 314.880584 118.681257 
L 315.966385 115.24691 
L 317.052186 117.178955 
L 318.137987 120.546169 
L 319.223788 121.394658 
L 320.30959 111.910446 
L 321.395391 129.055365 
L 322.481192 111.963443 
L 323.566993 116.102314 
L 324.652794 117.527818 
L 325.738595 124.36415 
L 326.824396 114.419754 
L 327.910198 109.288865 
L 328.995999 116.084786 
L 330.0818 109.954137 
L 331.167601 115.127685 
L 332.253402 117.999003 
L 333.339203 111.334906 
L 334.425005 128.466482 
L 335.510806 98.246352 
L 336.596607 114.171982 
L 337.682408 116.367251 
L 338.768209 116.891558 
L 339.85401 106.440437 
L 340.939811 127.264843 
L 342.025613 127.544835 
L 343.111414 130.198966 
L 344.197215 111.711331 
L 345.283016 131.777873 
L 346.368817 118.987968 
L 347.454618 123.139827 
L 348.54042 135.338698 
L 349.626221 117.326088 
L 350.712022 128.637643 
L 351.797823 130.336696 
L 352.883624 120.814043 
L 353.969425 117.958409 
L 355.055227 114.046556 
L 356.141028 115.268509 
L 357.226829 111.642148 
L 358.31263 118.515198 
L 359.398431 121.358454 
L 360.484232 114.112671 
L 361.570033 111.735899 
L 362.655835 116.246124 
L 363.741636 113.865891 
L 364.827437 127.31401 
L 365.913238 117.834272 
L 366.999039 126.876934 
L 368.08484 105.793457 
L 369.170642 126.469734 
L 370.256443 126.329974 
L 371.342244 123.135846 
L 372.428045 114.646374 
L 373.513846 104.940574 
L 374.599647 130.926963 
L 375.685448 115.444264 
L 376.77125 131.668367 
L 377.857051 114.006939 
L 378.942852 114.95761 
L 380.028653 113.050245 
L 381.114454 117.64925 
L 382.200255 114.566763 
L 383.286057 124.256804 
L 384.371858 131.423819 
L 385.457659 123.46249 
L 386.54346 122.181028 
L 387.629261 115.773033 
L 388.715062 121.064333 
L 389.800863 127.450069 
L 390.886665 123.220903 
L 391.972466 130.999828 
L 393.058267 134.144013 
L 394.144068 140.142976 
L 395.229869 116.619173 
L 396.31567 119.029123 
L 397.401472 131.522177 
L 398.487273 117.175264 
L 398.487273 117.175264 
" style="fill:none;stroke:#0000ff;stroke-linecap:square;stroke-width:1.5;"/>
   </g>
   <g id="line2d_34">
    <path clip-path="url(#p35fe4fe3b9)" d="M 73.832727 295.488 
L 74.918528 252.203872 
L 76.00433 226.261459 
L 77.090131 249.489765 
L 78.175932 235.869844 
L 79.261733 224.333015 
L 80.347534 246.358019 
L 81.433335 222.297941 
L 82.519137 235.285723 
L 83.604938 222.513256 
L 84.690739 242.896871 
L 85.77654 215.113731 
L 86.862341 201.003054 
L 87.948142 214.917013 
L 89.033943 221.070538 
L 90.119745 206.176204 
L 91.205546 241.278193 
L 92.291347 232.701682 
L 93.377148 194.152976 
L 94.462949 189.554989 
L 95.54875 239.973898 
L 96.634552 240.882892 
L 97.720353 203.636567 
L 98.806154 220.888652 
L 99.891955 249.305806 
L 100.977756 236.949091 
L 102.063557 230.851649 
L 103.149358 218.98395 
L 104.23516 242.74026 
L 105.320961 200.680985 
L 106.406762 237.688168 
L 107.492563 199.351399 
L 108.578364 219.4758 
L 109.664165 225.194112 
L 110.749967 183.544279 
L 111.835768 161.8853 
L 112.921569 197.445536 
L 114.00737 182.898906 
L 115.093171 184.824971 
L 116.178972 152.108347 
L 117.264773 168.591837 
L 118.350575 175.757366 
L 119.436376 177.639135 
L 120.522177 156.468816 
L 121.607978 178.160292 
L 122.693779 193.974079 
L 123.77958 174.105223 
L 124.865382 156.601645 
L 125.951183 176.807029 
L 127.036984 172.897078 
L 128.122785 143.393225 
L 129.208586 153.679039 
L 130.294387 167.532978 
L 131.380189 147.035052 
L 132.46599 186.287781 
L 133.551791 173.338611 
L 134.637592 175.459251 
L 135.723393 181.056877 
L 136.809194 165.746411 
L 137.894995 175.797504 
L 138.980797 130.427844 
L 140.066598 152.6515 
L 141.152399 163.285424 
L 142.2382 161.962974 
L 143.324001 164.850704 
L 144.409802 172.738308 
L 145.495604 142.799875 
L 146.581405 160.384474 
L 147.667206 148.820237 
L 148.753007 158.283181 
L 149.838808 135.106478 
L 150.924609 160.389596 
L 152.01041 173.152065 
L 153.096212 192.369508 
L 154.182013 169.839573 
L 155.267814 135.461341 
L 156.353615 173.745473 
L 157.439416 157.008959 
L 158.525217 188.500969 
L 159.611019 154.815138 
L 160.69682 158.548943 
L 161.782621 181.411295 
L 162.868422 173.101044 
L 163.954223 179.658883 
L 165.040024 187.350673 
L 166.125825 159.362406 
L 167.211627 178.209253 
L 168.297428 214.810501 
L 169.383229 170.681955 
L 170.46903 157.197119 
L 171.554831 149.33199 
L 172.640632 149.970022 
L 173.726434 148.264149 
L 174.812235 144.729326 
L 175.898036 130.00914 
L 176.983837 157.152265 
L 178.069638 178.288631 
L 179.155439 170.353639 
L 180.24124 177.514628 
L 181.327042 150.020091 
L 182.412843 157.909017 
L 183.498644 169.007847 
L 184.584445 151.941166 
L 185.670246 129.385802 
L 186.756047 145.649218 
L 187.841849 151.924635 
L 188.92765 172.283687 
L 190.013451 141.900262 
L 191.099252 138.014198 
L 192.185053 161.091602 
L 193.270854 131.936597 
L 194.356656 137.872523 
L 195.442457 162.73678 
L 196.528258 174.173011 
L 197.614059 172.082719 
L 198.69986 151.15346 
L 200.871462 185.77351 
L 201.957264 159.921073 
L 203.043065 196.029854 
L 204.128866 208.060845 
L 205.214667 187.83171 
L 206.300468 150.125039 
L 207.386269 132.924422 
L 208.472071 151.155955 
L 209.557872 132.306039 
L 210.643673 178.202631 
L 211.729474 147.852897 
L 212.815275 180.203386 
L 213.901076 153.09201 
L 214.986877 157.778473 
L 216.072679 151.99107 
L 217.15848 157.960362 
L 218.244281 162.835975 
L 219.330082 160.390856 
L 220.415883 160.732389 
L 221.501684 148.970586 
L 222.587486 186.864076 
L 223.673287 181.955542 
L 224.759088 142.298603 
L 225.844889 116.531679 
L 226.93069 147.355693 
L 228.016491 156.945067 
L 229.102292 158.520193 
L 230.188094 176.905663 
L 231.273895 144.337802 
L 232.359696 172.886155 
L 233.445497 148.852145 
L 234.531298 143.035747 
L 235.617099 125.135204 
L 236.702901 209.993562 
L 237.788702 178.059623 
L 238.874503 197.657926 
L 239.960304 177.793918 
L 241.046105 196.059496 
L 242.131906 230.668695 
L 243.217708 189.484211 
L 244.303509 197.79111 
L 245.38931 166.274909 
L 246.475111 171.279211 
L 247.560912 169.385553 
L 248.646713 164.211404 
L 249.732514 162.490982 
L 250.818316 174.028259 
L 251.904117 198.374294 
L 252.989918 192.827972 
L 254.075719 154.319358 
L 255.16152 162.046518 
L 256.247321 149.083256 
L 257.333123 161.857305 
L 258.418924 163.986261 
L 259.504725 159.505375 
L 260.590526 146.401931 
L 261.676327 140.481919 
L 262.762128 151.289595 
L 263.847929 154.223021 
L 264.933731 153.420181 
L 266.019532 160.793214 
L 267.105333 154.573122 
L 268.191134 172.706013 
L 269.276935 160.531801 
L 270.362736 162.018248 
L 271.448538 150.154634 
L 272.534339 162.320066 
L 273.62014 156.207296 
L 274.705941 180.524012 
L 275.791742 144.270411 
L 276.877543 163.774773 
L 277.963344 165.965697 
L 279.049146 140.79721 
L 280.134947 162.159629 
L 281.220748 189.026958 
L 282.306549 185.179332 
L 283.39235 173.034461 
L 284.478151 174.55218 
L 285.563953 140.839779 
L 286.649754 186.674021 
L 287.735555 169.663271 
L 288.821356 179.882673 
L 289.907157 154.312785 
L 290.992958 144.474601 
L 292.07876 158.040808 
L 293.164561 144.883123 
L 294.250362 138.008471 
L 295.336163 141.881943 
L 296.421964 143.985876 
L 297.507765 216.725073 
L 298.593566 176.83369 
L 299.679368 181.086493 
L 300.765169 163.932378 
L 301.85097 168.608327 
L 302.936771 163.961784 
L 304.022572 140.981057 
L 305.108373 153.558958 
L 306.194175 135.322193 
L 307.279976 156.731625 
L 308.365777 158.604731 
L 309.451578 138.008679 
L 310.537379 142.30687 
L 311.62318 156.80763 
L 312.708981 157.681038 
L 313.794783 144.349622 
L 314.880584 160.877601 
L 315.966385 148.60637 
L 317.052186 143.379389 
L 318.137987 161.415738 
L 319.223788 165.060746 
L 320.30959 135.101728 
L 321.395391 171.693627 
L 322.481192 144.837446 
L 323.566993 148.395491 
L 324.652794 150.139652 
L 325.738595 161.987839 
L 326.824396 150.313022 
L 327.910198 143.775446 
L 328.995999 168.751593 
L 330.0818 145.343832 
L 331.167601 157.565888 
L 332.253402 160.89921 
L 333.339203 137.521592 
L 334.425005 192.482621 
L 335.510806 119.088155 
L 336.596607 140.908146 
L 337.682408 168.297768 
L 338.768209 164.456682 
L 339.85401 131.235074 
L 340.939811 178.412931 
L 342.025613 183.531313 
L 343.111414 190.693629 
L 344.197215 148.535177 
L 345.283016 183.553654 
L 346.368817 167.807135 
L 347.454618 146.333507 
L 348.54042 187.196742 
L 349.626221 148.678764 
L 350.712022 160.510531 
L 351.797823 180.284634 
L 352.883624 160.908459 
L 353.969425 151.686798 
L 355.055227 160.614197 
L 356.141028 139.41773 
L 357.226829 147.015594 
L 358.31263 139.148349 
L 359.398431 159.874192 
L 360.484232 148.886411 
L 361.570033 148.577399 
L 362.655835 142.385309 
L 363.741636 149.180206 
L 364.827437 163.134772 
L 365.913238 154.236905 
L 366.999039 152.235215 
L 368.08484 127.076748 
L 369.170642 159.033044 
L 370.256443 152.592344 
L 371.342244 147.424344 
L 372.428045 135.843531 
L 373.513846 127.816275 
L 374.599647 168.931062 
L 375.685448 149.020895 
L 376.77125 181.939347 
L 377.857051 140.726302 
L 378.942852 136.245723 
L 380.028653 135.415662 
L 381.114454 144.011825 
L 382.200255 137.197151 
L 383.286057 169.061157 
L 384.371858 165.85669 
L 385.457659 165.92969 
L 386.54346 148.144372 
L 387.629261 143.907123 
L 388.715062 159.601335 
L 389.800863 158.728958 
L 390.886665 152.831356 
L 391.972466 163.169888 
L 393.058267 180.333192 
L 394.144068 195.304558 
L 395.229869 142.901726 
L 396.31567 138.800882 
L 397.401472 157.359884 
L 398.487273 160.029053 
L 398.487273 160.029053 
" style="fill:none;stroke:#008000;stroke-dasharray:9.6,2.4,1.5,2.4;stroke-dashoffset:0;stroke-width:1.5;"/>
   </g>
   <g id="line2d_35">
    <path clip-path="url(#p35fe4fe3b9)" d="M 73.832727 218.925222 
L 74.918528 192.925465 
L 76.00433 200.029589 
L 77.090131 192.938018 
L 78.175932 193.006658 
L 79.261733 174.078738 
L 80.347534 148.105236 
L 81.433335 151.887811 
L 82.519137 143.544891 
L 83.604938 139.172063 
L 84.690739 138.350473 
L 85.77654 140.622806 
L 86.862341 141.068162 
L 87.948142 132.709228 
L 89.033943 126.320507 
L 90.119745 134.247593 
L 91.205546 118.105068 
L 92.291347 123.302253 
L 93.377148 136.109965 
L 94.462949 129.55166 
L 95.54875 120.550795 
L 96.634552 130.197381 
L 97.720353 130.509355 
L 98.806154 111.303423 
L 100.977756 133.934016 
L 102.063557 109.851981 
L 103.149358 122.095614 
L 104.23516 114.034033 
L 105.320961 111.431869 
L 106.406762 107.4952 
L 107.492563 109.222806 
L 108.578364 109.23952 
L 109.664165 108.099849 
L 110.749967 105.756604 
L 111.835768 130.11662 
L 112.921569 99.678541 
L 114.00737 113.810555 
L 115.093171 117.882024 
L 116.178972 113.705586 
L 117.264773 107.607965 
L 118.350575 100.410239 
L 119.436376 102.207709 
L 120.522177 112.031349 
L 121.607978 103.661818 
L 122.693779 113.468272 
L 123.77958 93.545697 
L 124.865382 97.031285 
L 125.951183 84.445183 
L 127.036984 97.598019 
L 128.122785 100.771309 
L 129.208586 109.083296 
L 130.294387 101.357533 
L 131.380189 88.452047 
L 132.46599 82.682334 
L 133.551791 79.415157 
L 134.637592 80.837086 
L 135.723393 90.134293 
L 136.809194 86.642042 
L 137.894995 72.516932 
L 138.980797 93.814411 
L 140.066598 62.661726 
L 141.152399 82.660872 
L 142.2382 80.245908 
L 143.324001 78.184567 
L 144.409802 71.718038 
L 145.495604 89.410105 
L 146.581405 61.703053 
L 148.753007 71.771732 
L 149.838808 87.696869 
L 150.924609 68.844374 
L 152.01041 70.166282 
L 153.096212 63.775276 
L 154.182013 67.853343 
L 155.267814 97.491355 
L 156.353615 77.954905 
L 157.439416 67.467475 
L 158.525217 53.568 
L 159.611019 74.265192 
L 160.69682 71.025573 
L 161.782621 71.08399 
L 163.954223 82.878071 
L 165.040024 82.358084 
L 166.125825 73.343621 
L 167.211627 74.3513 
L 168.297428 78.104438 
L 169.383229 90.42843 
L 170.46903 90.787259 
L 171.554831 86.795882 
L 172.640632 85.301872 
L 173.726434 73.689647 
L 174.812235 73.012285 
L 175.898036 83.842983 
L 176.983837 74.625517 
L 178.069638 72.523287 
L 179.155439 68.2935 
L 180.24124 82.466576 
L 181.327042 65.210885 
L 182.412843 73.462942 
L 183.498644 82.965489 
L 184.584445 69.562723 
L 185.670246 89.945962 
L 186.756047 73.281223 
L 187.841849 79.386576 
L 188.92765 70.014299 
L 190.013451 74.790517 
L 191.099252 72.969723 
L 192.185053 73.006943 
L 193.270854 82.31742 
L 194.356656 78.136313 
L 195.442457 78.851294 
L 196.528258 74.575559 
L 197.614059 91.377206 
L 198.69986 77.047965 
L 199.785661 79.972479 
L 200.871462 77.65142 
L 201.957264 78.836278 
L 203.043065 67.883705 
L 204.128866 86.169196 
L 205.214667 83.36563 
L 206.300468 82.251381 
L 207.386269 90.691621 
L 208.472071 66.043577 
L 209.557872 80.67491 
L 210.643673 61.814303 
L 211.729474 73.309095 
L 212.815275 75.043375 
L 213.901076 77.267337 
L 214.986877 79.190698 
L 216.072679 75.105521 
L 217.15848 68.174192 
L 218.244281 88.79891 
L 219.330082 74.351264 
L 220.415883 79.303298 
L 221.501684 72.101265 
L 222.587486 73.251803 
L 223.673287 82.473385 
L 224.759088 80.011444 
L 225.844889 81.739909 
L 226.93069 83.237519 
L 228.016491 83.461954 
L 229.102292 83.172023 
L 230.188094 74.127841 
L 231.273895 92.173783 
L 232.359696 78.781296 
L 233.445497 91.71031 
L 234.531298 86.250341 
L 235.617099 85.530205 
L 236.702901 96.574676 
L 237.788702 93.90173 
L 238.874503 113.128462 
L 239.960304 96.34218 
L 241.046105 88.983694 
L 242.131906 82.943235 
L 243.217708 75.656449 
L 244.303509 92.1791 
L 245.38931 75.788649 
L 246.475111 95.549665 
L 247.560912 95.95673 
L 248.646713 96.863623 
L 249.732514 88.819534 
L 250.818316 108.782804 
L 251.904117 109.83585 
L 252.989918 100.714158 
L 254.075719 86.197899 
L 255.16152 101.492501 
L 256.247321 88.728274 
L 257.333123 91.941318 
L 258.418924 107.329061 
L 259.504725 97.548048 
L 260.590526 94.048159 
L 261.676327 96.686882 
L 262.762128 88.663876 
L 263.847929 89.947464 
L 264.933731 94.170297 
L 266.019532 102.419512 
L 267.105333 93.345692 
L 268.191134 93.248011 
L 269.276935 99.452577 
L 270.362736 86.876471 
L 271.448538 92.742012 
L 272.534339 95.363368 
L 273.62014 99.871538 
L 274.705941 78.537457 
L 275.791742 88.628577 
L 276.877543 89.424347 
L 277.963344 78.664039 
L 279.049146 95.666009 
L 280.134947 82.33634 
L 281.220748 84.922286 
L 282.306549 79.971728 
L 283.39235 83.622371 
L 284.478151 85.449081 
L 285.563953 84.462604 
L 286.649754 74.629905 
L 287.735555 80.086386 
L 288.821356 75.5319 
L 289.907157 94.413055 
L 290.992958 94.525184 
L 292.07876 86.784973 
L 293.164561 87.322425 
L 294.250362 94.623702 
L 295.336163 89.873776 
L 296.421964 92.301743 
L 297.507765 81.603601 
L 298.593566 73.855929 
L 299.679368 81.892637 
L 300.765169 88.57425 
L 301.85097 79.246356 
L 302.936771 87.745177 
L 304.022572 85.449442 
L 305.108373 80.64238 
L 306.194175 94.129378 
L 307.279976 68.465591 
L 308.365777 98.957362 
L 309.451578 84.552355 
L 310.537379 98.835851 
L 311.62318 72.854369 
L 312.708981 88.882029 
L 313.794783 98.792401 
L 314.880584 76.484914 
L 315.966385 81.887451 
L 317.052186 90.97852 
L 318.137987 79.676599 
L 319.223788 77.728569 
L 320.30959 88.719164 
L 321.395391 86.417103 
L 322.481192 79.08944 
L 323.566993 83.809137 
L 324.652794 84.915983 
L 325.738595 86.740461 
L 326.824396 78.526486 
L 327.910198 74.802283 
L 328.995999 63.417979 
L 330.0818 74.564442 
L 331.167601 72.689482 
L 332.253402 75.098796 
L 333.339203 85.14822 
L 334.425005 64.450343 
L 335.510806 77.40455 
L 336.596607 87.435817 
L 337.682408 64.436734 
L 338.768209 69.326433 
L 339.85401 81.645801 
L 340.939811 76.116754 
L 342.025613 71.558358 
L 343.111414 69.704303 
L 345.283016 80.002092 
L 346.368817 70.168802 
L 347.454618 99.946147 
L 348.54042 83.480654 
L 349.626221 85.973412 
L 350.712022 96.764755 
L 351.797823 80.388757 
L 352.883624 80.719627 
L 353.969425 84.230021 
L 355.055227 67.478914 
L 356.141028 91.119289 
L 357.226829 76.268703 
L 358.31263 97.882047 
L 359.398431 82.842716 
L 360.484232 79.338931 
L 361.570033 74.8944 
L 362.655835 90.10694 
L 363.741636 78.551575 
L 364.827437 91.493247 
L 365.913238 81.431639 
L 366.999039 101.518653 
L 368.08484 84.510166 
L 369.170642 93.906425 
L 370.256443 100.067604 
L 371.342244 98.847347 
L 372.428045 93.449217 
L 373.513846 82.064873 
L 374.599647 92.922864 
L 375.685448 81.867633 
L 376.77125 81.397388 
L 378.942852 93.669498 
L 380.028653 90.684829 
L 382.200255 91.936375 
L 383.286057 79.452451 
L 384.371858 96.990948 
L 385.457659 80.99529 
L 386.54346 96.217685 
L 387.629261 87.638944 
L 388.715062 82.527331 
L 389.800863 96.171179 
L 390.886665 93.610449 
L 391.972466 98.829767 
L 393.058267 87.954835 
L 394.144068 84.981394 
L 395.229869 90.33662 
L 396.31567 99.257364 
L 397.401472 105.684469 
L 398.487273 74.321476 
L 398.487273 74.321476 
" style="fill:none;stroke:#008000;stroke-dasharray:9.6,2.4,1.5,2.4;stroke-dashoffset:0;stroke-width:1.5;"/>
   </g>
   <g id="line2d_36">
    <path clip-path="url(#p35fe4fe3b9)" d="M 73.832727 204.631271 
L 74.918528 205.808671 
L 76.00433 205.025612 
L 77.090131 202.004469 
L 78.175932 192.618909 
L 79.261733 168.82733 
L 80.347534 160.266311 
L 81.433335 165.628324 
L 82.519137 153.976501 
L 83.604938 149.43439 
L 84.690739 154.066717 
L 85.77654 149.866331 
L 86.862341 136.812608 
L 87.948142 139.610895 
L 89.033943 134.133563 
L 90.119745 139.589526 
L 91.205546 130.764698 
L 92.291347 139.943444 
L 93.377148 137.649544 
L 94.462949 134.48951 
L 95.54875 130.676583 
L 96.634552 136.477077 
L 97.720353 147.24109 
L 98.806154 130.16817 
L 99.891955 128.341805 
L 100.977756 146.109626 
L 102.063557 127.173053 
L 103.149358 139.38607 
L 105.320961 121.215986 
L 106.406762 124.436926 
L 107.492563 126.789667 
L 108.578364 120.673955 
L 109.664165 117.332598 
L 110.749967 112.463088 
L 111.835768 123.59593 
L 112.921569 112.368859 
L 114.00737 121.957884 
L 115.093171 125.05286 
L 116.178972 107.021697 
L 117.264773 113.590844 
L 118.350575 110.462395 
L 119.436376 110.08845 
L 120.522177 106.395712 
L 121.607978 110.685797 
L 122.693779 121.263743 
L 123.77958 103.283067 
L 124.865382 102.764694 
L 125.951183 99.005983 
L 127.036984 103.879396 
L 128.122785 86.943728 
L 129.208586 100.852761 
L 130.294387 98.892484 
L 131.380189 90.433004 
L 132.46599 91.139176 
L 133.551791 88.756165 
L 134.637592 92.535178 
L 135.723393 100.935453 
L 136.809194 94.409516 
L 137.894995 85.888219 
L 138.980797 87.557696 
L 140.066598 75.751836 
L 141.152399 91.649471 
L 142.2382 85.901818 
L 143.324001 84.646106 
L 144.409802 85.021388 
L 145.495604 90.504516 
L 146.581405 81.864035 
L 147.667206 80.128332 
L 148.753007 80.091544 
L 149.838808 82.414272 
L 150.924609 80.011537 
L 152.01041 81.98082 
L 153.096212 73.370371 
L 154.182013 75.043863 
L 155.267814 94.916228 
L 156.353615 89.489267 
L 157.439416 80.949421 
L 158.525217 75.697732 
L 159.611019 83.581048 
L 160.69682 78.618576 
L 161.782621 90.297518 
L 162.868422 81.973275 
L 163.954223 92.709735 
L 165.040024 92.38547 
L 166.125825 78.724409 
L 167.211627 82.975672 
L 168.297428 85.671168 
L 169.383229 91.634904 
L 170.46903 87.16722 
L 171.554831 85.001027 
L 172.640632 86.692328 
L 173.726434 79.901974 
L 174.812235 79.17764 
L 175.898036 79.62146 
L 176.983837 77.632717 
L 178.069638 84.941741 
L 179.155439 79.238545 
L 180.24124 87.289571 
L 181.327042 70.241697 
L 182.412843 82.895283 
L 183.498644 92.436013 
L 184.584445 80.25353 
L 185.670246 84.106106 
L 186.756047 80.859585 
L 187.841849 81.650465 
L 188.92765 80.725853 
L 190.013451 77.406181 
L 191.099252 71.938468 
L 192.185053 81.81648 
L 193.270854 78.520925 
L 194.356656 78.198327 
L 195.442457 80.271397 
L 196.528258 75.221044 
L 197.614059 79.184944 
L 198.69986 72.07835 
L 199.785661 80.333883 
L 200.871462 83.442663 
L 201.957264 79.056802 
L 203.043065 80.739345 
L 204.128866 89.012099 
L 205.214667 79.844191 
L 206.300468 76.318165 
L 207.386269 78.921165 
L 208.472071 76.249412 
L 209.557872 80.10098 
L 210.643673 76.460846 
L 211.729474 79.893402 
L 212.815275 79.018915 
L 213.901076 78.919948 
L 214.986877 77.118143 
L 216.072679 77.199532 
L 217.15848 69.989461 
L 218.244281 78.436811 
L 219.330082 79.908948 
L 220.415883 83.251302 
L 221.501684 77.105541 
L 222.587486 82.279 
L 223.673287 83.925995 
L 224.759088 75.458837 
L 225.844889 77.257693 
L 226.93069 77.742654 
L 228.016491 83.789724 
L 229.102292 86.440476 
L 230.188094 85.666744 
L 231.273895 84.741772 
L 232.359696 84.449604 
L 233.445497 89.410618 
L 234.531298 80.919998 
L 235.617099 79.914957 
L 236.702901 89.125307 
L 237.788702 86.371704 
L 238.874503 96.913948 
L 239.960304 78.241488 
L 241.046105 86.36113 
L 242.131906 86.496266 
L 243.217708 82.34353 
L 244.303509 92.354872 
L 245.38931 80.613014 
L 246.475111 97.503999 
L 247.560912 91.857071 
L 248.646713 95.999482 
L 249.732514 84.965256 
L 250.818316 95.424053 
L 251.904117 101.94581 
L 252.989918 91.493335 
L 254.075719 75.368603 
L 255.16152 90.883749 
L 256.247321 89.961923 
L 257.333123 93.373727 
L 258.418924 99.290597 
L 259.504725 93.127325 
L 260.590526 83.471828 
L 261.676327 89.941527 
L 262.762128 84.254585 
L 263.847929 77.971625 
L 264.933731 86.877591 
L 266.019532 85.043947 
L 267.105333 81.929298 
L 268.191134 89.074909 
L 269.276935 90.154955 
L 270.362736 85.356759 
L 271.448538 90.092761 
L 272.534339 90.563775 
L 273.62014 83.287054 
L 274.705941 80.645104 
L 275.791742 85.824949 
L 276.877543 86.256787 
L 277.963344 83.982052 
L 279.049146 80.631274 
L 280.134947 86.443512 
L 281.220748 85.880342 
L 282.306549 85.726848 
L 284.478151 87.314949 
L 285.563953 81.252806 
L 286.649754 82.10138 
L 287.735555 80.447538 
L 288.821356 87.625141 
L 289.907157 89.444054 
L 290.992958 86.030293 
L 292.07876 86.304437 
L 293.164561 77.919445 
L 294.250362 86.408153 
L 295.336163 89.660809 
L 296.421964 84.239086 
L 297.507765 84.46235 
L 298.593566 86.23894 
L 299.679368 85.559855 
L 300.765169 89.142254 
L 301.85097 84.906162 
L 302.936771 86.81653 
L 304.022572 83.528527 
L 305.108373 84.335175 
L 306.194175 87.884408 
L 307.279976 79.70606 
L 308.365777 92.265653 
L 309.451578 83.314039 
L 310.537379 94.898138 
L 311.62318 83.849551 
L 312.708981 87.880932 
L 313.794783 87.412923 
L 315.966385 83.102068 
L 317.052186 84.082181 
L 318.137987 86.495122 
L 319.223788 81.308769 
L 320.30959 85.737911 
L 321.395391 92.069262 
L 322.481192 79.582748 
L 323.566993 76.931542 
L 324.652794 83.924928 
L 325.738595 81.837197 
L 326.824396 75.310005 
L 327.910198 74.972391 
L 330.0818 78.599942 
L 331.167601 84.844445 
L 332.253402 84.857782 
L 333.339203 81.348938 
L 334.425005 79.916098 
L 335.510806 77.767822 
L 336.596607 79.333782 
L 337.682408 76.978248 
L 338.768209 82.091499 
L 339.85401 76.773119 
L 340.939811 84.33714 
L 342.025613 84.679596 
L 343.111414 87.150319 
L 344.197215 80.442727 
L 345.283016 90.794231 
L 346.368817 83.985734 
L 347.454618 89.100642 
L 348.54042 89.643178 
L 349.626221 82.680237 
L 350.712022 96.972931 
L 351.797823 87.863651 
L 352.883624 86.221353 
L 353.969425 83.253348 
L 355.055227 76.509175 
L 356.141028 86.066188 
L 357.226829 79.566171 
L 358.31263 93.365858 
L 359.398431 83.264567 
L 360.484232 81.895362 
L 361.570033 75.239601 
L 362.655835 82.050722 
L 363.741636 80.071408 
L 364.827437 91.977004 
L 365.913238 85.272201 
L 366.999039 86.48789 
L 368.08484 79.435875 
L 369.170642 88.571241 
L 370.256443 95.65354 
L 371.342244 85.711363 
L 372.428045 87.99817 
L 373.513846 76.968384 
L 374.599647 91.947089 
L 375.685448 91.070607 
L 376.77125 89.547338 
L 377.857051 85.394719 
L 378.942852 88.046928 
L 380.028653 84.344452 
L 381.114454 88.245178 
L 382.200255 81.952878 
L 383.286057 85.746759 
L 384.371858 91.358335 
L 385.457659 79.281166 
L 386.54346 84.577829 
L 387.629261 87.24058 
L 388.715062 80.019528 
L 389.800863 88.77579 
L 390.886665 88.89437 
L 391.972466 94.061107 
L 393.058267 93.342909 
L 394.144068 90.193175 
L 395.229869 81.126486 
L 396.31567 85.334864 
L 397.401472 94.762604 
L 398.487273 80.560615 
L 398.487273 80.560615 
" style="fill:none;stroke:#ff0000;stroke-linecap:square;stroke-width:1.5;"/>
   </g>
   <g id="patch_3">
    <path d="M 57.6 307.584 
L 57.6 41.472 
" style="fill:none;stroke:#000000;stroke-linecap:square;stroke-linejoin:miter;stroke-width:0.8;"/>
   </g>
   <g id="patch_4">
    <path d="M 414.72 307.584 
L 414.72 41.472 
" style="fill:none;stroke:#000000;stroke-linecap:square;stroke-linejoin:miter;stroke-width:0.8;"/>
   </g>
   <g id="patch_5">
    <path d="M 57.6 307.584 
L 414.72 307.584 
" style="fill:none;stroke:#000000;stroke-linecap:square;stroke-linejoin:miter;stroke-width:0.8;"/>
   </g>
   <g id="patch_6">
    <path d="M 57.6 41.472 
L 414.72 41.472 
" style="fill:none;stroke:#000000;stroke-linecap:square;stroke-linejoin:miter;stroke-width:0.8;"/>
   </g>
   <g id="text_19">
    <!-- Population's average and best fitness -->
    <defs>
     <path d="M 19.671875 64.796875 
L 19.671875 37.40625 
L 32.078125 37.40625 
Q 38.96875 37.40625 42.71875 40.96875 
Q 46.484375 44.53125 46.484375 51.125 
Q 46.484375 57.671875 42.71875 61.234375 
Q 38.96875 64.796875 32.078125 64.796875 
z
M 9.8125 72.90625 
L 32.078125 72.90625 
Q 44.34375 72.90625 50.609375 67.359375 
Q 56.890625 61.8125 56.890625 51.125 
Q 56.890625 40.328125 50.609375 34.8125 
Q 44.34375 29.296875 32.078125 29.296875 
L 19.671875 29.296875 
L 19.671875 0 
L 9.8125 0 
z
" id="DejaVuSans-80"/>
     <path d="M 18.109375 8.203125 
L 18.109375 -20.796875 
L 9.078125 -20.796875 
L 9.078125 54.6875 
L 18.109375 54.6875 
L 18.109375 46.390625 
Q 20.953125 51.265625 25.265625 53.625 
Q 29.59375 56 35.59375 56 
Q 45.5625 56 51.78125 48.09375 
Q 58.015625 40.1875 58.015625 27.296875 
Q 58.015625 14.40625 51.78125 6.484375 
Q 45.5625 -1.421875 35.59375 -1.421875 
Q 29.59375 -1.421875 25.265625 0.953125 
Q 20.953125 3.328125 18.109375 8.203125 
z
M 48.6875 27.296875 
Q 48.6875 37.203125 44.609375 42.84375 
Q 40.53125 48.484375 33.40625 48.484375 
Q 26.265625 48.484375 22.1875 42.84375 
Q 18.109375 37.203125 18.109375 27.296875 
Q 18.109375 17.390625 22.1875 11.75 
Q 26.265625 6.109375 33.40625 6.109375 
Q 40.53125 6.109375 44.609375 11.75 
Q 48.6875 17.390625 48.6875 27.296875 
z
" id="DejaVuSans-112"/>
     <path d="M 8.5 21.578125 
L 8.5 54.6875 
L 17.484375 54.6875 
L 17.484375 21.921875 
Q 17.484375 14.15625 20.5 10.265625 
Q 23.53125 6.390625 29.59375 6.390625 
Q 36.859375 6.390625 41.078125 11.03125 
Q 45.3125 15.671875 45.3125 23.6875 
L 45.3125 54.6875 
L 54.296875 54.6875 
L 54.296875 0 
L 45.3125 0 
L 45.3125 8.40625 
Q 42.046875 3.421875 37.71875 1 
Q 33.40625 -1.421875 27.6875 -1.421875 
Q 18.265625 -1.421875 13.375 4.4375 
Q 8.5 10.296875 8.5 21.578125 
z
M 31.109375 56 
z
" id="DejaVuSans-117"/>
     <path d="M 9.421875 75.984375 
L 18.40625 75.984375 
L 18.40625 0 
L 9.421875 0 
z
" id="DejaVuSans-108"/>
     <path d="M 17.921875 72.90625 
L 17.921875 45.796875 
L 9.625 45.796875 
L 9.625 72.90625 
z
" id="DejaVuSans-39"/>
     <path id="DejaVuSans-32"/>
     <path d="M 2.984375 54.6875 
L 12.5 54.6875 
L 29.59375 8.796875 
L 46.6875 54.6875 
L 56.203125 54.6875 
L 35.6875 0 
L 23.484375 0 
z
" id="DejaVuSans-118"/>
     <path d="M 45.40625 27.984375 
Q 45.40625 37.75 41.375 43.109375 
Q 37.359375 48.484375 30.078125 48.484375 
Q 22.859375 48.484375 18.828125 43.109375 
Q 14.796875 37.75 14.796875 27.984375 
Q 14.796875 18.265625 18.828125 12.890625 
Q 22.859375 7.515625 30.078125 7.515625 
Q 37.359375 7.515625 41.375 12.890625 
Q 45.40625 18.265625 45.40625 27.984375 
z
M 54.390625 6.78125 
Q 54.390625 -7.171875 48.1875 -13.984375 
Q 42 -20.796875 29.203125 -20.796875 
Q 24.46875 -20.796875 20.265625 -20.09375 
Q 16.0625 -19.390625 12.109375 -17.921875 
L 12.109375 -9.1875 
Q 16.0625 -11.328125 19.921875 -12.34375 
Q 23.78125 -13.375 27.78125 -13.375 
Q 36.625 -13.375 41.015625 -8.765625 
Q 45.40625 -4.15625 45.40625 5.171875 
L 45.40625 9.625 
Q 42.625 4.78125 38.28125 2.390625 
Q 33.9375 0 27.875 0 
Q 17.828125 0 11.671875 7.65625 
Q 5.515625 15.328125 5.515625 27.984375 
Q 5.515625 40.671875 11.671875 48.328125 
Q 17.828125 56 27.875 56 
Q 33.9375 56 38.28125 53.609375 
Q 42.625 51.21875 45.40625 46.390625 
L 45.40625 54.6875 
L 54.390625 54.6875 
z
" id="DejaVuSans-103"/>
     <path d="M 45.40625 46.390625 
L 45.40625 75.984375 
L 54.390625 75.984375 
L 54.390625 0 
L 45.40625 0 
L 45.40625 8.203125 
Q 42.578125 3.328125 38.25 0.953125 
Q 33.9375 -1.421875 27.875 -1.421875 
Q 17.96875 -1.421875 11.734375 6.484375 
Q 5.515625 14.40625 5.515625 27.296875 
Q 5.515625 40.1875 11.734375 48.09375 
Q 17.96875 56 27.875 56 
Q 33.9375 56 38.25 53.625 
Q 42.578125 51.265625 45.40625 46.390625 
z
M 14.796875 27.296875 
Q 14.796875 17.390625 18.875 11.75 
Q 22.953125 6.109375 30.078125 6.109375 
Q 37.203125 6.109375 41.296875 11.75 
Q 45.40625 17.390625 45.40625 27.296875 
Q 45.40625 37.203125 41.296875 42.84375 
Q 37.203125 48.484375 30.078125 48.484375 
Q 22.953125 48.484375 18.875 42.84375 
Q 14.796875 37.203125 14.796875 27.296875 
z
" id="DejaVuSans-100"/>
     <path d="M 48.6875 27.296875 
Q 48.6875 37.203125 44.609375 42.84375 
Q 40.53125 48.484375 33.40625 48.484375 
Q 26.265625 48.484375 22.1875 42.84375 
Q 18.109375 37.203125 18.109375 27.296875 
Q 18.109375 17.390625 22.1875 11.75 
Q 26.265625 6.109375 33.40625 6.109375 
Q 40.53125 6.109375 44.609375 11.75 
Q 48.6875 17.390625 48.6875 27.296875 
z
M 18.109375 46.390625 
Q 20.953125 51.265625 25.265625 53.625 
Q 29.59375 56 35.59375 56 
Q 45.5625 56 51.78125 48.09375 
Q 58.015625 40.1875 58.015625 27.296875 
Q 58.015625 14.40625 51.78125 6.484375 
Q 45.5625 -1.421875 35.59375 -1.421875 
Q 29.59375 -1.421875 25.265625 0.953125 
Q 20.953125 3.328125 18.109375 8.203125 
L 18.109375 0 
L 9.078125 0 
L 9.078125 75.984375 
L 18.109375 75.984375 
z
" id="DejaVuSans-98"/>
     <path d="M 37.109375 75.984375 
L 37.109375 68.5 
L 28.515625 68.5 
Q 23.6875 68.5 21.796875 66.546875 
Q 19.921875 64.59375 19.921875 59.515625 
L 19.921875 54.6875 
L 34.71875 54.6875 
L 34.71875 47.703125 
L 19.921875 47.703125 
L 19.921875 0 
L 10.890625 0 
L 10.890625 47.703125 
L 2.296875 47.703125 
L 2.296875 54.6875 
L 10.890625 54.6875 
L 10.890625 58.5 
Q 10.890625 67.625 15.140625 71.796875 
Q 19.390625 75.984375 28.609375 75.984375 
z
" id="DejaVuSans-102"/>
    </defs>
    <g transform="translate(123.315 35.472)scale(0.12 -0.12)">
     <use xlink:href="#DejaVuSans-80"/>
     <use x="60.255859" xlink:href="#DejaVuSans-111"/>
     <use x="121.4375" xlink:href="#DejaVuSans-112"/>
     <use x="184.914062" xlink:href="#DejaVuSans-117"/>
     <use x="248.292969" xlink:href="#DejaVuSans-108"/>
     <use x="276.076172" xlink:href="#DejaVuSans-97"/>
     <use x="337.355469" xlink:href="#DejaVuSans-116"/>
     <use x="376.564453" xlink:href="#DejaVuSans-105"/>
     <use x="404.347656" xlink:href="#DejaVuSans-111"/>
     <use x="465.529297" xlink:href="#DejaVuSans-110"/>
     <use x="528.908203" xlink:href="#DejaVuSans-39"/>
     <use x="556.398438" xlink:href="#DejaVuSans-115"/>
     <use x="608.498047" xlink:href="#DejaVuSans-32"/>
     <use x="640.285156" xlink:href="#DejaVuSans-97"/>
     <use x="701.564453" xlink:href="#DejaVuSans-118"/>
     <use x="760.744141" xlink:href="#DejaVuSans-101"/>
     <use x="822.267578" xlink:href="#DejaVuSans-114"/>
     <use x="863.380859" xlink:href="#DejaVuSans-97"/>
     <use x="924.660156" xlink:href="#DejaVuSans-103"/>
     <use x="988.136719" xlink:href="#DejaVuSans-101"/>
     <use x="1049.660156" xlink:href="#DejaVuSans-32"/>
     <use x="1081.447266" xlink:href="#DejaVuSans-97"/>
     <use x="1142.726562" xlink:href="#DejaVuSans-110"/>
     <use x="1206.105469" xlink:href="#DejaVuSans-100"/>
     <use x="1269.582031" xlink:href="#DejaVuSans-32"/>
     <use x="1301.369141" xlink:href="#DejaVuSans-98"/>
     <use x="1364.845703" xlink:href="#DejaVuSans-101"/>
     <use x="1426.369141" xlink:href="#DejaVuSans-115"/>
     <use x="1478.46875" xlink:href="#DejaVuSans-116"/>
     <use x="1517.677734" xlink:href="#DejaVuSans-32"/>
     <use x="1549.464844" xlink:href="#DejaVuSans-102"/>
     <use x="1584.669922" xlink:href="#DejaVuSans-105"/>
     <use x="1612.453125" xlink:href="#DejaVuSans-116"/>
     <use x="1651.662109" xlink:href="#DejaVuSans-110"/>
     <use x="1715.041016" xlink:href="#DejaVuSans-101"/>
     <use x="1776.564453" xlink:href="#DejaVuSans-115"/>
     <use x="1828.664062" xlink:href="#DejaVuSans-115"/>
    </g>
   </g>
   <g id="legend_1">
    <g id="patch_7">
     <path d="M 334.779375 302.584 
L 407.72 302.584 
Q 409.72 302.584 409.72 300.584 
L 409.72 242.8715 
Q 409.72 240.8715 407.72 240.8715 
L 334.779375 240.8715 
Q 332.779375 240.8715 332.779375 242.8715 
L 332.779375 300.584 
Q 332.779375 302.584 334.779375 302.584 
z
" style="fill:#ffffff;opacity:0.8;stroke:#cccccc;stroke-linejoin:miter;"/>
    </g>
    <g id="line2d_37">
     <path d="M 336.779375 248.969937 
L 356.779375 248.969937 
" style="fill:none;stroke:#0000ff;stroke-linecap:square;stroke-width:1.5;"/>
    </g>
    <g id="line2d_38"/>
    <g id="text_20">
     <!-- average -->
     <g transform="translate(364.779375 252.469937)scale(0.1 -0.1)">
      <use xlink:href="#DejaVuSans-97"/>
      <use x="61.279297" xlink:href="#DejaVuSans-118"/>
      <use x="120.458984" xlink:href="#DejaVuSans-101"/>
      <use x="181.982422" xlink:href="#DejaVuSans-114"/>
      <use x="223.095703" xlink:href="#DejaVuSans-97"/>
      <use x="284.375" xlink:href="#DejaVuSans-103"/>
      <use x="347.851562" xlink:href="#DejaVuSans-101"/>
     </g>
    </g>
    <g id="line2d_39">
     <path d="M 336.779375 263.648062 
L 356.779375 263.648062 
" style="fill:none;stroke:#008000;stroke-dasharray:9.6,2.4,1.5,2.4;stroke-dashoffset:0;stroke-width:1.5;"/>
    </g>
    <g id="line2d_40"/>
    <g id="text_21">
     <!-- -1 sd -->
     <defs>
      <path d="M 4.890625 31.390625 
L 31.203125 31.390625 
L 31.203125 23.390625 
L 4.890625 23.390625 
z
" id="DejaVuSans-45"/>
     </defs>
     <g transform="translate(364.779375 267.148062)scale(0.1 -0.1)">
      <use xlink:href="#DejaVuSans-45"/>
      <use x="36.083984" xlink:href="#DejaVuSans-49"/>
      <use x="99.707031" xlink:href="#DejaVuSans-32"/>
      <use x="131.494141" xlink:href="#DejaVuSans-115"/>
      <use x="183.59375" xlink:href="#DejaVuSans-100"/>
     </g>
    </g>
    <g id="line2d_41">
     <path d="M 336.779375 278.326187 
L 356.779375 278.326187 
" style="fill:none;stroke:#008000;stroke-dasharray:9.6,2.4,1.5,2.4;stroke-dashoffset:0;stroke-width:1.5;"/>
    </g>
    <g id="line2d_42"/>
    <g id="text_22">
     <!-- +1 sd -->
     <defs>
      <path d="M 46 62.703125 
L 46 35.5 
L 73.1875 35.5 
L 73.1875 27.203125 
L 46 27.203125 
L 46 0 
L 37.796875 0 
L 37.796875 27.203125 
L 10.59375 27.203125 
L 10.59375 35.5 
L 37.796875 35.5 
L 37.796875 62.703125 
z
" id="DejaVuSans-43"/>
     </defs>
     <g transform="translate(364.779375 281.826187)scale(0.1 -0.1)">
      <use xlink:href="#DejaVuSans-43"/>
      <use x="83.789062" xlink:href="#DejaVuSans-49"/>
      <use x="147.412109" xlink:href="#DejaVuSans-32"/>
      <use x="179.199219" xlink:href="#DejaVuSans-115"/>
      <use x="231.298828" xlink:href="#DejaVuSans-100"/>
     </g>
    </g>
    <g id="line2d_43">
     <path d="M 336.779375 293.004312 
L 356.779375 293.004312 
" style="fill:none;stroke:#ff0000;stroke-linecap:square;stroke-width:1.5;"/>
    </g>
    <g id="line2d_44"/>
    <g id="text_23">
     <!-- best -->
     <g transform="translate(364.779375 296.504312)scale(0.1 -0.1)">
      <use xlink:href="#DejaVuSans-98"/>
      <use x="63.476562" xlink:href="#DejaVuSans-101"/>
      <use x="125" xlink:href="#DejaVuSans-115"/>
      <use x="177.099609" xlink:href="#DejaVuSans-116"/>
     </g>
    </g>
   </g>
  </g>
 </g>
 <defs>
  <clipPath id="p35fe4fe3b9">
   <rect height="266.112" width="357.12" x="57.6" y="41.472"/>
  </clipPath>
 </defs>
</svg>
