<?xml version="1.0" encoding="UTF-8" standalone="no"?>
<!DOCTYPE svg PUBLIC "-//W3C//DTD SVG 1.1//EN"
 "http://www.w3.org/Graphics/SVG/1.1/DTD/svg11.dtd">
<!-- Generated by graphviz version 2.40.1 (20161225.0304)
 -->
<!-- Title: %3 Pages: 1 -->
<svg width="485pt" height="686pt"
 viewBox="0.00 0.00 485.38 686.35" xmlns="http://www.w3.org/2000/svg" xmlns:xlink="http://www.w3.org/1999/xlink">
<g id="graph0" class="graph" transform="scale(1 1) rotate(0) translate(4 682.3489)">
<title>%3</title>
<polygon fill="#ffffff" stroke="transparent" points="-4,4 -4,-682.3489 481.383,-682.3489 481.383,4 -4,4"/>
<!-- 0 -->
<g id="node1" class="node">
<title>0</title>
<polygon fill="#d3d3d3" stroke="#000000" points="325.389,-678.3489 305.3771,-678.3489 305.3771,-661.3489 325.389,-661.3489 325.389,-678.3489"/>
<text text-anchor="middle" x="315.383" y="-667.1489" font-family="Times,serif" font-size="9.00" fill="#000000">0</text>
</g>
<!-- 1 -->
<g id="node2" class="node">
<title>1</title>
<polygon fill="#d3d3d3" stroke="#000000" points="382.389,-678.3489 362.3771,-678.3489 362.3771,-661.3489 382.389,-661.3489 382.389,-678.3489"/>
<text text-anchor="middle" x="372.383" y="-667.1489" font-family="Times,serif" font-size="9.00" fill="#000000">1</text>
</g>
<!-- 0&#45;&gt;1 -->
<!-- E7 -->
<g id="node11" class="node">
<title>E7</title>
<ellipse fill="#add8e6" stroke="#000000" cx="403.383" cy="-18.383" rx="18.2668" ry="18.2668"/>
<text text-anchor="middle" x="403.383" y="-15.683" font-family="Times,serif" font-size="9.00" fill="#000000">E7</text>
</g>
<!-- 0&#45;&gt;E7 -->
<g id="edge18" class="edge">
<title>0&#45;&gt;E7</title>
<path fill="none" stroke="#ff0000" stroke-width=".1331" d="M314.4397,-661.2549C311.0038,-628.3923 299.9441,-507.588 311.383,-409.0991 327.5286,-270.0865 374.9572,-108.7376 394.6531,-45.64"/>
<polygon fill="#ff0000" stroke="#ff0000" stroke-width=".1331" points="398.012,-46.6258 397.6745,-36.0363 391.3347,-44.525 398.012,-46.6258"/>
</g>
<!-- E8 -->
<g id="node12" class="node">
<title>E8</title>
<ellipse fill="#add8e6" stroke="#000000" cx="458.383" cy="-18.383" rx="18.2668" ry="18.2668"/>
<text text-anchor="middle" x="458.383" y="-15.683" font-family="Times,serif" font-size="9.00" fill="#000000">E8</text>
</g>
<!-- 0&#45;&gt;E8 -->
<g id="edge11" class="edge">
<title>0&#45;&gt;E8</title>
<path fill="none" stroke="#00ff00" stroke-width="3.7708" d="M315.9032,-661.2162C317.9983,-628.214 326.6707,-506.9712 346.383,-409.0991 374.3624,-270.1808 427.366,-108.7782 448.9155,-45.6531"/>
<polygon fill="#00ff00" stroke="#00ff00" stroke-width="3.7708" points="452.2772,-46.6398 452.2123,-36.0451 445.6561,-44.3678 452.2772,-46.6398"/>
</g>
<!-- 5518 -->
<g id="node18" class="node">
<title>5518</title>
<ellipse fill="#ffffff" stroke="#000000" cx="235.383" cy="-601.3073" rx="24.0833" ry="24.0833"/>
<text text-anchor="middle" x="235.383" y="-598.6073" font-family="Times,serif" font-size="9.00" fill="#000000">5518</text>
</g>
<!-- 0&#45;&gt;5518 -->
<g id="edge27" class="edge">
<title>0&#45;&gt;5518</title>
<path fill="none" stroke="#ff0000" stroke-width=".4939" d="M305.251,-661.1681C294.3246,-651.8067 276.4902,-636.5267 261.5753,-623.7481"/>
<polygon fill="#ff0000" stroke="#ff0000" stroke-width=".4939" points="263.5232,-620.8081 253.652,-616.9596 258.9688,-626.1238 263.5232,-620.8081"/>
</g>
<!-- 2 -->
<g id="node3" class="node">
<title>2</title>
<polygon fill="#d3d3d3" stroke="#000000" points="449.389,-678.3489 429.3771,-678.3489 429.3771,-661.3489 449.389,-661.3489 449.389,-678.3489"/>
<text text-anchor="middle" x="439.383" y="-667.1489" font-family="Times,serif" font-size="9.00" fill="#000000">2</text>
</g>
<!-- 1&#45;&gt;2 -->
<!-- E4 -->
<g id="node8" class="node">
<title>E4</title>
<ellipse fill="#add8e6" stroke="#000000" cx="238.383" cy="-18.383" rx="18.2668" ry="18.2668"/>
<text text-anchor="middle" x="238.383" y="-15.683" font-family="Times,serif" font-size="9.00" fill="#000000">E4</text>
</g>
<!-- 1&#45;&gt;E4 -->
<g id="edge12" class="edge">
<title>1&#45;&gt;E4</title>
<path fill="none" stroke="#ff0000" stroke-width="2.3155" d="M372.1886,-661.0713C370.6958,-605.6811 358.5096,-299.632 268.383,-72.7661 264.3647,-62.6512 258.8513,-52.0581 253.6464,-42.9364"/>
<polygon fill="#ff0000" stroke="#ff0000" stroke-width="2.3155" points="256.5004,-40.8854 248.4097,-34.045 250.4688,-44.4379 256.5004,-40.8854"/>
</g>
<!-- 5079 -->
<g id="node19" class="node">
<title>5079</title>
<ellipse fill="#ffffff" stroke="#000000" cx="235.383" cy="-96.8077" rx="24.0833" ry="24.0833"/>
<text text-anchor="middle" x="235.383" y="-94.1077" font-family="Times,serif" font-size="9.00" fill="#000000">5079</text>
</g>
<!-- 1&#45;&gt;5079 -->
<g id="edge20" class="edge">
<title>1&#45;&gt;5079</title>
<path fill="none" stroke="#ff0000" stroke-width=".2903" d="M369.4536,-661.108C363.8838,-644.611 351.2595,-607.8002 339.383,-577.2657 309.9739,-501.6547 321.1055,-470.7616 268.383,-409.0991 248.6665,-386.0394 226.3724,-398.8835 210.383,-373.0991 192.7353,-344.6404 200.1651,-165.4895 202.383,-156.8494 205.1845,-145.9359 210.4311,-134.8781 215.9297,-125.2771"/>
<polygon fill="#ff0000" stroke="#ff0000" stroke-width=".2903" points="219.0166,-126.9365 221.2072,-116.5706 213.0305,-123.3079 219.0166,-126.9365"/>
</g>
<!-- E5 -->
<g id="node9" class="node">
<title>E5</title>
<ellipse fill="#add8e6" stroke="#000000" cx="293.383" cy="-18.383" rx="18.2668" ry="18.2668"/>
<text text-anchor="middle" x="293.383" y="-15.683" font-family="Times,serif" font-size="9.00" fill="#000000">E5</text>
</g>
<!-- 2&#45;&gt;E5 -->
<g id="edge13" class="edge">
<title>2&#45;&gt;E5</title>
<path fill="none" stroke="#00ff00" stroke-width="1.517" d="M443.1656,-661.0941C452.7772,-638.025 477.383,-573.475 477.383,-517.224 477.383,-517.224 477.383,-517.224 477.383,-349.0575 477.383,-216.1893 362.5473,-86.8777 314.3173,-38.4273"/>
<polygon fill="#00ff00" stroke="#00ff00" stroke-width="1.517" points="316.4831,-35.6465 306.913,-31.1007 311.5595,-40.6223 316.4831,-35.6465"/>
</g>
<!-- 5328 -->
<g id="node17" class="node">
<title>5328</title>
<ellipse fill="#ffffff" stroke="#000000" cx="235.383" cy="-180.891" rx="24.0833" ry="24.0833"/>
<text text-anchor="middle" x="235.383" y="-178.191" font-family="Times,serif" font-size="9.00" fill="#000000">5328</text>
</g>
<!-- 2&#45;&gt;5328 -->
<g id="edge22" class="edge">
<title>2&#45;&gt;5328</title>
<path fill="none" stroke="#ff0000" stroke-width=".2034" d="M438.3296,-660.977C434.0921,-627.1107 416.5987,-503.1545 377.383,-409.0991 344.8589,-331.0927 287.2789,-249.2362 256.3762,-208.0228"/>
<polygon fill="#ff0000" stroke="#ff0000" stroke-width=".2034" points="259.0283,-205.727 250.2055,-199.8612 253.4446,-209.9487 259.0283,-205.727"/>
</g>
<!-- E0 -->
<g id="node4" class="node">
<title>E0</title>
<ellipse fill="#add8e6" stroke="#000000" cx="18.383" cy="-18.383" rx="18.2668" ry="18.2668"/>
<text text-anchor="middle" x="18.383" y="-15.683" font-family="Times,serif" font-size="9.00" fill="#000000">E0</text>
</g>
<!-- E1 -->
<g id="node5" class="node">
<title>E1</title>
<ellipse fill="#add8e6" stroke="#000000" cx="73.383" cy="-18.383" rx="18.2668" ry="18.2668"/>
<text text-anchor="middle" x="73.383" y="-15.683" font-family="Times,serif" font-size="9.00" fill="#000000">E1</text>
</g>
<!-- E0&#45;&gt;E1 -->
<!-- E2 -->
<g id="node6" class="node">
<title>E2</title>
<ellipse fill="#add8e6" stroke="#000000" cx="128.383" cy="-18.383" rx="18.2668" ry="18.2668"/>
<text text-anchor="middle" x="128.383" y="-15.683" font-family="Times,serif" font-size="9.00" fill="#000000">E2</text>
</g>
<!-- E1&#45;&gt;E2 -->
<!-- E3 -->
<g id="node7" class="node">
<title>E3</title>
<ellipse fill="#add8e6" stroke="#000000" cx="183.383" cy="-18.383" rx="18.2668" ry="18.2668"/>
<text text-anchor="middle" x="183.383" y="-15.683" font-family="Times,serif" font-size="9.00" fill="#000000">E3</text>
</g>
<!-- E2&#45;&gt;E3 -->
<!-- E3&#45;&gt;E4 -->
<!-- E4&#45;&gt;E5 -->
<!-- E6 -->
<g id="node10" class="node">
<title>E6</title>
<ellipse fill="#add8e6" stroke="#000000" cx="348.383" cy="-18.383" rx="18.2668" ry="18.2668"/>
<text text-anchor="middle" x="348.383" y="-15.683" font-family="Times,serif" font-size="9.00" fill="#000000">E6</text>
</g>
<!-- E5&#45;&gt;E6 -->
<!-- E6&#45;&gt;E7 -->
<!-- E7&#45;&gt;E8 -->
<!-- 5152 -->
<g id="node13" class="node">
<title>5152</title>
<ellipse fill="#ffffff" stroke="#000000" cx="235.383" cy="-517.224" rx="24.0833" ry="24.0833"/>
<text text-anchor="middle" x="235.383" y="-514.524" font-family="Times,serif" font-size="9.00" fill="#000000">5152</text>
</g>
<!-- 3976 -->
<g id="node14" class="node">
<title>3976</title>
<ellipse fill="#ffffff" stroke="#000000" cx="235.383" cy="-433.1408" rx="24.0833" ry="24.0833"/>
<text text-anchor="middle" x="235.383" y="-430.4408" font-family="Times,serif" font-size="9.00" fill="#000000">3976</text>
</g>
<!-- 5152&#45;&gt;3976 -->
<g id="edge16" class="edge">
<title>5152&#45;&gt;3976</title>
<path fill="none" stroke="#ff0000" stroke-width=".4221" d="M235.383,-492.9037C235.383,-484.9729 235.383,-476.0122 235.383,-467.4884"/>
<polygon fill="#ff0000" stroke="#ff0000" stroke-width=".4221" points="238.8831,-467.4064 235.383,-457.4065 231.8831,-467.4065 238.8831,-467.4064"/>
</g>
<!-- 4926 -->
<g id="node15" class="node">
<title>4926</title>
<ellipse fill="#ffffff" stroke="#000000" cx="243.383" cy="-349.0575" rx="24.0833" ry="24.0833"/>
<text text-anchor="middle" x="243.383" y="-346.3575" font-family="Times,serif" font-size="9.00" fill="#000000">4926</text>
</g>
<!-- 3976&#45;&gt;4926 -->
<g id="edge14" class="edge">
<title>3976&#45;&gt;4926</title>
<path fill="none" stroke="#00ff00" stroke-width=".228" d="M237.697,-408.8204C238.4581,-400.8206 239.3189,-391.773 240.1362,-383.1829"/>
<polygon fill="#00ff00" stroke="#00ff00" stroke-width=".228" points="243.639,-383.3194 241.1019,-373.0328 236.6704,-382.6564 243.639,-383.3194"/>
</g>
<!-- 4145 -->
<g id="node16" class="node">
<title>4145</title>
<ellipse fill="#ffffff" stroke="#000000" cx="73.383" cy="-349.0575" rx="24.0833" ry="24.0833"/>
<text text-anchor="middle" x="73.383" y="-346.3575" font-family="Times,serif" font-size="9.00" fill="#000000">4145</text>
</g>
<!-- 3976&#45;&gt;4145 -->
<g id="edge26" class="edge">
<title>3976&#45;&gt;4145</title>
<path fill="none" stroke="#ff0000" stroke-width=".3077" d="M212.8071,-424.2046C186.5183,-413.4451 142.1351,-394.1729 106.383,-373.0991 104.6427,-372.0733 102.8809,-370.9779 101.1239,-369.8412"/>
<polygon fill="#ff0000" stroke="#ff0000" stroke-width=".3077" points="102.7313,-366.7002 92.5014,-363.9433 98.7792,-372.4779 102.7313,-366.7002"/>
</g>
<!-- 4926&#45;&gt;E8 -->
<g id="edge15" class="edge">
<title>4926&#45;&gt;E8</title>
<path fill="none" stroke="#00ff00" stroke-width=".1006" d="M256.5086,-328.8701C294.1353,-270.9995 402.2679,-104.6894 442.7949,-42.3579"/>
<polygon fill="#00ff00" stroke="#00ff00" stroke-width=".1006" points="445.7506,-44.2328 448.2674,-33.9412 439.882,-40.4171 445.7506,-44.2328"/>
</g>
<!-- 4187 -->
<g id="node20" class="node">
<title>4187</title>
<ellipse fill="#ffffff" stroke="#000000" cx="235.383" cy="-264.9743" rx="24.0833" ry="24.0833"/>
<text text-anchor="middle" x="235.383" y="-262.2743" font-family="Times,serif" font-size="9.00" fill="#000000">4187</text>
</g>
<!-- 4926&#45;&gt;4187 -->
<g id="edge21" class="edge">
<title>4926&#45;&gt;4187</title>
<path fill="none" stroke="#ff0000" stroke-width=".7645" d="M241.0691,-324.7372C240.308,-316.7374 239.4472,-307.6898 238.6299,-299.0996"/>
<polygon fill="#ff0000" stroke="#ff0000" stroke-width=".7645" points="242.0957,-298.5731 237.6642,-288.9496 235.1271,-299.2362 242.0957,-298.5731"/>
</g>
<!-- 4145&#45;&gt;E1 -->
<g id="edge19" class="edge">
<title>4145&#45;&gt;E1</title>
<path fill="none" stroke="#00ff00" stroke-width=".1384" d="M73.383,-325.0099C73.383,-265.4408 73.383,-111.2262 73.383,-47.0561"/>
<polygon fill="#00ff00" stroke="#00ff00" stroke-width=".1384" points="76.8831,-46.8589 73.383,-36.8589 69.8831,-46.859 76.8831,-46.8589"/>
</g>
<!-- 5167 -->
<g id="node21" class="node">
<title>5167</title>
<ellipse fill="none" stroke="#000000" cx="129.383" cy="-264.9743" rx="24.0833" ry="24.0833"/>
<text text-anchor="middle" x="129.383" y="-262.2743" font-family="Times,serif" font-size="9.00" fill="#000000">5167</text>
</g>
<!-- 4145&#45;&gt;5167 -->
<g id="edge17" class="edge">
<title>4145&#45;&gt;5167</title>
<path fill="none" stroke="#ff0000" stroke-width=".1798" d="M86.9391,-328.7033C93.9553,-318.1686 102.6376,-305.1321 110.3181,-293.6001"/>
<polygon fill="#ff0000" stroke="#ff0000" stroke-width=".1798" points="113.3217,-295.4042 115.9518,-285.141 107.4955,-291.5239 113.3217,-295.4042"/>
</g>
<!-- 5328&#45;&gt;5079 -->
<g id="edge23" class="edge">
<title>5328&#45;&gt;5079</title>
<path fill="none" stroke="#ff0000" stroke-width=".1763" d="M235.383,-156.5706C235.383,-148.6398 235.383,-139.6791 235.383,-131.1553"/>
<polygon fill="#ff0000" stroke="#ff0000" stroke-width=".1763" points="238.8831,-131.0734 235.383,-121.0734 231.8831,-131.0735 238.8831,-131.0734"/>
</g>
<!-- 5518&#45;&gt;5152 -->
<g id="edge28" class="edge">
<title>5518&#45;&gt;5152</title>
<path fill="none" stroke="#00ff00" stroke-width=".1789" d="M235.383,-576.9869C235.383,-569.0561 235.383,-560.0955 235.383,-551.5717"/>
<polygon fill="#00ff00" stroke="#00ff00" stroke-width=".1789" points="238.8831,-551.4897 235.383,-541.4897 231.8831,-551.4898 238.8831,-551.4897"/>
</g>
<!-- 5079&#45;&gt;E4 -->
<g id="edge25" class="edge">
<title>5079&#45;&gt;E4</title>
<path fill="none" stroke="#ff0000" stroke-width=".1718" d="M236.3158,-72.4236C236.6254,-64.33 236.9728,-55.248 237.2932,-46.8729"/>
<polygon fill="#ff0000" stroke="#ff0000" stroke-width=".1718" points="240.7948,-46.8967 237.6797,-36.7702 233.7999,-46.629 240.7948,-46.8967"/>
</g>
<!-- 4187&#45;&gt;5328 -->
<g id="edge29" class="edge">
<title>4187&#45;&gt;5328</title>
<path fill="none" stroke="#ff0000" stroke-width=".13" d="M235.383,-240.6539C235.383,-232.7231 235.383,-223.7624 235.383,-215.2386"/>
<polygon fill="#ff0000" stroke="#ff0000" stroke-width=".13" points="238.8831,-215.1567 235.383,-205.1567 231.8831,-215.1567 238.8831,-215.1567"/>
</g>
<!-- 4748 -->
<g id="node22" class="node">
<title>4748</title>
<ellipse fill="none" stroke="#000000" cx="139.383" cy="-349.0575" rx="24.0833" ry="24.0833"/>
<text text-anchor="middle" x="139.383" y="-346.3575" font-family="Times,serif" font-size="9.00" fill="#000000">4748</text>
</g>
<!-- 4748&#45;&gt;5167 -->
<g id="edge24" class="edge">
<title>4748&#45;&gt;5167</title>
<path fill="none" stroke="#ff0000" stroke-width=".1258" d="M136.4906,-324.7372C135.5392,-316.7374 134.4632,-307.6898 133.4416,-299.0996"/>
<polygon fill="#ff0000" stroke="#ff0000" stroke-width=".1258" points="136.891,-298.4662 132.2344,-288.9496 129.94,-299.293 136.891,-298.4662"/>
</g>
</g>
</svg>
