<?xml version="1.0" encoding="utf-8" standalone="no"?>
<!DOCTYPE svg PUBLIC "-//W3C//DTD SVG 1.1//EN"
  "http://www.w3.org/Graphics/SVG/1.1/DTD/svg11.dtd">
<!-- Created with matplotlib (https://matplotlib.org/) -->
<svg height="345.6pt" version="1.1" viewBox="0 0 460.8 345.6" width="460.8pt" xmlns="http://www.w3.org/2000/svg" xmlns:xlink="http://www.w3.org/1999/xlink">
 <defs>
  <style type="text/css">
*{stroke-linecap:butt;stroke-linejoin:round;}
  </style>
 </defs>
 <g id="figure_1">
  <g id="patch_1">
   <path d="M 0 345.6 
L 460.8 345.6 
L 460.8 0 
L 0 0 
z
" style="fill:#ffffff;"/>
  </g>
  <g id="axes_1">
   <g id="patch_2">
    <path d="M 57.6 307.584 
L 414.72 307.584 
L 414.72 41.472 
L 57.6 41.472 
z
" style="fill:#ffffff;"/>
   </g>
   <g id="PolyCollection_1">
    <path clip-path="url(#p31d9eae2d0)" d="M 73.832727 191.208233 
L 73.832727 203.744115 
L 74.918528 200.664722 
L 76.00433 204.998197 
L 77.090131 211.696251 
L 78.175932 209.407473 
L 79.261733 195.45841 
L 80.347534 172.523232 
L 81.433335 151.68868 
L 82.519137 158.448137 
L 83.604938 149.204651 
L 84.690739 162.242084 
L 85.77654 162.310905 
L 86.862341 156.809842 
L 87.948142 159.339749 
L 89.033943 158.960241 
L 90.119745 148.91882 
L 91.205546 159.615419 
L 92.291347 156.912692 
L 93.377148 145.233284 
L 94.462949 149.15319 
L 95.54875 173.659838 
L 96.634552 176.790618 
L 97.720353 134.807272 
L 98.806154 147.314714 
L 99.891955 187.56011 
L 100.977756 168.19933 
L 102.063557 164.011927 
L 103.149358 146.557356 
L 104.23516 173.628496 
L 105.320961 160.527319 
L 106.406762 173.636985 
L 107.492563 144.423094 
L 108.578364 158.756602 
L 109.664165 157.529963 
L 110.749967 137.594354 
L 111.835768 137.660789 
L 112.921569 149.238674 
L 114.00737 135.426962 
L 115.093171 135.415637 
L 116.178972 126.75941 
L 117.264773 127.476016 
L 118.350575 135.736936 
L 119.436376 140.574576 
L 120.522177 124.940464 
L 121.607978 135.790201 
L 122.693779 149.035594 
L 123.77958 144.639175 
L 124.865382 125.388234 
L 125.951183 137.46997 
L 127.036984 146.860908 
L 128.122785 131.175544 
L 129.208586 161.36459 
L 130.294387 152.968941 
L 131.380189 118.654989 
L 132.46599 148.788788 
L 133.551791 132.958095 
L 134.637592 144.474349 
L 135.723393 141.373036 
L 136.809194 131.890937 
L 137.894995 154.610975 
L 138.980797 130.997923 
L 140.066598 122.77247 
L 141.152399 144.53745 
L 142.2382 150.654686 
L 143.324001 132.295842 
L 144.409802 142.261322 
L 145.495604 116.528431 
L 146.581405 122.064527 
L 147.667206 122.387784 
L 148.753007 129.806052 
L 149.838808 120.165269 
L 150.924609 132.896475 
L 152.01041 122.883397 
L 153.096212 152.995949 
L 154.182013 147.393755 
L 155.267814 116.365152 
L 156.353615 148.404776 
L 157.439416 140.033762 
L 158.525217 138.894859 
L 159.611019 116.366349 
L 160.69682 129.828159 
L 161.782621 149.11216 
L 162.868422 138.906992 
L 163.954223 146.932343 
L 165.040024 143.46663 
L 166.125825 137.695254 
L 167.211627 137.860685 
L 168.297428 160.595268 
L 169.383229 146.434038 
L 170.46903 143.166615 
L 171.554831 125.756412 
L 172.640632 144.136943 
L 173.726434 133.917357 
L 174.812235 112.202211 
L 175.898036 126.975377 
L 176.983837 127.933826 
L 178.069638 146.103163 
L 179.155439 134.368767 
L 180.24124 137.289033 
L 181.327042 133.329669 
L 182.412843 131.487851 
L 183.498644 134.744122 
L 184.584445 134.471073 
L 185.670246 106.703334 
L 186.756047 131.358536 
L 187.841849 133.322723 
L 188.92765 138.63137 
L 190.013451 130.457875 
L 191.099252 129.13297 
L 192.185053 115.651439 
L 193.270854 114.46979 
L 194.356656 111.436207 
L 195.442457 137.684418 
L 196.528258 158.731525 
L 197.614059 171.487163 
L 198.69986 127.740173 
L 199.785661 117.571435 
L 200.871462 128.822583 
L 201.957264 130.31675 
L 203.043065 154.556955 
L 204.128866 157.079011 
L 205.214667 136.512713 
L 206.300468 145.124785 
L 207.386269 119.882533 
L 208.472071 120.878 
L 209.557872 124.610628 
L 210.643673 132.809116 
L 211.729474 122.774005 
L 212.815275 147.117344 
L 213.901076 130.057517 
L 214.986877 140.10875 
L 216.072679 129.2722 
L 217.15848 130.867058 
L 218.244281 150.339295 
L 219.330082 130.66869 
L 220.415883 118.283508 
L 221.501684 122.698453 
L 222.587486 145.419046 
L 223.673287 155.835418 
L 224.759088 129.548711 
L 225.844889 119.568833 
L 226.93069 135.749336 
L 228.016491 122.534191 
L 229.102292 125.342977 
L 230.188094 138.80778 
L 231.273895 137.827534 
L 232.359696 141.496354 
L 233.445497 125.026954 
L 234.531298 138.295428 
L 235.617099 125.903857 
L 236.702901 175.817555 
L 237.788702 190.316239 
L 238.874503 191.019407 
L 239.960304 196.595343 
L 241.046105 191.288284 
L 242.131906 161.390625 
L 243.217708 149.265756 
L 244.303509 154.689086 
L 245.38931 133.094309 
L 246.475111 144.448407 
L 247.560912 142.670029 
L 248.646713 143.459591 
L 249.732514 133.410752 
L 250.818316 151.404946 
L 251.904117 154.759674 
L 252.989918 158.637391 
L 254.075719 148.901498 
L 255.16152 148.187808 
L 256.247321 123.161557 
L 257.333123 148.655193 
L 258.418924 135.523508 
L 259.504725 135.913418 
L 260.590526 153.736299 
L 261.676327 137.41153 
L 262.762128 138.13887 
L 263.847929 133.874312 
L 264.933731 139.273305 
L 266.019532 149.72013 
L 267.105333 124.589037 
L 268.191134 139.309395 
L 269.276935 128.787628 
L 270.362736 132.132547 
L 271.448538 139.342743 
L 272.534339 128.179304 
L 273.62014 125.688638 
L 274.705941 148.977394 
L 275.791742 122.32824 
L 276.877543 129.113773 
L 277.963344 130.831323 
L 279.049146 122.48483 
L 280.134947 127.575393 
L 281.220748 139.318101 
L 282.306549 136.807594 
L 283.39235 145.915513 
L 284.478151 132.789927 
L 285.563953 118.333847 
L 286.649754 148.75829 
L 287.735555 144.005966 
L 288.821356 141.911408 
L 289.907157 138.01285 
L 290.992958 133.759752 
L 292.07876 134.69108 
L 293.164561 134.684139 
L 294.250362 127.587546 
L 295.336163 140.10661 
L 296.421964 129.55017 
L 297.507765 176.746229 
L 298.593566 148.143518 
L 299.679368 157.711946 
L 300.765169 148.863847 
L 301.85097 133.458034 
L 302.936771 142.000228 
L 304.022572 140.142896 
L 305.108373 131.159925 
L 306.194175 131.720958 
L 307.279976 131.669826 
L 308.365777 128.52186 
L 309.451578 122.622889 
L 310.537379 125.601602 
L 311.62318 124.040699 
L 312.708981 120.527245 
L 313.794783 123.930648 
L 314.880584 131.822395 
L 315.966385 130.815654 
L 317.052186 141.211425 
L 318.137987 130.147013 
L 319.223788 120.9081 
L 320.30959 107.526139 
L 321.395391 143.734832 
L 322.481192 117.28405 
L 323.566993 139.253829 
L 324.652794 136.751472 
L 325.738595 136.13333 
L 326.824396 125.886259 
L 327.910198 130.011516 
L 328.995999 137.474672 
L 330.0818 128.112929 
L 331.167601 119.749049 
L 332.253402 127.310366 
L 333.339203 141.87247 
L 334.425005 153.291174 
L 335.510806 108.149576 
L 336.596607 118.431455 
L 337.682408 130.832548 
L 338.768209 135.874864 
L 339.85401 116.3534 
L 340.939811 142.202133 
L 342.025613 142.107244 
L 343.111414 137.866495 
L 344.197215 125.854379 
L 345.283016 142.267705 
L 346.368817 120.938783 
L 347.454618 126.284784 
L 348.54042 130.502994 
L 349.626221 128.287828 
L 350.712022 139.665604 
L 351.797823 159.885521 
L 352.883624 122.089407 
L 353.969425 118.640677 
L 355.055227 125.771774 
L 356.141028 135.122308 
L 357.226829 112.775594 
L 358.31263 115.308082 
L 359.398431 127.157972 
L 360.484232 105.919445 
L 361.570033 121.105362 
L 362.655835 113.517151 
L 363.741636 124.237102 
L 364.827437 141.363322 
L 365.913238 122.73239 
L 366.999039 144.697016 
L 368.08484 106.33185 
L 369.170642 145.730048 
L 370.256443 129.213721 
L 371.342244 129.923733 
L 372.428045 120.364592 
L 373.513846 116.838015 
L 374.599647 141.304975 
L 375.685448 119.909505 
L 376.77125 135.763067 
L 377.857051 114.949579 
L 378.942852 109.487227 
L 380.028653 106.363172 
L 381.114454 117.702699 
L 382.200255 137.797261 
L 383.286057 132.725212 
L 384.371858 144.967487 
L 385.457659 144.989135 
L 386.54346 128.762318 
L 387.629261 118.821795 
L 388.715062 127.095894 
L 389.800863 124.385923 
L 390.886665 136.19487 
L 391.972466 118.624641 
L 393.058267 136.729703 
L 394.144068 139.28906 
L 395.229869 110.796806 
L 396.31567 117.541908 
L 397.401472 131.805498 
L 398.487273 120.914197 
L 398.487273 74.964844 
L 398.487273 74.964844 
L 397.401472 82.576253 
L 396.31567 79.945018 
L 395.229869 70.325206 
L 394.144068 74.898166 
L 393.058267 77.355592 
L 391.972466 75.377857 
L 390.886665 76.649822 
L 389.800863 79.542406 
L 388.715062 69.102159 
L 387.629261 77.185482 
L 386.54346 64.640777 
L 385.457659 66.308558 
L 384.371858 70.651645 
L 383.286057 69.559389 
L 382.200255 63.948345 
L 381.114454 74.750133 
L 380.028653 69.736351 
L 378.942852 73.303125 
L 377.857051 72.528806 
L 376.77125 70.517707 
L 375.685448 61.08427 
L 374.599647 82.154125 
L 373.513846 67.243295 
L 372.428045 72.576427 
L 371.342244 83.137993 
L 370.256443 74.437618 
L 369.170642 77.313369 
L 368.08484 67.796356 
L 366.999039 72.064799 
L 365.913238 65.93504 
L 364.827437 80.8436 
L 363.741636 68.055468 
L 362.655835 77.49937 
L 361.570033 63.646919 
L 360.484232 71.012202 
L 359.398431 60.204409 
L 358.31263 76.10242 
L 357.226829 69.240915 
L 356.141028 64.415043 
L 355.055227 63.620684 
L 353.969425 64.19753 
L 352.883624 67.747735 
L 351.797823 70.133946 
L 350.712022 70.043219 
L 349.626221 73.476733 
L 348.54042 62.390639 
L 347.454618 66.781149 
L 346.368817 61.744752 
L 345.283016 65.492125 
L 344.197215 60.637968 
L 343.111414 61.444344 
L 342.025613 60.316381 
L 340.939811 67.520106 
L 339.85401 66.475139 
L 338.768209 60.661536 
L 337.682408 74.578192 
L 336.596607 67.664543 
L 335.510806 72.658553 
L 334.425005 65.479412 
L 333.339203 63.721944 
L 332.253402 66.538597 
L 331.167601 65.051566 
L 330.0818 65.223681 
L 328.995999 62.677199 
L 327.910198 62.513063 
L 326.824396 70.447133 
L 325.738595 69.925102 
L 324.652794 72.758092 
L 323.566993 67.200951 
L 322.481192 71.576722 
L 321.395391 77.376153 
L 320.30959 80.839412 
L 319.223788 70.388765 
L 318.137987 86.55923 
L 317.052186 79.935913 
L 315.966385 73.609049 
L 314.880584 68.87083 
L 313.794783 76.557324 
L 312.708981 77.468877 
L 311.62318 67.990669 
L 310.537379 81.4332 
L 309.451578 70.442183 
L 308.365777 77.488236 
L 307.279976 61.998239 
L 306.194175 81.181736 
L 305.108373 71.505376 
L 304.022572 69.42467 
L 302.936771 71.77748 
L 301.85097 69.539462 
L 300.765169 75.212316 
L 299.679368 79.83107 
L 298.593566 72.985825 
L 297.507765 76.506681 
L 296.421964 71.500736 
L 295.336163 70.504996 
L 294.250362 82.246485 
L 293.164561 83.071408 
L 292.07876 83.586487 
L 290.992958 84.691822 
L 289.907157 81.879113 
L 288.821356 80.020299 
L 287.735555 80.137196 
L 286.649754 74.810592 
L 285.563953 77.429189 
L 284.478151 80.992467 
L 283.39235 82.164431 
L 282.306549 74.712714 
L 281.220748 77.180731 
L 280.134947 75.747267 
L 279.049146 88.900139 
L 277.963344 73.10036 
L 276.877543 78.288376 
L 275.791742 75.542211 
L 274.705941 72.538631 
L 273.62014 84.45895 
L 272.534339 85.342081 
L 271.448538 84.56104 
L 270.362736 78.392056 
L 269.276935 81.794977 
L 268.191134 76.82209 
L 267.105333 87.907642 
L 266.019532 85.716429 
L 264.933731 80.106304 
L 263.847929 75.731922 
L 262.762128 75.904535 
L 261.676327 80.005671 
L 260.590526 77.669105 
L 259.504725 88.077368 
L 258.418924 92.807778 
L 257.333123 86.559024 
L 256.247321 76.748639 
L 255.16152 85.663357 
L 254.075719 68.796046 
L 252.989918 81.371676 
L 251.904117 88.545854 
L 250.818316 86.844721 
L 249.732514 75.161109 
L 248.646713 83.431307 
L 247.560912 89.015719 
L 246.475111 82.44249 
L 245.38931 74.423845 
L 244.303509 82.081524 
L 243.217708 71.670247 
L 242.131906 73.987932 
L 241.046105 91.014073 
L 239.960304 88.62646 
L 238.874503 114.638513 
L 237.788702 109.396453 
L 236.702901 112.391363 
L 235.617099 75.398392 
L 234.531298 62.987487 
L 233.445497 78.121699 
L 232.359696 79.226973 
L 231.273895 71.749699 
L 230.188094 71.929497 
L 229.102292 67.258938 
L 228.016491 76.05162 
L 226.93069 66.335943 
L 225.844889 64.361749 
L 224.759088 60.346434 
L 223.673287 67.062993 
L 222.587486 68.885368 
L 221.501684 63.0882 
L 220.415883 72.713678 
L 219.330082 68.555145 
L 218.244281 70.567706 
L 217.15848 65.248727 
L 216.072679 70.164311 
L 214.986877 66.752045 
L 213.901076 75.295221 
L 212.815275 73.64958 
L 211.729474 69.090256 
L 210.643673 63.011923 
L 209.557872 78.897791 
L 208.472071 64.057955 
L 207.386269 67.083499 
L 206.300468 68.460718 
L 205.214667 73.315863 
L 204.128866 73.311354 
L 203.043065 78.132649 
L 201.957264 69.293768 
L 200.871462 67.963975 
L 199.785661 75.861253 
L 198.69986 62.174306 
L 197.614059 73.674815 
L 196.528258 63.646572 
L 195.442457 68.743067 
L 194.356656 71.49867 
L 193.270854 66.589682 
L 192.185053 67.109431 
L 191.099252 62.492574 
L 190.013451 61.689689 
L 188.92765 66.006007 
L 187.841849 64.924742 
L 186.756047 59.822324 
L 185.670246 71.823374 
L 184.584445 53.568 
L 183.498644 74.987783 
L 182.412843 63.917505 
L 181.327042 55.482767 
L 180.24124 73.23557 
L 179.155439 60.417899 
L 178.069638 64.924125 
L 176.983837 66.562829 
L 175.898036 60.638347 
L 174.812235 70.800335 
L 173.726434 57.282838 
L 172.640632 64.231911 
L 171.554831 65.260108 
L 170.46903 65.395579 
L 169.383229 66.255981 
L 168.297428 66.372966 
L 167.211627 66.36101 
L 166.125825 60.726217 
L 165.040024 67.550992 
L 163.954223 72.379597 
L 162.868422 65.933393 
L 161.782621 61.982798 
L 160.69682 60.579339 
L 159.611019 68.52127 
L 158.525217 58.511574 
L 157.439416 60.630463 
L 156.353615 70.636487 
L 155.267814 68.599803 
L 154.182013 56.344587 
L 153.096212 59.510397 
L 152.01041 61.250194 
L 150.924609 60.304797 
L 149.838808 63.968321 
L 148.753007 62.573521 
L 147.667206 59.406383 
L 146.581405 56.906865 
L 145.495604 69.712573 
L 144.409802 55.560793 
L 143.324001 73.385575 
L 142.2382 74.641151 
L 141.152399 66.064489 
L 140.066598 65.082929 
L 138.980797 75.012173 
L 137.894995 77.113441 
L 136.809194 85.642269 
L 135.723393 82.743422 
L 134.637592 79.60344 
L 133.551791 65.666385 
L 132.46599 67.961387 
L 131.380189 69.703096 
L 130.294387 95.228108 
L 129.208586 88.040838 
L 128.122785 73.713176 
L 127.036984 80.290999 
L 125.951183 75.703402 
L 124.865382 74.367289 
L 123.77958 70.013253 
L 122.693779 78.251653 
L 121.607978 67.329451 
L 120.522177 70.223216 
L 119.436376 72.743801 
L 118.350575 64.095923 
L 117.264773 65.435245 
L 116.178972 65.53316 
L 115.093171 81.81789 
L 114.00737 71.230826 
L 112.921569 62.909992 
L 111.835768 70.930407 
L 110.749967 62.934532 
L 109.664165 70.134298 
L 108.578364 76.969969 
L 107.492563 68.90495 
L 106.406762 76.010119 
L 105.320961 77.190661 
L 104.23516 73.147498 
L 103.149358 77.40443 
L 102.063557 75.562124 
L 100.977756 88.756055 
L 99.891955 81.691747 
L 98.806154 66.090666 
L 97.720353 75.620661 
L 96.634552 82.030505 
L 95.54875 75.19457 
L 94.462949 74.073901 
L 93.377148 72.299921 
L 92.291347 71.573267 
L 91.205546 73.559053 
L 90.119745 71.572499 
L 89.033943 77.810369 
L 87.948142 86.856223 
L 86.862341 81.236817 
L 85.77654 79.950583 
L 84.690739 77.766984 
L 83.604938 72.32104 
L 82.519137 74.977678 
L 81.433335 82.549167 
L 80.347534 73.827413 
L 79.261733 110.006169 
L 78.175932 158.699511 
L 77.090131 181.438693 
L 76.00433 185.768323 
L 74.918528 195.931022 
L 73.832727 191.208233 
z
" style="fill:#0000ff;fill-opacity:0.5;"/>
   </g>
   <g id="PolyCollection_2">
    <path clip-path="url(#p31d9eae2d0)" d="M 73.832727 192.208877 
L 73.832727 203.290188 
L 74.918528 202.114864 
L 76.00433 201.442826 
L 77.090131 201.378913 
L 78.175932 204.961842 
L 79.261733 202.402261 
L 80.347534 202.770235 
L 81.433335 201.665592 
L 82.519137 203.094108 
L 83.604938 202.649693 
L 84.690739 197.609059 
L 85.77654 198.517963 
L 86.862341 196.308595 
L 87.948142 187.689076 
L 89.033943 193.679183 
L 90.119745 191.5513 
L 91.205546 189.360995 
L 92.291347 186.897297 
L 93.377148 190.305768 
L 94.462949 187.439985 
L 95.54875 188.166752 
L 96.634552 185.37215 
L 97.720353 188.573294 
L 98.806154 181.4175 
L 99.891955 180.305341 
L 100.977756 179.672603 
L 102.063557 180.366432 
L 103.149358 171.513957 
L 104.23516 171.228594 
L 105.320961 165.369941 
L 106.406762 168.411636 
L 107.492563 169.381045 
L 108.578364 169.206002 
L 109.664165 175.458621 
L 110.749967 174.509399 
L 111.835768 176.029449 
L 112.921569 170.59083 
L 114.00737 177.260208 
L 115.093171 169.60234 
L 116.178972 176.010663 
L 117.264773 172.638577 
L 118.350575 166.109408 
L 119.436376 167.741902 
L 120.522177 167.084887 
L 121.607978 172.02755 
L 122.693779 172.175508 
L 123.77958 162.897977 
L 124.865382 155.502891 
L 125.951183 155.365435 
L 127.036984 150.63742 
L 128.122785 153.700531 
L 129.208586 154.931095 
L 130.294387 154.084428 
L 131.380189 148.871045 
L 132.46599 159.81661 
L 133.551791 147.868997 
L 134.637592 149.100982 
L 135.723393 150.499445 
L 136.809194 146.215975 
L 137.894995 137.503884 
L 138.980797 139.336725 
L 140.066598 138.772953 
L 141.152399 148.580735 
L 142.2382 144.521484 
L 143.324001 144.577575 
L 144.409802 153.294439 
L 145.495604 143.573508 
L 146.581405 149.44248 
L 147.667206 140.130354 
L 148.753007 148.086313 
L 149.838808 146.797484 
L 150.924609 142.260467 
L 152.01041 147.788565 
L 153.096212 146.998977 
L 154.182013 147.534774 
L 155.267814 144.58985 
L 156.353615 135.740581 
L 157.439416 139.030838 
L 158.525217 139.672058 
L 159.611019 143.818713 
L 160.69682 138.103139 
L 161.782621 139.033121 
L 162.868422 151.002724 
L 163.954223 149.073801 
L 165.040024 145.095604 
L 166.125825 138.783449 
L 167.211627 136.565164 
L 168.297428 148.554134 
L 169.383229 150.509741 
L 170.46903 149.377767 
L 171.554831 150.974482 
L 172.640632 138.504372 
L 173.726434 146.837911 
L 174.812235 135.166511 
L 175.898036 138.162076 
L 176.983837 145.809931 
L 178.069638 142.124205 
L 179.155439 139.666628 
L 180.24124 142.38791 
L 181.327042 137.025033 
L 182.412843 140.014848 
L 183.498644 141.628436 
L 184.584445 139.447838 
L 185.670246 140.978083 
L 186.756047 140.86373 
L 187.841849 142.134292 
L 188.92765 144.325039 
L 190.013451 139.318326 
L 191.099252 131.705159 
L 192.185053 141.849891 
L 193.270854 139.6419 
L 194.356656 139.662224 
L 195.442457 151.22451 
L 196.528258 153.253529 
L 197.614059 160.152936 
L 198.69986 156.157435 
L 199.785661 153.579577 
L 200.871462 159.734461 
L 201.957264 155.704409 
L 203.043065 146.074127 
L 204.128866 149.710067 
L 205.214667 155.51668 
L 206.300468 153.933267 
L 207.386269 149.438053 
L 208.472071 137.601808 
L 209.557872 143.757138 
L 210.643673 144.557876 
L 211.729474 135.464116 
L 212.815275 142.222877 
L 213.901076 145.725159 
L 214.986877 135.089417 
L 216.072679 131.381842 
L 217.15848 141.118862 
L 218.244281 149.467697 
L 219.330082 153.095079 
L 220.415883 142.174382 
L 221.501684 139.661029 
L 222.587486 138.52977 
L 223.673287 143.295226 
L 224.759088 142.455483 
L 225.844889 130.795327 
L 226.93069 146.295354 
L 228.016491 152.779581 
L 229.102292 147.631217 
L 230.188094 141.908639 
L 231.273895 147.290338 
L 232.359696 136.042802 
L 233.445497 145.132672 
L 234.531298 152.318818 
L 235.617099 138.42579 
L 236.702901 146.354925 
L 237.788702 135.743299 
L 238.874503 150.565246 
L 239.960304 144.927929 
L 241.046105 142.082733 
L 242.131906 157.968266 
L 243.217708 148.404574 
L 244.303509 149.302119 
L 245.38931 143.989807 
L 246.475111 144.94381 
L 247.560912 140.526463 
L 248.646713 131.957517 
L 249.732514 147.889008 
L 250.818316 155.826388 
L 251.904117 154.045449 
L 252.989918 148.385154 
L 254.075719 149.940649 
L 255.16152 147.236979 
L 256.247321 138.017066 
L 257.333123 139.251791 
L 258.418924 155.632155 
L 259.504725 147.222567 
L 260.590526 139.238127 
L 261.676327 146.029669 
L 262.762128 143.246977 
L 263.847929 141.467074 
L 264.933731 143.205046 
L 266.019532 151.558204 
L 267.105333 152.251332 
L 268.191134 151.39817 
L 269.276935 152.402381 
L 270.362736 143.90269 
L 271.448538 145.533975 
L 272.534339 149.951965 
L 273.62014 142.070646 
L 274.705941 139.997681 
L 275.791742 139.825492 
L 276.877543 139.684501 
L 277.963344 148.415806 
L 279.049146 138.183836 
L 280.134947 149.008696 
L 281.220748 148.43678 
L 282.306549 152.180962 
L 283.39235 154.103985 
L 284.478151 151.969226 
L 285.563953 143.559781 
L 286.649754 143.58047 
L 287.735555 144.660288 
L 288.821356 134.446263 
L 289.907157 147.485308 
L 290.992958 136.860143 
L 292.07876 144.330515 
L 293.164561 133.751438 
L 294.250362 141.80168 
L 295.336163 129.743941 
L 296.421964 142.468388 
L 297.507765 151.73094 
L 298.593566 136.474725 
L 299.679368 143.342692 
L 300.765169 158.169418 
L 301.85097 145.365781 
L 302.936771 151.660321 
L 304.022572 143.116121 
L 305.108373 144.381188 
L 306.194175 136.601952 
L 307.279976 140.80186 
L 308.365777 144.848441 
L 309.451578 146.044732 
L 310.537379 146.645848 
L 311.62318 139.724712 
L 312.708981 151.886317 
L 313.794783 158.973115 
L 314.880584 141.129546 
L 315.966385 151.165347 
L 317.052186 141.807427 
L 318.137987 139.451462 
L 319.223788 156.554866 
L 320.30959 148.171311 
L 321.395391 150.807997 
L 322.481192 148.258014 
L 323.566993 145.083106 
L 324.652794 143.754859 
L 325.738595 162.269453 
L 326.824396 148.630798 
L 327.910198 141.130358 
L 328.995999 139.904697 
L 330.0818 147.153627 
L 331.167601 146.50004 
L 332.253402 141.655538 
L 333.339203 138.837749 
L 334.425005 140.164447 
L 335.510806 125.23011 
L 336.596607 161.012398 
L 337.682408 141.263984 
L 338.768209 146.518157 
L 339.85401 151.052925 
L 340.939811 150.700378 
L 342.025613 149.632886 
L 343.111414 151.804337 
L 344.197215 153.026812 
L 345.283016 153.76656 
L 346.368817 149.339335 
L 347.454618 164.894177 
L 348.54042 171.209418 
L 349.626221 157.577769 
L 350.712022 151.710133 
L 351.797823 147.796219 
L 352.883624 152.352996 
L 353.969425 158.829234 
L 355.055227 143.040531 
L 356.141028 146.933063 
L 357.226829 148.940052 
L 358.31263 154.134495 
L 359.398431 164.619448 
L 360.484232 154.506669 
L 361.570033 146.207235 
L 362.655835 148.665192 
L 363.741636 149.654492 
L 364.827437 156.28394 
L 365.913238 145.512531 
L 366.999039 154.410452 
L 368.08484 150.881463 
L 369.170642 142.1562 
L 370.256443 158.974226 
L 371.342244 148.938514 
L 372.428045 149.089752 
L 373.513846 140.342171 
L 374.599647 146.237437 
L 375.685448 147.520549 
L 376.77125 148.896899 
L 377.857051 150.824436 
L 378.942852 159.577734 
L 380.028653 151.351206 
L 381.114454 152.284535 
L 382.200255 144.677441 
L 383.286057 148.580745 
L 384.371858 158.325243 
L 385.457659 153.484565 
L 386.54346 165.810361 
L 387.629261 154.009466 
L 388.715062 162.75226 
L 389.800863 168.89229 
L 390.886665 154.130273 
L 391.972466 167.457707 
L 393.058267 153.065555 
L 394.144068 165.831814 
L 395.229869 165.563309 
L 396.31567 157.639311 
L 397.401472 164.135081 
L 398.487273 153.780841 
L 398.487273 100.534343 
L 398.487273 100.534343 
L 397.401472 112.020419 
L 396.31567 106.970771 
L 395.229869 108.623313 
L 394.144068 110.843265 
L 393.058267 105.425358 
L 391.972466 115.617266 
L 390.886665 103.462672 
L 389.800863 109.271462 
L 388.715062 106.562247 
L 387.629261 105.613305 
L 386.54346 109.881575 
L 385.457659 108.167046 
L 384.371858 108.460283 
L 383.286057 110.960846 
L 382.200255 104.874219 
L 381.114454 103.757424 
L 380.028653 104.187569 
L 378.942852 112.526811 
L 377.857051 100.501095 
L 376.77125 107.611768 
L 375.685448 114.434094 
L 374.599647 101.814961 
L 373.513846 97.145363 
L 372.428045 108.077281 
L 371.342244 100.360468 
L 370.256443 118.364133 
L 369.170642 99.687684 
L 368.08484 97.990891 
L 366.999039 102.232697 
L 365.913238 104.26459 
L 364.827437 100.239244 
L 363.741636 101.862934 
L 362.655835 101.920139 
L 361.570033 101.137047 
L 360.484232 96.39228 
L 359.398431 112.120994 
L 358.31263 109.576779 
L 357.226829 100.024347 
L 356.141028 107.655092 
L 355.055227 100.954866 
L 353.969425 104.590731 
L 352.883624 107.112535 
L 351.797823 106.969253 
L 350.712022 112.792971 
L 349.626221 96.297892 
L 348.54042 113.081216 
L 347.454618 115.551804 
L 346.368817 111.613253 
L 345.283016 107.91203 
L 344.197215 99.789641 
L 343.111414 103.857971 
L 342.025613 104.513598 
L 340.939811 105.492257 
L 339.85401 97.022784 
L 338.768209 98.185541 
L 337.682408 90.244295 
L 336.596607 105.244815 
L 335.510806 90.771704 
L 334.425005 94.418428 
L 333.339203 95.66024 
L 332.253402 101.971917 
L 331.167601 101.808382 
L 330.0818 94.660333 
L 328.995999 96.095871 
L 327.910198 96.149426 
L 326.824396 94.422911 
L 325.738595 99.275634 
L 324.652794 99.722795 
L 323.566993 98.870312 
L 322.481192 99.394427 
L 321.395391 104.711737 
L 320.30959 100.791091 
L 319.223788 107.506014 
L 318.137987 101.307522 
L 317.052186 92.201416 
L 315.966385 101.316702 
L 314.880584 102.975269 
L 313.794783 106.853341 
L 312.708981 110.211388 
L 311.62318 103.868964 
L 310.537379 109.560124 
L 309.451578 104.566851 
L 308.365777 109.874539 
L 307.279976 103.883229 
L 306.194175 96.842638 
L 305.108373 103.001471 
L 304.022572 102.779859 
L 302.936771 106.120808 
L 301.85097 101.331221 
L 300.765169 104.907895 
L 299.679368 94.180509 
L 298.593566 102.196807 
L 297.507765 98.538851 
L 296.421964 99.606732 
L 295.336163 99.849595 
L 294.250362 100.056629 
L 293.164561 94.299859 
L 292.07876 96.722914 
L 290.992958 93.544041 
L 289.907157 97.094941 
L 288.821356 95.633289 
L 287.735555 88.101074 
L 286.649754 95.780174 
L 285.563953 95.722827 
L 284.478151 97.363707 
L 283.39235 94.140517 
L 282.306549 104.847711 
L 281.220748 107.963503 
L 280.134947 103.096174 
L 279.049146 98.758179 
L 277.963344 100.978044 
L 276.877543 97.744614 
L 275.791742 101.07027 
L 274.705941 96.076188 
L 273.62014 95.695779 
L 272.534339 103.820804 
L 271.448538 105.016789 
L 270.362736 95.792874 
L 269.276935 100.429742 
L 268.191134 103.603092 
L 267.105333 92.662127 
L 266.019532 97.162584 
L 264.933731 98.309425 
L 263.847929 92.814997 
L 262.762128 94.724415 
L 261.676327 100.850424 
L 260.590526 94.035333 
L 259.504725 100.750386 
L 258.418924 112.230109 
L 257.333123 97.867319 
L 256.247321 99.665365 
L 255.16152 96.271211 
L 254.075719 91.932261 
L 252.989918 103.500343 
L 251.904117 103.424382 
L 250.818316 100.394387 
L 249.732514 101.904439 
L 248.646713 98.935503 
L 247.560912 92.54144 
L 246.475111 101.399163 
L 245.38931 80.521893 
L 244.303509 95.956857 
L 243.217708 93.037783 
L 242.131906 98.916031 
L 241.046105 90.502005 
L 239.960304 91.755897 
L 238.874503 95.144393 
L 237.788702 90.926464 
L 236.702901 98.617779 
L 235.617099 93.219337 
L 234.531298 102.080014 
L 233.445497 103.091394 
L 232.359696 95.003259 
L 231.273895 101.029882 
L 230.188094 93.632286 
L 229.102292 107.012151 
L 228.016491 102.161917 
L 226.93069 99.915016 
L 225.844889 94.060464 
L 224.759088 100.449695 
L 223.673287 100.230041 
L 222.587486 97.772704 
L 221.501684 97.798245 
L 220.415883 98.868085 
L 219.330082 92.288656 
L 218.244281 100.653441 
L 217.15848 88.962145 
L 216.072679 92.332237 
L 214.986877 93.275996 
L 213.901076 95.927775 
L 212.815275 90.835068 
L 211.729474 94.411208 
L 210.643673 91.086786 
L 209.557872 90.682268 
L 208.472071 94.679518 
L 207.386269 99.738674 
L 206.300468 91.123179 
L 205.214667 102.324436 
L 204.128866 102.690076 
L 203.043065 93.596793 
L 201.957264 94.256177 
L 200.871462 103.261049 
L 199.785661 97.591519 
L 198.69986 95.394863 
L 197.614059 105.100531 
L 196.528258 99.187199 
L 195.442457 94.569721 
L 194.356656 91.269263 
L 193.270854 95.732556 
L 192.185053 100.338549 
L 191.099252 89.850206 
L 190.013451 94.843123 
L 188.92765 95.954957 
L 187.841849 90.66727 
L 186.756047 96.525922 
L 185.670246 96.02057 
L 184.584445 100.586247 
L 183.498644 96.668729 
L 182.412843 94.625147 
L 181.327042 97.775292 
L 180.24124 89.714282 
L 179.155439 96.58833 
L 178.069638 96.975391 
L 176.983837 91.226461 
L 175.898036 94.6175 
L 174.812235 95.704149 
L 173.726434 99.462242 
L 172.640632 100.108574 
L 171.554831 100.511438 
L 170.46903 106.105446 
L 169.383229 102.620903 
L 168.297428 102.308132 
L 167.211627 99.458531 
L 166.125825 98.021199 
L 165.040024 105.706195 
L 163.954223 99.752048 
L 162.868422 101.978971 
L 161.782621 100.060038 
L 160.69682 98.277276 
L 159.611019 104.762482 
L 158.525217 86.799104 
L 157.439416 95.873911 
L 156.353615 96.380814 
L 155.267814 108.788651 
L 154.182013 96.467076 
L 153.096212 98.37544 
L 152.01041 108.18448 
L 150.924609 101.926704 
L 149.838808 99.792426 
L 148.753007 102.78919 
L 147.667206 99.042315 
L 146.581405 98.992846 
L 145.495604 111.827392 
L 144.409802 110.471544 
L 143.324001 101.676035 
L 142.2382 102.822638 
L 141.152399 109.420425 
L 140.066598 92.564583 
L 138.980797 102.802887 
L 137.894995 96.30992 
L 136.809194 107.624257 
L 135.723393 101.730804 
L 134.637592 103.875117 
L 133.551791 113.385927 
L 132.46599 112.657596 
L 131.380189 110.647954 
L 130.294387 109.554975 
L 129.208586 111.210095 
L 128.122785 106.357432 
L 127.036984 117.420447 
L 125.951183 115.582409 
L 124.865382 118.924021 
L 123.77958 123.906811 
L 122.693779 139.543382 
L 121.607978 136.928553 
L 120.522177 130.568604 
L 119.436376 134.943114 
L 118.350575 136.470419 
L 117.264773 139.829624 
L 116.178972 136.518121 
L 115.093171 135.244901 
L 114.00737 141.809818 
L 112.921569 139.038352 
L 111.835768 145.39506 
L 110.749967 138.648417 
L 109.664165 137.894511 
L 108.578364 132.3089 
L 107.492563 137.856684 
L 106.406762 132.38419 
L 105.320961 132.435671 
L 104.23516 137.844828 
L 103.149358 142.992854 
L 102.063557 137.716256 
L 100.977756 142.931863 
L 99.891955 147.259797 
L 98.806154 145.672921 
L 97.720353 161.303587 
L 96.634552 164.645102 
L 95.54875 159.997913 
L 94.462949 159.598778 
L 93.377148 168.467783 
L 92.291347 169.76641 
L 91.205546 160.302499 
L 90.119745 170.680282 
L 89.033943 167.440875 
L 87.948142 161.359721 
L 86.862341 162.369783 
L 85.77654 178.668169 
L 84.690739 183.592452 
L 83.604938 183.615279 
L 82.519137 186.429267 
L 81.433335 196.306646 
L 80.347534 197.436026 
L 79.261733 191.570495 
L 78.175932 193.429878 
L 77.090131 190.364196 
L 76.00433 193.210256 
L 74.918528 193.716002 
L 73.832727 192.208877 
z
" style="fill:#ff0000;fill-opacity:0.5;"/>
   </g>
   <g id="PolyCollection_3">
    <path clip-path="url(#p31d9eae2d0)" d="M 73.832727 282.577181 
L 73.832727 293.531825 
L 74.918528 293.206604 
L 76.00433 291.043244 
L 77.090131 293.5037 
L 78.175932 294.474966 
L 79.261733 295.148153 
L 80.347534 293.418083 
L 81.433335 292.162601 
L 82.519137 295.488 
L 83.604938 293.988057 
L 84.690739 292.112869 
L 85.77654 290.590568 
L 86.862341 289.443156 
L 87.948142 279.991306 
L 89.033943 285.508924 
L 90.119745 285.031779 
L 91.205546 284.887265 
L 92.291347 279.736297 
L 93.377148 285.158392 
L 94.462949 283.569998 
L 95.54875 282.239792 
L 96.634552 279.682394 
L 97.720353 283.004373 
L 98.806154 283.097243 
L 99.891955 276.694341 
L 100.977756 274.851769 
L 102.063557 272.598205 
L 103.149358 268.236638 
L 104.23516 267.635434 
L 105.320961 262.517335 
L 106.406762 271.116819 
L 107.492563 264.677548 
L 108.578364 270.209124 
L 109.664165 270.347013 
L 110.749967 268.512945 
L 111.835768 272.292274 
L 112.921569 266.929921 
L 114.00737 272.329087 
L 115.093171 266.447487 
L 116.178972 270.89529 
L 117.264773 266.237318 
L 118.350575 262.076561 
L 119.436376 263.417353 
L 120.522177 264.225719 
L 121.607978 266.047685 
L 122.693779 267.829258 
L 123.77958 258.470696 
L 124.865382 249.159124 
L 125.951183 248.979195 
L 127.036984 243.380813 
L 128.122785 249.812359 
L 129.208586 250.555816 
L 130.294387 246.764937 
L 131.380189 242.159801 
L 132.46599 256.883119 
L 133.551791 239.401249 
L 134.637592 244.352604 
L 135.723393 240.208944 
L 136.809194 240.830781 
L 137.894995 224.015311 
L 138.980797 225.891847 
L 140.066598 224.120675 
L 141.152399 241.268885 
L 142.2382 234.103489 
L 143.324001 233.446437 
L 144.409802 245.637731 
L 145.495604 235.291627 
L 146.581405 236.444927 
L 147.667206 223.280269 
L 148.753007 239.215235 
L 149.838808 237.884899 
L 150.924609 230.671735 
L 152.01041 244.898575 
L 153.096212 242.482106 
L 154.182013 240.594664 
L 155.267814 234.792927 
L 156.353615 219.771834 
L 157.439416 222.734855 
L 158.525217 222.367632 
L 159.611019 234.123351 
L 160.69682 228.454507 
L 161.782621 223.273061 
L 162.868422 246.307374 
L 163.954223 237.318493 
L 165.040024 235.487948 
L 166.125825 224.211035 
L 167.211627 224.869304 
L 168.297428 242.622191 
L 169.383229 242.129634 
L 170.46903 245.265324 
L 171.554831 240.136236 
L 172.640632 225.911543 
L 173.726434 235.803169 
L 174.812235 217.836186 
L 175.898036 222.637569 
L 176.983837 230.288917 
L 178.069638 227.833984 
L 179.155439 226.296927 
L 180.24124 231.912192 
L 181.327042 228.632639 
L 182.412843 223.273259 
L 183.498644 234.467537 
L 184.584445 227.437223 
L 185.670246 228.107707 
L 186.756047 224.818534 
L 187.841849 228.239081 
L 188.92765 233.224353 
L 190.013451 228.50276 
L 191.099252 218.146538 
L 192.185053 226.854409 
L 193.270854 227.250249 
L 194.356656 226.83119 
L 195.442457 243.192927 
L 196.528258 250.247023 
L 197.614059 257.685868 
L 198.69986 253.226512 
L 199.785661 245.038687 
L 200.871462 255.924186 
L 201.957264 247.594355 
L 203.043065 236.082924 
L 204.128866 242.590786 
L 205.214667 255.416222 
L 206.300468 243.069152 
L 207.386269 243.585521 
L 208.472071 222.754983 
L 209.557872 227.740795 
L 210.643673 228.05676 
L 211.729474 216.79977 
L 212.815275 232.352191 
L 213.901076 238.969384 
L 214.986877 216.593651 
L 216.072679 218.590393 
L 217.15848 227.56112 
L 218.244281 243.950885 
L 219.330082 246.920267 
L 220.415883 230.516799 
L 221.501684 229.434837 
L 222.587486 228.828807 
L 223.673287 231.571777 
L 224.759088 233.007989 
L 225.844889 214.028769 
L 226.93069 239.522365 
L 228.016491 249.333172 
L 229.102292 237.964806 
L 230.188094 228.159868 
L 231.273895 239.744352 
L 232.359696 222.263481 
L 233.445497 234.835019 
L 234.531298 245.366872 
L 235.617099 222.661708 
L 236.702901 238.195886 
L 237.788702 222.783302 
L 238.874503 244.279552 
L 239.960304 238.522623 
L 241.046105 228.108575 
L 242.131906 257.646502 
L 243.217708 240.035845 
L 244.303509 244.321233 
L 245.38931 224.439535 
L 246.475111 238.465834 
L 247.560912 231.630169 
L 248.646713 212.763666 
L 249.732514 240.675225 
L 250.818316 246.633925 
L 251.904117 247.553409 
L 252.989918 244.575085 
L 254.075719 244.229088 
L 255.16152 235.407303 
L 256.247321 222.648595 
L 257.333123 226.583376 
L 258.418924 252.791737 
L 259.504725 238.412818 
L 260.590526 227.360619 
L 261.676327 239.009298 
L 262.762128 229.277388 
L 263.847929 231.648689 
L 264.933731 231.13541 
L 266.019532 244.165565 
L 267.105333 247.046078 
L 268.191134 247.499072 
L 269.276935 240.687204 
L 270.362736 227.632391 
L 271.448538 237.202531 
L 272.534339 240.30742 
L 273.62014 229.53576 
L 274.705941 226.538591 
L 275.791742 224.783691 
L 276.877543 226.084405 
L 277.963344 238.027088 
L 279.049146 227.02359 
L 280.134947 236.60517 
L 281.220748 246.054426 
L 282.306549 249.246418 
L 283.39235 240.995158 
L 284.478151 248.67817 
L 285.563953 238.881921 
L 286.649754 238.310532 
L 287.735555 228.681575 
L 288.821356 215.004057 
L 289.907157 237.836511 
L 290.992958 224.872874 
L 292.07876 236.163774 
L 293.164561 218.614449 
L 294.250362 227.632997 
L 295.336163 208.791722 
L 296.421964 230.116404 
L 297.507765 241.227393 
L 298.593566 223.02018 
L 299.679368 230.075855 
L 300.765169 250.349163 
L 301.85097 240.980725 
L 302.936771 244.200853 
L 304.022572 230.660151 
L 305.108373 235.744231 
L 306.194175 218.580171 
L 307.279976 230.99255 
L 308.365777 235.146121 
L 309.451578 236.780753 
L 310.537379 236.436989 
L 311.62318 227.373689 
L 312.708981 246.30485 
L 313.794783 254.339019 
L 314.880584 227.034151 
L 315.966385 243.25392 
L 317.052186 226.988232 
L 318.137987 227.661352 
L 319.223788 253.680603 
L 320.30959 238.567703 
L 321.395391 239.219706 
L 322.481192 239.380036 
L 323.566993 235.613713 
L 324.652794 234.179538 
L 325.738595 256.060678 
L 326.824396 243.189474 
L 327.910198 230.116451 
L 328.995999 227.238993 
L 330.0818 236.867005 
L 331.167601 239.869352 
L 332.253402 231.863439 
L 333.339203 225.107733 
L 334.425005 223.447851 
L 335.510806 199.889609 
L 336.596607 259.838191 
L 337.682408 230.599966 
L 338.768209 233.07279 
L 339.85401 242.677898 
L 340.939811 244.282514 
L 342.025613 242.754993 
L 343.111414 240.32217 
L 344.197215 246.618303 
L 345.283016 244.903227 
L 346.368817 242.654473 
L 347.454618 262.192274 
L 348.54042 266.274038 
L 349.626221 245.253142 
L 350.712022 245.032286 
L 351.797823 236.088664 
L 352.883624 250.247256 
L 353.969425 253.710874 
L 355.055227 236.063793 
L 356.141028 235.104633 
L 357.226829 239.047902 
L 358.31263 246.77356 
L 359.398431 261.091898 
L 360.484232 245.490037 
L 361.570033 239.475613 
L 362.655835 242.900169 
L 363.741636 241.318223 
L 364.827437 249.198742 
L 365.913238 240.190182 
L 366.999039 245.018419 
L 368.08484 244.023392 
L 369.170642 231.347755 
L 370.256443 257.994248 
L 371.342244 240.508629 
L 372.428045 239.133344 
L 373.513846 226.035911 
L 374.599647 232.179017 
L 375.685448 235.475674 
L 376.77125 242.824371 
L 377.857051 239.799179 
L 378.942852 251.374112 
L 380.028653 243.513583 
L 381.114454 242.569471 
L 382.200255 235.440232 
L 383.286057 241.717481 
L 384.371858 250.326984 
L 385.457659 248.190017 
L 386.54346 260.179824 
L 387.629261 246.451885 
L 388.715062 261.507382 
L 389.800863 267.419083 
L 390.886665 245.187246 
L 391.972466 265.11024 
L 393.058267 248.59174 
L 394.144068 260.678766 
L 395.229869 263.849747 
L 396.31567 255.942401 
L 397.401472 261.205797 
L 398.487273 246.949658 
L 398.487273 147.458729 
L 398.487273 147.458729 
L 397.401472 173.531626 
L 396.31567 162.553647 
L 395.229869 165.790936 
L 394.144068 170.534385 
L 393.058267 154.872878 
L 391.972466 179.89942 
L 390.886665 153.625387 
L 389.800863 163.911163 
L 388.715062 159.457671 
L 387.629261 157.270949 
L 386.54346 172.135358 
L 385.457659 159.205769 
L 384.371858 163.372145 
L 383.286057 165.57555 
L 382.200255 148.457481 
L 381.114454 150.455953 
L 380.028653 151.47794 
L 378.942852 167.987446 
L 377.857051 148.607846 
L 376.77125 165.540294 
L 375.685448 171.491786 
L 374.599647 145.362603 
L 373.513846 137.019286 
L 372.428045 163.11099 
L 371.342244 144.141686 
L 370.256443 178.567167 
L 369.170642 143.886983 
L 368.08484 139.475494 
L 366.999039 155.94035 
L 365.913238 150.599341 
L 364.827437 149.371006 
L 363.741636 148.242394 
L 362.655835 143.446744 
L 361.570033 149.131824 
L 360.484232 136.980514 
L 359.398431 177.703343 
L 358.31263 164.060897 
L 357.226829 144.126371 
L 356.141028 158.530175 
L 355.055227 146.281454 
L 353.969425 156.372245 
L 352.883624 158.868795 
L 351.797823 158.754434 
L 350.712022 167.785247 
L 349.626221 141.410658 
L 348.54042 171.661038 
L 347.454618 178.905299 
L 346.368817 170.626905 
L 345.283016 167.375968 
L 344.197215 148.644345 
L 343.111414 146.45081 
L 342.025613 151.839892 
L 340.939811 156.315817 
L 339.85401 139.783813 
L 338.768209 139.113637 
L 337.682408 119.468516 
L 336.596607 156.844076 
L 335.510806 115.730991 
L 334.425005 132.097777 
L 333.339203 133.785601 
L 332.253402 150.988293 
L 331.167601 142.57568 
L 330.0818 134.201232 
L 328.995999 133.38395 
L 327.910198 132.890947 
L 326.824396 128.355567 
L 325.738595 149.55577 
L 324.652794 137.733278 
L 323.566993 143.873366 
L 322.481192 144.117652 
L 321.395391 157.202349 
L 320.30959 148.058064 
L 319.223788 160.478504 
L 318.137987 140.595052 
L 317.052186 126.141512 
L 315.966385 143.884895 
L 314.880584 152.459878 
L 313.794783 161.400934 
L 312.708981 168.62809 
L 311.62318 153.332587 
L 310.537379 163.371167 
L 309.451578 155.52686 
L 308.365777 166.488424 
L 307.279976 152.422057 
L 306.194175 131.648863 
L 305.108373 147.495457 
L 304.022572 147.06992 
L 302.936771 157.752728 
L 301.85097 144.16824 
L 300.765169 153.128086 
L 299.679368 126.236689 
L 298.593566 148.732566 
L 297.507765 141.26518 
L 296.421964 142.735663 
L 295.336163 139.620808 
L 294.250362 142.711907 
L 293.164561 125.289569 
L 292.07876 136.887868 
L 290.992958 127.900813 
L 289.907157 137.258391 
L 288.821356 133.425892 
L 287.735555 123.509649 
L 286.649754 131.344446 
L 285.563953 129.948509 
L 284.478151 140.462437 
L 283.39235 136.530298 
L 282.306549 156.412744 
L 281.220748 160.42542 
L 280.134947 149.42457 
L 279.049146 143.00545 
L 277.963344 145.839965 
L 276.877543 137.722439 
L 275.791742 142.636787 
L 274.705941 134.125416 
L 273.62014 129.986674 
L 272.534339 154.805263 
L 271.448538 156.808499 
L 270.362736 136.370154 
L 269.276935 148.33197 
L 268.191134 154.645966 
L 267.105333 129.694161 
L 266.019532 136.552697 
L 264.933731 137.779022 
L 263.847929 124.320214 
L 262.762128 129.866042 
L 261.676327 147.406492 
L 260.590526 128.950295 
L 259.504725 149.084626 
L 258.418924 172.984052 
L 257.333123 135.837995 
L 256.247321 141.895966 
L 255.16152 139.052887 
L 254.075719 124.236784 
L 252.989918 153.288448 
L 251.904117 152.443871 
L 250.818316 150.558255 
L 249.732514 147.604685 
L 248.646713 138.483326 
L 247.560912 122.912174 
L 246.475111 151.879539 
L 245.38931 102.850496 
L 244.303509 131.783041 
L 243.217708 130.125827 
L 242.131906 145.372838 
L 241.046105 121.435995 
L 239.960304 124.311938 
L 238.874503 134.577149 
L 237.788702 120.464751 
L 236.702901 142.879758 
L 235.617099 123.817342 
L 234.531298 153.280098 
L 233.445497 150.982802 
L 232.359696 131.66731 
L 231.273895 141.569177 
L 230.188094 127.484019 
L 229.102292 161.107188 
L 228.016491 148.293927 
L 226.93069 143.877091 
L 225.844889 121.769867 
L 224.759088 141.467217 
L 223.673287 141.847281 
L 222.587486 131.48262 
L 221.501684 138.238458 
L 220.415883 144.440823 
L 219.330082 129.86032 
L 218.244281 146.555981 
L 217.15848 117.281845 
L 216.072679 117.528245 
L 214.986877 130.188375 
L 213.901076 133.452676 
L 212.815275 121.184796 
L 211.729474 125.907906 
L 210.643673 123.901623 
L 209.557872 121.567307 
L 208.472071 131.431492 
L 207.386269 141.735076 
L 206.300468 129.067751 
L 205.214667 145.86184 
L 204.128866 143.699662 
L 203.043065 130.393749 
L 201.957264 131.773211 
L 200.871462 154.017936 
L 199.785661 137.381003 
L 198.69986 136.523499 
L 197.614059 156.091357 
L 196.528258 144.163031 
L 195.442457 134.008519 
L 194.356656 122.895053 
L 193.270854 133.796618 
L 192.185053 145.053197 
L 191.099252 117.615727 
L 190.013451 132.093271 
L 188.92765 133.349556 
L 187.841849 121.192739 
L 186.756047 135.111281 
L 185.670246 136.074916 
L 184.584445 144.628423 
L 183.498644 134.181321 
L 182.412843 132.313983 
L 181.327042 136.910237 
L 180.24124 119.531635 
L 179.155439 137.1497 
L 178.069638 137.642815 
L 176.983837 123.501712 
L 175.898036 128.347981 
L 174.812235 130.140258 
L 173.726434 139.891962 
L 172.640632 145.34817 
L 171.554831 149.61296 
L 170.46903 154.943395 
L 169.383229 150.233955 
L 168.297428 152.691794 
L 167.211627 140.794173 
L 166.125825 135.138101 
L 165.040024 153.028084 
L 163.954223 147.873331 
L 162.868422 148.390714 
L 161.782621 143.991826 
L 160.69682 134.264344 
L 159.611019 155.678213 
L 158.525217 110.984454 
L 157.439416 135.711056 
L 156.353615 136.834142 
L 155.267814 162.597995 
L 154.182013 130.170891 
L 153.096212 138.184207 
L 152.01041 159.864856 
L 150.924609 149.723092 
L 149.838808 146.780567 
L 148.753007 149.236537 
L 147.667206 136.010628 
L 146.581405 144.958495 
L 145.495604 170.645699 
L 144.409802 170.246753 
L 143.324001 147.521423 
L 142.2382 149.65114 
L 141.152399 168.475456 
L 140.066598 126.707452 
L 138.980797 147.440053 
L 137.894995 130.603592 
L 136.809194 159.897593 
L 135.723393 148.884433 
L 134.637592 154.001356 
L 133.551791 173.892265 
L 132.46599 174.597792 
L 131.380189 167.495089 
L 130.294387 167.676847 
L 129.208586 167.060043 
L 128.122785 158.265785 
L 127.036984 178.508098 
L 125.951183 182.841335 
L 124.865382 184.237811 
L 123.77958 201.400535 
L 122.693779 224.817895 
L 121.607978 220.816788 
L 120.522177 212.924529 
L 119.436376 223.073423 
L 118.350575 223.95645 
L 117.264773 231.325178 
L 116.178972 224.685527 
L 115.093171 226.277789 
L 114.00737 235.754484 
L 112.921569 230.864804 
L 111.835768 238.129089 
L 110.749967 230.250835 
L 109.664165 228.716805 
L 108.578364 217.628368 
L 107.492563 229.229897 
L 106.406762 217.986351 
L 105.320961 221.316868 
L 104.23516 227.37373 
L 103.149358 236.565685 
L 102.063557 228.190607 
L 100.977756 234.982561 
L 99.891955 245.817315 
L 98.806154 228.044031 
L 97.720353 257.924649 
L 96.634552 261.752864 
L 95.54875 257.741611 
L 94.462949 257.759647 
L 93.377148 265.578149 
L 92.291347 264.220163 
L 91.205546 256.260107 
L 90.119745 266.99673 
L 89.033943 262.739232 
L 87.948142 257.659999 
L 86.862341 261.651797 
L 85.77654 273.530789 
L 84.690739 275.468527 
L 83.604938 277.466689 
L 82.519137 277.8787 
L 81.433335 286.797087 
L 80.347534 287.43848 
L 79.261733 282.444222 
L 78.175932 285.26249 
L 77.090131 281.72059 
L 76.00433 283.476488 
L 74.918528 284.500085 
L 73.832727 282.577181 
z
" style="fill:#008000;fill-opacity:0.5;"/>
   </g>
   <g id="matplotlib.axis_1">
    <g id="xtick_1">
     <g id="line2d_1">
      <path clip-path="url(#p31d9eae2d0)" d="M 73.832727 307.584 
L 73.832727 41.472 
" style="fill:none;stroke:#b0b0b0;stroke-linecap:square;stroke-width:0.8;"/>
     </g>
     <g id="line2d_2">
      <defs>
       <path d="M 0 0 
L 0 3.5 
" id="m8c3dac954e" style="stroke:#000000;stroke-width:0.8;"/>
      </defs>
      <g>
       <use style="stroke:#000000;stroke-width:0.8;" x="73.832727" xlink:href="#m8c3dac954e" y="307.584"/>
      </g>
     </g>
     <g id="text_1">
      <!-- 0 -->
      <defs>
       <path d="M 31.78125 66.40625 
Q 24.171875 66.40625 20.328125 58.90625 
Q 16.5 51.421875 16.5 36.375 
Q 16.5 21.390625 20.328125 13.890625 
Q 24.171875 6.390625 31.78125 6.390625 
Q 39.453125 6.390625 43.28125 13.890625 
Q 47.125 21.390625 47.125 36.375 
Q 47.125 51.421875 43.28125 58.90625 
Q 39.453125 66.40625 31.78125 66.40625 
z
M 31.78125 74.21875 
Q 44.046875 74.21875 50.515625 64.515625 
Q 56.984375 54.828125 56.984375 36.375 
Q 56.984375 17.96875 50.515625 8.265625 
Q 44.046875 -1.421875 31.78125 -1.421875 
Q 19.53125 -1.421875 13.0625 8.265625 
Q 6.59375 17.96875 6.59375 36.375 
Q 6.59375 54.828125 13.0625 64.515625 
Q 19.53125 74.21875 31.78125 74.21875 
z
" id="DejaVuSans-48"/>
      </defs>
      <g transform="translate(70.651477 322.182437)scale(0.1 -0.1)">
       <use xlink:href="#DejaVuSans-48"/>
      </g>
     </g>
    </g>
    <g id="xtick_2">
     <g id="line2d_3">
      <path clip-path="url(#p31d9eae2d0)" d="M 128.122785 307.584 
L 128.122785 41.472 
" style="fill:none;stroke:#b0b0b0;stroke-linecap:square;stroke-width:0.8;"/>
     </g>
     <g id="line2d_4">
      <g>
       <use style="stroke:#000000;stroke-width:0.8;" x="128.122785" xlink:href="#m8c3dac954e" y="307.584"/>
      </g>
     </g>
     <g id="text_2">
      <!-- 50 -->
      <defs>
       <path d="M 10.796875 72.90625 
L 49.515625 72.90625 
L 49.515625 64.59375 
L 19.828125 64.59375 
L 19.828125 46.734375 
Q 21.96875 47.46875 24.109375 47.828125 
Q 26.265625 48.1875 28.421875 48.1875 
Q 40.625 48.1875 47.75 41.5 
Q 54.890625 34.8125 54.890625 23.390625 
Q 54.890625 11.625 47.5625 5.09375 
Q 40.234375 -1.421875 26.90625 -1.421875 
Q 22.3125 -1.421875 17.546875 -0.640625 
Q 12.796875 0.140625 7.71875 1.703125 
L 7.71875 11.625 
Q 12.109375 9.234375 16.796875 8.0625 
Q 21.484375 6.890625 26.703125 6.890625 
Q 35.15625 6.890625 40.078125 11.328125 
Q 45.015625 15.765625 45.015625 23.390625 
Q 45.015625 31 40.078125 35.4375 
Q 35.15625 39.890625 26.703125 39.890625 
Q 22.75 39.890625 18.8125 39.015625 
Q 14.890625 38.140625 10.796875 36.28125 
z
" id="DejaVuSans-53"/>
      </defs>
      <g transform="translate(121.760285 322.182437)scale(0.1 -0.1)">
       <use xlink:href="#DejaVuSans-53"/>
       <use x="63.623047" xlink:href="#DejaVuSans-48"/>
      </g>
     </g>
    </g>
    <g id="xtick_3">
     <g id="line2d_5">
      <path clip-path="url(#p31d9eae2d0)" d="M 182.412843 307.584 
L 182.412843 41.472 
" style="fill:none;stroke:#b0b0b0;stroke-linecap:square;stroke-width:0.8;"/>
     </g>
     <g id="line2d_6">
      <g>
       <use style="stroke:#000000;stroke-width:0.8;" x="182.412843" xlink:href="#m8c3dac954e" y="307.584"/>
      </g>
     </g>
     <g id="text_3">
      <!-- 100 -->
      <defs>
       <path d="M 12.40625 8.296875 
L 28.515625 8.296875 
L 28.515625 63.921875 
L 10.984375 60.40625 
L 10.984375 69.390625 
L 28.421875 72.90625 
L 38.28125 72.90625 
L 38.28125 8.296875 
L 54.390625 8.296875 
L 54.390625 0 
L 12.40625 0 
z
" id="DejaVuSans-49"/>
      </defs>
      <g transform="translate(172.869093 322.182437)scale(0.1 -0.1)">
       <use xlink:href="#DejaVuSans-49"/>
       <use x="63.623047" xlink:href="#DejaVuSans-48"/>
       <use x="127.246094" xlink:href="#DejaVuSans-48"/>
      </g>
     </g>
    </g>
    <g id="xtick_4">
     <g id="line2d_7">
      <path clip-path="url(#p31d9eae2d0)" d="M 236.702901 307.584 
L 236.702901 41.472 
" style="fill:none;stroke:#b0b0b0;stroke-linecap:square;stroke-width:0.8;"/>
     </g>
     <g id="line2d_8">
      <g>
       <use style="stroke:#000000;stroke-width:0.8;" x="236.702901" xlink:href="#m8c3dac954e" y="307.584"/>
      </g>
     </g>
     <g id="text_4">
      <!-- 150 -->
      <g transform="translate(227.159151 322.182437)scale(0.1 -0.1)">
       <use xlink:href="#DejaVuSans-49"/>
       <use x="63.623047" xlink:href="#DejaVuSans-53"/>
       <use x="127.246094" xlink:href="#DejaVuSans-48"/>
      </g>
     </g>
    </g>
    <g id="xtick_5">
     <g id="line2d_9">
      <path clip-path="url(#p31d9eae2d0)" d="M 290.992958 307.584 
L 290.992958 41.472 
" style="fill:none;stroke:#b0b0b0;stroke-linecap:square;stroke-width:0.8;"/>
     </g>
     <g id="line2d_10">
      <g>
       <use style="stroke:#000000;stroke-width:0.8;" x="290.992958" xlink:href="#m8c3dac954e" y="307.584"/>
      </g>
     </g>
     <g id="text_5">
      <!-- 200 -->
      <defs>
       <path d="M 19.1875 8.296875 
L 53.609375 8.296875 
L 53.609375 0 
L 7.328125 0 
L 7.328125 8.296875 
Q 12.9375 14.109375 22.625 23.890625 
Q 32.328125 33.6875 34.8125 36.53125 
Q 39.546875 41.84375 41.421875 45.53125 
Q 43.3125 49.21875 43.3125 52.78125 
Q 43.3125 58.59375 39.234375 62.25 
Q 35.15625 65.921875 28.609375 65.921875 
Q 23.96875 65.921875 18.8125 64.3125 
Q 13.671875 62.703125 7.8125 59.421875 
L 7.8125 69.390625 
Q 13.765625 71.78125 18.9375 73 
Q 24.125 74.21875 28.421875 74.21875 
Q 39.75 74.21875 46.484375 68.546875 
Q 53.21875 62.890625 53.21875 53.421875 
Q 53.21875 48.921875 51.53125 44.890625 
Q 49.859375 40.875 45.40625 35.40625 
Q 44.1875 33.984375 37.640625 27.21875 
Q 31.109375 20.453125 19.1875 8.296875 
z
" id="DejaVuSans-50"/>
      </defs>
      <g transform="translate(281.449208 322.182437)scale(0.1 -0.1)">
       <use xlink:href="#DejaVuSans-50"/>
       <use x="63.623047" xlink:href="#DejaVuSans-48"/>
       <use x="127.246094" xlink:href="#DejaVuSans-48"/>
      </g>
     </g>
    </g>
    <g id="xtick_6">
     <g id="line2d_11">
      <path clip-path="url(#p31d9eae2d0)" d="M 345.283016 307.584 
L 345.283016 41.472 
" style="fill:none;stroke:#b0b0b0;stroke-linecap:square;stroke-width:0.8;"/>
     </g>
     <g id="line2d_12">
      <g>
       <use style="stroke:#000000;stroke-width:0.8;" x="345.283016" xlink:href="#m8c3dac954e" y="307.584"/>
      </g>
     </g>
     <g id="text_6">
      <!-- 250 -->
      <g transform="translate(335.739266 322.182437)scale(0.1 -0.1)">
       <use xlink:href="#DejaVuSans-50"/>
       <use x="63.623047" xlink:href="#DejaVuSans-53"/>
       <use x="127.246094" xlink:href="#DejaVuSans-48"/>
      </g>
     </g>
    </g>
    <g id="xtick_7">
     <g id="line2d_13">
      <path clip-path="url(#p31d9eae2d0)" d="M 399.573074 307.584 
L 399.573074 41.472 
" style="fill:none;stroke:#b0b0b0;stroke-linecap:square;stroke-width:0.8;"/>
     </g>
     <g id="line2d_14">
      <g>
       <use style="stroke:#000000;stroke-width:0.8;" x="399.573074" xlink:href="#m8c3dac954e" y="307.584"/>
      </g>
     </g>
     <g id="text_7">
      <!-- 300 -->
      <defs>
       <path d="M 40.578125 39.3125 
Q 47.65625 37.796875 51.625 33 
Q 55.609375 28.21875 55.609375 21.1875 
Q 55.609375 10.40625 48.1875 4.484375 
Q 40.765625 -1.421875 27.09375 -1.421875 
Q 22.515625 -1.421875 17.65625 -0.515625 
Q 12.796875 0.390625 7.625 2.203125 
L 7.625 11.71875 
Q 11.71875 9.328125 16.59375 8.109375 
Q 21.484375 6.890625 26.8125 6.890625 
Q 36.078125 6.890625 40.9375 10.546875 
Q 45.796875 14.203125 45.796875 21.1875 
Q 45.796875 27.640625 41.28125 31.265625 
Q 36.765625 34.90625 28.71875 34.90625 
L 20.21875 34.90625 
L 20.21875 43.015625 
L 29.109375 43.015625 
Q 36.375 43.015625 40.234375 45.921875 
Q 44.09375 48.828125 44.09375 54.296875 
Q 44.09375 59.90625 40.109375 62.90625 
Q 36.140625 65.921875 28.71875 65.921875 
Q 24.65625 65.921875 20.015625 65.03125 
Q 15.375 64.15625 9.8125 62.3125 
L 9.8125 71.09375 
Q 15.4375 72.65625 20.34375 73.4375 
Q 25.25 74.21875 29.59375 74.21875 
Q 40.828125 74.21875 47.359375 69.109375 
Q 53.90625 64.015625 53.90625 55.328125 
Q 53.90625 49.265625 50.4375 45.09375 
Q 46.96875 40.921875 40.578125 39.3125 
z
" id="DejaVuSans-51"/>
      </defs>
      <g transform="translate(390.029324 322.182437)scale(0.1 -0.1)">
       <use xlink:href="#DejaVuSans-51"/>
       <use x="63.623047" xlink:href="#DejaVuSans-48"/>
       <use x="127.246094" xlink:href="#DejaVuSans-48"/>
      </g>
     </g>
    </g>
    <g id="text_8">
     <!-- Generations -->
     <defs>
      <path d="M 59.515625 10.40625 
L 59.515625 29.984375 
L 43.40625 29.984375 
L 43.40625 38.09375 
L 69.28125 38.09375 
L 69.28125 6.78125 
Q 63.578125 2.734375 56.6875 0.65625 
Q 49.8125 -1.421875 42 -1.421875 
Q 24.90625 -1.421875 15.25 8.5625 
Q 5.609375 18.5625 5.609375 36.375 
Q 5.609375 54.25 15.25 64.234375 
Q 24.90625 74.21875 42 74.21875 
Q 49.125 74.21875 55.546875 72.453125 
Q 61.96875 70.703125 67.390625 67.28125 
L 67.390625 56.78125 
Q 61.921875 61.421875 55.765625 63.765625 
Q 49.609375 66.109375 42.828125 66.109375 
Q 29.4375 66.109375 22.71875 58.640625 
Q 16.015625 51.171875 16.015625 36.375 
Q 16.015625 21.625 22.71875 14.15625 
Q 29.4375 6.6875 42.828125 6.6875 
Q 48.046875 6.6875 52.140625 7.59375 
Q 56.25 8.5 59.515625 10.40625 
z
" id="DejaVuSans-71"/>
      <path d="M 56.203125 29.59375 
L 56.203125 25.203125 
L 14.890625 25.203125 
Q 15.484375 15.921875 20.484375 11.0625 
Q 25.484375 6.203125 34.421875 6.203125 
Q 39.59375 6.203125 44.453125 7.46875 
Q 49.3125 8.734375 54.109375 11.28125 
L 54.109375 2.78125 
Q 49.265625 0.734375 44.1875 -0.34375 
Q 39.109375 -1.421875 33.890625 -1.421875 
Q 20.796875 -1.421875 13.15625 6.1875 
Q 5.515625 13.8125 5.515625 26.8125 
Q 5.515625 40.234375 12.765625 48.109375 
Q 20.015625 56 32.328125 56 
Q 43.359375 56 49.78125 48.890625 
Q 56.203125 41.796875 56.203125 29.59375 
z
M 47.21875 32.234375 
Q 47.125 39.59375 43.09375 43.984375 
Q 39.0625 48.390625 32.421875 48.390625 
Q 24.90625 48.390625 20.390625 44.140625 
Q 15.875 39.890625 15.1875 32.171875 
z
" id="DejaVuSans-101"/>
      <path d="M 54.890625 33.015625 
L 54.890625 0 
L 45.90625 0 
L 45.90625 32.71875 
Q 45.90625 40.484375 42.875 44.328125 
Q 39.84375 48.1875 33.796875 48.1875 
Q 26.515625 48.1875 22.3125 43.546875 
Q 18.109375 38.921875 18.109375 30.90625 
L 18.109375 0 
L 9.078125 0 
L 9.078125 54.6875 
L 18.109375 54.6875 
L 18.109375 46.1875 
Q 21.34375 51.125 25.703125 53.5625 
Q 30.078125 56 35.796875 56 
Q 45.21875 56 50.046875 50.171875 
Q 54.890625 44.34375 54.890625 33.015625 
z
" id="DejaVuSans-110"/>
      <path d="M 41.109375 46.296875 
Q 39.59375 47.171875 37.8125 47.578125 
Q 36.03125 48 33.890625 48 
Q 26.265625 48 22.1875 43.046875 
Q 18.109375 38.09375 18.109375 28.8125 
L 18.109375 0 
L 9.078125 0 
L 9.078125 54.6875 
L 18.109375 54.6875 
L 18.109375 46.1875 
Q 20.953125 51.171875 25.484375 53.578125 
Q 30.03125 56 36.53125 56 
Q 37.453125 56 38.578125 55.875 
Q 39.703125 55.765625 41.0625 55.515625 
z
" id="DejaVuSans-114"/>
      <path d="M 34.28125 27.484375 
Q 23.390625 27.484375 19.1875 25 
Q 14.984375 22.515625 14.984375 16.5 
Q 14.984375 11.71875 18.140625 8.90625 
Q 21.296875 6.109375 26.703125 6.109375 
Q 34.1875 6.109375 38.703125 11.40625 
Q 43.21875 16.703125 43.21875 25.484375 
L 43.21875 27.484375 
z
M 52.203125 31.203125 
L 52.203125 0 
L 43.21875 0 
L 43.21875 8.296875 
Q 40.140625 3.328125 35.546875 0.953125 
Q 30.953125 -1.421875 24.3125 -1.421875 
Q 15.921875 -1.421875 10.953125 3.296875 
Q 6 8.015625 6 15.921875 
Q 6 25.140625 12.171875 29.828125 
Q 18.359375 34.515625 30.609375 34.515625 
L 43.21875 34.515625 
L 43.21875 35.40625 
Q 43.21875 41.609375 39.140625 45 
Q 35.0625 48.390625 27.6875 48.390625 
Q 23 48.390625 18.546875 47.265625 
Q 14.109375 46.140625 10.015625 43.890625 
L 10.015625 52.203125 
Q 14.9375 54.109375 19.578125 55.046875 
Q 24.21875 56 28.609375 56 
Q 40.484375 56 46.34375 49.84375 
Q 52.203125 43.703125 52.203125 31.203125 
z
" id="DejaVuSans-97"/>
      <path d="M 18.3125 70.21875 
L 18.3125 54.6875 
L 36.8125 54.6875 
L 36.8125 47.703125 
L 18.3125 47.703125 
L 18.3125 18.015625 
Q 18.3125 11.328125 20.140625 9.421875 
Q 21.96875 7.515625 27.59375 7.515625 
L 36.8125 7.515625 
L 36.8125 0 
L 27.59375 0 
Q 17.1875 0 13.234375 3.875 
Q 9.28125 7.765625 9.28125 18.015625 
L 9.28125 47.703125 
L 2.6875 47.703125 
L 2.6875 54.6875 
L 9.28125 54.6875 
L 9.28125 70.21875 
z
" id="DejaVuSans-116"/>
      <path d="M 9.421875 54.6875 
L 18.40625 54.6875 
L 18.40625 0 
L 9.421875 0 
z
M 9.421875 75.984375 
L 18.40625 75.984375 
L 18.40625 64.59375 
L 9.421875 64.59375 
z
" id="DejaVuSans-105"/>
      <path d="M 30.609375 48.390625 
Q 23.390625 48.390625 19.1875 42.75 
Q 14.984375 37.109375 14.984375 27.296875 
Q 14.984375 17.484375 19.15625 11.84375 
Q 23.34375 6.203125 30.609375 6.203125 
Q 37.796875 6.203125 41.984375 11.859375 
Q 46.1875 17.53125 46.1875 27.296875 
Q 46.1875 37.015625 41.984375 42.703125 
Q 37.796875 48.390625 30.609375 48.390625 
z
M 30.609375 56 
Q 42.328125 56 49.015625 48.375 
Q 55.71875 40.765625 55.71875 27.296875 
Q 55.71875 13.875 49.015625 6.21875 
Q 42.328125 -1.421875 30.609375 -1.421875 
Q 18.84375 -1.421875 12.171875 6.21875 
Q 5.515625 13.875 5.515625 27.296875 
Q 5.515625 40.765625 12.171875 48.375 
Q 18.84375 56 30.609375 56 
z
" id="DejaVuSans-111"/>
      <path d="M 44.28125 53.078125 
L 44.28125 44.578125 
Q 40.484375 46.53125 36.375 47.5 
Q 32.28125 48.484375 27.875 48.484375 
Q 21.1875 48.484375 17.84375 46.4375 
Q 14.5 44.390625 14.5 40.28125 
Q 14.5 37.15625 16.890625 35.375 
Q 19.28125 33.59375 26.515625 31.984375 
L 29.59375 31.296875 
Q 39.15625 29.25 43.1875 25.515625 
Q 47.21875 21.78125 47.21875 15.09375 
Q 47.21875 7.46875 41.1875 3.015625 
Q 35.15625 -1.421875 24.609375 -1.421875 
Q 20.21875 -1.421875 15.453125 -0.5625 
Q 10.6875 0.296875 5.421875 2 
L 5.421875 11.28125 
Q 10.40625 8.6875 15.234375 7.390625 
Q 20.0625 6.109375 24.8125 6.109375 
Q 31.15625 6.109375 34.5625 8.28125 
Q 37.984375 10.453125 37.984375 14.40625 
Q 37.984375 18.0625 35.515625 20.015625 
Q 33.0625 21.96875 24.703125 23.78125 
L 21.578125 24.515625 
Q 13.234375 26.265625 9.515625 29.90625 
Q 5.8125 33.546875 5.8125 39.890625 
Q 5.8125 47.609375 11.28125 51.796875 
Q 16.75 56 26.8125 56 
Q 31.78125 56 36.171875 55.265625 
Q 40.578125 54.546875 44.28125 53.078125 
z
" id="DejaVuSans-115"/>
     </defs>
     <g transform="translate(205.662344 335.860562)scale(0.1 -0.1)">
      <use xlink:href="#DejaVuSans-71"/>
      <use x="77.490234" xlink:href="#DejaVuSans-101"/>
      <use x="139.013672" xlink:href="#DejaVuSans-110"/>
      <use x="202.392578" xlink:href="#DejaVuSans-101"/>
      <use x="263.916016" xlink:href="#DejaVuSans-114"/>
      <use x="305.029297" xlink:href="#DejaVuSans-97"/>
      <use x="366.308594" xlink:href="#DejaVuSans-116"/>
      <use x="405.517578" xlink:href="#DejaVuSans-105"/>
      <use x="433.300781" xlink:href="#DejaVuSans-111"/>
      <use x="494.482422" xlink:href="#DejaVuSans-110"/>
      <use x="557.861328" xlink:href="#DejaVuSans-115"/>
     </g>
    </g>
   </g>
   <g id="matplotlib.axis_2">
    <g id="ytick_1">
     <g id="line2d_15">
      <path clip-path="url(#p31d9eae2d0)" d="M 57.6 270.496143 
L 414.72 270.496143 
" style="fill:none;stroke:#b0b0b0;stroke-linecap:square;stroke-width:0.8;"/>
     </g>
     <g id="line2d_16">
      <defs>
       <path d="M 0 0 
L -3.5 0 
" id="m76c9b0b8f7" style="stroke:#000000;stroke-width:0.8;"/>
      </defs>
      <g>
       <use style="stroke:#000000;stroke-width:0.8;" x="57.6" xlink:href="#m76c9b0b8f7" y="270.496143"/>
      </g>
     </g>
     <g id="text_9">
      <!-- 0.2 -->
      <defs>
       <path d="M 10.6875 12.40625 
L 21 12.40625 
L 21 0 
L 10.6875 0 
z
" id="DejaVuSans-46"/>
      </defs>
      <g transform="translate(34.696875 274.295362)scale(0.1 -0.1)">
       <use xlink:href="#DejaVuSans-48"/>
       <use x="63.623047" xlink:href="#DejaVuSans-46"/>
       <use x="95.410156" xlink:href="#DejaVuSans-50"/>
      </g>
     </g>
    </g>
    <g id="ytick_2">
     <g id="line2d_17">
      <path clip-path="url(#p31d9eae2d0)" d="M 57.6 222.160954 
L 414.72 222.160954 
" style="fill:none;stroke:#b0b0b0;stroke-linecap:square;stroke-width:0.8;"/>
     </g>
     <g id="line2d_18">
      <g>
       <use style="stroke:#000000;stroke-width:0.8;" x="57.6" xlink:href="#m76c9b0b8f7" y="222.160954"/>
      </g>
     </g>
     <g id="text_10">
      <!-- 0.4 -->
      <defs>
       <path d="M 37.796875 64.3125 
L 12.890625 25.390625 
L 37.796875 25.390625 
z
M 35.203125 72.90625 
L 47.609375 72.90625 
L 47.609375 25.390625 
L 58.015625 25.390625 
L 58.015625 17.1875 
L 47.609375 17.1875 
L 47.609375 0 
L 37.796875 0 
L 37.796875 17.1875 
L 4.890625 17.1875 
L 4.890625 26.703125 
z
" id="DejaVuSans-52"/>
      </defs>
      <g transform="translate(34.696875 225.960173)scale(0.1 -0.1)">
       <use xlink:href="#DejaVuSans-48"/>
       <use x="63.623047" xlink:href="#DejaVuSans-46"/>
       <use x="95.410156" xlink:href="#DejaVuSans-52"/>
      </g>
     </g>
    </g>
    <g id="ytick_3">
     <g id="line2d_19">
      <path clip-path="url(#p31d9eae2d0)" d="M 57.6 173.825766 
L 414.72 173.825766 
" style="fill:none;stroke:#b0b0b0;stroke-linecap:square;stroke-width:0.8;"/>
     </g>
     <g id="line2d_20">
      <g>
       <use style="stroke:#000000;stroke-width:0.8;" x="57.6" xlink:href="#m76c9b0b8f7" y="173.825766"/>
      </g>
     </g>
     <g id="text_11">
      <!-- 0.6 -->
      <defs>
       <path d="M 33.015625 40.375 
Q 26.375 40.375 22.484375 35.828125 
Q 18.609375 31.296875 18.609375 23.390625 
Q 18.609375 15.53125 22.484375 10.953125 
Q 26.375 6.390625 33.015625 6.390625 
Q 39.65625 6.390625 43.53125 10.953125 
Q 47.40625 15.53125 47.40625 23.390625 
Q 47.40625 31.296875 43.53125 35.828125 
Q 39.65625 40.375 33.015625 40.375 
z
M 52.59375 71.296875 
L 52.59375 62.3125 
Q 48.875 64.0625 45.09375 64.984375 
Q 41.3125 65.921875 37.59375 65.921875 
Q 27.828125 65.921875 22.671875 59.328125 
Q 17.53125 52.734375 16.796875 39.40625 
Q 19.671875 43.65625 24.015625 45.921875 
Q 28.375 48.1875 33.59375 48.1875 
Q 44.578125 48.1875 50.953125 41.515625 
Q 57.328125 34.859375 57.328125 23.390625 
Q 57.328125 12.15625 50.6875 5.359375 
Q 44.046875 -1.421875 33.015625 -1.421875 
Q 20.359375 -1.421875 13.671875 8.265625 
Q 6.984375 17.96875 6.984375 36.375 
Q 6.984375 53.65625 15.1875 63.9375 
Q 23.390625 74.21875 37.203125 74.21875 
Q 40.921875 74.21875 44.703125 73.484375 
Q 48.484375 72.75 52.59375 71.296875 
z
" id="DejaVuSans-54"/>
      </defs>
      <g transform="translate(34.696875 177.624985)scale(0.1 -0.1)">
       <use xlink:href="#DejaVuSans-48"/>
       <use x="63.623047" xlink:href="#DejaVuSans-46"/>
       <use x="95.410156" xlink:href="#DejaVuSans-54"/>
      </g>
     </g>
    </g>
    <g id="ytick_4">
     <g id="line2d_21">
      <path clip-path="url(#p31d9eae2d0)" d="M 57.6 125.490578 
L 414.72 125.490578 
" style="fill:none;stroke:#b0b0b0;stroke-linecap:square;stroke-width:0.8;"/>
     </g>
     <g id="line2d_22">
      <g>
       <use style="stroke:#000000;stroke-width:0.8;" x="57.6" xlink:href="#m76c9b0b8f7" y="125.490578"/>
      </g>
     </g>
     <g id="text_12">
      <!-- 0.8 -->
      <defs>
       <path d="M 31.78125 34.625 
Q 24.75 34.625 20.71875 30.859375 
Q 16.703125 27.09375 16.703125 20.515625 
Q 16.703125 13.921875 20.71875 10.15625 
Q 24.75 6.390625 31.78125 6.390625 
Q 38.8125 6.390625 42.859375 10.171875 
Q 46.921875 13.96875 46.921875 20.515625 
Q 46.921875 27.09375 42.890625 30.859375 
Q 38.875 34.625 31.78125 34.625 
z
M 21.921875 38.8125 
Q 15.578125 40.375 12.03125 44.71875 
Q 8.5 49.078125 8.5 55.328125 
Q 8.5 64.0625 14.71875 69.140625 
Q 20.953125 74.21875 31.78125 74.21875 
Q 42.671875 74.21875 48.875 69.140625 
Q 55.078125 64.0625 55.078125 55.328125 
Q 55.078125 49.078125 51.53125 44.71875 
Q 48 40.375 41.703125 38.8125 
Q 48.828125 37.15625 52.796875 32.3125 
Q 56.78125 27.484375 56.78125 20.515625 
Q 56.78125 9.90625 50.3125 4.234375 
Q 43.84375 -1.421875 31.78125 -1.421875 
Q 19.734375 -1.421875 13.25 4.234375 
Q 6.78125 9.90625 6.78125 20.515625 
Q 6.78125 27.484375 10.78125 32.3125 
Q 14.796875 37.15625 21.921875 38.8125 
z
M 18.3125 54.390625 
Q 18.3125 48.734375 21.84375 45.5625 
Q 25.390625 42.390625 31.78125 42.390625 
Q 38.140625 42.390625 41.71875 45.5625 
Q 45.3125 48.734375 45.3125 54.390625 
Q 45.3125 60.0625 41.71875 63.234375 
Q 38.140625 66.40625 31.78125 66.40625 
Q 25.390625 66.40625 21.84375 63.234375 
Q 18.3125 60.0625 18.3125 54.390625 
z
" id="DejaVuSans-56"/>
      </defs>
      <g transform="translate(34.696875 129.289797)scale(0.1 -0.1)">
       <use xlink:href="#DejaVuSans-48"/>
       <use x="63.623047" xlink:href="#DejaVuSans-46"/>
       <use x="95.410156" xlink:href="#DejaVuSans-56"/>
      </g>
     </g>
    </g>
    <g id="ytick_5">
     <g id="line2d_23">
      <path clip-path="url(#p31d9eae2d0)" d="M 57.6 77.155389 
L 414.72 77.155389 
" style="fill:none;stroke:#b0b0b0;stroke-linecap:square;stroke-width:0.8;"/>
     </g>
     <g id="line2d_24">
      <g>
       <use style="stroke:#000000;stroke-width:0.8;" x="57.6" xlink:href="#m76c9b0b8f7" y="77.155389"/>
      </g>
     </g>
     <g id="text_13">
      <!-- 1.0 -->
      <g transform="translate(34.696875 80.954608)scale(0.1 -0.1)">
       <use xlink:href="#DejaVuSans-49"/>
       <use x="63.623047" xlink:href="#DejaVuSans-46"/>
       <use x="95.410156" xlink:href="#DejaVuSans-48"/>
      </g>
     </g>
    </g>
    <g id="text_14">
     <!-- Scores -->
     <defs>
      <path d="M 53.515625 70.515625 
L 53.515625 60.890625 
Q 47.90625 63.578125 42.921875 64.890625 
Q 37.9375 66.21875 33.296875 66.21875 
Q 25.25 66.21875 20.875 63.09375 
Q 16.5 59.96875 16.5 54.203125 
Q 16.5 49.359375 19.40625 46.890625 
Q 22.3125 44.4375 30.421875 42.921875 
L 36.375 41.703125 
Q 47.40625 39.59375 52.65625 34.296875 
Q 57.90625 29 57.90625 20.125 
Q 57.90625 9.515625 50.796875 4.046875 
Q 43.703125 -1.421875 29.984375 -1.421875 
Q 24.8125 -1.421875 18.96875 -0.25 
Q 13.140625 0.921875 6.890625 3.21875 
L 6.890625 13.375 
Q 12.890625 10.015625 18.65625 8.296875 
Q 24.421875 6.59375 29.984375 6.59375 
Q 38.421875 6.59375 43.015625 9.90625 
Q 47.609375 13.234375 47.609375 19.390625 
Q 47.609375 24.75 44.3125 27.78125 
Q 41.015625 30.8125 33.5 32.328125 
L 27.484375 33.5 
Q 16.453125 35.6875 11.515625 40.375 
Q 6.59375 45.0625 6.59375 53.421875 
Q 6.59375 63.09375 13.40625 68.65625 
Q 20.21875 74.21875 32.171875 74.21875 
Q 37.3125 74.21875 42.625 73.28125 
Q 47.953125 72.359375 53.515625 70.515625 
z
" id="DejaVuSans-83"/>
      <path d="M 48.78125 52.59375 
L 48.78125 44.1875 
Q 44.96875 46.296875 41.140625 47.34375 
Q 37.3125 48.390625 33.40625 48.390625 
Q 24.65625 48.390625 19.8125 42.84375 
Q 14.984375 37.3125 14.984375 27.296875 
Q 14.984375 17.28125 19.8125 11.734375 
Q 24.65625 6.203125 33.40625 6.203125 
Q 37.3125 6.203125 41.140625 7.25 
Q 44.96875 8.296875 48.78125 10.40625 
L 48.78125 2.09375 
Q 45.015625 0.34375 40.984375 -0.53125 
Q 36.96875 -1.421875 32.421875 -1.421875 
Q 20.0625 -1.421875 12.78125 6.34375 
Q 5.515625 14.109375 5.515625 27.296875 
Q 5.515625 40.671875 12.859375 48.328125 
Q 20.21875 56 33.015625 56 
Q 37.15625 56 41.109375 55.140625 
Q 45.0625 54.296875 48.78125 52.59375 
z
" id="DejaVuSans-99"/>
     </defs>
     <g transform="translate(28.617187 191.245969)rotate(-90)scale(0.1 -0.1)">
      <use xlink:href="#DejaVuSans-83"/>
      <use x="63.476562" xlink:href="#DejaVuSans-99"/>
      <use x="118.457031" xlink:href="#DejaVuSans-111"/>
      <use x="179.638672" xlink:href="#DejaVuSans-114"/>
      <use x="220.720703" xlink:href="#DejaVuSans-101"/>
      <use x="282.244141" xlink:href="#DejaVuSans-115"/>
     </g>
    </g>
   </g>
   <g id="line2d_25">
    <path clip-path="url(#p31d9eae2d0)" d="M 73.832727 197.476174 
L 74.918528 198.297872 
L 76.00433 195.38326 
L 77.090131 196.567472 
L 78.175932 184.053492 
L 80.347534 123.175322 
L 81.433335 117.118923 
L 82.519137 116.712908 
L 83.604938 110.762846 
L 84.690739 120.004534 
L 85.77654 121.130744 
L 86.862341 119.02333 
L 87.948142 123.097986 
L 89.033943 118.385305 
L 90.119745 110.245659 
L 91.205546 116.587236 
L 92.291347 114.242979 
L 93.377148 108.766603 
L 94.462949 111.613545 
L 95.54875 124.427204 
L 96.634552 129.410562 
L 97.720353 105.213966 
L 98.806154 106.70269 
L 99.891955 134.625928 
L 100.977756 128.477692 
L 103.149358 111.980893 
L 104.23516 123.387997 
L 105.320961 118.85899 
L 106.406762 124.823552 
L 107.492563 106.664022 
L 108.578364 117.863285 
L 109.664165 113.83213 
L 110.749967 100.264443 
L 111.835768 104.295598 
L 112.921569 106.074333 
L 114.00737 103.328894 
L 115.093171 108.616764 
L 116.178972 96.146285 
L 117.264773 96.45563 
L 118.350575 99.91643 
L 119.436376 106.659188 
L 120.522177 97.58184 
L 121.607978 101.559826 
L 122.693779 113.643623 
L 123.77958 107.326214 
L 124.865382 99.877761 
L 127.036984 113.575954 
L 128.122785 102.44436 
L 129.208586 124.702714 
L 130.294387 124.098524 
L 131.380189 94.179043 
L 132.46599 108.375088 
L 133.551791 99.31224 
L 134.637592 112.038895 
L 135.723393 112.058229 
L 136.809194 108.766603 
L 137.894995 115.862208 
L 138.980797 103.005048 
L 140.066598 93.9277 
L 141.152399 105.30097 
L 142.2382 112.647918 
L 143.324001 102.840709 
L 144.409802 98.911058 
L 145.495604 93.120502 
L 146.581405 89.485696 
L 147.667206 90.897083 
L 148.753007 96.189787 
L 149.838808 92.066795 
L 150.924609 96.600636 
L 152.01041 92.066795 
L 153.096212 106.253173 
L 154.182013 101.869171 
L 155.267814 92.482478 
L 156.353615 109.520632 
L 157.439416 100.332112 
L 158.525217 98.703216 
L 159.611019 92.443809 
L 160.69682 95.203749 
L 161.782621 105.547479 
L 162.868422 102.420192 
L 163.954223 109.65597 
L 165.040024 105.508811 
L 166.125825 99.210736 
L 167.211627 102.110847 
L 168.297428 113.484117 
L 169.383229 106.34501 
L 170.46903 104.281097 
L 171.554831 95.50826 
L 172.640632 104.184427 
L 173.726434 95.600097 
L 174.812235 91.501273 
L 175.898036 93.806862 
L 176.983837 97.248327 
L 178.069638 105.513644 
L 179.155439 97.393333 
L 180.24124 105.262301 
L 181.327042 94.406218 
L 182.412843 97.702678 
L 183.498644 104.865953 
L 184.584445 94.019537 
L 185.670246 89.263354 
L 186.756047 95.59043 
L 188.92765 102.318688 
L 190.013451 96.073782 
L 191.099252 95.812772 
L 192.185053 91.380435 
L 193.270854 90.529736 
L 194.356656 91.467439 
L 195.442457 103.213742 
L 196.528258 111.189049 
L 197.614059 122.580989 
L 198.69986 94.957239 
L 200.871462 98.393279 
L 201.957264 99.805259 
L 203.043065 116.344802 
L 204.128866 115.195183 
L 205.214667 104.914288 
L 206.300468 106.792751 
L 207.386269 93.483016 
L 208.472071 92.467977 
L 209.557872 101.754209 
L 210.643673 97.910519 
L 211.729474 95.93213 
L 212.815275 110.383462 
L 213.901076 102.676369 
L 214.986877 103.430398 
L 216.072679 99.718255 
L 217.15848 98.057892 
L 218.244281 110.453501 
L 219.330082 99.611918 
L 220.415883 95.498593 
L 221.501684 92.893327 
L 222.587486 107.152207 
L 223.673287 111.449206 
L 224.759088 94.947572 
L 225.844889 91.965291 
L 226.93069 101.042639 
L 228.016491 99.292906 
L 229.102292 96.300958 
L 230.188094 105.368639 
L 231.273895 104.788617 
L 232.359696 110.361664 
L 233.445497 101.574327 
L 234.531298 100.641457 
L 235.617099 100.651124 
L 236.702901 144.104459 
L 237.788702 149.856346 
L 238.874503 152.82896 
L 239.960304 142.610901 
L 241.046105 141.151179 
L 242.131906 117.689278 
L 243.217708 110.468001 
L 244.303509 118.385305 
L 245.38931 103.759077 
L 246.475111 113.445449 
L 247.560912 115.842874 
L 248.646713 113.445449 
L 249.732514 104.285931 
L 250.818316 119.124833 
L 251.904117 121.652764 
L 252.989918 120.004534 
L 254.075719 108.848772 
L 255.16152 116.925582 
L 256.247321 99.955098 
L 257.333123 117.607109 
L 258.418924 114.165643 
L 259.504725 111.995393 
L 260.590526 115.702702 
L 261.676327 108.7086 
L 262.762128 107.021702 
L 263.847929 104.803117 
L 264.933731 109.689805 
L 266.019532 117.718279 
L 267.105333 106.248339 
L 268.191134 108.065742 
L 269.276935 105.291303 
L 270.362736 105.262301 
L 271.448538 111.951892 
L 272.534339 106.760692 
L 273.62014 105.073794 
L 274.705941 110.758012 
L 275.791742 98.935225 
L 276.877543 103.701075 
L 277.963344 101.965842 
L 279.049146 105.692485 
L 280.134947 101.66133 
L 281.220748 108.249416 
L 282.306549 105.760154 
L 283.39235 114.039972 
L 284.478151 106.891197 
L 285.563953 97.881518 
L 286.649754 111.784441 
L 287.735555 112.071581 
L 289.907157 109.945981 
L 290.992958 109.225787 
L 292.07876 109.138784 
L 293.164561 108.877774 
L 294.250362 104.917016 
L 295.336163 105.305803 
L 296.421964 100.525453 
L 297.507765 126.626455 
L 298.593566 110.564672 
L 299.679368 118.771508 
L 300.765169 112.038081 
L 301.85097 101.498748 
L 302.936771 106.888854 
L 304.022572 104.783783 
L 305.108373 101.332651 
L 306.194175 106.451347 
L 307.279976 96.834032 
L 308.365777 103.005048 
L 309.451578 96.532536 
L 310.537379 103.517401 
L 311.62318 96.015684 
L 312.708981 98.998061 
L 313.794783 100.243986 
L 314.880584 100.346613 
L 315.966385 102.212351 
L 317.052186 110.573669 
L 318.137987 108.353121 
L 319.223788 95.648432 
L 320.30959 94.182776 
L 321.395391 110.555493 
L 322.481192 94.430386 
L 323.566993 103.22739 
L 324.652794 104.754782 
L 325.738595 103.029216 
L 326.824396 98.166696 
L 327.910198 96.262289 
L 328.995999 100.075936 
L 330.0818 96.668305 
L 331.167601 92.400308 
L 332.253402 96.924481 
L 333.339203 102.797207 
L 334.425005 109.385293 
L 335.510806 90.404065 
L 336.596607 93.047999 
L 337.682408 102.70537 
L 338.768209 98.2682 
L 339.85401 91.41427 
L 340.939811 104.861119 
L 342.025613 101.211813 
L 343.111414 99.65542 
L 344.197215 93.246174 
L 345.283016 103.879915 
L 346.368817 91.341767 
L 347.454618 96.532966 
L 348.54042 96.446816 
L 350.712022 104.854412 
L 351.797823 115.009733 
L 352.883624 94.918571 
L 353.969425 91.419103 
L 355.055227 94.696229 
L 356.141028 99.768676 
L 357.226829 91.008254 
L 358.31263 95.705251 
L 359.398431 93.68119 
L 360.484232 88.465823 
L 361.570033 92.37614 
L 362.655835 95.50826 
L 363.741636 96.146285 
L 364.827437 111.103461 
L 365.913238 94.333715 
L 366.999039 108.380908 
L 368.08484 87.064103 
L 369.170642 111.521708 
L 370.256443 101.82567 
L 371.342244 106.530863 
L 372.428045 96.47051 
L 373.513846 92.040655 
L 374.599647 111.72955 
L 375.685448 90.496888 
L 376.77125 103.140387 
L 377.857051 93.739193 
L 378.942852 91.395176 
L 380.028653 88.049762 
L 381.114454 96.226416 
L 382.200255 100.872803 
L 383.286057 101.1423 
L 384.371858 107.809566 
L 385.457659 105.648847 
L 386.54346 96.701548 
L 387.629261 98.003639 
L 388.715062 98.099027 
L 389.800863 101.964165 
L 390.886665 106.422346 
L 391.972466 97.001249 
L 393.058267 107.042648 
L 394.144068 107.093613 
L 395.229869 90.561006 
L 397.401472 107.190875 
L 398.487273 97.93952 
L 398.487273 97.93952 
" style="fill:none;stroke:#0000ff;stroke-linecap:square;stroke-width:1.5;"/>
   </g>
   <g id="line2d_26">
    <path clip-path="url(#p31d9eae2d0)" d="M 73.832727 197.749532 
L 74.918528 197.915433 
L 76.00433 197.326541 
L 77.090131 195.871555 
L 78.175932 199.19586 
L 79.261733 196.986378 
L 80.347534 200.103131 
L 81.433335 198.986119 
L 82.519137 194.761687 
L 83.604938 193.132486 
L 84.690739 190.600756 
L 85.77654 188.593066 
L 86.862341 179.339189 
L 87.948142 174.524398 
L 89.033943 180.560029 
L 90.119745 181.115791 
L 91.205546 174.831747 
L 92.291347 178.331854 
L 93.377148 179.386775 
L 94.462949 173.519382 
L 95.54875 174.082332 
L 96.634552 175.008626 
L 97.720353 174.938441 
L 98.806154 163.545211 
L 99.891955 163.782569 
L 102.063557 159.041344 
L 103.149358 157.253406 
L 104.23516 154.536711 
L 105.320961 148.902806 
L 106.406762 150.397913 
L 107.492563 153.618865 
L 108.578364 150.757451 
L 109.664165 156.676566 
L 110.749967 156.578908 
L 111.835768 160.712255 
L 112.921569 154.814591 
L 114.00737 159.535013 
L 115.093171 152.423621 
L 116.178972 156.264392 
L 117.264773 156.234101 
L 118.350575 151.289913 
L 119.436376 151.342508 
L 120.522177 148.826745 
L 121.607978 154.478052 
L 122.693779 155.859445 
L 123.77958 143.402394 
L 124.865382 137.213456 
L 125.951183 135.473922 
L 127.036984 134.028933 
L 128.122785 130.028982 
L 129.208586 133.070595 
L 130.294387 131.819702 
L 131.380189 129.7595 
L 132.46599 136.237103 
L 133.551791 130.627462 
L 134.637592 126.488049 
L 135.723393 126.115125 
L 136.809194 126.920116 
L 137.894995 116.906902 
L 138.980797 121.069806 
L 140.066598 115.668768 
L 141.152399 129.00058 
L 142.2382 123.672061 
L 143.324001 123.126805 
L 144.409802 131.882991 
L 145.495604 127.70045 
L 146.581405 124.217663 
L 147.667206 119.586335 
L 148.753007 125.437751 
L 149.838808 123.294955 
L 150.924609 122.093585 
L 152.01041 127.986522 
L 153.096212 122.687208 
L 154.182013 122.000925 
L 155.267814 126.689251 
L 156.353615 116.060697 
L 157.439416 117.452375 
L 158.525217 113.235581 
L 159.611019 124.290598 
L 160.69682 118.190208 
L 161.782621 119.546579 
L 162.868422 126.490848 
L 163.954223 124.412924 
L 165.040024 125.4009 
L 166.125825 118.402324 
L 167.211627 118.011848 
L 168.297428 125.431133 
L 170.46903 127.741606 
L 171.554831 125.74296 
L 172.640632 119.306473 
L 173.726434 123.150076 
L 174.812235 115.43533 
L 175.898036 116.389788 
L 176.983837 118.518196 
L 178.069638 119.549798 
L 179.155439 118.127479 
L 180.24124 116.051096 
L 181.327042 117.400163 
L 182.412843 117.319997 
L 183.498644 119.148583 
L 184.584445 120.017043 
L 185.670246 118.499327 
L 186.756047 118.694826 
L 187.841849 116.400781 
L 188.92765 120.139998 
L 190.013451 117.080724 
L 191.099252 110.777682 
L 192.185053 121.09422 
L 193.270854 117.687228 
L 194.356656 115.465743 
L 195.442457 122.897115 
L 196.528258 126.220364 
L 197.614059 132.626733 
L 198.69986 125.776149 
L 199.785661 125.585548 
L 200.871462 131.497755 
L 201.957264 124.980293 
L 203.043065 119.83546 
L 204.128866 126.200072 
L 205.214667 128.920558 
L 206.300468 122.528223 
L 207.386269 124.588363 
L 208.472071 116.140663 
L 209.557872 117.219703 
L 210.643673 117.822331 
L 211.729474 114.937662 
L 212.815275 116.528972 
L 213.901076 120.826467 
L 214.986877 114.182706 
L 216.072679 111.85704 
L 217.15848 115.040504 
L 218.244281 125.060569 
L 220.415883 120.521233 
L 221.501684 118.729637 
L 222.587486 118.151237 
L 223.673287 121.762633 
L 224.759088 121.452589 
L 225.844889 112.427895 
L 226.93069 123.105185 
L 228.016491 127.470749 
L 229.102292 127.321684 
L 230.188094 117.770463 
L 231.273895 124.16011 
L 232.359696 115.52303 
L 233.445497 124.112033 
L 234.531298 127.199416 
L 235.617099 115.822564 
L 236.702901 122.486352 
L 237.788702 113.334882 
L 238.874503 122.854819 
L 239.960304 118.341913 
L 241.046105 116.292369 
L 242.131906 128.442148 
L 243.217708 120.721179 
L 244.303509 122.629488 
L 245.38931 112.25585 
L 246.475111 123.171486 
L 247.560912 116.533951 
L 248.646713 115.44651 
L 249.732514 124.896724 
L 250.818316 128.110387 
L 251.904117 128.734915 
L 252.989918 125.942748 
L 254.075719 120.936455 
L 255.16152 121.754095 
L 256.247321 118.841215 
L 257.333123 118.559555 
L 258.418924 133.931132 
L 259.504725 123.986477 
L 260.590526 116.63673 
L 261.676327 123.440047 
L 262.762128 118.985696 
L 263.847929 117.141036 
L 266.019532 124.360394 
L 267.105333 122.45673 
L 268.191134 127.500631 
L 269.276935 126.416061 
L 270.362736 119.847782 
L 271.448538 125.275382 
L 272.534339 126.886384 
L 273.62014 118.883213 
L 274.705941 118.036934 
L 275.791742 120.447881 
L 276.877543 118.714557 
L 277.963344 124.696925 
L 279.049146 118.471008 
L 280.134947 126.052435 
L 281.220748 128.200141 
L 282.306549 128.514337 
L 283.39235 124.122251 
L 284.478151 124.666467 
L 285.563953 119.641304 
L 286.649754 119.680322 
L 287.735555 116.380681 
L 288.821356 115.039776 
L 289.907157 122.290124 
L 290.992958 115.202092 
L 292.07876 120.526715 
L 293.164561 114.025648 
L 294.250362 120.929155 
L 295.336163 114.796768 
L 296.421964 121.03756 
L 297.507765 125.134895 
L 298.593566 119.335766 
L 299.679368 118.7616 
L 300.765169 131.538657 
L 301.85097 123.348501 
L 302.936771 128.890564 
L 304.022572 122.94799 
L 305.108373 123.691329 
L 306.194175 116.722295 
L 307.279976 122.342544 
L 308.365777 127.36149 
L 309.451578 125.305792 
L 310.537379 128.102986 
L 311.62318 121.796838 
L 312.708981 131.048852 
L 313.794783 132.913228 
L 314.880584 122.052408 
L 315.966385 126.241024 
L 317.052186 117.004421 
L 318.137987 120.379492 
L 319.223788 132.03044 
L 320.30959 124.481201 
L 321.395391 127.759867 
L 322.481192 123.826221 
L 323.566993 121.976709 
L 324.652794 121.738827 
L 325.738595 130.772543 
L 326.824396 121.526854 
L 327.910198 118.639892 
L 328.995999 118.000284 
L 330.0818 120.90698 
L 331.167601 124.154211 
L 332.253402 121.813727 
L 333.339203 117.248995 
L 334.425005 117.291438 
L 335.510806 108.000907 
L 336.596607 133.128607 
L 337.682408 115.754139 
L 338.768209 122.351849 
L 339.85401 124.037855 
L 340.939811 128.096317 
L 342.025613 127.073242 
L 343.111414 127.831154 
L 344.197215 126.408227 
L 345.283016 130.839295 
L 346.368817 130.476294 
L 347.454618 140.222991 
L 348.54042 142.145317 
L 349.626221 126.93783 
L 350.712022 132.251552 
L 351.797823 127.382736 
L 352.883624 129.732766 
L 353.969425 131.709983 
L 355.055227 121.997699 
L 356.141028 127.294077 
L 357.226829 124.4822 
L 358.31263 131.855637 
L 359.398431 138.370221 
L 360.484232 125.449475 
L 361.570033 123.672141 
L 362.655835 125.292665 
L 363.741636 125.758713 
L 364.827437 128.261592 
L 365.913238 124.888561 
L 366.999039 128.321574 
L 369.170642 120.921942 
L 370.256443 138.66918 
L 371.342244 124.649491 
L 372.428045 128.583516 
L 373.513846 118.743767 
L 374.599647 124.026199 
L 375.685448 130.977322 
L 377.857051 125.662765 
L 378.942852 136.052272 
L 380.028653 127.769387 
L 381.114454 128.020979 
L 382.200255 124.77583 
L 383.286057 129.770796 
L 384.371858 133.392763 
L 385.457659 130.825806 
L 386.54346 137.845968 
L 387.629261 129.811386 
L 389.800863 139.081876 
L 390.886665 128.796472 
L 391.972466 141.537486 
L 393.058267 129.245456 
L 394.144068 138.337539 
L 395.229869 137.093311 
L 396.31567 132.305041 
L 397.401472 138.07775 
L 398.487273 127.157592 
L 398.487273 127.157592 
" style="fill:none;stroke:#ff0000;stroke-linecap:square;stroke-width:1.5;"/>
   </g>
   <g id="line2d_27">
    <path clip-path="url(#p31d9eae2d0)" d="M 73.832727 288.054503 
L 74.918528 288.853344 
L 76.00433 287.259866 
L 77.090131 287.612145 
L 78.175932 289.868728 
L 79.261733 288.796188 
L 80.347534 290.428282 
L 81.433335 289.479844 
L 82.519137 286.68335 
L 83.604938 285.727373 
L 85.77654 282.060678 
L 87.948142 268.825652 
L 89.033943 274.124078 
L 90.119745 276.014254 
L 91.205546 270.573686 
L 92.291347 271.97823 
L 93.377148 275.36827 
L 94.462949 270.664823 
L 95.54875 269.990701 
L 96.634552 270.717629 
L 97.720353 270.464511 
L 98.806154 255.570637 
L 99.891955 261.255828 
L 100.977756 254.917165 
L 102.063557 250.394406 
L 103.149358 252.401162 
L 104.23516 247.504582 
L 105.320961 241.917102 
L 107.492563 246.953723 
L 108.578364 243.918746 
L 109.664165 249.531909 
L 110.749967 249.38189 
L 111.835768 255.210682 
L 112.921569 248.897363 
L 114.00737 254.041785 
L 115.093171 246.362638 
L 116.178972 247.790408 
L 117.264773 248.781248 
L 118.350575 243.016506 
L 119.436376 243.245388 
L 120.522177 238.575124 
L 121.607978 243.432237 
L 122.693779 246.323576 
L 123.77958 229.935616 
L 124.865382 216.698468 
L 125.951183 215.910265 
L 127.036984 210.944456 
L 128.122785 204.039072 
L 129.208586 208.80793 
L 130.294387 207.220892 
L 131.380189 204.827445 
L 132.46599 215.740456 
L 133.551791 206.646757 
L 134.637592 199.17698 
L 135.723393 194.546689 
L 136.809194 200.364187 
L 137.894995 177.309452 
L 138.980797 186.66595 
L 140.066598 175.414064 
L 141.152399 204.872171 
L 142.2382 191.877315 
L 143.324001 190.48393 
L 144.409802 207.942242 
L 145.495604 202.968663 
L 147.667206 179.645449 
L 148.753007 194.225886 
L 149.838808 192.332733 
L 150.924609 190.197414 
L 152.01041 202.381715 
L 153.096212 190.333156 
L 154.182013 185.382777 
L 155.267814 198.695461 
L 156.353615 178.302988 
L 157.439416 179.222956 
L 158.525217 166.676043 
L 159.611019 194.900782 
L 160.69682 181.359426 
L 161.782621 183.632443 
L 162.868422 197.349044 
L 163.954223 192.595912 
L 165.040024 194.258016 
L 166.125825 179.674568 
L 167.211627 182.831738 
L 168.297428 197.656993 
L 169.383229 196.181795 
L 170.46903 200.10436 
L 171.554831 194.874598 
L 172.640632 185.629856 
L 173.726434 187.847565 
L 174.812235 173.988222 
L 176.983837 176.895315 
L 178.069638 182.7384 
L 179.155439 181.723313 
L 180.24124 175.721914 
L 181.327042 182.771438 
L 182.412843 177.793621 
L 183.498644 184.324429 
L 184.584445 186.032823 
L 185.670246 182.091311 
L 186.756047 179.964907 
L 187.841849 174.71591 
L 188.92765 183.286954 
L 190.013451 180.298015 
L 191.099252 167.881132 
L 192.185053 185.953803 
L 194.356656 174.863121 
L 195.442457 188.600723 
L 196.528258 197.205027 
L 197.614059 206.888613 
L 198.69986 194.875006 
L 199.785661 191.209845 
L 200.871462 204.971061 
L 201.957264 189.683783 
L 203.043065 183.238337 
L 204.128866 193.145224 
L 205.214667 200.639031 
L 206.300468 186.068451 
L 207.386269 192.660298 
L 208.472071 177.093237 
L 209.557872 174.654051 
L 210.643673 175.979191 
L 211.729474 171.353838 
L 212.815275 176.768494 
L 213.901076 186.21103 
L 214.986877 173.391013 
L 216.072679 168.059319 
L 217.15848 172.421483 
L 218.244281 195.253433 
L 219.330082 188.390293 
L 220.415883 187.478811 
L 222.587486 180.155714 
L 223.673287 186.709529 
L 224.759088 187.237603 
L 225.844889 167.899318 
L 226.93069 191.699728 
L 228.016491 198.81355 
L 229.102292 199.535997 
L 230.188094 177.821943 
L 231.273895 190.656764 
L 232.359696 176.965395 
L 233.445497 192.90891 
L 234.531298 199.323485 
L 235.617099 173.239525 
L 236.702901 190.537822 
L 237.788702 171.624027 
L 238.874503 189.42835 
L 239.960304 181.41728 
L 241.046105 174.772285 
L 242.131906 201.50967 
L 243.217708 185.080836 
L 244.303509 188.052137 
L 245.38931 163.645016 
L 246.475111 195.172686 
L 247.560912 177.271171 
L 248.646713 175.623496 
L 249.732514 194.139955 
L 250.818316 198.59609 
L 251.904117 199.99864 
L 252.989918 198.931767 
L 254.075719 184.232936 
L 255.16152 187.230095 
L 256.247321 182.27228 
L 257.333123 181.210685 
L 258.418924 212.887894 
L 259.504725 193.748722 
L 260.590526 178.155457 
L 261.676327 193.207895 
L 262.762128 179.571715 
L 263.847929 177.984451 
L 266.019532 190.359131 
L 267.105333 188.37012 
L 268.191134 201.072519 
L 269.276935 194.509587 
L 270.362736 182.001272 
L 271.448538 197.005515 
L 272.534339 197.556342 
L 273.62014 179.761217 
L 274.705941 180.332004 
L 275.791742 183.710239 
L 276.877543 181.903422 
L 277.963344 191.933527 
L 279.049146 185.01452 
L 280.134947 193.01487 
L 281.220748 203.239923 
L 282.306549 202.829581 
L 283.39235 188.762728 
L 284.478151 194.570303 
L 285.563953 184.415215 
L 286.649754 184.827489 
L 287.735555 176.095612 
L 288.821356 174.214974 
L 289.907157 187.547451 
L 290.992958 176.386844 
L 292.07876 186.525821 
L 293.164561 171.952009 
L 294.250362 185.172452 
L 295.336163 174.206265 
L 296.421964 186.426034 
L 297.507765 191.246287 
L 298.593566 185.876373 
L 299.679368 178.156272 
L 300.765169 201.738625 
L 301.85097 192.574482 
L 302.936771 200.97679 
L 304.022572 188.865035 
L 305.108373 191.619844 
L 306.194175 175.114517 
L 307.279976 191.707304 
L 308.365777 200.817273 
L 309.451578 196.153806 
L 310.537379 199.904078 
L 311.62318 190.353138 
L 312.708981 207.46647 
L 313.794783 207.869977 
L 314.880584 189.747014 
L 315.966385 193.569408 
L 317.052186 176.564872 
L 318.137987 184.128202 
L 319.223788 207.079554 
L 320.30959 193.312883 
L 321.395391 198.211027 
L 322.481192 191.748844 
L 323.566993 189.74354 
L 324.652794 185.956408 
L 325.738595 202.808224 
L 326.824396 185.77252 
L 327.910198 181.503699 
L 328.995999 180.311471 
L 331.167601 191.222516 
L 332.253402 191.425866 
L 333.339203 179.446667 
L 334.425005 177.772814 
L 335.510806 157.8103 
L 336.596607 208.341134 
L 337.682408 175.034241 
L 338.768209 186.093214 
L 339.85401 191.230855 
L 340.939811 200.299166 
L 342.025613 197.297442 
L 343.111414 193.38649 
L 344.197215 197.631324 
L 345.283016 206.139598 
L 346.368817 206.640689 
L 347.454618 220.548787 
L 348.54042 218.967538 
L 349.626221 193.3319 
L 350.712022 206.408766 
L 351.797823 197.421549 
L 352.883624 204.558025 
L 353.969425 205.041559 
L 355.055227 191.172624 
L 356.141028 196.817404 
L 357.226829 191.587136 
L 359.398431 219.397621 
L 360.484232 191.235276 
L 361.570033 194.303719 
L 362.655835 193.173457 
L 363.741636 194.780308 
L 364.827437 199.284874 
L 365.913238 195.394761 
L 366.999039 200.479384 
L 368.08484 191.749443 
L 369.170642 187.617369 
L 370.256443 218.280708 
L 371.342244 192.325158 
L 372.428045 201.122167 
L 373.513846 181.527598 
L 374.599647 188.77081 
L 375.685448 203.48373 
L 376.77125 204.182332 
L 377.857051 194.203512 
L 378.942852 209.680779 
L 380.028653 197.495761 
L 381.114454 196.512712 
L 382.200255 191.948857 
L 383.286057 203.646515 
L 384.371858 206.849565 
L 385.457659 203.697893 
L 386.54346 216.157591 
L 387.629261 201.861417 
L 388.715062 210.482526 
L 389.800863 215.665123 
L 390.886665 199.406317 
L 391.972466 222.50483 
L 393.058267 201.732309 
L 394.144068 215.606576 
L 395.229869 214.820341 
L 396.31567 209.248024 
L 397.401472 217.368711 
L 398.487273 197.204194 
L 398.487273 197.204194 
" style="fill:none;stroke:#008000;stroke-linecap:square;stroke-width:1.5;"/>
   </g>
   <g id="patch_3">
    <path d="M 57.6 307.584 
L 57.6 41.472 
" style="fill:none;stroke:#000000;stroke-linecap:square;stroke-linejoin:miter;stroke-width:0.8;"/>
   </g>
   <g id="patch_4">
    <path d="M 414.72 307.584 
L 414.72 41.472 
" style="fill:none;stroke:#000000;stroke-linecap:square;stroke-linejoin:miter;stroke-width:0.8;"/>
   </g>
   <g id="patch_5">
    <path d="M 57.6 307.584 
L 414.72 307.584 
" style="fill:none;stroke:#000000;stroke-linecap:square;stroke-linejoin:miter;stroke-width:0.8;"/>
   </g>
   <g id="patch_6">
    <path d="M 57.6 41.472 
L 414.72 41.472 
" style="fill:none;stroke:#000000;stroke-linecap:square;stroke-linejoin:miter;stroke-width:0.8;"/>
   </g>
   <g id="text_15">
    <!-- Scores by generation -->
    <defs>
     <path id="DejaVuSans-32"/>
     <path d="M 48.6875 27.296875 
Q 48.6875 37.203125 44.609375 42.84375 
Q 40.53125 48.484375 33.40625 48.484375 
Q 26.265625 48.484375 22.1875 42.84375 
Q 18.109375 37.203125 18.109375 27.296875 
Q 18.109375 17.390625 22.1875 11.75 
Q 26.265625 6.109375 33.40625 6.109375 
Q 40.53125 6.109375 44.609375 11.75 
Q 48.6875 17.390625 48.6875 27.296875 
z
M 18.109375 46.390625 
Q 20.953125 51.265625 25.265625 53.625 
Q 29.59375 56 35.59375 56 
Q 45.5625 56 51.78125 48.09375 
Q 58.015625 40.1875 58.015625 27.296875 
Q 58.015625 14.40625 51.78125 6.484375 
Q 45.5625 -1.421875 35.59375 -1.421875 
Q 29.59375 -1.421875 25.265625 0.953125 
Q 20.953125 3.328125 18.109375 8.203125 
L 18.109375 0 
L 9.078125 0 
L 9.078125 75.984375 
L 18.109375 75.984375 
z
" id="DejaVuSans-98"/>
     <path d="M 32.171875 -5.078125 
Q 28.375 -14.84375 24.75 -17.8125 
Q 21.140625 -20.796875 15.09375 -20.796875 
L 7.90625 -20.796875 
L 7.90625 -13.28125 
L 13.1875 -13.28125 
Q 16.890625 -13.28125 18.9375 -11.515625 
Q 21 -9.765625 23.484375 -3.21875 
L 25.09375 0.875 
L 2.984375 54.6875 
L 12.5 54.6875 
L 29.59375 11.921875 
L 46.6875 54.6875 
L 56.203125 54.6875 
z
" id="DejaVuSans-121"/>
     <path d="M 45.40625 27.984375 
Q 45.40625 37.75 41.375 43.109375 
Q 37.359375 48.484375 30.078125 48.484375 
Q 22.859375 48.484375 18.828125 43.109375 
Q 14.796875 37.75 14.796875 27.984375 
Q 14.796875 18.265625 18.828125 12.890625 
Q 22.859375 7.515625 30.078125 7.515625 
Q 37.359375 7.515625 41.375 12.890625 
Q 45.40625 18.265625 45.40625 27.984375 
z
M 54.390625 6.78125 
Q 54.390625 -7.171875 48.1875 -13.984375 
Q 42 -20.796875 29.203125 -20.796875 
Q 24.46875 -20.796875 20.265625 -20.09375 
Q 16.0625 -19.390625 12.109375 -17.921875 
L 12.109375 -9.1875 
Q 16.0625 -11.328125 19.921875 -12.34375 
Q 23.78125 -13.375 27.78125 -13.375 
Q 36.625 -13.375 41.015625 -8.765625 
Q 45.40625 -4.15625 45.40625 5.171875 
L 45.40625 9.625 
Q 42.625 4.78125 38.28125 2.390625 
Q 33.9375 0 27.875 0 
Q 17.828125 0 11.671875 7.65625 
Q 5.515625 15.328125 5.515625 27.984375 
Q 5.515625 40.671875 11.671875 48.328125 
Q 17.828125 56 27.875 56 
Q 33.9375 56 38.28125 53.609375 
Q 42.625 51.21875 45.40625 46.390625 
L 45.40625 54.6875 
L 54.390625 54.6875 
z
" id="DejaVuSans-103"/>
    </defs>
    <g transform="translate(172.292812 35.472)scale(0.12 -0.12)">
     <use xlink:href="#DejaVuSans-83"/>
     <use x="63.476562" xlink:href="#DejaVuSans-99"/>
     <use x="118.457031" xlink:href="#DejaVuSans-111"/>
     <use x="179.638672" xlink:href="#DejaVuSans-114"/>
     <use x="220.720703" xlink:href="#DejaVuSans-101"/>
     <use x="282.244141" xlink:href="#DejaVuSans-115"/>
     <use x="334.34375" xlink:href="#DejaVuSans-32"/>
     <use x="366.130859" xlink:href="#DejaVuSans-98"/>
     <use x="429.607422" xlink:href="#DejaVuSans-121"/>
     <use x="488.787109" xlink:href="#DejaVuSans-32"/>
     <use x="520.574219" xlink:href="#DejaVuSans-103"/>
     <use x="584.050781" xlink:href="#DejaVuSans-101"/>
     <use x="645.574219" xlink:href="#DejaVuSans-110"/>
     <use x="708.953125" xlink:href="#DejaVuSans-101"/>
     <use x="770.476562" xlink:href="#DejaVuSans-114"/>
     <use x="811.589844" xlink:href="#DejaVuSans-97"/>
     <use x="872.869141" xlink:href="#DejaVuSans-116"/>
     <use x="912.078125" xlink:href="#DejaVuSans-105"/>
     <use x="939.861328" xlink:href="#DejaVuSans-111"/>
     <use x="1001.042969" xlink:href="#DejaVuSans-110"/>
    </g>
   </g>
   <g id="legend_1">
    <g id="patch_7">
     <path d="M 64.6 93.506375 
L 133.95 93.506375 
Q 135.95 93.506375 135.95 91.506375 
L 135.95 48.472 
Q 135.95 46.472 133.95 46.472 
L 64.6 46.472 
Q 62.6 46.472 62.6 48.472 
L 62.6 91.506375 
Q 62.6 93.506375 64.6 93.506375 
z
" style="fill:#ffffff;opacity:0.8;stroke:#cccccc;stroke-linejoin:miter;"/>
    </g>
    <g id="line2d_28">
     <path d="M 66.6 54.570438 
L 86.6 54.570438 
" style="fill:none;stroke:#0000ff;stroke-linecap:square;stroke-width:1.5;"/>
    </g>
    <g id="line2d_29"/>
    <g id="text_16">
     <!-- species -->
     <defs>
      <path d="M 18.109375 8.203125 
L 18.109375 -20.796875 
L 9.078125 -20.796875 
L 9.078125 54.6875 
L 18.109375 54.6875 
L 18.109375 46.390625 
Q 20.953125 51.265625 25.265625 53.625 
Q 29.59375 56 35.59375 56 
Q 45.5625 56 51.78125 48.09375 
Q 58.015625 40.1875 58.015625 27.296875 
Q 58.015625 14.40625 51.78125 6.484375 
Q 45.5625 -1.421875 35.59375 -1.421875 
Q 29.59375 -1.421875 25.265625 0.953125 
Q 20.953125 3.328125 18.109375 8.203125 
z
M 48.6875 27.296875 
Q 48.6875 37.203125 44.609375 42.84375 
Q 40.53125 48.484375 33.40625 48.484375 
Q 26.265625 48.484375 22.1875 42.84375 
Q 18.109375 37.203125 18.109375 27.296875 
Q 18.109375 17.390625 22.1875 11.75 
Q 26.265625 6.109375 33.40625 6.109375 
Q 40.53125 6.109375 44.609375 11.75 
Q 48.6875 17.390625 48.6875 27.296875 
z
" id="DejaVuSans-112"/>
     </defs>
     <g transform="translate(94.6 58.070438)scale(0.1 -0.1)">
      <use xlink:href="#DejaVuSans-115"/>
      <use x="52.099609" xlink:href="#DejaVuSans-112"/>
      <use x="115.576172" xlink:href="#DejaVuSans-101"/>
      <use x="177.099609" xlink:href="#DejaVuSans-99"/>
      <use x="232.080078" xlink:href="#DejaVuSans-105"/>
      <use x="259.863281" xlink:href="#DejaVuSans-101"/>
      <use x="321.386719" xlink:href="#DejaVuSans-115"/>
     </g>
    </g>
    <g id="line2d_30">
     <path d="M 66.6 69.248563 
L 86.6 69.248563 
" style="fill:none;stroke:#ff0000;stroke-linecap:square;stroke-width:1.5;"/>
    </g>
    <g id="line2d_31"/>
    <g id="text_17">
     <!-- bits -->
     <g transform="translate(94.6 72.748563)scale(0.1 -0.1)">
      <use xlink:href="#DejaVuSans-98"/>
      <use x="63.476562" xlink:href="#DejaVuSans-105"/>
      <use x="91.259766" xlink:href="#DejaVuSans-116"/>
      <use x="130.46875" xlink:href="#DejaVuSans-115"/>
     </g>
    </g>
    <g id="line2d_32">
     <path d="M 66.6 83.926688 
L 86.6 83.926688 
" style="fill:none;stroke:#008000;stroke-linecap:square;stroke-width:1.5;"/>
    </g>
    <g id="line2d_33"/>
    <g id="text_18">
     <!-- total -->
     <defs>
      <path d="M 9.421875 75.984375 
L 18.40625 75.984375 
L 18.40625 0 
L 9.421875 0 
z
" id="DejaVuSans-108"/>
     </defs>
     <g transform="translate(94.6 87.426688)scale(0.1 -0.1)">
      <use xlink:href="#DejaVuSans-116"/>
      <use x="39.208984" xlink:href="#DejaVuSans-111"/>
      <use x="100.390625" xlink:href="#DejaVuSans-116"/>
      <use x="139.599609" xlink:href="#DejaVuSans-97"/>
      <use x="200.878906" xlink:href="#DejaVuSans-108"/>
     </g>
    </g>
   </g>
  </g>
 </g>
 <defs>
  <clipPath id="p31d9eae2d0">
   <rect height="266.112" width="357.12" x="57.6" y="41.472"/>
  </clipPath>
 </defs>
</svg>
