<?xml version="1.0" encoding="UTF-8" standalone="no"?>
<!DOCTYPE svg PUBLIC "-//W3C//DTD SVG 1.1//EN"
 "http://www.w3.org/Graphics/SVG/1.1/DTD/svg11.dtd">
<!-- Generated by graphviz version 2.40.1 (20161225.0304)
 -->
<!-- Title: %3 Pages: 1 -->
<svg width="390pt" height="168pt"
 viewBox="0.00 0.00 389.61 167.71" xmlns="http://www.w3.org/2000/svg" xmlns:xlink="http://www.w3.org/1999/xlink">
<g id="graph0" class="graph" transform="scale(1 1) rotate(0) translate(4 163.7107)">
<title>%3</title>
<polygon fill="#ffffff" stroke="transparent" points="-4,4 -4,-163.7107 385.6082,-163.7107 385.6082,4 -4,4"/>
<!-- &#45;1 -->
<g id="node1" class="node">
<title>&#45;1</title>
<polygon fill="#d3d3d3" stroke="#000000" points="36.8621,-159.7107 12.8572,-159.7107 12.8572,-142.7107 36.8621,-142.7107 36.8621,-159.7107"/>
<text text-anchor="middle" x="24.8597" y="-148.5107" font-family="Times,serif" font-size="9.00" fill="#000000">&#45;1</text>
</g>
<!-- &#45;2 -->
<g id="node2" class="node">
<title>&#45;2</title>
<polygon fill="#d3d3d3" stroke="#000000" points="81.8621,-159.7107 57.8572,-159.7107 57.8572,-142.7107 81.8621,-142.7107 81.8621,-159.7107"/>
<text text-anchor="middle" x="69.8597" y="-148.5107" font-family="Times,serif" font-size="9.00" fill="#000000">&#45;2</text>
</g>
<!-- &#45;1&#45;&gt;&#45;2 -->
<!-- 838 -->
<g id="node13" class="node">
<title>838</title>
<ellipse fill="#ffffff" stroke="#000000" cx="20.8597" cy="-85.851" rx="20.7202" ry="20.7202"/>
<text text-anchor="middle" x="20.8597" y="-83.151" font-family="Times,serif" font-size="9.00" fill="#000000">838</text>
</g>
<!-- &#45;1&#45;&gt;838 -->
<g id="edge12" class="edge">
<title>&#45;1&#45;&gt;838</title>
<path fill="none" stroke="#00ff00" stroke-width=".3392" d="M24.3367,-142.666C23.9293,-136.0083 23.337,-126.331 22.7564,-116.8437"/>
<polygon fill="#00ff00" stroke="#00ff00" stroke-width=".3392" points="26.2446,-116.5431 22.1402,-106.7756 19.2577,-116.9708 26.2446,-116.5431"/>
</g>
<!-- &#45;3 -->
<g id="node3" class="node">
<title>&#45;3</title>
<polygon fill="#d3d3d3" stroke="#000000" points="135.8621,-159.7107 111.8572,-159.7107 111.8572,-142.7107 135.8621,-142.7107 135.8621,-159.7107"/>
<text text-anchor="middle" x="123.8597" y="-148.5107" font-family="Times,serif" font-size="9.00" fill="#000000">&#45;3</text>
</g>
<!-- &#45;2&#45;&gt;&#45;3 -->
<!-- 0 -->
<g id="node10" class="node">
<title>0</title>
<ellipse fill="#add8e6" stroke="#000000" cx="62.8597" cy="-14.4957" rx="14.4914" ry="14.4914"/>
<text text-anchor="middle" x="62.8597" y="-11.7957" font-family="Times,serif" font-size="9.00" fill="#000000">0</text>
</g>
<!-- &#45;2&#45;&gt;0 -->
<g id="edge11" class="edge">
<title>&#45;2&#45;&gt;0</title>
<path fill="none" stroke="#00ff00" stroke-width=".9273" d="M69.4218,-142.6585C68.3776,-122.2646 65.7097,-70.1593 64.1156,-39.0261"/>
<polygon fill="#00ff00" stroke="#00ff00" stroke-width=".9273" points="67.6079,-38.7829 63.601,-28.975 60.617,-39.1409 67.6079,-38.7829"/>
</g>
<!-- &#45;4 -->
<g id="node4" class="node">
<title>&#45;4</title>
<polygon fill="#d3d3d3" stroke="#000000" points="176.8621,-159.7107 152.8572,-159.7107 152.8572,-142.7107 176.8621,-142.7107 176.8621,-159.7107"/>
<text text-anchor="middle" x="164.8597" y="-148.5107" font-family="Times,serif" font-size="9.00" fill="#000000">&#45;4</text>
</g>
<!-- &#45;3&#45;&gt;&#45;4 -->
<!-- 2 -->
<g id="node12" class="node">
<title>2</title>
<ellipse fill="#add8e6" stroke="#000000" cx="156.8597" cy="-14.4957" rx="14.4914" ry="14.4914"/>
<text text-anchor="middle" x="156.8597" y="-11.7957" font-family="Times,serif" font-size="9.00" fill="#000000">2</text>
</g>
<!-- &#45;3&#45;&gt;2 -->
<g id="edge13" class="edge">
<title>&#45;3&#45;&gt;2</title>
<path fill="none" stroke="#00ff00" stroke-width=".1895" d="M125.9239,-142.6585C130.8466,-122.2646 143.4237,-70.1593 150.9385,-39.0261"/>
<polygon fill="#00ff00" stroke="#00ff00" stroke-width=".1895" points="154.4205,-39.517 153.3647,-28.975 147.6159,-37.8745 154.4205,-39.517"/>
</g>
<!-- &#45;5 -->
<g id="node5" class="node">
<title>&#45;5</title>
<polygon fill="#d3d3d3" stroke="#000000" points="217.8621,-159.7107 193.8572,-159.7107 193.8572,-142.7107 217.8621,-142.7107 217.8621,-159.7107"/>
<text text-anchor="middle" x="205.8597" y="-148.5107" font-family="Times,serif" font-size="9.00" fill="#000000">&#45;5</text>
</g>
<!-- &#45;4&#45;&gt;&#45;5 -->
<!-- &#45;6 -->
<g id="node6" class="node">
<title>&#45;6</title>
<polygon fill="#d3d3d3" stroke="#000000" points="258.8621,-159.7107 234.8572,-159.7107 234.8572,-142.7107 258.8621,-142.7107 258.8621,-159.7107"/>
<text text-anchor="middle" x="246.8597" y="-148.5107" font-family="Times,serif" font-size="9.00" fill="#000000">&#45;6</text>
</g>
<!-- &#45;5&#45;&gt;&#45;6 -->
<!-- &#45;7 -->
<g id="node7" class="node">
<title>&#45;7</title>
<polygon fill="#d3d3d3" stroke="#000000" points="299.8621,-159.7107 275.8572,-159.7107 275.8572,-142.7107 299.8621,-142.7107 299.8621,-159.7107"/>
<text text-anchor="middle" x="287.8597" y="-148.5107" font-family="Times,serif" font-size="9.00" fill="#000000">&#45;7</text>
</g>
<!-- &#45;6&#45;&gt;&#45;7 -->
<!-- &#45;8 -->
<g id="node8" class="node">
<title>&#45;8</title>
<polygon fill="#d3d3d3" stroke="#000000" points="340.8621,-159.7107 316.8572,-159.7107 316.8572,-142.7107 340.8621,-142.7107 340.8621,-159.7107"/>
<text text-anchor="middle" x="328.8597" y="-148.5107" font-family="Times,serif" font-size="9.00" fill="#000000">&#45;8</text>
</g>
<!-- &#45;7&#45;&gt;&#45;8 -->
<!-- &#45;9 -->
<g id="node9" class="node">
<title>&#45;9</title>
<polygon fill="#d3d3d3" stroke="#000000" points="381.8621,-159.7107 357.8572,-159.7107 357.8572,-142.7107 381.8621,-142.7107 381.8621,-159.7107"/>
<text text-anchor="middle" x="369.8597" y="-148.5107" font-family="Times,serif" font-size="9.00" fill="#000000">&#45;9</text>
</g>
<!-- &#45;8&#45;&gt;&#45;9 -->
<!-- 1 -->
<g id="node11" class="node">
<title>1</title>
<ellipse fill="#add8e6" stroke="#000000" cx="109.8597" cy="-14.4957" rx="14.4914" ry="14.4914"/>
<text text-anchor="middle" x="109.8597" y="-11.7957" font-family="Times,serif" font-size="9.00" fill="#000000">1</text>
</g>
<!-- 0&#45;&gt;1 -->
<!-- 1&#45;&gt;2 -->
</g>
</svg>
