<?xml version="1.0" encoding="UTF-8" standalone="no"?>
<!DOCTYPE svg PUBLIC "-//W3C//DTD SVG 1.1//EN"
 "http://www.w3.org/Graphics/SVG/1.1/DTD/svg11.dtd">
<!-- Generated by graphviz version 2.40.1 (20161225.0304)
 -->
<!-- Title: %3 Pages: 1 -->
<svg width="413pt" height="168pt"
 viewBox="0.00 0.00 412.99 167.71" xmlns="http://www.w3.org/2000/svg" xmlns:xlink="http://www.w3.org/1999/xlink">
<g id="graph0" class="graph" transform="scale(1 1) rotate(0) translate(4 163.7107)">
<title>%3</title>
<polygon fill="#ffffff" stroke="transparent" points="-4,4 -4,-163.7107 408.9914,-163.7107 408.9914,4 -4,4"/>
<!-- &#45;1 -->
<g id="node1" class="node">
<title>&#45;1</title>
<polygon fill="#d3d3d3" stroke="#000000" points="282.4981,-159.7107 258.4932,-159.7107 258.4932,-142.7107 282.4981,-142.7107 282.4981,-159.7107"/>
<text text-anchor="middle" x="270.4957" y="-148.5107" font-family="Times,serif" font-size="9.00" fill="#000000">&#45;1</text>
</g>
<!-- &#45;2 -->
<g id="node2" class="node">
<title>&#45;2</title>
<polygon fill="#d3d3d3" stroke="#000000" points="323.4981,-159.7107 299.4932,-159.7107 299.4932,-142.7107 323.4981,-142.7107 323.4981,-159.7107"/>
<text text-anchor="middle" x="311.4957" y="-148.5107" font-family="Times,serif" font-size="9.00" fill="#000000">&#45;2</text>
</g>
<!-- &#45;1&#45;&gt;&#45;2 -->
<!-- &#45;3 -->
<g id="node3" class="node">
<title>&#45;3</title>
<polygon fill="#d3d3d3" stroke="#000000" points="364.4981,-159.7107 340.4932,-159.7107 340.4932,-142.7107 364.4981,-142.7107 364.4981,-159.7107"/>
<text text-anchor="middle" x="352.4957" y="-148.5107" font-family="Times,serif" font-size="9.00" fill="#000000">&#45;3</text>
</g>
<!-- &#45;2&#45;&gt;&#45;3 -->
<!-- 8 -->
<g id="node12" class="node">
<title>8</title>
<ellipse fill="#add8e6" stroke="#000000" cx="390.4957" cy="-14.4957" rx="14.4914" ry="14.4914"/>
<text text-anchor="middle" x="390.4957" y="-11.7957" font-family="Times,serif" font-size="9.00" fill="#000000">8</text>
</g>
<!-- &#45;2&#45;&gt;8 -->
<g id="edge11" class="edge">
<title>&#45;2&#45;&gt;8</title>
<path fill="none" stroke="#00ff00" stroke-width="1.3247" d="M311.6083,-142.4602C312.1918,-126.0799 315.2629,-90.1717 330.4957,-64.9914 340.0004,-49.2798 356.1445,-36.1072 369.2937,-27.1595"/>
<polygon fill="#00ff00" stroke="#00ff00" stroke-width="1.3247" points="371.3022,-30.0288 377.8001,-21.6606 367.5019,-24.1502 371.3022,-30.0288"/>
</g>
<!-- 775 -->
<g id="node13" class="node">
<title>775</title>
<ellipse fill="#ffffff" stroke="#000000" cx="202.4957" cy="-85.851" rx="20.7202" ry="20.7202"/>
<text text-anchor="middle" x="202.4957" y="-83.151" font-family="Times,serif" font-size="9.00" fill="#000000">775</text>
</g>
<!-- &#45;3&#45;&gt;775 -->
<g id="edge12" class="edge">
<title>&#45;3&#45;&gt;775</title>
<path fill="none" stroke="#ff0000" stroke-width=".1266" d="M340.6963,-146.0659C338.0123,-144.9319 335.1651,-143.7575 332.4957,-142.7107 288.5193,-125.4657 274.4691,-128.3797 232.4957,-106.7107 230.9456,-105.9104 229.3823,-105.0414 227.8266,-104.1276"/>
<polygon fill="#ff0000" stroke="#ff0000" stroke-width=".1266" points="229.4531,-101.0132 219.1434,-98.5716 225.6803,-106.9095 229.4531,-101.0132"/>
</g>
<!-- 829 -->
<g id="node15" class="node">
<title>829</title>
<ellipse fill="#ffffff" stroke="#000000" cx="360.4957" cy="-85.851" rx="20.7202" ry="20.7202"/>
<text text-anchor="middle" x="360.4957" y="-83.151" font-family="Times,serif" font-size="9.00" fill="#000000">829</text>
</g>
<!-- &#45;3&#45;&gt;829 -->
<g id="edge14" class="edge">
<title>&#45;3&#45;&gt;829</title>
<path fill="none" stroke="#ff0000" stroke-width=".2307" d="M353.5415,-142.666C354.3565,-136.0083 355.541,-126.331 356.7022,-116.8437"/>
<polygon fill="#ff0000" stroke="#ff0000" stroke-width=".2307" points="360.1936,-117.1268 357.9345,-106.7756 353.2454,-116.2763 360.1936,-117.1268"/>
</g>
<!-- 0 -->
<g id="node4" class="node">
<title>0</title>
<ellipse fill="#add8e6" stroke="#000000" cx="14.4957" cy="-14.4957" rx="14.4914" ry="14.4914"/>
<text text-anchor="middle" x="14.4957" y="-11.7957" font-family="Times,serif" font-size="9.00" fill="#000000">0</text>
</g>
<!-- 1 -->
<g id="node5" class="node">
<title>1</title>
<ellipse fill="#add8e6" stroke="#000000" cx="61.4957" cy="-14.4957" rx="14.4914" ry="14.4914"/>
<text text-anchor="middle" x="61.4957" y="-11.7957" font-family="Times,serif" font-size="9.00" fill="#000000">1</text>
</g>
<!-- 0&#45;&gt;1 -->
<!-- 2 -->
<g id="node6" class="node">
<title>2</title>
<ellipse fill="#add8e6" stroke="#000000" cx="108.4957" cy="-14.4957" rx="14.4914" ry="14.4914"/>
<text text-anchor="middle" x="108.4957" y="-11.7957" font-family="Times,serif" font-size="9.00" fill="#000000">2</text>
</g>
<!-- 1&#45;&gt;2 -->
<!-- 3 -->
<g id="node7" class="node">
<title>3</title>
<ellipse fill="#add8e6" stroke="#000000" cx="155.4957" cy="-14.4957" rx="14.4914" ry="14.4914"/>
<text text-anchor="middle" x="155.4957" y="-11.7957" font-family="Times,serif" font-size="9.00" fill="#000000">3</text>
</g>
<!-- 2&#45;&gt;3 -->
<!-- 4 -->
<g id="node8" class="node">
<title>4</title>
<ellipse fill="#add8e6" stroke="#000000" cx="202.4957" cy="-14.4957" rx="14.4914" ry="14.4914"/>
<text text-anchor="middle" x="202.4957" y="-11.7957" font-family="Times,serif" font-size="9.00" fill="#000000">4</text>
</g>
<!-- 3&#45;&gt;4 -->
<!-- 5 -->
<g id="node9" class="node">
<title>5</title>
<ellipse fill="#add8e6" stroke="#000000" cx="249.4957" cy="-14.4957" rx="14.4914" ry="14.4914"/>
<text text-anchor="middle" x="249.4957" y="-11.7957" font-family="Times,serif" font-size="9.00" fill="#000000">5</text>
</g>
<!-- 4&#45;&gt;5 -->
<!-- 6 -->
<g id="node10" class="node">
<title>6</title>
<ellipse fill="#add8e6" stroke="#000000" cx="296.4957" cy="-14.4957" rx="14.4914" ry="14.4914"/>
<text text-anchor="middle" x="296.4957" y="-11.7957" font-family="Times,serif" font-size="9.00" fill="#000000">6</text>
</g>
<!-- 5&#45;&gt;6 -->
<!-- 7 -->
<g id="node11" class="node">
<title>7</title>
<ellipse fill="#add8e6" stroke="#000000" cx="343.4957" cy="-14.4957" rx="14.4914" ry="14.4914"/>
<text text-anchor="middle" x="343.4957" y="-11.7957" font-family="Times,serif" font-size="9.00" fill="#000000">7</text>
</g>
<!-- 6&#45;&gt;7 -->
<!-- 7&#45;&gt;8 -->
<!-- 775&#45;&gt;4 -->
<g id="edge13" class="edge">
<title>775&#45;&gt;4</title>
<path fill="none" stroke="#00ff00" stroke-width=".113" d="M202.4957,-64.828C202.4957,-56.8245 202.4957,-47.6301 202.4957,-39.3078"/>
<polygon fill="#00ff00" stroke="#00ff00" stroke-width=".113" points="205.9958,-39.043 202.4957,-29.043 198.9958,-39.0431 205.9958,-39.043"/>
</g>
<!-- 859 -->
<g id="node14" class="node">
<title>859</title>
<ellipse fill="#ffffff" stroke="#000000" cx="262.4957" cy="-85.851" rx="20.7202" ry="20.7202"/>
<text text-anchor="middle" x="262.4957" y="-83.151" font-family="Times,serif" font-size="9.00" fill="#000000">859</text>
</g>
<!-- 859&#45;&gt;0 -->
<g id="edge16" class="edge">
<title>859&#45;&gt;0</title>
<path fill="none" stroke="#00ff00" stroke-width=".3139" d="M246.0942,-72.6021C241.8646,-69.7171 237.1788,-66.9467 232.4957,-64.9914 151.5721,-31.2031 120.4625,-60.1637 38.4957,-28.9914 37.6199,-28.6583 36.74,-28.2933 35.8618,-27.9032"/>
<polygon fill="#00ff00" stroke="#00ff00" stroke-width=".3139" points="37.2369,-24.6703 26.7647,-23.0631 33.949,-30.8501 37.2369,-24.6703"/>
</g>
<!-- 859&#45;&gt;7 -->
<g id="edge17" class="edge">
<title>859&#45;&gt;7</title>
<path fill="none" stroke="#ff0000" stroke-width=".2942" d="M278.4987,-71.7535C291.7568,-60.074 310.6252,-43.4523 324.6197,-31.1241"/>
<polygon fill="#ff0000" stroke="#ff0000" stroke-width=".2942" points="327.0269,-33.668 332.217,-24.4314 322.3997,-28.4154 327.0269,-33.668"/>
</g>
<!-- 829&#45;&gt;7 -->
<g id="edge15" class="edge">
<title>829&#45;&gt;7</title>
<path fill="none" stroke="#00ff00" stroke-width=".337" d="M355.5786,-65.2121C353.5987,-56.9016 351.3013,-47.2587 349.2447,-38.6265"/>
<polygon fill="#00ff00" stroke="#00ff00" stroke-width=".337" points="352.6155,-37.6725 346.8931,-28.756 345.8061,-39.2949 352.6155,-37.6725"/>
</g>
</g>
</svg>
