<?xml version="1.0" encoding="UTF-8" standalone="no"?>
<!DOCTYPE svg PUBLIC "-//W3C//DTD SVG 1.1//EN"
 "http://www.w3.org/Graphics/SVG/1.1/DTD/svg11.dtd">
<!-- Generated by graphviz version 2.40.1 (20161225.0304)
 -->
<!-- Title: %3 Pages: 1 -->
<svg width="386pt" height="175pt"
 viewBox="0.00 0.00 386.00 174.79" xmlns="http://www.w3.org/2000/svg" xmlns:xlink="http://www.w3.org/1999/xlink">
<g id="graph0" class="graph" transform="scale(1 1) rotate(0) translate(4 170.7893)">
<title>%3</title>
<polygon fill="#ffffff" stroke="transparent" points="-4,4 -4,-170.7893 381.9976,-170.7893 381.9976,4 -4,4"/>
<!-- E0 -->
<g id="node1" class="node">
<title>E0</title>
<polygon fill="#d3d3d3" stroke="#000000" points="25.9963,-166.7893 .0012,-166.7893 .0012,-149.7893 25.9963,-149.7893 25.9963,-166.7893"/>
<text text-anchor="middle" x="12.9988" y="-155.5893" font-family="Times,serif" font-size="9.00" fill="#000000">E0</text>
</g>
<!-- E1 -->
<g id="node2" class="node">
<title>E1</title>
<polygon fill="#d3d3d3" stroke="#000000" points="69.9963,-166.7893 44.0012,-166.7893 44.0012,-149.7893 69.9963,-149.7893 69.9963,-166.7893"/>
<text text-anchor="middle" x="56.9988" y="-155.5893" font-family="Times,serif" font-size="9.00" fill="#000000">E1</text>
</g>
<!-- E0&#45;&gt;E1 -->
<!-- 1 -->
<g id="node11" class="node">
<title>1</title>
<ellipse fill="#87cefa" stroke="#000000" cx="106.9988" cy="-14.853" rx="14.4914" ry="14.4914"/>
<text text-anchor="middle" x="106.9988" y="-12.153" font-family="Times,serif" font-size="9.00" fill="#000000">1</text>
</g>
<!-- E0&#45;&gt;1 -->
<g id="edge12" class="edge">
<title>E0&#45;&gt;1</title>
<path fill="none" stroke="#ff0000" stroke-width="1.6851" d="M18.5974,-149.7463C33.1306,-127.5698 72.3838,-67.6726 93.3549,-35.6724"/>
<polygon fill="#ff0000" stroke="#ff0000" stroke-width="1.6851" points="96.4356,-37.357 98.9895,-27.0746 90.5808,-33.5201 96.4356,-37.357"/>
</g>
<!-- E2 -->
<g id="node3" class="node">
<title>E2</title>
<polygon fill="#d3d3d3" stroke="#000000" points="113.9963,-166.7893 88.0012,-166.7893 88.0012,-149.7893 113.9963,-149.7893 113.9963,-166.7893"/>
<text text-anchor="middle" x="100.9988" y="-155.5893" font-family="Times,serif" font-size="9.00" fill="#000000">E2</text>
</g>
<!-- E1&#45;&gt;E2 -->
<!-- E3 -->
<g id="node4" class="node">
<title>E3</title>
<polygon fill="#d3d3d3" stroke="#000000" points="157.9963,-166.7893 132.0012,-166.7893 132.0012,-149.7893 157.9963,-149.7893 157.9963,-166.7893"/>
<text text-anchor="middle" x="144.9988" y="-155.5893" font-family="Times,serif" font-size="9.00" fill="#000000">E3</text>
</g>
<!-- E2&#45;&gt;E3 -->
<!-- 2 -->
<g id="node12" class="node">
<title>2</title>
<ellipse fill="#87cefa" stroke="#000000" cx="181.9988" cy="-14.853" rx="14.4914" ry="14.4914"/>
<text text-anchor="middle" x="181.9988" y="-12.153" font-family="Times,serif" font-size="9.00" fill="#000000">2</text>
</g>
<!-- E2&#45;&gt;2 -->
<g id="edge13" class="edge">
<title>E2&#45;&gt;2</title>
<path fill="none" stroke="#ff0000" stroke-width="2.9807" d="M114.041,-153.5098C129.6476,-147.0575 155.2636,-133.9879 167.9988,-113.7893 182.023,-91.5463 184.3479,-60.958 183.9111,-39.705"/>
<polygon fill="#ff0000" stroke="#ff0000" stroke-width="2.9807" points="187.4005,-39.3777 183.4784,-29.5356 180.4068,-39.6754 187.4005,-39.3777"/>
</g>
<!-- S -->
<g id="node13" class="node">
<title>S</title>
<ellipse fill="#87cefa" stroke="#000000" cx="228.9988" cy="-14.853" rx="14.7075" ry="14.7075"/>
<text text-anchor="middle" x="228.9988" y="-12.153" font-family="Times,serif" font-size="9.00" fill="#000000">S</text>
</g>
<!-- E2&#45;&gt;S -->
<g id="edge16" class="edge">
<title>E2&#45;&gt;S</title>
<path fill="none" stroke="#ff0000" stroke-width=".2918" d="M114.1804,-153.0733C136.1751,-144.1514 179.0334,-125.7666 189.9988,-113.7893 209.1769,-92.8414 219.3888,-61.3454 224.4853,-39.5415"/>
<polygon fill="#ff0000" stroke="#ff0000" stroke-width=".2918" points="227.9201,-40.2164 226.5932,-29.705 221.0755,-38.7496 227.9201,-40.2164"/>
</g>
<!-- E4 -->
<g id="node5" class="node">
<title>E4</title>
<polygon fill="#d3d3d3" stroke="#000000" points="201.9963,-166.7893 176.0012,-166.7893 176.0012,-149.7893 201.9963,-149.7893 201.9963,-166.7893"/>
<text text-anchor="middle" x="188.9988" y="-155.5893" font-family="Times,serif" font-size="9.00" fill="#000000">E4</text>
</g>
<!-- E3&#45;&gt;E4 -->
<!-- E5 -->
<g id="node6" class="node">
<title>E5</title>
<polygon fill="#d3d3d3" stroke="#000000" points="245.9963,-166.7893 220.0012,-166.7893 220.0012,-149.7893 245.9963,-149.7893 245.9963,-166.7893"/>
<text text-anchor="middle" x="232.9988" y="-155.5893" font-family="Times,serif" font-size="9.00" fill="#000000">E5</text>
</g>
<!-- E4&#45;&gt;E5 -->
<!-- 0 -->
<g id="node10" class="node">
<title>0</title>
<ellipse fill="#87cefa" stroke="#000000" cx="59.9988" cy="-14.853" rx="14.4914" ry="14.4914"/>
<text text-anchor="middle" x="59.9988" y="-12.153" font-family="Times,serif" font-size="9.00" fill="#000000">0</text>
</g>
<!-- E4&#45;&gt;0 -->
<g id="edge19" class="edge">
<title>E4&#45;&gt;0</title>
<path fill="none" stroke="#ff0000" stroke-width=".3502" d="M175.71,-153.1013C149.9268,-142.932 95.0975,-120.7623 88.9988,-113.7893 70.8535,-93.0431 64.0448,-61.4591 61.4997,-39.5813"/>
<polygon fill="#ff0000" stroke="#ff0000" stroke-width=".3502" points="64.9651,-39.0495 60.5407,-29.4227 57.9961,-39.7074 64.9651,-39.0495"/>
</g>
<!-- E4&#45;&gt;1 -->
<g id="edge17" class="edge">
<title>E4&#45;&gt;1</title>
<path fill="none" stroke="#00ff00" stroke-width=".2067" d="M175.8383,-152.4762C152.5745,-142.0698 106.2261,-120.6998 101.9988,-113.7893 88.1024,-91.0727 92.8455,-59.6417 98.7639,-38.3485"/>
<polygon fill="#00ff00" stroke="#00ff00" stroke-width=".2067" points="102.1937,-39.1019 101.78,-28.5151 95.5014,-37.0491 102.1937,-39.1019"/>
</g>
<!-- 5481 -->
<g id="node14" class="node">
<title>5481</title>
<ellipse fill="#add8e6" stroke="#000000" cx="134.9988" cy="-89.7477" rx="24.0833" ry="24.0833"/>
<text text-anchor="middle" x="134.9988" y="-91.5477" font-family="Times,serif" font-size="9.00" fill="#000000">5481</text>
<text text-anchor="middle" x="134.9988" y="-82.5477" font-family="Times,serif" font-size="9.00" fill="#000000">sigm</text>
</g>
<!-- E4&#45;&gt;5481 -->
<g id="edge20" class="edge">
<title>E4&#45;&gt;5481</title>
<path fill="none" stroke="#ff0000" stroke-width=".2009" d="M182.1596,-149.6085C175.6109,-141.2963 165.3859,-128.3177 156.1284,-116.5673"/>
<polygon fill="#ff0000" stroke="#ff0000" stroke-width=".2009" points="158.8689,-114.3901 149.931,-108.701 153.3703,-118.7221 158.8689,-114.3901"/>
</g>
<!-- E6 -->
<g id="node7" class="node">
<title>E6</title>
<polygon fill="#d3d3d3" stroke="#000000" points="289.9963,-166.7893 264.0012,-166.7893 264.0012,-149.7893 289.9963,-149.7893 289.9963,-166.7893"/>
<text text-anchor="middle" x="276.9988" y="-155.5893" font-family="Times,serif" font-size="9.00" fill="#000000">E6</text>
</g>
<!-- E5&#45;&gt;E6 -->
<!-- E7 -->
<g id="node8" class="node">
<title>E7</title>
<polygon fill="#d3d3d3" stroke="#000000" points="333.9963,-166.7893 308.0012,-166.7893 308.0012,-149.7893 333.9963,-149.7893 333.9963,-166.7893"/>
<text text-anchor="middle" x="320.9988" y="-155.5893" font-family="Times,serif" font-size="9.00" fill="#000000">E7</text>
</g>
<!-- E6&#45;&gt;E7 -->
<!-- 58 -->
<g id="node16" class="node">
<title>58</title>
<ellipse fill="#add8e6" stroke="#000000" cx="276.9988" cy="-89.7477" rx="23.8825" ry="23.8825"/>
<text text-anchor="middle" x="276.9988" y="-91.5477" font-family="Times,serif" font-size="9.00" fill="#000000">58</text>
<text text-anchor="middle" x="276.9988" y="-82.5477" font-family="Times,serif" font-size="9.00" fill="#000000">sigm</text>
</g>
<!-- E6&#45;&gt;58 -->
<g id="edge15" class="edge">
<title>E6&#45;&gt;58</title>
<path fill="none" stroke="#ff0000" stroke-width="1.7376" d="M276.9988,-149.6085C276.9988,-142.995 276.9988,-133.4275 276.9988,-123.8749"/>
<polygon fill="#ff0000" stroke="#ff0000" stroke-width="1.7376" points="280.4989,-123.6556 276.9988,-113.6556 273.4989,-123.6556 280.4989,-123.6556"/>
</g>
<!-- E8 -->
<g id="node9" class="node">
<title>E8</title>
<polygon fill="#d3d3d3" stroke="#000000" points="377.9963,-166.7893 352.0012,-166.7893 352.0012,-149.7893 377.9963,-149.7893 377.9963,-166.7893"/>
<text text-anchor="middle" x="364.9988" y="-155.5893" font-family="Times,serif" font-size="9.00" fill="#000000">E8</text>
</g>
<!-- E7&#45;&gt;E8 -->
<!-- 0&#45;&gt;1 -->
<!-- 1&#45;&gt;2 -->
<!-- 2&#45;&gt;S -->
<!-- 5481&#45;&gt;1 -->
<g id="edge21" class="edge">
<title>5481&#45;&gt;1</title>
<path fill="none" stroke="#00ff00" stroke-width=".1319" d="M126.4457,-66.8699C123.0337,-57.7434 119.1103,-47.249 115.6851,-38.0874"/>
<polygon fill="#00ff00" stroke="#00ff00" stroke-width=".1319" points="118.8639,-36.595 112.0836,-28.4539 112.3071,-39.0464 118.8639,-36.595"/>
</g>
<!-- 3959 -->
<g id="node15" class="node">
<title>3959</title>
<ellipse fill="#add8e6" stroke="#000000" cx="342.9988" cy="-89.7477" rx="24.0833" ry="24.0833"/>
<text text-anchor="middle" x="342.9988" y="-91.5477" font-family="Times,serif" font-size="9.00" fill="#000000">3959</text>
<text text-anchor="middle" x="342.9988" y="-82.5477" font-family="Times,serif" font-size="9.00" fill="#000000">sigm</text>
</g>
<!-- 3959&#45;&gt;S -->
<g id="edge18" class="edge">
<title>3959&#45;&gt;S</title>
<path fill="none" stroke="#ff0000" stroke-width=".1855" d="M323.6136,-75.2839C319.1805,-72.072 314.4598,-68.7262 309.9988,-65.7061 290.2294,-52.3223 267.1157,-37.931 250.6505,-27.8858"/>
<polygon fill="#ff0000" stroke="#ff0000" stroke-width=".1855" points="252.1645,-24.7105 241.7998,-22.514 248.5325,-30.6946 252.1645,-24.7105"/>
</g>
<!-- 58&#45;&gt;0 -->
<g id="edge14" class="edge">
<title>58&#45;&gt;0</title>
<path fill="none" stroke="#00ff00" stroke-width="1.6081" d="M253.7271,-84.5291C216.7475,-75.7945 142.7448,-56.4987 83.9988,-29.7061 83.1406,-29.3147 82.2757,-28.8981 81.4101,-28.4625"/>
<polygon fill="#00ff00" stroke="#00ff00" stroke-width="1.6081" points="82.7968,-25.2252 72.3718,-23.3356 79.3431,-31.3139 82.7968,-25.2252"/>
</g>
</g>
</svg>
