<?xml version="1.0" encoding="UTF-8" standalone="no"?>
<!DOCTYPE svg PUBLIC "-//W3C//DTD SVG 1.1//EN"
 "http://www.w3.org/Graphics/SVG/1.1/DTD/svg11.dtd">
<!-- Generated by graphviz version 2.40.1 (20161225.0304)
 -->
<!-- Title: %3 Pages: 1 -->
<svg width="485pt" height="98pt"
 viewBox="0.00 0.00 484.77 97.77" xmlns="http://www.w3.org/2000/svg" xmlns:xlink="http://www.w3.org/1999/xlink">
<g id="graph0" class="graph" transform="scale(1 1) rotate(0) translate(4 93.7661)">
<title>%3</title>
<polygon fill="#ffffff" stroke="transparent" points="-4,4 -4,-93.7661 480.7661,-93.7661 480.7661,4 -4,4"/>
<!-- 0 -->
<g id="node1" class="node">
<title>0</title>
<polygon fill="#d3d3d3" stroke="#000000" points="173.389,-89.7661 153.3771,-89.7661 153.3771,-72.7661 173.389,-72.7661 173.389,-89.7661"/>
<text text-anchor="middle" x="163.383" y="-78.5661" font-family="Times,serif" font-size="9.00" fill="#000000">0</text>
</g>
<!-- 1 -->
<g id="node2" class="node">
<title>1</title>
<polygon fill="#d3d3d3" stroke="#000000" points="212.389,-89.7661 192.3771,-89.7661 192.3771,-72.7661 212.389,-72.7661 212.389,-89.7661"/>
<text text-anchor="middle" x="202.383" y="-78.5661" font-family="Times,serif" font-size="9.00" fill="#000000">1</text>
</g>
<!-- 0&#45;&gt;1 -->
<!-- E3 -->
<g id="node7" class="node">
<title>E3</title>
<ellipse fill="#87cefa" stroke="#000000" cx="183.383" cy="-18.383" rx="18.2668" ry="18.2668"/>
<text text-anchor="middle" x="183.383" y="-15.683" font-family="Times,serif" font-size="9.00" fill="#000000">E3</text>
</g>
<!-- 0&#45;&gt;E3 -->
<g id="edge13" class="edge">
<title>0&#45;&gt;E3</title>
<path fill="none" stroke="#ff0000" stroke-width="1.8841" d="M166.164,-72.5225C168.3785,-65.5595 171.6046,-55.4164 174.6672,-45.787"/>
<polygon fill="#ff0000" stroke="#ff0000" stroke-width="1.8841" points="178.0548,-46.6835 177.7504,-36.093 171.384,-44.5618 178.0548,-46.6835"/>
</g>
<!-- 2 -->
<g id="node3" class="node">
<title>2</title>
<polygon fill="#d3d3d3" stroke="#000000" points="251.389,-89.7661 231.3771,-89.7661 231.3771,-72.7661 251.389,-72.7661 251.389,-89.7661"/>
<text text-anchor="middle" x="241.383" y="-78.5661" font-family="Times,serif" font-size="9.00" fill="#000000">2</text>
</g>
<!-- 1&#45;&gt;2 -->
<!-- E1 -->
<g id="node5" class="node">
<title>E1</title>
<ellipse fill="#87cefa" stroke="#000000" cx="73.383" cy="-18.383" rx="18.2668" ry="18.2668"/>
<text text-anchor="middle" x="73.383" y="-15.683" font-family="Times,serif" font-size="9.00" fill="#000000">E1</text>
</g>
<!-- 1&#45;&gt;E1 -->
<g id="edge18" class="edge">
<title>1&#45;&gt;E1</title>
<path fill="none" stroke="#ff0000" stroke-width=".6738" d="M192.2869,-76.9311C168.4293,-66.6709 109.9263,-41.4109 101.383,-36.7661 100.042,-36.037 98.6815,-35.2641 97.3197,-34.4641"/>
<polygon fill="#ff0000" stroke="#ff0000" stroke-width=".6738" points="98.8431,-31.2893 88.5057,-28.9675 95.139,-37.229 98.8431,-31.2893"/>
</g>
<!-- 1&#45;&gt;E3 -->
<g id="edge15" class="edge">
<title>1&#45;&gt;E3</title>
<path fill="none" stroke="#ff0000" stroke-width=".2334" d="M199.7412,-72.5225C197.6373,-65.5595 194.5726,-55.4164 191.6631,-45.787"/>
<polygon fill="#ff0000" stroke="#ff0000" stroke-width=".2334" points="194.9769,-44.6533 188.7341,-36.093 188.2761,-46.6779 194.9769,-44.6533"/>
</g>
<!-- E6 -->
<g id="node10" class="node">
<title>E6</title>
<ellipse fill="#87cefa" stroke="#000000" cx="348.383" cy="-18.383" rx="18.2668" ry="18.2668"/>
<text text-anchor="middle" x="348.383" y="-15.683" font-family="Times,serif" font-size="9.00" fill="#000000">E6</text>
</g>
<!-- 1&#45;&gt;E6 -->
<g id="edge14" class="edge">
<title>1&#45;&gt;E6</title>
<path fill="none" stroke="#00ff00" stroke-width=".7094" d="M212.5171,-76.8434C215.6651,-75.5009 219.1558,-74.0437 222.383,-72.7661 265.5265,-55.6861 278.9398,-57.6358 320.383,-36.7661 321.7464,-36.0795 323.1246,-35.3405 324.5002,-34.567"/>
<polygon fill="#00ff00" stroke="#00ff00" stroke-width=".7094" points="326.6509,-37.3544 333.3569,-29.152 322.9995,-31.3822 326.6509,-37.3544"/>
</g>
<!-- E7 -->
<g id="node11" class="node">
<title>E7</title>
<ellipse fill="#87cefa" stroke="#000000" cx="403.383" cy="-18.383" rx="18.2668" ry="18.2668"/>
<text text-anchor="middle" x="403.383" y="-15.683" font-family="Times,serif" font-size="9.00" fill="#000000">E7</text>
</g>
<!-- 1&#45;&gt;E7 -->
<g id="edge11" class="edge">
<title>1&#45;&gt;E7</title>
<path fill="none" stroke="#00ff00" stroke-width="1.4932" d="M212.4293,-76.6004C215.5737,-75.2479 219.0845,-73.8464 222.383,-72.7661 288.7707,-51.0249 311.2055,-64.3568 375.383,-36.7661 376.7854,-36.1632 378.1946,-35.4907 379.5944,-34.7691"/>
<polygon fill="#00ff00" stroke="#00ff00" stroke-width="1.4932" points="381.6817,-37.602 388.526,-29.5146 378.1321,-31.5686 381.6817,-37.602"/>
</g>
<!-- E8 -->
<g id="node12" class="node">
<title>E8</title>
<ellipse fill="#87cefa" stroke="#000000" cx="458.383" cy="-18.383" rx="18.2668" ry="18.2668"/>
<text text-anchor="middle" x="458.383" y="-15.683" font-family="Times,serif" font-size="9.00" fill="#000000">E8</text>
</g>
<!-- 1&#45;&gt;E8 -->
<g id="edge17" class="edge">
<title>1&#45;&gt;E8</title>
<path fill="none" stroke="#00ff00" stroke-width=".1887" d="M212.3914,-76.4786C215.5343,-75.1212 219.0537,-73.7474 222.383,-72.7661 312.3744,-46.242 343.1241,-71.2313 430.383,-36.7661 431.8028,-36.2053 433.2258,-35.5663 434.6364,-34.8709"/>
<polygon fill="#00ff00" stroke="#00ff00" stroke-width=".1887" points="436.6896,-37.7271 443.6012,-29.6971 433.1906,-31.6643 436.6896,-37.7271"/>
</g>
<!-- E0 -->
<g id="node4" class="node">
<title>E0</title>
<ellipse fill="#87cefa" stroke="#000000" cx="18.383" cy="-18.383" rx="18.2668" ry="18.2668"/>
<text text-anchor="middle" x="18.383" y="-15.683" font-family="Times,serif" font-size="9.00" fill="#000000">E0</text>
</g>
<!-- 2&#45;&gt;E0 -->
<g id="edge12" class="edge">
<title>2&#45;&gt;E0</title>
<path fill="none" stroke="#ff0000" stroke-width=".9783" d="M231.3551,-76.543C228.2115,-75.1882 224.6965,-73.7997 221.383,-72.7661 145.5792,-49.1196 119.7687,-67.0965 46.383,-36.7661 44.9723,-36.183 43.5565,-35.5263 42.1515,-34.817"/>
<polygon fill="#ff0000" stroke="#ff0000" stroke-width=".9783" points="43.6058,-31.6135 33.2039,-29.6005 40.0801,-37.6609 43.6058,-31.6135"/>
</g>
<!-- 2&#45;&gt;E1 -->
<g id="edge16" class="edge">
<title>2&#45;&gt;E1</title>
<path fill="none" stroke="#ff0000" stroke-width=".1519" d="M231.2948,-76.7224C228.1487,-75.3749 224.6475,-73.9454 221.383,-72.7661 169.0138,-53.8476 151.8507,-60.2919 101.383,-36.7661 99.9995,-36.1212 98.6053,-35.4152 97.2172,-34.6675"/>
<polygon fill="#ff0000" stroke="#ff0000" stroke-width=".1519" points="98.6978,-31.4743 88.3218,-29.3324 95.0974,-37.4774 98.6978,-31.4743"/>
</g>
<!-- E0&#45;&gt;E1 -->
<!-- E2 -->
<g id="node6" class="node">
<title>E2</title>
<ellipse fill="#87cefa" stroke="#000000" cx="128.383" cy="-18.383" rx="18.2668" ry="18.2668"/>
<text text-anchor="middle" x="128.383" y="-15.683" font-family="Times,serif" font-size="9.00" fill="#000000">E2</text>
</g>
<!-- E1&#45;&gt;E2 -->
<!-- E2&#45;&gt;E3 -->
<!-- E4 -->
<g id="node8" class="node">
<title>E4</title>
<ellipse fill="#87cefa" stroke="#000000" cx="238.383" cy="-18.383" rx="18.2668" ry="18.2668"/>
<text text-anchor="middle" x="238.383" y="-15.683" font-family="Times,serif" font-size="9.00" fill="#000000">E4</text>
</g>
<!-- E3&#45;&gt;E4 -->
<!-- E5 -->
<g id="node9" class="node">
<title>E5</title>
<ellipse fill="#87cefa" stroke="#000000" cx="293.383" cy="-18.383" rx="18.2668" ry="18.2668"/>
<text text-anchor="middle" x="293.383" y="-15.683" font-family="Times,serif" font-size="9.00" fill="#000000">E5</text>
</g>
<!-- E4&#45;&gt;E5 -->
<!-- E5&#45;&gt;E6 -->
<!-- E6&#45;&gt;E7 -->
<!-- E7&#45;&gt;E8 -->
</g>
</svg>
