<?xml version="1.0" encoding="utf-8" standalone="no"?>
<!DOCTYPE svg PUBLIC "-//W3C//DTD SVG 1.1//EN"
  "http://www.w3.org/Graphics/SVG/1.1/DTD/svg11.dtd">
<!-- Created with matplotlib (https://matplotlib.org/) -->
<svg height="345.6pt" version="1.1" viewBox="0 0 460.8 345.6" width="460.8pt" xmlns="http://www.w3.org/2000/svg" xmlns:xlink="http://www.w3.org/1999/xlink">
 <defs>
  <style type="text/css">
*{stroke-linecap:butt;stroke-linejoin:round;}
  </style>
 </defs>
 <g id="figure_1">
  <g id="patch_1">
   <path d="M 0 345.6 
L 460.8 345.6 
L 460.8 0 
L 0 0 
z
" style="fill:#ffffff;"/>
  </g>
  <g id="axes_1">
   <g id="patch_2">
    <path d="M 57.6 307.584 
L 414.72 307.584 
L 414.72 41.472 
L 57.6 41.472 
z
" style="fill:#ffffff;"/>
   </g>
   <g id="matplotlib.axis_1">
    <g id="xtick_1">
     <g id="line2d_1">
      <path clip-path="url(#p6c99a9838d)" d="M 73.832727 307.584 
L 73.832727 41.472 
" style="fill:none;stroke:#b0b0b0;stroke-linecap:square;stroke-width:0.8;"/>
     </g>
     <g id="line2d_2">
      <defs>
       <path d="M 0 0 
L 0 3.5 
" id="m8d12817d8d" style="stroke:#000000;stroke-width:0.8;"/>
      </defs>
      <g>
       <use style="stroke:#000000;stroke-width:0.8;" x="73.832727" xlink:href="#m8d12817d8d" y="307.584"/>
      </g>
     </g>
     <g id="text_1">
      <!-- 0 -->
      <defs>
       <path d="M 31.78125 66.40625 
Q 24.171875 66.40625 20.328125 58.90625 
Q 16.5 51.421875 16.5 36.375 
Q 16.5 21.390625 20.328125 13.890625 
Q 24.171875 6.390625 31.78125 6.390625 
Q 39.453125 6.390625 43.28125 13.890625 
Q 47.125 21.390625 47.125 36.375 
Q 47.125 51.421875 43.28125 58.90625 
Q 39.453125 66.40625 31.78125 66.40625 
z
M 31.78125 74.21875 
Q 44.046875 74.21875 50.515625 64.515625 
Q 56.984375 54.828125 56.984375 36.375 
Q 56.984375 17.96875 50.515625 8.265625 
Q 44.046875 -1.421875 31.78125 -1.421875 
Q 19.53125 -1.421875 13.0625 8.265625 
Q 6.59375 17.96875 6.59375 36.375 
Q 6.59375 54.828125 13.0625 64.515625 
Q 19.53125 74.21875 31.78125 74.21875 
z
" id="DejaVuSans-48"/>
      </defs>
      <g transform="translate(70.651477 322.182437)scale(0.1 -0.1)">
       <use xlink:href="#DejaVuSans-48"/>
      </g>
     </g>
    </g>
    <g id="xtick_2">
     <g id="line2d_3">
      <path clip-path="url(#p6c99a9838d)" d="M 128.122785 307.584 
L 128.122785 41.472 
" style="fill:none;stroke:#b0b0b0;stroke-linecap:square;stroke-width:0.8;"/>
     </g>
     <g id="line2d_4">
      <g>
       <use style="stroke:#000000;stroke-width:0.8;" x="128.122785" xlink:href="#m8d12817d8d" y="307.584"/>
      </g>
     </g>
     <g id="text_2">
      <!-- 50 -->
      <defs>
       <path d="M 10.796875 72.90625 
L 49.515625 72.90625 
L 49.515625 64.59375 
L 19.828125 64.59375 
L 19.828125 46.734375 
Q 21.96875 47.46875 24.109375 47.828125 
Q 26.265625 48.1875 28.421875 48.1875 
Q 40.625 48.1875 47.75 41.5 
Q 54.890625 34.8125 54.890625 23.390625 
Q 54.890625 11.625 47.5625 5.09375 
Q 40.234375 -1.421875 26.90625 -1.421875 
Q 22.3125 -1.421875 17.546875 -0.640625 
Q 12.796875 0.140625 7.71875 1.703125 
L 7.71875 11.625 
Q 12.109375 9.234375 16.796875 8.0625 
Q 21.484375 6.890625 26.703125 6.890625 
Q 35.15625 6.890625 40.078125 11.328125 
Q 45.015625 15.765625 45.015625 23.390625 
Q 45.015625 31 40.078125 35.4375 
Q 35.15625 39.890625 26.703125 39.890625 
Q 22.75 39.890625 18.8125 39.015625 
Q 14.890625 38.140625 10.796875 36.28125 
z
" id="DejaVuSans-53"/>
      </defs>
      <g transform="translate(121.760285 322.182437)scale(0.1 -0.1)">
       <use xlink:href="#DejaVuSans-53"/>
       <use x="63.623047" xlink:href="#DejaVuSans-48"/>
      </g>
     </g>
    </g>
    <g id="xtick_3">
     <g id="line2d_5">
      <path clip-path="url(#p6c99a9838d)" d="M 182.412843 307.584 
L 182.412843 41.472 
" style="fill:none;stroke:#b0b0b0;stroke-linecap:square;stroke-width:0.8;"/>
     </g>
     <g id="line2d_6">
      <g>
       <use style="stroke:#000000;stroke-width:0.8;" x="182.412843" xlink:href="#m8d12817d8d" y="307.584"/>
      </g>
     </g>
     <g id="text_3">
      <!-- 100 -->
      <defs>
       <path d="M 12.40625 8.296875 
L 28.515625 8.296875 
L 28.515625 63.921875 
L 10.984375 60.40625 
L 10.984375 69.390625 
L 28.421875 72.90625 
L 38.28125 72.90625 
L 38.28125 8.296875 
L 54.390625 8.296875 
L 54.390625 0 
L 12.40625 0 
z
" id="DejaVuSans-49"/>
      </defs>
      <g transform="translate(172.869093 322.182437)scale(0.1 -0.1)">
       <use xlink:href="#DejaVuSans-49"/>
       <use x="63.623047" xlink:href="#DejaVuSans-48"/>
       <use x="127.246094" xlink:href="#DejaVuSans-48"/>
      </g>
     </g>
    </g>
    <g id="xtick_4">
     <g id="line2d_7">
      <path clip-path="url(#p6c99a9838d)" d="M 236.702901 307.584 
L 236.702901 41.472 
" style="fill:none;stroke:#b0b0b0;stroke-linecap:square;stroke-width:0.8;"/>
     </g>
     <g id="line2d_8">
      <g>
       <use style="stroke:#000000;stroke-width:0.8;" x="236.702901" xlink:href="#m8d12817d8d" y="307.584"/>
      </g>
     </g>
     <g id="text_4">
      <!-- 150 -->
      <g transform="translate(227.159151 322.182437)scale(0.1 -0.1)">
       <use xlink:href="#DejaVuSans-49"/>
       <use x="63.623047" xlink:href="#DejaVuSans-53"/>
       <use x="127.246094" xlink:href="#DejaVuSans-48"/>
      </g>
     </g>
    </g>
    <g id="xtick_5">
     <g id="line2d_9">
      <path clip-path="url(#p6c99a9838d)" d="M 290.992958 307.584 
L 290.992958 41.472 
" style="fill:none;stroke:#b0b0b0;stroke-linecap:square;stroke-width:0.8;"/>
     </g>
     <g id="line2d_10">
      <g>
       <use style="stroke:#000000;stroke-width:0.8;" x="290.992958" xlink:href="#m8d12817d8d" y="307.584"/>
      </g>
     </g>
     <g id="text_5">
      <!-- 200 -->
      <defs>
       <path d="M 19.1875 8.296875 
L 53.609375 8.296875 
L 53.609375 0 
L 7.328125 0 
L 7.328125 8.296875 
Q 12.9375 14.109375 22.625 23.890625 
Q 32.328125 33.6875 34.8125 36.53125 
Q 39.546875 41.84375 41.421875 45.53125 
Q 43.3125 49.21875 43.3125 52.78125 
Q 43.3125 58.59375 39.234375 62.25 
Q 35.15625 65.921875 28.609375 65.921875 
Q 23.96875 65.921875 18.8125 64.3125 
Q 13.671875 62.703125 7.8125 59.421875 
L 7.8125 69.390625 
Q 13.765625 71.78125 18.9375 73 
Q 24.125 74.21875 28.421875 74.21875 
Q 39.75 74.21875 46.484375 68.546875 
Q 53.21875 62.890625 53.21875 53.421875 
Q 53.21875 48.921875 51.53125 44.890625 
Q 49.859375 40.875 45.40625 35.40625 
Q 44.1875 33.984375 37.640625 27.21875 
Q 31.109375 20.453125 19.1875 8.296875 
z
" id="DejaVuSans-50"/>
      </defs>
      <g transform="translate(281.449208 322.182437)scale(0.1 -0.1)">
       <use xlink:href="#DejaVuSans-50"/>
       <use x="63.623047" xlink:href="#DejaVuSans-48"/>
       <use x="127.246094" xlink:href="#DejaVuSans-48"/>
      </g>
     </g>
    </g>
    <g id="xtick_6">
     <g id="line2d_11">
      <path clip-path="url(#p6c99a9838d)" d="M 345.283016 307.584 
L 345.283016 41.472 
" style="fill:none;stroke:#b0b0b0;stroke-linecap:square;stroke-width:0.8;"/>
     </g>
     <g id="line2d_12">
      <g>
       <use style="stroke:#000000;stroke-width:0.8;" x="345.283016" xlink:href="#m8d12817d8d" y="307.584"/>
      </g>
     </g>
     <g id="text_6">
      <!-- 250 -->
      <g transform="translate(335.739266 322.182437)scale(0.1 -0.1)">
       <use xlink:href="#DejaVuSans-50"/>
       <use x="63.623047" xlink:href="#DejaVuSans-53"/>
       <use x="127.246094" xlink:href="#DejaVuSans-48"/>
      </g>
     </g>
    </g>
    <g id="xtick_7">
     <g id="line2d_13">
      <path clip-path="url(#p6c99a9838d)" d="M 399.573074 307.584 
L 399.573074 41.472 
" style="fill:none;stroke:#b0b0b0;stroke-linecap:square;stroke-width:0.8;"/>
     </g>
     <g id="line2d_14">
      <g>
       <use style="stroke:#000000;stroke-width:0.8;" x="399.573074" xlink:href="#m8d12817d8d" y="307.584"/>
      </g>
     </g>
     <g id="text_7">
      <!-- 300 -->
      <defs>
       <path d="M 40.578125 39.3125 
Q 47.65625 37.796875 51.625 33 
Q 55.609375 28.21875 55.609375 21.1875 
Q 55.609375 10.40625 48.1875 4.484375 
Q 40.765625 -1.421875 27.09375 -1.421875 
Q 22.515625 -1.421875 17.65625 -0.515625 
Q 12.796875 0.390625 7.625 2.203125 
L 7.625 11.71875 
Q 11.71875 9.328125 16.59375 8.109375 
Q 21.484375 6.890625 26.8125 6.890625 
Q 36.078125 6.890625 40.9375 10.546875 
Q 45.796875 14.203125 45.796875 21.1875 
Q 45.796875 27.640625 41.28125 31.265625 
Q 36.765625 34.90625 28.71875 34.90625 
L 20.21875 34.90625 
L 20.21875 43.015625 
L 29.109375 43.015625 
Q 36.375 43.015625 40.234375 45.921875 
Q 44.09375 48.828125 44.09375 54.296875 
Q 44.09375 59.90625 40.109375 62.90625 
Q 36.140625 65.921875 28.71875 65.921875 
Q 24.65625 65.921875 20.015625 65.03125 
Q 15.375 64.15625 9.8125 62.3125 
L 9.8125 71.09375 
Q 15.4375 72.65625 20.34375 73.4375 
Q 25.25 74.21875 29.59375 74.21875 
Q 40.828125 74.21875 47.359375 69.109375 
Q 53.90625 64.015625 53.90625 55.328125 
Q 53.90625 49.265625 50.4375 45.09375 
Q 46.96875 40.921875 40.578125 39.3125 
z
" id="DejaVuSans-51"/>
      </defs>
      <g transform="translate(390.029324 322.182437)scale(0.1 -0.1)">
       <use xlink:href="#DejaVuSans-51"/>
       <use x="63.623047" xlink:href="#DejaVuSans-48"/>
       <use x="127.246094" xlink:href="#DejaVuSans-48"/>
      </g>
     </g>
    </g>
    <g id="text_8">
     <!-- Generations -->
     <defs>
      <path d="M 59.515625 10.40625 
L 59.515625 29.984375 
L 43.40625 29.984375 
L 43.40625 38.09375 
L 69.28125 38.09375 
L 69.28125 6.78125 
Q 63.578125 2.734375 56.6875 0.65625 
Q 49.8125 -1.421875 42 -1.421875 
Q 24.90625 -1.421875 15.25 8.5625 
Q 5.609375 18.5625 5.609375 36.375 
Q 5.609375 54.25 15.25 64.234375 
Q 24.90625 74.21875 42 74.21875 
Q 49.125 74.21875 55.546875 72.453125 
Q 61.96875 70.703125 67.390625 67.28125 
L 67.390625 56.78125 
Q 61.921875 61.421875 55.765625 63.765625 
Q 49.609375 66.109375 42.828125 66.109375 
Q 29.4375 66.109375 22.71875 58.640625 
Q 16.015625 51.171875 16.015625 36.375 
Q 16.015625 21.625 22.71875 14.15625 
Q 29.4375 6.6875 42.828125 6.6875 
Q 48.046875 6.6875 52.140625 7.59375 
Q 56.25 8.5 59.515625 10.40625 
z
" id="DejaVuSans-71"/>
      <path d="M 56.203125 29.59375 
L 56.203125 25.203125 
L 14.890625 25.203125 
Q 15.484375 15.921875 20.484375 11.0625 
Q 25.484375 6.203125 34.421875 6.203125 
Q 39.59375 6.203125 44.453125 7.46875 
Q 49.3125 8.734375 54.109375 11.28125 
L 54.109375 2.78125 
Q 49.265625 0.734375 44.1875 -0.34375 
Q 39.109375 -1.421875 33.890625 -1.421875 
Q 20.796875 -1.421875 13.15625 6.1875 
Q 5.515625 13.8125 5.515625 26.8125 
Q 5.515625 40.234375 12.765625 48.109375 
Q 20.015625 56 32.328125 56 
Q 43.359375 56 49.78125 48.890625 
Q 56.203125 41.796875 56.203125 29.59375 
z
M 47.21875 32.234375 
Q 47.125 39.59375 43.09375 43.984375 
Q 39.0625 48.390625 32.421875 48.390625 
Q 24.90625 48.390625 20.390625 44.140625 
Q 15.875 39.890625 15.1875 32.171875 
z
" id="DejaVuSans-101"/>
      <path d="M 54.890625 33.015625 
L 54.890625 0 
L 45.90625 0 
L 45.90625 32.71875 
Q 45.90625 40.484375 42.875 44.328125 
Q 39.84375 48.1875 33.796875 48.1875 
Q 26.515625 48.1875 22.3125 43.546875 
Q 18.109375 38.921875 18.109375 30.90625 
L 18.109375 0 
L 9.078125 0 
L 9.078125 54.6875 
L 18.109375 54.6875 
L 18.109375 46.1875 
Q 21.34375 51.125 25.703125 53.5625 
Q 30.078125 56 35.796875 56 
Q 45.21875 56 50.046875 50.171875 
Q 54.890625 44.34375 54.890625 33.015625 
z
" id="DejaVuSans-110"/>
      <path d="M 41.109375 46.296875 
Q 39.59375 47.171875 37.8125 47.578125 
Q 36.03125 48 33.890625 48 
Q 26.265625 48 22.1875 43.046875 
Q 18.109375 38.09375 18.109375 28.8125 
L 18.109375 0 
L 9.078125 0 
L 9.078125 54.6875 
L 18.109375 54.6875 
L 18.109375 46.1875 
Q 20.953125 51.171875 25.484375 53.578125 
Q 30.03125 56 36.53125 56 
Q 37.453125 56 38.578125 55.875 
Q 39.703125 55.765625 41.0625 55.515625 
z
" id="DejaVuSans-114"/>
      <path d="M 34.28125 27.484375 
Q 23.390625 27.484375 19.1875 25 
Q 14.984375 22.515625 14.984375 16.5 
Q 14.984375 11.71875 18.140625 8.90625 
Q 21.296875 6.109375 26.703125 6.109375 
Q 34.1875 6.109375 38.703125 11.40625 
Q 43.21875 16.703125 43.21875 25.484375 
L 43.21875 27.484375 
z
M 52.203125 31.203125 
L 52.203125 0 
L 43.21875 0 
L 43.21875 8.296875 
Q 40.140625 3.328125 35.546875 0.953125 
Q 30.953125 -1.421875 24.3125 -1.421875 
Q 15.921875 -1.421875 10.953125 3.296875 
Q 6 8.015625 6 15.921875 
Q 6 25.140625 12.171875 29.828125 
Q 18.359375 34.515625 30.609375 34.515625 
L 43.21875 34.515625 
L 43.21875 35.40625 
Q 43.21875 41.609375 39.140625 45 
Q 35.0625 48.390625 27.6875 48.390625 
Q 23 48.390625 18.546875 47.265625 
Q 14.109375 46.140625 10.015625 43.890625 
L 10.015625 52.203125 
Q 14.9375 54.109375 19.578125 55.046875 
Q 24.21875 56 28.609375 56 
Q 40.484375 56 46.34375 49.84375 
Q 52.203125 43.703125 52.203125 31.203125 
z
" id="DejaVuSans-97"/>
      <path d="M 18.3125 70.21875 
L 18.3125 54.6875 
L 36.8125 54.6875 
L 36.8125 47.703125 
L 18.3125 47.703125 
L 18.3125 18.015625 
Q 18.3125 11.328125 20.140625 9.421875 
Q 21.96875 7.515625 27.59375 7.515625 
L 36.8125 7.515625 
L 36.8125 0 
L 27.59375 0 
Q 17.1875 0 13.234375 3.875 
Q 9.28125 7.765625 9.28125 18.015625 
L 9.28125 47.703125 
L 2.6875 47.703125 
L 2.6875 54.6875 
L 9.28125 54.6875 
L 9.28125 70.21875 
z
" id="DejaVuSans-116"/>
      <path d="M 9.421875 54.6875 
L 18.40625 54.6875 
L 18.40625 0 
L 9.421875 0 
z
M 9.421875 75.984375 
L 18.40625 75.984375 
L 18.40625 64.59375 
L 9.421875 64.59375 
z
" id="DejaVuSans-105"/>
      <path d="M 30.609375 48.390625 
Q 23.390625 48.390625 19.1875 42.75 
Q 14.984375 37.109375 14.984375 27.296875 
Q 14.984375 17.484375 19.15625 11.84375 
Q 23.34375 6.203125 30.609375 6.203125 
Q 37.796875 6.203125 41.984375 11.859375 
Q 46.1875 17.53125 46.1875 27.296875 
Q 46.1875 37.015625 41.984375 42.703125 
Q 37.796875 48.390625 30.609375 48.390625 
z
M 30.609375 56 
Q 42.328125 56 49.015625 48.375 
Q 55.71875 40.765625 55.71875 27.296875 
Q 55.71875 13.875 49.015625 6.21875 
Q 42.328125 -1.421875 30.609375 -1.421875 
Q 18.84375 -1.421875 12.171875 6.21875 
Q 5.515625 13.875 5.515625 27.296875 
Q 5.515625 40.765625 12.171875 48.375 
Q 18.84375 56 30.609375 56 
z
" id="DejaVuSans-111"/>
      <path d="M 44.28125 53.078125 
L 44.28125 44.578125 
Q 40.484375 46.53125 36.375 47.5 
Q 32.28125 48.484375 27.875 48.484375 
Q 21.1875 48.484375 17.84375 46.4375 
Q 14.5 44.390625 14.5 40.28125 
Q 14.5 37.15625 16.890625 35.375 
Q 19.28125 33.59375 26.515625 31.984375 
L 29.59375 31.296875 
Q 39.15625 29.25 43.1875 25.515625 
Q 47.21875 21.78125 47.21875 15.09375 
Q 47.21875 7.46875 41.1875 3.015625 
Q 35.15625 -1.421875 24.609375 -1.421875 
Q 20.21875 -1.421875 15.453125 -0.5625 
Q 10.6875 0.296875 5.421875 2 
L 5.421875 11.28125 
Q 10.40625 8.6875 15.234375 7.390625 
Q 20.0625 6.109375 24.8125 6.109375 
Q 31.15625 6.109375 34.5625 8.28125 
Q 37.984375 10.453125 37.984375 14.40625 
Q 37.984375 18.0625 35.515625 20.015625 
Q 33.0625 21.96875 24.703125 23.78125 
L 21.578125 24.515625 
Q 13.234375 26.265625 9.515625 29.90625 
Q 5.8125 33.546875 5.8125 39.890625 
Q 5.8125 47.609375 11.28125 51.796875 
Q 16.75 56 26.8125 56 
Q 31.78125 56 36.171875 55.265625 
Q 40.578125 54.546875 44.28125 53.078125 
z
" id="DejaVuSans-115"/>
     </defs>
     <g transform="translate(205.662344 335.860562)scale(0.1 -0.1)">
      <use xlink:href="#DejaVuSans-71"/>
      <use x="77.490234" xlink:href="#DejaVuSans-101"/>
      <use x="139.013672" xlink:href="#DejaVuSans-110"/>
      <use x="202.392578" xlink:href="#DejaVuSans-101"/>
      <use x="263.916016" xlink:href="#DejaVuSans-114"/>
      <use x="305.029297" xlink:href="#DejaVuSans-97"/>
      <use x="366.308594" xlink:href="#DejaVuSans-116"/>
      <use x="405.517578" xlink:href="#DejaVuSans-105"/>
      <use x="433.300781" xlink:href="#DejaVuSans-111"/>
      <use x="494.482422" xlink:href="#DejaVuSans-110"/>
      <use x="557.861328" xlink:href="#DejaVuSans-115"/>
     </g>
    </g>
   </g>
   <g id="matplotlib.axis_2">
    <g id="ytick_1">
     <g id="line2d_15">
      <path clip-path="url(#p6c99a9838d)" d="M 57.6 295.924371 
L 414.72 295.924371 
" style="fill:none;stroke:#b0b0b0;stroke-linecap:square;stroke-width:0.8;"/>
     </g>
     <g id="line2d_16">
      <defs>
       <path d="M 0 0 
L -3.5 0 
" id="m46a55ddb77" style="stroke:#000000;stroke-width:0.8;"/>
      </defs>
      <g>
       <use style="stroke:#000000;stroke-width:0.8;" x="57.6" xlink:href="#m46a55ddb77" y="295.924371"/>
      </g>
     </g>
     <g id="text_9">
      <!-- 200 -->
      <g transform="translate(31.5125 299.72359)scale(0.1 -0.1)">
       <use xlink:href="#DejaVuSans-50"/>
       <use x="63.623047" xlink:href="#DejaVuSans-48"/>
       <use x="127.246094" xlink:href="#DejaVuSans-48"/>
      </g>
     </g>
    </g>
    <g id="ytick_2">
     <g id="line2d_17">
      <path clip-path="url(#p6c99a9838d)" d="M 57.6 258.319549 
L 414.72 258.319549 
" style="fill:none;stroke:#b0b0b0;stroke-linecap:square;stroke-width:0.8;"/>
     </g>
     <g id="line2d_18">
      <g>
       <use style="stroke:#000000;stroke-width:0.8;" x="57.6" xlink:href="#m46a55ddb77" y="258.319549"/>
      </g>
     </g>
     <g id="text_10">
      <!-- 400 -->
      <defs>
       <path d="M 37.796875 64.3125 
L 12.890625 25.390625 
L 37.796875 25.390625 
z
M 35.203125 72.90625 
L 47.609375 72.90625 
L 47.609375 25.390625 
L 58.015625 25.390625 
L 58.015625 17.1875 
L 47.609375 17.1875 
L 47.609375 0 
L 37.796875 0 
L 37.796875 17.1875 
L 4.890625 17.1875 
L 4.890625 26.703125 
z
" id="DejaVuSans-52"/>
      </defs>
      <g transform="translate(31.5125 262.118768)scale(0.1 -0.1)">
       <use xlink:href="#DejaVuSans-52"/>
       <use x="63.623047" xlink:href="#DejaVuSans-48"/>
       <use x="127.246094" xlink:href="#DejaVuSans-48"/>
      </g>
     </g>
    </g>
    <g id="ytick_3">
     <g id="line2d_19">
      <path clip-path="url(#p6c99a9838d)" d="M 57.6 220.714727 
L 414.72 220.714727 
" style="fill:none;stroke:#b0b0b0;stroke-linecap:square;stroke-width:0.8;"/>
     </g>
     <g id="line2d_20">
      <g>
       <use style="stroke:#000000;stroke-width:0.8;" x="57.6" xlink:href="#m46a55ddb77" y="220.714727"/>
      </g>
     </g>
     <g id="text_11">
      <!-- 600 -->
      <defs>
       <path d="M 33.015625 40.375 
Q 26.375 40.375 22.484375 35.828125 
Q 18.609375 31.296875 18.609375 23.390625 
Q 18.609375 15.53125 22.484375 10.953125 
Q 26.375 6.390625 33.015625 6.390625 
Q 39.65625 6.390625 43.53125 10.953125 
Q 47.40625 15.53125 47.40625 23.390625 
Q 47.40625 31.296875 43.53125 35.828125 
Q 39.65625 40.375 33.015625 40.375 
z
M 52.59375 71.296875 
L 52.59375 62.3125 
Q 48.875 64.0625 45.09375 64.984375 
Q 41.3125 65.921875 37.59375 65.921875 
Q 27.828125 65.921875 22.671875 59.328125 
Q 17.53125 52.734375 16.796875 39.40625 
Q 19.671875 43.65625 24.015625 45.921875 
Q 28.375 48.1875 33.59375 48.1875 
Q 44.578125 48.1875 50.953125 41.515625 
Q 57.328125 34.859375 57.328125 23.390625 
Q 57.328125 12.15625 50.6875 5.359375 
Q 44.046875 -1.421875 33.015625 -1.421875 
Q 20.359375 -1.421875 13.671875 8.265625 
Q 6.984375 17.96875 6.984375 36.375 
Q 6.984375 53.65625 15.1875 63.9375 
Q 23.390625 74.21875 37.203125 74.21875 
Q 40.921875 74.21875 44.703125 73.484375 
Q 48.484375 72.75 52.59375 71.296875 
z
" id="DejaVuSans-54"/>
      </defs>
      <g transform="translate(31.5125 224.513946)scale(0.1 -0.1)">
       <use xlink:href="#DejaVuSans-54"/>
       <use x="63.623047" xlink:href="#DejaVuSans-48"/>
       <use x="127.246094" xlink:href="#DejaVuSans-48"/>
      </g>
     </g>
    </g>
    <g id="ytick_4">
     <g id="line2d_21">
      <path clip-path="url(#p6c99a9838d)" d="M 57.6 183.109905 
L 414.72 183.109905 
" style="fill:none;stroke:#b0b0b0;stroke-linecap:square;stroke-width:0.8;"/>
     </g>
     <g id="line2d_22">
      <g>
       <use style="stroke:#000000;stroke-width:0.8;" x="57.6" xlink:href="#m46a55ddb77" y="183.109905"/>
      </g>
     </g>
     <g id="text_12">
      <!-- 800 -->
      <defs>
       <path d="M 31.78125 34.625 
Q 24.75 34.625 20.71875 30.859375 
Q 16.703125 27.09375 16.703125 20.515625 
Q 16.703125 13.921875 20.71875 10.15625 
Q 24.75 6.390625 31.78125 6.390625 
Q 38.8125 6.390625 42.859375 10.171875 
Q 46.921875 13.96875 46.921875 20.515625 
Q 46.921875 27.09375 42.890625 30.859375 
Q 38.875 34.625 31.78125 34.625 
z
M 21.921875 38.8125 
Q 15.578125 40.375 12.03125 44.71875 
Q 8.5 49.078125 8.5 55.328125 
Q 8.5 64.0625 14.71875 69.140625 
Q 20.953125 74.21875 31.78125 74.21875 
Q 42.671875 74.21875 48.875 69.140625 
Q 55.078125 64.0625 55.078125 55.328125 
Q 55.078125 49.078125 51.53125 44.71875 
Q 48 40.375 41.703125 38.8125 
Q 48.828125 37.15625 52.796875 32.3125 
Q 56.78125 27.484375 56.78125 20.515625 
Q 56.78125 9.90625 50.3125 4.234375 
Q 43.84375 -1.421875 31.78125 -1.421875 
Q 19.734375 -1.421875 13.25 4.234375 
Q 6.78125 9.90625 6.78125 20.515625 
Q 6.78125 27.484375 10.78125 32.3125 
Q 14.796875 37.15625 21.921875 38.8125 
z
M 18.3125 54.390625 
Q 18.3125 48.734375 21.84375 45.5625 
Q 25.390625 42.390625 31.78125 42.390625 
Q 38.140625 42.390625 41.71875 45.5625 
Q 45.3125 48.734375 45.3125 54.390625 
Q 45.3125 60.0625 41.71875 63.234375 
Q 38.140625 66.40625 31.78125 66.40625 
Q 25.390625 66.40625 21.84375 63.234375 
Q 18.3125 60.0625 18.3125 54.390625 
z
" id="DejaVuSans-56"/>
      </defs>
      <g transform="translate(31.5125 186.909124)scale(0.1 -0.1)">
       <use xlink:href="#DejaVuSans-56"/>
       <use x="63.623047" xlink:href="#DejaVuSans-48"/>
       <use x="127.246094" xlink:href="#DejaVuSans-48"/>
      </g>
     </g>
    </g>
    <g id="ytick_5">
     <g id="line2d_23">
      <path clip-path="url(#p6c99a9838d)" d="M 57.6 145.505083 
L 414.72 145.505083 
" style="fill:none;stroke:#b0b0b0;stroke-linecap:square;stroke-width:0.8;"/>
     </g>
     <g id="line2d_24">
      <g>
       <use style="stroke:#000000;stroke-width:0.8;" x="57.6" xlink:href="#m46a55ddb77" y="145.505083"/>
      </g>
     </g>
     <g id="text_13">
      <!-- 1000 -->
      <g transform="translate(25.15 149.304302)scale(0.1 -0.1)">
       <use xlink:href="#DejaVuSans-49"/>
       <use x="63.623047" xlink:href="#DejaVuSans-48"/>
       <use x="127.246094" xlink:href="#DejaVuSans-48"/>
       <use x="190.869141" xlink:href="#DejaVuSans-48"/>
      </g>
     </g>
    </g>
    <g id="ytick_6">
     <g id="line2d_25">
      <path clip-path="url(#p6c99a9838d)" d="M 57.6 107.900261 
L 414.72 107.900261 
" style="fill:none;stroke:#b0b0b0;stroke-linecap:square;stroke-width:0.8;"/>
     </g>
     <g id="line2d_26">
      <g>
       <use style="stroke:#000000;stroke-width:0.8;" x="57.6" xlink:href="#m46a55ddb77" y="107.900261"/>
      </g>
     </g>
     <g id="text_14">
      <!-- 1200 -->
      <g transform="translate(25.15 111.69948)scale(0.1 -0.1)">
       <use xlink:href="#DejaVuSans-49"/>
       <use x="63.623047" xlink:href="#DejaVuSans-50"/>
       <use x="127.246094" xlink:href="#DejaVuSans-48"/>
       <use x="190.869141" xlink:href="#DejaVuSans-48"/>
      </g>
     </g>
    </g>
    <g id="ytick_7">
     <g id="line2d_27">
      <path clip-path="url(#p6c99a9838d)" d="M 57.6 70.295439 
L 414.72 70.295439 
" style="fill:none;stroke:#b0b0b0;stroke-linecap:square;stroke-width:0.8;"/>
     </g>
     <g id="line2d_28">
      <g>
       <use style="stroke:#000000;stroke-width:0.8;" x="57.6" xlink:href="#m46a55ddb77" y="70.295439"/>
      </g>
     </g>
     <g id="text_15">
      <!-- 1400 -->
      <g transform="translate(25.15 74.094658)scale(0.1 -0.1)">
       <use xlink:href="#DejaVuSans-49"/>
       <use x="63.623047" xlink:href="#DejaVuSans-52"/>
       <use x="127.246094" xlink:href="#DejaVuSans-48"/>
       <use x="190.869141" xlink:href="#DejaVuSans-48"/>
      </g>
     </g>
    </g>
    <g id="text_16">
     <!-- Fitness -->
     <defs>
      <path d="M 9.8125 72.90625 
L 51.703125 72.90625 
L 51.703125 64.59375 
L 19.671875 64.59375 
L 19.671875 43.109375 
L 48.578125 43.109375 
L 48.578125 34.8125 
L 19.671875 34.8125 
L 19.671875 0 
L 9.8125 0 
z
" id="DejaVuSans-70"/>
     </defs>
     <g transform="translate(19.070312 192.202219)rotate(-90)scale(0.1 -0.1)">
      <use xlink:href="#DejaVuSans-70"/>
      <use x="57.410156" xlink:href="#DejaVuSans-105"/>
      <use x="85.193359" xlink:href="#DejaVuSans-116"/>
      <use x="124.402344" xlink:href="#DejaVuSans-110"/>
      <use x="187.78125" xlink:href="#DejaVuSans-101"/>
      <use x="249.304688" xlink:href="#DejaVuSans-115"/>
      <use x="301.404297" xlink:href="#DejaVuSans-115"/>
     </g>
    </g>
   </g>
   <g id="line2d_29">
    <path clip-path="url(#p6c99a9838d)" d="M 73.832727 293.482503 
L 76.00433 289.364847 
L 77.090131 281.747584 
L 78.175932 273.035924 
L 79.261733 262.662663 
L 80.347534 241.82601 
L 81.433335 235.303968 
L 82.519137 233.838866 
L 83.604938 225.072294 
L 84.690739 224.983829 
L 85.77654 237.102037 
L 86.862341 229.873405 
L 87.948142 214.469156 
L 89.033943 219.153897 
L 90.119745 220.627657 
L 91.205546 214.094315 
L 92.291347 216.243901 
L 93.377148 193.12513 
L 94.462949 186.889263 
L 95.54875 184.340756 
L 96.634552 193.654827 
L 97.720353 190.662578 
L 98.806154 203.552433 
L 99.891955 169.202675 
L 100.977756 166.135864 
L 102.063557 182.085771 
L 103.149358 188.152075 
L 104.23516 186.316886 
L 105.320961 162.010272 
L 106.406762 157.780077 
L 107.492563 173.689437 
L 108.578364 163.472612 
L 109.664165 177.462153 
L 110.749967 151.911311 
L 111.835768 178.637682 
L 112.921569 175.243444 
L 114.00737 169.219587 
L 115.093171 165.377259 
L 116.178972 169.33023 
L 117.264773 167.298362 
L 118.350575 183.701401 
L 119.436376 172.403881 
L 120.522177 164.968481 
L 121.607978 176.870666 
L 122.693779 165.200357 
L 123.77958 159.724099 
L 124.865382 183.395648 
L 125.951183 184.319745 
L 127.036984 171.346988 
L 128.122785 181.504992 
L 129.208586 146.81328 
L 130.294387 158.358243 
L 131.380189 164.025667 
L 132.46599 178.418738 
L 133.551791 180.593653 
L 134.637592 183.383206 
L 135.723393 172.171398 
L 136.809194 179.924199 
L 137.894995 166.704144 
L 138.980797 173.275247 
L 140.066598 156.15082 
L 141.152399 176.163477 
L 142.2382 192.968268 
L 143.324001 179.865708 
L 144.409802 156.898035 
L 146.581405 189.549613 
L 147.667206 169.451792 
L 148.753007 189.010692 
L 149.838808 180.53967 
L 150.924609 194.158996 
L 152.01041 155.665287 
L 153.096212 154.566399 
L 154.182013 181.127609 
L 155.267814 162.505905 
L 156.353615 137.287917 
L 157.439416 199.850242 
L 158.525217 148.523054 
L 159.611019 166.519049 
L 160.69682 162.783234 
L 161.782621 179.15112 
L 162.868422 174.417494 
L 163.954223 188.253215 
L 165.040024 175.722913 
L 166.125825 168.674205 
L 167.211627 165.629124 
L 168.297428 167.099486 
L 169.383229 154.007353 
L 170.46903 172.068668 
L 171.554831 160.593316 
L 172.640632 162.123883 
L 173.726434 164.193407 
L 174.812235 156.480382 
L 175.898036 150.829071 
L 176.983837 159.201969 
L 178.069638 161.294378 
L 179.155439 137.569372 
L 180.24124 140.56978 
L 181.327042 141.373687 
L 182.412843 139.744175 
L 183.498644 161.839468 
L 184.584445 143.005488 
L 185.670246 156.411598 
L 186.756047 153.380765 
L 187.841849 171.143647 
L 188.92765 165.493917 
L 190.013451 175.479947 
L 191.099252 150.435912 
L 192.185053 148.828162 
L 193.270854 161.570293 
L 194.356656 172.599415 
L 195.442457 160.554563 
L 196.528258 173.143501 
L 197.614059 158.064514 
L 198.69986 168.901482 
L 199.785661 144.90526 
L 200.871462 158.312325 
L 201.957264 142.318186 
L 203.043065 160.880923 
L 204.128866 170.429745 
L 205.214667 148.956952 
L 206.300468 164.515587 
L 207.386269 149.213347 
L 208.472071 149.311044 
L 209.557872 171.728369 
L 210.643673 165.431159 
L 211.729474 162.039257 
L 213.901076 132.108052 
L 214.986877 135.226222 
L 216.072679 161.078442 
L 217.15848 156.610745 
L 218.244281 145.035304 
L 219.330082 140.258099 
L 220.415883 126.395826 
L 221.501684 154.052898 
L 222.587486 144.852151 
L 223.673287 137.599303 
L 224.759088 151.186769 
L 225.844889 180.654188 
L 226.93069 152.906568 
L 228.016491 147.462258 
L 229.102292 127.833575 
L 230.188094 126.380465 
L 232.359696 158.466298 
L 233.445497 155.321419 
L 234.531298 153.402135 
L 235.617099 144.67435 
L 236.702901 155.756223 
L 237.788702 155.97594 
L 238.874503 145.539857 
L 241.046105 163.389137 
L 242.131906 175.459801 
L 243.217708 153.104544 
L 244.303509 148.44704 
L 245.38931 134.830191 
L 246.475111 154.708944 
L 247.560912 155.17874 
L 248.646713 175.518274 
L 249.732514 162.909803 
L 250.818316 147.896998 
L 251.904117 181.780179 
L 254.075719 158.912966 
L 255.16152 144.738469 
L 256.247321 144.774032 
L 257.333123 165.827029 
L 258.418924 166.880842 
L 259.504725 171.348978 
L 260.590526 168.760483 
L 261.676327 170.004061 
L 262.762128 165.580564 
L 263.847929 176.182507 
L 264.933731 175.603542 
L 266.019532 194.358249 
L 267.105333 192.746837 
L 268.191134 171.57016 
L 269.276935 158.367121 
L 270.362736 184.079589 
L 271.448538 182.837639 
L 272.534339 178.397565 
L 273.62014 177.908286 
L 274.705941 177.035955 
L 275.791742 172.820792 
L 276.877543 179.996318 
L 277.963344 163.490467 
L 279.049146 170.080787 
L 280.134947 178.410587 
L 281.220748 173.333311 
L 282.306549 183.427547 
L 283.39235 139.095374 
L 284.478151 164.524607 
L 285.563953 167.447094 
L 286.649754 169.655242 
L 287.735555 179.442037 
L 288.821356 179.545623 
L 289.907157 175.683174 
L 290.992958 163.914324 
L 292.07876 179.044704 
L 293.164561 156.711619 
L 294.250362 167.9505 
L 295.336163 158.250166 
L 296.421964 189.81879 
L 297.507765 168.084597 
L 298.593566 175.179069 
L 299.679368 164.665352 
L 300.765169 148.121827 
L 301.85097 163.31726 
L 302.936771 168.955883 
L 304.022572 136.961938 
L 305.108373 148.452496 
L 306.194175 172.9314 
L 307.279976 175.596639 
L 308.365777 150.024339 
L 309.451578 150.975989 
L 310.537379 166.185653 
L 311.62318 142.780829 
L 312.708981 149.019098 
L 313.794783 156.553416 
L 314.880584 153.765601 
L 315.966385 165.360915 
L 317.052186 155.780428 
L 318.137987 163.690807 
L 319.223788 149.408085 
L 320.30959 174.20366 
L 321.395391 144.277612 
L 322.481192 154.783837 
L 323.566993 151.457357 
L 324.652794 168.936327 
L 325.738595 149.779827 
L 326.824396 152.402003 
L 327.910198 179.6398 
L 328.995999 173.561872 
L 330.0818 195.826434 
L 331.167601 174.903527 
L 332.253402 173.66027 
L 333.339203 164.870795 
L 334.425005 158.641361 
L 335.510806 147.35279 
L 336.596607 138.947505 
L 337.682408 161.746979 
L 338.768209 158.469436 
L 339.85401 168.928806 
L 340.939811 162.577219 
L 342.025613 171.412286 
L 343.111414 178.381952 
L 344.197215 159.812518 
L 345.283016 151.052625 
L 346.368817 152.147337 
L 347.454618 164.903663 
L 348.54042 185.470082 
L 349.626221 153.251991 
L 350.712022 180.134185 
L 351.797823 175.937765 
L 352.883624 160.100615 
L 353.969425 160.983443 
L 355.055227 171.967863 
L 356.141028 164.023693 
L 357.226829 173.394766 
L 358.31263 155.99123 
L 360.484232 174.007535 
L 361.570033 171.673274 
L 362.655835 149.514122 
L 363.741636 150.504912 
L 364.827437 160.461302 
L 365.913238 150.499814 
L 366.999039 162.662942 
L 368.08484 135.001259 
L 369.170642 174.107383 
L 370.256443 177.536427 
L 371.342244 145.119317 
L 372.428045 116.384243 
L 373.513846 148.177386 
L 375.685448 158.242214 
L 376.77125 144.201072 
L 377.857051 161.069357 
L 378.942852 145.147163 
L 380.028653 150.884856 
L 381.114454 142.607592 
L 382.200255 170.570855 
L 383.286057 162.546556 
L 384.371858 168.67616 
L 385.457659 154.156253 
L 386.54346 159.181236 
L 387.629261 154.533799 
L 388.715062 145.467732 
L 389.800863 159.24665 
L 390.886665 163.386391 
L 391.972466 171.643565 
L 393.058267 156.187464 
L 394.144068 147.788631 
L 395.229869 167.341975 
L 396.31567 171.35571 
L 397.401472 136.410198 
L 398.487273 142.984528 
L 398.487273 142.984528 
" style="fill:none;stroke:#0000ff;stroke-linecap:square;stroke-width:1.5;"/>
   </g>
   <g id="line2d_30">
    <path clip-path="url(#p6c99a9838d)" d="M 73.832727 295.488 
L 74.918528 294.813736 
L 76.00433 293.211142 
L 77.090131 287.205102 
L 78.175932 286.153505 
L 79.261733 281.482347 
L 80.347534 262.858954 
L 81.433335 261.404137 
L 82.519137 262.625618 
L 83.604938 255.088444 
L 84.690739 257.228865 
L 85.77654 267.871303 
L 86.862341 259.817321 
L 87.948142 248.663803 
L 89.033943 246.47881 
L 90.119745 255.481128 
L 91.205546 249.255147 
L 92.291347 251.812321 
L 93.377148 238.722122 
L 94.462949 231.558481 
L 95.54875 243.324394 
L 96.634552 241.734781 
L 97.720353 236.638322 
L 98.806154 246.580463 
L 99.891955 231.131593 
L 100.977756 229.94525 
L 102.063557 234.085416 
L 103.149358 233.640492 
L 104.23516 232.412781 
L 105.320961 220.893345 
L 106.406762 211.767269 
L 107.492563 234.70083 
L 108.578364 210.246092 
L 109.664165 230.979665 
L 110.749967 197.472648 
L 111.835768 229.151296 
L 112.921569 232.129304 
L 114.00737 227.878367 
L 115.093171 221.552091 
L 116.178972 225.237229 
L 117.264773 226.325069 
L 118.350575 237.573723 
L 119.436376 226.970664 
L 120.522177 219.972718 
L 121.607978 231.984679 
L 122.693779 223.616436 
L 123.77958 219.05939 
L 124.865382 245.836924 
L 125.951183 239.574909 
L 127.036984 223.681035 
L 128.122785 228.947555 
L 129.208586 201.341269 
L 130.294387 209.903415 
L 131.380189 226.960149 
L 132.46599 237.016242 
L 133.551791 248.936764 
L 134.637592 237.887856 
L 135.723393 221.592986 
L 136.809194 233.485814 
L 137.894995 227.656372 
L 138.980797 228.358157 
L 140.066598 217.889184 
L 141.152399 222.961763 
L 142.2382 250.127589 
L 143.324001 244.63025 
L 144.409802 216.068397 
L 145.495604 235.148816 
L 146.581405 239.481173 
L 147.667206 230.188139 
L 148.753007 244.324475 
L 149.838808 238.711193 
L 150.924609 248.347693 
L 152.01041 209.181688 
L 153.096212 205.523901 
L 154.182013 234.756097 
L 155.267814 225.568831 
L 156.353615 192.49619 
L 157.439416 254.996795 
L 158.525217 210.144779 
L 159.611019 224.153217 
L 160.69682 216.625012 
L 161.782621 229.645048 
L 162.868422 218.745891 
L 163.954223 237.011145 
L 165.040024 227.910603 
L 166.125825 223.254144 
L 167.211627 224.172252 
L 168.297428 226.019502 
L 169.383229 204.173564 
L 170.46903 233.175876 
L 171.554831 222.173943 
L 172.640632 217.974552 
L 173.726434 229.674858 
L 174.812235 219.836168 
L 175.898036 222.16234 
L 176.983837 224.06352 
L 178.069638 227.121405 
L 179.155439 205.839282 
L 181.327042 210.526915 
L 182.412843 208.049078 
L 183.498644 217.26166 
L 184.584445 219.75322 
L 185.670246 221.408559 
L 186.756047 221.436366 
L 187.841849 235.118132 
L 188.92765 224.329977 
L 190.013451 234.063924 
L 191.099252 212.873332 
L 192.185053 219.547658 
L 193.270854 221.148878 
L 194.356656 225.17545 
L 195.442457 217.343567 
L 196.528258 233.597898 
L 197.614059 222.77853 
L 198.69986 226.040895 
L 199.785661 208.458356 
L 200.871462 230.232701 
L 201.957264 209.140124 
L 203.043065 223.015998 
L 204.128866 232.25573 
L 205.214667 215.744133 
L 206.300468 224.766811 
L 207.386269 220.20343 
L 208.472071 217.21377 
L 209.557872 232.597786 
L 210.643673 224.884187 
L 211.729474 231.134781 
L 212.815275 213.89881 
L 213.901076 204.147666 
L 214.986877 200.46696 
L 216.072679 217.90543 
L 217.15848 210.911729 
L 218.244281 205.013717 
L 219.330082 202.312175 
L 220.415883 189.279638 
L 221.501684 218.046084 
L 222.587486 209.847788 
L 223.673287 220.731044 
L 224.759088 226.646679 
L 225.844889 235.153723 
L 226.93069 209.632162 
L 228.016491 214.815877 
L 229.102292 202.099149 
L 230.188094 193.977755 
L 231.273895 208.581638 
L 232.359696 226.3954 
L 233.445497 216.888929 
L 234.531298 211.351249 
L 235.617099 198.285989 
L 236.702901 213.241438 
L 237.788702 208.864803 
L 238.874503 203.195784 
L 241.046105 216.47849 
L 242.131906 236.614253 
L 243.217708 216.402218 
L 244.303509 210.031181 
L 245.38931 192.74575 
L 246.475111 222.654365 
L 247.560912 234.183677 
L 248.646713 225.339791 
L 249.732514 220.466544 
L 250.818316 220.815398 
L 251.904117 237.439214 
L 254.075719 218.591909 
L 255.16152 222.670385 
L 256.247321 219.127528 
L 257.333123 237.865299 
L 258.418924 225.709025 
L 259.504725 235.775402 
L 260.590526 234.830562 
L 261.676327 231.173127 
L 262.762128 223.565484 
L 263.847929 229.713822 
L 264.933731 232.947295 
L 266.019532 244.326202 
L 267.105333 245.71602 
L 268.191134 236.515096 
L 269.276935 221.414788 
L 270.362736 235.307155 
L 271.448538 233.711909 
L 272.534339 235.091881 
L 273.62014 229.951417 
L 274.705941 240.205295 
L 275.791742 230.430486 
L 276.877543 236.822147 
L 277.963344 228.90046 
L 279.049146 234.134663 
L 280.134947 236.345982 
L 281.220748 234.509412 
L 282.306549 241.615338 
L 283.39235 200.22668 
L 284.478151 225.849342 
L 285.563953 224.831809 
L 286.649754 229.998846 
L 287.735555 239.875903 
L 288.821356 232.384664 
L 289.907157 222.854352 
L 290.992958 222.463008 
L 292.07876 240.4755 
L 293.164561 216.233741 
L 294.250362 230.797212 
L 295.336163 233.075584 
L 296.421964 241.204713 
L 297.507765 212.082932 
L 298.593566 235.361774 
L 299.679368 229.44944 
L 300.765169 219.948168 
L 301.85097 218.876476 
L 302.936771 236.842866 
L 304.022572 184.662957 
L 305.108373 213.008845 
L 306.194175 235.904224 
L 307.279976 235.6027 
L 308.365777 216.224094 
L 309.451578 211.916499 
L 310.537379 232.041771 
L 311.62318 196.793691 
L 312.708981 206.061083 
L 313.794783 219.665795 
L 314.880584 216.393529 
L 315.966385 238.652478 
L 317.052186 225.678934 
L 318.137987 225.34284 
L 319.223788 223.99662 
L 320.30959 240.266582 
L 321.395391 207.338595 
L 322.481192 218.035649 
L 323.566993 216.950084 
L 324.652794 219.785847 
L 325.738595 225.857196 
L 326.824396 225.135882 
L 327.910198 248.484458 
L 328.995999 234.79949 
L 330.0818 248.111547 
L 331.167601 241.149129 
L 332.253402 237.728603 
L 333.339203 233.050471 
L 334.425005 227.074209 
L 335.510806 213.982789 
L 336.596607 209.535065 
L 337.682408 234.820776 
L 338.768209 222.742983 
L 339.85401 237.31477 
L 340.939811 232.897108 
L 342.025613 229.103093 
L 343.111414 244.822818 
L 344.197215 228.956988 
L 345.283016 209.447889 
L 346.368817 231.258812 
L 348.54042 243.213711 
L 349.626221 215.564813 
L 350.712022 246.545923 
L 351.797823 235.883182 
L 352.883624 222.439287 
L 353.969425 222.164015 
L 355.055227 231.050354 
L 356.141028 227.202396 
L 357.226829 228.496048 
L 358.31263 224.153543 
L 359.398431 224.292538 
L 360.484232 243.008301 
L 361.570033 240.944514 
L 362.655835 211.213678 
L 363.741636 214.044839 
L 364.827437 225.764752 
L 365.913238 210.807232 
L 366.999039 226.743904 
L 368.08484 198.452893 
L 369.170642 235.431812 
L 370.256443 229.186326 
L 371.342244 213.254989 
L 372.428045 173.38524 
L 373.513846 216.224907 
L 374.599647 217.359673 
L 375.685448 213.124885 
L 376.77125 215.230853 
L 377.857051 222.188753 
L 378.942852 215.271534 
L 380.028653 216.807607 
L 381.114454 209.408165 
L 382.200255 232.0644 
L 383.286057 227.341725 
L 384.371858 228.897365 
L 385.457659 212.475573 
L 386.54346 223.595048 
L 387.629261 222.073219 
L 388.715062 221.148485 
L 389.800863 230.239168 
L 390.886665 227.865301 
L 391.972466 232.890487 
L 393.058267 219.45142 
L 394.144068 216.884832 
L 395.229869 224.903295 
L 396.31567 216.416958 
L 397.401472 190.83387 
L 398.487273 206.48458 
L 398.487273 206.48458 
" style="fill:none;stroke:#008000;stroke-dasharray:9.6,2.4,1.5,2.4;stroke-dashoffset:0;stroke-width:1.5;"/>
   </g>
   <g id="line2d_31">
    <path clip-path="url(#p6c99a9838d)" d="M 73.832727 291.477006 
L 74.918528 287.990011 
L 76.00433 285.518552 
L 77.090131 276.290066 
L 79.261733 243.842979 
L 80.347534 220.793065 
L 81.433335 209.203799 
L 82.519137 205.052115 
L 83.604938 195.056144 
L 84.690739 192.738793 
L 85.77654 206.332771 
L 86.862341 199.929489 
L 87.948142 180.274509 
L 89.033943 191.828984 
L 90.119745 185.774185 
L 91.205546 178.933482 
L 92.291347 180.675481 
L 93.377148 147.528138 
L 94.462949 142.220045 
L 95.54875 125.357119 
L 96.634552 145.574874 
L 97.720353 144.686835 
L 98.806154 160.524403 
L 99.891955 107.273756 
L 100.977756 102.326478 
L 102.063557 130.086127 
L 103.149358 142.663657 
L 104.23516 140.220992 
L 105.320961 103.127199 
L 106.406762 103.792885 
L 107.492563 112.678045 
L 108.578364 116.699131 
L 109.664165 123.944641 
L 110.749967 106.349973 
L 111.835768 128.124068 
L 112.921569 118.357584 
L 114.00737 110.560807 
L 115.093171 109.202428 
L 116.178972 113.42323 
L 117.264773 108.271656 
L 118.350575 129.829079 
L 119.436376 117.837099 
L 120.522177 109.964244 
L 121.607978 121.756654 
L 122.693779 106.784277 
L 123.77958 100.388807 
L 124.865382 120.954372 
L 125.951183 129.064581 
L 127.036984 119.012941 
L 128.122785 134.06243 
L 129.208586 92.285292 
L 130.294387 106.81307 
L 131.380189 101.091184 
L 132.46599 119.821234 
L 133.551791 112.250542 
L 134.637592 128.878555 
L 135.723393 122.749809 
L 136.809194 126.362583 
L 137.894995 105.751916 
L 138.980797 118.192337 
L 140.066598 94.412455 
L 141.152399 129.36519 
L 142.2382 135.808947 
L 143.324001 115.101167 
L 144.409802 97.727673 
L 145.495604 110.25616 
L 146.581405 139.618054 
L 147.667206 108.715446 
L 148.753007 133.696909 
L 149.838808 122.368146 
L 150.924609 139.970299 
L 152.01041 102.148885 
L 153.096212 103.608897 
L 154.182013 127.499121 
L 155.267814 99.442979 
L 156.353615 82.079643 
L 157.439416 144.70369 
L 158.525217 86.901329 
L 159.611019 108.884881 
L 160.69682 108.941456 
L 161.782621 128.657191 
L 162.868422 130.089098 
L 163.954223 139.495285 
L 165.040024 123.535224 
L 166.125825 114.094265 
L 167.211627 107.085995 
L 168.297428 108.17947 
L 169.383229 103.841142 
L 170.46903 110.96146 
L 171.554831 99.012689 
L 172.640632 106.273214 
L 173.726434 98.711956 
L 174.812235 93.124596 
L 175.898036 79.495801 
L 176.983837 94.340419 
L 178.069638 95.467351 
L 179.155439 69.299463 
L 180.24124 72.916238 
L 182.412843 71.439271 
L 183.498644 106.417276 
L 184.584445 66.257757 
L 185.670246 91.414637 
L 186.756047 85.325164 
L 187.841849 107.169161 
L 188.92765 106.657857 
L 190.013451 116.89597 
L 191.099252 87.998492 
L 192.185053 78.108666 
L 193.270854 101.991709 
L 194.356656 120.023379 
L 195.442457 103.765559 
L 196.528258 112.689105 
L 197.614059 93.350498 
L 198.69986 111.762069 
L 199.785661 81.352164 
L 200.871462 86.39195 
L 201.957264 75.496247 
L 203.043065 98.745847 
L 204.128866 108.60376 
L 205.214667 82.169772 
L 206.300468 104.264363 
L 207.386269 78.223264 
L 208.472071 81.408318 
L 209.557872 110.858952 
L 210.643673 105.978131 
L 212.815275 78.697188 
L 213.901076 60.068438 
L 214.986877 69.985485 
L 216.072679 104.251454 
L 217.15848 102.30976 
L 218.244281 85.05689 
L 219.330082 78.204022 
L 220.415883 63.512014 
L 221.501684 90.059711 
L 222.587486 79.856513 
L 223.673287 54.467562 
L 224.759088 75.726858 
L 225.844889 126.154654 
L 226.93069 96.180975 
L 228.016491 80.108638 
L 229.102292 53.568 
L 230.188094 58.783174 
L 231.273895 77.461322 
L 232.359696 90.537195 
L 233.445497 93.753909 
L 234.531298 95.453021 
L 235.617099 91.062711 
L 236.702901 98.271009 
L 237.788702 103.087076 
L 238.874503 87.883929 
L 241.046105 110.299784 
L 242.131906 114.305349 
L 243.217708 89.80687 
L 244.303509 86.862899 
L 245.38931 76.914632 
L 246.475111 86.763522 
L 247.560912 76.173803 
L 248.646713 125.696757 
L 249.732514 105.353062 
L 250.818316 74.978599 
L 251.904117 126.121144 
L 254.075719 99.234023 
L 255.16152 66.806553 
L 256.247321 70.420536 
L 257.333123 93.788758 
L 258.418924 108.052659 
L 259.504725 106.922554 
L 260.590526 102.690403 
L 261.676327 108.834994 
L 262.762128 107.595644 
L 263.847929 122.651191 
L 264.933731 118.25979 
L 266.019532 144.390295 
L 267.105333 139.777655 
L 268.191134 106.625225 
L 269.276935 95.319455 
L 270.362736 132.852022 
L 271.448538 131.96337 
L 272.534339 121.703249 
L 273.62014 125.865155 
L 274.705941 113.866615 
L 275.791742 115.211098 
L 276.877543 123.170489 
L 277.963344 98.080473 
L 279.049146 106.02691 
L 280.134947 120.475192 
L 281.220748 112.157209 
L 282.306549 125.239757 
L 283.39235 77.964067 
L 284.478151 103.199873 
L 285.563953 110.062379 
L 286.649754 109.311637 
L 287.735555 119.00817 
L 288.821356 126.706582 
L 289.907157 128.511996 
L 290.992958 105.36564 
L 292.07876 117.613908 
L 293.164561 97.189497 
L 294.250362 105.103788 
L 295.336163 83.424748 
L 296.421964 138.432867 
L 297.507765 124.086261 
L 298.593566 114.996365 
L 299.679368 99.881263 
L 300.765169 76.295485 
L 301.85097 107.758045 
L 302.936771 101.068901 
L 304.022572 89.260919 
L 305.108373 83.896147 
L 306.194175 109.958576 
L 307.279976 115.590578 
L 308.365777 83.824583 
L 309.451578 90.03548 
L 310.537379 100.329535 
L 311.62318 88.767966 
L 312.708981 91.977113 
L 313.794783 93.441036 
L 314.880584 91.137674 
L 315.966385 92.069351 
L 317.052186 85.881921 
L 318.137987 102.038774 
L 319.223788 74.819551 
L 320.30959 108.140737 
L 321.395391 81.216628 
L 322.481192 91.532025 
L 323.566993 85.96463 
L 324.652794 118.086807 
L 325.738595 73.702457 
L 326.824396 79.668124 
L 327.910198 110.795141 
L 328.995999 112.324253 
L 330.0818 143.541321 
L 331.167601 108.657924 
L 332.253402 109.591937 
L 333.339203 96.69112 
L 334.425005 90.208513 
L 335.510806 80.722791 
L 336.596607 68.359945 
L 337.682408 88.673182 
L 338.768209 94.195888 
L 339.85401 100.542842 
L 340.939811 92.257331 
L 342.025613 113.721479 
L 343.111414 111.941085 
L 344.197215 90.668047 
L 345.283016 92.657361 
L 346.368817 73.035861 
L 347.454618 92.516741 
L 348.54042 127.726453 
L 349.626221 90.939169 
L 350.712022 113.722446 
L 351.797823 115.992348 
L 352.883624 97.761944 
L 353.969425 99.802871 
L 355.055227 112.885373 
L 356.141028 100.844991 
L 357.226829 118.293485 
L 358.31263 87.828918 
L 359.398431 105.25711 
L 360.484232 105.006769 
L 361.570033 102.402034 
L 362.655835 87.814566 
L 363.741636 86.964984 
L 364.827437 95.157853 
L 365.913238 90.192397 
L 366.999039 98.581979 
L 368.08484 71.549626 
L 369.170642 112.782953 
L 370.256443 125.886527 
L 371.342244 76.983646 
L 372.428045 59.383245 
L 373.513846 80.129865 
L 374.599647 88.595416 
L 375.685448 103.359544 
L 376.77125 73.171292 
L 377.857051 99.94996 
L 378.942852 75.022791 
L 380.028653 84.962104 
L 381.114454 75.807018 
L 382.200255 109.077311 
L 383.286057 97.751387 
L 384.371858 108.454955 
L 385.457659 95.836932 
L 386.54346 94.767423 
L 387.629261 86.994379 
L 388.715062 69.786979 
L 389.800863 88.254132 
L 391.972466 110.396642 
L 393.058267 92.923507 
L 394.144068 78.69243 
L 395.229869 109.780656 
L 396.31567 126.294462 
L 397.401472 81.986526 
L 398.487273 79.484477 
L 398.487273 79.484477 
" style="fill:none;stroke:#008000;stroke-dasharray:9.6,2.4,1.5,2.4;stroke-dashoffset:0;stroke-width:1.5;"/>
   </g>
   <g id="line2d_32">
    <path clip-path="url(#p6c99a9838d)" d="M 73.832727 289.651125 
L 74.918528 283.184107 
L 76.00433 281.470485 
L 77.090131 269.222839 
L 78.175932 243.941625 
L 80.347534 213.65062 
L 81.433335 199.999956 
L 82.519137 196.42773 
L 83.604938 195.093314 
L 84.690739 187.078346 
L 85.77654 197.07525 
L 86.862341 190.077623 
L 87.948142 180.303887 
L 89.033943 194.363924 
L 90.119745 178.919006 
L 91.205546 171.478248 
L 92.291347 162.471567 
L 93.377148 134.79894 
L 94.462949 136.732053 
L 95.54875 100.021275 
L 96.634552 121.718242 
L 97.720353 136.171342 
L 98.806154 145.10134 
L 99.891955 93.329177 
L 100.977756 86.64147 
L 102.063557 122.371982 
L 103.149358 136.291593 
L 104.23516 131.066735 
L 105.320961 103.37394 
L 106.406762 108.260277 
L 107.492563 105.998211 
L 108.578364 121.14107 
L 109.664165 114.843345 
L 110.749967 112.099866 
L 111.835768 118.171766 
L 112.921569 112.685588 
L 114.00737 97.616737 
L 115.093171 110.471473 
L 116.178972 116.507406 
L 117.264773 108.711426 
L 118.350575 117.184564 
L 119.436376 113.189979 
L 120.522177 111.246952 
L 121.607978 113.48069 
L 122.693779 103.355568 
L 123.77958 98.090046 
L 124.865382 112.730911 
L 125.951183 124.957244 
L 127.036984 125.084802 
L 128.122785 128.99113 
L 129.208586 104.076964 
L 130.294387 108.83451 
L 131.380189 94.274879 
L 132.46599 102.944219 
L 133.551791 93.074793 
L 134.637592 118.18128 
L 135.723393 110.783907 
L 136.809194 125.578856 
L 137.894995 110.987012 
L 138.980797 118.688606 
L 140.066598 96.186004 
L 141.152399 116.334907 
L 142.2382 120.305183 
L 143.324001 101.192559 
L 144.409802 95.131183 
L 145.495604 96.89702 
L 146.581405 131.205974 
L 147.667206 105.48098 
L 148.753007 124.685026 
L 149.838808 116.694142 
L 150.924609 135.135475 
L 152.01041 112.074275 
L 153.096212 99.624579 
L 154.182013 118.78535 
L 155.267814 94.134652 
L 156.353615 97.156763 
L 157.439416 133.631891 
L 158.525217 91.935432 
L 159.611019 109.069312 
L 160.69682 107.92875 
L 161.782621 123.584063 
L 162.868422 130.926005 
L 163.954223 133.797596 
L 166.125825 117.30561 
L 167.211627 112.788133 
L 168.297428 110.919644 
L 169.383229 110.788406 
L 170.46903 97.053667 
L 171.554831 92.145449 
L 172.640632 105.60906 
L 173.726434 86.131249 
L 174.812235 96.603184 
L 175.898036 80.718646 
L 176.983837 97.746103 
L 178.069638 88.464489 
L 179.155439 83.755694 
L 180.24124 87.13341 
L 181.327042 78.445919 
L 182.412843 71.494162 
L 183.498644 105.273545 
L 184.584445 72.13817 
L 185.670246 101.820463 
L 186.756047 81.712512 
L 187.841849 99.334873 
L 188.92765 102.081763 
L 190.013451 108.190122 
L 191.099252 88.732091 
L 192.185053 76.828107 
L 193.270854 105.12793 
L 194.356656 116.425249 
L 195.442457 100.620211 
L 196.528258 109.181205 
L 197.614059 86.784301 
L 198.69986 111.747731 
L 199.785661 79.333284 
L 200.871462 87.374848 
L 201.957264 74.716003 
L 203.043065 97.612327 
L 204.128866 106.905612 
L 205.214667 76.989366 
L 206.300468 114.633787 
L 207.386269 67.140396 
L 208.472071 69.907621 
L 209.557872 100.744752 
L 210.643673 102.408706 
L 211.729474 91.377107 
L 212.815275 69.573506 
L 213.901076 68.59033 
L 214.986877 77.630698 
L 216.072679 100.390964 
L 217.15848 94.165526 
L 218.244281 93.256943 
L 219.330082 82.794983 
L 220.415883 77.654994 
L 221.501684 93.192438 
L 222.587486 84.921597 
L 223.673287 54.993043 
L 224.759088 70.614475 
L 225.844889 123.862962 
L 226.93069 107.277007 
L 228.016491 81.606734 
L 229.102292 60.096299 
L 230.188094 74.871922 
L 231.273895 85.701608 
L 232.359696 91.247273 
L 233.445497 102.925145 
L 234.531298 106.583881 
L 235.617099 100.847285 
L 236.702901 92.144397 
L 237.788702 111.414412 
L 238.874503 101.519362 
L 239.960304 99.035897 
L 241.046105 103.725049 
L 242.131906 113.140314 
L 243.217708 76.899017 
L 244.303509 92.603816 
L 245.38931 77.40248 
L 246.475111 86.759332 
L 247.560912 74.429646 
L 248.646713 122.378201 
L 249.732514 107.406866 
L 250.818316 85.071015 
L 251.904117 118.44189 
L 252.989918 107.583727 
L 254.075719 101.909836 
L 255.16152 57.69868 
L 256.247321 74.53597 
L 257.333123 80.874215 
L 258.418924 98.785453 
L 259.504725 89.300573 
L 260.590526 101.497636 
L 261.676327 99.193675 
L 262.762128 97.782252 
L 263.847929 118.066547 
L 264.933731 103.929533 
L 266.019532 126.830874 
L 267.105333 117.77135 
L 268.191134 101.223879 
L 269.276935 95.51501 
L 270.362736 118.53926 
L 271.448538 123.64699 
L 272.534339 118.154157 
L 273.62014 115.613387 
L 274.705941 107.244623 
L 275.791742 109.241506 
L 276.877543 118.054758 
L 277.963344 84.976005 
L 279.049146 95.986813 
L 280.134947 113.140906 
L 281.220748 109.209236 
L 282.306549 99.036115 
L 283.39235 86.155513 
L 284.478151 107.558038 
L 285.563953 110.470321 
L 286.649754 104.072913 
L 287.735555 107.007126 
L 288.821356 121.672855 
L 289.907157 133.734621 
L 290.992958 101.178371 
L 292.07876 100.815704 
L 293.164561 96.387374 
L 294.250362 105.995862 
L 295.336163 69.882781 
L 296.421964 127.65974 
L 297.507765 128.441703 
L 298.593566 112.847214 
L 299.679368 88.045265 
L 300.765169 70.498194 
L 301.85097 116.535795 
L 302.936771 92.622661 
L 304.022572 105.869688 
L 305.108373 88.031082 
L 306.194175 100.109472 
L 307.279976 104.887501 
L 308.365777 90.24406 
L 309.451578 91.066658 
L 310.537379 105.265877 
L 311.62318 98.356328 
L 312.708981 95.380753 
L 313.794783 89.558678 
L 314.880584 94.619323 
L 315.966385 86.756924 
L 317.052186 79.795303 
L 318.137987 107.144215 
L 319.223788 62.84266 
L 320.30959 100.065433 
L 321.395391 81.115563 
L 322.481192 97.064151 
L 323.566993 82.492003 
L 324.652794 119.677856 
L 325.738595 63.078192 
L 326.824396 72.077089 
L 327.910198 104.929813 
L 328.995999 98.287262 
L 330.0818 117.497451 
L 331.167601 100.010309 
L 332.253402 105.643064 
L 333.339203 91.373494 
L 334.425005 84.823314 
L 335.510806 84.015753 
L 336.596607 67.628434 
L 337.682408 71.693587 
L 338.768209 84.501707 
L 339.85401 93.732865 
L 340.939811 81.902031 
L 342.025613 94.971626 
L 343.111414 96.393151 
L 344.197215 92.426982 
L 345.283016 94.80023 
L 346.368817 71.418257 
L 347.454618 87.129193 
L 348.54042 106.183335 
L 349.626221 84.420494 
L 350.712022 102.595086 
L 351.797823 103.799437 
L 352.883624 86.742165 
L 353.969425 101.943148 
L 355.055227 114.623681 
L 356.141028 82.163537 
L 357.226829 118.775022 
L 358.31263 84.712095 
L 359.398431 94.176802 
L 360.484232 95.561958 
L 361.570033 91.341648 
L 362.655835 79.756758 
L 363.741636 81.598589 
L 364.827437 83.127331 
L 365.913238 83.120482 
L 366.999039 95.086982 
L 368.08484 62.689694 
L 369.170642 104.142981 
L 370.256443 113.792719 
L 371.342244 79.409023 
L 372.428045 64.817123 
L 373.513846 69.99182 
L 374.599647 87.35129 
L 375.685448 97.267869 
L 376.77125 76.788611 
L 377.857051 94.855414 
L 378.942852 63.409278 
L 380.028653 80.399073 
L 381.114454 73.041017 
L 382.200255 100.249734 
L 383.286057 89.673927 
L 384.371858 111.998299 
L 385.457659 90.937598 
L 387.629261 78.964719 
L 388.715062 61.17919 
L 389.800863 74.537839 
L 390.886665 90.186303 
L 391.972466 101.783993 
L 393.058267 87.171248 
L 394.144068 75.761955 
L 395.229869 111.496517 
L 396.31567 120.283145 
L 397.401472 95.148171 
L 398.487273 61.152202 
L 398.487273 61.152202 
" style="fill:none;stroke:#ff0000;stroke-linecap:square;stroke-width:1.5;"/>
   </g>
   <g id="patch_3">
    <path d="M 57.6 307.584 
L 57.6 41.472 
" style="fill:none;stroke:#000000;stroke-linecap:square;stroke-linejoin:miter;stroke-width:0.8;"/>
   </g>
   <g id="patch_4">
    <path d="M 414.72 307.584 
L 414.72 41.472 
" style="fill:none;stroke:#000000;stroke-linecap:square;stroke-linejoin:miter;stroke-width:0.8;"/>
   </g>
   <g id="patch_5">
    <path d="M 57.6 307.584 
L 414.72 307.584 
" style="fill:none;stroke:#000000;stroke-linecap:square;stroke-linejoin:miter;stroke-width:0.8;"/>
   </g>
   <g id="patch_6">
    <path d="M 57.6 41.472 
L 414.72 41.472 
" style="fill:none;stroke:#000000;stroke-linecap:square;stroke-linejoin:miter;stroke-width:0.8;"/>
   </g>
   <g id="text_17">
    <!-- Population's average and best fitness -->
    <defs>
     <path d="M 19.671875 64.796875 
L 19.671875 37.40625 
L 32.078125 37.40625 
Q 38.96875 37.40625 42.71875 40.96875 
Q 46.484375 44.53125 46.484375 51.125 
Q 46.484375 57.671875 42.71875 61.234375 
Q 38.96875 64.796875 32.078125 64.796875 
z
M 9.8125 72.90625 
L 32.078125 72.90625 
Q 44.34375 72.90625 50.609375 67.359375 
Q 56.890625 61.8125 56.890625 51.125 
Q 56.890625 40.328125 50.609375 34.8125 
Q 44.34375 29.296875 32.078125 29.296875 
L 19.671875 29.296875 
L 19.671875 0 
L 9.8125 0 
z
" id="DejaVuSans-80"/>
     <path d="M 18.109375 8.203125 
L 18.109375 -20.796875 
L 9.078125 -20.796875 
L 9.078125 54.6875 
L 18.109375 54.6875 
L 18.109375 46.390625 
Q 20.953125 51.265625 25.265625 53.625 
Q 29.59375 56 35.59375 56 
Q 45.5625 56 51.78125 48.09375 
Q 58.015625 40.1875 58.015625 27.296875 
Q 58.015625 14.40625 51.78125 6.484375 
Q 45.5625 -1.421875 35.59375 -1.421875 
Q 29.59375 -1.421875 25.265625 0.953125 
Q 20.953125 3.328125 18.109375 8.203125 
z
M 48.6875 27.296875 
Q 48.6875 37.203125 44.609375 42.84375 
Q 40.53125 48.484375 33.40625 48.484375 
Q 26.265625 48.484375 22.1875 42.84375 
Q 18.109375 37.203125 18.109375 27.296875 
Q 18.109375 17.390625 22.1875 11.75 
Q 26.265625 6.109375 33.40625 6.109375 
Q 40.53125 6.109375 44.609375 11.75 
Q 48.6875 17.390625 48.6875 27.296875 
z
" id="DejaVuSans-112"/>
     <path d="M 8.5 21.578125 
L 8.5 54.6875 
L 17.484375 54.6875 
L 17.484375 21.921875 
Q 17.484375 14.15625 20.5 10.265625 
Q 23.53125 6.390625 29.59375 6.390625 
Q 36.859375 6.390625 41.078125 11.03125 
Q 45.3125 15.671875 45.3125 23.6875 
L 45.3125 54.6875 
L 54.296875 54.6875 
L 54.296875 0 
L 45.3125 0 
L 45.3125 8.40625 
Q 42.046875 3.421875 37.71875 1 
Q 33.40625 -1.421875 27.6875 -1.421875 
Q 18.265625 -1.421875 13.375 4.4375 
Q 8.5 10.296875 8.5 21.578125 
z
M 31.109375 56 
z
" id="DejaVuSans-117"/>
     <path d="M 9.421875 75.984375 
L 18.40625 75.984375 
L 18.40625 0 
L 9.421875 0 
z
" id="DejaVuSans-108"/>
     <path d="M 17.921875 72.90625 
L 17.921875 45.796875 
L 9.625 45.796875 
L 9.625 72.90625 
z
" id="DejaVuSans-39"/>
     <path id="DejaVuSans-32"/>
     <path d="M 2.984375 54.6875 
L 12.5 54.6875 
L 29.59375 8.796875 
L 46.6875 54.6875 
L 56.203125 54.6875 
L 35.6875 0 
L 23.484375 0 
z
" id="DejaVuSans-118"/>
     <path d="M 45.40625 27.984375 
Q 45.40625 37.75 41.375 43.109375 
Q 37.359375 48.484375 30.078125 48.484375 
Q 22.859375 48.484375 18.828125 43.109375 
Q 14.796875 37.75 14.796875 27.984375 
Q 14.796875 18.265625 18.828125 12.890625 
Q 22.859375 7.515625 30.078125 7.515625 
Q 37.359375 7.515625 41.375 12.890625 
Q 45.40625 18.265625 45.40625 27.984375 
z
M 54.390625 6.78125 
Q 54.390625 -7.171875 48.1875 -13.984375 
Q 42 -20.796875 29.203125 -20.796875 
Q 24.46875 -20.796875 20.265625 -20.09375 
Q 16.0625 -19.390625 12.109375 -17.921875 
L 12.109375 -9.1875 
Q 16.0625 -11.328125 19.921875 -12.34375 
Q 23.78125 -13.375 27.78125 -13.375 
Q 36.625 -13.375 41.015625 -8.765625 
Q 45.40625 -4.15625 45.40625 5.171875 
L 45.40625 9.625 
Q 42.625 4.78125 38.28125 2.390625 
Q 33.9375 0 27.875 0 
Q 17.828125 0 11.671875 7.65625 
Q 5.515625 15.328125 5.515625 27.984375 
Q 5.515625 40.671875 11.671875 48.328125 
Q 17.828125 56 27.875 56 
Q 33.9375 56 38.28125 53.609375 
Q 42.625 51.21875 45.40625 46.390625 
L 45.40625 54.6875 
L 54.390625 54.6875 
z
" id="DejaVuSans-103"/>
     <path d="M 45.40625 46.390625 
L 45.40625 75.984375 
L 54.390625 75.984375 
L 54.390625 0 
L 45.40625 0 
L 45.40625 8.203125 
Q 42.578125 3.328125 38.25 0.953125 
Q 33.9375 -1.421875 27.875 -1.421875 
Q 17.96875 -1.421875 11.734375 6.484375 
Q 5.515625 14.40625 5.515625 27.296875 
Q 5.515625 40.1875 11.734375 48.09375 
Q 17.96875 56 27.875 56 
Q 33.9375 56 38.25 53.625 
Q 42.578125 51.265625 45.40625 46.390625 
z
M 14.796875 27.296875 
Q 14.796875 17.390625 18.875 11.75 
Q 22.953125 6.109375 30.078125 6.109375 
Q 37.203125 6.109375 41.296875 11.75 
Q 45.40625 17.390625 45.40625 27.296875 
Q 45.40625 37.203125 41.296875 42.84375 
Q 37.203125 48.484375 30.078125 48.484375 
Q 22.953125 48.484375 18.875 42.84375 
Q 14.796875 37.203125 14.796875 27.296875 
z
" id="DejaVuSans-100"/>
     <path d="M 48.6875 27.296875 
Q 48.6875 37.203125 44.609375 42.84375 
Q 40.53125 48.484375 33.40625 48.484375 
Q 26.265625 48.484375 22.1875 42.84375 
Q 18.109375 37.203125 18.109375 27.296875 
Q 18.109375 17.390625 22.1875 11.75 
Q 26.265625 6.109375 33.40625 6.109375 
Q 40.53125 6.109375 44.609375 11.75 
Q 48.6875 17.390625 48.6875 27.296875 
z
M 18.109375 46.390625 
Q 20.953125 51.265625 25.265625 53.625 
Q 29.59375 56 35.59375 56 
Q 45.5625 56 51.78125 48.09375 
Q 58.015625 40.1875 58.015625 27.296875 
Q 58.015625 14.40625 51.78125 6.484375 
Q 45.5625 -1.421875 35.59375 -1.421875 
Q 29.59375 -1.421875 25.265625 0.953125 
Q 20.953125 3.328125 18.109375 8.203125 
L 18.109375 0 
L 9.078125 0 
L 9.078125 75.984375 
L 18.109375 75.984375 
z
" id="DejaVuSans-98"/>
     <path d="M 37.109375 75.984375 
L 37.109375 68.5 
L 28.515625 68.5 
Q 23.6875 68.5 21.796875 66.546875 
Q 19.921875 64.59375 19.921875 59.515625 
L 19.921875 54.6875 
L 34.71875 54.6875 
L 34.71875 47.703125 
L 19.921875 47.703125 
L 19.921875 0 
L 10.890625 0 
L 10.890625 47.703125 
L 2.296875 47.703125 
L 2.296875 54.6875 
L 10.890625 54.6875 
L 10.890625 58.5 
Q 10.890625 67.625 15.140625 71.796875 
Q 19.390625 75.984375 28.609375 75.984375 
z
" id="DejaVuSans-102"/>
    </defs>
    <g transform="translate(123.315 35.472)scale(0.12 -0.12)">
     <use xlink:href="#DejaVuSans-80"/>
     <use x="60.255859" xlink:href="#DejaVuSans-111"/>
     <use x="121.4375" xlink:href="#DejaVuSans-112"/>
     <use x="184.914062" xlink:href="#DejaVuSans-117"/>
     <use x="248.292969" xlink:href="#DejaVuSans-108"/>
     <use x="276.076172" xlink:href="#DejaVuSans-97"/>
     <use x="337.355469" xlink:href="#DejaVuSans-116"/>
     <use x="376.564453" xlink:href="#DejaVuSans-105"/>
     <use x="404.347656" xlink:href="#DejaVuSans-111"/>
     <use x="465.529297" xlink:href="#DejaVuSans-110"/>
     <use x="528.908203" xlink:href="#DejaVuSans-39"/>
     <use x="556.398438" xlink:href="#DejaVuSans-115"/>
     <use x="608.498047" xlink:href="#DejaVuSans-32"/>
     <use x="640.285156" xlink:href="#DejaVuSans-97"/>
     <use x="701.564453" xlink:href="#DejaVuSans-118"/>
     <use x="760.744141" xlink:href="#DejaVuSans-101"/>
     <use x="822.267578" xlink:href="#DejaVuSans-114"/>
     <use x="863.380859" xlink:href="#DejaVuSans-97"/>
     <use x="924.660156" xlink:href="#DejaVuSans-103"/>
     <use x="988.136719" xlink:href="#DejaVuSans-101"/>
     <use x="1049.660156" xlink:href="#DejaVuSans-32"/>
     <use x="1081.447266" xlink:href="#DejaVuSans-97"/>
     <use x="1142.726562" xlink:href="#DejaVuSans-110"/>
     <use x="1206.105469" xlink:href="#DejaVuSans-100"/>
     <use x="1269.582031" xlink:href="#DejaVuSans-32"/>
     <use x="1301.369141" xlink:href="#DejaVuSans-98"/>
     <use x="1364.845703" xlink:href="#DejaVuSans-101"/>
     <use x="1426.369141" xlink:href="#DejaVuSans-115"/>
     <use x="1478.46875" xlink:href="#DejaVuSans-116"/>
     <use x="1517.677734" xlink:href="#DejaVuSans-32"/>
     <use x="1549.464844" xlink:href="#DejaVuSans-102"/>
     <use x="1584.669922" xlink:href="#DejaVuSans-105"/>
     <use x="1612.453125" xlink:href="#DejaVuSans-116"/>
     <use x="1651.662109" xlink:href="#DejaVuSans-110"/>
     <use x="1715.041016" xlink:href="#DejaVuSans-101"/>
     <use x="1776.564453" xlink:href="#DejaVuSans-115"/>
     <use x="1828.664062" xlink:href="#DejaVuSans-115"/>
    </g>
   </g>
   <g id="legend_1">
    <g id="patch_7">
     <path d="M 199.689687 302.584 
L 272.630313 302.584 
Q 274.630313 302.584 274.630313 300.584 
L 274.630313 242.8715 
Q 274.630313 240.8715 272.630313 240.8715 
L 199.689687 240.8715 
Q 197.689687 240.8715 197.689687 242.8715 
L 197.689687 300.584 
Q 197.689687 302.584 199.689687 302.584 
z
" style="fill:#ffffff;opacity:0.8;stroke:#cccccc;stroke-linejoin:miter;"/>
    </g>
    <g id="line2d_33">
     <path d="M 201.689687 248.969937 
L 221.689687 248.969937 
" style="fill:none;stroke:#0000ff;stroke-linecap:square;stroke-width:1.5;"/>
    </g>
    <g id="line2d_34"/>
    <g id="text_18">
     <!-- average -->
     <g transform="translate(229.689687 252.469937)scale(0.1 -0.1)">
      <use xlink:href="#DejaVuSans-97"/>
      <use x="61.279297" xlink:href="#DejaVuSans-118"/>
      <use x="120.458984" xlink:href="#DejaVuSans-101"/>
      <use x="181.982422" xlink:href="#DejaVuSans-114"/>
      <use x="223.095703" xlink:href="#DejaVuSans-97"/>
      <use x="284.375" xlink:href="#DejaVuSans-103"/>
      <use x="347.851562" xlink:href="#DejaVuSans-101"/>
     </g>
    </g>
    <g id="line2d_35">
     <path d="M 201.689687 263.648062 
L 221.689687 263.648062 
" style="fill:none;stroke:#008000;stroke-dasharray:9.6,2.4,1.5,2.4;stroke-dashoffset:0;stroke-width:1.5;"/>
    </g>
    <g id="line2d_36"/>
    <g id="text_19">
     <!-- -1 sd -->
     <defs>
      <path d="M 4.890625 31.390625 
L 31.203125 31.390625 
L 31.203125 23.390625 
L 4.890625 23.390625 
z
" id="DejaVuSans-45"/>
     </defs>
     <g transform="translate(229.689687 267.148062)scale(0.1 -0.1)">
      <use xlink:href="#DejaVuSans-45"/>
      <use x="36.083984" xlink:href="#DejaVuSans-49"/>
      <use x="99.707031" xlink:href="#DejaVuSans-32"/>
      <use x="131.494141" xlink:href="#DejaVuSans-115"/>
      <use x="183.59375" xlink:href="#DejaVuSans-100"/>
     </g>
    </g>
    <g id="line2d_37">
     <path d="M 201.689687 278.326187 
L 221.689687 278.326187 
" style="fill:none;stroke:#008000;stroke-dasharray:9.6,2.4,1.5,2.4;stroke-dashoffset:0;stroke-width:1.5;"/>
    </g>
    <g id="line2d_38"/>
    <g id="text_20">
     <!-- +1 sd -->
     <defs>
      <path d="M 46 62.703125 
L 46 35.5 
L 73.1875 35.5 
L 73.1875 27.203125 
L 46 27.203125 
L 46 0 
L 37.796875 0 
L 37.796875 27.203125 
L 10.59375 27.203125 
L 10.59375 35.5 
L 37.796875 35.5 
L 37.796875 62.703125 
z
" id="DejaVuSans-43"/>
     </defs>
     <g transform="translate(229.689687 281.826187)scale(0.1 -0.1)">
      <use xlink:href="#DejaVuSans-43"/>
      <use x="83.789062" xlink:href="#DejaVuSans-49"/>
      <use x="147.412109" xlink:href="#DejaVuSans-32"/>
      <use x="179.199219" xlink:href="#DejaVuSans-115"/>
      <use x="231.298828" xlink:href="#DejaVuSans-100"/>
     </g>
    </g>
    <g id="line2d_39">
     <path d="M 201.689687 293.004312 
L 221.689687 293.004312 
" style="fill:none;stroke:#ff0000;stroke-linecap:square;stroke-width:1.5;"/>
    </g>
    <g id="line2d_40"/>
    <g id="text_21">
     <!-- best -->
     <g transform="translate(229.689687 296.504312)scale(0.1 -0.1)">
      <use xlink:href="#DejaVuSans-98"/>
      <use x="63.476562" xlink:href="#DejaVuSans-101"/>
      <use x="125" xlink:href="#DejaVuSans-115"/>
      <use x="177.099609" xlink:href="#DejaVuSans-116"/>
     </g>
    </g>
   </g>
  </g>
 </g>
 <defs>
  <clipPath id="p6c99a9838d">
   <rect height="266.112" width="357.12" x="57.6" y="41.472"/>
  </clipPath>
 </defs>
</svg>
