<?xml version="1.0" encoding="UTF-8" standalone="no"?>
<!DOCTYPE svg PUBLIC "-//W3C//DTD SVG 1.1//EN"
 "http://www.w3.org/Graphics/SVG/1.1/DTD/svg11.dtd">
<!-- Generated by graphviz version 2.40.1 (20161225.0304)
 -->
<!-- Title: %3 Pages: 1 -->
<svg width="486pt" height="259pt"
 viewBox="0.00 0.00 485.56 258.87" xmlns="http://www.w3.org/2000/svg" xmlns:xlink="http://www.w3.org/1999/xlink">
<g id="graph0" class="graph" transform="scale(1 1) rotate(0) translate(4 254.8726)">
<title>%3</title>
<polygon fill="#ffffff" stroke="transparent" points="-4,4 -4,-254.8726 481.564,-254.8726 481.564,4 -4,4"/>
<!-- E0 -->
<g id="node1" class="node">
<title>E0</title>
<polygon fill="#d3d3d3" stroke="#000000" points="45.5199,-250.8726 19.5248,-250.8726 19.5248,-233.8726 45.5199,-233.8726 45.5199,-250.8726"/>
<text text-anchor="middle" x="32.5223" y="-239.6726" font-family="Times,serif" font-size="9.00" fill="#000000">E0</text>
</g>
<!-- E1 -->
<g id="node2" class="node">
<title>E1</title>
<polygon fill="#d3d3d3" stroke="#000000" points="89.5199,-250.8726 63.5248,-250.8726 63.5248,-233.8726 89.5199,-233.8726 89.5199,-250.8726"/>
<text text-anchor="middle" x="76.5223" y="-239.6726" font-family="Times,serif" font-size="9.00" fill="#000000">E1</text>
</g>
<!-- E0&#45;&gt;E1 -->
<!-- 0 -->
<g id="node10" class="node">
<title>0</title>
<ellipse fill="#87cefa" stroke="#000000" cx="174.5223" cy="-14.853" rx="14.4914" ry="14.4914"/>
<text text-anchor="middle" x="174.5223" y="-12.153" font-family="Times,serif" font-size="9.00" fill="#000000">0</text>
</g>
<!-- E0&#45;&gt;0 -->
<g id="edge17" class="edge">
<title>E0&#45;&gt;0</title>
<path fill="none" stroke="#ff0000" stroke-width=".1076" d="M28.1309,-233.582C14.9519,-205.8213 -21.0401,-118.7315 17.5223,-65.7061 33.3057,-44.0031 110.0549,-26.8331 150.0966,-19.1828"/>
<polygon fill="#ff0000" stroke="#ff0000" stroke-width=".1076" points="150.9169,-22.5904 160.1093,-17.3225 149.6382,-15.7082 150.9169,-22.5904"/>
</g>
<!-- 1 -->
<g id="node11" class="node">
<title>1</title>
<ellipse fill="#87cefa" stroke="#000000" cx="221.5223" cy="-14.853" rx="14.4914" ry="14.4914"/>
<text text-anchor="middle" x="221.5223" y="-12.153" font-family="Times,serif" font-size="9.00" fill="#000000">1</text>
</g>
<!-- E0&#45;&gt;1 -->
<g id="edge23" class="edge">
<title>E0&#45;&gt;1</title>
<path fill="none" stroke="#00ff00" stroke-width=".3824" d="M32.0595,-233.5802C31.0635,-205.0596 31.932,-114.1646 79.5223,-65.7061 117.9416,-26.586 147.5727,-52.3214 197.5223,-29.7061 198.3816,-29.317 199.2474,-28.9025 200.1138,-28.4685"/>
<polygon fill="#00ff00" stroke="#00ff00" stroke-width=".3824" points="202.1778,-31.3221 209.1556,-23.3496 198.7291,-25.2305 202.1778,-31.3221"/>
</g>
<!-- 2 -->
<g id="node12" class="node">
<title>2</title>
<ellipse fill="#87cefa" stroke="#000000" cx="268.5223" cy="-14.853" rx="14.4914" ry="14.4914"/>
<text text-anchor="middle" x="268.5223" y="-12.153" font-family="Times,serif" font-size="9.00" fill="#000000">2</text>
</g>
<!-- E0&#45;&gt;2 -->
<g id="edge14" class="edge">
<title>E0&#45;&gt;2</title>
<path fill="none" stroke="#ff0000" stroke-width="1.8149" d="M41.4856,-233.7314C76.3466,-200.1231 203.3001,-77.7316 250.6003,-32.1311"/>
<polygon fill="#ff0000" stroke="#ff0000" stroke-width="1.8149" points="253.2063,-34.4803 257.9764,-25.02 248.3479,-29.4408 253.2063,-34.4803"/>
</g>
<!-- E2 -->
<g id="node3" class="node">
<title>E2</title>
<polygon fill="#d3d3d3" stroke="#000000" points="133.5199,-250.8726 107.5248,-250.8726 107.5248,-233.8726 133.5199,-233.8726 133.5199,-250.8726"/>
<text text-anchor="middle" x="120.5223" y="-239.6726" font-family="Times,serif" font-size="9.00" fill="#000000">E2</text>
</g>
<!-- E1&#45;&gt;E2 -->
<!-- E3 -->
<g id="node4" class="node">
<title>E3</title>
<polygon fill="#d3d3d3" stroke="#000000" points="177.5199,-250.8726 151.5248,-250.8726 151.5248,-233.8726 177.5199,-233.8726 177.5199,-250.8726"/>
<text text-anchor="middle" x="164.5223" y="-239.6726" font-family="Times,serif" font-size="9.00" fill="#000000">E3</text>
</g>
<!-- E2&#45;&gt;E3 -->
<!-- E2&#45;&gt;1 -->
<g id="edge15" class="edge">
<title>E2&#45;&gt;1</title>
<path fill="none" stroke="#00ff00" stroke-width=".2047" d="M115.672,-233.658C101.0644,-206.1228 60.7533,-119.6289 98.5223,-65.7061 125.3821,-27.3583 155.3946,-50.1329 197.5223,-29.7061 198.3711,-29.2945 199.2279,-28.8609 200.0867,-28.4108"/>
<polygon fill="#00ff00" stroke="#00ff00" stroke-width=".2047" points="202.1792,-31.2445 209.0934,-23.2168 198.6821,-25.1806 202.1792,-31.2445"/>
</g>
<!-- 5567 -->
<g id="node16" class="node">
<title>5567</title>
<ellipse fill="#add8e6" stroke="#000000" cx="131.5223" cy="-89.7477" rx="24.0833" ry="24.0833"/>
<text text-anchor="middle" x="131.5223" y="-91.5477" font-family="Times,serif" font-size="9.00" fill="#000000">5567</text>
<text text-anchor="middle" x="131.5223" y="-82.5477" font-family="Times,serif" font-size="9.00" fill="#000000">sigm</text>
</g>
<!-- E2&#45;&gt;5567 -->
<g id="edge24" class="edge">
<title>E2&#45;&gt;5567</title>
<path fill="none" stroke="#00ff00" stroke-width=".3207" d="M121.1452,-233.7295C122.6385,-213.0101 126.4887,-159.5888 129.0559,-123.9699"/>
<polygon fill="#00ff00" stroke="#00ff00" stroke-width=".3207" points="132.5471,-124.2166 129.7751,-113.9909 125.5652,-123.7134 132.5471,-124.2166"/>
</g>
<!-- E4 -->
<g id="node5" class="node">
<title>E4</title>
<polygon fill="#d3d3d3" stroke="#000000" points="221.5199,-250.8726 195.5248,-250.8726 195.5248,-233.8726 221.5199,-233.8726 221.5199,-250.8726"/>
<text text-anchor="middle" x="208.5223" y="-239.6726" font-family="Times,serif" font-size="9.00" fill="#000000">E4</text>
</g>
<!-- E3&#45;&gt;E4 -->
<!-- E3&#45;&gt;0 -->
<g id="edge12" class="edge">
<title>E3&#45;&gt;0</title>
<path fill="none" stroke="#ff0000" stroke-width="2.833" d="M164.9021,-233.7314C166.3047,-201.8191 171.2257,-89.8582 173.4346,-39.6001"/>
<polygon fill="#ff0000" stroke="#ff0000" stroke-width="2.833" points="176.932,-39.7336 173.8746,-29.5895 169.9388,-39.4262 176.932,-39.7336"/>
</g>
<!-- E5 -->
<g id="node6" class="node">
<title>E5</title>
<polygon fill="#d3d3d3" stroke="#000000" points="265.5199,-250.8726 239.5248,-250.8726 239.5248,-233.8726 265.5199,-233.8726 265.5199,-250.8726"/>
<text text-anchor="middle" x="252.5223" y="-239.6726" font-family="Times,serif" font-size="9.00" fill="#000000">E5</text>
</g>
<!-- E4&#45;&gt;E5 -->
<!-- E6 -->
<g id="node7" class="node">
<title>E6</title>
<polygon fill="#d3d3d3" stroke="#000000" points="309.5199,-250.8726 283.5248,-250.8726 283.5248,-233.8726 309.5199,-233.8726 309.5199,-250.8726"/>
<text text-anchor="middle" x="296.5223" y="-239.6726" font-family="Times,serif" font-size="9.00" fill="#000000">E6</text>
</g>
<!-- E5&#45;&gt;E6 -->
<!-- 5307 -->
<g id="node18" class="node">
<title>5307</title>
<ellipse fill="#add8e6" stroke="#000000" cx="245.5223" cy="-173.831" rx="24.0833" ry="24.0833"/>
<text text-anchor="middle" x="245.5223" y="-175.631" font-family="Times,serif" font-size="9.00" fill="#000000">5307</text>
<text text-anchor="middle" x="245.5223" y="-166.631" font-family="Times,serif" font-size="9.00" fill="#000000">sigm</text>
</g>
<!-- E5&#45;&gt;5307 -->
<g id="edge21" class="edge">
<title>E5&#45;&gt;5307</title>
<path fill="none" stroke="#ff0000" stroke-width=".2529" d="M251.6358,-233.6918C250.9657,-227.1311 249.9988,-217.6636 249.0311,-208.1874"/>
<polygon fill="#ff0000" stroke="#ff0000" stroke-width=".2529" points="252.4925,-207.631 247.9946,-198.0384 245.5288,-208.3423 252.4925,-207.631"/>
</g>
<!-- E7 -->
<g id="node8" class="node">
<title>E7</title>
<polygon fill="#d3d3d3" stroke="#000000" points="353.5199,-250.8726 327.5248,-250.8726 327.5248,-233.8726 353.5199,-233.8726 353.5199,-250.8726"/>
<text text-anchor="middle" x="340.5223" y="-239.6726" font-family="Times,serif" font-size="9.00" fill="#000000">E7</text>
</g>
<!-- E6&#45;&gt;E7 -->
<!-- E6&#45;&gt;1 -->
<g id="edge16" class="edge">
<title>E6&#45;&gt;1</title>
<path fill="none" stroke="#00ff00" stroke-width=".6717" d="M295.297,-233.5836C292.8799,-217.0063 286.9875,-180.0672 278.5223,-149.7893 267.798,-111.4311 263.5054,-102.1877 247.5223,-65.7061 243.256,-55.9682 238.0026,-45.4669 233.3374,-36.5499"/>
<polygon fill="#00ff00" stroke="#00ff00" stroke-width=".6717" points="236.3667,-34.7919 228.5804,-27.6068 230.1865,-38.0792 236.3667,-34.7919"/>
</g>
<!-- E8 -->
<g id="node9" class="node">
<title>E8</title>
<polygon fill="#d3d3d3" stroke="#000000" points="397.5199,-250.8726 371.5248,-250.8726 371.5248,-233.8726 397.5199,-233.8726 397.5199,-250.8726"/>
<text text-anchor="middle" x="384.5223" y="-239.6726" font-family="Times,serif" font-size="9.00" fill="#000000">E8</text>
</g>
<!-- E7&#45;&gt;E8 -->
<!-- E7&#45;&gt;1 -->
<g id="edge13" class="edge">
<title>E7&#45;&gt;1</title>
<path fill="none" stroke="#00ff00" stroke-width="1.7338" d="M338.4706,-233.7027C331.8846,-207.0043 309.4647,-124.3007 271.5223,-65.7061 263.1323,-52.7493 251.0557,-40.3517 240.8731,-31.0415"/>
<polygon fill="#00ff00" stroke="#00ff00" stroke-width="1.7338" points="243.0327,-28.2793 233.2196,-24.2852 238.4001,-33.5271 243.0327,-28.2793"/>
</g>
<!-- 5300 -->
<g id="node17" class="node">
<title>5300</title>
<ellipse fill="#add8e6" stroke="#000000" cx="387.5223" cy="-173.831" rx="24.0833" ry="24.0833"/>
<text text-anchor="middle" x="387.5223" y="-175.631" font-family="Times,serif" font-size="9.00" fill="#000000">5300</text>
<text text-anchor="middle" x="387.5223" y="-166.631" font-family="Times,serif" font-size="9.00" fill="#000000">sigm</text>
</g>
<!-- E7&#45;&gt;5300 -->
<g id="edge19" class="edge">
<title>E7&#45;&gt;5300</title>
<path fill="none" stroke="#ff0000" stroke-width=".3805" d="M346.4749,-233.6918C351.9076,-225.769 360.2473,-213.6071 367.9939,-202.3099"/>
<polygon fill="#ff0000" stroke="#ff0000" stroke-width=".3805" points="370.9755,-204.1506 373.7443,-193.9239 365.2024,-200.1919 370.9755,-204.1506"/>
</g>
<!-- 0&#45;&gt;1 -->
<!-- 1&#45;&gt;2 -->
<!-- S -->
<g id="node13" class="node">
<title>S</title>
<ellipse fill="#87cefa" stroke="#000000" cx="384.5223" cy="-14.853" rx="14.7075" ry="14.7075"/>
<text text-anchor="middle" x="384.5223" y="-12.153" font-family="Times,serif" font-size="9.00" fill="#000000">S</text>
</g>
<!-- 2&#45;&gt;S -->
<!-- 4898 -->
<g id="node14" class="node">
<title>4898</title>
<ellipse fill="#add8e6" stroke="#000000" cx="387.5223" cy="-89.7477" rx="24.0833" ry="24.0833"/>
<text text-anchor="middle" x="387.5223" y="-91.5477" font-family="Times,serif" font-size="9.00" fill="#000000">4898</text>
<text text-anchor="middle" x="387.5223" y="-82.5477" font-family="Times,serif" font-size="9.00" fill="#000000">sigm</text>
</g>
<!-- 4898&#45;&gt;1 -->
<g id="edge18" class="edge">
<title>4898&#45;&gt;1</title>
<path fill="none" stroke="#ff0000" stroke-width=".5516" d="M367.5092,-75.8754C361.845,-72.2871 355.5716,-68.6183 349.5223,-65.7061 305.4504,-44.4891 289.6989,-50.7043 245.5223,-29.7061 244.6704,-29.3011 243.8109,-28.8731 242.9498,-28.4278"/>
<polygon fill="#ff0000" stroke="#ff0000" stroke-width=".5516" points="244.3484,-25.1952 233.9326,-23.2558 240.8656,-31.2672 244.3484,-25.1952"/>
</g>
<!-- 5606 -->
<g id="node15" class="node">
<title>5606</title>
<ellipse fill="#add8e6" stroke="#000000" cx="453.5223" cy="-89.7477" rx="24.0833" ry="24.0833"/>
<text text-anchor="middle" x="453.5223" y="-91.5477" font-family="Times,serif" font-size="9.00" fill="#000000">5606</text>
<text text-anchor="middle" x="453.5223" y="-82.5477" font-family="Times,serif" font-size="9.00" fill="#000000">sigm</text>
</g>
<!-- 5606&#45;&gt;S -->
<g id="edge27" class="edge">
<title>5606&#45;&gt;S</title>
<path fill="none" stroke="#00ff00" stroke-width=".1609" d="M437.1703,-71.9987C426.5497,-60.4708 412.7215,-45.4613 401.9023,-33.7177"/>
<polygon fill="#00ff00" stroke="#00ff00" stroke-width=".1609" points="404.319,-31.1754 394.9691,-26.1923 399.1708,-35.9184 404.319,-31.1754"/>
</g>
<!-- 5567&#45;&gt;1 -->
<g id="edge25" class="edge">
<title>5567&#45;&gt;1</title>
<path fill="none" stroke="#ff0000" stroke-width=".173" d="M150.1704,-74.2295C165.4621,-61.5042 187.0223,-43.5627 202.4331,-30.7384"/>
<polygon fill="#ff0000" stroke="#ff0000" stroke-width=".173" points="204.8352,-33.2928 210.283,-24.2059 200.3576,-27.9122 204.8352,-33.2928"/>
</g>
<!-- 5300&#45;&gt;4898 -->
<g id="edge20" class="edge">
<title>5300&#45;&gt;4898</title>
<path fill="none" stroke="#ff0000" stroke-width=".3168" d="M387.5223,-149.5106C387.5223,-141.5798 387.5223,-132.6191 387.5223,-124.0953"/>
<polygon fill="#ff0000" stroke="#ff0000" stroke-width=".3168" points="391.0224,-124.0134 387.5223,-114.0134 384.0224,-124.0135 391.0224,-124.0134"/>
</g>
<!-- 5307&#45;&gt;1 -->
<g id="edge22" class="edge">
<title>5307&#45;&gt;1</title>
<path fill="none" stroke="#ff0000" stroke-width=".4168" d="M241.9293,-150.0304C237.4338,-120.252 229.775,-69.5192 225.2276,-39.397"/>
<polygon fill="#ff0000" stroke="#ff0000" stroke-width=".4168" points="228.6582,-38.6743 223.7046,-29.3088 221.7367,-39.7193 228.6582,-38.6743"/>
</g>
<!-- 5307&#45;&gt;5606 -->
<g id="edge26" class="edge">
<title>5307&#45;&gt;5606</title>
<path fill="none" stroke="#ff0000" stroke-width=".1166" d="M269.0763,-168.1578C303.5567,-159.3273 369.2409,-140.4913 420.5223,-113.7893 422.3141,-112.8563 424.116,-111.8331 425.9035,-110.7513"/>
<polygon fill="#ff0000" stroke="#ff0000" stroke-width=".1166" points="428.1934,-113.4333 434.6076,-105.0007 424.3347,-107.5929 428.1934,-113.4333"/>
</g>
</g>
</svg>
