<?xml version="1.0" encoding="utf-8" standalone="no"?>
<!DOCTYPE svg PUBLIC "-//W3C//DTD SVG 1.1//EN"
  "http://www.w3.org/Graphics/SVG/1.1/DTD/svg11.dtd">
<!-- Created with matplotlib (https://matplotlib.org/) -->
<svg height="345.6pt" version="1.1" viewBox="0 0 460.8 345.6" width="460.8pt" xmlns="http://www.w3.org/2000/svg" xmlns:xlink="http://www.w3.org/1999/xlink">
 <defs>
  <style type="text/css">
*{stroke-linecap:butt;stroke-linejoin:round;}
  </style>
 </defs>
 <g id="figure_1">
  <g id="patch_1">
   <path d="M 0 345.6 
L 460.8 345.6 
L 460.8 0 
L 0 0 
z
" style="fill:#ffffff;"/>
  </g>
  <g id="axes_1">
   <g id="patch_2">
    <path d="M 57.6 307.584 
L 414.72 307.584 
L 414.72 41.472 
L 57.6 41.472 
z
" style="fill:#ffffff;"/>
   </g>
   <g id="PolyCollection_1">
    <path clip-path="url(#p793f818033)" d="M 73.832727 132.596717 
L 73.832727 142.585135 
L 74.918528 144.886971 
L 76.00433 145.753993 
L 77.090131 151.800381 
L 78.175932 157.125638 
L 79.261733 157.484637 
L 80.347534 159.395776 
L 81.433335 164.110346 
L 82.519137 164.435244 
L 83.604938 186.036923 
L 84.690739 181.066091 
L 85.77654 176.584596 
L 86.862341 161.266835 
L 87.948142 149.850274 
L 89.033943 160.377791 
L 90.119745 165.178799 
L 91.205546 160.638739 
L 92.291347 177.711364 
L 93.377148 163.269193 
L 94.462949 160.62054 
L 95.54875 166.00401 
L 96.634552 176.802844 
L 97.720353 148.581752 
L 98.806154 151.263651 
L 99.891955 147.646191 
L 100.977756 149.740552 
L 102.063557 145.203983 
L 103.149358 145.628492 
L 104.23516 146.071977 
L 105.320961 152.196467 
L 106.406762 148.145563 
L 107.492563 143.560256 
L 108.578364 145.315836 
L 109.664165 144.455346 
L 110.749967 148.613457 
L 111.835768 145.372051 
L 112.921569 145.997156 
L 114.00737 154.748324 
L 115.093171 144.902929 
L 116.178972 143.193269 
L 117.264773 145.269242 
L 118.350575 155.767069 
L 119.436376 150.48163 
L 120.522177 143.455388 
L 121.607978 139.674722 
L 122.693779 147.283471 
L 123.77958 151.120378 
L 124.865382 151.536191 
L 125.951183 158.821723 
L 127.036984 143.416279 
L 128.122785 145.744481 
L 129.208586 151.359233 
L 130.294387 145.304489 
L 131.380189 143.979373 
L 132.46599 140.162905 
L 133.551791 145.436568 
L 134.637592 144.631965 
L 135.723393 144.043875 
L 136.809194 147.201227 
L 137.894995 139.790494 
L 138.980797 141.862515 
L 140.066598 142.099901 
L 141.152399 142.100547 
L 142.2382 143.309863 
L 143.324001 147.886068 
L 144.409802 147.570673 
L 145.495604 138.478703 
L 146.581405 144.123377 
L 147.667206 142.891089 
L 148.753007 140.029001 
L 149.838808 144.439414 
L 150.924609 138.35945 
L 152.01041 148.304671 
L 153.096212 147.915993 
L 154.182013 146.415698 
L 155.267814 144.308317 
L 156.353615 146.945714 
L 157.439416 138.35945 
L 158.525217 143.582388 
L 159.611019 144.306905 
L 160.69682 151.967151 
L 161.782621 152.634347 
L 162.868422 138.35945 
L 163.954223 143.153873 
L 165.040024 143.106401 
L 166.125825 145.276315 
L 167.211627 142.091509 
L 168.297428 142.315184 
L 169.383229 141.563878 
L 170.46903 145.644307 
L 171.554831 142.567675 
L 172.640632 152.204734 
L 173.726434 144.75583 
L 174.812235 143.199537 
L 175.898036 152.751924 
L 176.983837 148.16717 
L 178.069638 145.107224 
L 179.155439 145.265302 
L 180.24124 142.403339 
L 181.327042 152.15967 
L 182.412843 144.282336 
L 183.498644 142.473773 
L 184.584445 138.666849 
L 185.670246 139.03373 
L 186.756047 139.856942 
L 187.841849 154.10567 
L 188.92765 146.675276 
L 190.013451 140.029001 
L 191.099252 141.872076 
L 192.185053 155.202591 
L 193.270854 144.62042 
L 194.356656 138.35945 
L 195.442457 138.35945 
L 196.528258 142.404108 
L 197.614059 140.851403 
L 198.69986 139.061721 
L 199.785661 139.697467 
L 200.871462 140.056121 
L 201.957264 139.680189 
L 203.043065 139.78026 
L 204.128866 138.35945 
L 205.214667 138.35945 
L 206.300468 138.880222 
L 207.386269 141.845758 
L 208.472071 140.370652 
L 209.557872 138.35945 
L 210.643673 142.847942 
L 211.729474 144.87865 
L 212.815275 144.891261 
L 213.901076 142.244688 
L 214.986877 149.11546 
L 216.072679 154.637885 
L 217.15848 156.626631 
L 218.244281 146.303202 
L 219.330082 144.331881 
L 220.415883 143.751362 
L 221.501684 155.009639 
L 222.587486 138.59107 
L 223.673287 138.592189 
L 224.759088 138.889466 
L 225.844889 143.954274 
L 226.93069 143.784278 
L 228.016491 148.807539 
L 229.102292 146.234454 
L 230.188094 138.35945 
L 231.273895 138.35945 
L 232.359696 138.35945 
L 233.445497 138.35945 
L 234.531298 150.674607 
L 235.617099 146.615495 
L 236.702901 150.847923 
L 237.788702 145.197816 
L 238.874503 142.937652 
L 239.960304 143.059076 
L 241.046105 139.306762 
L 242.131906 140.765933 
L 243.217708 141.028058 
L 244.303509 141.483323 
L 245.38931 148.515341 
L 246.475111 141.303522 
L 247.560912 142.771684 
L 248.646713 146.052039 
L 249.732514 144.654305 
L 250.818316 139.074972 
L 251.904117 138.35945 
L 252.989918 138.35945 
L 254.075719 138.35945 
L 255.16152 138.35945 
L 256.247321 142.334572 
L 257.333123 138.35945 
L 258.418924 143.353879 
L 259.504725 141.645551 
L 260.590526 150.994872 
L 261.676327 148.651012 
L 262.762128 138.35945 
L 263.847929 138.35945 
L 264.933731 143.55361 
L 266.019532 144.87865 
L 267.105333 142.851338 
L 268.191134 138.35945 
L 269.276935 142.016562 
L 270.362736 140.90876 
L 271.448538 145.058914 
L 272.534339 142.765239 
L 273.62014 141.150755 
L 274.705941 144.597563 
L 275.791742 146.261139 
L 276.877543 141.519361 
L 277.963344 141.432646 
L 279.049146 147.433653 
L 280.134947 150.176093 
L 281.220748 145.442716 
L 282.306549 142.258083 
L 283.39235 139.007523 
L 284.478151 154.01217 
L 285.563953 150.106345 
L 286.649754 138.35945 
L 287.735555 143.14933 
L 288.821356 138.995469 
L 289.907157 150.973934 
L 290.992958 138.35945 
L 292.07876 138.35945 
L 293.164561 139.164776 
L 294.250362 141.11734 
L 295.336163 143.932194 
L 296.421964 143.713929 
L 297.507765 146.864208 
L 298.593566 138.35945 
L 299.679368 145.143658 
L 300.765169 141.327541 
L 301.85097 138.35945 
L 302.936771 138.35945 
L 304.022572 138.35945 
L 305.108373 138.35945 
L 306.194175 138.35945 
L 307.279976 138.35945 
L 308.365777 138.35945 
L 309.451578 140.532517 
L 310.537379 138.35945 
L 311.62318 138.35945 
L 312.708981 138.35945 
L 313.794783 138.35945 
L 314.880584 145.84822 
L 315.966385 143.875547 
L 317.052186 146.268838 
L 318.137987 150.186577 
L 319.223788 147.264315 
L 320.30959 138.35945 
L 321.395391 143.074542 
L 322.481192 143.21124 
L 323.566993 144.741203 
L 324.652794 147.035945 
L 325.738595 146.01951 
L 326.824396 148.202394 
L 327.910198 145.428161 
L 328.995999 142.894871 
L 330.0818 145.53249 
L 331.167601 143.197333 
L 332.253402 145.089617 
L 333.339203 142.661785 
L 334.425005 140.283431 
L 335.510806 139.460652 
L 336.596607 143.606529 
L 337.682408 144.805124 
L 338.768209 139.782885 
L 339.85401 138.35945 
L 340.939811 138.35945 
L 342.025613 138.35945 
L 343.111414 137.188328 
L 344.197215 140.058388 
L 345.283016 139.750742 
L 346.368817 140.729728 
L 347.454618 138.478703 
L 348.54042 142.900423 
L 349.626221 142.334533 
L 350.712022 142.133046 
L 351.797823 143.460347 
L 352.883624 140.326894 
L 353.969425 141.266925 
L 355.055227 140.972742 
L 356.141028 140.270672 
L 357.226829 138.250393 
L 358.31263 138.35945 
L 359.398431 137.563087 
L 360.484232 138.125225 
L 361.570033 138.35945 
L 362.655835 138.35945 
L 363.741636 138.35945 
L 364.827437 138.35945 
L 365.913238 138.35945 
L 366.999039 138.35945 
L 368.08484 138.35945 
L 369.170642 138.35945 
L 370.256443 138.35945 
L 371.342244 138.35945 
L 372.428045 138.35945 
L 373.513846 138.35945 
L 374.599647 138.35945 
L 375.685448 138.35945 
L 376.77125 138.35945 
L 377.857051 138.518454 
L 378.942852 138.35945 
L 380.028653 138.35945 
L 381.114454 138.35945 
L 382.200255 138.35945 
L 383.286057 138.35945 
L 384.371858 138.35945 
L 385.457659 139.366481 
L 386.54346 138.35945 
L 387.629261 138.35945 
L 388.715062 138.35945 
L 389.800863 138.35945 
L 390.886665 138.35945 
L 391.972466 138.35945 
L 393.058267 142.970592 
L 394.144068 145.08783 
L 395.229869 138.35945 
L 396.31567 138.35945 
L 397.401472 138.35945 
L 398.487273 138.35945 
L 398.487273 138.35945 
L 398.487273 138.35945 
L 397.401472 138.35945 
L 396.31567 138.35945 
L 395.229869 138.35945 
L 394.144068 133.910139 
L 393.058267 134.901093 
L 391.972466 138.35945 
L 390.886665 138.35945 
L 389.800863 138.35945 
L 388.715062 138.35945 
L 387.629261 138.35945 
L 386.54346 138.35945 
L 385.457659 137.604176 
L 384.371858 138.35945 
L 383.286057 138.35945 
L 382.200255 138.35945 
L 381.114454 138.35945 
L 380.028653 138.35945 
L 378.942852 138.35945 
L 377.857051 138.147443 
L 376.77125 138.35945 
L 375.685448 138.35945 
L 374.599647 138.35945 
L 373.513846 138.35945 
L 372.428045 138.35945 
L 371.342244 138.35945 
L 370.256443 138.35945 
L 369.170642 138.35945 
L 368.08484 138.35945 
L 366.999039 138.35945 
L 365.913238 138.35945 
L 364.827437 138.35945 
L 363.741636 138.35945 
L 362.655835 138.35945 
L 361.570033 138.35945 
L 360.484232 136.719879 
L 359.398431 136.907258 
L 358.31263 138.35945 
L 357.226829 136.648248 
L 356.141028 136.660234 
L 355.055227 137.87147 
L 353.969425 135.809735 
L 352.883624 134.799279 
L 351.797823 132.956811 
L 350.712022 135.045026 
L 349.626221 133.364085 
L 348.54042 134.789298 
L 347.454618 138.200445 
L 346.368817 137.68155 
L 345.283016 136.968157 
L 344.197215 138.772705 
L 343.111414 137.188328 
L 342.025613 138.35945 
L 340.939811 138.35945 
L 339.85401 138.35945 
L 338.768209 139.140043 
L 337.682408 133.37132 
L 336.596607 132.887113 
L 335.510806 136.860735 
L 334.425005 135.812699 
L 333.339203 132.183319 
L 332.253402 134.279363 
L 331.167601 135.151367 
L 330.0818 135.423915 
L 328.995999 134.022785 
L 327.910198 134.190085 
L 326.824396 129.974051 
L 325.738595 133.296469 
L 324.652794 132.624544 
L 323.566993 132.673677 
L 322.481192 129.157777 
L 321.395391 132.854687 
L 320.30959 138.35945 
L 319.223788 120.55031 
L 318.137987 118.674831 
L 317.052186 123.718854 
L 315.966385 129.119988 
L 314.880584 125.756022 
L 313.794783 138.35945 
L 312.708981 138.35945 
L 311.62318 138.35945 
L 310.537379 138.35945 
L 309.451578 136.729649 
L 308.365777 138.35945 
L 307.279976 138.35945 
L 306.194175 138.35945 
L 305.108373 138.35945 
L 304.022572 138.35945 
L 302.936771 138.35945 
L 301.85097 138.35945 
L 300.765169 136.133381 
L 299.679368 133.271293 
L 298.593566 138.35945 
L 297.507765 129.337925 
L 296.421964 135.164787 
L 295.336163 132.866207 
L 294.250362 134.210267 
L 293.164561 137.024107 
L 292.07876 138.35945 
L 290.992958 138.35945 
L 289.907157 130.833122 
L 288.821356 137.882435 
L 287.735555 131.118244 
L 286.649754 138.35945 
L 285.563953 131.329699 
L 284.478151 131.558002 
L 283.39235 137.101858 
L 282.306549 127.398349 
L 281.220748 113.825396 
L 280.134947 111.450591 
L 279.049146 124.568101 
L 277.963344 129.906588 
L 276.877543 130.641398 
L 275.791742 127.145158 
L 274.705941 119.771956 
L 273.62014 125.073821 
L 272.534339 122.836568 
L 271.448538 135.250846 
L 270.362736 133.822578 
L 269.276935 133.483299 
L 268.191134 138.35945 
L 267.105333 132.370265 
L 266.019532 133.470049 
L 264.933731 134.46383 
L 263.847929 138.35945 
L 262.762128 138.35945 
L 261.676327 132.215265 
L 260.590526 131.474705 
L 259.504725 135.894874 
L 258.418924 133.98779 
L 257.333123 138.35945 
L 256.247321 135.378108 
L 255.16152 138.35945 
L 254.075719 138.35945 
L 252.989918 138.35945 
L 251.904117 138.35945 
L 250.818316 137.40542 
L 249.732514 130.209537 
L 248.646713 132.362912 
L 247.560912 134.649487 
L 246.475111 134.156588 
L 245.38931 129.303342 
L 244.303509 133.804532 
L 243.217708 133.902036 
L 242.131906 135.184443 
L 241.046105 136.908621 
L 239.960304 132.90455 
L 238.874503 131.899689 
L 237.788702 130.76581 
L 236.702901 120.703317 
L 235.617099 130.434664 
L 234.531298 130.21817 
L 233.445497 138.35945 
L 232.359696 138.35945 
L 231.273895 138.35945 
L 230.188094 138.35945 
L 229.102292 126.456321 
L 228.016491 126.334562 
L 226.93069 129.277508 
L 225.844889 129.96879 
L 224.759088 137.961937 
L 223.673287 138.232714 
L 222.587486 138.088078 
L 221.501684 129.845011 
L 220.415883 131.170205 
L 219.330082 133.659058 
L 218.244281 133.463291 
L 217.15848 124.950752 
L 216.072679 128.394444 
L 214.986877 125.589377 
L 213.901076 130.737596 
L 212.815275 127.475789 
L 211.729474 129.667182 
L 210.643673 133.780023 
L 209.557872 138.35945 
L 208.472071 135.645976 
L 207.386269 135.191151 
L 206.300468 137.692923 
L 205.214667 138.35945 
L 204.128866 138.35945 
L 203.043065 136.756771 
L 201.957264 137.316969 
L 200.871462 137.219295 
L 199.785661 136.74863 
L 198.69986 137.312667 
L 197.614059 135.244727 
L 196.528258 134.381043 
L 195.442457 138.35945 
L 194.356656 138.35945 
L 193.270854 128.21611 
L 192.185053 114.056328 
L 191.099252 133.150771 
L 190.013451 136.133381 
L 188.92765 133.19722 
L 187.841849 128.112148 
L 186.756047 137.166717 
L 185.670246 137.857425 
L 184.584445 137.932796 
L 183.498644 133.238096 
L 182.412843 125.122338 
L 181.327042 132.787732 
L 180.24124 137.164398 
L 179.155439 136.07799 
L 178.069638 136.421574 
L 176.983837 134.156651 
L 175.898036 131.320951 
L 174.812235 130.723526 
L 173.726434 130.876535 
L 172.640632 133.537693 
L 171.554831 133.833214 
L 170.46903 132.359882 
L 169.383229 133.962485 
L 168.297428 135.569751 
L 167.211627 133.925118 
L 166.125825 132.568869 
L 165.040024 135.507307 
L 163.954223 133.36627 
L 162.868422 138.35945 
L 161.782621 128.178928 
L 160.69682 125.692527 
L 159.611019 134.54531 
L 158.525217 134.792812 
L 157.439416 138.35945 
L 156.353615 131.919751 
L 155.267814 130.025508 
L 154.182013 132.317264 
L 153.096212 129.531679 
L 152.01041 132.36285 
L 150.924609 138.35945 
L 149.838808 133.763531 
L 148.753007 136.133381 
L 147.667206 132.317264 
L 146.581405 130.674213 
L 145.495604 138.200445 
L 144.409802 132.977594 
L 143.324001 133.430723 
L 142.2382 132.759767 
L 141.152399 134.419596 
L 140.066598 135.414023 
L 138.980797 135.518904 
L 137.894995 137.286167 
L 136.809194 123.541738 
L 135.723393 130.780216 
L 134.637592 134.313002 
L 133.551791 128.512996 
L 132.46599 137.152262 
L 131.380189 130.433956 
L 130.294387 133.759733 
L 129.208586 130.593578 
L 128.122785 133.94251 
L 127.036984 132.070332 
L 125.951183 127.159211 
L 124.865382 123.128895 
L 123.77958 117.608525 
L 122.693779 123.605248 
L 121.607978 137.401939 
L 120.522177 130.361672 
L 119.436376 127.89357 
L 118.350575 121.548099 
L 117.264773 128.150305 
L 116.178972 120.52698 
L 115.093171 125.707532 
L 114.00737 122.619845 
L 112.921569 125.646837 
L 111.835768 129.465291 
L 110.749967 129.099223 
L 109.664165 129.096706 
L 108.578364 127.149682 
L 107.492563 129.210021 
L 106.406762 130.706652 
L 105.320961 127.994039 
L 104.23516 129.176127 
L 103.149358 127.208037 
L 102.063557 131.673921 
L 100.977756 127.230105 
L 99.891955 129.059458 
L 98.806154 130.039889 
L 97.720353 121.697449 
L 96.634552 113.404971 
L 95.54875 123.501532 
L 94.462949 106.425561 
L 93.377148 117.451329 
L 92.291347 121.533228 
L 91.205546 120.982811 
L 90.119745 126.605814 
L 89.033943 125.8284 
L 87.948142 130.485987 
L 86.862341 109.953144 
L 85.77654 112.470433 
L 84.690739 113.116846 
L 83.604938 129.916434 
L 82.519137 134.146828 
L 81.433335 134.25972 
L 80.347534 130.53378 
L 79.261733 128.946811 
L 78.175932 124.442911 
L 77.090131 116.451508 
L 76.00433 122.073883 
L 74.918528 122.278385 
L 73.832727 132.596717 
z
" style="fill:#0000ff;fill-opacity:0.5;"/>
   </g>
   <g id="PolyCollection_2">
    <path clip-path="url(#p793f818033)" d="M 73.832727 160.858211 
L 73.832727 252.75507 
L 74.918528 257.935795 
L 76.00433 257.581963 
L 77.090131 256.94486 
L 78.175932 266.485882 
L 79.261733 245.174696 
L 80.347534 249.295103 
L 81.433335 246.349408 
L 82.519137 273.607667 
L 83.604938 284.058318 
L 84.690739 267.840143 
L 85.77654 272.683516 
L 86.862341 262.889108 
L 87.948142 268.642813 
L 89.033943 268.632064 
L 90.119745 242.782395 
L 91.205546 246.362053 
L 92.291347 262.111173 
L 93.377148 235.010474 
L 94.462949 248.262342 
L 95.54875 265.109511 
L 96.634552 267.919634 
L 97.720353 268.73915 
L 98.806154 283.327197 
L 99.891955 276.944759 
L 100.977756 266.590368 
L 102.063557 256.168081 
L 103.149358 266.273876 
L 104.23516 266.972531 
L 105.320961 248.571818 
L 106.406762 244.666732 
L 107.492563 249.043775 
L 108.578364 241.084991 
L 109.664165 263.956691 
L 110.749967 271.742024 
L 111.835768 232.791518 
L 112.921569 258.027948 
L 114.00737 205.116271 
L 115.093171 243.059908 
L 116.178972 266.977814 
L 117.264773 264.418349 
L 118.350575 269.64737 
L 119.436376 279.836767 
L 120.522177 281.06997 
L 121.607978 286.041791 
L 122.693779 281.598454 
L 123.77958 278.675687 
L 124.865382 267.882874 
L 125.951183 272.218141 
L 127.036984 270.30612 
L 128.122785 262.023761 
L 129.208586 277.410237 
L 130.294387 285.319602 
L 131.380189 285.889583 
L 132.46599 277.517158 
L 133.551791 288.209767 
L 134.637592 287.780811 
L 135.723393 289.53773 
L 136.809194 286.503403 
L 137.894995 291.628557 
L 138.980797 291.060728 
L 140.066598 284.947052 
L 141.152399 283.886623 
L 142.2382 288.907031 
L 143.324001 287.714963 
L 144.409802 289.941366 
L 145.495604 288.045833 
L 146.581405 263.549304 
L 147.667206 287.438509 
L 148.753007 276.252249 
L 149.838808 271.438739 
L 150.924609 275.183162 
L 152.01041 287.579394 
L 153.096212 292.419122 
L 154.182013 288.186287 
L 155.267814 290.875849 
L 156.353615 290.109915 
L 157.439416 284.354802 
L 158.525217 276.894262 
L 159.611019 284.095098 
L 160.69682 284.939408 
L 161.782621 287.337412 
L 162.868422 288.821016 
L 163.954223 291.233409 
L 165.040024 281.990341 
L 166.125825 253.696171 
L 167.211627 262.207436 
L 168.297428 260.318754 
L 169.383229 290.321285 
L 170.46903 285.701686 
L 171.554831 278.916502 
L 172.640632 272.566644 
L 173.726434 280.75014 
L 174.812235 283.824292 
L 175.898036 283.269582 
L 176.983837 283.52564 
L 178.069638 275.898791 
L 179.155439 278.98602 
L 180.24124 281.82884 
L 181.327042 253.746916 
L 182.412843 274.503417 
L 183.498644 278.888896 
L 184.584445 293.641901 
L 185.670246 291.832112 
L 186.756047 286.378374 
L 187.841849 275.109514 
L 188.92765 282.954156 
L 190.013451 282.907135 
L 191.099252 285.363661 
L 192.185053 289.391363 
L 193.270854 277.481984 
L 194.356656 276.640707 
L 195.442457 275.527673 
L 196.528258 282.309217 
L 197.614059 278.992117 
L 198.69986 283.370147 
L 199.785661 285.777983 
L 200.871462 292.341234 
L 201.957264 292.236211 
L 203.043065 292.818417 
L 204.128866 294.646845 
L 205.214667 289.957557 
L 206.300468 294.075648 
L 207.386269 288.717436 
L 208.472071 289.527358 
L 209.557872 291.963663 
L 210.643673 289.704868 
L 211.729474 295.488 
L 212.815275 292.894331 
L 213.901076 290.83427 
L 214.986877 272.050998 
L 216.072679 282.153739 
L 217.15848 280.360705 
L 218.244281 280.337964 
L 219.330082 246.692457 
L 220.415883 287.210717 
L 221.501684 274.759789 
L 222.587486 255.49149 
L 223.673287 291.47734 
L 224.759088 290.67857 
L 225.844889 282.970471 
L 226.93069 286.251426 
L 228.016491 266.513303 
L 229.102292 289.479991 
L 230.188094 280.010287 
L 231.273895 295.147824 
L 232.359696 283.217577 
L 233.445497 279.741303 
L 234.531298 288.258429 
L 235.617099 287.343659 
L 236.702901 284.466228 
L 237.788702 282.504862 
L 238.874503 285.641171 
L 239.960304 284.181207 
L 241.046105 286.726871 
L 242.131906 275.720007 
L 243.217708 291.705335 
L 244.303509 287.82239 
L 245.38931 284.396905 
L 246.475111 286.821721 
L 247.560912 275.493744 
L 248.646713 288.124396 
L 249.732514 287.128286 
L 250.818316 292.699438 
L 251.904117 293.713784 
L 252.989918 282.587429 
L 254.075719 280.165316 
L 255.16152 284.08585 
L 256.247321 256.28808 
L 257.333123 279.6618 
L 258.418924 284.705252 
L 259.504725 283.83861 
L 260.590526 290.769478 
L 261.676327 288.948678 
L 262.762128 285.957976 
L 263.847929 278.999859 
L 264.933731 264.19502 
L 266.019532 287.409608 
L 267.105333 256.26981 
L 268.191134 255.38193 
L 269.276935 256.125145 
L 270.362736 265.968816 
L 271.448538 265.479843 
L 272.534339 263.296755 
L 273.62014 265.547841 
L 274.705941 269.275469 
L 275.791742 277.099206 
L 276.877543 271.876935 
L 277.963344 287.055482 
L 279.049146 291.307936 
L 280.134947 288.755966 
L 281.220748 281.421377 
L 282.306549 282.088603 
L 283.39235 287.268596 
L 284.478151 284.136408 
L 285.563953 281.60685 
L 286.649754 254.300519 
L 287.735555 276.724366 
L 288.821356 279.813807 
L 289.907157 289.421639 
L 290.992958 274.997656 
L 292.07876 254.300519 
L 293.164561 278.299616 
L 294.250362 273.20063 
L 295.336163 282.130977 
L 296.421964 290.198642 
L 297.507765 291.116611 
L 298.593566 291.801925 
L 299.679368 284.129846 
L 300.765169 278.956477 
L 301.85097 254.300519 
L 302.936771 254.300519 
L 304.022572 254.300519 
L 305.108373 275.925185 
L 306.194175 278.946278 
L 307.279976 294.849011 
L 308.365777 290.688397 
L 309.451578 279.53611 
L 310.537379 254.300519 
L 311.62318 254.300519 
L 312.708981 276.375699 
L 313.794783 254.300519 
L 314.880584 286.147702 
L 315.966385 292.278857 
L 317.052186 282.972169 
L 318.137987 273.053883 
L 319.223788 279.393223 
L 320.30959 281.45808 
L 321.395391 275.171716 
L 322.481192 265.79322 
L 323.566993 273.973917 
L 324.652794 284.077951 
L 325.738595 279.043244 
L 326.824396 286.003972 
L 327.910198 284.114353 
L 328.995999 281.702093 
L 330.0818 290.348122 
L 331.167601 291.652964 
L 332.253402 289.590181 
L 333.339203 290.856129 
L 334.425005 286.10039 
L 335.510806 286.155908 
L 336.596607 285.040549 
L 337.682408 275.159743 
L 338.768209 278.359103 
L 339.85401 254.300519 
L 340.939811 254.300519 
L 342.025613 274.441139 
L 343.111414 254.300519 
L 344.197215 255.002011 
L 345.283016 294.304077 
L 346.368817 285.212981 
L 347.454618 265.112852 
L 348.54042 282.237855 
L 349.626221 288.684038 
L 350.712022 286.545961 
L 351.797823 284.894755 
L 352.883624 286.408884 
L 353.969425 289.294905 
L 355.055227 289.490233 
L 356.141028 292.062334 
L 357.226829 292.036721 
L 358.31263 254.300519 
L 359.398431 279.854877 
L 360.484232 288.189974 
L 361.570033 283.398916 
L 362.655835 278.522265 
L 363.741636 276.455201 
L 364.827437 254.300519 
L 365.913238 278.781639 
L 366.999039 274.547143 
L 368.08484 254.300519 
L 369.170642 281.984447 
L 370.256443 278.071751 
L 371.342244 281.922695 
L 372.428045 254.300519 
L 373.513846 286.124994 
L 374.599647 292.174162 
L 375.685448 289.978982 
L 376.77125 289.917955 
L 377.857051 294.185721 
L 378.942852 271.87056 
L 380.028653 254.300519 
L 381.114454 275.077159 
L 382.200255 254.300519 
L 383.286057 254.300519 
L 384.371858 254.300519 
L 385.457659 260.899222 
L 386.54346 278.946278 
L 387.629261 254.300519 
L 388.715062 254.300519 
L 389.800863 280.006311 
L 390.886665 283.746246 
L 391.972466 254.300519 
L 393.058267 272.400576 
L 394.144068 278.056682 
L 395.229869 278.893276 
L 396.31567 254.300519 
L 397.401472 284.454022 
L 398.487273 292.086255 
L 398.487273 151.89696 
L 398.487273 151.89696 
L 397.401472 208.714708 
L 396.31567 254.300519 
L 395.229869 221.510176 
L 394.144068 214.555531 
L 393.058267 230.16711 
L 391.972466 254.300519 
L 390.886665 205.482696 
L 389.800863 220.026131 
L 388.715062 254.300519 
L 387.629261 254.300519 
L 386.54346 221.439507 
L 385.457659 245.502248 
L 384.371858 254.300519 
L 383.286057 254.300519 
L 382.200255 254.300519 
L 381.114454 226.598333 
L 380.028653 254.300519 
L 378.942852 230.873798 
L 377.857051 144.629835 
L 376.77125 125.524603 
L 375.685448 115.957896 
L 374.599647 158.822936 
L 373.513846 206.151542 
L 372.428045 254.300519 
L 371.342244 212.518074 
L 370.256443 222.605543 
L 369.170642 212.677162 
L 368.08484 254.300519 
L 366.999039 227.305021 
L 365.913238 217.311015 
L 364.827437 254.300519 
L 363.741636 224.760943 
L 362.655835 222.004858 
L 361.570033 210.361665 
L 360.484232 186.627031 
L 359.398431 220.228042 
L 358.31263 254.300519 
L 357.226829 179.327967 
L 356.141028 164.049422 
L 355.055227 147.749131 
L 353.969425 149.723824 
L 352.883624 150.549812 
L 351.797823 124.769904 
L 350.712022 153.334825 
L 349.626221 154.530654 
L 348.54042 159.253764 
L 347.454618 239.884075 
L 346.368817 202.499179 
L 345.283016 173.715378 
L 344.197215 253.365196 
L 343.111414 254.300519 
L 342.025613 227.446359 
L 340.939811 254.300519 
L 339.85401 254.300519 
L 338.768209 222.222407 
L 337.682408 220.606067 
L 336.596607 194.206419 
L 335.510806 150.203906 
L 334.425005 165.894905 
L 333.339203 160.912377 
L 332.253402 171.150383 
L 331.167601 155.210007 
L 330.0818 155.906715 
L 328.995999 190.707665 
L 327.910198 130.270222 
L 326.824396 194.117523 
L 325.738595 213.957648 
L 324.652794 201.44971 
L 323.566993 222.836962 
L 322.481192 238.976918 
L 321.395391 226.146105 
L 320.30959 213.212363 
L 319.223788 204.491388 
L 318.137987 216.634407 
L 317.052186 196.96382 
L 315.966385 159.389596 
L 314.880584 194.609812 
L 313.794783 254.300519 
L 312.708981 224.866946 
L 311.62318 254.300519 
L 310.537379 254.300519 
L 309.451578 220.160655 
L 308.365777 155.388383 
L 307.279976 166.562908 
L 306.194175 221.439507 
L 305.108373 225.467632 
L 304.022572 254.300519 
L 302.936771 254.300519 
L 301.85097 254.300519 
L 300.765169 217.224513 
L 299.679368 208.58837 
L 298.593566 173.452612 
L 297.507765 136.082755 
L 296.421964 183.483154 
L 295.336163 204.492051 
L 294.250362 221.964494 
L 293.164561 207.881732 
L 292.07876 254.300519 
L 290.992958 226.704336 
L 289.907157 177.334611 
L 288.821356 217.957231 
L 287.735555 218.502594 
L 286.649754 254.300519 
L 285.563953 206.261716 
L 284.478151 179.263073 
L 283.39235 169.205338 
L 282.306549 109.829343 
L 281.220748 92.069668 
L 280.134947 121.403375 
L 279.049146 160.033673 
L 277.963344 140.426558 
L 276.877543 93.328189 
L 275.791742 98.47657 
L 274.705941 76.160046 
L 273.62014 108.00504 
L 272.534339 88.136778 
L 271.448538 95.644155 
L 270.362736 92.611104 
L 269.276935 68.719236 
L 268.191134 64.5598 
L 267.105333 68.530403 
L 266.019532 120.346993 
L 264.933731 65.172167 
L 263.847929 83.617018 
L 262.762128 106.08364 
L 261.676327 190.625133 
L 260.590526 146.341193 
L 259.504725 207.422062 
L 258.418924 199.674041 
L 257.333123 220.485478 
L 256.247321 251.650438 
L 255.16152 209.330221 
L 254.075719 219.814124 
L 252.989918 211.765004 
L 251.904117 175.613045 
L 250.818316 140.983794 
L 249.732514 113.499595 
L 248.646713 126.663754 
L 247.560912 103.094292 
L 246.475111 157.408836 
L 245.38931 157.413244 
L 244.303509 171.504798 
L 243.217708 153.488084 
L 242.131906 113.918869 
L 241.046105 153.96141 
L 239.960304 166.639219 
L 238.874503 150.400634 
L 237.788702 128.202162 
L 236.702901 165.921351 
L 235.617099 142.258448 
L 234.531298 138.410921 
L 233.445497 220.379475 
L 232.359696 210.551838 
L 231.273895 158.667194 
L 230.188094 104.496264 
L 229.102292 130.352148 
L 228.016491 72.438346 
L 226.93069 113.696267 
L 225.844889 102.189767 
L 224.759088 126.450485 
L 223.673287 153.442238 
L 222.587486 65.289432 
L 221.501684 89.924152 
L 220.415883 118.876332 
L 219.330082 53.568 
L 218.244281 113.072861 
L 217.15848 109.125229 
L 216.072679 110.597164 
L 214.986877 75.76959 
L 213.901076 125.552763 
L 212.815275 141.426479 
L 211.729474 140.924816 
L 210.643673 148.313932 
L 209.557872 190.803587 
L 208.472071 158.722489 
L 207.386269 144.568283 
L 206.300468 136.506988 
L 205.214667 147.487889 
L 204.128866 143.568026 
L 203.043065 144.836646 
L 201.957264 171.763954 
L 200.871462 171.835604 
L 199.785661 197.049713 
L 198.69986 197.917384 
L 197.614059 211.888709 
L 196.528258 204.48165 
L 195.442457 225.997648 
L 194.356656 224.513602 
L 193.270854 212.745156 
L 192.185053 152.816298 
L 191.099252 196.895566 
L 190.013451 211.144956 
L 188.92765 198.430544 
L 187.841849 122.14393 
L 186.756047 196.366701 
L 185.670246 166.399709 
L 184.584445 162.293183 
L 183.498644 109.610445 
L 182.412843 95.524855 
L 181.327042 85.955589 
L 180.24124 110.186275 
L 179.155439 126.111665 
L 178.069638 117.414865 
L 176.983837 147.860854 
L 175.898036 164.997932 
L 174.812235 161.298459 
L 173.726434 131.096419 
L 172.640632 132.036359 
L 171.554831 139.30792 
L 170.46903 151.735828 
L 169.383229 162.301197 
L 168.297428 90.646598 
L 167.211627 78.634604 
L 166.125825 69.876171 
L 165.040024 123.964204 
L 163.954223 160.205369 
L 162.868422 191.32698 
L 161.782621 165.815086 
L 160.69682 131.933473 
L 159.611019 127.645458 
L 158.525217 101.658439 
L 157.439416 113.198984 
L 156.353615 132.557811 
L 155.267814 159.008215 
L 154.182013 139.878772 
L 153.096212 150.742568 
L 152.01041 193.902477 
L 150.924609 226.456995 
L 149.838808 230.943442 
L 148.753007 223.294344 
L 147.667206 188.283851 
L 146.581405 241.968806 
L 145.495604 197.826339 
L 144.409802 156.603595 
L 143.324001 162.001262 
L 142.2382 134.202375 
L 141.152399 131.581715 
L 140.066598 120.609981 
L 138.980797 170.757537 
L 137.894995 154.280384 
L 136.809194 172.364437 
L 135.723393 152.369588 
L 134.637592 161.449566 
L 133.551791 174.942372 
L 132.46599 218.707999 
L 131.380189 147.767148 
L 130.294387 122.251492 
L 129.208586 110.974267 
L 128.122785 81.918875 
L 127.036984 104.395129 
L 125.951183 118.825278 
L 124.865382 108.461426 
L 123.77958 127.340693 
L 122.693779 141.025104 
L 121.607978 155.256009 
L 120.522177 147.092258 
L 119.436376 127.133642 
L 118.350575 127.190894 
L 117.264773 117.694295 
L 116.178972 123.261747 
L 115.093171 87.95033 
L 114.00737 64.111731 
L 112.921569 93.326082 
L 111.835768 74.067643 
L 110.749967 108.391893 
L 109.664165 103.774843 
L 108.578364 75.570638 
L 107.492563 81.639619 
L 106.406762 78.349093 
L 105.320961 84.487816 
L 104.23516 104.919632 
L 103.149358 109.39907 
L 102.063557 94.585264 
L 100.977756 109.091411 
L 99.891955 132.313554 
L 98.806154 138.969518 
L 97.720353 119.203674 
L 96.634552 146.347333 
L 95.54875 109.20306 
L 94.462949 87.85372 
L 93.377148 80.399617 
L 92.291347 116.688869 
L 91.205546 94.948168 
L 90.119745 88.015836 
L 89.033943 118.771909 
L 87.948142 131.896731 
L 86.862341 122.209294 
L 85.77654 150.452391 
L 84.690739 133.476759 
L 83.604938 173.767157 
L 82.519137 135.500475 
L 81.433335 140.480381 
L 80.347534 136.191978 
L 79.261733 131.310941 
L 78.175932 156.623524 
L 77.090131 159.512841 
L 76.00433 173.672028 
L 74.918528 163.009378 
L 73.832727 160.858211 
z
" style="fill:#ff0000;fill-opacity:0.5;"/>
   </g>
   <g id="PolyCollection_3">
    <path clip-path="url(#p793f818033)" d="M 73.832727 230.071984 
L 73.832727 254.386811 
L 74.918528 255.536628 
L 76.00433 255.873181 
L 77.090131 256.262452 
L 78.175932 260.573813 
L 79.261733 255.749941 
L 80.347534 255.9539 
L 81.433335 254.69798 
L 82.519137 264.770426 
L 83.604938 270.695252 
L 84.690739 263.873402 
L 85.77654 264.324374 
L 86.862341 262.429364 
L 87.948142 264.145022 
L 89.033943 262.601575 
L 90.119745 252.223338 
L 91.205546 253.798046 
L 92.291347 259.293447 
L 93.377148 248.293582 
L 94.462949 255.103002 
L 95.54875 262.138164 
L 96.634552 262.700089 
L 97.720353 264.536295 
L 98.806154 269.768424 
L 99.891955 266.857147 
L 100.977756 263.436509 
L 102.063557 259.01328 
L 103.149358 265.371222 
L 104.23516 263.04707 
L 105.320961 254.813856 
L 106.406762 252.336465 
L 107.492563 255.354648 
L 108.578364 251.733218 
L 109.664165 263.578426 
L 110.749967 265.887309 
L 111.835768 247.169336 
L 112.921569 260.595183 
L 114.00737 234.973739 
L 115.093171 251.742537 
L 116.178972 263.25586 
L 117.264773 262.170217 
L 118.350575 264.17461 
L 119.436376 268.656919 
L 120.522177 268.042664 
L 121.607978 272.688757 
L 122.693779 269.637327 
L 123.77958 269.403215 
L 124.865382 265.240193 
L 125.951183 267.195024 
L 127.036984 265.821992 
L 128.122785 263.018633 
L 129.208586 269.936385 
L 130.294387 276.257396 
L 131.380189 275.068062 
L 132.46599 266.427215 
L 133.551791 277.374498 
L 134.637592 276.877753 
L 135.723393 277.641048 
L 136.809194 275.60334 
L 137.894995 278.238589 
L 138.980797 281.444641 
L 140.066598 280.461947 
L 141.152399 274.173235 
L 142.2382 278.864363 
L 143.324001 276.224878 
L 144.409802 278.72226 
L 145.495604 276.89309 
L 146.581405 260.263203 
L 147.667206 270.802844 
L 148.753007 267.643415 
L 149.838808 262.027873 
L 150.924609 264.317828 
L 152.01041 277.898846 
L 153.096212 284.843081 
L 154.182013 281.613848 
L 155.267814 280.067837 
L 156.353615 284.158611 
L 157.439416 277.737602 
L 158.525217 274.072017 
L 159.611019 274.043604 
L 160.69682 279.371004 
L 161.782621 275.365017 
L 162.868422 277.48122 
L 163.954223 279.197132 
L 165.040024 276.756076 
L 166.125825 258.593953 
L 167.211627 268.946819 
L 168.297428 264.141904 
L 169.383229 280.10643 
L 170.46903 276.18695 
L 171.554831 271.051719 
L 172.640632 268.653927 
L 173.726434 277.242168 
L 174.812235 276.814023 
L 175.898036 277.098664 
L 176.983837 275.251148 
L 178.069638 276.568018 
L 179.155439 273.536897 
L 180.24124 276.793979 
L 181.327042 259.972679 
L 182.412843 272.614431 
L 183.498644 273.833686 
L 184.584445 284.120674 
L 185.670246 280.428389 
L 186.756047 275.66515 
L 187.841849 273.866091 
L 188.92765 275.13804 
L 190.013451 274.143952 
L 191.099252 274.062806 
L 192.185053 280.308323 
L 193.270854 266.449311 
L 194.356656 267.736433 
L 195.442457 264.794842 
L 196.528258 270.138472 
L 197.614059 270.747068 
L 198.69986 273.945488 
L 199.785661 277.698361 
L 200.871462 284.011099 
L 201.957264 279.806652 
L 203.043065 284.018488 
L 204.128866 285.910954 
L 205.214667 279.443571 
L 206.300468 286.019262 
L 207.386269 277.309377 
L 208.472071 274.616615 
L 209.557872 285.17018 
L 210.643673 280.880796 
L 211.729474 287.090113 
L 212.815275 283.028844 
L 213.901076 283.409685 
L 214.986877 272.813448 
L 216.072679 276.118363 
L 217.15848 278.039235 
L 218.244281 276.112186 
L 219.330082 259.281592 
L 220.415883 283.531819 
L 221.501684 274.710259 
L 222.587486 262.066928 
L 223.673287 280.955967 
L 224.759088 282.685425 
L 225.844889 282.237473 
L 226.93069 281.992572 
L 228.016491 272.239719 
L 229.102292 280.575587 
L 230.188094 275.109446 
L 231.273895 285.376997 
L 232.359696 271.619855 
L 233.445497 275.607175 
L 234.531298 279.446266 
L 235.617099 275.163093 
L 236.702901 276.205622 
L 237.788702 274.966226 
L 238.874503 275.41993 
L 239.960304 275.847074 
L 241.046105 279.026199 
L 242.131906 274.825782 
L 243.217708 283.063014 
L 244.303509 277.848302 
L 245.38931 276.549878 
L 246.475111 277.652271 
L 247.560912 272.194443 
L 248.646713 280.170792 
L 249.732514 282.663554 
L 250.818316 284.368833 
L 251.904117 282.969442 
L 252.989918 274.608609 
L 254.075719 276.561205 
L 255.16152 275.357877 
L 256.247321 254.936539 
L 257.333123 275.368668 
L 258.418924 275.562037 
L 259.504725 275.073461 
L 260.590526 282.240692 
L 261.676327 282.719629 
L 262.762128 282.030989 
L 263.847929 275.644288 
L 264.933731 267.251728 
L 266.019532 282.129012 
L 267.105333 265.070256 
L 268.191134 261.893085 
L 269.276935 263.565122 
L 270.362736 270.732063 
L 271.448538 270.871977 
L 272.534339 266.938191 
L 273.62014 267.356237 
L 274.705941 269.072252 
L 275.791742 274.834002 
L 276.877543 272.891142 
L 277.963344 280.580474 
L 279.049146 281.721325 
L 280.134947 281.305047 
L 281.220748 277.930786 
L 282.306549 277.759123 
L 283.39235 273.680559 
L 284.478151 280.188341 
L 285.563953 275.485197 
L 286.649754 254.300519 
L 287.735555 267.711201 
L 288.821356 275.80237 
L 289.907157 281.367877 
L 290.992958 263.840813 
L 292.07876 254.300519 
L 293.164561 269.436644 
L 294.250362 267.427637 
L 295.336163 276.593641 
L 296.421964 283.515565 
L 297.507765 282.590183 
L 298.593566 279.68272 
L 299.679368 275.763972 
L 300.765169 266.743662 
L 301.85097 254.300519 
L 302.936771 254.300519 
L 304.022572 254.300519 
L 305.108373 265.112852 
L 306.194175 273.381107 
L 307.279976 284.275577 
L 308.365777 278.434469 
L 309.451578 275.417642 
L 310.537379 254.300519 
L 311.62318 254.300519 
L 312.708981 267.418423 
L 313.794783 254.300519 
L 314.880584 280.746144 
L 315.966385 284.570563 
L 317.052186 275.901759 
L 318.137987 268.470761 
L 319.223788 274.366352 
L 320.30959 268.412932 
L 321.395391 264.130198 
L 322.481192 263.143138 
L 323.566993 269.161956 
L 324.652794 275.044014 
L 325.738595 271.335412 
L 326.824396 279.478999 
L 327.910198 280.074127 
L 328.995999 273.89664 
L 330.0818 283.088857 
L 331.167601 281.406727 
L 332.253402 279.962427 
L 333.339203 280.804895 
L 334.425005 279.76291 
L 335.510806 277.009468 
L 336.596607 278.111667 
L 337.682408 270.646606 
L 338.768209 272.305485 
L 339.85401 254.300519 
L 340.939811 254.300519 
L 342.025613 263.045788 
L 343.111414 254.300519 
L 344.197215 254.53435 
L 345.283016 286.060791 
L 346.368817 270.084194 
L 347.454618 262.966286 
L 348.54042 275.12602 
L 349.626221 278.779985 
L 350.712022 276.506609 
L 351.797823 278.382193 
L 352.883624 277.504951 
L 353.969425 280.55181 
L 355.055227 284.507043 
L 356.141028 281.206161 
L 357.226829 281.846899 
L 358.31263 254.300519 
L 359.398431 275.879755 
L 360.484232 270.796863 
L 361.570033 273.798617 
L 362.655835 272.109068 
L 363.741636 267.418423 
L 364.827437 254.300519 
L 365.913238 265.00842 
L 366.999039 263.204793 
L 368.08484 254.300519 
L 369.170642 273.433659 
L 370.256443 272.268072 
L 371.342244 268.835469 
L 372.428045 254.300519 
L 373.513846 279.512374 
L 374.599647 280.857449 
L 375.685448 283.239788 
L 376.77125 280.892933 
L 377.857051 284.709226 
L 378.942852 261.45574 
L 380.028653 254.300519 
L 381.114454 264.07932 
L 382.200255 254.300519 
L 383.286057 254.300519 
L 384.371858 254.300519 
L 385.457659 254.300519 
L 386.54346 273.619614 
L 387.629261 254.300519 
L 388.715062 254.300519 
L 389.800863 276.322697 
L 390.886665 273.403842 
L 391.972466 254.300519 
L 393.058267 267.97494 
L 394.144068 265.553361 
L 395.229869 273.540112 
L 396.31567 254.300519 
L 397.401472 275.692432 
L 398.487273 282.656028 
L 398.487273 186.326291 
L 398.487273 186.326291 
L 397.401472 222.228778 
L 396.31567 254.300519 
L 395.229869 228.647729 
L 394.144068 235.521446 
L 393.058267 236.067958 
L 391.972466 254.300519 
L 390.886665 225.285891 
L 389.800863 224.937615 
L 388.715062 254.300519 
L 387.629261 254.300519 
L 386.54346 228.541726 
L 385.457659 254.300519 
L 384.371858 254.300519 
L 383.286057 254.300519 
L 382.200255 254.300519 
L 381.114454 241.262118 
L 380.028653 254.300519 
L 378.942852 244.760225 
L 377.857051 174.812301 
L 376.77125 166.161313 
L 375.685448 151.29147 
L 374.599647 193.98155 
L 373.513846 216.156266 
L 372.428045 254.300519 
L 371.342244 232.424843 
L 370.256443 230.343782 
L 369.170642 226.501612 
L 368.08484 254.300519 
L 366.999039 242.428154 
L 365.913238 238.186452 
L 364.827437 254.300519 
L 363.741636 236.809981 
L 362.655835 230.555788 
L 361.570033 225.421133 
L 360.484232 221.660311 
L 359.398431 225.528205 
L 358.31263 254.300519 
L 357.226829 201.875823 
L 356.141028 193.526835 
L 355.055227 173.092915 
L 353.969425 182.653331 
L 352.883624 188.018741 
L 351.797823 164.200636 
L 350.712022 196.760008 
L 349.626221 190.997358 
L 348.54042 187.800083 
L 347.454618 242.746163 
L 346.368817 227.994462 
L 345.283016 191.163282 
L 344.197215 253.988745 
L 343.111414 254.300519 
L 342.025613 242.64016 
L 340.939811 254.300519 
L 339.85401 254.300519 
L 338.768209 230.293898 
L 337.682408 228.652646 
L 336.596607 208.838205 
L 335.510806 183.386586 
L 334.425005 192.214001 
L 333.339203 188.775044 
L 332.253402 199.461213 
L 331.167601 186.966073 
L 330.0818 182.695177 
L 328.995999 209.661128 
L 327.910198 163.028326 
L 326.824396 207.550375 
L 325.738595 228.228848 
L 324.652794 217.974545 
L 323.566993 230.920963 
L 322.481192 242.51036 
L 321.395391 241.036551 
L 320.30959 232.979884 
L 319.223788 219.102721 
L 318.137987 227.409886 
L 317.052186 213.088676 
L 315.966385 181.94718 
L 314.880584 205.382203 
L 313.794783 254.300519 
L 312.708981 236.809981 
L 311.62318 254.300519 
L 310.537379 254.300519 
L 309.451578 225.895672 
L 308.365777 194.522972 
L 307.279976 191.252443 
L 306.194175 228.859736 
L 305.108373 239.884075 
L 304.022572 254.300519 
L 302.936771 254.300519 
L 301.85097 254.300519 
L 300.765169 235.603184 
L 299.679368 222.342744 
L 298.593566 202.417502 
L 297.507765 170.677152 
L 296.421964 198.134143 
L 295.336163 215.656394 
L 294.250362 232.507635 
L 293.164561 227.212527 
L 292.07876 254.300519 
L 290.992958 241.580128 
L 289.907157 200.440837 
L 288.821356 223.602886 
L 287.735555 232.277073 
L 286.649754 254.300519 
L 285.563953 219.09691 
L 284.478151 194.306147 
L 283.39235 207.889648 
L 282.306549 154.705071 
L 281.220748 133.094248 
L 280.134947 159.930917 
L 279.049146 190.149582 
L 277.963344 175.098435 
L 276.877543 143.56656 
L 275.791742 148.275405 
L 274.705941 121.73266 
L 273.62014 152.361065 
L 272.534339 126.357797 
L 271.448538 135.197404 
L 270.362736 140.133966 
L 269.276935 127.690304 
L 268.191134 123.399657 
L 267.105333 121.97154 
L 266.019532 160.378991 
L 264.933731 107.626193 
L 263.847929 122.236341 
L 262.762128 144.815033 
L 261.676327 202.772698 
L 260.590526 173.676724 
L 259.504725 221.893719 
L 258.418924 218.304548 
L 257.333123 226.209654 
L 256.247321 253.452493 
L 255.16152 223.305356 
L 254.075719 224.619605 
L 252.989918 224.823147 
L 251.904117 198.017746 
L 250.818316 174.861186 
L 249.732514 148.502101 
L 248.646713 164.88129 
L 247.560912 154.757582 
L 246.475111 190.11101 
L 245.38931 195.771544 
L 244.303509 201.999351 
L 243.217708 179.903619 
L 242.131906 164.71413 
L 241.046105 186.749521 
L 239.960304 197.613883 
L 238.874503 189.030749 
L 237.788702 171.251892 
L 236.702901 196.804821 
L 235.617099 187.80354 
L 234.531298 175.914633 
L 233.445497 225.891645 
L 232.359696 228.10341 
L 231.273895 185.354376 
L 230.188094 156.77173 
L 229.102292 170.757188 
L 228.016491 119.810731 
L 226.93069 148.007046 
L 225.844889 140.368418 
L 224.759088 164.778232 
L 223.673287 190.861939 
L 222.587486 124.921867 
L 221.501684 138.408339 
L 220.415883 157.916152 
L 219.330082 106.53305 
L 218.244281 151.157849 
L 217.15848 150.305902 
L 216.072679 158.46226 
L 214.986877 117.56745 
L 213.901076 160.635366 
L 212.815275 175.922137 
L 211.729474 167.555264 
L 210.643673 180.668304 
L 209.557872 202.257248 
L 208.472071 202.36895 
L 207.386269 191.540437 
L 206.300468 166.559051 
L 205.214667 189.703701 
L 204.128866 173.16006 
L 203.043065 176.335477 
L 201.957264 201.419044 
L 200.871462 195.253536 
L 199.785661 212.585937 
L 198.69986 218.569555 
L 197.614059 228.048669 
L 196.528258 226.325193 
L 195.442457 240.308088 
L 194.356656 236.385968 
L 193.270854 232.240422 
L 192.185053 187.693465 
L 191.099252 220.837311 
L 190.013451 224.678285 
L 188.92765 217.642011 
L 187.841849 165.64732 
L 186.756047 218.466443 
L 185.670246 196.557176 
L 184.584445 190.294312 
L 183.498644 166.368747 
L 182.412843 151.369502 
L 181.327042 143.022608 
L 180.24124 153.682654 
L 179.155439 177.398366 
L 178.069638 164.932954 
L 176.983837 184.64139 
L 175.898036 191.512643 
L 174.812235 189.942227 
L 173.726434 170.486497 
L 172.640632 179.074737 
L 171.554831 182.613128 
L 170.46903 189.350262 
L 169.383229 192.029486 
L 168.297428 151.706278 
L 167.211627 131.610393 
L 166.125825 135.311554 
L 165.040024 171.688111 
L 163.954223 192.779779 
L 162.868422 215.139826 
L 161.782621 198.996967 
L 160.69682 171.034243 
L 159.611019 183.834873 
L 158.525217 156.961133 
L 157.439416 159.17873 
L 156.353615 168.048692 
L 155.267814 191.829571 
L 154.182013 180.319254 
L 153.096212 178.574066 
L 152.01041 212.231124 
L 150.924609 240.944108 
L 149.838808 243.843582 
L 148.753007 235.180446 
L 147.667206 222.639727 
L 146.581405 246.350274 
L 145.495604 217.105999 
L 144.409802 190.737073 
L 143.324001 199.753656 
L 142.2382 176.390533 
L 141.152399 180.07463 
L 140.066598 160.084996 
L 138.980797 196.229945 
L 137.894995 191.167743 
L 136.809194 206.761891 
L 135.723393 192.61331 
L 134.637592 195.17866 
L 133.551791 204.010202 
L 132.46599 236.184639 
L 131.380189 194.709281 
L 130.294387 170.861749 
L 129.208586 173.154636 
L 128.122785 149.251939 
L 127.036984 172.286876 
L 125.951183 189.225908 
L 124.865382 180.633414 
L 123.77958 187.733238 
L 122.693779 198.576468 
L 121.607978 201.805732 
L 120.522177 204.199255 
L 119.436376 188.188026 
L 118.350575 190.311763 
L 117.264773 183.544386 
L 116.178972 185.241328 
L 115.093171 168.663786 
L 114.00737 157.765732 
L 112.921569 171.100488 
L 111.835768 164.518219 
L 110.749967 172.963582 
L 109.664165 182.401184 
L 108.578364 164.326971 
L 107.492563 165.316684 
L 106.406762 164.386245 
L 105.320961 166.493495 
L 104.23516 179.725942 
L 103.149358 183.390974 
L 102.063557 173.31841 
L 100.977756 182.993615 
L 99.891955 198.971574 
L 98.806154 196.855322 
L 97.720353 186.266464 
L 96.634552 206.573738 
L 95.54875 182.728412 
L 94.462949 175.055621 
L 93.377148 168.402627 
L 92.291347 192.277835 
L 91.205546 181.687242 
L 90.119745 171.230579 
L 89.033943 186.13412 
L 87.948142 194.23697 
L 86.862341 187.684373 
L 85.77654 205.744478 
L 84.690739 196.496152 
L 83.604938 214.426063 
L 82.519137 205.801942 
L 81.433335 213.462813 
L 80.347534 213.452432 
L 79.261733 214.000902 
L 78.175932 222.904452 
L 77.090131 226.47379 
L 76.00433 232.746242 
L 74.918528 229.107673 
L 73.832727 230.071984 
z
" style="fill:#008000;fill-opacity:0.5;"/>
   </g>
   <g id="matplotlib.axis_1">
    <g id="xtick_1">
     <g id="line2d_1">
      <path clip-path="url(#p793f818033)" d="M 73.832727 307.584 
L 73.832727 41.472 
" style="fill:none;stroke:#b0b0b0;stroke-linecap:square;stroke-width:0.8;"/>
     </g>
     <g id="line2d_2">
      <defs>
       <path d="M 0 0 
L 0 3.5 
" id="mbaa64f2c87" style="stroke:#000000;stroke-width:0.8;"/>
      </defs>
      <g>
       <use style="stroke:#000000;stroke-width:0.8;" x="73.832727" xlink:href="#mbaa64f2c87" y="307.584"/>
      </g>
     </g>
     <g id="text_1">
      <!-- 0 -->
      <defs>
       <path d="M 31.78125 66.40625 
Q 24.171875 66.40625 20.328125 58.90625 
Q 16.5 51.421875 16.5 36.375 
Q 16.5 21.390625 20.328125 13.890625 
Q 24.171875 6.390625 31.78125 6.390625 
Q 39.453125 6.390625 43.28125 13.890625 
Q 47.125 21.390625 47.125 36.375 
Q 47.125 51.421875 43.28125 58.90625 
Q 39.453125 66.40625 31.78125 66.40625 
z
M 31.78125 74.21875 
Q 44.046875 74.21875 50.515625 64.515625 
Q 56.984375 54.828125 56.984375 36.375 
Q 56.984375 17.96875 50.515625 8.265625 
Q 44.046875 -1.421875 31.78125 -1.421875 
Q 19.53125 -1.421875 13.0625 8.265625 
Q 6.59375 17.96875 6.59375 36.375 
Q 6.59375 54.828125 13.0625 64.515625 
Q 19.53125 74.21875 31.78125 74.21875 
z
" id="DejaVuSans-48"/>
      </defs>
      <g transform="translate(70.651477 322.182437)scale(0.1 -0.1)">
       <use xlink:href="#DejaVuSans-48"/>
      </g>
     </g>
    </g>
    <g id="xtick_2">
     <g id="line2d_3">
      <path clip-path="url(#p793f818033)" d="M 128.122785 307.584 
L 128.122785 41.472 
" style="fill:none;stroke:#b0b0b0;stroke-linecap:square;stroke-width:0.8;"/>
     </g>
     <g id="line2d_4">
      <g>
       <use style="stroke:#000000;stroke-width:0.8;" x="128.122785" xlink:href="#mbaa64f2c87" y="307.584"/>
      </g>
     </g>
     <g id="text_2">
      <!-- 50 -->
      <defs>
       <path d="M 10.796875 72.90625 
L 49.515625 72.90625 
L 49.515625 64.59375 
L 19.828125 64.59375 
L 19.828125 46.734375 
Q 21.96875 47.46875 24.109375 47.828125 
Q 26.265625 48.1875 28.421875 48.1875 
Q 40.625 48.1875 47.75 41.5 
Q 54.890625 34.8125 54.890625 23.390625 
Q 54.890625 11.625 47.5625 5.09375 
Q 40.234375 -1.421875 26.90625 -1.421875 
Q 22.3125 -1.421875 17.546875 -0.640625 
Q 12.796875 0.140625 7.71875 1.703125 
L 7.71875 11.625 
Q 12.109375 9.234375 16.796875 8.0625 
Q 21.484375 6.890625 26.703125 6.890625 
Q 35.15625 6.890625 40.078125 11.328125 
Q 45.015625 15.765625 45.015625 23.390625 
Q 45.015625 31 40.078125 35.4375 
Q 35.15625 39.890625 26.703125 39.890625 
Q 22.75 39.890625 18.8125 39.015625 
Q 14.890625 38.140625 10.796875 36.28125 
z
" id="DejaVuSans-53"/>
      </defs>
      <g transform="translate(121.760285 322.182437)scale(0.1 -0.1)">
       <use xlink:href="#DejaVuSans-53"/>
       <use x="63.623047" xlink:href="#DejaVuSans-48"/>
      </g>
     </g>
    </g>
    <g id="xtick_3">
     <g id="line2d_5">
      <path clip-path="url(#p793f818033)" d="M 182.412843 307.584 
L 182.412843 41.472 
" style="fill:none;stroke:#b0b0b0;stroke-linecap:square;stroke-width:0.8;"/>
     </g>
     <g id="line2d_6">
      <g>
       <use style="stroke:#000000;stroke-width:0.8;" x="182.412843" xlink:href="#mbaa64f2c87" y="307.584"/>
      </g>
     </g>
     <g id="text_3">
      <!-- 100 -->
      <defs>
       <path d="M 12.40625 8.296875 
L 28.515625 8.296875 
L 28.515625 63.921875 
L 10.984375 60.40625 
L 10.984375 69.390625 
L 28.421875 72.90625 
L 38.28125 72.90625 
L 38.28125 8.296875 
L 54.390625 8.296875 
L 54.390625 0 
L 12.40625 0 
z
" id="DejaVuSans-49"/>
      </defs>
      <g transform="translate(172.869093 322.182437)scale(0.1 -0.1)">
       <use xlink:href="#DejaVuSans-49"/>
       <use x="63.623047" xlink:href="#DejaVuSans-48"/>
       <use x="127.246094" xlink:href="#DejaVuSans-48"/>
      </g>
     </g>
    </g>
    <g id="xtick_4">
     <g id="line2d_7">
      <path clip-path="url(#p793f818033)" d="M 236.702901 307.584 
L 236.702901 41.472 
" style="fill:none;stroke:#b0b0b0;stroke-linecap:square;stroke-width:0.8;"/>
     </g>
     <g id="line2d_8">
      <g>
       <use style="stroke:#000000;stroke-width:0.8;" x="236.702901" xlink:href="#mbaa64f2c87" y="307.584"/>
      </g>
     </g>
     <g id="text_4">
      <!-- 150 -->
      <g transform="translate(227.159151 322.182437)scale(0.1 -0.1)">
       <use xlink:href="#DejaVuSans-49"/>
       <use x="63.623047" xlink:href="#DejaVuSans-53"/>
       <use x="127.246094" xlink:href="#DejaVuSans-48"/>
      </g>
     </g>
    </g>
    <g id="xtick_5">
     <g id="line2d_9">
      <path clip-path="url(#p793f818033)" d="M 290.992958 307.584 
L 290.992958 41.472 
" style="fill:none;stroke:#b0b0b0;stroke-linecap:square;stroke-width:0.8;"/>
     </g>
     <g id="line2d_10">
      <g>
       <use style="stroke:#000000;stroke-width:0.8;" x="290.992958" xlink:href="#mbaa64f2c87" y="307.584"/>
      </g>
     </g>
     <g id="text_5">
      <!-- 200 -->
      <defs>
       <path d="M 19.1875 8.296875 
L 53.609375 8.296875 
L 53.609375 0 
L 7.328125 0 
L 7.328125 8.296875 
Q 12.9375 14.109375 22.625 23.890625 
Q 32.328125 33.6875 34.8125 36.53125 
Q 39.546875 41.84375 41.421875 45.53125 
Q 43.3125 49.21875 43.3125 52.78125 
Q 43.3125 58.59375 39.234375 62.25 
Q 35.15625 65.921875 28.609375 65.921875 
Q 23.96875 65.921875 18.8125 64.3125 
Q 13.671875 62.703125 7.8125 59.421875 
L 7.8125 69.390625 
Q 13.765625 71.78125 18.9375 73 
Q 24.125 74.21875 28.421875 74.21875 
Q 39.75 74.21875 46.484375 68.546875 
Q 53.21875 62.890625 53.21875 53.421875 
Q 53.21875 48.921875 51.53125 44.890625 
Q 49.859375 40.875 45.40625 35.40625 
Q 44.1875 33.984375 37.640625 27.21875 
Q 31.109375 20.453125 19.1875 8.296875 
z
" id="DejaVuSans-50"/>
      </defs>
      <g transform="translate(281.449208 322.182437)scale(0.1 -0.1)">
       <use xlink:href="#DejaVuSans-50"/>
       <use x="63.623047" xlink:href="#DejaVuSans-48"/>
       <use x="127.246094" xlink:href="#DejaVuSans-48"/>
      </g>
     </g>
    </g>
    <g id="xtick_6">
     <g id="line2d_11">
      <path clip-path="url(#p793f818033)" d="M 345.283016 307.584 
L 345.283016 41.472 
" style="fill:none;stroke:#b0b0b0;stroke-linecap:square;stroke-width:0.8;"/>
     </g>
     <g id="line2d_12">
      <g>
       <use style="stroke:#000000;stroke-width:0.8;" x="345.283016" xlink:href="#mbaa64f2c87" y="307.584"/>
      </g>
     </g>
     <g id="text_6">
      <!-- 250 -->
      <g transform="translate(335.739266 322.182437)scale(0.1 -0.1)">
       <use xlink:href="#DejaVuSans-50"/>
       <use x="63.623047" xlink:href="#DejaVuSans-53"/>
       <use x="127.246094" xlink:href="#DejaVuSans-48"/>
      </g>
     </g>
    </g>
    <g id="xtick_7">
     <g id="line2d_13">
      <path clip-path="url(#p793f818033)" d="M 399.573074 307.584 
L 399.573074 41.472 
" style="fill:none;stroke:#b0b0b0;stroke-linecap:square;stroke-width:0.8;"/>
     </g>
     <g id="line2d_14">
      <g>
       <use style="stroke:#000000;stroke-width:0.8;" x="399.573074" xlink:href="#mbaa64f2c87" y="307.584"/>
      </g>
     </g>
     <g id="text_7">
      <!-- 300 -->
      <defs>
       <path d="M 40.578125 39.3125 
Q 47.65625 37.796875 51.625 33 
Q 55.609375 28.21875 55.609375 21.1875 
Q 55.609375 10.40625 48.1875 4.484375 
Q 40.765625 -1.421875 27.09375 -1.421875 
Q 22.515625 -1.421875 17.65625 -0.515625 
Q 12.796875 0.390625 7.625 2.203125 
L 7.625 11.71875 
Q 11.71875 9.328125 16.59375 8.109375 
Q 21.484375 6.890625 26.8125 6.890625 
Q 36.078125 6.890625 40.9375 10.546875 
Q 45.796875 14.203125 45.796875 21.1875 
Q 45.796875 27.640625 41.28125 31.265625 
Q 36.765625 34.90625 28.71875 34.90625 
L 20.21875 34.90625 
L 20.21875 43.015625 
L 29.109375 43.015625 
Q 36.375 43.015625 40.234375 45.921875 
Q 44.09375 48.828125 44.09375 54.296875 
Q 44.09375 59.90625 40.109375 62.90625 
Q 36.140625 65.921875 28.71875 65.921875 
Q 24.65625 65.921875 20.015625 65.03125 
Q 15.375 64.15625 9.8125 62.3125 
L 9.8125 71.09375 
Q 15.4375 72.65625 20.34375 73.4375 
Q 25.25 74.21875 29.59375 74.21875 
Q 40.828125 74.21875 47.359375 69.109375 
Q 53.90625 64.015625 53.90625 55.328125 
Q 53.90625 49.265625 50.4375 45.09375 
Q 46.96875 40.921875 40.578125 39.3125 
z
" id="DejaVuSans-51"/>
      </defs>
      <g transform="translate(390.029324 322.182437)scale(0.1 -0.1)">
       <use xlink:href="#DejaVuSans-51"/>
       <use x="63.623047" xlink:href="#DejaVuSans-48"/>
       <use x="127.246094" xlink:href="#DejaVuSans-48"/>
      </g>
     </g>
    </g>
    <g id="text_8">
     <!-- Generations -->
     <defs>
      <path d="M 59.515625 10.40625 
L 59.515625 29.984375 
L 43.40625 29.984375 
L 43.40625 38.09375 
L 69.28125 38.09375 
L 69.28125 6.78125 
Q 63.578125 2.734375 56.6875 0.65625 
Q 49.8125 -1.421875 42 -1.421875 
Q 24.90625 -1.421875 15.25 8.5625 
Q 5.609375 18.5625 5.609375 36.375 
Q 5.609375 54.25 15.25 64.234375 
Q 24.90625 74.21875 42 74.21875 
Q 49.125 74.21875 55.546875 72.453125 
Q 61.96875 70.703125 67.390625 67.28125 
L 67.390625 56.78125 
Q 61.921875 61.421875 55.765625 63.765625 
Q 49.609375 66.109375 42.828125 66.109375 
Q 29.4375 66.109375 22.71875 58.640625 
Q 16.015625 51.171875 16.015625 36.375 
Q 16.015625 21.625 22.71875 14.15625 
Q 29.4375 6.6875 42.828125 6.6875 
Q 48.046875 6.6875 52.140625 7.59375 
Q 56.25 8.5 59.515625 10.40625 
z
" id="DejaVuSans-71"/>
      <path d="M 56.203125 29.59375 
L 56.203125 25.203125 
L 14.890625 25.203125 
Q 15.484375 15.921875 20.484375 11.0625 
Q 25.484375 6.203125 34.421875 6.203125 
Q 39.59375 6.203125 44.453125 7.46875 
Q 49.3125 8.734375 54.109375 11.28125 
L 54.109375 2.78125 
Q 49.265625 0.734375 44.1875 -0.34375 
Q 39.109375 -1.421875 33.890625 -1.421875 
Q 20.796875 -1.421875 13.15625 6.1875 
Q 5.515625 13.8125 5.515625 26.8125 
Q 5.515625 40.234375 12.765625 48.109375 
Q 20.015625 56 32.328125 56 
Q 43.359375 56 49.78125 48.890625 
Q 56.203125 41.796875 56.203125 29.59375 
z
M 47.21875 32.234375 
Q 47.125 39.59375 43.09375 43.984375 
Q 39.0625 48.390625 32.421875 48.390625 
Q 24.90625 48.390625 20.390625 44.140625 
Q 15.875 39.890625 15.1875 32.171875 
z
" id="DejaVuSans-101"/>
      <path d="M 54.890625 33.015625 
L 54.890625 0 
L 45.90625 0 
L 45.90625 32.71875 
Q 45.90625 40.484375 42.875 44.328125 
Q 39.84375 48.1875 33.796875 48.1875 
Q 26.515625 48.1875 22.3125 43.546875 
Q 18.109375 38.921875 18.109375 30.90625 
L 18.109375 0 
L 9.078125 0 
L 9.078125 54.6875 
L 18.109375 54.6875 
L 18.109375 46.1875 
Q 21.34375 51.125 25.703125 53.5625 
Q 30.078125 56 35.796875 56 
Q 45.21875 56 50.046875 50.171875 
Q 54.890625 44.34375 54.890625 33.015625 
z
" id="DejaVuSans-110"/>
      <path d="M 41.109375 46.296875 
Q 39.59375 47.171875 37.8125 47.578125 
Q 36.03125 48 33.890625 48 
Q 26.265625 48 22.1875 43.046875 
Q 18.109375 38.09375 18.109375 28.8125 
L 18.109375 0 
L 9.078125 0 
L 9.078125 54.6875 
L 18.109375 54.6875 
L 18.109375 46.1875 
Q 20.953125 51.171875 25.484375 53.578125 
Q 30.03125 56 36.53125 56 
Q 37.453125 56 38.578125 55.875 
Q 39.703125 55.765625 41.0625 55.515625 
z
" id="DejaVuSans-114"/>
      <path d="M 34.28125 27.484375 
Q 23.390625 27.484375 19.1875 25 
Q 14.984375 22.515625 14.984375 16.5 
Q 14.984375 11.71875 18.140625 8.90625 
Q 21.296875 6.109375 26.703125 6.109375 
Q 34.1875 6.109375 38.703125 11.40625 
Q 43.21875 16.703125 43.21875 25.484375 
L 43.21875 27.484375 
z
M 52.203125 31.203125 
L 52.203125 0 
L 43.21875 0 
L 43.21875 8.296875 
Q 40.140625 3.328125 35.546875 0.953125 
Q 30.953125 -1.421875 24.3125 -1.421875 
Q 15.921875 -1.421875 10.953125 3.296875 
Q 6 8.015625 6 15.921875 
Q 6 25.140625 12.171875 29.828125 
Q 18.359375 34.515625 30.609375 34.515625 
L 43.21875 34.515625 
L 43.21875 35.40625 
Q 43.21875 41.609375 39.140625 45 
Q 35.0625 48.390625 27.6875 48.390625 
Q 23 48.390625 18.546875 47.265625 
Q 14.109375 46.140625 10.015625 43.890625 
L 10.015625 52.203125 
Q 14.9375 54.109375 19.578125 55.046875 
Q 24.21875 56 28.609375 56 
Q 40.484375 56 46.34375 49.84375 
Q 52.203125 43.703125 52.203125 31.203125 
z
" id="DejaVuSans-97"/>
      <path d="M 18.3125 70.21875 
L 18.3125 54.6875 
L 36.8125 54.6875 
L 36.8125 47.703125 
L 18.3125 47.703125 
L 18.3125 18.015625 
Q 18.3125 11.328125 20.140625 9.421875 
Q 21.96875 7.515625 27.59375 7.515625 
L 36.8125 7.515625 
L 36.8125 0 
L 27.59375 0 
Q 17.1875 0 13.234375 3.875 
Q 9.28125 7.765625 9.28125 18.015625 
L 9.28125 47.703125 
L 2.6875 47.703125 
L 2.6875 54.6875 
L 9.28125 54.6875 
L 9.28125 70.21875 
z
" id="DejaVuSans-116"/>
      <path d="M 9.421875 54.6875 
L 18.40625 54.6875 
L 18.40625 0 
L 9.421875 0 
z
M 9.421875 75.984375 
L 18.40625 75.984375 
L 18.40625 64.59375 
L 9.421875 64.59375 
z
" id="DejaVuSans-105"/>
      <path d="M 30.609375 48.390625 
Q 23.390625 48.390625 19.1875 42.75 
Q 14.984375 37.109375 14.984375 27.296875 
Q 14.984375 17.484375 19.15625 11.84375 
Q 23.34375 6.203125 30.609375 6.203125 
Q 37.796875 6.203125 41.984375 11.859375 
Q 46.1875 17.53125 46.1875 27.296875 
Q 46.1875 37.015625 41.984375 42.703125 
Q 37.796875 48.390625 30.609375 48.390625 
z
M 30.609375 56 
Q 42.328125 56 49.015625 48.375 
Q 55.71875 40.765625 55.71875 27.296875 
Q 55.71875 13.875 49.015625 6.21875 
Q 42.328125 -1.421875 30.609375 -1.421875 
Q 18.84375 -1.421875 12.171875 6.21875 
Q 5.515625 13.875 5.515625 27.296875 
Q 5.515625 40.765625 12.171875 48.375 
Q 18.84375 56 30.609375 56 
z
" id="DejaVuSans-111"/>
      <path d="M 44.28125 53.078125 
L 44.28125 44.578125 
Q 40.484375 46.53125 36.375 47.5 
Q 32.28125 48.484375 27.875 48.484375 
Q 21.1875 48.484375 17.84375 46.4375 
Q 14.5 44.390625 14.5 40.28125 
Q 14.5 37.15625 16.890625 35.375 
Q 19.28125 33.59375 26.515625 31.984375 
L 29.59375 31.296875 
Q 39.15625 29.25 43.1875 25.515625 
Q 47.21875 21.78125 47.21875 15.09375 
Q 47.21875 7.46875 41.1875 3.015625 
Q 35.15625 -1.421875 24.609375 -1.421875 
Q 20.21875 -1.421875 15.453125 -0.5625 
Q 10.6875 0.296875 5.421875 2 
L 5.421875 11.28125 
Q 10.40625 8.6875 15.234375 7.390625 
Q 20.0625 6.109375 24.8125 6.109375 
Q 31.15625 6.109375 34.5625 8.28125 
Q 37.984375 10.453125 37.984375 14.40625 
Q 37.984375 18.0625 35.515625 20.015625 
Q 33.0625 21.96875 24.703125 23.78125 
L 21.578125 24.515625 
Q 13.234375 26.265625 9.515625 29.90625 
Q 5.8125 33.546875 5.8125 39.890625 
Q 5.8125 47.609375 11.28125 51.796875 
Q 16.75 56 26.8125 56 
Q 31.78125 56 36.171875 55.265625 
Q 40.578125 54.546875 44.28125 53.078125 
z
" id="DejaVuSans-115"/>
     </defs>
     <g transform="translate(205.662344 335.860562)scale(0.1 -0.1)">
      <use xlink:href="#DejaVuSans-71"/>
      <use x="77.490234" xlink:href="#DejaVuSans-101"/>
      <use x="139.013672" xlink:href="#DejaVuSans-110"/>
      <use x="202.392578" xlink:href="#DejaVuSans-101"/>
      <use x="263.916016" xlink:href="#DejaVuSans-114"/>
      <use x="305.029297" xlink:href="#DejaVuSans-97"/>
      <use x="366.308594" xlink:href="#DejaVuSans-116"/>
      <use x="405.517578" xlink:href="#DejaVuSans-105"/>
      <use x="433.300781" xlink:href="#DejaVuSans-111"/>
      <use x="494.482422" xlink:href="#DejaVuSans-110"/>
      <use x="557.861328" xlink:href="#DejaVuSans-115"/>
     </g>
    </g>
   </g>
   <g id="matplotlib.axis_2">
    <g id="ytick_1">
     <g id="line2d_15">
      <path clip-path="url(#p793f818033)" d="M 57.6 300.676947 
L 414.72 300.676947 
" style="fill:none;stroke:#b0b0b0;stroke-linecap:square;stroke-width:0.8;"/>
     </g>
     <g id="line2d_16">
      <defs>
       <path d="M 0 0 
L -3.5 0 
" id="ma3b8416cde" style="stroke:#000000;stroke-width:0.8;"/>
      </defs>
      <g>
       <use style="stroke:#000000;stroke-width:0.8;" x="57.6" xlink:href="#ma3b8416cde" y="300.676947"/>
      </g>
     </g>
     <g id="text_9">
      <!-- 0.2 -->
      <defs>
       <path d="M 10.59375 35.5 
L 73.1875 35.5 
L 73.1875 27.203125 
L 10.59375 27.203125 
z
" id="DejaVuSans-8722"/>
       <path d="M 10.6875 12.40625 
L 21 12.40625 
L 21 0 
L 10.6875 0 
z
" id="DejaVuSans-46"/>
      </defs>
      <g transform="translate(26.317187 304.476166)scale(0.1 -0.1)">
       <use xlink:href="#DejaVuSans-8722"/>
       <use x="83.789062" xlink:href="#DejaVuSans-48"/>
       <use x="147.412109" xlink:href="#DejaVuSans-46"/>
       <use x="179.199219" xlink:href="#DejaVuSans-50"/>
      </g>
     </g>
    </g>
    <g id="ytick_2">
     <g id="line2d_17">
      <path clip-path="url(#p793f818033)" d="M 57.6 254.300519 
L 414.72 254.300519 
" style="fill:none;stroke:#b0b0b0;stroke-linecap:square;stroke-width:0.8;"/>
     </g>
     <g id="line2d_18">
      <g>
       <use style="stroke:#000000;stroke-width:0.8;" x="57.6" xlink:href="#ma3b8416cde" y="254.300519"/>
      </g>
     </g>
     <g id="text_10">
      <!-- 0.0 -->
      <g transform="translate(34.696875 258.099738)scale(0.1 -0.1)">
       <use xlink:href="#DejaVuSans-48"/>
       <use x="63.623047" xlink:href="#DejaVuSans-46"/>
       <use x="95.410156" xlink:href="#DejaVuSans-48"/>
      </g>
     </g>
    </g>
    <g id="ytick_3">
     <g id="line2d_19">
      <path clip-path="url(#p793f818033)" d="M 57.6 207.924091 
L 414.72 207.924091 
" style="fill:none;stroke:#b0b0b0;stroke-linecap:square;stroke-width:0.8;"/>
     </g>
     <g id="line2d_20">
      <g>
       <use style="stroke:#000000;stroke-width:0.8;" x="57.6" xlink:href="#ma3b8416cde" y="207.924091"/>
      </g>
     </g>
     <g id="text_11">
      <!-- 0.2 -->
      <g transform="translate(34.696875 211.72331)scale(0.1 -0.1)">
       <use xlink:href="#DejaVuSans-48"/>
       <use x="63.623047" xlink:href="#DejaVuSans-46"/>
       <use x="95.410156" xlink:href="#DejaVuSans-50"/>
      </g>
     </g>
    </g>
    <g id="ytick_4">
     <g id="line2d_21">
      <path clip-path="url(#p793f818033)" d="M 57.6 161.547664 
L 414.72 161.547664 
" style="fill:none;stroke:#b0b0b0;stroke-linecap:square;stroke-width:0.8;"/>
     </g>
     <g id="line2d_22">
      <g>
       <use style="stroke:#000000;stroke-width:0.8;" x="57.6" xlink:href="#ma3b8416cde" y="161.547664"/>
      </g>
     </g>
     <g id="text_12">
      <!-- 0.4 -->
      <defs>
       <path d="M 37.796875 64.3125 
L 12.890625 25.390625 
L 37.796875 25.390625 
z
M 35.203125 72.90625 
L 47.609375 72.90625 
L 47.609375 25.390625 
L 58.015625 25.390625 
L 58.015625 17.1875 
L 47.609375 17.1875 
L 47.609375 0 
L 37.796875 0 
L 37.796875 17.1875 
L 4.890625 17.1875 
L 4.890625 26.703125 
z
" id="DejaVuSans-52"/>
      </defs>
      <g transform="translate(34.696875 165.346882)scale(0.1 -0.1)">
       <use xlink:href="#DejaVuSans-48"/>
       <use x="63.623047" xlink:href="#DejaVuSans-46"/>
       <use x="95.410156" xlink:href="#DejaVuSans-52"/>
      </g>
     </g>
    </g>
    <g id="ytick_5">
     <g id="line2d_23">
      <path clip-path="url(#p793f818033)" d="M 57.6 115.171236 
L 414.72 115.171236 
" style="fill:none;stroke:#b0b0b0;stroke-linecap:square;stroke-width:0.8;"/>
     </g>
     <g id="line2d_24">
      <g>
       <use style="stroke:#000000;stroke-width:0.8;" x="57.6" xlink:href="#ma3b8416cde" y="115.171236"/>
      </g>
     </g>
     <g id="text_13">
      <!-- 0.6 -->
      <defs>
       <path d="M 33.015625 40.375 
Q 26.375 40.375 22.484375 35.828125 
Q 18.609375 31.296875 18.609375 23.390625 
Q 18.609375 15.53125 22.484375 10.953125 
Q 26.375 6.390625 33.015625 6.390625 
Q 39.65625 6.390625 43.53125 10.953125 
Q 47.40625 15.53125 47.40625 23.390625 
Q 47.40625 31.296875 43.53125 35.828125 
Q 39.65625 40.375 33.015625 40.375 
z
M 52.59375 71.296875 
L 52.59375 62.3125 
Q 48.875 64.0625 45.09375 64.984375 
Q 41.3125 65.921875 37.59375 65.921875 
Q 27.828125 65.921875 22.671875 59.328125 
Q 17.53125 52.734375 16.796875 39.40625 
Q 19.671875 43.65625 24.015625 45.921875 
Q 28.375 48.1875 33.59375 48.1875 
Q 44.578125 48.1875 50.953125 41.515625 
Q 57.328125 34.859375 57.328125 23.390625 
Q 57.328125 12.15625 50.6875 5.359375 
Q 44.046875 -1.421875 33.015625 -1.421875 
Q 20.359375 -1.421875 13.671875 8.265625 
Q 6.984375 17.96875 6.984375 36.375 
Q 6.984375 53.65625 15.1875 63.9375 
Q 23.390625 74.21875 37.203125 74.21875 
Q 40.921875 74.21875 44.703125 73.484375 
Q 48.484375 72.75 52.59375 71.296875 
z
" id="DejaVuSans-54"/>
      </defs>
      <g transform="translate(34.696875 118.970454)scale(0.1 -0.1)">
       <use xlink:href="#DejaVuSans-48"/>
       <use x="63.623047" xlink:href="#DejaVuSans-46"/>
       <use x="95.410156" xlink:href="#DejaVuSans-54"/>
      </g>
     </g>
    </g>
    <g id="ytick_6">
     <g id="line2d_25">
      <path clip-path="url(#p793f818033)" d="M 57.6 68.794808 
L 414.72 68.794808 
" style="fill:none;stroke:#b0b0b0;stroke-linecap:square;stroke-width:0.8;"/>
     </g>
     <g id="line2d_26">
      <g>
       <use style="stroke:#000000;stroke-width:0.8;" x="57.6" xlink:href="#ma3b8416cde" y="68.794808"/>
      </g>
     </g>
     <g id="text_14">
      <!-- 0.8 -->
      <defs>
       <path d="M 31.78125 34.625 
Q 24.75 34.625 20.71875 30.859375 
Q 16.703125 27.09375 16.703125 20.515625 
Q 16.703125 13.921875 20.71875 10.15625 
Q 24.75 6.390625 31.78125 6.390625 
Q 38.8125 6.390625 42.859375 10.171875 
Q 46.921875 13.96875 46.921875 20.515625 
Q 46.921875 27.09375 42.890625 30.859375 
Q 38.875 34.625 31.78125 34.625 
z
M 21.921875 38.8125 
Q 15.578125 40.375 12.03125 44.71875 
Q 8.5 49.078125 8.5 55.328125 
Q 8.5 64.0625 14.71875 69.140625 
Q 20.953125 74.21875 31.78125 74.21875 
Q 42.671875 74.21875 48.875 69.140625 
Q 55.078125 64.0625 55.078125 55.328125 
Q 55.078125 49.078125 51.53125 44.71875 
Q 48 40.375 41.703125 38.8125 
Q 48.828125 37.15625 52.796875 32.3125 
Q 56.78125 27.484375 56.78125 20.515625 
Q 56.78125 9.90625 50.3125 4.234375 
Q 43.84375 -1.421875 31.78125 -1.421875 
Q 19.734375 -1.421875 13.25 4.234375 
Q 6.78125 9.90625 6.78125 20.515625 
Q 6.78125 27.484375 10.78125 32.3125 
Q 14.796875 37.15625 21.921875 38.8125 
z
M 18.3125 54.390625 
Q 18.3125 48.734375 21.84375 45.5625 
Q 25.390625 42.390625 31.78125 42.390625 
Q 38.140625 42.390625 41.71875 45.5625 
Q 45.3125 48.734375 45.3125 54.390625 
Q 45.3125 60.0625 41.71875 63.234375 
Q 38.140625 66.40625 31.78125 66.40625 
Q 25.390625 66.40625 21.84375 63.234375 
Q 18.3125 60.0625 18.3125 54.390625 
z
" id="DejaVuSans-56"/>
      </defs>
      <g transform="translate(34.696875 72.594027)scale(0.1 -0.1)">
       <use xlink:href="#DejaVuSans-48"/>
       <use x="63.623047" xlink:href="#DejaVuSans-46"/>
       <use x="95.410156" xlink:href="#DejaVuSans-56"/>
      </g>
     </g>
    </g>
    <g id="text_15">
     <!-- Scores -->
     <defs>
      <path d="M 53.515625 70.515625 
L 53.515625 60.890625 
Q 47.90625 63.578125 42.921875 64.890625 
Q 37.9375 66.21875 33.296875 66.21875 
Q 25.25 66.21875 20.875 63.09375 
Q 16.5 59.96875 16.5 54.203125 
Q 16.5 49.359375 19.40625 46.890625 
Q 22.3125 44.4375 30.421875 42.921875 
L 36.375 41.703125 
Q 47.40625 39.59375 52.65625 34.296875 
Q 57.90625 29 57.90625 20.125 
Q 57.90625 9.515625 50.796875 4.046875 
Q 43.703125 -1.421875 29.984375 -1.421875 
Q 24.8125 -1.421875 18.96875 -0.25 
Q 13.140625 0.921875 6.890625 3.21875 
L 6.890625 13.375 
Q 12.890625 10.015625 18.65625 8.296875 
Q 24.421875 6.59375 29.984375 6.59375 
Q 38.421875 6.59375 43.015625 9.90625 
Q 47.609375 13.234375 47.609375 19.390625 
Q 47.609375 24.75 44.3125 27.78125 
Q 41.015625 30.8125 33.5 32.328125 
L 27.484375 33.5 
Q 16.453125 35.6875 11.515625 40.375 
Q 6.59375 45.0625 6.59375 53.421875 
Q 6.59375 63.09375 13.40625 68.65625 
Q 20.21875 74.21875 32.171875 74.21875 
Q 37.3125 74.21875 42.625 73.28125 
Q 47.953125 72.359375 53.515625 70.515625 
z
" id="DejaVuSans-83"/>
      <path d="M 48.78125 52.59375 
L 48.78125 44.1875 
Q 44.96875 46.296875 41.140625 47.34375 
Q 37.3125 48.390625 33.40625 48.390625 
Q 24.65625 48.390625 19.8125 42.84375 
Q 14.984375 37.3125 14.984375 27.296875 
Q 14.984375 17.28125 19.8125 11.734375 
Q 24.65625 6.203125 33.40625 6.203125 
Q 37.3125 6.203125 41.140625 7.25 
Q 44.96875 8.296875 48.78125 10.40625 
L 48.78125 2.09375 
Q 45.015625 0.34375 40.984375 -0.53125 
Q 36.96875 -1.421875 32.421875 -1.421875 
Q 20.0625 -1.421875 12.78125 6.34375 
Q 5.515625 14.109375 5.515625 27.296875 
Q 5.515625 40.671875 12.859375 48.328125 
Q 20.21875 56 33.015625 56 
Q 37.15625 56 41.109375 55.140625 
Q 45.0625 54.296875 48.78125 52.59375 
z
" id="DejaVuSans-99"/>
     </defs>
     <g transform="translate(20.2375 191.245969)rotate(-90)scale(0.1 -0.1)">
      <use xlink:href="#DejaVuSans-83"/>
      <use x="63.476562" xlink:href="#DejaVuSans-99"/>
      <use x="118.457031" xlink:href="#DejaVuSans-111"/>
      <use x="179.638672" xlink:href="#DejaVuSans-114"/>
      <use x="220.720703" xlink:href="#DejaVuSans-101"/>
      <use x="282.244141" xlink:href="#DejaVuSans-115"/>
     </g>
    </g>
   </g>
   <g id="line2d_27">
    <path clip-path="url(#p793f818033)" d="M 73.832727 137.590926 
L 74.918528 133.582678 
L 76.00433 133.913938 
L 77.090131 134.125944 
L 78.175932 140.784274 
L 79.261733 143.215724 
L 80.347534 144.964778 
L 81.433335 149.185033 
L 82.519137 149.291036 
L 83.604938 157.976679 
L 84.690739 147.091468 
L 85.77654 144.527515 
L 86.862341 135.60999 
L 87.948142 140.16813 
L 90.119745 145.892307 
L 91.205546 140.810775 
L 92.291347 149.622296 
L 93.377148 140.360261 
L 94.462949 133.523051 
L 95.54875 144.752771 
L 96.634552 145.103907 
L 97.720353 135.1396 
L 98.806154 140.65177 
L 99.891955 138.352824 
L 100.977756 138.485328 
L 102.063557 138.438952 
L 103.149358 136.418265 
L 104.23516 137.624052 
L 105.320961 140.095253 
L 106.406762 139.426107 
L 107.492563 136.385139 
L 108.578364 136.232759 
L 109.664165 136.776026 
L 110.749967 138.85634 
L 112.921569 135.821996 
L 114.00737 138.684085 
L 116.178972 131.860124 
L 117.264773 136.709774 
L 118.350575 138.657584 
L 119.436376 139.1876 
L 120.522177 136.90853 
L 121.607978 138.53833 
L 122.693779 135.44436 
L 123.77958 134.364452 
L 124.865382 137.332543 
L 125.951183 142.990467 
L 127.036984 137.743306 
L 128.122785 139.843495 
L 129.208586 140.976405 
L 130.294387 139.532111 
L 131.380189 137.206664 
L 132.46599 138.657584 
L 133.551791 136.974782 
L 134.637592 139.472484 
L 136.809194 135.371483 
L 137.894995 138.53833 
L 140.066598 138.756962 
L 141.152399 138.260072 
L 142.2382 138.034815 
L 143.324001 140.658395 
L 144.409802 140.274134 
L 145.495604 138.339574 
L 146.581405 137.398795 
L 147.667206 137.604176 
L 148.753007 138.081191 
L 149.838808 139.101472 
L 150.924609 138.35945 
L 152.01041 140.33376 
L 153.096212 138.723836 
L 154.182013 139.366481 
L 155.267814 137.166913 
L 156.353615 139.432733 
L 157.439416 138.35945 
L 158.525217 139.1876 
L 159.611019 139.426107 
L 160.69682 138.829839 
L 161.782621 140.406638 
L 162.868422 138.35945 
L 163.954223 138.260072 
L 165.040024 139.306854 
L 166.125825 138.922592 
L 167.211627 138.008314 
L 168.297428 138.942468 
L 169.383229 137.763181 
L 170.46903 139.002094 
L 171.554831 138.200445 
L 172.640632 142.871214 
L 173.726434 137.816183 
L 174.812235 136.961532 
L 175.898036 142.036438 
L 176.983837 141.161911 
L 178.069638 140.764399 
L 179.155439 140.671646 
L 180.24124 139.783868 
L 181.327042 142.473701 
L 182.412843 134.702337 
L 183.498644 137.855934 
L 184.584445 138.299823 
L 186.756047 138.511829 
L 187.841849 141.108909 
L 188.92765 139.936248 
L 190.013451 138.081191 
L 191.099252 137.511423 
L 192.185053 134.62946 
L 194.356656 138.35945 
L 196.528258 138.392576 
L 197.614059 138.048065 
L 199.785661 138.223048 
L 200.871462 138.637708 
L 203.043065 138.268515 
L 205.214667 138.35945 
L 206.300468 138.286572 
L 207.386269 138.518454 
L 208.472071 138.008314 
L 209.557872 138.35945 
L 210.643673 138.313983 
L 212.815275 136.183525 
L 213.901076 136.491142 
L 214.986877 137.352419 
L 216.072679 141.516164 
L 217.15848 140.788691 
L 219.330082 138.995469 
L 220.415883 137.460783 
L 221.501684 142.427325 
L 222.587486 138.339574 
L 224.759088 138.425702 
L 225.844889 136.961532 
L 226.93069 136.530893 
L 228.016491 137.57105 
L 229.102292 136.345388 
L 230.188094 138.35945 
L 233.445497 138.35945 
L 234.531298 140.446389 
L 235.617099 138.52508 
L 236.702901 135.77562 
L 237.788702 137.981813 
L 238.874503 137.418671 
L 239.960304 137.981813 
L 241.046105 138.107692 
L 242.131906 137.975188 
L 243.217708 137.465047 
L 244.303509 137.643928 
L 245.38931 138.909342 
L 246.475111 137.730055 
L 247.560912 138.710585 
L 248.646713 139.207476 
L 249.732514 137.431921 
L 250.818316 138.240196 
L 251.904117 138.35945 
L 255.16152 138.35945 
L 256.247321 138.85634 
L 257.333123 138.35945 
L 258.418924 138.670834 
L 259.504725 138.770212 
L 260.590526 141.234788 
L 261.676327 140.433138 
L 262.762128 138.35945 
L 263.847929 138.35945 
L 264.933731 139.00872 
L 266.019532 139.17435 
L 267.105333 137.610802 
L 268.191134 138.35945 
L 269.276935 137.749931 
L 270.362736 137.365669 
L 271.448538 140.15488 
L 272.534339 132.800903 
L 273.62014 133.112288 
L 274.705941 132.184759 
L 275.791742 136.703149 
L 276.877543 136.080379 
L 277.963344 135.669617 
L 279.049146 136.000877 
L 280.134947 130.813342 
L 281.220748 129.634056 
L 282.306549 134.828216 
L 283.39235 138.05469 
L 284.478151 142.785086 
L 285.563953 140.718022 
L 286.649754 138.35945 
L 287.735555 137.133787 
L 288.821356 138.438952 
L 289.907157 140.903528 
L 290.992958 138.35945 
L 292.07876 138.35945 
L 293.164561 138.094441 
L 294.250362 137.663803 
L 295.336163 138.399201 
L 296.421964 139.439358 
L 297.507765 138.101067 
L 298.593566 138.35945 
L 299.679368 139.207476 
L 301.85097 138.35945 
L 308.365777 138.35945 
L 309.451578 138.631083 
L 310.537379 138.35945 
L 313.794783 138.35945 
L 314.880584 135.802121 
L 315.966385 136.497767 
L 317.052186 134.993846 
L 319.223788 133.907313 
L 320.30959 138.35945 
L 321.395391 137.964614 
L 322.481192 136.184509 
L 323.566993 138.70744 
L 324.652794 139.830245 
L 325.738595 139.65799 
L 326.824396 139.088222 
L 327.910198 139.809123 
L 328.995999 138.458828 
L 330.0818 140.478203 
L 331.167601 139.17435 
L 332.253402 139.68449 
L 333.339203 137.422552 
L 334.425005 138.048065 
L 336.596607 138.246821 
L 337.682408 139.088222 
L 338.768209 139.461464 
L 339.85401 138.35945 
L 342.025613 138.35945 
L 343.111414 137.188328 
L 344.197215 139.415546 
L 345.283016 138.35945 
L 346.368817 139.205639 
L 347.454618 138.339574 
L 348.54042 138.844861 
L 349.626221 137.849309 
L 350.712022 138.589036 
L 351.797823 138.208579 
L 352.883624 137.563087 
L 355.055227 139.422106 
L 357.226829 137.449321 
L 358.31263 138.35945 
L 359.398431 137.235173 
L 360.484232 137.422552 
L 361.570033 138.35945 
L 384.371858 138.35945 
L 385.457659 138.485328 
L 386.54346 138.35945 
L 391.972466 138.35945 
L 394.144068 139.498985 
L 395.229869 138.35945 
L 398.487273 138.35945 
L 398.487273 138.35945 
" style="fill:none;stroke:#0000ff;stroke-linecap:square;stroke-width:1.5;"/>
   </g>
   <g id="line2d_28">
    <path clip-path="url(#p793f818033)" d="M 73.832727 206.80664 
L 74.918528 210.472587 
L 76.00433 215.626995 
L 77.090131 208.228851 
L 78.175932 211.554703 
L 79.261733 188.242819 
L 80.347534 192.743541 
L 81.433335 193.414895 
L 82.519137 204.554071 
L 83.604938 228.912738 
L 84.690739 200.658451 
L 85.77654 211.567954 
L 86.862341 192.549201 
L 87.948142 200.269772 
L 89.033943 193.701987 
L 90.119745 165.399115 
L 91.205546 170.655111 
L 92.291347 189.400021 
L 93.377148 157.705045 
L 94.462949 168.058031 
L 96.634552 207.133484 
L 97.720353 193.971412 
L 98.806154 211.148357 
L 99.891955 204.629157 
L 100.977756 187.84089 
L 102.063557 175.376673 
L 103.149358 187.836473 
L 104.23516 185.946081 
L 105.320961 166.529817 
L 106.406762 161.507912 
L 107.492563 165.341697 
L 108.578364 158.327814 
L 109.664165 183.865767 
L 110.749967 190.066958 
L 111.835768 153.42958 
L 112.921569 175.677015 
L 114.00737 134.614001 
L 116.178972 195.11978 
L 117.264773 191.056322 
L 118.350575 198.419132 
L 119.436376 203.485205 
L 120.522177 214.081114 
L 121.607978 220.6489 
L 122.693779 211.311779 
L 123.77958 203.00819 
L 124.865382 188.17215 
L 125.951183 195.52171 
L 127.036984 187.350625 
L 128.122785 171.971318 
L 129.208586 194.192252 
L 130.294387 203.785547 
L 131.380189 216.828366 
L 132.46599 248.112579 
L 133.551791 231.57607 
L 134.637592 224.615189 
L 135.723393 220.953659 
L 136.809194 229.43392 
L 137.894995 222.954471 
L 138.980797 230.909132 
L 140.066598 202.778516 
L 141.152399 207.734169 
L 142.2382 211.554703 
L 143.324001 224.858113 
L 144.409802 223.272481 
L 145.495604 242.936086 
L 146.581405 252.759055 
L 147.667206 237.86118 
L 148.753007 249.773297 
L 149.838808 251.19109 
L 150.924609 250.820079 
L 152.01041 240.740935 
L 153.096212 221.580845 
L 154.182013 214.032529 
L 155.267814 224.942032 
L 157.439416 198.776893 
L 158.525217 189.276351 
L 159.611019 205.870278 
L 160.69682 208.43644 
L 161.782621 226.576249 
L 162.868422 240.073998 
L 163.954223 225.719389 
L 165.040024 202.977272 
L 166.125825 161.786171 
L 167.211627 170.42102 
L 168.297428 175.482676 
L 169.383229 226.311241 
L 170.46903 218.718757 
L 171.554831 209.112211 
L 172.640632 202.301502 
L 173.726434 205.92328 
L 174.812235 222.561375 
L 175.898036 224.133757 
L 176.983837 215.693247 
L 178.069638 196.656828 
L 179.155439 202.548843 
L 180.24124 196.007558 
L 181.327042 169.851253 
L 182.412843 185.014136 
L 183.498644 194.24967 
L 184.584445 227.967542 
L 185.670246 229.115911 
L 186.756047 241.372538 
L 187.841849 198.626722 
L 188.92765 240.69235 
L 190.013451 247.026045 
L 191.099252 241.129614 
L 192.185053 221.10383 
L 193.270854 245.11357 
L 194.356656 250.577155 
L 195.442457 250.76266 
L 196.528258 243.395433 
L 197.614059 245.440413 
L 198.69986 240.643765 
L 199.785661 241.413848 
L 200.871462 232.088419 
L 201.957264 232.000083 
L 203.043065 218.827532 
L 204.128866 219.107436 
L 205.214667 218.722723 
L 206.300468 215.291318 
L 207.386269 216.64286 
L 208.472071 224.124924 
L 209.557872 241.383625 
L 210.643673 219.0094 
L 211.729474 218.206408 
L 212.815275 217.160405 
L 213.901076 208.193516 
L 214.986877 173.910294 
L 216.072679 196.375451 
L 217.15848 194.742967 
L 218.244281 196.705413 
L 219.330082 150.130229 
L 220.415883 203.043524 
L 222.587486 160.390461 
L 223.673287 222.459789 
L 224.759088 208.564528 
L 225.844889 192.580119 
L 226.93069 199.973847 
L 228.016491 169.475824 
L 229.102292 209.916069 
L 230.188094 192.253276 
L 231.273895 226.907509 
L 232.359696 246.884708 
L 233.445497 250.060389 
L 234.531298 213.334675 
L 235.617099 214.801053 
L 236.702901 225.19379 
L 237.788702 205.353512 
L 238.874503 218.020902 
L 239.960304 225.410213 
L 241.046105 220.34414 
L 242.131906 194.819438 
L 243.217708 222.59671 
L 244.303509 229.663594 
L 245.38931 220.905074 
L 246.475111 222.115278 
L 247.560912 189.294018 
L 248.646713 207.394075 
L 249.732514 200.31394 
L 251.904117 234.663415 
L 252.989918 247.176217 
L 254.075719 249.98972 
L 255.16152 246.708035 
L 256.247321 253.969259 
L 257.333123 250.073639 
L 258.418924 242.189646 
L 259.504725 245.630336 
L 260.590526 218.555335 
L 261.676327 239.786906 
L 262.762128 196.020808 
L 263.847929 181.308439 
L 264.933731 164.683593 
L 266.019532 203.8783 
L 267.105333 162.400106 
L 268.191134 159.970865 
L 269.276935 162.42219 
L 270.362736 179.28996 
L 271.448538 180.561999 
L 272.534339 175.716766 
L 273.62014 186.77644 
L 274.705941 172.717757 
L 275.791742 187.787888 
L 276.877543 182.602562 
L 277.963344 213.74102 
L 279.049146 225.670804 
L 280.134947 205.07967 
L 281.220748 186.745523 
L 282.306549 195.958973 
L 283.39235 228.236967 
L 284.478151 231.69974 
L 285.563953 243.934283 
L 286.649754 254.300519 
L 287.735555 247.61348 
L 288.821356 248.885519 
L 289.907157 233.378125 
L 290.992958 250.850996 
L 292.07876 254.300519 
L 293.164561 243.090674 
L 294.250362 247.582562 
L 295.336163 243.311514 
L 296.421964 236.840898 
L 297.507765 213.599683 
L 298.593566 232.627269 
L 299.679368 246.359108 
L 300.765169 248.090495 
L 301.85097 254.300519 
L 304.022572 254.300519 
L 305.108373 250.696408 
L 306.194175 250.192893 
L 307.279976 230.705959 
L 308.365777 223.03839 
L 309.451578 249.848382 
L 310.537379 254.300519 
L 311.62318 254.300519 
L 312.708981 250.621323 
L 313.794783 254.300519 
L 315.966385 225.834226 
L 317.052186 239.967995 
L 318.137987 244.844145 
L 319.223788 241.942305 
L 320.30959 247.335221 
L 321.395391 250.658911 
L 322.481192 252.385069 
L 323.566993 248.40544 
L 324.652794 242.763831 
L 325.738595 246.500446 
L 326.824396 240.060747 
L 327.910198 207.192288 
L 328.995999 236.204879 
L 330.0818 223.127419 
L 331.167601 223.431485 
L 332.253402 230.370282 
L 333.339203 225.884253 
L 334.425005 225.997648 
L 335.510806 218.179907 
L 336.596607 239.623484 
L 337.682408 247.882905 
L 338.768209 250.290755 
L 339.85401 254.300519 
L 340.939811 254.300519 
L 342.025613 250.943749 
L 343.111414 254.300519 
L 344.197215 254.183604 
L 345.283016 234.009728 
L 346.368817 243.85608 
L 347.454618 252.498464 
L 348.54042 220.74581 
L 349.626221 221.607346 
L 350.712022 219.940393 
L 351.797823 204.83233 
L 352.883624 218.479348 
L 353.969425 219.509365 
L 355.055227 218.619682 
L 356.141028 228.055878 
L 357.226829 235.682344 
L 358.31263 254.300519 
L 359.398431 250.04146 
L 360.484232 237.408503 
L 361.570033 246.880291 
L 362.655835 250.263562 
L 363.741636 250.608072 
L 364.827437 254.300519 
L 365.913238 248.046327 
L 366.999039 250.926082 
L 368.08484 254.300519 
L 369.170642 247.330805 
L 370.256443 250.338647 
L 371.342244 247.220385 
L 372.428045 254.300519 
L 373.513846 246.138268 
L 375.685448 202.968439 
L 376.77125 207.721279 
L 377.857051 219.407778 
L 378.942852 251.372179 
L 380.028653 254.300519 
L 381.114454 250.837746 
L 382.200255 254.300519 
L 384.371858 254.300519 
L 385.457659 253.200735 
L 386.54346 250.192893 
L 387.629261 254.300519 
L 388.715062 254.300519 
L 389.800863 250.016221 
L 390.886665 244.614471 
L 391.972466 254.300519 
L 393.058267 251.283843 
L 394.144068 246.306106 
L 396.31567 254.300519 
L 397.401472 246.584365 
L 398.487273 221.991608 
L 398.487273 221.991608 
" style="fill:none;stroke:#ff0000;stroke-linecap:square;stroke-width:1.5;"/>
   </g>
   <g id="line2d_29">
    <path clip-path="url(#p793f818033)" d="M 73.832727 242.229398 
L 74.918528 242.32215 
L 76.00433 244.309712 
L 77.090131 241.368121 
L 78.175932 241.739132 
L 79.261733 234.875421 
L 80.347534 234.703166 
L 81.433335 234.080397 
L 82.519137 235.286184 
L 83.604938 242.560658 
L 84.690739 230.184777 
L 85.77654 235.034426 
L 86.862341 225.056869 
L 87.948142 229.190996 
L 89.033943 224.367848 
L 90.119745 211.726958 
L 91.205546 217.742644 
L 92.291347 225.785641 
L 93.377148 208.348104 
L 95.54875 222.433288 
L 96.634552 234.636914 
L 97.720353 225.401379 
L 98.806154 233.311873 
L 99.891955 232.914361 
L 100.977756 223.215062 
L 102.063557 216.165845 
L 103.149358 224.381098 
L 104.23516 221.386506 
L 105.320961 210.653675 
L 106.406762 208.361355 
L 107.492563 210.335666 
L 108.578364 208.030095 
L 109.664165 222.989805 
L 110.749967 219.425445 
L 111.835768 205.843777 
L 112.921569 215.847835 
L 114.00737 196.369736 
L 116.178972 224.248594 
L 117.264773 222.857301 
L 118.350575 227.243186 
L 119.436376 228.422472 
L 120.522177 236.12096 
L 121.607978 237.247244 
L 122.693779 234.106897 
L 124.865382 222.936804 
L 125.951183 228.210466 
L 127.036984 219.054434 
L 128.122785 206.135286 
L 129.208586 221.545511 
L 130.294387 223.559573 
L 131.380189 234.888672 
L 132.46599 251.305927 
L 133.551791 240.69235 
L 134.637592 236.028207 
L 135.723393 235.127179 
L 136.809194 241.182615 
L 137.894995 234.703166 
L 138.980797 238.837293 
L 140.066598 220.273472 
L 141.152399 227.123933 
L 142.2382 227.627448 
L 143.324001 237.989267 
L 144.409802 234.729667 
L 145.495604 246.999544 
L 146.581405 253.306739 
L 147.667206 246.721286 
L 148.753007 251.41193 
L 149.838808 252.935727 
L 150.924609 252.630968 
L 152.01041 245.064985 
L 153.096212 231.708574 
L 154.182013 230.966551 
L 155.267814 235.948704 
L 156.353615 226.103651 
L 157.439416 218.458166 
L 158.525217 215.516575 
L 159.611019 228.939238 
L 160.69682 225.202623 
L 161.782621 237.180992 
L 162.868422 246.310523 
L 163.954223 235.988455 
L 165.040024 224.222093 
L 166.125825 196.952754 
L 167.211627 200.278606 
L 168.297428 207.924091 
L 169.383229 236.067958 
L 170.46903 232.768606 
L 171.554831 226.832424 
L 172.640632 223.864332 
L 173.726434 223.864332 
L 174.812235 233.378125 
L 175.898036 234.305654 
L 176.983837 229.946269 
L 178.069638 220.750486 
L 179.155439 225.467632 
L 180.24124 215.238317 
L 181.327042 201.497644 
L 182.412843 211.991967 
L 183.498644 220.101216 
L 184.584445 237.207493 
L 185.670246 238.492783 
L 186.756047 247.065796 
L 187.841849 219.756706 
L 188.92765 246.390026 
L 190.013451 249.411119 
L 191.099252 247.450058 
L 192.185053 234.000894 
L 193.270854 249.344867 
L 194.356656 252.0612 
L 195.442457 252.551465 
L 196.528258 248.231832 
L 197.614059 249.397868 
L 198.69986 246.257522 
L 199.785661 245.142149 
L 200.871462 239.632318 
L 201.957264 240.612848 
L 203.043065 230.176982 
L 204.128866 229.535507 
L 205.214667 234.573636 
L 206.300468 226.289157 
L 207.386269 234.424907 
L 208.472071 238.492783 
L 209.557872 243.713714 
L 210.643673 230.77455 
L 211.729474 227.322689 
L 212.815275 229.47549 
L 213.901076 222.022525 
L 214.986877 195.190449 
L 216.072679 217.290311 
L 217.15848 214.172568 
L 218.244281 213.635017 
L 219.330082 182.907321 
L 220.415883 220.723985 
L 222.587486 193.494397 
L 223.673287 235.908953 
L 225.844889 211.302945 
L 226.93069 214.999809 
L 228.016491 196.025225 
L 229.102292 225.666388 
L 230.188094 215.940588 
L 231.273895 235.365686 
L 232.359696 249.861633 
L 233.445497 250.74941 
L 234.531298 227.68045 
L 235.617099 231.483317 
L 236.702901 236.505221 
L 237.788702 223.109059 
L 238.874503 232.22534 
L 239.960304 236.730478 
L 241.046105 232.88786 
L 242.131906 219.769956 
L 243.217708 231.483317 
L 244.303509 239.923827 
L 245.38931 236.160711 
L 246.475111 233.881641 
L 247.560912 213.476012 
L 248.646713 222.526041 
L 249.732514 215.582827 
L 250.818316 229.615009 
L 251.904117 240.493594 
L 252.989918 249.715878 
L 254.075719 250.590405 
L 255.16152 249.331616 
L 256.247321 254.194516 
L 257.333123 250.789161 
L 258.418924 246.933292 
L 259.504725 248.48359 
L 260.590526 227.958708 
L 261.676327 242.746163 
L 262.762128 213.423011 
L 263.847929 198.940315 
L 264.933731 187.438961 
L 266.019532 221.254002 
L 267.105333 193.520898 
L 268.191134 192.646371 
L 269.276935 195.627713 
L 270.362736 205.433015 
L 271.448538 203.034691 
L 272.534339 196.647994 
L 273.62014 209.858651 
L 274.705941 195.402456 
L 275.791742 211.554703 
L 276.877543 208.228851 
L 277.963344 227.839455 
L 279.049146 235.935454 
L 281.220748 205.512517 
L 282.306549 216.232097 
L 283.39235 240.785103 
L 284.478151 237.247244 
L 285.563953 247.291053 
L 286.649754 254.300519 
L 287.735555 249.994137 
L 288.821356 249.702628 
L 289.907157 240.904357 
L 290.992958 252.71047 
L 292.07876 254.300519 
L 293.164561 248.324585 
L 294.250362 249.967636 
L 295.336163 246.125018 
L 296.421964 240.824854 
L 297.507765 226.633667 
L 298.593566 241.050111 
L 299.679368 249.053358 
L 300.765169 251.173423 
L 301.85097 254.300519 
L 304.022572 254.300519 
L 305.108373 252.498464 
L 306.194175 251.120421 
L 307.279976 237.76401 
L 308.365777 236.478721 
L 309.451578 250.656657 
L 310.537379 254.300519 
L 311.62318 254.300519 
L 312.708981 252.114202 
L 313.794783 254.300519 
L 314.880584 243.064173 
L 315.966385 233.258871 
L 317.052186 244.495217 
L 318.137987 247.940323 
L 319.223788 246.734536 
L 320.30959 250.696408 
L 321.395391 252.583375 
L 322.481192 252.826749 
L 323.566993 250.04146 
L 324.652794 246.509279 
L 325.738595 249.78213 
L 326.824396 243.514687 
L 327.910198 221.551227 
L 328.995999 241.778884 
L 330.0818 232.892017 
L 331.167601 234.1864 
L 332.253402 239.71182 
L 333.339203 234.78997 
L 334.425005 235.988455 
L 335.510806 230.198027 
L 336.596607 243.474936 
L 337.682408 249.649626 
L 338.768209 251.299692 
L 339.85401 254.300519 
L 340.939811 254.300519 
L 342.025613 252.842974 
L 343.111414 254.300519 
L 344.197215 254.261547 
L 345.283016 238.612036 
L 346.368817 249.039328 
L 347.454618 252.856225 
L 348.54042 231.463051 
L 349.626221 234.888672 
L 350.712022 236.633309 
L 351.797823 221.291415 
L 352.883624 232.761846 
L 353.969425 231.60257 
L 355.055227 228.799979 
L 356.141028 237.366498 
L 357.226829 241.861361 
L 358.31263 254.300519 
L 359.398431 250.70398 
L 360.484232 246.228587 
L 361.570033 249.609875 
L 362.655835 251.332428 
L 363.741636 252.114202 
L 364.827437 254.300519 
L 365.913238 251.597436 
L 366.999039 252.816474 
L 368.08484 254.300519 
L 369.170642 249.967636 
L 370.256443 251.305927 
L 371.342244 250.630156 
L 372.428045 254.300519 
L 373.513846 247.83432 
L 374.599647 237.419499 
L 375.685448 217.265629 
L 377.857051 229.760764 
L 378.942852 253.107983 
L 380.028653 254.300519 
L 381.114454 252.670719 
L 382.200255 254.300519 
L 385.457659 254.300519 
L 386.54346 251.08067 
L 387.629261 254.300519 
L 388.715062 254.300519 
L 389.800863 250.630156 
L 390.886665 249.344867 
L 391.972466 254.300519 
L 393.058267 252.021449 
L 394.144068 250.537403 
L 395.229869 251.09392 
L 396.31567 254.300519 
L 397.401472 248.960605 
L 398.487273 234.491159 
L 398.487273 234.491159 
" style="fill:none;stroke:#008000;stroke-linecap:square;stroke-width:1.5;"/>
   </g>
   <g id="patch_3">
    <path d="M 57.6 307.584 
L 57.6 41.472 
" style="fill:none;stroke:#000000;stroke-linecap:square;stroke-linejoin:miter;stroke-width:0.8;"/>
   </g>
   <g id="patch_4">
    <path d="M 414.72 307.584 
L 414.72 41.472 
" style="fill:none;stroke:#000000;stroke-linecap:square;stroke-linejoin:miter;stroke-width:0.8;"/>
   </g>
   <g id="patch_5">
    <path d="M 57.6 307.584 
L 414.72 307.584 
" style="fill:none;stroke:#000000;stroke-linecap:square;stroke-linejoin:miter;stroke-width:0.8;"/>
   </g>
   <g id="patch_6">
    <path d="M 57.6 41.472 
L 414.72 41.472 
" style="fill:none;stroke:#000000;stroke-linecap:square;stroke-linejoin:miter;stroke-width:0.8;"/>
   </g>
   <g id="text_16">
    <!-- Scores by generation -->
    <defs>
     <path id="DejaVuSans-32"/>
     <path d="M 48.6875 27.296875 
Q 48.6875 37.203125 44.609375 42.84375 
Q 40.53125 48.484375 33.40625 48.484375 
Q 26.265625 48.484375 22.1875 42.84375 
Q 18.109375 37.203125 18.109375 27.296875 
Q 18.109375 17.390625 22.1875 11.75 
Q 26.265625 6.109375 33.40625 6.109375 
Q 40.53125 6.109375 44.609375 11.75 
Q 48.6875 17.390625 48.6875 27.296875 
z
M 18.109375 46.390625 
Q 20.953125 51.265625 25.265625 53.625 
Q 29.59375 56 35.59375 56 
Q 45.5625 56 51.78125 48.09375 
Q 58.015625 40.1875 58.015625 27.296875 
Q 58.015625 14.40625 51.78125 6.484375 
Q 45.5625 -1.421875 35.59375 -1.421875 
Q 29.59375 -1.421875 25.265625 0.953125 
Q 20.953125 3.328125 18.109375 8.203125 
L 18.109375 0 
L 9.078125 0 
L 9.078125 75.984375 
L 18.109375 75.984375 
z
" id="DejaVuSans-98"/>
     <path d="M 32.171875 -5.078125 
Q 28.375 -14.84375 24.75 -17.8125 
Q 21.140625 -20.796875 15.09375 -20.796875 
L 7.90625 -20.796875 
L 7.90625 -13.28125 
L 13.1875 -13.28125 
Q 16.890625 -13.28125 18.9375 -11.515625 
Q 21 -9.765625 23.484375 -3.21875 
L 25.09375 0.875 
L 2.984375 54.6875 
L 12.5 54.6875 
L 29.59375 11.921875 
L 46.6875 54.6875 
L 56.203125 54.6875 
z
" id="DejaVuSans-121"/>
     <path d="M 45.40625 27.984375 
Q 45.40625 37.75 41.375 43.109375 
Q 37.359375 48.484375 30.078125 48.484375 
Q 22.859375 48.484375 18.828125 43.109375 
Q 14.796875 37.75 14.796875 27.984375 
Q 14.796875 18.265625 18.828125 12.890625 
Q 22.859375 7.515625 30.078125 7.515625 
Q 37.359375 7.515625 41.375 12.890625 
Q 45.40625 18.265625 45.40625 27.984375 
z
M 54.390625 6.78125 
Q 54.390625 -7.171875 48.1875 -13.984375 
Q 42 -20.796875 29.203125 -20.796875 
Q 24.46875 -20.796875 20.265625 -20.09375 
Q 16.0625 -19.390625 12.109375 -17.921875 
L 12.109375 -9.1875 
Q 16.0625 -11.328125 19.921875 -12.34375 
Q 23.78125 -13.375 27.78125 -13.375 
Q 36.625 -13.375 41.015625 -8.765625 
Q 45.40625 -4.15625 45.40625 5.171875 
L 45.40625 9.625 
Q 42.625 4.78125 38.28125 2.390625 
Q 33.9375 0 27.875 0 
Q 17.828125 0 11.671875 7.65625 
Q 5.515625 15.328125 5.515625 27.984375 
Q 5.515625 40.671875 11.671875 48.328125 
Q 17.828125 56 27.875 56 
Q 33.9375 56 38.28125 53.609375 
Q 42.625 51.21875 45.40625 46.390625 
L 45.40625 54.6875 
L 54.390625 54.6875 
z
" id="DejaVuSans-103"/>
    </defs>
    <g transform="translate(172.292812 35.472)scale(0.12 -0.12)">
     <use xlink:href="#DejaVuSans-83"/>
     <use x="63.476562" xlink:href="#DejaVuSans-99"/>
     <use x="118.457031" xlink:href="#DejaVuSans-111"/>
     <use x="179.638672" xlink:href="#DejaVuSans-114"/>
     <use x="220.720703" xlink:href="#DejaVuSans-101"/>
     <use x="282.244141" xlink:href="#DejaVuSans-115"/>
     <use x="334.34375" xlink:href="#DejaVuSans-32"/>
     <use x="366.130859" xlink:href="#DejaVuSans-98"/>
     <use x="429.607422" xlink:href="#DejaVuSans-121"/>
     <use x="488.787109" xlink:href="#DejaVuSans-32"/>
     <use x="520.574219" xlink:href="#DejaVuSans-103"/>
     <use x="584.050781" xlink:href="#DejaVuSans-101"/>
     <use x="645.574219" xlink:href="#DejaVuSans-110"/>
     <use x="708.953125" xlink:href="#DejaVuSans-101"/>
     <use x="770.476562" xlink:href="#DejaVuSans-114"/>
     <use x="811.589844" xlink:href="#DejaVuSans-97"/>
     <use x="872.869141" xlink:href="#DejaVuSans-116"/>
     <use x="912.078125" xlink:href="#DejaVuSans-105"/>
     <use x="939.861328" xlink:href="#DejaVuSans-111"/>
     <use x="1001.042969" xlink:href="#DejaVuSans-110"/>
    </g>
   </g>
   <g id="legend_1">
    <g id="patch_7">
     <path d="M 338.37 93.506375 
L 407.72 93.506375 
Q 409.72 93.506375 409.72 91.506375 
L 409.72 48.472 
Q 409.72 46.472 407.72 46.472 
L 338.37 46.472 
Q 336.37 46.472 336.37 48.472 
L 336.37 91.506375 
Q 336.37 93.506375 338.37 93.506375 
z
" style="fill:#ffffff;opacity:0.8;stroke:#cccccc;stroke-linejoin:miter;"/>
    </g>
    <g id="line2d_30">
     <path d="M 340.37 54.570438 
L 360.37 54.570438 
" style="fill:none;stroke:#0000ff;stroke-linecap:square;stroke-width:1.5;"/>
    </g>
    <g id="line2d_31"/>
    <g id="text_17">
     <!-- species -->
     <defs>
      <path d="M 18.109375 8.203125 
L 18.109375 -20.796875 
L 9.078125 -20.796875 
L 9.078125 54.6875 
L 18.109375 54.6875 
L 18.109375 46.390625 
Q 20.953125 51.265625 25.265625 53.625 
Q 29.59375 56 35.59375 56 
Q 45.5625 56 51.78125 48.09375 
Q 58.015625 40.1875 58.015625 27.296875 
Q 58.015625 14.40625 51.78125 6.484375 
Q 45.5625 -1.421875 35.59375 -1.421875 
Q 29.59375 -1.421875 25.265625 0.953125 
Q 20.953125 3.328125 18.109375 8.203125 
z
M 48.6875 27.296875 
Q 48.6875 37.203125 44.609375 42.84375 
Q 40.53125 48.484375 33.40625 48.484375 
Q 26.265625 48.484375 22.1875 42.84375 
Q 18.109375 37.203125 18.109375 27.296875 
Q 18.109375 17.390625 22.1875 11.75 
Q 26.265625 6.109375 33.40625 6.109375 
Q 40.53125 6.109375 44.609375 11.75 
Q 48.6875 17.390625 48.6875 27.296875 
z
" id="DejaVuSans-112"/>
     </defs>
     <g transform="translate(368.37 58.070438)scale(0.1 -0.1)">
      <use xlink:href="#DejaVuSans-115"/>
      <use x="52.099609" xlink:href="#DejaVuSans-112"/>
      <use x="115.576172" xlink:href="#DejaVuSans-101"/>
      <use x="177.099609" xlink:href="#DejaVuSans-99"/>
      <use x="232.080078" xlink:href="#DejaVuSans-105"/>
      <use x="259.863281" xlink:href="#DejaVuSans-101"/>
      <use x="321.386719" xlink:href="#DejaVuSans-115"/>
     </g>
    </g>
    <g id="line2d_32">
     <path d="M 340.37 69.248563 
L 360.37 69.248563 
" style="fill:none;stroke:#ff0000;stroke-linecap:square;stroke-width:1.5;"/>
    </g>
    <g id="line2d_33"/>
    <g id="text_18">
     <!-- bits -->
     <g transform="translate(368.37 72.748563)scale(0.1 -0.1)">
      <use xlink:href="#DejaVuSans-98"/>
      <use x="63.476562" xlink:href="#DejaVuSans-105"/>
      <use x="91.259766" xlink:href="#DejaVuSans-116"/>
      <use x="130.46875" xlink:href="#DejaVuSans-115"/>
     </g>
    </g>
    <g id="line2d_34">
     <path d="M 340.37 83.926688 
L 360.37 83.926688 
" style="fill:none;stroke:#008000;stroke-linecap:square;stroke-width:1.5;"/>
    </g>
    <g id="line2d_35"/>
    <g id="text_19">
     <!-- total -->
     <defs>
      <path d="M 9.421875 75.984375 
L 18.40625 75.984375 
L 18.40625 0 
L 9.421875 0 
z
" id="DejaVuSans-108"/>
     </defs>
     <g transform="translate(368.37 87.426688)scale(0.1 -0.1)">
      <use xlink:href="#DejaVuSans-116"/>
      <use x="39.208984" xlink:href="#DejaVuSans-111"/>
      <use x="100.390625" xlink:href="#DejaVuSans-116"/>
      <use x="139.599609" xlink:href="#DejaVuSans-97"/>
      <use x="200.878906" xlink:href="#DejaVuSans-108"/>
     </g>
    </g>
   </g>
  </g>
 </g>
 <defs>
  <clipPath id="p793f818033">
   <rect height="266.112" width="357.12" x="57.6" y="41.472"/>
  </clipPath>
 </defs>
</svg>
