<?xml version="1.0" encoding="utf-8" standalone="no"?>
<!DOCTYPE svg PUBLIC "-//W3C//DTD SVG 1.1//EN"
  "http://www.w3.org/Graphics/SVG/1.1/DTD/svg11.dtd">
<!-- Created with matplotlib (https://matplotlib.org/) -->
<svg height="345.6pt" version="1.1" viewBox="0 0 460.8 345.6" width="460.8pt" xmlns="http://www.w3.org/2000/svg" xmlns:xlink="http://www.w3.org/1999/xlink">
 <defs>
  <style type="text/css">
*{stroke-linecap:butt;stroke-linejoin:round;}
  </style>
 </defs>
 <g id="figure_1">
  <g id="patch_1">
   <path d="M 0 345.6 
L 460.8 345.6 
L 460.8 0 
L 0 0 
z
" style="fill:#ffffff;"/>
  </g>
  <g id="axes_1">
   <g id="patch_2">
    <path d="M 57.6 307.584 
L 414.72 307.584 
L 414.72 41.472 
L 57.6 41.472 
z
" style="fill:#ffffff;"/>
   </g>
   <g id="PolyCollection_1">
    <path clip-path="url(#pca5b64f2ef)" d="M 73.832727 59.617929 
L 73.832727 66.7646 
L 74.918528 73.980381 
L 76.00433 64.813177 
L 77.090131 92.362235 
L 78.175932 129.763173 
L 79.261733 126.078431 
L 80.347534 141.625893 
L 81.433335 160.036062 
L 82.519137 184.087676 
L 83.604938 181.496812 
L 84.690739 161.208511 
L 85.77654 171.536826 
L 86.862341 151.318728 
L 87.948142 142.178093 
L 89.033943 162.032669 
L 90.119745 171.981158 
L 91.205546 199.754552 
L 92.291347 184.468302 
L 93.377148 220.121946 
L 94.462949 223.727183 
L 95.54875 202.000545 
L 96.634552 196.48498 
L 97.720353 193.848829 
L 98.806154 200.293896 
L 99.891955 206.867462 
L 100.977756 221.6929 
L 102.063557 213.478965 
L 103.149358 222.158622 
L 104.23516 239.206964 
L 105.320961 234.652173 
L 106.406762 216.78548 
L 107.492563 230.705907 
L 108.578364 259.960622 
L 109.664165 237.717992 
L 110.749967 183.460942 
L 111.835768 238.12738 
L 112.921569 270.446113 
L 114.00737 248.759976 
L 115.093171 207.807818 
L 116.178972 195.953338 
L 117.264773 212.151465 
L 118.350575 225.398911 
L 119.436376 220.841314 
L 120.522177 219.507647 
L 121.607978 221.193164 
L 122.693779 224.513594 
L 123.77958 196.496017 
L 124.865382 227.717208 
L 125.951183 231.493833 
L 127.036984 235.004544 
L 128.122785 238.275739 
L 129.208586 217.979015 
L 130.294387 204.599779 
L 131.380189 239.227935 
L 132.46599 225.605737 
L 133.551791 228.974121 
L 134.637592 209.584797 
L 135.723393 212.136655 
L 136.809194 212.791433 
L 137.894995 199.241336 
L 138.980797 232.078936 
L 140.066598 248.529375 
L 141.152399 224.32529 
L 142.2382 224.913277 
L 143.324001 198.40385 
L 144.409802 221.088574 
L 145.495604 237.843086 
L 146.581405 242.667616 
L 147.667206 247.421168 
L 148.753007 202.973936 
L 149.838808 216.571549 
L 150.924609 229.075265 
L 152.01041 198.954024 
L 153.096212 227.416 
L 154.182013 253.516986 
L 155.267814 246.464081 
L 156.353615 254.915747 
L 157.439416 251.576543 
L 158.525217 246.027242 
L 159.611019 240.748459 
L 160.69682 272.745538 
L 161.782621 236.656647 
L 162.868422 235.2548 
L 163.954223 241.907896 
L 165.040024 239.28628 
L 166.125825 263.181501 
L 167.211627 239.40963 
L 168.297428 207.187728 
L 169.383229 233.058359 
L 170.46903 206.326592 
L 171.554831 196.079909 
L 172.640632 192.724831 
L 173.726434 188.600768 
L 174.812235 181.438827 
L 175.898036 154.807796 
L 176.983837 136.256879 
L 178.069638 155.93391 
L 179.155439 133.976687 
L 180.24124 139.665264 
L 181.327042 128.328878 
L 182.412843 169.936165 
L 183.498644 166.759513 
L 184.584445 192.280057 
L 185.670246 182.210535 
L 186.756047 177.446494 
L 187.841849 164.78177 
L 188.92765 162.438128 
L 190.013451 156.512658 
L 191.099252 181.109157 
L 192.185053 180.20377 
L 193.270854 142.872172 
L 194.356656 150.513514 
L 195.442457 173.96011 
L 196.528258 153.652187 
L 197.614059 136.961242 
L 198.69986 153.512154 
L 199.785661 153.897167 
L 200.871462 185.547872 
L 201.957264 183.491422 
L 203.043065 186.885247 
L 204.128866 196.939932 
L 205.214667 188.034769 
L 206.300468 202.616187 
L 207.386269 207.917116 
L 208.472071 209.261725 
L 209.557872 172.238654 
L 210.643673 144.992311 
L 211.729474 145.492847 
L 212.815275 156.918604 
L 213.901076 181.07514 
L 214.986877 220.548979 
L 216.072679 177.000148 
L 217.15848 154.777323 
L 218.244281 132.31614 
L 219.330082 158.694802 
L 220.415883 216.917959 
L 221.501684 222.753256 
L 222.587486 231.759247 
L 223.673287 222.453529 
L 224.759088 213.84808 
L 225.844889 230.508626 
L 226.93069 192.117289 
L 228.016491 175.214798 
L 229.102292 210.331827 
L 230.188094 212.955574 
L 231.273895 231.455821 
L 232.359696 209.457799 
L 233.445497 197.974606 
L 234.531298 197.825868 
L 235.617099 195.617757 
L 236.702901 192.979578 
L 237.788702 179.608273 
L 238.874503 183.277355 
L 239.960304 166.329277 
L 241.046105 182.84323 
L 242.131906 196.534973 
L 243.217708 206.19863 
L 244.303509 192.974871 
L 245.38931 188.731981 
L 246.475111 159.582591 
L 247.560912 174.06385 
L 248.646713 212.273808 
L 249.732514 218.084203 
L 250.818316 200.203004 
L 251.904117 200.978212 
L 252.989918 171.854472 
L 254.075719 185.661948 
L 255.16152 154.837765 
L 256.247321 170.921735 
L 257.333123 181.385013 
L 258.418924 156.02134 
L 259.504725 163.29283 
L 260.590526 159.654984 
L 261.676327 173.055758 
L 262.762128 191.537286 
L 263.847929 174.53625 
L 264.933731 172.105661 
L 266.019532 177.971131 
L 267.105333 219.797033 
L 268.191134 199.792631 
L 269.276935 188.614993 
L 270.362736 195.188088 
L 271.448538 195.764339 
L 272.534339 215.662948 
L 273.62014 206.832329 
L 274.705941 210.744636 
L 275.791742 231.171387 
L 276.877543 282.342588 
L 277.963344 271.990607 
L 279.049146 295.488 
L 280.134947 295.439977 
L 281.220748 293.390077 
L 282.306549 264.196267 
L 283.39235 272.24027 
L 284.478151 233.646921 
L 285.563953 209.850516 
L 286.649754 230.203544 
L 287.735555 234.319079 
L 288.821356 208.277237 
L 289.907157 182.521464 
L 290.992958 184.616086 
L 292.07876 174.335999 
L 293.164561 198.017061 
L 294.250362 194.785684 
L 295.336163 184.449105 
L 296.421964 204.268272 
L 297.507765 200.056704 
L 298.593566 193.702615 
L 299.679368 215.392593 
L 300.765169 193.172489 
L 301.85097 170.883401 
L 302.936771 190.7047 
L 304.022572 171.792544 
L 305.108373 156.419732 
L 306.194175 155.582553 
L 307.279976 167.353168 
L 308.365777 154.323444 
L 309.451578 171.696512 
L 310.537379 164.654437 
L 311.62318 198.686672 
L 312.708981 180.31479 
L 313.794783 182.277435 
L 314.880584 204.245533 
L 315.966385 162.858306 
L 317.052186 187.759839 
L 318.137987 201.165574 
L 319.223788 167.145067 
L 320.30959 195.360568 
L 321.395391 232.468784 
L 322.481192 207.796591 
L 323.566993 176.486337 
L 324.652794 177.879384 
L 325.738595 161.751664 
L 326.824396 182.602094 
L 327.910198 184.087133 
L 328.995999 183.952573 
L 330.0818 164.446155 
L 331.167601 160.66383 
L 332.253402 159.662783 
L 333.339203 156.016617 
L 334.425005 147.093742 
L 335.510806 148.890455 
L 336.596607 130.540278 
L 337.682408 137.556014 
L 338.768209 134.74179 
L 339.85401 134.54435 
L 340.939811 156.594565 
L 342.025613 170.13094 
L 343.111414 188.382675 
L 344.197215 180.753808 
L 345.283016 180.28374 
L 346.368817 167.012202 
L 347.454618 186.026946 
L 348.54042 160.708841 
L 349.626221 162.355779 
L 350.712022 189.582865 
L 351.797823 195.328735 
L 352.883624 212.974624 
L 353.969425 214.431974 
L 355.055227 212.176417 
L 356.141028 185.759563 
L 357.226829 177.645734 
L 358.31263 197.156923 
L 359.398431 201.769868 
L 360.484232 189.897252 
L 361.570033 163.120782 
L 362.655835 168.564838 
L 363.741636 153.935341 
L 364.827437 158.81993 
L 365.913238 155.258063 
L 366.999039 172.388795 
L 368.08484 162.779078 
L 369.170642 116.818968 
L 370.256443 134.272415 
L 371.342244 167.194961 
L 372.428045 179.284559 
L 373.513846 157.510326 
L 374.599647 192.158431 
L 375.685448 165.574979 
L 376.77125 153.94023 
L 377.857051 189.096218 
L 378.942852 195.05422 
L 380.028653 181.363408 
L 381.114454 180.046056 
L 382.200255 167.133008 
L 383.286057 142.0839 
L 384.371858 133.831535 
L 385.457659 163.527584 
L 386.54346 213.461082 
L 387.629261 225.777639 
L 388.715062 212.696448 
L 389.800863 233.021807 
L 390.886665 199.366591 
L 391.972466 208.319833 
L 393.058267 174.116974 
L 394.144068 164.012766 
L 395.229869 158.504101 
L 396.31567 178.961991 
L 397.401472 190.433848 
L 398.487273 257.693761 
L 398.487273 246.967366 
L 398.487273 246.967366 
L 397.401472 186.067642 
L 396.31567 155.425583 
L 395.229869 144.243186 
L 394.144068 151.20016 
L 393.058267 151.070603 
L 391.972466 182.578908 
L 390.886665 189.484484 
L 389.800863 224.195464 
L 388.715062 182.021062 
L 387.629261 191.856885 
L 386.54346 192.328891 
L 385.457659 148.020097 
L 384.371858 123.398215 
L 383.286057 127.918727 
L 382.200255 145.61702 
L 381.114454 152.750869 
L 380.028653 156.510446 
L 378.942852 171.601391 
L 377.857051 180.680549 
L 376.77125 148.457546 
L 375.685448 140.546566 
L 374.599647 152.438446 
L 373.513846 137.785087 
L 372.428045 156.509747 
L 371.342244 149.112907 
L 370.256443 111.571249 
L 369.170642 106.09786 
L 368.08484 128.344431 
L 366.999039 133.893676 
L 365.913238 124.139421 
L 364.827437 125.297258 
L 363.741636 119.711937 
L 362.655835 130.222645 
L 361.570033 137.467593 
L 360.484232 164.012726 
L 359.398431 183.802605 
L 358.31263 185.723899 
L 357.226829 162.989078 
L 356.141028 174.929628 
L 355.055227 193.679205 
L 353.969425 168.933279 
L 352.883624 191.243855 
L 351.797823 168.443055 
L 350.712022 152.781217 
L 349.626221 144.664351 
L 348.54042 145.456189 
L 347.454618 171.141343 
L 346.368817 147.573914 
L 345.283016 152.458064 
L 344.197215 149.974755 
L 343.111414 152.719317 
L 342.025613 154.7693 
L 340.939811 149.131755 
L 339.85401 108.32639 
L 338.768209 116.415011 
L 337.682408 115.10676 
L 336.596607 124.304267 
L 335.510806 136.628243 
L 334.425005 126.262919 
L 333.339203 122.895696 
L 332.253402 125.859914 
L 331.167601 135.518022 
L 330.0818 151.97877 
L 328.995999 167.776674 
L 327.910198 165.376455 
L 326.824396 150.849831 
L 325.738595 152.026122 
L 324.652794 146.721192 
L 323.566993 162.304276 
L 322.481192 164.921283 
L 321.395391 187.828453 
L 320.30959 157.315646 
L 319.223788 147.584083 
L 318.137987 178.063941 
L 317.052186 174.689965 
L 315.966385 159.005284 
L 314.880584 181.369266 
L 313.794783 165.03103 
L 312.708981 168.669676 
L 311.62318 166.076235 
L 310.537379 144.255655 
L 309.451578 156.133328 
L 308.365777 123.888058 
L 307.279976 136.878676 
L 306.194175 130.821446 
L 305.108373 143.074465 
L 304.022572 135.603574 
L 302.936771 148.950908 
L 301.85097 148.34258 
L 300.765169 177.898175 
L 299.679368 185.701941 
L 298.593566 162.742908 
L 297.507765 176.28478 
L 296.421964 176.792342 
L 295.336163 161.409105 
L 294.250362 181.577674 
L 293.164561 185.171614 
L 292.07876 158.633245 
L 290.992958 165.458003 
L 289.907157 161.608018 
L 288.821356 193.851447 
L 287.735555 216.575267 
L 286.649754 199.563198 
L 285.563953 186.399207 
L 284.478151 207.46178 
L 283.39235 237.774871 
L 282.306549 227.882639 
L 281.220748 268.659253 
L 280.134947 263.532274 
L 279.049146 247.523656 
L 277.963344 249.286755 
L 276.877543 253.921249 
L 275.791742 204.593251 
L 274.705941 199.928116 
L 273.62014 195.555397 
L 272.534339 189.705519 
L 271.448538 167.191217 
L 270.362736 180.261273 
L 269.276935 164.505857 
L 268.191134 165.488822 
L 267.105333 192.219652 
L 266.019532 161.933743 
L 264.933731 160.316756 
L 263.847929 154.809955 
L 262.762128 175.22883 
L 261.676327 140.058308 
L 260.590526 137.905973 
L 259.504725 137.637114 
L 258.418924 127.686759 
L 257.333123 156.159817 
L 256.247321 158.981125 
L 255.16152 138.12851 
L 254.075719 154.314141 
L 252.989918 159.061238 
L 251.904117 162.201762 
L 250.818316 171.966842 
L 249.732514 192.092086 
L 248.646713 179.360961 
L 247.560912 149.149366 
L 246.475111 134.195915 
L 245.38931 142.370476 
L 244.303509 157.579262 
L 243.217708 157.55936 
L 242.131906 157.286169 
L 241.046105 150.684178 
L 239.960304 139.720215 
L 238.874503 148.501354 
L 237.788702 159.339948 
L 236.702901 158.787147 
L 235.617099 153.548845 
L 234.531298 164.855912 
L 233.445497 171.169761 
L 232.359696 203.773985 
L 231.273895 213.43755 
L 230.188094 198.224386 
L 229.102292 187.624293 
L 228.016491 159.910146 
L 226.93069 179.791441 
L 225.844889 219.227333 
L 224.759088 203.80752 
L 223.673287 205.185712 
L 222.587486 209.163518 
L 221.501684 190.744764 
L 220.415883 184.097926 
L 219.330082 147.86776 
L 218.244281 108.093604 
L 217.15848 137.743662 
L 216.072679 158.966858 
L 214.986877 170.712882 
L 213.901076 154.076553 
L 212.815275 134.950949 
L 211.729474 124.477783 
L 210.643673 131.38322 
L 209.557872 165.644676 
L 208.472071 178.073103 
L 207.386269 182.295392 
L 206.300468 177.121555 
L 205.214667 170.121002 
L 204.128866 182.088613 
L 203.043065 177.704839 
L 201.957264 168.820042 
L 200.871462 176.641816 
L 199.785661 138.842316 
L 198.69986 138.093424 
L 197.614059 126.294732 
L 196.528258 140.224083 
L 195.442457 159.445244 
L 194.356656 130.668491 
L 193.270854 127.347032 
L 192.185053 149.310289 
L 191.099252 149.113635 
L 190.013451 139.456642 
L 188.92765 140.647181 
L 187.841849 147.577631 
L 186.756047 165.767958 
L 185.670246 142.474862 
L 184.584445 160.667057 
L 183.498644 143.334744 
L 182.412843 137.503006 
L 181.327042 97.428566 
L 180.24124 129.092257 
L 179.155439 112.177672 
L 178.069638 128.899456 
L 176.983837 120.252176 
L 175.898036 129.523861 
L 174.812235 168.789997 
L 173.726434 164.010919 
L 172.640632 161.974264 
L 171.554831 160.968048 
L 170.46903 176.440946 
L 169.383229 189.663985 
L 168.297428 183.264584 
L 167.211627 211.95434 
L 166.125825 217.549834 
L 165.040024 203.983125 
L 163.954223 196.861638 
L 162.868422 210.052394 
L 161.782621 222.578268 
L 160.69682 199.87882 
L 159.611019 218.94449 
L 158.525217 215.000231 
L 157.439416 221.332286 
L 156.353615 215.326415 
L 155.267814 204.840723 
L 154.182013 234.457045 
L 153.096212 208.008921 
L 152.01041 176.289603 
L 150.924609 207.136313 
L 149.838808 195.060966 
L 148.753007 184.109844 
L 147.667206 195.075111 
L 146.581405 208.76739 
L 145.495604 197.461929 
L 144.409802 199.474953 
L 143.324001 170.612994 
L 142.2382 196.893761 
L 141.152399 200.033173 
L 140.066598 216.279723 
L 138.980797 211.053666 
L 137.894995 182.433998 
L 136.809194 193.431615 
L 135.723393 192.302341 
L 134.637592 176.132893 
L 133.551791 220.813772 
L 132.46599 201.170577 
L 131.380189 198.131403 
L 130.294387 186.238054 
L 129.208586 178.401006 
L 128.122785 192.704111 
L 127.036984 207.757172 
L 125.951183 195.842599 
L 124.865382 180.391015 
L 123.77958 172.392117 
L 122.693779 185.649839 
L 121.607978 185.550161 
L 120.522177 177.641735 
L 119.436376 194.014882 
L 118.350575 188.379968 
L 117.264773 189.311974 
L 116.178972 177.893445 
L 115.093171 179.057331 
L 114.00737 226.598766 
L 112.921569 211.582307 
L 111.835768 182.734883 
L 110.749967 167.806111 
L 109.664165 210.451556 
L 108.578364 207.692985 
L 107.492563 181.82282 
L 106.406762 191.842626 
L 105.320961 190.907027 
L 104.23516 182.01449 
L 103.149358 196.751794 
L 102.063557 176.500275 
L 100.977756 178.484593 
L 99.891955 176.852371 
L 98.806154 180.079812 
L 97.720353 162.139546 
L 96.634552 153.069723 
L 95.54875 173.266948 
L 94.462949 208.994548 
L 93.377148 196.521465 
L 92.291347 158.566616 
L 91.205546 160.160015 
L 90.119745 153.756969 
L 89.033943 146.076352 
L 87.948142 122.167158 
L 86.862341 129.508046 
L 85.77654 136.033903 
L 84.690739 130.695335 
L 83.604938 142.536141 
L 82.519137 144.925717 
L 81.433335 126.707749 
L 80.347534 121.579703 
L 79.261733 116.468103 
L 78.175932 118.05773 
L 77.090131 79.679418 
L 76.00433 53.568 
L 74.918528 59.017741 
L 73.832727 59.617929 
z
" style="fill:#0000ff;fill-opacity:0.25;"/>
   </g>
   <g id="matplotlib.axis_1">
    <g id="xtick_1">
     <g id="line2d_1">
      <defs>
       <path d="M 0 0 
L 0 3.5 
" id="m5dcf81f68f" style="stroke:#000000;stroke-width:0.8;"/>
      </defs>
      <g>
       <use style="stroke:#000000;stroke-width:0.8;" x="73.832727" xlink:href="#m5dcf81f68f" y="307.584"/>
      </g>
     </g>
     <g id="text_1">
      <!-- 0 -->
      <defs>
       <path d="M 31.78125 66.40625 
Q 24.171875 66.40625 20.328125 58.90625 
Q 16.5 51.421875 16.5 36.375 
Q 16.5 21.390625 20.328125 13.890625 
Q 24.171875 6.390625 31.78125 6.390625 
Q 39.453125 6.390625 43.28125 13.890625 
Q 47.125 21.390625 47.125 36.375 
Q 47.125 51.421875 43.28125 58.90625 
Q 39.453125 66.40625 31.78125 66.40625 
z
M 31.78125 74.21875 
Q 44.046875 74.21875 50.515625 64.515625 
Q 56.984375 54.828125 56.984375 36.375 
Q 56.984375 17.96875 50.515625 8.265625 
Q 44.046875 -1.421875 31.78125 -1.421875 
Q 19.53125 -1.421875 13.0625 8.265625 
Q 6.59375 17.96875 6.59375 36.375 
Q 6.59375 54.828125 13.0625 64.515625 
Q 19.53125 74.21875 31.78125 74.21875 
z
" id="DejaVuSans-48"/>
      </defs>
      <g transform="translate(70.651477 322.182437)scale(0.1 -0.1)">
       <use xlink:href="#DejaVuSans-48"/>
      </g>
     </g>
    </g>
    <g id="xtick_2">
     <g id="line2d_2">
      <g>
       <use style="stroke:#000000;stroke-width:0.8;" x="128.122785" xlink:href="#m5dcf81f68f" y="307.584"/>
      </g>
     </g>
     <g id="text_2">
      <!-- 50 -->
      <defs>
       <path d="M 10.796875 72.90625 
L 49.515625 72.90625 
L 49.515625 64.59375 
L 19.828125 64.59375 
L 19.828125 46.734375 
Q 21.96875 47.46875 24.109375 47.828125 
Q 26.265625 48.1875 28.421875 48.1875 
Q 40.625 48.1875 47.75 41.5 
Q 54.890625 34.8125 54.890625 23.390625 
Q 54.890625 11.625 47.5625 5.09375 
Q 40.234375 -1.421875 26.90625 -1.421875 
Q 22.3125 -1.421875 17.546875 -0.640625 
Q 12.796875 0.140625 7.71875 1.703125 
L 7.71875 11.625 
Q 12.109375 9.234375 16.796875 8.0625 
Q 21.484375 6.890625 26.703125 6.890625 
Q 35.15625 6.890625 40.078125 11.328125 
Q 45.015625 15.765625 45.015625 23.390625 
Q 45.015625 31 40.078125 35.4375 
Q 35.15625 39.890625 26.703125 39.890625 
Q 22.75 39.890625 18.8125 39.015625 
Q 14.890625 38.140625 10.796875 36.28125 
z
" id="DejaVuSans-53"/>
      </defs>
      <g transform="translate(121.760285 322.182437)scale(0.1 -0.1)">
       <use xlink:href="#DejaVuSans-53"/>
       <use x="63.623047" xlink:href="#DejaVuSans-48"/>
      </g>
     </g>
    </g>
    <g id="xtick_3">
     <g id="line2d_3">
      <g>
       <use style="stroke:#000000;stroke-width:0.8;" x="182.412843" xlink:href="#m5dcf81f68f" y="307.584"/>
      </g>
     </g>
     <g id="text_3">
      <!-- 100 -->
      <defs>
       <path d="M 12.40625 8.296875 
L 28.515625 8.296875 
L 28.515625 63.921875 
L 10.984375 60.40625 
L 10.984375 69.390625 
L 28.421875 72.90625 
L 38.28125 72.90625 
L 38.28125 8.296875 
L 54.390625 8.296875 
L 54.390625 0 
L 12.40625 0 
z
" id="DejaVuSans-49"/>
      </defs>
      <g transform="translate(172.869093 322.182437)scale(0.1 -0.1)">
       <use xlink:href="#DejaVuSans-49"/>
       <use x="63.623047" xlink:href="#DejaVuSans-48"/>
       <use x="127.246094" xlink:href="#DejaVuSans-48"/>
      </g>
     </g>
    </g>
    <g id="xtick_4">
     <g id="line2d_4">
      <g>
       <use style="stroke:#000000;stroke-width:0.8;" x="236.702901" xlink:href="#m5dcf81f68f" y="307.584"/>
      </g>
     </g>
     <g id="text_4">
      <!-- 150 -->
      <g transform="translate(227.159151 322.182437)scale(0.1 -0.1)">
       <use xlink:href="#DejaVuSans-49"/>
       <use x="63.623047" xlink:href="#DejaVuSans-53"/>
       <use x="127.246094" xlink:href="#DejaVuSans-48"/>
      </g>
     </g>
    </g>
    <g id="xtick_5">
     <g id="line2d_5">
      <g>
       <use style="stroke:#000000;stroke-width:0.8;" x="290.992958" xlink:href="#m5dcf81f68f" y="307.584"/>
      </g>
     </g>
     <g id="text_5">
      <!-- 200 -->
      <defs>
       <path d="M 19.1875 8.296875 
L 53.609375 8.296875 
L 53.609375 0 
L 7.328125 0 
L 7.328125 8.296875 
Q 12.9375 14.109375 22.625 23.890625 
Q 32.328125 33.6875 34.8125 36.53125 
Q 39.546875 41.84375 41.421875 45.53125 
Q 43.3125 49.21875 43.3125 52.78125 
Q 43.3125 58.59375 39.234375 62.25 
Q 35.15625 65.921875 28.609375 65.921875 
Q 23.96875 65.921875 18.8125 64.3125 
Q 13.671875 62.703125 7.8125 59.421875 
L 7.8125 69.390625 
Q 13.765625 71.78125 18.9375 73 
Q 24.125 74.21875 28.421875 74.21875 
Q 39.75 74.21875 46.484375 68.546875 
Q 53.21875 62.890625 53.21875 53.421875 
Q 53.21875 48.921875 51.53125 44.890625 
Q 49.859375 40.875 45.40625 35.40625 
Q 44.1875 33.984375 37.640625 27.21875 
Q 31.109375 20.453125 19.1875 8.296875 
z
" id="DejaVuSans-50"/>
      </defs>
      <g transform="translate(281.449208 322.182437)scale(0.1 -0.1)">
       <use xlink:href="#DejaVuSans-50"/>
       <use x="63.623047" xlink:href="#DejaVuSans-48"/>
       <use x="127.246094" xlink:href="#DejaVuSans-48"/>
      </g>
     </g>
    </g>
    <g id="xtick_6">
     <g id="line2d_6">
      <g>
       <use style="stroke:#000000;stroke-width:0.8;" x="345.283016" xlink:href="#m5dcf81f68f" y="307.584"/>
      </g>
     </g>
     <g id="text_6">
      <!-- 250 -->
      <g transform="translate(335.739266 322.182437)scale(0.1 -0.1)">
       <use xlink:href="#DejaVuSans-50"/>
       <use x="63.623047" xlink:href="#DejaVuSans-53"/>
       <use x="127.246094" xlink:href="#DejaVuSans-48"/>
      </g>
     </g>
    </g>
    <g id="xtick_7">
     <g id="line2d_7">
      <g>
       <use style="stroke:#000000;stroke-width:0.8;" x="399.573074" xlink:href="#m5dcf81f68f" y="307.584"/>
      </g>
     </g>
     <g id="text_7">
      <!-- 300 -->
      <defs>
       <path d="M 40.578125 39.3125 
Q 47.65625 37.796875 51.625 33 
Q 55.609375 28.21875 55.609375 21.1875 
Q 55.609375 10.40625 48.1875 4.484375 
Q 40.765625 -1.421875 27.09375 -1.421875 
Q 22.515625 -1.421875 17.65625 -0.515625 
Q 12.796875 0.390625 7.625 2.203125 
L 7.625 11.71875 
Q 11.71875 9.328125 16.59375 8.109375 
Q 21.484375 6.890625 26.8125 6.890625 
Q 36.078125 6.890625 40.9375 10.546875 
Q 45.796875 14.203125 45.796875 21.1875 
Q 45.796875 27.640625 41.28125 31.265625 
Q 36.765625 34.90625 28.71875 34.90625 
L 20.21875 34.90625 
L 20.21875 43.015625 
L 29.109375 43.015625 
Q 36.375 43.015625 40.234375 45.921875 
Q 44.09375 48.828125 44.09375 54.296875 
Q 44.09375 59.90625 40.109375 62.90625 
Q 36.140625 65.921875 28.71875 65.921875 
Q 24.65625 65.921875 20.015625 65.03125 
Q 15.375 64.15625 9.8125 62.3125 
L 9.8125 71.09375 
Q 15.4375 72.65625 20.34375 73.4375 
Q 25.25 74.21875 29.59375 74.21875 
Q 40.828125 74.21875 47.359375 69.109375 
Q 53.90625 64.015625 53.90625 55.328125 
Q 53.90625 49.265625 50.4375 45.09375 
Q 46.96875 40.921875 40.578125 39.3125 
z
" id="DejaVuSans-51"/>
      </defs>
      <g transform="translate(390.029324 322.182437)scale(0.1 -0.1)">
       <use xlink:href="#DejaVuSans-51"/>
       <use x="63.623047" xlink:href="#DejaVuSans-48"/>
       <use x="127.246094" xlink:href="#DejaVuSans-48"/>
      </g>
     </g>
    </g>
   </g>
   <g id="matplotlib.axis_2">
    <g id="ytick_1">
     <g id="line2d_8">
      <defs>
       <path d="M 0 0 
L -3.5 0 
" id="m1ed9770962" style="stroke:#000000;stroke-width:0.8;"/>
      </defs>
      <g>
       <use style="stroke:#000000;stroke-width:0.8;" x="57.6" xlink:href="#m1ed9770962" y="276.796352"/>
      </g>
     </g>
     <g id="text_8">
      <!-- 0.6 -->
      <defs>
       <path d="M 10.6875 12.40625 
L 21 12.40625 
L 21 0 
L 10.6875 0 
z
" id="DejaVuSans-46"/>
       <path d="M 33.015625 40.375 
Q 26.375 40.375 22.484375 35.828125 
Q 18.609375 31.296875 18.609375 23.390625 
Q 18.609375 15.53125 22.484375 10.953125 
Q 26.375 6.390625 33.015625 6.390625 
Q 39.65625 6.390625 43.53125 10.953125 
Q 47.40625 15.53125 47.40625 23.390625 
Q 47.40625 31.296875 43.53125 35.828125 
Q 39.65625 40.375 33.015625 40.375 
z
M 52.59375 71.296875 
L 52.59375 62.3125 
Q 48.875 64.0625 45.09375 64.984375 
Q 41.3125 65.921875 37.59375 65.921875 
Q 27.828125 65.921875 22.671875 59.328125 
Q 17.53125 52.734375 16.796875 39.40625 
Q 19.671875 43.65625 24.015625 45.921875 
Q 28.375 48.1875 33.59375 48.1875 
Q 44.578125 48.1875 50.953125 41.515625 
Q 57.328125 34.859375 57.328125 23.390625 
Q 57.328125 12.15625 50.6875 5.359375 
Q 44.046875 -1.421875 33.015625 -1.421875 
Q 20.359375 -1.421875 13.671875 8.265625 
Q 6.984375 17.96875 6.984375 36.375 
Q 6.984375 53.65625 15.1875 63.9375 
Q 23.390625 74.21875 37.203125 74.21875 
Q 40.921875 74.21875 44.703125 73.484375 
Q 48.484375 72.75 52.59375 71.296875 
z
" id="DejaVuSans-54"/>
      </defs>
      <g transform="translate(34.696875 280.595571)scale(0.1 -0.1)">
       <use xlink:href="#DejaVuSans-48"/>
       <use x="63.623047" xlink:href="#DejaVuSans-46"/>
       <use x="95.410156" xlink:href="#DejaVuSans-54"/>
      </g>
     </g>
    </g>
    <g id="ytick_2">
     <g id="line2d_9">
      <g>
       <use style="stroke:#000000;stroke-width:0.8;" x="57.6" xlink:href="#m1ed9770962" y="240.509366"/>
      </g>
     </g>
     <g id="text_9">
      <!-- 0.8 -->
      <defs>
       <path d="M 31.78125 34.625 
Q 24.75 34.625 20.71875 30.859375 
Q 16.703125 27.09375 16.703125 20.515625 
Q 16.703125 13.921875 20.71875 10.15625 
Q 24.75 6.390625 31.78125 6.390625 
Q 38.8125 6.390625 42.859375 10.171875 
Q 46.921875 13.96875 46.921875 20.515625 
Q 46.921875 27.09375 42.890625 30.859375 
Q 38.875 34.625 31.78125 34.625 
z
M 21.921875 38.8125 
Q 15.578125 40.375 12.03125 44.71875 
Q 8.5 49.078125 8.5 55.328125 
Q 8.5 64.0625 14.71875 69.140625 
Q 20.953125 74.21875 31.78125 74.21875 
Q 42.671875 74.21875 48.875 69.140625 
Q 55.078125 64.0625 55.078125 55.328125 
Q 55.078125 49.078125 51.53125 44.71875 
Q 48 40.375 41.703125 38.8125 
Q 48.828125 37.15625 52.796875 32.3125 
Q 56.78125 27.484375 56.78125 20.515625 
Q 56.78125 9.90625 50.3125 4.234375 
Q 43.84375 -1.421875 31.78125 -1.421875 
Q 19.734375 -1.421875 13.25 4.234375 
Q 6.78125 9.90625 6.78125 20.515625 
Q 6.78125 27.484375 10.78125 32.3125 
Q 14.796875 37.15625 21.921875 38.8125 
z
M 18.3125 54.390625 
Q 18.3125 48.734375 21.84375 45.5625 
Q 25.390625 42.390625 31.78125 42.390625 
Q 38.140625 42.390625 41.71875 45.5625 
Q 45.3125 48.734375 45.3125 54.390625 
Q 45.3125 60.0625 41.71875 63.234375 
Q 38.140625 66.40625 31.78125 66.40625 
Q 25.390625 66.40625 21.84375 63.234375 
Q 18.3125 60.0625 18.3125 54.390625 
z
" id="DejaVuSans-56"/>
      </defs>
      <g transform="translate(34.696875 244.308585)scale(0.1 -0.1)">
       <use xlink:href="#DejaVuSans-48"/>
       <use x="63.623047" xlink:href="#DejaVuSans-46"/>
       <use x="95.410156" xlink:href="#DejaVuSans-56"/>
      </g>
     </g>
    </g>
    <g id="ytick_3">
     <g id="line2d_10">
      <g>
       <use style="stroke:#000000;stroke-width:0.8;" x="57.6" xlink:href="#m1ed9770962" y="204.22238"/>
      </g>
     </g>
     <g id="text_10">
      <!-- 1.0 -->
      <g transform="translate(34.696875 208.021599)scale(0.1 -0.1)">
       <use xlink:href="#DejaVuSans-49"/>
       <use x="63.623047" xlink:href="#DejaVuSans-46"/>
       <use x="95.410156" xlink:href="#DejaVuSans-48"/>
      </g>
     </g>
    </g>
    <g id="ytick_4">
     <g id="line2d_11">
      <g>
       <use style="stroke:#000000;stroke-width:0.8;" x="57.6" xlink:href="#m1ed9770962" y="167.935394"/>
      </g>
     </g>
     <g id="text_11">
      <!-- 1.2 -->
      <g transform="translate(34.696875 171.734612)scale(0.1 -0.1)">
       <use xlink:href="#DejaVuSans-49"/>
       <use x="63.623047" xlink:href="#DejaVuSans-46"/>
       <use x="95.410156" xlink:href="#DejaVuSans-50"/>
      </g>
     </g>
    </g>
    <g id="ytick_5">
     <g id="line2d_12">
      <g>
       <use style="stroke:#000000;stroke-width:0.8;" x="57.6" xlink:href="#m1ed9770962" y="131.648407"/>
      </g>
     </g>
     <g id="text_12">
      <!-- 1.4 -->
      <defs>
       <path d="M 37.796875 64.3125 
L 12.890625 25.390625 
L 37.796875 25.390625 
z
M 35.203125 72.90625 
L 47.609375 72.90625 
L 47.609375 25.390625 
L 58.015625 25.390625 
L 58.015625 17.1875 
L 47.609375 17.1875 
L 47.609375 0 
L 37.796875 0 
L 37.796875 17.1875 
L 4.890625 17.1875 
L 4.890625 26.703125 
z
" id="DejaVuSans-52"/>
      </defs>
      <g transform="translate(34.696875 135.447626)scale(0.1 -0.1)">
       <use xlink:href="#DejaVuSans-49"/>
       <use x="63.623047" xlink:href="#DejaVuSans-46"/>
       <use x="95.410156" xlink:href="#DejaVuSans-52"/>
      </g>
     </g>
    </g>
    <g id="ytick_6">
     <g id="line2d_13">
      <g>
       <use style="stroke:#000000;stroke-width:0.8;" x="57.6" xlink:href="#m1ed9770962" y="95.361421"/>
      </g>
     </g>
     <g id="text_13">
      <!-- 1.6 -->
      <g transform="translate(34.696875 99.16064)scale(0.1 -0.1)">
       <use xlink:href="#DejaVuSans-49"/>
       <use x="63.623047" xlink:href="#DejaVuSans-46"/>
       <use x="95.410156" xlink:href="#DejaVuSans-54"/>
      </g>
     </g>
    </g>
    <g id="ytick_7">
     <g id="line2d_14">
      <g>
       <use style="stroke:#000000;stroke-width:0.8;" x="57.6" xlink:href="#m1ed9770962" y="59.074435"/>
      </g>
     </g>
     <g id="text_14">
      <!-- 1.8 -->
      <g transform="translate(34.696875 62.873654)scale(0.1 -0.1)">
       <use xlink:href="#DejaVuSans-49"/>
       <use x="63.623047" xlink:href="#DejaVuSans-46"/>
       <use x="95.410156" xlink:href="#DejaVuSans-56"/>
      </g>
     </g>
    </g>
    <g id="text_15">
     <!-- Distance -->
     <defs>
      <path d="M 19.671875 64.796875 
L 19.671875 8.109375 
L 31.59375 8.109375 
Q 46.6875 8.109375 53.6875 14.9375 
Q 60.6875 21.78125 60.6875 36.53125 
Q 60.6875 51.171875 53.6875 57.984375 
Q 46.6875 64.796875 31.59375 64.796875 
z
M 9.8125 72.90625 
L 30.078125 72.90625 
Q 51.265625 72.90625 61.171875 64.09375 
Q 71.09375 55.28125 71.09375 36.53125 
Q 71.09375 17.671875 61.125 8.828125 
Q 51.171875 0 30.078125 0 
L 9.8125 0 
z
" id="DejaVuSans-68"/>
      <path d="M 9.421875 54.6875 
L 18.40625 54.6875 
L 18.40625 0 
L 9.421875 0 
z
M 9.421875 75.984375 
L 18.40625 75.984375 
L 18.40625 64.59375 
L 9.421875 64.59375 
z
" id="DejaVuSans-105"/>
      <path d="M 44.28125 53.078125 
L 44.28125 44.578125 
Q 40.484375 46.53125 36.375 47.5 
Q 32.28125 48.484375 27.875 48.484375 
Q 21.1875 48.484375 17.84375 46.4375 
Q 14.5 44.390625 14.5 40.28125 
Q 14.5 37.15625 16.890625 35.375 
Q 19.28125 33.59375 26.515625 31.984375 
L 29.59375 31.296875 
Q 39.15625 29.25 43.1875 25.515625 
Q 47.21875 21.78125 47.21875 15.09375 
Q 47.21875 7.46875 41.1875 3.015625 
Q 35.15625 -1.421875 24.609375 -1.421875 
Q 20.21875 -1.421875 15.453125 -0.5625 
Q 10.6875 0.296875 5.421875 2 
L 5.421875 11.28125 
Q 10.40625 8.6875 15.234375 7.390625 
Q 20.0625 6.109375 24.8125 6.109375 
Q 31.15625 6.109375 34.5625 8.28125 
Q 37.984375 10.453125 37.984375 14.40625 
Q 37.984375 18.0625 35.515625 20.015625 
Q 33.0625 21.96875 24.703125 23.78125 
L 21.578125 24.515625 
Q 13.234375 26.265625 9.515625 29.90625 
Q 5.8125 33.546875 5.8125 39.890625 
Q 5.8125 47.609375 11.28125 51.796875 
Q 16.75 56 26.8125 56 
Q 31.78125 56 36.171875 55.265625 
Q 40.578125 54.546875 44.28125 53.078125 
z
" id="DejaVuSans-115"/>
      <path d="M 18.3125 70.21875 
L 18.3125 54.6875 
L 36.8125 54.6875 
L 36.8125 47.703125 
L 18.3125 47.703125 
L 18.3125 18.015625 
Q 18.3125 11.328125 20.140625 9.421875 
Q 21.96875 7.515625 27.59375 7.515625 
L 36.8125 7.515625 
L 36.8125 0 
L 27.59375 0 
Q 17.1875 0 13.234375 3.875 
Q 9.28125 7.765625 9.28125 18.015625 
L 9.28125 47.703125 
L 2.6875 47.703125 
L 2.6875 54.6875 
L 9.28125 54.6875 
L 9.28125 70.21875 
z
" id="DejaVuSans-116"/>
      <path d="M 34.28125 27.484375 
Q 23.390625 27.484375 19.1875 25 
Q 14.984375 22.515625 14.984375 16.5 
Q 14.984375 11.71875 18.140625 8.90625 
Q 21.296875 6.109375 26.703125 6.109375 
Q 34.1875 6.109375 38.703125 11.40625 
Q 43.21875 16.703125 43.21875 25.484375 
L 43.21875 27.484375 
z
M 52.203125 31.203125 
L 52.203125 0 
L 43.21875 0 
L 43.21875 8.296875 
Q 40.140625 3.328125 35.546875 0.953125 
Q 30.953125 -1.421875 24.3125 -1.421875 
Q 15.921875 -1.421875 10.953125 3.296875 
Q 6 8.015625 6 15.921875 
Q 6 25.140625 12.171875 29.828125 
Q 18.359375 34.515625 30.609375 34.515625 
L 43.21875 34.515625 
L 43.21875 35.40625 
Q 43.21875 41.609375 39.140625 45 
Q 35.0625 48.390625 27.6875 48.390625 
Q 23 48.390625 18.546875 47.265625 
Q 14.109375 46.140625 10.015625 43.890625 
L 10.015625 52.203125 
Q 14.9375 54.109375 19.578125 55.046875 
Q 24.21875 56 28.609375 56 
Q 40.484375 56 46.34375 49.84375 
Q 52.203125 43.703125 52.203125 31.203125 
z
" id="DejaVuSans-97"/>
      <path d="M 54.890625 33.015625 
L 54.890625 0 
L 45.90625 0 
L 45.90625 32.71875 
Q 45.90625 40.484375 42.875 44.328125 
Q 39.84375 48.1875 33.796875 48.1875 
Q 26.515625 48.1875 22.3125 43.546875 
Q 18.109375 38.921875 18.109375 30.90625 
L 18.109375 0 
L 9.078125 0 
L 9.078125 54.6875 
L 18.109375 54.6875 
L 18.109375 46.1875 
Q 21.34375 51.125 25.703125 53.5625 
Q 30.078125 56 35.796875 56 
Q 45.21875 56 50.046875 50.171875 
Q 54.890625 44.34375 54.890625 33.015625 
z
" id="DejaVuSans-110"/>
      <path d="M 48.78125 52.59375 
L 48.78125 44.1875 
Q 44.96875 46.296875 41.140625 47.34375 
Q 37.3125 48.390625 33.40625 48.390625 
Q 24.65625 48.390625 19.8125 42.84375 
Q 14.984375 37.3125 14.984375 27.296875 
Q 14.984375 17.28125 19.8125 11.734375 
Q 24.65625 6.203125 33.40625 6.203125 
Q 37.3125 6.203125 41.140625 7.25 
Q 44.96875 8.296875 48.78125 10.40625 
L 48.78125 2.09375 
Q 45.015625 0.34375 40.984375 -0.53125 
Q 36.96875 -1.421875 32.421875 -1.421875 
Q 20.0625 -1.421875 12.78125 6.34375 
Q 5.515625 14.109375 5.515625 27.296875 
Q 5.515625 40.671875 12.859375 48.328125 
Q 20.21875 56 33.015625 56 
Q 37.15625 56 41.109375 55.140625 
Q 45.0625 54.296875 48.78125 52.59375 
z
" id="DejaVuSans-99"/>
      <path d="M 56.203125 29.59375 
L 56.203125 25.203125 
L 14.890625 25.203125 
Q 15.484375 15.921875 20.484375 11.0625 
Q 25.484375 6.203125 34.421875 6.203125 
Q 39.59375 6.203125 44.453125 7.46875 
Q 49.3125 8.734375 54.109375 11.28125 
L 54.109375 2.78125 
Q 49.265625 0.734375 44.1875 -0.34375 
Q 39.109375 -1.421875 33.890625 -1.421875 
Q 20.796875 -1.421875 13.15625 6.1875 
Q 5.515625 13.8125 5.515625 26.8125 
Q 5.515625 40.234375 12.765625 48.109375 
Q 20.015625 56 32.328125 56 
Q 43.359375 56 49.78125 48.890625 
Q 56.203125 41.796875 56.203125 29.59375 
z
M 47.21875 32.234375 
Q 47.125 39.59375 43.09375 43.984375 
Q 39.0625 48.390625 32.421875 48.390625 
Q 24.90625 48.390625 20.390625 44.140625 
Q 15.875 39.890625 15.1875 32.171875 
z
" id="DejaVuSans-101"/>
     </defs>
     <g transform="translate(28.617187 196.3905)rotate(-90)scale(0.1 -0.1)">
      <use xlink:href="#DejaVuSans-68"/>
      <use x="77.001953" xlink:href="#DejaVuSans-105"/>
      <use x="104.785156" xlink:href="#DejaVuSans-115"/>
      <use x="156.884766" xlink:href="#DejaVuSans-116"/>
      <use x="196.09375" xlink:href="#DejaVuSans-97"/>
      <use x="257.373047" xlink:href="#DejaVuSans-110"/>
      <use x="320.751953" xlink:href="#DejaVuSans-99"/>
      <use x="375.732422" xlink:href="#DejaVuSans-101"/>
     </g>
    </g>
   </g>
   <g id="line2d_15">
    <path clip-path="url(#pca5b64f2ef)" d="M 73.832727 63.191264 
L 74.918528 66.499061 
L 76.00433 59.190589 
L 77.090131 86.020827 
L 78.175932 123.910452 
L 79.261733 121.273267 
L 80.347534 131.602798 
L 81.433335 143.371905 
L 82.519137 164.506696 
L 83.604938 162.016477 
L 84.690739 145.951923 
L 85.77654 153.785365 
L 86.862341 140.413387 
L 87.948142 132.172626 
L 89.033943 154.054511 
L 90.119745 162.869064 
L 91.205546 179.957284 
L 92.291347 171.517459 
L 93.377148 208.321705 
L 94.462949 216.360865 
L 95.54875 187.633747 
L 96.634552 174.777351 
L 97.720353 177.994187 
L 98.806154 190.186854 
L 99.891955 191.859916 
L 100.977756 200.088747 
L 102.063557 194.98962 
L 103.149358 209.455208 
L 104.23516 210.610727 
L 105.320961 212.7796 
L 106.406762 204.314053 
L 107.492563 206.264363 
L 108.578364 233.826803 
L 109.664165 224.084774 
L 110.749967 175.633527 
L 111.835768 210.431131 
L 112.921569 241.01421 
L 114.00737 237.679371 
L 115.093171 193.432575 
L 116.178972 186.923391 
L 117.264773 200.73172 
L 118.350575 206.889439 
L 119.436376 207.428098 
L 120.522177 198.574691 
L 121.607978 203.371663 
L 122.693779 205.081716 
L 123.77958 184.444067 
L 124.865382 204.054112 
L 125.951183 213.668216 
L 127.036984 221.380858 
L 128.122785 215.489925 
L 129.208586 198.19001 
L 130.294387 195.418917 
L 131.380189 218.679669 
L 132.46599 213.388157 
L 133.551791 224.893946 
L 134.637592 192.858845 
L 135.723393 202.219498 
L 136.809194 203.111524 
L 137.894995 190.837667 
L 138.980797 221.566301 
L 140.066598 232.404549 
L 141.152399 212.179232 
L 142.2382 210.903519 
L 143.324001 184.508422 
L 144.409802 210.281763 
L 146.581405 225.717503 
L 147.667206 221.248139 
L 148.753007 193.54189 
L 150.924609 218.105789 
L 152.01041 187.621814 
L 153.096212 217.71246 
L 154.182013 243.987016 
L 155.267814 225.652402 
L 156.353615 235.121081 
L 157.439416 236.454414 
L 158.525217 230.513736 
L 159.611019 229.846475 
L 160.69682 236.312179 
L 162.868422 222.653597 
L 163.954223 219.384767 
L 165.040024 221.634703 
L 166.125825 240.365667 
L 167.211627 225.681985 
L 168.297428 195.226156 
L 169.383229 211.361172 
L 170.46903 191.383769 
L 171.554831 178.523979 
L 174.812235 175.114412 
L 175.898036 142.165829 
L 176.983837 128.254527 
L 178.069638 142.416683 
L 179.155439 123.07718 
L 180.24124 134.37876 
L 181.327042 112.878722 
L 182.412843 153.719585 
L 183.498644 155.047129 
L 184.584445 176.473557 
L 185.670246 162.342699 
L 186.756047 171.607226 
L 187.841849 156.179701 
L 188.92765 151.542655 
L 190.013451 147.98465 
L 191.099252 165.111396 
L 192.185053 164.757029 
L 193.270854 135.109602 
L 194.356656 140.591002 
L 195.442457 166.702677 
L 196.528258 146.938135 
L 197.614059 131.627987 
L 198.69986 145.802789 
L 199.785661 146.369742 
L 200.871462 181.094844 
L 201.957264 176.155732 
L 203.043065 182.295043 
L 204.128866 189.514273 
L 205.214667 179.077886 
L 206.300468 189.868871 
L 207.386269 195.106254 
L 208.472071 193.667414 
L 209.557872 168.941665 
L 210.643673 138.187766 
L 211.729474 134.985315 
L 212.815275 145.934777 
L 213.901076 167.575846 
L 214.986877 195.63093 
L 216.072679 167.983503 
L 217.15848 146.260493 
L 218.244281 120.204872 
L 219.330082 153.281281 
L 220.415883 200.507942 
L 221.501684 206.74901 
L 222.587486 220.461382 
L 223.673287 213.81962 
L 224.759088 208.8278 
L 225.844889 224.86798 
L 226.93069 185.954365 
L 228.016491 167.562472 
L 229.102292 198.97806 
L 230.188094 205.58998 
L 231.273895 222.446686 
L 232.359696 206.615892 
L 233.445497 184.572183 
L 234.531298 181.34089 
L 235.617099 174.583301 
L 236.702901 175.883362 
L 237.788702 169.474111 
L 238.874503 165.889354 
L 239.960304 153.024746 
L 241.046105 166.763704 
L 242.131906 176.910571 
L 243.217708 181.878995 
L 244.303509 175.277067 
L 245.38931 165.551228 
L 246.475111 146.889253 
L 247.560912 161.606608 
L 248.646713 195.817385 
L 249.732514 205.088144 
L 250.818316 186.084923 
L 251.904117 181.589987 
L 252.989918 165.457855 
L 254.075719 169.988045 
L 255.16152 146.483138 
L 256.247321 164.95143 
L 257.333123 168.772415 
L 258.418924 141.85405 
L 259.504725 150.464972 
L 260.590526 148.780479 
L 261.676327 156.557033 
L 262.762128 183.383058 
L 263.847929 164.673103 
L 264.933731 166.211208 
L 266.019532 169.952437 
L 267.105333 206.008343 
L 268.191134 182.640726 
L 269.276935 176.560425 
L 270.362736 187.724681 
L 271.448538 181.477778 
L 272.534339 202.684233 
L 273.62014 201.193863 
L 274.705941 205.336376 
L 275.791742 217.882319 
L 276.877543 268.131918 
L 277.963344 260.638681 
L 279.049146 271.505828 
L 280.134947 279.486126 
L 281.220748 281.024665 
L 282.306549 246.039453 
L 283.39235 255.00757 
L 284.478151 220.554351 
L 285.563953 198.124862 
L 286.649754 214.883371 
L 287.735555 225.447173 
L 288.821356 201.064342 
L 289.907157 172.064741 
L 290.992958 175.037045 
L 292.07876 166.484622 
L 293.164561 191.594337 
L 294.250362 188.181679 
L 295.336163 172.929105 
L 296.421964 190.530307 
L 297.507765 188.170742 
L 298.593566 178.222761 
L 299.679368 200.547267 
L 300.765169 185.535332 
L 301.85097 159.612991 
L 302.936771 169.827804 
L 304.022572 153.698059 
L 305.108373 149.747098 
L 306.194175 143.202 
L 307.279976 152.115922 
L 308.365777 139.105751 
L 309.451578 163.91492 
L 310.537379 154.455046 
L 311.62318 182.381453 
L 312.708981 174.492233 
L 313.794783 173.654232 
L 314.880584 192.8074 
L 315.966385 160.931795 
L 317.052186 181.224902 
L 318.137987 189.614758 
L 319.223788 157.364575 
L 320.30959 176.338107 
L 321.395391 210.148618 
L 322.481192 186.358937 
L 323.566993 169.395307 
L 324.652794 162.300288 
L 325.738595 156.888893 
L 326.824396 166.725962 
L 327.910198 174.731794 
L 328.995999 175.864623 
L 330.0818 158.212462 
L 331.167601 148.090926 
L 332.253402 142.761349 
L 333.339203 139.456156 
L 334.425005 136.67833 
L 335.510806 142.759349 
L 336.596607 127.422272 
L 337.682408 126.331387 
L 338.768209 125.578401 
L 339.85401 121.43537 
L 340.939811 152.86316 
L 342.025613 162.45012 
L 343.111414 170.550996 
L 344.197215 165.364282 
L 345.283016 166.370902 
L 346.368817 157.293058 
L 347.454618 178.584144 
L 348.54042 153.082515 
L 349.626221 153.510065 
L 350.712022 171.182041 
L 351.797823 181.885895 
L 352.883624 202.10924 
L 353.969425 191.682626 
L 355.055227 202.927811 
L 356.141028 180.344596 
L 357.226829 170.317406 
L 358.31263 191.440411 
L 359.398431 192.786237 
L 360.484232 176.954989 
L 361.570033 150.294188 
L 362.655835 149.393741 
L 363.741636 136.823639 
L 364.827437 142.058594 
L 365.913238 139.698742 
L 366.999039 153.141236 
L 368.08484 145.561755 
L 369.170642 111.458414 
L 370.256443 122.921832 
L 371.342244 158.153934 
L 372.428045 167.897153 
L 373.513846 147.647706 
L 374.599647 172.298438 
L 375.685448 153.060772 
L 376.77125 151.198888 
L 377.857051 184.888383 
L 378.942852 183.327805 
L 380.028653 168.936927 
L 381.114454 166.398462 
L 382.200255 156.375014 
L 383.286057 135.001313 
L 384.371858 128.614875 
L 385.457659 155.77384 
L 386.54346 202.894986 
L 387.629261 208.817262 
L 388.715062 197.358755 
L 389.800863 228.608635 
L 390.886665 194.425538 
L 391.972466 195.44937 
L 393.058267 162.593789 
L 394.144068 157.606463 
L 395.229869 151.373644 
L 396.31567 167.193787 
L 397.401472 188.250745 
L 398.487273 252.330564 
L 398.487273 252.330564 
" style="fill:none;stroke:#0000ff;stroke-linecap:square;stroke-width:1.5;"/>
   </g>
   <g id="patch_3">
    <path d="M 57.6 307.584 
L 57.6 41.472 
" style="fill:none;stroke:#000000;stroke-linecap:square;stroke-linejoin:miter;stroke-width:0.8;"/>
   </g>
   <g id="patch_4">
    <path d="M 414.72 307.584 
L 414.72 41.472 
" style="fill:none;stroke:#000000;stroke-linecap:square;stroke-linejoin:miter;stroke-width:0.8;"/>
   </g>
   <g id="patch_5">
    <path d="M 57.6 307.584 
L 414.72 307.584 
" style="fill:none;stroke:#000000;stroke-linecap:square;stroke-linejoin:miter;stroke-width:0.8;"/>
   </g>
   <g id="patch_6">
    <path d="M 57.6 41.472 
L 414.72 41.472 
" style="fill:none;stroke:#000000;stroke-linecap:square;stroke-linejoin:miter;stroke-width:0.8;"/>
   </g>
  </g>
  <g id="axes_2">
   <g id="PolyCollection_2">
    <path clip-path="url(#pca5b64f2ef)" d="M 73.832727 72.701107 
L 73.832727 263.028301 
L 74.918528 256.243358 
L 76.00433 253.446081 
L 77.090131 254.795389 
L 78.175932 255.74961 
L 79.261733 261.032831 
L 80.347534 270.888373 
L 81.433335 274.91663 
L 82.519137 271.630596 
L 83.604938 275.212776 
L 84.690739 276.277443 
L 85.77654 279.233276 
L 86.862341 271.119339 
L 87.948142 268.357171 
L 89.033943 273.089624 
L 90.119745 273.469982 
L 91.205546 275.007644 
L 92.291347 273.9744 
L 93.377148 278.911725 
L 94.462949 277.136409 
L 95.54875 279.774461 
L 96.634552 280.69327 
L 97.720353 282.523514 
L 98.806154 285.216913 
L 99.891955 287.836852 
L 100.977756 285.86159 
L 102.063557 285.589936 
L 103.149358 287.696781 
L 104.23516 289.656848 
L 105.320961 289.462404 
L 106.406762 288.25229 
L 107.492563 287.558418 
L 108.578364 291.891295 
L 109.664165 290.555497 
L 110.749967 286.689414 
L 111.835768 292.905684 
L 112.921569 293.807115 
L 114.00737 291.348455 
L 115.093171 288.217283 
L 116.178972 289.229712 
L 117.264773 290.437008 
L 118.350575 290.548852 
L 119.436376 291.216601 
L 120.522177 291.20309 
L 121.607978 290.609364 
L 122.693779 289.763709 
L 123.77958 289.391637 
L 124.865382 291.332626 
L 125.951183 289.066669 
L 127.036984 289.395226 
L 128.122785 289.074714 
L 129.208586 288.94255 
L 130.294387 286.821916 
L 131.380189 289.188097 
L 132.46599 288.359947 
L 133.551791 290.106546 
L 134.637592 288.576998 
L 135.723393 287.940229 
L 136.809194 286.062007 
L 137.894995 288.49831 
L 138.980797 289.59037 
L 140.066598 290.636574 
L 141.152399 288.193434 
L 142.2382 291.374213 
L 143.324001 289.891601 
L 144.409802 289.849803 
L 145.495604 291.906898 
L 146.581405 290.771994 
L 147.667206 290.954404 
L 148.753007 286.555342 
L 149.838808 289.574311 
L 150.924609 289.296681 
L 152.01041 288.210586 
L 153.096212 288.149558 
L 154.182013 291.125996 
L 155.267814 291.650396 
L 156.353615 291.462067 
L 157.439416 291.20248 
L 158.525217 291.067388 
L 159.611019 290.163855 
L 160.69682 291.362906 
L 161.782621 290.520299 
L 162.868422 289.911612 
L 163.954223 289.889839 
L 165.040024 289.28786 
L 166.125825 291.469174 
L 167.211627 288.416786 
L 168.297428 287.027995 
L 169.383229 286.896649 
L 170.46903 285.23782 
L 171.554831 285.564088 
L 172.640632 286.415314 
L 173.726434 284.999606 
L 174.812235 282.975463 
L 175.898036 282.62273 
L 176.983837 278.424949 
L 178.069638 276.195602 
L 179.155439 269.7423 
L 180.24124 270.422284 
L 181.327042 273.483671 
L 182.412843 281.100394 
L 183.498644 283.700301 
L 184.584445 285.859146 
L 185.670246 289.1322 
L 186.756047 287.754215 
L 187.841849 280.799192 
L 188.92765 279.724922 
L 190.013451 284.439045 
L 191.099252 289.008058 
L 192.185053 283.708427 
L 193.270854 282.184197 
L 194.356656 280.922263 
L 195.442457 275.738593 
L 196.528258 277.929131 
L 197.614059 281.024669 
L 198.69986 283.300032 
L 199.785661 284.197356 
L 200.871462 290.20269 
L 201.957264 289.236079 
L 203.043065 287.77347 
L 204.128866 284.406417 
L 205.214667 280.382159 
L 206.300468 287.880561 
L 207.386269 284.488862 
L 208.472071 287.560931 
L 209.557872 284.46211 
L 210.643673 275.487307 
L 211.729474 275.169583 
L 212.815275 281.957972 
L 213.901076 285.432569 
L 214.986877 289.504327 
L 216.072679 289.823751 
L 217.15848 284.498472 
L 218.244281 280.796782 
L 219.330082 285.766712 
L 220.415883 290.663882 
L 221.501684 289.945621 
L 222.587486 292.568357 
L 223.673287 291.214102 
L 224.759088 291.79914 
L 225.844889 291.950826 
L 226.93069 287.363352 
L 228.016491 283.563629 
L 229.102292 289.230524 
L 230.188094 290.738869 
L 231.273895 291.349505 
L 232.359696 290.939185 
L 233.445497 289.798731 
L 234.531298 288.20847 
L 235.617099 288.711778 
L 236.702901 287.61881 
L 237.788702 286.336755 
L 238.874503 289.378072 
L 239.960304 284.42727 
L 241.046105 279.777445 
L 242.131906 282.294277 
L 243.217708 282.980524 
L 244.303509 285.825185 
L 245.38931 286.648911 
L 246.475111 286.160391 
L 247.560912 284.69251 
L 248.646713 287.29504 
L 249.732514 288.852896 
L 250.818316 290.256484 
L 251.904117 289.409298 
L 252.989918 286.60182 
L 254.075719 287.150288 
L 255.16152 283.648169 
L 256.247321 284.450528 
L 257.333123 286.101182 
L 258.418924 283.624589 
L 259.504725 286.066194 
L 260.590526 285.835495 
L 261.676327 288.229149 
L 262.762128 286.99663 
L 263.847929 283.5338 
L 264.933731 281.815672 
L 266.019532 283.313337 
L 267.105333 288.422365 
L 268.191134 288.702861 
L 269.276935 289.69067 
L 270.362736 287.468834 
L 271.448538 288.400143 
L 272.534339 291.116046 
L 273.62014 292.122832 
L 274.705941 293.035889 
L 275.791742 294.567373 
L 276.877543 294.791279 
L 277.963344 294.561165 
L 279.049146 295.38382 
L 280.134947 295.488 
L 281.220748 294.892569 
L 282.306549 294.660311 
L 283.39235 294.585284 
L 284.478151 292.70258 
L 285.563953 290.219191 
L 286.649754 292.856059 
L 287.735555 292.23675 
L 288.821356 290.611189 
L 289.907157 288.351029 
L 290.992958 288.245405 
L 292.07876 288.610539 
L 293.164561 290.558642 
L 294.250362 289.891904 
L 295.336163 289.04891 
L 296.421964 288.364191 
L 297.507765 287.651738 
L 298.593566 286.026864 
L 299.679368 289.760026 
L 300.765169 289.970487 
L 301.85097 284.29067 
L 302.936771 277.906046 
L 304.022572 284.455821 
L 305.108373 282.38496 
L 306.194175 275.518311 
L 307.279976 272.106545 
L 308.365777 273.685673 
L 309.451578 273.358648 
L 310.537379 272.187407 
L 311.62318 271.463893 
L 312.708981 271.145281 
L 313.794783 281.497981 
L 314.880584 278.927879 
L 315.966385 285.524853 
L 317.052186 281.870317 
L 318.137987 277.923961 
L 319.223788 278.372609 
L 320.30959 287.893407 
L 321.395391 290.748809 
L 322.481192 289.383725 
L 323.566993 289.171056 
L 324.652794 285.242805 
L 325.738595 280.742925 
L 326.824396 287.929744 
L 327.910198 287.533432 
L 328.995999 285.941653 
L 330.0818 284.903734 
L 331.167601 283.816746 
L 332.253402 281.892882 
L 333.339203 280.496105 
L 334.425005 270.49077 
L 335.510806 279.074417 
L 336.596607 276.401209 
L 337.682408 270.953402 
L 338.768209 268.339519 
L 339.85401 275.920414 
L 340.939811 273.73112 
L 342.025613 274.88298 
L 343.111414 273.404372 
L 344.197215 275.544875 
L 345.283016 274.126823 
L 346.368817 275.052488 
L 347.454618 272.970781 
L 348.54042 278.032225 
L 349.626221 274.094402 
L 350.712022 273.112636 
L 351.797823 272.163809 
L 352.883624 269.982082 
L 353.969425 274.703496 
L 355.055227 267.240313 
L 356.141028 271.070186 
L 357.226829 271.695197 
L 358.31263 276.097763 
L 359.398431 275.805573 
L 360.484232 276.760032 
L 361.570033 278.537121 
L 362.655835 282.198608 
L 363.741636 281.538452 
L 364.827437 285.097979 
L 365.913238 286.164098 
L 366.999039 284.017725 
L 368.08484 281.141186 
L 369.170642 274.118789 
L 370.256443 281.387589 
L 371.342244 286.980052 
L 372.428045 287.928277 
L 373.513846 287.031399 
L 374.599647 288.677649 
L 375.685448 285.329195 
L 376.77125 284.075401 
L 377.857051 286.260823 
L 378.942852 287.360827 
L 380.028653 284.161462 
L 381.114454 288.624375 
L 382.200255 281.067434 
L 383.286057 275.718942 
L 384.371858 276.420408 
L 385.457659 282.314346 
L 386.54346 292.783263 
L 387.629261 292.257281 
L 388.715062 291.232974 
L 389.800863 292.230788 
L 390.886665 291.515491 
L 391.972466 289.992213 
L 393.058267 288.421121 
L 394.144068 285.419256 
L 395.229869 285.424947 
L 396.31567 285.74504 
L 397.401472 289.442605 
L 398.487273 294.183275 
L 398.487273 128.858447 
L 398.487273 128.858447 
L 397.401472 108.929515 
L 396.31567 95.908768 
L 395.229869 94.637031 
L 394.144068 98.054224 
L 393.058267 104.621886 
L 391.972466 111.725569 
L 390.886665 112.026472 
L 389.800863 114.671186 
L 388.715062 112.807825 
L 387.629261 119.143917 
L 386.54346 119.436799 
L 385.457659 90.893375 
L 384.371858 73.81729 
L 383.286057 72.322132 
L 382.200255 81.904338 
L 381.114454 101.294312 
L 380.028653 91.079224 
L 378.942852 102.331784 
L 377.857051 96.414623 
L 376.77125 92.626995 
L 375.685448 94.246707 
L 374.599647 104.116786 
L 373.513846 97.152794 
L 372.428045 101.746557 
L 371.342244 100.88124 
L 370.256443 87.933177 
L 369.170642 76.559813 
L 368.08484 95.10968 
L 366.999039 99.852512 
L 365.913238 104.002229 
L 364.827437 103.452854 
L 363.741636 95.926833 
L 362.655835 97.898937 
L 361.570033 88.106146 
L 360.484232 79.830423 
L 359.398431 74.835126 
L 358.31263 73.329411 
L 357.226829 65.200988 
L 356.141028 64.185424 
L 355.055227 57.682896 
L 353.969425 70.280663 
L 352.883624 60.559192 
L 351.797823 64.310065 
L 350.712022 65.771321 
L 349.626221 68.387216 
L 348.54042 75.485811 
L 347.454618 64.917878 
L 346.368817 71.689908 
L 345.283016 71.828211 
L 344.197215 73.868584 
L 343.111414 68.778815 
L 342.025613 72.357329 
L 340.939811 68.673044 
L 339.85401 75.568679 
L 338.768209 62.873253 
L 337.682408 67.555288 
L 336.596607 74.814228 
L 335.510806 80.401243 
L 334.425005 65.837833 
L 333.339203 84.500221 
L 332.253402 87.268546 
L 331.167601 94.039139 
L 330.0818 95.053195 
L 328.995999 98.567574 
L 327.910198 102.370924 
L 326.824396 102.644739 
L 325.738595 81.920085 
L 324.652794 92.003052 
L 323.566993 104.56237 
L 322.481192 102.659903 
L 321.395391 117.738581 
L 320.30959 103.826963 
L 319.223788 77.995659 
L 318.137987 73.87144 
L 317.052186 83.357906 
L 315.966385 95.443879 
L 314.880584 85.599346 
L 313.794783 87.226001 
L 312.708981 67.11238 
L 311.62318 68.309268 
L 310.537379 64.792285 
L 309.451578 67.252322 
L 308.365777 66.811353 
L 307.279976 66.473351 
L 306.194175 73.581336 
L 305.108373 85.521724 
L 304.022572 89.391376 
L 302.936771 74.068819 
L 301.85097 92.889851 
L 300.765169 109.719183 
L 299.679368 115.261692 
L 298.593566 102.296075 
L 297.507765 109.143754 
L 296.421964 110.917606 
L 295.336163 107.917883 
L 294.250362 111.237166 
L 293.164561 110.721025 
L 292.07876 101.837516 
L 290.992958 102.131467 
L 289.907157 104.567016 
L 288.821356 113.781566 
L 287.735555 115.312536 
L 286.649754 114.563132 
L 285.563953 107.657177 
L 284.478151 114.054285 
L 283.39235 127.452809 
L 282.306549 130.256578 
L 281.220748 135.567249 
L 280.134947 139.314656 
L 279.049146 135.736895 
L 277.963344 133.837242 
L 276.877543 134.021439 
L 275.791742 123.753764 
L 274.705941 118.684769 
L 273.62014 114.467419 
L 272.534339 113.44073 
L 271.448538 105.109117 
L 270.362736 104.376154 
L 269.276935 113.186069 
L 268.191134 109.861059 
L 267.105333 114.557755 
L 266.019532 98.548673 
L 264.933731 95.307208 
L 263.847929 98.35413 
L 262.762128 104.878572 
L 261.676327 105.036018 
L 260.590526 94.231854 
L 259.504725 97.229246 
L 258.418924 90.695333 
L 257.333123 98.688882 
L 256.247321 97.336403 
L 255.16152 94.818613 
L 254.075719 100.658451 
L 252.989918 98.957496 
L 251.904117 110.404053 
L 250.818316 110.067624 
L 249.732514 106.133017 
L 248.646713 104.80281 
L 247.560912 97.023012 
L 246.475111 102.347593 
L 245.38931 102.907246 
L 244.303509 98.880403 
L 243.217708 88.645712 
L 242.131906 88.693417 
L 241.046105 82.593462 
L 239.960304 90.305394 
L 238.874503 105.783855 
L 237.788702 100.48872 
L 236.702901 108.981186 
L 235.617099 114.09303 
L 234.531298 107.226227 
L 233.445497 110.04826 
L 232.359696 111.946011 
L 231.273895 114.756466 
L 230.188094 115.054014 
L 229.102292 115.38868 
L 228.016491 91.442646 
L 226.93069 102.434698 
L 225.844889 116.717097 
L 224.759088 114.951942 
L 223.673287 116.866863 
L 222.587486 125.835044 
L 221.501684 114.425853 
L 220.415883 113.593695 
L 219.330082 99.041099 
L 218.244281 86.570486 
L 217.15848 95.054113 
L 216.072679 110.049741 
L 214.986877 108.746331 
L 213.901076 97.739621 
L 212.815275 90.326515 
L 211.729474 79.147304 
L 210.643673 77.299899 
L 209.557872 94.520205 
L 208.472071 110.42482 
L 207.386269 98.208267 
L 206.300468 106.66111 
L 205.214667 84.776637 
L 204.128866 95.267718 
L 203.043065 104.792962 
L 201.957264 108.233388 
L 200.871462 107.442712 
L 199.785661 92.744394 
L 198.69986 90.655994 
L 197.614059 86.238315 
L 196.528258 78.335535 
L 195.442457 73.910492 
L 194.356656 83.170334 
L 193.270854 84.844351 
L 192.185053 94.101432 
L 191.099252 108.672732 
L 190.013451 98.876584 
L 188.92765 85.02711 
L 187.841849 87.687651 
L 186.756047 101.928006 
L 185.670246 107.653981 
L 184.584445 95.320234 
L 183.498644 92.926723 
L 182.412843 89.069704 
L 181.327042 73.108047 
L 180.24124 68.681269 
L 179.155439 72.398689 
L 178.069638 81.620054 
L 176.983837 83.851977 
L 175.898036 91.673991 
L 174.812235 96.738884 
L 173.726434 99.817294 
L 172.640632 108.335434 
L 171.554831 106.462698 
L 170.46903 105.663202 
L 169.383229 114.723105 
L 168.297428 107.867266 
L 167.211627 110.598309 
L 166.125825 117.970233 
L 165.040024 113.938717 
L 163.954223 117.986333 
L 162.868422 116.302883 
L 161.782621 109.5013 
L 160.69682 125.17653 
L 159.611019 112.511297 
L 158.525217 115.703479 
L 157.439416 118.831806 
L 156.353615 116.502389 
L 155.267814 120.457363 
L 154.182013 116.797968 
L 153.096212 109.829391 
L 152.01041 110.872385 
L 150.924609 113.655706 
L 149.838808 108.608507 
L 148.753007 101.072171 
L 147.667206 115.265091 
L 146.581405 115.886647 
L 145.495604 120.398127 
L 144.409802 110.210285 
L 143.324001 109.071302 
L 142.2382 114.145562 
L 141.152399 105.92128 
L 140.066598 115.420916 
L 138.980797 109.713404 
L 137.894995 104.922475 
L 136.809194 99.173682 
L 135.723393 105.643712 
L 134.637592 109.248278 
L 133.551791 115.881901 
L 132.46599 110.30273 
L 131.380189 116.126015 
L 130.294387 110.069286 
L 129.208586 114.413277 
L 128.122785 121.089022 
L 127.036984 118.815706 
L 125.951183 117.592165 
L 124.865382 123.668835 
L 123.77958 112.154644 
L 122.693779 114.883195 
L 121.607978 118.053777 
L 120.522177 119.978289 
L 119.436376 122.339307 
L 118.350575 122.946185 
L 117.264773 121.588222 
L 116.178972 111.934471 
L 115.093171 112.853349 
L 114.00737 126.990384 
L 112.921569 129.816867 
L 111.835768 123.132861 
L 110.749967 99.555186 
L 109.664165 111.628004 
L 108.578364 120.841627 
L 107.492563 106.246844 
L 106.406762 108.836162 
L 105.320961 115.97596 
L 104.23516 120.141749 
L 103.149358 109.056068 
L 102.063557 102.115957 
L 100.977756 105.52241 
L 99.891955 108.186336 
L 98.806154 103.57163 
L 97.720353 95.317753 
L 96.634552 90.615432 
L 95.54875 88.471097 
L 94.462949 85.127546 
L 93.377148 88.192369 
L 92.291347 76.389716 
L 91.205546 76.358938 
L 90.119745 77.576894 
L 89.033943 79.192177 
L 87.948142 69.082857 
L 86.862341 72.847762 
L 85.77654 87.282659 
L 84.690739 81.829975 
L 83.604938 81.026004 
L 82.519137 74.76403 
L 81.433335 85.569606 
L 80.347534 76.246993 
L 79.261733 64.858061 
L 78.175932 53.69565 
L 77.090131 56.967407 
L 76.00433 53.568 
L 74.918528 60.489079 
L 73.832727 72.701107 
z
" style="fill:#008000;fill-opacity:0.25;"/>
   </g>
   <g id="matplotlib.axis_3">
    <g id="ytick_8">
     <g id="line2d_16">
      <path clip-path="url(#pca5b64f2ef)" d="M 57.6 294.704595 
L 414.72 294.704595 
" style="fill:none;stroke:#b0b0b0;stroke-linecap:square;stroke-width:0.8;"/>
     </g>
     <g id="line2d_17">
      <defs>
       <path d="M 0 0 
L 3.5 0 
" id="m06c55e68b2" style="stroke:#000000;stroke-width:0.8;"/>
      </defs>
      <g>
       <use style="stroke:#000000;stroke-width:0.8;" x="414.72" xlink:href="#m06c55e68b2" y="294.704595"/>
      </g>
     </g>
     <g id="text_16">
      <!-- 0.2 -->
      <defs>
       <path d="M 10.59375 35.5 
L 73.1875 35.5 
L 73.1875 27.203125 
L 10.59375 27.203125 
z
" id="DejaVuSans-8722"/>
      </defs>
      <g transform="translate(421.72 298.503814)scale(0.1 -0.1)">
       <use xlink:href="#DejaVuSans-8722"/>
       <use x="83.789062" xlink:href="#DejaVuSans-48"/>
       <use x="147.412109" xlink:href="#DejaVuSans-46"/>
       <use x="179.199219" xlink:href="#DejaVuSans-50"/>
      </g>
     </g>
    </g>
    <g id="ytick_9">
     <g id="line2d_18">
      <path clip-path="url(#pca5b64f2ef)" d="M 57.6 250.814749 
L 414.72 250.814749 
" style="fill:none;stroke:#b0b0b0;stroke-linecap:square;stroke-width:0.8;"/>
     </g>
     <g id="line2d_19">
      <g>
       <use style="stroke:#000000;stroke-width:0.8;" x="414.72" xlink:href="#m06c55e68b2" y="250.814749"/>
      </g>
     </g>
     <g id="text_17">
      <!-- 0.0 -->
      <g transform="translate(421.72 254.613968)scale(0.1 -0.1)">
       <use xlink:href="#DejaVuSans-48"/>
       <use x="63.623047" xlink:href="#DejaVuSans-46"/>
       <use x="95.410156" xlink:href="#DejaVuSans-48"/>
      </g>
     </g>
    </g>
    <g id="ytick_10">
     <g id="line2d_20">
      <path clip-path="url(#pca5b64f2ef)" d="M 57.6 206.924903 
L 414.72 206.924903 
" style="fill:none;stroke:#b0b0b0;stroke-linecap:square;stroke-width:0.8;"/>
     </g>
     <g id="line2d_21">
      <g>
       <use style="stroke:#000000;stroke-width:0.8;" x="414.72" xlink:href="#m06c55e68b2" y="206.924903"/>
      </g>
     </g>
     <g id="text_18">
      <!-- 0.2 -->
      <g transform="translate(421.72 210.724122)scale(0.1 -0.1)">
       <use xlink:href="#DejaVuSans-48"/>
       <use x="63.623047" xlink:href="#DejaVuSans-46"/>
       <use x="95.410156" xlink:href="#DejaVuSans-50"/>
      </g>
     </g>
    </g>
    <g id="ytick_11">
     <g id="line2d_22">
      <path clip-path="url(#pca5b64f2ef)" d="M 57.6 163.035058 
L 414.72 163.035058 
" style="fill:none;stroke:#b0b0b0;stroke-linecap:square;stroke-width:0.8;"/>
     </g>
     <g id="line2d_23">
      <g>
       <use style="stroke:#000000;stroke-width:0.8;" x="414.72" xlink:href="#m06c55e68b2" y="163.035058"/>
      </g>
     </g>
     <g id="text_19">
      <!-- 0.4 -->
      <g transform="translate(421.72 166.834276)scale(0.1 -0.1)">
       <use xlink:href="#DejaVuSans-48"/>
       <use x="63.623047" xlink:href="#DejaVuSans-46"/>
       <use x="95.410156" xlink:href="#DejaVuSans-52"/>
      </g>
     </g>
    </g>
    <g id="ytick_12">
     <g id="line2d_24">
      <path clip-path="url(#pca5b64f2ef)" d="M 57.6 119.145212 
L 414.72 119.145212 
" style="fill:none;stroke:#b0b0b0;stroke-linecap:square;stroke-width:0.8;"/>
     </g>
     <g id="line2d_25">
      <g>
       <use style="stroke:#000000;stroke-width:0.8;" x="414.72" xlink:href="#m06c55e68b2" y="119.145212"/>
      </g>
     </g>
     <g id="text_20">
      <!-- 0.6 -->
      <g transform="translate(421.72 122.944431)scale(0.1 -0.1)">
       <use xlink:href="#DejaVuSans-48"/>
       <use x="63.623047" xlink:href="#DejaVuSans-46"/>
       <use x="95.410156" xlink:href="#DejaVuSans-54"/>
      </g>
     </g>
    </g>
    <g id="ytick_13">
     <g id="line2d_26">
      <path clip-path="url(#pca5b64f2ef)" d="M 57.6 75.255366 
L 414.72 75.255366 
" style="fill:none;stroke:#b0b0b0;stroke-linecap:square;stroke-width:0.8;"/>
     </g>
     <g id="line2d_27">
      <g>
       <use style="stroke:#000000;stroke-width:0.8;" x="414.72" xlink:href="#m06c55e68b2" y="75.255366"/>
      </g>
     </g>
     <g id="text_21">
      <!-- 0.8 -->
      <g transform="translate(421.72 79.054585)scale(0.1 -0.1)">
       <use xlink:href="#DejaVuSans-48"/>
       <use x="63.623047" xlink:href="#DejaVuSans-46"/>
       <use x="95.410156" xlink:href="#DejaVuSans-56"/>
      </g>
     </g>
    </g>
    <g id="text_22">
     <!-- Loudness -->
     <defs>
      <path d="M 9.8125 72.90625 
L 19.671875 72.90625 
L 19.671875 8.296875 
L 55.171875 8.296875 
L 55.171875 0 
L 9.8125 0 
z
" id="DejaVuSans-76"/>
      <path d="M 30.609375 48.390625 
Q 23.390625 48.390625 19.1875 42.75 
Q 14.984375 37.109375 14.984375 27.296875 
Q 14.984375 17.484375 19.15625 11.84375 
Q 23.34375 6.203125 30.609375 6.203125 
Q 37.796875 6.203125 41.984375 11.859375 
Q 46.1875 17.53125 46.1875 27.296875 
Q 46.1875 37.015625 41.984375 42.703125 
Q 37.796875 48.390625 30.609375 48.390625 
z
M 30.609375 56 
Q 42.328125 56 49.015625 48.375 
Q 55.71875 40.765625 55.71875 27.296875 
Q 55.71875 13.875 49.015625 6.21875 
Q 42.328125 -1.421875 30.609375 -1.421875 
Q 18.84375 -1.421875 12.171875 6.21875 
Q 5.515625 13.875 5.515625 27.296875 
Q 5.515625 40.765625 12.171875 48.375 
Q 18.84375 56 30.609375 56 
z
" id="DejaVuSans-111"/>
      <path d="M 8.5 21.578125 
L 8.5 54.6875 
L 17.484375 54.6875 
L 17.484375 21.921875 
Q 17.484375 14.15625 20.5 10.265625 
Q 23.53125 6.390625 29.59375 6.390625 
Q 36.859375 6.390625 41.078125 11.03125 
Q 45.3125 15.671875 45.3125 23.6875 
L 45.3125 54.6875 
L 54.296875 54.6875 
L 54.296875 0 
L 45.3125 0 
L 45.3125 8.40625 
Q 42.046875 3.421875 37.71875 1 
Q 33.40625 -1.421875 27.6875 -1.421875 
Q 18.265625 -1.421875 13.375 4.4375 
Q 8.5 10.296875 8.5 21.578125 
z
M 31.109375 56 
z
" id="DejaVuSans-117"/>
      <path d="M 45.40625 46.390625 
L 45.40625 75.984375 
L 54.390625 75.984375 
L 54.390625 0 
L 45.40625 0 
L 45.40625 8.203125 
Q 42.578125 3.328125 38.25 0.953125 
Q 33.9375 -1.421875 27.875 -1.421875 
Q 17.96875 -1.421875 11.734375 6.484375 
Q 5.515625 14.40625 5.515625 27.296875 
Q 5.515625 40.1875 11.734375 48.09375 
Q 17.96875 56 27.875 56 
Q 33.9375 56 38.25 53.625 
Q 42.578125 51.265625 45.40625 46.390625 
z
M 14.796875 27.296875 
Q 14.796875 17.390625 18.875 11.75 
Q 22.953125 6.109375 30.078125 6.109375 
Q 37.203125 6.109375 41.296875 11.75 
Q 45.40625 17.390625 45.40625 27.296875 
Q 45.40625 37.203125 41.296875 42.84375 
Q 37.203125 48.484375 30.078125 48.484375 
Q 22.953125 48.484375 18.875 42.84375 
Q 14.796875 37.203125 14.796875 27.296875 
z
" id="DejaVuSans-100"/>
     </defs>
     <g transform="translate(457.60125 198.170187)rotate(-90)scale(0.1 -0.1)">
      <use xlink:href="#DejaVuSans-76"/>
      <use x="55.697266" xlink:href="#DejaVuSans-111"/>
      <use x="116.878906" xlink:href="#DejaVuSans-117"/>
      <use x="180.257812" xlink:href="#DejaVuSans-100"/>
      <use x="243.734375" xlink:href="#DejaVuSans-110"/>
      <use x="307.113281" xlink:href="#DejaVuSans-101"/>
      <use x="368.636719" xlink:href="#DejaVuSans-115"/>
      <use x="420.736328" xlink:href="#DejaVuSans-115"/>
     </g>
    </g>
   </g>
   <g id="line2d_28">
    <path clip-path="url(#pca5b64f2ef)" d="M 73.832727 167.864704 
L 74.918528 158.366219 
L 76.00433 153.507041 
L 77.090131 155.881398 
L 78.175932 154.72263 
L 79.261733 162.945446 
L 80.347534 173.567683 
L 81.433335 180.243118 
L 82.519137 173.197313 
L 83.604938 178.11939 
L 84.690739 179.053709 
L 85.77654 183.257967 
L 86.862341 171.983551 
L 87.948142 168.720014 
L 89.033943 176.140901 
L 90.119745 175.523438 
L 91.205546 175.683291 
L 92.291347 175.182058 
L 93.377148 183.552047 
L 94.462949 181.131977 
L 95.54875 184.122779 
L 96.634552 185.654351 
L 97.720353 188.920634 
L 98.806154 194.394272 
L 99.891955 198.011594 
L 100.977756 195.692 
L 102.063557 193.852946 
L 103.149358 198.376425 
L 104.23516 204.899299 
L 105.320961 202.719182 
L 106.406762 198.544226 
L 107.492563 196.902631 
L 108.578364 206.366461 
L 109.664165 201.09175 
L 110.749967 193.1223 
L 111.835768 208.019273 
L 112.921569 211.811991 
L 114.00737 209.169419 
L 115.093171 200.535316 
L 116.178972 200.582092 
L 117.264773 206.012615 
L 118.350575 206.747519 
L 119.436376 206.777954 
L 121.607978 204.33157 
L 122.693779 202.323452 
L 123.77958 200.773141 
L 124.865382 207.50073 
L 125.951183 203.329417 
L 127.036984 204.105466 
L 128.122785 205.081868 
L 130.294387 198.445601 
L 131.380189 202.657056 
L 132.46599 199.331339 
L 133.551791 202.994223 
L 134.637592 198.912638 
L 135.723393 196.791971 
L 136.809194 192.617844 
L 137.894995 196.710392 
L 138.980797 199.651887 
L 140.066598 203.028745 
L 141.152399 197.057357 
L 142.2382 202.759888 
L 143.324001 199.481452 
L 144.409802 200.030044 
L 145.495604 206.152513 
L 146.581405 203.329321 
L 147.667206 203.109748 
L 148.753007 193.813756 
L 149.838808 199.091409 
L 150.924609 201.476193 
L 152.01041 199.541485 
L 153.096212 198.989475 
L 154.182013 203.961982 
L 155.267814 206.05388 
L 156.353615 203.982228 
L 157.439416 205.017143 
L 158.525217 203.385434 
L 159.611019 201.337576 
L 160.69682 208.269718 
L 161.782621 200.010799 
L 162.868422 203.107248 
L 163.954223 203.938086 
L 165.040024 201.613288 
L 166.125825 204.719703 
L 167.211627 199.507547 
L 168.297428 197.44763 
L 169.383229 200.809877 
L 170.46903 195.450511 
L 171.554831 196.013393 
L 172.640632 197.375374 
L 173.726434 192.40845 
L 175.898036 187.148361 
L 176.983837 181.138463 
L 178.069638 178.907828 
L 179.155439 171.070494 
L 180.24124 169.551776 
L 181.327042 173.295859 
L 182.412843 185.085049 
L 183.498644 188.313512 
L 184.584445 190.58969 
L 185.670246 198.39309 
L 186.756047 194.841111 
L 187.841849 184.243421 
L 188.92765 182.376016 
L 190.013451 191.657815 
L 191.099252 198.840395 
L 192.185053 188.904929 
L 193.270854 183.514274 
L 194.356656 182.046299 
L 195.442457 174.824543 
L 196.528258 178.132333 
L 197.614059 183.631492 
L 198.69986 186.978013 
L 199.785661 188.470875 
L 200.871462 198.822701 
L 201.957264 198.734733 
L 203.043065 196.283216 
L 204.128866 189.837068 
L 205.214667 182.579398 
L 206.300468 197.270836 
L 207.386269 191.348564 
L 208.472071 198.992875 
L 209.557872 189.491158 
L 210.643673 176.393603 
L 211.729474 177.158444 
L 212.815275 186.142243 
L 213.901076 191.586095 
L 214.986877 199.125329 
L 216.072679 199.936746 
L 217.15848 189.776292 
L 218.244281 183.683634 
L 219.330082 192.403906 
L 220.415883 202.128788 
L 221.501684 202.185737 
L 222.587486 209.201701 
L 223.673287 204.040483 
L 224.759088 203.375541 
L 225.844889 204.333961 
L 226.93069 194.899025 
L 228.016491 187.503137 
L 229.102292 202.309602 
L 230.188094 202.896442 
L 231.273895 203.052986 
L 233.445497 199.923496 
L 234.531298 197.717348 
L 235.617099 201.402404 
L 236.702901 198.299998 
L 237.788702 193.412737 
L 238.874503 197.580964 
L 239.960304 187.366332 
L 241.046105 181.185453 
L 242.131906 185.493847 
L 243.217708 185.813118 
L 244.303509 192.352794 
L 245.38931 194.778078 
L 246.475111 194.253992 
L 247.560912 190.857761 
L 248.646713 196.048925 
L 249.732514 197.492956 
L 250.818316 200.162054 
L 251.904117 199.906675 
L 252.989918 192.779658 
L 254.075719 193.904369 
L 255.16152 189.233391 
L 257.333123 192.395032 
L 258.418924 187.159961 
L 259.504725 191.64772 
L 260.590526 190.033674 
L 261.676327 196.632584 
L 262.762128 195.937601 
L 263.847929 190.943965 
L 264.933731 188.56144 
L 266.019532 190.931005 
L 267.105333 201.49006 
L 268.191134 199.28196 
L 269.276935 201.438369 
L 270.362736 195.922494 
L 271.448538 196.75463 
L 272.534339 202.278388 
L 273.62014 203.295125 
L 274.705941 205.860329 
L 275.791742 209.160568 
L 276.877543 214.406359 
L 277.963344 214.199203 
L 279.049146 215.560358 
L 280.134947 217.401328 
L 281.220748 215.229909 
L 282.306549 212.458444 
L 283.39235 211.019047 
L 284.478151 203.378433 
L 285.563953 198.938184 
L 286.649754 203.709596 
L 287.735555 203.774643 
L 288.821356 202.196378 
L 289.907157 196.459022 
L 290.992958 195.188436 
L 292.07876 195.224028 
L 293.164561 200.639833 
L 294.250362 200.564535 
L 295.336163 198.483397 
L 296.421964 199.640898 
L 297.507765 198.397746 
L 298.593566 194.16147 
L 299.679368 202.510859 
L 300.765169 199.844835 
L 301.85097 188.590261 
L 302.936771 175.987433 
L 304.022572 186.923599 
L 305.108373 183.953342 
L 306.194175 174.549823 
L 307.279976 169.289948 
L 308.365777 170.248513 
L 309.451578 170.305485 
L 310.537379 168.489846 
L 311.62318 169.88658 
L 312.708981 169.128831 
L 313.794783 184.361991 
L 314.880584 182.263612 
L 315.966385 190.484366 
L 317.052186 182.614111 
L 318.137987 175.897701 
L 319.223788 178.184134 
L 320.30959 195.860185 
L 321.395391 204.243695 
L 322.481192 196.021814 
L 323.566993 196.866713 
L 324.652794 188.622928 
L 325.738595 181.331505 
L 326.824396 195.287241 
L 327.910198 194.952178 
L 328.995999 192.254614 
L 330.0818 189.978465 
L 331.167601 188.927943 
L 332.253402 184.580714 
L 333.339203 182.498163 
L 334.425005 168.164301 
L 335.510806 179.73783 
L 336.596607 175.607718 
L 337.682408 169.254345 
L 338.768209 165.606386 
L 339.85401 175.744546 
L 340.939811 171.202082 
L 342.025613 173.620155 
L 343.111414 171.091593 
L 344.197215 174.70673 
L 345.283016 172.977517 
L 346.368817 173.371198 
L 347.454618 168.944329 
L 348.54042 176.759018 
L 349.626221 171.240809 
L 350.712022 169.441979 
L 351.797823 168.236937 
L 352.883624 165.270637 
L 353.969425 172.49208 
L 355.055227 162.461604 
L 356.141028 167.627805 
L 357.226829 168.448092 
L 358.31263 174.713587 
L 359.398431 175.320349 
L 360.484232 178.295228 
L 361.570033 183.321634 
L 362.655835 190.048772 
L 363.741636 188.732642 
L 364.827437 194.275417 
L 365.913238 195.083164 
L 366.999039 191.935119 
L 368.08484 188.125433 
L 369.170642 175.339301 
L 371.342244 193.930646 
L 372.428045 194.837417 
L 373.513846 192.092097 
L 374.599647 196.397218 
L 375.685448 189.787951 
L 376.77125 188.351198 
L 377.857051 191.337723 
L 378.942852 194.846305 
L 380.028653 187.620343 
L 381.114454 194.959344 
L 382.200255 181.485886 
L 383.286057 174.020537 
L 384.371858 175.118849 
L 385.457659 186.60386 
L 386.54346 206.110031 
L 387.629261 205.700599 
L 388.715062 202.0204 
L 389.800863 203.450987 
L 390.886665 201.770982 
L 391.972466 200.858891 
L 394.144068 191.73674 
L 395.229869 190.030989 
L 396.31567 190.826904 
L 397.401472 199.18606 
L 398.487273 211.520861 
L 398.487273 211.520861 
" style="fill:none;stroke:#008000;stroke-linecap:square;stroke-width:1.5;"/>
   </g>
   <g id="patch_7">
    <path d="M 57.6 307.584 
L 57.6 41.472 
" style="fill:none;stroke:#000000;stroke-linecap:square;stroke-linejoin:miter;stroke-width:0.8;"/>
   </g>
   <g id="patch_8">
    <path d="M 414.72 307.584 
L 414.72 41.472 
" style="fill:none;stroke:#000000;stroke-linecap:square;stroke-linejoin:miter;stroke-width:0.8;"/>
   </g>
   <g id="patch_9">
    <path d="M 57.6 307.584 
L 414.72 307.584 
" style="fill:none;stroke:#000000;stroke-linecap:square;stroke-linejoin:miter;stroke-width:0.8;"/>
   </g>
   <g id="patch_10">
    <path d="M 57.6 41.472 
L 414.72 41.472 
" style="fill:none;stroke:#000000;stroke-linecap:square;stroke-linejoin:miter;stroke-width:0.8;"/>
   </g>
   <g id="text_23">
    <!-- Message Difference and Loudness -->
    <defs>
     <path d="M 9.8125 72.90625 
L 24.515625 72.90625 
L 43.109375 23.296875 
L 61.8125 72.90625 
L 76.515625 72.90625 
L 76.515625 0 
L 66.890625 0 
L 66.890625 64.015625 
L 48.09375 14.015625 
L 38.1875 14.015625 
L 19.390625 64.015625 
L 19.390625 0 
L 9.8125 0 
z
" id="DejaVuSans-77"/>
     <path d="M 45.40625 27.984375 
Q 45.40625 37.75 41.375 43.109375 
Q 37.359375 48.484375 30.078125 48.484375 
Q 22.859375 48.484375 18.828125 43.109375 
Q 14.796875 37.75 14.796875 27.984375 
Q 14.796875 18.265625 18.828125 12.890625 
Q 22.859375 7.515625 30.078125 7.515625 
Q 37.359375 7.515625 41.375 12.890625 
Q 45.40625 18.265625 45.40625 27.984375 
z
M 54.390625 6.78125 
Q 54.390625 -7.171875 48.1875 -13.984375 
Q 42 -20.796875 29.203125 -20.796875 
Q 24.46875 -20.796875 20.265625 -20.09375 
Q 16.0625 -19.390625 12.109375 -17.921875 
L 12.109375 -9.1875 
Q 16.0625 -11.328125 19.921875 -12.34375 
Q 23.78125 -13.375 27.78125 -13.375 
Q 36.625 -13.375 41.015625 -8.765625 
Q 45.40625 -4.15625 45.40625 5.171875 
L 45.40625 9.625 
Q 42.625 4.78125 38.28125 2.390625 
Q 33.9375 0 27.875 0 
Q 17.828125 0 11.671875 7.65625 
Q 5.515625 15.328125 5.515625 27.984375 
Q 5.515625 40.671875 11.671875 48.328125 
Q 17.828125 56 27.875 56 
Q 33.9375 56 38.28125 53.609375 
Q 42.625 51.21875 45.40625 46.390625 
L 45.40625 54.6875 
L 54.390625 54.6875 
z
" id="DejaVuSans-103"/>
     <path id="DejaVuSans-32"/>
     <path d="M 37.109375 75.984375 
L 37.109375 68.5 
L 28.515625 68.5 
Q 23.6875 68.5 21.796875 66.546875 
Q 19.921875 64.59375 19.921875 59.515625 
L 19.921875 54.6875 
L 34.71875 54.6875 
L 34.71875 47.703125 
L 19.921875 47.703125 
L 19.921875 0 
L 10.890625 0 
L 10.890625 47.703125 
L 2.296875 47.703125 
L 2.296875 54.6875 
L 10.890625 54.6875 
L 10.890625 58.5 
Q 10.890625 67.625 15.140625 71.796875 
Q 19.390625 75.984375 28.609375 75.984375 
z
" id="DejaVuSans-102"/>
     <path d="M 41.109375 46.296875 
Q 39.59375 47.171875 37.8125 47.578125 
Q 36.03125 48 33.890625 48 
Q 26.265625 48 22.1875 43.046875 
Q 18.109375 38.09375 18.109375 28.8125 
L 18.109375 0 
L 9.078125 0 
L 9.078125 54.6875 
L 18.109375 54.6875 
L 18.109375 46.1875 
Q 20.953125 51.171875 25.484375 53.578125 
Q 30.03125 56 36.53125 56 
Q 37.453125 56 38.578125 55.875 
Q 39.703125 55.765625 41.0625 55.515625 
z
" id="DejaVuSans-114"/>
    </defs>
    <g transform="translate(133.329375 35.472)scale(0.12 -0.12)">
     <use xlink:href="#DejaVuSans-77"/>
     <use x="86.279297" xlink:href="#DejaVuSans-101"/>
     <use x="147.802734" xlink:href="#DejaVuSans-115"/>
     <use x="199.902344" xlink:href="#DejaVuSans-115"/>
     <use x="252.001953" xlink:href="#DejaVuSans-97"/>
     <use x="313.28125" xlink:href="#DejaVuSans-103"/>
     <use x="376.757812" xlink:href="#DejaVuSans-101"/>
     <use x="438.28125" xlink:href="#DejaVuSans-32"/>
     <use x="470.068359" xlink:href="#DejaVuSans-68"/>
     <use x="547.070312" xlink:href="#DejaVuSans-105"/>
     <use x="574.853516" xlink:href="#DejaVuSans-102"/>
     <use x="610.058594" xlink:href="#DejaVuSans-102"/>
     <use x="645.263672" xlink:href="#DejaVuSans-101"/>
     <use x="706.787109" xlink:href="#DejaVuSans-114"/>
     <use x="747.869141" xlink:href="#DejaVuSans-101"/>
     <use x="809.392578" xlink:href="#DejaVuSans-110"/>
     <use x="872.771484" xlink:href="#DejaVuSans-99"/>
     <use x="927.751953" xlink:href="#DejaVuSans-101"/>
     <use x="989.275391" xlink:href="#DejaVuSans-32"/>
     <use x="1021.0625" xlink:href="#DejaVuSans-97"/>
     <use x="1082.341797" xlink:href="#DejaVuSans-110"/>
     <use x="1145.720703" xlink:href="#DejaVuSans-100"/>
     <use x="1209.197266" xlink:href="#DejaVuSans-32"/>
     <use x="1240.984375" xlink:href="#DejaVuSans-76"/>
     <use x="1296.681641" xlink:href="#DejaVuSans-111"/>
     <use x="1357.863281" xlink:href="#DejaVuSans-117"/>
     <use x="1421.242188" xlink:href="#DejaVuSans-100"/>
     <use x="1484.71875" xlink:href="#DejaVuSans-110"/>
     <use x="1548.097656" xlink:href="#DejaVuSans-101"/>
     <use x="1609.621094" xlink:href="#DejaVuSans-115"/>
     <use x="1661.720703" xlink:href="#DejaVuSans-115"/>
    </g>
   </g>
   <g id="legend_1">
    <g id="patch_11">
     <path d="M 331.227813 64.150125 
L 407.72 64.150125 
Q 409.72 64.150125 409.72 62.150125 
L 409.72 48.472 
Q 409.72 46.472 407.72 46.472 
L 331.227813 46.472 
Q 329.227813 46.472 329.227813 48.472 
L 329.227813 62.150125 
Q 329.227813 64.150125 331.227813 64.150125 
z
" style="fill:#ffffff;opacity:0.8;stroke:#cccccc;stroke-linejoin:miter;"/>
    </g>
    <g id="line2d_29">
     <path d="M 333.227813 54.570438 
L 353.227813 54.570438 
" style="fill:none;stroke:#008000;stroke-linecap:square;stroke-width:1.5;"/>
    </g>
    <g id="line2d_30"/>
    <g id="text_24">
     <!-- loudness -->
     <defs>
      <path d="M 9.421875 75.984375 
L 18.40625 75.984375 
L 18.40625 0 
L 9.421875 0 
z
" id="DejaVuSans-108"/>
     </defs>
     <g transform="translate(361.227813 58.070438)scale(0.1 -0.1)">
      <use xlink:href="#DejaVuSans-108"/>
      <use x="27.783203" xlink:href="#DejaVuSans-111"/>
      <use x="88.964844" xlink:href="#DejaVuSans-117"/>
      <use x="152.34375" xlink:href="#DejaVuSans-100"/>
      <use x="215.820312" xlink:href="#DejaVuSans-110"/>
      <use x="279.199219" xlink:href="#DejaVuSans-101"/>
      <use x="340.722656" xlink:href="#DejaVuSans-115"/>
      <use x="392.822266" xlink:href="#DejaVuSans-115"/>
     </g>
    </g>
   </g>
  </g>
 </g>
 <defs>
  <clipPath id="pca5b64f2ef">
   <rect height="266.112" width="357.12" x="57.6" y="41.472"/>
  </clipPath>
 </defs>
</svg>
