<?xml version="1.0" encoding="utf-8" standalone="no"?>
<!DOCTYPE svg PUBLIC "-//W3C//DTD SVG 1.1//EN"
  "http://www.w3.org/Graphics/SVG/1.1/DTD/svg11.dtd">
<!-- Created with matplotlib (https://matplotlib.org/) -->
<svg height="345.6pt" version="1.1" viewBox="0 0 460.8 345.6" width="460.8pt" xmlns="http://www.w3.org/2000/svg" xmlns:xlink="http://www.w3.org/1999/xlink">
 <defs>
  <style type="text/css">
*{stroke-linecap:butt;stroke-linejoin:round;}
  </style>
 </defs>
 <g id="figure_1">
  <g id="patch_1">
   <path d="M 0 345.6 
L 460.8 345.6 
L 460.8 0 
L 0 0 
z
" style="fill:#ffffff;"/>
  </g>
  <g id="axes_1">
   <g id="patch_2">
    <path d="M 57.6 307.584 
L 414.72 307.584 
L 414.72 41.472 
L 57.6 41.472 
z
" style="fill:#ffffff;"/>
   </g>
   <g id="matplotlib.axis_1">
    <g id="xtick_1">
     <g id="line2d_1">
      <path clip-path="url(#p1b134f0371)" d="M 73.832727 307.584 
L 73.832727 41.472 
" style="fill:none;stroke:#b0b0b0;stroke-linecap:square;stroke-width:0.8;"/>
     </g>
     <g id="line2d_2">
      <defs>
       <path d="M 0 0 
L 0 3.5 
" id="m4eec50f8e3" style="stroke:#000000;stroke-width:0.8;"/>
      </defs>
      <g>
       <use style="stroke:#000000;stroke-width:0.8;" x="73.832727" xlink:href="#m4eec50f8e3" y="307.584"/>
      </g>
     </g>
     <g id="text_1">
      <!-- 0 -->
      <defs>
       <path d="M 31.78125 66.40625 
Q 24.171875 66.40625 20.328125 58.90625 
Q 16.5 51.421875 16.5 36.375 
Q 16.5 21.390625 20.328125 13.890625 
Q 24.171875 6.390625 31.78125 6.390625 
Q 39.453125 6.390625 43.28125 13.890625 
Q 47.125 21.390625 47.125 36.375 
Q 47.125 51.421875 43.28125 58.90625 
Q 39.453125 66.40625 31.78125 66.40625 
z
M 31.78125 74.21875 
Q 44.046875 74.21875 50.515625 64.515625 
Q 56.984375 54.828125 56.984375 36.375 
Q 56.984375 17.96875 50.515625 8.265625 
Q 44.046875 -1.421875 31.78125 -1.421875 
Q 19.53125 -1.421875 13.0625 8.265625 
Q 6.59375 17.96875 6.59375 36.375 
Q 6.59375 54.828125 13.0625 64.515625 
Q 19.53125 74.21875 31.78125 74.21875 
z
" id="DejaVuSans-48"/>
      </defs>
      <g transform="translate(70.651477 322.182437)scale(0.1 -0.1)">
       <use xlink:href="#DejaVuSans-48"/>
      </g>
     </g>
    </g>
    <g id="xtick_2">
     <g id="line2d_3">
      <path clip-path="url(#p1b134f0371)" d="M 128.122785 307.584 
L 128.122785 41.472 
" style="fill:none;stroke:#b0b0b0;stroke-linecap:square;stroke-width:0.8;"/>
     </g>
     <g id="line2d_4">
      <g>
       <use style="stroke:#000000;stroke-width:0.8;" x="128.122785" xlink:href="#m4eec50f8e3" y="307.584"/>
      </g>
     </g>
     <g id="text_2">
      <!-- 50 -->
      <defs>
       <path d="M 10.796875 72.90625 
L 49.515625 72.90625 
L 49.515625 64.59375 
L 19.828125 64.59375 
L 19.828125 46.734375 
Q 21.96875 47.46875 24.109375 47.828125 
Q 26.265625 48.1875 28.421875 48.1875 
Q 40.625 48.1875 47.75 41.5 
Q 54.890625 34.8125 54.890625 23.390625 
Q 54.890625 11.625 47.5625 5.09375 
Q 40.234375 -1.421875 26.90625 -1.421875 
Q 22.3125 -1.421875 17.546875 -0.640625 
Q 12.796875 0.140625 7.71875 1.703125 
L 7.71875 11.625 
Q 12.109375 9.234375 16.796875 8.0625 
Q 21.484375 6.890625 26.703125 6.890625 
Q 35.15625 6.890625 40.078125 11.328125 
Q 45.015625 15.765625 45.015625 23.390625 
Q 45.015625 31 40.078125 35.4375 
Q 35.15625 39.890625 26.703125 39.890625 
Q 22.75 39.890625 18.8125 39.015625 
Q 14.890625 38.140625 10.796875 36.28125 
z
" id="DejaVuSans-53"/>
      </defs>
      <g transform="translate(121.760285 322.182437)scale(0.1 -0.1)">
       <use xlink:href="#DejaVuSans-53"/>
       <use x="63.623047" xlink:href="#DejaVuSans-48"/>
      </g>
     </g>
    </g>
    <g id="xtick_3">
     <g id="line2d_5">
      <path clip-path="url(#p1b134f0371)" d="M 182.412843 307.584 
L 182.412843 41.472 
" style="fill:none;stroke:#b0b0b0;stroke-linecap:square;stroke-width:0.8;"/>
     </g>
     <g id="line2d_6">
      <g>
       <use style="stroke:#000000;stroke-width:0.8;" x="182.412843" xlink:href="#m4eec50f8e3" y="307.584"/>
      </g>
     </g>
     <g id="text_3">
      <!-- 100 -->
      <defs>
       <path d="M 12.40625 8.296875 
L 28.515625 8.296875 
L 28.515625 63.921875 
L 10.984375 60.40625 
L 10.984375 69.390625 
L 28.421875 72.90625 
L 38.28125 72.90625 
L 38.28125 8.296875 
L 54.390625 8.296875 
L 54.390625 0 
L 12.40625 0 
z
" id="DejaVuSans-49"/>
      </defs>
      <g transform="translate(172.869093 322.182437)scale(0.1 -0.1)">
       <use xlink:href="#DejaVuSans-49"/>
       <use x="63.623047" xlink:href="#DejaVuSans-48"/>
       <use x="127.246094" xlink:href="#DejaVuSans-48"/>
      </g>
     </g>
    </g>
    <g id="xtick_4">
     <g id="line2d_7">
      <path clip-path="url(#p1b134f0371)" d="M 236.702901 307.584 
L 236.702901 41.472 
" style="fill:none;stroke:#b0b0b0;stroke-linecap:square;stroke-width:0.8;"/>
     </g>
     <g id="line2d_8">
      <g>
       <use style="stroke:#000000;stroke-width:0.8;" x="236.702901" xlink:href="#m4eec50f8e3" y="307.584"/>
      </g>
     </g>
     <g id="text_4">
      <!-- 150 -->
      <g transform="translate(227.159151 322.182437)scale(0.1 -0.1)">
       <use xlink:href="#DejaVuSans-49"/>
       <use x="63.623047" xlink:href="#DejaVuSans-53"/>
       <use x="127.246094" xlink:href="#DejaVuSans-48"/>
      </g>
     </g>
    </g>
    <g id="xtick_5">
     <g id="line2d_9">
      <path clip-path="url(#p1b134f0371)" d="M 290.992958 307.584 
L 290.992958 41.472 
" style="fill:none;stroke:#b0b0b0;stroke-linecap:square;stroke-width:0.8;"/>
     </g>
     <g id="line2d_10">
      <g>
       <use style="stroke:#000000;stroke-width:0.8;" x="290.992958" xlink:href="#m4eec50f8e3" y="307.584"/>
      </g>
     </g>
     <g id="text_5">
      <!-- 200 -->
      <defs>
       <path d="M 19.1875 8.296875 
L 53.609375 8.296875 
L 53.609375 0 
L 7.328125 0 
L 7.328125 8.296875 
Q 12.9375 14.109375 22.625 23.890625 
Q 32.328125 33.6875 34.8125 36.53125 
Q 39.546875 41.84375 41.421875 45.53125 
Q 43.3125 49.21875 43.3125 52.78125 
Q 43.3125 58.59375 39.234375 62.25 
Q 35.15625 65.921875 28.609375 65.921875 
Q 23.96875 65.921875 18.8125 64.3125 
Q 13.671875 62.703125 7.8125 59.421875 
L 7.8125 69.390625 
Q 13.765625 71.78125 18.9375 73 
Q 24.125 74.21875 28.421875 74.21875 
Q 39.75 74.21875 46.484375 68.546875 
Q 53.21875 62.890625 53.21875 53.421875 
Q 53.21875 48.921875 51.53125 44.890625 
Q 49.859375 40.875 45.40625 35.40625 
Q 44.1875 33.984375 37.640625 27.21875 
Q 31.109375 20.453125 19.1875 8.296875 
z
" id="DejaVuSans-50"/>
      </defs>
      <g transform="translate(281.449208 322.182437)scale(0.1 -0.1)">
       <use xlink:href="#DejaVuSans-50"/>
       <use x="63.623047" xlink:href="#DejaVuSans-48"/>
       <use x="127.246094" xlink:href="#DejaVuSans-48"/>
      </g>
     </g>
    </g>
    <g id="xtick_6">
     <g id="line2d_11">
      <path clip-path="url(#p1b134f0371)" d="M 345.283016 307.584 
L 345.283016 41.472 
" style="fill:none;stroke:#b0b0b0;stroke-linecap:square;stroke-width:0.8;"/>
     </g>
     <g id="line2d_12">
      <g>
       <use style="stroke:#000000;stroke-width:0.8;" x="345.283016" xlink:href="#m4eec50f8e3" y="307.584"/>
      </g>
     </g>
     <g id="text_6">
      <!-- 250 -->
      <g transform="translate(335.739266 322.182437)scale(0.1 -0.1)">
       <use xlink:href="#DejaVuSans-50"/>
       <use x="63.623047" xlink:href="#DejaVuSans-53"/>
       <use x="127.246094" xlink:href="#DejaVuSans-48"/>
      </g>
     </g>
    </g>
    <g id="xtick_7">
     <g id="line2d_13">
      <path clip-path="url(#p1b134f0371)" d="M 399.573074 307.584 
L 399.573074 41.472 
" style="fill:none;stroke:#b0b0b0;stroke-linecap:square;stroke-width:0.8;"/>
     </g>
     <g id="line2d_14">
      <g>
       <use style="stroke:#000000;stroke-width:0.8;" x="399.573074" xlink:href="#m4eec50f8e3" y="307.584"/>
      </g>
     </g>
     <g id="text_7">
      <!-- 300 -->
      <defs>
       <path d="M 40.578125 39.3125 
Q 47.65625 37.796875 51.625 33 
Q 55.609375 28.21875 55.609375 21.1875 
Q 55.609375 10.40625 48.1875 4.484375 
Q 40.765625 -1.421875 27.09375 -1.421875 
Q 22.515625 -1.421875 17.65625 -0.515625 
Q 12.796875 0.390625 7.625 2.203125 
L 7.625 11.71875 
Q 11.71875 9.328125 16.59375 8.109375 
Q 21.484375 6.890625 26.8125 6.890625 
Q 36.078125 6.890625 40.9375 10.546875 
Q 45.796875 14.203125 45.796875 21.1875 
Q 45.796875 27.640625 41.28125 31.265625 
Q 36.765625 34.90625 28.71875 34.90625 
L 20.21875 34.90625 
L 20.21875 43.015625 
L 29.109375 43.015625 
Q 36.375 43.015625 40.234375 45.921875 
Q 44.09375 48.828125 44.09375 54.296875 
Q 44.09375 59.90625 40.109375 62.90625 
Q 36.140625 65.921875 28.71875 65.921875 
Q 24.65625 65.921875 20.015625 65.03125 
Q 15.375 64.15625 9.8125 62.3125 
L 9.8125 71.09375 
Q 15.4375 72.65625 20.34375 73.4375 
Q 25.25 74.21875 29.59375 74.21875 
Q 40.828125 74.21875 47.359375 69.109375 
Q 53.90625 64.015625 53.90625 55.328125 
Q 53.90625 49.265625 50.4375 45.09375 
Q 46.96875 40.921875 40.578125 39.3125 
z
" id="DejaVuSans-51"/>
      </defs>
      <g transform="translate(390.029324 322.182437)scale(0.1 -0.1)">
       <use xlink:href="#DejaVuSans-51"/>
       <use x="63.623047" xlink:href="#DejaVuSans-48"/>
       <use x="127.246094" xlink:href="#DejaVuSans-48"/>
      </g>
     </g>
    </g>
    <g id="text_8">
     <!-- Generations -->
     <defs>
      <path d="M 59.515625 10.40625 
L 59.515625 29.984375 
L 43.40625 29.984375 
L 43.40625 38.09375 
L 69.28125 38.09375 
L 69.28125 6.78125 
Q 63.578125 2.734375 56.6875 0.65625 
Q 49.8125 -1.421875 42 -1.421875 
Q 24.90625 -1.421875 15.25 8.5625 
Q 5.609375 18.5625 5.609375 36.375 
Q 5.609375 54.25 15.25 64.234375 
Q 24.90625 74.21875 42 74.21875 
Q 49.125 74.21875 55.546875 72.453125 
Q 61.96875 70.703125 67.390625 67.28125 
L 67.390625 56.78125 
Q 61.921875 61.421875 55.765625 63.765625 
Q 49.609375 66.109375 42.828125 66.109375 
Q 29.4375 66.109375 22.71875 58.640625 
Q 16.015625 51.171875 16.015625 36.375 
Q 16.015625 21.625 22.71875 14.15625 
Q 29.4375 6.6875 42.828125 6.6875 
Q 48.046875 6.6875 52.140625 7.59375 
Q 56.25 8.5 59.515625 10.40625 
z
" id="DejaVuSans-71"/>
      <path d="M 56.203125 29.59375 
L 56.203125 25.203125 
L 14.890625 25.203125 
Q 15.484375 15.921875 20.484375 11.0625 
Q 25.484375 6.203125 34.421875 6.203125 
Q 39.59375 6.203125 44.453125 7.46875 
Q 49.3125 8.734375 54.109375 11.28125 
L 54.109375 2.78125 
Q 49.265625 0.734375 44.1875 -0.34375 
Q 39.109375 -1.421875 33.890625 -1.421875 
Q 20.796875 -1.421875 13.15625 6.1875 
Q 5.515625 13.8125 5.515625 26.8125 
Q 5.515625 40.234375 12.765625 48.109375 
Q 20.015625 56 32.328125 56 
Q 43.359375 56 49.78125 48.890625 
Q 56.203125 41.796875 56.203125 29.59375 
z
M 47.21875 32.234375 
Q 47.125 39.59375 43.09375 43.984375 
Q 39.0625 48.390625 32.421875 48.390625 
Q 24.90625 48.390625 20.390625 44.140625 
Q 15.875 39.890625 15.1875 32.171875 
z
" id="DejaVuSans-101"/>
      <path d="M 54.890625 33.015625 
L 54.890625 0 
L 45.90625 0 
L 45.90625 32.71875 
Q 45.90625 40.484375 42.875 44.328125 
Q 39.84375 48.1875 33.796875 48.1875 
Q 26.515625 48.1875 22.3125 43.546875 
Q 18.109375 38.921875 18.109375 30.90625 
L 18.109375 0 
L 9.078125 0 
L 9.078125 54.6875 
L 18.109375 54.6875 
L 18.109375 46.1875 
Q 21.34375 51.125 25.703125 53.5625 
Q 30.078125 56 35.796875 56 
Q 45.21875 56 50.046875 50.171875 
Q 54.890625 44.34375 54.890625 33.015625 
z
" id="DejaVuSans-110"/>
      <path d="M 41.109375 46.296875 
Q 39.59375 47.171875 37.8125 47.578125 
Q 36.03125 48 33.890625 48 
Q 26.265625 48 22.1875 43.046875 
Q 18.109375 38.09375 18.109375 28.8125 
L 18.109375 0 
L 9.078125 0 
L 9.078125 54.6875 
L 18.109375 54.6875 
L 18.109375 46.1875 
Q 20.953125 51.171875 25.484375 53.578125 
Q 30.03125 56 36.53125 56 
Q 37.453125 56 38.578125 55.875 
Q 39.703125 55.765625 41.0625 55.515625 
z
" id="DejaVuSans-114"/>
      <path d="M 34.28125 27.484375 
Q 23.390625 27.484375 19.1875 25 
Q 14.984375 22.515625 14.984375 16.5 
Q 14.984375 11.71875 18.140625 8.90625 
Q 21.296875 6.109375 26.703125 6.109375 
Q 34.1875 6.109375 38.703125 11.40625 
Q 43.21875 16.703125 43.21875 25.484375 
L 43.21875 27.484375 
z
M 52.203125 31.203125 
L 52.203125 0 
L 43.21875 0 
L 43.21875 8.296875 
Q 40.140625 3.328125 35.546875 0.953125 
Q 30.953125 -1.421875 24.3125 -1.421875 
Q 15.921875 -1.421875 10.953125 3.296875 
Q 6 8.015625 6 15.921875 
Q 6 25.140625 12.171875 29.828125 
Q 18.359375 34.515625 30.609375 34.515625 
L 43.21875 34.515625 
L 43.21875 35.40625 
Q 43.21875 41.609375 39.140625 45 
Q 35.0625 48.390625 27.6875 48.390625 
Q 23 48.390625 18.546875 47.265625 
Q 14.109375 46.140625 10.015625 43.890625 
L 10.015625 52.203125 
Q 14.9375 54.109375 19.578125 55.046875 
Q 24.21875 56 28.609375 56 
Q 40.484375 56 46.34375 49.84375 
Q 52.203125 43.703125 52.203125 31.203125 
z
" id="DejaVuSans-97"/>
      <path d="M 18.3125 70.21875 
L 18.3125 54.6875 
L 36.8125 54.6875 
L 36.8125 47.703125 
L 18.3125 47.703125 
L 18.3125 18.015625 
Q 18.3125 11.328125 20.140625 9.421875 
Q 21.96875 7.515625 27.59375 7.515625 
L 36.8125 7.515625 
L 36.8125 0 
L 27.59375 0 
Q 17.1875 0 13.234375 3.875 
Q 9.28125 7.765625 9.28125 18.015625 
L 9.28125 47.703125 
L 2.6875 47.703125 
L 2.6875 54.6875 
L 9.28125 54.6875 
L 9.28125 70.21875 
z
" id="DejaVuSans-116"/>
      <path d="M 9.421875 54.6875 
L 18.40625 54.6875 
L 18.40625 0 
L 9.421875 0 
z
M 9.421875 75.984375 
L 18.40625 75.984375 
L 18.40625 64.59375 
L 9.421875 64.59375 
z
" id="DejaVuSans-105"/>
      <path d="M 30.609375 48.390625 
Q 23.390625 48.390625 19.1875 42.75 
Q 14.984375 37.109375 14.984375 27.296875 
Q 14.984375 17.484375 19.15625 11.84375 
Q 23.34375 6.203125 30.609375 6.203125 
Q 37.796875 6.203125 41.984375 11.859375 
Q 46.1875 17.53125 46.1875 27.296875 
Q 46.1875 37.015625 41.984375 42.703125 
Q 37.796875 48.390625 30.609375 48.390625 
z
M 30.609375 56 
Q 42.328125 56 49.015625 48.375 
Q 55.71875 40.765625 55.71875 27.296875 
Q 55.71875 13.875 49.015625 6.21875 
Q 42.328125 -1.421875 30.609375 -1.421875 
Q 18.84375 -1.421875 12.171875 6.21875 
Q 5.515625 13.875 5.515625 27.296875 
Q 5.515625 40.765625 12.171875 48.375 
Q 18.84375 56 30.609375 56 
z
" id="DejaVuSans-111"/>
      <path d="M 44.28125 53.078125 
L 44.28125 44.578125 
Q 40.484375 46.53125 36.375 47.5 
Q 32.28125 48.484375 27.875 48.484375 
Q 21.1875 48.484375 17.84375 46.4375 
Q 14.5 44.390625 14.5 40.28125 
Q 14.5 37.15625 16.890625 35.375 
Q 19.28125 33.59375 26.515625 31.984375 
L 29.59375 31.296875 
Q 39.15625 29.25 43.1875 25.515625 
Q 47.21875 21.78125 47.21875 15.09375 
Q 47.21875 7.46875 41.1875 3.015625 
Q 35.15625 -1.421875 24.609375 -1.421875 
Q 20.21875 -1.421875 15.453125 -0.5625 
Q 10.6875 0.296875 5.421875 2 
L 5.421875 11.28125 
Q 10.40625 8.6875 15.234375 7.390625 
Q 20.0625 6.109375 24.8125 6.109375 
Q 31.15625 6.109375 34.5625 8.28125 
Q 37.984375 10.453125 37.984375 14.40625 
Q 37.984375 18.0625 35.515625 20.015625 
Q 33.0625 21.96875 24.703125 23.78125 
L 21.578125 24.515625 
Q 13.234375 26.265625 9.515625 29.90625 
Q 5.8125 33.546875 5.8125 39.890625 
Q 5.8125 47.609375 11.28125 51.796875 
Q 16.75 56 26.8125 56 
Q 31.78125 56 36.171875 55.265625 
Q 40.578125 54.546875 44.28125 53.078125 
z
" id="DejaVuSans-115"/>
     </defs>
     <g transform="translate(205.662344 335.860562)scale(0.1 -0.1)">
      <use xlink:href="#DejaVuSans-71"/>
      <use x="77.490234" xlink:href="#DejaVuSans-101"/>
      <use x="139.013672" xlink:href="#DejaVuSans-110"/>
      <use x="202.392578" xlink:href="#DejaVuSans-101"/>
      <use x="263.916016" xlink:href="#DejaVuSans-114"/>
      <use x="305.029297" xlink:href="#DejaVuSans-97"/>
      <use x="366.308594" xlink:href="#DejaVuSans-116"/>
      <use x="405.517578" xlink:href="#DejaVuSans-105"/>
      <use x="433.300781" xlink:href="#DejaVuSans-111"/>
      <use x="494.482422" xlink:href="#DejaVuSans-110"/>
      <use x="557.861328" xlink:href="#DejaVuSans-115"/>
     </g>
    </g>
   </g>
   <g id="matplotlib.axis_2">
    <g id="ytick_1">
     <g id="line2d_15">
      <path clip-path="url(#p1b134f0371)" d="M 57.6 296.529633 
L 414.72 296.529633 
" style="fill:none;stroke:#b0b0b0;stroke-linecap:square;stroke-width:0.8;"/>
     </g>
     <g id="line2d_16">
      <defs>
       <path d="M 0 0 
L -3.5 0 
" id="m74cf5d5af0" style="stroke:#000000;stroke-width:0.8;"/>
      </defs>
      <g>
       <use style="stroke:#000000;stroke-width:0.8;" x="57.6" xlink:href="#m74cf5d5af0" y="296.529633"/>
      </g>
     </g>
     <g id="text_9">
      <!-- 250 -->
      <g transform="translate(31.5125 300.328852)scale(0.1 -0.1)">
       <use xlink:href="#DejaVuSans-50"/>
       <use x="63.623047" xlink:href="#DejaVuSans-53"/>
       <use x="127.246094" xlink:href="#DejaVuSans-48"/>
      </g>
     </g>
    </g>
    <g id="ytick_2">
     <g id="line2d_17">
      <path clip-path="url(#p1b134f0371)" d="M 57.6 259.980852 
L 414.72 259.980852 
" style="fill:none;stroke:#b0b0b0;stroke-linecap:square;stroke-width:0.8;"/>
     </g>
     <g id="line2d_18">
      <g>
       <use style="stroke:#000000;stroke-width:0.8;" x="57.6" xlink:href="#m74cf5d5af0" y="259.980852"/>
      </g>
     </g>
     <g id="text_10">
      <!-- 500 -->
      <g transform="translate(31.5125 263.780071)scale(0.1 -0.1)">
       <use xlink:href="#DejaVuSans-53"/>
       <use x="63.623047" xlink:href="#DejaVuSans-48"/>
       <use x="127.246094" xlink:href="#DejaVuSans-48"/>
      </g>
     </g>
    </g>
    <g id="ytick_3">
     <g id="line2d_19">
      <path clip-path="url(#p1b134f0371)" d="M 57.6 223.43207 
L 414.72 223.43207 
" style="fill:none;stroke:#b0b0b0;stroke-linecap:square;stroke-width:0.8;"/>
     </g>
     <g id="line2d_20">
      <g>
       <use style="stroke:#000000;stroke-width:0.8;" x="57.6" xlink:href="#m74cf5d5af0" y="223.43207"/>
      </g>
     </g>
     <g id="text_11">
      <!-- 750 -->
      <defs>
       <path d="M 8.203125 72.90625 
L 55.078125 72.90625 
L 55.078125 68.703125 
L 28.609375 0 
L 18.3125 0 
L 43.21875 64.59375 
L 8.203125 64.59375 
z
" id="DejaVuSans-55"/>
      </defs>
      <g transform="translate(31.5125 227.231289)scale(0.1 -0.1)">
       <use xlink:href="#DejaVuSans-55"/>
       <use x="63.623047" xlink:href="#DejaVuSans-53"/>
       <use x="127.246094" xlink:href="#DejaVuSans-48"/>
      </g>
     </g>
    </g>
    <g id="ytick_4">
     <g id="line2d_21">
      <path clip-path="url(#p1b134f0371)" d="M 57.6 186.883289 
L 414.72 186.883289 
" style="fill:none;stroke:#b0b0b0;stroke-linecap:square;stroke-width:0.8;"/>
     </g>
     <g id="line2d_22">
      <g>
       <use style="stroke:#000000;stroke-width:0.8;" x="57.6" xlink:href="#m74cf5d5af0" y="186.883289"/>
      </g>
     </g>
     <g id="text_12">
      <!-- 1000 -->
      <g transform="translate(25.15 190.682508)scale(0.1 -0.1)">
       <use xlink:href="#DejaVuSans-49"/>
       <use x="63.623047" xlink:href="#DejaVuSans-48"/>
       <use x="127.246094" xlink:href="#DejaVuSans-48"/>
       <use x="190.869141" xlink:href="#DejaVuSans-48"/>
      </g>
     </g>
    </g>
    <g id="ytick_5">
     <g id="line2d_23">
      <path clip-path="url(#p1b134f0371)" d="M 57.6 150.334507 
L 414.72 150.334507 
" style="fill:none;stroke:#b0b0b0;stroke-linecap:square;stroke-width:0.8;"/>
     </g>
     <g id="line2d_24">
      <g>
       <use style="stroke:#000000;stroke-width:0.8;" x="57.6" xlink:href="#m74cf5d5af0" y="150.334507"/>
      </g>
     </g>
     <g id="text_13">
      <!-- 1250 -->
      <g transform="translate(25.15 154.133726)scale(0.1 -0.1)">
       <use xlink:href="#DejaVuSans-49"/>
       <use x="63.623047" xlink:href="#DejaVuSans-50"/>
       <use x="127.246094" xlink:href="#DejaVuSans-53"/>
       <use x="190.869141" xlink:href="#DejaVuSans-48"/>
      </g>
     </g>
    </g>
    <g id="ytick_6">
     <g id="line2d_25">
      <path clip-path="url(#p1b134f0371)" d="M 57.6 113.785726 
L 414.72 113.785726 
" style="fill:none;stroke:#b0b0b0;stroke-linecap:square;stroke-width:0.8;"/>
     </g>
     <g id="line2d_26">
      <g>
       <use style="stroke:#000000;stroke-width:0.8;" x="57.6" xlink:href="#m74cf5d5af0" y="113.785726"/>
      </g>
     </g>
     <g id="text_14">
      <!-- 1500 -->
      <g transform="translate(25.15 117.584945)scale(0.1 -0.1)">
       <use xlink:href="#DejaVuSans-49"/>
       <use x="63.623047" xlink:href="#DejaVuSans-53"/>
       <use x="127.246094" xlink:href="#DejaVuSans-48"/>
       <use x="190.869141" xlink:href="#DejaVuSans-48"/>
      </g>
     </g>
    </g>
    <g id="ytick_7">
     <g id="line2d_27">
      <path clip-path="url(#p1b134f0371)" d="M 57.6 77.236945 
L 414.72 77.236945 
" style="fill:none;stroke:#b0b0b0;stroke-linecap:square;stroke-width:0.8;"/>
     </g>
     <g id="line2d_28">
      <g>
       <use style="stroke:#000000;stroke-width:0.8;" x="57.6" xlink:href="#m74cf5d5af0" y="77.236945"/>
      </g>
     </g>
     <g id="text_15">
      <!-- 1750 -->
      <g transform="translate(25.15 81.036163)scale(0.1 -0.1)">
       <use xlink:href="#DejaVuSans-49"/>
       <use x="63.623047" xlink:href="#DejaVuSans-55"/>
       <use x="127.246094" xlink:href="#DejaVuSans-53"/>
       <use x="190.869141" xlink:href="#DejaVuSans-48"/>
      </g>
     </g>
    </g>
    <g id="text_16">
     <!-- Fitness -->
     <defs>
      <path d="M 9.8125 72.90625 
L 51.703125 72.90625 
L 51.703125 64.59375 
L 19.671875 64.59375 
L 19.671875 43.109375 
L 48.578125 43.109375 
L 48.578125 34.8125 
L 19.671875 34.8125 
L 19.671875 0 
L 9.8125 0 
z
" id="DejaVuSans-70"/>
     </defs>
     <g transform="translate(19.070312 192.202219)rotate(-90)scale(0.1 -0.1)">
      <use xlink:href="#DejaVuSans-70"/>
      <use x="57.410156" xlink:href="#DejaVuSans-105"/>
      <use x="85.193359" xlink:href="#DejaVuSans-116"/>
      <use x="124.402344" xlink:href="#DejaVuSans-110"/>
      <use x="187.78125" xlink:href="#DejaVuSans-101"/>
      <use x="249.304688" xlink:href="#DejaVuSans-115"/>
      <use x="301.404297" xlink:href="#DejaVuSans-115"/>
     </g>
    </g>
   </g>
   <g id="line2d_29">
    <path clip-path="url(#p1b134f0371)" d="M 73.832727 291.59526 
L 74.918528 250.152051 
L 76.00433 257.152543 
L 77.090131 265.254099 
L 78.175932 248.704052 
L 79.261733 262.060835 
L 80.347534 243.928596 
L 81.433335 244.247653 
L 82.519137 243.444605 
L 83.604938 228.726937 
L 84.690739 224.346341 
L 85.77654 230.247429 
L 86.862341 220.297931 
L 87.948142 229.018189 
L 89.033943 223.26896 
L 90.119745 187.903175 
L 91.205546 190.726184 
L 92.291347 205.588986 
L 93.377148 198.202861 
L 94.462949 194.623806 
L 95.54875 192.639452 
L 96.634552 201.49472 
L 97.720353 196.68037 
L 98.806154 178.059949 
L 99.891955 182.648513 
L 100.977756 200.780258 
L 102.063557 166.098529 
L 103.149358 182.719065 
L 104.23516 144.938197 
L 105.320961 163.544132 
L 106.406762 159.833563 
L 107.492563 144.348087 
L 108.578364 153.811651 
L 109.664165 164.818669 
L 110.749967 160.843228 
L 111.835768 145.646454 
L 112.921569 153.372581 
L 114.00737 157.388096 
L 115.093171 156.270279 
L 116.178972 165.530718 
L 117.264773 164.398956 
L 118.350575 168.496852 
L 119.436376 173.826222 
L 120.522177 152.958595 
L 121.607978 158.211486 
L 122.693779 179.387392 
L 123.77958 154.052701 
L 124.865382 165.836486 
L 125.951183 180.888431 
L 127.036984 186.106062 
L 128.122785 166.351788 
L 129.208586 164.475787 
L 130.294387 173.117802 
L 131.380189 187.033257 
L 132.46599 187.095911 
L 133.551791 171.22911 
L 134.637592 160.052493 
L 135.723393 141.964879 
L 136.809194 140.534533 
L 137.894995 168.216367 
L 138.980797 153.646087 
L 140.066598 155.962571 
L 141.152399 167.272012 
L 142.2382 165.96834 
L 143.324001 143.915075 
L 144.409802 178.69833 
L 145.495604 152.479102 
L 146.581405 172.335276 
L 147.667206 164.344244 
L 148.753007 140.091628 
L 149.838808 154.787465 
L 150.924609 184.02647 
L 152.01041 150.289993 
L 153.096212 143.562428 
L 154.182013 167.464346 
L 155.267814 163.225704 
L 156.353615 162.459517 
L 157.439416 174.614641 
L 158.525217 149.076882 
L 159.611019 196.453785 
L 160.69682 173.037622 
L 161.782621 164.042983 
L 162.868422 182.182819 
L 163.954223 191.520682 
L 165.040024 176.323526 
L 166.125825 187.811104 
L 168.297428 146.531604 
L 169.383229 189.816041 
L 170.46903 172.971854 
L 171.554831 190.95074 
L 172.640632 177.235268 
L 173.726434 209.253621 
L 174.812235 169.653745 
L 175.898036 189.27001 
L 176.983837 196.190811 
L 178.069638 177.78803 
L 179.155439 181.712847 
L 180.24124 181.717256 
L 181.327042 192.249799 
L 182.412843 179.246364 
L 183.498644 205.872635 
L 184.584445 192.988647 
L 185.670246 188.537154 
L 186.756047 186.467337 
L 187.841849 178.943483 
L 188.92765 153.123359 
L 190.013451 179.920971 
L 191.099252 166.903075 
L 192.185053 161.790435 
L 193.270854 162.090892 
L 194.356656 167.252144 
L 195.442457 152.001261 
L 196.528258 149.430312 
L 197.614059 177.510956 
L 198.69986 166.393684 
L 199.785661 177.132625 
L 200.871462 189.651786 
L 201.957264 175.404749 
L 203.043065 169.344273 
L 204.128866 171.89171 
L 205.214667 167.143676 
L 206.300468 176.488652 
L 207.386269 177.902966 
L 208.472071 156.267215 
L 209.557872 149.972253 
L 210.643673 176.259559 
L 211.729474 157.798242 
L 212.815275 146.839773 
L 213.901076 157.275912 
L 214.986877 148.196408 
L 216.072679 146.867302 
L 217.15848 143.588344 
L 218.244281 165.376777 
L 219.330082 142.983265 
L 220.415883 150.44239 
L 221.501684 159.8326 
L 222.587486 147.222684 
L 223.673287 143.571682 
L 224.759088 160.954594 
L 225.844889 145.426097 
L 226.93069 145.173443 
L 228.016491 144.292248 
L 229.102292 157.477051 
L 230.188094 164.906665 
L 231.273895 162.92546 
L 232.359696 159.766611 
L 233.445497 148.137423 
L 235.617099 160.81784 
L 236.702901 183.071148 
L 237.788702 163.589134 
L 238.874503 150.187435 
L 239.960304 154.181451 
L 241.046105 176.177092 
L 242.131906 179.196444 
L 243.217708 175.665694 
L 244.303509 165.055785 
L 245.38931 185.891426 
L 246.475111 154.624216 
L 247.560912 156.355749 
L 248.646713 168.708332 
L 249.732514 160.215816 
L 250.818316 145.967038 
L 252.989918 166.300285 
L 254.075719 166.288374 
L 255.16152 146.022622 
L 256.247321 139.133849 
L 258.418924 183.811633 
L 259.504725 175.79082 
L 260.590526 186.794845 
L 261.676327 152.703267 
L 262.762128 160.547726 
L 263.847929 156.565886 
L 264.933731 134.816316 
L 266.019532 153.287242 
L 267.105333 163.03962 
L 268.191134 129.990627 
L 269.276935 159.728155 
L 270.362736 166.601434 
L 271.448538 149.366418 
L 272.534339 151.128334 
L 273.62014 155.325509 
L 274.705941 181.175695 
L 275.791742 173.399168 
L 277.963344 129.835451 
L 279.049146 156.968738 
L 280.134947 164.9635 
L 281.220748 173.905447 
L 282.306549 141.027308 
L 283.39235 139.351979 
L 284.478151 128.493185 
L 285.563953 158.180952 
L 286.649754 159.027855 
L 287.735555 168.564546 
L 288.821356 146.728531 
L 289.907157 167.282732 
L 290.992958 192.200015 
L 292.07876 151.984031 
L 293.164561 148.300282 
L 294.250362 153.806259 
L 296.421964 161.422676 
L 297.507765 148.466284 
L 298.593566 148.284051 
L 299.679368 165.873474 
L 300.765169 150.731807 
L 301.85097 150.319116 
L 302.936771 146.275548 
L 304.022572 143.979238 
L 305.108373 156.358733 
L 306.194175 164.949489 
L 307.279976 132.315509 
L 308.365777 164.381343 
L 309.451578 174.123307 
L 310.537379 159.298873 
L 311.62318 170.63375 
L 312.708981 154.727274 
L 313.794783 152.585069 
L 314.880584 148.527617 
L 315.966385 167.839915 
L 317.052186 167.176588 
L 318.137987 156.536932 
L 319.223788 154.035601 
L 320.30959 134.937486 
L 321.395391 166.02048 
L 323.566993 147.947518 
L 324.652794 160.660531 
L 325.738595 150.948965 
L 326.824396 148.627762 
L 327.910198 157.248544 
L 328.995999 170.697525 
L 330.0818 130.833479 
L 331.167601 153.506837 
L 332.253402 132.568962 
L 333.339203 145.335852 
L 334.425005 134.452687 
L 335.510806 125.560846 
L 336.596607 143.56366 
L 337.682408 134.609675 
L 338.768209 128.80391 
L 339.85401 130.408155 
L 340.939811 163.042992 
L 342.025613 145.429783 
L 343.111414 137.499899 
L 344.197215 158.530453 
L 345.283016 158.782696 
L 346.368817 181.545348 
L 347.454618 166.761999 
L 348.54042 160.069599 
L 349.626221 155.72637 
L 350.712022 153.125861 
L 351.797823 126.587476 
L 352.883624 152.733748 
L 353.969425 144.127733 
L 355.055227 176.699678 
L 356.141028 176.563854 
L 357.226829 178.320469 
L 358.31263 170.888122 
L 359.398431 171.53791 
L 360.484232 170.530688 
L 361.570033 167.678683 
L 362.655835 191.771525 
L 363.741636 172.761315 
L 364.827437 191.609127 
L 365.913238 157.517271 
L 366.999039 185.572014 
L 368.08484 179.505777 
L 369.170642 179.947528 
L 370.256443 167.308456 
L 371.342244 164.120373 
L 372.428045 185.20138 
L 373.513846 188.656191 
L 374.599647 167.158513 
L 375.685448 198.524605 
L 376.77125 195.773552 
L 377.857051 215.024777 
L 380.028653 158.547729 
L 381.114454 183.913929 
L 382.200255 195.277321 
L 383.286057 175.226836 
L 384.371858 192.306788 
L 385.457659 177.326574 
L 386.54346 196.839459 
L 387.629261 184.424692 
L 388.715062 187.944961 
L 389.800863 174.817283 
L 390.886665 215.945519 
L 391.972466 195.744003 
L 393.058267 190.304607 
L 394.144068 201.142878 
L 395.229869 167.120426 
L 396.31567 173.660083 
L 397.401472 178.720284 
L 398.487273 175.866496 
L 398.487273 175.866496 
" style="fill:none;stroke:#0000ff;stroke-linecap:square;stroke-width:1.5;"/>
   </g>
   <g id="line2d_30">
    <path clip-path="url(#p1b134f0371)" d="M 73.832727 295.488 
L 74.918528 252.615292 
L 76.00433 261.531457 
L 77.090131 275.042775 
L 78.175932 259.45014 
L 79.261733 274.872193 
L 80.347534 259.16882 
L 81.433335 263.818928 
L 82.519137 258.613822 
L 83.604938 250.029183 
L 84.690739 249.108891 
L 85.77654 249.65389 
L 86.862341 244.994819 
L 87.948142 249.557316 
L 89.033943 239.700317 
L 90.119745 207.746194 
L 91.205546 216.239782 
L 92.291347 231.780847 
L 93.377148 226.919768 
L 94.462949 220.255494 
L 95.54875 218.152027 
L 96.634552 239.601001 
L 97.720353 235.406958 
L 98.806154 215.041778 
L 99.891955 222.643218 
L 100.977756 234.08426 
L 102.063557 205.058771 
L 103.149358 216.796379 
L 104.23516 196.852631 
L 105.320961 201.912852 
L 106.406762 208.856072 
L 107.492563 193.007781 
L 108.578364 199.949063 
L 109.664165 204.967873 
L 110.749967 199.923761 
L 111.835768 199.024435 
L 112.921569 195.534903 
L 114.00737 213.376122 
L 115.093171 202.061066 
L 116.178972 206.499554 
L 117.264773 204.096837 
L 118.350575 212.319129 
L 119.436376 207.664632 
L 120.522177 198.727332 
L 121.607978 202.00759 
L 122.693779 219.820025 
L 123.77958 191.243483 
L 124.865382 202.708692 
L 125.951183 220.813263 
L 127.036984 228.49607 
L 128.122785 200.958927 
L 129.208586 214.44893 
L 130.294387 223.997893 
L 131.380189 218.929619 
L 132.46599 236.545387 
L 133.551791 218.260465 
L 134.637592 203.263896 
L 135.723393 195.006293 
L 136.809194 200.434835 
L 137.894995 221.673811 
L 138.980797 209.541434 
L 140.066598 209.39643 
L 141.152399 222.109984 
L 142.2382 220.731187 
L 143.324001 195.923415 
L 144.409802 220.357066 
L 145.495604 210.812091 
L 146.581405 216.912898 
L 148.753007 185.869701 
L 149.838808 196.674835 
L 150.924609 221.217196 
L 152.01041 202.445087 
L 153.096212 191.234348 
L 154.182013 211.342796 
L 155.267814 210.806653 
L 156.353615 211.878502 
L 157.439416 238.823207 
L 158.525217 211.276534 
L 159.611019 253.382358 
L 160.69682 217.684581 
L 161.782621 214.579673 
L 162.868422 222.424807 
L 163.954223 231.386374 
L 165.040024 222.709389 
L 166.125825 225.879036 
L 167.211627 219.874366 
L 168.297428 204.703209 
L 169.383229 235.238493 
L 170.46903 230.284948 
L 171.554831 232.136905 
L 172.640632 227.024799 
L 173.726434 240.194039 
L 174.812235 211.540192 
L 175.898036 243.75605 
L 176.983837 237.835901 
L 178.069638 217.722844 
L 180.24124 228.655944 
L 181.327042 232.286518 
L 182.412843 220.754877 
L 183.498644 234.046946 
L 184.584445 244.222852 
L 186.756047 220.485996 
L 187.841849 217.339404 
L 188.92765 207.046618 
L 190.013451 222.826095 
L 191.099252 210.621225 
L 192.185053 208.090392 
L 194.356656 215.433585 
L 195.442457 196.123194 
L 196.528258 199.87568 
L 197.614059 214.079908 
L 198.69986 207.295219 
L 199.785661 223.876543 
L 200.871462 238.288046 
L 201.957264 224.087488 
L 203.043065 219.643355 
L 204.128866 207.500409 
L 206.300468 217.802957 
L 207.386269 217.770482 
L 208.472071 211.646904 
L 209.557872 204.294084 
L 210.643673 222.573061 
L 211.729474 208.688162 
L 212.815275 200.303741 
L 213.901076 216.763702 
L 214.986877 199.755199 
L 216.072679 204.800839 
L 217.15848 197.030153 
L 218.244281 215.560694 
L 219.330082 191.805123 
L 220.415883 224.298978 
L 221.501684 213.598759 
L 222.587486 199.758695 
L 223.673287 188.796056 
L 224.759088 210.029088 
L 225.844889 194.952264 
L 226.93069 190.523085 
L 228.016491 198.470644 
L 229.102292 200.861799 
L 230.188094 212.007262 
L 231.273895 205.226105 
L 232.359696 211.343056 
L 233.445497 191.944599 
L 234.531298 197.211018 
L 235.617099 200.721969 
L 236.702901 221.339764 
L 237.788702 210.051407 
L 238.874503 200.335466 
L 239.960304 199.063835 
L 241.046105 214.407137 
L 242.131906 222.136146 
L 243.217708 226.338909 
L 244.303509 208.58071 
L 245.38931 229.173904 
L 246.475111 204.940336 
L 247.560912 203.344013 
L 248.646713 217.602402 
L 249.732514 212.42873 
L 250.818316 191.008426 
L 251.904117 213.279642 
L 252.989918 206.393386 
L 254.075719 215.740174 
L 255.16152 200.310473 
L 256.247321 186.954286 
L 257.333123 198.979838 
L 258.418924 226.231873 
L 259.504725 220.354882 
L 260.590526 230.76252 
L 261.676327 198.425532 
L 262.762128 224.097788 
L 263.847929 194.496152 
L 264.933731 179.390072 
L 266.019532 204.019298 
L 267.105333 210.346739 
L 268.191134 186.932822 
L 269.276935 207.339808 
L 270.362736 206.453541 
L 271.448538 196.075321 
L 272.534339 204.170188 
L 273.62014 198.488627 
L 274.705941 217.655844 
L 275.791742 217.274381 
L 276.877543 190.028122 
L 277.963344 185.548555 
L 279.049146 213.772178 
L 280.134947 218.051461 
L 281.220748 216.394838 
L 282.306549 197.082328 
L 283.39235 193.06286 
L 284.478151 179.011603 
L 285.563953 210.424221 
L 286.649754 207.082291 
L 287.735555 205.538184 
L 288.821356 205.623418 
L 289.907157 214.590434 
L 290.992958 236.264386 
L 292.07876 198.423499 
L 293.164561 200.279247 
L 294.250362 207.703045 
L 296.421964 203.712256 
L 297.507765 206.479317 
L 298.593566 197.397167 
L 299.679368 201.47195 
L 300.765169 194.216549 
L 301.85097 202.159729 
L 302.936771 194.810052 
L 304.022572 200.751642 
L 305.108373 214.848496 
L 306.194175 207.767687 
L 307.279976 191.600501 
L 308.365777 219.282132 
L 309.451578 224.217476 
L 310.537379 216.059972 
L 311.62318 224.653745 
L 312.708981 200.688286 
L 313.794783 203.771168 
L 314.880584 195.30769 
L 315.966385 228.873296 
L 317.052186 220.712659 
L 318.137987 199.938525 
L 319.223788 210.728217 
L 320.30959 186.207209 
L 321.395391 216.841312 
L 322.481192 204.406155 
L 323.566993 180.794676 
L 324.652794 211.201279 
L 325.738595 204.380313 
L 326.824396 204.812161 
L 327.910198 209.203387 
L 328.995999 220.337789 
L 330.0818 189.832342 
L 331.167601 201.458193 
L 332.253402 199.804463 
L 333.339203 207.934632 
L 334.425005 189.464994 
L 335.510806 189.066877 
L 336.596607 195.344557 
L 337.682408 192.179539 
L 338.768209 197.219579 
L 339.85401 199.487903 
L 340.939811 207.785624 
L 342.025613 194.476196 
L 343.111414 193.733623 
L 344.197215 217.068935 
L 345.283016 213.318876 
L 346.368817 230.73875 
L 347.454618 210.421869 
L 348.54042 222.490989 
L 349.626221 216.510578 
L 350.712022 207.404042 
L 351.797823 178.712275 
L 352.883624 218.634743 
L 353.969425 190.057784 
L 355.055227 224.938399 
L 356.141028 231.234009 
L 357.226829 224.211191 
L 358.31263 209.582766 
L 359.398431 212.899961 
L 360.484232 224.58819 
L 361.570033 217.538161 
L 362.655835 234.173639 
L 363.741636 229.65828 
L 364.827437 233.13004 
L 365.913238 208.535617 
L 366.999039 233.77302 
L 368.08484 224.421027 
L 369.170642 231.45039 
L 370.256443 219.464715 
L 371.342244 224.640895 
L 372.428045 230.697185 
L 373.513846 238.552952 
L 374.599647 221.699836 
L 375.685448 237.168765 
L 376.77125 245.538894 
L 377.857051 250.377053 
L 380.028653 210.254432 
L 381.114454 232.254059 
L 382.200255 237.641922 
L 383.286057 226.545627 
L 384.371858 251.93613 
L 385.457659 221.472421 
L 386.54346 243.552227 
L 387.629261 237.773207 
L 388.715062 243.389561 
L 389.800863 222.133203 
L 390.886665 261.407574 
L 391.972466 234.8926 
L 393.058267 239.818229 
L 394.144068 239.750781 
L 395.229869 222.291578 
L 396.31567 226.220831 
L 397.401472 222.299051 
L 398.487273 223.579312 
L 398.487273 223.579312 
" style="fill:none;stroke:#008000;stroke-dasharray:9.6,2.4,1.5,2.4;stroke-dashoffset:0;stroke-width:1.5;"/>
   </g>
   <g id="line2d_31">
    <path clip-path="url(#p1b134f0371)" d="M 73.832727 287.70252 
L 74.918528 247.68881 
L 76.00433 252.773628 
L 77.090131 255.465423 
L 78.175932 237.957963 
L 79.261733 249.249478 
L 80.347534 228.688372 
L 81.433335 224.676379 
L 82.519137 228.275388 
L 83.604938 207.424691 
L 84.690739 199.583791 
L 85.77654 210.840968 
L 86.862341 195.601043 
L 87.948142 208.479061 
L 89.033943 206.837604 
L 90.119745 168.060156 
L 91.205546 165.212585 
L 92.291347 179.397125 
L 93.377148 169.485954 
L 94.462949 168.992118 
L 95.54875 167.126878 
L 96.634552 163.388439 
L 97.720353 157.953782 
L 98.806154 141.078121 
L 99.891955 142.653808 
L 100.977756 167.476255 
L 102.063557 127.138288 
L 103.149358 148.64175 
L 104.23516 93.023762 
L 105.320961 125.175412 
L 107.492563 95.688393 
L 108.578364 107.674239 
L 109.664165 124.669466 
L 110.749967 121.762695 
L 111.835768 92.268473 
L 112.921569 111.210259 
L 114.00737 101.40007 
L 115.093171 110.479491 
L 116.178972 124.561882 
L 117.264773 124.701075 
L 118.350575 124.674576 
L 119.436376 139.987811 
L 120.522177 107.189858 
L 121.607978 114.415382 
L 122.693779 138.954759 
L 123.77958 116.861919 
L 125.951183 140.963599 
L 127.036984 143.716054 
L 128.122785 131.744649 
L 129.208586 114.502643 
L 130.294387 122.23771 
L 131.380189 155.136894 
L 132.46599 137.646434 
L 133.551791 124.197755 
L 134.637592 116.841091 
L 135.723393 88.923465 
L 136.809194 80.634232 
L 137.894995 114.758923 
L 138.980797 97.75074 
L 140.066598 102.528711 
L 141.152399 112.43404 
L 142.2382 111.205492 
L 143.324001 91.906736 
L 144.409802 137.039593 
L 145.495604 94.146112 
L 146.581405 127.757654 
L 147.667206 127.120503 
L 148.753007 94.313555 
L 149.838808 112.900094 
L 150.924609 146.835744 
L 152.01041 98.134898 
L 153.096212 95.890509 
L 154.182013 123.585896 
L 155.267814 115.644756 
L 157.439416 110.406075 
L 158.525217 86.877229 
L 159.611019 139.525212 
L 160.69682 128.390662 
L 161.782621 113.506293 
L 162.868422 141.940831 
L 163.954223 151.65499 
L 165.040024 129.937663 
L 166.125825 149.743173 
L 167.211627 114.981178 
L 168.297428 88.359999 
L 169.383229 144.39359 
L 170.46903 115.65876 
L 171.554831 149.764575 
L 172.640632 127.445738 
L 173.726434 178.313203 
L 174.812235 127.767297 
L 175.898036 134.78397 
L 176.983837 154.545721 
L 178.069638 137.853217 
L 179.155439 140.336736 
L 180.24124 134.778568 
L 181.327042 152.21308 
L 182.412843 137.737851 
L 183.498644 177.698323 
L 184.584445 141.754441 
L 185.670246 145.065995 
L 186.756047 152.448677 
L 187.841849 140.547562 
L 188.92765 99.2001 
L 190.013451 137.015846 
L 191.099252 123.184924 
L 192.185053 115.490478 
L 193.270854 112.602207 
L 194.356656 119.070702 
L 195.442457 107.879328 
L 196.528258 98.984945 
L 197.614059 140.942004 
L 198.69986 125.49215 
L 199.785661 130.388707 
L 200.871462 141.015525 
L 201.957264 126.72201 
L 203.043065 119.045192 
L 204.128866 136.283012 
L 205.214667 121.783619 
L 206.300468 135.174348 
L 207.386269 138.03545 
L 208.472071 100.887526 
L 209.557872 95.650423 
L 210.643673 129.946056 
L 211.729474 106.908322 
L 212.815275 93.375805 
L 213.901076 97.788123 
L 214.986877 96.637616 
L 216.072679 88.933765 
L 217.15848 90.146536 
L 218.244281 115.192859 
L 219.330082 94.161406 
L 220.415883 76.585802 
L 221.501684 106.066442 
L 222.587486 94.686672 
L 223.673287 98.347309 
L 224.759088 111.880099 
L 225.844889 95.899929 
L 226.93069 99.823801 
L 228.016491 90.113853 
L 229.102292 114.092303 
L 230.188094 117.806068 
L 231.273895 120.624814 
L 232.359696 108.190167 
L 233.445497 104.330246 
L 234.531298 111.393627 
L 235.617099 120.913712 
L 236.702901 144.802533 
L 237.788702 117.126861 
L 238.874503 100.039405 
L 239.960304 109.299067 
L 241.046105 137.947047 
L 242.131906 136.256742 
L 243.217708 124.99248 
L 244.303509 121.530859 
L 245.38931 142.608949 
L 246.475111 104.308097 
L 247.560912 109.367484 
L 248.646713 119.814263 
L 249.732514 108.002903 
L 250.818316 100.925651 
L 251.904117 98.106629 
L 252.989918 126.207185 
L 254.075719 116.836574 
L 255.16152 91.734772 
L 256.247321 91.313411 
L 257.333123 126.319734 
L 258.418924 141.391393 
L 259.504725 131.226758 
L 260.590526 142.827171 
L 261.676327 106.981001 
L 262.762128 96.997665 
L 263.847929 118.635621 
L 264.933731 90.24256 
L 267.105333 115.732501 
L 268.191134 73.048432 
L 269.276935 112.116502 
L 270.362736 126.749327 
L 271.448538 102.657515 
L 272.534339 98.086479 
L 273.62014 112.162391 
L 274.705941 144.695546 
L 275.791742 129.523954 
L 276.877543 111.574568 
L 277.963344 74.122347 
L 279.049146 100.165297 
L 280.134947 111.875539 
L 281.220748 131.416055 
L 282.306549 84.972288 
L 283.39235 85.641098 
L 284.478151 77.974767 
L 285.563953 105.937684 
L 286.649754 110.973419 
L 287.735555 131.590909 
L 288.821356 87.833645 
L 289.907157 119.97503 
L 290.992958 148.135644 
L 292.07876 105.544562 
L 293.164561 96.321316 
L 294.250362 99.909473 
L 296.421964 119.133095 
L 297.507765 90.453252 
L 298.593566 99.170935 
L 299.679368 130.274999 
L 300.765169 107.247066 
L 301.85097 98.478503 
L 302.936771 97.741043 
L 304.022572 87.206835 
L 305.108373 97.86897 
L 306.194175 122.131291 
L 307.279976 73.030518 
L 308.365777 109.480554 
L 309.451578 124.029139 
L 310.537379 102.537774 
L 311.62318 116.613755 
L 313.794783 101.398971 
L 314.880584 101.747544 
L 315.966385 106.806534 
L 317.052186 113.640516 
L 318.137987 113.135339 
L 319.223788 97.342985 
L 320.30959 83.667763 
L 321.395391 115.199648 
L 322.481192 110.159369 
L 323.566993 115.100361 
L 324.652794 110.119783 
L 325.738595 97.517618 
L 326.824396 92.443362 
L 327.910198 105.293701 
L 328.995999 121.057261 
L 330.0818 71.834617 
L 331.167601 105.555481 
L 332.253402 65.33346 
L 333.339203 82.737072 
L 334.425005 79.44038 
L 335.510806 62.054815 
L 336.596607 91.782763 
L 337.682408 77.039812 
L 338.768209 60.388242 
L 339.85401 61.328408 
L 340.939811 118.30036 
L 342.025613 96.38337 
L 343.111414 81.266175 
L 344.197215 99.991972 
L 345.283016 104.246515 
L 346.368817 132.351946 
L 347.454618 123.10213 
L 348.54042 97.648209 
L 349.626221 94.942162 
L 350.712022 98.84768 
L 351.797823 74.462677 
L 353.969425 98.197682 
L 355.055227 128.460957 
L 356.141028 121.893699 
L 357.226829 132.429748 
L 358.31263 132.193478 
L 359.398431 130.175859 
L 360.484232 116.473186 
L 361.570033 117.819206 
L 362.655835 149.369411 
L 363.741636 115.86435 
L 364.827437 150.088214 
L 365.913238 106.498926 
L 366.999039 137.371008 
L 368.08484 134.590528 
L 369.170642 128.444666 
L 370.256443 115.152196 
L 371.342244 103.599852 
L 372.428045 139.705575 
L 373.513846 138.759431 
L 374.599647 112.617191 
L 375.685448 159.880446 
L 376.77125 146.00821 
L 377.857051 179.672501 
L 380.028653 106.841026 
L 381.114454 135.573799 
L 382.200255 152.912721 
L 383.286057 123.908046 
L 384.371858 132.677446 
L 385.457659 133.180726 
L 386.54346 150.126692 
L 387.629261 131.076176 
L 388.715062 132.500362 
L 389.800863 127.501363 
L 390.886665 170.483464 
L 391.972466 156.595406 
L 393.058267 140.790985 
L 394.144068 162.534974 
L 395.229869 111.949275 
L 396.31567 121.099334 
L 397.401472 135.141517 
L 398.487273 128.153681 
L 398.487273 128.153681 
" style="fill:none;stroke:#008000;stroke-dasharray:9.6,2.4,1.5,2.4;stroke-dashoffset:0;stroke-width:1.5;"/>
   </g>
   <g id="line2d_32">
    <path clip-path="url(#p1b134f0371)" d="M 73.832727 283.559414 
L 74.918528 245.499777 
L 76.00433 246.963162 
L 77.090131 248.050458 
L 78.175932 241.148527 
L 79.261733 247.444987 
L 80.347534 225.303962 
L 81.433335 221.337718 
L 82.519137 219.467954 
L 83.604938 201.099718 
L 84.690739 200.873581 
L 85.77654 208.018006 
L 86.862341 183.009242 
L 87.948142 202.938194 
L 89.033943 201.646937 
L 90.119745 164.996334 
L 91.205546 160.021386 
L 92.291347 168.489364 
L 93.377148 160.232408 
L 94.462949 158.53316 
L 95.54875 163.935588 
L 96.634552 154.151079 
L 97.720353 152.698538 
L 98.806154 132.864927 
L 99.891955 129.102884 
L 100.977756 138.965377 
L 102.063557 107.93478 
L 103.149358 123.378971 
L 104.23516 83.352698 
L 105.320961 114.112362 
L 106.406762 101.546869 
L 107.492563 100.945001 
L 108.578364 107.828273 
L 109.664165 119.237198 
L 110.749967 118.502727 
L 111.835768 95.523462 
L 112.921569 110.569716 
L 114.00737 105.632731 
L 115.093171 111.433024 
L 116.178972 124.574264 
L 117.264773 123.864764 
L 118.350575 118.412925 
L 119.436376 137.087539 
L 120.522177 103.426469 
L 121.607978 107.287731 
L 122.693779 125.277911 
L 123.77958 113.052151 
L 124.865382 127.067195 
L 125.951183 132.3146 
L 127.036984 142.005141 
L 128.122785 126.701874 
L 129.208586 107.134121 
L 130.294387 113.399923 
L 131.380189 157.675074 
L 132.46599 133.127032 
L 133.551791 122.593076 
L 134.637592 123.427952 
L 135.723393 94.966865 
L 136.809194 87.589992 
L 137.894995 109.079423 
L 138.980797 99.868651 
L 140.066598 105.762168 
L 141.152399 119.932807 
L 142.2382 120.431518 
L 143.324001 101.129797 
L 144.409802 138.293251 
L 145.495604 88.926108 
L 146.581405 114.152202 
L 147.667206 126.52686 
L 148.753007 92.506154 
L 149.838808 109.809644 
L 150.924609 137.448993 
L 152.01041 94.442577 
L 153.096212 104.930103 
L 154.182013 118.25852 
L 156.353615 106.246553 
L 157.439416 111.224624 
L 158.525217 87.309441 
L 159.611019 133.777246 
L 160.69682 131.010557 
L 161.782621 104.955636 
L 162.868422 131.164126 
L 163.954223 151.471874 
L 165.040024 136.777693 
L 166.125825 147.745963 
L 167.211627 107.127379 
L 168.297428 79.216311 
L 169.383229 141.106125 
L 170.46903 105.399481 
L 171.554831 133.938966 
L 172.640632 131.802445 
L 173.726434 175.224331 
L 174.812235 117.763434 
L 175.898036 131.534732 
L 176.983837 163.915115 
L 178.069638 140.254777 
L 179.155439 130.11683 
L 180.24124 136.353965 
L 181.327042 146.044806 
L 182.412843 134.113842 
L 183.498644 167.071181 
L 184.584445 140.531801 
L 185.670246 137.558052 
L 186.756047 146.823462 
L 187.841849 134.213736 
L 188.92765 105.40445 
L 190.013451 135.099989 
L 192.185053 105.376694 
L 193.270854 98.898718 
L 194.356656 101.134086 
L 195.442457 100.088967 
L 196.528258 90.945336 
L 197.614059 135.45366 
L 198.69986 116.601773 
L 199.785661 118.393647 
L 200.871462 125.851064 
L 201.957264 103.639004 
L 203.043065 96.941423 
L 204.128866 111.575294 
L 205.214667 103.111033 
L 206.300468 114.480466 
L 207.386269 115.528852 
L 208.472071 76.683071 
L 209.557872 68.476143 
L 210.643673 110.064475 
L 211.729474 97.311251 
L 212.815275 82.909151 
L 213.901076 89.176979 
L 214.986877 92.993306 
L 216.072679 74.190789 
L 217.15848 80.529568 
L 218.244281 108.660761 
L 219.330082 74.952069 
L 220.415883 63.912498 
L 221.501684 102.99315 
L 222.587486 88.758144 
L 223.673287 98.138468 
L 224.759088 104.168566 
L 225.844889 87.170598 
L 226.93069 101.428048 
L 228.016491 87.19571 
L 229.102292 120.761259 
L 230.188094 116.474224 
L 231.273895 121.694691 
L 232.359696 102.30321 
L 233.445497 112.633015 
L 234.531298 108.419004 
L 235.617099 117.765022 
L 236.702901 138.913593 
L 237.788702 110.075967 
L 238.874503 94.447275 
L 239.960304 105.42333 
L 241.046105 132.961859 
L 242.131906 122.801599 
L 243.217708 115.122029 
L 244.303509 114.842753 
L 245.38931 136.260901 
L 246.475111 102.663102 
L 247.560912 105.772633 
L 248.646713 110.124589 
L 249.732514 107.300665 
L 250.818316 109.987798 
L 251.904117 94.973582 
L 252.989918 118.046496 
L 254.075719 112.7565 
L 255.16152 83.613712 
L 256.247321 97.678252 
L 257.333123 122.257702 
L 258.418924 138.385394 
L 259.504725 129.216141 
L 260.590526 123.582873 
L 261.676327 103.336936 
L 262.762128 98.242219 
L 263.847929 121.499632 
L 264.933731 83.416107 
L 266.019532 95.752773 
L 267.105333 102.492948 
L 268.191134 75.624667 
L 269.276935 111.37176 
L 270.362736 124.509997 
L 271.448538 103.59273 
L 272.534339 94.576793 
L 273.62014 109.581759 
L 274.705941 148.839885 
L 276.877543 114.108814 
L 277.963344 78.444162 
L 279.049146 102.113854 
L 280.134947 122.032096 
L 281.220748 132.900723 
L 282.306549 89.687165 
L 283.39235 87.582823 
L 284.478151 86.952791 
L 285.563953 112.633891 
L 286.649754 111.88994 
L 287.735555 140.721423 
L 288.821356 89.203284 
L 289.907157 117.243736 
L 290.992958 148.849523 
L 292.07876 108.055935 
L 293.164561 98.42082 
L 294.250362 96.32427 
L 295.336163 100.589372 
L 296.421964 100.280242 
L 297.507765 74.347812 
L 298.593566 95.759189 
L 299.679368 128.955477 
L 300.765169 107.078711 
L 301.85097 88.357539 
L 302.936771 90.674404 
L 304.022572 95.389462 
L 305.108373 92.947422 
L 306.194175 117.762429 
L 307.279976 69.08655 
L 308.365777 103.405703 
L 309.451578 114.919898 
L 310.537379 104.260385 
L 311.62318 107.043375 
L 312.708981 105.633371 
L 313.794783 92.285256 
L 314.880584 97.53069 
L 315.966385 89.49596 
L 317.052186 108.67172 
L 318.137987 105.017442 
L 319.223788 92.37409 
L 320.30959 88.614961 
L 321.395391 109.45102 
L 322.481192 108.778191 
L 323.566993 123.76454 
L 324.652794 112.889677 
L 325.738595 92.952111 
L 326.824396 92.001222 
L 327.910198 98.843358 
L 328.995999 119.005169 
L 330.0818 73.969332 
L 331.167601 104.346895 
L 332.253402 60.012272 
L 333.339203 75.020552 
L 334.425005 76.186162 
L 335.510806 63.034011 
L 336.596607 82.66387 
L 338.768209 53.568 
L 339.85401 53.764443 
L 340.939811 102.563851 
L 342.025613 95.332066 
L 343.111414 66.179834 
L 345.283016 99.990404 
L 346.368817 123.827821 
L 347.454618 126.226945 
L 348.54042 91.031651 
L 349.626221 84.639833 
L 350.712022 88.410151 
L 351.797823 69.184045 
L 352.883624 73.973331 
L 353.969425 85.316546 
L 355.055227 112.145357 
L 356.141028 93.691212 
L 358.31263 123.931484 
L 359.398431 123.550325 
L 360.484232 105.267272 
L 361.570033 99.034831 
L 362.655835 117.110059 
L 363.741636 84.840692 
L 364.827437 111.579621 
L 365.913238 74.310024 
L 366.999039 105.374246 
L 368.08484 105.998366 
L 369.170642 107.912343 
L 370.256443 100.619873 
L 371.342244 79.559004 
L 372.428045 119.176202 
L 373.513846 116.448173 
L 374.599647 89.305469 
L 375.685448 137.527143 
L 376.77125 113.257694 
L 377.857051 157.063576 
L 380.028653 76.632505 
L 381.114454 113.935459 
L 382.200255 123.95536 
L 383.286057 96.963076 
L 384.371858 114.687487 
L 385.457659 113.264964 
L 386.54346 132.440105 
L 387.629261 102.968704 
L 388.715062 126.719747 
L 389.800863 113.662711 
L 390.886665 149.367036 
L 391.972466 144.609018 
L 393.058267 136.63489 
L 394.144068 147.099359 
L 395.229869 83.009424 
L 396.31567 105.005704 
L 397.401472 131.072602 
L 398.487273 123.386695 
L 398.487273 123.386695 
" style="fill:none;stroke:#ff0000;stroke-linecap:square;stroke-width:1.5;"/>
   </g>
   <g id="patch_3">
    <path d="M 57.6 307.584 
L 57.6 41.472 
" style="fill:none;stroke:#000000;stroke-linecap:square;stroke-linejoin:miter;stroke-width:0.8;"/>
   </g>
   <g id="patch_4">
    <path d="M 414.72 307.584 
L 414.72 41.472 
" style="fill:none;stroke:#000000;stroke-linecap:square;stroke-linejoin:miter;stroke-width:0.8;"/>
   </g>
   <g id="patch_5">
    <path d="M 57.6 307.584 
L 414.72 307.584 
" style="fill:none;stroke:#000000;stroke-linecap:square;stroke-linejoin:miter;stroke-width:0.8;"/>
   </g>
   <g id="patch_6">
    <path d="M 57.6 41.472 
L 414.72 41.472 
" style="fill:none;stroke:#000000;stroke-linecap:square;stroke-linejoin:miter;stroke-width:0.8;"/>
   </g>
   <g id="text_17">
    <!-- Population's average and best fitness -->
    <defs>
     <path d="M 19.671875 64.796875 
L 19.671875 37.40625 
L 32.078125 37.40625 
Q 38.96875 37.40625 42.71875 40.96875 
Q 46.484375 44.53125 46.484375 51.125 
Q 46.484375 57.671875 42.71875 61.234375 
Q 38.96875 64.796875 32.078125 64.796875 
z
M 9.8125 72.90625 
L 32.078125 72.90625 
Q 44.34375 72.90625 50.609375 67.359375 
Q 56.890625 61.8125 56.890625 51.125 
Q 56.890625 40.328125 50.609375 34.8125 
Q 44.34375 29.296875 32.078125 29.296875 
L 19.671875 29.296875 
L 19.671875 0 
L 9.8125 0 
z
" id="DejaVuSans-80"/>
     <path d="M 18.109375 8.203125 
L 18.109375 -20.796875 
L 9.078125 -20.796875 
L 9.078125 54.6875 
L 18.109375 54.6875 
L 18.109375 46.390625 
Q 20.953125 51.265625 25.265625 53.625 
Q 29.59375 56 35.59375 56 
Q 45.5625 56 51.78125 48.09375 
Q 58.015625 40.1875 58.015625 27.296875 
Q 58.015625 14.40625 51.78125 6.484375 
Q 45.5625 -1.421875 35.59375 -1.421875 
Q 29.59375 -1.421875 25.265625 0.953125 
Q 20.953125 3.328125 18.109375 8.203125 
z
M 48.6875 27.296875 
Q 48.6875 37.203125 44.609375 42.84375 
Q 40.53125 48.484375 33.40625 48.484375 
Q 26.265625 48.484375 22.1875 42.84375 
Q 18.109375 37.203125 18.109375 27.296875 
Q 18.109375 17.390625 22.1875 11.75 
Q 26.265625 6.109375 33.40625 6.109375 
Q 40.53125 6.109375 44.609375 11.75 
Q 48.6875 17.390625 48.6875 27.296875 
z
" id="DejaVuSans-112"/>
     <path d="M 8.5 21.578125 
L 8.5 54.6875 
L 17.484375 54.6875 
L 17.484375 21.921875 
Q 17.484375 14.15625 20.5 10.265625 
Q 23.53125 6.390625 29.59375 6.390625 
Q 36.859375 6.390625 41.078125 11.03125 
Q 45.3125 15.671875 45.3125 23.6875 
L 45.3125 54.6875 
L 54.296875 54.6875 
L 54.296875 0 
L 45.3125 0 
L 45.3125 8.40625 
Q 42.046875 3.421875 37.71875 1 
Q 33.40625 -1.421875 27.6875 -1.421875 
Q 18.265625 -1.421875 13.375 4.4375 
Q 8.5 10.296875 8.5 21.578125 
z
M 31.109375 56 
z
" id="DejaVuSans-117"/>
     <path d="M 9.421875 75.984375 
L 18.40625 75.984375 
L 18.40625 0 
L 9.421875 0 
z
" id="DejaVuSans-108"/>
     <path d="M 17.921875 72.90625 
L 17.921875 45.796875 
L 9.625 45.796875 
L 9.625 72.90625 
z
" id="DejaVuSans-39"/>
     <path id="DejaVuSans-32"/>
     <path d="M 2.984375 54.6875 
L 12.5 54.6875 
L 29.59375 8.796875 
L 46.6875 54.6875 
L 56.203125 54.6875 
L 35.6875 0 
L 23.484375 0 
z
" id="DejaVuSans-118"/>
     <path d="M 45.40625 27.984375 
Q 45.40625 37.75 41.375 43.109375 
Q 37.359375 48.484375 30.078125 48.484375 
Q 22.859375 48.484375 18.828125 43.109375 
Q 14.796875 37.75 14.796875 27.984375 
Q 14.796875 18.265625 18.828125 12.890625 
Q 22.859375 7.515625 30.078125 7.515625 
Q 37.359375 7.515625 41.375 12.890625 
Q 45.40625 18.265625 45.40625 27.984375 
z
M 54.390625 6.78125 
Q 54.390625 -7.171875 48.1875 -13.984375 
Q 42 -20.796875 29.203125 -20.796875 
Q 24.46875 -20.796875 20.265625 -20.09375 
Q 16.0625 -19.390625 12.109375 -17.921875 
L 12.109375 -9.1875 
Q 16.0625 -11.328125 19.921875 -12.34375 
Q 23.78125 -13.375 27.78125 -13.375 
Q 36.625 -13.375 41.015625 -8.765625 
Q 45.40625 -4.15625 45.40625 5.171875 
L 45.40625 9.625 
Q 42.625 4.78125 38.28125 2.390625 
Q 33.9375 0 27.875 0 
Q 17.828125 0 11.671875 7.65625 
Q 5.515625 15.328125 5.515625 27.984375 
Q 5.515625 40.671875 11.671875 48.328125 
Q 17.828125 56 27.875 56 
Q 33.9375 56 38.28125 53.609375 
Q 42.625 51.21875 45.40625 46.390625 
L 45.40625 54.6875 
L 54.390625 54.6875 
z
" id="DejaVuSans-103"/>
     <path d="M 45.40625 46.390625 
L 45.40625 75.984375 
L 54.390625 75.984375 
L 54.390625 0 
L 45.40625 0 
L 45.40625 8.203125 
Q 42.578125 3.328125 38.25 0.953125 
Q 33.9375 -1.421875 27.875 -1.421875 
Q 17.96875 -1.421875 11.734375 6.484375 
Q 5.515625 14.40625 5.515625 27.296875 
Q 5.515625 40.1875 11.734375 48.09375 
Q 17.96875 56 27.875 56 
Q 33.9375 56 38.25 53.625 
Q 42.578125 51.265625 45.40625 46.390625 
z
M 14.796875 27.296875 
Q 14.796875 17.390625 18.875 11.75 
Q 22.953125 6.109375 30.078125 6.109375 
Q 37.203125 6.109375 41.296875 11.75 
Q 45.40625 17.390625 45.40625 27.296875 
Q 45.40625 37.203125 41.296875 42.84375 
Q 37.203125 48.484375 30.078125 48.484375 
Q 22.953125 48.484375 18.875 42.84375 
Q 14.796875 37.203125 14.796875 27.296875 
z
" id="DejaVuSans-100"/>
     <path d="M 48.6875 27.296875 
Q 48.6875 37.203125 44.609375 42.84375 
Q 40.53125 48.484375 33.40625 48.484375 
Q 26.265625 48.484375 22.1875 42.84375 
Q 18.109375 37.203125 18.109375 27.296875 
Q 18.109375 17.390625 22.1875 11.75 
Q 26.265625 6.109375 33.40625 6.109375 
Q 40.53125 6.109375 44.609375 11.75 
Q 48.6875 17.390625 48.6875 27.296875 
z
M 18.109375 46.390625 
Q 20.953125 51.265625 25.265625 53.625 
Q 29.59375 56 35.59375 56 
Q 45.5625 56 51.78125 48.09375 
Q 58.015625 40.1875 58.015625 27.296875 
Q 58.015625 14.40625 51.78125 6.484375 
Q 45.5625 -1.421875 35.59375 -1.421875 
Q 29.59375 -1.421875 25.265625 0.953125 
Q 20.953125 3.328125 18.109375 8.203125 
L 18.109375 0 
L 9.078125 0 
L 9.078125 75.984375 
L 18.109375 75.984375 
z
" id="DejaVuSans-98"/>
     <path d="M 37.109375 75.984375 
L 37.109375 68.5 
L 28.515625 68.5 
Q 23.6875 68.5 21.796875 66.546875 
Q 19.921875 64.59375 19.921875 59.515625 
L 19.921875 54.6875 
L 34.71875 54.6875 
L 34.71875 47.703125 
L 19.921875 47.703125 
L 19.921875 0 
L 10.890625 0 
L 10.890625 47.703125 
L 2.296875 47.703125 
L 2.296875 54.6875 
L 10.890625 54.6875 
L 10.890625 58.5 
Q 10.890625 67.625 15.140625 71.796875 
Q 19.390625 75.984375 28.609375 75.984375 
z
" id="DejaVuSans-102"/>
    </defs>
    <g transform="translate(123.315 35.472)scale(0.12 -0.12)">
     <use xlink:href="#DejaVuSans-80"/>
     <use x="60.255859" xlink:href="#DejaVuSans-111"/>
     <use x="121.4375" xlink:href="#DejaVuSans-112"/>
     <use x="184.914062" xlink:href="#DejaVuSans-117"/>
     <use x="248.292969" xlink:href="#DejaVuSans-108"/>
     <use x="276.076172" xlink:href="#DejaVuSans-97"/>
     <use x="337.355469" xlink:href="#DejaVuSans-116"/>
     <use x="376.564453" xlink:href="#DejaVuSans-105"/>
     <use x="404.347656" xlink:href="#DejaVuSans-111"/>
     <use x="465.529297" xlink:href="#DejaVuSans-110"/>
     <use x="528.908203" xlink:href="#DejaVuSans-39"/>
     <use x="556.398438" xlink:href="#DejaVuSans-115"/>
     <use x="608.498047" xlink:href="#DejaVuSans-32"/>
     <use x="640.285156" xlink:href="#DejaVuSans-97"/>
     <use x="701.564453" xlink:href="#DejaVuSans-118"/>
     <use x="760.744141" xlink:href="#DejaVuSans-101"/>
     <use x="822.267578" xlink:href="#DejaVuSans-114"/>
     <use x="863.380859" xlink:href="#DejaVuSans-97"/>
     <use x="924.660156" xlink:href="#DejaVuSans-103"/>
     <use x="988.136719" xlink:href="#DejaVuSans-101"/>
     <use x="1049.660156" xlink:href="#DejaVuSans-32"/>
     <use x="1081.447266" xlink:href="#DejaVuSans-97"/>
     <use x="1142.726562" xlink:href="#DejaVuSans-110"/>
     <use x="1206.105469" xlink:href="#DejaVuSans-100"/>
     <use x="1269.582031" xlink:href="#DejaVuSans-32"/>
     <use x="1301.369141" xlink:href="#DejaVuSans-98"/>
     <use x="1364.845703" xlink:href="#DejaVuSans-101"/>
     <use x="1426.369141" xlink:href="#DejaVuSans-115"/>
     <use x="1478.46875" xlink:href="#DejaVuSans-116"/>
     <use x="1517.677734" xlink:href="#DejaVuSans-32"/>
     <use x="1549.464844" xlink:href="#DejaVuSans-102"/>
     <use x="1584.669922" xlink:href="#DejaVuSans-105"/>
     <use x="1612.453125" xlink:href="#DejaVuSans-116"/>
     <use x="1651.662109" xlink:href="#DejaVuSans-110"/>
     <use x="1715.041016" xlink:href="#DejaVuSans-101"/>
     <use x="1776.564453" xlink:href="#DejaVuSans-115"/>
     <use x="1828.664062" xlink:href="#DejaVuSans-115"/>
    </g>
   </g>
   <g id="legend_1">
    <g id="patch_7">
     <path d="M 199.689687 302.584 
L 272.630313 302.584 
Q 274.630313 302.584 274.630313 300.584 
L 274.630313 242.8715 
Q 274.630313 240.8715 272.630313 240.8715 
L 199.689687 240.8715 
Q 197.689687 240.8715 197.689687 242.8715 
L 197.689687 300.584 
Q 197.689687 302.584 199.689687 302.584 
z
" style="fill:#ffffff;opacity:0.8;stroke:#cccccc;stroke-linejoin:miter;"/>
    </g>
    <g id="line2d_33">
     <path d="M 201.689687 248.969937 
L 221.689687 248.969937 
" style="fill:none;stroke:#0000ff;stroke-linecap:square;stroke-width:1.5;"/>
    </g>
    <g id="line2d_34"/>
    <g id="text_18">
     <!-- average -->
     <g transform="translate(229.689687 252.469937)scale(0.1 -0.1)">
      <use xlink:href="#DejaVuSans-97"/>
      <use x="61.279297" xlink:href="#DejaVuSans-118"/>
      <use x="120.458984" xlink:href="#DejaVuSans-101"/>
      <use x="181.982422" xlink:href="#DejaVuSans-114"/>
      <use x="223.095703" xlink:href="#DejaVuSans-97"/>
      <use x="284.375" xlink:href="#DejaVuSans-103"/>
      <use x="347.851562" xlink:href="#DejaVuSans-101"/>
     </g>
    </g>
    <g id="line2d_35">
     <path d="M 201.689687 263.648062 
L 221.689687 263.648062 
" style="fill:none;stroke:#008000;stroke-dasharray:9.6,2.4,1.5,2.4;stroke-dashoffset:0;stroke-width:1.5;"/>
    </g>
    <g id="line2d_36"/>
    <g id="text_19">
     <!-- -1 sd -->
     <defs>
      <path d="M 4.890625 31.390625 
L 31.203125 31.390625 
L 31.203125 23.390625 
L 4.890625 23.390625 
z
" id="DejaVuSans-45"/>
     </defs>
     <g transform="translate(229.689687 267.148062)scale(0.1 -0.1)">
      <use xlink:href="#DejaVuSans-45"/>
      <use x="36.083984" xlink:href="#DejaVuSans-49"/>
      <use x="99.707031" xlink:href="#DejaVuSans-32"/>
      <use x="131.494141" xlink:href="#DejaVuSans-115"/>
      <use x="183.59375" xlink:href="#DejaVuSans-100"/>
     </g>
    </g>
    <g id="line2d_37">
     <path d="M 201.689687 278.326187 
L 221.689687 278.326187 
" style="fill:none;stroke:#008000;stroke-dasharray:9.6,2.4,1.5,2.4;stroke-dashoffset:0;stroke-width:1.5;"/>
    </g>
    <g id="line2d_38"/>
    <g id="text_20">
     <!-- +1 sd -->
     <defs>
      <path d="M 46 62.703125 
L 46 35.5 
L 73.1875 35.5 
L 73.1875 27.203125 
L 46 27.203125 
L 46 0 
L 37.796875 0 
L 37.796875 27.203125 
L 10.59375 27.203125 
L 10.59375 35.5 
L 37.796875 35.5 
L 37.796875 62.703125 
z
" id="DejaVuSans-43"/>
     </defs>
     <g transform="translate(229.689687 281.826187)scale(0.1 -0.1)">
      <use xlink:href="#DejaVuSans-43"/>
      <use x="83.789062" xlink:href="#DejaVuSans-49"/>
      <use x="147.412109" xlink:href="#DejaVuSans-32"/>
      <use x="179.199219" xlink:href="#DejaVuSans-115"/>
      <use x="231.298828" xlink:href="#DejaVuSans-100"/>
     </g>
    </g>
    <g id="line2d_39">
     <path d="M 201.689687 293.004312 
L 221.689687 293.004312 
" style="fill:none;stroke:#ff0000;stroke-linecap:square;stroke-width:1.5;"/>
    </g>
    <g id="line2d_40"/>
    <g id="text_21">
     <!-- best -->
     <g transform="translate(229.689687 296.504312)scale(0.1 -0.1)">
      <use xlink:href="#DejaVuSans-98"/>
      <use x="63.476562" xlink:href="#DejaVuSans-101"/>
      <use x="125" xlink:href="#DejaVuSans-115"/>
      <use x="177.099609" xlink:href="#DejaVuSans-116"/>
     </g>
    </g>
   </g>
  </g>
 </g>
 <defs>
  <clipPath id="p1b134f0371">
   <rect height="266.112" width="357.12" x="57.6" y="41.472"/>
  </clipPath>
 </defs>
</svg>
