<?xml version="1.0" encoding="UTF-8" standalone="no"?>
<!DOCTYPE svg PUBLIC "-//W3C//DTD SVG 1.1//EN"
 "http://www.w3.org/Graphics/SVG/1.1/DTD/svg11.dtd">
<!-- Generated by graphviz version 2.40.1 (20161225.0304)
 -->
<!-- Title: %3 Pages: 1 -->
<svg width="488pt" height="266pt"
 viewBox="0.00 0.00 488.42 265.93" xmlns="http://www.w3.org/2000/svg" xmlns:xlink="http://www.w3.org/1999/xlink">
<g id="graph0" class="graph" transform="scale(1 1) rotate(0) translate(4 261.9326)">
<title>%3</title>
<polygon fill="#ffffff" stroke="transparent" points="-4,4 -4,-261.9326 484.4247,-261.9326 484.4247,4 -4,4"/>
<!-- 0 -->
<g id="node1" class="node">
<title>0</title>
<polygon fill="#d3d3d3" stroke="#000000" points="185.0476,-257.9326 165.0357,-257.9326 165.0357,-240.9326 185.0476,-240.9326 185.0476,-257.9326"/>
<text text-anchor="middle" x="175.0416" y="-246.7326" font-family="Times,serif" font-size="9.00" fill="#000000">0</text>
</g>
<!-- 1 -->
<g id="node2" class="node">
<title>1</title>
<polygon fill="#d3d3d3" stroke="#000000" points="224.0476,-257.9326 204.0357,-257.9326 204.0357,-240.9326 224.0476,-240.9326 224.0476,-257.9326"/>
<text text-anchor="middle" x="214.0416" y="-246.7326" font-family="Times,serif" font-size="9.00" fill="#000000">1</text>
</g>
<!-- 0&#45;&gt;1 -->
<!-- E5 -->
<g id="node9" class="node">
<title>E5</title>
<ellipse fill="#87cefa" stroke="#000000" cx="297.0416" cy="-18.383" rx="18.2668" ry="18.2668"/>
<text text-anchor="middle" x="297.0416" y="-15.683" font-family="Times,serif" font-size="9.00" fill="#000000">E5</text>
</g>
<!-- 0&#45;&gt;E5 -->
<g id="edge12" class="edge">
<title>0&#45;&gt;E5</title>
<path fill="none" stroke="#ff0000" stroke-width=".8009" d="M178.4793,-240.6918C188.9342,-214.4626 221.8533,-134.4349 258.0416,-72.7661 264.3445,-62.0254 272.2064,-50.7451 279.2169,-41.26"/>
<polygon fill="#ff0000" stroke="#ff0000" stroke-width=".8009" points="282.1265,-43.2144 285.3466,-33.1208 276.5348,-39.0033 282.1265,-43.2144"/>
</g>
<!-- 2 -->
<g id="node3" class="node">
<title>2</title>
<polygon fill="#d3d3d3" stroke="#000000" points="263.0476,-257.9326 243.0357,-257.9326 243.0357,-240.9326 263.0476,-240.9326 263.0476,-257.9326"/>
<text text-anchor="middle" x="253.0416" y="-246.7326" font-family="Times,serif" font-size="9.00" fill="#000000">2</text>
</g>
<!-- 1&#45;&gt;2 -->
<!-- E3 -->
<g id="node7" class="node">
<title>E3</title>
<ellipse fill="#87cefa" stroke="#000000" cx="187.0416" cy="-18.383" rx="18.2668" ry="18.2668"/>
<text text-anchor="middle" x="187.0416" y="-15.683" font-family="Times,serif" font-size="9.00" fill="#000000">E3</text>
</g>
<!-- 1&#45;&gt;E3 -->
<g id="edge16" class="edge">
<title>1&#45;&gt;E3</title>
<path fill="none" stroke="#ff0000" stroke-width=".1107" d="M213.0162,-240.6573C209.3124,-208.9623 196.5221,-99.5115 190.3822,-46.9692"/>
<polygon fill="#ff0000" stroke="#ff0000" stroke-width=".1107" points="193.8501,-46.4902 189.213,-36.9641 186.8974,-47.3028 193.8501,-46.4902"/>
</g>
<!-- E7 -->
<g id="node11" class="node">
<title>E7</title>
<ellipse fill="#87cefa" stroke="#000000" cx="407.0416" cy="-18.383" rx="18.2668" ry="18.2668"/>
<text text-anchor="middle" x="407.0416" y="-15.683" font-family="Times,serif" font-size="9.00" fill="#000000">E7</text>
</g>
<!-- 1&#45;&gt;E7 -->
<g id="edge17" class="edge">
<title>1&#45;&gt;E7</title>
<path fill="none" stroke="#ff0000" stroke-width=".1765" d="M221.3718,-240.6573C248.9697,-207.6185 347.143,-90.0905 388.4807,-40.6032"/>
<polygon fill="#ff0000" stroke="#ff0000" stroke-width=".1765" points="391.335,-42.6457 395.0597,-32.7272 385.9627,-38.1581 391.335,-42.6457"/>
</g>
<!-- 4553 -->
<g id="node13" class="node">
<title>4553</title>
<ellipse fill="#add8e6" stroke="#000000" cx="77.0416" cy="-180.891" rx="24.0833" ry="24.0833"/>
<text text-anchor="middle" x="77.0416" y="-182.691" font-family="Times,serif" font-size="9.00" fill="#000000">4553</text>
<text text-anchor="middle" x="77.0416" y="-173.691" font-family="Times,serif" font-size="9.00" fill="#000000">sigm</text>
</g>
<!-- 1&#45;&gt;4553 -->
<g id="edge13" class="edge">
<title>1&#45;&gt;4553</title>
<path fill="none" stroke="#00ff00" stroke-width=".8125" d="M203.7444,-244.2809C183.6115,-234.2083 138.3308,-211.5542 107.7229,-196.241"/>
<polygon fill="#00ff00" stroke="#00ff00" stroke-width=".8125" points="109.2483,-193.0905 98.7391,-191.7463 106.1162,-199.3508 109.2483,-193.0905"/>
</g>
<!-- E2 -->
<g id="node6" class="node">
<title>E2</title>
<ellipse fill="#87cefa" stroke="#000000" cx="132.0416" cy="-18.383" rx="18.2668" ry="18.2668"/>
<text text-anchor="middle" x="132.0416" y="-15.683" font-family="Times,serif" font-size="9.00" fill="#000000">E2</text>
</g>
<!-- 2&#45;&gt;E2 -->
<g id="edge15" class="edge">
<title>2&#45;&gt;E2</title>
<path fill="none" stroke="#ff0000" stroke-width=".4018" d="M248.4023,-240.9222C243.5399,-231.9811 235.6968,-217.4989 229.0416,-204.9326 198.7459,-147.7286 163.8789,-80.264 145.31,-44.2011"/>
<polygon fill="#ff0000" stroke="#ff0000" stroke-width=".4018" points="148.2099,-42.1872 140.5221,-34.8968 141.9857,-45.3901 148.2099,-42.1872"/>
</g>
<!-- 2&#45;&gt;E3 -->
<g id="edge11" class="edge">
<title>2&#45;&gt;E3</title>
<path fill="none" stroke="#00ff00" stroke-width="1.2386" d="M251.4616,-240.8371C246.6064,-215.0137 230.9577,-136.0025 210.0416,-72.7661 206.9543,-63.4319 202.9521,-53.4589 199.1539,-44.6357"/>
<polygon fill="#00ff00" stroke="#00ff00" stroke-width="1.2386" points="202.2538,-42.9912 195.0118,-35.2579 195.8506,-45.8195 202.2538,-42.9912"/>
</g>
<!-- E0 -->
<g id="node4" class="node">
<title>E0</title>
<ellipse fill="#87cefa" stroke="#000000" cx="22.0416" cy="-18.383" rx="18.2668" ry="18.2668"/>
<text text-anchor="middle" x="22.0416" y="-15.683" font-family="Times,serif" font-size="9.00" fill="#000000">E0</text>
</g>
<!-- E1 -->
<g id="node5" class="node">
<title>E1</title>
<ellipse fill="#87cefa" stroke="#000000" cx="77.0416" cy="-18.383" rx="18.2668" ry="18.2668"/>
<text text-anchor="middle" x="77.0416" y="-15.683" font-family="Times,serif" font-size="9.00" fill="#000000">E1</text>
</g>
<!-- E0&#45;&gt;E1 -->
<!-- E1&#45;&gt;E2 -->
<!-- E2&#45;&gt;E3 -->
<!-- E4 -->
<g id="node8" class="node">
<title>E4</title>
<ellipse fill="#87cefa" stroke="#000000" cx="242.0416" cy="-18.383" rx="18.2668" ry="18.2668"/>
<text text-anchor="middle" x="242.0416" y="-15.683" font-family="Times,serif" font-size="9.00" fill="#000000">E4</text>
</g>
<!-- E3&#45;&gt;E4 -->
<!-- E4&#45;&gt;E5 -->
<!-- E6 -->
<g id="node10" class="node">
<title>E6</title>
<ellipse fill="#87cefa" stroke="#000000" cx="352.0416" cy="-18.383" rx="18.2668" ry="18.2668"/>
<text text-anchor="middle" x="352.0416" y="-15.683" font-family="Times,serif" font-size="9.00" fill="#000000">E6</text>
</g>
<!-- E5&#45;&gt;E6 -->
<!-- E6&#45;&gt;E7 -->
<!-- E8 -->
<g id="node12" class="node">
<title>E8</title>
<ellipse fill="#87cefa" stroke="#000000" cx="462.0416" cy="-18.383" rx="18.2668" ry="18.2668"/>
<text text-anchor="middle" x="462.0416" y="-15.683" font-family="Times,serif" font-size="9.00" fill="#000000">E8</text>
</g>
<!-- E7&#45;&gt;E8 -->
<!-- 4553&#45;&gt;E1 -->
<g id="edge14" class="edge">
<title>4553&#45;&gt;E1</title>
<path fill="none" stroke="#ff0000" stroke-width="2.3326" d="M77.0416,-156.5619C77.0416,-127.2561 77.0416,-78.0965 77.0416,-46.9981"/>
<polygon fill="#ff0000" stroke="#ff0000" stroke-width="2.3326" points="80.5417,-46.8135 77.0416,-36.8135 73.5417,-46.8136 80.5417,-46.8135"/>
</g>
<!-- 5358 -->
<g id="node14" class="node">
<title>5358</title>
<ellipse fill="#add8e6" stroke="#000000" cx="24.0416" cy="-96.8077" rx="24.0833" ry="24.0833"/>
<text text-anchor="middle" x="24.0416" y="-98.6077" font-family="Times,serif" font-size="9.00" fill="#000000">5358</text>
<text text-anchor="middle" x="24.0416" y="-89.6077" font-family="Times,serif" font-size="9.00" fill="#000000">sigm</text>
</g>
<!-- 4553&#45;&gt;5358 -->
<g id="edge18" class="edge">
<title>4553&#45;&gt;5358</title>
<path fill="none" stroke="#00ff00" stroke-width=".4418" d="M64.2118,-160.5368C57.685,-150.1821 49.6346,-137.4103 42.4587,-126.0259"/>
<polygon fill="#00ff00" stroke="#00ff00" stroke-width=".4418" points="45.2303,-123.8593 36.937,-117.2659 39.3085,-127.592 45.2303,-123.8593"/>
</g>
<!-- 5358&#45;&gt;E0 -->
<g id="edge19" class="edge">
<title>5358&#45;&gt;E0</title>
<path fill="none" stroke="#ff0000" stroke-width=".4198" d="M23.4198,-72.4236C23.2134,-64.33 22.9818,-55.248 22.7682,-46.8729"/>
<polygon fill="#ff0000" stroke="#ff0000" stroke-width=".4198" points="26.2644,-46.6776 22.5105,-36.7702 19.2667,-46.8562 26.2644,-46.6776"/>
</g>
</g>
</svg>
