<?xml version="1.0" encoding="utf-8" standalone="no"?>
<!DOCTYPE svg PUBLIC "-//W3C//DTD SVG 1.1//EN"
  "http://www.w3.org/Graphics/SVG/1.1/DTD/svg11.dtd">
<!-- Created with matplotlib (https://matplotlib.org/) -->
<svg height="345.6pt" version="1.1" viewBox="0 0 460.8 345.6" width="460.8pt" xmlns="http://www.w3.org/2000/svg" xmlns:xlink="http://www.w3.org/1999/xlink">
 <defs>
  <style type="text/css">
*{stroke-linecap:butt;stroke-linejoin:round;}
  </style>
 </defs>
 <g id="figure_1">
  <g id="patch_1">
   <path d="M 0 345.6 
L 460.8 345.6 
L 460.8 0 
L 0 0 
z
" style="fill:#ffffff;"/>
  </g>
  <g id="axes_1">
   <g id="patch_2">
    <path d="M 57.6 307.584 
L 414.72 307.584 
L 414.72 41.472 
L 57.6 41.472 
z
" style="fill:#ffffff;"/>
   </g>
   <g id="matplotlib.axis_1">
    <g id="xtick_1">
     <g id="line2d_1">
      <path clip-path="url(#p22ee62cf3d)" d="M 73.832727 307.584 
L 73.832727 41.472 
" style="fill:none;stroke:#b0b0b0;stroke-linecap:square;stroke-width:0.8;"/>
     </g>
     <g id="line2d_2">
      <defs>
       <path d="M 0 0 
L 0 3.5 
" id="mcbd970ff95" style="stroke:#000000;stroke-width:0.8;"/>
      </defs>
      <g>
       <use style="stroke:#000000;stroke-width:0.8;" x="73.832727" xlink:href="#mcbd970ff95" y="307.584"/>
      </g>
     </g>
     <g id="text_1">
      <!-- 0 -->
      <defs>
       <path d="M 31.78125 66.40625 
Q 24.171875 66.40625 20.328125 58.90625 
Q 16.5 51.421875 16.5 36.375 
Q 16.5 21.390625 20.328125 13.890625 
Q 24.171875 6.390625 31.78125 6.390625 
Q 39.453125 6.390625 43.28125 13.890625 
Q 47.125 21.390625 47.125 36.375 
Q 47.125 51.421875 43.28125 58.90625 
Q 39.453125 66.40625 31.78125 66.40625 
z
M 31.78125 74.21875 
Q 44.046875 74.21875 50.515625 64.515625 
Q 56.984375 54.828125 56.984375 36.375 
Q 56.984375 17.96875 50.515625 8.265625 
Q 44.046875 -1.421875 31.78125 -1.421875 
Q 19.53125 -1.421875 13.0625 8.265625 
Q 6.59375 17.96875 6.59375 36.375 
Q 6.59375 54.828125 13.0625 64.515625 
Q 19.53125 74.21875 31.78125 74.21875 
z
" id="DejaVuSans-48"/>
      </defs>
      <g transform="translate(70.651477 322.182437)scale(0.1 -0.1)">
       <use xlink:href="#DejaVuSans-48"/>
      </g>
     </g>
    </g>
    <g id="xtick_2">
     <g id="line2d_3">
      <path clip-path="url(#p22ee62cf3d)" d="M 128.122785 307.584 
L 128.122785 41.472 
" style="fill:none;stroke:#b0b0b0;stroke-linecap:square;stroke-width:0.8;"/>
     </g>
     <g id="line2d_4">
      <g>
       <use style="stroke:#000000;stroke-width:0.8;" x="128.122785" xlink:href="#mcbd970ff95" y="307.584"/>
      </g>
     </g>
     <g id="text_2">
      <!-- 50 -->
      <defs>
       <path d="M 10.796875 72.90625 
L 49.515625 72.90625 
L 49.515625 64.59375 
L 19.828125 64.59375 
L 19.828125 46.734375 
Q 21.96875 47.46875 24.109375 47.828125 
Q 26.265625 48.1875 28.421875 48.1875 
Q 40.625 48.1875 47.75 41.5 
Q 54.890625 34.8125 54.890625 23.390625 
Q 54.890625 11.625 47.5625 5.09375 
Q 40.234375 -1.421875 26.90625 -1.421875 
Q 22.3125 -1.421875 17.546875 -0.640625 
Q 12.796875 0.140625 7.71875 1.703125 
L 7.71875 11.625 
Q 12.109375 9.234375 16.796875 8.0625 
Q 21.484375 6.890625 26.703125 6.890625 
Q 35.15625 6.890625 40.078125 11.328125 
Q 45.015625 15.765625 45.015625 23.390625 
Q 45.015625 31 40.078125 35.4375 
Q 35.15625 39.890625 26.703125 39.890625 
Q 22.75 39.890625 18.8125 39.015625 
Q 14.890625 38.140625 10.796875 36.28125 
z
" id="DejaVuSans-53"/>
      </defs>
      <g transform="translate(121.760285 322.182437)scale(0.1 -0.1)">
       <use xlink:href="#DejaVuSans-53"/>
       <use x="63.623047" xlink:href="#DejaVuSans-48"/>
      </g>
     </g>
    </g>
    <g id="xtick_3">
     <g id="line2d_5">
      <path clip-path="url(#p22ee62cf3d)" d="M 182.412843 307.584 
L 182.412843 41.472 
" style="fill:none;stroke:#b0b0b0;stroke-linecap:square;stroke-width:0.8;"/>
     </g>
     <g id="line2d_6">
      <g>
       <use style="stroke:#000000;stroke-width:0.8;" x="182.412843" xlink:href="#mcbd970ff95" y="307.584"/>
      </g>
     </g>
     <g id="text_3">
      <!-- 100 -->
      <defs>
       <path d="M 12.40625 8.296875 
L 28.515625 8.296875 
L 28.515625 63.921875 
L 10.984375 60.40625 
L 10.984375 69.390625 
L 28.421875 72.90625 
L 38.28125 72.90625 
L 38.28125 8.296875 
L 54.390625 8.296875 
L 54.390625 0 
L 12.40625 0 
z
" id="DejaVuSans-49"/>
      </defs>
      <g transform="translate(172.869093 322.182437)scale(0.1 -0.1)">
       <use xlink:href="#DejaVuSans-49"/>
       <use x="63.623047" xlink:href="#DejaVuSans-48"/>
       <use x="127.246094" xlink:href="#DejaVuSans-48"/>
      </g>
     </g>
    </g>
    <g id="xtick_4">
     <g id="line2d_7">
      <path clip-path="url(#p22ee62cf3d)" d="M 236.702901 307.584 
L 236.702901 41.472 
" style="fill:none;stroke:#b0b0b0;stroke-linecap:square;stroke-width:0.8;"/>
     </g>
     <g id="line2d_8">
      <g>
       <use style="stroke:#000000;stroke-width:0.8;" x="236.702901" xlink:href="#mcbd970ff95" y="307.584"/>
      </g>
     </g>
     <g id="text_4">
      <!-- 150 -->
      <g transform="translate(227.159151 322.182437)scale(0.1 -0.1)">
       <use xlink:href="#DejaVuSans-49"/>
       <use x="63.623047" xlink:href="#DejaVuSans-53"/>
       <use x="127.246094" xlink:href="#DejaVuSans-48"/>
      </g>
     </g>
    </g>
    <g id="xtick_5">
     <g id="line2d_9">
      <path clip-path="url(#p22ee62cf3d)" d="M 290.992958 307.584 
L 290.992958 41.472 
" style="fill:none;stroke:#b0b0b0;stroke-linecap:square;stroke-width:0.8;"/>
     </g>
     <g id="line2d_10">
      <g>
       <use style="stroke:#000000;stroke-width:0.8;" x="290.992958" xlink:href="#mcbd970ff95" y="307.584"/>
      </g>
     </g>
     <g id="text_5">
      <!-- 200 -->
      <defs>
       <path d="M 19.1875 8.296875 
L 53.609375 8.296875 
L 53.609375 0 
L 7.328125 0 
L 7.328125 8.296875 
Q 12.9375 14.109375 22.625 23.890625 
Q 32.328125 33.6875 34.8125 36.53125 
Q 39.546875 41.84375 41.421875 45.53125 
Q 43.3125 49.21875 43.3125 52.78125 
Q 43.3125 58.59375 39.234375 62.25 
Q 35.15625 65.921875 28.609375 65.921875 
Q 23.96875 65.921875 18.8125 64.3125 
Q 13.671875 62.703125 7.8125 59.421875 
L 7.8125 69.390625 
Q 13.765625 71.78125 18.9375 73 
Q 24.125 74.21875 28.421875 74.21875 
Q 39.75 74.21875 46.484375 68.546875 
Q 53.21875 62.890625 53.21875 53.421875 
Q 53.21875 48.921875 51.53125 44.890625 
Q 49.859375 40.875 45.40625 35.40625 
Q 44.1875 33.984375 37.640625 27.21875 
Q 31.109375 20.453125 19.1875 8.296875 
z
" id="DejaVuSans-50"/>
      </defs>
      <g transform="translate(281.449208 322.182437)scale(0.1 -0.1)">
       <use xlink:href="#DejaVuSans-50"/>
       <use x="63.623047" xlink:href="#DejaVuSans-48"/>
       <use x="127.246094" xlink:href="#DejaVuSans-48"/>
      </g>
     </g>
    </g>
    <g id="xtick_6">
     <g id="line2d_11">
      <path clip-path="url(#p22ee62cf3d)" d="M 345.283016 307.584 
L 345.283016 41.472 
" style="fill:none;stroke:#b0b0b0;stroke-linecap:square;stroke-width:0.8;"/>
     </g>
     <g id="line2d_12">
      <g>
       <use style="stroke:#000000;stroke-width:0.8;" x="345.283016" xlink:href="#mcbd970ff95" y="307.584"/>
      </g>
     </g>
     <g id="text_6">
      <!-- 250 -->
      <g transform="translate(335.739266 322.182437)scale(0.1 -0.1)">
       <use xlink:href="#DejaVuSans-50"/>
       <use x="63.623047" xlink:href="#DejaVuSans-53"/>
       <use x="127.246094" xlink:href="#DejaVuSans-48"/>
      </g>
     </g>
    </g>
    <g id="xtick_7">
     <g id="line2d_13">
      <path clip-path="url(#p22ee62cf3d)" d="M 399.573074 307.584 
L 399.573074 41.472 
" style="fill:none;stroke:#b0b0b0;stroke-linecap:square;stroke-width:0.8;"/>
     </g>
     <g id="line2d_14">
      <g>
       <use style="stroke:#000000;stroke-width:0.8;" x="399.573074" xlink:href="#mcbd970ff95" y="307.584"/>
      </g>
     </g>
     <g id="text_7">
      <!-- 300 -->
      <defs>
       <path d="M 40.578125 39.3125 
Q 47.65625 37.796875 51.625 33 
Q 55.609375 28.21875 55.609375 21.1875 
Q 55.609375 10.40625 48.1875 4.484375 
Q 40.765625 -1.421875 27.09375 -1.421875 
Q 22.515625 -1.421875 17.65625 -0.515625 
Q 12.796875 0.390625 7.625 2.203125 
L 7.625 11.71875 
Q 11.71875 9.328125 16.59375 8.109375 
Q 21.484375 6.890625 26.8125 6.890625 
Q 36.078125 6.890625 40.9375 10.546875 
Q 45.796875 14.203125 45.796875 21.1875 
Q 45.796875 27.640625 41.28125 31.265625 
Q 36.765625 34.90625 28.71875 34.90625 
L 20.21875 34.90625 
L 20.21875 43.015625 
L 29.109375 43.015625 
Q 36.375 43.015625 40.234375 45.921875 
Q 44.09375 48.828125 44.09375 54.296875 
Q 44.09375 59.90625 40.109375 62.90625 
Q 36.140625 65.921875 28.71875 65.921875 
Q 24.65625 65.921875 20.015625 65.03125 
Q 15.375 64.15625 9.8125 62.3125 
L 9.8125 71.09375 
Q 15.4375 72.65625 20.34375 73.4375 
Q 25.25 74.21875 29.59375 74.21875 
Q 40.828125 74.21875 47.359375 69.109375 
Q 53.90625 64.015625 53.90625 55.328125 
Q 53.90625 49.265625 50.4375 45.09375 
Q 46.96875 40.921875 40.578125 39.3125 
z
" id="DejaVuSans-51"/>
      </defs>
      <g transform="translate(390.029324 322.182437)scale(0.1 -0.1)">
       <use xlink:href="#DejaVuSans-51"/>
       <use x="63.623047" xlink:href="#DejaVuSans-48"/>
       <use x="127.246094" xlink:href="#DejaVuSans-48"/>
      </g>
     </g>
    </g>
    <g id="text_8">
     <!-- Generations -->
     <defs>
      <path d="M 59.515625 10.40625 
L 59.515625 29.984375 
L 43.40625 29.984375 
L 43.40625 38.09375 
L 69.28125 38.09375 
L 69.28125 6.78125 
Q 63.578125 2.734375 56.6875 0.65625 
Q 49.8125 -1.421875 42 -1.421875 
Q 24.90625 -1.421875 15.25 8.5625 
Q 5.609375 18.5625 5.609375 36.375 
Q 5.609375 54.25 15.25 64.234375 
Q 24.90625 74.21875 42 74.21875 
Q 49.125 74.21875 55.546875 72.453125 
Q 61.96875 70.703125 67.390625 67.28125 
L 67.390625 56.78125 
Q 61.921875 61.421875 55.765625 63.765625 
Q 49.609375 66.109375 42.828125 66.109375 
Q 29.4375 66.109375 22.71875 58.640625 
Q 16.015625 51.171875 16.015625 36.375 
Q 16.015625 21.625 22.71875 14.15625 
Q 29.4375 6.6875 42.828125 6.6875 
Q 48.046875 6.6875 52.140625 7.59375 
Q 56.25 8.5 59.515625 10.40625 
z
" id="DejaVuSans-71"/>
      <path d="M 56.203125 29.59375 
L 56.203125 25.203125 
L 14.890625 25.203125 
Q 15.484375 15.921875 20.484375 11.0625 
Q 25.484375 6.203125 34.421875 6.203125 
Q 39.59375 6.203125 44.453125 7.46875 
Q 49.3125 8.734375 54.109375 11.28125 
L 54.109375 2.78125 
Q 49.265625 0.734375 44.1875 -0.34375 
Q 39.109375 -1.421875 33.890625 -1.421875 
Q 20.796875 -1.421875 13.15625 6.1875 
Q 5.515625 13.8125 5.515625 26.8125 
Q 5.515625 40.234375 12.765625 48.109375 
Q 20.015625 56 32.328125 56 
Q 43.359375 56 49.78125 48.890625 
Q 56.203125 41.796875 56.203125 29.59375 
z
M 47.21875 32.234375 
Q 47.125 39.59375 43.09375 43.984375 
Q 39.0625 48.390625 32.421875 48.390625 
Q 24.90625 48.390625 20.390625 44.140625 
Q 15.875 39.890625 15.1875 32.171875 
z
" id="DejaVuSans-101"/>
      <path d="M 54.890625 33.015625 
L 54.890625 0 
L 45.90625 0 
L 45.90625 32.71875 
Q 45.90625 40.484375 42.875 44.328125 
Q 39.84375 48.1875 33.796875 48.1875 
Q 26.515625 48.1875 22.3125 43.546875 
Q 18.109375 38.921875 18.109375 30.90625 
L 18.109375 0 
L 9.078125 0 
L 9.078125 54.6875 
L 18.109375 54.6875 
L 18.109375 46.1875 
Q 21.34375 51.125 25.703125 53.5625 
Q 30.078125 56 35.796875 56 
Q 45.21875 56 50.046875 50.171875 
Q 54.890625 44.34375 54.890625 33.015625 
z
" id="DejaVuSans-110"/>
      <path d="M 41.109375 46.296875 
Q 39.59375 47.171875 37.8125 47.578125 
Q 36.03125 48 33.890625 48 
Q 26.265625 48 22.1875 43.046875 
Q 18.109375 38.09375 18.109375 28.8125 
L 18.109375 0 
L 9.078125 0 
L 9.078125 54.6875 
L 18.109375 54.6875 
L 18.109375 46.1875 
Q 20.953125 51.171875 25.484375 53.578125 
Q 30.03125 56 36.53125 56 
Q 37.453125 56 38.578125 55.875 
Q 39.703125 55.765625 41.0625 55.515625 
z
" id="DejaVuSans-114"/>
      <path d="M 34.28125 27.484375 
Q 23.390625 27.484375 19.1875 25 
Q 14.984375 22.515625 14.984375 16.5 
Q 14.984375 11.71875 18.140625 8.90625 
Q 21.296875 6.109375 26.703125 6.109375 
Q 34.1875 6.109375 38.703125 11.40625 
Q 43.21875 16.703125 43.21875 25.484375 
L 43.21875 27.484375 
z
M 52.203125 31.203125 
L 52.203125 0 
L 43.21875 0 
L 43.21875 8.296875 
Q 40.140625 3.328125 35.546875 0.953125 
Q 30.953125 -1.421875 24.3125 -1.421875 
Q 15.921875 -1.421875 10.953125 3.296875 
Q 6 8.015625 6 15.921875 
Q 6 25.140625 12.171875 29.828125 
Q 18.359375 34.515625 30.609375 34.515625 
L 43.21875 34.515625 
L 43.21875 35.40625 
Q 43.21875 41.609375 39.140625 45 
Q 35.0625 48.390625 27.6875 48.390625 
Q 23 48.390625 18.546875 47.265625 
Q 14.109375 46.140625 10.015625 43.890625 
L 10.015625 52.203125 
Q 14.9375 54.109375 19.578125 55.046875 
Q 24.21875 56 28.609375 56 
Q 40.484375 56 46.34375 49.84375 
Q 52.203125 43.703125 52.203125 31.203125 
z
" id="DejaVuSans-97"/>
      <path d="M 18.3125 70.21875 
L 18.3125 54.6875 
L 36.8125 54.6875 
L 36.8125 47.703125 
L 18.3125 47.703125 
L 18.3125 18.015625 
Q 18.3125 11.328125 20.140625 9.421875 
Q 21.96875 7.515625 27.59375 7.515625 
L 36.8125 7.515625 
L 36.8125 0 
L 27.59375 0 
Q 17.1875 0 13.234375 3.875 
Q 9.28125 7.765625 9.28125 18.015625 
L 9.28125 47.703125 
L 2.6875 47.703125 
L 2.6875 54.6875 
L 9.28125 54.6875 
L 9.28125 70.21875 
z
" id="DejaVuSans-116"/>
      <path d="M 9.421875 54.6875 
L 18.40625 54.6875 
L 18.40625 0 
L 9.421875 0 
z
M 9.421875 75.984375 
L 18.40625 75.984375 
L 18.40625 64.59375 
L 9.421875 64.59375 
z
" id="DejaVuSans-105"/>
      <path d="M 30.609375 48.390625 
Q 23.390625 48.390625 19.1875 42.75 
Q 14.984375 37.109375 14.984375 27.296875 
Q 14.984375 17.484375 19.15625 11.84375 
Q 23.34375 6.203125 30.609375 6.203125 
Q 37.796875 6.203125 41.984375 11.859375 
Q 46.1875 17.53125 46.1875 27.296875 
Q 46.1875 37.015625 41.984375 42.703125 
Q 37.796875 48.390625 30.609375 48.390625 
z
M 30.609375 56 
Q 42.328125 56 49.015625 48.375 
Q 55.71875 40.765625 55.71875 27.296875 
Q 55.71875 13.875 49.015625 6.21875 
Q 42.328125 -1.421875 30.609375 -1.421875 
Q 18.84375 -1.421875 12.171875 6.21875 
Q 5.515625 13.875 5.515625 27.296875 
Q 5.515625 40.765625 12.171875 48.375 
Q 18.84375 56 30.609375 56 
z
" id="DejaVuSans-111"/>
      <path d="M 44.28125 53.078125 
L 44.28125 44.578125 
Q 40.484375 46.53125 36.375 47.5 
Q 32.28125 48.484375 27.875 48.484375 
Q 21.1875 48.484375 17.84375 46.4375 
Q 14.5 44.390625 14.5 40.28125 
Q 14.5 37.15625 16.890625 35.375 
Q 19.28125 33.59375 26.515625 31.984375 
L 29.59375 31.296875 
Q 39.15625 29.25 43.1875 25.515625 
Q 47.21875 21.78125 47.21875 15.09375 
Q 47.21875 7.46875 41.1875 3.015625 
Q 35.15625 -1.421875 24.609375 -1.421875 
Q 20.21875 -1.421875 15.453125 -0.5625 
Q 10.6875 0.296875 5.421875 2 
L 5.421875 11.28125 
Q 10.40625 8.6875 15.234375 7.390625 
Q 20.0625 6.109375 24.8125 6.109375 
Q 31.15625 6.109375 34.5625 8.28125 
Q 37.984375 10.453125 37.984375 14.40625 
Q 37.984375 18.0625 35.515625 20.015625 
Q 33.0625 21.96875 24.703125 23.78125 
L 21.578125 24.515625 
Q 13.234375 26.265625 9.515625 29.90625 
Q 5.8125 33.546875 5.8125 39.890625 
Q 5.8125 47.609375 11.28125 51.796875 
Q 16.75 56 26.8125 56 
Q 31.78125 56 36.171875 55.265625 
Q 40.578125 54.546875 44.28125 53.078125 
z
" id="DejaVuSans-115"/>
     </defs>
     <g transform="translate(205.662344 335.860562)scale(0.1 -0.1)">
      <use xlink:href="#DejaVuSans-71"/>
      <use x="77.490234" xlink:href="#DejaVuSans-101"/>
      <use x="139.013672" xlink:href="#DejaVuSans-110"/>
      <use x="202.392578" xlink:href="#DejaVuSans-101"/>
      <use x="263.916016" xlink:href="#DejaVuSans-114"/>
      <use x="305.029297" xlink:href="#DejaVuSans-97"/>
      <use x="366.308594" xlink:href="#DejaVuSans-116"/>
      <use x="405.517578" xlink:href="#DejaVuSans-105"/>
      <use x="433.300781" xlink:href="#DejaVuSans-111"/>
      <use x="494.482422" xlink:href="#DejaVuSans-110"/>
      <use x="557.861328" xlink:href="#DejaVuSans-115"/>
     </g>
    </g>
   </g>
   <g id="matplotlib.axis_2">
    <g id="ytick_1">
     <g id="line2d_15">
      <path clip-path="url(#p22ee62cf3d)" d="M 57.6 295.524737 
L 414.72 295.524737 
" style="fill:none;stroke:#b0b0b0;stroke-linecap:square;stroke-width:0.8;"/>
     </g>
     <g id="line2d_16">
      <defs>
       <path d="M 0 0 
L -3.5 0 
" id="mb4f19a86e3" style="stroke:#000000;stroke-width:0.8;"/>
      </defs>
      <g>
       <use style="stroke:#000000;stroke-width:0.8;" x="57.6" xlink:href="#mb4f19a86e3" y="295.524737"/>
      </g>
     </g>
     <g id="text_9">
      <!-- 250 -->
      <g transform="translate(31.5125 299.323955)scale(0.1 -0.1)">
       <use xlink:href="#DejaVuSans-50"/>
       <use x="63.623047" xlink:href="#DejaVuSans-53"/>
       <use x="127.246094" xlink:href="#DejaVuSans-48"/>
      </g>
     </g>
    </g>
    <g id="ytick_2">
     <g id="line2d_17">
      <path clip-path="url(#p22ee62cf3d)" d="M 57.6 259.633102 
L 414.72 259.633102 
" style="fill:none;stroke:#b0b0b0;stroke-linecap:square;stroke-width:0.8;"/>
     </g>
     <g id="line2d_18">
      <g>
       <use style="stroke:#000000;stroke-width:0.8;" x="57.6" xlink:href="#mb4f19a86e3" y="259.633102"/>
      </g>
     </g>
     <g id="text_10">
      <!-- 500 -->
      <g transform="translate(31.5125 263.432321)scale(0.1 -0.1)">
       <use xlink:href="#DejaVuSans-53"/>
       <use x="63.623047" xlink:href="#DejaVuSans-48"/>
       <use x="127.246094" xlink:href="#DejaVuSans-48"/>
      </g>
     </g>
    </g>
    <g id="ytick_3">
     <g id="line2d_19">
      <path clip-path="url(#p22ee62cf3d)" d="M 57.6 223.741468 
L 414.72 223.741468 
" style="fill:none;stroke:#b0b0b0;stroke-linecap:square;stroke-width:0.8;"/>
     </g>
     <g id="line2d_20">
      <g>
       <use style="stroke:#000000;stroke-width:0.8;" x="57.6" xlink:href="#mb4f19a86e3" y="223.741468"/>
      </g>
     </g>
     <g id="text_11">
      <!-- 750 -->
      <defs>
       <path d="M 8.203125 72.90625 
L 55.078125 72.90625 
L 55.078125 68.703125 
L 28.609375 0 
L 18.3125 0 
L 43.21875 64.59375 
L 8.203125 64.59375 
z
" id="DejaVuSans-55"/>
      </defs>
      <g transform="translate(31.5125 227.540687)scale(0.1 -0.1)">
       <use xlink:href="#DejaVuSans-55"/>
       <use x="63.623047" xlink:href="#DejaVuSans-53"/>
       <use x="127.246094" xlink:href="#DejaVuSans-48"/>
      </g>
     </g>
    </g>
    <g id="ytick_4">
     <g id="line2d_21">
      <path clip-path="url(#p22ee62cf3d)" d="M 57.6 187.849834 
L 414.72 187.849834 
" style="fill:none;stroke:#b0b0b0;stroke-linecap:square;stroke-width:0.8;"/>
     </g>
     <g id="line2d_22">
      <g>
       <use style="stroke:#000000;stroke-width:0.8;" x="57.6" xlink:href="#mb4f19a86e3" y="187.849834"/>
      </g>
     </g>
     <g id="text_12">
      <!-- 1000 -->
      <g transform="translate(25.15 191.649053)scale(0.1 -0.1)">
       <use xlink:href="#DejaVuSans-49"/>
       <use x="63.623047" xlink:href="#DejaVuSans-48"/>
       <use x="127.246094" xlink:href="#DejaVuSans-48"/>
       <use x="190.869141" xlink:href="#DejaVuSans-48"/>
      </g>
     </g>
    </g>
    <g id="ytick_5">
     <g id="line2d_23">
      <path clip-path="url(#p22ee62cf3d)" d="M 57.6 151.9582 
L 414.72 151.9582 
" style="fill:none;stroke:#b0b0b0;stroke-linecap:square;stroke-width:0.8;"/>
     </g>
     <g id="line2d_24">
      <g>
       <use style="stroke:#000000;stroke-width:0.8;" x="57.6" xlink:href="#mb4f19a86e3" y="151.9582"/>
      </g>
     </g>
     <g id="text_13">
      <!-- 1250 -->
      <g transform="translate(25.15 155.757418)scale(0.1 -0.1)">
       <use xlink:href="#DejaVuSans-49"/>
       <use x="63.623047" xlink:href="#DejaVuSans-50"/>
       <use x="127.246094" xlink:href="#DejaVuSans-53"/>
       <use x="190.869141" xlink:href="#DejaVuSans-48"/>
      </g>
     </g>
    </g>
    <g id="ytick_6">
     <g id="line2d_25">
      <path clip-path="url(#p22ee62cf3d)" d="M 57.6 116.066565 
L 414.72 116.066565 
" style="fill:none;stroke:#b0b0b0;stroke-linecap:square;stroke-width:0.8;"/>
     </g>
     <g id="line2d_26">
      <g>
       <use style="stroke:#000000;stroke-width:0.8;" x="57.6" xlink:href="#mb4f19a86e3" y="116.066565"/>
      </g>
     </g>
     <g id="text_14">
      <!-- 1500 -->
      <g transform="translate(25.15 119.865784)scale(0.1 -0.1)">
       <use xlink:href="#DejaVuSans-49"/>
       <use x="63.623047" xlink:href="#DejaVuSans-53"/>
       <use x="127.246094" xlink:href="#DejaVuSans-48"/>
       <use x="190.869141" xlink:href="#DejaVuSans-48"/>
      </g>
     </g>
    </g>
    <g id="ytick_7">
     <g id="line2d_27">
      <path clip-path="url(#p22ee62cf3d)" d="M 57.6 80.174931 
L 414.72 80.174931 
" style="fill:none;stroke:#b0b0b0;stroke-linecap:square;stroke-width:0.8;"/>
     </g>
     <g id="line2d_28">
      <g>
       <use style="stroke:#000000;stroke-width:0.8;" x="57.6" xlink:href="#mb4f19a86e3" y="80.174931"/>
      </g>
     </g>
     <g id="text_15">
      <!-- 1750 -->
      <g transform="translate(25.15 83.97415)scale(0.1 -0.1)">
       <use xlink:href="#DejaVuSans-49"/>
       <use x="63.623047" xlink:href="#DejaVuSans-55"/>
       <use x="127.246094" xlink:href="#DejaVuSans-53"/>
       <use x="190.869141" xlink:href="#DejaVuSans-48"/>
      </g>
     </g>
    </g>
    <g id="ytick_8">
     <g id="line2d_29">
      <path clip-path="url(#p22ee62cf3d)" d="M 57.6 44.283297 
L 414.72 44.283297 
" style="fill:none;stroke:#b0b0b0;stroke-linecap:square;stroke-width:0.8;"/>
     </g>
     <g id="line2d_30">
      <g>
       <use style="stroke:#000000;stroke-width:0.8;" x="57.6" xlink:href="#mb4f19a86e3" y="44.283297"/>
      </g>
     </g>
     <g id="text_16">
      <!-- 2000 -->
      <g transform="translate(25.15 48.082515)scale(0.1 -0.1)">
       <use xlink:href="#DejaVuSans-50"/>
       <use x="63.623047" xlink:href="#DejaVuSans-48"/>
       <use x="127.246094" xlink:href="#DejaVuSans-48"/>
       <use x="190.869141" xlink:href="#DejaVuSans-48"/>
      </g>
     </g>
    </g>
    <g id="text_17">
     <!-- Fitness -->
     <defs>
      <path d="M 9.8125 72.90625 
L 51.703125 72.90625 
L 51.703125 64.59375 
L 19.671875 64.59375 
L 19.671875 43.109375 
L 48.578125 43.109375 
L 48.578125 34.8125 
L 19.671875 34.8125 
L 19.671875 0 
L 9.8125 0 
z
" id="DejaVuSans-70"/>
     </defs>
     <g transform="translate(19.070312 192.202219)rotate(-90)scale(0.1 -0.1)">
      <use xlink:href="#DejaVuSans-70"/>
      <use x="57.410156" xlink:href="#DejaVuSans-105"/>
      <use x="85.193359" xlink:href="#DejaVuSans-116"/>
      <use x="124.402344" xlink:href="#DejaVuSans-110"/>
      <use x="187.78125" xlink:href="#DejaVuSans-101"/>
      <use x="249.304688" xlink:href="#DejaVuSans-115"/>
      <use x="301.404297" xlink:href="#DejaVuSans-115"/>
     </g>
    </g>
   </g>
   <g id="line2d_31">
    <path clip-path="url(#p22ee62cf3d)" d="M 73.832727 292.049122 
L 74.918528 250.559109 
L 76.00433 254.330648 
L 77.090131 268.164906 
L 78.175932 256.164592 
L 79.261733 251.271428 
L 80.347534 251.207145 
L 81.433335 242.939351 
L 82.519137 250.898047 
L 83.604938 255.392112 
L 84.690739 250.843392 
L 85.77654 250.617052 
L 87.948142 241.071959 
L 89.033943 212.100234 
L 90.119745 210.22868 
L 91.205546 217.293655 
L 92.291347 219.112195 
L 93.377148 195.949035 
L 94.462949 200.630479 
L 95.54875 206.008019 
L 97.720353 224.739116 
L 98.806154 217.696261 
L 99.891955 214.001964 
L 100.977756 202.801212 
L 102.063557 207.097049 
L 103.149358 204.458819 
L 104.23516 209.213951 
L 105.320961 205.476476 
L 106.406762 198.453251 
L 107.492563 207.241302 
L 108.578364 208.597439 
L 109.664165 198.104236 
L 110.749967 193.239105 
L 111.835768 200.335871 
L 112.921569 194.646392 
L 114.00737 209.770285 
L 115.093171 182.742174 
L 116.178972 192.364499 
L 117.264773 205.368845 
L 118.350575 182.756409 
L 119.436376 202.738942 
L 120.522177 196.767781 
L 121.607978 194.806865 
L 122.693779 196.918756 
L 123.77958 199.875245 
L 124.865382 190.740845 
L 125.951183 169.153859 
L 127.036984 180.414097 
L 128.122785 188.682316 
L 129.208586 189.624776 
L 130.294387 174.404677 
L 131.380189 182.62259 
L 132.46599 188.10175 
L 133.551791 185.115937 
L 134.637592 179.907851 
L 135.723393 187.114482 
L 136.809194 181.061872 
L 137.894995 191.257399 
L 138.980797 171.240242 
L 140.066598 182.682286 
L 141.152399 157.362353 
L 142.2382 158.382225 
L 143.324001 174.430919 
L 144.409802 152.383708 
L 145.495604 156.886816 
L 146.581405 165.63938 
L 147.667206 134.6213 
L 148.753007 177.833922 
L 149.838808 176.144395 
L 150.924609 147.589715 
L 152.01041 152.949196 
L 153.096212 148.622451 
L 154.182013 128.557565 
L 155.267814 147.912948 
L 156.353615 140.722222 
L 157.439416 149.55555 
L 158.525217 146.393371 
L 159.611019 142.182017 
L 160.69682 154.979737 
L 161.782621 155.612273 
L 162.868422 161.516848 
L 163.954223 172.691333 
L 165.040024 160.346122 
L 166.125825 152.511029 
L 167.211627 143.07478 
L 168.297428 174.36286 
L 169.383229 151.962882 
L 170.46903 156.12657 
L 171.554831 159.079952 
L 172.640632 136.380669 
L 173.726434 184.678069 
L 174.812235 167.60592 
L 175.898036 167.310287 
L 176.983837 134.153167 
L 178.069638 154.026232 
L 179.155439 144.690845 
L 180.24124 126.015527 
L 182.412843 148.135258 
L 183.498644 155.312741 
L 184.584445 156.121376 
L 185.670246 125.854644 
L 186.756047 123.522684 
L 187.841849 143.542048 
L 188.92765 136.237461 
L 190.013451 131.515633 
L 191.099252 142.631937 
L 192.185053 158.80974 
L 193.270854 138.921935 
L 194.356656 145.037442 
L 195.442457 146.964546 
L 196.528258 138.347309 
L 197.614059 143.110011 
L 198.69986 128.015386 
L 199.785661 138.678409 
L 200.871462 130.113155 
L 201.957264 147.807542 
L 203.043065 144.409886 
L 204.128866 144.164851 
L 205.214667 156.955577 
L 206.300468 152.704523 
L 207.386269 150.768689 
L 208.472071 119.594585 
L 209.557872 147.60139 
L 210.643673 155.958698 
L 211.729474 174.920477 
L 212.815275 147.363713 
L 213.901076 135.344161 
L 214.986877 134.316666 
L 216.072679 139.27591 
L 217.15848 144.867224 
L 219.330082 151.49895 
L 220.415883 121.920266 
L 221.501684 132.294416 
L 222.587486 153.377663 
L 223.673287 138.007069 
L 224.759088 142.026893 
L 225.844889 129.324964 
L 226.93069 118.897016 
L 228.016491 140.168111 
L 229.102292 135.984509 
L 230.188094 153.650545 
L 231.273895 129.22802 
L 232.359696 140.082119 
L 233.445497 156.24991 
L 234.531298 150.740155 
L 235.617099 127.743365 
L 236.702901 152.625535 
L 237.788702 151.878912 
L 238.874503 170.49179 
L 239.960304 172.200842 
L 241.046105 134.193441 
L 242.131906 130.010166 
L 243.217708 132.284908 
L 244.303509 141.816681 
L 245.38931 131.088581 
L 246.475111 101.440962 
L 247.560912 122.612403 
L 248.646713 118.526476 
L 249.732514 136.422223 
L 250.818316 148.784203 
L 252.989918 139.417793 
L 254.075719 133.661553 
L 255.16152 130.456546 
L 256.247321 148.476011 
L 257.333123 122.913802 
L 258.418924 116.684309 
L 259.504725 145.126803 
L 260.590526 134.649813 
L 261.676327 130.834326 
L 262.762128 125.591687 
L 263.847929 104.737162 
L 264.933731 143.866409 
L 266.019532 147.277616 
L 267.105333 124.895432 
L 268.191134 151.888826 
L 269.276935 123.512407 
L 270.362736 142.595078 
L 271.448538 145.804443 
L 272.534339 141.439801 
L 273.62014 117.05027 
L 274.705941 158.430421 
L 275.791742 131.468805 
L 276.877543 130.315901 
L 277.963344 134.294498 
L 279.049146 125.227252 
L 280.134947 112.582741 
L 281.220748 137.275429 
L 283.39235 145.638048 
L 284.478151 146.850114 
L 285.563953 133.308509 
L 286.649754 133.87048 
L 287.735555 182.558807 
L 288.821356 129.608968 
L 289.907157 123.98832 
L 292.07876 143.381182 
L 293.164561 151.316013 
L 294.250362 148.824169 
L 296.421964 132.849862 
L 297.507765 152.861509 
L 298.593566 126.588996 
L 299.679368 150.544087 
L 300.765169 152.059133 
L 301.85097 152.520587 
L 302.936771 159.271677 
L 304.022572 167.718778 
L 305.108373 165.152595 
L 306.194175 156.162668 
L 307.279976 139.02653 
L 308.365777 154.935944 
L 309.451578 138.315253 
L 310.537379 160.044444 
L 311.62318 136.374524 
L 312.708981 139.262282 
L 313.794783 140.314054 
L 317.052186 159.268095 
L 318.137987 150.019834 
L 319.223788 147.149575 
L 320.30959 123.524425 
L 321.395391 128.334305 
L 322.481192 154.198756 
L 323.566993 145.641872 
L 324.652794 158.267513 
L 325.738595 134.846981 
L 326.824396 155.259262 
L 327.910198 158.911615 
L 328.995999 164.461515 
L 330.0818 150.814043 
L 331.167601 148.964333 
L 333.339203 181.575698 
L 334.425005 158.209735 
L 335.510806 195.548644 
L 336.596607 145.574579 
L 337.682408 172.665221 
L 338.768209 152.366446 
L 339.85401 166.023427 
L 340.939811 154.934305 
L 342.025613 174.609426 
L 343.111414 156.035962 
L 344.197215 145.463521 
L 345.283016 141.398619 
L 346.368817 180.398768 
L 347.454618 159.795149 
L 348.54042 156.717146 
L 349.626221 149.548759 
L 351.797823 167.926625 
L 352.883624 169.314522 
L 353.969425 126.788435 
L 355.055227 144.37359 
L 356.141028 159.696004 
L 357.226829 139.686601 
L 358.31263 136.219822 
L 359.398431 135.05511 
L 360.484232 115.106752 
L 361.570033 155.125884 
L 362.655835 132.585106 
L 363.741636 150.09235 
L 364.827437 134.88918 
L 365.913238 145.698195 
L 366.999039 147.931171 
L 368.08484 149.081704 
L 369.170642 130.691569 
L 370.256443 140.841729 
L 371.342244 145.115023 
L 372.428045 114.265701 
L 373.513846 139.585524 
L 374.599647 123.044757 
L 375.685448 109.161943 
L 376.77125 134.236958 
L 377.857051 163.814303 
L 378.942852 133.709602 
L 380.028653 127.700906 
L 381.114454 160.878436 
L 382.200255 145.856065 
L 383.286057 152.287838 
L 384.371858 164.608484 
L 385.457659 154.936259 
L 386.54346 167.322345 
L 387.629261 142.286092 
L 388.715062 133.155019 
L 389.800863 141.286223 
L 390.886665 145.895937 
L 391.972466 135.161649 
L 393.058267 120.258534 
L 394.144068 172.248402 
L 395.229869 155.897712 
L 396.31567 128.282027 
L 397.401472 136.985596 
L 398.487273 152.024567 
L 398.487273 152.024567 
" style="fill:none;stroke:#0000ff;stroke-linecap:square;stroke-width:1.5;"/>
   </g>
   <g id="line2d_32">
    <path clip-path="url(#p22ee62cf3d)" d="M 73.832727 295.488 
L 74.918528 253.355983 
L 76.00433 263.81768 
L 77.090131 277.727037 
L 78.175932 269.662843 
L 79.261733 280.258688 
L 80.347534 282.87756 
L 81.433335 270.5124 
L 82.519137 273.650614 
L 83.604938 274.139972 
L 84.690739 284.881881 
L 85.77654 275.580062 
L 86.862341 281.437608 
L 87.948142 267.485494 
L 89.033943 240.604735 
L 90.119745 242.869674 
L 91.205546 257.053429 
L 92.291347 255.56814 
L 93.377148 226.305638 
L 94.462949 241.612794 
L 95.54875 249.052693 
L 96.634552 246.057815 
L 97.720353 266.894987 
L 98.806154 240.827589 
L 99.891955 247.646588 
L 100.977756 234.857441 
L 102.063557 260.086358 
L 103.149358 246.474523 
L 104.23516 256.019381 
L 105.320961 243.297148 
L 106.406762 236.980468 
L 107.492563 247.10924 
L 108.578364 258.898011 
L 109.664165 246.065569 
L 110.749967 242.273415 
L 111.835768 246.42443 
L 112.921569 238.123532 
L 114.00737 259.303803 
L 115.093171 220.179952 
L 116.178972 230.591863 
L 117.264773 246.347248 
L 118.350575 228.738948 
L 119.436376 256.066945 
L 120.522177 228.575212 
L 121.607978 228.758063 
L 122.693779 233.31277 
L 123.77958 241.626179 
L 124.865382 228.295277 
L 125.951183 206.878375 
L 127.036984 232.307143 
L 128.122785 226.302883 
L 129.208586 231.187469 
L 130.294387 206.216024 
L 131.380189 215.362963 
L 132.46599 220.727916 
L 133.551791 215.782009 
L 134.637592 220.860598 
L 135.723393 231.072032 
L 136.809194 219.041197 
L 137.894995 229.438331 
L 138.980797 228.35539 
L 140.066598 221.899802 
L 141.152399 201.865844 
L 142.2382 216.293815 
L 143.324001 224.186709 
L 144.409802 217.847443 
L 145.495604 213.780567 
L 146.581405 211.314665 
L 147.667206 189.858501 
L 148.753007 234.545157 
L 149.838808 238.645314 
L 150.924609 207.656821 
L 152.01041 213.644824 
L 153.096212 207.585454 
L 154.182013 193.318325 
L 155.267814 208.130084 
L 156.353615 192.538958 
L 157.439416 198.25654 
L 158.525217 205.308516 
L 159.611019 200.470438 
L 160.69682 217.193576 
L 161.782621 222.83102 
L 162.868422 219.340586 
L 163.954223 225.826236 
L 165.040024 206.329796 
L 166.125825 202.79433 
L 167.211627 194.905813 
L 168.297428 230.721434 
L 169.383229 205.805087 
L 170.46903 217.409243 
L 171.554831 214.227671 
L 172.640632 191.662044 
L 173.726434 258.363936 
L 174.812235 230.327413 
L 175.898036 231.390042 
L 176.983837 195.055248 
L 178.069638 202.009355 
L 179.155439 194.978516 
L 180.24124 175.844847 
L 181.327042 182.147127 
L 182.412843 197.219725 
L 183.498644 202.692772 
L 184.584445 197.707294 
L 185.670246 178.984542 
L 186.756047 175.702486 
L 187.841849 186.497797 
L 188.92765 192.504303 
L 190.013451 189.000712 
L 191.099252 193.475465 
L 192.185053 202.60495 
L 193.270854 178.271003 
L 194.356656 187.154111 
L 195.442457 190.990456 
L 196.528258 182.848381 
L 197.614059 184.275622 
L 198.69986 181.015938 
L 199.785661 192.987368 
L 200.871462 179.968024 
L 201.957264 187.349378 
L 203.043065 186.503494 
L 204.128866 187.904321 
L 205.214667 201.472551 
L 206.300468 199.892028 
L 207.386269 194.490184 
L 208.472071 168.379476 
L 209.557872 197.889293 
L 210.643673 194.360933 
L 211.729474 214.627985 
L 212.815275 196.820761 
L 213.901076 191.347589 
L 214.986877 176.789981 
L 216.072679 195.309844 
L 217.15848 191.448316 
L 218.244281 195.214199 
L 219.330082 203.217419 
L 220.415883 177.47126 
L 222.587486 200.611556 
L 223.673287 175.951893 
L 224.759088 189.139597 
L 225.844889 167.017812 
L 226.93069 174.567736 
L 228.016491 196.206102 
L 229.102292 200.511003 
L 230.188094 214.303265 
L 231.273895 180.544617 
L 232.359696 195.45448 
L 233.445497 213.054695 
L 234.531298 197.09308 
L 235.617099 185.29403 
L 236.702901 201.987978 
L 237.788702 196.029392 
L 238.874503 216.576225 
L 239.960304 209.180324 
L 241.046105 180.721412 
L 242.131906 183.353578 
L 243.217708 188.618988 
L 244.303509 189.953563 
L 245.38931 179.022878 
L 246.475111 149.313925 
L 247.560912 176.996375 
L 248.646713 156.281599 
L 249.732514 186.69225 
L 250.818316 207.187347 
L 251.904117 203.380472 
L 252.989918 188.750586 
L 254.075719 189.109684 
L 255.16152 182.591287 
L 256.247321 210.088808 
L 257.333123 166.439489 
L 258.418924 168.812067 
L 259.504725 192.850597 
L 260.590526 182.730279 
L 261.676327 192.796384 
L 262.762128 180.268036 
L 263.847929 154.220142 
L 264.933731 188.85839 
L 266.019532 200.893488 
L 267.105333 180.167069 
L 268.191134 201.144924 
L 269.276935 186.315783 
L 270.362736 184.671126 
L 271.448538 196.718745 
L 272.534339 189.929781 
L 273.62014 176.048796 
L 274.705941 209.053779 
L 275.791742 184.599341 
L 276.877543 183.58502 
L 277.963344 187.598561 
L 279.049146 171.703424 
L 280.134947 161.140911 
L 281.220748 205.574992 
L 282.306549 188.677897 
L 283.39235 206.243335 
L 284.478151 191.960808 
L 285.563953 183.440039 
L 286.649754 182.129983 
L 287.735555 229.579645 
L 288.821356 182.860751 
L 289.907157 168.675432 
L 290.992958 187.691849 
L 292.07876 185.829328 
L 293.164561 206.192801 
L 294.250362 197.416853 
L 295.336163 198.608142 
L 296.421964 188.007597 
L 297.507765 202.973351 
L 298.593566 169.875118 
L 299.679368 195.93202 
L 300.765169 192.1946 
L 301.85097 220.395991 
L 302.936771 211.68428 
L 304.022572 223.718595 
L 305.108373 222.616867 
L 306.194175 203.685751 
L 307.279976 189.664406 
L 308.365777 194.117326 
L 309.451578 182.84006 
L 310.537379 217.458829 
L 311.62318 193.783199 
L 312.708981 197.923093 
L 313.794783 190.840377 
L 314.880584 210.46305 
L 315.966385 193.365762 
L 317.052186 205.191559 
L 318.137987 198.85457 
L 319.223788 207.578237 
L 320.30959 177.445436 
L 321.395391 173.797328 
L 322.481192 208.234424 
L 323.566993 203.142376 
L 324.652794 228.393674 
L 325.738595 186.307923 
L 326.824396 207.036112 
L 327.910198 211.70515 
L 328.995999 222.630717 
L 330.0818 228.855031 
L 331.167601 194.971382 
L 332.253402 224.813834 
L 333.339203 243.803535 
L 334.425005 235.803649 
L 335.510806 246.974597 
L 336.596607 211.151411 
L 337.682408 218.60022 
L 338.768209 214.861931 
L 339.85401 219.537194 
L 340.939811 210.249582 
L 342.025613 228.507552 
L 343.111414 205.377517 
L 344.197215 189.277857 
L 345.283016 186.942314 
L 346.368817 237.093898 
L 347.454618 205.377529 
L 348.54042 204.531296 
L 349.626221 211.303742 
L 350.712022 206.78349 
L 351.797823 216.886465 
L 352.883624 214.041864 
L 353.969425 173.750087 
L 355.055227 193.070995 
L 356.141028 200.132893 
L 357.226829 180.407079 
L 358.31263 186.054505 
L 359.398431 183.854795 
L 360.484232 164.381265 
L 361.570033 205.850396 
L 362.655835 179.99475 
L 363.741636 201.35618 
L 364.827437 173.816321 
L 365.913238 193.497337 
L 366.999039 193.108016 
L 368.08484 203.351096 
L 369.170642 182.096914 
L 370.256443 180.789743 
L 371.342244 193.006274 
L 372.428045 168.667227 
L 373.513846 193.446137 
L 374.599647 168.324635 
L 375.685448 162.214277 
L 376.77125 183.100347 
L 377.857051 213.226871 
L 378.942852 182.283151 
L 380.028653 175.467574 
L 381.114454 215.726406 
L 382.200255 191.64126 
L 383.286057 206.351703 
L 384.371858 207.54417 
L 385.457659 207.66269 
L 386.54346 208.816819 
L 387.629261 188.248591 
L 388.715062 177.773523 
L 389.800863 192.874309 
L 390.886665 197.031753 
L 391.972466 180.815278 
L 393.058267 174.657761 
L 394.144068 208.191731 
L 395.229869 196.987931 
L 396.31567 164.048768 
L 397.401472 190.051568 
L 398.487273 203.744558 
L 398.487273 203.744558 
" style="fill:none;stroke:#008000;stroke-dasharray:9.6,2.4,1.5,2.4;stroke-dashoffset:0;stroke-width:1.5;"/>
   </g>
   <g id="line2d_33">
    <path clip-path="url(#p22ee62cf3d)" d="M 73.832727 288.610243 
L 74.918528 247.762235 
L 76.00433 244.843616 
L 77.090131 258.602774 
L 78.175932 242.66634 
L 79.261733 222.284169 
L 80.347534 219.53673 
L 81.433335 215.366302 
L 82.519137 228.14548 
L 83.604938 236.644252 
L 84.690739 216.804902 
L 85.77654 225.654042 
L 86.862341 210.148733 
L 87.948142 214.658425 
L 89.033943 183.595733 
L 90.119745 177.587686 
L 91.205546 177.533881 
L 92.291347 182.656249 
L 93.377148 165.592432 
L 94.462949 159.648164 
L 95.54875 162.963346 
L 96.634552 184.112619 
L 97.720353 182.583244 
L 98.806154 194.564933 
L 99.891955 180.357341 
L 100.977756 170.744984 
L 102.063557 154.10774 
L 103.149358 162.443116 
L 104.23516 162.408521 
L 105.320961 167.655805 
L 106.406762 159.926034 
L 107.492563 167.373364 
L 109.664165 150.142903 
L 110.749967 144.204794 
L 111.835768 154.247313 
L 112.921569 151.169252 
L 114.00737 160.236767 
L 115.093171 145.304396 
L 116.178972 154.137135 
L 117.264773 164.390442 
L 118.350575 136.773871 
L 119.436376 149.410938 
L 120.522177 164.96035 
L 121.607978 160.855668 
L 122.693779 160.524741 
L 123.77958 158.12431 
L 124.865382 153.186413 
L 125.951183 131.429343 
L 127.036984 128.521052 
L 128.122785 151.061748 
L 129.208586 148.062084 
L 130.294387 142.593329 
L 131.380189 149.882216 
L 132.46599 155.475583 
L 133.551791 154.449865 
L 134.637592 138.955105 
L 135.723393 143.156931 
L 136.809194 143.082547 
L 137.894995 153.076466 
L 138.980797 114.125094 
L 140.066598 143.46477 
L 141.152399 112.858863 
L 142.2382 100.470634 
L 143.324001 124.675129 
L 144.409802 86.919974 
L 145.495604 99.993065 
L 146.581405 119.964095 
L 147.667206 79.384099 
L 148.753007 121.122688 
L 149.838808 113.643475 
L 150.924609 87.522608 
L 152.01041 92.253569 
L 153.096212 89.659448 
L 154.182013 63.796804 
L 155.267814 87.695812 
L 156.353615 88.905487 
L 157.439416 100.854559 
L 158.525217 87.478226 
L 159.611019 83.893596 
L 160.69682 92.765898 
L 161.782621 88.393526 
L 163.954223 119.556431 
L 165.040024 114.362448 
L 167.211627 91.243747 
L 168.297428 118.004287 
L 169.383229 98.120676 
L 170.46903 94.843896 
L 171.554831 103.932234 
L 172.640632 81.099293 
L 173.726434 110.992202 
L 174.812235 104.884428 
L 175.898036 103.230532 
L 176.983837 73.251086 
L 178.069638 106.043109 
L 179.155439 94.403173 
L 180.24124 76.186207 
L 181.327042 91.026289 
L 182.412843 99.050792 
L 183.498644 107.93271 
L 184.584445 114.535459 
L 185.670246 72.724745 
L 186.756047 71.342882 
L 187.841849 100.586299 
L 188.92765 79.970618 
L 190.013451 74.030553 
L 191.099252 91.788409 
L 192.185053 115.014531 
L 193.270854 99.572867 
L 194.356656 102.920774 
L 195.442457 102.938635 
L 196.528258 93.846236 
L 197.614059 101.944399 
L 198.69986 75.014834 
L 199.785661 84.369449 
L 200.871462 80.258287 
L 201.957264 108.265707 
L 203.043065 102.316278 
L 204.128866 100.425381 
L 205.214667 112.438603 
L 206.300468 105.517018 
L 207.386269 107.047195 
L 208.472071 70.809695 
L 209.557872 97.313488 
L 210.643673 117.556462 
L 211.729474 135.212969 
L 212.815275 97.906665 
L 213.901076 79.340733 
L 214.986877 91.843351 
L 216.072679 83.241975 
L 217.15848 98.286132 
L 218.244281 101.417264 
L 219.330082 99.780482 
L 220.415883 66.369273 
L 221.501684 75.562548 
L 222.587486 106.14377 
L 223.673287 100.062245 
L 224.759088 94.914188 
L 225.844889 91.632115 
L 226.93069 63.226297 
L 228.016491 84.13012 
L 229.102292 71.458014 
L 230.188094 92.997824 
L 231.273895 77.911424 
L 232.359696 84.709757 
L 233.445497 99.445125 
L 234.531298 104.387229 
L 235.617099 70.1927 
L 236.702901 103.263092 
L 237.788702 107.728432 
L 238.874503 124.407354 
L 239.960304 135.22136 
L 241.046105 87.665469 
L 242.131906 76.666754 
L 243.217708 75.950827 
L 244.303509 93.679799 
L 245.38931 83.154284 
L 246.475111 53.568 
L 247.560912 68.228431 
L 248.646713 80.771353 
L 249.732514 86.152196 
L 250.818316 90.381058 
L 251.904117 84.972413 
L 252.989918 90.084999 
L 254.075719 78.213422 
L 255.16152 78.321805 
L 256.247321 86.863214 
L 257.333123 79.388114 
L 258.418924 64.556551 
L 259.504725 97.403009 
L 260.590526 86.569348 
L 261.676327 68.872269 
L 262.762128 70.915339 
L 263.847929 55.254182 
L 264.933731 98.874429 
L 266.019532 93.661743 
L 267.105333 69.623794 
L 268.191134 102.632728 
L 269.276935 60.709031 
L 270.362736 100.519031 
L 271.448538 94.890142 
L 272.534339 92.94982 
L 273.62014 58.051744 
L 274.705941 107.807062 
L 275.791742 78.338269 
L 276.877543 77.046781 
L 277.963344 80.990434 
L 279.049146 78.751081 
L 280.134947 64.024571 
L 281.220748 68.975867 
L 282.306549 93.961321 
L 283.39235 85.03276 
L 284.478151 101.73942 
L 285.563953 83.17698 
L 286.649754 85.610977 
L 287.735555 135.537969 
L 288.821356 76.357186 
L 289.907157 79.301207 
L 290.992958 79.302206 
L 292.07876 100.933035 
L 293.164561 96.439225 
L 294.250362 100.231486 
L 295.336163 83.551432 
L 296.421964 77.692127 
L 297.507765 102.749667 
L 298.593566 83.302875 
L 299.679368 105.156153 
L 300.765169 111.923667 
L 301.85097 84.645182 
L 302.936771 106.859075 
L 304.022572 111.71896 
L 305.108373 107.688323 
L 306.194175 108.639585 
L 307.279976 88.388653 
L 308.365777 115.754561 
L 309.451578 93.790447 
L 310.537379 102.630059 
L 311.62318 78.965849 
L 312.708981 80.601472 
L 313.794783 89.787732 
L 314.880584 82.500611 
L 315.966385 111.58564 
L 317.052186 113.344631 
L 318.137987 101.185099 
L 319.223788 86.720914 
L 320.30959 69.603413 
L 321.395391 82.871282 
L 322.481192 100.163087 
L 323.566993 88.141368 
L 324.652794 88.141352 
L 325.738595 83.386038 
L 326.824396 103.482413 
L 327.910198 106.118079 
L 328.995999 106.292313 
L 330.0818 72.773055 
L 331.167601 102.957284 
L 332.253402 104.755023 
L 333.339203 119.34786 
L 334.425005 80.615821 
L 335.510806 144.12269 
L 336.596607 79.997747 
L 337.682408 126.730222 
L 338.768209 89.870962 
L 339.85401 112.50966 
L 340.939811 99.619028 
L 342.025613 120.711299 
L 343.111414 106.694408 
L 344.197215 101.649185 
L 345.283016 95.854924 
L 346.368817 123.703638 
L 347.454618 114.21277 
L 348.54042 108.902997 
L 349.626221 87.793777 
L 350.712022 111.648478 
L 351.797823 118.966785 
L 352.883624 124.58718 
L 353.969425 79.826783 
L 355.055227 95.676185 
L 356.141028 119.259116 
L 357.226829 98.966123 
L 358.31263 86.385139 
L 359.398431 86.255424 
L 360.484232 65.832238 
L 361.570033 104.401372 
L 362.655835 85.175462 
L 363.741636 98.82852 
L 364.827437 95.96204 
L 365.913238 97.899053 
L 366.999039 102.754326 
L 368.08484 94.812313 
L 369.170642 79.286225 
L 370.256443 100.893716 
L 371.342244 97.223771 
L 372.428045 59.864174 
L 373.513846 85.72491 
L 374.599647 77.764879 
L 375.685448 56.109608 
L 377.857051 114.401735 
L 378.942852 85.136053 
L 380.028653 79.934237 
L 381.114454 106.030465 
L 382.200255 100.070869 
L 383.286057 98.223973 
L 384.371858 121.672797 
L 385.457659 102.209828 
L 386.54346 125.82787 
L 387.629261 96.323592 
L 388.715062 88.536515 
L 389.800863 89.698137 
L 390.886665 94.760122 
L 391.972466 89.508021 
L 393.058267 65.859306 
L 394.144068 136.305073 
L 396.31567 92.515286 
L 397.401472 83.919624 
L 398.487273 100.304576 
L 398.487273 100.304576 
" style="fill:none;stroke:#008000;stroke-dasharray:9.6,2.4,1.5,2.4;stroke-dashoffset:0;stroke-width:1.5;"/>
   </g>
   <g id="line2d_34">
    <path clip-path="url(#p22ee62cf3d)" d="M 73.832727 284.08012 
L 74.918528 244.822138 
L 76.00433 243.523899 
L 77.090131 258.936663 
L 78.175932 241.670493 
L 79.261733 227.93246 
L 80.347534 223.526643 
L 81.433335 220.706052 
L 82.519137 225.500576 
L 83.604938 232.693393 
L 84.690739 211.166736 
L 85.77654 225.531025 
L 86.862341 214.339617 
L 87.948142 213.356225 
L 89.033943 179.69521 
L 90.119745 186.497198 
L 91.205546 191.032809 
L 92.291347 183.686947 
L 93.377148 167.734091 
L 94.462949 165.601669 
L 95.54875 169.872512 
L 96.634552 188.530259 
L 97.720353 179.089442 
L 98.806154 194.185441 
L 99.891955 184.636425 
L 102.063557 161.189948 
L 103.149358 170.43517 
L 104.23516 159.237964 
L 105.320961 168.237006 
L 106.406762 160.516239 
L 107.492563 171.439179 
L 108.578364 162.393211 
L 109.664165 165.473761 
L 110.749967 145.031864 
L 111.835768 148.281395 
L 112.921569 146.283622 
L 114.00737 164.494917 
L 115.093171 151.998266 
L 116.178972 160.35924 
L 117.264773 169.740731 
L 118.350575 141.942738 
L 119.436376 156.427745 
L 120.522177 168.160852 
L 121.607978 163.304063 
L 122.693779 165.384301 
L 123.77958 154.695253 
L 124.865382 149.627127 
L 125.951183 139.543601 
L 127.036984 140.081856 
L 128.122785 155.92028 
L 129.208586 151.742929 
L 130.294387 146.076262 
L 131.380189 150.462805 
L 132.46599 164.356586 
L 133.551791 149.999672 
L 134.637592 147.983507 
L 135.723393 143.040531 
L 136.809194 146.518956 
L 137.894995 156.969767 
L 138.980797 122.851487 
L 140.066598 133.05325 
L 141.152399 101.399829 
L 142.2382 93.059912 
L 143.324001 118.497771 
L 144.409802 92.756968 
L 145.495604 91.473863 
L 146.581405 107.757342 
L 147.667206 70.298865 
L 148.753007 94.341499 
L 149.838808 92.39355 
L 150.924609 66.781455 
L 152.01041 92.677835 
L 153.096212 93.372976 
L 154.182013 58.536059 
L 155.267814 80.176418 
L 156.353615 73.733003 
L 157.439416 99.102197 
L 158.525217 84.774784 
L 159.611019 85.881733 
L 160.69682 93.356493 
L 161.782621 84.189583 
L 162.868422 92.071973 
L 163.954223 96.295851 
L 165.040024 111.703754 
L 166.125825 105.234488 
L 167.211627 80.295448 
L 168.297428 104.119325 
L 169.383229 96.8512 
L 170.46903 75.282979 
L 171.554831 90.090129 
L 172.640632 78.159614 
L 173.726434 69.844108 
L 174.812235 71.624718 
L 175.898036 78.424682 
L 176.983837 63.679058 
L 178.069638 102.31434 
L 179.155439 86.071238 
L 180.24124 63.679713 
L 181.327042 84.958889 
L 182.412843 82.874984 
L 184.584445 100.626112 
L 185.670246 73.650825 
L 186.756047 65.802844 
L 187.841849 101.201984 
L 188.92765 82.208161 
L 190.013451 78.282099 
L 191.099252 100.187669 
L 192.185053 102.775741 
L 193.270854 94.458409 
L 194.356656 102.969404 
L 195.442457 85.997358 
L 196.528258 91.149717 
L 197.614059 102.492848 
L 198.69986 76.669348 
L 199.785661 78.121599 
L 200.871462 74.421421 
L 201.957264 91.117001 
L 203.043065 104.672719 
L 204.128866 98.665264 
L 205.214667 107.884786 
L 206.300468 101.31734 
L 207.386269 101.89404 
L 208.472071 71.414576 
L 209.557872 105.025259 
L 210.643673 120.27692 
L 211.729474 123.770077 
L 212.815275 79.401294 
L 213.901076 79.350944 
L 214.986877 97.433527 
L 216.072679 78.935502 
L 217.15848 88.5653 
L 218.244281 102.358777 
L 219.330082 99.521333 
L 220.415883 62.002874 
L 221.501684 66.492431 
L 222.587486 105.525661 
L 224.759088 81.375654 
L 225.844889 86.967964 
L 226.93069 57.895011 
L 228.016491 79.68865 
L 229.102292 58.940751 
L 230.188094 72.466548 
L 231.273895 74.968932 
L 232.359696 76.898828 
L 233.445497 87.738714 
L 234.531298 97.24152 
L 235.617099 74.5962 
L 236.702901 92.889031 
L 237.788702 95.115246 
L 238.874503 101.223336 
L 239.960304 122.491545 
L 241.046105 88.376947 
L 242.131906 67.303082 
L 243.217708 77.904653 
L 244.303509 78.546204 
L 245.38931 72.982876 
L 246.475111 58.621348 
L 247.560912 72.434934 
L 248.646713 81.959723 
L 249.732514 80.947505 
L 250.818316 80.478619 
L 251.904117 76.50999 
L 252.989918 91.607959 
L 254.075719 69.061453 
L 255.16152 73.797409 
L 256.247321 72.497501 
L 257.333123 86.419455 
L 258.418924 65.765271 
L 259.504725 98.448976 
L 261.676327 66.158649 
L 262.762128 63.605087 
L 263.847929 58.749565 
L 264.933731 97.855753 
L 267.105333 64.62102 
L 268.191134 90.343982 
L 269.276935 61.570444 
L 270.362736 83.736423 
L 271.448538 95.398514 
L 272.534339 87.102682 
L 273.62014 58.329986 
L 274.705941 83.160183 
L 276.877543 66.70416 
L 277.963344 85.722891 
L 279.049146 70.615803 
L 280.134947 62.251414 
L 282.306549 95.459335 
L 283.39235 88.710377 
L 284.478151 96.523251 
L 285.563953 87.483549 
L 286.649754 94.269956 
L 287.735555 128.140241 
L 288.821356 80.67685 
L 289.907157 84.990493 
L 290.992958 83.308619 
L 292.07876 102.628249 
L 293.164561 97.718648 
L 294.250362 102.297844 
L 295.336163 84.492937 
L 296.421964 77.730277 
L 297.507765 99.645383 
L 298.593566 86.463429 
L 299.679368 96.232865 
L 300.765169 108.790274 
L 301.85097 91.571062 
L 302.936771 112.99176 
L 304.022572 104.238989 
L 305.108373 100.532 
L 306.194175 114.810421 
L 307.279976 97.345927 
L 308.365777 116.883847 
L 309.451578 85.025289 
L 310.537379 99.467417 
L 311.62318 81.353912 
L 312.708981 84.405363 
L 313.794783 97.972641 
L 314.880584 86.247933 
L 315.966385 114.438608 
L 317.052186 106.151151 
L 318.137987 92.250464 
L 319.223788 94.497888 
L 320.30959 76.828521 
L 321.395391 79.329151 
L 322.481192 106.037052 
L 323.566993 93.503051 
L 324.652794 93.77291 
L 325.738595 79.46316 
L 326.824396 104.903775 
L 327.910198 121.494601 
L 328.995999 105.590611 
L 330.0818 69.948675 
L 331.167601 102.102693 
L 332.253402 103.592508 
L 333.339203 127.770052 
L 334.425005 98.001631 
L 335.510806 139.908771 
L 336.596607 97.737433 
L 337.682408 125.902589 
L 338.768209 97.983581 
L 339.85401 112.828528 
L 340.939811 98.687048 
L 342.025613 97.055777 
L 343.111414 98.56984 
L 344.197215 97.931688 
L 345.283016 85.922337 
L 346.368817 108.865479 
L 347.454618 104.719487 
L 348.54042 105.197702 
L 349.626221 82.504912 
L 350.712022 94.160488 
L 351.797823 98.953296 
L 352.883624 120.870841 
L 353.969425 71.196423 
L 356.141028 108.098887 
L 357.226829 94.597633 
L 358.31263 78.860324 
L 359.398431 78.464398 
L 360.484232 76.68655 
L 361.570033 100.056051 
L 362.655835 82.619729 
L 363.741636 97.183036 
L 364.827437 89.711091 
L 365.913238 94.644975 
L 366.999039 98.363853 
L 368.08484 83.97403 
L 369.170642 79.169578 
L 370.256443 93.597073 
L 371.342244 94.22456 
L 372.428045 61.065022 
L 373.513846 78.228096 
L 374.599647 85.662136 
L 375.685448 64.221397 
L 376.77125 76.483063 
L 377.857051 102.195685 
L 378.942852 89.120267 
L 380.028653 81.583422 
L 381.114454 88.40342 
L 382.200255 103.235186 
L 383.286057 85.275443 
L 384.371858 116.664799 
L 385.457659 89.595443 
L 386.54346 115.557236 
L 387.629261 89.62681 
L 388.715062 91.121111 
L 389.800863 87.522179 
L 390.886665 75.192684 
L 391.972466 85.795902 
L 393.058267 63.834154 
L 394.144068 132.740013 
L 395.229869 109.633623 
L 396.31567 97.975834 
L 397.401472 80.604374 
L 398.487273 95.817463 
L 398.487273 95.817463 
" style="fill:none;stroke:#ff0000;stroke-linecap:square;stroke-width:1.5;"/>
   </g>
   <g id="patch_3">
    <path d="M 57.6 307.584 
L 57.6 41.472 
" style="fill:none;stroke:#000000;stroke-linecap:square;stroke-linejoin:miter;stroke-width:0.8;"/>
   </g>
   <g id="patch_4">
    <path d="M 414.72 307.584 
L 414.72 41.472 
" style="fill:none;stroke:#000000;stroke-linecap:square;stroke-linejoin:miter;stroke-width:0.8;"/>
   </g>
   <g id="patch_5">
    <path d="M 57.6 307.584 
L 414.72 307.584 
" style="fill:none;stroke:#000000;stroke-linecap:square;stroke-linejoin:miter;stroke-width:0.8;"/>
   </g>
   <g id="patch_6">
    <path d="M 57.6 41.472 
L 414.72 41.472 
" style="fill:none;stroke:#000000;stroke-linecap:square;stroke-linejoin:miter;stroke-width:0.8;"/>
   </g>
   <g id="text_18">
    <!-- Population's average and best fitness -->
    <defs>
     <path d="M 19.671875 64.796875 
L 19.671875 37.40625 
L 32.078125 37.40625 
Q 38.96875 37.40625 42.71875 40.96875 
Q 46.484375 44.53125 46.484375 51.125 
Q 46.484375 57.671875 42.71875 61.234375 
Q 38.96875 64.796875 32.078125 64.796875 
z
M 9.8125 72.90625 
L 32.078125 72.90625 
Q 44.34375 72.90625 50.609375 67.359375 
Q 56.890625 61.8125 56.890625 51.125 
Q 56.890625 40.328125 50.609375 34.8125 
Q 44.34375 29.296875 32.078125 29.296875 
L 19.671875 29.296875 
L 19.671875 0 
L 9.8125 0 
z
" id="DejaVuSans-80"/>
     <path d="M 18.109375 8.203125 
L 18.109375 -20.796875 
L 9.078125 -20.796875 
L 9.078125 54.6875 
L 18.109375 54.6875 
L 18.109375 46.390625 
Q 20.953125 51.265625 25.265625 53.625 
Q 29.59375 56 35.59375 56 
Q 45.5625 56 51.78125 48.09375 
Q 58.015625 40.1875 58.015625 27.296875 
Q 58.015625 14.40625 51.78125 6.484375 
Q 45.5625 -1.421875 35.59375 -1.421875 
Q 29.59375 -1.421875 25.265625 0.953125 
Q 20.953125 3.328125 18.109375 8.203125 
z
M 48.6875 27.296875 
Q 48.6875 37.203125 44.609375 42.84375 
Q 40.53125 48.484375 33.40625 48.484375 
Q 26.265625 48.484375 22.1875 42.84375 
Q 18.109375 37.203125 18.109375 27.296875 
Q 18.109375 17.390625 22.1875 11.75 
Q 26.265625 6.109375 33.40625 6.109375 
Q 40.53125 6.109375 44.609375 11.75 
Q 48.6875 17.390625 48.6875 27.296875 
z
" id="DejaVuSans-112"/>
     <path d="M 8.5 21.578125 
L 8.5 54.6875 
L 17.484375 54.6875 
L 17.484375 21.921875 
Q 17.484375 14.15625 20.5 10.265625 
Q 23.53125 6.390625 29.59375 6.390625 
Q 36.859375 6.390625 41.078125 11.03125 
Q 45.3125 15.671875 45.3125 23.6875 
L 45.3125 54.6875 
L 54.296875 54.6875 
L 54.296875 0 
L 45.3125 0 
L 45.3125 8.40625 
Q 42.046875 3.421875 37.71875 1 
Q 33.40625 -1.421875 27.6875 -1.421875 
Q 18.265625 -1.421875 13.375 4.4375 
Q 8.5 10.296875 8.5 21.578125 
z
M 31.109375 56 
z
" id="DejaVuSans-117"/>
     <path d="M 9.421875 75.984375 
L 18.40625 75.984375 
L 18.40625 0 
L 9.421875 0 
z
" id="DejaVuSans-108"/>
     <path d="M 17.921875 72.90625 
L 17.921875 45.796875 
L 9.625 45.796875 
L 9.625 72.90625 
z
" id="DejaVuSans-39"/>
     <path id="DejaVuSans-32"/>
     <path d="M 2.984375 54.6875 
L 12.5 54.6875 
L 29.59375 8.796875 
L 46.6875 54.6875 
L 56.203125 54.6875 
L 35.6875 0 
L 23.484375 0 
z
" id="DejaVuSans-118"/>
     <path d="M 45.40625 27.984375 
Q 45.40625 37.75 41.375 43.109375 
Q 37.359375 48.484375 30.078125 48.484375 
Q 22.859375 48.484375 18.828125 43.109375 
Q 14.796875 37.75 14.796875 27.984375 
Q 14.796875 18.265625 18.828125 12.890625 
Q 22.859375 7.515625 30.078125 7.515625 
Q 37.359375 7.515625 41.375 12.890625 
Q 45.40625 18.265625 45.40625 27.984375 
z
M 54.390625 6.78125 
Q 54.390625 -7.171875 48.1875 -13.984375 
Q 42 -20.796875 29.203125 -20.796875 
Q 24.46875 -20.796875 20.265625 -20.09375 
Q 16.0625 -19.390625 12.109375 -17.921875 
L 12.109375 -9.1875 
Q 16.0625 -11.328125 19.921875 -12.34375 
Q 23.78125 -13.375 27.78125 -13.375 
Q 36.625 -13.375 41.015625 -8.765625 
Q 45.40625 -4.15625 45.40625 5.171875 
L 45.40625 9.625 
Q 42.625 4.78125 38.28125 2.390625 
Q 33.9375 0 27.875 0 
Q 17.828125 0 11.671875 7.65625 
Q 5.515625 15.328125 5.515625 27.984375 
Q 5.515625 40.671875 11.671875 48.328125 
Q 17.828125 56 27.875 56 
Q 33.9375 56 38.28125 53.609375 
Q 42.625 51.21875 45.40625 46.390625 
L 45.40625 54.6875 
L 54.390625 54.6875 
z
" id="DejaVuSans-103"/>
     <path d="M 45.40625 46.390625 
L 45.40625 75.984375 
L 54.390625 75.984375 
L 54.390625 0 
L 45.40625 0 
L 45.40625 8.203125 
Q 42.578125 3.328125 38.25 0.953125 
Q 33.9375 -1.421875 27.875 -1.421875 
Q 17.96875 -1.421875 11.734375 6.484375 
Q 5.515625 14.40625 5.515625 27.296875 
Q 5.515625 40.1875 11.734375 48.09375 
Q 17.96875 56 27.875 56 
Q 33.9375 56 38.25 53.625 
Q 42.578125 51.265625 45.40625 46.390625 
z
M 14.796875 27.296875 
Q 14.796875 17.390625 18.875 11.75 
Q 22.953125 6.109375 30.078125 6.109375 
Q 37.203125 6.109375 41.296875 11.75 
Q 45.40625 17.390625 45.40625 27.296875 
Q 45.40625 37.203125 41.296875 42.84375 
Q 37.203125 48.484375 30.078125 48.484375 
Q 22.953125 48.484375 18.875 42.84375 
Q 14.796875 37.203125 14.796875 27.296875 
z
" id="DejaVuSans-100"/>
     <path d="M 48.6875 27.296875 
Q 48.6875 37.203125 44.609375 42.84375 
Q 40.53125 48.484375 33.40625 48.484375 
Q 26.265625 48.484375 22.1875 42.84375 
Q 18.109375 37.203125 18.109375 27.296875 
Q 18.109375 17.390625 22.1875 11.75 
Q 26.265625 6.109375 33.40625 6.109375 
Q 40.53125 6.109375 44.609375 11.75 
Q 48.6875 17.390625 48.6875 27.296875 
z
M 18.109375 46.390625 
Q 20.953125 51.265625 25.265625 53.625 
Q 29.59375 56 35.59375 56 
Q 45.5625 56 51.78125 48.09375 
Q 58.015625 40.1875 58.015625 27.296875 
Q 58.015625 14.40625 51.78125 6.484375 
Q 45.5625 -1.421875 35.59375 -1.421875 
Q 29.59375 -1.421875 25.265625 0.953125 
Q 20.953125 3.328125 18.109375 8.203125 
L 18.109375 0 
L 9.078125 0 
L 9.078125 75.984375 
L 18.109375 75.984375 
z
" id="DejaVuSans-98"/>
     <path d="M 37.109375 75.984375 
L 37.109375 68.5 
L 28.515625 68.5 
Q 23.6875 68.5 21.796875 66.546875 
Q 19.921875 64.59375 19.921875 59.515625 
L 19.921875 54.6875 
L 34.71875 54.6875 
L 34.71875 47.703125 
L 19.921875 47.703125 
L 19.921875 0 
L 10.890625 0 
L 10.890625 47.703125 
L 2.296875 47.703125 
L 2.296875 54.6875 
L 10.890625 54.6875 
L 10.890625 58.5 
Q 10.890625 67.625 15.140625 71.796875 
Q 19.390625 75.984375 28.609375 75.984375 
z
" id="DejaVuSans-102"/>
    </defs>
    <g transform="translate(123.315 35.472)scale(0.12 -0.12)">
     <use xlink:href="#DejaVuSans-80"/>
     <use x="60.255859" xlink:href="#DejaVuSans-111"/>
     <use x="121.4375" xlink:href="#DejaVuSans-112"/>
     <use x="184.914062" xlink:href="#DejaVuSans-117"/>
     <use x="248.292969" xlink:href="#DejaVuSans-108"/>
     <use x="276.076172" xlink:href="#DejaVuSans-97"/>
     <use x="337.355469" xlink:href="#DejaVuSans-116"/>
     <use x="376.564453" xlink:href="#DejaVuSans-105"/>
     <use x="404.347656" xlink:href="#DejaVuSans-111"/>
     <use x="465.529297" xlink:href="#DejaVuSans-110"/>
     <use x="528.908203" xlink:href="#DejaVuSans-39"/>
     <use x="556.398438" xlink:href="#DejaVuSans-115"/>
     <use x="608.498047" xlink:href="#DejaVuSans-32"/>
     <use x="640.285156" xlink:href="#DejaVuSans-97"/>
     <use x="701.564453" xlink:href="#DejaVuSans-118"/>
     <use x="760.744141" xlink:href="#DejaVuSans-101"/>
     <use x="822.267578" xlink:href="#DejaVuSans-114"/>
     <use x="863.380859" xlink:href="#DejaVuSans-97"/>
     <use x="924.660156" xlink:href="#DejaVuSans-103"/>
     <use x="988.136719" xlink:href="#DejaVuSans-101"/>
     <use x="1049.660156" xlink:href="#DejaVuSans-32"/>
     <use x="1081.447266" xlink:href="#DejaVuSans-97"/>
     <use x="1142.726562" xlink:href="#DejaVuSans-110"/>
     <use x="1206.105469" xlink:href="#DejaVuSans-100"/>
     <use x="1269.582031" xlink:href="#DejaVuSans-32"/>
     <use x="1301.369141" xlink:href="#DejaVuSans-98"/>
     <use x="1364.845703" xlink:href="#DejaVuSans-101"/>
     <use x="1426.369141" xlink:href="#DejaVuSans-115"/>
     <use x="1478.46875" xlink:href="#DejaVuSans-116"/>
     <use x="1517.677734" xlink:href="#DejaVuSans-32"/>
     <use x="1549.464844" xlink:href="#DejaVuSans-102"/>
     <use x="1584.669922" xlink:href="#DejaVuSans-105"/>
     <use x="1612.453125" xlink:href="#DejaVuSans-116"/>
     <use x="1651.662109" xlink:href="#DejaVuSans-110"/>
     <use x="1715.041016" xlink:href="#DejaVuSans-101"/>
     <use x="1776.564453" xlink:href="#DejaVuSans-115"/>
     <use x="1828.664062" xlink:href="#DejaVuSans-115"/>
    </g>
   </g>
   <g id="legend_1">
    <g id="patch_7">
     <path d="M 64.6 108.1845 
L 137.540625 108.1845 
Q 139.540625 108.1845 139.540625 106.1845 
L 139.540625 48.472 
Q 139.540625 46.472 137.540625 46.472 
L 64.6 46.472 
Q 62.6 46.472 62.6 48.472 
L 62.6 106.1845 
Q 62.6 108.1845 64.6 108.1845 
z
" style="fill:#ffffff;opacity:0.8;stroke:#cccccc;stroke-linejoin:miter;"/>
    </g>
    <g id="line2d_35">
     <path d="M 66.6 54.570438 
L 86.6 54.570438 
" style="fill:none;stroke:#0000ff;stroke-linecap:square;stroke-width:1.5;"/>
    </g>
    <g id="line2d_36"/>
    <g id="text_19">
     <!-- average -->
     <g transform="translate(94.6 58.070438)scale(0.1 -0.1)">
      <use xlink:href="#DejaVuSans-97"/>
      <use x="61.279297" xlink:href="#DejaVuSans-118"/>
      <use x="120.458984" xlink:href="#DejaVuSans-101"/>
      <use x="181.982422" xlink:href="#DejaVuSans-114"/>
      <use x="223.095703" xlink:href="#DejaVuSans-97"/>
      <use x="284.375" xlink:href="#DejaVuSans-103"/>
      <use x="347.851562" xlink:href="#DejaVuSans-101"/>
     </g>
    </g>
    <g id="line2d_37">
     <path d="M 66.6 69.248563 
L 86.6 69.248563 
" style="fill:none;stroke:#008000;stroke-dasharray:9.6,2.4,1.5,2.4;stroke-dashoffset:0;stroke-width:1.5;"/>
    </g>
    <g id="line2d_38"/>
    <g id="text_20">
     <!-- -1 sd -->
     <defs>
      <path d="M 4.890625 31.390625 
L 31.203125 31.390625 
L 31.203125 23.390625 
L 4.890625 23.390625 
z
" id="DejaVuSans-45"/>
     </defs>
     <g transform="translate(94.6 72.748563)scale(0.1 -0.1)">
      <use xlink:href="#DejaVuSans-45"/>
      <use x="36.083984" xlink:href="#DejaVuSans-49"/>
      <use x="99.707031" xlink:href="#DejaVuSans-32"/>
      <use x="131.494141" xlink:href="#DejaVuSans-115"/>
      <use x="183.59375" xlink:href="#DejaVuSans-100"/>
     </g>
    </g>
    <g id="line2d_39">
     <path d="M 66.6 83.926688 
L 86.6 83.926688 
" style="fill:none;stroke:#008000;stroke-dasharray:9.6,2.4,1.5,2.4;stroke-dashoffset:0;stroke-width:1.5;"/>
    </g>
    <g id="line2d_40"/>
    <g id="text_21">
     <!-- +1 sd -->
     <defs>
      <path d="M 46 62.703125 
L 46 35.5 
L 73.1875 35.5 
L 73.1875 27.203125 
L 46 27.203125 
L 46 0 
L 37.796875 0 
L 37.796875 27.203125 
L 10.59375 27.203125 
L 10.59375 35.5 
L 37.796875 35.5 
L 37.796875 62.703125 
z
" id="DejaVuSans-43"/>
     </defs>
     <g transform="translate(94.6 87.426688)scale(0.1 -0.1)">
      <use xlink:href="#DejaVuSans-43"/>
      <use x="83.789062" xlink:href="#DejaVuSans-49"/>
      <use x="147.412109" xlink:href="#DejaVuSans-32"/>
      <use x="179.199219" xlink:href="#DejaVuSans-115"/>
      <use x="231.298828" xlink:href="#DejaVuSans-100"/>
     </g>
    </g>
    <g id="line2d_41">
     <path d="M 66.6 98.604813 
L 86.6 98.604813 
" style="fill:none;stroke:#ff0000;stroke-linecap:square;stroke-width:1.5;"/>
    </g>
    <g id="line2d_42"/>
    <g id="text_22">
     <!-- best -->
     <g transform="translate(94.6 102.104813)scale(0.1 -0.1)">
      <use xlink:href="#DejaVuSans-98"/>
      <use x="63.476562" xlink:href="#DejaVuSans-101"/>
      <use x="125" xlink:href="#DejaVuSans-115"/>
      <use x="177.099609" xlink:href="#DejaVuSans-116"/>
     </g>
    </g>
   </g>
  </g>
 </g>
 <defs>
  <clipPath id="p22ee62cf3d">
   <rect height="266.112" width="357.12" x="57.6" y="41.472"/>
  </clipPath>
 </defs>
</svg>
