<?xml version="1.0" encoding="UTF-8" standalone="no"?>
<!DOCTYPE svg PUBLIC "-//W3C//DTD SVG 1.1//EN"
 "http://www.w3.org/Graphics/SVG/1.1/DTD/svg11.dtd">
<!-- Generated by graphviz version 2.40.1 (20161225.0304)
 -->
<!-- Title: %3 Pages: 1 -->
<svg width="386pt" height="91pt"
 viewBox="0.00 0.00 386.00 90.71" xmlns="http://www.w3.org/2000/svg" xmlns:xlink="http://www.w3.org/1999/xlink">
<g id="graph0" class="graph" transform="scale(1 1) rotate(0) translate(4 86.7061)">
<title>%3</title>
<polygon fill="#ffffff" stroke="transparent" points="-4,4 -4,-86.7061 381.9976,-86.7061 381.9976,4 -4,4"/>
<!-- E0 -->
<g id="node1" class="node">
<title>E0</title>
<polygon fill="#d3d3d3" stroke="#000000" points="25.9963,-82.7061 .0012,-82.7061 .0012,-65.7061 25.9963,-65.7061 25.9963,-82.7061"/>
<text text-anchor="middle" x="12.9988" y="-71.5061" font-family="Times,serif" font-size="9.00" fill="#000000">E0</text>
</g>
<!-- E1 -->
<g id="node2" class="node">
<title>E1</title>
<polygon fill="#d3d3d3" stroke="#000000" points="69.9963,-82.7061 44.0012,-82.7061 44.0012,-65.7061 69.9963,-65.7061 69.9963,-82.7061"/>
<text text-anchor="middle" x="56.9988" y="-71.5061" font-family="Times,serif" font-size="9.00" fill="#000000">E1</text>
</g>
<!-- E0&#45;&gt;E1 -->
<!-- E2 -->
<g id="node3" class="node">
<title>E2</title>
<polygon fill="#d3d3d3" stroke="#000000" points="113.9963,-82.7061 88.0012,-82.7061 88.0012,-65.7061 113.9963,-65.7061 113.9963,-82.7061"/>
<text text-anchor="middle" x="100.9988" y="-71.5061" font-family="Times,serif" font-size="9.00" fill="#000000">E2</text>
</g>
<!-- E1&#45;&gt;E2 -->
<!-- 1 -->
<g id="node11" class="node">
<title>1</title>
<ellipse fill="#87cefa" stroke="#000000" cx="229.9988" cy="-14.853" rx="14.4914" ry="14.4914"/>
<text text-anchor="middle" x="229.9988" y="-12.153" font-family="Times,serif" font-size="9.00" fill="#000000">1</text>
</g>
<!-- E1&#45;&gt;1 -->
<g id="edge12" class="edge">
<title>E1&#45;&gt;1</title>
<path fill="none" stroke="#ff0000" stroke-width="3.8568" d="M70.4234,-68.7929C73.239,-67.7214 76.2026,-66.6403 78.9988,-65.7061 134.6433,-47.1142 152.3152,-53.3714 205.9988,-29.7061 206.8619,-29.3256 207.7309,-28.9183 208.6001,-28.4905"/>
<polygon fill="#ff0000" stroke="#ff0000" stroke-width="3.8568" points="210.6529,-31.3517 217.6547,-23.4002 207.2225,-25.2498 210.6529,-31.3517"/>
</g>
<!-- E3 -->
<g id="node4" class="node">
<title>E3</title>
<polygon fill="#d3d3d3" stroke="#000000" points="157.9963,-82.7061 132.0012,-82.7061 132.0012,-65.7061 157.9963,-65.7061 157.9963,-82.7061"/>
<text text-anchor="middle" x="144.9988" y="-71.5061" font-family="Times,serif" font-size="9.00" fill="#000000">E3</text>
</g>
<!-- E2&#45;&gt;E3 -->
<!-- E4 -->
<g id="node5" class="node">
<title>E4</title>
<polygon fill="#d3d3d3" stroke="#000000" points="201.9963,-82.7061 176.0012,-82.7061 176.0012,-65.7061 201.9963,-65.7061 201.9963,-82.7061"/>
<text text-anchor="middle" x="188.9988" y="-71.5061" font-family="Times,serif" font-size="9.00" fill="#000000">E4</text>
</g>
<!-- E3&#45;&gt;E4 -->
<!-- 2 -->
<g id="node12" class="node">
<title>2</title>
<ellipse fill="#87cefa" stroke="#000000" cx="276.9988" cy="-14.853" rx="14.4914" ry="14.4914"/>
<text text-anchor="middle" x="276.9988" y="-12.153" font-family="Times,serif" font-size="9.00" fill="#000000">2</text>
</g>
<!-- E3&#45;&gt;2 -->
<g id="edge14" class="edge">
<title>E3&#45;&gt;2</title>
<path fill="none" stroke="#00ff00" stroke-width=".8754" d="M158.2357,-69.0657C183.0378,-59.3824 235.5736,-38.6126 252.9988,-29.7061 253.8387,-29.2768 254.688,-28.8281 255.5405,-28.3653"/>
<polygon fill="#00ff00" stroke="#00ff00" stroke-width=".8754" points="257.6546,-31.1834 264.5176,-23.1119 254.119,-25.1419 257.6546,-31.1834"/>
</g>
<!-- E5 -->
<g id="node6" class="node">
<title>E5</title>
<polygon fill="#d3d3d3" stroke="#000000" points="245.9963,-82.7061 220.0012,-82.7061 220.0012,-65.7061 245.9963,-65.7061 245.9963,-82.7061"/>
<text text-anchor="middle" x="232.9988" y="-71.5061" font-family="Times,serif" font-size="9.00" fill="#000000">E5</text>
</g>
<!-- E4&#45;&gt;E5 -->
<!-- 0 -->
<g id="node10" class="node">
<title>0</title>
<ellipse fill="#87cefa" stroke="#000000" cx="182.9988" cy="-14.853" rx="14.4914" ry="14.4914"/>
<text text-anchor="middle" x="182.9988" y="-12.153" font-family="Times,serif" font-size="9.00" fill="#000000">0</text>
</g>
<!-- E4&#45;&gt;0 -->
<g id="edge17" class="edge">
<title>E4&#45;&gt;0</title>
<path fill="none" stroke="#ff0000" stroke-width=".1302" d="M188.1391,-65.7022C187.4423,-58.8086 186.4239,-48.7346 185.477,-39.3682"/>
<polygon fill="#ff0000" stroke="#ff0000" stroke-width=".1302" points="188.9475,-38.8985 184.4594,-29.3013 181.983,-39.6026 188.9475,-38.8985"/>
</g>
<!-- S -->
<g id="node13" class="node">
<title>S</title>
<ellipse fill="#87cefa" stroke="#000000" cx="323.9988" cy="-14.853" rx="14.7075" ry="14.7075"/>
<text text-anchor="middle" x="323.9988" y="-12.153" font-family="Times,serif" font-size="9.00" fill="#000000">S</text>
</g>
<!-- E4&#45;&gt;S -->
<g id="edge15" class="edge">
<title>E4&#45;&gt;S</title>
<path fill="none" stroke="#ff0000" stroke-width="1.1587" d="M202.0975,-69.102C229.4413,-58.4258 290.8255,-34.3396 299.9988,-29.7061 300.8407,-29.2808 301.6918,-28.8355 302.5457,-28.3756"/>
<polygon fill="#ff0000" stroke="#ff0000" stroke-width="1.1587" points="304.655,-31.1972 311.5296,-23.1356 301.1282,-25.1506 304.655,-31.1972"/>
</g>
<!-- E6 -->
<g id="node7" class="node">
<title>E6</title>
<polygon fill="#d3d3d3" stroke="#000000" points="289.9963,-82.7061 264.0012,-82.7061 264.0012,-65.7061 289.9963,-65.7061 289.9963,-82.7061"/>
<text text-anchor="middle" x="276.9988" y="-71.5061" font-family="Times,serif" font-size="9.00" fill="#000000">E6</text>
</g>
<!-- E5&#45;&gt;E6 -->
<!-- E5&#45;&gt;0 -->
<g id="edge13" class="edge">
<title>E5&#45;&gt;0</title>
<path fill="none" stroke="#ff0000" stroke-width="2.3982" d="M225.835,-65.7022C218.8632,-57.4263 208.0299,-44.5665 199.0025,-33.8504"/>
<polygon fill="#ff0000" stroke="#ff0000" stroke-width="2.3982" points="201.6646,-31.578 192.5451,-26.185 196.3111,-36.088 201.6646,-31.578"/>
</g>
<!-- E7 -->
<g id="node8" class="node">
<title>E7</title>
<polygon fill="#d3d3d3" stroke="#000000" points="333.9963,-82.7061 308.0012,-82.7061 308.0012,-65.7061 333.9963,-65.7061 333.9963,-82.7061"/>
<text text-anchor="middle" x="320.9988" y="-71.5061" font-family="Times,serif" font-size="9.00" fill="#000000">E7</text>
</g>
<!-- E6&#45;&gt;E7 -->
<!-- E6&#45;&gt;2 -->
<g id="edge18" class="edge">
<title>E6&#45;&gt;2</title>
<path fill="none" stroke="#00ff00" stroke-width=".2308" d="M276.9988,-65.7022C276.9988,-58.9749 276.9988,-49.2187 276.9988,-40.0472"/>
<polygon fill="#00ff00" stroke="#00ff00" stroke-width=".2308" points="280.4989,-39.7656 276.9988,-29.7657 273.4989,-39.7657 280.4989,-39.7656"/>
</g>
<!-- E8 -->
<g id="node9" class="node">
<title>E8</title>
<polygon fill="#d3d3d3" stroke="#000000" points="377.9963,-82.7061 352.0012,-82.7061 352.0012,-65.7061 377.9963,-65.7061 377.9963,-82.7061"/>
<text text-anchor="middle" x="364.9988" y="-71.5061" font-family="Times,serif" font-size="9.00" fill="#000000">E8</text>
</g>
<!-- E7&#45;&gt;E8 -->
<!-- E7&#45;&gt;0 -->
<g id="edge16" class="edge">
<title>E7&#45;&gt;0</title>
<path fill="none" stroke="#ff0000" stroke-width=".1698" d="M307.8045,-69.0917C278.3024,-57.6514 209.3866,-30.8986 206.9988,-29.7061 206.1549,-29.2846 205.3022,-28.8426 204.4469,-28.3854"/>
<polygon fill="#ff0000" stroke="#ff0000" stroke-width=".1698" points="205.8608,-25.1589 195.4565,-23.1583 202.3423,-31.2104 205.8608,-25.1589"/>
</g>
<!-- 0&#45;&gt;1 -->
<!-- 1&#45;&gt;2 -->
<!-- 2&#45;&gt;S -->
</g>
</svg>
