<?xml version="1.0" encoding="utf-8" standalone="no"?>
<!DOCTYPE svg PUBLIC "-//W3C//DTD SVG 1.1//EN"
  "http://www.w3.org/Graphics/SVG/1.1/DTD/svg11.dtd">
<!-- Created with matplotlib (https://matplotlib.org/) -->
<svg height="345.6pt" version="1.1" viewBox="0 0 460.8 345.6" width="460.8pt" xmlns="http://www.w3.org/2000/svg" xmlns:xlink="http://www.w3.org/1999/xlink">
 <defs>
  <style type="text/css">
*{stroke-linecap:butt;stroke-linejoin:round;}
  </style>
 </defs>
 <g id="figure_1">
  <g id="patch_1">
   <path d="M 0 345.6 
L 460.8 345.6 
L 460.8 0 
L 0 0 
z
" style="fill:#ffffff;"/>
  </g>
  <g id="axes_1">
   <g id="patch_2">
    <path d="M 57.6 307.584 
L 414.72 307.584 
L 414.72 41.472 
L 57.6 41.472 
z
" style="fill:#ffffff;"/>
   </g>
   <g id="matplotlib.axis_1">
    <g id="xtick_1">
     <g id="line2d_1">
      <path clip-path="url(#p3e23ae9d7e)" d="M 73.832727 307.584 
L 73.832727 41.472 
" style="fill:none;stroke:#b0b0b0;stroke-linecap:square;stroke-width:0.8;"/>
     </g>
     <g id="line2d_2">
      <defs>
       <path d="M 0 0 
L 0 3.5 
" id="ma7877e626e" style="stroke:#000000;stroke-width:0.8;"/>
      </defs>
      <g>
       <use style="stroke:#000000;stroke-width:0.8;" x="73.832727" xlink:href="#ma7877e626e" y="307.584"/>
      </g>
     </g>
     <g id="text_1">
      <!-- 0 -->
      <defs>
       <path d="M 31.78125 66.40625 
Q 24.171875 66.40625 20.328125 58.90625 
Q 16.5 51.421875 16.5 36.375 
Q 16.5 21.390625 20.328125 13.890625 
Q 24.171875 6.390625 31.78125 6.390625 
Q 39.453125 6.390625 43.28125 13.890625 
Q 47.125 21.390625 47.125 36.375 
Q 47.125 51.421875 43.28125 58.90625 
Q 39.453125 66.40625 31.78125 66.40625 
z
M 31.78125 74.21875 
Q 44.046875 74.21875 50.515625 64.515625 
Q 56.984375 54.828125 56.984375 36.375 
Q 56.984375 17.96875 50.515625 8.265625 
Q 44.046875 -1.421875 31.78125 -1.421875 
Q 19.53125 -1.421875 13.0625 8.265625 
Q 6.59375 17.96875 6.59375 36.375 
Q 6.59375 54.828125 13.0625 64.515625 
Q 19.53125 74.21875 31.78125 74.21875 
z
" id="DejaVuSans-48"/>
      </defs>
      <g transform="translate(70.651477 322.182437)scale(0.1 -0.1)">
       <use xlink:href="#DejaVuSans-48"/>
      </g>
     </g>
    </g>
    <g id="xtick_2">
     <g id="line2d_3">
      <path clip-path="url(#p3e23ae9d7e)" d="M 128.122785 307.584 
L 128.122785 41.472 
" style="fill:none;stroke:#b0b0b0;stroke-linecap:square;stroke-width:0.8;"/>
     </g>
     <g id="line2d_4">
      <g>
       <use style="stroke:#000000;stroke-width:0.8;" x="128.122785" xlink:href="#ma7877e626e" y="307.584"/>
      </g>
     </g>
     <g id="text_2">
      <!-- 50 -->
      <defs>
       <path d="M 10.796875 72.90625 
L 49.515625 72.90625 
L 49.515625 64.59375 
L 19.828125 64.59375 
L 19.828125 46.734375 
Q 21.96875 47.46875 24.109375 47.828125 
Q 26.265625 48.1875 28.421875 48.1875 
Q 40.625 48.1875 47.75 41.5 
Q 54.890625 34.8125 54.890625 23.390625 
Q 54.890625 11.625 47.5625 5.09375 
Q 40.234375 -1.421875 26.90625 -1.421875 
Q 22.3125 -1.421875 17.546875 -0.640625 
Q 12.796875 0.140625 7.71875 1.703125 
L 7.71875 11.625 
Q 12.109375 9.234375 16.796875 8.0625 
Q 21.484375 6.890625 26.703125 6.890625 
Q 35.15625 6.890625 40.078125 11.328125 
Q 45.015625 15.765625 45.015625 23.390625 
Q 45.015625 31 40.078125 35.4375 
Q 35.15625 39.890625 26.703125 39.890625 
Q 22.75 39.890625 18.8125 39.015625 
Q 14.890625 38.140625 10.796875 36.28125 
z
" id="DejaVuSans-53"/>
      </defs>
      <g transform="translate(121.760285 322.182437)scale(0.1 -0.1)">
       <use xlink:href="#DejaVuSans-53"/>
       <use x="63.623047" xlink:href="#DejaVuSans-48"/>
      </g>
     </g>
    </g>
    <g id="xtick_3">
     <g id="line2d_5">
      <path clip-path="url(#p3e23ae9d7e)" d="M 182.412843 307.584 
L 182.412843 41.472 
" style="fill:none;stroke:#b0b0b0;stroke-linecap:square;stroke-width:0.8;"/>
     </g>
     <g id="line2d_6">
      <g>
       <use style="stroke:#000000;stroke-width:0.8;" x="182.412843" xlink:href="#ma7877e626e" y="307.584"/>
      </g>
     </g>
     <g id="text_3">
      <!-- 100 -->
      <defs>
       <path d="M 12.40625 8.296875 
L 28.515625 8.296875 
L 28.515625 63.921875 
L 10.984375 60.40625 
L 10.984375 69.390625 
L 28.421875 72.90625 
L 38.28125 72.90625 
L 38.28125 8.296875 
L 54.390625 8.296875 
L 54.390625 0 
L 12.40625 0 
z
" id="DejaVuSans-49"/>
      </defs>
      <g transform="translate(172.869093 322.182437)scale(0.1 -0.1)">
       <use xlink:href="#DejaVuSans-49"/>
       <use x="63.623047" xlink:href="#DejaVuSans-48"/>
       <use x="127.246094" xlink:href="#DejaVuSans-48"/>
      </g>
     </g>
    </g>
    <g id="xtick_4">
     <g id="line2d_7">
      <path clip-path="url(#p3e23ae9d7e)" d="M 236.702901 307.584 
L 236.702901 41.472 
" style="fill:none;stroke:#b0b0b0;stroke-linecap:square;stroke-width:0.8;"/>
     </g>
     <g id="line2d_8">
      <g>
       <use style="stroke:#000000;stroke-width:0.8;" x="236.702901" xlink:href="#ma7877e626e" y="307.584"/>
      </g>
     </g>
     <g id="text_4">
      <!-- 150 -->
      <g transform="translate(227.159151 322.182437)scale(0.1 -0.1)">
       <use xlink:href="#DejaVuSans-49"/>
       <use x="63.623047" xlink:href="#DejaVuSans-53"/>
       <use x="127.246094" xlink:href="#DejaVuSans-48"/>
      </g>
     </g>
    </g>
    <g id="xtick_5">
     <g id="line2d_9">
      <path clip-path="url(#p3e23ae9d7e)" d="M 290.992958 307.584 
L 290.992958 41.472 
" style="fill:none;stroke:#b0b0b0;stroke-linecap:square;stroke-width:0.8;"/>
     </g>
     <g id="line2d_10">
      <g>
       <use style="stroke:#000000;stroke-width:0.8;" x="290.992958" xlink:href="#ma7877e626e" y="307.584"/>
      </g>
     </g>
     <g id="text_5">
      <!-- 200 -->
      <defs>
       <path d="M 19.1875 8.296875 
L 53.609375 8.296875 
L 53.609375 0 
L 7.328125 0 
L 7.328125 8.296875 
Q 12.9375 14.109375 22.625 23.890625 
Q 32.328125 33.6875 34.8125 36.53125 
Q 39.546875 41.84375 41.421875 45.53125 
Q 43.3125 49.21875 43.3125 52.78125 
Q 43.3125 58.59375 39.234375 62.25 
Q 35.15625 65.921875 28.609375 65.921875 
Q 23.96875 65.921875 18.8125 64.3125 
Q 13.671875 62.703125 7.8125 59.421875 
L 7.8125 69.390625 
Q 13.765625 71.78125 18.9375 73 
Q 24.125 74.21875 28.421875 74.21875 
Q 39.75 74.21875 46.484375 68.546875 
Q 53.21875 62.890625 53.21875 53.421875 
Q 53.21875 48.921875 51.53125 44.890625 
Q 49.859375 40.875 45.40625 35.40625 
Q 44.1875 33.984375 37.640625 27.21875 
Q 31.109375 20.453125 19.1875 8.296875 
z
" id="DejaVuSans-50"/>
      </defs>
      <g transform="translate(281.449208 322.182437)scale(0.1 -0.1)">
       <use xlink:href="#DejaVuSans-50"/>
       <use x="63.623047" xlink:href="#DejaVuSans-48"/>
       <use x="127.246094" xlink:href="#DejaVuSans-48"/>
      </g>
     </g>
    </g>
    <g id="xtick_6">
     <g id="line2d_11">
      <path clip-path="url(#p3e23ae9d7e)" d="M 345.283016 307.584 
L 345.283016 41.472 
" style="fill:none;stroke:#b0b0b0;stroke-linecap:square;stroke-width:0.8;"/>
     </g>
     <g id="line2d_12">
      <g>
       <use style="stroke:#000000;stroke-width:0.8;" x="345.283016" xlink:href="#ma7877e626e" y="307.584"/>
      </g>
     </g>
     <g id="text_6">
      <!-- 250 -->
      <g transform="translate(335.739266 322.182437)scale(0.1 -0.1)">
       <use xlink:href="#DejaVuSans-50"/>
       <use x="63.623047" xlink:href="#DejaVuSans-53"/>
       <use x="127.246094" xlink:href="#DejaVuSans-48"/>
      </g>
     </g>
    </g>
    <g id="xtick_7">
     <g id="line2d_13">
      <path clip-path="url(#p3e23ae9d7e)" d="M 399.573074 307.584 
L 399.573074 41.472 
" style="fill:none;stroke:#b0b0b0;stroke-linecap:square;stroke-width:0.8;"/>
     </g>
     <g id="line2d_14">
      <g>
       <use style="stroke:#000000;stroke-width:0.8;" x="399.573074" xlink:href="#ma7877e626e" y="307.584"/>
      </g>
     </g>
     <g id="text_7">
      <!-- 300 -->
      <defs>
       <path d="M 40.578125 39.3125 
Q 47.65625 37.796875 51.625 33 
Q 55.609375 28.21875 55.609375 21.1875 
Q 55.609375 10.40625 48.1875 4.484375 
Q 40.765625 -1.421875 27.09375 -1.421875 
Q 22.515625 -1.421875 17.65625 -0.515625 
Q 12.796875 0.390625 7.625 2.203125 
L 7.625 11.71875 
Q 11.71875 9.328125 16.59375 8.109375 
Q 21.484375 6.890625 26.8125 6.890625 
Q 36.078125 6.890625 40.9375 10.546875 
Q 45.796875 14.203125 45.796875 21.1875 
Q 45.796875 27.640625 41.28125 31.265625 
Q 36.765625 34.90625 28.71875 34.90625 
L 20.21875 34.90625 
L 20.21875 43.015625 
L 29.109375 43.015625 
Q 36.375 43.015625 40.234375 45.921875 
Q 44.09375 48.828125 44.09375 54.296875 
Q 44.09375 59.90625 40.109375 62.90625 
Q 36.140625 65.921875 28.71875 65.921875 
Q 24.65625 65.921875 20.015625 65.03125 
Q 15.375 64.15625 9.8125 62.3125 
L 9.8125 71.09375 
Q 15.4375 72.65625 20.34375 73.4375 
Q 25.25 74.21875 29.59375 74.21875 
Q 40.828125 74.21875 47.359375 69.109375 
Q 53.90625 64.015625 53.90625 55.328125 
Q 53.90625 49.265625 50.4375 45.09375 
Q 46.96875 40.921875 40.578125 39.3125 
z
" id="DejaVuSans-51"/>
      </defs>
      <g transform="translate(390.029324 322.182437)scale(0.1 -0.1)">
       <use xlink:href="#DejaVuSans-51"/>
       <use x="63.623047" xlink:href="#DejaVuSans-48"/>
       <use x="127.246094" xlink:href="#DejaVuSans-48"/>
      </g>
     </g>
    </g>
    <g id="text_8">
     <!-- Generations -->
     <defs>
      <path d="M 59.515625 10.40625 
L 59.515625 29.984375 
L 43.40625 29.984375 
L 43.40625 38.09375 
L 69.28125 38.09375 
L 69.28125 6.78125 
Q 63.578125 2.734375 56.6875 0.65625 
Q 49.8125 -1.421875 42 -1.421875 
Q 24.90625 -1.421875 15.25 8.5625 
Q 5.609375 18.5625 5.609375 36.375 
Q 5.609375 54.25 15.25 64.234375 
Q 24.90625 74.21875 42 74.21875 
Q 49.125 74.21875 55.546875 72.453125 
Q 61.96875 70.703125 67.390625 67.28125 
L 67.390625 56.78125 
Q 61.921875 61.421875 55.765625 63.765625 
Q 49.609375 66.109375 42.828125 66.109375 
Q 29.4375 66.109375 22.71875 58.640625 
Q 16.015625 51.171875 16.015625 36.375 
Q 16.015625 21.625 22.71875 14.15625 
Q 29.4375 6.6875 42.828125 6.6875 
Q 48.046875 6.6875 52.140625 7.59375 
Q 56.25 8.5 59.515625 10.40625 
z
" id="DejaVuSans-71"/>
      <path d="M 56.203125 29.59375 
L 56.203125 25.203125 
L 14.890625 25.203125 
Q 15.484375 15.921875 20.484375 11.0625 
Q 25.484375 6.203125 34.421875 6.203125 
Q 39.59375 6.203125 44.453125 7.46875 
Q 49.3125 8.734375 54.109375 11.28125 
L 54.109375 2.78125 
Q 49.265625 0.734375 44.1875 -0.34375 
Q 39.109375 -1.421875 33.890625 -1.421875 
Q 20.796875 -1.421875 13.15625 6.1875 
Q 5.515625 13.8125 5.515625 26.8125 
Q 5.515625 40.234375 12.765625 48.109375 
Q 20.015625 56 32.328125 56 
Q 43.359375 56 49.78125 48.890625 
Q 56.203125 41.796875 56.203125 29.59375 
z
M 47.21875 32.234375 
Q 47.125 39.59375 43.09375 43.984375 
Q 39.0625 48.390625 32.421875 48.390625 
Q 24.90625 48.390625 20.390625 44.140625 
Q 15.875 39.890625 15.1875 32.171875 
z
" id="DejaVuSans-101"/>
      <path d="M 54.890625 33.015625 
L 54.890625 0 
L 45.90625 0 
L 45.90625 32.71875 
Q 45.90625 40.484375 42.875 44.328125 
Q 39.84375 48.1875 33.796875 48.1875 
Q 26.515625 48.1875 22.3125 43.546875 
Q 18.109375 38.921875 18.109375 30.90625 
L 18.109375 0 
L 9.078125 0 
L 9.078125 54.6875 
L 18.109375 54.6875 
L 18.109375 46.1875 
Q 21.34375 51.125 25.703125 53.5625 
Q 30.078125 56 35.796875 56 
Q 45.21875 56 50.046875 50.171875 
Q 54.890625 44.34375 54.890625 33.015625 
z
" id="DejaVuSans-110"/>
      <path d="M 41.109375 46.296875 
Q 39.59375 47.171875 37.8125 47.578125 
Q 36.03125 48 33.890625 48 
Q 26.265625 48 22.1875 43.046875 
Q 18.109375 38.09375 18.109375 28.8125 
L 18.109375 0 
L 9.078125 0 
L 9.078125 54.6875 
L 18.109375 54.6875 
L 18.109375 46.1875 
Q 20.953125 51.171875 25.484375 53.578125 
Q 30.03125 56 36.53125 56 
Q 37.453125 56 38.578125 55.875 
Q 39.703125 55.765625 41.0625 55.515625 
z
" id="DejaVuSans-114"/>
      <path d="M 34.28125 27.484375 
Q 23.390625 27.484375 19.1875 25 
Q 14.984375 22.515625 14.984375 16.5 
Q 14.984375 11.71875 18.140625 8.90625 
Q 21.296875 6.109375 26.703125 6.109375 
Q 34.1875 6.109375 38.703125 11.40625 
Q 43.21875 16.703125 43.21875 25.484375 
L 43.21875 27.484375 
z
M 52.203125 31.203125 
L 52.203125 0 
L 43.21875 0 
L 43.21875 8.296875 
Q 40.140625 3.328125 35.546875 0.953125 
Q 30.953125 -1.421875 24.3125 -1.421875 
Q 15.921875 -1.421875 10.953125 3.296875 
Q 6 8.015625 6 15.921875 
Q 6 25.140625 12.171875 29.828125 
Q 18.359375 34.515625 30.609375 34.515625 
L 43.21875 34.515625 
L 43.21875 35.40625 
Q 43.21875 41.609375 39.140625 45 
Q 35.0625 48.390625 27.6875 48.390625 
Q 23 48.390625 18.546875 47.265625 
Q 14.109375 46.140625 10.015625 43.890625 
L 10.015625 52.203125 
Q 14.9375 54.109375 19.578125 55.046875 
Q 24.21875 56 28.609375 56 
Q 40.484375 56 46.34375 49.84375 
Q 52.203125 43.703125 52.203125 31.203125 
z
" id="DejaVuSans-97"/>
      <path d="M 18.3125 70.21875 
L 18.3125 54.6875 
L 36.8125 54.6875 
L 36.8125 47.703125 
L 18.3125 47.703125 
L 18.3125 18.015625 
Q 18.3125 11.328125 20.140625 9.421875 
Q 21.96875 7.515625 27.59375 7.515625 
L 36.8125 7.515625 
L 36.8125 0 
L 27.59375 0 
Q 17.1875 0 13.234375 3.875 
Q 9.28125 7.765625 9.28125 18.015625 
L 9.28125 47.703125 
L 2.6875 47.703125 
L 2.6875 54.6875 
L 9.28125 54.6875 
L 9.28125 70.21875 
z
" id="DejaVuSans-116"/>
      <path d="M 9.421875 54.6875 
L 18.40625 54.6875 
L 18.40625 0 
L 9.421875 0 
z
M 9.421875 75.984375 
L 18.40625 75.984375 
L 18.40625 64.59375 
L 9.421875 64.59375 
z
" id="DejaVuSans-105"/>
      <path d="M 30.609375 48.390625 
Q 23.390625 48.390625 19.1875 42.75 
Q 14.984375 37.109375 14.984375 27.296875 
Q 14.984375 17.484375 19.15625 11.84375 
Q 23.34375 6.203125 30.609375 6.203125 
Q 37.796875 6.203125 41.984375 11.859375 
Q 46.1875 17.53125 46.1875 27.296875 
Q 46.1875 37.015625 41.984375 42.703125 
Q 37.796875 48.390625 30.609375 48.390625 
z
M 30.609375 56 
Q 42.328125 56 49.015625 48.375 
Q 55.71875 40.765625 55.71875 27.296875 
Q 55.71875 13.875 49.015625 6.21875 
Q 42.328125 -1.421875 30.609375 -1.421875 
Q 18.84375 -1.421875 12.171875 6.21875 
Q 5.515625 13.875 5.515625 27.296875 
Q 5.515625 40.765625 12.171875 48.375 
Q 18.84375 56 30.609375 56 
z
" id="DejaVuSans-111"/>
      <path d="M 44.28125 53.078125 
L 44.28125 44.578125 
Q 40.484375 46.53125 36.375 47.5 
Q 32.28125 48.484375 27.875 48.484375 
Q 21.1875 48.484375 17.84375 46.4375 
Q 14.5 44.390625 14.5 40.28125 
Q 14.5 37.15625 16.890625 35.375 
Q 19.28125 33.59375 26.515625 31.984375 
L 29.59375 31.296875 
Q 39.15625 29.25 43.1875 25.515625 
Q 47.21875 21.78125 47.21875 15.09375 
Q 47.21875 7.46875 41.1875 3.015625 
Q 35.15625 -1.421875 24.609375 -1.421875 
Q 20.21875 -1.421875 15.453125 -0.5625 
Q 10.6875 0.296875 5.421875 2 
L 5.421875 11.28125 
Q 10.40625 8.6875 15.234375 7.390625 
Q 20.0625 6.109375 24.8125 6.109375 
Q 31.15625 6.109375 34.5625 8.28125 
Q 37.984375 10.453125 37.984375 14.40625 
Q 37.984375 18.0625 35.515625 20.015625 
Q 33.0625 21.96875 24.703125 23.78125 
L 21.578125 24.515625 
Q 13.234375 26.265625 9.515625 29.90625 
Q 5.8125 33.546875 5.8125 39.890625 
Q 5.8125 47.609375 11.28125 51.796875 
Q 16.75 56 26.8125 56 
Q 31.78125 56 36.171875 55.265625 
Q 40.578125 54.546875 44.28125 53.078125 
z
" id="DejaVuSans-115"/>
     </defs>
     <g transform="translate(205.662344 335.860562)scale(0.1 -0.1)">
      <use xlink:href="#DejaVuSans-71"/>
      <use x="77.490234" xlink:href="#DejaVuSans-101"/>
      <use x="139.013672" xlink:href="#DejaVuSans-110"/>
      <use x="202.392578" xlink:href="#DejaVuSans-101"/>
      <use x="263.916016" xlink:href="#DejaVuSans-114"/>
      <use x="305.029297" xlink:href="#DejaVuSans-97"/>
      <use x="366.308594" xlink:href="#DejaVuSans-116"/>
      <use x="405.517578" xlink:href="#DejaVuSans-105"/>
      <use x="433.300781" xlink:href="#DejaVuSans-111"/>
      <use x="494.482422" xlink:href="#DejaVuSans-110"/>
      <use x="557.861328" xlink:href="#DejaVuSans-115"/>
     </g>
    </g>
   </g>
   <g id="matplotlib.axis_2">
    <g id="ytick_1">
     <g id="line2d_15">
      <path clip-path="url(#p3e23ae9d7e)" d="M 57.6 276.502579 
L 414.72 276.502579 
" style="fill:none;stroke:#b0b0b0;stroke-linecap:square;stroke-width:0.8;"/>
     </g>
     <g id="line2d_16">
      <defs>
       <path d="M 0 0 
L -3.5 0 
" id="m39c245c27e" style="stroke:#000000;stroke-width:0.8;"/>
      </defs>
      <g>
       <use style="stroke:#000000;stroke-width:0.8;" x="57.6" xlink:href="#m39c245c27e" y="276.502579"/>
      </g>
     </g>
     <g id="text_9">
      <!-- 500 -->
      <g transform="translate(31.5125 280.301797)scale(0.1 -0.1)">
       <use xlink:href="#DejaVuSans-53"/>
       <use x="63.623047" xlink:href="#DejaVuSans-48"/>
       <use x="127.246094" xlink:href="#DejaVuSans-48"/>
      </g>
     </g>
    </g>
    <g id="ytick_2">
     <g id="line2d_17">
      <path clip-path="url(#p3e23ae9d7e)" d="M 57.6 217.761781 
L 414.72 217.761781 
" style="fill:none;stroke:#b0b0b0;stroke-linecap:square;stroke-width:0.8;"/>
     </g>
     <g id="line2d_18">
      <g>
       <use style="stroke:#000000;stroke-width:0.8;" x="57.6" xlink:href="#m39c245c27e" y="217.761781"/>
      </g>
     </g>
     <g id="text_10">
      <!-- 1000 -->
      <g transform="translate(25.15 221.560999)scale(0.1 -0.1)">
       <use xlink:href="#DejaVuSans-49"/>
       <use x="63.623047" xlink:href="#DejaVuSans-48"/>
       <use x="127.246094" xlink:href="#DejaVuSans-48"/>
       <use x="190.869141" xlink:href="#DejaVuSans-48"/>
      </g>
     </g>
    </g>
    <g id="ytick_3">
     <g id="line2d_19">
      <path clip-path="url(#p3e23ae9d7e)" d="M 57.6 159.020983 
L 414.72 159.020983 
" style="fill:none;stroke:#b0b0b0;stroke-linecap:square;stroke-width:0.8;"/>
     </g>
     <g id="line2d_20">
      <g>
       <use style="stroke:#000000;stroke-width:0.8;" x="57.6" xlink:href="#m39c245c27e" y="159.020983"/>
      </g>
     </g>
     <g id="text_11">
      <!-- 1500 -->
      <g transform="translate(25.15 162.820201)scale(0.1 -0.1)">
       <use xlink:href="#DejaVuSans-49"/>
       <use x="63.623047" xlink:href="#DejaVuSans-53"/>
       <use x="127.246094" xlink:href="#DejaVuSans-48"/>
       <use x="190.869141" xlink:href="#DejaVuSans-48"/>
      </g>
     </g>
    </g>
    <g id="ytick_4">
     <g id="line2d_21">
      <path clip-path="url(#p3e23ae9d7e)" d="M 57.6 100.280185 
L 414.72 100.280185 
" style="fill:none;stroke:#b0b0b0;stroke-linecap:square;stroke-width:0.8;"/>
     </g>
     <g id="line2d_22">
      <g>
       <use style="stroke:#000000;stroke-width:0.8;" x="57.6" xlink:href="#m39c245c27e" y="100.280185"/>
      </g>
     </g>
     <g id="text_12">
      <!-- 2000 -->
      <g transform="translate(25.15 104.079403)scale(0.1 -0.1)">
       <use xlink:href="#DejaVuSans-50"/>
       <use x="63.623047" xlink:href="#DejaVuSans-48"/>
       <use x="127.246094" xlink:href="#DejaVuSans-48"/>
       <use x="190.869141" xlink:href="#DejaVuSans-48"/>
      </g>
     </g>
    </g>
    <g id="ytick_5">
     <g id="line2d_23">
      <path clip-path="url(#p3e23ae9d7e)" d="M 57.6 41.539387 
L 414.72 41.539387 
" style="fill:none;stroke:#b0b0b0;stroke-linecap:square;stroke-width:0.8;"/>
     </g>
     <g id="line2d_24">
      <g>
       <use style="stroke:#000000;stroke-width:0.8;" x="57.6" xlink:href="#m39c245c27e" y="41.539387"/>
      </g>
     </g>
     <g id="text_13">
      <!-- 2500 -->
      <g transform="translate(25.15 45.338605)scale(0.1 -0.1)">
       <use xlink:href="#DejaVuSans-50"/>
       <use x="63.623047" xlink:href="#DejaVuSans-53"/>
       <use x="127.246094" xlink:href="#DejaVuSans-48"/>
       <use x="190.869141" xlink:href="#DejaVuSans-48"/>
      </g>
     </g>
    </g>
    <g id="text_14">
     <!-- Fitness -->
     <defs>
      <path d="M 9.8125 72.90625 
L 51.703125 72.90625 
L 51.703125 64.59375 
L 19.671875 64.59375 
L 19.671875 43.109375 
L 48.578125 43.109375 
L 48.578125 34.8125 
L 19.671875 34.8125 
L 19.671875 0 
L 9.8125 0 
z
" id="DejaVuSans-70"/>
     </defs>
     <g transform="translate(19.070312 192.202219)rotate(-90)scale(0.1 -0.1)">
      <use xlink:href="#DejaVuSans-70"/>
      <use x="57.410156" xlink:href="#DejaVuSans-105"/>
      <use x="85.193359" xlink:href="#DejaVuSans-116"/>
      <use x="124.402344" xlink:href="#DejaVuSans-110"/>
      <use x="187.78125" xlink:href="#DejaVuSans-101"/>
      <use x="249.304688" xlink:href="#DejaVuSans-115"/>
      <use x="301.404297" xlink:href="#DejaVuSans-115"/>
     </g>
    </g>
   </g>
   <g id="line2d_25">
    <path clip-path="url(#p3e23ae9d7e)" d="M 73.832727 279.655704 
L 74.918528 262.39256 
L 76.00433 256.571939 
L 77.090131 254.648537 
L 79.261733 234.781002 
L 80.347534 236.501974 
L 81.433335 229.968996 
L 82.519137 238.050614 
L 83.604938 240.831002 
L 84.690739 236.862911 
L 85.77654 234.996398 
L 86.862341 228.661044 
L 87.948142 224.55284 
L 89.033943 205.616008 
L 90.119745 196.918051 
L 91.205546 203.683943 
L 92.291347 207.756368 
L 93.377148 190.956748 
L 94.462949 196.200391 
L 95.54875 195.057703 
L 96.634552 204.78324 
L 97.720353 218.628877 
L 98.806154 209.67864 
L 99.891955 204.007385 
L 100.977756 196.697312 
L 102.063557 199.144042 
L 103.149358 199.137775 
L 104.23516 201.938527 
L 105.320961 201.117828 
L 106.406762 198.275436 
L 107.492563 199.986371 
L 108.578364 199.431089 
L 109.664165 198.424022 
L 110.749967 187.59133 
L 111.835768 191.895482 
L 112.921569 186.208727 
L 114.00737 203.488198 
L 115.093171 179.651006 
L 117.264773 195.271379 
L 118.350575 181.890709 
L 119.436376 192.479108 
L 120.522177 189.823913 
L 121.607978 190.143532 
L 122.693779 189.083343 
L 123.77958 191.221691 
L 124.865382 184.395031 
L 125.951183 173.129308 
L 127.036984 175.5278 
L 128.122785 186.284071 
L 129.208586 190.292228 
L 130.294387 178.242329 
L 131.380189 182.136762 
L 132.46599 190.21812 
L 133.551791 190.113347 
L 134.637592 175.339933 
L 135.723393 184.615622 
L 136.809194 176.876293 
L 137.894995 185.701658 
L 138.980797 175.647591 
L 140.066598 178.930246 
L 141.152399 160.746655 
L 142.2382 161.397037 
L 143.324001 172.384619 
L 144.409802 150.980095 
L 145.495604 153.154791 
L 146.581405 170.819177 
L 147.667206 141.786778 
L 148.753007 177.160078 
L 149.838808 171.966666 
L 150.924609 152.913505 
L 152.01041 157.348468 
L 153.096212 150.72161 
L 154.182013 134.111973 
L 155.267814 152.02304 
L 156.353615 146.290092 
L 157.439416 154.966594 
L 158.525217 152.440063 
L 159.611019 155.212009 
L 160.69682 170.20906 
L 161.782621 174.272786 
L 162.868422 170.723319 
L 163.954223 180.010978 
L 165.040024 171.841493 
L 166.125825 160.270375 
L 167.211627 153.425851 
L 168.297428 170.768125 
L 169.383229 153.933035 
L 170.46903 163.836366 
L 171.554831 170.049739 
L 172.640632 152.365839 
L 173.726434 182.675398 
L 174.812235 171.036581 
L 175.898036 173.271886 
L 176.983837 152.63776 
L 178.069638 161.55488 
L 180.24124 135.021763 
L 181.327042 139.056105 
L 182.412843 149.248045 
L 183.498644 156.867593 
L 184.584445 157.339339 
L 185.670246 137.844789 
L 186.756047 138.972344 
L 187.841849 154.761955 
L 188.92765 146.065431 
L 190.013451 146.683754 
L 191.099252 159.531565 
L 192.185053 165.981281 
L 193.270854 147.961788 
L 194.356656 150.429171 
L 195.442457 157.667176 
L 196.528258 150.895024 
L 197.614059 148.280655 
L 198.69986 134.067643 
L 199.785661 143.765196 
L 200.871462 134.526954 
L 201.957264 153.185854 
L 203.043065 144.979101 
L 204.128866 145.192961 
L 205.214667 156.254851 
L 206.300468 152.469078 
L 207.386269 149.89271 
L 208.472071 124.095267 
L 209.557872 153.10837 
L 210.643673 158.746187 
L 211.729474 170.121107 
L 212.815275 148.333378 
L 213.901076 140.321819 
L 214.986877 140.460985 
L 216.072679 142.386157 
L 217.15848 150.259182 
L 219.330082 151.532215 
L 220.415883 130.595366 
L 221.501684 139.275905 
L 222.587486 155.650171 
L 223.673287 141.736726 
L 224.759088 145.748245 
L 225.844889 135.331121 
L 226.93069 130.045932 
L 228.016491 144.859189 
L 229.102292 139.815958 
L 230.188094 155.03684 
L 231.273895 134.978906 
L 232.359696 143.198641 
L 233.445497 155.829932 
L 234.531298 150.584897 
L 235.617099 135.507106 
L 236.702901 153.421533 
L 237.788702 152.827465 
L 238.874503 166.348289 
L 239.960304 170.472447 
L 241.046105 139.363893 
L 242.131906 136.000706 
L 243.217708 140.885033 
L 244.303509 147.487648 
L 245.38931 142.371289 
L 246.475111 120.51097 
L 247.560912 130.739465 
L 248.646713 127.541026 
L 249.732514 139.935678 
L 250.818316 148.998923 
L 251.904117 145.349579 
L 252.989918 143.09998 
L 254.075719 140.284857 
L 255.16152 136.235939 
L 256.247321 147.775723 
L 257.333123 130.309747 
L 258.418924 123.074635 
L 259.504725 152.860841 
L 260.590526 143.283838 
L 261.676327 136.129055 
L 262.762128 133.265536 
L 263.847929 117.562292 
L 264.933731 148.542772 
L 266.019532 147.816101 
L 267.105333 133.526242 
L 268.191134 152.56347 
L 269.276935 133.899289 
L 270.362736 143.601751 
L 271.448538 149.202796 
L 272.534339 148.753911 
L 273.62014 122.287711 
L 274.705941 157.696642 
L 275.791742 136.437495 
L 276.877543 135.038074 
L 277.963344 141.069576 
L 279.049146 133.36681 
L 280.134947 127.793388 
L 281.220748 142.716898 
L 282.306549 155.650008 
L 283.39235 149.945361 
L 284.478151 156.293437 
L 285.563953 147.427784 
L 286.649754 142.611916 
L 287.735555 180.462118 
L 288.821356 142.466127 
L 289.907157 137.418739 
L 290.992958 146.12143 
L 292.07876 149.751844 
L 293.164561 152.262598 
L 294.250362 150.611772 
L 296.421964 135.304351 
L 297.507765 152.485029 
L 298.593566 131.333747 
L 299.679368 155.685556 
L 300.765169 155.431871 
L 301.85097 156.820192 
L 302.936771 157.514176 
L 304.022572 169.318909 
L 305.108373 165.348521 
L 307.279976 139.125326 
L 308.365777 152.43342 
L 309.451578 150.347474 
L 310.537379 169.315612 
L 311.62318 143.72331 
L 312.708981 144.06375 
L 313.794783 150.550265 
L 314.880584 158.33776 
L 315.966385 162.582994 
L 317.052186 158.941986 
L 318.137987 156.59008 
L 319.223788 156.529867 
L 320.30959 132.047544 
L 321.395391 132.312191 
L 322.481192 151.188398 
L 323.566993 150.241883 
L 324.652794 162.799728 
L 325.738595 143.426891 
L 326.824396 158.94522 
L 327.910198 160.354439 
L 328.995999 166.413737 
L 330.0818 158.808698 
L 331.167601 157.791982 
L 332.253402 165.077855 
L 333.339203 175.418731 
L 334.425005 154.949219 
L 335.510806 188.46755 
L 336.596607 149.690958 
L 337.682408 171.578587 
L 338.768209 155.002117 
L 339.85401 165.426031 
L 340.939811 157.194379 
L 342.025613 171.651171 
L 343.111414 164.323956 
L 344.197215 158.871023 
L 345.283016 155.278054 
L 346.368817 185.221401 
L 347.454618 169.821339 
L 348.54042 168.463041 
L 349.626221 165.627079 
L 350.712022 171.181597 
L 351.797823 180.518788 
L 352.883624 184.55841 
L 353.969425 152.774516 
L 356.141028 180.126588 
L 357.226829 163.68525 
L 358.31263 159.05146 
L 359.398431 160.639968 
L 360.484232 149.43694 
L 361.570033 181.774554 
L 362.655835 166.148341 
L 363.741636 173.565948 
L 364.827437 161.86016 
L 365.913238 169.648316 
L 366.999039 167.020393 
L 368.08484 161.255988 
L 369.170642 154.689315 
L 370.256443 160.675251 
L 371.342244 160.343408 
L 372.428045 134.441287 
L 373.513846 157.016151 
L 375.685448 137.633041 
L 377.857051 169.352247 
L 378.942852 149.910267 
L 380.028653 149.551846 
L 381.114454 174.479328 
L 382.200255 162.137715 
L 383.286057 161.009758 
L 384.371858 173.638839 
L 385.457659 169.739251 
L 386.54346 179.477916 
L 387.629261 161.031172 
L 388.715062 155.784046 
L 389.800863 160.306065 
L 390.886665 158.829105 
L 391.972466 152.387262 
L 393.058267 140.900126 
L 394.144068 180.299907 
L 395.229869 165.702925 
L 396.31567 146.80761 
L 397.401472 153.215838 
L 398.487273 158.62751 
L 398.487273 158.62751 
" style="fill:none;stroke:#0000ff;stroke-linecap:square;stroke-width:1.5;"/>
   </g>
   <g id="line2d_26">
    <path clip-path="url(#p3e23ae9d7e)" d="M 73.832727 295.488 
L 74.918528 276.70625 
L 76.00433 275.58643 
L 77.090131 282.411673 
L 79.261733 261.210377 
L 80.347534 260.006121 
L 81.433335 253.808387 
L 82.519137 268.229597 
L 83.604938 271.130333 
L 84.690739 256.624664 
L 85.77654 268.50047 
L 86.862341 260.354571 
L 87.948142 264.680514 
L 89.033943 246.161866 
L 90.119745 247.211823 
L 91.205546 248.554514 
L 92.291347 250.346965 
L 93.377148 239.647671 
L 94.462949 237.223992 
L 95.54875 236.923659 
L 96.634552 248.623421 
L 97.720353 259.113634 
L 98.806154 262.892016 
L 99.891955 245.006087 
L 100.977756 246.586523 
L 102.063557 231.10258 
L 103.149358 236.509598 
L 104.23516 235.88126 
L 105.320961 244.595492 
L 106.406762 228.382164 
L 107.492563 236.580916 
L 108.578364 243.506923 
L 109.664165 233.928702 
L 110.749967 213.198694 
L 111.835768 222.044304 
L 112.921569 213.045768 
L 114.00737 223.586155 
L 115.093171 209.234972 
L 116.178972 215.467295 
L 117.264773 232.203894 
L 118.350575 208.718905 
L 119.436376 220.46327 
L 120.522177 243.974702 
L 121.607978 228.588779 
L 122.693779 232.896849 
L 123.77958 213.809215 
L 124.865382 218.719372 
L 125.951183 207.203534 
L 127.036984 205.424199 
L 128.122785 217.798249 
L 129.208586 221.134277 
L 130.294387 214.18777 
L 131.380189 211.886912 
L 132.46599 225.613421 
L 133.551791 224.311032 
L 134.637592 210.114798 
L 135.723393 216.81058 
L 136.809194 210.62812 
L 137.894995 227.84964 
L 138.980797 200.444552 
L 140.066598 216.446601 
L 141.152399 197.31473 
L 142.2382 202.942012 
L 143.324001 221.836898 
L 144.409802 201.096007 
L 145.495604 196.746554 
L 146.581405 212.706814 
L 147.667206 183.689297 
L 148.753007 212.349008 
L 149.838808 215.317836 
L 150.924609 195.522686 
L 152.01041 203.596848 
L 153.096212 196.243467 
L 154.182013 181.999598 
L 155.267814 188.871583 
L 156.353615 191.73511 
L 157.439416 203.31292 
L 158.525217 203.101981 
L 159.611019 208.059009 
L 160.69682 215.052889 
L 161.782621 221.017732 
L 162.868422 216.523607 
L 163.954223 228.984347 
L 165.040024 225.839335 
L 166.125825 215.305504 
L 167.211627 200.169515 
L 168.297428 214.154248 
L 169.383229 220.433985 
L 170.46903 200.204747 
L 171.554831 210.189139 
L 172.640632 195.082532 
L 173.726434 214.079831 
L 174.812235 208.314512 
L 175.898036 211.259776 
L 176.983837 194.099702 
L 178.069638 213.318089 
L 179.155439 203.716239 
L 180.24124 184.020123 
L 181.327042 186.457858 
L 182.412843 208.236798 
L 183.498644 205.875863 
L 184.584445 204.986201 
L 185.670246 190.776458 
L 186.756047 190.859367 
L 187.841849 202.628476 
L 188.92765 190.50055 
L 190.013451 197.298802 
L 191.099252 212.813367 
L 192.185053 220.339708 
L 193.270854 204.902032 
L 195.442457 202.109018 
L 196.528258 200.980835 
L 197.614059 207.993541 
L 198.69986 186.34643 
L 199.785661 187.01698 
L 200.871462 183.278331 
L 201.957264 201.659034 
L 203.043065 203.182288 
L 204.128866 191.931537 
L 205.214667 218.340894 
L 206.300468 206.915072 
L 207.386269 200.689903 
L 208.472071 168.28585 
L 209.557872 208.601834 
L 210.643673 218.786404 
L 211.729474 222.935716 
L 212.815275 190.897468 
L 213.901076 195.269428 
L 214.986877 210.786645 
L 216.072679 189.58946 
L 217.15848 196.236129 
L 218.244281 206.216022 
L 219.330082 208.357859 
L 220.415883 181.51479 
L 221.501684 180.638385 
L 222.587486 220.285046 
L 223.673287 202.594376 
L 225.844889 188.190841 
L 226.93069 176.900777 
L 228.016491 189.60768 
L 229.102292 183.847083 
L 230.188094 200.861102 
L 231.273895 180.436114 
L 232.359696 191.611876 
L 233.445497 208.824576 
L 234.531298 208.364575 
L 235.617099 191.101839 
L 236.702901 211.323054 
L 237.788702 215.426524 
L 238.874503 221.564571 
L 239.960304 219.609481 
L 241.046105 207.717711 
L 242.131906 182.816691 
L 243.217708 194.436687 
L 244.303509 211.483821 
L 246.475111 171.017062 
L 247.560912 186.946001 
L 248.646713 177.574713 
L 249.732514 186.116688 
L 250.818316 201.642307 
L 251.904117 198.514369 
L 252.989918 197.968764 
L 254.075719 189.877165 
L 255.16152 179.036061 
L 256.247321 192.253701 
L 257.333123 186.424333 
L 258.418924 177.191214 
L 259.504725 199.71926 
L 261.676327 185.183753 
L 262.762128 184.865217 
L 263.847929 159.886161 
L 264.933731 225.324104 
L 266.019532 200.305147 
L 267.105333 180.917978 
L 268.191134 210.103354 
L 269.276935 188.523975 
L 270.362736 188.107685 
L 271.448538 195.071646 
L 272.534339 196.42346 
L 273.62014 169.54443 
L 274.705941 202.510358 
L 275.791742 182.067478 
L 276.877543 175.935051 
L 277.963344 199.502214 
L 279.049146 189.111439 
L 280.134947 173.207494 
L 281.220748 200.472013 
L 282.306549 208.990506 
L 283.39235 209.655304 
L 284.478151 214.100267 
L 285.563953 208.251294 
L 286.649754 204.242763 
L 287.735555 242.003995 
L 288.821356 198.229556 
L 289.907157 202.820843 
L 290.992958 213.450015 
L 292.07876 214.18988 
L 293.164561 216.656989 
L 294.250362 211.443204 
L 295.336163 204.251268 
L 296.421964 196.132613 
L 297.507765 210.583972 
L 298.593566 195.084094 
L 299.679368 212.135075 
L 300.765169 212.678748 
L 301.85097 222.273685 
L 302.936771 219.010208 
L 304.022572 217.100465 
L 305.108373 204.98148 
L 306.194175 212.30227 
L 307.279976 190.74276 
L 308.365777 221.881431 
L 309.451578 202.479626 
L 310.537379 220.886897 
L 311.62318 197.461841 
L 312.708981 192.628692 
L 313.794783 211.243104 
L 314.880584 212.09002 
L 315.966385 217.425697 
L 317.052186 206.821807 
L 318.137987 207.828926 
L 319.223788 215.999892 
L 320.30959 186.124499 
L 321.395391 186.909108 
L 322.481192 215.753069 
L 323.566993 204.928121 
L 324.652794 218.251104 
L 325.738595 203.273327 
L 326.824396 206.680565 
L 327.910198 225.844107 
L 328.995999 226.73177 
L 330.0818 208.387895 
L 331.167601 208.436446 
L 332.253402 213.126425 
L 333.339203 216.924137 
L 334.425005 207.913752 
L 335.510806 251.752299 
L 336.596607 207.113939 
L 337.682408 232.956165 
L 338.768209 211.000924 
L 339.85401 221.026643 
L 340.939811 217.102061 
L 342.025613 228.419912 
L 343.111414 229.92096 
L 344.197215 220.038173 
L 345.283016 218.889707 
L 346.368817 241.148281 
L 347.454618 235.080432 
L 348.54042 224.632869 
L 349.626221 225.744371 
L 350.712022 232.531696 
L 351.797823 229.156343 
L 352.883624 244.331687 
L 353.969425 211.435371 
L 355.055227 221.154453 
L 356.141028 226.551378 
L 357.226829 222.023563 
L 358.31263 213.638376 
L 359.398431 206.502158 
L 360.484232 203.582824 
L 361.570033 237.068307 
L 362.655835 222.036011 
L 363.741636 234.284092 
L 364.827437 216.677208 
L 365.913238 223.741914 
L 366.999039 218.803695 
L 368.08484 203.519232 
L 369.170642 204.079198 
L 370.256443 205.034708 
L 371.342244 215.784665 
L 372.428045 184.179232 
L 373.513846 206.780926 
L 374.599647 207.528045 
L 375.685448 200.665351 
L 376.77125 208.748737 
L 377.857051 236.19978 
L 378.942852 208.239182 
L 380.028653 215.818026 
L 381.114454 220.661004 
L 382.200255 230.346637 
L 383.286057 229.539761 
L 384.371858 239.513677 
L 385.457659 225.723679 
L 386.54346 230.90678 
L 387.629261 216.520626 
L 388.715062 209.186272 
L 389.800863 211.751319 
L 390.886665 208.79374 
L 391.972466 212.31846 
L 393.058267 194.487421 
L 394.144068 237.212698 
L 395.229869 233.392018 
L 396.31567 213.123176 
L 397.401472 199.462362 
L 398.487273 227.943178 
L 398.487273 227.943178 
" style="fill:none;stroke:#008000;stroke-dasharray:9.6,2.4,1.5,2.4;stroke-dashoffset:0;stroke-width:1.5;"/>
   </g>
   <g id="line2d_27">
    <path clip-path="url(#p3e23ae9d7e)" d="M 73.832727 263.823408 
L 74.918528 248.078869 
L 78.175932 216.147437 
L 79.261733 208.351627 
L 80.347534 212.997827 
L 81.433335 206.129605 
L 82.519137 207.87163 
L 83.604938 210.53167 
L 84.690739 217.101158 
L 85.77654 201.492326 
L 86.862341 196.967517 
L 87.948142 184.425166 
L 90.119745 146.624278 
L 91.205546 158.813372 
L 92.291347 165.165772 
L 93.377148 142.265825 
L 94.462949 155.17679 
L 95.54875 153.191748 
L 96.634552 160.943059 
L 97.720353 178.14412 
L 98.806154 156.465264 
L 99.891955 163.008682 
L 100.977756 146.8081 
L 102.063557 167.185503 
L 103.149358 161.765951 
L 104.23516 167.995793 
L 105.320961 157.640163 
L 106.406762 168.168708 
L 107.492563 163.391826 
L 108.578364 155.355254 
L 109.664165 162.919342 
L 110.749967 161.983966 
L 111.835768 161.74666 
L 112.921569 159.371686 
L 114.00737 183.390241 
L 115.093171 150.06704 
L 116.178972 159.471118 
L 117.264773 158.338863 
L 118.350575 155.062513 
L 119.436376 164.494945 
L 120.522177 135.673123 
L 121.607978 151.698285 
L 122.693779 145.269837 
L 123.77958 168.634167 
L 124.865382 150.070689 
L 125.951183 139.055082 
L 127.036984 145.631402 
L 128.122785 154.769894 
L 129.208586 159.45018 
L 130.294387 142.296887 
L 131.380189 152.386613 
L 132.46599 154.822818 
L 133.551791 155.915662 
L 134.637592 140.565068 
L 135.723393 152.420664 
L 136.809194 143.124465 
L 137.894995 143.553675 
L 138.980797 150.850629 
L 140.066598 141.41389 
L 141.152399 124.178579 
L 142.2382 119.852063 
L 143.324001 122.93234 
L 144.409802 100.864183 
L 145.495604 109.563029 
L 146.581405 128.931539 
L 147.667206 99.88426 
L 148.753007 141.971148 
L 149.838808 128.615496 
L 150.924609 110.304324 
L 152.01041 111.100088 
L 153.096212 105.199752 
L 154.182013 86.224348 
L 155.267814 115.174497 
L 156.353615 100.845075 
L 157.439416 106.620269 
L 158.525217 101.778146 
L 159.611019 102.36501 
L 160.69682 125.365231 
L 161.782621 127.52784 
L 162.868422 124.923031 
L 163.954223 131.037608 
L 166.125825 105.235246 
L 167.211627 106.682188 
L 168.297428 127.382001 
L 169.383229 87.432085 
L 170.46903 127.467986 
L 171.554831 129.91034 
L 172.640632 109.649147 
L 173.726434 151.270965 
L 174.812235 133.758649 
L 175.898036 135.283996 
L 176.983837 111.175817 
L 178.069638 109.791672 
L 179.155439 93.957606 
L 180.24124 86.023402 
L 181.327042 91.654353 
L 182.412843 90.259292 
L 183.498644 107.859322 
L 184.584445 109.692477 
L 185.670246 84.91312 
L 186.756047 87.085321 
L 187.841849 106.895434 
L 190.013451 96.068706 
L 191.099252 106.249763 
L 192.185053 111.622854 
L 193.270854 91.021544 
L 194.356656 97.416213 
L 195.442457 113.225334 
L 197.614059 88.56777 
L 198.69986 81.788855 
L 199.785661 100.513411 
L 200.871462 85.775577 
L 201.957264 104.712673 
L 203.043065 86.775914 
L 204.128866 98.454384 
L 205.214667 94.168808 
L 206.300468 98.023085 
L 207.386269 99.095517 
L 208.472071 79.904684 
L 209.557872 97.614905 
L 210.643673 98.70597 
L 211.729474 117.306498 
L 212.815275 105.769288 
L 213.901076 85.374211 
L 214.986877 70.135324 
L 216.072679 95.182853 
L 217.15848 104.282236 
L 218.244281 95.680814 
L 219.330082 94.706571 
L 220.415883 79.675941 
L 221.501684 97.913426 
L 222.587486 91.015296 
L 223.673287 80.879075 
L 224.759088 96.204438 
L 225.844889 82.4714 
L 226.93069 83.191086 
L 228.016491 100.110698 
L 229.102292 95.784834 
L 230.188094 109.212578 
L 231.273895 89.521698 
L 232.359696 94.785406 
L 233.445497 102.835287 
L 234.531298 92.805219 
L 235.617099 79.912373 
L 236.702901 95.520012 
L 237.788702 90.228407 
L 238.874503 111.132006 
L 239.960304 121.335412 
L 241.046105 71.010074 
L 242.131906 89.184722 
L 243.217708 87.333379 
L 244.303509 83.491476 
L 245.38931 94.124931 
L 246.475111 70.004877 
L 247.560912 74.532929 
L 248.646713 77.507339 
L 249.732514 93.754668 
L 250.818316 96.355538 
L 252.989918 88.231195 
L 254.075719 90.692549 
L 255.16152 93.435817 
L 256.247321 103.297745 
L 257.333123 74.195161 
L 258.418924 68.958056 
L 259.504725 106.002422 
L 260.590526 94.026165 
L 261.676327 87.074356 
L 262.762128 81.665856 
L 263.847929 75.238422 
L 264.933731 71.761441 
L 266.019532 95.327055 
L 267.105333 86.134507 
L 268.191134 95.023586 
L 269.276935 79.274603 
L 270.362736 99.095817 
L 271.448538 103.333947 
L 272.534339 101.084362 
L 273.62014 75.030992 
L 274.705941 112.882925 
L 275.791742 90.807511 
L 276.877543 94.141097 
L 277.963344 82.636938 
L 279.049146 77.622181 
L 280.134947 82.379281 
L 281.220748 84.961784 
L 282.306549 102.309511 
L 283.39235 90.235419 
L 284.478151 98.486607 
L 285.563953 86.604274 
L 286.649754 80.981069 
L 287.735555 118.920241 
L 288.821356 86.702698 
L 289.907157 72.016636 
L 292.07876 85.313808 
L 293.164561 87.868207 
L 294.250362 89.78034 
L 295.336163 81.596345 
L 296.421964 74.47609 
L 297.507765 94.386086 
L 298.593566 67.5834 
L 299.679368 99.236037 
L 300.765169 98.184994 
L 301.85097 91.366698 
L 302.936771 96.018145 
L 304.022572 121.537353 
L 305.108373 125.715563 
L 306.194175 91.175804 
L 307.279976 87.507891 
L 308.365777 82.985408 
L 309.451578 98.215323 
L 310.537379 117.744328 
L 311.62318 89.984779 
L 312.708981 95.498808 
L 313.794783 89.857426 
L 314.880584 104.5855 
L 317.052186 111.062165 
L 318.137987 105.351235 
L 319.223788 97.059841 
L 320.30959 77.970589 
L 321.395391 77.715274 
L 323.566993 95.555645 
L 324.652794 107.348352 
L 325.738595 83.580455 
L 326.824396 111.209874 
L 327.910198 94.864771 
L 328.995999 106.095704 
L 330.0818 109.229501 
L 331.167601 107.147518 
L 332.253402 117.029285 
L 333.339203 133.913326 
L 334.425005 101.984687 
L 335.510806 125.182801 
L 336.596607 92.267976 
L 337.682408 110.201008 
L 338.768209 99.003309 
L 339.85401 109.825419 
L 340.939811 97.286698 
L 342.025613 114.88243 
L 343.111414 98.726952 
L 344.197215 97.703872 
L 345.283016 91.666401 
L 346.368817 129.29452 
L 347.454618 104.562247 
L 348.54042 112.293214 
L 349.626221 105.509787 
L 350.712022 109.831497 
L 351.797823 131.881233 
L 352.883624 124.785133 
L 353.969425 94.113661 
L 355.055227 111.299076 
L 356.141028 133.701798 
L 357.226829 105.346937 
L 358.31263 104.464545 
L 359.398431 114.777777 
L 360.484232 95.291056 
L 361.570033 126.480802 
L 362.655835 110.26067 
L 363.741636 112.847803 
L 364.827437 107.043113 
L 365.913238 115.554719 
L 366.999039 115.237091 
L 368.08484 118.992743 
L 369.170642 105.299432 
L 370.256443 116.315795 
L 371.342244 104.902151 
L 372.428045 84.703341 
L 373.513846 107.251376 
L 374.599647 87.751158 
L 375.685448 74.600732 
L 376.77125 98.240292 
L 377.857051 102.504715 
L 378.942852 91.581352 
L 380.028653 83.285666 
L 381.114454 128.297651 
L 382.200255 93.928793 
L 383.286057 92.479756 
L 384.371858 107.764001 
L 385.457659 113.754824 
L 386.54346 128.049053 
L 387.629261 105.541718 
L 388.715062 102.381819 
L 389.800863 108.860811 
L 390.886665 108.86447 
L 391.972466 92.456064 
L 393.058267 87.312832 
L 394.144068 123.387116 
L 395.229869 98.013832 
L 396.31567 80.492045 
L 397.401472 106.969314 
L 398.487273 89.311843 
L 398.487273 89.311843 
" style="fill:none;stroke:#008000;stroke-dasharray:9.6,2.4,1.5,2.4;stroke-dashoffset:0;stroke-width:1.5;"/>
   </g>
   <g id="line2d_28">
    <path clip-path="url(#p3e23ae9d7e)" d="M 73.832727 251.552152 
L 74.918528 246.803395 
L 76.00433 231.927193 
L 77.090131 214.004227 
L 78.175932 206.850428 
L 79.261733 208.761407 
L 80.347534 210.270251 
L 81.433335 202.098422 
L 82.519137 196.57902 
L 83.604938 193.835418 
L 84.690739 212.885869 
L 85.77654 186.223611 
L 86.862341 191.85407 
L 87.948142 173.319064 
L 89.033943 156.920833 
L 90.119745 142.855589 
L 91.205546 145.440424 
L 92.291347 160.055058 
L 93.377148 141.201462 
L 94.462949 153.411164 
L 95.54875 153.124043 
L 96.634552 151.467581 
L 97.720353 173.533976 
L 98.806154 144.108199 
L 99.891955 153.997399 
L 100.977756 145.026138 
L 102.063557 164.605908 
L 103.149358 152.746684 
L 104.23516 152.052759 
L 105.320961 149.19249 
L 106.406762 158.311435 
L 107.492563 157.960971 
L 108.578364 154.016364 
L 109.664165 158.214434 
L 110.749967 159.060537 
L 111.835768 154.938033 
L 112.921569 156.518349 
L 114.00737 174.123125 
L 115.093171 146.090462 
L 116.178972 142.986535 
L 117.264773 151.781103 
L 118.350575 153.211091 
L 119.436376 157.155262 
L 120.522177 138.175695 
L 121.607978 148.182192 
L 122.693779 144.742619 
L 123.77958 157.230668 
L 124.865382 148.184235 
L 125.951183 134.752556 
L 127.036984 144.788827 
L 128.122785 144.415192 
L 129.208586 147.584961 
L 130.294387 138.203686 
L 131.380189 141.398044 
L 132.46599 142.358704 
L 133.551791 148.090561 
L 134.637592 143.216068 
L 135.723393 154.654068 
L 136.809194 129.521378 
L 137.894995 136.98608 
L 138.980797 135.653082 
L 140.066598 117.454105 
L 141.152399 103.918805 
L 142.2382 107.165428 
L 143.324001 95.054839 
L 144.409802 85.705704 
L 146.581405 98.652252 
L 147.667206 86.71855 
L 148.753007 121.36139 
L 149.838808 109.238702 
L 152.01041 94.401614 
L 153.096212 84.48722 
L 154.182013 86.086448 
L 155.267814 95.713832 
L 156.353615 88.508136 
L 157.439416 83.471386 
L 158.525217 85.284531 
L 159.611019 95.585686 
L 160.69682 100.817635 
L 161.782621 100.206612 
L 162.868422 99.244332 
L 163.954223 100.396566 
L 165.040024 85.561714 
L 166.125825 66.162934 
L 167.211627 81.074251 
L 168.297428 103.877374 
L 169.383229 78.061469 
L 170.46903 104.110765 
L 171.554831 103.571311 
L 172.640632 96.286766 
L 173.726434 135.771528 
L 174.812235 122.253867 
L 175.898036 110.754485 
L 176.983837 82.25576 
L 178.069638 85.145459 
L 179.155439 80.502068 
L 180.24124 74.72245 
L 181.327042 70.885925 
L 182.412843 74.458037 
L 183.498644 87.783095 
L 184.584445 94.203658 
L 185.670246 76.80253 
L 186.756047 71.731334 
L 187.841849 83.994185 
L 188.92765 86.366452 
L 190.013451 85.785113 
L 191.099252 85.87315 
L 192.185053 91.193678 
L 193.270854 69.936843 
L 194.356656 72.754836 
L 195.442457 85.044753 
L 196.528258 65.440164 
L 197.614059 64.120638 
L 198.69986 69.634698 
L 199.785661 80.999751 
L 200.871462 74.972089 
L 201.957264 84.305161 
L 203.043065 65.182402 
L 204.128866 79.318846 
L 205.214667 74.063243 
L 206.300468 80.228429 
L 207.386269 79.206843 
L 208.472071 68.014667 
L 209.557872 73.458482 
L 210.643673 68.969766 
L 211.729474 81.27468 
L 212.815275 91.579229 
L 213.901076 80.523704 
L 214.986877 57.364595 
L 216.072679 83.088804 
L 217.15848 79.813494 
L 218.244281 66.628386 
L 219.330082 76.08136 
L 220.415883 71.782684 
L 222.587486 83.826239 
L 223.673287 62.44381 
L 224.759088 85.796294 
L 225.844889 57.280141 
L 226.93069 74.521606 
L 228.016491 81.471536 
L 230.188094 99.993462 
L 231.273895 74.597837 
L 232.359696 74.213985 
L 233.445497 91.509324 
L 234.531298 68.961929 
L 235.617099 66.513371 
L 236.702901 81.192642 
L 237.788702 69.516848 
L 238.874503 93.352286 
L 239.960304 98.494758 
L 241.046105 59.454081 
L 242.131906 79.693486 
L 243.217708 78.973136 
L 244.303509 79.161687 
L 245.38931 81.054102 
L 246.475111 58.574899 
L 247.560912 70.792398 
L 248.646713 62.328738 
L 249.732514 80.348708 
L 250.818316 90.633308 
L 251.904117 88.785429 
L 252.989918 73.981653 
L 254.075719 88.032491 
L 255.16152 80.176867 
L 256.247321 94.010203 
L 257.333123 53.568 
L 258.418924 63.881564 
L 259.504725 79.854451 
L 260.590526 76.68611 
L 261.676327 83.127471 
L 262.762128 79.264693 
L 263.847929 66.893307 
L 264.933731 62.150486 
L 266.019532 88.222204 
L 267.105333 78.205942 
L 268.191134 85.591148 
L 269.276935 72.254041 
L 270.362736 83.988886 
L 271.448538 79.238257 
L 272.534339 86.591984 
L 273.62014 70.228348 
L 274.705941 101.435277 
L 275.791742 79.33928 
L 276.877543 82.072708 
L 277.963344 74.685367 
L 279.049146 81.538379 
L 280.134947 81.179794 
L 281.220748 84.785827 
L 282.306549 84.337754 
L 283.39235 86.256575 
L 284.478151 90.078965 
L 285.563953 83.266647 
L 286.649754 71.221096 
L 287.735555 93.681932 
L 288.821356 76.541809 
L 289.907157 65.536244 
L 290.992958 81.520234 
L 292.07876 77.639745 
L 293.164561 72.278251 
L 294.250362 69.324254 
L 295.336163 77.044498 
L 296.421964 73.527923 
L 297.507765 80.825738 
L 298.593566 59.770228 
L 299.679368 86.054783 
L 300.765169 74.742389 
L 301.85097 77.747856 
L 302.936771 77.518443 
L 304.022572 96.704441 
L 305.108373 101.914875 
L 306.194175 63.553705 
L 307.279976 60.822016 
L 308.365777 59.383192 
L 309.451578 78.704618 
L 310.537379 105.799873 
L 311.62318 88.511348 
L 312.708981 79.307557 
L 313.794783 75.156522 
L 314.880584 93.278295 
L 315.966385 74.107814 
L 317.052186 87.682104 
L 318.137987 86.674832 
L 319.223788 86.718001 
L 320.30959 63.274414 
L 321.395391 67.827431 
L 322.481192 74.182205 
L 323.566993 75.47995 
L 324.652794 80.6388 
L 325.738595 78.914948 
L 326.824396 82.219004 
L 327.910198 73.955494 
L 328.995999 97.417904 
L 330.0818 89.036004 
L 331.167601 86.544486 
L 332.253402 106.19563 
L 333.339203 89.473706 
L 334.425005 81.761228 
L 335.510806 95.614773 
L 336.596607 75.644305 
L 337.682408 80.521562 
L 338.768209 82.693707 
L 339.85401 81.469562 
L 340.939811 71.203216 
L 342.025613 80.310378 
L 343.111414 81.78201 
L 344.197215 67.370135 
L 345.283016 74.081963 
L 346.368817 113.809789 
L 347.454618 79.454218 
L 348.54042 87.774239 
L 349.626221 98.009694 
L 350.712022 95.922207 
L 351.797823 98.570067 
L 352.883624 88.613824 
L 353.969425 74.927739 
L 355.055227 89.307639 
L 356.141028 99.46562 
L 357.226829 74.803935 
L 358.31263 90.744357 
L 359.398431 90.78188 
L 360.484232 76.248243 
L 361.570033 100.185688 
L 362.655835 91.48757 
L 363.741636 97.254468 
L 364.827437 83.003466 
L 365.913238 96.611524 
L 366.999039 81.516688 
L 368.08484 96.570458 
L 369.170642 87.071099 
L 370.256443 85.348538 
L 371.342244 77.907898 
L 372.428045 75.549853 
L 373.513846 88.986716 
L 374.599647 67.318126 
L 375.685448 64.014278 
L 376.77125 83.908026 
L 377.857051 91.058401 
L 378.942852 68.072207 
L 380.028653 69.557385 
L 381.114454 105.376051 
L 382.200255 80.361251 
L 383.286057 87.046124 
L 384.371858 89.16982 
L 385.457659 103.632956 
L 386.54346 102.069993 
L 387.629261 92.264766 
L 388.715062 69.811765 
L 389.800863 81.297151 
L 390.886665 100.097053 
L 391.972466 78.143052 
L 393.058267 74.215345 
L 394.144068 88.806105 
L 395.229869 80.959096 
L 396.31567 61.919642 
L 397.401472 88.79537 
L 398.487273 79.701651 
L 398.487273 79.701651 
" style="fill:none;stroke:#ff0000;stroke-linecap:square;stroke-width:1.5;"/>
   </g>
   <g id="patch_3">
    <path d="M 57.6 307.584 
L 57.6 41.472 
" style="fill:none;stroke:#000000;stroke-linecap:square;stroke-linejoin:miter;stroke-width:0.8;"/>
   </g>
   <g id="patch_4">
    <path d="M 414.72 307.584 
L 414.72 41.472 
" style="fill:none;stroke:#000000;stroke-linecap:square;stroke-linejoin:miter;stroke-width:0.8;"/>
   </g>
   <g id="patch_5">
    <path d="M 57.6 307.584 
L 414.72 307.584 
" style="fill:none;stroke:#000000;stroke-linecap:square;stroke-linejoin:miter;stroke-width:0.8;"/>
   </g>
   <g id="patch_6">
    <path d="M 57.6 41.472 
L 414.72 41.472 
" style="fill:none;stroke:#000000;stroke-linecap:square;stroke-linejoin:miter;stroke-width:0.8;"/>
   </g>
   <g id="text_15">
    <!-- Population's average and best fitness -->
    <defs>
     <path d="M 19.671875 64.796875 
L 19.671875 37.40625 
L 32.078125 37.40625 
Q 38.96875 37.40625 42.71875 40.96875 
Q 46.484375 44.53125 46.484375 51.125 
Q 46.484375 57.671875 42.71875 61.234375 
Q 38.96875 64.796875 32.078125 64.796875 
z
M 9.8125 72.90625 
L 32.078125 72.90625 
Q 44.34375 72.90625 50.609375 67.359375 
Q 56.890625 61.8125 56.890625 51.125 
Q 56.890625 40.328125 50.609375 34.8125 
Q 44.34375 29.296875 32.078125 29.296875 
L 19.671875 29.296875 
L 19.671875 0 
L 9.8125 0 
z
" id="DejaVuSans-80"/>
     <path d="M 18.109375 8.203125 
L 18.109375 -20.796875 
L 9.078125 -20.796875 
L 9.078125 54.6875 
L 18.109375 54.6875 
L 18.109375 46.390625 
Q 20.953125 51.265625 25.265625 53.625 
Q 29.59375 56 35.59375 56 
Q 45.5625 56 51.78125 48.09375 
Q 58.015625 40.1875 58.015625 27.296875 
Q 58.015625 14.40625 51.78125 6.484375 
Q 45.5625 -1.421875 35.59375 -1.421875 
Q 29.59375 -1.421875 25.265625 0.953125 
Q 20.953125 3.328125 18.109375 8.203125 
z
M 48.6875 27.296875 
Q 48.6875 37.203125 44.609375 42.84375 
Q 40.53125 48.484375 33.40625 48.484375 
Q 26.265625 48.484375 22.1875 42.84375 
Q 18.109375 37.203125 18.109375 27.296875 
Q 18.109375 17.390625 22.1875 11.75 
Q 26.265625 6.109375 33.40625 6.109375 
Q 40.53125 6.109375 44.609375 11.75 
Q 48.6875 17.390625 48.6875 27.296875 
z
" id="DejaVuSans-112"/>
     <path d="M 8.5 21.578125 
L 8.5 54.6875 
L 17.484375 54.6875 
L 17.484375 21.921875 
Q 17.484375 14.15625 20.5 10.265625 
Q 23.53125 6.390625 29.59375 6.390625 
Q 36.859375 6.390625 41.078125 11.03125 
Q 45.3125 15.671875 45.3125 23.6875 
L 45.3125 54.6875 
L 54.296875 54.6875 
L 54.296875 0 
L 45.3125 0 
L 45.3125 8.40625 
Q 42.046875 3.421875 37.71875 1 
Q 33.40625 -1.421875 27.6875 -1.421875 
Q 18.265625 -1.421875 13.375 4.4375 
Q 8.5 10.296875 8.5 21.578125 
z
M 31.109375 56 
z
" id="DejaVuSans-117"/>
     <path d="M 9.421875 75.984375 
L 18.40625 75.984375 
L 18.40625 0 
L 9.421875 0 
z
" id="DejaVuSans-108"/>
     <path d="M 17.921875 72.90625 
L 17.921875 45.796875 
L 9.625 45.796875 
L 9.625 72.90625 
z
" id="DejaVuSans-39"/>
     <path id="DejaVuSans-32"/>
     <path d="M 2.984375 54.6875 
L 12.5 54.6875 
L 29.59375 8.796875 
L 46.6875 54.6875 
L 56.203125 54.6875 
L 35.6875 0 
L 23.484375 0 
z
" id="DejaVuSans-118"/>
     <path d="M 45.40625 27.984375 
Q 45.40625 37.75 41.375 43.109375 
Q 37.359375 48.484375 30.078125 48.484375 
Q 22.859375 48.484375 18.828125 43.109375 
Q 14.796875 37.75 14.796875 27.984375 
Q 14.796875 18.265625 18.828125 12.890625 
Q 22.859375 7.515625 30.078125 7.515625 
Q 37.359375 7.515625 41.375 12.890625 
Q 45.40625 18.265625 45.40625 27.984375 
z
M 54.390625 6.78125 
Q 54.390625 -7.171875 48.1875 -13.984375 
Q 42 -20.796875 29.203125 -20.796875 
Q 24.46875 -20.796875 20.265625 -20.09375 
Q 16.0625 -19.390625 12.109375 -17.921875 
L 12.109375 -9.1875 
Q 16.0625 -11.328125 19.921875 -12.34375 
Q 23.78125 -13.375 27.78125 -13.375 
Q 36.625 -13.375 41.015625 -8.765625 
Q 45.40625 -4.15625 45.40625 5.171875 
L 45.40625 9.625 
Q 42.625 4.78125 38.28125 2.390625 
Q 33.9375 0 27.875 0 
Q 17.828125 0 11.671875 7.65625 
Q 5.515625 15.328125 5.515625 27.984375 
Q 5.515625 40.671875 11.671875 48.328125 
Q 17.828125 56 27.875 56 
Q 33.9375 56 38.28125 53.609375 
Q 42.625 51.21875 45.40625 46.390625 
L 45.40625 54.6875 
L 54.390625 54.6875 
z
" id="DejaVuSans-103"/>
     <path d="M 45.40625 46.390625 
L 45.40625 75.984375 
L 54.390625 75.984375 
L 54.390625 0 
L 45.40625 0 
L 45.40625 8.203125 
Q 42.578125 3.328125 38.25 0.953125 
Q 33.9375 -1.421875 27.875 -1.421875 
Q 17.96875 -1.421875 11.734375 6.484375 
Q 5.515625 14.40625 5.515625 27.296875 
Q 5.515625 40.1875 11.734375 48.09375 
Q 17.96875 56 27.875 56 
Q 33.9375 56 38.25 53.625 
Q 42.578125 51.265625 45.40625 46.390625 
z
M 14.796875 27.296875 
Q 14.796875 17.390625 18.875 11.75 
Q 22.953125 6.109375 30.078125 6.109375 
Q 37.203125 6.109375 41.296875 11.75 
Q 45.40625 17.390625 45.40625 27.296875 
Q 45.40625 37.203125 41.296875 42.84375 
Q 37.203125 48.484375 30.078125 48.484375 
Q 22.953125 48.484375 18.875 42.84375 
Q 14.796875 37.203125 14.796875 27.296875 
z
" id="DejaVuSans-100"/>
     <path d="M 48.6875 27.296875 
Q 48.6875 37.203125 44.609375 42.84375 
Q 40.53125 48.484375 33.40625 48.484375 
Q 26.265625 48.484375 22.1875 42.84375 
Q 18.109375 37.203125 18.109375 27.296875 
Q 18.109375 17.390625 22.1875 11.75 
Q 26.265625 6.109375 33.40625 6.109375 
Q 40.53125 6.109375 44.609375 11.75 
Q 48.6875 17.390625 48.6875 27.296875 
z
M 18.109375 46.390625 
Q 20.953125 51.265625 25.265625 53.625 
Q 29.59375 56 35.59375 56 
Q 45.5625 56 51.78125 48.09375 
Q 58.015625 40.1875 58.015625 27.296875 
Q 58.015625 14.40625 51.78125 6.484375 
Q 45.5625 -1.421875 35.59375 -1.421875 
Q 29.59375 -1.421875 25.265625 0.953125 
Q 20.953125 3.328125 18.109375 8.203125 
L 18.109375 0 
L 9.078125 0 
L 9.078125 75.984375 
L 18.109375 75.984375 
z
" id="DejaVuSans-98"/>
     <path d="M 37.109375 75.984375 
L 37.109375 68.5 
L 28.515625 68.5 
Q 23.6875 68.5 21.796875 66.546875 
Q 19.921875 64.59375 19.921875 59.515625 
L 19.921875 54.6875 
L 34.71875 54.6875 
L 34.71875 47.703125 
L 19.921875 47.703125 
L 19.921875 0 
L 10.890625 0 
L 10.890625 47.703125 
L 2.296875 47.703125 
L 2.296875 54.6875 
L 10.890625 54.6875 
L 10.890625 58.5 
Q 10.890625 67.625 15.140625 71.796875 
Q 19.390625 75.984375 28.609375 75.984375 
z
" id="DejaVuSans-102"/>
    </defs>
    <g transform="translate(123.315 35.472)scale(0.12 -0.12)">
     <use xlink:href="#DejaVuSans-80"/>
     <use x="60.255859" xlink:href="#DejaVuSans-111"/>
     <use x="121.4375" xlink:href="#DejaVuSans-112"/>
     <use x="184.914062" xlink:href="#DejaVuSans-117"/>
     <use x="248.292969" xlink:href="#DejaVuSans-108"/>
     <use x="276.076172" xlink:href="#DejaVuSans-97"/>
     <use x="337.355469" xlink:href="#DejaVuSans-116"/>
     <use x="376.564453" xlink:href="#DejaVuSans-105"/>
     <use x="404.347656" xlink:href="#DejaVuSans-111"/>
     <use x="465.529297" xlink:href="#DejaVuSans-110"/>
     <use x="528.908203" xlink:href="#DejaVuSans-39"/>
     <use x="556.398438" xlink:href="#DejaVuSans-115"/>
     <use x="608.498047" xlink:href="#DejaVuSans-32"/>
     <use x="640.285156" xlink:href="#DejaVuSans-97"/>
     <use x="701.564453" xlink:href="#DejaVuSans-118"/>
     <use x="760.744141" xlink:href="#DejaVuSans-101"/>
     <use x="822.267578" xlink:href="#DejaVuSans-114"/>
     <use x="863.380859" xlink:href="#DejaVuSans-97"/>
     <use x="924.660156" xlink:href="#DejaVuSans-103"/>
     <use x="988.136719" xlink:href="#DejaVuSans-101"/>
     <use x="1049.660156" xlink:href="#DejaVuSans-32"/>
     <use x="1081.447266" xlink:href="#DejaVuSans-97"/>
     <use x="1142.726562" xlink:href="#DejaVuSans-110"/>
     <use x="1206.105469" xlink:href="#DejaVuSans-100"/>
     <use x="1269.582031" xlink:href="#DejaVuSans-32"/>
     <use x="1301.369141" xlink:href="#DejaVuSans-98"/>
     <use x="1364.845703" xlink:href="#DejaVuSans-101"/>
     <use x="1426.369141" xlink:href="#DejaVuSans-115"/>
     <use x="1478.46875" xlink:href="#DejaVuSans-116"/>
     <use x="1517.677734" xlink:href="#DejaVuSans-32"/>
     <use x="1549.464844" xlink:href="#DejaVuSans-102"/>
     <use x="1584.669922" xlink:href="#DejaVuSans-105"/>
     <use x="1612.453125" xlink:href="#DejaVuSans-116"/>
     <use x="1651.662109" xlink:href="#DejaVuSans-110"/>
     <use x="1715.041016" xlink:href="#DejaVuSans-101"/>
     <use x="1776.564453" xlink:href="#DejaVuSans-115"/>
     <use x="1828.664062" xlink:href="#DejaVuSans-115"/>
    </g>
   </g>
   <g id="legend_1">
    <g id="patch_7">
     <path d="M 64.6 108.1845 
L 137.540625 108.1845 
Q 139.540625 108.1845 139.540625 106.1845 
L 139.540625 48.472 
Q 139.540625 46.472 137.540625 46.472 
L 64.6 46.472 
Q 62.6 46.472 62.6 48.472 
L 62.6 106.1845 
Q 62.6 108.1845 64.6 108.1845 
z
" style="fill:#ffffff;opacity:0.8;stroke:#cccccc;stroke-linejoin:miter;"/>
    </g>
    <g id="line2d_29">
     <path d="M 66.6 54.570438 
L 86.6 54.570438 
" style="fill:none;stroke:#0000ff;stroke-linecap:square;stroke-width:1.5;"/>
    </g>
    <g id="line2d_30"/>
    <g id="text_16">
     <!-- average -->
     <g transform="translate(94.6 58.070438)scale(0.1 -0.1)">
      <use xlink:href="#DejaVuSans-97"/>
      <use x="61.279297" xlink:href="#DejaVuSans-118"/>
      <use x="120.458984" xlink:href="#DejaVuSans-101"/>
      <use x="181.982422" xlink:href="#DejaVuSans-114"/>
      <use x="223.095703" xlink:href="#DejaVuSans-97"/>
      <use x="284.375" xlink:href="#DejaVuSans-103"/>
      <use x="347.851562" xlink:href="#DejaVuSans-101"/>
     </g>
    </g>
    <g id="line2d_31">
     <path d="M 66.6 69.248563 
L 86.6 69.248563 
" style="fill:none;stroke:#008000;stroke-dasharray:9.6,2.4,1.5,2.4;stroke-dashoffset:0;stroke-width:1.5;"/>
    </g>
    <g id="line2d_32"/>
    <g id="text_17">
     <!-- -1 sd -->
     <defs>
      <path d="M 4.890625 31.390625 
L 31.203125 31.390625 
L 31.203125 23.390625 
L 4.890625 23.390625 
z
" id="DejaVuSans-45"/>
     </defs>
     <g transform="translate(94.6 72.748563)scale(0.1 -0.1)">
      <use xlink:href="#DejaVuSans-45"/>
      <use x="36.083984" xlink:href="#DejaVuSans-49"/>
      <use x="99.707031" xlink:href="#DejaVuSans-32"/>
      <use x="131.494141" xlink:href="#DejaVuSans-115"/>
      <use x="183.59375" xlink:href="#DejaVuSans-100"/>
     </g>
    </g>
    <g id="line2d_33">
     <path d="M 66.6 83.926688 
L 86.6 83.926688 
" style="fill:none;stroke:#008000;stroke-dasharray:9.6,2.4,1.5,2.4;stroke-dashoffset:0;stroke-width:1.5;"/>
    </g>
    <g id="line2d_34"/>
    <g id="text_18">
     <!-- +1 sd -->
     <defs>
      <path d="M 46 62.703125 
L 46 35.5 
L 73.1875 35.5 
L 73.1875 27.203125 
L 46 27.203125 
L 46 0 
L 37.796875 0 
L 37.796875 27.203125 
L 10.59375 27.203125 
L 10.59375 35.5 
L 37.796875 35.5 
L 37.796875 62.703125 
z
" id="DejaVuSans-43"/>
     </defs>
     <g transform="translate(94.6 87.426688)scale(0.1 -0.1)">
      <use xlink:href="#DejaVuSans-43"/>
      <use x="83.789062" xlink:href="#DejaVuSans-49"/>
      <use x="147.412109" xlink:href="#DejaVuSans-32"/>
      <use x="179.199219" xlink:href="#DejaVuSans-115"/>
      <use x="231.298828" xlink:href="#DejaVuSans-100"/>
     </g>
    </g>
    <g id="line2d_35">
     <path d="M 66.6 98.604813 
L 86.6 98.604813 
" style="fill:none;stroke:#ff0000;stroke-linecap:square;stroke-width:1.5;"/>
    </g>
    <g id="line2d_36"/>
    <g id="text_19">
     <!-- best -->
     <g transform="translate(94.6 102.104813)scale(0.1 -0.1)">
      <use xlink:href="#DejaVuSans-98"/>
      <use x="63.476562" xlink:href="#DejaVuSans-101"/>
      <use x="125" xlink:href="#DejaVuSans-115"/>
      <use x="177.099609" xlink:href="#DejaVuSans-116"/>
     </g>
    </g>
   </g>
  </g>
 </g>
 <defs>
  <clipPath id="p3e23ae9d7e">
   <rect height="266.112" width="357.12" x="57.6" y="41.472"/>
  </clipPath>
 </defs>
</svg>
