<?xml version="1.0" encoding="UTF-8" standalone="no"?>
<!DOCTYPE svg PUBLIC "-//W3C//DTD SVG 1.1//EN"
 "http://www.w3.org/Graphics/SVG/1.1/DTD/svg11.dtd">
<!-- Generated by graphviz version 2.40.1 (20161225.0304)
 -->
<!-- Title: %3 Pages: 1 -->
<svg width="485pt" height="266pt"
 viewBox="0.00 0.00 484.77 265.93" xmlns="http://www.w3.org/2000/svg" xmlns:xlink="http://www.w3.org/1999/xlink">
<g id="graph0" class="graph" transform="scale(1 1) rotate(0) translate(4 261.9326)">
<title>%3</title>
<polygon fill="#ffffff" stroke="transparent" points="-4,4 -4,-261.9326 480.7661,-261.9326 480.7661,4 -4,4"/>
<!-- 0 -->
<g id="node1" class="node">
<title>0</title>
<polygon fill="#d3d3d3" stroke="#000000" points="131.389,-257.9326 111.3771,-257.9326 111.3771,-240.9326 131.389,-240.9326 131.389,-257.9326"/>
<text text-anchor="middle" x="121.383" y="-246.7326" font-family="Times,serif" font-size="9.00" fill="#000000">0</text>
</g>
<!-- 1 -->
<g id="node2" class="node">
<title>1</title>
<polygon fill="#d3d3d3" stroke="#000000" points="190.389,-257.9326 170.3771,-257.9326 170.3771,-240.9326 190.389,-240.9326 190.389,-257.9326"/>
<text text-anchor="middle" x="180.383" y="-246.7326" font-family="Times,serif" font-size="9.00" fill="#000000">1</text>
</g>
<!-- 0&#45;&gt;1 -->
<!-- E3 -->
<g id="node7" class="node">
<title>E3</title>
<ellipse fill="#87cefa" stroke="#000000" cx="183.383" cy="-18.383" rx="18.2668" ry="18.2668"/>
<text text-anchor="middle" x="183.383" y="-15.683" font-family="Times,serif" font-size="9.00" fill="#000000">E3</text>
</g>
<!-- 0&#45;&gt;E3 -->
<g id="edge13" class="edge">
<title>0&#45;&gt;E3</title>
<path fill="none" stroke="#ff0000" stroke-width="1.2525" d="M116.0677,-240.6145C111.1493,-231.9021 104.1884,-218.018 101.383,-204.9326 89.0694,-147.4971 73.6037,-124.523 101.383,-72.7661 101.591,-72.3786 135.4991,-49.9622 159.6412,-34.0337"/>
<polygon fill="#ff0000" stroke="#ff0000" stroke-width="1.2525" points="161.5927,-36.9394 168.0134,-28.5117 157.7385,-31.096 161.5927,-36.9394"/>
</g>
<!-- 2 -->
<g id="node3" class="node">
<title>2</title>
<polygon fill="#d3d3d3" stroke="#000000" points="229.389,-257.9326 209.3771,-257.9326 209.3771,-240.9326 229.389,-240.9326 229.389,-257.9326"/>
<text text-anchor="middle" x="219.383" y="-246.7326" font-family="Times,serif" font-size="9.00" fill="#000000">2</text>
</g>
<!-- 1&#45;&gt;2 -->
<!-- E5 -->
<g id="node9" class="node">
<title>E5</title>
<ellipse fill="#87cefa" stroke="#000000" cx="293.383" cy="-18.383" rx="18.2668" ry="18.2668"/>
<text text-anchor="middle" x="293.383" y="-15.683" font-family="Times,serif" font-size="9.00" fill="#000000">E5</text>
</g>
<!-- 1&#45;&gt;E5 -->
<g id="edge11" class="edge">
<title>1&#45;&gt;E5</title>
<path fill="none" stroke="#ff0000" stroke-width="1.2033" d="M190.5443,-242.9759C202.1773,-235.1577 221.1932,-221.0207 233.383,-204.9326 269.7229,-156.9717 284.4889,-86.2347 290.1453,-47.0876"/>
<polygon fill="#ff0000" stroke="#ff0000" stroke-width="1.2033" points="293.6473,-47.3059 291.5094,-36.929 286.7096,-46.3742 293.6473,-47.3059"/>
</g>
<!-- 4439 -->
<g id="node16" class="node">
<title>4439</title>
<ellipse fill="#add8e6" stroke="#000000" cx="200.383" cy="-180.891" rx="24.0833" ry="24.0833"/>
<text text-anchor="middle" x="200.383" y="-182.691" font-family="Times,serif" font-size="9.00" fill="#000000">4439</text>
<text text-anchor="middle" x="200.383" y="-173.691" font-family="Times,serif" font-size="9.00" fill="#000000">sigm</text>
</g>
<!-- 1&#45;&gt;4439 -->
<g id="edge17" class="edge">
<title>1&#45;&gt;4439</title>
<path fill="none" stroke="#00ff00" stroke-width=".1412" d="M182.9161,-240.7518C184.9184,-233.8895 187.8488,-223.8468 190.7395,-213.9403"/>
<polygon fill="#00ff00" stroke="#00ff00" stroke-width=".1412" points="194.1397,-214.7823 193.581,-204.2022 187.4199,-212.8214 194.1397,-214.7823"/>
</g>
<!-- E7 -->
<g id="node11" class="node">
<title>E7</title>
<ellipse fill="#87cefa" stroke="#000000" cx="403.383" cy="-18.383" rx="18.2668" ry="18.2668"/>
<text text-anchor="middle" x="403.383" y="-15.683" font-family="Times,serif" font-size="9.00" fill="#000000">E7</text>
</g>
<!-- 2&#45;&gt;E7 -->
<g id="edge12" class="edge">
<title>2&#45;&gt;E7</title>
<path fill="none" stroke="#ff0000" stroke-width="1.8808" d="M227.7918,-240.7793C236.2537,-231.9631 249.5648,-217.7961 260.383,-204.9326 308.0838,-148.2137 360.0725,-78.0851 386.2592,-42.1174"/>
<polygon fill="#ff0000" stroke="#ff0000" stroke-width="1.8808" points="389.2999,-43.8865 392.3426,-33.738 383.6353,-39.774 389.2999,-43.8865"/>
</g>
<!-- 3781 -->
<g id="node13" class="node">
<title>3781</title>
<ellipse fill="#add8e6" stroke="#000000" cx="134.383" cy="-180.891" rx="24.0833" ry="24.0833"/>
<text text-anchor="middle" x="134.383" y="-182.691" font-family="Times,serif" font-size="9.00" fill="#000000">3781</text>
<text text-anchor="middle" x="134.383" y="-173.691" font-family="Times,serif" font-size="9.00" fill="#000000">sigm</text>
</g>
<!-- 2&#45;&gt;3781 -->
<g id="edge14" class="edge">
<title>2&#45;&gt;3781</title>
<path fill="none" stroke="#ff0000" stroke-width=".4531" d="M209.2986,-241.3008C197.5399,-231.8189 177.6305,-215.7645 161.2908,-202.5886"/>
<polygon fill="#ff0000" stroke="#ff0000" stroke-width=".4531" points="163.1151,-199.5636 153.1337,-196.011 158.7211,-205.0127 163.1151,-199.5636"/>
</g>
<!-- 5215 -->
<g id="node17" class="node">
<title>5215</title>
<ellipse fill="#add8e6" stroke="#000000" cx="24.383" cy="-96.8077" rx="24.0833" ry="24.0833"/>
<text text-anchor="middle" x="24.383" y="-98.6077" font-family="Times,serif" font-size="9.00" fill="#000000">5215</text>
<text text-anchor="middle" x="24.383" y="-89.6077" font-family="Times,serif" font-size="9.00" fill="#000000">sigm</text>
</g>
<!-- 2&#45;&gt;5215 -->
<g id="edge18" class="edge">
<title>2&#45;&gt;5215</title>
<path fill="none" stroke="#00ff00" stroke-width=".5598" d="M209.249,-245.01C206.101,-243.6674 202.6103,-242.2103 199.383,-240.9326 156.2396,-223.8526 138.266,-233.0882 101.383,-204.9326 74.5388,-184.4403 53.1957,-151.9774 39.8524,-127.9642"/>
<polygon fill="#00ff00" stroke="#00ff00" stroke-width=".5598" points="42.7913,-126.0398 34.9674,-118.8958 36.6286,-129.3596 42.7913,-126.0398"/>
</g>
<!-- E0 -->
<g id="node4" class="node">
<title>E0</title>
<ellipse fill="#87cefa" stroke="#000000" cx="18.383" cy="-18.383" rx="18.2668" ry="18.2668"/>
<text text-anchor="middle" x="18.383" y="-15.683" font-family="Times,serif" font-size="9.00" fill="#000000">E0</text>
</g>
<!-- E1 -->
<g id="node5" class="node">
<title>E1</title>
<ellipse fill="#87cefa" stroke="#000000" cx="73.383" cy="-18.383" rx="18.2668" ry="18.2668"/>
<text text-anchor="middle" x="73.383" y="-15.683" font-family="Times,serif" font-size="9.00" fill="#000000">E1</text>
</g>
<!-- E0&#45;&gt;E1 -->
<!-- E2 -->
<g id="node6" class="node">
<title>E2</title>
<ellipse fill="#87cefa" stroke="#000000" cx="128.383" cy="-18.383" rx="18.2668" ry="18.2668"/>
<text text-anchor="middle" x="128.383" y="-15.683" font-family="Times,serif" font-size="9.00" fill="#000000">E2</text>
</g>
<!-- E1&#45;&gt;E2 -->
<!-- E2&#45;&gt;E3 -->
<!-- E4 -->
<g id="node8" class="node">
<title>E4</title>
<ellipse fill="#87cefa" stroke="#000000" cx="238.383" cy="-18.383" rx="18.2668" ry="18.2668"/>
<text text-anchor="middle" x="238.383" y="-15.683" font-family="Times,serif" font-size="9.00" fill="#000000">E4</text>
</g>
<!-- E3&#45;&gt;E4 -->
<!-- E4&#45;&gt;E5 -->
<!-- E6 -->
<g id="node10" class="node">
<title>E6</title>
<ellipse fill="#87cefa" stroke="#000000" cx="348.383" cy="-18.383" rx="18.2668" ry="18.2668"/>
<text text-anchor="middle" x="348.383" y="-15.683" font-family="Times,serif" font-size="9.00" fill="#000000">E6</text>
</g>
<!-- E5&#45;&gt;E6 -->
<!-- E6&#45;&gt;E7 -->
<!-- E8 -->
<g id="node12" class="node">
<title>E8</title>
<ellipse fill="#87cefa" stroke="#000000" cx="458.383" cy="-18.383" rx="18.2668" ry="18.2668"/>
<text text-anchor="middle" x="458.383" y="-15.683" font-family="Times,serif" font-size="9.00" fill="#000000">E8</text>
</g>
<!-- E7&#45;&gt;E8 -->
<!-- 5429 -->
<g id="node15" class="node">
<title>5429</title>
<ellipse fill="#add8e6" stroke="#000000" cx="134.383" cy="-96.8077" rx="24.0833" ry="24.0833"/>
<text text-anchor="middle" x="134.383" y="-98.6077" font-family="Times,serif" font-size="9.00" fill="#000000">5429</text>
<text text-anchor="middle" x="134.383" y="-89.6077" font-family="Times,serif" font-size="9.00" fill="#000000">sigm</text>
</g>
<!-- 3781&#45;&gt;5429 -->
<g id="edge20" class="edge">
<title>3781&#45;&gt;5429</title>
<path fill="none" stroke="#00ff00" stroke-width=".4905" d="M134.383,-156.5706C134.383,-148.6398 134.383,-139.6791 134.383,-131.1553"/>
<polygon fill="#00ff00" stroke="#00ff00" stroke-width=".4905" points="137.8831,-131.0734 134.383,-121.0734 130.8831,-131.0735 137.8831,-131.0734"/>
</g>
<!-- 4561 -->
<g id="node14" class="node">
<title>4561</title>
<ellipse fill="#add8e6" stroke="#000000" cx="238.383" cy="-96.8077" rx="24.0833" ry="24.0833"/>
<text text-anchor="middle" x="238.383" y="-98.6077" font-family="Times,serif" font-size="9.00" fill="#000000">4561</text>
<text text-anchor="middle" x="238.383" y="-89.6077" font-family="Times,serif" font-size="9.00" fill="#000000">sigm</text>
</g>
<!-- 4561&#45;&gt;E4 -->
<g id="edge16" class="edge">
<title>4561&#45;&gt;E4</title>
<path fill="none" stroke="#ff0000" stroke-width=".2503" d="M238.383,-72.4236C238.383,-64.33 238.383,-55.248 238.383,-46.8729"/>
<polygon fill="#ff0000" stroke="#ff0000" stroke-width=".2503" points="241.8831,-46.7701 238.383,-36.7702 234.8831,-46.7702 241.8831,-46.7701"/>
</g>
<!-- 5429&#45;&gt;E2 -->
<g id="edge21" class="edge">
<title>5429&#45;&gt;E2</title>
<path fill="none" stroke="#00ff00" stroke-width=".1854" d="M132.5175,-72.4236C131.8983,-64.33 131.2035,-55.248 130.5627,-46.8729"/>
<polygon fill="#00ff00" stroke="#00ff00" stroke-width=".1854" points="134.0425,-46.474 129.7898,-36.7702 127.0629,-47.008 134.0425,-46.474"/>
</g>
<!-- 4439&#45;&gt;E3 -->
<g id="edge22" class="edge">
<title>4439&#45;&gt;E3</title>
<path fill="none" stroke="#ff0000" stroke-width=".2707" d="M197.8746,-156.9124C194.8177,-127.6906 189.6572,-78.3599 186.3903,-47.13"/>
<polygon fill="#ff0000" stroke="#ff0000" stroke-width=".2707" points="189.8417,-46.4827 185.3202,-36.9011 182.8797,-47.211 189.8417,-46.4827"/>
</g>
<!-- 4439&#45;&gt;4561 -->
<g id="edge15" class="edge">
<title>4439&#45;&gt;4561</title>
<path fill="none" stroke="#ff0000" stroke-width=".4757" d="M210.3671,-158.7991C214.5998,-149.4334 219.6096,-138.3481 224.214,-128.1599"/>
<polygon fill="#ff0000" stroke="#ff0000" stroke-width=".4757" points="227.5367,-129.3061 228.4657,-118.7521 221.1579,-126.4233 227.5367,-129.3061"/>
</g>
<!-- 5215&#45;&gt;E0 -->
<g id="edge19" class="edge">
<title>5215&#45;&gt;E0</title>
<path fill="none" stroke="#00ff00" stroke-width=".2967" d="M22.5175,-72.4236C21.8983,-64.33 21.2035,-55.248 20.5627,-46.8729"/>
<polygon fill="#00ff00" stroke="#00ff00" stroke-width=".2967" points="24.0425,-46.474 19.7898,-36.7702 17.0629,-47.008 24.0425,-46.474"/>
</g>
</g>
</svg>
