<?xml version="1.0" encoding="utf-8" standalone="no"?>
<!DOCTYPE svg PUBLIC "-//W3C//DTD SVG 1.1//EN"
  "http://www.w3.org/Graphics/SVG/1.1/DTD/svg11.dtd">
<!-- Created with matplotlib (https://matplotlib.org/) -->
<svg height="345.6pt" version="1.1" viewBox="0 0 460.8 345.6" width="460.8pt" xmlns="http://www.w3.org/2000/svg" xmlns:xlink="http://www.w3.org/1999/xlink">
 <defs>
  <style type="text/css">
*{stroke-linecap:butt;stroke-linejoin:round;}
  </style>
 </defs>
 <g id="figure_1">
  <g id="patch_1">
   <path d="M 0 345.6 
L 460.8 345.6 
L 460.8 0 
L 0 0 
z
" style="fill:#ffffff;"/>
  </g>
  <g id="axes_1">
   <g id="patch_2">
    <path d="M 57.6 307.584 
L 414.72 307.584 
L 414.72 41.472 
L 57.6 41.472 
z
" style="fill:#ffffff;"/>
   </g>
   <g id="matplotlib.axis_1">
    <g id="xtick_1">
     <g id="line2d_1">
      <path clip-path="url(#p75f695c7a3)" d="M 73.832727 307.584 
L 73.832727 41.472 
" style="fill:none;stroke:#b0b0b0;stroke-linecap:square;stroke-width:0.8;"/>
     </g>
     <g id="line2d_2">
      <defs>
       <path d="M 0 0 
L 0 3.5 
" id="m16b176be6a" style="stroke:#000000;stroke-width:0.8;"/>
      </defs>
      <g>
       <use style="stroke:#000000;stroke-width:0.8;" x="73.832727" xlink:href="#m16b176be6a" y="307.584"/>
      </g>
     </g>
     <g id="text_1">
      <!-- 0 -->
      <defs>
       <path d="M 31.78125 66.40625 
Q 24.171875 66.40625 20.328125 58.90625 
Q 16.5 51.421875 16.5 36.375 
Q 16.5 21.390625 20.328125 13.890625 
Q 24.171875 6.390625 31.78125 6.390625 
Q 39.453125 6.390625 43.28125 13.890625 
Q 47.125 21.390625 47.125 36.375 
Q 47.125 51.421875 43.28125 58.90625 
Q 39.453125 66.40625 31.78125 66.40625 
z
M 31.78125 74.21875 
Q 44.046875 74.21875 50.515625 64.515625 
Q 56.984375 54.828125 56.984375 36.375 
Q 56.984375 17.96875 50.515625 8.265625 
Q 44.046875 -1.421875 31.78125 -1.421875 
Q 19.53125 -1.421875 13.0625 8.265625 
Q 6.59375 17.96875 6.59375 36.375 
Q 6.59375 54.828125 13.0625 64.515625 
Q 19.53125 74.21875 31.78125 74.21875 
z
" id="DejaVuSans-48"/>
      </defs>
      <g transform="translate(70.651477 322.182437)scale(0.1 -0.1)">
       <use xlink:href="#DejaVuSans-48"/>
      </g>
     </g>
    </g>
    <g id="xtick_2">
     <g id="line2d_3">
      <path clip-path="url(#p75f695c7a3)" d="M 128.122785 307.584 
L 128.122785 41.472 
" style="fill:none;stroke:#b0b0b0;stroke-linecap:square;stroke-width:0.8;"/>
     </g>
     <g id="line2d_4">
      <g>
       <use style="stroke:#000000;stroke-width:0.8;" x="128.122785" xlink:href="#m16b176be6a" y="307.584"/>
      </g>
     </g>
     <g id="text_2">
      <!-- 50 -->
      <defs>
       <path d="M 10.796875 72.90625 
L 49.515625 72.90625 
L 49.515625 64.59375 
L 19.828125 64.59375 
L 19.828125 46.734375 
Q 21.96875 47.46875 24.109375 47.828125 
Q 26.265625 48.1875 28.421875 48.1875 
Q 40.625 48.1875 47.75 41.5 
Q 54.890625 34.8125 54.890625 23.390625 
Q 54.890625 11.625 47.5625 5.09375 
Q 40.234375 -1.421875 26.90625 -1.421875 
Q 22.3125 -1.421875 17.546875 -0.640625 
Q 12.796875 0.140625 7.71875 1.703125 
L 7.71875 11.625 
Q 12.109375 9.234375 16.796875 8.0625 
Q 21.484375 6.890625 26.703125 6.890625 
Q 35.15625 6.890625 40.078125 11.328125 
Q 45.015625 15.765625 45.015625 23.390625 
Q 45.015625 31 40.078125 35.4375 
Q 35.15625 39.890625 26.703125 39.890625 
Q 22.75 39.890625 18.8125 39.015625 
Q 14.890625 38.140625 10.796875 36.28125 
z
" id="DejaVuSans-53"/>
      </defs>
      <g transform="translate(121.760285 322.182437)scale(0.1 -0.1)">
       <use xlink:href="#DejaVuSans-53"/>
       <use x="63.623047" xlink:href="#DejaVuSans-48"/>
      </g>
     </g>
    </g>
    <g id="xtick_3">
     <g id="line2d_5">
      <path clip-path="url(#p75f695c7a3)" d="M 182.412843 307.584 
L 182.412843 41.472 
" style="fill:none;stroke:#b0b0b0;stroke-linecap:square;stroke-width:0.8;"/>
     </g>
     <g id="line2d_6">
      <g>
       <use style="stroke:#000000;stroke-width:0.8;" x="182.412843" xlink:href="#m16b176be6a" y="307.584"/>
      </g>
     </g>
     <g id="text_3">
      <!-- 100 -->
      <defs>
       <path d="M 12.40625 8.296875 
L 28.515625 8.296875 
L 28.515625 63.921875 
L 10.984375 60.40625 
L 10.984375 69.390625 
L 28.421875 72.90625 
L 38.28125 72.90625 
L 38.28125 8.296875 
L 54.390625 8.296875 
L 54.390625 0 
L 12.40625 0 
z
" id="DejaVuSans-49"/>
      </defs>
      <g transform="translate(172.869093 322.182437)scale(0.1 -0.1)">
       <use xlink:href="#DejaVuSans-49"/>
       <use x="63.623047" xlink:href="#DejaVuSans-48"/>
       <use x="127.246094" xlink:href="#DejaVuSans-48"/>
      </g>
     </g>
    </g>
    <g id="xtick_4">
     <g id="line2d_7">
      <path clip-path="url(#p75f695c7a3)" d="M 236.702901 307.584 
L 236.702901 41.472 
" style="fill:none;stroke:#b0b0b0;stroke-linecap:square;stroke-width:0.8;"/>
     </g>
     <g id="line2d_8">
      <g>
       <use style="stroke:#000000;stroke-width:0.8;" x="236.702901" xlink:href="#m16b176be6a" y="307.584"/>
      </g>
     </g>
     <g id="text_4">
      <!-- 150 -->
      <g transform="translate(227.159151 322.182437)scale(0.1 -0.1)">
       <use xlink:href="#DejaVuSans-49"/>
       <use x="63.623047" xlink:href="#DejaVuSans-53"/>
       <use x="127.246094" xlink:href="#DejaVuSans-48"/>
      </g>
     </g>
    </g>
    <g id="xtick_5">
     <g id="line2d_9">
      <path clip-path="url(#p75f695c7a3)" d="M 290.992958 307.584 
L 290.992958 41.472 
" style="fill:none;stroke:#b0b0b0;stroke-linecap:square;stroke-width:0.8;"/>
     </g>
     <g id="line2d_10">
      <g>
       <use style="stroke:#000000;stroke-width:0.8;" x="290.992958" xlink:href="#m16b176be6a" y="307.584"/>
      </g>
     </g>
     <g id="text_5">
      <!-- 200 -->
      <defs>
       <path d="M 19.1875 8.296875 
L 53.609375 8.296875 
L 53.609375 0 
L 7.328125 0 
L 7.328125 8.296875 
Q 12.9375 14.109375 22.625 23.890625 
Q 32.328125 33.6875 34.8125 36.53125 
Q 39.546875 41.84375 41.421875 45.53125 
Q 43.3125 49.21875 43.3125 52.78125 
Q 43.3125 58.59375 39.234375 62.25 
Q 35.15625 65.921875 28.609375 65.921875 
Q 23.96875 65.921875 18.8125 64.3125 
Q 13.671875 62.703125 7.8125 59.421875 
L 7.8125 69.390625 
Q 13.765625 71.78125 18.9375 73 
Q 24.125 74.21875 28.421875 74.21875 
Q 39.75 74.21875 46.484375 68.546875 
Q 53.21875 62.890625 53.21875 53.421875 
Q 53.21875 48.921875 51.53125 44.890625 
Q 49.859375 40.875 45.40625 35.40625 
Q 44.1875 33.984375 37.640625 27.21875 
Q 31.109375 20.453125 19.1875 8.296875 
z
" id="DejaVuSans-50"/>
      </defs>
      <g transform="translate(281.449208 322.182437)scale(0.1 -0.1)">
       <use xlink:href="#DejaVuSans-50"/>
       <use x="63.623047" xlink:href="#DejaVuSans-48"/>
       <use x="127.246094" xlink:href="#DejaVuSans-48"/>
      </g>
     </g>
    </g>
    <g id="xtick_6">
     <g id="line2d_11">
      <path clip-path="url(#p75f695c7a3)" d="M 345.283016 307.584 
L 345.283016 41.472 
" style="fill:none;stroke:#b0b0b0;stroke-linecap:square;stroke-width:0.8;"/>
     </g>
     <g id="line2d_12">
      <g>
       <use style="stroke:#000000;stroke-width:0.8;" x="345.283016" xlink:href="#m16b176be6a" y="307.584"/>
      </g>
     </g>
     <g id="text_6">
      <!-- 250 -->
      <g transform="translate(335.739266 322.182437)scale(0.1 -0.1)">
       <use xlink:href="#DejaVuSans-50"/>
       <use x="63.623047" xlink:href="#DejaVuSans-53"/>
       <use x="127.246094" xlink:href="#DejaVuSans-48"/>
      </g>
     </g>
    </g>
    <g id="xtick_7">
     <g id="line2d_13">
      <path clip-path="url(#p75f695c7a3)" d="M 399.573074 307.584 
L 399.573074 41.472 
" style="fill:none;stroke:#b0b0b0;stroke-linecap:square;stroke-width:0.8;"/>
     </g>
     <g id="line2d_14">
      <g>
       <use style="stroke:#000000;stroke-width:0.8;" x="399.573074" xlink:href="#m16b176be6a" y="307.584"/>
      </g>
     </g>
     <g id="text_7">
      <!-- 300 -->
      <defs>
       <path d="M 40.578125 39.3125 
Q 47.65625 37.796875 51.625 33 
Q 55.609375 28.21875 55.609375 21.1875 
Q 55.609375 10.40625 48.1875 4.484375 
Q 40.765625 -1.421875 27.09375 -1.421875 
Q 22.515625 -1.421875 17.65625 -0.515625 
Q 12.796875 0.390625 7.625 2.203125 
L 7.625 11.71875 
Q 11.71875 9.328125 16.59375 8.109375 
Q 21.484375 6.890625 26.8125 6.890625 
Q 36.078125 6.890625 40.9375 10.546875 
Q 45.796875 14.203125 45.796875 21.1875 
Q 45.796875 27.640625 41.28125 31.265625 
Q 36.765625 34.90625 28.71875 34.90625 
L 20.21875 34.90625 
L 20.21875 43.015625 
L 29.109375 43.015625 
Q 36.375 43.015625 40.234375 45.921875 
Q 44.09375 48.828125 44.09375 54.296875 
Q 44.09375 59.90625 40.109375 62.90625 
Q 36.140625 65.921875 28.71875 65.921875 
Q 24.65625 65.921875 20.015625 65.03125 
Q 15.375 64.15625 9.8125 62.3125 
L 9.8125 71.09375 
Q 15.4375 72.65625 20.34375 73.4375 
Q 25.25 74.21875 29.59375 74.21875 
Q 40.828125 74.21875 47.359375 69.109375 
Q 53.90625 64.015625 53.90625 55.328125 
Q 53.90625 49.265625 50.4375 45.09375 
Q 46.96875 40.921875 40.578125 39.3125 
z
" id="DejaVuSans-51"/>
      </defs>
      <g transform="translate(390.029324 322.182437)scale(0.1 -0.1)">
       <use xlink:href="#DejaVuSans-51"/>
       <use x="63.623047" xlink:href="#DejaVuSans-48"/>
       <use x="127.246094" xlink:href="#DejaVuSans-48"/>
      </g>
     </g>
    </g>
    <g id="text_8">
     <!-- Generations -->
     <defs>
      <path d="M 59.515625 10.40625 
L 59.515625 29.984375 
L 43.40625 29.984375 
L 43.40625 38.09375 
L 69.28125 38.09375 
L 69.28125 6.78125 
Q 63.578125 2.734375 56.6875 0.65625 
Q 49.8125 -1.421875 42 -1.421875 
Q 24.90625 -1.421875 15.25 8.5625 
Q 5.609375 18.5625 5.609375 36.375 
Q 5.609375 54.25 15.25 64.234375 
Q 24.90625 74.21875 42 74.21875 
Q 49.125 74.21875 55.546875 72.453125 
Q 61.96875 70.703125 67.390625 67.28125 
L 67.390625 56.78125 
Q 61.921875 61.421875 55.765625 63.765625 
Q 49.609375 66.109375 42.828125 66.109375 
Q 29.4375 66.109375 22.71875 58.640625 
Q 16.015625 51.171875 16.015625 36.375 
Q 16.015625 21.625 22.71875 14.15625 
Q 29.4375 6.6875 42.828125 6.6875 
Q 48.046875 6.6875 52.140625 7.59375 
Q 56.25 8.5 59.515625 10.40625 
z
" id="DejaVuSans-71"/>
      <path d="M 56.203125 29.59375 
L 56.203125 25.203125 
L 14.890625 25.203125 
Q 15.484375 15.921875 20.484375 11.0625 
Q 25.484375 6.203125 34.421875 6.203125 
Q 39.59375 6.203125 44.453125 7.46875 
Q 49.3125 8.734375 54.109375 11.28125 
L 54.109375 2.78125 
Q 49.265625 0.734375 44.1875 -0.34375 
Q 39.109375 -1.421875 33.890625 -1.421875 
Q 20.796875 -1.421875 13.15625 6.1875 
Q 5.515625 13.8125 5.515625 26.8125 
Q 5.515625 40.234375 12.765625 48.109375 
Q 20.015625 56 32.328125 56 
Q 43.359375 56 49.78125 48.890625 
Q 56.203125 41.796875 56.203125 29.59375 
z
M 47.21875 32.234375 
Q 47.125 39.59375 43.09375 43.984375 
Q 39.0625 48.390625 32.421875 48.390625 
Q 24.90625 48.390625 20.390625 44.140625 
Q 15.875 39.890625 15.1875 32.171875 
z
" id="DejaVuSans-101"/>
      <path d="M 54.890625 33.015625 
L 54.890625 0 
L 45.90625 0 
L 45.90625 32.71875 
Q 45.90625 40.484375 42.875 44.328125 
Q 39.84375 48.1875 33.796875 48.1875 
Q 26.515625 48.1875 22.3125 43.546875 
Q 18.109375 38.921875 18.109375 30.90625 
L 18.109375 0 
L 9.078125 0 
L 9.078125 54.6875 
L 18.109375 54.6875 
L 18.109375 46.1875 
Q 21.34375 51.125 25.703125 53.5625 
Q 30.078125 56 35.796875 56 
Q 45.21875 56 50.046875 50.171875 
Q 54.890625 44.34375 54.890625 33.015625 
z
" id="DejaVuSans-110"/>
      <path d="M 41.109375 46.296875 
Q 39.59375 47.171875 37.8125 47.578125 
Q 36.03125 48 33.890625 48 
Q 26.265625 48 22.1875 43.046875 
Q 18.109375 38.09375 18.109375 28.8125 
L 18.109375 0 
L 9.078125 0 
L 9.078125 54.6875 
L 18.109375 54.6875 
L 18.109375 46.1875 
Q 20.953125 51.171875 25.484375 53.578125 
Q 30.03125 56 36.53125 56 
Q 37.453125 56 38.578125 55.875 
Q 39.703125 55.765625 41.0625 55.515625 
z
" id="DejaVuSans-114"/>
      <path d="M 34.28125 27.484375 
Q 23.390625 27.484375 19.1875 25 
Q 14.984375 22.515625 14.984375 16.5 
Q 14.984375 11.71875 18.140625 8.90625 
Q 21.296875 6.109375 26.703125 6.109375 
Q 34.1875 6.109375 38.703125 11.40625 
Q 43.21875 16.703125 43.21875 25.484375 
L 43.21875 27.484375 
z
M 52.203125 31.203125 
L 52.203125 0 
L 43.21875 0 
L 43.21875 8.296875 
Q 40.140625 3.328125 35.546875 0.953125 
Q 30.953125 -1.421875 24.3125 -1.421875 
Q 15.921875 -1.421875 10.953125 3.296875 
Q 6 8.015625 6 15.921875 
Q 6 25.140625 12.171875 29.828125 
Q 18.359375 34.515625 30.609375 34.515625 
L 43.21875 34.515625 
L 43.21875 35.40625 
Q 43.21875 41.609375 39.140625 45 
Q 35.0625 48.390625 27.6875 48.390625 
Q 23 48.390625 18.546875 47.265625 
Q 14.109375 46.140625 10.015625 43.890625 
L 10.015625 52.203125 
Q 14.9375 54.109375 19.578125 55.046875 
Q 24.21875 56 28.609375 56 
Q 40.484375 56 46.34375 49.84375 
Q 52.203125 43.703125 52.203125 31.203125 
z
" id="DejaVuSans-97"/>
      <path d="M 18.3125 70.21875 
L 18.3125 54.6875 
L 36.8125 54.6875 
L 36.8125 47.703125 
L 18.3125 47.703125 
L 18.3125 18.015625 
Q 18.3125 11.328125 20.140625 9.421875 
Q 21.96875 7.515625 27.59375 7.515625 
L 36.8125 7.515625 
L 36.8125 0 
L 27.59375 0 
Q 17.1875 0 13.234375 3.875 
Q 9.28125 7.765625 9.28125 18.015625 
L 9.28125 47.703125 
L 2.6875 47.703125 
L 2.6875 54.6875 
L 9.28125 54.6875 
L 9.28125 70.21875 
z
" id="DejaVuSans-116"/>
      <path d="M 9.421875 54.6875 
L 18.40625 54.6875 
L 18.40625 0 
L 9.421875 0 
z
M 9.421875 75.984375 
L 18.40625 75.984375 
L 18.40625 64.59375 
L 9.421875 64.59375 
z
" id="DejaVuSans-105"/>
      <path d="M 30.609375 48.390625 
Q 23.390625 48.390625 19.1875 42.75 
Q 14.984375 37.109375 14.984375 27.296875 
Q 14.984375 17.484375 19.15625 11.84375 
Q 23.34375 6.203125 30.609375 6.203125 
Q 37.796875 6.203125 41.984375 11.859375 
Q 46.1875 17.53125 46.1875 27.296875 
Q 46.1875 37.015625 41.984375 42.703125 
Q 37.796875 48.390625 30.609375 48.390625 
z
M 30.609375 56 
Q 42.328125 56 49.015625 48.375 
Q 55.71875 40.765625 55.71875 27.296875 
Q 55.71875 13.875 49.015625 6.21875 
Q 42.328125 -1.421875 30.609375 -1.421875 
Q 18.84375 -1.421875 12.171875 6.21875 
Q 5.515625 13.875 5.515625 27.296875 
Q 5.515625 40.765625 12.171875 48.375 
Q 18.84375 56 30.609375 56 
z
" id="DejaVuSans-111"/>
      <path d="M 44.28125 53.078125 
L 44.28125 44.578125 
Q 40.484375 46.53125 36.375 47.5 
Q 32.28125 48.484375 27.875 48.484375 
Q 21.1875 48.484375 17.84375 46.4375 
Q 14.5 44.390625 14.5 40.28125 
Q 14.5 37.15625 16.890625 35.375 
Q 19.28125 33.59375 26.515625 31.984375 
L 29.59375 31.296875 
Q 39.15625 29.25 43.1875 25.515625 
Q 47.21875 21.78125 47.21875 15.09375 
Q 47.21875 7.46875 41.1875 3.015625 
Q 35.15625 -1.421875 24.609375 -1.421875 
Q 20.21875 -1.421875 15.453125 -0.5625 
Q 10.6875 0.296875 5.421875 2 
L 5.421875 11.28125 
Q 10.40625 8.6875 15.234375 7.390625 
Q 20.0625 6.109375 24.8125 6.109375 
Q 31.15625 6.109375 34.5625 8.28125 
Q 37.984375 10.453125 37.984375 14.40625 
Q 37.984375 18.0625 35.515625 20.015625 
Q 33.0625 21.96875 24.703125 23.78125 
L 21.578125 24.515625 
Q 13.234375 26.265625 9.515625 29.90625 
Q 5.8125 33.546875 5.8125 39.890625 
Q 5.8125 47.609375 11.28125 51.796875 
Q 16.75 56 26.8125 56 
Q 31.78125 56 36.171875 55.265625 
Q 40.578125 54.546875 44.28125 53.078125 
z
" id="DejaVuSans-115"/>
     </defs>
     <g transform="translate(205.662344 335.860562)scale(0.1 -0.1)">
      <use xlink:href="#DejaVuSans-71"/>
      <use x="77.490234" xlink:href="#DejaVuSans-101"/>
      <use x="139.013672" xlink:href="#DejaVuSans-110"/>
      <use x="202.392578" xlink:href="#DejaVuSans-101"/>
      <use x="263.916016" xlink:href="#DejaVuSans-114"/>
      <use x="305.029297" xlink:href="#DejaVuSans-97"/>
      <use x="366.308594" xlink:href="#DejaVuSans-116"/>
      <use x="405.517578" xlink:href="#DejaVuSans-105"/>
      <use x="433.300781" xlink:href="#DejaVuSans-111"/>
      <use x="494.482422" xlink:href="#DejaVuSans-110"/>
      <use x="557.861328" xlink:href="#DejaVuSans-115"/>
     </g>
    </g>
   </g>
   <g id="matplotlib.axis_2">
    <g id="ytick_1">
     <g id="line2d_15">
      <path clip-path="url(#p75f695c7a3)" d="M 57.6 275.578026 
L 414.72 275.578026 
" style="fill:none;stroke:#b0b0b0;stroke-linecap:square;stroke-width:0.8;"/>
     </g>
     <g id="line2d_16">
      <defs>
       <path d="M 0 0 
L -3.5 0 
" id="m6970ec9686" style="stroke:#000000;stroke-width:0.8;"/>
      </defs>
      <g>
       <use style="stroke:#000000;stroke-width:0.8;" x="57.6" xlink:href="#m6970ec9686" y="275.578026"/>
      </g>
     </g>
     <g id="text_9">
      <!-- 600 -->
      <defs>
       <path d="M 33.015625 40.375 
Q 26.375 40.375 22.484375 35.828125 
Q 18.609375 31.296875 18.609375 23.390625 
Q 18.609375 15.53125 22.484375 10.953125 
Q 26.375 6.390625 33.015625 6.390625 
Q 39.65625 6.390625 43.53125 10.953125 
Q 47.40625 15.53125 47.40625 23.390625 
Q 47.40625 31.296875 43.53125 35.828125 
Q 39.65625 40.375 33.015625 40.375 
z
M 52.59375 71.296875 
L 52.59375 62.3125 
Q 48.875 64.0625 45.09375 64.984375 
Q 41.3125 65.921875 37.59375 65.921875 
Q 27.828125 65.921875 22.671875 59.328125 
Q 17.53125 52.734375 16.796875 39.40625 
Q 19.671875 43.65625 24.015625 45.921875 
Q 28.375 48.1875 33.59375 48.1875 
Q 44.578125 48.1875 50.953125 41.515625 
Q 57.328125 34.859375 57.328125 23.390625 
Q 57.328125 12.15625 50.6875 5.359375 
Q 44.046875 -1.421875 33.015625 -1.421875 
Q 20.359375 -1.421875 13.671875 8.265625 
Q 6.984375 17.96875 6.984375 36.375 
Q 6.984375 53.65625 15.1875 63.9375 
Q 23.390625 74.21875 37.203125 74.21875 
Q 40.921875 74.21875 44.703125 73.484375 
Q 48.484375 72.75 52.59375 71.296875 
z
" id="DejaVuSans-54"/>
      </defs>
      <g transform="translate(31.5125 279.377245)scale(0.1 -0.1)">
       <use xlink:href="#DejaVuSans-54"/>
       <use x="63.623047" xlink:href="#DejaVuSans-48"/>
       <use x="127.246094" xlink:href="#DejaVuSans-48"/>
      </g>
     </g>
    </g>
    <g id="ytick_2">
     <g id="line2d_17">
      <path clip-path="url(#p75f695c7a3)" d="M 57.6 242.854162 
L 414.72 242.854162 
" style="fill:none;stroke:#b0b0b0;stroke-linecap:square;stroke-width:0.8;"/>
     </g>
     <g id="line2d_18">
      <g>
       <use style="stroke:#000000;stroke-width:0.8;" x="57.6" xlink:href="#m6970ec9686" y="242.854162"/>
      </g>
     </g>
     <g id="text_10">
      <!-- 800 -->
      <defs>
       <path d="M 31.78125 34.625 
Q 24.75 34.625 20.71875 30.859375 
Q 16.703125 27.09375 16.703125 20.515625 
Q 16.703125 13.921875 20.71875 10.15625 
Q 24.75 6.390625 31.78125 6.390625 
Q 38.8125 6.390625 42.859375 10.171875 
Q 46.921875 13.96875 46.921875 20.515625 
Q 46.921875 27.09375 42.890625 30.859375 
Q 38.875 34.625 31.78125 34.625 
z
M 21.921875 38.8125 
Q 15.578125 40.375 12.03125 44.71875 
Q 8.5 49.078125 8.5 55.328125 
Q 8.5 64.0625 14.71875 69.140625 
Q 20.953125 74.21875 31.78125 74.21875 
Q 42.671875 74.21875 48.875 69.140625 
Q 55.078125 64.0625 55.078125 55.328125 
Q 55.078125 49.078125 51.53125 44.71875 
Q 48 40.375 41.703125 38.8125 
Q 48.828125 37.15625 52.796875 32.3125 
Q 56.78125 27.484375 56.78125 20.515625 
Q 56.78125 9.90625 50.3125 4.234375 
Q 43.84375 -1.421875 31.78125 -1.421875 
Q 19.734375 -1.421875 13.25 4.234375 
Q 6.78125 9.90625 6.78125 20.515625 
Q 6.78125 27.484375 10.78125 32.3125 
Q 14.796875 37.15625 21.921875 38.8125 
z
M 18.3125 54.390625 
Q 18.3125 48.734375 21.84375 45.5625 
Q 25.390625 42.390625 31.78125 42.390625 
Q 38.140625 42.390625 41.71875 45.5625 
Q 45.3125 48.734375 45.3125 54.390625 
Q 45.3125 60.0625 41.71875 63.234375 
Q 38.140625 66.40625 31.78125 66.40625 
Q 25.390625 66.40625 21.84375 63.234375 
Q 18.3125 60.0625 18.3125 54.390625 
z
" id="DejaVuSans-56"/>
      </defs>
      <g transform="translate(31.5125 246.653381)scale(0.1 -0.1)">
       <use xlink:href="#DejaVuSans-56"/>
       <use x="63.623047" xlink:href="#DejaVuSans-48"/>
       <use x="127.246094" xlink:href="#DejaVuSans-48"/>
      </g>
     </g>
    </g>
    <g id="ytick_3">
     <g id="line2d_19">
      <path clip-path="url(#p75f695c7a3)" d="M 57.6 210.130298 
L 414.72 210.130298 
" style="fill:none;stroke:#b0b0b0;stroke-linecap:square;stroke-width:0.8;"/>
     </g>
     <g id="line2d_20">
      <g>
       <use style="stroke:#000000;stroke-width:0.8;" x="57.6" xlink:href="#m6970ec9686" y="210.130298"/>
      </g>
     </g>
     <g id="text_11">
      <!-- 1000 -->
      <g transform="translate(25.15 213.929517)scale(0.1 -0.1)">
       <use xlink:href="#DejaVuSans-49"/>
       <use x="63.623047" xlink:href="#DejaVuSans-48"/>
       <use x="127.246094" xlink:href="#DejaVuSans-48"/>
       <use x="190.869141" xlink:href="#DejaVuSans-48"/>
      </g>
     </g>
    </g>
    <g id="ytick_4">
     <g id="line2d_21">
      <path clip-path="url(#p75f695c7a3)" d="M 57.6 177.406434 
L 414.72 177.406434 
" style="fill:none;stroke:#b0b0b0;stroke-linecap:square;stroke-width:0.8;"/>
     </g>
     <g id="line2d_22">
      <g>
       <use style="stroke:#000000;stroke-width:0.8;" x="57.6" xlink:href="#m6970ec9686" y="177.406434"/>
      </g>
     </g>
     <g id="text_12">
      <!-- 1200 -->
      <g transform="translate(25.15 181.205653)scale(0.1 -0.1)">
       <use xlink:href="#DejaVuSans-49"/>
       <use x="63.623047" xlink:href="#DejaVuSans-50"/>
       <use x="127.246094" xlink:href="#DejaVuSans-48"/>
       <use x="190.869141" xlink:href="#DejaVuSans-48"/>
      </g>
     </g>
    </g>
    <g id="ytick_5">
     <g id="line2d_23">
      <path clip-path="url(#p75f695c7a3)" d="M 57.6 144.68257 
L 414.72 144.68257 
" style="fill:none;stroke:#b0b0b0;stroke-linecap:square;stroke-width:0.8;"/>
     </g>
     <g id="line2d_24">
      <g>
       <use style="stroke:#000000;stroke-width:0.8;" x="57.6" xlink:href="#m6970ec9686" y="144.68257"/>
      </g>
     </g>
     <g id="text_13">
      <!-- 1400 -->
      <defs>
       <path d="M 37.796875 64.3125 
L 12.890625 25.390625 
L 37.796875 25.390625 
z
M 35.203125 72.90625 
L 47.609375 72.90625 
L 47.609375 25.390625 
L 58.015625 25.390625 
L 58.015625 17.1875 
L 47.609375 17.1875 
L 47.609375 0 
L 37.796875 0 
L 37.796875 17.1875 
L 4.890625 17.1875 
L 4.890625 26.703125 
z
" id="DejaVuSans-52"/>
      </defs>
      <g transform="translate(25.15 148.481789)scale(0.1 -0.1)">
       <use xlink:href="#DejaVuSans-49"/>
       <use x="63.623047" xlink:href="#DejaVuSans-52"/>
       <use x="127.246094" xlink:href="#DejaVuSans-48"/>
       <use x="190.869141" xlink:href="#DejaVuSans-48"/>
      </g>
     </g>
    </g>
    <g id="ytick_6">
     <g id="line2d_25">
      <path clip-path="url(#p75f695c7a3)" d="M 57.6 111.958706 
L 414.72 111.958706 
" style="fill:none;stroke:#b0b0b0;stroke-linecap:square;stroke-width:0.8;"/>
     </g>
     <g id="line2d_26">
      <g>
       <use style="stroke:#000000;stroke-width:0.8;" x="57.6" xlink:href="#m6970ec9686" y="111.958706"/>
      </g>
     </g>
     <g id="text_14">
      <!-- 1600 -->
      <g transform="translate(25.15 115.757925)scale(0.1 -0.1)">
       <use xlink:href="#DejaVuSans-49"/>
       <use x="63.623047" xlink:href="#DejaVuSans-54"/>
       <use x="127.246094" xlink:href="#DejaVuSans-48"/>
       <use x="190.869141" xlink:href="#DejaVuSans-48"/>
      </g>
     </g>
    </g>
    <g id="ytick_7">
     <g id="line2d_27">
      <path clip-path="url(#p75f695c7a3)" d="M 57.6 79.234842 
L 414.72 79.234842 
" style="fill:none;stroke:#b0b0b0;stroke-linecap:square;stroke-width:0.8;"/>
     </g>
     <g id="line2d_28">
      <g>
       <use style="stroke:#000000;stroke-width:0.8;" x="57.6" xlink:href="#m6970ec9686" y="79.234842"/>
      </g>
     </g>
     <g id="text_15">
      <!-- 1800 -->
      <g transform="translate(25.15 83.034061)scale(0.1 -0.1)">
       <use xlink:href="#DejaVuSans-49"/>
       <use x="63.623047" xlink:href="#DejaVuSans-56"/>
       <use x="127.246094" xlink:href="#DejaVuSans-48"/>
       <use x="190.869141" xlink:href="#DejaVuSans-48"/>
      </g>
     </g>
    </g>
    <g id="ytick_8">
     <g id="line2d_29">
      <path clip-path="url(#p75f695c7a3)" d="M 57.6 46.510978 
L 414.72 46.510978 
" style="fill:none;stroke:#b0b0b0;stroke-linecap:square;stroke-width:0.8;"/>
     </g>
     <g id="line2d_30">
      <g>
       <use style="stroke:#000000;stroke-width:0.8;" x="57.6" xlink:href="#m6970ec9686" y="46.510978"/>
      </g>
     </g>
     <g id="text_16">
      <!-- 2000 -->
      <g transform="translate(25.15 50.310197)scale(0.1 -0.1)">
       <use xlink:href="#DejaVuSans-50"/>
       <use x="63.623047" xlink:href="#DejaVuSans-48"/>
       <use x="127.246094" xlink:href="#DejaVuSans-48"/>
       <use x="190.869141" xlink:href="#DejaVuSans-48"/>
      </g>
     </g>
    </g>
    <g id="text_17">
     <!-- Fitness -->
     <defs>
      <path d="M 9.8125 72.90625 
L 51.703125 72.90625 
L 51.703125 64.59375 
L 19.671875 64.59375 
L 19.671875 43.109375 
L 48.578125 43.109375 
L 48.578125 34.8125 
L 19.671875 34.8125 
L 19.671875 0 
L 9.8125 0 
z
" id="DejaVuSans-70"/>
     </defs>
     <g transform="translate(19.070312 192.202219)rotate(-90)scale(0.1 -0.1)">
      <use xlink:href="#DejaVuSans-70"/>
      <use x="57.410156" xlink:href="#DejaVuSans-105"/>
      <use x="85.193359" xlink:href="#DejaVuSans-116"/>
      <use x="124.402344" xlink:href="#DejaVuSans-110"/>
      <use x="187.78125" xlink:href="#DejaVuSans-101"/>
      <use x="249.304688" xlink:href="#DejaVuSans-115"/>
      <use x="301.404297" xlink:href="#DejaVuSans-115"/>
     </g>
    </g>
   </g>
   <g id="line2d_31">
    <path clip-path="url(#p75f695c7a3)" d="M 73.832727 290.009055 
L 74.918528 206.034914 
L 76.00433 183.776721 
L 77.090131 186.477049 
L 78.175932 188.763958 
L 79.261733 191.576423 
L 80.347534 214.071791 
L 81.433335 210.514275 
L 82.519137 205.31894 
L 83.604938 195.715066 
L 84.690739 201.259382 
L 85.77654 186.671461 
L 86.862341 190.271789 
L 87.948142 181.24678 
L 89.033943 217.623738 
L 90.119745 184.692078 
L 91.205546 187.461065 
L 92.291347 223.725207 
L 93.377148 193.898615 
L 94.462949 199.435405 
L 95.54875 212.753976 
L 96.634552 204.950045 
L 97.720353 213.822806 
L 98.806154 203.874773 
L 99.891955 192.241553 
L 100.977756 210.489107 
L 102.063557 216.821988 
L 104.23516 183.232788 
L 105.320961 198.692763 
L 106.406762 191.265864 
L 107.492563 202.556309 
L 108.578364 215.506145 
L 109.664165 203.761867 
L 110.749967 188.663562 
L 111.835768 201.903342 
L 112.921569 167.951655 
L 114.00737 166.972477 
L 115.093171 162.952341 
L 116.178972 168.317578 
L 117.264773 174.488622 
L 118.350575 155.321405 
L 119.436376 156.66831 
L 120.522177 139.107794 
L 121.607978 143.907038 
L 122.693779 141.637066 
L 123.77958 142.054871 
L 124.865382 132.230037 
L 125.951183 139.389661 
L 127.036984 162.6402 
L 128.122785 165.496519 
L 129.208586 163.054352 
L 130.294387 161.483067 
L 131.380189 142.665055 
L 132.46599 152.684969 
L 133.551791 150.551303 
L 134.637592 142.859099 
L 135.723393 157.041391 
L 136.809194 147.698704 
L 137.894995 182.693891 
L 138.980797 161.134695 
L 140.066598 178.729419 
L 141.152399 154.458264 
L 142.2382 169.984696 
L 143.324001 149.519537 
L 144.409802 163.607526 
L 145.495604 162.101707 
L 146.581405 159.76655 
L 147.667206 161.497871 
L 148.753007 150.278363 
L 149.838808 169.30085 
L 150.924609 169.445125 
L 152.01041 145.132104 
L 153.096212 152.135086 
L 154.182013 155.287924 
L 155.267814 137.302188 
L 156.353615 132.738079 
L 157.439416 131.137404 
L 158.525217 120.87607 
L 159.611019 139.373076 
L 160.69682 131.054096 
L 161.782621 131.673914 
L 162.868422 121.092438 
L 163.954223 136.273451 
L 165.040024 137.053475 
L 166.125825 135.127804 
L 167.211627 137.557426 
L 168.297428 137.473243 
L 169.383229 137.216728 
L 170.46903 122.663642 
L 171.554831 126.51793 
L 172.640632 134.504052 
L 173.726434 121.885578 
L 174.812235 114.709615 
L 175.898036 130.314641 
L 176.983837 117.967764 
L 178.069638 132.469926 
L 179.155439 148.828105 
L 180.24124 114.709387 
L 181.327042 104.08413 
L 182.412843 111.968298 
L 183.498644 131.077333 
L 184.584445 101.727131 
L 185.670246 116.707861 
L 186.756047 119.824525 
L 187.841849 131.522715 
L 188.92765 151.437798 
L 190.013451 134.028108 
L 192.185053 119.051411 
L 193.270854 132.791765 
L 194.356656 127.948701 
L 195.442457 139.672874 
L 196.528258 124.588128 
L 197.614059 122.691862 
L 198.69986 131.22555 
L 199.785661 147.46248 
L 200.871462 125.658479 
L 201.957264 117.614035 
L 203.043065 113.311113 
L 204.128866 118.936521 
L 205.214667 102.008518 
L 206.300468 108.103027 
L 207.386269 115.557075 
L 208.472071 126.236055 
L 209.557872 121.624321 
L 210.643673 142.27221 
L 211.729474 121.98514 
L 212.815275 118.484032 
L 213.901076 119.973896 
L 214.986877 100.404867 
L 216.072679 127.832044 
L 217.15848 115.25086 
L 218.244281 133.31155 
L 219.330082 128.382097 
L 220.415883 116.519849 
L 221.501684 127.63033 
L 222.587486 126.658785 
L 223.673287 120.70335 
L 224.759088 118.037809 
L 225.844889 107.508848 
L 226.93069 130.562524 
L 228.016491 100.302599 
L 229.102292 129.652764 
L 230.188094 105.951576 
L 231.273895 115.370696 
L 232.359696 101.255153 
L 233.445497 108.973482 
L 234.531298 123.487853 
L 235.617099 110.847131 
L 236.702901 111.263465 
L 237.788702 121.501758 
L 238.874503 124.590118 
L 239.960304 128.972492 
L 241.046105 119.430216 
L 242.131906 116.306341 
L 243.217708 118.651742 
L 244.303509 114.248529 
L 245.38931 111.60341 
L 246.475111 116.806681 
L 247.560912 96.988829 
L 248.646713 132.090282 
L 249.732514 104.485538 
L 250.818316 119.833229 
L 251.904117 119.276257 
L 252.989918 111.678944 
L 254.075719 111.193206 
L 255.16152 116.692147 
L 256.247321 112.765968 
L 257.333123 117.878021 
L 258.418924 115.334982 
L 259.504725 124.721818 
L 260.590526 119.174679 
L 261.676327 117.774854 
L 262.762128 124.274874 
L 264.933731 114.069183 
L 266.019532 103.4695 
L 267.105333 107.904892 
L 268.191134 120.826034 
L 269.276935 121.797215 
L 270.362736 113.835398 
L 271.448538 117.306647 
L 272.534339 111.049633 
L 273.62014 130.357374 
L 274.705941 113.777296 
L 275.791742 126.560138 
L 276.877543 132.36079 
L 277.963344 132.163819 
L 279.049146 145.244688 
L 280.134947 156.031192 
L 281.220748 135.19505 
L 282.306549 109.999544 
L 283.39235 125.925621 
L 284.478151 122.665895 
L 285.563953 112.472555 
L 286.649754 122.545942 
L 287.735555 124.315241 
L 288.821356 131.285613 
L 289.907157 103.222159 
L 290.992958 120.253385 
L 292.07876 118.427429 
L 293.164561 133.068241 
L 294.250362 126.082718 
L 295.336163 127.880296 
L 296.421964 121.017582 
L 297.507765 118.84076 
L 298.593566 116.250167 
L 299.679368 121.437331 
L 300.765169 117.735439 
L 301.85097 120.479176 
L 302.936771 107.104111 
L 304.022572 113.125468 
L 305.108373 120.520977 
L 306.194175 120.042676 
L 307.279976 128.21761 
L 308.365777 121.806693 
L 309.451578 113.570937 
L 310.537379 126.654481 
L 311.62318 130.032051 
L 312.708981 126.52076 
L 313.794783 120.147369 
L 314.880584 98.977634 
L 315.966385 131.642056 
L 317.052186 123.210041 
L 318.137987 135.117353 
L 319.223788 123.226801 
L 320.30959 136.412505 
L 321.395391 121.985068 
L 322.481192 139.809583 
L 323.566993 143.444843 
L 324.652794 157.502128 
L 325.738595 141.193146 
L 326.824396 151.331659 
L 327.910198 135.548962 
L 328.995999 139.657749 
L 330.0818 132.4107 
L 331.167601 123.543759 
L 332.253402 120.583799 
L 333.339203 132.663609 
L 334.425005 135.348649 
L 335.510806 149.31967 
L 336.596607 144.839466 
L 337.682408 123.244856 
L 338.768209 119.753058 
L 339.85401 133.665008 
L 340.939811 143.843568 
L 342.025613 133.355247 
L 343.111414 116.344876 
L 344.197215 128.267902 
L 345.283016 147.453415 
L 346.368817 131.952597 
L 347.454618 128.225725 
L 348.54042 120.103496 
L 349.626221 129.819652 
L 351.797823 116.742976 
L 352.883624 131.832984 
L 353.969425 118.957801 
L 355.055227 124.422366 
L 356.141028 144.223219 
L 357.226829 117.951892 
L 358.31263 138.275157 
L 359.398431 144.964868 
L 360.484232 133.362504 
L 361.570033 166.198921 
L 362.655835 122.702105 
L 363.741636 124.93495 
L 364.827437 112.455386 
L 365.913238 135.001576 
L 366.999039 121.628948 
L 368.08484 144.039731 
L 369.170642 128.349029 
L 370.256443 144.656525 
L 371.342244 133.303095 
L 372.428045 138.761287 
L 373.513846 114.845205 
L 374.599647 113.735816 
L 375.685448 142.594 
L 376.77125 128.25975 
L 377.857051 125.737712 
L 378.942852 114.502839 
L 380.028653 114.94609 
L 381.114454 110.600953 
L 382.200255 118.231397 
L 383.286057 120.902847 
L 384.371858 117.411616 
L 385.457659 127.519605 
L 386.54346 120.532238 
L 387.629261 114.536374 
L 388.715062 123.252949 
L 389.800863 129.653683 
L 390.886665 127.648094 
L 391.972466 126.878147 
L 393.058267 122.761302 
L 394.144068 119.414672 
L 395.229869 131.318025 
L 396.31567 127.0486 
L 397.401472 131.717865 
L 398.487273 111.293693 
L 398.487273 111.293693 
" style="fill:none;stroke:#0000ff;stroke-linecap:square;stroke-width:1.5;"/>
   </g>
   <g id="line2d_32">
    <path clip-path="url(#p75f695c7a3)" d="M 73.832727 295.488 
L 74.918528 212.317733 
L 76.00433 194.789476 
L 77.090131 196.191291 
L 78.175932 204.132514 
L 79.261733 201.642576 
L 80.347534 222.686856 
L 81.433335 225.00618 
L 82.519137 218.742445 
L 83.604938 209.145295 
L 84.690739 215.977949 
L 85.77654 205.018822 
L 86.862341 218.769951 
L 87.948142 219.63309 
L 89.033943 263.833832 
L 90.119745 208.919972 
L 91.205546 214.761647 
L 92.291347 267.77515 
L 93.377148 220.814626 
L 94.462949 217.751141 
L 95.54875 247.166878 
L 96.634552 240.564299 
L 97.720353 232.92604 
L 98.806154 239.191216 
L 99.891955 225.947554 
L 100.977756 244.107151 
L 102.063557 237.435724 
L 103.149358 217.231977 
L 104.23516 209.279661 
L 105.320961 235.271386 
L 106.406762 226.390997 
L 107.492563 223.885912 
L 108.578364 246.398996 
L 110.749967 219.840112 
L 111.835768 218.654408 
L 112.921569 183.981687 
L 114.00737 188.173514 
L 115.093171 201.665372 
L 116.178972 194.456844 
L 117.264773 191.675857 
L 118.350575 172.835963 
L 119.436376 185.093105 
L 120.522177 160.954396 
L 121.607978 166.285796 
L 122.693779 168.882136 
L 124.865382 156.406232 
L 128.122785 214.60597 
L 129.208586 213.47029 
L 130.294387 208.289397 
L 131.380189 171.492032 
L 132.46599 186.900482 
L 133.551791 174.66157 
L 134.637592 166.674734 
L 135.723393 193.06431 
L 136.809194 191.412746 
L 137.894995 225.869854 
L 138.980797 205.184381 
L 140.066598 210.094403 
L 141.152399 197.277426 
L 142.2382 190.962425 
L 143.324001 181.35809 
L 145.495604 202.470537 
L 146.581405 185.437868 
L 147.667206 188.577192 
L 148.753007 190.845012 
L 149.838808 199.471192 
L 150.924609 203.630086 
L 152.01041 178.600796 
L 153.096212 188.210947 
L 154.182013 187.257018 
L 155.267814 165.239982 
L 156.353615 163.816203 
L 157.439416 158.52973 
L 158.525217 140.313536 
L 159.611019 162.954376 
L 160.69682 151.951785 
L 161.782621 159.097545 
L 162.868422 144.961535 
L 163.954223 165.145924 
L 165.040024 168.668782 
L 166.125825 155.41425 
L 167.211627 174.30962 
L 168.297428 163.144678 
L 169.383229 159.27505 
L 170.46903 147.478383 
L 171.554831 162.84156 
L 172.640632 166.849797 
L 173.726434 152.769634 
L 174.812235 133.856803 
L 175.898036 170.770225 
L 176.983837 155.663488 
L 178.069638 175.180925 
L 179.155439 197.187084 
L 180.24124 146.011616 
L 181.327042 129.539251 
L 182.412843 140.902622 
L 183.498644 168.790133 
L 184.584445 135.690892 
L 185.670246 144.702085 
L 186.756047 156.934617 
L 187.841849 159.642098 
L 188.92765 205.254264 
L 191.099252 168.006707 
L 192.185053 158.713649 
L 193.270854 183.299439 
L 194.356656 167.249504 
L 195.442457 186.776391 
L 196.528258 162.782392 
L 197.614059 149.104183 
L 198.69986 170.030508 
L 199.785661 195.338751 
L 200.871462 159.583439 
L 201.957264 156.184668 
L 203.043065 141.775805 
L 204.128866 166.383761 
L 205.214667 134.725542 
L 206.300468 155.547508 
L 207.386269 152.213483 
L 208.472071 170.738246 
L 209.557872 158.480584 
L 210.643673 202.547778 
L 211.729474 169.499651 
L 212.815275 154.982911 
L 213.901076 168.782437 
L 214.986877 124.070742 
L 216.072679 175.429822 
L 217.15848 153.106811 
L 218.244281 167.28221 
L 219.330082 160.972513 
L 220.415883 161.09959 
L 221.501684 176.146028 
L 222.587486 155.630624 
L 223.673287 155.826259 
L 224.759088 177.879245 
L 225.844889 147.990506 
L 226.93069 183.389452 
L 228.016491 129.887581 
L 229.102292 183.19756 
L 230.188094 158.335152 
L 232.359696 130.914514 
L 233.445497 133.374743 
L 234.531298 167.075755 
L 235.617099 143.469619 
L 236.702901 135.901092 
L 237.788702 149.880411 
L 238.874503 172.305083 
L 239.960304 172.237447 
L 241.046105 159.924191 
L 242.131906 138.889168 
L 243.217708 149.544982 
L 244.303509 142.938304 
L 245.38931 142.170332 
L 246.475111 159.401411 
L 247.560912 125.019427 
L 248.646713 174.688165 
L 249.732514 131.715973 
L 250.818316 163.902603 
L 251.904117 152.180973 
L 252.989918 143.402353 
L 254.075719 141.203318 
L 255.16152 146.03618 
L 256.247321 143.900376 
L 257.333123 157.072566 
L 258.418924 145.40978 
L 259.504725 159.673626 
L 260.590526 157.171622 
L 261.676327 147.529793 
L 262.762128 166.709342 
L 263.847929 152.925389 
L 264.933731 158.552001 
L 266.019532 146.671395 
L 267.105333 136.759409 
L 268.191134 145.426004 
L 269.276935 148.493826 
L 270.362736 140.948451 
L 272.534339 137.599779 
L 273.62014 154.009175 
L 274.705941 150.244999 
L 275.791742 172.172379 
L 276.877543 154.457879 
L 277.963344 164.419467 
L 279.049146 187.487588 
L 280.134947 189.904607 
L 281.220748 157.343506 
L 282.306549 141.063519 
L 283.39235 165.763309 
L 284.478151 157.081498 
L 285.563953 142.202684 
L 286.649754 153.062523 
L 287.735555 162.473209 
L 288.821356 178.632027 
L 289.907157 137.002387 
L 290.992958 150.269184 
L 292.07876 148.859303 
L 293.164561 163.048472 
L 294.250362 163.809288 
L 295.336163 155.394976 
L 296.421964 157.650339 
L 297.507765 154.547583 
L 298.593566 147.1058 
L 299.679368 160.299632 
L 300.765169 146.308348 
L 301.85097 153.89985 
L 302.936771 136.608931 
L 304.022572 130.163169 
L 305.108373 149.930544 
L 306.194175 153.759232 
L 307.279976 162.44305 
L 308.365777 146.896021 
L 309.451578 137.328253 
L 310.537379 148.478231 
L 311.62318 164.865636 
L 312.708981 165.024303 
L 313.794783 140.7533 
L 314.880584 122.1529 
L 315.966385 170.845352 
L 317.052186 151.920453 
L 318.137987 163.699898 
L 319.223788 155.34977 
L 320.30959 178.533985 
L 321.395391 166.96149 
L 322.481192 182.642244 
L 323.566993 189.783908 
L 324.652794 208.773577 
L 325.738595 174.969594 
L 326.824396 190.92559 
L 327.910198 168.797241 
L 328.995999 170.701464 
L 330.0818 166.045747 
L 331.167601 165.888459 
L 332.253402 153.517264 
L 333.339203 179.448131 
L 334.425005 193.54726 
L 335.510806 199.697537 
L 336.596607 193.078284 
L 337.682408 168.912694 
L 338.768209 157.450498 
L 339.85401 195.323754 
L 340.939811 201.593417 
L 342.025613 178.284256 
L 343.111414 150.226676 
L 344.197215 173.270462 
L 345.283016 210.061975 
L 347.454618 161.927501 
L 348.54042 156.439738 
L 349.626221 172.439517 
L 350.712022 156.451518 
L 351.797823 145.966249 
L 352.883624 175.679066 
L 353.969425 147.246555 
L 355.055227 167.538543 
L 356.141028 203.234002 
L 357.226829 157.231111 
L 358.31263 171.354712 
L 359.398431 180.993925 
L 360.484232 170.931328 
L 361.570033 216.282836 
L 362.655835 159.785985 
L 363.741636 165.215709 
L 364.827437 144.452545 
L 365.913238 167.140403 
L 366.999039 157.211257 
L 368.08484 167.746584 
L 369.170642 164.757125 
L 370.256443 172.505978 
L 371.342244 171.308797 
L 372.428045 166.196394 
L 373.513846 145.397913 
L 374.599647 138.978245 
L 375.685448 196.371883 
L 376.77125 169.670047 
L 377.857051 155.185416 
L 378.942852 150.012566 
L 380.028653 149.393993 
L 381.114454 140.904082 
L 382.200255 148.352912 
L 383.286057 157.075304 
L 384.371858 155.495603 
L 385.457659 157.097145 
L 386.54346 164.754795 
L 387.629261 149.522975 
L 388.715062 152.657474 
L 389.800863 156.579193 
L 390.886665 168.978524 
L 391.972466 159.870154 
L 393.058267 156.568083 
L 394.144068 159.436519 
L 395.229869 190.095561 
L 396.31567 169.025593 
L 397.401472 174.243289 
L 398.487273 143.073775 
L 398.487273 143.073775 
" style="fill:none;stroke:#008000;stroke-dasharray:9.6,2.4,1.5,2.4;stroke-dashoffset:0;stroke-width:1.5;"/>
   </g>
   <g id="line2d_33">
    <path clip-path="url(#p75f695c7a3)" d="M 73.832727 284.53011 
L 74.918528 199.752095 
L 76.00433 172.763966 
L 77.090131 176.762808 
L 78.175932 173.395403 
L 79.261733 181.51027 
L 80.347534 205.456725 
L 81.433335 196.02237 
L 82.519137 191.895436 
L 83.604938 182.284837 
L 84.690739 186.540815 
L 85.77654 168.324101 
L 86.862341 161.773628 
L 87.948142 142.86047 
L 89.033943 171.413643 
L 90.119745 160.464184 
L 91.205546 160.160482 
L 92.291347 179.675264 
L 93.377148 166.982604 
L 94.462949 181.11967 
L 95.54875 178.341074 
L 96.634552 169.335791 
L 97.720353 194.719572 
L 98.806154 168.558329 
L 99.891955 158.535553 
L 102.063557 196.208253 
L 103.149358 182.377262 
L 104.23516 157.185915 
L 105.320961 162.114141 
L 106.406762 156.140732 
L 107.492563 181.226705 
L 108.578364 184.613294 
L 109.664165 174.45151 
L 110.749967 157.487011 
L 111.835768 185.152277 
L 112.921569 151.921624 
L 114.00737 145.771439 
L 115.093171 124.239309 
L 116.178972 142.178313 
L 117.264773 157.301386 
L 118.350575 137.806846 
L 119.436376 128.243514 
L 120.522177 117.261192 
L 121.607978 121.528281 
L 122.693779 114.391996 
L 123.77958 121.351819 
L 124.865382 108.053842 
L 125.951183 102.917448 
L 127.036984 129.280666 
L 128.122785 116.387068 
L 129.208586 112.638415 
L 130.294387 114.676736 
L 131.380189 113.838078 
L 132.46599 118.469455 
L 133.551791 126.441036 
L 134.637592 119.043465 
L 135.723393 121.018472 
L 136.809194 103.984662 
L 137.894995 139.517928 
L 138.980797 117.085008 
L 140.066598 147.364436 
L 141.152399 111.639102 
L 142.2382 149.006967 
L 143.324001 117.680983 
L 144.409802 134.769971 
L 145.495604 121.732878 
L 146.581405 134.095232 
L 147.667206 134.418551 
L 148.753007 109.711715 
L 149.838808 139.130508 
L 150.924609 135.260164 
L 152.01041 111.663411 
L 153.096212 116.059225 
L 154.182013 123.318829 
L 155.267814 109.364394 
L 156.353615 101.659956 
L 157.439416 103.745077 
L 158.525217 101.438603 
L 159.611019 115.791775 
L 161.782621 104.250282 
L 162.868422 97.22334 
L 163.954223 107.400978 
L 165.040024 105.438168 
L 166.125825 114.841359 
L 167.211627 100.805232 
L 168.297428 111.801807 
L 169.383229 115.158406 
L 170.46903 97.848902 
L 171.554831 90.194299 
L 172.640632 102.158308 
L 173.726434 91.001521 
L 174.812235 95.562427 
L 175.898036 89.859057 
L 176.983837 80.272039 
L 178.069638 89.758927 
L 179.155439 100.469126 
L 180.24124 83.407157 
L 181.327042 78.629009 
L 182.412843 83.033975 
L 183.498644 93.364533 
L 184.584445 67.763371 
L 185.670246 88.713636 
L 186.756047 82.714433 
L 187.841849 103.403332 
L 188.92765 97.621333 
L 190.013451 81.992785 
L 191.099252 84.887389 
L 192.185053 79.389173 
L 193.270854 82.284091 
L 194.356656 88.647898 
L 195.442457 92.569357 
L 196.528258 86.393864 
L 197.614059 96.279541 
L 198.69986 92.420592 
L 199.785661 99.586209 
L 200.871462 91.733518 
L 201.957264 79.043402 
L 203.043065 84.846421 
L 204.128866 71.489282 
L 205.214667 69.291495 
L 206.300468 60.658547 
L 207.386269 78.900668 
L 209.557872 84.768057 
L 210.643673 81.996643 
L 211.729474 74.470628 
L 212.815275 81.985152 
L 213.901076 71.165356 
L 214.986877 76.738991 
L 216.072679 80.234267 
L 217.15848 77.394909 
L 218.244281 99.340891 
L 219.330082 95.791682 
L 220.415883 71.940109 
L 221.501684 79.114631 
L 222.587486 97.686946 
L 223.673287 85.580442 
L 224.759088 58.196373 
L 225.844889 67.02719 
L 226.93069 77.735595 
L 228.016491 70.717617 
L 229.102292 76.107968 
L 230.188094 53.568 
L 231.273895 85.474223 
L 232.359696 71.595792 
L 233.445497 84.572222 
L 234.531298 79.89995 
L 235.617099 78.224642 
L 236.702901 86.625839 
L 237.788702 93.123104 
L 238.874503 76.875153 
L 239.960304 85.707538 
L 241.046105 78.936241 
L 242.131906 93.723514 
L 243.217708 87.758502 
L 244.303509 85.558755 
L 245.38931 81.036488 
L 246.475111 74.211951 
L 247.560912 68.95823 
L 248.646713 89.492399 
L 249.732514 77.255104 
L 250.818316 75.763854 
L 251.904117 86.371541 
L 252.989918 79.955534 
L 254.075719 81.183095 
L 255.16152 87.348113 
L 256.247321 81.631561 
L 257.333123 78.683476 
L 258.418924 85.260185 
L 259.504725 89.770009 
L 260.590526 81.177736 
L 261.676327 88.019915 
L 262.762128 81.840407 
L 263.847929 85.304086 
L 264.933731 69.586366 
L 266.019532 60.267605 
L 268.191134 96.226063 
L 269.276935 95.100605 
L 270.362736 86.722346 
L 271.448538 95.424073 
L 272.534339 84.499488 
L 273.62014 106.705573 
L 274.705941 77.309593 
L 275.791742 80.947896 
L 276.877543 110.2637 
L 277.963344 99.908171 
L 279.049146 103.001789 
L 280.134947 122.157777 
L 281.220748 113.046594 
L 282.306549 78.935569 
L 283.39235 86.087934 
L 284.478151 88.250292 
L 285.563953 82.742425 
L 286.649754 92.029361 
L 287.735555 86.157272 
L 288.821356 83.939198 
L 289.907157 69.441931 
L 290.992958 90.237585 
L 292.07876 87.995555 
L 293.164561 103.088009 
L 294.250362 88.356148 
L 295.336163 100.365616 
L 296.421964 84.384825 
L 297.507765 83.133937 
L 298.593566 85.394533 
L 299.679368 82.57503 
L 300.765169 89.16253 
L 301.85097 87.058501 
L 302.936771 77.59929 
L 304.022572 96.087768 
L 306.194175 86.326119 
L 307.279976 93.99217 
L 308.365777 96.717364 
L 309.451578 89.813622 
L 310.537379 104.830731 
L 311.62318 95.198465 
L 312.708981 88.017217 
L 313.794783 99.541439 
L 314.880584 75.802369 
L 315.966385 92.438761 
L 317.052186 94.499629 
L 318.137987 106.534807 
L 319.223788 91.103832 
L 320.30959 94.291025 
L 321.395391 77.008645 
L 322.481192 96.976921 
L 323.566993 97.105779 
L 324.652794 106.230678 
L 325.738595 107.416699 
L 326.824396 111.737729 
L 327.910198 102.300683 
L 328.995999 108.614034 
L 330.0818 98.775653 
L 331.167601 81.199058 
L 332.253402 87.650335 
L 333.339203 85.879087 
L 334.425005 77.150037 
L 335.510806 98.941803 
L 336.596607 96.600648 
L 337.682408 77.577017 
L 338.768209 82.055619 
L 339.85401 72.006261 
L 340.939811 86.09372 
L 342.025613 88.426237 
L 343.111414 82.463077 
L 344.197215 83.265341 
L 345.283016 84.844855 
L 346.368817 78.835921 
L 347.454618 94.523949 
L 348.54042 83.767255 
L 349.626221 87.199787 
L 350.712022 90.085521 
L 351.797823 87.519704 
L 352.883624 87.986903 
L 353.969425 90.669048 
L 355.055227 81.306188 
L 356.141028 85.212436 
L 357.226829 78.672674 
L 358.31263 105.195602 
L 359.398431 108.935812 
L 360.484232 95.793679 
L 361.570033 116.115006 
L 362.655835 85.618226 
L 363.741636 84.654191 
L 364.827437 80.458227 
L 365.913238 102.86275 
L 366.999039 86.046639 
L 368.08484 120.332879 
L 369.170642 91.940934 
L 370.256443 116.807071 
L 371.342244 95.297393 
L 372.428045 111.326179 
L 373.513846 84.292497 
L 374.599647 88.493388 
L 375.685448 88.816118 
L 376.77125 86.849452 
L 377.857051 96.290008 
L 378.942852 78.993111 
L 380.028653 80.498188 
L 381.114454 80.297824 
L 382.200255 88.109882 
L 383.286057 84.730391 
L 384.371858 79.327628 
L 385.457659 97.942066 
L 386.54346 76.30968 
L 387.629261 79.549772 
L 388.715062 93.848425 
L 389.800863 102.728173 
L 390.886665 86.317664 
L 391.972466 93.886139 
L 393.058267 88.954521 
L 394.144068 79.392826 
L 395.229869 72.540488 
L 396.31567 85.071608 
L 397.401472 89.19244 
L 398.487273 79.51361 
L 398.487273 79.51361 
" style="fill:none;stroke:#008000;stroke-dasharray:9.6,2.4,1.5,2.4;stroke-dashoffset:0;stroke-width:1.5;"/>
   </g>
   <g id="line2d_34">
    <path clip-path="url(#p75f695c7a3)" d="M 73.832727 277.571996 
L 74.918528 196.305447 
L 76.00433 167.021166 
L 77.090131 166.762268 
L 78.175932 151.746853 
L 80.347534 192.108264 
L 81.433335 189.128482 
L 82.519137 172.642301 
L 83.604938 162.622837 
L 84.690739 173.203508 
L 85.77654 160.931608 
L 86.862341 153.426946 
L 87.948142 128.114868 
L 89.033943 165.317972 
L 90.119745 150.812542 
L 91.205546 156.2125 
L 92.291347 184.518253 
L 93.377148 162.469556 
L 94.462949 166.259173 
L 95.54875 168.057816 
L 96.634552 166.816983 
L 97.720353 192.883403 
L 98.806154 166.60741 
L 99.891955 152.806255 
L 100.977756 178.553702 
L 102.063557 178.668766 
L 103.149358 165.340996 
L 104.23516 145.548019 
L 105.320961 162.599306 
L 106.406762 159.288779 
L 107.492563 169.157373 
L 108.578364 180.316856 
L 109.664165 177.020848 
L 110.749967 155.942558 
L 111.835768 171.463531 
L 112.921569 144.690552 
L 114.00737 130.686069 
L 115.093171 122.644175 
L 116.178972 132.130084 
L 117.264773 152.043606 
L 118.350575 129.418592 
L 119.436376 121.953126 
L 120.522177 109.454954 
L 121.607978 111.309914 
L 122.693779 108.021108 
L 123.77958 109.012196 
L 124.865382 91.002528 
L 125.951183 91.832427 
L 127.036984 93.178174 
L 128.122785 121.581308 
L 129.208586 105.360205 
L 130.294387 113.929272 
L 131.380189 108.834229 
L 132.46599 106.600606 
L 133.551791 115.710535 
L 134.637592 101.996963 
L 135.723393 108.447497 
L 136.809194 105.927326 
L 137.894995 133.706766 
L 138.980797 108.591031 
L 140.066598 138.062226 
L 141.152399 104.342545 
L 142.2382 138.424471 
L 143.324001 110.857053 
L 144.409802 140.442471 
L 145.495604 126.880323 
L 146.581405 128.151855 
L 147.667206 131.385031 
L 148.753007 112.907247 
L 149.838808 124.978147 
L 150.924609 134.60429 
L 152.01041 111.476568 
L 153.096212 122.786135 
L 154.182013 111.727113 
L 155.267814 96.849611 
L 157.439416 97.105877 
L 158.525217 93.452394 
L 159.611019 111.389868 
L 160.69682 96.647014 
L 161.782621 95.903085 
L 162.868422 98.578538 
L 163.954223 102.579254 
L 165.040024 92.763044 
L 166.125825 110.378325 
L 167.211627 94.663429 
L 168.297428 105.619552 
L 169.383229 105.576535 
L 170.46903 88.696058 
L 171.554831 77.926544 
L 172.640632 92.642315 
L 173.726434 88.835869 
L 174.812235 87.856097 
L 175.898036 87.414259 
L 176.983837 85.392566 
L 179.155439 101.316657 
L 180.24124 83.932276 
L 181.327042 76.599874 
L 182.412843 78.97612 
L 183.498644 91.493355 
L 184.584445 74.159968 
L 185.670246 89.552231 
L 186.756047 80.064504 
L 187.841849 98.787827 
L 188.92765 87.666871 
L 190.013451 83.076254 
L 191.099252 83.554102 
L 192.185053 83.469734 
L 193.270854 88.157762 
L 194.356656 80.358272 
L 195.442457 87.110158 
L 196.528258 85.755124 
L 197.614059 93.723932 
L 198.69986 89.685225 
L 199.785661 98.583473 
L 200.871462 93.752145 
L 201.957264 78.580353 
L 203.043065 75.842433 
L 204.128866 72.361936 
L 205.214667 71.553089 
L 206.300468 69.68982 
L 207.386269 80.357512 
L 208.472071 80.789579 
L 209.557872 90.253682 
L 210.643673 80.883449 
L 211.729474 82.04439 
L 212.815275 77.096464 
L 213.901076 70.701578 
L 214.986877 71.555703 
L 216.072679 88.974668 
L 217.15848 76.758604 
L 218.244281 98.008654 
L 219.330082 87.323159 
L 220.415883 75.027812 
L 221.501684 83.196723 
L 222.587486 95.994489 
L 223.673287 88.750147 
L 224.759088 75.610275 
L 225.844889 73.259403 
L 226.93069 79.226972 
L 228.016491 70.445802 
L 229.102292 80.117669 
L 230.188094 63.725705 
L 231.273895 78.601959 
L 232.359696 73.460615 
L 233.445497 82.46857 
L 234.531298 80.891067 
L 235.617099 74.753186 
L 236.702901 77.125574 
L 237.788702 87.015088 
L 238.874503 80.907591 
L 239.960304 82.947631 
L 241.046105 81.331781 
L 242.131906 88.499565 
L 243.217708 81.174311 
L 244.303509 91.093021 
L 245.38931 76.478642 
L 246.475111 78.466146 
L 247.560912 65.228757 
L 248.646713 88.111682 
L 249.732514 75.962597 
L 250.818316 81.813743 
L 251.904117 86.510285 
L 252.989918 81.848569 
L 254.075719 75.699696 
L 255.16152 87.313397 
L 256.247321 76.249968 
L 257.333123 75.848078 
L 258.418924 85.715027 
L 259.504725 88.855644 
L 260.590526 72.271635 
L 261.676327 80.794081 
L 262.762128 79.174235 
L 263.847929 83.527191 
L 264.933731 74.197784 
L 266.019532 71.006955 
L 267.105333 78.264948 
L 268.191134 91.682943 
L 269.276935 89.92364 
L 270.362736 84.966252 
L 271.448538 93.102338 
L 272.534339 80.645148 
L 273.62014 102.488543 
L 274.705941 82.166194 
L 275.791742 86.113311 
L 276.877543 113.510208 
L 277.963344 98.918646 
L 279.049146 101.780129 
L 280.134947 115.867143 
L 281.220748 110.994208 
L 282.306549 78.510892 
L 283.39235 88.342972 
L 284.478151 80.832836 
L 285.563953 77.569789 
L 286.649754 86.875799 
L 287.735555 81.292269 
L 288.821356 81.62975 
L 289.907157 70.25999 
L 290.992958 85.183441 
L 292.07876 81.723482 
L 293.164561 103.2727 
L 294.250362 81.0098 
L 295.336163 94.136107 
L 296.421964 85.902046 
L 297.507765 83.244099 
L 298.593566 82.744827 
L 299.679368 75.028012 
L 300.765169 79.425311 
L 301.85097 78.486843 
L 302.936771 73.983019 
L 304.022572 94.688433 
L 305.108373 86.712683 
L 306.194175 83.661403 
L 307.279976 103.57497 
L 308.365777 84.118395 
L 309.451578 91.129094 
L 310.537379 93.110718 
L 311.62318 90.170353 
L 312.708981 84.94741 
L 313.794783 88.829712 
L 314.880584 65.967349 
L 315.966385 82.268143 
L 317.052186 85.398839 
L 318.137987 107.562116 
L 319.223788 81.551108 
L 320.30959 90.031336 
L 321.395391 65.395845 
L 323.566993 98.743757 
L 324.652794 101.057103 
L 325.738595 91.999876 
L 326.824396 99.906065 
L 327.910198 87.587006 
L 328.995999 97.762143 
L 330.0818 95.77847 
L 331.167601 86.676161 
L 332.253402 76.113112 
L 333.339203 84.707813 
L 334.425005 76.750318 
L 336.596607 94.810658 
L 337.682408 73.973432 
L 338.768209 75.862263 
L 339.85401 72.714066 
L 340.939811 89.279888 
L 343.111414 69.170664 
L 344.197215 66.464301 
L 345.283016 81.20544 
L 346.368817 74.599474 
L 347.454618 81.20559 
L 348.54042 76.971689 
L 349.626221 85.210754 
L 350.712022 83.748944 
L 351.797823 75.414021 
L 352.883624 81.388187 
L 353.969425 82.779401 
L 355.055227 74.395039 
L 356.141028 79.774492 
L 357.226829 72.864022 
L 358.31263 100.161886 
L 359.398431 94.798217 
L 360.484232 84.111622 
L 361.570033 119.918957 
L 362.655835 75.82178 
L 363.741636 79.253855 
L 364.827437 77.657869 
L 365.913238 91.880412 
L 366.999039 81.342692 
L 368.08484 116.779334 
L 369.170642 95.497238 
L 370.256443 110.89808 
L 371.342244 92.088667 
L 372.428045 100.079957 
L 373.513846 77.650503 
L 374.599647 84.166528 
L 375.685448 89.008092 
L 376.77125 86.276036 
L 377.857051 84.188946 
L 378.942852 77.332667 
L 380.028653 78.563006 
L 381.114454 78.59684 
L 382.200255 86.877698 
L 383.286057 73.855513 
L 384.371858 70.31492 
L 385.457659 90.907819 
L 386.54346 73.95815 
L 387.629261 75.587355 
L 388.715062 83.67413 
L 389.800863 93.614933 
L 390.886665 83.736362 
L 391.972466 86.519784 
L 393.058267 81.277799 
L 394.144068 82.541241 
L 395.229869 77.314185 
L 396.31567 80.062715 
L 397.401472 77.446232 
L 398.487273 72.014938 
L 398.487273 72.014938 
" style="fill:none;stroke:#ff0000;stroke-linecap:square;stroke-width:1.5;"/>
   </g>
   <g id="patch_3">
    <path d="M 57.6 307.584 
L 57.6 41.472 
" style="fill:none;stroke:#000000;stroke-linecap:square;stroke-linejoin:miter;stroke-width:0.8;"/>
   </g>
   <g id="patch_4">
    <path d="M 414.72 307.584 
L 414.72 41.472 
" style="fill:none;stroke:#000000;stroke-linecap:square;stroke-linejoin:miter;stroke-width:0.8;"/>
   </g>
   <g id="patch_5">
    <path d="M 57.6 307.584 
L 414.72 307.584 
" style="fill:none;stroke:#000000;stroke-linecap:square;stroke-linejoin:miter;stroke-width:0.8;"/>
   </g>
   <g id="patch_6">
    <path d="M 57.6 41.472 
L 414.72 41.472 
" style="fill:none;stroke:#000000;stroke-linecap:square;stroke-linejoin:miter;stroke-width:0.8;"/>
   </g>
   <g id="text_18">
    <!-- Population's average and best fitness -->
    <defs>
     <path d="M 19.671875 64.796875 
L 19.671875 37.40625 
L 32.078125 37.40625 
Q 38.96875 37.40625 42.71875 40.96875 
Q 46.484375 44.53125 46.484375 51.125 
Q 46.484375 57.671875 42.71875 61.234375 
Q 38.96875 64.796875 32.078125 64.796875 
z
M 9.8125 72.90625 
L 32.078125 72.90625 
Q 44.34375 72.90625 50.609375 67.359375 
Q 56.890625 61.8125 56.890625 51.125 
Q 56.890625 40.328125 50.609375 34.8125 
Q 44.34375 29.296875 32.078125 29.296875 
L 19.671875 29.296875 
L 19.671875 0 
L 9.8125 0 
z
" id="DejaVuSans-80"/>
     <path d="M 18.109375 8.203125 
L 18.109375 -20.796875 
L 9.078125 -20.796875 
L 9.078125 54.6875 
L 18.109375 54.6875 
L 18.109375 46.390625 
Q 20.953125 51.265625 25.265625 53.625 
Q 29.59375 56 35.59375 56 
Q 45.5625 56 51.78125 48.09375 
Q 58.015625 40.1875 58.015625 27.296875 
Q 58.015625 14.40625 51.78125 6.484375 
Q 45.5625 -1.421875 35.59375 -1.421875 
Q 29.59375 -1.421875 25.265625 0.953125 
Q 20.953125 3.328125 18.109375 8.203125 
z
M 48.6875 27.296875 
Q 48.6875 37.203125 44.609375 42.84375 
Q 40.53125 48.484375 33.40625 48.484375 
Q 26.265625 48.484375 22.1875 42.84375 
Q 18.109375 37.203125 18.109375 27.296875 
Q 18.109375 17.390625 22.1875 11.75 
Q 26.265625 6.109375 33.40625 6.109375 
Q 40.53125 6.109375 44.609375 11.75 
Q 48.6875 17.390625 48.6875 27.296875 
z
" id="DejaVuSans-112"/>
     <path d="M 8.5 21.578125 
L 8.5 54.6875 
L 17.484375 54.6875 
L 17.484375 21.921875 
Q 17.484375 14.15625 20.5 10.265625 
Q 23.53125 6.390625 29.59375 6.390625 
Q 36.859375 6.390625 41.078125 11.03125 
Q 45.3125 15.671875 45.3125 23.6875 
L 45.3125 54.6875 
L 54.296875 54.6875 
L 54.296875 0 
L 45.3125 0 
L 45.3125 8.40625 
Q 42.046875 3.421875 37.71875 1 
Q 33.40625 -1.421875 27.6875 -1.421875 
Q 18.265625 -1.421875 13.375 4.4375 
Q 8.5 10.296875 8.5 21.578125 
z
M 31.109375 56 
z
" id="DejaVuSans-117"/>
     <path d="M 9.421875 75.984375 
L 18.40625 75.984375 
L 18.40625 0 
L 9.421875 0 
z
" id="DejaVuSans-108"/>
     <path d="M 17.921875 72.90625 
L 17.921875 45.796875 
L 9.625 45.796875 
L 9.625 72.90625 
z
" id="DejaVuSans-39"/>
     <path id="DejaVuSans-32"/>
     <path d="M 2.984375 54.6875 
L 12.5 54.6875 
L 29.59375 8.796875 
L 46.6875 54.6875 
L 56.203125 54.6875 
L 35.6875 0 
L 23.484375 0 
z
" id="DejaVuSans-118"/>
     <path d="M 45.40625 27.984375 
Q 45.40625 37.75 41.375 43.109375 
Q 37.359375 48.484375 30.078125 48.484375 
Q 22.859375 48.484375 18.828125 43.109375 
Q 14.796875 37.75 14.796875 27.984375 
Q 14.796875 18.265625 18.828125 12.890625 
Q 22.859375 7.515625 30.078125 7.515625 
Q 37.359375 7.515625 41.375 12.890625 
Q 45.40625 18.265625 45.40625 27.984375 
z
M 54.390625 6.78125 
Q 54.390625 -7.171875 48.1875 -13.984375 
Q 42 -20.796875 29.203125 -20.796875 
Q 24.46875 -20.796875 20.265625 -20.09375 
Q 16.0625 -19.390625 12.109375 -17.921875 
L 12.109375 -9.1875 
Q 16.0625 -11.328125 19.921875 -12.34375 
Q 23.78125 -13.375 27.78125 -13.375 
Q 36.625 -13.375 41.015625 -8.765625 
Q 45.40625 -4.15625 45.40625 5.171875 
L 45.40625 9.625 
Q 42.625 4.78125 38.28125 2.390625 
Q 33.9375 0 27.875 0 
Q 17.828125 0 11.671875 7.65625 
Q 5.515625 15.328125 5.515625 27.984375 
Q 5.515625 40.671875 11.671875 48.328125 
Q 17.828125 56 27.875 56 
Q 33.9375 56 38.28125 53.609375 
Q 42.625 51.21875 45.40625 46.390625 
L 45.40625 54.6875 
L 54.390625 54.6875 
z
" id="DejaVuSans-103"/>
     <path d="M 45.40625 46.390625 
L 45.40625 75.984375 
L 54.390625 75.984375 
L 54.390625 0 
L 45.40625 0 
L 45.40625 8.203125 
Q 42.578125 3.328125 38.25 0.953125 
Q 33.9375 -1.421875 27.875 -1.421875 
Q 17.96875 -1.421875 11.734375 6.484375 
Q 5.515625 14.40625 5.515625 27.296875 
Q 5.515625 40.1875 11.734375 48.09375 
Q 17.96875 56 27.875 56 
Q 33.9375 56 38.25 53.625 
Q 42.578125 51.265625 45.40625 46.390625 
z
M 14.796875 27.296875 
Q 14.796875 17.390625 18.875 11.75 
Q 22.953125 6.109375 30.078125 6.109375 
Q 37.203125 6.109375 41.296875 11.75 
Q 45.40625 17.390625 45.40625 27.296875 
Q 45.40625 37.203125 41.296875 42.84375 
Q 37.203125 48.484375 30.078125 48.484375 
Q 22.953125 48.484375 18.875 42.84375 
Q 14.796875 37.203125 14.796875 27.296875 
z
" id="DejaVuSans-100"/>
     <path d="M 48.6875 27.296875 
Q 48.6875 37.203125 44.609375 42.84375 
Q 40.53125 48.484375 33.40625 48.484375 
Q 26.265625 48.484375 22.1875 42.84375 
Q 18.109375 37.203125 18.109375 27.296875 
Q 18.109375 17.390625 22.1875 11.75 
Q 26.265625 6.109375 33.40625 6.109375 
Q 40.53125 6.109375 44.609375 11.75 
Q 48.6875 17.390625 48.6875 27.296875 
z
M 18.109375 46.390625 
Q 20.953125 51.265625 25.265625 53.625 
Q 29.59375 56 35.59375 56 
Q 45.5625 56 51.78125 48.09375 
Q 58.015625 40.1875 58.015625 27.296875 
Q 58.015625 14.40625 51.78125 6.484375 
Q 45.5625 -1.421875 35.59375 -1.421875 
Q 29.59375 -1.421875 25.265625 0.953125 
Q 20.953125 3.328125 18.109375 8.203125 
L 18.109375 0 
L 9.078125 0 
L 9.078125 75.984375 
L 18.109375 75.984375 
z
" id="DejaVuSans-98"/>
     <path d="M 37.109375 75.984375 
L 37.109375 68.5 
L 28.515625 68.5 
Q 23.6875 68.5 21.796875 66.546875 
Q 19.921875 64.59375 19.921875 59.515625 
L 19.921875 54.6875 
L 34.71875 54.6875 
L 34.71875 47.703125 
L 19.921875 47.703125 
L 19.921875 0 
L 10.890625 0 
L 10.890625 47.703125 
L 2.296875 47.703125 
L 2.296875 54.6875 
L 10.890625 54.6875 
L 10.890625 58.5 
Q 10.890625 67.625 15.140625 71.796875 
Q 19.390625 75.984375 28.609375 75.984375 
z
" id="DejaVuSans-102"/>
    </defs>
    <g transform="translate(123.315 35.472)scale(0.12 -0.12)">
     <use xlink:href="#DejaVuSans-80"/>
     <use x="60.255859" xlink:href="#DejaVuSans-111"/>
     <use x="121.4375" xlink:href="#DejaVuSans-112"/>
     <use x="184.914062" xlink:href="#DejaVuSans-117"/>
     <use x="248.292969" xlink:href="#DejaVuSans-108"/>
     <use x="276.076172" xlink:href="#DejaVuSans-97"/>
     <use x="337.355469" xlink:href="#DejaVuSans-116"/>
     <use x="376.564453" xlink:href="#DejaVuSans-105"/>
     <use x="404.347656" xlink:href="#DejaVuSans-111"/>
     <use x="465.529297" xlink:href="#DejaVuSans-110"/>
     <use x="528.908203" xlink:href="#DejaVuSans-39"/>
     <use x="556.398438" xlink:href="#DejaVuSans-115"/>
     <use x="608.498047" xlink:href="#DejaVuSans-32"/>
     <use x="640.285156" xlink:href="#DejaVuSans-97"/>
     <use x="701.564453" xlink:href="#DejaVuSans-118"/>
     <use x="760.744141" xlink:href="#DejaVuSans-101"/>
     <use x="822.267578" xlink:href="#DejaVuSans-114"/>
     <use x="863.380859" xlink:href="#DejaVuSans-97"/>
     <use x="924.660156" xlink:href="#DejaVuSans-103"/>
     <use x="988.136719" xlink:href="#DejaVuSans-101"/>
     <use x="1049.660156" xlink:href="#DejaVuSans-32"/>
     <use x="1081.447266" xlink:href="#DejaVuSans-97"/>
     <use x="1142.726562" xlink:href="#DejaVuSans-110"/>
     <use x="1206.105469" xlink:href="#DejaVuSans-100"/>
     <use x="1269.582031" xlink:href="#DejaVuSans-32"/>
     <use x="1301.369141" xlink:href="#DejaVuSans-98"/>
     <use x="1364.845703" xlink:href="#DejaVuSans-101"/>
     <use x="1426.369141" xlink:href="#DejaVuSans-115"/>
     <use x="1478.46875" xlink:href="#DejaVuSans-116"/>
     <use x="1517.677734" xlink:href="#DejaVuSans-32"/>
     <use x="1549.464844" xlink:href="#DejaVuSans-102"/>
     <use x="1584.669922" xlink:href="#DejaVuSans-105"/>
     <use x="1612.453125" xlink:href="#DejaVuSans-116"/>
     <use x="1651.662109" xlink:href="#DejaVuSans-110"/>
     <use x="1715.041016" xlink:href="#DejaVuSans-101"/>
     <use x="1776.564453" xlink:href="#DejaVuSans-115"/>
     <use x="1828.664062" xlink:href="#DejaVuSans-115"/>
    </g>
   </g>
   <g id="legend_1">
    <g id="patch_7">
     <path d="M 334.779375 302.584 
L 407.72 302.584 
Q 409.72 302.584 409.72 300.584 
L 409.72 242.8715 
Q 409.72 240.8715 407.72 240.8715 
L 334.779375 240.8715 
Q 332.779375 240.8715 332.779375 242.8715 
L 332.779375 300.584 
Q 332.779375 302.584 334.779375 302.584 
z
" style="fill:#ffffff;opacity:0.8;stroke:#cccccc;stroke-linejoin:miter;"/>
    </g>
    <g id="line2d_35">
     <path d="M 336.779375 248.969937 
L 356.779375 248.969937 
" style="fill:none;stroke:#0000ff;stroke-linecap:square;stroke-width:1.5;"/>
    </g>
    <g id="line2d_36"/>
    <g id="text_19">
     <!-- average -->
     <g transform="translate(364.779375 252.469937)scale(0.1 -0.1)">
      <use xlink:href="#DejaVuSans-97"/>
      <use x="61.279297" xlink:href="#DejaVuSans-118"/>
      <use x="120.458984" xlink:href="#DejaVuSans-101"/>
      <use x="181.982422" xlink:href="#DejaVuSans-114"/>
      <use x="223.095703" xlink:href="#DejaVuSans-97"/>
      <use x="284.375" xlink:href="#DejaVuSans-103"/>
      <use x="347.851562" xlink:href="#DejaVuSans-101"/>
     </g>
    </g>
    <g id="line2d_37">
     <path d="M 336.779375 263.648062 
L 356.779375 263.648062 
" style="fill:none;stroke:#008000;stroke-dasharray:9.6,2.4,1.5,2.4;stroke-dashoffset:0;stroke-width:1.5;"/>
    </g>
    <g id="line2d_38"/>
    <g id="text_20">
     <!-- -1 sd -->
     <defs>
      <path d="M 4.890625 31.390625 
L 31.203125 31.390625 
L 31.203125 23.390625 
L 4.890625 23.390625 
z
" id="DejaVuSans-45"/>
     </defs>
     <g transform="translate(364.779375 267.148062)scale(0.1 -0.1)">
      <use xlink:href="#DejaVuSans-45"/>
      <use x="36.083984" xlink:href="#DejaVuSans-49"/>
      <use x="99.707031" xlink:href="#DejaVuSans-32"/>
      <use x="131.494141" xlink:href="#DejaVuSans-115"/>
      <use x="183.59375" xlink:href="#DejaVuSans-100"/>
     </g>
    </g>
    <g id="line2d_39">
     <path d="M 336.779375 278.326187 
L 356.779375 278.326187 
" style="fill:none;stroke:#008000;stroke-dasharray:9.6,2.4,1.5,2.4;stroke-dashoffset:0;stroke-width:1.5;"/>
    </g>
    <g id="line2d_40"/>
    <g id="text_21">
     <!-- +1 sd -->
     <defs>
      <path d="M 46 62.703125 
L 46 35.5 
L 73.1875 35.5 
L 73.1875 27.203125 
L 46 27.203125 
L 46 0 
L 37.796875 0 
L 37.796875 27.203125 
L 10.59375 27.203125 
L 10.59375 35.5 
L 37.796875 35.5 
L 37.796875 62.703125 
z
" id="DejaVuSans-43"/>
     </defs>
     <g transform="translate(364.779375 281.826187)scale(0.1 -0.1)">
      <use xlink:href="#DejaVuSans-43"/>
      <use x="83.789062" xlink:href="#DejaVuSans-49"/>
      <use x="147.412109" xlink:href="#DejaVuSans-32"/>
      <use x="179.199219" xlink:href="#DejaVuSans-115"/>
      <use x="231.298828" xlink:href="#DejaVuSans-100"/>
     </g>
    </g>
    <g id="line2d_41">
     <path d="M 336.779375 293.004312 
L 356.779375 293.004312 
" style="fill:none;stroke:#ff0000;stroke-linecap:square;stroke-width:1.5;"/>
    </g>
    <g id="line2d_42"/>
    <g id="text_22">
     <!-- best -->
     <g transform="translate(364.779375 296.504312)scale(0.1 -0.1)">
      <use xlink:href="#DejaVuSans-98"/>
      <use x="63.476562" xlink:href="#DejaVuSans-101"/>
      <use x="125" xlink:href="#DejaVuSans-115"/>
      <use x="177.099609" xlink:href="#DejaVuSans-116"/>
     </g>
    </g>
   </g>
  </g>
 </g>
 <defs>
  <clipPath id="p75f695c7a3">
   <rect height="266.112" width="357.12" x="57.6" y="41.472"/>
  </clipPath>
 </defs>
</svg>
