<?xml version="1.0" encoding="utf-8" standalone="no"?>
<!DOCTYPE svg PUBLIC "-//W3C//DTD SVG 1.1//EN"
  "http://www.w3.org/Graphics/SVG/1.1/DTD/svg11.dtd">
<!-- Created with matplotlib (https://matplotlib.org/) -->
<svg height="345.6pt" version="1.1" viewBox="0 0 460.8 345.6" width="460.8pt" xmlns="http://www.w3.org/2000/svg" xmlns:xlink="http://www.w3.org/1999/xlink">
 <defs>
  <style type="text/css">
*{stroke-linecap:butt;stroke-linejoin:round;}
  </style>
 </defs>
 <g id="figure_1">
  <g id="patch_1">
   <path d="M 0 345.6 
L 460.8 345.6 
L 460.8 0 
L 0 0 
z
" style="fill:#ffffff;"/>
  </g>
  <g id="axes_1">
   <g id="patch_2">
    <path d="M 57.6 307.584 
L 414.72 307.584 
L 414.72 41.472 
L 57.6 41.472 
z
" style="fill:#ffffff;"/>
   </g>
   <g id="matplotlib.axis_1">
    <g id="xtick_1">
     <g id="line2d_1">
      <path clip-path="url(#p2a5c334421)" d="M 73.832727 307.584 
L 73.832727 41.472 
" style="fill:none;stroke:#b0b0b0;stroke-linecap:square;stroke-width:0.8;"/>
     </g>
     <g id="line2d_2">
      <defs>
       <path d="M 0 0 
L 0 3.5 
" id="m86f6628908" style="stroke:#000000;stroke-width:0.8;"/>
      </defs>
      <g>
       <use style="stroke:#000000;stroke-width:0.8;" x="73.832727" xlink:href="#m86f6628908" y="307.584"/>
      </g>
     </g>
     <g id="text_1">
      <!-- 0 -->
      <defs>
       <path d="M 31.78125 66.40625 
Q 24.171875 66.40625 20.328125 58.90625 
Q 16.5 51.421875 16.5 36.375 
Q 16.5 21.390625 20.328125 13.890625 
Q 24.171875 6.390625 31.78125 6.390625 
Q 39.453125 6.390625 43.28125 13.890625 
Q 47.125 21.390625 47.125 36.375 
Q 47.125 51.421875 43.28125 58.90625 
Q 39.453125 66.40625 31.78125 66.40625 
z
M 31.78125 74.21875 
Q 44.046875 74.21875 50.515625 64.515625 
Q 56.984375 54.828125 56.984375 36.375 
Q 56.984375 17.96875 50.515625 8.265625 
Q 44.046875 -1.421875 31.78125 -1.421875 
Q 19.53125 -1.421875 13.0625 8.265625 
Q 6.59375 17.96875 6.59375 36.375 
Q 6.59375 54.828125 13.0625 64.515625 
Q 19.53125 74.21875 31.78125 74.21875 
z
" id="DejaVuSans-48"/>
      </defs>
      <g transform="translate(70.651477 322.182437)scale(0.1 -0.1)">
       <use xlink:href="#DejaVuSans-48"/>
      </g>
     </g>
    </g>
    <g id="xtick_2">
     <g id="line2d_3">
      <path clip-path="url(#p2a5c334421)" d="M 128.122785 307.584 
L 128.122785 41.472 
" style="fill:none;stroke:#b0b0b0;stroke-linecap:square;stroke-width:0.8;"/>
     </g>
     <g id="line2d_4">
      <g>
       <use style="stroke:#000000;stroke-width:0.8;" x="128.122785" xlink:href="#m86f6628908" y="307.584"/>
      </g>
     </g>
     <g id="text_2">
      <!-- 50 -->
      <defs>
       <path d="M 10.796875 72.90625 
L 49.515625 72.90625 
L 49.515625 64.59375 
L 19.828125 64.59375 
L 19.828125 46.734375 
Q 21.96875 47.46875 24.109375 47.828125 
Q 26.265625 48.1875 28.421875 48.1875 
Q 40.625 48.1875 47.75 41.5 
Q 54.890625 34.8125 54.890625 23.390625 
Q 54.890625 11.625 47.5625 5.09375 
Q 40.234375 -1.421875 26.90625 -1.421875 
Q 22.3125 -1.421875 17.546875 -0.640625 
Q 12.796875 0.140625 7.71875 1.703125 
L 7.71875 11.625 
Q 12.109375 9.234375 16.796875 8.0625 
Q 21.484375 6.890625 26.703125 6.890625 
Q 35.15625 6.890625 40.078125 11.328125 
Q 45.015625 15.765625 45.015625 23.390625 
Q 45.015625 31 40.078125 35.4375 
Q 35.15625 39.890625 26.703125 39.890625 
Q 22.75 39.890625 18.8125 39.015625 
Q 14.890625 38.140625 10.796875 36.28125 
z
" id="DejaVuSans-53"/>
      </defs>
      <g transform="translate(121.760285 322.182437)scale(0.1 -0.1)">
       <use xlink:href="#DejaVuSans-53"/>
       <use x="63.623047" xlink:href="#DejaVuSans-48"/>
      </g>
     </g>
    </g>
    <g id="xtick_3">
     <g id="line2d_5">
      <path clip-path="url(#p2a5c334421)" d="M 182.412843 307.584 
L 182.412843 41.472 
" style="fill:none;stroke:#b0b0b0;stroke-linecap:square;stroke-width:0.8;"/>
     </g>
     <g id="line2d_6">
      <g>
       <use style="stroke:#000000;stroke-width:0.8;" x="182.412843" xlink:href="#m86f6628908" y="307.584"/>
      </g>
     </g>
     <g id="text_3">
      <!-- 100 -->
      <defs>
       <path d="M 12.40625 8.296875 
L 28.515625 8.296875 
L 28.515625 63.921875 
L 10.984375 60.40625 
L 10.984375 69.390625 
L 28.421875 72.90625 
L 38.28125 72.90625 
L 38.28125 8.296875 
L 54.390625 8.296875 
L 54.390625 0 
L 12.40625 0 
z
" id="DejaVuSans-49"/>
      </defs>
      <g transform="translate(172.869093 322.182437)scale(0.1 -0.1)">
       <use xlink:href="#DejaVuSans-49"/>
       <use x="63.623047" xlink:href="#DejaVuSans-48"/>
       <use x="127.246094" xlink:href="#DejaVuSans-48"/>
      </g>
     </g>
    </g>
    <g id="xtick_4">
     <g id="line2d_7">
      <path clip-path="url(#p2a5c334421)" d="M 236.702901 307.584 
L 236.702901 41.472 
" style="fill:none;stroke:#b0b0b0;stroke-linecap:square;stroke-width:0.8;"/>
     </g>
     <g id="line2d_8">
      <g>
       <use style="stroke:#000000;stroke-width:0.8;" x="236.702901" xlink:href="#m86f6628908" y="307.584"/>
      </g>
     </g>
     <g id="text_4">
      <!-- 150 -->
      <g transform="translate(227.159151 322.182437)scale(0.1 -0.1)">
       <use xlink:href="#DejaVuSans-49"/>
       <use x="63.623047" xlink:href="#DejaVuSans-53"/>
       <use x="127.246094" xlink:href="#DejaVuSans-48"/>
      </g>
     </g>
    </g>
    <g id="xtick_5">
     <g id="line2d_9">
      <path clip-path="url(#p2a5c334421)" d="M 290.992958 307.584 
L 290.992958 41.472 
" style="fill:none;stroke:#b0b0b0;stroke-linecap:square;stroke-width:0.8;"/>
     </g>
     <g id="line2d_10">
      <g>
       <use style="stroke:#000000;stroke-width:0.8;" x="290.992958" xlink:href="#m86f6628908" y="307.584"/>
      </g>
     </g>
     <g id="text_5">
      <!-- 200 -->
      <defs>
       <path d="M 19.1875 8.296875 
L 53.609375 8.296875 
L 53.609375 0 
L 7.328125 0 
L 7.328125 8.296875 
Q 12.9375 14.109375 22.625 23.890625 
Q 32.328125 33.6875 34.8125 36.53125 
Q 39.546875 41.84375 41.421875 45.53125 
Q 43.3125 49.21875 43.3125 52.78125 
Q 43.3125 58.59375 39.234375 62.25 
Q 35.15625 65.921875 28.609375 65.921875 
Q 23.96875 65.921875 18.8125 64.3125 
Q 13.671875 62.703125 7.8125 59.421875 
L 7.8125 69.390625 
Q 13.765625 71.78125 18.9375 73 
Q 24.125 74.21875 28.421875 74.21875 
Q 39.75 74.21875 46.484375 68.546875 
Q 53.21875 62.890625 53.21875 53.421875 
Q 53.21875 48.921875 51.53125 44.890625 
Q 49.859375 40.875 45.40625 35.40625 
Q 44.1875 33.984375 37.640625 27.21875 
Q 31.109375 20.453125 19.1875 8.296875 
z
" id="DejaVuSans-50"/>
      </defs>
      <g transform="translate(281.449208 322.182437)scale(0.1 -0.1)">
       <use xlink:href="#DejaVuSans-50"/>
       <use x="63.623047" xlink:href="#DejaVuSans-48"/>
       <use x="127.246094" xlink:href="#DejaVuSans-48"/>
      </g>
     </g>
    </g>
    <g id="xtick_6">
     <g id="line2d_11">
      <path clip-path="url(#p2a5c334421)" d="M 345.283016 307.584 
L 345.283016 41.472 
" style="fill:none;stroke:#b0b0b0;stroke-linecap:square;stroke-width:0.8;"/>
     </g>
     <g id="line2d_12">
      <g>
       <use style="stroke:#000000;stroke-width:0.8;" x="345.283016" xlink:href="#m86f6628908" y="307.584"/>
      </g>
     </g>
     <g id="text_6">
      <!-- 250 -->
      <g transform="translate(335.739266 322.182437)scale(0.1 -0.1)">
       <use xlink:href="#DejaVuSans-50"/>
       <use x="63.623047" xlink:href="#DejaVuSans-53"/>
       <use x="127.246094" xlink:href="#DejaVuSans-48"/>
      </g>
     </g>
    </g>
    <g id="xtick_7">
     <g id="line2d_13">
      <path clip-path="url(#p2a5c334421)" d="M 399.573074 307.584 
L 399.573074 41.472 
" style="fill:none;stroke:#b0b0b0;stroke-linecap:square;stroke-width:0.8;"/>
     </g>
     <g id="line2d_14">
      <g>
       <use style="stroke:#000000;stroke-width:0.8;" x="399.573074" xlink:href="#m86f6628908" y="307.584"/>
      </g>
     </g>
     <g id="text_7">
      <!-- 300 -->
      <defs>
       <path d="M 40.578125 39.3125 
Q 47.65625 37.796875 51.625 33 
Q 55.609375 28.21875 55.609375 21.1875 
Q 55.609375 10.40625 48.1875 4.484375 
Q 40.765625 -1.421875 27.09375 -1.421875 
Q 22.515625 -1.421875 17.65625 -0.515625 
Q 12.796875 0.390625 7.625 2.203125 
L 7.625 11.71875 
Q 11.71875 9.328125 16.59375 8.109375 
Q 21.484375 6.890625 26.8125 6.890625 
Q 36.078125 6.890625 40.9375 10.546875 
Q 45.796875 14.203125 45.796875 21.1875 
Q 45.796875 27.640625 41.28125 31.265625 
Q 36.765625 34.90625 28.71875 34.90625 
L 20.21875 34.90625 
L 20.21875 43.015625 
L 29.109375 43.015625 
Q 36.375 43.015625 40.234375 45.921875 
Q 44.09375 48.828125 44.09375 54.296875 
Q 44.09375 59.90625 40.109375 62.90625 
Q 36.140625 65.921875 28.71875 65.921875 
Q 24.65625 65.921875 20.015625 65.03125 
Q 15.375 64.15625 9.8125 62.3125 
L 9.8125 71.09375 
Q 15.4375 72.65625 20.34375 73.4375 
Q 25.25 74.21875 29.59375 74.21875 
Q 40.828125 74.21875 47.359375 69.109375 
Q 53.90625 64.015625 53.90625 55.328125 
Q 53.90625 49.265625 50.4375 45.09375 
Q 46.96875 40.921875 40.578125 39.3125 
z
" id="DejaVuSans-51"/>
      </defs>
      <g transform="translate(390.029324 322.182437)scale(0.1 -0.1)">
       <use xlink:href="#DejaVuSans-51"/>
       <use x="63.623047" xlink:href="#DejaVuSans-48"/>
       <use x="127.246094" xlink:href="#DejaVuSans-48"/>
      </g>
     </g>
    </g>
    <g id="text_8">
     <!-- Generations -->
     <defs>
      <path d="M 59.515625 10.40625 
L 59.515625 29.984375 
L 43.40625 29.984375 
L 43.40625 38.09375 
L 69.28125 38.09375 
L 69.28125 6.78125 
Q 63.578125 2.734375 56.6875 0.65625 
Q 49.8125 -1.421875 42 -1.421875 
Q 24.90625 -1.421875 15.25 8.5625 
Q 5.609375 18.5625 5.609375 36.375 
Q 5.609375 54.25 15.25 64.234375 
Q 24.90625 74.21875 42 74.21875 
Q 49.125 74.21875 55.546875 72.453125 
Q 61.96875 70.703125 67.390625 67.28125 
L 67.390625 56.78125 
Q 61.921875 61.421875 55.765625 63.765625 
Q 49.609375 66.109375 42.828125 66.109375 
Q 29.4375 66.109375 22.71875 58.640625 
Q 16.015625 51.171875 16.015625 36.375 
Q 16.015625 21.625 22.71875 14.15625 
Q 29.4375 6.6875 42.828125 6.6875 
Q 48.046875 6.6875 52.140625 7.59375 
Q 56.25 8.5 59.515625 10.40625 
z
" id="DejaVuSans-71"/>
      <path d="M 56.203125 29.59375 
L 56.203125 25.203125 
L 14.890625 25.203125 
Q 15.484375 15.921875 20.484375 11.0625 
Q 25.484375 6.203125 34.421875 6.203125 
Q 39.59375 6.203125 44.453125 7.46875 
Q 49.3125 8.734375 54.109375 11.28125 
L 54.109375 2.78125 
Q 49.265625 0.734375 44.1875 -0.34375 
Q 39.109375 -1.421875 33.890625 -1.421875 
Q 20.796875 -1.421875 13.15625 6.1875 
Q 5.515625 13.8125 5.515625 26.8125 
Q 5.515625 40.234375 12.765625 48.109375 
Q 20.015625 56 32.328125 56 
Q 43.359375 56 49.78125 48.890625 
Q 56.203125 41.796875 56.203125 29.59375 
z
M 47.21875 32.234375 
Q 47.125 39.59375 43.09375 43.984375 
Q 39.0625 48.390625 32.421875 48.390625 
Q 24.90625 48.390625 20.390625 44.140625 
Q 15.875 39.890625 15.1875 32.171875 
z
" id="DejaVuSans-101"/>
      <path d="M 54.890625 33.015625 
L 54.890625 0 
L 45.90625 0 
L 45.90625 32.71875 
Q 45.90625 40.484375 42.875 44.328125 
Q 39.84375 48.1875 33.796875 48.1875 
Q 26.515625 48.1875 22.3125 43.546875 
Q 18.109375 38.921875 18.109375 30.90625 
L 18.109375 0 
L 9.078125 0 
L 9.078125 54.6875 
L 18.109375 54.6875 
L 18.109375 46.1875 
Q 21.34375 51.125 25.703125 53.5625 
Q 30.078125 56 35.796875 56 
Q 45.21875 56 50.046875 50.171875 
Q 54.890625 44.34375 54.890625 33.015625 
z
" id="DejaVuSans-110"/>
      <path d="M 41.109375 46.296875 
Q 39.59375 47.171875 37.8125 47.578125 
Q 36.03125 48 33.890625 48 
Q 26.265625 48 22.1875 43.046875 
Q 18.109375 38.09375 18.109375 28.8125 
L 18.109375 0 
L 9.078125 0 
L 9.078125 54.6875 
L 18.109375 54.6875 
L 18.109375 46.1875 
Q 20.953125 51.171875 25.484375 53.578125 
Q 30.03125 56 36.53125 56 
Q 37.453125 56 38.578125 55.875 
Q 39.703125 55.765625 41.0625 55.515625 
z
" id="DejaVuSans-114"/>
      <path d="M 34.28125 27.484375 
Q 23.390625 27.484375 19.1875 25 
Q 14.984375 22.515625 14.984375 16.5 
Q 14.984375 11.71875 18.140625 8.90625 
Q 21.296875 6.109375 26.703125 6.109375 
Q 34.1875 6.109375 38.703125 11.40625 
Q 43.21875 16.703125 43.21875 25.484375 
L 43.21875 27.484375 
z
M 52.203125 31.203125 
L 52.203125 0 
L 43.21875 0 
L 43.21875 8.296875 
Q 40.140625 3.328125 35.546875 0.953125 
Q 30.953125 -1.421875 24.3125 -1.421875 
Q 15.921875 -1.421875 10.953125 3.296875 
Q 6 8.015625 6 15.921875 
Q 6 25.140625 12.171875 29.828125 
Q 18.359375 34.515625 30.609375 34.515625 
L 43.21875 34.515625 
L 43.21875 35.40625 
Q 43.21875 41.609375 39.140625 45 
Q 35.0625 48.390625 27.6875 48.390625 
Q 23 48.390625 18.546875 47.265625 
Q 14.109375 46.140625 10.015625 43.890625 
L 10.015625 52.203125 
Q 14.9375 54.109375 19.578125 55.046875 
Q 24.21875 56 28.609375 56 
Q 40.484375 56 46.34375 49.84375 
Q 52.203125 43.703125 52.203125 31.203125 
z
" id="DejaVuSans-97"/>
      <path d="M 18.3125 70.21875 
L 18.3125 54.6875 
L 36.8125 54.6875 
L 36.8125 47.703125 
L 18.3125 47.703125 
L 18.3125 18.015625 
Q 18.3125 11.328125 20.140625 9.421875 
Q 21.96875 7.515625 27.59375 7.515625 
L 36.8125 7.515625 
L 36.8125 0 
L 27.59375 0 
Q 17.1875 0 13.234375 3.875 
Q 9.28125 7.765625 9.28125 18.015625 
L 9.28125 47.703125 
L 2.6875 47.703125 
L 2.6875 54.6875 
L 9.28125 54.6875 
L 9.28125 70.21875 
z
" id="DejaVuSans-116"/>
      <path d="M 9.421875 54.6875 
L 18.40625 54.6875 
L 18.40625 0 
L 9.421875 0 
z
M 9.421875 75.984375 
L 18.40625 75.984375 
L 18.40625 64.59375 
L 9.421875 64.59375 
z
" id="DejaVuSans-105"/>
      <path d="M 30.609375 48.390625 
Q 23.390625 48.390625 19.1875 42.75 
Q 14.984375 37.109375 14.984375 27.296875 
Q 14.984375 17.484375 19.15625 11.84375 
Q 23.34375 6.203125 30.609375 6.203125 
Q 37.796875 6.203125 41.984375 11.859375 
Q 46.1875 17.53125 46.1875 27.296875 
Q 46.1875 37.015625 41.984375 42.703125 
Q 37.796875 48.390625 30.609375 48.390625 
z
M 30.609375 56 
Q 42.328125 56 49.015625 48.375 
Q 55.71875 40.765625 55.71875 27.296875 
Q 55.71875 13.875 49.015625 6.21875 
Q 42.328125 -1.421875 30.609375 -1.421875 
Q 18.84375 -1.421875 12.171875 6.21875 
Q 5.515625 13.875 5.515625 27.296875 
Q 5.515625 40.765625 12.171875 48.375 
Q 18.84375 56 30.609375 56 
z
" id="DejaVuSans-111"/>
      <path d="M 44.28125 53.078125 
L 44.28125 44.578125 
Q 40.484375 46.53125 36.375 47.5 
Q 32.28125 48.484375 27.875 48.484375 
Q 21.1875 48.484375 17.84375 46.4375 
Q 14.5 44.390625 14.5 40.28125 
Q 14.5 37.15625 16.890625 35.375 
Q 19.28125 33.59375 26.515625 31.984375 
L 29.59375 31.296875 
Q 39.15625 29.25 43.1875 25.515625 
Q 47.21875 21.78125 47.21875 15.09375 
Q 47.21875 7.46875 41.1875 3.015625 
Q 35.15625 -1.421875 24.609375 -1.421875 
Q 20.21875 -1.421875 15.453125 -0.5625 
Q 10.6875 0.296875 5.421875 2 
L 5.421875 11.28125 
Q 10.40625 8.6875 15.234375 7.390625 
Q 20.0625 6.109375 24.8125 6.109375 
Q 31.15625 6.109375 34.5625 8.28125 
Q 37.984375 10.453125 37.984375 14.40625 
Q 37.984375 18.0625 35.515625 20.015625 
Q 33.0625 21.96875 24.703125 23.78125 
L 21.578125 24.515625 
Q 13.234375 26.265625 9.515625 29.90625 
Q 5.8125 33.546875 5.8125 39.890625 
Q 5.8125 47.609375 11.28125 51.796875 
Q 16.75 56 26.8125 56 
Q 31.78125 56 36.171875 55.265625 
Q 40.578125 54.546875 44.28125 53.078125 
z
" id="DejaVuSans-115"/>
     </defs>
     <g transform="translate(205.662344 335.860562)scale(0.1 -0.1)">
      <use xlink:href="#DejaVuSans-71"/>
      <use x="77.490234" xlink:href="#DejaVuSans-101"/>
      <use x="139.013672" xlink:href="#DejaVuSans-110"/>
      <use x="202.392578" xlink:href="#DejaVuSans-101"/>
      <use x="263.916016" xlink:href="#DejaVuSans-114"/>
      <use x="305.029297" xlink:href="#DejaVuSans-97"/>
      <use x="366.308594" xlink:href="#DejaVuSans-116"/>
      <use x="405.517578" xlink:href="#DejaVuSans-105"/>
      <use x="433.300781" xlink:href="#DejaVuSans-111"/>
      <use x="494.482422" xlink:href="#DejaVuSans-110"/>
      <use x="557.861328" xlink:href="#DejaVuSans-115"/>
     </g>
    </g>
   </g>
   <g id="matplotlib.axis_2">
    <g id="ytick_1">
     <g id="line2d_15">
      <path clip-path="url(#p2a5c334421)" d="M 57.6 278.108066 
L 414.72 278.108066 
" style="fill:none;stroke:#b0b0b0;stroke-linecap:square;stroke-width:0.8;"/>
     </g>
     <g id="line2d_16">
      <defs>
       <path d="M 0 0 
L -3.5 0 
" id="m28e9c50772" style="stroke:#000000;stroke-width:0.8;"/>
      </defs>
      <g>
       <use style="stroke:#000000;stroke-width:0.8;" x="57.6" xlink:href="#m28e9c50772" y="278.108066"/>
      </g>
     </g>
     <g id="text_9">
      <!-- 600 -->
      <defs>
       <path d="M 33.015625 40.375 
Q 26.375 40.375 22.484375 35.828125 
Q 18.609375 31.296875 18.609375 23.390625 
Q 18.609375 15.53125 22.484375 10.953125 
Q 26.375 6.390625 33.015625 6.390625 
Q 39.65625 6.390625 43.53125 10.953125 
Q 47.40625 15.53125 47.40625 23.390625 
Q 47.40625 31.296875 43.53125 35.828125 
Q 39.65625 40.375 33.015625 40.375 
z
M 52.59375 71.296875 
L 52.59375 62.3125 
Q 48.875 64.0625 45.09375 64.984375 
Q 41.3125 65.921875 37.59375 65.921875 
Q 27.828125 65.921875 22.671875 59.328125 
Q 17.53125 52.734375 16.796875 39.40625 
Q 19.671875 43.65625 24.015625 45.921875 
Q 28.375 48.1875 33.59375 48.1875 
Q 44.578125 48.1875 50.953125 41.515625 
Q 57.328125 34.859375 57.328125 23.390625 
Q 57.328125 12.15625 50.6875 5.359375 
Q 44.046875 -1.421875 33.015625 -1.421875 
Q 20.359375 -1.421875 13.671875 8.265625 
Q 6.984375 17.96875 6.984375 36.375 
Q 6.984375 53.65625 15.1875 63.9375 
Q 23.390625 74.21875 37.203125 74.21875 
Q 40.921875 74.21875 44.703125 73.484375 
Q 48.484375 72.75 52.59375 71.296875 
z
" id="DejaVuSans-54"/>
      </defs>
      <g transform="translate(31.5125 281.907284)scale(0.1 -0.1)">
       <use xlink:href="#DejaVuSans-54"/>
       <use x="63.623047" xlink:href="#DejaVuSans-48"/>
       <use x="127.246094" xlink:href="#DejaVuSans-48"/>
      </g>
     </g>
    </g>
    <g id="ytick_2">
     <g id="line2d_17">
      <path clip-path="url(#p2a5c334421)" d="M 57.6 243.085014 
L 414.72 243.085014 
" style="fill:none;stroke:#b0b0b0;stroke-linecap:square;stroke-width:0.8;"/>
     </g>
     <g id="line2d_18">
      <g>
       <use style="stroke:#000000;stroke-width:0.8;" x="57.6" xlink:href="#m28e9c50772" y="243.085014"/>
      </g>
     </g>
     <g id="text_10">
      <!-- 800 -->
      <defs>
       <path d="M 31.78125 34.625 
Q 24.75 34.625 20.71875 30.859375 
Q 16.703125 27.09375 16.703125 20.515625 
Q 16.703125 13.921875 20.71875 10.15625 
Q 24.75 6.390625 31.78125 6.390625 
Q 38.8125 6.390625 42.859375 10.171875 
Q 46.921875 13.96875 46.921875 20.515625 
Q 46.921875 27.09375 42.890625 30.859375 
Q 38.875 34.625 31.78125 34.625 
z
M 21.921875 38.8125 
Q 15.578125 40.375 12.03125 44.71875 
Q 8.5 49.078125 8.5 55.328125 
Q 8.5 64.0625 14.71875 69.140625 
Q 20.953125 74.21875 31.78125 74.21875 
Q 42.671875 74.21875 48.875 69.140625 
Q 55.078125 64.0625 55.078125 55.328125 
Q 55.078125 49.078125 51.53125 44.71875 
Q 48 40.375 41.703125 38.8125 
Q 48.828125 37.15625 52.796875 32.3125 
Q 56.78125 27.484375 56.78125 20.515625 
Q 56.78125 9.90625 50.3125 4.234375 
Q 43.84375 -1.421875 31.78125 -1.421875 
Q 19.734375 -1.421875 13.25 4.234375 
Q 6.78125 9.90625 6.78125 20.515625 
Q 6.78125 27.484375 10.78125 32.3125 
Q 14.796875 37.15625 21.921875 38.8125 
z
M 18.3125 54.390625 
Q 18.3125 48.734375 21.84375 45.5625 
Q 25.390625 42.390625 31.78125 42.390625 
Q 38.140625 42.390625 41.71875 45.5625 
Q 45.3125 48.734375 45.3125 54.390625 
Q 45.3125 60.0625 41.71875 63.234375 
Q 38.140625 66.40625 31.78125 66.40625 
Q 25.390625 66.40625 21.84375 63.234375 
Q 18.3125 60.0625 18.3125 54.390625 
z
" id="DejaVuSans-56"/>
      </defs>
      <g transform="translate(31.5125 246.884233)scale(0.1 -0.1)">
       <use xlink:href="#DejaVuSans-56"/>
       <use x="63.623047" xlink:href="#DejaVuSans-48"/>
       <use x="127.246094" xlink:href="#DejaVuSans-48"/>
      </g>
     </g>
    </g>
    <g id="ytick_3">
     <g id="line2d_19">
      <path clip-path="url(#p2a5c334421)" d="M 57.6 208.061963 
L 414.72 208.061963 
" style="fill:none;stroke:#b0b0b0;stroke-linecap:square;stroke-width:0.8;"/>
     </g>
     <g id="line2d_20">
      <g>
       <use style="stroke:#000000;stroke-width:0.8;" x="57.6" xlink:href="#m28e9c50772" y="208.061963"/>
      </g>
     </g>
     <g id="text_11">
      <!-- 1000 -->
      <g transform="translate(25.15 211.861181)scale(0.1 -0.1)">
       <use xlink:href="#DejaVuSans-49"/>
       <use x="63.623047" xlink:href="#DejaVuSans-48"/>
       <use x="127.246094" xlink:href="#DejaVuSans-48"/>
       <use x="190.869141" xlink:href="#DejaVuSans-48"/>
      </g>
     </g>
    </g>
    <g id="ytick_4">
     <g id="line2d_21">
      <path clip-path="url(#p2a5c334421)" d="M 57.6 173.038911 
L 414.72 173.038911 
" style="fill:none;stroke:#b0b0b0;stroke-linecap:square;stroke-width:0.8;"/>
     </g>
     <g id="line2d_22">
      <g>
       <use style="stroke:#000000;stroke-width:0.8;" x="57.6" xlink:href="#m28e9c50772" y="173.038911"/>
      </g>
     </g>
     <g id="text_12">
      <!-- 1200 -->
      <g transform="translate(25.15 176.83813)scale(0.1 -0.1)">
       <use xlink:href="#DejaVuSans-49"/>
       <use x="63.623047" xlink:href="#DejaVuSans-50"/>
       <use x="127.246094" xlink:href="#DejaVuSans-48"/>
       <use x="190.869141" xlink:href="#DejaVuSans-48"/>
      </g>
     </g>
    </g>
    <g id="ytick_5">
     <g id="line2d_23">
      <path clip-path="url(#p2a5c334421)" d="M 57.6 138.01586 
L 414.72 138.01586 
" style="fill:none;stroke:#b0b0b0;stroke-linecap:square;stroke-width:0.8;"/>
     </g>
     <g id="line2d_24">
      <g>
       <use style="stroke:#000000;stroke-width:0.8;" x="57.6" xlink:href="#m28e9c50772" y="138.01586"/>
      </g>
     </g>
     <g id="text_13">
      <!-- 1400 -->
      <defs>
       <path d="M 37.796875 64.3125 
L 12.890625 25.390625 
L 37.796875 25.390625 
z
M 35.203125 72.90625 
L 47.609375 72.90625 
L 47.609375 25.390625 
L 58.015625 25.390625 
L 58.015625 17.1875 
L 47.609375 17.1875 
L 47.609375 0 
L 37.796875 0 
L 37.796875 17.1875 
L 4.890625 17.1875 
L 4.890625 26.703125 
z
" id="DejaVuSans-52"/>
      </defs>
      <g transform="translate(25.15 141.815078)scale(0.1 -0.1)">
       <use xlink:href="#DejaVuSans-49"/>
       <use x="63.623047" xlink:href="#DejaVuSans-52"/>
       <use x="127.246094" xlink:href="#DejaVuSans-48"/>
       <use x="190.869141" xlink:href="#DejaVuSans-48"/>
      </g>
     </g>
    </g>
    <g id="ytick_6">
     <g id="line2d_25">
      <path clip-path="url(#p2a5c334421)" d="M 57.6 102.992808 
L 414.72 102.992808 
" style="fill:none;stroke:#b0b0b0;stroke-linecap:square;stroke-width:0.8;"/>
     </g>
     <g id="line2d_26">
      <g>
       <use style="stroke:#000000;stroke-width:0.8;" x="57.6" xlink:href="#m28e9c50772" y="102.992808"/>
      </g>
     </g>
     <g id="text_14">
      <!-- 1600 -->
      <g transform="translate(25.15 106.792027)scale(0.1 -0.1)">
       <use xlink:href="#DejaVuSans-49"/>
       <use x="63.623047" xlink:href="#DejaVuSans-54"/>
       <use x="127.246094" xlink:href="#DejaVuSans-48"/>
       <use x="190.869141" xlink:href="#DejaVuSans-48"/>
      </g>
     </g>
    </g>
    <g id="ytick_7">
     <g id="line2d_27">
      <path clip-path="url(#p2a5c334421)" d="M 57.6 67.969756 
L 414.72 67.969756 
" style="fill:none;stroke:#b0b0b0;stroke-linecap:square;stroke-width:0.8;"/>
     </g>
     <g id="line2d_28">
      <g>
       <use style="stroke:#000000;stroke-width:0.8;" x="57.6" xlink:href="#m28e9c50772" y="67.969756"/>
      </g>
     </g>
     <g id="text_15">
      <!-- 1800 -->
      <g transform="translate(25.15 71.768975)scale(0.1 -0.1)">
       <use xlink:href="#DejaVuSans-49"/>
       <use x="63.623047" xlink:href="#DejaVuSans-56"/>
       <use x="127.246094" xlink:href="#DejaVuSans-48"/>
       <use x="190.869141" xlink:href="#DejaVuSans-48"/>
      </g>
     </g>
    </g>
    <g id="text_16">
     <!-- Fitness -->
     <defs>
      <path d="M 9.8125 72.90625 
L 51.703125 72.90625 
L 51.703125 64.59375 
L 19.671875 64.59375 
L 19.671875 43.109375 
L 48.578125 43.109375 
L 48.578125 34.8125 
L 19.671875 34.8125 
L 19.671875 0 
L 9.8125 0 
z
" id="DejaVuSans-70"/>
     </defs>
     <g transform="translate(19.070312 192.202219)rotate(-90)scale(0.1 -0.1)">
      <use xlink:href="#DejaVuSans-70"/>
      <use x="57.410156" xlink:href="#DejaVuSans-105"/>
      <use x="85.193359" xlink:href="#DejaVuSans-116"/>
      <use x="124.402344" xlink:href="#DejaVuSans-110"/>
      <use x="187.78125" xlink:href="#DejaVuSans-101"/>
      <use x="249.304688" xlink:href="#DejaVuSans-115"/>
      <use x="301.404297" xlink:href="#DejaVuSans-115"/>
     </g>
    </g>
   </g>
   <g id="line2d_29">
    <path clip-path="url(#p2a5c334421)" d="M 73.832727 290.007775 
L 74.918528 185.607872 
L 76.00433 193.043743 
L 77.090131 192.430589 
L 78.175932 178.951491 
L 79.261733 219.4316 
L 80.347534 188.932793 
L 81.433335 176.255424 
L 82.519137 179.829821 
L 83.604938 170.343254 
L 84.690739 149.429002 
L 85.77654 155.065509 
L 86.862341 180.727817 
L 87.948142 176.763691 
L 89.033943 173.73995 
L 90.119745 190.496627 
L 91.205546 169.207034 
L 92.291347 158.001076 
L 93.377148 173.322799 
L 94.462949 168.768445 
L 95.54875 171.266085 
L 96.634552 150.108307 
L 98.806154 160.676503 
L 99.891955 183.83478 
L 100.977756 175.687981 
L 102.063557 177.177136 
L 103.149358 151.93579 
L 104.23516 149.706368 
L 105.320961 166.241797 
L 106.406762 171.224932 
L 107.492563 173.251432 
L 108.578364 177.628657 
L 109.664165 193.758646 
L 110.749967 179.675485 
L 111.835768 201.657568 
L 114.00737 151.880115 
L 115.093171 170.356882 
L 116.178972 143.975123 
L 117.264773 146.70681 
L 118.350575 164.527097 
L 119.436376 146.884112 
L 120.522177 159.501034 
L 121.607978 201.424473 
L 122.693779 170.805658 
L 123.77958 163.26304 
L 124.865382 173.495299 
L 125.951183 171.202228 
L 127.036984 193.105781 
L 128.122785 158.514371 
L 129.208586 141.080076 
L 130.294387 137.584581 
L 131.380189 124.820184 
L 132.46599 153.27322 
L 133.551791 137.080671 
L 134.637592 153.202002 
L 135.723393 154.81892 
L 136.809194 144.380087 
L 137.894995 143.92451 
L 138.980797 164.236184 
L 140.066598 144.37554 
L 141.152399 148.602751 
L 142.2382 151.834662 
L 143.324001 135.633374 
L 144.409802 160.306993 
L 145.495604 149.552318 
L 146.581405 135.430229 
L 147.667206 135.386846 
L 148.753007 134.8897 
L 149.838808 143.612438 
L 150.924609 140.583093 
L 152.01041 144.472681 
L 153.096212 150.748436 
L 154.182013 138.937937 
L 155.267814 168.245909 
L 156.353615 126.257553 
L 157.439416 132.984978 
L 158.525217 136.030693 
L 159.611019 150.759339 
L 160.69682 134.326204 
L 161.782621 146.887888 
L 162.868422 142.617419 
L 163.954223 131.831753 
L 165.040024 127.012434 
L 166.125825 120.128646 
L 167.211627 124.168453 
L 168.297428 124.369638 
L 169.383229 129.793906 
L 170.46903 123.910585 
L 171.554831 133.345007 
L 172.640632 124.263045 
L 173.726434 125.407545 
L 174.812235 136.571228 
L 175.898036 113.296853 
L 176.983837 126.824769 
L 178.069638 119.085215 
L 179.155439 122.868309 
L 180.24124 134.530775 
L 181.327042 128.176259 
L 182.412843 120.155501 
L 183.498644 155.331914 
L 184.584445 145.079161 
L 185.670246 147.243874 
L 186.756047 131.813344 
L 187.841849 141.424178 
L 188.92765 149.323655 
L 190.013451 139.828539 
L 191.099252 132.03299 
L 192.185053 119.88079 
L 193.270854 113.858021 
L 194.356656 130.049802 
L 195.442457 121.728019 
L 196.528258 123.205651 
L 197.614059 145.951404 
L 198.69986 122.635479 
L 199.785661 135.895244 
L 200.871462 114.716809 
L 201.957264 108.607519 
L 203.043065 140.549703 
L 204.128866 122.018505 
L 205.214667 120.884166 
L 206.300468 129.865653 
L 207.386269 122.891026 
L 208.472071 149.350403 
L 209.557872 140.317936 
L 210.643673 121.686618 
L 211.729474 154.715981 
L 212.815275 128.930772 
L 214.986877 123.16885 
L 216.072679 117.259092 
L 217.15848 115.13217 
L 218.244281 106.397438 
L 219.330082 109.325625 
L 220.415883 124.733663 
L 221.501684 126.907912 
L 222.587486 100.251579 
L 223.673287 125.664693 
L 224.759088 93.31436 
L 225.844889 129.639725 
L 226.93069 104.52863 
L 228.016491 126.885699 
L 229.102292 117.693375 
L 230.188094 118.97717 
L 231.273895 122.545505 
L 232.359696 125.401717 
L 233.445497 151.909829 
L 234.531298 123.679432 
L 235.617099 146.907472 
L 236.702901 124.393875 
L 237.788702 150.421172 
L 238.874503 153.12664 
L 239.960304 123.929118 
L 241.046105 119.224327 
L 242.131906 122.281433 
L 243.217708 132.692529 
L 244.303509 125.396445 
L 245.38931 124.447221 
L 246.475111 122.080553 
L 247.560912 147.034003 
L 248.646713 106.597156 
L 249.732514 107.276142 
L 250.818316 87.636817 
L 251.904117 108.248572 
L 252.989918 99.25643 
L 254.075719 118.388886 
L 255.16152 106.061315 
L 256.247321 119.654487 
L 257.333123 108.689712 
L 258.418924 109.500761 
L 259.504725 131.141839 
L 260.590526 117.209391 
L 261.676327 115.562276 
L 262.762128 118.995951 
L 263.847929 102.218797 
L 264.933731 97.555659 
L 266.019532 108.783204 
L 267.105333 109.169398 
L 268.191134 95.686743 
L 269.276935 122.024505 
L 270.362736 108.706386 
L 271.448538 100.888358 
L 272.534339 106.807156 
L 273.62014 102.819038 
L 274.705941 105.872942 
L 275.791742 117.064269 
L 276.877543 94.089872 
L 277.963344 100.211041 
L 279.049146 102.727579 
L 280.134947 102.519103 
L 281.220748 88.988205 
L 282.306549 96.621336 
L 283.39235 94.126234 
L 284.478151 104.677387 
L 285.563953 83.840418 
L 286.649754 89.650636 
L 287.735555 84.241009 
L 288.821356 97.336892 
L 290.992958 96.785072 
L 292.07876 101.147626 
L 293.164561 94.718704 
L 294.250362 100.114603 
L 295.336163 89.985384 
L 296.421964 106.648871 
L 297.507765 94.856509 
L 298.593566 86.475637 
L 299.679368 111.992964 
L 300.765169 112.769102 
L 301.85097 112.742559 
L 302.936771 104.58422 
L 304.022572 104.290996 
L 305.108373 104.779551 
L 306.194175 107.024669 
L 307.279976 88.319694 
L 308.365777 88.683124 
L 309.451578 99.318029 
L 310.537379 98.24792 
L 311.62318 104.811816 
L 312.708981 105.820618 
L 313.794783 89.850282 
L 314.880584 89.246061 
L 315.966385 119.283998 
L 317.052186 101.793592 
L 318.137987 100.497179 
L 319.223788 109.505948 
L 320.30959 110.79629 
L 321.395391 100.041345 
L 322.481192 109.374562 
L 323.566993 92.284704 
L 324.652794 102.567345 
L 325.738595 127.290393 
L 326.824396 95.04049 
L 327.910198 101.305278 
L 328.995999 111.944471 
L 330.0818 100.716517 
L 331.167601 93.553296 
L 332.253402 117.480376 
L 333.339203 115.568942 
L 334.425005 97.961853 
L 335.510806 112.375956 
L 336.596607 121.04875 
L 337.682408 98.469951 
L 338.768209 129.72176 
L 339.85401 121.150675 
L 340.939811 122.248469 
L 342.025613 102.583415 
L 343.111414 126.621234 
L 344.197215 96.454935 
L 345.283016 128.544358 
L 346.368817 112.47953 
L 347.454618 126.469504 
L 348.54042 109.526814 
L 349.626221 125.230942 
L 350.712022 118.94113 
L 351.797823 118.689902 
L 352.883624 106.357922 
L 353.969425 132.074182 
L 355.055227 107.864189 
L 356.141028 135.409083 
L 357.226829 102.435982 
L 358.31263 114.320346 
L 359.398431 107.309525 
L 360.484232 118.623121 
L 361.570033 110.801867 
L 362.655835 115.46097 
L 363.741636 100.145385 
L 364.827437 116.761477 
L 365.913238 142.082767 
L 366.999039 123.522467 
L 368.08484 115.909313 
L 369.170642 104.356477 
L 370.256443 88.911165 
L 371.342244 103.386041 
L 372.428045 120.646106 
L 373.513846 98.580123 
L 374.599647 101.54083 
L 375.685448 110.050329 
L 376.77125 103.951656 
L 377.857051 129.381158 
L 378.942852 110.172724 
L 380.028653 98.067887 
L 381.114454 118.133215 
L 382.200255 109.670553 
L 383.286057 118.496373 
L 384.371858 114.378288 
L 385.457659 93.587896 
L 386.54346 116.851916 
L 387.629261 97.177215 
L 388.715062 127.59234 
L 389.800863 97.775393 
L 390.886665 116.242422 
L 391.972466 101.8535 
L 393.058267 115.069417 
L 394.144068 84.80626 
L 395.229869 116.629682 
L 396.31567 108.737726 
L 398.487273 132.885971 
L 398.487273 132.885971 
" style="fill:none;stroke:#0000ff;stroke-linecap:square;stroke-width:1.5;"/>
   </g>
   <g id="line2d_30">
    <path clip-path="url(#p2a5c334421)" d="M 73.832727 295.488 
L 74.918528 194.432721 
L 76.00433 203.507998 
L 77.090131 202.560101 
L 78.175932 189.930988 
L 79.261733 230.707363 
L 80.347534 202.387089 
L 81.433335 191.754369 
L 82.519137 192.794487 
L 83.604938 187.253865 
L 84.690739 164.674832 
L 85.77654 169.137231 
L 86.862341 197.234665 
L 87.948142 202.477276 
L 89.033943 193.473062 
L 90.119745 206.085786 
L 91.205546 198.853325 
L 92.291347 185.603441 
L 93.377148 201.946906 
L 94.462949 206.404479 
L 95.54875 191.80665 
L 96.634552 183.528283 
L 97.720353 192.449104 
L 98.806154 191.725848 
L 99.891955 227.489895 
L 100.977756 218.152766 
L 102.063557 236.995409 
L 103.149358 184.511484 
L 104.23516 174.508141 
L 105.320961 213.472065 
L 106.406762 194.790044 
L 107.492563 206.172614 
L 108.578364 213.802997 
L 109.664165 218.102838 
L 110.749967 208.874492 
L 111.835768 223.036768 
L 112.921569 197.409755 
L 114.00737 179.278728 
L 115.093171 189.887833 
L 116.178972 167.519686 
L 117.264773 179.272042 
L 118.350575 194.959627 
L 119.436376 169.340599 
L 120.522177 182.887193 
L 121.607978 217.317769 
L 122.693779 189.203924 
L 123.77958 183.601201 
L 124.865382 206.230658 
L 125.951183 197.826969 
L 127.036984 212.516038 
L 128.122785 183.085271 
L 129.208586 177.789501 
L 131.380189 154.955511 
L 132.46599 180.126591 
L 133.551791 161.102357 
L 134.637592 184.347152 
L 135.723393 173.576392 
L 136.809194 166.758513 
L 137.894995 169.547313 
L 138.980797 192.282773 
L 140.066598 167.828477 
L 141.152399 181.064164 
L 142.2382 173.939347 
L 143.324001 163.744843 
L 144.409802 189.393866 
L 145.495604 179.784062 
L 146.581405 154.491662 
L 147.667206 161.668642 
L 148.753007 167.194154 
L 149.838808 185.569317 
L 150.924609 177.755027 
L 152.01041 186.288277 
L 153.096212 198.96458 
L 154.182013 170.949766 
L 155.267814 200.323902 
L 156.353615 157.256003 
L 158.525217 158.832304 
L 159.611019 205.216325 
L 160.69682 162.515497 
L 161.782621 171.203968 
L 162.868422 170.58607 
L 163.954223 156.123571 
L 165.040024 156.153 
L 166.125825 139.864041 
L 167.211627 147.519231 
L 168.297428 157.638997 
L 169.383229 147.562439 
L 170.46903 145.493595 
L 171.554831 158.573477 
L 172.640632 153.643383 
L 173.726434 155.38068 
L 174.812235 173.809548 
L 175.898036 139.714116 
L 176.983837 144.847287 
L 178.069638 137.847263 
L 179.155439 148.261964 
L 180.24124 156.92534 
L 181.327042 154.594812 
L 182.412843 148.094588 
L 183.498644 178.559991 
L 184.584445 177.136819 
L 185.670246 177.591859 
L 186.756047 150.795041 
L 187.841849 162.790484 
L 188.92765 180.004839 
L 190.013451 172.242692 
L 191.099252 166.647125 
L 192.185053 145.595713 
L 193.270854 139.825868 
L 194.356656 163.761106 
L 195.442457 153.523113 
L 196.528258 152.785748 
L 197.614059 172.893743 
L 198.69986 153.93738 
L 199.785661 170.393356 
L 200.871462 141.674447 
L 201.957264 135.600327 
L 203.043065 170.135628 
L 204.128866 144.801451 
L 205.214667 144.76866 
L 206.300468 153.111536 
L 207.386269 144.736732 
L 208.472071 170.400389 
L 209.557872 163.535415 
L 210.643673 142.659175 
L 211.729474 173.535743 
L 212.815275 151.04227 
L 213.901076 150.424011 
L 214.986877 150.3973 
L 216.072679 142.936311 
L 217.15848 139.159086 
L 218.244281 133.680319 
L 219.330082 133.145116 
L 220.415883 151.711688 
L 221.501684 155.844676 
L 222.587486 123.080237 
L 223.673287 151.987828 
L 224.759088 115.172545 
L 225.844889 150.678952 
L 226.93069 127.68139 
L 228.016491 156.657328 
L 229.102292 141.915847 
L 230.188094 140.649135 
L 231.273895 152.933741 
L 232.359696 145.404408 
L 233.445497 169.658287 
L 234.531298 141.184219 
L 235.617099 181.932445 
L 236.702901 156.675768 
L 237.788702 197.392499 
L 238.874503 193.900897 
L 239.960304 162.105892 
L 241.046105 156.480112 
L 242.131906 153.56877 
L 243.217708 165.632414 
L 244.303509 161.766 
L 245.38931 153.371236 
L 246.475111 143.563852 
L 247.560912 172.06513 
L 248.646713 132.245627 
L 249.732514 150.839734 
L 250.818316 118.92587 
L 251.904117 143.287884 
L 252.989918 136.462426 
L 254.075719 143.954493 
L 255.16152 143.562353 
L 256.247321 160.726038 
L 257.333123 152.829248 
L 258.418924 147.597814 
L 259.504725 161.01869 
L 260.590526 152.449667 
L 261.676327 142.027824 
L 262.762128 159.309712 
L 263.847929 126.365336 
L 264.933731 133.021305 
L 266.019532 131.177852 
L 267.105333 131.865991 
L 268.191134 128.201884 
L 269.276935 153.630814 
L 270.362736 137.067689 
L 271.448538 126.367931 
L 272.534339 130.844458 
L 273.62014 128.678545 
L 274.705941 129.132827 
L 275.791742 139.669897 
L 276.877543 125.541714 
L 277.963344 131.080228 
L 279.049146 126.880388 
L 280.134947 134.211005 
L 281.220748 120.972905 
L 282.306549 125.331412 
L 283.39235 126.997779 
L 284.478151 127.823574 
L 285.563953 114.112836 
L 286.649754 115.928721 
L 287.735555 108.292819 
L 288.821356 120.063247 
L 289.907157 124.915179 
L 290.992958 126.92689 
L 292.07876 128.006532 
L 293.164561 115.57287 
L 294.250362 125.147178 
L 295.336163 121.181941 
L 296.421964 128.782596 
L 297.507765 119.897062 
L 298.593566 112.772567 
L 299.679368 139.96773 
L 300.765169 135.823702 
L 301.85097 134.850388 
L 302.936771 128.021768 
L 304.022572 123.413209 
L 305.108373 128.379559 
L 306.194175 136.239189 
L 307.279976 112.036652 
L 308.365777 112.132177 
L 309.451578 126.136899 
L 310.537379 126.792979 
L 311.62318 130.756905 
L 312.708981 130.288933 
L 313.794783 114.153478 
L 314.880584 115.207377 
L 315.966385 142.397421 
L 317.052186 130.016391 
L 318.137987 119.777095 
L 319.223788 138.431525 
L 320.30959 133.583162 
L 321.395391 124.557289 
L 322.481192 134.649465 
L 323.566993 120.065771 
L 324.652794 129.854967 
L 325.738595 152.465046 
L 326.824396 117.189396 
L 327.910198 126.649446 
L 328.995999 138.492166 
L 330.0818 127.372602 
L 331.167601 119.80104 
L 332.253402 145.452465 
L 333.339203 143.146704 
L 334.425005 128.844632 
L 335.510806 138.870858 
L 336.596607 145.798648 
L 337.682408 122.845551 
L 338.768209 151.91746 
L 339.85401 141.437311 
L 340.939811 146.383442 
L 342.025613 126.993578 
L 343.111414 146.875669 
L 344.197215 122.042019 
L 345.283016 161.675493 
L 346.368817 128.721147 
L 347.454618 147.995969 
L 348.54042 135.407118 
L 349.626221 150.236832 
L 350.712022 144.113883 
L 351.797823 152.526568 
L 352.883624 128.994272 
L 353.969425 158.760683 
L 355.055227 133.62374 
L 356.141028 159.607857 
L 357.226829 122.434456 
L 358.31263 135.933037 
L 359.398431 131.922772 
L 360.484232 147.149925 
L 361.570033 131.142702 
L 362.655835 147.613527 
L 363.741636 124.302394 
L 364.827437 140.019735 
L 365.913238 165.075361 
L 366.999039 149.163676 
L 368.08484 144.495986 
L 369.170642 124.987271 
L 370.256443 109.268716 
L 371.342244 129.290966 
L 372.428045 146.197428 
L 373.513846 115.586038 
L 374.599647 128.891321 
L 375.685448 132.218488 
L 376.77125 131.179427 
L 377.857051 154.859725 
L 378.942852 136.183158 
L 380.028653 119.662739 
L 381.114454 145.720858 
L 382.200255 143.958931 
L 383.286057 139.262876 
L 384.371858 137.281508 
L 385.457659 122.394942 
L 386.54346 138.025216 
L 387.629261 125.277081 
L 388.715062 152.318141 
L 389.800863 121.310382 
L 390.886665 135.01803 
L 391.972466 127.368189 
L 393.058267 138.084583 
L 394.144068 111.500628 
L 395.229869 140.464652 
L 396.31567 129.522437 
L 397.401472 145.153261 
L 398.487273 151.908261 
L 398.487273 151.908261 
" style="fill:none;stroke:#008000;stroke-dasharray:9.6,2.4,1.5,2.4;stroke-dashoffset:0;stroke-width:1.5;"/>
   </g>
   <g id="line2d_31">
    <path clip-path="url(#p2a5c334421)" d="M 73.832727 284.527549 
L 74.918528 176.783024 
L 76.00433 182.579488 
L 77.090131 182.301077 
L 78.175932 167.971993 
L 79.261733 208.155838 
L 80.347534 175.478497 
L 81.433335 160.756478 
L 82.519137 166.865154 
L 83.604938 153.432642 
L 84.690739 134.183171 
L 85.77654 140.993787 
L 86.862341 164.220969 
L 87.948142 151.050106 
L 89.033943 154.006838 
L 90.119745 174.907468 
L 91.205546 139.560743 
L 92.291347 130.39871 
L 93.377148 144.698692 
L 94.462949 131.132411 
L 95.54875 150.72552 
L 96.634552 116.688332 
L 97.720353 118.142889 
L 99.891955 140.179665 
L 100.977756 133.223196 
L 102.063557 117.358863 
L 103.149358 119.360095 
L 104.23516 124.904595 
L 105.320961 119.011529 
L 106.406762 147.65982 
L 107.492563 140.330251 
L 108.578364 141.454317 
L 109.664165 169.414453 
L 110.749967 150.476477 
L 111.835768 180.278368 
L 112.921569 154.621063 
L 114.00737 124.481502 
L 115.093171 150.825931 
L 116.178972 120.43056 
L 117.264773 114.141578 
L 118.350575 134.094566 
L 119.436376 124.427625 
L 120.522177 136.114874 
L 121.607978 185.531177 
L 122.693779 152.407392 
L 123.77958 142.92488 
L 124.865382 140.759939 
L 125.951183 144.577487 
L 127.036984 173.695524 
L 128.122785 133.943472 
L 129.208586 104.370651 
L 130.294387 108.9539 
L 131.380189 94.684858 
L 132.46599 126.41985 
L 133.551791 113.058985 
L 134.637592 122.056852 
L 135.723393 136.061448 
L 136.809194 122.001661 
L 137.894995 118.301707 
L 138.980797 136.189595 
L 140.066598 120.922602 
L 141.152399 116.141337 
L 142.2382 129.729977 
L 143.324001 107.521906 
L 144.409802 131.220121 
L 145.495604 119.320573 
L 146.581405 116.368795 
L 148.753007 102.585245 
L 149.838808 101.655559 
L 150.924609 103.411159 
L 152.01041 102.657084 
L 153.096212 102.532291 
L 154.182013 106.926109 
L 155.267814 136.167917 
L 156.353615 95.259103 
L 157.439416 107.92124 
L 158.525217 113.229081 
L 159.611019 96.302352 
L 160.69682 106.136911 
L 161.782621 122.571808 
L 163.954223 107.539934 
L 165.040024 97.871869 
L 166.125825 100.393252 
L 167.211627 100.817674 
L 168.297428 91.10028 
L 169.383229 112.025372 
L 170.46903 102.327575 
L 171.554831 108.116537 
L 172.640632 94.882707 
L 173.726434 95.434411 
L 174.812235 99.332908 
L 175.898036 86.87959 
L 176.983837 108.80225 
L 178.069638 100.323167 
L 179.155439 97.474655 
L 180.24124 112.13621 
L 182.412843 92.216414 
L 183.498644 132.103837 
L 184.584445 113.021502 
L 185.670246 116.895889 
L 186.756047 112.831647 
L 187.841849 120.057872 
L 188.92765 118.642472 
L 190.013451 107.414386 
L 191.099252 97.418855 
L 192.185053 94.165867 
L 193.270854 87.890174 
L 194.356656 96.338497 
L 195.442457 89.932925 
L 196.528258 93.625553 
L 197.614059 119.009065 
L 198.69986 91.333579 
L 199.785661 101.397131 
L 200.871462 87.759172 
L 201.957264 81.614711 
L 203.043065 110.963778 
L 204.128866 99.235558 
L 205.214667 96.999672 
L 206.300468 106.619769 
L 207.386269 101.04532 
L 208.472071 128.300417 
L 209.557872 117.100457 
L 210.643673 100.714062 
L 211.729474 135.89622 
L 212.815275 106.819274 
L 214.986877 95.9404 
L 216.072679 91.581872 
L 217.15848 91.105255 
L 218.244281 79.114556 
L 219.330082 85.506134 
L 220.415883 97.755639 
L 221.501684 97.971147 
L 222.587486 77.42292 
L 223.673287 99.341557 
L 224.759088 71.456175 
L 225.844889 108.600498 
L 226.93069 81.375869 
L 228.016491 97.11407 
L 229.102292 93.470903 
L 230.188094 97.305204 
L 231.273895 92.157269 
L 232.359696 105.399026 
L 233.445497 134.161371 
L 234.531298 106.174644 
L 235.617099 111.882499 
L 236.702901 92.111983 
L 237.788702 103.449846 
L 238.874503 112.352383 
L 239.960304 85.752343 
L 241.046105 81.968542 
L 243.217708 99.752644 
L 244.303509 89.02689 
L 245.38931 95.523206 
L 246.475111 100.597253 
L 247.560912 122.002875 
L 248.646713 80.948684 
L 249.732514 63.71255 
L 250.818316 56.347764 
L 251.904117 73.209261 
L 252.989918 62.050434 
L 254.075719 92.823279 
L 255.16152 68.560277 
L 256.247321 78.582935 
L 257.333123 64.550177 
L 258.418924 71.403707 
L 259.504725 101.264989 
L 260.590526 81.969114 
L 261.676327 89.096727 
L 262.762128 78.682191 
L 263.847929 78.072257 
L 264.933731 62.090014 
L 266.019532 86.388556 
L 267.105333 86.472804 
L 268.191134 63.171602 
L 269.276935 90.418196 
L 270.362736 80.345084 
L 271.448538 75.408784 
L 272.534339 82.769855 
L 273.62014 76.959531 
L 274.705941 82.613056 
L 275.791742 94.458641 
L 276.877543 62.63803 
L 277.963344 69.341855 
L 279.049146 78.57477 
L 280.134947 70.8272 
L 281.220748 57.003506 
L 282.306549 67.91126 
L 283.39235 61.25469 
L 284.478151 81.531199 
L 285.563953 53.568 
L 286.649754 63.372552 
L 287.735555 60.189199 
L 288.821356 74.610536 
L 289.907157 69.133465 
L 290.992958 66.643253 
L 292.07876 74.28872 
L 293.164561 73.864539 
L 294.250362 75.082028 
L 295.336163 58.788827 
L 296.421964 84.515147 
L 297.507765 69.815955 
L 298.593566 60.178707 
L 299.679368 84.018198 
L 300.765169 89.714502 
L 301.85097 90.63473 
L 302.936771 81.146672 
L 304.022572 85.168784 
L 305.108373 81.179543 
L 306.194175 77.810149 
L 307.279976 64.602735 
L 308.365777 65.234071 
L 309.451578 72.499159 
L 310.537379 69.70286 
L 311.62318 78.866727 
L 312.708981 81.352304 
L 313.794783 65.547085 
L 314.880584 63.284746 
L 315.966385 96.170575 
L 317.052186 73.570794 
L 318.137987 81.217262 
L 319.223788 80.58037 
L 320.30959 88.009417 
L 321.395391 75.525401 
L 322.481192 84.09966 
L 323.566993 64.503637 
L 324.652794 75.279722 
L 325.738595 102.115741 
L 326.824396 72.891583 
L 327.910198 75.96111 
L 328.995999 85.396776 
L 330.0818 74.060431 
L 331.167601 67.305553 
L 332.253402 89.508288 
L 333.339203 87.99118 
L 334.425005 67.079074 
L 335.510806 85.881055 
L 336.596607 96.298852 
L 337.682408 74.094351 
L 338.768209 107.526059 
L 339.85401 100.864039 
L 340.939811 98.113497 
L 342.025613 78.173252 
L 343.111414 106.366799 
L 344.197215 70.867851 
L 345.283016 95.413223 
L 346.368817 96.237912 
L 347.454618 104.943039 
L 348.54042 83.64651 
L 349.626221 100.225052 
L 350.712022 93.768377 
L 351.797823 84.853236 
L 352.883624 83.721572 
L 353.969425 105.387681 
L 355.055227 82.104639 
L 356.141028 111.210309 
L 357.226829 82.437508 
L 358.31263 92.707656 
L 359.398431 82.696279 
L 360.484232 90.096316 
L 361.570033 90.461033 
L 363.741636 75.988376 
L 364.827437 93.503218 
L 365.913238 119.090172 
L 366.999039 97.881259 
L 368.08484 87.32264 
L 369.170642 83.725684 
L 370.256443 68.553614 
L 371.342244 77.481115 
L 372.428045 95.094783 
L 373.513846 81.574208 
L 374.599647 74.190339 
L 375.685448 87.882171 
L 376.77125 76.723885 
L 377.857051 103.902592 
L 378.942852 84.162289 
L 380.028653 76.473034 
L 381.114454 90.545572 
L 382.200255 75.382175 
L 383.286057 97.72987 
L 384.371858 91.475068 
L 385.457659 64.780851 
L 386.54346 95.678617 
L 387.629261 69.07735 
L 388.715062 102.86654 
L 389.800863 74.240405 
L 390.886665 97.466815 
L 391.972466 76.338811 
L 393.058267 92.054251 
L 394.144068 58.111892 
L 395.229869 92.794711 
L 396.31567 87.953015 
L 397.401472 97.663853 
L 398.487273 113.863681 
L 398.487273 113.863681 
" style="fill:none;stroke:#008000;stroke-dasharray:9.6,2.4,1.5,2.4;stroke-dashoffset:0;stroke-width:1.5;"/>
   </g>
   <g id="line2d_32">
    <path clip-path="url(#p2a5c334421)" d="M 73.832727 272.849328 
L 74.918528 171.30024 
L 76.00433 170.546139 
L 77.090131 166.034263 
L 78.175932 160.788863 
L 79.261733 185.74875 
L 80.347534 166.404145 
L 81.433335 149.675483 
L 82.519137 143.770865 
L 83.604938 147.922245 
L 84.690739 123.628353 
L 85.77654 130.636782 
L 86.862341 154.033606 
L 87.948142 144.068306 
L 89.033943 146.396844 
L 90.119745 165.889911 
L 91.205546 125.508687 
L 92.291347 116.113944 
L 93.377148 147.254589 
L 94.462949 130.951398 
L 95.54875 142.691711 
L 96.634552 109.023244 
L 97.720353 120.322089 
L 98.806154 129.272995 
L 99.891955 139.391701 
L 100.977756 119.314019 
L 102.063557 116.199957 
L 103.149358 108.61403 
L 104.23516 101.888256 
L 105.320961 112.608479 
L 106.406762 130.221498 
L 107.492563 131.676799 
L 108.578364 125.597557 
L 109.664165 152.321061 
L 110.749967 114.413849 
L 111.835768 168.553763 
L 112.921569 140.099077 
L 114.00737 100.418958 
L 115.093171 135.634101 
L 116.178972 103.767694 
L 117.264773 88.671644 
L 118.350575 118.574786 
L 119.436376 112.075578 
L 120.522177 121.629781 
L 121.607978 169.119162 
L 122.693779 133.907256 
L 123.77958 120.785921 
L 124.865382 131.81583 
L 125.951183 130.113599 
L 127.036984 160.71623 
L 128.122785 105.666623 
L 129.208586 88.151442 
L 130.294387 79.594622 
L 131.380189 83.327694 
L 132.46599 108.810886 
L 133.551791 100.565103 
L 135.723393 128.604207 
L 136.809194 109.622609 
L 137.894995 98.728373 
L 138.980797 119.973304 
L 140.066598 106.601848 
L 141.152399 106.545246 
L 142.2382 117.875613 
L 143.324001 96.376272 
L 144.409802 121.474862 
L 145.495604 111.868194 
L 146.581405 107.479628 
L 147.667206 101.050611 
L 148.753007 84.767814 
L 149.838808 99.24209 
L 150.924609 99.292432 
L 152.01041 93.406065 
L 153.096212 94.549258 
L 154.182013 86.469201 
L 155.267814 136.848485 
L 156.353615 88.858805 
L 157.439416 91.238041 
L 158.525217 100.110424 
L 159.611019 101.37905 
L 160.69682 88.403568 
L 161.782621 108.500833 
L 162.868422 111.38565 
L 163.954223 95.0796 
L 165.040024 93.233356 
L 166.125825 94.075797 
L 167.211627 98.437881 
L 168.297428 74.150181 
L 169.383229 102.67988 
L 170.46903 87.129381 
L 171.554831 97.377325 
L 172.640632 84.051219 
L 173.726434 82.015353 
L 174.812235 94.877518 
L 175.898036 73.372556 
L 176.983837 102.738072 
L 178.069638 85.924787 
L 179.155439 85.322737 
L 180.24124 99.041822 
L 181.327042 99.415366 
L 182.412843 84.426004 
L 183.498644 124.332159 
L 184.584445 106.426186 
L 185.670246 114.982228 
L 186.756047 104.90163 
L 187.841849 111.204498 
L 188.92765 121.794927 
L 190.013451 102.471352 
L 191.099252 85.589646 
L 192.185053 91.49649 
L 193.270854 87.653842 
L 194.356656 93.019084 
L 195.442457 86.298732 
L 196.528258 84.635648 
L 197.614059 110.7139 
L 198.69986 77.851696 
L 199.785661 87.673931 
L 200.871462 77.679861 
L 201.957264 66.067129 
L 203.043065 102.588165 
L 204.128866 80.33356 
L 205.214667 83.78755 
L 206.300468 91.509622 
L 207.386269 84.777184 
L 208.472071 115.489195 
L 209.557872 101.683406 
L 210.643673 75.079355 
L 211.729474 124.781066 
L 212.815275 94.230419 
L 213.901076 85.599356 
L 214.986877 83.480266 
L 216.072679 71.96435 
L 217.15848 79.499816 
L 218.244281 68.738801 
L 219.330082 81.11738 
L 220.415883 91.867048 
L 221.501684 81.713714 
L 222.587486 65.96219 
L 223.673287 96.940794 
L 224.759088 70.107008 
L 225.844889 96.336092 
L 226.93069 80.018171 
L 228.016491 99.575741 
L 229.102292 92.384493 
L 230.188094 94.999754 
L 231.273895 91.586566 
L 232.359696 96.439106 
L 233.445497 127.815152 
L 234.531298 98.121434 
L 235.617099 112.848296 
L 236.702901 82.351924 
L 237.788702 110.577846 
L 238.874503 109.953246 
L 239.960304 80.697321 
L 241.046105 86.882719 
L 242.131906 90.18025 
L 243.217708 102.236699 
L 244.303509 89.163013 
L 245.38931 92.442729 
L 246.475111 94.598513 
L 247.560912 113.728178 
L 248.646713 76.811814 
L 249.732514 72.371509 
L 250.818316 60.872575 
L 251.904117 68.840114 
L 252.989918 69.943342 
L 254.075719 90.761683 
L 255.16152 70.146018 
L 256.247321 84.731042 
L 257.333123 75.154656 
L 258.418924 79.457909 
L 259.504725 92.397934 
L 260.590526 81.146392 
L 261.676327 79.430311 
L 262.762128 76.962449 
L 263.847929 71.297589 
L 264.933731 66.348842 
L 266.019532 76.47432 
L 267.105333 78.92251 
L 268.191134 60.239059 
L 269.276935 78.559989 
L 270.362736 73.741371 
L 271.448538 64.516278 
L 272.534339 78.549498 
L 273.62014 65.941016 
L 274.705941 72.848351 
L 275.791742 94.395364 
L 276.877543 58.549477 
L 277.963344 66.010645 
L 279.049146 77.340042 
L 280.134947 65.556892 
L 281.220748 61.967524 
L 282.306549 68.677537 
L 283.39235 65.767928 
L 284.478151 79.828756 
L 285.563953 54.508851 
L 286.649754 60.38559 
L 287.735555 59.566072 
L 288.821356 72.996199 
L 289.907157 67.748722 
L 290.992958 67.737755 
L 292.07876 72.117814 
L 293.164561 71.889865 
L 294.250362 74.472914 
L 295.336163 58.698756 
L 296.421964 84.855923 
L 297.507765 67.696307 
L 298.593566 57.407824 
L 299.679368 74.693192 
L 300.765169 88.092467 
L 301.85097 84.895553 
L 302.936771 77.415616 
L 304.022572 81.108137 
L 305.108373 75.262121 
L 306.194175 70.77095 
L 307.279976 60.807141 
L 308.365777 61.120317 
L 309.451578 69.571467 
L 310.537379 68.370207 
L 311.62318 74.445038 
L 312.708981 71.600534 
L 313.794783 60.109102 
L 314.880584 60.719513 
L 315.966385 85.410095 
L 317.052186 73.487267 
L 318.137987 72.412215 
L 320.30959 81.200858 
L 321.395391 72.377601 
L 322.481192 75.580855 
L 323.566993 55.402818 
L 324.652794 69.311874 
L 325.738595 87.65454 
L 326.824396 61.664032 
L 328.995999 73.432611 
L 331.167601 61.776184 
L 332.253402 80.866615 
L 333.339203 78.165891 
L 334.425005 60.47576 
L 335.510806 79.800267 
L 336.596607 87.13213 
L 337.682408 64.780697 
L 338.768209 97.206794 
L 339.85401 98.849715 
L 340.939811 91.451449 
L 342.025613 72.33387 
L 343.111414 98.805169 
L 344.197215 62.550497 
L 345.283016 92.028415 
L 346.368817 90.03531 
L 347.454618 93.079958 
L 348.54042 76.159668 
L 349.626221 83.744176 
L 350.712022 88.201262 
L 351.797823 81.672552 
L 352.883624 73.939037 
L 353.969425 110.997252 
L 355.055227 82.142104 
L 356.141028 105.908353 
L 357.226829 73.499695 
L 358.31263 87.322961 
L 359.398431 76.020732 
L 360.484232 79.428237 
L 361.570033 85.782669 
L 362.655835 79.514668 
L 363.741636 69.796011 
L 364.827437 84.226369 
L 365.913238 115.363243 
L 366.999039 92.277642 
L 368.08484 77.415291 
L 369.170642 80.322228 
L 370.256443 62.488865 
L 371.342244 72.822246 
L 372.428045 88.283435 
L 373.513846 74.654242 
L 374.599647 68.779879 
L 375.685448 78.386809 
L 376.77125 70.453262 
L 377.857051 92.532785 
L 378.942852 76.195972 
L 380.028653 70.901821 
L 381.114454 85.613148 
L 382.200255 70.78634 
L 383.286057 88.790303 
L 384.371858 90.847404 
L 385.457659 61.844889 
L 386.54346 90.926493 
L 387.629261 69.207821 
L 388.715062 96.612594 
L 389.800863 73.287735 
L 390.886665 93.074709 
L 391.972466 67.928263 
L 393.058267 92.296869 
L 394.144068 58.735322 
L 395.229869 85.425012 
L 396.31567 78.378352 
L 397.401472 90.151736 
L 398.487273 107.834389 
L 398.487273 107.834389 
" style="fill:none;stroke:#ff0000;stroke-linecap:square;stroke-width:1.5;"/>
   </g>
   <g id="patch_3">
    <path d="M 57.6 307.584 
L 57.6 41.472 
" style="fill:none;stroke:#000000;stroke-linecap:square;stroke-linejoin:miter;stroke-width:0.8;"/>
   </g>
   <g id="patch_4">
    <path d="M 414.72 307.584 
L 414.72 41.472 
" style="fill:none;stroke:#000000;stroke-linecap:square;stroke-linejoin:miter;stroke-width:0.8;"/>
   </g>
   <g id="patch_5">
    <path d="M 57.6 307.584 
L 414.72 307.584 
" style="fill:none;stroke:#000000;stroke-linecap:square;stroke-linejoin:miter;stroke-width:0.8;"/>
   </g>
   <g id="patch_6">
    <path d="M 57.6 41.472 
L 414.72 41.472 
" style="fill:none;stroke:#000000;stroke-linecap:square;stroke-linejoin:miter;stroke-width:0.8;"/>
   </g>
   <g id="text_17">
    <!-- Population's average and best fitness -->
    <defs>
     <path d="M 19.671875 64.796875 
L 19.671875 37.40625 
L 32.078125 37.40625 
Q 38.96875 37.40625 42.71875 40.96875 
Q 46.484375 44.53125 46.484375 51.125 
Q 46.484375 57.671875 42.71875 61.234375 
Q 38.96875 64.796875 32.078125 64.796875 
z
M 9.8125 72.90625 
L 32.078125 72.90625 
Q 44.34375 72.90625 50.609375 67.359375 
Q 56.890625 61.8125 56.890625 51.125 
Q 56.890625 40.328125 50.609375 34.8125 
Q 44.34375 29.296875 32.078125 29.296875 
L 19.671875 29.296875 
L 19.671875 0 
L 9.8125 0 
z
" id="DejaVuSans-80"/>
     <path d="M 18.109375 8.203125 
L 18.109375 -20.796875 
L 9.078125 -20.796875 
L 9.078125 54.6875 
L 18.109375 54.6875 
L 18.109375 46.390625 
Q 20.953125 51.265625 25.265625 53.625 
Q 29.59375 56 35.59375 56 
Q 45.5625 56 51.78125 48.09375 
Q 58.015625 40.1875 58.015625 27.296875 
Q 58.015625 14.40625 51.78125 6.484375 
Q 45.5625 -1.421875 35.59375 -1.421875 
Q 29.59375 -1.421875 25.265625 0.953125 
Q 20.953125 3.328125 18.109375 8.203125 
z
M 48.6875 27.296875 
Q 48.6875 37.203125 44.609375 42.84375 
Q 40.53125 48.484375 33.40625 48.484375 
Q 26.265625 48.484375 22.1875 42.84375 
Q 18.109375 37.203125 18.109375 27.296875 
Q 18.109375 17.390625 22.1875 11.75 
Q 26.265625 6.109375 33.40625 6.109375 
Q 40.53125 6.109375 44.609375 11.75 
Q 48.6875 17.390625 48.6875 27.296875 
z
" id="DejaVuSans-112"/>
     <path d="M 8.5 21.578125 
L 8.5 54.6875 
L 17.484375 54.6875 
L 17.484375 21.921875 
Q 17.484375 14.15625 20.5 10.265625 
Q 23.53125 6.390625 29.59375 6.390625 
Q 36.859375 6.390625 41.078125 11.03125 
Q 45.3125 15.671875 45.3125 23.6875 
L 45.3125 54.6875 
L 54.296875 54.6875 
L 54.296875 0 
L 45.3125 0 
L 45.3125 8.40625 
Q 42.046875 3.421875 37.71875 1 
Q 33.40625 -1.421875 27.6875 -1.421875 
Q 18.265625 -1.421875 13.375 4.4375 
Q 8.5 10.296875 8.5 21.578125 
z
M 31.109375 56 
z
" id="DejaVuSans-117"/>
     <path d="M 9.421875 75.984375 
L 18.40625 75.984375 
L 18.40625 0 
L 9.421875 0 
z
" id="DejaVuSans-108"/>
     <path d="M 17.921875 72.90625 
L 17.921875 45.796875 
L 9.625 45.796875 
L 9.625 72.90625 
z
" id="DejaVuSans-39"/>
     <path id="DejaVuSans-32"/>
     <path d="M 2.984375 54.6875 
L 12.5 54.6875 
L 29.59375 8.796875 
L 46.6875 54.6875 
L 56.203125 54.6875 
L 35.6875 0 
L 23.484375 0 
z
" id="DejaVuSans-118"/>
     <path d="M 45.40625 27.984375 
Q 45.40625 37.75 41.375 43.109375 
Q 37.359375 48.484375 30.078125 48.484375 
Q 22.859375 48.484375 18.828125 43.109375 
Q 14.796875 37.75 14.796875 27.984375 
Q 14.796875 18.265625 18.828125 12.890625 
Q 22.859375 7.515625 30.078125 7.515625 
Q 37.359375 7.515625 41.375 12.890625 
Q 45.40625 18.265625 45.40625 27.984375 
z
M 54.390625 6.78125 
Q 54.390625 -7.171875 48.1875 -13.984375 
Q 42 -20.796875 29.203125 -20.796875 
Q 24.46875 -20.796875 20.265625 -20.09375 
Q 16.0625 -19.390625 12.109375 -17.921875 
L 12.109375 -9.1875 
Q 16.0625 -11.328125 19.921875 -12.34375 
Q 23.78125 -13.375 27.78125 -13.375 
Q 36.625 -13.375 41.015625 -8.765625 
Q 45.40625 -4.15625 45.40625 5.171875 
L 45.40625 9.625 
Q 42.625 4.78125 38.28125 2.390625 
Q 33.9375 0 27.875 0 
Q 17.828125 0 11.671875 7.65625 
Q 5.515625 15.328125 5.515625 27.984375 
Q 5.515625 40.671875 11.671875 48.328125 
Q 17.828125 56 27.875 56 
Q 33.9375 56 38.28125 53.609375 
Q 42.625 51.21875 45.40625 46.390625 
L 45.40625 54.6875 
L 54.390625 54.6875 
z
" id="DejaVuSans-103"/>
     <path d="M 45.40625 46.390625 
L 45.40625 75.984375 
L 54.390625 75.984375 
L 54.390625 0 
L 45.40625 0 
L 45.40625 8.203125 
Q 42.578125 3.328125 38.25 0.953125 
Q 33.9375 -1.421875 27.875 -1.421875 
Q 17.96875 -1.421875 11.734375 6.484375 
Q 5.515625 14.40625 5.515625 27.296875 
Q 5.515625 40.1875 11.734375 48.09375 
Q 17.96875 56 27.875 56 
Q 33.9375 56 38.25 53.625 
Q 42.578125 51.265625 45.40625 46.390625 
z
M 14.796875 27.296875 
Q 14.796875 17.390625 18.875 11.75 
Q 22.953125 6.109375 30.078125 6.109375 
Q 37.203125 6.109375 41.296875 11.75 
Q 45.40625 17.390625 45.40625 27.296875 
Q 45.40625 37.203125 41.296875 42.84375 
Q 37.203125 48.484375 30.078125 48.484375 
Q 22.953125 48.484375 18.875 42.84375 
Q 14.796875 37.203125 14.796875 27.296875 
z
" id="DejaVuSans-100"/>
     <path d="M 48.6875 27.296875 
Q 48.6875 37.203125 44.609375 42.84375 
Q 40.53125 48.484375 33.40625 48.484375 
Q 26.265625 48.484375 22.1875 42.84375 
Q 18.109375 37.203125 18.109375 27.296875 
Q 18.109375 17.390625 22.1875 11.75 
Q 26.265625 6.109375 33.40625 6.109375 
Q 40.53125 6.109375 44.609375 11.75 
Q 48.6875 17.390625 48.6875 27.296875 
z
M 18.109375 46.390625 
Q 20.953125 51.265625 25.265625 53.625 
Q 29.59375 56 35.59375 56 
Q 45.5625 56 51.78125 48.09375 
Q 58.015625 40.1875 58.015625 27.296875 
Q 58.015625 14.40625 51.78125 6.484375 
Q 45.5625 -1.421875 35.59375 -1.421875 
Q 29.59375 -1.421875 25.265625 0.953125 
Q 20.953125 3.328125 18.109375 8.203125 
L 18.109375 0 
L 9.078125 0 
L 9.078125 75.984375 
L 18.109375 75.984375 
z
" id="DejaVuSans-98"/>
     <path d="M 37.109375 75.984375 
L 37.109375 68.5 
L 28.515625 68.5 
Q 23.6875 68.5 21.796875 66.546875 
Q 19.921875 64.59375 19.921875 59.515625 
L 19.921875 54.6875 
L 34.71875 54.6875 
L 34.71875 47.703125 
L 19.921875 47.703125 
L 19.921875 0 
L 10.890625 0 
L 10.890625 47.703125 
L 2.296875 47.703125 
L 2.296875 54.6875 
L 10.890625 54.6875 
L 10.890625 58.5 
Q 10.890625 67.625 15.140625 71.796875 
Q 19.390625 75.984375 28.609375 75.984375 
z
" id="DejaVuSans-102"/>
    </defs>
    <g transform="translate(123.315 35.472)scale(0.12 -0.12)">
     <use xlink:href="#DejaVuSans-80"/>
     <use x="60.255859" xlink:href="#DejaVuSans-111"/>
     <use x="121.4375" xlink:href="#DejaVuSans-112"/>
     <use x="184.914062" xlink:href="#DejaVuSans-117"/>
     <use x="248.292969" xlink:href="#DejaVuSans-108"/>
     <use x="276.076172" xlink:href="#DejaVuSans-97"/>
     <use x="337.355469" xlink:href="#DejaVuSans-116"/>
     <use x="376.564453" xlink:href="#DejaVuSans-105"/>
     <use x="404.347656" xlink:href="#DejaVuSans-111"/>
     <use x="465.529297" xlink:href="#DejaVuSans-110"/>
     <use x="528.908203" xlink:href="#DejaVuSans-39"/>
     <use x="556.398438" xlink:href="#DejaVuSans-115"/>
     <use x="608.498047" xlink:href="#DejaVuSans-32"/>
     <use x="640.285156" xlink:href="#DejaVuSans-97"/>
     <use x="701.564453" xlink:href="#DejaVuSans-118"/>
     <use x="760.744141" xlink:href="#DejaVuSans-101"/>
     <use x="822.267578" xlink:href="#DejaVuSans-114"/>
     <use x="863.380859" xlink:href="#DejaVuSans-97"/>
     <use x="924.660156" xlink:href="#DejaVuSans-103"/>
     <use x="988.136719" xlink:href="#DejaVuSans-101"/>
     <use x="1049.660156" xlink:href="#DejaVuSans-32"/>
     <use x="1081.447266" xlink:href="#DejaVuSans-97"/>
     <use x="1142.726562" xlink:href="#DejaVuSans-110"/>
     <use x="1206.105469" xlink:href="#DejaVuSans-100"/>
     <use x="1269.582031" xlink:href="#DejaVuSans-32"/>
     <use x="1301.369141" xlink:href="#DejaVuSans-98"/>
     <use x="1364.845703" xlink:href="#DejaVuSans-101"/>
     <use x="1426.369141" xlink:href="#DejaVuSans-115"/>
     <use x="1478.46875" xlink:href="#DejaVuSans-116"/>
     <use x="1517.677734" xlink:href="#DejaVuSans-32"/>
     <use x="1549.464844" xlink:href="#DejaVuSans-102"/>
     <use x="1584.669922" xlink:href="#DejaVuSans-105"/>
     <use x="1612.453125" xlink:href="#DejaVuSans-116"/>
     <use x="1651.662109" xlink:href="#DejaVuSans-110"/>
     <use x="1715.041016" xlink:href="#DejaVuSans-101"/>
     <use x="1776.564453" xlink:href="#DejaVuSans-115"/>
     <use x="1828.664062" xlink:href="#DejaVuSans-115"/>
    </g>
   </g>
   <g id="legend_1">
    <g id="patch_7">
     <path d="M 334.779375 302.584 
L 407.72 302.584 
Q 409.72 302.584 409.72 300.584 
L 409.72 242.8715 
Q 409.72 240.8715 407.72 240.8715 
L 334.779375 240.8715 
Q 332.779375 240.8715 332.779375 242.8715 
L 332.779375 300.584 
Q 332.779375 302.584 334.779375 302.584 
z
" style="fill:#ffffff;opacity:0.8;stroke:#cccccc;stroke-linejoin:miter;"/>
    </g>
    <g id="line2d_33">
     <path d="M 336.779375 248.969937 
L 356.779375 248.969937 
" style="fill:none;stroke:#0000ff;stroke-linecap:square;stroke-width:1.5;"/>
    </g>
    <g id="line2d_34"/>
    <g id="text_18">
     <!-- average -->
     <g transform="translate(364.779375 252.469937)scale(0.1 -0.1)">
      <use xlink:href="#DejaVuSans-97"/>
      <use x="61.279297" xlink:href="#DejaVuSans-118"/>
      <use x="120.458984" xlink:href="#DejaVuSans-101"/>
      <use x="181.982422" xlink:href="#DejaVuSans-114"/>
      <use x="223.095703" xlink:href="#DejaVuSans-97"/>
      <use x="284.375" xlink:href="#DejaVuSans-103"/>
      <use x="347.851562" xlink:href="#DejaVuSans-101"/>
     </g>
    </g>
    <g id="line2d_35">
     <path d="M 336.779375 263.648062 
L 356.779375 263.648062 
" style="fill:none;stroke:#008000;stroke-dasharray:9.6,2.4,1.5,2.4;stroke-dashoffset:0;stroke-width:1.5;"/>
    </g>
    <g id="line2d_36"/>
    <g id="text_19">
     <!-- -1 sd -->
     <defs>
      <path d="M 4.890625 31.390625 
L 31.203125 31.390625 
L 31.203125 23.390625 
L 4.890625 23.390625 
z
" id="DejaVuSans-45"/>
     </defs>
     <g transform="translate(364.779375 267.148062)scale(0.1 -0.1)">
      <use xlink:href="#DejaVuSans-45"/>
      <use x="36.083984" xlink:href="#DejaVuSans-49"/>
      <use x="99.707031" xlink:href="#DejaVuSans-32"/>
      <use x="131.494141" xlink:href="#DejaVuSans-115"/>
      <use x="183.59375" xlink:href="#DejaVuSans-100"/>
     </g>
    </g>
    <g id="line2d_37">
     <path d="M 336.779375 278.326187 
L 356.779375 278.326187 
" style="fill:none;stroke:#008000;stroke-dasharray:9.6,2.4,1.5,2.4;stroke-dashoffset:0;stroke-width:1.5;"/>
    </g>
    <g id="line2d_38"/>
    <g id="text_20">
     <!-- +1 sd -->
     <defs>
      <path d="M 46 62.703125 
L 46 35.5 
L 73.1875 35.5 
L 73.1875 27.203125 
L 46 27.203125 
L 46 0 
L 37.796875 0 
L 37.796875 27.203125 
L 10.59375 27.203125 
L 10.59375 35.5 
L 37.796875 35.5 
L 37.796875 62.703125 
z
" id="DejaVuSans-43"/>
     </defs>
     <g transform="translate(364.779375 281.826187)scale(0.1 -0.1)">
      <use xlink:href="#DejaVuSans-43"/>
      <use x="83.789062" xlink:href="#DejaVuSans-49"/>
      <use x="147.412109" xlink:href="#DejaVuSans-32"/>
      <use x="179.199219" xlink:href="#DejaVuSans-115"/>
      <use x="231.298828" xlink:href="#DejaVuSans-100"/>
     </g>
    </g>
    <g id="line2d_39">
     <path d="M 336.779375 293.004312 
L 356.779375 293.004312 
" style="fill:none;stroke:#ff0000;stroke-linecap:square;stroke-width:1.5;"/>
    </g>
    <g id="line2d_40"/>
    <g id="text_21">
     <!-- best -->
     <g transform="translate(364.779375 296.504312)scale(0.1 -0.1)">
      <use xlink:href="#DejaVuSans-98"/>
      <use x="63.476562" xlink:href="#DejaVuSans-101"/>
      <use x="125" xlink:href="#DejaVuSans-115"/>
      <use x="177.099609" xlink:href="#DejaVuSans-116"/>
     </g>
    </g>
   </g>
  </g>
 </g>
 <defs>
  <clipPath id="p2a5c334421">
   <rect height="266.112" width="357.12" x="57.6" y="41.472"/>
  </clipPath>
 </defs>
</svg>
