<?xml version="1.0" encoding="UTF-8" standalone="no"?>
<!DOCTYPE svg PUBLIC "-//W3C//DTD SVG 1.1//EN"
 "http://www.w3.org/Graphics/SVG/1.1/DTD/svg11.dtd">
<!-- Generated by graphviz version 2.40.1 (20161225.0304)
 -->
<!-- Title: %3 Pages: 1 -->
<svg width="485pt" height="182pt"
 viewBox="0.00 0.00 484.77 181.85" xmlns="http://www.w3.org/2000/svg" xmlns:xlink="http://www.w3.org/1999/xlink">
<g id="graph0" class="graph" transform="scale(1 1) rotate(0) translate(4 177.8494)">
<title>%3</title>
<polygon fill="#ffffff" stroke="transparent" points="-4,4 -4,-177.8494 480.7661,-177.8494 480.7661,4 -4,4"/>
<!-- 0 -->
<g id="node1" class="node">
<title>0</title>
<polygon fill="#d3d3d3" stroke="#000000" points="390.389,-173.8494 370.3771,-173.8494 370.3771,-156.8494 390.389,-156.8494 390.389,-173.8494"/>
<text text-anchor="middle" x="380.383" y="-162.6494" font-family="Times,serif" font-size="9.00" fill="#000000">0</text>
</g>
<!-- 1 -->
<g id="node2" class="node">
<title>1</title>
<polygon fill="#d3d3d3" stroke="#000000" points="429.389,-173.8494 409.3771,-173.8494 409.3771,-156.8494 429.389,-156.8494 429.389,-173.8494"/>
<text text-anchor="middle" x="419.383" y="-162.6494" font-family="Times,serif" font-size="9.00" fill="#000000">1</text>
</g>
<!-- 0&#45;&gt;1 -->
<!-- 4209 -->
<g id="node14" class="node">
<title>4209</title>
<ellipse fill="#ffffff" stroke="#000000" cx="392.383" cy="-96.8077" rx="24.0833" ry="24.0833"/>
<text text-anchor="middle" x="392.383" y="-94.1077" font-family="Times,serif" font-size="9.00" fill="#000000">4209</text>
</g>
<!-- 0&#45;&gt;4209 -->
<g id="edge13" class="edge">
<title>0&#45;&gt;4209</title>
<path fill="none" stroke="#00ff00" stroke-width=".3179" d="M381.9029,-156.6685C383.073,-149.9846 384.7715,-140.2836 386.4616,-130.63"/>
<polygon fill="#00ff00" stroke="#00ff00" stroke-width=".3179" points="389.9203,-131.1694 388.1974,-120.7156 383.0252,-129.9622 389.9203,-131.1694"/>
</g>
<!-- 2 -->
<g id="node3" class="node">
<title>2</title>
<polygon fill="#d3d3d3" stroke="#000000" points="468.389,-173.8494 448.3771,-173.8494 448.3771,-156.8494 468.389,-156.8494 468.389,-173.8494"/>
<text text-anchor="middle" x="458.383" y="-162.6494" font-family="Times,serif" font-size="9.00" fill="#000000">2</text>
</g>
<!-- 1&#45;&gt;2 -->
<!-- E0 -->
<g id="node4" class="node">
<title>E0</title>
<ellipse fill="#add8e6" stroke="#000000" cx="18.383" cy="-18.383" rx="18.2668" ry="18.2668"/>
<text text-anchor="middle" x="18.383" y="-15.683" font-family="Times,serif" font-size="9.00" fill="#000000">E0</text>
</g>
<!-- 1&#45;&gt;E0 -->
<g id="edge12" class="edge">
<title>1&#45;&gt;E0</title>
<path fill="none" stroke="#00ff00" stroke-width="1.8495" d="M408.9791,-160.3274C405.9429,-159.0275 402.5804,-157.7436 399.383,-156.8494 291.6985,-126.7304 253.2933,-164.5825 150.383,-120.8494 105.33,-101.7034 62.3205,-63.2797 38.2343,-39.3096"/>
<polygon fill="#00ff00" stroke="#00ff00" stroke-width="1.8495" points="40.6148,-36.7389 31.1004,-32.0777 35.6314,-41.6548 40.6148,-36.7389"/>
</g>
<!-- E8 -->
<g id="node12" class="node">
<title>E8</title>
<ellipse fill="#add8e6" stroke="#000000" cx="458.383" cy="-18.383" rx="18.2668" ry="18.2668"/>
<text text-anchor="middle" x="458.383" y="-15.683" font-family="Times,serif" font-size="9.00" fill="#000000">E8</text>
</g>
<!-- 2&#45;&gt;E8 -->
<g id="edge11" class="edge">
<title>2&#45;&gt;E8</title>
<path fill="none" stroke="#00ff00" stroke-width="1.9645" d="M458.383,-156.5961C458.383,-135.4629 458.383,-80.8974 458.383,-46.9901"/>
<polygon fill="#00ff00" stroke="#00ff00" stroke-width="1.9645" points="461.8831,-46.7757 458.383,-36.7757 454.8831,-46.7757 461.8831,-46.7757"/>
</g>
<!-- E1 -->
<g id="node5" class="node">
<title>E1</title>
<ellipse fill="#add8e6" stroke="#000000" cx="73.383" cy="-18.383" rx="18.2668" ry="18.2668"/>
<text text-anchor="middle" x="73.383" y="-15.683" font-family="Times,serif" font-size="9.00" fill="#000000">E1</text>
</g>
<!-- E0&#45;&gt;E1 -->
<!-- E2 -->
<g id="node6" class="node">
<title>E2</title>
<ellipse fill="#add8e6" stroke="#000000" cx="128.383" cy="-18.383" rx="18.2668" ry="18.2668"/>
<text text-anchor="middle" x="128.383" y="-15.683" font-family="Times,serif" font-size="9.00" fill="#000000">E2</text>
</g>
<!-- E1&#45;&gt;E2 -->
<!-- E3 -->
<g id="node7" class="node">
<title>E3</title>
<ellipse fill="#add8e6" stroke="#000000" cx="183.383" cy="-18.383" rx="18.2668" ry="18.2668"/>
<text text-anchor="middle" x="183.383" y="-15.683" font-family="Times,serif" font-size="9.00" fill="#000000">E3</text>
</g>
<!-- E2&#45;&gt;E3 -->
<!-- E4 -->
<g id="node8" class="node">
<title>E4</title>
<ellipse fill="#add8e6" stroke="#000000" cx="238.383" cy="-18.383" rx="18.2668" ry="18.2668"/>
<text text-anchor="middle" x="238.383" y="-15.683" font-family="Times,serif" font-size="9.00" fill="#000000">E4</text>
</g>
<!-- E3&#45;&gt;E4 -->
<!-- E5 -->
<g id="node9" class="node">
<title>E5</title>
<ellipse fill="#add8e6" stroke="#000000" cx="293.383" cy="-18.383" rx="18.2668" ry="18.2668"/>
<text text-anchor="middle" x="293.383" y="-15.683" font-family="Times,serif" font-size="9.00" fill="#000000">E5</text>
</g>
<!-- E4&#45;&gt;E5 -->
<!-- E6 -->
<g id="node10" class="node">
<title>E6</title>
<ellipse fill="#add8e6" stroke="#000000" cx="348.383" cy="-18.383" rx="18.2668" ry="18.2668"/>
<text text-anchor="middle" x="348.383" y="-15.683" font-family="Times,serif" font-size="9.00" fill="#000000">E6</text>
</g>
<!-- E5&#45;&gt;E6 -->
<!-- E7 -->
<g id="node11" class="node">
<title>E7</title>
<ellipse fill="#add8e6" stroke="#000000" cx="403.383" cy="-18.383" rx="18.2668" ry="18.2668"/>
<text text-anchor="middle" x="403.383" y="-15.683" font-family="Times,serif" font-size="9.00" fill="#000000">E7</text>
</g>
<!-- E6&#45;&gt;E7 -->
<!-- E7&#45;&gt;E8 -->
<!-- 5249 -->
<g id="node13" class="node">
<title>5249</title>
<ellipse fill="#ffffff" stroke="#000000" cx="183.383" cy="-96.8077" rx="24.0833" ry="24.0833"/>
<text text-anchor="middle" x="183.383" y="-94.1077" font-family="Times,serif" font-size="9.00" fill="#000000">5249</text>
</g>
<!-- 5249&#45;&gt;E3 -->
<g id="edge15" class="edge">
<title>5249&#45;&gt;E3</title>
<path fill="none" stroke="#00ff00" stroke-width=".3609" d="M183.383,-72.4236C183.383,-64.33 183.383,-55.248 183.383,-46.8729"/>
<polygon fill="#00ff00" stroke="#00ff00" stroke-width=".3609" points="186.8831,-46.7701 183.383,-36.7702 179.8831,-46.7702 186.8831,-46.7701"/>
</g>
<!-- 4209&#45;&gt;E7 -->
<g id="edge14" class="edge">
<title>4209&#45;&gt;E7</title>
<path fill="none" stroke="#ff0000" stroke-width="1.4175" d="M395.7432,-72.8516C396.8931,-64.6533 398.1908,-55.401 399.386,-46.8799"/>
<polygon fill="#ff0000" stroke="#ff0000" stroke-width="1.4175" points="402.8532,-47.3579 400.7762,-36.9686 395.921,-46.3855 402.8532,-47.3579"/>
</g>
</g>
</svg>
